,note_name,start_time,duration,velocity,tempo
0,G5,4.0,4.0,88,132.0
1,C2,4.0,2.0,90,132.0
2,G4,4.0,0.125,90,132.0
3,G4,4.0,4.0,65,132.0
4,A4,4.0,0.125,70,132.0
5,B1,4.0,0.125,50,132.0
6,G2,4.0,0.5,49,132.0
7,C3,4.0,0.5,49,132.0
8,E3,4.0,0.5,49,132.0
9,G3,4.0,0.5,49,132.0
10,C4,4.0,0.5,49,132.0
11,E4,4.0,0.5,49,132.0
12,C5,4.5,0.125,90,132.0
13,A4,4.5,0.125,70,132.0
14,G2,4.5,0.125,49,132.0
15,C3,4.5,0.125,49,132.0
16,E3,4.5,0.125,49,132.0
17,G3,4.5,0.125,49,132.0
18,C4,4.5,0.125,49,132.0
19,E4,4.5,0.125,49,132.0
20,C5,4.75,0.125,90,132.0
21,A4,4.75,0.125,70,132.0
22,G2,4.75,0.125,49,132.0
23,C3,4.75,0.125,49,132.0
24,E3,4.75,0.125,49,132.0
25,G3,4.75,0.125,49,132.0
26,C4,4.75,0.125,49,132.0
27,E4,4.75,0.125,49,132.0
28,C5,5.0,0.125,90,132.0
29,D2,5.0,0.125,70,132.0
30,A4,5.0,0.125,70,132.0
31,G2,5.0,0.125,49,132.0
32,C3,5.0,0.125,49,132.0
33,E3,5.0,0.125,49,132.0
34,G3,5.0,0.125,49,132.0
35,C4,5.0,0.125,49,132.0
36,E4,5.0,0.125,49,132.0
37,C5,5.5,0.125,90,132.0
38,C4,5.5,0.5,80,132.0
39,G2,5.5,0.5,49,132.0
40,C3,5.5,0.5,49,132.0
41,E3,5.5,0.5,49,132.0
42,G3,5.5,0.5,49,132.0
43,C4,5.5,0.5,49,132.0
44,E4,5.5,0.5,49,132.0
45,E2,6.0,1.0,90,132.0
46,G5,6.0,0.125,90,132.0
47,C4,6.0,0.5,80,132.0
48,A4,6.0,0.125,70,132.0
49,B1,6.0,0.125,50,132.0
50,G2,6.0,0.5,49,132.0
51,C3,6.0,0.5,49,132.0
52,E3,6.0,0.5,49,132.0
53,G3,6.0,0.5,49,132.0
54,C4,6.0,0.5,49,132.0
55,E4,6.0,0.5,49,132.0
56,E5,6.5,0.125,90,132.0
57,B3,6.5,0.5,80,132.0
58,A4,6.5,0.125,70,132.0
59,G2,6.5,0.25,49,132.0
60,C3,6.5,0.25,49,132.0
61,E3,6.5,0.25,49,132.0
62,G3,6.5,0.25,49,132.0
63,C4,6.5,0.25,49,132.0
64,E4,6.5,0.25,49,132.0
65,G2,7.0,1.0,90,132.0
66,C5,7.0,0.125,90,132.0
67,C4,7.0,0.5,80,132.0
68,D2,7.0,0.125,70,132.0
69,G2,7.0,0.5,49,132.0
70,C3,7.0,0.5,49,132.0
71,E3,7.0,0.5,49,132.0
72,G3,7.0,0.5,49,132.0
73,C4,7.0,0.5,49,132.0
74,E4,7.0,0.5,49,132.0
75,A4,7.5,0.125,90,132.0
76,B3,7.5,0.5,80,132.0
77,G2,7.5,0.25,49,132.0
78,C3,7.5,0.25,49,132.0
79,E3,7.5,0.25,49,132.0
80,G3,7.5,0.25,49,132.0
81,C4,7.5,0.25,49,132.0
82,E4,7.5,0.25,49,132.0
83,A5,8.0,4.0,88,132.0
84,A2,8.0,2.0,90,132.0
85,G4,8.0,0.125,90,132.0
86,A4,8.0,4.0,65,132.0
87,A4,8.0,0.125,70,132.0
88,B1,8.0,0.125,50,132.0
89,A2,8.0,0.5,49,132.0
90,E3,8.0,0.5,49,132.0
91,A3,8.0,0.5,49,132.0
92,C4,8.0,0.5,49,132.0
93,E4,8.0,0.5,49,132.0
94,G4,8.5,0.125,90,132.0
95,A4,8.5,0.125,70,132.0
96,A2,8.5,0.125,49,132.0
97,E3,8.5,0.125,49,132.0
98,A3,8.5,0.125,49,132.0
99,C4,8.5,0.125,49,132.0
100,E4,8.5,0.125,49,132.0
101,G4,8.75,0.125,90,132.0
102,A4,8.75,0.125,70,132.0
103,A2,8.75,0.125,49,132.0
104,E3,8.75,0.125,49,132.0
105,A3,8.75,0.125,49,132.0
106,C4,8.75,0.125,49,132.0
107,E4,8.75,0.125,49,132.0
108,G4,9.0,0.125,90,132.0
109,D2,9.0,0.125,70,132.0
110,A4,9.0,0.125,70,132.0
111,A2,9.0,0.125,49,132.0
112,E3,9.0,0.125,49,132.0
113,A3,9.0,0.125,49,132.0
114,C4,9.0,0.125,49,132.0
115,E4,9.0,0.125,49,132.0
116,C5,9.5,0.125,90,132.0
117,G3,9.5,0.5,80,132.0
118,A2,9.5,0.5,49,132.0
119,E3,9.5,0.5,49,132.0
120,A3,9.5,0.5,49,132.0
121,C4,9.5,0.5,49,132.0
122,E4,9.5,0.5,49,132.0
123,E2,10.0,1.0,90,132.0
124,E5,10.0,0.125,90,132.0
125,A3,10.0,0.5,80,132.0
126,A4,10.0,0.125,70,132.0
127,B1,10.0,0.125,50,132.0
128,A2,10.0,0.5,49,132.0
129,E3,10.0,0.5,49,132.0
130,A3,10.0,0.5,49,132.0
131,C4,10.0,0.5,49,132.0
132,E4,10.0,0.5,49,132.0
133,C5,10.5,0.125,90,132.0
134,G3,10.5,0.5,80,132.0
135,A4,10.5,0.125,70,132.0
136,A2,10.5,0.25,49,132.0
137,E3,10.5,0.25,49,132.0
138,A3,10.5,0.25,49,132.0
139,C4,10.5,0.25,49,132.0
140,E4,10.5,0.25,49,132.0
141,G2,11.0,1.0,90,132.0
142,A4,11.0,0.125,90,132.0
143,A3,11.0,0.5,80,132.0
144,D2,11.0,0.125,70,132.0
145,A2,11.0,0.5,49,132.0
146,E3,11.0,0.5,49,132.0
147,A3,11.0,0.5,49,132.0
148,C4,11.0,0.5,49,132.0
149,E4,11.0,0.5,49,132.0
150,G4,11.5,0.125,90,132.0
151,G3,11.5,0.5,80,132.0
152,A2,11.5,0.25,49,132.0
153,E3,11.5,0.25,49,132.0
154,A3,11.5,0.25,49,132.0
155,C4,11.5,0.25,49,132.0
156,E4,11.5,0.25,49,132.0
157,G5,12.0,4.0,88,132.0
158,C2,12.0,2.0,90,132.0
159,G4,12.0,0.125,90,132.0
160,G4,12.0,4.0,65,132.0
161,A4,12.0,0.125,70,132.0
162,B1,12.0,0.125,50,132.0
163,G2,12.0,0.5,49,132.0
164,C3,12.0,0.5,49,132.0
165,E3,12.0,0.5,49,132.0
166,G3,12.0,0.5,49,132.0
167,C4,12.0,0.5,49,132.0
168,E4,12.0,0.5,49,132.0
169,C5,12.5,0.125,90,132.0
170,A4,12.5,0.125,70,132.0
171,G2,12.5,0.125,49,132.0
172,C3,12.5,0.125,49,132.0
173,E3,12.5,0.125,49,132.0
174,G3,12.5,0.125,49,132.0
175,C4,12.5,0.125,49,132.0
176,E4,12.5,0.125,49,132.0
177,C5,12.75,0.125,90,132.0
178,A4,12.75,0.125,70,132.0
179,G2,12.75,0.125,49,132.0
180,C3,12.75,0.125,49,132.0
181,E3,12.75,0.125,49,132.0
182,G3,12.75,0.125,49,132.0
183,C4,12.75,0.125,49,132.0
184,E4,12.75,0.125,49,132.0
185,C5,13.0,0.125,90,132.0
186,D2,13.0,0.125,70,132.0
187,A4,13.0,0.125,70,132.0
188,G2,13.0,0.125,49,132.0
189,C3,13.0,0.125,49,132.0
190,E3,13.0,0.125,49,132.0
191,G3,13.0,0.125,49,132.0
192,C4,13.0,0.125,49,132.0
193,E4,13.0,0.125,49,132.0
194,E5,13.5,0.125,90,132.0
195,C4,13.5,0.5,80,132.0
196,G2,13.5,0.5,49,132.0
197,C3,13.5,0.5,49,132.0
198,E3,13.5,0.5,49,132.0
199,G3,13.5,0.5,49,132.0
200,C4,13.5,0.5,49,132.0
201,E4,13.5,0.5,49,132.0
202,E2,14.0,1.0,90,132.0
203,G5,14.0,0.125,90,132.0
204,C4,14.0,0.5,80,132.0
205,A4,14.0,0.125,70,132.0
206,B1,14.0,0.125,50,132.0
207,G2,14.0,0.5,49,132.0
208,C3,14.0,0.5,49,132.0
209,E3,14.0,0.5,49,132.0
210,G3,14.0,0.5,49,132.0
211,C4,14.0,0.5,49,132.0
212,E4,14.0,0.5,49,132.0
213,E5,14.5,0.125,90,132.0
214,B3,14.5,0.5,80,132.0
215,A4,14.5,0.125,70,132.0
216,G2,14.5,0.25,49,132.0
217,C3,14.5,0.25,49,132.0
218,E3,14.5,0.25,49,132.0
219,G3,14.5,0.25,49,132.0
220,C4,14.5,0.25,49,132.0
221,E4,14.5,0.25,49,132.0
222,G2,15.0,1.0,90,132.0
223,C5,15.0,0.125,90,132.0
224,C4,15.0,0.5,80,132.0
225,D2,15.0,0.125,70,132.0
226,G2,15.0,0.5,49,132.0
227,C3,15.0,0.5,49,132.0
228,E3,15.0,0.5,49,132.0
229,G3,15.0,0.5,49,132.0
230,C4,15.0,0.5,49,132.0
231,E4,15.0,0.5,49,132.0
232,B4,15.5,0.125,90,132.0
233,B3,15.5,0.5,80,132.0
234,G2,15.5,0.25,49,132.0
235,C3,15.5,0.25,49,132.0
236,E3,15.5,0.25,49,132.0
237,G3,15.5,0.25,49,132.0
238,C4,15.5,0.25,49,132.0
239,E4,15.5,0.25,49,132.0
240,A5,16.0,4.0,88,132.0
241,A2,16.0,2.0,90,132.0
242,A4,16.0,0.125,90,132.0
243,A4,16.0,4.0,65,132.0
244,A4,16.0,0.125,70,132.0
245,B1,16.0,0.125,50,132.0
246,A2,16.0,0.5,49,132.0
247,E3,16.0,0.5,49,132.0
248,A3,16.0,0.5,49,132.0
249,C4,16.0,0.5,49,132.0
250,E4,16.0,0.5,49,132.0
251,A4,16.5,0.125,90,132.0
252,A4,16.5,0.125,70,132.0
253,A2,16.5,0.125,49,132.0
254,E3,16.5,0.125,49,132.0
255,A3,16.5,0.125,49,132.0
256,C4,16.5,0.125,49,132.0
257,E4,16.5,0.125,49,132.0
258,A4,16.75,0.125,90,132.0
259,A4,16.75,0.125,70,132.0
260,A2,16.75,0.125,49,132.0
261,E3,16.75,0.125,49,132.0
262,A3,16.75,0.125,49,132.0
263,C4,16.75,0.125,49,132.0
264,E4,16.75,0.125,49,132.0
265,A4,17.0,0.125,90,132.0
266,C#2,17.0,0.125,70,132.0
267,A4,17.0,0.125,70,132.0
268,A2,17.0,0.125,49,132.0
269,E3,17.0,0.125,49,132.0
270,A3,17.0,0.125,49,132.0
271,C4,17.0,0.125,49,132.0
272,E4,17.0,0.125,49,132.0
273,C5,17.5,0.125,90,132.0
274,G3,17.5,0.5,80,132.0
275,C#2,17.5,0.125,70,132.0
276,A2,17.5,0.5,49,132.0
277,E3,17.5,0.5,49,132.0
278,A3,17.5,0.5,49,132.0
279,C4,17.5,0.5,49,132.0
280,E4,17.5,0.5,49,132.0
281,E2,18.0,1.0,90,132.0
282,E5,18.0,0.125,90,132.0
283,A3,18.0,0.5,80,132.0
284,A4,18.0,0.125,70,132.0
285,B1,18.0,0.125,50,132.0
286,A2,18.0,0.5,49,132.0
287,E3,18.0,0.5,49,132.0
288,A3,18.0,0.5,49,132.0
289,C4,18.0,0.5,49,132.0
290,E4,18.0,0.5,49,132.0
291,D5,18.5,0.125,90,132.0
292,G3,18.5,0.5,80,132.0
293,A4,18.5,0.125,70,132.0
294,A2,18.5,0.25,49,132.0
295,E3,18.5,0.25,49,132.0
296,A3,18.5,0.25,49,132.0
297,C4,18.5,0.25,49,132.0
298,E4,18.5,0.25,49,132.0
299,G2,19.0,1.0,90,132.0
300,C5,19.0,0.125,90,132.0
301,A3,19.0,0.5,80,132.0
302,C#2,19.0,0.125,70,132.0
303,A2,19.0,0.5,49,132.0
304,E3,19.0,0.5,49,132.0
305,A3,19.0,0.5,49,132.0
306,C4,19.0,0.5,49,132.0
307,E4,19.0,0.5,49,132.0
308,A4,19.5,0.125,90,132.0
309,G3,19.5,0.5,80,132.0
310,A2,19.5,0.25,49,132.0
311,E3,19.5,0.25,49,132.0
312,A3,19.5,0.25,49,132.0
313,C4,19.5,0.25,49,132.0
314,E4,19.5,0.25,49,132.0
315,C2,20.0,2.0,90,132.0
316,G4,20.0,0.125,90,132.0
317,A4,20.0,0.125,70,132.0
318,B1,20.0,0.125,50,132.0
319,G2,20.0,0.5,49,132.0
320,C3,20.0,0.5,49,132.0
321,E3,20.0,0.5,49,132.0
322,G3,20.0,0.5,49,132.0
323,C4,20.0,0.5,49,132.0
324,E4,20.0,0.5,49,132.0
325,C5,20.5,0.125,90,132.0
326,A4,20.5,0.125,70,132.0
327,G2,20.5,0.125,49,132.0
328,C3,20.5,0.125,49,132.0
329,E3,20.5,0.125,49,132.0
330,G3,20.5,0.125,49,132.0
331,C4,20.5,0.125,49,132.0
332,E4,20.5,0.125,49,132.0
333,C5,20.75,0.125,90,132.0
334,A4,20.75,0.125,70,132.0
335,G2,20.75,0.125,49,132.0
336,C3,20.75,0.125,49,132.0
337,E3,20.75,0.125,49,132.0
338,G3,20.75,0.125,49,132.0
339,C4,20.75,0.125,49,132.0
340,E4,20.75,0.125,49,132.0
341,C5,21.0,0.5,100,132.0
342,C5,21.0,0.125,90,132.0
343,D2,21.0,0.125,70,132.0
344,C#2,21.0,0.125,70,132.0
345,A4,21.0,0.125,70,132.0
346,G2,21.0,0.125,49,132.0
347,C3,21.0,0.125,49,132.0
348,E3,21.0,0.125,49,132.0
349,G3,21.0,0.125,49,132.0
350,C4,21.0,0.125,49,132.0
351,E4,21.0,0.125,49,132.0
352,C5,21.5,0.5,100,132.0
353,E5,21.5,0.125,90,132.0
354,C#2,21.5,0.125,70,132.0
355,G2,21.5,0.5,49,132.0
356,C3,21.5,0.5,49,132.0
357,E3,21.5,0.5,49,132.0
358,G3,21.5,0.5,49,132.0
359,C4,21.5,0.5,49,132.0
360,E4,21.5,0.5,49,132.0
361,C5,22.0,1.5,100,132.0
362,E2,22.0,1.0,90,132.0
363,G5,22.0,0.125,90,132.0
364,A4,22.0,0.125,70,132.0
365,B1,22.0,0.125,50,132.0
366,G2,22.0,0.5,49,132.0
367,C3,22.0,0.5,49,132.0
368,E3,22.0,0.5,49,132.0
369,G3,22.0,0.5,49,132.0
370,C4,22.0,0.5,49,132.0
371,E4,22.0,0.5,49,132.0
372,E5,22.5,0.125,90,132.0
373,A4,22.5,0.125,70,132.0
374,G2,22.5,0.25,49,132.0
375,C3,22.5,0.25,49,132.0
376,E3,22.5,0.25,49,132.0
377,G3,22.5,0.25,49,132.0
378,C4,22.5,0.25,49,132.0
379,E4,22.5,0.25,49,132.0
380,G2,23.0,1.0,90,132.0
381,C5,23.0,0.125,90,132.0
382,E2,23.0,0.125,70,132.0
383,C#2,23.0,0.125,70,132.0
384,G2,23.0,0.5,49,132.0
385,C3,23.0,0.5,49,132.0
386,E3,23.0,0.5,49,132.0
387,G3,23.0,0.5,49,132.0
388,C4,23.0,0.5,49,132.0
389,E4,23.0,0.5,49,132.0
390,G4,23.5,0.5,100,132.0
391,A4,23.5,0.125,90,132.0
392,G2,23.5,0.25,49,132.0
393,C3,23.5,0.25,49,132.0
394,E3,23.5,0.25,49,132.0
395,G3,23.5,0.25,49,132.0
396,C4,23.5,0.25,49,132.0
397,E4,23.5,0.25,49,132.0
398,C5,24.0,0.5,100,132.0
399,C2,24.0,2.0,90,132.0
400,C5,24.0,0.125,90,132.0
401,A4,24.0,0.125,70,132.0
402,B1,24.0,0.125,50,132.0
403,G2,24.0,0.5,49,132.0
404,C3,24.0,0.5,49,132.0
405,E3,24.0,0.5,49,132.0
406,G3,24.0,0.5,49,132.0
407,C4,24.0,0.5,49,132.0
408,E4,24.0,0.5,49,132.0
409,D5,24.5,1.0,100,132.0
410,C5,24.5,0.125,90,132.0
411,A4,24.5,0.125,70,132.0
412,G2,24.5,0.125,49,132.0
413,C3,24.5,0.125,49,132.0
414,E3,24.5,0.125,49,132.0
415,G3,24.5,0.125,49,132.0
416,C4,24.5,0.125,49,132.0
417,E4,24.5,0.125,49,132.0
418,C5,24.75,0.125,90,132.0
419,A4,24.75,0.125,70,132.0
420,G2,24.75,0.125,49,132.0
421,C3,24.75,0.125,49,132.0
422,E3,24.75,0.125,49,132.0
423,G3,24.75,0.125,49,132.0
424,C4,24.75,0.125,49,132.0
425,E4,24.75,0.125,49,132.0
426,C5,25.0,0.125,90,132.0
427,D2,25.0,0.125,70,132.0
428,C#2,25.0,0.125,70,132.0
429,A4,25.0,0.125,70,132.0
430,G2,25.0,0.125,49,132.0
431,C3,25.0,0.125,49,132.0
432,E3,25.0,0.125,49,132.0
433,G3,25.0,0.125,49,132.0
434,C4,25.0,0.125,49,132.0
435,E4,25.0,0.125,49,132.0
436,E5,25.5,1.0,100,132.0
437,E5,25.5,0.125,90,132.0
438,C4,25.5,0.5,80,132.0
439,C#2,25.5,0.125,70,132.0
440,G2,25.5,0.5,49,132.0
441,C3,25.5,0.5,49,132.0
442,E3,25.5,0.5,49,132.0
443,G3,25.5,0.5,49,132.0
444,C4,25.5,0.5,49,132.0
445,E4,25.5,0.5,49,132.0
446,E2,26.0,1.0,90,132.0
447,G5,26.0,0.125,90,132.0
448,C4,26.0,0.5,80,132.0
449,A4,26.0,0.125,70,132.0
450,B1,26.0,0.125,50,132.0
451,G2,26.0,0.5,49,132.0
452,C3,26.0,0.5,49,132.0
453,E3,26.0,0.5,49,132.0
454,G3,26.0,0.5,49,132.0
455,C4,26.0,0.5,49,132.0
456,E4,26.0,0.5,49,132.0
457,D5,26.5,0.5,100,132.0
458,E5,26.5,0.125,90,132.0
459,B3,26.5,0.5,80,132.0
460,A4,26.5,0.125,70,132.0
461,G2,26.5,0.25,49,132.0
462,C3,26.5,0.25,49,132.0
463,E3,26.5,0.25,49,132.0
464,G3,26.5,0.25,49,132.0
465,C4,26.5,0.25,49,132.0
466,E4,26.5,0.25,49,132.0
467,C5,27.0,1.0,100,132.0
468,G2,27.0,1.0,90,132.0
469,C5,27.0,0.125,90,132.0
470,C4,27.0,0.5,80,132.0
471,E2,27.0,0.125,70,132.0
472,C#2,27.0,0.125,70,132.0
473,G2,27.0,0.5,49,132.0
474,C3,27.0,0.5,49,132.0
475,E3,27.0,0.5,49,132.0
476,G3,27.0,0.5,49,132.0
477,C4,27.0,0.5,49,132.0
478,E4,27.0,0.5,49,132.0
479,G4,27.5,0.125,90,132.0
480,B3,27.5,0.5,80,132.0
481,G2,27.5,0.25,49,132.0
482,C3,27.5,0.25,49,132.0
483,E3,27.5,0.25,49,132.0
484,G3,27.5,0.25,49,132.0
485,C4,27.5,0.25,49,132.0
486,E4,27.5,0.25,49,132.0
487,A2,28.0,2.0,90,132.0
488,A4,28.0,0.125,90,132.0
489,A4,28.0,0.125,70,132.0
490,B1,28.0,0.125,50,132.0
491,A2,28.0,0.5,49,132.0
492,E3,28.0,0.5,49,132.0
493,A3,28.0,0.5,49,132.0
494,C4,28.0,0.5,49,132.0
495,E4,28.0,0.5,49,132.0
496,G4,28.5,0.5,100,132.0
497,A4,28.5,0.125,90,132.0
498,A4,28.5,0.125,70,132.0
499,A2,28.5,0.125,49,132.0
500,E3,28.5,0.125,49,132.0
501,A3,28.5,0.125,49,132.0
502,C4,28.5,0.125,49,132.0
503,E4,28.5,0.125,49,132.0
504,A4,28.75,0.125,90,132.0
505,A4,28.75,0.125,70,132.0
506,A2,28.75,0.125,49,132.0
507,E3,28.75,0.125,49,132.0
508,A3,28.75,0.125,49,132.0
509,C4,28.75,0.125,49,132.0
510,E4,28.75,0.125,49,132.0
511,A4,29.0,1.0,100,132.0
512,A4,29.0,0.125,90,132.0
513,D2,29.0,0.125,70,132.0
514,C#2,29.0,0.125,70,132.0
515,A4,29.0,0.125,70,132.0
516,A2,29.0,0.125,49,132.0
517,E3,29.0,0.125,49,132.0
518,A3,29.0,0.125,49,132.0
519,C4,29.0,0.125,49,132.0
520,E4,29.0,0.125,49,132.0
521,C5,29.5,0.125,90,132.0
522,C#2,29.5,0.125,70,132.0
523,A2,29.5,0.5,49,132.0
524,E3,29.5,0.5,49,132.0
525,A3,29.5,0.5,49,132.0
526,C4,29.5,0.5,49,132.0
527,E4,29.5,0.5,49,132.0
528,A4,30.0,0.5,100,132.0
529,E2,30.0,1.0,90,132.0
530,E5,30.0,0.125,90,132.0
531,A4,30.0,0.125,70,132.0
532,B1,30.0,0.125,50,132.0
533,A2,30.0,0.5,49,132.0
534,E3,30.0,0.5,49,132.0
535,A3,30.0,0.5,49,132.0
536,C4,30.0,0.5,49,132.0
537,E4,30.0,0.5,49,132.0
538,C5,30.5,1.0,100,132.0
539,C5,30.5,0.125,90,132.0
540,A4,30.5,0.125,70,132.0
541,A2,30.5,0.25,49,132.0
542,E3,30.5,0.25,49,132.0
543,A3,30.5,0.25,49,132.0
544,C4,30.5,0.25,49,132.0
545,E4,30.5,0.25,49,132.0
546,G2,31.0,1.0,90,132.0
547,A4,31.0,0.125,90,132.0
548,E2,31.0,0.125,70,132.0
549,C#2,31.0,0.125,70,132.0
550,A2,31.0,0.5,49,132.0
551,E3,31.0,0.5,49,132.0
552,A3,31.0,0.5,49,132.0
553,C4,31.0,0.5,49,132.0
554,E4,31.0,0.5,49,132.0
555,G4,31.5,0.5,100,132.0
556,G4,31.5,0.125,90,132.0
557,A2,31.5,0.25,49,132.0
558,E3,31.5,0.25,49,132.0
559,A3,31.5,0.25,49,132.0
560,C4,31.5,0.25,49,132.0
561,E4,31.5,0.25,49,132.0
562,A4,32.0,0.5,100,132.0
563,A2,32.0,2.0,90,132.0
564,A4,32.0,0.125,90,132.0
565,A4,32.0,0.125,70,132.0
566,B1,32.0,0.125,50,132.0
567,A2,32.0,0.5,49,132.0
568,E3,32.0,0.5,49,132.0
569,A3,32.0,0.5,49,132.0
570,C4,32.0,0.5,49,132.0
571,E4,32.0,0.5,49,132.0
572,G4,32.5,1.0,100,132.0
573,A4,32.5,0.125,90,132.0
574,A4,32.5,0.125,70,132.0
575,A2,32.5,0.125,49,132.0
576,E3,32.5,0.125,49,132.0
577,A3,32.5,0.125,49,132.0
578,C4,32.5,0.125,49,132.0
579,E4,32.5,0.125,49,132.0
580,A4,32.75,0.125,90,132.0
581,A4,32.75,0.125,70,132.0
582,A2,32.75,0.125,49,132.0
583,E3,32.75,0.125,49,132.0
584,A3,32.75,0.125,49,132.0
585,C4,32.75,0.125,49,132.0
586,E4,32.75,0.125,49,132.0
587,A4,33.0,0.125,90,132.0
588,D2,33.0,0.125,70,132.0
589,C#2,33.0,0.125,70,132.0
590,A4,33.0,0.125,70,132.0
591,A2,33.0,0.125,49,132.0
592,E3,33.0,0.125,49,132.0
593,A3,33.0,0.125,49,132.0
594,C4,33.0,0.125,49,132.0
595,E4,33.0,0.125,49,132.0
596,A4,33.5,1.5,100,132.0
597,C5,33.5,0.125,90,132.0
598,G3,33.5,0.5,80,132.0
599,C#2,33.5,0.125,70,132.0
600,A2,33.5,0.5,49,132.0
601,E3,33.5,0.5,49,132.0
602,A3,33.5,0.5,49,132.0
603,C4,33.5,0.5,49,132.0
604,E4,33.5,0.5,49,132.0
605,E2,34.0,1.0,90,132.0
606,E5,34.0,0.125,90,132.0
607,A3,34.0,0.5,80,132.0
608,A4,34.0,0.125,70,132.0
609,B1,34.0,0.125,50,132.0
610,A2,34.0,0.5,49,132.0
611,E3,34.0,0.5,49,132.0
612,A3,34.0,0.5,49,132.0
613,C4,34.0,0.5,49,132.0
614,E4,34.0,0.5,49,132.0
615,C5,34.5,0.125,90,132.0
616,G3,34.5,0.5,80,132.0
617,A4,34.5,0.125,70,132.0
618,A2,34.5,0.25,49,132.0
619,E3,34.5,0.25,49,132.0
620,A3,34.5,0.25,49,132.0
621,C4,34.5,0.25,49,132.0
622,E4,34.5,0.25,49,132.0
623,G2,35.0,1.0,90,132.0
624,A4,35.0,0.125,90,132.0
625,A3,35.0,0.5,80,132.0
626,E2,35.0,0.125,70,132.0
627,C#2,35.0,0.125,70,132.0
628,A2,35.0,0.5,49,132.0
629,E3,35.0,0.5,49,132.0
630,A3,35.0,0.5,49,132.0
631,C4,35.0,0.5,49,132.0
632,E4,35.0,0.5,49,132.0
633,G4,35.5,0.125,90,132.0
634,G3,35.5,0.5,80,132.0
635,A2,35.5,0.25,49,132.0
636,E3,35.5,0.25,49,132.0
637,A3,35.5,0.25,49,132.0
638,C4,35.5,0.25,49,132.0
639,E4,35.5,0.25,49,132.0
640,C2,36.0,2.0,90,132.0
641,G4,36.0,0.125,90,132.0
642,A4,36.0,0.125,70,132.0
643,B1,36.0,0.125,50,132.0
644,G2,36.0,0.5,49,132.0
645,C3,36.0,0.5,49,132.0
646,E3,36.0,0.5,49,132.0
647,G3,36.0,0.5,49,132.0
648,C4,36.0,0.5,49,132.0
649,E4,36.0,0.5,49,132.0
650,G4,36.5,0.5,100,132.0
651,C5,36.5,0.125,90,132.0
652,A4,36.5,0.125,70,132.0
653,G2,36.5,0.125,49,132.0
654,C3,36.5,0.125,49,132.0
655,E3,36.5,0.125,49,132.0
656,G3,36.5,0.125,49,132.0
657,C4,36.5,0.125,49,132.0
658,E4,36.5,0.125,49,132.0
659,C5,36.75,0.125,90,132.0
660,A4,36.75,0.125,70,132.0
661,G2,36.75,0.125,49,132.0
662,C3,36.75,0.125,49,132.0
663,E3,36.75,0.125,49,132.0
664,G3,36.75,0.125,49,132.0
665,C4,36.75,0.125,49,132.0
666,E4,36.75,0.125,49,132.0
667,C5,37.0,0.5,100,132.0
668,C5,37.0,0.125,90,132.0
669,D2,37.0,0.125,70,132.0
670,C#2,37.0,0.125,70,132.0
671,A4,37.0,0.125,70,132.0
672,G2,37.0,0.125,49,132.0
673,C3,37.0,0.125,49,132.0
674,E3,37.0,0.125,49,132.0
675,G3,37.0,0.125,49,132.0
676,C4,37.0,0.125,49,132.0
677,E4,37.0,0.125,49,132.0
678,G4,37.5,0.5,100,132.0
679,E5,37.5,0.125,90,132.0
680,C#2,37.5,0.125,70,132.0
681,G2,37.5,0.5,49,132.0
682,C3,37.5,0.5,49,132.0
683,E3,37.5,0.5,49,132.0
684,G3,37.5,0.5,49,132.0
685,C4,37.5,0.5,49,132.0
686,E4,37.5,0.5,49,132.0
687,C5,38.0,2.0,100,132.0
688,E2,38.0,1.0,90,132.0
689,G5,38.0,0.125,90,132.0
690,A4,38.0,0.125,70,132.0
691,B1,38.0,0.125,50,132.0
692,G2,38.0,0.5,49,132.0
693,C3,38.0,0.5,49,132.0
694,E3,38.0,0.5,49,132.0
695,G3,38.0,0.5,49,132.0
696,C4,38.0,0.5,49,132.0
697,E4,38.0,0.5,49,132.0
698,E5,38.5,0.125,90,132.0
699,A4,38.5,0.125,70,132.0
700,G2,38.5,0.25,49,132.0
701,C3,38.5,0.25,49,132.0
702,E3,38.5,0.25,49,132.0
703,G3,38.5,0.25,49,132.0
704,C4,38.5,0.25,49,132.0
705,E4,38.5,0.25,49,132.0
706,G2,39.0,1.0,90,132.0
707,C5,39.0,0.125,90,132.0
708,E2,39.0,0.125,70,132.0
709,C#2,39.0,0.125,70,132.0
710,G2,39.0,0.5,49,132.0
711,C3,39.0,0.5,49,132.0
712,E3,39.0,0.5,49,132.0
713,G3,39.0,0.5,49,132.0
714,C4,39.0,0.5,49,132.0
715,E4,39.0,0.5,49,132.0
716,G4,39.5,0.125,90,132.0
717,G2,39.5,0.25,49,132.0
718,C3,39.5,0.25,49,132.0
719,E3,39.5,0.25,49,132.0
720,G3,39.5,0.25,49,132.0
721,C4,39.5,0.25,49,132.0
722,E4,39.5,0.25,49,132.0
723,C5,40.0,0.5,100,132.0
724,C2,40.0,2.0,90,132.0
725,C5,40.0,0.125,90,132.0
726,A4,40.0,0.125,70,132.0
727,B1,40.0,0.125,50,132.0
728,G2,40.0,0.5,49,132.0
729,C3,40.0,0.5,49,132.0
730,E3,40.0,0.5,49,132.0
731,G3,40.0,0.5,49,132.0
732,C4,40.0,0.5,49,132.0
733,E4,40.0,0.5,49,132.0
734,D5,40.5,1.0,100,132.0
735,C5,40.5,0.125,90,132.0
736,A4,40.5,0.125,70,132.0
737,G2,40.5,0.125,49,132.0
738,C3,40.5,0.125,49,132.0
739,E3,40.5,0.125,49,132.0
740,G3,40.5,0.125,49,132.0
741,C4,40.5,0.125,49,132.0
742,E4,40.5,0.125,49,132.0
743,C5,40.75,0.125,90,132.0
744,A4,40.75,0.125,70,132.0
745,G2,40.75,0.125,49,132.0
746,C3,40.75,0.125,49,132.0
747,E3,40.75,0.125,49,132.0
748,G3,40.75,0.125,49,132.0
749,C4,40.75,0.125,49,132.0
750,E4,40.75,0.125,49,132.0
751,C5,41.0,0.125,90,132.0
752,D2,41.0,0.125,70,132.0
753,C#2,41.0,0.125,70,132.0
754,A4,41.0,0.125,70,132.0
755,G2,41.0,0.125,49,132.0
756,C3,41.0,0.125,49,132.0
757,E3,41.0,0.125,49,132.0
758,G3,41.0,0.125,49,132.0
759,C4,41.0,0.125,49,132.0
760,E4,41.0,0.125,49,132.0
761,E5,41.5,1.0,100,132.0
762,E5,41.5,0.125,90,132.0
763,C#2,41.5,0.125,70,132.0
764,G2,41.5,0.5,49,132.0
765,C3,41.5,0.5,49,132.0
766,E3,41.5,0.5,49,132.0
767,G3,41.5,0.5,49,132.0
768,C4,41.5,0.5,49,132.0
769,E4,41.5,0.5,49,132.0
770,E2,42.0,1.0,90,132.0
771,G5,42.0,0.125,90,132.0
772,C4,42.0,0.5,80,132.0
773,A4,42.0,0.125,70,132.0
774,B1,42.0,0.125,50,132.0
775,G2,42.0,0.5,49,132.0
776,C3,42.0,0.5,49,132.0
777,E3,42.0,0.5,49,132.0
778,G3,42.0,0.5,49,132.0
779,C4,42.0,0.5,49,132.0
780,E4,42.0,0.5,49,132.0
781,D5,42.5,0.5,100,132.0
782,E5,42.5,0.125,90,132.0
783,B3,42.5,0.5,80,132.0
784,A4,42.5,0.125,70,132.0
785,G2,42.5,0.25,49,132.0
786,C3,42.5,0.25,49,132.0
787,E3,42.5,0.25,49,132.0
788,G3,42.5,0.25,49,132.0
789,C4,42.5,0.25,49,132.0
790,E4,42.5,0.25,49,132.0
791,C5,43.0,1.0,100,132.0
792,G2,43.0,1.0,90,132.0
793,C5,43.0,0.125,90,132.0
794,C4,43.0,0.5,80,132.0
795,E2,43.0,0.125,70,132.0
796,C#2,43.0,0.125,70,132.0
797,G2,43.0,0.5,49,132.0
798,C3,43.0,0.5,49,132.0
799,E3,43.0,0.5,49,132.0
800,G3,43.0,0.5,49,132.0
801,C4,43.0,0.5,49,132.0
802,E4,43.0,0.5,49,132.0
803,G4,43.5,0.125,90,132.0
804,B3,43.5,0.5,80,132.0
805,G2,43.5,0.25,49,132.0
806,C3,43.5,0.25,49,132.0
807,E3,43.5,0.25,49,132.0
808,G3,43.5,0.25,49,132.0
809,C4,43.5,0.25,49,132.0
810,E4,43.5,0.25,49,132.0
811,A2,44.0,2.0,90,132.0
812,A4,44.0,0.125,90,132.0
813,A4,44.0,0.125,70,132.0
814,B1,44.0,0.125,50,132.0
815,A2,44.0,0.5,49,132.0
816,E3,44.0,0.5,49,132.0
817,A3,44.0,0.5,49,132.0
818,C4,44.0,0.5,49,132.0
819,E4,44.0,0.5,49,132.0
820,G4,44.5,0.5,100,132.0
821,A4,44.5,0.125,90,132.0
822,A4,44.5,0.125,70,132.0
823,A2,44.5,0.125,49,132.0
824,E3,44.5,0.125,49,132.0
825,A3,44.5,0.125,49,132.0
826,C4,44.5,0.125,49,132.0
827,E4,44.5,0.125,49,132.0
828,A4,44.75,0.125,90,132.0
829,A4,44.75,0.125,70,132.0
830,A2,44.75,0.125,49,132.0
831,E3,44.75,0.125,49,132.0
832,A3,44.75,0.125,49,132.0
833,C4,44.75,0.125,49,132.0
834,E4,44.75,0.125,49,132.0
835,A4,45.0,0.5,100,132.0
836,A4,45.0,0.125,90,132.0
837,D2,45.0,0.125,70,132.0
838,C#2,45.0,0.125,70,132.0
839,A4,45.0,0.125,70,132.0
840,A2,45.0,0.125,49,132.0
841,E3,45.0,0.125,49,132.0
842,A3,45.0,0.125,49,132.0
843,C4,45.0,0.125,49,132.0
844,E4,45.0,0.125,49,132.0
845,G4,45.5,0.5,100,132.0
846,C5,45.5,0.125,90,132.0
847,C#2,45.5,0.125,70,132.0
848,A2,45.5,0.5,49,132.0
849,E3,45.5,0.5,49,132.0
850,A3,45.5,0.5,49,132.0
851,C4,45.5,0.5,49,132.0
852,E4,45.5,0.5,49,132.0
853,A4,46.0,0.5,100,132.0
854,E2,46.0,1.0,90,132.0
855,E5,46.0,0.125,90,132.0
856,A4,46.0,0.125,70,132.0
857,B1,46.0,0.125,50,132.0
858,A2,46.0,0.5,49,132.0
859,E3,46.0,0.5,49,132.0
860,A3,46.0,0.5,49,132.0
861,C4,46.0,0.5,49,132.0
862,E4,46.0,0.5,49,132.0
863,C5,46.5,0.5,100,132.0
864,C5,46.5,0.125,90,132.0
865,A4,46.5,0.125,70,132.0
866,A2,46.5,0.25,49,132.0
867,E3,46.5,0.25,49,132.0
868,A3,46.5,0.25,49,132.0
869,C4,46.5,0.25,49,132.0
870,E4,46.5,0.25,49,132.0
871,G2,47.0,1.0,90,132.0
872,A4,47.0,0.125,90,132.0
873,E2,47.0,0.125,70,132.0
874,C#2,47.0,0.125,70,132.0
875,A2,47.0,0.5,49,132.0
876,E3,47.0,0.5,49,132.0
877,A3,47.0,0.5,49,132.0
878,C4,47.0,0.5,49,132.0
879,E4,47.0,0.5,49,132.0
880,G4,47.5,0.125,90,132.0
881,A2,47.5,0.25,49,132.0
882,E3,47.5,0.25,49,132.0
883,A3,47.5,0.25,49,132.0
884,C4,47.5,0.25,49,132.0
885,E4,47.5,0.25,49,132.0
886,A4,48.0,0.5,100,132.0
887,A2,48.0,2.0,90,132.0
888,A4,48.0,0.125,90,132.0
889,A4,48.0,0.125,70,132.0
890,B1,48.0,0.125,50,132.0
891,A2,48.0,0.5,49,132.0
892,E3,48.0,0.5,49,132.0
893,A3,48.0,0.5,49,132.0
894,C4,48.0,0.5,49,132.0
895,E4,48.0,0.5,49,132.0
896,G4,48.5,1.0,100,132.0
897,A4,48.5,0.125,90,132.0
898,A4,48.5,0.125,70,132.0
899,A2,48.5,0.125,49,132.0
900,E3,48.5,0.125,49,132.0
901,A3,48.5,0.125,49,132.0
902,C4,48.5,0.125,49,132.0
903,E4,48.5,0.125,49,132.0
904,A4,48.75,0.125,90,132.0
905,A4,48.75,0.125,70,132.0
906,A2,48.75,0.125,49,132.0
907,E3,48.75,0.125,49,132.0
908,A3,48.75,0.125,49,132.0
909,C4,48.75,0.125,49,132.0
910,E4,48.75,0.125,49,132.0
911,A4,49.0,0.125,90,132.0
912,D2,49.0,0.125,70,132.0
913,C#2,49.0,0.125,70,132.0
914,A4,49.0,0.125,70,132.0
915,A2,49.0,0.125,49,132.0
916,E3,49.0,0.125,49,132.0
917,A3,49.0,0.125,49,132.0
918,C4,49.0,0.125,49,132.0
919,E4,49.0,0.125,49,132.0
920,A4,49.5,1.0,100,132.0
921,C5,49.5,0.125,90,132.0
922,C#2,49.5,0.125,70,132.0
923,A2,49.5,0.5,49,132.0
924,E3,49.5,0.5,49,132.0
925,A3,49.5,0.5,49,132.0
926,C4,49.5,0.5,49,132.0
927,E4,49.5,0.5,49,132.0
928,E2,50.0,1.0,90,132.0
929,E5,50.0,0.125,90,132.0
930,A4,50.0,0.125,70,132.0
931,B1,50.0,0.125,50,132.0
932,A2,50.0,0.5,49,132.0
933,E3,50.0,0.5,49,132.0
934,A3,50.0,0.5,49,132.0
935,C4,50.0,0.5,49,132.0
936,E4,50.0,0.5,49,132.0
937,G4,50.5,0.5,100,132.0
938,C5,50.5,0.125,90,132.0
939,A4,50.5,0.125,70,132.0
940,A2,50.5,0.25,49,132.0
941,E3,50.5,0.25,49,132.0
942,A3,50.5,0.25,49,132.0
943,C4,50.5,0.25,49,132.0
944,E4,50.5,0.25,49,132.0
945,A4,51.0,0.5,100,132.0
946,G2,51.0,1.0,90,132.0
947,A4,51.0,0.125,90,132.0
948,E2,51.0,0.125,70,132.0
949,C#2,51.0,0.125,70,132.0
950,A2,51.0,0.5,49,132.0
951,E3,51.0,0.5,49,132.0
952,A3,51.0,0.5,49,132.0
953,C4,51.0,0.5,49,132.0
954,E4,51.0,0.5,49,132.0
955,G4,51.5,0.5,100,132.0
956,G4,51.5,0.125,90,132.0
957,A2,51.5,0.25,49,132.0
958,E3,51.5,0.25,49,132.0
959,A3,51.5,0.25,49,132.0
960,C4,51.5,0.25,49,132.0
961,E4,51.5,0.25,49,132.0
962,C5,52.0,0.5,100,132.0
963,C2,52.0,0.25,90,132.0
964,C5,53.0,0.5,88,132.0
965,C2,53.0,0.25,90,132.0
966,C4,53.0,0.5,25,132.0
967,F#3,53.0,0.25,100,132.0
968,B1,53.0,0.125,50,132.0
969,G2,53.0,0.25,49,132.0
970,C3,53.0,0.25,49,132.0
971,E3,53.0,0.25,49,132.0
972,G3,53.0,0.25,49,132.0
973,C4,53.0,0.25,49,132.0
974,E4,53.0,0.25,49,132.0
975,C5,53.5,0.5,88,132.0
976,C2,53.5,0.25,90,132.0
977,C4,53.5,0.5,25,132.0
978,F#3,53.5,0.25,100,132.0
979,B1,53.5,0.125,50,132.0
980,G2,53.5,0.25,49,132.0
981,C3,53.5,0.25,49,132.0
982,E3,53.5,0.25,49,132.0
983,G3,53.5,0.25,49,132.0
984,C4,53.5,0.25,49,132.0
985,E4,53.5,0.25,49,132.0
986,C5,55.0,0.5,88,132.0
987,C2,55.0,0.25,90,132.0
988,C4,55.0,0.5,25,132.0
989,F#3,55.0,0.25,100,132.0
990,B1,55.0,0.125,50,132.0
991,G2,55.0,0.25,49,132.0
992,C3,55.0,0.25,49,132.0
993,E3,55.0,0.25,49,132.0
994,G3,55.0,0.25,49,132.0
995,C4,55.0,0.25,49,132.0
996,E4,55.0,0.25,49,132.0
997,A4,55.5,0.5,100,132.0
998,D5,56.0,0.5,100,132.0
999,G2,56.0,0.25,90,132.0
1000,D5,57.0,0.5,88,132.0
1001,G2,57.0,0.25,90,132.0
1002,D4,57.0,0.5,25,132.0
1003,F#3,57.0,0.25,100,132.0
1004,B1,57.0,0.125,50,132.0
1005,G2,57.0,0.25,49,132.0
1006,B2,57.0,0.25,49,132.0
1007,D3,57.0,0.25,49,132.0
1008,G3,57.0,0.25,49,132.0
1009,B3,57.0,0.25,49,132.0
1010,F4,57.0,0.25,49,132.0
1011,D5,57.5,0.5,88,132.0
1012,G2,57.5,0.25,90,132.0
1013,D4,57.5,0.5,25,132.0
1014,F#3,57.5,0.25,100,132.0
1015,B1,57.5,0.125,50,132.0
1016,G2,57.5,0.25,49,132.0
1017,B2,57.5,0.25,49,132.0
1018,D3,57.5,0.25,49,132.0
1019,G3,57.5,0.25,49,132.0
1020,B3,57.5,0.25,49,132.0
1021,F4,57.5,0.25,49,132.0
1022,D5,59.0,0.5,88,132.0
1023,G2,59.0,0.25,90,132.0
1024,D4,59.0,0.5,25,132.0
1025,F#3,59.0,0.25,100,132.0
1026,B1,59.0,0.125,50,132.0
1027,G2,59.0,0.25,49,132.0
1028,B2,59.0,0.25,49,132.0
1029,D3,59.0,0.25,49,132.0
1030,G3,59.0,0.25,49,132.0
1031,B3,59.0,0.25,49,132.0
1032,F4,59.0,0.25,49,132.0
1033,D5,59.5,0.5,100,132.0
1034,E5,60.0,0.5,100,132.0
1035,C2,60.0,0.25,90,132.0
1036,D5,60.5,0.5,100,132.0
1037,C5,61.0,0.5,88,132.0
1038,C5,61.0,0.5,100,132.0
1039,C2,61.0,0.25,90,132.0
1040,C4,61.0,0.5,25,132.0
1041,F#3,61.0,0.25,100,132.0
1042,B1,61.0,0.125,50,132.0
1043,G2,61.0,0.25,49,132.0
1044,C3,61.0,0.25,49,132.0
1045,E3,61.0,0.25,49,132.0
1046,G3,61.0,0.25,49,132.0
1047,C4,61.0,0.25,49,132.0
1048,E4,61.0,0.25,49,132.0
1049,C5,61.5,0.5,88,132.0
1050,C2,61.5,0.25,90,132.0
1051,C4,61.5,0.5,25,132.0
1052,F#3,61.5,0.25,100,132.0
1053,B1,61.5,0.125,50,132.0
1054,G2,61.5,0.25,49,132.0
1055,C3,61.5,0.25,49,132.0
1056,E3,61.5,0.25,49,132.0
1057,G3,61.5,0.25,49,132.0
1058,C4,61.5,0.25,49,132.0
1059,E4,61.5,0.25,49,132.0
1060,C5,63.0,0.5,88,132.0
1061,C2,63.0,0.25,90,132.0
1062,C4,63.0,0.5,25,132.0
1063,F#3,63.0,0.25,100,132.0
1064,B1,63.0,0.125,50,132.0
1065,G2,63.0,0.25,49,132.0
1066,C3,63.0,0.25,49,132.0
1067,E3,63.0,0.25,49,132.0
1068,G3,63.0,0.25,49,132.0
1069,C4,63.0,0.25,49,132.0
1070,E4,63.0,0.25,49,132.0
1071,E5,63.5,0.5,100,132.0
1072,F5,64.0,0.5,100,132.0
1073,F2,64.0,0.25,90,132.0
1074,C5,64.5,1.5,100,132.0
1075,F5,65.0,0.5,88,132.0
1076,F2,65.0,0.25,90,132.0
1077,F4,65.0,0.5,25,132.0
1078,F#3,65.0,0.25,100,132.0
1079,B1,65.0,0.125,50,132.0
1080,F2,65.0,0.25,49,132.0
1081,C3,65.0,0.25,49,132.0
1082,F3,65.0,0.25,49,132.0
1083,A3,65.0,0.25,49,132.0
1084,C4,65.0,0.25,49,132.0
1085,F4,65.0,0.25,49,132.0
1086,F5,65.5,0.5,88,132.0
1087,F2,65.5,0.25,90,132.0
1088,F4,65.5,0.5,25,132.0
1089,F#3,65.5,0.25,100,132.0
1090,B1,65.5,0.125,50,132.0
1091,F2,65.5,0.25,49,132.0
1092,C3,65.5,0.25,49,132.0
1093,F3,65.5,0.25,49,132.0
1094,A3,65.5,0.25,49,132.0
1095,C4,65.5,0.25,49,132.0
1096,F4,65.5,0.25,49,132.0
1097,E2,66.0,0.125,70,132.0
1098,E2,66.25,0.125,70,132.0
1099,C5,66.5,0.5,100,132.0
1100,E2,66.5,0.125,70,132.0
1101,F5,67.0,0.5,88,132.0
1102,D5,67.0,0.5,100,132.0
1103,F2,67.0,0.25,90,132.0
1104,F4,67.0,0.5,25,132.0
1105,E2,67.0,0.125,70,132.0
1106,B1,67.0,0.125,50,132.0
1107,F2,67.0,0.25,49,132.0
1108,C3,67.0,0.25,49,132.0
1109,F3,67.0,0.25,49,132.0
1110,A3,67.0,0.25,49,132.0
1111,C4,67.0,0.25,49,132.0
1112,F4,67.0,0.25,49,132.0
1113,C5,67.5,0.5,100,132.0
1114,D2,67.5,0.125,70,132.0
1115,G5,68.0,2.0,88,132.0
1116,E5,68.0,1.5,100,132.0
1117,C2,68.0,2.0,90,132.0
1118,C5,68.0,0.125,90,132.0
1119,G4,68.0,2.0,25,132.0
1120,A4,68.0,0.125,70,132.0
1121,B1,68.0,0.125,50,132.0
1122,G2,68.0,0.5,49,132.0
1123,C3,68.0,0.5,49,132.0
1124,E3,68.0,0.5,49,132.0
1125,G3,68.0,0.5,49,132.0
1126,C4,68.0,0.5,49,132.0
1127,E4,68.0,0.5,49,132.0
1128,C5,68.5,0.125,90,132.0
1129,A4,68.5,0.125,70,132.0
1130,G2,68.5,0.125,49,132.0
1131,C3,68.5,0.125,49,132.0
1132,E3,68.5,0.125,49,132.0
1133,G3,68.5,0.125,49,132.0
1134,C4,68.5,0.125,49,132.0
1135,E4,68.5,0.125,49,132.0
1136,C5,68.75,0.125,90,132.0
1137,A4,68.75,0.125,70,132.0
1138,G2,68.75,0.125,49,132.0
1139,C3,68.75,0.125,49,132.0
1140,E3,68.75,0.125,49,132.0
1141,G3,68.75,0.125,49,132.0
1142,C4,68.75,0.125,49,132.0
1143,E4,68.75,0.125,49,132.0
1144,C5,69.0,0.125,90,132.0
1145,D2,69.0,0.125,70,132.0
1146,C#2,69.0,0.125,70,132.0
1147,A4,69.0,0.125,70,132.0
1148,G2,69.0,0.125,49,132.0
1149,C3,69.0,0.125,49,132.0
1150,E3,69.0,0.125,49,132.0
1151,G3,69.0,0.125,49,132.0
1152,C4,69.0,0.125,49,132.0
1153,E4,69.0,0.125,49,132.0
1154,C5,69.5,0.125,90,132.0
1155,C#2,69.5,0.125,70,132.0
1156,G2,69.5,0.5,49,132.0
1157,C3,69.5,0.5,49,132.0
1158,E3,69.5,0.5,49,132.0
1159,G3,69.5,0.5,49,132.0
1160,C4,69.5,0.5,49,132.0
1161,E4,69.5,0.5,49,132.0
1162,A5,70.0,2.0,88,132.0
1163,C5,70.0,0.5,100,132.0
1164,A2,70.0,2.0,90,132.0
1165,E5,70.0,0.125,90,132.0
1166,A4,70.0,2.0,25,132.0
1167,A4,70.0,0.125,70,132.0
1168,B1,70.0,0.125,50,132.0
1169,A2,70.0,0.5,49,132.0
1170,E3,70.0,0.5,49,132.0
1171,A3,70.0,0.5,49,132.0
1172,C4,70.0,0.5,49,132.0
1173,E4,70.0,0.5,49,132.0
1174,D5,70.5,1.0,100,132.0
1175,B4,70.5,0.125,90,132.0
1176,A4,70.5,0.125,70,132.0
1177,A2,70.5,0.25,49,132.0
1178,E3,70.5,0.25,49,132.0
1179,A3,70.5,0.25,49,132.0
1180,C4,70.5,0.25,49,132.0
1181,E4,70.5,0.25,49,132.0
1182,A4,71.0,0.125,90,132.0
1183,E2,71.0,0.125,70,132.0
1184,C#2,71.0,0.125,70,132.0
1185,A2,71.0,0.5,49,132.0
1186,E3,71.0,0.5,49,132.0
1187,A3,71.0,0.5,49,132.0
1188,C4,71.0,0.5,49,132.0
1189,E4,71.0,0.5,49,132.0
1190,G4,71.5,0.5,100,132.0
1191,C5,71.5,0.125,90,132.0
1192,A2,71.5,0.25,49,132.0
1193,E3,71.5,0.25,49,132.0
1194,A3,71.5,0.25,49,132.0
1195,C4,71.5,0.25,49,132.0
1196,E4,71.5,0.25,49,132.0
1197,F5,72.0,2.0,88,132.0
1198,A4,72.0,0.5,100,132.0
1199,D2,72.0,2.0,90,132.0
1200,A4,72.0,0.125,90,132.0
1201,F4,72.0,2.0,65,132.0
1202,A4,72.0,0.125,70,132.0
1203,B1,72.0,0.125,50,132.0
1204,A2,72.0,0.5,49,132.0
1205,D3,72.0,0.5,49,132.0
1206,A3,72.0,0.5,49,132.0
1207,D4,72.0,0.5,49,132.0
1208,F4,72.0,0.5,49,132.0
1209,C5,72.5,0.5,100,132.0
1210,C5,72.5,0.125,90,132.0
1211,A4,72.5,0.125,70,132.0
1212,A2,72.5,0.125,49,132.0
1213,D3,72.5,0.125,49,132.0
1214,A3,72.5,0.125,49,132.0
1215,D4,72.5,0.125,49,132.0
1216,F4,72.5,0.125,49,132.0
1217,C5,72.75,0.125,90,132.0
1218,A4,72.75,0.125,70,132.0
1219,A2,72.75,0.125,49,132.0
1220,D3,72.75,0.125,49,132.0
1221,A3,72.75,0.125,49,132.0
1222,D4,72.75,0.125,49,132.0
1223,F4,72.75,0.125,49,132.0
1224,C5,73.0,0.5,100,132.0
1225,C5,73.0,0.125,90,132.0
1226,D2,73.0,0.125,70,132.0
1227,C#2,73.0,0.125,70,132.0
1228,A4,73.0,0.125,70,132.0
1229,A2,73.0,0.125,49,132.0
1230,D3,73.0,0.125,49,132.0
1231,A3,73.0,0.125,49,132.0
1232,D4,73.0,0.125,49,132.0
1233,F4,73.0,0.125,49,132.0
1234,A4,73.5,0.5,100,132.0
1235,A4,73.5,0.125,90,132.0
1236,C#2,73.5,0.125,70,132.0
1237,A2,73.5,0.5,49,132.0
1238,D3,73.5,0.5,49,132.0
1239,A3,73.5,0.5,49,132.0
1240,D4,73.5,0.5,49,132.0
1241,F4,73.5,0.5,49,132.0
1242,G5,74.0,1.0,88,132.0
1243,C5,74.0,1.0,100,132.0
1244,G2,74.0,1.0,90,132.0
1245,D5,74.0,0.125,90,132.0
1246,G4,74.0,1.0,65,132.0
1247,A4,74.0,0.125,70,132.0
1248,B1,74.0,0.125,50,132.0
1249,A2,74.0,0.5,49,132.0
1250,D3,74.0,0.5,49,132.0
1251,A3,74.0,0.5,49,132.0
1252,D4,74.0,0.5,49,132.0
1253,F4,74.0,0.5,49,132.0
1254,C5,74.5,0.125,90,132.0
1255,A4,74.5,0.125,70,132.0
1256,A2,74.5,0.25,49,132.0
1257,D3,74.5,0.25,49,132.0
1258,A3,74.5,0.25,49,132.0
1259,D4,74.5,0.25,49,132.0
1260,F4,74.5,0.25,49,132.0
1261,F5,75.0,1.0,88,132.0
1262,D5,75.0,0.5,100,132.0
1263,A4,75.0,0.125,90,132.0
1264,F4,75.0,1.0,65,132.0
1265,E2,75.0,0.125,70,132.0
1266,C#2,75.0,0.125,70,132.0
1267,G2,75.0,0.5,49,132.0
1268,B2,75.0,0.5,49,132.0
1269,D3,75.0,0.5,49,132.0
1270,G3,75.0,0.5,49,132.0
1271,B3,75.0,0.5,49,132.0
1272,F4,75.0,0.5,49,132.0
1273,C5,75.5,0.5,100,132.0
1274,G4,75.5,0.125,90,132.0
1275,G2,75.5,0.25,49,132.0
1276,B2,75.5,0.25,49,132.0
1277,D3,75.5,0.25,49,132.0
1278,G3,75.5,0.25,49,132.0
1279,B3,75.5,0.25,49,132.0
1280,F4,75.5,0.25,49,132.0
1281,E5,76.0,1.0,88,132.0
1282,C5,76.0,1.5,100,132.0
1283,C2,76.0,2.0,90,132.0
1284,C5,76.0,0.125,90,132.0
1285,E4,76.0,1.0,65,132.0
1286,A4,76.0,0.125,70,132.0
1287,B1,76.0,0.125,50,132.0
1288,G2,76.0,0.5,49,132.0
1289,C3,76.0,0.5,49,132.0
1290,E3,76.0,0.5,49,132.0
1291,G3,76.0,0.5,49,132.0
1292,C4,76.0,0.5,49,132.0
1293,E4,76.0,0.5,49,132.0
1294,C5,76.5,0.125,90,132.0
1295,A4,76.5,0.125,70,132.0
1296,G2,76.5,0.125,49,132.0
1297,C3,76.5,0.125,49,132.0
1298,E3,76.5,0.125,49,132.0
1299,G3,76.5,0.125,49,132.0
1300,C4,76.5,0.125,49,132.0
1301,E4,76.5,0.125,49,132.0
1302,C5,76.75,0.125,90,132.0
1303,A4,76.75,0.125,70,132.0
1304,G2,76.75,0.125,49,132.0
1305,C3,76.75,0.125,49,132.0
1306,E3,76.75,0.125,49,132.0
1307,G3,76.75,0.125,49,132.0
1308,C4,76.75,0.125,49,132.0
1309,E4,76.75,0.125,49,132.0
1310,C5,77.0,0.125,90,132.0
1311,D2,77.0,0.125,70,132.0
1312,C#2,77.0,0.125,70,132.0
1313,A4,77.0,0.125,70,132.0
1314,G2,77.0,0.125,49,132.0
1315,C3,77.0,0.125,49,132.0
1316,E3,77.0,0.125,49,132.0
1317,G3,77.0,0.125,49,132.0
1318,C4,77.0,0.125,49,132.0
1319,E4,77.0,0.125,49,132.0
1320,E5,77.5,0.125,90,132.0
1321,C#2,77.5,0.125,70,132.0
1322,G2,77.5,0.5,49,132.0
1323,C3,77.5,0.5,49,132.0
1324,E3,77.5,0.5,49,132.0
1325,G3,77.5,0.5,49,132.0
1326,C4,77.5,0.5,49,132.0
1327,E4,77.5,0.5,49,132.0
1328,G5,78.0,0.125,90,132.0
1329,A4,78.0,0.125,70,132.0
1330,B1,78.0,0.125,50,132.0
1331,G2,78.0,0.5,49,132.0
1332,C3,78.0,0.5,49,132.0
1333,E3,78.0,0.5,49,132.0
1334,G3,78.0,0.5,49,132.0
1335,C4,78.0,0.5,49,132.0
1336,E4,78.0,0.5,49,132.0
1337,E5,78.5,0.125,90,132.0
1338,A4,78.5,0.125,70,132.0
1339,G2,78.5,0.25,49,132.0
1340,C3,78.5,0.25,49,132.0
1341,E3,78.5,0.25,49,132.0
1342,G3,78.5,0.25,49,132.0
1343,C4,78.5,0.25,49,132.0
1344,E4,78.5,0.25,49,132.0
1345,G2,79.0,1.0,90,132.0
1346,C5,79.0,0.125,90,132.0
1347,E2,79.0,0.125,70,132.0
1348,C#2,79.0,0.125,70,132.0
1349,G2,79.0,0.5,49,132.0
1350,C3,79.0,0.5,49,132.0
1351,E3,79.0,0.5,49,132.0
1352,G3,79.0,0.5,49,132.0
1353,C4,79.0,0.5,49,132.0
1354,E4,79.0,0.5,49,132.0
1355,A4,79.5,0.125,90,132.0
1356,G2,79.5,0.25,49,132.0
1357,C3,79.5,0.25,49,132.0
1358,E3,79.5,0.25,49,132.0
1359,G3,79.5,0.25,49,132.0
1360,C4,79.5,0.25,49,132.0
1361,E4,79.5,0.25,49,132.0
1362,G2,80.0,0.25,90,132.0
1363,G5,80.0,0.125,90,132.0
1364,D2,80.0,0.125,70,132.0
1365,G2,80.0,0.25,49,132.0
1366,B2,80.0,0.25,49,132.0
1367,D3,80.0,0.25,49,132.0
1368,G3,80.0,0.25,49,132.0
1369,B3,80.0,0.25,49,132.0
1370,F4,80.0,0.25,49,132.0
1371,G2,80.5,0.25,90,132.0
1372,G5,80.5,0.125,90,132.0
1373,D2,80.5,0.125,70,132.0
1374,G2,80.5,0.25,49,132.0
1375,B2,80.5,0.25,49,132.0
1376,D3,80.5,0.25,49,132.0
1377,G3,80.5,0.25,49,132.0
1378,B3,80.5,0.25,49,132.0
1379,F4,80.5,0.25,49,132.0
1380,F2,81.0,0.25,90,132.0
1381,F5,81.0,0.125,90,132.0
1382,D2,81.0,0.125,70,132.0
1383,F2,81.0,0.25,49,132.0
1384,C3,81.0,0.25,49,132.0
1385,F3,81.0,0.25,49,132.0
1386,A3,81.0,0.25,49,132.0
1387,C4,81.0,0.25,49,132.0
1388,F4,81.0,0.25,49,132.0
1389,F2,81.5,0.25,90,132.0
1390,F5,81.5,0.125,90,132.0
1391,D2,81.5,0.125,70,132.0
1392,F2,81.5,0.25,49,132.0
1393,C3,81.5,0.25,49,132.0
1394,F3,81.5,0.25,49,132.0
1395,A3,81.5,0.25,49,132.0
1396,C4,81.5,0.25,49,132.0
1397,F4,81.5,0.25,49,132.0
1398,E2,82.0,0.25,90,132.0
1399,E5,82.0,0.125,90,132.0
1400,D2,82.0,0.125,70,132.0
1401,A2,82.0,0.25,49,132.0
1402,E3,82.0,0.25,49,132.0
1403,A3,82.0,0.25,49,132.0
1404,C4,82.0,0.25,49,132.0
1405,E4,82.0,0.25,49,132.0
1406,E2,82.5,0.25,90,132.0
1407,E5,82.5,0.125,90,132.0
1408,D2,82.5,0.125,70,132.0
1409,A2,82.5,0.25,49,132.0
1410,E3,82.5,0.25,49,132.0
1411,A3,82.5,0.25,49,132.0
1412,C4,82.5,0.25,49,132.0
1413,E4,82.5,0.25,49,132.0
1414,D2,83.0,0.25,90,132.0
1415,D5,83.0,0.125,90,132.0
1416,D2,83.0,0.125,70,132.0
1417,A2,83.0,0.25,49,132.0
1418,D3,83.0,0.25,49,132.0
1419,A3,83.0,0.25,49,132.0
1420,D4,83.0,0.25,49,132.0
1421,F4,83.0,0.25,49,132.0
1422,D2,83.5,0.25,90,132.0
1423,D5,83.5,0.125,90,132.0
1424,D2,83.5,0.125,70,132.0
1425,A2,83.5,0.25,49,132.0
1426,D3,83.5,0.25,49,132.0
1427,A3,83.5,0.25,49,132.0
1428,D4,83.5,0.25,49,132.0
1429,F4,83.5,0.25,49,132.0
1430,C2,84.0,2.0,90,132.0
1431,C5,84.0,0.125,90,132.0
1432,A4,84.0,0.125,70,132.0
1433,B1,84.0,0.125,50,132.0
1434,G2,84.0,0.5,49,132.0
1435,C3,84.0,0.5,49,132.0
1436,E3,84.0,0.5,49,132.0
1437,G3,84.0,0.5,49,132.0
1438,C4,84.0,0.5,49,132.0
1439,E4,84.0,0.5,49,132.0
1440,C5,84.5,0.125,90,132.0
1441,A4,84.5,0.125,70,132.0
1442,G2,84.5,0.125,49,132.0
1443,C3,84.5,0.125,49,132.0
1444,E3,84.5,0.125,49,132.0
1445,G3,84.5,0.125,49,132.0
1446,C4,84.5,0.125,49,132.0
1447,E4,84.5,0.125,49,132.0
1448,C5,84.75,0.125,90,132.0
1449,A4,84.75,0.125,70,132.0
1450,G2,84.75,0.125,49,132.0
1451,C3,84.75,0.125,49,132.0
1452,E3,84.75,0.125,49,132.0
1453,G3,84.75,0.125,49,132.0
1454,C4,84.75,0.125,49,132.0
1455,E4,84.75,0.125,49,132.0
1456,C5,85.0,1.0,100,132.0
1457,C5,85.0,0.125,90,132.0
1458,D2,85.0,0.125,70,132.0
1459,C#2,85.0,0.125,70,132.0
1460,A4,85.0,0.125,70,132.0
1461,G2,85.0,0.125,49,132.0
1462,C3,85.0,0.125,49,132.0
1463,E3,85.0,0.125,49,132.0
1464,G3,85.0,0.125,49,132.0
1465,C4,85.0,0.125,49,132.0
1466,E4,85.0,0.125,49,132.0
1467,E5,85.5,0.125,90,132.0
1468,C#2,85.5,0.125,70,132.0
1469,G2,85.5,0.5,49,132.0
1470,C3,85.5,0.5,49,132.0
1471,E3,85.5,0.5,49,132.0
1472,G3,85.5,0.5,49,132.0
1473,C4,85.5,0.5,49,132.0
1474,E4,85.5,0.5,49,132.0
1475,C5,86.0,0.5,100,132.0
1476,E2,86.0,1.0,90,132.0
1477,G5,86.0,0.125,90,132.0
1478,A4,86.0,0.125,70,132.0
1479,B1,86.0,0.125,50,132.0
1480,G2,86.0,0.5,49,132.0
1481,C3,86.0,0.5,49,132.0
1482,E3,86.0,0.5,49,132.0
1483,G3,86.0,0.5,49,132.0
1484,C4,86.0,0.5,49,132.0
1485,E4,86.0,0.5,49,132.0
1486,C5,86.5,1.5,100,132.0
1487,E5,86.5,0.125,90,132.0
1488,A4,86.5,0.125,70,132.0
1489,G2,86.5,0.25,49,132.0
1490,C3,86.5,0.25,49,132.0
1491,E3,86.5,0.25,49,132.0
1492,G3,86.5,0.25,49,132.0
1493,C4,86.5,0.25,49,132.0
1494,E4,86.5,0.25,49,132.0
1495,G2,87.0,1.0,90,132.0
1496,C5,87.0,0.125,90,132.0
1497,E2,87.0,0.125,70,132.0
1498,C#2,87.0,0.125,70,132.0
1499,G2,87.0,0.5,49,132.0
1500,C3,87.0,0.5,49,132.0
1501,E3,87.0,0.5,49,132.0
1502,G3,87.0,0.5,49,132.0
1503,C4,87.0,0.5,49,132.0
1504,E4,87.0,0.5,49,132.0
1505,A4,87.5,0.125,90,132.0
1506,G2,87.5,0.25,49,132.0
1507,C3,87.5,0.25,49,132.0
1508,E3,87.5,0.25,49,132.0
1509,G3,87.5,0.25,49,132.0
1510,C4,87.5,0.25,49,132.0
1511,E4,87.5,0.25,49,132.0
1512,C5,88.0,0.5,100,132.0
1513,C2,88.0,2.0,90,132.0
1514,C5,88.0,0.125,90,132.0
1515,A4,88.0,0.125,70,132.0
1516,B1,88.0,0.125,50,132.0
1517,G2,88.0,0.5,49,132.0
1518,C3,88.0,0.5,49,132.0
1519,E3,88.0,0.5,49,132.0
1520,G3,88.0,0.5,49,132.0
1521,C4,88.0,0.5,49,132.0
1522,E4,88.0,0.5,49,132.0
1523,D5,88.5,1.0,100,132.0
1524,C5,88.5,0.125,90,132.0
1525,A4,88.5,0.125,70,132.0
1526,G2,88.5,0.125,49,132.0
1527,C3,88.5,0.125,49,132.0
1528,E3,88.5,0.125,49,132.0
1529,G3,88.5,0.125,49,132.0
1530,C4,88.5,0.125,49,132.0
1531,E4,88.5,0.125,49,132.0
1532,C5,88.75,0.125,90,132.0
1533,A4,88.75,0.125,70,132.0
1534,G2,88.75,0.125,49,132.0
1535,C3,88.75,0.125,49,132.0
1536,E3,88.75,0.125,49,132.0
1537,G3,88.75,0.125,49,132.0
1538,C4,88.75,0.125,49,132.0
1539,E4,88.75,0.125,49,132.0
1540,C5,89.0,0.125,90,132.0
1541,D2,89.0,0.125,70,132.0
1542,C#2,89.0,0.125,70,132.0
1543,A4,89.0,0.125,70,132.0
1544,G2,89.0,0.125,49,132.0
1545,C3,89.0,0.125,49,132.0
1546,E3,89.0,0.125,49,132.0
1547,G3,89.0,0.125,49,132.0
1548,C4,89.0,0.125,49,132.0
1549,E4,89.0,0.125,49,132.0
1550,E5,89.5,0.5,100,132.0
1551,E5,89.5,0.125,90,132.0
1552,C4,89.5,0.5,80,132.0
1553,C#2,89.5,0.125,70,132.0
1554,G2,89.5,0.5,49,132.0
1555,C3,89.5,0.5,49,132.0
1556,E3,89.5,0.5,49,132.0
1557,G3,89.5,0.5,49,132.0
1558,C4,89.5,0.5,49,132.0
1559,E4,89.5,0.5,49,132.0
1560,D5,90.0,0.5,100,132.0
1561,E2,90.0,1.0,90,132.0
1562,G5,90.0,0.125,90,132.0
1563,C4,90.0,0.5,80,132.0
1564,A4,90.0,0.125,70,132.0
1565,B1,90.0,0.125,50,132.0
1566,G2,90.0,0.5,49,132.0
1567,C3,90.0,0.5,49,132.0
1568,E3,90.0,0.5,49,132.0
1569,G3,90.0,0.5,49,132.0
1570,C4,90.0,0.5,49,132.0
1571,E4,90.0,0.5,49,132.0
1572,C5,90.5,1.0,100,132.0
1573,E5,90.5,0.125,90,132.0
1574,B3,90.5,0.5,80,132.0
1575,A4,90.5,0.125,70,132.0
1576,G2,90.5,0.25,49,132.0
1577,C3,90.5,0.25,49,132.0
1578,E3,90.5,0.25,49,132.0
1579,G3,90.5,0.25,49,132.0
1580,C4,90.5,0.25,49,132.0
1581,E4,90.5,0.25,49,132.0
1582,G2,91.0,1.0,90,132.0
1583,C5,91.0,0.125,90,132.0
1584,C4,91.0,0.5,80,132.0
1585,E2,91.0,0.125,70,132.0
1586,C#2,91.0,0.125,70,132.0
1587,G2,91.0,0.5,49,132.0
1588,C3,91.0,0.5,49,132.0
1589,E3,91.0,0.5,49,132.0
1590,G3,91.0,0.5,49,132.0
1591,C4,91.0,0.5,49,132.0
1592,E4,91.0,0.5,49,132.0
1593,A4,91.5,0.125,90,132.0
1594,B3,91.5,0.5,80,132.0
1595,G2,91.5,0.25,49,132.0
1596,C3,91.5,0.25,49,132.0
1597,E3,91.5,0.25,49,132.0
1598,G3,91.5,0.25,49,132.0
1599,C4,91.5,0.25,49,132.0
1600,E4,91.5,0.25,49,132.0
1601,A2,92.0,2.0,90,132.0
1602,A4,92.0,0.125,90,132.0
1603,A3,92.0,0.5,80,132.0
1604,A4,92.0,0.125,70,132.0
1605,B1,92.0,0.125,50,132.0
1606,A2,92.0,0.5,49,132.0
1607,E3,92.0,0.5,49,132.0
1608,A3,92.0,0.5,49,132.0
1609,C4,92.0,0.5,49,132.0
1610,E4,92.0,0.5,49,132.0
1611,A4,92.5,0.125,90,132.0
1612,A4,92.5,0.125,70,132.0
1613,A2,92.5,0.125,49,132.0
1614,E3,92.5,0.125,49,132.0
1615,A3,92.5,0.125,49,132.0
1616,C4,92.5,0.125,49,132.0
1617,E4,92.5,0.125,49,132.0
1618,A4,92.75,0.125,90,132.0
1619,A4,92.75,0.125,70,132.0
1620,A2,92.75,0.125,49,132.0
1621,E3,92.75,0.125,49,132.0
1622,A3,92.75,0.125,49,132.0
1623,C4,92.75,0.125,49,132.0
1624,E4,92.75,0.125,49,132.0
1625,A4,93.0,0.5,100,132.0
1626,A4,93.0,0.125,90,132.0
1627,D2,93.0,0.125,70,132.0
1628,C#2,93.0,0.125,70,132.0
1629,A4,93.0,0.125,70,132.0
1630,A2,93.0,0.125,49,132.0
1631,E3,93.0,0.125,49,132.0
1632,A3,93.0,0.125,49,132.0
1633,C4,93.0,0.125,49,132.0
1634,E4,93.0,0.125,49,132.0
1635,A4,93.5,0.5,100,132.0
1636,C5,93.5,0.125,90,132.0
1637,C#2,93.5,0.125,70,132.0
1638,A2,93.5,0.5,49,132.0
1639,E3,93.5,0.5,49,132.0
1640,A3,93.5,0.5,49,132.0
1641,C4,93.5,0.5,49,132.0
1642,E4,93.5,0.5,49,132.0
1643,A4,94.0,1.0,100,132.0
1644,E2,94.0,1.0,90,132.0
1645,E5,94.0,0.125,90,132.0
1646,A4,94.0,0.125,70,132.0
1647,B1,94.0,0.125,50,132.0
1648,A2,94.0,0.5,49,132.0
1649,E3,94.0,0.5,49,132.0
1650,A3,94.0,0.5,49,132.0
1651,C4,94.0,0.5,49,132.0
1652,E4,94.0,0.5,49,132.0
1653,C5,94.5,0.125,90,132.0
1654,A4,94.5,0.125,70,132.0
1655,A2,94.5,0.25,49,132.0
1656,E3,94.5,0.25,49,132.0
1657,A3,94.5,0.25,49,132.0
1658,C4,94.5,0.25,49,132.0
1659,E4,94.5,0.25,49,132.0
1660,G2,95.0,1.0,90,132.0
1661,A4,95.0,0.125,90,132.0
1662,E2,95.0,0.125,70,132.0
1663,C#2,95.0,0.125,70,132.0
1664,A2,95.0,0.5,49,132.0
1665,E3,95.0,0.5,49,132.0
1666,A3,95.0,0.5,49,132.0
1667,C4,95.0,0.5,49,132.0
1668,E4,95.0,0.5,49,132.0
1669,G4,95.5,0.125,90,132.0
1670,A2,95.5,0.25,49,132.0
1671,E3,95.5,0.25,49,132.0
1672,A3,95.5,0.25,49,132.0
1673,C4,95.5,0.25,49,132.0
1674,E4,95.5,0.25,49,132.0
1675,A4,96.0,0.5,100,132.0
1676,A2,96.0,2.0,90,132.0
1677,A4,96.0,0.125,90,132.0
1678,A4,96.0,0.125,70,132.0
1679,B1,96.0,0.125,50,132.0
1680,A2,96.0,0.5,49,132.0
1681,E3,96.0,0.5,49,132.0
1682,A3,96.0,0.5,49,132.0
1683,C4,96.0,0.5,49,132.0
1684,E4,96.0,0.5,49,132.0
1685,C5,96.5,1.0,100,132.0
1686,A4,96.5,0.125,90,132.0
1687,A4,96.5,0.125,70,132.0
1688,A2,96.5,0.125,49,132.0
1689,E3,96.5,0.125,49,132.0
1690,A3,96.5,0.125,49,132.0
1691,C4,96.5,0.125,49,132.0
1692,E4,96.5,0.125,49,132.0
1693,A4,96.75,0.125,90,132.0
1694,A4,96.75,0.125,70,132.0
1695,A2,96.75,0.125,49,132.0
1696,E3,96.75,0.125,49,132.0
1697,A3,96.75,0.125,49,132.0
1698,C4,96.75,0.125,49,132.0
1699,E4,96.75,0.125,49,132.0
1700,A4,97.0,0.125,90,132.0
1701,D2,97.0,0.125,70,132.0
1702,C#2,97.0,0.125,70,132.0
1703,A4,97.0,0.125,70,132.0
1704,A2,97.0,0.125,49,132.0
1705,E3,97.0,0.125,49,132.0
1706,A3,97.0,0.125,49,132.0
1707,C4,97.0,0.125,49,132.0
1708,E4,97.0,0.125,49,132.0
1709,A4,97.5,1.5,100,132.0
1710,C5,97.5,0.125,90,132.0
1711,C#2,97.5,0.125,70,132.0
1712,A2,97.5,0.5,49,132.0
1713,E3,97.5,0.5,49,132.0
1714,A3,97.5,0.5,49,132.0
1715,C4,97.5,0.5,49,132.0
1716,E4,97.5,0.5,49,132.0
1717,E2,98.0,1.0,90,132.0
1718,E5,98.0,0.125,90,132.0
1719,A3,98.0,0.5,80,132.0
1720,A4,98.0,0.125,70,132.0
1721,B1,98.0,0.125,50,132.0
1722,A2,98.0,0.5,49,132.0
1723,E3,98.0,0.5,49,132.0
1724,A3,98.0,0.5,49,132.0
1725,C4,98.0,0.5,49,132.0
1726,E4,98.0,0.5,49,132.0
1727,C5,98.5,0.125,90,132.0
1728,G3,98.5,0.5,80,132.0
1729,A4,98.5,0.125,70,132.0
1730,A2,98.5,0.25,49,132.0
1731,E3,98.5,0.25,49,132.0
1732,A3,98.5,0.25,49,132.0
1733,C4,98.5,0.25,49,132.0
1734,E4,98.5,0.25,49,132.0
1735,G2,99.0,1.0,90,132.0
1736,A4,99.0,0.125,90,132.0
1737,A3,99.0,0.5,80,132.0
1738,E2,99.0,0.125,70,132.0
1739,C#2,99.0,0.125,70,132.0
1740,A2,99.0,0.5,49,132.0
1741,E3,99.0,0.5,49,132.0
1742,A3,99.0,0.5,49,132.0
1743,C4,99.0,0.5,49,132.0
1744,E4,99.0,0.5,49,132.0
1745,G4,99.5,0.125,90,132.0
1746,G3,99.5,0.5,80,132.0
1747,A2,99.5,0.25,49,132.0
1748,E3,99.5,0.25,49,132.0
1749,A3,99.5,0.25,49,132.0
1750,C4,99.5,0.25,49,132.0
1751,E4,99.5,0.25,49,132.0
1752,C2,100.0,2.0,90,132.0
1753,C5,100.0,0.125,90,132.0
1754,A4,100.0,0.125,70,132.0
1755,B1,100.0,0.125,50,132.0
1756,G2,100.0,0.5,49,132.0
1757,C3,100.0,0.5,49,132.0
1758,E3,100.0,0.5,49,132.0
1759,G3,100.0,0.5,49,132.0
1760,C4,100.0,0.5,49,132.0
1761,E4,100.0,0.5,49,132.0
1762,C5,100.5,0.125,90,132.0
1763,A4,100.5,0.125,70,132.0
1764,G2,100.5,0.125,49,132.0
1765,C3,100.5,0.125,49,132.0
1766,E3,100.5,0.125,49,132.0
1767,G3,100.5,0.125,49,132.0
1768,C4,100.5,0.125,49,132.0
1769,E4,100.5,0.125,49,132.0
1770,C5,100.75,0.125,90,132.0
1771,A4,100.75,0.125,70,132.0
1772,G2,100.75,0.125,49,132.0
1773,C3,100.75,0.125,49,132.0
1774,E3,100.75,0.125,49,132.0
1775,G3,100.75,0.125,49,132.0
1776,C4,100.75,0.125,49,132.0
1777,E4,100.75,0.125,49,132.0
1778,C5,101.0,0.5,100,132.0
1779,C5,101.0,0.125,90,132.0
1780,D2,101.0,0.125,70,132.0
1781,C#2,101.0,0.125,70,132.0
1782,A4,101.0,0.125,70,132.0
1783,G2,101.0,0.125,49,132.0
1784,C3,101.0,0.125,49,132.0
1785,E3,101.0,0.125,49,132.0
1786,G3,101.0,0.125,49,132.0
1787,C4,101.0,0.125,49,132.0
1788,E4,101.0,0.125,49,132.0
1789,G4,101.5,0.5,100,132.0
1790,E5,101.5,0.125,90,132.0
1791,C#2,101.5,0.125,70,132.0
1792,G2,101.5,0.5,49,132.0
1793,C3,101.5,0.5,49,132.0
1794,E3,101.5,0.5,49,132.0
1795,G3,101.5,0.5,49,132.0
1796,C4,101.5,0.5,49,132.0
1797,E4,101.5,0.5,49,132.0
1798,C5,102.0,1.5,100,132.0
1799,E2,102.0,1.0,90,132.0
1800,G5,102.0,0.125,90,132.0
1801,A4,102.0,0.125,70,132.0
1802,B1,102.0,0.125,50,132.0
1803,G2,102.0,0.5,49,132.0
1804,C3,102.0,0.5,49,132.0
1805,E3,102.0,0.5,49,132.0
1806,G3,102.0,0.5,49,132.0
1807,C4,102.0,0.5,49,132.0
1808,E4,102.0,0.5,49,132.0
1809,E5,102.5,0.125,90,132.0
1810,A4,102.5,0.125,70,132.0
1811,G2,102.5,0.25,49,132.0
1812,C3,102.5,0.25,49,132.0
1813,E3,102.5,0.25,49,132.0
1814,G3,102.5,0.25,49,132.0
1815,C4,102.5,0.25,49,132.0
1816,E4,102.5,0.25,49,132.0
1817,G2,103.0,1.0,90,132.0
1818,C5,103.0,0.125,90,132.0
1819,E2,103.0,0.125,70,132.0
1820,C#2,103.0,0.125,70,132.0
1821,G2,103.0,0.5,49,132.0
1822,C3,103.0,0.5,49,132.0
1823,E3,103.0,0.5,49,132.0
1824,G3,103.0,0.5,49,132.0
1825,C4,103.0,0.5,49,132.0
1826,E4,103.0,0.5,49,132.0
1827,G4,103.5,0.5,100,132.0
1828,A4,103.5,0.125,90,132.0
1829,G2,103.5,0.25,49,132.0
1830,C3,103.5,0.25,49,132.0
1831,E3,103.5,0.25,49,132.0
1832,G3,103.5,0.25,49,132.0
1833,C4,103.5,0.25,49,132.0
1834,E4,103.5,0.25,49,132.0
1835,C5,104.0,0.5,100,132.0
1836,C2,104.0,2.0,90,132.0
1837,C5,104.0,0.125,90,132.0
1838,A4,104.0,0.125,70,132.0
1839,B1,104.0,0.125,50,132.0
1840,G2,104.0,0.5,49,132.0
1841,C3,104.0,0.5,49,132.0
1842,E3,104.0,0.5,49,132.0
1843,G3,104.0,0.5,49,132.0
1844,C4,104.0,0.5,49,132.0
1845,E4,104.0,0.5,49,132.0
1846,D5,104.5,1.0,100,132.0
1847,C5,104.5,0.125,90,132.0
1848,A4,104.5,0.125,70,132.0
1849,G2,104.5,0.125,49,132.0
1850,C3,104.5,0.125,49,132.0
1851,E3,104.5,0.125,49,132.0
1852,G3,104.5,0.125,49,132.0
1853,C4,104.5,0.125,49,132.0
1854,E4,104.5,0.125,49,132.0
1855,C5,104.75,0.125,90,132.0
1856,A4,104.75,0.125,70,132.0
1857,G2,104.75,0.125,49,132.0
1858,C3,104.75,0.125,49,132.0
1859,E3,104.75,0.125,49,132.0
1860,G3,104.75,0.125,49,132.0
1861,C4,104.75,0.125,49,132.0
1862,E4,104.75,0.125,49,132.0
1863,C5,105.0,0.125,90,132.0
1864,D2,105.0,0.125,70,132.0
1865,C#2,105.0,0.125,70,132.0
1866,A4,105.0,0.125,70,132.0
1867,G2,105.0,0.125,49,132.0
1868,C3,105.0,0.125,49,132.0
1869,E3,105.0,0.125,49,132.0
1870,G3,105.0,0.125,49,132.0
1871,C4,105.0,0.125,49,132.0
1872,E4,105.0,0.125,49,132.0
1873,E5,105.5,0.5,100,132.0
1874,E5,105.5,0.125,90,132.0
1875,C#2,105.5,0.125,70,132.0
1876,G2,105.5,0.5,49,132.0
1877,C3,105.5,0.5,49,132.0
1878,E3,105.5,0.5,49,132.0
1879,G3,105.5,0.5,49,132.0
1880,C4,105.5,0.5,49,132.0
1881,E4,105.5,0.5,49,132.0
1882,D5,106.0,0.5,100,132.0
1883,E2,106.0,1.0,90,132.0
1884,G5,106.0,0.125,90,132.0
1885,C4,106.0,0.5,80,132.0
1886,A4,106.0,0.125,70,132.0
1887,B1,106.0,0.125,50,132.0
1888,G2,106.0,0.5,49,132.0
1889,C3,106.0,0.5,49,132.0
1890,E3,106.0,0.5,49,132.0
1891,G3,106.0,0.5,49,132.0
1892,C4,106.0,0.5,49,132.0
1893,E4,106.0,0.5,49,132.0
1894,C5,106.5,1.0,100,132.0
1895,E5,106.5,0.125,90,132.0
1896,B3,106.5,0.5,80,132.0
1897,A4,106.5,0.125,70,132.0
1898,G2,106.5,0.25,49,132.0
1899,C3,106.5,0.25,49,132.0
1900,E3,106.5,0.25,49,132.0
1901,G3,106.5,0.25,49,132.0
1902,C4,106.5,0.25,49,132.0
1903,E4,106.5,0.25,49,132.0
1904,G2,107.0,1.0,90,132.0
1905,C5,107.0,0.125,90,132.0
1906,C4,107.0,0.5,80,132.0
1907,E2,107.0,0.125,70,132.0
1908,C#2,107.0,0.125,70,132.0
1909,G2,107.0,0.5,49,132.0
1910,C3,107.0,0.5,49,132.0
1911,E3,107.0,0.5,49,132.0
1912,G3,107.0,0.5,49,132.0
1913,C4,107.0,0.5,49,132.0
1914,E4,107.0,0.5,49,132.0
1915,A4,107.5,0.125,90,132.0
1916,B3,107.5,0.5,80,132.0
1917,G2,107.5,0.25,49,132.0
1918,C3,107.5,0.25,49,132.0
1919,E3,107.5,0.25,49,132.0
1920,G3,107.5,0.25,49,132.0
1921,C4,107.5,0.25,49,132.0
1922,E4,107.5,0.25,49,132.0
1923,A2,108.0,2.0,90,132.0
1924,A4,108.0,0.125,90,132.0
1925,A3,108.0,0.5,80,132.0
1926,A4,108.0,0.125,70,132.0
1927,B1,108.0,0.125,50,132.0
1928,A2,108.0,0.5,49,132.0
1929,E3,108.0,0.5,49,132.0
1930,A3,108.0,0.5,49,132.0
1931,C4,108.0,0.5,49,132.0
1932,E4,108.0,0.5,49,132.0
1933,G4,108.5,0.5,100,132.0
1934,A4,108.5,0.125,90,132.0
1935,A4,108.5,0.125,70,132.0
1936,A2,108.5,0.125,49,132.0
1937,E3,108.5,0.125,49,132.0
1938,A3,108.5,0.125,49,132.0
1939,C4,108.5,0.125,49,132.0
1940,E4,108.5,0.125,49,132.0
1941,A4,108.75,0.125,90,132.0
1942,A4,108.75,0.125,70,132.0
1943,A2,108.75,0.125,49,132.0
1944,E3,108.75,0.125,49,132.0
1945,A3,108.75,0.125,49,132.0
1946,C4,108.75,0.125,49,132.0
1947,E4,108.75,0.125,49,132.0
1948,A4,109.0,0.5,100,132.0
1949,A4,109.0,0.125,90,132.0
1950,D2,109.0,0.125,70,132.0
1951,C#2,109.0,0.125,70,132.0
1952,A4,109.0,0.125,70,132.0
1953,A2,109.0,0.125,49,132.0
1954,E3,109.0,0.125,49,132.0
1955,A3,109.0,0.125,49,132.0
1956,C4,109.0,0.125,49,132.0
1957,E4,109.0,0.125,49,132.0
1958,G4,109.5,0.5,100,132.0
1959,C5,109.5,0.125,90,132.0
1960,C#2,109.5,0.125,70,132.0
1961,A2,109.5,0.5,49,132.0
1962,E3,109.5,0.5,49,132.0
1963,A3,109.5,0.5,49,132.0
1964,C4,109.5,0.5,49,132.0
1965,E4,109.5,0.5,49,132.0
1966,A4,110.0,1.0,100,132.0
1967,E2,110.0,1.0,90,132.0
1968,E5,110.0,0.125,90,132.0
1969,A4,110.0,0.125,70,132.0
1970,B1,110.0,0.125,50,132.0
1971,A2,110.0,0.5,49,132.0
1972,E3,110.0,0.5,49,132.0
1973,A3,110.0,0.5,49,132.0
1974,C4,110.0,0.5,49,132.0
1975,E4,110.0,0.5,49,132.0
1976,C5,110.5,0.125,90,132.0
1977,A4,110.5,0.125,70,132.0
1978,A2,110.5,0.25,49,132.0
1979,E3,110.5,0.25,49,132.0
1980,A3,110.5,0.25,49,132.0
1981,C4,110.5,0.25,49,132.0
1982,E4,110.5,0.25,49,132.0
1983,G2,111.0,1.0,90,132.0
1984,A4,111.0,0.125,90,132.0
1985,E2,111.0,0.125,70,132.0
1986,C#2,111.0,0.125,70,132.0
1987,A2,111.0,0.5,49,132.0
1988,E3,111.0,0.5,49,132.0
1989,A3,111.0,0.5,49,132.0
1990,C4,111.0,0.5,49,132.0
1991,E4,111.0,0.5,49,132.0
1992,G4,111.5,0.5,100,132.0
1993,G4,111.5,0.125,90,132.0
1994,A2,111.5,0.25,49,132.0
1995,E3,111.5,0.25,49,132.0
1996,A3,111.5,0.25,49,132.0
1997,C4,111.5,0.25,49,132.0
1998,E4,111.5,0.25,49,132.0
1999,A4,112.0,0.5,100,132.0
2000,A2,112.0,2.0,90,132.0
2001,A4,112.0,0.125,90,132.0
2002,A4,112.0,0.125,70,132.0
2003,B1,112.0,0.125,50,132.0
2004,A2,112.0,0.5,49,132.0
2005,E3,112.0,0.5,49,132.0
2006,A3,112.0,0.5,49,132.0
2007,C4,112.0,0.5,49,132.0
2008,E4,112.0,0.5,49,132.0
2009,C5,112.5,1.0,100,132.0
2010,A4,112.5,0.125,90,132.0
2011,A4,112.5,0.125,70,132.0
2012,A2,112.5,0.125,49,132.0
2013,E3,112.5,0.125,49,132.0
2014,A3,112.5,0.125,49,132.0
2015,C4,112.5,0.125,49,132.0
2016,E4,112.5,0.125,49,132.0
2017,A4,112.75,0.125,90,132.0
2018,A4,112.75,0.125,70,132.0
2019,A2,112.75,0.125,49,132.0
2020,E3,112.75,0.125,49,132.0
2021,A3,112.75,0.125,49,132.0
2022,C4,112.75,0.125,49,132.0
2023,E4,112.75,0.125,49,132.0
2024,A4,113.0,0.125,90,132.0
2025,D2,113.0,0.125,70,132.0
2026,C#2,113.0,0.125,70,132.0
2027,A4,113.0,0.125,70,132.0
2028,A2,113.0,0.125,49,132.0
2029,E3,113.0,0.125,49,132.0
2030,A3,113.0,0.125,49,132.0
2031,C4,113.0,0.125,49,132.0
2032,E4,113.0,0.125,49,132.0
2033,A4,113.5,0.75,100,132.0
2034,C5,113.5,0.125,90,132.0
2035,C#2,113.5,0.125,70,132.0
2036,A2,113.5,0.5,49,132.0
2037,E3,113.5,0.5,49,132.0
2038,A3,113.5,0.5,49,132.0
2039,C4,113.5,0.5,49,132.0
2040,E4,113.5,0.5,49,132.0
2041,E2,114.0,1.0,90,132.0
2042,E5,114.0,0.125,90,132.0
2043,A3,114.0,0.5,80,132.0
2044,A4,114.0,0.125,70,132.0
2045,B1,114.0,0.125,50,132.0
2046,A2,114.0,0.5,49,132.0
2047,E3,114.0,0.5,49,132.0
2048,A3,114.0,0.5,49,132.0
2049,C4,114.0,0.5,49,132.0
2050,E4,114.0,0.5,49,132.0
2051,G4,114.5,0.5,100,132.0
2052,C5,114.5,0.125,90,132.0
2053,G3,114.5,0.5,80,132.0
2054,A4,114.5,0.125,70,132.0
2055,A2,114.5,0.25,49,132.0
2056,E3,114.5,0.25,49,132.0
2057,A3,114.5,0.25,49,132.0
2058,C4,114.5,0.25,49,132.0
2059,E4,114.5,0.25,49,132.0
2060,A4,115.0,0.5,100,132.0
2061,G2,115.0,1.0,90,132.0
2062,A4,115.0,0.125,90,132.0
2063,A3,115.0,0.5,80,132.0
2064,E2,115.0,0.125,70,132.0
2065,C#2,115.0,0.125,70,132.0
2066,A2,115.0,0.5,49,132.0
2067,E3,115.0,0.5,49,132.0
2068,A3,115.0,0.5,49,132.0
2069,C4,115.0,0.5,49,132.0
2070,E4,115.0,0.5,49,132.0
2071,G4,115.5,0.5,100,132.0
2072,G4,115.5,0.125,90,132.0
2073,G3,115.5,0.5,80,132.0
2074,A2,115.5,0.25,49,132.0
2075,E3,115.5,0.25,49,132.0
2076,A3,115.5,0.25,49,132.0
2077,C4,115.5,0.25,49,132.0
2078,E4,115.5,0.25,49,132.0
2079,C5,116.0,0.75,100,132.0
2080,C2,116.0,0.25,90,132.0
2081,C5,117.0,0.5,88,132.0
2082,C2,117.0,0.25,90,132.0
2083,C4,117.0,0.5,65,132.0
2084,F#3,117.0,0.25,100,132.0
2085,B1,117.0,0.125,50,132.0
2086,G2,117.0,0.25,49,132.0
2087,C3,117.0,0.25,49,132.0
2088,E3,117.0,0.25,49,132.0
2089,G3,117.0,0.25,49,132.0
2090,C4,117.0,0.25,49,132.0
2091,E4,117.0,0.25,49,132.0
2092,C5,117.5,0.5,88,132.0
2093,C2,117.5,0.25,90,132.0
2094,C4,117.5,0.5,65,132.0
2095,F#3,117.5,0.25,100,132.0
2096,B1,117.5,0.125,50,132.0
2097,G2,117.5,0.25,49,132.0
2098,C3,117.5,0.25,49,132.0
2099,E3,117.5,0.25,49,132.0
2100,G3,117.5,0.25,49,132.0
2101,C4,117.5,0.25,49,132.0
2102,E4,117.5,0.25,49,132.0
2103,C5,119.0,0.5,88,132.0
2104,C2,119.0,0.25,90,132.0
2105,C4,119.0,0.5,65,132.0
2106,F#3,119.0,0.25,100,132.0
2107,B1,119.0,0.125,50,132.0
2108,G2,119.0,0.25,49,132.0
2109,C3,119.0,0.25,49,132.0
2110,E3,119.0,0.25,49,132.0
2111,G3,119.0,0.25,49,132.0
2112,C4,119.0,0.25,49,132.0
2113,E4,119.0,0.25,49,132.0
2114,C5,119.5,0.5,100,132.0
2115,D5,120.0,0.75,100,132.0
2116,G2,120.0,0.25,90,132.0
2117,D5,121.0,0.5,88,132.0
2118,G2,121.0,0.25,90,132.0
2119,D4,121.0,0.5,65,132.0
2120,F#3,121.0,0.25,100,132.0
2121,B1,121.0,0.125,50,132.0
2122,G2,121.0,0.25,49,132.0
2123,B2,121.0,0.25,49,132.0
2124,D3,121.0,0.25,49,132.0
2125,G3,121.0,0.25,49,132.0
2126,B3,121.0,0.25,49,132.0
2127,F4,121.0,0.25,49,132.0
2128,D5,121.5,0.5,88,132.0
2129,G2,121.5,0.25,90,132.0
2130,D4,121.5,0.5,65,132.0
2131,F#3,121.5,0.25,100,132.0
2132,B1,121.5,0.125,50,132.0
2133,G2,121.5,0.25,49,132.0
2134,B2,121.5,0.25,49,132.0
2135,D3,121.5,0.25,49,132.0
2136,G3,121.5,0.25,49,132.0
2137,B3,121.5,0.25,49,132.0
2138,F4,121.5,0.25,49,132.0
2139,D5,123.0,0.5,88,132.0
2140,G2,123.0,0.25,90,132.0
2141,D4,123.0,0.5,65,132.0
2142,F#3,123.0,0.25,100,132.0
2143,B1,123.0,0.125,50,132.0
2144,G2,123.0,0.25,49,132.0
2145,B2,123.0,0.25,49,132.0
2146,D3,123.0,0.25,49,132.0
2147,G3,123.0,0.25,49,132.0
2148,B3,123.0,0.25,49,132.0
2149,F4,123.0,0.25,49,132.0
2150,D5,123.5,0.5,100,132.0
2151,E5,124.0,0.5,100,132.0
2152,C2,124.0,0.25,90,132.0
2153,C5,124.5,1.0,100,132.0
2154,C5,125.0,0.5,88,132.0
2155,C2,125.0,0.25,90,132.0
2156,C4,125.0,0.5,65,132.0
2157,F#3,125.0,0.25,100,132.0
2158,B1,125.0,0.125,50,132.0
2159,G2,125.0,0.25,49,132.0
2160,C3,125.0,0.25,49,132.0
2161,E3,125.0,0.25,49,132.0
2162,G3,125.0,0.25,49,132.0
2163,C4,125.0,0.25,49,132.0
2164,E4,125.0,0.25,49,132.0
2165,C5,125.5,0.5,88,132.0
2166,C2,125.5,0.25,90,132.0
2167,C4,125.5,0.5,65,132.0
2168,F#3,125.5,0.25,100,132.0
2169,B1,125.5,0.125,50,132.0
2170,G2,125.5,0.25,49,132.0
2171,C3,125.5,0.25,49,132.0
2172,E3,125.5,0.25,49,132.0
2173,G3,125.5,0.25,49,132.0
2174,C4,125.5,0.25,49,132.0
2175,E4,125.5,0.25,49,132.0
2176,C5,127.0,0.5,88,132.0
2177,C2,127.0,0.25,90,132.0
2178,C4,127.0,0.5,65,132.0
2179,F#3,127.0,0.25,100,132.0
2180,B1,127.0,0.125,50,132.0
2181,G2,127.0,0.25,49,132.0
2182,C3,127.0,0.25,49,132.0
2183,E3,127.0,0.25,49,132.0
2184,G3,127.0,0.25,49,132.0
2185,C4,127.0,0.25,49,132.0
2186,E4,127.0,0.25,49,132.0
2187,E5,127.5,0.5,100,132.0
2188,F5,128.0,0.5,100,132.0
2189,F2,128.0,0.25,90,132.0
2190,C5,128.5,1.0,100,132.0
2191,F5,129.0,0.5,88,132.0
2192,F2,129.0,0.25,90,132.0
2193,F4,129.0,0.5,65,132.0
2194,F#3,129.0,0.25,100,132.0
2195,B1,129.0,0.125,50,132.0
2196,F2,129.0,0.25,49,132.0
2197,C3,129.0,0.25,49,132.0
2198,F3,129.0,0.25,49,132.0
2199,A3,129.0,0.25,49,132.0
2200,C4,129.0,0.25,49,132.0
2201,F4,129.0,0.25,49,132.0
2202,F5,129.5,0.5,88,132.0
2203,F2,129.5,0.25,90,132.0
2204,F4,129.5,0.5,65,132.0
2205,F#3,129.5,0.25,100,132.0
2206,B1,129.5,0.125,50,132.0
2207,F2,129.5,0.25,49,132.0
2208,C3,129.5,0.25,49,132.0
2209,F3,129.5,0.25,49,132.0
2210,A3,129.5,0.25,49,132.0
2211,C4,129.5,0.25,49,132.0
2212,F4,129.5,0.25,49,132.0
2213,C5,130.5,0.5,100,132.0
2214,E2,130.5,0.125,70,132.0
2215,F5,131.0,0.5,88,132.0
2216,D5,131.0,0.5,100,132.0
2217,F2,131.0,0.25,90,132.0
2218,F4,131.0,0.5,65,132.0
2219,E2,131.0,0.125,70,132.0
2220,B1,131.0,0.125,50,132.0
2221,F2,131.0,0.25,49,132.0
2222,C3,131.0,0.25,49,132.0
2223,F3,131.0,0.25,49,132.0
2224,A3,131.0,0.25,49,132.0
2225,C4,131.0,0.25,49,132.0
2226,F4,131.0,0.25,49,132.0
2227,C5,131.5,0.5,100,132.0
2228,D2,131.5,0.125,70,132.0
2229,G5,132.0,2.0,88,132.0
2230,E5,132.0,2.0,100,132.0
2231,C2,132.0,2.0,90,132.0
2232,A4,132.0,0.125,90,132.0
2233,G4,132.0,2.0,65,132.0
2234,A4,132.0,0.125,70,132.0
2235,G2,132.0,0.5,49,132.0
2236,C3,132.0,0.5,49,132.0
2237,E3,132.0,0.5,49,132.0
2238,G3,132.0,0.5,49,132.0
2239,C4,132.0,0.5,49,132.0
2240,E4,132.0,0.5,49,132.0
2241,B1,132.0,0.125,50,132.0
2242,B1,132.0,0.125,50,132.0
2243,C5,132.5,0.125,90,132.0
2244,A4,132.5,0.125,70,132.0
2245,G2,132.5,0.125,49,132.0
2246,C3,132.5,0.125,49,132.0
2247,E3,132.5,0.125,49,132.0
2248,G3,132.5,0.125,49,132.0
2249,C4,132.5,0.125,49,132.0
2250,E4,132.5,0.125,49,132.0
2251,C5,132.75,0.125,90,132.0
2252,A4,132.75,0.125,70,132.0
2253,G2,132.75,0.125,49,132.0
2254,C3,132.75,0.125,49,132.0
2255,E3,132.75,0.125,49,132.0
2256,G3,132.75,0.125,49,132.0
2257,C4,132.75,0.125,49,132.0
2258,E4,132.75,0.125,49,132.0
2259,C5,133.0,0.125,90,132.0
2260,D2,133.0,0.125,70,132.0
2261,C#2,133.0,0.125,70,132.0
2262,A4,133.0,0.125,70,132.0
2263,G2,133.0,0.125,49,132.0
2264,C3,133.0,0.125,49,132.0
2265,E3,133.0,0.125,49,132.0
2266,G3,133.0,0.125,49,132.0
2267,C4,133.0,0.125,49,132.0
2268,E4,133.0,0.125,49,132.0
2269,E5,133.5,0.125,90,132.0
2270,C#2,133.5,0.125,70,132.0
2271,G2,133.5,0.5,49,132.0
2272,C3,133.5,0.5,49,132.0
2273,E3,133.5,0.5,49,132.0
2274,G3,133.5,0.5,49,132.0
2275,C4,133.5,0.5,49,132.0
2276,E4,133.5,0.5,49,132.0
2277,A5,134.0,2.0,88,132.0
2278,C5,134.0,0.5,100,132.0
2279,A2,134.0,2.0,90,132.0
2280,F5,134.0,0.125,90,132.0
2281,A4,134.0,2.0,65,132.0
2282,A4,134.0,0.125,70,132.0
2283,B1,134.0,0.125,50,132.0
2284,A2,134.0,0.5,49,132.0
2285,E3,134.0,0.5,49,132.0
2286,A3,134.0,0.5,49,132.0
2287,C4,134.0,0.5,49,132.0
2288,E4,134.0,0.5,49,132.0
2289,D5,134.5,0.5,100,132.0
2290,G5,134.5,0.125,90,132.0
2291,A4,134.5,0.125,70,132.0
2292,A2,134.5,0.25,49,132.0
2293,E3,134.5,0.25,49,132.0
2294,A3,134.5,0.25,49,132.0
2295,C4,134.5,0.25,49,132.0
2296,E4,134.5,0.25,49,132.0
2297,G5,135.0,0.125,90,132.0
2298,E2,135.0,0.125,70,132.0
2299,C#2,135.0,0.125,70,132.0
2300,A2,135.0,0.5,49,132.0
2301,E3,135.0,0.5,49,132.0
2302,A3,135.0,0.5,49,132.0
2303,C4,135.0,0.5,49,132.0
2304,E4,135.0,0.5,49,132.0
2305,G4,135.5,0.5,100,132.0
2306,F5,135.5,0.125,90,132.0
2307,A2,135.5,0.25,49,132.0
2308,E3,135.5,0.25,49,132.0
2309,A3,135.5,0.25,49,132.0
2310,C4,135.5,0.25,49,132.0
2311,E4,135.5,0.25,49,132.0
2312,D5,136.0,2.0,88,132.0
2313,A4,136.0,0.5,100,132.0
2314,D2,136.0,2.0,90,132.0
2315,G4,136.0,0.125,90,132.0
2316,D4,136.0,2.0,65,132.0
2317,A4,136.0,0.125,70,132.0
2318,B1,136.0,0.125,50,132.0
2319,A2,136.0,0.5,49,132.0
2320,D3,136.0,0.5,49,132.0
2321,A3,136.0,0.5,49,132.0
2322,D4,136.0,0.5,49,132.0
2323,F4,136.0,0.5,49,132.0
2324,C5,136.5,0.5,100,132.0
2325,G4,136.5,0.125,90,132.0
2326,A4,136.5,0.125,70,132.0
2327,A2,136.5,0.125,49,132.0
2328,D3,136.5,0.125,49,132.0
2329,A3,136.5,0.125,49,132.0
2330,D4,136.5,0.125,49,132.0
2331,F4,136.5,0.125,49,132.0
2332,A4,136.75,0.125,70,132.0
2333,A2,136.75,0.125,49,132.0
2334,D3,136.75,0.125,49,132.0
2335,A3,136.75,0.125,49,132.0
2336,D4,136.75,0.125,49,132.0
2337,F4,136.75,0.125,49,132.0
2338,C5,137.0,0.5,100,132.0
2339,D2,137.0,0.125,70,132.0
2340,C#2,137.0,0.125,70,132.0
2341,A4,137.0,0.125,70,132.0
2342,A2,137.0,0.125,49,132.0
2343,D3,137.0,0.125,49,132.0
2344,A3,137.0,0.125,49,132.0
2345,D4,137.0,0.125,49,132.0
2346,F4,137.0,0.125,49,132.0
2347,A4,137.5,0.5,100,132.0
2348,C#2,137.5,0.125,70,132.0
2349,A2,137.5,0.5,49,132.0
2350,D3,137.5,0.5,49,132.0
2351,A3,137.5,0.5,49,132.0
2352,D4,137.5,0.5,49,132.0
2353,F4,137.5,0.5,49,132.0
2354,E5,138.0,2.0,88,132.0
2355,C5,138.0,1.0,100,132.0
2356,G2,138.0,1.0,90,132.0
2357,E4,138.0,2.0,65,132.0
2358,A4,138.0,0.125,70,132.0
2359,B1,138.0,0.125,50,132.0
2360,A2,138.0,0.5,49,132.0
2361,D3,138.0,0.5,49,132.0
2362,A3,138.0,0.5,49,132.0
2363,D4,138.0,0.5,49,132.0
2364,F4,138.0,0.5,49,132.0
2365,A4,138.5,0.125,70,132.0
2366,A2,138.5,0.25,49,132.0
2367,D3,138.5,0.25,49,132.0
2368,A3,138.5,0.25,49,132.0
2369,D4,138.5,0.25,49,132.0
2370,F4,138.5,0.25,49,132.0
2371,D5,139.0,0.5,100,132.0
2372,E2,139.0,0.125,70,132.0
2373,C#2,139.0,0.125,70,132.0
2374,G2,139.0,0.5,49,132.0
2375,B2,139.0,0.5,49,132.0
2376,D3,139.0,0.5,49,132.0
2377,G3,139.0,0.5,49,132.0
2378,B3,139.0,0.5,49,132.0
2379,F4,139.0,0.5,49,132.0
2380,C5,139.5,0.5,100,132.0
2381,G2,139.5,0.25,49,132.0
2382,B2,139.5,0.25,49,132.0
2383,D3,139.5,0.25,49,132.0
2384,G3,139.5,0.25,49,132.0
2385,B3,139.5,0.25,49,132.0
2386,F4,139.5,0.25,49,132.0
2387,C5,140.0,2.0,88,132.0
2388,C5,140.0,2.0,100,132.0
2389,C2,140.0,2.0,90,132.0
2390,C5,140.0,0.125,90,132.0
2391,C4,140.0,2.0,65,132.0
2392,A4,140.0,0.125,70,132.0
2393,B1,140.0,0.125,50,132.0
2394,G2,140.0,0.5,49,132.0
2395,C3,140.0,0.5,49,132.0
2396,E3,140.0,0.5,49,132.0
2397,G3,140.0,0.5,49,132.0
2398,C4,140.0,0.5,49,132.0
2399,E4,140.0,0.5,49,132.0
2400,C5,140.5,0.125,90,132.0
2401,A4,140.5,0.125,70,132.0
2402,G2,140.5,0.125,49,132.0
2403,C3,140.5,0.125,49,132.0
2404,E3,140.5,0.125,49,132.0
2405,G3,140.5,0.125,49,132.0
2406,C4,140.5,0.125,49,132.0
2407,E4,140.5,0.125,49,132.0
2408,C5,140.75,0.125,90,132.0
2409,A4,140.75,0.125,70,132.0
2410,G2,140.75,0.125,49,132.0
2411,C3,140.75,0.125,49,132.0
2412,E3,140.75,0.125,49,132.0
2413,G3,140.75,0.125,49,132.0
2414,C4,140.75,0.125,49,132.0
2415,E4,140.75,0.125,49,132.0
2416,C5,141.0,0.125,90,132.0
2417,D2,141.0,0.125,70,132.0
2418,C#2,141.0,0.125,70,132.0
2419,A4,141.0,0.125,70,132.0
2420,G2,141.0,0.125,49,132.0
2421,C3,141.0,0.125,49,132.0
2422,E3,141.0,0.125,49,132.0
2423,G3,141.0,0.125,49,132.0
2424,C4,141.0,0.125,49,132.0
2425,E4,141.0,0.125,49,132.0
2426,E5,141.5,0.125,90,132.0
2427,C#2,141.5,0.125,70,132.0
2428,G2,141.5,0.5,49,132.0
2429,C3,141.5,0.5,49,132.0
2430,E3,141.5,0.5,49,132.0
2431,G3,141.5,0.5,49,132.0
2432,C4,141.5,0.5,49,132.0
2433,E4,141.5,0.5,49,132.0
2434,C3,142.0,2.0,90,132.0
2435,G5,142.0,0.125,90,132.0
2436,A4,142.0,0.125,70,132.0
2437,B1,142.0,0.125,50,132.0
2438,G2,142.0,0.5,49,132.0
2439,C3,142.0,0.5,49,132.0
2440,E3,142.0,0.5,49,132.0
2441,G3,142.0,0.5,49,132.0
2442,C4,142.0,0.5,49,132.0
2443,E4,142.0,0.5,49,132.0
2444,E5,142.5,0.125,90,132.0
2445,A4,142.5,0.125,70,132.0
2446,G2,142.5,0.25,49,132.0
2447,C3,142.5,0.25,49,132.0
2448,E3,142.5,0.25,49,132.0
2449,G3,142.5,0.25,49,132.0
2450,C4,142.5,0.25,49,132.0
2451,E4,142.5,0.25,49,132.0
2452,C5,143.0,0.125,90,132.0
2453,E2,143.0,0.125,70,132.0
2454,C#2,143.0,0.125,70,132.0
2455,G2,143.0,0.5,49,132.0
2456,C3,143.0,0.5,49,132.0
2457,E3,143.0,0.5,49,132.0
2458,G3,143.0,0.5,49,132.0
2459,C4,143.0,0.5,49,132.0
2460,E4,143.0,0.5,49,132.0
2461,A4,143.5,0.125,90,132.0
2462,G2,143.5,0.25,49,132.0
2463,C3,143.5,0.25,49,132.0
2464,E3,143.5,0.25,49,132.0
2465,G3,143.5,0.25,49,132.0
2466,C4,143.5,0.25,49,132.0
2467,E4,143.5,0.25,49,132.0
2468,C3,144.0,0.25,90,132.0
2469,C5,144.0,0.125,90,132.0
2470,D2,144.0,0.125,70,132.0
2471,C3,144.0,0.5,49,132.0
2472,E3,144.0,0.5,49,132.0
2473,B-3,144.0,0.5,49,132.0
2474,C4,144.0,0.5,49,132.0
2475,E4,144.0,0.5,49,132.0
2476,C3,144.5,0.25,90,132.0
2477,C5,144.5,0.125,90,132.0
2478,D2,144.5,0.125,70,132.0
2479,C3,144.5,0.125,49,132.0
2480,E3,144.5,0.125,49,132.0
2481,B-3,144.5,0.125,49,132.0
2482,C4,144.5,0.125,49,132.0
2483,E4,144.5,0.125,49,132.0
2484,C3,144.75,0.125,49,132.0
2485,E3,144.75,0.125,49,132.0
2486,B-3,144.75,0.125,49,132.0
2487,C4,144.75,0.125,49,132.0
2488,E4,144.75,0.125,49,132.0
2489,B-2,145.0,0.25,90,132.0
2490,B-4,145.0,0.125,90,132.0
2491,D2,145.0,0.125,70,132.0
2492,C3,145.0,0.125,49,132.0
2493,E3,145.0,0.125,49,132.0
2494,B-3,145.0,0.125,49,132.0
2495,C4,145.0,0.125,49,132.0
2496,E4,145.0,0.125,49,132.0
2497,B-2,145.5,0.25,90,132.0
2498,B-4,145.5,0.125,90,132.0
2499,D2,145.5,0.125,70,132.0
2500,C3,145.5,0.5,49,132.0
2501,E3,145.5,0.5,49,132.0
2502,B-3,145.5,0.5,49,132.0
2503,C4,145.5,0.5,49,132.0
2504,E4,145.5,0.5,49,132.0
2505,A2,146.0,0.25,90,132.0
2506,A4,146.0,0.125,90,132.0
2507,D2,146.0,0.125,70,132.0
2508,C3,146.0,0.5,49,132.0
2509,E3,146.0,0.5,49,132.0
2510,B-3,146.0,0.5,49,132.0
2511,C4,146.0,0.5,49,132.0
2512,E4,146.0,0.5,49,132.0
2513,A2,146.5,0.25,90,132.0
2514,A4,146.5,0.125,90,132.0
2515,D2,146.5,0.125,70,132.0
2516,C3,146.5,0.25,49,132.0
2517,E3,146.5,0.25,49,132.0
2518,B-3,146.5,0.25,49,132.0
2519,C4,146.5,0.25,49,132.0
2520,E4,146.5,0.25,49,132.0
2521,G2,147.0,0.25,90,132.0
2522,G4,147.0,0.125,90,132.0
2523,D2,147.0,0.125,70,132.0
2524,C3,147.0,0.5,49,132.0
2525,E3,147.0,0.5,49,132.0
2526,B-3,147.0,0.5,49,132.0
2527,C4,147.0,0.5,49,132.0
2528,E4,147.0,0.5,49,132.0
2529,G2,147.5,0.25,90,132.0
2530,G4,147.5,0.125,90,132.0
2531,D2,147.5,0.125,70,132.0
2532,C3,147.5,0.25,49,132.0
2533,E3,147.5,0.25,49,132.0
2534,B-3,147.5,0.25,49,132.0
2535,C4,147.5,0.25,49,132.0
2536,E4,147.5,0.25,49,132.0
2537,F2,148.0,2.0,90,132.0
2538,F4,148.0,0.125,90,132.0
2539,A4,148.0,0.125,70,132.0
2540,B1,148.0,0.125,50,132.0
2541,F2,148.0,0.5,49,132.0
2542,C3,148.0,0.5,49,132.0
2543,F3,148.0,0.5,49,132.0
2544,A3,148.0,0.5,49,132.0
2545,C4,148.0,0.5,49,132.0
2546,F4,148.0,0.5,49,132.0
2547,F4,148.5,0.125,90,132.0
2548,A4,148.5,0.125,70,132.0
2549,F2,148.5,0.125,49,132.0
2550,C3,148.5,0.125,49,132.0
2551,F3,148.5,0.125,49,132.0
2552,A3,148.5,0.125,49,132.0
2553,C4,148.5,0.125,49,132.0
2554,F4,148.5,0.125,49,132.0
2555,F4,148.75,0.125,90,132.0
2556,A4,148.75,0.125,70,132.0
2557,F2,148.75,0.125,49,132.0
2558,C3,148.75,0.125,49,132.0
2559,F3,148.75,0.125,49,132.0
2560,A3,148.75,0.125,49,132.0
2561,C4,148.75,0.125,49,132.0
2562,F4,148.75,0.125,49,132.0
2563,A4,149.0,1.0,100,132.0
2564,F4,149.0,0.125,90,132.0
2565,D2,149.0,0.125,70,132.0
2566,C#2,149.0,0.125,70,132.0
2567,A4,149.0,0.125,70,132.0
2568,F2,149.0,0.125,49,132.0
2569,C3,149.0,0.125,49,132.0
2570,F3,149.0,0.125,49,132.0
2571,A3,149.0,0.125,49,132.0
2572,C4,149.0,0.125,49,132.0
2573,F4,149.0,0.125,49,132.0
2574,A4,149.5,0.125,90,132.0
2575,C#2,149.5,0.125,70,132.0
2576,F2,149.5,0.5,49,132.0
2577,C3,149.5,0.5,49,132.0
2578,F3,149.5,0.5,49,132.0
2579,A3,149.5,0.5,49,132.0
2580,C4,149.5,0.5,49,132.0
2581,F4,149.5,0.5,49,132.0
2582,C5,150.0,1.0,100,132.0
2583,A2,150.0,1.0,90,132.0
2584,C5,150.0,0.125,90,132.0
2585,A4,150.0,0.125,70,132.0
2586,B1,150.0,0.125,50,132.0
2587,F2,150.0,0.5,49,132.0
2588,C3,150.0,0.5,49,132.0
2589,F3,150.0,0.5,49,132.0
2590,A3,150.0,0.5,49,132.0
2591,C4,150.0,0.5,49,132.0
2592,F4,150.0,0.5,49,132.0
2593,A4,150.5,0.125,90,132.0
2594,A4,150.5,0.125,70,132.0
2595,F2,150.5,0.25,49,132.0
2596,C3,150.5,0.25,49,132.0
2597,F3,150.5,0.25,49,132.0
2598,A3,150.5,0.25,49,132.0
2599,C4,150.5,0.25,49,132.0
2600,F4,150.5,0.25,49,132.0
2601,C3,151.0,1.0,90,132.0
2602,G4,151.0,0.125,90,132.0
2603,E2,151.0,0.125,70,132.0
2604,C#2,151.0,0.125,70,132.0
2605,F2,151.0,0.5,49,132.0
2606,C3,151.0,0.5,49,132.0
2607,F3,151.0,0.5,49,132.0
2608,A3,151.0,0.5,49,132.0
2609,C4,151.0,0.5,49,132.0
2610,F4,151.0,0.5,49,132.0
2611,A4,151.5,0.5,100,132.0
2612,F4,151.5,0.125,90,132.0
2613,F2,151.5,0.25,49,132.0
2614,C3,151.5,0.25,49,132.0
2615,F3,151.5,0.25,49,132.0
2616,A3,151.5,0.25,49,132.0
2617,C4,151.5,0.25,49,132.0
2618,F4,151.5,0.25,49,132.0
2619,C5,152.0,1.0,100,132.0
2620,F2,152.0,2.0,90,132.0
2621,F4,152.0,0.125,90,132.0
2622,A4,152.0,0.125,70,132.0
2623,B1,152.0,0.125,50,132.0
2624,F2,152.0,0.5,49,132.0
2625,C3,152.0,0.5,49,132.0
2626,F3,152.0,0.5,49,132.0
2627,A3,152.0,0.5,49,132.0
2628,C4,152.0,0.5,49,132.0
2629,F4,152.0,0.5,49,132.0
2630,F4,152.5,0.125,90,132.0
2631,A4,152.5,0.125,70,132.0
2632,F2,152.5,0.125,49,132.0
2633,C3,152.5,0.125,49,132.0
2634,F3,152.5,0.125,49,132.0
2635,A3,152.5,0.125,49,132.0
2636,C4,152.5,0.125,49,132.0
2637,F4,152.5,0.125,49,132.0
2638,F4,152.75,0.125,90,132.0
2639,A4,152.75,0.125,70,132.0
2640,F2,152.75,0.125,49,132.0
2641,C3,152.75,0.125,49,132.0
2642,F3,152.75,0.125,49,132.0
2643,A3,152.75,0.125,49,132.0
2644,C4,152.75,0.125,49,132.0
2645,F4,152.75,0.125,49,132.0
2646,D5,153.0,0.5,100,132.0
2647,F4,153.0,0.125,90,132.0
2648,D2,153.0,0.125,70,132.0
2649,C#2,153.0,0.125,70,132.0
2650,A4,153.0,0.125,70,132.0
2651,F2,153.0,0.125,49,132.0
2652,C3,153.0,0.125,49,132.0
2653,F3,153.0,0.125,49,132.0
2654,A3,153.0,0.125,49,132.0
2655,C4,153.0,0.125,49,132.0
2656,F4,153.0,0.125,49,132.0
2657,A4,153.375,0.125,90,132.0
2658,E-5,153.5,1.0,100,132.0
2659,C#2,153.5,0.125,70,132.0
2660,F2,153.5,0.5,49,132.0
2661,C3,153.5,0.5,49,132.0
2662,F3,153.5,0.5,49,132.0
2663,A3,153.5,0.5,49,132.0
2664,C4,153.5,0.5,49,132.0
2665,F4,153.5,0.5,49,132.0
2666,A2,154.0,1.0,90,132.0
2667,C5,154.0,0.125,90,132.0
2668,A4,154.0,0.125,70,132.0
2669,B1,154.0,0.125,50,132.0
2670,F2,154.0,0.5,49,132.0
2671,C3,154.0,0.5,49,132.0
2672,F3,154.0,0.5,49,132.0
2673,A3,154.0,0.5,49,132.0
2674,C4,154.0,0.5,49,132.0
2675,F4,154.0,0.5,49,132.0
2676,C5,154.5,1.0,100,132.0
2677,A4,154.5,0.125,90,132.0
2678,A4,154.5,0.125,70,132.0
2679,F2,154.5,0.25,49,132.0
2680,C3,154.5,0.25,49,132.0
2681,F3,154.5,0.25,49,132.0
2682,A3,154.5,0.25,49,132.0
2683,C4,154.5,0.25,49,132.0
2684,F4,154.5,0.25,49,132.0
2685,C3,155.0,1.0,90,132.0
2686,G4,155.0,0.125,90,132.0
2687,E2,155.0,0.125,70,132.0
2688,C#2,155.0,0.125,70,132.0
2689,F2,155.0,0.5,49,132.0
2690,C3,155.0,0.5,49,132.0
2691,F3,155.0,0.5,49,132.0
2692,A3,155.0,0.5,49,132.0
2693,C4,155.0,0.5,49,132.0
2694,F4,155.0,0.5,49,132.0
2695,F4,155.5,0.125,90,132.0
2696,F2,155.5,0.25,49,132.0
2697,C3,155.5,0.25,49,132.0
2698,F3,155.5,0.25,49,132.0
2699,A3,155.5,0.25,49,132.0
2700,C4,155.5,0.25,49,132.0
2701,F4,155.5,0.25,49,132.0
2702,C2,156.0,2.0,90,132.0
2703,G4,156.0,0.125,90,132.0
2704,A4,156.0,0.125,70,132.0
2705,B1,156.0,0.125,50,132.0
2706,G2,156.0,0.5,49,132.0
2707,C3,156.0,0.5,49,132.0
2708,E3,156.0,0.5,49,132.0
2709,G3,156.0,0.5,49,132.0
2710,C4,156.0,0.5,49,132.0
2711,E4,156.0,0.5,49,132.0
2712,G4,156.5,0.125,90,132.0
2713,A4,156.5,0.125,70,132.0
2714,G2,156.5,0.125,49,132.0
2715,C3,156.5,0.125,49,132.0
2716,E3,156.5,0.125,49,132.0
2717,G3,156.5,0.125,49,132.0
2718,C4,156.5,0.125,49,132.0
2719,E4,156.5,0.125,49,132.0
2720,G4,156.75,0.125,90,132.0
2721,A4,156.75,0.125,70,132.0
2722,G2,156.75,0.125,49,132.0
2723,C3,156.75,0.125,49,132.0
2724,E3,156.75,0.125,49,132.0
2725,G3,156.75,0.125,49,132.0
2726,C4,156.75,0.125,49,132.0
2727,E4,156.75,0.125,49,132.0
2728,G4,157.0,0.75,100,132.0
2729,G4,157.0,0.125,90,132.0
2730,D2,157.0,0.125,70,132.0
2731,C#2,157.0,0.125,70,132.0
2732,A4,157.0,0.125,70,132.0
2733,G2,157.0,0.125,49,132.0
2734,C3,157.0,0.125,49,132.0
2735,E3,157.0,0.125,49,132.0
2736,G3,157.0,0.125,49,132.0
2737,C4,157.0,0.125,49,132.0
2738,E4,157.0,0.125,49,132.0
2739,C5,157.5,0.125,90,132.0
2740,C#2,157.5,0.125,70,132.0
2741,G2,157.5,0.5,49,132.0
2742,C3,157.5,0.5,49,132.0
2743,E3,157.5,0.5,49,132.0
2744,G3,157.5,0.5,49,132.0
2745,C4,157.5,0.5,49,132.0
2746,E4,157.5,0.5,49,132.0
2747,G4,158.0,0.75,100,132.0
2748,E2,158.0,1.0,90,132.0
2749,E5,158.0,0.125,90,132.0
2750,A4,158.0,0.125,70,132.0
2751,B1,158.0,0.125,50,132.0
2752,G2,158.0,0.5,49,132.0
2753,C3,158.0,0.5,49,132.0
2754,E3,158.0,0.5,49,132.0
2755,G3,158.0,0.5,49,132.0
2756,C4,158.0,0.5,49,132.0
2757,E4,158.0,0.5,49,132.0
2758,C5,158.5,0.125,90,132.0
2759,A4,158.5,0.125,70,132.0
2760,G2,158.5,0.25,49,132.0
2761,C3,158.5,0.25,49,132.0
2762,E3,158.5,0.25,49,132.0
2763,G3,158.5,0.25,49,132.0
2764,C4,158.5,0.25,49,132.0
2765,E4,158.5,0.25,49,132.0
2766,G4,159.0,1.0,100,132.0
2767,G2,159.0,1.0,90,132.0
2768,A4,159.0,0.125,90,132.0
2769,E2,159.0,0.125,70,132.0
2770,C#2,159.0,0.125,70,132.0
2771,G2,159.0,0.5,49,132.0
2772,C3,159.0,0.5,49,132.0
2773,E3,159.0,0.5,49,132.0
2774,G3,159.0,0.5,49,132.0
2775,C4,159.0,0.5,49,132.0
2776,E4,159.0,0.5,49,132.0
2777,G4,159.5,0.125,90,132.0
2778,G2,159.5,0.25,49,132.0
2779,C3,159.5,0.25,49,132.0
2780,E3,159.5,0.25,49,132.0
2781,G3,159.5,0.25,49,132.0
2782,C4,159.5,0.25,49,132.0
2783,E4,159.5,0.25,49,132.0
2784,A4,160.0,0.5,100,132.0
2785,C2,160.0,2.0,90,132.0
2786,G4,160.0,0.125,90,132.0
2787,A4,160.0,0.125,70,132.0
2788,B1,160.0,0.125,50,132.0
2789,G2,160.0,0.5,49,132.0
2790,C3,160.0,0.5,49,132.0
2791,E3,160.0,0.5,49,132.0
2792,G3,160.0,0.5,49,132.0
2793,C4,160.0,0.5,49,132.0
2794,E4,160.0,0.5,49,132.0
2795,C5,160.5,1.0,100,132.0
2796,G4,160.5,0.125,90,132.0
2797,A4,160.5,0.125,70,132.0
2798,G2,160.5,0.125,49,132.0
2799,C3,160.5,0.125,49,132.0
2800,E3,160.5,0.125,49,132.0
2801,G3,160.5,0.125,49,132.0
2802,C4,160.5,0.125,49,132.0
2803,E4,160.5,0.125,49,132.0
2804,G4,160.75,0.125,90,132.0
2805,A4,160.75,0.125,70,132.0
2806,G2,160.75,0.125,49,132.0
2807,C3,160.75,0.125,49,132.0
2808,E3,160.75,0.125,49,132.0
2809,G3,160.75,0.125,49,132.0
2810,C4,160.75,0.125,49,132.0
2811,E4,160.75,0.125,49,132.0
2812,G4,161.0,0.125,90,132.0
2813,D2,161.0,0.125,70,132.0
2814,C#2,161.0,0.125,70,132.0
2815,A4,161.0,0.125,70,132.0
2816,G2,161.0,0.125,49,132.0
2817,C3,161.0,0.125,49,132.0
2818,E3,161.0,0.125,49,132.0
2819,G3,161.0,0.125,49,132.0
2820,C4,161.0,0.125,49,132.0
2821,E4,161.0,0.125,49,132.0
2822,A4,161.5,0.5,100,132.0
2823,C5,161.5,0.125,90,132.0
2824,C#2,161.5,0.125,70,132.0
2825,G2,161.5,0.5,49,132.0
2826,C3,161.5,0.5,49,132.0
2827,E3,161.5,0.5,49,132.0
2828,G3,161.5,0.5,49,132.0
2829,C4,161.5,0.5,49,132.0
2830,E4,161.5,0.5,49,132.0
2831,G4,162.0,1.0,100,132.0
2832,E2,162.0,1.0,90,132.0
2833,E5,162.0,0.125,90,132.0
2834,A4,162.0,0.125,70,132.0
2835,B1,162.0,0.125,50,132.0
2836,G2,162.0,0.5,49,132.0
2837,C3,162.0,0.5,49,132.0
2838,E3,162.0,0.5,49,132.0
2839,G3,162.0,0.5,49,132.0
2840,C4,162.0,0.5,49,132.0
2841,E4,162.0,0.5,49,132.0
2842,C5,162.5,0.125,90,132.0
2843,A4,162.5,0.125,70,132.0
2844,G2,162.5,0.25,49,132.0
2845,C3,162.5,0.25,49,132.0
2846,E3,162.5,0.25,49,132.0
2847,G3,162.5,0.25,49,132.0
2848,C4,162.5,0.25,49,132.0
2849,E4,162.5,0.25,49,132.0
2850,G2,163.0,1.0,90,132.0
2851,A4,163.0,0.125,90,132.0
2852,E2,163.0,0.125,70,132.0
2853,C#2,163.0,0.125,70,132.0
2854,G2,163.0,0.5,49,132.0
2855,C3,163.0,0.5,49,132.0
2856,E3,163.0,0.5,49,132.0
2857,G3,163.0,0.5,49,132.0
2858,C4,163.0,0.5,49,132.0
2859,E4,163.0,0.5,49,132.0
2860,G4,163.5,0.125,90,132.0
2861,G2,163.5,0.25,49,132.0
2862,C3,163.5,0.25,49,132.0
2863,E3,163.5,0.25,49,132.0
2864,G3,163.5,0.25,49,132.0
2865,C4,163.5,0.25,49,132.0
2866,E4,163.5,0.25,49,132.0
2867,D2,164.0,2.0,90,132.0
2868,D4,164.0,0.125,90,132.0
2869,A4,164.0,0.125,70,132.0
2870,B1,164.0,0.125,50,132.0
2871,D3,164.0,0.5,49,132.0
2872,A3,164.0,0.5,49,132.0
2873,C4,164.0,0.5,49,132.0
2874,F#4,164.0,0.5,49,132.0
2875,D4,164.5,0.125,90,132.0
2876,A4,164.5,0.125,70,132.0
2877,D3,164.5,0.125,49,132.0
2878,A3,164.5,0.125,49,132.0
2879,C4,164.5,0.125,49,132.0
2880,F#4,164.5,0.125,49,132.0
2881,D4,164.75,0.125,90,132.0
2882,A4,164.75,0.125,70,132.0
2883,D3,164.75,0.125,49,132.0
2884,A3,164.75,0.125,49,132.0
2885,C4,164.75,0.125,49,132.0
2886,F#4,164.75,0.125,49,132.0
2887,A4,165.0,1.0,100,132.0
2888,D4,165.0,0.125,90,132.0
2889,D2,165.0,0.125,70,132.0
2890,C#2,165.0,0.125,70,132.0
2891,A4,165.0,0.125,70,132.0
2892,D3,165.0,0.125,49,132.0
2893,A3,165.0,0.125,49,132.0
2894,C4,165.0,0.125,49,132.0
2895,F#4,165.0,0.125,49,132.0
2896,F4,165.5,0.125,90,132.0
2897,C#2,165.5,0.125,70,132.0
2898,D3,165.5,0.5,49,132.0
2899,A3,165.5,0.5,49,132.0
2900,C4,165.5,0.5,49,132.0
2901,F#4,165.5,0.5,49,132.0
2902,C5,166.0,1.0,100,132.0
2903,F2,166.0,1.0,90,132.0
2904,A4,166.0,0.125,90,132.0
2905,A4,166.0,0.125,70,132.0
2906,B1,166.0,0.125,50,132.0
2907,D3,166.0,0.5,49,132.0
2908,A3,166.0,0.5,49,132.0
2909,C4,166.0,0.5,49,132.0
2910,F#4,166.0,0.5,49,132.0
2911,F4,166.5,0.125,90,132.0
2912,A4,166.5,0.125,70,132.0
2913,D3,166.5,0.25,49,132.0
2914,A3,166.5,0.25,49,132.0
2915,C4,166.5,0.25,49,132.0
2916,F#4,166.5,0.25,49,132.0
2917,A2,167.0,1.0,90,132.0
2918,E4,167.0,0.125,90,132.0
2919,E2,167.0,0.125,70,132.0
2920,C#2,167.0,0.125,70,132.0
2921,D3,167.0,0.5,49,132.0
2922,A3,167.0,0.5,49,132.0
2923,C4,167.0,0.5,49,132.0
2924,F#4,167.0,0.5,49,132.0
2925,A4,167.5,0.5,100,132.0
2926,D4,167.5,0.125,90,132.0
2927,D3,167.5,0.25,49,132.0
2928,A3,167.5,0.25,49,132.0
2929,C4,167.5,0.25,49,132.0
2930,F#4,167.5,0.25,49,132.0
2931,E5,168.0,1.0,100,132.0
2932,D2,168.0,2.0,90,132.0
2933,D4,168.0,0.125,90,132.0
2934,A4,168.0,0.125,70,132.0
2935,B1,168.0,0.125,50,132.0
2936,D3,168.0,0.5,49,132.0
2937,A3,168.0,0.5,49,132.0
2938,C4,168.0,0.5,49,132.0
2939,F#4,168.0,0.5,49,132.0
2940,D4,168.5,0.125,90,132.0
2941,A4,168.5,0.125,70,132.0
2942,D3,168.5,0.125,49,132.0
2943,A3,168.5,0.125,49,132.0
2944,C4,168.5,0.125,49,132.0
2945,F#4,168.5,0.125,49,132.0
2946,D4,168.75,0.125,90,132.0
2947,A4,168.75,0.125,70,132.0
2948,D3,168.75,0.125,49,132.0
2949,A3,168.75,0.125,49,132.0
2950,C4,168.75,0.125,49,132.0
2951,F#4,168.75,0.125,49,132.0
2952,E5,169.0,0.5,100,132.0
2953,D4,169.0,0.125,90,132.0
2954,D2,169.0,0.125,70,132.0
2955,C#2,169.0,0.125,70,132.0
2956,A4,169.0,0.125,70,132.0
2957,D3,169.0,0.125,49,132.0
2958,A3,169.0,0.125,49,132.0
2959,C4,169.0,0.125,49,132.0
2960,F#4,169.0,0.125,49,132.0
2961,D5,169.5,1.0,100,132.0
2962,B4,169.5,0.125,90,132.0
2963,C#2,169.5,0.125,70,132.0
2964,D3,169.5,0.5,49,132.0
2965,A3,169.5,0.5,49,132.0
2966,C4,169.5,0.5,49,132.0
2967,F#4,169.5,0.5,49,132.0
2968,F2,170.0,1.0,90,132.0
2969,D5,170.0,0.125,90,132.0
2970,A4,170.0,0.125,70,132.0
2971,B1,170.0,0.125,50,132.0
2972,D3,170.0,0.5,49,132.0
2973,A3,170.0,0.5,49,132.0
2974,C4,170.0,0.5,49,132.0
2975,F#4,170.0,0.5,49,132.0
2976,C5,170.5,1.0,100,132.0
2977,B4,170.5,0.125,90,132.0
2978,A4,170.5,0.125,70,132.0
2979,D3,170.5,0.25,49,132.0
2980,A3,170.5,0.25,49,132.0
2981,C4,170.5,0.25,49,132.0
2982,F#4,170.5,0.25,49,132.0
2983,A2,171.0,1.0,90,132.0
2984,A4,171.0,0.125,90,132.0
2985,E2,171.0,0.125,70,132.0
2986,C#2,171.0,0.125,70,132.0
2987,D3,171.0,0.5,49,132.0
2988,A3,171.0,0.5,49,132.0
2989,C4,171.0,0.5,49,132.0
2990,F#4,171.0,0.5,49,132.0
2991,G4,171.5,0.125,90,132.0
2992,D3,171.5,0.25,49,132.0
2993,A3,171.5,0.25,49,132.0
2994,C4,171.5,0.25,49,132.0
2995,F#4,171.5,0.25,49,132.0
2996,G2,172.0,0.5,90,132.0
2997,E2,172.0,0.125,70,132.0
2998,G2,172.0,0.5,49,132.0
2999,B2,172.0,0.5,49,132.0
3000,D3,172.0,0.5,49,132.0
3001,G3,172.0,0.5,49,132.0
3002,B3,172.0,0.5,49,132.0
3003,F4,172.0,0.5,49,132.0
3004,D5,173.0,1.0,100,132.0
3005,D5,174.0,1.0,100,132.0
3006,E5,175.0,1.0,100,132.0
3007,F5,176.0,1.0,100,132.0
3008,G2,176.0,0.25,90,132.0
3009,G5,176.0,0.125,90,132.0
3010,D2,176.0,0.125,70,132.0
3011,G2,176.0,0.25,49,132.0
3012,B2,176.0,0.25,49,132.0
3013,D3,176.0,0.25,49,132.0
3014,G3,176.0,0.25,49,132.0
3015,B3,176.0,0.25,49,132.0
3016,F4,176.0,0.25,49,132.0
3017,G2,176.5,0.25,90,132.0
3018,G5,176.5,0.125,90,132.0
3019,D2,176.5,0.125,70,132.0
3020,G2,176.5,0.25,49,132.0
3021,B2,176.5,0.25,49,132.0
3022,D3,176.5,0.25,49,132.0
3023,G3,176.5,0.25,49,132.0
3024,B3,176.5,0.25,49,132.0
3025,F4,176.5,0.25,49,132.0
3026,E5,177.0,0.5,100,132.0
3027,F2,177.0,0.25,90,132.0
3028,F5,177.0,0.125,90,132.0
3029,D2,177.0,0.125,70,132.0
3030,F2,177.0,0.25,49,132.0
3031,C3,177.0,0.25,49,132.0
3032,F3,177.0,0.25,49,132.0
3033,A3,177.0,0.25,49,132.0
3034,C4,177.0,0.25,49,132.0
3035,F4,177.0,0.25,49,132.0
3036,D5,177.5,2.0,100,132.0
3037,F2,177.5,0.25,90,132.0
3038,F5,177.5,0.125,90,132.0
3039,D2,177.5,0.125,70,132.0
3040,F2,177.5,0.25,49,132.0
3041,C3,177.5,0.25,49,132.0
3042,F3,177.5,0.25,49,132.0
3043,A3,177.5,0.25,49,132.0
3044,C4,177.5,0.25,49,132.0
3045,F4,177.5,0.25,49,132.0
3046,E2,178.0,0.25,90,132.0
3047,E5,178.0,0.125,90,132.0
3048,D2,178.0,0.125,70,132.0
3049,A2,178.0,0.25,49,132.0
3050,E3,178.0,0.25,49,132.0
3051,A3,178.0,0.25,49,132.0
3052,C4,178.0,0.25,49,132.0
3053,E4,178.0,0.25,49,132.0
3054,E2,178.5,0.25,90,132.0
3055,E5,178.5,0.125,90,132.0
3056,D2,178.5,0.125,70,132.0
3057,A2,178.5,0.25,49,132.0
3058,E3,178.5,0.25,49,132.0
3059,A3,178.5,0.25,49,132.0
3060,C4,178.5,0.25,49,132.0
3061,E4,178.5,0.25,49,132.0
3062,D2,179.0,0.25,90,132.0
3063,D5,179.0,0.125,90,132.0
3064,D2,179.0,0.125,70,132.0
3065,A2,179.0,0.25,49,132.0
3066,D3,179.0,0.25,49,132.0
3067,A3,179.0,0.25,49,132.0
3068,D4,179.0,0.25,49,132.0
3069,F4,179.0,0.25,49,132.0
3070,D2,179.5,0.25,90,132.0
3071,D5,179.5,0.125,90,132.0
3072,D2,179.5,0.125,70,132.0
3073,A2,179.5,0.25,49,132.0
3074,D3,179.5,0.25,49,132.0
3075,A3,179.5,0.25,49,132.0
3076,D4,179.5,0.25,49,132.0
3077,F4,179.5,0.25,49,132.0
3078,C2,180.0,2.0,90,132.0
3079,C5,180.0,0.125,90,132.0
3080,A4,180.0,0.125,70,132.0
3081,B1,180.0,0.125,50,132.0
3082,G2,180.0,0.5,49,132.0
3083,C3,180.0,0.5,49,132.0
3084,E3,180.0,0.5,49,132.0
3085,G3,180.0,0.5,49,132.0
3086,C4,180.0,0.5,49,132.0
3087,E4,180.0,0.5,49,132.0
3088,C5,180.5,0.125,90,132.0
3089,A4,180.5,0.125,70,132.0
3090,G2,180.5,0.125,49,132.0
3091,C3,180.5,0.125,49,132.0
3092,E3,180.5,0.125,49,132.0
3093,G3,180.5,0.125,49,132.0
3094,C4,180.5,0.125,49,132.0
3095,E4,180.5,0.125,49,132.0
3096,C5,180.75,0.125,90,132.0
3097,A4,180.75,0.125,70,132.0
3098,G2,180.75,0.125,49,132.0
3099,C3,180.75,0.125,49,132.0
3100,E3,180.75,0.125,49,132.0
3101,G3,180.75,0.125,49,132.0
3102,C4,180.75,0.125,49,132.0
3103,E4,180.75,0.125,49,132.0
3104,C5,181.0,1.0,100,132.0
3105,C5,181.0,0.125,90,132.0
3106,D2,181.0,0.125,70,132.0
3107,C#2,181.0,0.125,70,132.0
3108,A4,181.0,0.125,70,132.0
3109,G2,181.0,0.125,49,132.0
3110,C3,181.0,0.125,49,132.0
3111,E3,181.0,0.125,49,132.0
3112,G3,181.0,0.125,49,132.0
3113,C4,181.0,0.125,49,132.0
3114,E4,181.0,0.125,49,132.0
3115,E5,181.5,0.125,90,132.0
3116,C#2,181.5,0.125,70,132.0
3117,G2,181.5,0.5,49,132.0
3118,C3,181.5,0.5,49,132.0
3119,E3,181.5,0.5,49,132.0
3120,G3,181.5,0.5,49,132.0
3121,C4,181.5,0.5,49,132.0
3122,E4,181.5,0.5,49,132.0
3123,C5,182.0,0.5,100,132.0
3124,E2,182.0,1.0,90,132.0
3125,G5,182.0,0.125,90,132.0
3126,A4,182.0,0.125,70,132.0
3127,B1,182.0,0.125,50,132.0
3128,G2,182.0,0.5,49,132.0
3129,C3,182.0,0.5,49,132.0
3130,E3,182.0,0.5,49,132.0
3131,G3,182.0,0.5,49,132.0
3132,C4,182.0,0.5,49,132.0
3133,E4,182.0,0.5,49,132.0
3134,C5,182.5,0.5,100,132.0
3135,E5,182.5,0.125,90,132.0
3136,A4,182.5,0.125,70,132.0
3137,G2,182.5,0.25,49,132.0
3138,C3,182.5,0.25,49,132.0
3139,E3,182.5,0.25,49,132.0
3140,G3,182.5,0.25,49,132.0
3141,C4,182.5,0.25,49,132.0
3142,E4,182.5,0.25,49,132.0
3143,G2,183.0,1.0,90,132.0
3144,C5,183.0,0.125,90,132.0
3145,E2,183.0,0.125,70,132.0
3146,C#2,183.0,0.125,70,132.0
3147,G2,183.0,0.5,49,132.0
3148,C3,183.0,0.5,49,132.0
3149,E3,183.0,0.5,49,132.0
3150,G3,183.0,0.5,49,132.0
3151,C4,183.0,0.5,49,132.0
3152,E4,183.0,0.5,49,132.0
3153,A4,183.5,0.125,90,132.0
3154,G2,183.5,0.25,49,132.0
3155,C3,183.5,0.25,49,132.0
3156,E3,183.5,0.25,49,132.0
3157,G3,183.5,0.25,49,132.0
3158,C4,183.5,0.25,49,132.0
3159,E4,183.5,0.25,49,132.0
3160,C5,184.0,0.5,100,132.0
3161,C2,184.0,2.0,90,132.0
3162,C5,184.0,0.125,90,132.0
3163,A4,184.0,0.125,70,132.0
3164,B1,184.0,0.125,50,132.0
3165,G2,184.0,0.5,49,132.0
3166,C3,184.0,0.5,49,132.0
3167,E3,184.0,0.5,49,132.0
3168,G3,184.0,0.5,49,132.0
3169,C4,184.0,0.5,49,132.0
3170,E4,184.0,0.5,49,132.0
3171,D5,184.5,1.0,100,132.0
3172,C5,184.5,0.125,90,132.0
3173,A4,184.5,0.125,70,132.0
3174,G2,184.5,0.125,49,132.0
3175,C3,184.5,0.125,49,132.0
3176,E3,184.5,0.125,49,132.0
3177,G3,184.5,0.125,49,132.0
3178,C4,184.5,0.125,49,132.0
3179,E4,184.5,0.125,49,132.0
3180,C5,184.75,0.125,90,132.0
3181,A4,184.75,0.125,70,132.0
3182,G2,184.75,0.125,49,132.0
3183,C3,184.75,0.125,49,132.0
3184,E3,184.75,0.125,49,132.0
3185,G3,184.75,0.125,49,132.0
3186,C4,184.75,0.125,49,132.0
3187,E4,184.75,0.125,49,132.0
3188,C5,185.0,0.125,90,132.0
3189,D2,185.0,0.125,70,132.0
3190,C#2,185.0,0.125,70,132.0
3191,A4,185.0,0.125,70,132.0
3192,G2,185.0,0.125,49,132.0
3193,C3,185.0,0.125,49,132.0
3194,E3,185.0,0.125,49,132.0
3195,G3,185.0,0.125,49,132.0
3196,C4,185.0,0.125,49,132.0
3197,E4,185.0,0.125,49,132.0
3198,E5,185.5,0.5,100,132.0
3199,E5,185.5,0.125,90,132.0
3200,C#2,185.5,0.125,70,132.0
3201,G2,185.5,0.5,49,132.0
3202,C3,185.5,0.5,49,132.0
3203,E3,185.5,0.5,49,132.0
3204,G3,185.5,0.5,49,132.0
3205,C4,185.5,0.5,49,132.0
3206,E4,185.5,0.5,49,132.0
3207,D5,186.0,0.5,100,132.0
3208,E2,186.0,1.0,90,132.0
3209,G5,186.0,0.125,90,132.0
3210,A4,186.0,0.125,70,132.0
3211,B1,186.0,0.125,50,132.0
3212,G2,186.0,0.5,49,132.0
3213,C3,186.0,0.5,49,132.0
3214,E3,186.0,0.5,49,132.0
3215,G3,186.0,0.5,49,132.0
3216,C4,186.0,0.5,49,132.0
3217,E4,186.0,0.5,49,132.0
3218,C5,186.5,0.75,100,132.0
3219,E5,186.5,0.125,90,132.0
3220,A4,186.5,0.125,70,132.0
3221,G2,186.5,0.25,49,132.0
3222,C3,186.5,0.25,49,132.0
3223,E3,186.5,0.25,49,132.0
3224,G3,186.5,0.25,49,132.0
3225,C4,186.5,0.25,49,132.0
3226,E4,186.5,0.25,49,132.0
3227,G2,187.0,1.0,90,132.0
3228,C5,187.0,0.125,90,132.0
3229,E2,187.0,0.125,70,132.0
3230,C#2,187.0,0.125,70,132.0
3231,G2,187.0,0.5,49,132.0
3232,C3,187.0,0.5,49,132.0
3233,E3,187.0,0.5,49,132.0
3234,G3,187.0,0.5,49,132.0
3235,C4,187.0,0.5,49,132.0
3236,E4,187.0,0.5,49,132.0
3237,A4,187.5,0.125,90,132.0
3238,G2,187.5,0.25,49,132.0
3239,C3,187.5,0.25,49,132.0
3240,E3,187.5,0.25,49,132.0
3241,G3,187.5,0.25,49,132.0
3242,C4,187.5,0.25,49,132.0
3243,E4,187.5,0.25,49,132.0
3244,A2,188.0,2.0,90,132.0
3245,A4,188.0,0.125,90,132.0
3246,A4,188.0,0.125,70,132.0
3247,B1,188.0,0.125,50,132.0
3248,A2,188.0,0.5,49,132.0
3249,E3,188.0,0.5,49,132.0
3250,A3,188.0,0.5,49,132.0
3251,C4,188.0,0.5,49,132.0
3252,E4,188.0,0.5,49,132.0
3253,A4,188.5,0.5,100,132.0
3254,A4,188.5,0.125,90,132.0
3255,A4,188.5,0.125,70,132.0
3256,A2,188.5,0.125,49,132.0
3257,E3,188.5,0.125,49,132.0
3258,A3,188.5,0.125,49,132.0
3259,C4,188.5,0.125,49,132.0
3260,E4,188.5,0.125,49,132.0
3261,A4,188.75,0.125,90,132.0
3262,A4,188.75,0.125,70,132.0
3263,A2,188.75,0.125,49,132.0
3264,E3,188.75,0.125,49,132.0
3265,A3,188.75,0.125,49,132.0
3266,C4,188.75,0.125,49,132.0
3267,E4,188.75,0.125,49,132.0
3268,A4,189.0,0.5,100,132.0
3269,A4,189.0,0.125,90,132.0
3270,D2,189.0,0.125,70,132.0
3271,C#2,189.0,0.125,70,132.0
3272,A4,189.0,0.125,70,132.0
3273,A2,189.0,0.125,49,132.0
3274,E3,189.0,0.125,49,132.0
3275,A3,189.0,0.125,49,132.0
3276,C4,189.0,0.125,49,132.0
3277,E4,189.0,0.125,49,132.0
3278,G4,189.5,0.5,100,132.0
3279,C5,189.5,0.125,90,132.0
3280,C#2,189.5,0.125,70,132.0
3281,A2,189.5,0.5,49,132.0
3282,E3,189.5,0.5,49,132.0
3283,A3,189.5,0.5,49,132.0
3284,C4,189.5,0.5,49,132.0
3285,E4,189.5,0.5,49,132.0
3286,A4,190.0,0.75,100,132.0
3287,E2,190.0,1.0,90,132.0
3288,E5,190.0,0.125,90,132.0
3289,A4,190.0,0.125,70,132.0
3290,B1,190.0,0.125,50,132.0
3291,A2,190.0,0.5,49,132.0
3292,E3,190.0,0.5,49,132.0
3293,A3,190.0,0.5,49,132.0
3294,C4,190.0,0.5,49,132.0
3295,E4,190.0,0.5,49,132.0
3296,C5,190.5,0.125,90,132.0
3297,A4,190.5,0.125,70,132.0
3298,A2,190.5,0.25,49,132.0
3299,E3,190.5,0.25,49,132.0
3300,A3,190.5,0.25,49,132.0
3301,C4,190.5,0.25,49,132.0
3302,E4,190.5,0.25,49,132.0
3303,G2,191.0,1.0,90,132.0
3304,A4,191.0,0.125,90,132.0
3305,E2,191.0,0.125,70,132.0
3306,C#2,191.0,0.125,70,132.0
3307,A2,191.0,0.5,49,132.0
3308,E3,191.0,0.5,49,132.0
3309,A3,191.0,0.5,49,132.0
3310,C4,191.0,0.5,49,132.0
3311,E4,191.0,0.5,49,132.0
3312,G4,191.5,0.5,100,132.0
3313,G4,191.5,0.125,90,132.0
3314,A2,191.5,0.25,49,132.0
3315,E3,191.5,0.25,49,132.0
3316,A3,191.5,0.25,49,132.0
3317,C4,191.5,0.25,49,132.0
3318,E4,191.5,0.25,49,132.0
3319,A4,192.0,0.5,100,132.0
3320,A2,192.0,2.0,90,132.0
3321,A4,192.0,0.125,90,132.0
3322,A4,192.0,0.125,70,132.0
3323,B1,192.0,0.125,50,132.0
3324,A2,192.0,0.5,49,132.0
3325,E3,192.0,0.5,49,132.0
3326,A3,192.0,0.5,49,132.0
3327,C4,192.0,0.5,49,132.0
3328,E4,192.0,0.5,49,132.0
3329,C5,192.5,1.0,100,132.0
3330,A4,192.5,0.125,90,132.0
3331,A4,192.5,0.125,70,132.0
3332,A2,192.5,0.125,49,132.0
3333,E3,192.5,0.125,49,132.0
3334,A3,192.5,0.125,49,132.0
3335,C4,192.5,0.125,49,132.0
3336,E4,192.5,0.125,49,132.0
3337,A4,192.75,0.125,90,132.0
3338,A4,192.75,0.125,70,132.0
3339,A2,192.75,0.125,49,132.0
3340,E3,192.75,0.125,49,132.0
3341,A3,192.75,0.125,49,132.0
3342,C4,192.75,0.125,49,132.0
3343,E4,192.75,0.125,49,132.0
3344,A4,193.0,0.125,90,132.0
3345,D2,193.0,0.125,70,132.0
3346,C#2,193.0,0.125,70,132.0
3347,A4,193.0,0.125,70,132.0
3348,A2,193.0,0.125,49,132.0
3349,E3,193.0,0.125,49,132.0
3350,A3,193.0,0.125,49,132.0
3351,C4,193.0,0.125,49,132.0
3352,E4,193.0,0.125,49,132.0
3353,A4,193.5,1.5,100,132.0
3354,C5,193.5,0.125,90,132.0
3355,C#2,193.5,0.125,70,132.0
3356,A2,193.5,0.5,49,132.0
3357,E3,193.5,0.5,49,132.0
3358,A3,193.5,0.5,49,132.0
3359,C4,193.5,0.5,49,132.0
3360,E4,193.5,0.5,49,132.0
3361,E2,194.0,1.0,90,132.0
3362,E5,194.0,0.125,90,132.0
3363,A3,194.0,0.5,80,132.0
3364,A4,194.0,0.125,70,132.0
3365,B1,194.0,0.125,50,132.0
3366,A2,194.0,0.5,49,132.0
3367,E3,194.0,0.5,49,132.0
3368,A3,194.0,0.5,49,132.0
3369,C4,194.0,0.5,49,132.0
3370,E4,194.0,0.5,49,132.0
3371,C5,194.5,0.125,90,132.0
3372,G3,194.5,0.5,80,132.0
3373,A4,194.5,0.125,70,132.0
3374,A2,194.5,0.25,49,132.0
3375,E3,194.5,0.25,49,132.0
3376,A3,194.5,0.25,49,132.0
3377,C4,194.5,0.25,49,132.0
3378,E4,194.5,0.25,49,132.0
3379,G2,195.0,1.0,90,132.0
3380,A4,195.0,0.125,90,132.0
3381,A3,195.0,0.5,80,132.0
3382,E2,195.0,0.125,70,132.0
3383,C#2,195.0,0.125,70,132.0
3384,A2,195.0,0.5,49,132.0
3385,E3,195.0,0.5,49,132.0
3386,A3,195.0,0.5,49,132.0
3387,C4,195.0,0.5,49,132.0
3388,E4,195.0,0.5,49,132.0
3389,G4,195.5,0.125,90,132.0
3390,G3,195.5,0.5,80,132.0
3391,A2,195.5,0.25,49,132.0
3392,E3,195.5,0.25,49,132.0
3393,A3,195.5,0.25,49,132.0
3394,C4,195.5,0.25,49,132.0
3395,E4,195.5,0.25,49,132.0
3396,C2,196.0,2.0,90,132.0
3397,C5,196.0,0.125,90,132.0
3398,A4,196.0,0.125,70,132.0
3399,B1,196.0,0.125,50,132.0
3400,G2,196.0,0.5,49,132.0
3401,C3,196.0,0.5,49,132.0
3402,E3,196.0,0.5,49,132.0
3403,G3,196.0,0.5,49,132.0
3404,C4,196.0,0.5,49,132.0
3405,E4,196.0,0.5,49,132.0
3406,C5,196.5,0.125,90,132.0
3407,A4,196.5,0.125,70,132.0
3408,G2,196.5,0.125,49,132.0
3409,C3,196.5,0.125,49,132.0
3410,E3,196.5,0.125,49,132.0
3411,G3,196.5,0.125,49,132.0
3412,C4,196.5,0.125,49,132.0
3413,E4,196.5,0.125,49,132.0
3414,C5,196.75,0.125,90,132.0
3415,A4,196.75,0.125,70,132.0
3416,G2,196.75,0.125,49,132.0
3417,C3,196.75,0.125,49,132.0
3418,E3,196.75,0.125,49,132.0
3419,G3,196.75,0.125,49,132.0
3420,C4,196.75,0.125,49,132.0
3421,E4,196.75,0.125,49,132.0
3422,C5,197.0,0.5,100,132.0
3423,C5,197.0,0.125,90,132.0
3424,D2,197.0,0.125,70,132.0
3425,C#2,197.0,0.125,70,132.0
3426,A4,197.0,0.125,70,132.0
3427,G2,197.0,0.125,49,132.0
3428,C3,197.0,0.125,49,132.0
3429,E3,197.0,0.125,49,132.0
3430,G3,197.0,0.125,49,132.0
3431,C4,197.0,0.125,49,132.0
3432,E4,197.0,0.125,49,132.0
3433,G4,197.5,0.5,100,132.0
3434,E5,197.5,0.125,90,132.0
3435,C#2,197.5,0.125,70,132.0
3436,G2,197.5,0.5,49,132.0
3437,C3,197.5,0.5,49,132.0
3438,E3,197.5,0.5,49,132.0
3439,G3,197.5,0.5,49,132.0
3440,C4,197.5,0.5,49,132.0
3441,E4,197.5,0.5,49,132.0
3442,C5,198.0,1.5,100,132.0
3443,E2,198.0,1.0,90,132.0
3444,G5,198.0,0.125,90,132.0
3445,A4,198.0,0.125,70,132.0
3446,B1,198.0,0.125,50,132.0
3447,G2,198.0,0.5,49,132.0
3448,C3,198.0,0.5,49,132.0
3449,E3,198.0,0.5,49,132.0
3450,G3,198.0,0.5,49,132.0
3451,C4,198.0,0.5,49,132.0
3452,E4,198.0,0.5,49,132.0
3453,E5,198.5,0.125,90,132.0
3454,A4,198.5,0.125,70,132.0
3455,G2,198.5,0.25,49,132.0
3456,C3,198.5,0.25,49,132.0
3457,E3,198.5,0.25,49,132.0
3458,G3,198.5,0.25,49,132.0
3459,C4,198.5,0.25,49,132.0
3460,E4,198.5,0.25,49,132.0
3461,G2,199.0,1.0,90,132.0
3462,C5,199.0,0.125,90,132.0
3463,E2,199.0,0.125,70,132.0
3464,C#2,199.0,0.125,70,132.0
3465,G2,199.0,0.5,49,132.0
3466,C3,199.0,0.5,49,132.0
3467,E3,199.0,0.5,49,132.0
3468,G3,199.0,0.5,49,132.0
3469,C4,199.0,0.5,49,132.0
3470,E4,199.0,0.5,49,132.0
3471,G4,199.5,0.5,100,132.0
3472,A4,199.5,0.125,90,132.0
3473,G2,199.5,0.25,49,132.0
3474,C3,199.5,0.25,49,132.0
3475,E3,199.5,0.25,49,132.0
3476,G3,199.5,0.25,49,132.0
3477,C4,199.5,0.25,49,132.0
3478,E4,199.5,0.25,49,132.0
3479,C5,200.0,0.5,100,132.0
3480,C2,200.0,2.0,90,132.0
3481,C5,200.0,0.125,90,132.0
3482,A4,200.0,0.125,70,132.0
3483,B1,200.0,0.125,50,132.0
3484,G2,200.0,0.5,49,132.0
3485,C3,200.0,0.5,49,132.0
3486,E3,200.0,0.5,49,132.0
3487,G3,200.0,0.5,49,132.0
3488,C4,200.0,0.5,49,132.0
3489,E4,200.0,0.5,49,132.0
3490,D5,200.5,1.0,100,132.0
3491,C5,200.5,0.125,90,132.0
3492,A4,200.5,0.125,70,132.0
3493,G2,200.5,0.125,49,132.0
3494,C3,200.5,0.125,49,132.0
3495,E3,200.5,0.125,49,132.0
3496,G3,200.5,0.125,49,132.0
3497,C4,200.5,0.125,49,132.0
3498,E4,200.5,0.125,49,132.0
3499,C5,200.75,0.125,90,132.0
3500,A4,200.75,0.125,70,132.0
3501,G2,200.75,0.125,49,132.0
3502,C3,200.75,0.125,49,132.0
3503,E3,200.75,0.125,49,132.0
3504,G3,200.75,0.125,49,132.0
3505,C4,200.75,0.125,49,132.0
3506,E4,200.75,0.125,49,132.0
3507,C5,201.0,0.125,90,132.0
3508,D2,201.0,0.125,70,132.0
3509,C#2,201.0,0.125,70,132.0
3510,A4,201.0,0.125,70,132.0
3511,G2,201.0,0.125,49,132.0
3512,C3,201.0,0.125,49,132.0
3513,E3,201.0,0.125,49,132.0
3514,G3,201.0,0.125,49,132.0
3515,C4,201.0,0.125,49,132.0
3516,E4,201.0,0.125,49,132.0
3517,E5,201.5,1.0,100,132.0
3518,E5,201.5,0.125,90,132.0
3519,C#2,201.5,0.125,70,132.0
3520,G2,201.5,0.5,49,132.0
3521,C3,201.5,0.5,49,132.0
3522,E3,201.5,0.5,49,132.0
3523,G3,201.5,0.5,49,132.0
3524,C4,201.5,0.5,49,132.0
3525,E4,201.5,0.5,49,132.0
3526,E2,202.0,1.0,90,132.0
3527,G5,202.0,0.125,90,132.0
3528,C4,202.0,0.5,80,132.0
3529,A4,202.0,0.125,70,132.0
3530,B1,202.0,0.125,50,132.0
3531,G2,202.0,0.5,49,132.0
3532,C3,202.0,0.5,49,132.0
3533,E3,202.0,0.5,49,132.0
3534,G3,202.0,0.5,49,132.0
3535,C4,202.0,0.5,49,132.0
3536,E4,202.0,0.5,49,132.0
3537,D5,202.5,0.5,100,132.0
3538,E5,202.5,0.125,90,132.0
3539,B3,202.5,0.5,80,132.0
3540,A4,202.5,0.125,70,132.0
3541,G2,202.5,0.25,49,132.0
3542,C3,202.5,0.25,49,132.0
3543,E3,202.5,0.25,49,132.0
3544,G3,202.5,0.25,49,132.0
3545,C4,202.5,0.25,49,132.0
3546,E4,202.5,0.25,49,132.0
3547,C5,203.0,0.5,100,132.0
3548,G2,203.0,1.0,90,132.0
3549,C5,203.0,0.125,90,132.0
3550,C4,203.0,0.5,80,132.0
3551,E2,203.0,0.125,70,132.0
3552,C#2,203.0,0.125,70,132.0
3553,G2,203.0,0.5,49,132.0
3554,C3,203.0,0.5,49,132.0
3555,E3,203.0,0.5,49,132.0
3556,G3,203.0,0.5,49,132.0
3557,C4,203.0,0.5,49,132.0
3558,E4,203.0,0.5,49,132.0
3559,A4,203.5,0.125,90,132.0
3560,B3,203.5,0.5,80,132.0
3561,G2,203.5,0.25,49,132.0
3562,C3,203.5,0.25,49,132.0
3563,E3,203.5,0.25,49,132.0
3564,G3,203.5,0.25,49,132.0
3565,C4,203.5,0.25,49,132.0
3566,E4,203.5,0.25,49,132.0
3567,A2,204.0,2.0,90,132.0
3568,A4,204.0,0.125,90,132.0
3569,A3,204.0,0.5,80,132.0
3570,A4,204.0,0.125,70,132.0
3571,B1,204.0,0.125,50,132.0
3572,A2,204.0,0.5,49,132.0
3573,E3,204.0,0.5,49,132.0
3574,A3,204.0,0.5,49,132.0
3575,C4,204.0,0.5,49,132.0
3576,E4,204.0,0.5,49,132.0
3577,A4,204.5,0.5,100,132.0
3578,A4,204.5,0.125,90,132.0
3579,A4,204.5,0.125,70,132.0
3580,A2,204.5,0.125,49,132.0
3581,E3,204.5,0.125,49,132.0
3582,A3,204.5,0.125,49,132.0
3583,C4,204.5,0.125,49,132.0
3584,E4,204.5,0.125,49,132.0
3585,A4,204.75,0.125,90,132.0
3586,A4,204.75,0.125,70,132.0
3587,A2,204.75,0.125,49,132.0
3588,E3,204.75,0.125,49,132.0
3589,A3,204.75,0.125,49,132.0
3590,C4,204.75,0.125,49,132.0
3591,E4,204.75,0.125,49,132.0
3592,A4,205.0,0.5,100,132.0
3593,A4,205.0,0.125,90,132.0
3594,D2,205.0,0.125,70,132.0
3595,C#2,205.0,0.125,70,132.0
3596,A4,205.0,0.125,70,132.0
3597,A2,205.0,0.125,49,132.0
3598,E3,205.0,0.125,49,132.0
3599,A3,205.0,0.125,49,132.0
3600,C4,205.0,0.125,49,132.0
3601,E4,205.0,0.125,49,132.0
3602,A4,205.5,0.5,100,132.0
3603,C5,205.5,0.125,90,132.0
3604,C#2,205.5,0.125,70,132.0
3605,A2,205.5,0.5,49,132.0
3606,E3,205.5,0.5,49,132.0
3607,A3,205.5,0.5,49,132.0
3608,C4,205.5,0.5,49,132.0
3609,E4,205.5,0.5,49,132.0
3610,A4,206.0,1.5,100,132.0
3611,E2,206.0,1.0,90,132.0
3612,E5,206.0,0.125,90,132.0
3613,A4,206.0,0.125,70,132.0
3614,B1,206.0,0.125,50,132.0
3615,A2,206.0,0.5,49,132.0
3616,E3,206.0,0.5,49,132.0
3617,A3,206.0,0.5,49,132.0
3618,C4,206.0,0.5,49,132.0
3619,E4,206.0,0.5,49,132.0
3620,C5,206.5,0.125,90,132.0
3621,A4,206.5,0.125,70,132.0
3622,A2,206.5,0.25,49,132.0
3623,E3,206.5,0.25,49,132.0
3624,A3,206.5,0.25,49,132.0
3625,C4,206.5,0.25,49,132.0
3626,E4,206.5,0.25,49,132.0
3627,G2,207.0,1.0,90,132.0
3628,A4,207.0,0.125,90,132.0
3629,E2,207.0,0.125,70,132.0
3630,C#2,207.0,0.125,70,132.0
3631,A2,207.0,0.5,49,132.0
3632,E3,207.0,0.5,49,132.0
3633,A3,207.0,0.5,49,132.0
3634,C4,207.0,0.5,49,132.0
3635,E4,207.0,0.5,49,132.0
3636,G4,207.5,0.5,100,132.0
3637,G4,207.5,0.125,90,132.0
3638,A2,207.5,0.25,49,132.0
3639,E3,207.5,0.25,49,132.0
3640,A3,207.5,0.25,49,132.0
3641,C4,207.5,0.25,49,132.0
3642,E4,207.5,0.25,49,132.0
3643,A4,208.0,0.5,100,132.0
3644,A2,208.0,2.0,90,132.0
3645,A4,208.0,0.125,90,132.0
3646,A4,208.0,0.125,70,132.0
3647,B1,208.0,0.125,50,132.0
3648,A2,208.0,0.5,49,132.0
3649,E3,208.0,0.5,49,132.0
3650,A3,208.0,0.5,49,132.0
3651,C4,208.0,0.5,49,132.0
3652,E4,208.0,0.5,49,132.0
3653,C5,208.5,1.0,100,132.0
3654,A4,208.5,0.125,90,132.0
3655,A4,208.5,0.125,70,132.0
3656,A2,208.5,0.125,49,132.0
3657,E3,208.5,0.125,49,132.0
3658,A3,208.5,0.125,49,132.0
3659,C4,208.5,0.125,49,132.0
3660,E4,208.5,0.125,49,132.0
3661,A4,208.75,0.125,90,132.0
3662,A4,208.75,0.125,70,132.0
3663,A2,208.75,0.125,49,132.0
3664,E3,208.75,0.125,49,132.0
3665,A3,208.75,0.125,49,132.0
3666,C4,208.75,0.125,49,132.0
3667,E4,208.75,0.125,49,132.0
3668,A4,209.0,0.125,90,132.0
3669,D2,209.0,0.125,70,132.0
3670,C#2,209.0,0.125,70,132.0
3671,A4,209.0,0.125,70,132.0
3672,A2,209.0,0.125,49,132.0
3673,E3,209.0,0.125,49,132.0
3674,A3,209.0,0.125,49,132.0
3675,C4,209.0,0.125,49,132.0
3676,E4,209.0,0.125,49,132.0
3677,A4,209.5,1.0,100,132.0
3678,C5,209.5,0.125,90,132.0
3679,C#2,209.5,0.125,70,132.0
3680,A2,209.5,0.5,49,132.0
3681,E3,209.5,0.5,49,132.0
3682,A3,209.5,0.5,49,132.0
3683,C4,209.5,0.5,49,132.0
3684,E4,209.5,0.5,49,132.0
3685,E2,210.0,1.0,90,132.0
3686,E5,210.0,0.125,90,132.0
3687,A3,210.0,0.5,80,132.0
3688,A4,210.0,0.125,70,132.0
3689,B1,210.0,0.125,50,132.0
3690,A2,210.0,0.5,49,132.0
3691,E3,210.0,0.5,49,132.0
3692,A3,210.0,0.5,49,132.0
3693,C4,210.0,0.5,49,132.0
3694,E4,210.0,0.5,49,132.0
3695,G4,210.5,0.5,100,132.0
3696,C5,210.5,0.125,90,132.0
3697,G3,210.5,0.5,80,132.0
3698,A4,210.5,0.125,70,132.0
3699,A2,210.5,0.25,49,132.0
3700,E3,210.5,0.25,49,132.0
3701,A3,210.5,0.25,49,132.0
3702,C4,210.5,0.25,49,132.0
3703,E4,210.5,0.25,49,132.0
3704,A4,211.0,0.5,100,132.0
3705,G2,211.0,1.0,90,132.0
3706,A4,211.0,0.125,90,132.0
3707,A3,211.0,0.5,80,132.0
3708,E2,211.0,0.125,70,132.0
3709,C#2,211.0,0.125,70,132.0
3710,A2,211.0,0.5,49,132.0
3711,E3,211.0,0.5,49,132.0
3712,A3,211.0,0.5,49,132.0
3713,C4,211.0,0.5,49,132.0
3714,E4,211.0,0.5,49,132.0
3715,G4,211.5,0.5,100,132.0
3716,G4,211.5,0.125,90,132.0
3717,G3,211.5,0.5,80,132.0
3718,A2,211.5,0.25,49,132.0
3719,E3,211.5,0.25,49,132.0
3720,A3,211.5,0.25,49,132.0
3721,C4,211.5,0.25,49,132.0
3722,E4,211.5,0.25,49,132.0
3723,C5,212.0,0.75,100,132.0
3724,C2,212.0,0.25,90,132.0
3725,C5,213.0,0.5,88,132.0
3726,C2,213.0,0.25,90,132.0
3727,C4,213.0,0.5,25,132.0
3728,F#3,213.0,0.25,100,132.0
3729,B1,213.0,0.125,50,132.0
3730,G2,213.0,0.25,49,132.0
3731,C3,213.0,0.25,49,132.0
3732,E3,213.0,0.25,49,132.0
3733,G3,213.0,0.25,49,132.0
3734,C4,213.0,0.25,49,132.0
3735,E4,213.0,0.25,49,132.0
3736,C5,213.5,0.5,88,132.0
3737,C2,213.5,0.25,90,132.0
3738,C4,213.5,0.5,25,132.0
3739,F#3,213.5,0.25,100,132.0
3740,B1,213.5,0.125,50,132.0
3741,G2,213.5,0.25,49,132.0
3742,C3,213.5,0.25,49,132.0
3743,E3,213.5,0.25,49,132.0
3744,G3,213.5,0.25,49,132.0
3745,C4,213.5,0.25,49,132.0
3746,E4,213.5,0.25,49,132.0
3747,C5,215.0,0.5,88,132.0
3748,C2,215.0,0.25,90,132.0
3749,C4,215.0,0.5,25,132.0
3750,F#3,215.0,0.25,100,132.0
3751,B1,215.0,0.125,50,132.0
3752,G2,215.0,0.25,49,132.0
3753,C3,215.0,0.25,49,132.0
3754,E3,215.0,0.25,49,132.0
3755,G3,215.0,0.25,49,132.0
3756,C4,215.0,0.25,49,132.0
3757,E4,215.0,0.25,49,132.0
3758,A4,215.5,0.5,100,132.0
3759,D5,216.0,0.75,100,132.0
3760,G2,216.0,0.25,90,132.0
3761,D5,217.0,0.5,88,132.0
3762,G2,217.0,0.25,90,132.0
3763,D4,217.0,0.5,25,132.0
3764,F#3,217.0,0.25,100,132.0
3765,B1,217.0,0.125,50,132.0
3766,G2,217.0,0.25,49,132.0
3767,B2,217.0,0.25,49,132.0
3768,D3,217.0,0.25,49,132.0
3769,G3,217.0,0.25,49,132.0
3770,B3,217.0,0.25,49,132.0
3771,F4,217.0,0.25,49,132.0
3772,D5,217.5,0.5,88,132.0
3773,G2,217.5,0.25,90,132.0
3774,D4,217.5,0.5,25,132.0
3775,F#3,217.5,0.25,100,132.0
3776,B1,217.5,0.125,50,132.0
3777,G2,217.5,0.25,49,132.0
3778,B2,217.5,0.25,49,132.0
3779,D3,217.5,0.25,49,132.0
3780,G3,217.5,0.25,49,132.0
3781,B3,217.5,0.25,49,132.0
3782,F4,217.5,0.25,49,132.0
3783,D5,219.0,0.5,88,132.0
3784,G2,219.0,0.25,90,132.0
3785,D4,219.0,0.5,25,132.0
3786,F#3,219.0,0.25,100,132.0
3787,B1,219.0,0.125,50,132.0
3788,G2,219.0,0.25,49,132.0
3789,B2,219.0,0.25,49,132.0
3790,D3,219.0,0.25,49,132.0
3791,G3,219.0,0.25,49,132.0
3792,B3,219.0,0.25,49,132.0
3793,F4,219.0,0.25,49,132.0
3794,D5,219.5,0.5,100,132.0
3795,E5,220.0,0.5,100,132.0
3796,C2,220.0,0.25,90,132.0
3797,D5,220.5,0.5,100,132.0
3798,C5,221.0,0.5,88,132.0
3799,C5,221.0,0.75,100,132.0
3800,C2,221.0,0.25,90,132.0
3801,C4,221.0,0.5,25,132.0
3802,F#3,221.0,0.25,100,132.0
3803,B1,221.0,0.125,50,132.0
3804,G2,221.0,0.25,49,132.0
3805,C3,221.0,0.25,49,132.0
3806,E3,221.0,0.25,49,132.0
3807,G3,221.0,0.25,49,132.0
3808,C4,221.0,0.25,49,132.0
3809,E4,221.0,0.25,49,132.0
3810,C5,221.5,0.5,88,132.0
3811,C2,221.5,0.25,90,132.0
3812,C4,221.5,0.5,25,132.0
3813,F#3,221.5,0.25,100,132.0
3814,B1,221.5,0.125,50,132.0
3815,G2,221.5,0.25,49,132.0
3816,C3,221.5,0.25,49,132.0
3817,E3,221.5,0.25,49,132.0
3818,G3,221.5,0.25,49,132.0
3819,C4,221.5,0.25,49,132.0
3820,E4,221.5,0.25,49,132.0
3821,C5,223.0,0.5,88,132.0
3822,C2,223.0,0.25,90,132.0
3823,C4,223.0,0.5,25,132.0
3824,F#3,223.0,0.25,100,132.0
3825,B1,223.0,0.125,50,132.0
3826,G2,223.0,0.25,49,132.0
3827,C3,223.0,0.25,49,132.0
3828,E3,223.0,0.25,49,132.0
3829,G3,223.0,0.25,49,132.0
3830,C4,223.0,0.25,49,132.0
3831,E4,223.0,0.25,49,132.0
3832,E5,223.5,0.5,100,132.0
3833,F5,224.0,0.5,100,132.0
3834,F2,224.0,0.25,90,132.0
3835,C5,224.5,1.5,100,132.0
3836,F5,225.0,0.5,88,132.0
3837,F2,225.0,0.25,90,132.0
3838,F4,225.0,0.5,25,132.0
3839,F#3,225.0,0.25,100,132.0
3840,B1,225.0,0.125,50,132.0
3841,F2,225.0,0.25,49,132.0
3842,C3,225.0,0.25,49,132.0
3843,F3,225.0,0.25,49,132.0
3844,A3,225.0,0.25,49,132.0
3845,C4,225.0,0.25,49,132.0
3846,F4,225.0,0.25,49,132.0
3847,F5,225.5,0.5,88,132.0
3848,F2,225.5,0.25,90,132.0
3849,F4,225.5,0.5,25,132.0
3850,F#3,225.5,0.25,100,132.0
3851,B1,225.5,0.125,50,132.0
3852,F2,225.5,0.25,49,132.0
3853,C3,225.5,0.25,49,132.0
3854,F3,225.5,0.25,49,132.0
3855,A3,225.5,0.25,49,132.0
3856,C4,225.5,0.25,49,132.0
3857,F4,225.5,0.25,49,132.0
3858,E2,226.0,0.125,70,132.0
3859,E2,226.25,0.125,70,132.0
3860,C5,226.5,0.5,100,132.0
3861,E2,226.5,0.125,70,132.0
3862,F5,227.0,0.5,88,132.0
3863,D5,227.0,0.5,100,132.0
3864,F2,227.0,0.25,90,132.0
3865,F4,227.0,0.5,25,132.0
3866,E2,227.0,0.125,70,132.0
3867,B1,227.0,0.125,50,132.0
3868,F2,227.0,0.25,49,132.0
3869,C3,227.0,0.25,49,132.0
3870,F3,227.0,0.25,49,132.0
3871,A3,227.0,0.25,49,132.0
3872,C4,227.0,0.25,49,132.0
3873,F4,227.0,0.25,49,132.0
3874,C5,227.5,0.5,100,132.0
3875,D2,227.5,0.125,70,132.0
3876,G5,228.0,2.0,88,132.0
3877,E5,228.0,1.5,100,132.0
3878,C2,228.0,2.0,90,132.0
3879,C5,228.0,0.125,90,132.0
3880,G4,228.0,2.0,25,132.0
3881,A4,228.0,0.125,70,132.0
3882,B1,228.0,0.125,50,132.0
3883,G2,228.0,0.5,49,132.0
3884,C3,228.0,0.5,49,132.0
3885,E3,228.0,0.5,49,132.0
3886,G3,228.0,0.5,49,132.0
3887,C4,228.0,0.5,49,132.0
3888,E4,228.0,0.5,49,132.0
3889,C5,228.5,0.125,90,132.0
3890,A4,228.5,0.125,70,132.0
3891,G2,228.5,0.125,49,132.0
3892,C3,228.5,0.125,49,132.0
3893,E3,228.5,0.125,49,132.0
3894,G3,228.5,0.125,49,132.0
3895,C4,228.5,0.125,49,132.0
3896,E4,228.5,0.125,49,132.0
3897,C5,228.75,0.125,90,132.0
3898,A4,228.75,0.125,70,132.0
3899,G2,228.75,0.125,49,132.0
3900,C3,228.75,0.125,49,132.0
3901,E3,228.75,0.125,49,132.0
3902,G3,228.75,0.125,49,132.0
3903,C4,228.75,0.125,49,132.0
3904,E4,228.75,0.125,49,132.0
3905,C5,229.0,0.125,90,132.0
3906,D2,229.0,0.125,70,132.0
3907,C#2,229.0,0.125,70,132.0
3908,A4,229.0,0.125,70,132.0
3909,G2,229.0,0.125,49,132.0
3910,C3,229.0,0.125,49,132.0
3911,E3,229.0,0.125,49,132.0
3912,G3,229.0,0.125,49,132.0
3913,C4,229.0,0.125,49,132.0
3914,E4,229.0,0.125,49,132.0
3915,D5,229.5,0.5,100,132.0
3916,E5,229.5,0.125,90,132.0
3917,C#2,229.5,0.125,70,132.0
3918,G2,229.5,0.5,49,132.0
3919,C3,229.5,0.5,49,132.0
3920,E3,229.5,0.5,49,132.0
3921,G3,229.5,0.5,49,132.0
3922,C4,229.5,0.5,49,132.0
3923,E4,229.5,0.5,49,132.0
3924,A5,230.0,2.0,88,132.0
3925,C5,230.0,0.5,100,132.0
3926,A2,230.0,2.0,90,132.0
3927,G5,230.0,0.125,90,132.0
3928,A4,230.0,2.0,65,132.0
3929,A4,230.0,0.125,70,132.0
3930,B1,230.0,0.125,50,132.0
3931,A2,230.0,0.5,49,132.0
3932,E3,230.0,0.5,49,132.0
3933,A3,230.0,0.5,49,132.0
3934,C4,230.0,0.5,49,132.0
3935,E4,230.0,0.5,49,132.0
3936,D5,230.5,0.5,100,132.0
3937,C5,230.5,0.125,90,132.0
3938,A4,230.5,0.125,70,132.0
3939,A2,230.5,0.25,49,132.0
3940,E3,230.5,0.25,49,132.0
3941,A3,230.5,0.25,49,132.0
3942,C4,230.5,0.25,49,132.0
3943,E4,230.5,0.25,49,132.0
3944,A4,231.0,0.125,90,132.0
3945,E2,231.0,0.125,70,132.0
3946,C#2,231.0,0.125,70,132.0
3947,A2,231.0,0.5,49,132.0
3948,E3,231.0,0.5,49,132.0
3949,A3,231.0,0.5,49,132.0
3950,C4,231.0,0.5,49,132.0
3951,E4,231.0,0.5,49,132.0
3952,G4,231.5,0.5,100,132.0
3953,G4,231.5,0.125,90,132.0
3954,A2,231.5,0.25,49,132.0
3955,E3,231.5,0.25,49,132.0
3956,A3,231.5,0.25,49,132.0
3957,C4,231.5,0.25,49,132.0
3958,E4,231.5,0.25,49,132.0
3959,C5,232.0,2.0,88,132.0
3960,A4,232.0,1.0,100,132.0
3961,D2,232.0,2.0,90,132.0
3962,A4,232.0,0.125,90,132.0
3963,C4,232.0,2.0,65,132.0
3964,A4,232.0,0.125,70,132.0
3965,B1,232.0,0.125,50,132.0
3966,A2,232.0,0.5,49,132.0
3967,D3,232.0,0.5,49,132.0
3968,A3,232.0,0.5,49,132.0
3969,D4,232.0,0.5,49,132.0
3970,F4,232.0,0.5,49,132.0
3971,A4,232.5,0.125,90,132.0
3972,A4,232.5,0.125,70,132.0
3973,A2,232.5,0.125,49,132.0
3974,D3,232.5,0.125,49,132.0
3975,A3,232.5,0.125,49,132.0
3976,D4,232.5,0.125,49,132.0
3977,F4,232.5,0.125,49,132.0
3978,A4,232.75,0.125,90,132.0
3979,A4,232.75,0.125,70,132.0
3980,A2,232.75,0.125,49,132.0
3981,D3,232.75,0.125,49,132.0
3982,A3,232.75,0.125,49,132.0
3983,D4,232.75,0.125,49,132.0
3984,F4,232.75,0.125,49,132.0
3985,C5,233.0,0.5,100,132.0
3986,A4,233.0,0.125,90,132.0
3987,D2,233.0,0.125,70,132.0
3988,C#2,233.0,0.125,70,132.0
3989,A4,233.0,0.125,70,132.0
3990,A2,233.0,0.125,49,132.0
3991,D3,233.0,0.125,49,132.0
3992,A3,233.0,0.125,49,132.0
3993,D4,233.0,0.125,49,132.0
3994,F4,233.0,0.125,49,132.0
3995,C5,233.5,0.5,100,132.0
3996,C#2,233.5,0.125,70,132.0
3997,A2,233.5,0.5,49,132.0
3998,D3,233.5,0.5,49,132.0
3999,A3,233.5,0.5,49,132.0
4000,D4,233.5,0.5,49,132.0
4001,F4,233.5,0.5,49,132.0
4002,D5,234.0,2.0,88,132.0
4003,A4,234.0,0.5,100,132.0
4004,G2,234.0,1.0,90,132.0
4005,D4,234.0,2.0,65,132.0
4006,A4,234.0,0.125,70,132.0
4007,B1,234.0,0.125,50,132.0
4008,A2,234.0,0.5,49,132.0
4009,D3,234.0,0.5,49,132.0
4010,A3,234.0,0.5,49,132.0
4011,D4,234.0,0.5,49,132.0
4012,F4,234.0,0.5,49,132.0
4013,C5,234.5,1.0,100,132.0
4014,A4,234.5,0.125,70,132.0
4015,A2,234.5,0.25,49,132.0
4016,D3,234.5,0.25,49,132.0
4017,A3,234.5,0.25,49,132.0
4018,D4,234.5,0.25,49,132.0
4019,F4,234.5,0.25,49,132.0
4020,E2,235.0,0.125,70,132.0
4021,C#2,235.0,0.125,70,132.0
4022,G2,235.0,0.5,49,132.0
4023,B2,235.0,0.5,49,132.0
4024,D3,235.0,0.5,49,132.0
4025,G3,235.0,0.5,49,132.0
4026,B3,235.0,0.5,49,132.0
4027,F4,235.0,0.5,49,132.0
4028,D5,235.5,0.5,100,132.0
4029,G2,235.5,0.25,49,132.0
4030,B2,235.5,0.25,49,132.0
4031,D3,235.5,0.25,49,132.0
4032,G3,235.5,0.25,49,132.0
4033,B3,235.5,0.25,49,132.0
4034,F4,235.5,0.25,49,132.0
4035,C5,236.0,2.0,88,132.0
4036,D5,236.0,0.5,100,132.0
4037,C2,236.0,2.0,90,132.0
4038,C5,236.0,0.125,90,132.0
4039,C4,236.0,2.0,65,132.0
4040,A4,236.0,0.125,70,132.0
4041,B1,236.0,0.125,50,132.0
4042,G2,236.0,0.5,49,132.0
4043,C3,236.0,0.5,49,132.0
4044,E3,236.0,0.5,49,132.0
4045,G3,236.0,0.5,49,132.0
4046,C4,236.0,0.5,49,132.0
4047,E4,236.0,0.5,49,132.0
4048,C5,236.5,2.0,100,132.0
4049,C5,236.5,0.125,90,132.0
4050,A4,236.5,0.125,70,132.0
4051,G2,236.5,0.125,49,132.0
4052,C3,236.5,0.125,49,132.0
4053,E3,236.5,0.125,49,132.0
4054,G3,236.5,0.125,49,132.0
4055,C4,236.5,0.125,49,132.0
4056,E4,236.5,0.125,49,132.0
4057,C5,236.75,0.125,90,132.0
4058,A4,236.75,0.125,70,132.0
4059,G2,236.75,0.125,49,132.0
4060,C3,236.75,0.125,49,132.0
4061,E3,236.75,0.125,49,132.0
4062,G3,236.75,0.125,49,132.0
4063,C4,236.75,0.125,49,132.0
4064,E4,236.75,0.125,49,132.0
4065,C5,237.0,0.125,90,132.0
4066,D2,237.0,0.125,70,132.0
4067,C#2,237.0,0.125,70,132.0
4068,A4,237.0,0.125,70,132.0
4069,G2,237.0,0.125,49,132.0
4070,C3,237.0,0.125,49,132.0
4071,E3,237.0,0.125,49,132.0
4072,G3,237.0,0.125,49,132.0
4073,C4,237.0,0.125,49,132.0
4074,E4,237.0,0.125,49,132.0
4075,E5,237.5,0.125,90,132.0
4076,C#2,237.5,0.125,70,132.0
4077,G2,237.5,0.5,49,132.0
4078,C3,237.5,0.5,49,132.0
4079,E3,237.5,0.5,49,132.0
4080,G3,237.5,0.5,49,132.0
4081,C4,237.5,0.5,49,132.0
4082,E4,237.5,0.5,49,132.0
4083,G5,238.0,2.0,88,132.0
4084,G5,238.0,0.125,90,132.0
4085,G4,238.0,2.0,65,132.0
4086,A4,238.0,0.125,70,132.0
4087,B1,238.0,0.125,50,132.0
4088,G2,238.0,0.5,49,132.0
4089,C3,238.0,0.5,49,132.0
4090,E3,238.0,0.5,49,132.0
4091,G3,238.0,0.5,49,132.0
4092,C4,238.0,0.5,49,132.0
4093,E4,238.0,0.5,49,132.0
4094,G5,238.5,0.125,90,132.0
4095,A4,238.5,0.125,70,132.0
4096,G2,238.5,0.25,49,132.0
4097,C3,238.5,0.25,49,132.0
4098,E3,238.5,0.25,49,132.0
4099,G3,238.5,0.25,49,132.0
4100,C4,238.5,0.25,49,132.0
4101,E4,238.5,0.25,49,132.0
4102,G2,239.0,1.0,90,132.0
4103,G5,239.0,0.125,90,132.0
4104,E2,239.0,0.125,70,132.0
4105,C#2,239.0,0.125,70,132.0
4106,G2,239.0,0.5,49,132.0
4107,C3,239.0,0.5,49,132.0
4108,E3,239.0,0.5,49,132.0
4109,G3,239.0,0.5,49,132.0
4110,C4,239.0,0.5,49,132.0
4111,E4,239.0,0.5,49,132.0
4112,G5,239.5,0.125,90,132.0
4113,G2,239.5,0.25,49,132.0
4114,C3,239.5,0.25,49,132.0
4115,E3,239.5,0.25,49,132.0
4116,G3,239.5,0.25,49,132.0
4117,C4,239.5,0.25,49,132.0
4118,E4,239.5,0.25,49,132.0
4119,G#5,240.0,4.0,88,132.0
4120,G#2,240.0,0.25,90,132.0
4121,G#5,240.0,0.125,90,132.0
4122,G#4,240.0,4.0,65,132.0
4123,D2,240.0,0.125,70,132.0
4124,G#2,240.0,0.25,49,132.0
4125,C3,240.0,0.25,49,132.0
4126,E-3,240.0,0.25,49,132.0
4127,G#3,240.0,0.25,49,132.0
4128,C4,240.0,0.25,49,132.0
4129,F#4,240.0,0.25,49,132.0
4130,G#2,240.5,0.25,90,132.0
4131,G#5,240.5,0.125,90,132.0
4132,D2,240.5,0.125,70,132.0
4133,G#2,240.5,0.25,49,132.0
4134,C3,240.5,0.25,49,132.0
4135,E-3,240.5,0.25,49,132.0
4136,G#3,240.5,0.25,49,132.0
4137,C4,240.5,0.25,49,132.0
4138,F#4,240.5,0.25,49,132.0
4139,F#2,241.0,0.25,90,132.0
4140,F#5,241.0,0.125,90,132.0
4141,D2,241.0,0.125,70,132.0
4142,F#2,241.0,0.25,49,132.0
4143,C#3,241.0,0.25,49,132.0
4144,F#3,241.0,0.25,49,132.0
4145,B-3,241.0,0.25,49,132.0
4146,C#4,241.0,0.25,49,132.0
4147,F#4,241.0,0.25,49,132.0
4148,F#2,241.5,0.25,90,132.0
4149,F#5,241.5,0.125,90,132.0
4150,D2,241.5,0.125,70,132.0
4151,F#2,241.5,0.25,49,132.0
4152,C#3,241.5,0.25,49,132.0
4153,F#3,241.5,0.25,49,132.0
4154,B-3,241.5,0.25,49,132.0
4155,C#4,241.5,0.25,49,132.0
4156,F#4,241.5,0.25,49,132.0
4157,F2,242.0,0.25,90,132.0
4158,F5,242.0,0.125,90,132.0
4159,D2,242.0,0.125,70,132.0
4160,B-2,242.0,0.25,49,132.0
4161,F3,242.0,0.25,49,132.0
4162,B-3,242.0,0.25,49,132.0
4163,C#4,242.0,0.25,49,132.0
4164,F4,242.0,0.25,49,132.0
4165,F2,242.5,0.25,90,132.0
4166,F5,242.5,0.125,90,132.0
4167,D2,242.5,0.125,70,132.0
4168,B-2,242.5,0.25,49,132.0
4169,F3,242.5,0.25,49,132.0
4170,B-3,242.5,0.25,49,132.0
4171,C#4,242.5,0.25,49,132.0
4172,F4,242.5,0.25,49,132.0
4173,E-2,243.0,0.25,90,132.0
4174,E-5,243.0,0.125,90,132.0
4175,D2,243.0,0.125,70,132.0
4176,B-2,243.0,0.25,49,132.0
4177,E-3,243.0,0.25,49,132.0
4178,B-3,243.0,0.25,49,132.0
4179,E-4,243.0,0.25,49,132.0
4180,F#4,243.0,0.25,49,132.0
4181,E-2,243.5,0.25,90,132.0
4182,E-5,243.5,0.125,90,132.0
4183,D2,243.5,0.125,70,132.0
4184,B-2,243.5,0.25,49,132.0
4185,E-3,243.5,0.25,49,132.0
4186,B-3,243.5,0.25,49,132.0
4187,E-4,243.5,0.25,49,132.0
4188,F#4,243.5,0.25,49,132.0
4189,C#5,244.0,4.0,88,132.0
4190,C#2,244.0,2.0,90,132.0
4191,C#5,244.0,0.125,90,132.0
4192,C#4,244.0,4.0,65,132.0
4193,A4,244.0,0.125,70,132.0
4194,B1,244.0,0.125,50,132.0
4195,G#2,244.0,0.5,49,132.0
4196,C#3,244.0,0.5,49,132.0
4197,F3,244.0,0.5,49,132.0
4198,G#3,244.0,0.5,49,132.0
4199,C#4,244.0,0.5,49,132.0
4200,F4,244.0,0.5,49,132.0
4201,C#5,244.5,0.125,90,132.0
4202,A4,244.5,0.125,70,132.0
4203,G#2,244.5,0.125,49,132.0
4204,C#3,244.5,0.125,49,132.0
4205,F3,244.5,0.125,49,132.0
4206,G#3,244.5,0.125,49,132.0
4207,C#4,244.5,0.125,49,132.0
4208,F4,244.5,0.125,49,132.0
4209,C#5,244.75,0.125,90,132.0
4210,A4,244.75,0.125,70,132.0
4211,G#2,244.75,0.125,49,132.0
4212,C#3,244.75,0.125,49,132.0
4213,F3,244.75,0.125,49,132.0
4214,G#3,244.75,0.125,49,132.0
4215,C#4,244.75,0.125,49,132.0
4216,F4,244.75,0.125,49,132.0
4217,C#5,245.0,1.0,100,132.0
4218,C#5,245.0,0.125,90,132.0
4219,D2,245.0,0.125,70,132.0
4220,C#2,245.0,0.125,70,132.0
4221,A4,245.0,0.125,70,132.0
4222,G#2,245.0,0.125,49,132.0
4223,C#3,245.0,0.125,49,132.0
4224,F3,245.0,0.125,49,132.0
4225,G#3,245.0,0.125,49,132.0
4226,C#4,245.0,0.125,49,132.0
4227,F4,245.0,0.125,49,132.0
4228,F5,245.5,0.125,90,132.0
4229,C#2,245.5,0.125,70,132.0
4230,G#2,245.5,0.5,49,132.0
4231,C#3,245.5,0.5,49,132.0
4232,F3,245.5,0.5,49,132.0
4233,G#3,245.5,0.5,49,132.0
4234,C#4,245.5,0.5,49,132.0
4235,F4,245.5,0.5,49,132.0
4236,C#5,246.0,0.5,100,132.0
4237,F2,246.0,1.0,90,132.0
4238,G#5,246.0,0.125,90,132.0
4239,A4,246.0,0.125,70,132.0
4240,B1,246.0,0.125,50,132.0
4241,G#2,246.0,0.5,49,132.0
4242,C#3,246.0,0.5,49,132.0
4243,F3,246.0,0.5,49,132.0
4244,G#3,246.0,0.5,49,132.0
4245,C#4,246.0,0.5,49,132.0
4246,F4,246.0,0.5,49,132.0
4247,C#5,246.5,1.0,100,132.0
4248,F5,246.5,0.125,90,132.0
4249,A4,246.5,0.125,70,132.0
4250,G#2,246.5,0.25,49,132.0
4251,C#3,246.5,0.25,49,132.0
4252,F3,246.5,0.25,49,132.0
4253,G#3,246.5,0.25,49,132.0
4254,C#4,246.5,0.25,49,132.0
4255,F4,246.5,0.25,49,132.0
4256,G#2,247.0,1.0,90,132.0
4257,C#5,247.0,0.125,90,132.0
4258,E2,247.0,0.125,70,132.0
4259,C#2,247.0,0.125,70,132.0
4260,G#2,247.0,0.5,49,132.0
4261,C#3,247.0,0.5,49,132.0
4262,F3,247.0,0.5,49,132.0
4263,G#3,247.0,0.5,49,132.0
4264,C#4,247.0,0.5,49,132.0
4265,F4,247.0,0.5,49,132.0
4266,B-4,247.5,0.125,90,132.0
4267,G#2,247.5,0.25,49,132.0
4268,C#3,247.5,0.25,49,132.0
4269,F3,247.5,0.25,49,132.0
4270,G#3,247.5,0.25,49,132.0
4271,C#4,247.5,0.25,49,132.0
4272,F4,247.5,0.25,49,132.0
4273,C#5,248.0,4.0,88,132.0
4274,C#5,248.0,0.5,100,132.0
4275,C#2,248.0,2.0,90,132.0
4276,C#5,248.0,0.125,90,132.0
4277,C#4,248.0,4.0,65,132.0
4278,A4,248.0,0.125,70,132.0
4279,B1,248.0,0.125,50,132.0
4280,G#2,248.0,0.5,49,132.0
4281,C#3,248.0,0.5,49,132.0
4282,F3,248.0,0.5,49,132.0
4283,G#3,248.0,0.5,49,132.0
4284,C#4,248.0,0.5,49,132.0
4285,F4,248.0,0.5,49,132.0
4286,E-5,248.5,1.0,100,132.0
4287,C#5,248.5,0.125,90,132.0
4288,A4,248.5,0.125,70,132.0
4289,G#2,248.5,0.125,49,132.0
4290,C#3,248.5,0.125,49,132.0
4291,F3,248.5,0.125,49,132.0
4292,G#3,248.5,0.125,49,132.0
4293,C#4,248.5,0.125,49,132.0
4294,F4,248.5,0.125,49,132.0
4295,C#5,248.75,0.125,90,132.0
4296,A4,248.75,0.125,70,132.0
4297,G#2,248.75,0.125,49,132.0
4298,C#3,248.75,0.125,49,132.0
4299,F3,248.75,0.125,49,132.0
4300,G#3,248.75,0.125,49,132.0
4301,C#4,248.75,0.125,49,132.0
4302,F4,248.75,0.125,49,132.0
4303,C#5,249.0,0.125,90,132.0
4304,D2,249.0,0.125,70,132.0
4305,C#2,249.0,0.125,70,132.0
4306,A4,249.0,0.125,70,132.0
4307,G#2,249.0,0.125,49,132.0
4308,C#3,249.0,0.125,49,132.0
4309,F3,249.0,0.125,49,132.0
4310,G#3,249.0,0.125,49,132.0
4311,C#4,249.0,0.125,49,132.0
4312,F4,249.0,0.125,49,132.0
4313,F5,249.5,0.5,100,132.0
4314,F5,249.5,0.125,90,132.0
4315,C#2,249.5,0.125,70,132.0
4316,G#2,249.5,0.5,49,132.0
4317,C#3,249.5,0.5,49,132.0
4318,F3,249.5,0.5,49,132.0
4319,G#3,249.5,0.5,49,132.0
4320,C#4,249.5,0.5,49,132.0
4321,F4,249.5,0.5,49,132.0
4322,E-5,250.0,0.5,100,132.0
4323,F2,250.0,1.0,90,132.0
4324,G#5,250.0,0.125,90,132.0
4325,A4,250.0,0.125,70,132.0
4326,B1,250.0,0.125,50,132.0
4327,G#2,250.0,0.5,49,132.0
4328,C#3,250.0,0.5,49,132.0
4329,F3,250.0,0.5,49,132.0
4330,G#3,250.0,0.5,49,132.0
4331,C#4,250.0,0.5,49,132.0
4332,F4,250.0,0.5,49,132.0
4333,C#5,250.5,1.0,100,132.0
4334,F5,250.5,0.125,90,132.0
4335,A4,250.5,0.125,70,132.0
4336,G#2,250.5,0.25,49,132.0
4337,C#3,250.5,0.25,49,132.0
4338,F3,250.5,0.25,49,132.0
4339,G#3,250.5,0.25,49,132.0
4340,C#4,250.5,0.25,49,132.0
4341,F4,250.5,0.25,49,132.0
4342,G#2,251.0,1.0,90,132.0
4343,C#5,251.0,0.125,90,132.0
4344,E2,251.0,0.125,70,132.0
4345,C#2,251.0,0.125,70,132.0
4346,G#2,251.0,0.5,49,132.0
4347,C#3,251.0,0.5,49,132.0
4348,F3,251.0,0.5,49,132.0
4349,G#3,251.0,0.5,49,132.0
4350,C#4,251.0,0.5,49,132.0
4351,F4,251.0,0.5,49,132.0
4352,B-4,251.5,0.125,90,132.0
4353,G#2,251.5,0.25,49,132.0
4354,C#3,251.5,0.25,49,132.0
4355,F3,251.5,0.25,49,132.0
4356,G#3,251.5,0.25,49,132.0
4357,C#4,251.5,0.25,49,132.0
4358,F4,251.5,0.25,49,132.0
4359,B-4,252.0,4.0,88,132.0
4360,B-2,252.0,2.0,90,132.0
4361,B-4,252.0,0.125,90,132.0
4362,B-3,252.0,4.0,65,132.0
4363,A4,252.0,0.125,70,132.0
4364,B1,252.0,0.125,50,132.0
4365,B-2,252.0,0.5,49,132.0
4366,F3,252.0,0.5,49,132.0
4367,B-3,252.0,0.5,49,132.0
4368,C#4,252.0,0.5,49,132.0
4369,F4,252.0,0.5,49,132.0
4370,B-4,252.5,0.5,100,132.0
4371,B-4,252.5,0.125,90,132.0
4372,A4,252.5,0.125,70,132.0
4373,B-2,252.5,0.125,49,132.0
4374,F3,252.5,0.125,49,132.0
4375,B-3,252.5,0.125,49,132.0
4376,C#4,252.5,0.125,49,132.0
4377,F4,252.5,0.125,49,132.0
4378,B-4,252.75,0.125,90,132.0
4379,A4,252.75,0.125,70,132.0
4380,B-2,252.75,0.125,49,132.0
4381,F3,252.75,0.125,49,132.0
4382,B-3,252.75,0.125,49,132.0
4383,C#4,252.75,0.125,49,132.0
4384,F4,252.75,0.125,49,132.0
4385,B-4,253.0,0.5,100,132.0
4386,B-4,253.0,0.125,90,132.0
4387,D2,253.0,0.125,70,132.0
4388,C#2,253.0,0.125,70,132.0
4389,A4,253.0,0.125,70,132.0
4390,B-2,253.0,0.125,49,132.0
4391,F3,253.0,0.125,49,132.0
4392,B-3,253.0,0.125,49,132.0
4393,C#4,253.0,0.125,49,132.0
4394,F4,253.0,0.125,49,132.0
4395,G#4,253.5,0.5,100,132.0
4396,C#5,253.5,0.125,90,132.0
4397,C#2,253.5,0.125,70,132.0
4398,B-2,253.5,0.5,49,132.0
4399,F3,253.5,0.5,49,132.0
4400,B-3,253.5,0.5,49,132.0
4401,C#4,253.5,0.5,49,132.0
4402,F4,253.5,0.5,49,132.0
4403,B-4,254.0,1.0,100,132.0
4404,F2,254.0,1.0,90,132.0
4405,F5,254.0,0.125,90,132.0
4406,A4,254.0,0.125,70,132.0
4407,B1,254.0,0.125,50,132.0
4408,B-2,254.0,0.5,49,132.0
4409,F3,254.0,0.5,49,132.0
4410,B-3,254.0,0.5,49,132.0
4411,C#4,254.0,0.5,49,132.0
4412,F4,254.0,0.5,49,132.0
4413,C#5,254.5,0.125,90,132.0
4414,A4,254.5,0.125,70,132.0
4415,B-2,254.5,0.25,49,132.0
4416,F3,254.5,0.25,49,132.0
4417,B-3,254.5,0.25,49,132.0
4418,C#4,254.5,0.25,49,132.0
4419,F4,254.5,0.25,49,132.0
4420,G#2,255.0,1.0,90,132.0
4421,B-4,255.0,0.125,90,132.0
4422,E2,255.0,0.125,70,132.0
4423,C#2,255.0,0.125,70,132.0
4424,B-2,255.0,0.5,49,132.0
4425,F3,255.0,0.5,49,132.0
4426,B-3,255.0,0.5,49,132.0
4427,C#4,255.0,0.5,49,132.0
4428,F4,255.0,0.5,49,132.0
4429,G#4,255.5,0.5,100,132.0
4430,G#4,255.5,0.125,90,132.0
4431,B-2,255.5,0.25,49,132.0
4432,F3,255.5,0.25,49,132.0
4433,B-3,255.5,0.25,49,132.0
4434,C#4,255.5,0.25,49,132.0
4435,F4,255.5,0.25,49,132.0
4436,B-4,256.0,4.0,88,132.0
4437,B-4,256.0,0.5,100,132.0
4438,B-2,256.0,2.0,90,132.0
4439,B-4,256.0,0.125,90,132.0
4440,B-3,256.0,4.0,65,132.0
4441,A4,256.0,0.125,70,132.0
4442,B1,256.0,0.125,50,132.0
4443,B-2,256.0,0.5,49,132.0
4444,F3,256.0,0.5,49,132.0
4445,B-3,256.0,0.5,49,132.0
4446,C#4,256.0,0.5,49,132.0
4447,F4,256.0,0.5,49,132.0
4448,C#5,256.5,1.0,100,132.0
4449,B-4,256.5,0.125,90,132.0
4450,A4,256.5,0.125,70,132.0
4451,B-2,256.5,0.125,49,132.0
4452,F3,256.5,0.125,49,132.0
4453,B-3,256.5,0.125,49,132.0
4454,C#4,256.5,0.125,49,132.0
4455,F4,256.5,0.125,49,132.0
4456,B-4,256.75,0.125,90,132.0
4457,A4,256.75,0.125,70,132.0
4458,B-2,256.75,0.125,49,132.0
4459,F3,256.75,0.125,49,132.0
4460,B-3,256.75,0.125,49,132.0
4461,C#4,256.75,0.125,49,132.0
4462,F4,256.75,0.125,49,132.0
4463,B-4,257.0,0.125,90,132.0
4464,D2,257.0,0.125,70,132.0
4465,C#2,257.0,0.125,70,132.0
4466,A4,257.0,0.125,70,132.0
4467,B-2,257.0,0.125,49,132.0
4468,F3,257.0,0.125,49,132.0
4469,B-3,257.0,0.125,49,132.0
4470,C#4,257.0,0.125,49,132.0
4471,F4,257.0,0.125,49,132.0
4472,B-4,257.5,1.0,100,132.0
4473,C#5,257.5,0.125,90,132.0
4474,C#2,257.5,0.125,70,132.0
4475,B-2,257.5,0.5,49,132.0
4476,F3,257.5,0.5,49,132.0
4477,B-3,257.5,0.5,49,132.0
4478,C#4,257.5,0.5,49,132.0
4479,F4,257.5,0.5,49,132.0
4480,F2,258.0,1.0,90,132.0
4481,F5,258.0,0.125,90,132.0
4482,B-3,258.0,0.5,80,132.0
4483,A4,258.0,0.125,70,132.0
4484,B1,258.0,0.125,50,132.0
4485,B-2,258.0,0.5,49,132.0
4486,F3,258.0,0.5,49,132.0
4487,B-3,258.0,0.5,49,132.0
4488,C#4,258.0,0.5,49,132.0
4489,F4,258.0,0.5,49,132.0
4490,C#5,258.5,0.125,90,132.0
4491,G#3,258.5,0.5,80,132.0
4492,A4,258.5,0.125,70,132.0
4493,B-2,258.5,0.25,49,132.0
4494,F3,258.5,0.25,49,132.0
4495,B-3,258.5,0.25,49,132.0
4496,C#4,258.5,0.25,49,132.0
4497,F4,258.5,0.25,49,132.0
4498,G#2,259.0,1.0,90,132.0
4499,B-4,259.0,0.125,90,132.0
4500,B-3,259.0,0.5,80,132.0
4501,E2,259.0,0.125,70,132.0
4502,C#2,259.0,0.125,70,132.0
4503,B-2,259.0,0.5,49,132.0
4504,F3,259.0,0.5,49,132.0
4505,B-3,259.0,0.5,49,132.0
4506,C#4,259.0,0.5,49,132.0
4507,F4,259.0,0.5,49,132.0
4508,G#4,259.5,0.125,90,132.0
4509,G#3,259.5,0.5,80,132.0
4510,B-2,259.5,0.25,49,132.0
4511,F3,259.5,0.25,49,132.0
4512,B-3,259.5,0.25,49,132.0
4513,C#4,259.5,0.25,49,132.0
4514,F4,259.5,0.25,49,132.0
4515,C#5,260.0,4.0,88,132.0
4516,C#2,260.0,2.0,90,132.0
4517,C#5,260.0,0.125,90,132.0
4518,C#4,260.0,4.0,65,132.0
4519,A4,260.0,0.125,70,132.0
4520,B1,260.0,0.125,50,132.0
4521,G#2,260.0,0.5,49,132.0
4522,C#3,260.0,0.5,49,132.0
4523,F3,260.0,0.5,49,132.0
4524,G#3,260.0,0.5,49,132.0
4525,C#4,260.0,0.5,49,132.0
4526,F4,260.0,0.5,49,132.0
4527,C#5,260.5,0.125,90,132.0
4528,A4,260.5,0.125,70,132.0
4529,G#2,260.5,0.125,49,132.0
4530,C#3,260.5,0.125,49,132.0
4531,F3,260.5,0.125,49,132.0
4532,G#3,260.5,0.125,49,132.0
4533,C#4,260.5,0.125,49,132.0
4534,F4,260.5,0.125,49,132.0
4535,C#5,260.75,0.125,90,132.0
4536,A4,260.75,0.125,70,132.0
4537,G#2,260.75,0.125,49,132.0
4538,C#3,260.75,0.125,49,132.0
4539,F3,260.75,0.125,49,132.0
4540,G#3,260.75,0.125,49,132.0
4541,C#4,260.75,0.125,49,132.0
4542,F4,260.75,0.125,49,132.0
4543,C#5,261.0,0.5,100,132.0
4544,C#5,261.0,0.125,90,132.0
4545,D2,261.0,0.125,70,132.0
4546,C#2,261.0,0.125,70,132.0
4547,A4,261.0,0.125,70,132.0
4548,G#2,261.0,0.125,49,132.0
4549,C#3,261.0,0.125,49,132.0
4550,F3,261.0,0.125,49,132.0
4551,G#3,261.0,0.125,49,132.0
4552,C#4,261.0,0.125,49,132.0
4553,F4,261.0,0.125,49,132.0
4554,G#4,261.5,0.5,100,132.0
4555,F5,261.5,0.125,90,132.0
4556,C#2,261.5,0.125,70,132.0
4557,G#2,261.5,0.5,49,132.0
4558,C#3,261.5,0.5,49,132.0
4559,F3,261.5,0.5,49,132.0
4560,G#3,261.5,0.5,49,132.0
4561,C#4,261.5,0.5,49,132.0
4562,F4,261.5,0.5,49,132.0
4563,C#5,262.0,1.5,100,132.0
4564,F2,262.0,1.0,90,132.0
4565,G#5,262.0,0.125,90,132.0
4566,A4,262.0,0.125,70,132.0
4567,B1,262.0,0.125,50,132.0
4568,G#2,262.0,0.5,49,132.0
4569,C#3,262.0,0.5,49,132.0
4570,F3,262.0,0.5,49,132.0
4571,G#3,262.0,0.5,49,132.0
4572,C#4,262.0,0.5,49,132.0
4573,F4,262.0,0.5,49,132.0
4574,F5,262.5,0.125,90,132.0
4575,A4,262.5,0.125,70,132.0
4576,G#2,262.5,0.25,49,132.0
4577,C#3,262.5,0.25,49,132.0
4578,F3,262.5,0.25,49,132.0
4579,G#3,262.5,0.25,49,132.0
4580,C#4,262.5,0.25,49,132.0
4581,F4,262.5,0.25,49,132.0
4582,G#2,263.0,1.0,90,132.0
4583,C#5,263.0,0.125,90,132.0
4584,E2,263.0,0.125,70,132.0
4585,C#2,263.0,0.125,70,132.0
4586,G#2,263.0,0.5,49,132.0
4587,C#3,263.0,0.5,49,132.0
4588,F3,263.0,0.5,49,132.0
4589,G#3,263.0,0.5,49,132.0
4590,C#4,263.0,0.5,49,132.0
4591,F4,263.0,0.5,49,132.0
4592,G#4,263.5,0.5,100,132.0
4593,B-4,263.5,0.125,90,132.0
4594,G#2,263.5,0.25,49,132.0
4595,C#3,263.5,0.25,49,132.0
4596,F3,263.5,0.25,49,132.0
4597,G#3,263.5,0.25,49,132.0
4598,C#4,263.5,0.25,49,132.0
4599,F4,263.5,0.25,49,132.0
4600,C#5,264.0,4.0,88,132.0
4601,C#5,264.0,0.5,100,132.0
4602,C#2,264.0,2.0,90,132.0
4603,C#5,264.0,0.125,90,132.0
4604,C#4,264.0,4.0,65,132.0
4605,A4,264.0,0.125,70,132.0
4606,B1,264.0,0.125,50,132.0
4607,G#2,264.0,0.5,49,132.0
4608,C#3,264.0,0.5,49,132.0
4609,F3,264.0,0.5,49,132.0
4610,G#3,264.0,0.5,49,132.0
4611,C#4,264.0,0.5,49,132.0
4612,F4,264.0,0.5,49,132.0
4613,E-5,264.5,1.0,100,132.0
4614,C#5,264.5,0.125,90,132.0
4615,A4,264.5,0.125,70,132.0
4616,G#2,264.5,0.125,49,132.0
4617,C#3,264.5,0.125,49,132.0
4618,F3,264.5,0.125,49,132.0
4619,G#3,264.5,0.125,49,132.0
4620,C#4,264.5,0.125,49,132.0
4621,F4,264.5,0.125,49,132.0
4622,C#5,264.75,0.125,90,132.0
4623,A4,264.75,0.125,70,132.0
4624,G#2,264.75,0.125,49,132.0
4625,C#3,264.75,0.125,49,132.0
4626,F3,264.75,0.125,49,132.0
4627,G#3,264.75,0.125,49,132.0
4628,C#4,264.75,0.125,49,132.0
4629,F4,264.75,0.125,49,132.0
4630,C#5,265.0,0.125,90,132.0
4631,D2,265.0,0.125,70,132.0
4632,C#2,265.0,0.125,70,132.0
4633,A4,265.0,0.125,70,132.0
4634,G#2,265.0,0.125,49,132.0
4635,C#3,265.0,0.125,49,132.0
4636,F3,265.0,0.125,49,132.0
4637,G#3,265.0,0.125,49,132.0
4638,C#4,265.0,0.125,49,132.0
4639,F4,265.0,0.125,49,132.0
4640,F5,265.5,0.5,100,132.0
4641,F5,265.5,0.125,90,132.0
4642,C#2,265.5,0.125,70,132.0
4643,G#2,265.5,0.5,49,132.0
4644,C#3,265.5,0.5,49,132.0
4645,F3,265.5,0.5,49,132.0
4646,G#3,265.5,0.5,49,132.0
4647,C#4,265.5,0.5,49,132.0
4648,F4,265.5,0.5,49,132.0
4649,E-5,266.0,0.5,100,132.0
4650,F2,266.0,1.0,90,132.0
4651,G#5,266.0,0.125,90,132.0
4652,C#4,266.0,0.5,80,132.0
4653,A4,266.0,0.125,70,132.0
4654,B1,266.0,0.125,50,132.0
4655,G#2,266.0,0.5,49,132.0
4656,C#3,266.0,0.5,49,132.0
4657,F3,266.0,0.5,49,132.0
4658,G#3,266.0,0.5,49,132.0
4659,C#4,266.0,0.5,49,132.0
4660,F4,266.0,0.5,49,132.0
4661,C#5,266.5,1.0,100,132.0
4662,F5,266.5,0.125,90,132.0
4663,C4,266.5,0.5,80,132.0
4664,A4,266.5,0.125,70,132.0
4665,G#2,266.5,0.25,49,132.0
4666,C#3,266.5,0.25,49,132.0
4667,F3,266.5,0.25,49,132.0
4668,G#3,266.5,0.25,49,132.0
4669,C#4,266.5,0.25,49,132.0
4670,F4,266.5,0.25,49,132.0
4671,G#2,267.0,1.0,90,132.0
4672,C#5,267.0,0.125,90,132.0
4673,C#4,267.0,0.5,80,132.0
4674,E2,267.0,0.125,70,132.0
4675,C#2,267.0,0.125,70,132.0
4676,G#2,267.0,0.5,49,132.0
4677,C#3,267.0,0.5,49,132.0
4678,F3,267.0,0.5,49,132.0
4679,G#3,267.0,0.5,49,132.0
4680,C#4,267.0,0.5,49,132.0
4681,F4,267.0,0.5,49,132.0
4682,B-4,267.5,0.125,90,132.0
4683,C4,267.5,0.5,80,132.0
4684,G#2,267.5,0.25,49,132.0
4685,C#3,267.5,0.25,49,132.0
4686,F3,267.5,0.25,49,132.0
4687,G#3,267.5,0.25,49,132.0
4688,C#4,267.5,0.25,49,132.0
4689,F4,267.5,0.25,49,132.0
4690,B-4,268.0,4.0,88,132.0
4691,B-2,268.0,2.0,90,132.0
4692,B-4,268.0,0.125,90,132.0
4693,B-3,268.0,4.0,65,132.0
4694,B-3,268.0,0.5,80,132.0
4695,A4,268.0,0.125,70,132.0
4696,B1,268.0,0.125,50,132.0
4697,B-2,268.0,0.5,49,132.0
4698,F3,268.0,0.5,49,132.0
4699,B-3,268.0,0.5,49,132.0
4700,C#4,268.0,0.5,49,132.0
4701,F4,268.0,0.5,49,132.0
4702,B-4,268.5,0.5,100,132.0
4703,B-4,268.5,0.125,90,132.0
4704,A4,268.5,0.125,70,132.0
4705,B-2,268.5,0.125,49,132.0
4706,F3,268.5,0.125,49,132.0
4707,B-3,268.5,0.125,49,132.0
4708,C#4,268.5,0.125,49,132.0
4709,F4,268.5,0.125,49,132.0
4710,B-4,268.75,0.125,90,132.0
4711,A4,268.75,0.125,70,132.0
4712,B-2,268.75,0.125,49,132.0
4713,F3,268.75,0.125,49,132.0
4714,B-3,268.75,0.125,49,132.0
4715,C#4,268.75,0.125,49,132.0
4716,F4,268.75,0.125,49,132.0
4717,B-4,269.0,0.5,100,132.0
4718,B-4,269.0,0.125,90,132.0
4719,D2,269.0,0.125,70,132.0
4720,C#2,269.0,0.125,70,132.0
4721,A4,269.0,0.125,70,132.0
4722,B-2,269.0,0.125,49,132.0
4723,F3,269.0,0.125,49,132.0
4724,B-3,269.0,0.125,49,132.0
4725,C#4,269.0,0.125,49,132.0
4726,F4,269.0,0.125,49,132.0
4727,G#4,269.5,0.5,100,132.0
4728,C#5,269.5,0.125,90,132.0
4729,C#2,269.5,0.125,70,132.0
4730,B-2,269.5,0.5,49,132.0
4731,F3,269.5,0.5,49,132.0
4732,B-3,269.5,0.5,49,132.0
4733,C#4,269.5,0.5,49,132.0
4734,F4,269.5,0.5,49,132.0
4735,B-4,270.0,1.5,100,132.0
4736,F2,270.0,1.0,90,132.0
4737,F5,270.0,0.125,90,132.0
4738,A4,270.0,0.125,70,132.0
4739,B1,270.0,0.125,50,132.0
4740,B-2,270.0,0.5,49,132.0
4741,F3,270.0,0.5,49,132.0
4742,B-3,270.0,0.5,49,132.0
4743,C#4,270.0,0.5,49,132.0
4744,F4,270.0,0.5,49,132.0
4745,C#5,270.5,0.125,90,132.0
4746,A4,270.5,0.125,70,132.0
4747,B-2,270.5,0.25,49,132.0
4748,F3,270.5,0.25,49,132.0
4749,B-3,270.5,0.25,49,132.0
4750,C#4,270.5,0.25,49,132.0
4751,F4,270.5,0.25,49,132.0
4752,G#2,271.0,1.0,90,132.0
4753,B-4,271.0,0.125,90,132.0
4754,E2,271.0,0.125,70,132.0
4755,C#2,271.0,0.125,70,132.0
4756,B-2,271.0,0.5,49,132.0
4757,F3,271.0,0.5,49,132.0
4758,B-3,271.0,0.5,49,132.0
4759,C#4,271.0,0.5,49,132.0
4760,F4,271.0,0.5,49,132.0
4761,G#4,271.5,0.5,100,132.0
4762,G#4,271.5,0.125,90,132.0
4763,B-2,271.5,0.25,49,132.0
4764,F3,271.5,0.25,49,132.0
4765,B-3,271.5,0.25,49,132.0
4766,C#4,271.5,0.25,49,132.0
4767,F4,271.5,0.25,49,132.0
4768,B-4,272.0,4.0,88,132.0
4769,B-4,272.0,0.5,100,132.0
4770,B-2,272.0,2.0,90,132.0
4771,B-4,272.0,0.125,90,132.0
4772,B-3,272.0,4.0,65,132.0
4773,A4,272.0,0.125,70,132.0
4774,B1,272.0,0.125,50,132.0
4775,B-2,272.0,0.5,49,132.0
4776,F3,272.0,0.5,49,132.0
4777,B-3,272.0,0.5,49,132.0
4778,C#4,272.0,0.5,49,132.0
4779,F4,272.0,0.5,49,132.0
4780,C#5,272.5,1.0,100,132.0
4781,B-4,272.5,0.125,90,132.0
4782,A4,272.5,0.125,70,132.0
4783,B-2,272.5,0.125,49,132.0
4784,F3,272.5,0.125,49,132.0
4785,B-3,272.5,0.125,49,132.0
4786,C#4,272.5,0.125,49,132.0
4787,F4,272.5,0.125,49,132.0
4788,B-4,272.75,0.125,90,132.0
4789,A4,272.75,0.125,70,132.0
4790,B-2,272.75,0.125,49,132.0
4791,F3,272.75,0.125,49,132.0
4792,B-3,272.75,0.125,49,132.0
4793,C#4,272.75,0.125,49,132.0
4794,F4,272.75,0.125,49,132.0
4795,B-4,273.0,0.125,90,132.0
4796,D2,273.0,0.125,70,132.0
4797,C#2,273.0,0.125,70,132.0
4798,A4,273.0,0.125,70,132.0
4799,B-2,273.0,0.125,49,132.0
4800,F3,273.0,0.125,49,132.0
4801,B-3,273.0,0.125,49,132.0
4802,C#4,273.0,0.125,49,132.0
4803,F4,273.0,0.125,49,132.0
4804,B-4,273.5,0.75,100,132.0
4805,C#5,273.5,0.125,90,132.0
4806,C#2,273.5,0.125,70,132.0
4807,B-2,273.5,0.5,49,132.0
4808,F3,273.5,0.5,49,132.0
4809,B-3,273.5,0.5,49,132.0
4810,C#4,273.5,0.5,49,132.0
4811,F4,273.5,0.5,49,132.0
4812,F2,274.0,1.0,90,132.0
4813,F5,274.0,0.125,90,132.0
4814,B-3,274.0,0.5,80,132.0
4815,A4,274.0,0.125,70,132.0
4816,B1,274.0,0.125,50,132.0
4817,B-2,274.0,0.5,49,132.0
4818,F3,274.0,0.5,49,132.0
4819,B-3,274.0,0.5,49,132.0
4820,C#4,274.0,0.5,49,132.0
4821,F4,274.0,0.5,49,132.0
4822,G#4,274.5,0.5,100,132.0
4823,C#5,274.5,0.125,90,132.0
4824,G#3,274.5,0.5,80,132.0
4825,A4,274.5,0.125,70,132.0
4826,B-2,274.5,0.25,49,132.0
4827,F3,274.5,0.25,49,132.0
4828,B-3,274.5,0.25,49,132.0
4829,C#4,274.5,0.25,49,132.0
4830,F4,274.5,0.25,49,132.0
4831,B-4,275.0,0.5,100,132.0
4832,G#2,275.0,1.0,90,132.0
4833,B-4,275.0,0.125,90,132.0
4834,B-3,275.0,0.5,80,132.0
4835,E2,275.0,0.125,70,132.0
4836,C#2,275.0,0.125,70,132.0
4837,B-2,275.0,0.5,49,132.0
4838,F3,275.0,0.5,49,132.0
4839,B-3,275.0,0.5,49,132.0
4840,C#4,275.0,0.5,49,132.0
4841,F4,275.0,0.5,49,132.0
4842,G#4,275.5,0.5,100,132.0
4843,G#4,275.5,0.125,90,132.0
4844,G#3,275.5,0.5,80,132.0
4845,B-2,275.5,0.25,49,132.0
4846,F3,275.5,0.25,49,132.0
4847,B-3,275.5,0.25,49,132.0
4848,C#4,275.5,0.25,49,132.0
4849,F4,275.5,0.25,49,132.0
4850,C#5,276.0,0.75,100,132.0
4851,C#2,276.0,0.25,90,132.0
4852,C#5,277.0,0.5,88,132.0
4853,C#2,277.0,0.25,90,132.0
4854,C#4,277.0,0.5,65,132.0
4855,F#3,277.0,0.25,100,132.0
4856,B1,277.0,0.125,50,132.0
4857,G#2,277.0,0.25,49,132.0
4858,C#3,277.0,0.25,49,132.0
4859,F3,277.0,0.25,49,132.0
4860,G#3,277.0,0.25,49,132.0
4861,C#4,277.0,0.25,49,132.0
4862,F4,277.0,0.25,49,132.0
4863,C#5,277.5,0.5,88,132.0
4864,C#2,277.5,0.25,90,132.0
4865,C#4,277.5,0.5,65,132.0
4866,F#3,277.5,0.25,100,132.0
4867,B1,277.5,0.125,50,132.0
4868,G#2,277.5,0.25,49,132.0
4869,C#3,277.5,0.25,49,132.0
4870,F3,277.5,0.25,49,132.0
4871,G#3,277.5,0.25,49,132.0
4872,C#4,277.5,0.25,49,132.0
4873,F4,277.5,0.25,49,132.0
4874,C#5,279.0,0.5,88,132.0
4875,C#2,279.0,0.25,90,132.0
4876,C#4,279.0,0.5,65,132.0
4877,F#3,279.0,0.25,100,132.0
4878,B1,279.0,0.125,50,132.0
4879,G#2,279.0,0.25,49,132.0
4880,C#3,279.0,0.25,49,132.0
4881,F3,279.0,0.25,49,132.0
4882,G#3,279.0,0.25,49,132.0
4883,C#4,279.0,0.25,49,132.0
4884,F4,279.0,0.25,49,132.0
4885,C#5,279.5,0.5,100,132.0
4886,E-5,280.0,0.75,100,132.0
4887,G#2,280.0,0.25,90,132.0
4888,E-5,281.0,0.5,88,132.0
4889,G#2,281.0,0.25,90,132.0
4890,E-4,281.0,0.5,65,132.0
4891,F#3,281.0,0.25,100,132.0
4892,B1,281.0,0.125,50,132.0
4893,G#2,281.0,0.25,49,132.0
4894,C3,281.0,0.25,49,132.0
4895,E-3,281.0,0.25,49,132.0
4896,G#3,281.0,0.25,49,132.0
4897,C4,281.0,0.25,49,132.0
4898,F#4,281.0,0.25,49,132.0
4899,E-5,281.5,0.5,88,132.0
4900,G#2,281.5,0.25,90,132.0
4901,E-4,281.5,0.5,65,132.0
4902,F#3,281.5,0.25,100,132.0
4903,B1,281.5,0.125,50,132.0
4904,G#2,281.5,0.25,49,132.0
4905,C3,281.5,0.25,49,132.0
4906,E-3,281.5,0.25,49,132.0
4907,G#3,281.5,0.25,49,132.0
4908,C4,281.5,0.25,49,132.0
4909,F#4,281.5,0.25,49,132.0
4910,E-5,283.0,0.5,88,132.0
4911,G#2,283.0,0.25,90,132.0
4912,E-4,283.0,0.5,65,132.0
4913,F#3,283.0,0.25,100,132.0
4914,B1,283.0,0.125,50,132.0
4915,G#2,283.0,0.25,49,132.0
4916,C3,283.0,0.25,49,132.0
4917,E-3,283.0,0.25,49,132.0
4918,G#3,283.0,0.25,49,132.0
4919,C4,283.0,0.25,49,132.0
4920,F#4,283.0,0.25,49,132.0
4921,E-5,283.5,0.5,100,132.0
4922,F5,284.0,0.5,100,132.0
4923,C#2,284.0,0.25,90,132.0
4924,E-5,284.5,0.5,100,132.0
4925,C#5,285.0,0.5,88,132.0
4926,C#5,285.0,1.0,100,132.0
4927,C#2,285.0,0.25,90,132.0
4928,C#4,285.0,0.5,65,132.0
4929,F#3,285.0,0.25,100,132.0
4930,B1,285.0,0.125,50,132.0
4931,G#2,285.0,0.25,49,132.0
4932,C#3,285.0,0.25,49,132.0
4933,F3,285.0,0.25,49,132.0
4934,G#3,285.0,0.25,49,132.0
4935,C#4,285.0,0.25,49,132.0
4936,F4,285.0,0.25,49,132.0
4937,C#5,285.5,0.5,88,132.0
4938,C#2,285.5,0.25,90,132.0
4939,C#4,285.5,0.5,65,132.0
4940,F#3,285.5,0.25,100,132.0
4941,B1,285.5,0.125,50,132.0
4942,G#2,285.5,0.25,49,132.0
4943,C#3,285.5,0.25,49,132.0
4944,F3,285.5,0.25,49,132.0
4945,G#3,285.5,0.25,49,132.0
4946,C#4,285.5,0.25,49,132.0
4947,F4,285.5,0.25,49,132.0
4948,C#5,287.0,0.5,88,132.0
4949,C#2,287.0,0.25,90,132.0
4950,C#4,287.0,0.5,65,132.0
4951,F#3,287.0,0.25,100,132.0
4952,B1,287.0,0.125,50,132.0
4953,G#2,287.0,0.25,49,132.0
4954,C#3,287.0,0.25,49,132.0
4955,F3,287.0,0.25,49,132.0
4956,G#3,287.0,0.25,49,132.0
4957,C#4,287.0,0.25,49,132.0
4958,F4,287.0,0.25,49,132.0
4959,F5,287.5,0.5,100,132.0
4960,F#5,288.0,0.5,100,132.0
4961,F#2,288.0,0.25,90,132.0
4962,C#5,288.5,1.0,100,132.0
4963,F#5,289.0,0.5,88,132.0
4964,F#2,289.0,0.25,90,132.0
4965,F#4,289.0,0.5,65,132.0
4966,F#3,289.0,0.25,100,132.0
4967,B1,289.0,0.125,50,132.0
4968,F#2,289.0,0.25,49,132.0
4969,C#3,289.0,0.25,49,132.0
4970,F#3,289.0,0.25,49,132.0
4971,B-3,289.0,0.25,49,132.0
4972,C#4,289.0,0.25,49,132.0
4973,F#4,289.0,0.25,49,132.0
4974,F#5,289.5,0.5,88,132.0
4975,F#2,289.5,0.25,90,132.0
4976,F#4,289.5,0.5,65,132.0
4977,F#3,289.5,0.25,100,132.0
4978,B1,289.5,0.125,50,132.0
4979,F#2,289.5,0.25,49,132.0
4980,C#3,289.5,0.25,49,132.0
4981,F#3,289.5,0.25,49,132.0
4982,B-3,289.5,0.25,49,132.0
4983,C#4,289.5,0.25,49,132.0
4984,F#4,289.5,0.25,49,132.0
4985,C#5,290.5,0.5,100,132.0
4986,E2,290.5,0.125,70,132.0
4987,F#5,291.0,0.5,88,132.0
4988,E-5,291.0,0.5,100,132.0
4989,F#2,291.0,0.25,90,132.0
4990,F#4,291.0,0.5,65,132.0
4991,E2,291.0,0.125,70,132.0
4992,B1,291.0,0.125,50,132.0
4993,F#2,291.0,0.25,49,132.0
4994,C#3,291.0,0.25,49,132.0
4995,F#3,291.0,0.25,49,132.0
4996,B-3,291.0,0.25,49,132.0
4997,C#4,291.0,0.25,49,132.0
4998,F#4,291.0,0.25,49,132.0
4999,C#5,291.5,0.5,100,132.0
5000,D2,291.5,0.125,70,132.0
5001,G#5,292.0,2.0,88,132.0
5002,F5,292.0,1.5,100,132.0
5003,C#2,292.0,2.0,90,132.0
5004,G#4,292.0,2.0,65,132.0
5005,G#2,292.0,0.5,49,132.0
5006,C#3,292.0,0.5,49,132.0
5007,F3,292.0,0.5,49,132.0
5008,G#3,292.0,0.5,49,132.0
5009,C#4,292.0,0.5,49,132.0
5010,F4,292.0,0.5,49,132.0
5011,B1,292.0,0.125,50,132.0
5012,B1,292.0,0.125,50,132.0
5013,A4,292.5,0.125,70,132.0
5014,G#2,292.5,0.125,49,132.0
5015,C#3,292.5,0.125,49,132.0
5016,F3,292.5,0.125,49,132.0
5017,G#3,292.5,0.125,49,132.0
5018,C#4,292.5,0.125,49,132.0
5019,F4,292.5,0.125,49,132.0
5020,A4,292.75,0.125,70,132.0
5021,G#2,292.75,0.125,49,132.0
5022,C#3,292.75,0.125,49,132.0
5023,F3,292.75,0.125,49,132.0
5024,G#3,292.75,0.125,49,132.0
5025,C#4,292.75,0.125,49,132.0
5026,F4,292.75,0.125,49,132.0
5027,D2,293.0,0.125,70,132.0
5028,C#2,293.0,0.125,70,132.0
5029,A4,293.0,0.125,70,132.0
5030,G#2,293.0,0.125,49,132.0
5031,C#3,293.0,0.125,49,132.0
5032,F3,293.0,0.125,49,132.0
5033,G#3,293.0,0.125,49,132.0
5034,C#4,293.0,0.125,49,132.0
5035,F4,293.0,0.125,49,132.0
5036,C#2,293.5,0.125,70,132.0
5037,G#2,293.5,0.5,49,132.0
5038,C#3,293.5,0.5,49,132.0
5039,F3,293.5,0.5,49,132.0
5040,G#3,293.5,0.5,49,132.0
5041,C#4,293.5,0.5,49,132.0
5042,F4,293.5,0.5,49,132.0
5043,B-5,294.0,2.0,88,132.0
5044,C#5,294.0,0.5,100,132.0
5045,B-2,294.0,2.0,90,132.0
5046,B-4,294.0,2.0,65,132.0
5047,A4,294.0,0.125,70,132.0
5048,B1,294.0,0.125,50,132.0
5049,B-2,294.0,0.5,49,132.0
5050,F3,294.0,0.5,49,132.0
5051,B-3,294.0,0.5,49,132.0
5052,C#4,294.0,0.5,49,132.0
5053,F4,294.0,0.5,49,132.0
5054,E-5,294.5,1.0,100,132.0
5055,A4,294.5,0.125,70,132.0
5056,B-2,294.5,0.25,49,132.0
5057,F3,294.5,0.25,49,132.0
5058,B-3,294.5,0.25,49,132.0
5059,C#4,294.5,0.25,49,132.0
5060,F4,294.5,0.25,49,132.0
5061,E2,295.0,0.125,70,132.0
5062,C#2,295.0,0.125,70,132.0
5063,B-2,295.0,0.5,49,132.0
5064,F3,295.0,0.5,49,132.0
5065,B-3,295.0,0.5,49,132.0
5066,C#4,295.0,0.5,49,132.0
5067,F4,295.0,0.5,49,132.0
5068,G#4,295.5,0.5,100,132.0
5069,B-2,295.5,0.25,49,132.0
5070,F3,295.5,0.25,49,132.0
5071,B-3,295.5,0.25,49,132.0
5072,C#4,295.5,0.25,49,132.0
5073,F4,295.5,0.25,49,132.0
5074,E-5,296.0,2.0,88,132.0
5075,B-4,296.0,0.5,100,132.0
5076,E-2,296.0,2.0,90,132.0
5077,E-4,296.0,2.0,65,132.0
5078,B1,296.0,0.125,50,132.0
5079,B-2,296.0,0.5,49,132.0
5080,E-3,296.0,0.5,49,132.0
5081,B-3,296.0,0.5,49,132.0
5082,E-4,296.0,0.5,49,132.0
5083,F#4,296.0,0.5,49,132.0
5084,C#5,296.5,0.5,100,132.0
5085,A4,296.5,0.125,70,132.0
5086,B-2,296.5,0.125,49,132.0
5087,E-3,296.5,0.125,49,132.0
5088,B-3,296.5,0.125,49,132.0
5089,E-4,296.5,0.125,49,132.0
5090,F#4,296.5,0.125,49,132.0
5091,A4,296.75,0.125,70,132.0
5092,B-2,296.75,0.125,49,132.0
5093,E-3,296.75,0.125,49,132.0
5094,B-3,296.75,0.125,49,132.0
5095,E-4,296.75,0.125,49,132.0
5096,F#4,296.75,0.125,49,132.0
5097,C#5,297.0,0.5,100,132.0
5098,D2,297.0,0.125,70,132.0
5099,C#2,297.0,0.125,70,132.0
5100,A4,297.0,0.125,70,132.0
5101,B-2,297.0,0.125,49,132.0
5102,E-3,297.0,0.125,49,132.0
5103,B-3,297.0,0.125,49,132.0
5104,E-4,297.0,0.125,49,132.0
5105,F#4,297.0,0.125,49,132.0
5106,B-4,297.5,0.5,100,132.0
5107,C#2,297.5,0.125,70,132.0
5108,B-2,297.5,0.5,49,132.0
5109,E-3,297.5,0.5,49,132.0
5110,B-3,297.5,0.5,49,132.0
5111,E-4,297.5,0.5,49,132.0
5112,F#4,297.5,0.5,49,132.0
5113,F5,298.0,2.0,88,132.0
5114,C#5,298.0,1.0,100,132.0
5115,G#2,298.0,1.0,90,132.0
5116,F4,298.0,2.0,65,132.0
5117,A4,298.0,0.125,70,132.0
5118,B1,298.0,0.125,50,132.0
5119,B-2,298.0,0.5,49,132.0
5120,E-3,298.0,0.5,49,132.0
5121,B-3,298.0,0.5,49,132.0
5122,E-4,298.0,0.5,49,132.0
5123,F#4,298.0,0.5,49,132.0
5124,A4,298.5,0.125,70,132.0
5125,B-2,298.5,0.25,49,132.0
5126,E-3,298.5,0.25,49,132.0
5127,B-3,298.5,0.25,49,132.0
5128,E-4,298.5,0.25,49,132.0
5129,F#4,298.5,0.25,49,132.0
5130,E-5,299.0,0.5,100,132.0
5131,E2,299.0,0.125,70,132.0
5132,C#2,299.0,0.125,70,132.0
5133,G#2,299.0,0.5,49,132.0
5134,C3,299.0,0.5,49,132.0
5135,E-3,299.0,0.5,49,132.0
5136,G#3,299.0,0.5,49,132.0
5137,C4,299.0,0.5,49,132.0
5138,F#4,299.0,0.5,49,132.0
5139,C#5,299.5,0.5,100,132.0
5140,G#2,299.5,0.25,49,132.0
5141,C3,299.5,0.25,49,132.0
5142,E-3,299.5,0.25,49,132.0
5143,G#3,299.5,0.25,49,132.0
5144,C4,299.5,0.25,49,132.0
5145,F#4,299.5,0.25,49,132.0
5146,C#5,300.0,2.0,88,132.0
5147,C#5,300.0,1.0,100,132.0
5148,C#2,300.0,2.0,90,132.0
5149,C#4,300.0,2.0,65,132.0
5150,B1,300.0,0.125,50,132.0
5151,G#2,300.0,0.5,49,132.0
5152,C#3,300.0,0.5,49,132.0
5153,F3,300.0,0.5,49,132.0
5154,G#3,300.0,0.5,49,132.0
5155,C#4,300.0,0.5,49,132.0
5156,F4,300.0,0.5,49,132.0
5157,A4,300.5,0.125,70,132.0
5158,G#2,300.5,0.125,49,132.0
5159,C#3,300.5,0.125,49,132.0
5160,F3,300.5,0.125,49,132.0
5161,G#3,300.5,0.125,49,132.0
5162,C#4,300.5,0.125,49,132.0
5163,F4,300.5,0.125,49,132.0
5164,A4,300.75,0.125,70,132.0
5165,G#2,300.75,0.125,49,132.0
5166,C#3,300.75,0.125,49,132.0
5167,F3,300.75,0.125,49,132.0
5168,G#3,300.75,0.125,49,132.0
5169,C#4,300.75,0.125,49,132.0
5170,F4,300.75,0.125,49,132.0
5171,D2,301.0,0.125,70,132.0
5172,C#2,301.0,0.125,70,132.0
5173,A4,301.0,0.125,70,132.0
5174,G#2,301.0,0.125,49,132.0
5175,C#3,301.0,0.125,49,132.0
5176,F3,301.0,0.125,49,132.0
5177,G#3,301.0,0.125,49,132.0
5178,C#4,301.0,0.125,49,132.0
5179,F4,301.0,0.125,49,132.0
5180,C#2,301.5,0.125,70,132.0
5181,G#2,301.5,0.5,49,132.0
5182,C#3,301.5,0.5,49,132.0
5183,F3,301.5,0.5,49,132.0
5184,G#3,301.5,0.5,49,132.0
5185,C#4,301.5,0.5,49,132.0
5186,F4,301.5,0.5,49,132.0
5187,C#3,302.0,2.0,90,132.0
5188,C#4,302.0,0.5,80,132.0
5189,A4,302.0,0.125,70,132.0
5190,B1,302.0,0.125,50,132.0
5191,G#2,302.0,0.5,49,132.0
5192,C#3,302.0,0.5,49,132.0
5193,F3,302.0,0.5,49,132.0
5194,G#3,302.0,0.5,49,132.0
5195,C#4,302.0,0.5,49,132.0
5196,F4,302.0,0.5,49,132.0
5197,C4,302.5,0.5,80,132.0
5198,A4,302.5,0.125,70,132.0
5199,G#2,302.5,0.25,49,132.0
5200,C#3,302.5,0.25,49,132.0
5201,F3,302.5,0.25,49,132.0
5202,G#3,302.5,0.25,49,132.0
5203,C#4,302.5,0.25,49,132.0
5204,F4,302.5,0.25,49,132.0
5205,C#4,303.0,0.5,80,132.0
5206,E2,303.0,0.125,70,132.0
5207,C#2,303.0,0.125,70,132.0
5208,G#2,303.0,0.5,49,132.0
5209,C#3,303.0,0.5,49,132.0
5210,F3,303.0,0.5,49,132.0
5211,G#3,303.0,0.5,49,132.0
5212,C#4,303.0,0.5,49,132.0
5213,F4,303.0,0.5,49,132.0
5214,C4,303.5,0.5,80,132.0
5215,G#2,303.5,0.25,49,132.0
5216,C#3,303.5,0.25,49,132.0
5217,F3,303.5,0.25,49,132.0
5218,G#3,303.5,0.25,49,132.0
5219,C#4,303.5,0.25,49,132.0
5220,F4,303.5,0.25,49,132.0
5221,B-2,304.0,2.0,90,132.0
5222,G#4,304.0,0.125,90,132.0
5223,B1,304.0,0.125,50,132.0
5224,B-2,304.0,0.5,49,132.0
5225,F3,304.0,0.5,49,132.0
5226,B-3,304.0,0.5,49,132.0
5227,C#4,304.0,0.5,49,132.0
5228,F4,304.0,0.5,49,132.0
5229,F5,304.5,1.0,100,132.0
5230,G#4,304.5,0.125,90,132.0
5231,A4,304.5,0.125,70,132.0
5232,B-2,304.5,0.125,49,132.0
5233,F3,304.5,0.125,49,132.0
5234,B-3,304.5,0.125,49,132.0
5235,C#4,304.5,0.125,49,132.0
5236,F4,304.5,0.125,49,132.0
5237,G#4,304.75,0.125,90,132.0
5238,A4,304.75,0.125,70,132.0
5239,B-2,304.75,0.125,49,132.0
5240,F3,304.75,0.125,49,132.0
5241,B-3,304.75,0.125,49,132.0
5242,C#4,304.75,0.125,49,132.0
5243,F4,304.75,0.125,49,132.0
5244,G#4,305.0,0.125,90,132.0
5245,D2,305.0,0.125,70,132.0
5246,C#2,305.0,0.125,70,132.0
5247,A4,305.0,0.125,70,132.0
5248,B-2,305.0,0.125,49,132.0
5249,F3,305.0,0.125,49,132.0
5250,B-3,305.0,0.125,49,132.0
5251,C#4,305.0,0.125,49,132.0
5252,F4,305.0,0.125,49,132.0
5253,E-5,305.5,0.5,100,132.0
5254,C#5,305.5,0.125,90,132.0
5255,G#3,305.5,0.5,80,132.0
5256,C#2,305.5,0.125,70,132.0
5257,B-2,305.5,0.5,49,132.0
5258,F3,305.5,0.5,49,132.0
5259,B-3,305.5,0.5,49,132.0
5260,C#4,305.5,0.5,49,132.0
5261,F4,305.5,0.5,49,132.0
5262,C#5,306.0,1.0,100,132.0
5263,F2,306.0,1.0,90,132.0
5264,F5,306.0,0.125,90,132.0
5265,B-3,306.0,0.5,80,132.0
5266,A4,306.0,0.125,70,132.0
5267,B1,306.0,0.125,50,132.0
5268,B-2,306.0,0.5,49,132.0
5269,F3,306.0,0.5,49,132.0
5270,B-3,306.0,0.5,49,132.0
5271,C#4,306.0,0.5,49,132.0
5272,F4,306.0,0.5,49,132.0
5273,C#5,306.5,0.125,90,132.0
5274,G#3,306.5,0.5,80,132.0
5275,A4,306.5,0.125,70,132.0
5276,B-2,306.5,0.25,49,132.0
5277,F3,306.5,0.25,49,132.0
5278,B-3,306.5,0.25,49,132.0
5279,C#4,306.5,0.25,49,132.0
5280,F4,306.5,0.25,49,132.0
5281,G#4,307.0,1.0,100,132.0
5282,G#2,307.0,1.0,90,132.0
5283,B-4,307.0,0.125,90,132.0
5284,B-3,307.0,0.5,80,132.0
5285,E2,307.0,0.125,70,132.0
5286,C#2,307.0,0.125,70,132.0
5287,B-2,307.0,0.5,49,132.0
5288,F3,307.0,0.5,49,132.0
5289,B-3,307.0,0.5,49,132.0
5290,C#4,307.0,0.5,49,132.0
5291,F4,307.0,0.5,49,132.0
5292,G#4,307.5,0.125,90,132.0
5293,G#3,307.5,0.5,80,132.0
5294,B-2,307.5,0.25,49,132.0
5295,F3,307.5,0.25,49,132.0
5296,B-3,307.5,0.25,49,132.0
5297,C#4,307.5,0.25,49,132.0
5298,F4,307.5,0.25,49,132.0
5299,G#5,308.0,4.0,88,132.0
5300,B-4,308.0,0.5,100,132.0
5301,C#2,308.0,2.0,90,132.0
5302,G#4,308.0,0.125,90,132.0
5303,G#4,308.0,4.0,65,132.0
5304,B1,308.0,0.125,50,132.0
5305,G#2,308.0,0.5,49,132.0
5306,C#3,308.0,0.5,49,132.0
5307,F3,308.0,0.5,49,132.0
5308,G#3,308.0,0.5,49,132.0
5309,C#4,308.0,0.5,49,132.0
5310,F4,308.0,0.5,49,132.0
5311,C#5,308.5,0.5,100,132.0
5312,C#5,308.5,0.125,90,132.0
5313,A4,308.5,0.125,70,132.0
5314,G#2,308.5,0.125,49,132.0
5315,C#3,308.5,0.125,49,132.0
5316,F3,308.5,0.125,49,132.0
5317,G#3,308.5,0.125,49,132.0
5318,C#4,308.5,0.125,49,132.0
5319,F4,308.5,0.125,49,132.0
5320,C#5,308.75,0.125,90,132.0
5321,A4,308.75,0.125,70,132.0
5322,G#2,308.75,0.125,49,132.0
5323,C#3,308.75,0.125,49,132.0
5324,F3,308.75,0.125,49,132.0
5325,G#3,308.75,0.125,49,132.0
5326,C#4,308.75,0.125,49,132.0
5327,F4,308.75,0.125,49,132.0
5328,C#5,309.0,1.5,100,132.0
5329,C#5,309.0,0.125,90,132.0
5330,D2,309.0,0.125,70,132.0
5331,C#2,309.0,0.125,70,132.0
5332,A4,309.0,0.125,70,132.0
5333,G#2,309.0,0.125,49,132.0
5334,C#3,309.0,0.125,49,132.0
5335,F3,309.0,0.125,49,132.0
5336,G#3,309.0,0.125,49,132.0
5337,C#4,309.0,0.125,49,132.0
5338,F4,309.0,0.125,49,132.0
5339,F5,309.5,0.125,90,132.0
5340,C#4,309.5,0.5,80,132.0
5341,C#2,309.5,0.125,70,132.0
5342,G#2,309.5,0.5,49,132.0
5343,C#3,309.5,0.5,49,132.0
5344,F3,309.5,0.5,49,132.0
5345,G#3,309.5,0.5,49,132.0
5346,C#4,309.5,0.5,49,132.0
5347,F4,309.5,0.5,49,132.0
5348,F2,310.0,1.0,90,132.0
5349,G#5,310.0,0.125,90,132.0
5350,C#4,310.0,0.5,80,132.0
5351,A4,310.0,0.125,70,132.0
5352,B1,310.0,0.125,50,132.0
5353,G#2,310.0,0.5,49,132.0
5354,C#3,310.0,0.5,49,132.0
5355,F3,310.0,0.5,49,132.0
5356,G#3,310.0,0.5,49,132.0
5357,C#4,310.0,0.5,49,132.0
5358,F4,310.0,0.5,49,132.0
5359,F5,310.5,0.125,90,132.0
5360,C4,310.5,0.5,80,132.0
5361,A4,310.5,0.125,70,132.0
5362,G#2,310.5,0.25,49,132.0
5363,C#3,310.5,0.25,49,132.0
5364,F3,310.5,0.25,49,132.0
5365,G#3,310.5,0.25,49,132.0
5366,C#4,310.5,0.25,49,132.0
5367,F4,310.5,0.25,49,132.0
5368,G#2,311.0,1.0,90,132.0
5369,C#5,311.0,0.125,90,132.0
5370,C#4,311.0,0.5,80,132.0
5371,E2,311.0,0.125,70,132.0
5372,C#2,311.0,0.125,70,132.0
5373,G#2,311.0,0.5,49,132.0
5374,C#3,311.0,0.5,49,132.0
5375,F3,311.0,0.5,49,132.0
5376,G#3,311.0,0.5,49,132.0
5377,C#4,311.0,0.5,49,132.0
5378,F4,311.0,0.5,49,132.0
5379,C5,311.5,0.125,90,132.0
5380,C4,311.5,0.5,80,132.0
5381,G#2,311.5,0.25,49,132.0
5382,C#3,311.5,0.25,49,132.0
5383,F3,311.5,0.25,49,132.0
5384,G#3,311.5,0.25,49,132.0
5385,C#4,311.5,0.25,49,132.0
5386,F4,311.5,0.25,49,132.0
5387,B-5,312.0,4.0,88,132.0
5388,B-2,312.0,2.0,90,132.0
5389,G#4,312.0,0.125,90,132.0
5390,B-4,312.0,4.0,65,132.0
5391,B1,312.0,0.125,50,132.0
5392,B-2,312.0,0.5,49,132.0
5393,F3,312.0,0.5,49,132.0
5394,B-3,312.0,0.5,49,132.0
5395,C#4,312.0,0.5,49,132.0
5396,F4,312.0,0.5,49,132.0
5397,F5,312.5,0.5,100,132.0
5398,G#4,312.5,0.125,90,132.0
5399,A4,312.5,0.125,70,132.0
5400,B-2,312.5,0.125,49,132.0
5401,F3,312.5,0.125,49,132.0
5402,B-3,312.5,0.125,49,132.0
5403,C#4,312.5,0.125,49,132.0
5404,F4,312.5,0.125,49,132.0
5405,G#4,312.75,0.125,90,132.0
5406,A4,312.75,0.125,70,132.0
5407,B-2,312.75,0.125,49,132.0
5408,F3,312.75,0.125,49,132.0
5409,B-3,312.75,0.125,49,132.0
5410,C#4,312.75,0.125,49,132.0
5411,F4,312.75,0.125,49,132.0
5412,E-5,313.0,0.5,100,132.0
5413,G#4,313.0,0.125,90,132.0
5414,D2,313.0,0.125,70,132.0
5415,C#2,313.0,0.125,70,132.0
5416,A4,313.0,0.125,70,132.0
5417,B-2,313.0,0.125,49,132.0
5418,F3,313.0,0.125,49,132.0
5419,B-3,313.0,0.125,49,132.0
5420,C#4,313.0,0.125,49,132.0
5421,F4,313.0,0.125,49,132.0
5422,E-5,313.5,0.75,100,132.0
5423,C#5,313.5,0.125,90,132.0
5424,G#3,313.5,0.5,80,132.0
5425,C#2,313.5,0.125,70,132.0
5426,B-2,313.5,0.5,49,132.0
5427,F3,313.5,0.5,49,132.0
5428,B-3,313.5,0.5,49,132.0
5429,C#4,313.5,0.5,49,132.0
5430,F4,313.5,0.5,49,132.0
5431,F2,314.0,1.0,90,132.0
5432,F5,314.0,0.125,90,132.0
5433,B-3,314.0,0.5,80,132.0
5434,A4,314.0,0.125,70,132.0
5435,B1,314.0,0.125,50,132.0
5436,B-2,314.0,0.5,49,132.0
5437,F3,314.0,0.5,49,132.0
5438,B-3,314.0,0.5,49,132.0
5439,C#4,314.0,0.5,49,132.0
5440,F4,314.0,0.5,49,132.0
5441,C#5,314.5,0.5,100,132.0
5442,C#5,314.5,0.125,90,132.0
5443,G#3,314.5,0.5,80,132.0
5444,A4,314.5,0.125,70,132.0
5445,B-2,314.5,0.25,49,132.0
5446,F3,314.5,0.25,49,132.0
5447,B-3,314.5,0.25,49,132.0
5448,C#4,314.5,0.25,49,132.0
5449,F4,314.5,0.25,49,132.0
5450,G#4,315.0,0.5,100,132.0
5451,G#2,315.0,1.0,90,132.0
5452,B-4,315.0,0.125,90,132.0
5453,B-3,315.0,0.5,80,132.0
5454,E2,315.0,0.125,70,132.0
5455,C#2,315.0,0.125,70,132.0
5456,B-2,315.0,0.5,49,132.0
5457,F3,315.0,0.5,49,132.0
5458,B-3,315.0,0.5,49,132.0
5459,C#4,315.0,0.5,49,132.0
5460,F4,315.0,0.5,49,132.0
5461,B-4,315.5,0.5,100,132.0
5462,G#4,315.5,0.125,90,132.0
5463,G#3,315.5,0.5,80,132.0
5464,B-2,315.5,0.25,49,132.0
5465,F3,315.5,0.25,49,132.0
5466,B-3,315.5,0.25,49,132.0
5467,C#4,315.5,0.25,49,132.0
5468,F4,315.5,0.25,49,132.0
5469,G#5,316.0,4.0,88,132.0
5470,C#5,316.0,0.5,100,132.0
5471,C#2,316.0,2.0,90,132.0
5472,G#4,316.0,0.125,90,132.0
5473,G#4,316.0,4.0,65,132.0
5474,B1,316.0,0.125,50,132.0
5475,G#2,316.0,0.5,49,132.0
5476,C#3,316.0,0.5,49,132.0
5477,F3,316.0,0.5,49,132.0
5478,G#3,316.0,0.5,49,132.0
5479,C#4,316.0,0.5,49,132.0
5480,F4,316.0,0.5,49,132.0
5481,C#5,316.5,1.0,100,132.0
5482,C#5,316.5,0.125,90,132.0
5483,A4,316.5,0.125,70,132.0
5484,G#2,316.5,0.125,49,132.0
5485,C#3,316.5,0.125,49,132.0
5486,F3,316.5,0.125,49,132.0
5487,G#3,316.5,0.125,49,132.0
5488,C#4,316.5,0.125,49,132.0
5489,F4,316.5,0.125,49,132.0
5490,C#5,316.75,0.125,90,132.0
5491,A4,316.75,0.125,70,132.0
5492,G#2,316.75,0.125,49,132.0
5493,C#3,316.75,0.125,49,132.0
5494,F3,316.75,0.125,49,132.0
5495,G#3,316.75,0.125,49,132.0
5496,C#4,316.75,0.125,49,132.0
5497,F4,316.75,0.125,49,132.0
5498,C#5,317.0,0.125,90,132.0
5499,D2,317.0,0.125,70,132.0
5500,C#2,317.0,0.125,70,132.0
5501,A4,317.0,0.125,70,132.0
5502,G#2,317.0,0.125,49,132.0
5503,C#3,317.0,0.125,49,132.0
5504,F3,317.0,0.125,49,132.0
5505,G#3,317.0,0.125,49,132.0
5506,C#4,317.0,0.125,49,132.0
5507,F4,317.0,0.125,49,132.0
5508,F5,317.5,0.125,90,132.0
5509,C#4,317.5,0.5,80,132.0
5510,C#2,317.5,0.125,70,132.0
5511,G#2,317.5,0.5,49,132.0
5512,C#3,317.5,0.5,49,132.0
5513,F3,317.5,0.5,49,132.0
5514,G#3,317.5,0.5,49,132.0
5515,C#4,317.5,0.5,49,132.0
5516,F4,317.5,0.5,49,132.0
5517,F2,318.0,1.0,90,132.0
5518,G#5,318.0,0.125,90,132.0
5519,C#4,318.0,0.5,80,132.0
5520,A4,318.0,0.125,70,132.0
5521,B1,318.0,0.125,50,132.0
5522,G#2,318.0,0.5,49,132.0
5523,C#3,318.0,0.5,49,132.0
5524,F3,318.0,0.5,49,132.0
5525,G#3,318.0,0.5,49,132.0
5526,C#4,318.0,0.5,49,132.0
5527,F4,318.0,0.5,49,132.0
5528,F5,318.5,0.125,90,132.0
5529,C4,318.5,0.5,80,132.0
5530,A4,318.5,0.125,70,132.0
5531,G#2,318.5,0.25,49,132.0
5532,C#3,318.5,0.25,49,132.0
5533,F3,318.5,0.25,49,132.0
5534,G#3,318.5,0.25,49,132.0
5535,C#4,318.5,0.25,49,132.0
5536,F4,318.5,0.25,49,132.0
5537,G#2,319.0,1.0,90,132.0
5538,C#5,319.0,0.125,90,132.0
5539,C#4,319.0,0.5,80,132.0
5540,E2,319.0,0.125,70,132.0
5541,C#2,319.0,0.125,70,132.0
5542,G#2,319.0,0.5,49,132.0
5543,C#3,319.0,0.5,49,132.0
5544,F3,319.0,0.5,49,132.0
5545,G#3,319.0,0.5,49,132.0
5546,C#4,319.0,0.5,49,132.0
5547,F4,319.0,0.5,49,132.0
5548,C5,319.5,0.125,90,132.0
5549,C4,319.5,0.5,80,132.0
5550,G#2,319.5,0.25,49,132.0
5551,C#3,319.5,0.25,49,132.0
5552,F3,319.5,0.25,49,132.0
5553,G#3,319.5,0.25,49,132.0
5554,C#4,319.5,0.25,49,132.0
5555,F4,319.5,0.25,49,132.0
5556,B-5,320.0,4.0,88,132.0
5557,B-2,320.0,2.0,90,132.0
5558,G#4,320.0,0.125,90,132.0
5559,B-4,320.0,4.0,65,132.0
5560,B1,320.0,0.125,50,132.0
5561,B-2,320.0,0.5,49,132.0
5562,F3,320.0,0.5,49,132.0
5563,B-3,320.0,0.5,49,132.0
5564,C#4,320.0,0.5,49,132.0
5565,F4,320.0,0.5,49,132.0
5566,F5,320.5,0.5,100,132.0
5567,G#4,320.5,0.125,90,132.0
5568,A4,320.5,0.125,70,132.0
5569,B-2,320.5,0.125,49,132.0
5570,F3,320.5,0.125,49,132.0
5571,B-3,320.5,0.125,49,132.0
5572,C#4,320.5,0.125,49,132.0
5573,F4,320.5,0.125,49,132.0
5574,G#4,320.75,0.125,90,132.0
5575,A4,320.75,0.125,70,132.0
5576,B-2,320.75,0.125,49,132.0
5577,F3,320.75,0.125,49,132.0
5578,B-3,320.75,0.125,49,132.0
5579,C#4,320.75,0.125,49,132.0
5580,F4,320.75,0.125,49,132.0
5581,E-5,321.0,0.5,100,132.0
5582,G#4,321.0,0.125,90,132.0
5583,D2,321.0,0.125,70,132.0
5584,C#2,321.0,0.125,70,132.0
5585,A4,321.0,0.125,70,132.0
5586,B-2,321.0,0.125,49,132.0
5587,F3,321.0,0.125,49,132.0
5588,B-3,321.0,0.125,49,132.0
5589,C#4,321.0,0.125,49,132.0
5590,F4,321.0,0.125,49,132.0
5591,E-5,321.5,1.0,100,132.0
5592,C#5,321.5,0.125,90,132.0
5593,G#3,321.5,0.5,80,132.0
5594,C#2,321.5,0.125,70,132.0
5595,B-2,321.5,0.5,49,132.0
5596,F3,321.5,0.5,49,132.0
5597,B-3,321.5,0.5,49,132.0
5598,C#4,321.5,0.5,49,132.0
5599,F4,321.5,0.5,49,132.0
5600,F2,322.0,1.0,90,132.0
5601,F5,322.0,0.125,90,132.0
5602,B-3,322.0,0.5,80,132.0
5603,A4,322.0,0.125,70,132.0
5604,B1,322.0,0.125,50,132.0
5605,B-2,322.0,0.5,49,132.0
5606,F3,322.0,0.5,49,132.0
5607,B-3,322.0,0.5,49,132.0
5608,C#4,322.0,0.5,49,132.0
5609,F4,322.0,0.5,49,132.0
5610,C#5,322.5,0.5,100,132.0
5611,C#5,322.5,0.125,90,132.0
5612,G#3,322.5,0.5,80,132.0
5613,A4,322.5,0.125,70,132.0
5614,B-2,322.5,0.25,49,132.0
5615,F3,322.5,0.25,49,132.0
5616,B-3,322.5,0.25,49,132.0
5617,C#4,322.5,0.25,49,132.0
5618,F4,322.5,0.25,49,132.0
5619,G#4,323.0,0.5,100,132.0
5620,G#2,323.0,1.0,90,132.0
5621,B-4,323.0,0.125,90,132.0
5622,B-3,323.0,0.5,80,132.0
5623,E2,323.0,0.125,70,132.0
5624,C#2,323.0,0.125,70,132.0
5625,B-2,323.0,0.5,49,132.0
5626,F3,323.0,0.5,49,132.0
5627,B-3,323.0,0.5,49,132.0
5628,C#4,323.0,0.5,49,132.0
5629,F4,323.0,0.5,49,132.0
5630,B-4,323.5,0.5,100,132.0
5631,G#4,323.5,0.125,90,132.0
5632,G#3,323.5,0.5,80,132.0
5633,B-2,323.5,0.25,49,132.0
5634,F3,323.5,0.25,49,132.0
5635,B-3,323.5,0.25,49,132.0
5636,C#4,323.5,0.25,49,132.0
5637,F4,323.5,0.25,49,132.0
5638,G#5,324.0,4.0,88,132.0
5639,C#5,324.0,0.5,100,132.0
5640,C#2,324.0,2.0,90,132.0
5641,G#4,324.0,0.125,90,132.0
5642,G#4,324.0,4.0,65,132.0
5643,B1,324.0,0.125,50,132.0
5644,G#2,324.0,0.5,49,132.0
5645,C#3,324.0,0.5,49,132.0
5646,F3,324.0,0.5,49,132.0
5647,G#3,324.0,0.5,49,132.0
5648,C#4,324.0,0.5,49,132.0
5649,F4,324.0,0.5,49,132.0
5650,C#5,324.5,1.0,100,132.0
5651,C#5,324.5,0.125,90,132.0
5652,A4,324.5,0.125,70,132.0
5653,G#2,324.5,0.125,49,132.0
5654,C#3,324.5,0.125,49,132.0
5655,F3,324.5,0.125,49,132.0
5656,G#3,324.5,0.125,49,132.0
5657,C#4,324.5,0.125,49,132.0
5658,F4,324.5,0.125,49,132.0
5659,C#5,324.75,0.125,90,132.0
5660,A4,324.75,0.125,70,132.0
5661,G#2,324.75,0.125,49,132.0
5662,C#3,324.75,0.125,49,132.0
5663,F3,324.75,0.125,49,132.0
5664,G#3,324.75,0.125,49,132.0
5665,C#4,324.75,0.125,49,132.0
5666,F4,324.75,0.125,49,132.0
5667,C#5,325.0,0.125,90,132.0
5668,D2,325.0,0.125,70,132.0
5669,C#2,325.0,0.125,70,132.0
5670,A4,325.0,0.125,70,132.0
5671,G#2,325.0,0.125,49,132.0
5672,C#3,325.0,0.125,49,132.0
5673,F3,325.0,0.125,49,132.0
5674,G#3,325.0,0.125,49,132.0
5675,C#4,325.0,0.125,49,132.0
5676,F4,325.0,0.125,49,132.0
5677,F5,325.5,0.125,90,132.0
5678,C#4,325.5,0.5,80,132.0
5679,C#2,325.5,0.125,70,132.0
5680,G#2,325.5,0.5,49,132.0
5681,C#3,325.5,0.5,49,132.0
5682,F3,325.5,0.5,49,132.0
5683,G#3,325.5,0.5,49,132.0
5684,C#4,325.5,0.5,49,132.0
5685,F4,325.5,0.5,49,132.0
5686,F2,326.0,1.0,90,132.0
5687,G#5,326.0,0.125,90,132.0
5688,C#4,326.0,0.5,80,132.0
5689,A4,326.0,0.125,70,132.0
5690,B1,326.0,0.125,50,132.0
5691,G#2,326.0,0.5,49,132.0
5692,C#3,326.0,0.5,49,132.0
5693,F3,326.0,0.5,49,132.0
5694,G#3,326.0,0.5,49,132.0
5695,C#4,326.0,0.5,49,132.0
5696,F4,326.0,0.5,49,132.0
5697,F5,326.5,0.125,90,132.0
5698,C4,326.5,0.5,80,132.0
5699,A4,326.5,0.125,70,132.0
5700,G#2,326.5,0.25,49,132.0
5701,C#3,326.5,0.25,49,132.0
5702,F3,326.5,0.25,49,132.0
5703,G#3,326.5,0.25,49,132.0
5704,C#4,326.5,0.25,49,132.0
5705,F4,326.5,0.25,49,132.0
5706,G#2,327.0,1.0,90,132.0
5707,C#5,327.0,0.125,90,132.0
5708,C#4,327.0,0.5,80,132.0
5709,E2,327.0,0.125,70,132.0
5710,C#2,327.0,0.125,70,132.0
5711,G#2,327.0,0.5,49,132.0
5712,C#3,327.0,0.5,49,132.0
5713,F3,327.0,0.5,49,132.0
5714,G#3,327.0,0.5,49,132.0
5715,C#4,327.0,0.5,49,132.0
5716,F4,327.0,0.5,49,132.0
5717,C5,327.5,0.125,90,132.0
5718,C4,327.5,0.5,80,132.0
5719,G#2,327.5,0.25,49,132.0
5720,C#3,327.5,0.25,49,132.0
5721,F3,327.5,0.25,49,132.0
5722,G#3,327.5,0.25,49,132.0
5723,C#4,327.5,0.25,49,132.0
5724,F4,327.5,0.25,49,132.0
