,note_name,start_time,duration,velocity,tempo
0,C6,15.0,0.5,100,142.0
1,C6,15.5,0.5,100,142.0
2,C#2,16.0,1.0,100,142.0
3,B-4,16.0,1/10,71,142.0
4,E-4,16.5,0.5,100,142.0
5,E4,16.5,0.5,100,142.0
6,G#4,16.5,0.5,100,142.0
7,B-4,16.542,133/1000,74,142.0
8,B-4,16.8,79/500,78,142.0
9,C#2,17.0,1.0,100,142.0
10,B-4,17.0,0.125,74,142.0
11,E-4,17.5,0.5,100,142.0
12,E4,17.5,0.5,100,142.0
13,G#4,17.5,0.5,100,142.0
14,B-4,17.542,133/1000,67,142.0
15,B-4,17.8,79/500,78,142.0
16,C#2,18.0,1.0,100,142.0
17,B-4,18.05,117/1000,69,142.0
18,C#4,18.5,0.5,100,142.0
19,E4,18.5,0.5,100,142.0
20,G#4,18.5,0.5,100,142.0
21,B-4,18.55,83/1000,74,142.0
22,B-4,18.75,167/1000,78,142.0
23,C#2,19.0,1.0,100,142.0
24,B-4,19.008,117/1000,78,142.0
25,E-4,19.5,0.5,100,142.0
26,E4,19.5,0.5,100,142.0
27,G#4,19.5,0.5,100,142.0
28,B-4,19.55,117/1000,85,142.0
29,B-4,19.8,167/1000,78,142.0
30,C#2,20.0,1.0,100,142.0
31,B-4,20.0,1/10,71,142.0
32,E-4,20.5,0.5,100,142.0
33,E4,20.5,0.5,100,142.0
34,G#4,20.5,0.5,100,142.0
35,B-4,20.542,133/1000,74,142.0
36,B-4,20.8,79/500,78,142.0
37,C#2,21.0,1.0,100,142.0
38,B-4,21.0,0.125,74,142.0
39,E-4,21.5,0.5,100,142.0
40,E4,21.5,0.5,100,142.0
41,G#4,21.5,0.5,100,142.0
42,B-4,21.542,133/1000,67,142.0
43,B-4,21.8,79/500,78,142.0
44,C#2,22.0,1.0,100,142.0
45,B-4,22.05,117/1000,69,142.0
46,C#4,22.5,0.5,100,142.0
47,E4,22.5,0.5,100,142.0
48,G#4,22.5,0.5,100,142.0
49,B-4,22.55,83/1000,74,142.0
50,B-4,22.75,167/1000,78,142.0
51,C#2,23.0,1.0,100,142.0
52,B-4,23.008,117/1000,78,142.0
53,G#3,23.5,0.5,100,142.0
54,A3,23.5,0.5,100,142.0
55,C#4,23.5,0.5,100,142.0
56,B-4,23.55,117/1000,85,142.0
57,B-4,23.8,167/1000,78,142.0
58,C#2,24.0,1.0,100,142.0
59,B-4,24.0,1/10,71,142.0
60,G#3,24.5,0.5,100,142.0
61,A3,24.5,0.5,100,142.0
62,C#4,24.5,0.5,100,142.0
63,B-4,24.542,133/1000,74,142.0
64,B-4,24.8,79/500,78,142.0
65,C#2,25.0,1.0,100,142.0
66,B-4,25.0,0.125,74,142.0
67,G#3,25.5,0.5,100,142.0
68,A3,25.5,0.5,100,142.0
69,C#4,25.5,0.5,100,142.0
70,B-4,25.542,133/1000,67,142.0
71,B-4,25.8,79/500,78,142.0
72,C#2,26.0,1.0,100,142.0
73,B-4,26.05,117/1000,69,142.0
74,F#3,26.5,0.5,100,142.0
75,A3,26.5,0.5,100,142.0
76,C#4,26.5,0.5,100,142.0
77,B-4,26.55,83/1000,74,142.0
78,B-4,26.75,167/1000,78,142.0
79,C#2,27.0,1.0,100,142.0
80,B-4,27.008,117/1000,78,142.0
81,B-3,27.5,0.5,100,142.0
82,B3,27.5,0.5,100,142.0
83,E-4,27.5,0.5,100,142.0
84,B-4,27.55,117/1000,85,142.0
85,B-4,27.8,167/1000,78,142.0
86,C#2,28.0,1.0,100,142.0
87,B-4,28.0,1/10,71,142.0
88,B-3,28.5,0.5,100,142.0
89,B3,28.5,0.5,100,142.0
90,E-4,28.5,0.5,100,142.0
91,B-4,28.542,133/1000,74,142.0
92,B-4,28.8,79/500,78,142.0
93,C#2,29.0,1.0,100,142.0
94,B-4,29.0,0.125,74,142.0
95,B-3,29.5,0.5,100,142.0
96,B3,29.5,0.5,100,142.0
97,E-4,29.5,0.5,100,142.0
98,B-4,29.542,133/1000,67,142.0
99,B-4,29.8,79/500,78,142.0
100,C#2,30.0,1.0,100,142.0
101,B-4,30.05,117/1000,69,142.0
102,G#1,30.5,0.5,100,142.0
103,B1,30.5,0.5,100,142.0
104,G#3,30.5,0.5,100,142.0
105,B3,30.5,0.5,100,142.0
106,E-4,30.5,0.5,100,142.0
107,B-4,30.55,83/1000,74,142.0
108,B-4,30.75,167/1000,78,142.0
109,B1,31.0,0.5,100,142.0
110,B1,31.0,0.5,100,142.0
111,C#2,31.0,1.0,100,142.0
112,B-4,31.008,117/1000,78,142.0
113,C#2,31.5,0.5,100,142.0
114,B1,31.5,0.5,100,142.0
115,E-4,31.5,0.5,100,142.0
116,E4,31.5,0.5,100,142.0
117,G#4,31.5,0.5,100,142.0
118,B-4,31.55,117/1000,85,142.0
119,B-4,31.8,167/1000,78,142.0
120,C#2,32.0,1.0,100,142.0
121,B-4,32.0,1/10,71,142.0
122,B-5,32.5,0.5,100,142.0
123,E-4,32.5,0.5,100,142.0
124,E4,32.5,0.5,100,142.0
125,G#4,32.5,0.5,100,142.0
126,B-4,32.542,133/1000,74,142.0
127,B-4,32.8,79/500,78,142.0
128,C#2,33.0,1.0,100,142.0
129,B-4,33.0,0.125,74,142.0
130,B-5,33.0,0.5,100,142.0
131,B-5,33.5,0.5,100,142.0
132,E-4,33.5,0.5,100,142.0
133,E4,33.5,0.5,100,142.0
134,G#4,33.5,0.5,100,142.0
135,B-4,33.542,133/1000,67,142.0
136,B-4,33.8,79/500,78,142.0
137,C#2,34.0,1.0,100,142.0
138,B-4,34.05,117/1000,69,142.0
139,C#2,34.5,0.5,100,142.0
140,C#4,34.5,0.5,100,142.0
141,E4,34.5,0.5,100,142.0
142,G#4,34.5,0.5,100,142.0
143,B1,34.5,0.5,100,142.0
144,B-5,34.5,0.5,100,142.0
145,B-4,34.55,83/1000,74,142.0
146,B-4,34.75,167/1000,78,142.0
147,B1,35.0,0.5,100,142.0
148,B1,35.0,0.5,100,142.0
149,C#2,35.0,1.0,100,142.0
150,B-4,35.008,117/1000,78,142.0
151,A1,35.5,0.5,100,142.0
152,E-4,35.5,0.5,100,142.0
153,E4,35.5,0.5,100,142.0
154,G#4,35.5,0.5,100,142.0
155,B1,35.5,0.5,100,142.0
156,B-5,35.5,0.5,100,142.0
157,B-4,35.55,117/1000,85,142.0
158,B-4,35.8,167/1000,78,142.0
159,C#2,36.0,1.0,100,142.0
160,B-4,36.0,1/10,71,142.0
161,B-5,36.5,0.5,100,142.0
162,E-4,36.5,0.5,100,142.0
163,E4,36.5,0.5,100,142.0
164,G#4,36.5,0.5,100,142.0
165,B-4,36.542,133/1000,74,142.0
166,B-4,36.8,79/500,78,142.0
167,C#2,37.0,1.0,100,142.0
168,B-4,37.0,0.125,74,142.0
169,B-5,37.0,0.5,100,142.0
170,B-5,37.5,0.5,100,142.0
171,E-4,37.5,0.5,100,142.0
172,E4,37.5,0.5,100,142.0
173,G#4,37.5,0.5,100,142.0
174,B-4,37.542,133/1000,67,142.0
175,B-4,37.8,79/500,78,142.0
176,C#2,38.0,1.0,100,142.0
177,B-4,38.05,117/1000,69,142.0
178,A1,38.5,0.5,100,142.0
179,C#4,38.5,0.5,100,142.0
180,E4,38.5,0.5,100,142.0
181,G#4,38.5,0.5,100,142.0
182,B1,38.5,0.5,100,142.0
183,B-5,38.5,0.5,100,142.0
184,B-4,38.55,83/1000,74,142.0
185,B-4,38.75,167/1000,78,142.0
186,G#1,39.0,0.5,100,142.0
187,B1,39.0,0.5,100,142.0
188,C#2,39.0,1.0,100,142.0
189,B-4,39.008,117/1000,78,142.0
190,F#1,39.5,0.5,100,142.0
191,G#3,39.5,0.5,100,142.0
192,A3,39.5,0.5,100,142.0
193,C#4,39.5,0.5,100,142.0
194,B1,39.5,0.5,100,142.0
195,B-5,39.5,0.5,100,142.0
196,B-4,39.55,117/1000,85,142.0
197,B-4,39.8,167/1000,78,142.0
198,C#2,40.0,1.0,100,142.0
199,B-4,40.0,1/10,71,142.0
200,B-5,40.5,0.5,100,142.0
201,G#3,40.5,0.5,100,142.0
202,A3,40.5,0.5,100,142.0
203,C#4,40.5,0.5,100,142.0
204,B-4,40.542,133/1000,74,142.0
205,B-4,40.8,79/500,78,142.0
206,C#2,41.0,1.0,100,142.0
207,B-4,41.0,0.125,74,142.0
208,B-5,41.0,0.5,100,142.0
209,B-5,41.5,0.5,100,142.0
210,G#3,41.5,0.5,100,142.0
211,A3,41.5,0.5,100,142.0
212,C#4,41.5,0.5,100,142.0
213,B-4,41.542,133/1000,67,142.0
214,B-4,41.8,79/500,78,142.0
215,C#2,42.0,1.0,100,142.0
216,B-4,42.05,117/1000,69,142.0
217,B-5,42.5,0.5,100,142.0
218,F#3,42.5,0.5,100,142.0
219,A3,42.5,0.5,100,142.0
220,C#4,42.5,0.5,100,142.0
221,B-4,42.55,83/1000,74,142.0
222,B-4,42.75,167/1000,78,142.0
223,F#1,43.0,0.5,100,142.0
224,B1,43.0,0.5,100,142.0
225,C#2,43.0,1.0,100,142.0
226,B-4,43.008,117/1000,78,142.0
227,G#1,43.5,0.5,100,142.0
228,B-3,43.5,0.5,100,142.0
229,B3,43.5,0.5,100,142.0
230,E-4,43.5,0.5,100,142.0
231,B1,43.5,0.5,100,142.0
232,B-5,43.5,0.5,100,142.0
233,B-4,43.55,117/1000,85,142.0
234,B-4,43.8,167/1000,78,142.0
235,C#2,44.0,1.0,100,142.0
236,B-4,44.0,1/10,71,142.0
237,B-5,44.5,0.5,100,142.0
238,B-3,44.5,0.5,100,142.0
239,B3,44.5,0.5,100,142.0
240,E-4,44.5,0.5,100,142.0
241,B-4,44.542,133/1000,74,142.0
242,B-4,44.8,79/500,78,142.0
243,C#2,45.0,1.0,100,142.0
244,B-4,45.0,0.125,74,142.0
245,B-5,45.0,0.5,100,142.0
246,B-5,45.5,0.5,100,142.0
247,B-3,45.5,0.5,100,142.0
248,B3,45.5,0.5,100,142.0
249,E-4,45.5,0.5,100,142.0
250,B-4,45.542,133/1000,67,142.0
251,B-4,45.8,79/500,78,142.0
252,C#2,46.0,1.0,100,142.0
253,B-4,46.05,117/1000,69,142.0
254,G#1,46.5,0.5,100,142.0
255,G#3,46.5,0.5,100,142.0
256,B3,46.5,0.5,100,142.0
257,E-4,46.5,0.5,100,142.0
258,B1,46.5,0.5,100,142.0
259,B-5,46.5,0.5,100,142.0
260,B-4,46.55,83/1000,74,142.0
261,B-4,46.75,167/1000,78,142.0
262,B1,47.0,0.5,100,142.0
263,B1,47.0,0.5,100,142.0
264,C#2,47.0,1.0,100,142.0
265,B-4,47.008,117/1000,78,142.0
266,C#2,47.5,0.5,100,142.0
267,E-4,47.5,0.5,100,142.0
268,E4,47.5,0.5,100,142.0
269,G#4,47.5,0.5,100,142.0
270,B1,47.5,0.5,100,142.0
271,B-5,47.5,0.5,100,142.0
272,B-4,47.55,117/1000,85,142.0
273,B-4,47.8,167/1000,78,142.0
274,C#2,48.0,1.0,100,142.0
275,B-4,48.0,1/10,71,142.0
276,B-5,48.5,0.5,100,142.0
277,E-4,48.5,0.5,100,142.0
278,E4,48.5,0.5,100,142.0
279,G#4,48.5,0.5,100,142.0
280,C#4,48.5,0.5,115,142.0
281,C#4,48.5,0.5,115,142.0
282,B-4,48.542,133/1000,74,142.0
283,B-4,48.8,79/500,78,142.0
284,C#2,49.0,1.0,100,142.0
285,B-4,49.0,0.125,74,142.0
286,B-5,49.0,0.5,100,142.0
287,B3,49.0,0.5,115,142.0
288,B3,49.0,0.5,115,142.0
289,B-5,49.5,0.5,100,142.0
290,E-4,49.5,0.5,100,142.0
291,E4,49.5,0.5,100,142.0
292,G#4,49.5,0.5,100,142.0
293,G#3,49.5,0.5,115,142.0
294,G#3,49.5,0.5,115,142.0
295,B-4,49.542,133/1000,67,142.0
296,B-4,49.8,79/500,78,142.0
297,C#2,50.0,1.0,100,142.0
298,B3,50.0,0.5,115,142.0
299,B3,50.0,0.5,115,142.0
300,B-4,50.05,117/1000,69,142.0
301,C#2,50.5,0.5,100,142.0
302,C#4,50.5,0.5,100,142.0
303,E4,50.5,0.5,100,142.0
304,G#4,50.5,0.5,100,142.0
305,C#4,50.5,0.5,115,142.0
306,C#4,50.5,0.5,115,142.0
307,B1,50.5,0.5,100,142.0
308,B-5,50.5,0.5,100,142.0
309,B-4,50.55,83/1000,74,142.0
310,B-4,50.75,167/1000,78,142.0
311,B1,51.0,0.5,100,142.0
312,B1,51.0,0.5,100,142.0
313,C#2,51.0,1.0,100,142.0
314,B-4,51.008,117/1000,78,142.0
315,A1,51.5,0.5,100,142.0
316,E-4,51.5,0.5,100,142.0
317,E4,51.5,0.5,100,142.0
318,G#4,51.5,0.5,100,142.0
319,C#3,51.5,0.25,115,142.0
320,C#3,51.5,0.25,115,142.0
321,B1,51.5,0.5,100,142.0
322,B-5,51.5,0.5,100,142.0
323,B-4,51.55,117/1000,85,142.0
324,C#3,51.75,0.25,115,142.0
325,C#3,51.75,0.25,115,142.0
326,B-4,51.8,167/1000,78,142.0
327,C#2,52.0,1.0,100,142.0
328,B-4,52.0,1/10,71,142.0
329,E3,52.0,0.5,115,142.0
330,E3,52.0,0.5,115,142.0
331,B-5,52.5,0.5,100,142.0
332,E-4,52.5,0.5,100,142.0
333,E4,52.5,0.5,100,142.0
334,G#4,52.5,0.5,100,142.0
335,F#3,52.5,0.5,115,142.0
336,F#3,52.5,0.5,115,142.0
337,B-4,52.542,133/1000,74,142.0
338,B-4,52.8,79/500,78,142.0
339,C#2,53.0,1.0,100,142.0
340,B-4,53.0,0.125,74,142.0
341,B-5,53.0,0.5,100,142.0
342,G#3,53.0,0.5,115,142.0
343,G#3,53.0,0.5,115,142.0
344,B-5,53.5,0.5,100,142.0
345,E-4,53.5,0.5,100,142.0
346,E4,53.5,0.5,100,142.0
347,G#4,53.5,0.5,100,142.0
348,E3,53.5,2.5,115,142.0
349,E3,53.5,2.5,115,142.0
350,B-4,53.542,133/1000,67,142.0
351,B-4,53.8,79/500,78,142.0
352,C#2,54.0,1.0,100,142.0
353,B-4,54.05,117/1000,69,142.0
354,A1,54.5,0.5,100,142.0
355,C#4,54.5,0.5,100,142.0
356,E4,54.5,0.5,100,142.0
357,G#4,54.5,0.5,100,142.0
358,B1,54.5,0.5,100,142.0
359,B-5,54.5,0.5,100,142.0
360,B-4,54.55,83/1000,74,142.0
361,B-4,54.75,167/1000,78,142.0
362,G#1,55.0,0.5,100,142.0
363,B1,55.0,0.5,100,142.0
364,C#2,55.0,1.0,100,142.0
365,B-4,55.008,117/1000,78,142.0
366,F#1,55.5,0.5,100,142.0
367,G#3,55.5,0.5,100,142.0
368,A3,55.5,0.5,100,142.0
369,C#4,55.5,0.5,100,142.0
370,B1,55.5,0.5,100,142.0
371,B-5,55.5,0.5,100,142.0
372,B-4,55.55,117/1000,85,142.0
373,B-4,55.8,167/1000,78,142.0
374,C#2,56.0,1.0,100,142.0
375,B-4,56.0,1/10,71,142.0
376,C#3,56.0,0.25,115,142.0
377,C#3,56.0,0.25,115,142.0
378,C#3,56.25,0.25,115,142.0
379,C#3,56.25,0.25,115,142.0
380,B-5,56.5,0.5,100,142.0
381,G#3,56.5,0.5,100,142.0
382,A3,56.5,0.5,100,142.0
383,C#4,56.5,0.5,100,142.0
384,G#3,56.5,0.5,115,142.0
385,G#3,56.5,0.5,115,142.0
386,B-4,56.542,133/1000,74,142.0
387,B-4,56.8,79/500,78,142.0
388,C#2,57.0,1.0,100,142.0
389,B-4,57.0,0.125,74,142.0
390,B-5,57.0,0.5,100,142.0
391,F#3,57.0,0.5,115,142.0
392,F#3,57.0,0.5,115,142.0
393,B-5,57.5,0.5,100,142.0
394,G#3,57.5,0.5,100,142.0
395,A3,57.5,0.5,100,142.0
396,C#4,57.5,0.5,100,142.0
397,E3,57.5,0.5,115,142.0
398,E3,57.5,0.5,115,142.0
399,B-4,57.542,133/1000,67,142.0
400,B-4,57.8,79/500,78,142.0
401,C#2,58.0,1.0,100,142.0
402,F#3,58.0,0.5,115,142.0
403,F#3,58.0,0.5,115,142.0
404,B-4,58.05,117/1000,69,142.0
405,B-5,58.5,0.5,100,142.0
406,F#3,58.5,0.5,100,142.0
407,A3,58.5,0.5,100,142.0
408,C#4,58.5,0.5,100,142.0
409,G#3,58.5,0.5,115,142.0
410,G#3,58.5,0.5,115,142.0
411,B-4,58.55,83/1000,74,142.0
412,B-4,58.75,167/1000,78,142.0
413,F#1,59.0,0.5,100,142.0
414,B1,59.0,0.5,100,142.0
415,C#2,59.0,1.0,100,142.0
416,B-4,59.008,117/1000,78,142.0
417,G#1,59.5,0.5,100,142.0
418,B-3,59.5,0.5,100,142.0
419,B3,59.5,0.5,100,142.0
420,E-4,59.5,0.5,100,142.0
421,G#3,59.5,0.25,115,142.0
422,G#3,59.5,0.25,115,142.0
423,B1,59.5,0.5,100,142.0
424,B-5,59.5,0.5,100,142.0
425,B-4,59.55,117/1000,85,142.0
426,G#3,59.75,0.25,115,142.0
427,G#3,59.75,0.25,115,142.0
428,B-4,59.8,167/1000,78,142.0
429,C#2,60.0,1.0,100,142.0
430,B-4,60.0,1/10,71,142.0
431,B3,60.0,0.5,115,142.0
432,B3,60.0,0.5,115,142.0
433,B-5,60.5,0.5,100,142.0
434,B-3,60.5,0.5,100,142.0
435,B3,60.5,0.5,100,142.0
436,E-4,60.5,0.5,100,142.0
437,C#4,60.5,0.5,115,142.0
438,C#4,60.5,0.5,115,142.0
439,B-4,60.542,133/1000,74,142.0
440,B-4,60.8,79/500,78,142.0
441,C#2,61.0,1.0,100,142.0
442,B-4,61.0,0.125,74,142.0
443,B-5,61.0,0.5,100,142.0
444,E-4,61.0,0.5,115,142.0
445,E-4,61.0,0.5,115,142.0
446,B-5,61.5,0.5,100,142.0
447,B-3,61.5,0.5,100,142.0
448,B3,61.5,0.5,100,142.0
449,E-4,61.5,0.5,100,142.0
450,C#4,61.5,1.0,115,142.0
451,C#4,61.5,1.0,115,142.0
452,B-4,61.542,133/1000,67,142.0
453,B-4,61.8,79/500,78,142.0
454,C#2,62.0,1.0,100,142.0
455,B-4,62.05,117/1000,69,142.0
456,G#1,62.5,0.5,100,142.0
457,G#3,62.5,0.5,100,142.0
458,B3,62.5,0.5,100,142.0
459,E-4,62.5,0.5,100,142.0
460,B3,62.5,0.5,115,142.0
461,B3,62.5,0.5,115,142.0
462,B1,62.5,0.5,100,142.0
463,B-5,62.5,0.5,100,142.0
464,B-4,62.55,83/1000,74,142.0
465,B-4,62.75,167/1000,78,142.0
466,B1,63.0,0.5,100,142.0
467,B1,63.0,0.5,100,142.0
468,C#2,63.0,1.0,100,142.0
469,F#3,63.0,0.5,115,142.0
470,F#3,63.0,0.5,115,142.0
471,B-4,63.008,117/1000,78,142.0
472,C#2,63.5,0.5,100,142.0
473,E-4,63.5,0.5,100,142.0
474,E4,63.5,0.5,100,142.0
475,G#4,63.5,0.5,100,142.0
476,E3,63.5,0.5,115,142.0
477,E3,63.5,0.5,115,142.0
478,B1,63.5,0.5,100,142.0
479,B-5,63.5,0.5,100,142.0
480,B-4,63.55,117/1000,85,142.0
481,B-4,63.8,167/1000,78,142.0
482,C#2,64.0,1.0,100,142.0
483,B-4,64.0,1/10,71,142.0
484,B-5,64.5,0.5,100,142.0
485,E-4,64.5,0.5,100,142.0
486,E4,64.5,0.5,100,142.0
487,G#4,64.5,0.5,100,142.0
488,C#4,64.5,0.5,115,142.0
489,C#4,64.5,0.5,115,142.0
490,B-4,64.542,133/1000,74,142.0
491,B-4,64.8,79/500,78,142.0
492,C#2,65.0,1.0,100,142.0
493,B-4,65.0,0.125,74,142.0
494,B-5,65.0,0.5,100,142.0
495,B3,65.0,0.5,115,142.0
496,B3,65.0,0.5,115,142.0
497,B-5,65.5,0.5,100,142.0
498,E-4,65.5,0.5,100,142.0
499,E4,65.5,0.5,100,142.0
500,G#4,65.5,0.5,100,142.0
501,G#3,65.5,0.5,115,142.0
502,G#3,65.5,0.5,115,142.0
503,B-4,65.542,133/1000,67,142.0
504,B-4,65.8,79/500,78,142.0
505,C#2,66.0,1.0,100,142.0
506,B3,66.0,0.5,115,142.0
507,B3,66.0,0.5,115,142.0
508,B-4,66.05,117/1000,69,142.0
509,C#2,66.5,0.5,100,142.0
510,C#4,66.5,0.5,100,142.0
511,E4,66.5,0.5,100,142.0
512,G#4,66.5,0.5,100,142.0
513,C#4,66.5,0.5,115,142.0
514,C#4,66.5,0.5,115,142.0
515,B1,66.5,0.5,100,142.0
516,B-5,66.5,0.5,100,142.0
517,B-4,66.55,83/1000,74,142.0
518,B-4,66.75,167/1000,78,142.0
519,B1,67.0,0.5,100,142.0
520,B1,67.0,0.5,100,142.0
521,C#2,67.0,1.0,100,142.0
522,B-4,67.008,117/1000,78,142.0
523,A1,67.5,0.5,100,142.0
524,E-4,67.5,0.5,100,142.0
525,E4,67.5,0.5,100,142.0
526,G#4,67.5,0.5,100,142.0
527,C#3,67.5,0.25,115,142.0
528,C#3,67.5,0.25,115,142.0
529,B1,67.5,0.5,100,142.0
530,B-5,67.5,0.5,100,142.0
531,B-4,67.55,117/1000,85,142.0
532,C#3,67.75,0.25,115,142.0
533,C#3,67.75,0.25,115,142.0
534,B-4,67.8,167/1000,78,142.0
535,C#2,68.0,1.0,100,142.0
536,B-4,68.0,1/10,71,142.0
537,E3,68.0,0.5,115,142.0
538,E3,68.0,0.5,115,142.0
539,B-5,68.5,0.5,100,142.0
540,E-4,68.5,0.5,100,142.0
541,E4,68.5,0.5,100,142.0
542,G#4,68.5,0.5,100,142.0
543,F#3,68.5,0.5,115,142.0
544,F#3,68.5,0.5,115,142.0
545,B-4,68.542,133/1000,74,142.0
546,B-4,68.8,79/500,78,142.0
547,C#2,69.0,1.0,100,142.0
548,B-4,69.0,0.125,74,142.0
549,B-5,69.0,0.5,100,142.0
550,G#3,69.0,0.5,115,142.0
551,G#3,69.0,0.5,115,142.0
552,B-5,69.5,0.5,100,142.0
553,E-4,69.5,0.5,100,142.0
554,E4,69.5,0.5,100,142.0
555,G#4,69.5,0.5,100,142.0
556,E3,69.5,2.5,115,142.0
557,E3,69.5,2.5,115,142.0
558,B-4,69.542,133/1000,67,142.0
559,B-4,69.8,79/500,78,142.0
560,C#2,70.0,1.0,100,142.0
561,B-4,70.05,117/1000,69,142.0
562,A1,70.5,0.5,100,142.0
563,C#4,70.5,0.5,100,142.0
564,E4,70.5,0.5,100,142.0
565,G#4,70.5,0.5,100,142.0
566,B1,70.5,0.5,100,142.0
567,B-5,70.5,0.5,100,142.0
568,B-4,70.55,83/1000,74,142.0
569,B-4,70.75,167/1000,78,142.0
570,G#1,71.0,0.5,100,142.0
571,B1,71.0,0.5,100,142.0
572,C#2,71.0,1.0,100,142.0
573,B-4,71.008,117/1000,78,142.0
574,F#1,71.5,0.5,100,142.0
575,G#3,71.5,0.5,100,142.0
576,A3,71.5,0.5,100,142.0
577,C#4,71.5,0.5,100,142.0
578,B1,71.5,0.5,100,142.0
579,B-5,71.5,0.5,100,142.0
580,B-4,71.55,117/1000,85,142.0
581,B-4,71.8,167/1000,78,142.0
582,C#2,72.0,1.0,100,142.0
583,B-4,72.0,1/10,71,142.0
584,C#3,72.0,0.25,115,142.0
585,C#3,72.0,0.25,115,142.0
586,C#3,72.25,0.25,115,142.0
587,C#3,72.25,0.25,115,142.0
588,B-5,72.5,0.5,100,142.0
589,G#3,72.5,0.5,100,142.0
590,A3,72.5,0.5,100,142.0
591,C#4,72.5,0.5,100,142.0
592,G#3,72.5,0.5,115,142.0
593,G#3,72.5,0.5,115,142.0
594,B-4,72.542,133/1000,74,142.0
595,B-4,72.8,79/500,78,142.0
596,C#2,73.0,1.0,100,142.0
597,B-4,73.0,0.125,74,142.0
598,B-5,73.0,0.5,100,142.0
599,F#3,73.0,0.5,115,142.0
600,F#3,73.0,0.5,115,142.0
601,B-5,73.5,0.5,100,142.0
602,G#3,73.5,0.5,100,142.0
603,A3,73.5,0.5,100,142.0
604,C#4,73.5,0.5,100,142.0
605,E3,73.5,0.5,115,142.0
606,E3,73.5,0.5,115,142.0
607,B-4,73.542,133/1000,67,142.0
608,B-4,73.8,79/500,78,142.0
609,C#2,74.0,1.0,100,142.0
610,F#3,74.0,0.5,115,142.0
611,F#3,74.0,0.5,115,142.0
612,B-4,74.05,117/1000,69,142.0
613,B-5,74.5,0.5,100,142.0
614,F#3,74.5,0.5,100,142.0
615,A3,74.5,0.5,100,142.0
616,C#4,74.5,0.5,100,142.0
617,G#3,74.5,0.5,115,142.0
618,G#3,74.5,0.5,115,142.0
619,B-4,74.55,83/1000,74,142.0
620,B-4,74.75,167/1000,78,142.0
621,F#1,75.0,0.5,100,142.0
622,B1,75.0,0.5,100,142.0
623,C#2,75.0,1.0,100,142.0
624,B-4,75.008,117/1000,78,142.0
625,G#1,75.5,0.5,100,142.0
626,B-3,75.5,0.5,100,142.0
627,B3,75.5,0.5,100,142.0
628,E-4,75.5,0.5,100,142.0
629,G#3,75.5,0.25,115,142.0
630,G#3,75.5,0.25,115,142.0
631,B1,75.5,0.5,100,142.0
632,B-5,75.5,0.5,100,142.0
633,B-4,75.55,117/1000,85,142.0
634,G#3,75.75,0.25,115,142.0
635,G#3,75.75,0.25,115,142.0
636,B-4,75.8,167/1000,78,142.0
637,C#2,76.0,1.0,100,142.0
638,B-4,76.0,1/10,71,142.0
639,B3,76.0,0.5,115,142.0
640,B3,76.0,0.5,115,142.0
641,B-5,76.5,0.5,100,142.0
642,B-3,76.5,0.5,100,142.0
643,B3,76.5,0.5,100,142.0
644,E-4,76.5,0.5,100,142.0
645,C#4,76.5,0.5,115,142.0
646,C#4,76.5,0.5,115,142.0
647,B-4,76.542,133/1000,74,142.0
648,B-4,76.8,79/500,78,142.0
649,C#2,77.0,1.0,100,142.0
650,B-4,77.0,0.125,74,142.0
651,B-5,77.0,0.5,100,142.0
652,E-4,77.0,0.5,115,142.0
653,E-4,77.0,0.5,115,142.0
654,B-5,77.5,0.5,100,142.0
655,B-3,77.5,0.5,100,142.0
656,B3,77.5,0.5,100,142.0
657,E-4,77.5,0.5,100,142.0
658,C#4,77.5,1.0,115,142.0
659,C#4,77.5,1.0,115,142.0
660,B-4,77.542,133/1000,67,142.0
661,B-4,77.8,79/500,78,142.0
662,C#2,78.0,1.0,100,142.0
663,B-4,78.05,117/1000,69,142.0
664,G#1,78.5,0.25,100,142.0
665,B-5,78.5,0.5,100,142.0
666,G#3,78.5,0.5,100,142.0
667,B3,78.5,0.5,100,142.0
668,E-4,78.5,0.5,100,142.0
669,B3,78.5,0.5,115,142.0
670,B3,78.5,0.5,115,142.0
671,B-4,78.55,83/1000,74,142.0
672,G#1,78.75,0.25,100,142.0
673,B1,78.75,0.25,100,142.0
674,B-4,78.75,167/1000,78,142.0
675,B1,79.0,0.5,100,142.0
676,B1,79.0,0.5,100,142.0
677,C#2,79.0,1.0,100,142.0
678,F#3,79.0,0.5,115,142.0
679,F#3,79.0,0.5,115,142.0
680,B-4,79.008,117/1000,78,142.0
681,C#2,79.5,0.5,100,142.0
682,E-4,79.5,0.5,100,142.0
683,E4,79.5,0.5,100,142.0
684,G#4,79.5,0.5,100,142.0
685,E3,79.5,0.5,115,142.0
686,E3,79.5,0.5,115,142.0
687,B1,79.5,0.5,100,142.0
688,B-5,79.5,0.5,100,142.0
689,B-4,79.55,117/1000,85,142.0
690,B-4,79.8,167/1000,78,142.0
691,C#2,80.0,1.0,100,142.0
692,B-4,80.0,1/10,71,142.0
693,B-5,80.5,0.5,100,142.0
694,E-4,80.5,0.5,100,142.0
695,E4,80.5,0.5,100,142.0
696,G#4,80.5,0.5,100,142.0
697,C#4,80.5,0.5,115,142.0
698,C#4,80.5,0.5,115,142.0
699,B-4,80.542,133/1000,74,142.0
700,B-4,80.8,79/500,78,142.0
701,C#2,81.0,1.0,100,142.0
702,B-4,81.0,0.125,74,142.0
703,B-5,81.0,0.5,100,142.0
704,C#5,81.0,0.5,100,142.0
705,B3,81.0,0.5,115,142.0
706,B3,81.0,0.5,115,142.0
707,C#4,81.0,0.5,100,142.0
708,C#5,81.0,0.5,100,142.0
709,B-5,81.5,0.5,100,142.0
710,E-5,81.5,0.5,100,142.0
711,E-4,81.5,0.5,100,142.0
712,E4,81.5,0.5,100,142.0
713,G#4,81.5,0.5,100,142.0
714,G#3,81.5,0.5,115,142.0
715,G#3,81.5,0.5,115,142.0
716,E-5,81.5,0.5,100,142.0
717,E-4,81.5,0.5,100,142.0
718,B-4,81.542,133/1000,67,142.0
719,B-4,81.8,79/500,78,142.0
720,C#2,82.0,1.0,100,142.0
721,B3,82.0,0.5,115,142.0
722,B3,82.0,0.5,115,142.0
723,B-4,82.05,117/1000,69,142.0
724,C#2,82.5,0.5,100,142.0
725,E5,82.5,0.5,100,142.0
726,C#4,82.5,0.5,100,142.0
727,E4,82.5,0.5,100,142.0
728,G#4,82.5,0.5,100,142.0
729,C#4,82.5,0.5,115,142.0
730,C#4,82.5,0.5,115,142.0
731,E5,82.5,0.5,100,142.0
732,E4,82.5,0.5,100,142.0
733,B1,82.5,0.5,100,142.0
734,B-5,82.5,0.5,100,142.0
735,B-4,82.55,83/1000,74,142.0
736,B-4,82.75,167/1000,78,142.0
737,B1,83.0,0.5,100,142.0
738,B1,83.0,0.5,100,142.0
739,C#2,83.0,1.0,100,142.0
740,B-4,83.008,117/1000,78,142.0
741,A1,83.5,0.5,100,142.0
742,F#5,83.5,0.5,100,142.0
743,E-4,83.5,0.5,100,142.0
744,E4,83.5,0.5,100,142.0
745,G#4,83.5,0.5,100,142.0
746,C#3,83.5,0.25,115,142.0
747,C#3,83.5,0.25,115,142.0
748,F#5,83.5,0.5,100,142.0
749,F#4,83.5,0.5,100,142.0
750,B1,83.5,0.5,100,142.0
751,B-5,83.5,0.5,100,142.0
752,B-4,83.55,117/1000,85,142.0
753,C#3,83.75,0.25,115,142.0
754,C#3,83.75,0.25,115,142.0
755,B-4,83.8,167/1000,78,142.0
756,C#2,84.0,1.0,100,142.0
757,B-4,84.0,1/10,71,142.0
758,F#5,84.0,1.0,100,142.0
759,E3,84.0,0.5,115,142.0
760,E3,84.0,0.5,115,142.0
761,F#5,84.0,1.0,100,142.0
762,F#4,84.0,1.0,100,142.0
763,B-5,84.5,0.5,100,142.0
764,E-4,84.5,0.5,100,142.0
765,E4,84.5,0.5,100,142.0
766,G#4,84.5,0.5,100,142.0
767,F#3,84.5,0.5,115,142.0
768,F#3,84.5,0.5,115,142.0
769,B-4,84.542,133/1000,74,142.0
770,B-4,84.8,79/500,78,142.0
771,C#2,85.0,1.0,100,142.0
772,B-4,85.0,0.125,74,142.0
773,B-5,85.0,0.5,100,142.0
774,E5,85.0,0.5,100,142.0
775,G#3,85.0,0.5,115,142.0
776,G#3,85.0,0.5,115,142.0
777,E5,85.0,0.5,100,142.0
778,E4,85.0,0.5,100,142.0
779,B-5,85.5,0.5,100,142.0
780,E-5,85.5,0.5,100,142.0
781,E-4,85.5,0.5,100,142.0
782,E4,85.5,0.5,100,142.0
783,G#4,85.5,0.5,100,142.0
784,E3,85.5,2.5,115,142.0
785,E3,85.5,2.5,115,142.0
786,E-4,85.5,0.5,100,142.0
787,E-5,85.5,0.5,100,142.0
788,B-4,85.542,133/1000,67,142.0
789,B-4,85.8,79/500,78,142.0
790,C#2,86.0,1.0,100,142.0
791,B-4,86.05,117/1000,69,142.0
792,A1,86.5,0.5,100,142.0
793,C#5,86.5,0.5,100,142.0
794,C#4,86.5,0.5,100,142.0
795,E4,86.5,0.5,100,142.0
796,G#4,86.5,0.5,100,142.0
797,C#5,86.5,0.5,100,142.0
798,C#4,86.5,0.5,100,142.0
799,B1,86.5,0.5,100,142.0
800,B-5,86.5,0.5,100,142.0
801,B-4,86.55,83/1000,74,142.0
802,B-4,86.75,167/1000,78,142.0
803,G#1,87.0,0.5,100,142.0
804,B1,87.0,0.5,100,142.0
805,C#2,87.0,1.0,100,142.0
806,B-4,87.008,117/1000,78,142.0
807,F#1,87.5,0.5,100,142.0
808,G#5,87.5,0.5,100,142.0
809,G#3,87.5,0.5,100,142.0
810,A3,87.5,0.5,100,142.0
811,C#4,87.5,0.5,100,142.0
812,G#5,87.5,0.5,100,142.0
813,G#4,87.5,0.5,100,142.0
814,B1,87.5,0.5,100,142.0
815,B-5,87.5,0.5,100,142.0
816,B-4,87.55,117/1000,85,142.0
817,B-4,87.8,167/1000,78,142.0
818,C#2,88.0,1.0,100,142.0
819,B-4,88.0,1/10,71,142.0
820,G#5,88.0,1.0,100,142.0
821,C#3,88.0,0.25,115,142.0
822,C#3,88.0,0.25,115,142.0
823,G#5,88.0,1.0,100,142.0
824,G#4,88.0,1.0,100,142.0
825,C#3,88.25,0.25,115,142.0
826,C#3,88.25,0.25,115,142.0
827,B-5,88.5,0.5,100,142.0
828,G#3,88.5,0.5,100,142.0
829,A3,88.5,0.5,100,142.0
830,C#4,88.5,0.5,100,142.0
831,G#3,88.5,0.5,115,142.0
832,G#3,88.5,0.5,115,142.0
833,B-4,88.542,133/1000,74,142.0
834,B-4,88.8,79/500,78,142.0
835,C#2,89.0,1.0,100,142.0
836,B-4,89.0,0.125,74,142.0
837,B-5,89.0,0.5,100,142.0
838,F#5,89.0,0.5,100,142.0
839,F#3,89.0,0.5,115,142.0
840,F#3,89.0,0.5,115,142.0
841,F#5,89.0,0.5,100,142.0
842,F#4,89.0,0.5,100,142.0
843,B-5,89.5,0.5,100,142.0
844,F#5,89.5,0.5,100,142.0
845,G#3,89.5,0.5,100,142.0
846,A3,89.5,0.5,100,142.0
847,C#4,89.5,0.5,100,142.0
848,E3,89.5,0.5,115,142.0
849,E3,89.5,0.5,115,142.0
850,F#5,89.5,0.5,100,142.0
851,F#4,89.5,0.5,100,142.0
852,B-4,89.542,133/1000,67,142.0
853,B-4,89.8,79/500,78,142.0
854,C#2,90.0,1.0,100,142.0
855,F#3,90.0,0.5,115,142.0
856,F#3,90.0,0.5,115,142.0
857,B-4,90.05,117/1000,69,142.0
858,B-5,90.5,0.5,100,142.0
859,E5,90.5,0.5,100,142.0
860,F#3,90.5,0.5,100,142.0
861,A3,90.5,0.5,100,142.0
862,C#4,90.5,0.5,100,142.0
863,G#3,90.5,0.5,115,142.0
864,G#3,90.5,0.5,115,142.0
865,E4,90.5,0.5,100,142.0
866,E5,90.5,0.5,100,142.0
867,B-4,90.55,83/1000,74,142.0
868,B-4,90.75,167/1000,78,142.0
869,F#1,91.0,0.5,100,142.0
870,B1,91.0,0.5,100,142.0
871,C#2,91.0,1.0,100,142.0
872,B-4,91.008,117/1000,78,142.0
873,G#1,91.5,0.5,100,142.0
874,F#5,91.5,0.5,100,142.0
875,B-3,91.5,0.5,100,142.0
876,B3,91.5,0.5,100,142.0
877,E-4,91.5,0.5,100,142.0
878,G#3,91.5,0.25,115,142.0
879,G#3,91.5,0.25,115,142.0
880,F#5,91.5,0.5,100,142.0
881,F#4,91.5,0.5,100,142.0
882,B1,91.5,0.5,100,142.0
883,B-5,91.5,0.5,100,142.0
884,B-4,91.55,117/1000,85,142.0
885,G#3,91.75,0.25,115,142.0
886,G#3,91.75,0.25,115,142.0
887,B-4,91.8,167/1000,78,142.0
888,C#2,92.0,1.0,100,142.0
889,B-4,92.0,1/10,71,142.0
890,F#5,92.0,0.5,100,142.0
891,B3,92.0,0.5,115,142.0
892,B3,92.0,0.5,115,142.0
893,F#5,92.0,0.5,100,142.0
894,F#4,92.0,0.5,100,142.0
895,B-5,92.5,0.5,100,142.0
896,G#5,92.5,0.5,100,142.0
897,B-3,92.5,0.5,100,142.0
898,B3,92.5,0.5,100,142.0
899,E-4,92.5,0.5,100,142.0
900,C#4,92.5,0.5,115,142.0
901,C#4,92.5,0.5,115,142.0
902,G#4,92.5,0.5,100,142.0
903,G#5,92.5,0.5,100,142.0
904,B-4,92.542,133/1000,74,142.0
905,B-4,92.8,79/500,78,142.0
906,C#2,93.0,1.0,100,142.0
907,B-4,93.0,0.125,74,142.0
908,B-5,93.0,0.5,100,142.0
909,E-4,93.0,0.5,115,142.0
910,E-4,93.0,0.5,115,142.0
911,B-5,93.5,0.5,100,142.0
912,B-3,93.5,0.5,100,142.0
913,B3,93.5,0.5,100,142.0
914,E-4,93.5,0.5,100,142.0
915,C#4,93.5,1.0,115,142.0
916,C#4,93.5,1.0,115,142.0
917,B-4,93.542,133/1000,67,142.0
918,B-4,93.8,79/500,78,142.0
919,C#2,94.0,1.0,100,142.0
920,B-4,94.05,117/1000,69,142.0
921,B-5,94.5,0.5,100,142.0
922,G#3,94.5,0.5,100,142.0
923,B3,94.5,0.5,100,142.0
924,E-4,94.5,0.5,100,142.0
925,B3,94.5,0.5,115,142.0
926,B3,94.5,0.5,115,142.0
927,B-4,94.55,83/1000,74,142.0
928,G#1,94.75,0.25,100,142.0
929,B1,94.75,0.25,100,142.0
930,B-4,94.75,167/1000,78,142.0
931,B1,95.0,0.5,100,142.0
932,B1,95.0,0.5,100,142.0
933,C#2,95.0,1.0,100,142.0
934,F#3,95.0,0.5,115,142.0
935,F#3,95.0,0.5,115,142.0
936,B-4,95.008,117/1000,78,142.0
937,C#2,95.5,0.5,100,142.0
938,E-4,95.5,0.5,100,142.0
939,E4,95.5,0.5,100,142.0
940,G#4,95.5,0.5,100,142.0
941,E3,95.5,0.5,115,142.0
942,E3,95.5,0.5,115,142.0
943,B1,95.5,0.5,100,142.0
944,B-5,95.5,0.5,100,142.0
945,B-4,95.55,117/1000,85,142.0
946,B-4,95.8,167/1000,78,142.0
947,C#2,96.0,1.0,100,142.0
948,B-4,96.0,1/10,71,142.0
949,B-5,96.5,0.5,100,142.0
950,E-4,96.5,0.5,100,142.0
951,E4,96.5,0.5,100,142.0
952,G#4,96.5,0.5,100,142.0
953,C#4,96.5,0.5,115,142.0
954,C#4,96.5,0.5,115,142.0
955,B-4,96.542,133/1000,74,142.0
956,B-4,96.8,79/500,78,142.0
957,C#2,97.0,1.0,100,142.0
958,B-4,97.0,0.125,74,142.0
959,B-5,97.0,0.5,100,142.0
960,C#5,97.0,0.5,100,142.0
961,B3,97.0,0.5,115,142.0
962,B3,97.0,0.5,115,142.0
963,C#5,97.0,0.5,100,142.0
964,C#4,97.0,0.5,100,142.0
965,B-5,97.5,0.5,100,142.0
966,E-5,97.5,0.5,100,142.0
967,E-4,97.5,0.5,100,142.0
968,E4,97.5,0.5,100,142.0
969,G#4,97.5,0.5,100,142.0
970,G#3,97.5,0.5,115,142.0
971,G#3,97.5,0.5,115,142.0
972,E-5,97.5,0.5,100,142.0
973,E-4,97.5,0.5,100,142.0
974,B-4,97.542,133/1000,67,142.0
975,B-4,97.8,79/500,78,142.0
976,C#2,98.0,1.0,100,142.0
977,B3,98.0,0.5,115,142.0
978,B3,98.0,0.5,115,142.0
979,B-4,98.05,117/1000,69,142.0
980,C#2,98.5,0.5,100,142.0
981,E5,98.5,0.5,100,142.0
982,C#4,98.5,0.5,100,142.0
983,E4,98.5,0.5,100,142.0
984,G#4,98.5,0.5,100,142.0
985,C#4,98.5,0.5,115,142.0
986,C#4,98.5,0.5,115,142.0
987,E5,98.5,0.5,100,142.0
988,E4,98.5,0.5,100,142.0
989,B1,98.5,0.5,100,142.0
990,B-5,98.5,0.5,100,142.0
991,B-4,98.55,83/1000,74,142.0
992,B-4,98.75,167/1000,78,142.0
993,B1,99.0,0.5,100,142.0
994,B1,99.0,0.5,100,142.0
995,C#2,99.0,1.0,100,142.0
996,B-4,99.008,117/1000,78,142.0
997,A1,99.5,0.5,100,142.0
998,F#5,99.5,0.5,100,142.0
999,E-4,99.5,0.5,100,142.0
1000,E4,99.5,0.5,100,142.0
1001,G#4,99.5,0.5,100,142.0
1002,C#3,99.5,0.25,115,142.0
1003,C#3,99.5,0.25,115,142.0
1004,F#5,99.5,0.5,100,142.0
1005,F#4,99.5,0.5,100,142.0
1006,B1,99.5,0.5,100,142.0
1007,B-5,99.5,0.5,100,142.0
1008,B-4,99.55,117/1000,85,142.0
1009,C#3,99.75,0.25,115,142.0
1010,C#3,99.75,0.25,115,142.0
1011,B-4,99.8,167/1000,78,142.0
1012,C#2,100.0,1.0,100,142.0
1013,B-4,100.0,1/10,71,142.0
1014,F#5,100.0,1.0,100,142.0
1015,E3,100.0,0.5,115,142.0
1016,E3,100.0,0.5,115,142.0
1017,F#5,100.0,1.0,100,142.0
1018,F#4,100.0,1.0,100,142.0
1019,B-5,100.5,0.5,100,142.0
1020,E-4,100.5,0.5,100,142.0
1021,E4,100.5,0.5,100,142.0
1022,G#4,100.5,0.5,100,142.0
1023,F#3,100.5,0.5,115,142.0
1024,F#3,100.5,0.5,115,142.0
1025,B-4,100.542,133/1000,74,142.0
1026,B-4,100.8,79/500,78,142.0
1027,C#2,101.0,1.0,100,142.0
1028,B-4,101.0,0.125,74,142.0
1029,B-5,101.0,0.5,100,142.0
1030,E5,101.0,0.5,100,142.0
1031,G#3,101.0,0.5,115,142.0
1032,G#3,101.0,0.5,115,142.0
1033,E5,101.0,0.5,100,142.0
1034,E4,101.0,0.5,100,142.0
1035,B-5,101.5,0.5,100,142.0
1036,E-5,101.5,0.5,100,142.0
1037,E-4,101.5,0.5,100,142.0
1038,E4,101.5,0.5,100,142.0
1039,G#4,101.5,0.5,100,142.0
1040,E3,101.5,2.5,115,142.0
1041,E3,101.5,2.5,115,142.0
1042,E-5,101.5,0.5,100,142.0
1043,E-4,101.5,0.5,100,142.0
1044,B-4,101.542,133/1000,67,142.0
1045,B-4,101.8,79/500,78,142.0
1046,C#2,102.0,1.0,100,142.0
1047,B-4,102.05,117/1000,69,142.0
1048,A1,102.5,0.5,100,142.0
1049,C#5,102.5,0.5,100,142.0
1050,C#4,102.5,0.5,100,142.0
1051,E4,102.5,0.5,100,142.0
1052,G#4,102.5,0.5,100,142.0
1053,C#4,102.5,0.5,100,142.0
1054,C#5,102.5,0.5,100,142.0
1055,B1,102.5,0.5,100,142.0
1056,B-5,102.5,0.5,100,142.0
1057,B-4,102.55,83/1000,74,142.0
1058,B-4,102.75,167/1000,78,142.0
1059,G#1,103.0,0.5,100,142.0
1060,B1,103.0,0.5,100,142.0
1061,C#2,103.0,1.0,100,142.0
1062,B-4,103.008,117/1000,78,142.0
1063,F#1,103.5,0.5,100,142.0
1064,G#5,103.5,0.5,100,142.0
1065,G#3,103.5,0.5,100,142.0
1066,A3,103.5,0.5,100,142.0
1067,C#4,103.5,0.5,100,142.0
1068,G#5,103.5,0.5,100,142.0
1069,G#4,103.5,0.5,100,142.0
1070,B1,103.5,0.5,100,142.0
1071,B-5,103.5,0.5,100,142.0
1072,B-4,103.55,117/1000,85,142.0
1073,B-4,103.8,167/1000,78,142.0
1074,C#2,104.0,1.0,100,142.0
1075,B-4,104.0,1/10,71,142.0
1076,G#5,104.0,1.0,100,142.0
1077,C#3,104.0,0.25,115,142.0
1078,C#3,104.0,0.25,115,142.0
1079,G#5,104.0,1.0,100,142.0
1080,G#4,104.0,1.0,100,142.0
1081,C#3,104.25,0.25,115,142.0
1082,C#3,104.25,0.25,115,142.0
1083,B-5,104.5,0.5,100,142.0
1084,G#3,104.5,0.5,100,142.0
1085,A3,104.5,0.5,100,142.0
1086,C#4,104.5,0.5,100,142.0
1087,G#3,104.5,0.5,115,142.0
1088,G#3,104.5,0.5,115,142.0
1089,B-4,104.542,133/1000,74,142.0
1090,B-4,104.8,79/500,78,142.0
1091,C#2,105.0,1.0,100,142.0
1092,B-4,105.0,0.125,74,142.0
1093,B-5,105.0,0.5,100,142.0
1094,F#5,105.0,0.5,100,142.0
1095,F#3,105.0,0.5,115,142.0
1096,F#3,105.0,0.5,115,142.0
1097,F#5,105.0,0.5,100,142.0
1098,F#4,105.0,0.5,100,142.0
1099,B-5,105.5,0.5,100,142.0
1100,F#5,105.5,0.5,100,142.0
1101,G#3,105.5,0.5,100,142.0
1102,A3,105.5,0.5,100,142.0
1103,C#4,105.5,0.5,100,142.0
1104,E3,105.5,0.5,115,142.0
1105,E3,105.5,0.5,115,142.0
1106,F#4,105.5,0.5,100,142.0
1107,F#5,105.5,0.5,100,142.0
1108,B-4,105.542,133/1000,67,142.0
1109,B-4,105.8,79/500,78,142.0
1110,C#2,106.0,1.0,100,142.0
1111,F#3,106.0,0.5,115,142.0
1112,F#3,106.0,0.5,115,142.0
1113,B-4,106.05,117/1000,69,142.0
1114,B-5,106.5,0.5,100,142.0
1115,E5,106.5,0.5,100,142.0
1116,F#3,106.5,0.5,100,142.0
1117,A3,106.5,0.5,100,142.0
1118,C#4,106.5,0.5,100,142.0
1119,G#3,106.5,0.5,115,142.0
1120,G#3,106.5,0.5,115,142.0
1121,E4,106.5,0.5,100,142.0
1122,E5,106.5,0.5,100,142.0
1123,B-4,106.55,83/1000,74,142.0
1124,B-4,106.75,167/1000,78,142.0
1125,F#1,107.0,0.5,100,142.0
1126,B1,107.0,0.5,100,142.0
1127,C#2,107.0,1.0,100,142.0
1128,B-4,107.008,117/1000,78,142.0
1129,G#1,107.5,0.5,100,142.0
1130,F#5,107.5,0.5,100,142.0
1131,B-3,107.5,0.5,100,142.0
1132,B3,107.5,0.5,100,142.0
1133,E-4,107.5,0.5,100,142.0
1134,G#3,107.5,0.25,115,142.0
1135,G#3,107.5,0.25,115,142.0
1136,F#4,107.5,0.5,100,142.0
1137,F#5,107.5,0.5,100,142.0
1138,B1,107.5,0.5,100,142.0
1139,B-5,107.5,0.5,100,142.0
1140,B-4,107.55,117/1000,85,142.0
1141,G#3,107.75,0.25,115,142.0
1142,G#3,107.75,0.25,115,142.0
1143,B-4,107.8,167/1000,78,142.0
1144,C#2,108.0,1.0,100,142.0
1145,B-4,108.0,1/10,71,142.0
1146,F#5,108.0,0.5,100,142.0
1147,B3,108.0,0.5,115,142.0
1148,B3,108.0,0.5,115,142.0
1149,F#4,108.0,0.5,100,142.0
1150,F#5,108.0,0.5,100,142.0
1151,B-5,108.5,0.5,100,142.0
1152,G#5,108.5,0.5,100,142.0
1153,B-3,108.5,0.5,100,142.0
1154,B3,108.5,0.5,100,142.0
1155,E-4,108.5,0.5,100,142.0
1156,C#4,108.5,0.5,115,142.0
1157,C#4,108.5,0.5,115,142.0
1158,G#4,108.5,0.5,100,142.0
1159,G#5,108.5,0.5,100,142.0
1160,B-4,108.542,133/1000,74,142.0
1161,B-4,108.8,79/500,78,142.0
1162,C#2,109.0,1.0,100,142.0
1163,B-4,109.0,0.125,74,142.0
1164,B-5,109.0,0.5,100,142.0
1165,E-4,109.0,0.5,115,142.0
1166,E-4,109.0,0.5,115,142.0
1167,B-5,109.5,0.5,100,142.0
1168,B-3,109.5,0.5,100,142.0
1169,B3,109.5,0.5,100,142.0
1170,E-4,109.5,0.5,100,142.0
1171,C#4,109.5,1.0,115,142.0
1172,C#4,109.5,1.0,115,142.0
1173,B-4,109.542,133/1000,67,142.0
1174,B-4,109.8,79/500,78,142.0
1175,C#2,110.0,1.0,100,142.0
1176,B-4,110.05,117/1000,69,142.0
1177,B-5,110.5,0.5,100,142.0
1178,G#5,110.5,0.5,100,142.0
1179,G#3,110.5,0.5,100,142.0
1180,B3,110.5,0.5,100,142.0
1181,E-4,110.5,0.5,100,142.0
1182,B3,110.5,0.5,115,142.0
1183,B3,110.5,0.5,115,142.0
1184,G#4,110.5,0.5,100,142.0
1185,G#5,110.5,0.5,100,142.0
1186,B-4,110.55,83/1000,74,142.0
1187,G#1,110.75,0.25,100,142.0
1188,B1,110.75,0.25,100,142.0
1189,B-4,110.75,167/1000,78,142.0
1190,B1,111.0,0.5,100,142.0
1191,B1,111.0,0.5,100,142.0
1192,C#2,111.0,1.0,100,142.0
1193,B5,111.0,0.5,100,142.0
1194,F#3,111.0,0.5,115,142.0
1195,F#3,111.0,0.5,115,142.0
1196,B4,111.0,0.5,100,142.0
1197,B5,111.0,0.5,100,142.0
1198,B-4,111.008,117/1000,78,142.0
1199,C#2,111.5,0.5,100,142.0
1200,C#6,111.5,0.5,100,142.0
1201,E-4,111.5,0.5,100,142.0
1202,E4,111.5,0.5,100,142.0
1203,G#4,111.5,0.5,100,142.0
1204,E3,111.5,0.5,115,142.0
1205,E3,111.5,0.5,115,142.0
1206,C#5,111.5,0.5,100,142.0
1207,C#6,111.5,0.5,100,142.0
1208,B1,111.5,0.5,100,142.0
1209,B-5,111.5,0.5,100,142.0
1210,B-4,111.55,117/1000,85,142.0
1211,B-4,111.8,167/1000,78,142.0
1212,C#2,112.0,1.0,100,142.0
1213,B-4,112.0,1/10,71,142.0
1214,C#6,112.0,1.0,100,142.0
1215,C#5,112.0,1.0,100,142.0
1216,C#6,112.0,1.0,100,142.0
1217,B-5,112.5,0.5,100,142.0
1218,E-4,112.5,0.5,100,142.0
1219,E4,112.5,0.5,100,142.0
1220,G#4,112.5,0.5,100,142.0
1221,C#4,112.5,0.5,115,142.0
1222,C#4,112.5,0.5,115,142.0
1223,B-4,112.542,133/1000,74,142.0
1224,B-4,112.8,79/500,78,142.0
1225,C#2,113.0,1.0,100,142.0
1226,B-4,113.0,0.125,74,142.0
1227,B-5,113.0,0.5,100,142.0
1228,E-6,113.0,0.5,100,142.0
1229,B3,113.0,0.5,115,142.0
1230,B3,113.0,0.5,115,142.0
1231,E-5,113.0,0.5,100,142.0
1232,E-6,113.0,0.5,100,142.0
1233,B-5,113.5,0.5,100,142.0
1234,B5,113.5,0.5,100,142.0
1235,E-4,113.5,0.5,100,142.0
1236,E4,113.5,0.5,100,142.0
1237,G#4,113.5,0.5,100,142.0
1238,G#3,113.5,0.5,115,142.0
1239,G#3,113.5,0.5,115,142.0
1240,B4,113.5,0.5,100,142.0
1241,B5,113.5,0.5,100,142.0
1242,B-4,113.542,133/1000,67,142.0
1243,B-4,113.8,79/500,78,142.0
1244,C#2,114.0,1.0,100,142.0
1245,B3,114.0,0.5,115,142.0
1246,B3,114.0,0.5,115,142.0
1247,B-4,114.05,117/1000,69,142.0
1248,C#2,114.5,0.5,100,142.0
1249,C#4,114.5,0.5,100,142.0
1250,E4,114.5,0.5,100,142.0
1251,G#4,114.5,0.5,100,142.0
1252,C#4,114.5,0.5,115,142.0
1253,C#4,114.5,0.5,115,142.0
1254,B1,114.5,0.5,100,142.0
1255,B-5,114.5,0.5,100,142.0
1256,B-4,114.55,83/1000,74,142.0
1257,B-4,114.75,167/1000,78,142.0
1258,B1,115.0,0.5,100,142.0
1259,B1,115.0,0.5,100,142.0
1260,C#2,115.0,1.0,100,142.0
1261,B-4,115.008,117/1000,78,142.0
1262,A1,115.5,0.5,100,142.0
1263,G#5,115.5,0.5,100,142.0
1264,E-4,115.5,0.5,100,142.0
1265,E4,115.5,0.5,100,142.0
1266,G#4,115.5,0.5,100,142.0
1267,C#3,115.5,0.25,115,142.0
1268,C#3,115.5,0.25,115,142.0
1269,G#4,115.5,0.5,100,142.0
1270,G#5,115.5,0.5,100,142.0
1271,B1,115.5,0.5,100,142.0
1272,B-5,115.5,0.5,100,142.0
1273,B-4,115.55,117/1000,85,142.0
1274,C#3,115.75,0.25,115,142.0
1275,C#3,115.75,0.25,115,142.0
1276,B-4,115.8,167/1000,78,142.0
1277,C#2,116.0,1.0,100,142.0
1278,B-4,116.0,1/10,71,142.0
1279,B5,116.0,0.5,100,142.0
1280,E3,116.0,0.5,115,142.0
1281,E3,116.0,0.5,115,142.0
1282,B4,116.0,0.5,100,142.0
1283,B5,116.0,0.5,100,142.0
1284,B-5,116.5,0.5,100,142.0
1285,C#6,116.5,0.5,100,142.0
1286,E-4,116.5,0.5,100,142.0
1287,E4,116.5,0.5,100,142.0
1288,G#4,116.5,0.5,100,142.0
1289,F#3,116.5,0.5,115,142.0
1290,F#3,116.5,0.5,115,142.0
1291,C#5,116.5,0.5,100,142.0
1292,C#6,116.5,0.5,100,142.0
1293,B-4,116.542,133/1000,74,142.0
1294,B-4,116.8,79/500,78,142.0
1295,C#2,117.0,1.0,100,142.0
1296,B-4,117.0,0.125,74,142.0
1297,B-5,117.0,0.5,100,142.0
1298,G#5,117.0,0.5,100,142.0
1299,G#3,117.0,0.5,115,142.0
1300,G#3,117.0,0.5,115,142.0
1301,G#4,117.0,0.5,100,142.0
1302,G#5,117.0,0.5,100,142.0
1303,B-5,117.5,0.5,100,142.0
1304,E-4,117.5,0.5,100,142.0
1305,E4,117.5,0.5,100,142.0
1306,G#4,117.5,0.5,100,142.0
1307,E3,117.5,2.5,115,142.0
1308,E3,117.5,2.5,115,142.0
1309,B-4,117.542,133/1000,67,142.0
1310,B-4,117.8,79/500,78,142.0
1311,C#2,118.0,1.0,100,142.0
1312,B-4,118.05,117/1000,69,142.0
1313,A1,118.5,0.5,100,142.0
1314,E5,118.5,0.5,100,142.0
1315,C#4,118.5,0.5,100,142.0
1316,E4,118.5,0.5,100,142.0
1317,G#4,118.5,0.5,100,142.0
1318,E4,118.5,0.5,100,142.0
1319,E5,118.5,0.5,100,142.0
1320,B1,118.5,0.5,100,142.0
1321,B-5,118.5,0.5,100,142.0
1322,B-4,118.55,83/1000,74,142.0
1323,B-4,118.75,167/1000,78,142.0
1324,G#1,119.0,0.5,100,142.0
1325,B1,119.0,0.5,100,142.0
1326,C#2,119.0,1.0,100,142.0
1327,F#5,119.0,0.5,100,142.0
1328,F#4,119.0,0.5,100,142.0
1329,F#5,119.0,0.5,100,142.0
1330,B-4,119.008,117/1000,78,142.0
1331,F#1,119.5,0.5,100,142.0
1332,G#5,119.5,0.5,100,142.0
1333,G#3,119.5,0.5,100,142.0
1334,A3,119.5,0.5,100,142.0
1335,C#4,119.5,0.5,100,142.0
1336,G#4,119.5,0.5,100,142.0
1337,G#5,119.5,0.5,100,142.0
1338,B1,119.5,0.5,100,142.0
1339,B-5,119.5,0.5,100,142.0
1340,B-4,119.55,117/1000,85,142.0
1341,B-4,119.8,167/1000,78,142.0
1342,C#2,120.0,1.0,100,142.0
1343,B-4,120.0,1/10,71,142.0
1344,G#5,120.0,1.0,100,142.0
1345,C#3,120.0,0.25,115,142.0
1346,C#3,120.0,0.25,115,142.0
1347,G#4,120.0,1.0,100,142.0
1348,G#5,120.0,1.0,100,142.0
1349,C#3,120.25,0.25,115,142.0
1350,C#3,120.25,0.25,115,142.0
1351,B-5,120.5,0.5,100,142.0
1352,G#3,120.5,0.5,100,142.0
1353,A3,120.5,0.5,100,142.0
1354,C#4,120.5,0.5,100,142.0
1355,G#3,120.5,0.5,115,142.0
1356,G#3,120.5,0.5,115,142.0
1357,B-4,120.542,133/1000,74,142.0
1358,B-4,120.8,79/500,78,142.0
1359,C#2,121.0,1.0,100,142.0
1360,B-4,121.0,0.125,74,142.0
1361,B-5,121.0,0.5,100,142.0
1362,F#5,121.0,0.5,100,142.0
1363,F#3,121.0,0.5,115,142.0
1364,F#3,121.0,0.5,115,142.0
1365,F#5,121.0,0.5,100,142.0
1366,F#4,121.0,0.5,100,142.0
1367,B-5,121.5,0.5,100,142.0
1368,F#5,121.5,0.5,100,142.0
1369,G#3,121.5,0.5,100,142.0
1370,A3,121.5,0.5,100,142.0
1371,C#4,121.5,0.5,100,142.0
1372,E3,121.5,0.5,115,142.0
1373,E3,121.5,0.5,115,142.0
1374,F#5,121.5,0.5,100,142.0
1375,F#4,121.5,0.5,100,142.0
1376,B-4,121.542,133/1000,67,142.0
1377,B-4,121.8,79/500,78,142.0
1378,C#2,122.0,1.0,100,142.0
1379,F#3,122.0,0.5,115,142.0
1380,F#3,122.0,0.5,115,142.0
1381,B-4,122.05,117/1000,69,142.0
1382,B-5,122.5,0.5,100,142.0
1383,E5,122.5,0.5,100,142.0
1384,F#3,122.5,0.5,100,142.0
1385,A3,122.5,0.5,100,142.0
1386,C#4,122.5,0.5,100,142.0
1387,G#3,122.5,0.5,115,142.0
1388,G#3,122.5,0.5,115,142.0
1389,E5,122.5,0.5,100,142.0
1390,E4,122.5,0.5,100,142.0
1391,B-4,122.55,83/1000,74,142.0
1392,B-4,122.75,167/1000,78,142.0
1393,F#1,123.0,0.5,100,142.0
1394,B1,123.0,0.5,100,142.0
1395,C#2,123.0,1.0,100,142.0
1396,B-4,123.008,117/1000,78,142.0
1397,G#1,123.5,0.5,100,142.0
1398,F#5,123.5,0.5,100,142.0
1399,B-3,123.5,0.5,100,142.0
1400,B3,123.5,0.5,100,142.0
1401,E-4,123.5,0.5,100,142.0
1402,G#3,123.5,0.25,115,142.0
1403,G#3,123.5,0.25,115,142.0
1404,F#5,123.5,0.5,100,142.0
1405,F#4,123.5,0.5,100,142.0
1406,B1,123.5,0.5,100,142.0
1407,B-5,123.5,0.5,100,142.0
1408,B-4,123.55,117/1000,85,142.0
1409,G#3,123.75,0.25,115,142.0
1410,G#3,123.75,0.25,115,142.0
1411,B-4,123.8,167/1000,78,142.0
1412,C#2,124.0,1.0,100,142.0
1413,B-4,124.0,1/10,71,142.0
1414,F#5,124.0,0.5,100,142.0
1415,B3,124.0,0.5,115,142.0
1416,B3,124.0,0.5,115,142.0
1417,F#5,124.0,0.5,100,142.0
1418,F#4,124.0,0.5,100,142.0
1419,B-5,124.5,0.5,100,142.0
1420,G#5,124.5,0.5,100,142.0
1421,B-3,124.5,0.5,100,142.0
1422,B3,124.5,0.5,100,142.0
1423,E-4,124.5,0.5,100,142.0
1424,C#4,124.5,0.5,115,142.0
1425,C#4,124.5,0.5,115,142.0
1426,G#5,124.5,0.5,100,142.0
1427,G#4,124.5,0.5,100,142.0
1428,B-4,124.542,133/1000,74,142.0
1429,B-4,124.8,79/500,78,142.0
1430,C#2,125.0,1.0,100,142.0
1431,B-4,125.0,0.125,74,142.0
1432,B-5,125.0,0.5,100,142.0
1433,E-4,125.0,0.5,115,142.0
1434,E-4,125.0,0.5,115,142.0
1435,B-5,125.5,0.5,100,142.0
1436,B-3,125.5,0.5,100,142.0
1437,B3,125.5,0.5,100,142.0
1438,E-4,125.5,0.5,100,142.0
1439,C#4,125.5,1.0,115,142.0
1440,C#4,125.5,1.0,115,142.0
1441,B-4,125.542,133/1000,67,142.0
1442,B-4,125.8,79/500,78,142.0
1443,C#2,126.0,1.0,100,142.0
1444,B-4,126.05,117/1000,69,142.0
1445,B-5,126.5,0.5,100,142.0
1446,C#6,126.5,0.5,100,142.0
1447,G#3,126.5,0.5,100,142.0
1448,B3,126.5,0.5,100,142.0
1449,E-4,126.5,0.5,100,142.0
1450,B3,126.5,0.5,115,142.0
1451,B3,126.5,0.5,115,142.0
1452,C#6,126.5,0.5,100,142.0
1453,C#5,126.5,0.5,100,142.0
1454,B-4,126.55,83/1000,74,142.0
1455,G#1,126.75,0.25,100,142.0
1456,B1,126.75,0.25,100,142.0
1457,B-4,126.75,167/1000,78,142.0
1458,B1,127.0,0.5,100,142.0
1459,B1,127.0,0.5,100,142.0
1460,C#2,127.0,1.0,100,142.0
1461,F#3,127.0,0.5,115,142.0
1462,F#3,127.0,0.5,115,142.0
1463,E6,127.0,0.5,100,142.0
1464,C#6,127.0,0.5,100,142.0
1465,E5,127.0,0.5,100,142.0
1466,C#5,127.0,0.5,100,142.0
1467,E6,127.0,0.5,100,142.0
1468,C#6,127.0,0.5,100,142.0
1469,B-4,127.008,117/1000,78,142.0
1470,C#2,127.5,0.5,100,142.0
1471,E-4,127.5,0.5,100,142.0
1472,E4,127.5,0.5,100,142.0
1473,G#4,127.5,0.5,100,142.0
1474,E3,127.5,0.5,115,142.0
1475,E3,127.5,0.5,115,142.0
1476,F#6,127.5,0.5,100,142.0
1477,E-6,127.5,0.5,100,142.0
1478,F#5,127.5,0.5,100,142.0
1479,E-5,127.5,0.5,100,142.0
1480,B1,127.5,0.5,100,142.0
1481,B-5,127.5,0.5,100,142.0
1482,F#6,127.5,0.5,100,142.0
1483,E-6,127.5,0.5,100,142.0
1484,B-4,127.55,117/1000,85,142.0
1485,B-4,127.8,167/1000,78,142.0
1486,C#2,128.0,1.0,100,142.0
1487,B-4,128.0,1/10,71,142.0
1488,F#6,128.0,1.0,100,142.0
1489,E-6,128.0,1.0,100,142.0
1490,F#5,128.0,1.0,100,142.0
1491,E-5,128.0,1.0,100,142.0
1492,F#6,128.0,1.0,100,142.0
1493,E-6,128.0,1.0,100,142.0
1494,B-5,128.5,0.5,100,142.0
1495,E-4,128.5,0.5,100,142.0
1496,E4,128.5,0.5,100,142.0
1497,G#4,128.5,0.5,100,142.0
1498,C#4,128.5,0.5,115,142.0
1499,C#4,128.5,0.5,115,142.0
1500,B-4,128.542,133/1000,74,142.0
1501,B-4,128.8,79/500,78,142.0
1502,C#2,129.0,1.0,100,142.0
1503,B-4,129.0,0.125,74,142.0
1504,B-5,129.0,0.5,100,142.0
1505,B3,129.0,0.5,115,142.0
1506,B3,129.0,0.5,115,142.0
1507,G#6,129.0,0.5,100,142.0
1508,E6,129.0,0.5,100,142.0
1509,G#5,129.0,0.5,100,142.0
1510,E5,129.0,0.5,100,142.0
1511,G#6,129.0,0.5,100,142.0
1512,E6,129.0,0.5,100,142.0
1513,B-5,129.5,0.5,100,142.0
1514,E-4,129.5,0.5,100,142.0
1515,E4,129.5,0.5,100,142.0
1516,G#4,129.5,0.5,100,142.0
1517,G#3,129.5,0.5,115,142.0
1518,G#3,129.5,0.5,115,142.0
1519,E6,129.5,0.5,100,142.0
1520,C#6,129.5,0.5,100,142.0
1521,C#5,129.5,0.5,100,142.0
1522,E5,129.5,0.5,100,142.0
1523,E6,129.5,0.5,100,142.0
1524,C#6,129.5,0.5,100,142.0
1525,B-4,129.542,133/1000,67,142.0
1526,B-4,129.8,79/500,78,142.0
1527,C#2,130.0,1.0,100,142.0
1528,B3,130.0,0.5,115,142.0
1529,B3,130.0,0.5,115,142.0
1530,B-4,130.05,117/1000,69,142.0
1531,C#2,130.5,0.5,100,142.0
1532,C#4,130.5,0.5,100,142.0
1533,E4,130.5,0.5,100,142.0
1534,G#4,130.5,0.5,100,142.0
1535,C#4,130.5,0.5,115,142.0
1536,C#4,130.5,0.5,115,142.0
1537,B1,130.5,0.5,100,142.0
1538,B-5,130.5,0.5,100,142.0
1539,B-4,130.55,83/1000,74,142.0
1540,B-4,130.75,167/1000,78,142.0
1541,B1,131.0,0.5,100,142.0
1542,B1,131.0,0.5,100,142.0
1543,C#2,131.0,1.0,100,142.0
1544,B-4,131.008,117/1000,78,142.0
1545,A1,131.5,0.5,100,142.0
1546,B5,131.5,0.5,100,142.0
1547,E-4,131.5,0.5,100,142.0
1548,E4,131.5,0.5,100,142.0
1549,G#4,131.5,0.5,100,142.0
1550,C#3,131.5,0.25,115,142.0
1551,C#3,131.5,0.25,115,142.0
1552,B5,131.5,0.5,100,142.0
1553,B4,131.5,0.5,100,142.0
1554,B1,131.5,0.5,100,142.0
1555,B-5,131.5,0.5,100,142.0
1556,B-4,131.55,117/1000,85,142.0
1557,C#3,131.75,0.25,115,142.0
1558,C#3,131.75,0.25,115,142.0
1559,B-4,131.8,167/1000,78,142.0
1560,C#2,132.0,1.0,100,142.0
1561,B-4,132.0,1/10,71,142.0
1562,E-6,132.0,0.5,100,142.0
1563,E3,132.0,0.5,115,142.0
1564,E3,132.0,0.5,115,142.0
1565,E-6,132.0,0.5,100,142.0
1566,E-5,132.0,0.5,100,142.0
1567,B-5,132.5,0.5,100,142.0
1568,E6,132.5,0.5,100,142.0
1569,E-4,132.5,0.5,100,142.0
1570,E4,132.5,0.5,100,142.0
1571,G#4,132.5,0.5,100,142.0
1572,F#3,132.5,0.5,115,142.0
1573,F#3,132.5,0.5,115,142.0
1574,E6,132.5,0.5,100,142.0
1575,E5,132.5,0.5,100,142.0
1576,B-4,132.542,133/1000,74,142.0
1577,B-4,132.8,79/500,78,142.0
1578,C#2,133.0,1.0,100,142.0
1579,B-4,133.0,0.125,74,142.0
1580,B-5,133.0,0.5,100,142.0
1581,C#6,133.0,0.5,100,142.0
1582,G#3,133.0,0.5,115,142.0
1583,G#3,133.0,0.5,115,142.0
1584,C#6,133.0,0.5,100,142.0
1585,C#5,133.0,0.5,100,142.0
1586,B-5,133.5,0.5,100,142.0
1587,G#5,133.5,0.5,100,142.0
1588,E-4,133.5,0.5,100,142.0
1589,E4,133.5,0.5,100,142.0
1590,G#4,133.5,0.5,100,142.0
1591,E3,133.5,2.5,115,142.0
1592,E3,133.5,2.5,115,142.0
1593,G#5,133.5,0.5,100,142.0
1594,G#4,133.5,0.5,100,142.0
1595,B-4,133.542,133/1000,67,142.0
1596,B-4,133.8,79/500,78,142.0
1597,C#2,134.0,1.0,100,142.0
1598,B-4,134.05,117/1000,69,142.0
1599,A1,134.5,0.5,100,142.0
1600,B5,134.5,0.5,100,142.0
1601,C#4,134.5,0.5,100,142.0
1602,E4,134.5,0.5,100,142.0
1603,G#4,134.5,0.5,100,142.0
1604,B5,134.5,0.5,100,142.0
1605,B4,134.5,0.5,100,142.0
1606,B1,134.5,0.5,100,142.0
1607,B-5,134.5,0.5,100,142.0
1608,B-4,134.55,83/1000,74,142.0
1609,B-4,134.75,167/1000,78,142.0
1610,G#1,135.0,0.5,100,142.0
1611,B1,135.0,0.5,100,142.0
1612,C#2,135.0,1.0,100,142.0
1613,G#5,135.0,0.5,100,142.0
1614,G#5,135.0,0.5,100,142.0
1615,G#4,135.0,0.5,100,142.0
1616,B-4,135.008,117/1000,78,142.0
1617,F#1,135.5,0.5,100,142.0
1618,G#5,135.5,0.5,100,142.0
1619,G#3,135.5,0.5,100,142.0
1620,A3,135.5,0.5,100,142.0
1621,C#4,135.5,0.5,100,142.0
1622,G#5,135.5,0.5,100,142.0
1623,G#4,135.5,0.5,100,142.0
1624,B1,135.5,0.5,100,142.0
1625,B-5,135.5,0.5,100,142.0
1626,B-4,135.55,117/1000,85,142.0
1627,B-4,135.8,167/1000,78,142.0
1628,C#2,136.0,1.0,100,142.0
1629,B-4,136.0,1/10,71,142.0
1630,G#5,136.0,1.0,100,142.0
1631,C#3,136.0,0.25,115,142.0
1632,C#3,136.0,0.25,115,142.0
1633,G#5,136.0,1.0,100,142.0
1634,G#4,136.0,1.0,100,142.0
1635,C#3,136.25,0.25,115,142.0
1636,C#3,136.25,0.25,115,142.0
1637,B-5,136.5,0.5,100,142.0
1638,G#3,136.5,0.5,100,142.0
1639,A3,136.5,0.5,100,142.0
1640,C#4,136.5,0.5,100,142.0
1641,G#3,136.5,0.5,115,142.0
1642,G#3,136.5,0.5,115,142.0
1643,B-4,136.542,133/1000,74,142.0
1644,B-4,136.8,79/500,78,142.0
1645,C#2,137.0,1.0,100,142.0
1646,B-4,137.0,0.125,74,142.0
1647,B-5,137.0,0.5,100,142.0
1648,F#5,137.0,0.5,100,142.0
1649,F#3,137.0,0.5,115,142.0
1650,F#3,137.0,0.5,115,142.0
1651,F#5,137.0,0.5,100,142.0
1652,F#4,137.0,0.5,100,142.0
1653,B-5,137.5,0.5,100,142.0
1654,F#5,137.5,0.5,100,142.0
1655,G#3,137.5,0.5,100,142.0
1656,A3,137.5,0.5,100,142.0
1657,C#4,137.5,0.5,100,142.0
1658,E3,137.5,0.5,115,142.0
1659,E3,137.5,0.5,115,142.0
1660,F#5,137.5,0.5,100,142.0
1661,F#4,137.5,0.5,100,142.0
1662,B-4,137.542,133/1000,67,142.0
1663,B-4,137.8,79/500,78,142.0
1664,C#2,138.0,1.0,100,142.0
1665,F#3,138.0,0.5,115,142.0
1666,F#3,138.0,0.5,115,142.0
1667,B-4,138.05,117/1000,69,142.0
1668,B-5,138.5,0.5,100,142.0
1669,E5,138.5,0.5,100,142.0
1670,F#3,138.5,0.5,100,142.0
1671,A3,138.5,0.5,100,142.0
1672,C#4,138.5,0.5,100,142.0
1673,G#3,138.5,0.5,115,142.0
1674,G#3,138.5,0.5,115,142.0
1675,E5,138.5,0.5,100,142.0
1676,E4,138.5,0.5,100,142.0
1677,B-4,138.55,83/1000,74,142.0
1678,B-4,138.75,167/1000,78,142.0
1679,F#1,139.0,0.5,100,142.0
1680,B1,139.0,0.5,100,142.0
1681,C#2,139.0,1.0,100,142.0
1682,B-4,139.008,117/1000,78,142.0
1683,G#1,139.5,0.5,100,142.0
1684,F#5,139.5,0.5,100,142.0
1685,B-3,139.5,0.5,100,142.0
1686,B3,139.5,0.5,100,142.0
1687,E-4,139.5,0.5,100,142.0
1688,G#3,139.5,0.25,115,142.0
1689,G#3,139.5,0.25,115,142.0
1690,F#5,139.5,0.5,100,142.0
1691,F#4,139.5,0.5,100,142.0
1692,B1,139.5,0.5,100,142.0
1693,B-5,139.5,0.5,100,142.0
1694,B-4,139.55,117/1000,85,142.0
1695,G#3,139.75,0.25,115,142.0
1696,G#3,139.75,0.25,115,142.0
1697,B-4,139.8,167/1000,78,142.0
1698,C#2,140.0,1.0,100,142.0
1699,F#5,140.0,0.5,100,142.0
1700,B3,140.0,0.5,115,142.0
1701,B3,140.0,0.5,115,142.0
1702,F#5,140.0,0.5,100,142.0
1703,F#4,140.0,0.5,100,142.0
1704,B-5,140.5,0.5,100,142.0
1705,G#5,140.5,0.5,100,142.0
1706,F#6,140.5,1.0,127,142.0
1707,B-3,140.5,0.5,100,142.0
1708,B3,140.5,0.5,100,142.0
1709,E-4,140.5,0.5,100,142.0
1710,C#4,140.5,0.5,115,142.0
1711,C#4,140.5,0.5,115,142.0
1712,G#5,140.5,0.5,100,142.0
1713,G#4,140.5,0.5,100,142.0
1714,C#2,141.0,1.0,100,142.0
1715,B-5,141.0,0.5,100,142.0
1716,E-4,141.0,0.5,115,142.0
1717,E-4,141.0,0.5,115,142.0
1718,B-5,141.5,0.5,100,142.0
1719,F#5,141.5,0.5,127,142.0
1720,B-3,141.5,0.5,100,142.0
1721,B3,141.5,0.5,100,142.0
1722,E-4,141.5,0.5,100,142.0
1723,C#4,141.5,1.0,115,142.0
1724,C#4,141.5,1.0,115,142.0
1725,G#4,142.0,0.5,100,142.0
1726,C#2,142.0,1.0,100,142.0
1727,D3,142.0,0.5,115,142.0
1728,G#4,142.0,0.5,100,142.0
1729,B4,142.0,0.5,127,142.0
1730,G#1,142.5,0.5,100,142.0
1731,C#5,142.5,0.5,100,142.0
1732,A2,142.5,0.25,115,142.0
1733,C#5,142.5,0.5,100,142.0
1734,E4,142.5,1.0,127,142.0
1735,B3,142.5,0.5,115,142.0
1736,B3,142.5,0.5,115,142.0
1737,B1,142.5,0.5,100,142.0
1738,B-5,142.5,0.5,100,142.0
1739,A2,142.75,0.25,115,142.0
1740,B1,143.0,0.5,100,142.0
1741,C#2,143.0,1.0,100,142.0
1742,E-5,143.0,0.5,100,142.0
1743,F#3,143.0,0.5,115,142.0
1744,F#3,143.0,0.5,115,142.0
1745,E-5,143.0,0.5,100,142.0
1746,B4,143.0,0.5,100,142.0
1747,B1,143.0,0.5,108,142.0
1748,F2,143.0,0.5,108,142.0
1749,A1,143.5,0.5,100,142.0
1750,A2,143.5,0.5,100,142.0
1751,E5,143.5,0.5,100,142.0
1752,E3,143.5,0.5,115,142.0
1753,E3,143.5,0.5,115,142.0
1754,E5,143.5,0.5,100,142.0
1755,C#5,143.5,0.5,100,142.0
1756,G#4,143.5,0.5,100,142.0
1757,B1,143.5,0.5,105,142.0
1758,B-5,143.5,0.5,105,142.0
1759,C#3,143.5,0.5,105,142.0
1760,A1,144.0,0.5,100,142.0
1761,A2,144.0,0.5,100,142.0
1762,C#2,144.0,1.0,100,142.0
1763,F#3,144.0,133/1000,66,142.0
1764,F#3,144.208,167/1000,58,142.0
1765,F3,144.467,73/250,100,142.0
1766,F#3,144.467,3/40,78,142.0
1767,B-5,144.467,3/40,78,142.0
1768,A1,144.5,2/5,100,142.0
1769,A2,144.5,0.5,100,142.0
1770,B1,144.5,0.5,100,142.0
1771,E5,144.5,0.5,100,142.0
1772,G#4,144.5,0.5,100,142.0
1773,C#5,144.5,0.5,100,142.0
1774,E5,144.5,0.5,100,142.0
1775,F#3,144.708,133/1000,82,142.0
1776,B-5,144.708,133/1000,82,142.0
1777,F#3,144.958,167/1000,66,142.0
1778,A1,145.0,2/5,100,142.0
1779,A2,145.0,0.5,100,142.0
1780,E-5,145.0,0.5,100,142.0
1781,E-5,145.0,0.5,100,142.0
1782,B4,145.0,0.5,100,142.0
1783,F#4,145.0,0.5,100,142.0
1784,C#2,145.0,1.0,108,142.0
1785,D2,145.0,1.0,108,142.0
1786,F#3,145.208,7/40,63,142.0
1787,F#3,145.458,0.125,86,142.0
1788,F3,145.458,0.125,86,142.0
1789,B-5,145.458,0.125,86,142.0
1790,A1,145.5,2/5,100,142.0
1791,A2,145.5,0.5,100,142.0
1792,B1,145.5,0.5,100,142.0
1793,F#3,145.708,167/1000,82,142.0
1794,B-5,145.708,167/1000,82,142.0
1795,F#3,145.958,1/5,80,142.0
1796,F3,145.958,1/5,80,142.0
1797,A1,146.0,2/5,100,142.0
1798,A2,146.0,0.5,100,142.0
1799,B1,146.0,0.5,100,142.0
1800,C#2,146.0,1.0,100,142.0
1801,C#5,146.0,0.5,100,142.0
1802,C#5,146.0,0.5,100,142.0
1803,G#4,146.0,0.5,100,142.0
1804,E4,146.0,0.5,100,142.0
1805,F#3,146.208,167/1000,60,142.0
1806,F3,146.458,79/500,78,142.0
1807,F#3,146.458,79/500,78,142.0
1808,B-5,146.458,79/500,78,142.0
1809,F#3,146.458,79/500,78,142.0
1810,A1,146.5,2/5,100,142.0
1811,A2,146.5,0.5,100,142.0
1812,B1,146.5,0.5,100,142.0
1813,F#3,146.708,167/1000,78,142.0
1814,B-5,146.708,167/1000,78,142.0
1815,F#3,146.958,26/125,56,142.0
1816,A1,147.0,2/5,100,142.0
1817,A2,147.0,0.5,100,142.0
1818,B4,147.0,0.5,100,142.0
1819,B4,147.0,0.5,100,142.0
1820,G#4,147.0,0.5,100,142.0
1821,E-4,147.0,0.5,100,142.0
1822,C#2,147.0,1.0,108,142.0
1823,D2,147.0,1.0,108,142.0
1824,F#3,147.208,167/1000,60,142.0
1825,F#3,147.458,0.125,86,142.0
1826,F3,147.458,0.125,86,142.0
1827,B-5,147.458,0.125,86,142.0
1828,A1,147.5,2/5,100,142.0
1829,A2,147.5,0.5,100,142.0
1830,B1,147.5,0.5,100,142.0
1831,F#3,147.708,167/1000,78,142.0
1832,B-5,147.708,167/1000,78,142.0
1833,F3,147.958,21/500,83,142.0
1834,F#3,147.958,21/500,83,142.0
1835,A1,148.0,2/5,100,142.0
1836,A2,148.0,0.5,100,142.0
1837,B1,148.0,0.5,100,142.0
1838,C#2,148.0,1.0,100,142.0
1839,B4,148.0,0.5,100,142.0
1840,B4,148.0,0.5,100,142.0
1841,F#4,148.0,0.5,100,142.0
1842,E-4,148.0,0.5,100,142.0
1843,F3,148.0,23/250,83,142.0
1844,F#3,148.0,23/250,83,142.0
1845,F#3,148.208,167/1000,58,142.0
1846,F#3,148.467,3/40,86,142.0
1847,F3,148.467,3/40,86,142.0
1848,B-5,148.467,3/40,86,142.0
1849,A1,148.5,2/5,100,142.0
1850,A2,148.5,0.5,100,142.0
1851,B1,148.5,0.5,100,142.0
1852,C#5,148.5,0.5,100,142.0
1853,C#5,148.5,0.5,100,142.0
1854,G#4,148.5,0.5,100,142.0
1855,E4,148.5,0.5,100,142.0
1856,F#3,148.708,133/1000,82,142.0
1857,B-5,148.708,133/1000,82,142.0
1858,F#3,148.958,167/1000,66,142.0
1859,A1,149.0,2/5,100,142.0
1860,A2,149.0,0.5,100,142.0
1861,C#2,149.0,1.0,108,142.0
1862,D2,149.0,1.0,108,142.0
1863,F#3,149.208,7/40,63,142.0
1864,F#3,149.458,0.125,86,142.0
1865,F3,149.458,0.125,86,142.0
1866,B-5,149.458,0.125,86,142.0
1867,A1,149.5,2/5,100,142.0
1868,A2,149.5,0.5,100,142.0
1869,B1,149.5,0.5,100,142.0
1870,C#5,149.5,0.5,100,142.0
1871,E4,149.5,0.5,100,142.0
1872,G#4,149.5,0.5,100,142.0
1873,C#5,149.5,0.5,100,142.0
1874,F#3,149.708,167/1000,82,142.0
1875,B-5,149.708,167/1000,82,142.0
1876,F#3,149.958,167/1000,80,142.0
1877,F3,149.958,167/1000,80,142.0
1878,A1,150.0,2/5,100,142.0
1879,A2,150.0,0.5,100,142.0
1880,B1,150.0,0.5,100,142.0
1881,C#2,150.0,1.0,100,142.0
1882,F#3,150.208,167/1000,60,142.0
1883,F3,150.458,129/500,100,142.0
1884,B-5,150.458,79/500,78,142.0
1885,F#3,150.458,79/500,78,142.0
1886,B1,150.5,2/5,100,142.0
1887,B2,150.5,0.5,100,142.0
1888,E-5,150.5,0.5,100,142.0
1889,E-5,150.5,0.5,100,142.0
1890,B4,150.5,0.5,100,142.0
1891,F#4,150.5,0.5,100,142.0
1892,B1,150.5,0.5,114,142.0
1893,G3,150.5,0.5,114,142.0
1894,F#3,150.708,167/1000,78,142.0
1895,B-5,150.708,167/1000,78,142.0
1896,F#3,150.958,26/125,56,142.0
1897,B1,151.0,2/5,100,142.0
1898,B2,151.0,0.5,100,142.0
1899,C#2,151.0,1.0,108,142.0
1900,D2,151.0,1.0,108,142.0
1901,F#3,151.208,167/1000,60,142.0
1902,F#3,151.458,26/125,86,142.0
1903,B-5,151.458,26/125,86,142.0
1904,F3,151.458,26/125,86,142.0
1905,C#2,151.5,0.5,100,142.0
1906,C#3,151.5,0.5,100,142.0
1907,E5,151.5,0.5,100,142.0
1908,E5,151.5,0.5,100,142.0
1909,C#5,151.5,0.5,100,142.0
1910,G#4,151.5,0.5,100,142.0
1911,B1,151.5,0.5,108,142.0
1912,C#3,151.5,0.5,108,142.0
1913,F#3,151.708,167/1000,78,142.0
1914,B-5,151.708,167/1000,78,142.0
1915,C#2,152.0,0.5,100,142.0
1916,C#3,152.0,0.5,100,142.0
1917,C#2,152.0,1.0,100,142.0
1918,F#3,152.0,133/1000,66,142.0
1919,F#3,152.208,167/1000,58,142.0
1920,F3,152.467,73/250,100,142.0
1921,F#3,152.467,3/40,78,142.0
1922,B-5,152.467,3/40,78,142.0
1923,C#2,152.5,2/5,100,142.0
1924,C#3,152.5,0.5,100,142.0
1925,B1,152.5,0.5,100,142.0
1926,E5,152.5,0.5,100,142.0
1927,G#4,152.5,0.5,100,142.0
1928,C#5,152.5,0.5,100,142.0
1929,E5,152.5,0.5,100,142.0
1930,F#3,152.708,133/1000,82,142.0
1931,B-5,152.708,133/1000,82,142.0
1932,F#3,152.958,167/1000,66,142.0
1933,C#2,153.0,2/5,100,142.0
1934,C#3,153.0,0.5,100,142.0
1935,E-5,153.0,0.5,100,142.0
1936,E-5,153.0,0.5,100,142.0
1937,B4,153.0,0.5,100,142.0
1938,F#4,153.0,0.5,100,142.0
1939,C#2,153.0,1.0,108,142.0
1940,D2,153.0,1.0,108,142.0
1941,F#3,153.208,7/40,63,142.0
1942,F#3,153.458,0.125,86,142.0
1943,F3,153.458,0.125,86,142.0
1944,B-5,153.458,0.125,86,142.0
1945,C#2,153.5,2/5,100,142.0
1946,C#3,153.5,0.5,100,142.0
1947,B1,153.5,0.5,100,142.0
1948,F#3,153.708,167/1000,82,142.0
1949,B-5,153.708,167/1000,82,142.0
1950,F#3,153.958,217/1000,80,142.0
1951,F3,153.958,217/1000,80,142.0
1952,C#2,154.0,2/5,100,142.0
1953,C#3,154.0,0.5,100,142.0
1954,B1,154.0,0.5,100,142.0
1955,C#2,154.0,1.0,100,142.0
1956,C#5,154.0,0.5,100,142.0
1957,C#5,154.0,0.5,100,142.0
1958,G#4,154.0,0.5,100,142.0
1959,E4,154.0,0.5,100,142.0
1960,F#3,154.208,167/1000,60,142.0
1961,F3,154.458,79/500,78,142.0
1962,F#3,154.458,79/500,78,142.0
1963,B-5,154.458,79/500,78,142.0
1964,F#3,154.458,79/500,78,142.0
1965,C#2,154.5,2/5,100,142.0
1966,C#3,154.5,0.5,100,142.0
1967,B1,154.5,0.5,100,142.0
1968,F#3,154.708,167/1000,78,142.0
1969,B-5,154.708,167/1000,78,142.0
1970,F#3,154.958,26/125,56,142.0
1971,C#2,155.0,2/5,100,142.0
1972,C#3,155.0,0.5,100,142.0
1973,B4,155.0,0.5,100,142.0
1974,B4,155.0,0.5,100,142.0
1975,G#4,155.0,0.5,100,142.0
1976,E-4,155.0,0.5,100,142.0
1977,C#2,155.0,1.0,108,142.0
1978,D2,155.0,1.0,108,142.0
1979,F#3,155.208,167/1000,60,142.0
1980,F#3,155.458,0.125,86,142.0
1981,F3,155.458,0.125,86,142.0
1982,B-5,155.458,0.125,86,142.0
1983,C#2,155.5,2/5,100,142.0
1984,C#3,155.5,0.5,100,142.0
1985,B1,155.5,0.5,100,142.0
1986,F#3,155.708,167/1000,78,142.0
1987,B-5,155.708,167/1000,78,142.0
1988,F3,155.958,21/500,83,142.0
1989,F#3,155.958,21/500,83,142.0
1990,C#2,156.0,2/5,100,142.0
1991,C#3,156.0,0.5,100,142.0
1992,B1,156.0,0.5,100,142.0
1993,C#2,156.0,1.0,100,142.0
1994,B4,156.0,1.5,100,142.0
1995,B4,156.0,1.5,100,142.0
1996,F#4,156.0,1.5,100,142.0
1997,E-4,156.0,1.5,100,142.0
1998,F3,156.0,23/250,83,142.0
1999,F#3,156.0,23/250,83,142.0
2000,F#3,156.208,167/1000,58,142.0
2001,F3,156.458,26/125,100,142.0
2002,F#3,156.467,3/40,78,142.0
2003,B-5,156.467,3/40,78,142.0
2004,C#2,156.5,2/5,100,142.0
2005,C#3,156.5,0.5,100,142.0
2006,B1,156.5,0.5,100,142.0
2007,F#3,156.708,133/1000,82,142.0
2008,B-5,156.708,133/1000,82,142.0
2009,F#3,156.958,167/1000,66,142.0
2010,C#2,157.0,2/5,100,142.0
2011,C#3,157.0,0.5,100,142.0
2012,C#2,157.0,1.0,100,142.0
2013,D2,157.0,1.125,115,142.0
2014,F#3,157.208,7/40,63,142.0
2015,F#3,157.458,0.125,86,142.0
2016,F3,157.458,0.125,86,142.0
2017,B-5,157.458,0.125,86,142.0
2018,C#2,157.5,2/5,100,142.0
2019,C#3,157.5,0.5,100,142.0
2020,B1,157.5,0.5,100,142.0
2021,C#5,157.5,0.5,100,142.0
2022,C#5,157.5,0.5,100,142.0
2023,G#4,157.5,0.5,100,142.0
2024,E4,157.5,0.5,100,142.0
2025,F#3,157.708,167/1000,82,142.0
2026,B-5,157.708,167/1000,82,142.0
2027,F#3,157.958,26/125,80,142.0
2028,F3,157.958,26/125,80,142.0
2029,C#2,158.0,2/5,100,142.0
2030,C#3,158.0,0.5,100,142.0
2031,B1,158.0,0.5,100,142.0
2032,C#2,158.0,1.0,100,142.0
2033,F#3,158.208,167/1000,60,142.0
2034,F3,158.458,0.25,100,142.0
2035,B-5,158.458,79/500,78,142.0
2036,F#3,158.458,79/500,78,142.0
2037,B1,158.5,2/5,100,142.0
2038,B2,158.5,0.5,100,142.0
2039,E-5,158.5,0.5,100,142.0
2040,E-5,158.5,0.5,100,142.0
2041,B4,158.5,0.5,100,142.0
2042,F#4,158.5,0.5,100,142.0
2043,B1,158.5,0.5,114,142.0
2044,G3,158.5,0.5,114,142.0
2045,F#3,158.708,167/1000,78,142.0
2046,B-5,158.708,167/1000,78,142.0
2047,F#3,158.958,26/125,56,142.0
2048,B1,159.0,2/5,100,142.0
2049,B2,159.0,0.5,100,142.0
2050,C#2,159.0,1.0,108,142.0
2051,D2,159.0,1.0,108,142.0
2052,F#3,159.208,167/1000,60,142.0
2053,F#3,159.458,0.125,86,142.0
2054,F3,159.458,0.125,86,142.0
2055,B-5,159.458,0.125,86,142.0
2056,A1,159.5,0.5,100,142.0
2057,A2,159.5,0.5,100,142.0
2058,E5,159.5,0.5,100,142.0
2059,E5,159.5,0.5,100,142.0
2060,C#5,159.5,0.5,100,142.0
2061,G#4,159.5,0.5,100,142.0
2062,B1,159.5,0.5,108,142.0
2063,C#3,159.5,0.5,108,142.0
2064,F#3,159.708,167/1000,78,142.0
2065,B-5,159.708,167/1000,78,142.0
2066,A1,160.0,0.5,100,142.0
2067,A2,160.0,0.5,100,142.0
2068,F#3,160.0,133/1000,66,142.0
2069,F#3,160.208,167/1000,58,142.0
2070,F3,160.467,26/125,100,142.0
2071,F#3,160.467,3/40,78,142.0
2072,B-5,160.467,3/40,78,142.0
2073,A1,160.5,2/5,100,142.0
2074,A2,160.5,0.5,100,142.0
2075,B1,160.5,0.5,100,142.0
2076,E5,160.5,0.5,100,142.0
2077,G#4,160.5,0.5,100,142.0
2078,C#5,160.5,0.5,100,142.0
2079,E5,160.5,0.5,100,142.0
2080,F#3,160.708,133/1000,82,142.0
2081,B-5,160.708,133/1000,82,142.0
2082,F#3,160.958,167/1000,66,142.0
2083,A1,161.0,2/5,100,142.0
2084,A2,161.0,0.5,100,142.0
2085,D2,161.0,1.0,115,142.0
2086,E-5,161.0,0.5,100,142.0
2087,E-5,161.0,0.5,100,142.0
2088,B4,161.0,0.5,100,142.0
2089,F#4,161.0,0.5,100,142.0
2090,F#3,161.208,7/40,63,142.0
2091,F#3,161.458,167/1000,86,142.0
2092,B-5,161.458,167/1000,86,142.0
2093,F3,161.458,167/1000,86,142.0
2094,A1,161.5,2/5,100,142.0
2095,A2,161.5,0.5,100,142.0
2096,B1,161.5,0.5,100,142.0
2097,F#3,161.708,167/1000,82,142.0
2098,B-5,161.708,167/1000,82,142.0
2099,F#3,161.958,7/40,80,142.0
2100,F3,161.958,7/40,80,142.0
2101,A1,162.0,2/5,100,142.0
2102,A2,162.0,0.5,100,142.0
2103,B1,162.0,0.5,100,142.0
2104,C#5,162.0,0.5,100,142.0
2105,C#5,162.0,0.5,100,142.0
2106,G#4,162.0,0.5,100,142.0
2107,E4,162.0,0.5,100,142.0
2108,F#3,162.208,167/1000,60,142.0
2109,F3,162.458,79/500,78,142.0
2110,F#3,162.458,79/500,78,142.0
2111,B-5,162.458,79/500,78,142.0
2112,F#3,162.458,79/500,78,142.0
2113,A1,162.5,2/5,100,142.0
2114,A2,162.5,0.5,100,142.0
2115,B1,162.5,0.5,100,142.0
2116,F#3,162.708,167/1000,78,142.0
2117,B-5,162.708,167/1000,78,142.0
2118,F#3,162.958,26/125,56,142.0
2119,A1,163.0,2/5,100,142.0
2120,A2,163.0,0.5,100,142.0
2121,D2,163.0,1.0,115,142.0
2122,B4,163.0,0.5,100,142.0
2123,B4,163.0,0.5,100,142.0
2124,G#4,163.0,0.5,100,142.0
2125,E-4,163.0,0.5,100,142.0
2126,F#3,163.208,167/1000,60,142.0
2127,F#3,163.458,0.125,86,142.0
2128,F3,163.458,0.125,86,142.0
2129,B-5,163.458,0.125,86,142.0
2130,A1,163.5,2/5,100,142.0
2131,A2,163.5,0.5,100,142.0
2132,B1,163.5,0.5,100,142.0
2133,F#3,163.708,167/1000,78,142.0
2134,B-5,163.708,167/1000,78,142.0
2135,F3,163.958,21/500,83,142.0
2136,F#3,163.958,21/500,83,142.0
2137,A1,164.0,2/5,100,142.0
2138,A2,164.0,0.5,100,142.0
2139,B1,164.0,0.5,100,142.0
2140,B4,164.0,0.5,100,142.0
2141,B4,164.0,0.5,100,142.0
2142,F#4,164.0,0.5,100,142.0
2143,E-4,164.0,0.5,100,142.0
2144,F3,164.0,23/250,83,142.0
2145,F#3,164.0,23/250,83,142.0
2146,F#3,164.208,167/1000,58,142.0
2147,F3,164.467,1/5,100,142.0
2148,F#3,164.467,3/40,78,142.0
2149,B-5,164.467,3/40,78,142.0
2150,A1,164.5,2/5,100,142.0
2151,A2,164.5,0.5,100,142.0
2152,B1,164.5,0.5,100,142.0
2153,C#5,164.5,0.5,100,142.0
2154,C#5,164.5,0.5,100,142.0
2155,G#4,164.5,0.5,100,142.0
2156,E4,164.5,0.5,100,142.0
2157,F#3,164.708,133/1000,82,142.0
2158,B-5,164.708,133/1000,82,142.0
2159,F#3,164.958,167/1000,66,142.0
2160,A1,165.0,2/5,100,142.0
2161,A2,165.0,0.5,100,142.0
2162,D2,165.0,1.0,115,142.0
2163,F#3,165.208,7/40,63,142.0
2164,F#3,165.458,117/1000,86,142.0
2165,B-5,165.458,117/1000,86,142.0
2166,F3,165.458,117/1000,86,142.0
2167,A1,165.5,2/5,100,142.0
2168,A2,165.5,0.5,100,142.0
2169,B1,165.5,0.5,100,142.0
2170,C#5,165.5,0.5,100,142.0
2171,E4,165.5,0.5,100,142.0
2172,G#4,165.5,0.5,100,142.0
2173,C#5,165.5,0.5,100,142.0
2174,F#3,165.708,167/1000,82,142.0
2175,B-5,165.708,167/1000,82,142.0
2176,F#3,165.958,167/1000,80,142.0
2177,F3,165.958,167/1000,80,142.0
2178,A1,166.0,2/5,100,142.0
2179,A2,166.0,0.5,100,142.0
2180,B1,166.0,0.5,100,142.0
2181,F#3,166.208,167/1000,60,142.0
2182,F3,166.458,79/500,78,142.0
2183,F#3,166.458,79/500,78,142.0
2184,B-5,166.458,79/500,78,142.0
2185,F#3,166.458,79/500,78,142.0
2186,A1,166.5,2/5,100,142.0
2187,A2,166.5,0.5,100,142.0
2188,B1,166.5,0.5,100,142.0
2189,B4,166.5,0.5,100,142.0
2190,E-4,166.5,0.5,100,142.0
2191,B4,166.5,0.5,100,142.0
2192,F#4,166.5,0.5,100,142.0
2193,F#3,166.708,167/1000,78,142.0
2194,B-5,166.708,167/1000,78,142.0
2195,F#3,166.958,26/125,56,142.0
2196,A1,167.0,2/5,100,142.0
2197,A2,167.0,0.5,100,142.0
2198,D2,167.0,1.0,115,142.0
2199,F#3,167.208,167/1000,60,142.0
2200,F3,167.458,271/500,100,142.0
2201,F#3,167.458,0.125,79,142.0
2202,B-5,167.458,0.125,79,142.0
2203,G#1,167.5,0.5,100,142.0
2204,G#2,167.5,0.5,100,142.0
2205,G#4,167.5,0.5,100,142.0
2206,E-4,167.5,0.5,100,142.0
2207,C#4,167.5,0.5,100,142.0
2208,G#4,167.5,0.5,100,142.0
2209,B1,167.5,0.5,108,142.0
2210,A3,167.5,0.5,108,142.0
2211,F#3,167.708,167/1000,78,142.0
2212,B-5,167.708,167/1000,78,142.0
2213,G#1,168.0,0.5,100,142.0
2214,G#2,168.0,0.5,100,142.0
2215,F#3,168.0,133/1000,66,142.0
2216,F3,168.0,37/40,100,142.0
2217,G#4,168.0,4.0,100,142.0
2218,E-4,168.0,2.0,100,142.0
2219,C#4,168.0,2.0,100,142.0
2220,G#4,168.0,2.0,100,142.0
2221,F#3,168.208,167/1000,58,142.0
2222,F#3,168.467,3/40,78,142.0
2223,B-5,168.467,3/40,78,142.0
2224,G#1,168.5,2/5,100,142.0
2225,G#2,168.5,0.5,100,142.0
2226,B1,168.5,0.5,100,142.0
2227,F#3,168.708,133/1000,82,142.0
2228,B-5,168.708,133/1000,82,142.0
2229,F#3,168.958,167/1000,66,142.0
2230,G#1,169.0,2/5,100,142.0
2231,G#2,169.0,0.5,100,142.0
2232,D2,169.0,1.0,115,142.0
2233,F#3,169.208,7/40,63,142.0
2234,F#3,169.458,167/1000,86,142.0
2235,B-5,169.458,167/1000,86,142.0
2236,F3,169.458,167/1000,86,142.0
2237,G#1,169.5,2/5,100,142.0
2238,G#2,169.5,0.5,100,142.0
2239,B1,169.5,0.5,100,142.0
2240,F#3,169.708,167/1000,82,142.0
2241,B-5,169.708,167/1000,82,142.0
2242,F#3,169.958,7/40,61,142.0
2243,F3,169.958,521/500,100,142.0
2244,G#1,170.0,2/5,100,142.0
2245,G#2,170.0,0.5,100,142.0
2246,B1,170.0,0.5,100,142.0
2247,F#3,170.208,167/1000,60,142.0
2248,B-5,170.458,79/500,78,142.0
2249,F#3,170.458,79/500,78,142.0
2250,G#1,170.5,2/5,100,142.0
2251,G#2,170.5,0.5,100,142.0
2252,B1,170.5,0.5,100,142.0
2253,F#3,170.708,167/1000,78,142.0
2254,B-5,170.708,167/1000,78,142.0
2255,F#3,170.958,26/125,56,142.0
2256,G#1,171.0,2/5,100,142.0
2257,G#2,171.0,0.5,100,142.0
2258,D2,171.0,1.0,115,142.0
2259,F#3,171.208,167/1000,60,142.0
2260,F#3,171.458,0.125,86,142.0
2261,F3,171.458,0.125,86,142.0
2262,B-5,171.458,0.125,86,142.0
2263,G#1,171.5,2/5,100,142.0
2264,G#2,171.5,0.5,100,142.0
2265,B1,171.5,0.5,100,142.0
2266,F#3,171.708,167/1000,78,142.0
2267,B-5,171.708,167/1000,78,142.0
2268,F3,171.958,21/500,100,142.0
2269,G#1,172.0,2/5,100,142.0
2270,G#2,172.0,0.5,100,142.0
2271,B1,172.0,0.5,100,142.0
2272,F#3,172.0,133/1000,66,142.0
2273,F3,172.0,479/500,100,142.0
2274,F#3,172.208,167/1000,58,142.0
2275,F#3,172.467,3/40,78,142.0
2276,B-5,172.467,3/40,78,142.0
2277,G#1,172.5,2/5,100,142.0
2278,G#2,172.5,0.5,100,142.0
2279,B1,172.5,0.5,100,142.0
2280,F#6,172.5,1.0,127,142.0
2281,F#3,172.708,133/1000,82,142.0
2282,B-5,172.708,133/1000,82,142.0
2283,F#3,172.958,167/1000,66,142.0
2284,G#1,173.0,2/5,100,142.0
2285,G#2,173.0,0.5,100,142.0
2286,D2,173.0,1.0,115,142.0
2287,F#3,173.208,7/40,63,142.0
2288,F#3,173.458,0.125,86,142.0
2289,F3,173.458,0.125,86,142.0
2290,B-5,173.458,0.125,86,142.0
2291,G#1,173.5,2/5,100,142.0
2292,G#2,173.5,0.5,100,142.0
2293,B1,173.5,0.5,100,142.0
2294,F#5,173.5,0.5,127,142.0
2295,G#4,173.5,0.5,100,142.0
2296,E4,173.5,0.5,100,142.0
2297,G#4,173.5,0.5,100,142.0
2298,E4,173.5,0.5,100,142.0
2299,F#3,173.708,167/1000,82,142.0
2300,B-5,173.708,167/1000,82,142.0
2301,F#3,173.958,7/40,61,142.0
2302,F3,173.958,126/125,100,142.0
2303,G#1,174.0,2/5,100,142.0
2304,G#2,174.0,0.5,100,142.0
2305,B4,174.0,0.5,127,142.0
2306,C#5,174.0,0.5,100,142.0
2307,G#4,174.0,0.5,100,142.0
2308,B1,174.0,0.5,108,142.0
2309,D3,174.0,0.5,108,142.0
2310,C#5,174.0,0.5,100,142.0
2311,G#4,174.0,0.5,100,142.0
2312,F#3,174.208,167/1000,60,142.0
2313,B-5,174.458,79/500,78,142.0
2314,F#3,174.458,79/500,78,142.0
2315,G#1,174.5,2/5,100,142.0
2316,G#2,174.5,0.5,100,142.0
2317,B1,174.5,0.5,100,142.0
2318,A2,174.5,0.25,115,142.0
2319,E4,174.5,1.0,127,142.0
2320,E5,174.5,0.5,100,142.0
2321,C#5,174.5,0.5,100,142.0
2322,E5,174.5,0.5,100,142.0
2323,C#5,174.5,0.5,100,142.0
2324,F#3,174.708,167/1000,78,142.0
2325,B-5,174.708,167/1000,78,142.0
2326,A2,174.75,0.25,115,142.0
2327,F#3,174.958,26/125,56,142.0
2328,B1,175.0,2/5,100,142.0
2329,B2,175.0,0.5,100,142.0
2330,D2,175.0,1.0,115,142.0
2331,F2,175.0,0.5,115,142.0
2332,F#5,175.0,0.5,100,142.0
2333,E-5,175.0,0.5,100,142.0
2334,F#5,175.0,0.5,100,142.0
2335,E-5,175.0,0.5,100,142.0
2336,F#3,175.208,167/1000,60,142.0
2337,F3,175.458,417/1000,100,142.0
2338,F#3,175.458,0.125,79,142.0
2339,B-5,175.458,0.125,79,142.0
2340,A1,175.5,0.5,100,142.0
2341,A2,175.5,0.5,100,142.0
2342,E5,175.5,0.5,100,142.0
2343,G#5,175.5,0.5,100,142.0
2344,C#5,175.5,0.5,100,142.0
2345,B1,175.5,0.5,108,142.0
2346,C#3,175.5,0.5,108,142.0
2347,E5,175.5,0.5,100,142.0
2348,G#5,175.5,0.5,100,142.0
2349,C#5,175.5,0.5,100,142.0
2350,F#3,175.708,167/1000,78,142.0
2351,B-5,175.708,167/1000,78,142.0
2352,A1,176.0,0.5,100,142.0
2353,A2,176.0,0.5,100,142.0
2354,F#3,176.0,133/1000,66,142.0
2355,F#3,176.208,167/1000,58,142.0
2356,F3,176.467,73/250,100,142.0
2357,F#3,176.467,3/40,78,142.0
2358,B-5,176.467,3/40,78,142.0
2359,A1,176.5,2/5,100,142.0
2360,A2,176.5,0.5,100,142.0
2361,B1,176.5,0.5,100,142.0
2362,G#5,176.5,0.5,100,142.0
2363,C#5,176.5,0.5,100,142.0
2364,E5,176.5,0.5,100,142.0
2365,G#5,176.5,0.5,100,142.0
2366,C#5,176.5,0.5,100,142.0
2367,E5,176.5,0.5,100,142.0
2368,F#3,176.708,133/1000,82,142.0
2369,B-5,176.708,133/1000,82,142.0
2370,F#3,176.958,167/1000,66,142.0
2371,A1,177.0,2/5,100,142.0
2372,A2,177.0,0.5,100,142.0
2373,D2,177.0,1.0,114,142.0
2374,E-5,177.0,0.5,100,142.0
2375,B4,177.0,0.5,100,142.0
2376,F#5,177.0,0.5,100,142.0
2377,E-5,177.0,0.5,100,142.0
2378,B4,177.0,0.5,100,142.0
2379,F#5,177.0,0.5,100,142.0
2380,F#3,177.208,7/40,63,142.0
2381,F#3,177.458,0.125,86,142.0
2382,F3,177.458,0.125,86,142.0
2383,B-5,177.458,0.125,86,142.0
2384,A1,177.5,2/5,100,142.0
2385,A2,177.5,0.5,100,142.0
2386,B1,177.5,0.5,100,142.0
2387,F#3,177.708,167/1000,82,142.0
2388,B-5,177.708,167/1000,82,142.0
2389,F#3,177.958,1/5,80,142.0
2390,F3,177.958,1/5,80,142.0
2391,A1,178.0,2/5,100,142.0
2392,A2,178.0,0.5,100,142.0
2393,B1,178.0,0.5,100,142.0
2394,C#5,178.0,0.5,100,142.0
2395,G#4,178.0,0.5,100,142.0
2396,E5,178.0,0.5,100,142.0
2397,C#5,178.0,0.5,100,142.0
2398,G#4,178.0,0.5,100,142.0
2399,E5,178.0,0.5,100,142.0
2400,F#3,178.208,167/1000,60,142.0
2401,F3,178.458,79/500,78,142.0
2402,F#3,178.458,79/500,78,142.0
2403,B-5,178.458,79/500,78,142.0
2404,F#3,178.458,79/500,78,142.0
2405,A1,178.5,2/5,100,142.0
2406,A2,178.5,0.5,100,142.0
2407,B1,178.5,0.5,100,142.0
2408,F#3,178.708,167/1000,78,142.0
2409,B-5,178.708,167/1000,78,142.0
2410,F#3,178.958,26/125,56,142.0
2411,A1,179.0,2/5,100,142.0
2412,A2,179.0,0.5,100,142.0
2413,D2,179.0,1.0,115,142.0
2414,B4,179.0,0.5,100,142.0
2415,G#4,179.0,0.5,100,142.0
2416,E-5,179.0,0.5,100,142.0
2417,B4,179.0,0.5,100,142.0
2418,G#4,179.0,0.5,100,142.0
2419,E-5,179.0,0.5,100,142.0
2420,F#3,179.208,167/1000,60,142.0
2421,F#3,179.458,0.125,86,142.0
2422,F3,179.458,0.125,86,142.0
2423,B-5,179.458,0.125,86,142.0
2424,A1,179.5,2/5,100,142.0
2425,A2,179.5,0.5,100,142.0
2426,B1,179.5,0.5,100,142.0
2427,F#3,179.708,167/1000,78,142.0
2428,B-5,179.708,167/1000,78,142.0
2429,F3,179.958,21/500,83,142.0
2430,F#3,179.958,21/500,83,142.0
2431,A1,180.0,2/5,100,142.0
2432,A2,180.0,0.5,100,142.0
2433,B1,180.0,0.5,100,142.0
2434,B4,180.0,0.5,100,142.0
2435,F#4,180.0,0.5,100,142.0
2436,E-5,180.0,0.5,100,142.0
2437,F3,180.0,23/250,83,142.0
2438,F#3,180.0,23/250,83,142.0
2439,B4,180.0,0.5,100,142.0
2440,F#4,180.0,0.5,100,142.0
2441,E-5,180.0,0.5,100,142.0
2442,F#3,180.208,167/1000,58,142.0
2443,F#3,180.467,3/40,86,142.0
2444,F3,180.467,3/40,86,142.0
2445,B-5,180.467,3/40,86,142.0
2446,A1,180.5,2/5,100,142.0
2447,A2,180.5,0.5,100,142.0
2448,B1,180.5,0.5,100,142.0
2449,C#5,180.5,0.5,100,142.0
2450,G#4,180.5,0.5,100,142.0
2451,E5,180.5,0.5,100,142.0
2452,C#5,180.5,0.5,100,142.0
2453,G#4,180.5,0.5,100,142.0
2454,E5,180.5,0.5,100,142.0
2455,F#3,180.708,133/1000,82,142.0
2456,B-5,180.708,133/1000,82,142.0
2457,F#3,180.958,167/1000,66,142.0
2458,A1,181.0,2/5,100,142.0
2459,A2,181.0,0.5,100,142.0
2460,D2,181.0,1.0,115,142.0
2461,F#3,181.208,7/40,63,142.0
2462,F#3,181.458,0.125,86,142.0
2463,F3,181.458,0.125,86,142.0
2464,B-5,181.458,0.125,86,142.0
2465,A1,181.5,2/5,100,142.0
2466,A2,181.5,0.5,100,142.0
2467,B1,181.5,0.5,100,142.0
2468,E5,181.5,0.5,100,142.0
2469,G#4,181.5,0.5,100,142.0
2470,C#5,181.5,0.5,100,142.0
2471,E5,181.5,0.5,100,142.0
2472,G#4,181.5,0.5,100,142.0
2473,C#5,181.5,0.5,100,142.0
2474,F#3,181.708,167/1000,82,142.0
2475,B-5,181.708,167/1000,82,142.0
2476,F#3,181.958,167/1000,80,142.0
2477,F3,181.958,167/1000,80,142.0
2478,A1,182.0,2/5,100,142.0
2479,A2,182.0,0.5,100,142.0
2480,B1,182.0,0.5,100,142.0
2481,F#3,182.208,167/1000,60,142.0
2482,F3,182.458,129/500,100,142.0
2483,B-5,182.458,79/500,78,142.0
2484,F#3,182.458,79/500,78,142.0
2485,B1,182.5,2/5,100,142.0
2486,B2,182.5,0.5,100,142.0
2487,E-5,182.5,0.5,100,142.0
2488,B4,182.5,0.5,100,142.0
2489,F#5,182.5,0.5,100,142.0
2490,B1,182.5,0.5,114,142.0
2491,G3,182.5,0.5,114,142.0
2492,E-5,182.5,0.5,100,142.0
2493,B4,182.5,0.5,100,142.0
2494,F#5,182.5,0.5,100,142.0
2495,F#3,182.708,167/1000,78,142.0
2496,B-5,182.708,167/1000,78,142.0
2497,F#3,182.958,26/125,56,142.0
2498,B1,183.0,2/5,100,142.0
2499,B2,183.0,0.5,100,142.0
2500,D2,183.0,1.0,115,142.0
2501,F#3,183.208,167/1000,60,142.0
2502,F#3,183.458,26/125,86,142.0
2503,B-5,183.458,26/125,86,142.0
2504,F3,183.458,26/125,86,142.0
2505,C#2,183.5,0.5,100,142.0
2506,C#3,183.5,0.5,100,142.0
2507,E5,183.5,0.5,100,142.0
2508,C#5,183.5,0.5,100,142.0
2509,G#5,183.5,0.5,100,142.0
2510,B1,183.5,0.5,108,142.0
2511,C#3,183.5,0.5,108,142.0
2512,E5,183.5,0.5,100,142.0
2513,C#5,183.5,0.5,100,142.0
2514,G#5,183.5,0.5,100,142.0
2515,F#3,183.708,167/1000,78,142.0
2516,B-5,183.708,167/1000,78,142.0
2517,C#2,184.0,0.5,100,142.0
2518,C#3,184.0,0.5,100,142.0
2519,F#3,184.0,133/1000,66,142.0
2520,F#3,184.208,167/1000,58,142.0
2521,F3,184.467,73/250,100,142.0
2522,F#3,184.467,3/40,78,142.0
2523,B-5,184.467,3/40,78,142.0
2524,C#2,184.5,2/5,100,142.0
2525,C#3,184.5,0.5,100,142.0
2526,B1,184.5,0.5,100,142.0
2527,G#5,184.5,0.5,100,142.0
2528,C#5,184.5,0.5,100,142.0
2529,E5,184.5,0.5,100,142.0
2530,G#5,184.5,0.5,100,142.0
2531,C#5,184.5,0.5,100,142.0
2532,E5,184.5,0.5,100,142.0
2533,F#3,184.708,133/1000,82,142.0
2534,B-5,184.708,133/1000,82,142.0
2535,F#3,184.958,167/1000,66,142.0
2536,C#2,185.0,2/5,100,142.0
2537,C#3,185.0,0.5,100,142.0
2538,D2,185.0,1.0,115,142.0
2539,E-5,185.0,0.5,100,142.0
2540,B4,185.0,0.5,100,142.0
2541,F#5,185.0,0.5,100,142.0
2542,E-5,185.0,0.5,100,142.0
2543,B4,185.0,0.5,100,142.0
2544,F#5,185.0,0.5,100,142.0
2545,F#3,185.208,7/40,63,142.0
2546,F#3,185.458,0.125,86,142.0
2547,F3,185.458,0.125,86,142.0
2548,B-5,185.458,0.125,86,142.0
2549,C#2,185.5,2/5,100,142.0
2550,C#3,185.5,0.5,100,142.0
2551,B1,185.5,0.5,100,142.0
2552,F#3,185.708,167/1000,82,142.0
2553,B-5,185.708,167/1000,82,142.0
2554,F#3,185.958,217/1000,80,142.0
2555,F3,185.958,217/1000,80,142.0
2556,C#2,186.0,2/5,100,142.0
2557,C#3,186.0,0.5,100,142.0
2558,B1,186.0,0.5,100,142.0
2559,C#5,186.0,0.5,100,142.0
2560,G#4,186.0,0.5,100,142.0
2561,E5,186.0,0.5,100,142.0
2562,C#5,186.0,0.5,100,142.0
2563,G#4,186.0,0.5,100,142.0
2564,E5,186.0,0.5,100,142.0
2565,F#3,186.208,167/1000,60,142.0
2566,F3,186.458,79/500,78,142.0
2567,F#3,186.458,79/500,78,142.0
2568,B-5,186.458,79/500,78,142.0
2569,F#3,186.458,79/500,78,142.0
2570,C#2,186.5,2/5,100,142.0
2571,C#3,186.5,0.5,100,142.0
2572,B1,186.5,0.5,100,142.0
2573,F#3,186.708,167/1000,78,142.0
2574,B-5,186.708,167/1000,78,142.0
2575,F#3,186.958,26/125,56,142.0
2576,C#2,187.0,2/5,100,142.0
2577,C#3,187.0,0.5,100,142.0
2578,D2,187.0,1.0,115,142.0
2579,B4,187.0,0.5,100,142.0
2580,F#4,187.0,0.5,100,142.0
2581,E-5,187.0,0.5,100,142.0
2582,B4,187.0,0.5,100,142.0
2583,F#4,187.0,0.5,100,142.0
2584,E-5,187.0,0.5,100,142.0
2585,F#3,187.208,167/1000,60,142.0
2586,F#3,187.458,0.125,86,142.0
2587,F3,187.458,0.125,86,142.0
2588,B-5,187.458,0.125,86,142.0
2589,C#2,187.5,2/5,100,142.0
2590,C#3,187.5,0.5,100,142.0
2591,B1,187.5,0.5,100,142.0
2592,F#3,187.708,167/1000,78,142.0
2593,B-5,187.708,167/1000,78,142.0
2594,F3,187.958,21/500,83,142.0
2595,F#3,187.958,21/500,83,142.0
2596,C#2,188.0,2/5,100,142.0
2597,C#3,188.0,0.5,100,142.0
2598,B1,188.0,0.5,100,142.0
2599,B4,188.0,1.5,100,142.0
2600,F#4,188.0,1.5,100,142.0
2601,E-5,188.0,1.5,100,142.0
2602,F3,188.0,23/250,83,142.0
2603,F#3,188.0,23/250,83,142.0
2604,B4,188.0,1.5,100,142.0
2605,F#4,188.0,1.5,100,142.0
2606,E-5,188.0,1.5,100,142.0
2607,F#3,188.208,167/1000,58,142.0
2608,F3,188.458,26/125,100,142.0
2609,F#3,188.467,3/40,78,142.0
2610,B-5,188.467,3/40,78,142.0
2611,C#2,188.5,2/5,100,142.0
2612,C#3,188.5,0.5,100,142.0
2613,B1,188.5,0.5,100,142.0
2614,F#3,188.708,133/1000,82,142.0
2615,B-5,188.708,133/1000,82,142.0
2616,F#3,188.958,167/1000,66,142.0
2617,C#2,189.0,2/5,100,142.0
2618,C#3,189.0,0.5,100,142.0
2619,D2,189.0,1.0,115,142.0
2620,F#3,189.208,7/40,63,142.0
2621,F#3,189.458,0.125,86,142.0
2622,F3,189.458,0.125,86,142.0
2623,B-5,189.458,0.125,86,142.0
2624,C#2,189.5,2/5,100,142.0
2625,C#3,189.5,0.5,100,142.0
2626,B1,189.5,0.5,100,142.0
2627,C#5,189.5,0.5,100,142.0
2628,G#4,189.5,0.5,100,142.0
2629,E5,189.5,0.5,100,142.0
2630,C#5,189.5,0.5,100,142.0
2631,G#4,189.5,0.5,100,142.0
2632,E5,189.5,0.5,100,142.0
2633,F#3,189.708,167/1000,82,142.0
2634,B-5,189.708,167/1000,82,142.0
2635,F#3,189.958,26/125,80,142.0
2636,F3,189.958,26/125,80,142.0
2637,C#2,190.0,2/5,100,142.0
2638,C#3,190.0,0.5,100,142.0
2639,B1,190.0,0.5,100,142.0
2640,F#3,190.208,167/1000,60,142.0
2641,F3,190.458,0.25,100,142.0
2642,B-5,190.458,79/500,78,142.0
2643,F#3,190.458,79/500,78,142.0
2644,B1,190.5,2/5,100,142.0
2645,B2,190.5,0.5,100,142.0
2646,E-5,190.5,0.5,100,142.0
2647,B4,190.5,0.5,100,142.0
2648,F#5,190.5,0.5,100,142.0
2649,B1,190.5,0.5,114,142.0
2650,G3,190.5,0.5,114,142.0
2651,E-5,190.5,0.5,100,142.0
2652,B4,190.5,0.5,100,142.0
2653,F#5,190.5,0.5,100,142.0
2654,F#3,190.708,167/1000,78,142.0
2655,B-5,190.708,167/1000,78,142.0
2656,F#3,190.958,26/125,56,142.0
2657,B1,191.0,2/5,100,142.0
2658,B2,191.0,0.5,100,142.0
2659,D2,191.0,1.0,115,142.0
2660,F#3,191.208,167/1000,60,142.0
2661,F#3,191.458,0.125,86,142.0
2662,F3,191.458,0.125,86,142.0
2663,B-5,191.458,0.125,86,142.0
2664,A1,191.5,0.5,100,142.0
2665,A2,191.5,0.5,100,142.0
2666,E5,191.5,0.5,100,142.0
2667,C#5,191.5,0.5,100,142.0
2668,G#5,191.5,0.5,100,142.0
2669,B1,191.5,0.5,108,142.0
2670,C#3,191.5,0.5,108,142.0
2671,E5,191.5,0.5,100,142.0
2672,C#5,191.5,0.5,100,142.0
2673,G#5,191.5,0.5,100,142.0
2674,F#3,191.708,167/1000,78,142.0
2675,B-5,191.708,167/1000,78,142.0
2676,A1,192.0,0.5,100,142.0
2677,A2,192.0,0.5,100,142.0
2678,F#3,192.0,133/1000,66,142.0
2679,F#3,192.208,167/1000,58,142.0
2680,F3,192.467,26/125,100,142.0
2681,F#3,192.467,3/40,78,142.0
2682,B-5,192.467,3/40,78,142.0
2683,A1,192.5,2/5,100,142.0
2684,A2,192.5,0.5,100,142.0
2685,B1,192.5,0.5,100,142.0
2686,G#5,192.5,0.5,100,142.0
2687,C#5,192.5,0.5,100,142.0
2688,E5,192.5,0.5,100,142.0
2689,G#5,192.5,0.5,100,142.0
2690,C#5,192.5,0.5,100,142.0
2691,E5,192.5,0.5,100,142.0
2692,F#3,192.708,133/1000,82,142.0
2693,B-5,192.708,133/1000,82,142.0
2694,F#3,192.958,167/1000,66,142.0
2695,A1,193.0,2/5,100,142.0
2696,A2,193.0,0.5,100,142.0
2697,D2,193.0,1.0,115,142.0
2698,E-5,193.0,0.5,100,142.0
2699,B4,193.0,0.5,100,142.0
2700,F#5,193.0,0.5,100,142.0
2701,E-5,193.0,0.5,100,142.0
2702,B4,193.0,0.5,100,142.0
2703,F#5,193.0,0.5,100,142.0
2704,F#3,193.208,7/40,63,142.0
2705,F#3,193.458,167/1000,86,142.0
2706,B-5,193.458,167/1000,86,142.0
2707,F3,193.458,167/1000,86,142.0
2708,A1,193.5,2/5,100,142.0
2709,A2,193.5,0.5,100,142.0
2710,B1,193.5,0.5,100,142.0
2711,F#3,193.708,167/1000,82,142.0
2712,B-5,193.708,167/1000,82,142.0
2713,F#3,193.958,7/40,80,142.0
2714,F3,193.958,7/40,80,142.0
2715,A1,194.0,2/5,100,142.0
2716,A2,194.0,0.5,100,142.0
2717,B1,194.0,0.5,100,142.0
2718,C#5,194.0,0.5,100,142.0
2719,A4,194.0,0.5,100,142.0
2720,E5,194.0,0.5,100,142.0
2721,C#5,194.0,0.5,100,142.0
2722,A4,194.0,0.5,100,142.0
2723,E5,194.0,0.5,100,142.0
2724,F#3,194.208,167/1000,60,142.0
2725,F3,194.458,79/500,78,142.0
2726,F#3,194.458,79/500,78,142.0
2727,B-5,194.458,79/500,78,142.0
2728,F#3,194.458,79/500,78,142.0
2729,A1,194.5,2/5,100,142.0
2730,A2,194.5,0.5,100,142.0
2731,B1,194.5,0.5,100,142.0
2732,F#3,194.708,167/1000,78,142.0
2733,B-5,194.708,167/1000,78,142.0
2734,F#3,194.958,26/125,56,142.0
2735,A1,195.0,2/5,100,142.0
2736,A2,195.0,0.5,100,142.0
2737,D2,195.0,1.0,115,142.0
2738,B4,195.0,0.5,100,142.0
2739,F#4,195.0,0.5,100,142.0
2740,E-5,195.0,0.5,100,142.0
2741,B4,195.0,0.5,100,142.0
2742,F#4,195.0,0.5,100,142.0
2743,E-5,195.0,0.5,100,142.0
2744,F#3,195.208,167/1000,60,142.0
2745,F#3,195.458,0.125,86,142.0
2746,F3,195.458,0.125,86,142.0
2747,B-5,195.458,0.125,86,142.0
2748,A1,195.5,2/5,100,142.0
2749,A2,195.5,0.5,100,142.0
2750,B1,195.5,0.5,100,142.0
2751,F#3,195.708,167/1000,78,142.0
2752,B-5,195.708,167/1000,78,142.0
2753,F3,195.958,21/500,83,142.0
2754,F#3,195.958,21/500,83,142.0
2755,A1,196.0,2/5,100,142.0
2756,A2,196.0,0.5,100,142.0
2757,B1,196.0,0.5,100,142.0
2758,B4,196.0,0.5,100,142.0
2759,F#4,196.0,0.5,100,142.0
2760,E-5,196.0,0.5,100,142.0
2761,F3,196.0,23/250,83,142.0
2762,F#3,196.0,23/250,83,142.0
2763,B4,196.0,0.5,100,142.0
2764,F#4,196.0,0.5,100,142.0
2765,E-5,196.0,0.5,100,142.0
2766,F#3,196.208,167/1000,58,142.0
2767,F3,196.467,1/5,100,142.0
2768,F#3,196.467,3/40,78,142.0
2769,B-5,196.467,3/40,78,142.0
2770,A1,196.5,2/5,100,142.0
2771,A2,196.5,0.5,100,142.0
2772,B1,196.5,0.5,100,142.0
2773,C#5,196.5,0.5,100,142.0
2774,G#4,196.5,0.5,100,142.0
2775,E5,196.5,0.5,100,142.0
2776,C#5,196.5,0.5,100,142.0
2777,G#4,196.5,0.5,100,142.0
2778,E5,196.5,0.5,100,142.0
2779,F#3,196.708,133/1000,82,142.0
2780,B-5,196.708,133/1000,82,142.0
2781,F#3,196.958,167/1000,66,142.0
2782,A1,197.0,2/5,100,142.0
2783,A2,197.0,0.5,100,142.0
2784,D2,197.0,1.0,115,142.0
2785,F#3,197.208,7/40,63,142.0
2786,F#3,197.458,117/1000,86,142.0
2787,B-5,197.458,117/1000,86,142.0
2788,F3,197.458,117/1000,86,142.0
2789,A1,197.5,2/5,100,142.0
2790,A2,197.5,0.5,100,142.0
2791,B1,197.5,0.5,100,142.0
2792,E5,197.5,0.5,100,142.0
2793,G#4,197.5,0.5,100,142.0
2794,C#5,197.5,0.5,100,142.0
2795,E5,197.5,0.5,100,142.0
2796,G#4,197.5,0.5,100,142.0
2797,C#5,197.5,0.5,100,142.0
2798,F#3,197.708,167/1000,82,142.0
2799,B-5,197.708,167/1000,82,142.0
2800,F#3,197.958,167/1000,80,142.0
2801,F3,197.958,167/1000,80,142.0
2802,A1,198.0,2/5,100,142.0
2803,A2,198.0,0.5,100,142.0
2804,B1,198.0,0.5,100,142.0
2805,F#3,198.208,167/1000,60,142.0
2806,F3,198.458,79/500,78,142.0
2807,F#3,198.458,79/500,78,142.0
2808,B-5,198.458,79/500,78,142.0
2809,F#3,198.458,79/500,78,142.0
2810,A1,198.5,2/5,100,142.0
2811,A2,198.5,0.5,100,142.0
2812,B1,198.5,0.5,100,142.0
2813,E-5,198.5,0.5,100,142.0
2814,B4,198.5,0.5,100,142.0
2815,F#4,198.5,0.5,100,142.0
2816,E-5,198.5,0.5,100,142.0
2817,B4,198.5,0.5,100,142.0
2818,F#4,198.5,0.5,100,142.0
2819,F#3,198.708,167/1000,78,142.0
2820,B-5,198.708,167/1000,78,142.0
2821,F#3,198.958,26/125,56,142.0
2822,A1,199.0,2/5,100,142.0
2823,A2,199.0,0.5,100,142.0
2824,D2,199.0,1.0,115,142.0
2825,F#3,199.208,167/1000,60,142.0
2826,F3,199.458,271/500,100,142.0
2827,F#3,199.458,0.125,79,142.0
2828,B-5,199.458,0.125,79,142.0
2829,G#1,199.5,0.5,100,142.0
2830,G#2,199.5,0.5,100,142.0
2831,E-4,199.5,0.5,100,142.0
2832,C#4,199.5,0.5,100,142.0
2833,G#4,199.5,0.5,100,142.0
2834,B1,199.5,0.5,108,142.0
2835,A3,199.5,0.5,108,142.0
2836,E-4,199.5,0.5,100,142.0
2837,C#4,199.5,0.5,100,142.0
2838,G#4,199.5,0.5,100,142.0
2839,F#3,199.708,167/1000,78,142.0
2840,B-5,199.708,167/1000,78,142.0
2841,G#1,200.0,0.5,100,142.0
2842,G#2,200.0,0.5,100,142.0
2843,F#3,200.0,133/1000,66,142.0
2844,F3,200.0,37/40,100,142.0
2845,E-4,200.0,2.0,100,142.0
2846,C#4,200.0,2.0,100,142.0
2847,G#4,200.0,2.0,100,142.0
2848,E-4,200.0,2.0,100,142.0
2849,C#4,200.0,2.0,100,142.0
2850,G#4,200.0,2.0,100,142.0
2851,F#3,200.208,167/1000,58,142.0
2852,F#3,200.467,3/40,78,142.0
2853,B-5,200.467,3/40,78,142.0
2854,G#1,200.5,2/5,100,142.0
2855,G#2,200.5,0.5,100,142.0
2856,B1,200.5,0.5,100,142.0
2857,F#3,200.708,133/1000,82,142.0
2858,B-5,200.708,133/1000,82,142.0
2859,F#3,200.958,167/1000,66,142.0
2860,G#1,201.0,2/5,100,142.0
2861,G#2,201.0,0.5,100,142.0
2862,D2,201.0,1.0,115,142.0
2863,F#3,201.208,7/40,63,142.0
2864,F#3,201.458,167/1000,86,142.0
2865,B-5,201.458,167/1000,86,142.0
2866,F3,201.458,167/1000,86,142.0
2867,G#1,201.5,2/5,100,142.0
2868,G#2,201.5,0.5,100,142.0
2869,B1,201.5,0.5,100,142.0
2870,F#3,201.708,167/1000,82,142.0
2871,B-5,201.708,167/1000,82,142.0
2872,F#3,201.958,7/40,61,142.0
2873,F3,201.958,521/500,100,142.0
2874,G#1,202.0,2/5,100,142.0
2875,G#2,202.0,0.5,100,142.0
2876,B1,202.0,0.5,100,142.0
2877,F#3,202.208,167/1000,60,142.0
2878,B-5,202.458,79/500,78,142.0
2879,F#3,202.458,79/500,78,142.0
2880,G#1,202.5,2/5,100,142.0
2881,G#2,202.5,0.5,100,142.0
2882,B1,202.5,0.5,100,142.0
2883,F#3,202.708,167/1000,78,142.0
2884,B-5,202.708,167/1000,78,142.0
2885,F#3,202.958,26/125,56,142.0
2886,G#1,203.0,2/5,100,142.0
2887,G#2,203.0,0.5,100,142.0
2888,D2,203.0,1.0,115,142.0
2889,F#3,203.208,167/1000,60,142.0
2890,F#3,203.458,0.125,86,142.0
2891,F3,203.458,0.125,86,142.0
2892,B-5,203.458,0.125,86,142.0
2893,G#1,203.5,2/5,100,142.0
2894,G#2,203.5,0.5,100,142.0
2895,B1,203.5,0.5,100,142.0
2896,F#3,203.708,167/1000,78,142.0
2897,B-5,203.708,167/1000,78,142.0
2898,F3,203.958,21/500,100,142.0
2899,G#1,204.0,2/5,100,142.0
2900,G#2,204.0,0.5,100,142.0
2901,B1,204.0,0.5,100,142.0
2902,F#3,204.0,133/1000,66,142.0
2903,F3,204.0,479/500,100,142.0
2904,F#3,204.208,167/1000,58,142.0
2905,F#3,204.467,3/40,78,142.0
2906,B-5,204.467,3/40,78,142.0
2907,G#1,204.5,2/5,100,142.0
2908,G#2,204.5,0.5,100,142.0
2909,B1,204.5,0.5,100,142.0
2910,F#3,204.708,133/1000,82,142.0
2911,B-5,204.708,133/1000,82,142.0
2912,F#3,204.958,167/1000,66,142.0
2913,G#1,205.0,2/5,100,142.0
2914,G#2,205.0,0.5,100,142.0
2915,D2,205.0,1.0,115,142.0
2916,F#3,205.208,7/40,63,142.0
2917,F#3,205.458,0.125,86,142.0
2918,F3,205.458,0.125,86,142.0
2919,B-5,205.458,0.125,86,142.0
2920,G#1,205.5,2/5,100,142.0
2921,G#2,205.5,0.5,100,142.0
2922,B1,205.5,0.5,100,142.0
2923,F#3,205.708,167/1000,82,142.0
2924,B-5,205.708,167/1000,82,142.0
2925,F#3,205.958,7/40,61,142.0
2926,F3,205.958,126/125,100,142.0
2927,G#1,206.0,2/5,100,142.0
2928,G#2,206.0,0.5,100,142.0
2929,B1,206.0,0.5,108,142.0
2930,D3,206.0,0.5,108,142.0
2931,F#3,206.208,167/1000,60,142.0
2932,B-5,206.458,79/500,78,142.0
2933,F#3,206.458,79/500,78,142.0
2934,G#1,206.5,2/5,100,142.0
2935,G#2,206.5,0.5,100,142.0
2936,B1,206.5,0.5,100,142.0
2937,A2,206.5,0.25,115,142.0
2938,F#3,206.708,167/1000,78,142.0
2939,B-5,206.708,167/1000,78,142.0
2940,A2,206.75,0.25,115,142.0
2941,F#3,206.958,26/125,56,142.0
2942,B1,207.0,2/5,100,142.0
2943,B2,207.0,0.5,100,142.0
2944,F2,207.0,0.5,115,142.0
2945,B1,207.0,1.0,108,142.0
2946,D2,207.0,1.0,108,142.0
2947,F#3,207.208,167/1000,60,142.0
2948,F3,207.458,417/1000,100,142.0
2949,F#3,207.458,0.125,79,142.0
2950,B-5,207.458,0.125,79,142.0
2951,C#2,207.5,0.5,100,142.0
2952,C#3,207.5,0.5,100,142.0
2953,B1,207.5,0.5,108,142.0
2954,A3,207.5,0.5,108,142.0
2955,F#3,207.708,167/1000,78,142.0
2956,B-5,207.708,167/1000,78,142.0
2957,B-4,208.0,1/10,71,142.0
2958,C#2,208.0,1.0,100,142.0
2959,B-5,208.5,0.5,100,142.0
2960,E-4,208.5,0.5,100,142.0
2961,E4,208.5,0.5,100,142.0
2962,G#4,208.5,0.5,100,142.0
2963,C#4,208.5,0.5,115,142.0
2964,C#4,208.5,0.5,115,142.0
2965,B-4,208.542,133/1000,74,142.0
2966,B-4,208.8,79/500,78,142.0
2967,B-5,209.0,0.5,100,142.0
2968,B-4,209.0,0.125,74,142.0
2969,C#2,209.0,1.0,100,142.0
2970,B3,209.0,0.5,115,142.0
2971,B3,209.0,0.5,115,142.0
2972,B-5,209.5,0.5,100,142.0
2973,E-4,209.5,0.5,100,142.0
2974,E4,209.5,0.5,100,142.0
2975,G#4,209.5,0.5,100,142.0
2976,G#3,209.5,0.5,115,142.0
2977,G#3,209.5,0.5,115,142.0
2978,B-4,209.542,133/1000,67,142.0
2979,B-4,209.8,79/500,78,142.0
2980,C#2,210.0,1.0,100,142.0
2981,B3,210.0,0.5,115,142.0
2982,B3,210.0,0.5,115,142.0
2983,B-4,210.05,117/1000,69,142.0
2984,C#2,210.5,0.5,100,142.0
2985,C#4,210.5,0.5,100,142.0
2986,E4,210.5,0.5,100,142.0
2987,G#4,210.5,0.5,100,142.0
2988,C#4,210.5,0.5,115,142.0
2989,C#4,210.5,0.5,115,142.0
2990,B1,210.5,0.5,100,142.0
2991,B-5,210.5,0.5,100,142.0
2992,B-4,210.55,83/1000,74,142.0
2993,B-4,210.75,167/1000,78,142.0
2994,B1,211.0,0.5,100,142.0
2995,B1,211.0,0.5,100,142.0
2996,C#2,211.0,1.0,100,142.0
2997,B-4,211.008,117/1000,78,142.0
2998,A1,211.5,0.5,100,142.0
2999,E-4,211.5,0.5,100,142.0
3000,E4,211.5,0.5,100,142.0
3001,G#4,211.5,0.5,100,142.0
3002,C#3,211.5,0.25,115,142.0
3003,C#3,211.5,0.25,115,142.0
3004,B1,211.5,0.5,100,142.0
3005,B-5,211.5,0.5,100,142.0
3006,B-4,211.55,117/1000,85,142.0
3007,C#3,211.75,0.25,115,142.0
3008,C#3,211.75,0.25,115,142.0
3009,B-4,211.8,167/1000,78,142.0
3010,C#2,212.0,1.0,100,142.0
3011,B-4,212.0,1/10,71,142.0
3012,E3,212.0,0.5,115,142.0
3013,E3,212.0,0.5,115,142.0
3014,B-5,212.5,0.5,100,142.0
3015,E-4,212.5,0.5,100,142.0
3016,E4,212.5,0.5,100,142.0
3017,G#4,212.5,0.5,100,142.0
3018,F#3,212.5,0.5,115,142.0
3019,F#3,212.5,0.5,115,142.0
3020,B-4,212.542,133/1000,74,142.0
3021,B-4,212.8,79/500,78,142.0
3022,B-5,213.0,0.5,100,142.0
3023,B-4,213.0,0.125,74,142.0
3024,C#2,213.0,1.0,100,142.0
3025,G#3,213.0,0.5,115,142.0
3026,G#3,213.0,0.5,115,142.0
3027,B-5,213.5,0.5,100,142.0
3028,E-4,213.5,0.5,100,142.0
3029,E4,213.5,0.5,100,142.0
3030,G#4,213.5,0.5,100,142.0
3031,E3,213.5,2.5,115,142.0
3032,E3,213.5,2.5,115,142.0
3033,B-4,213.542,133/1000,67,142.0
3034,B-4,213.8,79/500,78,142.0
3035,C#2,214.0,1.0,100,142.0
3036,B-4,214.05,117/1000,69,142.0
3037,A1,214.5,0.5,100,142.0
3038,C#4,214.5,0.5,100,142.0
3039,E4,214.5,0.5,100,142.0
3040,G#4,214.5,0.5,100,142.0
3041,B-5,214.5,0.5,100,142.0
3042,B1,214.5,0.5,100,142.0
3043,B-4,214.55,83/1000,74,142.0
3044,B-4,214.75,167/1000,78,142.0
3045,G#1,215.0,0.5,100,142.0
3046,B1,215.0,0.5,100,142.0
3047,C#2,215.0,1.0,100,142.0
3048,B-4,215.008,117/1000,78,142.0
3049,F#1,215.5,0.5,100,142.0
3050,G#3,215.5,0.5,100,142.0
3051,A3,215.5,0.5,100,142.0
3052,C#4,215.5,0.5,100,142.0
3053,B1,215.5,0.5,100,142.0
3054,B-5,215.5,0.5,100,142.0
3055,B-4,215.55,117/1000,85,142.0
3056,B-4,215.8,167/1000,78,142.0
3057,C#2,216.0,1.0,100,142.0
3058,B-4,216.0,1/10,71,142.0
3059,C#3,216.0,0.25,115,142.0
3060,C#3,216.0,0.25,115,142.0
3061,C#3,216.25,0.25,115,142.0
3062,C#3,216.25,0.25,115,142.0
3063,B-5,216.5,0.5,100,142.0
3064,G#3,216.5,0.5,100,142.0
3065,A3,216.5,0.5,100,142.0
3066,C#4,216.5,0.5,100,142.0
3067,G#3,216.5,0.5,115,142.0
3068,G#3,216.5,0.5,115,142.0
3069,B-4,216.542,133/1000,74,142.0
3070,B-4,216.8,79/500,78,142.0
3071,C#2,217.0,1.0,100,142.0
3072,B-5,217.0,0.5,100,142.0
3073,B-4,217.0,0.125,74,142.0
3074,F#3,217.0,0.5,115,142.0
3075,F#3,217.0,0.5,115,142.0
3076,B-5,217.5,0.5,100,142.0
3077,G#3,217.5,0.5,100,142.0
3078,A3,217.5,0.5,100,142.0
3079,C#4,217.5,0.5,100,142.0
3080,E3,217.5,0.5,115,142.0
3081,E3,217.5,0.5,115,142.0
3082,B-4,217.542,133/1000,67,142.0
3083,B-4,217.8,79/500,78,142.0
3084,C#2,218.0,1.0,100,142.0
3085,F#3,218.0,0.5,115,142.0
3086,F#3,218.0,0.5,115,142.0
3087,B-4,218.05,117/1000,69,142.0
3088,B-5,218.5,0.5,100,142.0
3089,F#3,218.5,0.5,100,142.0
3090,A3,218.5,0.5,100,142.0
3091,C#4,218.5,0.5,100,142.0
3092,G#3,218.5,0.5,115,142.0
3093,G#3,218.5,0.5,115,142.0
3094,B-4,218.55,83/1000,74,142.0
3095,B-4,218.75,167/1000,78,142.0
3096,F#1,219.0,0.5,100,142.0
3097,C#2,219.0,1.0,100,142.0
3098,B1,219.0,0.5,100,142.0
3099,B-4,219.008,117/1000,78,142.0
3100,G#1,219.5,0.5,100,142.0
3101,B-3,219.5,0.5,100,142.0
3102,B3,219.5,0.5,100,142.0
3103,E-4,219.5,0.5,100,142.0
3104,G#3,219.5,0.25,115,142.0
3105,G#3,219.5,0.25,115,142.0
3106,B1,219.5,0.5,100,142.0
3107,B-5,219.5,0.5,100,142.0
3108,B-4,219.55,117/1000,85,142.0
3109,G#3,219.75,0.25,115,142.0
3110,G#3,219.75,0.25,115,142.0
3111,B-4,219.8,167/1000,78,142.0
3112,C#2,220.0,167/1000,101,142.0
3113,C#2,220.0,1.0,100,142.0
3114,B-4,220.0,1/10,71,142.0
3115,B3,220.0,0.5,115,142.0
3116,B3,220.0,0.5,115,142.0
3117,C#2,220.25,0.125,100,142.0
3118,B2,220.5,129/500,115,142.0
3119,B-5,220.5,0.5,100,142.0
3120,B-3,220.5,0.5,100,142.0
3121,B3,220.5,0.5,100,142.0
3122,E-4,220.5,0.5,100,142.0
3123,C#4,220.5,0.5,115,142.0
3124,C#4,220.5,0.5,115,142.0
3125,B-4,220.542,133/1000,74,142.0
3126,C#3,220.75,73/250,93,142.0
3127,B-4,220.8,79/500,78,142.0
3128,C#2,221.0,1.0,100,142.0
3129,B-4,221.0,0.125,74,142.0
3130,B-5,221.0,0.5,100,142.0
3131,E-4,221.0,0.5,115,142.0
3132,E-4,221.0,0.5,115,142.0
3133,F#2,221.5,7/40,116,142.0
3134,B-5,221.5,0.5,100,142.0
3135,B-3,221.5,0.5,100,142.0
3136,B3,221.5,0.5,100,142.0
3137,E-4,221.5,0.5,100,142.0
3138,C#4,221.5,1.0,115,142.0
3139,C#4,221.5,1.0,115,142.0
3140,B-4,221.542,133/1000,67,142.0
3141,G#2,221.75,73/250,109,142.0
3142,B-4,221.8,79/500,78,142.0
3143,C#2,222.0,1.0,100,142.0
3144,B-4,222.05,117/1000,69,142.0
3145,G#1,222.5,0.5,100,142.0
3146,G#3,222.5,0.5,100,142.0
3147,B3,222.5,0.5,100,142.0
3148,E-4,222.5,0.5,100,142.0
3149,B3,222.5,0.5,115,142.0
3150,B3,222.5,0.5,115,142.0
3151,B1,222.5,0.5,100,142.0
3152,B-5,222.5,0.5,100,142.0
3153,B-4,222.55,83/1000,74,142.0
3154,B-4,222.75,167/1000,78,142.0
3155,B1,223.0,0.5,100,142.0
3156,B1,223.0,0.5,100,142.0
3157,C#2,223.0,1.0,100,142.0
3158,F#3,223.0,0.5,115,142.0
3159,F#3,223.0,0.5,115,142.0
3160,B-4,223.008,117/1000,78,142.0
3161,C#2,223.5,0.5,100,142.0
3162,E-4,223.5,0.5,100,142.0
3163,E4,223.5,0.5,100,142.0
3164,G#4,223.5,0.5,100,142.0
3165,E3,223.5,0.5,115,142.0
3166,E3,223.5,0.5,115,142.0
3167,B-5,223.5,0.5,100,142.0
3168,B1,223.5,0.5,100,142.0
3169,B-4,223.55,117/1000,85,142.0
3170,B-4,223.8,167/1000,78,142.0
3171,C#2,224.0,1.0,100,142.0
3172,B-4,224.0,1/10,71,142.0
3173,B-5,224.5,0.5,100,142.0
3174,E-4,224.5,0.5,100,142.0
3175,E4,224.5,0.5,100,142.0
3176,G#4,224.5,0.5,100,142.0
3177,C#4,224.5,0.5,115,142.0
3178,C#4,224.5,0.5,115,142.0
3179,B-4,224.542,133/1000,74,142.0
3180,B-4,224.8,79/500,78,142.0
3181,B-4,225.0,0.125,74,142.0
3182,C#2,225.0,1.0,100,142.0
3183,B-5,225.0,0.5,100,142.0
3184,B3,225.0,0.5,115,142.0
3185,B3,225.0,0.5,115,142.0
3186,B-5,225.5,0.5,100,142.0
3187,E-4,225.5,0.5,100,142.0
3188,E4,225.5,0.5,100,142.0
3189,G#4,225.5,0.5,100,142.0
3190,G#3,225.5,0.5,115,142.0
3191,G#3,225.5,0.5,115,142.0
3192,B-4,225.542,133/1000,67,142.0
3193,B-4,225.8,79/500,78,142.0
3194,C#2,226.0,1.0,100,142.0
3195,B3,226.0,0.5,115,142.0
3196,B3,226.0,0.5,115,142.0
3197,B-4,226.05,117/1000,69,142.0
3198,C#2,226.5,0.5,100,142.0
3199,C#4,226.5,0.5,100,142.0
3200,E4,226.5,0.5,100,142.0
3201,G#4,226.5,0.5,100,142.0
3202,C#4,226.5,0.5,115,142.0
3203,C#4,226.5,0.5,115,142.0
3204,B-5,226.5,0.5,100,142.0
3205,B1,226.5,0.5,100,142.0
3206,B-4,226.55,83/1000,74,142.0
3207,B-4,226.75,167/1000,78,142.0
3208,B1,227.0,0.5,100,142.0
3209,B1,227.0,0.5,100,142.0
3210,C#2,227.0,1.0,100,142.0
3211,B-4,227.008,117/1000,78,142.0
3212,A1,227.5,0.5,100,142.0
3213,E-4,227.5,0.5,100,142.0
3214,E4,227.5,0.5,100,142.0
3215,G#4,227.5,0.5,100,142.0
3216,C#3,227.5,0.25,115,142.0
3217,C#3,227.5,0.25,115,142.0
3218,B1,227.5,0.5,100,142.0
3219,B-5,227.5,0.5,100,142.0
3220,B-4,227.55,117/1000,85,142.0
3221,C#3,227.75,0.25,115,142.0
3222,C#3,227.75,0.25,115,142.0
3223,B-4,227.8,167/1000,78,142.0
3224,C#2,228.0,1.0,100,142.0
3225,B-4,228.0,1/10,71,142.0
3226,E3,228.0,0.5,115,142.0
3227,E3,228.0,0.5,115,142.0
3228,B-5,228.5,0.5,100,142.0
3229,E-4,228.5,0.5,100,142.0
3230,E4,228.5,0.5,100,142.0
3231,G#4,228.5,0.5,100,142.0
3232,F#3,228.5,0.5,115,142.0
3233,F#3,228.5,0.5,115,142.0
3234,B-4,228.542,133/1000,74,142.0
3235,B-4,228.8,79/500,78,142.0
3236,C#2,229.0,1.0,100,142.0
3237,B-4,229.0,0.125,74,142.0
3238,B-5,229.0,0.5,100,142.0
3239,G#3,229.0,0.5,115,142.0
3240,G#3,229.0,0.5,115,142.0
3241,B-5,229.5,0.5,100,142.0
3242,E-4,229.5,0.5,100,142.0
3243,E4,229.5,0.5,100,142.0
3244,G#4,229.5,0.5,100,142.0
3245,E3,229.5,2.5,115,142.0
3246,E3,229.5,2.5,115,142.0
3247,B-4,229.542,133/1000,67,142.0
3248,B-4,229.8,79/500,78,142.0
3249,C#2,230.0,1.0,100,142.0
3250,B-4,230.05,117/1000,69,142.0
3251,A1,230.5,0.5,100,142.0
3252,C#4,230.5,0.5,100,142.0
3253,E4,230.5,0.5,100,142.0
3254,G#4,230.5,0.5,100,142.0
3255,B1,230.5,0.5,100,142.0
3256,B-5,230.5,0.5,100,142.0
3257,B-4,230.55,83/1000,74,142.0
3258,B-4,230.75,167/1000,78,142.0
3259,G#1,231.0,0.5,100,142.0
3260,C#2,231.0,1.0,100,142.0
3261,B1,231.0,0.5,100,142.0
3262,B-4,231.008,117/1000,78,142.0
3263,F#1,231.5,0.5,100,142.0
3264,G#3,231.5,0.5,100,142.0
3265,A3,231.5,0.5,100,142.0
3266,C#4,231.5,0.5,100,142.0
3267,B-5,231.5,0.5,100,142.0
3268,B1,231.5,0.5,100,142.0
3269,B-4,231.55,117/1000,85,142.0
3270,B-4,231.8,167/1000,78,142.0
3271,B-4,232.0,1/10,71,142.0
3272,C#2,232.0,1.0,100,142.0
3273,C#3,232.0,0.25,115,142.0
3274,C#3,232.0,0.25,115,142.0
3275,C#3,232.25,0.25,115,142.0
3276,C#3,232.25,0.25,115,142.0
3277,B-5,232.5,0.5,100,142.0
3278,G#3,232.5,0.5,100,142.0
3279,A3,232.5,0.5,100,142.0
3280,C#4,232.5,0.5,100,142.0
3281,G#3,232.5,0.5,115,142.0
3282,G#3,232.5,0.5,115,142.0
3283,B-4,232.542,133/1000,74,142.0
3284,B-4,232.8,79/500,78,142.0
3285,C#2,233.0,1.0,100,142.0
3286,B-4,233.0,0.125,74,142.0
3287,B-5,233.0,0.5,100,142.0
3288,F#3,233.0,0.5,115,142.0
3289,F#3,233.0,0.5,115,142.0
3290,B-5,233.5,0.5,100,142.0
3291,G#3,233.5,0.5,100,142.0
3292,A3,233.5,0.5,100,142.0
3293,C#4,233.5,0.5,100,142.0
3294,E3,233.5,0.5,115,142.0
3295,E3,233.5,0.5,115,142.0
3296,B-4,233.542,133/1000,67,142.0
3297,B-4,233.8,79/500,78,142.0
3298,C#2,234.0,1.0,100,142.0
3299,F#3,234.0,0.5,115,142.0
3300,F#3,234.0,0.5,115,142.0
3301,B-4,234.05,117/1000,69,142.0
3302,B-5,234.5,0.5,100,142.0
3303,F#3,234.5,0.5,100,142.0
3304,A3,234.5,0.5,100,142.0
3305,C#4,234.5,0.5,100,142.0
3306,G#3,234.5,0.5,115,142.0
3307,G#3,234.5,0.5,115,142.0
3308,B-4,234.55,83/1000,74,142.0
3309,B-4,234.75,167/1000,78,142.0
3310,F#1,235.0,0.5,100,142.0
3311,B1,235.0,0.5,100,142.0
3312,C#2,235.0,1.0,100,142.0
3313,B-4,235.008,117/1000,78,142.0
3314,G#1,235.5,0.5,100,142.0
3315,B-3,235.5,0.5,100,142.0
3316,B3,235.5,0.5,100,142.0
3317,E-4,235.5,0.5,100,142.0
3318,G#3,235.5,0.25,115,142.0
3319,G#3,235.5,0.25,115,142.0
3320,B1,235.5,0.5,100,142.0
3321,B-5,235.5,0.5,100,142.0
3322,B-4,235.55,117/1000,85,142.0
3323,G#3,235.75,0.25,115,142.0
3324,G#3,235.75,0.25,115,142.0
3325,B-4,235.8,167/1000,78,142.0
3326,C#2,236.0,1.0,100,142.0
3327,B-4,236.0,1/10,71,142.0
3328,B3,236.0,0.5,115,142.0
3329,B3,236.0,0.5,115,142.0
3330,B-5,236.5,0.5,100,142.0
3331,B-3,236.5,0.5,100,142.0
3332,B3,236.5,0.5,100,142.0
3333,E-4,236.5,0.5,100,142.0
3334,C#4,236.5,0.5,115,142.0
3335,C#4,236.5,0.5,115,142.0
3336,B-4,236.542,133/1000,74,142.0
3337,B-4,236.8,79/500,78,142.0
3338,C#2,237.0,1.0,100,142.0
3339,B-5,237.0,0.5,100,142.0
3340,B-4,237.0,0.125,74,142.0
3341,E-4,237.0,0.5,115,142.0
3342,E-4,237.0,0.5,115,142.0
3343,B-5,237.5,0.5,100,142.0
3344,B-3,237.5,0.5,100,142.0
3345,B3,237.5,0.5,100,142.0
3346,E-4,237.5,0.5,100,142.0
3347,C#4,237.5,1.0,115,142.0
3348,C#4,237.5,1.0,115,142.0
3349,B-4,237.542,133/1000,67,142.0
3350,B-4,237.8,79/500,78,142.0
3351,C#2,238.0,1.0,100,142.0
3352,B-4,238.05,117/1000,69,142.0
3353,G#1,238.5,0.25,100,142.0
3354,B-5,238.5,0.5,100,142.0
3355,G#3,238.5,0.5,100,142.0
3356,B3,238.5,0.5,100,142.0
3357,E-4,238.5,0.5,100,142.0
3358,B3,238.5,0.5,115,142.0
3359,B3,238.5,0.5,115,142.0
3360,B-4,238.55,83/1000,74,142.0
3361,G#1,238.75,0.25,100,142.0
3362,B-4,238.75,167/1000,78,142.0
3363,B1,238.75,0.25,100,142.0
3364,B1,239.0,0.5,100,142.0
3365,B1,239.0,0.5,100,142.0
3366,C#2,239.0,1.0,100,142.0
3367,F#3,239.0,0.5,115,142.0
3368,F#3,239.0,0.5,115,142.0
3369,B-4,239.008,117/1000,78,142.0
3370,C#2,239.5,0.5,100,142.0
3371,E-4,239.5,0.5,100,142.0
3372,E4,239.5,0.5,100,142.0
3373,G#4,239.5,0.5,100,142.0
3374,E3,239.5,0.5,115,142.0
3375,E3,239.5,0.5,115,142.0
3376,B1,239.5,0.5,100,142.0
3377,B-5,239.5,0.5,100,142.0
3378,B-4,239.55,117/1000,85,142.0
3379,B-4,239.8,167/1000,78,142.0
3380,B-4,240.0,1/10,71,142.0
3381,C#2,240.0,1.0,100,142.0
3382,B-5,240.5,0.5,100,142.0
3383,E-4,240.5,0.5,100,142.0
3384,E4,240.5,0.5,100,142.0
3385,G#4,240.5,0.5,100,142.0
3386,C#4,240.5,0.5,115,142.0
3387,C#4,240.5,0.5,115,142.0
3388,B-4,240.542,133/1000,74,142.0
3389,B-4,240.8,79/500,78,142.0
3390,B-5,241.0,0.5,100,142.0
3391,B-4,241.0,0.125,74,142.0
3392,C#2,241.0,1.0,100,142.0
3393,B3,241.0,0.5,115,142.0
3394,B3,241.0,0.5,115,142.0
3395,C#4,241.0,0.5,100,142.0
3396,C#5,241.0,0.5,100,142.0
3397,C#4,241.0,0.5,100,142.0
3398,C#5,241.0,0.5,100,142.0
3399,B-5,241.5,0.5,100,142.0
3400,E-4,241.5,0.5,100,142.0
3401,E4,241.5,0.5,100,142.0
3402,G#4,241.5,0.5,100,142.0
3403,G#3,241.5,0.5,115,142.0
3404,G#3,241.5,0.5,115,142.0
3405,E-5,241.5,0.5,100,142.0
3406,E-4,241.5,0.5,100,142.0
3407,E-5,241.5,0.5,100,142.0
3408,E-4,241.5,0.5,100,142.0
3409,B-4,241.542,133/1000,67,142.0
3410,B-4,241.8,79/500,78,142.0
3411,C#2,242.0,1.0,100,142.0
3412,B3,242.0,0.5,115,142.0
3413,B3,242.0,0.5,115,142.0
3414,B-4,242.05,117/1000,69,142.0
3415,C#2,242.5,0.5,100,142.0
3416,C#4,242.5,0.5,100,142.0
3417,E4,242.5,0.5,100,142.0
3418,G#4,242.5,0.5,100,142.0
3419,C#4,242.5,0.5,115,142.0
3420,C#4,242.5,0.5,115,142.0
3421,E5,242.5,0.5,100,142.0
3422,E4,242.5,0.5,100,142.0
3423,B1,242.5,0.5,100,142.0
3424,B-5,242.5,0.5,100,142.0
3425,E5,242.5,0.5,100,142.0
3426,E4,242.5,0.5,100,142.0
3427,B-4,242.55,83/1000,74,142.0
3428,B-4,242.75,167/1000,78,142.0
3429,B1,243.0,0.5,100,142.0
3430,B1,243.0,0.5,100,142.0
3431,C#2,243.0,1.0,100,142.0
3432,B-4,243.008,117/1000,78,142.0
3433,A1,243.5,0.5,100,142.0
3434,E-4,243.5,0.5,100,142.0
3435,E4,243.5,0.5,100,142.0
3436,G#4,243.5,0.5,100,142.0
3437,C#3,243.5,0.25,115,142.0
3438,C#3,243.5,0.25,115,142.0
3439,F#5,243.5,0.5,100,142.0
3440,F#4,243.5,0.5,100,142.0
3441,B1,243.5,0.5,100,142.0
3442,B-5,243.5,0.5,100,142.0
3443,F#5,243.5,0.5,100,142.0
3444,F#4,243.5,0.5,100,142.0
3445,B-4,243.55,117/1000,85,142.0
3446,C#3,243.75,0.25,115,142.0
3447,C#3,243.75,0.25,115,142.0
3448,B-4,243.8,167/1000,78,142.0
3449,C#2,244.0,1.0,100,142.0
3450,B-4,244.0,1/10,71,142.0
3451,E3,244.0,0.5,115,142.0
3452,E3,244.0,0.5,115,142.0
3453,F#5,244.0,1.0,100,142.0
3454,F#4,244.0,1.0,100,142.0
3455,F#5,244.0,1.0,100,142.0
3456,F#4,244.0,1.0,100,142.0
3457,B-5,244.5,0.5,100,142.0
3458,E-4,244.5,0.5,100,142.0
3459,E4,244.5,0.5,100,142.0
3460,G#4,244.5,0.5,100,142.0
3461,F#3,244.5,0.5,115,142.0
3462,F#3,244.5,0.5,115,142.0
3463,B-4,244.542,133/1000,74,142.0
3464,B-4,244.8,79/500,78,142.0
3465,B-5,245.0,0.5,100,142.0
3466,B-4,245.0,0.125,74,142.0
3467,C#2,245.0,1.0,100,142.0
3468,G#3,245.0,0.5,115,142.0
3469,G#3,245.0,0.5,115,142.0
3470,E5,245.0,0.5,100,142.0
3471,E4,245.0,0.5,100,142.0
3472,E5,245.0,0.5,100,142.0
3473,E4,245.0,0.5,100,142.0
3474,B-5,245.5,0.5,100,142.0
3475,E-4,245.5,0.5,100,142.0
3476,E4,245.5,0.5,100,142.0
3477,G#4,245.5,0.5,100,142.0
3478,E3,245.5,2.5,115,142.0
3479,E3,245.5,2.5,115,142.0
3480,E-4,245.5,0.5,100,142.0
3481,E-5,245.5,0.5,100,142.0
3482,E-4,245.5,0.5,100,142.0
3483,E-5,245.5,0.5,100,142.0
3484,B-4,245.542,133/1000,67,142.0
3485,B-4,245.8,79/500,78,142.0
3486,C#2,246.0,1.0,100,142.0
3487,B-4,246.05,117/1000,69,142.0
3488,A1,246.5,0.5,100,142.0
3489,C#4,246.5,0.5,100,142.0
3490,E4,246.5,0.5,100,142.0
3491,G#4,246.5,0.5,100,142.0
3492,C#5,246.5,0.5,100,142.0
3493,C#4,246.5,0.5,100,142.0
3494,B-5,246.5,0.5,100,142.0
3495,B1,246.5,0.5,100,142.0
3496,C#5,246.5,0.5,100,142.0
3497,C#4,246.5,0.5,100,142.0
3498,B-4,246.55,83/1000,74,142.0
3499,B-4,246.75,167/1000,78,142.0
3500,G#1,247.0,0.5,100,142.0
3501,B1,247.0,0.5,100,142.0
3502,C#2,247.0,1.0,100,142.0
3503,B-4,247.008,117/1000,78,142.0
3504,F#1,247.5,0.5,100,142.0
3505,G#3,247.5,0.5,100,142.0
3506,A3,247.5,0.5,100,142.0
3507,C#4,247.5,0.5,100,142.0
3508,G#5,247.5,0.5,100,142.0
3509,G#4,247.5,0.5,100,142.0
3510,B1,247.5,0.5,100,142.0
3511,B-5,247.5,0.5,100,142.0
3512,G#5,247.5,0.5,100,142.0
3513,G#4,247.5,0.5,100,142.0
3514,B-4,247.55,117/1000,85,142.0
3515,B-4,247.8,167/1000,78,142.0
3516,C#2,248.0,1.0,100,142.0
3517,B-4,248.0,1/10,71,142.0
3518,C#3,248.0,0.25,115,142.0
3519,C#3,248.0,0.25,115,142.0
3520,G#5,248.0,1.0,100,142.0
3521,G#4,248.0,1.0,100,142.0
3522,G#5,248.0,1.0,100,142.0
3523,G#4,248.0,1.0,100,142.0
3524,C#3,248.25,0.25,115,142.0
3525,C#3,248.25,0.25,115,142.0
3526,B-5,248.5,0.5,100,142.0
3527,G#3,248.5,0.5,100,142.0
3528,A3,248.5,0.5,100,142.0
3529,C#4,248.5,0.5,100,142.0
3530,G#3,248.5,0.5,115,142.0
3531,G#3,248.5,0.5,115,142.0
3532,B-4,248.542,133/1000,74,142.0
3533,B-4,248.8,79/500,78,142.0
3534,C#2,249.0,1.0,100,142.0
3535,B-5,249.0,0.5,100,142.0
3536,B-4,249.0,0.125,74,142.0
3537,F#3,249.0,0.5,115,142.0
3538,F#3,249.0,0.5,115,142.0
3539,F#5,249.0,0.5,100,142.0
3540,F#4,249.0,0.5,100,142.0
3541,F#5,249.0,0.5,100,142.0
3542,F#4,249.0,0.5,100,142.0
3543,B-5,249.5,0.5,100,142.0
3544,G#3,249.5,0.5,100,142.0
3545,A3,249.5,0.5,100,142.0
3546,C#4,249.5,0.5,100,142.0
3547,E3,249.5,0.5,115,142.0
3548,E3,249.5,0.5,115,142.0
3549,F#5,249.5,0.5,100,142.0
3550,F#4,249.5,0.5,100,142.0
3551,F#5,249.5,0.5,100,142.0
3552,F#4,249.5,0.5,100,142.0
3553,B-4,249.542,133/1000,67,142.0
3554,B-4,249.8,79/500,78,142.0
3555,C#2,250.0,1.0,100,142.0
3556,F#3,250.0,0.5,115,142.0
3557,F#3,250.0,0.5,115,142.0
3558,B-4,250.05,117/1000,69,142.0
3559,B-5,250.5,0.5,100,142.0
3560,F#3,250.5,0.5,100,142.0
3561,A3,250.5,0.5,100,142.0
3562,C#4,250.5,0.5,100,142.0
3563,G#3,250.5,0.5,115,142.0
3564,G#3,250.5,0.5,115,142.0
3565,E4,250.5,0.5,100,142.0
3566,E5,250.5,0.5,100,142.0
3567,E4,250.5,0.5,100,142.0
3568,E5,250.5,0.5,100,142.0
3569,B-4,250.55,83/1000,74,142.0
3570,B-4,250.75,167/1000,78,142.0
3571,F#1,251.0,0.5,100,142.0
3572,C#2,251.0,1.0,100,142.0
3573,B1,251.0,0.5,100,142.0
3574,B-4,251.008,117/1000,78,142.0
3575,G#1,251.5,0.5,100,142.0
3576,B-3,251.5,0.5,100,142.0
3577,B3,251.5,0.5,100,142.0
3578,E-4,251.5,0.5,100,142.0
3579,G#3,251.5,0.25,115,142.0
3580,G#3,251.5,0.25,115,142.0
3581,F#5,251.5,0.5,100,142.0
3582,F#4,251.5,0.5,100,142.0
3583,B1,251.5,0.5,100,142.0
3584,B-5,251.5,0.5,100,142.0
3585,F#5,251.5,0.5,100,142.0
3586,F#4,251.5,0.5,100,142.0
3587,B-4,251.55,117/1000,85,142.0
3588,G#3,251.75,0.25,115,142.0
3589,G#3,251.75,0.25,115,142.0
3590,B-4,251.8,167/1000,78,142.0
3591,C#2,252.0,167/1000,101,142.0
3592,C#2,252.0,1.0,100,142.0
3593,B-4,252.0,1/10,71,142.0
3594,B3,252.0,0.5,115,142.0
3595,B3,252.0,0.5,115,142.0
3596,F#5,252.0,0.5,100,142.0
3597,F#4,252.0,0.5,100,142.0
3598,F#5,252.0,0.5,100,142.0
3599,F#4,252.0,0.5,100,142.0
3600,C#2,252.25,0.125,85,142.0
3601,B2,252.5,129/500,115,142.0
3602,B-5,252.5,0.5,100,142.0
3603,B-3,252.5,0.5,100,142.0
3604,B3,252.5,0.5,100,142.0
3605,E-4,252.5,0.5,100,142.0
3606,C#4,252.5,0.5,115,142.0
3607,C#4,252.5,0.5,115,142.0
3608,G#4,252.5,0.5,100,142.0
3609,G#5,252.5,0.5,100,142.0
3610,G#4,252.5,0.5,100,142.0
3611,G#5,252.5,0.5,100,142.0
3612,B-4,252.542,133/1000,74,142.0
3613,C#3,252.75,73/250,93,142.0
3614,B-4,252.8,79/500,78,142.0
3615,C#2,253.0,1.0,100,142.0
3616,B-4,253.0,0.125,74,142.0
3617,B-5,253.0,0.5,100,142.0
3618,E-4,253.0,0.5,115,142.0
3619,E-4,253.0,0.5,115,142.0
3620,F#2,253.5,7/40,116,142.0
3621,B-5,253.5,0.5,100,142.0
3622,B-3,253.5,0.5,100,142.0
3623,B3,253.5,0.5,100,142.0
3624,E-4,253.5,0.5,100,142.0
3625,C#4,253.5,1.0,115,142.0
3626,C#4,253.5,1.0,115,142.0
3627,B-4,253.542,133/1000,67,142.0
3628,G#2,253.75,73/250,109,142.0
3629,B-4,253.8,79/500,78,142.0
3630,C#2,254.0,26/125,101,142.0
3631,C#2,254.0,1.0,100,142.0
3632,B-4,254.05,117/1000,69,142.0
3633,E-2,254.25,121/500,116,142.0
3634,B-5,254.5,0.5,100,142.0
3635,G#3,254.5,0.5,100,142.0
3636,B3,254.5,0.5,100,142.0
3637,E-4,254.5,0.5,100,142.0
3638,B3,254.5,0.5,115,142.0
3639,B3,254.5,0.5,115,142.0
3640,B-4,254.55,83/1000,74,142.0
3641,G#1,254.75,0.25,100,142.0
3642,B1,254.75,0.25,100,142.0
3643,B-4,254.75,167/1000,78,142.0
3644,B1,255.0,0.5,100,142.0
3645,B1,255.0,0.5,100,142.0
3646,C#2,255.0,1.0,100,142.0
3647,F#3,255.0,0.5,115,142.0
3648,F#3,255.0,0.5,115,142.0
3649,B-4,255.008,117/1000,78,142.0
3650,C#2,255.5,0.5,100,142.0
3651,E-4,255.5,0.5,100,142.0
3652,E4,255.5,0.5,100,142.0
3653,G#4,255.5,0.5,100,142.0
3654,E3,255.5,0.5,115,142.0
3655,E3,255.5,0.5,115,142.0
3656,B-5,255.5,0.5,100,142.0
3657,B1,255.5,0.5,100,142.0
3658,B-4,255.55,117/1000,85,142.0
3659,B-4,255.8,167/1000,78,142.0
3660,B-4,256.0,1/10,71,142.0
3661,C#2,256.0,1.0,100,142.0
3662,B-5,256.5,0.5,100,142.0
3663,E-4,256.5,0.5,100,142.0
3664,E4,256.5,0.5,100,142.0
3665,G#4,256.5,0.5,100,142.0
3666,C#4,256.5,0.5,115,142.0
3667,C#4,256.5,0.5,115,142.0
3668,B-4,256.542,133/1000,74,142.0
3669,B-4,256.8,79/500,78,142.0
3670,C#2,257.0,1.0,100,142.0
3671,B-5,257.0,0.5,100,142.0
3672,B-4,257.0,0.125,74,142.0
3673,B3,257.0,0.5,115,142.0
3674,B3,257.0,0.5,115,142.0
3675,C#5,257.0,0.5,100,142.0
3676,C#4,257.0,0.5,100,142.0
3677,C#5,257.0,0.5,100,142.0
3678,C#4,257.0,0.5,100,142.0
3679,B-5,257.5,0.5,100,142.0
3680,E-4,257.5,0.5,100,142.0
3681,E4,257.5,0.5,100,142.0
3682,G#4,257.5,0.5,100,142.0
3683,G#3,257.5,0.5,115,142.0
3684,G#3,257.5,0.5,115,142.0
3685,E-5,257.5,0.5,100,142.0
3686,E-4,257.5,0.5,100,142.0
3687,E-5,257.5,0.5,100,142.0
3688,E-4,257.5,0.5,100,142.0
3689,B-4,257.542,133/1000,67,142.0
3690,B-4,257.8,79/500,78,142.0
3691,C#2,258.0,1.0,100,142.0
3692,B3,258.0,0.5,115,142.0
3693,B3,258.0,0.5,115,142.0
3694,B-4,258.05,117/1000,69,142.0
3695,C#2,258.5,0.5,100,142.0
3696,C#4,258.5,0.5,100,142.0
3697,E4,258.5,0.5,100,142.0
3698,G#4,258.5,0.5,100,142.0
3699,C#4,258.5,0.5,115,142.0
3700,C#4,258.5,0.5,115,142.0
3701,E5,258.5,0.5,100,142.0
3702,E4,258.5,0.5,100,142.0
3703,B1,258.5,0.5,100,142.0
3704,B-5,258.5,0.5,100,142.0
3705,E5,258.5,0.5,100,142.0
3706,E4,258.5,0.5,100,142.0
3707,B-4,258.55,83/1000,74,142.0
3708,B-4,258.75,167/1000,78,142.0
3709,B1,259.0,0.5,100,142.0
3710,B1,259.0,0.5,100,142.0
3711,C#2,259.0,1.0,100,142.0
3712,B-4,259.008,117/1000,78,142.0
3713,A1,259.5,0.5,100,142.0
3714,E-4,259.5,0.5,100,142.0
3715,E4,259.5,0.5,100,142.0
3716,G#4,259.5,0.5,100,142.0
3717,C#3,259.5,0.25,115,142.0
3718,C#3,259.5,0.25,115,142.0
3719,F#5,259.5,0.5,100,142.0
3720,F#4,259.5,0.5,100,142.0
3721,B1,259.5,0.5,100,142.0
3722,B-5,259.5,0.5,100,142.0
3723,F#5,259.5,0.5,100,142.0
3724,F#4,259.5,0.5,100,142.0
3725,B-4,259.55,117/1000,85,142.0
3726,C#3,259.75,0.25,115,142.0
3727,C#3,259.75,0.25,115,142.0
3728,B-4,259.8,167/1000,78,142.0
3729,B-4,260.0,1/10,71,142.0
3730,C#2,260.0,1.0,100,142.0
3731,E3,260.0,0.5,115,142.0
3732,E3,260.0,0.5,115,142.0
3733,F#5,260.0,1.0,100,142.0
3734,F#4,260.0,1.0,100,142.0
3735,F#5,260.0,1.0,100,142.0
3736,F#4,260.0,1.0,100,142.0
3737,B-5,260.5,0.5,100,142.0
3738,E-4,260.5,0.5,100,142.0
3739,E4,260.5,0.5,100,142.0
3740,G#4,260.5,0.5,100,142.0
3741,F#3,260.5,0.5,115,142.0
3742,F#3,260.5,0.5,115,142.0
3743,B-4,260.542,133/1000,74,142.0
3744,B-4,260.8,79/500,78,142.0
3745,B-5,261.0,0.5,100,142.0
3746,B-4,261.0,0.125,74,142.0
3747,C#2,261.0,1.0,100,142.0
3748,G#3,261.0,0.5,115,142.0
3749,G#3,261.0,0.5,115,142.0
3750,E5,261.0,0.5,100,142.0
3751,E4,261.0,0.5,100,142.0
3752,E5,261.0,0.5,100,142.0
3753,E4,261.0,0.5,100,142.0
3754,B-5,261.5,0.5,100,142.0
3755,E-4,261.5,0.5,100,142.0
3756,E4,261.5,0.5,100,142.0
3757,G#4,261.5,0.5,100,142.0
3758,E3,261.5,2.5,115,142.0
3759,E3,261.5,2.5,115,142.0
3760,E-5,261.5,0.5,100,142.0
3761,E-4,261.5,0.5,100,142.0
3762,E-5,261.5,0.5,100,142.0
3763,E-4,261.5,0.5,100,142.0
3764,B-4,261.542,133/1000,67,142.0
3765,B-4,261.8,79/500,78,142.0
3766,C#2,262.0,1.0,100,142.0
3767,B-4,262.05,117/1000,69,142.0
3768,A1,262.5,0.5,100,142.0
3769,C#4,262.5,0.5,100,142.0
3770,E4,262.5,0.5,100,142.0
3771,G#4,262.5,0.5,100,142.0
3772,C#4,262.5,0.5,100,142.0
3773,C#5,262.5,0.5,100,142.0
3774,B1,262.5,0.5,100,142.0
3775,B-5,262.5,0.5,100,142.0
3776,C#4,262.5,0.5,100,142.0
3777,C#5,262.5,0.5,100,142.0
3778,B-4,262.55,83/1000,74,142.0
3779,B-4,262.75,167/1000,78,142.0
3780,G#1,263.0,0.5,100,142.0
3781,B1,263.0,0.5,100,142.0
3782,C#2,263.0,1.0,100,142.0
3783,B-4,263.008,117/1000,78,142.0
3784,F#1,263.5,0.5,100,142.0
3785,G#3,263.5,0.5,100,142.0
3786,A3,263.5,0.5,100,142.0
3787,C#4,263.5,0.5,100,142.0
3788,G#5,263.5,0.5,100,142.0
3789,G#4,263.5,0.5,100,142.0
3790,B1,263.5,0.5,100,142.0
3791,B-5,263.5,0.5,100,142.0
3792,G#5,263.5,0.5,100,142.0
3793,G#4,263.5,0.5,100,142.0
3794,B-4,263.55,117/1000,85,142.0
3795,B-4,263.8,167/1000,78,142.0
3796,C#2,264.0,1.0,100,142.0
3797,B-4,264.0,1/10,71,142.0
3798,C#3,264.0,0.25,115,142.0
3799,C#3,264.0,0.25,115,142.0
3800,G#5,264.0,1.0,100,142.0
3801,G#4,264.0,1.0,100,142.0
3802,G#5,264.0,1.0,100,142.0
3803,G#4,264.0,1.0,100,142.0
3804,C#3,264.25,0.25,115,142.0
3805,C#3,264.25,0.25,115,142.0
3806,B-5,264.5,0.5,100,142.0
3807,G#3,264.5,0.5,100,142.0
3808,A3,264.5,0.5,100,142.0
3809,C#4,264.5,0.5,100,142.0
3810,G#3,264.5,0.5,115,142.0
3811,G#3,264.5,0.5,115,142.0
3812,B-4,264.542,133/1000,74,142.0
3813,B-4,264.8,79/500,78,142.0
3814,B-5,265.0,0.5,100,142.0
3815,B-4,265.0,0.125,74,142.0
3816,C#2,265.0,1.0,100,142.0
3817,F#3,265.0,0.5,115,142.0
3818,F#3,265.0,0.5,115,142.0
3819,F#5,265.0,0.5,100,142.0
3820,F#4,265.0,0.5,100,142.0
3821,F#5,265.0,0.5,100,142.0
3822,F#4,265.0,0.5,100,142.0
3823,B-5,265.5,0.5,100,142.0
3824,G#3,265.5,0.5,100,142.0
3825,A3,265.5,0.5,100,142.0
3826,C#4,265.5,0.5,100,142.0
3827,E3,265.5,0.5,115,142.0
3828,E3,265.5,0.5,115,142.0
3829,F#4,265.5,0.5,100,142.0
3830,F#5,265.5,0.5,100,142.0
3831,F#4,265.5,0.5,100,142.0
3832,F#5,265.5,0.5,100,142.0
3833,B-4,265.542,133/1000,67,142.0
3834,B-4,265.8,79/500,78,142.0
3835,C#2,266.0,1.0,100,142.0
3836,F#3,266.0,0.5,115,142.0
3837,F#3,266.0,0.5,115,142.0
3838,B-4,266.05,117/1000,69,142.0
3839,B-5,266.5,0.5,100,142.0
3840,F#3,266.5,0.5,100,142.0
3841,A3,266.5,0.5,100,142.0
3842,C#4,266.5,0.5,100,142.0
3843,G#3,266.5,0.5,115,142.0
3844,G#3,266.5,0.5,115,142.0
3845,E4,266.5,0.5,100,142.0
3846,E5,266.5,0.5,100,142.0
3847,E4,266.5,0.5,100,142.0
3848,E5,266.5,0.5,100,142.0
3849,B-4,266.55,83/1000,74,142.0
3850,B-4,266.75,167/1000,78,142.0
3851,F#1,267.0,0.5,100,142.0
3852,B1,267.0,0.5,100,142.0
3853,C#2,267.0,1.0,100,142.0
3854,B-4,267.008,117/1000,78,142.0
3855,G#1,267.5,0.5,100,142.0
3856,B-3,267.5,0.5,100,142.0
3857,B3,267.5,0.5,100,142.0
3858,E-4,267.5,0.5,100,142.0
3859,G#3,267.5,0.25,115,142.0
3860,G#3,267.5,0.25,115,142.0
3861,F#4,267.5,0.5,100,142.0
3862,F#5,267.5,0.5,100,142.0
3863,B1,267.5,0.5,100,142.0
3864,B-5,267.5,0.5,100,142.0
3865,F#4,267.5,0.5,100,142.0
3866,F#5,267.5,0.5,100,142.0
3867,B-4,267.55,117/1000,85,142.0
3868,G#3,267.75,0.25,115,142.0
3869,G#3,267.75,0.25,115,142.0
3870,B-4,267.8,167/1000,78,142.0
3871,C#2,268.0,1.0,100,142.0
3872,B-4,268.0,1/10,71,142.0
3873,B3,268.0,0.5,115,142.0
3874,B3,268.0,0.5,115,142.0
3875,F#4,268.0,0.5,100,142.0
3876,F#5,268.0,0.5,100,142.0
3877,F#4,268.0,0.5,100,142.0
3878,F#5,268.0,0.5,100,142.0
3879,B-5,268.5,0.5,100,142.0
3880,B-3,268.5,0.5,100,142.0
3881,B3,268.5,0.5,100,142.0
3882,E-4,268.5,0.5,100,142.0
3883,C#4,268.5,0.5,115,142.0
3884,C#4,268.5,0.5,115,142.0
3885,G#4,268.5,0.5,100,142.0
3886,G#5,268.5,0.5,100,142.0
3887,G#4,268.5,0.5,100,142.0
3888,G#5,268.5,0.5,100,142.0
3889,B-4,268.542,133/1000,74,142.0
3890,B-4,268.8,79/500,78,142.0
3891,C#2,269.0,1.0,100,142.0
3892,B-4,269.0,0.125,74,142.0
3893,B-5,269.0,0.5,100,142.0
3894,E-4,269.0,0.5,115,142.0
3895,E-4,269.0,0.5,115,142.0
3896,B-5,269.5,0.5,100,142.0
3897,B-3,269.5,0.5,100,142.0
3898,B3,269.5,0.5,100,142.0
3899,E-4,269.5,0.5,100,142.0
3900,C#4,269.5,1.0,115,142.0
3901,C#4,269.5,1.0,115,142.0
3902,B-4,269.542,133/1000,67,142.0
3903,B-4,269.8,79/500,78,142.0
3904,C#2,270.0,1.0,100,142.0
3905,B-4,270.05,117/1000,69,142.0
3906,B-5,270.5,0.5,100,142.0
3907,G#3,270.5,0.5,100,142.0
3908,B3,270.5,0.5,100,142.0
3909,E-4,270.5,0.5,100,142.0
3910,B3,270.5,0.5,115,142.0
3911,B3,270.5,0.5,115,142.0
3912,G#4,270.5,0.5,100,142.0
3913,G#5,270.5,0.5,100,142.0
3914,G#4,270.5,0.5,100,142.0
3915,G#5,270.5,0.5,100,142.0
3916,B-4,270.55,83/1000,74,142.0
3917,G#1,270.75,0.25,100,142.0
3918,B1,270.75,0.25,100,142.0
3919,B-4,270.75,167/1000,78,142.0
3920,B1,271.0,0.5,100,142.0
3921,C#2,271.0,1.0,100,142.0
3922,B1,271.0,0.5,100,142.0
3923,F#3,271.0,0.5,115,142.0
3924,F#3,271.0,0.5,115,142.0
3925,B4,271.0,0.5,100,142.0
3926,B5,271.0,0.5,100,142.0
3927,B4,271.0,0.5,100,142.0
3928,B5,271.0,0.5,100,142.0
3929,B-4,271.008,117/1000,78,142.0
3930,C#2,271.5,0.5,100,142.0
3931,E-4,271.5,0.5,100,142.0
3932,E4,271.5,0.5,100,142.0
3933,G#4,271.5,0.5,100,142.0
3934,E3,271.5,0.5,115,142.0
3935,E3,271.5,0.5,115,142.0
3936,C#5,271.5,0.5,100,142.0
3937,C#6,271.5,0.5,100,142.0
3938,B1,271.5,0.5,100,142.0
3939,B-5,271.5,0.5,100,142.0
3940,C#5,271.5,0.5,100,142.0
3941,C#6,271.5,0.5,100,142.0
3942,B-4,271.55,117/1000,85,142.0
3943,B-4,271.8,167/1000,78,142.0
3944,C#2,272.0,1.0,100,142.0
3945,B-4,272.0,1/10,71,142.0
3946,C#5,272.0,1.0,100,142.0
3947,C#6,272.0,1.0,100,142.0
3948,C#5,272.0,1.0,100,142.0
3949,C#6,272.0,1.0,100,142.0
3950,B-5,272.5,0.5,100,142.0
3951,E-4,272.5,0.5,100,142.0
3952,E4,272.5,0.5,100,142.0
3953,G#4,272.5,0.5,100,142.0
3954,C#4,272.5,0.5,115,142.0
3955,C#4,272.5,0.5,115,142.0
3956,B-4,272.542,133/1000,74,142.0
3957,B-4,272.8,79/500,78,142.0
3958,C#2,273.0,1.0,100,142.0
3959,B-4,273.0,0.125,74,142.0
3960,B-5,273.0,0.5,100,142.0
3961,B3,273.0,0.5,115,142.0
3962,B3,273.0,0.5,115,142.0
3963,E-5,273.0,0.5,100,142.0
3964,E-6,273.0,0.5,100,142.0
3965,E-5,273.0,0.5,100,142.0
3966,E-6,273.0,0.5,100,142.0
3967,B-5,273.5,0.5,100,142.0
3968,E-4,273.5,0.5,100,142.0
3969,E4,273.5,0.5,100,142.0
3970,G#4,273.5,0.5,100,142.0
3971,G#3,273.5,0.5,115,142.0
3972,G#3,273.5,0.5,115,142.0
3973,B4,273.5,0.5,100,142.0
3974,B5,273.5,0.5,100,142.0
3975,B4,273.5,0.5,100,142.0
3976,B5,273.5,0.5,100,142.0
3977,B-4,273.542,133/1000,67,142.0
3978,B-4,273.8,79/500,78,142.0
3979,C#2,274.0,1.0,100,142.0
3980,B3,274.0,0.5,115,142.0
3981,B3,274.0,0.5,115,142.0
3982,B-4,274.05,117/1000,69,142.0
3983,C#2,274.5,0.5,100,142.0
3984,C#4,274.5,0.5,100,142.0
3985,E4,274.5,0.5,100,142.0
3986,G#4,274.5,0.5,100,142.0
3987,C#4,274.5,0.5,115,142.0
3988,C#4,274.5,0.5,115,142.0
3989,B1,274.5,0.5,100,142.0
3990,B-5,274.5,0.5,100,142.0
3991,B-4,274.55,83/1000,74,142.0
3992,B-4,274.75,167/1000,78,142.0
3993,B1,275.0,0.5,100,142.0
3994,B1,275.0,0.5,100,142.0
3995,C#2,275.0,1.0,100,142.0
3996,B-4,275.008,117/1000,78,142.0
3997,A1,275.5,0.5,100,142.0
3998,E-4,275.5,0.5,100,142.0
3999,E4,275.5,0.5,100,142.0
4000,G#4,275.5,0.5,100,142.0
4001,C#3,275.5,0.25,115,142.0
4002,C#3,275.5,0.25,115,142.0
4003,G#4,275.5,0.5,100,142.0
4004,G#5,275.5,0.5,100,142.0
4005,B-5,275.5,0.5,100,142.0
4006,B1,275.5,0.5,100,142.0
4007,G#4,275.5,0.5,100,142.0
4008,G#5,275.5,0.5,100,142.0
4009,B-4,275.55,117/1000,85,142.0
4010,C#3,275.75,0.25,115,142.0
4011,C#3,275.75,0.25,115,142.0
4012,B-4,275.8,167/1000,78,142.0
4013,C#2,276.0,1.0,100,142.0
4014,B-4,276.0,1/10,71,142.0
4015,E3,276.0,0.5,115,142.0
4016,E3,276.0,0.5,115,142.0
4017,B4,276.0,0.5,100,142.0
4018,B5,276.0,0.5,100,142.0
4019,B4,276.0,0.5,100,142.0
4020,B5,276.0,0.5,100,142.0
4021,B-5,276.5,0.5,100,142.0
4022,E-4,276.5,0.5,100,142.0
4023,E4,276.5,0.5,100,142.0
4024,G#4,276.5,0.5,100,142.0
4025,F#3,276.5,0.5,115,142.0
4026,F#3,276.5,0.5,115,142.0
4027,C#5,276.5,0.5,100,142.0
4028,C#6,276.5,0.5,100,142.0
4029,C#5,276.5,0.5,100,142.0
4030,C#6,276.5,0.5,100,142.0
4031,B-4,276.542,133/1000,74,142.0
4032,B-4,276.8,79/500,78,142.0
4033,B-4,277.0,0.125,74,142.0
4034,C#2,277.0,1.0,100,142.0
4035,B-5,277.0,0.5,100,142.0
4036,G#3,277.0,0.5,115,142.0
4037,G#3,277.0,0.5,115,142.0
4038,G#4,277.0,0.5,100,142.0
4039,G#5,277.0,0.5,100,142.0
4040,G#4,277.0,0.5,100,142.0
4041,G#5,277.0,0.5,100,142.0
4042,B-5,277.5,0.5,100,142.0
4043,E-4,277.5,0.5,100,142.0
4044,E4,277.5,0.5,100,142.0
4045,G#4,277.5,0.5,100,142.0
4046,E3,277.5,2.5,115,142.0
4047,E3,277.5,2.5,115,142.0
4048,B-4,277.542,133/1000,67,142.0
4049,B-4,277.8,79/500,78,142.0
4050,C#2,278.0,1.0,100,142.0
4051,B-4,278.05,117/1000,69,142.0
4052,A1,278.5,0.5,100,142.0
4053,C#4,278.5,0.5,100,142.0
4054,E4,278.5,0.5,100,142.0
4055,G#4,278.5,0.5,100,142.0
4056,E4,278.5,0.5,100,142.0
4057,E5,278.5,0.5,100,142.0
4058,B-5,278.5,0.5,100,142.0
4059,B1,278.5,0.5,100,142.0
4060,E4,278.5,0.5,100,142.0
4061,E5,278.5,0.5,100,142.0
4062,B-4,278.55,83/1000,74,142.0
4063,B-4,278.75,167/1000,78,142.0
4064,G#1,279.0,0.5,100,142.0
4065,B1,279.0,0.5,100,142.0
4066,C#2,279.0,1.0,100,142.0
4067,F#4,279.0,0.5,100,142.0
4068,F#5,279.0,0.5,100,142.0
4069,F#4,279.0,0.5,100,142.0
4070,F#5,279.0,0.5,100,142.0
4071,B-4,279.008,117/1000,78,142.0
4072,F#1,279.5,0.5,100,142.0
4073,G#3,279.5,0.5,100,142.0
4074,A3,279.5,0.5,100,142.0
4075,C#4,279.5,0.5,100,142.0
4076,G#4,279.5,0.5,100,142.0
4077,G#5,279.5,0.5,100,142.0
4078,B1,279.5,0.5,100,142.0
4079,B-5,279.5,0.5,100,142.0
4080,G#4,279.5,0.5,100,142.0
4081,G#5,279.5,0.5,100,142.0
4082,B-4,279.55,117/1000,85,142.0
4083,B-4,279.8,167/1000,78,142.0
4084,B-4,280.0,1/10,71,142.0
4085,C#2,280.0,1.0,100,142.0
4086,C#3,280.0,0.25,115,142.0
4087,C#3,280.0,0.25,115,142.0
4088,G#4,280.0,1.0,100,142.0
4089,G#5,280.0,1.0,100,142.0
4090,G#4,280.0,1.0,100,142.0
4091,G#5,280.0,1.0,100,142.0
4092,C#3,280.25,0.25,115,142.0
4093,C#3,280.25,0.25,115,142.0
4094,B-5,280.5,0.5,100,142.0
4095,G#3,280.5,0.5,100,142.0
4096,A3,280.5,0.5,100,142.0
4097,C#4,280.5,0.5,100,142.0
4098,G#3,280.5,0.5,115,142.0
4099,G#3,280.5,0.5,115,142.0
4100,B-4,280.542,133/1000,74,142.0
4101,B-4,280.8,79/500,78,142.0
4102,B-5,281.0,0.5,100,142.0
4103,C#2,281.0,1.0,100,142.0
4104,B-4,281.0,0.125,74,142.0
4105,F#3,281.0,0.5,115,142.0
4106,F#3,281.0,0.5,115,142.0
4107,F#5,281.0,0.5,100,142.0
4108,F#4,281.0,0.5,100,142.0
4109,F#5,281.0,0.5,100,142.0
4110,F#4,281.0,0.5,100,142.0
4111,B-5,281.5,0.5,100,142.0
4112,G#3,281.5,0.5,100,142.0
4113,A3,281.5,0.5,100,142.0
4114,C#4,281.5,0.5,100,142.0
4115,E3,281.5,0.5,115,142.0
4116,E3,281.5,0.5,115,142.0
4117,F#5,281.5,0.5,100,142.0
4118,F#4,281.5,0.5,100,142.0
4119,F#5,281.5,0.5,100,142.0
4120,F#4,281.5,0.5,100,142.0
4121,B-4,281.542,133/1000,67,142.0
4122,B-4,281.8,79/500,78,142.0
4123,C#2,282.0,1.0,100,142.0
4124,F#3,282.0,0.5,115,142.0
4125,F#3,282.0,0.5,115,142.0
4126,B-4,282.05,117/1000,69,142.0
4127,B-5,282.5,0.5,100,142.0
4128,F#3,282.5,0.5,100,142.0
4129,A3,282.5,0.5,100,142.0
4130,C#4,282.5,0.5,100,142.0
4131,G#3,282.5,0.5,115,142.0
4132,G#3,282.5,0.5,115,142.0
4133,E5,282.5,0.5,100,142.0
4134,E4,282.5,0.5,100,142.0
4135,E5,282.5,0.5,100,142.0
4136,E4,282.5,0.5,100,142.0
4137,B-4,282.55,83/1000,74,142.0
4138,B-4,282.75,167/1000,78,142.0
4139,F#1,283.0,0.5,100,142.0
4140,B1,283.0,0.5,100,142.0
4141,C#2,283.0,1.0,100,142.0
4142,B-4,283.008,117/1000,78,142.0
4143,G#1,283.5,0.5,100,142.0
4144,B-3,283.5,0.5,100,142.0
4145,B3,283.5,0.5,100,142.0
4146,E-4,283.5,0.5,100,142.0
4147,G#3,283.5,0.25,115,142.0
4148,G#3,283.5,0.25,115,142.0
4149,F#5,283.5,0.5,100,142.0
4150,F#4,283.5,0.5,100,142.0
4151,B1,283.5,0.5,100,142.0
4152,B-5,283.5,0.5,100,142.0
4153,F#5,283.5,0.5,100,142.0
4154,F#4,283.5,0.5,100,142.0
4155,B-4,283.55,117/1000,85,142.0
4156,G#3,283.75,0.25,115,142.0
4157,G#3,283.75,0.25,115,142.0
4158,B-4,283.8,167/1000,78,142.0
4159,C#2,284.0,167/1000,101,142.0
4160,C#2,284.0,1.0,100,142.0
4161,B-4,284.0,1/10,71,142.0
4162,B3,284.0,0.5,115,142.0
4163,B3,284.0,0.5,115,142.0
4164,F#5,284.0,0.5,100,142.0
4165,F#4,284.0,0.5,100,142.0
4166,F#5,284.0,0.5,100,142.0
4167,F#4,284.0,0.5,100,142.0
4168,C#2,284.25,0.125,85,142.0
4169,B2,284.5,129/500,115,142.0
4170,B-5,284.5,0.5,100,142.0
4171,B-3,284.5,0.5,100,142.0
4172,B3,284.5,0.5,100,142.0
4173,E-4,284.5,0.5,100,142.0
4174,C#4,284.5,0.5,115,142.0
4175,C#4,284.5,0.5,115,142.0
4176,G#5,284.5,0.5,100,142.0
4177,G#4,284.5,0.5,100,142.0
4178,G#5,284.5,0.5,100,142.0
4179,G#4,284.5,0.5,100,142.0
4180,B-4,284.542,133/1000,74,142.0
4181,C#3,284.75,73/250,93,142.0
4182,B-4,284.8,79/500,78,142.0
4183,B-5,285.0,0.5,100,142.0
4184,B-4,285.0,0.125,74,142.0
4185,C#2,285.0,1.0,100,142.0
4186,E-4,285.0,0.5,115,142.0
4187,E-4,285.0,0.5,115,142.0
4188,F#2,285.5,7/40,116,142.0
4189,B-5,285.5,0.5,100,142.0
4190,B-3,285.5,0.5,100,142.0
4191,B3,285.5,0.5,100,142.0
4192,E-4,285.5,0.5,100,142.0
4193,C#4,285.5,1.0,115,142.0
4194,C#4,285.5,1.0,115,142.0
4195,B-4,285.542,133/1000,67,142.0
4196,G#2,285.75,73/250,109,142.0
4197,B-4,285.8,79/500,78,142.0
4198,C#2,286.0,26/125,101,142.0
4199,C#2,286.0,1.0,100,142.0
4200,B-4,286.05,117/1000,69,142.0
4201,E-2,286.25,121/500,116,142.0
4202,B-5,286.5,0.5,100,142.0
4203,G#3,286.5,0.5,100,142.0
4204,B3,286.5,0.5,100,142.0
4205,E-4,286.5,0.5,100,142.0
4206,B3,286.5,0.5,115,142.0
4207,B3,286.5,0.5,115,142.0
4208,C#6,286.5,0.5,100,142.0
4209,C#5,286.5,0.5,100,142.0
4210,C#6,286.5,0.5,100,142.0
4211,C#5,286.5,0.5,100,142.0
4212,B-4,286.55,83/1000,74,142.0
4213,G#1,286.75,0.25,100,142.0
4214,B1,286.75,0.25,100,142.0
4215,B-4,286.75,167/1000,78,142.0
4216,B1,287.0,0.5,100,142.0
4217,B1,287.0,0.5,100,142.0
4218,C#2,287.0,1.0,100,142.0
4219,F#3,287.0,0.5,115,142.0
4220,F#3,287.0,0.5,115,142.0
4221,E6,287.0,0.5,100,142.0
4222,C#6,287.0,0.5,100,142.0
4223,E5,287.0,0.5,100,142.0
4224,C#5,287.0,0.5,100,142.0
4225,E6,287.0,0.5,100,142.0
4226,C#6,287.0,0.5,100,142.0
4227,E5,287.0,0.5,100,142.0
4228,C#5,287.0,0.5,100,142.0
4229,B-4,287.008,117/1000,78,142.0
4230,C#2,287.5,0.5,100,142.0
4231,E-4,287.5,0.5,100,142.0
4232,E4,287.5,0.5,100,142.0
4233,G#4,287.5,0.5,100,142.0
4234,E3,287.5,0.5,115,142.0
4235,E3,287.5,0.5,115,142.0
4236,F#6,287.5,0.5,100,142.0
4237,E-6,287.5,0.5,100,142.0
4238,F#5,287.5,0.5,100,142.0
4239,E-5,287.5,0.5,100,142.0
4240,B1,287.5,0.5,100,142.0
4241,B-5,287.5,0.5,100,142.0
4242,F#6,287.5,0.5,100,142.0
4243,E-6,287.5,0.5,100,142.0
4244,F#5,287.5,0.5,100,142.0
4245,E-5,287.5,0.5,100,142.0
4246,B-4,287.55,117/1000,85,142.0
4247,B-4,287.8,167/1000,78,142.0
4248,C#2,288.0,1.0,100,142.0
4249,B-4,288.0,1/10,71,142.0
4250,F#6,288.0,1.0,100,142.0
4251,E-6,288.0,1.0,100,142.0
4252,F#5,288.0,1.0,100,142.0
4253,E-5,288.0,1.0,100,142.0
4254,F#6,288.0,1.0,100,142.0
4255,E-6,288.0,1.0,100,142.0
4256,F#5,288.0,1.0,100,142.0
4257,E-5,288.0,1.0,100,142.0
4258,B-5,288.5,0.5,100,142.0
4259,E-4,288.5,0.5,100,142.0
4260,E4,288.5,0.5,100,142.0
4261,G#4,288.5,0.5,100,142.0
4262,C#4,288.5,0.5,115,142.0
4263,C#4,288.5,0.5,115,142.0
4264,B-4,288.542,133/1000,74,142.0
4265,B-4,288.8,79/500,78,142.0
4266,C#2,289.0,1.0,100,142.0
4267,B-5,289.0,0.5,100,142.0
4268,B-4,289.0,0.125,74,142.0
4269,B3,289.0,0.5,115,142.0
4270,B3,289.0,0.5,115,142.0
4271,G#6,289.0,0.5,100,142.0
4272,E6,289.0,0.5,100,142.0
4273,G#5,289.0,0.5,100,142.0
4274,E5,289.0,0.5,100,142.0
4275,G#6,289.0,0.5,100,142.0
4276,E6,289.0,0.5,100,142.0
4277,G#5,289.0,0.5,100,142.0
4278,E5,289.0,0.5,100,142.0
4279,B-5,289.5,0.5,100,142.0
4280,E-4,289.5,0.5,100,142.0
4281,E4,289.5,0.5,100,142.0
4282,G#4,289.5,0.5,100,142.0
4283,G#3,289.5,0.5,115,142.0
4284,G#3,289.5,0.5,115,142.0
4285,E6,289.5,0.5,100,142.0
4286,C#6,289.5,0.5,100,142.0
4287,C#5,289.5,0.5,100,142.0
4288,E5,289.5,0.5,100,142.0
4289,E6,289.5,0.5,100,142.0
4290,C#6,289.5,0.5,100,142.0
4291,C#5,289.5,0.5,100,142.0
4292,E5,289.5,0.5,100,142.0
4293,B-4,289.542,133/1000,67,142.0
4294,B-4,289.8,79/500,78,142.0
4295,C#2,290.0,1.0,100,142.0
4296,B3,290.0,0.5,115,142.0
4297,B3,290.0,0.5,115,142.0
4298,B-4,290.05,117/1000,69,142.0
4299,C#2,290.5,0.5,100,142.0
4300,C#4,290.5,0.5,100,142.0
4301,E4,290.5,0.5,100,142.0
4302,G#4,290.5,0.5,100,142.0
4303,C#4,290.5,0.5,115,142.0
4304,C#4,290.5,0.5,115,142.0
4305,B1,290.5,0.5,100,142.0
4306,B-5,290.5,0.5,100,142.0
4307,B-4,290.55,83/1000,74,142.0
4308,B-4,290.75,167/1000,78,142.0
4309,B1,291.0,0.5,100,142.0
4310,B1,291.0,0.5,100,142.0
4311,C#2,291.0,1.0,100,142.0
4312,B-4,291.008,117/1000,78,142.0
4313,A1,291.5,0.5,100,142.0
4314,E-4,291.5,0.5,100,142.0
4315,E4,291.5,0.5,100,142.0
4316,G#4,291.5,0.5,100,142.0
4317,C#3,291.5,0.25,115,142.0
4318,C#3,291.5,0.25,115,142.0
4319,B5,291.5,0.5,100,142.0
4320,B4,291.5,0.5,100,142.0
4321,B1,291.5,0.5,100,142.0
4322,B-5,291.5,0.5,100,142.0
4323,B5,291.5,0.5,100,142.0
4324,B4,291.5,0.5,100,142.0
4325,B-4,291.55,117/1000,85,142.0
4326,C#3,291.75,0.25,115,142.0
4327,C#3,291.75,0.25,115,142.0
4328,B-4,291.8,167/1000,78,142.0
4329,B-4,292.0,1/10,71,142.0
4330,C#2,292.0,1.0,100,142.0
4331,E3,292.0,0.5,115,142.0
4332,E3,292.0,0.5,115,142.0
4333,E-6,292.0,0.5,100,142.0
4334,E-5,292.0,0.5,100,142.0
4335,E-6,292.0,0.5,100,142.0
4336,E-5,292.0,0.5,100,142.0
4337,B-5,292.5,0.5,100,142.0
4338,E-4,292.5,0.5,100,142.0
4339,E4,292.5,0.5,100,142.0
4340,G#4,292.5,0.5,100,142.0
4341,F#3,292.5,0.5,115,142.0
4342,F#3,292.5,0.5,115,142.0
4343,E6,292.5,0.5,100,142.0
4344,E5,292.5,0.5,100,142.0
4345,E6,292.5,0.5,100,142.0
4346,E5,292.5,0.5,100,142.0
4347,B-4,292.542,133/1000,74,142.0
4348,B-4,292.8,79/500,78,142.0
4349,B-5,293.0,0.5,100,142.0
4350,B-4,293.0,0.125,74,142.0
4351,C#2,293.0,1.0,100,142.0
4352,G#3,293.0,0.5,115,142.0
4353,G#3,293.0,0.5,115,142.0
4354,C#6,293.0,0.5,100,142.0
4355,C#5,293.0,0.5,100,142.0
4356,C#6,293.0,0.5,100,142.0
4357,C#5,293.0,0.5,100,142.0
4358,B-5,293.5,0.5,100,142.0
4359,E-4,293.5,0.5,100,142.0
4360,E4,293.5,0.5,100,142.0
4361,G#4,293.5,0.5,100,142.0
4362,E3,293.5,2.5,115,142.0
4363,E3,293.5,2.5,115,142.0
4364,G#5,293.5,0.5,100,142.0
4365,G#4,293.5,0.5,100,142.0
4366,G#5,293.5,0.5,100,142.0
4367,G#4,293.5,0.5,100,142.0
4368,B-4,293.542,133/1000,67,142.0
4369,B-4,293.8,79/500,78,142.0
4370,C#2,294.0,1.0,100,142.0
4371,B-4,294.05,117/1000,69,142.0
4372,A1,294.5,0.5,100,142.0
4373,C#4,294.5,0.5,100,142.0
4374,E4,294.5,0.5,100,142.0
4375,G#4,294.5,0.5,100,142.0
4376,B5,294.5,0.5,100,142.0
4377,B4,294.5,0.5,100,142.0
4378,B1,294.5,0.5,100,142.0
4379,B-5,294.5,0.5,100,142.0
4380,B5,294.5,0.5,100,142.0
4381,B4,294.5,0.5,100,142.0
4382,B-4,294.55,83/1000,74,142.0
4383,B-4,294.75,167/1000,78,142.0
4384,G#1,295.0,0.5,100,142.0
4385,B1,295.0,0.5,100,142.0
4386,C#2,295.0,1.0,100,142.0
4387,G#5,295.0,0.5,100,142.0
4388,G#4,295.0,0.5,100,142.0
4389,G#5,295.0,0.5,100,142.0
4390,G#4,295.0,0.5,100,142.0
4391,B-4,295.008,117/1000,78,142.0
4392,F#1,295.5,0.5,100,142.0
4393,G#3,295.5,0.5,100,142.0
4394,A3,295.5,0.5,100,142.0
4395,C#4,295.5,0.5,100,142.0
4396,G#5,295.5,0.5,100,142.0
4397,G#4,295.5,0.5,100,142.0
4398,B1,295.5,0.5,100,142.0
4399,B-5,295.5,0.5,100,142.0
4400,G#5,295.5,0.5,100,142.0
4401,G#4,295.5,0.5,100,142.0
4402,B-4,295.55,117/1000,85,142.0
4403,B-4,295.8,167/1000,78,142.0
4404,C#2,296.0,1.0,100,142.0
4405,B-4,296.0,1/10,71,142.0
4406,C#3,296.0,0.25,115,142.0
4407,C#3,296.0,0.25,115,142.0
4408,G#5,296.0,1.0,100,142.0
4409,G#4,296.0,1.0,100,142.0
4410,G#5,296.0,1.0,100,142.0
4411,G#4,296.0,1.0,100,142.0
4412,C#3,296.25,0.25,115,142.0
4413,C#3,296.25,0.25,115,142.0
4414,B-5,296.5,0.5,100,142.0
4415,G#3,296.5,0.5,100,142.0
4416,A3,296.5,0.5,100,142.0
4417,C#4,296.5,0.5,100,142.0
4418,G#3,296.5,0.5,115,142.0
4419,G#3,296.5,0.5,115,142.0
4420,B-4,296.542,133/1000,74,142.0
4421,B-4,296.8,79/500,78,142.0
4422,B-5,297.0,0.5,100,142.0
4423,B-4,297.0,0.125,74,142.0
4424,C#2,297.0,1.0,100,142.0
4425,F#3,297.0,0.5,115,142.0
4426,F#3,297.0,0.5,115,142.0
4427,F#5,297.0,0.5,100,142.0
4428,F#4,297.0,0.5,100,142.0
4429,F#5,297.0,0.5,100,142.0
4430,F#4,297.0,0.5,100,142.0
4431,B-5,297.5,0.5,100,142.0
4432,G#3,297.5,0.5,100,142.0
4433,A3,297.5,0.5,100,142.0
4434,C#4,297.5,0.5,100,142.0
4435,E3,297.5,0.5,115,142.0
4436,E3,297.5,0.5,115,142.0
4437,F#5,297.5,0.5,100,142.0
4438,F#4,297.5,0.5,100,142.0
4439,F#5,297.5,0.5,100,142.0
4440,F#4,297.5,0.5,100,142.0
4441,B-4,297.542,133/1000,67,142.0
4442,B-4,297.8,79/500,78,142.0
4443,C#2,298.0,1.0,100,142.0
4444,F#3,298.0,0.5,115,142.0
4445,F#3,298.0,0.5,115,142.0
4446,B-4,298.05,117/1000,69,142.0
4447,B-5,298.5,0.5,100,142.0
4448,F#3,298.5,0.5,100,142.0
4449,A3,298.5,0.5,100,142.0
4450,C#4,298.5,0.5,100,142.0
4451,G#3,298.5,0.5,115,142.0
4452,G#3,298.5,0.5,115,142.0
4453,E5,298.5,0.5,100,142.0
4454,E4,298.5,0.5,100,142.0
4455,E5,298.5,0.5,100,142.0
4456,E4,298.5,0.5,100,142.0
4457,B-4,298.55,83/1000,74,142.0
4458,B-4,298.75,167/1000,78,142.0
4459,F#1,299.0,0.5,100,142.0
4460,B1,299.0,0.5,100,142.0
4461,C#2,299.0,1.0,100,142.0
4462,B-4,299.008,117/1000,78,142.0
4463,G#1,299.5,0.5,100,142.0
4464,B-3,299.5,0.5,100,142.0
4465,B3,299.5,0.5,100,142.0
4466,E-4,299.5,0.5,100,142.0
4467,G#3,299.5,0.25,115,142.0
4468,G#3,299.5,0.25,115,142.0
4469,F#5,299.5,0.5,100,142.0
4470,F#4,299.5,0.5,100,142.0
4471,B1,299.5,0.5,100,142.0
4472,B-5,299.5,0.5,100,142.0
4473,F#5,299.5,0.5,100,142.0
4474,F#4,299.5,0.5,100,142.0
4475,B-4,299.55,117/1000,85,142.0
4476,G#3,299.75,0.25,115,142.0
4477,G#3,299.75,0.25,115,142.0
4478,B-4,299.8,167/1000,78,142.0
4479,C#2,300.0,1.0,100,142.0
4480,B3,300.0,0.5,115,142.0
4481,B3,300.0,0.5,115,142.0
4482,F#5,300.0,0.5,100,142.0
4483,F#4,300.0,0.5,100,142.0
4484,F#5,300.0,0.5,100,142.0
4485,F#4,300.0,0.5,100,142.0
4486,B-5,300.5,0.5,100,142.0
4487,F#6,300.5,1.0,127,142.0
4488,B-3,300.5,0.5,100,142.0
4489,B3,300.5,0.5,100,142.0
4490,E-4,300.5,0.5,100,142.0
4491,C#4,300.5,0.5,115,142.0
4492,C#4,300.5,0.5,115,142.0
4493,G#5,300.5,0.5,100,142.0
4494,G#4,300.5,0.5,100,142.0
4495,G#5,300.5,0.5,100,142.0
4496,G#4,300.5,0.5,100,142.0
4497,C#2,301.0,1.0,100,142.0
4498,B-5,301.0,0.5,100,142.0
4499,E-4,301.0,0.5,115,142.0
4500,E-4,301.0,0.5,115,142.0
4501,B-5,301.5,0.5,100,142.0
4502,F#5,301.5,0.5,127,142.0
4503,B-3,301.5,0.5,100,142.0
4504,B3,301.5,0.5,100,142.0
4505,E-4,301.5,0.5,100,142.0
4506,C#4,301.5,1.0,115,142.0
4507,C#4,301.5,1.0,115,142.0
4508,G#4,302.0,0.5,100,142.0
4509,C#2,302.0,1.0,100,142.0
4510,D3,302.0,0.5,100,142.0
4511,G#4,302.0,0.5,100,142.0
4512,B4,302.0,0.5,127,142.0
4513,G#1,302.5,0.5,100,142.0
4514,C#5,302.5,0.5,100,142.0
4515,A2,302.5,0.25,100,142.0
4516,C#5,302.5,0.5,100,142.0
4517,E4,302.5,1.0,127,142.0
4518,B3,302.5,0.5,115,142.0
4519,B3,302.5,0.5,115,142.0
4520,B1,302.5,0.5,100,142.0
4521,B-5,302.5,0.5,100,142.0
4522,A2,302.75,0.25,100,142.0
4523,B1,303.0,0.5,100,142.0
4524,C#2,303.0,1.0,100,142.0
4525,F#3,303.0,0.5,115,142.0
4526,F#3,303.0,0.5,115,142.0
4527,E-5,303.0,0.5,100,142.0
4528,B4,303.0,0.5,100,142.0
4529,B1,303.0,0.5,100,142.0
4530,F2,303.0,0.5,100,142.0
4531,E-5,303.0,0.5,100,142.0
4532,B4,303.0,0.5,100,142.0
4533,A1,303.5,0.5,100,142.0
4534,A2,303.5,0.5,100,142.0
4535,E3,303.5,0.5,115,142.0
4536,E3,303.5,0.5,115,142.0
4537,E5,303.5,0.5,100,142.0
4538,C#5,303.5,0.5,100,142.0
4539,G#4,303.5,0.5,100,142.0
4540,B1,303.5,0.5,105,142.0
4541,C#3,303.5,0.5,105,142.0
4542,B-5,303.5,0.5,105,142.0
4543,E5,303.5,0.5,100,142.0
4544,C#5,303.5,0.5,100,142.0
4545,G#4,303.5,0.5,100,142.0
4546,A1,304.0,0.5,100,142.0
4547,A2,304.0,0.5,100,142.0
4548,C#2,304.0,1.0,100,142.0
4549,F#3,304.0,133/1000,66,142.0
4550,F#3,304.208,167/1000,58,142.0
4551,F3,304.467,73/250,100,142.0
4552,F#3,304.467,3/40,78,142.0
4553,B-5,304.467,3/40,78,142.0
4554,A1,304.5,2/5,100,142.0
4555,A2,304.5,0.5,100,142.0
4556,B1,304.5,0.5,100,142.0
4557,G#4,304.5,0.5,100,142.0
4558,C#5,304.5,0.5,100,142.0
4559,E5,304.5,0.5,100,142.0
4560,G#4,304.5,0.5,100,142.0
4561,C#5,304.5,0.5,100,142.0
4562,E5,304.5,0.5,100,142.0
4563,F#3,304.708,133/1000,82,142.0
4564,B-5,304.708,133/1000,82,142.0
4565,F#3,304.958,167/1000,66,142.0
4566,A1,305.0,2/5,100,142.0
4567,A2,305.0,0.5,100,142.0
4568,E-5,305.0,0.5,100,142.0
4569,B4,305.0,0.5,100,142.0
4570,F#4,305.0,0.5,100,142.0
4571,C#2,305.0,1.0,108,142.0
4572,D2,305.0,1.0,108,142.0
4573,E-5,305.0,0.5,100,142.0
4574,B4,305.0,0.5,100,142.0
4575,F#4,305.0,0.5,100,142.0
4576,F#3,305.208,7/40,63,142.0
4577,F3,305.458,0.125,86,142.0
4578,F#3,305.458,0.125,86,142.0
4579,B-5,305.458,0.125,86,142.0
4580,A1,305.5,2/5,100,142.0
4581,A2,305.5,0.5,100,142.0
4582,B1,305.5,0.5,100,142.0
4583,F#3,305.708,167/1000,82,142.0
4584,B-5,305.708,167/1000,82,142.0
4585,F#3,305.958,1/5,80,142.0
4586,F3,305.958,1/5,80,142.0
4587,A1,306.0,2/5,100,142.0
4588,A2,306.0,0.5,100,142.0
4589,B1,306.0,0.5,100,142.0
4590,C#2,306.0,1.0,100,142.0
4591,C#5,306.0,0.5,100,142.0
4592,G#4,306.0,0.5,100,142.0
4593,E4,306.0,0.5,100,142.0
4594,C#5,306.0,0.5,100,142.0
4595,G#4,306.0,0.5,100,142.0
4596,E4,306.0,0.5,100,142.0
4597,F#3,306.208,167/1000,60,142.0
4598,B-5,306.458,79/500,78,142.0
4599,F#3,306.458,79/500,78,142.0
4600,F3,306.458,79/500,78,142.0
4601,F#3,306.458,79/500,78,142.0
4602,A1,306.5,2/5,100,142.0
4603,A2,306.5,0.5,100,142.0
4604,B1,306.5,0.5,100,142.0
4605,F#3,306.708,167/1000,78,142.0
4606,B-5,306.708,167/1000,78,142.0
4607,F#3,306.958,26/125,56,142.0
4608,A1,307.0,2/5,100,142.0
4609,A2,307.0,0.5,100,142.0
4610,B4,307.0,0.5,100,142.0
4611,G#4,307.0,0.5,100,142.0
4612,E-4,307.0,0.5,100,142.0
4613,D2,307.0,1.0,108,142.0
4614,C#2,307.0,1.0,108,142.0
4615,B4,307.0,0.5,100,142.0
4616,G#4,307.0,0.5,100,142.0
4617,E-4,307.0,0.5,100,142.0
4618,F#3,307.208,167/1000,60,142.0
4619,B-5,307.458,7/40,86,142.0
4620,F#3,307.458,7/40,86,142.0
4621,F3,307.458,7/40,86,142.0
4622,A1,307.5,2/5,100,142.0
4623,A2,307.5,0.5,100,142.0
4624,B1,307.5,0.5,100,142.0
4625,F#3,307.708,167/1000,78,142.0
4626,B-5,307.708,167/1000,78,142.0
4627,F3,307.958,21/500,83,142.0
4628,F#3,307.958,21/500,83,142.0
4629,A1,308.0,2/5,100,142.0
4630,A2,308.0,0.5,100,142.0
4631,B1,308.0,0.5,100,142.0
4632,C#2,308.0,1.0,100,142.0
4633,B4,308.0,0.5,100,142.0
4634,F#4,308.0,0.5,100,142.0
4635,E-4,308.0,0.5,100,142.0
4636,F3,308.0,23/250,83,142.0
4637,F#3,308.0,23/250,83,142.0
4638,B4,308.0,0.5,100,142.0
4639,F#4,308.0,0.5,100,142.0
4640,E-4,308.0,0.5,100,142.0
4641,F#3,308.208,167/1000,58,142.0
4642,B-5,308.467,117/1000,78,142.0
4643,F#3,308.467,117/1000,78,142.0
4644,F3,308.467,117/1000,78,142.0
4645,F#3,308.467,117/1000,78,142.0
4646,A1,308.5,2/5,100,142.0
4647,A2,308.5,0.5,100,142.0
4648,B1,308.5,0.5,100,142.0
4649,C#5,308.5,0.5,100,142.0
4650,G#4,308.5,0.5,100,142.0
4651,E4,308.5,0.5,100,142.0
4652,C#5,308.5,0.5,100,142.0
4653,G#4,308.5,0.5,100,142.0
4654,E4,308.5,0.5,100,142.0
4655,F#3,308.708,133/1000,82,142.0
4656,B-5,308.708,133/1000,82,142.0
4657,F#3,308.958,167/1000,66,142.0
4658,A1,309.0,2/5,100,142.0
4659,A2,309.0,0.5,100,142.0
4660,D2,309.0,1.0,108,142.0
4661,C#2,309.0,1.0,108,142.0
4662,F#3,309.208,7/40,63,142.0
4663,F3,309.458,167/1000,86,142.0
4664,B-5,309.458,167/1000,86,142.0
4665,F#3,309.458,167/1000,86,142.0
4666,A1,309.5,2/5,100,142.0
4667,A2,309.5,0.5,100,142.0
4668,B1,309.5,0.5,100,142.0
4669,E4,309.5,0.5,100,142.0
4670,G#4,309.5,0.5,100,142.0
4671,C#5,309.5,0.5,100,142.0
4672,E4,309.5,0.5,100,142.0
4673,G#4,309.5,0.5,100,142.0
4674,C#5,309.5,0.5,100,142.0
4675,F#3,309.708,167/1000,82,142.0
4676,B-5,309.708,167/1000,82,142.0
4677,F#3,309.958,167/1000,80,142.0
4678,F3,309.958,167/1000,80,142.0
4679,A1,310.0,2/5,100,142.0
4680,A2,310.0,0.5,100,142.0
4681,B1,310.0,0.5,100,142.0
4682,C#2,310.0,1.0,100,142.0
4683,F#3,310.208,167/1000,60,142.0
4684,F3,310.458,129/500,100,142.0
4685,B-5,310.458,79/500,78,142.0
4686,F#3,310.458,79/500,78,142.0
4687,B1,310.5,2/5,100,142.0
4688,B2,310.5,0.5,100,142.0
4689,E-5,310.5,0.5,100,142.0
4690,B4,310.5,0.5,100,142.0
4691,F#4,310.5,0.5,100,142.0
4692,G3,310.5,0.5,114,142.0
4693,B1,310.5,0.5,114,142.0
4694,E-5,310.5,0.5,100,142.0
4695,B4,310.5,0.5,100,142.0
4696,F#4,310.5,0.5,100,142.0
4697,F#3,310.708,167/1000,78,142.0
4698,B-5,310.708,167/1000,78,142.0
4699,F#3,310.958,26/125,56,142.0
4700,B1,311.0,2/5,100,142.0
4701,B2,311.0,0.5,100,142.0
4702,D2,311.0,1.0,108,142.0
4703,C#2,311.0,1.0,108,142.0
4704,F#3,311.208,167/1000,60,142.0
4705,B-5,311.458,167/1000,79,142.0
4706,F#3,311.458,167/1000,79,142.0
4707,F3,311.467,26/125,100,142.0
4708,C#2,311.5,0.5,100,142.0
4709,C#3,311.5,0.5,100,142.0
4710,E5,311.5,0.5,100,142.0
4711,C#5,311.5,0.5,100,142.0
4712,G#4,311.5,0.5,100,142.0
4713,B1,311.5,0.5,108,142.0
4714,C#3,311.5,0.5,108,142.0
4715,E5,311.5,0.5,100,142.0
4716,C#5,311.5,0.5,100,142.0
4717,G#4,311.5,0.5,100,142.0
4718,F#3,311.708,167/1000,78,142.0
4719,B-5,311.708,167/1000,78,142.0
4720,C#2,312.0,0.5,100,142.0
4721,C#3,312.0,0.5,100,142.0
4722,F#3,312.0,133/1000,66,142.0
4723,C#2,312.0,1.0,100,142.0
4724,F#3,312.208,167/1000,58,142.0
4725,F3,312.467,73/250,100,142.0
4726,F#3,312.467,3/40,78,142.0
4727,B-5,312.467,3/40,78,142.0
4728,C#2,312.5,2/5,100,142.0
4729,C#3,312.5,0.5,100,142.0
4730,B1,312.5,0.5,100,142.0
4731,G#4,312.5,0.5,100,142.0
4732,C#5,312.5,0.5,100,142.0
4733,E5,312.5,0.5,100,142.0
4734,G#4,312.5,0.5,100,142.0
4735,C#5,312.5,0.5,100,142.0
4736,E5,312.5,0.5,100,142.0
4737,F#3,312.708,133/1000,82,142.0
4738,B-5,312.708,133/1000,82,142.0
4739,F#3,312.958,167/1000,66,142.0
4740,C#2,313.0,2/5,100,142.0
4741,C#3,313.0,0.5,100,142.0
4742,E-5,313.0,0.5,100,142.0
4743,B4,313.0,0.5,100,142.0
4744,F#4,313.0,0.5,100,142.0
4745,C#2,313.0,1.0,108,142.0
4746,D2,313.0,1.0,108,142.0
4747,E-5,313.0,0.5,100,142.0
4748,B4,313.0,0.5,100,142.0
4749,F#4,313.0,0.5,100,142.0
4750,F#3,313.208,7/40,63,142.0
4751,B-5,313.458,133/1000,86,142.0
4752,F#3,313.458,133/1000,86,142.0
4753,F3,313.458,133/1000,86,142.0
4754,C#2,313.5,2/5,100,142.0
4755,C#3,313.5,0.5,100,142.0
4756,B1,313.5,0.5,100,142.0
4757,F#3,313.708,167/1000,82,142.0
4758,B-5,313.708,167/1000,82,142.0
4759,F#3,313.958,217/1000,80,142.0
4760,F3,313.958,217/1000,80,142.0
4761,C#2,314.0,2/5,100,142.0
4762,C#3,314.0,0.5,100,142.0
4763,B1,314.0,0.5,100,142.0
4764,C#2,314.0,1.0,100,142.0
4765,C#5,314.0,0.5,100,142.0
4766,G#4,314.0,0.5,100,142.0
4767,E4,314.0,0.5,100,142.0
4768,C#5,314.0,0.5,100,142.0
4769,G#4,314.0,0.5,100,142.0
4770,E4,314.0,0.5,100,142.0
4771,F#3,314.208,167/1000,60,142.0
4772,F3,314.458,79/500,78,142.0
4773,F#3,314.458,79/500,78,142.0
4774,B-5,314.458,79/500,78,142.0
4775,F#3,314.458,79/500,78,142.0
4776,C#2,314.5,2/5,100,142.0
4777,C#3,314.5,0.5,100,142.0
4778,B1,314.5,0.5,100,142.0
4779,F#3,314.708,167/1000,78,142.0
4780,B-5,314.708,167/1000,78,142.0
4781,F#3,314.958,26/125,56,142.0
4782,C#2,315.0,2/5,100,142.0
4783,C#3,315.0,0.5,100,142.0
4784,B4,315.0,0.5,100,142.0
4785,G#4,315.0,0.5,100,142.0
4786,E-4,315.0,0.5,100,142.0
4787,D2,315.0,1.0,108,142.0
4788,C#2,315.0,1.0,108,142.0
4789,B4,315.0,0.5,100,142.0
4790,G#4,315.0,0.5,100,142.0
4791,E-4,315.0,0.5,100,142.0
4792,F#3,315.208,167/1000,60,142.0
4793,F#3,315.458,0.125,86,142.0
4794,F3,315.458,0.125,86,142.0
4795,B-5,315.458,0.125,86,142.0
4796,C#2,315.5,2/5,100,142.0
4797,C#3,315.5,0.5,100,142.0
4798,B1,315.5,0.5,100,142.0
4799,B-5,315.708,0.125,78,142.0
4800,F#3,315.708,0.125,78,142.0
4801,F3,315.958,21/500,83,142.0
4802,F#3,315.958,21/500,83,142.0
4803,C#2,316.0,2/5,100,142.0
4804,C#3,316.0,0.5,100,142.0
4805,C#2,316.0,1.0,100,142.0
4806,B1,316.0,0.5,100,142.0
4807,B4,316.0,1.5,100,142.0
4808,F#4,316.0,1.5,100,142.0
4809,E-4,316.0,1.5,100,142.0
4810,F3,316.0,23/250,83,142.0
4811,F#3,316.0,23/250,83,142.0
4812,B4,316.0,1.5,100,142.0
4813,F#4,316.0,1.5,100,142.0
4814,E-4,316.0,1.5,100,142.0
4815,F#3,316.208,167/1000,58,142.0
4816,F3,316.458,26/125,100,142.0
4817,F#3,316.467,3/40,78,142.0
4818,B-5,316.467,3/40,78,142.0
4819,C#2,316.5,2/5,100,142.0
4820,C#3,316.5,0.5,100,142.0
4821,B1,316.5,0.5,100,142.0
4822,B-5,316.708,133/1000,82,142.0
4823,F#3,316.708,133/1000,82,142.0
4824,F#3,316.958,167/1000,66,142.0
4825,C#2,317.0,2/5,100,142.0
4826,C#3,317.0,0.5,100,142.0
4827,C#2,317.0,1.0,100,142.0
4828,D2,317.0,1.125,115,142.0
4829,F#3,317.208,7/40,63,142.0
4830,F#3,317.458,167/1000,86,142.0
4831,B-5,317.458,167/1000,86,142.0
4832,F3,317.458,167/1000,86,142.0
4833,C#2,317.5,2/5,100,142.0
4834,C#3,317.5,0.5,100,142.0
4835,B1,317.5,0.5,100,142.0
4836,C#5,317.5,0.5,100,142.0
4837,G#4,317.5,0.5,100,142.0
4838,E4,317.5,0.5,100,142.0
4839,C#5,317.5,0.5,100,142.0
4840,G#4,317.5,0.5,100,142.0
4841,E4,317.5,0.5,100,142.0
4842,F#3,317.708,167/1000,82,142.0
4843,B-5,317.708,167/1000,82,142.0
4844,F#3,317.958,26/125,80,142.0
4845,F3,317.958,26/125,80,142.0
4846,C#2,318.0,2/5,100,142.0
4847,C#3,318.0,0.5,100,142.0
4848,C#2,318.0,1.0,100,142.0
4849,B1,318.0,0.5,100,142.0
4850,F#3,318.208,167/1000,60,142.0
4851,F3,318.458,0.25,100,142.0
4852,B-5,318.458,79/500,78,142.0
4853,F#3,318.458,79/500,78,142.0
4854,B1,318.5,2/5,100,142.0
4855,B2,318.5,0.5,100,142.0
4856,E-5,318.5,0.5,100,142.0
4857,B4,318.5,0.5,100,142.0
4858,F#4,318.5,0.5,100,142.0
4859,B1,318.5,0.5,114,142.0
4860,G3,318.5,0.5,114,142.0
4861,E-5,318.5,0.5,100,142.0
4862,B4,318.5,0.5,100,142.0
4863,F#4,318.5,0.5,100,142.0
4864,F#3,318.708,167/1000,78,142.0
4865,B-5,318.708,167/1000,78,142.0
4866,F#3,318.958,26/125,56,142.0
4867,B1,319.0,2/5,100,142.0
4868,B2,319.0,0.5,100,142.0
4869,C#2,319.0,1.0,108,142.0
4870,D2,319.0,1.0,108,142.0
4871,F#3,319.208,167/1000,60,142.0
4872,F#3,319.458,26/125,86,142.0
4873,B-5,319.458,26/125,86,142.0
4874,F3,319.458,26/125,86,142.0
4875,A1,319.5,0.5,100,142.0
4876,A2,319.5,0.5,100,142.0
4877,E5,319.5,0.5,100,142.0
4878,C#5,319.5,0.5,100,142.0
4879,G#4,319.5,0.5,100,142.0
4880,B1,319.5,0.5,108,142.0
4881,C#3,319.5,0.5,108,142.0
4882,E5,319.5,0.5,100,142.0
4883,C#5,319.5,0.5,100,142.0
4884,G#4,319.5,0.5,100,142.0
4885,B-5,319.708,0.125,78,142.0
4886,F#3,319.708,0.125,78,142.0
4887,A1,320.0,0.5,100,142.0
4888,A2,320.0,0.5,100,142.0
4889,F#3,320.0,133/1000,66,142.0
4890,F#3,320.208,167/1000,58,142.0
4891,F3,320.467,26/125,100,142.0
4892,B-5,320.467,117/1000,78,142.0
4893,F#3,320.467,117/1000,78,142.0
4894,A1,320.5,2/5,100,142.0
4895,A2,320.5,0.5,100,142.0
4896,B1,320.5,0.5,100,142.0
4897,G#4,320.5,0.5,100,142.0
4898,C#5,320.5,0.5,100,142.0
4899,E5,320.5,0.5,100,142.0
4900,G#4,320.5,0.5,100,142.0
4901,C#5,320.5,0.5,100,142.0
4902,E5,320.5,0.5,100,142.0
4903,B-5,320.708,133/1000,82,142.0
4904,F#3,320.708,133/1000,82,142.0
4905,F#3,320.958,167/1000,66,142.0
4906,A1,321.0,2/5,100,142.0
4907,A2,321.0,0.5,100,142.0
4908,D2,321.0,1.0,115,142.0
4909,E-5,321.0,0.5,100,142.0
4910,B4,321.0,0.5,100,142.0
4911,F#4,321.0,0.5,100,142.0
4912,E-5,321.0,0.5,100,142.0
4913,B4,321.0,0.5,100,142.0
4914,F#4,321.0,0.5,100,142.0
4915,F#3,321.208,7/40,63,142.0
4916,B-5,321.458,167/1000,86,142.0
4917,F#3,321.458,167/1000,86,142.0
4918,F3,321.458,167/1000,86,142.0
4919,A1,321.5,2/5,100,142.0
4920,A2,321.5,0.5,100,142.0
4921,B1,321.5,0.5,100,142.0
4922,F#3,321.708,167/1000,82,142.0
4923,B-5,321.708,167/1000,82,142.0
4924,F#3,321.958,7/40,80,142.0
4925,F3,321.958,7/40,80,142.0
4926,A1,322.0,2/5,100,142.0
4927,A2,322.0,0.5,100,142.0
4928,B1,322.0,0.5,100,142.0
4929,C#5,322.0,0.5,100,142.0
4930,G#4,322.0,0.5,100,142.0
4931,E4,322.0,0.5,100,142.0
4932,C#5,322.0,0.5,100,142.0
4933,G#4,322.0,0.5,100,142.0
4934,E4,322.0,0.5,100,142.0
4935,F#3,322.208,167/1000,60,142.0
4936,F3,322.458,79/500,78,142.0
4937,F#3,322.458,79/500,78,142.0
4938,B-5,322.458,79/500,78,142.0
4939,F#3,322.458,79/500,78,142.0
4940,A1,322.5,2/5,100,142.0
4941,A2,322.5,0.5,100,142.0
4942,B1,322.5,0.5,100,142.0
4943,F#3,322.708,167/1000,78,142.0
4944,B-5,322.708,167/1000,78,142.0
4945,F#3,322.958,26/125,56,142.0
4946,A1,323.0,2/5,100,142.0
4947,A2,323.0,0.5,100,142.0
4948,D2,323.0,1.0,115,142.0
4949,B4,323.0,0.5,100,142.0
4950,G#4,323.0,0.5,100,142.0
4951,E-4,323.0,0.5,100,142.0
4952,B4,323.0,0.5,100,142.0
4953,G#4,323.0,0.5,100,142.0
4954,E-4,323.0,0.5,100,142.0
4955,F#3,323.208,167/1000,60,142.0
4956,F#3,323.458,167/1000,86,142.0
4957,B-5,323.458,167/1000,86,142.0
4958,F3,323.458,167/1000,86,142.0
4959,A1,323.5,2/5,100,142.0
4960,A2,323.5,0.5,100,142.0
4961,B1,323.5,0.5,100,142.0
4962,B-5,323.708,0.125,78,142.0
4963,F#3,323.708,0.125,78,142.0
4964,F3,323.958,21/500,83,142.0
4965,F#3,323.958,21/500,83,142.0
4966,A1,324.0,2/5,100,142.0
4967,A2,324.0,0.5,100,142.0
4968,B1,324.0,0.5,100,142.0
4969,B4,324.0,0.5,100,142.0
4970,F#4,324.0,0.5,100,142.0
4971,E-4,324.0,0.5,100,142.0
4972,F3,324.0,23/250,83,142.0
4973,F#3,324.0,23/250,83,142.0
4974,B4,324.0,0.5,100,142.0
4975,F#4,324.0,0.5,100,142.0
4976,E-4,324.0,0.5,100,142.0
4977,F#3,324.208,167/1000,58,142.0
4978,F3,324.467,1/5,100,142.0
4979,F#3,324.467,3/40,78,142.0
4980,B-5,324.467,3/40,78,142.0
4981,A1,324.5,2/5,100,142.0
4982,A2,324.5,0.5,100,142.0
4983,B1,324.5,0.5,100,142.0
4984,C#5,324.5,0.5,100,142.0
4985,G#4,324.5,0.5,100,142.0
4986,E4,324.5,0.5,100,142.0
4987,C#5,324.5,0.5,100,142.0
4988,G#4,324.5,0.5,100,142.0
4989,E4,324.5,0.5,100,142.0
4990,F#3,324.708,133/1000,82,142.0
4991,B-5,324.708,133/1000,82,142.0
4992,F#3,324.958,167/1000,66,142.0
4993,A1,325.0,2/5,100,142.0
4994,A2,325.0,0.5,100,142.0
4995,D2,325.0,1.0,115,142.0
4996,F#3,325.208,7/40,63,142.0
4997,B-5,325.458,117/1000,86,142.0
4998,F#3,325.458,117/1000,86,142.0
4999,F3,325.458,117/1000,86,142.0
5000,A1,325.5,2/5,100,142.0
5001,A2,325.5,0.5,100,142.0
5002,B1,325.5,0.5,100,142.0
5003,E4,325.5,0.5,100,142.0
5004,G#4,325.5,0.5,100,142.0
5005,C#5,325.5,0.5,100,142.0
5006,E4,325.5,0.5,100,142.0
5007,G#4,325.5,0.5,100,142.0
5008,C#5,325.5,0.5,100,142.0
5009,F#3,325.708,167/1000,82,142.0
5010,B-5,325.708,167/1000,82,142.0
5011,F#3,325.958,167/1000,80,142.0
5012,F3,325.958,167/1000,80,142.0
5013,A1,326.0,2/5,100,142.0
5014,A2,326.0,0.5,100,142.0
5015,B1,326.0,0.5,100,142.0
5016,F#3,326.208,167/1000,60,142.0
5017,F3,326.458,79/500,78,142.0
5018,F#3,326.458,79/500,78,142.0
5019,B-5,326.458,79/500,78,142.0
5020,F#3,326.458,79/500,78,142.0
5021,A1,326.5,2/5,100,142.0
5022,A2,326.5,0.5,100,142.0
5023,B1,326.5,0.5,100,142.0
5024,E-4,326.5,0.5,100,142.0
5025,B4,326.5,0.5,100,142.0
5026,F#4,326.5,0.5,100,142.0
5027,E-4,326.5,0.5,100,142.0
5028,B4,326.5,0.5,100,142.0
5029,F#4,326.5,0.5,100,142.0
5030,F#3,326.708,167/1000,78,142.0
5031,B-5,326.708,167/1000,78,142.0
5032,F#3,326.958,26/125,56,142.0
5033,A1,327.0,2/5,100,142.0
5034,A2,327.0,0.5,100,142.0
5035,D2,327.0,1.0,115,142.0
5036,F#3,327.208,167/1000,60,142.0
5037,F3,327.458,271/500,100,142.0
5038,F#3,327.458,0.125,79,142.0
5039,B-5,327.458,0.125,79,142.0
5040,G#1,327.5,0.5,100,142.0
5041,G#2,327.5,0.5,100,142.0
5042,E-4,327.5,0.5,100,142.0
5043,C#4,327.5,0.5,100,142.0
5044,G#4,327.5,0.5,100,142.0
5045,B1,327.5,0.5,108,142.0
5046,A3,327.5,0.5,108,142.0
5047,E-4,327.5,0.5,100,142.0
5048,C#4,327.5,0.5,100,142.0
5049,G#4,327.5,0.5,100,142.0
5050,F#3,327.708,167/1000,78,142.0
5051,B-5,327.708,167/1000,78,142.0
5052,G#1,328.0,0.5,100,142.0
5053,G#2,328.0,0.5,100,142.0
5054,F#3,328.0,133/1000,66,142.0
5055,F3,328.0,37/40,100,142.0
5056,E-4,328.0,2.0,100,142.0
5057,C#4,328.0,2.0,100,142.0
5058,G#4,328.0,2.0,100,142.0
5059,E-4,328.0,2.0,100,142.0
5060,C#4,328.0,2.0,100,142.0
5061,G#4,328.0,2.0,100,142.0
5062,F#3,328.208,167/1000,58,142.0
5063,F#3,328.467,3/40,78,142.0
5064,B-5,328.467,3/40,78,142.0
5065,G#1,328.5,2/5,100,142.0
5066,G#2,328.5,0.5,100,142.0
5067,B1,328.5,0.5,100,142.0
5068,B-5,328.708,133/1000,82,142.0
5069,F#3,328.708,133/1000,82,142.0
5070,F#3,328.958,167/1000,66,142.0
5071,G#1,329.0,2/5,100,142.0
5072,G#2,329.0,0.5,100,142.0
5073,D2,329.0,1.0,115,142.0
5074,F#3,329.208,7/40,63,142.0
5075,F#3,329.458,167/1000,86,142.0
5076,B-5,329.458,167/1000,86,142.0
5077,F3,329.458,167/1000,86,142.0
5078,G#1,329.5,2/5,100,142.0
5079,G#2,329.5,0.5,100,142.0
5080,B1,329.5,0.5,100,142.0
5081,F#3,329.708,167/1000,82,142.0
5082,B-5,329.708,167/1000,82,142.0
5083,F3,329.958,521/500,100,142.0
5084,F#3,329.958,7/40,61,142.0
5085,G#1,330.0,2/5,100,142.0
5086,G#2,330.0,0.5,100,142.0
5087,B1,330.0,0.5,100,142.0
5088,F#3,330.208,167/1000,60,142.0
5089,B-5,330.458,79/500,78,142.0
5090,F#3,330.458,79/500,78,142.0
5091,G#1,330.5,2/5,100,142.0
5092,G#2,330.5,0.5,100,142.0
5093,B1,330.5,0.5,100,142.0
5094,F#3,330.708,167/1000,78,142.0
5095,B-5,330.708,167/1000,78,142.0
5096,F#3,330.958,26/125,56,142.0
5097,G#1,331.0,2/5,100,142.0
5098,G#2,331.0,0.5,100,142.0
5099,D2,331.0,1.0,115,142.0
5100,F#3,331.208,167/1000,60,142.0
5101,F#3,331.458,0.125,86,142.0
5102,F3,331.458,0.125,86,142.0
5103,B-5,331.458,0.125,86,142.0
5104,G#1,331.5,2/5,100,142.0
5105,G#2,331.5,0.5,100,142.0
5106,B1,331.5,0.5,100,142.0
5107,B-5,331.708,0.125,78,142.0
5108,F#3,331.708,0.125,78,142.0
5109,F3,331.958,21/500,100,142.0
5110,G#1,332.0,2/5,100,142.0
5111,G#2,332.0,0.5,100,142.0
5112,F#3,332.0,133/1000,66,142.0
5113,B1,332.0,0.5,100,142.0
5114,F3,332.0,479/500,100,142.0
5115,F#3,332.208,167/1000,58,142.0
5116,F#3,332.467,3/40,78,142.0
5117,B-5,332.467,3/40,78,142.0
5118,G#1,332.5,2/5,100,142.0
5119,G#2,332.5,0.5,100,142.0
5120,B1,332.5,0.5,100,142.0
5121,F#6,332.5,1.0,127,142.0
5122,B-5,332.708,133/1000,82,142.0
5123,F#3,332.708,133/1000,82,142.0
5124,F#3,332.958,167/1000,66,142.0
5125,G#1,333.0,2/5,100,142.0
5126,G#2,333.0,0.5,100,142.0
5127,D2,333.0,1.0,115,142.0
5128,F#3,333.208,7/40,63,142.0
5129,B-5,333.458,167/1000,86,142.0
5130,F3,333.458,167/1000,86,142.0
5131,F#3,333.458,167/1000,86,142.0
5132,G#1,333.5,2/5,100,142.0
5133,G#2,333.5,0.5,100,142.0
5134,B1,333.5,0.5,100,142.0
5135,F#5,333.5,0.5,127,142.0
5136,G#4,333.5,0.5,100,142.0
5137,E4,333.5,0.5,100,142.0
5138,G#4,333.5,0.5,100,142.0
5139,E4,333.5,0.5,100,142.0
5140,F#3,333.708,167/1000,82,142.0
5141,B-5,333.708,167/1000,82,142.0
5142,F#3,333.958,7/40,61,142.0
5143,F3,333.958,126/125,100,142.0
5144,G#1,334.0,2/5,100,142.0
5145,G#2,334.0,0.5,100,142.0
5146,B4,334.0,0.5,127,142.0
5147,C#5,334.0,0.5,100,142.0
5148,G#4,334.0,0.5,100,142.0
5149,B1,334.0,0.5,108,142.0
5150,D3,334.0,0.5,108,142.0
5151,C#5,334.0,0.5,100,142.0
5152,G#4,334.0,0.5,100,142.0
5153,F#3,334.208,167/1000,60,142.0
5154,B-5,334.458,79/500,78,142.0
5155,F#3,334.458,79/500,78,142.0
5156,G#1,334.5,2/5,100,142.0
5157,G#2,334.5,0.5,100,142.0
5158,B1,334.5,0.5,100,142.0
5159,A2,334.5,0.25,115,142.0
5160,E4,334.5,1.0,127,142.0
5161,E5,334.5,0.5,100,142.0
5162,C#5,334.5,0.5,100,142.0
5163,E5,334.5,0.5,100,142.0
5164,C#5,334.5,0.5,100,142.0
5165,F#3,334.708,167/1000,78,142.0
5166,B-5,334.708,167/1000,78,142.0
5167,A2,334.75,0.25,115,142.0
5168,F#3,334.958,26/125,56,142.0
5169,B1,335.0,2/5,100,142.0
5170,B2,335.0,0.5,100,142.0
5171,D2,335.0,1.0,115,142.0
5172,F2,335.0,0.5,115,142.0
5173,F#5,335.0,0.5,100,142.0
5174,E-5,335.0,0.5,100,142.0
5175,F#5,335.0,0.5,100,142.0
5176,E-5,335.0,0.5,100,142.0
5177,F#3,335.208,167/1000,60,142.0
5178,F3,335.458,417/1000,100,142.0
5179,B-5,335.458,167/1000,79,142.0
5180,F#3,335.458,167/1000,79,142.0
5181,A1,335.5,0.5,100,142.0
5182,A2,335.5,0.5,100,142.0
5183,E5,335.5,0.5,100,142.0
5184,G#5,335.5,0.5,100,142.0
5185,C#5,335.5,0.5,100,142.0
5186,B1,335.5,0.5,108,142.0
5187,C#3,335.5,0.5,108,142.0
5188,E5,335.5,0.5,100,142.0
5189,G#5,335.5,0.5,100,142.0
5190,C#5,335.5,0.5,100,142.0
5191,F#3,335.708,167/1000,78,142.0
5192,B-5,335.708,167/1000,78,142.0
5193,A1,336.0,0.5,100,142.0
5194,A2,336.0,0.5,100,142.0
5195,F#3,336.0,133/1000,66,142.0
5196,F#3,336.208,167/1000,58,142.0
5197,F3,336.467,73/250,100,142.0
5198,F#3,336.467,3/40,78,142.0
5199,B-5,336.467,3/40,78,142.0
5200,A1,336.5,2/5,100,142.0
5201,A2,336.5,0.5,100,142.0
5202,B1,336.5,0.5,100,142.0
5203,G#5,336.5,0.5,100,142.0
5204,C#5,336.5,0.5,100,142.0
5205,E5,336.5,0.5,100,142.0
5206,G#5,336.5,0.5,100,142.0
5207,C#5,336.5,0.5,100,142.0
5208,E5,336.5,0.5,100,142.0
5209,F#3,336.708,133/1000,82,142.0
5210,B-5,336.708,133/1000,82,142.0
5211,F#3,336.958,167/1000,66,142.0
5212,A1,337.0,2/5,100,142.0
5213,A2,337.0,0.5,100,142.0
5214,D2,337.0,1.0,114,142.0
5215,E-5,337.0,0.5,100,142.0
5216,B4,337.0,0.5,100,142.0
5217,F#5,337.0,0.5,100,142.0
5218,E-5,337.0,0.5,100,142.0
5219,B4,337.0,0.5,100,142.0
5220,F#5,337.0,0.5,100,142.0
5221,F#3,337.208,7/40,63,142.0
5222,F3,337.458,0.125,86,142.0
5223,F#3,337.458,0.125,86,142.0
5224,B-5,337.458,0.125,86,142.0
5225,A1,337.5,2/5,100,142.0
5226,A2,337.5,0.5,100,142.0
5227,B1,337.5,0.5,100,142.0
5228,F#3,337.708,167/1000,82,142.0
5229,B-5,337.708,167/1000,82,142.0
5230,F#3,337.958,1/5,80,142.0
5231,F3,337.958,1/5,80,142.0
5232,A1,338.0,2/5,100,142.0
5233,A2,338.0,0.5,100,142.0
5234,B1,338.0,0.5,100,142.0
5235,C#5,338.0,0.5,100,142.0
5236,G#4,338.0,0.5,100,142.0
5237,E5,338.0,0.5,100,142.0
5238,C#5,338.0,0.5,100,142.0
5239,G#4,338.0,0.5,100,142.0
5240,E5,338.0,0.5,100,142.0
5241,F#3,338.208,167/1000,60,142.0
5242,F3,338.458,79/500,78,142.0
5243,F#3,338.458,79/500,78,142.0
5244,B-5,338.458,79/500,78,142.0
5245,F#3,338.458,79/500,78,142.0
5246,A1,338.5,2/5,100,142.0
5247,A2,338.5,0.5,100,142.0
5248,B1,338.5,0.5,100,142.0
5249,F#3,338.708,167/1000,78,142.0
5250,B-5,338.708,167/1000,78,142.0
5251,F#3,338.958,26/125,56,142.0
5252,A1,339.0,2/5,100,142.0
5253,A2,339.0,0.5,100,142.0
5254,D2,339.0,1.0,115,142.0
5255,B4,339.0,0.5,100,142.0
5256,G#4,339.0,0.5,100,142.0
5257,E-5,339.0,0.5,100,142.0
5258,B4,339.0,0.5,100,142.0
5259,G#4,339.0,0.5,100,142.0
5260,E-5,339.0,0.5,100,142.0
5261,F#3,339.208,167/1000,60,142.0
5262,F#3,339.458,7/40,86,142.0
5263,B-5,339.458,7/40,86,142.0
5264,F3,339.458,7/40,86,142.0
5265,A1,339.5,2/5,100,142.0
5266,A2,339.5,0.5,100,142.0
5267,B1,339.5,0.5,100,142.0
5268,F#3,339.708,167/1000,78,142.0
5269,B-5,339.708,167/1000,78,142.0
5270,F3,339.958,21/500,83,142.0
5271,F#3,339.958,21/500,83,142.0
5272,A1,340.0,2/5,100,142.0
5273,A2,340.0,0.5,100,142.0
5274,B1,340.0,0.5,100,142.0
5275,B4,340.0,0.5,100,142.0
5276,F#4,340.0,0.5,100,142.0
5277,E-5,340.0,0.5,100,142.0
5278,F3,340.0,23/250,83,142.0
5279,F#3,340.0,23/250,83,142.0
5280,B4,340.0,0.5,100,142.0
5281,F#4,340.0,0.5,100,142.0
5282,E-5,340.0,0.5,100,142.0
5283,F#3,340.208,167/1000,58,142.0
5284,F3,340.467,79/500,100,142.0
5285,B-5,340.467,117/1000,78,142.0
5286,F#3,340.467,117/1000,78,142.0
5287,A1,340.5,2/5,100,142.0
5288,A2,340.5,0.5,100,142.0
5289,B1,340.5,0.5,100,142.0
5290,C#5,340.5,0.5,100,142.0
5291,G#4,340.5,0.5,100,142.0
5292,E5,340.5,0.5,100,142.0
5293,C#5,340.5,0.5,100,142.0
5294,G#4,340.5,0.5,100,142.0
5295,E5,340.5,0.5,100,142.0
5296,F#3,340.708,133/1000,82,142.0
5297,B-5,340.708,133/1000,82,142.0
5298,F#3,340.958,167/1000,66,142.0
5299,A1,341.0,2/5,100,142.0
5300,A2,341.0,0.5,100,142.0
5301,D2,341.0,1.0,115,142.0
5302,F#3,341.208,7/40,63,142.0
5303,B-5,341.458,133/1000,86,142.0
5304,F#3,341.458,133/1000,86,142.0
5305,F3,341.458,133/1000,86,142.0
5306,A1,341.5,2/5,100,142.0
5307,A2,341.5,0.5,100,142.0
5308,B1,341.5,0.5,100,142.0
5309,E5,341.5,0.5,100,142.0
5310,G#4,341.5,0.5,100,142.0
5311,C#5,341.5,0.5,100,142.0
5312,E5,341.5,0.5,100,142.0
5313,G#4,341.5,0.5,100,142.0
5314,C#5,341.5,0.5,100,142.0
5315,F#3,341.708,167/1000,82,142.0
5316,B-5,341.708,167/1000,82,142.0
5317,F#3,341.958,167/1000,80,142.0
5318,F3,341.958,167/1000,80,142.0
5319,A1,342.0,2/5,100,142.0
5320,A2,342.0,0.5,100,142.0
5321,B1,342.0,0.5,100,142.0
5322,F#3,342.208,167/1000,60,142.0
5323,F3,342.458,129/500,100,142.0
5324,B-5,342.458,79/500,78,142.0
5325,F#3,342.458,79/500,78,142.0
5326,B1,342.5,2/5,100,142.0
5327,B2,342.5,0.5,100,142.0
5328,E-5,342.5,0.5,100,142.0
5329,B4,342.5,0.5,100,142.0
5330,F#5,342.5,0.5,100,142.0
5331,B1,342.5,0.5,114,142.0
5332,G3,342.5,0.5,114,142.0
5333,E-5,342.5,0.5,100,142.0
5334,B4,342.5,0.5,100,142.0
5335,F#5,342.5,0.5,100,142.0
5336,F#3,342.708,167/1000,78,142.0
5337,B-5,342.708,167/1000,78,142.0
5338,F#3,342.958,26/125,56,142.0
5339,B1,343.0,2/5,100,142.0
5340,B2,343.0,0.5,100,142.0
5341,D2,343.0,1.0,115,142.0
5342,F#3,343.208,167/1000,60,142.0
5343,B-5,343.458,167/1000,79,142.0
5344,F#3,343.458,167/1000,79,142.0
5345,F3,343.467,26/125,100,142.0
5346,C#2,343.5,0.5,100,142.0
5347,C#3,343.5,0.5,100,142.0
5348,E5,343.5,0.5,100,142.0
5349,C#5,343.5,0.5,100,142.0
5350,G#5,343.5,0.5,100,142.0
5351,B1,343.5,0.5,108,142.0
5352,C#3,343.5,0.5,108,142.0
5353,E5,343.5,0.5,100,142.0
5354,C#5,343.5,0.5,100,142.0
5355,G#5,343.5,0.5,100,142.0
5356,F#3,343.708,167/1000,78,142.0
5357,B-5,343.708,167/1000,78,142.0
5358,C#2,344.0,0.5,100,142.0
5359,C#3,344.0,0.5,100,142.0
5360,F#3,344.0,133/1000,66,142.0
5361,F#3,344.208,167/1000,58,142.0
5362,F3,344.467,73/250,100,142.0
5363,F#3,344.467,3/40,78,142.0
5364,B-5,344.467,3/40,78,142.0
5365,C#2,344.5,2/5,100,142.0
5366,C#3,344.5,0.5,100,142.0
5367,B1,344.5,0.5,100,142.0
5368,G#5,344.5,0.5,100,142.0
5369,C#5,344.5,0.5,100,142.0
5370,E5,344.5,0.5,100,142.0
5371,G#5,344.5,0.5,100,142.0
5372,C#5,344.5,0.5,100,142.0
5373,E5,344.5,0.5,100,142.0
5374,F#3,344.708,133/1000,82,142.0
5375,B-5,344.708,133/1000,82,142.0
5376,F#3,344.958,167/1000,66,142.0
5377,C#2,345.0,2/5,100,142.0
5378,C#3,345.0,0.5,100,142.0
5379,D2,345.0,1.0,115,142.0
5380,E-5,345.0,0.5,100,142.0
5381,B4,345.0,0.5,100,142.0
5382,F#5,345.0,0.5,100,142.0
5383,E-5,345.0,0.5,100,142.0
5384,B4,345.0,0.5,100,142.0
5385,F#5,345.0,0.5,100,142.0
5386,F#3,345.208,7/40,63,142.0
5387,F#3,345.458,133/1000,86,142.0
5388,B-5,345.458,133/1000,86,142.0
5389,F3,345.458,133/1000,86,142.0
5390,C#2,345.5,2/5,100,142.0
5391,C#3,345.5,0.5,100,142.0
5392,B1,345.5,0.5,100,142.0
5393,F#3,345.708,167/1000,82,142.0
5394,B-5,345.708,167/1000,82,142.0
5395,F#3,345.958,217/1000,80,142.0
5396,F3,345.958,217/1000,80,142.0
5397,C#2,346.0,2/5,100,142.0
5398,C#3,346.0,0.5,100,142.0
5399,B1,346.0,0.5,100,142.0
5400,C#5,346.0,0.5,100,142.0
5401,G#4,346.0,0.5,100,142.0
5402,E5,346.0,0.5,100,142.0
5403,C#5,346.0,0.5,100,142.0
5404,G#4,346.0,0.5,100,142.0
5405,E5,346.0,0.5,100,142.0
5406,F#3,346.208,167/1000,60,142.0
5407,B-5,346.458,79/500,78,142.0
5408,F#3,346.458,79/500,78,142.0
5409,F3,346.458,79/500,78,142.0
5410,F#3,346.458,79/500,78,142.0
5411,C#2,346.5,2/5,100,142.0
5412,C#3,346.5,0.5,100,142.0
5413,B1,346.5,0.5,100,142.0
5414,F#3,346.708,167/1000,78,142.0
5415,B-5,346.708,167/1000,78,142.0
5416,F#3,346.958,26/125,56,142.0
5417,C#2,347.0,2/5,100,142.0
5418,C#3,347.0,0.5,100,142.0
5419,D2,347.0,1.0,115,142.0
5420,B4,347.0,0.5,100,142.0
5421,F#4,347.0,0.5,100,142.0
5422,E-5,347.0,0.5,100,142.0
5423,B4,347.0,0.5,100,142.0
5424,F#4,347.0,0.5,100,142.0
5425,E-5,347.0,0.5,100,142.0
5426,F#3,347.208,167/1000,60,142.0
5427,F#3,347.458,167/1000,86,142.0
5428,B-5,347.458,167/1000,86,142.0
5429,F3,347.458,167/1000,86,142.0
5430,C#2,347.5,2/5,100,142.0
5431,C#3,347.5,0.5,100,142.0
5432,B1,347.5,0.5,100,142.0
5433,B-5,347.708,0.125,78,142.0
5434,F#3,347.708,0.125,78,142.0
5435,F3,347.958,21/500,83,142.0
5436,F#3,347.958,21/500,83,142.0
5437,C#2,348.0,2/5,100,142.0
5438,C#3,348.0,0.5,100,142.0
5439,B1,348.0,0.5,100,142.0
5440,B4,348.0,1.5,100,142.0
5441,F#4,348.0,1.5,100,142.0
5442,E-5,348.0,1.5,100,142.0
5443,F3,348.0,23/250,83,142.0
5444,F#3,348.0,23/250,83,142.0
5445,B4,348.0,1.5,100,142.0
5446,F#4,348.0,1.5,100,142.0
5447,E-5,348.0,1.5,100,142.0
5448,F#3,348.208,167/1000,58,142.0
5449,F3,348.458,26/125,100,142.0
5450,F#3,348.467,3/40,78,142.0
5451,B-5,348.467,3/40,78,142.0
5452,C#2,348.5,2/5,100,142.0
5453,C#3,348.5,0.5,100,142.0
5454,B1,348.5,0.5,100,142.0
5455,F#3,348.708,133/1000,82,142.0
5456,B-5,348.708,133/1000,82,142.0
5457,F#3,348.958,167/1000,66,142.0
5458,C#2,349.0,2/5,100,142.0
5459,C#3,349.0,0.5,100,142.0
5460,D2,349.0,1.0,115,142.0
5461,F#3,349.208,7/40,63,142.0
5462,F#3,349.458,167/1000,86,142.0
5463,B-5,349.458,167/1000,86,142.0
5464,F3,349.458,167/1000,86,142.0
5465,C#2,349.5,2/5,100,142.0
5466,C#3,349.5,0.5,100,142.0
5467,B1,349.5,0.5,100,142.0
5468,C#5,349.5,0.5,100,142.0
5469,G#4,349.5,0.5,100,142.0
5470,E5,349.5,0.5,100,142.0
5471,C#5,349.5,0.5,100,142.0
5472,G#4,349.5,0.5,100,142.0
5473,E5,349.5,0.5,100,142.0
5474,F#3,349.708,167/1000,82,142.0
5475,B-5,349.708,167/1000,82,142.0
5476,F#3,349.958,26/125,80,142.0
5477,F3,349.958,26/125,80,142.0
5478,C#2,350.0,2/5,100,142.0
5479,C#3,350.0,0.5,100,142.0
5480,B1,350.0,0.5,100,142.0
5481,F#3,350.208,167/1000,60,142.0
5482,F3,350.458,0.25,100,142.0
5483,B-5,350.458,79/500,78,142.0
5484,F#3,350.458,79/500,78,142.0
5485,B1,350.5,2/5,100,142.0
5486,B2,350.5,0.5,100,142.0
5487,E-5,350.5,0.5,100,142.0
5488,B4,350.5,0.5,100,142.0
5489,F#5,350.5,0.5,100,142.0
5490,B1,350.5,0.5,114,142.0
5491,G3,350.5,0.5,114,142.0
5492,E-5,350.5,0.5,100,142.0
5493,B4,350.5,0.5,100,142.0
5494,F#5,350.5,0.5,100,142.0
5495,F#3,350.708,167/1000,78,142.0
5496,B-5,350.708,167/1000,78,142.0
5497,F#3,350.958,26/125,56,142.0
5498,B1,351.0,2/5,100,142.0
5499,B2,351.0,0.5,100,142.0
5500,D2,351.0,1.0,115,142.0
5501,F#3,351.208,167/1000,60,142.0
5502,F3,351.458,26/125,100,142.0
5503,B-5,351.458,167/1000,79,142.0
5504,F#3,351.458,167/1000,79,142.0
5505,A1,351.5,0.5,100,142.0
5506,A2,351.5,0.5,100,142.0
5507,E5,351.5,0.5,100,142.0
5508,C#5,351.5,0.5,100,142.0
5509,G#5,351.5,0.5,100,142.0
5510,B1,351.5,0.5,108,142.0
5511,C#3,351.5,0.5,108,142.0
5512,E5,351.5,0.5,100,142.0
5513,C#5,351.5,0.5,100,142.0
5514,G#5,351.5,0.5,100,142.0
5515,F#3,351.708,167/1000,78,142.0
5516,B-5,351.708,167/1000,78,142.0
5517,A1,352.0,0.5,100,142.0
5518,A2,352.0,0.5,100,142.0
5519,F#3,352.0,133/1000,66,142.0
5520,F#3,352.208,167/1000,58,142.0
5521,F3,352.467,26/125,100,142.0
5522,F#3,352.467,3/40,78,142.0
5523,B-5,352.467,3/40,78,142.0
5524,A1,352.5,2/5,100,142.0
5525,A2,352.5,0.5,100,142.0
5526,B1,352.5,0.5,100,142.0
5527,G#5,352.5,0.5,100,142.0
5528,C#5,352.5,0.5,100,142.0
5529,E5,352.5,0.5,100,142.0
5530,G#5,352.5,0.5,100,142.0
5531,C#5,352.5,0.5,100,142.0
5532,E5,352.5,0.5,100,142.0
5533,B-5,352.708,133/1000,82,142.0
5534,F#3,352.708,133/1000,82,142.0
5535,F#3,352.958,167/1000,66,142.0
5536,A1,353.0,2/5,100,142.0
5537,A2,353.0,0.5,100,142.0
5538,D2,353.0,1.0,115,142.0
5539,E-5,353.0,0.5,100,142.0
5540,B4,353.0,0.5,100,142.0
5541,F#5,353.0,0.5,100,142.0
5542,E-5,353.0,0.5,100,142.0
5543,B4,353.0,0.5,100,142.0
5544,F#5,353.0,0.5,100,142.0
5545,F#3,353.208,7/40,63,142.0
5546,F#3,353.458,167/1000,86,142.0
5547,B-5,353.458,167/1000,86,142.0
5548,F3,353.458,167/1000,86,142.0
5549,A1,353.5,2/5,100,142.0
5550,A2,353.5,0.5,100,142.0
5551,B1,353.5,0.5,100,142.0
5552,F#3,353.708,167/1000,82,142.0
5553,B-5,353.708,167/1000,82,142.0
5554,F#3,353.958,7/40,80,142.0
5555,F3,353.958,7/40,80,142.0
5556,A1,354.0,2/5,100,142.0
5557,A2,354.0,0.5,100,142.0
5558,B1,354.0,0.5,100,142.0
5559,C#5,354.0,0.5,100,142.0
5560,A4,354.0,0.5,100,142.0
5561,E5,354.0,0.5,100,142.0
5562,C#5,354.0,0.5,100,142.0
5563,A4,354.0,0.5,100,142.0
5564,E5,354.0,0.5,100,142.0
5565,F#3,354.208,167/1000,60,142.0
5566,F3,354.458,79/500,78,142.0
5567,F#3,354.458,79/500,78,142.0
5568,B-5,354.458,79/500,78,142.0
5569,F#3,354.458,79/500,78,142.0
5570,A1,354.5,2/5,100,142.0
5571,A2,354.5,0.5,100,142.0
5572,B1,354.5,0.5,100,142.0
5573,F#3,354.708,167/1000,78,142.0
5574,B-5,354.708,167/1000,78,142.0
5575,F#3,354.958,26/125,56,142.0
5576,A1,355.0,2/5,100,142.0
5577,A2,355.0,0.5,100,142.0
5578,D2,355.0,1.0,115,142.0
5579,B4,355.0,0.5,100,142.0
5580,F#4,355.0,0.5,100,142.0
5581,E-5,355.0,0.5,100,142.0
5582,B4,355.0,0.5,100,142.0
5583,F#4,355.0,0.5,100,142.0
5584,E-5,355.0,0.5,100,142.0
5585,F#3,355.208,167/1000,60,142.0
5586,B-5,355.458,167/1000,86,142.0
5587,F3,355.458,167/1000,86,142.0
5588,F#3,355.458,167/1000,86,142.0
5589,A1,355.5,2/5,100,142.0
5590,A2,355.5,0.5,100,142.0
5591,B1,355.5,0.5,100,142.0
5592,F#3,355.708,167/1000,78,142.0
5593,B-5,355.708,167/1000,78,142.0
5594,F3,355.958,21/500,83,142.0
5595,F#3,355.958,21/500,83,142.0
5596,A1,356.0,2/5,100,142.0
5597,A2,356.0,0.5,100,142.0
5598,B1,356.0,0.5,100,142.0
5599,B4,356.0,0.5,100,142.0
5600,F#4,356.0,0.5,100,142.0
5601,E-5,356.0,0.5,100,142.0
5602,F3,356.0,23/250,83,142.0
5603,F#3,356.0,23/250,83,142.0
5604,B4,356.0,0.5,100,142.0
5605,F#4,356.0,0.5,100,142.0
5606,E-5,356.0,0.5,100,142.0
5607,F#3,356.208,167/1000,58,142.0
5608,F3,356.467,1/5,100,142.0
5609,F#3,356.467,3/40,78,142.0
5610,B-5,356.467,3/40,78,142.0
5611,A1,356.5,2/5,100,142.0
5612,A2,356.5,0.5,100,142.0
5613,B1,356.5,0.5,100,142.0
5614,C#5,356.5,0.5,100,142.0
5615,G#4,356.5,0.5,100,142.0
5616,E5,356.5,0.5,100,142.0
5617,C#5,356.5,0.5,100,142.0
5618,G#4,356.5,0.5,100,142.0
5619,E5,356.5,0.5,100,142.0
5620,B-5,356.708,133/1000,82,142.0
5621,F#3,356.708,133/1000,82,142.0
5622,F#3,356.958,167/1000,66,142.0
5623,A1,357.0,2/5,100,142.0
5624,A2,357.0,0.5,100,142.0
5625,D2,357.0,1.0,115,142.0
5626,F#3,357.208,7/40,63,142.0
5627,F#3,357.458,117/1000,86,142.0
5628,B-5,357.458,117/1000,86,142.0
5629,F3,357.458,117/1000,86,142.0
5630,A1,357.5,2/5,100,142.0
5631,A2,357.5,0.5,100,142.0
5632,B1,357.5,0.5,100,142.0
5633,E5,357.5,0.5,100,142.0
5634,G#4,357.5,0.5,100,142.0
5635,C#5,357.5,0.5,100,142.0
5636,E5,357.5,0.5,100,142.0
5637,G#4,357.5,0.5,100,142.0
5638,C#5,357.5,0.5,100,142.0
5639,F#3,357.708,167/1000,82,142.0
5640,B-5,357.708,167/1000,82,142.0
5641,F#3,357.958,167/1000,80,142.0
5642,F3,357.958,167/1000,80,142.0
5643,A1,358.0,2/5,100,142.0
5644,A2,358.0,0.5,100,142.0
5645,B1,358.0,0.5,100,142.0
5646,F#3,358.208,167/1000,60,142.0
5647,F3,358.458,79/500,78,142.0
5648,F#3,358.458,79/500,78,142.0
5649,B-5,358.458,79/500,78,142.0
5650,F#3,358.458,79/500,78,142.0
5651,A1,358.5,2/5,100,142.0
5652,A2,358.5,0.5,100,142.0
5653,B1,358.5,0.5,100,142.0
5654,E-5,358.5,0.5,100,142.0
5655,B4,358.5,0.5,100,142.0
5656,F#4,358.5,0.5,100,142.0
5657,E-5,358.5,0.5,100,142.0
5658,B4,358.5,0.5,100,142.0
5659,F#4,358.5,0.5,100,142.0
5660,F#3,358.708,167/1000,78,142.0
5661,B-5,358.708,167/1000,78,142.0
5662,F#3,358.958,26/125,56,142.0
5663,A1,359.0,2/5,100,142.0
5664,A2,359.0,0.5,100,142.0
5665,D2,359.0,1.0,115,142.0
5666,F#3,359.208,167/1000,60,142.0
5667,F3,359.458,271/500,100,142.0
5668,B-5,359.458,167/1000,79,142.0
5669,F#3,359.458,167/1000,79,142.0
5670,G#1,359.5,0.5,100,142.0
5671,G#2,359.5,0.5,100,142.0
5672,E-4,359.5,0.5,100,142.0
5673,C#4,359.5,0.5,100,142.0
5674,G#4,359.5,0.5,100,142.0
5675,B1,359.5,0.5,108,142.0
5676,A3,359.5,0.5,108,142.0
5677,E-4,359.5,0.5,100,142.0
5678,C#4,359.5,0.5,100,142.0
5679,G#4,359.5,0.5,100,142.0
5680,F#3,359.708,167/1000,78,142.0
5681,B-5,359.708,167/1000,78,142.0
5682,G#1,360.0,0.5,100,142.0
5683,G#2,360.0,0.5,100,142.0
5684,F#3,360.0,133/1000,66,142.0
5685,F3,360.0,37/40,100,142.0
5686,E-4,360.0,2.0,100,142.0
5687,C#4,360.0,2.0,100,142.0
5688,G#4,360.0,2.0,100,142.0
5689,E-4,360.0,2.0,100,142.0
5690,C#4,360.0,2.0,100,142.0
5691,G#4,360.0,2.0,100,142.0
5692,F#3,360.208,167/1000,58,142.0
5693,F#3,360.467,3/40,78,142.0
5694,B-5,360.467,3/40,78,142.0
5695,G#1,360.5,2/5,100,142.0
5696,G#2,360.5,0.5,100,142.0
5697,B1,360.5,0.5,100,142.0
5698,F#3,360.708,133/1000,82,142.0
5699,B-5,360.708,133/1000,82,142.0
5700,F#3,360.958,167/1000,66,142.0
5701,G#1,361.0,2/5,100,142.0
5702,G#2,361.0,0.5,100,142.0
5703,D2,361.0,1.0,115,142.0
5704,F#3,361.208,7/40,63,142.0
5705,F#3,361.458,167/1000,86,142.0
5706,B-5,361.458,167/1000,86,142.0
5707,F3,361.458,167/1000,86,142.0
5708,G#1,361.5,2/5,100,142.0
5709,G#2,361.5,0.5,100,142.0
5710,B1,361.5,0.5,100,142.0
5711,F#3,361.708,167/1000,82,142.0
5712,B-5,361.708,167/1000,82,142.0
5713,F3,361.958,521/500,100,142.0
5714,F#3,361.958,7/40,61,142.0
5715,G#1,362.0,2/5,100,142.0
5716,G#2,362.0,0.5,100,142.0
5717,B1,362.0,0.5,100,142.0
5718,F#3,362.208,167/1000,60,142.0
5719,B-5,362.458,79/500,78,142.0
5720,F#3,362.458,79/500,78,142.0
5721,G#1,362.5,2/5,100,142.0
5722,G#2,362.5,0.5,100,142.0
5723,B1,362.5,0.5,100,142.0
5724,F#3,362.708,167/1000,78,142.0
5725,B-5,362.708,167/1000,78,142.0
5726,F#3,362.958,26/125,56,142.0
5727,G#1,363.0,2/5,100,142.0
5728,G#2,363.0,0.5,100,142.0
5729,D2,363.0,1.0,115,142.0
5730,F#3,363.208,167/1000,60,142.0
5731,F#3,363.458,167/1000,86,142.0
5732,B-5,363.458,167/1000,86,142.0
5733,F3,363.458,167/1000,86,142.0
5734,G#1,363.5,2/5,100,142.0
5735,G#2,363.5,0.5,100,142.0
5736,B1,363.5,0.5,100,142.0
5737,F#3,363.708,167/1000,78,142.0
5738,B-5,363.708,167/1000,78,142.0
5739,F3,363.958,21/500,100,142.0
5740,G#1,364.0,3.5,100,142.0
5741,G#2,364.0,4.0,100,142.0
5742,F3,364.0,479/500,100,142.0
5743,B1,364.0,0.5,83,142.0
5744,C#3,364.0,0.5,83,142.0
5745,F#3,364.0,133/1000,66,142.0
5746,F#3,364.0,133/1000,66,142.0
5747,F#3,364.208,167/1000,58,142.0
5748,F#3,364.467,117/1000,57,142.0
5749,B1,364.5,0.5,100,142.0
5750,F#3,364.708,133/1000,64,142.0
5751,F#3,364.958,167/1000,66,142.0
5752,D2,365.0,1.0,115,142.0
5753,F#3,365.208,7/40,63,142.0
5754,F#3,365.458,167/1000,57,142.0
5755,F#3,365.708,133/1000,63,142.0
5756,F#3,365.958,7/40,61,142.0
5757,B1,366.0,1.0,100,142.0
5758,D3,366.0,0.5,115,142.0
5759,F#3,366.208,167/1000,60,142.0
5760,F#3,366.467,79/500,56,142.0
5761,A2,366.5,0.25,115,142.0
5762,F#3,366.708,167/1000,56,142.0
5763,A2,366.75,0.25,115,142.0
5764,F#3,366.958,26/125,56,142.0
5765,B1,367.0,1.0,100,142.0
5766,F2,367.0,0.5,115,142.0
5767,F#3,367.208,167/1000,60,142.0
5768,F#3,367.458,167/1000,58,142.0
5769,G#2,367.5,0.5,100,142.0
5770,F#3,367.708,0.125,55,142.0
5771,C#3,367.967,33/1000,112,142.0
5772,C#3,368.0,4.0,112,142.0
5773,B3,368.0,0.25,80,142.0
5774,G#4,368.0,4.0,100,142.0
5775,E4,368.0,4.0,100,142.0
5776,B3,368.0,4.0,100,142.0
5777,G#4,368.0,4.0,100,142.0
5778,E4,368.0,4.0,100,142.0
5779,B3,368.0,4.0,100,142.0
5780,A5,369.0,0.25,100,142.0
5781,G#4,369.5,0.5,100,142.0
5782,E-3,369.5,0.25,80,142.0
5783,F#5,370.0,1.5,100,142.0
5784,C#2,370.0,2.0,100,142.0
5785,A5,370.0,0.25,90,142.0
5786,B3,370.0,0.25,90,142.0
5787,E5,371.5,0.25,100,142.0
5788,E-3,371.5,0.25,81,142.0
5789,E-5,371.75,0.25,100,142.0
5790,E5,372.0,1.5,100,142.0
5791,C#3,372.0,4.0,112,142.0
5792,B3,372.0,0.25,82,142.0
5793,C#2,372.0,4.0,100,142.0
5794,E-5,373.5,0.25,100,142.0
5795,C6,373.5,0.25,91,142.0
5796,B3,373.5,0.25,91,142.0
5797,C#5,373.75,0.25,100,142.0
5798,E-5,374.0,1.5,100,142.0
5799,C6,374.0,0.25,127,142.0
5800,B3,374.5,0.25,83,142.0
5801,C#5,375.5,0.25,100,142.0
5802,A5,375.5,0.25,80,142.0
5803,E-3,375.5,0.25,80,142.0
5804,B4,375.75,0.25,100,142.0
5805,C#5,376.0,1417/1000,116,142.0
5806,C#3,376.0,4.0,112,142.0
5807,A5,376.0,0.5,100,142.0
5808,B3,376.0,0.25,84,142.0
5809,C#2,376.0,4.0,100,142.0
5810,G#4,376.0,4.0,100,142.0
5811,E4,376.0,4.0,100,142.0
5812,B3,376.0,4.0,100,142.0
5813,G#4,376.0,4.0,100,142.0
5814,E4,376.0,4.0,100,142.0
5815,B3,376.0,4.0,100,142.0
5816,B4,377.5,177/250,89,142.0
5817,E-3,377.5,0.25,85,142.0
5818,G#4,378.0,2.0,85,142.0
5819,B3,378.0,0.25,85,142.0
5820,E-3,379.5,0.25,86,142.0
5821,B4,379.5,0.5,100,142.0
5822,F#5,379.5,0.5,100,142.0
5823,G#4,380.0,324/125,85,142.0
5824,C#3,380.0,3.375,112,142.0
5825,B3,380.0,0.25,86,142.0
5826,C#2,380.0,4.0,100,142.0
5827,F#4,380.0,4.0,100,142.0
5828,E-4,380.0,4.0,100,142.0
5829,B3,380.0,4.0,100,142.0
5830,F#4,380.0,4.0,100,142.0
5831,E-4,380.0,4.0,100,142.0
5832,B3,380.0,4.0,100,142.0
5833,B4,380.0,0.5,100,142.0
5834,F#5,380.0,0.5,100,142.0
5835,G#4,380.5,1.0,100,142.0
5836,E-5,380.5,1.0,100,142.0
5837,B3,381.5,0.25,87,142.0
5838,D3,381.5,0.5,100,142.0
5839,E-4,381.5,1.0,100,142.0
5840,B4,381.5,1.0,100,142.0
5841,C3,382.0,0.5,100,142.0
5842,B3,382.5,0.25,87,142.0
5843,A2,382.5,0.5,100,142.0
5844,B3,382.5,1.5,100,142.0
5845,G#4,382.5,1.5,100,142.0
5846,F2,383.0,0.5,100,142.0
5847,E-3,383.5,0.25,88,142.0
5848,C3,383.967,33/1000,110,142.0
5849,C3,384.0,4.0,110,142.0
5850,C#3,384.0,1.0,100,142.0
5851,B3,384.0,0.25,88,142.0
5852,A5,385.0,0.25,100,142.0
5853,B-4,385.5,0.5,100,142.0
5854,C6,385.5,0.25,94,142.0
5855,E-3,385.5,0.25,94,142.0
5856,F5,386.0,1.0,100,142.0
5857,C2,386.0,2.0,100,142.0
5858,A5,386.0,0.25,96,142.0
5859,C6,386.0,0.25,96,142.0
5860,B3,386.0,0.25,96,142.0
5861,G5,387.0,0.5,100,142.0
5862,F5,387.5,0.5,100,142.0
5863,E-3,387.5,0.25,90,142.0
5864,F5,388.0,0.5,100,142.0
5865,C3,388.0,4.0,110,142.0
5866,B3,388.0,0.25,90,142.0
5867,C2,388.0,4.0,100,142.0
5868,F#4,388.0,4.0,100,142.0
5869,E-4,388.0,4.0,100,142.0
5870,B3,388.0,4.0,100,142.0
5871,F#4,388.0,4.0,100,142.0
5872,E-4,388.0,4.0,100,142.0
5873,B3,388.0,4.0,100,142.0
5874,E-5,388.5,0.5,100,142.0
5875,D5,389.0,0.5,100,142.0
5876,E-5,389.5,0.5,100,142.0
5877,B3,389.5,0.25,91,142.0
5878,D5,390.0,667/1000,100,142.0
5879,B3,390.5,0.25,92,142.0
5880,B-4,390.667,667/1000,100,142.0
5881,G4,391.333,667/1000,100,142.0
5882,A5,391.5,0.25,82,142.0
5883,E-3,391.5,0.25,82,142.0
5884,F4,392.0,1.5,100,142.0
5885,C3,392.0,4.0,110,142.0
5886,C2,392.0,4.0,100,142.0
5887,G4,392.0,4.0,100,142.0
5888,E-4,392.0,4.0,100,142.0
5889,D4,392.0,4.0,100,142.0
5890,G4,392.0,4.0,100,142.0
5891,E-4,392.0,4.0,100,142.0
5892,D4,392.0,4.0,100,142.0
5893,A5,392.0,0.25,96,142.0
5894,B3,392.0,0.25,96,142.0
5895,B-4,393.5,29/20,100,142.0
5896,E-3,393.5,0.25,93,142.0
5897,B3,394.0,0.25,94,142.0
5898,F#4,394.958,167/1000,102,142.0
5899,G4,395.125,0.875,100,142.0
5900,E-3,395.5,0.25,95,142.0
5901,G4,396.0,349/125,100,142.0
5902,C3,396.0,833/1000,110,142.0
5903,B3,396.0,0.25,95,142.0
5904,D5,396.0,1.0,100,142.0
5905,C2,396.0,4.0,100,142.0
5906,B-4,397.0,3.0,100,142.0
5907,D3,397.5,0.5,100,142.0
5908,C6,397.5,0.25,98,142.0
5909,B3,397.5,0.25,98,142.0
5910,G3,397.958,251/125,80,142.0
5911,C6,398.0,0.25,100,142.0
5912,C3,398.0,0.5,100,142.0
5913,B3,398.5,0.25,96,142.0
5914,A2,398.5,0.5,100,142.0
5915,F2,399.0,0.5,100,142.0
5916,E-3,399.5,0.25,97,142.0
5917,B2,399.967,33/1000,110,142.0
5918,B2,400.0,4.0,110,142.0
5919,B3,400.0,0.25,97,142.0
5920,G4,400.0,4.0,100,142.0
5921,E-4,400.0,4.0,100,142.0
5922,D4,400.0,4.0,100,142.0
5923,G4,400.0,4.0,100,142.0
5924,E-4,400.0,4.0,100,142.0
5925,D4,400.0,4.0,100,142.0
5926,A5,401.0,0.25,100,142.0
5927,C#4,401.5,0.25,100,142.0
5928,E-3,401.5,0.25,98,142.0
5929,D4,401.75,0.25,100,142.0
5930,C#4,402.0,2.0,100,142.0
5931,B1,402.0,2.0,100,142.0
5932,A5,402.0,0.25,99,142.0
5933,B3,402.0,0.25,99,142.0
5934,E-3,403.5,0.25,99,142.0
5935,C#4,404.0,1.5,100,142.0
5936,B2,404.0,4.0,110,142.0
5937,B3,404.0,0.25,99,142.0
5938,B1,404.0,4.0,100,142.0
5939,B-3,404.0,4.0,100,142.0
5940,F4,404.0,4.0,100,142.0
5941,D4,404.0,4.0,100,142.0
5942,B-3,404.0,4.0,100,142.0
5943,F4,404.0,4.0,100,142.0
5944,D4,404.0,4.0,100,142.0
5945,C#4,405.5,0.5,100,142.0
5946,B3,405.5,0.25,100,142.0
5947,F#4,406.0,667/1000,100,142.0
5948,B3,406.5,0.25,101,142.0
5949,A4,406.667,667/1000,100,142.0
5950,C#5,407.333,667/1000,100,142.0
5951,A5,407.5,0.25,87,142.0
5952,E-3,407.5,0.25,87,142.0
5953,E5,408.0,1.5,100,142.0
5954,B2,408.0,4.0,110,142.0
5955,B1,408.0,4.0,100,142.0
5956,A5,408.0,0.25,100,142.0
5957,B3,408.0,0.25,100,142.0
5958,D5,409.5,0.25,100,142.0
5959,E-3,409.5,0.25,102,142.0
5960,C#5,409.75,0.25,100,142.0
5961,D5,410.0,1.0,100,142.0
5962,B3,410.0,0.25,102,142.0
5963,C#5,411.0,0.5,100,142.0
5964,F#4,411.5,0.5,100,142.0
5965,E-3,411.5,0.25,103,142.0
5966,F#4,412.0,3.0,100,142.0
5967,B2,412.0,1629/500,110,142.0
5968,B3,412.0,0.25,104,142.0
5969,B1,412.0,4.0,100,142.0
5970,B-3,412.0,4.0,100,142.0
5971,F4,412.0,4.0,100,142.0
5972,D4,412.0,4.0,100,142.0
5973,B-3,412.0,4.0,100,142.0
5974,F4,412.0,4.0,100,142.0
5975,D4,412.0,4.0,100,142.0
5976,D3,413.5,0.5,100,142.0
5977,C6,413.5,0.25,102,142.0
5978,B3,413.5,0.25,102,142.0
5979,C6,414.0,0.25,100,142.0
5980,C3,414.0,0.5,100,142.0
5981,B3,414.5,0.25,105,142.0
5982,A2,414.5,0.5,100,142.0
5983,F2,415.0,0.5,100,142.0
5984,E-3,415.5,0.25,105,142.0
5985,B-2,415.958,21/500,110,142.0
5986,B-2,416.0,4.0,110,142.0
5987,C#3,416.0,1.0,100,142.0
5988,B3,416.0,0.25,106,142.0
5989,A3,416.0,4.0,100,142.0
5990,D4,416.0,4.0,100,142.0
5991,F#4,416.0,4.0,100,142.0
5992,A3,416.0,4.0,100,142.0
5993,D4,416.0,4.0,100,142.0
5994,F#4,416.0,4.0,100,142.0
5995,A5,417.0,0.25,100,142.0
5996,E-3,417.5,0.25,107,142.0
5997,B-1,418.0,2.0,100,142.0
5998,A5,418.0,0.25,104,142.0
5999,B3,418.0,0.25,104,142.0
6000,F3,419.25,0.25,100,142.0
6001,B-3,419.5,0.25,100,142.0
6002,E-3,419.5,0.25,108,142.0
6003,E-4,419.75,0.25,100,142.0
6004,C4,420.0,0.25,100,142.0
6005,B-2,420.0,4.0,110,142.0
6006,B3,420.0,0.25,108,142.0
6007,B-1,420.0,4.0,100,142.0
6008,C#4,420.25,0.25,100,142.0
6009,E-4,420.5,0.25,100,142.0
6010,F4,420.75,0.25,100,142.0
6011,G#4,421.0,0.25,100,142.0
6012,B-4,421.25,0.25,100,142.0
6013,C5,421.5,0.25,100,142.0
6014,B3,421.5,0.25,109,142.0
6015,E-5,421.75,0.25,100,142.0
6016,C5,422.0,0.25,100,142.0
6017,C#5,422.25,0.25,100,142.0
6018,E-5,422.5,0.25,100,142.0
6019,B3,422.5,0.25,109,142.0
6020,F5,422.75,0.25,100,142.0
6021,G#5,423.0,0.25,100,142.0
6022,B-5,423.25,0.25,100,142.0
6023,C6,423.5,0.25,100,142.0
6024,A5,423.5,0.25,90,142.0
6025,E-3,423.5,0.25,90,142.0
6026,E-6,423.75,0.25,100,142.0
6027,C6,424.0,333/1000,100,142.0
6028,B-2,424.0,4.0,110,142.0
6029,B-1,424.0,4.0,100,142.0
6030,A3,424.0,4.0,100,142.0
6031,D4,424.0,4.0,100,142.0
6032,F#4,424.0,4.0,100,142.0
6033,A3,424.0,4.0,100,142.0
6034,D4,424.0,4.0,100,142.0
6035,F#4,424.0,4.0,100,142.0
6036,A5,424.0,0.25,105,142.0
6037,B3,424.0,0.25,105,142.0
6038,G#4,424.0,1.5,100,142.0
6039,E-5,424.0,1.5,100,142.0
6040,G#5,424.333,333/1000,100,142.0
6041,F5,424.667,333/1000,100,142.0
6042,C6,425.0,333/1000,100,142.0
6043,G#5,425.333,333/1000,100,142.0
6044,E-3,425.5,0.25,111,142.0
6045,E-4,425.5,2.5,100,142.0
6046,C5,425.5,2.5,100,142.0
6047,F5,425.667,333/1000,100,142.0
6048,C#5,426.0,333/1000,100,142.0
6049,B3,426.0,0.25,111,142.0
6050,C5,426.333,333/1000,100,142.0
6051,E-5,426.667,333/1000,100,142.0
6052,C5,427.0,333/1000,100,142.0
6053,G#4,427.333,333/1000,100,142.0
6054,E-3,427.5,0.25,112,142.0
6055,F4,427.667,333/1000,100,142.0
6056,E-4,428.0,0.25,100,142.0
6057,B-2,428.0,1979/500,110,142.0
6058,B3,428.0,0.25,112,142.0
6059,B-1,428.0,4.0,100,142.0
6060,A3,428.0,4.0,100,142.0
6061,C#4,428.0,4.0,100,142.0
6062,E4,428.0,4.0,100,142.0
6063,A4,428.0,4.0,100,142.0
6064,A3,428.0,4.0,100,142.0
6065,C#4,428.0,4.0,100,142.0
6066,E4,428.0,4.0,100,142.0
6067,A4,428.0,4.0,100,142.0
6068,C#4,428.25,0.25,100,142.0
6069,C4,428.5,0.25,100,142.0
6070,B-3,428.75,1.75,100,142.0
6071,B3,429.5,0.25,113,142.0
6072,B3,430.5,0.25,107,142.0
6073,C3,430.5,0.25,107,142.0
6074,A2,430.75,0.25,100,142.0
6075,F2,431.0,0.25,100,142.0
6076,E-3,431.5,0.25,114,142.0
6077,F#3,431.967,33/1000,100,142.0
6078,C#2,432.0,1.0,100,142.0
6079,B-4,432.0,1/10,71,142.0
6080,F#3,432.0,229/500,100,142.0
6081,E-4,432.0,4.0,100,142.0
6082,C5,432.0,4.0,100,142.0
6083,G#3,432.458,2.5,100,142.0
6084,B-5,432.5,0.5,100,142.0
6085,C#4,432.5,0.5,115,142.0
6086,C#4,432.5,0.5,115,142.0
6087,B-4,432.542,133/1000,74,142.0
6088,B-4,432.8,79/500,78,142.0
6089,C#2,433.0,1.0,100,142.0
6090,B-4,433.0,0.125,74,142.0
6091,B-5,433.0,0.5,100,142.0
6092,B3,433.0,0.5,115,142.0
6093,B3,433.0,0.5,115,142.0
6094,B-5,433.5,0.5,100,142.0
6095,G#3,433.5,0.5,115,142.0
6096,G#3,433.5,0.5,115,142.0
6097,B-4,433.542,133/1000,67,142.0
6098,B-4,433.8,79/500,78,142.0
6099,C#2,434.0,1.0,100,142.0
6100,B3,434.0,0.5,115,142.0
6101,B3,434.0,0.5,115,142.0
6102,B-4,434.05,117/1000,69,142.0
6103,C#2,434.5,0.5,100,142.0
6104,C#4,434.5,0.5,115,142.0
6105,C#4,434.5,0.5,115,142.0
6106,B1,434.5,0.5,100,142.0
6107,B-5,434.5,0.5,100,142.0
6108,B-4,434.55,83/1000,74,142.0
6109,B-4,434.75,167/1000,78,142.0
6110,E-4,434.958,0.5,100,142.0
6111,B1,435.0,0.5,100,142.0
6112,B1,435.0,0.5,100,142.0
6113,C#2,435.0,1.0,100,142.0
6114,B-4,435.008,117/1000,78,142.0
6115,C#4,435.458,271/500,100,142.0
6116,A1,435.5,0.5,100,142.0
6117,C#3,435.5,0.25,115,142.0
6118,C#3,435.5,0.25,115,142.0
6119,B1,435.5,0.5,100,142.0
6120,B-5,435.5,0.5,100,142.0
6121,B-4,435.55,117/1000,85,142.0
6122,C#3,435.75,0.25,115,142.0
6123,C#3,435.75,0.25,115,142.0
6124,B-4,435.8,167/1000,78,142.0
6125,C#2,436.0,1.0,100,142.0
6126,B-4,436.0,1/10,71,142.0
6127,C#4,436.0,1479/500,100,142.0
6128,A3,436.0,4.0,100,142.0
6129,C#4,436.0,4.0,100,142.0
6130,E4,436.0,4.0,100,142.0
6131,A4,436.0,4.0,100,142.0
6132,E3,436.0,0.5,115,142.0
6133,E3,436.0,0.5,115,142.0
6134,A3,436.0,4.0,100,142.0
6135,C#4,436.0,4.0,100,142.0
6136,E4,436.0,4.0,100,142.0
6137,A4,436.0,4.0,100,142.0
6138,B-5,436.5,0.5,100,142.0
6139,F#3,436.5,0.5,115,142.0
6140,F#3,436.5,0.5,115,142.0
6141,B-4,436.542,133/1000,74,142.0
6142,B-4,436.8,79/500,78,142.0
6143,C#2,437.0,1.0,100,142.0
6144,B-4,437.0,0.125,74,142.0
6145,B-5,437.0,0.5,100,142.0
6146,G#3,437.0,0.5,115,142.0
6147,G#3,437.0,0.5,115,142.0
6148,B-5,437.5,0.5,100,142.0
6149,E3,437.5,2.5,115,142.0
6150,E3,437.5,2.5,115,142.0
6151,B-4,437.542,133/1000,67,142.0
6152,B-4,437.8,79/500,78,142.0
6153,C#2,438.0,1.0,100,142.0
6154,B-4,438.05,117/1000,69,142.0
6155,A1,438.5,0.5,100,142.0
6156,B1,438.5,0.5,100,142.0
6157,B-5,438.5,0.5,100,142.0
6158,B-4,438.55,83/1000,74,142.0
6159,B-4,438.75,167/1000,78,142.0
6160,B3,438.958,127/250,100,142.0
6161,G#1,439.0,0.5,100,142.0
6162,B1,439.0,0.5,100,142.0
6163,C#2,439.0,1.0,100,142.0
6164,B-4,439.008,117/1000,78,142.0
6165,A3,439.467,533/1000,100,142.0
6166,F#1,439.5,0.5,100,142.0
6167,B1,439.5,0.5,100,142.0
6168,B-5,439.5,0.5,100,142.0
6169,B-4,439.55,117/1000,85,142.0
6170,B-4,439.8,167/1000,78,142.0
6171,C#2,440.0,1.0,100,142.0
6172,B-4,440.0,1/10,71,142.0
6173,A3,440.0,979/500,100,142.0
6174,C4,440.0,4.0,100,142.0
6175,C#4,440.0,4.0,100,142.0
6176,F4,440.0,4.0,100,142.0
6177,C#3,440.0,0.25,115,142.0
6178,C#3,440.0,0.25,115,142.0
6179,C4,440.0,4.0,100,142.0
6180,C#4,440.0,4.0,100,142.0
6181,F4,440.0,4.0,100,142.0
6182,C#3,440.25,0.25,115,142.0
6183,C#3,440.25,0.25,115,142.0
6184,B-5,440.5,0.5,100,142.0
6185,G#3,440.5,0.5,115,142.0
6186,G#3,440.5,0.5,115,142.0
6187,B-4,440.542,133/1000,74,142.0
6188,B-4,440.8,79/500,78,142.0
6189,C#2,441.0,1.0,100,142.0
6190,B-4,441.0,0.125,74,142.0
6191,B-5,441.0,0.5,100,142.0
6192,F#3,441.0,0.5,115,142.0
6193,F#3,441.0,0.5,115,142.0
6194,B-5,441.5,0.5,100,142.0
6195,E3,441.5,0.5,115,142.0
6196,E3,441.5,0.5,115,142.0
6197,B-4,441.542,133/1000,67,142.0
6198,B-4,441.8,79/500,78,142.0
6199,G#4,441.958,1.5,100,142.0
6200,C#2,442.0,1.0,100,142.0
6201,F#3,442.0,0.5,115,142.0
6202,F#3,442.0,0.5,115,142.0
6203,B-4,442.05,117/1000,69,142.0
6204,B-5,442.5,0.5,100,142.0
6205,G#3,442.5,0.5,115,142.0
6206,G#3,442.5,0.5,115,142.0
6207,B-4,442.55,83/1000,74,142.0
6208,B-4,442.75,167/1000,78,142.0
6209,F#1,443.0,0.5,100,142.0
6210,B1,443.0,0.5,100,142.0
6211,C#2,443.0,1.0,100,142.0
6212,B-4,443.008,117/1000,78,142.0
6213,F#4,443.458,271/500,100,142.0
6214,G#1,443.5,0.5,100,142.0
6215,G#3,443.5,0.25,115,142.0
6216,G#3,443.5,0.25,115,142.0
6217,B1,443.5,0.5,100,142.0
6218,B-5,443.5,0.5,100,142.0
6219,B-4,443.55,117/1000,85,142.0
6220,G#3,443.75,0.25,115,142.0
6221,G#3,443.75,0.25,115,142.0
6222,B-4,443.8,167/1000,78,142.0
6223,C#2,444.0,1.0,100,142.0
6224,B-4,444.0,1/10,71,142.0
6225,F#4,444.0,1467/1000,100,142.0
6226,B3,444.0,0.5,115,142.0
6227,B3,444.0,0.5,115,142.0
6228,B-5,444.5,0.5,100,142.0
6229,C#4,444.5,0.5,115,142.0
6230,C#4,444.5,0.5,115,142.0
6231,B-4,444.542,133/1000,74,142.0
6232,B-4,444.8,79/500,78,142.0
6233,C#2,445.0,1.0,100,142.0
6234,B-4,445.0,0.125,74,142.0
6235,B-5,445.0,0.5,100,142.0
6236,E-4,445.0,0.5,115,142.0
6237,E-4,445.0,0.5,115,142.0
6238,B-5,445.5,0.5,100,142.0
6239,C#4,445.5,1.0,115,142.0
6240,C#4,445.5,1.0,115,142.0
6241,B-4,445.542,133/1000,67,142.0
6242,B-4,445.8,79/500,78,142.0
6243,C#2,446.0,1.0,100,142.0
6244,B-4,446.05,117/1000,69,142.0
6245,G#1,446.5,0.5,100,142.0
6246,B3,446.5,0.5,115,142.0
6247,B3,446.5,0.5,115,142.0
6248,B1,446.5,0.5,100,142.0
6249,B-5,446.5,0.5,100,142.0
6250,B-4,446.55,83/1000,74,142.0
6251,B4,446.625,27/40,100,142.0
6252,B-4,446.75,167/1000,78,142.0
6253,B1,447.0,0.5,100,142.0
6254,B1,447.0,0.5,100,142.0
6255,C#2,447.0,1.0,100,142.0
6256,F#3,447.0,0.5,115,142.0
6257,F#3,447.0,0.5,115,142.0
6258,B-4,447.008,117/1000,78,142.0
6259,A4,447.3,667/1000,100,142.0
6260,C#2,447.5,0.5,100,142.0
6261,E3,447.5,0.5,115,142.0
6262,E3,447.5,0.5,115,142.0
6263,B1,447.5,0.5,100,142.0
6264,B-5,447.5,0.5,100,142.0
6265,B-4,447.55,117/1000,85,142.0
6266,B-4,447.8,167/1000,78,142.0
6267,G#4,447.967,33/1000,100,142.0
6268,C#2,448.0,1.0,100,142.0
6269,B-4,448.0,1/10,71,142.0
6270,G#4,448.0,1479/500,100,142.0
6271,C4,448.0,4.0,100,142.0
6272,C#4,448.0,4.0,100,142.0
6273,F4,448.0,4.0,100,142.0
6274,C4,448.0,4.0,100,142.0
6275,C#4,448.0,4.0,100,142.0
6276,F4,448.0,4.0,100,142.0
6277,B-5,448.5,0.5,100,142.0
6278,C#4,448.5,0.5,115,142.0
6279,C#4,448.5,0.5,115,142.0
6280,B-4,448.542,133/1000,74,142.0
6281,B-4,448.8,79/500,78,142.0
6282,C#2,449.0,1.0,100,142.0
6283,B-4,449.0,0.125,74,142.0
6284,B-5,449.0,0.5,100,142.0
6285,B3,449.0,0.5,115,142.0
6286,B3,449.0,0.5,115,142.0
6287,B-5,449.5,0.5,100,142.0
6288,G#3,449.5,0.5,115,142.0
6289,G#3,449.5,0.5,115,142.0
6290,B-4,449.542,133/1000,67,142.0
6291,B-4,449.8,79/500,78,142.0
6292,C#2,450.0,1.0,100,142.0
6293,B3,450.0,0.5,115,142.0
6294,B3,450.0,0.5,115,142.0
6295,B-4,450.05,117/1000,69,142.0
6296,C#2,450.5,0.5,100,142.0
6297,C#4,450.5,0.5,115,142.0
6298,C#4,450.5,0.5,115,142.0
6299,B1,450.5,0.5,100,142.0
6300,B-5,450.5,0.5,100,142.0
6301,B-4,450.55,83/1000,74,142.0
6302,B-4,450.75,167/1000,78,142.0
6303,F#4,450.958,0.5,100,142.0
6304,B1,451.0,0.5,100,142.0
6305,B1,451.0,0.5,100,142.0
6306,C#2,451.0,1.0,100,142.0
6307,B-4,451.008,117/1000,78,142.0
6308,E4,451.458,271/500,100,142.0
6309,A1,451.5,0.5,100,142.0
6310,C#3,451.5,0.25,115,142.0
6311,C#3,451.5,0.25,115,142.0
6312,B1,451.5,0.5,100,142.0
6313,B-5,451.5,0.5,100,142.0
6314,B-4,451.55,117/1000,85,142.0
6315,C#3,451.75,0.25,115,142.0
6316,C#3,451.75,0.25,115,142.0
6317,B-4,451.8,167/1000,78,142.0
6318,C#2,452.0,1.0,100,142.0
6319,B-4,452.0,1/10,71,142.0
6320,E4,452.0,479/500,100,142.0
6321,E-4,452.0,4.0,100,142.0
6322,C5,452.0,4.0,100,142.0
6323,E3,452.0,0.5,115,142.0
6324,E3,452.0,0.5,115,142.0
6325,E-4,452.0,4.0,100,142.0
6326,C5,452.0,4.0,100,142.0
6327,B-5,452.5,0.5,100,142.0
6328,F#3,452.5,0.5,115,142.0
6329,F#3,452.5,0.5,115,142.0
6330,B-4,452.542,133/1000,74,142.0
6331,B-4,452.8,79/500,78,142.0
6332,F#4,452.958,0.5,100,142.0
6333,C#2,453.0,1.0,100,142.0
6334,B-4,453.0,0.125,74,142.0
6335,B-5,453.0,0.5,100,142.0
6336,G#3,453.0,0.5,115,142.0
6337,G#3,453.0,0.5,115,142.0
6338,E-4,453.467,1.0,100,142.0
6339,B-5,453.5,0.5,100,142.0
6340,E3,453.5,2.5,115,142.0
6341,E3,453.5,2.5,115,142.0
6342,B-4,453.542,133/1000,67,142.0
6343,B-4,453.8,79/500,78,142.0
6344,C#2,454.0,1.0,100,142.0
6345,B-4,454.05,117/1000,69,142.0
6346,E4,454.467,123/250,100,142.0
6347,A1,454.5,0.5,100,142.0
6348,B1,454.5,0.5,100,142.0
6349,B-5,454.5,0.5,100,142.0
6350,B-4,454.55,83/1000,74,142.0
6351,B-4,454.75,167/1000,78,142.0
6352,E-4,454.958,127/250,100,142.0
6353,G#1,455.0,0.5,100,142.0
6354,B1,455.0,0.5,100,142.0
6355,C#2,455.0,1.0,100,142.0
6356,B-4,455.008,117/1000,78,142.0
6357,C#4,455.467,533/1000,100,142.0
6358,F#1,455.5,0.5,100,142.0
6359,B1,455.5,0.5,100,142.0
6360,B-5,455.5,0.5,100,142.0
6361,B-4,455.55,117/1000,85,142.0
6362,B-4,455.8,167/1000,78,142.0
6363,C#2,456.0,1.0,100,142.0
6364,B-4,456.0,1/10,71,142.0
6365,C#4,456.0,1979/500,100,142.0
6366,C#3,456.0,0.25,115,142.0
6367,C#3,456.0,0.25,115,142.0
6368,C#3,456.25,0.25,115,142.0
6369,C#3,456.25,0.25,115,142.0
6370,B-5,456.5,0.5,100,142.0
6371,G#3,456.5,0.5,115,142.0
6372,G#3,456.5,0.5,115,142.0
6373,B-4,456.542,133/1000,74,142.0
6374,B-4,456.8,79/500,78,142.0
6375,C#2,457.0,1.0,100,142.0
6376,B-4,457.0,0.125,74,142.0
6377,B-5,457.0,0.5,100,142.0
6378,F#3,457.0,0.5,115,142.0
6379,F#3,457.0,0.5,115,142.0
6380,B-5,457.5,0.5,100,142.0
6381,E3,457.5,0.5,115,142.0
6382,E3,457.5,0.5,115,142.0
6383,B-4,457.542,133/1000,67,142.0
6384,B-4,457.8,79/500,78,142.0
6385,C#2,458.0,1.0,100,142.0
6386,F#3,458.0,0.5,115,142.0
6387,F#3,458.0,0.5,115,142.0
6388,B-4,458.05,117/1000,69,142.0
6389,B-5,458.5,0.5,100,142.0
6390,G#3,458.5,0.5,115,142.0
6391,G#3,458.5,0.5,115,142.0
6392,B-4,458.55,83/1000,74,142.0
6393,B-4,458.75,167/1000,78,142.0
6394,F#1,459.0,0.5,100,142.0
6395,B1,459.0,0.5,100,142.0
6396,C#2,459.0,1.0,100,142.0
6397,B-4,459.008,117/1000,78,142.0
6398,G#1,459.5,0.5,100,142.0
6399,G#3,459.5,0.25,115,142.0
6400,G#3,459.5,0.25,115,142.0
6401,B1,459.5,0.5,100,142.0
6402,B-5,459.5,0.5,100,142.0
6403,B-4,459.55,117/1000,85,142.0
6404,G#3,459.75,0.25,115,142.0
6405,G#3,459.75,0.25,115,142.0
6406,B-4,459.8,167/1000,78,142.0
6407,C#2,460.0,1.0,100,142.0
6408,B-4,460.0,1/10,71,142.0
6409,E-4,460.0,4.0,100,142.0
6410,C5,460.0,4.0,100,142.0
6411,B3,460.0,0.5,115,142.0
6412,B3,460.0,0.5,115,142.0
6413,E-4,460.0,4.0,100,142.0
6414,C5,460.0,4.0,100,142.0
6415,B-5,460.5,0.5,100,142.0
6416,C#4,460.5,0.5,115,142.0
6417,C#4,460.5,0.5,115,142.0
6418,B-4,460.542,133/1000,74,142.0
6419,E-4,460.625,0.25,100,142.0
6420,B-4,460.8,79/500,78,142.0
6421,C#2,461.0,1.0,100,142.0
6422,B-4,461.0,0.125,74,142.0
6423,B-5,461.0,0.5,100,142.0
6424,E-4,461.0,0.5,115,142.0
6425,E-4,461.0,0.5,115,142.0
6426,G#3,461.292,129/500,100,142.0
6427,B-5,461.5,0.5,100,142.0
6428,C#4,461.5,1.0,115,142.0
6429,C#4,461.5,1.0,115,142.0
6430,B-4,461.542,133/1000,67,142.0
6431,B-4,461.8,79/500,78,142.0
6432,F#4,461.958,129/500,100,142.0
6433,C#2,462.0,1.0,100,142.0
6434,B-4,462.05,117/1000,69,142.0
6435,G#1,462.5,0.25,100,142.0
6436,B-5,462.5,0.5,100,142.0
6437,B3,462.5,0.5,115,142.0
6438,B3,462.5,0.5,115,142.0
6439,B-4,462.55,83/1000,74,142.0
6440,E4,462.625,129/500,100,142.0
6441,G#1,462.75,0.25,100,142.0
6442,B1,462.75,0.25,100,142.0
6443,B-4,462.75,167/1000,78,142.0
6444,B1,463.0,0.5,100,142.0
6445,B1,463.0,0.5,100,142.0
6446,C#2,463.0,1.0,100,142.0
6447,F#3,463.0,0.5,115,142.0
6448,F#3,463.0,0.5,115,142.0
6449,B-4,463.008,117/1000,78,142.0
6450,E-4,463.292,0.25,100,142.0
6451,C#2,463.5,0.5,100,142.0
6452,E3,463.5,0.5,115,142.0
6453,E3,463.5,0.5,115,142.0
6454,B1,463.5,0.5,100,142.0
6455,B-5,463.5,0.5,100,142.0
6456,B-4,463.55,117/1000,85,142.0
6457,B-4,463.8,167/1000,78,142.0
6458,C#4,463.967,33/1000,100,142.0
6459,C#2,464.0,1.0,100,142.0
6460,B-4,464.0,1/10,71,142.0
6461,C#4,464.0,729/500,100,142.0
6462,B-5,464.5,0.5,100,142.0
6463,E-4,464.5,0.5,100,142.0
6464,E4,464.5,0.5,100,142.0
6465,G#4,464.5,0.5,100,142.0
6466,C#4,464.5,0.5,115,142.0
6467,C#4,464.5,0.5,115,142.0
6468,B-4,464.542,133/1000,74,142.0
6469,B-4,464.8,79/500,78,142.0
6470,C#2,465.0,1.0,100,142.0
6471,B-4,465.0,0.125,74,142.0
6472,B-5,465.0,0.5,100,142.0
6473,B3,465.0,0.5,115,142.0
6474,B3,465.0,0.5,115,142.0
6475,G#4,465.458,127/250,100,142.0
6476,B-5,465.5,0.5,100,142.0
6477,E-4,465.5,0.5,100,142.0
6478,E4,465.5,0.5,100,142.0
6479,G#4,465.5,0.5,100,142.0
6480,G#3,465.5,0.5,115,142.0
6481,G#3,465.5,0.5,115,142.0
6482,B-4,465.542,133/1000,67,142.0
6483,B-4,465.8,79/500,78,142.0
6484,G#4,465.967,124/125,100,142.0
6485,C#2,466.0,1.0,100,142.0
6486,B3,466.0,0.5,115,142.0
6487,B3,466.0,0.5,115,142.0
6488,B-4,466.05,117/1000,69,142.0
6489,C#2,466.5,0.5,100,142.0
6490,C#4,466.5,0.5,100,142.0
6491,E4,466.5,0.5,100,142.0
6492,G#4,466.5,0.5,100,142.0
6493,C#4,466.5,0.5,115,142.0
6494,C#4,466.5,0.5,115,142.0
6495,B1,466.5,0.5,100,142.0
6496,B-5,466.5,0.5,100,142.0
6497,B-4,466.55,83/1000,74,142.0
6498,B-4,466.75,167/1000,78,142.0
6499,B4,466.958,0.5,100,142.0
6500,B1,467.0,0.5,100,142.0
6501,B1,467.0,0.5,100,142.0
6502,C#2,467.0,1.0,100,142.0
6503,B-4,467.008,117/1000,78,142.0
6504,C#5,467.458,271/500,100,142.0
6505,A1,467.5,0.5,100,142.0
6506,E-4,467.5,0.5,100,142.0
6507,E4,467.5,0.5,100,142.0
6508,G#4,467.5,0.5,100,142.0
6509,C#3,467.5,0.25,115,142.0
6510,C#3,467.5,0.25,115,142.0
6511,B1,467.5,0.5,100,142.0
6512,B-5,467.5,0.5,100,142.0
6513,B-4,467.55,117/1000,85,142.0
6514,C#3,467.75,0.25,115,142.0
6515,C#3,467.75,0.25,115,142.0
6516,B-4,467.8,167/1000,78,142.0
6517,C#2,468.0,1.0,100,142.0
6518,B-4,468.0,1/10,71,142.0
6519,C#5,468.0,979/500,100,142.0
6520,E3,468.0,0.5,115,142.0
6521,E3,468.0,0.5,115,142.0
6522,B-5,468.5,0.5,100,142.0
6523,E-4,468.5,0.5,100,142.0
6524,E4,468.5,0.5,100,142.0
6525,G#4,468.5,0.5,100,142.0
6526,F#3,468.5,0.5,115,142.0
6527,F#3,468.5,0.5,115,142.0
6528,B-4,468.542,133/1000,74,142.0
6529,B-4,468.8,79/500,78,142.0
6530,C#2,469.0,1.0,100,142.0
6531,B-4,469.0,0.125,74,142.0
6532,B-5,469.0,0.5,100,142.0
6533,G#3,469.0,0.5,115,142.0
6534,G#3,469.0,0.5,115,142.0
6535,B-5,469.5,0.5,100,142.0
6536,E-4,469.5,0.5,100,142.0
6537,E4,469.5,0.5,100,142.0
6538,G#4,469.5,0.5,100,142.0
6539,E3,469.5,2.5,115,142.0
6540,E3,469.5,2.5,115,142.0
6541,B-4,469.542,133/1000,67,142.0
6542,B-4,469.8,79/500,78,142.0
6543,C#2,470.0,1.0,100,142.0
6544,B-4,470.05,117/1000,69,142.0
6545,A1,470.5,0.5,100,142.0
6546,C#4,470.5,0.5,100,142.0
6547,E4,470.5,0.5,100,142.0
6548,G#4,470.5,0.5,100,142.0
6549,B1,470.5,0.5,100,142.0
6550,B-5,470.5,0.5,100,142.0
6551,B-4,470.55,83/1000,74,142.0
6552,B-4,470.75,167/1000,78,142.0
6553,G#1,471.0,0.5,100,142.0
6554,B1,471.0,0.5,100,142.0
6555,C#2,471.0,1.0,100,142.0
6556,B-4,471.008,117/1000,78,142.0
6557,F#1,471.5,0.5,100,142.0
6558,G#3,471.5,0.5,100,142.0
6559,A3,471.5,0.5,100,142.0
6560,C#4,471.5,0.5,100,142.0
6561,B1,471.5,0.5,100,142.0
6562,B-5,471.5,0.5,100,142.0
6563,B-4,471.55,117/1000,85,142.0
6564,B-4,471.8,167/1000,78,142.0
6565,C#2,472.0,1.0,100,142.0
6566,B-4,472.0,1/10,71,142.0
6567,C#3,472.0,0.25,115,142.0
6568,C#3,472.0,0.25,115,142.0
6569,C#3,472.25,0.25,115,142.0
6570,C#3,472.25,0.25,115,142.0
6571,B-5,472.5,0.5,100,142.0
6572,G#3,472.5,0.5,100,142.0
6573,A3,472.5,0.5,100,142.0
6574,C#4,472.5,0.5,100,142.0
6575,G#3,472.5,0.5,115,142.0
6576,G#3,472.5,0.5,115,142.0
6577,B-4,472.542,133/1000,74,142.0
6578,B-4,472.8,79/500,78,142.0
6579,C#2,473.0,1.0,100,142.0
6580,B-4,473.0,0.125,74,142.0
6581,B-5,473.0,0.5,100,142.0
6582,F#3,473.0,0.5,115,142.0
6583,F#3,473.0,0.5,115,142.0
6584,B-5,473.5,0.5,100,142.0
6585,G#3,473.5,0.5,100,142.0
6586,A3,473.5,0.5,100,142.0
6587,C#4,473.5,0.5,100,142.0
6588,E3,473.5,0.5,115,142.0
6589,E3,473.5,0.5,115,142.0
6590,B-4,473.542,133/1000,67,142.0
6591,B-4,473.8,79/500,78,142.0
6592,C#2,474.0,1.0,100,142.0
6593,F#3,474.0,0.5,115,142.0
6594,F#3,474.0,0.5,115,142.0
6595,B-4,474.05,117/1000,69,142.0
6596,B-5,474.5,0.5,100,142.0
6597,F#3,474.5,0.5,100,142.0
6598,A3,474.5,0.5,100,142.0
6599,C#4,474.5,0.5,100,142.0
6600,G#3,474.5,0.5,115,142.0
6601,G#3,474.5,0.5,115,142.0
6602,B-4,474.55,83/1000,74,142.0
6603,C#5,474.717,0.25,100,142.0
6604,B-4,474.75,167/1000,78,142.0
6605,F#5,474.967,1033/1000,100,142.0
6606,F#1,475.0,0.5,100,142.0
6607,B1,475.0,0.5,100,142.0
6608,C#2,475.0,1.0,100,142.0
6609,B-4,475.008,117/1000,78,142.0
6610,G#1,475.5,0.5,100,142.0
6611,B-3,475.5,0.5,100,142.0
6612,B3,475.5,0.5,100,142.0
6613,E-4,475.5,0.5,100,142.0
6614,G#3,475.5,0.25,115,142.0
6615,G#3,475.5,0.25,115,142.0
6616,B1,475.5,0.5,100,142.0
6617,B-5,475.5,0.5,100,142.0
6618,B-4,475.55,117/1000,85,142.0
6619,G#3,475.75,0.25,115,142.0
6620,G#3,475.75,0.25,115,142.0
6621,B-4,475.8,167/1000,78,142.0
6622,C#2,476.0,1.0,100,142.0
6623,B-4,476.0,1/10,71,142.0
6624,F#5,476.0,479/500,100,142.0
6625,B3,476.0,0.5,115,142.0
6626,B3,476.0,0.5,115,142.0
6627,B-5,476.5,0.5,100,142.0
6628,B-3,476.5,0.5,100,142.0
6629,B3,476.5,0.5,100,142.0
6630,E-4,476.5,0.5,100,142.0
6631,C#4,476.5,0.5,115,142.0
6632,C#4,476.5,0.5,115,142.0
6633,B-4,476.542,133/1000,74,142.0
6634,B-4,476.8,79/500,78,142.0
6635,E5,476.958,0.5,100,142.0
6636,C#2,477.0,1.0,100,142.0
6637,B-4,477.0,0.125,74,142.0
6638,B-5,477.0,0.5,100,142.0
6639,E-4,477.0,0.5,115,142.0
6640,E-4,477.0,0.5,115,142.0
6641,G#5,477.458,127/250,100,142.0
6642,B-5,477.5,0.5,100,142.0
6643,B-3,477.5,0.5,100,142.0
6644,B3,477.5,0.5,100,142.0
6645,E-4,477.5,0.5,100,142.0
6646,C#4,477.5,1.0,115,142.0
6647,C#4,477.5,1.0,115,142.0
6648,B-4,477.542,133/1000,67,142.0
6649,B-4,477.8,79/500,78,142.0
6650,C#2,478.0,1.0,100,142.0
6651,B-4,478.05,117/1000,69,142.0
6652,F#5,478.458,127/250,100,142.0
6653,B-5,478.5,0.5,100,142.0
6654,G#3,478.5,0.5,100,142.0
6655,B3,478.5,0.5,100,142.0
6656,E-4,478.5,0.5,100,142.0
6657,B3,478.5,0.5,115,142.0
6658,B3,478.5,0.5,115,142.0
6659,B-4,478.55,83/1000,74,142.0
6660,G#1,478.75,0.25,100,142.0
6661,B1,478.75,0.25,100,142.0
6662,B-4,478.75,167/1000,78,142.0
6663,B1,479.0,0.5,100,142.0
6664,B1,479.0,0.5,100,142.0
6665,C#2,479.0,1.0,100,142.0
6666,F#3,479.0,0.5,115,142.0
6667,F#3,479.0,0.5,115,142.0
6668,B-4,479.008,117/1000,78,142.0
6669,E5,479.458,0.5,100,142.0
6670,C#2,479.5,0.5,100,142.0
6671,E-4,479.5,0.5,100,142.0
6672,E4,479.5,0.5,100,142.0
6673,G#4,479.5,0.5,100,142.0
6674,E3,479.5,0.5,115,142.0
6675,E3,479.5,0.5,115,142.0
6676,B1,479.5,0.5,100,142.0
6677,B-5,479.5,0.5,100,142.0
6678,B-4,479.55,117/1000,85,142.0
6679,B-4,479.8,167/1000,78,142.0
6680,C#5,479.958,21/500,100,142.0
6681,C#2,480.0,1.0,100,142.0
6682,B-4,480.0,1/10,71,142.0
6683,C#5,480.0,479/500,100,142.0
6684,B-5,480.5,0.5,100,142.0
6685,E-4,480.5,0.5,100,142.0
6686,E4,480.5,0.5,100,142.0
6687,G#4,480.5,0.5,100,142.0
6688,C#4,480.5,0.5,115,142.0
6689,C#4,480.5,0.5,115,142.0
6690,B-4,480.542,133/1000,74,142.0
6691,B-4,480.8,79/500,78,142.0
6692,B4,480.958,0.5,100,142.0
6693,C#2,481.0,1.0,100,142.0
6694,B-4,481.0,0.125,74,142.0
6695,B-5,481.0,0.5,100,142.0
6696,B3,481.0,0.5,115,142.0
6697,B3,481.0,0.5,115,142.0
6698,C#5,481.458,2.5,100,142.0
6699,B-5,481.5,0.5,100,142.0
6700,E-4,481.5,0.5,100,142.0
6701,E4,481.5,0.5,100,142.0
6702,G#4,481.5,0.5,100,142.0
6703,G#3,481.5,0.5,115,142.0
6704,G#3,481.5,0.5,115,142.0
6705,B-4,481.542,133/1000,67,142.0
6706,B-4,481.8,79/500,78,142.0
6707,C#2,482.0,1.0,100,142.0
6708,B3,482.0,0.5,115,142.0
6709,B3,482.0,0.5,115,142.0
6710,B-4,482.05,117/1000,69,142.0
6711,C#2,482.5,0.5,100,142.0
6712,C#4,482.5,0.5,100,142.0
6713,E4,482.5,0.5,100,142.0
6714,G#4,482.5,0.5,100,142.0
6715,C#4,482.5,0.5,115,142.0
6716,C#4,482.5,0.5,115,142.0
6717,B1,482.5,0.5,100,142.0
6718,B-5,482.5,0.5,100,142.0
6719,B-4,482.55,83/1000,74,142.0
6720,B-4,482.75,167/1000,78,142.0
6721,B1,483.0,0.5,100,142.0
6722,B1,483.0,0.5,100,142.0
6723,C#2,483.0,1.0,100,142.0
6724,B-4,483.008,117/1000,78,142.0
6725,A1,483.5,0.5,100,142.0
6726,E-4,483.5,0.5,100,142.0
6727,E4,483.5,0.5,100,142.0
6728,G#4,483.5,0.5,100,142.0
6729,C#3,483.5,0.25,115,142.0
6730,C#3,483.5,0.25,115,142.0
6731,B1,483.5,0.5,100,142.0
6732,B-5,483.5,0.5,100,142.0
6733,B-4,483.55,117/1000,85,142.0
6734,C#3,483.75,0.25,115,142.0
6735,C#3,483.75,0.25,115,142.0
6736,B-4,483.8,167/1000,78,142.0
6737,C#2,484.0,1.0,100,142.0
6738,B-4,484.0,1/10,71,142.0
6739,E3,484.0,0.5,115,142.0
6740,E3,484.0,0.5,115,142.0
6741,G#4,484.458,1.0,100,142.0
6742,B-5,484.5,0.5,100,142.0
6743,E-4,484.5,0.5,100,142.0
6744,E4,484.5,0.5,100,142.0
6745,G#4,484.5,0.5,100,142.0
6746,F#3,484.5,0.5,115,142.0
6747,F#3,484.5,0.5,115,142.0
6748,B-4,484.542,133/1000,74,142.0
6749,B-4,484.8,79/500,78,142.0
6750,C#2,485.0,1.0,100,142.0
6751,B-4,485.0,0.125,74,142.0
6752,B-5,485.0,0.5,100,142.0
6753,G#3,485.0,0.5,115,142.0
6754,G#3,485.0,0.5,115,142.0
6755,E4,485.458,0.25,100,142.0
6756,B-5,485.5,0.5,100,142.0
6757,E-4,485.5,0.5,100,142.0
6758,E4,485.5,0.5,100,142.0
6759,G#4,485.5,0.5,100,142.0
6760,E3,485.5,2.5,115,142.0
6761,E3,485.5,2.5,115,142.0
6762,B-4,485.542,133/1000,67,142.0
6763,F#4,485.708,0.25,100,142.0
6764,B-4,485.8,79/500,78,142.0
6765,C#2,486.0,1.0,100,142.0
6766,E4,486.0,479/500,100,142.0
6767,B-4,486.05,117/1000,69,142.0
6768,A1,486.5,0.5,100,142.0
6769,C#4,486.5,0.5,100,142.0
6770,E4,486.5,0.5,100,142.0
6771,G#4,486.5,0.5,100,142.0
6772,B1,486.5,0.5,100,142.0
6773,B-5,486.5,0.5,100,142.0
6774,B-4,486.55,83/1000,74,142.0
6775,B-4,486.75,167/1000,78,142.0
6776,C#4,486.958,0.25,100,142.0
6777,G#1,487.0,0.5,100,142.0
6778,B1,487.0,0.5,100,142.0
6779,C#2,487.0,1.0,100,142.0
6780,B-4,487.008,117/1000,78,142.0
6781,B3,487.208,0.25,100,142.0
6782,C#4,487.467,533/1000,100,142.0
6783,F#1,487.5,0.5,100,142.0
6784,G#3,487.5,0.5,100,142.0
6785,A3,487.5,0.5,100,142.0
6786,C#4,487.5,0.5,100,142.0
6787,B1,487.5,0.5,100,142.0
6788,B-5,487.5,0.5,100,142.0
6789,B-4,487.55,117/1000,85,142.0
6790,B-4,487.8,167/1000,78,142.0
6791,C#2,488.0,1.0,100,142.0
6792,B-4,488.0,1/10,71,142.0
6793,C#4,488.0,729/500,100,142.0
6794,C#3,488.0,0.25,115,142.0
6795,C#3,488.0,0.25,115,142.0
6796,C#3,488.25,0.25,115,142.0
6797,C#3,488.25,0.25,115,142.0
6798,B-5,488.5,0.5,100,142.0
6799,G#3,488.5,0.5,100,142.0
6800,A3,488.5,0.5,100,142.0
6801,C#4,488.5,0.5,100,142.0
6802,G#3,488.5,0.5,115,142.0
6803,G#3,488.5,0.5,115,142.0
6804,B-4,488.542,133/1000,74,142.0
6805,B-4,488.8,79/500,78,142.0
6806,C#2,489.0,1.0,100,142.0
6807,B-4,489.0,0.125,74,142.0
6808,B-5,489.0,0.5,100,142.0
6809,F#3,489.0,0.5,115,142.0
6810,F#3,489.0,0.5,115,142.0
6811,A4,489.458,377/250,100,142.0
6812,B-5,489.5,0.5,100,142.0
6813,G#3,489.5,0.5,100,142.0
6814,A3,489.5,0.5,100,142.0
6815,C#4,489.5,0.5,100,142.0
6816,E3,489.5,0.5,115,142.0
6817,E3,489.5,0.5,115,142.0
6818,B-4,489.542,133/1000,67,142.0
6819,B-4,489.8,79/500,78,142.0
6820,C#2,490.0,1.0,100,142.0
6821,F#3,490.0,0.5,115,142.0
6822,F#3,490.0,0.5,115,142.0
6823,B-4,490.05,117/1000,69,142.0
6824,B-5,490.5,0.5,100,142.0
6825,F#3,490.5,0.5,100,142.0
6826,A3,490.5,0.5,100,142.0
6827,C#4,490.5,0.5,100,142.0
6828,G#3,490.5,0.5,115,142.0
6829,G#3,490.5,0.5,115,142.0
6830,B-4,490.55,83/1000,74,142.0
6831,B-4,490.75,167/1000,78,142.0
6832,C#4,490.967,123/250,100,142.0
6833,F#1,491.0,0.5,100,142.0
6834,B1,491.0,0.5,100,142.0
6835,C#2,491.0,1.0,100,142.0
6836,B-4,491.008,117/1000,78,142.0
6837,C4,491.458,271/500,100,142.0
6838,G#1,491.5,0.5,100,142.0
6839,B-3,491.5,0.5,100,142.0
6840,B3,491.5,0.5,100,142.0
6841,E-4,491.5,0.5,100,142.0
6842,G#3,491.5,0.25,115,142.0
6843,G#3,491.5,0.25,115,142.0
6844,B1,491.5,0.5,100,142.0
6845,B-5,491.5,0.5,100,142.0
6846,B-4,491.55,117/1000,85,142.0
6847,G#3,491.75,0.25,115,142.0
6848,G#3,491.75,0.25,115,142.0
6849,B-4,491.8,167/1000,78,142.0
6850,C#2,492.0,1.0,100,142.0
6851,C4,492.0,479/500,100,142.0
6852,B3,492.0,0.5,115,142.0
6853,B3,492.0,0.5,115,142.0
6854,B-5,492.5,0.5,100,142.0
6855,F#6,492.5,1.0,127,142.0
6856,B-3,492.5,0.5,100,142.0
6857,B3,492.5,0.5,100,142.0
6858,E-4,492.5,0.5,100,142.0
6859,C#4,492.5,0.5,115,142.0
6860,C#4,492.5,0.5,115,142.0
6861,B4,492.625,667/1000,100,142.0
6862,C#2,493.0,1.0,100,142.0
6863,B-5,493.0,0.5,100,142.0
6864,E-4,493.0,0.5,115,142.0
6865,E-4,493.0,0.5,115,142.0
6866,A4,493.3,329/500,100,142.0
6867,B-5,493.5,0.5,100,142.0
6868,F#5,493.5,0.5,127,142.0
6869,B-3,493.5,0.5,100,142.0
6870,B3,493.5,0.5,100,142.0
6871,E-4,493.5,0.5,100,142.0
6872,C#4,493.5,1.0,115,142.0
6873,C#4,493.5,1.0,115,142.0
6874,G#4,493.5,0.5,100,142.0
6875,E4,493.5,0.5,100,142.0
6876,G#4,493.5,0.5,100,142.0
6877,E4,493.5,0.5,100,142.0
6878,G#4,493.958,0.5,100,142.0
6879,C#2,494.0,1.0,100,142.0
6880,D3,494.0,0.5,115,142.0
6881,B4,494.0,0.5,127,142.0
6882,C#5,494.0,0.5,100,142.0
6883,G#4,494.0,0.5,100,142.0
6884,C#5,494.0,0.5,100,142.0
6885,G#4,494.0,0.5,100,142.0
6886,E5,494.458,127/250,100,142.0
6887,G#1,494.5,0.5,100,142.0
6888,A2,494.5,0.25,115,142.0
6889,E4,494.5,1.0,127,142.0
6890,G#3,494.5,0.5,100,142.0
6891,B3,494.5,0.5,100,142.0
6892,E-4,494.5,0.5,100,142.0
6893,B3,494.5,0.5,115,142.0
6894,B3,494.5,0.5,115,142.0
6895,E5,494.5,0.5,100,142.0
6896,C#5,494.5,0.5,100,142.0
6897,B-5,494.5,0.5,100,142.0
6898,B1,494.5,0.5,100,142.0
6899,E5,494.5,0.5,100,142.0
6900,C#5,494.5,0.5,100,142.0
6901,A2,494.75,0.25,115,142.0
6902,E-5,494.967,123/250,100,142.0
6903,B1,495.0,0.5,100,142.0
6904,C#2,495.0,1.0,100,142.0
6905,F#3,495.0,0.5,115,142.0
6906,F#3,495.0,0.5,115,142.0
6907,F#5,495.0,0.5,100,142.0
6908,E-5,495.0,0.5,100,142.0
6909,F2,495.0,0.5,108,142.0
6910,B1,495.0,0.5,108,142.0
6911,F#5,495.0,0.5,100,142.0
6912,E-5,495.0,0.5,100,142.0
6913,C#5,495.458,271/500,100,142.0
6914,A1,495.5,0.5,100,142.0
6915,A2,495.5,0.5,100,142.0
6916,E-4,495.5,0.5,100,142.0
6917,E4,495.5,0.5,100,142.0
6918,G#4,495.5,0.5,100,142.0
6919,E3,495.5,0.5,115,142.0
6920,E3,495.5,0.5,115,142.0
6921,E5,495.5,0.5,100,142.0
6922,G#5,495.5,0.5,100,142.0
6923,C#5,495.5,0.5,100,142.0
6924,B1,495.5,0.5,105,142.0
6925,B-5,495.5,0.5,105,142.0
6926,C#3,495.5,0.5,105,142.0
6927,E5,495.5,0.5,100,142.0
6928,G#5,495.5,0.5,100,142.0
6929,C#5,495.5,0.5,100,142.0
6930,A1,496.0,0.5,100,142.0
6931,A2,496.0,0.5,100,142.0
6932,C#2,496.0,1.0,100,142.0
6933,F#3,496.0,133/1000,66,142.0
6934,C#5,496.0,4.0,100,142.0
6935,F#3,496.208,167/1000,58,142.0
6936,F3,496.467,73/250,100,142.0
6937,F#3,496.467,3/40,78,142.0
6938,B-5,496.467,3/40,78,142.0
6939,A1,496.5,2/5,100,142.0
6940,A2,496.5,0.5,100,142.0
6941,B1,496.5,0.5,100,142.0
6942,E-4,496.5,0.5,100,142.0
6943,E4,496.5,0.5,100,142.0
6944,G#4,496.5,0.5,100,142.0
6945,G#5,496.5,0.5,100,142.0
6946,C#5,496.5,0.5,100,142.0
6947,E5,496.5,0.5,100,142.0
6948,G#5,496.5,0.5,100,142.0
6949,C#5,496.5,0.5,100,142.0
6950,E5,496.5,0.5,100,142.0
6951,F#3,496.708,133/1000,82,142.0
6952,B-5,496.708,133/1000,82,142.0
6953,F#3,496.958,167/1000,66,142.0
6954,A1,497.0,2/5,100,142.0
6955,A2,497.0,0.5,100,142.0
6956,E-5,497.0,0.5,100,142.0
6957,B4,497.0,0.5,100,142.0
6958,F#5,497.0,0.5,100,142.0
6959,C#2,497.0,1.0,108,142.0
6960,D2,497.0,1.0,108,142.0
6961,E-5,497.0,0.5,100,142.0
6962,B4,497.0,0.5,100,142.0
6963,F#5,497.0,0.5,100,142.0
6964,F#3,497.208,7/40,63,142.0
6965,F3,497.458,0.125,86,142.0
6966,F#3,497.458,0.125,86,142.0
6967,B-5,497.458,0.125,86,142.0
6968,A1,497.5,2/5,100,142.0
6969,A2,497.5,0.5,100,142.0
6970,B1,497.5,0.5,100,142.0
6971,E-4,497.5,0.5,100,142.0
6972,E4,497.5,0.5,100,142.0
6973,G#4,497.5,0.5,100,142.0
6974,F#3,497.708,167/1000,82,142.0
6975,B-5,497.708,167/1000,82,142.0
6976,F#3,497.958,1/5,80,142.0
6977,F3,497.958,1/5,80,142.0
6978,A1,498.0,2/5,100,142.0
6979,A2,498.0,0.5,100,142.0
6980,B1,498.0,0.5,100,142.0
6981,C#2,498.0,1.0,100,142.0
6982,C#5,498.0,0.5,100,142.0
6983,G#4,498.0,0.5,100,142.0
6984,E5,498.0,0.5,100,142.0
6985,C#5,498.0,0.5,100,142.0
6986,G#4,498.0,0.5,100,142.0
6987,E5,498.0,0.5,100,142.0
6988,F#3,498.208,167/1000,60,142.0
6989,B-5,498.458,79/500,78,142.0
6990,F#3,498.458,79/500,78,142.0
6991,F3,498.458,79/500,78,142.0
6992,F#3,498.458,79/500,78,142.0
6993,A1,498.5,2/5,100,142.0
6994,A2,498.5,0.5,100,142.0
6995,B1,498.5,0.5,100,142.0
6996,C#4,498.5,0.5,100,142.0
6997,E4,498.5,0.5,100,142.0
6998,G#4,498.5,0.5,100,142.0
6999,F#3,498.708,167/1000,78,142.0
7000,B-5,498.708,167/1000,78,142.0
7001,F#3,498.958,26/125,56,142.0
7002,A1,499.0,2/5,100,142.0
7003,A2,499.0,0.5,100,142.0
7004,B4,499.0,0.5,100,142.0
7005,G#4,499.0,0.5,100,142.0
7006,E-5,499.0,0.5,100,142.0
7007,D2,499.0,1.0,108,142.0
7008,C#2,499.0,1.0,108,142.0
7009,B4,499.0,0.5,100,142.0
7010,G#4,499.0,0.5,100,142.0
7011,E-5,499.0,0.5,100,142.0
7012,F#3,499.208,167/1000,60,142.0
7013,B-5,499.458,7/40,86,142.0
7014,F#3,499.458,7/40,86,142.0
7015,F3,499.458,7/40,86,142.0
7016,A1,499.5,2/5,100,142.0
7017,A2,499.5,0.5,100,142.0
7018,B1,499.5,0.5,100,142.0
7019,E-4,499.5,0.5,100,142.0
7020,E4,499.5,0.5,100,142.0
7021,G#4,499.5,0.5,100,142.0
7022,F#3,499.708,167/1000,78,142.0
7023,B-5,499.708,167/1000,78,142.0
7024,F3,499.958,21/500,83,142.0
7025,F#3,499.958,21/500,83,142.0
7026,A1,500.0,2/5,100,142.0
7027,A2,500.0,0.5,100,142.0
7028,B1,500.0,0.5,100,142.0
7029,C#2,500.0,1.0,100,142.0
7030,C#5,500.0,4.0,100,142.0
7031,B4,500.0,0.5,100,142.0
7032,F#4,500.0,0.5,100,142.0
7033,E-5,500.0,0.5,100,142.0
7034,F3,500.0,23/250,83,142.0
7035,F#3,500.0,23/250,83,142.0
7036,B4,500.0,0.5,100,142.0
7037,F#4,500.0,0.5,100,142.0
7038,E-5,500.0,0.5,100,142.0
7039,F#3,500.208,167/1000,58,142.0
7040,B-5,500.467,117/1000,78,142.0
7041,F#3,500.467,117/1000,78,142.0
7042,F3,500.467,117/1000,78,142.0
7043,F#3,500.467,117/1000,78,142.0
7044,A1,500.5,2/5,100,142.0
7045,A2,500.5,0.5,100,142.0
7046,B1,500.5,0.5,100,142.0
7047,E-4,500.5,0.5,100,142.0
7048,E4,500.5,0.5,100,142.0
7049,G#4,500.5,0.5,100,142.0
7050,C#5,500.5,0.5,100,142.0
7051,G#4,500.5,0.5,100,142.0
7052,E5,500.5,0.5,100,142.0
7053,C#5,500.5,0.5,100,142.0
7054,G#4,500.5,0.5,100,142.0
7055,E5,500.5,0.5,100,142.0
7056,F#3,500.708,133/1000,82,142.0
7057,B-5,500.708,133/1000,82,142.0
7058,F#3,500.958,167/1000,66,142.0
7059,A1,501.0,2/5,100,142.0
7060,A2,501.0,0.5,100,142.0
7061,D2,501.0,1.0,108,142.0
7062,C#2,501.0,1.0,108,142.0
7063,F#3,501.208,7/40,63,142.0
7064,F3,501.458,167/1000,86,142.0
7065,B-5,501.458,167/1000,86,142.0
7066,F#3,501.458,167/1000,86,142.0
7067,A1,501.5,2/5,100,142.0
7068,A2,501.5,0.5,100,142.0
7069,B1,501.5,0.5,100,142.0
7070,E-4,501.5,0.5,100,142.0
7071,E4,501.5,0.5,100,142.0
7072,G#4,501.5,0.5,100,142.0
7073,E5,501.5,0.5,100,142.0
7074,G#4,501.5,0.5,100,142.0
7075,C#5,501.5,0.5,100,142.0
7076,E5,501.5,0.5,100,142.0
7077,G#4,501.5,0.5,100,142.0
7078,C#5,501.5,0.5,100,142.0
7079,F#3,501.708,167/1000,82,142.0
7080,B-5,501.708,167/1000,82,142.0
7081,F#3,501.958,167/1000,80,142.0
7082,F3,501.958,167/1000,80,142.0
7083,A1,502.0,2/5,100,142.0
7084,A2,502.0,0.5,100,142.0
7085,B1,502.0,0.5,100,142.0
7086,C#2,502.0,1.0,100,142.0
7087,F#3,502.208,167/1000,60,142.0
7088,F3,502.458,129/500,100,142.0
7089,B-5,502.458,79/500,78,142.0
7090,F#3,502.458,79/500,78,142.0
7091,B1,502.5,2/5,100,142.0
7092,B2,502.5,0.5,100,142.0
7093,C#4,502.5,0.5,100,142.0
7094,E4,502.5,0.5,100,142.0
7095,G#4,502.5,0.5,100,142.0
7096,E-5,502.5,0.5,100,142.0
7097,B4,502.5,0.5,100,142.0
7098,F#5,502.5,0.5,100,142.0
7099,G3,502.5,0.5,114,142.0
7100,B1,502.5,0.5,114,142.0
7101,E-5,502.5,0.5,100,142.0
7102,B4,502.5,0.5,100,142.0
7103,F#5,502.5,0.5,100,142.0
7104,F#3,502.708,167/1000,78,142.0
7105,B-5,502.708,167/1000,78,142.0
7106,F#3,502.958,26/125,56,142.0
7107,B1,503.0,2/5,100,142.0
7108,B2,503.0,0.5,100,142.0
7109,D2,503.0,1.0,108,142.0
7110,C#2,503.0,1.0,108,142.0
7111,F#3,503.208,167/1000,60,142.0
7112,B-5,503.458,167/1000,79,142.0
7113,F#3,503.458,167/1000,79,142.0
7114,F3,503.467,26/125,100,142.0
7115,C#2,503.5,0.5,100,142.0
7116,C#3,503.5,0.5,100,142.0
7117,G#3,503.5,0.5,100,142.0
7118,A3,503.5,0.5,100,142.0
7119,C#4,503.5,0.5,100,142.0
7120,E5,503.5,0.5,100,142.0
7121,C#5,503.5,0.5,100,142.0
7122,G#5,503.5,0.5,100,142.0
7123,B1,503.5,0.5,108,142.0
7124,C#3,503.5,0.5,108,142.0
7125,E5,503.5,0.5,100,142.0
7126,C#5,503.5,0.5,100,142.0
7127,G#5,503.5,0.5,100,142.0
7128,F#3,503.708,167/1000,78,142.0
7129,B-5,503.708,167/1000,78,142.0
7130,C#2,504.0,0.5,100,142.0
7131,C#3,504.0,0.5,100,142.0
7132,F#3,504.0,133/1000,66,142.0
7133,C#2,504.0,1.0,100,142.0
7134,C#5,504.0,1979/500,100,142.0
7135,F#3,504.208,167/1000,58,142.0
7136,F3,504.467,73/250,100,142.0
7137,F#3,504.467,3/40,78,142.0
7138,B-5,504.467,3/40,78,142.0
7139,C#2,504.5,2/5,100,142.0
7140,C#3,504.5,0.5,100,142.0
7141,B1,504.5,0.5,100,142.0
7142,G#3,504.5,0.5,100,142.0
7143,A3,504.5,0.5,100,142.0
7144,C#4,504.5,0.5,100,142.0
7145,G#5,504.5,0.5,100,142.0
7146,C#5,504.5,0.5,100,142.0
7147,E5,504.5,0.5,100,142.0
7148,G#5,504.5,0.5,100,142.0
7149,C#5,504.5,0.5,100,142.0
7150,E5,504.5,0.5,100,142.0
7151,F#3,504.708,133/1000,82,142.0
7152,B-5,504.708,133/1000,82,142.0
7153,F#3,504.958,167/1000,66,142.0
7154,C#2,505.0,2/5,100,142.0
7155,C#3,505.0,0.5,100,142.0
7156,E-5,505.0,0.5,100,142.0
7157,B4,505.0,0.5,100,142.0
7158,F#5,505.0,0.5,100,142.0
7159,C#2,505.0,1.0,108,142.0
7160,D2,505.0,1.0,108,142.0
7161,E-5,505.0,0.5,100,142.0
7162,B4,505.0,0.5,100,142.0
7163,F#5,505.0,0.5,100,142.0
7164,F#3,505.208,7/40,63,142.0
7165,B-5,505.458,133/1000,86,142.0
7166,F#3,505.458,133/1000,86,142.0
7167,F3,505.458,133/1000,86,142.0
7168,C#2,505.5,2/5,100,142.0
7169,C#3,505.5,0.5,100,142.0
7170,B1,505.5,0.5,100,142.0
7171,G#3,505.5,0.5,100,142.0
7172,A3,505.5,0.5,100,142.0
7173,C#4,505.5,0.5,100,142.0
7174,F#3,505.708,167/1000,82,142.0
7175,B-5,505.708,167/1000,82,142.0
7176,F#3,505.958,217/1000,80,142.0
7177,F3,505.958,217/1000,80,142.0
7178,C#2,506.0,2/5,100,142.0
7179,C#3,506.0,0.5,100,142.0
7180,B1,506.0,0.5,100,142.0
7181,C#2,506.0,1.0,100,142.0
7182,C#5,506.0,0.5,100,142.0
7183,G#4,506.0,0.5,100,142.0
7184,E5,506.0,0.5,100,142.0
7185,C#5,506.0,0.5,100,142.0
7186,G#4,506.0,0.5,100,142.0
7187,E5,506.0,0.5,100,142.0
7188,F#3,506.208,167/1000,60,142.0
7189,F3,506.458,79/500,78,142.0
7190,F#3,506.458,79/500,78,142.0
7191,B-5,506.458,79/500,78,142.0
7192,F#3,506.458,79/500,78,142.0
7193,C#2,506.5,2/5,100,142.0
7194,C#3,506.5,0.5,100,142.0
7195,B1,506.5,0.5,100,142.0
7196,F#3,506.5,0.5,100,142.0
7197,A3,506.5,0.5,100,142.0
7198,C#4,506.5,0.5,100,142.0
7199,F#3,506.708,167/1000,78,142.0
7200,B-5,506.708,167/1000,78,142.0
7201,F#3,506.958,26/125,56,142.0
7202,C#2,507.0,2/5,100,142.0
7203,C#3,507.0,0.5,100,142.0
7204,B4,507.0,0.5,100,142.0
7205,F#4,507.0,0.5,100,142.0
7206,E-5,507.0,0.5,100,142.0
7207,D2,507.0,1.0,108,142.0
7208,C#2,507.0,1.0,108,142.0
7209,B4,507.0,0.5,100,142.0
7210,F#4,507.0,0.5,100,142.0
7211,E-5,507.0,0.5,100,142.0
7212,F#3,507.208,167/1000,60,142.0
7213,F#3,507.458,0.125,86,142.0
7214,F3,507.458,0.125,86,142.0
7215,B-5,507.458,0.125,86,142.0
7216,C#2,507.5,2/5,100,142.0
7217,C#3,507.5,0.5,100,142.0
7218,B1,507.5,0.5,100,142.0
7219,B-3,507.5,0.5,100,142.0
7220,B3,507.5,0.5,100,142.0
7221,E-4,507.5,0.5,100,142.0
7222,B-5,507.708,0.125,78,142.0
7223,F#3,507.708,0.125,78,142.0
7224,F3,507.958,21/500,83,142.0
7225,F#3,507.958,21/500,83,142.0
7226,C#2,508.0,2/5,100,142.0
7227,C#3,508.0,0.5,100,142.0
7228,C#2,508.0,1.0,100,142.0
7229,B1,508.0,0.5,100,142.0
7230,B4,508.0,1.5,100,142.0
7231,F#4,508.0,1.5,100,142.0
7232,E-5,508.0,1.5,100,142.0
7233,F3,508.0,23/250,83,142.0
7234,F#3,508.0,23/250,83,142.0
7235,B4,508.0,1.5,100,142.0
7236,F#4,508.0,1.5,100,142.0
7237,E-5,508.0,1.5,100,142.0
7238,F#3,508.208,167/1000,58,142.0
7239,F3,508.458,26/125,100,142.0
7240,F#3,508.467,3/40,78,142.0
7241,B-5,508.467,3/40,78,142.0
7242,C#2,508.5,2/5,100,142.0
7243,C#3,508.5,0.5,100,142.0
7244,B1,508.5,0.5,100,142.0
7245,B-3,508.5,0.5,100,142.0
7246,B3,508.5,0.5,100,142.0
7247,E-4,508.5,0.5,100,142.0
7248,B-5,508.708,133/1000,82,142.0
7249,F#3,508.708,133/1000,82,142.0
7250,F#3,508.958,167/1000,66,142.0
7251,C#2,509.0,2/5,100,142.0
7252,C#3,509.0,0.5,100,142.0
7253,C#2,509.0,1.0,100,142.0
7254,D2,509.0,1.125,115,142.0
7255,F#3,509.208,7/40,63,142.0
7256,F#3,509.458,167/1000,86,142.0
7257,B-5,509.458,167/1000,86,142.0
7258,F3,509.458,167/1000,86,142.0
7259,C#2,509.5,2/5,100,142.0
7260,C#3,509.5,0.5,100,142.0
7261,B1,509.5,0.5,100,142.0
7262,B-3,509.5,0.5,100,142.0
7263,B3,509.5,0.5,100,142.0
7264,E-4,509.5,0.5,100,142.0
7265,C#5,509.5,0.5,100,142.0
7266,G#4,509.5,0.5,100,142.0
7267,E5,509.5,0.5,100,142.0
7268,C#5,509.5,0.5,100,142.0
7269,G#4,509.5,0.5,100,142.0
7270,E5,509.5,0.5,100,142.0
7271,F#3,509.708,167/1000,82,142.0
7272,B-5,509.708,167/1000,82,142.0
7273,F#3,509.958,26/125,80,142.0
7274,F3,509.958,26/125,80,142.0
7275,C#2,510.0,2/5,100,142.0
7276,C#3,510.0,0.5,100,142.0
7277,C#2,510.0,1.0,100,142.0
7278,B1,510.0,0.5,100,142.0
7279,F#3,510.208,167/1000,60,142.0
7280,F3,510.458,0.25,100,142.0
7281,B-5,510.458,79/500,78,142.0
7282,F#3,510.458,79/500,78,142.0
7283,B1,510.5,2/5,100,142.0
7284,B2,510.5,0.5,100,142.0
7285,G#3,510.5,0.5,100,142.0
7286,B3,510.5,0.5,100,142.0
7287,E-4,510.5,0.5,100,142.0
7288,E-5,510.5,0.5,100,142.0
7289,B4,510.5,0.5,100,142.0
7290,F#5,510.5,0.5,100,142.0
7291,B1,510.5,0.5,114,142.0
7292,G3,510.5,0.5,114,142.0
7293,E-5,510.5,0.5,100,142.0
7294,B4,510.5,0.5,100,142.0
7295,F#5,510.5,0.5,100,142.0
7296,F#3,510.708,167/1000,78,142.0
7297,B-5,510.708,167/1000,78,142.0
7298,F#3,510.958,26/125,56,142.0
7299,B1,511.0,2/5,100,142.0
7300,B2,511.0,0.5,100,142.0
7301,C#2,511.0,1.0,108,142.0
7302,D2,511.0,1.0,108,142.0
7303,F#3,511.208,167/1000,60,142.0
7304,F#3,511.458,26/125,86,142.0
7305,B-5,511.458,26/125,86,142.0
7306,F3,511.458,26/125,86,142.0
7307,A1,511.5,0.5,100,142.0
7308,A2,511.5,0.5,100,142.0
7309,E-4,511.5,0.5,100,142.0
7310,E4,511.5,0.5,100,142.0
7311,G#4,511.5,0.5,100,142.0
7312,E5,511.5,0.5,100,142.0
7313,C#5,511.5,0.5,100,142.0
7314,G#5,511.5,0.5,100,142.0
7315,B1,511.5,0.5,108,142.0
7316,C#3,511.5,0.5,108,142.0
7317,E5,511.5,0.5,100,142.0
7318,C#5,511.5,0.5,100,142.0
7319,G#5,511.5,0.5,100,142.0
7320,B-5,511.708,0.125,78,142.0
7321,F#3,511.708,0.125,78,142.0
7322,A1,512.0,0.5,100,142.0
7323,A2,512.0,0.5,100,142.0
7324,F#3,512.0,133/1000,66,142.0
7325,F#3,512.208,167/1000,58,142.0
7326,F3,512.467,26/125,100,142.0
7327,B-5,512.467,117/1000,78,142.0
7328,F#3,512.467,117/1000,78,142.0
7329,A1,512.5,2/5,100,142.0
7330,A2,512.5,0.5,100,142.0
7331,B1,512.5,0.5,100,142.0
7332,E-4,512.5,0.5,100,142.0
7333,E4,512.5,0.5,100,142.0
7334,G#4,512.5,0.5,100,142.0
7335,G#5,512.5,0.5,100,142.0
7336,C#5,512.5,0.5,100,142.0
7337,E5,512.5,0.5,100,142.0
7338,G#5,512.5,0.5,100,142.0
7339,C#5,512.5,0.5,100,142.0
7340,E5,512.5,0.5,100,142.0
7341,B-5,512.708,133/1000,82,142.0
7342,F#3,512.708,133/1000,82,142.0
7343,F#3,512.958,167/1000,66,142.0
7344,A1,513.0,2/5,100,142.0
7345,A2,513.0,0.5,100,142.0
7346,D2,513.0,1.0,115,142.0
7347,E-5,513.0,0.5,100,142.0
7348,B4,513.0,0.5,100,142.0
7349,F#5,513.0,0.5,100,142.0
7350,E-5,513.0,0.5,100,142.0
7351,B4,513.0,0.5,100,142.0
7352,F#5,513.0,0.5,100,142.0
7353,F#3,513.208,7/40,63,142.0
7354,B-5,513.458,167/1000,86,142.0
7355,F#3,513.458,167/1000,86,142.0
7356,F3,513.458,167/1000,86,142.0
7357,A1,513.5,2/5,100,142.0
7358,A2,513.5,0.5,100,142.0
7359,B1,513.5,0.5,100,142.0
7360,E-4,513.5,0.5,100,142.0
7361,E4,513.5,0.5,100,142.0
7362,G#4,513.5,0.5,100,142.0
7363,F#3,513.708,167/1000,82,142.0
7364,B-5,513.708,167/1000,82,142.0
7365,F#3,513.958,7/40,80,142.0
7366,F3,513.958,7/40,80,142.0
7367,A1,514.0,2/5,100,142.0
7368,A2,514.0,0.5,100,142.0
7369,B1,514.0,0.5,100,142.0
7370,C#5,514.0,0.5,100,142.0
7371,A4,514.0,0.5,100,142.0
7372,E5,514.0,0.5,100,142.0
7373,C#5,514.0,0.5,100,142.0
7374,A4,514.0,0.5,100,142.0
7375,E5,514.0,0.5,100,142.0
7376,F#3,514.208,167/1000,60,142.0
7377,F3,514.458,79/500,78,142.0
7378,F#3,514.458,79/500,78,142.0
7379,B-5,514.458,79/500,78,142.0
7380,F#3,514.458,79/500,78,142.0
7381,A1,514.5,2/5,100,142.0
7382,A2,514.5,0.5,100,142.0
7383,B1,514.5,0.5,100,142.0
7384,C#4,514.5,0.5,100,142.0
7385,E4,514.5,0.5,100,142.0
7386,G#4,514.5,0.5,100,142.0
7387,F#3,514.708,167/1000,78,142.0
7388,B-5,514.708,167/1000,78,142.0
7389,F#3,514.958,26/125,56,142.0
7390,A1,515.0,2/5,100,142.0
7391,A2,515.0,0.5,100,142.0
7392,D2,515.0,1.0,115,142.0
7393,B4,515.0,0.5,100,142.0
7394,F#4,515.0,0.5,100,142.0
7395,E-5,515.0,0.5,100,142.0
7396,B4,515.0,0.5,100,142.0
7397,F#4,515.0,0.5,100,142.0
7398,E-5,515.0,0.5,100,142.0
7399,F#3,515.208,167/1000,60,142.0
7400,F#3,515.458,167/1000,86,142.0
7401,B-5,515.458,167/1000,86,142.0
7402,F3,515.458,167/1000,86,142.0
7403,A1,515.5,2/5,100,142.0
7404,A2,515.5,0.5,100,142.0
7405,B1,515.5,0.5,100,142.0
7406,E-4,515.5,0.5,100,142.0
7407,E4,515.5,0.5,100,142.0
7408,G#4,515.5,0.5,100,142.0
7409,B-5,515.708,0.125,78,142.0
7410,F#3,515.708,0.125,78,142.0
7411,F3,515.958,21/500,83,142.0
7412,F#3,515.958,21/500,83,142.0
7413,A1,516.0,2/5,100,142.0
7414,A2,516.0,0.5,100,142.0
7415,B1,516.0,0.5,100,142.0
7416,B4,516.0,0.5,100,142.0
7417,F#4,516.0,0.5,100,142.0
7418,E-5,516.0,0.5,100,142.0
7419,F3,516.0,23/250,83,142.0
7420,F#3,516.0,23/250,83,142.0
7421,B4,516.0,0.5,100,142.0
7422,F#4,516.0,0.5,100,142.0
7423,E-5,516.0,0.5,100,142.0
7424,F#3,516.208,167/1000,58,142.0
7425,F3,516.467,1/5,100,142.0
7426,F#3,516.467,3/40,78,142.0
7427,B-5,516.467,3/40,78,142.0
7428,A1,516.5,2/5,100,142.0
7429,A2,516.5,0.5,100,142.0
7430,B1,516.5,0.5,100,142.0
7431,E-4,516.5,0.5,100,142.0
7432,E4,516.5,0.5,100,142.0
7433,G#4,516.5,0.5,100,142.0
7434,C#5,516.5,0.5,100,142.0
7435,G#4,516.5,0.5,100,142.0
7436,E5,516.5,0.5,100,142.0
7437,C#5,516.5,0.5,100,142.0
7438,G#4,516.5,0.5,100,142.0
7439,E5,516.5,0.5,100,142.0
7440,F#3,516.708,133/1000,82,142.0
7441,B-5,516.708,133/1000,82,142.0
7442,F#3,516.958,167/1000,66,142.0
7443,A1,517.0,2/5,100,142.0
7444,A2,517.0,0.5,100,142.0
7445,D2,517.0,1.0,115,142.0
7446,F#3,517.208,7/40,63,142.0
7447,B-5,517.458,117/1000,86,142.0
7448,F#3,517.458,117/1000,86,142.0
7449,F3,517.458,117/1000,86,142.0
7450,A1,517.5,2/5,100,142.0
7451,A2,517.5,0.5,100,142.0
7452,B1,517.5,0.5,100,142.0
7453,E-4,517.5,0.5,100,142.0
7454,E4,517.5,0.5,100,142.0
7455,G#4,517.5,0.5,100,142.0
7456,E5,517.5,0.5,100,142.0
7457,G#4,517.5,0.5,100,142.0
7458,C#5,517.5,0.5,100,142.0
7459,E5,517.5,0.5,100,142.0
7460,G#4,517.5,0.5,100,142.0
7461,C#5,517.5,0.5,100,142.0
7462,F#3,517.708,167/1000,82,142.0
7463,B-5,517.708,167/1000,82,142.0
7464,F#3,517.958,167/1000,80,142.0
7465,F3,517.958,167/1000,80,142.0
7466,A1,518.0,2/5,100,142.0
7467,A2,518.0,0.5,100,142.0
7468,B1,518.0,0.5,100,142.0
7469,F#3,518.208,167/1000,60,142.0
7470,F3,518.458,79/500,78,142.0
7471,F#3,518.458,79/500,78,142.0
7472,B-5,518.458,79/500,78,142.0
7473,F#3,518.458,79/500,78,142.0
7474,A1,518.5,2/5,100,142.0
7475,A2,518.5,0.5,100,142.0
7476,B1,518.5,0.5,100,142.0
7477,C#4,518.5,0.5,100,142.0
7478,E4,518.5,0.5,100,142.0
7479,G#4,518.5,0.5,100,142.0
7480,E-5,518.5,0.5,100,142.0
7481,B4,518.5,0.5,100,142.0
7482,F#4,518.5,0.5,100,142.0
7483,E-5,518.5,0.5,100,142.0
7484,B4,518.5,0.5,100,142.0
7485,F#4,518.5,0.5,100,142.0
7486,F#3,518.708,167/1000,78,142.0
7487,B-5,518.708,167/1000,78,142.0
7488,F#3,518.958,26/125,56,142.0
7489,A1,519.0,2/5,100,142.0
7490,A2,519.0,0.5,100,142.0
7491,D2,519.0,1.0,115,142.0
7492,F#3,519.208,167/1000,60,142.0
7493,F3,519.458,271/500,100,142.0
7494,F#3,519.458,0.125,79,142.0
7495,B-5,519.458,0.125,79,142.0
7496,G#1,519.5,0.5,100,142.0
7497,G#2,519.5,0.5,100,142.0
7498,G#3,519.5,0.5,100,142.0
7499,A3,519.5,0.5,100,142.0
7500,C#4,519.5,0.5,100,142.0
7501,E-4,519.5,0.5,100,142.0
7502,C#4,519.5,0.5,100,142.0
7503,G#4,519.5,0.5,100,142.0
7504,B1,519.5,0.5,108,142.0
7505,A3,519.5,0.5,108,142.0
7506,E-4,519.5,0.5,100,142.0
7507,C#4,519.5,0.5,100,142.0
7508,G#4,519.5,0.5,100,142.0
7509,F#3,519.708,167/1000,78,142.0
7510,B-5,519.708,167/1000,78,142.0
7511,G#1,520.0,0.5,100,142.0
7512,G#2,520.0,0.5,100,142.0
7513,F#3,520.0,133/1000,66,142.0
7514,F3,520.0,37/40,100,142.0
7515,E-4,520.0,2.0,100,142.0
7516,C#4,520.0,2.0,100,142.0
7517,G#4,520.0,2.0,100,142.0
7518,E-4,520.0,2.0,100,142.0
7519,C#4,520.0,2.0,100,142.0
7520,G#4,520.0,2.0,100,142.0
7521,F#3,520.208,167/1000,58,142.0
7522,F#3,520.467,3/40,78,142.0
7523,B-5,520.467,3/40,78,142.0
7524,G#1,520.5,2/5,100,142.0
7525,G#2,520.5,0.5,100,142.0
7526,B1,520.5,0.5,100,142.0
7527,G#3,520.5,0.5,100,142.0
7528,A3,520.5,0.5,100,142.0
7529,C#4,520.5,0.5,100,142.0
7530,B-5,520.708,133/1000,82,142.0
7531,F#3,520.708,133/1000,82,142.0
7532,F#3,520.958,167/1000,66,142.0
7533,G#1,521.0,2/5,100,142.0
7534,G#2,521.0,0.5,100,142.0
7535,D2,521.0,1.0,115,142.0
7536,F#3,521.208,7/40,63,142.0
7537,F#3,521.458,167/1000,86,142.0
7538,B-5,521.458,167/1000,86,142.0
7539,F3,521.458,167/1000,86,142.0
7540,G#1,521.5,2/5,100,142.0
7541,G#2,521.5,0.5,100,142.0
7542,B1,521.5,0.5,100,142.0
7543,G#3,521.5,0.5,100,142.0
7544,A3,521.5,0.5,100,142.0
7545,C#4,521.5,0.5,100,142.0
7546,F#3,521.708,167/1000,82,142.0
7547,B-5,521.708,167/1000,82,142.0
7548,F3,521.958,521/500,100,142.0
7549,F#3,521.958,7/40,61,142.0
7550,G#1,522.0,2/5,100,142.0
7551,G#2,522.0,0.5,100,142.0
7552,B1,522.0,0.5,100,142.0
7553,F#3,522.208,167/1000,60,142.0
7554,B-5,522.458,79/500,78,142.0
7555,F#3,522.458,79/500,78,142.0
7556,G#1,522.5,2/5,100,142.0
7557,G#2,522.5,0.5,100,142.0
7558,B1,522.5,0.5,100,142.0
7559,F#3,522.5,0.5,100,142.0
7560,A3,522.5,0.5,100,142.0
7561,C#4,522.5,0.5,100,142.0
7562,F#3,522.708,167/1000,78,142.0
7563,B-5,522.708,167/1000,78,142.0
7564,F#3,522.958,26/125,56,142.0
7565,G#1,523.0,2/5,100,142.0
7566,G#2,523.0,0.5,100,142.0
7567,D2,523.0,1.0,115,142.0
7568,F#3,523.208,167/1000,60,142.0
7569,F#3,523.458,0.125,86,142.0
7570,F3,523.458,0.125,86,142.0
7571,B-5,523.458,0.125,86,142.0
7572,G#1,523.5,2/5,100,142.0
7573,G#2,523.5,0.5,100,142.0
7574,B1,523.5,0.5,100,142.0
7575,B-3,523.5,0.5,100,142.0
7576,B3,523.5,0.5,100,142.0
7577,E-4,523.5,0.5,100,142.0
7578,B-5,523.708,0.125,78,142.0
7579,F#3,523.708,0.125,78,142.0
7580,F3,523.958,21/500,100,142.0
7581,G#1,524.0,2/5,100,142.0
7582,G#2,524.0,0.5,100,142.0
7583,F#3,524.0,133/1000,66,142.0
7584,B1,524.0,0.5,100,142.0
7585,F3,524.0,479/500,100,142.0
7586,F#3,524.208,167/1000,58,142.0
7587,F#3,524.467,3/40,78,142.0
7588,B-5,524.467,3/40,78,142.0
7589,G#1,524.5,2/5,100,142.0
7590,G#2,524.5,0.5,100,142.0
7591,B1,524.5,0.5,100,142.0
7592,F#6,524.5,1.0,127,142.0
7593,B-3,524.5,0.5,100,142.0
7594,B3,524.5,0.5,100,142.0
7595,E-4,524.5,0.5,100,142.0
7596,B-5,524.708,133/1000,82,142.0
7597,F#3,524.708,133/1000,82,142.0
7598,F#3,524.958,167/1000,66,142.0
7599,G#1,525.0,2/5,100,142.0
7600,G#2,525.0,0.5,100,142.0
7601,D2,525.0,1.0,115,142.0
7602,F#3,525.208,7/40,63,142.0
7603,B-5,525.458,167/1000,86,142.0
7604,F3,525.458,167/1000,86,142.0
7605,F#3,525.458,167/1000,86,142.0
7606,G#1,525.5,2/5,100,142.0
7607,G#2,525.5,0.5,100,142.0
7608,B1,525.5,0.5,100,142.0
7609,F#5,525.5,0.5,127,142.0
7610,B-3,525.5,0.5,100,142.0
7611,B3,525.5,0.5,100,142.0
7612,E-4,525.5,0.5,100,142.0
7613,G#4,525.5,0.5,100,142.0
7614,E4,525.5,0.5,100,142.0
7615,G#4,525.5,0.5,100,142.0
7616,E4,525.5,0.5,100,142.0
7617,F#3,525.708,167/1000,82,142.0
7618,B-5,525.708,167/1000,82,142.0
7619,F#3,525.958,7/40,61,142.0
7620,F3,525.958,126/125,100,142.0
7621,G#1,526.0,2/5,100,142.0
7622,G#2,526.0,0.5,100,142.0
7623,B4,526.0,0.5,127,142.0
7624,C#5,526.0,0.5,100,142.0
7625,G#4,526.0,0.5,100,142.0
7626,B1,526.0,0.5,108,142.0
7627,D3,526.0,0.5,108,142.0
7628,C#5,526.0,0.5,100,142.0
7629,G#4,526.0,0.5,100,142.0
7630,F#3,526.208,167/1000,60,142.0
7631,B-5,526.458,79/500,78,142.0
7632,F#3,526.458,79/500,78,142.0
7633,E5,526.467,123/250,110,142.0
7634,G#1,526.5,2/5,100,142.0
7635,G#2,526.5,0.5,100,142.0
7636,B1,526.5,0.5,100,142.0
7637,A2,526.5,0.25,115,142.0
7638,E4,526.5,1.0,127,142.0
7639,E5,526.5,0.5,100,142.0
7640,C#5,526.5,0.5,100,142.0
7641,E5,526.5,0.5,100,142.0
7642,C#5,526.5,0.5,100,142.0
7643,F#3,526.708,167/1000,78,142.0
7644,B-5,526.708,167/1000,78,142.0
7645,A2,526.75,0.25,115,142.0
7646,F#3,526.958,26/125,56,142.0
7647,E-5,526.958,0.5,110,142.0
7648,B1,527.0,2/5,100,142.0
7649,B2,527.0,0.5,100,142.0
7650,D2,527.0,1.0,115,142.0
7651,F2,527.0,0.5,115,142.0
7652,F#5,527.0,0.5,100,142.0
7653,E-5,527.0,0.5,100,142.0
7654,F#5,527.0,0.5,100,142.0
7655,E-5,527.0,0.5,100,142.0
7656,F#3,527.208,167/1000,60,142.0
7657,F3,527.458,417/1000,100,142.0
7658,C#5,527.458,271/500,110,142.0
7659,B-5,527.458,167/1000,79,142.0
7660,F#3,527.458,167/1000,79,142.0
7661,A1,527.5,0.5,100,142.0
7662,A2,527.5,0.5,100,142.0
7663,E5,527.5,0.5,100,142.0
7664,G#5,527.5,0.5,100,142.0
7665,C#5,527.5,0.5,100,142.0
7666,B1,527.5,0.5,108,142.0
7667,C#3,527.5,0.5,108,142.0
7668,E5,527.5,0.5,100,142.0
7669,G#5,527.5,0.5,100,142.0
7670,C#5,527.5,0.5,100,142.0
7671,F#3,527.708,167/1000,78,142.0
7672,B-5,527.708,167/1000,78,142.0
7673,A1,528.0,0.5,100,142.0
7674,A2,528.0,0.5,100,142.0
7675,F#3,528.0,133/1000,66,142.0
7676,C#5,528.0,2467/1000,110,142.0
7677,F#3,528.208,167/1000,58,142.0
7678,F3,528.467,73/250,100,142.0
7679,F#3,528.467,3/40,78,142.0
7680,B-5,528.467,3/40,78,142.0
7681,A1,528.5,2/5,100,142.0
7682,A2,528.5,0.5,100,142.0
7683,B1,528.5,0.5,100,142.0
7684,G#5,528.5,0.5,100,142.0
7685,C#5,528.5,0.5,100,142.0
7686,E5,528.5,0.5,100,142.0
7687,G#5,528.5,0.5,100,142.0
7688,C#5,528.5,0.5,100,142.0
7689,E5,528.5,0.5,100,142.0
7690,F#3,528.708,133/1000,82,142.0
7691,B-5,528.708,133/1000,82,142.0
7692,F#3,528.958,167/1000,66,142.0
7693,A1,529.0,2/5,100,142.0
7694,A2,529.0,0.5,100,142.0
7695,D2,529.0,1.0,114,142.0
7696,E-5,529.0,0.5,100,142.0
7697,B4,529.0,0.5,100,142.0
7698,F#5,529.0,0.5,100,142.0
7699,E-5,529.0,0.5,100,142.0
7700,B4,529.0,0.5,100,142.0
7701,F#5,529.0,0.5,100,142.0
7702,F#3,529.208,7/40,63,142.0
7703,F3,529.458,0.125,86,142.0
7704,F#3,529.458,0.125,86,142.0
7705,B-5,529.458,0.125,86,142.0
7706,A1,529.5,2/5,100,142.0
7707,A2,529.5,0.5,100,142.0
7708,B1,529.5,0.5,100,142.0
7709,F#3,529.708,167/1000,82,142.0
7710,B-5,529.708,167/1000,82,142.0
7711,F#3,529.958,1/5,80,142.0
7712,F3,529.958,1/5,80,142.0
7713,A1,530.0,2/5,100,142.0
7714,A2,530.0,0.5,100,142.0
7715,B1,530.0,0.5,100,142.0
7716,C#5,530.0,0.5,100,142.0
7717,G#4,530.0,0.5,100,142.0
7718,E5,530.0,0.5,100,142.0
7719,C#5,530.0,0.5,100,142.0
7720,G#4,530.0,0.5,100,142.0
7721,E5,530.0,0.5,100,142.0
7722,F#3,530.208,167/1000,60,142.0
7723,F3,530.458,79/500,78,142.0
7724,F#3,530.458,79/500,78,142.0
7725,B-5,530.458,79/500,78,142.0
7726,F#3,530.458,79/500,78,142.0
7727,C#5,530.467,123/250,110,142.0
7728,A1,530.5,2/5,100,142.0
7729,A2,530.5,0.5,100,142.0
7730,B1,530.5,0.5,100,142.0
7731,F#3,530.708,167/1000,78,142.0
7732,B-5,530.708,167/1000,78,142.0
7733,F#3,530.958,26/125,56,142.0
7734,E-5,530.958,127/250,110,142.0
7735,A1,531.0,2/5,100,142.0
7736,A2,531.0,0.5,100,142.0
7737,D2,531.0,1.0,115,142.0
7738,B4,531.0,0.5,100,142.0
7739,G#4,531.0,0.5,100,142.0
7740,E-5,531.0,0.5,100,142.0
7741,B4,531.0,0.5,100,142.0
7742,G#4,531.0,0.5,100,142.0
7743,E-5,531.0,0.5,100,142.0
7744,F#3,531.208,167/1000,60,142.0
7745,F#3,531.458,7/40,86,142.0
7746,B-5,531.458,7/40,86,142.0
7747,F3,531.458,7/40,86,142.0
7748,E5,531.467,533/1000,110,142.0
7749,A1,531.5,2/5,100,142.0
7750,A2,531.5,0.5,100,142.0
7751,B1,531.5,0.5,100,142.0
7752,F#3,531.708,167/1000,78,142.0
7753,B-5,531.708,167/1000,78,142.0
7754,F3,531.958,21/500,83,142.0
7755,F#3,531.958,21/500,83,142.0
7756,A1,532.0,2/5,100,142.0
7757,A2,532.0,0.5,100,142.0
7758,B1,532.0,0.5,100,142.0
7759,E5,532.0,467/1000,110,142.0
7760,B4,532.0,0.5,100,142.0
7761,F#4,532.0,0.5,100,142.0
7762,E-5,532.0,0.5,100,142.0
7763,F3,532.0,23/250,83,142.0
7764,F#3,532.0,23/250,83,142.0
7765,B4,532.0,0.5,100,142.0
7766,F#4,532.0,0.5,100,142.0
7767,E-5,532.0,0.5,100,142.0
7768,F#3,532.208,167/1000,58,142.0
7769,F3,532.467,79/500,100,142.0
7770,G#5,532.467,124/125,110,142.0
7771,B-5,532.467,117/1000,78,142.0
7772,F#3,532.467,117/1000,78,142.0
7773,A1,532.5,2/5,100,142.0
7774,A2,532.5,0.5,100,142.0
7775,B1,532.5,0.5,100,142.0
7776,C#5,532.5,0.5,100,142.0
7777,G#4,532.5,0.5,100,142.0
7778,E5,532.5,0.5,100,142.0
7779,C#5,532.5,0.5,100,142.0
7780,G#4,532.5,0.5,100,142.0
7781,E5,532.5,0.5,100,142.0
7782,F#3,532.708,133/1000,82,142.0
7783,B-5,532.708,133/1000,82,142.0
7784,F#3,532.958,167/1000,66,142.0
7785,A1,533.0,2/5,100,142.0
7786,A2,533.0,0.5,100,142.0
7787,D2,533.0,1.0,115,142.0
7788,F#3,533.208,7/40,63,142.0
7789,F#5,533.458,1.0,110,142.0
7790,B-5,533.458,133/1000,86,142.0
7791,F#3,533.458,133/1000,86,142.0
7792,F3,533.458,133/1000,86,142.0
7793,A1,533.5,2/5,100,142.0
7794,A2,533.5,0.5,100,142.0
7795,B1,533.5,0.5,100,142.0
7796,E5,533.5,0.5,100,142.0
7797,G#4,533.5,0.5,100,142.0
7798,C#5,533.5,0.5,100,142.0
7799,E5,533.5,0.5,100,142.0
7800,G#4,533.5,0.5,100,142.0
7801,C#5,533.5,0.5,100,142.0
7802,F#3,533.708,167/1000,82,142.0
7803,B-5,533.708,167/1000,82,142.0
7804,F#3,533.958,167/1000,80,142.0
7805,F3,533.958,167/1000,80,142.0
7806,A1,534.0,2/5,100,142.0
7807,A2,534.0,0.5,100,142.0
7808,B1,534.0,0.5,100,142.0
7809,F#3,534.208,167/1000,60,142.0
7810,F3,534.458,129/500,100,142.0
7811,B-5,534.458,79/500,78,142.0
7812,F#3,534.458,79/500,78,142.0
7813,E5,534.467,123/250,110,142.0
7814,B1,534.5,2/5,100,142.0
7815,B2,534.5,0.5,100,142.0
7816,E-5,534.5,0.5,100,142.0
7817,B4,534.5,0.5,100,142.0
7818,F#5,534.5,0.5,100,142.0
7819,B1,534.5,0.5,114,142.0
7820,G3,534.5,0.5,114,142.0
7821,E-5,534.5,0.5,100,142.0
7822,B4,534.5,0.5,100,142.0
7823,F#5,534.5,0.5,100,142.0
7824,F#3,534.708,167/1000,78,142.0
7825,B-5,534.708,167/1000,78,142.0
7826,F#3,534.958,26/125,56,142.0
7827,E-5,534.967,0.5,110,142.0
7828,B1,535.0,2/5,100,142.0
7829,B2,535.0,0.5,100,142.0
7830,D2,535.0,1.0,115,142.0
7831,F#3,535.208,167/1000,60,142.0
7832,B-5,535.458,167/1000,79,142.0
7833,F#3,535.458,167/1000,79,142.0
7834,F3,535.467,26/125,100,142.0
7835,C#5,535.467,533/1000,110,142.0
7836,C#2,535.5,0.5,100,142.0
7837,C#3,535.5,0.5,100,142.0
7838,E5,535.5,0.5,100,142.0
7839,C#5,535.5,0.5,100,142.0
7840,G#5,535.5,0.5,100,142.0
7841,B1,535.5,0.5,108,142.0
7842,C#3,535.5,0.5,108,142.0
7843,E5,535.5,0.5,100,142.0
7844,C#5,535.5,0.5,100,142.0
7845,G#5,535.5,0.5,100,142.0
7846,F#3,535.708,167/1000,78,142.0
7847,B-5,535.708,167/1000,78,142.0
7848,C#2,536.0,0.5,100,142.0
7849,C#3,536.0,0.5,100,142.0
7850,F#3,536.0,133/1000,66,142.0
7851,C#5,536.0,967/1000,110,142.0
7852,F#3,536.208,167/1000,58,142.0
7853,F3,536.467,73/250,100,142.0
7854,F#3,536.467,3/40,78,142.0
7855,B-5,536.467,3/40,78,142.0
7856,C#2,536.5,2/5,100,142.0
7857,C#3,536.5,0.5,100,142.0
7858,B1,536.5,0.5,100,142.0
7859,G#5,536.5,0.5,100,142.0
7860,C#5,536.5,0.5,100,142.0
7861,E5,536.5,0.5,100,142.0
7862,G#5,536.5,0.5,100,142.0
7863,C#5,536.5,0.5,100,142.0
7864,E5,536.5,0.5,100,142.0
7865,F#3,536.708,133/1000,82,142.0
7866,B-5,536.708,133/1000,82,142.0
7867,F#3,536.958,167/1000,66,142.0
7868,B4,536.967,123/250,110,142.0
7869,C#2,537.0,2/5,100,142.0
7870,C#3,537.0,0.5,100,142.0
7871,D2,537.0,1.0,115,142.0
7872,E-5,537.0,0.5,100,142.0
7873,B4,537.0,0.5,100,142.0
7874,F#5,537.0,0.5,100,142.0
7875,E-5,537.0,0.5,100,142.0
7876,B4,537.0,0.5,100,142.0
7877,F#5,537.0,0.5,100,142.0
7878,F#3,537.208,7/40,63,142.0
7879,G#4,537.458,127/250,110,142.0
7880,F#3,537.458,133/1000,86,142.0
7881,B-5,537.458,133/1000,86,142.0
7882,F3,537.458,133/1000,86,142.0
7883,C#2,537.5,2/5,100,142.0
7884,C#3,537.5,0.5,100,142.0
7885,B1,537.5,0.5,100,142.0
7886,F#3,537.708,167/1000,82,142.0
7887,B-5,537.708,167/1000,82,142.0
7888,F#3,537.958,217/1000,80,142.0
7889,F3,537.958,217/1000,80,142.0
7890,B4,537.967,123/250,110,142.0
7891,C#2,538.0,2/5,100,142.0
7892,C#3,538.0,0.5,100,142.0
7893,B1,538.0,0.5,100,142.0
7894,C#5,538.0,0.5,100,142.0
7895,G#4,538.0,0.5,100,142.0
7896,E5,538.0,0.5,100,142.0
7897,C#5,538.0,0.5,100,142.0
7898,G#4,538.0,0.5,100,142.0
7899,E5,538.0,0.5,100,142.0
7900,F#3,538.208,167/1000,60,142.0
7901,B-5,538.458,79/500,78,142.0
7902,F#3,538.458,79/500,78,142.0
7903,F3,538.458,79/500,78,142.0
7904,F#3,538.458,79/500,78,142.0
7905,C#5,538.467,123/250,110,142.0
7906,C#2,538.5,2/5,100,142.0
7907,C#3,538.5,0.5,100,142.0
7908,B1,538.5,0.5,100,142.0
7909,F#3,538.708,167/1000,78,142.0
7910,B-5,538.708,167/1000,78,142.0
7911,F#3,538.958,26/125,56,142.0
7912,B4,538.958,127/250,110,142.0
7913,C#2,539.0,2/5,100,142.0
7914,C#3,539.0,0.5,100,142.0
7915,D2,539.0,1.0,115,142.0
7916,B4,539.0,0.5,100,142.0
7917,F#4,539.0,0.5,100,142.0
7918,E-5,539.0,0.5,100,142.0
7919,B4,539.0,0.5,100,142.0
7920,F#4,539.0,0.5,100,142.0
7921,E-5,539.0,0.5,100,142.0
7922,F#3,539.208,167/1000,60,142.0
7923,F#3,539.458,167/1000,86,142.0
7924,B-5,539.458,167/1000,86,142.0
7925,F3,539.458,167/1000,86,142.0
7926,C#2,539.5,2/5,100,142.0
7927,C#3,539.5,0.5,100,142.0
7928,B1,539.5,0.5,100,142.0
7929,B-5,539.708,0.125,78,142.0
7930,F#3,539.708,0.125,78,142.0
7931,F3,539.958,21/500,83,142.0
7932,F#3,539.958,21/500,83,142.0
7933,C#2,540.0,2/5,100,142.0
7934,C#3,540.0,0.5,100,142.0
7935,B1,540.0,0.5,100,142.0
7936,B4,540.0,1.5,100,142.0
7937,F#4,540.0,1.5,100,142.0
7938,E-5,540.0,1.5,100,142.0
7939,F3,540.0,23/250,83,142.0
7940,F#3,540.0,23/250,83,142.0
7941,B4,540.0,1.5,100,142.0
7942,F#4,540.0,1.5,100,142.0
7943,E-5,540.0,1.5,100,142.0
7944,F#3,540.208,167/1000,58,142.0
7945,F3,540.458,26/125,100,142.0
7946,F#3,540.467,3/40,78,142.0
7947,B-5,540.467,3/40,78,142.0
7948,C#2,540.5,2/5,100,142.0
7949,C#3,540.5,0.5,100,142.0
7950,B1,540.5,0.5,100,142.0
7951,F#3,540.708,133/1000,82,142.0
7952,B-5,540.708,133/1000,82,142.0
7953,F#3,540.958,167/1000,66,142.0
7954,C#2,541.0,2/5,100,142.0
7955,C#3,541.0,0.5,100,142.0
7956,D2,541.0,1.0,115,142.0
7957,F#3,541.208,7/40,63,142.0
7958,F#3,541.458,167/1000,86,142.0
7959,B-5,541.458,167/1000,86,142.0
7960,F3,541.458,167/1000,86,142.0
7961,C#2,541.5,2/5,100,142.0
7962,C#3,541.5,0.5,100,142.0
7963,B1,541.5,0.5,100,142.0
7964,C#5,541.5,0.5,100,142.0
7965,G#4,541.5,0.5,100,142.0
7966,E5,541.5,0.5,100,142.0
7967,C#5,541.5,0.5,100,142.0
7968,G#4,541.5,0.5,100,142.0
7969,E5,541.5,0.5,100,142.0
7970,F#3,541.708,167/1000,82,142.0
7971,B-5,541.708,167/1000,82,142.0
7972,E5,541.958,129/500,110,142.0
7973,F#3,541.958,26/125,80,142.0
7974,F3,541.958,26/125,80,142.0
7975,C#2,542.0,2/5,100,142.0
7976,C#3,542.0,0.5,100,142.0
7977,B1,542.0,0.5,100,142.0
7978,F#3,542.208,167/1000,60,142.0
7979,E5,542.217,0.25,110,142.0
7980,F3,542.458,0.25,100,142.0
7981,B-5,542.458,79/500,78,142.0
7982,F#3,542.458,79/500,78,142.0
7983,F#4,542.467,121/500,110,142.0
7984,B1,542.5,2/5,100,142.0
7985,B2,542.5,0.5,100,142.0
7986,E-5,542.5,0.5,100,142.0
7987,B4,542.5,0.5,100,142.0
7988,F#5,542.5,0.5,100,142.0
7989,B1,542.5,0.5,114,142.0
7990,G3,542.5,0.5,114,142.0
7991,E-5,542.5,0.5,100,142.0
7992,B4,542.5,0.5,100,142.0
7993,F#5,542.5,0.5,100,142.0
7994,G#4,542.708,0.25,110,142.0
7995,F#3,542.708,167/1000,78,142.0
7996,B-5,542.708,167/1000,78,142.0
7997,F#3,542.958,26/125,56,142.0
7998,B4,542.958,0.25,110,142.0
7999,B1,543.0,2/5,100,142.0
8000,B2,543.0,0.5,100,142.0
8001,D2,543.0,1.0,115,142.0
8002,F#3,543.208,167/1000,60,142.0
8003,C#5,543.208,0.25,110,142.0
8004,F3,543.458,26/125,100,142.0
8005,E5,543.458,0.25,110,142.0
8006,B-5,543.458,167/1000,79,142.0
8007,F#3,543.458,167/1000,79,142.0
8008,A1,543.5,0.5,100,142.0
8009,A2,543.5,0.5,100,142.0
8010,E5,543.5,0.5,100,142.0
8011,C#5,543.5,0.5,100,142.0
8012,G#5,543.5,0.5,100,142.0
8013,B1,543.5,0.5,108,142.0
8014,C#3,543.5,0.5,108,142.0
8015,E5,543.5,0.5,100,142.0
8016,C#5,543.5,0.5,100,142.0
8017,G#5,543.5,0.5,100,142.0
8018,F#5,543.708,73/250,110,142.0
8019,F#3,543.708,167/1000,78,142.0
8020,B-5,543.708,167/1000,78,142.0
8021,A1,544.0,0.5,100,142.0
8022,A2,544.0,0.5,100,142.0
8023,F#3,544.0,133/1000,66,142.0
8024,F#5,544.0,479/500,110,142.0
8025,F#3,544.208,167/1000,58,142.0
8026,F3,544.467,26/125,100,142.0
8027,F#3,544.467,3/40,78,142.0
8028,B-5,544.467,3/40,78,142.0
8029,A1,544.5,2/5,100,142.0
8030,A2,544.5,0.5,100,142.0
8031,B1,544.5,0.5,100,142.0
8032,G#5,544.5,0.5,100,142.0
8033,C#5,544.5,0.5,100,142.0
8034,E5,544.5,0.5,100,142.0
8035,G#5,544.5,0.5,100,142.0
8036,C#5,544.5,0.5,100,142.0
8037,E5,544.5,0.5,100,142.0
8038,B-5,544.708,133/1000,82,142.0
8039,F#3,544.708,133/1000,82,142.0
8040,F#3,544.958,167/1000,66,142.0
8041,E5,544.967,123/250,110,142.0
8042,A1,545.0,2/5,100,142.0
8043,A2,545.0,0.5,100,142.0
8044,D2,545.0,1.0,115,142.0
8045,E-5,545.0,0.5,100,142.0
8046,B4,545.0,0.5,100,142.0
8047,F#5,545.0,0.5,100,142.0
8048,E-5,545.0,0.5,100,142.0
8049,B4,545.0,0.5,100,142.0
8050,F#5,545.0,0.5,100,142.0
8051,F#3,545.208,7/40,63,142.0
8052,C#5,545.458,1.5,110,142.0
8053,F#3,545.458,167/1000,86,142.0
8054,B-5,545.458,167/1000,86,142.0
8055,F3,545.458,167/1000,86,142.0
8056,A1,545.5,2/5,100,142.0
8057,A2,545.5,0.5,100,142.0
8058,B1,545.5,0.5,100,142.0
8059,F#3,545.708,167/1000,82,142.0
8060,B-5,545.708,167/1000,82,142.0
8061,F#3,545.958,7/40,80,142.0
8062,F3,545.958,7/40,80,142.0
8063,A1,546.0,2/5,100,142.0
8064,A2,546.0,0.5,100,142.0
8065,B1,546.0,0.5,100,142.0
8066,C#5,546.0,0.5,100,142.0
8067,A4,546.0,0.5,100,142.0
8068,E5,546.0,0.5,100,142.0
8069,C#5,546.0,0.5,100,142.0
8070,A4,546.0,0.5,100,142.0
8071,E5,546.0,0.5,100,142.0
8072,F#3,546.208,167/1000,60,142.0
8073,F3,546.458,79/500,78,142.0
8074,F#3,546.458,79/500,78,142.0
8075,B-5,546.458,79/500,78,142.0
8076,F#3,546.458,79/500,78,142.0
8077,A1,546.5,2/5,100,142.0
8078,A2,546.5,0.5,100,142.0
8079,B1,546.5,0.5,100,142.0
8080,F#3,546.708,167/1000,78,142.0
8081,B-5,546.708,167/1000,78,142.0
8082,F#3,546.958,26/125,56,142.0
8083,B4,546.958,127/250,110,142.0
8084,A1,547.0,2/5,100,142.0
8085,A2,547.0,0.5,100,142.0
8086,D2,547.0,1.0,115,142.0
8087,B4,547.0,0.5,100,142.0
8088,F#4,547.0,0.5,100,142.0
8089,E-5,547.0,0.5,100,142.0
8090,B4,547.0,0.5,100,142.0
8091,F#4,547.0,0.5,100,142.0
8092,E-5,547.0,0.5,100,142.0
8093,F#3,547.208,167/1000,60,142.0
8094,B-5,547.458,167/1000,86,142.0
8095,F3,547.458,167/1000,86,142.0
8096,F#3,547.458,167/1000,86,142.0
8097,B4,547.467,0.5,110,142.0
8098,A1,547.5,2/5,100,142.0
8099,A2,547.5,0.5,100,142.0
8100,B1,547.5,0.5,100,142.0
8101,F#3,547.708,167/1000,78,142.0
8102,B-5,547.708,167/1000,78,142.0
8103,F3,547.958,21/500,83,142.0
8104,F#3,547.958,21/500,83,142.0
8105,B4,547.967,33/1000,110,142.0
8106,A1,548.0,2/5,100,142.0
8107,A2,548.0,0.5,100,142.0
8108,B1,548.0,0.5,100,142.0
8109,B4,548.0,229/500,110,142.0
8110,B4,548.0,0.5,100,142.0
8111,F#4,548.0,0.5,100,142.0
8112,E-5,548.0,0.5,100,142.0
8113,F3,548.0,23/250,83,142.0
8114,F#3,548.0,23/250,83,142.0
8115,B4,548.0,0.5,100,142.0
8116,F#4,548.0,0.5,100,142.0
8117,E-5,548.0,0.5,100,142.0
8118,F#3,548.208,167/1000,58,142.0
8119,F3,548.467,1/5,100,142.0
8120,C#5,548.467,123/250,110,142.0
8121,F#3,548.467,3/40,78,142.0
8122,B-5,548.467,3/40,78,142.0
8123,A1,548.5,2/5,100,142.0
8124,A2,548.5,0.5,100,142.0
8125,B1,548.5,0.5,100,142.0
8126,C#5,548.5,0.5,100,142.0
8127,G#4,548.5,0.5,100,142.0
8128,E5,548.5,0.5,100,142.0
8129,C#5,548.5,0.5,100,142.0
8130,G#4,548.5,0.5,100,142.0
8131,E5,548.5,0.5,100,142.0
8132,B-5,548.708,133/1000,82,142.0
8133,F#3,548.708,133/1000,82,142.0
8134,F#3,548.958,167/1000,66,142.0
8135,G#4,548.958,0.25,110,142.0
8136,A1,549.0,2/5,100,142.0
8137,A2,549.0,0.5,100,142.0
8138,D2,549.0,1.0,115,142.0
8139,F#3,549.208,7/40,63,142.0
8140,F#4,549.208,0.25,110,142.0
8141,F#3,549.458,117/1000,86,142.0
8142,B-5,549.458,117/1000,86,142.0
8143,F3,549.458,117/1000,86,142.0
8144,E4,549.467,123/250,110,142.0
8145,A1,549.5,2/5,100,142.0
8146,A2,549.5,0.5,100,142.0
8147,B1,549.5,0.5,100,142.0
8148,E5,549.5,0.5,100,142.0
8149,G#4,549.5,0.5,100,142.0
8150,C#5,549.5,0.5,100,142.0
8151,E5,549.5,0.5,100,142.0
8152,G#4,549.5,0.5,100,142.0
8153,C#5,549.5,0.5,100,142.0
8154,F#3,549.708,167/1000,82,142.0
8155,B-5,549.708,167/1000,82,142.0
8156,F#3,549.958,167/1000,80,142.0
8157,F3,549.958,167/1000,80,142.0
8158,G#4,549.967,123/250,110,142.0
8159,A1,550.0,2/5,100,142.0
8160,A2,550.0,0.5,100,142.0
8161,B1,550.0,0.5,100,142.0
8162,F#3,550.208,167/1000,60,142.0
8163,F#4,550.458,0.25,110,142.0
8164,F3,550.458,79/500,78,142.0
8165,F#3,550.458,79/500,78,142.0
8166,B-5,550.458,79/500,78,142.0
8167,F#3,550.458,79/500,78,142.0
8168,A1,550.5,2/5,100,142.0
8169,A2,550.5,0.5,100,142.0
8170,B1,550.5,0.5,100,142.0
8171,E-5,550.5,0.5,100,142.0
8172,B4,550.5,0.5,100,142.0
8173,F#4,550.5,0.5,100,142.0
8174,E-5,550.5,0.5,100,142.0
8175,B4,550.5,0.5,100,142.0
8176,F#4,550.5,0.5,100,142.0
8177,E4,550.708,129/500,110,142.0
8178,F#3,550.708,167/1000,78,142.0
8179,B-5,550.708,167/1000,78,142.0
8180,F#3,550.958,26/125,56,142.0
8181,G#4,550.967,0.5,110,142.0
8182,A1,551.0,2/5,100,142.0
8183,A2,551.0,0.5,100,142.0
8184,D2,551.0,1.0,115,142.0
8185,F#3,551.208,167/1000,60,142.0
8186,F3,551.458,271/500,100,142.0
8187,B-5,551.458,167/1000,79,142.0
8188,F#3,551.458,167/1000,79,142.0
8189,G#4,551.467,123/250,110,142.0
8190,G#1,551.5,0.5,100,142.0
8191,G#2,551.5,0.5,100,142.0
8192,E-4,551.5,0.5,100,142.0
8193,C#4,551.5,0.5,100,142.0
8194,G#4,551.5,0.5,100,142.0
8195,B1,551.5,0.5,108,142.0
8196,A3,551.5,0.5,108,142.0
8197,E-4,551.5,0.5,100,142.0
8198,C#4,551.5,0.5,100,142.0
8199,G#4,551.5,0.5,100,142.0
8200,F#3,551.708,167/1000,78,142.0
8201,B-5,551.708,167/1000,78,142.0
8202,G#4,551.958,21/500,110,142.0
8203,G#1,552.0,0.5,100,142.0
8204,G#2,552.0,0.5,100,142.0
8205,F#3,552.0,133/1000,66,142.0
8206,F3,552.0,37/40,100,142.0
8207,G#4,552.0,467/1000,110,142.0
8208,E-4,552.0,2.0,100,142.0
8209,C#4,552.0,2.0,100,142.0
8210,G#4,552.0,2.0,100,142.0
8211,E-4,552.0,2.0,100,142.0
8212,C#4,552.0,2.0,100,142.0
8213,G#4,552.0,2.0,100,142.0
8214,F#3,552.208,167/1000,58,142.0
8215,F#4,552.467,0.25,110,142.0
8216,F#3,552.467,3/40,78,142.0
8217,B-5,552.467,3/40,78,142.0
8218,G#1,552.5,2/5,100,142.0
8219,G#2,552.5,0.5,100,142.0
8220,B1,552.5,0.5,100,142.0
8221,F#3,552.708,133/1000,82,142.0
8222,B-5,552.708,133/1000,82,142.0
8223,E4,552.717,121/500,110,142.0
8224,F#3,552.958,167/1000,66,142.0
8225,G#4,552.958,0.5,110,142.0
8226,G#1,553.0,2/5,100,142.0
8227,G#2,553.0,0.5,100,142.0
8228,D2,553.0,1.0,115,142.0
8229,F#3,553.208,7/40,63,142.0
8230,F#4,553.458,129/500,110,142.0
8231,F#3,553.458,167/1000,86,142.0
8232,B-5,553.458,167/1000,86,142.0
8233,F3,553.458,167/1000,86,142.0
8234,G#1,553.5,2/5,100,142.0
8235,G#2,553.5,0.5,100,142.0
8236,B1,553.5,0.5,100,142.0
8237,F#3,553.708,167/1000,82,142.0
8238,B-5,553.708,167/1000,82,142.0
8239,E4,553.717,121/500,110,142.0
8240,F3,553.958,521/500,100,142.0
8241,F#3,553.958,7/40,61,142.0
8242,G#4,553.967,123/250,110,142.0
8243,G#1,554.0,2/5,100,142.0
8244,G#2,554.0,0.5,100,142.0
8245,B1,554.0,0.5,100,142.0
8246,F#3,554.208,167/1000,60,142.0
8247,F#4,554.458,0.25,110,142.0
8248,B-5,554.458,79/500,78,142.0
8249,F#3,554.458,79/500,78,142.0
8250,G#1,554.5,2/5,100,142.0
8251,G#2,554.5,0.5,100,142.0
8252,B1,554.5,0.5,100,142.0
8253,E4,554.708,129/500,110,142.0
8254,F#3,554.708,167/1000,78,142.0
8255,B-5,554.708,167/1000,78,142.0
8256,F#3,554.958,26/125,56,142.0
8257,G#4,554.967,0.5,110,142.0
8258,G#1,555.0,2/5,100,142.0
8259,G#2,555.0,0.5,100,142.0
8260,D2,555.0,1.0,115,142.0
8261,F#3,555.208,167/1000,60,142.0
8262,F#3,555.458,167/1000,86,142.0
8263,B-5,555.458,167/1000,86,142.0
8264,F3,555.458,167/1000,86,142.0
8265,F#4,555.467,121/500,110,142.0
8266,G#1,555.5,2/5,100,142.0
8267,G#2,555.5,0.5,100,142.0
8268,B1,555.5,0.5,100,142.0
8269,E4,555.708,0.25,110,142.0
8270,F#3,555.708,167/1000,78,142.0
8271,B-5,555.708,167/1000,78,142.0
8272,F3,555.958,21/500,100,142.0
8273,E-5,555.958,21/500,110,142.0
8274,G#1,556.0,2/5,100,142.0
8275,G#2,556.0,0.5,100,142.0
8276,B1,556.0,0.5,100,142.0
8277,F#3,556.0,133/1000,66,142.0
8278,F3,556.0,479/500,100,142.0
8279,E-5,556.0,467/1000,110,142.0
8280,F#3,556.208,167/1000,58,142.0
8281,C#5,556.467,79/500,110,142.0
8282,B-5,556.467,117/1000,78,142.0
8283,F#3,556.467,117/1000,78,142.0
8284,G#1,556.5,2/5,100,142.0
8285,G#2,556.5,0.5,100,142.0
8286,B1,556.5,0.5,100,142.0
8287,B4,556.625,167/1000,110,142.0
8288,F#3,556.708,133/1000,82,142.0
8289,B-5,556.708,133/1000,82,142.0
8290,G#4,556.792,167/1000,110,142.0
8291,F#3,556.958,167/1000,66,142.0
8292,E-5,556.958,0.5,110,142.0
8293,G#1,557.0,2/5,100,142.0
8294,G#2,557.0,0.5,100,142.0
8295,D2,557.0,1.0,115,142.0
8296,F#3,557.208,7/40,63,142.0
8297,C#5,557.458,167/1000,110,142.0
8298,F#3,557.458,167/1000,86,142.0
8299,B-5,557.458,167/1000,86,142.0
8300,F3,557.458,167/1000,86,142.0
8301,G#1,557.5,2/5,100,142.0
8302,G#2,557.5,0.5,100,142.0
8303,B1,557.5,0.5,100,142.0
8304,B4,557.625,7/40,110,142.0
8305,F#3,557.708,167/1000,82,142.0
8306,B-5,557.708,167/1000,82,142.0
8307,G#4,557.8,167/1000,110,142.0
8308,F3,557.958,126/125,100,142.0
8309,F#3,557.958,7/40,61,142.0
8310,E-5,557.967,123/250,110,142.0
8311,G#1,558.0,2/5,100,142.0
8312,G#2,558.0,0.5,100,142.0
8313,B1,558.0,0.5,108,142.0
8314,D3,558.0,0.5,108,142.0
8315,F#3,558.208,167/1000,60,142.0
8316,G#4,558.458,0.5,110,142.0
8317,B-5,558.458,79/500,78,142.0
8318,F#3,558.458,79/500,78,142.0
8319,G#1,558.5,2/5,100,142.0
8320,G#5,558.5,0.5,100,142.0
8321,G#2,558.5,0.5,100,142.0
8322,G#5,558.5,0.5,100,142.0
8323,B1,558.5,0.5,100,142.0
8324,A2,558.5,0.25,115,142.0
8325,G#5,558.5,0.5,100,142.0
8326,G#4,558.5,0.5,100,142.0
8327,F#3,558.708,167/1000,78,142.0
8328,B-5,558.708,167/1000,78,142.0
8329,A2,558.75,0.25,115,142.0
8330,F#3,558.958,26/125,56,142.0
8331,B4,558.958,127/250,110,142.0
8332,B1,559.0,2/5,100,142.0
8333,B5,559.0,0.5,100,142.0
8334,B2,559.0,0.5,100,142.0
8335,B5,559.0,0.5,100,142.0
8336,F2,559.0,0.5,115,142.0
8337,B1,559.0,1.0,108,142.0
8338,D2,559.0,1.0,108,142.0
8339,B5,559.0,0.5,100,142.0
8340,B4,559.0,0.5,100,142.0
8341,F#3,559.208,167/1000,60,142.0
8342,F3,559.458,417/1000,100,142.0
8343,F#3,559.458,0.125,79,142.0
8344,B-5,559.458,0.125,79,142.0
8345,C#5,559.467,123/250,110,142.0
8346,C#2,559.5,0.5,100,142.0
8347,C#6,559.5,0.5,100,142.0
8348,C#3,559.5,0.5,100,142.0
8349,C#6,559.5,0.5,100,142.0
8350,B1,559.5,0.5,108,142.0
8351,A3,559.5,0.5,108,142.0
8352,C#6,559.5,0.5,100,142.0
8353,C#5,559.5,0.5,100,142.0
8354,F#3,559.708,167/1000,78,142.0
8355,B-5,559.708,167/1000,78,142.0
8356,G#5,562.5,0.5,100,142.0
8357,B5,563.0,0.5,100,142.0
8358,C#6,563.5,0.5,100,142.0
8359,G#5,590.5,0.5,100,142.0
8360,G#4,590.5,0.5,100,142.0
8361,B5,591.0,0.5,100,142.0
8362,B4,591.0,0.5,100,142.0
8363,C#6,591.5,0.5,100,142.0
8364,C#5,591.5,0.5,100,142.0
