,note_name,start_time,duration,velocity,tempo
0,B3,1.5,0.5,95,120.0
1,D4,2.0,333/1000,95,120.0
2,E4,2.333,333/1000,95,120.0
3,A4,2.667,333/1000,95,120.0
4,G4,3.0,333/1000,95,120.0
5,G#4,3.333,333/1000,70,120.0
6,E4,3.667,333/1000,95,120.0
7,E2,4.0,0.5,95,120.0
8,D4,4.5,0.5,95,120.0
9,B4,5.0,333/1000,95,120.0
10,G#3,5.0,333/1000,95,120.0
11,A4,5.333,333/1000,95,120.0
12,D4,5.667,333/1000,95,120.0
13,G4,6.0,0.5,95,120.0
14,E2,6.0,0.5,95,120.0
15,E4,6.5,0.5,95,120.0
16,D4,7.0,1.0,95,120.0
17,G#3,7.0,1.0,95,120.0
18,E5,8.0,1.0,95,120.0
19,G4,8.0,1.0,95,120.0
20,C#4,8.0,1.0,95,120.0
21,A2,8.0,1.0,95,120.0
22,D5,9.0,0.5,95,120.0
23,C#4,9.0,0.5,95,120.0
24,G4,9.5,0.5,95,120.0
25,B-4,10.0,333/1000,95,120.0
26,E2,10.0,333/1000,95,120.0
27,A4,10.333,333/1000,95,120.0
28,G4,10.667,333/1000,95,120.0
29,A4,11.0,0.5,95,120.0
30,C#4,11.0,0.5,95,120.0
31,E4,11.5,0.5,95,120.0
32,E2,12.0,0.5,95,120.0
33,D4,12.5,0.5,95,120.0
34,B4,13.0,333/1000,95,120.0
35,G#3,13.0,333/1000,95,120.0
36,A4,13.333,333/1000,70,120.0
37,D4,13.667,333/1000,95,120.0
38,G4,14.0,0.5,95,120.0
39,E2,14.0,0.5,95,120.0
40,E4,14.5,0.5,95,120.0
41,G#3,15.0,0.5,95,120.0
42,B-3,15.5,0.5,95,120.0
43,E4,16.0,0.5,95,120.0
44,G2,16.0,0.5,95,120.0
45,D4,16.5,0.5,95,120.0
46,B-3,17.0,0.5,95,120.0
47,D3,17.0,0.5,95,120.0
48,B3,17.5,0.5,95,120.0
49,D4,18.0,333/1000,95,120.0
50,E4,18.333,333/1000,95,120.0
51,A4,18.667,333/1000,95,120.0
52,G4,19.0,333/1000,95,120.0
53,G#4,19.333,333/1000,70,120.0
54,E4,19.667,333/1000,95,120.0
55,E2,20.0,0.5,95,120.0
56,D4,20.5,0.5,95,120.0
57,B4,21.0,333/1000,95,120.0
58,G#3,21.0,333/1000,95,120.0
59,A4,21.333,333/1000,95,120.0
60,D4,21.667,333/1000,95,120.0
61,G4,22.0,0.5,95,120.0
62,E2,22.0,0.5,95,120.0
63,E4,22.5,0.5,95,120.0
64,D4,23.0,1.0,95,120.0
65,G#3,23.0,1.0,95,120.0
66,E5,24.0,1.0,95,120.0
67,G4,24.0,1.0,95,120.0
68,C#4,24.0,1.0,95,120.0
69,A2,24.0,1.0,95,120.0
70,D5,25.0,0.5,95,120.0
71,C#4,25.0,0.5,95,120.0
72,G4,25.5,0.5,95,120.0
73,B-4,26.0,333/1000,95,120.0
74,E2,26.0,333/1000,95,120.0
75,A4,26.333,333/1000,95,120.0
76,G4,26.667,333/1000,95,120.0
77,A4,27.0,0.5,95,120.0
78,C#4,27.0,0.5,95,120.0
79,D3,27.5,0.5,95,120.0
80,E4,28.0,0.5,95,120.0
81,C4,28.0,0.5,95,120.0
82,E4,28.5,0.5,95,120.0
83,B3,28.5,0.5,95,120.0
84,C#3,29.0,0.5,95,120.0
85,A2,29.5,0.5,95,120.0
86,E4,30.0,0.5,95,120.0
87,B-3,30.0,0.5,95,120.0
88,E4,30.5,0.5,95,120.0
89,A3,30.5,0.5,95,120.0
90,B2,30.5,0.5,95,120.0
91,E4,31.5,0.5,95,120.0
92,G3,31.5,0.5,95,120.0
93,E2,31.5,0.5,95,120.0
94,G#3,32.0,1.0,70,120.0
95,E3,33.0,0.5,95,120.0
96,G#3,33.5,0.5,95,120.0
97,D4,34.0,333/1000,95,120.0
98,G4,34.333,333/1000,95,120.0
99,E4,34.667,333/1000,95,120.0
100,G4,35.0,0.5,95,120.0
101,E4,35.5,0.5,95,120.0
102,A2,36.0,0.5,95,120.0
103,C#4,36.5,0.5,95,120.0
104,G3,36.5,0.5,95,120.0
105,E4,37.0,0.5,95,120.0
106,B-4,37.5,0.5,95,120.0
107,A4,38.0,0.5,82,120.0
108,B2,38.0,0.5,82,120.0
109,B3,38.5,0.5,95,120.0
110,E-4,39.0,0.5,95,120.0
111,A3,39.0,0.5,95,120.0
112,E4,39.5,0.5,95,120.0
113,E2,40.0,0.5,95,120.0
114,D4,40.5,0.5,95,120.0
115,G#3,40.5,0.5,95,120.0
116,E4,41.0,0.5,95,120.0
117,G#3,41.5,0.5,95,120.0
118,D4,42.0,333/1000,95,120.0
119,G4,42.333,333/1000,95,120.0
120,E4,42.667,333/1000,95,120.0
121,G4,43.0,0.5,95,120.0
122,E4,43.5,0.5,95,120.0
123,A2,44.0,0.5,95,120.0
124,C#4,44.5,0.5,95,120.0
125,G3,44.5,0.5,95,120.0
126,E4,45.0,0.5,95,120.0
127,B-4,45.5,0.5,95,120.0
128,A4,46.0,0.5,82,120.0
129,B2,46.0,0.5,82,120.0
130,B3,46.5,0.5,95,120.0
131,E-4,47.0,0.5,95,120.0
132,A3,47.0,0.5,95,120.0
133,E4,47.5,0.5,95,120.0
134,E2,48.0,0.5,95,120.0
135,D4,48.5,0.5,95,120.0
136,G#3,48.5,0.5,95,120.0
137,E4,49.0,0.5,95,120.0
138,G#3,49.5,0.5,95,120.0
139,D4,50.0,333/1000,95,120.0
140,G4,50.333,333/1000,95,120.0
141,E4,50.667,333/1000,95,120.0
142,G4,51.0,0.5,95,120.0
143,E4,51.5,0.5,95,120.0
144,A2,52.0,0.5,95,120.0
145,C#4,52.5,0.5,95,120.0
146,G3,52.5,0.5,95,120.0
147,E4,53.0,0.5,95,120.0
148,B-4,53.5,0.5,95,120.0
149,A4,54.0,0.5,82,120.0
150,B2,54.0,0.5,82,120.0
151,B3,54.5,0.5,95,120.0
152,E-4,55.0,0.5,95,120.0
153,A3,55.0,0.5,95,120.0
154,E4,55.5,0.5,95,120.0
155,E2,56.0,0.5,95,120.0
156,B2,56.5,0.5,95,120.0
157,C3,57.0,1.0,70,120.0
158,C#3,58.0,0.5,95,120.0
159,C#4,58.5,0.5,95,120.0
160,B3,58.5,0.5,95,120.0
161,F3,58.5,0.5,95,120.0
162,E4,59.0,0.5,95,120.0
163,C#4,59.5,0.5,95,120.0
164,B3,59.5,0.5,95,120.0
165,A3,60.0,0.5,95,120.0
166,F#2,60.0,0.5,95,120.0
167,B-3,60.5,0.5,70,120.0
168,A3,61.0,0.5,95,120.0
169,G2,61.0,0.5,95,120.0
170,G3,61.5,0.5,95,120.0
171,A3,62.0,0.5,95,120.0
172,A2,62.0,0.5,95,120.0
173,B-3,62.5,0.5,95,120.0
174,A3,63.0,0.5,95,120.0
175,B-2,63.0,0.5,95,120.0
176,G3,63.5,0.5,95,120.0
177,B2,63.5,0.5,95,120.0
178,B3,65.0,1.0,95,120.0
179,G#3,65.0,1.0,95,120.0
180,D3,65.0,1.0,95,120.0
181,D4,66.0,0.5,95,120.0
182,A3,66.0,0.5,95,120.0
183,E-3,66.0,0.5,95,120.0
184,B2,66.0,0.5,95,120.0
185,E4,66.5,0.5,95,120.0
186,E-3,67.0,1.0,95,120.0
187,E2,68.0,1.0,95,120.0
188,E3,69.0,0.5,95,120.0
189,A2,69.5,0.5,95,120.0
190,B2,70.0,0.5,70,120.0
191,G3,70.5,0.5,95,120.0
192,G#3,71.0,0.25,70,120.0
193,G3,71.25,0.25,70,120.0
194,G#3,71.5,0.25,70,120.0
195,G3,71.75,0.25,70,120.0
196,A2,72.0,1.0,95,120.0
197,C#4,73.0,0.5,95,120.0
198,G3,73.0,0.5,95,120.0
199,E3,73.0,0.5,95,120.0
200,A3,73.5,0.5,70,120.0
201,E2,74.0,0.5,95,120.0
202,G3,74.5,0.5,95,120.0
203,E3,75.0,0.5,95,120.0
204,B3,75.5,0.5,95,120.0
205,G3,75.5,0.5,95,120.0
206,E2,76.0,1.0,95,120.0
207,E3,77.0,0.5,95,120.0
208,A2,77.5,0.5,95,120.0
209,B2,78.0,0.5,70,120.0
210,G3,78.5,0.5,95,120.0
211,G#3,79.0,0.25,70,120.0
212,G3,79.25,0.25,70,120.0
213,G#3,79.5,0.25,70,120.0
214,G3,79.75,0.25,70,120.0
215,A2,80.0,1.0,95,120.0
216,C#4,81.0,0.5,95,120.0
217,G3,81.0,0.5,95,120.0
218,E3,81.0,0.5,95,120.0
219,A3,81.5,0.5,70,120.0
220,E2,82.0,0.5,95,120.0
221,G3,82.5,0.5,95,120.0
222,E3,83.0,0.5,95,120.0
223,B3,83.5,0.5,95,120.0
224,G3,83.5,0.5,95,120.0
225,E4,84.0,1.0,95,120.0
226,C4,84.0,1.0,95,120.0
227,D3,84.0,1.0,95,120.0
228,E4,85.0,0.5,95,120.0
229,B3,85.0,0.5,95,120.0
230,C#3,85.0,0.5,95,120.0
231,A2,85.5,0.5,95,120.0
232,E4,86.0,0.5,95,120.0
233,B-3,86.0,0.5,95,120.0
234,E4,86.5,0.5,95,120.0
235,A3,86.5,0.5,95,120.0
236,A2,86.5,0.5,95,120.0
237,E4,87.5,0.5,95,120.0
238,G3,87.5,0.5,95,120.0
239,E2,87.5,0.5,95,120.0
240,G#3,88.0,1.0,70,120.0
241,B3,89.0,1.0,95,120.0
242,G#3,89.0,1.0,95,120.0
243,D3,89.0,1.0,95,120.0
244,D4,90.0,0.5,95,120.0
245,A3,90.0,0.5,95,120.0
246,E-3,90.0,0.5,95,120.0
247,B2,90.0,0.5,95,120.0
248,E4,90.5,0.5,95,120.0
249,E-3,91.0,1.0,95,120.0
250,E2,92.0,1.0,95,120.0
251,B4,93.0,0.953,95,120.0
252,G4,93.0,0.953,95,120.0
253,D4,93.0,0.953,95,120.0
254,G#3,93.0,0.953,95,120.0
255,E2,94.0,1.0,95,120.0
256,G#3,95.0,1.0,95,120.0
257,A2,96.0,1.0,95,120.0
258,A4,97.0,333/1000,95,120.0
259,E4,97.0,333/1000,95,120.0
260,C#4,97.0,333/1000,95,120.0
261,G3,97.0,333/1000,95,120.0
262,B-4,97.333,333/1000,70,120.0
263,A4,97.667,333/1000,95,120.0
264,E4,97.667,333/1000,95,120.0
265,C#4,97.667,333/1000,95,120.0
266,E2,98.0,1.0,95,120.0
267,G3,99.0,1.0,95,120.0
268,E2,100.0,1.0,95,120.0
269,B4,101.0,1.0,95,120.0
270,G4,101.0,1.0,95,120.0
271,D4,101.0,1.0,95,120.0
272,G#3,101.0,1.0,95,120.0
273,B4,102.0,0.5,95,120.0
274,G4,102.0,0.5,95,120.0
275,D4,102.0,0.5,95,120.0
276,E2,102.0,0.5,95,120.0
277,B4,102.5,0.5,95,120.0
278,G4,102.5,0.5,95,120.0
279,D4,102.5,0.5,95,120.0
280,G#3,103.0,1.0,95,120.0
281,A2,104.0,1.0,95,120.0
282,A4,105.0,333/1000,95,120.0
283,E4,105.0,333/1000,95,120.0
284,C#4,105.0,333/1000,95,120.0
285,G3,105.0,333/1000,95,120.0
286,B-4,105.333,333/1000,70,120.0
287,A4,105.667,333/1000,95,120.0
288,E4,105.667,333/1000,95,120.0
289,C#4,105.667,333/1000,95,120.0
290,E2,106.0,1.0,95,120.0
291,G3,107.0,1.0,95,120.0
292,E2,108.0,1.0,95,120.0
293,B4,109.0,1.0,95,120.0
294,G4,109.0,1.0,95,120.0
295,D4,109.0,1.0,95,120.0
296,G#3,109.0,1.0,95,120.0
297,E2,110.0,0.5,95,120.0
298,B4,110.5,0.5,95,120.0
299,G4,110.5,0.5,95,120.0
300,D4,110.5,0.5,95,120.0
301,G#3,111.0,1.0,95,120.0
302,A2,112.0,1.0,95,120.0
303,A4,113.0,333/1000,95,120.0
304,E4,113.0,333/1000,95,120.0
305,C#4,113.0,333/1000,95,120.0
306,G#3,113.0,333/1000,95,120.0
307,B-4,113.333,333/1000,70,120.0
308,A4,113.667,333/1000,95,120.0
309,E4,113.667,333/1000,95,120.0
310,C#4,113.667,333/1000,95,120.0
311,E2,114.0,1.0,95,120.0
312,G3,115.0,0.5,95,120.0
313,D3,115.5,0.5,95,120.0
314,E4,116.0,0.5,95,120.0
315,C4,116.0,0.5,95,120.0
316,E4,116.5,0.5,95,120.0
317,B3,116.5,0.5,95,120.0
318,C#3,117.0,0.5,95,120.0
319,A2,117.5,0.5,95,120.0
320,E4,118.0,0.5,95,120.0
321,B-3,118.0,0.5,95,120.0
322,E4,118.5,0.5,95,120.0
323,A3,118.5,0.5,95,120.0
324,B2,118.5,0.5,95,120.0
325,E4,119.5,0.5,95,120.0
326,G3,119.5,0.5,95,120.0
327,E2,119.5,0.5,95,120.0
328,G#3,120.0,4.0,70,120.0
