,note_name,start_time,duration,velocity,tempo
0,D3,3.0,0.25,95,80.0
1,E3,3.25,0.25,95,80.0
2,G#3,3.5,0.25,95,80.0
3,A3,3.75,0.25,95,80.0
4,B3,4.0,1.25,95,80.0
5,E1,4.5,1.5,95,80.0
6,C#4,5.25,0.25,95,80.0
7,B3,5.5,0.25,95,80.0
8,A3,5.75,1.5,95,80.0
9,D2,6.0,0.75,95,80.0
10,D2,6.75,0.25,95,80.0
11,F3,7.125,0.125,95,80.0
12,F#3,7.25,0.25,95,80.0
13,A3,7.5,0.25,95,80.0
14,A3,7.75,0.25,95,80.0
15,G#3,8.0,0.75,95,80.0
16,E1,8.25,1.75,95,80.0
17,G#3,8.75,0.25,95,80.0
18,B3,9.0,0.5,95,80.0
19,G#3,9.5,0.25,95,80.0
20,F#3,9.75,1.25,95,80.0
21,D2,10.0,0.75,95,80.0
22,D2,10.75,0.25,95,80.0
23,B2,10.875,0.125,95,80.0
24,C#3,11.0,0.5,95,80.0
25,E3,11.5,0.25,95,80.0
26,E3,11.75,0.25,95,80.0
27,E3,12.0,1.25,95,80.0
28,A1,12.0,0.75,95,80.0
29,A1,12.75,1.25,95,80.0
30,F#3,13.25,0.25,95,80.0
31,E3,13.5,0.25,95,80.0
32,D3,13.75,1.25,95,80.0
33,F2,14.0,0.75,95,80.0
34,F2,14.75,0.5,95,80.0
35,D3,15.0,0.25,95,80.0
36,E3,15.25,0.25,95,80.0
37,D3,15.5,0.25,95,80.0
38,C#3,15.75,0.25,95,80.0
39,C#3,16.0,0.75,95,80.0
40,A1,16.0,1.75,95,80.0
41,B2,16.75,0.25,95,80.0
42,D3,17.0,0.25,95,80.0
43,C#3,17.25,0.25,95,80.0
44,B2,17.5,1.5,95,80.0
45,E1,17.75,1.25,95,80.0
46,D3,19.0,0.25,95,80.0
47,E3,19.25,0.25,95,80.0
48,G#3,19.5,0.25,95,80.0
49,A3,19.75,0.25,95,80.0
50,B3,20.0,1.25,95,80.0
51,E1,20.5,1.5,95,80.0
52,C#4,21.25,0.25,95,80.0
53,B3,21.5,0.25,95,80.0
54,A3,21.75,1.5,95,80.0
55,D2,22.0,0.75,95,80.0
56,D2,22.75,0.25,95,80.0
57,F3,23.125,0.125,95,80.0
58,F#3,23.25,0.25,95,80.0
59,A3,23.5,0.25,95,80.0
60,A3,23.75,0.25,95,80.0
61,G#3,24.0,0.75,95,80.0
62,E1,24.25,1.75,95,80.0
63,G#3,24.75,0.25,95,80.0
64,B3,25.0,0.5,95,80.0
65,G#3,25.5,0.25,95,80.0
66,F#3,25.75,1.25,95,80.0
67,D2,26.0,0.75,95,80.0
68,D2,26.75,0.25,95,80.0
69,B2,26.875,0.125,95,80.0
70,C#3,27.0,0.5,95,80.0
71,E3,27.5,0.25,95,80.0
72,E3,27.75,0.25,95,80.0
73,E3,28.0,1.25,95,80.0
74,A1,28.0,0.75,95,80.0
75,A1,28.75,1.25,95,80.0
76,F#3,29.25,0.25,95,80.0
77,E3,29.5,0.25,95,80.0
78,D3,29.75,1.25,95,80.0
79,F2,30.0,0.75,95,80.0
80,F2,30.75,0.5,95,80.0
81,D3,31.0,0.25,95,80.0
82,E3,31.25,0.25,95,80.0
83,D3,31.5,0.25,95,80.0
84,C#3,31.75,0.25,95,80.0
85,C#3,32.0,0.75,95,80.0
86,A1,32.0,1.5,95,80.0
87,B2,32.75,0.25,95,80.0
88,D3,33.0,0.25,95,80.0
89,C#3,33.25,0.25,95,80.0
90,B2,33.5,1.5,95,80.0
91,E1,33.75,1.25,95,80.0
92,E2,35.0,0.25,95,80.0
93,F#2,35.25,0.25,95,80.0
94,G#2,35.5,0.25,95,80.0
95,B2,35.75,0.25,95,80.0
96,C#3,36.0,0.5,95,80.0
97,A1,36.25,0.75,95,80.0
98,E3,36.5,0.25,95,80.0
99,F#3,36.75,0.75,95,80.0
100,D2,37.0,0.75,95,80.0
101,F#3,37.5,0.25,95,80.0
102,G#3,37.75,1.25,95,80.0
103,E1,37.75,1.25,95,80.0
104,G#3,39.0,0.25,95,80.0
105,A3,39.25,0.25,95,80.0
106,G#3,39.5,0.25,95,80.0
107,F#3,39.75,0.25,95,80.0
108,F#3,40.0,1.75,95,80.0
109,D2,40.0,1.75,95,80.0
110,F#3,41.75,0.25,95,80.0
111,E3,42.0,0.25,95,80.0
112,G2,42.25,1.0,95,80.0
113,E3,42.5,0.75,95,80.0
114,D3,43.25,0.5,95,80.0
115,F2,43.25,0.5,95,80.0
116,G2,43.75,0.25,95,80.0
117,C#3,44.0,1.0,95,80.0
118,A1,44.75,1.25,95,80.0
119,C#3,45.25,0.25,95,80.0
120,G2,45.75,0.25,95,80.0
121,B2,46.0,1.0,95,80.0
122,E1,46.5,0.5,95,80.0
123,B2,47.25,0.25,95,80.0
124,E2,48.5,0.25,95,80.0
125,B1,48.75,0.25,95,80.0
126,E1,49.0,2.0,95,80.0
127,E2,51.0,0.25,95,80.0
128,F#2,51.25,0.25,95,80.0
129,G#2,51.5,0.25,95,80.0
130,B2,51.75,0.25,95,80.0
131,C#3,52.0,0.5,95,80.0
132,A1,52.25,0.75,95,80.0
133,E3,52.5,0.25,95,80.0
134,F#3,52.75,0.75,95,80.0
135,D2,53.0,0.75,95,80.0
136,F#3,53.5,0.25,95,80.0
137,G#3,53.75,1.25,95,80.0
138,E1,53.75,1.25,95,80.0
139,G#3,55.0,0.25,95,80.0
140,A3,55.25,0.25,95,80.0
141,G#3,55.5,0.25,95,80.0
142,F#3,55.75,0.25,95,80.0
143,F#3,56.0,1.75,95,80.0
144,D2,56.0,1.75,95,80.0
145,F#3,57.75,0.25,95,80.0
146,E3,58.0,0.25,95,80.0
147,G2,58.25,1.0,95,80.0
148,E3,58.5,0.75,95,80.0
149,D3,59.25,0.5,95,80.0
150,F2,59.25,0.5,95,80.0
151,G2,59.75,0.25,95,80.0
152,C#3,60.0,1.0,95,80.0
153,A1,60.75,1.25,95,80.0
154,C#3,61.25,0.25,95,80.0
155,C#3,61.75,0.25,95,80.0
156,E-3,62.0,1.0,95,80.0
157,B1,62.5,0.5,95,80.0
158,C#3,63.0,0.5,95,80.0
159,A1,63.0,0.5,95,80.0
160,E-3,63.5,0.5,95,80.0
161,B2,63.812,0.188,95,80.0
162,C#3,64.0,1.0,95,80.0
163,B2,65.0,1.0,95,80.0
164,D3,67.0,0.25,95,80.0
165,E3,67.25,0.25,95,80.0
166,G#3,67.5,0.25,95,80.0
167,A3,67.75,0.25,95,80.0
168,B3,68.0,1.25,95,80.0
169,E1,68.5,1.5,95,80.0
170,C#4,69.25,0.25,95,80.0
171,B3,69.5,0.25,95,80.0
172,A3,69.75,1.5,95,80.0
173,D2,70.0,0.75,95,80.0
174,D2,70.75,0.25,95,80.0
175,F3,71.125,0.125,95,80.0
176,F#3,71.25,0.25,95,80.0
177,A3,71.5,0.25,95,80.0
178,A3,71.75,0.25,95,80.0
179,G#3,72.0,0.75,95,80.0
180,E1,72.25,1.75,95,80.0
181,G#3,72.75,0.25,95,80.0
182,B3,73.0,0.5,95,80.0
183,G#3,73.5,0.25,95,80.0
184,F#3,73.75,1.25,95,80.0
185,D2,74.0,0.75,95,80.0
186,D2,74.75,0.25,95,80.0
187,B2,74.875,0.125,95,80.0
188,C#3,75.0,0.5,95,80.0
189,E3,75.5,0.25,95,80.0
190,E3,75.75,0.25,95,80.0
191,E3,76.0,1.25,95,80.0
192,A1,76.0,0.75,95,80.0
193,A1,76.75,1.25,95,80.0
194,F#3,77.25,0.25,95,80.0
195,E3,77.5,0.25,95,80.0
196,D3,77.75,1.25,95,80.0
197,F2,78.0,0.75,95,80.0
198,F2,78.75,0.5,95,80.0
199,D3,79.0,0.25,95,80.0
200,E3,79.25,0.25,95,80.0
201,D3,79.5,0.25,95,80.0
202,C#3,79.75,0.25,95,80.0
203,C#3,80.0,0.75,95,80.0
204,A1,80.0,1.75,95,80.0
205,B2,80.75,0.25,95,80.0
206,D3,81.0,0.25,95,80.0
207,C#3,81.25,0.25,95,80.0
208,B2,81.5,1.5,95,80.0
209,E1,81.75,1.25,95,80.0
210,D3,83.0,0.25,95,80.0
211,E3,83.25,0.25,95,80.0
212,G#3,83.5,0.25,95,80.0
213,A3,83.75,0.25,95,80.0
214,B3,84.0,1.25,95,80.0
215,E1,84.5,1.5,95,80.0
216,C#4,85.25,0.25,95,80.0
217,B3,85.5,0.25,95,80.0
218,A3,85.75,1.5,95,80.0
219,D2,86.0,0.75,95,80.0
220,D2,86.75,0.25,95,80.0
221,F3,87.125,0.125,95,80.0
222,F#3,87.25,0.25,95,80.0
223,A3,87.5,0.25,95,80.0
224,A3,87.75,0.25,95,80.0
225,G#3,88.0,0.75,95,80.0
226,E1,88.25,1.75,95,80.0
227,G#3,88.75,0.25,95,80.0
228,B3,89.0,0.5,95,80.0
229,G#3,89.5,0.25,95,80.0
230,F#3,89.75,1.25,95,80.0
231,D2,90.0,0.75,95,80.0
232,D2,90.75,0.25,95,80.0
233,B2,90.875,0.125,95,80.0
234,C#3,91.0,0.5,95,80.0
235,E3,91.5,0.25,95,80.0
236,E3,91.75,0.25,95,80.0
237,E3,92.0,1.25,95,80.0
238,A1,92.0,0.75,95,80.0
239,A1,92.75,1.25,95,80.0
240,F#3,93.25,0.25,95,80.0
241,E3,93.5,0.25,95,80.0
242,D3,93.75,1.25,95,80.0
243,F2,94.0,0.75,95,80.0
244,F2,94.75,0.5,95,80.0
245,D3,95.0,0.25,95,80.0
246,E3,95.25,0.25,95,80.0
247,D3,95.5,0.25,95,80.0
248,C#3,95.75,0.25,95,80.0
249,C#3,96.0,0.75,95,80.0
250,A1,96.0,1.5,95,80.0
251,B2,96.75,0.25,95,80.0
252,D3,97.0,0.25,95,80.0
253,C#3,97.25,0.25,95,80.0
254,B2,97.5,2.5,95,80.0
255,E1,97.75,2.25,95,80.0
256,E1,103.75,0.25,95,80.0
257,E1,104.0,0.25,95,80.0
258,E1,104.25,0.25,95,80.0
259,C#2,104.5,0.25,95,80.0
260,C#2,104.75,0.25,95,80.0
261,D2,105.0,0.25,95,80.0
262,D2,105.25,0.25,95,80.0
263,E2,105.5,0.25,95,80.0
264,E1,105.75,0.5,95,80.0
265,E1,106.25,0.25,95,80.0
266,B1,106.5,0.25,95,80.0
267,C#2,106.75,0.25,95,80.0
268,F#2,107.0,0.25,95,80.0
269,F#2,107.25,0.25,95,80.0
270,E2,107.5,0.25,95,80.0
271,E1,107.75,0.25,95,80.0
272,E1,108.0,0.25,95,80.0
273,E1,108.25,0.25,95,80.0
274,C#2,108.5,0.25,95,80.0
275,C#2,108.75,0.25,95,80.0
276,D2,109.0,0.25,95,80.0
277,D2,109.25,0.25,95,80.0
278,E2,109.5,0.25,95,80.0
279,E1,109.75,0.5,95,80.0
280,A1,110.25,0.25,95,80.0
281,B1,110.5,0.25,95,80.0
282,B2,110.75,0.25,95,80.0
283,B1,110.875,0.125,95,80.0
284,C#2,111.0,0.25,95,80.0
285,B2,111.25,0.25,95,80.0
286,A2,111.5,0.25,95,80.0
287,E1,111.75,0.25,95,80.0
288,E1,112.0,0.25,95,80.0
289,E1,112.25,0.25,95,80.0
290,C#2,112.5,0.25,95,80.0
291,C#2,112.75,0.25,95,80.0
292,D2,113.0,0.25,95,80.0
293,D2,113.25,0.25,95,80.0
294,E2,113.5,0.25,95,80.0
295,E1,113.75,0.5,95,80.0
296,E1,114.25,0.25,95,80.0
297,B1,114.5,0.25,95,80.0
298,C#2,114.75,0.25,95,80.0
299,F#2,115.0,0.25,95,80.0
300,F#2,115.25,0.25,95,80.0
301,E2,115.5,0.25,95,80.0
302,E1,115.75,0.25,95,80.0
303,E1,116.0,0.25,95,80.0
304,E1,116.25,0.25,95,80.0
305,C#2,116.5,0.25,95,80.0
306,C#2,116.75,0.25,95,80.0
307,D2,117.0,0.25,95,80.0
308,D2,117.25,0.25,95,80.0
309,E2,117.5,0.25,95,80.0
310,E1,117.75,0.5,95,80.0
311,A1,118.25,0.25,95,80.0
312,B1,118.5,0.25,95,80.0
313,B2,118.75,0.25,95,80.0
314,B1,118.875,0.125,95,80.0
315,C#2,119.0,0.25,95,80.0
316,B2,119.25,0.25,95,80.0
317,A2,119.5,0.25,95,80.0
318,E1,119.75,0.25,95,80.0
319,E1,120.0,0.25,95,80.0
320,E1,120.25,0.25,95,80.0
321,C#2,120.5,0.25,95,80.0
322,C#2,120.75,0.25,95,80.0
323,D2,121.0,0.25,95,80.0
324,D2,121.25,0.25,95,80.0
325,E2,121.5,0.25,95,80.0
326,E1,121.75,0.5,95,80.0
327,E1,122.25,0.25,95,80.0
328,B1,122.5,0.25,95,80.0
329,C#2,122.75,0.25,95,80.0
330,F#2,123.0,0.25,95,80.0
331,F#2,123.25,0.25,95,80.0
332,E2,123.5,0.25,95,80.0
333,E1,123.75,0.25,95,80.0
334,E1,124.0,0.25,95,80.0
335,E1,124.25,0.25,95,80.0
336,C#2,124.5,0.25,95,80.0
337,C#2,124.75,0.25,95,80.0
338,D2,125.0,0.25,95,80.0
339,D2,125.25,0.25,95,80.0
340,E2,125.5,0.25,95,80.0
341,E1,125.75,0.5,95,80.0
342,A1,126.25,0.25,95,80.0
343,B1,126.5,0.25,95,80.0
344,B2,126.75,0.25,95,80.0
345,B1,126.875,0.125,95,80.0
346,C#2,127.0,0.25,95,80.0
347,B2,127.25,0.25,95,80.0
348,A2,127.5,0.25,95,80.0
349,E1,127.75,0.25,95,80.0
350,E1,128.0,0.25,95,80.0
351,E1,128.25,0.25,95,80.0
352,C#2,128.5,0.25,95,80.0
353,C#2,128.75,0.25,95,80.0
354,D2,129.0,0.25,95,80.0
355,D2,129.25,0.25,95,80.0
356,E2,129.5,0.25,95,80.0
357,E1,129.75,0.5,95,80.0
358,E1,130.25,0.25,95,80.0
359,B1,130.5,0.25,95,80.0
360,C#2,130.75,0.25,95,80.0
361,F#2,131.0,0.25,95,80.0
362,F#2,131.25,0.25,95,80.0
363,E2,131.5,0.25,95,80.0
364,E1,131.75,0.25,95,80.0
365,E1,132.0,0.25,95,80.0
366,E1,132.25,0.25,95,80.0
367,C#2,132.5,0.25,95,80.0
368,C#2,132.75,0.25,95,80.0
369,D2,133.0,0.25,95,80.0
370,D2,133.25,0.25,95,80.0
371,E2,133.5,0.25,95,80.0
372,E1,133.75,0.5,95,80.0
373,A1,134.25,0.25,95,80.0
374,B1,134.5,0.25,95,80.0
375,B2,134.75,0.25,95,80.0
376,B1,134.875,0.125,95,80.0
377,C#2,135.0,0.25,95,80.0
378,B2,135.25,0.25,95,80.0
379,A2,135.5,0.25,95,80.0
380,E1,135.75,0.25,95,80.0
381,E1,136.0,0.25,95,80.0
382,E1,136.25,0.25,95,80.0
383,C#2,136.5,0.25,95,80.0
384,C#2,136.75,0.25,95,80.0
385,D2,137.0,0.25,95,80.0
386,D2,137.25,0.25,95,80.0
387,E2,137.5,0.25,95,80.0
388,E1,137.75,0.5,95,80.0
389,E1,138.25,0.25,95,80.0
390,B1,138.5,0.25,95,80.0
391,C#2,138.75,0.25,95,80.0
392,F#2,139.0,0.25,95,80.0
393,F#2,139.25,0.25,95,80.0
394,E2,139.5,0.25,95,80.0
395,E1,139.75,0.25,95,80.0
396,E1,140.0,0.25,95,80.0
397,E1,140.25,0.25,95,80.0
398,C#2,140.5,0.25,95,80.0
399,C#2,140.75,0.25,95,80.0
400,D2,141.0,0.25,95,80.0
401,D2,141.25,0.25,95,80.0
402,E2,141.5,0.25,95,80.0
403,E1,141.75,0.5,95,80.0
404,A1,142.25,0.25,95,80.0
405,B1,142.5,0.25,95,80.0
406,B2,142.75,0.25,95,80.0
407,B1,142.875,0.125,95,80.0
408,C#2,143.0,0.25,95,80.0
409,B2,143.25,0.25,95,80.0
410,A2,143.5,0.25,95,80.0
411,E1,143.75,0.25,95,80.0
412,E1,144.0,0.25,95,80.0
413,E1,144.25,0.25,95,80.0
414,C#2,144.5,0.25,95,80.0
415,C#2,144.75,0.25,95,80.0
416,D2,145.0,0.25,95,80.0
417,D2,145.25,0.25,95,80.0
418,E2,145.5,0.25,95,80.0
419,E1,145.75,0.5,95,80.0
420,E1,146.25,0.25,95,80.0
421,B1,146.5,0.25,95,80.0
422,C#2,146.75,0.25,95,80.0
423,F#2,147.0,0.25,95,80.0
424,F#2,147.25,0.25,95,80.0
425,E2,147.5,0.25,95,80.0
426,E1,147.75,0.25,95,80.0
427,E1,148.0,0.25,95,80.0
428,E1,148.25,0.25,95,80.0
429,C#2,148.5,0.25,95,80.0
430,C#2,148.75,0.25,95,80.0
431,D2,149.0,0.25,95,80.0
432,D2,149.25,0.25,95,80.0
433,E2,149.5,0.25,95,80.0
434,E1,149.75,0.5,95,80.0
435,A1,150.25,0.25,95,80.0
436,B1,150.5,0.25,95,80.0
437,B2,150.75,0.25,95,80.0
438,B1,150.875,0.125,95,80.0
439,C#2,151.0,0.25,95,80.0
440,B2,151.25,0.25,95,80.0
441,A2,151.5,0.25,95,80.0
442,E1,151.75,0.25,95,80.0
443,E1,152.0,0.25,95,80.0
444,E1,152.25,0.25,95,80.0
445,C#2,152.5,0.25,95,80.0
446,C#2,152.75,0.25,95,80.0
447,D2,153.0,0.25,95,80.0
448,D2,153.25,0.25,95,80.0
449,E2,153.5,0.25,95,80.0
450,E1,153.75,0.5,95,80.0
451,E1,154.25,0.25,95,80.0
452,B1,154.5,0.25,95,80.0
453,C#2,154.75,0.25,95,80.0
454,F#2,155.0,0.25,95,80.0
455,F#2,155.25,0.25,95,80.0
456,E2,155.5,0.25,95,80.0
457,E1,155.75,0.25,95,80.0
458,E1,156.0,0.25,95,80.0
459,E1,156.25,0.25,95,80.0
460,C#2,156.5,0.25,95,80.0
461,C#2,156.75,0.25,95,80.0
462,D2,157.0,0.25,95,80.0
463,D2,157.25,0.25,95,80.0
464,E2,157.5,0.25,95,80.0
465,E1,157.75,0.5,95,80.0
466,A1,158.25,0.25,95,80.0
467,B1,158.5,0.25,95,80.0
468,B2,158.75,0.25,95,80.0
469,B1,158.875,0.125,95,80.0
470,C#2,159.0,0.25,95,80.0
471,B2,159.25,0.25,95,80.0
472,A2,159.5,0.25,95,80.0
473,E1,159.75,0.25,95,80.0
474,E1,160.0,0.25,95,80.0
475,E1,160.25,0.25,95,80.0
476,C#2,160.5,0.25,95,80.0
477,C#2,160.75,0.25,95,80.0
478,D2,161.0,0.25,95,80.0
479,D2,161.25,0.25,95,80.0
480,E2,161.5,0.25,95,80.0
481,E1,161.75,0.5,95,80.0
482,E1,162.25,0.25,95,80.0
483,B1,162.5,0.25,95,80.0
484,C#2,162.75,0.25,95,80.0
485,F#2,163.0,0.25,95,80.0
486,F#2,163.25,0.25,95,80.0
487,E2,163.5,0.25,95,80.0
488,E1,163.75,0.25,95,80.0
489,E1,164.0,0.25,95,80.0
490,E1,164.25,0.25,95,80.0
491,C#2,164.5,0.25,95,80.0
492,C#2,164.75,0.25,95,80.0
493,D2,165.0,0.25,95,80.0
494,D2,165.25,0.25,95,80.0
495,E2,165.5,0.25,95,80.0
496,E1,165.75,0.5,95,80.0
497,A1,166.25,0.25,95,80.0
498,B1,166.5,0.25,95,80.0
499,B2,166.75,0.25,95,80.0
500,B1,166.875,0.125,95,80.0
501,C#2,167.0,0.25,95,80.0
502,B2,167.25,0.25,95,80.0
503,A2,167.5,0.25,95,80.0
504,E1,167.75,0.25,95,80.0
505,E1,168.0,0.25,95,80.0
506,E1,168.25,0.25,95,80.0
507,C#2,168.5,0.25,95,80.0
508,C#2,168.75,0.25,95,80.0
509,D2,169.0,0.25,95,80.0
510,D2,169.25,0.25,95,80.0
511,E2,169.5,0.25,95,80.0
512,E1,169.75,0.5,95,80.0
513,E1,170.25,0.25,95,80.0
514,B1,170.5,0.25,95,80.0
515,C#2,170.75,0.25,95,80.0
516,F#2,171.0,0.25,95,80.0
517,F#2,171.25,0.25,95,80.0
518,E2,171.5,0.25,95,80.0
519,E1,171.75,0.25,95,80.0
520,E1,172.0,0.25,95,80.0
521,E1,172.25,0.25,95,80.0
522,C#2,172.5,0.25,95,80.0
523,C#2,172.75,0.25,95,80.0
524,D2,173.0,0.25,95,80.0
525,D2,173.25,0.25,95,80.0
526,E2,173.5,0.25,95,80.0
527,E1,173.75,0.5,95,80.0
528,A1,174.25,0.25,95,80.0
529,B1,174.5,0.25,95,80.0
530,B2,174.75,0.25,95,80.0
531,B1,174.875,0.125,95,80.0
532,C#2,175.0,0.25,95,80.0
533,B2,175.25,0.25,95,80.0
534,A2,175.5,0.25,95,80.0
535,E1,175.75,0.25,95,80.0
536,E1,176.0,0.25,95,80.0
537,E1,176.25,0.25,95,80.0
538,C#2,176.5,0.25,95,80.0
539,C#2,176.75,0.25,95,80.0
540,D2,177.0,0.25,95,80.0
541,D2,177.25,0.25,95,80.0
542,E2,177.5,0.25,95,80.0
543,E1,177.75,0.5,95,80.0
544,E1,178.25,0.25,95,80.0
545,B1,178.5,0.25,95,80.0
546,C#2,178.75,0.25,95,80.0
547,F#2,179.0,0.25,95,80.0
548,F#2,179.25,0.25,95,80.0
549,E2,179.5,0.25,95,80.0
550,E1,179.75,0.25,95,80.0
551,E1,180.0,0.25,95,80.0
552,E1,180.25,0.25,95,80.0
553,C#2,180.5,0.25,95,80.0
554,C#2,180.75,0.25,95,80.0
555,D2,181.0,0.25,95,80.0
556,D2,181.25,0.25,95,80.0
557,E2,181.5,0.25,95,80.0
558,E1,181.75,0.5,95,80.0
559,A1,182.25,0.25,95,80.0
560,B1,182.5,0.25,95,80.0
561,B2,182.75,0.25,95,80.0
562,B1,182.875,0.125,95,80.0
563,C#2,183.0,0.25,95,80.0
564,B2,183.25,0.25,95,80.0
565,A2,183.5,0.25,95,80.0
566,E1,183.75,0.25,95,80.0
567,E1,184.0,0.25,95,80.0
568,E1,184.25,0.25,95,80.0
569,C#2,184.5,0.25,95,80.0
570,C#2,184.75,0.25,95,80.0
571,D2,185.0,0.25,95,80.0
572,D2,185.25,0.25,95,80.0
573,E2,185.5,0.25,95,80.0
574,E1,185.75,0.5,95,80.0
575,E1,186.25,0.25,95,80.0
576,B1,186.5,0.25,95,80.0
577,C#2,186.75,0.25,95,80.0
578,F#2,187.0,0.25,95,80.0
579,F#2,187.25,0.25,95,80.0
580,E2,187.5,0.25,95,80.0
581,E1,187.75,0.25,95,80.0
582,E1,188.0,0.25,95,80.0
583,E1,188.25,0.25,95,80.0
584,C#2,188.5,0.25,95,80.0
585,C#2,188.75,0.25,95,80.0
586,D2,189.0,0.25,95,80.0
587,D2,189.25,0.25,95,80.0
588,E2,189.5,0.25,95,80.0
589,E1,189.75,0.5,95,80.0
590,A1,190.25,0.25,95,80.0
591,B1,190.5,0.25,95,80.0
592,B2,190.75,0.25,95,80.0
593,B1,190.875,0.125,95,80.0
594,C#2,191.0,0.25,95,80.0
595,B2,191.25,0.25,95,80.0
596,A2,191.5,0.25,95,80.0
597,E1,191.75,0.25,95,80.0
598,E1,192.0,0.25,95,80.0
599,E1,192.25,0.25,95,80.0
600,C#2,192.5,0.25,95,80.0
601,C#2,192.75,0.25,95,80.0
602,D2,193.0,0.25,95,80.0
603,D2,193.25,0.25,95,80.0
604,E2,193.5,0.25,95,80.0
605,E1,193.75,0.5,95,80.0
606,E1,194.25,0.25,95,80.0
607,B1,194.5,0.25,95,80.0
608,C#2,194.75,0.25,95,80.0
609,F#2,195.0,0.25,95,80.0
610,F#2,195.25,0.25,95,80.0
611,E2,195.5,0.25,95,80.0
612,E1,195.75,0.25,95,80.0
613,E1,196.0,0.25,95,80.0
614,E1,196.25,0.25,95,80.0
615,C#2,196.5,0.25,95,80.0
616,C#2,196.75,0.25,95,80.0
617,D2,197.0,0.25,95,80.0
618,D2,197.25,0.25,95,80.0
619,E2,197.5,0.25,95,80.0
620,E1,197.75,0.5,95,80.0
621,A1,198.25,0.25,95,80.0
622,B1,198.5,0.25,95,80.0
623,B2,198.75,0.25,95,80.0
624,B1,198.875,0.125,95,80.0
625,C#2,199.0,0.25,95,80.0
626,B2,199.25,0.25,95,80.0
627,C2,199.375,0.125,95,80.0
628,D2,199.5,0.25,95,80.0
629,D3,199.75,0.25,95,80.0
630,D3,200.0,2.0,95,80.0
631,D3,215.0,0.25,95,80.0
632,E3,215.25,0.25,95,80.0
633,G#3,215.5,0.25,95,80.0
634,A3,215.75,0.25,95,80.0
635,B3,216.0,1.25,95,80.0
636,E1,216.5,1.5,95,80.0
637,C#4,217.25,0.25,95,80.0
638,B3,217.5,0.25,95,80.0
639,A3,217.75,1.5,95,80.0
640,D2,218.0,0.75,95,80.0
641,D2,218.75,0.25,95,80.0
642,F3,219.125,0.125,95,80.0
643,F#3,219.25,0.25,95,80.0
644,A3,219.5,0.25,95,80.0
645,A3,219.75,0.25,95,80.0
646,G#3,220.0,0.75,95,80.0
647,E1,220.25,1.75,95,80.0
648,G#3,220.75,0.25,95,80.0
649,B3,221.0,0.5,95,80.0
650,G#3,221.5,0.25,95,80.0
651,F#3,221.75,1.25,95,80.0
652,D2,222.0,0.75,95,80.0
653,D2,222.75,0.25,95,80.0
654,B2,222.875,0.125,95,80.0
655,C#3,223.0,0.5,95,80.0
656,E3,223.5,0.25,95,80.0
657,E3,223.75,0.25,95,80.0
658,E3,224.0,1.25,95,80.0
659,A1,224.0,0.75,95,80.0
660,A1,224.75,1.25,95,80.0
661,F#3,225.25,0.25,95,80.0
662,E3,225.5,0.25,95,80.0
663,D3,225.75,1.25,95,80.0
664,F2,226.0,0.75,95,80.0
665,F2,226.75,0.5,95,80.0
666,D3,227.0,0.25,95,80.0
667,E3,227.25,0.25,95,80.0
668,D3,227.5,0.25,95,80.0
669,C#3,227.75,0.25,95,80.0
670,C#3,228.0,0.75,95,80.0
671,A1,228.0,1.75,95,80.0
672,B2,228.75,0.25,95,80.0
673,D3,229.0,0.25,95,80.0
674,C#3,229.25,0.25,95,80.0
675,B2,229.5,1.5,95,80.0
676,E1,229.75,1.25,95,80.0
677,D3,231.0,0.25,95,80.0
678,E3,231.25,0.25,95,80.0
679,G#3,231.5,0.25,95,80.0
680,A3,231.75,0.25,95,80.0
681,B3,232.0,1.25,95,80.0
682,E1,232.5,1.5,95,80.0
683,C#4,233.25,0.25,95,80.0
684,B3,233.5,0.25,95,80.0
685,A3,233.75,1.5,95,80.0
686,D2,234.0,0.75,95,80.0
687,D2,234.75,0.25,95,80.0
688,F3,235.125,0.125,95,80.0
689,F#3,235.25,0.25,95,80.0
690,A3,235.5,0.25,95,80.0
691,A3,235.75,0.25,95,80.0
692,G#3,236.0,0.75,95,80.0
693,E1,236.25,1.75,95,80.0
694,G#3,236.75,0.25,95,80.0
695,B3,237.0,0.5,95,80.0
696,G#3,237.5,0.25,95,80.0
697,F#3,237.75,1.25,95,80.0
698,D2,238.0,0.75,95,80.0
699,D2,238.75,0.25,95,80.0
700,B2,238.875,0.125,95,80.0
701,C#3,239.0,0.5,95,80.0
702,E3,239.5,0.25,95,80.0
703,E3,239.75,0.25,95,80.0
704,E3,240.0,1.25,95,80.0
705,A1,240.0,0.75,95,80.0
706,A1,240.75,1.25,95,80.0
707,F#3,241.25,0.25,95,80.0
708,E3,241.5,0.25,95,80.0
709,D3,241.75,1.25,95,80.0
710,F2,242.0,0.75,95,80.0
711,F2,242.75,0.5,95,80.0
712,D3,243.0,0.25,95,80.0
713,E3,243.25,0.25,95,80.0
714,D3,243.5,0.25,95,80.0
715,C#3,243.75,0.25,95,80.0
716,C#3,244.0,0.75,95,80.0
717,A1,244.0,1.75,95,80.0
718,B2,244.75,0.25,95,80.0
719,D3,245.0,0.25,95,80.0
720,C#3,245.25,0.25,95,80.0
721,B2,245.5,1.5,95,80.0
722,E1,245.75,1.25,95,80.0
723,D3,247.0,0.25,95,80.0
724,E3,247.25,0.25,95,80.0
725,G#3,247.5,0.25,95,80.0
726,A3,247.75,0.25,95,80.0
727,B3,248.0,1.25,95,80.0
728,E1,248.5,1.5,95,80.0
729,C#4,249.25,0.25,95,80.0
730,B3,249.5,0.25,95,80.0
731,A3,249.75,1.5,95,80.0
732,D2,250.0,0.75,95,80.0
733,D2,250.75,0.25,95,80.0
734,F3,251.125,0.125,95,80.0
735,F#3,251.25,0.25,95,80.0
736,A3,251.5,0.25,95,80.0
737,A3,251.75,0.25,95,80.0
738,G#3,252.0,0.75,95,80.0
739,E1,252.25,1.75,95,80.0
740,G#3,252.75,0.25,95,80.0
741,B3,253.0,0.5,95,80.0
742,G#3,253.5,0.25,95,80.0
743,F#3,253.75,1.25,95,80.0
744,D2,254.0,0.75,95,80.0
745,D2,254.75,0.25,95,80.0
746,B2,254.875,0.125,95,80.0
747,C#3,255.0,0.5,95,80.0
748,E3,255.5,0.25,95,80.0
749,E3,255.75,0.25,95,80.0
750,E3,256.0,1.25,95,80.0
751,A1,256.0,0.75,95,80.0
752,A1,256.75,1.25,95,80.0
753,F#3,257.25,0.25,95,80.0
754,E3,257.5,0.25,95,80.0
755,D3,257.75,1.25,95,80.0
756,F2,258.0,0.75,95,80.0
757,F2,258.75,0.5,95,80.0
758,D3,259.0,0.25,95,80.0
759,E3,259.25,0.25,95,80.0
760,D3,259.5,0.25,95,80.0
761,C#3,259.75,0.25,95,80.0
762,C#3,260.0,0.75,95,80.0
763,A1,260.0,1.75,95,80.0
764,B2,260.75,0.25,95,80.0
765,D3,261.0,0.25,95,80.0
766,C#3,261.25,0.25,95,80.0
767,B2,261.5,1.5,95,80.0
768,E1,261.75,1.25,95,80.0
769,D3,263.0,0.25,95,80.0
770,E3,263.25,0.25,95,80.0
771,G#3,263.5,0.25,95,80.0
772,A3,263.75,0.25,95,80.0
773,B3,264.0,1.25,95,80.0
774,E1,264.5,1.5,95,80.0
775,C#4,265.25,0.25,95,80.0
776,B3,265.5,0.25,95,80.0
777,A3,265.75,1.5,95,80.0
778,D2,266.0,0.75,95,80.0
779,D2,266.75,0.25,95,80.0
780,F3,267.125,0.125,95,80.0
781,F#3,267.25,0.25,95,80.0
782,A3,267.5,0.25,95,80.0
783,A3,267.75,0.25,95,80.0
784,G#3,268.0,0.75,95,80.0
785,E1,268.25,1.75,95,80.0
786,G#3,268.75,0.25,95,80.0
787,B3,269.0,0.5,95,80.0
788,G#3,269.5,0.25,95,80.0
789,F#3,269.75,1.25,95,80.0
790,D2,270.0,0.75,95,80.0
791,D2,270.75,0.25,95,80.0
792,B2,270.875,0.125,95,80.0
793,C#3,271.0,0.5,95,80.0
794,E3,271.5,0.25,95,80.0
795,E3,271.75,0.25,95,80.0
796,E3,272.0,1.25,95,80.0
797,A1,272.0,0.75,95,80.0
798,A1,272.75,1.25,95,80.0
799,F#3,273.25,0.25,95,80.0
800,E3,273.5,0.25,95,80.0
801,D3,273.75,1.25,95,80.0
802,F2,274.0,0.75,95,80.0
803,F2,274.75,0.5,95,80.0
804,D3,275.0,0.25,95,80.0
805,E3,275.25,0.25,95,80.0
806,D3,275.5,0.25,95,80.0
807,C#3,275.75,0.25,95,80.0
808,C#3,276.0,0.75,95,80.0
809,A1,276.0,1.75,95,80.0
810,B2,276.75,0.25,95,80.0
811,D3,277.0,0.25,95,80.0
812,C#3,277.25,0.25,95,80.0
813,B2,277.5,1.5,95,80.0
814,E1,277.75,1.25,95,80.0
815,D3,279.0,0.25,95,80.0
816,E3,279.25,0.25,95,80.0
817,G#3,279.5,0.25,95,80.0
818,A3,279.75,0.25,95,80.0
819,B3,280.0,1.25,95,80.0
820,E1,280.5,1.5,95,80.0
821,C#4,281.25,0.25,95,80.0
822,B3,281.5,0.25,95,80.0
823,A3,281.75,1.5,95,80.0
824,D2,282.0,0.75,95,80.0
825,D2,282.75,0.25,95,80.0
826,F3,283.125,0.125,95,80.0
827,F#3,283.25,0.25,95,80.0
828,A3,283.5,0.25,95,80.0
829,A3,283.75,0.25,95,80.0
830,G#3,284.0,0.75,95,80.0
831,E1,284.25,1.75,95,80.0
832,G#3,284.75,0.25,95,80.0
833,B3,285.0,0.5,95,80.0
834,G#3,285.5,0.25,95,80.0
835,F#3,285.75,1.25,95,80.0
836,D2,286.0,0.75,95,80.0
837,D2,286.75,0.25,95,80.0
838,B2,286.875,0.125,95,80.0
839,C#3,287.0,0.5,95,80.0
840,E3,287.5,0.25,95,80.0
841,E3,287.75,0.25,95,80.0
842,E3,288.0,1.25,95,80.0
843,A1,288.0,0.75,95,80.0
844,A1,288.75,1.25,95,80.0
845,F#3,289.25,0.25,95,80.0
846,E3,289.5,0.25,95,80.0
847,D3,289.75,1.25,95,80.0
848,F2,290.0,0.75,95,80.0
849,F2,290.75,0.5,95,80.0
850,D3,291.0,0.25,95,80.0
851,E3,291.25,0.25,95,80.0
852,D3,291.5,0.25,95,80.0
853,C#3,291.75,0.25,95,80.0
854,C#3,292.0,0.75,95,80.0
855,A1,292.0,1.5,95,80.0
856,B2,292.75,0.25,95,80.0
857,D3,293.0,0.25,95,80.0
858,C#3,293.25,0.25,95,80.0
859,B2,293.5,2.5,95,80.0
860,E1,293.75,2.25,95,80.0
861,E1,299.75,0.25,95,80.0
862,E1,300.0,0.5,95,80.0
863,E1,300.5,21/500,95,80.0
864,E1,300.75,21/500,95,80.0
865,B2,300.875,0.125,95,80.0
866,E2,300.875,0.125,95,80.0
867,C#3,301.0,0.75,95,80.0
868,F#2,301.0,0.75,95,80.0
869,B2,301.75,0.25,95,80.0
870,E2,301.75,0.25,95,80.0
871,E1,302.25,0.5,95,80.0
872,E1,302.75,21/500,95,80.0
873,C#3,303.0,0.25,95,80.0
874,F#2,303.0,0.25,95,80.0
875,C#3,303.25,0.25,95,80.0
876,F#2,303.25,0.25,95,80.0
877,B2,303.5,0.5,95,80.0
878,E2,303.5,0.5,95,80.0
879,E1,304.0,0.5,95,80.0
880,E1,304.5,21/500,95,80.0
881,E1,304.75,21/500,95,80.0
882,B2,304.875,0.125,95,80.0
883,E2,304.875,0.125,95,80.0
884,C#3,305.0,0.75,95,80.0
885,F#2,305.0,0.75,95,80.0
886,B2,305.75,0.25,95,80.0
887,E2,305.75,0.25,95,80.0
888,E1,306.25,0.5,95,80.0
889,E1,306.75,21/500,95,80.0
890,C#3,307.0,0.25,95,80.0
891,F#2,307.0,0.25,95,80.0
892,C#3,307.25,0.25,95,80.0
893,F#2,307.25,0.25,95,80.0
894,B2,307.5,0.5,95,80.0
895,E2,307.5,0.5,95,80.0
896,E1,308.0,0.5,95,80.0
897,E1,308.5,21/500,95,80.0
898,E1,308.75,21/500,95,80.0
899,B2,308.875,0.125,95,80.0
900,E2,308.875,0.125,95,80.0
901,C#3,309.0,0.75,95,80.0
902,F#2,309.0,0.75,95,80.0
903,B2,309.75,0.25,95,80.0
904,E2,309.75,0.25,95,80.0
905,E1,310.25,0.5,95,80.0
906,E1,310.75,21/500,95,80.0
907,C#3,311.0,0.25,95,80.0
908,F#2,311.0,0.25,95,80.0
909,C#3,311.25,0.25,95,80.0
910,F#2,311.25,0.25,95,80.0
911,B2,311.5,0.5,95,80.0
912,E2,311.5,0.5,95,80.0
913,E1,312.0,0.5,95,80.0
914,E1,312.5,21/500,95,80.0
915,E1,312.75,21/500,95,80.0
916,B2,312.875,0.125,95,80.0
917,E2,312.875,0.125,95,80.0
918,C#3,313.0,0.75,95,80.0
919,F#2,313.0,0.75,95,80.0
920,B2,313.75,0.25,95,80.0
921,E2,313.75,0.25,95,80.0
922,E1,314.25,0.5,95,80.0
923,E1,314.75,21/500,95,80.0
924,C#3,315.0,0.25,95,80.0
925,F#2,315.0,0.25,95,80.0
926,C#3,315.25,0.25,95,80.0
927,F#2,315.25,0.25,95,80.0
928,B2,315.5,0.5,95,80.0
929,E2,315.5,0.5,95,80.0
930,E1,316.0,0.5,95,80.0
931,E1,316.5,21/500,95,80.0
932,E1,316.75,21/500,95,80.0
933,B2,316.875,0.125,95,80.0
934,E2,316.875,0.125,95,80.0
935,C#3,317.0,0.75,95,80.0
936,F#2,317.0,0.75,95,80.0
937,B2,317.75,0.25,95,80.0
938,E2,317.75,0.25,95,80.0
939,E1,318.25,0.5,95,80.0
940,E1,318.75,21/500,95,80.0
941,C#3,319.0,0.25,95,80.0
942,F#2,319.0,0.25,95,80.0
943,C#3,319.25,0.25,95,80.0
944,F#2,319.25,0.25,95,80.0
945,B2,319.5,0.5,95,80.0
946,E2,319.5,0.5,95,80.0
947,E1,320.0,0.5,95,80.0
948,E1,320.5,21/500,95,80.0
949,E1,320.75,21/500,95,80.0
950,B2,320.875,0.125,95,80.0
951,E2,320.875,0.125,95,80.0
952,C#3,321.0,0.75,95,80.0
953,F#2,321.0,0.75,95,80.0
954,B2,321.75,0.25,95,80.0
955,E2,321.75,0.25,95,80.0
956,E1,322.25,0.5,95,80.0
957,E1,322.75,21/500,95,80.0
958,C#3,323.0,0.25,95,80.0
959,F#2,323.0,0.25,95,80.0
960,C#3,323.25,0.25,95,80.0
961,F#2,323.25,0.25,95,80.0
962,B2,323.5,0.5,95,80.0
963,E2,323.5,0.5,95,80.0
964,E1,324.0,0.5,95,80.0
965,E1,324.5,21/500,95,80.0
966,E1,324.75,21/500,95,80.0
967,B2,324.875,0.125,95,80.0
968,E2,324.875,0.125,95,80.0
969,C#3,325.0,0.75,95,80.0
970,F#2,325.0,0.75,95,80.0
971,B2,325.75,0.25,95,80.0
972,E2,325.75,0.25,95,80.0
973,E1,326.25,0.5,95,80.0
974,E1,326.75,21/500,95,80.0
975,C#3,327.0,0.25,95,80.0
976,F#2,327.0,0.25,95,80.0
977,C#3,327.25,0.25,95,80.0
978,F#2,327.25,0.25,95,80.0
979,B2,327.5,0.5,95,80.0
980,E2,327.5,0.5,95,80.0
