,note_name,start_time,duration,velocity,tempo
0,B-4,0.0,3.0,86,70.0
1,B-4,0.0,3.0,114,70.0
2,D5,0.0,3.0,114,70.0
3,F5,0.0,3.0,114,70.0
4,B-4,3.0,3.0,86,70.0
5,C5,4.0,2.0,73,70.0
6,C5,4.0,2.0,115,70.0
7,E-5,4.0,2.0,115,70.0
8,G5,4.0,2.0,115,70.0
9,F5,6.0,3.0,73,70.0
10,C5,6.0,2.0,73,70.0
11,B-4,6.0,3.0,114,70.0
12,D5,6.0,3.0,114,70.0
13,F5,6.0,3.0,114,70.0
14,C5,6.0,2.0,115,70.0
15,E-5,6.0,2.0,115,70.0
16,G5,6.0,2.0,115,70.0
17,B-4,8.0,1.0,73,70.0
18,F5,9.0,1/200,114,70.0
19,F5,9.0,2823/1000,73,70.0
20,B-4,9.0,3.0,73,70.0
21,A5,9.0,3.0,114,70.0
22,C6,9.0,3.0,114,70.0
23,F5,11.0,1.0,114,70.0
24,B-4,11.0,1.0,114,70.0
25,D5,11.0,1.0,114,70.0
26,C5,12.0,3.0,73,70.0
27,B-4,12.0,2.0,73,70.0
28,C5,12.0,3.0,115,70.0
29,E-5,12.0,3.0,115,70.0
30,G5,12.0,3.0,115,70.0
31,F5,14.0,1.0,73,70.0
32,F5,14.823,2823/1000,114,70.0
33,B-4,14.823,3.0,114,70.0
34,D5,14.823,3.0,114,70.0
35,A5,14.823,2823/1000,114,70.0
36,C6,14.823,2823/1000,114,70.0
37,C5,15.0,1.0,73,70.0
38,F5,15.0,1.0,73,70.0
39,B-4,16.0,1.5,127,70.0
40,B-4,16.0,1.5,127,70.0
41,B-2,16.0,1.5,127,70.0
42,C5,16.0,1.0,115,70.0
43,E-5,16.0,1.0,115,70.0
44,G5,16.0,1.0,115,70.0
45,F4,17.5,0.5,127,70.0
46,F4,17.5,0.5,127,70.0
47,B-2,17.5,0.5,127,70.0
48,B-4,17.823,2.0,114,70.0
49,D5,17.823,2.0,114,70.0
50,F4,18.0,1.5,127,70.0
51,F4,18.0,1.5,127,70.0
52,B-2,18.0,1/200,127,70.0
53,F4,19.5,0.5,127,70.0
54,F4,19.5,0.5,86,70.0
55,F5,19.823,1/200,114,70.0
56,A5,19.823,1.0,114,70.0
57,C6,19.823,1.0,114,70.0
58,C5,20.0,1.0,127,70.0
59,C5,20.0,1.0,127,70.0
60,B-2,20.0,1/200,127,70.0
61,A5,20.823,1.0,114,70.0
62,C6,20.823,1.0,114,70.0
63,C5,21.0,0.5,127,70.0
64,C5,21.0,0.5,127,70.0
65,C5,21.0,1.0,115,70.0
66,E-5,21.0,1.0,115,70.0
67,G5,21.0,1.0,115,70.0
68,F4,21.5,2.5,127,70.0
69,F4,21.5,2.5,127,70.0
70,B-2,21.5,1/200,127,70.0
71,F5,21.823,1/200,114,70.0
72,B-4,21.823,2.0,114,70.0
73,D5,21.823,2.0,114,70.0
74,B-2,22.0,1/200,127,70.0
75,C5,22.0,3.0,115,70.0
76,E-5,22.0,3.0,115,70.0
77,G5,22.0,3.0,115,70.0
78,B-4,23.823,2.0,114,70.0
79,D5,23.823,2.0,114,70.0
80,A4,24.0,1.5,127,70.0
81,A4,24.0,1.5,127,70.0
82,B-2,24.0,1/200,127,70.0
83,G4,25.5,1.0,127,70.0
84,G4,25.5,1.0,127,70.0
85,B-2,25.5,1/200,127,70.0
86,B-2,26.0,1/200,127,70.0
87,F4,26.5,0.5,127,70.0
88,F4,26.5,0.5,127,70.0
89,F4,27.0,0.5,127,70.0
90,F4,27.0,0.5,127,70.0
91,E-4,27.5,0.25,127,70.0
92,E-4,27.5,0.25,86,70.0
93,F4,27.75,0.25,127,70.0
94,F4,27.75,0.25,86,70.0
95,D4,28.0,2.0,127,70.0
96,D4,28.0,2.0,127,70.0
97,B-2,28.0,1/200,127,70.0
98,B-2,29.5,1/200,127,70.0
99,F4,29.823,3.0,114,70.0
100,A4,29.823,3.0,114,70.0
101,C5,29.823,3.0,114,70.0
102,D4,30.0,2.0,127,70.0
103,D4,30.0,2.0,127,70.0
104,B-2,30.0,1/200,127,70.0
105,A2,31.0,1.0,127,70.0
106,G4,32.0,1.0,127,70.0
107,G4,32.0,1.0,86,70.0
108,G2,32.0,1.0,127,70.0
109,G4,33.0,0.5,127,70.0
110,G4,33.0,0.5,86,70.0
111,G2,33.0,0.5,127,70.0
112,G4,33.0,1.0,115,70.0
113,B-4,33.0,1.0,115,70.0
114,D5,33.0,1.0,115,70.0
115,D4,33.5,2.0,127,70.0
116,D4,33.5,2.0,86,70.0
117,G2,33.5,0.5,127,70.0
118,F4,33.823,1.0,114,70.0
119,A4,33.823,1.0,114,70.0
120,C5,33.823,1.0,114,70.0
121,G2,34.0,2.0,127,70.0
122,G4,34.0,3.0,115,70.0
123,B-4,34.0,3.0,115,70.0
124,D5,34.0,3.0,115,70.0
125,B-4,34.823,2.0,114,70.0
126,D5,34.823,2.0,114,70.0
127,F5,34.823,2.0,114,70.0
128,G4,35.5,0.5,127,70.0
129,G4,35.5,0.5,86,70.0
130,A4,36.0,1.5,127,70.0
131,A4,36.0,1.5,86,70.0
132,D2,36.0,1.5,127,70.0
133,D4,37.5,1.5,127,70.0
134,D4,37.5,1.5,86,70.0
135,D2,37.5,0.5,127,70.0
136,D2,38.0,1.0,127,70.0
137,B-4,38.823,2.0,114,70.0
138,D5,38.823,2.0,114,70.0
139,F5,38.823,2.0,114,70.0
140,D4,39.0,1.0,127,70.0
141,D4,39.0,1.0,86,70.0
142,D2,39.0,1.0,127,70.0
143,B-4,40.0,0.5,127,70.0
144,B-4,40.0,0.5,86,70.0
145,E-2,40.0,2.0,127,70.0
146,A4,40.5,0.5,127,70.0
147,A4,40.5,0.5,86,70.0
148,G4,41.0,1.0,127,70.0
149,G4,41.0,1.0,86,70.0
150,F4,42.0,1.0,127,70.0
151,F4,42.0,1.0,86,70.0
152,E-2,42.0,2.0,127,70.0
153,E-4,43.0,0.25,127,70.0
154,E-4,43.0,0.25,86,70.0
155,D4,43.25,0.25,127,70.0
156,D4,43.25,0.75,86,70.0
157,C4,43.5,1.5,127,70.0
158,C4,44.0,1.0,86,70.0
159,F2,44.0,1.0,127,70.0
160,D4,44.823,3.0,114,70.0
161,F#4,44.823,3.0,114,70.0
162,A4,44.823,3.0,114,70.0
163,C4,45.0,3.0,127,70.0
164,C4,45.0,3.0,86,70.0
165,F2,45.0,0.5,127,70.0
166,F2,45.5,0.5,127,70.0
167,F2,46.0,2.0,127,70.0
168,B-4,48.0,1.5,127,70.0
169,B-2,48.0,1.5,127,70.0
170,B1,48.0,323/1000,84,70.0
171,B-5,48.5,0.156,90,70.0
172,D4,48.823,1.0,114,70.0
173,F#4,48.823,1.0,114,70.0
174,A4,48.823,1.0,114,70.0
175,B-5,49.0,0.156,90,70.0
176,F4,49.5,1.5,127,70.0
177,B-2,49.5,0.5,127,70.0
178,B1,49.5,323/1000,84,70.0
179,E-4,49.823,2.0,114,70.0
180,G4,49.823,2.0,114,70.0
181,B-4,49.823,2.0,114,70.0
182,B-2,50.0,1.0,127,70.0
183,B1,50.0,323/1000,84,70.0
184,B-5,50.5,0.156,90,70.0
185,F4,51.0,0.5,127,70.0
186,B-2,51.0,1.0,127,70.0
187,B-5,51.0,0.156,90,70.0
188,F4,51.5,0.5,127,70.0
189,B1,51.5,323/1000,84,70.0
190,C5,52.0,1.5,127,70.0
191,B-2,52.0,1.5,127,70.0
192,B1,52.0,323/1000,84,70.0
193,B-5,52.5,0.156,90,70.0
194,B-5,53.0,0.156,90,70.0
195,C5,53.0,2.0,115,70.0
196,E-5,53.0,2.0,115,70.0
197,G5,53.0,2.0,115,70.0
198,F4,53.5,0.5,127,70.0
199,B-2,53.5,0.5,127,70.0
200,B1,53.5,323/1000,84,70.0
201,E-4,53.823,2.0,114,70.0
202,G4,53.823,2.0,114,70.0
203,B-4,53.823,2.0,114,70.0
204,F4,54.0,2.0,127,70.0
205,B-2,54.0,1/200,127,70.0
206,B1,54.0,323/1000,84,70.0
207,B-5,54.5,0.156,90,70.0
208,B-5,55.0,0.156,90,70.0
209,C5,55.0,2.0,115,70.0
210,E-5,55.0,2.0,115,70.0
211,G5,55.0,2.0,115,70.0
212,B1,55.5,323/1000,84,70.0
213,F4,55.823,1.0,114,70.0
214,A4,55.823,1.0,114,70.0
215,C5,55.823,1.0,114,70.0
216,A4,56.0,1.0,127,70.0
217,F2,56.0,1.0,127,70.0
218,B1,56.0,323/1000,84,70.0
219,B-5,56.5,0.156,90,70.0
220,B-4,57.0,0.5,127,70.0
221,F2,57.0,0.5,127,70.0
222,B-5,57.0,0.156,90,70.0
223,C5,57.5,1.5,127,70.0
224,F2,57.5,0.5,127,70.0
225,B1,57.5,323/1000,84,70.0
226,F2,58.0,2.0,127,70.0
227,B1,58.0,323/1000,84,70.0
228,B-5,58.5,0.156,90,70.0
229,A4,59.0,1.0,127,70.0
230,B-5,59.0,0.156,90,70.0
231,B1,59.5,323/1000,84,70.0
232,F4,59.823,3.0,114,70.0
233,A4,59.823,3.0,114,70.0
234,C5,59.823,3.0,114,70.0
235,F4,60.0,3.0,127,70.0
236,B-2,60.0,1.5,127,70.0
237,B1,60.0,323/1000,84,70.0
238,B-5,60.5,0.156,90,70.0
239,B-5,61.0,0.156,90,70.0
240,B-2,61.5,0.5,127,70.0
241,B1,61.5,323/1000,84,70.0
242,B-2,62.0,0.25,127,70.0
243,B1,62.0,323/1000,84,70.0
244,B-2,62.25,0.75,127,70.0
245,B-5,62.5,0.156,90,70.0
246,B-4,62.823,3.0,114,70.0
247,D5,62.823,3.0,114,70.0
248,F5,62.823,3.0,114,70.0
249,F4,63.0,1.0,127,70.0
250,A2,63.0,1.0,127,70.0
251,B-5,63.0,0.156,90,70.0
252,B1,63.5,323/1000,84,70.0
253,G4,64.0,1.5,127,70.0
254,G2,64.0,1.5,127,70.0
255,B1,64.0,323/1000,84,70.0
256,B-5,64.5,0.156,90,70.0
257,B-5,65.0,0.156,90,70.0
258,G4,65.0,2.0,115,70.0
259,B-4,65.0,2.0,115,70.0
260,D5,65.0,2.0,115,70.0
261,D4,65.5,0.5,127,70.0
262,G2,65.5,0.5,127,70.0
263,B1,65.5,323/1000,84,70.0
264,D4,66.0,1.5,127,70.0
265,G2,66.0,1/200,127,70.0
266,B1,66.0,323/1000,84,70.0
267,B-5,66.5,0.156,90,70.0
268,B-4,66.823,1.0,114,70.0
269,D5,66.823,1.0,114,70.0
270,F5,66.823,1.0,114,70.0
271,B-5,67.0,0.156,90,70.0
272,G4,67.0,2.0,115,70.0
273,B-4,67.0,2.0,115,70.0
274,D5,67.0,2.0,115,70.0
275,G4,67.5,0.5,127,70.0
276,B1,67.5,323/1000,84,70.0
277,A4,68.0,1.0,127,70.0
278,D2,68.0,1.0,127,70.0
279,B1,68.0,323/1000,84,70.0
280,B-5,68.5,0.156,90,70.0
281,A4,69.0,0.5,127,70.0
282,D2,69.0,0.5,127,70.0
283,B-5,69.0,0.156,90,70.0
284,D4,69.5,0.5,127,70.0
285,D2,69.5,0.5,127,70.0
286,B1,69.5,323/1000,84,70.0
287,D4,70.0,2.0,127,70.0
288,D2,70.0,2.0,127,70.0
289,B1,70.0,323/1000,84,70.0
290,B-5,70.5,0.156,90,70.0
291,B-5,71.0,0.156,90,70.0
292,B1,71.5,323/1000,84,70.0
293,F4,71.823,1.0,114,70.0
294,A4,71.823,1.0,114,70.0
295,C5,71.823,1.0,114,70.0
296,B-4,72.0,0.5,127,70.0
297,E-2,72.0,3.0,127,70.0
298,B1,72.0,323/1000,84,70.0
299,A4,72.5,0.5,127,70.0
300,B-5,72.5,0.156,90,70.0
301,F4,72.823,3.0,114,70.0
302,A4,72.823,3.0,114,70.0
303,C5,72.823,3.0,114,70.0
304,G4,73.0,0.5,127,70.0
305,B-5,73.0,0.156,90,70.0
306,F4,73.5,1.5,127,70.0
307,B1,73.5,323/1000,84,70.0
308,B1,74.0,323/1000,84,70.0
309,B-5,74.5,0.156,90,70.0
310,F4,75.0,0.5,127,70.0
311,E-2,75.0,1.0,127,70.0
312,B-5,75.0,0.156,90,70.0
313,D4,75.5,0.25,127,70.0
314,B1,75.5,323/1000,84,70.0
315,E-4,75.75,0.25,127,70.0
316,B-4,75.823,3.0,114,70.0
317,D5,75.823,3.0,114,70.0
318,F5,75.823,3.0,114,70.0
319,F4,76.0,1.0,127,70.0
320,F2,76.0,1.5,127,70.0
321,B1,76.0,323/1000,84,70.0
322,B-5,76.5,0.156,90,70.0
323,E-4,77.0,0.5,127,70.0
324,B-5,77.0,0.156,90,70.0
325,D4,77.5,0.25,127,70.0
326,F2,77.5,0.5,127,70.0
327,B1,77.5,323/1000,84,70.0
328,C4,77.75,0.25,127,70.0
329,C4,78.0,2.5,127,70.0
330,F2,78.0,1/200,127,70.0
331,B1,78.0,323/1000,84,70.0
332,B1,78.5,229/1000,84,70.0
333,F2,78.5,0.5,40,70.0
334,B1,79.0,0.25,84,70.0
335,F2,79.0,0.25,40,70.0
336,B1,79.25,0.25,84,70.0
337,F2,79.25,0.25,40,70.0
338,B1,79.5,73/200,84,70.0
339,F2,79.5,263/250,40,70.0
340,B-4,79.823,1.0,114,70.0
341,D5,79.823,1.0,114,70.0
342,F5,79.823,1.0,114,70.0
343,A3,80.0,0.25,127,70.0
344,B3,80.25,0.25,127,70.0
345,C4,80.5,0.5,127,70.0
346,D4,80.75,0.25,127,70.0
347,E4,81.0,0.25,127,70.0
348,C4,81.0,2.25,127,70.0
349,F4,81.25,0.25,127,70.0
350,G4,81.5,0.25,127,70.0
351,A4,81.75,0.25,127,70.0
352,B4,82.0,0.25,127,70.0
353,C5,82.25,0.25,127,70.0
354,D5,82.5,0.25,127,70.0
355,E5,82.75,0.5,127,70.0
356,F5,83.25,0.75,127,70.0
357,B-2,83.25,0.75,127,70.0
358,B1,83.25,0.25,84,70.0
359,B-5,83.5,0.156,90,70.0
360,B-5,83.75,0.156,90,70.0
361,F5,84.0,0.75,127,70.0
362,B-2,84.0,0.75,127,70.0
363,B-5,84.0,0.156,90,70.0
364,D2,84.25,0.25,75,70.0
365,B-5,84.5,0.156,90,70.0
366,F5,84.75,2.0,127,70.0
367,B-2,84.75,0.5,127,70.0
368,B-5,84.75,0.156,90,70.0
369,D4,84.823,1.0,114,70.0
370,F#4,84.823,1.0,114,70.0
371,A4,84.823,1.0,114,70.0
372,B-5,85.0,0.156,90,70.0
373,D2,85.25,1.5,127,70.0
374,B1,85.25,0.25,84,70.0
375,B-5,85.5,0.156,90,70.0
376,B-5,85.75,0.156,90,70.0
377,D4,85.823,3.0,114,70.0
378,F#4,85.823,3.0,114,70.0
379,A4,85.823,3.0,114,70.0
380,B-5,86.0,0.156,90,70.0
381,D2,86.25,0.25,75,70.0
382,D5,86.25,1.75,115,70.0
383,F5,86.25,1.75,115,70.0
384,A5,86.25,1.75,115,70.0
385,B-5,86.5,0.156,90,70.0
386,D5,86.75,0.25,127,70.0
387,D2,86.75,0.25,127,70.0
388,B-5,86.75,0.156,90,70.0
389,E-5,87.0,0.25,127,70.0
390,D2,87.0,0.25,127,70.0
391,B-5,87.0,0.156,90,70.0
392,F5,87.25,0.5,127,70.0
393,E-2,87.25,1.5,127,70.0
394,B1,87.25,0.25,84,70.0
395,B-5,87.5,0.156,90,70.0
396,B-5,87.75,0.156,90,70.0
397,B-5,88.0,0.156,90,70.0
398,D5,88.0,0.25,115,70.0
399,F5,88.0,0.25,115,70.0
400,A5,88.0,0.25,115,70.0
401,E-5,88.25,0.25,127,70.0
402,D2,88.25,0.25,75,70.0
403,D5,88.5,0.25,127,70.0
404,B-5,88.5,0.156,90,70.0
405,C5,88.75,1.25,127,70.0
406,E-2,88.75,0.5,127,70.0
407,B-5,88.75,0.156,90,70.0
408,E-4,88.823,3.0,114,70.0
409,G4,88.823,3.0,114,70.0
410,B-4,88.823,3.0,114,70.0
411,B-5,89.0,0.156,90,70.0
412,F2,89.25,0.75,127,70.0
413,B1,89.25,0.25,84,70.0
414,B-5,89.5,0.156,90,70.0
415,B-5,89.75,0.156,90,70.0
416,C5,90.0,0.75,127,70.0
417,F2,90.0,0.75,127,70.0
418,B-5,90.0,0.156,90,70.0
419,B-4,90.25,0.5,127,70.0
420,D2,90.25,0.25,75,70.0
421,B-5,90.5,0.156,90,70.0
422,C5,90.75,2.25,127,70.0
423,F2,90.75,0.5,127,70.0
424,B-5,90.75,0.156,90,70.0
425,B-5,91.0,0.156,90,70.0
426,D5,91.25,1.5,127,70.0
427,B-2,91.25,1.5,127,70.0
428,B1,91.25,0.25,84,70.0
429,B-5,91.5,0.156,90,70.0
430,B-5,91.75,0.156,90,70.0
431,B-5,92.0,0.156,90,70.0
432,D2,92.25,0.25,75,70.0
433,B-5,92.5,0.156,90,70.0
434,B-4,92.75,0.25,127,70.0
435,B-2,92.75,0.25,127,70.0
436,B-5,92.75,0.156,90,70.0
437,E-4,92.823,1.0,114,70.0
438,G4,92.823,1.0,114,70.0
439,B-4,92.823,1.0,114,70.0
440,C5,93.0,1/200,127,70.0
441,B-2,93.0,0.25,127,70.0
442,B-5,93.0,0.156,90,70.0
443,D5,93.25,1.5,127,70.0
444,A2,93.25,1.5,127,70.0
445,B1,93.25,0.25,84,70.0
446,B-5,93.5,0.156,90,70.0
447,B-5,93.75,0.156,90,70.0
448,F4,93.823,2.0,114,70.0
449,A4,93.823,2.0,114,70.0
450,C5,93.823,2.0,114,70.0
451,B-5,94.0,0.156,90,70.0
452,D2,94.25,0.25,75,70.0
453,D5,94.25,2.0,115,70.0
454,F5,94.25,2.0,115,70.0
455,A5,94.25,2.0,115,70.0
456,B-5,94.5,0.156,90,70.0
457,C5,94.75,1.25,127,70.0
458,A2,94.75,0.5,127,70.0
459,B-5,94.75,0.156,90,70.0
460,D5,95.0,0.25,127,70.0
461,B-5,95.0,0.156,90,70.0
462,E-5,95.25,0.75,127,70.0
463,G2,95.25,0.75,127,70.0
464,B1,95.25,0.25,84,70.0
465,B-5,95.5,0.156,90,70.0
466,B-5,95.75,0.156,90,70.0
467,C5,96.0,1.0,127,70.0
468,E-5,96.0,3.0,127,70.0
469,G2,96.0,0.75,127,70.0
470,B-5,96.0,0.156,90,70.0
471,D2,96.25,0.25,75,70.0
472,B-5,96.5,0.156,90,70.0
473,D5,96.75,0.25,127,70.0
474,G2,96.75,0.5,127,70.0
475,B-5,96.75,0.156,90,70.0
476,C5,97.0,0.75,127,70.0
477,B-5,97.0,0.156,90,70.0
478,B-4,97.25,0.5,127,70.0
479,F2,97.25,1.5,127,70.0
480,B1,97.25,0.25,84,70.0
481,B-5,97.5,0.156,90,70.0
482,C5,97.75,1.25,127,70.0
483,B-5,97.75,0.156,90,70.0
484,F4,97.823,2.0,114,70.0
485,A4,97.823,2.0,114,70.0
486,C5,97.823,2.0,114,70.0
487,B-5,98.0,0.156,90,70.0
488,G5,98.25,0.5,127,70.0
489,D2,98.25,0.25,75,70.0
490,B-5,98.5,0.156,90,70.0
491,F5,98.75,0.25,127,70.0
492,F2,98.75,0.25,127,70.0
493,B-5,98.75,0.156,90,70.0
494,D5,99.0,0.25,127,70.0
495,E-5,99.0,3.0,127,70.0
496,C5,99.0,3.0,127,70.0
497,F2,99.0,0.25,127,70.0
498,B-5,99.0,0.156,90,70.0
499,F5,99.25,1.25,127,70.0
500,B-2,99.25,1.5,127,70.0
501,B1,99.25,0.25,84,70.0
502,B-5,99.5,0.156,90,70.0
503,B-5,99.75,0.156,90,70.0
504,B-5,100.0,0.156,90,70.0
505,D2,100.25,0.25,75,70.0
506,B-5,100.5,0.156,90,70.0
507,G5,100.75,0.25,127,70.0
508,B-2,100.75,0.5,127,70.0
509,B-5,100.75,0.156,90,70.0
510,D5,101.0,0.25,127,70.0
511,B-5,101.0,0.156,90,70.0
512,F5,101.25,0.75,127,70.0
513,D2,101.25,0.75,127,70.0
514,B1,101.25,0.25,84,70.0
515,B-5,101.5,0.156,90,70.0
516,B-5,101.75,0.156,90,70.0
517,E-5,102.0,1.0,127,70.0
518,C5,102.0,2.75,127,70.0
519,F5,102.0,1.25,127,70.0
520,D2,102.0,0.75,127,70.0
521,B-5,102.0,0.156,90,70.0
522,D2,102.25,0.25,75,70.0
523,D4,102.25,0.75,115,70.0
524,F4,102.25,0.75,115,70.0
525,A4,102.25,0.75,115,70.0
526,B-5,102.5,0.156,90,70.0
527,D5,102.75,0.25,127,70.0
528,D2,102.75,0.5,127,70.0
529,B-5,102.75,0.156,90,70.0
530,E-5,103.0,1.25,127,70.0
531,B-5,103.0,0.156,90,70.0
532,D4,103.0,1.25,115,70.0
533,F4,103.0,1.25,115,70.0
534,A4,103.0,1.25,115,70.0
535,B-4,103.073,0.75,114,70.0
536,D5,103.073,0.75,114,70.0
537,F5,103.073,0.75,114,70.0
538,F5,103.25,1.75,127,70.0
539,E-2,103.25,1.5,127,70.0
540,B1,103.25,0.25,84,70.0
541,B-5,103.5,0.156,90,70.0
542,B-5,103.75,0.156,90,70.0
543,B-4,103.823,1.25,114,70.0
544,D5,103.823,1.25,114,70.0
545,F5,103.823,1.25,114,70.0
546,B-5,104.0,0.156,90,70.0
547,E-5,104.25,0.75,127,70.0
548,D2,104.25,0.25,75,70.0
549,D5,104.5,0.25,127,70.0
550,B-5,104.5,0.156,90,70.0
551,C5,104.75,0.25,127,70.0
552,E-2,104.75,0.25,127,70.0
553,B-5,104.75,0.156,90,70.0
554,F5,105.0,3.0,127,70.0
555,E-5,105.0,3.0,127,70.0
556,C5,105.0,1.75,127,70.0
557,E-2,105.0,0.25,127,70.0
558,B-5,105.0,0.156,90,70.0
559,F2,105.25,1.5,127,70.0
560,B1,105.25,0.25,84,70.0
561,B-5,105.5,0.156,90,70.0
562,B-5,105.75,0.156,90,70.0
563,B-5,106.0,0.156,90,70.0
564,B-4,106.25,0.5,127,70.0
565,D2,106.25,0.25,75,70.0
566,B-5,106.5,0.156,90,70.0
567,C5,106.75,1.25,127,70.0
568,F2,106.75,0.5,127,70.0
569,B-5,106.75,0.156,90,70.0
570,B-4,107.0,0.25,127,70.0
571,B-5,107.0,0.156,90,70.0
572,E-4,107.073,2.0,114,70.0
573,G4,107.073,2.0,114,70.0
574,B-4,107.073,2.0,114,70.0
575,D5,107.25,0.75,127,70.0
576,G2,107.25,0.75,127,70.0
577,B1,107.25,0.25,84,70.0
578,B-5,107.5,0.156,90,70.0
579,B-5,107.75,0.156,90,70.0
580,F5,108.0,1.25,127,70.0
581,E-5,108.0,3.0,127,70.0
582,C5,108.0,3.0,127,70.0
583,D5,108.0,2.75,127,70.0
584,G2,108.0,0.75,127,70.0
585,B-5,108.0,0.156,90,70.0
586,D2,108.25,0.25,75,70.0
587,G4,108.25,0.75,115,70.0
588,B-4,108.25,0.75,115,70.0
589,D5,108.25,0.75,115,70.0
590,B-5,108.5,0.156,90,70.0
591,G5,108.75,0.5,127,70.0
592,G2,108.75,0.5,127,70.0
593,B-5,108.75,0.156,90,70.0
594,B-5,109.0,0.156,90,70.0
595,G4,109.0,1.25,115,70.0
596,B-4,109.0,1.25,115,70.0
597,D5,109.0,1.25,115,70.0
598,F5,109.073,0.75,114,70.0
599,A5,109.073,0.75,114,70.0
600,C6,109.073,0.75,114,70.0
601,F5,109.25,1.75,127,70.0
602,D2,109.25,1.5,127,70.0
603,B1,109.25,0.25,84,70.0
604,B-5,109.5,0.156,90,70.0
605,B-5,109.75,0.156,90,70.0
606,F5,109.823,1.25,114,70.0
607,A5,109.823,1.25,114,70.0
608,C6,109.823,1.25,114,70.0
609,B-5,110.0,0.156,90,70.0
610,D2,110.25,0.25,75,70.0
611,D4,110.25,1.75,115,70.0
612,F4,110.25,1.75,115,70.0
613,A4,110.25,1.75,115,70.0
614,B-5,110.5,0.156,90,70.0
615,D5,110.75,0.25,127,70.0
616,D2,110.75,0.25,127,70.0
617,B-5,110.75,0.156,90,70.0
618,E-5,111.0,3.0,127,70.0
619,C5,111.0,1/200,127,70.0
620,F5,111.0,3.0,127,70.0
621,D5,111.0,1/200,127,70.0
622,D2,111.0,0.25,127,70.0
623,B-5,111.0,0.156,90,70.0
624,B-5,111.073,1.75,114,70.0
625,D6,111.073,1.75,114,70.0
626,F6,111.073,1.75,114,70.0
627,B-4,111.25,1.5,127,70.0
628,C2,111.25,1.5,127,70.0
629,B1,111.25,0.25,84,70.0
630,B-5,111.5,0.156,90,70.0
631,B-5,111.75,0.156,90,70.0
632,B-5,112.0,0.156,90,70.0
633,D2,112.25,0.25,75,70.0
634,D4,112.25,0.25,115,70.0
635,F4,112.25,0.25,115,70.0
636,A4,112.25,0.25,115,70.0
637,B-5,112.5,0.156,90,70.0
638,C4,112.5,2.0,115,70.0
639,E-4,112.5,2.0,115,70.0
640,G4,112.5,2.0,115,70.0
641,C5,112.75,0.5,127,70.0
642,C2,112.75,0.5,127,70.0
643,B-5,112.75,0.156,90,70.0
644,D5,113.0,0.25,127,70.0
645,B-5,113.0,0.156,90,70.0
646,B-5,113.073,0.25,114,70.0
647,D6,113.073,0.25,114,70.0
648,F6,113.073,0.25,114,70.0
649,C5,113.25,0.75,127,70.0
650,F2,113.25,0.75,127,70.0
651,B1,113.25,0.25,84,70.0
652,B-5,113.5,0.156,90,70.0
653,B-4,113.75,0.25,127,70.0
654,B-5,113.75,0.156,90,70.0
655,E-5,114.0,3.0,127,70.0
656,F5,114.0,3.0,127,70.0
657,C5,114.0,3.0,127,70.0
658,B-4,114.0,1.25,127,70.0
659,F2,114.0,0.75,127,70.0
660,B-5,114.0,0.156,90,70.0
661,D2,114.25,0.25,75,70.0
662,B-5,114.5,0.156,90,70.0
663,A4,114.75,0.5,127,70.0
664,F2,114.75,0.5,127,70.0
665,B-5,114.75,0.156,90,70.0
666,B-5,115.0,0.156,90,70.0
667,B-4,115.25,1.75,127,70.0
668,B-2,115.25,1.5,127,70.0
669,B1,115.25,0.25,84,70.0
670,E-5,115.323,0.75,114,70.0
671,G5,115.323,0.75,114,70.0
672,B-5,115.323,0.75,114,70.0
673,B-5,115.5,0.156,90,70.0
674,B-5,115.75,0.156,90,70.0
675,B-5,116.0,0.156,90,70.0
676,E-5,116.073,1.25,114,70.0
677,G5,116.073,1.25,114,70.0
678,B-5,116.073,1.25,114,70.0
679,D2,116.25,0.25,75,70.0
680,B-5,116.5,0.156,90,70.0
681,B-2,116.75,0.25,127,70.0
682,B-5,116.75,0.156,90,70.0
683,E-5,117.0,3.0,127,70.0
684,F5,117.0,3.0,127,70.0
685,C5,117.0,3.0,127,70.0
686,B-4,117.0,3.0,127,70.0
687,B-2,117.0,0.25,127,70.0
688,B-5,117.0,0.156,90,70.0
689,B-2,117.25,1.5,127,70.0
690,B1,117.25,0.25,84,70.0
691,F5,117.323,1.75,114,70.0
692,A5,117.323,1.75,114,70.0
693,C6,117.323,1.75,114,70.0
694,B-5,117.5,0.156,90,70.0
695,B-5,117.75,0.156,90,70.0
696,B-5,118.0,0.156,90,70.0
697,D2,118.25,0.25,75,70.0
698,B-5,118.5,0.156,90,70.0
699,B-2,118.75,0.5,127,70.0
700,B-5,118.75,0.156,90,70.0
701,B-5,119.0,0.156,90,70.0
702,C2,119.25,0.75,127,70.0
703,B1,119.25,0.25,84,70.0
704,F5,119.323,0.25,114,70.0
705,A5,119.323,0.25,114,70.0
706,C6,119.323,0.25,114,70.0
707,B-5,119.5,0.156,90,70.0
708,B-4,119.573,2.0,114,70.0
709,D5,119.573,2.0,114,70.0
710,F5,119.573,2.0,114,70.0
711,B-5,119.75,0.156,90,70.0
712,E-5,120.0,3.0,127,70.0
713,F5,120.0,3.0,127,70.0
714,C5,120.0,3.0,127,70.0
715,B-4,120.0,3.0,127,70.0
716,C2,120.0,0.75,127,70.0
717,B-5,120.0,0.156,90,70.0
718,D2,120.25,0.25,75,70.0
719,B-5,120.5,0.156,90,70.0
720,C5,120.5,0.75,115,70.0
721,E-5,120.5,0.75,115,70.0
722,G5,120.5,0.75,115,70.0
723,C2,120.75,0.5,127,70.0
724,B-5,120.75,0.156,90,70.0
725,B-5,121.0,0.156,90,70.0
726,B1,121.25,6/25,84,70.0
727,F2,121.25,0.25,40,70.0
728,C5,121.25,1.25,115,70.0
729,E-5,121.25,1.25,115,70.0
730,G5,121.25,1.25,115,70.0
731,B1,121.5,6/25,84,70.0
732,F2,121.5,0.25,40,70.0
733,B1,121.75,6/25,84,70.0
734,F2,121.75,0.25,40,70.0
735,B1,122.0,177/1000,84,70.0
736,F2,122.0,0.25,40,70.0
737,B1,122.25,177/1000,84,70.0
738,F2,122.25,0.5,40,70.0
739,B1,122.75,0.219,84,70.0
740,F2,122.75,0.25,40,70.0
741,E-5,123.0,3.0,127,70.0
742,F5,123.0,3.0,127,70.0
743,C5,123.0,3.0,127,70.0
744,B-4,123.0,3.0,127,70.0
745,B1,123.0,0.219,84,70.0
746,F2,123.0,1/200,40,70.0
747,B1,123.5,13/50,84,70.0
748,F2,123.5,1/200,40,70.0
749,B-4,123.5,1.5,127,70.0
750,E-4,123.573,1.75,114,70.0
751,G4,123.573,1.75,114,70.0
752,B-4,123.573,1.75,114,70.0
753,B-5,124.0,0.156,90,70.0
754,F#3,124.5,99/500,87,70.0
755,B-2,125.0,0.5,127,70.0
756,B1,125.0,323/1000,84,70.0
757,F4,125.0,1.0,127,70.0
758,E-4,125.323,0.25,114,70.0
759,G4,125.323,0.25,114,70.0
760,B-4,125.323,0.25,114,70.0
761,B-2,125.5,0.5,127,70.0
762,B1,125.5,323/1000,84,70.0
763,F4,125.573,2.0,114,70.0
764,A4,125.573,2.0,114,70.0
765,C5,125.573,2.0,114,70.0
766,E-5,126.0,3.0,127,70.0
767,F5,126.0,3.0,127,70.0
768,C5,126.0,3.0,127,70.0
769,B-4,126.0,3.0,127,70.0
770,B-2,126.0,1.5,127,70.0
771,B-5,126.0,0.156,90,70.0
772,F4,126.0,1.0,127,70.0
773,F#3,126.5,99/500,87,70.0
774,B1,127.0,323/1000,84,70.0
775,F4,127.0,0.5,64,70.0
776,B-2,127.5,1.5,127,70.0
777,B1,127.5,323/1000,84,70.0
778,C5,127.5,1.438,127,70.0
779,B-5,128.0,0.156,90,70.0
780,F#3,128.5,99/500,87,70.0
781,C5,128.75,1.5,115,70.0
782,E-5,128.75,1.5,115,70.0
783,G5,128.75,1.5,115,70.0
784,E-5,129.0,3.0,127,70.0
785,F5,129.0,3.0,127,70.0
786,C5,129.0,3.0,127,70.0
787,B-4,129.0,3.0,127,70.0
788,B-2,129.0,1/200,127,70.0
789,B1,129.0,323/1000,84,70.0
790,F4,129.0,1073/500,127,70.0
791,B-2,129.5,1/200,127,70.0
792,B1,129.5,323/1000,84,70.0
793,B-5,130.0,0.156,90,70.0
794,C5,130.25,2.5,115,70.0
795,E-5,130.25,2.5,115,70.0
796,G5,130.25,2.5,115,70.0
797,F#3,130.5,99/500,87,70.0
798,B1,131.0,323/1000,84,70.0
799,F2,131.5,0.5,127,70.0
800,B1,131.5,323/1000,84,70.0
801,A4,131.5,0.5,127,70.0
802,E-5,132.0,3.0,127,70.0
803,F5,132.0,3.0,127,70.0
804,C5,132.0,3.0,127,70.0
805,B-4,132.0,3.0,127,70.0
806,F2,132.0,1.0,127,70.0
807,B-5,132.0,0.156,90,70.0
808,A4,132.0,0.5,127,70.0
809,F#3,132.5,99/500,87,70.0
810,B-4,132.5,0.5,127,70.0
811,F2,133.0,0.5,127,70.0
812,B1,133.0,323/1000,84,70.0
813,C5,133.0,1.438,127,70.0
814,F2,133.5,1.5,127,70.0
815,B1,133.5,323/1000,84,70.0
816,F4,133.573,0.75,114,70.0
817,A4,133.573,0.75,114,70.0
818,C5,133.573,0.75,114,70.0
819,B-5,134.0,0.156,90,70.0
820,F4,134.323,1.25,114,70.0
821,A4,134.323,1.25,114,70.0
822,C5,134.323,1.25,114,70.0
823,F#3,134.5,99/500,87,70.0
824,A4,134.5,0.5,127,70.0
825,E-5,135.0,3.0,127,70.0
826,F5,135.0,3.0,127,70.0
827,C5,135.0,3.0,127,70.0
828,B-4,135.0,3.0,127,70.0
829,F2,135.0,0.5,127,70.0
830,B1,135.0,323/1000,84,70.0
831,A4,135.0,0.5,127,70.0
832,B-2,135.5,1.5,127,70.0
833,B1,135.5,323/1000,84,70.0
834,F4,135.5,1073/500,127,70.0
835,B-4,135.573,1.75,114,70.0
836,D5,135.573,1.75,114,70.0
837,F5,135.573,1.75,114,70.0
838,B-5,136.0,0.156,90,70.0
839,F#3,136.5,99/500,87,70.0
840,B-2,137.0,0.5,127,70.0
841,B1,137.0,323/1000,84,70.0
842,B-2,137.5,0.25,127,70.0
843,B1,137.5,323/1000,84,70.0
844,B-2,137.75,0.25,127,70.0
845,E-5,138.0,3.0,127,70.0
846,F5,138.0,3.0,127,70.0
847,C5,138.0,3.0,127,70.0
848,B-4,138.0,3.0,127,70.0
849,B-2,138.0,0.5,127,70.0
850,B-5,138.0,0.156,90,70.0
851,A2,138.5,1.0,127,70.0
852,F#3,138.5,99/500,87,70.0
853,B1,139.0,323/1000,84,70.0
854,G2,139.5,1.5,127,70.0
855,B1,139.5,323/1000,84,70.0
856,G4,139.5,1.5,127,70.0
857,B-4,139.573,2.25,114,70.0
858,D5,139.573,2.25,114,70.0
859,F5,139.573,2.25,114,70.0
860,B-5,140.0,0.156,90,70.0
861,F#3,140.5,99/500,87,70.0
862,G4,140.75,1.5,115,70.0
863,B-4,140.75,1.5,115,70.0
864,D5,140.75,1.5,115,70.0
865,E-5,141.0,3.0,127,70.0
866,F5,141.0,3.0,127,70.0
867,C5,141.0,3.0,127,70.0
868,B-4,141.0,3.0,127,70.0
869,G2,141.0,1/200,127,70.0
870,B1,141.0,323/1000,84,70.0
871,D4,141.0,2.0,64,70.0
872,G2,141.5,1/200,127,70.0
873,B1,141.5,323/1000,84,70.0
874,B-5,142.0,0.156,90,70.0
875,G4,142.25,2.5,115,70.0
876,B-4,142.25,2.5,115,70.0
877,D5,142.25,2.5,115,70.0
878,F#3,142.5,99/500,87,70.0
879,B1,143.0,323/1000,84,70.0
880,G4,143.0,0.5,127,70.0
881,D2,143.5,0.5,127,70.0
882,B1,143.5,323/1000,84,70.0
883,A4,143.5,0.5,127,70.0
884,F4,143.823,1.75,114,70.0
885,A4,143.823,1.75,114,70.0
886,C5,143.823,1.75,114,70.0
887,E-5,144.0,3.0,127,70.0
888,F5,144.0,3.0,127,70.0
889,C5,144.0,3.0,127,70.0
890,B-4,144.0,3.0,127,70.0
891,D2,144.0,1.0,127,70.0
892,B-5,144.0,0.156,90,70.0
893,A4,144.0,1.0,127,70.0
894,F#3,144.5,99/500,87,70.0
895,D2,145.0,0.5,127,70.0
896,B1,145.0,323/1000,84,70.0
897,D4,145.0,0.5,127,70.0
898,D2,145.5,1.5,127,70.0
899,B1,145.5,323/1000,84,70.0
900,D4,145.5,1.5,127,70.0
901,F4,145.573,0.5,114,70.0
902,A4,145.573,0.5,114,70.0
903,C5,145.573,0.5,114,70.0
904,B-5,146.0,0.156,90,70.0
905,B-4,146.073,2.5,114,70.0
906,D5,146.073,2.5,114,70.0
907,F5,146.073,2.5,114,70.0
908,F#3,146.5,99/500,87,70.0
909,E-5,147.0,3.0,127,70.0
910,F5,147.0,3.0,127,70.0
911,C5,147.0,3.0,127,70.0
912,B-4,147.0,3.0,127,70.0
913,D2,147.0,0.5,127,70.0
914,B1,147.0,323/1000,84,70.0
915,D4,147.0,0.5,127,70.0
916,E-2,147.5,2.5,127,70.0
917,B1,147.5,323/1000,84,70.0
918,B-4,147.5,0.5,127,70.0
919,B-5,148.0,0.156,90,70.0
920,A4,148.0,0.5,127,70.0
921,F#3,148.5,99/500,87,70.0
922,G4,148.5,0.5,127,70.0
923,B1,149.0,323/1000,84,70.0
924,F4,149.0,1.0,127,70.0
925,B1,149.5,323/1000,84,70.0
926,E-5,150.0,3.0,127,70.0
927,F5,150.0,3.0,127,70.0
928,C5,150.0,3.0,127,70.0
929,B-4,150.0,3.0,127,70.0
930,E-2,150.0,1.5,127,70.0
931,B-5,150.0,0.156,90,70.0
932,F4,150.0,1.0,127,70.0
933,B-4,150.073,1.5,114,70.0
934,D5,150.073,1.5,114,70.0
935,F5,150.073,1.5,114,70.0
936,F#3,150.5,99/500,87,70.0
937,B1,151.0,323/1000,84,70.0
938,D4,151.0,0.25,127,70.0
939,E-4,151.25,0.25,64,70.0
940,F2,151.5,1.5,127,70.0
941,B1,151.5,323/1000,84,70.0
942,F4,151.5,1.0,64,70.0
943,B-5,152.0,0.156,90,70.0
944,F#3,152.5,99/500,87,70.0
945,E-4,152.5,0.5,64,70.0
946,E-5,153.0,3.0,127,70.0
947,F5,153.0,3.0,127,70.0
948,C5,153.0,3.0,127,70.0
949,B-4,153.0,3.0,127,70.0
950,F2,153.0,1/200,127,70.0
951,B1,153.0,323/1000,84,70.0
952,D4,153.0,0.25,64,70.0
953,C4,153.25,2.25,127,70.0
954,F2,153.5,1/200,127,70.0
955,B1,153.5,323/1000,84,70.0
956,B1,154.0,229/1000,84,70.0
957,F2,154.0,0.5,40,70.0
958,B1,154.5,0.25,84,70.0
959,F2,154.5,0.25,40,70.0
960,B1,154.75,0.25,84,70.0
961,F2,154.75,0.25,40,70.0
962,B1,155.0,73/200,84,70.0
963,F2,155.0,0.5,40,70.0
964,A3,155.5,1/200,86,70.0
965,A3,155.5,0.25,45,70.0
966,F4,155.573,0.5,114,70.0
967,A4,155.573,0.5,114,70.0
968,C5,155.573,0.5,114,70.0
969,B3,155.75,1/200,115,70.0
970,B3,155.75,0.25,45,70.0
971,E-5,156.0,3.0,127,70.0
972,F5,156.0,3.0,127,70.0
973,C5,156.0,3.0,127,70.0
974,B-4,156.0,3.0,127,70.0
975,C4,156.0,1/200,115,70.0
976,C4,156.0,0.25,45,70.0
977,F4,156.073,3.0,114,70.0
978,A4,156.073,3.0,114,70.0
979,C5,156.073,3.0,114,70.0
980,D4,156.25,1/200,115,70.0
981,D4,156.25,0.25,45,70.0
982,E4,156.5,1/200,115,70.0
983,E4,156.5,0.25,45,70.0
984,F4,156.75,1/200,115,70.0
985,F4,156.75,0.25,45,70.0
986,G4,157.0,1/200,115,70.0
987,G4,157.0,0.25,45,70.0
988,A4,157.25,1/200,115,70.0
989,A4,157.25,0.25,45,70.0
990,B4,157.5,1/200,115,70.0
991,B4,157.5,0.25,45,70.0
992,C5,157.75,1/200,115,70.0
993,C5,157.75,0.25,45,70.0
994,D5,158.0,1/200,115,70.0
995,D5,158.0,0.25,45,70.0
996,E5,158.25,1/200,115,70.0
997,E5,158.25,0.5,45,70.0
998,B-2,158.75,0.25,127,70.0
999,B1,158.75,0.25,84,70.0
1000,F5,158.75,0.25,127,70.0
1001,E-5,159.0,3.0,127,70.0
1002,F5,159.0,3.0,127,70.0
1003,C5,159.0,3.0,127,70.0
1004,B-4,159.0,3.0,127,70.0
1005,B-2,159.0,1.25,127,70.0
1006,B-5,159.0,0.156,90,70.0
1007,F5,159.0,1.25,127,70.0
1008,B-5,159.25,0.156,90,70.0
1009,B-5,159.5,0.156,90,70.0
1010,F4,159.573,0.5,114,70.0
1011,A4,159.573,0.5,114,70.0
1012,C5,159.573,0.5,114,70.0
1013,D2,159.75,0.25,75,70.0
1014,B-5,160.0,0.156,90,70.0
1015,B-4,160.073,2.5,114,70.0
1016,D5,160.073,2.5,114,70.0
1017,F5,160.073,2.5,114,70.0
1018,B-2,160.25,0.5,127,70.0
1019,B-5,160.25,0.156,90,70.0
1020,F5,160.25,1.75,127,70.0
1021,B-5,160.5,0.156,90,70.0
1022,D2,160.75,1.25,127,70.0
1023,B1,160.75,0.25,84,70.0
1024,B-5,161.0,0.156,90,70.0
1025,B-5,161.25,0.156,90,70.0
1026,B-5,161.5,0.156,90,70.0
1027,D2,161.75,0.25,75,70.0
1028,E-5,162.0,3.0,127,70.0
1029,F5,162.0,3.0,127,70.0
1030,C5,162.0,3.0,127,70.0
1031,B-4,162.0,3.0,127,70.0
1032,D2,162.0,0.25,127,70.0
1033,B-5,162.0,0.156,90,70.0
1034,F5,162.0,0.25,127,70.0
1035,D5,162.0,1.25,115,70.0
1036,F5,162.0,1.25,115,70.0
1037,A5,162.0,1.25,115,70.0
1038,D2,162.25,0.5,127,70.0
1039,B-5,162.25,0.156,90,70.0
1040,D5,162.25,0.25,127,70.0
1041,B-5,162.5,0.156,90,70.0
1042,E-5,162.5,0.25,127,70.0
1043,E-2,162.75,1.5,127,70.0
1044,B1,162.75,0.25,84,70.0
1045,F5,162.75,0.5,127,70.0
1046,B-5,163.0,0.156,90,70.0
1047,B-5,163.25,0.156,90,70.0
1048,G5,163.25,0.5,5,70.0
1049,D5,163.25,0.75,115,70.0
1050,F5,163.25,0.75,115,70.0
1051,A5,163.25,0.75,115,70.0
1052,B-5,163.5,0.156,90,70.0
1053,D2,163.75,0.25,75,70.0
1054,E-5,163.75,0.25,127,70.0
1055,B-5,164.0,0.156,90,70.0
1056,D5,164.0,0.25,127,70.0
1057,B-4,164.073,1.5,114,70.0
1058,D5,164.073,1.5,114,70.0
1059,F5,164.073,1.5,114,70.0
1060,E-2,164.25,0.5,127,70.0
1061,B-5,164.25,0.156,90,70.0
1062,C5,164.25,0.75,127,70.0
1063,B-5,164.5,0.156,90,70.0
1064,F2,164.75,0.25,127,70.0
1065,B1,164.75,0.25,84,70.0
1066,E-5,165.0,3.0,127,70.0
1067,F5,165.0,3.0,127,70.0
1068,C5,165.0,3.0,127,70.0
1069,B-4,165.0,3.0,127,70.0
1070,F2,165.0,1.25,127,70.0
1071,B-5,165.0,0.156,90,70.0
1072,C5,165.0,0.75,127,70.0
1073,B-5,165.25,0.156,90,70.0
1074,B-5,165.5,0.156,90,70.0
1075,D2,165.75,0.25,75,70.0
1076,B-4,165.75,0.5,127,70.0
1077,B-5,166.0,0.156,90,70.0
1078,F2,166.25,0.5,127,70.0
1079,B-5,166.25,0.156,90,70.0
1080,C5,166.25,0.5,127,70.0
1081,B-5,166.5,0.156,90,70.0
1082,B-2,166.75,1.25,127,70.0
1083,B1,166.75,0.25,84,70.0
1084,D5,166.75,1.25,127,70.0
1085,B-5,167.0,0.156,90,70.0
1086,B-5,167.25,0.156,90,70.0
1087,B-5,167.5,0.156,90,70.0
1088,D2,167.75,0.25,75,70.0
1089,E-5,168.0,3.0,127,70.0
1090,F5,168.0,3.0,127,70.0
1091,C5,168.0,3.0,127,70.0
1092,B-4,168.0,3.0,127,70.0
1093,B-2,168.0,0.25,127,70.0
1094,B-5,168.0,0.156,90,70.0
1095,D5,168.0,0.25,127,70.0
1096,B-2,168.25,0.5,127,70.0
1097,B-5,168.25,0.156,90,70.0
1098,B-4,168.25,0.25,127,70.0
1099,B-5,168.5,0.156,90,70.0
1100,C5,168.5,0.25,127,70.0
1101,A2,168.75,1.5,127,70.0
1102,B1,168.75,0.25,84,70.0
1103,D5,168.75,1.5,127,70.0
1104,B-5,169.0,0.156,90,70.0
1105,B-5,169.25,0.156,90,70.0
1106,B-5,169.5,0.156,90,70.0
1107,D4,169.573,0.5,114,70.0
1108,F#4,169.573,0.5,114,70.0
1109,A4,169.573,0.5,114,70.0
1110,D2,169.75,0.25,75,70.0
1111,B-5,170.0,0.156,90,70.0
1112,D5,170.0,2.0,115,70.0
1113,F5,170.0,2.0,115,70.0
1114,A5,170.0,2.0,115,70.0
1115,D4,170.073,3.0,114,70.0
1116,F#4,170.073,3.0,114,70.0
1117,A4,170.073,3.0,114,70.0
1118,A2,170.25,0.5,127,70.0
1119,B-5,170.25,0.156,90,70.0
1120,C5,170.25,0.25,127,70.0
1121,B-5,170.5,0.156,90,70.0
1122,D5,170.5,0.25,127,70.0
1123,G2,170.75,0.25,127,70.0
1124,B1,170.75,0.25,84,70.0
1125,E-5,170.75,0.25,127,70.0
1126,E-5,171.0,3.0,127,70.0
1127,F5,171.0,3.0,127,70.0
1128,C5,171.0,3.0,127,70.0
1129,B-4,171.0,3.0,127,70.0
1130,G2,171.0,1.25,127,70.0
1131,B-5,171.0,0.156,90,70.0
1132,E-5,171.0,1.25,127,70.0
1133,B-5,171.25,0.156,90,70.0
1134,B-5,171.5,0.156,90,70.0
1135,D2,171.75,0.25,75,70.0
1136,B-5,172.0,0.156,90,70.0
1137,G2,172.25,0.5,127,70.0
1138,B-5,172.25,0.156,90,70.0
1139,D5,172.25,0.25,127,70.0
1140,B-5,172.5,0.156,90,70.0
1141,C5,172.5,0.25,127,70.0
1142,F2,172.75,1.25,127,70.0
1143,B1,172.75,0.25,84,70.0
1144,B-4,172.75,0.5,127,70.0
1145,B-5,173.0,0.156,90,70.0
1146,B-5,173.25,0.156,90,70.0
1147,C5,173.25,0.5,127,70.0
1148,B-5,173.5,0.156,90,70.0
1149,D4,173.573,0.5,114,70.0
1150,F#4,173.573,0.5,114,70.0
1151,A4,173.573,0.5,114,70.0
1152,D2,173.75,0.25,75,70.0
1153,G5,173.75,0.25,127,70.0
1154,E-5,174.0,3.0,127,70.0
1155,F5,174.0,3.0,127,70.0
1156,C5,174.0,3.0,127,70.0
1157,B-4,174.0,3.0,127,70.0
1158,F2,174.0,0.25,127,70.0
1159,B-5,174.0,0.156,90,70.0
1160,G5,174.0,0.25,127,70.0
1161,E-4,174.073,2.5,114,70.0
1162,G4,174.073,2.5,114,70.0
1163,B-4,174.073,2.5,114,70.0
1164,F2,174.25,0.5,127,70.0
1165,B-5,174.25,0.156,90,70.0
1166,F5,174.25,0.25,127,70.0
1167,B-5,174.5,0.156,90,70.0
1168,D5,174.5,0.25,127,70.0
1169,B-2,174.75,1.5,127,70.0
1170,B1,174.75,0.25,84,70.0
1171,F5,174.75,1.25,127,70.0
1172,B-5,175.0,0.156,90,70.0
1173,B-5,175.25,0.156,90,70.0
1174,B-5,175.5,0.156,90,70.0
1175,D2,175.75,0.25,75,70.0
1176,B-5,176.0,0.156,90,70.0
1177,G5,176.0,0.25,5,70.0
1178,B-2,176.25,0.5,127,70.0
1179,B-5,176.25,0.156,90,70.0
1180,G5,176.25,0.25,127,70.0
1181,B-5,176.5,0.156,90,70.0
1182,D5,176.5,0.25,127,70.0
1183,D2,176.75,0.25,127,70.0
1184,B1,176.75,0.25,84,70.0
1185,F5,176.75,0.25,127,70.0
1186,E-5,177.0,3.0,127,70.0
1187,F5,177.0,3.0,127,70.0
1188,C5,177.0,3.0,127,70.0
1189,B-4,177.0,3.0,127,70.0
1190,D2,177.0,1.25,127,70.0
1191,B-5,177.0,0.156,90,70.0
1192,F5,177.0,1.0,127,70.0
1193,B-5,177.25,0.156,90,70.0
1194,B-5,177.5,0.156,90,70.0
1195,D2,177.75,0.25,75,70.0
1196,B-5,178.0,0.156,90,70.0
1197,G5,178.0,0.25,5,70.0
1198,D4,178.0,0.25,115,70.0
1199,F4,178.0,0.25,115,70.0
1200,A4,178.0,0.25,115,70.0
1201,E-4,178.073,1.5,114,70.0
1202,G4,178.073,1.5,114,70.0
1203,B-4,178.073,1.5,114,70.0
1204,D2,178.25,0.5,127,70.0
1205,B-5,178.25,0.156,90,70.0
1206,D5,178.25,0.25,127,70.0
1207,D4,178.25,1.75,115,70.0
1208,F4,178.25,1.75,115,70.0
1209,A4,178.25,1.75,115,70.0
1210,B-5,178.5,0.156,90,70.0
1211,E-5,178.5,0.25,127,70.0
1212,E-2,178.75,1.25,127,70.0
1213,B1,178.75,0.25,84,70.0
1214,F5,178.75,1.0,127,70.0
1215,B-5,179.0,0.156,90,70.0
1216,B-5,179.25,0.156,90,70.0
1217,B-5,179.5,0.156,90,70.0
1218,F4,179.573,1.5,114,70.0
1219,A4,179.573,1.5,114,70.0
1220,C5,179.573,1.5,114,70.0
1221,D2,179.75,0.25,75,70.0
1222,E-5,179.75,0.25,127,70.0
1223,E-5,180.0,3.0,127,70.0
1224,F5,180.0,3.0,127,70.0
1225,C5,180.0,3.0,127,70.0
1226,B-4,180.0,3.0,127,70.0
1227,E-2,180.0,0.25,127,70.0
1228,B-5,180.0,0.156,90,70.0
1229,D5,180.0,0.25,127,70.0
1230,E-2,180.25,0.5,127,70.0
1231,B-5,180.25,0.156,90,70.0
1232,C5,180.25,1.5,127,70.0
1233,B-5,180.5,0.156,90,70.0
1234,F2,180.75,1.5,127,70.0
1235,B1,180.75,0.25,84,70.0
1236,B-5,181.0,0.156,90,70.0
1237,B-5,181.25,0.156,90,70.0
1238,B-5,181.5,0.156,90,70.0
1239,D2,181.75,0.25,75,70.0
1240,B-4,181.75,0.5,127,70.0
1241,B-5,182.0,0.156,90,70.0
1242,F2,182.25,0.5,127,70.0
1243,B-5,182.25,0.156,90,70.0
1244,C5,182.25,0.25,127,70.0
1245,B-5,182.5,0.156,90,70.0
1246,B-4,182.5,0.25,127,70.0
1247,G2,182.75,0.25,127,70.0
1248,B1,182.75,0.25,84,70.0
1249,D5,182.75,0.25,127,70.0
1250,E-5,183.0,3.0,127,70.0
1251,F5,183.0,3.0,127,70.0
1252,C5,183.0,3.0,127,70.0
1253,B-4,183.0,3.0,127,70.0
1254,G2,183.0,1.25,127,70.0
1255,B-5,183.0,0.156,90,70.0
1256,D5,183.0,1.25,127,70.0
1257,B-5,183.25,0.156,90,70.0
1258,B-5,183.5,0.156,90,70.0
1259,F4,183.573,2.5,114,70.0
1260,A4,183.573,2.5,114,70.0
1261,C5,183.573,2.5,114,70.0
1262,D2,183.75,0.25,75,70.0
1263,B-5,184.0,0.156,90,70.0
1264,G4,184.0,0.25,115,70.0
1265,B-4,184.0,0.25,115,70.0
1266,D5,184.0,0.25,115,70.0
1267,G2,184.25,0.5,127,70.0
1268,B-5,184.25,0.156,90,70.0
1269,G5,184.25,0.5,127,70.0
1270,G4,184.25,1.75,115,70.0
1271,B-4,184.25,1.75,115,70.0
1272,D5,184.25,1.75,115,70.0
1273,B-5,184.5,0.156,90,70.0
1274,D2,184.75,1.25,127,70.0
1275,B1,184.75,0.25,84,70.0
1276,F5,184.75,1.25,127,70.0
1277,B-5,185.0,0.156,90,70.0
1278,B-5,185.25,0.156,90,70.0
1279,B-5,185.5,0.156,90,70.0
1280,D2,185.75,0.25,75,70.0
1281,E-5,186.0,3.0,127,70.0
1282,F5,186.0,3.0,127,70.0
1283,C5,186.0,3.0,127,70.0
1284,B-4,186.0,3.0,127,70.0
1285,D2,186.0,0.25,127,70.0
1286,B-5,186.0,0.156,90,70.0
1287,F5,186.0,0.25,127,70.0
1288,D4,186.0,1.25,115,70.0
1289,F4,186.0,1.25,115,70.0
1290,A4,186.0,1.25,115,70.0
1291,D2,186.25,0.5,127,70.0
1292,B-5,186.25,0.156,90,70.0
1293,D5,186.25,0.25,127,70.0
1294,B-5,186.5,0.156,90,70.0
1295,C5,186.5,0.25,127,70.0
1296,C2,186.75,1.5,127,70.0
1297,B1,186.75,0.25,84,70.0
1298,B-4,186.75,1.5,127,70.0
1299,B-5,187.0,0.156,90,70.0
1300,B-5,187.25,0.156,90,70.0
1301,B-5,187.5,0.156,90,70.0
1302,D2,187.75,0.25,75,70.0
1303,B-5,188.0,0.156,90,70.0
1304,D4,188.0,0.75,115,70.0
1305,F4,188.0,0.75,115,70.0
1306,A4,188.0,0.75,115,70.0
1307,C2,188.25,0.5,127,70.0
1308,B-5,188.25,0.156,90,70.0
1309,C5,188.25,0.25,127,70.0
1310,B-5,188.5,0.156,90,70.0
1311,D5,188.5,0.25,127,70.0
1312,F2,188.75,0.25,127,70.0
1313,B1,188.75,0.25,84,70.0
1314,C5,188.75,0.25,127,70.0
1315,C4,188.75,2.0,115,70.0
1316,E-4,188.75,2.0,115,70.0
1317,G4,188.75,2.0,115,70.0
1318,E-5,189.0,3.0,127,70.0
1319,F5,189.0,3.0,127,70.0
1320,C5,189.0,3.0,127,70.0
1321,B-4,189.0,3.0,127,70.0
1322,F2,189.0,1.25,127,70.0
1323,B-5,189.0,0.156,90,70.0
1324,C5,189.0,0.25,127,70.0
1325,B-5,189.25,0.156,90,70.0
1326,D5,189.25,1.0,127,70.0
1327,B-4,189.323,0.25,114,70.0
1328,D5,189.323,0.25,114,70.0
1329,F5,189.323,0.25,114,70.0
1330,B-5,189.5,0.156,90,70.0
1331,B-4,189.573,1.75,114,70.0
1332,D5,189.573,1.75,114,70.0
1333,F5,189.573,1.75,114,70.0
1334,D2,189.75,0.25,75,70.0
1335,B-5,190.0,0.156,90,70.0
1336,F2,190.25,0.5,127,70.0
1337,B-5,190.25,0.156,90,70.0
1338,F5,190.25,0.25,127,70.0
1339,B-5,190.5,0.156,90,70.0
1340,D5,190.5,0.25,127,70.0
1341,E-2,190.75,1.25,127,70.0
1342,B1,190.75,0.25,84,70.0
1343,G5,190.75,1.0,127,70.0
1344,B-5,191.0,0.156,90,70.0
1345,B-5,191.25,0.156,90,70.0
1346,B-5,191.5,0.156,90,70.0
1347,D2,191.75,0.25,75,70.0
1348,G5,191.75,0.25,127,70.0
1349,E-5,192.0,3.0,127,70.0
1350,F5,192.0,3.0,127,70.0
1351,C5,192.0,3.0,127,70.0
1352,B-4,192.0,3.0,127,70.0
1353,E-2,192.0,0.25,127,70.0
1354,B-5,192.0,0.156,90,70.0
1355,G5,192.0,1/200,127,70.0
1356,E-2,192.25,0.5,127,70.0
1357,B-5,192.25,0.156,90,70.0
1358,A5,192.25,0.25,127,70.0
1359,B-5,192.5,0.156,90,70.0
1360,B-5,192.5,2.5,127,70.0
1361,E-2,192.75,1.5,127,70.0
1362,B1,192.75,0.25,84,70.0
1363,B-5,193.0,0.156,90,70.0
1364,B-5,193.25,0.156,90,70.0
1365,E-4,193.323,2.0,114,70.0
1366,G4,193.323,2.0,114,70.0
1367,B-4,193.323,2.0,114,70.0
1368,B-5,193.5,0.156,90,70.0
1369,D2,193.75,0.25,75,70.0
1370,B-5,194.0,0.156,90,70.0
1371,E-2,194.25,0.5,127,70.0
1372,B-5,194.25,0.156,90,70.0
1373,B-5,194.5,0.156,90,70.0
1374,D2,194.75,0.25,127,70.0
1375,B1,194.75,0.25,84,70.0
1376,E-5,195.0,3.0,127,70.0
1377,F5,195.0,3.0,127,70.0
1378,C5,195.0,3.0,127,70.0
1379,B-4,195.0,3.0,127,70.0
1380,D2,195.0,1.25,127,70.0
1381,B-5,195.0,0.156,90,70.0
1382,B-5,195.0,0.25,127,70.0
1383,B-5,195.25,0.156,90,70.0
1384,G5,195.25,0.5,127,70.0
1385,F5,195.323,0.25,114,70.0
1386,A5,195.323,0.25,114,70.0
1387,C6,195.323,0.25,114,70.0
1388,B-5,195.5,0.156,90,70.0
1389,F5,195.573,1.75,114,70.0
1390,A5,195.573,1.75,114,70.0
1391,C6,195.573,1.75,114,70.0
1392,D2,195.75,0.25,75,70.0
1393,G5,195.75,0.5,127,70.0
1394,B-5,196.0,0.156,90,70.0
1395,D2,196.25,0.5,127,70.0
1396,B-5,196.25,0.156,90,70.0
1397,F5,196.25,0.25,127,70.0
1398,B-5,196.5,0.156,90,70.0
1399,D5,196.5,0.25,127,70.0
1400,D2,196.75,1.25,127,70.0
1401,B1,196.75,0.25,84,70.0
1402,F5,196.75,0.75,127,70.0
1403,B-5,197.0,0.156,90,70.0
1404,B-5,197.25,0.156,90,70.0
1405,B-5,197.323,1.25,114,70.0
1406,D6,197.323,1.25,114,70.0
1407,F6,197.323,1.25,114,70.0
1408,B-5,197.5,0.156,90,70.0
1409,G5,197.5,0.5,5,70.0
1410,D2,197.75,0.25,75,70.0
1411,E-5,198.0,3.0,127,70.0
1412,F5,198.0,3.0,127,70.0
1413,C5,198.0,3.0,127,70.0
1414,B-4,198.0,3.0,127,70.0
1415,D2,198.0,0.25,127,70.0
1416,B-5,198.0,0.156,90,70.0
1417,B-4,198.0,0.25,127,70.0
1418,D2,198.25,0.5,127,70.0
1419,B-5,198.25,0.156,90,70.0
1420,D5,198.25,0.25,127,70.0
1421,B-5,198.5,0.156,90,70.0
1422,F5,198.5,0.25,127,70.0
1423,E-2,198.75,1.5,127,70.0
1424,B1,198.75,0.25,84,70.0
1425,G5,198.75,1.5,127,70.0
1426,B-5,199.0,0.156,90,70.0
1427,B-5,199.25,0.156,90,70.0
1428,B-5,199.323,0.75,114,70.0
1429,D6,199.323,0.75,114,70.0
1430,F6,199.323,0.75,114,70.0
1431,B-5,199.5,0.156,90,70.0
1432,D2,199.75,0.25,75,70.0
1433,B-5,200.0,0.156,90,70.0
1434,E-2,200.25,0.5,127,70.0
1435,B-5,200.25,0.156,90,70.0
1436,A5,200.25,0.25,127,70.0
1437,B-5,200.5,0.156,90,70.0
1438,C6,200.5,0.5,127,70.0
1439,E-2,200.75,0.25,127,70.0
1440,B1,200.75,0.25,84,70.0
1441,E-5,201.0,3.0,127,70.0
1442,F5,201.0,3.0,127,70.0
1443,C5,201.0,3.0,127,70.0
1444,B-4,201.0,3.0,127,70.0
1445,E-2,201.0,1.25,127,70.0
1446,B-5,201.0,0.156,90,70.0
1447,C6,201.0,0.75,127,70.0
1448,B-5,201.25,0.156,90,70.0
1449,B-5,201.5,0.156,90,70.0
1450,D2,201.75,0.25,75,70.0
1451,B-5,201.75,0.5,127,70.0
1452,B-5,202.0,0.156,90,70.0
1453,E-5,202.073,0.25,114,70.0
1454,G5,202.073,0.25,114,70.0
1455,B-5,202.073,0.25,114,70.0
1456,E-2,202.25,0.5,127,70.0
1457,B-5,202.25,0.156,90,70.0
1458,G5,202.25,0.25,127,70.0
1459,E-5,202.323,1.75,114,70.0
1460,G5,202.323,1.75,114,70.0
1461,B-5,202.323,1.75,114,70.0
1462,B-5,202.5,0.156,90,70.0
1463,F5,202.5,1.5,127,70.0
1464,D2,202.75,1.25,127,70.0
1465,B1,202.75,0.25,84,70.0
1466,B-5,203.0,0.156,90,70.0
1467,B-5,203.25,0.156,90,70.0
1468,B-5,203.5,0.156,90,70.0
1469,D2,203.75,0.25,75,70.0
1470,E-5,204.0,3.0,127,70.0
1471,F5,204.0,3.0,127,70.0
1472,C5,204.0,3.0,127,70.0
1473,B-4,204.0,3.0,127,70.0
1474,D2,204.0,0.25,127,70.0
1475,B-5,204.0,0.156,90,70.0
1476,F5,204.0,0.25,127,70.0
1477,F5,204.073,1.25,114,70.0
1478,A5,204.073,1.25,114,70.0
1479,C6,204.073,1.25,114,70.0
1480,D2,204.25,0.5,127,70.0
1481,B-5,204.25,0.156,90,70.0
1482,D5,204.25,0.25,127,70.0
1483,B-5,204.5,0.156,90,70.0
1484,F5,204.5,1.5,127,70.0
1485,D2,204.75,1.5,127,70.0
1486,B1,204.75,0.25,84,70.0
1487,B-5,205.0,0.156,90,70.0
1488,B-5,205.25,0.156,90,70.0
1489,B-5,205.5,0.156,90,70.0
1490,D2,205.75,0.25,75,70.0
1491,B-5,206.0,0.156,90,70.0
1492,B-4,206.0,0.25,127,70.0
1493,F5,206.073,0.75,114,70.0
1494,A5,206.073,0.75,114,70.0
1495,C6,206.073,0.75,114,70.0
1496,D2,206.25,0.5,127,70.0
1497,B-5,206.25,0.156,90,70.0
1498,D5,206.25,0.25,127,70.0
1499,B-5,206.5,0.156,90,70.0
1500,E-5,206.5,0.25,127,70.0
1501,C#2,206.75,0.25,127,70.0
1502,B1,206.75,0.25,84,70.0
1503,F5,206.75,0.25,127,70.0
1504,B-4,206.823,2.0,114,70.0
1505,D5,206.823,2.0,114,70.0
1506,F5,206.823,2.0,114,70.0
1507,E-5,207.0,3.0,127,70.0
1508,F5,207.0,3.0,127,70.0
1509,C5,207.0,3.0,127,70.0
1510,B-4,207.0,3.0,127,70.0
1511,C#2,207.0,1.25,127,70.0
1512,B-5,207.0,0.156,90,70.0
1513,F5,207.0,1.0,127,70.0
1514,B-5,207.25,0.156,90,70.0
1515,B-5,207.5,0.156,90,70.0
1516,D2,207.75,0.25,75,70.0
1517,B-5,208.0,0.156,90,70.0
1518,F5,208.0,0.25,127,70.0
1519,C#2,208.25,0.5,127,70.0
1520,B-5,208.25,0.156,90,70.0
1521,G5,208.25,0.25,127,70.0
1522,B-5,208.5,0.156,90,70.0
1523,G#5,208.5,0.25,127,70.0
1524,C#2,208.75,1.25,127,70.0
1525,B1,208.75,0.25,84,70.0
1526,B-5,208.75,1.0,127,70.0
1527,B-5,209.0,0.156,90,70.0
1528,B-5,209.25,0.156,90,70.0
1529,B-5,209.5,0.156,90,70.0
1530,D2,209.75,0.25,75,70.0
1531,G#5,209.75,0.25,127,70.0
1532,E-5,210.0,3.0,127,70.0
1533,F5,210.0,3.0,127,70.0
1534,C5,210.0,3.0,127,70.0
1535,B-4,210.0,3.0,127,70.0
1536,C#2,210.0,0.25,127,70.0
1537,B-5,210.0,0.156,90,70.0
1538,G#5,210.0,1.75,127,70.0
1539,C#2,210.25,0.5,127,70.0
1540,B-5,210.25,0.156,90,70.0
1541,B-5,210.5,0.156,90,70.0
1542,C2,210.75,1.5,127,70.0
1543,B1,210.75,0.25,84,70.0
1544,E-4,210.823,1.25,114,70.0
1545,G4,210.823,1.25,114,70.0
1546,B-4,210.823,1.25,114,70.0
1547,B-5,211.0,0.156,90,70.0
1548,B-5,211.25,0.156,90,70.0
1549,B-5,211.5,0.156,90,70.0
1550,D2,211.75,0.25,75,70.0
1551,E-5,211.75,1.0,127,70.0
1552,B-5,212.0,0.156,90,70.0
1553,E-4,212.073,0.75,114,70.0
1554,G4,212.073,0.75,114,70.0
1555,B-4,212.073,0.75,114,70.0
1556,C2,212.25,0.5,127,70.0
1557,B-5,212.25,0.156,90,70.0
1558,B-5,212.5,0.156,90,70.0
1559,C2,212.75,0.25,127,70.0
1560,B1,212.75,0.25,84,70.0
1561,C#5,212.75,0.25,127,70.0
1562,F4,212.823,2.0,114,70.0
1563,A4,212.823,2.0,114,70.0
1564,C5,212.823,2.0,114,70.0
1565,E-5,213.0,3.0,127,70.0
1566,F5,213.0,3.0,127,70.0
1567,C5,213.0,3.0,127,70.0
1568,B-4,213.0,3.0,127,70.0
1569,C2,213.0,1.25,127,70.0
1570,B-5,213.0,0.156,90,70.0
1571,C#5,213.0,0.75,127,70.0
1572,B-5,213.25,0.156,90,70.0
1573,B-5,213.5,0.156,90,70.0
1574,D2,213.75,0.25,75,70.0
1575,E-5,213.75,0.5,127,70.0
1576,B-5,214.0,0.156,90,70.0
1577,G#2,214.25,0.5,127,70.0
1578,B-5,214.25,0.156,90,70.0
1579,C#5,214.25,0.25,127,70.0
1580,B-5,214.5,0.156,90,70.0
1581,E-5,214.5,0.25,127,70.0
1582,F2,214.75,1.25,127,70.0
1583,B1,214.75,0.25,84,70.0
1584,C5,214.75,1.25,127,70.0
1585,B-5,215.0,0.156,90,70.0
1586,B-5,215.25,0.156,90,70.0
1587,B-5,215.5,0.156,90,70.0
1588,D2,215.75,0.25,75,70.0
1589,E-5,216.0,3.0,127,70.0
1590,F5,216.0,3.0,127,70.0
1591,C5,216.0,3.0,127,70.0
1592,B-4,216.0,3.0,127,70.0
1593,F2,216.0,0.25,127,70.0
1594,B-5,216.0,0.156,90,70.0
1595,C5,216.0,3.0,127,70.0
1596,F2,216.25,0.5,127,70.0
1597,B-5,216.25,0.156,90,70.0
1598,B-5,216.5,0.156,90,70.0
1599,F2,216.75,1.5,127,70.0
1600,B1,216.75,0.25,84,70.0
1601,B-5,217.0,0.156,90,70.0
1602,B-5,217.25,0.156,90,70.0
1603,B-5,217.5,0.156,90,70.0
1604,D2,217.75,0.25,75,70.0
1605,B-5,218.0,0.156,90,70.0
1606,F2,218.25,0.5,127,70.0
1607,B-5,218.25,0.156,90,70.0
1608,B-5,218.5,0.156,90,70.0
1609,F2,218.75,0.25,127,70.0
1610,B1,218.75,0.25,84,70.0
1611,E-5,219.0,3.0,127,70.0
1612,F5,219.0,3.0,127,70.0
1613,C5,219.0,3.0,127,70.0
1614,B-4,219.0,3.0,127,70.0
1615,F2,219.0,1.25,127,70.0
1616,B-5,219.0,0.156,90,70.0
1617,C5,219.0,3.0,127,70.0
1618,B-5,219.25,0.156,90,70.0
1619,B-5,219.5,0.156,90,70.0
1620,D2,219.75,0.25,75,70.0
1621,B-5,220.0,0.156,90,70.0
1622,F2,220.25,0.5,127,70.0
1623,B-5,220.25,0.156,90,70.0
1624,B-5,220.5,0.156,90,70.0
1625,F2,220.75,1.25,127,70.0
1626,F2,220.75,0.25,40,70.0
1627,F4,220.823,0.25,114,70.0
1628,A4,220.823,0.25,114,70.0
1629,C5,220.823,0.25,114,70.0
1630,F2,221.0,0.25,40,70.0
1631,F4,221.073,1.75,114,70.0
1632,A4,221.073,1.75,114,70.0
1633,C5,221.073,1.75,114,70.0
1634,F2,221.25,0.25,40,70.0
1635,F2,221.5,0.25,40,70.0
1636,F2,221.75,0.25,40,70.0
1637,E-5,222.0,3.0,127,70.0
1638,F5,222.0,3.0,127,70.0
1639,C5,222.0,3.0,127,70.0
1640,B-4,222.0,0.75,127,70.0
1641,F2,222.0,0.25,127,70.0
1642,F2,222.0,1/200,40,70.0
1643,C5,222.0,0.75,127,70.0
1644,F2,222.25,0.5,127,70.0
1645,F2,222.5,1/200,40,70.0
1646,B-4,222.75,2.25,127,70.0
1647,B-2,222.75,1.5,127,70.0
1648,F2,222.75,1/200,40,70.0
1649,E-5,222.823,1.25,114,70.0
1650,G5,222.823,1.25,114,70.0
1651,B-5,222.823,1.25,114,70.0
1652,B-5,223.25,0.156,90,70.0
1653,B-5,223.75,0.156,90,70.0
1654,F4,224.25,0.75,127,70.0
1655,B-2,224.25,0.5,127,70.0
1656,B1,224.25,323/1000,84,70.0
1657,B-2,224.75,0.25,127,70.0
1658,B1,224.75,0.25,84,70.0
1659,E-5,225.0,3.0,127,70.0
1660,F5,225.0,3.0,127,70.0
1661,C5,225.0,1.75,127,70.0
1662,B-4,225.0,3.0,127,70.0
1663,F4,225.0,1.25,127,70.0
1664,B-2,225.0,1.75,127,70.0
1665,B1,225.0,73/1000,84,70.0
1666,B-5,225.25,0.156,90,70.0
1667,B-4,225.75,99/250,64,70.0
1668,F4,226.25,1.75,127,70.0
1669,B1,226.25,323/1000,84,70.0
1670,C5,226.75,1.25,127,70.0
1671,B-2,226.75,1.25,127,70.0
1672,B1,226.75,323/1000,84,70.0
1673,E-5,226.823,2.75,114,70.0
1674,G5,226.823,2.75,114,70.0
1675,B-5,226.823,2.75,114,70.0
1676,B-5,227.25,0.156,90,70.0
1677,B-5,227.75,0.156,90,70.0
1678,E-5,228.0,3.0,127,70.0
1679,F5,228.0,3.0,127,70.0
1680,B-4,228.0,3.0,127,70.0
1681,F4,228.0,0.25,127,70.0
1682,C5,228.0,3.0,127,70.0
1683,B-2,228.0,0.25,127,70.0
1684,F4,228.25,2.75,127,70.0
1685,B-2,228.25,0.5,127,70.0
1686,B1,228.25,323/1000,84,70.0
1687,B-2,228.75,2.0,127,70.0
1688,B1,228.75,323/1000,84,70.0
1689,C5,228.75,1.25,115,70.0
1690,E-5,228.75,1.25,115,70.0
1691,G5,228.75,1.25,115,70.0
1692,B-5,229.25,0.156,90,70.0
1693,B-4,229.573,0.25,114,70.0
1694,D5,229.573,0.25,114,70.0
1695,F5,229.573,0.25,114,70.0
1696,B-4,229.75,99/250,64,70.0
1697,C5,230.0,2.75,115,70.0
1698,E-5,230.0,2.75,115,70.0
1699,G5,230.0,2.75,115,70.0
1700,B1,230.25,323/1000,84,70.0
1701,A4,230.75,0.25,127,70.0
1702,F2,230.75,0.25,127,70.0
1703,B1,230.75,0.25,84,70.0
1704,E-5,231.0,3.0,127,70.0
1705,F5,231.0,3.0,127,70.0
1706,B-4,231.0,0.75,127,70.0
1707,C5,231.0,1.25,127,70.0
1708,F4,231.0,3.0,127,70.0
1709,A4,231.0,2.75,127,70.0
1710,F2,231.0,1.25,127,70.0
1711,B1,231.0,73/1000,84,70.0
1712,B-5,231.25,0.156,90,70.0
1713,B-4,231.75,2.25,127,70.0
1714,B-5,231.75,0.156,90,70.0
1715,C5,232.25,1.75,127,70.0
1716,F2,232.25,0.5,127,70.0
1717,B1,232.25,323/1000,84,70.0
1718,F2,232.75,1.25,127,70.0
1719,B1,232.75,323/1000,84,70.0
1720,B-5,233.25,0.156,90,70.0
1721,B-4,233.573,3.0,114,70.0
1722,D5,233.573,3.0,114,70.0
1723,F5,233.573,3.0,114,70.0
1724,A4,233.75,0.25,127,70.0
1725,B-4,233.75,0.25,64,70.0
1726,E-5,234.0,3.0,127,70.0
1727,F5,234.0,3.0,127,70.0
1728,F4,234.0,0.75,127,70.0
1729,B-4,234.0,3.0,127,70.0
1730,C5,234.0,3.0,127,70.0
1731,A4,234.0,3.0,127,70.0
1732,F2,234.0,0.75,127,70.0
1733,B-4,234.0,73/500,64,70.0
1734,B1,234.25,323/1000,84,70.0
1735,F4,234.75,2.25,127,70.0
1736,B-2,234.75,1.5,127,70.0
1737,B1,234.75,323/1000,84,70.0
1738,B-5,235.25,0.156,90,70.0
1739,B-5,235.75,0.156,90,70.0
1740,B-2,236.25,0.5,127,70.0
1741,B1,236.25,323/1000,84,70.0
1742,B-2,236.75,0.25,127,70.0
1743,B1,236.75,0.25,84,70.0
1744,E-5,237.0,3.0,127,70.0
1745,F5,237.0,3.0,127,70.0
1746,B-4,237.0,3.0,127,70.0
1747,C5,237.0,3.0,127,70.0
1748,A4,237.0,3.0,127,70.0
1749,F4,237.0,3.0,127,70.0
1750,B-2,237.0,1/200,127,70.0
1751,B1,237.0,73/1000,84,70.0
1752,B-5,237.25,0.156,90,70.0
1753,B-4,237.323,0.75,114,70.0
1754,D5,237.323,0.75,114,70.0
1755,F5,237.323,0.75,114,70.0
1756,A2,237.75,1.0,127,70.0
1757,B-4,237.75,99/250,64,70.0
1758,E-5,238.073,2.25,114,70.0
1759,G5,238.073,2.25,114,70.0
1760,B-5,238.073,2.25,114,70.0
1761,B1,238.25,323/1000,84,70.0
1762,G4,238.75,1.25,127,70.0
1763,G2,238.75,1.25,127,70.0
1764,B1,238.75,323/1000,84,70.0
1765,B-5,239.25,0.156,90,70.0
1766,B-5,239.75,0.156,90,70.0
1767,E-5,240.0,3.0,127,70.0
1768,F5,240.0,3.0,127,70.0
1769,B-4,240.0,3.0,127,70.0
1770,C5,240.0,3.0,127,70.0
1771,A4,240.0,2.75,127,70.0
1772,F4,240.0,3.0,127,70.0
1773,G4,240.0,2.25,127,70.0
1774,G2,240.0,0.25,127,70.0
1775,D4,240.25,2.0,127,70.0
1776,G2,240.25,0.5,127,70.0
1777,B1,240.25,323/1000,84,70.0
1778,G2,240.75,2.0,127,70.0
1779,B1,240.75,323/1000,84,70.0
1780,G4,240.75,1.25,115,70.0
1781,B-4,240.75,1.25,115,70.0
1782,D5,240.75,1.25,115,70.0
1783,B-5,241.25,0.156,90,70.0
1784,B-4,241.75,99/250,64,70.0
1785,G4,242.0,2.75,115,70.0
1786,B-4,242.0,2.75,115,70.0
1787,D5,242.0,2.75,115,70.0
1788,E-5,242.073,1.75,114,70.0
1789,G5,242.073,1.75,114,70.0
1790,B-5,242.073,1.75,114,70.0
1791,G4,242.25,0.75,127,70.0
1792,B1,242.25,323/1000,84,70.0
1793,A4,242.75,0.25,127,70.0
1794,D2,242.75,0.25,127,70.0
1795,B1,242.75,0.25,84,70.0
1796,E-5,243.0,3.0,127,70.0
1797,F5,243.0,3.0,127,70.0
1798,B-4,243.0,3.0,127,70.0
1799,C5,243.0,3.0,127,70.0
1800,F4,243.0,3.0,127,70.0
1801,G4,243.0,3.0,127,70.0
1802,A4,243.0,3.0,127,70.0
1803,D2,243.0,1.25,127,70.0
1804,B1,243.0,73/1000,84,70.0
1805,B-5,243.25,0.156,90,70.0
1806,B-5,243.75,0.156,90,70.0
1807,B-4,243.823,1.25,114,70.0
1808,D5,243.823,1.25,114,70.0
1809,F5,243.823,1.25,114,70.0
1810,D4,244.25,0.5,127,70.0
1811,D2,244.25,0.5,127,70.0
1812,B1,244.25,323/1000,84,70.0
1813,D4,244.75,1.25,127,70.0
1814,D2,244.75,1.25,127,70.0
1815,B1,244.75,323/1000,84,70.0
1816,B-5,245.25,0.156,90,70.0
1817,B-4,245.75,0.25,64,70.0
1818,E-5,246.0,3.0,127,70.0
1819,F5,246.0,3.0,127,70.0
1820,B-4,246.0,0.75,127,70.0
1821,C5,246.0,3.0,127,70.0
1822,F4,246.0,2.25,127,70.0
1823,G4,246.0,1.75,127,70.0
1824,A4,246.0,1.25,127,70.0
1825,D4,246.0,3.0,127,70.0
1826,D2,246.0,0.75,127,70.0
1827,B-4,246.0,73/500,64,70.0
1828,B1,246.25,323/1000,84,70.0
1829,B-4,246.75,2.25,127,70.0
1830,E-2,246.75,2.25,127,70.0
1831,B1,246.75,323/1000,84,70.0
1832,A4,247.25,1.75,127,70.0
1833,B-5,247.25,0.156,90,70.0
1834,G4,247.75,1.25,127,70.0
1835,B-5,247.75,0.156,90,70.0
1836,B-4,247.823,2.75,114,70.0
1837,D5,247.823,2.75,114,70.0
1838,F5,247.823,2.75,114,70.0
1839,F4,248.25,0.75,127,70.0
1840,B1,248.25,323/1000,84,70.0
1841,B1,248.75,0.25,84,70.0
1842,E-5,249.0,3.0,127,70.0
1843,F5,249.0,3.0,127,70.0
1844,C5,249.0,3.0,127,70.0
1845,D4,249.0,1.25,127,70.0
1846,B-4,249.0,3.0,127,70.0
1847,A4,249.0,3.0,127,70.0
1848,G4,249.0,3.0,127,70.0
1849,F4,249.0,1.75,127,70.0
1850,E-2,249.0,1.75,127,70.0
1851,B1,249.0,73/1000,84,70.0
1852,B-5,249.25,0.156,90,70.0
1853,B-4,249.75,99/250,64,70.0
1854,D4,250.25,1.75,127,70.0
1855,B1,250.25,323/1000,84,70.0
1856,E-4,250.5,0.25,127,70.0
1857,C#5,250.573,0.25,114,70.0
1858,F5,250.573,0.25,114,70.0
1859,G#5,250.573,0.25,114,70.0
1860,F4,250.75,1.25,127,70.0
1861,F2,250.75,1.25,127,70.0
1862,B1,250.75,323/1000,84,70.0
1863,B-5,251.25,0.156,90,70.0
1864,E-4,251.75,0.25,127,70.0
1865,B-5,251.75,0.156,90,70.0
1866,E-5,252.0,3.0,127,70.0
1867,F5,252.0,3.0,127,70.0
1868,C5,252.0,3.0,127,70.0
1869,B-4,252.0,3.0,127,70.0
1870,A4,252.0,3.0,127,70.0
1871,G4,252.0,3.0,127,70.0
1872,D4,252.0,0.25,127,70.0
1873,F4,252.0,3.0,127,70.0
1874,E-4,252.0,3.0,127,70.0
1875,F2,252.0,0.25,127,70.0
1876,D4,252.25,2.75,127,70.0
1877,F2,252.25,0.5,127,70.0
1878,B1,252.25,323/1000,84,70.0
1879,C4,252.5,2.25,127,70.0
1880,F2,252.75,0.5,127,70.0
1881,B1,252.75,323/1000,84,70.0
1882,B1,253.25,229/1000,84,70.0
1883,F2,253.25,0.5,40,70.0
1884,B1,253.75,0.25,84,70.0
1885,F2,253.75,0.25,40,70.0
1886,B1,254.0,0.25,84,70.0
1887,F2,254.0,0.25,40,70.0
1888,B1,254.25,73/200,84,70.0
1889,F2,254.25,0.5,40,70.0
1890,C#5,254.573,3.0,114,70.0
1891,F5,254.573,3.0,114,70.0
1892,G#5,254.573,3.0,114,70.0
1893,A3,254.75,0.25,127,70.0
1894,A3,254.75,1/200,86,70.0
1895,B3,255.0,0.25,127,70.0
1896,E-5,255.0,3.0,127,70.0
1897,F5,255.0,3.0,127,70.0
1898,C5,255.0,2.0,127,70.0
1899,B-4,255.0,3.0,127,70.0
1900,A4,255.0,1.5,127,70.0
1901,G4,255.0,1.25,127,70.0
1902,F4,255.0,1.0,127,70.0
1903,E-4,255.0,3.0,127,70.0
1904,D4,255.0,0.5,127,70.0
1905,C4,255.25,0.25,127,70.0
1906,C4,255.25,1/200,115,70.0
1907,D4,255.5,2.5,127,70.0
1908,D4,255.5,1/200,115,70.0
1909,E4,255.75,0.25,127,70.0
1910,E4,255.75,1/200,115,70.0
1911,F4,256.0,2.0,127,70.0
1912,F4,256.0,1/200,115,70.0
1913,G4,256.25,1.75,127,70.0
1914,G4,256.25,1/200,115,70.0
1915,A4,256.5,1.5,127,70.0
1916,A4,256.5,1/200,115,70.0
1917,B4,256.75,0.25,127,70.0
1918,B4,256.75,1/200,115,70.0
1919,C5,257.0,1.0,127,70.0
1920,C5,257.0,1/200,115,70.0
1921,D5,257.25,0.25,127,70.0
1922,D5,257.25,1/200,115,70.0
1923,E5,257.5,0.5,127,70.0
1924,E5,257.5,1/200,115,70.0
1925,E-5,258.0,3.0,127,70.0
1926,F5,258.0,1/200,127,70.0
1927,B-4,258.0,3.0,127,70.0
1928,E-4,258.0,3.0,127,70.0
1929,D4,258.0,3.0,127,70.0
1930,F4,258.0,3.0,127,70.0
1931,G4,258.0,3.0,127,70.0
1932,A4,258.0,3.0,127,70.0
1933,C5,258.0,3.0,127,70.0
1934,B-2,258.0,1.5,127,70.0
1935,B1,258.0,0.25,84,70.0
1936,B-5,258.25,0.156,90,70.0
1937,C#5,258.323,0.75,114,70.0
1938,F5,258.323,0.75,114,70.0
1939,G#5,258.323,0.75,114,70.0
1940,B-5,258.5,0.156,90,70.0
1941,B-5,258.75,0.156,90,70.0
1942,D2,259.0,0.25,75,70.0
1943,G#4,259.073,2.25,114,70.0
1944,C5,259.073,2.25,114,70.0
1945,E-5,259.073,2.25,114,70.0
1946,B-5,259.25,0.156,90,70.0
1947,F5,259.5,1.5,127,70.0
1948,B-2,259.5,0.5,127,70.0
1949,B-5,259.5,0.156,90,70.0
1950,B-5,259.75,0.156,90,70.0
1951,D2,260.0,1.0,127,70.0
1952,B1,260.0,0.25,84,70.0
1953,B-5,260.25,0.156,90,70.0
1954,B-5,260.5,0.156,90,70.0
1955,B-5,260.75,0.156,90,70.0
1956,E-5,261.0,0.75,127,70.0
1957,B-4,261.0,3.0,127,70.0
1958,E-4,261.0,3.0,127,70.0
1959,D4,261.0,3.0,127,70.0
1960,F4,261.0,3.0,127,70.0
1961,G4,261.0,3.0,127,70.0
1962,A4,261.0,3.0,127,70.0
1963,C5,261.0,2.5,127,70.0
1964,F5,261.0,1.0,127,70.0
1965,D2,261.0,0.5,127,70.0
1966,D2,261.0,0.25,75,70.0
1967,B-5,261.25,0.156,90,70.0
1968,D5,261.5,0.25,127,70.0
1969,D2,261.5,0.5,127,70.0
1970,B-5,261.5,0.156,90,70.0
1971,E-5,261.75,1.25,127,70.0
1972,B-5,261.75,0.156,90,70.0
1973,F5,262.0,2.0,127,70.0
1974,E-2,262.0,1.5,127,70.0
1975,B1,262.0,0.25,84,70.0
1976,D5,262.0,1.0,115,70.0
1977,F5,262.0,1.0,115,70.0
1978,A5,262.0,1.0,115,70.0
1979,B-5,262.25,0.156,90,70.0
1980,B-5,262.5,0.156,90,70.0
1981,B-5,262.75,0.156,90,70.0
1982,E-5,263.0,1.0,127,70.0
1983,D2,263.0,0.25,75,70.0
1984,D5,263.0,1.0,115,70.0
1985,F5,263.0,1.0,115,70.0
1986,A5,263.0,1.0,115,70.0
1987,G#4,263.073,1.75,114,70.0
1988,C5,263.073,1.75,114,70.0
1989,E-5,263.073,1.75,114,70.0
1990,D5,263.25,0.25,127,70.0
1991,B-5,263.25,0.156,90,70.0
1992,C5,263.5,0.5,127,70.0
1993,E-2,263.5,0.5,127,70.0
1994,B-5,263.5,0.156,90,70.0
1995,B-5,263.75,0.156,90,70.0
1996,B-4,264.0,1.0,127,70.0
1997,E-4,264.0,3.0,127,70.0
1998,D4,264.0,3.0,127,70.0
1999,F4,264.0,3.0,127,70.0
2000,G4,264.0,3.0,127,70.0
2001,A4,264.0,3.0,127,70.0
2002,F5,264.0,3.0,127,70.0
2003,E-5,264.0,3.0,127,70.0
2004,C5,264.0,1.5,127,70.0
2005,F2,264.0,1.5,127,70.0
2006,B1,264.0,0.25,84,70.0
2007,B-5,264.25,0.156,90,70.0
2008,B-5,264.5,0.156,90,70.0
2009,B-5,264.75,0.156,90,70.0
2010,F4,264.823,1.25,114,70.0
2011,A4,264.823,1.25,114,70.0
2012,C5,264.823,1.25,114,70.0
2013,B-4,265.0,2.0,127,70.0
2014,D2,265.0,0.25,75,70.0
2015,B-5,265.25,0.156,90,70.0
2016,C5,265.5,1.5,127,70.0
2017,F2,265.5,0.5,127,70.0
2018,B-5,265.5,0.156,90,70.0
2019,B-5,265.75,0.156,90,70.0
2020,D5,266.0,1.0,127,70.0
2021,B-2,266.0,1.0,127,70.0
2022,B1,266.0,0.25,84,70.0
2023,B-5,266.25,0.156,90,70.0
2024,B-5,266.5,0.156,90,70.0
2025,B-5,266.75,0.156,90,70.0
2026,E-4,267.0,3.0,127,70.0
2027,D4,267.0,3.0,127,70.0
2028,F4,267.0,3.0,127,70.0
2029,G4,267.0,3.0,127,70.0
2030,A4,267.0,3.0,127,70.0
2031,F5,267.0,3.0,127,70.0
2032,E-5,267.0,3.0,127,70.0
2033,B-4,267.0,0.5,127,70.0
2034,C5,267.0,0.75,127,70.0
2035,D5,267.0,1.0,127,70.0
2036,B-2,267.0,0.5,127,70.0
2037,D2,267.0,0.25,75,70.0
2038,B-5,267.25,0.156,90,70.0
2039,B-4,267.5,2.5,127,70.0
2040,B-2,267.5,0.5,127,70.0
2041,B-5,267.5,0.156,90,70.0
2042,C5,267.75,1.75,127,70.0
2043,B-5,267.75,0.156,90,70.0
2044,D5,268.0,1.75,127,70.0
2045,A2,268.0,1.5,127,70.0
2046,B1,268.0,0.25,84,70.0
2047,B-5,268.25,0.156,90,70.0
2048,B-5,268.5,0.156,90,70.0
2049,B-5,268.75,0.156,90,70.0
2050,F4,268.823,2.75,114,70.0
2051,A4,268.823,2.75,114,70.0
2052,C5,268.823,2.75,114,70.0
2053,D2,269.0,0.25,75,70.0
2054,B-5,269.25,0.156,90,70.0
2055,C5,269.5,0.5,127,70.0
2056,A2,269.5,0.5,127,70.0
2057,B-5,269.5,0.156,90,70.0
2058,D5,269.75,0.25,127,70.0
2059,B-5,269.75,0.156,90,70.0
2060,E-4,270.0,3.0,127,70.0
2061,D4,270.0,3.0,127,70.0
2062,F4,270.0,3.0,127,70.0
2063,G4,270.0,3.0,127,70.0
2064,A4,270.0,3.0,127,70.0
2065,F5,270.0,3.0,127,70.0
2066,E-5,270.0,1/200,127,70.0
2067,B-4,270.0,2.0,127,70.0
2068,C5,270.0,1.75,127,70.0
2069,D5,270.0,1/200,127,70.0
2070,G2,270.0,1.5,127,70.0
2071,B1,270.0,0.25,84,70.0
2072,D5,270.0,2.0,115,70.0
2073,F5,270.0,2.0,115,70.0
2074,A5,270.0,2.0,115,70.0
2075,B-5,270.25,0.156,90,70.0
2076,B-5,270.5,0.156,90,70.0
2077,B-5,270.75,0.156,90,70.0
2078,D2,271.0,0.25,75,70.0
2079,B-5,271.25,0.156,90,70.0
2080,D5,271.5,0.25,127,70.0
2081,G2,271.5,0.5,127,70.0
2082,B-5,271.5,0.156,90,70.0
2083,F4,271.573,0.25,114,70.0
2084,A4,271.573,0.25,114,70.0
2085,C5,271.573,0.25,114,70.0
2086,C5,271.75,0.75,127,70.0
2087,B-5,271.75,0.156,90,70.0
2088,B-4,272.0,1.0,127,70.0
2089,F2,272.0,1.0,127,70.0
2090,B1,272.0,0.25,84,70.0
2091,B-5,272.25,0.156,90,70.0
2092,C5,272.5,0.5,127,70.0
2093,B-5,272.5,0.156,90,70.0
2094,B-5,272.75,0.156,90,70.0
2095,G5,273.0,0.5,127,70.0
2096,E-4,273.0,3.0,127,70.0
2097,D4,273.0,3.0,127,70.0
2098,F4,273.0,3.0,127,70.0
2099,G4,273.0,3.0,127,70.0
2100,A4,273.0,3.0,127,70.0
2101,F5,273.0,0.5,127,70.0
2102,B-4,273.0,3.0,127,70.0
2103,C5,273.0,3.0,127,70.0
2104,F2,273.0,0.5,127,70.0
2105,D2,273.0,0.25,75,70.0
2106,B-5,273.25,0.156,90,70.0
2107,F5,273.5,0.5,127,70.0
2108,F2,273.5,0.5,127,70.0
2109,B-5,273.5,0.156,90,70.0
2110,D5,273.75,0.25,127,70.0
2111,B-5,273.75,0.156,90,70.0
2112,F5,274.0,2.0,127,70.0
2113,B-2,274.0,1.5,127,70.0
2114,B1,274.0,0.25,84,70.0
2115,B-5,274.25,0.156,90,70.0
2116,B-5,274.5,0.156,90,70.0
2117,B-5,274.75,0.156,90,70.0
2118,D2,275.0,0.25,75,70.0
2119,B-5,275.25,0.156,90,70.0
2120,G5,275.5,0.25,127,70.0
2121,B-2,275.5,0.5,127,70.0
2122,B-5,275.5,0.156,90,70.0
2123,F4,275.573,3.0,114,70.0
2124,A4,275.573,3.0,114,70.0
2125,C5,275.573,3.0,114,70.0
2126,D5,275.75,0.25,127,70.0
2127,B-5,275.75,0.156,90,70.0
2128,E-4,276.0,3.0,127,70.0
2129,D4,276.0,3.0,127,70.0
2130,F4,276.0,3.0,127,70.0
2131,G4,276.0,3.0,127,70.0
2132,A4,276.0,3.0,127,70.0
2133,B-4,276.0,3.0,127,70.0
2134,C5,276.0,3.0,127,70.0
2135,F5,276.0,1/200,127,70.0
2136,D2,276.0,1.5,127,70.0
2137,B1,276.0,0.25,84,70.0
2138,B-5,276.25,0.156,90,70.0
2139,B-5,276.5,0.156,90,70.0
2140,B-5,276.75,0.156,90,70.0
2141,D2,277.0,0.25,75,70.0
2142,B-5,277.25,0.156,90,70.0
2143,D5,277.5,0.25,127,70.0
2144,D2,277.5,0.5,127,70.0
2145,B-5,277.5,0.156,90,70.0
2146,E-5,277.75,1.25,127,70.0
2147,B-5,277.75,0.156,90,70.0
2148,F5,278.0,1.0,127,70.0
2149,E-2,278.0,1.0,127,70.0
2150,B1,278.0,0.25,84,70.0
2151,D4,278.0,2.0,115,70.0
2152,F4,278.0,2.0,115,70.0
2153,A4,278.0,2.0,115,70.0
2154,B-5,278.25,0.156,90,70.0
2155,B-5,278.5,0.156,90,70.0
2156,B-5,278.75,0.156,90,70.0
2157,E-4,279.0,3.0,127,70.0
2158,D4,279.0,3.0,127,70.0
2159,F4,279.0,3.0,127,70.0
2160,G4,279.0,3.0,127,70.0
2161,A4,279.0,3.0,127,70.0
2162,B-4,279.0,2.0,127,70.0
2163,C5,279.0,0.5,127,70.0
2164,E-5,279.0,1/200,127,70.0
2165,F5,279.0,3.0,127,70.0
2166,E-2,279.0,0.5,127,70.0
2167,D2,279.0,0.25,75,70.0
2168,D5,279.25,0.25,127,70.0
2169,B-5,279.25,0.156,90,70.0
2170,F4,279.323,0.75,114,70.0
2171,A4,279.323,0.75,114,70.0
2172,C5,279.323,0.75,114,70.0
2173,C5,279.5,2.0,127,70.0
2174,E-2,279.5,0.5,127,70.0
2175,B-5,279.5,0.156,90,70.0
2176,B-5,279.75,0.156,90,70.0
2177,F2,280.0,1.5,127,70.0
2178,B1,280.0,0.25,84,70.0
2179,B-4,280.073,2.25,114,70.0
2180,D5,280.073,2.25,114,70.0
2181,F5,280.073,2.25,114,70.0
2182,B-5,280.25,0.156,90,70.0
2183,B-5,280.5,0.156,90,70.0
2184,B-5,280.75,0.156,90,70.0
2185,B-4,281.0,0.75,127,70.0
2186,D2,281.0,0.25,75,70.0
2187,B-5,281.25,0.156,90,70.0
2188,C5,281.5,0.5,127,70.0
2189,F2,281.5,0.5,127,70.0
2190,B-5,281.5,0.156,90,70.0
2191,B-4,281.75,0.25,127,70.0
2192,B-5,281.75,0.156,90,70.0
2193,D5,282.0,1.5,127,70.0
2194,E-4,282.0,3.0,127,70.0
2195,D4,282.0,3.0,127,70.0
2196,F4,282.0,3.0,127,70.0
2197,G4,282.0,3.0,127,70.0
2198,A4,282.0,3.0,127,70.0
2199,F5,282.0,2.0,127,70.0
2200,C5,282.0,3.0,127,70.0
2201,B-4,282.0,3.0,127,70.0
2202,G2,282.0,1.5,127,70.0
2203,B1,282.0,0.25,84,70.0
2204,B-5,282.25,0.156,90,70.0
2205,B-5,282.5,0.156,90,70.0
2206,B-5,282.75,0.156,90,70.0
2207,D2,283.0,0.25,75,70.0
2208,B-5,283.25,0.156,90,70.0
2209,G5,283.5,0.5,127,70.0
2210,G2,283.5,0.5,127,70.0
2211,B-5,283.5,0.156,90,70.0
2212,B-5,283.75,0.156,90,70.0
2213,F5,284.0,1.0,127,70.0
2214,D2,284.0,1.0,127,70.0
2215,B1,284.0,0.25,84,70.0
2216,G4,284.0,2.0,115,70.0
2217,B-4,284.0,2.0,115,70.0
2218,D5,284.0,2.0,115,70.0
2219,B-4,284.073,1.75,114,70.0
2220,D5,284.073,1.75,114,70.0
2221,F5,284.073,1.75,114,70.0
2222,B-5,284.25,0.156,95,70.0
2223,B-5,284.5,0.156,95,70.0
2224,B-5,284.75,0.156,95,70.0
2225,E-4,285.0,3.0,127,70.0
2226,D4,285.0,3.0,127,70.0
2227,F4,285.0,3.0,127,70.0
2228,G4,285.0,3.0,127,70.0
2229,A4,285.0,3.0,127,70.0
2230,C5,285.0,0.75,127,70.0
2231,B-4,285.0,1.0,127,70.0
2232,F5,285.0,3.0,127,70.0
2233,D2,285.0,0.5,127,70.0
2234,D2,285.0,0.25,96,70.0
2235,B-5,285.25,0.156,95,70.0
2236,D5,285.5,0.25,127,70.0
2237,D2,285.5,0.5,127,70.0
2238,B-5,285.5,0.156,95,70.0
2239,C5,285.75,1.75,127,70.0
2240,B-5,285.75,0.156,95,70.0
2241,B-4,286.0,2.0,127,70.0
2242,C2,286.0,1.5,127,70.0
2243,B1,286.0,0.25,84,70.0
2244,D4,286.0,1.0,115,70.0
2245,F4,286.0,1.0,115,70.0
2246,A4,286.0,1.0,115,70.0
2247,B-5,286.25,0.156,90,70.0
2248,B-5,286.5,0.156,90,70.0
2249,B-5,286.75,0.156,90,70.0
2250,D2,287.0,0.25,60,70.0
2251,B-5,287.25,0.156,81,70.0
2252,C5,287.5,0.5,127,70.0
2253,C2,287.5,0.5,127,70.0
2254,B-5,287.5,0.156,81,70.0
2255,D5,287.75,0.25,127,70.0
2256,B-5,287.75,0.156,81,70.0
2257,E-4,288.0,3.0,127,70.0
2258,D4,288.0,3.0,127,70.0
2259,F4,288.0,3.0,127,70.0
2260,G4,288.0,3.0,127,70.0
2261,A4,288.0,1.5,127,70.0
2262,F5,288.0,3.0,127,70.0
2263,B-4,288.0,0.5,127,70.0
2264,C5,288.0,1/200,127,70.0
2265,F2,288.0,1.5,127,70.0
2266,B1,288.0,0.25,84,70.0
2267,D4,288.0,1.0,115,70.0
2268,F4,288.0,1.0,115,70.0
2269,A4,288.0,1.0,115,70.0
2270,B-5,288.25,73/500,72,70.0
2271,B-4,288.5,1.5,127,70.0
2272,B-5,288.5,73/500,72,70.0
2273,B-5,288.75,73/500,72,70.0
2274,D2,289.0,0.25,24,70.0
2275,C4,289.0,2.0,115,70.0
2276,E-4,289.0,2.0,115,70.0
2277,G4,289.0,2.0,115,70.0
2278,B-5,289.25,73/500,36,70.0
2279,A4,289.5,1.5,127,70.0
2280,F2,289.5,0.5,127,70.0
2281,B-5,289.5,73/500,36,70.0
2282,B-5,289.75,73/500,36,70.0
2283,F4,289.823,0.25,114,70.0
2284,A4,289.823,0.25,114,70.0
2285,C5,289.823,0.25,114,70.0
2286,B-4,290.0,1.0,127,70.0
2287,B-4,290.0,1.0,106,70.0
2288,B-5,290.0,1.0,106,70.0
2289,F4,290.073,3.0,114,70.0
2290,A4,290.073,3.0,114,70.0
2291,C5,290.073,3.0,114,70.0
2292,E-4,291.0,3.0,127,70.0
2293,D4,291.0,3.0,127,70.0
2294,F4,291.0,3.0,127,70.0
2295,G4,291.0,3.0,127,70.0
2296,F5,291.0,3.0,127,70.0
2297,A4,291.0,3.0,127,70.0
2298,B-4,291.0,3.0,127,70.0
2299,B-4,291.0,0.5,106,70.0
2300,B-5,291.0,0.5,106,70.0
2301,F4,291.5,2.0,106,70.0
2302,F5,291.5,2.0,106,70.0
2303,F4,293.5,0.5,106,70.0
2304,F5,293.5,0.5,106,70.0
2305,F4,293.823,0.75,114,70.0
2306,A4,293.823,0.75,114,70.0
2307,C5,293.823,0.75,114,70.0
2308,E-4,294.0,3.0,127,70.0
2309,D4,294.0,3.0,127,70.0
2310,F4,294.0,3.0,127,70.0
2311,G4,294.0,3.0,127,70.0
2312,F5,294.0,3.0,127,70.0
2313,A4,294.0,3.0,127,70.0
2314,B-4,294.0,3.0,127,70.0
2315,C5,294.0,1.5,106,70.0
2316,C6,294.0,1.5,106,70.0
2317,B-4,294.573,2.25,114,70.0
2318,D5,294.573,2.25,114,70.0
2319,F5,294.573,2.25,114,70.0
2320,F4,295.5,1.5,106,70.0
2321,F5,295.5,1.5,106,70.0
2322,E-4,297.0,3.0,127,70.0
2323,D4,297.0,3.0,127,70.0
2324,F4,297.0,3.0,127,70.0
2325,G4,297.0,3.0,127,70.0
2326,F5,297.0,3.0,127,70.0
2327,A4,297.0,3.0,127,70.0
2328,B-4,297.0,3.0,127,70.0
2329,C5,297.0,3.0,115,70.0
2330,E-5,297.0,3.0,115,70.0
2331,G5,297.0,3.0,115,70.0
2332,F4,298.0,1.0,106,70.0
2333,F5,298.0,1.0,106,70.0
2334,B-4,298.573,1.75,114,70.0
2335,D5,298.573,1.75,114,70.0
2336,F5,298.573,1.75,114,70.0
2337,B-4,299.0,2.0,127,70.0
2338,B-5,299.0,2.0,86,70.0
2339,E-4,300.0,3.0,127,70.0
2340,D4,300.0,3.0,127,70.0
2341,F4,300.0,3.0,127,70.0
2342,G4,300.0,3.0,127,70.0
2343,F5,300.0,3.0,127,70.0
2344,A4,300.0,3.0,127,70.0
2345,B-4,300.0,3.0,127,70.0
2346,B-4,301.0,3.0,127,70.0
2347,B-5,301.0,1823/1000,86,70.0
2348,C5,301.0,1.0,115,70.0
2349,E-5,301.0,1.0,115,70.0
2350,G5,301.0,1.0,115,70.0
2351,E-4,303.0,3.0,127,70.0
2352,D4,303.0,3.0,127,70.0
2353,F4,303.0,3.0,127,70.0
2354,G4,303.0,3.0,127,70.0
2355,F5,303.0,3.0,127,70.0
2356,A4,303.0,3.0,127,70.0
2357,B-4,303.0,3.0,127,70.0
2358,B-4,304.0,2.656,127,70.0
2359,D4,304.323,0.25,114,70.0
2360,F#4,304.323,0.25,114,70.0
2361,A4,304.323,0.25,114,70.0
2362,D4,304.573,3.0,114,70.0
2363,F#4,304.573,3.0,114,70.0
2364,A4,304.573,3.0,114,70.0
2365,D4,308.323,0.75,114,70.0
2366,F#4,308.323,0.75,114,70.0
2367,A4,308.323,0.75,114,70.0
2368,E-4,309.073,2.0,114,70.0
2369,G4,309.073,2.0,114,70.0
2370,B-4,309.073,2.0,114,70.0
2371,F4,313.073,1.25,114,70.0
2372,A4,313.073,1.25,114,70.0
2373,C5,313.073,1.25,114,70.0
2374,F4,314.323,2.75,114,70.0
2375,A4,314.323,2.75,114,70.0
2376,C5,314.323,2.75,114,70.0
2377,B-4,320.323,2.0,114,70.0
2378,D5,320.323,2.0,114,70.0
2379,F5,320.323,2.0,114,70.0
2380,E-4,324.323,2.0,114,70.0
2381,G4,324.323,2.0,114,70.0
2382,B-4,324.323,2.0,114,70.0
2383,F5,326.323,2.0,114,70.0
2384,A5,326.323,2.0,114,70.0
2385,C6,326.323,2.0,114,70.0
2386,B-5,328.323,1.0,114,70.0
2387,D6,328.323,1.0,114,70.0
2388,F6,328.323,1.0,114,70.0
2389,B-5,330.323,1.0,114,70.0
2390,D6,330.323,1.0,114,70.0
2391,F6,330.323,1.0,114,70.0
2392,E-5,333.323,2.0,114,70.0
2393,G5,333.323,2.0,114,70.0
2394,B-5,333.323,2.0,114,70.0
2395,F5,335.323,1.0,114,70.0
2396,A5,335.323,1.0,114,70.0
2397,C6,335.323,1.0,114,70.0
2398,F5,337.323,1.0,114,70.0
2399,A5,337.323,1.0,114,70.0
2400,C6,337.323,1.0,114,70.0
2401,B-4,338.323,2.0,114,70.0
2402,D5,338.323,2.0,114,70.0
2403,F5,338.323,2.0,114,70.0
2404,E-4,342.323,1.0,114,70.0
2405,G4,342.323,1.0,114,70.0
2406,B-4,342.323,1.0,114,70.0
2407,E-4,343.323,1.0,114,70.0
2408,G4,343.323,1.0,114,70.0
2409,B-4,343.323,1.0,114,70.0
2410,F4,344.323,2.0,114,70.0
2411,A4,344.323,2.0,114,70.0
2412,C5,344.323,2.0,114,70.0
2413,F4,352.323,2.0,114,70.0
2414,A4,352.323,2.0,114,70.0
2415,C5,352.323,2.0,114,70.0
2416,B-4,354.323,1.0,114,70.0
2417,D5,354.323,1.0,114,70.0
2418,F5,354.323,1.0,114,70.0
2419,B-4,358.323,3.0,114,70.0
2420,D5,358.323,3.0,114,70.0
2421,F5,358.323,3.0,114,70.0
2422,B-4,365.323,2.0,114,70.0
2423,D5,365.323,2.0,114,70.0
2424,F5,365.323,2.0,114,70.0
2425,B-4,367.323,3.0,114,70.0
2426,D5,367.323,3.0,114,70.0
2427,F5,367.323,3.0,114,70.0
2428,B-4,372.979,2.656,114,70.0
2429,D5,372.979,2.656,114,70.0
2430,F5,372.979,2.656,114,70.0
