,note_name,start_time,duration,velocity,tempo
0,G#2,0.0,4.0,95,105.0
1,B3,0.5,0.5,95,105.0
2,G#3,1.0,0.5,95,105.0
3,E-3,1.5,0.5,95,105.0
4,B3,2.0,0.5,95,105.0
5,G#3,2.5,0.5,95,105.0
6,E-3,3.0,0.5,95,105.0
7,G#3,3.5,0.5,95,105.0
8,F#2,4.0,4.0,95,105.0
9,B-3,4.5,0.5,95,105.0
10,F#3,5.0,0.5,95,105.0
11,C#3,5.5,0.5,95,105.0
12,B3,6.0,0.5,95,105.0
13,B-3,6.5,0.5,95,105.0
14,G#3,7.0,0.5,95,105.0
15,F#3,7.5,0.5,95,105.0
16,E2,8.0,4.0,95,105.0
17,G#3,8.5,0.5,95,105.0
18,B3,9.0,0.5,95,105.0
19,C#4,9.5,0.5,95,105.0
20,E4,10.0,0.5,95,105.0
21,E-4,10.5,0.5,95,105.0
22,C#4,11.0,0.5,95,105.0
23,B3,11.5,0.5,95,105.0
24,B2,12.0,4.0,95,105.0
25,B3,12.5,0.5,95,105.0
26,B-3,13.0,0.5,95,105.0
27,G#3,13.5,0.5,95,105.0
28,B-3,14.0,0.5,95,105.0
29,B3,14.5,0.5,95,105.0
30,G#3,15.0,0.5,95,105.0
31,F#3,15.5,0.5,95,105.0
32,G#2,16.0,4.0,95,105.0
33,G#1,16.0,4.0,95,105.0
34,D2,16.0,0.125,95,105.0
35,G#3,16.0,0.5,95,105.0
36,E-3,16.0,0.5,95,105.0
37,G#2,16.0,0.5,95,105.0
38,D2,16.125,0.125,95,105.0
39,D2,16.25,0.125,95,105.0
40,D2,16.375,0.125,95,105.0
41,B3,16.5,0.5,95,105.0
42,G#3,16.5,0.5,95,105.0
43,E-3,16.5,0.5,95,105.0
44,G#2,16.5,0.5,95,105.0
45,G#3,17.0,0.5,95,105.0
46,E-3,17.5,0.5,95,105.0
47,B3,18.0,0.5,95,105.0
48,G#3,18.5,0.5,95,105.0
49,E-3,19.0,0.5,95,105.0
50,G#3,19.5,0.5,95,105.0
51,F#2,20.0,4.0,95,105.0
52,F#1,20.0,4.0,95,105.0
53,D2,20.0,0.125,95,105.0
54,F#3,20.0,0.5,95,105.0
55,C#3,20.0,0.5,95,105.0
56,F#2,20.0,0.5,95,105.0
57,D2,20.125,0.125,95,105.0
58,D2,20.25,0.125,95,105.0
59,D2,20.375,0.125,95,105.0
60,B-3,20.5,0.5,95,105.0
61,F#3,20.5,0.5,95,105.0
62,C#3,20.5,0.5,95,105.0
63,F#2,20.5,0.5,95,105.0
64,F#3,21.0,0.5,95,105.0
65,C#3,21.5,0.5,95,105.0
66,B3,22.0,0.5,95,105.0
67,B-3,22.5,0.5,95,105.0
68,G#3,23.0,0.5,95,105.0
69,F#3,23.5,0.5,95,105.0
70,E2,24.0,4.0,95,105.0
71,C#2,24.0,4.0,95,105.0
72,D2,24.0,0.125,95,105.0
73,C#4,24.0,0.5,95,105.0
74,G#3,24.0,0.5,95,105.0
75,C#3,24.0,0.5,95,105.0
76,D2,24.125,0.125,95,105.0
77,D2,24.25,0.125,95,105.0
78,D2,24.375,0.125,95,105.0
79,G#3,24.5,0.5,95,105.0
80,C#4,24.5,3.5,95,105.0
81,G#3,24.5,3.5,95,105.0
82,C#3,24.5,3.5,95,105.0
83,B3,25.0,0.5,95,105.0
84,C#4,25.5,0.5,95,105.0
85,E4,26.0,0.5,95,105.0
86,E-4,26.5,0.5,95,105.0
87,C#4,27.0,0.5,95,105.0
88,B3,27.5,0.5,95,105.0
89,B2,28.0,4.0,95,105.0
90,B1,28.0,2.0,95,105.0
91,B1,28.0,0.5,95,105.0
92,B3,28.0,2.0,95,105.0
93,F#3,28.0,2.0,95,105.0
94,B2,28.0,2.0,95,105.0
95,B3,28.5,0.5,95,105.0
96,B-2,28.5,0.5,95,105.0
97,D2,28.5,0.5,95,105.0
98,B-3,29.0,0.5,95,105.0
99,B1,29.0,0.5,95,105.0
100,G#3,29.5,0.5,95,105.0
101,B1,29.5,0.5,95,105.0
102,B-3,30.0,0.5,95,105.0
103,B-1,30.0,2.0,95,105.0
104,B-3,30.0,2.0,95,105.0
105,F3,30.0,2.0,95,105.0
106,B-2,30.0,2.0,95,105.0
107,B-2,30.0,0.5,95,105.0
108,D2,30.0,0.5,95,105.0
109,B3,30.5,0.5,95,105.0
110,B1,30.5,0.5,95,105.0
111,G#3,31.0,0.5,95,105.0
112,B-2,31.0,0.5,95,105.0
113,D2,31.0,0.5,95,105.0
114,F#3,31.5,0.5,95,105.0
115,D2,31.5,0.5,95,105.0
116,G#2,32.0,4.0,95,105.0
117,G#1,32.0,0.5,95,105.0
118,E-3,32.0,1.0,95,105.0
119,G#2,32.0,1.0,95,105.0
120,C#3,32.0,0.5,95,105.0
121,A3,32.0,0.5,95,105.0
122,B1,32.0,0.5,95,105.0
123,B3,32.5,0.5,95,105.0
124,E-2,32.5,0.5,95,105.0
125,F#2,32.5,0.5,95,105.0
126,G#3,33.0,0.5,95,105.0
127,A2,33.0,27/500,95,105.0
128,G#2,33.0,0.5,95,105.0
129,D2,33.0,0.5,95,105.0
130,E-3,33.5,0.5,95,105.0
131,A2,33.5,27/500,95,105.0
132,E-2,33.5,0.5,95,105.0
133,B1,33.5,0.125,95,105.0
134,G#2,33.625,0.125,95,105.0
135,F#2,33.75,0.125,95,105.0
136,B-2,33.875,0.375,95,105.0
137,B3,34.0,0.5,95,105.0
138,A2,34.0,27/500,95,105.0
139,B2,34.0,0.5,95,105.0
140,G#2,34.25,0.25,95,105.0
141,G#3,34.5,0.5,95,105.0
142,B-2,34.5,0.5,95,105.0
143,B1,34.5,0.5,95,105.0
144,E-3,34.5,0.5,95,105.0
145,G#2,34.5,0.5,95,105.0
146,E-3,35.0,0.5,95,105.0
147,A2,35.0,27/500,95,105.0
148,G#2,35.0,0.5,95,105.0
149,D2,35.0,0.5,95,105.0
150,G#3,35.5,0.5,95,105.0
151,A2,35.5,27/500,95,105.0
152,F#2,35.5,0.5,95,105.0
153,F#2,35.5,0.5,95,105.0
154,F#2,36.0,4.0,95,105.0
155,F#1,36.0,0.5,95,105.0
156,B1,36.0,0.5,95,105.0
157,C#3,36.0,1.0,95,105.0
158,F#2,36.0,1.0,95,105.0
159,B-3,36.5,0.5,95,105.0
160,C#2,36.5,0.5,95,105.0
161,F#2,36.5,0.5,95,105.0
162,F#3,37.0,0.5,95,105.0
163,E2,37.0,27/500,95,105.0
164,F#2,37.0,0.5,95,105.0
165,D2,37.0,0.5,95,105.0
166,C#3,37.5,0.5,95,105.0
167,E2,37.5,27/500,95,105.0
168,C#2,37.5,0.5,95,105.0
169,B1,37.5,0.125,95,105.0
170,G#2,37.625,0.125,95,105.0
171,F#2,37.75,0.125,95,105.0
172,B-2,37.875,0.375,95,105.0
173,B3,38.0,0.5,95,105.0
174,E2,38.0,27/500,95,105.0
175,B-2,38.0,0.5,95,105.0
176,G#2,38.25,0.25,95,105.0
177,B-3,38.5,0.5,95,105.0
178,G#2,38.5,0.5,95,105.0
179,B1,38.5,0.5,95,105.0
180,C#3,38.5,0.5,95,105.0
181,F#2,38.5,0.5,95,105.0
182,G#3,39.0,0.5,95,105.0
183,E2,39.0,27/500,95,105.0
184,F#2,39.0,0.5,95,105.0
185,D2,39.0,0.5,95,105.0
186,F#3,39.5,0.5,95,105.0
187,E2,39.5,27/500,95,105.0
188,G#2,39.5,0.5,95,105.0
189,F#2,39.5,0.5,95,105.0
190,E2,40.0,4.0,95,105.0
191,C#2,40.0,0.5,95,105.0
192,B1,40.0,0.5,95,105.0
193,G#3,40.0,1.0,95,105.0
194,C#3,40.0,1.0,95,105.0
195,G#3,40.5,0.5,95,105.0
196,G#2,40.5,0.5,95,105.0
197,F#2,40.5,0.5,95,105.0
198,B3,41.0,0.5,95,105.0
199,E2,41.0,27/500,95,105.0
200,C#3,41.0,0.5,95,105.0
201,D2,41.0,0.5,95,105.0
202,C#4,41.5,0.5,95,105.0
203,E2,41.5,27/500,95,105.0
204,G#2,41.5,0.5,95,105.0
205,B1,41.5,0.125,95,105.0
206,G#2,41.625,0.125,95,105.0
207,F#2,41.75,0.125,95,105.0
208,B-2,41.875,0.375,95,105.0
209,E4,42.0,0.5,95,105.0
210,E2,42.0,27/500,95,105.0
211,E3,42.0,0.5,95,105.0
212,G#2,42.25,0.25,95,105.0
213,E-4,42.5,0.5,95,105.0
214,E-3,42.5,0.5,95,105.0
215,B1,42.5,0.5,95,105.0
216,G#3,42.5,0.5,95,105.0
217,C#3,42.5,0.5,95,105.0
218,C#4,43.0,0.5,95,105.0
219,E2,43.0,27/500,95,105.0
220,C#3,43.0,0.5,95,105.0
221,D2,43.0,0.5,95,105.0
222,B3,43.5,0.5,95,105.0
223,E2,43.5,27/500,95,105.0
224,B2,43.5,0.5,95,105.0
225,F#2,43.5,0.5,95,105.0
226,B2,44.0,4.0,95,105.0
227,B1,44.0,0.5,95,105.0
228,B1,44.0,0.5,95,105.0
229,B3,44.0,2.0,95,105.0
230,F#3,44.0,2.0,95,105.0
231,B2,44.0,2.0,95,105.0
232,B3,44.5,0.5,95,105.0
233,B1,44.5,0.5,95,105.0
234,F#2,44.5,0.5,95,105.0
235,B-3,45.0,0.5,95,105.0
236,F#2,45.0,0.5,95,105.0
237,D2,45.0,0.5,95,105.0
238,G#3,45.5,0.5,95,105.0
239,B1,45.5,0.5,95,105.0
240,B1,45.5,0.125,95,105.0
241,G#2,45.625,0.125,95,105.0
242,F#2,45.75,0.125,95,105.0
243,B-2,45.875,0.375,95,105.0
244,B-3,46.0,0.5,95,105.0
245,B-1,46.0,0.5,95,105.0
246,B-3,46.0,2.0,95,105.0
247,F3,46.0,2.0,95,105.0
248,B-2,46.0,2.0,95,105.0
249,G#2,46.25,0.25,95,105.0
250,B3,46.5,0.5,95,105.0
251,B-1,46.5,0.5,95,105.0
252,B1,46.5,0.5,95,105.0
253,G#3,47.0,0.5,95,105.0
254,F#2,47.0,0.5,95,105.0
255,D2,47.0,0.5,95,105.0
256,F#3,47.5,0.5,95,105.0
257,B-1,47.5,0.5,95,105.0
258,F#2,47.5,0.5,95,105.0
259,G#2,48.0,4.0,95,105.0
260,G#1,48.0,0.5,95,105.0
261,E-3,48.0,1.0,95,105.0
262,G#2,48.0,1.0,95,105.0
263,A3,48.0,0.5,95,105.0
264,C#3,48.0,0.5,95,105.0
265,B1,48.0,0.5,95,105.0
266,B3,48.5,0.5,95,105.0
267,E-2,48.5,0.5,95,105.0
268,F#2,48.5,0.5,95,105.0
269,G#3,49.0,0.5,95,105.0
270,A2,49.0,27/500,95,105.0
271,G#2,49.0,0.5,95,105.0
272,D2,49.0,0.5,95,105.0
273,E-3,49.5,0.5,95,105.0
274,A2,49.5,27/500,95,105.0
275,E-2,49.5,0.5,95,105.0
276,B1,49.5,0.125,95,105.0
277,G#2,49.625,0.125,95,105.0
278,F#2,49.75,0.125,95,105.0
279,B-2,49.875,0.375,95,105.0
280,B3,50.0,0.5,95,105.0
281,A2,50.0,27/500,95,105.0
282,B2,50.0,0.5,95,105.0
283,G#2,50.25,0.25,95,105.0
284,G#3,50.5,0.5,95,105.0
285,B-2,50.5,0.5,95,105.0
286,B1,50.5,0.5,95,105.0
287,E-3,50.5,0.5,95,105.0
288,G#2,50.5,0.5,95,105.0
289,E-3,51.0,0.5,95,105.0
290,A2,51.0,27/500,95,105.0
291,G#2,51.0,0.5,95,105.0
292,D2,51.0,0.5,95,105.0
293,G#3,51.5,0.5,95,105.0
294,A2,51.5,27/500,95,105.0
295,F#2,51.5,0.5,95,105.0
296,F#2,51.5,0.5,95,105.0
297,F#2,52.0,4.0,95,105.0
298,F#1,52.0,0.5,95,105.0
299,B1,52.0,0.5,95,105.0
300,C#3,52.0,1.0,95,105.0
301,F#2,52.0,1.0,95,105.0
302,B-3,52.5,0.5,95,105.0
303,C#2,52.5,0.5,95,105.0
304,F#2,52.5,0.5,95,105.0
305,F#3,53.0,0.5,95,105.0
306,E2,53.0,27/500,95,105.0
307,F#2,53.0,0.5,95,105.0
308,D2,53.0,0.5,95,105.0
309,C#3,53.5,0.5,95,105.0
310,E2,53.5,27/500,95,105.0
311,C#2,53.5,0.5,95,105.0
312,B1,53.5,0.125,95,105.0
313,G#2,53.625,0.125,95,105.0
314,F#2,53.75,0.125,95,105.0
315,B-2,53.875,0.375,95,105.0
316,B3,54.0,0.5,95,105.0
317,E2,54.0,27/500,95,105.0
318,B-2,54.0,0.5,95,105.0
319,G#2,54.25,0.25,95,105.0
320,B-3,54.5,0.5,95,105.0
321,G#2,54.5,0.5,95,105.0
322,B1,54.5,0.5,95,105.0
323,C#3,54.5,0.5,95,105.0
324,F#2,54.5,0.5,95,105.0
325,G#3,55.0,0.5,95,105.0
326,E2,55.0,27/500,95,105.0
327,F#2,55.0,0.5,95,105.0
328,D2,55.0,0.5,95,105.0
329,F#3,55.5,0.5,95,105.0
330,E2,55.5,27/500,95,105.0
331,G#2,55.5,0.5,95,105.0
332,F#2,55.5,0.5,95,105.0
333,E2,56.0,4.0,95,105.0
334,C#2,56.0,0.5,95,105.0
335,B1,56.0,0.5,95,105.0
336,G#3,56.0,1.0,95,105.0
337,C#3,56.0,1.0,95,105.0
338,G#3,56.5,0.5,95,105.0
339,G#2,56.5,0.5,95,105.0
340,F#2,56.5,0.5,95,105.0
341,B3,57.0,0.5,95,105.0
342,E2,57.0,27/500,95,105.0
343,C#3,57.0,0.5,95,105.0
344,D2,57.0,0.5,95,105.0
345,C#4,57.5,0.5,95,105.0
346,E2,57.5,27/500,95,105.0
347,G#2,57.5,0.5,95,105.0
348,B1,57.5,0.125,95,105.0
349,G#2,57.625,0.125,95,105.0
350,F#2,57.75,0.125,95,105.0
351,B-2,57.875,0.375,95,105.0
352,E4,58.0,0.5,95,105.0
353,E2,58.0,27/500,95,105.0
354,E3,58.0,0.5,95,105.0
355,G#2,58.25,0.25,95,105.0
356,E-4,58.5,0.5,95,105.0
357,E-3,58.5,0.5,95,105.0
358,B1,58.5,0.5,95,105.0
359,G#3,58.5,0.5,95,105.0
360,C#3,58.5,0.5,95,105.0
361,C#4,59.0,0.5,95,105.0
362,E2,59.0,27/500,95,105.0
363,C#3,59.0,0.5,95,105.0
364,D2,59.0,0.5,95,105.0
365,B3,59.5,0.5,95,105.0
366,E2,59.5,27/500,95,105.0
367,B2,59.5,0.5,95,105.0
368,F#2,59.5,0.5,95,105.0
369,B2,60.0,4.0,95,105.0
370,B1,60.0,0.5,95,105.0
371,B1,60.0,0.5,95,105.0
372,B3,60.0,2.0,95,105.0
373,F#3,60.0,2.0,95,105.0
374,B2,60.0,2.0,95,105.0
375,B3,60.5,0.5,95,105.0
376,B1,60.5,0.5,95,105.0
377,F#2,60.5,0.5,95,105.0
378,B-3,61.0,0.5,95,105.0
379,F#2,61.0,0.5,95,105.0
380,D2,61.0,0.5,95,105.0
381,G#3,61.5,0.5,95,105.0
382,B1,61.5,0.5,95,105.0
383,F#2,61.5,0.5,95,105.0
384,B-3,62.0,0.5,95,105.0
385,B-1,62.0,0.5,95,105.0
386,D2,62.0,0.25,95,105.0
387,B-3,62.0,2.0,95,105.0
388,F3,62.0,2.0,95,105.0
389,B-2,62.0,2.0,95,105.0
390,D2,62.25,0.25,95,105.0
391,B3,62.5,0.5,95,105.0
392,B-1,62.5,0.5,95,105.0
393,D3,62.5,0.25,95,105.0
394,C3,62.75,0.25,95,105.0
395,G#3,63.0,0.5,95,105.0
396,F#2,63.0,0.5,95,105.0
397,A2,63.0,0.25,95,105.0
398,G2,63.25,0.25,95,105.0
399,F#3,63.5,0.5,95,105.0
400,B-1,63.5,0.5,95,105.0
401,D2,63.5,0.25,95,105.0
402,F2,63.75,0.25,95,105.0
403,G#2,64.0,4.0,95,105.0
404,G#1,64.0,0.5,95,105.0
405,E-3,64.0,1.0,95,105.0
406,G#2,64.0,1.0,95,105.0
407,A3,64.0,0.5,95,105.0
408,C#3,64.0,0.5,95,105.0
409,B1,64.0,0.5,95,105.0
410,B3,64.5,0.5,95,105.0
411,E-2,64.5,0.5,95,105.0
412,F#2,64.5,0.5,95,105.0
413,G#3,65.0,0.5,95,105.0
414,A2,65.0,27/500,95,105.0
415,G#2,65.0,0.5,95,105.0
416,D2,65.0,0.5,95,105.0
417,E-3,65.5,0.5,95,105.0
418,A2,65.5,27/500,95,105.0
419,E-2,65.5,0.5,95,105.0
420,B1,65.5,0.125,95,105.0
421,G#2,65.625,0.125,95,105.0
422,F#2,65.75,0.125,95,105.0
423,B-2,65.875,0.375,95,105.0
424,B3,66.0,0.5,95,105.0
425,A2,66.0,27/500,95,105.0
426,B2,66.0,0.5,95,105.0
427,G#2,66.25,0.25,95,105.0
428,G#3,66.5,0.5,95,105.0
429,B-2,66.5,0.5,95,105.0
430,B1,66.5,0.5,95,105.0
431,E-3,66.5,0.5,95,105.0
432,G#2,66.5,0.5,95,105.0
433,E-3,67.0,0.5,95,105.0
434,A2,67.0,27/500,95,105.0
435,G#2,67.0,0.5,95,105.0
436,D2,67.0,0.5,95,105.0
437,G#3,67.5,0.5,95,105.0
438,A2,67.5,27/500,95,105.0
439,F#2,67.5,0.5,95,105.0
440,F#2,67.5,0.5,95,105.0
441,F#2,68.0,4.0,95,105.0
442,F#1,68.0,0.5,95,105.0
443,B1,68.0,0.5,95,105.0
444,C#3,68.0,1.0,95,105.0
445,F#2,68.0,1.0,95,105.0
446,B-3,68.5,0.5,95,105.0
447,C#2,68.5,0.5,95,105.0
448,F#2,68.5,0.5,95,105.0
449,F#3,69.0,0.5,95,105.0
450,E2,69.0,27/500,95,105.0
451,F#2,69.0,0.5,95,105.0
452,D2,69.0,0.5,95,105.0
453,C#3,69.5,0.5,95,105.0
454,E2,69.5,27/500,95,105.0
455,C#2,69.5,0.5,95,105.0
456,B1,69.5,0.125,95,105.0
457,G#2,69.625,0.125,95,105.0
458,F#2,69.75,0.125,95,105.0
459,B-2,69.875,0.375,95,105.0
460,B3,70.0,0.5,95,105.0
461,E2,70.0,27/500,95,105.0
462,B-2,70.0,0.5,95,105.0
463,G#2,70.25,0.25,95,105.0
464,B-3,70.5,0.5,95,105.0
465,G#2,70.5,0.5,95,105.0
466,B1,70.5,0.5,95,105.0
467,C#3,70.5,0.5,95,105.0
468,F#2,70.5,0.5,95,105.0
469,G#3,71.0,0.5,95,105.0
470,E2,71.0,27/500,95,105.0
471,F#2,71.0,0.5,95,105.0
472,D2,71.0,0.5,95,105.0
473,F#3,71.5,0.5,95,105.0
474,E2,71.5,27/500,95,105.0
475,G#2,71.5,0.5,95,105.0
476,F#2,71.5,0.5,95,105.0
477,E2,72.0,4.0,95,105.0
478,C#2,72.0,0.5,95,105.0
479,B1,72.0,0.5,95,105.0
480,G#3,72.0,1.0,95,105.0
481,C#3,72.0,1.0,95,105.0
482,G#3,72.5,0.5,95,105.0
483,G#2,72.5,0.5,95,105.0
484,F#2,72.5,0.5,95,105.0
485,B3,73.0,0.5,95,105.0
486,E2,73.0,27/500,95,105.0
487,C#3,73.0,0.5,95,105.0
488,D2,73.0,0.5,95,105.0
489,C#4,73.5,0.5,95,105.0
490,E2,73.5,27/500,95,105.0
491,G#2,73.5,0.5,95,105.0
492,B1,73.5,0.125,95,105.0
493,G#2,73.625,0.125,95,105.0
494,F#2,73.75,0.125,95,105.0
495,B-2,73.875,0.375,95,105.0
496,E4,74.0,0.5,95,105.0
497,E2,74.0,27/500,95,105.0
498,E3,74.0,0.5,95,105.0
499,G#2,74.25,0.25,95,105.0
500,E-4,74.5,0.5,95,105.0
501,E-3,74.5,0.5,95,105.0
502,B1,74.5,0.5,95,105.0
503,G#3,74.5,0.5,95,105.0
504,C#3,74.5,0.5,95,105.0
505,C#4,75.0,0.5,95,105.0
506,E2,75.0,27/500,95,105.0
507,C#3,75.0,0.5,95,105.0
508,D2,75.0,0.5,95,105.0
509,B3,75.5,0.5,95,105.0
510,E2,75.5,27/500,95,105.0
511,B2,75.5,0.5,95,105.0
512,F#2,75.5,0.5,95,105.0
513,B2,76.0,4.0,95,105.0
514,B1,76.0,0.5,95,105.0
515,B1,76.0,0.5,95,105.0
516,B3,76.0,2.0,95,105.0
517,F#3,76.0,2.0,95,105.0
518,B2,76.0,2.0,95,105.0
519,B3,76.5,0.5,95,105.0
520,B1,76.5,0.5,95,105.0
521,F#2,76.5,0.5,95,105.0
522,B-3,77.0,0.5,95,105.0
523,F#2,77.0,0.5,95,105.0
524,D2,77.0,0.5,95,105.0
525,G#3,77.5,0.5,95,105.0
526,B1,77.5,0.5,95,105.0
527,F#2,77.5,0.5,95,105.0
528,B-3,78.0,0.5,95,105.0
529,B-1,78.0,0.5,95,105.0
530,D2,78.0,0.25,95,105.0
531,B-3,78.0,2.0,95,105.0
532,F3,78.0,2.0,95,105.0
533,B-2,78.0,2.0,95,105.0
534,D2,78.25,0.25,95,105.0
535,B3,78.5,0.5,95,105.0
536,B-1,78.5,0.5,95,105.0
537,D3,78.5,0.25,95,105.0
538,C3,78.75,0.25,95,105.0
539,G#3,79.0,0.5,95,105.0
540,F#2,79.0,0.5,95,105.0
541,A2,79.0,0.25,95,105.0
542,G2,79.25,0.25,95,105.0
543,F#3,79.5,0.5,95,105.0
544,B-1,79.5,0.5,95,105.0
545,D2,79.5,0.25,95,105.0
546,F2,79.75,0.25,95,105.0
547,G#1,80.0,0.5,95,105.0
548,G#3,80.0,0.5,95,105.0
549,E-3,80.0,0.5,95,105.0
550,G#2,80.0,0.5,95,105.0
551,G#3,80.0,0.5,95,105.0
552,E-3,80.0,0.5,95,105.0
553,G#2,80.0,0.5,95,105.0
554,A3,80.0,0.5,95,105.0
555,C#3,80.0,0.5,95,105.0
556,B1,80.0,0.5,95,105.0
557,E-2,80.5,0.5,95,105.0
558,G#3,80.5,0.5,95,105.0
559,E-3,80.5,0.5,95,105.0
560,G#2,80.5,0.5,95,105.0
561,G#3,80.5,0.5,95,105.0
562,E-3,80.5,0.5,95,105.0
563,G#2,80.5,0.5,95,105.0
564,A3,80.5,0.5,95,105.0
565,C#3,80.5,0.5,95,105.0
566,B1,80.5,0.5,95,105.0
567,G#2,81.0,0.5,95,105.0
568,G#3,81.0,0.5,95,105.0
569,E-3,81.0,0.5,95,105.0
570,G#2,81.0,0.5,95,105.0
571,G#3,81.0,0.5,95,105.0
572,E-3,81.0,0.5,95,105.0
573,G#2,81.0,0.5,95,105.0
574,A3,81.0,0.5,95,105.0
575,C#3,81.0,0.5,95,105.0
576,B1,81.0,0.5,95,105.0
577,F#1,84.0,0.5,95,105.0
578,F#3,84.0,0.5,95,105.0
579,C#3,84.0,0.5,95,105.0
580,F#2,84.0,0.5,95,105.0
581,F#3,84.0,0.5,95,105.0
582,C#3,84.0,0.5,95,105.0
583,F#2,84.0,0.5,95,105.0
584,A3,84.0,0.5,95,105.0
585,C#3,84.0,0.5,95,105.0
586,B1,84.0,0.5,95,105.0
587,C#2,84.5,0.5,95,105.0
588,F#3,84.5,0.5,95,105.0
589,C#3,84.5,0.5,95,105.0
590,F#2,84.5,0.5,95,105.0
591,F#3,84.5,0.5,95,105.0
592,C#3,84.5,0.5,95,105.0
593,F#2,84.5,0.5,95,105.0
594,A3,84.5,0.5,95,105.0
595,C#3,84.5,0.5,95,105.0
596,B1,84.5,0.5,95,105.0
597,F#2,85.0,0.5,95,105.0
598,F#3,85.0,0.5,95,105.0
599,C#3,85.0,0.5,95,105.0
600,F#2,85.0,0.5,95,105.0
601,F#3,85.0,0.5,95,105.0
602,C#3,85.0,0.5,95,105.0
603,F#2,85.0,0.5,95,105.0
604,A3,85.0,0.5,95,105.0
605,C#3,85.0,0.5,95,105.0
606,B1,85.0,0.5,95,105.0
607,C#2,88.0,0.5,95,105.0
608,C#4,88.0,4.0,95,105.0
609,G#3,88.0,4.0,95,105.0
610,C#3,88.0,4.0,95,105.0
611,C#4,88.0,4.0,95,105.0
612,G#3,88.0,4.0,95,105.0
613,C#3,88.0,4.0,95,105.0
614,A3,88.0,1.0,95,105.0
615,C#3,88.0,1.0,95,105.0
616,B1,88.0,1.0,95,105.0
617,C#2,88.5,0.5,95,105.0
618,C#2,89.0,0.5,95,105.0
619,B-2,89.0,1.0,95,105.0
620,C#2,89.5,0.5,95,105.0
621,C#2,90.0,0.5,95,105.0
622,B-2,90.0,1.0,95,105.0
623,D2,90.0,1.0,95,105.0
624,C#2,90.5,0.5,95,105.0
625,C#2,91.0,0.5,95,105.0
626,B-2,91.0,1.0,95,105.0
627,C#2,91.5,0.5,95,105.0
628,B1,92.0,0.5,95,105.0
629,D2,92.0,0.25,95,105.0
630,B3,92.0,2.0,95,105.0
631,F#3,92.0,2.0,95,105.0
632,B2,92.0,2.0,95,105.0
633,B3,92.0,2.0,95,105.0
634,F#3,92.0,2.0,95,105.0
635,B2,92.0,2.0,95,105.0
636,D2,92.25,0.25,95,105.0
637,B1,92.5,0.5,95,105.0
638,D2,92.5,0.25,95,105.0
639,D2,92.75,0.25,95,105.0
640,B1,93.0,0.5,95,105.0
641,D3,93.0,0.25,95,105.0
642,D3,93.25,0.25,95,105.0
643,B1,93.5,0.5,95,105.0
644,D3,93.5,0.25,95,105.0
645,D3,93.75,0.25,95,105.0
646,B-1,94.0,0.5,95,105.0
647,C3,94.0,0.25,95,105.0
648,B-3,94.0,2.0,95,105.0
649,F3,94.0,2.0,95,105.0
650,B-2,94.0,2.0,95,105.0
651,B-3,94.0,2.0,95,105.0
652,F3,94.0,2.0,95,105.0
653,B-2,94.0,2.0,95,105.0
654,C3,94.25,0.125,95,105.0
655,C3,94.375,0.125,95,105.0
656,B-1,94.5,0.5,95,105.0
657,C3,94.5,0.25,95,105.0
658,C3,94.75,0.25,95,105.0
659,B-1,95.0,0.5,95,105.0
660,A2,95.0,0.25,95,105.0
661,A2,95.25,0.25,95,105.0
662,B-1,95.5,0.5,95,105.0
663,A2,95.5,0.25,95,105.0
664,A2,95.75,0.25,95,105.0
665,G#1,96.0,0.5,95,105.0
666,G#3,96.0,0.5,95,105.0
667,E-3,96.0,0.5,95,105.0
668,G#2,96.0,0.5,95,105.0
669,G#3,96.0,0.5,95,105.0
670,E-3,96.0,0.5,95,105.0
671,G#2,96.0,0.5,95,105.0
672,A3,96.0,0.5,95,105.0
673,C#3,96.0,0.5,95,105.0
674,B1,96.0,0.5,95,105.0
675,E-2,96.5,0.5,95,105.0
676,G#3,96.5,0.5,95,105.0
677,E-3,96.5,0.5,95,105.0
678,G#2,96.5,0.5,95,105.0
679,G#3,96.5,0.5,95,105.0
680,E-3,96.5,0.5,95,105.0
681,G#2,96.5,0.5,95,105.0
682,A3,96.5,0.5,95,105.0
683,C#3,96.5,0.5,95,105.0
684,B1,96.5,0.5,95,105.0
685,G#2,97.0,0.5,95,105.0
686,G#3,97.0,0.5,95,105.0
687,E-3,97.0,0.5,95,105.0
688,G#2,97.0,0.5,95,105.0
689,G#3,97.0,0.5,95,105.0
690,E-3,97.0,0.5,95,105.0
691,G#2,97.0,0.5,95,105.0
692,A3,97.0,0.5,95,105.0
693,C#3,97.0,0.5,95,105.0
694,B1,97.0,0.5,95,105.0
695,F#1,100.0,0.5,95,105.0
696,F#3,100.0,0.5,95,105.0
697,C#3,100.0,0.5,95,105.0
698,F#2,100.0,0.5,95,105.0
699,F#3,100.0,0.5,95,105.0
700,C#3,100.0,0.5,95,105.0
701,F#2,100.0,0.5,95,105.0
702,A3,100.0,0.5,95,105.0
703,C#3,100.0,0.5,95,105.0
704,B1,100.0,0.5,95,105.0
705,C#2,100.5,0.5,95,105.0
706,F#3,100.5,0.5,95,105.0
707,C#3,100.5,0.5,95,105.0
708,F#2,100.5,0.5,95,105.0
709,F#3,100.5,0.5,95,105.0
710,C#3,100.5,0.5,95,105.0
711,F#2,100.5,0.5,95,105.0
712,A3,100.5,0.5,95,105.0
713,C#3,100.5,0.5,95,105.0
714,B1,100.5,0.5,95,105.0
715,F#2,101.0,0.5,95,105.0
716,F#3,101.0,0.5,95,105.0
717,C#3,101.0,0.5,95,105.0
718,F#2,101.0,0.5,95,105.0
719,F#3,101.0,0.5,95,105.0
720,C#3,101.0,0.5,95,105.0
721,F#2,101.0,0.5,95,105.0
722,A3,101.0,0.5,95,105.0
723,C#3,101.0,0.5,95,105.0
724,B1,101.0,0.5,95,105.0
725,G#2,104.0,4.0,95,105.0
726,G#1,104.0,0.5,95,105.0
727,E-3,104.0,1.0,95,105.0
728,G#2,104.0,1.0,95,105.0
729,C#3,104.0,0.5,95,105.0
730,A3,104.0,0.5,95,105.0
731,B1,104.0,0.5,95,105.0
732,B3,104.5,0.5,95,105.0
733,E-2,104.5,0.5,95,105.0
734,F#2,104.5,0.5,95,105.0
735,G#3,105.0,0.5,95,105.0
736,A2,105.0,27/500,95,105.0
737,G#2,105.0,0.5,95,105.0
738,D2,105.0,0.5,95,105.0
739,E-3,105.5,0.5,95,105.0
740,A2,105.5,27/500,95,105.0
741,E-2,105.5,0.5,95,105.0
742,B1,105.5,0.125,95,105.0
743,G#2,105.625,0.125,95,105.0
744,F#2,105.75,0.125,95,105.0
745,B-2,105.875,0.375,95,105.0
746,B3,106.0,0.5,95,105.0
747,A2,106.0,27/500,95,105.0
748,B2,106.0,0.5,95,105.0
749,G#2,106.25,0.25,95,105.0
750,G#3,106.5,0.5,95,105.0
751,B-2,106.5,0.5,95,105.0
752,B1,106.5,0.5,95,105.0
753,E-3,106.5,0.5,95,105.0
754,G#2,106.5,0.5,95,105.0
755,E-3,107.0,0.5,95,105.0
756,A2,107.0,27/500,95,105.0
757,G#2,107.0,0.5,95,105.0
758,D2,107.0,0.5,95,105.0
759,G#3,107.5,0.5,95,105.0
760,A2,107.5,27/500,95,105.0
761,F#2,107.5,0.5,95,105.0
762,F#2,107.5,0.5,95,105.0
763,F#2,108.0,4.0,95,105.0
764,F#1,108.0,0.5,95,105.0
765,B1,108.0,0.5,95,105.0
766,C#3,108.0,1.0,95,105.0
767,F#2,108.0,1.0,95,105.0
768,B-3,108.5,0.5,95,105.0
769,C#2,108.5,0.5,95,105.0
770,F#2,108.5,0.5,95,105.0
771,F#3,109.0,0.5,95,105.0
772,E2,109.0,27/500,95,105.0
773,F#2,109.0,0.5,95,105.0
774,D2,109.0,0.5,95,105.0
775,C#3,109.5,0.5,95,105.0
776,E2,109.5,27/500,95,105.0
777,C#2,109.5,0.5,95,105.0
778,B1,109.5,0.125,95,105.0
779,G#2,109.625,0.125,95,105.0
780,F#2,109.75,0.125,95,105.0
781,B-2,109.875,0.375,95,105.0
782,B3,110.0,0.5,95,105.0
783,E2,110.0,27/500,95,105.0
784,B-2,110.0,0.5,95,105.0
785,G#2,110.25,0.25,95,105.0
786,B-3,110.5,0.5,95,105.0
787,G#2,110.5,0.5,95,105.0
788,B1,110.5,0.5,95,105.0
789,C#3,110.5,0.5,95,105.0
790,F#2,110.5,0.5,95,105.0
791,G#3,111.0,0.5,95,105.0
792,E2,111.0,27/500,95,105.0
793,F#2,111.0,0.5,95,105.0
794,D2,111.0,0.5,95,105.0
795,F#3,111.5,0.5,95,105.0
796,E2,111.5,27/500,95,105.0
797,G#2,111.5,0.5,95,105.0
798,F#2,111.5,0.5,95,105.0
799,E2,112.0,4.0,95,105.0
800,C#2,112.0,0.5,95,105.0
801,B1,112.0,0.5,95,105.0
802,G#3,112.0,1.0,95,105.0
803,C#3,112.0,1.0,95,105.0
804,G#3,112.5,0.5,95,105.0
805,G#2,112.5,0.5,95,105.0
806,F#2,112.5,0.5,95,105.0
807,B3,113.0,0.5,95,105.0
808,E2,113.0,27/500,95,105.0
809,C#3,113.0,0.5,95,105.0
810,D2,113.0,0.5,95,105.0
811,C#4,113.5,0.5,95,105.0
812,E2,113.5,27/500,95,105.0
813,G#2,113.5,0.5,95,105.0
814,B1,113.5,0.125,95,105.0
815,G#2,113.625,0.125,95,105.0
816,F#2,113.75,0.125,95,105.0
817,B-2,113.875,0.375,95,105.0
818,E4,114.0,0.5,95,105.0
819,E2,114.0,27/500,95,105.0
820,E3,114.0,0.5,95,105.0
821,G#2,114.25,0.25,95,105.0
822,E-4,114.5,0.5,95,105.0
823,E-3,114.5,0.5,95,105.0
824,B1,114.5,0.5,95,105.0
825,G#3,114.5,0.5,95,105.0
826,C#3,114.5,0.5,95,105.0
827,C#4,115.0,0.5,95,105.0
828,E2,115.0,27/500,95,105.0
829,C#3,115.0,0.5,95,105.0
830,D2,115.0,0.5,95,105.0
831,B3,115.5,0.5,95,105.0
832,E2,115.5,27/500,95,105.0
833,B2,115.5,0.5,95,105.0
834,F#2,115.5,0.5,95,105.0
835,B2,116.0,4.0,95,105.0
836,B1,116.0,0.5,95,105.0
837,B1,116.0,0.5,95,105.0
838,B3,116.0,2.0,95,105.0
839,F#3,116.0,2.0,95,105.0
840,B2,116.0,2.0,95,105.0
841,B3,116.5,0.5,95,105.0
842,B1,116.5,0.5,95,105.0
843,F#2,116.5,0.5,95,105.0
844,B-3,117.0,0.5,95,105.0
845,F#2,117.0,0.5,95,105.0
846,D2,117.0,0.5,95,105.0
847,G#3,117.5,0.5,95,105.0
848,B1,117.5,0.5,95,105.0
849,B1,117.5,0.125,95,105.0
850,G#2,117.625,0.125,95,105.0
851,F#2,117.75,0.125,95,105.0
852,B-2,117.875,0.375,95,105.0
853,B-3,118.0,0.5,95,105.0
854,B-1,118.0,0.5,95,105.0
855,B-3,118.0,2.0,95,105.0
856,F3,118.0,2.0,95,105.0
857,B-2,118.0,2.0,95,105.0
858,G#2,118.25,0.25,95,105.0
859,B3,118.5,0.5,95,105.0
860,B-1,118.5,0.5,95,105.0
861,B1,118.5,0.5,95,105.0
862,G#3,119.0,0.5,95,105.0
863,F#2,119.0,0.5,95,105.0
864,D2,119.0,0.5,95,105.0
865,F#3,119.5,0.5,95,105.0
866,B-1,119.5,0.5,95,105.0
867,F#2,119.5,0.5,95,105.0
868,G#2,120.0,4.0,95,105.0
869,G#1,120.0,0.5,95,105.0
870,E-3,120.0,1.0,95,105.0
871,G#2,120.0,1.0,95,105.0
872,A3,120.0,0.5,95,105.0
873,C#3,120.0,0.5,95,105.0
874,B1,120.0,0.5,95,105.0
875,B3,120.5,0.5,95,105.0
876,E-2,120.5,0.5,95,105.0
877,F#2,120.5,0.5,95,105.0
878,G#3,121.0,0.5,95,105.0
879,A2,121.0,27/500,95,105.0
880,G#2,121.0,0.5,95,105.0
881,D2,121.0,0.5,95,105.0
882,E-3,121.5,0.5,95,105.0
883,A2,121.5,27/500,95,105.0
884,E-2,121.5,0.5,95,105.0
885,B1,121.5,0.125,95,105.0
886,G#2,121.625,0.125,95,105.0
887,F#2,121.75,0.125,95,105.0
888,B-2,121.875,0.375,95,105.0
889,B3,122.0,0.5,95,105.0
890,A2,122.0,27/500,95,105.0
891,B2,122.0,0.5,95,105.0
892,G#2,122.25,0.25,95,105.0
893,G#3,122.5,0.5,95,105.0
894,B-2,122.5,0.5,95,105.0
895,B1,122.5,0.5,95,105.0
896,E-3,122.5,0.5,95,105.0
897,G#2,122.5,0.5,95,105.0
898,E-3,123.0,0.5,95,105.0
899,A2,123.0,27/500,95,105.0
900,G#2,123.0,0.5,95,105.0
901,D2,123.0,0.5,95,105.0
902,G#3,123.5,0.5,95,105.0
903,A2,123.5,27/500,95,105.0
904,F#2,123.5,0.5,95,105.0
905,F#2,123.5,0.5,95,105.0
906,F#2,124.0,4.0,95,105.0
907,F#1,124.0,0.5,95,105.0
908,B1,124.0,0.5,95,105.0
909,C#3,124.0,1.0,95,105.0
910,F#2,124.0,1.0,95,105.0
911,B-3,124.5,0.5,95,105.0
912,C#2,124.5,0.5,95,105.0
913,F#2,124.5,0.5,95,105.0
914,F#3,125.0,0.5,95,105.0
915,E2,125.0,27/500,95,105.0
916,F#2,125.0,0.5,95,105.0
917,D2,125.0,0.5,95,105.0
918,C#3,125.5,0.5,95,105.0
919,E2,125.5,27/500,95,105.0
920,C#2,125.5,0.5,95,105.0
921,B1,125.5,0.125,95,105.0
922,G#2,125.625,0.125,95,105.0
923,F#2,125.75,0.125,95,105.0
924,B-2,125.875,0.375,95,105.0
925,B3,126.0,0.5,95,105.0
926,E2,126.0,27/500,95,105.0
927,B-2,126.0,0.5,95,105.0
928,G#2,126.25,0.25,95,105.0
929,B-3,126.5,0.5,95,105.0
930,G#2,126.5,0.5,95,105.0
931,B1,126.5,0.5,95,105.0
932,C#3,126.5,0.5,95,105.0
933,F#2,126.5,0.5,95,105.0
934,G#3,127.0,0.5,95,105.0
935,E2,127.0,27/500,95,105.0
936,F#2,127.0,0.5,95,105.0
937,D2,127.0,0.5,95,105.0
938,F#3,127.5,0.5,95,105.0
939,E2,127.5,27/500,95,105.0
940,G#2,127.5,0.5,95,105.0
941,F#2,127.5,0.5,95,105.0
942,E2,128.0,4.0,95,105.0
943,C#2,128.0,0.5,95,105.0
944,B1,128.0,0.5,95,105.0
945,G#3,128.0,1.0,95,105.0
946,C#3,128.0,1.0,95,105.0
947,G#3,128.5,0.5,95,105.0
948,G#2,128.5,0.5,95,105.0
949,F#2,128.5,0.5,95,105.0
950,B3,129.0,0.5,95,105.0
951,E2,129.0,27/500,95,105.0
952,C#3,129.0,0.5,95,105.0
953,D2,129.0,0.5,95,105.0
954,C#4,129.5,0.5,95,105.0
955,E2,129.5,27/500,95,105.0
956,G#2,129.5,0.5,95,105.0
957,B1,129.5,0.125,95,105.0
958,G#2,129.625,0.125,95,105.0
959,F#2,129.75,0.125,95,105.0
960,B-2,129.875,0.375,95,105.0
961,E4,130.0,0.5,95,105.0
962,E2,130.0,27/500,95,105.0
963,E3,130.0,0.5,95,105.0
964,G#2,130.25,0.25,95,105.0
965,E-4,130.5,0.5,95,105.0
966,E-3,130.5,0.5,95,105.0
967,B1,130.5,0.5,95,105.0
968,G#3,130.5,0.5,95,105.0
969,C#3,130.5,0.5,95,105.0
970,C#4,131.0,0.5,95,105.0
971,E2,131.0,27/500,95,105.0
972,C#3,131.0,0.5,95,105.0
973,D2,131.0,0.5,95,105.0
974,B3,131.5,0.5,95,105.0
975,E2,131.5,27/500,95,105.0
976,B2,131.5,0.5,95,105.0
977,F#2,131.5,0.5,95,105.0
978,B2,132.0,4.0,95,105.0
979,B1,132.0,0.5,95,105.0
980,B1,132.0,0.5,95,105.0
981,B3,132.0,2.0,95,105.0
982,F#3,132.0,2.0,95,105.0
983,B2,132.0,2.0,95,105.0
984,B3,132.5,0.5,95,105.0
985,B1,132.5,0.5,95,105.0
986,F#2,132.5,0.5,95,105.0
987,B-3,133.0,0.5,95,105.0
988,F#2,133.0,0.5,95,105.0
989,D2,133.0,0.5,95,105.0
990,G#3,133.5,0.5,95,105.0
991,B1,133.5,0.5,95,105.0
992,F#2,133.5,0.5,95,105.0
993,B-3,134.0,0.5,95,105.0
994,B-1,134.0,0.5,95,105.0
995,D2,134.0,0.25,95,105.0
996,B-3,134.0,2.0,95,105.0
997,F3,134.0,2.0,95,105.0
998,B-2,134.0,2.0,95,105.0
999,D2,134.25,0.25,95,105.0
1000,B3,134.5,0.5,95,105.0
1001,B-1,134.5,0.5,95,105.0
1002,D3,134.5,0.25,95,105.0
1003,C3,134.75,0.25,95,105.0
1004,G#3,135.0,0.5,95,105.0
1005,F#2,135.0,0.5,95,105.0
1006,A2,135.0,0.25,95,105.0
1007,G2,135.25,0.25,95,105.0
1008,F#3,135.5,0.5,95,105.0
1009,B-1,135.5,0.5,95,105.0
1010,D2,135.5,0.25,95,105.0
1011,F2,135.75,0.25,95,105.0
1012,G#2,136.0,4.0,95,105.0
1013,G#1,136.0,0.5,95,105.0
1014,E-3,136.0,1.0,95,105.0
1015,G#2,136.0,1.0,95,105.0
1016,A3,136.0,0.5,95,105.0
1017,C#3,136.0,0.5,95,105.0
1018,B1,136.0,0.5,95,105.0
1019,B3,136.5,0.5,95,105.0
1020,E-2,136.5,0.5,95,105.0
1021,F#2,136.5,0.5,95,105.0
1022,G#3,137.0,0.5,95,105.0
1023,A2,137.0,27/500,95,105.0
1024,G#2,137.0,0.5,95,105.0
1025,D2,137.0,0.5,95,105.0
1026,E-3,137.5,0.5,95,105.0
1027,A2,137.5,27/500,95,105.0
1028,E-2,137.5,0.5,95,105.0
1029,B1,137.5,0.125,95,105.0
1030,G#2,137.625,0.125,95,105.0
1031,F#2,137.75,0.125,95,105.0
1032,B-2,137.875,0.375,95,105.0
1033,B3,138.0,0.5,95,105.0
1034,A2,138.0,27/500,95,105.0
1035,B2,138.0,0.5,95,105.0
1036,G#2,138.25,0.25,95,105.0
1037,G#3,138.5,0.5,95,105.0
1038,B-2,138.5,0.5,95,105.0
1039,B1,138.5,0.5,95,105.0
1040,E-3,138.5,0.5,95,105.0
1041,G#2,138.5,0.5,95,105.0
1042,E-3,139.0,0.5,95,105.0
1043,A2,139.0,27/500,95,105.0
1044,G#2,139.0,0.5,95,105.0
1045,D2,139.0,0.5,95,105.0
1046,G#3,139.5,0.5,95,105.0
1047,A2,139.5,27/500,95,105.0
1048,F#2,139.5,0.5,95,105.0
1049,F#2,139.5,0.5,95,105.0
1050,F#2,140.0,4.0,95,105.0
1051,F#1,140.0,0.5,95,105.0
1052,B1,140.0,0.5,95,105.0
1053,C#3,140.0,1.0,95,105.0
1054,F#2,140.0,1.0,95,105.0
1055,B-3,140.5,0.5,95,105.0
1056,C#2,140.5,0.5,95,105.0
1057,F#2,140.5,0.5,95,105.0
1058,F#3,141.0,0.5,95,105.0
1059,E2,141.0,27/500,95,105.0
1060,F#2,141.0,0.5,95,105.0
1061,D2,141.0,0.5,95,105.0
1062,C#3,141.5,0.5,95,105.0
1063,E2,141.5,27/500,95,105.0
1064,C#2,141.5,0.5,95,105.0
1065,B1,141.5,0.125,95,105.0
1066,G#2,141.625,0.125,95,105.0
1067,F#2,141.75,0.125,95,105.0
1068,B-2,141.875,0.375,95,105.0
1069,B3,142.0,0.5,95,105.0
1070,E2,142.0,27/500,95,105.0
1071,B-2,142.0,0.5,95,105.0
1072,G#2,142.25,0.25,95,105.0
1073,B-3,142.5,0.5,95,105.0
1074,G#2,142.5,0.5,95,105.0
1075,B1,142.5,0.5,95,105.0
1076,C#3,142.5,0.5,95,105.0
1077,F#2,142.5,0.5,95,105.0
1078,G#3,143.0,0.5,95,105.0
1079,E2,143.0,27/500,95,105.0
1080,F#2,143.0,0.5,95,105.0
1081,D2,143.0,0.5,95,105.0
1082,F#3,143.5,0.5,95,105.0
1083,E2,143.5,27/500,95,105.0
1084,G#2,143.5,0.5,95,105.0
1085,F#2,143.5,0.5,95,105.0
1086,E2,144.0,4.0,95,105.0
1087,C#2,144.0,0.5,95,105.0
1088,B1,144.0,0.5,95,105.0
1089,G#3,144.0,1.0,95,105.0
1090,C#3,144.0,1.0,95,105.0
1091,G#3,144.5,0.5,95,105.0
1092,G#2,144.5,0.5,95,105.0
1093,F#2,144.5,0.5,95,105.0
1094,B3,145.0,0.5,95,105.0
1095,E2,145.0,27/500,95,105.0
1096,C#3,145.0,0.5,95,105.0
1097,D2,145.0,0.5,95,105.0
1098,C#4,145.5,0.5,95,105.0
1099,E2,145.5,27/500,95,105.0
1100,G#2,145.5,0.5,95,105.0
1101,B1,145.5,0.125,95,105.0
1102,G#2,145.625,0.125,95,105.0
1103,F#2,145.75,0.125,95,105.0
1104,B-2,145.875,0.375,95,105.0
1105,E4,146.0,0.5,95,105.0
1106,E2,146.0,27/500,95,105.0
1107,E3,146.0,0.5,95,105.0
1108,G#2,146.25,0.25,95,105.0
1109,E-4,146.5,0.5,95,105.0
1110,E-3,146.5,0.5,95,105.0
1111,B1,146.5,0.5,95,105.0
1112,G#3,146.5,0.5,95,105.0
1113,C#3,146.5,0.5,95,105.0
1114,C#4,147.0,0.5,95,105.0
1115,E2,147.0,27/500,95,105.0
1116,C#3,147.0,0.5,95,105.0
1117,D2,147.0,0.5,95,105.0
1118,B3,147.5,0.5,95,105.0
1119,E2,147.5,27/500,95,105.0
1120,B2,147.5,0.5,95,105.0
1121,F#2,147.5,0.5,95,105.0
1122,B2,148.0,4.0,95,105.0
1123,B1,148.0,0.5,95,105.0
1124,B1,148.0,0.5,95,105.0
1125,B3,148.0,2.0,95,105.0
1126,F#3,148.0,2.0,95,105.0
1127,B2,148.0,2.0,95,105.0
1128,B3,148.5,0.5,95,105.0
1129,B1,148.5,0.5,95,105.0
1130,F#2,148.5,0.5,95,105.0
1131,B-3,149.0,0.5,95,105.0
1132,F#2,149.0,0.5,95,105.0
1133,D2,149.0,0.5,95,105.0
1134,G#3,149.5,0.5,95,105.0
1135,B1,149.5,0.5,95,105.0
1136,F#2,149.5,0.5,95,105.0
1137,B-3,150.0,0.5,95,105.0
1138,B-1,150.0,0.5,95,105.0
1139,D2,150.0,0.25,95,105.0
1140,B-3,150.0,2.0,95,105.0
1141,F3,150.0,2.0,95,105.0
1142,B-2,150.0,2.0,95,105.0
1143,D2,150.25,0.25,95,105.0
1144,B3,150.5,0.5,95,105.0
1145,B-1,150.5,0.5,95,105.0
1146,D3,150.5,0.25,95,105.0
1147,C3,150.75,0.25,95,105.0
1148,G#3,151.0,0.5,95,105.0
1149,F#2,151.0,0.5,95,105.0
1150,A2,151.0,0.25,95,105.0
1151,G2,151.25,0.25,95,105.0
1152,F#3,151.5,0.5,95,105.0
1153,B-1,151.5,0.5,95,105.0
1154,D2,151.5,0.25,95,105.0
1155,F2,151.75,0.25,95,105.0
1156,G#1,152.0,0.5,95,105.0
1157,G#3,152.0,0.5,95,105.0
1158,E-3,152.0,0.5,95,105.0
1159,G#2,152.0,0.5,95,105.0
1160,G#3,152.0,0.5,95,105.0
1161,E-3,152.0,0.5,95,105.0
1162,G#2,152.0,0.5,95,105.0
1163,A3,152.0,0.5,95,105.0
1164,C#3,152.0,0.5,95,105.0
1165,B1,152.0,0.5,95,105.0
1166,E-2,152.5,0.5,95,105.0
1167,G#3,152.5,0.5,95,105.0
1168,E-3,152.5,0.5,95,105.0
1169,G#2,152.5,0.5,95,105.0
1170,G#3,152.5,0.5,95,105.0
1171,E-3,152.5,0.5,95,105.0
1172,G#2,152.5,0.5,95,105.0
1173,A3,152.5,0.5,95,105.0
1174,C#3,152.5,0.5,95,105.0
1175,B1,152.5,0.5,95,105.0
1176,G#2,153.0,0.5,95,105.0
1177,G#3,153.0,0.5,95,105.0
1178,E-3,153.0,0.5,95,105.0
1179,G#2,153.0,0.5,95,105.0
1180,G#3,153.0,0.5,95,105.0
1181,E-3,153.0,0.5,95,105.0
1182,G#2,153.0,0.5,95,105.0
1183,A3,153.0,0.5,95,105.0
1184,C#3,153.0,0.5,95,105.0
1185,B1,153.0,0.5,95,105.0
1186,F#1,156.0,0.5,95,105.0
1187,F#3,156.0,0.5,95,105.0
1188,C#3,156.0,0.5,95,105.0
1189,F#2,156.0,0.5,95,105.0
1190,F#3,156.0,0.5,95,105.0
1191,C#3,156.0,0.5,95,105.0
1192,F#2,156.0,0.5,95,105.0
1193,A3,156.0,0.5,95,105.0
1194,C#3,156.0,0.5,95,105.0
1195,B1,156.0,0.5,95,105.0
1196,C#2,156.5,0.5,95,105.0
1197,F#3,156.5,0.5,95,105.0
1198,C#3,156.5,0.5,95,105.0
1199,F#2,156.5,0.5,95,105.0
1200,F#3,156.5,0.5,95,105.0
1201,C#3,156.5,0.5,95,105.0
1202,F#2,156.5,0.5,95,105.0
1203,A3,156.5,0.5,95,105.0
1204,C#3,156.5,0.5,95,105.0
1205,B1,156.5,0.5,95,105.0
1206,F#2,157.0,0.5,95,105.0
1207,F#3,157.0,0.5,95,105.0
1208,C#3,157.0,0.5,95,105.0
1209,F#2,157.0,0.5,95,105.0
1210,F#3,157.0,0.5,95,105.0
1211,C#3,157.0,0.5,95,105.0
1212,F#2,157.0,0.5,95,105.0
1213,A3,157.0,0.5,95,105.0
1214,C#3,157.0,0.5,95,105.0
1215,B1,157.0,0.5,95,105.0
1216,C#2,160.0,0.5,95,105.0
1217,C#4,160.0,4.0,95,105.0
1218,G#3,160.0,4.0,95,105.0
1219,C#3,160.0,4.0,95,105.0
1220,C#4,160.0,4.0,95,105.0
1221,G#3,160.0,4.0,95,105.0
1222,C#3,160.0,4.0,95,105.0
1223,A3,160.0,1.0,95,105.0
1224,C#3,160.0,1.0,95,105.0
1225,B1,160.0,1.0,95,105.0
1226,C#2,160.5,0.5,95,105.0
1227,C#2,161.0,0.5,95,105.0
1228,B-2,161.0,1.0,95,105.0
1229,C#2,161.5,0.5,95,105.0
1230,C#2,162.0,0.5,95,105.0
1231,B-2,162.0,1.0,95,105.0
1232,D2,162.0,1.0,95,105.0
1233,C#2,162.5,0.5,95,105.0
1234,C#2,163.0,0.5,95,105.0
1235,B-2,163.0,1.0,95,105.0
1236,C#2,163.5,0.5,95,105.0
1237,B1,164.0,0.5,95,105.0
1238,D2,164.0,0.25,95,105.0
1239,B3,164.0,2.0,95,105.0
1240,F#3,164.0,2.0,95,105.0
1241,B2,164.0,2.0,95,105.0
1242,B3,164.0,2.0,95,105.0
1243,F#3,164.0,2.0,95,105.0
1244,B2,164.0,2.0,95,105.0
1245,D2,164.25,0.25,95,105.0
1246,B1,164.5,0.5,95,105.0
1247,D2,164.5,0.25,95,105.0
1248,D2,164.75,0.25,95,105.0
1249,B1,165.0,0.5,95,105.0
1250,D3,165.0,0.25,95,105.0
1251,D3,165.25,0.25,95,105.0
1252,B1,165.5,0.5,95,105.0
1253,D3,165.5,0.25,95,105.0
1254,D3,165.75,0.25,95,105.0
1255,B-1,166.0,0.5,95,105.0
1256,C3,166.0,0.25,95,105.0
1257,B-3,166.0,2.0,95,105.0
1258,F3,166.0,2.0,95,105.0
1259,B-2,166.0,2.0,95,105.0
1260,B-3,166.0,2.0,95,105.0
1261,F3,166.0,2.0,95,105.0
1262,B-2,166.0,2.0,95,105.0
1263,C3,166.25,0.125,95,105.0
1264,C3,166.375,0.125,95,105.0
1265,B-1,166.5,0.5,95,105.0
1266,C3,166.5,0.25,95,105.0
1267,C3,166.75,0.25,95,105.0
1268,B-1,167.0,0.5,95,105.0
1269,A2,167.0,0.25,95,105.0
1270,A2,167.25,0.25,95,105.0
1271,B-1,167.5,0.5,95,105.0
1272,A2,167.5,0.25,95,105.0
1273,A2,167.75,0.25,95,105.0
1274,G#1,168.0,0.5,95,105.0
1275,G#3,168.0,0.5,95,105.0
1276,E-3,168.0,0.5,95,105.0
1277,G#2,168.0,0.5,95,105.0
1278,G#3,168.0,0.5,95,105.0
1279,E-3,168.0,0.5,95,105.0
1280,G#2,168.0,0.5,95,105.0
1281,A3,168.0,0.5,95,105.0
1282,C#3,168.0,0.5,95,105.0
1283,B1,168.0,0.5,95,105.0
1284,E-2,168.5,0.5,95,105.0
1285,G#3,168.5,0.5,95,105.0
1286,E-3,168.5,0.5,95,105.0
1287,G#2,168.5,0.5,95,105.0
1288,G#3,168.5,0.5,95,105.0
1289,E-3,168.5,0.5,95,105.0
1290,G#2,168.5,0.5,95,105.0
1291,A3,168.5,0.5,95,105.0
1292,C#3,168.5,0.5,95,105.0
1293,B1,168.5,0.5,95,105.0
1294,G#2,169.0,0.5,95,105.0
1295,G#3,169.0,0.5,95,105.0
1296,E-3,169.0,0.5,95,105.0
1297,G#2,169.0,0.5,95,105.0
1298,G#3,169.0,0.5,95,105.0
1299,E-3,169.0,0.5,95,105.0
1300,G#2,169.0,0.5,95,105.0
1301,A3,169.0,0.5,95,105.0
1302,C#3,169.0,0.5,95,105.0
1303,B1,169.0,0.5,95,105.0
1304,F#1,172.0,0.5,95,105.0
1305,F#3,172.0,0.5,95,105.0
1306,C#3,172.0,0.5,95,105.0
1307,F#2,172.0,0.5,95,105.0
1308,F#3,172.0,0.5,95,105.0
1309,C#3,172.0,0.5,95,105.0
1310,F#2,172.0,0.5,95,105.0
1311,A3,172.0,0.5,95,105.0
1312,C#3,172.0,0.5,95,105.0
1313,B1,172.0,0.5,95,105.0
1314,C#2,172.5,0.5,95,105.0
1315,F#3,172.5,0.5,95,105.0
1316,C#3,172.5,0.5,95,105.0
1317,F#2,172.5,0.5,95,105.0
1318,F#3,172.5,0.5,95,105.0
1319,C#3,172.5,0.5,95,105.0
1320,F#2,172.5,0.5,95,105.0
1321,A3,172.5,0.5,95,105.0
1322,C#3,172.5,0.5,95,105.0
1323,B1,172.5,0.5,95,105.0
1324,F#2,173.0,0.5,95,105.0
1325,F#3,173.0,0.5,95,105.0
1326,C#3,173.0,0.5,95,105.0
1327,F#2,173.0,0.5,95,105.0
1328,F#3,173.0,0.5,95,105.0
1329,C#3,173.0,0.5,95,105.0
1330,F#2,173.0,0.5,95,105.0
1331,A3,173.0,0.5,95,105.0
1332,C#3,173.0,0.5,95,105.0
1333,B1,173.0,0.5,95,105.0
1334,F#4,176.0,1.5,95,105.0
1335,G#2,176.0,4.0,95,105.0
1336,G#1,176.0,0.5,95,105.0
1337,C#3,176.0,0.5,95,105.0
1338,A3,176.0,0.5,95,105.0
1339,B1,176.0,0.5,95,105.0
1340,E-2,176.5,0.5,95,105.0
1341,F#2,176.5,0.5,95,105.0
1342,E-3,177.0,3.0,95,105.0
1343,G#2,177.0,0.5,95,105.0
1344,D2,177.0,0.5,95,105.0
1345,F#4,177.5,1.5,95,105.0
1346,E-2,177.5,0.5,95,105.0
1347,B1,177.5,0.125,95,105.0
1348,G#2,177.625,0.125,95,105.0
1349,F#2,177.75,0.125,95,105.0
1350,B-2,177.875,0.375,95,105.0
1351,G#3,178.0,2.0,95,105.0
1352,B2,178.0,0.5,95,105.0
1353,G#2,178.25,0.25,95,105.0
1354,B-2,178.5,0.5,95,105.0
1355,B1,178.5,0.5,95,105.0
1356,F#4,179.0,0.5,95,105.0
1357,G#2,179.0,0.5,95,105.0
1358,D2,179.0,0.5,95,105.0
1359,E-4,179.5,0.5,95,105.0
1360,F#2,179.5,0.5,95,105.0
1361,F#2,179.5,0.5,95,105.0
1362,C#4,180.0,1.0,95,105.0
1363,F#2,180.0,4.0,95,105.0
1364,F#1,180.0,0.5,95,105.0
1365,B1,180.0,0.5,95,105.0
1366,C#2,180.5,0.5,95,105.0
1367,F#2,180.5,0.5,95,105.0
1368,C#4,181.0,0.75,95,105.0
1369,C#3,181.0,3.0,95,105.0
1370,F#2,181.0,0.5,95,105.0
1371,D2,181.0,0.5,95,105.0
1372,C#2,181.5,0.5,95,105.0
1373,B1,181.5,0.125,95,105.0
1374,G#2,181.625,0.125,95,105.0
1375,B3,181.75,0.25,95,105.0
1376,F#2,181.75,0.125,95,105.0
1377,B-2,181.875,0.375,95,105.0
1378,C#4,182.0,0.75,95,105.0
1379,F#3,182.0,2.0,95,105.0
1380,B-2,182.0,0.5,95,105.0
1381,G#2,182.25,0.25,95,105.0
1382,G#2,182.5,0.5,95,105.0
1383,B1,182.5,0.5,95,105.0
1384,B3,182.75,0.25,95,105.0
1385,G#3,183.0,0.5,95,105.0
1386,F#2,183.0,0.5,95,105.0
1387,D2,183.0,0.5,95,105.0
1388,B3,183.5,0.5,95,105.0
1389,G#2,183.5,0.5,95,105.0
1390,F#2,183.5,0.5,95,105.0
1391,F#4,184.0,1.0,95,105.0
1392,C#3,184.0,4.0,95,105.0
1393,C#2,184.0,0.5,95,105.0
1394,B1,184.0,0.5,95,105.0
1395,G#2,184.5,0.5,95,105.0
1396,F#2,184.5,0.5,95,105.0
1397,F#4,185.0,1.0,95,105.0
1398,G#3,185.0,3.0,95,105.0
1399,C#3,185.0,0.5,95,105.0
1400,D2,185.0,0.5,95,105.0
1401,G#2,185.5,0.5,95,105.0
1402,B1,185.5,0.125,95,105.0
1403,G#2,185.625,0.125,95,105.0
1404,F#2,185.75,0.125,95,105.0
1405,B-2,185.875,0.375,95,105.0
1406,F#4,186.0,1.0,95,105.0
1407,C#4,186.0,2.0,95,105.0
1408,E3,186.0,0.5,95,105.0
1409,G#2,186.25,0.25,95,105.0
1410,E-3,186.5,0.5,95,105.0
1411,B1,186.5,0.5,95,105.0
1412,F#4,187.0,1.0,95,105.0
1413,C#3,187.0,0.5,95,105.0
1414,D2,187.0,0.5,95,105.0
1415,B2,187.5,0.5,95,105.0
1416,F#2,187.5,0.5,95,105.0
1417,F#4,188.0,1.0,95,105.0
1418,B2,188.0,1.0,95,105.0
1419,B1,188.0,0.5,95,105.0
1420,B1,188.0,0.5,95,105.0
1421,B1,188.5,0.5,95,105.0
1422,F#2,188.5,0.5,95,105.0
1423,F#4,189.0,0.5,95,105.0
1424,F#2,189.0,0.5,95,105.0
1425,D2,189.0,0.5,95,105.0
1426,B3,189.0,1.0,95,105.0
1427,F#3,189.0,1.0,95,105.0
1428,B4,189.5,1.0,95,105.0
1429,B1,189.5,0.5,95,105.0
1430,B1,189.5,0.125,95,105.0
1431,G#2,189.625,0.125,95,105.0
1432,F#2,189.75,0.125,95,105.0
1433,B-2,189.875,0.375,95,105.0
1434,B-2,190.0,1.0,95,105.0
1435,B-1,190.0,0.5,95,105.0
1436,G#2,190.25,0.25,95,105.0
1437,B4,190.5,0.5,95,105.0
1438,B-1,190.5,0.5,95,105.0
1439,B1,190.5,0.5,95,105.0
1440,C#5,191.0,0.5,95,105.0
1441,B-3,191.0,1.0,95,105.0
1442,F3,191.0,1.0,95,105.0
1443,F#2,191.0,0.5,95,105.0
1444,D2,191.0,0.5,95,105.0
1445,B4,191.5,0.5,95,105.0
1446,B-1,191.5,0.5,95,105.0
1447,F#2,191.5,0.5,95,105.0
1448,C#5,192.0,1.0,95,105.0
1449,G#2,192.0,4.0,95,105.0
1450,B-3,192.0,8.0,95,105.0
1451,G#1,192.0,0.5,95,105.0
1452,C#3,192.0,0.5,95,105.0
1453,A3,192.0,0.5,95,105.0
1454,B1,192.0,0.5,95,105.0
1455,E-2,192.5,0.5,95,105.0
1456,F#2,192.5,0.5,95,105.0
1457,C#5,193.0,0.5,95,105.0
1458,E-3,193.0,3.0,95,105.0
1459,G#2,193.0,0.5,95,105.0
1460,D2,193.0,0.5,95,105.0
1461,C#5,193.5,0.5,95,105.0
1462,E-2,193.5,0.5,95,105.0
1463,B1,193.5,0.125,95,105.0
1464,G#2,193.625,0.125,95,105.0
1465,F#2,193.75,0.125,95,105.0
1466,B-2,193.875,0.375,95,105.0
1467,C#5,194.0,0.5,95,105.0
1468,G#3,194.0,2.0,95,105.0
1469,B2,194.0,0.5,95,105.0
1470,G#2,194.25,0.25,95,105.0
1471,B4,194.5,0.5,95,105.0
1472,B-2,194.5,0.5,95,105.0
1473,B1,194.5,0.5,95,105.0
1474,B-4,195.0,0.5,95,105.0
1475,G#2,195.0,0.5,95,105.0
1476,D2,195.0,0.5,95,105.0
1477,B-4,195.5,0.125,95,105.0
1478,F#2,195.5,0.5,95,105.0
1479,F#2,195.5,0.5,95,105.0
1480,B4,195.625,0.125,70,105.0
1481,B-4,195.75,0.25,70,105.0
1482,G#4,196.0,1.0,95,105.0
1483,F#1,196.0,0.5,95,105.0
1484,B1,196.0,0.5,95,105.0
1485,C#2,196.5,0.5,95,105.0
1486,F#2,196.5,0.5,95,105.0
1487,F#4,197.0,2.0,95,105.0
1488,F#2,197.0,0.5,95,105.0
1489,D2,197.0,0.5,95,105.0
1490,C#2,197.5,0.5,95,105.0
1491,B1,197.5,0.125,95,105.0
1492,G#2,197.625,0.125,95,105.0
1493,F#2,197.75,0.125,95,105.0
1494,B-2,197.875,0.375,95,105.0
1495,B-2,198.0,0.5,95,105.0
1496,G#2,198.25,0.25,95,105.0
1497,G#2,198.5,0.5,95,105.0
1498,B1,198.5,0.5,95,105.0
1499,F#4,199.0,1.0,95,105.0
1500,F#2,199.0,0.5,95,105.0
1501,D2,199.0,0.5,95,105.0
1502,G#2,199.5,0.5,95,105.0
1503,F#2,199.5,0.5,95,105.0
1504,F#4,200.0,0.75,95,105.0
1505,F#2,200.0,4.0,95,105.0
1506,C#2,200.0,0.5,95,105.0
1507,B1,200.0,0.5,95,105.0
1508,G#2,200.5,0.5,95,105.0
1509,F#2,200.5,0.5,95,105.0
1510,E-4,200.75,0.25,95,105.0
1511,C#4,201.0,0.75,95,105.0
1512,C#3,201.0,3.0,95,105.0
1513,C#3,201.0,0.5,95,105.0
1514,D2,201.0,0.5,95,105.0
1515,G#2,201.5,0.5,95,105.0
1516,B1,201.5,0.125,95,105.0
1517,G#2,201.625,0.125,95,105.0
1518,B3,201.75,0.25,95,105.0
1519,F#2,201.75,0.125,95,105.0
1520,B-2,201.875,0.375,95,105.0
1521,C#4,202.0,0.75,95,105.0
1522,F#3,202.0,2.0,95,105.0
1523,E3,202.0,0.5,95,105.0
1524,G#2,202.25,0.25,95,105.0
1525,E-3,202.5,0.5,95,105.0
1526,B1,202.5,0.5,95,105.0
1527,B3,202.75,0.25,95,105.0
1528,G#3,203.0,0.5,95,105.0
1529,C#3,203.0,0.5,95,105.0
1530,D2,203.0,0.5,95,105.0
1531,B3,203.5,0.25,95,105.0
1532,B2,203.5,0.5,95,105.0
1533,F#2,203.5,0.5,95,105.0
1534,G#3,203.75,0.25,95,105.0
1535,G#3,204.0,0.75,95,105.0
1536,C#3,204.0,4.0,95,105.0
1537,B1,204.0,0.5,95,105.0
1538,B1,204.0,0.5,95,105.0
1539,B1,204.5,0.5,95,105.0
1540,F#2,204.5,0.5,95,105.0
1541,B3,204.75,0.25,95,105.0
1542,C#4,205.0,0.25,95,105.0
1543,G#3,205.0,3.0,95,105.0
1544,F#2,205.0,0.5,95,105.0
1545,D2,205.0,0.5,95,105.0
1546,D4,205.25,0.25,95,105.0
1547,E-4,205.5,0.25,95,105.0
1548,B1,205.5,0.5,95,105.0
1549,B1,205.5,0.125,95,105.0
1550,G#2,205.625,0.125,95,105.0
1551,F#4,205.75,0.25,95,105.0
1552,F#2,205.75,0.125,95,105.0
1553,B-2,205.875,0.375,95,105.0
1554,G#4,206.0,0.25,95,105.0
1555,C#4,206.0,2.0,95,105.0
1556,B-1,206.0,0.5,95,105.0
1557,E-4,206.25,0.25,95,105.0
1558,G#2,206.25,0.25,95,105.0
1559,F#4,206.5,0.25,70,105.0
1560,B-1,206.5,0.5,95,105.0
1561,B1,206.5,0.5,95,105.0
1562,F#4,206.75,1.25,95,105.0
1563,F#2,207.0,0.5,95,105.0
1564,D2,207.0,0.5,95,105.0
1565,B-1,207.5,0.5,95,105.0
1566,F#2,207.5,0.5,95,105.0
1567,B2,208.0,1.0,95,105.0
1568,G#1,208.0,0.5,95,105.0
1569,E-4,208.0,1.0,95,105.0
1570,C#4,208.0,1.0,95,105.0
1571,C#3,208.0,0.5,95,105.0
1572,A3,208.0,0.5,95,105.0
1573,B1,208.0,0.5,95,105.0
1574,E-2,208.5,0.5,95,105.0
1575,F#2,208.5,0.5,95,105.0
1576,G#2,209.0,0.5,95,105.0
1577,D2,209.0,0.5,95,105.0
1578,E-4,209.0,1.0,95,105.0
1579,C#4,209.0,1.0,95,105.0
1580,B3,209.0,1.0,95,105.0
1581,F#3,209.0,1.0,95,105.0
1582,E-2,209.5,0.5,95,105.0
1583,B1,209.5,0.125,95,105.0
1584,G#2,209.625,0.125,95,105.0
1585,F#2,209.75,0.125,95,105.0
1586,B-2,209.875,0.375,95,105.0
1587,B-2,210.0,1.0,95,105.0
1588,B2,210.0,0.5,95,105.0
1589,E-4,210.0,1.0,95,105.0
1590,C#4,210.0,1.0,95,105.0
1591,G#2,210.25,0.25,95,105.0
1592,B-2,210.5,0.5,95,105.0
1593,B1,210.5,0.5,95,105.0
1594,B3,211.0,0.5,95,105.0
1595,B-3,211.0,1.0,95,105.0
1596,F3,211.0,1.0,95,105.0
1597,G#2,211.0,0.5,95,105.0
1598,D2,211.0,0.5,95,105.0
1599,C#4,211.5,0.5,95,105.0
1600,F#2,211.5,0.5,95,105.0
1601,F#2,211.5,0.5,95,105.0
1602,C#4,212.0,1.0,95,105.0
1603,G#2,212.0,4.0,95,105.0
1604,B-3,212.0,8.0,95,105.0
1605,F#1,212.0,0.5,95,105.0
1606,B1,212.0,0.5,95,105.0
1607,C#2,212.5,0.5,95,105.0
1608,F#2,212.5,0.5,95,105.0
1609,C#4,213.0,0.5,95,105.0
1610,E-3,213.0,3.0,95,105.0
1611,F#2,213.0,0.5,95,105.0
1612,D2,213.0,0.5,95,105.0
1613,B3,213.5,0.5,95,105.0
1614,C#2,213.5,0.5,95,105.0
1615,B1,213.5,0.125,95,105.0
1616,G#2,213.625,0.125,95,105.0
1617,F#2,213.75,0.125,95,105.0
1618,B-2,213.875,0.375,95,105.0
1619,C#4,214.0,0.5,95,105.0
1620,G#3,214.0,2.0,95,105.0
1621,B-2,214.0,0.5,95,105.0
1622,G#2,214.25,0.25,95,105.0
1623,B3,214.5,0.5,95,105.0
1624,G#2,214.5,0.5,95,105.0
1625,B1,214.5,0.5,95,105.0
1626,B-3,215.0,0.5,95,105.0
1627,F#2,215.0,0.5,95,105.0
1628,D2,215.0,0.5,95,105.0
1629,B3,215.5,0.5,95,105.0
1630,G#2,215.5,0.5,95,105.0
1631,F#2,215.5,0.5,95,105.0
1632,C#2,216.0,0.5,95,105.0
1633,B1,216.0,0.5,95,105.0
1634,G#4,216.0,1.0,95,105.0
1635,F#4,216.0,1.0,95,105.0
1636,G#2,216.5,0.5,95,105.0
1637,F#2,216.5,0.5,95,105.0
1638,C#3,217.0,0.5,95,105.0
1639,D2,217.0,0.5,95,105.0
1640,G#4,217.0,1.0,95,105.0
1641,F#4,217.0,1.0,95,105.0
1642,G#2,217.5,0.5,95,105.0
1643,B1,217.5,0.125,95,105.0
1644,G#2,217.625,0.125,95,105.0
1645,F#2,217.75,0.125,95,105.0
1646,B-2,217.875,0.375,95,105.0
1647,E3,218.0,0.5,95,105.0
1648,G#4,218.0,1.0,95,105.0
1649,F#4,218.0,1.0,95,105.0
1650,G#2,218.25,0.25,95,105.0
1651,E-3,218.5,0.5,95,105.0
1652,B1,218.5,0.5,95,105.0
1653,C#3,219.0,0.5,95,105.0
1654,D2,219.0,0.5,95,105.0
1655,G#4,219.0,1.0,95,105.0
1656,F#4,219.0,1.0,95,105.0
1657,B2,219.5,0.5,95,105.0
1658,F#2,219.5,0.5,95,105.0
1659,G#4,220.0,0.25,95,105.0
1660,F#2,220.0,4.0,95,105.0
1661,B1,220.0,0.5,95,105.0
1662,B1,220.0,0.5,95,105.0
1663,F#4,220.25,0.25,95,105.0
1664,E-4,220.5,0.25,95,105.0
1665,B1,220.5,0.5,95,105.0
1666,F#2,220.5,0.5,95,105.0
1667,D4,220.75,0.25,95,105.0
1668,C#4,221.0,0.25,95,105.0
1669,C#3,221.0,3.0,95,105.0
1670,F#2,221.0,0.5,95,105.0
1671,D2,221.0,0.5,95,105.0
1672,B3,221.25,0.25,95,105.0
1673,G#3,221.5,0.25,95,105.0
1674,B1,221.5,0.5,95,105.0
1675,F#2,221.5,0.5,95,105.0
1676,F#3,221.75,0.25,95,105.0
1677,C#4,222.0,0.25,95,105.0
1678,F#3,222.0,2.0,95,105.0
1679,B-1,222.0,0.5,95,105.0
1680,D2,222.0,0.25,95,105.0
1681,B3,222.25,0.25,95,105.0
1682,D2,222.25,0.25,95,105.0
1683,G#3,222.5,0.25,95,105.0
1684,B-1,222.5,0.5,95,105.0
1685,D3,222.5,0.25,95,105.0
1686,F#3,222.75,0.25,95,105.0
1687,C3,222.75,0.25,95,105.0
1688,E-3,223.0,0.25,95,105.0
1689,F#2,223.0,0.5,95,105.0
1690,A2,223.0,0.25,95,105.0
1691,D3,223.25,0.25,95,105.0
1692,G2,223.25,0.25,95,105.0
1693,C#3,223.5,0.25,95,105.0
1694,B-1,223.5,0.5,95,105.0
1695,D2,223.5,0.25,95,105.0
1696,B2,223.75,0.25,95,105.0
1697,F2,223.75,0.25,95,105.0
1698,C#3,224.0,4.0,95,105.0
1699,G#1,224.0,0.5,95,105.0
1700,G#3,224.0,0.5,95,105.0
1701,E-3,224.0,0.5,95,105.0
1702,G#2,224.0,0.5,95,105.0
1703,A3,224.0,0.5,95,105.0
1704,C#3,224.0,0.5,95,105.0
1705,B1,224.0,0.5,95,105.0
1706,E-2,224.5,0.5,95,105.0
1707,G#3,224.5,0.5,95,105.0
1708,E-3,224.5,0.5,95,105.0
1709,G#2,224.5,0.5,95,105.0
1710,A3,224.5,0.5,95,105.0
1711,C#3,224.5,0.5,95,105.0
1712,B1,224.5,0.5,95,105.0
1713,G#3,225.0,3.0,95,105.0
1714,G#2,225.0,0.5,95,105.0
1715,G#3,225.0,0.5,95,105.0
1716,E-3,225.0,0.5,95,105.0
1717,G#2,225.0,0.5,95,105.0
1718,A3,225.0,0.5,95,105.0
1719,C#3,225.0,0.5,95,105.0
1720,B1,225.0,0.5,95,105.0
1721,C#4,226.0,2.0,95,105.0
1722,B2,228.0,1.0,95,105.0
1723,F#1,228.0,0.5,95,105.0
1724,F#3,228.0,0.5,95,105.0
1725,C#3,228.0,0.5,95,105.0
1726,F#2,228.0,0.5,95,105.0
1727,A3,228.0,0.5,95,105.0
1728,C#3,228.0,0.5,95,105.0
1729,B1,228.0,0.5,95,105.0
1730,C#2,228.5,0.5,95,105.0
1731,F#3,228.5,0.5,95,105.0
1732,C#3,228.5,0.5,95,105.0
1733,F#2,228.5,0.5,95,105.0
1734,A3,228.5,0.5,95,105.0
1735,C#3,228.5,0.5,95,105.0
1736,B1,228.5,0.5,95,105.0
1737,F#2,229.0,0.5,95,105.0
1738,F#3,229.0,0.5,95,105.0
1739,C#3,229.0,0.5,95,105.0
1740,F#2,229.0,0.5,95,105.0
1741,B3,229.0,1.0,95,105.0
1742,F#3,229.0,1.0,95,105.0
1743,A3,229.0,0.5,95,105.0
1744,C#3,229.0,0.5,95,105.0
1745,B1,229.0,0.5,95,105.0
1746,B-2,230.0,1.0,95,105.0
1747,B-3,231.0,1.0,95,105.0
1748,F3,231.0,1.0,95,105.0
1749,C#2,232.0,0.5,95,105.0
1750,C#4,232.0,4.0,95,105.0
1751,G#3,232.0,4.0,95,105.0
1752,C#3,232.0,4.0,95,105.0
1753,A3,232.0,1.0,95,105.0
1754,C#3,232.0,1.0,95,105.0
1755,B1,232.0,1.0,95,105.0
1756,C#2,232.5,0.5,95,105.0
1757,C#2,233.0,0.5,95,105.0
1758,B-2,233.0,1.0,95,105.0
1759,C#2,233.5,0.5,95,105.0
1760,C#2,234.0,0.5,95,105.0
1761,B-2,234.0,1.0,95,105.0
1762,D2,234.0,1.0,95,105.0
1763,C#2,234.5,0.5,95,105.0
1764,C#2,235.0,0.5,95,105.0
1765,B-2,235.0,1.0,95,105.0
1766,C#2,235.5,0.5,95,105.0
1767,B1,236.0,0.5,95,105.0
1768,D2,236.0,0.25,95,105.0
1769,B3,236.0,2.0,95,105.0
1770,F#3,236.0,2.0,95,105.0
1771,B2,236.0,2.0,95,105.0
1772,D2,236.25,0.25,95,105.0
1773,B1,236.5,0.5,95,105.0
1774,D2,236.5,0.25,95,105.0
1775,D2,236.75,0.25,95,105.0
1776,B1,237.0,0.5,95,105.0
1777,D3,237.0,0.25,95,105.0
1778,D3,237.25,0.25,95,105.0
1779,B1,237.5,0.5,95,105.0
1780,D3,237.5,0.25,95,105.0
1781,D3,237.75,0.25,95,105.0
1782,B-1,238.0,0.5,95,105.0
1783,C3,238.0,0.25,95,105.0
1784,B-3,238.0,2.0,95,105.0
1785,F3,238.0,2.0,95,105.0
1786,B-2,238.0,2.0,95,105.0
1787,C3,238.25,0.125,95,105.0
1788,C3,238.375,0.125,95,105.0
1789,B-1,238.5,0.5,95,105.0
1790,C3,238.5,0.25,95,105.0
1791,C3,238.75,0.25,95,105.0
1792,B-1,239.0,0.5,95,105.0
1793,A2,239.0,0.25,95,105.0
1794,A2,239.25,0.25,95,105.0
1795,B-1,239.5,0.5,95,105.0
1796,A2,239.5,0.25,95,105.0
1797,A2,239.75,0.25,95,105.0
1798,G#1,240.0,0.5,95,105.0
1799,G#3,240.0,0.5,95,105.0
1800,E-3,240.0,0.5,95,105.0
1801,G#2,240.0,0.5,95,105.0
1802,A3,240.0,0.5,95,105.0
1803,C#3,240.0,0.5,95,105.0
1804,B1,240.0,0.5,95,105.0
1805,E-2,240.5,0.5,95,105.0
1806,G#3,240.5,0.5,95,105.0
1807,E-3,240.5,0.5,95,105.0
1808,G#2,240.5,0.5,95,105.0
1809,A3,240.5,0.5,95,105.0
1810,C#3,240.5,0.5,95,105.0
1811,B1,240.5,0.5,95,105.0
1812,G#2,241.0,0.5,95,105.0
1813,G#3,241.0,0.5,95,105.0
1814,E-3,241.0,0.5,95,105.0
1815,G#2,241.0,0.5,95,105.0
1816,A3,241.0,0.5,95,105.0
1817,C#3,241.0,0.5,95,105.0
1818,B1,241.0,0.5,95,105.0
1819,D2,241.5,0.25,95,105.0
1820,D2,241.75,0.25,95,105.0
1821,D2,242.0,0.25,95,105.0
1822,D2,242.0,0.25,95,105.0
1823,D2,242.25,0.25,95,105.0
1824,D2,242.5,0.25,95,105.0
1825,D2,242.75,0.25,95,105.0
1826,D2,242.75,0.25,95,105.0
1827,D2,243.0,0.25,95,105.0
1828,D2,243.25,0.25,95,105.0
1829,D2,243.5,0.25,95,105.0
1830,D2,243.5,0.25,95,105.0
1831,D2,243.75,0.25,95,105.0
1832,F#1,244.0,0.5,95,105.0
1833,F#3,244.0,0.5,95,105.0
1834,C#3,244.0,0.5,95,105.0
1835,F#2,244.0,0.5,95,105.0
1836,A3,244.0,0.5,95,105.0
1837,C#3,244.0,0.5,95,105.0
1838,B1,244.0,0.5,95,105.0
1839,C#2,244.5,0.5,95,105.0
1840,F#3,244.5,0.5,95,105.0
1841,C#3,244.5,0.5,95,105.0
1842,F#2,244.5,0.5,95,105.0
1843,A3,244.5,0.5,95,105.0
1844,C#3,244.5,0.5,95,105.0
1845,B1,244.5,0.5,95,105.0
1846,F#2,245.0,0.5,95,105.0
1847,F#3,245.0,0.5,95,105.0
1848,C#3,245.0,0.5,95,105.0
1849,F#2,245.0,0.5,95,105.0
1850,A3,245.0,0.5,95,105.0
1851,C#3,245.0,0.5,95,105.0
1852,B1,245.0,0.5,95,105.0
1853,D2,245.5,0.25,95,105.0
1854,D2,245.75,0.25,95,105.0
1855,D2,246.0,0.25,95,105.0
1856,D2,246.0,0.25,95,105.0
1857,D2,246.25,0.25,95,105.0
1858,D2,246.5,0.25,95,105.0
1859,D2,246.75,0.25,95,105.0
1860,D2,246.75,0.25,95,105.0
1861,D2,247.0,0.25,95,105.0
1862,D2,247.25,0.25,95,105.0
1863,D2,247.5,0.25,95,105.0
1864,D2,247.5,0.25,95,105.0
1865,D2,247.75,0.25,95,105.0
1866,C#2,248.0,0.5,95,105.0
1867,C#4,248.0,4.0,95,105.0
1868,G#3,248.0,4.0,95,105.0
1869,C#3,248.0,4.0,95,105.0
1870,A3,248.0,1.0,95,105.0
1871,C#3,248.0,1.0,95,105.0
1872,B1,248.0,1.0,95,105.0
1873,C#2,248.5,0.5,95,105.0
1874,C#2,249.0,0.5,95,105.0
1875,B-2,249.0,1.0,95,105.0
1876,C#2,249.5,0.5,95,105.0
1877,C#2,250.0,0.5,95,105.0
1878,B-2,250.0,1.0,95,105.0
1879,D2,250.0,1.0,95,105.0
1880,C#2,250.5,0.5,95,105.0
1881,C#2,251.0,0.5,95,105.0
1882,B-2,251.0,1.0,95,105.0
1883,C#2,251.5,0.5,95,105.0
1884,B1,252.0,0.5,95,105.0
1885,D2,252.0,0.25,95,105.0
1886,B3,252.0,2.0,95,105.0
1887,F#3,252.0,2.0,95,105.0
1888,B2,252.0,2.0,95,105.0
1889,D2,252.25,0.25,95,105.0
1890,B1,252.5,0.5,95,105.0
1891,D2,252.5,0.25,95,105.0
1892,D2,252.75,0.25,95,105.0
1893,B1,253.0,0.5,95,105.0
1894,D3,253.0,0.25,95,105.0
1895,D3,253.25,0.25,95,105.0
1896,B1,253.5,0.5,95,105.0
1897,D3,253.5,0.25,95,105.0
1898,D3,253.75,0.25,95,105.0
1899,B-1,254.0,0.5,95,105.0
1900,C3,254.0,0.25,95,105.0
1901,B-3,254.0,2.0,95,105.0
1902,F3,254.0,2.0,95,105.0
1903,B-2,254.0,2.0,95,105.0
1904,C3,254.25,0.125,95,105.0
1905,C3,254.375,0.125,95,105.0
1906,B-1,254.5,0.5,95,105.0
1907,C3,254.5,0.25,95,105.0
1908,C3,254.75,0.25,95,105.0
1909,B-1,255.0,0.5,95,105.0
1910,A2,255.0,0.25,95,105.0
1911,A2,255.25,0.25,95,105.0
1912,B-1,255.5,0.5,95,105.0
1913,A2,255.5,0.25,95,105.0
1914,A2,255.75,0.25,95,105.0
1915,G#1,256.0,0.5,95,105.0
1916,G#3,256.0,0.5,95,105.0
1917,E-3,256.0,0.5,95,105.0
1918,G#2,256.0,0.5,95,105.0
1919,A3,256.0,0.5,95,105.0
1920,C#3,256.0,0.5,95,105.0
1921,B1,256.0,0.5,95,105.0
1922,E-2,256.5,0.5,95,105.0
1923,G#3,256.5,0.5,95,105.0
1924,E-3,256.5,0.5,95,105.0
1925,G#2,256.5,0.5,95,105.0
1926,A3,256.5,0.5,95,105.0
1927,C#3,256.5,0.5,95,105.0
1928,B1,256.5,0.5,95,105.0
1929,G#2,257.0,0.5,95,105.0
1930,G#3,257.0,0.5,95,105.0
1931,E-3,257.0,0.5,95,105.0
1932,G#2,257.0,0.5,95,105.0
1933,A3,257.0,0.5,95,105.0
1934,C#3,257.0,0.5,95,105.0
1935,B1,257.0,0.5,95,105.0
