,note_name,start_time,duration,velocity,tempo
0,G#3,4.0,0.25,100,123.0
1,G#3,4.75,0.25,100,123.0
2,C#2,5.0,0.25,127,123.0
3,G#3,6.0,0.25,100,123.0
4,G#3,6.75,0.25,100,123.0
5,C#2,7.0,0.25,127,123.0
6,G#3,8.25,0.25,100,123.0
7,G#3,8.75,0.25,100,123.0
8,C#2,9.0,0.25,127,123.0
9,G#3,10.0,0.25,100,123.0
10,G#3,10.75,0.25,100,123.0
11,C#2,11.0,0.25,127,123.0
12,G#3,11.25,0.25,100,123.0
13,G#3,12.0,0.25,100,123.0
14,G#3,12.75,0.25,100,123.0
15,F#2,13.0,1.0,80,123.0
16,B1,13.5,0.25,127,123.0
17,B1,13.75,0.25,127,123.0
18,G#3,14.0,0.25,100,123.0
19,F#2,14.0,1.0,80,123.0
20,G#3,14.5,0.25,100,123.0
21,C#2,15.0,0.25,127,123.0
22,F#2,15.0,1.0,80,123.0
23,G#3,15.25,0.25,100,123.0
24,G#3,15.75,0.25,100,123.0
25,F#2,16.0,1.0,80,123.0
26,B1,16.75,0.25,127,123.0
27,F#2,17.0,1.0,80,123.0
28,B2,17.0,0.25,127,123.0
29,F2,17.0,0.25,127,123.0
30,B2,17.75,0.25,127,123.0
31,F2,17.75,0.25,127,123.0
32,F#2,18.0,1.0,80,123.0
33,B1,18.75,0.25,127,123.0
34,G3,19.0,0.25,127,123.0
35,F#2,19.0,1.0,80,123.0
36,C#2,19.5,0.25,127,123.0
37,G#3,20.0,0.25,100,123.0
38,F#2,20.0,1.0,85,123.0
39,G#3,20.75,0.25,100,123.0
40,C#2,21.0,0.25,127,123.0
41,F#2,21.0,1.0,85,123.0
42,G#3,22.0,0.25,100,123.0
43,F#2,22.0,1.0,85,123.0
44,C#2,23.0,0.25,127,123.0
45,F#2,23.0,1.0,85,123.0
46,G#3,23.25,0.25,100,123.0
47,C#2,23.75,0.25,127,123.0
48,F#2,24.0,1.0,85,123.0
49,G#3,24.75,0.25,100,123.0
50,F#2,25.0,1.0,85,123.0
51,C#2,25.0,0.25,114,123.0
52,G#3,25.0,0.25,114,123.0
53,G#3,26.0,0.25,100,123.0
54,F#2,26.0,1.0,85,123.0
55,C#2,27.0,0.25,127,123.0
56,F#2,27.0,1.0,85,123.0
57,G#3,27.25,0.25,100,123.0
58,C#2,27.75,0.25,127,123.0
59,F#2,28.0,1.0,85,123.0
60,G#3,28.75,0.25,100,123.0
61,F#2,29.0,1.0,85,123.0
62,C#2,29.0,0.25,114,123.0
63,G#3,29.0,0.25,114,123.0
64,B1,29.5,0.25,127,123.0
65,G#3,30.0,0.25,100,123.0
66,F#2,30.0,1.0,85,123.0
67,C#2,31.0,0.25,127,123.0
68,F#2,31.0,1.0,85,123.0
69,G#3,31.25,0.25,100,123.0
70,G#3,31.75,0.25,114,123.0
71,C#2,31.75,0.25,114,123.0
72,F#2,32.0,1.0,85,123.0
73,B1,32.75,0.25,127,123.0
74,F#2,33.0,1.0,85,123.0
75,G#3,33.0,0.25,114,123.0
76,C#2,33.0,0.25,114,123.0
77,B1,33.5,0.25,127,123.0
78,C#2,33.75,0.25,127,123.0
79,G#3,34.0,0.25,100,123.0
80,F#2,34.0,1.0,85,123.0
81,G#3,34.5,0.25,100,123.0
82,F#2,35.0,1.0,85,123.0
83,G#3,35.0,0.25,114,123.0
84,C#2,35.0,0.25,114,123.0
85,G#3,35.25,0.25,100,123.0
86,G#3,35.75,0.25,114,123.0
87,C#2,35.75,0.25,114,123.0
88,F#2,36.0,1.0,85,123.0
89,G#3,36.75,0.25,100,123.0
90,F#2,37.0,1.0,85,123.0
91,C#2,37.0,0.25,114,123.0
92,G#3,37.0,0.25,114,123.0
93,B1,37.5,0.25,127,123.0
94,G#3,38.0,0.25,100,123.0
95,F#2,38.0,1.0,85,123.0
96,F#2,39.0,1.0,85,123.0
97,G#3,39.0,0.25,114,123.0
98,C#2,39.0,0.25,114,123.0
99,G#3,39.25,0.25,100,123.0
100,G#3,39.75,0.25,114,123.0
101,C#2,39.75,0.25,114,123.0
102,F#2,40.0,1.0,85,123.0
103,B1,40.75,0.25,127,123.0
104,F#2,41.0,1.0,85,123.0
105,G#3,41.0,0.25,114,123.0
106,C#2,41.0,0.25,114,123.0
107,B1,41.5,0.25,127,123.0
108,C#2,41.75,0.25,127,123.0
109,G#3,42.0,0.25,100,123.0
110,F#2,42.0,1.0,85,123.0
111,G#3,42.5,0.25,100,123.0
112,F#2,43.0,1.0,85,123.0
113,G#3,43.0,0.25,114,123.0
114,C#2,43.0,0.25,114,123.0
115,G#3,43.25,0.25,100,123.0
116,G#3,43.75,0.25,114,123.0
117,C#2,43.75,0.25,114,123.0
118,F#2,44.0,1.0,85,123.0
119,G#3,44.75,0.25,100,123.0
120,F#2,45.0,1.0,85,123.0
121,C#2,45.0,0.25,114,123.0
122,G#3,45.0,0.25,114,123.0
123,B1,45.5,0.25,127,123.0
124,G#3,46.0,0.25,100,123.0
125,F#2,46.0,1.0,85,123.0
126,C#2,47.0,0.25,127,123.0
127,F#2,47.0,1.0,85,123.0
128,G#3,47.25,0.25,100,123.0
129,G#3,47.75,0.25,114,123.0
130,C#2,47.75,0.25,114,123.0
131,F#2,48.0,1.0,85,123.0
132,B1,48.75,0.25,127,123.0
133,F#2,49.0,1.0,85,123.0
134,G#3,49.0,0.25,114,123.0
135,C#2,49.0,0.25,114,123.0
136,B1,49.5,0.25,127,123.0
137,C#2,49.75,0.25,127,123.0
138,G#3,50.0,0.25,100,123.0
139,F#2,50.0,1.0,85,123.0
140,G#3,50.5,0.25,100,123.0
141,F#2,51.0,1.0,85,123.0
142,G#3,51.0,0.25,114,123.0
143,C#2,51.0,0.25,114,123.0
144,G#3,51.25,0.25,100,123.0
145,G#3,51.75,0.25,114,123.0
146,C#2,51.75,0.25,114,123.0
147,F#2,52.0,1.0,90,123.0
148,A3,52.0,2.0,96,123.0
149,G4,52.5,0.25,110,123.0
150,C5,52.75,0.25,110,123.0
151,F#2,53.0,1.0,90,123.0
152,G4,53.0,0.25,110,123.0
153,C#2,53.0,0.25,114,123.0
154,G#3,53.0,0.25,114,123.0
155,G5,53.25,0.25,110,123.0
156,G#3,53.5,0.25,100,123.0
157,G4,53.5,0.25,110,123.0
158,C5,53.75,0.25,110,123.0
159,G#3,54.0,0.25,100,123.0
160,F#2,54.0,1.0,90,123.0
161,B3,54.0,2.0,96,123.0
162,D5,54.0,0.5,110,123.0
163,G4,54.5,0.5,110,123.0
164,G#3,54.75,0.25,100,123.0
165,C#2,55.0,0.25,127,123.0
166,F#2,55.0,1.0,90,123.0
167,D5,55.0,0.5,110,123.0
168,G5,55.5,0.5,110,123.0
169,G#3,56.0,0.25,100,123.0
170,F#2,56.0,1.0,90,123.0
171,C4,56.0,2.0,96,123.0
172,G4,56.5,0.25,110,123.0
173,G#3,56.75,0.25,100,123.0
174,C5,56.75,0.25,110,123.0
175,C#2,57.0,0.25,127,123.0
176,F#2,57.0,1.0,90,123.0
177,G4,57.0,0.25,110,123.0
178,G5,57.25,0.25,110,123.0
179,B1,57.5,0.25,127,123.0
180,G4,57.5,0.25,110,123.0
181,C5,57.75,0.25,110,123.0
182,F#2,58.0,1.0,90,123.0
183,D4,58.0,2.0,96,123.0
184,D5,58.0,0.5,110,123.0
185,B1,58.0,0.25,114,123.0
186,G#3,58.0,0.25,114,123.0
187,D5,58.5,0.5,110,123.0
188,G#3,58.75,0.25,100,123.0
189,C#2,59.0,0.25,127,123.0
190,F#2,59.0,1.0,90,123.0
191,F#5,59.0,0.5,110,123.0
192,G#3,59.25,0.25,100,123.0
193,F#5,59.5,0.25,110,123.0
194,G5,59.75,0.25,110,123.0
195,G#3,60.0,0.25,100,123.0
196,F#2,60.0,1.0,90,123.0
197,A3,60.0,2.0,96,123.0
198,G4,60.5,0.25,110,123.0
199,G#3,60.75,0.25,100,123.0
200,C5,60.75,0.25,110,123.0
201,C#2,61.0,0.25,127,123.0
202,F#2,61.0,1.0,90,123.0
203,G4,61.0,0.25,110,123.0
204,G5,61.25,0.25,110,123.0
205,B1,61.5,0.25,127,123.0
206,G4,61.5,0.25,110,123.0
207,C5,61.75,0.25,110,123.0
208,F#2,62.0,1.0,90,123.0
209,B3,62.0,2.0,96,123.0
210,D5,62.0,0.5,110,123.0
211,B1,62.0,0.25,114,123.0
212,G#3,62.0,0.25,114,123.0
213,G4,62.5,0.5,110,123.0
214,G#3,62.75,0.25,100,123.0
215,C#2,63.0,0.25,127,123.0
216,F#2,63.0,1.0,90,123.0
217,D5,63.0,0.5,110,123.0
218,G5,63.5,0.5,110,123.0
219,G#3,64.0,0.25,100,123.0
220,F#2,64.0,1.0,90,123.0
221,C4,64.0,2.0,96,123.0
222,G4,64.5,0.25,110,123.0
223,G#3,64.75,0.25,100,123.0
224,C5,64.75,0.25,110,123.0
225,C#2,65.0,0.25,127,123.0
226,F#2,65.0,1.0,90,123.0
227,E5,65.0,0.25,110,123.0
228,F3,65.0,0.25,100,123.0
229,D5,65.25,0.25,110,123.0
230,E3,65.25,0.25,100,123.0
231,B1,65.5,0.25,127,123.0
232,C5,65.5,0.25,110,123.0
233,D3,65.5,0.25,100,123.0
234,E5,65.75,0.25,110,123.0
235,E3,65.75,0.25,100,123.0
236,F#2,66.0,1.0,90,123.0
237,F3,66.0,1.0,110,123.0
238,B1,66.0,0.25,114,123.0
239,G#3,66.0,0.25,114,123.0
240,C4,66.0,1.0,110,123.0
241,F4,66.0,1.0,110,123.0
242,A4,66.0,1.0,110,123.0
243,B1,66.75,0.25,114,123.0
244,G#3,66.75,0.25,114,123.0
245,E2,67.0,0.25,127,123.0
246,F#2,67.0,1.0,90,123.0
247,E3,67.0,1.0,110,123.0
248,A3,67.0,1.0,110,123.0
249,E4,67.0,1.0,110,123.0
250,G4,67.0,1.0,110,123.0
251,G#3,67.25,0.25,100,123.0
252,E2,67.75,0.25,127,123.0
253,G3,68.0,0.25,110,123.0
254,F#2,68.0,1.0,90,123.0
255,A3,68.0,2.0,96,123.0
256,A1,68.0,2.0,120,123.0
257,G3,68.0,0.25,65,123.0
258,G4,68.0,0.25,65,123.0
259,G4,68.5,0.25,110,123.0
260,G3,68.5,0.25,65,123.0
261,B1,68.75,0.25,110,123.0
262,C5,68.75,0.25,110,123.0
263,D4,68.75,0.25,65,123.0
264,F#2,69.0,1.0,90,123.0
265,G4,69.0,0.25,110,123.0
266,G3,69.0,0.25,65,123.0
267,B3,69.0,0.25,118,123.0
268,B1,69.0,0.25,118,123.0
269,G5,69.25,0.25,110,123.0
270,G4,69.25,0.25,65,123.0
271,B1,69.5,0.25,127,123.0
272,G4,69.5,0.25,110,123.0
273,G3,69.5,0.25,65,123.0
274,C5,69.75,0.25,110,123.0
275,B3,70.0,0.25,110,123.0
276,F#2,70.0,1.0,90,123.0
277,B3,70.0,2.0,96,123.0
278,D5,70.0,0.5,110,123.0
279,B1,70.0,2.0,120,123.0
280,G4,70.0,0.25,65,123.0
281,G3,70.0,0.25,65,123.0
282,G4,70.5,0.5,110,123.0
283,G3,70.5,0.25,65,123.0
284,B3,70.75,0.25,110,123.0
285,D4,70.75,0.25,65,123.0
286,C#2,71.0,0.25,127,123.0
287,F#2,71.0,1.0,90,123.0
288,D5,71.0,0.5,110,123.0
289,G3,71.0,0.25,65,123.0
290,B3,71.25,0.25,110,123.0
291,G4,71.25,0.25,65,123.0
292,G5,71.5,0.5,110,123.0
293,G3,71.5,0.25,65,123.0
294,B3,72.0,0.25,110,123.0
295,F#2,72.0,1.0,90,123.0
296,C4,72.0,2.0,96,123.0
297,C2,72.0,2.0,120,123.0
298,G3,72.0,0.25,65,123.0
299,G4,72.0,0.25,65,123.0
300,G4,72.5,0.25,110,123.0
301,G3,72.5,0.25,65,123.0
302,B1,72.75,0.25,110,123.0
303,C5,72.75,0.25,110,123.0
304,D4,72.75,0.25,65,123.0
305,F#2,73.0,1.0,90,123.0
306,G4,73.0,0.25,110,123.0
307,G3,73.0,0.25,65,123.0
308,B3,73.0,0.25,118,123.0
309,B1,73.0,0.25,118,123.0
310,G5,73.25,0.25,110,123.0
311,G4,73.25,0.25,65,123.0
312,B1,73.5,0.25,127,123.0
313,G4,73.5,0.25,110,123.0
314,G3,73.5,0.25,65,123.0
315,C5,73.75,0.25,110,123.0
316,B3,74.0,0.25,110,123.0
317,F#2,74.0,1.0,90,123.0
318,D4,74.0,2.0,96,123.0
319,D5,74.0,0.5,110,123.0
320,D2,74.0,1.0,120,123.0
321,G4,74.0,0.25,65,123.0
322,G3,74.0,0.25,65,123.0
323,D5,74.5,0.5,110,123.0
324,G3,74.5,0.25,65,123.0
325,B3,74.75,0.25,110,123.0
326,D4,74.75,0.25,65,123.0
327,C#2,75.0,0.25,127,123.0
328,F#2,75.0,1.0,90,123.0
329,F#5,75.0,0.5,110,123.0
330,E2,75.0,0.25,120,123.0
331,G3,75.0,0.25,65,123.0
332,B3,75.25,0.25,110,123.0
333,G4,75.25,0.25,65,123.0
334,F#5,75.5,0.25,110,123.0
335,G2,75.5,0.25,120,123.0
336,G3,75.5,0.25,65,123.0
337,G5,75.75,0.25,110,123.0
338,A2,75.75,0.25,120,123.0
339,B3,76.0,0.25,110,123.0
340,F#2,76.0,1.0,90,123.0
341,A3,76.0,2.0,96,123.0
342,A1,76.0,2.0,120,123.0
343,G3,76.0,0.25,65,123.0
344,G4,76.0,0.25,65,123.0
345,G4,76.5,0.25,110,123.0
346,G3,76.5,0.25,65,123.0
347,B1,76.75,0.25,110,123.0
348,C5,76.75,0.25,110,123.0
349,D4,76.75,0.25,65,123.0
350,F#2,77.0,1.0,90,123.0
351,G4,77.0,0.25,110,123.0
352,G3,77.0,0.25,65,123.0
353,B3,77.0,0.25,118,123.0
354,B1,77.0,0.25,118,123.0
355,G5,77.25,0.25,110,123.0
356,G4,77.25,0.25,65,123.0
357,B1,77.5,0.25,127,123.0
358,G4,77.5,0.25,110,123.0
359,G3,77.5,0.25,65,123.0
360,C5,77.75,0.25,110,123.0
361,B3,78.0,0.25,110,123.0
362,F#2,78.0,1.0,90,123.0
363,B3,78.0,2.0,96,123.0
364,D5,78.0,0.5,110,123.0
365,B1,78.0,1.5,120,123.0
366,G4,78.0,0.25,65,123.0
367,G3,78.0,0.25,65,123.0
368,G4,78.5,0.5,110,123.0
369,G3,78.5,0.25,65,123.0
370,B3,78.75,0.25,110,123.0
371,D4,78.75,0.25,65,123.0
372,C#2,79.0,0.25,127,123.0
373,F#2,79.0,1.0,90,123.0
374,D5,79.0,0.5,110,123.0
375,G3,79.0,0.25,65,123.0
376,G4,79.25,0.25,65,123.0
377,G3,79.5,0.25,120,123.0
378,G5,79.5,0.5,110,123.0
379,G3,79.5,0.25,65,123.0
380,E2,80.5,0.25,127,123.0
381,B5,80.5,0.25,110,123.0
382,B3,80.5,0.25,105,123.0
383,B1,80.75,0.25,110,123.0
384,A5,80.75,0.25,110,123.0
385,A3,80.75,0.25,105,123.0
386,G5,81.0,0.25,110,123.0
387,G3,81.0,0.25,105,123.0
388,B1,81.25,0.25,127,123.0
389,D5,81.25,0.25,110,123.0
390,E3,81.25,0.25,105,123.0
391,C3,81.5,0.25,127,123.0
392,B4,81.5,0.25,110,123.0
393,C3,81.5,0.25,110,123.0
394,B2,81.75,0.25,127,123.0
395,G4,81.75,0.25,110,123.0
396,A2,82.0,0.25,127,123.0
397,F1,82.0,0.25,120,123.0
398,C5,82.0,0.25,110,123.0
399,C4,82.0,0.25,110,123.0
400,F4,82.0,0.25,110,123.0
401,A4,82.0,0.25,110,123.0
402,E2,82.75,0.25,127,123.0
403,E2,83.0,0.25,127,123.0
404,E1,83.0,1.0,120,123.0
405,B4,83.0,1.0,110,123.0
406,G4,83.0,1.0,110,123.0
407,A3,83.0,1.0,110,123.0
408,E4,83.0,1.0,110,123.0
409,B-2,83.5,0.5,100,123.0
410,A1,84.0,0.25,120,123.0
411,F#2,84.0,0.5,108,123.0
412,B1,84.0,0.5,108,123.0
413,B3,84.0,2.0,110,123.0
414,G4,84.0,2.0,110,123.0
415,C5,84.0,2.0,110,123.0
416,E4,84.0,2.0,110,123.0
417,F#2,85.0,0.5,108,123.0
418,C#2,85.0,0.5,108,123.0
419,B3,85.0,0.25,110,123.0
420,B4,85.0,0.25,110,123.0
421,A1,85.5,0.25,120,123.0
422,C4,85.5,0.25,110,123.0
423,C5,85.5,0.25,110,123.0
424,B1,86.0,1.0,120,123.0
425,F#2,86.0,0.5,108,123.0
426,B1,86.0,0.5,108,123.0
427,A3,86.0,1.5,110,123.0
428,B4,86.0,1.5,110,123.0
429,G4,86.0,1.5,110,123.0
430,D4,86.0,1.5,110,123.0
431,D4,86.0,0.625,110,123.0
432,D5,86.0,0.625,110,123.0
433,D4,86.75,0.25,110,123.0
434,D5,86.75,0.25,110,123.0
435,F#2,87.0,0.5,108,123.0
436,C#2,87.0,0.5,108,123.0
437,B1,87.5,0.5,120,123.0
438,G3,87.5,0.5,110,123.0
439,C4,87.5,0.5,110,123.0
440,E4,87.5,0.5,110,123.0
441,G4,87.5,0.5,110,123.0
442,A3,87.5,0.5,110,123.0
443,A4,87.5,0.5,110,123.0
444,C2,88.0,333/1000,120,123.0
445,F#2,88.0,0.5,108,123.0
446,B1,88.0,0.5,108,123.0
447,A3,88.0,0.25,110,123.0
448,A4,88.0,0.25,110,123.0
449,G3,88.5,0.25,110,123.0
450,G4,88.5,0.25,110,123.0
451,F#2,89.0,0.5,108,123.0
452,C#2,89.0,0.5,108,123.0
453,E3,89.0,0.25,110,123.0
454,E4,89.0,0.25,110,123.0
455,C2,89.5,333/1000,105,123.0
456,G3,89.5,1.5,110,123.0
457,C4,89.5,1.5,110,123.0
458,E4,89.5,1.5,110,123.0
459,G4,89.5,1.5,110,123.0
460,F#3,89.5,0.25,110,123.0
461,F#4,89.5,0.25,110,123.0
462,D2,90.0,917/1000,120,123.0
463,F#2,90.0,0.5,108,123.0
464,B1,90.0,0.5,108,123.0
465,G3,90.0,0.75,110,123.0
466,G4,90.0,0.75,110,123.0
467,B1,90.5,0.5,127,123.0
468,A3,90.75,0.25,110,123.0
469,A4,90.75,0.25,110,123.0
470,D2,91.0,0.25,110,123.0
471,F#2,91.0,0.5,108,123.0
472,C#2,91.0,0.5,108,123.0
473,E2,91.25,0.25,110,123.0
474,B-2,91.5,0.5,90,123.0
475,G2,91.5,0.25,100,123.0
476,B3,91.5,1.0,110,123.0
477,G4,91.5,1.0,110,123.0
478,E4,91.5,1.0,110,123.0
479,C5,91.5,1.0,110,123.0
480,E3,91.5,0.5,110,123.0
481,E4,91.5,0.5,110,123.0
482,A2,91.75,0.25,110,123.0
483,A1,92.0,0.25,120,123.0
484,F#2,92.0,0.5,108,123.0
485,B1,92.0,0.5,108,123.0
486,E3,92.0,123/250,110,123.0
487,E4,92.0,123/250,110,123.0
488,C4,92.5,1.0,110,123.0
489,A4,92.5,1.0,110,123.0
490,D5,92.5,1.0,110,123.0
491,F#4,92.5,1.0,110,123.0
492,D3,92.5,0.25,110,123.0
493,D4,92.5,0.25,110,123.0
494,F#2,93.0,0.5,108,123.0
495,C#2,93.0,0.5,108,123.0
496,D3,93.0,3.0,110,123.0
497,D4,93.0,3.0,110,123.0
498,A1,93.5,0.25,120,123.0
499,A3,93.5,0.75,110,123.0
500,C4,93.5,0.75,110,123.0
501,G4,93.5,0.75,110,123.0
502,E4,93.5,0.75,110,123.0
503,B1,94.0,0.25,120,123.0
504,F#2,94.0,0.5,108,123.0
505,B1,94.0,0.5,108,123.0
506,A3,94.25,0.25,110,123.0
507,C4,94.25,0.25,110,123.0
508,E4,94.25,0.25,110,123.0
509,G4,94.25,0.25,110,123.0
510,F#2,95.0,0.5,108,123.0
511,C#2,95.0,0.5,108,123.0
512,A3,95.0,0.25,110,123.0
513,C4,95.0,0.25,110,123.0
514,E4,95.0,0.25,110,123.0
515,G4,95.0,0.25,110,123.0
516,B1,95.5,0.25,120,123.0
517,B3,95.5,2.0,110,123.0
518,F#4,95.5,2.0,110,123.0
519,D4,95.5,2.0,110,123.0
520,A4,95.5,2.0,110,123.0
521,B2,96.0,0.25,110,123.0
522,F#2,96.0,0.5,108,123.0
523,B1,96.0,0.5,108,123.0
524,G2,96.25,0.25,110,123.0
525,E1,96.5,0.25,110,123.0
526,C1,96.75,29/500,110,123.0
527,G4,97.0,0.25,110,123.0
528,C2,97.0,0.5,110,123.0
529,F#2,97.0,0.5,108,123.0
530,C#2,97.0,0.5,108,123.0
531,A4,97.25,0.25,110,123.0
532,G1,97.5,0.5,110,123.0
533,G4,97.5,0.25,110,123.0
534,B4,97.5,0.25,110,123.0
535,A4,97.75,0.25,110,123.0
536,D5,97.75,0.25,110,123.0
537,F1,98.0,0.25,120,123.0
538,F#2,98.0,0.5,108,123.0
539,B1,98.0,0.5,108,123.0
540,G4,98.25,0.25,110,123.0
541,B4,98.25,0.25,110,123.0
542,A4,98.5,0.5,110,123.0
543,D5,98.5,0.5,110,123.0
544,E1,99.0,1.0,120,123.0
545,B-2,99.0,0.5,108,123.0
546,C#2,99.0,0.5,108,123.0
547,B4,99.0,229/500,110,123.0
548,E5,99.0,229/500,110,123.0
549,C5,99.5,0.25,110,123.0
550,E4,99.5,0.25,110,123.0
551,A4,99.5,0.25,110,123.0
552,A1,100.0,0.25,120,123.0
553,F#2,100.0,0.5,108,123.0
554,B1,100.0,0.5,108,123.0
555,B4,100.5,1.0,110,123.0
556,D4,100.5,1.0,110,123.0
557,G4,100.5,1.0,110,123.0
558,F#2,101.0,0.5,108,123.0
559,C#2,101.0,0.5,108,123.0
560,B3,101.0,0.25,110,123.0
561,B4,101.0,0.25,110,123.0
562,B1,101.5,0.5,127,123.0
563,A1,101.5,0.25,110,123.0
564,B3,101.5,2.0,110,123.0
565,G4,101.5,2.0,110,123.0
566,C5,101.5,2.0,110,123.0
567,E4,101.5,2.0,110,123.0
568,C4,101.5,0.25,110,123.0
569,C5,101.5,0.25,110,123.0
570,B1,102.0,0.75,120,123.0
571,F#2,102.0,0.5,108,123.0
572,B1,102.0,0.5,108,123.0
573,D4,102.0,0.625,110,123.0
574,D5,102.0,0.625,110,123.0
575,F#2,102.75,0.25,90,123.0
576,B2,102.75,0.25,110,123.0
577,D4,102.75,0.25,110,123.0
578,D5,102.75,0.25,110,123.0
579,F#2,103.0,0.5,108,123.0
580,C#2,103.0,0.5,108,123.0
581,B1,103.5,0.25,110,123.0
582,A3,103.5,1.5,110,123.0
583,B4,103.5,1.5,110,123.0
584,G4,103.5,1.5,110,123.0
585,D4,103.5,1.5,110,123.0
586,A3,103.5,0.5,110,123.0
587,A4,103.5,0.5,110,123.0
588,C2,104.0,0.25,120,123.0
589,F#2,104.0,0.5,108,123.0
590,B1,104.0,0.5,108,123.0
591,A3,104.0,0.25,110,123.0
592,A4,104.0,0.25,110,123.0
593,G3,104.5,0.25,110,123.0
594,G4,104.5,0.25,110,123.0
595,F#2,105.0,0.5,108,123.0
596,C#2,105.0,0.5,108,123.0
597,G3,105.0,0.5,110,123.0
598,C4,105.0,0.5,110,123.0
599,E4,105.0,0.5,110,123.0
600,G4,105.0,0.5,110,123.0
601,E3,105.0,0.25,110,123.0
602,E4,105.0,0.25,110,123.0
603,C2,105.5,0.25,110,123.0
604,F#3,105.5,0.25,110,123.0
605,F#4,105.5,0.25,110,123.0
606,D2,106.0,1.0,120,123.0
607,F#2,106.0,0.5,108,123.0
608,B1,106.0,0.5,108,123.0
609,G3,106.0,0.25,110,123.0
610,G4,106.0,0.25,110,123.0
611,B1,106.5,0.5,127,123.0
612,B3,106.5,0.25,110,123.0
613,B4,106.5,0.25,110,123.0
614,D2,107.0,0.25,110,123.0
615,F#2,107.0,0.5,108,123.0
616,C#2,107.0,0.5,108,123.0
617,G3,107.0,1.5,110,123.0
618,C4,107.0,1.5,110,123.0
619,E4,107.0,1.5,110,123.0
620,G4,107.0,1.5,110,123.0
621,C4,107.0,0.25,110,123.0
622,C5,107.0,0.25,110,123.0
623,E2,107.25,0.25,110,123.0
624,G2,107.5,0.25,110,123.0
625,D4,107.5,0.25,110,123.0
626,D5,107.5,0.25,110,123.0
627,A2,107.75,0.25,110,123.0
628,A1,108.0,0.25,120,123.0
629,F#2,108.0,0.5,108,123.0
630,B1,108.0,0.5,108,123.0
631,E4,108.0,1.0,110,123.0
632,E5,108.0,1.0,110,123.0
633,F#2,109.0,0.5,108,123.0
634,C#2,109.0,0.5,108,123.0
635,B3,109.0,1.0,110,123.0
636,G4,109.0,1.0,110,123.0
637,E4,109.0,1.0,110,123.0
638,C5,109.0,1.0,110,123.0
639,F#4,109.0,0.25,110,123.0
640,F#5,109.0,0.25,110,123.0
641,A1,109.5,0.25,120,123.0
642,D4,109.5,2.5,110,123.0
643,D5,109.5,2.5,110,123.0
644,B1,110.0,0.75,120,123.0
645,F#2,110.0,0.5,108,123.0
646,B1,110.0,0.5,108,123.0
647,C4,110.0,1.0,110,123.0
648,A4,110.0,1.0,110,123.0
649,D5,110.0,1.0,110,123.0
650,F#4,110.0,1.0,110,123.0
651,B2,110.75,0.25,120,123.0
652,F#2,111.0,0.5,108,123.0
653,C#2,111.0,0.5,108,123.0
654,C4,111.0,0.75,110,123.0
655,G4,111.0,0.75,110,123.0
656,E4,111.0,0.75,110,123.0
657,C5,111.0,0.75,110,123.0
658,F#2,111.75,0.25,90,123.0
659,B1,111.75,0.25,120,123.0
660,C4,111.75,0.25,110,123.0
661,E4,111.75,0.25,110,123.0
662,G4,111.75,0.25,110,123.0
663,C5,111.75,0.25,110,123.0
664,C2,112.0,0.5,120,123.0
665,F#2,112.0,0.5,108,123.0
666,B1,112.0,0.5,108,123.0
667,D4,112.0,1.0,110,123.0
668,D5,112.0,1.0,110,123.0
669,D2,112.5,0.5,120,123.0
670,C4,112.5,0.25,110,123.0
671,E4,112.5,0.25,110,123.0
672,G4,112.5,0.25,110,123.0
673,C5,112.5,0.25,110,123.0
674,E2,113.0,0.5,120,123.0
675,F#2,113.0,0.5,108,123.0
676,C#2,113.0,0.5,108,123.0
677,G4,113.0,2.0,110,123.0
678,F#4,113.0,2.0,110,123.0
679,D4,113.0,2.0,110,123.0
680,D5,113.0,2.0,110,123.0
681,G2,113.5,0.5,120,123.0
682,F2,114.0,0.25,120,123.0
683,F#2,114.0,0.5,108,123.0
684,B1,114.0,0.5,108,123.0
685,B1,114.5,0.5,127,123.0
686,G5,114.5,0.25,110,123.0
687,F#5,114.75,0.25,110,123.0
688,E2,115.0,1.0,120,123.0
689,A2,115.0,0.5,108,123.0
690,B-2,115.0,0.5,108,123.0
691,E4,115.0,0.5,110,123.0
692,E5,115.0,0.5,110,123.0
693,D4,115.5,0.5,110,123.0
694,D5,115.5,0.5,110,123.0
695,B-4,115.917,0.125,90,123.0
696,B-3,115.917,0.125,90,123.0
697,E-2,116.0,2.0,120,123.0
698,G3,116.0,0.5,124,123.0
699,B1,116.0,0.5,124,123.0
700,B3,116.0,0.5,110,123.0
701,B4,116.0,0.5,110,123.0
702,D4,116.5,229/500,110,123.0
703,D5,116.5,229/500,110,123.0
704,G3,117.0,0.5,110,123.0
705,F#2,117.0,0.5,108,123.0
706,C#2,117.0,0.5,108,123.0
707,E5,117.0,0.25,110,123.0
708,C5,117.0,0.25,110,123.0
709,E4,117.0,0.25,110,123.0
710,A4,117.0,0.25,110,123.0
711,B1,117.5,0.5,127,123.0
712,B-3,117.5,0.5,110,123.0
713,D2,118.0,2.0,120,123.0
714,D4,118.0,0.5,110,123.0
715,F#2,118.0,0.5,108,123.0
716,B1,118.0,0.5,108,123.0
717,B4,118.0,1.0,110,123.0
718,D5,118.0,1.0,110,123.0
719,D4,118.0,1.0,110,123.0
720,G4,118.0,1.0,110,123.0
721,F4,118.5,0.5,110,123.0
722,G4,119.0,0.5,110,123.0
723,F#2,119.0,0.5,108,123.0
724,C#2,119.0,0.5,108,123.0
725,D4,119.0,2.0,110,123.0
726,G4,119.0,2.0,110,123.0
727,B-3,119.0,2.0,110,123.0
728,B-4,119.0,2.0,110,123.0
729,G1,119.5,0.25,120,123.0
730,D4,119.5,0.5,110,123.0
731,B-2,119.5,0.5,114,123.0
732,B1,119.5,0.5,114,123.0
733,F#2,120.0,0.5,90,123.0
734,B-3,120.0,0.5,110,123.0
735,G1,120.5,1333/1000,120,123.0
736,C4,120.5,2.0,110,123.0
737,B-2,120.5,0.5,114,123.0
738,B1,120.5,0.5,114,123.0
739,F#2,121.0,0.5,90,123.0
740,F4,121.0,1.5,110,123.0
741,A4,121.0,1.5,110,123.0
742,C5,121.0,1.5,110,123.0
743,C4,121.0,1.5,110,123.0
744,B1,121.5,0.5,120,123.0
745,B2,122.0,0.5,105,123.0
746,F#2,122.0,0.5,105,123.0
747,A1,122.5,0.25,120,123.0
748,A3,122.5,0.5,110,123.0
749,B-2,122.5,0.5,114,123.0
750,B1,122.5,0.5,114,123.0
751,C4,122.5,0.25,110,123.0
752,E4,122.5,0.25,110,123.0
753,G4,122.5,0.25,110,123.0
754,C5,122.5,0.25,110,123.0
755,F3,123.0,0.5,110,123.0
756,A1,123.5,0.5,120,123.0
757,G3,123.5,0.5,110,123.0
758,G3,123.5,0.5,124,123.0
759,B1,123.5,0.5,124,123.0
760,B-3,123.5,1.5,110,123.0
761,B-4,123.5,1.5,110,123.0
762,F4,123.5,1.5,110,123.0
763,D4,123.5,1.5,110,123.0
764,F#2,124.0,0.5,90,123.0
765,A1,124.0,0.5,120,123.0
766,G3,124.0,1.5,110,123.0
767,F#2,125.0,0.5,108,123.0
768,C#2,125.0,0.5,108,123.0
769,A1,125.5,0.5,120,123.0
770,C4,125.5,0.25,110,123.0
771,D5,125.5,0.25,110,123.0
772,E4,125.5,0.25,110,123.0
773,A4,125.5,0.25,110,123.0
774,B1,126.0,0.25,120,123.0
775,F#2,126.0,0.5,108,123.0
776,B1,126.0,0.5,108,123.0
777,B3,126.5,0.5,110,123.0
778,E4,126.5,0.5,110,123.0
779,G4,126.5,0.5,110,123.0
780,C5,126.5,0.5,110,123.0
781,F#2,127.0,0.5,108,123.0
782,C#2,127.0,0.5,108,123.0
783,B3,127.0,2.0,110,123.0
784,E4,127.0,2.0,110,123.0
785,G4,127.0,2.0,110,123.0
786,C5,127.0,2.0,110,123.0
787,D4,127.25,0.75,100,123.0
788,G4,127.25,0.75,100,123.0
789,B1,127.5,0.25,120,123.0
790,C2,128.0,0.25,120,123.0
791,F#2,128.0,0.5,108,123.0
792,B1,128.0,0.5,108,123.0
793,D4,128.0,2.0,90,123.0
794,G4,128.0,2.0,90,123.0
795,F#2,129.0,0.5,108,123.0
796,C#2,129.0,0.5,108,123.0
797,B3,129.0,1.5,110,123.0
798,D4,129.0,1.5,110,123.0
799,G4,129.0,1.5,110,123.0
800,B4,129.0,1.5,110,123.0
801,C2,129.5,0.25,120,123.0
802,D2,130.0,1.0,120,123.0
803,F#2,130.0,0.5,108,123.0
804,B1,130.0,0.5,108,123.0
805,B3,130.0,0.25,110,123.0
806,D4,130.0,0.25,110,123.0
807,B1,130.5,0.5,127,123.0
808,B1,130.75,0.25,127,123.0
809,B3,130.75,0.25,110,123.0
810,D4,130.75,0.25,110,123.0
811,D2,131.0,0.25,120,123.0
812,F#2,131.0,0.5,108,123.0
813,C#2,131.0,0.5,108,123.0
814,G4,131.0,2.0,110,123.0
815,A3,131.0,2.0,110,123.0
816,C4,131.0,2.0,110,123.0
817,E4,131.0,2.0,110,123.0
818,E2,131.25,0.25,120,123.0
819,B1,131.5,0.5,127,123.0
820,G2,131.5,0.25,120,123.0
821,B3,131.5,0.5,110,123.0
822,D4,131.5,0.5,110,123.0
823,A2,131.75,0.25,120,123.0
824,A1,132.0,177/250,120,123.0
825,F#2,132.0,0.5,108,123.0
826,B1,132.0,0.5,108,123.0
827,B3,132.0,4.0,90,123.0
828,D4,132.0,4.0,90,123.0
829,A1,132.75,0.25,120,123.0
830,F#2,133.0,0.5,108,123.0
831,C#2,133.0,0.5,108,123.0
832,B3,133.0,1.0,110,123.0
833,E4,133.0,1.0,110,123.0
834,G4,133.0,1.0,110,123.0
835,C5,133.0,1.0,110,123.0
836,A1,133.5,0.25,120,123.0
837,B1,134.0,1.0,120,123.0
838,F#2,134.0,0.5,108,123.0
839,B1,134.0,0.5,108,123.0
840,C4,134.0,1.0,110,123.0
841,F#4,134.0,1.0,110,123.0
842,A4,134.0,1.0,110,123.0
843,D5,134.0,1.0,110,123.0
844,C4,134.942,29/500,110,123.0
845,G4,134.942,29/500,110,123.0
846,E4,134.942,29/500,110,123.0
847,C5,134.942,29/500,110,123.0
848,F#2,135.0,0.5,108,123.0
849,C#2,135.0,0.5,108,123.0
850,C4,135.0,173/250,110,123.0
851,G4,135.0,173/250,110,123.0
852,E4,135.0,173/250,110,123.0
853,C5,135.0,173/250,110,123.0
854,C4,135.692,0.25,110,123.0
855,E4,135.692,0.25,110,123.0
856,G4,135.692,0.25,110,123.0
857,C5,135.692,0.25,110,123.0
858,B2,136.0,0.25,120,123.0
859,F#2,136.0,0.5,108,123.0
860,B1,136.0,0.5,108,123.0
861,G2,136.25,0.25,120,123.0
862,C4,136.442,0.25,110,123.0
863,E4,136.442,0.25,110,123.0
864,G4,136.442,0.25,110,123.0
865,C5,136.442,0.25,110,123.0
866,G1,136.5,0.25,120,123.0
867,E1,136.75,29/500,120,123.0
868,F#4,136.942,2.0,110,123.0
869,D4,136.942,2.0,110,123.0
870,A4,136.942,2.0,110,123.0
871,D5,136.942,2.0,110,123.0
872,B1,137.0,0.5,120,123.0
873,F#2,137.0,0.5,108,123.0
874,C#2,137.0,0.5,108,123.0
875,G1,137.5,0.5,120,123.0
876,F1,138.0,0.25,120,123.0
877,F#2,138.0,0.5,108,123.0
878,B1,138.0,0.5,108,123.0
879,G4,138.442,0.25,110,123.0
880,A4,138.692,0.25,110,123.0
881,G4,138.942,29/500,110,123.0
882,B4,138.942,29/500,110,123.0
883,E1,139.0,1.0,120,123.0
884,B-2,139.0,0.5,108,123.0
885,E2,139.0,0.5,108,123.0
886,G4,139.0,24/125,110,123.0
887,B4,139.0,24/125,110,123.0
888,A4,139.192,0.25,110,123.0
889,D5,139.192,0.25,110,123.0
890,G4,139.692,0.25,110,123.0
891,B4,139.692,0.25,110,123.0
892,A4,139.942,0.5,110,123.0
893,D5,139.942,0.5,110,123.0
894,A1,140.0,0.25,120,123.0
895,F#2,140.0,0.5,108,123.0
896,B1,140.0,0.5,108,123.0
897,B4,140.442,229/500,110,123.0
898,E5,140.442,229/500,110,123.0
899,C5,140.942,0.25,110,123.0
900,E4,140.942,0.25,110,123.0
901,A4,140.942,0.25,110,123.0
902,F#2,141.0,0.5,108,123.0
903,C#2,141.0,0.5,108,123.0
904,B3,141.0,0.25,110,123.0
905,B4,141.0,0.25,110,123.0
906,A1,141.5,0.25,120,123.0
907,C4,141.5,0.25,110,123.0
908,C5,141.5,0.25,110,123.0
909,B4,141.942,1.0,110,123.0
910,D4,141.942,1.0,110,123.0
911,G4,141.942,1.0,110,123.0
912,B1,142.0,1.0,120,123.0
913,F#2,142.0,0.5,108,123.0
914,B1,142.0,0.5,108,123.0
915,D4,142.0,0.625,110,123.0
916,D5,142.0,0.625,110,123.0
917,D4,142.75,0.25,110,123.0
918,D5,142.75,0.25,110,123.0
919,F#2,143.0,0.5,108,123.0
920,C#2,143.0,0.5,108,123.0
921,C4,143.0,2.0,110,123.0
922,G4,143.0,2.0,110,123.0
923,C5,143.0,2.0,110,123.0
924,E4,143.0,2.0,110,123.0
925,B1,143.5,0.5,120,123.0
926,A3,143.5,0.5,110,123.0
927,A4,143.5,0.5,110,123.0
928,C2,144.0,333/1000,120,123.0
929,F#2,144.0,0.5,108,123.0
930,B1,144.0,0.5,108,123.0
931,A3,144.0,0.25,110,123.0
932,A4,144.0,0.25,110,123.0
933,G3,144.5,0.25,110,123.0
934,G4,144.5,0.25,110,123.0
935,F#2,145.0,0.5,108,123.0
936,C#2,145.0,0.5,108,123.0
937,B3,145.0,1.5,110,123.0
938,B4,145.0,1.5,110,123.0
939,G4,145.0,1.5,110,123.0
940,D4,145.0,1.5,110,123.0
941,E3,145.0,0.25,110,123.0
942,E4,145.0,0.25,110,123.0
943,C2,145.5,333/1000,105,123.0
944,F#3,145.5,0.25,110,123.0
945,F#4,145.5,0.25,110,123.0
946,D2,146.0,917/1000,120,123.0
947,F#2,146.0,0.5,108,123.0
948,B1,146.0,0.5,108,123.0
949,G3,146.0,0.75,110,123.0
950,G4,146.0,0.75,110,123.0
951,B1,146.5,0.5,127,123.0
952,A3,146.5,0.5,110,123.0
953,C4,146.5,0.5,110,123.0
954,E4,146.5,0.5,110,123.0
955,G4,146.5,0.5,110,123.0
956,A3,146.75,0.25,110,123.0
957,A4,146.75,0.25,110,123.0
958,D2,147.0,0.25,110,123.0
959,F#2,147.0,0.5,108,123.0
960,C#2,147.0,0.5,108,123.0
961,E2,147.25,0.25,110,123.0
962,B-2,147.5,0.5,90,123.0
963,G2,147.5,0.25,100,123.0
964,E3,147.5,0.5,110,123.0
965,E4,147.5,0.5,110,123.0
966,A2,147.75,0.25,110,123.0
967,A1,148.0,0.25,120,123.0
968,F#2,148.0,0.5,108,123.0
969,B1,148.0,0.5,108,123.0
970,E3,148.0,123/250,110,123.0
971,E4,148.0,123/250,110,123.0
972,A3,148.5,1.5,110,123.0
973,C4,148.5,1.5,110,123.0
974,E4,148.5,1.5,110,123.0
975,G4,148.5,1.5,110,123.0
976,D3,148.5,0.25,110,123.0
977,D4,148.5,0.25,110,123.0
978,F#2,149.0,0.5,108,123.0
979,C#2,149.0,0.5,108,123.0
980,D3,149.0,3.0,110,123.0
981,D4,149.0,3.0,110,123.0
982,B1,149.5,0.5,127,123.0
983,A1,149.5,0.25,120,123.0
984,B1,150.0,0.25,120,123.0
985,F#2,150.0,0.5,108,123.0
986,B1,150.0,0.5,108,123.0
987,B3,150.5,1.0,110,123.0
988,G4,150.5,1.0,110,123.0
989,E4,150.5,1.0,110,123.0
990,C5,150.5,1.0,110,123.0
991,F#2,151.0,0.5,108,123.0
992,C#2,151.0,0.5,108,123.0
993,B1,151.5,0.25,120,123.0
994,C4,151.5,1.0,110,123.0
995,A4,151.5,1.0,110,123.0
996,D5,151.5,1.0,110,123.0
997,F#4,151.5,1.0,110,123.0
998,B2,152.0,0.25,110,123.0
999,F#2,152.0,0.5,108,123.0
1000,B1,152.0,0.5,108,123.0
1001,G2,152.25,0.25,110,123.0
1002,E1,152.5,0.25,110,123.0
1003,C4,152.5,0.75,110,123.0
1004,G4,152.5,0.75,110,123.0
1005,E4,152.5,0.75,110,123.0
1006,C5,152.5,0.75,110,123.0
1007,C1,152.75,29/500,110,123.0
1008,C2,153.0,0.5,110,123.0
1009,F#2,153.0,0.5,108,123.0
1010,C#2,153.0,0.5,108,123.0
1011,C4,153.25,0.25,110,123.0
1012,E4,153.25,0.25,110,123.0
1013,G4,153.25,0.25,110,123.0
1014,C5,153.25,0.25,110,123.0
1015,G1,153.5,0.5,110,123.0
1016,F1,154.0,0.25,120,123.0
1017,F#2,154.0,0.5,108,123.0
1018,B1,154.0,0.5,108,123.0
1019,C4,154.0,0.25,110,123.0
1020,E4,154.0,0.25,110,123.0
1021,G4,154.0,0.25,110,123.0
1022,C5,154.0,0.25,110,123.0
1023,C#2,154.5,0.25,127,123.0
1024,F#4,154.5,2.0,110,123.0
1025,D4,154.5,2.0,110,123.0
1026,A4,154.5,2.0,110,123.0
1027,D5,154.5,2.0,110,123.0
1028,E1,155.0,1.0,120,123.0
1029,G2,155.0,0.5,108,123.0
1030,B-2,155.0,0.5,108,123.0
1031,B5,156.0,0.25,110,123.0
1032,A1,156.0,0.25,120,123.0
1033,G3,156.0,0.5,107,123.0
1034,F#2,156.0,0.5,107,123.0
1035,B1,156.0,0.5,107,123.0
1036,A5,156.25,0.25,110,123.0
1037,G5,156.5,0.25,110,123.0
1038,D5,156.75,0.25,110,123.0
1039,B4,157.0,0.25,110,123.0
1040,F#2,157.0,0.5,108,123.0
1041,C#2,157.0,0.5,108,123.0
1042,B3,157.0,0.25,110,123.0
1043,B4,157.0,0.25,110,123.0
1044,G4,157.25,0.25,110,123.0
1045,B1,157.5,0.5,127,123.0
1046,A4,157.5,0.5,110,123.0
1047,A1,157.5,0.25,110,123.0
1048,C4,157.5,0.25,110,123.0
1049,C5,157.5,0.25,110,123.0
1050,B4,158.0,229/500,110,123.0
1051,B1,158.0,0.75,120,123.0
1052,F#2,158.0,0.5,108,123.0
1053,B1,158.0,0.5,108,123.0
1054,D4,158.0,0.625,110,123.0
1055,D5,158.0,0.625,110,123.0
1056,C5,158.5,0.25,110,123.0
1057,E4,158.5,0.25,110,123.0
1058,A4,158.5,0.25,110,123.0
1059,B2,158.75,0.25,110,123.0
1060,D4,158.75,0.25,110,123.0
1061,D5,158.75,0.25,110,123.0
1062,F#2,159.0,0.5,108,123.0
1063,C#2,159.0,0.5,108,123.0
1064,B1,159.5,0.25,110,123.0
1065,B4,159.5,1.0,110,123.0
1066,D4,159.5,1.0,110,123.0
1067,G4,159.5,1.0,110,123.0
1068,A3,159.5,0.5,110,123.0
1069,A4,159.5,0.5,110,123.0
1070,C2,160.0,0.25,120,123.0
1071,F#2,160.0,0.5,108,123.0
1072,B1,160.0,0.5,108,123.0
1073,A3,160.0,0.25,110,123.0
1074,A4,160.0,0.25,110,123.0
1075,B3,160.5,2.0,110,123.0
1076,G4,160.5,2.0,110,123.0
1077,C5,160.5,2.0,110,123.0
1078,E4,160.5,2.0,110,123.0
1079,G3,160.5,0.25,110,123.0
1080,G4,160.5,0.25,110,123.0
1081,F#2,161.0,0.5,108,123.0
1082,C#2,161.0,0.5,108,123.0
1083,E3,161.0,0.25,110,123.0
1084,E4,161.0,0.25,110,123.0
1085,C2,161.5,0.25,110,123.0
1086,F#3,161.5,0.25,110,123.0
1087,F#4,161.5,0.25,110,123.0
1088,D2,162.0,1.0,120,123.0
1089,F#2,162.0,0.5,108,123.0
1090,B1,162.0,0.5,108,123.0
1091,G3,162.0,0.25,110,123.0
1092,G4,162.0,0.25,110,123.0
1093,B1,162.5,0.5,127,123.0
1094,A3,162.5,1.5,110,123.0
1095,B4,162.5,1.5,110,123.0
1096,G4,162.5,1.5,110,123.0
1097,D4,162.5,1.5,110,123.0
1098,B3,162.5,0.25,110,123.0
1099,B4,162.5,0.25,110,123.0
1100,D2,163.0,0.25,110,123.0
1101,F#2,163.0,0.5,108,123.0
1102,C#2,163.0,0.5,108,123.0
1103,C4,163.0,0.25,110,123.0
1104,C5,163.0,0.25,110,123.0
1105,E2,163.25,0.25,110,123.0
1106,B1,163.5,0.5,127,123.0
1107,G2,163.5,0.25,110,123.0
1108,D4,163.5,0.25,110,123.0
1109,D5,163.5,0.25,110,123.0
1110,A2,163.75,0.25,110,123.0
1111,A1,164.0,0.25,120,123.0
1112,F#2,164.0,0.5,108,123.0
1113,B1,164.0,0.5,108,123.0
1114,G3,164.0,0.5,110,123.0
1115,C4,164.0,0.5,110,123.0
1116,E4,164.0,0.5,110,123.0
1117,G4,164.0,0.5,110,123.0
1118,E4,164.0,1.0,110,123.0
1119,E5,164.0,1.0,110,123.0
1120,F#2,165.0,0.5,108,123.0
1121,C#2,165.0,0.5,108,123.0
1122,F#4,165.0,0.25,110,123.0
1123,F#5,165.0,0.25,110,123.0
1124,A1,165.5,0.25,120,123.0
1125,D4,165.5,2.5,110,123.0
1126,D5,165.5,2.5,110,123.0
1127,B1,166.0,0.75,120,123.0
1128,F#2,166.0,0.5,108,123.0
1129,B1,166.0,0.5,108,123.0
1130,G3,166.0,1.5,110,123.0
1131,C4,166.0,1.5,110,123.0
1132,E4,166.0,1.5,110,123.0
1133,G4,166.0,1.5,110,123.0
1134,B2,166.75,0.25,120,123.0
1135,F#2,167.0,0.5,108,123.0
1136,C#2,167.0,0.5,108,123.0
1137,B1,167.75,0.25,120,123.0
1138,C2,168.0,0.5,120,123.0
1139,F#2,168.0,0.5,108,123.0
1140,B1,168.0,0.5,108,123.0
1141,B3,168.0,1.0,110,123.0
1142,G4,168.0,1.0,110,123.0
1143,E4,168.0,1.0,110,123.0
1144,C5,168.0,1.0,110,123.0
1145,D4,168.0,1.0,110,123.0
1146,D5,168.0,1.0,110,123.0
1147,D2,168.5,0.5,120,123.0
1148,E2,169.0,0.5,120,123.0
1149,F#2,169.0,0.5,108,123.0
1150,C#2,169.0,0.5,108,123.0
1151,C4,169.0,1.0,110,123.0
1152,A4,169.0,1.0,110,123.0
1153,D5,169.0,1.0,110,123.0
1154,F#4,169.0,1.0,110,123.0
1155,G2,169.5,0.5,120,123.0
1156,F2,170.0,0.25,120,123.0
1157,F#2,170.0,0.5,108,123.0
1158,B1,170.0,0.5,108,123.0
1159,C4,170.0,0.75,110,123.0
1160,G4,170.0,0.75,110,123.0
1161,E4,170.0,0.75,110,123.0
1162,C5,170.0,0.75,110,123.0
1163,B1,170.5,0.5,127,123.0
1164,C4,170.75,0.25,110,123.0
1165,E4,170.75,0.25,110,123.0
1166,G4,170.75,0.25,110,123.0
1167,C5,170.75,0.25,110,123.0
1168,E2,171.0,1.0,120,123.0
1169,A2,171.0,0.5,108,123.0
1170,B-2,171.0,0.5,108,123.0
1171,C4,171.5,0.25,110,123.0
1172,E4,171.5,0.25,110,123.0
1173,G4,171.5,0.25,110,123.0
1174,C5,171.5,0.25,110,123.0
1175,E-2,172.0,2.0,120,123.0
1176,G3,172.0,0.5,124,123.0
1177,B1,172.0,0.5,124,123.0
1178,G4,172.0,2.0,110,123.0
1179,F#4,172.0,2.0,110,123.0
1180,D4,172.0,2.0,110,123.0
1181,D5,172.0,2.0,110,123.0
1182,G3,173.0,0.5,110,123.0
1183,F#2,173.0,0.5,108,123.0
1184,C#2,173.0,0.5,108,123.0
1185,B1,173.5,0.5,127,123.0
1186,G5,173.5,0.25,110,123.0
1187,B-3,173.5,0.5,110,123.0
1188,F#5,173.75,0.25,110,123.0
1189,D2,174.0,1.75,120,123.0
1190,D4,174.0,0.5,110,123.0
1191,G3,174.0,0.5,109,123.0
1192,F#2,174.0,0.5,109,123.0
1193,B1,174.0,0.5,109,123.0
1194,E4,174.0,0.5,110,123.0
1195,E5,174.0,0.5,110,123.0
1196,F4,174.5,0.5,110,123.0
1197,D4,174.5,0.5,110,123.0
1198,D5,174.5,0.5,110,123.0
1199,B-4,174.917,0.125,90,123.0
1200,B-3,174.917,0.125,90,123.0
1201,G4,175.0,0.5,110,123.0
1202,F#2,175.0,0.5,108,123.0
1203,C#2,175.0,0.5,108,123.0
1204,B3,175.0,0.5,110,123.0
1205,B4,175.0,0.5,110,123.0
1206,G1,175.5,0.25,120,123.0
1207,D4,175.5,0.5,110,123.0
1208,B-2,175.5,0.5,114,123.0
1209,B1,175.5,0.5,114,123.0
1210,D4,175.5,229/500,110,123.0
1211,D5,175.5,229/500,110,123.0
1212,F#2,176.0,0.5,90,123.0
1213,B-3,176.0,0.5,110,123.0
1214,E5,176.0,0.25,110,123.0
1215,C5,176.0,0.25,110,123.0
1216,E4,176.0,0.25,110,123.0
1217,A4,176.0,0.25,110,123.0
1218,G1,176.5,1333/1000,120,123.0
1219,C4,176.5,2.0,110,123.0
1220,G3,176.5,0.5,112,123.0
1221,B-2,176.5,0.5,112,123.0
1222,B1,176.5,0.5,112,123.0
1223,F#2,177.0,0.5,90,123.0
1224,B4,177.0,1.0,110,123.0
1225,D5,177.0,1.0,110,123.0
1226,D4,177.0,1.0,110,123.0
1227,G4,177.0,1.0,110,123.0
1228,B1,177.5,0.5,120,123.0
1229,B2,178.0,0.5,105,123.0
1230,F#2,178.0,0.5,105,123.0
1231,D4,178.0,2.0,110,123.0
1232,G4,178.0,2.0,110,123.0
1233,B-3,178.0,2.0,110,123.0
1234,B-4,178.0,2.0,110,123.0
1235,A1,178.5,0.25,120,123.0
1236,A3,178.5,0.5,110,123.0
1237,B-2,178.5,0.5,114,123.0
1238,B1,178.5,0.5,114,123.0
1239,F3,179.0,0.5,110,123.0
1240,A1,179.5,0.5,120,123.0
1241,G3,179.5,0.5,110,123.0
1242,G3,179.5,0.5,124,123.0
1243,B1,179.5,0.5,124,123.0
1244,F#2,180.0,0.5,90,123.0
1245,A1,180.0,0.5,120,123.0
1246,G3,180.0,1.5,110,123.0
1247,F4,180.0,1.5,110,123.0
1248,A4,180.0,1.5,110,123.0
1249,C5,180.0,1.5,110,123.0
1250,C4,180.0,1.5,110,123.0
1251,F#2,181.0,0.5,108,123.0
1252,C#2,181.0,0.5,108,123.0
1253,A1,181.5,0.5,120,123.0
1254,C4,181.5,0.25,110,123.0
1255,E4,181.5,0.25,110,123.0
1256,G4,181.5,0.25,110,123.0
1257,C5,181.5,0.25,110,123.0
1258,B1,182.0,0.25,120,123.0
1259,F#2,182.0,0.5,108,123.0
1260,B1,182.0,0.5,108,123.0
1261,D4,182.5,1.5,110,123.0
1262,B-4,182.5,1.5,110,123.0
1263,F4,182.5,1.5,110,123.0
1264,B-3,182.5,1.5,110,123.0
1265,F#2,183.0,0.5,108,123.0
1266,C#2,183.0,0.5,108,123.0
1267,D4,183.25,121/500,100,123.0
1268,G4,183.25,121/500,100,123.0
1269,B1,183.5,0.25,120,123.0
1270,E4,183.5,123/250,90,123.0
1271,A4,183.5,123/250,90,123.0
1272,C2,184.0,0.25,120,123.0
1273,F#2,184.0,0.5,108,123.0
1274,B1,184.0,0.5,108,123.0
1275,D4,184.0,2.0,80,123.0
1276,G4,184.0,2.0,80,123.0
1277,C4,184.5,0.25,110,123.0
1278,D5,184.5,0.25,110,123.0
1279,E4,184.5,0.25,110,123.0
1280,A4,184.5,0.25,110,123.0
1281,F#2,185.0,0.5,108,123.0
1282,C#2,185.0,0.5,108,123.0
1283,B1,185.5,0.5,127,123.0
1284,B3,185.5,0.5,110,123.0
1285,D4,185.5,0.5,110,123.0
1286,G4,185.5,0.5,110,123.0
1287,C5,185.5,0.5,110,123.0
1288,C#2,186.0,2.0,120,123.0
1289,E2,186.0,0.5,108,123.0
1290,F#2,186.0,0.5,108,123.0
1291,B3,186.0,2.0,110,123.0
1292,D4,186.0,2.0,110,123.0
1293,G4,186.0,2.0,110,123.0
1294,C5,186.0,2.0,110,123.0
1295,E3,186.0,0.5,90,123.0
1296,E4,186.0,0.5,90,123.0
1297,B1,186.5,0.5,127,123.0
1298,G3,186.5,0.25,90,123.0
1299,G4,186.5,0.25,90,123.0
1300,F#2,187.0,0.5,90,123.0
1301,B3,187.0,0.25,90,123.0
1302,B4,187.0,0.25,90,123.0
1303,B1,187.5,0.5,108,123.0
1304,B-2,187.5,0.5,108,123.0
1305,A3,187.5,0.5,90,123.0
1306,A4,187.5,0.5,90,123.0
1307,D2,188.0,0.25,120,123.0
1308,F#2,188.0,0.5,108,123.0
1309,B1,188.0,0.5,108,123.0
1310,G4,188.0,1.5,110,123.0
1311,B4,188.0,1.5,110,123.0
1312,D4,188.0,1.5,110,123.0
1313,B3,188.0,1.5,110,123.0
1314,A3,188.0,0.5,90,123.0
1315,A4,188.0,0.5,90,123.0
1316,F#2,188.5,0.5,90,123.0
1317,G3,188.5,0.25,90,123.0
1318,G4,188.5,0.25,90,123.0
1319,F#2,189.0,0.5,108,123.0
1320,E2,189.0,0.5,108,123.0
1321,G3,189.0,0.5,90,123.0
1322,G4,189.0,0.5,90,123.0
1323,A3,189.442,279/500,110,123.0
1324,C4,189.442,279/500,110,123.0
1325,E4,189.442,279/500,110,123.0
1326,G4,189.442,279/500,110,123.0
1327,F#2,189.5,0.5,90,123.0
1328,D2,189.5,0.25,120,123.0
1329,B1,189.75,0.25,120,123.0
1330,G1,190.0,0.25,120,123.0
1331,F#2,190.0,0.5,108,123.0
1332,B1,190.0,0.5,108,123.0
1333,A3,190.0,721/500,110,123.0
1334,C4,190.0,721/500,110,123.0
1335,E4,190.0,721/500,110,123.0
1336,G4,190.0,721/500,110,123.0
1337,G3,190.0,0.5,90,123.0
1338,G4,190.0,0.5,90,123.0
1339,F#2,190.5,0.5,90,123.0
1340,A3,190.5,0.25,90,123.0
1341,A4,190.5,0.25,90,123.0
1342,F#2,191.0,0.5,108,123.0
1343,E2,191.0,0.5,108,123.0
1344,B3,191.0,0.25,90,123.0
1345,B4,191.0,0.25,90,123.0
1346,F#2,191.5,0.5,90,123.0
1347,G1,191.5,0.25,120,123.0
1348,A3,191.5,0.5,90,123.0
1349,A4,191.5,0.5,90,123.0
1350,C2,192.0,0.25,120,123.0
1351,F#2,192.0,0.5,108,123.0
1352,B1,192.0,0.5,108,123.0
1353,C#4,192.0,2.0,110,123.0
1354,E4,192.0,2.0,110,123.0
1355,G4,192.0,2.0,110,123.0
1356,A3,192.0,0.5,90,123.0
1357,A4,192.0,0.5,90,123.0
1358,F#2,192.5,0.5,90,123.0
1359,G3,192.5,0.25,90,123.0
1360,G4,192.5,0.25,90,123.0
1361,F#2,193.0,0.5,108,123.0
1362,E2,193.0,0.5,108,123.0
1363,G3,193.0,0.5,90,123.0
1364,G4,193.0,0.5,90,123.0
1365,F#2,193.5,0.5,90,123.0
1366,C2,193.5,0.25,120,123.0
1367,A4,193.5,0.5,110,123.0
1368,C5,193.5,0.5,110,123.0
1369,F4,193.5,0.5,110,123.0
1370,C2,193.75,83/1000,120,123.0
1371,B1,194.0,0.25,120,123.0
1372,F#2,194.0,0.5,108,123.0
1373,B1,194.0,0.5,108,123.0
1374,A4,194.0,0.5,110,123.0
1375,C5,194.0,0.5,110,123.0
1376,F4,194.0,0.5,110,123.0
1377,G3,194.0,0.5,90,123.0
1378,G4,194.0,0.5,90,123.0
1379,F#2,194.5,0.5,90,123.0
1380,G4,194.5,167/1000,110,123.0
1381,C5,194.5,167/1000,110,123.0
1382,F4,194.5,167/1000,110,123.0
1383,A3,194.5,0.25,90,123.0
1384,A4,194.5,0.25,90,123.0
1385,F#2,195.0,0.5,108,123.0
1386,E2,195.0,0.5,108,123.0
1387,G4,195.0,0.5,110,123.0
1388,C5,195.0,0.5,110,123.0
1389,F4,195.0,0.5,110,123.0
1390,B3,195.0,0.25,90,123.0
1391,B4,195.0,0.25,90,123.0
1392,B-2,195.5,0.5,90,123.0
1393,E2,195.5,0.25,120,123.0
1394,C4,195.5,0.25,90,123.0
1395,C5,195.5,0.25,90,123.0
1396,F#2,196.0,0.5,108,123.0
1397,B1,196.0,0.5,108,123.0
1398,G4,196.0,0.25,110,123.0
1399,F4,196.0,0.25,110,123.0
1400,B3,196.0,0.25,110,123.0
1401,B4,196.0,0.25,110,123.0
1402,B-2,196.5,0.5,90,123.0
1403,A1,196.5,0.25,120,123.0
1404,B3,196.5,0.25,90,123.0
1405,B4,196.5,0.25,90,123.0
1406,F#2,197.0,0.5,108,123.0
1407,E2,197.0,0.5,108,123.0
1408,B-2,197.5,0.5,90,123.0
1409,D2,197.5,0.25,120,123.0
1410,B3,197.5,0.5,110,123.0
1411,E4,197.5,0.5,110,123.0
1412,B4,197.5,0.5,110,123.0
1413,G4,197.5,0.5,110,123.0
1414,D4,197.5,0.25,90,123.0
1415,D5,197.5,0.25,90,123.0
1416,F#2,198.0,0.5,108,123.0
1417,B1,198.0,0.5,108,123.0
1418,B3,198.0,0.5,110,123.0
1419,E4,198.0,0.5,110,123.0
1420,B4,198.0,0.5,110,123.0
1421,G4,198.0,0.5,110,123.0
1422,B-2,198.5,0.5,90,123.0
1423,G1,198.5,0.25,120,123.0
1424,B3,198.5,0.25,110,123.0
1425,E4,198.5,0.25,110,123.0
1426,G4,198.5,0.25,110,123.0
1427,B4,198.5,0.25,110,123.0
1428,B3,198.5,0.25,90,123.0
1429,B4,198.5,0.25,90,123.0
1430,F#2,199.0,0.5,108,123.0
1431,E2,199.0,0.5,108,123.0
1432,B4,199.0,0.25,110,123.0
1433,G4,199.0,0.25,110,123.0
1434,E4,199.0,0.25,110,123.0
1435,B3,199.0,0.25,110,123.0
1436,B-2,199.5,0.5,90,123.0
1437,C2,199.5,0.5,120,123.0
1438,A3,199.5,0.5,90,123.0
1439,A4,199.5,0.5,90,123.0
1440,F#2,200.0,0.5,108,123.0
1441,B1,200.0,0.5,108,123.0
1442,G4,200.0,0.25,110,123.0
1443,B4,200.0,0.25,110,123.0
1444,E-5,200.0,0.25,110,123.0
1445,E-4,200.0,0.25,110,123.0
1446,A3,200.0,0.5,90,123.0
1447,A4,200.0,0.5,90,123.0
1448,F#2,200.5,0.5,90,123.0
1449,G3,200.5,0.25,90,123.0
1450,G4,200.5,0.25,90,123.0
1451,G3,201.0,0.5,108,123.0
1452,E2,201.0,0.5,108,123.0
1453,G3,201.0,0.5,90,123.0
1454,G4,201.0,0.5,90,123.0
1455,F#2,201.5,0.5,90,123.0
1456,C2,201.5,0.25,120,123.0
1457,C5,201.5,0.25,110,123.0
1458,D4,201.5,0.25,110,123.0
1459,G4,201.5,0.25,110,123.0
1460,C2,201.75,0.25,120,123.0
1461,B1,202.0,0.25,120,123.0
1462,F#2,202.0,0.5,108,123.0
1463,B1,202.0,0.5,108,123.0
1464,G3,202.0,0.5,90,123.0
1465,G4,202.0,0.5,90,123.0
1466,F#2,202.5,0.5,90,123.0
1467,B4,202.5,0.25,110,123.0
1468,C#4,202.5,0.25,110,123.0
1469,F#4,202.5,0.25,110,123.0
1470,A3,202.5,0.25,90,123.0
1471,A4,202.5,0.25,90,123.0
1472,F#2,203.0,0.5,108,123.0
1473,E2,203.0,0.5,108,123.0
1474,B3,203.0,0.25,90,123.0
1475,B4,203.0,0.25,90,123.0
1476,F#2,203.5,0.5,90,123.0
1477,E2,203.5,0.25,120,123.0
1478,F4,203.5,0.25,110,123.0
1479,A4,203.5,0.25,110,123.0
1480,D5,203.5,0.25,110,123.0
1481,A3,203.5,0.5,90,123.0
1482,A4,203.5,0.5,90,123.0
1483,F#2,204.0,0.5,108,123.0
1484,B1,204.0,0.5,108,123.0
1485,A3,204.0,0.5,90,123.0
1486,A4,204.0,0.5,90,123.0
1487,F#2,204.5,0.5,90,123.0
1488,B4,204.5,0.25,110,123.0
1489,G4,204.5,0.25,110,123.0
1490,E4,204.5,0.25,110,123.0
1491,G3,204.5,0.25,90,123.0
1492,G4,204.5,0.25,90,123.0
1493,E2,204.75,0.25,127,123.0
1494,E2,205.0,0.5,127,123.0
1495,G3,205.0,0.5,90,123.0
1496,G4,205.0,0.5,90,123.0
1497,C3,205.25,0.25,115,123.0
1498,B2,205.5,0.25,115,123.0
1499,F#2,205.5,0.5,90,123.0
1500,E1,205.5,0.25,120,123.0
1501,B3,205.5,0.5,110,123.0
1502,E4,205.5,0.5,110,123.0
1503,G4,205.5,0.5,110,123.0
1504,A2,205.75,0.25,115,123.0
1505,G2,206.0,0.25,115,123.0
1506,B1,206.0,0.5,127,123.0
1507,A1,206.0,0.25,120,123.0
1508,B3,206.0,0.5,110,123.0
1509,E4,206.0,0.5,110,123.0
1510,G4,206.0,0.5,110,123.0
1511,G3,206.0,0.5,90,123.0
1512,G4,206.0,0.5,90,123.0
1513,F#2,206.5,0.5,90,123.0
1514,B3,206.5,0.25,110,123.0
1515,E4,206.5,0.25,110,123.0
1516,G4,206.5,0.25,110,123.0
1517,A3,206.5,0.25,90,123.0
1518,A4,206.5,0.25,90,123.0
1519,F#2,207.0,0.5,108,123.0
1520,E2,207.0,0.5,108,123.0
1521,B3,207.0,0.25,110,123.0
1522,E4,207.0,0.25,110,123.0
1523,G4,207.0,0.25,110,123.0
1524,B3,207.0,0.25,90,123.0
1525,B4,207.0,0.25,90,123.0
1526,B-2,207.5,0.5,90,123.0
1527,D2,207.5,0.25,120,123.0
1528,C4,207.5,0.25,90,123.0
1529,C5,207.5,0.25,90,123.0
1530,F#2,208.0,0.5,108,123.0
1531,B1,208.0,0.5,108,123.0
1532,F#4,208.0,0.25,110,123.0
1533,B3,208.0,0.25,110,123.0
1534,A4,208.0,0.25,110,123.0
1535,E-4,208.0,0.25,110,123.0
1536,B-2,208.5,0.5,90,123.0
1537,G1,208.5,0.25,120,123.0
1538,B3,208.5,0.25,90,123.0
1539,B4,208.5,0.25,90,123.0
1540,F#2,209.0,0.5,108,123.0
1541,E2,209.0,0.5,108,123.0
1542,B-2,209.5,0.5,90,123.0
1543,C2,209.5,0.25,120,123.0
1544,D4,209.5,0.5,110,123.0
1545,F#4,209.5,0.5,110,123.0
1546,A4,209.5,0.5,110,123.0
1547,E4,209.5,0.25,90,123.0
1548,E5,209.5,0.25,90,123.0
1549,F#2,210.0,0.5,108,123.0
1550,B1,210.0,0.5,108,123.0
1551,D4,210.0,0.5,110,123.0
1552,F#4,210.0,0.5,110,123.0
1553,A4,210.0,0.5,110,123.0
1554,B-2,210.5,0.5,90,123.0
1555,B1,210.5,0.25,120,123.0
1556,G4,210.5,0.25,110,123.0
1557,B3,210.5,0.25,110,123.0
1558,E4,210.5,0.25,110,123.0
1559,B3,210.5,0.25,90,123.0
1560,B4,210.5,0.25,90,123.0
1561,F#2,211.0,0.5,108,123.0
1562,E2,211.0,0.5,108,123.0
1563,G4,211.0,0.25,110,123.0
1564,B3,211.0,0.25,110,123.0
1565,E4,211.0,0.25,110,123.0
1566,B-2,211.5,0.5,90,123.0
1567,E2,211.5,0.25,120,123.0
1568,A3,211.5,0.5,90,123.0
1569,A4,211.5,0.5,90,123.0
1570,F#2,212.0,0.5,102,123.0
1571,G3,212.0,0.5,102,123.0
1572,B1,212.0,0.5,102,123.0
1573,F4,212.0,0.25,110,123.0
1574,A4,212.0,0.25,110,123.0
1575,C#4,212.0,0.25,110,123.0
1576,A3,212.0,0.5,90,123.0
1577,A4,212.0,0.5,90,123.0
1578,F#2,212.5,0.5,90,123.0
1579,G3,212.5,0.25,90,123.0
1580,G4,212.5,0.25,90,123.0
1581,E2,212.75,0.25,127,123.0
1582,E2,213.0,0.5,127,123.0
1583,G3,213.0,0.5,90,123.0
1584,G4,213.0,0.5,90,123.0
1585,C3,213.25,0.25,115,123.0
1586,B2,213.5,0.25,115,123.0
1587,F#2,213.5,0.5,90,123.0
1588,E1,213.5,0.25,120,123.0
1589,C5,213.5,0.5,110,123.0
1590,A4,213.5,0.5,110,123.0
1591,F4,213.5,0.5,110,123.0
1592,A2,213.75,0.25,115,123.0
1593,G1,213.75,0.25,120,123.0
1594,G2,214.0,0.25,115,123.0
1595,B1,214.0,0.5,127,123.0
1596,A1,214.0,0.25,120,123.0
1597,G3,214.0,0.5,90,123.0
1598,G4,214.0,0.5,90,123.0
1599,F#2,214.5,0.5,90,123.0
1600,B4,214.5,0.5,110,123.0
1601,G4,214.5,0.5,110,123.0
1602,E4,214.5,0.5,110,123.0
1603,A3,214.5,0.25,90,123.0
1604,A4,214.5,0.25,90,123.0
1605,F#2,215.0,0.5,108,123.0
1606,E2,215.0,0.5,108,123.0
1607,B3,215.0,0.25,90,123.0
1608,B4,215.0,0.25,90,123.0
1609,F#2,215.5,0.5,90,123.0
1610,D2,215.5,0.25,120,123.0
1611,E5,215.5,0.5,110,123.0
1612,B4,215.5,0.5,110,123.0
1613,G4,215.5,0.5,110,123.0
1614,A3,215.5,0.5,90,123.0
1615,A4,215.5,0.5,90,123.0
1616,F#2,216.0,0.5,108,123.0
1617,B1,216.0,0.5,108,123.0
1618,A3,216.0,0.5,90,123.0
1619,A4,216.0,0.5,90,123.0
1620,F#2,216.5,0.5,90,123.0
1621,E4,216.5,0.5,110,123.0
1622,G4,216.5,0.5,110,123.0
1623,B4,216.5,0.5,110,123.0
1624,G3,216.5,0.25,90,123.0
1625,G4,216.5,0.25,90,123.0
1626,A1,217.0,0.5,120,123.0
1627,F#2,217.0,0.5,108,123.0
1628,E2,217.0,0.5,108,123.0
1629,G3,217.0,0.5,90,123.0
1630,G4,217.0,0.5,90,123.0
1631,F#2,217.5,0.5,90,123.0
1632,G#1,217.5,0.5,120,123.0
1633,C4,217.5,0.5,110,123.0
1634,F#4,217.5,0.5,110,123.0
1635,A4,217.5,0.5,110,123.0
1636,G1,218.0,0.5,120,123.0
1637,F#2,218.0,0.5,108,123.0
1638,B1,218.0,0.5,108,123.0
1639,C4,218.0,0.5,110,123.0
1640,F#4,218.0,0.5,110,123.0
1641,A4,218.0,0.5,110,123.0
1642,G3,218.0,0.5,90,123.0
1643,G4,218.0,0.5,90,123.0
1644,F#2,218.5,0.5,90,123.0
1645,B3,218.5,0.25,110,123.0
1646,E4,218.5,0.25,110,123.0
1647,G4,218.5,0.25,110,123.0
1648,A3,218.5,0.25,90,123.0
1649,A4,218.5,0.25,90,123.0
1650,F#2,219.0,0.5,108,123.0
1651,E2,219.0,0.5,108,123.0
1652,B3,219.0,0.5,110,123.0
1653,E4,219.0,0.5,110,123.0
1654,G4,219.0,0.5,110,123.0
1655,B3,219.0,0.25,90,123.0
1656,B4,219.0,0.25,90,123.0
1657,B-2,219.5,0.5,90,123.0
1658,F#1,219.5,0.25,120,123.0
1659,C4,219.5,0.25,90,123.0
1660,C5,219.5,0.25,90,123.0
1661,F#2,220.0,0.5,90,123.0
1662,B4,220.0,0.25,110,123.0
1663,F4,220.0,0.25,110,123.0
1664,G4,220.0,0.25,110,123.0
1665,C#4,220.0,0.25,110,123.0
1666,B1,220.25,0.25,127,123.0
1667,B-2,220.5,0.5,90,123.0
1668,B1,220.5,0.25,127,123.0
1669,B1,220.5,0.25,120,123.0
1670,B3,220.5,0.25,90,123.0
1671,B4,220.5,0.25,90,123.0
1672,F#2,221.0,0.5,90,123.0
1673,B1,221.25,0.25,127,123.0
1674,B1,221.5,0.25,127,123.0
1675,E2,221.5,0.25,120,123.0
1676,B-2,221.5,0.5,108,123.0
1677,E2,221.5,0.5,108,123.0
1678,C5,221.5,0.5,110,123.0
1679,F4,221.5,0.5,110,123.0
1680,D4,221.5,0.5,110,123.0
1681,G4,221.5,0.25,90,123.0
1682,G5,221.5,0.25,90,123.0
1683,F#2,222.0,0.5,90,123.0
1684,C5,222.0,0.5,110,123.0
1685,F4,222.0,0.5,110,123.0
1686,D4,222.0,0.5,110,123.0
1687,B1,222.25,0.25,127,123.0
1688,B-2,222.5,0.5,90,123.0
1689,B1,222.5,0.25,127,123.0
1690,A1,222.5,0.25,120,123.0
1691,D4,222.5,0.25,110,123.0
1692,F4,222.5,0.25,110,123.0
1693,C5,222.5,0.25,110,123.0
1694,E4,222.5,0.25,90,123.0
1695,E5,222.5,0.25,90,123.0
1696,F#2,223.0,0.5,90,123.0
1697,D4,223.0,0.5,110,123.0
1698,F4,223.0,0.5,110,123.0
1699,C5,223.0,0.5,110,123.0
1700,D4,223.0,0.25,90,123.0
1701,D5,223.0,0.25,90,123.0
1702,B1,223.25,0.25,127,123.0
1703,B1,223.5,0.25,127,123.0
1704,D2,223.5,0.25,120,123.0
1705,E2,223.5,0.5,108,123.0
1706,F#2,223.5,0.5,108,123.0
1707,A3,223.5,0.5,90,123.0
1708,A4,223.5,0.5,90,123.0
1709,F#2,224.0,0.5,90,123.0
1710,B4,224.0,0.25,110,123.0
1711,D4,224.0,0.25,110,123.0
1712,G4,224.0,0.25,110,123.0
1713,A3,224.0,0.5,90,123.0
1714,A4,224.0,0.5,90,123.0
1715,B1,224.25,0.25,127,123.0
1716,B1,224.5,0.25,127,123.0
1717,F#2,224.5,0.5,90,123.0
1718,A1,224.5,0.25,120,123.0
1719,G3,224.5,0.25,90,123.0
1720,G4,224.5,0.25,90,123.0
1721,F#2,225.0,0.5,90,123.0
1722,G3,225.0,0.5,90,123.0
1723,G4,225.0,0.5,90,123.0
1724,B1,225.25,0.25,127,123.0
1725,B1,225.5,0.25,127,123.0
1726,G1,225.5,0.25,120,123.0
1727,E2,225.5,0.5,108,123.0
1728,F#2,225.5,0.5,108,123.0
1729,A4,225.5,0.5,110,123.0
1730,E4,225.5,0.5,110,123.0
1731,C5,225.5,0.5,110,123.0
1732,E2,225.75,0.25,127,123.0
1733,C3,226.0,0.25,110,123.0
1734,G3,226.0,0.5,90,123.0
1735,G4,226.0,0.5,90,123.0
1736,B2,226.25,0.25,110,123.0
1737,A2,226.5,0.25,110,123.0
1738,F#1,226.5,0.5,120,123.0
1739,G4,226.5,0.5,110,123.0
1740,D4,226.5,0.5,110,123.0
1741,B4,226.5,0.5,110,123.0
1742,A3,226.5,0.25,90,123.0
1743,A4,226.5,0.25,90,123.0
1744,G2,226.75,0.25,110,123.0
1745,G3,227.0,0.25,127,123.0
1746,G1,227.0,0.5,120,123.0
1747,F#2,227.0,0.5,108,123.0
1748,E2,227.0,0.5,108,123.0
1749,B3,227.0,0.25,90,123.0
1750,B4,227.0,0.25,90,123.0
1751,F#2,227.5,0.5,90,123.0
1752,B1,227.5,0.5,120,123.0
1753,D5,227.5,0.5,110,123.0
1754,G4,227.5,0.5,110,123.0
1755,E4,227.5,0.5,110,123.0
1756,B4,227.5,0.5,110,123.0
1757,G5,227.5,0.5,110,123.0
1758,A3,227.5,0.5,90,123.0
1759,A4,227.5,0.5,90,123.0
1760,C2,228.0,2.0,120,123.0
1761,F#2,228.0,0.5,108,123.0
1762,B1,228.0,0.5,108,123.0
1763,A3,228.0,0.5,90,123.0
1764,A4,228.0,0.5,90,123.0
1765,F#2,228.5,0.5,90,123.0
1766,C#4,228.5,0.5,110,123.0
1767,G4,228.5,0.5,110,123.0
1768,E4,228.5,0.5,110,123.0
1769,B4,228.5,0.5,110,123.0
1770,G3,228.5,0.25,90,123.0
1771,G4,228.5,0.25,90,123.0
1772,F#2,229.0,0.5,108,123.0
1773,B1,229.0,0.5,108,123.0
1774,G3,229.0,0.5,90,123.0
1775,G4,229.0,0.5,90,123.0
1776,F#2,229.5,0.5,90,123.0
1777,D4,229.5,0.5,110,123.0
1778,F4,229.5,0.5,110,123.0
1779,C5,229.5,0.5,110,123.0
1780,E2,229.75,0.25,127,123.0
1781,E2,230.0,0.5,127,123.0
1782,B1,230.0,0.5,120,123.0
1783,D4,230.0,0.5,110,123.0
1784,F4,230.0,0.5,110,123.0
1785,C5,230.0,0.5,110,123.0
1786,G3,230.0,0.5,90,123.0
1787,G4,230.0,0.5,90,123.0
1788,B2,230.5,0.5,127,123.0
1789,D4,230.5,0.25,110,123.0
1790,F4,230.5,0.25,110,123.0
1791,C5,230.5,0.25,110,123.0
1792,A3,230.5,0.25,90,123.0
1793,A4,230.5,0.25,90,123.0
1794,A2,231.0,0.5,127,123.0
1795,D4,231.0,0.5,110,123.0
1796,F4,231.0,0.5,110,123.0
1797,C5,231.0,0.5,110,123.0
1798,B3,231.0,0.25,90,123.0
1799,B4,231.0,0.25,90,123.0
1800,B-1,231.5,0.5,120,123.0
1801,B1,231.5,0.5,127,123.0
1802,G3,231.5,0.5,127,123.0
1803,C4,231.5,0.5,90,123.0
1804,C5,231.5,0.5,90,123.0
1805,B-1,232.0,4.0,120,123.0
1806,D4,232.0,0.5,110,123.0
1807,F4,232.0,0.5,110,123.0
1808,B4,232.0,0.5,110,123.0
1809,C4,232.0,4.0,90,123.0
1810,C5,232.0,4.0,90,123.0
1811,F#2,233.0,1.0,90,123.0
1812,C4,233.5,0.5,110,123.0
1813,E4,233.5,0.5,110,123.0
1814,G4,233.5,0.5,110,123.0
1815,B4,233.5,0.5,110,123.0
1816,F#2,234.0,1.0,90,123.0
1817,C4,234.0,0.5,110,123.0
1818,E4,234.0,0.5,110,123.0
1819,G4,234.0,0.5,110,123.0
1820,B4,234.0,0.5,110,123.0
1821,C4,234.5,0.25,110,123.0
1822,G4,234.5,0.25,110,123.0
1823,E4,234.5,0.25,110,123.0
1824,B4,234.5,0.25,110,123.0
1825,F#2,235.0,1.0,90,123.0
1826,C4,235.0,0.5,110,123.0
1827,G4,235.0,0.5,110,123.0
1828,E4,235.0,0.5,110,123.0
1829,B4,235.0,0.5,110,123.0
1830,F#2,236.0,1.0,90,123.0
1831,B-1,236.0,2.5,120,123.0
1832,E4,236.0,0.5,110,123.0
1833,G4,236.0,0.5,110,123.0
1834,B4,236.0,0.5,110,123.0
1835,E-4,236.0,0.5,110,123.0
1836,F#2,237.0,1.0,90,123.0
1837,B-4,237.5,0.5,110,123.0
1838,C5,237.5,0.5,110,123.0
1839,G4,237.5,0.5,110,123.0
1840,E4,237.5,0.5,110,123.0
1841,F#2,238.0,1.0,90,123.0
1842,B-4,238.0,1.5,110,123.0
1843,C5,238.0,1.75,110,123.0
1844,G4,238.0,8.0,110,123.0
1845,E4,238.0,8.0,110,123.0
1846,F#2,239.0,1.0,90,123.0
1847,A4,239.0,0.25,100,123.0
1848,B-4,239.25,2.75,100,123.0
1849,C5,239.5,2.5,100,123.0
1850,D5,239.75,0.25,101,123.0
1851,E-5,240.0,0.25,101,123.0
1852,E1,240.0,2.0,120,123.0
1853,B4,240.0,2.0,100,123.0
1854,F#2,240.0,0.5,108,123.0
1855,B1,240.0,0.5,108,123.0
1856,F5,240.25,0.25,101,123.0
1857,D5,240.5,0.25,101,123.0
1858,E-5,240.75,0.25,101,123.0
1859,F5,241.0,0.25,101,123.0
1860,F#2,241.0,0.5,108,123.0
1861,C#2,241.0,0.5,108,123.0
1862,G5,241.25,0.25,102,123.0
1863,C6,241.5,0.25,102,123.0
1864,G5,241.75,0.25,102,123.0
1865,F#1,242.0,1.5,120,123.0
1866,E4,242.0,2.0,100,123.0
1867,F#2,242.0,0.5,108,123.0
1868,B1,242.0,0.5,108,123.0
1869,F#2,243.0,0.5,108,123.0
1870,C#2,243.0,0.5,108,123.0
1871,B-2,243.5,0.5,90,123.0
1872,G1,243.5,0.5,120,123.0
1873,F#2,244.0,0.5,90,123.0
1874,G1,244.0,0.25,120,123.0
1875,C2,245.0,1333/1000,120,123.0
1876,B-2,245.0,0.5,108,123.0
1877,B1,245.0,0.5,108,123.0
1878,F#2,246.0,0.5,90,123.0
1879,A5,246.0,0.25,102,123.0
1880,B-4,246.0,4.0,100,123.0
1881,C5,246.0,4.0,100,123.0
1882,D4,246.0,0.5,100,123.0
1883,B-5,246.25,0.25,102,123.0
1884,C6,246.5,0.25,102,123.0
1885,E4,246.5,0.5,100,123.0
1886,E-6,246.75,0.25,102,123.0
1887,F6,247.0,0.25,103,123.0
1888,B1,247.0,479/500,120,123.0
1889,G4,247.0,0.5,100,123.0
1890,F#2,247.0,0.5,108,123.0
1891,C#2,247.0,0.5,108,123.0
1892,G6,247.25,0.25,103,123.0
1893,B-2,247.5,0.5,90,123.0
1894,B-6,247.5,0.25,103,123.0
1895,C5,247.5,0.5,100,123.0
1896,C7,247.75,0.25,103,123.0
1897,B-1,248.0,1.5,120,123.0
1898,A4,248.0,2.0,100,123.0
1899,F#2,248.0,0.5,108,123.0
1900,B1,248.0,0.5,108,123.0
1901,F6,248.25,0.25,103,123.0
1902,B-6,248.5,0.25,104,123.0
1903,F#2,249.0,0.5,108,123.0
1904,C#2,249.0,0.5,108,123.0
1905,D2,249.5,0.5,120,123.0
1906,E3,250.0,4.0,100,123.0
1907,B3,250.0,3.5,100,123.0
1908,E-2,250.0,1.0,120,123.0
1909,D4,250.0,2.0,100,123.0
1910,B-2,250.0,0.5,108,123.0
1911,B1,250.0,0.5,108,123.0
1912,F#3,250.5,0.5,100,123.0
1913,G#3,251.0,0.5,100,123.0
1914,F#2,251.0,0.5,108,123.0
1915,C#2,251.0,0.5,108,123.0
1916,E4,251.5,0.5,100,123.0
1917,A1,251.5,0.5,120,123.0
1918,F#2,252.0,0.5,90,123.0
1919,A1,252.0,0.25,120,123.0
1920,G#4,252.0,2.0,100,123.0
1921,E4,252.0,2.0,100,123.0
1922,C#4,252.0,2.0,100,123.0
1923,A3,252.5,0.5,100,123.0
1924,B3,253.0,1.0,100,123.0
1925,D2,253.0,729/500,120,123.0
1926,C#4,253.0,1.0,100,123.0
1927,B-2,253.0,0.5,108,123.0
1928,B1,253.0,0.5,108,123.0
1929,G4,253.5,0.5,100,123.0
1930,C4,253.5,0.5,100,123.0
1931,E4,253.5,0.5,100,123.0
1932,C5,253.5,0.5,100,123.0
1933,F#2,254.0,0.5,90,123.0
1934,E4,254.0,0.5,100,123.0
1935,B-2,254.5,0.5,90,123.0
1936,E-2,254.5,1.5,120,123.0
1937,E-4,254.5,1.0,100,123.0
1938,D4,254.958,0.5,100,123.0
1939,G4,254.958,0.5,100,123.0
1940,C4,254.958,479/500,100,123.0
1941,E4,254.958,479/500,100,123.0
1942,C5,254.958,479/500,100,123.0
1943,F#2,255.0,0.5,108,123.0
1944,C#2,255.0,0.5,108,123.0
1945,G4,255.458,0.5,100,123.0
1946,B-2,255.5,0.5,90,123.0
1947,F#4,255.5,0.5,100,123.0
1948,E4,255.958,2.0,100,123.0
1949,G4,255.958,2.0,100,123.0
1950,B4,255.958,2.0,100,123.0
1951,E1,256.0,2.0,120,123.0
1952,B4,256.0,2.0,100,123.0
1953,F#2,256.0,0.5,108,123.0
1954,B1,256.0,0.5,108,123.0
1955,F#2,257.0,0.5,108,123.0
1956,C#2,257.0,0.5,108,123.0
1957,F4,257.958,1.0,101,123.0
1958,E-4,257.958,1.0,101,123.0
1959,A4,257.958,1.0,101,123.0
1960,F#1,258.0,1.5,120,123.0
1961,E4,258.0,2.0,100,123.0
1962,F#2,258.0,0.5,108,123.0
1963,B1,258.0,0.5,108,123.0
1964,A4,258.958,0.5,101,123.0
1965,D4,258.958,1.0,101,123.0
1966,F#2,259.0,0.5,108,123.0
1967,C#2,259.0,0.5,108,123.0
1968,A4,259.458,0.5,101,123.0
1969,G1,259.5,0.5,120,123.0
1970,B1,259.5,0.5,108,123.0
1971,B-2,259.5,0.5,108,123.0
1972,F4,259.958,0.5,101,123.0
1973,F#2,260.0,0.5,90,123.0
1974,G1,260.0,0.25,120,123.0
1975,D4,260.458,0.5,101,123.0
1976,G4,260.958,1.0,101,123.0
1977,D5,260.958,0.5,101,123.0
1978,B-3,260.958,0.5,101,123.0
1979,C2,261.0,1333/1000,120,123.0
1980,B-2,261.0,0.5,108,123.0
1981,B1,261.0,0.5,108,123.0
1982,B-4,261.458,0.5,101,123.0
1983,G4,261.958,0.5,101,123.0
1984,F#2,262.0,0.5,90,123.0
1985,D4,262.0,0.5,100,123.0
1986,A4,262.458,0.5,101,123.0
1987,B3,262.458,0.5,101,123.0
1988,E4,262.458,0.5,101,123.0
1989,E4,262.5,0.5,100,123.0
1990,B1,263.0,479/500,120,123.0
1991,G4,263.0,0.5,100,123.0
1992,F#2,263.0,0.5,108,123.0
1993,C#2,263.0,0.5,108,123.0
1994,C5,263.5,0.5,100,123.0
1995,B1,263.5,0.5,108,123.0
1996,B-2,263.5,0.5,108,123.0
1997,B-1,264.0,1.5,120,123.0
1998,A4,264.0,2.0,100,123.0
1999,F#2,264.0,0.5,108,123.0
2000,B1,264.0,0.5,108,123.0
2001,A4,264.458,0.5,101,123.0
2002,B3,264.458,1.5,101,123.0
2003,E4,264.458,1.5,101,123.0
2004,A5,264.958,0.5,101,123.0
2005,F#2,265.0,0.5,108,123.0
2006,C#2,265.0,0.5,108,123.0
2007,F#5,265.458,2.0,102,123.0
2008,F#4,265.458,1.5,102,123.0
2009,A4,265.458,1.5,102,123.0
2010,C#5,265.458,1.5,102,123.0
2011,D2,265.5,0.5,120,123.0
2012,E-2,266.0,1.0,120,123.0
2013,D4,266.0,2.0,100,123.0
2014,B-2,266.0,0.5,108,123.0
2015,B1,266.0,0.5,108,123.0
2016,F#4,266.958,1.5,102,123.0
2017,A4,266.958,1.5,102,123.0
2018,E-5,266.958,1.5,102,123.0
2019,F#2,267.0,0.5,108,123.0
2020,C#2,267.0,0.5,108,123.0
2021,A1,267.5,0.5,120,123.0
2022,A1,268.0,0.25,120,123.0
2023,F#2,268.0,0.5,108,123.0
2024,B1,268.0,0.5,108,123.0
2025,E3,268.458,4.0,102,123.0
2026,B3,268.458,3.5,102,123.0
2027,F#3,268.958,0.5,102,123.0
2028,D2,269.0,1.5,120,123.0
2029,C#4,269.0,1.0,100,123.0
2030,F#2,269.0,0.5,108,123.0
2031,C#2,269.0,0.5,108,123.0
2032,G#3,269.458,0.5,102,123.0
2033,B-2,269.5,0.5,90,123.0
2034,E2,269.75,0.25,127,123.0
2035,E4,269.958,0.5,102,123.0
2036,B1,270.0,0.5,127,123.0
2037,E4,270.0,0.5,100,123.0
2038,G#4,270.458,2.0,102,123.0
2039,E4,270.458,2.0,102,123.0
2040,C#4,270.458,2.0,102,123.0
2041,B1,270.5,0.5,127,123.0
2042,C#2,270.5,1.5,120,123.0
2043,G4,270.5,1.0,100,123.0
2044,A3,270.958,0.5,102,123.0
2045,E2,271.0,0.5,127,123.0
2046,B3,271.458,1.0,102,123.0
2047,B1,271.5,0.5,127,123.0
2048,B4,271.5,0.5,100,123.0
2049,G4,271.958,0.5,103,123.0
2050,C4,271.958,0.5,103,123.0
2051,E4,271.958,0.5,103,123.0
2052,C5,271.958,0.5,103,123.0
2053,C2,272.0,1.0,120,123.0
2054,D5,272.0,2.0,100,123.0
2055,C#3,272.0,0.5,109,123.0
2056,F#2,272.0,0.5,109,123.0
2057,B1,272.0,0.5,109,123.0
2058,G1,273.0,0.5,120,123.0
2059,F#2,273.0,0.5,109,123.0
2060,E-3,273.0,0.5,109,123.0
2061,E2,273.0,0.5,109,123.0
2062,D4,273.417,0.5,103,123.0
2063,G4,273.417,0.5,103,123.0
2064,C4,273.417,479/500,103,123.0
2065,E4,273.417,479/500,103,123.0
2066,C5,273.417,479/500,103,123.0
2067,F1,273.5,0.5,120,123.0
2068,C5,273.5,1.5,100,123.0
2069,G4,273.917,0.5,103,123.0
2070,F#2,274.0,0.5,109,123.0
2071,E-3,274.0,0.5,109,123.0
2072,B1,274.0,0.5,109,123.0
2073,E4,274.417,2.0,103,123.0
2074,G4,274.417,2.0,103,123.0
2075,B4,274.417,2.0,103,123.0
2076,G1,274.5,0.5,120,123.0
2077,G#1,275.0,0.5,120,123.0
2078,F#2,275.0,0.5,109,123.0
2079,E-3,275.0,0.5,109,123.0
2080,E2,275.0,0.5,109,123.0
2081,A1,275.5,0.5,120,123.0
2082,B4,275.5,0.5,100,123.0
2083,A1,276.0,0.5,120,123.0
2084,B4,276.0,1.0,100,123.0
2085,F#2,276.0,0.5,109,123.0
2086,E-3,276.0,0.5,109,123.0
2087,B1,276.0,0.5,109,123.0
2088,F4,276.417,1.0,103,123.0
2089,E-4,276.417,1.0,103,123.0
2090,A4,276.417,1.0,103,123.0
2091,C#2,276.5,0.5,120,123.0
2092,D2,277.0,2.0,120,123.0
2093,A4,277.0,3.0,100,123.0
2094,F#2,277.0,0.5,109,123.0
2095,E-3,277.0,0.5,109,123.0
2096,E2,277.0,0.5,109,123.0
2097,A4,277.417,0.5,103,123.0
2098,D4,277.417,1.0,103,123.0
2099,A4,277.917,0.5,103,123.0
2100,F#2,278.0,0.5,109,123.0
2101,E-3,278.0,0.5,109,123.0
2102,B1,278.0,0.5,109,123.0
2103,F4,278.417,0.5,103,123.0
2104,D4,278.917,0.5,103,123.0
2105,D2,279.0,0.5,120,123.0
2106,F#2,279.0,0.5,109,123.0
2107,E-3,279.0,0.5,109,123.0
2108,E2,279.0,0.5,109,123.0
2109,G4,279.417,1.0,104,123.0
2110,D5,279.417,0.5,104,123.0
2111,B-3,279.417,0.5,104,123.0
2112,A1,279.5,0.5,120,123.0
2113,B-4,279.917,0.5,104,123.0
2114,G1,280.0,1.0,120,123.0
2115,A4,280.0,1.5,100,123.0
2116,F#2,280.0,0.5,109,123.0
2117,E-3,280.0,0.5,109,123.0
2118,B1,280.0,0.5,109,123.0
2119,G4,280.417,0.5,104,123.0
2120,A4,280.917,0.5,104,123.0
2121,B3,280.917,0.5,104,123.0
2122,E4,280.917,0.5,104,123.0
2123,D2,281.0,0.5,120,123.0
2124,F#2,281.0,0.5,109,123.0
2125,E-3,281.0,0.5,109,123.0
2126,E2,281.0,0.5,109,123.0
2127,C2,281.5,1333/1000,120,123.0
2128,G4,281.5,1.5,100,123.0
2129,F#2,282.0,0.5,109,123.0
2130,E-3,282.0,0.5,109,123.0
2131,B1,282.0,0.5,109,123.0
2132,A4,282.917,0.5,104,123.0
2133,B3,282.917,1.5,104,123.0
2134,E4,282.917,1.5,104,123.0
2135,E-2,283.0,0.5,120,123.0
2136,F#2,283.0,0.5,109,123.0
2137,E-3,283.0,0.5,109,123.0
2138,E2,283.0,0.5,109,123.0
2139,A5,283.417,0.5,104,123.0
2140,E2,283.5,0.5,120,123.0
2141,F#4,283.5,0.5,100,123.0
2142,F#5,283.917,2.0,104,123.0
2143,F#4,283.917,1.5,104,123.0
2144,A4,283.917,1.5,104,123.0
2145,C#5,283.917,1.5,104,123.0
2146,E2,284.0,417/1000,120,123.0
2147,F#4,284.0,1.0,100,123.0
2148,F#2,284.0,0.5,109,123.0
2149,E-3,284.0,0.5,109,123.0
2150,B1,284.0,0.5,109,123.0
2151,B2,284.5,0.5,120,123.0
2152,A2,285.0,2.0,120,123.0
2153,E4,285.0,3.0,100,123.0
2154,F#2,285.0,0.5,109,123.0
2155,E-3,285.0,0.5,109,123.0
2156,E2,285.0,0.5,109,123.0
2157,A4,285.417,1.5,104,123.0
2158,G4,285.417,1.5,104,123.0
2159,E-4,285.417,1.5,104,123.0
2160,F#2,286.0,0.5,109,123.0
2161,E-3,286.0,0.5,109,123.0
2162,B1,286.0,0.5,109,123.0
2163,E2,286.75,0.25,127,123.0
2164,D5,286.917,0.75,110,123.0
2165,F4,286.917,0.75,110,123.0
2166,B-4,286.917,0.75,110,123.0
2167,F5,286.917,0.75,110,123.0
2168,A1,287.0,1.0,120,123.0
2169,F#2,287.0,0.5,100,123.0
2170,E-3,287.0,0.5,100,123.0
2171,B1,287.5,0.25,127,123.0
2172,D5,287.667,0.25,110,123.0
2173,F4,287.667,0.25,110,123.0
2174,B-4,287.667,0.25,110,123.0
2175,F5,287.667,0.25,110,123.0
2176,C2,288.0,1.0,120,123.0
2177,D5,288.0,2.0,100,123.0
2178,G3,288.0,0.5,109,123.0
2179,F#2,288.0,0.5,109,123.0
2180,B1,288.0,0.5,109,123.0
2181,E4,288.417,2.0,110,123.0
2182,A4,288.417,2.0,110,123.0
2183,C5,288.417,2.0,110,123.0
2184,E5,288.417,2.0,110,123.0
2185,G1,289.0,0.5,120,123.0
2186,F#2,289.0,0.5,109,123.0
2187,E-3,289.0,0.5,109,123.0
2188,E2,289.0,0.5,109,123.0
2189,F1,289.5,0.5,120,123.0
2190,C5,289.5,1.5,100,123.0
2191,F#2,290.0,0.5,109,123.0
2192,E-3,290.0,0.5,109,123.0
2193,B1,290.0,0.5,109,123.0
2194,D4,290.417,0.5,110,123.0
2195,B4,290.417,0.5,110,123.0
2196,G4,290.417,0.5,110,123.0
2197,D5,290.417,0.5,110,123.0
2198,G1,290.5,0.5,120,123.0
2199,D4,290.917,1.0,110,123.0
2200,B4,290.917,1.0,110,123.0
2201,G4,290.917,1.0,110,123.0
2202,D5,290.917,1.0,110,123.0
2203,G#1,291.0,0.5,120,123.0
2204,F#2,291.0,0.5,109,123.0
2205,E-3,291.0,0.5,109,123.0
2206,E2,291.0,0.5,109,123.0
2207,A4,291.417,0.25,110,123.0
2208,E5,291.417,0.25,110,123.0
2209,A1,291.5,0.5,120,123.0
2210,B4,291.5,0.5,100,123.0
2211,G4,291.667,0.25,110,123.0
2212,D5,291.667,0.25,110,123.0
2213,A4,291.917,2.0,110,123.0
2214,C#5,291.917,2.0,110,123.0
2215,D4,291.917,3.0,110,123.0
2216,F#4,291.917,3.0,110,123.0
2217,A1,292.0,0.5,120,123.0
2218,B4,292.0,1.0,100,123.0
2219,F#2,292.0,0.5,109,123.0
2220,E-3,292.0,0.5,109,123.0
2221,B1,292.0,0.5,109,123.0
2222,C#2,292.5,0.5,120,123.0
2223,D2,293.0,3.0,120,123.0
2224,A4,293.0,3.0,100,123.0
2225,F#2,293.0,0.5,109,123.0
2226,E-3,293.0,0.5,109,123.0
2227,E2,293.0,0.5,109,123.0
2228,E4,293.417,0.25,110,123.0
2229,C#5,293.667,1.25,110,123.0
2230,A4,293.667,1.25,110,123.0
2231,A4,293.917,1.0,110,123.0
2232,C#5,293.917,1.0,110,123.0
2233,F#5,293.917,1.0,110,123.0
2234,F#2,294.0,0.5,109,123.0
2235,E-3,294.0,0.5,109,123.0
2236,B1,294.0,0.5,109,123.0
2237,D4,294.917,1.5,110,123.0
2238,C5,294.917,1.5,110,123.0
2239,A4,294.917,1.5,110,123.0
2240,F4,294.917,1.5,110,123.0
2241,F#2,295.0,0.5,109,123.0
2242,E-3,295.0,0.5,109,123.0
2243,E2,295.0,0.5,109,123.0
2244,E2,295.25,0.25,127,123.0
2245,D5,295.917,0.5,110,123.0
2246,B1,296.0,0.5,127,123.0
2247,G3,296.0,0.25,90,123.0
2248,F#2,296.0,1.0,85,123.0
2249,G2,296.0,1.5,120,123.0
2250,A4,296.0,1.5,90,123.0
2251,E-3,296.25,0.25,90,123.0
2252,B3,296.417,1.5,110,123.0
2253,E4,296.417,1.5,110,123.0
2254,G4,296.417,1.5,110,123.0
2255,B4,296.417,1.5,110,123.0
2256,E-3,296.5,0.25,75,123.0
2257,E-3,296.75,0.25,90,123.0
2258,F#2,297.0,1.0,85,123.0
2259,B3,297.0,0.25,90,123.0
2260,B1,297.0,0.5,127,123.0
2261,E-3,297.25,0.25,90,123.0
2262,B3,297.5,0.25,75,123.0
2263,C3,297.5,1.5,120,123.0
2264,G4,297.5,1.5,90,123.0
2265,E-3,297.75,0.25,90,123.0
2266,F#2,298.0,1.0,85,123.0
2267,B3,298.0,0.25,90,123.0
2268,E-3,298.25,0.25,90,123.0
2269,D4,298.417,0.5,110,123.0
2270,F4,298.417,0.5,110,123.0
2271,A4,298.417,0.5,110,123.0
2272,B-2,298.5,0.25,80,123.0
2273,E-3,298.75,0.25,90,123.0
2274,D4,298.917,1.0,110,123.0
2275,F4,298.917,1.0,110,123.0
2276,A4,298.917,1.0,110,123.0
2277,F#2,299.0,1.0,85,123.0
2278,B3,299.0,0.25,90,123.0
2279,B1,299.0,0.5,127,123.0
2280,E-3,299.25,0.25,90,123.0
2281,B3,299.5,0.25,75,123.0
2282,E-3,299.75,0.25,90,123.0
2283,C#4,299.917,2.5,110,123.0
2284,E4,299.917,1.75,110,123.0
2285,G#4,299.917,2.0,110,123.0
2286,F#2,300.0,1.0,85,123.0
2287,B3,300.0,0.25,90,123.0
2288,F2,300.0,1.0,120,123.0
2289,G4,300.0,1.5,90,123.0
2290,E-3,300.25,0.25,90,123.0
2291,B3,300.5,0.25,75,123.0
2292,E-3,300.75,0.25,90,123.0
2293,F#2,301.0,1.0,85,123.0
2294,B3,301.0,0.25,90,123.0
2295,B1,301.0,0.5,127,123.0
2296,C3,301.0,0.5,120,123.0
2297,E-3,301.25,0.25,90,123.0
2298,E4,301.417,1.0,110,123.0
2299,B3,301.5,0.25,75,123.0
2300,B-2,301.5,1.5,120,123.0
2301,F4,301.5,1.5,90,123.0
2302,G#4,301.667,0.75,110,123.0
2303,E-3,301.75,0.25,90,123.0
2304,G#4,301.917,1.0,110,123.0
2305,C#5,301.917,1.0,110,123.0
2306,E5,301.917,1.0,110,123.0
2307,F#2,302.0,1.0,85,123.0
2308,B3,302.0,0.25,90,123.0
2309,E-3,302.25,0.25,90,123.0
2310,B-2,302.5,0.25,80,123.0
2311,E-3,302.75,0.25,90,123.0
2312,D5,302.917,0.75,110,123.0
2313,F4,302.917,0.75,110,123.0
2314,B-4,302.917,0.75,110,123.0
2315,F5,302.917,0.75,110,123.0
2316,F#2,303.0,1.0,85,123.0
2317,B3,303.0,0.25,90,123.0
2318,B1,303.0,0.5,127,123.0
2319,E-3,303.25,0.25,90,123.0
2320,B3,303.5,0.25,75,123.0
2321,D5,303.667,0.25,110,123.0
2322,F4,303.667,0.25,110,123.0
2323,B-4,303.667,0.25,110,123.0
2324,F5,303.667,0.25,110,123.0
2325,E-3,303.75,0.25,90,123.0
2326,B3,304.0,0.25,75,123.0
2327,F#2,304.0,1.0,85,123.0
2328,E-2,304.0,1.5,120,123.0
2329,F4,304.0,1.5,90,123.0
2330,E4,304.417,2.0,110,123.0
2331,A4,304.417,2.0,110,123.0
2332,C5,304.417,2.0,110,123.0
2333,E5,304.417,2.0,110,123.0
2334,E-3,304.5,0.25,75,123.0
2335,B3,305.0,0.25,75,123.0
2336,F#2,305.0,1.0,85,123.0
2337,E-3,305.5,0.25,75,123.0
2338,G#2,305.5,1.0,120,123.0
2339,E-4,305.5,1.5,90,123.0
2340,B3,306.0,0.25,75,123.0
2341,F#2,306.0,1.0,85,123.0
2342,D4,306.417,0.5,110,123.0
2343,B4,306.417,0.5,110,123.0
2344,G4,306.417,0.5,110,123.0
2345,D5,306.417,0.5,110,123.0
2346,E-3,306.5,0.25,75,123.0
2347,E-3,306.5,0.5,120,123.0
2348,F4,306.5,1.5,90,123.0
2349,D4,306.917,1.0,110,123.0
2350,B4,306.917,1.0,110,123.0
2351,G4,306.917,1.0,110,123.0
2352,D5,306.917,1.0,110,123.0
2353,G3,307.0,0.25,75,123.0
2354,F#2,307.0,1.0,85,123.0
2355,B1,307.0,0.5,127,123.0
2356,D3,307.0,1.0,120,123.0
2357,D4,307.0,1.0,90,123.0
2358,A4,307.417,0.25,110,123.0
2359,E5,307.417,0.25,110,123.0
2360,G4,307.667,0.25,110,123.0
2361,D5,307.667,0.25,110,123.0
2362,A4,307.917,3.0,110,123.0
2363,D4,307.917,3.0,110,123.0
2364,F#4,307.917,3.0,110,123.0
2365,C#5,307.917,3.0,110,123.0
2366,F#2,308.0,1.0,85,123.0
2367,D3,308.0,3.75,120,123.0
2368,D4,308.0,1.0,90,123.0
2369,B1,309.0,0.5,127,123.0
2370,F#2,309.0,1.0,85,123.0
2371,E5,309.417,0.5,110,123.0
2372,F#5,309.917,0.25,110,123.0
2373,F#2,310.0,1.0,85,123.0
2374,E5,310.167,0.75,110,123.0
2375,A5,310.167,0.75,110,123.0
2376,A5,310.917,0.5,110,123.0
2377,C4,310.917,1.5,110,123.0
2378,E4,310.917,1.5,110,123.0
2379,C5,310.917,1.5,110,123.0
2380,G4,310.917,1.5,110,123.0
2381,F#2,311.0,1.0,85,123.0
2382,C6,311.417,0.5,110,123.0
2383,A5,311.917,167/1000,110,123.0
2384,E3,312.0,1.0,85,123.0
2385,D4,312.0,4.0,80,123.0
2386,G5,312.417,2.5,110,123.0
2387,B4,312.417,2.5,110,123.0
2388,B3,312.417,2.5,110,123.0
2389,E4,312.417,2.5,110,123.0
2390,G4,312.417,2.5,110,123.0
2391,G5,314.917,0.5,110,123.0
2392,G4,314.917,1.5,110,123.0
2393,B-3,314.917,1.5,110,123.0
2394,E-4,314.917,1.5,110,123.0
2395,B-5,315.417,0.5,110,123.0
2396,G5,315.917,0.25,110,123.0
2397,G3,316.0,0.25,65,123.0
2398,G4,316.0,0.25,65,123.0
2399,F5,316.417,0.5,110,123.0
2400,F4,316.417,1.5,110,123.0
2401,B-3,316.417,1.5,110,123.0
2402,D4,316.417,1.5,110,123.0
2403,G3,316.5,0.25,65,123.0
2404,D4,316.75,0.25,65,123.0
2405,G3,317.0,0.25,65,123.0
2406,G4,317.25,0.25,65,123.0
2407,G3,317.5,0.25,65,123.0
2408,G4,318.0,0.25,65,123.0
2409,G3,318.0,0.25,65,123.0
2410,F5,318.417,0.25,110,123.0
2411,G3,318.5,0.25,65,123.0
2412,G5,318.667,0.25,110,123.0
2413,D4,318.75,0.25,65,123.0
2414,G#5,318.917,0.5,110,123.0
2415,E-5,318.917,1.5,110,123.0
2416,B-4,318.917,1.5,110,123.0
2417,F4,318.917,1.5,110,123.0
2418,G3,319.0,0.25,65,123.0
2419,G4,319.25,0.25,65,123.0
2420,G5,319.417,0.5,110,123.0
2421,G3,319.5,0.25,65,123.0
2422,F5,319.917,0.5,110,123.0
2423,F#2,320.0,1.0,85,123.0
2424,A1,320.0,2.0,120,123.0
2425,G3,320.0,0.25,65,123.0
2426,G4,320.0,0.25,65,123.0
2427,G5,320.417,0.5,110,123.0
2428,G4,320.417,1.5,110,123.0
2429,C5,320.417,1.5,110,123.0
2430,G3,320.5,0.25,65,123.0
2431,D4,320.75,0.25,65,123.0
2432,E-5,320.917,0.5,110,123.0
2433,G3,321.0,0.25,65,123.0
2434,F#2,321.0,1.0,106,123.0
2435,B1,321.0,1.0,106,123.0
2436,G4,321.25,0.25,65,123.0
2437,B-4,321.417,0.5,110,123.0
2438,G3,321.5,0.25,65,123.0
2439,D4,321.917,1.0,110,123.0
2440,B4,321.917,1.0,110,123.0
2441,G4,321.917,1.0,110,123.0
2442,D5,321.917,1.0,110,123.0
2443,F#2,322.0,1.0,85,123.0
2444,B1,322.0,2.0,120,123.0
2445,G4,322.0,0.25,65,123.0
2446,G3,322.0,0.25,65,123.0
2447,G3,322.5,0.25,65,123.0
2448,D4,322.75,0.25,65,123.0
2449,G3,323.0,0.25,65,123.0
2450,F#2,323.0,1.0,106,123.0
2451,B1,323.0,1.0,106,123.0
2452,G4,323.25,0.25,65,123.0
2453,G3,323.5,0.25,65,123.0
2454,F#2,324.0,1.0,85,123.0
2455,C2,324.0,2.0,120,123.0
2456,G3,324.0,0.25,65,123.0
2457,G4,324.0,0.25,65,123.0
2458,G3,324.5,0.25,65,123.0
2459,D4,324.75,0.25,65,123.0
2460,F#2,325.0,1.0,85,123.0
2461,B1,325.0,0.25,127,123.0
2462,G3,325.0,0.25,65,123.0
2463,G4,325.25,0.25,65,123.0
2464,B1,325.5,0.25,127,123.0
2465,G3,325.5,0.25,65,123.0
2466,D4,325.917,4.0,110,123.0
2467,B4,325.917,1.5,110,123.0
2468,G4,325.917,3.0,110,123.0
2469,D5,325.917,3.0,110,123.0
2470,F#2,326.0,1.0,85,123.0
2471,D2,326.0,1.0,120,123.0
2472,G4,326.0,0.25,65,123.0
2473,G3,326.0,0.25,65,123.0
2474,B1,326.25,0.25,127,123.0
2475,G3,326.5,0.25,65,123.0
2476,D4,326.75,0.25,65,123.0
2477,F#2,327.0,1.0,85,123.0
2478,B1,327.0,0.25,127,123.0
2479,E2,327.0,0.25,120,123.0
2480,G3,327.0,0.25,65,123.0
2481,G4,327.25,0.25,65,123.0
2482,B4,327.417,0.25,110,123.0
2483,G2,327.5,0.25,120,123.0
2484,G3,327.5,0.25,65,123.0
2485,C5,327.667,0.25,110,123.0
2486,A2,327.75,0.25,120,123.0
2487,G5,327.917,1.5,110,123.0
2488,F#2,328.0,1.0,85,123.0
2489,A1,328.0,2.0,120,123.0
2490,G3,328.0,0.25,65,123.0
2491,G4,328.0,0.25,65,123.0
2492,G3,328.5,0.25,65,123.0
2493,D4,328.75,0.25,65,123.0
2494,G3,329.0,0.25,65,123.0
2495,F#2,329.0,1.0,106,123.0
2496,B1,329.0,1.0,106,123.0
2497,G4,329.25,0.25,65,123.0
2498,F#5,329.417,0.25,110,123.0
2499,G3,329.5,0.25,65,123.0
2500,G5,329.667,0.25,110,123.0
2501,D6,329.917,1.0,110,123.0
2502,D4,329.917,1.5,110,123.0
2503,F#2,330.0,1.0,85,123.0
2504,B1,330.0,2.0,120,123.0
2505,G4,330.0,0.25,65,123.0
2506,G3,330.0,0.25,65,123.0
2507,B5,330.417,0.25,110,123.0
2508,G3,330.5,0.25,65,123.0
2509,C6,330.667,0.25,110,123.0
2510,D4,330.75,0.25,65,123.0
2511,G6,330.917,2.0,110,123.0
2512,G3,331.0,0.25,65,123.0
2513,F#2,331.0,1.0,106,123.0
2514,B1,331.0,1.0,106,123.0
2515,G4,331.25,0.25,65,123.0
2516,G3,331.5,0.25,65,123.0
2517,B-2,332.0,0.25,95,123.0
2518,E6,332.417,0.25,110,123.0
2519,E2,332.5,0.25,127,123.0
2520,B3,332.5,0.25,105,123.0
2521,F#6,332.667,0.25,110,123.0
2522,A3,332.75,0.25,105,123.0
2523,D7,332.917,1.0,110,123.0
2524,G3,333.0,0.25,105,123.0
2525,B2,333.25,0.25,127,123.0
2526,E3,333.25,0.25,105,123.0
2527,C3,333.5,0.25,110,123.0
2528,D7,333.917,3.0,110,123.0
2529,G2,334.0,0.25,127,123.0
2530,F1,334.0,0.25,120,123.0
2531,E2,334.75,0.25,127,123.0
2532,A4,334.958,33/1000,100,123.0
2533,A3,334.958,33/1000,100,123.0
2534,E2,335.0,0.25,127,123.0
2535,E1,335.0,1.0,120,123.0
2536,B3,335.0,0.5,100,123.0
2537,B4,335.0,0.5,100,123.0
2538,B-2,335.5,0.5,95,123.0
2539,E4,335.5,123/250,100,123.0
2540,E5,335.5,123/250,100,123.0
2541,A1,336.0,0.25,120,123.0
2542,F#2,336.0,0.25,108,123.0
2543,B1,336.0,0.25,108,123.0
2544,D4,336.0,1.0,80,123.0
2545,D5,336.0,1.0,80,123.0
2546,F#2,337.0,0.25,108,123.0
2547,C#2,337.0,0.25,108,123.0
2548,B1,337.5,0.25,127,123.0
2549,A1,337.5,0.25,120,123.0
2550,A3,337.917,2.0,96,123.0
2551,B1,338.0,0.25,120,123.0
2552,G4,338.0,229/500,100,123.0
2553,F#2,338.0,0.25,108,123.0
2554,B1,338.0,0.25,108,123.0
2555,G4,338.417,0.25,110,123.0
2556,E4,338.5,0.25,100,123.0
2557,C5,338.667,0.25,110,123.0
2558,G4,338.917,0.25,110,123.0
2559,G4,339.0,0.25,100,123.0
2560,F#2,339.0,0.25,108,123.0
2561,C#2,339.0,0.25,108,123.0
2562,G5,339.167,0.25,110,123.0
2563,G4,339.25,0.25,100,123.0
2564,G4,339.417,0.25,110,123.0
2565,B1,339.5,0.25,120,123.0
2566,E4,339.5,0.25,100,123.0
2567,C5,339.667,0.25,110,123.0
2568,B3,339.917,2.0,96,123.0
2569,D5,339.917,0.5,110,123.0
2570,C2,340.0,333/1000,120,123.0
2571,G4,340.0,229/500,100,123.0
2572,F#2,340.0,0.25,108,123.0
2573,B1,340.0,0.25,108,123.0
2574,G4,340.417,0.5,110,123.0
2575,A4,340.5,0.75,100,123.0
2576,D5,340.917,0.5,110,123.0
2577,F#2,341.0,0.25,108,123.0
2578,C#2,341.0,0.25,108,123.0
2579,G5,341.417,0.5,110,123.0
2580,B1,341.5,0.25,127,123.0
2581,C2,341.5,333/1000,105,123.0
2582,C4,341.917,2.0,96,123.0
2583,D2,342.0,0.25,120,123.0
2584,F#2,342.0,0.25,108,123.0
2585,B1,342.0,0.25,108,123.0
2586,G4,342.417,0.25,110,123.0
2587,C5,342.667,0.25,110,123.0
2588,G4,342.917,0.25,110,123.0
2589,A4,342.958,33/1000,100,123.0
2590,A3,342.958,33/1000,100,123.0
2591,E2,343.0,0.5,110,123.0
2592,F#2,343.0,0.25,108,123.0
2593,C#2,343.0,0.25,108,123.0
2594,B3,343.0,0.5,100,123.0
2595,B4,343.0,0.5,100,123.0
2596,G5,343.167,0.25,110,123.0
2597,G4,343.417,0.25,110,123.0
2598,G2,343.5,0.5,110,123.0
2599,E4,343.5,123/250,100,123.0
2600,E5,343.5,123/250,100,123.0
2601,C5,343.667,0.25,110,123.0
2602,D4,343.917,2.0,96,123.0
2603,D5,343.917,0.5,110,123.0
2604,A1,344.0,0.25,120,123.0
2605,F#2,344.0,0.25,108,123.0
2606,B1,344.0,0.25,108,123.0
2607,D4,344.0,1.0,80,123.0
2608,D5,344.0,1.0,80,123.0
2609,D5,344.417,0.5,110,123.0
2610,F#5,344.917,0.5,110,123.0
2611,F#2,345.0,0.25,108,123.0
2612,C#2,345.0,0.25,108,123.0
2613,F#5,345.417,0.25,110,123.0
2614,B1,345.5,0.25,127,123.0
2615,A1,345.5,0.25,120,123.0
2616,G5,345.667,0.25,110,123.0
2617,A3,345.917,2.0,96,123.0
2618,B1,346.0,0.25,120,123.0
2619,F#2,346.0,0.25,108,123.0
2620,B1,346.0,0.25,108,123.0
2621,F#4,346.0,0.25,100,123.0
2622,B4,346.0,0.25,100,123.0
2623,G4,346.417,0.25,110,123.0
2624,C5,346.667,0.25,110,123.0
2625,E4,346.75,0.25,100,123.0
2626,A4,346.75,0.25,100,123.0
2627,G4,346.917,0.25,110,123.0
2628,F#2,347.0,0.25,108,123.0
2629,C#2,347.0,0.25,108,123.0
2630,G5,347.167,0.25,110,123.0
2631,G4,347.417,0.25,110,123.0
2632,B1,347.5,0.25,120,123.0
2633,D4,347.5,121/500,100,123.0
2634,G4,347.5,121/500,100,123.0
2635,C5,347.667,0.25,110,123.0
2636,E4,347.75,0.25,100,123.0
2637,A4,347.75,0.25,100,123.0
2638,B3,347.917,2.0,96,123.0
2639,D5,347.917,0.5,110,123.0
2640,C2,348.0,0.25,110,123.0
2641,F#2,348.0,0.25,108,123.0
2642,B1,348.0,0.25,108,123.0
2643,D4,348.0,1.0,100,123.0
2644,G4,348.0,1.0,100,123.0
2645,G4,348.417,0.5,110,123.0
2646,G1,348.5,0.25,110,123.0
2647,G1,348.75,29/500,110,123.0
2648,D5,348.917,0.5,110,123.0
2649,C2,349.0,0.5,110,123.0
2650,F#2,349.0,0.25,108,123.0
2651,C#2,349.0,0.25,108,123.0
2652,G5,349.417,0.5,110,123.0
2653,B1,349.5,0.25,127,123.0
2654,G1,349.5,0.5,110,123.0
2655,F1,350.0,0.25,120,123.0
2656,F#2,350.0,0.25,108,123.0
2657,B1,350.0,0.25,108,123.0
2658,B5,350.417,0.25,110,123.0
2659,G3,350.5,121/500,100,123.0
2660,A5,350.667,0.25,110,123.0
2661,G5,350.917,0.25,110,123.0
2662,E1,351.0,1.0,120,123.0
2663,G3,351.0,0.5,100,123.0
2664,F#2,351.0,0.25,108,123.0
2665,C#2,351.0,0.25,108,123.0
2666,D5,351.167,0.25,110,123.0
2667,B4,351.417,0.25,110,123.0
2668,B-2,351.5,0.25,90,123.0
2669,A3,351.5,0.25,100,123.0
2670,G4,351.667,0.25,110,123.0
2671,C5,351.917,0.25,110,123.0
2672,C4,351.917,0.25,110,123.0
2673,F4,351.917,0.25,110,123.0
2674,A4,351.917,0.25,110,123.0
2675,A1,352.0,0.25,120,123.0
2676,A3,352.0,0.5,100,123.0
2677,F#2,352.0,0.25,108,123.0
2678,B1,352.0,0.25,108,123.0
2679,B3,352.5,0.25,100,123.0
2680,B4,352.917,1.0,110,123.0
2681,G4,352.917,1.0,110,123.0
2682,A3,352.917,1.0,110,123.0
2683,E4,352.917,1.0,110,123.0
2684,B3,353.0,0.5,100,123.0
2685,F#2,353.0,0.25,108,123.0
2686,C#2,353.0,0.25,108,123.0
2687,B1,353.5,0.25,127,123.0
2688,A1,353.5,0.25,120,123.0
2689,C4,353.5,0.25,100,123.0
2690,A3,353.917,4.0,110,123.0
2691,G4,353.917,4.0,110,123.0
2692,E4,353.917,4.0,110,123.0
2693,C5,353.917,4.0,110,123.0
2694,B1,354.0,0.25,120,123.0
2695,C4,354.0,0.5,100,123.0
2696,F#2,354.0,0.25,108,123.0
2697,B1,354.0,0.25,108,123.0
2698,D4,354.5,0.25,100,123.0
2699,D4,355.0,0.5,100,123.0
2700,F#2,355.0,0.25,108,123.0
2701,C#2,355.0,0.25,108,123.0
2702,B1,355.5,0.25,120,123.0
2703,G4,355.5,0.5,100,123.0
2704,C2,356.0,333/1000,120,123.0
2705,G4,356.0,2.5,100,123.0
2706,F#2,356.0,0.25,108,123.0
2707,B1,356.0,0.25,108,123.0
2708,F#2,357.0,0.25,108,123.0
2709,C#2,357.0,0.25,108,123.0
2710,B1,357.5,0.25,127,123.0
2711,C2,357.5,333/1000,105,123.0
2712,E4,357.917,3.0,85,123.0
2713,B3,357.917,3.0,85,123.0
2714,G4,357.917,3.0,85,123.0
2715,B4,357.917,3.0,85,123.0
2716,D2,358.0,0.25,120,123.0
2717,F#2,358.0,0.25,108,123.0
2718,B1,358.0,0.25,108,123.0
2719,E2,359.0,0.5,110,123.0
2720,D4,359.0,333/1000,100,123.0
2721,F#2,359.0,0.25,108,123.0
2722,C#2,359.0,0.25,108,123.0
2723,G4,359.333,333/1000,100,123.0
2724,G2,359.5,0.5,110,123.0
2725,F#4,359.667,333/1000,100,123.0
2726,A1,360.0,0.25,120,123.0
2727,E4,360.0,333/1000,70,123.0
2728,F#2,360.0,0.25,108,123.0
2729,B1,360.0,0.25,108,123.0
2730,F#4,360.333,333/1000,80,123.0
2731,G4,360.667,333/1000,80,123.0
2732,D4,361.0,333/1000,80,123.0
2733,F#2,361.0,0.25,108,123.0
2734,C#2,361.0,0.25,108,123.0
2735,E4,361.333,333/1000,80,123.0
2736,B1,361.5,0.25,127,123.0
2737,A1,361.5,0.25,120,123.0
2738,F#4,361.667,333/1000,80,123.0
2739,A3,361.917,2.0,86,123.0
2740,C4,361.917,2.0,86,123.0
2741,E4,361.917,2.0,86,123.0
2742,G4,361.917,2.0,86,123.0
2743,B1,362.0,0.25,120,123.0
2744,D4,362.0,2.0,80,123.0
2745,F#2,362.0,0.25,108,123.0
2746,B1,362.0,0.25,108,123.0
2747,F#2,363.0,0.25,108,123.0
2748,C#2,363.0,0.25,108,123.0
2749,B1,363.5,0.25,120,123.0
2750,B3,363.917,2.0,86,123.0
2751,F#4,363.917,2.0,86,123.0
2752,D4,363.917,2.0,86,123.0
2753,A4,363.917,2.0,86,123.0
2754,C2,364.0,0.25,110,123.0
2755,F#2,364.0,0.25,108,123.0
2756,B1,364.0,0.25,108,123.0
2757,B1,364.5,0.25,127,123.0
2758,G2,364.5,83/1000,110,123.0
2759,G1,364.75,29/500,110,123.0
2760,C2,365.0,0.5,110,123.0
2761,F#2,365.0,0.25,108,123.0
2762,C#2,365.0,0.25,108,123.0
2763,B1,365.5,0.25,127,123.0
2764,G1,365.5,0.5,110,123.0
2765,G3,365.917,0.25,87,123.0
2766,D4,365.917,0.25,87,123.0
2767,B3,365.917,0.25,87,123.0
2768,G4,365.917,0.25,87,123.0
2769,F1,366.0,0.25,120,123.0
2770,F#2,366.0,0.25,108,123.0
2771,B1,366.0,0.25,108,123.0
2772,G3,366.667,0.25,87,123.0
2773,D4,366.667,0.25,87,123.0
2774,B3,366.667,0.25,87,123.0
2775,G4,366.667,0.25,87,123.0
2776,E1,367.0,1.0,120,123.0
2777,B3,367.0,0.25,100,123.0
2778,F#2,367.0,0.25,108,123.0
2779,C#2,367.0,0.25,108,123.0
2780,D4,367.25,0.25,100,123.0
2781,B-2,367.5,0.25,90,123.0
2782,E4,367.5,0.25,100,123.0
2783,D4,367.75,0.25,100,123.0
2784,A1,368.0,0.25,120,123.0
2785,G4,368.0,0.5,100,123.0
2786,F#2,368.0,0.25,108,123.0
2787,B1,368.0,0.25,108,123.0
2788,A4,368.5,0.25,100,123.0
2789,D5,368.917,1.0,87,123.0
2790,D4,368.917,1.0,87,123.0
2791,B3,368.917,1.0,87,123.0
2792,B4,368.917,1.0,87,123.0
2793,G4,368.917,1.0,87,123.0
2794,B4,369.0,0.25,100,123.0
2795,F#2,369.0,0.25,108,123.0
2796,C#2,369.0,0.25,108,123.0
2797,B1,369.5,0.25,127,123.0
2798,A1,369.5,0.25,120,123.0
2799,D5,369.5,0.25,100,123.0
2800,E5,369.625,1333/1000,100,123.0
2801,A3,369.917,2.0,88,123.0
2802,G4,369.917,2.0,88,123.0
2803,C5,369.917,2.0,88,123.0
2804,E4,369.917,2.0,88,123.0
2805,B1,370.0,0.25,120,123.0
2806,F#2,370.0,0.25,108,123.0
2807,B1,370.0,0.25,108,123.0
2808,F#2,371.0,0.25,108,123.0
2809,C#2,371.0,0.25,108,123.0
2810,B1,371.5,0.25,120,123.0
2811,B3,371.917,1.5,88,123.0
2812,B4,371.917,1.5,88,123.0
2813,G4,371.917,1.5,88,123.0
2814,D4,371.917,1.5,88,123.0
2815,C2,372.0,333/1000,120,123.0
2816,F#2,372.0,0.25,108,123.0
2817,B1,372.0,0.25,108,123.0
2818,A4,372.0,0.5,100,123.0
2819,D5,372.0,0.5,100,123.0
2820,C2,372.75,333/1000,120,123.0
2821,G4,372.75,0.5,100,123.0
2822,C5,372.75,0.5,100,123.0
2823,F#2,373.0,0.25,108,123.0
2824,C#2,373.0,0.25,108,123.0
2825,G3,373.417,0.5,88,123.0
2826,C4,373.417,0.5,88,123.0
2827,E4,373.417,0.5,88,123.0
2828,G4,373.417,0.5,88,123.0
2829,B1,373.5,0.25,127,123.0
2830,C2,373.5,333/1000,105,123.0
2831,D4,373.5,0.25,100,123.0
2832,G4,373.5,0.25,100,123.0
2833,D2,374.0,0.25,120,123.0
2834,F#2,374.0,0.25,108,123.0
2835,B1,374.0,0.25,108,123.0
2836,E4,374.0,0.25,100,123.0
2837,A4,374.0,0.25,100,123.0
2838,C#2,374.25,0.25,127,123.0
2839,E4,374.5,0.25,100,123.0
2840,A4,374.5,0.25,100,123.0
2841,E2,375.0,0.5,110,123.0
2842,F#2,375.0,0.25,108,123.0
2843,C#2,375.0,0.25,108,123.0
2844,D4,375.0,0.25,100,123.0
2845,G4,375.0,0.25,100,123.0
2846,G3,375.417,1.5,88,123.0
2847,C4,375.417,1.5,88,123.0
2848,E4,375.417,1.5,88,123.0
2849,G4,375.417,1.5,88,123.0
2850,G2,375.5,0.5,110,123.0
2851,A1,376.0,0.25,120,123.0
2852,D4,376.0,0.25,100,123.0
2853,F#2,376.0,0.25,108,123.0
2854,B1,376.0,0.25,108,123.0
2855,D4,376.75,0.25,100,123.0
2856,F#2,377.0,0.25,108,123.0
2857,C#2,377.0,0.25,108,123.0
2858,D4,377.25,0.25,100,123.0
2859,B3,377.417,1.0,89,123.0
2860,G4,377.417,1.0,89,123.0
2861,E4,377.417,1.0,89,123.0
2862,C5,377.417,1.0,89,123.0
2863,B1,377.5,0.25,127,123.0
2864,A1,377.5,0.25,120,123.0
2865,B1,378.0,0.25,120,123.0
2866,D4,378.0,0.25,100,123.0
2867,F#2,378.0,0.25,108,123.0
2868,B1,378.0,0.25,108,123.0
2869,C4,378.417,1.0,89,123.0
2870,A4,378.417,1.0,89,123.0
2871,D5,378.417,1.0,89,123.0
2872,F#4,378.417,1.0,89,123.0
2873,D4,378.5,0.25,100,123.0
2874,D4,379.0,0.25,100,123.0
2875,F#2,379.0,0.25,108,123.0
2876,C#2,379.0,0.25,108,123.0
2877,C4,379.417,0.75,90,123.0
2878,G4,379.417,0.75,90,123.0
2879,E4,379.417,0.75,90,123.0
2880,C5,379.417,0.75,90,123.0
2881,B1,379.5,0.25,120,123.0
2882,B3,379.5,0.25,100,123.0
2883,C2,380.0,0.25,110,123.0
2884,F#2,380.0,0.25,108,123.0
2885,B1,380.0,0.25,108,123.0
2886,C4,380.167,0.25,90,123.0
2887,E4,380.167,0.25,90,123.0
2888,G4,380.167,0.25,90,123.0
2889,C5,380.167,0.25,90,123.0
2890,D4,380.25,0.25,100,123.0
2891,G1,380.5,0.25,110,123.0
2892,G1,380.75,29/500,110,123.0
2893,C4,380.917,0.25,90,123.0
2894,E4,380.917,0.25,90,123.0
2895,G4,380.917,0.25,90,123.0
2896,C5,380.917,0.25,90,123.0
2897,C2,381.0,0.5,110,123.0
2898,D4,381.0,0.25,100,123.0
2899,F#2,381.0,0.25,108,123.0
2900,C#2,381.0,0.25,108,123.0
2901,G4,381.417,2.0,90,123.0
2902,F#4,381.417,2.0,90,123.0
2903,D4,381.417,2.0,90,123.0
2904,D5,381.417,2.0,90,123.0
2905,B1,381.5,0.25,127,123.0
2906,G1,381.5,0.5,110,123.0
2907,D4,381.5,0.25,100,123.0
2908,F1,382.0,0.25,120,123.0
2909,C4,382.0,0.25,100,123.0
2910,F#2,382.0,0.25,108,123.0
2911,B1,382.0,0.25,108,123.0
2912,B3,382.25,0.25,100,123.0
2913,A3,382.5,0.25,100,123.0
2914,G3,382.75,0.25,100,123.0
2915,E1,383.0,1.0,120,123.0
2916,F#3,383.0,0.25,100,123.0
2917,B2,383.0,0.25,109,123.0
2918,F#2,383.0,0.25,109,123.0
2919,C#2,383.0,0.25,109,123.0
2920,E3,383.25,0.25,100,123.0
2921,C4,383.417,2.0,91,123.0
2922,E4,383.417,2.0,91,123.0
2923,G4,383.417,2.0,91,123.0
2924,B4,383.417,2.0,91,123.0
2925,D3,383.5,0.25,100,123.0
2926,G3,384.0,1.0,70,123.0
2927,F#2,384.0,0.25,108,123.0
2928,B1,384.0,0.25,108,123.0
2929,A1,384.008,0.25,120,123.0
2930,F#2,385.0,0.25,108,123.0
2931,C#2,385.0,0.25,108,123.0
2932,E5,385.417,0.25,91,123.0
2933,C5,385.417,0.25,91,123.0
2934,E4,385.417,0.25,91,123.0
2935,A4,385.417,0.25,91,123.0
2936,B1,385.5,0.25,127,123.0
2937,A1,385.508,0.25,120,123.0
2938,D3,385.75,0.25,100,123.0
2939,G3,386.0,0.25,100,123.0
2940,F#2,386.0,0.25,108,123.0
2941,B1,386.0,0.25,108,123.0
2942,B1,386.008,0.25,120,123.0
2943,D3,386.25,0.25,100,123.0
2944,B4,386.417,1.0,91,123.0
2945,D5,386.417,1.0,91,123.0
2946,D4,386.417,1.0,91,123.0
2947,G4,386.417,1.0,91,123.0
2948,G3,386.5,0.25,100,123.0
2949,D3,386.75,0.25,100,123.0
2950,F#2,387.0,0.25,108,123.0
2951,C#2,387.0,0.25,108,123.0
2952,C5,387.417,2.0,92,123.0
2953,G4,387.417,2.0,92,123.0
2954,E4,387.417,2.0,92,123.0
2955,A3,387.417,2.0,92,123.0
2956,B3,387.5,0.5,100,123.0
2957,B1,387.508,0.25,120,123.0
2958,D4,388.0,0.25,100,123.0
2959,F#2,388.0,0.25,108,123.0
2960,B1,388.0,0.25,108,123.0
2961,C2,388.008,333/1000,120,123.0
2962,E4,388.5,0.25,100,123.0
2963,B1,388.75,0.25,127,123.0
2964,E4,389.0,0.25,100,123.0
2965,F#2,389.0,0.25,108,123.0
2966,C#2,389.0,0.25,108,123.0
2967,D4,389.25,0.25,100,123.0
2968,B3,389.417,2.0,92,123.0
2969,E4,389.417,2.0,92,123.0
2970,G4,389.417,2.0,92,123.0
2971,D5,389.417,2.0,92,123.0
2972,B1,389.5,0.25,127,123.0
2973,C2,389.508,333/1000,105,123.0
2974,F#2,390.0,0.25,108,123.0
2975,B1,390.0,0.25,108,123.0
2976,D2,390.008,0.25,120,123.0
2977,F#2,391.0,0.25,108,123.0
2978,C#2,391.0,0.25,108,123.0
2979,E2,391.008,0.5,110,123.0
2980,B4,391.417,0.75,93,123.0
2981,B3,391.417,0.75,93,123.0
2982,G4,391.417,0.75,93,123.0
2983,E4,391.417,0.75,93,123.0
2984,E4,391.5,0.25,100,123.0
2985,G2,391.508,123/250,110,123.0
2986,D4,391.75,0.25,100,123.0
2987,G2,392.0,1/125,110,123.0
2988,E4,392.0,0.25,100,123.0
2989,F#2,392.0,0.25,108,123.0
2990,B1,392.0,0.25,108,123.0
2991,A1,392.008,0.25,120,123.0
2992,B3,392.167,0.25,93,123.0
2993,E4,392.167,0.25,93,123.0
2994,G4,392.167,0.25,93,123.0
2995,B4,392.167,0.25,93,123.0
2996,D4,392.25,0.25,100,123.0
2997,B3,392.5,0.25,100,123.0
2998,D4,393.0,0.25,100,123.0
2999,F#2,393.0,0.25,108,123.0
3000,C#2,393.0,0.25,108,123.0
3001,B3,393.25,0.25,100,123.0
3002,B1,393.5,0.25,127,123.0
3003,D4,393.5,0.25,100,123.0
3004,A1,393.508,0.25,120,123.0
3005,E4,393.75,0.25,100,123.0
3006,D4,394.0,0.25,100,123.0
3007,F#2,394.0,0.25,108,123.0
3008,B1,394.0,0.25,108,123.0
3009,B1,394.008,0.25,120,123.0
3010,E4,394.25,0.25,100,123.0
3011,C4,394.417,1.0,93,123.0
3012,A4,394.417,1.0,93,123.0
3013,D5,394.417,1.0,93,123.0
3014,F#4,394.417,1.0,93,123.0
3015,F#4,394.5,0.25,100,123.0
3016,G4,394.75,0.25,100,123.0
3017,A4,395.0,0.25,100,123.0
3018,F#2,395.0,0.25,108,123.0
3019,C#2,395.0,0.25,108,123.0
3020,A3,395.417,1.75,94,123.0
3021,C4,395.417,1.75,94,123.0
3022,E4,395.417,1.75,94,123.0
3023,G4,395.417,1.75,94,123.0
3024,G4,395.5,0.25,100,123.0
3025,B1,395.508,0.25,120,123.0
3026,A4,395.75,0.25,100,123.0
3027,C2,396.0,0.5,110,123.0
3028,F#2,396.0,0.25,108,123.0
3029,B1,396.0,0.25,108,123.0
3030,G2,396.5,0.5,110,123.0
3031,D5,396.5,0.25,100,123.0
3032,A3,396.917,0.5,94,123.0
3033,C4,396.917,0.5,94,123.0
3034,E4,396.917,0.5,94,123.0
3035,G4,396.917,0.5,94,123.0
3036,D5,397.0,0.5,100,123.0
3037,F#2,397.0,0.25,108,123.0
3038,C#2,397.0,0.25,108,123.0
3039,C2,397.008,0.5,110,123.0
3040,B3,397.417,2.0,94,123.0
3041,F#4,397.417,2.0,94,123.0
3042,D4,397.417,2.0,94,123.0
3043,A4,397.417,2.0,94,123.0
3044,B1,397.5,0.25,127,123.0
3045,C5,397.5,0.25,100,123.0
3046,G1,397.508,0.5,110,123.0
3047,C5,398.0,0.5,100,123.0
3048,F#2,398.0,0.25,108,123.0
3049,B1,398.0,0.25,108,123.0
3050,F1,398.008,0.25,120,123.0
3051,B4,398.5,0.25,100,123.0
3052,B4,399.0,0.5,100,123.0
3053,E2,399.0,0.25,108,123.0
3054,F#2,399.0,0.25,108,123.0
3055,E1,399.008,124/125,120,123.0
3056,B1,399.5,0.25,127,123.0
3057,A4,399.5,0.25,100,123.0
3058,E1,400.0,1/125,120,123.0
3059,B4,400.0,0.5,100,123.0
3060,G3,400.0,0.25,99,123.0
3061,F#2,400.0,0.25,99,123.0
3062,B1,400.0,0.25,99,123.0
3063,A1,400.008,0.25,120,123.0
3064,D4,400.167,0.25,95,123.0
3065,B3,400.167,0.25,95,123.0
3066,G4,400.167,0.25,95,123.0
3067,B4,400.167,0.25,95,123.0
3068,C5,400.5,0.25,100,123.0
3069,D4,400.917,0.25,95,123.0
3070,B3,400.917,0.25,95,123.0
3071,G4,400.917,0.25,95,123.0
3072,B4,400.917,0.25,95,123.0
3073,B4,401.0,0.25,100,123.0
3074,E2,401.0,0.25,108,123.0
3075,F#2,401.0,0.25,108,123.0
3076,B1,401.5,0.25,127,123.0
3077,A1,401.508,0.25,120,123.0
3078,A4,401.75,0.25,100,123.0
3079,B4,402.0,0.25,100,123.0
3080,F#2,402.0,0.25,108,123.0
3081,B1,402.0,0.25,108,123.0
3082,B1,402.008,0.25,120,123.0
3083,D5,402.417,1.0,95,123.0
3084,D4,402.417,1.0,95,123.0
3085,B3,402.417,1.0,95,123.0
3086,B4,402.417,1.0,95,123.0
3087,G4,402.417,1.0,95,123.0
3088,A4,402.5,0.25,100,123.0
3089,E2,403.0,0.25,108,123.0
3090,F#2,403.0,0.25,108,123.0
3091,G4,403.25,0.25,100,123.0
3092,A3,403.417,2.0,96,123.0
3093,G4,403.417,2.0,96,123.0
3094,C5,403.417,2.0,96,123.0
3095,E4,403.417,2.0,96,123.0
3096,A4,403.5,0.25,100,123.0
3097,B1,403.508,0.25,120,123.0
3098,G4,404.0,0.25,100,123.0
3099,F#2,404.0,0.25,108,123.0
3100,B1,404.0,0.25,108,123.0
3101,C2,404.008,333/1000,120,123.0
3102,E2,405.0,0.25,108,123.0
3103,F#2,405.0,0.25,108,123.0
3104,B3,405.417,1.5,96,123.0
3105,B4,405.417,1.5,96,123.0
3106,G4,405.417,1.5,96,123.0
3107,D4,405.417,1.5,96,123.0
3108,C2,405.508,333/1000,105,123.0
3109,F#2,406.0,0.25,108,123.0
3110,B1,406.0,0.25,108,123.0
3111,D2,406.008,0.25,120,123.0
3112,B1,406.5,0.25,127,123.0
3113,D4,406.5,79/500,100,123.0
3114,E4,406.667,79/500,90,123.0
3115,F#4,406.833,79/500,80,123.0
3116,G3,406.917,0.5,96,123.0
3117,C4,406.917,0.5,96,123.0
3118,E4,406.917,0.5,96,123.0
3119,G4,406.917,0.5,96,123.0
3120,G4,407.0,79/500,100,123.0
3121,E2,407.0,0.25,108,123.0
3122,F#2,407.0,0.25,108,123.0
3123,E2,407.008,0.5,110,123.0
3124,A4,407.167,79/500,90,123.0
3125,B4,407.333,79/500,80,123.0
3126,B1,407.5,0.25,127,123.0
3127,D4,407.5,79/500,100,123.0
3128,G2,407.508,123/250,110,123.0
3129,E4,407.667,79/500,90,123.0
3130,F#4,407.833,79/500,80,123.0
3131,G2,408.0,1/125,110,123.0
3132,G4,408.0,79/500,100,123.0
3133,F#2,408.0,0.25,108,123.0
3134,B1,408.0,0.25,108,123.0
3135,A1,408.008,0.25,120,123.0
3136,A4,408.167,79/500,90,123.0
3137,B4,408.333,79/500,80,123.0
3138,D4,408.5,79/500,100,123.0
3139,E4,408.667,79/500,90,123.0
3140,F#4,408.833,79/500,80,123.0
3141,G3,408.917,1.5,96,123.0
3142,C4,408.917,1.5,96,123.0
3143,E4,408.917,1.5,96,123.0
3144,G4,408.917,1.5,96,123.0
3145,G4,409.0,79/500,100,123.0
3146,E2,409.0,0.25,108,123.0
3147,F#2,409.0,0.25,108,123.0
3148,A4,409.167,79/500,90,123.0
3149,B4,409.333,79/500,80,123.0
3150,B1,409.5,0.25,127,123.0
3151,D4,409.5,79/500,100,123.0
3152,A1,409.508,0.25,120,123.0
3153,E4,409.667,79/500,90,123.0
3154,F#4,409.833,79/500,80,123.0
3155,G4,410.0,79/500,100,123.0
3156,F#2,410.0,0.25,108,123.0
3157,B1,410.0,0.25,108,123.0
3158,B1,410.008,0.25,120,123.0
3159,A4,410.167,79/500,90,123.0
3160,B4,410.333,79/500,80,123.0
3161,D4,410.5,79/500,100,123.0
3162,E4,410.667,79/500,90,123.0
3163,F#4,410.833,79/500,80,123.0
3164,B3,410.917,1.0,97,123.0
3165,G4,410.917,1.0,97,123.0
3166,E4,410.917,1.0,97,123.0
3167,C5,410.917,1.0,97,123.0
3168,G4,411.0,79/500,100,123.0
3169,E2,411.0,0.25,108,123.0
3170,F#2,411.0,0.25,108,123.0
3171,A4,411.167,79/500,90,123.0
3172,B4,411.333,79/500,80,123.0
3173,D4,411.5,79/500,100,123.0
3174,B1,411.508,0.25,120,123.0
3175,E4,411.667,79/500,90,123.0
3176,F#4,411.833,79/500,80,123.0
3177,C4,411.917,1.0,97,123.0
3178,A4,411.917,1.0,97,123.0
3179,D5,411.917,1.0,97,123.0
3180,F#4,411.917,1.0,97,123.0
3181,G4,412.0,79/500,100,123.0
3182,F#2,412.0,0.25,108,123.0
3183,B1,412.0,0.25,108,123.0
3184,C2,412.008,0.25,110,123.0
3185,A4,412.167,79/500,90,123.0
3186,B4,412.333,79/500,80,123.0
3187,D4,412.5,79/500,100,123.0
3188,G1,412.508,0.25,110,123.0
3189,E4,412.667,79/500,90,123.0
3190,G1,412.758,29/500,110,123.0
3191,F#4,412.833,79/500,80,123.0
3192,C4,412.917,0.75,98,123.0
3193,G4,412.917,0.75,98,123.0
3194,E4,412.917,0.75,98,123.0
3195,C5,412.917,0.75,98,123.0
3196,G4,413.0,79/500,100,123.0
3197,E2,413.0,0.25,108,123.0
3198,F#2,413.0,0.25,108,123.0
3199,C2,413.008,0.5,110,123.0
3200,A4,413.167,79/500,90,123.0
3201,B4,413.333,79/500,80,123.0
3202,B1,413.5,0.25,127,123.0
3203,D4,413.5,79/500,100,123.0
3204,G1,413.508,0.5,110,123.0
3205,E4,413.667,79/500,90,123.0
3206,C4,413.667,0.25,98,123.0
3207,E4,413.667,0.25,98,123.0
3208,G4,413.667,0.25,98,123.0
3209,C5,413.667,0.25,98,123.0
3210,F#4,413.833,79/500,80,123.0
3211,G4,414.0,79/500,100,123.0
3212,F#2,414.0,0.25,108,123.0
3213,B1,414.0,0.25,108,123.0
3214,F1,414.008,0.25,120,123.0
3215,A4,414.167,79/500,90,123.0
3216,B4,414.333,79/500,80,123.0
3217,D4,414.417,2.0,98,123.0
3218,F#4,414.417,2.0,98,123.0
3219,G4,414.417,2.0,98,123.0
3220,D5,414.417,2.0,98,123.0
3221,B-2,414.5,0.25,90,123.0
3222,D4,414.5,79/500,100,123.0
3223,E4,414.667,79/500,90,123.0
3224,F#4,414.833,79/500,80,123.0
3225,G4,415.0,79/500,100,123.0
3226,E2,415.0,0.25,108,123.0
3227,F#2,415.0,0.25,108,123.0
3228,E1,415.008,124/125,120,123.0
3229,A4,415.167,79/500,90,123.0
3230,B4,415.333,79/500,80,123.0
3231,B-2,415.5,0.25,90,123.0
3232,E1,416.0,1/125,120,123.0
3233,F#2,416.0,0.25,108,123.0
3234,B1,416.0,0.25,108,123.0
3235,A1,416.008,0.25,120,123.0
3236,C4,416.917,2.0,99,123.0
3237,E4,416.917,2.0,99,123.0
3238,G4,416.917,2.0,99,123.0
3239,B4,416.917,2.0,99,123.0
3240,E2,417.0,0.25,108,123.0
3241,F#2,417.0,0.25,108,123.0
3242,B1,417.5,0.25,127,123.0
3243,A1,417.508,0.25,120,123.0
3244,F#5,418.0,0.5,100,123.0
3245,F#2,418.0,0.25,108,123.0
3246,B1,418.0,0.25,108,123.0
3247,B1,418.008,0.25,120,123.0
3248,E5,418.5,0.25,100,123.0
3249,E5,418.917,0.25,99,123.0
3250,C5,418.917,0.25,99,123.0
3251,E4,418.917,0.25,99,123.0
3252,A4,418.917,0.25,99,123.0
3253,D5,419.0,0.5,100,123.0
3254,E2,419.0,0.25,108,123.0
3255,F#2,419.0,0.25,108,123.0
3256,B4,419.5,0.5,100,123.0
3257,B1,419.508,0.25,120,123.0
3258,B4,419.917,1.0,99,123.0
3259,D5,419.917,1.0,99,123.0
3260,D4,419.917,1.0,99,123.0
3261,G4,419.917,1.0,99,123.0
3262,D5,420.0,0.5,100,123.0
3263,F#2,420.0,0.25,108,123.0
3264,B1,420.0,0.25,108,123.0
3265,C2,420.008,333/1000,120,123.0
3266,E5,420.5,0.5,100,123.0
3267,B1,420.75,0.25,127,123.0
3268,A3,420.917,4.0,110,123.0
3269,G4,420.917,4.0,110,123.0
3270,E4,420.917,4.0,110,123.0
3271,C5,420.917,4.0,110,123.0
3272,B-4,420.958,33/1000,100,123.0
3273,A4,421.0,0.5,100,123.0
3274,E2,421.0,0.25,108,123.0
3275,F#2,421.0,0.25,108,123.0
3276,B1,421.5,0.25,127,123.0
3277,G4,421.5,0.5,100,123.0
3278,C2,421.508,333/1000,105,123.0
3279,A4,422.0,0.5,100,123.0
3280,F#2,422.0,0.25,108,123.0
3281,B1,422.0,0.25,108,123.0
3282,D2,422.008,0.25,120,123.0
3283,B4,422.75,0.25,100,123.0
3284,D5,423.0,0.25,100,123.0
3285,E2,423.0,0.25,108,123.0
3286,F#2,423.0,0.25,108,123.0
3287,E2,423.008,0.5,110,123.0
3288,G4,423.5,0.25,100,123.0
3289,G2,423.508,123/250,110,123.0
3290,G2,424.0,1/125,110,123.0
3291,G4,424.0,0.25,100,123.0
3292,F#2,424.0,0.25,108,123.0
3293,B1,424.0,0.25,108,123.0
3294,A1,424.008,0.25,120,123.0
3295,A4,424.25,0.25,100,123.0
3296,E4,424.917,3.0,110,123.0
3297,B3,424.917,3.0,110,123.0
3298,G4,424.917,3.0,110,123.0
3299,B4,424.917,3.0,110,123.0
3300,D4,425.0,0.25,100,123.0
3301,E2,425.0,0.25,108,123.0
3302,F#2,425.0,0.25,108,123.0
3303,B1,425.5,0.25,127,123.0
3304,F4,425.5,0.25,100,123.0
3305,A1,425.508,0.25,120,123.0
3306,E4,425.75,0.25,100,123.0
3307,D4,426.0,0.25,100,123.0
3308,F#2,426.0,0.25,108,123.0
3309,B1,426.0,0.25,108,123.0
3310,B1,426.008,0.25,120,123.0
3311,C#4,426.25,0.25,100,123.0
3312,D4,426.5,0.25,100,123.0
3313,E4,426.75,0.25,100,123.0
3314,F4,427.0,0.25,100,123.0
3315,E2,427.0,0.25,108,123.0
3316,F#2,427.0,0.25,108,123.0
3317,F#4,427.25,0.25,100,123.0
3318,G4,427.5,0.25,100,123.0
3319,B1,427.508,0.25,120,123.0
3320,D5,427.75,0.25,100,123.0
3321,C4,427.917,1.0,110,123.0
3322,A4,427.917,1.0,110,123.0
3323,D5,427.917,1.0,110,123.0
3324,F#4,427.917,1.0,110,123.0
3325,B4,428.0,0.25,100,123.0
3326,F#2,428.0,0.25,108,123.0
3327,B1,428.0,0.25,108,123.0
3328,C2,428.008,0.25,110,123.0
3329,G2,428.508,83/1000,110,123.0
3330,G1,428.758,29/500,110,123.0
3331,A3,428.917,1.75,110,123.0
3332,C4,428.917,1.75,110,123.0
3333,E4,428.917,1.75,110,123.0
3334,G4,428.917,1.75,110,123.0
3335,E2,429.0,0.25,108,123.0
3336,F#2,429.0,0.25,108,123.0
3337,C2,429.008,0.5,110,123.0
3338,B1,429.5,0.25,127,123.0
3339,G1,429.508,0.5,110,123.0
3340,F#2,430.0,0.25,108,123.0
3341,B1,430.0,0.25,108,123.0
3342,F1,430.008,0.25,120,123.0
3343,A3,430.417,0.5,110,123.0
3344,C4,430.417,0.5,110,123.0
3345,E4,430.417,0.5,110,123.0
3346,G4,430.417,0.5,110,123.0
3347,B3,430.917,2.0,110,123.0
3348,F#4,430.917,2.0,110,123.0
3349,D4,430.917,2.0,110,123.0
3350,A4,430.917,2.0,110,123.0
3351,E2,431.0,0.25,108,123.0
3352,F#2,431.0,0.25,108,123.0
3353,E1,431.008,124/125,120,123.0
3354,E2,431.75,0.25,127,123.0
3355,E1,432.0,1/125,120,123.0
3356,D4,432.0,0.25,100,123.0
3357,G3,432.0,0.25,115,123.0
3358,F#2,432.0,0.25,115,123.0
3359,B1,432.0,0.25,115,123.0
3360,A1,432.008,0.25,120,123.0
3361,G4,432.25,0.25,100,123.0
3362,C4,432.5,0.25,100,123.0
3363,D4,432.75,0.25,100,123.0
3364,D4,432.917,0.25,110,123.0
3365,B3,432.917,0.25,110,123.0
3366,G4,432.917,0.25,110,123.0
3367,B4,432.917,0.25,110,123.0
3368,A4,433.0,0.25,100,123.0
3369,E2,433.0,0.25,108,123.0
3370,F#2,433.0,0.25,108,123.0
3371,C4,433.25,0.25,100,123.0
3372,B1,433.5,0.25,127,123.0
3373,D4,433.5,0.25,100,123.0
3374,A1,433.508,0.25,120,123.0
3375,D4,433.667,0.25,110,123.0
3376,B3,433.667,0.25,110,123.0
3377,G4,433.667,0.25,110,123.0
3378,B4,433.667,0.25,110,123.0
3379,B4,433.75,0.25,100,123.0
3380,C4,434.0,0.25,100,123.0
3381,F#2,434.0,0.25,108,123.0
3382,B1,434.0,0.25,108,123.0
3383,B1,434.008,0.25,120,123.0
3384,D4,434.25,0.25,100,123.0
3385,D4,434.417,0.25,110,123.0
3386,B3,434.417,0.25,110,123.0
3387,G4,434.417,0.25,110,123.0
3388,B4,434.417,0.25,110,123.0
3389,C5,434.5,0.25,100,123.0
3390,C4,434.75,0.25,100,123.0
3391,E5,434.917,0.5,110,123.0
3392,E4,434.917,0.5,110,123.0
3393,C4,434.917,0.5,110,123.0
3394,A4,434.917,0.5,110,123.0
3395,C5,434.917,0.5,110,123.0
3396,D4,435.0,0.25,100,123.0
3397,E2,435.0,0.25,108,123.0
3398,B-2,435.0,0.25,108,123.0
3399,D5,435.25,0.25,100,123.0
3400,C4,435.5,0.25,100,123.0
3401,B1,435.508,0.25,120,123.0
3402,D4,435.75,0.25,100,123.0
3403,D5,435.917,1.0,110,123.0
3404,D4,435.917,1.0,110,123.0
3405,B3,435.917,1.0,110,123.0
3406,B4,435.917,1.0,110,123.0
3407,G4,435.917,1.0,110,123.0
3408,C5,436.0,0.25,100,123.0
3409,F#2,436.0,0.25,108,123.0
3410,B1,436.0,0.25,108,123.0
3411,C2,436.008,333/1000,120,123.0
3412,C4,436.25,0.25,100,123.0
3413,D4,436.5,0.25,100,123.0
3414,B1,436.75,0.25,127,123.0
3415,B4,436.75,0.25,100,123.0
3416,C2,436.758,333/1000,120,123.0
3417,A3,436.917,2.0,110,123.0
3418,G4,436.917,2.0,110,123.0
3419,C5,436.917,2.0,110,123.0
3420,E4,436.917,2.0,110,123.0
3421,C4,437.0,0.25,100,123.0
3422,E2,437.0,0.25,108,123.0
3423,F#2,437.0,0.25,108,123.0
3424,D4,437.25,0.25,100,123.0
3425,B1,437.5,0.25,127,123.0
3426,A4,437.5,0.25,100,123.0
3427,C2,437.508,333/1000,105,123.0
3428,C4,437.75,0.25,100,123.0
3429,D4,438.0,0.25,100,123.0
3430,F#2,438.0,0.25,108,123.0
3431,B1,438.0,0.25,108,123.0
3432,D2,438.008,0.25,120,123.0
3433,G4,438.25,0.25,100,123.0
3434,C4,438.5,0.25,100,123.0
3435,D4,438.75,0.25,100,123.0
3436,B3,438.917,1.5,110,123.0
3437,B4,438.917,1.5,110,123.0
3438,G4,438.917,1.5,110,123.0
3439,D4,438.917,1.5,110,123.0
3440,F#4,439.0,0.25,100,123.0
3441,E2,439.0,0.25,108,123.0
3442,F#2,439.0,0.25,108,123.0
3443,E2,439.008,0.5,110,123.0
3444,C4,439.25,0.25,100,123.0
3445,D4,439.5,0.25,100,123.0
3446,G2,439.508,123/250,110,123.0
3447,E4,439.75,0.25,100,123.0
3448,G2,440.0,1/125,110,123.0
3449,D4,440.0,0.25,100,123.0
3450,F#2,440.0,0.25,108,123.0
3451,B1,440.0,0.25,108,123.0
3452,A1,440.008,0.25,120,123.0
3453,C4,440.25,0.25,100,123.0
3454,G3,440.417,0.5,110,123.0
3455,C4,440.417,0.5,110,123.0
3456,E4,440.417,0.5,110,123.0
3457,G4,440.417,0.5,110,123.0
3458,B3,440.5,0.25,100,123.0
3459,A3,440.75,0.25,100,123.0
3460,G3,441.0,0.25,100,123.0
3461,E2,441.0,0.25,108,123.0
3462,F#2,441.0,0.25,108,123.0
3463,F3,441.25,0.25,100,123.0
3464,B1,441.5,0.25,127,123.0
3465,E3,441.5,0.25,100,123.0
3466,A1,441.508,0.25,120,123.0
3467,E3,442.0,0.25,100,123.0
3468,F#2,442.0,0.25,108,123.0
3469,B1,442.0,0.25,108,123.0
3470,B1,442.008,0.25,120,123.0
3471,G3,442.417,1.5,110,123.0
3472,C4,442.417,1.5,110,123.0
3473,E4,442.417,1.5,110,123.0
3474,G4,442.417,1.5,110,123.0
3475,E3,442.5,0.25,100,123.0
3476,E2,443.0,0.25,108,123.0
3477,F#2,443.0,0.25,108,123.0
3478,E3,443.25,0.25,100,123.0
3479,E3,443.5,0.25,100,123.0
3480,B1,443.508,0.25,120,123.0
3481,E3,444.0,0.25,100,123.0
3482,F#2,444.0,0.25,108,123.0
3483,B1,444.0,0.25,108,123.0
3484,C2,444.008,0.25,110,123.0
3485,B3,444.417,1.0,110,123.0
3486,G4,444.417,1.0,110,123.0
3487,E4,444.417,1.0,110,123.0
3488,C5,444.417,1.0,110,123.0
3489,G1,444.508,0.25,110,123.0
3490,G1,444.758,29/500,110,123.0
3491,E2,445.0,0.25,108,123.0
3492,F#2,445.0,0.25,108,123.0
3493,C2,445.008,0.5,110,123.0
3494,C4,445.417,1.0,110,123.0
3495,A4,445.417,1.0,110,123.0
3496,D5,445.417,1.0,110,123.0
3497,F#4,445.417,1.0,110,123.0
3498,B1,445.5,0.25,127,123.0
3499,G1,445.508,0.5,110,123.0
3500,F#2,446.0,0.25,108,123.0
3501,B1,446.0,0.25,108,123.0
3502,F1,446.008,0.25,120,123.0
3503,C4,446.417,0.75,110,123.0
3504,G4,446.417,0.75,110,123.0
3505,E4,446.417,0.75,110,123.0
3506,C5,446.417,0.75,110,123.0
3507,E2,447.0,0.25,108,123.0
3508,F#2,447.0,0.25,108,123.0
3509,E1,447.008,124/125,120,123.0
3510,C4,447.167,0.25,110,123.0
3511,E4,447.167,0.25,110,123.0
3512,G4,447.167,0.25,110,123.0
3513,C5,447.167,0.25,110,123.0
3514,C4,447.917,0.25,110,123.0
3515,E4,447.917,0.25,110,123.0
3516,G4,447.917,0.25,110,123.0
3517,C5,447.917,0.25,110,123.0
3518,E1,448.0,1/125,120,123.0
3519,C5,448.0,0.25,100,123.0
3520,F#2,448.0,0.25,108,123.0
3521,B1,448.0,0.25,108,123.0
3522,A1,448.017,0.25,120,123.0
3523,B4,448.25,0.25,100,123.0
3524,G4,448.417,2.0,110,123.0
3525,F#4,448.417,2.0,110,123.0
3526,D4,448.417,2.0,110,123.0
3527,D5,448.417,2.0,110,123.0
3528,E2,448.75,0.25,127,123.0
3529,A4,448.75,0.25,100,123.0
3530,F#2,449.0,0.25,90,123.0
3531,G4,449.0,0.25,100,123.0
3532,B1,449.5,0.25,127,123.0
3533,F#4,449.5,0.25,100,123.0
3534,A1,449.517,0.25,120,123.0
3535,E4,449.75,0.25,100,123.0
3536,F#2,450.0,0.25,108,123.0
3537,B1,450.0,0.25,108,123.0
3538,B1,450.017,0.25,120,123.0
3539,D4,450.25,0.25,100,123.0
3540,C4,450.417,2.0,110,123.0
3541,E4,450.417,2.0,110,123.0
3542,G4,450.417,2.0,110,123.0
3543,B4,450.417,2.0,110,123.0
3544,D4,450.75,0.25,100,123.0
3545,D4,451.0,0.25,100,123.0
3546,E2,451.0,0.25,108,123.0
3547,F#2,451.0,0.25,108,123.0
3548,D4,451.5,0.25,100,123.0
3549,B1,451.517,0.25,120,123.0
3550,D4,452.0,0.25,100,123.0
3551,F#2,452.0,0.25,108,123.0
3552,B1,452.0,0.25,108,123.0
3553,C2,452.017,333/1000,120,123.0
3554,E5,452.417,0.25,110,123.0
3555,C5,452.417,0.25,110,123.0
3556,E4,452.417,0.25,110,123.0
3557,A4,452.417,0.25,110,123.0
3558,C2,452.75,333/1000,120,123.0
3559,E2,453.0,0.25,108,123.0
3560,F#2,453.0,0.25,108,123.0
3561,B4,453.417,1.0,110,123.0
3562,D5,453.417,1.0,110,123.0
3563,D4,453.417,1.0,110,123.0
3564,G4,453.417,1.0,110,123.0
3565,B1,453.5,0.25,127,123.0
3566,C2,453.517,333/1000,105,123.0
3567,F#2,454.0,0.25,108,123.0
3568,B1,454.0,0.25,108,123.0
3569,G4,454.0,0.5,100,123.0
3570,B4,454.0,0.5,100,123.0
3571,D2,454.017,0.25,120,123.0
3572,C5,454.417,2.0,110,123.0
3573,G4,454.417,2.0,110,123.0
3574,E4,454.417,2.0,110,123.0
3575,A3,454.417,2.0,110,123.0
3576,F#4,454.5,0.5,100,123.0
3577,A4,454.5,0.5,100,123.0
3578,E2,455.0,0.25,108,123.0
3579,F#2,455.0,0.25,108,123.0
3580,E4,455.0,0.5,100,123.0
3581,G4,455.0,0.5,100,123.0
3582,E2,455.017,0.5,110,123.0
3583,D4,455.5,0.5,100,123.0
3584,F#4,455.5,0.5,100,123.0
3585,G2,455.517,483/1000,110,123.0
3586,G2,456.0,17/1000,110,123.0
3587,F#2,456.0,0.25,108,123.0
3588,B1,456.0,0.25,108,123.0
3589,C4,456.0,0.5,100,123.0
3590,E4,456.0,0.5,100,123.0
3591,A1,456.017,0.25,120,123.0
3592,B3,456.417,2.0,110,123.0
3593,E4,456.417,2.0,110,123.0
3594,G4,456.417,2.0,110,123.0
3595,D5,456.417,2.0,110,123.0
3596,E4,457.0,0.5,100,123.0
3597,E2,457.0,0.25,108,123.0
3598,F#2,457.0,0.25,108,123.0
3599,B1,457.5,0.25,127,123.0
3600,G4,457.5,0.5,100,123.0
3601,A1,457.517,0.25,120,123.0
3602,D4,458.0,0.5,100,123.0
3603,F#2,458.0,0.25,108,123.0
3604,B1,458.0,0.25,108,123.0
3605,B1,458.017,0.25,120,123.0
3606,B4,458.417,0.75,110,123.0
3607,B3,458.417,0.75,110,123.0
3608,G4,458.417,0.75,110,123.0
3609,E4,458.417,0.75,110,123.0
3610,D4,459.0,0.5,100,123.0
3611,E2,459.0,0.25,108,123.0
3612,F#2,459.0,0.25,108,123.0
3613,B3,459.167,0.25,110,123.0
3614,E4,459.167,0.25,110,123.0
3615,G4,459.167,0.25,110,123.0
3616,B4,459.167,0.25,110,123.0
3617,G4,459.5,0.5,100,123.0
3618,B1,459.517,0.25,120,123.0
3619,E3,459.917,0.25,110,123.0
3620,C2,460.0,0.5,110,123.0
3621,C4,460.0,0.5,100,123.0
3622,F#2,460.0,0.25,108,123.0
3623,B1,460.0,0.25,108,123.0
3624,B4,460.417,0.25,110,123.0
3625,G4,460.417,0.25,110,123.0
3626,E4,460.417,0.25,110,123.0
3627,B3,460.417,0.25,110,123.0
3628,D2,460.5,0.5,110,123.0
3629,B3,460.917,0.25,110,123.0
3630,E4,460.917,0.25,110,123.0
3631,G4,460.917,0.25,110,123.0
3632,B4,460.917,0.25,110,123.0
3633,E2,461.0,0.5,110,123.0
3634,C4,461.0,0.5,100,123.0
3635,E2,461.0,0.25,108,123.0
3636,F#2,461.0,0.25,108,123.0
3637,C4,461.417,1.0,110,123.0
3638,A4,461.417,1.0,110,123.0
3639,D5,461.417,1.0,110,123.0
3640,F#4,461.417,1.0,110,123.0
3641,B1,461.5,0.25,127,123.0
3642,G2,461.5,0.5,110,123.0
3643,G4,461.5,0.5,100,123.0
3644,F2,462.0,0.25,120,123.0
3645,F#4,462.0,0.5,100,123.0
3646,F#2,462.0,0.25,108,123.0
3647,B1,462.0,0.25,108,123.0
3648,A3,462.417,1.75,110,123.0
3649,C4,462.417,1.75,110,123.0
3650,E4,462.417,1.75,110,123.0
3651,G4,462.417,1.75,110,123.0
3652,E4,462.5,0.5,100,123.0
3653,E2,463.0,1.0,120,123.0
3654,D4,463.0,0.5,100,123.0
3655,E2,463.0,0.25,108,123.0
3656,B-2,463.0,0.25,108,123.0
3657,C4,463.5,0.5,100,123.0
3658,A3,463.917,0.5,110,123.0
3659,C4,463.917,0.5,110,123.0
3660,E4,463.917,0.5,110,123.0
3661,G4,463.917,0.5,110,123.0
3662,E-2,464.0,2.0,120,123.0
3663,C3,464.0,333/1000,100,123.0
3664,G3,464.0,0.5,124,123.0
3665,B1,464.0,0.5,124,123.0
3666,G3,464.333,333/1000,100,123.0
3667,B3,464.417,2.0,110,123.0
3668,F#4,464.417,2.0,110,123.0
3669,D4,464.417,2.0,110,123.0
3670,A4,464.417,2.0,110,123.0
3671,B-3,464.667,333/1000,100,123.0
3672,B3,465.0,333/1000,100,123.0
3673,E2,465.0,0.5,108,123.0
3674,F#2,465.0,0.5,108,123.0
3675,C4,465.333,333/1000,100,123.0
3676,B1,465.5,0.5,127,123.0
3677,E-4,465.667,333/1000,100,123.0
3678,D2,466.0,1.75,120,123.0
3679,E4,466.0,333/1000,100,123.0
3680,F#2,466.0,0.5,108,123.0
3681,B1,466.0,0.5,108,123.0
3682,G4,466.333,333/1000,100,123.0
3683,D4,466.417,0.25,110,123.0
3684,B3,466.417,0.25,110,123.0
3685,G4,466.417,0.25,110,123.0
3686,B4,466.417,0.25,110,123.0
3687,A4,466.667,333/1000,100,123.0
3688,B-4,467.0,333/1000,100,123.0
3689,E2,467.0,0.5,108,123.0
3690,F#2,467.0,0.5,108,123.0
3691,D4,467.167,0.25,110,123.0
3692,B3,467.167,0.25,110,123.0
3693,G4,467.167,0.25,110,123.0
3694,B4,467.167,0.25,110,123.0
3695,C5,467.333,333/1000,100,123.0
3696,G1,467.5,0.25,120,123.0
3697,B-2,467.5,0.5,114,123.0
3698,B1,467.5,0.5,114,123.0
3699,D5,467.667,333/1000,100,123.0
3700,D4,467.917,0.25,110,123.0
3701,B3,467.917,0.25,110,123.0
3702,G4,467.917,0.25,110,123.0
3703,B4,467.917,0.25,110,123.0
3704,F#2,468.0,0.5,90,123.0
3705,G5,468.0,4.0,100,123.0
3706,E5,468.417,0.5,110,123.0
3707,E4,468.417,0.5,110,123.0
3708,C4,468.417,0.5,110,123.0
3709,A4,468.417,0.5,110,123.0
3710,C5,468.417,0.5,110,123.0
3711,G1,468.5,1333/1000,120,123.0
3712,B-2,468.5,0.5,114,123.0
3713,B1,468.5,0.5,114,123.0
3714,E2,469.0,0.5,108,123.0
3715,F#2,469.0,0.5,108,123.0
3716,D5,469.417,1.0,110,123.0
3717,D4,469.417,1.0,110,123.0
3718,B3,469.417,1.0,110,123.0
3719,B4,469.417,1.0,110,123.0
3720,G4,469.417,1.0,110,123.0
3721,B1,469.5,0.5,120,123.0
3722,B2,470.0,0.5,105,123.0
3723,F#2,470.0,0.5,105,123.0
3724,A3,470.417,2.0,110,123.0
3725,G4,470.417,2.0,110,123.0
3726,C5,470.417,2.0,110,123.0
3727,E4,470.417,2.0,110,123.0
3728,A1,470.5,0.25,120,123.0
3729,B-2,470.5,0.5,114,123.0
3730,B1,470.5,0.5,114,123.0
3731,A1,471.5,0.5,120,123.0
3732,G3,471.5,0.5,124,123.0
3733,B1,471.5,0.5,124,123.0
3734,F#2,472.0,0.5,90,123.0
3735,A1,472.0,0.5,120,123.0
3736,B3,472.417,1.5,110,123.0
3737,B4,472.417,1.5,110,123.0
3738,G4,472.417,1.5,110,123.0
3739,D4,472.417,1.5,110,123.0
3740,E2,473.0,0.5,108,123.0
3741,F#2,473.0,0.5,108,123.0
3742,B1,473.5,0.5,127,123.0
3743,A1,473.5,0.5,120,123.0
3744,G3,473.917,0.5,110,123.0
3745,C4,473.917,0.5,110,123.0
3746,E4,473.917,0.5,110,123.0
3747,G4,473.917,0.5,110,123.0
3748,B1,474.0,0.25,120,123.0
3749,B4,474.0,0.5,100,123.0
3750,F#2,474.0,0.5,108,123.0
3751,B1,474.0,0.5,108,123.0
3752,D5,474.5,0.25,100,123.0
3753,E5,475.0,0.25,100,123.0
3754,E2,475.0,0.5,108,123.0
3755,F#2,475.0,0.5,108,123.0
3756,B-4,475.458,33/1000,100,123.0
3757,B1,475.5,0.5,127,123.0
3758,B1,475.5,0.25,120,123.0
3759,A4,475.5,0.5,100,123.0
3760,G3,475.917,1.5,110,123.0
3761,C4,475.917,1.5,110,123.0
3762,E4,475.917,1.5,110,123.0
3763,G4,475.917,1.5,110,123.0
3764,C2,476.0,0.25,120,123.0
3765,A4,476.0,0.5,100,123.0
3766,F#2,476.0,0.5,108,123.0
3767,B1,476.0,0.5,108,123.0
3768,G4,476.5,0.25,100,123.0
3769,G4,477.0,2.0,100,123.0
3770,E2,477.0,0.5,108,123.0
3771,F#2,477.0,0.5,108,123.0
3772,B3,477.917,1.0,110,123.0
3773,G4,477.917,1.0,110,123.0
3774,E4,477.917,1.0,110,123.0
3775,C5,477.917,1.0,110,123.0
3776,C#2,478.0,2.0,120,123.0
3777,F#2,478.0,0.5,108,123.0
3778,B1,478.0,0.5,108,123.0
3779,B1,478.5,0.5,127,123.0
3780,C4,478.917,1.0,110,123.0
3781,A4,478.917,1.0,110,123.0
3782,D5,478.917,1.0,110,123.0
3783,F#4,478.917,1.0,110,123.0
3784,E2,479.0,0.5,108,123.0
3785,F#2,479.0,0.5,108,123.0
3786,E2,479.5,0.5,127,123.0
3787,C4,479.917,0.75,110,123.0
3788,G4,479.917,0.75,110,123.0
3789,E4,479.917,0.75,110,123.0
3790,C5,479.917,0.75,110,123.0
3791,D2,480.0,0.25,120,123.0
3792,G3,480.0,0.5,127,123.0
3793,B1,480.0,0.5,127,123.0
3794,F#2,480.5,0.5,90,123.0
3795,A4,480.5,0.25,65,123.0
3796,F4,480.5,0.25,65,123.0
3797,C4,480.5,0.25,65,123.0
3798,C4,480.667,0.25,110,123.0
3799,E4,480.667,0.25,110,123.0
3800,G4,480.667,0.25,110,123.0
3801,C5,480.667,0.25,110,123.0
3802,E2,481.0,0.5,127,123.0
3803,D4,481.417,2.0,110,123.0
3804,F#4,481.417,2.0,110,123.0
3805,G4,481.417,2.0,110,123.0
3806,D5,481.417,2.0,110,123.0
3807,F#2,481.5,0.5,90,123.0
3808,D2,481.5,0.25,120,123.0
3809,F4,481.5,0.25,65,123.0
3810,A4,481.5,0.25,65,123.0
3811,C4,481.5,0.25,65,123.0
3812,B1,481.75,0.25,120,123.0
3813,B1,482.0,0.5,127,123.0
3814,G1,482.0,0.25,120,123.0
3815,F#2,482.5,0.5,90,123.0
3816,E4,482.5,0.5,65,123.0
3817,G4,482.5,0.5,65,123.0
3818,B3,482.5,0.5,65,123.0
3819,E2,483.0,0.5,127,123.0
3820,F#2,483.5,0.5,90,123.0
3821,G1,483.5,0.25,120,123.0
3822,B3,483.5,0.5,65,123.0
3823,E4,483.5,0.5,65,123.0
3824,G4,483.5,0.5,65,123.0
3825,B4,483.917,1.5,110,123.0
3826,E4,483.917,2.0,110,123.0
3827,C4,483.917,2.0,110,123.0
3828,G4,483.917,2.0,110,123.0
3829,B1,484.0,0.5,127,123.0
3830,C2,484.0,0.25,120,123.0
3831,B3,484.0,0.5,65,123.0
3832,E4,484.0,0.5,65,123.0
3833,G4,484.0,0.5,65,123.0
3834,D4,484.417,0.5,110,123.0
3835,D5,484.417,0.5,110,123.0
3836,F#2,484.5,0.5,90,123.0
3837,G4,484.5,0.25,65,123.0
3838,D4,484.5,0.25,65,123.0
3839,E4,484.5,0.25,65,123.0
3840,A3,484.5,0.25,65,123.0
3841,B-4,484.833,0.125,90,123.0
3842,B-3,484.833,0.125,90,123.0
3843,B3,484.917,0.5,110,123.0
3844,B4,484.917,1.0,110,123.0
3845,E2,485.0,0.5,127,123.0
3846,D4,485.417,229/500,110,123.0
3847,D5,485.417,229/500,110,123.0
3848,F#2,485.5,0.5,90,123.0
3849,C2,485.5,0.25,120,123.0
3850,D4,485.5,0.25,65,123.0
3851,E4,485.5,0.25,65,123.0
3852,A3,485.5,0.25,65,123.0
3853,G4,485.5,0.25,65,123.0
3854,C2,485.75,83/1000,120,123.0
3855,E5,485.917,0.25,110,123.0
3856,C5,485.917,0.25,110,123.0
3857,E4,485.917,0.25,110,123.0
3858,A4,485.917,0.25,110,123.0
3859,B1,486.0,0.5,127,123.0
3860,B1,486.0,0.25,120,123.0
3861,F#2,486.5,0.5,90,123.0
3862,A1,486.5,0.25,120,123.0
3863,D4,486.5,0.25,65,123.0
3864,G4,486.5,0.25,65,123.0
3865,C5,486.5,0.25,65,123.0
3866,A3,486.5,0.25,65,123.0
3867,B4,486.917,1.0,110,123.0
3868,D5,486.917,1.0,110,123.0
3869,D4,486.917,1.0,110,123.0
3870,G4,486.917,1.0,110,123.0
3871,E2,487.0,0.5,127,123.0
3872,B1,487.0,0.25,120,123.0
3873,F#2,487.5,0.5,90,123.0
3874,D4,487.5,0.5,65,123.0
3875,G4,487.5,0.5,65,123.0
3876,B4,487.5,0.5,65,123.0
3877,E-2,487.75,0.25,120,123.0
3878,D4,487.917,2.0,110,123.0
3879,G4,487.917,2.0,110,123.0
3880,B-3,487.917,2.0,110,123.0
3881,B-4,487.917,2.0,110,123.0
3882,B1,488.0,0.5,127,123.0
3883,E2,488.0,0.25,120,123.0
3884,D4,488.0,0.5,65,123.0
3885,G4,488.0,0.5,65,123.0
3886,B4,488.0,0.5,65,123.0
3887,F#2,488.5,0.5,90,123.0
3888,A3,488.5,0.25,65,123.0
3889,C4,488.5,0.25,65,123.0
3890,F#4,488.5,0.25,65,123.0
3891,E2,489.0,0.5,127,123.0
3892,F#2,489.5,0.5,90,123.0
3893,A3,489.5,0.25,65,123.0
3894,C4,489.5,0.25,65,123.0
3895,F#4,489.5,0.25,65,123.0
3896,G1,489.75,0.25,120,123.0
3897,F4,489.917,1.5,110,123.0
3898,A4,489.917,1.5,110,123.0
3899,C5,489.917,1.5,110,123.0
3900,C4,489.917,1.5,110,123.0
3901,B1,490.0,0.5,127,123.0
3902,A1,490.0,0.25,120,123.0
3903,F#2,490.5,0.5,90,123.0
3904,A1,490.5,0.25,120,123.0
3905,B4,490.5,0.25,65,123.0
3906,B3,490.5,0.25,65,123.0
3907,D4,490.5,0.25,65,123.0
3908,E4,490.5,0.25,65,123.0
3909,E2,491.0,0.5,127,123.0
3910,A1,491.0,0.25,120,123.0
3911,C4,491.417,0.25,110,123.0
3912,E4,491.417,0.25,110,123.0
3913,G4,491.417,0.25,110,123.0
3914,C5,491.417,0.25,110,123.0
3915,F#2,491.5,0.5,90,123.0
3916,A1,491.5,0.5,120,123.0
3917,A4,491.5,0.25,65,123.0
3918,B3,491.5,0.5,65,123.0
3919,E4,491.5,0.5,65,123.0
3920,B1,492.0,0.5,127,123.0
3921,D2,492.0,0.25,120,123.0
3922,B3,492.0,0.5,65,123.0
3923,E4,492.0,0.5,65,123.0
3924,D4,492.417,1.5,110,123.0
3925,B-4,492.417,1.5,110,123.0
3926,F4,492.417,1.5,110,123.0
3927,B-3,492.417,1.5,110,123.0
3928,F#2,492.5,0.5,90,123.0
3929,D4,492.5,0.25,65,123.0
3930,A3,492.5,0.25,65,123.0
3931,E4,492.5,0.25,65,123.0
3932,E2,493.0,0.5,127,123.0
3933,F#2,493.5,0.5,90,123.0
3934,D4,493.5,0.25,65,123.0
3935,A3,493.5,0.25,65,123.0
3936,E4,493.5,0.25,65,123.0
3937,F1,493.75,0.25,120,123.0
3938,B1,494.0,0.5,127,123.0
3939,G1,494.0,0.25,120,123.0
3940,C4,494.417,0.25,110,123.0
3941,D5,494.417,0.25,110,123.0
3942,E4,494.417,0.25,110,123.0
3943,A4,494.417,0.25,110,123.0
3944,F#2,494.5,0.5,90,123.0
3945,G1,494.5,0.25,120,123.0
3946,G4,494.5,0.25,65,123.0
3947,B3,494.5,0.25,65,123.0
3948,D4,494.5,0.25,65,123.0
3949,E2,495.0,0.5,127,123.0
3950,G#1,495.0,0.25,120,123.0
3951,B3,495.417,0.5,110,123.0
3952,D4,495.417,0.5,110,123.0
3953,G4,495.417,0.5,110,123.0
3954,C5,495.417,0.5,110,123.0
3955,F#2,495.5,0.5,90,123.0
3956,B1,495.5,0.5,120,123.0
3957,B3,495.5,0.25,65,123.0
3958,D4,495.5,0.25,65,123.0
3959,G4,495.5,0.25,65,123.0
3960,B3,495.917,2.0,110,123.0
3961,D4,495.917,2.0,110,123.0
3962,G4,495.917,2.0,110,123.0
3963,C5,495.917,2.0,110,123.0
3964,B1,496.0,0.5,127,123.0
3965,C2,496.0,0.25,120,123.0
3966,F#2,496.5,0.5,90,123.0
3967,G4,496.5,0.25,65,123.0
3968,B3,496.5,0.25,65,123.0
3969,D4,496.5,0.25,65,123.0
3970,E2,497.0,0.5,127,123.0
3971,F#2,497.5,0.5,90,123.0
3972,G4,497.5,0.25,65,123.0
3973,B3,497.5,0.25,65,123.0
3974,D4,497.5,0.25,65,123.0
3975,A1,497.75,0.25,120,123.0
3976,G4,497.917,1.5,110,123.0
3977,B4,497.917,1.5,110,123.0
3978,D4,497.917,1.5,110,123.0
3979,B3,497.917,1.5,110,123.0
3980,B1,498.0,0.5,127,123.0
3981,B1,498.0,0.25,120,123.0
3982,F#2,498.5,0.5,90,123.0
3983,B-1,498.5,0.25,120,123.0
3984,F#4,498.5,0.25,65,123.0
3985,A4,498.5,0.25,65,123.0
3986,C5,498.5,0.25,65,123.0
3987,E2,499.0,0.5,127,123.0
3988,B1,499.0,0.5,120,123.0
3989,A3,499.358,279/500,110,123.0
3990,C4,499.358,279/500,110,123.0
3991,E4,499.358,279/500,110,123.0
3992,G4,499.358,279/500,110,123.0
3993,F#2,499.5,0.5,90,123.0
3994,E4,499.5,0.5,65,123.0
3995,B4,499.5,0.5,65,123.0
3996,G4,499.5,0.5,65,123.0
3997,E-2,499.75,0.25,120,123.0
3998,A3,499.917,721/500,110,123.0
3999,C4,499.917,721/500,110,123.0
4000,E4,499.917,721/500,110,123.0
4001,G4,499.917,721/500,110,123.0
4002,B1,500.0,0.5,127,123.0
4003,E2,500.0,0.25,120,123.0
4004,E4,500.0,0.25,65,123.0
4005,B4,500.0,0.25,65,123.0
4006,G4,500.0,0.25,65,123.0
4007,F#2,500.5,0.5,90,123.0
4008,A3,500.5,0.25,65,123.0
4009,C4,500.5,0.25,65,123.0
4010,F#4,500.5,0.25,65,123.0
4011,E2,501.0,0.5,127,123.0
4012,F#2,501.5,0.5,90,123.0
4013,A3,501.5,0.25,65,123.0
4014,C4,501.5,0.25,65,123.0
4015,F#4,501.5,0.25,65,123.0
4016,C#4,501.917,2.0,110,123.0
4017,E4,501.917,2.0,110,123.0
4018,G4,501.917,2.0,110,123.0
4019,B1,502.0,0.5,127,123.0
4020,A1,502.0,0.25,120,123.0
4021,B4,502.417,0.25,110,123.0
4022,F#2,502.5,0.5,90,123.0
4023,A1,502.5,0.25,120,123.0
4024,B4,502.5,0.25,65,123.0
4025,B3,502.5,0.25,65,123.0
4026,D4,502.5,0.25,65,123.0
4027,E4,502.5,0.25,65,123.0
4028,E5,502.917,0.25,110,123.0
4029,E2,503.0,0.5,127,123.0
4030,A1,503.0,0.25,120,123.0
4031,G5,503.417,0.25,110,123.0
4032,F#2,503.5,0.5,90,123.0
4033,C#2,503.5,0.5,120,123.0
4034,A4,503.5,0.25,65,123.0
4035,B3,503.5,0.5,65,123.0
4036,E4,503.5,0.5,65,123.0
4037,G#5,503.875,21/500,110,123.0
4038,A5,503.917,0.25,110,123.0
4039,G#5,503.917,83/1000,110,123.0
4040,B1,504.0,0.5,127,123.0
4041,D2,504.0,0.25,120,123.0
4042,B3,504.0,0.5,65,123.0
4043,E4,504.0,0.5,65,123.0
4044,C6,504.417,0.25,110,123.0
4045,F#2,504.5,0.5,90,123.0
4046,D4,504.5,0.25,65,123.0
4047,A3,504.5,0.25,65,123.0
4048,E4,504.5,0.25,65,123.0
4049,D6,504.917,0.25,110,123.0
4050,A4,504.917,3.0,90,123.0
4051,F4,504.917,3.0,90,123.0
4052,C4,504.917,3.0,90,123.0
4053,E2,505.0,0.5,127,123.0
4054,E-6,505.375,0.125,110,123.0
4055,E6,505.417,0.25,110,123.0
4056,F#2,505.5,0.5,90,123.0
4057,D4,505.5,0.25,65,123.0
4058,A3,505.5,0.25,65,123.0
4059,E4,505.5,0.25,65,123.0
4060,F#1,505.75,0.25,120,123.0
4061,G6,505.917,0.25,110,123.0
4062,B1,506.0,0.5,127,123.0
4063,G1,506.0,0.25,120,123.0
4064,A6,506.417,0.25,110,123.0
4065,F#2,506.5,0.5,90,123.0
4066,G4,506.5,0.25,65,123.0
4067,B3,506.5,0.25,65,123.0
4068,D4,506.5,0.25,65,123.0
4069,A6,506.85,0.125,110,123.0
4070,B6,506.917,0.25,110,123.0
4071,E2,507.0,0.5,127,123.0
4072,G1,507.0,0.5,120,123.0
4073,A6,507.417,0.25,110,123.0
4074,F#2,507.5,0.5,90,123.0
4075,B1,507.5,0.5,120,123.0
4076,B3,507.5,0.25,65,123.0
4077,D4,507.5,0.25,65,123.0
4078,G4,507.5,0.25,65,123.0
4079,B1,508.0,0.5,127,123.0
4080,C2,508.0,0.25,120,123.0
4081,G4,508.417,0.25,90,123.0
4082,D4,508.417,0.25,90,123.0
4083,E4,508.417,0.25,90,123.0
4084,A3,508.417,0.25,90,123.0
4085,F#2,508.5,0.5,90,123.0
4086,C2,508.5,0.25,120,123.0
4087,G4,508.5,0.25,65,123.0
4088,B3,508.5,0.25,65,123.0
4089,D4,508.5,0.25,65,123.0
4090,E2,509.0,0.5,127,123.0
4091,C2,509.0,0.25,120,123.0
4092,E-6,509.375,0.125,110,123.0
4093,E6,509.417,0.25,110,123.0
4094,F#2,509.5,0.5,90,123.0
4095,C2,509.5,0.25,120,123.0
4096,G4,509.5,0.25,65,123.0
4097,B3,509.5,0.25,65,123.0
4098,D4,509.5,0.25,65,123.0
4099,G6,509.917,0.25,110,123.0
4100,B1,510.0,0.5,127,123.0
4101,B1,510.0,0.25,120,123.0
4102,A6,510.417,0.25,110,123.0
4103,F#2,510.5,0.5,90,123.0
4104,B1,510.5,0.25,120,123.0
4105,F#4,510.5,0.25,65,123.0
4106,A4,510.5,0.25,65,123.0
4107,C5,510.5,0.25,65,123.0
4108,A6,510.85,0.125,110,123.0
4109,B6,510.917,0.25,110,123.0
4110,E2,511.0,0.5,127,123.0
4111,B1,511.0,0.25,120,123.0
4112,A6,511.417,0.25,110,123.0
4113,F#2,511.5,0.5,90,123.0
4114,E-2,511.5,0.25,120,123.0
4115,E4,511.5,0.5,65,123.0
4116,B4,511.5,0.5,65,123.0
4117,G4,511.5,0.5,65,123.0
4118,B1,512.0,0.5,127,123.0
4119,E1,512.0,0.25,120,123.0
4120,E4,512.0,0.25,65,123.0
4121,B4,512.0,0.25,65,123.0
4122,G4,512.0,0.25,65,123.0
4123,A3,512.417,0.25,95,123.0
4124,C4,512.417,0.25,95,123.0
4125,F#4,512.417,0.25,95,123.0
4126,F#2,512.5,0.5,90,123.0
4127,E4,512.5,0.25,65,123.0
4128,A3,512.5,0.25,65,123.0
4129,C4,512.5,0.25,65,123.0
4130,E1,512.75,0.125,120,123.0
4131,E2,513.0,0.5,127,123.0
4132,E1,513.0,0.5,120,123.0
4133,E6,513.417,0.25,110,123.0
4134,F#2,513.5,0.5,90,123.0
4135,G1,513.5,0.5,120,123.0
4136,E4,513.5,0.25,65,123.0
4137,A3,513.5,0.25,65,123.0
4138,C4,513.5,0.25,65,123.0
4139,E6,513.667,0.25,110,123.0
4140,G6,513.917,0.25,110,123.0
4141,B1,514.0,0.5,127,123.0
4142,A1,514.0,0.25,120,123.0
4143,A6,514.417,0.25,110,123.0
4144,F#2,514.5,0.5,90,123.0
4145,A4,514.5,0.25,65,123.0
4146,B3,514.5,0.25,65,123.0
4147,E4,514.5,0.25,65,123.0
4148,A1,514.75,0.125,120,123.0
4149,A6,514.85,0.125,110,123.0
4150,B6,514.917,0.25,110,123.0
4151,E2,515.0,0.5,127,123.0
4152,A1,515.0,0.5,120,123.0
4153,A6,515.417,0.25,110,123.0
4154,F#2,515.5,0.5,90,123.0
4155,C#2,515.5,0.5,120,123.0
4156,A4,515.5,0.5,65,123.0
4157,B3,515.5,0.5,65,123.0
4158,E4,515.5,0.5,65,123.0
4159,B1,516.0,0.5,127,123.0
4160,D2,516.0,0.25,120,123.0
4161,A4,516.0,0.5,65,123.0
4162,B3,516.0,0.5,65,123.0
4163,E4,516.0,0.5,65,123.0
4164,D4,516.417,0.25,95,123.0
4165,A3,516.417,0.25,95,123.0
4166,E4,516.417,0.25,95,123.0
4167,F#2,516.5,0.5,90,123.0
4168,D4,516.5,0.25,65,123.0
4169,A3,516.5,0.25,65,123.0
4170,E4,516.5,0.25,65,123.0
4171,E2,517.0,0.5,127,123.0
4172,D2,517.0,0.25,120,123.0
4173,A6,517.417,0.25,110,123.0
4174,E6,517.417,0.25,110,123.0
4175,F#2,517.5,0.5,90,123.0
4176,A1,517.5,0.25,120,123.0
4177,D4,517.5,0.25,65,123.0
4178,A3,517.5,0.25,65,123.0
4179,E4,517.5,0.25,65,123.0
4180,D6,517.667,0.25,110,123.0
4181,B5,517.917,0.25,110,123.0
4182,B1,518.0,0.5,127,123.0
4183,G1,518.0,0.25,120,123.0
4184,E6,518.167,0.25,110,123.0
4185,B5,518.167,0.25,110,123.0
4186,A5,518.417,0.25,110,123.0
4187,F#2,518.5,0.5,90,123.0
4188,A4,518.5,0.25,65,123.0
4189,B3,518.5,0.25,65,123.0
4190,D4,518.5,0.25,65,123.0
4191,G5,518.667,0.25,110,123.0
4192,A5,518.917,0.25,110,123.0
4193,E5,518.917,0.25,110,123.0
4194,E2,519.0,0.5,127,123.0
4195,A1,519.0,0.25,120,123.0
4196,D5,519.167,167/1000,110,123.0
4197,C5,519.417,0.25,110,123.0
4198,F#2,519.5,0.5,90,123.0
4199,G1,519.5,0.25,120,123.0
4200,B3,519.5,0.5,65,123.0
4201,D4,519.5,0.5,65,123.0
4202,G4,519.5,0.5,65,123.0
4203,B4,519.667,167/1000,110,123.0
4204,A4,519.917,0.5,110,123.0
4205,F#1,520.0,0.75,120,123.0
4206,F#2,520.0,0.5,108,123.0
4207,B1,520.0,0.5,108,123.0
4208,B3,520.0,0.25,65,123.0
4209,D4,520.0,0.25,65,123.0
4210,G4,520.0,0.25,65,123.0
4211,B4,520.417,0.25,110,123.0
4212,B-2,520.5,0.5,90,123.0
4213,A4,520.5,0.25,65,123.0
4214,E4,520.5,0.25,65,123.0
4215,F#4,520.5,0.25,65,123.0
4216,B3,520.5,0.25,65,123.0
4217,G4,520.917,0.25,110,123.0
4218,B-1,521.0,0.75,120,123.0
4219,F#2,521.0,0.5,108,123.0
4220,E2,521.0,0.5,108,123.0
4221,A4,521.417,0.25,110,123.0
4222,B-2,521.5,0.5,90,123.0
4223,A4,521.5,0.25,65,123.0
4224,E4,521.5,0.25,65,123.0
4225,F#4,521.5,0.25,65,123.0
4226,B3,521.5,0.25,65,123.0
4227,B4,521.667,0.25,110,123.0
4228,B1,522.0,0.75,120,123.0
4229,F#2,522.0,0.5,108,123.0
4230,B1,522.0,0.5,108,123.0
4231,D5,522.417,0.25,110,123.0
4232,B-2,522.5,0.5,90,123.0
4233,C4,522.5,0.25,65,123.0
4234,G4,522.5,0.25,65,123.0
4235,C5,522.5,0.25,65,123.0
4236,E4,522.5,0.25,65,123.0
4237,B4,522.917,0.25,110,123.0
4238,E-2,523.0,0.75,120,123.0
4239,F#2,523.0,0.5,108,123.0
4240,E2,523.0,0.5,108,123.0
4241,A4,523.417,0.25,110,123.0
4242,B-2,523.5,0.5,90,123.0
4243,B3,523.5,0.5,65,123.0
4244,E4,523.5,0.5,65,123.0
4245,B4,523.5,0.5,65,123.0
4246,G4,523.5,0.5,65,123.0
4247,G4,523.667,0.25,110,123.0
4248,E2,524.0,0.5,120,123.0
4249,F#2,524.0,0.5,108,123.0
4250,B1,524.0,0.5,108,123.0
4251,B3,524.0,0.25,65,123.0
4252,E4,524.0,0.25,65,123.0
4253,B4,524.0,0.25,65,123.0
4254,G4,524.0,0.25,65,123.0
4255,A4,524.417,0.25,110,123.0
4256,B-2,524.5,0.5,90,123.0
4257,A3,524.5,0.25,65,123.0
4258,C4,524.5,0.25,65,123.0
4259,F#4,524.5,0.25,65,123.0
4260,G4,524.667,0.25,110,123.0
4261,B4,524.917,0.25,110,123.0
4262,G1,525.0,0.25,120,123.0
4263,F#2,525.0,0.5,108,123.0
4264,E2,525.0,0.5,108,123.0
4265,G4,525.167,0.25,110,123.0
4266,D5,525.417,0.25,110,123.0
4267,B-2,525.5,0.5,90,123.0
4268,G#1,525.5,0.25,120,123.0
4269,A3,525.5,0.25,65,123.0
4270,C4,525.5,0.25,65,123.0
4271,F#4,525.5,0.25,65,123.0
4272,G4,525.667,0.25,110,123.0
4273,E5,525.917,0.25,110,123.0
4274,A1,526.0,0.75,120,123.0
4275,F#2,526.0,0.5,108,123.0
4276,B1,526.0,0.5,108,123.0
4277,G5,526.417,0.25,110,123.0
4278,B-2,526.5,0.5,90,123.0
4279,B4,526.5,0.25,65,123.0
4280,B3,526.5,0.25,65,123.0
4281,D4,526.5,0.25,65,123.0
4282,E4,526.5,0.25,65,123.0
4283,G#5,526.917,0.25,110,123.0
4284,C#2,527.0,0.75,120,123.0
4285,F#2,527.0,0.5,108,123.0
4286,E2,527.0,0.5,108,123.0
4287,A5,527.417,167/1000,110,123.0
4288,B-2,527.5,0.5,90,123.0
4289,A4,527.5,0.25,65,123.0
4290,B3,527.5,0.5,65,123.0
4291,E4,527.5,0.5,65,123.0
4292,A4,527.542,0.125,110,123.0
4293,A5,527.667,0.125,110,123.0
4294,A4,527.792,0.125,110,123.0
4295,A5,527.917,0.125,110,123.0
4296,B1,528.0,0.5,127,123.0
4297,D2,528.0,0.25,120,123.0
4298,B3,528.0,0.5,65,123.0
4299,E4,528.0,0.5,65,123.0
4300,A4,528.042,167/1000,110,123.0
4301,A5,528.167,167/1000,110,123.0
4302,A4,528.292,167/1000,110,123.0
4303,A5,528.417,167/1000,110,123.0
4304,F#2,528.5,0.5,90,123.0
4305,D4,528.5,0.25,65,123.0
4306,A3,528.5,0.25,65,123.0
4307,E4,528.5,0.25,65,123.0
4308,A4,528.542,167/1000,110,123.0
4309,A5,528.667,167/1000,110,123.0
4310,A4,528.792,167/1000,110,123.0
4311,A5,528.917,167/1000,110,123.0
4312,E2,529.0,0.5,127,123.0
4313,D2,529.0,0.25,120,123.0
4314,A4,529.042,167/1000,110,123.0
4315,A5,529.167,167/1000,110,123.0
4316,A4,529.292,167/1000,110,123.0
4317,A5,529.417,167/1000,110,123.0
4318,F#2,529.5,0.5,90,123.0
4319,A1,529.5,0.25,120,123.0
4320,D4,529.5,0.25,65,123.0
4321,A3,529.5,0.25,65,123.0
4322,E4,529.5,0.25,65,123.0
4323,A4,529.542,167/1000,110,123.0
4324,A5,529.667,0.75,110,123.0
4325,B1,530.0,0.5,127,123.0
4326,G1,530.0,0.75,120,123.0
4327,E6,530.417,0.25,110,123.0
4328,B5,530.417,0.25,110,123.0
4329,F#2,530.5,0.5,90,123.0
4330,G4,530.5,0.25,65,123.0
4331,B3,530.5,0.25,65,123.0
4332,D4,530.5,0.25,65,123.0
4333,B-5,530.667,0.25,110,123.0
4334,A5,530.917,0.25,110,123.0
4335,E2,531.0,0.5,127,123.0
4336,G2,531.0,1.0,120,123.0
4337,G6,531.167,0.25,110,123.0
4338,E6,531.167,0.25,110,123.0
4339,F#2,531.5,0.5,90,123.0
4340,F#4,531.5,0.25,65,123.0
4341,B3,531.5,0.25,65,123.0
4342,D4,531.5,0.25,65,123.0
4343,A5,531.667,0.25,110,123.0
4344,G6,531.917,0.25,110,123.0
4345,E6,531.917,0.25,110,123.0
4346,B1,532.0,0.5,127,123.0
4347,C2,532.0,1.0,120,123.0
4348,E-6,532.167,0.25,110,123.0
4349,D6,532.417,0.25,110,123.0
4350,F#2,532.5,0.5,90,123.0
4351,F#4,532.5,0.25,65,123.0
4352,B3,532.5,0.25,65,123.0
4353,D4,532.5,0.25,65,123.0
4354,G6,532.667,0.25,110,123.0
4355,B6,532.667,0.25,110,123.0
4356,B1,533.0,0.5,127,123.0
4357,C2,533.0,1.0,120,123.0
4358,D6,533.167,0.25,110,123.0
4359,B6,533.417,0.25,110,123.0
4360,G6,533.417,0.25,110,123.0
4361,F#2,533.5,0.5,90,123.0
4362,F#4,533.5,0.25,65,123.0
4363,B3,533.5,0.25,65,123.0
4364,D4,533.5,0.25,65,123.0
4365,F#6,533.667,0.25,110,123.0
4366,E2,533.75,0.25,127,123.0
4367,E6,533.917,0.25,110,123.0
4368,E2,534.0,0.5,127,123.0
4369,B1,534.0,0.5,120,123.0
4370,B6,534.167,0.25,110,123.0
4371,D7,534.167,0.25,110,123.0
4372,B2,534.5,0.5,127,123.0
4373,D4,534.5,0.25,65,123.0
4374,F#4,534.5,0.25,65,123.0
4375,A4,534.5,0.25,65,123.0
4376,B6,534.917,0.25,110,123.0
4377,A2,535.0,0.5,127,123.0
4378,A6,535.417,0.25,110,123.0
4379,B-1,535.5,0.5,120,123.0
4380,B1,535.5,0.5,127,123.0
4381,G3,535.5,0.5,127,123.0
4382,B-4,535.5,0.5,65,123.0
4383,E4,535.5,0.5,65,123.0
4384,G4,535.5,0.5,65,123.0
4385,E-5,535.5,0.5,65,123.0
4386,G6,535.917,0.25,110,123.0
4387,B-1,536.0,4.0,120,123.0
4388,B-4,536.0,4.0,65,123.0
4389,E4,536.0,4.0,65,123.0
4390,G4,536.0,4.0,65,123.0
4391,E-5,536.0,4.0,65,123.0
4392,E6,536.417,0.25,110,123.0
4393,E6,536.667,0.25,110,123.0
4394,F#2,537.0,1.0,90,123.0
4395,F#2,538.0,1.0,90,123.0
4396,F#2,539.0,1.0,90,123.0
4397,E5,539.167,0.25,110,123.0
4398,E6,539.167,0.25,110,123.0
4399,D5,539.667,0.25,110,123.0
4400,E6,539.917,0.25,110,123.0
4401,E5,539.917,0.25,110,123.0
4402,F#2,540.0,1.0,90,123.0
4403,B-1,540.0,2.5,120,123.0
4404,B-4,540.25,0.25,65,123.0
4405,E4,540.25,0.25,65,123.0
4406,G4,540.25,0.25,65,123.0
4407,E-5,540.25,0.25,65,123.0
4408,D5,540.417,0.25,110,123.0
4409,D6,540.417,0.25,110,123.0
4410,E5,540.917,0.25,110,123.0
4411,E6,540.917,0.25,110,123.0
4412,F#2,541.0,1.0,90,123.0
4413,G5,541.417,1.25,110,123.0
4414,G6,541.417,1.25,110,123.0
4415,F#2,542.0,1.0,90,123.0
4416,F#2,543.0,1.0,90,123.0
4417,E1,544.0,2.0,120,123.0
4418,F#2,544.0,0.5,108,123.0
4419,B1,544.0,0.5,108,123.0
4420,B6,544.167,0.25,100,123.0
4421,B4,544.25,2.0,100,123.0
4422,G#6,544.417,0.25,100,123.0
4423,E6,544.667,0.25,100,123.0
4424,C6,544.917,0.25,100,123.0
4425,F#2,545.0,0.5,108,123.0
4426,C#2,545.0,0.5,108,123.0
4427,B5,545.167,0.25,100,123.0
4428,C6,545.417,0.25,100,123.0
4429,E-6,545.917,0.25,100,123.0
4430,F#1,546.0,1.5,120,123.0
4431,F#2,546.0,0.5,108,123.0
4432,B1,546.0,0.5,108,123.0
4433,C6,546.167,0.25,70,123.0
4434,E4,546.25,2.0,100,123.0
4435,D6,546.417,0.25,100,123.0
4436,B5,546.667,0.25,100,123.0
4437,C#6,546.917,0.25,100,123.0
4438,F#2,547.0,0.5,108,123.0
4439,C#2,547.0,0.5,108,123.0
4440,B-5,547.167,0.25,100,123.0
4441,C6,547.417,0.25,100,123.0
4442,B-2,547.5,0.5,90,123.0
4443,G1,547.5,0.5,120,123.0
4444,A5,547.667,0.25,100,123.0
4445,B5,547.917,0.25,100,123.0
4446,F#2,548.0,0.5,90,123.0
4447,G1,548.0,0.25,120,123.0
4448,G#5,548.167,0.25,100,123.0
4449,B-5,548.417,0.25,100,123.0
4450,G5,548.667,0.25,100,123.0
4451,A5,548.917,0.25,100,123.0
4452,C2,549.0,1333/1000,120,123.0
4453,B-2,549.0,0.5,108,123.0
4454,B1,549.0,0.5,108,123.0
4455,F5,549.167,0.25,100,123.0
4456,G5,549.417,0.25,100,123.0
4457,F#5,549.667,0.25,100,123.0
4458,F5,549.917,0.25,100,123.0
4459,F#2,550.0,0.5,90,123.0
4460,E-5,550.167,0.25,100,123.0
4461,D4,550.25,0.5,100,123.0
4462,C5,550.417,0.25,100,123.0
4463,B-4,550.667,0.25,100,123.0
4464,E4,550.75,0.5,100,123.0
4465,G4,550.917,0.25,100,123.0
4466,B1,551.0,479/500,120,123.0
4467,F#2,551.0,0.5,108,123.0
4468,C#2,551.0,0.5,108,123.0
4469,F#4,551.167,0.25,100,123.0
4470,G4,551.25,0.5,100,123.0
4471,E4,551.417,0.25,100,123.0
4472,B-2,551.5,0.5,90,123.0
4473,D4,551.667,0.25,100,123.0
4474,C5,551.75,0.5,100,123.0
4475,E4,551.917,0.25,100,123.0
4476,B-1,552.0,1.5,120,123.0
4477,F#2,552.0,0.5,108,123.0
4478,B1,552.0,0.5,108,123.0
4479,A4,552.167,0.25,100,123.0
4480,A4,552.25,2.0,100,123.0
4481,C5,552.417,0.25,100,123.0
4482,E5,552.667,0.25,100,123.0
4483,D5,552.917,0.25,100,123.0
4484,F#2,553.0,0.5,108,123.0
4485,C#2,553.0,0.5,108,123.0
4486,E5,553.167,0.25,100,123.0
4487,G5,553.417,0.25,100,123.0
4488,D2,553.5,0.5,120,123.0
4489,E-5,553.667,0.25,100,123.0
4490,E5,553.917,0.25,100,123.0
4491,E-2,554.0,1.0,120,123.0
4492,B-2,554.0,0.5,108,123.0
4493,B1,554.0,0.5,108,123.0
4494,F5,554.167,0.25,100,123.0
4495,D4,554.25,2.0,100,123.0
4496,E5,554.417,0.25,100,123.0
4497,C5,554.667,0.25,100,123.0
4498,G4,554.917,0.25,100,123.0
4499,F#2,555.0,0.5,108,123.0
4500,C#2,555.0,0.5,108,123.0
4501,F4,555.167,0.25,100,123.0
4502,E4,555.417,0.25,100,123.0
4503,A1,555.5,0.5,120,123.0
4504,C4,555.667,0.25,100,123.0
4505,E4,555.917,0.25,100,123.0
4506,F#2,556.0,0.5,90,123.0
4507,A1,556.0,0.25,120,123.0
4508,F4,556.167,0.25,100,123.0
4509,F#4,556.417,0.25,100,123.0
4510,G4,556.667,0.25,100,123.0
4511,A4,556.917,0.25,100,123.0
4512,D2,557.0,2.0,120,123.0
4513,B-2,557.0,0.5,108,123.0
4514,B1,557.0,0.5,108,123.0
4515,F#4,557.167,0.25,100,123.0
4516,C#4,557.25,1.0,100,123.0
4517,G4,557.417,0.25,100,123.0
4518,A4,557.667,0.25,100,123.0
4519,B4,557.917,0.25,100,123.0
4520,F#2,558.0,0.5,90,123.0
4521,G4,558.167,0.25,100,123.0
4522,E4,558.25,0.5,100,123.0
4523,C5,558.417,0.25,100,123.0
4524,B-2,558.5,0.5,90,123.0
4525,G4,558.667,0.25,100,123.0
4526,E-4,558.75,1.0,100,123.0
4527,C#5,558.917,0.25,100,123.0
4528,E-2,559.0,1.0,120,123.0
4529,F#2,559.0,0.5,108,123.0
4530,C#2,559.0,0.5,108,123.0
4531,G4,559.167,0.25,100,123.0
4532,B-4,559.417,0.5,110,123.0
4533,G4,559.417,0.5,110,123.0
4534,E4,559.417,0.5,110,123.0
4535,E-5,559.417,0.5,110,123.0
4536,B-2,559.5,0.5,90,123.0
4537,F#4,559.75,0.5,100,123.0
4538,B-4,559.917,3.25,110,123.0
4539,G4,559.917,1.5,110,123.0
4540,E4,559.917,8.0,110,123.0
4541,E-5,559.917,8.0,110,123.0
4542,E1,560.0,2.0,120,123.0
4543,F#2,560.0,0.5,108,123.0
4544,B1,560.0,0.5,108,123.0
4545,B4,560.25,2.0,100,123.0
4546,C5,560.417,0.25,100,123.0
4547,G4,560.917,1.75,99,123.0
4548,F#2,561.0,0.5,108,123.0
4549,C#2,561.0,0.5,108,123.0
4550,F4,561.417,1.0,99,123.0
4551,F#1,562.0,1.5,120,123.0
4552,F#2,562.0,0.5,108,123.0
4553,B1,562.0,0.5,108,123.0
4554,E4,562.25,2.0,100,123.0
4555,G4,562.417,1.5,97,123.0
4556,G#4,562.667,0.25,97,123.0
4557,B-4,562.917,1.0,97,123.0
4558,F#2,563.0,0.5,108,123.0
4559,C#2,563.0,0.5,108,123.0
4560,D4,563.417,0.5,96,123.0
4561,G1,563.5,0.5,120,123.0
4562,B1,563.5,0.5,108,123.0
4563,B-2,563.5,0.5,108,123.0
4564,F#2,564.0,0.5,90,123.0
4565,G1,564.0,0.25,120,123.0
4566,C2,565.0,1333/1000,120,123.0
4567,B-2,565.0,0.5,108,123.0
4568,B1,565.0,0.5,108,123.0
4569,F#2,566.0,0.5,90,123.0
4570,D4,566.25,0.5,100,123.0
4571,E4,566.75,0.5,100,123.0
4572,B1,567.0,479/500,120,123.0
4573,F#2,567.0,0.5,108,123.0
4574,C#2,567.0,0.5,108,123.0
4575,G4,567.25,0.5,100,123.0
4576,B1,567.5,0.5,108,123.0
4577,B-2,567.5,0.5,108,123.0
4578,C5,567.75,0.5,100,123.0
4579,C4,567.917,0.75,95,123.0
4580,B-4,567.917,4.0,97,123.0
4581,G4,567.917,4.0,97,123.0
4582,B-1,568.0,1.5,120,123.0
4583,F#2,568.0,0.5,108,123.0
4584,B1,568.0,0.5,108,123.0
4585,A4,568.25,2.0,100,123.0
4586,D4,568.667,0.25,95,123.0
4587,C4,568.917,0.75,94,123.0
4588,F#2,569.0,0.5,108,123.0
4589,C#2,569.0,0.5,108,123.0
4590,D2,569.5,0.5,120,123.0
4591,B-3,569.667,0.25,85,123.0
4592,C4,569.917,2.0,93,123.0
4593,E-2,570.0,1.0,120,123.0
4594,B-2,570.0,0.5,108,123.0
4595,B1,570.0,0.5,108,123.0
4596,D4,570.25,2.0,100,123.0
4597,F#2,571.0,0.5,108,123.0
4598,C#2,571.0,0.5,108,123.0
4599,A1,571.5,0.5,120,123.0
4600,E3,571.917,4.0,100,123.0
4601,B3,571.917,3.5,100,123.0
4602,A1,572.0,0.25,120,123.0
4603,F#2,572.0,0.5,108,123.0
4604,B1,572.0,0.5,108,123.0
4605,F#3,572.417,0.5,100,123.0
4606,G#3,572.917,0.5,100,123.0
4607,D2,573.0,1.5,120,123.0
4608,F#2,573.0,0.5,108,123.0
4609,C#2,573.0,0.5,108,123.0
4610,E2,573.25,0.25,127,123.0
4611,C#4,573.25,1.0,100,123.0
4612,E4,573.417,0.5,100,123.0
4613,B1,573.5,0.25,127,123.0
4614,B-2,573.5,0.5,90,123.0
4615,G#4,573.917,2.0,100,123.0
4616,E4,573.917,2.0,100,123.0
4617,C#4,573.917,2.0,100,123.0
4618,B1,574.0,0.5,127,123.0
4619,E2,574.25,0.25,127,123.0
4620,E4,574.25,0.5,100,123.0
4621,A3,574.417,0.5,100,123.0
4622,C#2,574.5,1.5,120,123.0
4623,B1,574.75,0.25,127,123.0
4624,G4,574.75,1.0,100,123.0
4625,B3,574.917,1.0,100,123.0
4626,E2,575.0,0.5,127,123.0
4627,E2,575.25,0.25,127,123.0
4628,G4,575.417,0.5,100,123.0
4629,C4,575.417,0.5,100,123.0
4630,E4,575.417,0.5,100,123.0
4631,C5,575.417,0.5,100,123.0
4632,B1,575.75,0.25,127,123.0
4633,B4,575.75,0.5,100,123.0
4634,C2,576.0,1.0,120,123.0
4635,C#3,576.0,0.5,109,123.0
4636,F#2,576.0,0.5,109,123.0
4637,B1,576.0,0.5,109,123.0
4638,D5,576.25,2.0,100,123.0
4639,D4,576.875,0.5,100,123.0
4640,G4,576.875,0.5,100,123.0
4641,C4,576.875,479/500,100,123.0
4642,E4,576.875,479/500,100,123.0
4643,C5,576.875,479/500,100,123.0
4644,G1,577.0,0.5,120,123.0
4645,F#2,577.0,0.5,109,123.0
4646,E-3,577.0,0.5,109,123.0
4647,E2,577.0,0.5,109,123.0
4648,G4,577.375,0.5,100,123.0
4649,F1,577.5,0.5,120,123.0
4650,C5,577.75,1.5,100,123.0
4651,E4,577.875,2.0,100,123.0
4652,G4,577.875,2.0,100,123.0
4653,B4,577.875,2.0,100,123.0
4654,F#2,578.0,0.5,109,123.0
4655,E-3,578.0,0.5,109,123.0
4656,B1,578.0,0.5,109,123.0
4657,G1,578.5,0.5,120,123.0
4658,G#1,579.0,0.5,120,123.0
4659,F#2,579.0,0.5,109,123.0
4660,E-3,579.0,0.5,109,123.0
4661,E2,579.0,0.5,109,123.0
4662,A1,579.5,0.5,120,123.0
4663,B4,579.75,0.5,100,123.0
4664,F4,579.875,1.0,101,123.0
4665,E-4,579.875,1.0,101,123.0
4666,A4,579.875,1.0,101,123.0
4667,A1,580.0,0.5,120,123.0
4668,F#2,580.0,0.5,109,123.0
4669,E-3,580.0,0.5,109,123.0
4670,B1,580.0,0.5,109,123.0
4671,B4,580.25,1.0,100,123.0
4672,C#2,580.5,0.5,120,123.0
4673,A4,580.875,0.5,101,123.0
4674,D4,580.875,1.0,101,123.0
4675,D2,581.0,2.0,120,123.0
4676,F#2,581.0,0.5,109,123.0
4677,E-3,581.0,0.5,109,123.0
4678,E2,581.0,0.5,109,123.0
4679,A4,581.25,3.0,100,123.0
4680,A4,581.375,0.5,101,123.0
4681,F4,581.875,0.5,101,123.0
4682,F#2,582.0,0.5,109,123.0
4683,E-3,582.0,0.5,109,123.0
4684,B1,582.0,0.5,109,123.0
4685,D4,582.375,0.5,101,123.0
4686,G4,582.875,1.0,101,123.0
4687,D5,582.875,0.5,101,123.0
4688,B-3,582.875,0.5,101,123.0
4689,D2,583.0,0.5,120,123.0
4690,F#2,583.0,0.5,109,123.0
4691,E-3,583.0,0.5,109,123.0
4692,E2,583.0,0.5,109,123.0
4693,E2,583.25,0.25,127,123.0
4694,B-4,583.375,0.5,101,123.0
4695,A1,583.5,0.5,120,123.0
4696,G4,583.875,0.5,101,123.0
4697,G1,584.0,1.0,120,123.0
4698,F#2,584.0,0.5,109,123.0
4699,E-3,584.0,0.5,109,123.0
4700,B1,584.0,0.5,109,123.0
4701,A4,584.25,1.5,100,123.0
4702,A4,584.375,0.5,101,123.0
4703,B3,584.375,0.5,101,123.0
4704,E4,584.375,0.5,101,123.0
4705,D2,585.0,0.5,120,123.0
4706,F#2,585.0,0.5,109,123.0
4707,E-3,585.0,0.5,109,123.0
4708,E2,585.0,0.5,109,123.0
4709,C2,585.5,1333/1000,120,123.0
4710,G4,585.75,1.5,100,123.0
4711,F#2,586.0,0.5,109,123.0
4712,E-3,586.0,0.5,109,123.0
4713,B1,586.0,0.5,109,123.0
4714,A4,586.375,0.5,101,123.0
4715,B3,586.375,1.5,101,123.0
4716,E4,586.375,1.5,101,123.0
4717,A5,586.875,0.5,101,123.0
4718,E-2,587.0,0.5,120,123.0
4719,F#2,587.0,0.5,109,123.0
4720,E-3,587.0,0.5,109,123.0
4721,E2,587.0,0.5,109,123.0
4722,F#5,587.375,2.0,102,123.0
4723,F#4,587.375,1.5,102,123.0
4724,A4,587.375,1.5,102,123.0
4725,C#5,587.375,1.5,102,123.0
4726,E2,587.5,0.5,120,123.0
4727,F#4,587.75,0.5,100,123.0
4728,E2,588.0,417/1000,120,123.0
4729,F#2,588.0,0.5,109,123.0
4730,E-3,588.0,0.5,109,123.0
4731,B1,588.0,0.5,109,123.0
4732,F#4,588.25,1.0,100,123.0
4733,B2,588.5,0.5,120,123.0
4734,F#4,588.875,1.5,102,123.0
4735,A4,588.875,1.5,102,123.0
4736,E-5,588.875,1.5,102,123.0
4737,A2,589.0,2.0,120,123.0
4738,F#2,589.0,0.5,109,123.0
4739,E-3,589.0,0.5,109,123.0
4740,E2,589.0,0.5,109,123.0
4741,E4,589.25,3.0,100,123.0
4742,F#2,590.0,0.5,109,123.0
4743,E-3,590.0,0.5,109,123.0
4744,B1,590.0,0.5,109,123.0
4745,E3,590.375,4.0,102,123.0
4746,B3,590.375,3.5,102,123.0
4747,E2,590.5,0.5,110,123.0
4748,F#3,590.875,0.5,102,123.0
4749,A1,591.0,1.0,120,123.0
4750,F#2,591.0,0.5,109,123.0
4751,E-3,591.0,0.5,109,123.0
4752,E2,591.0,0.5,109,123.0
4753,G#3,591.375,0.5,102,123.0
4754,E4,591.875,0.5,102,123.0
4755,C2,592.0,1.0,120,123.0
4756,F#2,592.0,0.5,109,123.0
4757,E-3,592.0,0.5,109,123.0
4758,B1,592.0,0.5,109,123.0
4759,D5,592.25,2.0,100,123.0
4760,G#4,592.375,2.0,102,123.0
4761,E4,592.375,2.0,102,123.0
4762,C#4,592.375,2.0,102,123.0
4763,A3,592.875,0.5,102,123.0
4764,G1,593.0,0.5,120,123.0
4765,F#2,593.0,0.5,109,123.0
4766,E-3,593.0,0.5,109,123.0
4767,E2,593.0,0.5,109,123.0
4768,B3,593.375,1.0,102,123.0
4769,F1,593.5,0.5,120,123.0
4770,C5,593.75,1.5,100,123.0
4771,G4,593.875,0.5,103,123.0
4772,C4,593.875,0.5,103,123.0
4773,E4,593.875,0.5,103,123.0
4774,C5,593.875,0.5,103,123.0
4775,F#2,594.0,0.5,109,123.0
4776,E-3,594.0,0.5,109,123.0
4777,B1,594.0,0.5,109,123.0
4778,G1,594.5,0.5,120,123.0
4779,G#1,595.0,0.5,120,123.0
4780,F#2,595.0,0.5,109,123.0
4781,E-3,595.0,0.5,109,123.0
4782,E2,595.0,0.5,109,123.0
4783,D4,595.333,0.5,103,123.0
4784,G4,595.333,0.5,103,123.0
4785,C4,595.333,479/500,103,123.0
4786,E4,595.333,479/500,103,123.0
4787,C5,595.333,479/500,103,123.0
4788,A1,595.5,0.5,120,123.0
4789,B4,595.75,0.5,100,123.0
4790,G4,595.833,0.5,103,123.0
4791,A1,596.0,0.5,120,123.0
4792,F#2,596.0,0.5,109,123.0
4793,E-3,596.0,0.5,109,123.0
4794,B1,596.0,0.5,109,123.0
4795,B4,596.25,1.0,100,123.0
4796,E4,596.333,2.0,103,123.0
4797,G4,596.333,2.0,103,123.0
4798,B4,596.333,2.0,103,123.0
4799,C#2,596.5,0.5,120,123.0
4800,D2,597.0,3.0,120,123.0
4801,F#2,597.0,0.5,109,123.0
4802,E-3,597.0,0.5,109,123.0
4803,E2,597.0,0.5,109,123.0
4804,A4,597.25,3.0,100,123.0
4805,F#2,598.0,0.5,109,123.0
4806,E-3,598.0,0.5,109,123.0
4807,B1,598.0,0.5,109,123.0
4808,F4,598.333,1.0,103,123.0
4809,E-4,598.333,1.0,103,123.0
4810,A4,598.333,1.0,103,123.0
4811,F#2,599.0,0.5,109,123.0
4812,E-3,599.0,0.5,109,123.0
4813,E2,599.0,0.5,109,123.0
4814,A4,599.333,0.5,103,123.0
4815,D4,599.333,1.0,103,123.0
4816,A4,599.833,0.5,103,123.0
4817,F#2,600.0,1.0,85,123.0
4818,B3,600.0,0.25,90,123.0
4819,G2,600.0,1.5,120,123.0
4820,E-3,600.25,0.25,90,123.0
4821,A4,600.25,0.5,100,123.0
4822,F4,600.333,0.5,103,123.0
4823,E-3,600.5,0.25,75,123.0
4824,E-3,600.75,0.25,90,123.0
4825,C5,600.75,0.5,100,123.0
4826,D4,600.833,0.5,103,123.0
4827,F#2,601.0,1.0,85,123.0
4828,B3,601.0,0.25,90,123.0
4829,B1,601.0,0.5,127,123.0
4830,E-3,601.25,0.25,90,123.0
4831,A4,601.25,0.5,100,123.0
4832,G4,601.333,1.0,104,123.0
4833,D5,601.333,0.5,104,123.0
4834,B-3,601.333,0.5,104,123.0
4835,B3,601.5,0.25,75,123.0
4836,C3,601.5,1.5,120,123.0
4837,E-3,601.75,0.25,90,123.0
4838,G4,601.75,2.5,100,123.0
4839,B-4,601.833,0.5,104,123.0
4840,F#2,602.0,1.0,85,123.0
4841,B3,602.0,0.25,90,123.0
4842,E-3,602.25,0.25,90,123.0
4843,G4,602.333,0.5,104,123.0
4844,B-2,602.5,0.25,80,123.0
4845,E-3,602.75,0.25,90,123.0
4846,A4,602.833,0.5,104,123.0
4847,B3,602.833,0.5,104,123.0
4848,E4,602.833,0.5,104,123.0
4849,F#2,603.0,1.0,85,123.0
4850,B3,603.0,0.25,90,123.0
4851,B1,603.0,0.5,127,123.0
4852,E-3,603.25,0.25,90,123.0
4853,B3,603.5,0.25,75,123.0
4854,E-3,603.75,0.25,90,123.0
4855,F#2,604.0,1.0,85,123.0
4856,B3,604.0,0.25,90,123.0
4857,F2,604.0,1.0,120,123.0
4858,E-3,604.25,0.25,90,123.0
4859,G4,604.25,0.5,100,123.0
4860,B3,604.5,0.25,75,123.0
4861,E-3,604.75,0.25,90,123.0
4862,B-4,604.75,0.5,100,123.0
4863,A4,604.833,0.5,104,123.0
4864,B3,604.833,1.5,104,123.0
4865,E4,604.833,1.5,104,123.0
4866,F#2,605.0,1.0,85,123.0
4867,B3,605.0,0.25,90,123.0
4868,B1,605.0,0.5,127,123.0
4869,C3,605.0,0.5,120,123.0
4870,E-3,605.25,0.25,90,123.0
4871,G4,605.25,0.5,100,123.0
4872,A5,605.333,0.5,104,123.0
4873,B3,605.5,0.25,75,123.0
4874,B-2,605.5,1.5,120,123.0
4875,E-3,605.75,0.25,90,123.0
4876,F4,605.75,2.5,100,123.0
4877,F#5,605.833,2.0,104,123.0
4878,F#4,605.833,1.5,104,123.0
4879,A4,605.833,1.5,104,123.0
4880,C#5,605.833,1.5,104,123.0
4881,F#2,606.0,1.0,85,123.0
4882,B3,606.0,0.25,90,123.0
4883,E-3,606.25,0.25,90,123.0
4884,B-2,606.5,0.25,80,123.0
4885,E-3,606.75,0.25,90,123.0
4886,F#2,607.0,1.0,85,123.0
4887,B3,607.0,0.25,90,123.0
4888,B1,607.0,0.5,127,123.0
4889,E-3,607.25,0.25,90,123.0
4890,A4,607.333,1.5,104,123.0
4891,G4,607.333,1.5,104,123.0
4892,E-4,607.333,1.5,104,123.0
4893,B3,607.5,0.25,75,123.0
4894,E-3,607.75,0.25,90,123.0
4895,B3,608.0,0.25,75,123.0
4896,F#2,608.0,1.0,85,123.0
4897,E-2,608.0,1.5,120,123.0
4898,F4,608.25,1.5,100,123.0
4899,E-3,608.5,0.25,75,123.0
4900,D5,608.833,0.75,110,123.0
4901,F4,608.833,0.75,110,123.0
4902,B-4,608.833,0.75,110,123.0
4903,F5,608.833,0.75,110,123.0
4904,B3,609.0,0.25,75,123.0
4905,F#2,609.0,1.0,85,123.0
4906,E-3,609.5,0.25,75,123.0
4907,G#2,609.5,1.0,120,123.0
4908,D5,609.583,0.25,110,123.0
4909,F4,609.583,0.25,110,123.0
4910,B-4,609.583,0.25,110,123.0
4911,F5,609.583,0.25,110,123.0
4912,E-4,609.75,1.0,100,123.0
4913,B3,610.0,0.25,75,123.0
4914,F#2,610.0,1.0,85,123.0
4915,E4,610.333,2.0,110,123.0
4916,A4,610.333,2.0,110,123.0
4917,C5,610.333,2.0,110,123.0
4918,E5,610.333,2.0,110,123.0
4919,E-3,610.5,0.25,75,123.0
4920,E-3,610.5,0.5,120,123.0
4921,F4,610.75,0.5,100,123.0
4922,G3,611.0,0.25,75,123.0
4923,F#2,611.0,1.0,85,123.0
4924,B1,611.0,0.5,127,123.0
4925,D3,611.0,1.0,120,123.0
4926,D4,611.25,1.0,100,123.0
4927,F#2,612.0,1.0,85,123.0
4928,D3,612.0,3.75,120,123.0
4929,D4,612.25,3.0,100,123.0
4930,D4,612.333,0.5,110,123.0
4931,B4,612.333,0.5,110,123.0
4932,G4,612.333,0.5,110,123.0
4933,D5,612.333,0.5,110,123.0
4934,D4,612.833,1.0,110,123.0
4935,B4,612.833,1.0,110,123.0
4936,G4,612.833,1.0,110,123.0
4937,D5,612.833,1.0,110,123.0
4938,F#2,613.0,1.0,85,123.0
4939,A4,613.333,0.25,110,123.0
4940,E5,613.333,0.25,110,123.0
4941,G4,613.583,0.25,110,123.0
4942,D5,613.583,0.25,110,123.0
4943,A4,613.833,2.0,110,123.0
4944,C#5,613.833,2.0,110,123.0
4945,D4,613.833,3.0,110,123.0
4946,F#4,613.833,3.0,110,123.0
4947,F#2,614.0,1.0,85,123.0
4948,F#2,615.0,1.0,85,123.0
4949,E4,615.333,0.25,110,123.0
4950,C#5,615.583,1.25,110,123.0
4951,A4,615.583,1.25,110,123.0
4952,A4,615.833,1.0,110,123.0
4953,C#5,615.833,1.0,110,123.0
4954,F#5,615.833,1.0,110,123.0
4955,E3,616.0,1.0,85,123.0
4956,D4,616.0,4.0,80,123.0
4957,D4,616.833,1.5,110,123.0
4958,C5,616.833,1.5,110,123.0
4959,A4,616.833,1.5,110,123.0
4960,F4,616.833,1.5,110,123.0
4961,D5,617.833,0.5,110,123.0
4962,B3,618.333,1.5,110,123.0
4963,E4,618.333,1.5,110,123.0
4964,G4,618.333,1.5,110,123.0
4965,B4,618.333,1.5,110,123.0
4966,G3,620.25,0.25,65,123.0
4967,G4,620.25,0.25,65,123.0
4968,D4,620.333,0.5,110,123.0
4969,F4,620.333,0.5,110,123.0
4970,A4,620.333,0.5,110,123.0
4971,G3,620.75,0.25,65,123.0
4972,D4,620.833,1.0,110,123.0
4973,F4,620.833,1.0,110,123.0
4974,A4,620.833,1.0,110,123.0
4975,D4,621.0,0.25,65,123.0
4976,G3,621.25,0.25,65,123.0
4977,G4,621.5,0.25,65,123.0
4978,G3,621.75,0.25,65,123.0
4979,C#4,621.833,2.5,110,123.0
4980,E4,621.833,1.75,110,123.0
4981,G#4,621.833,2.0,110,123.0
4982,G4,622.25,0.25,65,123.0
4983,G3,622.25,0.25,65,123.0
4984,G3,622.75,0.25,65,123.0
4985,D4,623.0,0.25,65,123.0
4986,G3,623.25,0.25,65,123.0
4987,E4,623.333,1.0,110,123.0
4988,G4,623.5,0.25,65,123.0
4989,G#4,623.583,0.75,110,123.0
4990,G3,623.75,0.25,65,123.0
4991,G#4,623.833,1.0,110,123.0
4992,C#5,623.833,1.0,110,123.0
4993,E5,623.833,1.0,110,123.0
4994,B1,624.0,1.0,90,123.0
4995,F#2,624.0,0.5,85,123.0
4996,A1,624.0,2.0,120,123.0
4997,G3,624.25,0.25,65,123.0
4998,G4,624.25,0.25,65,123.0
4999,G3,624.5,0.5,110,123.0
5000,G3,624.75,0.25,65,123.0
5001,D5,624.833,0.75,110,123.0
5002,F4,624.833,0.75,110,123.0
5003,B-4,624.833,0.75,110,123.0
5004,F5,624.833,0.75,110,123.0
5005,D4,625.0,0.25,65,123.0
5006,G3,625.25,0.25,65,123.0
5007,G4,625.5,0.25,65,123.0
5008,D5,625.583,0.25,110,123.0
5009,F4,625.583,0.25,110,123.0
5010,B-4,625.583,0.25,110,123.0
5011,F5,625.583,0.25,110,123.0
5012,G3,625.75,0.25,65,123.0
5013,B1,626.0,0.5,127,123.0
5014,B1,626.0,2.0,120,123.0
5015,G4,626.25,0.25,65,123.0
5016,G3,626.25,0.25,65,123.0
5017,E4,626.333,2.0,110,123.0
5018,A4,626.333,2.0,110,123.0
5019,C5,626.333,2.0,110,123.0
5020,E5,626.333,2.0,110,123.0
5021,G3,626.75,0.25,65,123.0
5022,D4,627.0,0.25,65,123.0
5023,G3,627.25,0.25,65,123.0
5024,G4,627.5,0.25,65,123.0
5025,G3,627.75,0.25,65,123.0
5026,E2,628.0,0.25,127,123.0
5027,F#2,628.0,1.0,85,123.0
5028,C2,628.0,2.0,120,123.0
5029,G3,628.25,0.25,65,123.0
5030,G4,628.25,0.25,65,123.0
5031,D4,628.333,0.5,110,123.0
5032,B4,628.333,0.5,110,123.0
5033,G4,628.333,0.5,110,123.0
5034,D5,628.333,0.5,110,123.0
5035,E2,628.75,0.25,127,123.0
5036,G3,628.75,0.25,65,123.0
5037,D4,628.833,1.0,110,123.0
5038,B4,628.833,1.0,110,123.0
5039,G4,628.833,1.0,110,123.0
5040,D5,628.833,1.0,110,123.0
5041,B-2,629.0,0.5,90,123.0
5042,F#2,629.0,1.0,85,123.0
5043,B1,629.0,0.25,127,123.0
5044,D4,629.0,0.25,65,123.0
5045,G3,629.25,0.25,65,123.0
5046,A4,629.333,0.25,110,123.0
5047,E5,629.333,0.25,110,123.0
5048,G4,629.5,0.25,65,123.0
5049,G4,629.583,0.25,110,123.0
5050,D5,629.583,0.25,110,123.0
5051,G3,629.75,0.25,65,123.0
5052,A4,629.833,3.0,110,123.0
5053,D4,629.833,3.0,110,123.0
5054,F#4,629.833,3.0,110,123.0
5055,C#5,629.833,3.0,110,123.0
5056,F#2,630.0,0.5,90,123.0
5057,B1,630.0,0.25,127,123.0
5058,F#2,630.0,1.0,85,123.0
5059,D2,630.0,1.0,120,123.0
5060,G4,630.25,0.25,65,123.0
5061,G3,630.25,0.25,65,123.0
5062,G3,630.5,0.5,90,123.0
5063,B1,630.75,0.25,127,123.0
5064,G3,630.75,0.25,65,123.0
5065,F#2,631.0,1.0,85,123.0
5066,E2,631.0,0.25,120,123.0
5067,D4,631.0,0.25,65,123.0
5068,E2,631.0,0.25,127,123.0
5069,B1,631.0,0.25,127,123.0
5070,G3,631.25,0.25,65,123.0
5071,E5,631.333,0.5,110,123.0
5072,E2,631.5,0.25,127,123.0
5073,G2,631.5,0.25,120,123.0
5074,G4,631.5,0.25,65,123.0
5075,A2,631.75,0.25,120,123.0
5076,G3,631.75,0.25,65,123.0
5077,F#5,631.833,0.25,110,123.0
5078,F#2,632.0,0.5,90,123.0
5079,B1,632.0,0.25,127,123.0
5080,F#2,632.0,1.0,85,123.0
5081,A1,632.0,2.0,120,123.0
5082,E5,632.083,0.75,110,123.0
5083,A5,632.083,0.75,110,123.0
5084,E2,632.25,0.25,127,123.0
5085,G3,632.25,0.25,65,123.0
5086,G4,632.25,0.25,65,123.0
5087,G3,632.75,0.25,65,123.0
5088,A5,632.833,0.5,110,123.0
5089,C4,632.833,1.5,110,123.0
5090,E4,632.833,1.5,110,123.0
5091,C5,632.833,1.5,110,123.0
5092,G4,632.833,1.5,110,123.0
5093,F#2,633.0,0.5,90,123.0
5094,E2,633.0,0.25,127,123.0
5095,F#2,633.0,1.0,85,123.0
5096,D4,633.0,0.25,65,123.0
5097,G3,633.25,0.25,65,123.0
5098,C6,633.333,0.5,110,123.0
5099,B-2,633.5,0.5,90,123.0
5100,G4,633.5,0.25,65,123.0
5101,G3,633.75,0.25,65,123.0
5102,A5,633.833,167/1000,110,123.0
5103,F#2,634.0,0.5,90,123.0
5104,F#2,634.0,1.0,85,123.0
5105,B1,634.0,1.5,120,123.0
5106,G4,634.25,0.25,65,123.0
5107,G3,634.25,0.25,65,123.0
5108,E2,634.333,333/1000,127,123.0
5109,G5,634.333,2.5,110,123.0
5110,B4,634.333,2.5,110,123.0
5111,B3,634.333,2.5,110,123.0
5112,E4,634.333,2.5,110,123.0
5113,G4,634.333,2.5,110,123.0
5114,E2,634.667,333/1000,127,123.0
5115,G3,634.75,0.25,65,123.0
5116,C3,635.0,333/1000,127,123.0
5117,D4,635.0,0.25,65,123.0
5118,F#2,635.0,1.0,106,123.0
5119,B1,635.0,1.0,106,123.0
5120,G3,635.25,0.25,65,123.0
5121,B2,635.333,333/1000,127,123.0
5122,G4,635.5,0.25,65,123.0
5123,A2,635.667,333/1000,127,123.0
5124,G3,635.75,0.25,65,123.0
5125,F#2,636.0,0.5,90,123.0
5126,E2,636.0,0.25,127,123.0
5127,B1,636.5,0.25,127,123.0
5128,B3,636.5,0.25,105,123.0
5129,G3,636.75,0.25,90,123.0
5130,A3,636.75,0.25,105,123.0
5131,G5,636.833,0.5,110,123.0
5132,G4,636.833,1.5,110,123.0
5133,B-3,636.833,1.5,110,123.0
5134,E-4,636.833,1.5,110,123.0
5135,F#2,637.0,0.5,90,123.0
5136,G3,637.0,0.25,105,123.0
5137,E2,637.25,0.25,127,123.0
5138,E3,637.25,0.25,105,123.0
5139,B-5,637.333,0.5,110,123.0
5140,B-2,637.5,0.25,90,123.0
5141,C3,637.5,0.25,110,123.0
5142,F#2,637.75,0.25,90,123.0
5143,G5,637.833,0.25,110,123.0
5144,E2,638.0,0.25,90,123.0
5145,F1,638.0,0.25,120,123.0
5146,E2,638.25,0.25,127,123.0
5147,F5,638.333,0.5,110,123.0
5148,F4,638.333,1.5,110,123.0
5149,B-3,638.333,1.5,110,123.0
5150,D4,638.333,1.5,110,123.0
5151,G3,638.5,0.25,90,123.0
5152,C2,638.75,0.25,127,123.0
5153,F#2,639.0,0.5,90,123.0
5154,E1,639.0,1.0,120,123.0
5155,G2,639.0,0.25,127,123.0
5156,B2,639.0,0.25,127,123.0
5157,E2,639.5,0.25,108,123.0
5158,G3,639.5,0.25,108,123.0
5159,E2,639.75,0.25,127,123.0
5160,A1,640.0,0.25,120,123.0
5161,C#3,640.0,0.5,109,123.0
5162,F#2,640.0,0.5,109,123.0
5163,B1,640.0,0.5,109,123.0
5164,F5,640.333,0.25,110,123.0
5165,G5,640.583,0.25,110,123.0
5166,G4,640.75,0.75,100,123.0
5167,G5,640.75,0.75,100,123.0
5168,G#5,640.833,0.5,110,123.0
5169,E-5,640.833,1.5,110,123.0
5170,B-4,640.833,1.5,110,123.0
5171,F4,640.833,1.5,110,123.0
5172,E-3,641.0,0.5,109,123.0
5173,F#2,641.0,0.5,109,123.0
5174,E2,641.0,0.5,109,123.0
5175,G5,641.333,0.5,110,123.0
5176,A1,641.5,0.25,120,123.0
5177,F5,641.833,0.5,110,123.0
5178,B1,642.0,0.25,120,123.0
5179,E-3,642.0,0.5,109,123.0
5180,F#2,642.0,0.5,109,123.0
5181,B1,642.0,0.5,109,123.0
5182,G5,642.333,0.5,110,123.0
5183,G4,642.333,1.5,110,123.0
5184,C5,642.333,1.5,110,123.0
5185,E-5,642.833,0.5,110,123.0
5186,E-3,643.0,0.5,109,123.0
5187,F#2,643.0,0.5,109,123.0
5188,E2,643.0,0.5,109,123.0
5189,E4,643.25,0.25,100,123.0
5190,E5,643.25,0.25,100,123.0
5191,B-4,643.333,0.5,110,123.0
5192,B1,643.5,0.5,127,123.0
5193,B1,643.5,0.25,120,123.0
5194,E4,643.75,0.25,100,123.0
5195,E5,643.75,0.25,100,123.0
5196,D4,643.833,1.0,110,123.0
5197,B4,643.833,1.0,110,123.0
5198,G4,643.833,1.0,110,123.0
5199,D5,643.833,1.0,110,123.0
5200,C2,644.0,333/1000,120,123.0
5201,E-3,644.0,0.5,109,123.0
5202,F#2,644.0,0.5,109,123.0
5203,B1,644.0,0.5,109,123.0
5204,D4,644.0,0.25,100,123.0
5205,D5,644.0,0.25,100,123.0
5206,B1,644.75,0.25,127,123.0
5207,C2,644.75,333/1000,120,123.0
5208,E-3,645.0,0.5,109,123.0
5209,F#2,645.0,0.5,109,123.0
5210,E2,645.0,0.5,109,123.0
5211,B1,645.5,0.5,127,123.0
5212,D2,645.5,333/1000,105,123.0
5213,E-3,646.0,0.5,100,123.0
5214,F#2,646.0,0.5,100,123.0
5215,B1,646.75,0.25,127,123.0
5216,D2,646.75,233/1000,105,123.0
5217,E2,647.0,0.5,110,123.0
5218,E-3,647.0,0.5,109,123.0
5219,F#2,647.0,0.5,109,123.0
5220,E2,647.0,0.5,109,123.0
5221,C4,647.25,1.0,100,123.0
5222,C5,647.25,1.0,100,123.0
5223,B1,647.5,0.25,127,123.0
5224,G2,647.5,0.5,110,123.0
5225,D4,647.833,4.0,110,123.0
5226,B4,647.833,1.5,110,123.0
5227,G4,647.833,3.0,110,123.0
5228,D5,647.833,3.0,110,123.0
5229,A1,648.0,0.25,120,123.0
5230,E-3,648.0,0.5,109,123.0
5231,F#2,648.0,0.5,109,123.0
5232,B1,648.0,0.5,109,123.0
5233,B3,648.25,0.5,100,123.0
5234,B4,648.25,0.5,100,123.0
5235,E-3,649.0,0.5,109,123.0
5236,F#2,649.0,0.5,109,123.0
5237,E2,649.0,0.5,109,123.0
5238,B4,649.333,0.25,110,123.0
5239,A1,649.5,0.25,120,123.0
5240,C5,649.583,0.25,110,123.0
5241,G5,649.833,1.5,110,123.0
5242,B1,650.0,0.25,120,123.0
5243,E-3,650.0,0.5,109,123.0
5244,F#2,650.0,0.5,109,123.0
5245,B1,650.0,0.5,109,123.0
5246,E-3,651.0,0.5,109,123.0
5247,F#2,651.0,0.5,109,123.0
5248,E2,651.0,0.5,109,123.0
5249,E4,651.25,0.5,100,123.0
5250,F#5,651.333,0.25,110,123.0
5251,B1,651.5,0.5,127,123.0
5252,B1,651.5,0.25,120,123.0
5253,G5,651.583,0.25,110,123.0
5254,E4,651.75,0.25,100,123.0
5255,D6,651.833,1.0,110,123.0
5256,D4,651.833,1.5,110,123.0
5257,C2,652.0,0.25,110,123.0
5258,E4,652.0,0.25,100,123.0
5259,E-3,652.0,0.5,109,123.0
5260,F#2,652.0,0.5,109,123.0
5261,B1,652.0,0.5,109,123.0
5262,D4,652.25,0.5,100,123.0
5263,B5,652.333,0.25,110,123.0
5264,G1,652.5,0.25,110,123.0
5265,C6,652.583,0.25,110,123.0
5266,G1,652.75,29/500,110,123.0
5267,G6,652.833,2.0,110,123.0
5268,C2,653.0,0.5,110,123.0
5269,E-3,653.0,0.5,109,123.0
5270,F#2,653.0,0.5,109,123.0
5271,E2,653.0,0.5,109,123.0
5272,G1,653.5,0.5,110,123.0
5273,E6,653.833,0.25,110,123.0
5274,F1,654.0,0.25,120,123.0
5275,E-3,654.0,0.5,109,123.0
5276,F#2,654.0,0.5,109,123.0
5277,B1,654.0,0.5,109,123.0
5278,F#6,654.083,0.25,110,123.0
5279,B6,654.333,1.5,120,123.0
5280,B1,654.5,0.25,127,123.0
5281,E4,654.75,0.25,100,123.0
5282,E5,654.75,0.25,100,123.0
5283,G7,654.833,1.0,125,123.0
5284,E1,655.0,1.0,120,123.0
5285,E-3,655.0,0.5,109,123.0
5286,F#2,655.0,0.5,109,123.0
5287,E2,655.0,0.5,109,123.0
5288,G4,655.25,0.25,100,123.0
5289,G5,655.25,0.25,100,123.0
5290,B1,655.5,0.25,127,123.0
5291,E4,655.75,0.25,100,123.0
5292,E5,655.75,0.25,100,123.0
5293,G7,655.833,3.0,125,123.0
5294,B6,655.833,2.5,120,123.0
5295,A1,656.0,0.25,120,123.0
5296,E-3,656.0,0.5,109,123.0
5297,F#2,656.0,0.5,109,123.0
5298,B1,656.0,0.5,109,123.0
5299,G4,656.25,0.5,100,123.0
5300,G5,656.25,0.5,100,123.0
5301,E-3,657.0,0.5,109,123.0
5302,F#2,657.0,0.5,109,123.0
5303,E2,657.0,0.5,109,123.0
5304,A1,657.5,0.25,120,123.0
5305,B1,658.0,0.25,120,123.0
5306,E-3,658.0,0.5,109,123.0
5307,F#2,658.0,0.5,109,123.0
5308,B1,658.0,0.5,109,123.0
5309,E4,658.75,0.25,100,123.0
5310,E5,658.75,0.25,100,123.0
5311,E-3,659.0,0.5,109,123.0
5312,F#2,659.0,0.5,109,123.0
5313,E2,659.0,0.5,109,123.0
5314,G4,659.25,0.25,100,123.0
5315,G5,659.25,0.25,100,123.0
5316,B1,659.5,0.5,127,123.0
5317,B1,659.5,0.25,120,123.0
5318,E4,659.75,0.25,100,123.0
5319,E5,659.75,0.25,100,123.0
5320,A3,659.833,2.0,96,123.0
5321,C2,660.0,333/1000,120,123.0
5322,E-3,660.0,0.5,109,123.0
5323,F#2,660.0,0.5,109,123.0
5324,B1,660.0,0.5,109,123.0
5325,G4,660.25,0.25,100,123.0
5326,G5,660.25,0.25,100,123.0
5327,G4,660.333,0.25,110,123.0
5328,C5,660.583,0.25,110,123.0
5329,C2,660.75,333/1000,120,123.0
5330,G4,660.833,0.25,110,123.0
5331,E-3,661.0,0.5,109,123.0
5332,F#2,661.0,0.5,109,123.0
5333,E2,661.0,0.5,109,123.0
5334,G4,661.0,0.25,100,123.0
5335,G5,661.0,0.25,100,123.0
5336,G5,661.083,0.25,110,123.0
5337,G4,661.333,0.25,110,123.0
5338,D2,661.5,333/1000,105,123.0
5339,C5,661.583,0.25,110,123.0
5340,A4,661.75,0.25,100,123.0
5341,A5,661.75,0.25,100,123.0
5342,B3,661.833,2.0,96,123.0
5343,D5,661.833,0.5,110,123.0
5344,E-3,662.0,0.5,109,123.0
5345,F#2,662.0,0.5,109,123.0
5346,B1,662.0,0.5,109,123.0
5347,G4,662.25,0.5,100,123.0
5348,G5,662.25,0.5,100,123.0
5349,G4,662.333,0.5,110,123.0
5350,B1,662.75,0.25,127,123.0
5351,D2,662.75,233/1000,105,123.0
5352,D5,662.833,0.5,110,123.0
5353,E2,663.0,0.5,110,123.0
5354,E-3,663.0,0.5,109,123.0
5355,F#2,663.0,0.5,109,123.0
5356,E2,663.0,0.5,109,123.0
5357,G5,663.333,0.5,110,123.0
5358,B1,663.5,0.25,127,123.0
5359,G2,663.5,0.5,110,123.0
5360,C4,663.833,2.0,96,123.0
5361,A1,664.0,0.25,120,123.0
5362,E-3,664.0,0.5,109,123.0
5363,F#2,664.0,0.5,109,123.0
5364,B1,664.0,0.5,109,123.0
5365,G4,664.333,0.25,110,123.0
5366,C5,664.583,0.25,110,123.0
5367,G4,664.833,0.25,110,123.0
5368,E-3,665.0,0.5,109,123.0
5369,F#2,665.0,0.5,109,123.0
5370,E2,665.0,0.5,109,123.0
5371,G5,665.083,0.25,110,123.0
5372,G4,665.333,0.25,110,123.0
5373,A1,665.5,0.25,120,123.0
5374,C5,665.583,0.25,110,123.0
5375,D4,665.833,2.0,96,123.0
5376,D5,665.833,0.5,110,123.0
5377,B1,666.0,0.25,120,123.0
5378,E-3,666.0,0.5,109,123.0
5379,F#2,666.0,0.5,109,123.0
5380,B1,666.0,0.5,109,123.0
5381,F4,666.25,0.5,100,123.0
5382,F5,666.25,0.5,100,123.0
5383,D5,666.333,0.5,110,123.0
5384,F#5,666.833,0.5,110,123.0
5385,E-3,667.0,0.5,109,123.0
5386,F#2,667.0,0.5,109,123.0
5387,E2,667.0,0.5,109,123.0
5388,E4,667.0,0.25,100,123.0
5389,E5,667.0,0.25,100,123.0
5390,F#5,667.333,0.25,110,123.0
5391,B1,667.5,0.5,127,123.0
5392,B1,667.5,0.25,120,123.0
5393,G5,667.583,0.25,110,123.0
5394,D4,667.75,0.5,100,123.0
5395,D5,667.75,0.5,100,123.0
5396,A3,667.833,2.0,96,123.0
5397,C2,668.0,0.25,110,123.0
5398,E-3,668.0,0.5,109,123.0
5399,F#2,668.0,0.5,109,123.0
5400,B1,668.0,0.5,109,123.0
5401,D4,668.25,0.5,100,123.0
5402,D5,668.25,0.5,100,123.0
5403,G4,668.333,0.25,110,123.0
5404,G1,668.5,0.25,110,123.0
5405,C5,668.583,0.25,110,123.0
5406,G1,668.75,29/500,110,123.0
5407,G4,668.833,0.25,110,123.0
5408,C2,669.0,0.5,110,123.0
5409,E-3,669.0,0.5,109,123.0
5410,F#2,669.0,0.5,109,123.0
5411,E2,669.0,0.5,109,123.0
5412,G5,669.083,0.25,110,123.0
5413,G4,669.333,0.25,110,123.0
5414,G1,669.5,0.5,110,123.0
5415,C5,669.583,0.25,110,123.0
5416,B3,669.833,2.0,96,123.0
5417,D5,669.833,0.5,110,123.0
5418,F1,670.0,0.25,120,123.0
5419,E-3,670.0,0.5,109,123.0
5420,F#2,670.0,0.5,109,123.0
5421,B1,670.0,0.5,109,123.0
5422,B1,670.25,0.25,127,123.0
5423,G4,670.333,0.5,110,123.0
5424,B1,670.75,0.25,127,123.0
5425,D5,670.833,0.5,110,123.0
5426,E1,671.0,1.0,120,123.0
5427,E-3,671.0,0.5,109,123.0
5428,F#2,671.0,0.5,109,123.0
5429,E2,671.0,0.5,109,123.0
5430,G5,671.333,0.5,110,123.0
5431,E2,671.5,0.25,127,123.0
5432,A1,672.0,0.25,120,123.0
5433,G3,672.0,0.5,109,123.0
5434,F#2,672.0,0.5,109,123.0
5435,B1,672.0,0.5,109,123.0
5436,B5,672.333,0.25,110,123.0
5437,A5,672.583,0.25,110,123.0
5438,G4,672.75,0.5,100,123.0
5439,G5,672.75,0.5,100,123.0
5440,G5,672.833,0.25,110,123.0
5441,E-3,673.0,0.5,109,123.0
5442,F#2,673.0,0.5,109,123.0
5443,E2,673.0,0.5,109,123.0
5444,D5,673.083,0.25,110,123.0
5445,B4,673.333,0.25,110,123.0
5446,A1,673.5,0.25,120,123.0
5447,G4,673.5,0.25,100,123.0
5448,G5,673.5,0.25,100,123.0
5449,G4,673.583,0.25,110,123.0
5450,C5,673.833,0.25,110,123.0
5451,C4,673.833,0.25,110,123.0
5452,F4,673.833,0.25,110,123.0
5453,A4,673.833,0.25,110,123.0
5454,B1,674.0,0.25,120,123.0
5455,E-3,674.0,0.5,109,123.0
5456,F#2,674.0,0.5,109,123.0
5457,B1,674.0,0.5,109,123.0
5458,G4,674.25,0.5,100,123.0
5459,G5,674.25,0.5,100,123.0
5460,G4,674.75,0.25,100,123.0
5461,G5,674.75,0.25,100,123.0
5462,B4,674.833,1.0,110,123.0
5463,G4,674.833,1.0,110,123.0
5464,A3,674.833,1.0,110,123.0
5465,E4,674.833,1.0,110,123.0
5466,E-3,675.0,0.5,109,123.0
5467,F#2,675.0,0.5,109,123.0
5468,E2,675.0,0.5,109,123.0
5469,B1,675.5,0.5,127,123.0
5470,B1,675.5,0.25,120,123.0
5471,C2,676.0,333/1000,120,123.0
5472,E-3,676.0,0.5,109,123.0
5473,F#2,676.0,0.5,109,123.0
5474,B1,676.0,0.5,109,123.0
5475,C4,676.333,0.25,110,123.0
5476,G4,676.333,0.25,110,123.0
5477,E4,676.333,0.25,110,123.0
5478,C5,676.333,0.25,110,123.0
5479,C2,676.75,333/1000,120,123.0
5480,G4,676.75,0.5,100,123.0
5481,G5,676.75,0.5,100,123.0
5482,E-3,677.0,0.5,109,123.0
5483,F#2,677.0,0.5,109,123.0
5484,E2,677.0,0.5,109,123.0
5485,B3,677.083,0.25,110,123.0
5486,G4,677.083,0.25,110,123.0
5487,D4,677.083,0.25,110,123.0
5488,B4,677.083,0.25,110,123.0
5489,D2,677.5,333/1000,105,123.0
5490,G4,677.5,0.25,100,123.0
5491,G5,677.5,0.25,100,123.0
5492,A3,677.833,0.5,110,123.0
5493,F#4,677.833,0.5,110,123.0
5494,D4,677.833,0.5,110,123.0
5495,A4,677.833,0.5,110,123.0
5496,E-3,678.0,0.5,109,123.0
5497,F#2,678.0,0.5,109,123.0
5498,B1,678.0,0.5,109,123.0
5499,G4,678.25,0.5,100,123.0
5500,G5,678.25,0.5,100,123.0
5501,C4,678.333,0.25,110,123.0
5502,G3,678.333,0.25,110,123.0
5503,E4,678.333,0.25,110,123.0
5504,G4,678.333,0.25,110,123.0
5505,B1,678.75,0.25,127,123.0
5506,D2,678.75,233/1000,105,123.0
5507,G4,678.75,0.25,100,123.0
5508,G5,678.75,0.25,100,123.0
5509,E2,679.0,0.5,110,123.0
5510,E-3,679.0,0.5,109,123.0
5511,F#2,679.0,0.5,109,123.0
5512,E2,679.0,0.5,109,123.0
5513,A4,679.25,0.25,100,123.0
5514,A5,679.25,0.25,100,123.0
5515,D4,679.333,0.25,110,123.0
5516,B1,679.5,0.25,127,123.0
5517,G2,679.5,0.5,110,123.0
5518,E4,679.583,0.25,110,123.0
5519,B-4,679.75,0.25,100,123.0
5520,B-5,679.75,0.25,100,123.0
5521,G3,679.833,0.75,110,123.0
5522,C4,679.833,0.75,110,123.0
5523,E4,679.833,0.75,110,123.0
5524,G4,679.833,0.75,110,123.0
5525,A1,680.0,0.25,120,123.0
5526,E-3,680.0,0.5,109,123.0
5527,F#2,680.0,0.5,109,123.0
5528,B1,680.0,0.5,109,123.0
5529,B4,680.0,0.25,100,123.0
5530,B5,680.0,0.25,100,123.0
5531,G3,680.583,0.75,110,123.0
5532,C4,680.583,0.75,110,123.0
5533,E4,680.583,0.75,110,123.0
5534,G4,680.583,0.75,110,123.0
5535,G4,680.75,0.5,100,123.0
5536,G5,680.75,0.5,100,123.0
5537,E-3,681.0,0.5,109,123.0
5538,F#2,681.0,0.5,109,123.0
5539,E2,681.0,0.5,109,123.0
5540,A3,681.333,0.25,110,123.0
5541,D4,681.333,0.25,110,123.0
5542,F#4,681.333,0.25,110,123.0
5543,A4,681.333,0.25,110,123.0
5544,A1,681.5,0.25,120,123.0
5545,G4,681.5,0.25,100,123.0
5546,G5,681.5,0.25,100,123.0
5547,B1,682.0,0.25,120,123.0
5548,E-3,682.0,0.5,109,123.0
5549,F#2,682.0,0.5,109,123.0
5550,B1,682.0,0.5,109,123.0
5551,G4,682.25,0.5,100,123.0
5552,G5,682.25,0.5,100,123.0
5553,D3,682.333,167/1000,100,123.0
5554,D4,682.333,167/1000,100,123.0
5555,G4,682.75,0.25,100,123.0
5556,G5,682.75,0.25,100,123.0
5557,D3,682.833,417/1000,100,123.0
5558,D4,682.833,417/1000,100,123.0
5559,E-3,683.0,0.5,109,123.0
5560,F#2,683.0,0.5,109,123.0
5561,E2,683.0,0.5,109,123.0
5562,E3,683.333,167/1000,100,123.0
5563,E4,683.333,167/1000,100,123.0
5564,B1,683.5,0.5,127,123.0
5565,B1,683.5,0.25,120,123.0
5566,E3,683.583,167/1000,100,123.0
5567,E4,683.583,167/1000,100,123.0
5568,C2,684.0,0.25,110,123.0
5569,E-3,684.0,0.5,109,123.0
5570,F#2,684.0,0.5,109,123.0
5571,B1,684.0,0.5,109,123.0
5572,C4,684.333,0.25,110,123.0
5573,G4,684.333,0.25,110,123.0
5574,E4,684.333,0.25,110,123.0
5575,C5,684.333,0.25,110,123.0
5576,G1,684.5,0.25,110,123.0
5577,G1,684.75,29/500,110,123.0
5578,G4,684.75,0.5,100,123.0
5579,G5,684.75,0.5,100,123.0
5580,C2,685.0,0.5,110,123.0
5581,E-3,685.0,0.5,109,123.0
5582,F#2,685.0,0.5,109,123.0
5583,E2,685.0,0.5,109,123.0
5584,B3,685.083,0.25,110,123.0
5585,G4,685.083,0.25,110,123.0
5586,D4,685.083,0.25,110,123.0
5587,B4,685.083,0.25,110,123.0
5588,G1,685.5,0.5,110,123.0
5589,G4,685.5,0.25,100,123.0
5590,G5,685.5,0.25,100,123.0
5591,A3,685.833,0.5,110,123.0
5592,F#4,685.833,0.5,110,123.0
5593,D4,685.833,0.5,110,123.0
5594,A4,685.833,0.5,110,123.0
5595,F1,686.0,0.25,120,123.0
5596,E2,686.0,0.5,109,123.0
5597,E-3,686.0,0.5,109,123.0
5598,F#2,686.0,0.5,109,123.0
5599,B1,686.25,0.25,127,123.0
5600,G4,686.25,0.5,100,123.0
5601,G5,686.25,0.5,100,123.0
5602,C4,686.333,0.25,110,123.0
5603,G3,686.333,0.25,110,123.0
5604,E4,686.333,0.25,110,123.0
5605,G4,686.333,0.25,110,123.0
5606,B1,686.75,0.25,127,123.0
5607,G4,686.75,0.25,100,123.0
5608,G5,686.75,0.25,100,123.0
5609,E1,687.0,1.0,120,123.0
5610,E-3,687.0,0.5,109,123.0
5611,F#2,687.0,0.5,109,123.0
5612,E2,687.0,0.5,109,123.0
5613,E2,687.25,0.25,127,123.0
5614,A4,687.25,0.25,100,123.0
5615,A5,687.25,0.25,100,123.0
5616,D4,687.333,0.25,110,123.0
5617,B1,687.5,0.25,127,123.0
5618,E4,687.583,0.25,110,123.0
5619,B-4,687.75,0.25,100,123.0
5620,B-5,687.75,0.25,100,123.0
5621,G3,687.833,1.0,110,123.0
5622,E4,687.833,1.0,110,123.0
5623,C4,687.833,1.0,110,123.0
5624,G4,687.833,1.0,110,123.0
5625,A1,688.0,0.25,120,123.0
5626,E-3,688.0,0.5,109,123.0
5627,F#2,688.0,0.5,109,123.0
5628,B1,688.0,0.5,109,123.0
5629,B4,688.0,0.25,100,123.0
5630,B5,688.0,0.25,100,123.0
5631,G3,688.5,0.25,127,123.0
5632,E2,688.5,0.25,127,123.0
5633,G4,688.75,0.5,100,123.0
5634,G5,688.75,0.5,100,123.0
5635,A3,688.833,1.0,110,123.0
5636,F#4,688.833,1.0,110,123.0
5637,D4,688.833,1.0,110,123.0
5638,A4,688.833,1.0,110,123.0
5639,E-3,689.0,0.5,100,123.0
5640,F#2,689.0,0.5,100,123.0
5641,B1,689.5,0.5,127,123.0
5642,A1,689.5,0.25,120,123.0
5643,G4,689.5,0.25,100,123.0
5644,G5,689.5,0.25,100,123.0
5645,A3,689.833,0.25,110,123.0
5646,C4,689.833,0.25,110,123.0
5647,E4,689.833,0.25,110,123.0
5648,B1,690.0,0.25,120,123.0
5649,E-3,690.0,0.5,109,123.0
5650,F#2,690.0,0.5,109,123.0
5651,B1,690.0,0.5,109,123.0
5652,G4,690.25,0.5,100,123.0
5653,G5,690.25,0.5,100,123.0
5654,A3,690.333,0.25,110,123.0
5655,C4,690.333,0.25,110,123.0
5656,E4,690.333,0.25,110,123.0
5657,G4,690.75,0.25,100,123.0
5658,G5,690.75,0.25,100,123.0
5659,G3,690.833,1.0,110,123.0
5660,B3,690.833,1.0,110,123.0
5661,D4,690.833,1.0,110,123.0
5662,E-3,691.0,0.5,109,123.0
5663,F#2,691.0,0.5,109,123.0
5664,E2,691.0,0.5,109,123.0
5665,B1,691.5,0.5,127,123.0
5666,B1,691.5,0.25,120,123.0
5667,C2,692.0,333/1000,120,123.0
5668,E-3,692.0,0.5,109,123.0
5669,F#2,692.0,0.5,109,123.0
5670,B1,692.0,0.5,109,123.0
5671,C4,692.333,0.25,110,123.0
5672,G4,692.333,0.25,110,123.0
5673,E4,692.333,0.25,110,123.0
5674,C5,692.333,0.25,110,123.0
5675,B1,692.75,0.25,127,123.0
5676,C2,692.75,333/1000,120,123.0
5677,G4,692.75,0.5,100,123.0
5678,G5,692.75,0.5,100,123.0
5679,E-3,693.0,0.5,109,123.0
5680,F#2,693.0,0.5,109,123.0
5681,E2,693.0,0.5,109,123.0
5682,B3,693.083,0.25,110,123.0
5683,G4,693.083,0.25,110,123.0
5684,D4,693.083,0.25,110,123.0
5685,B4,693.083,0.25,110,123.0
5686,B1,693.5,0.25,127,123.0
5687,D2,693.5,333/1000,105,123.0
5688,G4,693.5,0.25,100,123.0
5689,G5,693.5,0.25,100,123.0
5690,A3,693.833,0.5,110,123.0
5691,F#4,693.833,0.5,110,123.0
5692,D4,693.833,0.5,110,123.0
5693,A4,693.833,0.5,110,123.0
5694,E-3,694.0,0.5,100,123.0
5695,F#2,694.0,0.5,100,123.0
5696,G4,694.25,0.5,100,123.0
5697,G5,694.25,0.5,100,123.0
5698,C4,694.333,0.25,110,123.0
5699,G3,694.333,0.25,110,123.0
5700,E4,694.333,0.25,110,123.0
5701,G4,694.333,0.25,110,123.0
5702,B1,694.75,0.25,127,123.0
5703,D2,694.75,233/1000,105,123.0
5704,G4,694.75,0.25,100,123.0
5705,G5,694.75,0.25,100,123.0
5706,E2,695.0,0.5,110,123.0
5707,E-3,695.0,0.5,109,123.0
5708,F#2,695.0,0.5,109,123.0
5709,E2,695.0,0.5,109,123.0
5710,A4,695.25,0.25,100,123.0
5711,A5,695.25,0.25,100,123.0
5712,D4,695.333,0.25,110,123.0
5713,B1,695.5,0.25,127,123.0
5714,G2,695.5,0.5,110,123.0
5715,E4,695.583,0.25,110,123.0
5716,B-4,695.75,0.25,100,123.0
5717,B-5,695.75,0.25,100,123.0
5718,G3,695.833,0.75,110,123.0
5719,C4,695.833,0.75,110,123.0
5720,E4,695.833,0.75,110,123.0
5721,G4,695.833,0.75,110,123.0
5722,A1,696.0,0.25,120,123.0
5723,E-3,696.0,0.5,109,123.0
5724,F#2,696.0,0.5,109,123.0
5725,B1,696.0,0.5,109,123.0
5726,B4,696.0,0.25,100,123.0
5727,B5,696.0,0.25,100,123.0
5728,G3,696.583,0.75,110,123.0
5729,C4,696.583,0.75,110,123.0
5730,E4,696.583,0.75,110,123.0
5731,G4,696.583,0.75,110,123.0
5732,E2,696.75,0.25,127,123.0
5733,G4,696.75,0.5,100,123.0
5734,G5,696.75,0.5,100,123.0
5735,E-3,697.0,0.5,100,123.0
5736,F#2,697.0,0.5,100,123.0
5737,A3,697.333,0.25,110,123.0
5738,D4,697.333,0.25,110,123.0
5739,F#4,697.333,0.25,110,123.0
5740,A4,697.333,0.25,110,123.0
5741,B1,697.5,0.5,127,123.0
5742,A1,697.5,0.25,120,123.0
5743,G4,697.5,0.25,100,123.0
5744,G5,697.5,0.25,100,123.0
5745,B1,698.0,0.25,120,123.0
5746,E-3,698.0,0.5,109,123.0
5747,F#2,698.0,0.5,109,123.0
5748,B1,698.0,0.5,109,123.0
5749,G4,698.25,0.5,100,123.0
5750,G5,698.25,0.5,100,123.0
5751,D3,698.333,167/1000,100,123.0
5752,D4,698.333,167/1000,100,123.0
5753,E2,698.75,0.25,127,123.0
5754,G4,698.75,0.25,100,123.0
5755,G5,698.75,0.25,100,123.0
5756,D3,698.833,417/1000,100,123.0
5757,D4,698.833,417/1000,100,123.0
5758,E-3,699.0,0.5,109,123.0
5759,F#2,699.0,0.5,109,123.0
5760,E2,699.0,0.5,109,123.0
5761,E3,699.333,167/1000,100,123.0
5762,E4,699.333,167/1000,100,123.0
5763,B1,699.5,0.5,127,123.0
5764,B1,699.5,0.25,120,123.0
5765,E3,699.583,167/1000,100,123.0
5766,E4,699.583,167/1000,100,123.0
5767,C2,700.0,0.25,110,123.0
5768,B-2,700.0,0.5,109,123.0
5769,E-3,700.0,0.5,109,123.0
5770,B1,700.0,0.5,109,123.0
5771,C4,700.333,0.25,110,123.0
5772,G4,700.333,0.25,110,123.0
5773,E4,700.333,0.25,110,123.0
5774,C5,700.333,0.25,110,123.0
5775,B1,700.5,0.25,127,123.0
5776,G1,700.5,0.25,110,123.0
5777,B1,700.75,0.25,127,123.0
5778,G1,700.75,29/500,110,123.0
5779,C2,701.0,0.5,110,123.0
5780,B-2,701.0,0.5,109,123.0
5781,E-3,701.0,0.5,109,123.0
5782,E2,701.0,0.5,109,123.0
5783,B3,701.083,0.25,110,123.0
5784,G4,701.083,0.25,110,123.0
5785,D4,701.083,0.25,110,123.0
5786,B4,701.083,0.25,110,123.0
5787,G1,701.5,0.5,110,123.0
5788,A3,701.833,0.5,110,123.0
5789,F#4,701.833,0.5,110,123.0
5790,D4,701.833,0.5,110,123.0
5791,A4,701.833,0.5,110,123.0
5792,E2,702.0,0.25,127,123.0
5793,F1,702.0,0.25,120,123.0
5794,B-2,702.0,0.5,109,123.0
5795,E-3,702.0,0.5,109,123.0
5796,B1,702.0,0.5,109,123.0
5797,E2,702.25,0.25,127,123.0
5798,C4,702.333,0.25,110,123.0
5799,G3,702.333,0.25,110,123.0
5800,E4,702.333,0.25,110,123.0
5801,G4,702.333,0.25,110,123.0
5802,C3,702.5,0.25,127,123.0
5803,C3,702.75,0.25,127,123.0
5804,B2,703.0,0.25,127,123.0
5805,E1,703.0,1.0,120,123.0
5806,A2,703.25,0.25,127,123.0
5807,G4,703.333,0.25,110,123.0
5808,D4,703.333,0.25,110,123.0
5809,G2,703.5,0.25,127,123.0
5810,A4,703.583,0.25,110,123.0
5811,E4,703.583,0.25,110,123.0
5812,F2,703.75,0.25,127,123.0
5813,G4,703.833,0.5,110,123.0
5814,B4,703.833,0.5,110,123.0
5815,B1,704.0,0.25,127,123.0
5816,B4,704.333,0.5,110,123.0
5817,D5,704.333,0.5,110,123.0
5818,A1,704.5,0.75,120,123.0
5819,C#3,704.5,0.25,124,123.0
5820,B1,704.5,0.25,124,123.0
5821,G4,704.75,0.5,100,123.0
5822,G5,704.75,0.5,100,123.0
5823,C5,704.833,0.5,110,123.0
5824,E5,704.833,0.5,110,123.0
5825,D5,705.333,0.5,110,123.0
5826,G5,705.333,0.5,110,123.0
5827,E4,705.833,0.25,110,123.0
5828,C5,705.833,0.25,110,123.0
5829,E5,705.833,0.25,110,123.0
5830,A4,705.833,0.25,110,123.0
5831,A5,705.833,0.25,110,123.0
5832,D4,706.833,1.0,110,123.0
5833,B4,706.833,1.0,110,123.0
5834,D5,706.833,1.0,110,123.0
5835,G5,706.833,1.0,110,123.0
5836,G4,706.833,1.0,110,123.0
5837,G5,708.333,0.5,110,123.0
5838,C6,708.333,0.5,110,123.0
5839,G6,708.333,0.5,110,123.0
5840,C4,708.333,0.25,110,123.0
5841,G4,708.333,0.25,110,123.0
5842,E4,708.333,0.25,110,123.0
5843,C5,708.333,0.25,110,123.0
5844,B3,709.083,0.25,110,123.0
5845,G4,709.083,0.25,110,123.0
5846,D4,709.083,0.25,110,123.0
5847,B4,709.083,0.25,110,123.0
5848,A3,709.833,0.5,110,123.0
5849,F#4,709.833,0.5,110,123.0
5850,D4,709.833,0.5,110,123.0
5851,A4,709.833,0.5,110,123.0
5852,C4,710.333,0.25,110,123.0
5853,G3,710.333,0.25,110,123.0
5854,E4,710.333,0.25,110,123.0
5855,G4,710.333,0.25,110,123.0
5856,D4,711.333,0.25,110,123.0
5857,E4,711.583,0.25,110,123.0
5858,G3,711.833,0.75,110,123.0
5859,C4,711.833,0.75,110,123.0
5860,E4,711.833,0.75,110,123.0
5861,G4,711.833,0.75,110,123.0
5862,G3,712.583,0.75,110,123.0
5863,C4,712.583,0.75,110,123.0
5864,E4,712.583,0.75,110,123.0
5865,G4,712.583,0.75,110,123.0
5866,A3,713.333,0.25,110,123.0
5867,D4,713.333,0.25,110,123.0
5868,F#4,713.333,0.25,110,123.0
5869,A4,713.333,0.25,110,123.0
5870,D3,714.333,167/1000,100,123.0
5871,D4,714.333,167/1000,100,123.0
5872,D3,714.833,417/1000,100,123.0
5873,D4,714.833,417/1000,100,123.0
5874,E3,715.333,167/1000,100,123.0
5875,E4,715.333,167/1000,100,123.0
5876,E3,715.583,167/1000,100,123.0
5877,E4,715.583,167/1000,100,123.0
5878,C4,716.333,0.25,110,123.0
5879,G4,716.333,0.25,110,123.0
5880,E4,716.333,0.25,110,123.0
5881,C5,716.333,0.25,110,123.0
5882,B3,717.083,0.25,110,123.0
5883,G4,717.083,0.25,110,123.0
5884,D4,717.083,0.25,110,123.0
5885,B4,717.083,0.25,110,123.0
5886,A3,717.833,0.5,110,123.0
5887,F#4,717.833,0.5,110,123.0
5888,D4,717.833,0.5,110,123.0
5889,A4,717.833,0.5,110,123.0
5890,C4,718.333,0.25,110,123.0
5891,G3,718.333,0.25,110,123.0
5892,E4,718.333,0.25,110,123.0
5893,G4,718.333,0.25,110,123.0
5894,D4,719.333,0.25,110,123.0
5895,E4,719.583,0.25,110,123.0
5896,G3,719.833,1.0,110,123.0
5897,E4,719.833,1.0,110,123.0
5898,C4,719.833,1.0,110,123.0
5899,G4,719.833,1.0,110,123.0
5900,A3,720.833,1.0,110,123.0
5901,F#4,720.833,1.0,110,123.0
5902,D4,720.833,1.0,110,123.0
5903,A4,720.833,1.0,110,123.0
5904,A3,721.833,0.25,110,123.0
5905,C4,721.833,0.25,110,123.0
5906,E4,721.833,0.25,110,123.0
5907,A3,722.333,0.25,110,123.0
5908,C4,722.333,0.25,110,123.0
5909,E4,722.333,0.25,110,123.0
5910,G3,722.833,1.0,110,123.0
5911,B3,722.833,1.0,110,123.0
5912,D4,722.833,1.0,110,123.0
5913,C6,724.333,0.5,110,123.0
5914,G5,724.333,0.5,110,123.0
5915,G6,724.333,0.5,110,123.0
5916,C4,724.333,0.25,110,123.0
5917,G4,724.333,0.25,110,123.0
5918,E4,724.333,0.25,110,123.0
5919,C5,724.333,0.25,110,123.0
5920,B3,725.083,0.25,110,123.0
5921,G4,725.083,0.25,110,123.0
5922,D4,725.083,0.25,110,123.0
5923,B4,725.083,0.25,110,123.0
5924,A3,725.833,0.5,110,123.0
5925,F#4,725.833,0.5,110,123.0
5926,D4,725.833,0.5,110,123.0
5927,A4,725.833,0.5,110,123.0
5928,C4,726.333,0.25,110,123.0
5929,G3,726.333,0.25,110,123.0
5930,E4,726.333,0.25,110,123.0
5931,G4,726.333,0.25,110,123.0
5932,D4,727.333,0.25,110,123.0
5933,E4,727.583,0.25,110,123.0
5934,G3,727.833,0.75,110,123.0
5935,C4,727.833,0.75,110,123.0
5936,E4,727.833,0.75,110,123.0
5937,G4,727.833,0.75,110,123.0
5938,G3,728.583,0.75,110,123.0
5939,C4,728.583,0.75,110,123.0
5940,E4,728.583,0.75,110,123.0
5941,G4,728.583,0.75,110,123.0
5942,A3,729.333,0.25,110,123.0
5943,D4,729.333,0.25,110,123.0
5944,F#4,729.333,0.25,110,123.0
5945,A4,729.333,0.25,110,123.0
5946,D3,730.333,167/1000,100,123.0
5947,D4,730.333,167/1000,100,123.0
5948,D3,730.833,417/1000,100,123.0
5949,D4,730.833,417/1000,100,123.0
5950,E3,731.333,167/1000,100,123.0
5951,E4,731.333,167/1000,100,123.0
5952,E3,731.583,167/1000,100,123.0
5953,E4,731.583,167/1000,100,123.0
5954,C4,732.333,0.25,110,123.0
5955,G4,732.333,0.25,110,123.0
5956,E4,732.333,0.25,110,123.0
5957,C5,732.333,0.25,110,123.0
5958,B3,733.083,0.25,110,123.0
5959,G4,733.083,0.25,110,123.0
5960,D4,733.083,0.25,110,123.0
5961,B4,733.083,0.25,110,123.0
5962,A3,733.833,0.5,110,123.0
5963,F#4,733.833,0.5,110,123.0
5964,D4,733.833,0.5,110,123.0
5965,A4,733.833,0.5,110,123.0
5966,C4,734.333,0.25,110,123.0
5967,G3,734.333,0.25,110,123.0
5968,E4,734.333,0.25,110,123.0
5969,G4,734.333,0.25,110,123.0
5970,G4,735.333,0.25,110,123.0
5971,D4,735.333,0.25,110,123.0
5972,A4,735.583,0.25,110,123.0
5973,E4,735.583,0.25,110,123.0
5974,G4,735.833,0.5,110,123.0
5975,B4,735.833,0.5,110,123.0
5976,B4,736.333,0.5,110,123.0
5977,D5,736.333,0.5,110,123.0
5978,C5,736.833,0.5,110,123.0
5979,E5,736.833,0.5,110,123.0
5980,D5,737.333,0.5,110,123.0
5981,G5,737.333,0.5,110,123.0
5982,E4,737.833,0.25,110,123.0
5983,C5,737.833,0.25,110,123.0
5984,E5,737.833,0.25,110,123.0
5985,A4,737.833,0.25,110,123.0
5986,A5,737.833,0.25,110,123.0
5987,D4,738.833,1.0,110,123.0
5988,B4,738.833,1.0,110,123.0
5989,D5,738.833,1.0,110,123.0
5990,G5,738.833,1.0,110,123.0
5991,G4,738.833,1.0,110,123.0
5992,E5,740.333,1.0,110,123.0
5993,G4,740.333,1.0,110,123.0
5994,G6,740.333,1.0,110,123.0
5995,C6,740.333,1.0,110,123.0
5996,G5,740.333,1.0,110,123.0
5997,C5,740.333,1.0,110,123.0
