,note_name,start_time,duration,velocity,tempo
0,C2,8.0,224/125,112,145.0
1,C4,8.0,1.5,112,145.0
2,C3,8.0,1.5,112,145.0
3,C2,8.0,1.0,102,145.0
4,F#2,8.0,0.5,87,145.0
5,C4,9.0,99/125,112,145.0
6,G4,9.0,99/125,112,145.0
7,E-4,9.0,99/125,112,145.0
8,C4,9.0,99/125,112,145.0
9,F#2,9.0,0.25,94,145.0
10,E-2,9.0,0.25,94,145.0
11,E-4,9.083,177/250,112,145.0
12,G4,9.167,0.625,112,145.0
13,C4,9.5,167/1000,112,145.0
14,C3,9.5,167/1000,112,145.0
15,C#4,9.667,167/1000,112,145.0
16,C#3,9.667,167/1000,112,145.0
17,D4,9.833,167/1000,112,145.0
18,D3,9.833,167/1000,112,145.0
19,E-2,10.0,224/125,112,145.0
20,E-4,10.0,2.0,112,145.0
21,E-3,10.0,2.0,112,145.0
22,C2,10.0,0.25,102,145.0
23,F#2,10.0,0.5,87,145.0
24,C4,11.0,99/125,112,145.0
25,E-4,11.0,99/125,112,145.0
26,C4,11.0,99/125,112,145.0
27,G4,11.0,99/125,112,145.0
28,F#2,11.0,0.25,102,145.0
29,E-2,11.0,0.25,102,145.0
30,E-4,11.083,177/250,112,145.0
31,G4,11.167,0.625,112,145.0
32,E-2,11.667,0.25,102,145.0
33,D2,12.0,224/125,112,145.0
34,D4,12.0,1.5,112,145.0
35,D3,12.0,1.5,112,145.0
36,C2,12.0,1.0,102,145.0
37,F#2,12.0,0.5,87,145.0
38,D4,13.0,99/125,112,145.0
39,G#4,13.0,99/125,112,145.0
40,F4,13.0,99/125,112,145.0
41,D4,13.0,99/125,112,145.0
42,F#2,13.0,0.25,94,145.0
43,E-2,13.0,0.25,94,145.0
44,F4,13.083,177/250,112,145.0
45,G#4,13.167,0.625,112,145.0
46,D4,13.5,167/1000,112,145.0
47,D3,13.5,167/1000,112,145.0
48,E-4,13.667,167/1000,112,145.0
49,E-3,13.667,167/1000,112,145.0
50,E4,13.833,167/1000,112,145.0
51,E3,13.833,167/1000,112,145.0
52,F2,14.0,224/125,112,145.0
53,F4,14.0,2.0,112,145.0
54,F3,14.0,2.0,112,145.0
55,C2,14.0,0.25,102,145.0
56,F#2,14.0,0.5,87,145.0
57,D4,15.0,99/125,112,145.0
58,G#4,15.0,99/125,112,145.0
59,F4,15.0,99/125,112,145.0
60,D4,15.0,99/125,112,145.0
61,F#2,15.0,0.25,102,145.0
62,E-2,15.0,0.25,102,145.0
63,F4,15.083,177/250,112,145.0
64,G#4,15.167,0.625,112,145.0
65,E-2,15.667,0.25,102,145.0
66,E-2,16.0,224/125,112,145.0
67,E-4,16.0,1.5,112,145.0
68,E-3,16.0,1.5,112,145.0
69,C2,16.0,1.0,102,145.0
70,F#2,16.0,0.5,87,145.0
71,C4,17.0,99/125,112,145.0
72,E-4,17.0,99/125,112,145.0
73,G4,17.0,99/125,112,145.0
74,C4,17.0,99/125,112,145.0
75,F#2,17.0,0.25,94,145.0
76,E-2,17.0,0.25,94,145.0
77,E-4,17.083,177/250,112,145.0
78,G4,17.167,0.625,112,145.0
79,E-4,17.5,167/1000,112,145.0
80,E-3,17.5,167/1000,112,145.0
81,F4,17.667,167/1000,112,145.0
82,F3,17.667,167/1000,112,145.0
83,F#4,17.833,167/1000,112,145.0
84,F#3,17.833,167/1000,112,145.0
85,G2,18.0,224/125,112,145.0
86,G4,18.0,2.0,112,145.0
87,G3,18.0,2.0,112,145.0
88,C2,18.0,0.25,102,145.0
89,F#2,18.0,0.5,87,145.0
90,C4,19.0,99/125,112,145.0
91,E-4,19.0,99/125,112,145.0
92,G4,19.0,99/125,112,145.0
93,C4,19.0,99/125,112,145.0
94,F#2,19.0,0.25,102,145.0
95,E-2,19.0,0.25,102,145.0
96,E-4,19.083,177/250,112,145.0
97,G4,19.167,0.625,112,145.0
98,E-2,19.667,0.25,102,145.0
99,F2,20.0,224/125,112,145.0
100,F4,20.0,1.5,112,145.0
101,F3,20.0,1.5,112,145.0
102,C2,20.0,1.0,102,145.0
103,F#2,20.0,0.5,87,145.0
104,D4,21.0,99/125,112,145.0
105,G#4,21.0,99/125,112,145.0
106,D4,21.0,99/125,112,145.0
107,F4,21.0,99/125,112,145.0
108,F#2,21.0,0.25,94,145.0
109,E-2,21.0,0.25,94,145.0
110,F4,21.083,177/250,112,145.0
111,G#4,21.167,0.625,112,145.0
112,F4,21.5,167/1000,112,145.0
113,F3,21.5,167/1000,112,145.0
114,F#4,21.667,167/1000,112,145.0
115,F#3,21.667,167/1000,112,145.0
116,G4,21.833,167/1000,112,145.0
117,G3,21.833,167/1000,112,145.0
118,G#2,22.0,224/125,112,145.0
119,G#4,22.0,2.0,112,145.0
120,G#3,22.0,2.0,112,145.0
121,C2,22.0,0.25,102,145.0
122,F#2,22.0,0.5,87,145.0
123,D4,23.0,99/125,112,145.0
124,G#4,23.0,99/125,112,145.0
125,D4,23.0,99/125,112,145.0
126,F4,23.0,99/125,112,145.0
127,F#2,23.0,0.25,102,145.0
128,E-2,23.0,0.25,102,145.0
129,F4,23.083,177/250,112,145.0
130,G#4,23.167,0.625,112,145.0
131,E-2,23.667,0.25,102,145.0
132,G2,24.0,224/125,112,145.0
133,G4,24.0,2.0,112,145.0
134,G3,24.0,2.0,112,145.0
135,C2,24.0,1.0,102,145.0
136,F#2,24.0,0.5,87,145.0
137,C4,25.0,99/125,112,145.0
138,E-4,25.0,99/125,112,145.0
139,C4,25.0,99/125,112,145.0
140,G4,25.0,99/125,112,145.0
141,F#2,25.0,0.25,94,145.0
142,E-2,25.0,0.25,94,145.0
143,E-4,25.083,177/250,112,145.0
144,G4,25.167,0.625,112,145.0
145,E-2,26.0,224/125,112,145.0
146,E-4,26.0,2.0,112,145.0
147,E-3,26.0,2.0,112,145.0
148,C2,26.0,0.25,102,145.0
149,F#2,26.0,0.5,87,145.0
150,C4,27.0,99/125,112,145.0
151,C4,27.0,99/125,112,145.0
152,E-4,27.0,99/125,112,145.0
153,G4,27.0,99/125,112,145.0
154,F#2,27.0,0.25,102,145.0
155,E-2,27.0,0.25,102,145.0
156,E-4,27.083,177/250,112,145.0
157,G4,27.167,0.625,112,145.0
158,E-2,27.667,0.25,102,145.0
159,F2,28.0,224/125,112,145.0
160,F4,28.0,1.5,112,145.0
161,F3,28.0,1.5,112,145.0
162,C2,28.0,1.0,102,145.0
163,F#2,28.0,0.5,87,145.0
164,D4,29.0,99/125,112,145.0
165,G#4,29.0,99/125,112,145.0
166,D4,29.0,99/125,112,145.0
167,F4,29.0,99/125,112,145.0
168,F#2,29.0,0.25,94,145.0
169,E-2,29.0,0.25,94,145.0
170,F4,29.083,177/250,112,145.0
171,G#4,29.167,0.625,112,145.0
172,F4,29.5,167/1000,112,145.0
173,F3,29.5,167/1000,112,145.0
174,E4,29.667,167/1000,112,145.0
175,E3,29.667,167/1000,112,145.0
176,E-4,29.833,167/1000,112,145.0
177,E-3,29.833,167/1000,112,145.0
178,D2,30.0,224/125,112,145.0
179,D4,30.0,2.0,112,145.0
180,D3,30.0,2.0,112,145.0
181,C2,30.0,0.25,102,145.0
182,F#2,30.0,0.5,87,145.0
183,G#4,30.5,0.375,112,145.0
184,G#4,30.5,0.375,112,145.0
185,D4,31.0,0.875,112,145.0
186,G#4,31.0,0.875,112,145.0
187,F4,31.0,0.875,112,145.0
188,D4,31.0,0.875,112,145.0
189,F#2,31.0,0.25,102,145.0
190,E-2,31.0,0.25,102,145.0
191,F4,31.083,99/125,112,145.0
192,G#4,31.167,177/250,112,145.0
193,E-2,31.667,0.25,102,145.0
194,E-2,32.0,224/125,112,145.0
195,E-4,32.0,2.0,112,145.0
196,E-3,32.0,2.0,112,145.0
197,C2,32.0,1.0,102,145.0
198,F#2,32.0,0.5,87,145.0
199,G4,33.0,0.875,112,145.0
200,E-4,33.0,0.875,112,145.0
201,C4,33.0,0.875,112,145.0
202,G4,33.0,0.875,112,145.0
203,C4,33.0,0.875,112,145.0
204,E-4,33.0,0.875,112,145.0
205,F#2,33.0,0.25,94,145.0
206,E-2,33.0,0.25,94,145.0
207,G#2,34.0,224/125,112,145.0
208,G#4,34.0,2.0,112,145.0
209,G#3,34.0,2.0,112,145.0
210,C2,34.0,0.25,102,145.0
211,F#2,34.0,0.5,87,145.0
212,G#4,35.0,0.875,112,145.0
213,E-4,35.0,0.875,112,145.0
214,C4,35.0,0.875,112,145.0
215,E-4,35.0,0.875,112,145.0
216,G#4,35.0,0.875,112,145.0
217,C4,35.0,0.875,112,145.0
218,F#2,35.0,0.25,102,145.0
219,E-2,35.0,0.25,102,145.0
220,E-2,35.667,0.25,102,145.0
221,G2,36.0,99/125,112,145.0
222,B3,36.0,99/125,112,145.0
223,G4,36.0,1.0,112,145.0
224,G3,36.0,1.0,112,145.0
225,C2,36.0,1.0,102,145.0
226,F#2,36.0,0.5,87,145.0
227,F4,36.0,99/125,112,145.0
228,D4,36.0,99/125,112,145.0
229,B3,36.0,99/125,112,145.0
230,G4,36.0,99/125,112,145.0
231,D4,36.083,177/250,112,145.0
232,F4,36.167,0.625,112,145.0
233,G4,36.25,271/500,112,145.0
234,F2,37.0,99/125,112,145.0
235,B3,37.0,99/125,112,145.0
236,F4,37.0,1.0,112,145.0
237,F3,37.0,1.0,112,145.0
238,G#4,37.0,99/125,112,145.0
239,F4,37.0,99/125,112,145.0
240,B3,37.0,99/125,112,145.0
241,D4,37.0,99/125,112,145.0
242,F#2,37.0,0.25,94,145.0
243,E-2,37.0,0.25,94,145.0
244,D4,37.083,177/250,112,145.0
245,F4,37.167,0.625,112,145.0
246,G#4,37.25,271/500,112,145.0
247,E-2,38.0,99/125,112,145.0
248,C4,38.0,99/125,117,145.0
249,B3,38.0,99/125,112,145.0
250,E-4,38.0,1.0,112,145.0
251,E-3,38.0,1.0,112,145.0
252,C2,38.0,0.25,102,145.0
253,F#2,38.0,0.5,87,145.0
254,B3,38.0,99/125,112,145.0
255,E-4,38.0,99/125,112,145.0
256,G4,38.0,99/125,112,145.0
257,E-4,38.083,177/250,112,145.0
258,G4,38.167,0.625,112,145.0
259,D2,39.0,99/125,112,145.0
260,E-4,39.0,99/125,117,145.0
261,B3,39.0,99/125,112,145.0
262,D4,39.0,1.0,112,145.0
263,D3,39.0,1.0,112,145.0
264,B3,39.0,99/125,112,145.0
265,F4,39.0,99/125,112,145.0
266,G4,39.0,99/125,112,145.0
267,D4,39.0,99/125,112,145.0
268,F#2,39.0,0.25,102,145.0
269,E-2,39.0,0.25,102,145.0
270,D4,39.083,177/250,112,145.0
271,F4,39.167,0.625,112,145.0
272,G4,39.25,271/500,112,145.0
273,E-2,39.667,0.25,102,145.0
274,C2,40.0,224/125,112,145.0
275,G4,40.0,667/1000,117,145.0
276,C4,40.0,1.5,112,145.0
277,C3,40.0,1.5,112,145.0
278,C2,40.0,1.0,102,145.0
279,F#2,40.0,0.5,87,145.0
280,G4,40.667,1.875,117,145.0
281,C4,41.0,99/125,112,145.0
282,E-4,41.0,99/125,112,145.0
283,C4,41.0,99/125,112,145.0
284,G4,41.0,99/125,112,145.0
285,F#2,41.0,0.25,94,145.0
286,E-2,41.0,0.25,94,145.0
287,E-4,41.083,177/250,112,145.0
288,G4,41.167,0.625,112,145.0
289,C4,41.5,167/1000,112,145.0
290,C3,41.5,167/1000,112,145.0
291,C#4,41.667,167/1000,112,145.0
292,C#3,41.667,167/1000,112,145.0
293,D4,41.833,167/1000,112,145.0
294,D3,41.833,167/1000,112,145.0
295,E-2,42.0,224/125,112,145.0
296,E-4,42.0,2.0,112,145.0
297,E-3,42.0,2.0,112,145.0
298,C2,42.0,0.25,102,145.0
299,F#2,42.0,0.5,87,145.0
300,C5,43.0,667/1000,117,145.0
301,C4,43.0,99/125,112,145.0
302,E-4,43.0,99/125,112,145.0
303,C4,43.0,99/125,112,145.0
304,G4,43.0,99/125,112,145.0
305,F#2,43.0,0.25,102,145.0
306,E-2,43.0,0.25,102,145.0
307,E-4,43.083,177/250,112,145.0
308,G4,43.167,0.625,112,145.0
309,C5,43.667,333/1000,117,145.0
310,E-2,43.667,0.25,102,145.0
311,D2,44.0,224/125,112,145.0
312,C5,44.0,21/500,117,145.0
313,D4,44.0,1.5,112,145.0
314,D3,44.0,1.5,112,145.0
315,C2,44.0,1.0,102,145.0
316,F#2,44.0,0.5,87,145.0
317,D4,45.0,99/125,112,145.0
318,G#4,45.0,99/125,112,145.0
319,F4,45.0,99/125,112,145.0
320,D4,45.0,99/125,112,145.0
321,F#2,45.0,0.25,94,145.0
322,E-2,45.0,0.25,94,145.0
323,F4,45.083,177/250,112,145.0
324,G#4,45.167,0.625,112,145.0
325,D4,45.5,167/1000,112,145.0
326,D3,45.5,167/1000,112,145.0
327,E-4,45.667,167/1000,112,145.0
328,E-3,45.667,167/1000,112,145.0
329,E4,45.833,167/1000,112,145.0
330,E3,45.833,167/1000,112,145.0
331,F2,46.0,224/125,112,145.0
332,F4,46.0,2.0,112,145.0
333,F3,46.0,2.0,112,145.0
334,C2,46.0,0.25,102,145.0
335,F#2,46.0,0.5,87,145.0
336,C4,46.667,0.625,117,145.0
337,D4,47.0,99/125,112,145.0
338,G#4,47.0,99/125,112,145.0
339,F4,47.0,99/125,112,145.0
340,D4,47.0,99/125,112,145.0
341,F#2,47.0,0.25,102,145.0
342,E-2,47.0,0.25,102,145.0
343,F4,47.083,177/250,112,145.0
344,G#4,47.167,0.625,112,145.0
345,E-4,47.333,0.625,117,145.0
346,E-2,47.667,0.25,102,145.0
347,E-2,48.0,224/125,112,145.0
348,G4,48.0,667/1000,117,145.0
349,E-4,48.0,1.5,112,145.0
350,E-3,48.0,1.5,112,145.0
351,C2,48.0,1.0,102,145.0
352,F#2,48.0,0.5,87,145.0
353,G4,48.667,833/1000,117,145.0
354,C4,49.0,99/125,112,145.0
355,E-4,49.0,99/125,112,145.0
356,G4,49.0,99/125,112,145.0
357,C4,49.0,99/125,112,145.0
358,F#2,49.0,0.25,94,145.0
359,E-2,49.0,0.25,94,145.0
360,E-4,49.083,177/250,112,145.0
361,G4,49.167,0.625,112,145.0
362,G4,49.5,0.875,117,145.0
363,E-4,49.5,167/1000,112,145.0
364,E-3,49.5,167/1000,112,145.0
365,F4,49.667,167/1000,112,145.0
366,F3,49.667,167/1000,112,145.0
367,F#4,49.833,167/1000,112,145.0
368,F#3,49.833,167/1000,112,145.0
369,G2,50.0,224/125,112,145.0
370,G4,50.0,2.0,112,145.0
371,G3,50.0,2.0,112,145.0
372,C2,50.0,0.25,102,145.0
373,F#2,50.0,0.5,87,145.0
374,F4,50.5,0.375,117,145.0
375,E-4,51.0,0.375,117,145.0
376,C4,51.0,99/125,112,145.0
377,E-4,51.0,99/125,112,145.0
378,G4,51.0,99/125,112,145.0
379,C4,51.0,99/125,112,145.0
380,F#2,51.0,0.25,102,145.0
381,E-2,51.0,0.25,102,145.0
382,E-4,51.083,177/250,112,145.0
383,G4,51.167,0.625,112,145.0
384,C4,51.5,0.5,117,145.0
385,E-2,51.667,0.25,102,145.0
386,F2,52.0,224/125,112,145.0
387,C4,52.0,1.875,117,145.0
388,F4,52.0,1.5,112,145.0
389,F3,52.0,1.5,112,145.0
390,C2,52.0,1.0,102,145.0
391,F#2,52.0,0.5,87,145.0
392,D4,53.0,99/125,112,145.0
393,G#4,53.0,99/125,112,145.0
394,D4,53.0,99/125,112,145.0
395,F4,53.0,99/125,112,145.0
396,F#2,53.0,0.25,94,145.0
397,E-2,53.0,0.25,94,145.0
398,F4,53.083,177/250,112,145.0
399,G#4,53.167,0.625,112,145.0
400,F4,53.5,167/1000,112,145.0
401,F3,53.5,167/1000,112,145.0
402,F#4,53.667,167/1000,112,145.0
403,F#3,53.667,167/1000,112,145.0
404,G4,53.833,167/1000,112,145.0
405,G3,53.833,167/1000,112,145.0
406,G#2,54.0,224/125,112,145.0
407,G#4,54.0,2.0,112,145.0
408,G#3,54.0,2.0,112,145.0
409,C2,54.0,0.25,102,145.0
410,F#2,54.0,0.5,87,145.0
411,E-5,54.667,0.625,117,145.0
412,D4,55.0,99/125,112,145.0
413,G#4,55.0,99/125,112,145.0
414,D4,55.0,99/125,112,145.0
415,F4,55.0,99/125,112,145.0
416,F#2,55.0,0.25,102,145.0
417,E-2,55.0,0.25,102,145.0
418,F4,55.083,177/250,112,145.0
419,G#4,55.167,0.625,112,145.0
420,E-5,55.333,0.625,117,145.0
421,E-2,55.667,0.25,102,145.0
422,G2,56.0,224/125,112,145.0
423,E-5,56.0,0.625,117,145.0
424,G4,56.0,2.0,112,145.0
425,G3,56.0,2.0,112,145.0
426,C2,56.0,1.0,102,145.0
427,F#2,56.0,0.5,87,145.0
428,C5,56.667,0.625,117,145.0
429,C4,57.0,99/125,112,145.0
430,E-4,57.0,99/125,112,145.0
431,C4,57.0,99/125,112,145.0
432,G4,57.0,99/125,112,145.0
433,F#2,57.0,0.25,94,145.0
434,E-2,57.0,0.25,94,145.0
435,E-4,57.083,177/250,112,145.0
436,G4,57.167,0.625,112,145.0
437,C5,57.333,0.625,117,145.0
438,E-2,58.0,224/125,112,145.0
439,C5,58.0,0.5,117,145.0
440,E-4,58.0,2.0,112,145.0
441,E-3,58.0,2.0,112,145.0
442,C2,58.0,0.25,102,145.0
443,F#2,58.0,0.5,87,145.0
444,G4,58.5,0.5,117,145.0
445,G#4,59.0,0.5,117,145.0
446,C4,59.0,99/125,112,145.0
447,C4,59.0,99/125,112,145.0
448,E-4,59.0,99/125,112,145.0
449,G4,59.0,99/125,112,145.0
450,F#2,59.0,0.25,102,145.0
451,E-2,59.0,0.25,102,145.0
452,E-4,59.083,177/250,112,145.0
453,G4,59.167,0.625,112,145.0
454,F4,59.5,0.5,117,145.0
455,E-2,59.667,0.25,102,145.0
456,F2,60.0,224/125,112,145.0
457,G4,60.0,0.5,117,145.0
458,F4,60.0,1.5,112,145.0
459,F3,60.0,1.5,112,145.0
460,C2,60.0,1.0,102,145.0
461,F#2,60.0,0.5,87,145.0
462,G#4,60.5,0.5,117,145.0
463,G4,61.0,0.5,117,145.0
464,D4,61.0,99/125,112,145.0
465,G#4,61.0,99/125,112,145.0
466,D4,61.0,99/125,112,145.0
467,F4,61.0,99/125,112,145.0
468,F#2,61.0,0.25,94,145.0
469,E-2,61.0,0.25,94,145.0
470,F4,61.083,177/250,112,145.0
471,G#4,61.167,0.625,112,145.0
472,F4,61.5,0.5,117,145.0
473,F4,61.5,167/1000,112,145.0
474,F3,61.5,167/1000,112,145.0
475,E4,61.667,167/1000,112,145.0
476,E3,61.667,167/1000,112,145.0
477,E-4,61.833,167/1000,112,145.0
478,E-3,61.833,167/1000,112,145.0
479,D2,62.0,224/125,112,145.0
480,E-4,62.0,0.25,117,145.0
481,D4,62.0,2.0,112,145.0
482,D3,62.0,2.0,112,145.0
483,C2,62.0,0.25,102,145.0
484,F#2,62.0,0.5,87,145.0
485,C4,62.25,0.25,117,145.0
486,G#4,62.5,0.375,112,145.0
487,F4,62.5,0.875,117,145.0
488,G#4,62.5,0.375,112,145.0
489,D4,63.0,0.875,112,145.0
490,G#4,63.0,0.875,112,145.0
491,F4,63.0,0.875,112,145.0
492,D4,63.0,0.875,112,145.0
493,F#2,63.0,0.25,102,145.0
494,E-2,63.0,0.25,102,145.0
495,F4,63.083,99/125,112,145.0
496,G#4,63.167,177/250,112,145.0
497,E-4,63.5,0.25,117,145.0
498,E-2,63.667,0.25,102,145.0
499,C4,63.75,0.25,117,145.0
500,E-2,64.0,224/125,112,145.0
501,E-4,64.0,0.25,117,145.0
502,E-4,64.0,2.0,112,145.0
503,E-3,64.0,2.0,112,145.0
504,C2,64.0,1.0,102,145.0
505,F#2,64.0,0.5,87,145.0
506,D4,64.25,0.25,117,145.0
507,C4,64.5,3.375,117,145.0
508,G4,65.0,0.875,112,145.0
509,E-4,65.0,0.875,112,145.0
510,C4,65.0,0.875,112,145.0
511,G4,65.0,0.875,112,145.0
512,C4,65.0,0.875,112,145.0
513,E-4,65.0,0.875,112,145.0
514,F#2,65.0,0.25,94,145.0
515,E-2,65.0,0.25,94,145.0
516,G#2,66.0,224/125,112,145.0
517,G#4,66.0,2.0,112,145.0
518,G#3,66.0,2.0,112,145.0
519,C2,66.0,0.25,102,145.0
520,F#2,66.0,0.5,87,145.0
521,G#4,67.0,0.875,112,145.0
522,E-4,67.0,0.875,112,145.0
523,C4,67.0,0.875,112,145.0
524,G#4,67.0,0.875,112,145.0
525,C4,67.0,0.875,112,145.0
526,E-4,67.0,0.875,112,145.0
527,F#2,67.0,0.25,102,145.0
528,E-2,67.0,0.25,102,145.0
529,E-2,67.667,0.25,102,145.0
530,G2,68.0,99/125,112,145.0
531,G4,68.0,1.0,112,145.0
532,G3,68.0,1.0,112,145.0
533,C2,68.0,1.0,102,145.0
534,F#2,68.0,0.5,87,145.0
535,F4,68.0,99/125,112,145.0
536,D4,68.0,99/125,112,145.0
537,B3,68.0,99/125,112,145.0
538,G4,68.0,99/125,112,145.0
539,D4,68.0,99/125,112,145.0
540,F4,68.0,99/125,112,145.0
541,B3,68.0,99/125,112,145.0
542,G4,68.0,99/125,112,145.0
543,F2,69.0,99/125,112,145.0
544,F5,69.0,2.875,117,145.0
545,F4,69.0,1.0,112,145.0
546,F3,69.0,1.0,112,145.0
547,G#4,69.0,99/125,112,145.0
548,F4,69.0,99/125,112,145.0
549,B3,69.0,99/125,112,145.0
550,D4,69.0,99/125,112,145.0
551,G#4,69.0,99/125,112,145.0
552,B3,69.0,99/125,112,145.0
553,D4,69.0,99/125,112,145.0
554,F4,69.0,99/125,112,145.0
555,F#2,69.0,0.25,94,145.0
556,E-2,69.0,0.25,94,145.0
557,E-2,70.0,99/125,112,145.0
558,E-4,70.0,1.0,112,145.0
559,E-3,70.0,1.0,112,145.0
560,C2,70.0,0.25,102,145.0
561,F#2,70.0,0.5,87,145.0
562,B3,70.0,99/125,112,145.0
563,E-4,70.0,99/125,112,145.0
564,G4,70.0,99/125,112,145.0
565,E-4,70.0,99/125,112,145.0
566,B3,70.0,99/125,112,145.0
567,G4,70.0,99/125,112,145.0
568,D2,71.0,99/125,112,145.0
569,D4,71.0,1.0,112,145.0
570,D3,71.0,1.0,112,145.0
571,B3,71.0,99/125,112,145.0
572,F4,71.0,99/125,112,145.0
573,G4,71.0,99/125,112,145.0
574,D4,71.0,99/125,112,145.0
575,D4,71.0,99/125,112,145.0
576,F4,71.0,99/125,112,145.0
577,G4,71.0,99/125,112,145.0
578,B3,71.0,99/125,112,145.0
579,F#2,71.0,0.25,102,145.0
580,E-2,71.0,0.25,102,145.0
581,E-2,71.667,0.25,102,145.0
582,C2,72.0,224/125,112,145.0
583,G4,72.0,667/1000,117,145.0
584,C4,72.0,1.5,112,145.0
585,C3,72.0,1.5,112,145.0
586,C2,72.0,1.0,102,145.0
587,F#2,72.0,0.5,87,145.0
588,G4,72.667,2333/1000,117,145.0
589,E-4,73.0,99/125,112,145.0
590,C4,73.0,99/125,112,145.0
591,G4,73.0,99/125,112,145.0
592,C4,73.0,99/125,112,145.0
593,G4,73.0,99/125,112,145.0
594,E-4,73.0,99/125,112,145.0
595,F#2,73.0,0.25,94,145.0
596,E-2,73.0,0.25,94,145.0
597,C4,73.5,167/1000,112,145.0
598,C3,73.5,167/1000,112,145.0
599,C#4,73.667,167/1000,112,145.0
600,C#3,73.667,167/1000,112,145.0
601,D4,73.833,167/1000,112,145.0
602,D3,73.833,167/1000,112,145.0
603,E-2,74.0,224/125,112,145.0
604,E-4,74.0,2.0,112,145.0
605,E-3,74.0,2.0,112,145.0
606,C2,74.0,0.25,102,145.0
607,F#2,74.0,0.5,87,145.0
608,C5,75.0,667/1000,117,145.0
609,E-4,75.0,99/125,112,145.0
610,C4,75.0,99/125,112,145.0
611,G4,75.0,99/125,112,145.0
612,C4,75.0,99/125,112,145.0
613,E-4,75.0,99/125,112,145.0
614,G4,75.0,99/125,112,145.0
615,F#2,75.0,0.25,102,145.0
616,E-2,75.0,0.25,102,145.0
617,C5,75.667,333/1000,117,145.0
618,E-2,75.667,0.25,102,145.0
619,D2,76.0,224/125,112,145.0
620,D4,76.0,1.5,112,145.0
621,D3,76.0,1.5,112,145.0
622,C2,76.0,1.0,102,145.0
623,F#2,76.0,0.5,87,145.0
624,G#4,77.0,99/125,112,145.0
625,F4,77.0,99/125,112,145.0
626,D4,77.0,99/125,112,145.0
627,D4,77.0,99/125,112,145.0
628,F4,77.0,99/125,112,145.0
629,G#4,77.0,99/125,112,145.0
630,F#2,77.0,0.25,94,145.0
631,E-2,77.0,0.25,94,145.0
632,D4,77.5,167/1000,112,145.0
633,D3,77.5,167/1000,112,145.0
634,E-4,77.667,167/1000,112,145.0
635,E-3,77.667,167/1000,112,145.0
636,E4,77.833,167/1000,112,145.0
637,E3,77.833,167/1000,112,145.0
638,F2,78.0,224/125,112,145.0
639,F4,78.0,2.0,112,145.0
640,F3,78.0,2.0,112,145.0
641,C2,78.0,0.25,102,145.0
642,F#2,78.0,0.5,87,145.0
643,C4,78.667,0.625,117,145.0
644,G#4,79.0,99/125,112,145.0
645,F4,79.0,99/125,112,145.0
646,D4,79.0,99/125,112,145.0
647,G#4,79.0,99/125,112,145.0
648,D4,79.0,99/125,112,145.0
649,F4,79.0,99/125,112,145.0
650,F#2,79.0,0.25,102,145.0
651,E-2,79.0,0.25,102,145.0
652,E-4,79.333,0.625,117,145.0
653,E-2,79.667,0.25,102,145.0
654,E-2,80.0,224/125,112,145.0
655,G4,80.0,667/1000,117,145.0
656,E-4,80.0,1.5,112,145.0
657,E-3,80.0,1.5,112,145.0
658,C2,80.0,1.0,102,145.0
659,F#2,80.0,0.5,87,145.0
660,G4,80.667,833/1000,117,145.0
661,E-4,81.0,99/125,112,145.0
662,G4,81.0,99/125,112,145.0
663,C4,81.0,99/125,112,145.0
664,E-4,81.0,99/125,112,145.0
665,C4,81.0,99/125,112,145.0
666,G4,81.0,99/125,112,145.0
667,F#2,81.0,0.25,94,145.0
668,E-2,81.0,0.25,94,145.0
669,G4,81.5,0.875,117,145.0
670,E-4,81.5,167/1000,112,145.0
671,E-3,81.5,167/1000,112,145.0
672,F4,81.667,167/1000,112,145.0
673,F3,81.667,167/1000,112,145.0
674,F#4,81.833,167/1000,112,145.0
675,F#3,81.833,167/1000,112,145.0
676,G2,82.0,224/125,112,145.0
677,G4,82.0,2.0,112,145.0
678,G3,82.0,2.0,112,145.0
679,C2,82.0,0.25,102,145.0
680,F#2,82.0,0.5,87,145.0
681,F4,82.5,0.5,117,145.0
682,E-4,83.0,0.5,117,145.0
683,E-4,83.0,99/125,112,145.0
684,G4,83.0,99/125,112,145.0
685,C4,83.0,99/125,112,145.0
686,E-4,83.0,99/125,112,145.0
687,G4,83.0,99/125,112,145.0
688,C4,83.0,99/125,112,145.0
689,F#2,83.0,0.25,102,145.0
690,E-2,83.0,0.25,102,145.0
691,C4,83.5,0.5,117,145.0
692,E-2,83.667,0.25,102,145.0
693,F2,84.0,224/125,112,145.0
694,C4,84.0,1.875,117,145.0
695,F4,84.0,1.5,112,145.0
696,F3,84.0,1.5,112,145.0
697,C2,84.0,1.0,102,145.0
698,F#2,84.0,0.5,87,145.0
699,G#4,85.0,99/125,112,145.0
700,D4,85.0,99/125,112,145.0
701,F4,85.0,99/125,112,145.0
702,G#4,85.0,99/125,112,145.0
703,D4,85.0,99/125,112,145.0
704,F4,85.0,99/125,112,145.0
705,F#2,85.0,0.25,94,145.0
706,E-2,85.0,0.25,94,145.0
707,F4,85.5,167/1000,112,145.0
708,F3,85.5,167/1000,112,145.0
709,F#4,85.667,167/1000,112,145.0
710,F#3,85.667,167/1000,112,145.0
711,G4,85.833,167/1000,112,145.0
712,G3,85.833,167/1000,112,145.0
713,G#2,86.0,224/125,112,145.0
714,G#4,86.0,2.0,112,145.0
715,G#3,86.0,2.0,112,145.0
716,C2,86.0,0.25,102,145.0
717,F#2,86.0,0.5,87,145.0
718,E-5,86.667,0.625,117,145.0
719,G#4,87.0,99/125,112,145.0
720,D4,87.0,99/125,112,145.0
721,F4,87.0,99/125,112,145.0
722,D4,87.0,99/125,112,145.0
723,G#4,87.0,99/125,112,145.0
724,F4,87.0,99/125,112,145.0
725,F#2,87.0,0.25,102,145.0
726,E-2,87.0,0.25,102,145.0
727,E-5,87.333,0.625,117,145.0
728,E-2,87.667,0.25,102,145.0
729,G2,88.0,224/125,112,145.0
730,E-5,88.0,0.625,117,145.0
731,G4,88.0,2.0,112,145.0
732,G3,88.0,2.0,112,145.0
733,C2,88.0,1.0,102,145.0
734,F#2,88.0,0.5,87,145.0
735,C5,88.667,0.625,117,145.0
736,E-4,89.0,99/125,112,145.0
737,C4,89.0,99/125,112,145.0
738,G4,89.0,99/125,112,145.0
739,E-4,89.0,99/125,112,145.0
740,G4,89.0,99/125,112,145.0
741,C4,89.0,99/125,112,145.0
742,F#2,89.0,0.25,94,145.0
743,E-2,89.0,0.25,94,145.0
744,C5,89.333,0.625,117,145.0
745,E-2,90.0,224/125,112,145.0
746,C5,90.0,0.5,117,145.0
747,E-4,90.0,2.0,112,145.0
748,E-3,90.0,2.0,112,145.0
749,C2,90.0,0.25,102,145.0
750,F#2,90.0,0.5,87,145.0
751,G4,90.5,0.5,117,145.0
752,G#4,91.0,0.5,117,145.0
753,C4,91.0,99/125,112,145.0
754,E-4,91.0,99/125,112,145.0
755,G4,91.0,99/125,112,145.0
756,E-4,91.0,99/125,112,145.0
757,G4,91.0,99/125,112,145.0
758,C4,91.0,99/125,112,145.0
759,F#2,91.0,0.25,102,145.0
760,E-2,91.0,0.25,102,145.0
761,F4,91.5,0.5,117,145.0
762,E-2,91.667,0.25,102,145.0
763,F2,92.0,224/125,112,145.0
764,G4,92.0,0.5,117,145.0
765,F4,92.0,1.5,112,145.0
766,F3,92.0,1.5,112,145.0
767,C2,92.0,1.0,102,145.0
768,F#2,92.0,0.5,87,145.0
769,G#4,92.5,0.5,117,145.0
770,G4,93.0,0.5,117,145.0
771,G#4,93.0,99/125,112,145.0
772,D4,93.0,99/125,112,145.0
773,F4,93.0,99/125,112,145.0
774,F4,93.0,99/125,112,145.0
775,D4,93.0,99/125,112,145.0
776,G#4,93.0,99/125,112,145.0
777,F#2,93.0,0.25,94,145.0
778,E-2,93.0,0.25,94,145.0
779,F4,93.5,0.5,117,145.0
780,F4,93.5,167/1000,112,145.0
781,F3,93.5,167/1000,112,145.0
782,E4,93.667,167/1000,112,145.0
783,E3,93.667,167/1000,112,145.0
784,E-4,93.833,167/1000,112,145.0
785,E-3,93.833,167/1000,112,145.0
786,D2,94.0,224/125,112,145.0
787,E-4,94.0,0.25,117,145.0
788,D4,94.0,2.0,112,145.0
789,D3,94.0,2.0,112,145.0
790,C2,94.0,0.25,102,145.0
791,F#2,94.0,0.5,87,145.0
792,C4,94.25,0.25,117,145.0
793,G#4,94.5,0.375,112,145.0
794,F4,94.5,0.875,117,145.0
795,G#4,94.5,0.375,112,145.0
796,G#4,95.0,0.875,112,145.0
797,F4,95.0,0.875,112,145.0
798,D4,95.0,0.875,112,145.0
799,F4,95.0,0.875,112,145.0
800,D4,95.0,0.875,112,145.0
801,G#4,95.0,0.875,112,145.0
802,F#2,95.0,0.25,102,145.0
803,E-2,95.0,0.25,102,145.0
804,E-4,95.5,0.25,117,145.0
805,E-2,95.667,0.25,102,145.0
806,C4,95.75,0.25,117,145.0
807,C2,96.0,224/125,112,145.0
808,E-4,96.0,0.25,117,145.0
809,E-4,96.0,2.0,112,145.0
810,E-3,96.0,2.0,112,145.0
811,C2,96.0,1.0,102,145.0
812,F#2,96.0,0.5,87,145.0
813,D4,96.25,0.25,117,145.0
814,C4,96.5,3.375,117,145.0
815,C4,97.0,99/125,112,145.0
816,G4,97.0,99/125,112,145.0
817,E-4,97.0,99/125,112,145.0
818,C4,97.0,99/125,112,145.0
819,E-4,97.0,99/125,112,145.0
820,G4,97.0,99/125,112,145.0
821,F#2,97.0,0.25,94,145.0
822,E-2,97.0,0.25,94,145.0
823,B1,98.0,99/125,112,145.0
824,D4,98.0,2.0,112,145.0
825,D3,98.0,2.0,112,145.0
826,C2,98.0,0.25,102,145.0
827,F#2,98.0,0.5,87,145.0
828,G4,99.0,99/125,112,145.0
829,D4,99.0,99/125,112,145.0
830,D4,99.0,99/125,112,145.0
831,G4,99.0,99/125,112,145.0
832,F#2,99.0,0.25,102,145.0
833,E-2,99.0,0.25,102,145.0
834,E-2,99.667,0.25,102,145.0
835,B-1,100.0,224/125,112,145.0
836,C#4,100.0,2.0,112,145.0
837,C#3,100.0,2.0,112,145.0
838,C2,100.0,1.0,102,145.0
839,F#2,100.0,0.5,87,145.0
840,E-4,101.0,0.5,117,145.0
841,B-3,101.0,99/125,112,145.0
842,C#4,101.0,99/125,112,145.0
843,E-4,101.0,99/125,112,145.0
844,G4,101.0,99/125,112,145.0
845,B-3,101.0,99/125,112,145.0
846,E-4,101.0,99/125,112,145.0
847,G4,101.0,99/125,112,145.0
848,C#4,101.0,99/125,112,145.0
849,F#2,101.0,0.25,94,145.0
850,E-2,101.0,0.25,94,145.0
851,E4,101.583,0.5,117,145.0
852,E-2,102.0,224/125,112,145.0
853,F4,102.0,0.5,117,145.0
854,C4,102.0,2.0,112,145.0
855,C3,102.0,2.0,112,145.0
856,C2,102.0,0.25,102,145.0
857,F#2,102.0,0.5,87,145.0
858,G4,102.5,0.375,112,145.0
859,G4,102.5,0.375,112,145.0
860,G#4,102.583,0.5,117,145.0
861,E-4,103.0,0.875,117,145.0
862,B-3,103.0,0.875,112,145.0
863,C#4,103.0,0.875,112,145.0
864,E-4,103.0,0.875,112,145.0
865,G4,103.0,0.875,112,145.0
866,B-3,103.0,0.875,112,145.0
867,C#4,103.0,0.875,112,145.0
868,G4,103.0,0.875,112,145.0
869,E-4,103.0,0.875,112,145.0
870,F#2,103.0,0.25,102,145.0
871,E-2,103.0,0.25,102,145.0
872,E-2,103.667,0.25,102,145.0
873,G#2,104.0,99/125,112,145.0
874,C4,104.0,0.875,117,145.0
875,C2,104.0,1.0,102,145.0
876,F#2,104.0,0.5,87,145.0
877,B-4,104.083,2927/1000,108,145.0
878,B-3,105.0,0.875,117,145.0
879,G#4,105.0,0.875,112,145.0
880,E-4,105.0,0.875,112,145.0
881,C4,105.0,0.875,112,145.0
882,E-4,105.0,0.875,112,145.0
883,G#4,105.0,0.875,112,145.0
884,C4,105.0,0.875,112,145.0
885,F#2,105.0,0.25,94,145.0
886,E-2,105.0,0.25,94,145.0
887,E-2,106.0,99/125,112,145.0
888,G#3,106.0,1.875,117,145.0
889,C2,106.0,0.25,102,145.0
890,F#2,106.0,0.5,87,145.0
891,C4,107.0,0.875,112,145.0
892,G#4,107.0,0.875,112,145.0
893,E-4,107.0,0.875,112,145.0
894,E-4,107.0,0.875,112,145.0
895,G#4,107.0,0.875,112,145.0
896,C4,107.0,0.875,112,145.0
897,F#2,107.0,0.25,102,145.0
898,E-2,107.0,0.25,102,145.0
899,B-4,107.167,69/125,80,145.0
900,G#4,107.667,333/1000,92,145.0
901,E-2,107.667,0.25,102,145.0
902,B-1,108.0,99/125,112,145.0
903,G#4,108.0,21/500,92,145.0
904,C2,108.0,1.0,102,145.0
905,F#2,108.0,0.5,87,145.0
906,C#5,108.052,987/250,92,145.0
907,E-4,109.0,0.5,117,145.0
908,B-3,109.0,0.875,112,145.0
909,C#4,109.0,0.875,112,145.0
910,G4,109.0,0.875,112,145.0
911,C#4,109.0,0.875,112,145.0
912,G4,109.0,0.875,112,145.0
913,B-3,109.0,0.875,112,145.0
914,F#2,109.0,0.25,94,145.0
915,E-2,109.0,0.25,94,145.0
916,E4,109.583,0.5,117,145.0
917,E-1,110.0,99/125,112,145.0
918,F4,110.0,0.5,117,145.0
919,C2,110.0,0.25,102,145.0
920,F#2,110.0,0.5,87,145.0
921,G4,110.5,0.375,112,145.0
922,G4,110.5,0.375,112,145.0
923,G#4,110.583,0.5,117,145.0
924,E-4,111.0,0.875,117,145.0
925,C#4,111.0,0.875,112,145.0
926,G4,111.0,0.875,112,145.0
927,B-3,111.0,0.875,112,145.0
928,G4,111.0,0.875,112,145.0
929,C#4,111.0,0.875,112,145.0
930,B-3,111.0,0.875,112,145.0
931,F#2,111.0,0.25,102,145.0
932,E-2,111.0,0.25,102,145.0
933,E-2,111.667,0.25,102,145.0
934,G#2,112.0,99/125,112,145.0
935,C4,112.0,0.875,117,145.0
936,C2,112.0,1.0,102,145.0
937,F#2,112.0,0.5,87,145.0
938,B-4,112.042,2917/1000,92,145.0
939,B-3,113.0,0.875,117,145.0
940,G#4,113.0,0.875,112,145.0
941,E-4,113.0,0.875,112,145.0
942,C4,113.0,0.875,112,145.0
943,E-4,113.0,0.875,112,145.0
944,G#4,113.0,0.875,112,145.0
945,C4,113.0,0.875,112,145.0
946,F#2,113.0,0.25,94,145.0
947,E-2,113.0,0.25,94,145.0
948,E-2,114.0,99/125,112,145.0
949,G#3,114.0,1.875,117,145.0
950,C2,114.0,0.25,102,145.0
951,F#2,114.0,0.5,87,145.0
952,C4,115.0,0.875,112,145.0
953,E-4,115.0,0.875,112,145.0
954,G#4,115.0,0.875,112,145.0
955,G#4,115.0,0.875,112,145.0
956,C4,115.0,0.875,112,145.0
957,E-4,115.0,0.875,112,145.0
958,F#2,115.0,0.25,102,145.0
959,E-2,115.0,0.25,102,145.0
960,B-4,115.135,0.625,100,145.0
961,E-2,115.667,0.25,102,145.0
962,G#4,115.708,73/250,100,145.0
963,G#2,116.0,99/125,112,145.0
964,G#4,116.0,0.125,100,145.0
965,C2,116.0,1.0,102,145.0
966,F#2,116.0,0.5,87,145.0
967,B4,116.083,3.719,92,145.0
968,E-4,117.0,0.5,117,145.0
969,G#4,117.0,0.875,112,145.0
970,B3,117.0,0.875,112,145.0
971,E-4,117.0,0.875,112,145.0
972,E-4,117.0,0.875,112,145.0
973,B3,117.0,0.875,112,145.0
974,G#4,117.0,0.875,112,145.0
975,F#2,117.0,0.25,94,145.0
976,E-2,117.0,0.25,94,145.0
977,E4,117.583,0.5,117,145.0
978,E-2,118.0,99/125,112,145.0
979,F4,118.0,0.5,117,145.0
980,C2,118.0,0.25,102,145.0
981,F#2,118.0,0.5,87,145.0
982,G#4,118.5,0.375,112,145.0
983,G#4,118.5,0.375,112,145.0
984,G#4,118.583,0.5,117,145.0
985,F4,119.0,0.875,117,145.0
986,E-4,119.0,0.875,112,145.0
987,B3,119.0,0.875,112,145.0
988,G#4,119.0,0.875,112,145.0
989,B3,119.0,0.875,112,145.0
990,E-4,119.0,0.875,112,145.0
991,G#4,119.0,0.875,112,145.0
992,F#2,119.0,0.25,102,145.0
993,E-2,119.0,0.25,102,145.0
994,E-2,119.667,0.25,102,145.0
995,E-2,120.0,224/125,112,145.0
996,B-4,120.0,0.875,117,145.0
997,B-3,120.0,377/200,108,145.0
998,C2,120.0,1.0,102,145.0
999,F#2,120.0,0.5,87,145.0
1000,B-4,121.0,0.5,117,145.0
1001,B-3,121.0,99/125,112,145.0
1002,E-4,121.0,99/125,112,145.0
1003,G4,121.0,99/125,112,145.0
1004,B-3,121.0,99/125,112,145.0
1005,G4,121.0,99/125,112,145.0
1006,E-4,121.0,99/125,112,145.0
1007,F#2,121.0,0.25,94,145.0
1008,E-2,121.0,0.25,94,145.0
1009,G4,121.583,0.5,117,145.0
1010,C#2,122.0,224/125,112,145.0
1011,B-4,122.0,0.5,117,145.0
1012,C2,122.0,0.25,102,145.0
1013,F#2,122.0,0.5,87,145.0
1014,F4,122.0,99/125,112,145.0
1015,G#3,122.0,99/125,112,145.0
1016,B-3,122.0,99/125,112,145.0
1017,B-3,122.0,99/125,112,145.0
1018,G#3,122.0,99/125,112,145.0
1019,F4,122.0,99/125,112,145.0
1020,G#3,122.01,377/200,108,145.0
1021,G4,122.583,0.875,117,145.0
1022,F4,123.0,99/125,112,145.0
1023,G#3,123.0,99/125,112,145.0
1024,B-3,123.0,99/125,112,145.0
1025,G#3,123.0,99/125,112,145.0
1026,B-3,123.0,99/125,112,145.0
1027,F4,123.0,99/125,112,145.0
1028,F#2,123.0,0.25,102,145.0
1029,E-2,123.0,0.25,102,145.0
1030,C#5,123.583,417/1000,117,145.0
1031,E-2,123.667,0.25,102,145.0
1032,C2,124.0,224/125,112,145.0
1033,C#5,124.0,229/500,117,145.0
1034,C2,124.0,1.0,102,145.0
1035,F#2,124.0,0.5,87,145.0
1036,G3,124.083,3917/1000,108,145.0
1037,C5,124.583,0.5,117,145.0
1038,C#5,125.0,0.5,117,145.0
1039,B-3,125.0,224/125,112,145.0
1040,E4,125.0,224/125,112,145.0
1041,G3,125.0,224/125,112,145.0
1042,E4,125.0,224/125,112,145.0
1043,B-3,125.0,224/125,112,145.0
1044,G3,125.0,224/125,112,145.0
1045,F#2,125.0,0.25,94,145.0
1046,E-2,125.0,0.25,94,145.0
1047,C5,125.583,417/1000,117,145.0
1048,G1,126.0,99/125,112,145.0
1049,C#5,126.0,0.375,117,145.0
1050,C2,126.0,0.25,102,145.0
1051,F#2,126.0,0.5,87,145.0
1052,C5,126.583,1.375,117,145.0
1053,C2,127.0,99/125,112,145.0
1054,G3,127.0,99/125,112,145.0
1055,G3,127.0,99/125,112,145.0
1056,F#2,127.0,0.25,102,145.0
1057,E-2,127.0,0.25,102,145.0
1058,E-2,127.667,0.25,102,145.0
1059,B1,128.0,0.375,112,145.0
1060,F#3,128.0,0.375,112,145.0
1061,B4,128.0,0.5,117,145.0
1062,F#3,128.0,0.375,112,145.0
1063,G3,128.0,23/200,108,145.0
1064,C2,128.0,1.0,102,145.0
1065,F#2,128.0,0.5,87,145.0
1066,B-1,128.5,0.375,112,145.0
1067,F3,128.5,0.375,112,145.0
1068,F3,128.5,0.375,112,145.0
1069,B-4,128.583,0.5,117,145.0
1070,F#2,129.0,0.25,94,145.0
1071,E-2,129.0,0.25,94,145.0
1072,B-1,129.5,0.375,112,145.0
1073,F3,129.5,0.375,112,145.0
1074,F3,129.5,0.375,112,145.0
1075,B-4,129.583,417/1000,117,145.0
1076,B-1,130.0,0.375,112,145.0
1077,F3,130.0,0.375,112,145.0
1078,B-4,130.0,0.5,117,145.0
1079,F3,130.0,0.375,112,145.0
1080,C2,130.0,0.25,102,145.0
1081,F#2,130.0,0.5,87,145.0
1082,G#1,130.5,0.375,112,145.0
1083,E3,130.5,0.375,112,145.0
1084,E3,130.5,0.375,112,145.0
1085,G#4,130.583,0.5,117,145.0
1086,F#2,131.0,0.25,102,145.0
1087,E-2,131.0,0.25,102,145.0
1088,G#1,131.5,0.375,112,145.0
1089,E3,131.5,0.375,112,145.0
1090,E3,131.5,0.375,112,145.0
1091,G#4,131.583,417/1000,117,145.0
1092,E-2,131.667,0.25,102,145.0
1093,A1,132.0,0.375,112,145.0
1094,E3,132.0,0.375,112,145.0
1095,A4,132.0,0.5,117,145.0
1096,G#4,132.0,83/1000,117,145.0
1097,E3,132.0,0.375,112,145.0
1098,C2,132.0,1.0,102,145.0
1099,F#2,132.0,0.5,87,145.0
1100,G#1,132.5,0.375,112,145.0
1101,E-3,132.5,0.375,112,145.0
1102,E-3,132.5,0.375,112,145.0
1103,G#4,132.583,0.5,117,145.0
1104,F#2,133.0,0.25,94,145.0
1105,E-2,133.0,0.25,94,145.0
1106,G#1,133.5,0.375,112,145.0
1107,E-3,133.5,0.375,112,145.0
1108,E-3,133.5,0.375,112,145.0
1109,G#4,133.583,417/1000,117,145.0
1110,G#1,134.0,0.375,112,145.0
1111,E-3,134.0,0.375,112,145.0
1112,G#4,134.0,0.5,117,145.0
1113,E-3,134.0,0.375,112,145.0
1114,C2,134.0,0.25,102,145.0
1115,F#2,134.0,0.5,87,145.0
1116,G1,134.5,1.375,112,145.0
1117,D3,134.5,1.375,112,145.0
1118,D3,134.5,1.375,112,145.0
1119,G4,134.583,1417/1000,117,145.0
1120,F#2,135.0,0.25,102,145.0
1121,E-2,135.0,0.25,102,145.0
1122,E-2,135.667,0.25,102,145.0
1123,C2,136.0,224/125,112,145.0
1124,G4,136.0,0.375,117,145.0
1125,C4,136.0,1.5,112,145.0
1126,C3,136.0,1.5,112,145.0
1127,C2,136.0,1.0,102,145.0
1128,F#2,136.0,0.5,87,145.0
1129,F4,136.333,333/1000,117,145.0
1130,G4,136.667,2333/1000,117,145.0
1131,E-4,137.0,0.875,112,145.0
1132,G4,137.0,0.875,112,145.0
1133,C4,137.0,0.875,112,145.0
1134,E-4,137.0,0.875,112,145.0
1135,G4,137.0,0.875,112,145.0
1136,C4,137.0,0.875,112,145.0
1137,F#2,137.0,0.25,94,145.0
1138,E-2,137.0,0.25,94,145.0
1139,C4,137.5,167/1000,112,145.0
1140,C3,137.5,167/1000,112,145.0
1141,C#4,137.667,167/1000,112,145.0
1142,C#3,137.667,167/1000,112,145.0
1143,D4,137.833,167/1000,112,145.0
1144,D3,137.833,167/1000,112,145.0
1145,E-2,138.0,224/125,112,145.0
1146,E-4,138.0,2.0,112,145.0
1147,E-3,138.0,2.0,112,145.0
1148,C2,138.0,0.25,102,145.0
1149,F#2,138.0,0.5,87,145.0
1150,C5,139.0,667/1000,117,145.0
1151,G4,139.0,0.875,112,145.0
1152,E-4,139.0,0.875,112,145.0
1153,C4,139.0,0.875,112,145.0
1154,E-4,139.0,0.875,112,145.0
1155,G4,139.0,0.875,112,145.0
1156,C4,139.0,0.875,112,145.0
1157,F#2,139.0,0.25,102,145.0
1158,E-2,139.0,0.25,102,145.0
1159,C5,139.667,333/1000,117,145.0
1160,E-2,139.667,0.25,102,145.0
1161,D2,140.0,224/125,112,145.0
1162,D4,140.0,1.5,112,145.0
1163,D3,140.0,1.5,112,145.0
1164,C2,140.0,1.0,102,145.0
1165,F#2,140.0,0.5,87,145.0
1166,G#4,141.0,0.875,112,145.0
1167,F4,141.0,0.875,112,145.0
1168,D4,141.0,0.875,112,145.0
1169,G#4,141.0,0.875,112,145.0
1170,D4,141.0,0.875,112,145.0
1171,F4,141.0,0.875,112,145.0
1172,F#2,141.0,0.25,94,145.0
1173,E-2,141.0,0.25,94,145.0
1174,D4,141.5,167/1000,112,145.0
1175,D3,141.5,167/1000,112,145.0
1176,E-4,141.667,167/1000,112,145.0
1177,E-3,141.667,167/1000,112,145.0
1178,E4,141.833,167/1000,112,145.0
1179,E3,141.833,167/1000,112,145.0
1180,F2,142.0,224/125,112,145.0
1181,F4,142.0,2.0,112,145.0
1182,F3,142.0,2.0,112,145.0
1183,C2,142.0,0.25,102,145.0
1184,F#2,142.0,0.5,87,145.0
1185,G#4,142.5,0.375,112,145.0
1186,G#4,142.5,0.375,112,145.0
1187,C4,142.667,0.625,117,145.0
1188,G#4,143.0,0.875,112,145.0
1189,F4,143.0,0.875,112,145.0
1190,D4,143.0,0.875,112,145.0
1191,F4,143.0,0.875,112,145.0
1192,D4,143.0,0.875,112,145.0
1193,G#4,143.0,0.875,112,145.0
1194,F#2,143.0,0.25,102,145.0
1195,E-2,143.0,0.25,102,145.0
1196,E-4,143.333,0.625,117,145.0
1197,E-2,143.667,0.25,102,145.0
1198,E-2,144.0,224/125,112,145.0
1199,G4,144.0,667/1000,117,145.0
1200,E-4,144.0,1.5,112,145.0
1201,E-3,144.0,1.5,112,145.0
1202,C2,144.0,1.0,102,145.0
1203,F#2,144.0,0.5,87,145.0
1204,G4,144.667,833/1000,117,145.0
1205,G4,145.0,0.875,112,145.0
1206,C4,145.0,0.875,112,145.0
1207,E-4,145.0,0.875,112,145.0
1208,G4,145.0,0.875,112,145.0
1209,C4,145.0,0.875,112,145.0
1210,E-4,145.0,0.875,112,145.0
1211,F#2,145.0,0.25,94,145.0
1212,E-2,145.0,0.25,94,145.0
1213,G4,145.5,0.875,117,145.0
1214,E-4,145.5,167/1000,112,145.0
1215,E-3,145.5,167/1000,112,145.0
1216,F4,145.667,167/1000,112,145.0
1217,F3,145.667,167/1000,112,145.0
1218,F#4,145.833,167/1000,112,145.0
1219,F#3,145.833,167/1000,112,145.0
1220,G2,146.0,224/125,112,145.0
1221,G4,146.0,2.0,112,145.0
1222,G3,146.0,2.0,112,145.0
1223,C2,146.0,0.25,102,145.0
1224,F#2,146.0,0.5,87,145.0
1225,F4,146.5,0.5,117,145.0
1226,E-4,147.0,0.5,117,145.0
1227,C4,147.0,0.875,112,145.0
1228,E-4,147.0,0.875,112,145.0
1229,G4,147.0,0.875,112,145.0
1230,E-4,147.0,0.875,112,145.0
1231,G4,147.0,0.875,112,145.0
1232,C4,147.0,0.875,112,145.0
1233,F#2,147.0,0.25,102,145.0
1234,E-2,147.0,0.25,102,145.0
1235,C4,147.5,0.5,117,145.0
1236,E-2,147.667,0.25,102,145.0
1237,F2,148.0,224/125,112,145.0
1238,C4,148.0,1.875,117,145.0
1239,F4,148.0,1.5,112,145.0
1240,F3,148.0,1.5,112,145.0
1241,C2,148.0,1.0,102,145.0
1242,F#2,148.0,0.5,87,145.0
1243,G#4,149.0,0.875,112,145.0
1244,F4,149.0,0.875,112,145.0
1245,D4,149.0,0.875,112,145.0
1246,G#4,149.0,0.875,112,145.0
1247,D4,149.0,0.875,112,145.0
1248,F4,149.0,0.875,112,145.0
1249,F#2,149.0,0.25,94,145.0
1250,E-2,149.0,0.25,94,145.0
1251,F4,149.5,167/1000,112,145.0
1252,F3,149.5,167/1000,112,145.0
1253,F#4,149.667,167/1000,112,145.0
1254,F#3,149.667,167/1000,112,145.0
1255,G4,149.833,167/1000,112,145.0
1256,G3,149.833,167/1000,112,145.0
1257,G#2,150.0,224/125,112,145.0
1258,G#4,150.0,2.0,112,145.0
1259,G#3,150.0,2.0,112,145.0
1260,C2,150.0,0.25,102,145.0
1261,F#2,150.0,0.5,87,145.0
1262,G#4,150.5,0.375,112,145.0
1263,E-5,150.5,167/1000,117,145.0
1264,G#4,150.5,0.375,112,145.0
1265,E-5,150.75,167/1000,117,145.0
1266,E-5,151.0,167/1000,117,145.0
1267,G#4,151.0,0.875,112,145.0
1268,D4,151.0,0.875,112,145.0
1269,F4,151.0,0.875,112,145.0
1270,G#4,151.0,0.875,112,145.0
1271,D4,151.0,0.875,112,145.0
1272,F4,151.0,0.875,112,145.0
1273,F#2,151.0,0.25,102,145.0
1274,E-2,151.0,0.25,102,145.0
1275,E-5,151.25,167/1000,117,145.0
1276,E-5,151.5,167/1000,117,145.0
1277,E-2,151.667,0.25,102,145.0
1278,E-5,151.75,167/1000,117,145.0
1279,G2,152.0,224/125,112,145.0
1280,E-5,152.0,0.625,117,145.0
1281,G4,152.0,2.0,112,145.0
1282,G3,152.0,2.0,112,145.0
1283,C2,152.0,1.0,102,145.0
1284,F#2,152.0,0.5,87,145.0
1285,C5,152.667,0.625,117,145.0
1286,E-4,153.0,0.875,112,145.0
1287,G4,153.0,0.875,112,145.0
1288,C4,153.0,0.875,112,145.0
1289,G4,153.0,0.875,112,145.0
1290,C4,153.0,0.875,112,145.0
1291,E-4,153.0,0.875,112,145.0
1292,F#2,153.0,0.25,94,145.0
1293,E-2,153.0,0.25,94,145.0
1294,C5,153.333,0.625,117,145.0
1295,E-2,154.0,224/125,112,145.0
1296,C5,154.0,0.5,117,145.0
1297,E-4,154.0,2.0,112,145.0
1298,E-3,154.0,2.0,112,145.0
1299,C2,154.0,0.25,102,145.0
1300,F#2,154.0,0.5,87,145.0
1301,G4,154.5,0.5,117,145.0
1302,G#4,155.0,0.5,117,145.0
1303,G4,155.0,0.875,112,145.0
1304,C4,155.0,0.875,112,145.0
1305,E-4,155.0,0.875,112,145.0
1306,G4,155.0,0.875,112,145.0
1307,C4,155.0,0.875,112,145.0
1308,E-4,155.0,0.875,112,145.0
1309,F#2,155.0,0.25,102,145.0
1310,E-2,155.0,0.25,102,145.0
1311,F4,155.5,0.5,117,145.0
1312,E-2,155.667,0.25,102,145.0
1313,F2,156.0,224/125,112,145.0
1314,G4,156.0,0.5,117,145.0
1315,F4,156.0,1.5,112,145.0
1316,F3,156.0,1.5,112,145.0
1317,C2,156.0,1.0,102,145.0
1318,F#2,156.0,0.5,87,145.0
1319,G#4,156.5,0.5,117,145.0
1320,G4,157.0,0.5,117,145.0
1321,G#4,157.0,0.875,112,145.0
1322,D4,157.0,0.875,112,145.0
1323,F4,157.0,0.875,112,145.0
1324,G#4,157.0,0.875,112,145.0
1325,F4,157.0,0.875,112,145.0
1326,D4,157.0,0.875,112,145.0
1327,F#2,157.0,0.25,94,145.0
1328,E-2,157.0,0.25,94,145.0
1329,F4,157.5,0.5,117,145.0
1330,F4,157.5,167/1000,112,145.0
1331,F3,157.5,167/1000,112,145.0
1332,E4,157.667,167/1000,112,145.0
1333,E3,157.667,167/1000,112,145.0
1334,E-4,157.833,167/1000,112,145.0
1335,E-3,157.833,167/1000,112,145.0
1336,D2,158.0,224/125,112,145.0
1337,E-4,158.0,0.25,117,145.0
1338,D4,158.0,2.0,112,145.0
1339,D3,158.0,2.0,112,145.0
1340,C2,158.0,0.25,102,145.0
1341,F#2,158.0,0.5,87,145.0
1342,C4,158.25,0.25,117,145.0
1343,F4,158.5,1.0,117,145.0
1344,D4,158.5,0.375,112,145.0
1345,G#4,158.5,0.375,112,145.0
1346,F4,158.5,0.375,112,145.0
1347,F4,158.5,0.375,112,145.0
1348,D4,158.5,0.375,112,145.0
1349,G#4,158.5,0.375,112,145.0
1350,G#4,159.0,0.875,112,145.0
1351,F4,159.0,0.875,112,145.0
1352,D4,159.0,0.875,112,145.0
1353,G#4,159.0,0.875,112,145.0
1354,D4,159.0,0.875,112,145.0
1355,F4,159.0,0.875,112,145.0
1356,F#2,159.0,0.25,102,145.0
1357,E-2,159.0,0.25,102,145.0
1358,E-4,159.5,0.25,117,145.0
1359,E-2,159.667,0.25,102,145.0
1360,C4,159.75,0.25,117,145.0
1361,C2,160.0,0.375,112,145.0
1362,E-4,160.0,0.25,117,145.0
1363,C2,160.0,1.0,102,145.0
1364,F#2,160.0,0.5,87,145.0
1365,G4,160.0,0.375,112,145.0
1366,E-4,160.0,0.375,112,145.0
1367,C4,160.0,0.375,112,145.0
1368,E-4,160.0,0.375,112,145.0
1369,G4,160.0,0.375,112,145.0
1370,C4,160.0,0.375,112,145.0
1371,C4,160.25,0.25,117,145.0
1372,C4,160.5,3.375,117,145.0
1373,B1,161.0,1.875,112,145.0
1374,G4,161.0,1.875,112,145.0
1375,D4,161.0,1.875,112,145.0
1376,B3,161.0,1.875,112,145.0
1377,G4,161.0,1.875,112,145.0
1378,B3,161.0,1.875,112,145.0
1379,D4,161.0,1.875,112,145.0
1380,F#2,161.0,0.25,94,145.0
1381,E-2,161.0,0.25,94,145.0
1382,C2,162.0,0.25,102,145.0
1383,F#2,162.0,0.5,87,145.0
1384,C2,163.0,0.875,112,145.0
1385,C4,163.0,0.875,112,145.0
1386,E-4,163.0,0.875,112,145.0
1387,G4,163.0,0.875,112,145.0
1388,C4,163.0,0.875,112,145.0
1389,G4,163.0,0.875,112,145.0
1390,E-4,163.0,0.875,112,145.0
1391,F#2,163.0,0.25,102,145.0
1392,E-2,163.0,0.25,102,145.0
1393,E-2,163.667,0.25,102,145.0
1394,C2,164.0,99/125,112,145.0
1395,C2,164.0,1.0,102,145.0
1396,F#2,164.0,0.5,87,145.0
1397,C4,164.0,99/125,112,145.0
1398,E-4,164.0,99/125,112,145.0
1399,G4,164.0,99/125,112,145.0
1400,E-4,164.0,99/125,112,145.0
1401,C4,164.0,99/125,112,145.0
1402,G4,164.0,99/125,112,145.0
1403,E2,165.0,99/125,112,145.0
1404,E4,165.0,99/125,112,145.0
1405,B-3,165.0,99/125,112,145.0
1406,C#4,165.0,99/125,112,145.0
1407,G3,165.0,99/125,112,145.0
1408,B-3,165.0,99/125,112,145.0
1409,E4,165.0,99/125,112,145.0
1410,G3,165.0,99/125,112,145.0
1411,C#4,165.0,99/125,112,145.0
1412,F#2,165.0,0.25,94,145.0
1413,E-2,165.0,0.25,94,145.0
1414,E2,166.0,99/125,112,145.0
1415,C2,166.0,0.25,102,145.0
1416,F#2,166.0,0.5,87,145.0
1417,G3,166.0,99/125,112,145.0
1418,C#4,166.0,99/125,112,145.0
1419,E4,166.0,99/125,112,145.0
1420,B-3,166.0,99/125,112,145.0
1421,E4,166.0,99/125,112,145.0
1422,G3,166.0,99/125,112,145.0
1423,B-3,166.0,99/125,112,145.0
1424,C#4,166.0,99/125,112,145.0
1425,E2,167.0,99/125,112,145.0
1426,B-3,167.0,99/125,112,145.0
1427,C#4,167.0,99/125,112,145.0
1428,G3,167.0,99/125,112,145.0
1429,E4,167.0,99/125,112,145.0
1430,E4,167.0,99/125,112,145.0
1431,C#4,167.0,99/125,112,145.0
1432,G3,167.0,99/125,112,145.0
1433,B-3,167.0,99/125,112,145.0
1434,F#2,167.0,0.25,102,145.0
1435,E-2,167.0,0.25,102,145.0
1436,E-2,167.667,0.25,102,145.0
1437,F2,168.0,0.875,112,145.0
1438,F4,168.0,0.5,117,145.0
1439,C2,168.0,1.0,102,145.0
1440,F#2,168.0,0.5,87,145.0
1441,E-4,168.583,0.5,117,145.0
1442,D4,169.0,0.5,117,145.0
1443,G#3,169.0,99/125,112,145.0
1444,C4,169.0,99/125,112,145.0
1445,D4,169.0,99/125,112,145.0
1446,G4,169.0,99/125,112,145.0
1447,C4,169.0,99/125,112,145.0
1448,D4,169.0,99/125,112,145.0
1449,G#3,169.0,99/125,112,145.0
1450,G4,169.0,99/125,112,145.0
1451,F#2,169.0,0.25,94,145.0
1452,E-2,169.0,0.25,94,145.0
1453,F4,169.583,0.5,117,145.0
1454,B-1,170.0,0.875,112,145.0
1455,G#4,170.0,0.5,117,145.0
1456,C2,170.0,0.25,102,145.0
1457,F#2,170.0,0.5,87,145.0
1458,F4,170.583,0.5,117,145.0
1459,C5,171.0,0.5,117,145.0
1460,G#3,171.0,99/125,112,145.0
1461,D4,171.0,99/125,112,145.0
1462,C4,171.0,99/125,112,145.0
1463,G4,171.0,99/125,112,145.0
1464,G#3,171.0,99/125,112,145.0
1465,C4,171.0,99/125,112,145.0
1466,G4,171.0,99/125,112,145.0
1467,D4,171.0,99/125,112,145.0
1468,F#2,171.0,0.25,102,145.0
1469,E-2,171.0,0.25,102,145.0
1470,B-4,171.583,417/1000,117,145.0
1471,E-2,171.667,0.25,102,145.0
1472,F2,172.0,99/125,112,145.0
1473,G#4,172.0,0.5,117,145.0
1474,B-4,172.0,83/1000,117,145.0
1475,C2,172.0,1.0,102,145.0
1476,F#2,172.0,0.5,87,145.0
1477,F4,172.583,0.5,117,145.0
1478,B-4,173.0,0.5,117,145.0
1479,C4,173.0,99/125,112,145.0
1480,G#3,173.0,99/125,112,145.0
1481,D4,173.0,99/125,112,145.0
1482,G4,173.0,99/125,112,145.0
1483,G4,173.0,99/125,112,145.0
1484,G#3,173.0,99/125,112,145.0
1485,C4,173.0,99/125,112,145.0
1486,D4,173.0,99/125,112,145.0
1487,F#2,173.0,0.25,94,145.0
1488,E-2,173.0,0.25,94,145.0
1489,D5,173.583,0.5,117,145.0
1490,B-1,174.0,99/125,112,145.0
1491,F5,174.0,0.875,117,145.0
1492,C2,174.0,0.25,102,145.0
1493,F#2,174.0,0.5,87,145.0
1494,G4,174.5,0.375,112,145.0
1495,G4,174.5,0.375,112,145.0
1496,D2,175.0,99/125,112,145.0
1497,G#3,175.0,0.875,112,145.0
1498,C4,175.0,0.875,112,145.0
1499,G4,175.0,0.875,112,145.0
1500,D4,175.0,0.875,112,145.0
1501,C4,175.0,0.875,112,145.0
1502,G#3,175.0,0.875,112,145.0
1503,G4,175.0,0.875,112,145.0
1504,D4,175.0,0.875,112,145.0
1505,F#2,175.0,0.25,102,145.0
1506,E-2,175.0,0.25,102,145.0
1507,E-2,175.667,0.25,102,145.0
1508,E-2,176.0,99/125,112,145.0
1509,G4,176.0,0.5,117,145.0
1510,C2,176.0,1.0,102,145.0
1511,F#2,176.0,0.5,87,145.0
1512,F4,176.583,0.5,117,145.0
1513,E-4,177.0,0.5,117,145.0
1514,B-3,177.0,0.875,112,145.0
1515,G4,177.0,0.875,112,145.0
1516,E-4,177.0,0.875,112,145.0
1517,C4,177.0,0.875,112,145.0
1518,B-3,177.0,0.875,112,145.0
1519,G4,177.0,0.875,112,145.0
1520,E-4,177.0,0.875,112,145.0
1521,C4,177.0,0.875,112,145.0
1522,F#2,177.0,0.25,94,145.0
1523,E-2,177.0,0.25,94,145.0
1524,C4,177.583,0.5,117,145.0
1525,B-1,178.0,99/125,112,145.0
1526,E-4,178.0,0.875,117,145.0
1527,C2,178.0,0.25,102,145.0
1528,F#2,178.0,0.5,87,145.0
1529,G4,178.5,0.375,112,145.0
1530,G4,178.5,0.375,112,145.0
1531,C4,179.0,0.5,117,145.0
1532,G4,179.0,0.875,112,145.0
1533,C4,179.0,0.875,112,145.0
1534,E-4,179.0,0.875,112,145.0
1535,B-3,179.0,0.875,112,145.0
1536,G4,179.0,0.875,112,145.0
1537,C4,179.0,0.875,112,145.0
1538,E-4,179.0,0.875,112,145.0
1539,B-3,179.0,0.875,112,145.0
1540,F#2,179.0,0.25,102,145.0
1541,E-2,179.0,0.25,102,145.0
1542,C4,179.583,417/1000,117,145.0
1543,E-2,179.667,0.25,102,145.0
1544,E-2,180.0,99/125,112,145.0
1545,E-4,180.0,0.5,117,145.0
1546,C4,180.0,83/1000,117,145.0
1547,C2,180.0,1.0,102,145.0
1548,F#2,180.0,0.5,87,145.0
1549,E-4,180.583,0.5,117,145.0
1550,C4,181.0,0.5,117,145.0
1551,E-4,181.0,0.875,112,145.0
1552,B-3,181.0,0.875,112,145.0
1553,G4,181.0,0.875,112,145.0
1554,C4,181.0,0.875,112,145.0
1555,G4,181.0,0.875,112,145.0
1556,E-4,181.0,0.875,112,145.0
1557,C4,181.0,0.875,112,145.0
1558,B-3,181.0,0.875,112,145.0
1559,F#2,181.0,0.25,94,145.0
1560,E-2,181.0,0.25,94,145.0
1561,B-3,181.583,2.375,117,145.0
1562,B-1,182.0,99/125,112,145.0
1563,C2,182.0,0.25,102,145.0
1564,F#2,182.0,0.5,87,145.0
1565,E2,183.0,99/125,112,145.0
1566,F#2,183.0,0.25,102,145.0
1567,E-2,183.0,0.25,102,145.0
1568,E-2,183.667,0.25,102,145.0
1569,F2,184.0,99/125,112,145.0
1570,C2,184.0,1.0,102,145.0
1571,F#2,184.0,0.5,87,145.0
1572,D4,185.0,0.5,117,145.0
1573,G4,185.0,0.875,112,145.0
1574,G#3,185.0,0.875,112,145.0
1575,D4,185.0,0.875,112,145.0
1576,C4,185.0,0.875,112,145.0
1577,D4,185.0,0.875,112,145.0
1578,G#3,185.0,0.875,112,145.0
1579,G4,185.0,0.875,112,145.0
1580,C4,185.0,0.875,112,145.0
1581,F#2,185.0,0.25,94,145.0
1582,E-2,185.0,0.25,94,145.0
1583,G#3,185.5,0.5,117,145.0
1584,B-1,186.0,99/125,112,145.0
1585,C4,186.0,0.875,117,145.0
1586,C2,186.0,0.25,102,145.0
1587,F#2,186.0,0.5,87,145.0
1588,D3,187.0,0.875,117,145.0
1589,G#3,187.0,0.875,112,145.0
1590,C4,187.0,0.875,112,145.0
1591,G4,187.0,0.875,112,145.0
1592,D4,187.0,0.875,112,145.0
1593,G4,187.0,0.875,112,145.0
1594,D4,187.0,0.875,112,145.0
1595,C4,187.0,0.875,112,145.0
1596,G#3,187.0,0.875,112,145.0
1597,F#2,187.0,0.25,102,145.0
1598,E-2,187.0,0.25,102,145.0
1599,E-2,187.667,0.25,102,145.0
1600,F2,188.0,99/125,112,145.0
1601,G#3,188.0,0.875,117,145.0
1602,C2,188.0,1.0,102,145.0
1603,F#2,188.0,0.5,87,145.0
1604,F3,189.0,0.5,117,145.0
1605,G4,189.0,0.875,112,145.0
1606,G#3,189.0,0.875,112,145.0
1607,D4,189.0,0.875,112,145.0
1608,C4,189.0,0.875,112,145.0
1609,G4,189.0,0.875,112,145.0
1610,D4,189.0,0.875,112,145.0
1611,G#3,189.0,0.875,112,145.0
1612,C4,189.0,0.875,112,145.0
1613,F#2,189.0,0.25,94,145.0
1614,E-2,189.0,0.25,94,145.0
1615,C4,189.5,0.875,117,145.0
1616,B-1,190.0,99/125,112,145.0
1617,C2,190.0,0.25,102,145.0
1618,F#2,190.0,0.5,87,145.0
1619,G4,190.5,0.375,112,145.0
1620,G4,190.5,0.375,112,145.0
1621,B-3,190.5,1.375,117,145.0
1622,D2,191.0,99/125,112,145.0
1623,G#3,191.0,0.875,112,145.0
1624,C4,191.0,0.875,112,145.0
1625,D4,191.0,0.875,112,145.0
1626,G4,191.0,0.875,112,145.0
1627,G#3,191.0,0.875,112,145.0
1628,D4,191.0,0.875,112,145.0
1629,C4,191.0,0.875,112,145.0
1630,G4,191.0,0.875,112,145.0
1631,F#2,191.0,0.25,102,145.0
1632,E-2,191.0,0.25,102,145.0
1633,E-2,191.667,0.25,102,145.0
1634,E-2,192.0,99/125,112,145.0
1635,C2,192.0,1.0,102,145.0
1636,F#2,192.0,0.5,87,145.0
1637,E-4,192.0,0.875,112,145.0
1638,B-3,192.0,0.875,112,145.0
1639,G4,192.0,0.875,112,145.0
1640,E-4,192.0,0.875,112,145.0
1641,B-3,192.0,0.875,112,145.0
1642,G4,192.0,0.875,112,145.0
1643,B-2,192.583,0.5,117,145.0
1644,E-3,193.0,0.5,117,145.0
1645,F#2,193.0,0.25,94,145.0
1646,E-2,193.0,0.25,94,145.0
1647,F3,193.583,0.5,117,145.0
1648,G3,194.0,0.5,117,145.0
1649,C2,194.0,0.25,102,145.0
1650,F#2,194.0,0.5,87,145.0
1651,G#3,194.583,0.5,117,145.0
1652,B-3,195.0,0.5,117,145.0
1653,F#2,195.0,0.25,102,145.0
1654,E-2,195.0,0.25,102,145.0
1655,B3,195.583,417/1000,117,145.0
1656,E-2,195.667,0.25,102,145.0
1657,C4,196.0,0.5,117,145.0
1658,B3,196.0,83/1000,117,145.0
1659,C2,196.0,1.0,102,145.0
1660,F#2,196.0,0.5,87,145.0
1661,D4,196.583,0.5,117,145.0
1662,E-4,197.0,0.5,117,145.0
1663,F#2,197.0,0.25,94,145.0
1664,E-2,197.0,0.25,94,145.0
1665,F4,197.583,0.5,117,145.0
1666,G4,198.0,0.5,117,145.0
1667,C2,198.0,0.25,102,145.0
1668,F#2,198.0,0.5,87,145.0
1669,B-4,198.583,1.375,117,145.0
1670,E2,199.0,99/125,112,145.0
1671,F#2,199.0,0.25,102,145.0
1672,E-2,199.0,0.25,102,145.0
1673,E-2,199.667,0.25,102,145.0
1674,F2,200.0,99/125,112,145.0
1675,C2,200.0,1.0,102,145.0
1676,F#2,200.0,0.5,87,145.0
1677,C4,200.0,0.25,117,145.0
1678,C5,200.0,0.25,117,145.0
1679,B-3,200.25,0.25,117,145.0
1680,B-4,200.25,0.25,117,145.0
1681,C4,200.5,3.375,117,145.0
1682,C5,200.5,3.375,117,145.0
1683,G#3,201.0,0.875,112,145.0
1684,G4,201.0,0.875,112,145.0
1685,D4,201.0,0.875,112,145.0
1686,C4,201.0,0.875,112,145.0
1687,G#3,201.0,0.875,112,145.0
1688,D4,201.0,0.875,112,145.0
1689,G4,201.0,0.875,112,145.0
1690,C4,201.0,0.875,112,145.0
1691,F#2,201.0,0.25,94,145.0
1692,E-2,201.0,0.25,94,145.0
1693,B-1,202.0,99/125,112,145.0
1694,C2,202.0,0.25,102,145.0
1695,F#2,202.0,0.5,87,145.0
1696,G#3,203.0,0.875,112,145.0
1697,G4,203.0,0.875,112,145.0
1698,D4,203.0,0.875,112,145.0
1699,C4,203.0,0.875,112,145.0
1700,G4,203.0,0.875,112,145.0
1701,D4,203.0,0.875,112,145.0
1702,C4,203.0,0.875,112,145.0
1703,G#3,203.0,0.875,112,145.0
1704,F#2,203.0,0.25,102,145.0
1705,E-2,203.0,0.25,102,145.0
1706,E-2,203.667,0.25,102,145.0
1707,F2,204.0,99/125,112,145.0
1708,C2,204.0,1.0,102,145.0
1709,F#2,204.0,0.5,87,145.0
1710,G4,204.5,0.375,112,145.0
1711,G4,204.5,0.375,112,145.0
1712,G4,205.0,0.875,112,145.0
1713,G#3,205.0,0.875,112,145.0
1714,D4,205.0,0.875,112,145.0
1715,C4,205.0,0.875,112,145.0
1716,G#3,205.0,0.875,112,145.0
1717,D4,205.0,0.875,112,145.0
1718,G4,205.0,0.875,112,145.0
1719,C4,205.0,0.875,112,145.0
1720,F#2,205.0,0.25,94,145.0
1721,E-2,205.0,0.25,94,145.0
1722,B-1,206.0,99/125,112,145.0
1723,C2,206.0,0.25,102,145.0
1724,F#2,206.0,0.5,87,145.0
1725,G3,206.5,0.25,117,145.0
1726,G4,206.5,0.25,117,145.0
1727,F3,206.75,0.25,117,145.0
1728,F4,206.75,0.25,117,145.0
1729,D2,207.0,99/125,112,145.0
1730,G4,207.0,0.875,112,145.0
1731,C4,207.0,0.875,112,145.0
1732,G#3,207.0,0.875,112,145.0
1733,D4,207.0,0.875,112,145.0
1734,C4,207.0,0.875,112,145.0
1735,G#3,207.0,0.875,112,145.0
1736,G4,207.0,0.875,112,145.0
1737,D4,207.0,0.875,112,145.0
1738,G4,207.0,1.0,117,145.0
1739,G3,207.0,1.0,117,145.0
1740,F#2,207.0,0.25,102,145.0
1741,E-2,207.0,0.25,102,145.0
1742,E-2,207.667,0.25,102,145.0
1743,E-2,208.0,99/125,112,145.0
1744,C2,208.0,1.0,102,145.0
1745,F#2,208.0,0.5,87,145.0
1746,G4,208.0,3.875,117,145.0
1747,G3,208.0,3.875,117,145.0
1748,C4,209.0,0.875,112,145.0
1749,G4,209.0,0.875,112,145.0
1750,B-3,209.0,0.875,112,145.0
1751,E-4,209.0,0.875,112,145.0
1752,B-3,209.0,0.875,112,145.0
1753,C4,209.0,0.875,112,145.0
1754,G4,209.0,0.875,112,145.0
1755,E-4,209.0,0.875,112,145.0
1756,F#2,209.0,0.25,94,145.0
1757,E-2,209.0,0.25,94,145.0
1758,B-1,210.0,99/125,112,145.0
1759,C2,210.0,0.25,102,145.0
1760,F#2,210.0,0.5,87,145.0
1761,E-4,211.0,0.875,112,145.0
1762,G4,211.0,0.875,112,145.0
1763,C4,211.0,0.875,112,145.0
1764,B-3,211.0,0.875,112,145.0
1765,G4,211.0,0.875,112,145.0
1766,E-4,211.0,0.875,112,145.0
1767,B-3,211.0,0.875,112,145.0
1768,C4,211.0,0.875,112,145.0
1769,F#2,211.0,0.25,102,145.0
1770,E-2,211.0,0.25,102,145.0
1771,E-2,211.667,0.25,102,145.0
1772,E-2,212.0,99/125,112,145.0
1773,F4,212.0,0.375,117,145.0
1774,C2,212.0,1.0,102,145.0
1775,F#2,212.0,0.5,87,145.0
1776,G4,212.5,0.375,112,145.0
1777,G4,212.5,0.375,112,145.0
1778,G4,212.5,0.375,117,145.0
1779,F4,213.0,0.875,117,145.0
1780,B-3,213.0,0.875,112,145.0
1781,E-4,213.0,0.875,112,145.0
1782,C4,213.0,0.875,112,145.0
1783,G4,213.0,0.875,112,145.0
1784,E-4,213.0,0.875,112,145.0
1785,B-3,213.0,0.875,112,145.0
1786,G4,213.0,0.875,112,145.0
1787,C4,213.0,0.875,112,145.0
1788,F#2,213.0,0.25,94,145.0
1789,E-2,213.0,0.25,94,145.0
1790,B-1,214.0,99/125,112,145.0
1791,F4,214.0,0.125,117,145.0
1792,C2,214.0,0.25,102,145.0
1793,F#2,214.0,0.5,87,145.0
1794,G4,214.167,0.125,117,145.0
1795,F4,214.333,0.125,117,145.0
1796,E-4,214.5,0.875,117,145.0
1797,G1,215.0,99/125,112,145.0
1798,G4,215.0,0.875,112,145.0
1799,E-4,215.0,0.875,112,145.0
1800,B-3,215.0,0.875,112,145.0
1801,C4,215.0,0.875,112,145.0
1802,B-3,215.0,0.875,112,145.0
1803,G4,215.0,0.875,112,145.0
1804,C4,215.0,0.875,112,145.0
1805,E-4,215.0,0.875,112,145.0
1806,F#2,215.0,0.25,102,145.0
1807,E-2,215.0,0.25,102,145.0
1808,B3,215.5,0.375,117,145.0
1809,E-2,215.667,0.25,102,145.0
1810,G#1,216.0,99/125,112,145.0
1811,C4,216.0,583/1000,117,145.0
1812,C2,216.0,1.0,102,145.0
1813,F#2,216.0,0.5,87,145.0
1814,C4,216.583,0.375,117,145.0
1815,E-4,217.0,0.875,117,145.0
1816,G#4,217.0,0.875,112,145.0
1817,E-4,217.0,0.875,112,145.0
1818,C4,217.0,0.875,112,145.0
1819,E-4,217.0,0.875,112,145.0
1820,G#4,217.0,0.875,112,145.0
1821,C4,217.0,0.875,112,145.0
1822,F#2,217.0,0.25,94,145.0
1823,E-2,217.0,0.25,94,145.0
1824,A1,218.0,99/125,112,145.0
1825,F4,218.0,0.875,117,145.0
1826,C2,218.0,0.25,102,145.0
1827,F#2,218.0,0.5,87,145.0
1828,E-4,219.0,0.875,117,145.0
1829,A4,219.0,0.875,112,145.0
1830,E-4,219.0,0.875,112,145.0
1831,C4,219.0,0.875,112,145.0
1832,F#4,219.0,0.875,112,145.0
1833,A4,219.0,0.875,112,145.0
1834,C4,219.0,0.875,112,145.0
1835,F#4,219.0,0.875,112,145.0
1836,E-4,219.0,0.875,112,145.0
1837,F#2,219.0,0.25,102,145.0
1838,E-2,219.0,0.25,102,145.0
1839,E-2,219.667,0.25,102,145.0
1840,B-1,220.0,99/125,112,145.0
1841,G4,220.0,583/1000,117,145.0
1842,C2,220.0,1.0,102,145.0
1843,F#2,220.0,0.5,87,145.0
1844,F4,220.583,0.375,117,145.0
1845,E-4,221.0,583/1000,117,145.0
1846,B-4,221.0,0.875,112,145.0
1847,E-4,221.0,0.875,112,145.0
1848,G4,221.0,0.875,112,145.0
1849,B-4,221.0,0.875,112,145.0
1850,E-4,221.0,0.875,112,145.0
1851,G4,221.0,0.875,112,145.0
1852,F#2,221.0,0.25,94,145.0
1853,E-2,221.0,0.25,94,145.0
1854,C4,221.583,0.375,117,145.0
1855,C2,222.0,99/125,112,145.0
1856,E-4,222.0,0.875,117,145.0
1857,C2,222.0,0.25,102,145.0
1858,F#2,222.0,0.5,87,145.0
1859,C4,223.0,0.875,117,145.0
1860,E4,223.0,0.875,112,145.0
1861,C5,223.0,0.875,112,145.0
1862,B-4,223.0,0.875,112,145.0
1863,G4,223.0,0.875,112,145.0
1864,G4,223.0,0.875,112,145.0
1865,C5,223.0,0.875,112,145.0
1866,E4,223.0,0.875,112,145.0
1867,B-4,223.0,0.875,112,145.0
1868,F#2,223.0,0.25,102,145.0
1869,E-2,223.0,0.25,102,145.0
1870,E-2,223.667,0.25,102,145.0
1871,F2,224.0,99/125,112,145.0
1872,C2,224.0,1.0,102,145.0
1873,F#2,224.0,0.5,87,145.0
1874,E-4,225.0,583/1000,117,145.0
1875,E-4,225.0,0.875,112,145.0
1876,G#4,225.0,0.875,112,145.0
1877,C4,225.0,0.875,112,145.0
1878,E-4,225.0,0.875,112,145.0
1879,G#4,225.0,0.875,112,145.0
1880,C4,225.0,0.875,112,145.0
1881,F#2,225.0,0.25,94,145.0
1882,E-2,225.0,0.25,94,145.0
1883,C4,225.583,0.375,117,145.0
1884,B-1,226.0,99/125,112,145.0
1885,D4,226.0,0.875,117,145.0
1886,C2,226.0,0.25,102,145.0
1887,F#2,226.0,0.5,87,145.0
1888,B-3,227.0,0.875,117,145.0
1889,B-3,227.0,0.875,112,145.0
1890,D4,227.0,0.875,112,145.0
1891,F4,227.0,0.875,112,145.0
1892,B-3,227.0,0.875,112,145.0
1893,D4,227.0,0.875,112,145.0
1894,F4,227.0,0.875,112,145.0
1895,F#2,227.0,0.25,102,145.0
1896,E-2,227.0,0.25,102,145.0
1897,E-2,227.667,0.25,102,145.0
1898,E-2,228.0,0.375,112,145.0
1899,G4,228.0,0.375,112,145.0
1900,G4,228.0,0.375,112,145.0
1901,E-4,228.0,0.375,117,145.0
1902,C2,228.0,1.0,102,145.0
1903,F#2,228.0,0.5,87,145.0
1904,D2,228.5,0.375,112,145.0
1905,F#4,228.5,0.375,112,145.0
1906,F#4,228.5,0.375,112,145.0
1907,D4,228.5,0.375,117,145.0
1908,C#2,229.0,0.375,112,145.0
1909,F4,229.0,0.375,112,145.0
1910,F4,229.0,0.375,112,145.0
1911,E-4,229.0,0.375,117,145.0
1912,F#2,229.0,0.25,94,145.0
1913,E-2,229.0,0.25,94,145.0
1914,C2,229.5,2.375,112,145.0
1915,E4,229.5,1.375,112,145.0
1916,E4,229.5,1.375,112,145.0
1917,E4,229.5,2.375,117,145.0
1918,C2,230.0,0.25,102,145.0
1919,F#2,230.0,0.5,87,145.0
1920,C5,231.0,0.875,112,145.0
1921,B-4,231.0,0.875,112,145.0
1922,E4,231.0,0.875,112,145.0
1923,G4,231.0,0.875,112,145.0
1924,B-4,231.0,0.875,112,145.0
1925,G4,231.0,0.875,112,145.0
1926,C5,231.0,0.875,112,145.0
1927,E4,231.0,0.875,112,145.0
1928,F#2,231.0,0.25,102,145.0
1929,E-2,231.0,0.25,102,145.0
1930,E-2,231.667,0.25,102,145.0
1931,F2,232.0,99/125,112,145.0
1932,E-4,232.0,0.375,117,145.0
1933,C2,232.0,1.0,102,145.0
1934,F#2,232.0,0.5,87,145.0
1935,F4,232.5,0.375,117,145.0
1936,F#4,233.0,0.375,117,145.0
1937,E-4,233.0,0.875,112,145.0
1938,G#4,233.0,0.875,112,145.0
1939,C4,233.0,0.875,112,145.0
1940,G#4,233.0,0.875,112,145.0
1941,C4,233.0,0.875,112,145.0
1942,E-4,233.0,0.875,112,145.0
1943,F#2,233.0,0.25,94,145.0
1944,E-2,233.0,0.25,94,145.0
1945,G4,233.5,0.375,117,145.0
1946,B-1,234.0,99/125,112,145.0
1947,B-3,234.0,0.375,117,145.0
1948,C2,234.0,0.25,102,145.0
1949,F#2,234.0,0.5,87,145.0
1950,C4,234.5,0.875,117,145.0
1951,B-3,235.0,0.875,112,145.0
1952,F4,235.0,0.875,112,145.0
1953,D4,235.0,0.875,112,145.0
1954,B-3,235.0,0.875,112,145.0
1955,D4,235.0,0.875,112,145.0
1956,F4,235.0,0.875,112,145.0
1957,F#2,235.0,0.25,102,145.0
1958,E-2,235.0,0.25,102,145.0
1959,F#3,235.5,0.375,117,145.0
1960,E-2,235.667,0.25,102,145.0
1961,E-2,236.0,99/125,112,145.0
1962,G3,236.0,1.875,117,145.0
1963,C2,236.0,1.0,102,145.0
1964,F#2,236.0,0.5,87,145.0
1965,E-4,236.0,99/125,112,145.0
1966,B-3,236.0,99/125,112,145.0
1967,G4,236.0,99/125,112,145.0
1968,G4,236.0,99/125,112,145.0
1969,B-3,236.0,99/125,112,145.0
1970,E-4,236.0,99/125,112,145.0
1971,F2,237.0,99/125,112,145.0
1972,F4,237.0,99/125,112,145.0
1973,G#4,237.0,99/125,112,145.0
1974,D4,237.0,99/125,112,145.0
1975,B3,237.0,99/125,112,145.0
1976,F4,237.0,99/125,112,145.0
1977,D4,237.0,99/125,112,145.0
1978,G#4,237.0,99/125,112,145.0
1979,B3,237.0,99/125,112,145.0
1980,F#2,237.0,0.25,94,145.0
1981,E-2,237.0,0.25,94,145.0
1982,E-2,238.0,99/125,112,145.0
1983,E-3,238.0,1.875,117,145.0
1984,C2,238.0,0.25,102,145.0
1985,F#2,238.0,0.5,87,145.0
1986,E-4,238.0,99/125,112,145.0
1987,B3,238.0,99/125,112,145.0
1988,G4,238.0,99/125,112,145.0
1989,E-4,238.0,99/125,112,145.0
1990,G4,238.0,99/125,112,145.0
1991,B3,238.0,99/125,112,145.0
1992,D2,239.0,99/125,112,145.0
1993,B3,239.0,99/125,112,145.0
1994,F4,239.0,99/125,112,145.0
1995,G4,239.0,99/125,112,145.0
1996,D4,239.0,99/125,112,145.0
1997,G4,239.0,99/125,112,145.0
1998,F4,239.0,99/125,112,145.0
1999,B3,239.0,99/125,112,145.0
2000,D4,239.0,99/125,112,145.0
2001,F#2,239.0,0.25,102,145.0
2002,E-2,239.0,0.25,102,145.0
2003,E-2,239.667,0.25,102,145.0
2004,C2,240.0,224/125,112,145.0
2005,G4,240.0,667/1000,117,145.0
2006,C4,240.0,1.5,112,145.0
2007,C3,240.0,1.5,112,145.0
2008,C2,240.0,1.0,102,145.0
2009,F#2,240.0,0.5,87,145.0
2010,G4,240.667,1.875,117,145.0
2011,E-4,241.0,0.875,112,145.0
2012,G4,241.0,0.875,112,145.0
2013,C4,241.0,0.875,112,145.0
2014,G4,241.0,0.875,112,145.0
2015,E-4,241.0,0.875,112,145.0
2016,C4,241.0,0.875,112,145.0
2017,F#2,241.0,0.25,94,145.0
2018,E-2,241.0,0.25,94,145.0
2019,C4,241.5,167/1000,112,145.0
2020,C3,241.5,167/1000,112,145.0
2021,C#4,241.667,167/1000,112,145.0
2022,C#3,241.667,167/1000,112,145.0
2023,D4,241.833,167/1000,112,145.0
2024,D3,241.833,167/1000,112,145.0
2025,E-2,242.0,224/125,112,145.0
2026,E-4,242.0,2.0,112,145.0
2027,E-3,242.0,2.0,112,145.0
2028,C2,242.0,0.25,102,145.0
2029,F#2,242.0,0.5,87,145.0
2030,C5,243.0,0.5,117,145.0
2031,G4,243.0,0.875,112,145.0
2032,E-4,243.0,0.875,112,145.0
2033,C4,243.0,0.875,112,145.0
2034,G4,243.0,0.875,112,145.0
2035,E-4,243.0,0.875,112,145.0
2036,C4,243.0,0.875,112,145.0
2037,F#2,243.0,0.25,102,145.0
2038,E-2,243.0,0.25,102,145.0
2039,C5,243.667,333/1000,117,145.0
2040,E-2,243.667,0.25,102,145.0
2041,D2,244.0,224/125,112,145.0
2042,D4,244.0,1.5,112,145.0
2043,D3,244.0,1.5,112,145.0
2044,C2,244.0,1.0,102,145.0
2045,F#2,244.0,0.5,87,145.0
2046,G#4,245.0,0.875,112,145.0
2047,F4,245.0,0.875,112,145.0
2048,D4,245.0,0.875,112,145.0
2049,G#4,245.0,0.875,112,145.0
2050,F4,245.0,0.875,112,145.0
2051,D4,245.0,0.875,112,145.0
2052,F#2,245.0,0.25,94,145.0
2053,E-2,245.0,0.25,94,145.0
2054,D4,245.5,167/1000,112,145.0
2055,D3,245.5,167/1000,112,145.0
2056,E-4,245.667,167/1000,112,145.0
2057,E-3,245.667,167/1000,112,145.0
2058,E4,245.833,167/1000,112,145.0
2059,E3,245.833,167/1000,112,145.0
2060,F2,246.0,224/125,112,145.0
2061,F4,246.0,2.0,112,145.0
2062,F3,246.0,2.0,112,145.0
2063,C2,246.0,0.25,102,145.0
2064,F#2,246.0,0.5,87,145.0
2065,G#4,246.5,0.375,112,145.0
2066,G#4,246.5,0.375,112,145.0
2067,C4,246.667,0.625,117,145.0
2068,G#4,247.0,0.875,112,145.0
2069,F4,247.0,0.875,112,145.0
2070,D4,247.0,0.875,112,145.0
2071,F4,247.0,0.875,112,145.0
2072,G#4,247.0,0.875,112,145.0
2073,D4,247.0,0.875,112,145.0
2074,F#2,247.0,0.25,102,145.0
2075,E-2,247.0,0.25,102,145.0
2076,E-4,247.333,0.625,117,145.0
2077,E-2,247.667,0.25,102,145.0
2078,E-2,248.0,224/125,112,145.0
2079,G4,248.0,667/1000,117,145.0
2080,E-4,248.0,1.5,112,145.0
2081,E-3,248.0,1.5,112,145.0
2082,C2,248.0,1.0,102,145.0
2083,F#2,248.0,0.5,87,145.0
2084,G4,248.667,833/1000,117,145.0
2085,G4,249.0,0.875,112,145.0
2086,C4,249.0,0.875,112,145.0
2087,E-4,249.0,0.875,112,145.0
2088,G4,249.0,0.875,112,145.0
2089,E-4,249.0,0.875,112,145.0
2090,C4,249.0,0.875,112,145.0
2091,F#2,249.0,0.25,94,145.0
2092,E-2,249.0,0.25,94,145.0
2093,G4,249.5,0.875,117,145.0
2094,E-4,249.5,167/1000,112,145.0
2095,E-3,249.5,167/1000,112,145.0
2096,F4,249.667,167/1000,112,145.0
2097,F3,249.667,167/1000,112,145.0
2098,F#4,249.833,167/1000,112,145.0
2099,F#3,249.833,167/1000,112,145.0
2100,G2,250.0,224/125,112,145.0
2101,G4,250.0,2.0,112,145.0
2102,G3,250.0,2.0,112,145.0
2103,C2,250.0,0.25,102,145.0
2104,F#2,250.0,0.5,87,145.0
2105,F4,250.5,0.5,117,145.0
2106,E-4,251.0,0.5,117,145.0
2107,C4,251.0,0.875,112,145.0
2108,E-4,251.0,0.875,112,145.0
2109,G4,251.0,0.875,112,145.0
2110,C4,251.0,0.875,112,145.0
2111,G4,251.0,0.875,112,145.0
2112,E-4,251.0,0.875,112,145.0
2113,F#2,251.0,0.25,102,145.0
2114,E-2,251.0,0.25,102,145.0
2115,C4,251.5,0.5,117,145.0
2116,E-2,251.667,0.25,102,145.0
2117,F2,252.0,224/125,112,145.0
2118,C4,252.0,1.875,117,145.0
2119,F4,252.0,1.5,112,145.0
2120,F3,252.0,1.5,112,145.0
2121,C2,252.0,1.0,102,145.0
2122,F#2,252.0,0.5,87,145.0
2123,G#4,253.0,0.875,112,145.0
2124,F4,253.0,0.875,112,145.0
2125,D4,253.0,0.875,112,145.0
2126,F4,253.0,0.875,112,145.0
2127,G#4,253.0,0.875,112,145.0
2128,D4,253.0,0.875,112,145.0
2129,F#2,253.0,0.25,94,145.0
2130,E-2,253.0,0.25,94,145.0
2131,F4,253.5,167/1000,112,145.0
2132,F3,253.5,167/1000,112,145.0
2133,F#4,253.667,167/1000,112,145.0
2134,F#3,253.667,167/1000,112,145.0
2135,G4,253.833,167/1000,112,145.0
2136,G3,253.833,167/1000,112,145.0
2137,G#2,254.0,224/125,112,145.0
2138,G#4,254.0,2.0,112,145.0
2139,G#3,254.0,2.0,112,145.0
2140,C2,254.0,0.25,102,145.0
2141,F#2,254.0,0.5,87,145.0
2142,G#4,254.5,0.375,112,145.0
2143,E-5,254.5,167/1000,117,145.0
2144,G#4,254.5,0.375,112,145.0
2145,E-5,254.75,167/1000,117,145.0
2146,E-5,255.0,167/1000,117,145.0
2147,G#4,255.0,0.875,112,145.0
2148,D4,255.0,0.875,112,145.0
2149,F4,255.0,0.875,112,145.0
2150,G#4,255.0,0.875,112,145.0
2151,F4,255.0,0.875,112,145.0
2152,D4,255.0,0.875,112,145.0
2153,F#2,255.0,0.25,102,145.0
2154,E-2,255.0,0.25,102,145.0
2155,E-5,255.25,167/1000,117,145.0
2156,E-5,255.5,167/1000,117,145.0
2157,E-2,255.667,0.25,102,145.0
2158,E-5,255.75,167/1000,117,145.0
2159,G2,256.0,224/125,112,145.0
2160,E-5,256.0,0.625,117,145.0
2161,G4,256.0,2.0,112,145.0
2162,G3,256.0,2.0,112,145.0
2163,C2,256.0,1.0,102,145.0
2164,F#2,256.0,0.5,87,145.0
2165,C5,256.667,0.625,117,145.0
2166,E-4,257.0,0.875,112,145.0
2167,G4,257.0,0.875,112,145.0
2168,C4,257.0,0.875,112,145.0
2169,C4,257.0,0.875,112,145.0
2170,G4,257.0,0.875,112,145.0
2171,E-4,257.0,0.875,112,145.0
2172,F#2,257.0,0.25,94,145.0
2173,E-2,257.0,0.25,94,145.0
2174,C5,257.333,0.625,117,145.0
2175,E-2,258.0,224/125,112,145.0
2176,C5,258.0,0.5,117,145.0
2177,E-4,258.0,2.0,112,145.0
2178,E-3,258.0,2.0,112,145.0
2179,C2,258.0,0.25,102,145.0
2180,F#2,258.0,0.5,87,145.0
2181,G4,258.5,0.5,117,145.0
2182,G#4,259.0,0.5,117,145.0
2183,G4,259.0,0.875,112,145.0
2184,C4,259.0,0.875,112,145.0
2185,E-4,259.0,0.875,112,145.0
2186,C4,259.0,0.875,112,145.0
2187,E-4,259.0,0.875,112,145.0
2188,G4,259.0,0.875,112,145.0
2189,F#2,259.0,0.25,102,145.0
2190,E-2,259.0,0.25,102,145.0
2191,F4,259.5,0.5,117,145.0
2192,E-2,259.667,0.25,102,145.0
2193,F2,260.0,224/125,112,145.0
2194,G4,260.0,0.5,117,145.0
2195,F4,260.0,1.5,112,145.0
2196,F3,260.0,1.5,112,145.0
2197,C2,260.0,1.0,102,145.0
2198,F#2,260.0,0.5,87,145.0
2199,G#4,260.5,0.5,117,145.0
2200,G4,261.0,0.5,117,145.0
2201,G#4,261.0,0.875,112,145.0
2202,D4,261.0,0.875,112,145.0
2203,F4,261.0,0.875,112,145.0
2204,D4,261.0,0.875,112,145.0
2205,G#4,261.0,0.875,112,145.0
2206,F4,261.0,0.875,112,145.0
2207,F#2,261.0,0.25,94,145.0
2208,E-2,261.0,0.25,94,145.0
2209,F4,261.5,0.5,117,145.0
2210,F4,261.5,167/1000,112,145.0
2211,F3,261.5,167/1000,112,145.0
2212,E4,261.667,167/1000,112,145.0
2213,E3,261.667,167/1000,112,145.0
2214,E-4,261.833,167/1000,112,145.0
2215,E-3,261.833,167/1000,112,145.0
2216,D2,262.0,224/125,112,145.0
2217,E-4,262.0,0.25,117,145.0
2218,D4,262.0,2.0,112,145.0
2219,D3,262.0,2.0,112,145.0
2220,C2,262.0,0.25,102,145.0
2221,F#2,262.0,0.5,87,145.0
2222,C4,262.25,0.25,117,145.0
2223,F4,262.5,0.875,117,145.0
2224,D4,262.5,0.375,112,145.0
2225,G#4,262.5,0.375,112,145.0
2226,F4,262.5,0.375,112,145.0
2227,G#4,262.5,0.375,112,145.0
2228,D4,262.5,0.375,112,145.0
2229,F4,262.5,0.375,112,145.0
2230,G#4,263.0,0.875,112,145.0
2231,F4,263.0,0.875,112,145.0
2232,D4,263.0,0.875,112,145.0
2233,G#4,263.0,0.875,112,145.0
2234,D4,263.0,0.875,112,145.0
2235,F4,263.0,0.875,112,145.0
2236,F#2,263.0,0.25,102,145.0
2237,E-2,263.0,0.25,102,145.0
2238,E-4,263.5,0.25,117,145.0
2239,E-2,263.667,0.25,102,145.0
2240,C4,263.75,0.25,117,145.0
2241,C2,264.0,0.375,112,145.0
2242,E-4,264.0,0.25,117,145.0
2243,C2,264.0,1.0,102,145.0
2244,F#2,264.0,0.5,87,145.0
2245,G4,264.0,0.375,112,145.0
2246,E-4,264.0,0.375,112,145.0
2247,C4,264.0,0.375,112,145.0
2248,G4,264.0,0.375,112,145.0
2249,E-4,264.0,0.375,112,145.0
2250,C4,264.0,0.375,112,145.0
2251,C4,264.25,0.25,117,145.0
2252,C4,264.5,3.375,117,145.0
2253,B1,265.0,1.875,112,145.0
2254,G4,265.0,1.875,112,145.0
2255,D4,265.0,1.875,112,145.0
2256,B3,265.0,1.875,112,145.0
2257,D4,265.0,1.875,112,145.0
2258,B3,265.0,1.875,112,145.0
2259,G4,265.0,1.875,112,145.0
2260,F#2,265.0,0.25,94,145.0
2261,E-2,265.0,0.25,94,145.0
2262,C2,266.0,0.25,102,145.0
2263,F#2,266.0,0.5,87,145.0
2264,C2,267.0,0.875,112,145.0
2265,C4,267.0,0.875,112,145.0
2266,E-4,267.0,0.875,112,145.0
2267,G4,267.0,0.875,112,145.0
2268,E-4,267.0,0.875,112,145.0
2269,G4,267.0,0.875,112,145.0
2270,C4,267.0,0.875,112,145.0
2271,F#2,267.0,0.25,102,145.0
2272,E-2,267.0,0.25,102,145.0
2273,E-2,267.667,0.25,102,145.0
2274,C2,268.0,99/125,112,145.0
2275,C2,268.0,1.0,102,145.0
2276,F#2,268.0,0.5,87,145.0
2277,C4,268.0,99/125,112,145.0
2278,E-4,268.0,99/125,112,145.0
2279,G4,268.0,99/125,112,145.0
2280,C4,268.0,99/125,112,145.0
2281,E-4,268.0,99/125,112,145.0
2282,G4,268.0,99/125,112,145.0
2283,E2,269.0,99/125,112,145.0
2284,E4,269.0,99/125,112,145.0
2285,B-3,269.0,99/125,112,145.0
2286,C#4,269.0,99/125,112,145.0
2287,G3,269.0,99/125,112,145.0
2288,G3,269.0,99/125,112,145.0
2289,C#4,269.0,99/125,112,145.0
2290,E4,269.0,99/125,112,145.0
2291,B-3,269.0,99/125,112,145.0
2292,F#2,269.0,0.25,94,145.0
2293,E-2,269.0,0.25,94,145.0
2294,E2,270.0,99/125,112,145.0
2295,C2,270.0,0.25,102,145.0
2296,F#2,270.0,0.5,87,145.0
2297,G3,270.0,99/125,112,145.0
2298,C#4,270.0,99/125,112,145.0
2299,E4,270.0,99/125,112,145.0
2300,B-3,270.0,99/125,112,145.0
2301,B-3,270.0,99/125,112,145.0
2302,C#4,270.0,99/125,112,145.0
2303,G3,270.0,99/125,112,145.0
2304,E4,270.0,99/125,112,145.0
2305,E2,271.0,99/125,112,145.0
2306,B-3,271.0,99/125,112,145.0
2307,C#4,271.0,99/125,112,145.0
2308,G3,271.0,99/125,112,145.0
2309,E4,271.0,99/125,112,145.0
2310,C#4,271.0,99/125,112,145.0
2311,G3,271.0,99/125,112,145.0
2312,E4,271.0,99/125,112,145.0
2313,B-3,271.0,99/125,112,145.0
2314,F#2,271.0,0.25,102,145.0
2315,E-2,271.0,0.25,102,145.0
2316,E-2,271.667,0.25,102,145.0
2317,F2,272.0,0.875,112,145.0
2318,F4,272.0,0.5,117,145.0
2319,C2,272.0,1.0,102,145.0
2320,F#2,272.0,0.5,87,145.0
2321,E-4,272.583,0.5,117,145.0
2322,D4,273.0,0.5,117,145.0
2323,G#3,273.0,99/125,112,145.0
2324,C4,273.0,99/125,112,145.0
2325,D4,273.0,99/125,112,145.0
2326,G4,273.0,99/125,112,145.0
2327,G#3,273.0,99/125,112,145.0
2328,C4,273.0,99/125,112,145.0
2329,G4,273.0,99/125,112,145.0
2330,D4,273.0,99/125,112,145.0
2331,F#2,273.0,0.25,94,145.0
2332,E-2,273.0,0.25,94,145.0
2333,F4,273.583,0.5,117,145.0
2334,B-1,274.0,0.875,112,145.0
2335,G#4,274.0,0.5,117,145.0
2336,C2,274.0,0.25,102,145.0
2337,F#2,274.0,0.5,87,145.0
2338,F4,274.583,0.5,117,145.0
2339,C5,275.0,0.5,117,145.0
2340,G#3,275.0,99/125,112,145.0
2341,D4,275.0,99/125,112,145.0
2342,C4,275.0,99/125,112,145.0
2343,G4,275.0,99/125,112,145.0
2344,C4,275.0,99/125,112,145.0
2345,D4,275.0,99/125,112,145.0
2346,G#3,275.0,99/125,112,145.0
2347,G4,275.0,99/125,112,145.0
2348,F#2,275.0,0.25,102,145.0
2349,E-2,275.0,0.25,102,145.0
2350,B-4,275.583,417/1000,117,145.0
2351,E-2,275.667,0.25,102,145.0
2352,F2,276.0,99/125,112,145.0
2353,G#4,276.0,0.5,117,145.0
2354,B-4,276.0,83/1000,117,145.0
2355,C2,276.0,1.0,102,145.0
2356,F#2,276.0,0.5,87,145.0
2357,F4,276.583,0.5,117,145.0
2358,B-4,277.0,0.5,117,145.0
2359,C4,277.0,99/125,112,145.0
2360,G#3,277.0,99/125,112,145.0
2361,D4,277.0,99/125,112,145.0
2362,G4,277.0,99/125,112,145.0
2363,D4,277.0,99/125,112,145.0
2364,G4,277.0,99/125,112,145.0
2365,G#3,277.0,99/125,112,145.0
2366,C4,277.0,99/125,112,145.0
2367,F#2,277.0,0.25,94,145.0
2368,E-2,277.0,0.25,94,145.0
2369,D5,277.583,0.5,117,145.0
2370,B-1,278.0,99/125,112,145.0
2371,F5,278.0,0.875,117,145.0
2372,C2,278.0,0.25,102,145.0
2373,F#2,278.0,0.5,87,145.0
2374,G4,278.5,0.375,112,145.0
2375,G4,278.5,0.375,112,145.0
2376,D2,279.0,99/125,112,145.0
2377,G#3,279.0,0.875,112,145.0
2378,C4,279.0,0.875,112,145.0
2379,G4,279.0,0.875,112,145.0
2380,D4,279.0,0.875,112,145.0
2381,G4,279.0,0.875,112,145.0
2382,D4,279.0,0.875,112,145.0
2383,C4,279.0,0.875,112,145.0
2384,G#3,279.0,0.875,112,145.0
2385,F#2,279.0,0.25,102,145.0
2386,E-2,279.0,0.25,102,145.0
2387,E-2,279.667,0.25,102,145.0
2388,E-2,280.0,99/125,112,145.0
2389,G4,280.0,0.5,117,145.0
2390,C2,280.0,1.0,102,145.0
2391,F#2,280.0,0.5,87,145.0
2392,F4,280.583,0.5,117,145.0
2393,E-4,281.0,0.5,117,145.0
2394,B-3,281.0,0.875,112,145.0
2395,G4,281.0,0.875,112,145.0
2396,E-4,281.0,0.875,112,145.0
2397,C4,281.0,0.875,112,145.0
2398,B-3,281.0,0.875,112,145.0
2399,G4,281.0,0.875,112,145.0
2400,C4,281.0,0.875,112,145.0
2401,E-4,281.0,0.875,112,145.0
2402,F#2,281.0,0.25,94,145.0
2403,E-2,281.0,0.25,94,145.0
2404,C4,281.583,0.5,117,145.0
2405,B-1,282.0,99/125,112,145.0
2406,E-4,282.0,0.875,117,145.0
2407,C2,282.0,0.25,102,145.0
2408,F#2,282.0,0.5,87,145.0
2409,G4,282.5,0.375,112,145.0
2410,G4,282.5,0.375,112,145.0
2411,C4,283.0,0.5,117,145.0
2412,G4,283.0,0.875,112,145.0
2413,C4,283.0,0.875,112,145.0
2414,E-4,283.0,0.875,112,145.0
2415,B-3,283.0,0.875,112,145.0
2416,C4,283.0,0.875,112,145.0
2417,B-3,283.0,0.875,112,145.0
2418,E-4,283.0,0.875,112,145.0
2419,G4,283.0,0.875,112,145.0
2420,F#2,283.0,0.25,102,145.0
2421,E-2,283.0,0.25,102,145.0
2422,C4,283.583,417/1000,117,145.0
2423,E-2,283.667,0.25,102,145.0
2424,E-2,284.0,99/125,112,145.0
2425,E-4,284.0,0.5,117,145.0
2426,C4,284.0,83/1000,117,145.0
2427,C2,284.0,1.0,102,145.0
2428,F#2,284.0,0.5,87,145.0
2429,E-4,284.583,0.5,117,145.0
2430,C4,285.0,0.5,117,145.0
2431,E-4,285.0,0.875,112,145.0
2432,B-3,285.0,0.875,112,145.0
2433,G4,285.0,0.875,112,145.0
2434,C4,285.0,0.875,112,145.0
2435,B-3,285.0,0.875,112,145.0
2436,G4,285.0,0.875,112,145.0
2437,C4,285.0,0.875,112,145.0
2438,E-4,285.0,0.875,112,145.0
2439,F#2,285.0,0.25,94,145.0
2440,E-2,285.0,0.25,94,145.0
2441,B-3,285.583,2.375,117,145.0
2442,B-1,286.0,99/125,112,145.0
2443,C2,286.0,0.25,102,145.0
2444,F#2,286.0,0.5,87,145.0
2445,E2,287.0,99/125,112,145.0
2446,F#2,287.0,0.25,102,145.0
2447,E-2,287.0,0.25,102,145.0
2448,E-2,287.667,0.25,102,145.0
2449,F2,288.0,99/125,112,145.0
2450,C2,288.0,1.0,102,145.0
2451,F#2,288.0,0.5,87,145.0
2452,D4,289.0,0.5,117,145.0
2453,G4,289.0,0.875,112,145.0
2454,G#3,289.0,0.875,112,145.0
2455,D4,289.0,0.875,112,145.0
2456,C4,289.0,0.875,112,145.0
2457,G#3,289.0,0.875,112,145.0
2458,G4,289.0,0.875,112,145.0
2459,C4,289.0,0.875,112,145.0
2460,D4,289.0,0.875,112,145.0
2461,F#2,289.0,0.25,94,145.0
2462,E-2,289.0,0.25,94,145.0
2463,G#3,289.583,0.5,117,145.0
2464,B-1,290.0,99/125,112,145.0
2465,C4,290.0,0.875,117,145.0
2466,C2,290.0,0.25,102,145.0
2467,F#2,290.0,0.5,87,145.0
2468,D3,291.0,0.875,117,145.0
2469,G#3,291.0,0.875,112,145.0
2470,C4,291.0,0.875,112,145.0
2471,G4,291.0,0.875,112,145.0
2472,D4,291.0,0.875,112,145.0
2473,G#3,291.0,0.875,112,145.0
2474,G4,291.0,0.875,112,145.0
2475,C4,291.0,0.875,112,145.0
2476,D4,291.0,0.875,112,145.0
2477,F#2,291.0,0.25,102,145.0
2478,E-2,291.0,0.25,102,145.0
2479,E-2,291.667,0.25,102,145.0
2480,F2,292.0,99/125,112,145.0
2481,G#3,292.0,0.875,117,145.0
2482,C2,292.0,1.0,102,145.0
2483,F#2,292.0,0.5,87,145.0
2484,F3,293.0,0.5,117,145.0
2485,G4,293.0,0.875,112,145.0
2486,G#3,293.0,0.875,112,145.0
2487,D4,293.0,0.875,112,145.0
2488,C4,293.0,0.875,112,145.0
2489,C4,293.0,0.875,112,145.0
2490,G4,293.0,0.875,112,145.0
2491,D4,293.0,0.875,112,145.0
2492,G#3,293.0,0.875,112,145.0
2493,F#2,293.0,0.25,94,145.0
2494,E-2,293.0,0.25,94,145.0
2495,C4,293.583,0.875,117,145.0
2496,B-1,294.0,99/125,112,145.0
2497,C2,294.0,0.25,102,145.0
2498,F#2,294.0,0.5,87,145.0
2499,G4,294.5,0.375,112,145.0
2500,G4,294.5,0.375,112,145.0
2501,B-3,294.583,1.375,117,145.0
2502,D2,295.0,99/125,112,145.0
2503,G#3,295.0,0.875,112,145.0
2504,C4,295.0,0.875,112,145.0
2505,D4,295.0,0.875,112,145.0
2506,G4,295.0,0.875,112,145.0
2507,G4,295.0,0.875,112,145.0
2508,C4,295.0,0.875,112,145.0
2509,D4,295.0,0.875,112,145.0
2510,G#3,295.0,0.875,112,145.0
2511,F#2,295.0,0.25,102,145.0
2512,E-2,295.0,0.25,102,145.0
2513,E-2,295.667,0.25,102,145.0
2514,E-2,296.0,99/125,112,145.0
2515,C2,296.0,1.0,102,145.0
2516,F#2,296.0,0.5,87,145.0
2517,E-4,296.0,0.875,112,145.0
2518,B-3,296.0,0.875,112,145.0
2519,G4,296.0,0.875,112,145.0
2520,B-3,296.0,0.875,112,145.0
2521,G4,296.0,0.875,112,145.0
2522,E-4,296.0,0.875,112,145.0
2523,B-2,296.583,0.5,117,145.0
2524,E-3,297.0,0.5,117,145.0
2525,F#2,297.0,0.25,94,145.0
2526,E-2,297.0,0.25,94,145.0
2527,F3,297.583,0.5,117,145.0
2528,G3,298.0,0.5,117,145.0
2529,C2,298.0,0.25,102,145.0
2530,F#2,298.0,0.5,87,145.0
2531,G#3,298.583,0.5,117,145.0
2532,B-3,299.0,0.5,117,145.0
2533,F#2,299.0,0.25,102,145.0
2534,E-2,299.0,0.25,102,145.0
2535,B3,299.583,417/1000,117,145.0
2536,E-2,299.667,0.25,102,145.0
2537,C4,300.0,0.5,117,145.0
2538,B3,300.0,83/1000,117,145.0
2539,C2,300.0,1.0,102,145.0
2540,F#2,300.0,0.5,87,145.0
2541,D4,300.583,0.5,117,145.0
2542,E-4,301.0,0.5,117,145.0
2543,F#2,301.0,0.25,94,145.0
2544,E-2,301.0,0.25,94,145.0
2545,F4,301.583,0.5,117,145.0
2546,G4,302.0,0.5,117,145.0
2547,C2,302.0,0.25,102,145.0
2548,F#2,302.0,0.5,87,145.0
2549,B-4,302.583,1.375,117,145.0
2550,E2,303.0,99/125,112,145.0
2551,F#2,303.0,0.25,102,145.0
2552,E-2,303.0,0.25,102,145.0
2553,E-2,303.667,0.25,102,145.0
2554,F2,304.0,99/125,112,145.0
2555,C2,304.0,1.0,102,145.0
2556,F#2,304.0,0.5,87,145.0
2557,C4,304.0,0.25,117,145.0
2558,C5,304.0,0.25,117,145.0
2559,B-3,304.25,0.25,117,145.0
2560,B-4,304.25,0.25,117,145.0
2561,C4,304.5,3.375,117,145.0
2562,C5,304.5,3.375,117,145.0
2563,G#3,305.0,0.875,112,145.0
2564,G4,305.0,0.875,112,145.0
2565,D4,305.0,0.875,112,145.0
2566,C4,305.0,0.875,112,145.0
2567,G4,305.0,0.875,112,145.0
2568,G#3,305.0,0.875,112,145.0
2569,C4,305.0,0.875,112,145.0
2570,D4,305.0,0.875,112,145.0
2571,F#2,305.0,0.25,94,145.0
2572,E-2,305.0,0.25,94,145.0
2573,B-1,306.0,99/125,112,145.0
2574,C2,306.0,0.25,102,145.0
2575,F#2,306.0,0.5,87,145.0
2576,G#3,307.0,0.875,112,145.0
2577,G4,307.0,0.875,112,145.0
2578,D4,307.0,0.875,112,145.0
2579,C4,307.0,0.875,112,145.0
2580,D4,307.0,0.875,112,145.0
2581,G#3,307.0,0.875,112,145.0
2582,C4,307.0,0.875,112,145.0
2583,G4,307.0,0.875,112,145.0
2584,F#2,307.0,0.25,102,145.0
2585,E-2,307.0,0.25,102,145.0
2586,E-2,307.667,0.25,102,145.0
2587,F2,308.0,99/125,112,145.0
2588,C2,308.0,1.0,102,145.0
2589,F#2,308.0,0.5,87,145.0
2590,G4,308.5,0.375,112,145.0
2591,G4,308.5,0.375,112,145.0
2592,G4,309.0,0.875,112,145.0
2593,G#3,309.0,0.875,112,145.0
2594,D4,309.0,0.875,112,145.0
2595,C4,309.0,0.875,112,145.0
2596,G4,309.0,0.875,112,145.0
2597,G#3,309.0,0.875,112,145.0
2598,D4,309.0,0.875,112,145.0
2599,C4,309.0,0.875,112,145.0
2600,F#2,309.0,0.25,94,145.0
2601,E-2,309.0,0.25,94,145.0
2602,B-1,310.0,99/125,112,145.0
2603,C2,310.0,0.25,102,145.0
2604,F#2,310.0,0.5,87,145.0
2605,G3,310.5,0.25,117,145.0
2606,G4,310.5,0.25,117,145.0
2607,F3,310.75,0.25,117,145.0
2608,F4,310.75,0.25,117,145.0
2609,D2,311.0,99/125,112,145.0
2610,G4,311.0,0.875,112,145.0
2611,C4,311.0,0.875,112,145.0
2612,G#3,311.0,0.875,112,145.0
2613,D4,311.0,0.875,112,145.0
2614,G4,311.0,1.0,117,145.0
2615,G3,311.0,1.0,117,145.0
2616,D4,311.0,0.875,112,145.0
2617,C4,311.0,0.875,112,145.0
2618,G4,311.0,0.875,112,145.0
2619,G#3,311.0,0.875,112,145.0
2620,F#2,311.0,0.25,102,145.0
2621,E-2,311.0,0.25,102,145.0
2622,E-2,311.667,0.25,102,145.0
2623,E-2,312.0,99/125,112,145.0
2624,C2,312.0,1.0,102,145.0
2625,F#2,312.0,0.5,87,145.0
2626,G4,312.0,3.875,117,145.0
2627,G3,312.0,3.875,117,145.0
2628,C4,313.0,0.875,112,145.0
2629,G4,313.0,0.875,112,145.0
2630,B-3,313.0,0.875,112,145.0
2631,E-4,313.0,0.875,112,145.0
2632,C4,313.0,0.875,112,145.0
2633,G4,313.0,0.875,112,145.0
2634,B-3,313.0,0.875,112,145.0
2635,E-4,313.0,0.875,112,145.0
2636,F#2,313.0,0.25,94,145.0
2637,E-2,313.0,0.25,94,145.0
2638,B-1,314.0,99/125,112,145.0
2639,C2,314.0,0.25,102,145.0
2640,F#2,314.0,0.5,87,145.0
2641,E-4,315.0,0.875,112,145.0
2642,G4,315.0,0.875,112,145.0
2643,C4,315.0,0.875,112,145.0
2644,B-3,315.0,0.875,112,145.0
2645,B-3,315.0,0.875,112,145.0
2646,C4,315.0,0.875,112,145.0
2647,E-4,315.0,0.875,112,145.0
2648,G4,315.0,0.875,112,145.0
2649,F#2,315.0,0.25,102,145.0
2650,E-2,315.0,0.25,102,145.0
2651,E-2,315.667,0.25,102,145.0
2652,E-2,316.0,99/125,112,145.0
2653,F4,316.0,0.375,117,145.0
2654,C2,316.0,1.0,102,145.0
2655,F#2,316.0,0.5,87,145.0
2656,G4,316.5,0.375,112,145.0
2657,G4,316.5,0.375,117,145.0
2658,G4,316.5,0.375,112,145.0
2659,F4,317.0,0.875,117,145.0
2660,B-3,317.0,0.875,112,145.0
2661,E-4,317.0,0.875,112,145.0
2662,C4,317.0,0.875,112,145.0
2663,G4,317.0,0.875,112,145.0
2664,G4,317.0,0.875,112,145.0
2665,C4,317.0,0.875,112,145.0
2666,B-3,317.0,0.875,112,145.0
2667,E-4,317.0,0.875,112,145.0
2668,F#2,317.0,0.25,94,145.0
2669,E-2,317.0,0.25,94,145.0
2670,B-1,318.0,99/125,112,145.0
2671,F4,318.0,0.125,117,145.0
2672,C2,318.0,0.25,102,145.0
2673,F#2,318.0,0.5,87,145.0
2674,G4,318.167,0.125,117,145.0
2675,F4,318.333,0.125,117,145.0
2676,E-4,318.5,0.875,117,145.0
2677,G1,319.0,99/125,112,145.0
2678,G4,319.0,0.875,112,145.0
2679,E-4,319.0,0.875,112,145.0
2680,B-3,319.0,0.875,112,145.0
2681,C4,319.0,0.875,112,145.0
2682,G4,319.0,0.875,112,145.0
2683,B-3,319.0,0.875,112,145.0
2684,E-4,319.0,0.875,112,145.0
2685,C4,319.0,0.875,112,145.0
2686,F#2,319.0,0.25,102,145.0
2687,E-2,319.0,0.25,102,145.0
2688,B3,319.5,0.375,117,145.0
2689,E-2,319.667,0.25,102,145.0
2690,G#1,320.0,99/125,112,145.0
2691,C4,320.0,0.5,117,145.0
2692,C2,320.0,1.0,102,145.0
2693,F#2,320.0,0.5,87,145.0
2694,C4,320.583,0.5,117,145.0
2695,E-4,321.0,0.875,117,145.0
2696,G#4,321.0,0.875,112,145.0
2697,E-4,321.0,0.875,112,145.0
2698,C4,321.0,0.875,112,145.0
2699,G#4,321.0,0.875,112,145.0
2700,C4,321.0,0.875,112,145.0
2701,E-4,321.0,0.875,112,145.0
2702,F#2,321.0,0.25,94,145.0
2703,E-2,321.0,0.25,94,145.0
2704,A1,322.0,99/125,112,145.0
2705,F4,322.0,0.875,117,145.0
2706,C2,322.0,0.25,102,145.0
2707,F#2,322.0,0.5,87,145.0
2708,E-4,323.0,0.875,117,145.0
2709,A4,323.0,0.875,112,145.0
2710,E-4,323.0,0.875,112,145.0
2711,C4,323.0,0.875,112,145.0
2712,F#4,323.0,0.875,112,145.0
2713,C4,323.0,0.875,112,145.0
2714,E-4,323.0,0.875,112,145.0
2715,A4,323.0,0.875,112,145.0
2716,F#4,323.0,0.875,112,145.0
2717,F#2,323.0,0.25,102,145.0
2718,E-2,323.0,0.25,102,145.0
2719,E-2,323.667,0.25,102,145.0
2720,B-1,324.0,99/125,112,145.0
2721,G4,324.0,0.5,117,145.0
2722,C2,324.0,1.0,102,145.0
2723,F#2,324.0,0.5,87,145.0
2724,F4,324.583,0.5,117,145.0
2725,E-4,325.0,0.5,117,145.0
2726,B-4,325.0,0.875,112,145.0
2727,E-4,325.0,0.875,112,145.0
2728,G4,325.0,0.875,112,145.0
2729,E-4,325.0,0.875,112,145.0
2730,G4,325.0,0.875,112,145.0
2731,B-4,325.0,0.875,112,145.0
2732,F#2,325.0,0.25,94,145.0
2733,E-2,325.0,0.25,94,145.0
2734,C4,325.583,0.5,117,145.0
2735,C2,326.0,99/125,112,145.0
2736,E-4,326.0,0.875,117,145.0
2737,C2,326.0,0.25,102,145.0
2738,F#2,326.0,0.5,87,145.0
2739,C4,327.0,0.875,117,145.0
2740,E4,327.0,0.875,112,145.0
2741,C5,327.0,0.875,112,145.0
2742,B-4,327.0,0.875,112,145.0
2743,G4,327.0,0.875,112,145.0
2744,E4,327.0,0.875,112,145.0
2745,B-4,327.0,0.875,112,145.0
2746,G4,327.0,0.875,112,145.0
2747,C5,327.0,0.875,112,145.0
2748,F#2,327.0,0.25,102,145.0
2749,E-2,327.0,0.25,102,145.0
2750,E-2,327.667,0.25,102,145.0
2751,F2,328.0,99/125,112,145.0
2752,C2,328.0,1.0,102,145.0
2753,F#2,328.0,0.5,87,145.0
2754,E-4,329.0,0.5,117,145.0
2755,E-4,329.0,0.875,112,145.0
2756,G#4,329.0,0.875,112,145.0
2757,C4,329.0,0.875,112,145.0
2758,E-4,329.0,0.875,112,145.0
2759,G#4,329.0,0.875,112,145.0
2760,C4,329.0,0.875,112,145.0
2761,F#2,329.0,0.25,94,145.0
2762,E-2,329.0,0.25,94,145.0
2763,C4,329.583,0.5,117,145.0
2764,B-1,330.0,99/125,112,145.0
2765,D4,330.0,0.875,117,145.0
2766,C2,330.0,0.25,102,145.0
2767,F#2,330.0,0.5,87,145.0
2768,B-3,331.0,0.875,117,145.0
2769,B-3,331.0,0.875,112,145.0
2770,D4,331.0,0.875,112,145.0
2771,F4,331.0,0.875,112,145.0
2772,D4,331.0,0.875,112,145.0
2773,B-3,331.0,0.875,112,145.0
2774,F4,331.0,0.875,112,145.0
2775,F#2,331.0,0.25,102,145.0
2776,E-2,331.0,0.25,102,145.0
2777,E-2,331.667,0.25,102,145.0
2778,E-2,332.0,0.375,112,145.0
2779,G4,332.0,0.375,112,145.0
2780,E-4,332.0,0.5,117,145.0
2781,G4,332.0,0.375,112,145.0
2782,C2,332.0,1.0,102,145.0
2783,F#2,332.0,0.5,87,145.0
2784,D2,332.5,0.375,112,145.0
2785,F#4,332.5,0.375,112,145.0
2786,F#4,332.5,0.375,112,145.0
2787,D4,332.583,0.5,117,145.0
2788,C#2,333.0,0.375,112,145.0
2789,F4,333.0,0.375,112,145.0
2790,E-4,333.0,0.5,117,145.0
2791,F4,333.0,0.375,112,145.0
2792,F#2,333.0,0.25,94,145.0
2793,E-2,333.0,0.25,94,145.0
2794,C2,333.5,2.375,112,145.0
2795,E4,333.5,1.375,112,145.0
2796,E4,333.5,1.375,112,145.0
2797,E4,333.583,2.375,117,145.0
2798,C2,334.0,0.25,102,145.0
2799,F#2,334.0,0.5,87,145.0
2800,C5,335.0,0.875,112,145.0
2801,B-4,335.0,0.875,112,145.0
2802,E4,335.0,0.875,112,145.0
2803,G4,335.0,0.875,112,145.0
2804,E4,335.0,0.875,112,145.0
2805,G4,335.0,0.875,112,145.0
2806,B-4,335.0,0.875,112,145.0
2807,C5,335.0,0.875,112,145.0
2808,F#2,335.0,0.25,102,145.0
2809,E-2,335.0,0.25,102,145.0
2810,E-2,335.667,0.25,102,145.0
2811,F2,336.0,99/125,112,145.0
2812,E-4,336.0,0.375,117,145.0
2813,C2,336.0,1.0,102,145.0
2814,F#2,336.0,0.5,87,145.0
2815,F4,336.5,0.375,117,145.0
2816,F#4,337.0,0.375,117,145.0
2817,E-4,337.0,0.875,112,145.0
2818,G#4,337.0,0.875,112,145.0
2819,C4,337.0,0.875,112,145.0
2820,E-4,337.0,0.875,112,145.0
2821,C4,337.0,0.875,112,145.0
2822,G#4,337.0,0.875,112,145.0
2823,F#2,337.0,0.25,94,145.0
2824,E-2,337.0,0.25,94,145.0
2825,G4,337.5,0.375,117,145.0
2826,B-1,338.0,99/125,112,145.0
2827,B-3,338.0,0.375,117,145.0
2828,C2,338.0,0.25,102,145.0
2829,F#2,338.0,0.5,87,145.0
2830,C4,338.5,0.875,117,145.0
2831,B-3,339.0,0.875,112,145.0
2832,F4,339.0,0.875,112,145.0
2833,D4,339.0,0.875,112,145.0
2834,F4,339.0,0.875,112,145.0
2835,D4,339.0,0.875,112,145.0
2836,B-3,339.0,0.875,112,145.0
2837,F#2,339.0,0.25,102,145.0
2838,E-2,339.0,0.25,102,145.0
2839,F#3,339.5,0.375,117,145.0
2840,E-2,339.667,0.25,102,145.0
2841,E-2,340.0,99/125,112,145.0
2842,G3,340.0,1.875,117,145.0
2843,C2,340.0,1.0,102,145.0
2844,F#2,340.0,0.5,87,145.0
2845,E-4,340.0,99/125,112,145.0
2846,B-3,340.0,99/125,112,145.0
2847,G4,340.0,99/125,112,145.0
2848,G4,340.0,99/125,112,145.0
2849,E-4,340.0,99/125,112,145.0
2850,B-3,340.0,99/125,112,145.0
2851,F2,341.0,99/125,112,145.0
2852,F4,341.0,99/125,112,145.0
2853,G#4,341.0,99/125,112,145.0
2854,D4,341.0,99/125,112,145.0
2855,B3,341.0,99/125,112,145.0
2856,B3,341.0,99/125,112,145.0
2857,F4,341.0,99/125,112,145.0
2858,D4,341.0,99/125,112,145.0
2859,G#4,341.0,99/125,112,145.0
2860,F#2,341.0,0.25,94,145.0
2861,E-2,341.0,0.25,94,145.0
2862,E-2,342.0,99/125,112,145.0
2863,E-3,342.0,1.875,117,145.0
2864,C2,342.0,0.25,102,145.0
2865,F#2,342.0,0.5,87,145.0
2866,E-4,342.0,99/125,112,145.0
2867,B3,342.0,99/125,112,145.0
2868,G4,342.0,99/125,112,145.0
2869,B3,342.0,99/125,112,145.0
2870,G4,342.0,99/125,112,145.0
2871,E-4,342.0,99/125,112,145.0
2872,D2,343.0,99/125,112,145.0
2873,B3,343.0,99/125,112,145.0
2874,F4,343.0,99/125,112,145.0
2875,G4,343.0,99/125,112,145.0
2876,D4,343.0,99/125,112,145.0
2877,F4,343.0,99/125,112,145.0
2878,B3,343.0,99/125,112,145.0
2879,D4,343.0,99/125,112,145.0
2880,G4,343.0,99/125,112,145.0
2881,F#2,343.0,0.25,102,145.0
2882,E-2,343.0,0.25,102,145.0
2883,E-2,343.667,0.25,102,145.0
2884,C2,344.0,224/125,112,145.0
2885,G4,344.0,667/1000,117,145.0
2886,C4,344.0,1.5,112,145.0
2887,C3,344.0,1.5,112,145.0
2888,C2,344.0,1.0,102,145.0
2889,F#2,344.0,0.5,87,145.0
2890,G4,344.667,2333/1000,117,145.0
2891,E-4,345.0,99/125,112,145.0
2892,G4,345.0,99/125,112,145.0
2893,C4,345.0,99/125,112,145.0
2894,C4,345.0,99/125,112,145.0
2895,G4,345.0,99/125,112,145.0
2896,E-4,345.0,99/125,112,145.0
2897,F#2,345.0,0.25,94,145.0
2898,E-2,345.0,0.25,94,145.0
2899,C4,345.5,167/1000,112,145.0
2900,C3,345.5,167/1000,112,145.0
2901,C#4,345.667,167/1000,112,145.0
2902,C#3,345.667,167/1000,112,145.0
2903,D4,345.833,167/1000,112,145.0
2904,D3,345.833,167/1000,112,145.0
2905,E-2,346.0,224/125,112,145.0
2906,E-4,346.0,2.0,112,145.0
2907,E-3,346.0,2.0,112,145.0
2908,C2,346.0,0.25,102,145.0
2909,F#2,346.0,0.5,87,145.0
2910,C5,347.0,667/1000,117,145.0
2911,G4,347.0,99/125,112,145.0
2912,E-4,347.0,99/125,112,145.0
2913,C4,347.0,99/125,112,145.0
2914,E-4,347.0,99/125,112,145.0
2915,C4,347.0,99/125,112,145.0
2916,G4,347.0,99/125,112,145.0
2917,F#2,347.0,0.25,102,145.0
2918,E-2,347.0,0.25,102,145.0
2919,C5,347.667,333/1000,117,145.0
2920,E-2,347.667,0.25,102,145.0
2921,D2,348.0,224/125,112,145.0
2922,D4,348.0,1.5,112,145.0
2923,D3,348.0,1.5,112,145.0
2924,C2,348.0,1.0,102,145.0
2925,F#2,348.0,0.5,87,145.0
2926,G#4,349.0,99/125,112,145.0
2927,D4,349.0,99/125,112,145.0
2928,F4,349.0,99/125,112,145.0
2929,D4,349.0,99/125,112,145.0
2930,G#4,349.0,99/125,112,145.0
2931,F4,349.0,99/125,112,145.0
2932,F#2,349.0,0.25,94,145.0
2933,E-2,349.0,0.25,94,145.0
2934,D4,349.5,167/1000,112,145.0
2935,D3,349.5,167/1000,112,145.0
2936,E-4,349.667,167/1000,112,145.0
2937,E-3,349.667,167/1000,112,145.0
2938,E4,349.833,167/1000,112,145.0
2939,E3,349.833,167/1000,112,145.0
2940,F2,350.0,224/125,112,145.0
2941,F4,350.0,2.0,112,145.0
2942,F3,350.0,2.0,112,145.0
2943,C2,350.0,0.25,102,145.0
2944,F#2,350.0,0.5,87,145.0
2945,G#4,350.5,0.375,112,145.0
2946,G#4,350.5,0.375,112,145.0
2947,C4,350.667,0.625,117,145.0
2948,G#4,351.0,0.875,112,145.0
2949,F4,351.0,0.875,112,145.0
2950,D4,351.0,0.875,112,145.0
2951,G#4,351.0,0.875,112,145.0
2952,F4,351.0,0.875,112,145.0
2953,D4,351.0,0.875,112,145.0
2954,F#2,351.0,0.25,102,145.0
2955,E-2,351.0,0.25,102,145.0
2956,E-4,351.333,0.625,117,145.0
2957,E-2,351.667,0.25,102,145.0
2958,E-2,352.0,224/125,112,145.0
2959,G4,352.0,667/1000,117,145.0
2960,E-4,352.0,1.5,112,145.0
2961,E-3,352.0,1.5,112,145.0
2962,C2,352.0,1.0,102,145.0
2963,F#2,352.0,0.5,87,145.0
2964,G4,352.667,833/1000,117,145.0
2965,G4,353.0,0.875,112,145.0
2966,E-4,353.0,0.875,112,145.0
2967,C4,353.0,0.875,112,145.0
2968,E-4,353.0,0.875,112,145.0
2969,C4,353.0,0.875,112,145.0
2970,G4,353.0,0.875,112,145.0
2971,F#2,353.0,0.25,94,145.0
2972,E-2,353.0,0.25,94,145.0
2973,G4,353.5,0.875,117,145.0
2974,E-4,353.5,167/1000,112,145.0
2975,E-3,353.5,167/1000,112,145.0
2976,F4,353.667,167/1000,112,145.0
2977,F3,353.667,167/1000,112,145.0
2978,F#4,353.833,167/1000,112,145.0
2979,F#3,353.833,167/1000,112,145.0
2980,G2,354.0,224/125,112,145.0
2981,G4,354.0,2.0,112,145.0
2982,G3,354.0,2.0,112,145.0
2983,C2,354.0,0.25,102,145.0
2984,F#2,354.0,0.5,87,145.0
2985,F4,354.5,0.5,117,145.0
2986,E-4,355.0,0.5,117,145.0
2987,G4,355.0,0.875,112,145.0
2988,E-4,355.0,0.875,112,145.0
2989,C4,355.0,0.875,112,145.0
2990,E-4,355.0,0.875,112,145.0
2991,C4,355.0,0.875,112,145.0
2992,G4,355.0,0.875,112,145.0
2993,F#2,355.0,0.25,102,145.0
2994,E-2,355.0,0.25,102,145.0
2995,C4,355.5,0.5,117,145.0
2996,E-2,355.667,0.25,102,145.0
2997,F2,356.0,224/125,112,145.0
2998,C4,356.0,1.875,117,145.0
2999,F4,356.0,1.5,112,145.0
3000,F3,356.0,1.5,112,145.0
3001,C2,356.0,1.0,102,145.0
3002,F#2,356.0,0.5,87,145.0
3003,F4,357.0,0.875,112,145.0
3004,G#4,357.0,0.875,112,145.0
3005,D4,357.0,0.875,112,145.0
3006,F4,357.0,0.875,112,145.0
3007,G#4,357.0,0.875,112,145.0
3008,D4,357.0,0.875,112,145.0
3009,F#2,357.0,0.25,94,145.0
3010,E-2,357.0,0.25,94,145.0
3011,F4,357.5,167/1000,112,145.0
3012,F3,357.5,167/1000,112,145.0
3013,F#4,357.667,167/1000,112,145.0
3014,F#3,357.667,167/1000,112,145.0
3015,G4,357.833,167/1000,112,145.0
3016,G3,357.833,167/1000,112,145.0
3017,G#2,358.0,224/125,112,145.0
3018,G#4,358.0,2.0,112,145.0
3019,G#3,358.0,2.0,112,145.0
3020,C2,358.0,0.25,102,145.0
3021,F#2,358.0,0.5,87,145.0
3022,G#4,358.5,0.375,112,145.0
3023,G#4,358.5,0.375,112,145.0
3024,E-5,358.667,0.625,117,145.0
3025,G#4,359.0,0.875,112,145.0
3026,F4,359.0,0.875,112,145.0
3027,D4,359.0,0.875,112,145.0
3028,F4,359.0,0.875,112,145.0
3029,D4,359.0,0.875,112,145.0
3030,G#4,359.0,0.875,112,145.0
3031,F#2,359.0,0.25,102,145.0
3032,E-2,359.0,0.25,102,145.0
3033,E-5,359.333,0.625,117,145.0
3034,E-2,359.667,0.25,102,145.0
3035,G2,360.0,224/125,112,145.0
3036,E-5,360.0,0.625,117,145.0
3037,G4,360.0,2.0,112,145.0
3038,G3,360.0,2.0,112,145.0
3039,C2,360.0,1.0,102,145.0
3040,F#2,360.0,0.5,87,145.0
3041,C5,360.667,0.625,117,145.0
3042,E-4,361.0,0.875,112,145.0
3043,C4,361.0,0.875,112,145.0
3044,G4,361.0,0.875,112,145.0
3045,E-4,361.0,0.875,112,145.0
3046,C4,361.0,0.875,112,145.0
3047,G4,361.0,0.875,112,145.0
3048,F#2,361.0,0.25,94,145.0
3049,E-2,361.0,0.25,94,145.0
3050,C5,361.333,0.625,117,145.0
3051,E-2,362.0,224/125,112,145.0
3052,C5,362.0,0.5,117,145.0
3053,E-4,362.0,2.0,112,145.0
3054,E-3,362.0,2.0,112,145.0
3055,C2,362.0,0.25,102,145.0
3056,F#2,362.0,0.5,87,145.0
3057,G4,362.5,0.5,117,145.0
3058,G#4,363.0,0.5,117,145.0
3059,G4,363.0,0.875,112,145.0
3060,E-4,363.0,0.875,112,145.0
3061,C4,363.0,0.875,112,145.0
3062,C4,363.0,0.875,112,145.0
3063,G4,363.0,0.875,112,145.0
3064,E-4,363.0,0.875,112,145.0
3065,F#2,363.0,0.25,102,145.0
3066,E-2,363.0,0.25,102,145.0
3067,F4,363.5,0.5,117,145.0
3068,E-2,363.667,0.25,102,145.0
3069,F2,364.0,224/125,112,145.0
3070,G4,364.0,0.5,117,145.0
3071,F4,364.0,1.5,112,145.0
3072,F3,364.0,1.5,112,145.0
3073,C2,364.0,1.0,102,145.0
3074,F#2,364.0,0.5,87,145.0
3075,G#4,364.5,0.5,117,145.0
3076,G4,365.0,0.5,117,145.0
3077,F4,365.0,0.875,112,145.0
3078,D4,365.0,0.875,112,145.0
3079,G#4,365.0,0.875,112,145.0
3080,D4,365.0,0.875,112,145.0
3081,G#4,365.0,0.875,112,145.0
3082,F4,365.0,0.875,112,145.0
3083,F#2,365.0,0.25,94,145.0
3084,E-2,365.0,0.25,94,145.0
3085,F4,365.5,0.5,117,145.0
3086,F4,365.5,167/1000,112,145.0
3087,F3,365.5,167/1000,112,145.0
3088,E4,365.667,167/1000,112,145.0
3089,E3,365.667,167/1000,112,145.0
3090,E-4,365.833,167/1000,112,145.0
3091,E-3,365.833,167/1000,112,145.0
3092,D2,366.0,224/125,112,145.0
3093,E-4,366.0,0.25,117,145.0
3094,D4,366.0,2.0,112,145.0
3095,D3,366.0,2.0,112,145.0
3096,C2,366.0,0.25,102,145.0
3097,F#2,366.0,0.5,87,145.0
3098,C4,366.25,0.25,117,145.0
3099,G#4,366.5,0.375,112,145.0
3100,F4,366.5,0.875,117,145.0
3101,G#4,366.5,0.375,112,145.0
3102,G#4,367.0,0.875,112,145.0
3103,D4,367.0,0.875,112,145.0
3104,F4,367.0,0.875,112,145.0
3105,D4,367.0,0.875,112,145.0
3106,F4,367.0,0.875,112,145.0
3107,G#4,367.0,0.875,112,145.0
3108,F#2,367.0,0.25,102,145.0
3109,E-2,367.0,0.25,102,145.0
3110,E-4,367.5,0.25,117,145.0
3111,E-2,367.667,0.25,102,145.0
3112,C4,367.75,0.25,117,145.0
3113,C2,368.0,1.875,112,145.0
3114,E-4,368.0,0.25,117,145.0
3115,C4,368.0,1.875,112,145.0
3116,E-4,368.0,1.875,112,145.0
3117,G4,368.0,1.875,112,145.0
3118,C4,368.0,1.875,112,145.0
3119,E-4,368.0,1.875,112,145.0
3120,G4,368.0,1.875,112,145.0
3121,D4,368.25,0.25,117,145.0
3122,C4,368.5,3.375,117,145.0
3123,C2,370.0,1.375,112,145.0
3124,G#4,370.0,1.375,112,145.0
3125,C4,370.0,1.375,112,145.0
3126,F4,370.0,1.375,112,145.0
3127,C4,370.0,1.375,112,145.0
3128,F4,370.0,1.375,112,145.0
3129,G#4,370.0,1.375,112,145.0
3130,C2,371.5,0.375,112,145.0
3131,G#4,371.5,0.375,112,145.0
3132,F4,371.5,0.375,112,145.0
3133,C4,371.5,0.375,112,145.0
3134,G#4,371.5,0.375,112,145.0
3135,C4,371.5,0.375,112,145.0
3136,F4,371.5,0.375,112,145.0
3137,C2,372.0,3.875,112,145.0
3138,C4,372.0,3.875,112,145.0
3139,E-4,372.0,3.875,112,145.0
3140,G4,372.0,3.875,112,145.0
3141,G4,372.0,3.875,112,145.0
3142,E-4,372.0,3.875,112,145.0
3143,C4,372.0,3.875,112,145.0
3144,E3,374.0,1.0,127,145.0
