,note_name,start_time,duration,velocity,tempo
0,E3,3.75,0.25,127,104.0
1,B2,3.75,0.25,127,104.0
2,E2,4.0,0.5,127,104.0
3,E1,4.0,0.5,127,104.0
4,B-2,4.0,0.5,127,104.0
5,E2,4.5,0.5,127,104.0
6,E1,4.5,0.5,127,104.0
7,G#2,4.5,0.5,127,104.0
8,E3,5.0,1.5,127,104.0
9,G#3,5.0,1.5,127,104.0
10,E3,5.0,1.5,127,104.0
11,B2,5.0,1.5,127,104.0
12,F#2,5.0,0.5,127,104.0
13,D2,5.0,0.5,127,104.0
14,F#2,5.5,0.5,127,104.0
15,F#2,6.0,0.25,127,104.0
16,D2,6.0,0.25,127,104.0
17,B1,6.0,0.25,127,104.0
18,B1,6.25,0.25,127,104.0
19,C#3,6.5,1.5,127,104.0
20,B-3,6.5,1.25,127,104.0
21,F#3,6.5,1.25,127,104.0
22,C#3,6.5,1.25,127,104.0
23,F#2,6.5,0.25,127,104.0
24,B1,6.5,0.25,127,104.0
25,B1,6.75,0.25,127,104.0
26,F#2,7.0,0.25,127,104.0
27,D2,7.0,0.25,127,104.0
28,B1,7.0,0.25,127,104.0
29,B1,7.25,0.25,127,104.0
30,F#2,7.5,0.5,127,104.0
31,E3,7.75,0.25,127,104.0
32,E2,8.0,0.5,127,104.0
33,E1,8.0,0.5,127,104.0
34,B-2,8.0,0.5,127,104.0
35,E2,8.5,0.5,127,104.0
36,E1,8.5,0.5,127,104.0
37,G#2,8.5,0.5,127,104.0
38,E3,9.0,1.5,127,104.0
39,G#3,9.0,1.5,127,104.0
40,E3,9.0,1.5,127,104.0
41,B2,9.0,1.5,127,104.0
42,F#2,9.0,0.5,127,104.0
43,D2,9.0,0.5,127,104.0
44,F#2,9.5,0.5,127,104.0
45,F#2,10.0,0.25,127,104.0
46,D2,10.0,0.25,127,104.0
47,B1,10.0,0.25,127,104.0
48,B1,10.25,0.25,127,104.0
49,C#3,10.5,1.5,127,104.0
50,B-3,10.5,1.25,127,104.0
51,F#3,10.5,1.25,127,104.0
52,C#3,10.5,1.25,127,104.0
53,F#2,10.5,0.25,127,104.0
54,B1,10.5,0.25,127,104.0
55,B1,10.75,0.25,127,104.0
56,F#2,11.0,0.25,127,104.0
57,D2,11.0,0.25,127,104.0
58,B1,11.0,0.25,127,104.0
59,B1,11.25,0.25,127,104.0
60,F#2,11.5,0.5,127,104.0
61,E3,11.75,0.25,127,104.0
62,E2,12.0,0.5,127,104.0
63,E1,12.0,0.5,127,104.0
64,B-2,12.0,0.5,127,104.0
65,E2,12.5,0.5,127,104.0
66,E1,12.5,0.5,127,104.0
67,G#2,12.5,0.5,127,104.0
68,E2,13.0,1.5,127,104.0
69,G#3,13.0,1.5,127,104.0
70,E3,13.0,1.5,127,104.0
71,B2,13.0,1.5,127,104.0
72,F#2,13.0,0.5,127,104.0
73,D2,13.0,0.5,127,104.0
74,F#2,13.5,0.5,127,104.0
75,F#2,14.0,0.25,127,104.0
76,D2,14.0,0.25,127,104.0
77,B1,14.0,0.25,127,104.0
78,B1,14.25,0.25,127,104.0
79,C#2,14.5,1.5,127,104.0
80,B-3,14.5,1.25,127,104.0
81,F#3,14.5,1.25,127,104.0
82,C#3,14.5,1.25,127,104.0
83,F#2,14.5,0.25,127,104.0
84,B1,14.5,0.25,127,104.0
85,B1,14.75,0.25,127,104.0
86,F#2,15.0,0.25,127,104.0
87,D2,15.0,0.25,127,104.0
88,B1,15.0,0.25,127,104.0
89,B1,15.25,0.25,127,104.0
90,F#2,15.5,0.5,127,104.0
91,E3,15.75,0.25,127,104.0
92,E2,16.0,0.5,127,104.0
93,E1,16.0,0.5,127,104.0
94,B-2,16.0,0.5,127,104.0
95,E2,16.5,0.5,127,104.0
96,E1,16.5,0.5,127,104.0
97,G#2,16.5,0.5,127,104.0
98,E3,17.0,1.5,127,104.0
99,G#3,17.0,1.5,127,104.0
100,E3,17.0,1.5,127,104.0
101,B2,17.0,1.5,127,104.0
102,F#2,17.0,0.5,127,104.0
103,D2,17.0,0.5,127,104.0
104,F#2,17.5,0.5,127,104.0
105,F#2,18.0,0.25,127,104.0
106,D2,18.0,0.25,127,104.0
107,B1,18.0,0.25,127,104.0
108,B1,18.25,0.25,127,104.0
109,C#3,18.5,1.5,127,104.0
110,B-3,18.5,1.25,127,104.0
111,F#3,18.5,1.25,127,104.0
112,C#3,18.5,1.25,127,104.0
113,F#2,18.5,0.25,127,104.0
114,B1,18.5,0.25,127,104.0
115,B1,18.75,0.25,127,104.0
116,F#2,19.0,0.25,127,104.0
117,D2,19.0,0.25,127,104.0
118,B1,19.0,0.25,127,104.0
119,B1,19.25,0.25,127,104.0
120,F#2,19.5,0.5,127,104.0
121,E3,19.75,0.25,127,104.0
122,E2,20.0,0.5,127,104.0
123,E1,20.0,0.5,127,104.0
124,G#3,20.0,0.25,127,104.0
125,G#4,20.0,0.25,127,104.0
126,E-3,20.0,0.5,127,104.0
127,B1,20.0,0.5,127,104.0
128,E3,20.25,0.25,127,104.0
129,E4,20.25,0.25,127,104.0
130,E2,20.5,0.5,127,104.0
131,E1,20.5,0.5,127,104.0
132,G#3,20.5,0.25,127,104.0
133,G#4,20.5,0.25,127,104.0
134,E-3,20.5,0.5,127,104.0
135,B1,20.5,0.5,127,104.0
136,B-3,20.75,0.25,127,104.0
137,B-4,20.75,0.25,127,104.0
138,E3,21.0,1.5,127,104.0
139,B3,21.0,0.25,127,104.0
140,B4,21.0,0.25,127,104.0
141,G#3,21.0,1.5,127,104.0
142,E3,21.0,1.5,127,104.0
143,B2,21.0,1.5,127,104.0
144,E-3,21.0,0.5,127,104.0
145,D2,21.0,0.5,127,104.0
146,B-3,21.25,0.25,127,104.0
147,B-4,21.25,0.25,127,104.0
148,E-3,21.5,0.5,127,104.0
149,G#3,21.5,0.25,127,104.0
150,G#4,21.5,0.25,127,104.0
151,F#3,21.75,0.25,127,104.0
152,F#4,21.75,0.25,127,104.0
153,G#3,22.0,0.25,127,104.0
154,G#4,22.0,0.25,127,104.0
155,E-3,22.0,0.5,127,104.0
156,B1,22.0,0.5,127,104.0
157,F#3,22.25,0.25,127,104.0
158,F#4,22.25,0.25,127,104.0
159,C#3,22.5,1.5,127,104.0
160,E3,22.5,0.25,127,104.0
161,E4,22.5,0.25,127,104.0
162,B-3,22.5,1.25,127,104.0
163,F#3,22.5,1.25,127,104.0
164,C#3,22.5,1.25,127,104.0
165,E-3,22.5,0.25,127,104.0
166,B1,22.5,0.25,127,104.0
167,B1,22.75,0.25,127,104.0
168,E-3,22.75,0.25,127,104.0
169,E-4,22.75,0.25,127,104.0
170,C#3,23.0,0.5,127,104.0
171,C#4,23.0,0.5,127,104.0
172,E-3,23.0,0.25,127,104.0
173,D2,23.0,0.25,127,104.0
174,B1,23.25,0.25,127,104.0
175,E-3,23.5,0.5,127,104.0
176,C#3,23.5,0.5,127,104.0
177,C#4,23.5,0.5,127,104.0
178,E3,23.75,0.25,127,104.0
179,E2,24.0,0.5,127,104.0
180,E1,24.0,0.5,127,104.0
181,G#3,24.0,0.25,127,104.0
182,G#4,24.0,0.25,127,104.0
183,E-3,24.0,0.5,127,104.0
184,B1,24.0,0.5,127,104.0
185,E3,24.25,0.25,127,104.0
186,E4,24.25,0.25,127,104.0
187,E2,24.5,0.5,127,104.0
188,E1,24.5,0.5,127,104.0
189,G#3,24.5,0.25,127,104.0
190,G#4,24.5,0.25,127,104.0
191,E-3,24.5,0.5,127,104.0
192,B1,24.5,0.5,127,104.0
193,B-3,24.75,0.25,127,104.0
194,B-4,24.75,0.25,127,104.0
195,E2,25.0,1.5,127,104.0
196,B3,25.0,0.25,127,104.0
197,B4,25.0,0.25,127,104.0
198,G#3,25.0,1.5,127,104.0
199,E3,25.0,1.5,127,104.0
200,B2,25.0,1.5,127,104.0
201,E-3,25.0,0.5,127,104.0
202,D2,25.0,0.5,127,104.0
203,B-3,25.25,0.25,127,104.0
204,B-4,25.25,0.25,127,104.0
205,E-3,25.5,0.5,127,104.0
206,G#3,25.5,0.25,127,104.0
207,G#4,25.5,0.25,127,104.0
208,F#3,25.75,0.25,127,104.0
209,F#4,25.75,0.25,127,104.0
210,G#3,26.0,0.25,127,104.0
211,G#4,26.0,0.25,127,104.0
212,E-3,26.0,0.5,127,104.0
213,B1,26.0,0.5,127,104.0
214,F#3,26.25,0.25,127,104.0
215,F#4,26.25,0.25,127,104.0
216,C#2,26.5,1.5,127,104.0
217,E3,26.5,0.25,127,104.0
218,E4,26.5,0.25,127,104.0
219,B-3,26.5,1.25,127,104.0
220,F#3,26.5,1.25,127,104.0
221,C#3,26.5,1.25,127,104.0
222,E-3,26.5,0.25,127,104.0
223,B1,26.5,0.25,127,104.0
224,B1,26.75,0.25,127,104.0
225,E-3,26.75,0.25,127,104.0
226,E-4,26.75,0.25,127,104.0
227,C#3,27.0,0.5,127,104.0
228,C#4,27.0,0.5,127,104.0
229,E-3,27.0,0.25,127,104.0
230,D2,27.0,0.25,127,104.0
231,B1,27.25,0.25,127,104.0
232,E-3,27.5,0.5,127,104.0
233,C#3,27.5,0.5,127,104.0
234,C#4,27.5,0.5,127,104.0
235,E3,27.75,0.25,127,104.0
236,E2,28.0,0.5,127,104.0
237,E1,28.0,0.5,127,104.0
238,C#4,28.0,0.25,127,104.0
239,C#5,28.0,0.25,127,104.0
240,G#2,28.0,0.5,127,104.0
241,B1,28.0,0.5,127,104.0
242,A3,28.25,0.25,127,104.0
243,A4,28.25,0.25,127,104.0
244,E2,28.5,0.5,127,104.0
245,E1,28.5,0.5,127,104.0
246,G#2,28.5,0.5,127,104.0
247,C#4,28.5,0.25,127,104.0
248,C#5,28.5,0.25,127,104.0
249,E-4,28.75,0.25,127,104.0
250,E-5,28.75,0.25,127,104.0
251,E3,29.0,1.5,127,104.0
252,E4,29.0,0.25,127,104.0
253,E5,29.0,0.25,127,104.0
254,G#3,29.0,1.5,127,104.0
255,E3,29.0,1.5,127,104.0
256,B2,29.0,1.5,127,104.0
257,F#2,29.0,0.5,127,104.0
258,D2,29.0,0.5,127,104.0
259,E-4,29.25,0.25,127,104.0
260,E-5,29.25,0.25,127,104.0
261,C#4,29.5,0.25,127,104.0
262,C#5,29.5,0.25,127,104.0
263,F#2,29.5,0.5,127,104.0
264,B1,29.5,0.5,127,104.0
265,B3,29.75,0.25,127,104.0
266,B4,29.75,0.25,127,104.0
267,A4,30.0,0.25,127,104.0
268,A5,30.0,0.25,127,104.0
269,F#2,30.0,0.5,127,104.0
270,B1,30.0,0.5,127,104.0
271,G#4,30.25,0.25,127,104.0
272,G#5,30.25,0.25,127,104.0
273,C#3,30.5,1.5,127,104.0
274,F#2,30.5,0.5,127,104.0
275,E4,30.5,0.25,127,104.0
276,E5,30.5,0.25,127,104.0
277,F#3,30.5,1.25,127,104.0
278,C#3,30.5,1.25,127,104.0
279,A4,30.75,0.25,127,104.0
280,A5,30.75,0.25,127,104.0
281,G#4,31.0,0.25,127,104.0
282,G#5,31.0,0.25,127,104.0
283,F#2,31.0,0.5,127,104.0
284,D2,31.0,0.5,127,104.0
285,E4,31.25,0.25,127,104.0
286,E5,31.25,0.25,127,104.0
287,A4,31.5,0.25,127,104.0
288,A5,31.5,0.25,127,104.0
289,F#2,31.5,0.5,127,104.0
290,B1,31.5,0.5,127,104.0
291,E3,31.75,0.25,127,104.0
292,G#4,31.75,0.25,127,104.0
293,G#5,31.75,0.25,127,104.0
294,E2,32.0,0.5,127,104.0
295,E1,32.0,0.5,127,104.0
296,A4,32.0,0.25,127,104.0
297,A5,32.0,0.25,127,104.0
298,G#2,32.0,0.5,127,104.0
299,B1,32.0,0.5,127,104.0
300,G#4,32.25,0.25,127,104.0
301,G#5,32.25,0.25,127,104.0
302,E2,32.5,0.5,127,104.0
303,E1,32.5,0.5,127,104.0
304,G#2,32.5,0.5,127,104.0
305,E4,32.5,0.25,127,104.0
306,E5,32.5,0.25,127,104.0
307,A4,32.75,0.25,127,104.0
308,A5,32.75,0.25,127,104.0
309,E3,33.0,1.5,127,104.0
310,G#4,33.0,0.25,127,104.0
311,G#5,33.0,0.25,127,104.0
312,G#3,33.0,1.5,127,104.0
313,E3,33.0,1.5,127,104.0
314,B2,33.0,1.5,127,104.0
315,F#2,33.0,0.5,127,104.0
316,D2,33.0,0.5,127,104.0
317,E4,33.25,0.25,127,104.0
318,E5,33.25,0.25,127,104.0
319,A4,33.5,0.25,127,104.0
320,A5,33.5,0.25,127,104.0
321,F#2,33.5,0.5,127,104.0
322,B1,33.5,0.5,127,104.0
323,G#4,33.75,0.25,127,104.0
324,G#5,33.75,0.25,127,104.0
325,E4,34.0,0.25,127,104.0
326,E5,34.0,0.25,127,104.0
327,F#2,34.0,0.5,127,104.0
328,B1,34.0,0.5,127,104.0
329,A4,34.25,0.25,127,104.0
330,A5,34.25,0.25,127,104.0
331,C#3,34.5,1.5,127,104.0
332,F#2,34.5,0.5,127,104.0
333,G#4,34.5,0.25,127,104.0
334,G#5,34.5,0.25,127,104.0
335,F#3,34.5,1.25,127,104.0
336,C#3,34.5,1.25,127,104.0
337,A4,34.75,0.25,127,104.0
338,A5,34.75,0.25,127,104.0
339,G#4,35.0,0.25,127,104.0
340,G#5,35.0,0.25,127,104.0
341,F#2,35.0,0.5,127,104.0
342,D2,35.0,0.5,127,104.0
343,E4,35.25,0.25,127,104.0
344,E5,35.25,0.25,127,104.0
345,A4,35.5,0.25,127,104.0
346,A5,35.5,0.25,127,104.0
347,F#2,35.5,0.5,127,104.0
348,B1,35.5,0.5,127,104.0
349,E3,35.75,0.25,127,104.0
350,G#4,35.75,0.25,127,104.0
351,G#5,35.75,0.25,127,104.0
352,E2,36.0,0.5,127,104.0
353,E1,36.0,0.5,127,104.0
354,E4,36.0,0.25,127,104.0
355,E5,36.0,0.25,127,104.0
356,G#2,36.0,0.5,127,104.0
357,B1,36.0,0.5,127,104.0
358,A4,36.25,0.25,127,104.0
359,A5,36.25,0.25,127,104.0
360,E2,36.5,0.5,127,104.0
361,E1,36.5,0.5,127,104.0
362,G#2,36.5,0.5,127,104.0
363,G#4,36.5,0.25,127,104.0
364,G#5,36.5,0.25,127,104.0
365,E4,36.75,0.25,127,104.0
366,E5,36.75,0.25,127,104.0
367,E2,37.0,1.5,127,104.0
368,A4,37.0,0.25,127,104.0
369,A5,37.0,0.25,127,104.0
370,G#3,37.0,1.5,127,104.0
371,E3,37.0,1.5,127,104.0
372,B2,37.0,1.5,127,104.0
373,F#2,37.0,0.5,127,104.0
374,D2,37.0,0.5,127,104.0
375,G#4,37.25,0.25,127,104.0
376,G#5,37.25,0.25,127,104.0
377,A4,37.5,0.25,127,104.0
378,A5,37.5,0.25,127,104.0
379,F#2,37.5,0.5,127,104.0
380,B1,37.5,0.5,127,104.0
381,G#4,37.75,0.25,127,104.0
382,G#5,37.75,0.25,127,104.0
383,E4,38.0,0.25,127,104.0
384,E5,38.0,0.25,127,104.0
385,F#2,38.0,0.5,127,104.0
386,B1,38.0,0.5,127,104.0
387,A4,38.25,0.25,127,104.0
388,A5,38.25,0.25,127,104.0
389,C#2,38.5,1.5,127,104.0
390,F#2,38.5,0.5,127,104.0
391,G#4,38.5,0.25,127,104.0
392,G#5,38.5,0.25,127,104.0
393,F#3,38.5,1.25,127,104.0
394,C#3,38.5,1.25,127,104.0
395,E4,38.75,0.25,127,104.0
396,E5,38.75,0.25,127,104.0
397,A4,39.0,0.25,127,104.0
398,A5,39.0,0.25,127,104.0
399,F#2,39.0,0.5,127,104.0
400,D2,39.0,0.5,127,104.0
401,G#4,39.25,0.25,127,104.0
402,G#5,39.25,0.25,127,104.0
403,E4,39.5,0.25,127,104.0
404,E5,39.5,0.25,127,104.0
405,F#2,39.5,0.5,127,104.0
406,B1,39.5,0.5,127,104.0
407,E3,39.75,0.25,127,104.0
408,A4,39.75,0.25,127,104.0
409,A5,39.75,0.25,127,104.0
410,E2,40.0,0.5,127,104.0
411,E1,40.0,0.5,127,104.0
412,G#4,40.0,0.25,127,104.0
413,G#5,40.0,0.25,127,104.0
414,G#2,40.0,0.5,127,104.0
415,B1,40.0,0.5,127,104.0
416,A4,40.25,0.25,127,104.0
417,A5,40.25,0.25,127,104.0
418,E2,40.5,0.5,127,104.0
419,E1,40.5,0.5,127,104.0
420,G#2,40.5,0.5,127,104.0
421,G#4,40.5,0.25,127,104.0
422,G#5,40.5,0.25,127,104.0
423,E4,40.75,0.25,127,104.0
424,E5,40.75,0.25,127,104.0
425,E2,41.0,1.5,127,104.0
426,G#4,41.0,3.0,127,104.0
427,G#5,41.0,3.0,127,104.0
428,G#3,41.0,1.5,127,104.0
429,E3,41.0,1.5,127,104.0
430,B2,41.0,1.5,127,104.0
431,F#2,41.0,0.5,127,104.0
432,D2,41.0,0.5,127,104.0
433,F#2,41.5,0.5,127,104.0
434,B1,41.5,0.5,127,104.0
435,F#2,42.0,0.5,127,104.0
436,B1,42.0,0.5,127,104.0
437,C#2,42.5,1.5,127,104.0
438,F#2,42.5,0.5,127,104.0
439,F#3,42.5,1.25,127,104.0
440,C#3,42.5,1.25,127,104.0
441,F#2,43.0,0.5,127,104.0
442,D2,43.0,0.5,127,104.0
443,F#2,43.5,0.5,127,104.0
444,B1,43.5,0.5,127,104.0
445,E3,43.75,0.25,127,104.0
446,E2,44.0,0.5,127,104.0
447,E1,44.0,0.5,127,104.0
448,G#4,44.0,4.0,127,104.0
449,G#2,44.0,0.5,127,104.0
450,B1,44.0,0.5,127,104.0
451,E2,44.5,0.5,127,104.0
452,E1,44.5,0.5,127,104.0
453,G#2,44.5,0.5,127,104.0
454,E2,45.0,1.5,127,104.0
455,G#3,45.0,1.5,127,104.0
456,E3,45.0,1.5,127,104.0
457,B2,45.0,1.5,127,104.0
458,F#2,45.0,0.5,127,104.0
459,D2,45.0,0.5,127,104.0
460,F#2,45.5,0.5,127,104.0
461,B1,45.5,0.5,127,104.0
462,F#2,46.0,0.5,127,104.0
463,B1,46.0,0.5,127,104.0
464,C#2,46.5,1.5,127,104.0
465,F#2,46.5,0.5,127,104.0
466,F#3,46.5,1.25,127,104.0
467,C#3,46.5,1.25,127,104.0
468,F#2,47.0,0.5,127,104.0
469,D2,47.0,0.5,127,104.0
470,F#2,47.5,0.5,127,104.0
471,B1,47.5,0.5,127,104.0
472,E3,47.75,0.25,127,104.0
473,E2,48.0,0.5,127,104.0
474,E1,48.0,0.5,127,104.0
475,B-2,48.0,0.5,127,104.0
476,E2,48.5,0.5,127,104.0
477,E1,48.5,0.5,127,104.0
478,G#2,48.5,0.5,127,104.0
479,E3,49.0,1.5,127,104.0
480,G#3,49.0,1.5,127,104.0
481,E3,49.0,1.5,127,104.0
482,B2,49.0,1.5,127,104.0
483,F#2,49.0,0.5,127,104.0
484,D2,49.0,0.5,127,104.0
485,F#2,49.5,0.5,127,104.0
486,F#2,50.0,0.25,127,104.0
487,B1,50.0,0.25,127,104.0
488,B1,50.25,0.25,127,104.0
489,C#3,50.5,1.5,127,104.0
490,F#3,50.5,1.25,127,104.0
491,C#3,50.5,1.25,127,104.0
492,F#2,50.5,0.25,127,104.0
493,B1,50.5,0.25,127,104.0
494,B1,50.75,0.25,127,104.0
495,F#2,51.0,0.25,127,104.0
496,D2,51.0,0.25,127,104.0
497,B1,51.0,0.25,127,104.0
498,B1,51.25,0.25,127,104.0
499,F#2,51.5,0.5,127,104.0
500,E3,51.75,0.25,127,104.0
501,E2,52.0,0.5,127,104.0
502,E1,52.0,0.5,127,104.0
503,B-2,52.0,0.5,127,104.0
504,E2,52.5,0.5,127,104.0
505,E1,52.5,0.5,127,104.0
506,G#2,52.5,0.5,127,104.0
507,E3,53.0,1.5,127,104.0
508,G#3,53.0,1.5,127,104.0
509,E3,53.0,1.5,127,104.0
510,B2,53.0,1.5,127,104.0
511,F#2,53.0,0.5,127,104.0
512,D2,53.0,0.5,127,104.0
513,F#2,53.5,0.5,127,104.0
514,F#2,54.0,0.25,127,104.0
515,B1,54.0,0.25,127,104.0
516,B1,54.25,0.25,127,104.0
517,C#3,54.5,1.5,127,104.0
518,F#3,54.5,1.25,127,104.0
519,C#3,54.5,1.25,127,104.0
520,F#2,54.5,0.25,127,104.0
521,B1,54.5,0.25,127,104.0
522,B1,54.75,0.25,127,104.0
523,F#2,55.0,0.25,127,104.0
524,D2,55.0,0.25,127,104.0
525,B1,55.0,0.25,127,104.0
526,B1,55.25,0.25,127,104.0
527,F#2,55.5,0.5,127,104.0
528,E3,55.75,0.25,127,104.0
529,G#3,56.0,0.25,127,104.0
530,G#3,56.0,0.25,127,104.0
531,G#2,56.0,0.25,127,104.0
532,G#3,56.0,0.25,127,104.0
533,F#2,56.0,0.25,127,104.0
534,D2,56.0,0.25,127,104.0
535,E3,56.25,0.25,127,104.0
536,E3,56.25,0.25,127,104.0
537,E2,56.25,0.25,127,104.0
538,B1,56.25,0.25,127,104.0
539,E3,56.25,0.25,127,104.0
540,G#3,56.5,0.25,127,104.0
541,G#3,56.5,0.25,127,104.0
542,G#2,56.5,0.25,127,104.0
543,G#3,56.5,0.25,127,104.0
544,F#2,56.5,0.25,127,104.0
545,D2,56.5,0.25,127,104.0
546,B-3,56.75,0.25,127,104.0
547,B-3,56.75,0.25,127,104.0
548,B-2,56.75,0.25,127,104.0
549,B1,56.75,0.25,127,104.0
550,B-3,56.75,0.25,127,104.0
551,B3,57.0,0.25,127,104.0
552,B3,57.0,0.25,127,104.0
553,B2,57.0,0.25,127,104.0
554,B3,57.0,0.25,127,104.0
555,F#2,57.0,0.25,127,104.0
556,D2,57.0,0.25,127,104.0
557,B-3,57.25,0.25,127,104.0
558,B-3,57.25,0.25,127,104.0
559,B-2,57.25,0.25,127,104.0
560,B1,57.25,0.25,127,104.0
561,B-3,57.25,0.25,127,104.0
562,G#3,57.5,0.25,127,104.0
563,G#3,57.5,0.25,127,104.0
564,G#2,57.5,0.25,127,104.0
565,G#3,57.5,0.25,127,104.0
566,F#2,57.5,0.25,127,104.0
567,B1,57.5,0.25,127,104.0
568,F#3,57.75,0.25,127,104.0
569,F#3,57.75,0.25,127,104.0
570,F#2,57.75,0.25,127,104.0
571,B-2,57.75,0.25,127,104.0
572,F#3,57.75,0.25,127,104.0
573,G#3,58.0,0.25,127,104.0
574,G#3,58.0,0.25,127,104.0
575,G#2,58.0,0.25,127,104.0
576,F#2,58.0,0.25,127,104.0
577,G#3,58.0,0.25,127,104.0
578,F#3,58.25,0.25,127,104.0
579,F#3,58.25,0.25,127,104.0
580,F#2,58.25,0.25,127,104.0
581,B1,58.25,0.25,127,104.0
582,F#3,58.25,0.25,127,104.0
583,E3,58.5,0.25,127,104.0
584,E3,58.5,0.25,127,104.0
585,E2,58.5,0.25,127,104.0
586,B-2,58.5,0.5,127,104.0
587,E3,58.5,0.25,127,104.0
588,E-3,58.75,0.25,127,104.0
589,E-3,58.75,0.25,127,104.0
590,E-2,58.75,0.25,127,104.0
591,E-3,58.75,0.25,127,104.0
592,C#3,59.0,0.5,127,104.0
593,C#3,59.0,0.5,127,104.0
594,C#2,59.0,0.5,127,104.0
595,D2,59.0,0.5,127,104.0
596,C#3,59.0,0.5,127,104.0
597,C#3,59.5,0.5,127,104.0
598,C#3,59.5,0.5,127,104.0
599,C#2,59.5,0.5,127,104.0
600,C#3,59.5,0.5,127,104.0
601,B-2,59.5,0.5,127,104.0
602,D2,59.5,0.5,127,104.0
603,G#3,60.0,0.25,127,104.0
604,G#3,60.0,0.25,127,104.0
605,G#2,60.0,0.25,127,104.0
606,G#3,60.0,0.25,127,104.0
607,F#2,60.0,0.25,127,104.0
608,D2,60.0,0.25,127,104.0
609,E3,60.25,0.25,127,104.0
610,E3,60.25,0.25,127,104.0
611,E2,60.25,0.25,127,104.0
612,B1,60.25,0.25,127,104.0
613,E3,60.25,0.25,127,104.0
614,G#3,60.5,0.25,127,104.0
615,G#3,60.5,0.25,127,104.0
616,G#2,60.5,0.25,127,104.0
617,G#3,60.5,0.25,127,104.0
618,F#2,60.5,0.25,127,104.0
619,D2,60.5,0.25,127,104.0
620,B-3,60.75,0.25,127,104.0
621,B-3,60.75,0.25,127,104.0
622,B-2,60.75,0.25,127,104.0
623,B1,60.75,0.25,127,104.0
624,B-3,60.75,0.25,127,104.0
625,B3,61.0,0.25,127,104.0
626,B3,61.0,0.25,127,104.0
627,B2,61.0,0.25,127,104.0
628,B3,61.0,0.25,127,104.0
629,F#2,61.0,0.25,127,104.0
630,D2,61.0,0.25,127,104.0
631,B-3,61.25,0.25,127,104.0
632,B-3,61.25,0.25,127,104.0
633,B-2,61.25,0.25,127,104.0
634,B1,61.25,0.25,127,104.0
635,B-3,61.25,0.25,127,104.0
636,G#3,61.5,0.25,127,104.0
637,G#3,61.5,0.25,127,104.0
638,G#2,61.5,0.25,127,104.0
639,G#3,61.5,0.25,127,104.0
640,F#2,61.5,0.25,127,104.0
641,B1,61.5,0.25,127,104.0
642,F#3,61.75,0.25,127,104.0
643,F#3,61.75,0.25,127,104.0
644,F#2,61.75,0.25,127,104.0
645,B-2,61.75,0.25,127,104.0
646,F#3,61.75,0.25,127,104.0
647,G#3,62.0,0.25,127,104.0
648,G#3,62.0,0.25,127,104.0
649,G#2,62.0,0.25,127,104.0
650,F#2,62.0,0.25,127,104.0
651,G#3,62.0,0.25,127,104.0
652,F#3,62.25,0.25,127,104.0
653,F#3,62.25,0.25,127,104.0
654,F#2,62.25,0.25,127,104.0
655,B1,62.25,0.25,127,104.0
656,F#3,62.25,0.25,127,104.0
657,E3,62.5,0.25,127,104.0
658,E3,62.5,0.25,127,104.0
659,E2,62.5,0.25,127,104.0
660,B-2,62.5,0.5,127,104.0
661,E3,62.5,0.25,127,104.0
662,E-3,62.75,0.25,127,104.0
663,E-3,62.75,0.25,127,104.0
664,E-2,62.75,0.25,127,104.0
665,E-3,62.75,0.25,127,104.0
666,C#3,63.0,0.5,127,104.0
667,C#3,63.0,0.5,127,104.0
668,C#2,63.0,0.5,127,104.0
669,D2,63.0,0.5,127,104.0
670,C#3,63.0,0.5,127,104.0
671,C#3,63.5,0.5,127,104.0
672,C#3,63.5,0.5,127,104.0
673,C#2,63.5,0.5,127,104.0
674,C#3,63.5,0.5,127,104.0
675,B-2,63.5,0.5,127,104.0
676,D2,63.5,0.5,127,104.0
677,C#4,64.0,0.25,127,104.0
678,C#4,64.0,0.25,127,104.0
679,C#3,64.0,0.25,127,104.0
680,C#4,64.0,0.25,127,104.0
681,F#2,64.0,0.25,127,104.0
682,D2,64.0,0.25,127,104.0
683,A3,64.25,0.25,127,104.0
684,A3,64.25,0.25,127,104.0
685,A2,64.25,0.25,127,104.0
686,B1,64.25,0.25,127,104.0
687,A3,64.25,0.25,127,104.0
688,C#4,64.5,0.25,127,104.0
689,C#4,64.5,0.25,127,104.0
690,C#3,64.5,0.25,127,104.0
691,C#4,64.5,0.25,127,104.0
692,F#2,64.5,0.25,127,104.0
693,D2,64.5,0.25,127,104.0
694,E-4,64.75,0.25,127,104.0
695,E-4,64.75,0.25,127,104.0
696,E-3,64.75,0.25,127,104.0
697,B1,64.75,0.25,127,104.0
698,E-4,64.75,0.25,127,104.0
699,E4,65.0,0.25,127,104.0
700,E4,65.0,0.25,127,104.0
701,E3,65.0,0.25,127,104.0
702,E4,65.0,0.25,127,104.0
703,F#2,65.0,0.25,127,104.0
704,D2,65.0,0.25,127,104.0
705,E-4,65.25,0.25,127,104.0
706,E-4,65.25,0.25,127,104.0
707,E-3,65.25,0.25,127,104.0
708,B1,65.25,0.25,127,104.0
709,E-4,65.25,0.25,127,104.0
710,C#4,65.5,0.25,127,104.0
711,C#4,65.5,0.25,127,104.0
712,C#3,65.5,0.25,127,104.0
713,C#4,65.5,0.25,127,104.0
714,F#2,65.5,0.25,127,104.0
715,B1,65.5,0.25,127,104.0
716,B3,65.75,0.25,127,104.0
717,B3,65.75,0.25,127,104.0
718,B2,65.75,0.25,127,104.0
719,B-2,65.75,0.25,127,104.0
720,B3,65.75,0.25,127,104.0
721,C#4,66.0,0.25,127,104.0
722,C#4,66.0,0.25,127,104.0
723,C#3,66.0,0.25,127,104.0
724,F#2,66.0,0.25,127,104.0
725,C#4,66.0,0.25,127,104.0
726,B3,66.25,0.25,127,104.0
727,B3,66.25,0.25,127,104.0
728,B2,66.25,0.25,127,104.0
729,B1,66.25,0.25,127,104.0
730,B3,66.25,0.25,127,104.0
731,A3,66.5,0.25,127,104.0
732,A3,66.5,0.25,127,104.0
733,A2,66.5,0.25,127,104.0
734,B-2,66.5,0.25,127,104.0
735,A3,66.5,0.25,127,104.0
736,G#3,66.75,0.25,127,104.0
737,G#3,66.75,0.25,127,104.0
738,G#2,66.75,0.25,127,104.0
739,F#2,66.75,0.25,127,104.0
740,G#3,66.75,0.25,127,104.0
741,F#3,67.0,0.25,127,104.0
742,F#3,67.0,0.25,127,104.0
743,F#2,67.0,0.25,127,104.0
744,B-2,67.0,0.25,127,104.0
745,F#3,67.0,0.25,127,104.0
746,G#3,67.25,0.25,127,104.0
747,G#3,67.25,0.25,127,104.0
748,G#2,67.25,0.25,127,104.0
749,F#2,67.25,0.25,127,104.0
750,G#3,67.25,0.25,127,104.0
751,F#3,67.5,0.25,127,104.0
752,F#3,67.5,0.25,127,104.0
753,F#2,67.5,0.25,127,104.0
754,F#2,67.5,0.25,127,104.0
755,F#3,67.5,0.25,127,104.0
756,E3,67.75,0.25,127,104.0
757,E3,67.75,0.25,127,104.0
758,E2,67.75,0.25,127,104.0
759,D2,67.75,0.25,127,104.0
760,E3,67.75,0.25,127,104.0
761,E-3,68.0,0.25,127,104.0
762,E-3,68.0,0.25,127,104.0
763,E-2,68.0,0.25,127,104.0
764,E-3,68.0,0.25,127,104.0
765,B-2,68.0,0.25,127,104.0
766,C3,68.0,0.25,127,104.0
767,C#3,68.25,0.5,127,104.0
768,C#3,68.25,0.5,127,104.0
769,C#2,68.25,0.5,127,104.0
770,C#3,68.25,0.5,127,104.0
771,F#2,68.25,0.5,127,104.0
772,B2,68.25,0.5,127,104.0
773,B2,68.75,0.5,127,104.0
774,B2,68.75,0.5,127,104.0
775,B1,68.75,0.5,127,104.0
776,B2,68.75,0.5,127,104.0
777,F#2,68.75,0.5,127,104.0
778,A2,68.75,0.5,127,104.0
779,A3,69.25,0.25,127,104.0
780,A2,69.25,0.25,127,104.0
781,G2,69.25,0.75,127,104.0
782,A4,69.25,0.25,127,104.0
783,G#3,69.5,0.25,127,104.0
784,G#2,69.5,0.25,127,104.0
785,G#4,69.5,0.25,127,104.0
786,E3,69.75,0.25,127,104.0
787,E2,69.75,0.25,127,104.0
788,E4,69.75,0.25,127,104.0
789,A3,70.0,0.25,127,104.0
790,A2,70.0,0.25,127,104.0
791,A2,70.0,0.75,127,104.0
792,A4,70.0,0.25,127,104.0
793,G#3,70.25,0.25,127,104.0
794,G#2,70.25,0.25,127,104.0
795,G#4,70.25,0.25,127,104.0
796,E3,70.5,0.25,127,104.0
797,E2,70.5,0.25,127,104.0
798,E4,70.5,0.25,127,104.0
799,A3,70.75,0.25,127,104.0
800,A2,70.75,0.25,127,104.0
801,B2,70.75,0.5,127,104.0
802,A4,70.75,0.25,127,104.0
803,G#3,71.0,0.25,127,104.0
804,G#2,71.0,0.25,127,104.0
805,G#4,71.0,0.25,127,104.0
806,A3,71.25,0.25,127,104.0
807,A2,71.25,0.25,127,104.0
808,C3,71.25,0.5,127,104.0
809,A4,71.25,0.25,127,104.0
810,G#3,71.5,0.25,127,104.0
811,G#2,71.5,0.25,127,104.0
812,G#4,71.5,0.25,127,104.0
813,E3,71.75,0.25,127,104.0
814,E2,71.75,0.25,127,104.0
815,B-2,71.75,0.25,127,104.0
816,E4,71.75,0.25,127,104.0
817,A3,72.0,0.25,127,104.0
818,A2,72.0,0.25,127,104.0
819,A4,72.0,0.25,127,104.0
820,G#2,72.0,0.75,127,104.0
821,G2,72.0,0.75,127,104.0
822,G#3,72.25,0.25,127,104.0
823,G#2,72.25,0.25,127,104.0
824,G#4,72.25,0.25,127,104.0
825,E3,72.5,0.25,127,104.0
826,E2,72.5,0.25,127,104.0
827,E4,72.5,0.25,127,104.0
828,A3,72.75,0.25,127,104.0
829,A2,72.75,0.25,127,104.0
830,A2,72.75,0.75,127,104.0
831,A4,72.75,0.25,127,104.0
832,G#3,73.0,0.25,127,104.0
833,G#2,73.0,0.25,127,104.0
834,G#4,73.0,0.25,127,104.0
835,E3,73.25,0.25,127,104.0
836,E2,73.25,0.25,127,104.0
837,E4,73.25,0.25,127,104.0
838,A3,73.5,0.25,127,104.0
839,A2,73.5,0.25,127,104.0
840,B2,73.5,0.5,127,104.0
841,A4,73.5,0.25,127,104.0
842,G#3,73.75,0.25,127,104.0
843,G#2,73.75,0.25,127,104.0
844,G#4,73.75,0.25,127,104.0
845,A3,74.0,0.25,127,104.0
846,A2,74.0,0.25,127,104.0
847,C3,74.0,0.5,127,104.0
848,A4,74.0,0.25,127,104.0
849,G#3,74.25,0.25,127,104.0
850,G#2,74.25,0.25,127,104.0
851,G#4,74.25,0.25,127,104.0
852,E3,74.5,0.25,127,104.0
853,E2,74.5,0.25,127,104.0
854,B-2,74.5,0.25,127,104.0
855,E4,74.5,0.25,127,104.0
856,A3,74.75,0.25,127,104.0
857,A2,74.75,0.25,127,104.0
858,A4,74.75,0.25,127,104.0
859,G#2,74.75,0.75,127,104.0
860,G2,74.75,0.75,127,104.0
861,G#3,75.0,0.25,127,104.0
862,G#2,75.0,0.25,127,104.0
863,G#4,75.0,0.25,127,104.0
864,E3,75.25,0.25,127,104.0
865,E2,75.25,0.25,127,104.0
866,E4,75.25,0.25,127,104.0
867,A3,75.5,0.25,127,104.0
868,A2,75.5,0.25,127,104.0
869,A2,75.5,0.75,127,104.0
870,A4,75.5,0.25,127,104.0
871,G#3,75.75,0.25,127,104.0
872,G#2,75.75,0.25,127,104.0
873,G#4,75.75,0.25,127,104.0
874,E3,76.0,0.25,127,104.0
875,E2,76.0,0.25,127,104.0
876,E4,76.0,0.25,127,104.0
877,A3,76.25,0.25,127,104.0
878,A2,76.25,0.25,127,104.0
879,B2,76.25,0.5,127,104.0
880,A4,76.25,0.25,127,104.0
881,G#3,76.5,0.25,127,104.0
882,G#2,76.5,0.25,127,104.0
883,G#4,76.5,0.25,127,104.0
884,A3,76.75,0.25,127,104.0
885,A2,76.75,0.25,127,104.0
886,C3,76.75,0.5,127,104.0
887,A4,76.75,0.25,127,104.0
888,G#3,77.0,0.25,127,104.0
889,G#2,77.0,0.25,127,104.0
890,G#4,77.0,0.25,127,104.0
891,E3,77.25,0.25,127,104.0
892,E2,77.25,0.25,127,104.0
893,B-2,77.25,0.25,127,104.0
894,E4,77.25,0.25,127,104.0
895,A3,77.5,0.25,127,104.0
896,A2,77.5,0.25,127,104.0
897,A4,77.5,0.25,127,104.0
898,G#2,77.5,0.75,127,104.0
899,G2,77.5,0.75,127,104.0
900,G#3,77.75,0.25,127,104.0
901,G#2,77.75,0.25,127,104.0
902,G#4,77.75,0.25,127,104.0
903,E3,78.0,0.25,127,104.0
904,E2,78.0,0.25,127,104.0
905,E4,78.0,0.25,127,104.0
906,A3,78.25,0.25,127,104.0
907,A2,78.25,0.25,127,104.0
908,A2,78.25,0.75,127,104.0
909,A4,78.25,0.25,127,104.0
910,G#3,78.5,0.25,127,104.0
911,G#2,78.5,0.25,127,104.0
912,G#4,78.5,0.25,127,104.0
913,E3,78.75,0.25,127,104.0
914,E2,78.75,0.25,127,104.0
915,E4,78.75,0.25,127,104.0
916,A3,79.0,0.25,127,104.0
917,A2,79.0,0.25,127,104.0
918,B2,79.0,0.5,127,104.0
919,A4,79.0,0.25,127,104.0
920,G#3,79.25,0.25,127,104.0
921,G#2,79.25,0.25,127,104.0
922,G#4,79.25,0.25,127,104.0
923,A3,79.5,0.25,127,104.0
924,A2,79.5,0.25,127,104.0
925,C3,79.5,0.5,127,104.0
926,A4,79.5,0.25,127,104.0
927,G#3,79.75,0.25,127,104.0
928,G#2,79.75,0.25,127,104.0
929,G#4,79.75,0.25,127,104.0
930,E3,80.0,0.25,127,104.0
931,E2,80.0,0.25,127,104.0
932,B-2,80.0,0.25,127,104.0
933,E4,80.0,0.25,127,104.0
934,B-4,80.25,1.0,127,104.0
935,G#1,80.25,0.5,127,104.0
936,C#3,80.25,0.5,127,104.0
937,B1,80.25,0.5,127,104.0
938,G#4,80.25,2.0,127,104.0
939,E-4,80.25,2.0,127,104.0
940,G#1,80.75,0.5,127,104.0
941,E-3,80.75,0.5,127,104.0
942,B1,80.75,0.5,127,104.0
943,G#1,81.25,1.0,127,104.0
944,E-3,81.25,0.5,127,104.0
945,D2,81.25,0.5,127,104.0
946,B-4,81.75,167/1000,127,104.0
947,B1,81.75,0.5,127,104.0
948,B4,81.917,167/1000,102,104.0
949,B-4,82.083,167/1000,102,104.0
950,G#4,82.25,0.25,102,104.0
951,G#1,82.25,0.5,127,104.0
952,B4,82.25,2.0,127,104.0
953,E-3,82.25,0.5,127,104.0
954,B1,82.25,0.5,127,104.0
955,C#4,82.5,0.25,127,104.0
956,F#4,82.75,0.25,127,104.0
957,G#1,82.75,0.5,127,104.0
958,E-3,82.75,0.5,127,104.0
959,B1,82.75,0.5,127,104.0
960,G#4,83.0,0.25,127,104.0
961,B-4,83.25,0.25,127,104.0
962,G#1,83.25,1.0,127,104.0
963,E-3,83.25,0.5,127,104.0
964,D2,83.25,0.5,127,104.0
965,G#4,83.5,0.25,127,104.0
966,E-4,83.75,0.25,127,104.0
967,B-2,83.75,0.5,127,104.0
968,B1,83.75,0.5,127,104.0
969,G#4,84.25,0.25,127,104.0
970,G#1,84.25,0.5,127,104.0
971,C#5,84.25,0.75,127,104.0
972,G#2,84.25,0.5,127,104.0
973,B1,84.25,0.5,127,104.0
974,F#4,84.5,0.25,127,104.0
975,E-4,84.75,0.25,127,104.0
976,G#1,84.75,0.5,127,104.0
977,E-3,84.75,0.5,127,104.0
978,B1,84.75,0.5,127,104.0
979,C#4,85.0,0.25,127,104.0
980,G#4,85.0,0.75,127,104.0
981,B-3,85.25,0.125,127,104.0
982,G#1,85.25,1.0,127,104.0
983,E-3,85.25,0.5,127,104.0
984,D2,85.25,0.5,127,104.0
985,B3,85.375,0.125,102,104.0
986,B-3,85.5,0.125,102,104.0
987,G#3,85.625,0.125,127,104.0
988,F#3,85.75,0.25,102,104.0
989,B1,85.75,0.25,127,104.0
990,B-4,85.75,2.5,127,104.0
991,G#3,86.0,0.25,127,104.0
992,B1,86.0,0.25,127,104.0
993,G#3,86.25,0.25,127,104.0
994,G#1,86.25,0.5,127,104.0
995,E-3,86.25,0.5,127,104.0
996,B1,86.25,0.5,127,104.0
997,E-3,86.5,0.25,127,104.0
998,E-3,86.75,0.25,127,104.0
999,G#1,86.75,0.5,127,104.0
1000,G#4,86.75,1.5,127,104.0
1001,E-3,86.75,0.5,127,104.0
1002,B1,86.75,0.5,127,104.0
1003,G#3,87.0,0.75,127,104.0
1004,E-4,87.0,1.25,127,104.0
1005,G#1,87.25,1.0,127,104.0
1006,E-3,87.25,0.5,127,104.0
1007,D2,87.25,0.5,127,104.0
1008,B-2,87.75,0.5,127,104.0
1009,B1,87.75,0.5,127,104.0
1010,F#3,88.25,0.25,127,104.0
1011,G#1,88.25,0.5,127,104.0
1012,B-4,88.25,4.0,127,104.0
1013,G#4,88.25,4.0,127,104.0
1014,E-4,88.25,4.0,127,104.0
1015,G#2,88.25,0.5,127,104.0
1016,B1,88.25,0.5,127,104.0
1017,G#3,88.5,0.25,127,104.0
1018,G#3,88.75,0.25,127,104.0
1019,G#1,88.75,0.5,127,104.0
1020,E-3,88.75,0.5,127,104.0
1021,B1,88.75,0.5,127,104.0
1022,G#3,89.0,0.25,127,104.0
1023,F#3,89.25,0.25,127,104.0
1024,G#1,89.25,1.0,127,104.0
1025,E-3,89.25,0.5,127,104.0
1026,D2,89.25,0.5,127,104.0
1027,G#3,89.5,0.25,127,104.0
1028,E-3,89.75,0.5,127,104.0
1029,B1,89.75,0.5,127,104.0
1030,C#3,90.25,0.25,127,104.0
1031,G#1,90.25,0.5,127,104.0
1032,E-3,90.25,0.5,127,104.0
1033,B1,90.25,0.5,127,104.0
1034,E-3,90.5,0.25,127,104.0
1035,B2,90.75,0.5,127,104.0
1036,G#1,90.75,0.5,127,104.0
1037,E-3,90.75,0.5,127,104.0
1038,B1,90.75,0.5,127,104.0
1039,B-2,91.25,1.0,127,104.0
1040,G#1,91.25,1.0,127,104.0
1041,E-3,91.25,0.5,127,104.0
1042,D2,91.25,0.5,127,104.0
1043,D2,91.75,0.125,127,104.0
1044,D2,91.875,0.125,127,104.0
1045,D2,92.0,0.125,127,104.0
1046,D2,92.125,0.125,127,104.0
1047,B-2,92.25,0.25,127,104.0
1048,G#1,92.25,0.5,127,104.0
1049,G#2,92.25,0.5,127,104.0
1050,B1,92.25,0.5,127,104.0
1051,B-2,92.5,0.25,127,104.0
1052,C#3,92.75,0.25,127,104.0
1053,G#1,92.75,0.5,127,104.0
1054,E-3,92.75,0.5,127,104.0
1055,B1,92.75,0.5,127,104.0
1056,C#3,93.0,0.25,127,104.0
1057,E-3,93.25,0.25,127,104.0
1058,G#1,93.25,1.0,127,104.0
1059,E-3,93.25,0.5,127,104.0
1060,D2,93.25,0.5,127,104.0
1061,F#3,93.5,0.25,127,104.0
1062,E-3,93.75,0.5,127,104.0
1063,E-3,93.75,0.5,127,104.0
1064,B1,93.75,0.5,127,104.0
1065,G#1,94.25,0.5,127,104.0
1066,E-3,94.25,0.25,127,104.0
1067,C3,94.25,0.25,127,104.0
1068,C3,94.5,0.25,127,104.0
1069,E-4,94.75,0.25,127,104.0
1070,G#1,94.75,0.5,127,104.0
1071,E-3,94.75,0.25,127,104.0
1072,B2,94.75,0.25,127,104.0
1073,C#4,95.0,0.25,127,104.0
1074,B2,95.0,0.25,127,104.0
1075,E-4,95.25,0.5,127,104.0
1076,G#1,95.25,1.0,127,104.0
1077,E-3,95.25,0.25,127,104.0
1078,A2,95.25,0.25,127,104.0
1079,A2,95.5,0.25,127,104.0
1080,F#3,95.75,0.5,127,104.0
1081,E-3,95.75,0.5,127,104.0
1082,A2,95.75,0.5,127,104.0
1083,G#3,96.25,0.25,127,104.0
1084,G#3,96.25,0.25,127,104.0
1085,G#2,96.25,0.25,127,104.0
1086,G#4,96.25,0.25,127,104.0
1087,G#2,96.25,1.0,127,104.0
1088,B1,96.25,1.0,127,104.0
1089,E3,96.5,0.25,127,104.0
1090,E3,96.5,0.25,127,104.0
1091,E2,96.5,0.25,127,104.0
1092,E4,96.5,0.25,127,104.0
1093,G#3,96.75,0.25,127,104.0
1094,G#3,96.75,0.25,127,104.0
1095,G#2,96.75,0.25,127,104.0
1096,G#4,96.75,0.25,127,104.0
1097,B-3,97.0,0.25,127,104.0
1098,B-3,97.0,0.25,127,104.0
1099,B-2,97.0,0.25,127,104.0
1100,B-4,97.0,0.25,127,104.0
1101,B3,97.25,0.25,127,104.0
1102,B3,97.25,0.25,127,104.0
1103,B2,97.25,0.25,127,104.0
1104,B4,97.25,0.25,127,104.0
1105,B-3,97.5,0.25,127,104.0
1106,B-3,97.5,0.25,127,104.0
1107,B-2,97.5,0.25,127,104.0
1108,B-4,97.5,0.25,127,104.0
1109,G#3,97.75,0.25,127,104.0
1110,G#3,97.75,0.25,127,104.0
1111,G#2,97.75,0.25,127,104.0
1112,G#4,97.75,0.25,127,104.0
1113,F#3,98.0,0.25,127,104.0
1114,F#3,98.0,0.25,127,104.0
1115,F#2,98.0,0.25,127,104.0
1116,F#4,98.0,0.25,127,104.0
1117,G#3,98.25,0.25,127,104.0
1118,G#3,98.25,0.25,127,104.0
1119,G#2,98.25,0.25,127,104.0
1120,G#4,98.25,0.25,127,104.0
1121,F#3,98.5,0.25,127,104.0
1122,F#3,98.5,0.25,127,104.0
1123,F#2,98.5,0.25,127,104.0
1124,F#4,98.5,0.25,127,104.0
1125,E3,98.75,0.25,127,104.0
1126,E3,98.75,0.25,127,104.0
1127,E2,98.75,0.25,127,104.0
1128,E4,98.75,0.25,127,104.0
1129,D3,99.0,0.5,127,104.0
1130,D3,99.0,0.5,127,104.0
1131,D2,99.0,0.5,127,104.0
1132,D4,99.0,0.5,127,104.0
1133,G#4,99.5,0.25,127,104.0
1134,G#4,99.5,0.25,127,104.0
1135,D2,99.5,1.0,127,104.0
1136,G#4,99.5,0.25,127,104.0
1137,E4,99.75,0.25,127,104.0
1138,E4,99.75,0.25,127,104.0
1139,E4,99.75,0.25,127,104.0
1140,G#4,100.0,0.25,127,104.0
1141,G#4,100.0,0.25,127,104.0
1142,G#4,100.0,0.25,127,104.0
1143,B-4,100.25,0.25,127,104.0
1144,B-4,100.25,0.25,127,104.0
1145,B-4,100.25,0.25,127,104.0
1146,B4,100.5,0.25,127,104.0
1147,B4,100.5,0.25,127,104.0
1148,B4,100.5,0.25,127,104.0
1149,B-4,100.75,0.25,127,104.0
1150,B-4,100.75,0.25,127,104.0
1151,B-4,100.75,0.25,127,104.0
1152,G#4,101.0,0.25,127,104.0
1153,G#4,101.0,0.25,127,104.0
1154,G#4,101.0,0.25,127,104.0
1155,F#4,101.25,0.25,127,104.0
1156,F#4,101.25,0.25,127,104.0
1157,F#4,101.25,0.25,127,104.0
1158,G#4,101.5,0.25,127,104.0
1159,G#4,101.5,0.25,127,104.0
1160,G#4,101.5,0.25,127,104.0
1161,F#4,101.75,0.25,127,104.0
1162,F#4,101.75,0.25,127,104.0
1163,F#4,101.75,0.25,127,104.0
1164,E4,102.0,0.25,127,104.0
1165,E4,102.0,0.25,127,104.0
1166,E4,102.0,0.25,127,104.0
1167,D4,102.25,0.5,127,104.0
1168,D4,102.25,0.5,127,104.0
1169,D4,102.25,0.5,127,104.0
1170,F#4,102.75,0.25,127,104.0
1171,F#3,102.75,0.25,127,104.0
1172,F#2,102.75,0.25,127,104.0
1173,C3,102.75,1.0,127,104.0
1174,F#4,102.75,0.25,127,104.0
1175,D4,103.0,0.25,127,104.0
1176,D3,103.0,0.25,127,104.0
1177,D2,103.0,0.25,127,104.0
1178,D4,103.0,0.25,127,104.0
1179,F#4,103.25,0.25,127,104.0
1180,F#3,103.25,0.25,127,104.0
1181,F#2,103.25,0.25,127,104.0
1182,F#4,103.25,0.25,127,104.0
1183,G#4,103.5,0.25,127,104.0
1184,G#3,103.5,0.25,127,104.0
1185,G#2,103.5,0.25,127,104.0
1186,G#4,103.5,0.25,127,104.0
1187,A4,103.75,0.25,127,104.0
1188,A3,103.75,0.25,127,104.0
1189,A2,103.75,0.25,127,104.0
1190,A4,103.75,0.25,127,104.0
1191,G#4,104.0,0.25,127,104.0
1192,G#3,104.0,0.25,127,104.0
1193,G#2,104.0,0.25,127,104.0
1194,G#4,104.0,0.25,127,104.0
1195,F#4,104.25,0.25,127,104.0
1196,F#3,104.25,0.25,127,104.0
1197,F#2,104.25,0.25,127,104.0
1198,F#4,104.25,0.25,127,104.0
1199,E4,104.5,0.5,127,104.0
1200,E3,104.5,0.5,127,104.0
1201,E2,104.5,0.5,127,104.0
1202,E4,104.5,0.5,127,104.0
1203,F#3,105.0,0.25,127,104.0
1204,F#4,105.0,0.25,127,104.0
1205,B2,105.0,1.0,127,104.0
1206,F#4,105.0,0.25,127,104.0
1207,D3,105.25,0.25,127,104.0
1208,D4,105.25,0.25,127,104.0
1209,D4,105.25,0.25,127,104.0
1210,F#3,105.5,0.25,127,104.0
1211,F#4,105.5,0.25,127,104.0
1212,F#4,105.5,0.25,127,104.0
1213,G#3,105.75,0.25,127,104.0
1214,G#4,105.75,0.25,127,104.0
1215,G#4,105.75,0.25,127,104.0
1216,A3,106.0,0.25,127,104.0
1217,A4,106.0,0.25,127,104.0
1218,A4,106.0,0.25,127,104.0
1219,G#3,106.25,0.25,127,104.0
1220,G#4,106.25,0.25,127,104.0
1221,G#4,106.25,0.25,127,104.0
1222,F#3,106.5,0.25,127,104.0
1223,F#4,106.5,0.25,127,104.0
1224,F#4,106.5,0.25,127,104.0
1225,E3,106.75,0.5,127,104.0
1226,E4,106.75,0.5,127,104.0
1227,E4,106.75,0.5,127,104.0
1228,G#3,107.25,0.25,127,104.0
1229,G#3,107.25,0.25,127,104.0
1230,G#2,107.25,0.25,127,104.0
1231,G#4,107.25,0.25,127,104.0
1232,G#2,107.25,1.0,127,104.0
1233,B1,107.25,1.0,127,104.0
1234,E3,107.5,0.25,127,104.0
1235,E3,107.5,0.25,127,104.0
1236,E2,107.5,0.25,127,104.0
1237,E4,107.5,0.25,127,104.0
1238,G#3,107.75,0.25,127,104.0
1239,G#3,107.75,0.25,127,104.0
1240,G#2,107.75,0.25,127,104.0
1241,G#4,107.75,0.25,127,104.0
1242,B-3,108.0,0.25,127,104.0
1243,B-3,108.0,0.25,127,104.0
1244,B-2,108.0,0.25,127,104.0
1245,B-4,108.0,0.25,127,104.0
1246,B3,108.25,0.25,127,104.0
1247,B3,108.25,0.25,127,104.0
1248,B2,108.25,0.25,127,104.0
1249,B4,108.25,0.25,127,104.0
1250,B-3,108.5,0.25,127,104.0
1251,B-3,108.5,0.25,127,104.0
1252,B-2,108.5,0.25,127,104.0
1253,B-4,108.5,0.25,127,104.0
1254,G#3,108.75,0.25,127,104.0
1255,G#3,108.75,0.25,127,104.0
1256,G#2,108.75,0.25,127,104.0
1257,G#4,108.75,0.25,127,104.0
1258,F#3,109.0,0.25,127,104.0
1259,F#3,109.0,0.25,127,104.0
1260,F#2,109.0,0.25,127,104.0
1261,F#4,109.0,0.25,127,104.0
1262,G#3,109.25,0.25,127,104.0
1263,G#3,109.25,0.25,127,104.0
1264,G#2,109.25,0.25,127,104.0
1265,G#4,109.25,0.25,127,104.0
1266,F#3,109.5,0.25,127,104.0
1267,F#3,109.5,0.25,127,104.0
1268,F#2,109.5,0.25,127,104.0
1269,F#4,109.5,0.25,127,104.0
1270,E3,109.75,0.25,127,104.0
1271,E3,109.75,0.25,127,104.0
1272,E2,109.75,0.25,127,104.0
1273,E4,109.75,0.25,127,104.0
1274,D3,110.0,0.5,127,104.0
1275,D3,110.0,0.5,127,104.0
1276,D2,110.0,0.5,127,104.0
1277,D4,110.0,0.5,127,104.0
1278,G#4,110.5,0.25,127,104.0
1279,G#4,110.5,0.25,127,104.0
1280,D2,110.5,1.0,127,104.0
1281,G#4,110.5,0.25,127,104.0
1282,E4,110.75,0.25,127,104.0
1283,E4,110.75,0.25,127,104.0
1284,E4,110.75,0.25,127,104.0
1285,G#4,111.0,0.25,127,104.0
1286,G#4,111.0,0.25,127,104.0
1287,G#4,111.0,0.25,127,104.0
1288,B-4,111.25,0.25,127,104.0
1289,B-4,111.25,0.25,127,104.0
1290,B-4,111.25,0.25,127,104.0
1291,B4,111.5,0.25,127,104.0
1292,B4,111.5,0.25,127,104.0
1293,B4,111.5,0.25,127,104.0
1294,B-4,111.75,0.25,127,104.0
1295,B-4,111.75,0.25,127,104.0
1296,B-4,111.75,0.25,127,104.0
1297,G#4,112.0,0.25,127,104.0
1298,G#4,112.0,0.25,127,104.0
1299,G#4,112.0,0.25,127,104.0
1300,F#4,112.25,0.25,127,104.0
1301,F#4,112.25,0.25,127,104.0
1302,F#4,112.25,0.25,127,104.0
1303,G#4,112.5,0.25,127,104.0
1304,G#4,112.5,0.25,127,104.0
1305,G#4,112.5,0.25,127,104.0
1306,F#4,112.75,0.25,127,104.0
1307,F#4,112.75,0.25,127,104.0
1308,F#4,112.75,0.25,127,104.0
1309,E4,113.0,0.25,127,104.0
1310,E4,113.0,0.25,127,104.0
1311,E4,113.0,0.25,127,104.0
1312,D4,113.25,0.5,127,104.0
1313,D4,113.25,0.5,127,104.0
1314,D4,113.25,0.5,127,104.0
1315,F#4,113.75,0.25,127,104.0
1316,F#3,113.75,0.25,127,104.0
1317,F#2,113.75,0.25,127,104.0
1318,C3,113.75,1.0,127,104.0
1319,F#4,113.75,0.25,127,104.0
1320,D4,114.0,0.25,127,104.0
1321,D3,114.0,0.25,127,104.0
1322,D2,114.0,0.25,127,104.0
1323,D4,114.0,0.25,127,104.0
1324,F#4,114.25,0.25,127,104.0
1325,F#3,114.25,0.25,127,104.0
1326,F#2,114.25,0.25,127,104.0
1327,F#4,114.25,0.25,127,104.0
1328,G#4,114.5,0.25,127,104.0
1329,G#3,114.5,0.25,127,104.0
1330,G#2,114.5,0.25,127,104.0
1331,G#4,114.5,0.25,127,104.0
1332,A4,114.75,0.25,127,104.0
1333,A3,114.75,0.25,127,104.0
1334,A2,114.75,0.25,127,104.0
1335,A4,114.75,0.25,127,104.0
1336,G#4,115.0,0.25,127,104.0
1337,G#3,115.0,0.25,127,104.0
1338,G#2,115.0,0.25,127,104.0
1339,G#4,115.0,0.25,127,104.0
1340,F#4,115.25,0.25,127,104.0
1341,F#3,115.25,0.25,127,104.0
1342,F#2,115.25,0.25,127,104.0
1343,F#4,115.25,0.25,127,104.0
1344,E4,115.5,0.5,127,104.0
1345,E3,115.5,0.5,127,104.0
1346,E2,115.5,0.5,127,104.0
1347,E4,115.5,0.5,127,104.0
1348,F#3,116.0,0.25,127,104.0
1349,F#4,116.0,0.25,127,104.0
1350,B2,116.0,1.0,127,104.0
1351,F#4,116.0,0.25,127,104.0
1352,D3,116.25,0.25,127,104.0
1353,D4,116.25,0.25,127,104.0
1354,D4,116.25,0.25,127,104.0
1355,F#3,116.5,0.25,127,104.0
1356,F#4,116.5,0.25,127,104.0
1357,F#4,116.5,0.25,127,104.0
1358,G#3,116.75,0.25,127,104.0
1359,G#4,116.75,0.25,127,104.0
1360,G#4,116.75,0.25,127,104.0
1361,A3,117.0,0.25,127,104.0
1362,A4,117.0,0.25,127,104.0
1363,A4,117.0,0.25,127,104.0
1364,G#3,117.25,0.25,127,104.0
1365,G#4,117.25,0.25,127,104.0
1366,G#4,117.25,0.25,127,104.0
1367,F#3,117.5,0.25,127,104.0
1368,F#4,117.5,0.25,127,104.0
1369,F#4,117.5,0.25,127,104.0
1370,E3,117.75,0.5,127,104.0
1371,E4,117.75,0.5,127,104.0
1372,E4,117.75,0.5,127,104.0
1373,D3,118.25,4.0,127,104.0
1374,D2,118.25,4.0,127,104.0
1375,G2,118.25,0.125,127,104.0
1376,B1,118.25,1.0,127,104.0
1377,D4,118.25,3.0,127,104.0
1378,D4,118.25,2.0,127,104.0
1379,A3,118.25,4.0,127,104.0
1380,D3,118.25,4.0,127,104.0
1381,G2,118.375,0.125,127,104.0
1382,G2,118.5,0.125,127,104.0
1383,G2,118.625,0.125,127,104.0
1384,G2,118.75,0.125,127,104.0
1385,G2,118.875,0.125,127,104.0
1386,G2,119.0,0.125,127,104.0
1387,G2,119.125,31/250,127,104.0
1388,A2,119.25,0.125,127,104.0
1389,B1,119.25,1.0,127,104.0
1390,A2,119.375,0.125,127,104.0
1391,A2,119.5,0.125,127,104.0
1392,A2,119.625,0.125,127,104.0
1393,A2,119.75,0.125,127,104.0
1394,A2,119.875,0.125,127,104.0
1395,A2,120.0,0.125,127,104.0
1396,A2,120.125,31/250,127,104.0
1397,D2,120.25,0.125,127,104.0
1398,B1,120.25,1.0,127,104.0
1399,D4,120.25,0.125,95,104.0
1400,D2,120.375,0.125,127,104.0
1401,D5,120.375,0.125,95,104.0
1402,D2,120.5,0.125,127,104.0
1403,D4,120.5,0.125,95,104.0
1404,D2,120.625,0.125,127,104.0
1405,D5,120.625,0.125,95,104.0
1406,D2,120.75,0.125,127,104.0
1407,D4,120.75,0.125,95,104.0
1408,D2,120.875,0.125,127,104.0
1409,D5,120.875,0.125,95,104.0
1410,D2,121.0,0.125,127,104.0
1411,D4,121.0,0.125,95,104.0
1412,D2,121.125,0.125,127,104.0
1413,D5,121.125,0.125,95,104.0
1414,D2,121.25,0.125,127,104.0
1415,B1,121.25,1.0,127,104.0
1416,D4,121.25,0.125,95,104.0
1417,D2,121.375,0.125,127,104.0
1418,D5,121.375,0.125,95,104.0
1419,D2,121.5,0.125,127,104.0
1420,D4,121.5,0.125,95,104.0
1421,D2,121.625,0.125,127,104.0
1422,D5,121.625,0.125,95,104.0
1423,D2,121.75,0.125,127,104.0
1424,D4,121.75,0.125,95,104.0
1425,D2,121.875,0.125,127,104.0
1426,D5,121.875,0.125,95,104.0
1427,D2,122.0,0.125,127,104.0
1428,D4,122.0,0.125,95,104.0
1429,D2,122.125,0.125,127,104.0
1430,D5,122.125,0.125,95,104.0
1431,D3,122.25,4.0,127,104.0
1432,D2,122.25,4.0,127,104.0
1433,D2,122.25,0.125,127,104.0
1434,B1,122.25,1.0,127,104.0
1435,D4,122.25,0.125,95,104.0
1436,D2,122.375,0.125,127,104.0
1437,D5,122.375,0.125,95,104.0
1438,D2,122.5,0.125,127,104.0
1439,D4,122.5,0.125,95,104.0
1440,D2,122.625,0.125,127,104.0
1441,D5,122.625,0.125,95,104.0
1442,D2,122.75,0.125,127,104.0
1443,D4,122.75,0.125,95,104.0
1444,D2,122.875,0.125,127,104.0
1445,D5,122.875,0.125,95,104.0
1446,D2,123.0,0.125,127,104.0
1447,D4,123.0,0.125,95,104.0
1448,D2,123.125,0.125,127,104.0
1449,D5,123.125,0.125,95,104.0
1450,D2,123.25,0.125,127,104.0
1451,B1,123.25,1.0,127,104.0
1452,D4,123.25,0.125,95,104.0
1453,D2,123.375,0.125,127,104.0
1454,D5,123.375,0.125,95,104.0
1455,D2,123.5,0.125,127,104.0
1456,D4,123.5,0.125,95,104.0
1457,D2,123.625,0.125,127,104.0
1458,D5,123.625,0.125,95,104.0
1459,D2,123.75,0.125,127,104.0
1460,D4,123.75,0.125,95,104.0
1461,D2,123.875,0.125,127,104.0
1462,D5,123.875,0.125,95,104.0
1463,D2,124.0,0.125,127,104.0
1464,D4,124.0,0.125,95,104.0
1465,D2,124.125,0.125,127,104.0
1466,D5,124.125,31/250,95,104.0
1467,D2,124.25,0.125,127,104.0
1468,B1,124.25,1.0,127,104.0
1469,D2,124.375,0.125,127,104.0
1470,D2,124.5,0.125,127,104.0
1471,D2,124.625,0.125,127,104.0
1472,D2,124.75,0.125,127,104.0
1473,D2,124.875,0.125,127,104.0
1474,D2,125.0,0.125,127,104.0
1475,D2,125.125,0.125,127,104.0
1476,D2,125.25,0.125,127,104.0
1477,B1,125.25,0.75,127,104.0
1478,D2,125.375,0.125,127,104.0
1479,D2,125.5,0.125,127,104.0
1480,D2,125.625,0.125,127,104.0
1481,D2,125.75,0.125,127,104.0
1482,D2,125.875,31/250,127,104.0
1483,C#3,126.0,0.25,127,104.0
1484,B1,126.25,0.5,127,104.0
1485,D4,126.25,0.25,127,104.0
1486,A3,126.25,4.0,127,104.0
1487,D3,126.25,4.0,127,104.0
1488,E-3,126.25,0.5,127,104.0
1489,B1,126.25,0.5,127,104.0
1490,C#4,126.5,0.25,127,104.0
1491,B1,126.75,0.25,127,104.0
1492,B3,126.75,0.25,127,104.0
1493,E-3,126.75,0.25,127,104.0
1494,B1,126.75,0.25,127,104.0
1495,B2,127.0,0.25,127,104.0
1496,A3,127.0,0.25,127,104.0
1497,E-3,127.0,0.25,127,104.0
1498,D2,127.0,0.25,127,104.0
1499,G3,127.25,0.25,127,104.0
1500,B2,127.5,0.25,127,104.0
1501,B3,127.5,0.25,127,104.0
1502,B-2,127.5,0.25,127,104.0
1503,D2,127.5,0.25,127,104.0
1504,B1,127.75,0.5,127,104.0
1505,F#3,127.75,0.5,127,104.0
1506,G#2,127.75,0.5,127,104.0
1507,B1,127.75,0.5,127,104.0
1508,B1,128.25,0.25,127,104.0
1509,E3,128.25,1.0,127,104.0
1510,E-3,128.25,0.25,127,104.0
1511,B1,128.25,0.25,127,104.0
1512,B2,128.5,0.25,127,104.0
1513,D2,128.5,0.5,127,104.0
1514,B2,129.0,0.25,127,104.0
1515,B-2,129.0,0.25,127,104.0
1516,D2,129.0,0.25,127,104.0
1517,B1,129.0,0.25,127,104.0
1518,B1,129.25,0.5,127,104.0
1519,A5,129.25,0.125,127,104.0
1520,G#2,129.25,0.125,127,104.0
1521,D2,129.25,0.125,127,104.0
1522,B1,129.25,0.125,127,104.0
1523,D2,129.375,0.125,127,104.0
1524,B5,129.375,0.125,127,104.0
1525,D2,129.5,0.25,127,104.0
1526,D6,129.5,0.25,127,104.0
1527,B1,129.75,0.25,127,104.0
1528,B5,129.75,0.125,127,104.0
1529,G#2,129.75,0.125,127,104.0
1530,D2,129.75,0.125,127,104.0
1531,B1,129.75,0.125,127,104.0
1532,D2,129.875,0.125,127,104.0
1533,A5,129.875,0.125,127,104.0
1534,B2,130.0,0.25,127,104.0
1535,F#5,130.0,0.25,127,104.0
1536,D2,130.0,0.25,127,104.0
1537,B1,130.0,0.25,127,104.0
1538,C3,130.25,0.125,127,104.0
1539,E5,130.25,0.125,127,104.0
1540,C3,130.375,0.125,127,104.0
1541,F#5,130.375,0.125,127,104.0
1542,B2,130.5,0.25,127,104.0
1543,A5,130.5,0.25,127,104.0
1544,B2,130.5,0.25,127,104.0
1545,B1,130.5,0.25,127,104.0
1546,B1,130.75,0.5,127,104.0
1547,B1,130.75,0.5,127,104.0
1548,B4,130.75,0.5,127,104.0
1549,B1,131.25,0.25,127,104.0
1550,B4,131.25,0.25,127,104.0
1551,B-2,131.25,0.25,127,104.0
1552,B1,131.25,0.25,127,104.0
1553,B2,131.5,0.25,127,104.0
1554,B5,131.5,0.75,127,104.0
1555,C#3,131.5,0.5,127,104.0
1556,D2,131.5,0.5,127,104.0
1557,B2,132.0,0.25,127,104.0
1558,B-2,132.0,0.25,127,104.0
1559,B1,132.25,0.5,127,104.0
1560,D4,132.25,0.25,127,104.0
1561,E-3,132.25,0.5,127,104.0
1562,B1,132.25,0.5,127,104.0
1563,C#4,132.5,0.25,127,104.0
1564,B1,132.75,0.25,127,104.0
1565,B3,132.75,0.25,127,104.0
1566,E-3,132.75,0.25,127,104.0
1567,B1,132.75,0.25,127,104.0
1568,B2,133.0,0.25,127,104.0
1569,A3,133.0,0.25,127,104.0
1570,E-3,133.0,0.25,127,104.0
1571,D2,133.0,0.25,127,104.0
1572,A4,133.25,0.125,127,104.0
1573,G3,133.25,0.25,127,104.0
1574,B4,133.375,0.125,127,104.0
1575,D5,133.5,0.25,127,104.0
1576,B2,133.5,0.25,127,104.0
1577,B3,133.5,0.25,127,104.0
1578,B-2,133.5,0.25,127,104.0
1579,D2,133.5,0.25,127,104.0
1580,B4,133.75,0.125,127,104.0
1581,B1,133.75,0.5,127,104.0
1582,F#3,133.75,0.5,127,104.0
1583,G#2,133.75,0.5,127,104.0
1584,B1,133.75,0.5,127,104.0
1585,A4,133.875,0.125,127,104.0
1586,F#4,134.0,0.25,127,104.0
1587,E4,134.25,0.125,127,104.0
1588,B1,134.25,0.25,127,104.0
1589,E3,134.25,1.0,127,104.0
1590,E-3,134.25,0.25,127,104.0
1591,B1,134.25,0.25,127,104.0
1592,F#4,134.375,0.125,127,104.0
1593,A4,134.5,0.25,127,104.0
1594,B2,134.5,0.25,127,104.0
1595,D2,134.5,0.5,127,104.0
1596,B3,134.75,0.5,127,104.0
1597,B2,135.0,0.25,127,104.0
1598,B-2,135.0,0.25,127,104.0
1599,D2,135.0,0.25,127,104.0
1600,B1,135.0,0.25,127,104.0
1601,B3,135.25,0.25,127,104.0
1602,B1,135.25,0.5,127,104.0
1603,A5,135.25,0.125,127,104.0
1604,G#2,135.25,0.125,127,104.0
1605,D2,135.25,0.125,127,104.0
1606,B1,135.25,0.125,127,104.0
1607,D2,135.375,0.125,127,104.0
1608,B5,135.375,0.125,127,104.0
1609,B4,135.5,0.75,127,104.0
1610,D2,135.5,0.25,127,104.0
1611,D6,135.5,0.25,127,104.0
1612,B1,135.75,0.25,127,104.0
1613,B5,135.75,0.125,127,104.0
1614,G#2,135.75,0.125,127,104.0
1615,D2,135.75,0.125,127,104.0
1616,B1,135.75,0.125,127,104.0
1617,D2,135.875,0.125,127,104.0
1618,A5,135.875,0.125,127,104.0
1619,B2,136.0,0.25,127,104.0
1620,F#5,136.0,0.25,127,104.0
1621,D2,136.0,0.25,127,104.0
1622,B1,136.0,0.25,127,104.0
1623,C3,136.25,0.125,127,104.0
1624,E5,136.25,0.125,127,104.0
1625,C3,136.375,0.125,127,104.0
1626,F#5,136.375,0.125,127,104.0
1627,B2,136.5,0.25,127,104.0
1628,A5,136.5,0.25,127,104.0
1629,B2,136.5,0.25,127,104.0
1630,B1,136.5,0.25,127,104.0
1631,B1,136.75,0.5,127,104.0
1632,B1,136.75,0.5,127,104.0
1633,B4,136.75,0.5,127,104.0
1634,B1,137.25,0.25,127,104.0
1635,B4,137.25,0.25,127,104.0
1636,B-2,137.25,0.25,127,104.0
1637,B1,137.25,0.25,127,104.0
1638,B2,137.5,0.25,127,104.0
1639,B5,137.5,0.75,127,104.0
1640,C#3,137.5,0.5,127,104.0
1641,D2,137.5,0.5,127,104.0
1642,B2,138.0,0.25,127,104.0
1643,B-2,138.0,0.25,127,104.0
1644,B1,138.25,0.5,127,104.0
1645,D4,138.25,0.25,127,104.0
1646,E-3,138.25,0.5,127,104.0
1647,B1,138.25,0.5,127,104.0
1648,C#4,138.5,0.25,127,104.0
1649,B1,138.75,0.25,127,104.0
1650,B3,138.75,0.25,127,104.0
1651,E-3,138.75,0.25,127,104.0
1652,B1,138.75,0.25,127,104.0
1653,B2,139.0,0.25,127,104.0
1654,A3,139.0,0.25,127,104.0
1655,E-3,139.0,0.25,127,104.0
1656,D2,139.0,0.25,127,104.0
1657,A4,139.25,0.125,127,104.0
1658,G3,139.25,0.25,127,104.0
1659,B4,139.375,0.125,127,104.0
1660,D5,139.5,0.25,127,104.0
1661,B2,139.5,0.25,127,104.0
1662,B3,139.5,0.25,127,104.0
1663,B-2,139.5,0.25,127,104.0
1664,D2,139.5,0.25,127,104.0
1665,B4,139.75,0.125,127,104.0
1666,B1,139.75,0.5,127,104.0
1667,F#3,139.75,0.5,127,104.0
1668,G#2,139.75,0.5,127,104.0
1669,B1,139.75,0.5,127,104.0
1670,A4,139.875,0.125,127,104.0
1671,F#4,140.0,0.25,127,104.0
1672,E4,140.25,0.125,127,104.0
1673,B1,140.25,0.25,127,104.0
1674,E3,140.25,1.0,127,104.0
1675,E-3,140.25,0.25,127,104.0
1676,B1,140.25,0.25,127,104.0
1677,F#4,140.375,0.125,127,104.0
1678,A4,140.5,0.25,127,104.0
1679,B2,140.5,0.25,127,104.0
1680,D2,140.5,0.5,127,104.0
1681,B3,140.75,0.5,127,104.0
1682,B2,141.0,0.25,127,104.0
1683,B-2,141.0,0.25,127,104.0
1684,D2,141.0,0.25,127,104.0
1685,B1,141.0,0.25,127,104.0
1686,B3,141.25,0.25,127,104.0
1687,B1,141.25,0.5,127,104.0
1688,A5,141.25,0.125,127,104.0
1689,G#2,141.25,0.125,127,104.0
1690,D2,141.25,0.125,127,104.0
1691,B1,141.25,0.125,127,104.0
1692,D2,141.375,0.125,127,104.0
1693,B5,141.375,0.125,127,104.0
1694,B4,141.5,0.75,127,104.0
1695,D2,141.5,0.25,127,104.0
1696,D6,141.5,0.25,127,104.0
1697,B1,141.75,0.25,127,104.0
1698,B5,141.75,0.125,127,104.0
1699,G#2,141.75,0.125,127,104.0
1700,D2,141.75,0.125,127,104.0
1701,B1,141.75,0.125,127,104.0
1702,D2,141.875,0.125,127,104.0
1703,A5,141.875,0.125,127,104.0
1704,B2,142.0,0.25,127,104.0
1705,F#5,142.0,0.25,127,104.0
1706,D2,142.0,0.25,127,104.0
1707,B1,142.0,0.25,127,104.0
1708,C3,142.25,0.125,127,104.0
1709,E5,142.25,0.125,127,104.0
1710,C3,142.375,0.125,127,104.0
1711,F#5,142.375,0.125,127,104.0
1712,B2,142.5,0.25,127,104.0
1713,A5,142.5,0.25,127,104.0
1714,B2,142.5,0.25,127,104.0
1715,B1,142.5,0.25,127,104.0
1716,B1,142.75,0.5,127,104.0
1717,B1,142.75,0.5,127,104.0
1718,B4,142.75,0.5,127,104.0
1719,B1,143.25,0.25,127,104.0
1720,B4,143.25,0.25,127,104.0
1721,B-2,143.25,0.25,127,104.0
1722,B1,143.25,0.25,127,104.0
1723,B2,143.5,0.25,127,104.0
1724,B5,143.5,0.75,127,104.0
1725,C#3,143.5,0.5,127,104.0
1726,D2,143.5,0.5,127,104.0
1727,B2,144.0,0.25,127,104.0
1728,B-2,144.0,0.25,127,104.0
1729,B1,144.25,0.5,127,104.0
1730,D4,144.25,0.25,127,104.0
1731,E-3,144.25,0.5,127,104.0
1732,B1,144.25,0.5,127,104.0
1733,C#4,144.5,0.25,127,104.0
1734,B1,144.75,0.25,127,104.0
1735,B3,144.75,0.25,127,104.0
1736,E-3,144.75,0.25,127,104.0
1737,B1,144.75,0.25,127,104.0
1738,B2,145.0,0.25,127,104.0
1739,A3,145.0,0.25,127,104.0
1740,E-3,145.0,0.25,127,104.0
1741,D2,145.0,0.25,127,104.0
1742,A4,145.25,0.125,127,104.0
1743,G3,145.25,0.25,127,104.0
1744,B4,145.375,0.125,127,104.0
1745,D5,145.5,0.25,127,104.0
1746,B2,145.5,0.25,127,104.0
1747,B3,145.5,0.25,127,104.0
1748,B-2,145.5,0.25,127,104.0
1749,D2,145.5,0.25,127,104.0
1750,B4,145.75,0.125,127,104.0
1751,B1,145.75,0.5,127,104.0
1752,F#3,145.75,0.5,127,104.0
1753,G#2,145.75,0.5,127,104.0
1754,B1,145.75,0.5,127,104.0
1755,A4,145.875,0.125,127,104.0
1756,F#4,146.0,0.25,127,104.0
1757,E4,146.25,0.125,127,104.0
1758,B1,146.25,0.25,127,104.0
1759,E3,146.25,1.0,127,104.0
1760,E-3,146.25,0.25,127,104.0
1761,B1,146.25,0.25,127,104.0
1762,F#4,146.375,0.125,127,104.0
1763,A4,146.5,0.25,127,104.0
1764,B2,146.5,0.25,127,104.0
1765,D2,146.5,0.5,127,104.0
1766,B3,146.75,0.5,127,104.0
1767,B2,147.0,0.25,127,104.0
1768,B-2,147.0,0.25,127,104.0
1769,D2,147.0,0.25,127,104.0
1770,B1,147.0,0.25,127,104.0
1771,B3,147.25,0.25,127,104.0
1772,B1,147.25,0.5,127,104.0
1773,A5,147.25,0.125,127,104.0
1774,G#2,147.25,0.125,127,104.0
1775,D2,147.25,0.125,127,104.0
1776,B1,147.25,0.125,127,104.0
1777,D2,147.375,0.125,127,104.0
1778,B5,147.375,0.125,127,104.0
1779,B4,147.5,0.75,127,104.0
1780,D2,147.5,0.25,127,104.0
1781,D6,147.5,0.25,127,104.0
1782,B1,147.75,0.25,127,104.0
1783,B5,147.75,0.125,127,104.0
1784,G#2,147.75,0.125,127,104.0
1785,D2,147.75,0.125,127,104.0
1786,B1,147.75,0.125,127,104.0
1787,D2,147.875,0.125,127,104.0
1788,A5,147.875,0.125,127,104.0
1789,B2,148.0,0.25,127,104.0
1790,F#5,148.0,0.25,127,104.0
1791,D2,148.0,0.25,127,104.0
1792,B1,148.0,0.25,127,104.0
1793,C3,148.25,0.125,127,104.0
1794,E5,148.25,0.125,127,104.0
1795,C3,148.375,0.125,127,104.0
1796,F#5,148.375,0.125,127,104.0
1797,B2,148.5,0.25,127,104.0
1798,A5,148.5,0.25,127,104.0
1799,B2,148.5,0.25,127,104.0
1800,B1,148.5,0.25,127,104.0
1801,B1,148.75,0.5,127,104.0
1802,B1,148.75,0.5,127,104.0
1803,B4,148.75,0.5,127,104.0
1804,B1,149.25,0.25,127,104.0
1805,B4,149.25,0.25,127,104.0
1806,B-2,149.25,0.25,127,104.0
1807,B1,149.25,0.25,127,104.0
1808,B2,149.5,0.25,127,104.0
1809,B5,149.5,0.75,127,104.0
1810,C#3,149.5,0.5,127,104.0
1811,D2,149.5,0.5,127,104.0
1812,B2,150.0,0.25,127,104.0
1813,B-2,150.0,0.25,127,104.0
1814,E4,150.25,0.25,127,104.0
1815,C#3,150.25,2.0,127,104.0
1816,E4,150.25,0.25,127,104.0
1817,C#3,150.25,2.0,127,104.0
1818,B1,150.25,2.0,127,104.0
1819,E-4,150.5,0.25,127,104.0
1820,E-4,150.5,0.25,127,104.0
1821,C#4,150.75,0.25,127,104.0
1822,C#4,150.75,0.25,127,104.0
1823,B3,151.0,0.25,127,104.0
1824,B3,151.0,0.25,127,104.0
1825,A4,151.25,0.125,127,104.0
1826,A3,151.25,0.25,127,104.0
1827,A3,151.25,0.25,127,104.0
1828,B4,151.375,0.125,127,104.0
1829,D5,151.5,0.25,127,104.0
1830,C#4,151.5,0.25,127,104.0
1831,C#4,151.5,0.25,127,104.0
1832,B4,151.75,0.125,127,104.0
1833,G#3,151.75,0.5,127,104.0
1834,G#3,151.75,0.5,127,104.0
1835,A4,151.875,0.125,127,104.0
1836,F#4,152.0,0.25,127,104.0
1837,E4,152.25,0.125,127,104.0
1838,E4,152.25,0.25,127,104.0
1839,C3,152.25,1.5,127,104.0
1840,E5,152.25,0.25,127,104.0
1841,C#3,152.25,1.5,127,104.0
1842,D2,152.25,1.5,127,104.0
1843,F#4,152.375,0.125,127,104.0
1844,A4,152.5,0.25,127,104.0
1845,E-4,152.5,0.25,127,104.0
1846,E-5,152.5,0.25,127,104.0
1847,B3,152.75,0.5,127,104.0
1848,C#4,152.75,0.25,127,104.0
1849,C#5,152.75,0.25,127,104.0
1850,B3,153.0,0.25,127,104.0
1851,B4,153.0,0.25,127,104.0
1852,B3,153.25,0.25,127,104.0
1853,A3,153.25,0.25,127,104.0
1854,A4,153.25,0.25,127,104.0
1855,B4,153.5,0.75,127,104.0
1856,C#4,153.5,0.25,127,104.0
1857,C#5,153.5,0.25,127,104.0
1858,G#3,153.75,0.25,127,104.0
1859,B2,153.75,0.75,127,104.0
1860,C3,153.75,0.75,127,104.0
1861,G#4,153.75,0.25,127,104.0
1862,A3,154.0,0.25,102,104.0
1863,A4,154.0,0.25,102,104.0
1864,E4,154.25,0.25,127,104.0
1865,C#4,154.25,0.25,127,104.0
1866,C#5,154.25,0.25,127,104.0
1867,E-4,154.5,0.25,127,104.0
1868,G#3,154.5,0.25,127,104.0
1869,B-2,154.5,0.75,127,104.0
1870,G#4,154.5,0.25,127,104.0
1871,C#3,154.5,0.75,127,104.0
1872,D2,154.5,0.75,127,104.0
1873,C#4,154.75,0.25,127,104.0
1874,A3,154.75,0.25,102,104.0
1875,A4,154.75,0.25,102,104.0
1876,B3,155.0,0.25,127,104.0
1877,C#4,155.0,0.25,127,104.0
1878,C#5,155.0,0.25,127,104.0
1879,A3,155.25,0.25,127,104.0
1880,G#3,155.25,167/1000,127,104.0
1881,A2,155.25,0.5,127,104.0
1882,G#4,155.25,167/1000,127,104.0
1883,D2,155.25,0.5,127,104.0
1884,B1,155.25,0.5,127,104.0
1885,A3,155.417,167/1000,102,104.0
1886,A4,155.417,167/1000,102,104.0
1887,C#4,155.5,0.25,127,104.0
1888,C#4,155.583,167/1000,127,104.0
1889,C#5,155.583,167/1000,127,104.0
1890,G#3,155.75,0.5,127,104.0
1891,G#3,155.75,167/1000,127,104.0
1892,G#2,155.75,0.5,127,104.0
1893,G#4,155.75,167/1000,127,104.0
1894,D2,155.75,0.5,127,104.0
1895,B1,155.75,0.5,127,104.0
1896,A3,155.917,167/1000,102,104.0
1897,A4,155.917,167/1000,102,104.0
1898,C#4,156.083,167/1000,127,104.0
1899,C#5,156.083,167/1000,127,104.0
1900,E4,156.25,0.25,127,104.0
1901,E4,156.25,0.25,127,104.0
1902,G2,156.25,2.0,127,104.0
1903,E4,156.25,0.25,127,104.0
1904,C#3,156.25,2.0,127,104.0
1905,B1,156.25,2.0,127,104.0
1906,E-4,156.5,0.25,127,104.0
1907,E-4,156.5,0.25,127,104.0
1908,E-4,156.5,0.25,127,104.0
1909,C#4,156.75,0.25,127,104.0
1910,C#4,156.75,0.25,127,104.0
1911,C#4,156.75,0.25,127,104.0
1912,B3,157.0,0.25,127,104.0
1913,B3,157.0,0.25,127,104.0
1914,B3,157.0,0.25,127,104.0
1915,A3,157.25,0.25,127,104.0
1916,A3,157.25,0.25,127,104.0
1917,A3,157.25,0.25,127,104.0
1918,C#4,157.5,0.25,127,104.0
1919,C#4,157.5,0.25,127,104.0
1920,C#4,157.5,0.25,127,104.0
1921,G#3,157.75,0.25,127,104.0
1922,G#3,157.75,0.5,127,104.0
1923,G#3,157.75,0.5,127,104.0
1924,A3,158.0,0.25,102,104.0
1925,C#4,158.25,0.25,127,104.0
1926,E4,158.25,0.25,127,104.0
1927,F#2,158.25,1.5,127,104.0
1928,E5,158.25,0.25,127,104.0
1929,F#2,158.25,1.5,127,104.0
1930,D2,158.25,1.5,127,104.0
1931,G#3,158.5,0.25,127,104.0
1932,E-4,158.5,0.25,127,104.0
1933,E-5,158.5,0.25,127,104.0
1934,A3,158.75,0.25,102,104.0
1935,C#4,158.75,0.25,127,104.0
1936,C#5,158.75,0.25,127,104.0
1937,C#4,159.0,0.25,127,104.0
1938,B3,159.0,0.25,127,104.0
1939,B4,159.0,0.25,127,104.0
1940,G#3,159.25,167/1000,127,104.0
1941,A3,159.25,0.25,127,104.0
1942,A4,159.25,0.25,127,104.0
1943,A3,159.417,167/1000,102,104.0
1944,C#4,159.5,0.25,127,104.0
1945,C#5,159.5,0.25,127,104.0
1946,C#4,159.583,167/1000,127,104.0
1947,G#3,159.75,167/1000,127,104.0
1948,G#3,159.75,0.25,127,104.0
1949,F2,159.75,0.75,127,104.0
1950,C3,159.75,0.75,127,104.0
1951,G#4,159.75,0.25,127,104.0
1952,A3,159.917,167/1000,102,104.0
1953,A3,160.0,0.25,102,104.0
1954,A4,160.0,0.25,102,104.0
1955,C#4,160.083,167/1000,127,104.0
1956,E4,160.25,0.25,127,104.0
1957,C#4,160.25,0.25,127,104.0
1958,C#5,160.25,0.25,127,104.0
1959,E-4,160.5,0.25,127,104.0
1960,G#3,160.5,0.25,127,104.0
1961,E2,160.5,0.75,127,104.0
1962,B2,160.5,0.75,127,104.0
1963,G#4,160.5,0.25,127,104.0
1964,C#4,160.75,0.25,127,104.0
1965,A3,160.75,0.25,102,104.0
1966,A4,160.75,0.25,102,104.0
1967,B3,161.0,0.25,127,104.0
1968,C#4,161.0,0.25,127,104.0
1969,C#5,161.0,0.25,127,104.0
1970,A3,161.25,0.25,127,104.0
1971,G#3,161.25,167/1000,127,104.0
1972,E-2,161.25,0.5,127,104.0
1973,G#4,161.25,167/1000,127,104.0
1974,G#2,161.25,167/1000,127,104.0
1975,D2,161.25,167/1000,127,104.0
1976,A3,161.417,167/1000,102,104.0
1977,D2,161.417,167/1000,127,104.0
1978,A4,161.417,167/1000,102,104.0
1979,C#4,161.5,0.25,127,104.0
1980,C#4,161.583,167/1000,127,104.0
1981,D2,161.583,167/1000,127,104.0
1982,C#5,161.583,167/1000,127,104.0
1983,G#3,161.75,0.5,127,104.0
1984,G#3,161.75,167/1000,127,104.0
1985,D2,161.75,0.5,127,104.0
1986,G#4,161.75,167/1000,127,104.0
1987,G#2,161.75,167/1000,127,104.0
1988,A2,161.75,167/1000,127,104.0
1989,A3,161.917,167/1000,102,104.0
1990,A2,161.917,167/1000,127,104.0
1991,A4,161.917,167/1000,102,104.0
1992,C#4,162.083,167/1000,127,104.0
1993,A2,162.083,167/1000,127,104.0
1994,C#5,162.083,167/1000,127,104.0
1995,E4,162.25,0.25,127,104.0
1996,E4,162.25,0.25,127,104.0
1997,C#2,162.25,2.0,127,104.0
1998,B1,162.25,2.0,127,104.0
1999,E4,162.25,0.25,127,104.0
2000,E-4,162.5,0.25,127,104.0
2001,E-4,162.5,0.25,127,104.0
2002,E-4,162.5,0.25,127,104.0
2003,C#4,162.75,0.25,127,104.0
2004,C#4,162.75,0.25,127,104.0
2005,C#4,162.75,0.25,127,104.0
2006,B3,163.0,0.25,127,104.0
2007,B3,163.0,0.25,127,104.0
2008,B3,163.0,0.25,127,104.0
2009,A3,163.25,0.25,127,104.0
2010,A3,163.25,0.25,127,104.0
2011,A3,163.25,0.25,127,104.0
2012,C#4,163.5,0.25,127,104.0
2013,C#4,163.5,0.25,127,104.0
2014,C#4,163.5,0.25,127,104.0
2015,G#3,163.75,0.25,127,104.0
2016,G#3,163.75,0.5,127,104.0
2017,G#3,163.75,0.5,127,104.0
2018,A3,164.0,0.25,102,104.0
2019,C#4,164.25,0.25,127,104.0
2020,E4,164.25,0.25,127,104.0
2021,E-2,164.25,1.5,127,104.0
2022,E5,164.25,0.25,127,104.0
2023,C#3,164.25,1.5,127,104.0
2024,D2,164.25,1.5,127,104.0
2025,G#3,164.5,0.25,127,104.0
2026,E-4,164.5,0.25,127,104.0
2027,E-5,164.5,0.25,127,104.0
2028,A3,164.75,0.25,102,104.0
2029,C#4,164.75,0.25,127,104.0
2030,C#5,164.75,0.25,127,104.0
2031,C#4,165.0,0.25,127,104.0
2032,B3,165.0,0.25,127,104.0
2033,B4,165.0,0.25,127,104.0
2034,G#3,165.25,167/1000,127,104.0
2035,A3,165.25,0.25,127,104.0
2036,A4,165.25,0.25,127,104.0
2037,A3,165.417,167/1000,102,104.0
2038,C#4,165.5,0.25,127,104.0
2039,C#5,165.5,0.25,127,104.0
2040,C#4,165.583,167/1000,127,104.0
2041,G#3,165.75,167/1000,127,104.0
2042,G#3,165.75,0.25,127,104.0
2043,F2,165.75,0.75,127,104.0
2044,G#4,165.75,0.25,127,104.0
2045,A2,165.75,0.75,127,104.0
2046,G2,165.75,0.75,127,104.0
2047,A3,165.917,167/1000,102,104.0
2048,A3,166.0,0.25,102,104.0
2049,A4,166.0,0.25,102,104.0
2050,C#4,166.083,167/1000,127,104.0
2051,E4,166.25,0.25,127,104.0
2052,C#4,166.25,0.25,127,104.0
2053,C#5,166.25,0.25,127,104.0
2054,E-4,166.5,0.25,127,104.0
2055,G#3,166.5,0.25,127,104.0
2056,G2,166.5,0.75,127,104.0
2057,G#4,166.5,0.25,127,104.0
2058,B2,166.5,0.75,127,104.0
2059,A2,166.5,0.75,127,104.0
2060,C#4,166.75,0.25,127,104.0
2061,A3,166.75,0.25,102,104.0
2062,A4,166.75,0.25,102,104.0
2063,B3,167.0,0.25,127,104.0
2064,C#4,167.0,0.25,127,104.0
2065,C#5,167.0,0.25,127,104.0
2066,A3,167.25,0.25,127,104.0
2067,G#3,167.25,167/1000,127,104.0
2068,A2,167.25,0.5,127,104.0
2069,G#4,167.25,167/1000,127,104.0
2070,G#2,167.25,167/1000,127,104.0
2071,A2,167.25,167/1000,127,104.0
2072,A3,167.417,167/1000,102,104.0
2073,A2,167.417,167/1000,127,104.0
2074,A4,167.417,167/1000,102,104.0
2075,C#4,167.5,0.25,127,104.0
2076,C#4,167.583,167/1000,127,104.0
2077,A2,167.583,167/1000,127,104.0
2078,C#5,167.583,167/1000,127,104.0
2079,G#3,167.75,0.5,127,104.0
2080,G#3,167.75,167/1000,127,104.0
2081,B2,167.75,0.5,127,104.0
2082,G#4,167.75,167/1000,127,104.0
2083,G#2,167.75,167/1000,127,104.0
2084,D2,167.75,167/1000,127,104.0
2085,A3,167.917,167/1000,102,104.0
2086,D2,167.917,167/1000,127,104.0
2087,A4,167.917,167/1000,102,104.0
2088,C#4,168.083,167/1000,127,104.0
2089,D2,168.083,167/1000,127,104.0
2090,C#5,168.083,167/1000,127,104.0
2091,E4,168.25,0.25,127,104.0
2092,E4,168.25,0.25,127,104.0
2093,C#3,168.25,2.0,127,104.0
2094,E4,168.25,0.25,127,104.0
2095,G2,168.25,2.0,127,104.0
2096,B1,168.25,2.0,127,104.0
2097,E-4,168.5,0.25,127,104.0
2098,E-4,168.5,0.25,127,104.0
2099,E-4,168.5,0.25,127,104.0
2100,C#4,168.75,0.25,127,104.0
2101,C#4,168.75,0.25,127,104.0
2102,C#4,168.75,0.25,127,104.0
2103,B3,169.0,0.25,127,104.0
2104,B3,169.0,0.25,127,104.0
2105,B3,169.0,0.25,127,104.0
2106,A3,169.25,0.25,127,104.0
2107,A3,169.25,0.25,127,104.0
2108,A3,169.25,0.25,127,104.0
2109,C#4,169.5,0.25,127,104.0
2110,C#4,169.5,0.25,127,104.0
2111,C#4,169.5,0.25,127,104.0
2112,G#3,169.75,0.25,127,104.0
2113,G#3,169.75,0.5,127,104.0
2114,G#3,169.75,0.5,127,104.0
2115,A3,170.0,0.25,102,104.0
2116,C#4,170.25,0.25,127,104.0
2117,E4,170.25,0.25,127,104.0
2118,E-3,170.25,1.5,127,104.0
2119,E5,170.25,0.25,127,104.0
2120,C#3,170.25,1.5,127,104.0
2121,F2,170.25,1.5,127,104.0
2122,G#3,170.5,0.25,127,104.0
2123,E-4,170.5,0.25,127,104.0
2124,E-5,170.5,0.25,127,104.0
2125,A3,170.75,0.25,102,104.0
2126,C#4,170.75,0.25,127,104.0
2127,C#5,170.75,0.25,127,104.0
2128,C#4,171.0,0.25,127,104.0
2129,B3,171.0,0.25,127,104.0
2130,B4,171.0,0.25,127,104.0
2131,G#3,171.25,167/1000,127,104.0
2132,A3,171.25,0.25,127,104.0
2133,A4,171.25,0.25,127,104.0
2134,A3,171.417,167/1000,102,104.0
2135,C#4,171.5,0.25,127,104.0
2136,C#5,171.5,0.25,127,104.0
2137,C#4,171.583,167/1000,127,104.0
2138,G#3,171.75,167/1000,127,104.0
2139,G#3,171.75,0.25,127,104.0
2140,F3,171.75,0.75,127,104.0
2141,G#4,171.75,0.25,127,104.0
2142,C3,171.75,0.75,127,104.0
2143,B2,171.75,0.75,127,104.0
2144,A3,171.917,167/1000,102,104.0
2145,A3,172.0,0.25,102,104.0
2146,A4,172.0,0.25,102,104.0
2147,C#4,172.083,167/1000,127,104.0
2148,E4,172.25,0.25,127,104.0
2149,C#4,172.25,0.25,127,104.0
2150,C#5,172.25,0.25,127,104.0
2151,E-4,172.5,0.25,127,104.0
2152,G#3,172.5,0.25,127,104.0
2153,G3,172.5,0.75,127,104.0
2154,G#4,172.5,0.25,127,104.0
2155,D3,172.5,0.75,127,104.0
2156,C3,172.5,0.75,127,104.0
2157,C#4,172.75,0.25,127,104.0
2158,A3,172.75,0.25,102,104.0
2159,A4,172.75,0.25,102,104.0
2160,B3,173.0,0.25,127,104.0
2161,C#4,173.0,0.25,127,104.0
2162,C#5,173.0,0.25,127,104.0
2163,A3,173.25,0.25,127,104.0
2164,G#3,173.25,167/1000,127,104.0
2165,A3,173.25,0.5,127,104.0
2166,G#4,173.25,167/1000,127,104.0
2167,G#2,173.25,167/1000,127,104.0
2168,D2,173.25,167/1000,127,104.0
2169,A3,173.417,167/1000,102,104.0
2170,D2,173.417,167/1000,127,104.0
2171,A4,173.417,167/1000,102,104.0
2172,C#4,173.5,0.25,127,104.0
2173,C#4,173.583,167/1000,127,104.0
2174,D2,173.583,167/1000,127,104.0
2175,C#5,173.583,167/1000,127,104.0
2176,G#3,173.75,0.5,127,104.0
2177,G#3,173.75,167/1000,127,104.0
2178,B3,173.75,0.5,127,104.0
2179,D2,173.75,167/1000,127,104.0
2180,G#4,173.75,167/1000,127,104.0
2181,A3,173.917,167/1000,102,104.0
2182,D2,173.917,167/1000,127,104.0
2183,A4,173.917,167/1000,102,104.0
2184,C#4,174.083,167/1000,127,104.0
2185,D2,174.083,167/1000,127,104.0
2186,C#5,174.083,167/1000,127,104.0
2187,E4,174.25,0.25,127,104.0
2188,F#1,174.25,0.25,127,104.0
2189,F2,174.25,0.25,127,104.0
2190,D4,174.25,0.25,127,104.0
2191,D5,174.25,0.25,127,104.0
2192,E-4,174.5,0.25,127,104.0
2193,A1,174.5,0.25,127,104.0
2194,G2,174.5,0.25,127,104.0
2195,C#4,174.5,0.25,127,104.0
2196,C#5,174.5,0.25,127,104.0
2197,C#4,174.75,0.25,127,104.0
2198,C2,174.75,0.25,127,104.0
2199,A2,174.75,0.25,127,104.0
2200,B3,174.75,0.25,127,104.0
2201,B4,174.75,0.25,127,104.0
2202,B3,175.0,0.25,127,104.0
2203,E-2,175.0,0.25,127,104.0
2204,B2,175.0,0.25,127,104.0
2205,A3,175.0,0.25,127,104.0
2206,A4,175.0,0.25,127,104.0
2207,A3,175.25,0.25,127,104.0
2208,F#2,175.25,0.25,127,104.0
2209,C3,175.25,0.25,127,104.0
2210,G3,175.25,0.25,127,104.0
2211,G4,175.25,0.25,127,104.0
2212,C#4,175.5,0.25,127,104.0
2213,A2,175.5,0.25,127,104.0
2214,D3,175.5,0.25,127,104.0
2215,B3,175.5,0.25,127,104.0
2216,B4,175.5,0.25,127,104.0
2217,G#3,175.75,0.25,127,104.0
2218,C3,175.75,0.5,127,104.0
2219,D3,175.75,0.5,127,104.0
2220,F#3,175.75,0.5,127,104.0
2221,F#4,175.75,0.5,127,104.0
2222,A3,176.0,0.25,102,104.0
2223,C#4,176.25,0.25,127,104.0
2224,A2,176.25,1.0,127,104.0
2225,E3,176.25,1.0,127,104.0
2226,E4,176.25,1.0,127,104.0
2227,C#3,176.25,1.0,127,104.0
2228,B1,176.25,1.0,127,104.0
2229,G#3,176.5,0.25,127,104.0
2230,A3,176.75,0.25,102,104.0
2231,C#4,177.0,0.25,127,104.0
2232,G#3,177.25,167/1000,127,104.0
2233,A2,177.25,4.0,127,104.0
2234,E3,177.25,4.0,127,104.0
2235,B4,177.25,0.5,127,104.0
2236,F#4,177.25,0.5,127,104.0
2237,A2,177.25,167/1000,127,104.0
2238,B1,177.25,167/1000,127,104.0
2239,A3,177.417,167/1000,102,104.0
2240,A2,177.417,167/1000,95,104.0
2241,C#4,177.583,167/1000,127,104.0
2242,A2,177.583,167/1000,95,104.0
2243,G#3,177.75,167/1000,127,104.0
2244,A2,177.75,167/1000,95,104.0
2245,A4,177.75,0.5,127,104.0
2246,E4,177.75,0.5,127,104.0
2247,A3,177.917,167/1000,102,104.0
2248,A2,177.917,167/1000,95,104.0
2249,C#4,178.083,167/1000,127,104.0
2250,A2,178.083,167/1000,95,104.0
2251,D4,178.25,0.25,127,104.0
2252,A4,178.25,0.5,127,104.0
2253,E4,178.25,0.5,127,104.0
2254,A2,178.25,167/1000,127,104.0
2255,B1,178.25,167/1000,127,104.0
2256,A2,178.417,167/1000,95,104.0
2257,C#4,178.5,0.25,127,104.0
2258,A2,178.583,167/1000,95,104.0
2259,B3,178.75,0.25,127,104.0
2260,A2,178.75,167/1000,95,104.0
2261,B4,178.75,0.5,127,104.0
2262,F#4,178.75,0.5,127,104.0
2263,A2,178.917,167/1000,95,104.0
2264,A3,179.0,0.25,127,104.0
2265,A2,179.083,167/1000,95,104.0
2266,G3,179.25,0.25,127,104.0
2267,C#5,179.25,1.0,127,104.0
2268,A4,179.25,1.0,127,104.0
2269,A2,179.25,167/1000,127,104.0
2270,B1,179.25,167/1000,127,104.0
2271,A2,179.417,167/1000,95,104.0
2272,B3,179.5,0.25,127,104.0
2273,A2,179.583,167/1000,95,104.0
2274,F#3,179.75,0.5,127,104.0
2275,A2,179.75,167/1000,95,104.0
2276,A2,179.917,167/1000,95,104.0
2277,A2,180.083,167/1000,95,104.0
2278,E3,180.25,1.0,127,104.0
2279,E5,180.25,0.5,127,104.0
2280,B4,180.25,0.5,127,104.0
2281,A2,180.25,167/1000,127,104.0
2282,B1,180.25,167/1000,127,104.0
2283,A2,180.417,167/1000,95,104.0
2284,A2,180.583,167/1000,95,104.0
2285,A2,180.75,167/1000,95,104.0
2286,C#5,180.75,0.5,127,104.0
2287,A4,180.75,0.5,127,104.0
2288,A2,180.917,167/1000,95,104.0
2289,A2,181.083,167/1000,95,104.0
2290,E3,181.25,4.0,127,104.0
2291,A2,181.25,4.0,127,104.0
2292,C#5,181.25,0.5,127,104.0
2293,A4,181.25,0.5,127,104.0
2294,A2,181.25,167/1000,127,104.0
2295,B1,181.25,167/1000,127,104.0
2296,A2,181.417,167/1000,95,104.0
2297,A2,181.583,167/1000,95,104.0
2298,A2,181.75,167/1000,95,104.0
2299,B4,181.75,0.5,127,104.0
2300,F#4,181.75,0.5,127,104.0
2301,A2,181.917,167/1000,95,104.0
2302,A2,182.083,167/1000,95,104.0
2303,B4,182.25,0.5,127,104.0
2304,F#4,182.25,0.5,127,104.0
2305,A2,182.25,167/1000,127,104.0
2306,B1,182.25,167/1000,127,104.0
2307,A2,182.417,167/1000,95,104.0
2308,A2,182.583,167/1000,95,104.0
2309,A4,182.75,0.5,127,104.0
2310,A2,182.75,167/1000,95,104.0
2311,A2,182.917,167/1000,95,104.0
2312,A2,183.083,167/1000,95,104.0
2313,F#4,183.25,1/5,127,104.0
2314,A2,183.25,167/1000,127,104.0
2315,B1,183.25,167/1000,127,104.0
2316,A2,183.417,167/1000,95,104.0
2317,A4,183.45,1/5,127,104.0
2318,A2,183.583,167/1000,95,104.0
2319,F#4,183.65,1/5,127,104.0
2320,A2,183.75,167/1000,95,104.0
2321,E4,183.85,1/5,127,104.0
2322,A2,183.917,167/1000,95,104.0
2323,D4,184.05,1/5,127,104.0
2324,A2,184.083,167/1000,95,104.0
2325,E4,184.25,1.0,127,104.0
2326,A2,184.25,167/1000,127,104.0
2327,B1,184.25,167/1000,127,104.0
2328,A2,184.417,167/1000,95,104.0
2329,A2,184.583,167/1000,95,104.0
2330,D2,184.75,0.5,127,104.0
2331,F#1,185.25,0.25,127,104.0
2332,F2,185.25,0.25,127,104.0
2333,D4,185.25,0.25,127,104.0
2334,D5,185.25,0.25,127,104.0
2335,A1,185.5,0.25,127,104.0
2336,G2,185.5,0.25,127,104.0
2337,C#4,185.5,0.25,127,104.0
2338,C#5,185.5,0.25,127,104.0
2339,C2,185.75,0.25,127,104.0
2340,A2,185.75,0.25,127,104.0
2341,B3,185.75,0.25,127,104.0
2342,B4,185.75,0.25,127,104.0
2343,E-2,186.0,0.25,127,104.0
2344,B2,186.0,0.25,127,104.0
2345,A3,186.0,0.25,127,104.0
2346,A4,186.0,0.25,127,104.0
2347,F#2,186.25,0.25,127,104.0
2348,C3,186.25,0.25,127,104.0
2349,G3,186.25,0.25,127,104.0
2350,G4,186.25,0.25,127,104.0
2351,A2,186.5,0.25,127,104.0
2352,D3,186.5,0.25,127,104.0
2353,B3,186.5,0.25,127,104.0
2354,B4,186.5,0.25,127,104.0
2355,C3,186.75,0.5,127,104.0
2356,D3,186.75,0.5,127,104.0
2357,F#3,186.75,0.5,127,104.0
2358,F#4,186.75,0.5,127,104.0
2359,A2,187.25,1.0,127,104.0
2360,E3,187.25,1.0,127,104.0
2361,E4,187.25,1.0,127,104.0
2362,C#3,187.25,1.0,127,104.0
2363,B1,187.25,1.0,127,104.0
2364,A2,188.25,4.0,127,104.0
2365,E3,188.25,4.0,127,104.0
2366,B4,188.25,0.5,127,104.0
2367,F#4,188.25,0.5,127,104.0
2368,A2,188.25,167/1000,127,104.0
2369,B1,188.25,167/1000,127,104.0
2370,A2,188.417,167/1000,95,104.0
2371,A2,188.583,167/1000,95,104.0
2372,A2,188.75,167/1000,95,104.0
2373,A4,188.75,0.5,127,104.0
2374,E4,188.75,0.5,127,104.0
2375,A2,188.917,167/1000,95,104.0
2376,A2,189.083,167/1000,95,104.0
2377,D4,189.25,0.25,127,104.0
2378,A4,189.25,0.5,127,104.0
2379,E4,189.25,0.5,127,104.0
2380,A2,189.25,167/1000,127,104.0
2381,B1,189.25,167/1000,127,104.0
2382,A2,189.417,167/1000,95,104.0
2383,C#4,189.5,0.25,127,104.0
2384,A2,189.583,167/1000,95,104.0
2385,B3,189.75,0.25,127,104.0
2386,A2,189.75,167/1000,95,104.0
2387,B4,189.75,0.5,127,104.0
2388,F#4,189.75,0.5,127,104.0
2389,A2,189.917,167/1000,95,104.0
2390,A3,190.0,0.25,127,104.0
2391,A2,190.083,167/1000,95,104.0
2392,G3,190.25,0.25,127,104.0
2393,C#5,190.25,1.0,127,104.0
2394,A4,190.25,1.0,127,104.0
2395,A2,190.25,167/1000,127,104.0
2396,B1,190.25,167/1000,127,104.0
2397,A2,190.417,167/1000,95,104.0
2398,B3,190.5,0.25,127,104.0
2399,A2,190.583,167/1000,95,104.0
2400,F#3,190.75,0.5,127,104.0
2401,A2,190.75,167/1000,95,104.0
2402,A2,190.917,167/1000,95,104.0
2403,A2,191.083,167/1000,95,104.0
2404,E3,191.25,1.0,127,104.0
2405,E5,191.25,0.5,127,104.0
2406,B4,191.25,0.5,127,104.0
2407,A2,191.25,167/1000,127,104.0
2408,B1,191.25,167/1000,127,104.0
2409,A2,191.417,167/1000,95,104.0
2410,A2,191.583,167/1000,95,104.0
2411,A2,191.75,167/1000,95,104.0
2412,C#5,191.75,0.5,127,104.0
2413,A4,191.75,0.5,127,104.0
2414,A2,191.917,167/1000,95,104.0
2415,A2,192.083,167/1000,95,104.0
2416,E3,192.25,4.0,127,104.0
2417,A2,192.25,4.0,127,104.0
2418,C#5,192.25,0.5,127,104.0
2419,A4,192.25,0.5,127,104.0
2420,A2,192.25,167/1000,127,104.0
2421,B1,192.25,167/1000,127,104.0
2422,A2,192.417,167/1000,95,104.0
2423,A2,192.583,167/1000,95,104.0
2424,A2,192.75,167/1000,95,104.0
2425,B4,192.75,0.5,127,104.0
2426,F#4,192.75,0.5,127,104.0
2427,A2,192.917,167/1000,95,104.0
2428,A2,193.083,167/1000,95,104.0
2429,B4,193.25,0.5,127,104.0
2430,F#4,193.25,0.5,127,104.0
2431,A2,193.25,167/1000,127,104.0
2432,B1,193.25,167/1000,127,104.0
2433,A2,193.417,167/1000,95,104.0
2434,A2,193.583,167/1000,95,104.0
2435,A4,193.75,0.5,127,104.0
2436,A2,193.75,167/1000,95,104.0
2437,A2,193.917,167/1000,95,104.0
2438,A2,194.083,167/1000,95,104.0
2439,F#4,194.25,1/5,127,104.0
2440,A2,194.25,167/1000,127,104.0
2441,B1,194.25,167/1000,127,104.0
2442,A2,194.417,167/1000,95,104.0
2443,A4,194.45,1/5,127,104.0
2444,A2,194.583,167/1000,95,104.0
2445,F#4,194.65,1/5,127,104.0
2446,A2,194.75,167/1000,95,104.0
2447,E4,194.85,1/5,127,104.0
2448,A2,194.917,167/1000,95,104.0
2449,D4,195.05,1/5,127,104.0
2450,A2,195.083,167/1000,95,104.0
2451,E4,195.25,1.0,127,104.0
2452,A2,195.25,167/1000,127,104.0
2453,B1,195.25,167/1000,127,104.0
2454,A2,195.417,167/1000,95,104.0
2455,A2,195.583,167/1000,95,104.0
2456,D2,195.75,0.5,127,104.0
2457,E4,196.25,0.25,127,104.0
2458,C#3,196.25,2.0,127,104.0
2459,E4,196.25,0.25,127,104.0
2460,C#3,196.25,2.0,127,104.0
2461,B1,196.25,2.0,127,104.0
2462,E-4,196.5,0.25,127,104.0
2463,E-4,196.5,0.25,127,104.0
2464,C#4,196.75,0.25,127,104.0
2465,C#4,196.75,0.25,127,104.0
2466,B3,197.0,0.25,127,104.0
2467,B3,197.0,0.25,127,104.0
2468,A3,197.25,0.25,127,104.0
2469,A3,197.25,0.25,127,104.0
2470,C#4,197.5,0.25,127,104.0
2471,C#4,197.5,0.25,127,104.0
2472,G#3,197.75,0.5,127,104.0
2473,G#3,197.75,0.5,127,104.0
2474,E4,198.25,0.25,127,104.0
2475,C3,198.25,1.5,127,104.0
2476,E5,198.25,0.25,127,104.0
2477,C#3,198.25,1.5,127,104.0
2478,D2,198.25,1.5,127,104.0
2479,E-4,198.5,0.25,127,104.0
2480,E-5,198.5,0.25,127,104.0
2481,C#4,198.75,0.25,127,104.0
2482,C#5,198.75,0.25,127,104.0
2483,B3,199.0,0.25,127,104.0
2484,B4,199.0,0.25,127,104.0
2485,A3,199.25,0.25,127,104.0
2486,A4,199.25,0.25,127,104.0
2487,C#4,199.5,0.25,127,104.0
2488,C#5,199.5,0.25,127,104.0
2489,G#3,199.75,0.25,127,104.0
2490,B2,199.75,0.75,127,104.0
2491,C3,199.75,0.75,127,104.0
2492,G#4,199.75,0.25,127,104.0
2493,A3,200.0,0.25,102,104.0
2494,A4,200.0,0.25,102,104.0
2495,E4,200.25,0.25,127,104.0
2496,C#4,200.25,0.25,127,104.0
2497,C#5,200.25,0.25,127,104.0
2498,E-4,200.5,0.25,127,104.0
2499,G#3,200.5,0.25,127,104.0
2500,B-2,200.5,0.75,127,104.0
2501,G#4,200.5,0.25,127,104.0
2502,C#3,200.5,0.75,127,104.0
2503,D2,200.5,0.75,127,104.0
2504,C#4,200.75,0.25,127,104.0
2505,A3,200.75,0.25,102,104.0
2506,A4,200.75,0.25,102,104.0
2507,B3,201.0,0.25,127,104.0
2508,C#4,201.0,0.25,127,104.0
2509,C#5,201.0,0.25,127,104.0
2510,A3,201.25,0.25,127,104.0
2511,G#3,201.25,167/1000,127,104.0
2512,A2,201.25,0.5,127,104.0
2513,G#4,201.25,167/1000,127,104.0
2514,D2,201.25,0.5,127,104.0
2515,B1,201.25,0.5,127,104.0
2516,A3,201.417,167/1000,102,104.0
2517,A4,201.417,167/1000,102,104.0
2518,C#4,201.5,0.25,127,104.0
2519,C#4,201.583,167/1000,127,104.0
2520,C#5,201.583,167/1000,127,104.0
2521,G#3,201.75,0.5,127,104.0
2522,G#3,201.75,167/1000,127,104.0
2523,G#2,201.75,0.5,127,104.0
2524,G#4,201.75,167/1000,127,104.0
2525,D2,201.75,0.5,127,104.0
2526,B1,201.75,0.5,127,104.0
2527,A3,201.917,167/1000,102,104.0
2528,A4,201.917,167/1000,102,104.0
2529,C#4,202.083,167/1000,127,104.0
2530,C#5,202.083,167/1000,127,104.0
2531,E4,202.25,0.25,127,104.0
2532,E4,202.25,0.25,127,104.0
2533,G2,202.25,2.0,127,104.0
2534,E4,202.25,0.25,127,104.0
2535,C#3,202.25,2.0,127,104.0
2536,B1,202.25,2.0,127,104.0
2537,E-4,202.5,0.25,127,104.0
2538,E-4,202.5,0.25,127,104.0
2539,E-4,202.5,0.25,127,104.0
2540,C#4,202.75,0.25,127,104.0
2541,C#4,202.75,0.25,127,104.0
2542,C#4,202.75,0.25,127,104.0
2543,B3,203.0,0.25,127,104.0
2544,B3,203.0,0.25,127,104.0
2545,B3,203.0,0.25,127,104.0
2546,A3,203.25,0.25,127,104.0
2547,A3,203.25,0.25,127,104.0
2548,A3,203.25,0.25,127,104.0
2549,C#4,203.5,0.25,127,104.0
2550,C#4,203.5,0.25,127,104.0
2551,C#4,203.5,0.25,127,104.0
2552,G#3,203.75,0.25,127,104.0
2553,G#3,203.75,0.5,127,104.0
2554,G#3,203.75,0.5,127,104.0
2555,A3,204.0,0.25,102,104.0
2556,C#4,204.25,0.25,127,104.0
2557,E4,204.25,0.25,127,104.0
2558,F#2,204.25,1.5,127,104.0
2559,E5,204.25,0.25,127,104.0
2560,F#2,204.25,1.5,127,104.0
2561,D2,204.25,1.5,127,104.0
2562,G#3,204.5,0.25,127,104.0
2563,E-4,204.5,0.25,127,104.0
2564,E-5,204.5,0.25,127,104.0
2565,A3,204.75,0.25,102,104.0
2566,C#4,204.75,0.25,127,104.0
2567,C#5,204.75,0.25,127,104.0
2568,C#4,205.0,0.25,127,104.0
2569,B3,205.0,0.25,127,104.0
2570,B4,205.0,0.25,127,104.0
2571,G#3,205.25,167/1000,127,104.0
2572,A3,205.25,0.25,127,104.0
2573,A4,205.25,0.25,127,104.0
2574,A3,205.417,167/1000,102,104.0
2575,C#4,205.5,0.25,127,104.0
2576,C#5,205.5,0.25,127,104.0
2577,C#4,205.583,167/1000,127,104.0
2578,G#3,205.75,167/1000,127,104.0
2579,G#3,205.75,0.25,127,104.0
2580,F2,205.75,0.75,127,104.0
2581,C3,205.75,0.75,127,104.0
2582,G#4,205.75,0.25,127,104.0
2583,A3,205.917,167/1000,102,104.0
2584,A3,206.0,0.25,102,104.0
2585,A4,206.0,0.25,102,104.0
2586,C#4,206.083,167/1000,127,104.0
2587,E4,206.25,0.25,127,104.0
2588,C#4,206.25,0.25,127,104.0
2589,C#5,206.25,0.25,127,104.0
2590,E-4,206.5,0.25,127,104.0
2591,G#3,206.5,0.25,127,104.0
2592,E2,206.5,0.75,127,104.0
2593,B2,206.5,0.75,127,104.0
2594,G#4,206.5,0.25,127,104.0
2595,C#4,206.75,0.25,127,104.0
2596,A3,206.75,0.25,102,104.0
2597,A4,206.75,0.25,102,104.0
2598,B3,207.0,0.25,127,104.0
2599,C#4,207.0,0.25,127,104.0
2600,C#5,207.0,0.25,127,104.0
2601,A3,207.25,0.25,127,104.0
2602,G#3,207.25,167/1000,127,104.0
2603,E-2,207.25,0.5,127,104.0
2604,G#4,207.25,167/1000,127,104.0
2605,G#2,207.25,167/1000,127,104.0
2606,D2,207.25,167/1000,127,104.0
2607,A3,207.417,167/1000,102,104.0
2608,D2,207.417,167/1000,127,104.0
2609,A4,207.417,167/1000,102,104.0
2610,C#4,207.5,0.25,127,104.0
2611,C#4,207.583,167/1000,127,104.0
2612,D2,207.583,167/1000,127,104.0
2613,C#5,207.583,167/1000,127,104.0
2614,G#3,207.75,0.5,127,104.0
2615,G#3,207.75,167/1000,127,104.0
2616,D2,207.75,0.5,127,104.0
2617,G#4,207.75,167/1000,127,104.0
2618,G#2,207.75,167/1000,127,104.0
2619,A2,207.75,167/1000,127,104.0
2620,A3,207.917,167/1000,102,104.0
2621,A2,207.917,167/1000,127,104.0
2622,A4,207.917,167/1000,102,104.0
2623,C#4,208.083,167/1000,127,104.0
2624,A2,208.083,167/1000,127,104.0
2625,C#5,208.083,167/1000,127,104.0
2626,E4,208.25,0.25,127,104.0
2627,E4,208.25,0.25,127,104.0
2628,C#2,208.25,2.0,127,104.0
2629,B1,208.25,2.0,127,104.0
2630,E4,208.25,0.25,127,104.0
2631,E-4,208.5,0.25,127,104.0
2632,E-4,208.5,0.25,127,104.0
2633,E-4,208.5,0.25,127,104.0
2634,C#4,208.75,0.25,127,104.0
2635,C#4,208.75,0.25,127,104.0
2636,C#4,208.75,0.25,127,104.0
2637,B3,209.0,0.25,127,104.0
2638,B3,209.0,0.25,127,104.0
2639,B3,209.0,0.25,127,104.0
2640,A3,209.25,0.25,127,104.0
2641,A3,209.25,0.25,127,104.0
2642,A3,209.25,0.25,127,104.0
2643,C#4,209.5,0.25,127,104.0
2644,C#4,209.5,0.25,127,104.0
2645,C#4,209.5,0.25,127,104.0
2646,G#3,209.75,0.25,127,104.0
2647,G#3,209.75,0.5,127,104.0
2648,G#3,209.75,0.5,127,104.0
2649,A3,210.0,0.25,102,104.0
2650,C#4,210.25,0.25,127,104.0
2651,E4,210.25,0.25,127,104.0
2652,E-2,210.25,1.5,127,104.0
2653,E5,210.25,0.25,127,104.0
2654,C#3,210.25,1.5,127,104.0
2655,D2,210.25,1.5,127,104.0
2656,G#3,210.5,0.25,127,104.0
2657,E-4,210.5,0.25,127,104.0
2658,E-5,210.5,0.25,127,104.0
2659,A3,210.75,0.25,102,104.0
2660,C#4,210.75,0.25,127,104.0
2661,C#5,210.75,0.25,127,104.0
2662,C#4,211.0,0.25,127,104.0
2663,B3,211.0,0.25,127,104.0
2664,B4,211.0,0.25,127,104.0
2665,G#3,211.25,167/1000,127,104.0
2666,A3,211.25,0.25,127,104.0
2667,A4,211.25,0.25,127,104.0
2668,A3,211.417,167/1000,102,104.0
2669,C#4,211.5,0.25,127,104.0
2670,C#5,211.5,0.25,127,104.0
2671,C#4,211.583,167/1000,127,104.0
2672,G#3,211.75,167/1000,127,104.0
2673,G#3,211.75,0.25,127,104.0
2674,F2,211.75,0.75,127,104.0
2675,G#4,211.75,0.25,127,104.0
2676,A2,211.75,0.75,127,104.0
2677,G2,211.75,0.75,127,104.0
2678,A3,211.917,167/1000,102,104.0
2679,A3,212.0,0.25,102,104.0
2680,A4,212.0,0.25,102,104.0
2681,C#4,212.083,167/1000,127,104.0
2682,E4,212.25,0.25,127,104.0
2683,C#4,212.25,0.25,127,104.0
2684,C#5,212.25,0.25,127,104.0
2685,E-4,212.5,0.25,127,104.0
2686,G#3,212.5,0.25,127,104.0
2687,G2,212.5,0.75,127,104.0
2688,G#4,212.5,0.25,127,104.0
2689,B2,212.5,0.75,127,104.0
2690,A2,212.5,0.75,127,104.0
2691,C#4,212.75,0.25,127,104.0
2692,A3,212.75,0.25,102,104.0
2693,A4,212.75,0.25,102,104.0
2694,B3,213.0,0.25,127,104.0
2695,C#4,213.0,0.25,127,104.0
2696,C#5,213.0,0.25,127,104.0
2697,A3,213.25,0.25,127,104.0
2698,G#3,213.25,167/1000,127,104.0
2699,A2,213.25,0.5,127,104.0
2700,G#4,213.25,167/1000,127,104.0
2701,G#2,213.25,167/1000,127,104.0
2702,A2,213.25,167/1000,127,104.0
2703,A3,213.417,167/1000,102,104.0
2704,A2,213.417,167/1000,127,104.0
2705,A4,213.417,167/1000,102,104.0
2706,C#4,213.5,0.25,127,104.0
2707,C#4,213.583,167/1000,127,104.0
2708,A2,213.583,167/1000,127,104.0
2709,C#5,213.583,167/1000,127,104.0
2710,G#3,213.75,0.5,127,104.0
2711,G#3,213.75,167/1000,127,104.0
2712,B2,213.75,0.5,127,104.0
2713,G#4,213.75,167/1000,127,104.0
2714,G#2,213.75,167/1000,127,104.0
2715,D2,213.75,167/1000,127,104.0
2716,A3,213.917,167/1000,102,104.0
2717,D2,213.917,167/1000,127,104.0
2718,A4,213.917,167/1000,102,104.0
2719,C#4,214.083,167/1000,127,104.0
2720,D2,214.083,167/1000,127,104.0
2721,C#5,214.083,167/1000,127,104.0
2722,E4,214.25,0.25,127,104.0
2723,E4,214.25,0.25,127,104.0
2724,C#3,214.25,2.0,127,104.0
2725,E4,214.25,0.25,127,104.0
2726,G2,214.25,2.0,127,104.0
2727,B1,214.25,2.0,127,104.0
2728,E-4,214.5,0.25,127,104.0
2729,E-4,214.5,0.25,127,104.0
2730,E-4,214.5,0.25,127,104.0
2731,C#4,214.75,0.25,127,104.0
2732,C#4,214.75,0.25,127,104.0
2733,C#4,214.75,0.25,127,104.0
2734,B3,215.0,0.25,127,104.0
2735,B3,215.0,0.25,127,104.0
2736,B3,215.0,0.25,127,104.0
2737,A3,215.25,0.25,127,104.0
2738,A3,215.25,0.25,127,104.0
2739,A3,215.25,0.25,127,104.0
2740,C#4,215.5,0.25,127,104.0
2741,C#4,215.5,0.25,127,104.0
2742,C#4,215.5,0.25,127,104.0
2743,G#3,215.75,0.25,127,104.0
2744,G#3,215.75,0.5,127,104.0
2745,G#3,215.75,0.5,127,104.0
2746,A3,216.0,0.25,102,104.0
2747,C#4,216.25,0.25,127,104.0
2748,E4,216.25,0.25,127,104.0
2749,E-3,216.25,1.5,127,104.0
2750,E5,216.25,0.25,127,104.0
2751,C#3,216.25,1.5,127,104.0
2752,F2,216.25,1.5,127,104.0
2753,G#3,216.5,0.25,127,104.0
2754,E-4,216.5,0.25,127,104.0
2755,E-5,216.5,0.25,127,104.0
2756,A3,216.75,0.25,102,104.0
2757,C#4,216.75,0.25,127,104.0
2758,C#5,216.75,0.25,127,104.0
2759,C#4,217.0,0.25,127,104.0
2760,B3,217.0,0.25,127,104.0
2761,B4,217.0,0.25,127,104.0
2762,G#3,217.25,167/1000,127,104.0
2763,A3,217.25,0.25,127,104.0
2764,A4,217.25,0.25,127,104.0
2765,A3,217.417,167/1000,102,104.0
2766,C#4,217.5,0.25,127,104.0
2767,C#5,217.5,0.25,127,104.0
2768,C#4,217.583,167/1000,127,104.0
2769,G#3,217.75,167/1000,127,104.0
2770,G#3,217.75,0.25,127,104.0
2771,F3,217.75,0.75,127,104.0
2772,G#4,217.75,0.25,127,104.0
2773,C3,217.75,0.75,127,104.0
2774,B2,217.75,0.75,127,104.0
2775,A3,217.917,167/1000,102,104.0
2776,A3,218.0,0.25,102,104.0
2777,A4,218.0,0.25,102,104.0
2778,C#4,218.083,167/1000,127,104.0
2779,E4,218.25,0.25,127,104.0
2780,C#4,218.25,0.25,127,104.0
2781,C#5,218.25,0.25,127,104.0
2782,E-4,218.5,0.25,127,104.0
2783,G#3,218.5,0.25,127,104.0
2784,G3,218.5,0.75,127,104.0
2785,G#4,218.5,0.25,127,104.0
2786,D3,218.5,0.75,127,104.0
2787,C3,218.5,0.75,127,104.0
2788,C#4,218.75,0.25,127,104.0
2789,A3,218.75,0.25,102,104.0
2790,A4,218.75,0.25,102,104.0
2791,B3,219.0,0.25,127,104.0
2792,C#4,219.0,0.25,127,104.0
2793,C#5,219.0,0.25,127,104.0
2794,A3,219.25,0.25,127,104.0
2795,G#3,219.25,167/1000,127,104.0
2796,A3,219.25,0.5,127,104.0
2797,G#4,219.25,167/1000,127,104.0
2798,G#2,219.25,167/1000,127,104.0
2799,D2,219.25,167/1000,127,104.0
2800,A3,219.417,167/1000,102,104.0
2801,D2,219.417,167/1000,127,104.0
2802,A4,219.417,167/1000,102,104.0
2803,C#4,219.5,0.25,127,104.0
2804,C#4,219.583,167/1000,127,104.0
2805,D2,219.583,167/1000,127,104.0
2806,C#5,219.583,167/1000,127,104.0
2807,G#3,219.75,0.5,127,104.0
2808,G#3,219.75,167/1000,127,104.0
2809,B3,219.75,0.5,127,104.0
2810,D2,219.75,167/1000,127,104.0
2811,G#4,219.75,167/1000,127,104.0
2812,A3,219.917,167/1000,102,104.0
2813,D2,219.917,167/1000,127,104.0
2814,A4,219.917,167/1000,102,104.0
2815,C#4,220.083,167/1000,127,104.0
2816,D2,220.083,167/1000,127,104.0
2817,C#5,220.083,167/1000,127,104.0
2818,E4,220.25,0.25,127,104.0
2819,G3,220.25,4.0,127,104.0
2820,C#4,220.25,2/5,127,104.0
2821,B5,220.25,1/5,127,104.0
2822,G2,220.25,1/5,127,104.0
2823,B1,220.25,1/5,127,104.0
2824,G2,220.45,1/5,127,104.0
2825,G4,220.45,1/5,127,104.0
2826,E-4,220.5,0.25,127,104.0
2827,G2,220.65,1/5,127,104.0
2828,C#4,220.65,3/5,127,104.0
2829,C#5,220.65,1/5,127,104.0
2830,C#4,220.75,0.25,127,104.0
2831,G2,220.85,1/5,127,104.0
2832,F#5,220.85,1/5,127,104.0
2833,B3,221.0,0.25,127,104.0
2834,G2,221.05,1/5,127,104.0
2835,B5,221.05,1/5,127,104.0
2836,A3,221.25,0.25,127,104.0
2837,A2,221.25,3.0,63,104.0
2838,C#4,221.25,2/5,127,104.0
2839,C#6,221.25,1/5,127,104.0
2840,D2,221.25,1/5,127,104.0
2841,B1,221.25,1/5,127,104.0
2842,D2,221.45,1/5,127,104.0
2843,B5,221.45,1/5,102,104.0
2844,C#4,221.5,0.25,127,104.0
2845,D2,221.65,1/5,127,104.0
2846,C#4,221.65,3/5,127,104.0
2847,F#5,221.65,1/5,127,104.0
2848,G#3,221.75,0.25,127,104.0
2849,D2,221.85,1/5,127,104.0
2850,C#5,221.85,1/5,127,104.0
2851,A3,222.0,0.25,102,104.0
2852,D2,222.05,1/5,127,104.0
2853,G4,222.05,1/5,127,104.0
2854,C#4,222.25,0.25,127,104.0
2855,C#4,222.25,2/5,127,104.0
2856,B5,222.25,1/5,127,104.0
2857,B2,222.25,1/5,127,104.0
2858,B1,222.25,1/5,127,104.0
2859,B2,222.45,1/5,127,104.0
2860,G4,222.45,1/5,127,104.0
2861,G#3,222.5,0.25,127,104.0
2862,B2,222.65,1/5,127,104.0
2863,C#4,222.65,3/5,127,104.0
2864,C#5,222.65,1/5,127,104.0
2865,A3,222.75,0.25,102,104.0
2866,B2,222.85,1/5,127,104.0
2867,F#5,222.85,1/5,127,104.0
2868,C#4,223.0,0.25,127,104.0
2869,B2,223.05,1/5,127,104.0
2870,B5,223.05,1/5,127,104.0
2871,G#3,223.25,167/1000,127,104.0
2872,C#4,223.25,2/5,127,104.0
2873,C#6,223.25,1/5,127,104.0
2874,C3,223.25,1/5,127,104.0
2875,B1,223.25,1/5,127,104.0
2876,A3,223.417,167/1000,102,104.0
2877,C3,223.45,1/5,127,104.0
2878,B5,223.45,1/5,102,104.0
2879,C#4,223.583,167/1000,127,104.0
2880,C3,223.65,1/5,127,104.0
2881,C#4,223.65,3/5,127,104.0
2882,F#5,223.65,1/5,127,104.0
2883,G#3,223.75,167/1000,127,104.0
2884,C3,223.85,1/5,127,104.0
2885,C#5,223.85,1/5,127,104.0
2886,A3,223.917,167/1000,102,104.0
2887,C3,224.05,1/5,127,104.0
2888,G4,224.05,1/5,127,104.0
2889,C#4,224.083,167/1000,127,104.0
2890,C#4,224.25,2/5,127,104.0
2891,G3,224.25,2.0,127,104.0
2892,A2,224.25,2.0,63,104.0
2893,C#4,224.25,2/5,127,104.0
2894,B5,224.25,1/5,127,104.0
2895,A2,224.25,1/5,127,104.0
2896,B1,224.25,1/5,127,104.0
2897,A2,224.45,1/5,127,104.0
2898,G4,224.45,1/5,127,104.0
2899,C#4,224.65,3/5,127,104.0
2900,A2,224.65,1/5,127,104.0
2901,C#4,224.65,3/5,127,104.0
2902,C#5,224.65,1/5,127,104.0
2903,A2,224.85,1/5,127,104.0
2904,F#5,224.85,1/5,127,104.0
2905,A2,225.05,1/5,127,104.0
2906,B5,225.05,1/5,127,104.0
2907,C#4,225.25,2/5,127,104.0
2908,C#4,225.25,2/5,127,104.0
2909,C#6,225.25,1/5,127,104.0
2910,G2,225.25,1/5,127,104.0
2911,B1,225.25,1/5,127,104.0
2912,G2,225.45,1/5,127,104.0
2913,B5,225.45,1/5,102,104.0
2914,C#4,225.65,3/5,127,104.0
2915,G2,225.65,1/5,127,104.0
2916,C#4,225.65,3/5,127,104.0
2917,F#5,225.65,1/5,127,104.0
2918,G2,225.85,1/5,127,104.0
2919,C#5,225.85,1/5,127,104.0
2920,G2,226.05,1/5,127,104.0
2921,G4,226.05,1/5,127,104.0
2922,C#4,226.25,2/5,127,104.0
2923,G2,226.25,0.5,127,104.0
2924,C#4,226.25,0.5,127,104.0
2925,B5,226.25,1.0,127,104.0
2926,C#4,226.65,3/5,127,104.0
2927,G1,226.75,0.5,127,104.0
2928,B-2,226.75,0.125,127,104.0
2929,G#2,226.875,0.375,127,104.0
2930,C#4,227.25,2/5,127,104.0
2931,A3,227.25,333/1000,127,104.0
2932,B-3,227.583,167/1000,127,104.0
2933,C#4,227.65,3/5,127,104.0
2934,E4,227.75,333/1000,127,104.0
2935,A3,228.083,167/1000,127,104.0
2936,B-2,228.083,167/1000,127,104.0
2937,C#4,228.083,167/1000,127,104.0
2938,C#4,228.25,2/5,127,104.0
2939,F#2,228.25,0.5,127,104.0
2940,F#1,228.25,0.5,127,104.0
2941,C#4,228.25,2.0,127,104.0
2942,G#2,228.25,0.5,127,104.0
2943,B1,228.25,0.5,127,104.0
2944,C#4,228.65,3/5,127,104.0
2945,F#2,228.75,0.5,127,104.0
2946,F#1,228.75,0.5,127,104.0
2947,F#2,228.75,0.5,127,104.0
2948,B1,228.75,0.5,127,104.0
2949,C#4,229.25,2/5,127,104.0
2950,F#2,229.25,0.75,127,104.0
2951,E4,229.25,1.0,127,104.0
2952,C#4,229.25,1.0,127,104.0
2953,B-3,229.25,1.0,127,104.0
2954,F#3,229.25,1.0,127,104.0
2955,F#2,229.25,0.5,127,104.0
2956,D2,229.25,0.5,127,104.0
2957,C#4,229.65,3/5,127,104.0
2958,F#2,229.75,333/1000,127,104.0
2959,B1,229.75,333/1000,127,104.0
2960,F#2,230.0,0.25,127,104.0
2961,B-2,230.083,167/1000,127,104.0
2962,B1,230.083,167/1000,127,104.0
2963,C#4,230.25,0.5,127,104.0
2964,F#2,230.25,0.5,127,104.0
2965,F#1,230.25,0.5,127,104.0
2966,F#2,230.25,333/1000,127,104.0
2967,B1,230.25,333/1000,127,104.0
2968,F#2,230.583,167/1000,127,104.0
2969,D2,230.583,167/1000,127,104.0
2970,F#2,230.75,0.5,127,104.0
2971,F#1,230.75,0.5,127,104.0
2972,F#2,230.75,0.5,127,104.0
2973,B1,230.75,0.5,127,104.0
2974,A3,231.25,333/1000,127,104.0
2975,F#2,231.25,1.0,127,104.0
2976,E4,231.25,1.0,127,104.0
2977,C#4,231.25,1.0,127,104.0
2978,B-3,231.25,1.0,127,104.0
2979,F#3,231.25,1.0,127,104.0
2980,F#2,231.25,0.5,127,104.0
2981,D2,231.25,0.5,127,104.0
2982,B-3,231.583,167/1000,127,104.0
2983,E4,231.75,333/1000,127,104.0
2984,F#2,231.75,0.5,127,104.0
2985,B1,231.75,0.5,127,104.0
2986,C#4,232.083,167/1000,127,104.0
2987,C#4,232.25,4.0,127,104.0
2988,G3,232.25,4.0,127,104.0
2989,C#4,232.25,2/5,127,104.0
2990,B5,232.25,1/5,127,104.0
2991,G2,232.25,1/5,127,104.0
2992,B1,232.25,1/5,127,104.0
2993,G2,232.45,1/5,127,104.0
2994,G4,232.45,1/5,127,104.0
2995,G2,232.65,1/5,127,104.0
2996,C#4,232.65,3/5,127,104.0
2997,C#5,232.65,1/5,127,104.0
2998,G2,232.85,1/5,127,104.0
2999,F#5,232.85,1/5,127,104.0
3000,G2,233.05,1/5,127,104.0
3001,B5,233.05,1/5,127,104.0
3002,A2,233.25,3.0,63,104.0
3003,C#4,233.25,2/5,127,104.0
3004,C#6,233.25,1/5,127,104.0
3005,D2,233.25,1/5,127,104.0
3006,B1,233.25,1/5,127,104.0
3007,D2,233.45,1/5,127,104.0
3008,B5,233.45,1/5,102,104.0
3009,D2,233.65,1/5,127,104.0
3010,C#4,233.65,3/5,127,104.0
3011,F#5,233.65,1/5,127,104.0
3012,D2,233.85,1/5,127,104.0
3013,C#5,233.85,1/5,127,104.0
3014,D2,234.05,1/5,127,104.0
3015,G4,234.05,1/5,127,104.0
3016,C#4,234.25,2/5,127,104.0
3017,B5,234.25,1/5,127,104.0
3018,B2,234.25,1/5,127,104.0
3019,B1,234.25,1/5,127,104.0
3020,B2,234.45,1/5,127,104.0
3021,G4,234.45,1/5,127,104.0
3022,B2,234.65,1/5,127,104.0
3023,C#4,234.65,3/5,127,104.0
3024,C#5,234.65,1/5,127,104.0
3025,B2,234.85,1/5,127,104.0
3026,F#5,234.85,1/5,127,104.0
3027,B2,235.05,1/5,127,104.0
3028,B5,235.05,1/5,127,104.0
3029,C#4,235.25,2/5,127,104.0
3030,C#6,235.25,1/5,127,104.0
3031,C3,235.25,1/5,127,104.0
3032,B1,235.25,1/5,127,104.0
3033,C3,235.45,1/5,127,104.0
3034,B5,235.45,1/5,102,104.0
3035,C3,235.65,1/5,127,104.0
3036,C#4,235.65,3/5,127,104.0
3037,F#5,235.65,1/5,127,104.0
3038,C3,235.85,1/5,127,104.0
3039,C#5,235.85,1/5,127,104.0
3040,C3,236.05,1/5,127,104.0
3041,G4,236.05,1/5,127,104.0
3042,C#4,236.25,2/5,127,104.0
3043,G3,236.25,2.0,127,104.0
3044,A2,236.25,2.0,63,104.0
3045,C#4,236.25,2/5,127,104.0
3046,B5,236.25,1/5,127,104.0
3047,A2,236.25,1/5,127,104.0
3048,B1,236.25,1/5,127,104.0
3049,A2,236.45,1/5,127,104.0
3050,G4,236.45,1/5,127,104.0
3051,C#4,236.65,3/5,127,104.0
3052,A2,236.65,1/5,127,104.0
3053,C#4,236.65,3/5,127,104.0
3054,C#5,236.65,1/5,127,104.0
3055,A2,236.85,1/5,127,104.0
3056,F#5,236.85,1/5,127,104.0
3057,A2,237.05,1/5,127,104.0
3058,B5,237.05,1/5,127,104.0
3059,C#4,237.25,2/5,127,104.0
3060,C#4,237.25,2/5,127,104.0
3061,C#6,237.25,1/5,127,104.0
3062,G2,237.25,1/5,127,104.0
3063,B1,237.25,1/5,127,104.0
3064,G2,237.45,1/5,127,104.0
3065,B5,237.45,1/5,102,104.0
3066,C#4,237.65,3/5,127,104.0
3067,G2,237.65,1/5,127,104.0
3068,C#4,237.65,3/5,127,104.0
3069,F#5,237.65,1/5,127,104.0
3070,G2,237.85,1/5,127,104.0
3071,C#5,237.85,1/5,127,104.0
3072,G2,238.05,1/5,127,104.0
3073,G4,238.05,1/5,127,104.0
3074,C#4,238.25,2/5,127,104.0
3075,G2,238.25,0.5,127,104.0
3076,C#4,238.25,0.5,127,104.0
3077,B5,238.25,1.0,127,104.0
3078,C#4,238.65,3/5,127,104.0
3079,G1,238.75,0.5,127,104.0
3080,B-2,238.75,0.125,127,104.0
3081,G#2,238.875,0.375,127,104.0
3082,C#4,239.25,2/5,127,104.0
3083,A3,239.25,333/1000,127,104.0
3084,B-3,239.583,167/1000,127,104.0
3085,C#4,239.65,3/5,127,104.0
3086,E4,239.75,333/1000,127,104.0
3087,A3,240.083,167/1000,127,104.0
3088,B-2,240.083,167/1000,127,104.0
3089,C#4,240.083,167/1000,127,104.0
3090,C#4,240.25,2/5,127,104.0
3091,F#2,240.25,0.5,127,104.0
3092,F#1,240.25,0.5,127,104.0
3093,C#4,240.25,2.0,127,104.0
3094,G#2,240.25,0.5,127,104.0
3095,B1,240.25,0.5,127,104.0
3096,C#4,240.65,3/5,127,104.0
3097,F#2,240.75,0.5,127,104.0
3098,F#1,240.75,0.5,127,104.0
3099,F#2,240.75,0.5,127,104.0
3100,B1,240.75,0.5,127,104.0
3101,C#4,241.25,2/5,127,104.0
3102,F#2,241.25,0.75,127,104.0
3103,E4,241.25,1.0,127,104.0
3104,C#4,241.25,1.0,127,104.0
3105,B-3,241.25,1.0,127,104.0
3106,F#3,241.25,1.0,127,104.0
3107,F#2,241.25,0.5,127,104.0
3108,D2,241.25,0.5,127,104.0
3109,C#4,241.65,3/5,127,104.0
3110,F#2,241.75,333/1000,127,104.0
3111,B1,241.75,333/1000,127,104.0
3112,F#2,242.0,0.25,127,104.0
3113,B-2,242.083,167/1000,127,104.0
3114,B1,242.083,167/1000,127,104.0
3115,C#4,242.25,0.5,127,104.0
3116,F#2,242.25,0.5,127,104.0
3117,F#1,242.25,0.5,127,104.0
3118,F#2,242.25,333/1000,127,104.0
3119,B1,242.25,333/1000,127,104.0
3120,F#2,242.583,167/1000,127,104.0
3121,D2,242.583,167/1000,127,104.0
3122,F#2,242.75,0.5,127,104.0
3123,F#1,242.75,0.5,127,104.0
3124,F#2,242.75,0.5,127,104.0
3125,B1,242.75,0.5,127,104.0
3126,A3,243.25,333/1000,127,104.0
3127,F#2,243.25,1.0,127,104.0
3128,E4,243.25,1.0,127,104.0
3129,C#4,243.25,1.0,127,104.0
3130,B-3,243.25,1.0,127,104.0
3131,F#3,243.25,1.0,127,104.0
3132,F#2,243.25,0.5,127,104.0
3133,D2,243.25,0.5,127,104.0
3134,B-3,243.583,167/1000,127,104.0
3135,E4,243.75,333/1000,127,104.0
3136,F#2,243.75,0.5,127,104.0
3137,B1,243.75,0.5,127,104.0
3138,C#4,244.083,167/1000,127,104.0
3139,C#4,244.25,4.0,127,104.0
3140,G3,244.25,4.0,127,104.0
3141,C#4,244.25,2/5,127,104.0
3142,B5,244.25,1/5,127,104.0
3143,G2,244.25,1/5,127,104.0
3144,B1,244.25,1/5,127,104.0
3145,G2,244.45,1/5,127,104.0
3146,G4,244.45,1/5,127,104.0
3147,G2,244.65,1/5,127,104.0
3148,C#4,244.65,3/5,127,104.0
3149,C#5,244.65,1/5,127,104.0
3150,G2,244.85,1/5,127,104.0
3151,F#5,244.85,1/5,127,104.0
3152,G2,245.05,1/5,127,104.0
3153,B5,245.05,1/5,127,104.0
3154,A2,245.25,3.0,63,104.0
3155,C#4,245.25,2/5,127,104.0
3156,C#6,245.25,1/5,127,104.0
3157,D2,245.25,1/5,127,104.0
3158,B1,245.25,1/5,127,104.0
3159,D2,245.45,1/5,127,104.0
3160,B5,245.45,1/5,102,104.0
3161,D2,245.65,1/5,127,104.0
3162,C#4,245.65,3/5,127,104.0
3163,F#5,245.65,1/5,127,104.0
3164,D2,245.85,1/5,127,104.0
3165,C#5,245.85,1/5,127,104.0
3166,D2,246.05,1/5,127,104.0
3167,G4,246.05,1/5,127,104.0
3168,C#4,246.25,2/5,127,104.0
3169,B5,246.25,1/5,127,104.0
3170,B2,246.25,1/5,127,104.0
3171,B1,246.25,1/5,127,104.0
3172,B2,246.45,1/5,127,104.0
3173,G4,246.45,1/5,127,104.0
3174,B2,246.65,1/5,127,104.0
3175,C#4,246.65,3/5,127,104.0
3176,C#5,246.65,1/5,127,104.0
3177,B2,246.85,1/5,127,104.0
3178,F#5,246.85,1/5,127,104.0
3179,B2,247.05,1/5,127,104.0
3180,B5,247.05,1/5,127,104.0
3181,C#4,247.25,2/5,127,104.0
3182,C#6,247.25,1/5,127,104.0
3183,C3,247.25,1/5,127,104.0
3184,B1,247.25,1/5,127,104.0
3185,C3,247.45,1/5,127,104.0
3186,B5,247.45,1/5,102,104.0
3187,C3,247.65,1/5,127,104.0
3188,C#4,247.65,3/5,127,104.0
3189,F#5,247.65,1/5,127,104.0
3190,C3,247.85,1/5,127,104.0
3191,C#5,247.85,1/5,127,104.0
3192,C3,248.05,1/5,127,104.0
3193,G4,248.05,1/5,127,104.0
3194,C#4,248.25,2/5,127,104.0
3195,G3,248.25,2.0,127,104.0
3196,A2,248.25,2.0,63,104.0
3197,C#4,248.25,2/5,127,104.0
3198,B5,248.25,1/5,127,104.0
3199,A2,248.25,1/5,127,104.0
3200,B1,248.25,1/5,127,104.0
3201,A2,248.45,1/5,127,104.0
3202,G4,248.45,1/5,127,104.0
3203,C#4,248.65,3/5,127,104.0
3204,A2,248.65,1/5,127,104.0
3205,C#4,248.65,3/5,127,104.0
3206,C#5,248.65,1/5,127,104.0
3207,A2,248.85,1/5,127,104.0
3208,F#5,248.85,1/5,127,104.0
3209,A2,249.05,1/5,127,104.0
3210,B5,249.05,1/5,127,104.0
3211,C#4,249.25,2/5,127,104.0
3212,C#4,249.25,2/5,127,104.0
3213,C#6,249.25,1/5,127,104.0
3214,G2,249.25,1/5,127,104.0
3215,B1,249.25,1/5,127,104.0
3216,G2,249.45,1/5,127,104.0
3217,B5,249.45,1/5,102,104.0
3218,C#4,249.65,3/5,127,104.0
3219,G2,249.65,1/5,127,104.0
3220,C#4,249.65,3/5,127,104.0
3221,F#5,249.65,1/5,127,104.0
3222,G2,249.85,1/5,127,104.0
3223,C#5,249.85,1/5,127,104.0
3224,G2,250.05,1/5,127,104.0
3225,G4,250.05,1/5,127,104.0
3226,C#4,250.25,2/5,127,104.0
3227,G2,250.25,0.5,127,104.0
3228,C#4,250.25,0.5,127,104.0
3229,B5,250.25,1.0,127,104.0
3230,C#4,250.65,3/5,127,104.0
3231,G1,250.75,0.5,127,104.0
3232,B-2,250.75,0.125,127,104.0
3233,G#2,250.875,0.375,127,104.0
3234,C#4,251.25,2/5,127,104.0
3235,A3,251.25,333/1000,127,104.0
3236,B-3,251.583,167/1000,127,104.0
3237,C#4,251.65,3/5,127,104.0
3238,E4,251.75,333/1000,127,104.0
3239,B-2,252.083,167/1000,127,104.0
3240,C#4,252.083,167/1000,127,104.0
3241,C#4,252.25,2/5,127,104.0
3242,F#1,252.25,0.5,127,104.0
3243,B-3,252.25,333/1000,127,104.0
3244,G#2,252.25,0.5,127,104.0
3245,B1,252.25,0.5,127,104.0
3246,C#4,252.583,167/1000,127,104.0
3247,C#4,252.65,3/5,127,104.0
3248,F#1,252.75,0.5,127,104.0
3249,F#4,252.75,0.5,127,104.0
3250,F#2,252.75,0.5,127,104.0
3251,B1,252.75,0.5,127,104.0
3252,C#4,253.25,2/5,127,104.0
3253,F#2,253.25,333/1000,127,104.0
3254,F#4,253.25,333/1000,127,104.0
3255,F#2,253.25,0.5,127,104.0
3256,D2,253.25,0.5,127,104.0
3257,E2,253.583,167/1000,127,104.0
3258,E4,253.583,167/1000,127,104.0
3259,C#4,253.65,3/5,127,104.0
3260,C#2,253.75,333/1000,127,104.0
3261,C#4,253.75,333/1000,127,104.0
3262,F#2,253.75,333/1000,127,104.0
3263,B1,253.75,333/1000,127,104.0
3264,B1,254.083,667/1000,127,104.0
3265,B3,254.083,2167/1000,127,104.0
3266,B-2,254.083,167/1000,127,104.0
3267,B1,254.083,167/1000,127,104.0
3268,C#4,254.25,0.5,127,104.0
3269,F#2,254.25,333/1000,127,104.0
3270,B1,254.25,333/1000,127,104.0
3271,F#2,254.583,167/1000,127,104.0
3272,D2,254.583,167/1000,127,104.0
3273,A1,254.75,0.5,127,104.0
3274,F#2,254.75,0.5,127,104.0
3275,B1,254.75,0.5,127,104.0
3276,A3,255.25,333/1000,127,104.0
3277,B1,255.25,1.0,127,104.0
3278,F#2,255.25,0.5,127,104.0
3279,D2,255.25,0.5,127,104.0
3280,B-3,255.583,167/1000,127,104.0
3281,E4,255.75,333/1000,127,104.0
3282,F#2,255.75,0.5,127,104.0
3283,B1,255.75,0.5,127,104.0
3284,A3,256.083,167/1000,127,104.0
3285,B-3,256.25,333/1000,127,104.0
3286,B1,256.25,0.5,127,104.0
3287,B3,256.25,2.0,127,104.0
3288,F#2,256.25,333/1000,127,104.0
3289,B1,256.25,333/1000,127,104.0
3290,C#4,256.583,167/1000,127,104.0
3291,F#2,256.583,167/1000,127,104.0
3292,B1,256.583,167/1000,127,104.0
3293,F#4,256.75,0.5,127,104.0
3294,A1,256.75,0.5,127,104.0
3295,F#2,256.75,0.5,127,104.0
3296,B1,256.75,0.5,127,104.0
3297,F#4,257.25,333/1000,127,104.0
3298,B1,257.25,1.0,127,104.0
3299,F#2,257.25,0.25,127,104.0
3300,D2,257.25,0.25,127,104.0
3301,B1,257.5,0.25,127,104.0
3302,E4,257.583,167/1000,127,104.0
3303,C#4,257.75,333/1000,127,104.0
3304,F#2,257.75,333/1000,127,104.0
3305,B3,258.083,2167/1000,127,104.0
3306,B-2,258.083,167/1000,127,104.0
3307,B1,258.083,167/1000,127,104.0
3308,A2,258.25,333/1000,127,104.0
3309,A4,258.25,333/1000,127,104.0
3310,F#2,258.25,0.5,127,104.0
3311,B1,258.25,0.5,127,104.0
3312,F#2,258.583,167/1000,127,104.0
3313,F#4,258.583,167/1000,127,104.0
3314,E2,258.75,333/1000,127,104.0
3315,E4,258.75,333/1000,127,104.0
3316,F#2,258.75,0.5,127,104.0
3317,B1,258.75,0.5,127,104.0
3318,C#2,259.083,167/1000,127,104.0
3319,C#4,259.083,167/1000,127,104.0
3320,B1,259.25,333/1000,127,104.0
3321,B3,259.25,333/1000,127,104.0
3322,G#2,259.25,333/1000,127,104.0
3323,D2,259.25,333/1000,127,104.0
3324,B1,259.25,333/1000,127,104.0
3325,A1,259.583,167/1000,127,104.0
3326,D2,259.583,167/1000,127,104.0
3327,A3,259.583,167/1000,127,104.0
3328,B1,259.75,333/1000,127,104.0
3329,B3,259.75,333/1000,127,104.0
3330,G#2,259.75,333/1000,127,104.0
3331,D2,259.75,333/1000,127,104.0
3332,B1,259.75,333/1000,127,104.0
3333,A1,260.083,167/1000,127,104.0
3334,D2,260.083,167/1000,127,104.0
3335,A3,260.083,167/1000,127,104.0
3336,B3,260.25,2.0,127,104.0
3337,B1,260.25,0.5,127,104.0
3338,B3,260.25,0.5,127,104.0
3339,B-2,260.25,0.5,127,104.0
3340,B1,260.25,0.5,127,104.0
3341,A1,260.75,0.5,127,104.0
3342,A3,260.75,0.5,127,104.0
3343,G#2,260.75,0.5,127,104.0
3344,B1,260.75,0.5,127,104.0
3345,F#2,261.25,1.0,127,104.0
3346,F#4,261.25,1.0,127,104.0
3347,F#2,261.25,0.5,127,104.0
3348,D2,261.25,0.5,127,104.0
3349,F#2,261.75,0.5,127,104.0
3350,B1,261.75,0.5,127,104.0
3351,A4,262.25,333/1000,127,104.0
3352,A2,262.25,333/1000,127,104.0
3353,A4,262.25,333/1000,127,104.0
3354,F#2,262.25,333/1000,127,104.0
3355,B1,262.25,333/1000,127,104.0
3356,F#4,262.583,167/1000,127,104.0
3357,F#2,262.583,167/1000,127,104.0
3358,B-2,262.583,167/1000,127,104.0
3359,F#4,262.583,167/1000,127,104.0
3360,E4,262.75,333/1000,127,104.0
3361,E2,262.75,333/1000,127,104.0
3362,E4,262.75,333/1000,127,104.0
3363,F#2,262.75,0.5,127,104.0
3364,B1,262.75,0.5,127,104.0
3365,C#4,263.083,167/1000,127,104.0
3366,C#2,263.083,167/1000,127,104.0
3367,C#4,263.083,167/1000,127,104.0
3368,B3,263.25,333/1000,127,104.0
3369,B1,263.25,333/1000,127,104.0
3370,B3,263.25,333/1000,127,104.0
3371,F#2,263.25,0.5,127,104.0
3372,D2,263.25,0.5,127,104.0
3373,A3,263.583,167/1000,127,104.0
3374,A1,263.583,167/1000,127,104.0
3375,A3,263.583,167/1000,127,104.0
3376,B3,263.75,333/1000,127,104.0
3377,B1,263.75,333/1000,127,104.0
3378,B3,263.75,333/1000,127,104.0
3379,F#2,263.75,0.5,127,104.0
3380,B1,263.75,0.5,127,104.0
3381,A3,264.083,167/1000,127,104.0
3382,A1,264.083,167/1000,127,104.0
3383,A3,264.083,167/1000,127,104.0
3384,B3,264.25,0.5,127,104.0
3385,B1,264.25,0.5,127,104.0
3386,B3,264.25,0.5,127,104.0
3387,C#3,264.25,0.5,127,104.0
3388,B1,264.25,0.5,127,104.0
3389,A3,264.75,0.5,127,104.0
3390,A1,264.75,0.5,127,104.0
3391,B2,264.75,0.5,127,104.0
3392,A3,264.75,0.5,127,104.0
3393,F#4,265.25,1.0,127,104.0
3394,F#1,265.25,3.0,127,104.0
3395,F#3,265.25,3.0,127,104.0
3396,B2,265.25,333/1000,127,104.0
3397,B1,265.25,333/1000,127,104.0
3398,B2,265.583,333/1000,127,104.0
3399,B2,265.917,333/1000,127,104.0
3400,A4,266.25,333/1000,127,104.0
3401,B2,266.25,333/1000,127,104.0
3402,B1,266.25,333/1000,127,104.0
3403,F#4,266.583,167/1000,127,104.0
3404,B2,266.583,333/1000,127,104.0
3405,E4,266.75,333/1000,127,104.0
3406,B2,266.917,333/1000,127,104.0
3407,C#4,267.083,167/1000,127,104.0
3408,B3,267.25,333/1000,127,104.0
3409,A2,267.25,333/1000,127,104.0
3410,A3,267.583,167/1000,127,104.0
3411,A2,267.583,333/1000,127,104.0
3412,B3,267.75,333/1000,127,104.0
3413,A2,267.917,333/1000,127,104.0
3414,A3,268.083,167/1000,127,104.0
3415,B3,268.25,0.5,127,104.0
3416,D2,268.25,0.5,127,104.0
3417,A3,268.75,0.5,127,104.0
3418,A1,268.75,3.5,127,104.0
3419,A2,268.75,3.5,127,104.0
3420,B-2,268.75,0.125,127,104.0
3421,B1,268.75,0.125,127,104.0
3422,G#2,268.875,0.125,127,104.0
3423,F#2,269.0,0.125,127,104.0
3424,F#2,269.125,0.125,127,104.0
3425,F#3,269.25,3.0,127,104.0
3426,F#2,269.25,0.125,127,104.0
3427,F#2,269.375,0.125,127,104.0
3428,F#2,269.5,0.125,127,104.0
3429,F#2,269.625,0.125,127,104.0
3430,F#2,269.75,0.125,127,104.0
3431,F#2,269.875,0.125,127,104.0
3432,F#2,270.0,0.125,127,104.0
3433,F#2,270.125,0.125,127,104.0
3434,F#2,270.25,0.125,127,104.0
3435,F#2,270.375,0.125,127,104.0
3436,F#2,270.5,0.125,127,104.0
3437,F#2,270.625,0.125,127,104.0
3438,F#2,270.75,0.125,127,104.0
3439,F#2,270.875,0.125,127,104.0
3440,F#2,271.0,0.125,127,104.0
3441,F#2,271.125,0.125,127,104.0
3442,F#2,271.25,0.125,127,104.0
3443,F#2,271.375,0.125,127,104.0
3444,F#2,271.5,0.125,127,104.0
3445,F#2,271.625,0.125,127,104.0
3446,F#2,271.75,0.125,127,104.0
3447,F#2,271.875,0.125,127,104.0
3448,F#2,272.0,0.125,127,104.0
3449,F#2,272.125,31/250,127,104.0
3450,D2,272.25,0.5,127,104.0
3451,B1,272.75,4.5,127,104.0
3452,F#2,272.75,0.125,127,104.0
3453,B2,272.75,4.5,127,104.0
3454,A4,272.75,3.5,127,104.0
3455,E4,272.75,3.5,127,104.0
3456,C#4,272.75,3.5,127,104.0
3457,A3,272.75,3.5,127,104.0
3458,E3,272.75,3.5,127,104.0
3459,A2,272.75,3.5,127,104.0
3460,F#2,272.875,0.125,127,104.0
3461,F#2,273.0,0.125,127,104.0
3462,F#2,273.125,0.125,127,104.0
3463,F#2,273.25,0.125,127,104.0
3464,F#2,273.375,0.125,127,104.0
3465,F#2,273.5,0.125,127,104.0
3466,F#2,273.625,0.125,127,104.0
3467,F#2,273.75,0.125,127,104.0
3468,F#2,273.875,0.125,127,104.0
3469,F#2,274.0,0.125,127,104.0
3470,F#2,274.125,0.125,127,104.0
3471,F#2,274.25,0.125,127,104.0
3472,F#2,274.375,0.125,127,104.0
3473,F#2,274.5,0.125,127,104.0
3474,F#2,274.625,0.125,127,104.0
3475,F#2,274.75,0.125,127,104.0
3476,F#2,274.875,0.125,127,104.0
3477,F#2,275.0,0.125,127,104.0
3478,F#2,275.125,0.125,127,104.0
3479,F#2,275.25,0.125,127,104.0
3480,F#2,275.375,0.125,127,104.0
3481,F#2,275.5,0.125,127,104.0
3482,F#2,275.625,0.125,127,104.0
3483,F#2,275.75,0.125,127,104.0
3484,F#2,275.875,0.125,127,104.0
3485,F#2,276.0,0.125,127,104.0
3486,F#2,276.125,0.125,127,104.0
3487,F#2,276.25,0.125,127,104.0
3488,F#2,276.375,0.125,127,104.0
3489,F#2,276.5,0.125,127,104.0
3490,F#2,276.625,0.125,127,104.0
3491,F#2,276.75,0.125,127,104.0
3492,B4,276.75,4.5,127,104.0
3493,F#4,276.75,4.5,127,104.0
3494,E-4,276.75,4.5,127,104.0
3495,B3,276.75,4.5,127,104.0
3496,F#3,276.75,4.5,127,104.0
3497,B2,276.75,4.5,127,104.0
3498,F#2,276.875,0.125,127,104.0
3499,F#2,277.0,0.125,127,104.0
3500,F#2,277.125,31/250,127,104.0
3501,G3,277.25,4.0,127,104.0
3502,C#4,277.25,2/5,127,104.0
3503,B5,277.25,1/5,127,104.0
3504,G2,277.25,1/5,127,104.0
3505,B1,277.25,1/5,127,104.0
3506,G2,277.45,1/5,127,104.0
3507,G4,277.45,1/5,127,104.0
3508,G2,277.65,1/5,127,104.0
3509,C#4,277.65,3/5,127,104.0
3510,C#5,277.65,1/5,127,104.0
3511,G2,277.85,1/5,127,104.0
3512,F#5,277.85,1/5,127,104.0
3513,G2,278.05,1/5,127,104.0
3514,B5,278.05,1/5,127,104.0
3515,A2,278.25,3.0,63,104.0
3516,C#4,278.25,2/5,127,104.0
3517,C#6,278.25,1/5,127,104.0
3518,D2,278.25,1/5,127,104.0
3519,B1,278.25,1/5,127,104.0
3520,D2,278.45,1/5,127,104.0
3521,B5,278.45,1/5,102,104.0
3522,D2,278.65,1/5,127,104.0
3523,C#4,278.65,3/5,127,104.0
3524,F#5,278.65,1/5,127,104.0
3525,D2,278.85,1/5,127,104.0
3526,C#5,278.85,1/5,127,104.0
3527,D2,279.05,1/5,127,104.0
3528,G4,279.05,1/5,127,104.0
3529,C#4,279.25,2/5,127,104.0
3530,B5,279.25,1/5,127,104.0
3531,B2,279.25,1/5,127,104.0
3532,B1,279.25,1/5,127,104.0
3533,B2,279.45,1/5,127,104.0
3534,G4,279.45,1/5,127,104.0
3535,B2,279.65,1/5,127,104.0
3536,C#4,279.65,3/5,127,104.0
3537,C#5,279.65,1/5,127,104.0
3538,B2,279.85,1/5,127,104.0
3539,F#5,279.85,1/5,127,104.0
3540,B2,280.05,1/5,127,104.0
3541,B5,280.05,1/5,127,104.0
3542,C#4,280.25,2/5,127,104.0
3543,C#6,280.25,1/5,127,104.0
3544,C3,280.25,1/5,127,104.0
3545,B1,280.25,1/5,127,104.0
3546,C3,280.45,1/5,127,104.0
3547,B5,280.45,1/5,102,104.0
3548,C3,280.65,1/5,127,104.0
3549,C#4,280.65,3/5,127,104.0
3550,F#5,280.65,1/5,127,104.0
3551,C3,280.85,1/5,127,104.0
3552,C#5,280.85,1/5,127,104.0
3553,C3,281.05,1/5,127,104.0
3554,G4,281.05,1/5,127,104.0
3555,C#4,281.25,2/5,127,104.0
3556,G3,281.25,2.0,127,104.0
3557,A2,281.25,2.0,63,104.0
3558,C#4,281.25,2/5,127,104.0
3559,B5,281.25,1/5,127,104.0
3560,A2,281.25,1/5,127,104.0
3561,B1,281.25,1/5,127,104.0
3562,A2,281.45,1/5,127,104.0
3563,G4,281.45,1/5,127,104.0
3564,C#4,281.65,3/5,127,104.0
3565,A2,281.65,1/5,127,104.0
3566,C#4,281.65,3/5,127,104.0
3567,C#5,281.65,1/5,127,104.0
3568,A2,281.85,1/5,127,104.0
3569,F#5,281.85,1/5,127,104.0
3570,A2,282.05,1/5,127,104.0
3571,B5,282.05,1/5,127,104.0
3572,C#4,282.25,2/5,127,104.0
3573,C#4,282.25,2/5,127,104.0
3574,C#6,282.25,1/5,127,104.0
3575,G2,282.25,1/5,127,104.0
3576,B1,282.25,1/5,127,104.0
3577,G2,282.45,1/5,127,104.0
3578,B5,282.45,1/5,102,104.0
3579,C#4,282.65,3/5,127,104.0
3580,G2,282.65,1/5,127,104.0
3581,C#4,282.65,3/5,127,104.0
3582,F#5,282.65,1/5,127,104.0
3583,G2,282.85,1/5,127,104.0
3584,C#5,282.85,1/5,127,104.0
3585,G2,283.05,1/5,127,104.0
3586,G4,283.05,1/5,127,104.0
3587,C#4,283.25,2/5,127,104.0
3588,G2,283.25,0.5,127,104.0
3589,C#4,283.25,0.5,127,104.0
3590,B5,283.25,1.0,127,104.0
3591,C#4,283.65,3/5,127,104.0
3592,G1,283.75,0.5,127,104.0
3593,B-2,283.75,0.125,127,104.0
3594,G#2,283.875,0.375,127,104.0
3595,C#4,284.25,2/5,127,104.0
3596,A3,284.25,333/1000,127,104.0
3597,B-3,284.583,167/1000,127,104.0
3598,C#4,284.65,3/5,127,104.0
3599,E4,284.75,333/1000,127,104.0
3600,A3,285.083,167/1000,127,104.0
3601,B-2,285.083,167/1000,127,104.0
3602,C#4,285.083,167/1000,127,104.0
3603,C#4,285.25,2/5,127,104.0
3604,F#2,285.25,0.5,127,104.0
3605,F#1,285.25,0.5,127,104.0
3606,C#4,285.25,2.0,127,104.0
3607,G#2,285.25,0.5,127,104.0
3608,B1,285.25,0.5,127,104.0
3609,C#4,285.65,3/5,127,104.0
3610,F#2,285.75,0.5,127,104.0
3611,F#1,285.75,0.5,127,104.0
3612,F#2,285.75,0.5,127,104.0
3613,B1,285.75,0.5,127,104.0
3614,C#4,286.25,2/5,127,104.0
3615,F#2,286.25,0.75,127,104.0
3616,E4,286.25,1.0,127,104.0
3617,C#4,286.25,1.0,127,104.0
3618,B-3,286.25,1.0,127,104.0
3619,F#3,286.25,1.0,127,104.0
3620,F#2,286.25,0.5,127,104.0
3621,D2,286.25,0.5,127,104.0
3622,C#4,286.65,3/5,127,104.0
3623,F#2,286.75,333/1000,127,104.0
3624,B1,286.75,333/1000,127,104.0
3625,F#2,287.0,0.25,127,104.0
3626,B-2,287.083,167/1000,127,104.0
3627,B1,287.083,167/1000,127,104.0
3628,C#4,287.25,0.5,127,104.0
3629,F#2,287.25,0.5,127,104.0
3630,F#1,287.25,0.5,127,104.0
3631,F#2,287.25,333/1000,127,104.0
3632,B1,287.25,333/1000,127,104.0
3633,F#2,287.583,167/1000,127,104.0
3634,D2,287.583,167/1000,127,104.0
3635,F#2,287.75,0.5,127,104.0
3636,F#1,287.75,0.5,127,104.0
3637,F#2,287.75,0.5,127,104.0
3638,B1,287.75,0.5,127,104.0
3639,A3,288.25,333/1000,127,104.0
3640,F#2,288.25,1.0,127,104.0
3641,E4,288.25,1.0,127,104.0
3642,C#4,288.25,1.0,127,104.0
3643,B-3,288.25,1.0,127,104.0
3644,F#3,288.25,1.0,127,104.0
3645,F#2,288.25,0.5,127,104.0
3646,D2,288.25,0.5,127,104.0
3647,B-3,288.583,167/1000,127,104.0
3648,E4,288.75,333/1000,127,104.0
3649,F#2,288.75,0.5,127,104.0
3650,B1,288.75,0.5,127,104.0
3651,C#4,289.083,167/1000,127,104.0
3652,C#4,289.25,4.0,127,104.0
3653,G3,289.25,4.0,127,104.0
3654,C#4,289.25,2/5,127,104.0
3655,B5,289.25,1/5,127,104.0
3656,G2,289.25,1/5,127,104.0
3657,B1,289.25,1/5,127,104.0
3658,G2,289.45,1/5,127,104.0
3659,G4,289.45,1/5,127,104.0
3660,G2,289.65,1/5,127,104.0
3661,C#4,289.65,3/5,127,104.0
3662,C#5,289.65,1/5,127,104.0
3663,G2,289.85,1/5,127,104.0
3664,F#5,289.85,1/5,127,104.0
3665,G2,290.05,1/5,127,104.0
3666,B5,290.05,1/5,127,104.0
3667,A2,290.25,3.0,63,104.0
3668,C#4,290.25,2/5,127,104.0
3669,C#6,290.25,1/5,127,104.0
3670,D2,290.25,1/5,127,104.0
3671,B1,290.25,1/5,127,104.0
3672,D2,290.45,1/5,127,104.0
3673,B5,290.45,1/5,102,104.0
3674,D2,290.65,1/5,127,104.0
3675,C#4,290.65,3/5,127,104.0
3676,F#5,290.65,1/5,127,104.0
3677,D2,290.85,1/5,127,104.0
3678,C#5,290.85,1/5,127,104.0
3679,D2,291.05,1/5,127,104.0
3680,G4,291.05,1/5,127,104.0
3681,C#4,291.25,2/5,127,104.0
3682,B5,291.25,1/5,127,104.0
3683,B2,291.25,1/5,127,104.0
3684,B1,291.25,1/5,127,104.0
3685,B2,291.45,1/5,127,104.0
3686,G4,291.45,1/5,127,104.0
3687,B2,291.65,1/5,127,104.0
3688,C#4,291.65,3/5,127,104.0
3689,C#5,291.65,1/5,127,104.0
3690,B2,291.85,1/5,127,104.0
3691,F#5,291.85,1/5,127,104.0
3692,B2,292.05,1/5,127,104.0
3693,B5,292.05,1/5,127,104.0
3694,C#4,292.25,2/5,127,104.0
3695,C#6,292.25,1/5,127,104.0
3696,C3,292.25,1/5,127,104.0
3697,B1,292.25,1/5,127,104.0
3698,C3,292.45,1/5,127,104.0
3699,B5,292.45,1/5,102,104.0
3700,C3,292.65,1/5,127,104.0
3701,C#4,292.65,3/5,127,104.0
3702,F#5,292.65,1/5,127,104.0
3703,C3,292.85,1/5,127,104.0
3704,C#5,292.85,1/5,127,104.0
3705,C3,293.05,1/5,127,104.0
3706,G4,293.05,1/5,127,104.0
3707,C#4,293.25,2/5,127,104.0
3708,G3,293.25,2.0,127,104.0
3709,A2,293.25,2.0,63,104.0
3710,C#4,293.25,2/5,127,104.0
3711,B5,293.25,1/5,127,104.0
3712,A2,293.25,1/5,127,104.0
3713,B1,293.25,1/5,127,104.0
3714,A2,293.45,1/5,127,104.0
3715,G4,293.45,1/5,127,104.0
3716,C#4,293.65,3/5,127,104.0
3717,A2,293.65,1/5,127,104.0
3718,C#4,293.65,3/5,127,104.0
3719,C#5,293.65,1/5,127,104.0
3720,A2,293.85,1/5,127,104.0
3721,F#5,293.85,1/5,127,104.0
3722,A2,294.05,1/5,127,104.0
3723,B5,294.05,1/5,127,104.0
3724,C#4,294.25,2/5,127,104.0
3725,C#4,294.25,2/5,127,104.0
3726,C#6,294.25,1/5,127,104.0
3727,G2,294.25,1/5,127,104.0
3728,B1,294.25,1/5,127,104.0
3729,G2,294.45,1/5,127,104.0
3730,B5,294.45,1/5,102,104.0
3731,C#4,294.65,3/5,127,104.0
3732,G2,294.65,1/5,127,104.0
3733,C#4,294.65,3/5,127,104.0
3734,F#5,294.65,1/5,127,104.0
3735,G2,294.85,1/5,127,104.0
3736,C#5,294.85,1/5,127,104.0
3737,G2,295.05,1/5,127,104.0
3738,G4,295.05,1/5,127,104.0
3739,C#4,295.25,2/5,127,104.0
3740,G2,295.25,0.5,127,104.0
3741,C#4,295.25,0.5,127,104.0
3742,B5,295.25,1.0,127,104.0
3743,C#4,295.65,3/5,127,104.0
3744,G1,295.75,0.5,127,104.0
3745,B-2,295.75,0.125,127,104.0
3746,G#2,295.875,0.375,127,104.0
3747,C#4,296.25,2/5,127,104.0
3748,A3,296.25,333/1000,127,104.0
3749,B-3,296.583,167/1000,127,104.0
3750,C#4,296.65,3/5,127,104.0
3751,E4,296.75,333/1000,127,104.0
3752,A3,297.083,167/1000,127,104.0
3753,B-2,297.083,167/1000,127,104.0
3754,C#4,297.083,167/1000,127,104.0
3755,C#4,297.25,2/5,127,104.0
3756,F#2,297.25,0.5,127,104.0
3757,F#1,297.25,0.5,127,104.0
3758,C#4,297.25,2.0,127,104.0
3759,G#2,297.25,0.5,127,104.0
3760,B1,297.25,0.5,127,104.0
3761,C#4,297.65,3/5,127,104.0
3762,F#2,297.75,0.5,127,104.0
3763,F#1,297.75,0.5,127,104.0
3764,F#2,297.75,0.5,127,104.0
3765,B1,297.75,0.5,127,104.0
3766,C#4,298.25,2/5,127,104.0
3767,F#2,298.25,0.75,127,104.0
3768,E4,298.25,1.0,127,104.0
3769,C#4,298.25,1.0,127,104.0
3770,B-3,298.25,1.0,127,104.0
3771,F#3,298.25,1.0,127,104.0
3772,F#2,298.25,0.5,127,104.0
3773,D2,298.25,0.5,127,104.0
3774,C#4,298.65,3/5,127,104.0
3775,F#2,298.75,333/1000,127,104.0
3776,B1,298.75,333/1000,127,104.0
3777,F#2,299.0,0.25,127,104.0
3778,B-2,299.083,167/1000,127,104.0
3779,B1,299.083,167/1000,127,104.0
3780,C#4,299.25,0.5,127,104.0
3781,F#2,299.25,0.5,127,104.0
3782,F#1,299.25,0.5,127,104.0
3783,F#2,299.25,333/1000,127,104.0
3784,B1,299.25,333/1000,127,104.0
3785,F#2,299.583,167/1000,127,104.0
3786,D2,299.583,167/1000,127,104.0
3787,F#2,299.75,0.5,127,104.0
3788,F#1,299.75,0.5,127,104.0
3789,F#2,299.75,0.5,127,104.0
3790,B1,299.75,0.5,127,104.0
3791,A3,300.25,333/1000,127,104.0
3792,F#2,300.25,1.0,127,104.0
3793,E4,300.25,1.0,127,104.0
3794,C#4,300.25,1.0,127,104.0
3795,B-3,300.25,1.0,127,104.0
3796,F#3,300.25,1.0,127,104.0
3797,F#2,300.25,0.5,127,104.0
3798,D2,300.25,0.5,127,104.0
3799,B-3,300.583,167/1000,127,104.0
3800,E4,300.75,333/1000,127,104.0
3801,F#2,300.75,0.5,127,104.0
3802,B1,300.75,0.5,127,104.0
3803,C#4,301.083,167/1000,127,104.0
3804,C#4,301.25,4.0,127,104.0
3805,G3,301.25,4.0,127,104.0
3806,C#4,301.25,2/5,127,104.0
3807,B5,301.25,1/5,127,104.0
3808,G2,301.25,1/5,127,104.0
3809,B1,301.25,1/5,127,104.0
3810,G2,301.45,1/5,127,104.0
3811,G4,301.45,1/5,127,104.0
3812,G2,301.65,1/5,127,104.0
3813,C#4,301.65,3/5,127,104.0
3814,C#5,301.65,1/5,127,104.0
3815,G2,301.85,1/5,127,104.0
3816,F#5,301.85,1/5,127,104.0
3817,G2,302.05,1/5,127,104.0
3818,B5,302.05,1/5,127,104.0
3819,A2,302.25,3.0,63,104.0
3820,C#4,302.25,2/5,127,104.0
3821,C#6,302.25,1/5,127,104.0
3822,D2,302.25,1/5,127,104.0
3823,B1,302.25,1/5,127,104.0
3824,D2,302.45,1/5,127,104.0
3825,B5,302.45,1/5,102,104.0
3826,D2,302.65,1/5,127,104.0
3827,C#4,302.65,3/5,127,104.0
3828,F#5,302.65,1/5,127,104.0
3829,D2,302.85,1/5,127,104.0
3830,C#5,302.85,1/5,127,104.0
3831,D2,303.05,1/5,127,104.0
3832,G4,303.05,1/5,127,104.0
3833,C#4,303.25,2/5,127,104.0
3834,B5,303.25,1/5,127,104.0
3835,B2,303.25,1/5,127,104.0
3836,B1,303.25,1/5,127,104.0
3837,B2,303.45,1/5,127,104.0
3838,G4,303.45,1/5,127,104.0
3839,B2,303.65,1/5,127,104.0
3840,C#4,303.65,3/5,127,104.0
3841,C#5,303.65,1/5,127,104.0
3842,B2,303.85,1/5,127,104.0
3843,F#5,303.85,1/5,127,104.0
3844,B2,304.05,1/5,127,104.0
3845,B5,304.05,1/5,127,104.0
3846,C#4,304.25,2/5,127,104.0
3847,C#6,304.25,1/5,127,104.0
3848,C3,304.25,1/5,127,104.0
3849,B1,304.25,1/5,127,104.0
3850,C3,304.45,1/5,127,104.0
3851,B5,304.45,1/5,102,104.0
3852,C3,304.65,1/5,127,104.0
3853,C#4,304.65,3/5,127,104.0
3854,F#5,304.65,1/5,127,104.0
3855,C3,304.85,1/5,127,104.0
3856,C#5,304.85,1/5,127,104.0
3857,C3,305.05,1/5,127,104.0
3858,G4,305.05,1/5,127,104.0
3859,C#4,305.25,2/5,127,104.0
3860,G3,305.25,2.0,127,104.0
3861,A2,305.25,2.0,63,104.0
3862,C#4,305.25,2/5,127,104.0
3863,B5,305.25,1/5,127,104.0
3864,A2,305.25,1/5,127,104.0
3865,B1,305.25,1/5,127,104.0
3866,A2,305.45,1/5,127,104.0
3867,G4,305.45,1/5,127,104.0
3868,C#4,305.65,3/5,127,104.0
3869,A2,305.65,1/5,127,104.0
3870,C#4,305.65,3/5,127,104.0
3871,C#5,305.65,1/5,127,104.0
3872,A2,305.85,1/5,127,104.0
3873,F#5,305.85,1/5,127,104.0
3874,A2,306.05,1/5,127,104.0
3875,B5,306.05,1/5,127,104.0
3876,C#4,306.25,2/5,127,104.0
3877,C#4,306.25,2/5,127,104.0
3878,C#6,306.25,1/5,127,104.0
3879,G2,306.25,1/5,127,104.0
3880,B1,306.25,1/5,127,104.0
3881,G2,306.45,1/5,127,104.0
3882,B5,306.45,1/5,102,104.0
3883,C#4,306.65,3/5,127,104.0
3884,G2,306.65,1/5,127,104.0
3885,C#4,306.65,3/5,127,104.0
3886,F#5,306.65,1/5,127,104.0
3887,G2,306.85,1/5,127,104.0
3888,C#5,306.85,1/5,127,104.0
3889,G2,307.05,1/5,127,104.0
3890,G4,307.05,1/5,127,104.0
3891,C#4,307.25,2/5,127,104.0
3892,G2,307.25,0.5,127,104.0
3893,C#4,307.25,0.5,127,104.0
3894,B5,307.25,1.0,127,104.0
3895,C#4,307.65,3/5,127,104.0
3896,G1,307.75,0.5,127,104.0
3897,B-2,307.75,0.125,127,104.0
3898,G#2,307.875,0.375,127,104.0
3899,C#4,308.25,2/5,127,104.0
3900,A3,308.25,333/1000,127,104.0
3901,B-3,308.583,167/1000,127,104.0
3902,C#4,308.65,3/5,127,104.0
3903,E4,308.75,333/1000,127,104.0
3904,B-2,309.083,167/1000,127,104.0
3905,C#4,309.083,167/1000,127,104.0
3906,C#4,309.25,2/5,127,104.0
3907,F#1,309.25,0.5,127,104.0
3908,B-3,309.25,333/1000,127,104.0
3909,G#2,309.25,0.5,127,104.0
3910,B1,309.25,0.5,127,104.0
3911,C#4,309.583,167/1000,127,104.0
3912,C#4,309.65,3/5,127,104.0
3913,F#1,309.75,0.5,127,104.0
3914,F#4,309.75,0.5,127,104.0
3915,F#2,309.75,0.5,127,104.0
3916,B1,309.75,0.5,127,104.0
3917,C#4,310.25,2/5,127,104.0
3918,F#2,310.25,333/1000,127,104.0
3919,F#4,310.25,333/1000,127,104.0
3920,F#2,310.25,0.5,127,104.0
3921,D2,310.25,0.5,127,104.0
3922,E2,310.583,167/1000,127,104.0
3923,E4,310.583,167/1000,127,104.0
3924,C#4,310.65,3/5,127,104.0
3925,C#2,310.75,333/1000,127,104.0
3926,C#4,310.75,333/1000,127,104.0
3927,F#2,310.75,333/1000,127,104.0
3928,B1,310.75,333/1000,127,104.0
3929,B1,311.083,667/1000,127,104.0
3930,B3,311.083,2167/1000,127,104.0
3931,B-2,311.083,167/1000,127,104.0
3932,B1,311.083,167/1000,127,104.0
3933,C#4,311.25,0.5,127,104.0
3934,F#2,311.25,333/1000,127,104.0
3935,B1,311.25,333/1000,127,104.0
3936,F#2,311.583,167/1000,127,104.0
3937,D2,311.583,167/1000,127,104.0
3938,A1,311.75,0.5,127,104.0
3939,F#2,311.75,0.5,127,104.0
3940,B1,311.75,0.5,127,104.0
3941,A3,312.25,333/1000,127,104.0
3942,B1,312.25,1.0,127,104.0
3943,F#2,312.25,0.5,127,104.0
3944,D2,312.25,0.5,127,104.0
3945,B-3,312.583,167/1000,127,104.0
3946,E4,312.75,333/1000,127,104.0
3947,F#2,312.75,0.5,127,104.0
3948,B1,312.75,0.5,127,104.0
3949,A3,313.083,167/1000,127,104.0
3950,B-3,313.25,333/1000,127,104.0
3951,B1,313.25,0.5,127,104.0
3952,B3,313.25,2.0,127,104.0
3953,F#2,313.25,333/1000,127,104.0
3954,B1,313.25,333/1000,127,104.0
3955,C#4,313.583,167/1000,127,104.0
3956,F#2,313.583,167/1000,127,104.0
3957,B1,313.583,167/1000,127,104.0
3958,F#4,313.75,0.5,127,104.0
3959,A1,313.75,0.5,127,104.0
3960,F#2,313.75,0.5,127,104.0
3961,B1,313.75,0.5,127,104.0
3962,F#4,314.25,333/1000,127,104.0
3963,B1,314.25,1.0,127,104.0
3964,F#2,314.25,0.25,127,104.0
3965,D2,314.25,0.25,127,104.0
3966,B1,314.5,0.25,127,104.0
3967,E4,314.583,167/1000,127,104.0
3968,C#4,314.75,333/1000,127,104.0
3969,F#2,314.75,333/1000,127,104.0
3970,B3,315.083,2167/1000,127,104.0
3971,B-2,315.083,167/1000,127,104.0
3972,B1,315.083,167/1000,127,104.0
3973,A2,315.25,333/1000,127,104.0
3974,A4,315.25,333/1000,127,104.0
3975,F#2,315.25,0.5,127,104.0
3976,B1,315.25,0.5,127,104.0
3977,F#2,315.583,167/1000,127,104.0
3978,F#4,315.583,167/1000,127,104.0
3979,E2,315.75,333/1000,127,104.0
3980,E4,315.75,333/1000,127,104.0
3981,F#2,315.75,0.5,127,104.0
3982,B1,315.75,0.5,127,104.0
3983,C#2,316.083,167/1000,127,104.0
3984,C#4,316.083,167/1000,127,104.0
3985,B1,316.25,333/1000,127,104.0
3986,B3,316.25,333/1000,127,104.0
3987,G#2,316.25,333/1000,127,104.0
3988,D2,316.25,333/1000,127,104.0
3989,B1,316.25,333/1000,127,104.0
3990,A1,316.583,167/1000,127,104.0
3991,D2,316.583,167/1000,127,104.0
3992,A3,316.583,167/1000,127,104.0
3993,B1,316.75,333/1000,127,104.0
3994,B3,316.75,333/1000,127,104.0
3995,G#2,316.75,333/1000,127,104.0
3996,D2,316.75,333/1000,127,104.0
3997,B1,316.75,333/1000,127,104.0
3998,A1,317.083,167/1000,127,104.0
3999,D2,317.083,167/1000,127,104.0
4000,A3,317.083,167/1000,127,104.0
4001,B3,317.25,2.0,127,104.0
4002,B1,317.25,0.5,127,104.0
4003,B3,317.25,0.5,127,104.0
4004,B-2,317.25,0.5,127,104.0
4005,B1,317.25,0.5,127,104.0
4006,A1,317.75,0.5,127,104.0
4007,A3,317.75,0.5,127,104.0
4008,G#2,317.75,0.5,127,104.0
4009,B1,317.75,0.5,127,104.0
4010,F#2,318.25,1.0,127,104.0
4011,F#4,318.25,1.0,127,104.0
4012,F#2,318.25,0.5,127,104.0
4013,D2,318.25,0.5,127,104.0
4014,F#2,318.75,0.5,127,104.0
4015,B1,318.75,0.5,127,104.0
4016,A4,319.25,333/1000,127,104.0
4017,A2,319.25,333/1000,127,104.0
4018,A4,319.25,333/1000,127,104.0
4019,F#2,319.25,333/1000,127,104.0
4020,B1,319.25,333/1000,127,104.0
4021,F#4,319.583,167/1000,127,104.0
4022,F#2,319.583,167/1000,127,104.0
4023,B-2,319.583,167/1000,127,104.0
4024,F#4,319.583,167/1000,127,104.0
4025,E4,319.75,333/1000,127,104.0
4026,E2,319.75,333/1000,127,104.0
4027,E4,319.75,333/1000,127,104.0
4028,F#2,319.75,0.5,127,104.0
4029,B1,319.75,0.5,127,104.0
4030,C#4,320.083,167/1000,127,104.0
4031,C#2,320.083,167/1000,127,104.0
4032,C#4,320.083,167/1000,127,104.0
4033,B3,320.25,333/1000,127,104.0
4034,B1,320.25,333/1000,127,104.0
4035,B3,320.25,333/1000,127,104.0
4036,F#2,320.25,0.5,127,104.0
4037,D2,320.25,0.5,127,104.0
4038,A3,320.583,167/1000,127,104.0
4039,A1,320.583,167/1000,127,104.0
4040,A3,320.583,167/1000,127,104.0
4041,B3,320.75,333/1000,127,104.0
4042,B1,320.75,333/1000,127,104.0
4043,B3,320.75,333/1000,127,104.0
4044,F#2,320.75,0.5,127,104.0
4045,B1,320.75,0.5,127,104.0
4046,A3,321.083,167/1000,127,104.0
4047,A1,321.083,167/1000,127,104.0
4048,A3,321.083,167/1000,127,104.0
4049,B3,321.25,0.5,127,104.0
4050,B1,321.25,0.5,127,104.0
4051,B3,321.25,0.5,127,104.0
4052,F#2,321.25,0.5,127,104.0
4053,B1,321.25,0.5,127,104.0
4054,A3,321.75,0.5,127,104.0
4055,A1,321.75,0.5,127,104.0
4056,F#2,321.75,0.5,127,104.0
4057,A3,321.75,0.5,127,104.0
4058,F#4,322.25,1.0,127,104.0
4059,F#1,322.25,3.0,127,104.0
4060,C#3,322.25,3.0,127,104.0
4061,F#3,322.25,3.0,127,104.0
4062,A4,323.25,333/1000,127,104.0
4063,F#4,323.583,167/1000,127,104.0
4064,E4,323.75,333/1000,127,104.0
4065,C#4,324.083,167/1000,127,104.0
4066,B3,324.25,333/1000,127,104.0
4067,A3,324.583,167/1000,127,104.0
4068,B3,324.75,333/1000,127,104.0
4069,A3,325.083,167/1000,127,104.0
4070,B3,325.25,0.5,127,104.0
4071,D2,325.25,0.5,127,104.0
4072,A3,325.75,0.5,127,104.0
4073,A1,325.75,3.5,127,104.0
4074,A2,325.75,3.5,127,104.0
4075,B-2,325.75,0.125,127,104.0
4076,B1,325.75,0.125,127,104.0
4077,G#2,325.875,0.125,127,104.0
4078,F#2,326.0,0.125,127,104.0
4079,F#2,326.125,0.125,127,104.0
4080,F#3,326.25,3.0,127,104.0
4081,F#2,326.25,0.125,127,104.0
4082,F#2,326.375,0.125,127,104.0
4083,F#2,326.5,0.125,127,104.0
4084,F#2,326.625,0.125,127,104.0
4085,F#2,326.75,0.125,127,104.0
4086,F#2,326.875,0.125,127,104.0
4087,F#2,327.0,0.125,127,104.0
4088,F#2,327.125,0.125,127,104.0
4089,F#2,327.25,0.125,127,104.0
4090,F#2,327.375,0.125,127,104.0
4091,F#2,327.5,0.125,127,104.0
4092,F#2,327.625,0.125,127,104.0
4093,F#2,327.75,0.125,127,104.0
4094,F#2,327.875,0.125,127,104.0
4095,F#2,328.0,0.125,127,104.0
4096,F#2,328.125,0.125,127,104.0
4097,F#2,328.25,0.125,127,104.0
4098,F#2,328.375,0.125,127,104.0
4099,F#2,328.5,0.125,127,104.0
4100,F#2,328.625,0.125,127,104.0
4101,F#2,328.75,0.125,127,104.0
4102,F#2,328.875,0.125,127,104.0
4103,F#2,329.0,0.125,127,104.0
4104,F#2,329.125,31/250,127,104.0
4105,D2,329.25,0.5,127,104.0
4106,B1,329.75,3.5,127,104.0
4107,B2,329.75,3.5,127,104.0
4108,A4,329.75,3.5,127,104.0
4109,E4,329.75,3.5,127,104.0
4110,C#4,329.75,3.5,127,104.0
4111,A3,329.75,3.5,127,104.0
4112,E3,329.75,3.5,127,104.0
4113,A2,329.75,3.5,127,104.0
4114,B-2,329.75,0.125,127,104.0
4115,B1,329.75,0.125,127,104.0
4116,G#2,329.875,0.125,127,104.0
4117,F#2,330.0,0.125,127,104.0
4118,F#2,330.125,0.125,127,104.0
4119,F#2,330.25,0.125,127,104.0
4120,F#2,330.375,0.125,127,104.0
4121,F#2,330.5,0.125,127,104.0
4122,F#2,330.625,0.125,127,104.0
4123,F#2,330.75,0.125,127,104.0
4124,F#2,330.875,0.125,127,104.0
4125,F#2,331.0,0.125,127,104.0
4126,F#2,331.125,0.125,127,104.0
4127,F#2,331.25,0.125,127,104.0
4128,F#2,331.375,0.125,127,104.0
4129,F#2,331.5,0.125,127,104.0
4130,F#2,331.625,0.125,127,104.0
4131,F#2,331.75,0.125,127,104.0
4132,F#2,331.875,0.125,127,104.0
4133,F#2,332.0,0.125,127,104.0
4134,F#2,332.125,0.125,127,104.0
4135,F#2,332.25,0.125,127,104.0
4136,F#2,332.375,0.125,127,104.0
4137,F#2,332.5,0.125,127,104.0
4138,F#2,332.625,0.125,127,104.0
4139,F#2,332.75,0.125,127,104.0
4140,F#2,332.875,0.125,127,104.0
4141,F#2,333.0,0.125,127,104.0
4142,F#2,333.125,31/250,127,104.0
4143,F2,333.25,0.5,127,104.0
4144,C#2,333.75,4.5,127,104.0
4145,C#3,333.75,4.5,127,104.0
4146,D2,333.75,0.125,127,104.0
4147,C#3,333.75,4.5,127,104.0
4148,B4,333.75,3.5,127,104.0
4149,F#4,333.75,3.5,127,104.0
4150,E-4,333.75,3.5,127,104.0
4151,B3,333.75,3.5,127,104.0
4152,F#3,333.75,3.5,127,104.0
4153,B2,333.75,3.5,127,104.0
4154,D2,333.875,0.125,127,104.0
4155,D2,334.0,0.125,127,104.0
4156,D2,334.125,0.125,127,104.0
4157,D2,334.25,0.125,127,104.0
4158,D2,334.375,0.125,127,104.0
4159,D2,334.5,0.125,127,104.0
4160,D2,334.625,0.125,127,104.0
4161,D2,334.75,0.125,127,104.0
4162,D2,334.875,0.125,127,104.0
4163,D2,335.0,0.125,127,104.0
4164,D2,335.125,0.125,127,104.0
4165,D2,335.25,0.125,127,104.0
4166,D2,335.375,0.125,127,104.0
4167,D2,335.5,0.125,127,104.0
4168,D2,335.625,0.125,127,104.0
4169,D2,335.75,0.125,127,104.0
4170,D2,335.875,0.125,127,104.0
4171,D2,336.0,0.125,127,104.0
4172,D2,336.125,0.125,127,104.0
4173,D2,336.25,0.125,127,104.0
4174,D2,336.375,0.125,127,104.0
4175,D2,336.5,0.125,127,104.0
4176,D2,336.625,0.125,127,104.0
4177,D2,336.75,0.125,127,104.0
4178,D2,336.875,0.125,127,104.0
4179,D2,337.0,0.125,127,104.0
4180,D2,337.125,0.125,127,104.0
4181,D2,337.25,0.125,127,104.0
4182,D2,337.375,0.125,127,104.0
4183,D2,337.5,0.125,127,104.0
4184,D2,337.625,0.125,127,104.0
4185,D2,337.75,0.125,127,104.0
4186,C#5,337.75,4.5,127,104.0
4187,G#4,337.75,4.5,127,104.0
4188,F4,337.75,4.5,127,104.0
4189,C#4,337.75,4.5,127,104.0
4190,G#3,337.75,4.5,127,104.0
4191,C#3,337.75,4.5,127,104.0
4192,D2,337.875,0.125,127,104.0
4193,D2,338.0,0.125,127,104.0
4194,D2,338.125,31/250,127,104.0
4195,E3,338.25,0.25,127,104.0
4196,E2,338.25,1.25,127,104.0
4197,E4,338.25,0.25,127,104.0
4198,F#2,338.25,1.0,127,104.0
4199,B1,338.25,1.0,127,104.0
4200,B2,338.5,0.25,127,104.0
4201,B3,338.5,0.25,127,104.0
4202,E3,338.75,0.25,127,104.0
4203,E4,338.75,0.25,127,104.0
4204,F#3,339.0,0.25,127,104.0
4205,F#4,339.0,0.25,127,104.0
4206,G3,339.25,0.25,127,104.0
4207,G4,339.25,0.25,127,104.0
4208,B-3,339.5,0.25,127,104.0
4209,B-1,339.5,1.25,127,104.0
4210,B-4,339.5,0.25,127,104.0
4211,F#2,339.5,1.0,127,104.0
4212,D2,339.5,1.0,127,104.0
4213,B1,339.5,1.0,127,104.0
4214,F3,339.75,0.25,127,104.0
4215,F4,339.75,0.25,127,104.0
4216,B-3,340.0,0.25,127,104.0
4217,B-4,340.0,0.25,127,104.0
4218,C4,340.25,0.25,127,104.0
4219,C5,340.25,0.25,127,104.0
4220,C#4,340.5,0.25,127,104.0
4221,C#5,340.5,0.25,127,104.0
4222,D4,340.75,0.25,127,104.0
4223,D2,340.75,1.25,127,104.0
4224,D5,340.75,0.25,127,104.0
4225,F#2,340.75,1.0,127,104.0
4226,A2,340.75,1.0,127,104.0
4227,B1,340.75,1.0,127,104.0
4228,A3,341.0,0.25,127,104.0
4229,A4,341.0,0.25,127,104.0
4230,D4,341.25,0.25,127,104.0
4231,D5,341.25,0.25,127,104.0
4232,E4,341.5,0.25,127,104.0
4233,E5,341.5,0.25,127,104.0
4234,F4,341.75,0.25,127,104.0
4235,F5,341.75,0.25,127,104.0
4236,G4,342.0,0.25,127,104.0
4237,E-2,342.0,1.25,127,104.0
4238,G5,342.0,0.25,127,104.0
4239,A2,342.0,1.0,127,104.0
4240,B1,342.0,1.0,127,104.0
4241,E3,342.25,0.25,127,104.0
4242,E-4,342.25,0.25,127,104.0
4243,E-5,342.25,0.25,127,104.0
4244,B2,342.5,0.25,127,104.0
4245,G4,342.5,0.25,127,104.0
4246,G5,342.5,0.25,127,104.0
4247,E3,342.75,0.25,127,104.0
4248,A4,342.75,0.25,127,104.0
4249,A5,342.75,0.25,127,104.0
4250,F#3,343.0,0.25,127,104.0
4251,B-4,343.0,0.25,127,104.0
4252,B-5,343.0,0.25,127,104.0
4253,G3,343.25,0.25,127,104.0
4254,B4,343.25,0.25,127,104.0
4255,B1,343.25,1.25,127,104.0
4256,B5,343.25,0.25,127,104.0
4257,F#2,343.25,1.0,127,104.0
4258,D2,343.25,1.0,127,104.0
4259,B1,343.25,1.0,127,104.0
4260,B-3,343.5,0.25,127,104.0
4261,F#4,343.5,0.25,127,104.0
4262,F#5,343.5,0.25,127,104.0
4263,F3,343.75,0.25,127,104.0
4264,B4,343.75,0.25,127,104.0
4265,B5,343.75,0.25,127,104.0
4266,B-3,344.0,0.25,127,104.0
4267,C#5,344.0,0.25,127,104.0
4268,C#6,344.0,0.25,127,104.0
4269,C4,344.25,0.25,127,104.0
4270,D5,344.25,0.25,127,104.0
4271,D6,344.25,0.25,127,104.0
4272,C#4,344.5,0.25,127,104.0
4273,C5,344.5,0.25,127,104.0
4274,C2,344.5,1.25,127,104.0
4275,C6,344.5,0.25,127,104.0
4276,F#2,344.5,1.0,127,104.0
4277,D2,344.5,1.0,127,104.0
4278,B1,344.5,1.0,127,104.0
4279,D4,344.75,0.25,127,104.0
4280,G4,344.75,0.25,127,104.0
4281,G5,344.75,0.25,127,104.0
4282,A3,345.0,0.25,127,104.0
4283,C5,345.0,0.25,127,104.0
4284,C6,345.0,0.25,127,104.0
4285,D4,345.25,0.25,127,104.0
4286,D5,345.25,0.25,127,104.0
4287,D6,345.25,0.25,127,104.0
4288,E4,345.5,0.25,127,104.0
4289,E-5,345.5,0.25,127,104.0
4290,E-6,345.5,0.25,127,104.0
4291,F4,345.75,0.25,127,104.0
4292,G#4,345.75,0.25,127,104.0
4293,E2,345.75,1.25,127,104.0
4294,G#5,345.75,0.25,127,104.0
4295,F#2,345.75,1.0,127,104.0
4296,B2,345.75,1.0,127,104.0
4297,B1,345.75,1.0,127,104.0
4298,G4,346.0,0.25,127,104.0
4299,E4,346.0,0.25,127,104.0
4300,E5,346.0,0.25,127,104.0
4301,E-4,346.25,0.25,127,104.0
4302,G#4,346.25,0.25,127,104.0
4303,G#5,346.25,0.25,127,104.0
4304,G4,346.5,0.25,127,104.0
4305,B-4,346.5,0.25,127,104.0
4306,B-5,346.5,0.25,127,104.0
4307,A4,346.75,0.25,127,104.0
4308,B4,346.75,0.25,127,104.0
4309,B5,346.75,0.25,127,104.0
4310,B-4,347.0,0.25,127,104.0
4311,A4,347.0,0.25,127,104.0
4312,F2,347.0,1.25,127,104.0
4313,A5,347.0,0.25,127,104.0
4314,F#2,347.0,1.0,127,104.0
4315,C3,347.0,1.0,127,104.0
4316,B1,347.0,1.0,127,104.0
4317,B4,347.25,0.25,127,104.0
4318,F4,347.25,0.25,127,104.0
4319,F5,347.25,0.25,127,104.0
4320,F#4,347.5,0.25,127,104.0
4321,A4,347.5,0.25,127,104.0
4322,A5,347.5,0.25,127,104.0
4323,B4,347.75,0.25,127,104.0
4324,B4,347.75,0.25,127,104.0
4325,B5,347.75,0.25,127,104.0
4326,C#5,348.0,0.25,127,104.0
4327,C5,348.0,0.25,127,104.0
4328,C6,348.0,0.25,127,104.0
4329,D5,348.25,0.25,127,104.0
4330,E5,348.25,0.25,127,104.0
4331,E4,348.25,0.25,127,104.0
4332,E6,348.25,0.25,127,104.0
4333,C5,348.5,0.25,127,104.0
4334,D5,348.5,0.25,127,104.0
4335,D4,348.5,0.25,127,104.0
4336,D6,348.5,0.25,127,104.0
4337,G4,348.75,0.25,127,104.0
4338,C5,348.75,0.25,127,104.0
4339,C4,348.75,0.25,127,104.0
4340,C6,348.75,0.25,127,104.0
4341,C5,349.0,0.25,127,104.0
4342,B4,349.0,0.25,127,104.0
4343,B3,349.0,0.25,127,104.0
4344,B5,349.0,0.25,127,104.0
4345,D5,349.25,0.25,127,104.0
4346,A4,349.25,0.25,127,104.0
4347,A3,349.25,0.25,127,104.0
4348,A5,349.25,0.25,127,104.0
4349,E-5,349.5,0.25,127,104.0
4350,G4,349.5,0.25,127,104.0
4351,G3,349.5,0.25,127,104.0
4352,G5,349.5,0.25,127,104.0
4353,G#4,349.75,0.25,127,104.0
4354,F4,349.75,0.25,127,104.0
4355,F3,349.75,0.25,127,104.0
4356,F5,349.75,0.25,127,104.0
4357,E4,350.0,0.25,127,104.0
4358,E4,350.0,0.25,127,104.0
4359,E3,350.0,0.25,127,104.0
4360,E5,350.0,0.25,127,104.0
4361,G#4,350.25,0.25,127,104.0
4362,D4,350.25,0.25,127,104.0
4363,D3,350.25,0.25,127,104.0
4364,D5,350.25,0.25,127,104.0
4365,B-4,350.5,0.25,127,104.0
4366,C4,350.5,0.25,127,104.0
4367,C3,350.5,0.25,127,104.0
4368,C5,350.5,0.25,127,104.0
4369,B4,350.75,0.25,127,104.0
4370,B3,350.75,0.25,127,104.0
4371,B2,350.75,0.25,127,104.0
4372,B4,350.75,0.25,127,104.0
4373,A4,351.0,0.25,127,104.0
4374,A3,351.0,0.25,127,104.0
4375,A2,351.0,0.25,127,104.0
4376,A4,351.0,0.25,127,104.0
4377,F4,351.25,0.25,127,104.0
4378,G3,351.25,0.25,127,104.0
4379,G2,351.25,0.25,127,104.0
4380,G4,351.25,0.25,127,104.0
4381,A4,351.5,0.25,127,104.0
4382,F3,351.5,0.25,127,104.0
4383,F2,351.5,0.25,127,104.0
4384,F4,351.5,0.25,127,104.0
4385,B4,351.75,0.25,127,104.0
4386,E3,351.75,0.25,127,104.0
4387,E2,351.75,0.25,127,104.0
4388,E4,351.75,0.25,127,104.0
4389,C5,352.0,0.25,127,104.0
4390,D3,352.0,0.25,127,104.0
4391,D2,352.0,0.25,127,104.0
4392,D4,352.0,0.25,127,104.0
4393,E5,352.25,0.25,127,104.0
4394,C3,352.25,0.25,127,104.0
4395,C2,352.25,0.25,127,104.0
4396,C4,352.25,0.25,127,104.0
4397,D5,352.5,0.25,127,104.0
4398,B2,352.5,0.25,127,104.0
4399,B1,352.5,0.25,127,104.0
4400,B3,352.5,0.25,127,104.0
4401,C5,352.75,0.25,127,104.0
4402,C3,352.75,0.25,127,104.0
4403,C2,352.75,0.25,127,104.0
4404,C4,352.75,0.25,127,104.0
4405,B4,353.0,0.25,127,104.0
4406,D3,353.0,0.25,127,104.0
4407,D2,353.0,0.25,127,104.0
4408,D4,353.0,0.25,127,104.0
4409,A4,353.25,0.25,127,104.0
4410,E3,353.25,0.25,127,104.0
4411,E2,353.25,1.25,127,104.0
4412,E4,353.25,0.25,127,104.0
4413,F#2,353.25,1.0,127,104.0
4414,D2,353.25,1.0,127,104.0
4415,B1,353.25,1.0,127,104.0
4416,G4,353.5,0.25,127,104.0
4417,B2,353.5,0.25,127,104.0
4418,B3,353.5,0.25,127,104.0
4419,F4,353.75,0.25,127,104.0
4420,E3,353.75,0.25,127,104.0
4421,E4,353.75,0.25,127,104.0
4422,E4,354.0,0.25,127,104.0
4423,F#3,354.0,0.25,127,104.0
4424,F#4,354.0,0.25,127,104.0
4425,D4,354.25,0.25,127,104.0
4426,G3,354.25,0.25,127,104.0
4427,G4,354.25,0.25,127,104.0
4428,C4,354.5,0.25,127,104.0
4429,B-3,354.5,0.25,127,104.0
4430,B-1,354.5,1.25,127,104.0
4431,B-4,354.5,0.25,127,104.0
4432,F#2,354.5,1.0,127,104.0
4433,A2,354.5,1.0,127,104.0
4434,B1,354.5,1.0,127,104.0
4435,B3,354.75,0.25,127,104.0
4436,F3,354.75,0.25,127,104.0
4437,F4,354.75,0.25,127,104.0
4438,A3,355.0,0.25,127,104.0
4439,B-3,355.0,0.25,127,104.0
4440,B-4,355.0,0.25,127,104.0
4441,G3,355.25,0.25,127,104.0
4442,C4,355.25,0.25,127,104.0
4443,C5,355.25,0.25,127,104.0
4444,F3,355.5,0.25,127,104.0
4445,C#4,355.5,0.25,127,104.0
4446,C#5,355.5,0.25,127,104.0
4447,E3,355.75,0.25,127,104.0
4448,D4,355.75,0.25,127,104.0
4449,D2,355.75,1.25,127,104.0
4450,D5,355.75,0.25,127,104.0
4451,F#2,355.75,1.0,127,104.0
4452,C3,355.75,1.0,127,104.0
4453,B1,355.75,1.0,127,104.0
4454,D3,356.0,0.25,127,104.0
4455,A3,356.0,0.25,127,104.0
4456,A4,356.0,0.25,127,104.0
4457,C3,356.25,0.25,127,104.0
4458,D4,356.25,0.25,127,104.0
4459,D5,356.25,0.25,127,104.0
4460,B2,356.5,0.25,127,104.0
4461,E4,356.5,0.25,127,104.0
4462,E5,356.5,0.25,127,104.0
4463,C3,356.75,0.25,127,104.0
4464,F4,356.75,0.25,127,104.0
4465,F5,356.75,0.25,127,104.0
4466,D3,357.0,0.25,127,104.0
4467,G4,357.0,0.25,127,104.0
4468,E-2,357.0,1.25,127,104.0
4469,G5,357.0,0.25,127,104.0
4470,F#2,357.0,1.0,127,104.0
4471,D3,357.0,1.0,127,104.0
4472,B1,357.0,1.0,127,104.0
4473,E3,357.25,0.25,127,104.0
4474,E-4,357.25,0.25,127,104.0
4475,E-5,357.25,0.25,127,104.0
4476,B2,357.5,0.25,127,104.0
4477,G4,357.5,0.25,127,104.0
4478,G5,357.5,0.25,127,104.0
4479,E3,357.75,0.25,127,104.0
4480,A4,357.75,0.25,127,104.0
4481,A5,357.75,0.25,127,104.0
4482,F#3,358.0,0.25,127,104.0
4483,B-4,358.0,0.25,127,104.0
4484,B-5,358.0,0.25,127,104.0
4485,G3,358.25,0.25,127,104.0
4486,B4,358.25,0.25,127,104.0
4487,B1,358.25,1.25,127,104.0
4488,B5,358.25,0.25,127,104.0
4489,F#2,358.25,1.0,127,104.0
4490,D2,358.25,1.0,127,104.0
4491,B1,358.25,1.0,127,104.0
4492,B-3,358.5,0.25,127,104.0
4493,F#4,358.5,0.25,127,104.0
4494,F#5,358.5,0.25,127,104.0
4495,F3,358.75,0.25,127,104.0
4496,B4,358.75,0.25,127,104.0
4497,B5,358.75,0.25,127,104.0
4498,B-3,359.0,0.25,127,104.0
4499,C#5,359.0,0.25,127,104.0
4500,C#6,359.0,0.25,127,104.0
4501,C4,359.25,0.25,127,104.0
4502,D5,359.25,0.25,127,104.0
4503,D6,359.25,0.25,127,104.0
4504,C#4,359.5,0.25,127,104.0
4505,C5,359.5,0.25,127,104.0
4506,C2,359.5,1.25,127,104.0
4507,C6,359.5,0.25,127,104.0
4508,F#2,359.5,1.0,127,104.0
4509,D2,359.5,1.0,127,104.0
4510,B1,359.5,1.0,127,104.0
4511,D4,359.75,0.25,127,104.0
4512,G4,359.75,0.25,127,104.0
4513,G5,359.75,0.25,127,104.0
4514,A3,360.0,0.25,127,104.0
4515,C5,360.0,0.25,127,104.0
4516,C6,360.0,0.25,127,104.0
4517,D4,360.25,0.25,127,104.0
4518,D5,360.25,0.25,127,104.0
4519,D6,360.25,0.25,127,104.0
4520,E4,360.5,0.25,127,104.0
4521,E-5,360.5,0.25,127,104.0
4522,E-6,360.5,0.25,127,104.0
4523,F4,360.75,0.25,127,104.0
4524,G#4,360.75,0.25,127,104.0
4525,E2,360.75,1.25,127,104.0
4526,G#5,360.75,0.25,127,104.0
4527,F#2,360.75,1.0,127,104.0
4528,B2,360.75,1.0,127,104.0
4529,B1,360.75,1.0,127,104.0
4530,G4,361.0,0.25,127,104.0
4531,E4,361.0,0.25,127,104.0
4532,E5,361.0,0.25,127,104.0
4533,E-4,361.25,0.25,127,104.0
4534,G#4,361.25,0.25,127,104.0
4535,G#5,361.25,0.25,127,104.0
4536,G4,361.5,0.25,127,104.0
4537,B-4,361.5,0.25,127,104.0
4538,B-5,361.5,0.25,127,104.0
4539,A4,361.75,0.25,127,104.0
4540,B4,361.75,0.25,127,104.0
4541,B5,361.75,0.25,127,104.0
4542,B-4,362.0,0.25,127,104.0
4543,A4,362.0,0.25,127,104.0
4544,F2,362.0,1.25,127,104.0
4545,A5,362.0,0.25,127,104.0
4546,C3,362.0,1.0,127,104.0
4547,B1,362.0,1.0,127,104.0
4548,B4,362.25,0.25,127,104.0
4549,F4,362.25,0.25,127,104.0
4550,F5,362.25,0.25,127,104.0
4551,F#4,362.5,0.25,127,104.0
4552,A4,362.5,0.25,127,104.0
4553,A5,362.5,0.25,127,104.0
4554,B4,362.75,0.25,127,104.0
4555,B4,362.75,0.25,127,104.0
4556,B5,362.75,0.25,127,104.0
4557,C#5,363.0,0.25,127,104.0
4558,C5,363.0,0.25,127,104.0
4559,C6,363.0,0.25,127,104.0
4560,D5,363.25,0.25,127,104.0
4561,E5,363.25,0.25,127,104.0
4562,E4,363.25,0.25,127,104.0
4563,D2,363.25,0.125,127,104.0
4564,E6,363.25,0.25,127,104.0
4565,D2,363.375,0.125,127,104.0
4566,C5,363.5,0.25,127,104.0
4567,D5,363.5,0.25,127,104.0
4568,D4,363.5,0.25,127,104.0
4569,D2,363.5,0.125,127,104.0
4570,D6,363.5,0.25,127,104.0
4571,D2,363.625,0.125,127,104.0
4572,G4,363.75,0.25,127,104.0
4573,C5,363.75,0.25,127,104.0
4574,C4,363.75,0.25,127,104.0
4575,D2,363.75,0.125,127,104.0
4576,C6,363.75,0.25,127,104.0
4577,D2,363.875,0.125,127,104.0
4578,C5,364.0,0.25,127,104.0
4579,B4,364.0,0.25,127,104.0
4580,B3,364.0,0.25,127,104.0
4581,D2,364.0,0.125,127,104.0
4582,B5,364.0,0.25,127,104.0
4583,D2,364.125,0.125,127,104.0
4584,D5,364.25,0.25,127,104.0
4585,A4,364.25,0.25,127,104.0
4586,A3,364.25,0.25,127,104.0
4587,D2,364.25,0.125,127,104.0
4588,A5,364.25,0.25,127,104.0
4589,D2,364.375,0.125,127,104.0
4590,E-5,364.5,0.25,127,104.0
4591,G4,364.5,0.25,127,104.0
4592,G3,364.5,0.25,127,104.0
4593,D2,364.5,0.125,127,104.0
4594,G5,364.5,0.25,127,104.0
4595,D2,364.625,0.125,127,104.0
4596,G#4,364.75,0.25,127,104.0
4597,F4,364.75,0.25,127,104.0
4598,F3,364.75,0.25,127,104.0
4599,D2,364.75,0.125,127,104.0
4600,F5,364.75,0.25,127,104.0
4601,D2,364.875,0.125,127,104.0
4602,E4,365.0,0.25,127,104.0
4603,E4,365.0,0.25,127,104.0
4604,E3,365.0,0.25,127,104.0
4605,D2,365.0,0.125,127,104.0
4606,E5,365.0,0.25,127,104.0
4607,D2,365.125,0.125,127,104.0
4608,G#4,365.25,0.25,127,104.0
4609,D4,365.25,0.25,127,104.0
4610,D3,365.25,0.25,127,104.0
4611,D2,365.25,0.125,127,104.0
4612,D5,365.25,0.25,127,104.0
4613,D2,365.375,0.125,127,104.0
4614,B-4,365.5,0.25,127,104.0
4615,C4,365.5,0.25,127,104.0
4616,C3,365.5,0.25,127,104.0
4617,D2,365.5,0.125,127,104.0
4618,C5,365.5,0.25,127,104.0
4619,D2,365.625,0.125,127,104.0
4620,B4,365.75,0.25,127,104.0
4621,B3,365.75,0.25,127,104.0
4622,B2,365.75,0.25,127,104.0
4623,D2,365.75,0.125,127,104.0
4624,B4,365.75,0.25,127,104.0
4625,D2,365.875,0.125,127,104.0
4626,A4,366.0,0.25,127,104.0
4627,A3,366.0,0.25,127,104.0
4628,A2,366.0,0.25,127,104.0
4629,D2,366.0,0.125,127,104.0
4630,A4,366.0,0.25,127,104.0
4631,D2,366.125,0.125,127,104.0
4632,F4,366.25,0.25,127,104.0
4633,G3,366.25,0.25,127,104.0
4634,G2,366.25,0.25,127,104.0
4635,D2,366.25,0.125,127,104.0
4636,G4,366.25,0.25,127,104.0
4637,D2,366.375,0.125,127,104.0
4638,A4,366.5,0.25,127,104.0
4639,F3,366.5,0.25,127,104.0
4640,F2,366.5,0.25,127,104.0
4641,D2,366.5,0.125,127,104.0
4642,F4,366.5,0.25,127,104.0
4643,D2,366.625,0.125,127,104.0
4644,B4,366.75,0.25,127,104.0
4645,E3,366.75,0.25,127,104.0
4646,E2,366.75,0.25,127,104.0
4647,D2,366.75,0.125,127,104.0
4648,E4,366.75,0.25,127,104.0
4649,D2,366.875,31/250,127,104.0
4650,C5,367.0,0.25,127,104.0
4651,D3,367.0,0.25,127,104.0
4652,D2,367.0,0.25,127,104.0
4653,D2,367.0,0.25,127,104.0
4654,D4,367.0,0.25,127,104.0
4655,E5,367.25,0.25,127,104.0
4656,C3,367.25,0.25,127,104.0
4657,C2,367.25,0.25,127,104.0
4658,D2,367.25,0.25,127,104.0
4659,C4,367.25,0.25,127,104.0
4660,D5,367.5,0.25,127,104.0
4661,B2,367.5,0.25,127,104.0
4662,B1,367.5,0.25,127,104.0
4663,D2,367.5,0.25,127,104.0
4664,B3,367.5,0.25,127,104.0
4665,C5,367.75,0.25,127,104.0
4666,C3,367.75,0.25,127,104.0
4667,C2,367.75,0.25,127,104.0
4668,D2,367.75,0.25,127,104.0
4669,C4,367.75,0.25,127,104.0
4670,B4,368.0,0.25,127,104.0
4671,D3,368.0,0.25,127,104.0
4672,D2,368.0,0.25,127,104.0
4673,D2,368.0,0.25,127,104.0
4674,D4,368.0,0.25,127,104.0
4675,A4,368.25,0.25,127,104.0
4676,A2,368.25,0.25,127,104.0
4677,A1,368.25,0.25,127,104.0
4678,A3,368.25,0.25,127,104.0
4679,F3,368.25,0.25,127,104.0
4680,D2,368.25,0.25,127,104.0
4681,B1,368.25,0.25,127,104.0
4682,G4,368.5,0.25,127,104.0
4683,E3,368.5,0.25,127,104.0
4684,B1,368.5,0.25,127,104.0
4685,E4,368.5,0.25,127,104.0
4686,F4,368.75,0.25,127,104.0
4687,B3,368.75,0.25,127,104.0
4688,A1,368.75,0.5,127,104.0
4689,B4,368.75,0.25,127,104.0
4690,F3,368.75,0.25,127,104.0
4691,D2,368.75,0.25,127,104.0
4692,B1,368.75,0.25,127,104.0
4693,E4,369.0,0.25,127,104.0
4694,G3,369.0,0.25,127,104.0
4695,B1,369.0,0.25,127,104.0
4696,G4,369.0,0.25,127,104.0
4697,D4,369.25,0.25,127,104.0
4698,C4,369.25,0.25,127,104.0
4699,A1,369.25,0.25,127,104.0
4700,C5,369.25,0.25,127,104.0
4701,F3,369.25,0.25,127,104.0
4702,B1,369.25,0.25,127,104.0
4703,C4,369.5,0.25,127,104.0
4704,D4,369.5,0.25,127,104.0
4705,A1,369.5,0.25,127,104.0
4706,D5,369.5,0.25,127,104.0
4707,F3,369.5,0.25,127,104.0
4708,D2,369.5,0.25,127,104.0
4709,B1,369.5,0.25,127,104.0
4710,B3,369.75,0.25,127,104.0
4711,G4,369.75,0.25,127,104.0
4712,B1,369.75,0.25,127,104.0
4713,G5,369.75,0.25,127,104.0
4714,A3,370.0,0.25,127,104.0
4715,C5,370.0,0.25,127,104.0
4716,A1,370.0,0.5,127,104.0
4717,C6,370.0,0.25,127,104.0
4718,F3,370.0,0.25,127,104.0
4719,D2,370.0,0.25,127,104.0
4720,B1,370.0,0.25,127,104.0
4721,G3,370.25,0.25,127,104.0
4722,B4,370.25,0.25,127,104.0
4723,B1,370.25,0.25,127,104.0
4724,B5,370.25,0.25,127,104.0
4725,F3,370.5,0.25,127,104.0
4726,G4,370.5,0.25,127,104.0
4727,A1,370.5,0.25,127,104.0
4728,G5,370.5,0.25,127,104.0
4729,B-2,370.5,0.25,127,104.0
4730,B1,370.5,0.25,127,104.0
4731,E3,370.75,0.25,127,104.0
4732,E4,370.75,0.25,127,104.0
4733,B-1,370.75,0.25,127,104.0
4734,E5,370.75,0.25,127,104.0
4735,F3,370.75,0.25,127,104.0
4736,G#2,370.75,0.25,127,104.0
4737,D2,370.75,0.25,127,104.0
4738,B1,370.75,0.25,127,104.0
4739,D3,371.0,0.25,127,104.0
4740,C4,371.0,0.25,127,104.0
4741,B1,371.0,0.25,127,104.0
4742,C5,371.0,0.25,127,104.0
4743,C3,371.25,0.25,127,104.0
4744,A3,371.25,0.25,127,104.0
4745,B-1,371.25,0.5,127,104.0
4746,A4,371.25,0.25,127,104.0
4747,F3,371.25,0.25,127,104.0
4748,D2,371.25,0.25,127,104.0
4749,B1,371.25,0.25,127,104.0
4750,B2,371.5,0.25,127,104.0
4751,D4,371.5,0.25,127,104.0
4752,B1,371.5,0.25,127,104.0
4753,D5,371.5,0.25,127,104.0
4754,C3,371.75,0.25,127,104.0
4755,E4,371.75,0.25,127,104.0
4756,B-1,371.75,0.25,127,104.0
4757,E5,371.75,0.25,127,104.0
4758,F3,371.75,0.25,127,104.0
4759,B1,371.75,0.25,127,104.0
4760,D3,372.0,0.25,127,104.0
4761,A4,372.0,0.25,127,104.0
4762,B-1,372.0,0.25,127,104.0
4763,A5,372.0,0.25,127,104.0
4764,F3,372.0,0.25,127,104.0
4765,D2,372.0,0.25,127,104.0
4766,B1,372.0,0.25,127,104.0
4767,A2,372.25,0.25,127,104.0
4768,D5,372.25,0.25,127,104.0
4769,B1,372.25,0.25,127,104.0
4770,D6,372.25,0.25,127,104.0
4771,E3,372.5,0.25,127,104.0
4772,C#5,372.5,0.25,127,104.0
4773,B-1,372.5,0.5,127,104.0
4774,C#6,372.5,0.25,127,104.0
4775,F3,372.5,0.25,127,104.0
4776,D2,372.5,0.25,127,104.0
4777,B1,372.5,0.25,127,104.0
4778,B3,372.75,0.25,127,104.0
4779,A4,372.75,0.25,127,104.0
4780,B1,372.75,0.25,127,104.0
4781,A5,372.75,0.25,127,104.0
4782,G3,373.0,0.25,127,104.0
4783,F#4,373.0,0.25,127,104.0
4784,B-1,373.0,0.25,127,104.0
4785,F#5,373.0,0.25,127,104.0
4786,B-2,373.0,0.25,127,104.0
4787,B1,373.0,0.25,127,104.0
4788,C4,373.25,0.25,127,104.0
4789,D4,373.25,0.25,127,104.0
4790,B1,373.25,0.25,127,104.0
4791,D5,373.25,0.25,127,104.0
4792,F3,373.25,0.25,127,104.0
4793,D2,373.25,0.25,127,104.0
4794,B1,373.25,0.25,127,104.0
4795,D4,373.5,0.25,127,104.0
4796,B3,373.5,0.25,127,104.0
4797,B1,373.5,0.25,127,104.0
4798,B4,373.5,0.25,127,104.0
4799,G4,373.75,0.25,127,104.0
4800,E4,373.75,0.25,127,104.0
4801,B1,373.75,0.5,127,104.0
4802,E5,373.75,0.25,127,104.0
4803,F3,373.75,0.25,127,104.0
4804,D2,373.75,0.25,127,104.0
4805,B1,373.75,0.25,127,104.0
4806,C5,374.0,0.25,127,104.0
4807,F#4,374.0,0.25,127,104.0
4808,B1,374.0,0.25,127,104.0
4809,F#5,374.0,0.25,127,104.0
4810,B4,374.25,0.25,127,104.0
4811,B4,374.25,0.25,127,104.0
4812,B1,374.25,0.25,127,104.0
4813,B5,374.25,0.25,127,104.0
4814,F3,374.25,0.25,127,104.0
4815,B1,374.25,0.25,127,104.0
4816,G4,374.5,0.25,127,104.0
4817,E5,374.5,0.25,127,104.0
4818,B1,374.5,0.25,127,104.0
4819,E6,374.5,0.25,127,104.0
4820,F3,374.5,0.25,127,104.0
4821,D2,374.5,0.25,127,104.0
4822,B1,374.5,0.25,127,104.0
4823,E4,374.75,0.25,127,104.0
4824,E-5,374.75,0.25,127,104.0
4825,B1,374.75,0.25,127,104.0
4826,E-6,374.75,0.25,127,104.0
4827,C4,375.0,0.25,127,104.0
4828,B4,375.0,0.25,127,104.0
4829,B1,375.0,0.5,127,104.0
4830,B5,375.0,0.25,127,104.0
4831,F3,375.0,0.25,127,104.0
4832,D2,375.0,0.25,127,104.0
4833,B1,375.0,0.25,127,104.0
4834,A3,375.25,0.25,127,104.0
4835,G#4,375.25,0.25,127,104.0
4836,B1,375.25,0.25,127,104.0
4837,G#5,375.25,0.25,127,104.0
4838,D4,375.5,0.25,127,104.0
4839,E4,375.5,0.25,127,104.0
4840,B1,375.5,0.25,127,104.0
4841,E5,375.5,0.25,127,104.0
4842,B-2,375.5,0.25,127,104.0
4843,B1,375.5,0.25,127,104.0
4844,E4,375.75,0.25,127,104.0
4845,C#4,375.75,0.25,127,104.0
4846,C#2,375.75,0.25,127,104.0
4847,C#5,375.75,0.25,127,104.0
4848,F3,375.75,0.25,127,104.0
4849,G#2,375.75,0.25,127,104.0
4850,D2,375.75,0.25,127,104.0
4851,B1,375.75,0.25,127,104.0
4852,A4,376.0,0.25,127,104.0
4853,F#4,376.0,0.25,127,104.0
4854,B1,376.0,0.25,127,104.0
4855,F#5,376.0,0.25,127,104.0
4856,D5,376.25,0.25,127,104.0
4857,G#4,376.25,0.25,127,104.0
4858,C#2,376.25,0.5,127,104.0
4859,G#5,376.25,0.25,127,104.0
4860,F3,376.25,0.25,127,104.0
4861,D2,376.25,0.25,127,104.0
4862,B1,376.25,0.25,127,104.0
4863,C#5,376.5,0.25,127,104.0
4864,C#5,376.5,0.25,127,104.0
4865,B1,376.5,0.25,127,104.0
4866,C#6,376.5,0.25,127,104.0
4867,A4,376.75,0.25,127,104.0
4868,F#5,376.75,0.25,127,104.0
4869,C#2,376.75,0.25,127,104.0
4870,F#6,376.75,0.25,127,104.0
4871,F3,376.75,0.25,127,104.0
4872,B1,376.75,0.25,127,104.0
4873,F#4,377.0,0.25,127,104.0
4874,F5,377.0,0.25,127,104.0
4875,C#2,377.0,0.25,127,104.0
4876,F6,377.0,0.25,127,104.0
4877,F3,377.0,0.25,127,104.0
4878,D2,377.0,0.25,127,104.0
4879,B1,377.0,0.25,127,104.0
4880,D4,377.25,0.25,127,104.0
4881,C#5,377.25,0.25,127,104.0
4882,B1,377.25,0.25,127,104.0
4883,C#6,377.25,0.25,127,104.0
4884,B3,377.5,0.25,127,104.0
4885,B-4,377.5,0.25,127,104.0
4886,C#2,377.5,0.5,127,104.0
4887,B-5,377.5,0.25,127,104.0
4888,F3,377.5,0.25,127,104.0
4889,D2,377.5,0.25,127,104.0
4890,B1,377.5,0.25,127,104.0
4891,E4,377.75,0.25,127,104.0
4892,F#4,377.75,0.25,127,104.0
4893,B1,377.75,0.25,127,104.0
4894,F#5,377.75,0.25,127,104.0
4895,F#4,378.0,0.25,127,104.0
4896,E-4,378.0,0.25,127,104.0
4897,C#2,378.0,0.25,127,104.0
4898,E-5,378.0,0.25,127,104.0
4899,B-2,378.0,0.25,127,104.0
4900,B1,378.0,0.25,127,104.0
4901,B4,378.25,0.25,127,104.0
4902,G#4,378.25,0.25,127,104.0
4903,E-2,378.25,0.25,127,104.0
4904,G#5,378.25,0.25,127,104.0
4905,F3,378.25,0.25,127,104.0
4906,D2,378.25,0.25,127,104.0
4907,B1,378.25,0.25,127,104.0
4908,E5,378.5,0.25,127,104.0
4909,B-4,378.5,0.25,127,104.0
4910,B1,378.5,0.25,127,104.0
4911,B-5,378.5,0.25,127,104.0
4912,E-5,378.75,0.25,127,104.0
4913,E-5,378.75,0.25,127,104.0
4914,E-2,378.75,0.5,127,104.0
4915,E-6,378.75,0.25,127,104.0
4916,F3,378.75,0.25,127,104.0
4917,D2,378.75,0.25,127,104.0
4918,B1,378.75,0.25,127,104.0
4919,B4,379.0,0.25,127,104.0
4920,G#5,379.0,0.25,127,104.0
4921,B1,379.0,0.25,127,104.0
4922,G#6,379.0,0.25,127,104.0
4923,G#4,379.25,0.25,127,104.0
4924,G5,379.25,0.25,127,104.0
4925,E-2,379.25,0.25,127,104.0
4926,G6,379.25,0.25,127,104.0
4927,F3,379.25,0.25,127,104.0
4928,B1,379.25,0.25,127,104.0
4929,E4,379.5,0.25,127,104.0
4930,E-5,379.5,0.25,127,104.0
4931,E-2,379.5,0.25,127,104.0
4932,E-6,379.5,0.25,127,104.0
4933,F3,379.5,0.25,127,104.0
4934,D2,379.5,0.25,127,104.0
4935,B1,379.5,0.25,127,104.0
4936,C#4,379.75,0.25,127,104.0
4937,C5,379.75,0.25,127,104.0
4938,B1,379.75,0.25,127,104.0
4939,C6,379.75,0.25,127,104.0
4940,F#4,380.0,0.25,127,104.0
4941,G#4,380.0,0.25,127,104.0
4942,E-2,380.0,0.5,127,104.0
4943,G#5,380.0,0.25,127,104.0
4944,F3,380.0,0.25,127,104.0
4945,D2,380.0,0.25,127,104.0
4946,B1,380.0,0.25,127,104.0
4947,G#4,380.25,0.25,127,104.0
4948,F4,380.25,0.25,127,104.0
4949,B1,380.25,0.25,127,104.0
4950,F5,380.25,0.25,127,104.0
4951,C#5,380.5,0.25,127,104.0
4952,B-4,380.5,0.25,127,104.0
4953,E-2,380.5,0.25,127,104.0
4954,B-5,380.5,0.25,127,104.0
4955,F3,380.5,0.25,127,104.0
4956,B1,380.5,0.25,127,104.0
4957,F#5,380.75,0.25,127,104.0
4958,C5,380.75,0.25,127,104.0
4959,F2,380.75,0.25,127,104.0
4960,C6,380.75,0.25,127,104.0
4961,B-2,380.75,0.25,127,104.0
4962,B1,380.75,0.25,127,104.0
4963,F5,381.0,0.25,127,104.0
4964,G#2,381.0,0.25,127,104.0
4965,C#5,381.25,0.25,127,104.0
4966,C5,381.25,0.75,127,104.0
4967,F2,381.25,0.5,127,104.0
4968,C6,381.25,0.75,127,104.0
4969,B-2,381.25,0.25,127,104.0
4970,B1,381.25,0.25,127,104.0
4971,B-4,381.5,0.25,127,104.0
4972,G#2,381.5,0.25,127,104.0
4973,F#4,381.75,0.25,127,104.0
4974,F2,381.75,0.25,127,104.0
4975,D2,381.75,0.25,127,104.0
4976,B1,381.75,0.25,127,104.0
4977,E-4,382.0,0.25,127,104.0
4978,C5,382.0,0.25,127,104.0
4979,F2,382.0,0.25,127,104.0
4980,C6,382.0,0.25,127,104.0
4981,B-2,382.0,0.25,127,104.0
4982,B1,382.0,0.25,127,104.0
4983,G#4,382.25,0.25,127,104.0
4984,G#2,382.25,0.25,127,104.0
4985,B-4,382.5,0.25,127,104.0
4986,C5,382.5,0.75,127,104.0
4987,F2,382.5,0.5,127,104.0
4988,C6,382.5,0.75,127,104.0
4989,B-2,382.5,0.25,127,104.0
4990,B1,382.5,0.25,127,104.0
4991,E-5,382.75,0.25,127,104.0
4992,G#2,382.75,0.25,127,104.0
4993,G#5,383.0,0.25,127,104.0
4994,F2,383.0,0.25,127,104.0
4995,D2,383.0,0.25,127,104.0
4996,B1,383.0,0.25,127,104.0
4997,G5,383.25,0.25,127,104.0
4998,C5,383.25,0.25,127,104.0
4999,F2,383.25,0.25,127,104.0
5000,C6,383.25,0.25,127,104.0
5001,B-2,383.25,0.25,127,104.0
5002,B1,383.25,0.25,127,104.0
5003,E-5,383.5,0.25,127,104.0
5004,G#2,383.5,0.25,127,104.0
5005,C5,383.75,0.25,127,104.0
5006,C5,383.75,0.75,127,104.0
5007,F2,383.75,0.5,127,104.0
5008,C6,383.75,0.75,127,104.0
5009,B-2,383.75,0.25,127,104.0
5010,B1,383.75,0.25,127,104.0
5011,G#4,384.0,0.25,127,104.0
5012,G#2,384.0,0.25,127,104.0
5013,F4,384.25,0.25,127,104.0
5014,F2,384.25,0.25,127,104.0
5015,D2,384.25,0.25,127,104.0
5016,B1,384.25,0.25,127,104.0
5017,B-4,384.5,0.25,127,104.0
5018,C5,384.5,0.25,127,104.0
5019,F2,384.5,0.25,127,104.0
5020,C6,384.5,0.25,127,104.0
5021,B-2,384.5,0.25,127,104.0
5022,B1,384.5,0.25,127,104.0
5023,C5,384.75,0.25,127,104.0
5024,G#2,384.75,0.25,127,104.0
5025,C5,385.0,0.75,127,104.0
5026,F2,385.0,0.5,127,104.0
5027,C6,385.0,0.75,127,104.0
5028,B-2,385.0,0.25,127,104.0
5029,B1,385.0,0.25,127,104.0
5030,C5,385.25,0.75,127,104.0
5031,G#2,385.25,0.25,127,104.0
5032,F2,385.5,0.25,127,104.0
5033,D2,385.5,0.25,127,104.0
5034,B1,385.5,0.25,127,104.0
5035,E4,385.75,0.25,127,104.0
5036,E6,385.75,0.25,127,104.0
5037,C#6,385.75,0.25,127,104.0
5038,A5,385.75,0.25,127,104.0
5039,E5,385.75,0.25,127,104.0
5040,C#3,385.75,1.0,127,104.0
5041,D2,385.75,1.0,127,104.0
5042,B1,385.75,1.0,127,104.0
5043,C5,386.0,0.25,127,104.0
5044,D4,386.0,0.25,127,104.0
5045,D6,386.0,0.25,127,104.0
5046,B5,386.0,0.25,127,104.0
5047,G5,386.0,0.25,127,104.0
5048,D5,386.0,0.25,127,104.0
5049,C4,386.25,0.25,127,104.0
5050,C6,386.25,0.25,127,104.0
5051,A5,386.25,0.25,127,104.0
5052,F5,386.25,0.25,127,104.0
5053,C5,386.25,0.25,127,104.0
5054,C5,386.5,0.75,127,104.0
5055,B3,386.5,0.25,127,104.0
5056,B5,386.5,0.25,127,104.0
5057,G#5,386.5,0.25,127,104.0
5058,E5,386.5,0.25,127,104.0
5059,B4,386.5,0.25,127,104.0
5060,A3,386.75,0.25,127,104.0
5061,A5,386.75,0.25,127,104.0
5062,F#5,386.75,0.25,127,104.0
5063,D5,386.75,0.25,127,104.0
5064,A4,386.75,0.25,127,104.0
5065,G3,387.0,0.25,127,104.0
5066,G5,387.0,0.25,127,104.0
5067,E5,387.0,0.25,127,104.0
5068,C5,387.0,0.25,127,104.0
5069,G4,387.0,0.25,127,104.0
5070,C5,387.25,0.25,127,104.0
5071,F3,387.25,0.25,127,104.0
5072,F5,387.25,0.25,127,104.0
5073,D5,387.25,0.25,127,104.0
5074,B-4,387.25,0.25,127,104.0
5075,F4,387.25,0.25,127,104.0
5076,E3,387.5,0.25,127,104.0
5077,E5,387.5,0.25,127,104.0
5078,C#5,387.5,0.25,127,104.0
5079,A4,387.5,0.25,127,104.0
5080,E4,387.5,0.25,127,104.0
5081,C5,387.75,0.75,127,104.0
5082,D3,387.75,0.25,127,104.0
5083,D5,387.75,0.25,127,104.0
5084,B4,387.75,0.25,127,104.0
5085,G4,387.75,0.25,127,104.0
5086,D4,387.75,0.25,127,104.0
5087,C3,388.0,0.25,127,104.0
5088,C5,388.0,0.25,127,104.0
5089,A4,388.0,0.25,127,104.0
5090,F4,388.0,0.25,127,104.0
5091,C4,388.0,0.25,127,104.0
5092,B2,388.25,0.25,127,104.0
5093,B4,388.25,0.25,127,104.0
5094,G#4,388.25,0.25,127,104.0
5095,E4,388.25,0.25,127,104.0
5096,B3,388.25,0.25,127,104.0
5097,C5,388.5,0.25,127,104.0
5098,A2,388.5,0.25,127,104.0
5099,A4,388.5,0.25,127,104.0
5100,F#4,388.5,0.25,127,104.0
5101,D4,388.5,0.25,127,104.0
5102,A3,388.5,0.25,127,104.0
5103,G2,388.75,0.25,127,104.0
5104,G4,388.75,0.25,127,104.0
5105,E4,388.75,0.25,127,104.0
5106,C4,388.75,0.25,127,104.0
5107,G3,388.75,0.25,127,104.0
5108,C5,389.0,0.75,127,104.0
5109,F2,389.0,0.25,127,104.0
5110,F4,389.0,0.25,127,104.0
5111,D4,389.0,0.25,127,104.0
5112,B-3,389.0,0.25,127,104.0
5113,F3,389.0,0.25,127,104.0
5114,E2,389.25,0.25,127,104.0
5115,E4,389.25,0.25,127,104.0
5116,C#4,389.25,0.25,127,104.0
5117,A3,389.25,0.25,127,104.0
5118,E3,389.25,0.25,127,104.0
5119,D2,389.5,0.25,127,104.0
5120,C3,389.5,0.5,127,104.0
5121,D4,389.5,0.25,127,104.0
5122,B3,389.5,0.25,127,104.0
5123,G3,389.5,0.25,127,104.0
5124,D3,389.5,0.25,127,104.0
5125,E5,389.75,0.25,127,104.0
5126,C2,389.75,0.25,127,104.0
5127,C4,389.75,0.25,127,104.0
5128,A3,389.75,0.25,127,104.0
5129,F3,389.75,0.25,127,104.0
5130,C3,389.75,0.25,127,104.0
5131,D5,390.0,0.25,127,104.0
5132,B1,390.0,0.25,127,104.0
5133,B2,390.0,0.5,127,104.0
5134,B3,390.0,0.25,127,104.0
5135,G#3,390.0,0.25,127,104.0
5136,E3,390.0,0.25,127,104.0
5137,B2,390.0,0.25,127,104.0
5138,C5,390.25,0.25,127,104.0
5139,C2,390.25,0.25,127,104.0
5140,C4,390.25,0.25,127,104.0
5141,A3,390.25,0.25,127,104.0
5142,F3,390.25,0.25,127,104.0
5143,C3,390.25,0.25,127,104.0
5144,B4,390.5,0.25,127,104.0
5145,D2,390.5,0.25,127,104.0
5146,B2,390.5,0.25,127,104.0
5147,D4,390.5,0.25,127,104.0
5148,B3,390.5,0.25,127,104.0
5149,G3,390.5,0.25,127,104.0
5150,D3,390.5,0.25,127,104.0
5151,A4,390.75,0.25,127,104.0
5152,E2,390.75,1.25,127,104.0
5153,E4,390.75,0.25,127,104.0
5154,C#4,390.75,0.25,127,104.0
5155,A3,390.75,0.25,127,104.0
5156,E3,390.75,0.25,127,104.0
5157,F#2,390.75,0.25,127,104.0
5158,B1,390.75,0.25,127,104.0
5159,G4,391.0,0.25,127,104.0
5160,B1,391.0,0.25,127,104.0
5161,B3,391.0,0.25,127,104.0
5162,G#3,391.0,0.25,127,104.0
5163,E3,391.0,0.25,127,104.0
5164,B2,391.0,0.25,127,104.0
5165,F4,391.25,0.25,127,104.0
5166,E4,391.25,0.25,127,104.0
5167,C#4,391.25,0.25,127,104.0
5168,A3,391.25,0.25,127,104.0
5169,E3,391.25,0.25,127,104.0
5170,F#2,391.25,0.25,127,104.0
5171,D2,391.25,0.25,127,104.0
5172,B1,391.25,0.25,127,104.0
5173,E4,391.5,0.25,127,104.0
5174,B1,391.5,0.25,127,104.0
5175,F#4,391.5,0.25,127,104.0
5176,E-4,391.5,0.25,127,104.0
5177,B3,391.5,0.25,127,104.0
5178,F#3,391.5,0.25,127,104.0
5179,D4,391.75,0.25,127,104.0
5180,G4,391.75,0.25,127,104.0
5181,E4,391.75,0.25,127,104.0
5182,C4,391.75,0.25,127,104.0
5183,G3,391.75,0.25,127,104.0
5184,B-2,391.75,0.25,127,104.0
5185,D2,391.75,0.25,127,104.0
5186,C4,392.0,0.25,127,104.0
5187,B-1,392.0,1.25,127,104.0
5188,B-4,392.0,0.25,127,104.0
5189,G4,392.0,0.25,127,104.0
5190,E-4,392.0,0.25,127,104.0
5191,B-3,392.0,0.25,127,104.0
5192,F#2,392.0,0.25,127,104.0
5193,B1,392.0,0.25,127,104.0
5194,B3,392.25,0.25,127,104.0
5195,B1,392.25,0.25,127,104.0
5196,F4,392.25,0.25,127,104.0
5197,E4,392.25,0.25,127,104.0
5198,B-3,392.25,0.25,127,104.0
5199,F3,392.25,0.25,127,104.0
5200,A3,392.5,0.25,127,104.0
5201,B-4,392.5,0.25,127,104.0
5202,G4,392.5,0.25,127,104.0
5203,E-4,392.5,0.25,127,104.0
5204,B-3,392.5,0.25,127,104.0
5205,F#2,392.5,0.25,127,104.0
5206,D2,392.5,0.25,127,104.0
5207,B1,392.5,0.25,127,104.0
5208,G3,392.75,0.25,127,104.0
5209,B1,392.75,0.25,127,104.0
5210,C5,392.75,0.25,127,104.0
5211,A4,392.75,0.25,127,104.0
5212,F4,392.75,0.25,127,104.0
5213,C4,392.75,0.25,127,104.0
5214,F3,393.0,0.25,127,104.0
5215,C#5,393.0,0.25,127,104.0
5216,B-4,393.0,0.25,127,104.0
5217,F#4,393.0,0.25,127,104.0
5218,C#4,393.0,0.25,127,104.0
5219,B-2,393.0,0.25,127,104.0
5220,D2,393.0,0.25,127,104.0
5221,E3,393.25,0.25,127,104.0
5222,D2,393.25,1.25,127,104.0
5223,D5,393.25,0.25,127,104.0
5224,B4,393.25,0.25,127,104.0
5225,G4,393.25,0.25,127,104.0
5226,D4,393.25,0.25,127,104.0
5227,F#2,393.25,0.25,127,104.0
5228,B1,393.25,0.25,127,104.0
5229,D3,393.5,0.25,127,104.0
5230,B1,393.5,0.25,127,104.0
5231,A4,393.5,0.25,127,104.0
5232,F#4,393.5,0.25,127,104.0
5233,D4,393.5,0.25,127,104.0
5234,A3,393.5,0.25,127,104.0
5235,C3,393.75,0.25,127,104.0
5236,D5,393.75,0.25,127,104.0
5237,B4,393.75,0.25,127,104.0
5238,G4,393.75,0.25,127,104.0
5239,D4,393.75,0.25,127,104.0
5240,F#2,393.75,0.25,127,104.0
5241,D2,393.75,0.25,127,104.0
5242,B1,393.75,0.25,127,104.0
5243,B2,394.0,0.25,127,104.0
5244,B1,394.0,0.25,127,104.0
5245,E5,394.0,0.25,127,104.0
5246,C#5,394.0,0.25,127,104.0
5247,A4,394.0,0.25,127,104.0
5248,E4,394.0,0.25,127,104.0
5249,C3,394.25,0.25,127,104.0
5250,F5,394.25,0.25,127,104.0
5251,D5,394.25,0.25,127,104.0
5252,B-4,394.25,0.25,127,104.0
5253,F4,394.25,0.25,127,104.0
5254,B-2,394.25,0.25,127,104.0
5255,D2,394.25,0.25,127,104.0
5256,D3,394.5,0.25,127,104.0
5257,E-2,394.5,1.25,127,104.0
5258,G5,394.5,0.25,127,104.0
5259,E5,394.5,0.25,127,104.0
5260,C5,394.5,0.25,127,104.0
5261,G4,394.5,0.25,127,104.0
5262,F#2,394.5,0.25,127,104.0
5263,B1,394.5,0.25,127,104.0
5264,E3,394.75,0.25,127,104.0
5265,B1,394.75,0.25,127,104.0
5266,E-5,394.75,0.25,127,104.0
5267,C5,394.75,0.25,127,104.0
5268,G#4,394.75,0.25,127,104.0
5269,E-4,394.75,0.25,127,104.0
5270,B2,395.0,0.25,127,104.0
5271,G5,395.0,0.25,127,104.0
5272,E5,395.0,0.25,127,104.0
5273,C5,395.0,0.25,127,104.0
5274,G4,395.0,0.25,127,104.0
5275,F#2,395.0,0.25,127,104.0
5276,D2,395.0,0.25,127,104.0
5277,B1,395.0,0.25,127,104.0
5278,E3,395.25,0.25,127,104.0
5279,B1,395.25,0.25,127,104.0
5280,A5,395.25,0.25,127,104.0
5281,F#5,395.25,0.25,127,104.0
5282,D5,395.25,0.25,127,104.0
5283,A4,395.25,0.25,127,104.0
5284,F#3,395.5,0.25,127,104.0
5285,B-5,395.5,0.25,127,104.0
5286,G5,395.5,0.25,127,104.0
5287,E-5,395.5,0.25,127,104.0
5288,B-4,395.5,0.25,127,104.0
5289,B-2,395.5,0.25,127,104.0
5290,D2,395.5,0.25,127,104.0
5291,G3,395.75,0.25,127,104.0
5292,B1,395.75,1.25,127,104.0
5293,B5,395.75,0.25,127,104.0
5294,G#5,395.75,0.25,127,104.0
5295,E5,395.75,0.25,127,104.0
5296,B4,395.75,0.25,127,104.0
5297,F#2,395.75,0.25,127,104.0
5298,B1,395.75,0.25,127,104.0
5299,B-3,396.0,0.25,127,104.0
5300,B1,396.0,0.25,127,104.0
5301,F#5,396.0,0.25,127,104.0
5302,E-5,396.0,0.25,127,104.0
5303,B4,396.0,0.25,127,104.0
5304,F#4,396.0,0.25,127,104.0
5305,F3,396.25,0.25,127,104.0
5306,B5,396.25,0.25,127,104.0
5307,G#5,396.25,0.25,127,104.0
5308,E5,396.25,0.25,127,104.0
5309,B4,396.25,0.25,127,104.0
5310,F#2,396.25,0.25,127,104.0
5311,D2,396.25,0.25,127,104.0
5312,B1,396.25,0.25,127,104.0
5313,B-3,396.5,0.25,127,104.0
5314,B1,396.5,0.25,127,104.0
5315,C#6,396.5,0.25,127,104.0
5316,B-5,396.5,0.25,127,104.0
5317,F#5,396.5,0.25,127,104.0
5318,C#5,396.5,0.25,127,104.0
5319,C4,396.75,0.25,127,104.0
5320,D6,396.75,0.25,127,104.0
5321,B5,396.75,0.25,127,104.0
5322,G5,396.75,0.25,127,104.0
5323,D5,396.75,0.25,127,104.0
5324,B-2,396.75,0.25,127,104.0
5325,D2,396.75,0.25,127,104.0
5326,C#4,397.0,0.25,127,104.0
5327,C2,397.0,1.25,127,104.0
5328,C6,397.0,0.25,127,104.0
5329,A5,397.0,0.25,127,104.0
5330,F#5,397.0,0.25,127,104.0
5331,C5,397.0,0.25,127,104.0
5332,F#2,397.0,0.25,127,104.0
5333,B1,397.0,0.25,127,104.0
5334,D4,397.25,0.25,127,104.0
5335,B1,397.25,0.25,127,104.0
5336,G5,397.25,0.25,127,104.0
5337,E5,397.25,0.25,127,104.0
5338,C5,397.25,0.25,127,104.0
5339,G4,397.25,0.25,127,104.0
5340,A3,397.5,0.25,127,104.0
5341,C6,397.5,0.25,127,104.0
5342,A5,397.5,0.25,127,104.0
5343,F#5,397.5,0.25,127,104.0
5344,C5,397.5,0.25,127,104.0
5345,F#2,397.5,0.25,127,104.0
5346,D2,397.5,0.25,127,104.0
5347,B1,397.5,0.25,127,104.0
5348,D4,397.75,0.25,127,104.0
5349,B1,397.75,0.25,127,104.0
5350,D6,397.75,0.25,127,104.0
5351,B5,397.75,0.25,127,104.0
5352,G5,397.75,0.25,127,104.0
5353,D5,397.75,0.25,127,104.0
5354,E4,398.0,0.25,127,104.0
5355,E-6,398.0,0.25,127,104.0
5356,C6,398.0,0.25,127,104.0
5357,G#5,398.0,0.25,127,104.0
5358,E-5,398.0,0.25,127,104.0
5359,B-2,398.0,0.25,127,104.0
5360,D2,398.0,0.25,127,104.0
5361,F4,398.25,0.25,127,104.0
5362,E2,398.25,1.25,127,104.0
5363,G#5,398.25,0.25,127,104.0
5364,F5,398.25,0.25,127,104.0
5365,C#5,398.25,0.25,127,104.0
5366,G#4,398.25,0.25,127,104.0
5367,F#2,398.25,0.25,127,104.0
5368,B1,398.25,0.25,127,104.0
5369,G4,398.5,0.25,127,104.0
5370,B1,398.5,0.25,127,104.0
5371,E5,398.5,0.25,127,104.0
5372,C#5,398.5,0.25,127,104.0
5373,A4,398.5,0.25,127,104.0
5374,E4,398.5,0.25,127,104.0
5375,E-4,398.75,0.25,127,104.0
5376,G#5,398.75,0.25,127,104.0
5377,F5,398.75,0.25,127,104.0
5378,C#5,398.75,0.25,127,104.0
5379,G#4,398.75,0.25,127,104.0
5380,F#2,398.75,0.25,127,104.0
5381,D2,398.75,0.25,127,104.0
5382,B1,398.75,0.25,127,104.0
5383,G4,399.0,0.25,127,104.0
5384,B1,399.0,0.25,127,104.0
5385,B-5,399.0,0.25,127,104.0
5386,G5,399.0,0.25,127,104.0
5387,E-5,399.0,0.25,127,104.0
5388,B-4,399.0,0.25,127,104.0
5389,A4,399.25,0.25,127,104.0
5390,B5,399.25,0.25,127,104.0
5391,G#5,399.25,0.25,127,104.0
5392,E5,399.25,0.25,127,104.0
5393,B4,399.25,0.25,127,104.0
5394,B-2,399.25,0.25,127,104.0
5395,D2,399.25,0.25,127,104.0
5396,B-4,399.5,0.25,127,104.0
5397,F2,399.5,1.25,127,104.0
5398,A5,399.5,0.25,127,104.0
5399,F#5,399.5,0.25,127,104.0
5400,D5,399.5,0.25,127,104.0
5401,A4,399.5,0.25,127,104.0
5402,F#2,399.5,0.25,127,104.0
5403,B1,399.5,0.25,127,104.0
5404,B4,399.75,0.25,127,104.0
5405,B1,399.75,0.25,127,104.0
5406,F5,399.75,0.25,127,104.0
5407,D5,399.75,0.25,127,104.0
5408,B-4,399.75,0.25,127,104.0
5409,F4,399.75,0.25,127,104.0
5410,F#4,400.0,0.25,127,104.0
5411,A5,400.0,0.25,127,104.0
5412,F#5,400.0,0.25,127,104.0
5413,D5,400.0,0.25,127,104.0
5414,A4,400.0,0.25,127,104.0
5415,F#2,400.0,0.25,127,104.0
5416,D2,400.0,0.25,127,104.0
5417,B1,400.0,0.25,127,104.0
5418,B4,400.25,0.25,127,104.0
5419,B1,400.25,0.25,127,104.0
5420,B5,400.25,0.25,127,104.0
5421,G#5,400.25,0.25,127,104.0
5422,E5,400.25,0.25,127,104.0
5423,B4,400.25,0.25,127,104.0
5424,C#5,400.5,0.25,127,104.0
5425,C6,400.5,0.25,127,104.0
5426,A5,400.5,0.25,127,104.0
5427,F5,400.5,0.25,127,104.0
5428,C5,400.5,0.25,127,104.0
5429,B-2,400.5,0.25,127,104.0
5430,D2,400.5,0.25,127,104.0
5431,D5,400.75,0.25,127,104.0
5432,E4,400.75,0.25,127,104.0
5433,E6,400.75,0.25,127,104.0
5434,C#6,400.75,0.25,127,104.0
5435,A5,400.75,0.25,127,104.0
5436,E5,400.75,0.25,127,104.0
5437,F#2,400.75,0.5,127,104.0
5438,B1,400.75,0.5,127,104.0
5439,C5,401.0,0.25,127,104.0
5440,D4,401.0,0.25,127,104.0
5441,D6,401.0,0.25,127,104.0
5442,B5,401.0,0.25,127,104.0
5443,G5,401.0,0.25,127,104.0
5444,D5,401.0,0.25,127,104.0
5445,G4,401.25,0.25,127,104.0
5446,C4,401.25,0.25,127,104.0
5447,C6,401.25,0.25,127,104.0
5448,A5,401.25,0.25,127,104.0
5449,F5,401.25,0.25,127,104.0
5450,C5,401.25,0.25,127,104.0
5451,F#2,401.25,0.5,127,104.0
5452,B1,401.25,0.5,127,104.0
5453,C5,401.5,0.25,127,104.0
5454,B3,401.5,0.25,127,104.0
5455,B5,401.5,0.25,127,104.0
5456,G#5,401.5,0.25,127,104.0
5457,E5,401.5,0.25,127,104.0
5458,B4,401.5,0.25,127,104.0
5459,D5,401.75,0.25,127,104.0
5460,A3,401.75,0.25,127,104.0
5461,A5,401.75,0.25,127,104.0
5462,F#5,401.75,0.25,127,104.0
5463,D5,401.75,0.25,127,104.0
5464,A4,401.75,0.25,127,104.0
5465,B-2,401.75,0.5,127,104.0
5466,D2,401.75,0.5,127,104.0
5467,B1,401.75,0.5,127,104.0
5468,E-5,402.0,0.25,127,104.0
5469,G3,402.0,0.25,127,104.0
5470,G5,402.0,0.25,127,104.0
5471,E5,402.0,0.25,127,104.0
5472,C5,402.0,0.25,127,104.0
5473,G4,402.0,0.25,127,104.0
5474,G#4,402.25,0.25,127,104.0
5475,F3,402.25,0.25,127,104.0
5476,D2,402.25,0.25,127,104.0
5477,F5,402.25,0.25,127,104.0
5478,D5,402.25,0.25,127,104.0
5479,B-4,402.25,0.25,127,104.0
5480,F4,402.25,0.25,127,104.0
5481,E4,402.5,0.25,127,104.0
5482,E3,402.5,0.25,127,104.0
5483,E5,402.5,0.25,127,104.0
5484,C#5,402.5,0.25,127,104.0
5485,A4,402.5,0.25,127,104.0
5486,E4,402.5,0.25,127,104.0
5487,D2,402.5,0.25,127,104.0
5488,B1,402.5,0.25,127,104.0
5489,G#4,402.75,0.25,127,104.0
5490,D3,402.75,0.25,127,104.0
5491,D2,402.75,0.25,127,104.0
5492,D5,402.75,0.25,127,104.0
5493,B4,402.75,0.25,127,104.0
5494,G4,402.75,0.25,127,104.0
5495,D4,402.75,0.25,127,104.0
5496,B-4,403.0,0.25,127,104.0
5497,C3,403.0,0.25,127,104.0
5498,C5,403.0,0.25,127,104.0
5499,A4,403.0,0.25,127,104.0
5500,F4,403.0,0.25,127,104.0
5501,C4,403.0,0.25,127,104.0
5502,D2,403.0,0.25,127,104.0
5503,B1,403.0,0.25,127,104.0
5504,B4,403.25,0.25,127,104.0
5505,B2,403.25,0.25,127,104.0
5506,B4,403.25,0.25,127,104.0
5507,G#4,403.25,0.25,127,104.0
5508,E4,403.25,0.25,127,104.0
5509,B3,403.25,0.25,127,104.0
5510,D2,403.25,0.25,127,104.0
5511,B1,403.25,0.25,127,104.0
5512,A4,403.5,0.25,127,104.0
5513,A2,403.5,0.25,127,104.0
5514,A2,403.5,0.25,127,104.0
5515,A4,403.5,0.25,127,104.0
5516,F#4,403.5,0.25,127,104.0
5517,D4,403.5,0.25,127,104.0
5518,A3,403.5,0.25,127,104.0
5519,F4,403.75,0.25,127,104.0
5520,G2,403.75,0.25,127,104.0
5521,G4,403.75,0.25,127,104.0
5522,E4,403.75,0.25,127,104.0
5523,C4,403.75,0.25,127,104.0
5524,G3,403.75,0.25,127,104.0
5525,G2,403.75,0.25,127,104.0
5526,B1,403.75,0.25,127,104.0
5527,A4,404.0,0.25,127,104.0
5528,F2,404.0,0.25,127,104.0
5529,G2,404.0,0.25,127,104.0
5530,F4,404.0,0.25,127,104.0
5531,D4,404.0,0.25,127,104.0
5532,B-3,404.0,0.25,127,104.0
5533,F3,404.0,0.25,127,104.0
5534,B4,404.25,0.25,127,104.0
5535,E2,404.25,0.25,127,104.0
5536,E4,404.25,0.25,127,104.0
5537,C#4,404.25,0.25,127,104.0
5538,A3,404.25,0.25,127,104.0
5539,E3,404.25,0.25,127,104.0
5540,G2,404.25,0.25,127,104.0
5541,B1,404.25,0.25,127,104.0
5542,C5,404.5,0.25,127,104.0
5543,D2,404.5,0.25,127,104.0
5544,D4,404.5,0.25,127,104.0
5545,B3,404.5,0.25,127,104.0
5546,G3,404.5,0.25,127,104.0
5547,D3,404.5,0.25,127,104.0
5548,G2,404.5,0.25,127,104.0
5549,B1,404.5,0.25,127,104.0
5550,E5,404.75,0.25,127,104.0
5551,C2,404.75,0.25,127,104.0
5552,G2,404.75,0.25,127,104.0
5553,C4,404.75,0.25,127,104.0
5554,A3,404.75,0.25,127,104.0
5555,F3,404.75,0.25,127,104.0
5556,C3,404.75,0.25,127,104.0
5557,D5,405.0,0.25,127,104.0
5558,B1,405.0,0.25,127,104.0
5559,B3,405.0,0.25,127,104.0
5560,G#3,405.0,0.25,127,104.0
5561,E3,405.0,0.25,127,104.0
5562,B2,405.0,0.25,127,104.0
5563,G2,405.0,0.25,127,104.0
5564,B1,405.0,0.25,127,104.0
5565,C5,405.25,0.25,127,104.0
5566,C2,405.25,0.25,127,104.0
5567,G2,405.25,0.25,127,104.0
5568,C4,405.25,0.25,127,104.0
5569,A3,405.25,0.25,127,104.0
5570,F3,405.25,0.25,127,104.0
5571,C3,405.25,0.25,127,104.0
5572,B4,405.5,0.25,127,104.0
5573,D2,405.5,0.25,127,104.0
5574,D4,405.5,0.25,127,104.0
5575,B3,405.5,0.25,127,104.0
5576,G3,405.5,0.25,127,104.0
5577,D3,405.5,0.25,127,104.0
5578,G2,405.5,0.25,127,104.0
5579,B1,405.5,0.25,127,104.0
5580,A4,405.75,0.25,127,104.0
5581,A1,405.75,0.25,127,104.0
5582,A3,405.75,0.25,127,104.0
5583,F#3,405.75,0.25,127,104.0
5584,D3,405.75,0.25,127,104.0
5585,A2,405.75,0.25,127,104.0
5586,F3,405.75,0.25,127,104.0
5587,D2,405.75,0.25,127,104.0
5588,B1,405.75,0.25,127,104.0
5589,G4,406.0,0.25,127,104.0
5590,B1,406.0,0.25,127,104.0
5591,E4,406.0,0.25,127,104.0
5592,C#4,406.0,0.25,127,104.0
5593,A3,406.0,0.25,127,104.0
5594,E3,406.0,0.25,127,104.0
5595,F4,406.25,0.25,127,104.0
5596,A1,406.25,0.5,127,104.0
5597,B4,406.25,0.25,127,104.0
5598,G#4,406.25,0.25,127,104.0
5599,E4,406.25,0.25,127,104.0
5600,B3,406.25,0.25,127,104.0
5601,F3,406.25,0.25,127,104.0
5602,D2,406.25,0.25,127,104.0
5603,B1,406.25,0.25,127,104.0
5604,E4,406.5,0.25,127,104.0
5605,B1,406.5,0.25,127,104.0
5606,G4,406.5,0.25,127,104.0
5607,E4,406.5,0.25,127,104.0
5608,C4,406.5,0.25,127,104.0
5609,G3,406.5,0.25,127,104.0
5610,D4,406.75,0.25,127,104.0
5611,A1,406.75,0.25,127,104.0
5612,C5,406.75,0.25,127,104.0
5613,A4,406.75,0.25,127,104.0
5614,F4,406.75,0.25,127,104.0
5615,C4,406.75,0.25,127,104.0
5616,F3,406.75,0.25,127,104.0
5617,B1,406.75,0.25,127,104.0
5618,C4,407.0,0.25,127,104.0
5619,A1,407.0,0.25,127,104.0
5620,D5,407.0,0.25,127,104.0
5621,B4,407.0,0.25,127,104.0
5622,G4,407.0,0.25,127,104.0
5623,D4,407.0,0.25,127,104.0
5624,F3,407.0,0.25,127,104.0
5625,D2,407.0,0.25,127,104.0
5626,B1,407.0,0.25,127,104.0
5627,B3,407.25,0.25,127,104.0
5628,B1,407.25,0.25,127,104.0
5629,G5,407.25,0.25,127,104.0
5630,E5,407.25,0.25,127,104.0
5631,C5,407.25,0.25,127,104.0
5632,G4,407.25,0.25,127,104.0
5633,A3,407.5,0.25,127,104.0
5634,A1,407.5,0.5,127,104.0
5635,C6,407.5,0.25,127,104.0
5636,A5,407.5,0.25,127,104.0
5637,F5,407.5,0.25,127,104.0
5638,C5,407.5,0.25,127,104.0
5639,F3,407.5,0.25,127,104.0
5640,D2,407.5,0.25,127,104.0
5641,B1,407.5,0.25,127,104.0
5642,G3,407.75,0.25,127,104.0
5643,B1,407.75,0.25,127,104.0
5644,B5,407.75,0.25,127,104.0
5645,G#5,407.75,0.25,127,104.0
5646,E5,407.75,0.25,127,104.0
5647,B4,407.75,0.25,127,104.0
5648,F3,408.0,0.25,127,104.0
5649,A1,408.0,0.25,127,104.0
5650,G5,408.0,0.25,127,104.0
5651,E5,408.0,0.25,127,104.0
5652,C5,408.0,0.25,127,104.0
5653,G4,408.0,0.25,127,104.0
5654,B-2,408.0,0.25,127,104.0
5655,B1,408.0,0.25,127,104.0
5656,E3,408.25,0.25,127,104.0
5657,B-1,408.25,0.25,127,104.0
5658,E5,408.25,0.25,127,104.0
5659,C#5,408.25,0.25,127,104.0
5660,A4,408.25,0.25,127,104.0
5661,E4,408.25,0.25,127,104.0
5662,F3,408.25,0.25,127,104.0
5663,G#2,408.25,0.25,127,104.0
5664,D2,408.25,0.25,127,104.0
5665,B1,408.25,0.25,127,104.0
5666,D3,408.5,0.25,127,104.0
5667,B1,408.5,0.25,127,104.0
5668,C5,408.5,0.25,127,104.0
5669,A4,408.5,0.25,127,104.0
5670,F4,408.5,0.25,127,104.0
5671,C4,408.5,0.25,127,104.0
5672,C3,408.75,0.25,127,104.0
5673,B-1,408.75,0.5,127,104.0
5674,A4,408.75,0.25,127,104.0
5675,F#4,408.75,0.25,127,104.0
5676,D4,408.75,0.25,127,104.0
5677,A3,408.75,0.25,127,104.0
5678,F3,408.75,0.25,127,104.0
5679,D2,408.75,0.25,127,104.0
5680,B1,408.75,0.25,127,104.0
5681,B2,409.0,0.25,127,104.0
5682,B1,409.0,0.25,127,104.0
5683,D5,409.0,0.25,127,104.0
5684,B4,409.0,0.25,127,104.0
5685,G4,409.0,0.25,127,104.0
5686,D4,409.0,0.25,127,104.0
5687,C3,409.25,0.25,127,104.0
5688,B-1,409.25,0.25,127,104.0
5689,E5,409.25,0.25,127,104.0
5690,C#5,409.25,0.25,127,104.0
5691,A4,409.25,0.25,127,104.0
5692,E4,409.25,0.25,127,104.0
5693,F3,409.25,0.25,127,104.0
5694,B1,409.25,0.25,127,104.0
5695,D3,409.5,0.25,127,104.0
5696,B-1,409.5,0.25,127,104.0
5697,A5,409.5,0.25,127,104.0
5698,F#5,409.5,0.25,127,104.0
5699,D5,409.5,0.25,127,104.0
5700,A4,409.5,0.25,127,104.0
5701,F3,409.5,0.25,127,104.0
5702,D2,409.5,0.25,127,104.0
5703,B1,409.5,0.25,127,104.0
5704,A2,409.75,0.25,127,104.0
5705,B1,409.75,0.25,127,104.0
5706,D6,409.75,0.25,127,104.0
5707,B5,409.75,0.25,127,104.0
5708,G5,409.75,0.25,127,104.0
5709,D5,409.75,0.25,127,104.0
5710,E3,410.0,0.25,127,104.0
5711,B-1,410.0,0.5,127,104.0
5712,C#6,410.0,0.25,127,104.0
5713,B-5,410.0,0.25,127,104.0
5714,F#5,410.0,0.25,127,104.0
5715,C#5,410.0,0.25,127,104.0
5716,F3,410.0,0.25,127,104.0
5717,D2,410.0,0.25,127,104.0
5718,B1,410.0,0.25,127,104.0
5719,B3,410.25,0.25,127,104.0
5720,B1,410.25,0.25,127,104.0
5721,A5,410.25,0.25,127,104.0
5722,F#5,410.25,0.25,127,104.0
5723,D5,410.25,0.25,127,104.0
5724,A4,410.25,0.25,127,104.0
5725,G3,410.5,0.25,127,104.0
5726,B-1,410.5,0.25,127,104.0
5727,F#5,410.5,0.25,127,104.0
5728,E-5,410.5,0.25,127,104.0
5729,B4,410.5,0.25,127,104.0
5730,F#4,410.5,0.25,127,104.0
5731,B-2,410.5,0.25,127,104.0
5732,B1,410.5,0.25,127,104.0
5733,C4,410.75,0.25,127,104.0
5734,B1,410.75,0.25,127,104.0
5735,D5,410.75,0.25,127,104.0
5736,B4,410.75,0.25,127,104.0
5737,G4,410.75,0.25,127,104.0
5738,D4,410.75,0.25,127,104.0
5739,F3,410.75,0.25,127,104.0
5740,D2,410.75,0.25,127,104.0
5741,B1,410.75,0.25,127,104.0
5742,D4,411.0,0.25,127,104.0
5743,B1,411.0,0.25,127,104.0
5744,B4,411.0,0.25,127,104.0
5745,G#4,411.0,0.25,127,104.0
5746,E4,411.0,0.25,127,104.0
5747,B3,411.0,0.25,127,104.0
5748,G4,411.25,0.25,127,104.0
5749,B1,411.25,0.5,127,104.0
5750,E5,411.25,0.25,127,104.0
5751,C#5,411.25,0.25,127,104.0
5752,A4,411.25,0.25,127,104.0
5753,E4,411.25,0.25,127,104.0
5754,F3,411.25,0.25,127,104.0
5755,D2,411.25,0.25,127,104.0
5756,B1,411.25,0.25,127,104.0
5757,C5,411.5,0.25,127,104.0
5758,B1,411.5,0.25,127,104.0
5759,F#5,411.5,0.25,127,104.0
5760,E-5,411.5,0.25,127,104.0
5761,B4,411.5,0.25,127,104.0
5762,F#4,411.5,0.25,127,104.0
5763,B4,411.75,0.25,127,104.0
5764,B1,411.75,0.25,127,104.0
5765,B5,411.75,0.25,127,104.0
5766,G#5,411.75,0.25,127,104.0
5767,E5,411.75,0.25,127,104.0
5768,B4,411.75,0.25,127,104.0
5769,F3,411.75,0.25,127,104.0
5770,B1,411.75,0.25,127,104.0
5771,G4,412.0,0.25,127,104.0
5772,B1,412.0,0.25,127,104.0
5773,E6,412.0,0.25,127,104.0
5774,C#6,412.0,0.25,127,104.0
5775,A5,412.0,0.25,127,104.0
5776,E5,412.0,0.25,127,104.0
5777,F3,412.0,0.25,127,104.0
5778,D2,412.0,0.25,127,104.0
5779,B1,412.0,0.25,127,104.0
5780,E4,412.25,0.25,127,104.0
5781,B1,412.25,0.25,127,104.0
5782,E-6,412.25,0.25,127,104.0
5783,C6,412.25,0.25,127,104.0
5784,G#5,412.25,0.25,127,104.0
5785,E-5,412.25,0.25,127,104.0
5786,C4,412.5,0.25,127,104.0
5787,B1,412.5,0.5,127,104.0
5788,B5,412.5,0.25,127,104.0
5789,G#5,412.5,0.25,127,104.0
5790,E5,412.5,0.25,127,104.0
5791,B4,412.5,0.25,127,104.0
5792,F3,412.5,0.25,127,104.0
5793,D2,412.5,0.25,127,104.0
5794,B1,412.5,0.25,127,104.0
5795,A3,412.75,0.25,127,104.0
5796,B1,412.75,0.25,127,104.0
5797,G#5,412.75,0.25,127,104.0
5798,F5,412.75,0.25,127,104.0
5799,C#5,412.75,0.25,127,104.0
5800,G#4,412.75,0.25,127,104.0
5801,D4,413.0,0.25,127,104.0
5802,B1,413.0,0.25,127,104.0
5803,E5,413.0,0.25,127,104.0
5804,C#5,413.0,0.25,127,104.0
5805,A4,413.0,0.25,127,104.0
5806,E4,413.0,0.25,127,104.0
5807,B-2,413.0,0.25,127,104.0
5808,B1,413.0,0.25,127,104.0
5809,E4,413.25,0.25,127,104.0
5810,C#2,413.25,0.25,127,104.0
5811,C#5,413.25,0.25,127,104.0
5812,B-4,413.25,0.25,127,104.0
5813,F#4,413.25,0.25,127,104.0
5814,C#4,413.25,0.25,127,104.0
5815,F3,413.25,0.25,127,104.0
5816,G#2,413.25,0.25,127,104.0
5817,D2,413.25,0.25,127,104.0
5818,B1,413.25,0.25,127,104.0
5819,A4,413.5,0.25,127,104.0
5820,B1,413.5,0.25,127,104.0
5821,F#5,413.5,0.25,127,104.0
5822,E-5,413.5,0.25,127,104.0
5823,B4,413.5,0.25,127,104.0
5824,F#4,413.5,0.25,127,104.0
5825,D5,413.75,0.25,127,104.0
5826,C#2,413.75,0.5,127,104.0
5827,G#5,413.75,0.25,127,104.0
5828,F5,413.75,0.25,127,104.0
5829,C#5,413.75,0.25,127,104.0
5830,G#4,413.75,0.25,127,104.0
5831,F3,413.75,0.25,127,104.0
5832,D2,413.75,0.25,127,104.0
5833,B1,413.75,0.25,127,104.0
5834,C#5,414.0,0.25,127,104.0
5835,B1,414.0,0.25,127,104.0
5836,C#6,414.0,0.25,127,104.0
5837,B-5,414.0,0.25,127,104.0
5838,F#5,414.0,0.25,127,104.0
5839,C#5,414.0,0.25,127,104.0
5840,A4,414.25,0.25,127,104.0
5841,C#2,414.25,0.25,127,104.0
5842,F#6,414.25,0.25,127,104.0
5843,E-6,414.25,0.25,127,104.0
5844,B5,414.25,0.25,127,104.0
5845,F#5,414.25,0.25,127,104.0
5846,F3,414.25,0.25,127,104.0
5847,B1,414.25,0.25,127,104.0
5848,F#4,414.5,0.25,127,104.0
5849,C#2,414.5,0.25,127,104.0
5850,F6,414.5,0.25,127,104.0
5851,D6,414.5,0.25,127,104.0
5852,B-5,414.5,0.25,127,104.0
5853,F5,414.5,0.25,127,104.0
5854,F3,414.5,0.25,127,104.0
5855,D2,414.5,0.25,127,104.0
5856,B1,414.5,0.25,127,104.0
5857,D4,414.75,0.25,127,104.0
5858,B1,414.75,0.25,127,104.0
5859,C#6,414.75,0.25,127,104.0
5860,B-5,414.75,0.25,127,104.0
5861,F#5,414.75,0.25,127,104.0
5862,C#5,414.75,0.25,127,104.0
5863,B3,415.0,0.25,127,104.0
5864,C#2,415.0,0.5,127,104.0
5865,B-5,415.0,0.25,127,104.0
5866,G5,415.0,0.25,127,104.0
5867,E-5,415.0,0.25,127,104.0
5868,B-4,415.0,0.25,127,104.0
5869,F3,415.0,0.25,127,104.0
5870,D2,415.0,0.25,127,104.0
5871,B1,415.0,0.25,127,104.0
5872,E4,415.25,0.25,127,104.0
5873,B1,415.25,0.25,127,104.0
5874,F#5,415.25,0.25,127,104.0
5875,E-5,415.25,0.25,127,104.0
5876,B4,415.25,0.25,127,104.0
5877,F#4,415.25,0.25,127,104.0
5878,F#4,415.5,0.25,127,104.0
5879,C#2,415.5,0.25,127,104.0
5880,E-5,415.5,0.25,127,104.0
5881,C5,415.5,0.25,127,104.0
5882,G#4,415.5,0.25,127,104.0
5883,E-4,415.5,0.25,127,104.0
5884,B-2,415.5,0.25,127,104.0
5885,B1,415.5,0.25,127,104.0
5886,B4,415.75,0.25,127,104.0
5887,E-2,415.75,0.25,127,104.0
5888,G#5,415.75,0.25,127,104.0
5889,F5,415.75,0.25,127,104.0
5890,C#5,415.75,0.25,127,104.0
5891,G#4,415.75,0.25,127,104.0
5892,F3,415.75,0.25,127,104.0
5893,D2,415.75,0.25,127,104.0
5894,B1,415.75,0.25,127,104.0
5895,E5,416.0,0.25,127,104.0
5896,B1,416.0,0.25,127,104.0
5897,B-5,416.0,0.25,127,104.0
5898,G5,416.0,0.25,127,104.0
5899,E-5,416.0,0.25,127,104.0
5900,B-4,416.0,0.25,127,104.0
5901,E-5,416.25,0.25,127,104.0
5902,E-2,416.25,0.5,127,104.0
5903,E-6,416.25,0.25,127,104.0
5904,C6,416.25,0.25,127,104.0
5905,G#5,416.25,0.25,127,104.0
5906,E-5,416.25,0.25,127,104.0
5907,F3,416.25,0.25,127,104.0
5908,D2,416.25,0.25,127,104.0
5909,B1,416.25,0.25,127,104.0
5910,B4,416.5,0.25,127,104.0
5911,B1,416.5,0.25,127,104.0
5912,G#6,416.5,0.25,127,104.0
5913,F6,416.5,0.25,127,104.0
5914,C#6,416.5,0.25,127,104.0
5915,G#5,416.5,0.25,127,104.0
5916,G#4,416.75,0.25,127,104.0
5917,E-2,416.75,0.25,127,104.0
5918,G6,416.75,0.25,127,104.0
5919,E6,416.75,0.25,127,104.0
5920,C6,416.75,0.25,127,104.0
5921,G5,416.75,0.25,127,104.0
5922,F3,416.75,0.25,127,104.0
5923,B1,416.75,0.25,127,104.0
5924,E4,417.0,0.25,127,104.0
5925,E-2,417.0,0.25,127,104.0
5926,E-6,417.0,0.25,127,104.0
5927,C6,417.0,0.25,127,104.0
5928,G#5,417.0,0.25,127,104.0
5929,E-5,417.0,0.25,127,104.0
5930,F3,417.0,0.25,127,104.0
5931,D2,417.0,0.25,127,104.0
5932,B1,417.0,0.25,127,104.0
5933,C#4,417.25,0.25,127,104.0
5934,B1,417.25,0.25,127,104.0
5935,C6,417.25,0.25,127,104.0
5936,A5,417.25,0.25,127,104.0
5937,F5,417.25,0.25,127,104.0
5938,C5,417.25,0.25,127,104.0
5939,F#4,417.5,0.25,127,104.0
5940,E-2,417.5,0.5,127,104.0
5941,G#5,417.5,0.25,127,104.0
5942,F5,417.5,0.25,127,104.0
5943,C#5,417.5,0.25,127,104.0
5944,G#4,417.5,0.25,127,104.0
5945,F3,417.5,0.25,127,104.0
5946,D2,417.5,0.25,127,104.0
5947,B1,417.5,0.25,127,104.0
5948,G#4,417.75,0.25,127,104.0
5949,B1,417.75,0.25,127,104.0
5950,F5,417.75,0.25,127,104.0
5951,D5,417.75,0.25,127,104.0
5952,B-4,417.75,0.25,127,104.0
5953,F4,417.75,0.25,127,104.0
5954,C#5,418.0,0.25,127,104.0
5955,E-2,418.0,0.25,127,104.0
5956,B-5,418.0,0.25,127,104.0
5957,G5,418.0,0.25,127,104.0
5958,E-5,418.0,0.25,127,104.0
5959,B-4,418.0,0.25,127,104.0
5960,F3,418.0,0.25,127,104.0
5961,B1,418.0,0.25,127,104.0
5962,F#5,418.25,0.25,127,104.0
5963,C5,418.25,0.25,127,104.0
5964,F2,418.25,0.25,127,104.0
5965,C6,418.25,0.25,127,104.0
5966,F3,418.25,0.25,127,104.0
5967,B1,418.25,0.25,127,104.0
5968,F5,418.5,0.25,127,104.0
5969,B1,418.5,0.25,127,104.0
5970,C#5,418.75,0.25,127,104.0
5971,C5,418.75,0.75,127,104.0
5972,F2,418.75,0.5,127,104.0
5973,C6,418.75,0.75,127,104.0
5974,F3,418.75,0.25,127,104.0
5975,B1,418.75,0.25,127,104.0
5976,B-4,419.0,0.25,127,104.0
5977,B1,419.0,0.25,127,104.0
5978,F#4,419.25,0.25,127,104.0
5979,F2,419.25,0.25,127,104.0
5980,F3,419.25,0.25,127,104.0
5981,D2,419.25,0.25,127,104.0
5982,B1,419.25,0.25,127,104.0
5983,E-4,419.5,0.25,127,104.0
5984,C5,419.5,0.25,127,104.0
5985,F2,419.5,0.25,127,104.0
5986,C6,419.5,0.25,127,104.0
5987,F3,419.5,0.25,127,104.0
5988,B1,419.5,0.25,127,104.0
5989,G#4,419.75,0.25,127,104.0
5990,B1,419.75,0.25,127,104.0
5991,B-4,420.0,0.25,127,104.0
5992,C5,420.0,0.75,127,104.0
5993,F2,420.0,0.5,127,104.0
5994,C6,420.0,0.75,127,104.0
5995,F3,420.0,0.25,127,104.0
5996,B1,420.0,0.25,127,104.0
5997,E-5,420.25,0.25,127,104.0
5998,B1,420.25,0.25,127,104.0
5999,G#5,420.5,0.25,127,104.0
6000,F2,420.5,0.25,127,104.0
6001,F3,420.5,0.25,127,104.0
6002,D2,420.5,0.25,127,104.0
6003,B1,420.5,0.25,127,104.0
6004,G5,420.75,0.25,127,104.0
6005,C5,420.75,0.25,127,104.0
6006,F2,420.75,0.25,127,104.0
6007,C6,420.75,0.25,127,104.0
6008,F3,420.75,0.25,127,104.0
6009,B1,420.75,0.25,127,104.0
6010,E-5,421.0,0.25,127,104.0
6011,B1,421.0,0.25,127,104.0
6012,C5,421.25,0.25,127,104.0
6013,C5,421.25,0.75,127,104.0
6014,F2,421.25,0.5,127,104.0
6015,C6,421.25,0.75,127,104.0
6016,F3,421.25,0.25,127,104.0
6017,B1,421.25,0.25,127,104.0
6018,G#4,421.5,0.25,127,104.0
6019,B1,421.5,0.25,127,104.0
6020,F4,421.75,0.25,127,104.0
6021,F2,421.75,0.25,127,104.0
6022,F3,421.75,0.25,127,104.0
6023,D2,421.75,0.25,127,104.0
6024,B1,421.75,0.25,127,104.0
6025,B-4,422.0,0.25,127,104.0
6026,C5,422.0,0.25,127,104.0
6027,F2,422.0,0.25,127,104.0
6028,C6,422.0,0.25,127,104.0
6029,F3,422.0,0.25,127,104.0
6030,B1,422.0,0.25,127,104.0
6031,C5,422.25,0.25,127,104.0
6032,B1,422.25,0.25,127,104.0
6033,C5,422.5,0.75,127,104.0
6034,F2,422.5,0.5,127,104.0
6035,C6,422.5,0.75,127,104.0
6036,F3,422.5,0.25,127,104.0
6037,B1,422.5,0.25,127,104.0
6038,C5,422.75,0.75,127,104.0
6039,B1,422.75,0.25,127,104.0
6040,F2,423.0,0.25,127,104.0
6041,F3,423.0,0.25,127,104.0
6042,D2,423.0,0.25,127,104.0
6043,B1,423.0,0.25,127,104.0
6044,C5,423.5,0.25,127,104.0
6045,C5,424.0,0.75,127,104.0
6046,C5,424.75,0.25,127,104.0
6047,C5,425.25,0.75,127,104.0
6048,C5,426.0,0.25,127,104.0
6049,C5,426.5,0.75,127,104.0
