,note_name,start_time,duration,velocity,tempo
0,C#2,2.0,0.125,64,120
1,C#2,4.0,0.125,64,120
2,C#2,6.0,0.125,64,120
3,A3,8.0,6.0,64,120
4,D4,9.5,0.125,64,120
5,A4,10.5,0.125,32,120
6,A4,11.0,0.125,32,120
7,A1,11.0,0.625,38,120
8,A4,11.5,0.125,32,120
9,A4,12.0,0.125,32,120
10,D4,12.5,0.125,80,120
11,A1,12.5,0.625,42,120
12,A3,14.0,41.875,64,120
13,A4,14.0,0.125,56,120
14,E1,14.0,0.125,56,120
15,G4,14.0,5.75,40,120
16,G4,14.0,5.75,40,120
17,A4,14.5,0.125,64,120
18,E1,15.0,0.125,50,120
19,A4,15.5,0.125,58,120
20,D4,15.5,0.125,58,120
21,A4,16.5,0.125,44,120
22,A4,17.0,0.125,44,120
23,E1,17.0,0.375,56,120
24,A4,17.5,0.125,50,120
25,E1,17.5,0.125,50,120
26,A4,18.0,0.125,44,120
27,E1,18.0,0.375,59,120
28,D4,18.5,0.125,80,120
29,E1,18.5,0.875,60,120
30,G#4,19.75,0.25,40,120
31,G#4,19.75,0.25,40,120
32,A4,55.875,0.125,96,120
33,E4,55.875,6.0,36,120
34,E3,55.875,6.0,36,120
35,A4,55.875,6.0,40,120
36,A4,55.875,6.0,40,120
37,A4,56.375,0.125,64,120
38,A4,56.875,0.125,64,120
39,E1,56.875,0.125,64,120
40,A4,57.375,0.125,66,120
41,D4,57.375,0.125,66,120
42,A4,57.875,0.125,80,120
43,E1,57.875,0.125,80,120
44,A4,58.375,0.125,64,120
45,A4,58.875,0.125,64,120
46,E1,58.875,0.375,64,120
47,A4,59.375,0.125,64,120
48,E1,59.375,0.125,64,120
49,A4,59.875,0.125,96,120
50,E1,59.875,0.375,64,120
51,E1,60.375,0.875,64,120
52,A4,60.375,0.125,72,120
53,D4,60.375,0.125,72,120
54,A4,60.875,0.125,64,120
55,A4,61.375,0.125,64,120
56,E1,61.375,0.125,64,120
57,A4,64.875,0.125,96,120
58,E4,64.875,29.875,36,120
59,E3,64.875,23.875,36,120
60,A4,64.875,3.0,40,120
61,A4,64.875,3.0,40,120
62,A4,65.375,0.125,64,120
63,A4,65.875,0.125,64,120
64,E1,65.875,0.125,64,120
65,A4,66.375,0.125,64,120
66,D4,66.375,0.125,64,120
67,A4,66.875,0.125,80,120
68,E1,66.875,0.125,80,120
69,A4,67.375,0.125,64,120
70,A4,67.875,0.125,64,120
71,E1,67.875,0.375,64,120
72,D4,67.875,0.5,40,120
73,D4,67.875,0.5,40,120
74,A4,68.375,0.125,64,120
75,E1,68.375,0.125,64,120
76,C4,68.375,0.375,40,120
77,C4,68.375,0.375,40,120
78,A4,68.875,0.125,96,120
79,E1,68.875,0.375,47,120
80,D4,68.875,0.375,47,120
81,D4,68.875,0.375,47,120
82,E1,69.375,0.875,64,120
83,A4,69.375,0.125,72,120
84,D4,69.375,0.125,72,120
85,E4,69.375,1.375,39,120
86,E4,69.375,1.375,39,120
87,A4,69.875,0.125,64,120
88,A4,70.375,0.125,64,120
89,E1,70.375,0.125,64,120
90,A4,94.75,0.125,96,120
91,A2,94.75,6.0,29,120
92,G4,94.75,6.0,39,120
93,G4,94.75,6.0,39,120
94,A4,95.25,0.125,64,120
95,A4,95.75,0.125,64,120
96,E1,95.75,0.125,64,120
97,A4,96.25,0.125,66,120
98,D4,96.25,0.125,66,120
99,A4,96.75,0.125,80,120
100,E1,96.75,0.125,80,120
101,A4,97.25,0.125,64,120
102,A4,97.75,0.125,64,120
103,E1,97.75,0.375,64,120
104,A4,98.25,0.125,64,120
105,E1,98.25,0.125,64,120
106,A4,98.75,0.125,96,120
107,E1,98.75,0.375,64,120
108,E1,99.25,0.875,64,120
109,A4,99.25,0.125,72,120
110,D4,99.25,0.125,72,120
111,A4,99.75,0.125,64,120
112,A4,100.25,0.125,64,120
113,E1,100.25,0.125,64,120
114,A4,100.75,0.125,96,120
115,A2,100.75,17.875,29,120
116,D5,100.75,3.0,39,120
117,D5,100.75,3.0,39,120
118,A4,101.25,0.125,64,120
119,A4,101.75,0.125,64,120
120,E1,101.75,0.125,64,120
121,A4,102.25,0.125,64,120
122,D4,102.25,0.125,64,120
123,A4,102.75,0.125,80,120
124,E1,102.75,0.125,80,120
125,A4,103.25,0.125,64,120
126,A4,103.75,0.125,64,120
127,E1,103.75,0.375,64,120
128,C5,103.75,3.0,38,120
129,C5,103.75,3.0,38,120
130,A4,104.25,0.125,64,120
131,E1,104.25,0.125,64,120
132,A4,104.75,0.125,96,120
133,E1,104.75,0.375,64,120
134,E1,105.25,0.875,64,120
135,A4,105.25,0.125,72,120
136,D4,105.25,0.125,72,120
137,A4,105.75,0.125,64,120
138,A4,106.25,0.125,64,120
139,E1,106.25,0.125,64,120
140,A3,118.625,6.0,29,120
141,A4,118.625,0.125,96,120
142,A4,118.625,3.875,38,120
143,A4,118.625,3.875,38,120
144,A4,119.125,0.125,64,120
145,E1,119.625,0.125,64,120
146,A4,119.625,0.125,64,120
147,A4,120.125,0.125,64,120
148,D4,120.125,0.125,64,120
149,E1,120.625,0.125,80,120
150,A4,120.625,0.125,80,120
151,A4,121.125,0.125,64,120
152,E1,121.625,0.375,64,120
153,A4,121.625,0.125,64,120
154,E1,122.125,0.125,64,120
155,A4,122.125,0.125,64,120
156,E1,122.625,0.375,64,120
157,A4,122.625,0.125,96,120
158,G4,122.625,1.875,38,120
159,G4,122.625,1.875,38,120
160,E1,123.125,0.875,64,120
161,A4,123.125,0.125,72,120
162,D4,123.125,0.125,72,120
163,A4,123.625,0.125,64,120
164,E1,124.125,0.125,64,120
165,A4,124.125,0.125,64,120
166,E8,124.625,1.875,64,120
167,A3,124.625,5.875,29,120
168,A2,124.625,5.875,59,120
169,E3,124.625,5.875,59,120
170,A4,124.625,5.875,59,120
171,A4,124.625,5.875,59,120
172,E2,124.625,0.125,52,120
173,A4,124.625,0.125,52,120
174,E2,124.75,0.125,8,120
175,E2,124.875,0.125,8,120
176,D8,124.875,1.875,64,120
177,E2,125.0,0.125,8,120
178,A3,125.125,3.375,64,120
179,A7,125.125,1.875,64,120
180,E2,125.125,0.125,36,120
181,A4,125.125,0.125,36,120
182,E2,125.25,0.125,9,120
183,E2,125.375,0.125,10,120
184,E7,125.375,1.875,64,120
185,E2,125.5,0.125,11,120
186,E4,125.625,4.875,64,120
187,A6,125.625,1.875,64,120
188,E2,125.625,0.125,46,120
189,E1,125.625,0.125,46,120
190,A4,125.625,0.125,46,120
191,E2,125.75,0.125,12,120
192,E2,125.875,0.125,13,120
193,E6,125.875,1.875,64,120
194,E2,126.0,0.125,15,120
195,A4,126.125,4.375,64,120
196,A5,126.125,1.875,64,120
197,E2,126.125,0.125,48,120
198,A4,126.125,0.125,48,120
199,D4,126.125,0.125,48,120
200,E2,126.25,0.125,18,120
201,E2,126.375,0.125,19,120
202,E2,126.5,0.125,20,120
203,D5,126.625,3.875,64,120
204,E8,126.625,1.875,64,120
205,E2,126.625,0.125,61,120
206,E1,126.625,0.125,61,120
207,A4,126.625,0.125,61,120
208,E2,126.75,0.125,24,120
209,E2,126.875,0.125,26,120
210,D8,126.875,1.875,64,120
211,E2,127.0,0.125,28,120
212,E5,127.125,3.375,64,120
213,A7,127.125,1.875,64,120
214,E2,127.125,0.125,47,120
215,A4,127.125,0.125,47,120
216,E2,127.25,0.125,32,120
217,E2,127.375,0.125,34,120
218,E7,127.375,1.875,64,120
219,E2,127.5,0.125,37,120
220,E1,127.625,0.375,64,120
221,A6,127.625,1.875,64,120
222,E2,127.625,0.125,52,120
223,A4,127.625,0.125,52,120
224,E2,127.75,0.125,42,120
225,E2,127.875,0.125,45,120
226,E6,127.875,1.875,64,120
227,E2,128.0,0.125,48,120
228,A5,128.125,1.875,64,120
229,E2,128.125,0.125,59,120
230,E1,128.125,0.125,59,120
231,A4,128.125,0.125,59,120
232,E2,128.25,0.125,53,120
233,E2,128.375,0.125,56,120
234,E2,128.5,0.125,59,120
235,E1,128.625,0.375,64,120
236,A3,128.625,1.875,64,120
237,E8,128.625,1.875,64,120
238,E2,128.625,0.125,80,120
239,A4,128.625,0.125,80,120
240,E2,128.75,0.125,66,120
241,E2,128.875,0.125,69,120
242,D8,128.875,1.625,64,120
243,E2,129.0,0.125,74,120
244,E1,129.125,0.875,64,120
245,A7,129.125,1.375,64,120
246,E2,129.125,0.125,74,120
247,A4,129.125,0.125,74,120
248,D4,129.125,0.125,74,120
249,E2,129.25,0.125,82,120
250,E2,129.375,0.125,86,120
251,E7,129.375,1.125,64,120
252,E2,129.5,0.125,89,120
253,A6,129.625,0.875,64,120
254,E2,129.625,0.125,78,120
255,A4,129.625,0.125,78,120
256,E2,129.75,0.125,98,120
257,E2,129.875,0.125,102,120
258,E6,129.875,0.625,64,120
259,E2,130.0,0.125,106,120
260,A5,130.125,0.375,64,120
261,E2,130.125,0.125,79,120
262,E1,130.125,0.125,79,120
263,A4,130.125,0.125,79,120
264,E2,130.25,0.125,115,120
265,E2,130.375,0.125,119,120
266,E2,130.5,0.125,127,120
267,B-2,130.567,29/500,76,120
268,B-4,130.567,29/500,64,120
269,B-3,130.567,29/500,64,120
270,B-1,130.625,1.5,76,120
271,B-5,130.625,6.0,68,120
272,B-2,130.625,3817/1000,76,120
273,C2,130.625,0.125,64,120
274,A3,130.625,0.125,64,120
275,C#3,130.625,0.125,64,120
276,E-3,130.625,0.125,64,120
277,G3,130.625,0.125,64,120
278,B3,130.625,0.125,64,120
279,B-4,130.625,317/1000,64,120
280,B-3,130.625,317/1000,64,120
281,B-4,131.567,0.25,32,120
282,D4,131.567,0.5,64,120
283,F#2,131.625,0.125,64,120
284,E-3,131.625,0.125,64,120
285,D5,132.067,0.25,32,120
286,D4,132.067,0.875,64,120
287,D5,132.067,0.625,64,120
288,D4,132.067,0.625,64,120
289,B-1,132.125,2.5,76,120
290,C2,132.125,0.125,64,120
291,A3,132.125,0.125,64,120
292,E3,132.125,0.125,64,120
293,C5,133.067,0.75,32,120
294,C4,133.067,1.0,64,120
295,C5,133.067,1.625,64,120
296,C4,133.067,1.625,64,120
297,A1,133.625,0.125,115,120
298,C#2,133.625,0.125,115,120
299,E2,133.625,0.125,115,120
300,G#2,134.567,2.0,76,120
301,G#1,134.567,2.0,76,120
302,F#2,134.625,0.125,53,120
303,E-3,134.625,0.125,53,120
304,F3,134.625,0.125,53,120
305,D5,135.067,0.25,32,120
306,D4,135.067,0.875,64,120
307,D5,135.067,0.625,64,120
308,D4,135.067,0.625,64,120
309,F3,135.125,0.125,32,120
310,C5,136.067,279/500,32,120
311,C4,136.067,279/500,64,120
312,C5,136.067,279/500,64,120
313,C4,136.067,279/500,64,120
314,E-3,136.125,0.125,53,120
315,F#2,136.125,0.125,53,120
316,F3,136.125,0.125,53,120
317,F2,136.567,29/500,76,120
318,F1,136.567,29/500,76,120
319,C2,136.625,0.125,64,120
320,C5,136.625,24/125,32,120
321,B-5,136.625,5.875,68,120
322,C4,136.625,221/500,64,120
323,F2,136.625,721/500,76,120
324,F1,136.625,721/500,76,120
325,C5,136.625,1067/1000,64,120
326,C4,136.625,1067/1000,64,120
327,F#2,137.625,0.125,64,120
328,E-3,137.625,0.125,64,120
329,D5,138.067,0.25,32,120
330,D4,138.067,0.875,64,120
331,F2,138.067,2.5,76,120
332,F1,138.067,2.5,76,120
333,D5,138.067,0.625,64,120
334,D4,138.067,0.625,64,120
335,F3,138.125,0.125,64,120
336,C2,138.125,0.125,64,120
337,C5,139.067,0.75,32,120
338,C4,139.067,1.0,64,120
339,C5,139.067,1.625,64,120
340,C4,139.067,1.625,64,120
341,A1,139.625,0.125,115,120
342,C#2,139.625,0.125,115,120
343,E2,139.625,0.125,115,120
344,E-5,140.567,0.375,64,120
345,E-5,140.567,0.25,32,120
346,G#2,140.567,2.0,76,120
347,G#1,140.567,2.0,76,120
348,F#2,140.625,0.125,64,120
349,E-3,140.625,0.125,64,120
350,A3,140.625,0.125,64,120
351,D5,141.067,0.25,32,120
352,D4,141.067,0.875,64,120
353,D5,141.067,0.625,64,120
354,D4,141.067,0.625,64,120
355,F3,141.125,0.125,64,120
356,C5,142.067,279/500,32,120
357,C4,142.067,279/500,64,120
358,C5,142.067,279/500,64,120
359,C4,142.067,279/500,64,120
360,E-3,142.125,0.125,64,120
361,F#2,142.125,0.125,64,120
362,B5,142.5,0.125,64,120
363,B-2,142.567,29/500,76,120
364,B-1,142.567,29/500,76,120
365,C6,142.625,4.0,64,120
366,C5,142.625,24/125,32,120
367,C4,142.625,221/500,64,120
368,C2,142.625,0.125,64,120
369,A3,142.625,0.125,64,120
370,E-3,142.625,0.125,64,120
371,B-2,142.625,721/500,76,120
372,B-1,142.625,721/500,76,120
373,C5,142.625,1067/1000,64,120
374,C4,142.625,1067/1000,64,120
375,B-4,143.567,0.25,32,120
376,B-3,143.567,0.5,64,120
377,F#2,143.625,0.125,64,120
378,E-3,143.625,0.125,64,120
379,D5,144.067,0.25,32,120
380,D4,144.067,0.875,64,120
381,B-2,144.067,2.5,76,120
382,B-1,144.067,2.5,76,120
383,D5,144.067,0.625,64,120
384,D4,144.067,0.625,64,120
385,C2,144.125,0.125,64,120
386,A3,144.125,0.125,64,120
387,E3,144.125,0.125,64,120
388,C5,145.067,0.75,32,120
389,C4,145.067,1.0,64,120
390,C5,145.067,1.625,64,120
391,C4,145.067,1.625,64,120
392,A1,145.625,0.125,115,120
393,C#2,145.625,0.125,115,120
394,E2,145.625,0.125,115,120
395,G#2,146.567,2.0,76,120
396,G#1,146.567,2.0,76,120
397,G#5,146.625,2.0,64,120
398,F#2,146.625,0.125,64,120
399,E-3,146.625,0.125,64,120
400,D5,147.067,0.25,32,120
401,D4,147.067,0.875,64,120
402,D5,147.067,0.625,64,120
403,D4,147.067,0.625,64,120
404,F3,147.125,0.125,64,120
405,C5,148.067,279/500,32,120
406,C4,148.067,279/500,64,120
407,C5,148.067,279/500,64,120
408,C4,148.067,279/500,64,120
409,E-3,148.125,0.125,64,120
410,F#2,148.125,0.125,64,120
411,F2,148.567,29/500,76,120
412,F1,148.567,29/500,76,120
413,C5,148.625,24/125,32,120
414,G#5,148.625,6.0,64,120
415,C4,148.625,221/500,64,120
416,C2,148.625,0.125,64,120
417,A3,148.625,0.125,64,120
418,F2,148.625,721/500,76,120
419,F1,148.625,721/500,76,120
420,C5,148.625,1067/1000,64,120
421,C4,148.625,1067/1000,64,120
422,F#2,149.625,0.125,64,120
423,E-3,149.625,0.125,64,120
424,D5,150.067,0.25,32,120
425,D4,150.067,0.875,64,120
426,F2,150.067,2.5,76,120
427,F1,150.067,2.5,76,120
428,D5,150.067,0.625,64,120
429,D4,150.067,0.625,64,120
430,F3,150.125,0.125,64,120
431,C2,150.125,0.125,64,120
432,A3,150.125,0.125,64,120
433,C5,151.067,0.75,32,120
434,C4,151.067,1.0,64,120
435,C5,151.067,1.625,64,120
436,C4,151.067,1.625,64,120
437,A1,151.625,0.125,115,120
438,C#2,151.625,0.125,115,120
439,E2,151.625,0.125,115,120
440,E-5,152.567,0.25,32,120
441,E-4,152.567,0.5,64,120
442,G#2,152.567,2.0,76,120
443,G#1,152.567,2.0,76,120
444,F#2,152.625,0.125,64,120
445,E-3,152.625,0.125,64,120
446,A3,152.625,0.125,64,120
447,D5,153.067,0.25,32,120
448,D4,153.067,0.875,64,120
449,D5,153.067,0.625,64,120
450,D4,153.067,0.625,64,120
451,F3,153.125,0.125,64,120
452,C5,154.067,279/500,32,120
453,C4,154.067,279/500,64,120
454,C5,154.067,279/500,64,120
455,C4,154.067,279/500,64,120
456,E-3,154.125,0.125,64,120
457,F#2,154.125,0.125,64,120
458,B-2,154.567,29/500,76,120
459,B-1,154.625,1.5,76,120
460,B-5,154.625,6.0,64,120
461,C5,154.625,24/125,32,120
462,B-2,154.625,3817/1000,76,120
463,C4,154.625,221/500,64,120
464,C2,154.625,0.125,64,120
465,A3,154.625,0.125,64,120
466,C5,154.625,1067/1000,64,120
467,C4,154.625,1067/1000,64,120
468,B-4,155.567,0.25,32,120
469,B-3,155.567,0.5,64,120
470,F#2,155.625,0.125,64,120
471,E-3,155.625,0.125,64,120
472,D5,156.067,0.25,32,120
473,D4,156.067,0.875,64,120
474,D5,156.067,0.625,64,120
475,D4,156.067,0.625,64,120
476,B-1,156.125,2.5,76,120
477,F3,156.125,0.125,64,120
478,C2,156.125,0.125,64,120
479,A3,156.125,0.125,64,120
480,C5,157.067,0.75,32,120
481,C4,157.067,1.0,64,120
482,C5,157.067,1.625,64,120
483,C4,157.067,1.625,64,120
484,A1,157.625,0.125,115,120
485,C#2,157.625,0.125,115,120
486,E2,157.625,0.125,115,120
487,G#2,158.567,2.0,76,120
488,G#1,158.567,2.0,76,120
489,F#2,158.625,0.125,64,120
490,E-3,158.625,0.125,64,120
491,A3,158.625,0.125,64,120
492,D5,159.067,0.25,32,120
493,D4,159.067,0.875,64,120
494,D5,159.067,0.625,64,120
495,D4,159.067,0.625,64,120
496,F3,159.125,0.125,64,120
497,C5,160.067,279/500,32,120
498,C4,160.067,279/500,64,120
499,C5,160.067,279/500,64,120
500,C4,160.067,279/500,64,120
501,E-3,160.125,0.125,64,120
502,F#2,160.125,0.125,64,120
503,F2,160.567,29/500,76,120
504,F1,160.567,29/500,76,120
505,C5,160.625,24/125,32,120
506,B-5,160.625,17.0,64,120
507,C4,160.625,221/500,64,120
508,C2,160.625,0.125,64,120
509,A3,160.625,0.125,64,120
510,F2,160.625,721/500,76,120
511,F1,160.625,721/500,76,120
512,C5,160.625,1067/1000,64,120
513,C4,160.625,1067/1000,64,120
514,F#2,161.625,0.125,64,120
515,E-3,161.625,0.125,64,120
516,D5,162.067,0.25,32,120
517,D4,162.067,0.875,64,120
518,F2,162.067,2.5,76,120
519,F1,162.067,2.5,76,120
520,D5,162.067,0.625,64,120
521,D4,162.067,0.625,64,120
522,F3,162.125,0.125,64,120
523,C2,162.125,0.125,64,120
524,A3,162.125,0.125,64,120
525,C5,163.067,0.75,32,120
526,C4,163.067,1.0,64,120
527,C5,163.067,1.625,64,120
528,C4,163.067,1.625,64,120
529,A1,163.625,0.125,115,120
530,C#2,163.625,0.125,115,120
531,E2,163.625,0.125,115,120
532,G#2,164.567,2.0,76,120
533,G#1,164.567,2.0,76,120
534,F#2,164.625,0.125,64,120
535,E-3,164.625,0.125,64,120
536,A3,164.625,0.125,64,120
537,D5,165.067,0.25,32,120
538,D4,165.067,0.875,64,120
539,D5,165.067,0.625,64,120
540,D4,165.067,0.625,64,120
541,F3,165.125,0.125,64,120
542,C5,166.067,279/500,32,120
543,C4,166.067,279/500,64,120
544,C5,166.067,279/500,64,120
545,C4,166.067,279/500,64,120
546,E-3,166.125,0.125,64,120
547,F#2,166.125,0.125,64,120
548,B-2,166.567,29/500,76,120
549,B-1,166.567,29/500,76,120
550,C2,177.625,0.125,64,120
551,C5,177.625,24/125,32,120
552,C4,177.625,221/500,64,120
553,B-2,177.625,721/500,76,120
554,B-1,177.625,721/500,76,120
555,C5,177.625,1067/1000,64,120
556,C4,177.625,1067/1000,64,120
557,B-4,178.567,0.25,32,120
558,B-3,178.567,0.5,64,120
559,F#2,178.625,0.125,64,120
560,E-3,178.625,0.125,64,120
561,D5,179.067,0.25,32,120
562,D4,179.067,0.875,64,120
563,B-2,179.067,2.5,76,120
564,B-1,179.067,2.5,76,120
565,D5,179.067,0.625,64,120
566,D4,179.067,0.625,64,120
567,F3,179.125,0.125,64,120
568,C2,179.125,0.125,64,120
569,C5,180.067,0.75,32,120
570,C4,180.067,1.0,64,120
571,C5,180.067,1.625,64,120
572,C4,180.067,1.625,64,120
573,A1,180.625,0.125,115,120
574,C#2,180.625,0.125,115,120
575,E2,180.625,0.125,115,120
576,G#2,181.567,2.0,76,120
577,G#1,181.567,2.0,76,120
578,F#2,181.625,0.125,64,120
579,E-3,181.625,0.125,64,120
580,A3,181.625,0.125,64,120
581,D5,182.067,0.25,32,120
582,D4,182.067,0.875,64,120
583,D5,182.067,0.625,64,120
584,D4,182.067,0.625,64,120
585,F3,182.125,0.125,64,120
586,C5,183.067,279/500,32,120
587,C4,183.067,279/500,64,120
588,C5,183.067,279/500,64,120
589,C4,183.067,279/500,64,120
590,E-3,183.125,0.125,64,120
591,F#2,183.125,0.125,64,120
592,F2,183.567,29/500,76,120
593,F1,183.567,29/500,76,120
594,C5,183.625,24/125,32,120
595,C4,183.625,221/500,64,120
596,C2,183.625,0.125,64,120
597,A3,183.625,0.125,64,120
598,F2,183.625,721/500,76,120
599,F1,183.625,721/500,76,120
600,C5,183.625,1067/1000,64,120
601,C4,183.625,1067/1000,64,120
602,F#2,184.625,0.125,64,120
603,E-3,184.625,0.125,64,120
604,D5,185.067,0.25,32,120
605,D4,185.067,0.875,64,120
606,F2,185.067,2.5,76,120
607,F1,185.067,2.5,76,120
608,D5,185.067,0.625,64,120
609,D4,185.067,0.625,64,120
610,F3,185.125,0.125,64,120
611,C2,185.125,0.125,64,120
612,A3,185.125,0.125,64,120
613,C5,186.067,0.75,32,120
614,C4,186.067,1.0,64,120
615,C5,186.067,1.625,64,120
616,C4,186.067,1.625,64,120
617,A1,186.625,0.125,115,120
618,C#2,186.625,0.125,115,120
619,E2,186.625,0.125,115,120
620,E-5,187.567,0.25,32,120
621,E-4,187.567,0.5,64,120
622,G#2,187.567,2.0,76,120
623,G#1,187.567,2.0,76,120
624,F#2,187.625,0.125,64,120
625,E-3,187.625,0.125,64,120
626,D5,188.067,0.25,32,120
627,D4,188.067,0.875,64,120
628,D5,188.067,0.625,64,120
629,D4,188.067,0.625,64,120
630,F3,188.125,0.125,64,120
631,C5,189.067,279/500,32,120
632,C4,189.067,279/500,64,120
633,C5,189.067,279/500,64,120
634,C4,189.067,279/500,64,120
635,E-3,189.125,0.125,64,120
636,F#2,189.125,0.125,64,120
637,F#2,189.625,0.125,64,120
638,D2,189.625,0.5,76,120
639,C5,189.625,24/125,32,120
640,C4,189.625,221/500,64,120
641,C5,189.625,1067/1000,64,120
642,C4,189.625,1067/1000,64,120
643,D2,190.125,0.125,76,120
644,F#4,190.625,1.375,64,120
645,F#2,190.625,0.125,70,120
646,D2,190.625,0.125,70,120
647,F#2,191.125,0.125,64,120
648,D2,191.125,0.5,76,120
649,F#5,191.125,1.375,64,120
650,F#5,191.125,1.375,64,120
651,D2,191.625,0.125,76,120
652,F#4,192.125,1.375,64,120
653,F#2,192.125,0.125,70,120
654,D2,192.125,0.125,70,120
655,C#2,192.625,0.125,70,120
656,D2,192.625,0.125,70,120
657,F#5,192.625,1.375,64,120
658,F#5,192.625,1.375,64,120
659,F#2,193.125,0.125,97,120
660,C#2,193.125,0.125,97,120
661,A1,193.125,0.125,97,120
662,E2,193.125,0.125,97,120
663,D2,193.125,0.125,97,120
664,F#4,193.625,1.375,64,120
665,F#2,193.625,0.125,70,120
666,E2,193.625,0.125,70,120
667,E2,194.125,0.375,76,120
668,E4,194.125,1.5,40,120
669,E5,194.125,1.375,64,120
670,E5,194.125,1.375,64,120
671,F#2,194.625,0.125,70,120
672,E2,194.625,0.125,70,120
673,E2,195.125,0.125,76,120
674,F#4,195.125,0.5,64,120
675,F#2,195.625,0.125,64,120
676,B1,195.625,0.5,76,120
677,E5,195.625,1.875,64,120
678,E5,195.625,1.375,64,120
679,F#4,195.625,0.875,64,120
680,E4,195.625,1.5,40,120
681,B1,196.125,0.125,76,120
682,F#4,196.625,0.375,64,120
683,F#2,196.625,0.125,70,120
684,B1,196.625,0.125,70,120
685,F#2,197.125,0.125,64,120
686,B1,197.125,0.5,76,120
687,F#4,197.125,1.875,64,120
688,D5,197.125,1.375,64,120
689,D4,197.125,3.0,40,120
690,B1,197.625,0.125,76,120
691,D5,198.125,1.875,64,120
692,F#2,198.125,0.125,70,120
693,B1,198.125,0.125,70,120
694,D5,198.625,1.375,64,120
695,C#2,198.625,0.125,70,120
696,B1,198.625,0.125,70,120
697,E4,199.125,2.5,64,120
698,F#2,199.125,0.125,97,120
699,C#2,199.125,0.125,97,120
700,A1,199.125,0.125,97,120
701,E2,199.125,0.125,97,120
702,B1,199.125,0.125,97,120
703,F#2,199.625,0.125,70,120
704,E2,199.625,0.125,70,120
705,E2,200.125,0.375,76,120
706,C#5,200.125,1.5,64,120
707,C#4,200.125,1.5,40,120
708,C#5,200.125,1.5,64,120
709,F#2,200.625,0.125,70,120
710,E2,200.625,0.125,70,120
711,E2,201.125,0.125,76,120
712,A4,201.125,0.5,64,120
713,F#2,201.625,0.125,64,120
714,D2,201.625,0.5,76,120
715,C#5,201.625,0.375,64,120
716,C#4,201.625,1.5,40,120
717,E4,201.625,0.875,64,120
718,C#5,201.625,0.875,64,120
719,A4,201.625,1.375,64,120
720,D2,202.125,0.125,76,120
721,F#2,202.625,0.125,70,120
722,D2,202.625,0.125,70,120
723,D5,202.625,1.375,64,120
724,D5,202.625,1.375,64,120
725,F#2,203.125,0.125,64,120
726,D2,203.125,0.5,76,120
727,B3,203.125,2.875,64,120
728,B5,203.125,1.375,64,120
729,B3,203.125,3.0,40,120
730,D2,203.625,0.125,76,120
731,D5,204.125,1.375,64,120
732,F#2,204.125,0.125,70,120
733,D2,204.125,0.125,70,120
734,B5,204.625,1.375,64,120
735,C#2,204.625,0.125,70,120
736,D2,204.625,0.125,70,120
737,F#2,205.125,0.125,97,120
738,C#2,205.125,0.125,97,120
739,A1,205.125,0.125,97,120
740,E2,205.125,0.125,97,120
741,D2,205.125,0.125,97,120
742,D5,205.625,1.375,64,120
743,F#2,205.625,0.125,70,120
744,E2,205.625,0.125,70,120
745,E2,206.125,0.375,76,120
746,A3,206.125,1.5,64,120
747,A5,206.125,1.375,64,120
748,A3,206.125,1.5,40,120
749,F#2,206.625,0.125,70,120
750,E2,206.625,0.125,70,120
751,E2,207.125,0.125,76,120
752,D5,207.125,0.5,64,120
753,F#2,207.625,0.125,64,120
754,B1,207.625,0.5,76,120
755,A5,207.625,1.375,64,120
756,D5,207.625,0.875,64,120
757,A3,207.625,1.375,64,120
758,A3,207.625,1.5,40,120
759,B1,208.125,0.125,76,120
760,D5,208.625,1.375,64,120
761,F#2,208.625,0.125,70,120
762,B1,208.625,0.125,70,120
763,F#2,209.125,0.125,64,120
764,B1,209.125,0.5,76,120
765,G3,209.125,2.375,64,120
766,G5,209.125,1.375,64,120
767,G3,209.125,3.0,40,120
768,B1,209.625,0.125,76,120
769,D5,210.125,1.375,64,120
770,F#2,210.125,0.125,70,120
771,B1,210.125,0.125,70,120
772,B1,210.625,0.125,76,120
773,G5,210.625,1.375,64,120
774,F#2,211.125,0.125,97,120
775,C#2,211.125,0.125,97,120
776,A1,211.125,0.125,97,120
777,E2,211.125,0.125,97,120
778,B1,211.125,0.125,97,120
779,D5,211.625,1.375,64,120
780,F#2,211.625,0.125,70,120
781,E2,211.625,0.125,70,120
782,G3,211.625,0.375,64,120
783,D4,211.625,0.375,64,120
784,E2,212.125,0.375,76,120
785,F#5,212.125,1.375,64,120
786,F#3,212.125,1.5,56,120
787,D4,212.125,1.5,56,120
788,F#3,212.125,1.5,56,120
789,F#2,212.625,0.125,70,120
790,E2,212.625,0.125,70,120
791,E2,213.125,0.125,76,120
792,D5,213.125,0.375,64,120
793,D2,213.625,0.5,76,120
794,D5,213.625,1.375,64,120
795,D3,213.625,1.0,64,120
796,D3,213.625,1.5,40,120
797,F#2,213.625,0.125,64,120
798,C#3,213.625,0.125,64,120
799,D2,214.125,0.125,76,120
800,F#4,214.625,1.375,64,120
801,F#2,214.625,0.125,70,120
802,D2,214.625,0.125,70,120
803,F#2,215.125,0.125,64,120
804,D2,215.125,0.5,76,120
805,F#4,215.125,3.0,40,120
806,F#5,215.125,0.375,64,120
807,F#5,215.125,1.375,64,120
808,D2,215.625,0.125,76,120
809,F#5,215.625,0.375,64,120
810,F#5,216.125,0.375,64,120
811,F#4,216.125,1.375,64,120
812,F#2,216.125,0.125,70,120
813,D2,216.125,0.125,70,120
814,D2,216.625,0.125,76,120
815,F#5,216.625,1.375,64,120
816,F#5,216.625,1.375,64,120
817,F#2,217.125,0.125,97,120
818,C#2,217.125,0.125,97,120
819,A1,217.125,0.125,97,120
820,E2,217.125,0.125,97,120
821,D2,217.125,0.125,97,120
822,F#4,217.625,1.375,64,120
823,F#2,217.625,0.125,70,120
824,E2,217.625,0.125,70,120
825,E2,218.125,0.375,76,120
826,E4,218.125,1.5,40,120
827,E5,218.125,1.375,64,120
828,E5,218.125,1.375,64,120
829,F#2,218.625,0.125,70,120
830,E2,218.625,0.125,70,120
831,E2,219.125,0.125,76,120
832,F#4,219.125,0.5,64,120
833,F#2,219.625,0.125,64,120
834,B1,219.625,0.5,76,120
835,F#4,219.625,0.875,64,120
836,E4,219.625,1.5,40,120
837,E5,219.625,1.375,64,120
838,E5,219.625,1.375,64,120
839,B1,220.125,0.125,76,120
840,F#4,220.625,0.375,64,120
841,F#2,220.625,0.125,70,120
842,B1,220.625,0.125,70,120
843,F#2,221.125,0.125,64,120
844,B1,221.125,0.5,76,120
845,D4,221.125,3.0,40,120
846,F#4,221.125,1.875,64,120
847,D5,221.125,1.375,64,120
848,D5,221.125,1.375,64,120
849,B1,221.625,0.125,76,120
850,F#2,222.125,0.125,70,120
851,B1,222.125,0.125,70,120
852,B1,222.625,0.125,76,120
853,D5,222.625,1.375,64,120
854,D5,222.625,1.375,64,120
855,E4,223.125,0.875,64,120
856,F#2,223.125,0.125,97,120
857,C#2,223.125,0.125,97,120
858,A1,223.125,0.125,97,120
859,E2,223.125,0.125,97,120
860,B1,223.125,0.125,97,120
861,F#2,223.625,0.125,70,120
862,E2,223.625,0.125,70,120
863,E2,224.125,0.375,76,120
864,C#4,224.125,1.5,40,120
865,C#5,224.125,1.0,64,120
866,C#5,224.125,1.5,64,120
867,F#2,224.625,0.125,70,120
868,E2,224.625,0.125,70,120
869,E2,225.125,0.125,76,120
870,A4,225.125,0.5,64,120
871,F#2,225.625,0.125,64,120
872,D2,225.625,0.5,76,120
873,C#4,225.625,1.5,40,120
874,A4,225.625,0.875,64,120
875,C#5,225.625,0.875,64,120
876,D2,226.125,0.125,76,120
877,D4,226.625,1.375,64,120
878,D4,226.625,0.375,64,120
879,F#2,226.625,0.125,70,120
880,D2,226.625,0.125,70,120
881,F#2,227.125,0.125,64,120
882,D2,227.125,0.5,76,120
883,B3,227.125,3.0,40,120
884,B4,227.125,1.375,64,120
885,B3,227.125,1.375,64,120
886,D2,227.625,0.125,76,120
887,D4,228.125,1.375,64,120
888,F#2,228.125,0.125,70,120
889,D2,228.125,0.125,70,120
890,D2,228.625,0.125,76,120
891,B4,228.625,1.375,64,120
892,B4,228.625,1.375,64,120
893,F#2,229.125,0.125,97,120
894,C#2,229.125,0.125,97,120
895,A1,229.125,0.125,97,120
896,E2,229.125,0.125,97,120
897,D2,229.125,0.125,97,120
898,D4,229.625,1.375,64,120
899,F#2,229.625,0.125,70,120
900,E2,229.625,0.125,70,120
901,E2,230.125,0.375,76,120
902,A3,230.125,1.5,40,120
903,A4,230.125,1.375,64,120
904,A3,230.125,1.5,64,120
905,F#2,230.625,0.125,70,120
906,E2,230.625,0.125,70,120
907,E2,231.125,0.125,76,120
908,D4,231.125,0.5,64,120
909,F#2,231.625,0.125,64,120
910,B1,231.625,0.5,76,120
911,A4,231.625,1.375,64,120
912,A4,231.625,1.5,64,120
913,D4,231.625,0.875,64,120
914,A3,231.625,1.5,40,120
915,B1,232.125,0.125,76,120
916,D4,232.625,1.375,64,120
917,F#2,232.625,0.125,70,120
918,B1,232.625,0.125,70,120
919,F#2,233.125,0.125,64,120
920,B1,233.125,0.5,76,120
921,G3,233.125,3.0,40,120
922,G4,233.125,1.375,64,120
923,G3,233.125,1.375,64,120
924,B1,233.625,0.125,76,120
925,D4,234.125,1.375,64,120
926,F#2,234.125,0.125,70,120
927,B1,234.125,0.125,70,120
928,B1,234.625,0.125,76,120
929,G4,234.625,1.375,64,120
930,G4,234.625,1.375,64,120
931,F#2,235.125,0.125,97,120
932,C#2,235.125,0.125,97,120
933,A1,235.125,0.125,97,120
934,E2,235.125,0.125,97,120
935,B1,235.125,0.125,97,120
936,D4,235.625,1.375,64,120
937,F#2,235.625,0.125,70,120
938,E2,235.625,0.125,70,120
939,E2,236.125,0.375,76,120
940,F#3,236.125,1.375,40,120
941,F#4,236.125,0.875,64,120
942,F#4,236.125,0.875,64,120
943,F#2,236.625,0.125,70,120
944,E2,236.625,0.125,70,120
945,E2,237.125,0.125,76,120
946,D4,237.125,0.375,64,120
947,D4,237.125,0.375,64,120
948,D2,237.608,17/1000,76,120
949,B3,237.625,0.125,64,120
950,F#3,237.625,6.0,64,120
951,D5,237.625,1.0,32,120
952,F#3,237.625,0.25,64,120
953,D2,237.625,483/1000,76,120
954,F#4,237.875,5.75,64,120
955,D4,237.875,0.25,64,120
956,D2,238.108,0.125,76,120
957,F#5,238.125,5.5,64,120
958,F#4,238.125,1.5,64,120
959,F#2,238.608,0.125,70,120
960,D2,238.608,0.125,70,120
961,D2,239.108,0.5,76,120
962,D2,239.608,0.125,76,120
963,D2,240.108,0.125,76,120
964,F#2,240.608,0.125,64,120
965,D2,240.608,0.875,76,120
966,D2,241.608,0.875,76,120
967,E2,241.608,0.125,101,120
968,C#2,241.608,0.125,101,120
969,A1,241.608,0.125,101,120
970,F#2,242.608,0.125,64,120
971,D2,242.608,0.875,76,120
972,D2,243.608,17/1000,76,120
973,F#4,243.625,1.375,64,120
974,F#3,243.625,0.875,64,120
975,D2,243.625,483/1000,76,120
976,F#5,243.625,1.875,64,120
977,D2,244.108,0.125,76,120
978,F#2,244.608,0.125,70,120
979,D2,244.608,0.125,70,120
980,F#3,244.625,1.375,32,120
981,D2,245.108,0.5,76,120
982,F#4,245.125,1.375,35,120
983,D2,245.608,0.125,76,120
984,F#5,245.625,1.375,38,120
985,D2,246.108,0.125,76,120
986,F#3,246.125,1.875,42,120
987,F#2,246.608,0.125,64,120
988,D2,246.608,0.875,76,120
989,F#4,246.625,1.875,45,120
990,F#5,247.125,0.375,48,120
991,D2,247.608,0.875,76,120
992,E2,247.608,0.125,101,120
993,C#2,247.608,0.125,101,120
994,A1,247.608,0.125,101,120
995,E5,247.625,1.375,52,120
996,F#3,248.125,1.375,55,120
997,F#2,248.608,0.125,64,120
998,D2,248.608,0.875,67,120
999,E4,248.608,0.875,67,120
1000,E5,249.125,0.375,62,120
1001,B1,249.608,17/1000,76,120
1002,D3,249.625,6.0,64,120
1003,D5,249.625,6.0,64,120
1004,D4,249.625,6.0,64,120
1005,D4,249.625,1.0,32,120
1006,B1,249.625,483/1000,76,120
1007,B1,250.108,0.125,76,120
1008,F#2,250.608,0.125,70,120
1009,B1,250.608,0.125,70,120
1010,B1,251.108,0.5,76,120
1011,B1,251.608,0.125,76,120
1012,B1,252.108,0.125,76,120
1013,F#2,252.608,0.125,64,120
1014,B1,252.608,0.875,76,120
1015,B1,253.608,0.875,76,120
1016,E2,253.608,0.125,101,120
1017,C#2,253.608,0.125,101,120
1018,A1,253.608,0.125,101,120
1019,F#2,254.608,0.125,64,120
1020,B1,254.608,0.875,76,120
1021,B1,255.608,17/1000,76,120
1022,D3,255.625,0.875,64,120
1023,D5,255.625,1.875,64,120
1024,D4,255.625,1.375,64,120
1025,B1,255.625,483/1000,76,120
1026,B1,256.108,0.125,76,120
1027,F#2,256.608,0.125,70,120
1028,B1,256.608,0.125,70,120
1029,D3,256.625,1.375,36,120
1030,B1,257.108,0.5,76,120
1031,D4,257.125,1.375,39,120
1032,B1,257.608,0.125,76,120
1033,D5,257.625,1.375,42,120
1034,B1,258.108,0.125,76,120
1035,D3,258.125,1.875,45,120
1036,F#2,258.608,0.125,64,120
1037,B1,258.608,0.875,76,120
1038,D4,258.625,1.875,48,120
1039,D5,259.125,0.5,51,120
1040,B1,259.608,0.875,76,120
1041,E2,259.608,0.125,101,120
1042,C#2,259.608,0.125,101,120
1043,A1,259.608,0.125,101,120
1044,E5,259.625,1.375,54,120
1045,D3,260.125,1.375,57,120
1046,F#2,260.608,0.125,64,120
1047,A1,260.608,0.875,68,120
1048,E4,260.608,0.875,68,120
1049,E5,261.125,0.375,63,120
1050,G1,261.608,17/1000,76,120
1051,G1,261.625,483/1000,76,120
1052,D5,261.625,6.0,64,120
1053,D4,261.625,6.0,64,120
1054,D3,261.625,6.0,64,120
1055,D4,261.625,1.0,32,120
1056,D5,261.625,1.0,32,120
1057,G1,262.108,0.125,76,120
1058,F#2,262.608,0.125,70,120
1059,G1,262.608,0.125,70,120
1060,G1,263.108,0.5,76,120
1061,G1,263.608,0.125,76,120
1062,G1,264.108,0.125,76,120
1063,F#2,264.608,0.125,64,120
1064,G1,264.608,0.875,76,120
1065,G1,265.608,0.875,76,120
1066,E2,265.608,0.125,101,120
1067,C#2,265.608,0.125,101,120
1068,A1,265.608,0.125,101,120
1069,F#2,266.608,0.125,64,120
1070,G1,266.608,0.875,76,120
1071,A1,267.608,17/1000,76,120
1072,A1,273.5,483/1000,76,120
1073,D5,273.5,5.875,64,120
1074,D4,273.5,5.875,64,120
1075,D3,273.5,5.875,64,120
1076,A1,273.983,0.125,76,120
1077,F#2,274.483,0.125,70,120
1078,A1,274.483,0.125,70,120
1079,A1,274.983,0.5,76,120
1080,A1,275.483,0.125,76,120
1081,A1,275.983,0.125,76,120
1082,F#2,276.483,0.125,64,120
1083,A1,276.483,0.875,76,120
1084,A1,277.483,0.875,76,120
1085,E2,277.483,0.125,101,120
1086,C#2,277.483,0.125,101,120
1087,A1,277.483,0.125,101,120
1088,F#2,278.483,0.125,64,120
1089,A1,278.483,0.875,76,120
1090,B1,279.483,17/1000,76,120
1091,D3,279.5,1.0,32,120
1092,B1,279.5,483/1000,76,120
1093,D5,279.5,6.0,64,120
1094,D4,279.5,6.0,64,120
1095,D3,279.5,6.0,64,120
1096,B1,279.983,0.125,76,120
1097,F#2,280.483,0.125,70,120
1098,B1,280.483,0.125,70,120
1099,B1,280.983,0.5,76,120
1100,B1,281.483,0.125,76,120
1101,B1,281.983,0.125,76,120
1102,F#2,282.483,0.125,64,120
1103,B1,282.483,0.875,76,120
1104,A1,283.483,0.875,76,120
1105,E2,283.483,0.125,101,120
1106,C#2,283.483,0.125,101,120
1107,A1,283.483,0.125,101,120
1108,F#2,284.483,0.125,64,120
1109,B1,284.483,0.875,76,120
1110,B1,285.483,17/1000,76,120
1111,B1,291.375,483/1000,76,120
1112,D5,291.375,5.875,64,120
1113,D4,291.375,5.875,64,120
1114,D3,291.375,5.875,64,120
1115,B1,291.858,0.125,76,120
1116,F#2,292.358,0.125,70,120
1117,B1,292.358,0.125,70,120
1118,B1,292.858,0.5,76,120
1119,B1,293.358,0.125,76,120
1120,B1,293.858,0.125,76,120
1121,F#2,294.358,0.125,64,120
1122,G1,294.358,0.875,76,120
1123,G1,295.358,0.875,76,120
1124,E2,295.358,0.125,101,120
1125,C#2,295.358,0.125,101,120
1126,A1,295.358,0.125,101,120
1127,F#2,296.358,0.125,64,120
1128,A1,296.358,0.875,76,120
1129,D2,297.358,17/1000,76,120
1130,F#3,297.375,6.0,64,120
1131,D5,297.375,1.0,32,120
1132,F#3,297.375,0.25,64,120
1133,D2,297.375,483/1000,76,120
1134,F#4,297.625,5.75,64,120
1135,D4,297.625,0.25,64,120
1136,D2,297.858,0.125,76,120
1137,F#5,297.875,5.5,64,120
1138,F#4,297.875,1.5,64,120
1139,F#2,298.358,0.125,70,120
1140,D2,298.358,0.125,70,120
1141,D2,298.858,0.5,76,120
1142,D2,299.358,0.125,76,120
1143,D2,299.858,0.125,76,120
1144,F#2,300.358,0.125,64,120
1145,D2,300.358,0.875,76,120
1146,D2,301.358,0.875,76,120
1147,E2,301.358,0.125,101,120
1148,C#2,301.358,0.125,101,120
1149,A1,301.358,0.125,101,120
1150,F#2,302.358,0.125,64,120
1151,D2,302.358,0.875,76,120
1152,D2,303.358,17/1000,76,120
1153,F#3,303.375,0.875,64,120
1154,D2,303.375,483/1000,76,120
1155,F#4,303.375,1.375,64,120
1156,F#5,303.375,1.875,64,120
1157,D2,303.858,0.125,76,120
1158,F#2,304.358,0.125,70,120
1159,D2,304.358,0.125,70,120
1160,F#3,304.375,1.375,36,120
1161,D2,304.858,0.5,76,120
1162,F#4,304.875,1.375,39,120
1163,D2,305.358,0.125,76,120
1164,F#5,305.375,1.375,42,120
1165,D2,305.858,0.125,76,120
1166,F#3,305.875,1.875,45,120
1167,F#2,306.358,0.125,64,120
1168,D2,306.358,0.875,76,120
1169,F#4,306.375,1.875,48,120
1170,F#5,306.375,0.625,64,120
1171,F#5,306.875,0.375,51,120
1172,G5,307.0,0.125,64,120
1173,F#5,307.125,0.25,64,120
1174,D2,307.358,0.875,76,120
1175,E2,307.358,0.125,101,120
1176,C#2,307.358,0.125,101,120
1177,A1,307.358,0.125,101,120
1178,E5,307.375,1.375,54,120
1179,E5,307.375,1.0,64,120
1180,F#3,307.875,1.375,57,120
1181,F#2,308.358,0.125,64,120
1182,D2,308.358,0.875,68,120
1183,E4,308.358,0.875,68,120
1184,D5,308.375,1.0,64,120
1185,E5,308.875,0.375,63,120
1186,B1,309.358,17/1000,76,120
1187,D3,309.375,6.0,64,120
1188,D5,309.375,6.0,64,120
1189,D4,309.375,6.0,64,120
1190,D4,309.375,1.0,32,120
1191,C#5,309.375,1.5,64,120
1192,B1,309.375,483/1000,76,120
1193,B1,309.858,0.125,76,120
1194,F#2,310.358,0.125,70,120
1195,B1,310.358,0.125,70,120
1196,B1,310.858,0.5,76,120
1197,D5,310.875,4.5,64,120
1198,B1,311.358,0.125,76,120
1199,B1,311.858,0.125,76,120
1200,F#2,312.358,0.125,64,120
1201,B1,312.358,0.875,76,120
1202,B1,313.358,0.875,76,120
1203,E2,313.358,0.125,101,120
1204,C#2,313.358,0.125,101,120
1205,A1,313.358,0.125,101,120
1206,F#2,314.358,0.125,64,120
1207,B1,314.358,0.875,76,120
1208,B1,315.358,17/1000,76,120
1209,D3,315.375,0.875,64,120
1210,D5,315.375,1.875,64,120
1211,D4,315.375,1.375,64,120
1212,B1,315.375,483/1000,76,120
1213,B1,315.858,0.125,76,120
1214,F#2,316.358,0.125,70,120
1215,B1,316.358,0.125,70,120
1216,D3,316.375,1.375,29,120
1217,B1,316.858,0.5,76,120
1218,D4,316.875,1.375,32,120
1219,B1,317.358,0.125,76,120
1220,D5,317.375,1.375,36,120
1221,B1,317.858,0.125,76,120
1222,D3,317.875,1.875,40,120
1223,F#2,318.358,0.125,64,120
1224,B1,318.358,0.875,76,120
1225,D4,318.375,1.875,44,120
1226,D5,318.875,0.5,47,120
1227,B1,319.358,0.875,76,120
1228,E2,319.358,0.125,101,120
1229,C#2,319.358,0.125,101,120
1230,A1,319.358,0.125,101,120
1231,E5,319.375,1.375,51,120
1232,D3,319.875,1.375,55,120
1233,F#2,320.358,0.125,64,120
1234,A1,320.358,0.875,68,120
1235,E4,320.358,0.875,68,120
1236,E5,320.875,0.375,63,120
1237,G1,321.358,17/1000,76,120
1238,G1,321.375,483/1000,76,120
1239,D5,321.375,6.0,64,120
1240,D4,321.375,6.0,64,120
1241,D3,321.375,6.0,64,120
1242,D4,321.375,1.0,32,120
1243,D5,321.375,1.0,32,120
1244,G1,321.858,0.125,76,120
1245,F#2,322.358,0.125,70,120
1246,G1,322.358,0.125,70,120
1247,G1,322.858,0.5,76,120
1248,G1,323.358,0.125,76,120
1249,G1,323.858,0.125,76,120
1250,F#2,324.358,0.125,64,120
1251,G1,324.358,0.875,76,120
1252,G1,325.358,0.875,76,120
1253,E2,325.358,0.125,101,120
1254,C#2,325.358,0.125,101,120
1255,A1,325.358,0.125,101,120
1256,F#2,326.358,0.125,64,120
1257,G1,326.358,0.875,76,120
1258,A1,327.358,17/1000,76,120
1259,A1,333.25,483/1000,76,120
1260,D5,333.25,5.875,64,120
1261,D4,333.25,5.875,64,120
1262,D3,333.25,5.875,64,120
1263,A1,333.733,0.125,76,120
1264,F#2,334.233,0.125,70,120
1265,A1,334.233,0.125,70,120
1266,A1,334.733,0.5,76,120
1267,A1,335.233,0.125,76,120
1268,A1,335.733,0.125,76,120
1269,F#2,336.233,0.125,64,120
1270,A1,336.233,0.875,76,120
1271,A1,337.233,0.875,76,120
1272,E2,337.233,0.125,101,120
1273,C#2,337.233,0.125,101,120
1274,A1,337.233,0.125,101,120
1275,F#2,338.233,0.125,64,120
1276,A1,338.233,0.875,76,120
1277,B1,339.233,17/1000,76,120
1278,D3,339.25,1.0,32,120
1279,B1,339.25,483/1000,76,120
1280,D5,339.25,6.0,64,120
1281,D4,339.25,6.0,64,120
1282,D3,339.25,6.0,64,120
1283,B1,339.733,0.125,76,120
1284,F#2,340.233,0.125,70,120
1285,B1,340.233,0.125,70,120
1286,B1,340.733,0.5,76,120
1287,B1,341.233,0.125,76,120
1288,B1,341.733,0.125,76,120
1289,F#2,342.233,0.125,64,120
1290,B1,342.233,0.875,76,120
1291,B1,343.233,0.875,76,120
1292,E2,343.233,0.125,101,120
1293,C#2,343.233,0.125,101,120
1294,A1,343.233,0.125,101,120
1295,F#2,344.233,0.125,64,120
1296,B1,344.233,0.875,76,120
1297,B1,345.233,17/1000,76,120
1298,B1,351.125,483/1000,76,120
1299,D5,351.125,5.875,64,120
1300,D4,351.125,5.875,64,120
1301,D3,351.125,5.875,64,120
1302,B1,351.608,0.125,76,120
1303,F#2,352.108,0.125,70,120
1304,B1,352.108,0.125,70,120
1305,B1,352.608,0.5,76,120
1306,B1,353.108,0.125,76,120
1307,B1,353.608,0.125,76,120
1308,F#2,354.108,0.125,64,120
1309,G1,354.108,0.875,76,120
1310,G1,355.108,0.875,76,120
1311,E2,355.108,0.125,101,120
1312,C#2,355.108,0.125,101,120
1313,A1,355.108,0.125,101,120
1314,F#2,356.108,0.125,64,120
1315,A1,356.108,0.875,76,120
1316,D2,357.108,17/1000,76,120
1317,D3,357.125,0.375,64,120
1318,D2,357.125,483/1000,76,120
1319,A5,357.125,3.0,64,120
1320,A4,357.125,3.0,64,120
1321,A4,357.125,2.875,54,120
1322,A5,357.125,2.875,54,120
1323,D2,357.608,0.125,70,120
1324,D3,357.608,0.125,70,120
1325,F#2,358.108,0.125,68,120
1326,D2,358.108,0.125,68,120
1327,D3,358.108,0.125,68,120
1328,D2,358.608,0.5,76,120
1329,D3,358.625,0.375,64,120
1330,D2,359.108,0.125,70,120
1331,D3,359.108,0.125,70,120
1332,D2,359.608,0.125,70,120
1333,D3,359.608,0.125,70,120
1334,F#2,360.108,0.125,64,120
1335,D2,360.108,0.875,76,120
1336,D3,360.125,0.375,64,120
1337,G5,360.125,3.0,64,120
1338,G4,360.125,3.0,64,120
1339,G4,360.125,2.875,54,120
1340,G5,360.125,2.875,54,120
1341,D3,360.625,0.125,64,120
1342,D2,361.108,0.5,76,120
1343,E2,361.108,0.125,101,120
1344,C#2,361.108,0.125,101,120
1345,A1,361.108,0.125,101,120
1346,D3,361.125,0.375,64,120
1347,D2,361.608,0.125,70,120
1348,D3,361.608,0.125,70,120
1349,D2,362.108,0.5,76,120
1350,F#2,362.108,0.125,64,120
1351,D3,362.108,0.125,64,120
1352,D2,362.608,0.125,76,120
1353,D3,362.625,0.375,64,120
1354,D2,363.108,17/1000,76,120
1355,D3,363.125,0.125,64,120
1356,F#4,363.125,3.875,64,120
1357,F#5,363.125,2.875,44,120
1358,D2,363.125,483/1000,76,120
1359,F#5,363.125,6.0,64,120
1360,F#4,363.125,6.0,64,120
1361,D2,363.608,0.125,70,120
1362,D3,363.608,0.125,70,120
1363,F#2,364.108,0.125,70,120
1364,D2,364.108,0.125,70,120
1365,D3,364.125,0.375,64,120
1366,D2,364.608,0.5,76,120
1367,D3,364.625,0.125,64,120
1368,D2,365.108,0.125,76,120
1369,D3,365.125,0.375,64,120
1370,D2,365.608,0.125,70,120
1371,D3,365.608,0.125,70,120
1372,D2,366.108,0.875,76,120
1373,F#2,366.108,0.125,64,120
1374,D3,366.108,0.125,64,120
1375,D5,366.125,2.875,44,120
1376,D3,366.625,0.375,64,120
1377,D2,367.108,0.875,76,120
1378,E2,367.108,0.125,92,120
1379,C#2,367.108,0.125,92,120
1380,A1,367.108,0.125,92,120
1381,D3,367.108,0.125,92,120
1382,D4,367.125,0.375,64,120
1383,D3,367.625,0.125,64,120
1384,D4,367.625,0.125,64,120
1385,F#2,368.108,0.125,64,120
1386,D2,368.108,0.875,76,120
1387,D3,368.125,0.375,64,120
1388,D4,368.125,0.375,64,120
1389,D3,368.625,0.125,64,120
1390,D4,368.625,0.125,64,120
1391,B1,369.108,17/1000,76,120
1392,B2,369.125,0.375,64,120
1393,B1,369.125,483/1000,76,120
1394,D4,369.125,3.0,64,120
1395,F#5,369.125,3.0,64,120
1396,D4,369.125,2.875,54,120
1397,D5,369.125,2.875,54,120
1398,B1,369.608,0.125,70,120
1399,B2,369.608,0.125,70,120
1400,F#2,370.108,0.125,68,120
1401,B1,370.108,0.125,68,120
1402,B2,370.108,0.125,68,120
1403,B1,370.608,0.5,76,120
1404,B2,370.625,0.375,64,120
1405,B1,371.108,0.125,70,120
1406,B2,371.108,0.125,70,120
1407,B1,371.608,0.125,70,120
1408,B2,371.608,0.125,70,120
1409,F#2,372.108,0.125,64,120
1410,B1,372.108,0.875,76,120
1411,B2,372.125,0.375,64,120
1412,E5,372.125,3.0,64,120
1413,E4,372.125,3.0,64,120
1414,E4,372.125,2.875,54,120
1415,E5,372.125,2.875,54,120
1416,B2,372.625,0.125,64,120
1417,B1,373.108,0.5,76,120
1418,E2,373.108,0.125,101,120
1419,C#2,373.108,0.125,101,120
1420,A1,373.108,0.125,101,120
1421,B2,373.125,0.375,64,120
1422,B1,373.608,0.125,70,120
1423,B2,373.608,0.125,70,120
1424,B1,374.108,0.5,76,120
1425,F#2,374.108,0.125,64,120
1426,B2,374.108,0.125,64,120
1427,B1,374.608,0.125,76,120
1428,B2,374.625,0.375,64,120
1429,B1,375.108,17/1000,76,120
1430,B2,375.125,0.125,64,120
1431,F#4,375.125,3.875,64,120
1432,F#5,375.125,2.875,44,120
1433,B1,375.125,483/1000,76,120
1434,F#5,375.125,6.0,64,120
1435,F#4,375.125,6.0,64,120
1436,B1,375.608,0.125,70,120
1437,B2,375.608,0.125,70,120
1438,F#2,376.108,0.125,70,120
1439,B1,376.108,0.125,70,120
1440,B2,376.125,0.375,64,120
1441,B1,376.608,0.5,76,120
1442,B2,376.625,0.125,64,120
1443,B1,377.108,0.125,76,120
1444,B2,377.125,0.375,64,120
1445,B1,377.608,0.125,70,120
1446,B2,377.608,0.125,70,120
1447,B1,378.108,0.875,76,120
1448,F#2,378.108,0.125,64,120
1449,B2,378.108,0.125,64,120
1450,D5,378.125,2.875,44,120
1451,B2,378.625,0.375,64,120
1452,B1,379.108,0.875,76,120
1453,E2,379.108,0.125,92,120
1454,C#2,379.108,0.125,92,120
1455,A1,379.108,0.125,92,120
1456,B2,379.108,0.125,92,120
1457,D4,379.125,0.375,64,120
1458,B2,379.625,0.125,64,120
1459,D4,379.625,0.125,64,120
1460,F#2,380.108,0.125,64,120
1461,A1,380.108,0.875,76,120
1462,A2,380.125,0.375,64,120
1463,D4,380.125,0.375,64,120
1464,A2,380.625,0.125,64,120
1465,D4,380.625,0.125,64,120
1466,G1,381.108,17/1000,76,120
1467,G2,381.125,0.375,64,120
1468,D4,381.125,3.875,64,120
1469,D5,381.125,5.875,44,120
1470,G1,381.125,483/1000,76,120
1471,D5,381.125,6.0,64,120
1472,D4,381.125,6.0,64,120
1473,G1,381.608,0.125,70,120
1474,G2,381.608,0.125,70,120
1475,F#2,382.108,0.125,68,120
1476,G1,382.108,0.125,68,120
1477,G2,382.108,0.125,68,120
1478,G1,382.608,0.5,76,120
1479,G2,382.625,0.375,64,120
1480,G1,383.108,0.125,70,120
1481,G2,383.108,0.125,70,120
1482,G1,383.608,0.125,70,120
1483,G2,383.608,0.125,70,120
1484,F#2,384.108,0.125,64,120
1485,G1,384.108,0.875,76,120
1486,G2,384.125,0.375,64,120
1487,G2,384.625,0.125,64,120
1488,G1,385.108,0.875,76,120
1489,E2,385.108,0.125,101,120
1490,C#2,385.108,0.125,101,120
1491,A1,385.108,0.125,101,120
1492,G2,385.125,0.375,64,120
1493,D4,385.125,0.375,64,120
1494,G2,385.625,0.125,64,120
1495,D4,385.625,0.125,64,120
1496,G1,386.108,0.875,76,120
1497,B-2,386.108,0.125,64,120
1498,G2,386.108,0.125,64,120
1499,D4,386.125,0.375,64,120
1500,G2,386.625,0.375,64,120
1501,D4,386.625,0.125,64,120
1502,A1,387.108,17/1000,76,120
1503,A2,387.125,0.375,64,120
1504,E4,387.125,3.875,64,120
1505,E5,387.125,5.875,44,120
1506,A1,387.125,483/1000,76,120
1507,E5,387.125,6.0,64,120
1508,E4,387.125,6.0,64,120
1509,A1,387.608,0.125,70,120
1510,A2,387.608,0.125,70,120
1511,F#2,388.108,0.125,68,120
1512,A1,388.108,0.125,68,120
1513,A2,388.108,0.125,68,120
1514,A1,388.608,0.5,76,120
1515,A2,388.625,0.375,64,120
1516,A1,389.108,0.125,70,120
1517,A2,389.108,0.125,70,120
1518,A1,389.608,0.125,70,120
1519,A2,389.608,0.125,70,120
1520,F#2,390.108,0.125,64,120
1521,A1,390.108,0.875,76,120
1522,A2,390.125,0.375,64,120
1523,A2,390.625,0.125,64,120
1524,A1,391.108,0.875,76,120
1525,E2,391.108,0.125,101,120
1526,C#2,391.108,0.125,101,120
1527,A1,391.108,0.125,101,120
1528,A2,391.125,0.375,64,120
1529,E4,391.125,0.375,64,120
1530,A2,391.625,0.125,64,120
1531,E4,391.625,0.125,64,120
1532,A1,392.108,0.875,76,120
1533,F#2,392.108,0.125,64,120
1534,A2,392.108,0.125,64,120
1535,E4,392.125,0.375,64,120
1536,A2,392.625,0.375,64,120
1537,E4,392.625,0.125,64,120
1538,D2,393.108,17/1000,76,120
1539,D3,393.125,0.375,64,120
1540,A4,393.125,3.875,64,120
1541,A5,393.125,6.0,44,120
1542,D2,393.125,483/1000,76,120
1543,A5,393.125,6.0,64,120
1544,A4,393.125,6.0,64,120
1545,D2,393.608,0.125,70,120
1546,D3,393.608,0.125,70,120
1547,F#2,394.108,0.125,68,120
1548,D2,394.108,0.125,68,120
1549,D3,394.108,0.125,68,120
1550,D2,394.608,0.5,76,120
1551,D3,394.625,0.375,64,120
1552,D2,395.108,0.125,70,120
1553,D3,395.108,0.125,70,120
1554,D2,395.608,0.125,70,120
1555,D3,395.608,0.125,70,120
1556,F#2,396.108,0.125,64,120
1557,D2,396.108,0.5,76,120
1558,D3,396.125,0.375,64,120
1559,D2,396.608,0.125,68,120
1560,F#2,396.608,0.125,68,120
1561,D3,396.608,0.125,68,120
1562,D2,397.108,0.5,76,120
1563,E2,397.108,0.125,101,120
1564,C#2,397.108,0.125,101,120
1565,A1,397.108,0.125,101,120
1566,D3,397.125,0.375,64,120
1567,A3,397.125,0.375,64,120
1568,D2,397.608,0.125,68,120
1569,D3,397.608,0.125,68,120
1570,A3,397.608,0.125,68,120
1571,D2,398.108,0.5,76,120
1572,F#2,398.108,0.125,64,120
1573,D3,398.108,0.125,64,120
1574,A3,398.125,0.375,64,120
1575,D2,398.608,0.125,70,120
1576,A3,398.608,0.125,70,120
1577,D3,398.625,0.375,64,120
1578,D2,399.108,17/1000,76,120
1579,D3,405.0,0.375,64,120
1580,A4,405.0,5.75,64,120
1581,D2,405.0,483/1000,76,120
1582,A5,405.0,5.75,44,120
1583,A5,405.0,5.875,64,120
1584,A4,405.0,5.875,64,120
1585,D2,405.483,0.125,70,120
1586,D3,405.483,0.125,70,120
1587,F#2,405.983,0.125,68,120
1588,D2,405.983,0.125,68,120
1589,D3,405.983,0.125,68,120
1590,D2,406.483,0.5,76,120
1591,D3,406.5,0.375,64,120
1592,D2,406.983,0.125,70,120
1593,D3,406.983,0.125,70,120
1594,D2,407.483,0.125,70,120
1595,D3,407.483,0.125,70,120
1596,F#2,407.983,0.125,64,120
1597,D2,407.983,0.5,76,120
1598,D3,408.0,0.375,64,120
1599,D2,408.5,0.125,70,120
1600,D3,408.5,0.125,70,120
1601,F#1,408.983,0.875,76,120
1602,E2,408.983,0.125,101,120
1603,C#2,408.983,0.125,101,120
1604,A1,408.983,0.125,101,120
1605,F#2,409.0,0.375,64,120
1606,A5,409.0,1.875,64,120
1607,F#2,409.5,0.125,64,120
1608,F#1,409.983,0.875,76,120
1609,F#2,409.983,0.125,64,120
1610,F#2,409.983,0.125,64,120
1611,F#2,410.5,0.375,64,120
1612,G1,411.0,0.5,76,120
1613,D4,411.0,0.875,64,120
1614,D4,411.0,5.75,32,120
1615,C#3,411.0,0.125,64,120
1616,G3,411.0,0.125,64,120
1617,A3,411.0,0.125,64,120
1618,F#2,411.983,0.125,70,120
1619,G1,411.983,0.125,70,120
1620,D4,412.0,2.375,54,120
1621,D5,412.0,2.375,54,120
1622,G1,412.5,0.875,61,120
1623,G4,412.5,0.875,61,120
1624,G5,412.5,0.875,61,120
1625,G1,413.5,0.125,76,120
1626,F#4,413.5,0.875,54,120
1627,F#5,413.5,0.875,54,120
1628,F#2,413.983,0.125,64,120
1629,G1,414.0,0.875,76,120
1630,D4,414.5,0.875,54,120
1631,D5,414.5,0.875,54,120
1632,E2,414.983,0.125,101,120
1633,C#2,414.983,0.125,101,120
1634,A1,414.983,0.125,101,120
1635,G1,415.0,1.875,76,120
1636,E4,415.5,0.875,54,120
1637,E5,415.5,0.875,54,120
1638,F#2,415.983,0.125,64,120
1639,D4,416.5,0.5,54,120
1640,D5,416.5,0.5,54,120
1641,A1,417.0,0.5,76,120
1642,A3,417.0,5.75,32,120
1643,A3,417.0,2.375,54,120
1644,A4,417.0,2.375,54,120
1645,D4,417.0,0.875,54,120
1646,D5,417.0,0.875,54,120
1647,F#2,417.983,0.125,70,120
1648,A1,417.983,0.125,70,120
1649,E4,418.0,0.375,54,120
1650,E5,418.0,0.375,54,120
1651,A1,418.5,0.875,76,120
1652,D4,418.5,1.875,54,120
1653,D5,418.5,1.875,54,120
1654,A1,419.5,0.875,76,120
1655,A3,419.5,2.875,54,120
1656,A4,419.5,2.875,54,120
1657,F#2,419.983,0.125,64,120
1658,A1,420.5,0.375,76,120
1659,D4,420.5,0.875,54,120
1660,D5,420.5,0.875,54,120
1661,E2,420.983,0.125,101,120
1662,C#2,420.983,0.125,101,120
1663,A1,420.983,0.125,101,120
1664,A1,421.0,1.875,76,120
1665,D4,421.5,1.375,54,120
1666,D5,421.5,1.375,54,120
1667,F#2,421.983,0.125,64,120
1668,A3,422.5,0.5,54,120
1669,A4,422.5,0.5,54,120
1670,B1,423.0,0.5,76,120
1671,C#3,423.0,0.125,64,120
1672,A4,423.0,6.0,32,120
1673,F#5,423.0,1.0,60,120
1674,A3,423.0,0.375,54,120
1675,A4,423.0,0.375,54,120
1676,A3,423.5,1.875,54,120
1677,A4,423.5,1.875,54,120
1678,F#2,423.983,0.125,67,120
1679,B1,423.983,0.125,67,120
1680,E5,423.983,0.125,67,120
1681,F#5,424.125,0.125,60,120
1682,E5,424.25,0.25,60,120
1683,B1,424.5,0.875,76,120
1684,F#5,424.5,1.5,60,120
1685,A4,424.5,2.375,54,120
1686,A5,424.5,2.375,54,120
1687,B1,425.5,0.875,61,120
1688,A3,425.5,0.875,61,120
1689,A4,425.5,0.875,61,120
1690,F#2,425.983,0.125,64,120
1691,A5,426.0,1.0,60,120
1692,B1,426.5,0.125,76,120
1693,A3,426.5,1.375,54,120
1694,A4,426.5,1.375,54,120
1695,E2,426.983,0.125,101,120
1696,C#2,426.983,0.125,101,120
1697,A1,426.983,0.125,101,120
1698,B1,427.0,0.875,76,120
1699,F#5,427.0,1.0,60,120
1700,A4,427.0,2.0,54,120
1701,A5,427.0,2.0,54,120
1702,F#2,427.983,0.125,64,120
1703,E5,428.0,1.0,60,120
1704,B1,428.0,0.875,61,120
1705,A3,428.0,0.875,61,120
1706,A4,428.0,0.875,61,120
1707,B1,429.0,0.5,76,120
1708,F#5,429.0,0.125,60,120
1709,A4,429.0,5.75,32,120
1710,A3,429.0,0.375,54,120
1711,A4,429.0,0.375,54,120
1712,A4,429.0,1.375,54,120
1713,A5,429.0,1.375,54,120
1714,G5,429.125,0.125,60,120
1715,F#5,429.25,0.75,60,120
1716,A3,429.5,1.875,54,120
1717,A4,429.5,1.875,54,120
1718,F#2,429.983,0.125,70,120
1719,B1,429.983,0.125,70,120
1720,E5,430.0,1.0,60,120
1721,B1,430.5,0.75,76,120
1722,A4,430.5,2.375,54,120
1723,A5,430.5,2.375,54,120
1724,D5,431.0,1.0,60,120
1725,B1,431.5,0.375,76,120
1726,A3,431.5,0.875,54,120
1727,A4,431.5,0.875,54,120
1728,F#2,431.983,0.125,67,120
1729,B1,431.983,0.125,67,120
1730,B4,431.983,0.125,67,120
1731,C5,432.125,0.125,60,120
1732,B4,432.25,0.75,60,120
1733,A3,432.5,1.375,54,120
1734,A4,432.5,1.375,54,120
1735,E2,432.983,0.125,101,120
1736,C#2,432.983,0.125,101,120
1737,A1,432.983,0.125,101,120
1738,A1,433.0,0.875,76,120
1739,A4,433.0,1.0,60,120
1740,A4,433.0,1.875,54,120
1741,A5,433.0,1.875,54,120
1742,F#2,433.983,0.125,64,120
1743,A1,434.0,0.25,76,120
1744,F#4,434.0,1.0,60,120
1745,A3,434.0,0.875,54,120
1746,A4,434.0,0.875,54,120
1747,G1,435.0,0.5,76,120
1748,G4,435.0,5.875,64,120
1749,G4,435.0,5.75,60,120
1750,A3,435.0,0.875,54,120
1751,A4,435.0,0.875,54,120
1752,F#2,435.983,0.125,70,120
1753,G1,435.983,0.125,70,120
1754,D4,436.0,2.375,54,120
1755,D5,436.0,2.375,54,120
1756,G1,436.5,0.875,61,120
1757,G4,436.5,0.875,61,120
1758,G5,436.5,0.875,61,120
1759,G1,437.5,1.375,76,120
1760,F#4,437.5,0.875,54,120
1761,F#5,437.5,0.875,54,120
1762,F#2,437.983,0.125,64,120
1763,D4,438.5,0.875,54,120
1764,D5,438.5,0.875,54,120
1765,E2,438.983,0.125,101,120
1766,C#2,438.983,0.125,101,120
1767,A1,438.983,0.125,101,120
1768,G1,439.0,1.875,76,120
1769,E4,439.5,0.875,54,120
1770,E5,439.5,0.875,54,120
1771,F#2,439.983,0.125,64,120
1772,D4,440.5,0.5,54,120
1773,D5,440.5,0.5,54,120
1774,F#1,441.0,0.5,76,120
1775,F#4,441.0,5.875,64,120
1776,A3,441.0,2.375,54,120
1777,A4,441.0,2.375,54,120
1778,D4,441.0,0.875,54,120
1779,D5,441.0,0.875,54,120
1780,F#2,441.983,0.125,70,120
1781,F#1,441.983,0.125,70,120
1782,E4,442.0,0.375,54,120
1783,E5,442.0,0.375,54,120
1784,F#1,442.5,0.875,76,120
1785,D4,442.5,1.875,54,120
1786,D5,442.5,1.875,54,120
1787,F#1,443.5,1.375,76,120
1788,A3,443.5,2.875,54,120
1789,A4,443.5,2.875,54,120
1790,F#2,443.983,0.125,64,120
1791,D4,444.5,0.875,54,120
1792,D5,444.5,0.875,54,120
1793,E2,444.983,0.125,101,120
1794,C#2,444.983,0.125,101,120
1795,A1,444.983,0.125,101,120
1796,F#1,445.0,1.875,76,120
1797,D4,445.5,1.375,54,120
1798,D5,445.5,1.375,54,120
1799,F#2,445.983,0.125,64,120
1800,A3,446.5,0.5,54,120
1801,A4,446.5,0.5,54,120
1802,A1,447.0,0.5,76,120
1803,A5,447.0,3.875,64,120
1804,A4,447.0,6.0,64,120
1805,A3,447.0,0.375,54,120
1806,A4,447.0,0.375,54,120
1807,A3,447.5,1.875,54,120
1808,A4,447.5,1.875,54,120
1809,F#2,447.983,0.125,70,120
1810,A1,447.983,0.125,70,120
1811,A1,448.5,0.875,76,120
1812,A4,448.5,2.375,54,120
1813,A5,448.5,2.375,54,120
1814,A1,449.5,1.375,76,120
1815,A3,449.5,0.875,54,120
1816,A4,449.5,0.875,54,120
1817,F#2,449.983,0.125,64,120
1818,A3,450.5,1.375,54,120
1819,A4,450.5,1.375,54,120
1820,E2,450.983,0.125,101,120
1821,C#2,450.983,0.125,101,120
1822,A1,450.983,0.125,101,120
1823,A1,451.0,1.875,76,120
1824,G5,451.0,1.0,64,120
1825,A4,451.0,2.0,54,120
1826,A5,451.0,2.0,54,120
1827,F#2,451.983,0.125,64,120
1828,F#5,452.0,1.0,64,120
1829,A3,452.0,0.875,54,120
1830,A4,452.0,0.875,54,120
1831,G5,453.0,1.0,64,120
1832,A4,453.0,5.875,64,120
1833,A1,453.0,0.375,61,120
1834,A3,453.0,0.375,61,120
1835,A4,453.0,0.375,61,120
1836,A4,453.0,1.375,54,120
1837,A5,453.0,1.375,54,120
1838,A1,453.5,0.375,76,120
1839,A3,453.5,1.875,54,120
1840,A4,453.5,1.875,54,120
1841,F#2,453.983,0.125,64,120
1842,A1,454.0,0.375,76,120
1843,F#5,454.0,1.0,64,120
1844,A1,454.5,0.75,76,120
1845,A4,454.5,2.375,54,120
1846,A5,454.5,2.375,54,120
1847,D5,455.0,1.0,64,120
1848,A1,455.5,0.375,76,120
1849,A3,455.5,0.875,54,120
1850,A4,455.5,0.875,54,120
1851,F#2,455.983,0.125,64,120
1852,G1,456.0,0.875,76,120
1853,B4,456.0,1.0,64,120
1854,A3,456.5,1.375,54,120
1855,A4,456.5,1.375,54,120
1856,E2,456.983,0.125,101,120
1857,C#2,456.983,0.125,101,120
1858,A1,456.983,0.125,101,120
1859,F#1,457.0,0.875,76,120
1860,A4,457.0,1.0,64,120
1861,A4,457.0,1.875,54,120
1862,A5,457.0,1.875,54,120
1863,F#2,457.983,0.125,64,120
1864,F#4,458.0,1.0,64,120
1865,F#1,458.0,0.875,61,120
1866,A3,458.0,0.875,61,120
1867,A4,458.0,0.875,61,120
1868,G1,458.983,17/1000,76,120
1869,G4,459.0,6.0,64,120
1870,G1,459.0,483/1000,76,120
1871,G4,459.0,5.875,64,120
1872,G3,459.0,5.875,64,120
1873,G1,459.483,0.125,76,120
1874,F#2,459.983,0.125,70,120
1875,G1,459.983,0.125,70,120
1876,D4,460.0,2.375,54,120
1877,D5,460.0,2.375,54,120
1878,G1,460.483,0.5,76,120
1879,G4,460.5,0.875,54,120
1880,G5,460.5,0.875,54,120
1881,G1,460.983,0.125,76,120
1882,G1,461.483,0.125,76,120
1883,F#4,461.5,0.875,54,120
1884,F#5,461.5,0.875,54,120
1885,F#2,461.983,0.125,64,120
1886,G1,461.983,0.875,76,120
1887,D4,462.5,0.875,54,120
1888,D5,462.5,0.875,54,120
1889,G1,462.983,0.875,76,120
1890,E2,462.983,0.125,101,120
1891,C#2,462.983,0.125,101,120
1892,A1,462.983,0.125,101,120
1893,E4,463.5,0.875,54,120
1894,E5,463.5,0.875,54,120
1895,F#2,463.983,0.125,64,120
1896,G1,463.983,0.875,76,120
1897,D4,464.5,0.5,54,120
1898,D5,464.5,0.5,54,120
1899,A1,464.983,17/1000,76,120
1900,A1,465.0,483/1000,76,120
1901,A3,465.0,2.375,54,120
1902,A4,465.0,2.375,54,120
1903,A4,465.0,5.875,64,120
1904,A4,465.0,5.875,64,120
1905,A3,465.0,5.875,64,120
1906,D4,465.0,0.875,54,120
1907,D5,465.0,0.875,54,120
1908,A1,465.483,0.125,76,120
1909,F#2,465.983,0.125,70,120
1910,A1,465.983,0.125,70,120
1911,E4,466.0,0.375,54,120
1912,E5,466.0,0.375,54,120
1913,A1,466.483,0.5,76,120
1914,D4,466.5,1.875,54,120
1915,D5,466.5,1.875,54,120
1916,A1,466.983,0.125,76,120
1917,A1,467.483,0.125,76,120
1918,A3,467.5,2.875,54,120
1919,A4,467.5,2.875,54,120
1920,F#2,467.983,0.125,64,120
1921,A1,467.983,0.875,76,120
1922,D4,468.5,0.875,54,120
1923,D5,468.5,0.875,54,120
1924,A1,468.983,0.875,76,120
1925,E2,468.983,0.125,101,120
1926,C#2,468.983,0.125,101,120
1927,A1,468.983,0.125,101,120
1928,D4,469.5,1.375,54,120
1929,D5,469.5,1.375,54,120
1930,F#2,469.983,0.125,64,120
1931,A1,469.983,0.875,76,120
1932,A3,470.5,0.5,54,120
1933,A4,470.5,0.5,54,120
1934,B1,470.983,17/1000,68,120
1935,C#5,470.983,17/1000,68,120
1936,C#5,470.983,17/1000,68,120
1937,C#3,471.0,0.125,64,120
1938,D4,471.0,6.0,64,120
1939,A5,471.0,6.0,64,120
1940,B1,471.0,483/1000,68,120
1941,C#5,471.0,483/1000,68,120
1942,C#5,471.0,483/1000,68,120
1943,A3,471.0,0.375,54,120
1944,A4,471.0,0.375,54,120
1945,B1,471.483,0.125,67,120
1946,D5,471.483,0.125,67,120
1947,D5,471.483,0.125,67,120
1948,A3,471.5,1.875,54,120
1949,A4,471.5,1.875,54,120
1950,F#2,471.983,0.125,66,120
1951,B1,471.983,0.125,66,120
1952,D5,471.983,0.125,66,120
1953,D5,471.983,0.125,66,120
1954,B1,472.483,0.5,76,120
1955,A4,472.5,2.375,54,120
1956,A5,472.5,2.375,54,120
1957,D5,472.5,0.125,61,120
1958,D5,472.5,0.125,61,120
1959,B1,472.983,0.125,65,120
1960,D5,472.983,0.125,65,120
1961,D5,472.983,0.125,65,120
1962,B1,473.483,0.125,64,120
1963,D5,473.483,0.125,64,120
1964,D5,473.483,0.125,64,120
1965,A3,473.5,0.875,54,120
1966,A4,473.5,0.875,54,120
1967,F#2,473.983,0.125,64,120
1968,B1,473.983,0.875,76,120
1969,C#5,474.0,0.5,57,120
1970,C#5,474.0,0.5,57,120
1971,A3,474.5,1.375,54,120
1972,A4,474.5,1.375,54,120
1973,D5,474.5,0.125,56,120
1974,D5,474.5,0.125,56,120
1975,B1,474.983,0.875,76,120
1976,E2,474.983,0.125,82,120
1977,C#2,474.983,0.125,82,120
1978,A1,474.983,0.125,82,120
1979,D5,474.983,0.125,82,120
1980,D5,474.983,0.125,82,120
1981,A4,475.0,2.0,54,120
1982,A5,475.0,2.0,54,120
1983,D5,475.5,0.125,53,120
1984,D5,475.5,0.125,53,120
1985,F#2,475.983,0.125,56,120
1986,D5,475.983,0.125,56,120
1987,D5,475.983,0.125,56,120
1988,B1,475.983,0.875,61,120
1989,A3,475.983,0.875,61,120
1990,A4,475.983,0.875,61,120
1991,D5,476.5,0.125,51,120
1992,D5,476.5,0.125,51,120
1993,B1,476.983,17/1000,58,120
1994,C#5,476.983,17/1000,58,120
1995,C#5,476.983,17/1000,58,120
1996,A3,482.875,0.375,54,120
1997,A4,482.875,0.375,54,120
1998,B1,482.875,483/1000,58,120
1999,C#5,482.875,483/1000,58,120
2000,C#5,482.875,483/1000,58,120
2001,D4,482.875,5.875,64,120
2002,A5,482.875,5.875,64,120
2003,A4,482.875,1.375,54,120
2004,A5,482.875,1.375,54,120
2005,B1,483.358,0.125,57,120
2006,D5,483.358,0.125,57,120
2007,D5,483.358,0.125,57,120
2008,A3,483.375,1.875,54,120
2009,A4,483.375,1.875,54,120
2010,F#2,483.858,0.125,58,120
2011,B1,483.858,0.125,58,120
2012,D5,483.858,0.125,58,120
2013,D5,483.858,0.125,58,120
2014,B1,484.358,0.5,76,120
2015,A4,484.375,2.375,54,120
2016,A5,484.375,2.375,54,120
2017,D5,484.375,0.125,46,120
2018,D5,484.375,0.125,46,120
2019,B1,484.858,0.125,55,120
2020,D5,484.858,0.125,55,120
2021,D5,484.858,0.125,55,120
2022,B1,485.358,0.125,54,120
2023,D5,485.358,0.125,54,120
2024,D5,485.358,0.125,54,120
2025,A3,485.375,0.875,54,120
2026,A4,485.375,0.875,54,120
2027,F#2,485.858,0.125,64,120
2028,F#1,485.858,0.875,76,120
2029,C#5,485.875,0.5,42,120
2030,C#5,485.875,0.5,42,120
2031,A3,486.375,1.375,54,120
2032,A4,486.375,1.375,54,120
2033,D5,486.375,0.125,41,120
2034,D5,486.375,0.125,41,120
2035,F#1,486.858,0.875,76,120
2036,E2,486.858,0.125,76,120
2037,C#2,486.858,0.125,76,120
2038,A1,486.858,0.125,76,120
2039,D5,486.858,0.125,76,120
2040,D5,486.858,0.125,76,120
2041,A4,486.875,1.875,54,120
2042,A5,486.875,1.875,54,120
2043,D5,487.375,0.125,38,120
2044,D5,487.375,0.125,38,120
2045,F#2,487.858,0.125,46,120
2046,D5,487.858,0.125,46,120
2047,D5,487.858,0.125,46,120
2048,F#1,487.858,0.875,61,120
2049,A3,487.858,0.875,61,120
2050,A4,487.858,0.875,61,120
2051,D5,488.375,0.125,36,120
2052,D5,488.375,0.125,36,120
2053,G1,488.858,17/1000,48,120
2054,C#5,488.858,17/1000,48,120
2055,C#5,488.858,17/1000,48,120
2056,A3,488.875,0.875,54,120
2057,A4,488.875,0.875,54,120
2058,G3,488.875,5.875,64,120
2059,G3,488.875,5.875,64,120
2060,G1,488.875,483/1000,48,120
2061,C#5,488.875,483/1000,48,120
2062,C#5,488.875,483/1000,48,120
2063,G1,489.358,0.125,47,120
2064,D5,489.358,0.125,47,120
2065,D5,489.358,0.125,47,120
2066,F#2,489.858,0.125,51,120
2067,G1,489.858,0.125,51,120
2068,D5,489.858,0.125,51,120
2069,D5,489.858,0.125,51,120
2070,D4,489.875,2.375,54,120
2071,D5,489.875,2.375,54,120
2072,G1,490.358,0.5,76,120
2073,G4,490.375,0.875,54,120
2074,G5,490.375,0.875,54,120
2075,D5,490.375,0.125,31,120
2076,D5,490.375,0.125,31,120
2077,G1,490.858,0.125,45,120
2078,D5,490.858,0.125,45,120
2079,D5,490.858,0.125,45,120
2080,G1,491.358,0.125,44,120
2081,D5,491.358,0.125,44,120
2082,D5,491.358,0.125,44,120
2083,F#4,491.375,0.875,54,120
2084,F#5,491.375,0.875,54,120
2085,F#2,491.858,0.125,64,120
2086,G1,491.858,0.875,76,120
2087,C#5,491.875,0.5,27,120
2088,C#5,491.875,0.5,27,120
2089,D4,492.375,0.875,54,120
2090,D5,492.375,0.875,54,120
2091,D5,492.375,0.125,26,120
2092,D5,492.375,0.125,26,120
2093,G1,492.858,0.875,76,120
2094,E2,492.858,0.125,70,120
2095,C#2,492.858,0.125,70,120
2096,A1,492.858,0.125,70,120
2097,D5,492.858,0.125,70,120
2098,D5,492.858,0.125,70,120
2099,E4,493.375,0.875,54,120
2100,E5,493.375,0.875,54,120
2101,D5,493.375,0.125,23,120
2102,D5,493.375,0.125,23,120
2103,G1,493.858,0.875,76,120
2104,F#2,493.858,0.125,36,120
2105,D5,493.858,0.125,36,120
2106,D5,493.858,0.125,36,120
2107,D4,494.375,0.5,54,120
2108,D5,494.375,0.5,54,120
2109,D5,494.375,0.125,21,120
2110,D5,494.375,0.125,21,120
2111,A1,494.858,17/1000,38,120
2112,C#5,494.858,17/1000,38,120
2113,C#5,494.858,17/1000,38,120
2114,A3,494.875,2.375,54,120
2115,A4,494.875,2.375,54,120
2116,A3,494.875,5.875,64,120
2117,A3,494.875,5.875,64,120
2118,D4,494.875,0.875,54,120
2119,D5,494.875,0.875,54,120
2120,A1,494.875,483/1000,38,120
2121,C#5,494.875,483/1000,38,120
2122,C#5,494.875,483/1000,38,120
2123,A1,495.358,0.125,37,120
2124,D5,495.358,0.125,37,120
2125,D5,495.358,0.125,37,120
2126,F#2,495.858,0.125,44,120
2127,A1,495.858,0.125,44,120
2128,D5,495.858,0.125,44,120
2129,D5,495.858,0.125,44,120
2130,E4,495.875,0.375,54,120
2131,E5,495.875,0.375,54,120
2132,A1,496.358,0.5,76,120
2133,D4,496.375,1.875,54,120
2134,D5,496.375,1.875,54,120
2135,D5,496.375,0.125,16,120
2136,D5,496.375,0.125,16,120
2137,A1,496.858,0.125,35,120
2138,D5,496.858,0.125,35,120
2139,D5,496.858,0.125,35,120
2140,A1,497.358,0.125,34,120
2141,D5,497.358,0.125,34,120
2142,D5,497.358,0.125,34,120
2143,A3,497.375,2.875,54,120
2144,A4,497.375,2.875,54,120
2145,F#2,497.858,0.125,64,120
2146,A1,497.858,0.875,76,120
2147,C#5,497.875,0.5,12,120
2148,C#5,497.875,0.5,12,120
2149,C2,498.375,0.125,29,120
2150,D5,498.375,0.125,29,120
2151,D5,498.375,0.125,29,120
2152,D4,498.375,0.875,54,120
2153,D5,498.375,0.875,54,120
2154,A1,498.858,0.875,76,120
2155,A1,498.858,0.125,55,120
2156,E2,498.858,0.125,55,120
2157,D5,498.858,0.125,55,120
2158,D5,498.858,0.125,55,120
2159,D4,499.375,1.375,54,120
2160,D5,499.375,1.375,54,120
2161,D5,499.375,0.125,8,120
2162,D5,499.375,0.125,8,120
2163,A1,499.858,0.875,76,120
2164,F#2,499.858,0.125,49,120
2165,D2,499.858,0.125,49,120
2166,B1,499.858,0.125,49,120
2167,D5,499.858,0.125,49,120
2168,D5,499.858,0.125,49,120
2169,D5,500.375,0.125,6,120
2170,D5,500.375,0.125,6,120
2171,A4,500.375,0.375,54,120
2172,A3,500.375,0.375,54,120
2173,D2,500.875,0.5,76,120
2174,D5,500.875,1.375,64,120
2175,D3,500.875,1.0,64,120
2176,D3,500.875,1.5,40,120
2177,C#3,500.875,0.125,48,120
2178,F3,500.875,0.125,48,120
2179,D2,501.375,0.125,76,120
2180,F#2,501.858,0.125,57,120
2181,D2,501.858,0.125,57,120
2182,F3,501.858,0.125,57,120
2183,F#4,501.875,1.375,64,120
2184,D2,502.375,0.5,76,120
2185,F3,502.375,0.125,32,120
2186,F#4,502.375,3.0,40,120
2187,F#5,502.375,0.375,64,120
2188,F#5,502.375,1.375,64,120
2189,D2,502.875,0.125,76,120
2190,F#5,502.875,0.375,64,120
2191,F#5,503.375,0.375,64,120
2192,F#4,503.375,1.375,64,120
2193,D2,503.375,0.125,54,120
2194,F3,503.375,0.125,54,120
2195,F#2,503.858,0.125,64,120
2196,D2,503.875,0.625,76,120
2197,F#5,503.875,1.375,64,120
2198,F#5,503.875,1.375,64,120
2199,F3,504.375,0.125,32,120
2200,E2,504.858,0.125,82,120
2201,C#2,504.858,0.125,82,120
2202,A1,504.858,0.125,82,120
2203,E2,504.858,0.125,82,120
2204,F3,504.858,0.125,82,120
2205,F#4,504.875,1.375,64,120
2206,E2,505.375,0.375,76,120
2207,E4,505.375,1.5,40,120
2208,E5,505.375,1.375,64,120
2209,E5,505.375,1.375,64,120
2210,F#2,505.858,0.125,57,120
2211,E2,505.858,0.125,57,120
2212,F3,505.858,0.125,57,120
2213,E2,506.375,0.125,76,120
2214,F#4,506.375,0.5,64,120
2215,B1,506.875,0.5,76,120
2216,F3,506.875,0.125,32,120
2217,F#4,506.875,0.875,64,120
2218,E4,506.875,1.5,40,120
2219,E5,506.875,1.375,64,120
2220,E5,506.875,1.375,64,120
2221,B1,507.375,0.125,76,120
2222,F#2,507.858,0.125,57,120
2223,B1,507.858,0.125,57,120
2224,F3,507.858,0.125,57,120
2225,F#4,507.875,0.375,64,120
2226,B1,508.375,0.5,76,120
2227,F3,508.375,0.125,32,120
2228,D4,508.375,3.0,40,120
2229,F#4,508.375,1.875,64,120
2230,D5,508.375,1.375,64,120
2231,D5,508.375,1.375,64,120
2232,B1,508.875,0.125,76,120
2233,B1,509.375,0.125,54,120
2234,F3,509.375,0.125,54,120
2235,F#2,509.858,0.125,70,120
2236,B1,509.858,0.125,70,120
2237,D5,509.875,1.375,64,120
2238,D5,509.875,1.375,64,120
2239,E4,510.375,0.875,64,120
2240,B1,510.375,0.125,54,120
2241,F3,510.375,0.125,54,120
2242,E2,510.858,0.125,82,120
2243,C#2,510.858,0.125,82,120
2244,A1,510.858,0.125,82,120
2245,E2,510.858,0.125,82,120
2246,F3,510.858,0.125,82,120
2247,E2,511.375,0.375,76,120
2248,C#4,511.375,1.5,40,120
2249,C#5,511.375,1.0,64,120
2250,C#5,511.375,1.5,64,120
2251,F#2,511.858,0.125,57,120
2252,E2,511.858,0.125,57,120
2253,F3,511.858,0.125,57,120
2254,E2,512.375,0.125,76,120
2255,A4,512.375,0.5,64,120
2256,D2,512.875,0.5,76,120
2257,F3,512.875,0.125,32,120
2258,C#4,512.875,1.5,40,120
2259,A4,512.875,0.875,64,120
2260,C#5,512.875,0.875,64,120
2261,D2,513.375,0.125,76,120
2262,F#2,513.858,0.125,57,120
2263,D2,513.858,0.125,57,120
2264,F3,513.858,0.125,57,120
2265,D4,513.875,1.375,64,120
2266,D4,513.875,0.375,64,120
2267,D2,514.375,0.5,76,120
2268,F3,514.375,0.125,32,120
2269,B3,514.375,3.0,40,120
2270,B4,514.375,1.375,64,120
2271,B3,514.375,1.375,64,120
2272,D2,514.875,0.125,76,120
2273,D4,515.375,1.375,64,120
2274,D2,515.375,0.125,54,120
2275,F3,515.375,0.125,54,120
2276,F#2,515.858,0.125,70,120
2277,D2,515.858,0.125,70,120
2278,B4,515.875,1.375,64,120
2279,B4,515.875,1.375,64,120
2280,D2,516.375,0.125,54,120
2281,F3,516.375,0.125,54,120
2282,E2,516.858,0.125,82,120
2283,C#2,516.858,0.125,82,120
2284,A1,516.858,0.125,82,120
2285,E2,516.858,0.125,82,120
2286,F3,516.858,0.125,82,120
2287,D4,516.875,1.375,64,120
2288,E2,517.375,0.375,76,120
2289,A3,517.375,1.5,40,120
2290,A4,517.375,1.375,64,120
2291,A3,517.375,1.5,64,120
2292,F#2,517.858,0.125,57,120
2293,E2,517.858,0.125,57,120
2294,F3,517.858,0.125,57,120
2295,E2,518.375,0.125,76,120
2296,D4,518.375,0.5,64,120
2297,B1,518.875,0.5,76,120
2298,F3,518.875,0.125,32,120
2299,A4,518.875,1.375,64,120
2300,A4,518.875,1.5,64,120
2301,D4,518.875,0.875,64,120
2302,A3,518.875,1.5,40,120
2303,B1,519.375,0.125,76,120
2304,F#2,519.858,0.125,57,120
2305,B1,519.858,0.125,57,120
2306,F3,519.858,0.125,57,120
2307,D4,519.875,1.375,64,120
2308,B1,520.375,0.5,76,120
2309,F3,520.375,0.125,32,120
2310,G3,520.375,3.0,40,120
2311,G4,520.375,1.375,64,120
2312,G3,520.375,1.375,64,120
2313,B1,520.875,0.125,76,120
2314,D4,521.375,1.375,64,120
2315,B1,521.375,0.125,54,120
2316,F3,521.375,0.125,54,120
2317,F#2,521.858,0.125,70,120
2318,B1,521.858,0.125,70,120
2319,G4,521.875,1.375,64,120
2320,G4,521.875,1.375,64,120
2321,B1,522.375,0.125,54,120
2322,F3,522.375,0.125,54,120
2323,E2,522.858,0.125,82,120
2324,C#2,522.858,0.125,82,120
2325,A1,522.858,0.125,82,120
2326,E2,522.858,0.125,82,120
2327,F3,522.858,0.125,82,120
2328,D4,522.875,1.375,64,120
2329,E2,523.375,0.375,76,120
2330,F#3,523.375,1.375,40,120
2331,F#4,523.375,0.875,64,120
2332,F#4,523.375,0.875,64,120
2333,F#2,523.858,0.125,57,120
2334,E2,523.858,0.125,57,120
2335,F3,523.858,0.125,57,120
2336,E2,524.375,0.125,76,120
2337,D4,524.375,0.375,64,120
2338,D4,524.375,0.375,64,120
2339,D2,524.858,17/1000,76,120
2340,C#3,524.875,0.125,64,120
2341,F#3,524.875,6.0,64,120
2342,D5,524.875,1.0,32,120
2343,F#3,524.875,0.25,64,120
2344,D2,524.875,483/1000,76,120
2345,F#4,525.125,5.75,64,120
2346,D4,525.125,0.25,64,120
2347,D2,525.358,0.125,76,120
2348,F#5,525.375,5.5,64,120
2349,F#4,525.375,1.5,64,120
2350,F#2,525.858,0.125,70,120
2351,D2,525.858,0.125,70,120
2352,D2,526.358,0.5,76,120
2353,D2,526.858,0.125,76,120
2354,D2,527.358,0.125,76,120
2355,F#2,527.858,0.125,64,120
2356,D2,527.858,0.875,76,120
2357,D2,528.858,0.875,76,120
2358,E2,528.858,0.125,101,120
2359,C#2,528.858,0.125,101,120
2360,A1,528.858,0.125,101,120
2361,F#2,529.858,0.125,64,120
2362,D2,529.858,0.875,76,120
2363,D2,530.858,17/1000,76,120
2364,F#4,530.875,1.375,64,120
2365,F#3,530.875,0.875,64,120
2366,D2,530.875,483/1000,76,120
2367,F#5,530.875,1.875,64,120
2368,D2,531.358,0.125,76,120
2369,F#2,531.858,0.125,70,120
2370,D2,531.858,0.125,70,120
2371,F#3,531.875,1.375,32,120
2372,D2,532.358,0.5,76,120
2373,F#4,532.375,1.375,36,120
2374,D2,532.858,0.125,76,120
2375,F#5,532.875,1.375,39,120
2376,D2,533.358,0.125,76,120
2377,F#3,533.375,1.875,42,120
2378,F#2,533.858,0.125,64,120
2379,D2,533.858,0.875,76,120
2380,F#4,533.875,1.875,46,120
2381,F#5,534.375,0.375,49,120
2382,D2,534.858,0.875,76,120
2383,E2,534.858,0.125,101,120
2384,C#2,534.858,0.125,101,120
2385,A1,534.858,0.125,101,120
2386,E5,534.875,1.375,53,120
2387,F#3,535.375,1.375,56,120
2388,F#2,535.858,0.125,64,120
2389,D2,535.858,0.875,68,120
2390,E4,535.858,0.875,68,120
2391,E5,536.375,0.375,63,120
2392,B1,536.858,17/1000,76,120
2393,D3,536.875,6.0,64,120
2394,D5,536.875,6.0,64,120
2395,D4,536.875,6.0,64,120
2396,D4,536.875,1.0,32,120
2397,B1,536.875,483/1000,76,120
2398,B1,537.358,0.125,76,120
2399,F#2,537.858,0.125,70,120
2400,B1,537.858,0.125,70,120
2401,B1,538.358,0.5,76,120
2402,B1,538.858,0.125,76,120
2403,B1,539.358,0.125,76,120
2404,F#2,539.858,0.125,64,120
2405,B1,539.858,0.875,76,120
2406,B1,540.858,0.875,76,120
2407,E2,540.858,0.125,101,120
2408,C#2,540.858,0.125,101,120
2409,A1,540.858,0.125,101,120
2410,F#2,541.858,0.125,64,120
2411,B1,541.858,0.875,76,120
2412,B1,542.858,17/1000,76,120
2413,D3,542.875,0.875,64,120
2414,D5,542.875,1.875,64,120
2415,D4,542.875,1.375,64,120
2416,B1,542.875,483/1000,76,120
2417,B1,543.358,0.125,76,120
2418,F#2,543.858,0.125,70,120
2419,B1,543.858,0.125,70,120
2420,D3,543.875,1.375,32,120
2421,B1,544.358,0.5,76,120
2422,D4,544.375,1.375,36,120
2423,B1,544.858,0.125,76,120
2424,D5,544.875,1.375,39,120
2425,B1,545.358,0.125,76,120
2426,D3,545.375,1.875,42,120
2427,F#2,545.858,0.125,64,120
2428,B1,545.858,0.875,76,120
2429,D4,545.875,1.875,45,120
2430,D5,546.375,0.5,49,120
2431,B1,546.858,0.875,76,120
2432,E2,546.858,0.125,101,120
2433,C#2,546.858,0.125,101,120
2434,A1,546.858,0.125,101,120
2435,E5,546.875,1.375,52,120
2436,D3,547.375,1.375,55,120
2437,F#2,547.858,0.125,64,120
2438,A1,547.858,0.875,68,120
2439,E4,547.858,0.875,68,120
2440,E5,548.375,0.375,62,120
2441,G1,548.858,17/1000,76,120
2442,G1,548.875,483/1000,76,120
2443,D5,548.875,6.0,64,120
2444,D4,548.875,6.0,64,120
2445,D3,548.875,6.0,64,120
2446,D4,548.875,1.0,32,120
2447,D5,548.875,1.0,32,120
2448,G1,549.358,0.125,76,120
2449,F#2,549.858,0.125,70,120
2450,G1,549.858,0.125,70,120
2451,G1,550.358,0.5,76,120
2452,G1,550.858,0.125,76,120
2453,G1,551.358,0.125,76,120
2454,F#2,551.858,0.125,64,120
2455,G1,551.858,0.875,76,120
2456,G1,552.858,0.875,76,120
2457,E2,552.858,0.125,101,120
2458,C#2,552.858,0.125,101,120
2459,A1,552.858,0.125,101,120
2460,F#2,553.858,0.125,64,120
2461,G1,553.858,0.875,76,120
2462,A1,554.858,17/1000,76,120
2463,A1,560.75,483/1000,76,120
2464,D5,560.75,5.875,64,120
2465,D4,560.75,5.875,64,120
2466,D3,560.75,5.875,64,120
2467,A1,561.233,0.125,76,120
2468,F#2,561.733,0.125,70,120
2469,A1,561.733,0.125,70,120
2470,A1,562.233,0.5,76,120
2471,A1,562.733,0.125,76,120
2472,A1,563.233,0.125,76,120
2473,F#2,563.733,0.125,64,120
2474,A1,563.733,0.875,76,120
2475,A1,564.733,0.875,76,120
2476,E2,564.733,0.125,101,120
2477,C#2,564.733,0.125,101,120
2478,A1,564.733,0.125,101,120
2479,F#2,565.733,0.125,64,120
2480,A1,565.733,0.875,76,120
2481,B1,566.733,17/1000,76,120
2482,D3,566.75,1.0,32,120
2483,B1,566.75,483/1000,76,120
2484,D5,566.75,6.0,64,120
2485,D4,566.75,6.0,64,120
2486,D3,566.75,6.0,64,120
2487,B1,567.233,0.125,76,120
2488,B1,567.733,0.125,70,120
2489,F#2,567.733,0.125,70,120
2490,B1,568.233,0.5,76,120
2491,B1,568.733,0.125,76,120
2492,B1,569.233,0.125,76,120
2493,B1,569.733,0.875,76,120
2494,F#2,569.733,0.125,64,120
2495,A1,570.733,0.875,76,120
2496,E2,570.733,0.125,101,120
2497,C#2,570.733,0.125,101,120
2498,A1,570.733,0.125,101,120
2499,B1,571.733,0.875,76,120
2500,F#2,571.733,0.125,64,120
2501,B1,572.733,17/1000,76,120
2502,B1,578.625,483/1000,76,120
2503,D5,578.625,5.875,64,120
2504,D4,578.625,5.875,64,120
2505,D3,578.625,5.875,64,120
2506,B1,579.108,0.125,76,120
2507,B1,579.608,0.125,70,120
2508,F#2,579.608,0.125,70,120
2509,B1,580.108,0.5,76,120
2510,B1,580.608,0.125,76,120
2511,B1,581.108,0.125,76,120
2512,G1,581.608,0.875,76,120
2513,F#2,581.608,0.125,64,120
2514,G1,582.608,0.875,76,120
2515,E2,582.608,0.125,101,120
2516,C#2,582.608,0.125,101,120
2517,A1,582.608,0.125,101,120
2518,A1,583.608,0.875,76,120
2519,F#2,583.608,0.125,64,120
2520,D2,584.608,17/1000,76,120
2521,D3,584.625,0.375,64,120
2522,D2,584.625,483/1000,76,120
2523,A5,584.625,3.0,64,120
2524,A4,584.625,3.0,64,120
2525,A4,584.625,2.875,54,120
2526,A5,584.625,2.875,54,120
2527,D2,585.108,0.125,70,120
2528,D3,585.108,0.125,70,120
2529,D2,585.608,0.125,68,120
2530,F#2,585.608,0.125,68,120
2531,D3,585.608,0.125,68,120
2532,D2,586.108,0.5,76,120
2533,D3,586.125,0.375,64,120
2534,D2,586.608,0.125,70,120
2535,D3,586.608,0.125,70,120
2536,D2,587.108,0.125,70,120
2537,D3,587.108,0.125,70,120
2538,D2,587.608,0.875,76,120
2539,F#2,587.608,0.125,64,120
2540,D3,587.625,0.375,64,120
2541,G5,587.625,3.0,64,120
2542,G4,587.625,3.0,64,120
2543,G4,587.625,2.875,54,120
2544,G5,587.625,2.875,54,120
2545,D3,588.125,0.125,64,120
2546,D2,588.608,0.875,76,120
2547,E2,588.608,0.125,101,120
2548,C#2,588.608,0.125,101,120
2549,A1,588.608,0.125,101,120
2550,D3,588.625,0.375,64,120
2551,D3,589.125,0.125,64,120
2552,D2,589.608,0.875,76,120
2553,F#2,589.608,0.125,64,120
2554,D3,589.608,0.125,64,120
2555,D3,590.125,0.375,64,120
2556,D2,590.608,17/1000,76,120
2557,D3,590.625,0.125,64,120
2558,F#4,590.625,3.875,64,120
2559,F#5,590.625,2.875,44,120
2560,D2,590.625,483/1000,76,120
2561,F#5,590.625,6.0,64,120
2562,F#4,590.625,6.0,64,120
2563,D2,591.108,0.125,70,120
2564,D3,591.108,0.125,70,120
2565,D2,591.608,0.125,70,120
2566,F#2,591.608,0.125,70,120
2567,D3,591.625,0.375,64,120
2568,D2,592.108,0.5,76,120
2569,D3,592.125,0.125,64,120
2570,D2,592.608,0.125,76,120
2571,D3,592.625,0.375,64,120
2572,D2,593.108,0.125,70,120
2573,D3,593.108,0.125,70,120
2574,D2,593.608,0.875,76,120
2575,F#2,593.608,0.125,64,120
2576,D3,593.608,0.125,64,120
2577,D5,593.625,2.875,44,120
2578,D3,594.125,0.375,64,120
2579,D2,594.608,0.875,76,120
2580,E2,594.608,0.125,92,120
2581,C#2,594.608,0.125,92,120
2582,A1,594.608,0.125,92,120
2583,D3,594.608,0.125,92,120
2584,D4,594.625,0.375,64,120
2585,D3,595.125,0.125,64,120
2586,D4,595.125,0.125,64,120
2587,D2,595.608,0.875,76,120
2588,F#2,595.608,0.125,64,120
2589,D3,595.625,0.375,64,120
2590,D4,595.625,0.375,64,120
2591,D3,596.125,0.125,64,120
2592,D4,596.125,0.125,64,120
2593,B1,596.608,17/1000,76,120
2594,B2,596.625,0.375,64,120
2595,B1,596.625,483/1000,76,120
2596,D4,596.625,3.0,64,120
2597,F#5,596.625,3.0,64,120
2598,D4,596.625,2.875,54,120
2599,D5,596.625,2.875,54,120
2600,B1,597.108,0.125,70,120
2601,B2,597.108,0.125,70,120
2602,B1,597.608,0.125,68,120
2603,F#2,597.608,0.125,68,120
2604,B2,597.608,0.125,68,120
2605,B1,598.108,0.5,76,120
2606,B2,598.125,0.375,64,120
2607,B1,598.608,0.125,70,120
2608,B2,598.608,0.125,70,120
2609,B1,599.108,0.125,70,120
2610,B2,599.108,0.125,70,120
2611,B1,599.608,0.875,76,120
2612,F#2,599.608,0.125,64,120
2613,B2,599.625,0.375,64,120
2614,E5,599.625,3.0,64,120
2615,E4,599.625,3.0,64,120
2616,E4,599.625,2.875,54,120
2617,E5,599.625,2.875,54,120
2618,B2,600.125,0.125,64,120
2619,B1,600.608,0.875,76,120
2620,E2,600.608,0.125,101,120
2621,C#2,600.608,0.125,101,120
2622,A1,600.608,0.125,101,120
2623,B2,600.625,0.375,64,120
2624,B2,601.125,0.125,64,120
2625,B1,601.608,0.875,76,120
2626,F#2,601.608,0.125,64,120
2627,B2,601.608,0.125,64,120
2628,B2,602.125,0.375,64,120
2629,B1,602.608,17/1000,76,120
2630,B2,602.625,0.125,64,120
2631,F#4,602.625,3.875,64,120
2632,F#5,602.625,2.875,44,120
2633,B1,602.625,483/1000,76,120
2634,F#5,602.625,6.0,64,120
2635,F#4,602.625,6.0,64,120
2636,B1,603.108,0.125,70,120
2637,B2,603.108,0.125,70,120
2638,B1,603.608,0.125,70,120
2639,F#2,603.608,0.125,70,120
2640,B2,603.625,0.375,64,120
2641,B1,604.108,0.5,76,120
2642,B2,604.125,0.125,64,120
2643,B1,604.608,0.125,76,120
2644,B2,604.625,0.375,64,120
2645,B1,605.108,0.125,70,120
2646,B2,605.108,0.125,70,120
2647,B1,605.608,0.875,76,120
2648,F#2,605.608,0.125,64,120
2649,B2,605.608,0.125,64,120
2650,D5,605.625,2.875,44,120
2651,B2,606.125,0.375,64,120
2652,B1,606.608,0.875,76,120
2653,E2,606.608,0.125,92,120
2654,C#2,606.608,0.125,92,120
2655,A1,606.608,0.125,92,120
2656,B2,606.608,0.125,92,120
2657,D4,606.625,0.375,64,120
2658,B2,607.125,0.125,64,120
2659,D4,607.125,0.125,64,120
2660,A1,607.608,0.875,76,120
2661,F#2,607.608,0.125,64,120
2662,A2,607.625,0.375,64,120
2663,D4,607.625,0.375,64,120
2664,A2,608.125,0.125,64,120
2665,D4,608.125,0.125,64,120
2666,G1,608.608,17/1000,76,120
2667,G2,608.625,0.375,64,120
2668,D4,608.625,3.875,64,120
2669,D5,608.625,5.875,44,120
2670,G1,608.625,483/1000,76,120
2671,D5,608.625,6.0,64,120
2672,D4,608.625,6.0,64,120
2673,G1,609.108,0.125,70,120
2674,G2,609.108,0.125,70,120
2675,G1,609.608,0.125,68,120
2676,F#2,609.608,0.125,68,120
2677,G2,609.608,0.125,68,120
2678,G1,610.108,0.5,76,120
2679,G2,610.125,0.375,64,120
2680,G1,610.608,0.125,70,120
2681,G2,610.608,0.125,70,120
2682,G1,611.108,0.125,70,120
2683,G2,611.108,0.125,70,120
2684,G1,611.608,0.875,76,120
2685,F#2,611.608,0.125,64,120
2686,G2,611.625,0.375,64,120
2687,G2,612.125,0.125,64,120
2688,G1,612.608,0.875,76,120
2689,E2,612.608,0.125,101,120
2690,C#2,612.608,0.125,101,120
2691,A1,612.608,0.125,101,120
2692,G2,612.625,0.375,64,120
2693,D4,612.625,0.375,64,120
2694,G2,613.125,0.125,64,120
2695,D4,613.125,0.125,64,120
2696,G1,613.608,0.875,76,120
2697,F#2,613.608,0.125,64,120
2698,G2,613.608,0.125,64,120
2699,D4,613.625,0.375,64,120
2700,G2,614.125,0.375,64,120
2701,D4,614.125,0.125,64,120
2702,A1,614.608,17/1000,76,120
2703,A2,614.625,0.375,64,120
2704,E4,614.625,3.875,64,120
2705,E5,614.625,5.875,44,120
2706,A1,614.625,483/1000,76,120
2707,E5,614.625,6.0,64,120
2708,E4,614.625,6.0,64,120
2709,A1,615.108,0.125,70,120
2710,A2,615.108,0.125,70,120
2711,A1,615.608,0.125,68,120
2712,F#2,615.608,0.125,68,120
2713,A2,615.608,0.125,68,120
2714,A1,616.108,0.5,76,120
2715,A2,616.125,0.375,64,120
2716,A1,616.608,0.125,70,120
2717,A2,616.608,0.125,70,120
2718,A1,617.108,0.125,70,120
2719,A2,617.108,0.125,70,120
2720,A1,617.608,0.875,76,120
2721,F#2,617.608,0.125,64,120
2722,A2,617.625,0.375,64,120
2723,A2,618.125,0.125,64,120
2724,A1,618.608,0.875,76,120
2725,E2,618.608,0.125,101,120
2726,C#2,618.608,0.125,101,120
2727,A1,618.608,0.125,101,120
2728,A2,618.625,0.375,64,120
2729,E4,618.625,0.375,64,120
2730,A2,619.125,0.125,64,120
2731,E4,619.125,0.125,64,120
2732,A1,619.608,0.875,76,120
2733,F#2,619.608,0.125,64,120
2734,A2,619.608,0.125,64,120
2735,E4,619.625,0.375,64,120
2736,A2,620.125,0.375,64,120
2737,E4,620.125,0.125,64,120
2738,D2,620.608,17/1000,76,120
2739,D3,620.625,0.375,64,120
2740,A4,620.625,3.875,64,120
2741,A5,620.625,6.0,44,120
2742,D2,620.625,483/1000,76,120
2743,A5,620.625,6.0,64,120
2744,A4,620.625,6.0,64,120
2745,D2,621.108,0.125,70,120
2746,D3,621.108,0.125,70,120
2747,F#2,621.608,0.125,68,120
2748,D2,621.608,0.125,68,120
2749,D3,621.608,0.125,68,120
2750,D2,622.108,0.5,76,120
2751,D3,622.125,0.375,64,120
2752,D2,622.608,0.125,70,120
2753,D3,622.608,0.125,70,120
2754,D2,623.108,0.125,70,120
2755,D3,623.108,0.125,70,120
2756,F#2,623.608,0.125,64,120
2757,D2,623.608,0.875,76,120
2758,D3,623.625,0.375,64,120
2759,D3,624.125,0.125,64,120
2760,D2,624.608,0.875,76,120
2761,E2,624.608,0.125,101,120
2762,C#2,624.608,0.125,101,120
2763,A1,624.608,0.125,101,120
2764,D3,624.625,0.375,64,120
2765,A3,624.625,0.375,64,120
2766,D3,625.125,0.125,64,120
2767,A3,625.125,0.125,64,120
2768,D2,625.608,0.875,76,120
2769,F#2,625.608,0.125,64,120
2770,D3,625.608,0.125,64,120
2771,A3,625.625,0.375,64,120
2772,D3,626.125,0.375,64,120
2773,A3,626.125,0.125,64,120
2774,D2,626.608,17/1000,76,120
2775,D3,632.5,0.375,64,120
2776,A4,632.5,5.75,64,120
2777,D2,632.5,483/1000,76,120
2778,A5,632.5,5.75,44,120
2779,A5,632.5,5.875,64,120
2780,A4,632.5,5.875,64,120
2781,D2,632.983,0.125,70,120
2782,D3,632.983,0.125,70,120
2783,F#2,633.483,0.125,68,120
2784,D2,633.483,0.125,68,120
2785,D3,633.483,0.125,68,120
2786,D2,633.983,0.5,76,120
2787,D3,634.0,0.375,64,120
2788,D2,634.483,0.125,70,120
2789,D3,634.483,0.125,70,120
2790,D2,634.983,0.375,76,120
2791,D3,635.0,0.125,64,120
2792,F#2,635.483,0.125,64,120
2793,D2,635.483,0.75,76,120
2794,D3,635.5,0.375,64,120
2795,D3,636.0,0.125,64,120
2796,F#1,636.483,0.875,76,120
2797,E2,636.483,0.125,101,120
2798,C#2,636.483,0.125,101,120
2799,A1,636.483,0.125,101,120
2800,F#2,636.5,0.375,64,120
2801,A5,636.5,1.875,64,120
2802,F#2,637.0,0.125,64,120
2803,F#1,637.483,0.875,76,120
2804,F#2,637.483,0.125,64,120
2805,F#2,637.483,0.125,64,120
2806,F#2,638.0,0.375,64,120
2807,G1,638.5,0.5,76,120
2808,D4,638.5,0.875,64,120
2809,D4,638.5,5.75,32,120
2810,F#2,639.483,0.125,70,120
2811,G1,639.483,0.125,70,120
2812,D4,639.5,2.375,54,120
2813,D5,639.5,2.375,54,120
2814,G1,640.0,0.875,61,120
2815,G4,640.0,0.875,61,120
2816,G5,640.0,0.875,61,120
2817,G1,641.0,0.125,76,120
2818,F#4,641.0,0.875,54,120
2819,F#5,641.0,0.875,54,120
2820,F#2,641.483,0.125,64,120
2821,G1,641.5,0.875,76,120
2822,D4,642.0,0.875,54,120
2823,D5,642.0,0.875,54,120
2824,E2,642.483,0.125,101,120
2825,C#2,642.483,0.125,101,120
2826,A1,642.483,0.125,101,120
2827,G1,642.5,1.875,76,120
2828,E4,643.0,0.875,54,120
2829,E5,643.0,0.875,54,120
2830,F#2,643.483,0.125,64,120
2831,D4,644.0,0.5,54,120
2832,D5,644.0,0.5,54,120
2833,A1,644.5,0.5,76,120
2834,A3,644.5,5.75,32,120
2835,A3,644.5,2.375,54,120
2836,A4,644.5,2.375,54,120
2837,D4,644.5,0.875,54,120
2838,D5,644.5,0.875,54,120
2839,F#2,645.483,0.125,70,120
2840,A1,645.483,0.125,70,120
2841,E4,645.5,0.375,54,120
2842,E5,645.5,0.375,54,120
2843,A1,646.0,0.875,76,120
2844,D4,646.0,1.875,54,120
2845,D5,646.0,1.875,54,120
2846,A1,647.0,0.875,76,120
2847,A3,647.0,2.875,54,120
2848,A4,647.0,2.875,54,120
2849,F#2,647.483,0.125,64,120
2850,A1,648.0,0.375,76,120
2851,D4,648.0,0.875,54,120
2852,D5,648.0,0.875,54,120
2853,E2,648.483,0.125,101,120
2854,C#2,648.483,0.125,101,120
2855,A1,648.483,0.125,101,120
2856,A1,648.5,1.875,76,120
2857,D4,649.0,1.375,54,120
2858,D5,649.0,1.375,54,120
2859,F#2,649.483,0.125,64,120
2860,A3,650.0,0.5,54,120
2861,A4,650.0,0.5,54,120
2862,B1,650.5,0.5,76,120
2863,A4,650.5,6.0,32,120
2864,A5,650.5,1.0,64,120
2865,A3,650.5,0.375,54,120
2866,A4,650.5,0.375,54,120
2867,A3,651.0,1.875,54,120
2868,A4,651.0,1.875,54,120
2869,F#2,651.483,0.125,68,120
2870,B1,651.483,0.125,68,120
2871,G5,651.483,0.125,68,120
2872,A5,651.625,0.125,64,120
2873,G5,651.75,0.25,64,120
2874,B1,652.0,0.875,76,120
2875,F#5,652.0,1.0,64,120
2876,A4,652.0,2.375,54,120
2877,A5,652.0,2.375,54,120
2878,F#5,653.0,0.125,64,120
2879,B1,653.0,0.875,61,120
2880,A3,653.0,0.875,61,120
2881,A4,653.0,0.875,61,120
2882,G5,653.125,0.125,64,120
2883,F#5,653.25,1.25,64,120
2884,F#2,653.483,0.125,64,120
2885,B1,654.0,0.125,76,120
2886,A3,654.0,1.375,54,120
2887,A4,654.0,1.375,54,120
2888,E2,654.483,0.125,101,120
2889,C#2,654.483,0.125,101,120
2890,A1,654.483,0.125,101,120
2891,B1,654.5,0.875,76,120
2892,E5,654.5,1.0,64,120
2893,A4,654.5,2.0,54,120
2894,A5,654.5,2.0,54,120
2895,F#2,655.483,0.125,64,120
2896,D5,655.5,1.0,64,120
2897,B1,655.5,0.875,61,120
2898,A3,655.5,0.875,61,120
2899,A4,655.5,0.875,61,120
2900,B1,656.5,0.5,76,120
2901,C#5,656.5,1.0,64,120
2902,A4,656.5,5.75,32,120
2903,A3,656.5,0.375,54,120
2904,A4,656.5,0.375,54,120
2905,A4,656.5,1.375,54,120
2906,A5,656.5,1.375,54,120
2907,A3,657.0,1.875,54,120
2908,A4,657.0,1.875,54,120
2909,F#2,657.483,0.125,70,120
2910,B1,657.483,0.125,70,120
2911,D5,657.5,3.0,64,120
2912,B1,658.0,0.75,76,120
2913,A4,658.0,2.375,54,120
2914,A5,658.0,2.375,54,120
2915,B1,659.0,0.375,76,120
2916,A3,659.0,0.875,54,120
2917,A4,659.0,0.875,54,120
2918,F#2,659.483,0.125,70,120
2919,B1,659.483,0.125,70,120
2920,A3,660.0,1.375,54,120
2921,A4,660.0,1.375,54,120
2922,E2,660.483,0.125,101,120
2923,C#2,660.483,0.125,101,120
2924,A1,660.483,0.125,101,120
2925,A1,660.5,0.875,76,120
2926,A4,660.5,1.0,64,120
2927,A4,660.5,1.875,54,120
2928,A5,660.5,1.875,54,120
2929,F#2,661.483,0.125,64,120
2930,A1,661.5,0.25,76,120
2931,F#4,661.5,1.0,64,120
2932,A3,661.5,0.875,54,120
2933,A4,661.5,0.875,54,120
2934,G1,662.5,0.5,76,120
2935,A3,662.5,0.875,54,120
2936,A4,662.5,0.875,54,120
2937,G4,662.5,5.875,64,120
2938,G4,662.5,5.875,64,120
2939,F#2,663.483,0.125,70,120
2940,G1,663.483,0.125,70,120
2941,D4,663.5,2.375,54,120
2942,D5,663.5,2.375,54,120
2943,G1,664.0,0.875,61,120
2944,G4,664.0,0.875,61,120
2945,G5,664.0,0.875,61,120
2946,G1,665.0,1.375,76,120
2947,F#4,665.0,0.875,54,120
2948,F#5,665.0,0.875,54,120
2949,F#2,665.483,0.125,64,120
2950,D4,666.0,0.875,54,120
2951,D5,666.0,0.875,54,120
2952,E2,666.483,0.125,101,120
2953,C#2,666.483,0.125,101,120
2954,A1,666.483,0.125,101,120
2955,G1,666.5,1.875,76,120
2956,E4,667.0,0.875,54,120
2957,E5,667.0,0.875,54,120
2958,F#2,667.483,0.125,64,120
2959,D4,668.0,0.5,54,120
2960,D5,668.0,0.5,54,120
2961,F#1,668.5,0.5,76,120
2962,A3,668.5,2.375,54,120
2963,A4,668.5,2.375,54,120
2964,F#4,668.5,5.875,64,120
2965,F#4,668.5,5.875,64,120
2966,D4,668.5,0.875,54,120
2967,D5,668.5,0.875,54,120
2968,F#2,669.483,0.125,70,120
2969,F#1,669.483,0.125,70,120
2970,E4,669.5,0.375,54,120
2971,E5,669.5,0.375,54,120
2972,F#1,670.0,0.875,76,120
2973,D4,670.0,1.875,54,120
2974,D5,670.0,1.875,54,120
2975,F#1,671.0,1.375,76,120
2976,A3,671.0,2.875,54,120
2977,A4,671.0,2.875,54,120
2978,F#2,671.483,0.125,64,120
2979,D4,672.0,0.875,54,120
2980,D5,672.0,0.875,54,120
2981,E2,672.483,0.125,101,120
2982,C#2,672.483,0.125,101,120
2983,A1,672.483,0.125,101,120
2984,F#1,672.5,1.875,76,120
2985,D4,673.0,1.375,54,120
2986,D5,673.0,1.375,54,120
2987,F#2,673.483,0.125,64,120
2988,A3,674.0,0.5,54,120
2989,A4,674.0,0.5,54,120
2990,A1,674.5,0.5,76,120
2991,A4,674.5,5.875,64,120
2992,A5,674.5,1.0,64,120
2993,A3,674.5,0.375,54,120
2994,A4,674.5,0.375,54,120
2995,A3,675.0,1.875,54,120
2996,A4,675.0,1.875,54,120
2997,F#2,675.483,0.125,70,120
2998,A1,675.483,0.125,70,120
2999,G5,675.5,0.5,64,120
3000,A1,676.0,0.875,76,120
3001,A5,676.0,1.0,64,120
3002,A4,676.0,2.375,54,120
3003,A5,676.0,2.375,54,120
3004,A1,677.0,1.375,76,120
3005,G5,677.0,0.5,64,120
3006,A3,677.0,0.875,54,120
3007,A4,677.0,0.875,54,120
3008,F#2,677.483,0.125,64,120
3009,E5,677.5,1.0,64,120
3010,A3,678.0,1.375,54,120
3011,A4,678.0,1.375,54,120
3012,E2,678.483,0.125,101,120
3013,C#2,678.483,0.125,101,120
3014,A1,678.483,0.125,101,120
3015,A1,678.5,1.875,76,120
3016,D5,678.5,1.0,64,120
3017,A4,678.5,2.0,54,120
3018,A5,678.5,2.0,54,120
3019,F#2,679.483,0.125,64,120
3020,C#5,679.5,1.0,64,120
3021,A3,679.5,0.875,54,120
3022,A4,679.5,0.875,54,120
3023,A4,680.5,5.875,64,120
3024,A4,680.5,1.0,64,120
3025,A1,680.5,0.375,61,120
3026,A3,680.5,0.375,61,120
3027,A4,680.5,0.375,61,120
3028,A4,680.5,1.375,54,120
3029,A5,680.5,1.375,54,120
3030,A1,681.0,0.375,76,120
3031,A3,681.0,1.875,54,120
3032,A4,681.0,1.875,54,120
3033,F#2,681.483,0.125,64,120
3034,A1,681.5,0.375,76,120
3035,G4,681.5,0.5,64,120
3036,A1,682.0,0.75,76,120
3037,A4,682.0,3.5,64,120
3038,A4,682.0,2.375,54,120
3039,A5,682.0,2.375,54,120
3040,A1,683.0,0.375,76,120
3041,A3,683.0,0.875,54,120
3042,A4,683.0,0.875,54,120
3043,F#2,683.483,0.125,64,120
3044,G1,683.5,0.875,76,120
3045,A3,684.0,1.375,54,120
3046,A4,684.0,1.375,54,120
3047,E2,684.483,0.125,101,120
3048,C#2,684.483,0.125,101,120
3049,A1,684.483,0.125,101,120
3050,F#1,684.5,0.875,76,120
3051,A4,684.5,1.875,54,120
3052,A5,684.5,1.875,54,120
3053,F#2,685.483,0.125,64,120
3054,C#5,685.5,0.5,64,120
3055,F#1,685.5,0.875,61,120
3056,A3,685.5,0.875,61,120
3057,A4,685.5,0.875,61,120
3058,D5,686.0,0.5,64,120
3059,G1,686.483,17/1000,68,120
3060,C#5,686.483,17/1000,68,120
3061,E5,686.483,17/1000,68,120
3062,G4,686.5,5.875,64,120
3063,G3,686.5,5.875,64,120
3064,G1,686.5,483/1000,68,120
3065,C#5,686.5,483/1000,68,120
3066,E5,686.5,483/1000,68,120
3067,G1,686.983,0.125,67,120
3068,D5,686.983,0.125,67,120
3069,D5,686.983,0.125,67,120
3070,F#2,687.483,0.125,66,120
3071,G1,687.483,0.125,66,120
3072,D5,687.483,0.125,66,120
3073,D5,687.483,0.125,66,120
3074,D4,687.5,2.375,54,120
3075,D5,687.5,2.375,54,120
3076,G1,687.983,0.5,76,120
3077,G4,688.0,0.875,54,120
3078,G5,688.0,0.875,54,120
3079,D5,688.0,0.125,61,120
3080,D5,688.0,0.125,61,120
3081,G1,688.483,0.125,65,120
3082,D5,688.483,0.125,65,120
3083,D5,688.483,0.125,65,120
3084,G1,688.983,0.125,64,120
3085,D5,688.983,0.125,64,120
3086,D5,688.983,0.125,64,120
3087,F#4,689.0,0.875,54,120
3088,F#5,689.0,0.875,54,120
3089,F#2,689.483,0.125,64,120
3090,G1,689.483,0.875,76,120
3091,C#5,689.5,0.5,57,120
3092,C#5,689.5,0.5,57,120
3093,D4,690.0,0.875,54,120
3094,D5,690.0,0.875,54,120
3095,D5,690.0,0.125,56,120
3096,D5,690.0,0.125,56,120
3097,G1,690.483,0.875,76,120
3098,E2,690.483,0.125,82,120
3099,C#2,690.483,0.125,82,120
3100,A1,690.483,0.125,82,120
3101,D5,690.483,0.125,82,120
3102,D5,690.483,0.125,82,120
3103,E4,691.0,0.875,54,120
3104,E5,691.0,0.875,54,120
3105,D5,691.0,0.125,53,120
3106,D5,691.0,0.125,53,120
3107,G1,691.483,0.875,76,120
3108,F#2,691.483,0.125,56,120
3109,D5,691.483,0.125,56,120
3110,D5,691.483,0.125,56,120
3111,D4,692.0,0.5,54,120
3112,D5,692.0,0.5,54,120
3113,D5,692.0,0.125,51,120
3114,D5,692.0,0.125,51,120
3115,A1,692.483,17/1000,68,120
3116,C#5,692.483,17/1000,68,120
3117,C#5,692.483,17/1000,68,120
3118,A3,692.5,2.375,54,120
3119,A4,692.5,2.375,54,120
3120,A4,692.5,5.875,64,120
3121,A3,692.5,5.875,64,120
3122,A1,692.5,483/1000,68,120
3123,C#5,692.5,483/1000,68,120
3124,C#5,692.5,483/1000,68,120
3125,D4,692.5,0.875,54,120
3126,D5,692.5,0.875,54,120
3127,A1,692.983,0.125,67,120
3128,D5,692.983,0.125,67,120
3129,D5,692.983,0.125,67,120
3130,F#2,693.483,0.125,66,120
3131,A1,693.483,0.125,66,120
3132,D5,693.483,0.125,66,120
3133,D5,693.483,0.125,66,120
3134,E4,693.5,0.375,54,120
3135,E5,693.5,0.375,54,120
3136,A1,693.983,0.5,76,120
3137,D4,694.0,1.875,54,120
3138,D5,694.0,1.875,54,120
3139,D5,694.0,0.125,61,120
3140,D5,694.0,0.125,61,120
3141,A1,694.483,0.125,65,120
3142,D5,694.483,0.125,65,120
3143,D5,694.483,0.125,65,120
3144,A1,694.983,0.125,64,120
3145,D5,694.983,0.125,64,120
3146,D5,694.983,0.125,64,120
3147,A3,695.0,2.875,54,120
3148,A4,695.0,2.875,54,120
3149,F#2,695.483,0.125,64,120
3150,A1,695.483,0.875,76,120
3151,C#5,695.5,0.5,57,120
3152,C#5,695.5,0.5,57,120
3153,D4,696.0,0.875,54,120
3154,D5,696.0,0.875,54,120
3155,D5,696.0,0.125,56,120
3156,D5,696.0,0.125,56,120
3157,A1,696.483,0.875,76,120
3158,E2,696.483,0.125,82,120
3159,C#2,696.483,0.125,82,120
3160,A1,696.483,0.125,82,120
3161,D5,696.483,0.125,82,120
3162,D5,696.483,0.125,82,120
3163,D4,697.0,1.375,54,120
3164,D5,697.0,1.375,54,120
3165,D5,697.0,0.125,53,120
3166,D5,697.0,0.125,53,120
3167,A1,697.483,0.875,76,120
3168,F#2,697.483,0.125,56,120
3169,D5,697.483,0.125,56,120
3170,D5,697.483,0.125,56,120
3171,A3,698.0,0.5,54,120
3172,A4,698.0,0.5,54,120
3173,D5,698.0,0.125,51,120
3174,D5,698.0,0.125,51,120
3175,B1,698.483,17/1000,68,120
3176,C#5,698.483,17/1000,68,120
3177,C#5,698.483,17/1000,68,120
3178,D4,698.5,6.0,64,120
3179,A5,698.5,6.0,64,120
3180,B1,698.5,483/1000,68,120
3181,C#5,698.5,483/1000,68,120
3182,C#5,698.5,483/1000,68,120
3183,A3,698.5,0.375,54,120
3184,A4,698.5,0.375,54,120
3185,B1,698.983,0.125,67,120
3186,D5,698.983,0.125,67,120
3187,D5,698.983,0.125,67,120
3188,A3,699.0,1.875,54,120
3189,A4,699.0,1.875,54,120
3190,F#2,699.483,0.125,66,120
3191,B1,699.483,0.125,66,120
3192,D5,699.483,0.125,66,120
3193,D5,699.483,0.125,66,120
3194,B1,699.983,0.5,76,120
3195,A4,700.0,2.375,54,120
3196,A5,700.0,2.375,54,120
3197,D5,700.0,0.125,61,120
3198,D5,700.0,0.125,61,120
3199,B1,700.483,0.125,65,120
3200,D5,700.483,0.125,65,120
3201,D5,700.483,0.125,65,120
3202,B1,700.983,0.125,64,120
3203,D5,700.983,0.125,64,120
3204,D5,700.983,0.125,64,120
3205,A3,701.0,0.875,54,120
3206,A4,701.0,0.875,54,120
3207,F#2,701.483,0.125,64,120
3208,B1,701.483,0.875,76,120
3209,C#5,701.5,0.5,57,120
3210,C#5,701.5,0.5,57,120
3211,A3,702.0,1.375,54,120
3212,A4,702.0,1.375,54,120
3213,D5,702.0,0.125,56,120
3214,D5,702.0,0.125,56,120
3215,B1,702.483,0.875,76,120
3216,E2,702.483,0.125,82,120
3217,C#2,702.483,0.125,82,120
3218,A1,702.483,0.125,82,120
3219,D5,702.483,0.125,82,120
3220,D5,702.483,0.125,82,120
3221,A4,702.5,2.0,54,120
3222,A5,702.5,2.0,54,120
3223,D5,703.0,0.125,53,120
3224,D5,703.0,0.125,53,120
3225,F#2,703.483,0.125,56,120
3226,D5,703.483,0.125,56,120
3227,D5,703.483,0.125,56,120
3228,B1,703.483,0.875,61,120
3229,A3,703.483,0.875,61,120
3230,A4,703.483,0.875,61,120
3231,D5,704.0,0.125,51,120
3232,D5,704.0,0.125,51,120
3233,B1,704.483,17/1000,58,120
3234,C#5,704.483,17/1000,58,120
3235,C#5,704.483,17/1000,58,120
3236,A3,710.375,0.375,54,120
3237,A4,710.375,0.375,54,120
3238,D4,710.375,5.875,64,120
3239,A5,710.375,5.875,64,120
3240,B1,710.375,483/1000,58,120
3241,C#5,710.375,483/1000,58,120
3242,C#5,710.375,483/1000,58,120
3243,A4,710.375,1.375,54,120
3244,A5,710.375,1.375,54,120
3245,B1,710.858,0.125,57,120
3246,D5,710.858,0.125,57,120
3247,D5,710.858,0.125,57,120
3248,A3,710.875,1.875,54,120
3249,A4,710.875,1.875,54,120
3250,F#2,711.358,0.125,58,120
3251,B1,711.358,0.125,58,120
3252,D5,711.358,0.125,58,120
3253,D5,711.358,0.125,58,120
3254,B1,711.858,0.5,76,120
3255,A4,711.875,2.375,54,120
3256,A5,711.875,2.375,54,120
3257,D5,711.875,0.125,46,120
3258,D5,711.875,0.125,46,120
3259,B1,712.358,0.125,55,120
3260,D5,712.358,0.125,55,120
3261,D5,712.358,0.125,55,120
3262,B1,712.858,0.125,54,120
3263,D5,712.858,0.125,54,120
3264,D5,712.858,0.125,54,120
3265,A3,712.875,0.875,54,120
3266,A4,712.875,0.875,54,120
3267,F#2,713.358,0.125,64,120
3268,F#1,713.358,0.875,76,120
3269,C#5,713.375,0.5,42,120
3270,C#5,713.375,0.5,42,120
3271,A3,713.875,1.375,54,120
3272,A4,713.875,1.375,54,120
3273,D5,713.875,0.125,41,120
3274,D5,713.875,0.125,41,120
3275,F#1,714.358,0.875,76,120
3276,E2,714.358,0.125,76,120
3277,C#2,714.358,0.125,76,120
3278,A1,714.358,0.125,76,120
3279,D5,714.358,0.125,76,120
3280,D5,714.358,0.125,76,120
3281,A4,714.375,1.875,54,120
3282,A5,714.375,1.875,54,120
3283,D5,714.875,0.125,38,120
3284,D5,714.875,0.125,38,120
3285,F#2,715.358,0.125,46,120
3286,D5,715.358,0.125,46,120
3287,D5,715.358,0.125,46,120
3288,F#1,715.358,0.875,61,120
3289,A3,715.358,0.875,61,120
3290,A4,715.358,0.875,61,120
3291,D5,715.875,0.125,36,120
3292,D5,715.875,0.125,36,120
3293,G1,716.358,17/1000,48,120
3294,C#5,716.358,17/1000,48,120
3295,C#5,716.358,17/1000,48,120
3296,A3,716.375,0.875,54,120
3297,A4,716.375,0.875,54,120
3298,G3,716.375,5.875,64,120
3299,G3,716.375,5.875,64,120
3300,G1,716.375,483/1000,48,120
3301,C#5,716.375,483/1000,48,120
3302,C#5,716.375,483/1000,48,120
3303,G1,716.858,0.125,47,120
3304,D5,716.858,0.125,47,120
3305,D5,716.858,0.125,47,120
3306,F#2,717.358,0.125,51,120
3307,G1,717.358,0.125,51,120
3308,D5,717.358,0.125,51,120
3309,D5,717.358,0.125,51,120
3310,D4,717.375,2.375,54,120
3311,D5,717.375,2.375,54,120
3312,G1,717.858,0.5,76,120
3313,G4,717.875,0.875,54,120
3314,G5,717.875,0.875,54,120
3315,D5,717.875,0.125,31,120
3316,D5,717.875,0.125,31,120
3317,G1,718.358,0.125,45,120
3318,D5,718.358,0.125,45,120
3319,D5,718.358,0.125,45,120
3320,G1,718.858,0.125,44,120
3321,D5,718.858,0.125,44,120
3322,D5,718.858,0.125,44,120
3323,F#4,718.875,0.875,54,120
3324,F#5,718.875,0.875,54,120
3325,F#2,719.358,0.125,64,120
3326,G1,719.358,0.875,76,120
3327,C#5,719.375,0.5,27,120
3328,C#5,719.375,0.5,27,120
3329,D4,719.875,0.875,54,120
3330,D5,719.875,0.875,54,120
3331,D5,719.875,0.125,26,120
3332,D5,719.875,0.125,26,120
3333,G1,720.358,0.875,76,120
3334,E2,720.358,0.125,70,120
3335,C#2,720.358,0.125,70,120
3336,A1,720.358,0.125,70,120
3337,D5,720.358,0.125,70,120
3338,D5,720.358,0.125,70,120
3339,E4,720.875,0.875,54,120
3340,E5,720.875,0.875,54,120
3341,D5,720.875,0.125,23,120
3342,D5,720.875,0.125,23,120
3343,G1,721.358,0.875,76,120
3344,F#2,721.358,0.125,36,120
3345,D5,721.358,0.125,36,120
3346,D5,721.358,0.125,36,120
3347,D4,721.875,0.5,54,120
3348,D5,721.875,0.5,54,120
3349,D5,721.875,0.125,21,120
3350,D5,721.875,0.125,21,120
3351,A1,722.358,17/1000,38,120
3352,C#5,722.358,17/1000,38,120
3353,C#5,722.358,17/1000,38,120
3354,A3,722.375,2.375,54,120
3355,A4,722.375,2.375,54,120
3356,A3,722.375,5.875,64,120
3357,A3,722.375,5.875,64,120
3358,D4,722.375,0.875,54,120
3359,D5,722.375,0.875,54,120
3360,A1,722.375,483/1000,38,120
3361,C#5,722.375,483/1000,38,120
3362,C#5,722.375,483/1000,38,120
3363,A1,722.858,0.125,37,120
3364,D5,722.858,0.125,37,120
3365,D5,722.858,0.125,37,120
3366,F#2,723.358,0.125,44,120
3367,A1,723.358,0.125,44,120
3368,D5,723.358,0.125,44,120
3369,D5,723.358,0.125,44,120
3370,E4,723.375,0.375,54,120
3371,E5,723.375,0.375,54,120
3372,A1,723.858,0.5,76,120
3373,D4,723.875,1.875,54,120
3374,D5,723.875,1.875,54,120
3375,D5,723.875,0.125,16,120
3376,D5,723.875,0.125,16,120
3377,A1,724.358,0.125,35,120
3378,D5,724.358,0.125,35,120
3379,D5,724.358,0.125,35,120
3380,A1,724.858,0.125,34,120
3381,D5,724.858,0.125,34,120
3382,D5,724.858,0.125,34,120
3383,A3,724.875,2.875,54,120
3384,A4,724.875,2.875,54,120
3385,F#2,725.358,0.125,64,120
3386,A1,725.358,0.875,76,120
3387,C#5,725.375,0.5,29,120
3388,C#5,725.375,0.5,29,120
3389,A3,725.375,0.5,29,120
3390,D4,725.875,0.5,64,120
3391,D4,725.875,0.875,54,120
3392,D5,725.875,0.875,54,120
3393,D5,725.875,0.125,11,120
3394,D5,725.875,0.125,11,120
3395,A1,726.358,0.875,76,120
3396,E2,726.358,0.125,64,120
3397,C#2,726.358,0.125,64,120
3398,A1,726.358,0.125,64,120
3399,D5,726.358,0.125,64,120
3400,D5,726.358,0.125,64,120
3401,D4,726.375,1.875,64,120
3402,A4,726.375,0.5,64,120
3403,D5,726.875,0.5,64,120
3404,D4,726.875,1.375,54,120
3405,D5,726.875,1.375,54,120
3406,D5,726.875,0.125,8,120
3407,D5,726.875,0.125,8,120
3408,A1,727.358,0.875,76,120
3409,F#2,727.358,0.125,26,120
3410,D5,727.358,0.125,26,120
3411,D5,727.358,0.125,26,120
3412,E5,727.375,0.5,64,120
3413,A5,727.875,0.5,64,120
3414,D5,727.875,0.125,6,120
3415,D5,727.875,0.125,6,120
3416,A4,727.875,0.375,54,120
3417,A3,727.875,0.375,54,120
3418,B-6,728.375,6.0,29,120
3419,B-1,728.375,3.875,61,120
3420,B-2,728.375,3.875,61,120
3421,B-4,728.375,3.875,61,120
3422,C#3,728.375,0.125,64,120
3423,E3,728.375,0.125,64,120
3424,G3,728.375,0.125,64,120
3425,A3,728.375,0.125,64,120
3426,B3,728.375,0.125,64,120
3427,F3,728.375,0.125,64,120
3428,E-3,728.375,0.125,64,120
3429,B-2,728.375,0.125,64,120
3430,B-4,728.375,0.375,64,120
3431,B-3,728.375,0.375,64,120
3432,F#2,729.358,0.125,64,120
3433,B-3,729.375,0.25,48,120
3434,B-4,729.375,0.25,48,120
3435,B3,729.875,0.125,64,120
3436,D4,729.875,0.25,48,120
3437,D5,729.875,0.25,48,120
3438,D5,729.875,0.625,64,120
3439,D4,729.875,0.625,64,120
3440,C4,730.875,0.75,48,120
3441,C5,730.875,0.75,48,120
3442,C5,730.875,1.625,64,120
3443,C4,730.875,1.625,64,120
3444,F#2,731.358,0.125,64,120
3445,B3,731.358,0.125,64,120
3446,E2,732.358,0.125,101,120
3447,C#2,732.358,0.125,101,120
3448,A1,732.358,0.125,101,120
3449,G#1,732.375,2.0,61,120
3450,G#2,732.375,2.0,61,120
3451,G#4,732.375,2.0,61,120
3452,B3,732.875,0.125,64,120
3453,D4,732.875,0.25,48,120
3454,D5,732.875,0.25,48,120
3455,D5,732.875,0.625,64,120
3456,D4,732.875,0.625,64,120
3457,F#2,733.358,0.125,64,120
3458,C4,733.875,0.5,48,120
3459,C5,733.875,0.5,48,120
3460,C5,733.875,0.5,64,120
3461,C4,733.875,0.5,64,120
3462,B-6,734.375,18.0,29,120
3463,F1,734.375,1.5,61,120
3464,F2,734.375,1.5,61,120
3465,F4,734.375,1.5,61,120
3466,C#3,734.375,0.125,64,120
3467,B3,734.375,0.125,64,120
3468,C4,734.375,0.25,48,120
3469,C5,734.375,0.25,48,120
3470,C5,734.375,1.125,64,120
3471,C4,734.375,1.125,64,120
3472,F#2,735.358,0.125,64,120
3473,B3,735.875,0.125,64,120
3474,F1,735.875,2.5,61,120
3475,F2,735.875,2.5,61,120
3476,F4,735.875,2.5,61,120
3477,D4,735.875,0.25,48,120
3478,D5,735.875,0.25,48,120
3479,D5,735.875,0.625,64,120
3480,D4,735.875,0.625,64,120
3481,C4,736.875,0.75,48,120
3482,C5,736.875,0.75,48,120
3483,C5,736.875,1.625,64,120
3484,C4,736.875,1.625,64,120
3485,F#2,737.358,0.125,64,120
3486,B3,737.358,0.125,64,120
3487,E2,738.358,0.125,101,120
3488,C#2,738.358,0.125,101,120
3489,A1,738.358,0.125,101,120
3490,G#1,738.375,2.0,61,120
3491,G#2,738.375,2.0,61,120
3492,G#4,738.375,2.0,61,120
3493,B3,738.875,0.125,64,120
3494,D4,738.875,0.25,48,120
3495,D5,738.875,0.25,48,120
3496,D5,738.875,0.625,64,120
3497,D4,738.875,0.625,64,120
3498,F#2,739.358,0.125,64,120
3499,C4,739.875,0.5,48,120
3500,C5,739.875,0.5,48,120
3501,C5,739.875,0.5,64,120
3502,C4,739.875,0.5,64,120
3503,B3,752.375,0.125,64,120
3504,B-1,752.375,1.5,61,120
3505,B-2,752.375,1.5,61,120
3506,B-4,752.375,1.5,61,120
3507,C4,752.375,0.25,48,120
3508,C5,752.375,0.25,48,120
3509,C5,752.375,1.125,64,120
3510,C4,752.375,1.125,64,120
3511,F#2,753.358,0.125,64,120
3512,B-3,753.375,0.25,48,120
3513,B-4,753.375,0.25,48,120
3514,B3,753.875,0.125,64,120
3515,B-1,753.875,2.5,61,120
3516,B-2,753.875,2.5,61,120
3517,B-4,753.875,2.5,61,120
3518,D4,753.875,0.25,48,120
3519,D5,753.875,0.25,48,120
3520,D5,753.875,0.625,64,120
3521,D4,753.875,0.625,64,120
3522,C4,754.875,0.75,48,120
3523,C5,754.875,0.75,48,120
3524,C5,754.875,1.625,64,120
3525,C4,754.875,1.625,64,120
3526,F#2,755.358,0.125,64,120
3527,B3,755.358,0.125,64,120
3528,E2,756.358,0.125,101,120
3529,C#2,756.358,0.125,101,120
3530,A1,756.358,0.125,101,120
3531,G#1,756.375,2.0,61,120
3532,G#2,756.375,2.0,61,120
3533,G#4,756.375,2.0,61,120
3534,B3,756.875,0.125,64,120
3535,D4,756.875,0.25,48,120
3536,D5,756.875,0.25,48,120
3537,D5,756.875,0.625,64,120
3538,D4,756.875,0.625,64,120
3539,F#2,757.358,0.125,64,120
3540,C4,757.875,0.5,48,120
3541,C5,757.875,0.5,48,120
3542,C5,757.875,0.5,64,120
3543,C4,757.875,0.5,64,120
3544,B3,758.375,0.125,64,120
3545,F1,758.375,1.5,61,120
3546,F2,758.375,1.5,61,120
3547,F4,758.375,1.5,61,120
3548,C4,758.375,0.25,48,120
3549,C5,758.375,0.25,48,120
3550,C5,758.375,1.125,64,120
3551,C4,758.375,1.125,64,120
3552,F#2,759.358,0.125,64,120
3553,B3,759.875,0.125,64,120
3554,F1,759.875,2.5,61,120
3555,F2,759.875,2.5,61,120
3556,F4,759.875,2.5,61,120
3557,D4,759.875,0.25,48,120
3558,D5,759.875,0.25,48,120
3559,D5,759.875,0.625,64,120
3560,D4,759.875,0.625,64,120
3561,C4,760.875,0.75,48,120
3562,C5,760.875,0.75,48,120
3563,C5,760.875,1.625,64,120
3564,C4,760.875,1.625,64,120
3565,F#2,761.358,0.125,64,120
3566,B3,761.358,0.125,64,120
3567,E2,762.358,0.125,101,120
3568,C#2,762.358,0.125,101,120
3569,A1,762.358,0.125,101,120
3570,G#1,762.375,2.0,61,120
3571,G#2,762.375,2.0,61,120
3572,G#4,762.375,2.0,61,120
3573,E-4,762.375,0.25,48,120
3574,E-5,762.375,0.25,48,120
3575,B3,762.875,0.125,64,120
3576,D4,762.875,0.25,48,120
3577,D5,762.875,0.25,48,120
3578,D5,762.875,0.625,64,120
3579,D4,762.875,0.625,64,120
3580,F#2,763.358,0.125,64,120
3581,C4,763.875,0.5,48,120
3582,C5,763.875,0.5,48,120
3583,C5,763.875,0.5,64,120
3584,C4,763.875,0.5,64,120
3585,B3,764.375,0.125,64,120
3586,B-6,764.375,6.0,84,120
3587,B-1,764.375,1.5,61,120
3588,B-2,764.375,1.5,61,120
3589,B-4,764.375,1.5,61,120
3590,C4,764.375,0.25,48,120
3591,C5,764.375,0.25,48,120
3592,C5,764.375,1.125,64,120
3593,C4,764.375,1.125,64,120
3594,F#2,765.358,0.125,64,120
3595,B-3,765.375,0.25,48,120
3596,B-4,765.375,0.25,48,120
3597,B3,765.875,0.125,64,120
3598,B-1,765.875,2.5,61,120
3599,B-2,765.875,2.5,61,120
3600,B-4,765.875,2.5,61,120
3601,D4,765.875,0.25,48,120
3602,D5,765.875,0.25,48,120
3603,D5,765.875,0.625,64,120
3604,D4,765.875,0.625,64,120
3605,C4,766.875,0.75,48,120
3606,C5,766.875,0.75,48,120
3607,C5,766.875,1.625,64,120
3608,C4,766.875,1.625,64,120
3609,F#2,767.358,0.125,64,120
3610,B3,767.358,0.125,64,120
3611,E2,768.358,0.125,101,120
3612,C#2,768.358,0.125,101,120
3613,A1,768.358,0.125,101,120
3614,G#1,768.375,2.0,61,120
3615,G#2,768.375,2.0,61,120
3616,G#4,768.375,2.0,61,120
3617,B3,768.875,0.125,64,120
3618,D4,768.875,0.25,48,120
3619,D5,768.875,0.25,48,120
3620,D5,768.875,0.625,64,120
3621,D4,768.875,0.625,64,120
3622,F#2,769.358,0.125,64,120
3623,C4,769.875,0.5,48,120
3624,C5,769.875,0.5,48,120
3625,C5,769.875,0.5,64,120
3626,C4,769.875,0.5,64,120
3627,B3,770.375,0.125,64,120
3628,B-6,770.375,4.0,84,120
3629,F1,770.375,1.5,61,120
3630,F2,770.375,1.5,61,120
3631,F4,770.375,1.5,61,120
3632,C4,770.375,0.25,48,120
3633,C5,770.375,0.25,48,120
3634,C5,770.375,1.125,64,120
3635,C4,770.375,1.125,64,120
3636,F#2,771.358,0.125,64,120
3637,B3,771.875,0.125,64,120
3638,F1,771.875,2.5,61,120
3639,F2,771.875,2.5,61,120
3640,F4,771.875,2.5,61,120
3641,D4,771.875,0.25,48,120
3642,D5,771.875,0.25,48,120
3643,D5,771.875,0.625,64,120
3644,D4,771.875,0.625,64,120
3645,C4,772.875,0.75,48,120
3646,C5,772.875,0.75,48,120
3647,C5,772.875,1.625,64,120
3648,C4,772.875,1.625,64,120
3649,F#2,773.358,0.125,64,120
3650,B3,773.358,0.125,64,120
3651,E2,774.358,0.125,97,120
3652,C#2,774.358,0.125,97,120
3653,A1,774.358,0.125,97,120
3654,B6,774.358,0.125,97,120
3655,G#1,774.375,2.0,61,120
3656,G#2,774.375,2.0,61,120
3657,G#4,774.375,2.0,61,120
3658,C7,774.5,1.875,84,120
3659,B3,774.875,0.125,64,120
3660,D4,774.875,0.25,48,120
3661,D5,774.875,0.25,48,120
3662,D5,774.875,0.625,64,120
3663,D4,774.875,0.625,64,120
3664,F#2,775.358,0.125,64,120
3665,C4,775.875,0.5,48,120
3666,C5,775.875,0.5,48,120
3667,C5,775.875,0.5,64,120
3668,C4,775.875,0.5,64,120
3669,B-1,776.375,1.5,61,120
3670,B-2,776.375,1.5,61,120
3671,B-4,776.375,1.5,61,120
3672,B3,776.375,0.125,74,120
3673,B-6,776.375,0.125,74,120
3674,C4,776.375,0.25,48,120
3675,C5,776.375,0.25,48,120
3676,C5,776.375,1.125,64,120
3677,C4,776.375,1.125,64,120
3678,G#6,776.5,5.875,84,120
3679,F#2,777.358,0.125,64,120
3680,B-3,777.375,0.25,48,120
3681,B-4,777.375,0.25,48,120
3682,B3,777.875,0.125,64,120
3683,B-1,777.875,2.5,61,120
3684,B-2,777.875,2.5,61,120
3685,B-4,777.875,2.5,61,120
3686,D4,777.875,0.25,48,120
3687,D5,777.875,0.25,48,120
3688,D5,777.875,0.625,64,120
3689,D4,777.875,0.625,64,120
3690,C4,778.875,0.75,48,120
3691,C5,778.875,0.75,48,120
3692,C5,778.875,1.625,64,120
3693,C4,778.875,1.625,64,120
3694,F#2,779.358,0.125,64,120
3695,B3,779.358,0.125,64,120
3696,E2,780.358,0.125,101,120
3697,C#2,780.358,0.125,101,120
3698,A1,780.358,0.125,101,120
3699,G#1,780.375,2.0,61,120
3700,G#2,780.375,2.0,61,120
3701,G#4,780.375,2.0,61,120
3702,B3,780.875,0.125,64,120
3703,D4,780.875,0.25,48,120
3704,D5,780.875,0.25,48,120
3705,D5,780.875,0.625,64,120
3706,D4,780.875,0.625,64,120
3707,F#2,781.358,0.125,64,120
3708,C4,781.875,0.5,48,120
3709,C5,781.875,0.5,48,120
3710,C5,781.875,0.5,64,120
3711,C4,781.875,0.5,64,120
3712,B3,782.375,0.125,64,120
3713,G#6,782.375,3.875,84,120
3714,F1,782.375,1.5,61,120
3715,F2,782.375,1.5,61,120
3716,F4,782.375,1.5,61,120
3717,C4,782.375,0.25,48,120
3718,C5,782.375,0.25,48,120
3719,C5,782.375,1.125,64,120
3720,C4,782.375,1.125,64,120
3721,F#2,783.358,0.125,64,120
3722,B3,783.875,0.125,64,120
3723,F1,783.875,2.5,61,120
3724,F2,783.875,2.5,61,120
3725,F4,783.875,2.5,61,120
3726,D4,783.875,0.25,48,120
3727,D5,783.875,0.25,48,120
3728,D5,783.875,0.625,64,120
3729,D4,783.875,0.625,64,120
3730,C4,784.875,0.75,48,120
3731,C5,784.875,0.75,48,120
3732,C5,784.875,1.625,64,120
3733,C4,784.875,1.625,64,120
3734,F#2,785.358,0.125,64,120
3735,B3,785.358,0.125,64,120
3736,E2,786.358,0.125,101,120
3737,C#2,786.358,0.125,101,120
3738,A1,786.358,0.125,101,120
3739,G#1,786.375,2.0,61,120
3740,G#2,786.375,2.0,61,120
3741,G#4,786.375,2.0,61,120
3742,E-4,786.375,0.25,59,120
3743,E-5,786.375,0.25,59,120
3744,F6,786.375,0.25,59,120
3745,D6,786.625,0.25,72,120
3746,B3,786.875,0.125,64,120
3747,D4,786.875,0.25,53,120
3748,D5,786.875,0.25,53,120
3749,C6,786.875,0.25,53,120
3750,D5,786.875,0.625,64,120
3751,D4,786.875,0.625,64,120
3752,B-5,787.125,0.25,56,120
3753,F#2,787.358,0.125,64,120
3754,G#5,787.375,0.25,47,120
3755,F5,787.625,0.25,39,120
3756,C4,787.875,0.5,64,120
3757,D5,787.875,0.25,31,120
3758,C5,787.875,0.5,32,120
3759,C5,787.875,0.5,64,120
3760,C4,787.875,0.5,64,120
3761,C5,788.125,0.25,22,120
3762,D2,788.375,0.5,76,120
3763,C4,788.375,0.25,64,120
3764,C#3,788.375,0.125,64,120
3765,E3,788.375,0.125,64,120
3766,C5,788.375,1.125,64,120
3767,C4,788.375,1.125,64,120
3768,D2,788.875,0.125,76,120
3769,F#2,789.358,0.125,70,120
3770,D2,789.358,0.125,70,120
3771,F#4,789.375,1.375,64,120
3772,D2,789.875,0.5,76,120
3773,F#5,789.875,1.375,64,120
3774,F#5,789.875,1.375,64,120
3775,D2,790.375,0.125,76,120
3776,D2,790.875,0.125,76,120
3777,F#4,790.875,1.375,64,120
3778,F#2,791.358,0.125,70,120
3779,D2,791.358,0.125,70,120
3780,F#5,791.375,1.375,64,120
3781,F#5,791.375,1.375,64,120
3782,D2,791.875,0.125,76,120
3783,E2,792.358,0.125,95,120
3784,C#2,792.358,0.125,95,120
3785,A1,792.358,0.125,95,120
3786,E2,792.358,0.125,95,120
3787,F#4,792.375,1.375,64,120
3788,E2,792.875,0.375,76,120
3789,E4,792.875,1.5,40,120
3790,E5,792.875,1.375,64,120
3791,E5,792.875,1.375,64,120
3792,F#2,793.358,0.125,70,120
3793,E2,793.358,0.125,70,120
3794,E2,793.875,0.125,76,120
3795,F#4,793.875,0.5,64,120
3796,B1,794.375,0.5,76,120
3797,E5,794.375,1.875,64,120
3798,E5,794.375,1.375,64,120
3799,F#4,794.375,0.875,64,120
3800,E4,794.375,1.5,40,120
3801,B1,794.875,0.125,76,120
3802,F#2,795.358,0.125,70,120
3803,B1,795.358,0.125,70,120
3804,F#4,795.375,0.375,64,120
3805,B1,795.875,0.5,76,120
3806,F#4,795.875,1.875,64,120
3807,D5,795.875,1.375,64,120
3808,D4,795.875,3.0,40,120
3809,B1,796.375,0.125,76,120
3810,B1,796.875,0.125,76,120
3811,D5,796.875,1.875,64,120
3812,F#2,797.358,0.125,70,120
3813,B1,797.358,0.125,70,120
3814,D5,797.375,1.375,64,120
3815,B1,797.875,0.125,76,120
3816,E4,797.875,2.5,64,120
3817,E2,798.358,0.125,95,120
3818,C#2,798.358,0.125,95,120
3819,A1,798.358,0.125,95,120
3820,E2,798.358,0.125,95,120
3821,E2,798.875,0.375,76,120
3822,C#5,798.875,1.5,64,120
3823,C#4,798.875,1.5,40,120
3824,C#5,798.875,1.5,64,120
3825,F#2,799.358,0.125,70,120
3826,E2,799.358,0.125,70,120
3827,E2,799.875,0.125,76,120
3828,A4,799.875,0.5,64,120
3829,D2,800.375,0.5,76,120
3830,C#5,800.375,0.375,64,120
3831,E4,800.375,0.875,64,120
3832,C#4,800.375,1.5,40,120
3833,C#5,800.375,0.875,64,120
3834,A4,800.375,1.375,64,120
3835,D2,800.875,0.125,76,120
3836,F#2,801.358,0.125,70,120
3837,D2,801.358,0.125,70,120
3838,D5,801.375,1.375,64,120
3839,D5,801.375,1.375,64,120
3840,D2,801.875,0.5,76,120
3841,B3,801.875,2.875,64,120
3842,B5,801.875,1.375,64,120
3843,B3,801.875,3.0,40,120
3844,D2,802.375,0.125,76,120
3845,D2,802.875,0.125,76,120
3846,D5,802.875,1.375,64,120
3847,F#2,803.358,0.125,70,120
3848,D2,803.358,0.125,70,120
3849,B5,803.375,1.375,64,120
3850,D2,803.875,0.125,76,120
3851,E2,804.358,0.125,95,120
3852,C#2,804.358,0.125,95,120
3853,A1,804.358,0.125,95,120
3854,E2,804.358,0.125,95,120
3855,D5,804.375,1.375,64,120
3856,E2,804.875,0.375,76,120
3857,A3,804.875,1.5,64,120
3858,A5,804.875,1.375,64,120
3859,A3,804.875,1.5,40,120
3860,F#2,805.358,0.125,70,120
3861,E2,805.358,0.125,70,120
3862,E2,805.875,0.125,76,120
3863,D5,805.875,0.5,64,120
3864,B1,806.375,0.5,76,120
3865,A5,806.375,1.375,64,120
3866,D5,806.375,0.875,64,120
3867,A3,806.375,1.375,64,120
3868,A3,806.375,1.5,40,120
3869,B1,806.875,0.125,76,120
3870,F#2,807.358,0.125,70,120
3871,B1,807.358,0.125,70,120
3872,D5,807.375,1.375,64,120
3873,B1,807.875,0.5,76,120
3874,G3,807.875,2.375,64,120
3875,G5,807.875,1.375,64,120
3876,G3,807.875,3.0,40,120
3877,B1,808.375,0.125,76,120
3878,B1,808.875,0.125,76,120
3879,D5,808.875,1.375,64,120
3880,F#2,809.358,0.125,70,120
3881,B1,809.358,0.125,70,120
3882,G5,809.375,1.375,64,120
3883,B1,809.875,0.125,76,120
3884,E2,810.358,0.125,95,120
3885,C#2,810.358,0.125,95,120
3886,A1,810.358,0.125,95,120
3887,E2,810.358,0.125,95,120
3888,D5,810.375,1.375,64,120
3889,G3,810.375,0.375,64,120
3890,D4,810.375,0.375,64,120
3891,E2,810.875,0.375,76,120
3892,F#5,810.875,1.375,64,120
3893,F#3,810.875,1.5,56,120
3894,D4,810.875,1.5,56,120
3895,F#3,810.875,1.5,56,120
3896,F#2,811.358,0.125,70,120
3897,E2,811.358,0.125,70,120
3898,E2,811.875,0.125,76,120
3899,D5,811.875,0.375,64,120
3900,C#3,812.375,0.125,64,120
3901,D5,812.375,1.375,64,120
3902,D3,812.375,1.0,64,120
3903,D3,812.375,1.5,40,120
3904,D2,812.375,0.5,68,120
3905,A5,812.375,0.5,68,120
3906,D2,812.875,0.125,68,120
3907,A5,812.875,0.125,68,120
3908,A5,813.125,0.125,64,120
3909,F#2,813.358,0.125,70,120
3910,D2,813.358,0.125,70,120
3911,F#4,813.375,1.375,64,120
3912,G5,813.375,0.5,64,120
3913,F#4,813.875,3.0,40,120
3914,F#5,813.875,0.375,64,120
3915,F#5,813.875,1.375,64,120
3916,D2,813.875,0.5,70,120
3917,F#5,813.875,0.5,70,120
3918,D2,814.375,0.125,76,120
3919,F#5,814.375,0.375,64,120
3920,F#5,814.375,1.0,68,120
3921,D2,814.875,0.125,76,120
3922,F#5,814.875,0.375,64,120
3923,F#4,814.875,1.375,64,120
3924,F#2,815.358,0.125,70,120
3925,D2,815.358,0.125,70,120
3926,F#5,815.375,0.625,68,120
3927,F#5,815.375,1.375,64,120
3928,F#5,815.375,1.375,64,120
3929,D2,815.875,0.125,76,120
3930,F5,816.0,0.125,64,120
3931,E5,816.125,0.75,64,120
3932,E2,816.358,0.125,95,120
3933,C#2,816.358,0.125,95,120
3934,A1,816.358,0.125,95,120
3935,E2,816.358,0.125,95,120
3936,F#4,816.375,1.375,64,120
3937,E2,816.875,0.375,76,120
3938,E4,816.875,1.5,40,120
3939,E5,816.875,0.125,56,120
3940,E5,816.875,1.375,64,120
3941,E5,816.875,1.375,64,120
3942,F#5,817.0,0.375,52,120
3943,F#2,817.358,0.125,70,120
3944,E2,817.358,0.125,70,120
3945,E5,817.375,1.0,48,120
3946,E2,817.875,0.125,76,120
3947,F#4,817.875,0.5,64,120
3948,B1,818.375,0.5,76,120
3949,D5,818.375,1.0,48,120
3950,E4,818.375,1.5,40,120
3951,F#4,818.375,0.875,64,120
3952,E5,818.375,1.375,64,120
3953,E5,818.375,1.375,64,120
3954,B1,818.875,0.125,76,120
3955,F#2,819.358,0.125,70,120
3956,B1,819.358,0.125,70,120
3957,F#4,819.375,0.375,64,120
3958,C#5,819.375,0.5,32,120
3959,B1,819.875,0.5,76,120
3960,D4,819.875,3.0,40,120
3961,F#4,819.875,1.875,64,120
3962,A4,819.875,1.0,32,120
3963,D5,819.875,1.375,64,120
3964,D5,819.875,1.375,64,120
3965,B1,820.375,0.125,76,120
3966,B1,820.875,0.125,76,120
3967,B4,820.875,0.5,29,120
3968,F#2,821.358,0.125,60,120
3969,B1,821.358,0.125,60,120
3970,F#4,821.358,0.125,60,120
3971,D5,821.375,1.375,64,120
3972,D5,821.375,1.375,64,120
3973,A4,821.5,0.875,40,120
3974,B1,821.875,0.125,76,120
3975,E4,821.875,0.875,64,120
3976,E2,822.358,0.125,95,120
3977,C#2,822.358,0.125,95,120
3978,A1,822.358,0.125,95,120
3979,E2,822.358,0.125,95,120
3980,G#4,822.375,1.0,40,120
3981,E2,822.875,0.375,76,120
3982,C#4,822.875,1.5,40,120
3983,C#5,822.875,1.0,64,120
3984,C#5,822.875,1.5,64,120
3985,F#2,823.358,0.125,70,120
3986,E2,823.358,0.125,70,120
3987,E4,823.375,1.0,36,120
3988,E2,823.875,0.125,76,120
3989,A4,823.875,0.5,64,120
3990,D2,824.375,0.5,76,120
3991,F#4,824.375,5.875,29,120
3992,C#4,824.375,1.5,40,120
3993,A4,824.375,0.875,64,120
3994,C#5,824.375,0.875,64,120
3995,D2,824.875,0.125,76,120
3996,F#2,825.358,0.125,70,120
3997,D2,825.358,0.125,70,120
3998,D4,825.375,1.375,64,120
3999,D4,825.375,0.375,64,120
4000,D2,825.875,0.5,76,120
4001,B3,825.875,3.0,40,120
4002,B4,825.875,1.375,64,120
4003,B3,825.875,1.375,64,120
4004,D2,826.375,0.125,76,120
4005,D2,826.875,0.125,76,120
4006,D4,826.875,1.375,64,120
4007,F#2,827.358,0.125,70,120
4008,D2,827.358,0.125,70,120
4009,B4,827.375,1.375,64,120
4010,B4,827.375,1.375,64,120
4011,D2,827.875,0.125,76,120
4012,E2,828.358,0.125,95,120
4013,C#2,828.358,0.125,95,120
4014,A1,828.358,0.125,95,120
4015,E2,828.358,0.125,95,120
4016,D4,828.375,1.375,64,120
4017,E2,828.875,0.375,76,120
4018,A3,828.875,1.5,40,120
4019,A4,828.875,1.375,64,120
4020,A3,828.875,1.5,64,120
4021,F#2,829.358,0.125,70,120
4022,E2,829.358,0.125,70,120
4023,E2,829.875,0.125,76,120
4024,D4,829.875,0.5,64,120
4025,B1,830.375,0.5,76,120
4026,A4,830.375,1.375,64,120
4027,A4,830.375,1.5,64,120
4028,D4,830.375,0.875,64,120
4029,A3,830.375,1.5,40,120
4030,B1,830.875,0.125,76,120
4031,F#2,831.358,0.125,70,120
4032,B1,831.358,0.125,70,120
4033,D4,831.375,1.375,64,120
4034,B1,831.875,0.5,76,120
4035,G3,831.875,3.0,40,120
4036,G4,831.875,1.375,64,120
4037,G3,831.875,1.375,64,120
4038,B1,832.375,0.125,76,120
4039,B1,832.875,0.125,76,120
4040,D4,832.875,1.375,64,120
4041,F#2,833.358,0.125,70,120
4042,B1,833.358,0.125,70,120
4043,G4,833.375,1.375,64,120
4044,G4,833.375,1.375,64,120
4045,B1,833.75,0.125,76,120
4046,E2,834.358,0.125,95,120
4047,C#2,834.358,0.125,95,120
4048,A1,834.358,0.125,95,120
4049,E2,834.358,0.125,95,120
4050,D4,834.375,1.375,64,120
4051,E2,834.875,0.375,76,120
4052,F#3,834.875,1.375,40,120
4053,F#4,834.875,0.875,64,120
4054,F#4,834.875,0.875,64,120
4055,F#2,835.358,0.125,70,120
4056,E2,835.358,0.125,70,120
4057,E2,835.875,0.125,76,120
4058,D4,835.875,0.375,64,120
4059,D4,835.875,0.375,64,120
4060,D2,836.358,17/1000,76,120
4061,F#3,836.375,6.0,64,120
4062,D5,836.375,1.0,32,120
4063,F#3,836.375,0.25,64,120
4064,D2,836.375,483/1000,76,120
4065,F#4,836.625,5.75,64,120
4066,D4,836.625,0.25,64,120
4067,D2,836.858,0.125,76,120
4068,F#5,836.875,5.5,64,120
4069,F#4,836.875,1.5,64,120
4070,F#2,837.358,0.125,70,120
4071,D2,837.358,0.125,70,120
4072,D2,837.858,0.5,76,120
4073,D2,838.358,0.125,76,120
4074,D2,838.858,0.125,76,120
4075,F#2,839.358,0.125,64,120
4076,D2,839.358,0.875,76,120
4077,D2,840.358,0.875,76,120
4078,E2,840.358,0.125,101,120
4079,C#2,840.358,0.125,101,120
4080,A1,840.358,0.125,101,120
4081,F#2,841.358,0.125,64,120
4082,D2,841.358,0.875,76,120
4083,D2,842.358,17/1000,76,120
4084,F#3,842.375,0.875,64,120
4085,D2,842.375,483/1000,76,120
4086,F#4,842.375,1.375,64,120
4087,F#5,842.375,1.875,64,120
4088,D2,842.858,0.125,76,120
4089,F#2,843.358,0.125,70,120
4090,D2,843.358,0.125,70,120
4091,F#3,843.375,1.375,32,120
4092,D2,843.858,0.5,76,120
4093,F#4,843.875,1.375,36,120
4094,D2,844.358,0.125,76,120
4095,F#5,844.375,1.375,39,120
4096,D2,844.858,0.125,76,120
4097,F#3,844.875,1.875,42,120
4098,F#2,845.358,0.125,64,120
4099,D2,845.358,0.875,76,120
4100,F#4,845.375,1.875,46,120
4101,F#5,845.875,0.375,49,120
4102,D2,846.358,0.875,76,120
4103,E2,846.358,0.125,101,120
4104,C#2,846.358,0.125,101,120
4105,A1,846.358,0.125,101,120
4106,E5,846.375,1.375,53,120
4107,F#3,846.875,1.375,56,120
4108,F#2,847.358,0.125,64,120
4109,D2,847.358,0.875,68,120
4110,E4,847.358,0.875,68,120
4111,E5,847.875,0.375,63,120
4112,B1,848.358,17/1000,76,120
4113,D3,848.375,6.0,64,120
4114,D5,848.375,6.0,64,120
4115,D4,848.375,6.0,64,120
4116,D4,848.375,1.0,32,120
4117,B1,848.375,483/1000,76,120
4118,B1,848.858,0.125,76,120
4119,F#2,849.358,0.125,70,120
4120,B1,849.358,0.125,70,120
4121,B1,849.858,0.5,76,120
4122,B1,850.358,0.125,76,120
4123,B1,850.858,0.125,76,120
4124,F#2,851.358,0.125,64,120
4125,B1,851.358,0.875,76,120
4126,B1,852.358,0.875,76,120
4127,E2,852.358,0.125,101,120
4128,C#2,852.358,0.125,101,120
4129,A1,852.358,0.125,101,120
4130,F#2,853.358,0.125,64,120
4131,B1,853.358,0.875,76,120
4132,B1,854.358,17/1000,76,120
4133,D3,854.375,0.875,64,120
4134,D5,854.375,1.875,64,120
4135,D4,854.375,1.375,64,120
4136,B1,854.375,483/1000,76,120
4137,B1,854.858,0.125,76,120
4138,F#2,855.358,0.125,70,120
4139,B1,855.358,0.125,70,120
4140,D3,855.375,1.375,30,120
4141,B1,855.858,0.5,76,120
4142,D4,855.875,1.375,34,120
4143,B1,856.358,0.125,76,120
4144,D5,856.375,1.375,37,120
4145,B1,856.858,0.125,76,120
4146,D3,856.875,1.875,41,120
4147,F#2,857.358,0.125,64,120
4148,B1,857.358,0.875,76,120
4149,D4,857.375,1.875,45,120
4150,D5,857.875,0.5,48,120
4151,B1,858.358,0.875,76,120
4152,E2,858.358,0.125,101,120
4153,C#2,858.358,0.125,101,120
4154,A1,858.358,0.125,101,120
4155,E5,858.375,1.375,52,120
4156,D3,858.875,1.375,55,120
4157,F#2,859.358,0.125,64,120
4158,A1,859.358,0.875,68,120
4159,E4,859.358,0.875,68,120
4160,E5,859.875,0.375,63,120
4161,G1,860.358,17/1000,76,120
4162,G1,860.375,483/1000,76,120
4163,D5,860.375,6.0,64,120
4164,D4,860.375,6.0,64,120
4165,D3,860.375,6.0,64,120
4166,D4,860.375,1.0,32,120
4167,D5,860.375,1.0,32,120
4168,G1,860.858,0.125,76,120
4169,F#2,861.358,0.125,70,120
4170,G1,861.358,0.125,70,120
4171,G1,861.858,0.5,76,120
4172,G1,862.358,0.125,76,120
4173,G1,862.858,0.125,76,120
4174,F#2,863.358,0.125,64,120
4175,G1,863.358,0.875,76,120
4176,G1,864.358,0.875,76,120
4177,E2,864.358,0.125,101,120
4178,C#2,864.358,0.125,101,120
4179,A1,864.358,0.125,101,120
4180,F#2,865.358,0.125,64,120
4181,G1,865.358,0.875,76,120
4182,A1,866.358,17/1000,76,120
4183,A1,872.25,483/1000,76,120
4184,D5,872.25,5.875,64,120
4185,D4,872.25,5.875,64,120
4186,D3,872.25,5.875,64,120
4187,A1,872.733,0.125,76,120
4188,F#2,873.233,0.125,70,120
4189,A1,873.233,0.125,70,120
4190,A1,873.733,0.5,76,120
4191,A1,874.233,0.125,76,120
4192,A1,874.733,0.125,76,120
4193,F#2,875.233,0.125,64,120
4194,A1,875.233,0.875,76,120
4195,A1,876.233,0.875,76,120
4196,E2,876.233,0.125,101,120
4197,C#2,876.233,0.125,101,120
4198,A1,876.233,0.125,101,120
4199,F#2,877.233,0.125,64,120
4200,A1,877.233,0.875,76,120
4201,B1,878.233,17/1000,76,120
4202,D3,878.25,1.0,32,120
4203,B1,878.25,483/1000,76,120
4204,D5,878.25,6.0,64,120
4205,D4,878.25,6.0,64,120
4206,D3,878.25,6.0,64,120
4207,B1,878.733,0.125,76,120
4208,F#2,879.233,0.125,70,120
4209,B1,879.233,0.125,70,120
4210,B1,879.733,0.5,76,120
4211,B1,880.233,0.125,76,120
4212,B1,880.733,0.125,76,120
4213,F#2,881.233,0.125,64,120
4214,B1,881.233,0.875,76,120
4215,A1,882.233,0.875,76,120
4216,E2,882.233,0.125,101,120
4217,C#2,882.233,0.125,101,120
4218,A1,882.233,0.125,101,120
4219,F#2,883.233,0.125,64,120
4220,B1,883.233,0.875,76,120
4221,B1,884.233,17/1000,76,120
4222,B1,890.125,483/1000,76,120
4223,D5,890.125,5.875,64,120
4224,D4,890.125,5.875,64,120
4225,D3,890.125,5.875,64,120
4226,B1,890.608,0.125,76,120
4227,F#2,891.108,0.125,70,120
4228,B1,891.108,0.125,70,120
4229,B1,891.608,0.5,76,120
4230,B1,892.108,0.125,76,120
4231,B1,892.608,0.125,76,120
4232,F#2,893.108,0.125,64,120
4233,G1,893.108,0.875,76,120
4234,B5,893.125,2.625,64,120
4235,G1,894.108,0.875,76,120
4236,E2,894.108,0.125,101,120
4237,C#2,894.108,0.125,101,120
4238,A1,894.108,0.125,101,120
4239,F#2,895.108,0.125,64,120
4240,A1,895.108,0.875,76,120
4241,D2,896.108,17/1000,76,120
4242,D3,896.125,0.375,64,120
4243,D2,896.125,483/1000,76,120
4244,A5,896.125,3.0,64,120
4245,A4,896.125,3.0,64,120
4246,A4,896.125,2.875,54,120
4247,A5,896.125,2.875,54,120
4248,A4,896.125,0.25,64,120
4249,A6,896.125,0.25,64,120
4250,D2,896.608,0.125,70,120
4251,D3,896.608,0.125,70,120
4252,D2,897.108,0.125,68,120
4253,F#2,897.108,0.125,68,120
4254,D3,897.108,0.125,68,120
4255,D2,897.608,0.5,76,120
4256,D3,897.625,0.375,64,120
4257,D2,898.108,0.125,70,120
4258,D3,898.108,0.125,70,120
4259,D2,898.608,0.125,70,120
4260,D3,898.608,0.125,70,120
4261,D2,899.108,0.875,76,120
4262,F#2,899.108,0.125,64,120
4263,D3,899.125,0.375,64,120
4264,F#5,899.125,0.5,46,120
4265,G5,899.125,3.0,64,120
4266,G4,899.125,3.0,64,120
4267,G4,899.125,2.875,54,120
4268,G5,899.125,2.875,54,120
4269,D3,899.625,0.125,64,120
4270,G5,899.625,0.25,54,120
4271,F#5,899.875,0.25,58,120
4272,D2,900.108,0.875,76,120
4273,E2,900.108,0.125,101,120
4274,C#2,900.108,0.125,101,120
4275,A1,900.108,0.125,101,120
4276,D3,900.125,0.375,64,120
4277,E5,900.125,1.0,60,120
4278,D3,900.625,0.125,64,120
4279,D2,901.108,0.875,76,120
4280,F#2,901.108,0.125,64,120
4281,D3,901.108,0.125,64,120
4282,D5,901.125,1.0,59,120
4283,D3,901.625,0.375,64,120
4284,D2,902.108,17/1000,76,120
4285,D3,902.125,0.125,64,120
4286,F#4,902.125,3.875,64,120
4287,F#5,902.125,2.875,44,120
4288,C#5,902.125,1.0,58,120
4289,D2,902.125,483/1000,76,120
4290,F#5,902.125,6.0,64,120
4291,F#4,902.125,6.0,64,120
4292,D2,902.608,0.125,70,120
4293,D3,902.608,0.125,70,120
4294,D2,903.108,0.125,70,120
4295,F#2,903.108,0.125,70,120
4296,D3,903.125,0.375,64,120
4297,D5,903.125,3.0,57,120
4298,D2,903.608,0.5,76,120
4299,D3,903.625,0.125,64,120
4300,D2,904.108,0.125,76,120
4301,D3,904.125,0.375,64,120
4302,D2,904.608,0.125,70,120
4303,D3,904.608,0.125,70,120
4304,D2,905.108,0.875,76,120
4305,F#2,905.108,0.125,64,120
4306,D3,905.108,0.125,64,120
4307,D5,905.125,2.875,44,120
4308,D3,905.625,0.375,64,120
4309,D2,906.108,0.875,76,120
4310,E2,906.108,0.125,92,120
4311,C#2,906.108,0.125,92,120
4312,A1,906.108,0.125,92,120
4313,D3,906.108,0.125,92,120
4314,D4,906.125,0.375,64,120
4315,D3,906.625,0.125,64,120
4316,D4,906.625,0.125,64,120
4317,D2,907.108,0.875,76,120
4318,F#2,907.108,0.125,64,120
4319,D3,907.125,0.375,64,120
4320,D4,907.125,0.375,64,120
4321,D3,907.625,0.125,64,120
4322,D4,907.625,0.125,64,120
4323,B1,908.108,17/1000,76,120
4324,B2,908.125,0.375,64,120
4325,B1,908.125,483/1000,76,120
4326,D4,908.125,3.0,64,120
4327,F#5,908.125,3.0,64,120
4328,D4,908.125,2.875,54,120
4329,D5,908.125,2.875,54,120
4330,B1,908.608,0.125,70,120
4331,B2,908.608,0.125,70,120
4332,B1,909.108,0.125,68,120
4333,F#2,909.108,0.125,68,120
4334,B2,909.108,0.125,68,120
4335,B1,909.608,0.5,76,120
4336,B2,909.625,0.375,64,120
4337,B1,910.108,0.125,70,120
4338,B2,910.108,0.125,70,120
4339,B1,910.608,0.125,70,120
4340,B2,910.608,0.125,70,120
4341,B1,911.108,0.875,76,120
4342,F#2,911.108,0.125,64,120
4343,B2,911.125,0.375,64,120
4344,E5,911.125,3.0,64,120
4345,E4,911.125,3.0,64,120
4346,E4,911.125,2.875,54,120
4347,E5,911.125,2.875,54,120
4348,B2,911.625,0.125,64,120
4349,B1,912.108,0.875,76,120
4350,E2,912.108,0.125,101,120
4351,C#2,912.108,0.125,101,120
4352,A1,912.108,0.125,101,120
4353,B2,912.125,0.375,64,120
4354,B2,912.625,0.125,64,120
4355,B1,913.108,0.875,76,120
4356,F#2,913.108,0.125,64,120
4357,B2,913.108,0.125,64,120
4358,B2,913.625,0.375,64,120
4359,B1,914.108,17/1000,76,120
4360,B2,914.125,0.125,64,120
4361,F#4,914.125,3.875,64,120
4362,F#5,914.125,2.875,44,120
4363,B1,914.125,483/1000,76,120
4364,F#5,914.125,6.0,64,120
4365,F#4,914.125,6.0,64,120
4366,B1,914.608,0.125,70,120
4367,B2,914.608,0.125,70,120
4368,B1,915.108,0.125,70,120
4369,F#2,915.108,0.125,70,120
4370,B2,915.125,0.375,64,120
4371,B1,915.608,0.5,76,120
4372,B2,915.625,0.125,64,120
4373,B1,916.108,0.125,76,120
4374,B2,916.125,0.375,64,120
4375,B1,916.608,0.125,70,120
4376,B2,916.608,0.125,70,120
4377,B1,917.108,0.875,76,120
4378,F#2,917.108,0.125,64,120
4379,B2,917.108,0.125,64,120
4380,D5,917.125,2.875,44,120
4381,B2,917.625,0.375,64,120
4382,B1,918.108,0.875,76,120
4383,E2,918.108,0.125,92,120
4384,C#2,918.108,0.125,92,120
4385,A1,918.108,0.125,92,120
4386,B2,918.108,0.125,92,120
4387,D4,918.125,0.375,64,120
4388,B2,918.625,0.125,64,120
4389,D4,918.625,0.125,64,120
4390,A1,919.108,0.875,76,120
4391,F#2,919.108,0.125,64,120
4392,A2,919.125,0.375,64,120
4393,D4,919.125,0.375,64,120
4394,A2,919.625,0.125,64,120
4395,D4,919.625,0.125,64,120
4396,G1,920.108,17/1000,76,120
4397,G2,920.125,0.375,64,120
4398,D4,920.125,3.875,64,120
4399,D5,920.125,5.875,44,120
4400,G1,920.125,483/1000,76,120
4401,D5,920.125,6.0,64,120
4402,D4,920.125,6.0,64,120
4403,G1,920.608,0.125,70,120
4404,G2,920.608,0.125,70,120
4405,G1,921.108,0.125,68,120
4406,F#2,921.108,0.125,68,120
4407,G2,921.108,0.125,68,120
4408,G1,921.608,0.5,76,120
4409,G2,921.625,0.375,64,120
4410,G1,922.108,0.125,70,120
4411,G2,922.108,0.125,70,120
4412,G1,922.608,0.125,70,120
4413,G2,922.608,0.125,70,120
4414,G1,923.108,0.875,76,120
4415,F#2,923.108,0.125,64,120
4416,G2,923.125,0.375,64,120
4417,G2,923.625,0.125,64,120
4418,G1,924.108,0.875,76,120
4419,E2,924.108,0.125,101,120
4420,C#2,924.108,0.125,101,120
4421,A1,924.108,0.125,101,120
4422,G2,924.125,0.375,64,120
4423,D4,924.125,0.375,64,120
4424,G2,924.625,0.125,64,120
4425,D4,924.625,0.125,64,120
4426,G1,925.108,0.875,76,120
4427,F#2,925.108,0.125,64,120
4428,G2,925.108,0.125,64,120
4429,D4,925.125,0.375,64,120
4430,G2,925.625,0.375,64,120
4431,D4,925.625,0.125,64,120
4432,A1,926.108,17/1000,76,120
4433,A2,926.125,0.375,64,120
4434,E4,926.125,3.875,64,120
4435,E5,926.125,5.875,44,120
4436,A1,926.125,483/1000,76,120
4437,E5,926.125,6.0,64,120
4438,E4,926.125,6.0,64,120
4439,A1,926.608,0.125,70,120
4440,A2,926.608,0.125,70,120
4441,A1,927.108,0.125,68,120
4442,F#2,927.108,0.125,68,120
4443,A2,927.108,0.125,68,120
4444,A1,927.608,0.5,76,120
4445,A2,927.625,0.375,64,120
4446,A1,928.108,0.125,70,120
4447,A2,928.108,0.125,70,120
4448,A1,928.608,0.125,70,120
4449,A2,928.608,0.125,70,120
4450,A1,929.108,0.875,76,120
4451,F#2,929.108,0.125,64,120
4452,A2,929.125,0.375,64,120
4453,A2,929.625,0.125,64,120
4454,A1,930.108,0.875,76,120
4455,E2,930.108,0.125,101,120
4456,C#2,930.108,0.125,101,120
4457,A1,930.108,0.125,101,120
4458,A2,930.125,0.375,64,120
4459,E4,930.125,0.375,64,120
4460,A2,930.625,0.125,64,120
4461,E4,930.625,0.125,64,120
4462,A1,931.108,0.875,76,120
4463,F#2,931.108,0.125,64,120
4464,A2,931.108,0.125,64,120
4465,E4,931.125,0.375,64,120
4466,A2,931.625,0.375,64,120
4467,E4,931.625,0.125,64,120
4468,D2,932.108,17/1000,76,120
4469,D3,932.125,0.375,64,120
4470,A4,932.125,3.875,64,120
4471,A5,932.125,6.0,44,120
4472,D2,932.125,483/1000,76,120
4473,A5,932.125,6.0,64,120
4474,A4,932.125,6.0,64,120
4475,D2,932.608,0.125,70,120
4476,D3,932.608,0.125,70,120
4477,D2,933.108,0.125,68,120
4478,F#2,933.108,0.125,68,120
4479,D3,933.108,0.125,68,120
4480,D2,933.608,0.5,76,120
4481,D3,933.625,0.375,64,120
4482,D2,934.108,0.125,70,120
4483,D3,934.108,0.125,70,120
4484,D2,934.608,0.125,70,120
4485,D3,934.608,0.125,70,120
4486,D2,935.108,0.875,76,120
4487,F#2,935.108,0.125,64,120
4488,D3,935.125,0.375,64,120
4489,D3,935.625,0.125,64,120
4490,D2,936.108,0.875,76,120
4491,E2,936.108,0.125,101,120
4492,C#2,936.108,0.125,101,120
4493,A1,936.108,0.125,101,120
4494,D3,936.125,0.375,64,120
4495,A3,936.125,0.375,64,120
4496,D3,936.625,0.125,64,120
4497,A3,936.625,0.125,64,120
4498,D2,937.108,0.875,76,120
4499,F#2,937.108,0.125,64,120
4500,D3,937.108,0.125,64,120
4501,A3,937.125,0.375,64,120
4502,D3,937.625,0.375,64,120
4503,A3,937.625,0.125,64,120
4504,D2,938.108,17/1000,76,120
4505,D3,944.0,0.375,64,120
4506,A4,944.0,5.75,64,120
4507,D2,944.0,483/1000,76,120
4508,A5,944.0,5.75,44,120
4509,A5,944.0,5.875,64,120
4510,A4,944.0,5.875,64,120
4511,D2,944.483,0.125,70,120
4512,D3,944.483,0.125,70,120
4513,D2,944.983,0.125,68,120
4514,F#2,944.983,0.125,68,120
4515,D3,944.983,0.125,68,120
4516,D2,945.483,0.5,76,120
4517,D3,945.5,0.375,64,120
4518,D2,945.983,0.125,70,120
4519,D3,945.983,0.125,70,120
4520,D2,946.483,0.375,76,120
4521,D3,946.5,0.125,64,120
4522,D2,946.983,0.75,76,120
4523,F#2,946.983,0.125,64,120
4524,D3,947.0,0.375,64,120
4525,D3,947.5,0.125,64,120
4526,F#1,947.983,0.875,76,120
4527,E2,947.983,0.125,101,120
4528,C#2,947.983,0.125,101,120
4529,A1,947.983,0.125,101,120
4530,F#2,948.0,0.375,64,120
4531,A5,948.0,1.875,64,120
4532,F#2,948.5,0.125,64,120
4533,F#1,948.983,0.875,76,120
4534,F#2,948.983,0.125,64,120
4535,F#2,948.983,0.125,64,120
4536,F#2,949.5,0.375,64,120
4537,G1,950.0,0.5,76,120
4538,D4,950.0,0.875,64,120
4539,D4,950.0,5.75,32,120
4540,F#2,950.983,0.125,70,120
4541,G1,950.983,0.125,70,120
4542,D4,951.0,2.375,54,120
4543,D5,951.0,2.375,54,120
4544,G1,951.5,0.875,61,120
4545,G4,951.5,0.875,61,120
4546,G5,951.5,0.875,61,120
4547,G1,952.5,0.125,76,120
4548,F#4,952.5,0.875,54,120
4549,F#5,952.5,0.875,54,120
4550,F#2,952.983,0.125,64,120
4551,G1,953.0,0.875,76,120
4552,G5,953.0,1.0,64,120
4553,D4,953.5,0.875,54,120
4554,D5,953.5,0.875,54,120
4555,E2,953.983,0.125,101,120
4556,C#2,953.983,0.125,101,120
4557,A1,953.983,0.125,101,120
4558,G1,954.0,1.875,76,120
4559,F#5,954.0,0.5,64,120
4560,G5,954.5,0.25,64,120
4561,E4,954.5,0.875,54,120
4562,E5,954.5,0.875,54,120
4563,F#5,954.75,0.25,64,120
4564,F#2,954.983,0.125,64,120
4565,E5,955.0,1.0,64,120
4566,D4,955.5,0.5,54,120
4567,D5,955.5,0.5,54,120
4568,A1,956.0,0.5,76,120
4569,A3,956.0,5.75,32,120
4570,D5,956.0,1.0,64,120
4571,A3,956.0,2.375,54,120
4572,A4,956.0,2.375,54,120
4573,D4,956.0,0.875,54,120
4574,D5,956.0,0.875,54,120
4575,F#2,956.983,0.125,70,120
4576,A1,956.983,0.125,70,120
4577,C#5,957.0,1.0,64,120
4578,E4,957.0,0.375,54,120
4579,E5,957.0,0.375,54,120
4580,A1,957.5,0.875,76,120
4581,D4,957.5,1.875,54,120
4582,D5,957.5,1.875,54,120
4583,B4,958.0,1.0,64,120
4584,A1,958.5,0.875,76,120
4585,A3,958.5,2.875,54,120
4586,A4,958.5,2.875,54,120
4587,F#2,958.983,0.125,64,120
4588,A4,959.0,1.0,64,120
4589,A1,959.5,0.375,76,120
4590,D4,959.5,0.875,54,120
4591,D5,959.5,0.875,54,120
4592,E2,959.983,0.125,101,120
4593,C#2,959.983,0.125,101,120
4594,A1,959.983,0.125,101,120
4595,A1,960.0,1.875,76,120
4596,G4,960.0,1.0,64,120
4597,D4,960.5,1.375,54,120
4598,D5,960.5,1.375,54,120
4599,F#2,960.983,0.125,64,120
4600,A4,961.0,1.0,64,120
4601,A3,961.5,0.5,54,120
4602,A4,961.5,0.5,54,120
4603,B1,962.0,0.5,76,120
4604,A4,962.0,6.0,32,120
4605,F#4,962.0,1.5,64,120
4606,A3,962.0,0.375,54,120
4607,A4,962.0,0.375,54,120
4608,A3,962.5,1.875,54,120
4609,A4,962.5,1.875,54,120
4610,F#2,962.983,0.125,70,120
4611,B1,962.983,0.125,70,120
4612,B1,963.5,0.875,76,120
4613,F#4,963.5,0.5,64,120
4614,A4,963.5,2.375,54,120
4615,A5,963.5,2.375,54,120
4616,A4,964.0,1.0,64,120
4617,B1,964.5,0.875,61,120
4618,A3,964.5,0.875,61,120
4619,A4,964.5,0.875,61,120
4620,F#2,964.983,0.125,64,120
4621,D5,965.0,1.0,64,120
4622,B1,965.5,0.125,76,120
4623,A3,965.5,1.375,54,120
4624,A4,965.5,1.375,54,120
4625,E2,965.983,0.125,101,120
4626,C#2,965.983,0.125,101,120
4627,A1,965.983,0.125,101,120
4628,B1,966.0,0.875,70,120
4629,F#4,966.0,0.875,70,120
4630,A4,966.0,2.0,54,120
4631,A5,966.0,2.0,54,120
4632,F#2,966.983,0.125,64,120
4633,B1,967.0,0.875,62,120
4634,A3,967.0,0.875,62,120
4635,A4,967.0,0.875,62,120
4636,G4,967.0,0.875,62,120
4637,B1,968.0,0.5,76,120
4638,F#4,968.0,1.5,64,120
4639,A4,968.0,5.75,32,120
4640,A3,968.0,0.375,54,120
4641,A4,968.0,0.375,54,120
4642,A4,968.0,1.375,54,120
4643,A5,968.0,1.375,54,120
4644,A3,968.5,1.875,54,120
4645,A4,968.5,1.875,54,120
4646,F#2,968.983,0.125,70,120
4647,B1,968.983,0.125,70,120
4648,B1,969.5,0.75,76,120
4649,F#4,969.5,0.375,64,120
4650,A4,969.5,2.375,54,120
4651,A5,969.5,2.375,54,120
4652,A4,970.0,0.875,64,120
4653,B1,970.5,0.375,76,120
4654,A3,970.5,0.875,54,120
4655,A4,970.5,0.875,54,120
4656,F#2,970.983,0.125,70,120
4657,B1,970.983,0.125,70,120
4658,D5,971.0,0.875,64,120
4659,A3,971.5,1.375,54,120
4660,A4,971.5,1.375,54,120
4661,E2,971.983,0.125,101,120
4662,C#2,971.983,0.125,101,120
4663,A1,971.983,0.125,101,120
4664,A1,972.0,0.875,70,120
4665,A4,972.0,0.875,70,120
4666,A4,972.0,1.875,54,120
4667,A5,972.0,1.875,54,120
4668,F#2,972.983,0.125,64,120
4669,A1,973.0,0.25,76,120
4670,A3,973.0,0.875,57,120
4671,A4,973.0,0.875,57,120
4672,F#4,973.0,0.875,57,120
4673,G1,974.0,0.5,76,120
4674,D4,974.0,0.875,64,120
4675,D4,974.0,5.75,32,120
4676,D4,974.0,2.5,64,120
4677,F#2,974.983,0.125,70,120
4678,G1,974.983,0.125,70,120
4679,D4,975.0,2.375,54,120
4680,D5,975.0,2.375,54,120
4681,G1,975.5,0.875,61,120
4682,G4,975.5,0.875,61,120
4683,G5,975.5,0.875,61,120
4684,G1,976.5,1.375,76,120
4685,F#4,976.5,0.5,64,120
4686,F#4,976.5,0.875,54,120
4687,F#5,976.5,0.875,54,120
4688,F#2,976.983,0.125,64,120
4689,G4,977.0,1.0,64,120
4690,D4,977.5,0.875,54,120
4691,D5,977.5,0.875,54,120
4692,E2,977.983,0.125,101,120
4693,C#2,977.983,0.125,101,120
4694,A1,977.983,0.125,101,120
4695,G1,978.0,1.875,76,120
4696,F#4,978.0,1.0,64,120
4697,E4,978.5,0.875,54,120
4698,E5,978.5,0.875,54,120
4699,F#2,978.983,0.125,64,120
4700,E4,979.0,1.0,64,120
4701,D4,979.5,0.5,54,120
4702,D5,979.5,0.5,54,120
4703,F#1,980.0,0.5,76,120
4704,A3,980.0,5.75,32,120
4705,D4,980.0,1.0,64,120
4706,A3,980.0,2.375,54,120
4707,A4,980.0,2.375,54,120
4708,D4,980.0,0.875,54,120
4709,D5,980.0,0.875,54,120
4710,F#2,980.983,0.125,70,120
4711,F#1,980.983,0.125,70,120
4712,C#4,981.0,1.0,64,120
4713,E4,981.0,0.375,54,120
4714,E5,981.0,0.375,54,120
4715,F#1,981.5,0.875,76,120
4716,D4,981.5,1.875,54,120
4717,D5,981.5,1.875,54,120
4718,B3,982.0,1.0,64,120
4719,F#1,982.5,1.375,76,120
4720,A3,982.5,2.875,54,120
4721,A4,982.5,2.875,54,120
4722,F#2,982.983,0.125,64,120
4723,A3,983.0,2.875,64,120
4724,D4,983.5,0.875,54,120
4725,D5,983.5,0.875,54,120
4726,E2,983.983,0.125,101,120
4727,C#2,983.983,0.125,101,120
4728,A1,983.983,0.125,101,120
4729,F#1,984.0,1.875,76,120
4730,D4,984.5,1.375,54,120
4731,D5,984.5,1.375,54,120
4732,F#2,984.983,0.125,64,120
4733,A3,985.5,0.5,54,120
4734,A4,985.5,0.5,54,120
4735,A1,986.0,0.5,76,120
4736,A4,986.0,6.0,32,120
4737,A3,986.0,0.875,64,120
4738,A3,986.0,0.375,54,120
4739,A4,986.0,0.375,54,120
4740,A3,986.5,1.875,54,120
4741,A4,986.5,1.875,54,120
4742,F#2,986.983,0.125,70,120
4743,A1,986.983,0.125,70,120
4744,B3,987.0,1.0,64,120
4745,A1,987.5,0.875,76,120
4746,A4,987.5,2.375,54,120
4747,A5,987.5,2.375,54,120
4748,C#4,988.0,1.0,64,120
4749,A1,988.5,1.375,76,120
4750,A3,988.5,0.875,54,120
4751,A4,988.5,0.875,54,120
4752,F#2,988.983,0.125,64,120
4753,D4,989.0,1.0,64,120
4754,A3,989.5,1.375,54,120
4755,A4,989.5,1.375,54,120
4756,E2,989.983,0.125,101,120
4757,C#2,989.983,0.125,101,120
4758,A1,989.983,0.125,101,120
4759,A1,990.0,1.875,76,120
4760,F#4,990.0,0.875,64,120
4761,A4,990.0,2.0,54,120
4762,A5,990.0,2.0,54,120
4763,F#2,990.983,0.125,64,120
4764,A3,991.0,0.875,57,120
4765,A4,991.0,0.875,57,120
4766,G4,991.0,0.875,57,120
4767,E4,992.0,0.875,64,120
4768,A4,992.0,5.75,32,120
4769,A1,992.0,0.375,61,120
4770,A3,992.0,0.375,61,120
4771,A4,992.0,0.375,61,120
4772,A4,992.0,1.375,54,120
4773,A5,992.0,1.375,54,120
4774,A1,992.5,0.375,76,120
4775,A3,992.5,1.875,54,120
4776,A4,992.5,1.875,54,120
4777,F#2,992.983,0.125,64,120
4778,A1,993.0,0.375,76,120
4779,F#4,993.0,0.875,64,120
4780,A1,993.5,0.75,76,120
4781,A4,993.5,2.375,54,120
4782,A5,993.5,2.375,54,120
4783,G4,993.875,0.875,64,120
4784,A1,994.5,0.375,76,120
4785,A3,994.5,0.875,54,120
4786,A4,994.5,0.875,54,120
4787,F#2,994.983,0.125,64,120
4788,G1,995.0,0.875,70,120
4789,F#4,995.0,0.875,70,120
4790,A3,995.5,1.375,54,120
4791,A4,995.5,1.375,54,120
4792,E2,995.983,0.125,101,120
4793,C#2,995.983,0.125,101,120
4794,A1,995.983,0.125,101,120
4795,F#1,996.0,0.875,70,120
4796,C#5,996.0,0.875,70,120
4797,A4,996.0,1.875,54,120
4798,A5,996.0,1.875,54,120
4799,F#2,996.983,0.125,64,120
4800,F#1,997.0,0.875,62,120
4801,A3,997.0,0.875,62,120
4802,A4,997.0,0.875,62,120
4803,D5,997.0,0.875,62,120
4804,G1,997.983,17/1000,76,120
4805,D4,998.0,0.875,64,120
4806,D4,998.0,5.75,32,120
4807,C#5,998.0,0.375,64,120
4808,G1,998.0,483/1000,76,120
4809,G1,998.483,0.125,70,120
4810,D5,998.483,0.125,70,120
4811,G1,998.983,0.125,68,120
4812,F#2,998.983,0.125,68,120
4813,D5,998.983,0.125,68,120
4814,D4,999.0,2.375,54,120
4815,D5,999.0,2.375,54,120
4816,G1,999.483,0.5,76,120
4817,D5,999.5,0.125,64,120
4818,G4,999.5,0.875,54,120
4819,G5,999.5,0.875,54,120
4820,G1,999.983,0.125,70,120
4821,D5,999.983,0.125,70,120
4822,G1,1000.483,0.125,70,120
4823,D5,1000.483,0.125,70,120
4824,F#4,1000.5,0.875,54,120
4825,F#5,1000.5,0.875,54,120
4826,G1,1000.983,0.875,76,120
4827,F#2,1000.983,0.125,64,120
4828,C#5,1001.0,0.375,64,120
4829,D5,1001.5,0.125,64,120
4830,D4,1001.5,0.875,54,120
4831,D5,1001.5,0.875,54,120
4832,G1,1001.983,0.875,76,120
4833,E2,1001.983,0.125,92,120
4834,C#2,1001.983,0.125,92,120
4835,A1,1001.983,0.125,92,120
4836,D5,1001.983,0.125,92,120
4837,D5,1002.5,0.125,64,120
4838,E4,1002.5,0.875,54,120
4839,E5,1002.5,0.875,54,120
4840,G1,1002.983,0.875,76,120
4841,F#2,1002.983,0.125,64,120
4842,D5,1002.983,0.125,64,120
4843,D5,1003.5,0.125,64,120
4844,D4,1003.5,0.5,54,120
4845,D5,1003.5,0.5,54,120
4846,A1,1003.983,17/1000,76,120
4847,A3,1004.0,5.75,32,120
4848,C#5,1004.0,0.375,64,120
4849,A1,1004.0,483/1000,76,120
4850,A3,1004.0,2.375,54,120
4851,A4,1004.0,2.375,54,120
4852,D4,1004.0,0.875,54,120
4853,D5,1004.0,0.875,54,120
4854,A1,1004.483,0.125,70,120
4855,D5,1004.483,0.125,70,120
4856,A1,1004.983,0.125,68,120
4857,F#2,1004.983,0.125,68,120
4858,D5,1004.983,0.125,68,120
4859,E4,1005.0,0.375,54,120
4860,E5,1005.0,0.375,54,120
4861,A1,1005.483,0.5,76,120
4862,D5,1005.5,0.125,64,120
4863,D4,1005.5,1.875,54,120
4864,D5,1005.5,1.875,54,120
4865,A1,1005.983,0.125,70,120
4866,D5,1005.983,0.125,70,120
4867,A1,1006.483,0.125,70,120
4868,D5,1006.483,0.125,70,120
4869,A3,1006.5,2.875,54,120
4870,A4,1006.5,2.875,54,120
4871,A1,1006.983,0.875,76,120
4872,F#2,1006.983,0.125,64,120
4873,C#5,1007.0,0.375,64,120
4874,D5,1007.5,0.125,64,120
4875,D4,1007.5,0.875,54,120
4876,D5,1007.5,0.875,54,120
4877,A1,1007.983,0.875,76,120
4878,E2,1007.983,0.125,92,120
4879,C#2,1007.983,0.125,92,120
4880,A1,1007.983,0.125,92,120
4881,D5,1007.983,0.125,92,120
4882,D5,1008.5,0.125,64,120
4883,D4,1008.5,1.375,54,120
4884,D5,1008.5,1.375,54,120
4885,A1,1008.983,0.875,76,120
4886,F#2,1008.983,0.125,64,120
4887,D5,1008.983,0.125,64,120
4888,D5,1009.5,0.125,64,120
4889,A3,1009.5,0.5,54,120
4890,A4,1009.5,0.5,54,120
4891,B1,1009.983,17/1000,76,120
4892,A4,1010.0,6.0,32,120
4893,C#5,1010.0,0.375,64,120
4894,B1,1010.0,483/1000,76,120
4895,A3,1010.0,0.375,54,120
4896,A4,1010.0,0.375,54,120
4897,B1,1010.483,0.125,70,120
4898,D5,1010.483,0.125,70,120
4899,A3,1010.5,1.875,54,120
4900,A4,1010.5,1.875,54,120
4901,B1,1010.983,0.125,68,120
4902,F#2,1010.983,0.125,68,120
4903,D5,1010.983,0.125,68,120
4904,B1,1011.483,0.5,76,120
4905,D5,1011.5,0.125,64,120
4906,A4,1011.5,2.375,54,120
4907,A5,1011.5,2.375,54,120
4908,B1,1011.983,0.125,70,120
4909,D5,1011.983,0.125,70,120
4910,B1,1012.483,0.125,70,120
4911,D5,1012.483,0.125,70,120
4912,A3,1012.5,0.875,54,120
4913,A4,1012.5,0.875,54,120
4914,B1,1012.983,0.875,76,120
4915,F#2,1012.983,0.125,64,120
4916,C#5,1013.0,0.375,64,120
4917,D5,1013.5,0.125,64,120
4918,A3,1013.5,1.375,54,120
4919,A4,1013.5,1.375,54,120
4920,B1,1013.983,0.875,76,120
4921,E2,1013.983,0.125,92,120
4922,C#2,1013.983,0.125,92,120
4923,A1,1013.983,0.125,92,120
4924,D5,1013.983,0.125,92,120
4925,A4,1014.0,2.0,54,120
4926,A5,1014.0,2.0,54,120
4927,D5,1014.5,0.125,64,120
4928,B1,1014.983,0.875,61,120
4929,A3,1014.983,0.875,61,120
4930,A4,1014.983,0.875,61,120
4931,F#2,1014.983,0.125,64,120
4932,D5,1014.983,0.125,64,120
4933,D5,1015.5,0.125,64,120
4934,B1,1015.983,17/1000,76,120
4935,A4,1016.0,5.75,32,120
4936,B1,1016.0,483/1000,76,120
4937,A3,1016.0,0.375,57,120
4938,A4,1016.0,0.375,57,120
4939,C#5,1016.0,0.375,57,120
4940,A4,1016.0,1.375,54,120
4941,A5,1016.0,1.375,54,120
4942,B1,1016.483,0.125,70,120
4943,D5,1016.483,0.125,70,120
4944,A3,1016.5,1.875,54,120
4945,A4,1016.5,1.875,54,120
4946,B1,1016.983,0.125,68,120
4947,F#2,1016.983,0.125,68,120
4948,D5,1016.983,0.125,68,120
4949,B1,1017.483,0.5,76,120
4950,D5,1017.5,0.125,64,120
4951,A4,1017.5,2.375,54,120
4952,A5,1017.5,2.375,54,120
4953,B1,1017.983,0.125,70,120
4954,D5,1017.983,0.125,70,120
4955,B1,1018.483,0.125,70,120
4956,D5,1018.483,0.125,70,120
4957,A3,1018.5,0.875,54,120
4958,A4,1018.5,0.875,54,120
4959,F#1,1018.983,0.875,76,120
4960,F#2,1018.983,0.125,64,120
4961,C#5,1019.0,0.375,64,120
4962,D5,1019.5,0.125,64,120
4963,A3,1019.5,1.375,54,120
4964,A4,1019.5,1.375,54,120
4965,F#1,1019.983,0.875,76,120
4966,E2,1019.983,0.125,92,120
4967,C#2,1019.983,0.125,92,120
4968,A1,1019.983,0.125,92,120
4969,D5,1019.983,0.125,92,120
4970,A4,1020.0,1.875,54,120
4971,A5,1020.0,1.875,54,120
4972,D5,1020.5,0.125,64,120
4973,F#1,1020.983,0.875,61,120
4974,A3,1020.983,0.875,61,120
4975,A4,1020.983,0.875,61,120
4976,F#2,1020.983,0.125,64,120
4977,D5,1020.983,0.125,64,120
4978,D5,1021.5,0.125,64,120
4979,G1,1021.983,17/1000,76,120
4980,D4,1022.0,0.875,64,120
4981,D4,1022.0,5.75,32,120
4982,C#5,1022.0,0.375,64,120
4983,G1,1022.0,483/1000,76,120
4984,G1,1022.483,0.125,70,120
4985,D5,1022.483,0.125,70,120
4986,G1,1022.983,0.125,68,120
4987,F#2,1022.983,0.125,68,120
4988,D5,1022.983,0.125,68,120
4989,D4,1023.0,2.375,54,120
4990,D5,1023.0,2.375,54,120
4991,G1,1023.483,0.5,76,120
4992,D5,1023.5,0.125,64,120
4993,G4,1023.5,0.875,54,120
4994,G5,1023.5,0.875,54,120
4995,G1,1023.983,0.125,70,120
4996,D5,1023.983,0.125,70,120
4997,G1,1024.483,0.125,70,120
4998,D5,1024.483,0.125,70,120
4999,F#4,1024.5,0.875,54,120
5000,F#5,1024.5,0.875,54,120
5001,G1,1024.983,0.875,76,120
5002,F#2,1024.983,0.125,64,120
5003,C#5,1025.0,0.375,64,120
5004,D5,1025.5,0.125,64,120
5005,D4,1025.5,0.875,54,120
5006,D5,1025.5,0.875,54,120
5007,G1,1025.983,0.875,76,120
5008,E2,1025.983,0.125,92,120
5009,C#2,1025.983,0.125,92,120
5010,A1,1025.983,0.125,92,120
5011,D5,1025.983,0.125,92,120
5012,D5,1026.5,0.125,64,120
5013,E4,1026.5,0.875,54,120
5014,E5,1026.5,0.875,54,120
5015,G1,1026.983,0.875,76,120
5016,F#2,1026.983,0.125,64,120
5017,D5,1026.983,0.125,64,120
5018,D5,1027.5,0.125,64,120
5019,D4,1027.5,0.5,54,120
5020,D5,1027.5,0.5,54,120
5021,A1,1027.983,17/1000,76,120
5022,A3,1028.0,5.75,32,120
5023,C#5,1028.0,0.375,64,120
5024,A1,1028.0,483/1000,76,120
5025,A3,1028.0,2.375,54,120
5026,A4,1028.0,2.375,54,120
5027,D4,1028.0,0.875,54,120
5028,D5,1028.0,0.875,54,120
5029,A1,1028.483,0.125,70,120
5030,D5,1028.483,0.125,70,120
5031,A1,1028.983,0.125,68,120
5032,F#2,1028.983,0.125,68,120
5033,D5,1028.983,0.125,68,120
5034,E4,1029.0,0.375,54,120
5035,E5,1029.0,0.375,54,120
5036,A1,1029.483,0.5,76,120
5037,D5,1029.5,0.125,64,120
5038,D4,1029.5,1.875,54,120
5039,D5,1029.5,1.875,54,120
5040,A1,1029.983,0.125,70,120
5041,D5,1029.983,0.125,70,120
5042,A1,1030.483,0.125,70,120
5043,D5,1030.483,0.125,70,120
5044,A3,1030.5,2.875,54,120
5045,A4,1030.5,2.875,54,120
5046,A1,1030.983,0.875,76,120
5047,F#2,1030.983,0.125,64,120
5048,C#5,1031.0,0.375,64,120
5049,D5,1031.5,0.125,64,120
5050,D4,1031.5,0.875,54,120
5051,D5,1031.5,0.875,54,120
5052,A1,1031.983,0.875,76,120
5053,E2,1031.983,0.125,92,120
5054,C#2,1031.983,0.125,92,120
5055,A1,1031.983,0.125,92,120
5056,D5,1031.983,0.125,92,120
5057,D5,1032.5,0.125,64,120
5058,D4,1032.5,1.375,59,120
5059,D5,1032.5,1.375,59,120
5060,D5,1032.5,1.375,59,120
5061,B5,1032.5,1.375,59,120
5062,A1,1032.983,0.875,76,120
5063,F#2,1032.983,0.125,64,120
5064,D5,1032.983,0.125,64,120
5065,D5,1033.5,0.125,64,120
5066,A3,1033.5,0.5,54,120
5067,A4,1033.5,0.5,54,120
5068,B-6,1034.0,6.0,29,120
5069,C4,1034.0,0.25,96,120
5070,B-1,1034.0,3.875,61,120
5071,B-2,1034.0,3.875,61,120
5072,B-4,1034.0,3.875,61,120
5073,C#3,1034.0,0.125,64,120
5074,E3,1034.0,0.125,64,120
5075,G3,1034.0,0.125,64,120
5076,A3,1034.0,0.125,64,120
5077,B3,1034.0,0.125,64,120
5078,F3,1034.0,0.125,64,120
5079,E-3,1034.0,0.125,64,120
5080,B-2,1034.0,0.125,64,120
5081,B-4,1034.0,0.375,64,120
5082,B-3,1034.0,0.375,64,120
5083,A3,1034.0,0.375,54,120
5084,A4,1034.0,0.375,54,120
5085,C4,1034.5,0.125,64,120
5086,F#2,1034.983,0.125,64,120
5087,B-3,1035.0,0.25,53,120
5088,B-4,1035.0,0.25,53,120
5089,C4,1035.0,0.25,53,120
5090,B3,1035.5,0.125,64,120
5091,D4,1035.5,0.25,53,120
5092,D5,1035.5,0.25,53,120
5093,C4,1035.5,0.25,53,120
5094,D5,1035.5,0.625,64,120
5095,D4,1035.5,0.625,64,120
5096,C4,1036.0,0.25,64,120
5097,C4,1036.5,0.25,64,120
5098,C4,1036.5,0.75,48,120
5099,C5,1036.5,0.75,48,120
5100,C5,1036.5,1.625,64,120
5101,C4,1036.5,1.625,64,120
5102,F#2,1036.983,0.125,64,120
5103,B3,1036.983,0.125,64,120
5104,C4,1037.0,0.25,96,120
5105,C4,1037.5,0.25,64,120
5106,E2,1037.983,0.125,101,120
5107,C#2,1037.983,0.125,101,120
5108,A1,1037.983,0.125,101,120
5109,C4,1038.0,0.25,64,120
5110,G#1,1038.0,2.0,61,120
5111,G#2,1038.0,2.0,61,120
5112,G#4,1038.0,2.0,61,120
5113,B3,1038.5,0.125,64,120
5114,D4,1038.5,0.25,53,120
5115,D5,1038.5,0.25,53,120
5116,C4,1038.5,0.25,53,120
5117,D5,1038.5,0.625,64,120
5118,D4,1038.5,0.625,64,120
5119,F#2,1038.983,0.125,64,120
5120,C4,1039.0,0.25,64,120
5121,C4,1039.5,0.25,64,120
5122,C4,1039.5,0.5,48,120
5123,C5,1039.5,0.5,48,120
5124,C5,1039.5,0.5,64,120
5125,C4,1039.5,0.5,64,120
5126,C4,1040.0,0.25,96,120
5127,B-6,1040.0,18.0,29,120
5128,F1,1040.0,1.5,61,120
5129,F2,1040.0,1.5,61,120
5130,F4,1040.0,1.5,61,120
5131,C#3,1040.0,0.125,64,120
5132,B3,1040.0,0.125,64,120
5133,C4,1040.0,0.25,48,120
5134,C5,1040.0,0.25,48,120
5135,C5,1040.0,1.125,64,120
5136,C4,1040.0,1.125,64,120
5137,C4,1040.5,0.125,64,120
5138,F#2,1040.983,0.125,64,120
5139,C4,1041.0,0.25,64,120
5140,B3,1041.5,0.125,64,120
5141,F1,1041.5,2.5,61,120
5142,F2,1041.5,2.5,61,120
5143,F4,1041.5,2.5,61,120
5144,D4,1041.5,0.25,53,120
5145,D5,1041.5,0.25,53,120
5146,C4,1041.5,0.25,53,120
5147,D5,1041.5,0.625,64,120
5148,D4,1041.5,0.625,64,120
5149,C4,1042.0,0.25,64,120
5150,C4,1042.5,0.25,64,120
5151,C4,1042.5,0.75,48,120
5152,C5,1042.5,0.75,48,120
5153,C5,1042.5,1.625,64,120
5154,C4,1042.5,1.625,64,120
5155,F#2,1042.983,0.125,64,120
5156,B3,1042.983,0.125,64,120
5157,C4,1043.0,0.25,96,120
5158,C4,1043.5,0.25,64,120
5159,E2,1043.983,0.125,101,120
5160,C#2,1043.983,0.125,101,120
5161,A1,1043.983,0.125,101,120
5162,C4,1044.0,0.25,64,120
5163,G#1,1044.0,2.0,61,120
5164,G#2,1044.0,2.0,61,120
5165,G#4,1044.0,2.0,61,120
5166,B3,1044.5,0.125,64,120
5167,D4,1044.5,0.25,53,120
5168,D5,1044.5,0.25,53,120
5169,C4,1044.5,0.25,53,120
5170,D5,1044.5,0.625,64,120
5171,D4,1044.5,0.625,64,120
5172,F#2,1044.983,0.125,64,120
5173,C4,1045.0,0.375,64,120
5174,B-3,1045.5,0.5,96,120
5175,C4,1045.5,0.5,48,120
5176,C5,1045.5,0.5,48,120
5177,C5,1045.5,0.5,64,120
5178,C4,1045.5,0.5,64,120
5179,B3,1058.0,0.125,64,120
5180,B-3,1058.0,0.5,96,120
5181,B-1,1058.0,1.5,61,120
5182,B-2,1058.0,1.5,61,120
5183,B-4,1058.0,1.5,61,120
5184,C4,1058.0,0.25,48,120
5185,C5,1058.0,0.25,48,120
5186,C5,1058.0,1.125,64,120
5187,C4,1058.0,1.125,64,120
5188,C4,1058.5,0.125,64,120
5189,F#2,1058.983,0.125,64,120
5190,B-3,1059.0,0.25,53,120
5191,B-4,1059.0,0.25,53,120
5192,C4,1059.0,0.25,53,120
5193,B3,1059.5,0.125,64,120
5194,B-1,1059.5,2.5,61,120
5195,B-2,1059.5,2.5,61,120
5196,B-4,1059.5,2.5,61,120
5197,D4,1059.5,0.25,53,120
5198,D5,1059.5,0.25,53,120
5199,C4,1059.5,0.25,53,120
5200,D5,1059.5,0.625,64,120
5201,D4,1059.5,0.625,64,120
5202,C4,1060.0,0.25,64,120
5203,C4,1060.5,0.25,64,120
5204,C4,1060.5,0.75,48,120
5205,C5,1060.5,0.75,48,120
5206,C5,1060.5,1.625,64,120
5207,C4,1060.5,1.625,64,120
5208,F#2,1060.983,0.125,64,120
5209,B3,1060.983,0.125,64,120
5210,C4,1061.0,0.25,96,120
5211,C4,1061.5,0.25,64,120
5212,E2,1061.983,0.125,101,120
5213,C#2,1061.983,0.125,101,120
5214,A1,1061.983,0.125,101,120
5215,C4,1062.0,0.25,64,120
5216,G#1,1062.0,2.0,61,120
5217,G#2,1062.0,2.0,61,120
5218,G#4,1062.0,2.0,61,120
5219,B3,1062.5,0.125,64,120
5220,D4,1062.5,0.25,53,120
5221,D5,1062.5,0.25,53,120
5222,C4,1062.5,0.25,53,120
5223,D5,1062.5,0.625,64,120
5224,D4,1062.5,0.625,64,120
5225,F#2,1062.983,0.125,64,120
5226,C4,1063.0,0.25,64,120
5227,C4,1063.5,0.25,64,120
5228,C4,1063.5,0.5,48,120
5229,C5,1063.5,0.5,48,120
5230,C5,1063.5,0.5,64,120
5231,C4,1063.5,0.5,64,120
5232,B3,1064.0,0.125,64,120
5233,C4,1064.0,0.25,96,120
5234,F1,1064.0,1.5,61,120
5235,F2,1064.0,1.5,61,120
5236,F4,1064.0,1.5,61,120
5237,C4,1064.0,0.25,48,120
5238,C5,1064.0,0.25,48,120
5239,C5,1064.0,1.125,64,120
5240,C4,1064.0,1.125,64,120
5241,C4,1064.5,0.125,64,120
5242,F#2,1064.983,0.125,64,120
5243,C4,1065.0,0.25,64,120
5244,B3,1065.5,0.125,64,120
5245,F1,1065.5,2.5,61,120
5246,F2,1065.5,2.5,61,120
5247,F4,1065.5,2.5,61,120
5248,D4,1065.5,0.25,53,120
5249,D5,1065.5,0.25,53,120
5250,C4,1065.5,0.25,53,120
5251,D5,1065.5,0.625,64,120
5252,D4,1065.5,0.625,64,120
5253,C4,1066.0,0.25,64,120
5254,C4,1066.5,0.25,64,120
5255,C4,1066.5,0.75,48,120
5256,C5,1066.5,0.75,48,120
5257,C5,1066.5,1.625,64,120
5258,C4,1066.5,1.625,64,120
5259,F#2,1066.983,0.125,64,120
5260,B3,1066.983,0.125,64,120
5261,C4,1067.0,0.25,96,120
5262,C4,1067.5,0.25,64,120
5263,E2,1067.983,0.125,101,120
5264,C#2,1067.983,0.125,101,120
5265,A1,1067.983,0.125,101,120
5266,G#1,1068.0,2.0,61,120
5267,G#2,1068.0,2.0,61,120
5268,G#4,1068.0,2.0,61,120
5269,E-4,1068.0,0.25,53,120
5270,E-5,1068.0,0.25,53,120
5271,C4,1068.0,0.25,53,120
5272,B3,1068.5,0.125,64,120
5273,D4,1068.5,0.25,53,120
5274,D5,1068.5,0.25,53,120
5275,C4,1068.5,0.25,53,120
5276,D5,1068.5,0.625,64,120
5277,D4,1068.5,0.625,64,120
5278,F#2,1068.983,0.125,64,120
5279,C4,1069.0,0.375,64,120
5280,B-3,1069.5,0.5,96,120
5281,C4,1069.5,0.5,48,120
5282,C5,1069.5,0.5,48,120
5283,C5,1069.5,0.5,64,120
5284,C4,1069.5,0.5,64,120
5285,B3,1070.0,0.125,64,120
5286,B-6,1070.0,6.0,64,120
5287,C4,1070.0,0.25,96,120
5288,B-3,1070.0,0.5,96,120
5289,B-1,1070.0,1.5,61,120
5290,B-2,1070.0,1.5,61,120
5291,B-4,1070.0,1.5,61,120
5292,C4,1070.0,0.25,48,120
5293,C5,1070.0,0.25,48,120
5294,C5,1070.0,1.125,64,120
5295,C4,1070.0,1.125,64,120
5296,C4,1070.5,0.125,64,120
5297,F#2,1070.983,0.125,64,120
5298,B-3,1071.0,0.25,53,120
5299,B-4,1071.0,0.25,53,120
5300,C4,1071.0,0.25,53,120
5301,B3,1071.5,0.125,64,120
5302,B-1,1071.5,2.5,61,120
5303,B-2,1071.5,2.5,61,120
5304,B-4,1071.5,2.5,61,120
5305,D4,1071.5,0.25,53,120
5306,D5,1071.5,0.25,53,120
5307,C4,1071.5,0.25,53,120
5308,D5,1071.5,0.625,64,120
5309,D4,1071.5,0.625,64,120
5310,C4,1072.0,0.25,64,120
5311,C4,1072.5,0.25,64,120
5312,C4,1072.5,0.75,48,120
5313,C5,1072.5,0.75,48,120
5314,C5,1072.5,1.625,64,120
5315,C4,1072.5,1.625,64,120
5316,F#2,1072.983,0.125,64,120
5317,B3,1072.983,0.125,64,120
5318,C4,1073.0,0.25,96,120
5319,C4,1073.5,0.25,64,120
5320,E2,1073.983,0.125,101,120
5321,C#2,1073.983,0.125,101,120
5322,A1,1073.983,0.125,101,120
5323,C4,1074.0,0.25,64,120
5324,G#1,1074.0,2.0,61,120
5325,G#2,1074.0,2.0,61,120
5326,G#4,1074.0,2.0,61,120
5327,B3,1074.5,0.125,64,120
5328,D4,1074.5,0.25,53,120
5329,D5,1074.5,0.25,53,120
5330,C4,1074.5,0.25,53,120
5331,D5,1074.5,0.625,64,120
5332,D4,1074.5,0.625,64,120
5333,F#2,1074.983,0.125,64,120
5334,C4,1075.0,0.25,64,120
5335,C4,1075.5,0.25,64,120
5336,C4,1075.5,0.5,48,120
5337,C5,1075.5,0.5,48,120
5338,C5,1075.5,0.5,64,120
5339,C4,1075.5,0.5,64,120
5340,B3,1076.0,0.125,64,120
5341,C4,1076.0,0.25,96,120
5342,B-6,1076.0,4.0,64,120
5343,F1,1076.0,1.5,61,120
5344,F2,1076.0,1.5,61,120
5345,F4,1076.0,1.5,61,120
5346,C4,1076.0,0.25,48,120
5347,C5,1076.0,0.25,48,120
5348,C5,1076.0,1.125,64,120
5349,C4,1076.0,1.125,64,120
5350,C4,1076.5,0.125,64,120
5351,F#2,1076.983,0.125,64,120
5352,C4,1077.0,0.25,64,120
5353,B3,1077.5,0.125,64,120
5354,F1,1077.5,2.5,61,120
5355,F2,1077.5,2.5,61,120
5356,F4,1077.5,2.5,61,120
5357,D4,1077.5,0.25,53,120
5358,D5,1077.5,0.25,53,120
5359,C4,1077.5,0.25,53,120
5360,D5,1077.5,0.625,64,120
5361,D4,1077.5,0.625,64,120
5362,C4,1078.0,0.25,64,120
5363,C4,1078.5,0.25,64,120
5364,C4,1078.5,0.75,48,120
5365,C5,1078.5,0.75,48,120
5366,C5,1078.5,1.625,64,120
5367,C4,1078.5,1.625,64,120
5368,F#2,1078.983,0.125,64,120
5369,B3,1078.983,0.125,64,120
5370,C4,1079.0,0.25,96,120
5371,C4,1079.5,0.25,64,120
5372,E2,1079.983,0.125,92,120
5373,C#2,1079.983,0.125,92,120
5374,A1,1079.983,0.125,92,120
5375,B6,1079.983,0.125,92,120
5376,C4,1080.0,0.25,64,120
5377,G#1,1080.0,2.0,61,120
5378,G#2,1080.0,2.0,61,120
5379,G#4,1080.0,2.0,61,120
5380,C7,1080.125,1.875,64,120
5381,B3,1080.5,0.125,64,120
5382,D4,1080.5,0.25,53,120
5383,D5,1080.5,0.25,53,120
5384,C4,1080.5,0.25,53,120
5385,D5,1080.5,0.625,64,120
5386,D4,1080.5,0.625,64,120
5387,F#2,1080.983,0.125,64,120
5388,C4,1081.0,0.375,64,120
5389,B-3,1081.5,0.5,96,120
5390,C4,1081.5,0.5,48,120
5391,C5,1081.5,0.5,48,120
5392,C5,1081.5,0.5,64,120
5393,C4,1081.5,0.5,64,120
5394,B3,1082.0,0.125,64,120
5395,G#6,1082.0,0.5,64,120
5396,B-3,1082.0,0.5,96,120
5397,B-1,1082.0,1.5,61,120
5398,B-2,1082.0,1.5,61,120
5399,B-4,1082.0,1.5,61,120
5400,C4,1082.0,0.25,48,120
5401,C5,1082.0,0.25,48,120
5402,C5,1082.0,1.125,64,120
5403,C4,1082.0,1.125,64,120
5404,F6,1082.5,5.375,64,120
5405,C4,1082.5,0.125,64,120
5406,F#2,1082.983,0.125,64,120
5407,B-3,1083.0,0.25,53,120
5408,B-4,1083.0,0.25,53,120
5409,C4,1083.0,0.25,53,120
5410,B3,1083.5,0.125,64,120
5411,B-1,1083.5,2.5,61,120
5412,B-2,1083.5,2.5,61,120
5413,B-4,1083.5,2.5,61,120
5414,D4,1083.5,0.25,53,120
5415,D5,1083.5,0.25,53,120
5416,C4,1083.5,0.25,53,120
5417,D5,1083.5,0.625,64,120
5418,D4,1083.5,0.625,64,120
5419,C4,1084.0,0.25,64,120
5420,C4,1084.5,0.25,64,120
5421,C4,1084.5,0.75,48,120
5422,C5,1084.5,0.75,48,120
5423,C5,1084.5,1.625,64,120
5424,C4,1084.5,1.625,64,120
5425,F#2,1084.983,0.125,64,120
5426,B3,1084.983,0.125,64,120
5427,C4,1085.0,0.25,96,120
5428,C4,1085.5,0.25,64,120
5429,E2,1085.983,0.125,101,120
5430,C#2,1085.983,0.125,101,120
5431,A1,1085.983,0.125,101,120
5432,C4,1086.0,0.25,64,120
5433,G#1,1086.0,2.0,61,120
5434,G#2,1086.0,2.0,61,120
5435,G#4,1086.0,2.0,61,120
5436,B3,1086.5,0.125,64,120
5437,D4,1086.5,0.25,53,120
5438,D5,1086.5,0.25,53,120
5439,C4,1086.5,0.25,53,120
5440,D5,1086.5,0.625,64,120
5441,D4,1086.5,0.625,64,120
5442,F#2,1086.983,0.125,64,120
5443,C4,1087.0,0.25,64,120
5444,C4,1087.5,0.25,64,120
5445,C4,1087.5,0.5,48,120
5446,C5,1087.5,0.5,48,120
5447,C5,1087.5,0.5,64,120
5448,C4,1087.5,0.5,64,120
5449,G#6,1087.875,0.125,64,120
5450,B3,1088.0,0.125,64,120
5451,B-6,1088.0,6.0,64,120
5452,C4,1088.0,0.25,96,120
5453,F1,1088.0,1.5,61,120
5454,F2,1088.0,1.5,61,120
5455,F4,1088.0,1.5,61,120
5456,C4,1088.0,0.25,48,120
5457,C5,1088.0,0.25,48,120
5458,C5,1088.0,1.125,64,120
5459,C4,1088.0,1.125,64,120
5460,C4,1088.5,0.125,64,120
5461,F#2,1088.983,0.125,64,120
5462,C4,1089.0,0.25,64,120
5463,B3,1089.5,0.125,64,120
5464,F1,1089.5,2.5,61,120
5465,F2,1089.5,2.5,61,120
5466,F4,1089.5,2.5,61,120
5467,D4,1089.5,0.25,53,120
5468,D5,1089.5,0.25,53,120
5469,C4,1089.5,0.25,53,120
5470,D5,1089.5,0.625,64,120
5471,D4,1089.5,0.625,64,120
5472,C4,1090.0,0.25,64,120
5473,C4,1090.5,0.25,64,120
5474,C4,1090.5,0.75,48,120
5475,C5,1090.5,0.75,48,120
5476,C5,1090.5,1.625,64,120
5477,C4,1090.5,1.625,64,120
5478,F#2,1090.983,0.125,64,120
5479,B3,1090.983,0.125,64,120
5480,C4,1091.0,0.25,96,120
5481,C4,1091.5,0.25,64,120
5482,E2,1091.983,0.125,101,120
5483,C#2,1091.983,0.125,101,120
5484,A1,1091.983,0.125,101,120
5485,G#1,1092.0,2.0,61,120
5486,G#2,1092.0,2.0,61,120
5487,G#4,1092.0,2.0,61,120
5488,E-4,1092.0,0.25,53,120
5489,E-5,1092.0,0.25,53,120
5490,C4,1092.0,0.25,53,120
5491,B3,1092.5,0.125,64,120
5492,D4,1092.5,0.25,53,120
5493,D5,1092.5,0.25,53,120
5494,C4,1092.5,0.25,53,120
5495,D5,1092.5,0.625,64,120
5496,D4,1092.5,0.625,64,120
5497,F#2,1092.983,0.125,64,120
5498,C4,1093.0,0.375,64,120
5499,C4,1093.5,0.5,64,120
5500,C5,1093.5,0.5,32,120
5501,B-3,1093.5,0.5,96,120
5502,C5,1093.5,0.5,64,120
5503,C4,1093.5,0.5,64,120
5504,C4,1094.0,0.25,96,120
5505,B-4,1094.0,0.5,32,120
5506,C4,1094.0,0.25,64,120
5507,B-6,1094.0,4.0,64,120
5508,B-3,1094.0,0.5,96,120
5509,B-1,1094.0,3.875,61,120
5510,B-2,1094.0,3.875,61,120
5511,B-4,1094.0,3.875,61,120
5512,B3,1094.0,0.125,64,120
5513,B-2,1094.0,0.125,64,120
5514,C5,1094.0,1.125,64,120
5515,C4,1094.0,1.125,64,120
5516,C4,1094.5,0.125,64,120
5517,F#2,1094.983,0.125,64,120
5518,B-3,1095.0,0.25,53,120
5519,B-4,1095.0,0.25,53,120
5520,C4,1095.0,0.25,53,120
5521,B3,1095.5,0.125,64,120
5522,D4,1095.5,0.25,53,120
5523,D5,1095.5,0.25,53,120
5524,C4,1095.5,0.25,53,120
5525,D5,1095.5,0.625,64,120
5526,D4,1095.5,0.625,64,120
5527,C4,1096.0,0.25,64,120
5528,C4,1096.5,0.25,64,120
5529,C4,1096.5,0.75,48,120
5530,C5,1096.5,0.75,48,120
5531,C5,1096.5,1.625,64,120
5532,C4,1096.5,1.625,64,120
5533,F#2,1096.983,0.125,64,120
5534,B3,1096.983,0.125,64,120
5535,C4,1097.0,0.25,96,120
5536,C4,1097.5,0.25,64,120
5537,E2,1097.983,0.125,95,120
5538,C#2,1097.983,0.125,95,120
5539,A1,1097.983,0.125,95,120
5540,E2,1097.983,0.125,95,120
5541,C#2,1097.983,0.125,95,120
5542,B6,1097.983,0.125,95,120
5543,C4,1098.0,0.25,64,120
5544,G#1,1098.0,2.0,61,120
5545,G#2,1098.0,2.0,61,120
5546,G#4,1098.0,2.0,61,120
5547,C7,1098.125,1.875,64,120
5548,B3,1098.5,0.125,64,120
5549,D4,1098.5,0.25,53,120
5550,D5,1098.5,0.25,53,120
5551,C4,1098.5,0.25,53,120
5552,D5,1098.5,0.625,64,120
5553,D4,1098.5,0.625,64,120
5554,F#2,1098.983,0.125,64,120
5555,C4,1099.0,0.25,64,120
5556,C4,1099.5,0.25,64,120
5557,C4,1099.5,0.5,48,120
5558,C5,1099.5,0.5,48,120
5559,C5,1099.5,0.5,64,120
5560,C4,1099.5,0.5,64,120
5561,G#6,1100.0,0.5,64,120
5562,C4,1100.0,0.25,96,120
5563,F1,1100.0,1.5,61,120
5564,F2,1100.0,1.5,61,120
5565,F4,1100.0,1.5,61,120
5566,C#3,1100.0,0.125,64,120
5567,B3,1100.0,0.125,64,120
5568,C4,1100.0,0.25,48,120
5569,C5,1100.0,0.25,48,120
5570,C5,1100.0,1.125,64,120
5571,C4,1100.0,1.125,64,120
5572,F6,1100.5,5.375,64,120
5573,C4,1100.5,0.125,64,120
5574,F#2,1100.983,0.125,64,120
5575,C4,1101.0,0.25,64,120
5576,B3,1101.5,0.125,64,120
5577,F1,1101.5,2.5,61,120
5578,F2,1101.5,2.5,61,120
5579,F4,1101.5,2.5,61,120
5580,D4,1101.5,0.25,53,120
5581,D5,1101.5,0.25,53,120
5582,C4,1101.5,0.25,53,120
5583,D5,1101.5,0.625,64,120
5584,D4,1101.5,0.625,64,120
5585,C4,1102.0,0.25,64,120
5586,C4,1102.5,0.25,64,120
5587,C4,1102.5,0.75,48,120
5588,C5,1102.5,0.75,48,120
5589,C5,1102.5,1.625,64,120
5590,C4,1102.5,1.625,64,120
5591,F#2,1102.983,0.125,64,120
5592,B3,1102.983,0.125,64,120
5593,C4,1103.0,0.25,96,120
5594,C4,1103.5,0.25,64,120
5595,E2,1103.983,0.125,101,120
5596,C#2,1103.983,0.125,101,120
5597,A1,1103.983,0.125,101,120
5598,E2,1103.983,0.125,101,120
5599,C#2,1103.983,0.125,101,120
5600,C4,1104.0,0.25,64,120
5601,G#1,1104.0,2.0,61,120
5602,G#2,1104.0,2.0,61,120
5603,G#4,1104.0,2.0,61,120
5604,B3,1104.5,0.125,64,120
5605,D4,1104.5,0.25,53,120
5606,D5,1104.5,0.25,53,120
5607,C4,1104.5,0.25,53,120
5608,D5,1104.5,0.625,64,120
5609,D4,1104.5,0.625,64,120
5610,F#2,1104.983,0.125,64,120
5611,C4,1105.0,0.375,64,120
5612,B-3,1105.5,0.5,96,120
5613,C4,1105.5,0.5,48,120
5614,C5,1105.5,0.5,48,120
5615,C5,1105.5,0.5,64,120
5616,C4,1105.5,0.5,64,120
5617,G#6,1105.875,0.125,64,120
5618,B3,1106.0,0.125,64,120
5619,B-6,1106.0,6.0,64,120
5620,B-3,1106.0,0.5,96,120
5621,B-1,1106.0,1.5,61,120
5622,B-2,1106.0,1.5,61,120
5623,B-4,1106.0,1.5,61,120
5624,C4,1106.0,0.25,48,120
5625,C5,1106.0,0.25,48,120
5626,C5,1106.0,1.125,64,120
5627,C4,1106.0,1.125,64,120
5628,C4,1106.5,0.125,64,120
5629,F#2,1106.983,0.125,64,120
5630,F#2,1106.983,0.125,64,120
5631,B-3,1107.0,0.25,53,120
5632,B-4,1107.0,0.25,53,120
5633,C4,1107.0,0.25,53,120
5634,B3,1107.5,0.125,64,120
5635,B-1,1107.5,2.5,61,120
5636,B-2,1107.5,2.5,61,120
5637,B-4,1107.5,2.5,61,120
5638,D4,1107.5,0.25,53,120
5639,D5,1107.5,0.25,53,120
5640,C4,1107.5,0.25,53,120
5641,D5,1107.5,0.625,64,120
5642,D4,1107.5,0.625,64,120
5643,C4,1108.0,0.25,64,120
5644,C4,1108.5,0.25,64,120
5645,C4,1108.5,0.75,48,120
5646,C5,1108.5,0.75,48,120
5647,C5,1108.5,1.625,64,120
5648,C4,1108.5,1.625,64,120
5649,F#2,1108.983,0.125,64,120
5650,F#2,1108.983,0.125,64,120
5651,B3,1108.983,0.125,64,120
5652,C4,1109.0,0.25,96,120
5653,C4,1109.5,0.25,64,120
5654,E2,1109.983,0.125,101,120
5655,C#2,1109.983,0.125,101,120
5656,A1,1109.983,0.125,101,120
5657,E2,1109.983,0.125,101,120
5658,C#2,1109.983,0.125,101,120
5659,C4,1110.0,0.25,64,120
5660,G#1,1110.0,2.0,61,120
5661,G#2,1110.0,2.0,61,120
5662,G#4,1110.0,2.0,61,120
5663,B3,1110.5,0.125,64,120
5664,D4,1110.5,0.25,53,120
5665,D5,1110.5,0.25,53,120
5666,C4,1110.5,0.25,53,120
5667,D5,1110.5,0.625,64,120
5668,D4,1110.5,0.625,64,120
5669,F#2,1110.983,0.125,64,120
5670,F#2,1110.983,0.125,64,120
5671,C4,1111.0,0.25,64,120
5672,C4,1111.5,0.25,64,120
5673,C4,1111.5,0.5,48,120
5674,C5,1111.5,0.5,48,120
5675,C5,1111.5,0.5,64,120
5676,C4,1111.5,0.5,64,120
5677,B3,1112.0,0.125,64,120
5678,C4,1112.0,0.25,96,120
5679,B-6,1112.0,4.0,64,120
5680,F1,1112.0,1.5,61,120
5681,F2,1112.0,1.5,61,120
5682,F4,1112.0,1.5,61,120
5683,C4,1112.0,0.25,48,120
5684,C5,1112.0,0.25,48,120
5685,C5,1112.0,1.125,64,120
5686,C4,1112.0,1.125,64,120
5687,C4,1112.5,0.125,64,120
5688,F#2,1112.983,0.125,64,120
5689,F#2,1112.983,0.125,64,120
5690,C4,1113.0,0.25,64,120
5691,B3,1113.5,0.125,64,120
5692,F1,1113.5,2.5,61,120
5693,F2,1113.5,2.5,61,120
5694,F4,1113.5,2.5,61,120
5695,D4,1113.5,0.25,53,120
5696,D5,1113.5,0.25,53,120
5697,C4,1113.5,0.25,53,120
5698,D5,1113.5,0.625,64,120
5699,D4,1113.5,0.625,64,120
5700,C4,1114.0,0.25,64,120
5701,C4,1114.5,0.25,64,120
5702,C4,1114.5,0.75,48,120
5703,C5,1114.5,0.75,48,120
5704,C5,1114.5,1.625,64,120
5705,C4,1114.5,1.625,64,120
5706,F#2,1114.983,0.125,64,120
5707,F#2,1114.983,0.125,64,120
5708,B3,1114.983,0.125,64,120
5709,C4,1115.0,0.25,96,120
5710,C4,1115.5,0.25,64,120
5711,E2,1115.983,0.125,95,120
5712,C#2,1115.983,0.125,95,120
5713,A1,1115.983,0.125,95,120
5714,E2,1115.983,0.125,95,120
5715,C#2,1115.983,0.125,95,120
5716,B6,1115.983,0.125,95,120
5717,G#1,1116.0,2.0,61,120
5718,G#2,1116.0,2.0,61,120
5719,G#4,1116.0,2.0,61,120
5720,E-4,1116.0,0.25,53,120
5721,E-5,1116.0,0.25,53,120
5722,C4,1116.0,0.25,53,120
5723,C7,1116.125,1.875,64,120
5724,B3,1116.5,0.125,64,120
5725,D4,1116.5,0.25,53,120
5726,D5,1116.5,0.25,53,120
5727,C4,1116.5,0.25,53,120
5728,D5,1116.5,0.625,64,120
5729,D4,1116.5,0.625,64,120
5730,F#2,1116.983,0.125,64,120
5731,F#2,1116.983,0.125,64,120
5732,C4,1117.0,0.375,64,120
5733,B-3,1117.5,0.5,96,120
5734,C4,1117.5,0.5,48,120
5735,C5,1117.5,0.5,48,120
5736,C5,1117.5,0.5,64,120
5737,C4,1117.5,0.5,64,120
5738,B3,1118.0,0.125,64,120
5739,G#6,1118.0,0.5,64,120
5740,C4,1118.0,0.25,96,120
5741,B-3,1118.0,0.5,96,120
5742,B-1,1118.0,1.5,61,120
5743,B-2,1118.0,1.5,61,120
5744,B-4,1118.0,1.5,61,120
5745,C4,1118.0,0.25,48,120
5746,C5,1118.0,0.25,48,120
5747,C5,1118.0,1.125,64,120
5748,C4,1118.0,1.125,64,120
5749,F6,1118.5,5.375,64,120
5750,C4,1118.5,0.125,64,120
5751,F#2,1118.983,0.125,64,120
5752,F#2,1118.983,0.125,64,120
5753,B-3,1119.0,0.25,53,120
5754,B-4,1119.0,0.25,53,120
5755,C4,1119.0,0.25,53,120
5756,B3,1119.5,0.125,64,120
5757,B-1,1119.5,2.5,61,120
5758,B-2,1119.5,2.5,61,120
5759,B-4,1119.5,2.5,61,120
5760,D4,1119.5,0.25,53,120
5761,D5,1119.5,0.25,53,120
5762,C4,1119.5,0.25,53,120
5763,D5,1119.5,0.625,64,120
5764,D4,1119.5,0.625,64,120
5765,C4,1120.0,0.25,64,120
5766,C4,1120.5,0.25,64,120
5767,C4,1120.5,0.75,48,120
5768,C5,1120.5,0.75,48,120
5769,C5,1120.5,1.625,64,120
5770,C4,1120.5,1.625,64,120
5771,F#2,1120.983,0.125,64,120
5772,F#2,1120.983,0.125,64,120
5773,B3,1120.983,0.125,64,120
5774,C4,1121.0,0.25,96,120
5775,C4,1121.5,0.25,64,120
5776,E2,1121.983,0.125,101,120
5777,C#2,1121.983,0.125,101,120
5778,A1,1121.983,0.125,101,120
5779,E2,1121.983,0.125,101,120
5780,C#2,1121.983,0.125,101,120
5781,C4,1122.0,0.25,64,120
5782,G#1,1122.0,2.0,61,120
5783,G#2,1122.0,2.0,61,120
5784,G#4,1122.0,2.0,61,120
5785,B3,1122.5,0.125,64,120
5786,D4,1122.5,0.25,53,120
5787,D5,1122.5,0.25,53,120
5788,C4,1122.5,0.25,53,120
5789,D5,1122.5,0.625,64,120
5790,D4,1122.5,0.625,64,120
5791,F#2,1122.983,0.125,64,120
5792,F#2,1122.983,0.125,64,120
5793,C4,1123.0,0.25,64,120
5794,C4,1123.5,0.25,64,120
5795,C4,1123.5,0.5,48,120
5796,C5,1123.5,0.5,48,120
5797,C5,1123.5,0.5,64,120
5798,C4,1123.5,0.5,64,120
5799,B3,1124.0,0.125,64,120
5800,B-5,1124.0,5.5,64,120
5801,C4,1124.0,0.25,96,120
5802,F1,1124.0,1.5,61,120
5803,F2,1124.0,1.5,61,120
5804,F4,1124.0,1.5,61,120
5805,C4,1124.0,0.25,48,120
5806,C5,1124.0,0.25,48,120
5807,C5,1124.0,1.125,64,120
5808,C4,1124.0,1.125,64,120
5809,C4,1124.5,0.125,64,120
5810,F#2,1124.983,0.125,64,120
5811,F#2,1124.983,0.125,64,120
5812,C4,1125.0,0.25,64,120
5813,B3,1125.5,0.125,64,120
5814,F1,1125.5,2.5,61,120
5815,F2,1125.5,2.5,61,120
5816,F4,1125.5,2.5,61,120
5817,D4,1125.5,0.25,53,120
5818,D5,1125.5,0.25,53,120
5819,C4,1125.5,0.25,53,120
5820,D5,1125.5,0.625,64,120
5821,D4,1125.5,0.625,64,120
5822,C4,1126.0,0.25,64,120
5823,C4,1126.5,0.25,64,120
5824,C4,1126.5,0.75,48,120
5825,C5,1126.5,0.75,48,120
5826,C5,1126.5,1.625,64,120
5827,C4,1126.5,1.625,64,120
5828,F#2,1126.983,0.125,64,120
5829,F#2,1126.983,0.125,64,120
5830,B3,1126.983,0.125,64,120
5831,C4,1127.0,0.25,96,120
5832,C4,1127.5,0.25,64,120
5833,E2,1127.983,0.125,101,120
5834,C#2,1127.983,0.125,101,120
5835,A1,1127.983,0.125,101,120
5836,E2,1127.983,0.125,101,120
5837,C#2,1127.983,0.125,101,120
5838,C4,1128.0,0.25,64,120
5839,G#1,1128.0,2.0,61,120
5840,G#2,1128.0,2.0,61,120
5841,G#4,1128.0,2.0,61,120
5842,B3,1128.5,0.125,64,120
5843,D4,1128.5,0.25,53,120
5844,D5,1128.5,0.25,53,120
5845,C4,1128.5,0.25,53,120
5846,D5,1128.5,0.625,64,120
5847,D4,1128.5,0.625,64,120
5848,F#2,1128.983,0.125,64,120
5849,F#2,1128.983,0.125,64,120
5850,C4,1129.0,0.375,64,120
5851,C5,1129.5,0.5,32,120
5852,C4,1129.5,0.375,64,120
5853,B-3,1129.5,0.5,96,120
5854,C5,1129.5,0.5,64,120
5855,C4,1129.5,0.5,64,120
5856,B-1,1131.125,1.5,76,120
5857,C#2,1131.125,0.125,92,120
5858,C5,1131.125,0.25,32,120
5859,B-3,1131.125,0.5,96,120
5860,C4,1131.125,0.25,96,120
5861,C4,1131.125,0.25,96,120
5862,C5,1131.125,1.125,64,120
5863,C4,1131.125,1.125,64,120
5864,C4,1131.625,0.125,64,120
5865,C4,1131.625,0.125,64,120
5866,C4,1131.625,0.125,64,120
5867,F#2,1132.108,0.125,73,120
5868,F#2,1132.108,0.125,73,120
5869,C#2,1132.108,0.125,73,120
5870,C4,1132.125,0.25,64,120
5871,C4,1132.125,0.25,64,120
5872,C4,1132.125,0.25,64,120
5873,C#2,1132.625,0.125,92,120
5874,B-1,1132.625,0.375,76,120
5875,C4,1132.625,0.25,64,120
5876,C4,1132.625,0.25,64,120
5877,C4,1132.625,0.25,64,120
5878,C#2,1133.125,0.125,92,120
5879,C4,1133.125,0.25,64,120
5880,C4,1133.125,0.25,64,120
5881,C4,1133.125,0.25,64,120
5882,C#2,1133.625,0.125,92,120
5883,C4,1133.625,0.25,64,120
5884,C4,1133.625,0.25,64,120
5885,C4,1133.625,0.25,64,120
5886,F#2,1134.108,0.125,73,120
5887,F#2,1134.108,0.125,73,120
5888,C#2,1134.108,0.125,73,120
5889,C4,1134.125,0.25,96,120
5890,C4,1134.125,0.25,96,120
5891,C4,1134.125,0.25,96,120
5892,C#2,1134.625,0.125,92,120
5893,C4,1134.625,0.25,64,120
5894,C4,1134.625,0.25,64,120
5895,C4,1134.625,0.25,64,120
5896,E2,1135.108,0.125,101,120
5897,C#2,1135.108,0.125,101,120
5898,A1,1135.108,0.125,101,120
5899,E2,1135.108,0.125,101,120
5900,C#2,1135.108,0.125,101,120
5901,C4,1135.125,0.25,64,120
5902,C4,1135.125,0.25,64,120
5903,C4,1135.125,0.25,64,120
5904,C4,1135.625,0.25,64,120
5905,C4,1135.625,0.25,64,120
5906,C4,1135.625,0.25,64,120
5907,F#2,1136.108,0.125,64,120
5908,F#2,1136.108,0.125,64,120
5909,C4,1136.125,0.25,64,120
5910,C4,1136.125,0.25,64,120
5911,C4,1136.125,0.25,64,120
5912,C#2,1136.625,0.125,92,120
5913,C4,1136.625,0.25,64,120
5914,C4,1136.625,0.25,64,120
5915,C4,1136.625,0.25,64,120
5916,C#2,1137.125,0.125,92,120
5917,C4,1137.125,0.25,96,120
5918,C4,1137.125,0.25,96,120
5919,C4,1137.125,0.25,96,120
5920,C4,1137.625,0.125,64,120
5921,C4,1137.625,0.125,64,120
5922,C4,1137.625,0.125,64,120
5923,F#2,1138.108,0.125,73,120
5924,F#2,1138.108,0.125,73,120
5925,C#2,1138.108,0.125,73,120
5926,C4,1138.125,0.25,64,120
5927,C4,1138.125,0.25,64,120
5928,C4,1138.125,0.25,64,120
5929,C#2,1138.625,0.125,92,120
5930,C4,1138.625,0.25,64,120
5931,C4,1138.625,0.25,64,120
5932,C4,1138.625,0.25,64,120
5933,C#2,1139.125,0.125,92,120
5934,C4,1139.125,0.25,64,120
5935,C4,1139.125,0.25,64,120
5936,C4,1139.125,0.25,64,120
5937,C#2,1139.625,0.125,92,120
5938,C4,1139.625,0.25,64,120
5939,C4,1139.625,0.25,64,120
5940,C4,1139.625,0.25,64,120
5941,F#2,1140.108,0.125,73,120
5942,F#2,1140.108,0.125,73,120
5943,C#2,1140.108,0.125,73,120
5944,C4,1140.125,0.25,96,120
5945,C4,1140.125,0.25,96,120
5946,C4,1140.125,0.25,96,120
5947,C#2,1140.625,0.125,92,120
5948,C4,1140.625,0.25,64,120
5949,C4,1140.625,0.25,64,120
5950,C4,1140.625,0.25,64,120
5951,E2,1141.108,0.125,101,120
5952,C#2,1141.108,0.125,101,120
5953,A1,1141.108,0.125,101,120
5954,E2,1141.108,0.125,101,120
5955,C#2,1141.108,0.125,101,120
5956,C#2,1141.108,0.125,101,120
5957,C#2,1141.108,0.125,101,120
5958,C4,1141.125,0.25,64,120
5959,C4,1141.125,0.25,64,120
5960,C4,1141.125,0.25,64,120
5961,C4,1141.625,0.25,64,120
5962,C4,1141.625,0.25,64,120
5963,C4,1141.625,0.25,64,120
5964,F#2,1142.108,0.125,64,120
5965,F#2,1142.108,0.125,64,120
5966,C4,1142.125,0.375,64,120
5967,C4,1142.125,0.375,64,120
5968,C4,1142.125,0.375,64,120
5969,C#2,1142.625,0.125,92,120
5970,B-3,1142.625,0.5,96,120
5971,B-3,1142.625,0.5,96,120
5972,B-3,1142.625,0.5,96,120
5973,C#2,1143.125,0.125,92,120
5974,B-3,1143.125,0.5,96,120
5975,B-3,1143.125,0.5,96,120
5976,B-3,1143.125,0.5,96,120
5977,C4,1143.625,0.125,64,120
5978,C4,1143.625,0.125,64,120
5979,F#2,1144.108,0.125,78,120
5980,C#2,1144.108,0.125,78,120
5981,C4,1144.125,0.25,64,120
5982,C4,1144.125,0.25,64,120
5983,C#2,1144.625,0.125,92,120
5984,C4,1144.625,0.25,64,120
5985,C4,1144.625,0.25,64,120
5986,C#2,1145.125,0.125,92,120
5987,C4,1145.125,0.25,64,120
5988,C4,1145.125,0.25,64,120
5989,C#2,1145.625,0.125,92,120
5990,C4,1145.625,0.25,64,120
5991,C4,1145.625,0.25,64,120
5992,F#2,1146.108,0.125,78,120
5993,C#2,1146.108,0.125,78,120
5994,C4,1146.125,0.25,96,120
5995,C4,1146.125,0.25,96,120
5996,C#2,1146.625,0.125,92,120
5997,C4,1146.625,0.25,64,120
5998,C4,1146.625,0.25,64,120
5999,E2,1147.108,0.125,101,120
6000,C#2,1147.108,0.125,101,120
6001,A1,1147.108,0.125,101,120
6002,C#2,1147.108,0.125,101,120
6003,C#2,1147.108,0.125,101,120
6004,C4,1147.125,0.25,64,120
6005,C4,1147.125,0.25,64,120
6006,C4,1147.625,0.25,64,120
6007,C4,1147.625,0.25,64,120
6008,F#2,1148.108,0.125,64,120
6009,C4,1148.125,0.25,64,120
6010,C4,1148.125,0.25,64,120
6011,C#2,1148.625,0.125,92,120
6012,C4,1148.625,0.25,64,120
6013,C4,1148.625,0.25,64,120
6014,C#2,1149.125,0.125,92,120
6015,C4,1149.125,0.25,96,120
6016,C4,1149.125,0.25,96,120
6017,C4,1149.625,0.125,64,120
6018,C4,1149.625,0.125,64,120
6019,F#2,1150.108,0.125,78,120
6020,C#2,1150.108,0.125,78,120
6021,C4,1150.125,0.25,64,120
6022,C4,1150.125,0.25,64,120
6023,C#2,1150.625,0.125,92,120
6024,C4,1150.625,0.25,64,120
6025,C4,1150.625,0.25,64,120
6026,C#2,1151.125,0.125,92,120
6027,C4,1151.125,0.25,64,120
6028,C4,1151.125,0.25,64,120
6029,C#2,1151.625,0.125,92,120
6030,C4,1151.625,0.25,64,120
6031,C4,1151.625,0.25,64,120
6032,F#2,1152.108,0.125,78,120
6033,C#2,1152.108,0.125,78,120
6034,C4,1152.125,0.25,96,120
6035,C4,1152.125,0.25,96,120
6036,C#2,1152.625,0.125,92,120
6037,C4,1152.625,0.25,64,120
6038,C4,1152.625,0.25,64,120
6039,E2,1153.108,0.125,101,120
6040,C#2,1153.108,0.125,101,120
6041,A1,1153.108,0.125,101,120
6042,C#2,1153.108,0.125,101,120
6043,C#2,1153.108,0.125,101,120
6044,C4,1153.125,0.25,64,120
6045,C4,1153.125,0.25,64,120
6046,C4,1153.625,0.25,64,120
6047,C4,1153.625,0.25,64,120
6048,F#2,1154.108,0.125,64,120
6049,C4,1154.125,0.375,64,120
6050,C4,1154.125,0.375,64,120
6051,C#2,1154.625,0.125,92,120
6052,B-3,1154.625,0.5,96,120
6053,B-3,1154.625,0.5,96,120
6054,C#2,1155.125,0.125,92,120
6055,C4,1155.125,0.25,96,120
6056,B-3,1155.125,0.5,96,120
6057,B-3,1155.125,0.5,96,120
6058,C4,1155.625,0.125,64,120
6059,C4,1155.625,0.125,64,120
6060,F#2,1156.108,0.125,73,120
6061,F#2,1156.108,0.125,73,120
6062,C#2,1156.108,0.125,73,120
6063,C4,1156.125,0.25,64,120
6064,C4,1156.125,0.25,64,120
6065,C#2,1156.625,0.125,92,120
6066,C4,1156.625,0.25,64,120
6067,C4,1156.625,0.25,64,120
6068,C#2,1157.125,0.125,92,120
6069,C4,1157.125,0.25,64,120
6070,C4,1157.125,0.25,64,120
6071,C#2,1157.625,0.125,92,120
6072,C4,1157.625,0.25,64,120
6073,C4,1157.625,0.25,64,120
6074,F#2,1158.108,0.125,73,120
6075,F#2,1158.108,0.125,73,120
6076,C#2,1158.108,0.125,73,120
6077,C4,1158.125,0.25,96,120
6078,C4,1158.125,0.25,96,120
6079,C#2,1158.625,0.125,92,120
6080,C4,1158.625,0.25,64,120
6081,C4,1158.625,0.25,64,120
6082,E2,1159.108,0.125,101,120
6083,C#2,1159.108,0.125,101,120
6084,A1,1159.108,0.125,101,120
6085,E2,1159.108,0.125,101,120
6086,C#2,1159.108,0.125,101,120
6087,C4,1159.125,0.25,64,120
6088,C4,1159.125,0.25,64,120
6089,C4,1159.625,0.25,64,120
6090,C4,1159.625,0.25,64,120
6091,F#2,1160.108,0.125,64,120
6092,F#2,1160.108,0.125,64,120
6093,C4,1160.125,0.25,64,120
6094,C4,1160.125,0.25,64,120
6095,C#2,1160.625,0.125,92,120
6096,C4,1160.625,0.25,64,120
6097,C4,1160.625,0.25,64,120
6098,B-3,1161.125,0.5,96,120
6099,C#2,1161.125,0.125,92,120
6100,B-3,1161.125,0.25,96,120
6101,C4,1161.625,0.125,64,120
6102,C4,1161.625,0.125,64,120
6103,F#2,1162.108,0.125,73,120
6104,F#2,1162.108,0.125,73,120
6105,C#2,1162.108,0.125,73,120
6106,C4,1162.125,0.25,64,120
6107,C4,1162.125,0.25,64,120
6108,C#2,1162.625,0.125,92,120
6109,C4,1162.625,0.25,64,120
6110,C4,1162.625,0.25,64,120
6111,C#2,1163.125,0.125,92,120
6112,C4,1163.125,0.25,64,120
6113,C4,1163.125,0.25,64,120
6114,C#2,1163.625,0.125,92,120
6115,C4,1163.625,0.25,64,120
6116,C4,1163.625,0.25,64,120
6117,F#2,1164.108,0.125,73,120
6118,F#2,1164.108,0.125,73,120
6119,C#2,1164.108,0.125,73,120
6120,C4,1164.125,0.25,96,120
6121,C4,1164.125,0.25,96,120
6122,C#2,1164.625,0.125,92,120
6123,C4,1164.625,0.25,64,120
6124,C4,1164.625,0.25,64,120
6125,E2,1165.108,0.125,101,120
6126,C#2,1165.108,0.125,101,120
6127,A1,1165.108,0.125,101,120
6128,E2,1165.108,0.125,101,120
6129,C#2,1165.108,0.125,101,120
6130,C#2,1165.108,0.125,101,120
6131,C#2,1165.108,0.125,101,120
6132,C4,1165.125,0.25,64,120
6133,C4,1165.125,0.25,64,120
6134,D4,1165.625,0.25,64,120
6135,D4,1165.625,0.25,64,120
6136,F#2,1166.108,0.125,64,120
6137,F#2,1166.108,0.125,64,120
6138,C4,1166.125,0.375,64,120
6139,C4,1166.125,0.375,64,120
6140,C#2,1166.625,0.125,92,120
6141,B-3,1166.625,0.5,96,120
6142,B-3,1166.625,0.5,96,120
6143,C#2,1167.125,0.125,92,120
6144,B-3,1167.125,0.5,96,120
6145,B-3,1167.125,0.5,96,120
6146,C4,1167.625,0.125,64,120
6147,C4,1167.625,0.125,64,120
6148,F#2,1168.108,0.125,78,120
6149,C#2,1168.108,0.125,78,120
6150,C4,1168.125,0.25,64,120
6151,C4,1168.125,0.25,64,120
6152,C#2,1168.625,0.125,92,120
6153,C4,1168.625,0.25,64,120
6154,C4,1168.625,0.25,64,120
6155,C#2,1169.125,0.125,92,120
6156,C4,1169.125,0.25,64,120
6157,C4,1169.125,0.25,64,120
6158,C#2,1169.625,0.125,92,120
6159,C4,1169.625,0.25,64,120
6160,C4,1169.625,0.25,64,120
6161,F#2,1170.108,0.125,78,120
6162,C#2,1170.108,0.125,78,120
6163,C4,1170.125,0.25,96,120
6164,C4,1170.125,0.25,96,120
6165,C#2,1170.625,0.125,92,120
6166,C4,1170.625,0.25,64,120
6167,C4,1170.625,0.25,64,120
6168,E2,1171.108,0.125,101,120
6169,C#2,1171.108,0.125,101,120
6170,A1,1171.108,0.125,101,120
6171,C#2,1171.108,0.125,101,120
6172,C#2,1171.108,0.125,101,120
6173,C4,1171.125,0.25,64,120
6174,C4,1171.125,0.25,64,120
6175,C4,1171.625,0.25,64,120
6176,C4,1171.625,0.25,64,120
6177,F#2,1172.108,0.125,64,120
6178,C4,1172.125,0.25,64,120
6179,C4,1172.125,0.25,64,120
6180,C#2,1172.625,0.125,92,120
6181,C4,1172.625,0.25,64,120
6182,C4,1172.625,0.25,64,120
6183,C#2,1173.125,0.125,92,120
6184,C4,1173.125,0.25,96,120
6185,C4,1173.125,0.25,96,120
6186,C4,1173.625,0.125,64,120
6187,C4,1173.625,0.125,64,120
6188,F#2,1174.108,0.125,78,120
6189,C#2,1174.108,0.125,78,120
6190,C4,1174.125,0.25,64,120
6191,C4,1174.125,0.25,64,120
6192,C#2,1174.625,0.125,92,120
6193,C4,1174.625,0.25,64,120
6194,C4,1174.625,0.25,64,120
6195,C#2,1175.125,0.125,92,120
6196,C4,1175.125,0.25,64,120
6197,C4,1175.125,0.25,64,120
6198,C#2,1175.625,0.125,92,120
6199,A3,1175.625,0.25,64,120
6200,A3,1175.625,0.25,64,120
6201,F#2,1176.108,0.125,78,120
6202,C#2,1176.108,0.125,78,120
6203,A3,1176.125,0.375,64,120
6204,A3,1176.125,0.25,96,120
6205,C#2,1176.625,0.125,92,120
6206,A3,1176.625,0.25,64,120
6207,A3,1176.625,0.25,64,120
6208,E2,1177.108,0.125,101,120
6209,C#2,1177.108,0.125,101,120
6210,A1,1177.108,0.125,101,120
6211,C#2,1177.108,0.125,101,120
6212,C#2,1177.108,0.125,101,120
6213,A3,1177.125,0.25,64,120
6214,A3,1177.125,0.25,64,120
6215,A3,1177.625,0.25,64,120
6216,A3,1177.625,0.25,64,120
6217,F#2,1178.108,0.125,64,120
6218,C4,1178.125,0.25,64,120
6219,C4,1178.125,0.375,64,120
6220,C#2,1178.625,0.125,92,120
6221,B-3,1178.625,0.5,96,120
6222,B-3,1178.625,0.5,96,120
6223,C#2,1179.125,0.125,92,120
6224,C4,1179.125,0.25,96,120
6225,B-3,1179.125,0.5,96,120
6226,B-3,1179.125,0.5,96,120
6227,C4,1179.625,0.125,64,120
6228,C4,1179.625,0.125,64,120
6229,F#2,1180.108,0.125,73,120
6230,F#2,1180.108,0.125,73,120
6231,C#2,1180.108,0.125,73,120
6232,C4,1180.125,0.25,66,120
6233,C4,1180.125,0.25,66,120
6234,C#2,1180.625,0.125,92,120
6235,C4,1180.625,0.25,66,120
6236,C4,1180.625,0.25,66,120
6237,C#2,1181.125,0.125,92,120
6238,C4,1181.125,0.25,66,120
6239,C4,1181.125,0.25,66,120
6240,C#2,1181.625,0.125,92,120
6241,C4,1181.625,0.25,66,120
6242,C4,1181.625,0.25,66,120
6243,F#2,1182.108,0.125,73,120
6244,F#2,1182.108,0.125,73,120
6245,C#2,1182.108,0.125,73,120
6246,C4,1182.125,0.25,90,120
6247,C4,1182.125,0.25,90,120
6248,C#2,1182.625,0.125,92,120
6249,C4,1182.625,0.25,64,120
6250,C4,1182.625,0.25,64,120
6251,E2,1183.108,0.125,101,120
6252,C#2,1183.108,0.125,101,120
6253,A1,1183.108,0.125,101,120
6254,E2,1183.108,0.125,101,120
6255,C#2,1183.108,0.125,101,120
6256,C4,1183.125,0.25,60,120
6257,C4,1183.125,0.25,60,120
6258,C4,1183.625,0.25,60,120
6259,C4,1183.625,0.25,60,120
6260,F#2,1184.108,0.125,64,120
6261,F#2,1184.108,0.125,64,120
6262,C4,1184.125,0.25,58,120
6263,C4,1184.125,0.25,58,120
6264,C#2,1184.625,0.125,92,120
6265,C4,1184.625,0.25,58,120
6266,C4,1184.625,0.25,58,120
6267,C#2,1185.125,0.125,92,120
6268,C4,1185.125,0.25,82,120
6269,C4,1185.125,0.25,82,120
6270,C4,1185.625,0.125,56,120
6271,C4,1185.625,0.125,56,120
6272,F#2,1186.108,0.125,73,120
6273,F#2,1186.108,0.125,73,120
6274,C#2,1186.108,0.125,73,120
6275,C4,1186.125,0.25,54,120
6276,C4,1186.125,0.25,54,120
6277,C#2,1186.625,0.125,92,120
6278,C4,1186.625,0.25,52,120
6279,C4,1186.625,0.25,52,120
6280,C#2,1187.125,0.125,92,120
6281,C4,1187.125,0.25,50,120
6282,C4,1187.125,0.25,50,120
6283,C#2,1187.625,0.125,92,120
6284,A3,1187.625,0.25,50,120
6285,A3,1187.625,0.25,50,120
6286,F#2,1188.108,0.125,73,120
6287,F#2,1188.108,0.125,73,120
6288,C#2,1188.108,0.125,73,120
6289,A3,1188.125,0.375,44,120
6290,A3,1188.125,0.25,96,120
6291,C#2,1188.625,0.125,92,120
6292,A3,1188.625,0.25,48,120
6293,A3,1188.625,0.25,48,120
6294,E2,1189.108,0.125,101,120
6295,C#2,1189.108,0.125,101,120
6296,A1,1189.108,0.125,101,120
6297,E2,1189.108,0.125,101,120
6298,C#2,1189.108,0.125,101,120
6299,C#2,1189.108,0.125,101,120
6300,C#2,1189.108,0.125,101,120
6301,A3,1189.125,0.25,48,120
6302,A3,1189.125,0.25,48,120
6303,A3,1189.625,0.25,48,120
6304,A3,1189.625,0.25,48,120
6305,F#2,1190.108,0.125,64,120
6306,F#2,1190.108,0.125,64,120
6307,D4,1190.125,0.25,29,120
6308,D4,1190.125,0.375,64,120
6309,B-3,1190.625,0.375,25,120
6310,C#2,1190.625,0.125,92,120
6311,B-3,1190.625,0.5,96,120
6312,B-3,1191.125,0.5,96,120
