,note_name,start_time,duration,velocity,tempo
0,F#2,0.0,0.25,111,105.0
1,F#2,0.25,0.25,63,105.0
2,F#2,0.5,0.25,63,105.0
3,F#2,0.75,0.25,63,105.0
4,F#2,1.0,0.25,111,105.0
5,F#2,1.25,0.25,63,105.0
6,F#2,1.5,0.25,63,105.0
7,F#2,1.75,0.25,63,105.0
8,F#2,2.0,0.25,111,105.0
9,F#2,2.25,0.25,63,105.0
10,F#2,2.5,0.25,63,105.0
11,F#2,2.75,0.25,63,105.0
12,F#2,3.0,0.25,111,105.0
13,F#2,3.25,0.25,63,105.0
14,F#2,3.5,0.25,63,105.0
15,F#2,3.75,0.25,63,105.0
16,F#2,4.0,0.25,111,105.0
17,F#2,4.25,0.25,63,105.0
18,F#2,4.5,0.25,63,105.0
19,F#2,4.75,0.25,63,105.0
20,F#2,5.0,0.25,111,105.0
21,F#2,5.25,0.25,63,105.0
22,F#2,5.5,0.25,63,105.0
23,F#2,5.75,0.25,63,105.0
24,F#2,6.0,0.25,111,105.0
25,F#2,6.25,0.25,63,105.0
26,F#2,6.5,0.25,63,105.0
27,F#2,6.75,0.25,63,105.0
28,F#2,7.0,0.25,111,105.0
29,F#2,7.25,0.25,63,105.0
30,F#2,7.5,0.25,63,105.0
31,F#2,7.75,0.25,63,105.0
32,F#2,8.0,0.25,111,105.0
33,F#2,8.25,0.25,63,105.0
34,F#2,8.5,0.25,63,105.0
35,F#2,8.75,0.25,63,105.0
36,F#2,9.0,0.25,111,105.0
37,F#2,9.25,0.25,63,105.0
38,F#2,9.5,0.25,63,105.0
39,F#2,9.75,0.25,63,105.0
40,F#2,10.0,0.25,111,105.0
41,F#2,10.25,0.25,63,105.0
42,F#2,10.5,0.25,63,105.0
43,F#2,10.75,0.25,63,105.0
44,F#2,11.0,0.25,111,105.0
45,F#2,11.25,0.25,63,105.0
46,F#2,11.5,0.25,63,105.0
47,F#2,11.75,0.25,63,105.0
48,F#2,12.0,0.25,111,105.0
49,F#2,12.25,0.25,63,105.0
50,F#2,12.5,0.25,63,105.0
51,F#2,12.75,0.25,63,105.0
52,F#2,13.0,0.25,111,105.0
53,F#2,13.25,0.25,63,105.0
54,F#2,13.5,0.25,63,105.0
55,F#2,13.75,0.25,63,105.0
56,F#2,14.0,0.25,111,105.0
57,F#2,14.25,0.25,63,105.0
58,F#2,14.5,0.25,63,105.0
59,F#2,14.75,0.25,63,105.0
60,F#2,15.0,0.25,111,105.0
61,F#2,15.25,0.25,63,105.0
62,F#2,15.5,0.25,63,105.0
63,F#2,15.75,0.25,63,105.0
64,F#2,16.0,0.25,111,105.0
65,F#2,16.25,0.25,63,105.0
66,F#2,16.5,0.25,63,105.0
67,F#2,16.75,0.25,63,105.0
68,F#2,17.0,0.25,111,105.0
69,F#2,17.25,0.25,63,105.0
70,F#2,17.5,0.25,63,105.0
71,F#2,17.75,0.25,63,105.0
72,F#2,18.0,0.25,111,105.0
73,F#2,18.25,0.25,63,105.0
74,F#2,18.5,0.25,63,105.0
75,F#2,18.75,0.25,63,105.0
76,F#2,19.0,0.25,111,105.0
77,F#2,19.25,0.25,63,105.0
78,F#2,19.5,0.25,63,105.0
79,F#2,19.75,0.25,63,105.0
80,F#2,20.0,0.25,111,105.0
81,F#2,20.25,0.25,63,105.0
82,F#2,20.5,0.25,63,105.0
83,F#2,20.75,0.25,63,105.0
84,F#2,21.0,0.25,111,105.0
85,F#2,21.25,0.25,63,105.0
86,F#2,21.5,0.25,63,105.0
87,F#2,21.75,0.25,63,105.0
88,F#2,22.0,0.25,111,105.0
89,F#2,22.25,0.25,63,105.0
90,F#2,22.5,0.25,63,105.0
91,F#2,22.75,0.25,63,105.0
92,F#2,23.0,0.25,111,105.0
93,F#2,23.25,0.25,63,105.0
94,F#2,23.5,0.25,63,105.0
95,F#2,23.75,0.25,63,105.0
96,F#2,24.0,0.25,111,105.0
97,F#2,24.25,0.25,63,105.0
98,F#2,24.5,0.25,63,105.0
99,F#2,24.75,0.25,63,105.0
100,F#2,25.0,0.25,111,105.0
101,F#2,25.25,0.25,63,105.0
102,F#2,25.5,0.25,63,105.0
103,F#2,25.75,0.25,63,105.0
104,F#2,26.0,0.25,111,105.0
105,F#2,26.25,0.25,63,105.0
106,F#2,26.5,0.25,63,105.0
107,F#2,26.75,0.25,63,105.0
108,F#2,27.0,0.25,111,105.0
109,F#2,27.25,0.25,63,105.0
110,F#2,27.5,0.25,63,105.0
111,F#2,27.75,0.25,63,105.0
112,F#2,28.0,0.25,111,105.0
113,F#2,28.25,0.25,63,105.0
114,F#2,28.5,0.25,63,105.0
115,F#2,28.75,0.25,63,105.0
116,F#2,29.0,0.25,111,105.0
117,F#2,29.25,0.25,63,105.0
118,F#2,29.5,0.25,63,105.0
119,F#2,29.75,0.25,63,105.0
120,F#2,30.0,0.25,111,105.0
121,F#2,30.25,0.25,63,105.0
122,F#2,30.5,0.25,63,105.0
123,F#2,30.75,0.25,63,105.0
124,F#2,31.0,0.25,111,105.0
125,F#2,31.25,0.25,63,105.0
126,F#2,31.5,0.25,63,105.0
127,F#2,31.75,0.25,63,105.0
128,F#2,32.0,0.25,111,105.0
129,F#2,32.25,0.25,63,105.0
130,F#2,32.5,0.25,63,105.0
131,F#2,32.75,0.25,63,105.0
132,F#2,33.0,0.25,111,105.0
133,F#2,33.25,0.25,63,105.0
134,F#2,33.5,0.25,63,105.0
135,F#2,33.75,0.25,63,105.0
136,F#2,34.0,0.25,111,105.0
137,F#2,34.25,0.25,63,105.0
138,F#2,34.5,0.25,63,105.0
139,F#2,34.75,0.25,63,105.0
140,F#2,35.0,0.25,111,105.0
141,F#2,35.25,0.25,63,105.0
142,F#2,35.5,0.25,63,105.0
143,F#2,35.75,0.25,63,105.0
144,F#2,36.0,0.25,111,105.0
145,F#2,36.25,0.25,63,105.0
146,F#2,36.5,0.25,63,105.0
147,F#2,36.75,0.25,63,105.0
148,F#2,37.0,0.25,111,105.0
149,F#2,37.25,0.25,63,105.0
150,F#2,37.5,0.25,63,105.0
151,F#2,37.75,0.25,63,105.0
152,F#2,38.0,0.25,111,105.0
153,F#2,38.25,0.25,63,105.0
154,F#2,38.5,0.25,63,105.0
155,F#2,38.75,0.25,63,105.0
156,F#2,39.0,0.25,111,105.0
157,F#2,39.25,0.25,63,105.0
158,F#2,39.5,0.25,63,105.0
159,F#2,39.75,0.25,63,105.0
160,F#2,40.0,0.25,111,105.0
161,F#2,40.25,0.25,63,105.0
162,F#2,40.5,0.25,63,105.0
163,E-4,40.5,27/500,95,105.0
164,B-3,40.5,27/500,95,105.0
165,F#3,40.5,27/500,95,105.0
166,F#2,40.75,0.25,63,105.0
167,E-4,40.75,27/500,95,105.0
168,B-3,40.75,27/500,95,105.0
169,F#3,40.75,27/500,95,105.0
170,F#2,41.0,0.25,111,105.0
171,E-4,41.0,27/500,95,105.0
172,B-3,41.0,27/500,95,105.0
173,F#3,41.0,27/500,95,105.0
174,F#2,41.25,0.25,63,105.0
175,F#2,41.5,0.25,63,105.0
176,F#2,41.75,0.25,63,105.0
177,F#2,42.0,0.25,111,105.0
178,F#2,42.25,0.25,63,105.0
179,F#2,42.5,0.25,63,105.0
180,F#2,42.75,0.25,63,105.0
181,F#2,43.0,0.25,111,105.0
182,F#2,43.25,0.25,63,105.0
183,F#2,43.5,0.25,63,105.0
184,F#2,43.75,0.25,63,105.0
185,F#2,44.0,0.25,111,105.0
186,F#2,44.25,0.25,63,105.0
187,F#2,44.5,0.25,63,105.0
188,F#2,44.75,0.25,63,105.0
189,F#2,45.0,0.25,111,105.0
190,F#2,45.25,0.25,63,105.0
191,F#2,45.5,0.25,63,105.0
192,F#2,45.75,0.25,63,105.0
193,F#2,46.0,0.25,111,105.0
194,F#2,46.25,0.25,63,105.0
195,F#2,46.5,0.25,63,105.0
196,F#2,46.75,0.25,63,105.0
197,F#2,47.0,0.25,111,105.0
198,F#2,47.25,0.25,63,105.0
199,F#2,47.5,0.25,63,105.0
200,F#2,47.75,0.25,63,105.0
201,B-2,48.0,1.0,95,105.0
202,B-2,49.0,1.0,95,105.0
203,B-2,50.0,1.0,95,105.0
204,G#3,51.0,1.0,95,105.0
205,B-2,51.0,1.0,95,105.0
206,E-1,52.0,4.0,95,105.0
207,E-3,52.0,4.0,95,105.0
208,G#2,52.0,4.0,95,105.0
209,C#3,52.0,1.0,95,105.0
210,C2,52.0,1.0,95,105.0
211,F#2,53.0,0.25,111,105.0
212,F#2,53.25,0.25,63,105.0
213,F#2,53.5,0.25,63,105.0
214,F#2,53.75,0.25,63,105.0
215,F#2,54.0,0.25,111,105.0
216,F#2,54.25,0.25,63,105.0
217,F#2,54.5,0.25,63,105.0
218,F#2,54.75,0.25,63,105.0
219,F#2,55.0,0.25,111,105.0
220,F#2,55.25,0.25,63,105.0
221,F#2,55.5,0.25,63,105.0
222,F#2,55.75,0.25,63,105.0
223,E-1,56.0,4.0,95,105.0
224,F#2,56.0,0.25,111,105.0
225,F#2,56.25,0.25,63,105.0
226,F#2,56.5,0.25,63,105.0
227,F#2,56.75,0.25,63,105.0
228,F#2,57.0,0.25,111,105.0
229,F#2,57.25,0.25,63,105.0
230,F#2,57.5,0.25,63,105.0
231,F#2,57.75,0.25,63,105.0
232,F#2,58.0,0.25,111,105.0
233,F#2,58.25,0.25,63,105.0
234,F#2,58.5,0.25,63,105.0
235,F#2,58.75,0.25,63,105.0
236,B-2,59.0,1.0,95,105.0
237,B1,60.0,0.5,95,105.0
238,E-3,60.0,4.0,95,105.0
239,G#2,60.0,4.0,95,105.0
240,A3,60.0,0.5,95,105.0
241,C2,60.0,0.5,95,105.0
242,C#2,60.5,1.0,95,105.0
243,A3,60.5,0.5,95,105.0
244,C2,60.5,0.5,95,105.0
245,F#2,61.0,0.25,95,105.0
246,F#2,61.25,0.25,63,105.0
247,F#2,61.5,0.25,63,105.0
248,F#2,61.75,0.25,63,105.0
249,F#2,62.0,0.25,95,105.0
250,F#2,62.25,0.25,63,105.0
251,F#2,62.5,0.25,63,105.0
252,F#2,62.75,0.25,63,105.0
253,F#2,63.0,0.25,95,105.0
254,F#2,63.25,0.25,63,105.0
255,F#2,63.5,0.25,63,105.0
256,F#2,63.75,0.25,63,105.0
257,F#2,64.0,0.25,111,105.0
258,F#3,64.0,0.5,95,105.0
259,B2,64.0,0.5,95,105.0
260,F#2,64.25,0.25,63,105.0
261,F#2,64.5,0.25,63,105.0
262,G#3,64.5,1.0,95,105.0
263,C#3,64.5,1.0,95,105.0
264,F#2,64.75,0.25,63,105.0
265,F#2,65.0,0.25,111,105.0
266,F#2,65.25,0.25,63,105.0
267,F#2,65.5,0.25,63,105.0
268,F#2,65.75,0.25,63,105.0
269,E2,66.0,0.25,95,105.0
270,E2,66.25,0.25,95,105.0
271,B2,66.5,0.5,95,105.0
272,F#2,67.0,1.0,63,105.0
273,E-1,68.0,4.0,95,105.0
274,A3,68.0,1.0,95,105.0
275,C2,68.0,1.0,95,105.0
276,F#2,69.0,0.25,111,105.0
277,F#2,69.25,0.25,63,105.0
278,F#2,69.5,0.25,63,105.0
279,F#2,69.75,0.25,63,105.0
280,F#2,70.0,0.25,111,105.0
281,F#2,70.25,0.25,63,105.0
282,F#2,70.5,0.25,63,105.0
283,F#2,70.75,0.25,63,105.0
284,F#2,71.0,0.25,111,105.0
285,F#2,71.25,0.25,63,105.0
286,F#2,71.5,0.25,63,105.0
287,F#2,71.75,0.25,63,105.0
288,G3,72.0,4.0,31,105.0
289,E-1,72.0,4.0,95,105.0
290,F#2,72.0,0.25,111,105.0
291,E-3,72.0,4.0,95,105.0
292,G#2,72.0,4.0,95,105.0
293,F#2,72.25,0.25,63,105.0
294,F#2,72.5,0.25,63,105.0
295,F#2,72.75,0.25,63,105.0
296,F#2,73.0,0.25,111,105.0
297,F#2,73.25,0.25,63,105.0
298,F#2,73.5,0.25,63,105.0
299,F#2,73.75,0.25,63,105.0
300,F#2,74.0,0.25,111,105.0
301,F#2,74.25,0.25,63,105.0
302,F#2,74.5,0.25,63,105.0
303,F#2,74.75,0.25,63,105.0
304,B-2,75.0,1.0,95,105.0
305,C#2,76.0,0.5,95,105.0
306,A3,76.0,0.5,95,105.0
307,C2,76.0,0.5,95,105.0
308,E-2,76.5,1.0,95,105.0
309,A3,76.5,0.5,95,105.0
310,C2,76.5,0.5,95,105.0
311,F#2,77.0,0.25,95,105.0
312,F#2,77.25,0.25,63,105.0
313,F#2,77.5,0.25,63,105.0
314,F#2,77.75,0.25,63,105.0
315,F#2,78.0,0.25,95,105.0
316,F#2,78.25,0.25,63,105.0
317,F#2,78.5,0.25,63,105.0
318,F#2,78.75,0.25,63,105.0
319,F#2,79.0,0.25,95,105.0
320,F#2,79.25,0.25,63,105.0
321,F#2,79.5,0.25,63,105.0
322,F#2,79.75,0.25,63,105.0
323,F#2,80.0,0.25,111,105.0
324,E-3,80.0,4.0,95,105.0
325,G#2,80.0,4.0,95,105.0
326,F#2,80.25,0.25,63,105.0
327,F#2,80.5,0.25,63,105.0
328,F#2,80.75,0.25,63,105.0
329,F#2,81.0,0.25,111,105.0
330,F#2,81.25,0.25,63,105.0
331,F#2,81.5,0.25,63,105.0
332,F#2,81.75,0.25,63,105.0
333,F#2,82.0,0.25,111,105.0
334,F#2,82.25,0.25,63,105.0
335,F#2,82.5,0.25,63,105.0
336,F#2,82.75,0.25,63,105.0
337,F#2,83.0,0.25,111,105.0
338,F#2,83.25,0.25,63,105.0
339,F#2,83.5,0.25,63,105.0
340,F#2,83.75,0.25,63,105.0
341,F#2,84.0,0.25,111,105.0
342,G#3,84.0,0.5,95,105.0
343,C#3,84.0,0.5,95,105.0
344,F#2,84.25,0.25,63,105.0
345,F#2,84.5,0.25,63,105.0
346,B-3,84.5,1.0,95,105.0
347,E-3,84.5,1.0,95,105.0
348,F#2,84.75,0.25,63,105.0
349,F#2,85.0,0.25,111,105.0
350,F#2,85.25,0.25,63,105.0
351,F#2,85.5,0.25,63,105.0
352,F#2,85.75,0.25,63,105.0
353,E-5,86.0,1.5,95,105.0
354,B-4,86.0,1.5,95,105.0
355,E2,86.0,0.969,95,105.0
356,E2,86.0,0.969,95,105.0
357,B1,86.75,0.25,95,105.0
358,C#2,87.0,0.5,95,105.0
359,A3,87.0,0.5,95,105.0
360,C2,87.0,0.5,95,105.0
361,B1,87.5,0.5,95,105.0
362,C#5,87.5,0.5,95,105.0
363,G#4,87.5,0.5,95,105.0
364,A3,87.5,0.5,95,105.0
365,C2,87.5,0.5,95,105.0
366,B1,88.0,0.5,95,105.0
367,C#5,88.0,1.0,95,105.0
368,G#4,88.0,1.0,95,105.0
369,G#1,88.5,3.5,95,105.0
370,A3,88.5,0.75,95,105.0
371,C2,88.5,0.75,95,105.0
372,B-4,89.0,2.0,95,105.0
373,F4,89.0,2.0,95,105.0
374,B-2,90.0,0.125,31,105.0
375,B-2,90.125,0.125,31,105.0
376,B-2,90.25,0.125,31,105.0
377,B-2,90.375,0.125,31,105.0
378,B-2,90.5,0.125,31,105.0
379,B-2,90.625,0.125,31,105.0
380,B-2,90.75,0.125,47,105.0
381,B-2,90.875,0.125,47,105.0
382,B-2,91.0,0.125,47,105.0
383,B-2,91.125,0.125,47,105.0
384,B-2,91.25,0.125,47,105.0
385,B-2,91.375,0.125,47,105.0
386,B-2,91.5,0.125,63,105.0
387,G#4,91.5,0.5,95,105.0
388,E-4,91.5,0.5,95,105.0
389,B-2,91.625,0.125,63,105.0
390,B-2,91.75,0.125,63,105.0
391,B-2,91.875,0.125,63,105.0
392,G#1,92.0,4.0,95,105.0
393,B-2,92.0,0.125,63,105.0
394,B4,92.0,0.5,95,105.0
395,F#4,92.0,0.5,95,105.0
396,B-2,92.125,0.125,63,105.0
397,B-2,92.25,0.125,79,105.0
398,B-2,92.375,0.125,79,105.0
399,B-2,92.5,0.125,79,105.0
400,B4,92.5,0.25,95,105.0
401,F#4,92.5,0.25,95,105.0
402,B-2,92.625,0.125,79,105.0
403,B-2,92.75,0.125,79,105.0
404,C#5,92.75,1.5,95,105.0
405,G#4,92.75,1.5,95,105.0
406,B-2,92.875,0.125,79,105.0
407,B-2,93.0,0.125,79,105.0
408,B-2,93.125,0.125,79,105.0
409,B-2,93.25,0.125,79,105.0
410,A3,93.375,0.125,79,105.0
411,A3,93.5,0.125,79,105.0
412,A3,93.625,0.125,79,105.0
413,A3,93.75,0.125,79,105.0
414,A3,93.875,0.125,63,105.0
415,A3,94.0,0.125,63,105.0
416,A3,94.125,0.125,47,105.0
417,A3,94.25,0.125,63,105.0
418,A3,94.375,0.125,47,105.0
419,A3,94.5,0.25,47,105.0
420,E-3,94.75,0.25,63,105.0
421,F#3,94.75,0.25,95,105.0
422,B2,94.75,0.25,95,105.0
423,E-3,95.0,0.25,47,105.0
424,G#3,95.0,0.5,95,105.0
425,C#3,95.0,0.5,95,105.0
426,E-3,95.25,0.25,63,105.0
427,E-3,95.5,0.25,63,105.0
428,F#3,95.5,0.5,95,105.0
429,B2,95.5,0.5,95,105.0
430,E-3,95.75,0.25,63,105.0
431,G#1,96.0,4.0,95,105.0
432,E-3,96.0,0.25,47,105.0
433,F#3,96.0,0.5,95,105.0
434,B2,96.0,0.5,95,105.0
435,E-3,96.25,0.25,63,105.0
436,E-3,96.5,0.25,47,105.0
437,G3,96.5,2.0,74,105.0
438,E-3,96.5,2.0,74,105.0
439,G#2,96.5,2.0,74,105.0
440,E-3,96.75,0.25,63,105.0
441,E-3,97.0,0.25,47,105.0
442,E-3,97.25,0.25,47,105.0
443,E-3,97.5,0.25,47,105.0
444,E-3,97.75,0.25,47,105.0
445,E-3,98.0,0.5,47,105.0
446,E-3,98.5,0.5,47,105.0
447,E-3,98.5,1.0,95,105.0
448,G#2,98.5,1.0,95,105.0
449,E-3,99.0,0.5,47,105.0
450,E-3,99.5,0.5,15,105.0
451,E-3,99.5,0.5,95,105.0
452,G#2,99.5,0.5,95,105.0
453,G#1,100.0,4.0,95,105.0
454,E5,101.0,2.0,95,105.0
455,E5,103.0,0.5,95,105.0
456,E5,103.5,0.5,95,105.0
457,G#1,104.0,4.0,95,105.0
458,E5,104.0,4.0,95,105.0
459,G#1,108.0,3.0,95,105.0
460,B-2,108.0,1.0,95,105.0
461,E-3,108.0,4.0,95,105.0
462,G#2,108.0,4.0,95,105.0
463,B-2,109.0,1.0,95,105.0
464,G3,110.0,2.0,47,105.0
465,B-2,110.0,0.5,95,105.0
466,C2,110.5,0.5,95,105.0
467,E-1,111.0,0.5,95,105.0
468,E2,111.0,0.484,95,105.0
469,E2,111.0,0.484,95,105.0
470,F#1,111.5,0.5,95,105.0
471,C2,111.5,0.5,95,105.0
472,G3,112.0,4.0,47,105.0
473,G#1,112.0,0.5,95,105.0
474,E-3,112.0,4.0,95,105.0
475,G#2,112.0,4.0,95,105.0
476,A3,112.0,0.5,95,105.0
477,C2,112.0,0.5,95,105.0
478,G#1,112.5,0.5,95,105.0
479,C2,112.5,0.5,95,105.0
480,F#2,113.0,0.5,95,105.0
481,G#1,113.5,0.5,95,105.0
482,E2,113.5,0.5,95,105.0
483,F#2,114.0,0.5,95,105.0
484,C2,114.5,0.5,95,105.0
485,E-1,115.0,0.5,95,105.0
486,F#2,115.0,0.5,95,105.0
487,E2,115.0,0.5,95,105.0
488,F#1,115.5,0.5,95,105.0
489,F#2,115.5,0.5,47,105.0
490,G3,116.0,3.0,95,105.0
491,G#1,116.0,0.5,95,105.0
492,F#2,116.0,0.5,95,105.0
493,C2,116.0,0.5,95,105.0
494,G#1,116.5,0.5,95,105.0
495,C2,116.5,0.5,95,105.0
496,F#2,117.0,0.5,95,105.0
497,G#1,117.5,0.5,95,105.0
498,E2,117.5,0.5,95,105.0
499,F#2,118.0,0.5,95,105.0
500,C2,118.5,0.5,95,105.0
501,E-1,119.0,0.5,95,105.0
502,F#2,119.0,0.5,95,105.0
503,E2,119.0,0.5,95,105.0
504,F#1,119.5,0.5,95,105.0
505,F#2,119.5,0.5,47,105.0
506,G#1,120.0,0.5,95,105.0
507,F#2,120.0,0.5,95,105.0
508,C2,120.0,0.5,95,105.0
509,G#1,120.5,0.5,95,105.0
510,C2,120.5,0.5,95,105.0
511,F#2,121.0,0.5,95,105.0
512,G#1,121.5,0.5,95,105.0
513,E2,121.5,0.5,95,105.0
514,F#2,122.0,0.5,95,105.0
515,C2,122.5,0.5,95,105.0
516,E-1,123.0,0.5,95,105.0
517,F#2,123.0,0.5,95,105.0
518,E2,123.0,0.5,95,105.0
519,F#1,123.5,0.5,95,105.0
520,F#2,123.5,167/1000,63,105.0
521,F#2,123.667,167/1000,63,105.0
522,F#2,123.833,167/1000,63,105.0
523,G#1,124.0,0.5,95,105.0
524,F#2,124.0,0.5,95,105.0
525,C2,124.0,0.5,95,105.0
526,G#1,124.5,0.5,95,105.0
527,C2,124.5,0.5,95,105.0
528,E-3,125.0,0.75,95,105.0
529,F#2,125.0,0.5,95,105.0
530,G#1,125.5,0.5,95,105.0
531,E2,125.5,0.5,95,105.0
532,E2,125.75,0.25,95,105.0
533,G#3,126.0,1.0,95,105.0
534,F#2,126.0,0.5,95,105.0
535,C2,126.5,0.5,95,105.0
536,E-2,127.0,0.5,95,105.0
537,E-1,127.0,0.5,95,105.0
538,F#2,127.0,0.5,95,105.0
539,E2,127.0,0.5,95,105.0
540,F#2,127.5,29/250,95,105.0
541,F#1,127.5,0.5,95,105.0
542,F#2,127.5,0.5,63,105.0
543,G#1,128.0,0.5,95,105.0
544,E-3,128.0,0.5,95,105.0
545,G#2,128.0,0.5,95,105.0
546,F#2,128.0,0.5,95,105.0
547,C2,128.0,0.5,95,105.0
548,G#1,128.5,0.5,95,105.0
549,C2,128.5,0.5,95,105.0
550,E-3,128.5,0.5,95,105.0
551,G#2,128.5,0.5,95,105.0
552,F#2,129.0,0.5,95,105.0
553,G#1,129.5,0.5,95,105.0
554,E2,129.5,0.5,95,105.0
555,E-3,129.5,0.5,95,105.0
556,G#2,129.5,0.5,95,105.0
557,F#2,130.0,0.5,95,105.0
558,C2,130.5,0.5,95,105.0
559,E-2,131.0,29/250,95,105.0
560,E-1,131.0,0.5,95,105.0
561,F#2,131.0,0.5,95,105.0
562,E2,131.0,0.5,95,105.0
563,F#2,131.5,29/250,95,105.0
564,F#1,131.5,0.5,95,105.0
565,F#2,131.5,0.5,47,105.0
566,G#1,132.0,0.5,95,105.0
567,E-3,132.0,0.5,95,105.0
568,G#2,132.0,0.5,95,105.0
569,F#2,132.0,0.5,95,105.0
570,C2,132.0,0.5,95,105.0
571,G#1,132.5,0.5,95,105.0
572,C2,132.5,0.5,95,105.0
573,E-3,132.5,0.5,95,105.0
574,G#2,132.5,0.5,95,105.0
575,F#2,133.0,0.5,95,105.0
576,G#1,133.5,0.5,95,105.0
577,E2,133.5,0.5,95,105.0
578,E-3,133.5,0.5,95,105.0
579,G#2,133.5,0.5,95,105.0
580,F#2,134.0,0.5,95,105.0
581,C2,134.5,0.5,95,105.0
582,E-2,135.0,29/250,95,105.0
583,E-1,135.0,0.5,95,105.0
584,F#2,135.0,0.5,95,105.0
585,E2,135.0,0.5,95,105.0
586,F#2,135.5,29/250,95,105.0
587,F#1,135.5,0.5,95,105.0
588,F#2,135.5,0.5,47,105.0
589,G#1,136.0,0.5,95,105.0
590,E-3,136.0,0.5,95,105.0
591,G#2,136.0,0.5,95,105.0
592,F#2,136.0,0.5,95,105.0
593,C2,136.0,0.5,95,105.0
594,G#1,136.5,0.5,95,105.0
595,C2,136.5,0.5,95,105.0
596,E-3,136.5,0.5,95,105.0
597,G#2,136.5,0.5,95,105.0
598,E-3,136.5,0.5,47,105.0
599,G#2,136.5,0.5,47,105.0
600,F#2,137.0,0.5,95,105.0
601,E-3,137.0,0.5,47,105.0
602,G#2,137.0,0.5,47,105.0
603,G#1,137.5,0.5,95,105.0
604,E2,137.5,0.5,95,105.0
605,E-3,137.5,0.5,95,105.0
606,G#2,137.5,0.5,95,105.0
607,F#2,138.0,0.5,95,105.0
608,E-3,138.0,0.5,47,105.0
609,G#2,138.0,0.5,47,105.0
610,C2,138.5,0.5,95,105.0
611,E-2,139.0,29/250,95,105.0
612,E-1,139.0,0.5,95,105.0
613,F#2,139.0,0.5,95,105.0
614,E2,139.0,0.5,95,105.0
615,F#2,139.5,29/250,95,105.0
616,F#1,139.5,0.5,95,105.0
617,F#2,139.5,0.5,47,105.0
618,E-2,139.5,29/250,47,105.0
619,G#1,140.0,0.5,95,105.0
620,F#2,140.0,29/250,47,105.0
621,E-3,140.0,0.5,95,105.0
622,G#2,140.0,0.5,95,105.0
623,F#2,140.0,0.5,95,105.0
624,C2,140.0,0.5,95,105.0
625,G#1,140.5,0.5,95,105.0
626,C2,140.5,0.5,95,105.0
627,E-3,140.5,0.5,95,105.0
628,G#2,140.5,0.5,95,105.0
629,E-3,140.5,0.5,47,105.0
630,G#2,140.5,0.5,47,105.0
631,F#2,141.0,0.5,95,105.0
632,E-3,141.0,0.5,47,105.0
633,G#2,141.0,0.5,47,105.0
634,G#1,141.5,0.5,95,105.0
635,E2,141.5,0.5,95,105.0
636,E-3,141.5,0.5,95,105.0
637,G#2,141.5,0.5,95,105.0
638,F#2,142.0,0.5,95,105.0
639,E-1,142.5,0.5,95,105.0
640,C2,142.5,0.5,95,105.0
641,E-2,143.0,29/250,95,105.0
642,F#1,143.0,0.5,95,105.0
643,C#3,143.0,1.0,95,105.0
644,E2,143.0,1.0,95,105.0
645,F#2,143.5,29/250,95,105.0
646,E-1,143.5,0.5,95,105.0
647,G#1,144.0,0.5,95,105.0
648,E-3,144.0,0.5,95,105.0
649,G#2,144.0,0.5,95,105.0
650,F#2,144.0,0.5,95,105.0
651,C2,144.0,0.5,95,105.0
652,G#1,144.5,0.5,95,105.0
653,C2,144.5,0.5,95,105.0
654,E-3,144.5,0.5,95,105.0
655,G#2,144.5,0.5,95,105.0
656,F#2,145.0,0.5,95,105.0
657,G#1,145.5,0.5,95,105.0
658,E2,145.5,0.5,95,105.0
659,E-3,145.5,0.5,95,105.0
660,G#2,145.5,0.5,95,105.0
661,F#2,146.0,0.5,95,105.0
662,C2,146.5,0.5,95,105.0
663,E-2,147.0,29/250,95,105.0
664,E-1,147.0,0.5,95,105.0
665,F#2,147.0,0.5,95,105.0
666,E2,147.0,0.5,95,105.0
667,F#2,147.5,29/250,95,105.0
668,F#1,147.5,0.5,95,105.0
669,F#2,147.5,167/1000,63,105.0
670,F#2,147.667,167/1000,63,105.0
671,F#2,147.833,167/1000,63,105.0
672,G#1,148.0,0.5,95,105.0
673,E-3,148.0,0.5,95,105.0
674,G#2,148.0,0.5,95,105.0
675,F#2,148.0,0.5,95,105.0
676,C2,148.0,0.5,95,105.0
677,G#1,148.5,0.5,95,105.0
678,C2,148.5,0.5,95,105.0
679,E-3,148.5,0.5,95,105.0
680,G#2,148.5,0.5,95,105.0
681,F#2,149.0,0.5,95,105.0
682,G#1,149.5,0.5,95,105.0
683,E2,149.5,0.5,95,105.0
684,E-3,149.5,0.5,95,105.0
685,G#2,149.5,0.5,95,105.0
686,F#2,150.0,0.5,95,105.0
687,C2,150.5,0.5,95,105.0
688,E-2,151.0,29/250,95,105.0
689,E-1,151.0,0.5,95,105.0
690,F#2,151.0,0.5,95,105.0
691,E2,151.0,0.5,95,105.0
692,F#2,151.5,29/250,95,105.0
693,F#1,151.5,0.5,95,105.0
694,F#2,151.5,0.5,47,105.0
695,G#1,152.0,0.5,95,105.0
696,E-3,152.0,0.5,95,105.0
697,G#2,152.0,0.5,95,105.0
698,F#2,152.0,0.5,95,105.0
699,C2,152.0,0.5,95,105.0
700,G#1,152.5,0.5,95,105.0
701,C2,152.5,0.5,95,105.0
702,E-3,152.5,0.5,95,105.0
703,G#2,152.5,0.5,95,105.0
704,F#2,153.0,0.5,95,105.0
705,G#1,153.5,0.5,95,105.0
706,E2,153.5,0.5,95,105.0
707,E-3,153.5,0.5,95,105.0
708,G#2,153.5,0.5,95,105.0
709,F#2,154.0,0.5,95,105.0
710,C2,154.5,0.5,95,105.0
711,E-2,155.0,29/250,95,105.0
712,E-1,155.0,0.5,95,105.0
713,F#2,155.0,0.5,95,105.0
714,E2,155.0,0.5,95,105.0
715,F#2,155.5,29/250,95,105.0
716,F#1,155.5,0.5,95,105.0
717,F#2,155.5,167/1000,63,105.0
718,F#2,155.667,167/1000,63,105.0
719,F#2,155.833,167/1000,63,105.0
720,G#1,156.0,0.5,95,105.0
721,E-3,156.0,0.5,95,105.0
722,G#2,156.0,0.5,95,105.0
723,F#2,156.0,0.5,95,105.0
724,C2,156.0,0.5,95,105.0
725,G#1,156.5,0.5,95,105.0
726,C2,156.5,0.5,95,105.0
727,E-3,156.5,0.5,95,105.0
728,G#2,156.5,0.5,95,105.0
729,F#2,157.0,0.5,95,105.0
730,G#1,157.5,0.5,95,105.0
731,E2,157.5,0.5,95,105.0
732,E-3,157.5,0.5,95,105.0
733,G#2,157.5,0.5,95,105.0
734,F#2,158.0,0.5,95,105.0
735,F#3,158.5,0.5,95,105.0
736,E-1,158.5,0.5,95,105.0
737,C2,158.5,0.5,95,105.0
738,G#3,159.0,0.5,95,105.0
739,F#1,159.0,0.5,95,105.0
740,B-2,159.0,1.0,95,105.0
741,E2,159.0,1.0,95,105.0
742,B3,159.5,0.5,95,105.0
743,E-1,159.5,0.5,95,105.0
744,G#1,160.0,0.5,95,105.0
745,G#4,160.0,1.5,63,105.0
746,E-4,160.0,1.5,63,105.0
747,G#2,160.0,0.5,95,105.0
748,C2,160.0,0.5,95,105.0
749,G#1,160.5,0.5,95,105.0
750,C2,160.5,0.5,95,105.0
751,F#2,161.0,0.5,95,105.0
752,D4,161.5,2.5,95,105.0
753,G#1,161.5,0.5,95,105.0
754,E2,161.5,0.5,95,105.0
755,F#2,162.0,0.5,95,105.0
756,C2,162.5,0.5,95,105.0
757,E-1,163.0,0.5,95,105.0
758,F#2,163.0,0.5,95,105.0
759,E2,163.0,0.5,95,105.0
760,F#1,163.5,0.5,95,105.0
761,F#2,163.5,167/1000,63,105.0
762,F#2,163.667,167/1000,63,105.0
763,F#2,163.833,167/1000,63,105.0
764,D4,164.0,2.5,95,105.0
765,G#1,164.0,0.5,95,105.0
766,F#2,164.0,0.5,95,105.0
767,C2,164.0,0.5,95,105.0
768,G#1,164.5,0.5,95,105.0
769,C2,164.5,0.5,95,105.0
770,F#2,165.0,0.5,95,105.0
771,G#1,165.5,0.5,95,105.0
772,E2,165.5,0.5,95,105.0
773,F#2,166.0,0.5,95,105.0
774,B3,166.5,1.0,95,105.0
775,C2,166.5,0.5,95,105.0
776,E-1,167.0,0.5,95,105.0
777,F#2,167.0,0.5,95,105.0
778,E2,167.0,0.5,95,105.0
779,G#3,167.5,0.5,95,105.0
780,F#1,167.5,0.5,95,105.0
781,F#2,167.5,0.5,47,105.0
782,F#4,168.0,1.5,95,105.0
783,G#1,168.0,0.5,95,105.0
784,F#2,168.0,0.5,95,105.0
785,C2,168.0,0.5,95,105.0
786,G#1,168.5,0.5,95,105.0
787,C2,168.5,0.5,95,105.0
788,F#2,169.0,0.5,95,105.0
789,F4,169.5,2.5,95,105.0
790,G#1,169.5,0.5,95,105.0
791,E2,169.5,0.5,95,105.0
792,F#2,170.0,0.5,95,105.0
793,C2,170.5,0.5,95,105.0
794,E-1,171.0,0.5,95,105.0
795,F#2,171.0,0.5,95,105.0
796,E2,171.0,0.5,95,105.0
797,F#1,171.5,0.5,95,105.0
798,F#2,171.5,167/1000,63,105.0
799,F#2,171.667,167/1000,63,105.0
800,F#2,171.833,167/1000,63,105.0
801,F4,172.0,2.5,95,105.0
802,G#1,172.0,0.5,95,105.0
803,F#2,172.0,0.5,95,105.0
804,C2,172.0,0.5,95,105.0
805,G#1,172.5,0.5,95,105.0
806,C2,172.5,0.5,95,105.0
807,F#2,173.0,0.5,95,105.0
808,G#1,173.5,0.5,95,105.0
809,E2,173.5,0.5,95,105.0
810,F#2,174.0,0.5,95,105.0
811,G#3,174.5,1.0,95,105.0
812,E-1,174.5,0.5,95,105.0
813,C2,174.5,0.5,95,105.0
814,F#1,175.0,0.5,95,105.0
815,G3,175.0,1.0,95,105.0
816,E2,175.0,1.0,95,105.0
817,B3,175.5,0.5,95,105.0
818,E-1,175.5,0.5,95,105.0
819,E-4,176.0,1.5,95,105.0
820,G#1,176.0,0.5,95,105.0
821,F#2,176.0,0.5,95,105.0
822,C2,176.0,0.5,95,105.0
823,G#1,176.5,0.5,95,105.0
824,C2,176.5,0.5,95,105.0
825,F#2,177.0,0.5,95,105.0
826,D4,177.5,1.0,95,105.0
827,G#1,177.5,0.5,95,105.0
828,E2,177.5,0.5,95,105.0
829,F#2,178.0,0.5,95,105.0
830,B3,178.5,1.0,95,105.0
831,E-1,178.5,0.5,95,105.0
832,C2,178.5,0.5,95,105.0
833,F#1,179.0,0.5,95,105.0
834,F#2,179.0,0.5,95,105.0
835,E2,179.0,0.5,95,105.0
836,G#3,179.5,0.5,95,105.0
837,E-1,179.5,0.5,95,105.0
838,F#2,179.5,167/1000,63,105.0
839,F#2,179.667,167/1000,63,105.0
840,F#2,179.833,167/1000,63,105.0
841,F#4,180.0,1.5,95,105.0
842,G#1,180.0,0.5,95,105.0
843,F#2,180.0,0.5,95,105.0
844,C2,180.0,0.5,95,105.0
845,G#1,180.5,0.5,95,105.0
846,C2,180.5,0.5,95,105.0
847,F#2,181.0,0.5,95,105.0
848,F4,181.5,1.0,95,105.0
849,G#1,181.5,0.5,95,105.0
850,E2,181.5,0.5,95,105.0
851,F#2,182.0,0.5,95,105.0
852,E-4,182.5,1.0,95,105.0
853,E-1,182.5,0.5,95,105.0
854,C2,182.5,0.5,95,105.0
855,F#1,183.0,0.5,95,105.0
856,F#2,183.0,0.5,95,105.0
857,E2,183.0,0.5,95,105.0
858,B3,183.5,0.5,95,105.0
859,E-1,183.5,0.5,95,105.0
860,F#2,183.5,167/1000,63,105.0
861,F#2,183.667,167/1000,63,105.0
862,F#2,183.833,167/1000,63,105.0
863,B-4,184.0,1.5,95,105.0
864,G#1,184.0,0.5,95,105.0
865,F#2,184.0,0.5,95,105.0
866,C2,184.0,0.5,95,105.0
867,G#1,184.5,0.5,95,105.0
868,C2,184.5,0.5,95,105.0
869,F#2,185.0,0.5,95,105.0
870,G#4,185.5,2.5,95,105.0
871,G#1,185.5,0.5,95,105.0
872,E2,185.5,0.5,95,105.0
873,F#2,186.0,0.5,95,105.0
874,E-1,186.5,0.5,95,105.0
875,C2,186.5,0.5,95,105.0
876,F#1,187.0,0.5,95,105.0
877,F#2,187.0,0.5,95,105.0
878,E2,187.0,0.5,95,105.0
879,E-4,187.5,0.5,47,105.0
880,E-1,187.5,0.5,95,105.0
881,F#2,187.5,0.5,47,105.0
882,G#4,188.0,2.5,95,105.0
883,E-4,188.0,2.5,47,105.0
884,G#1,188.0,0.5,95,105.0
885,F#2,188.0,0.5,95,105.0
886,C2,188.0,0.5,95,105.0
887,G#1,188.5,0.5,95,105.0
888,C2,188.5,0.5,95,105.0
889,B-2,189.0,0.5,95,105.0
890,G#1,189.5,0.5,95,105.0
891,C2,189.5,0.5,95,105.0
892,G#1,190.0,0.5,95,105.0
893,E2,190.0,0.484,95,105.0
894,E2,190.0,0.484,95,105.0
895,G#3,190.5,0.5,95,105.0
896,B-1,190.5,0.5,95,105.0
897,C2,190.5,0.5,95,105.0
898,B3,191.0,0.5,95,105.0
899,B1,191.0,0.5,95,105.0
900,B2,191.0,0.484,95,105.0
901,B2,191.0,0.484,95,105.0
902,E-4,191.5,0.5,95,105.0
903,E-2,191.5,0.5,95,105.0
904,C2,191.5,0.5,95,105.0
905,B-4,192.0,1.5,95,105.0
906,D2,192.0,0.5,95,105.0
907,C#3,192.0,1.0,95,105.0
908,C2,192.0,1.0,95,105.0
909,D2,192.5,0.5,95,105.0
910,F#2,193.0,0.5,95,105.0
911,G#4,193.5,1.0,95,105.0
912,D2,193.5,0.5,95,105.0
913,E2,193.5,0.5,95,105.0
914,F#2,194.0,0.5,95,105.0
915,E-4,194.5,1.0,95,105.0
916,C2,194.5,0.5,95,105.0
917,F#2,195.0,0.5,95,105.0
918,E2,195.0,0.5,95,105.0
919,B3,195.5,0.5,95,105.0
920,F#2,195.5,167/1000,63,105.0
921,F#2,195.667,167/1000,63,105.0
922,F#2,195.833,167/1000,63,105.0
923,F#4,196.0,1.5,95,105.0
924,D2,196.0,0.5,95,105.0
925,F#2,196.0,0.5,95,105.0
926,C2,196.0,0.5,95,105.0
927,D2,196.5,0.5,95,105.0
928,C2,196.5,0.5,95,105.0
929,B-2,197.0,0.5,95,105.0
930,F4,197.5,2.0,95,105.0
931,D2,197.5,0.5,95,105.0
932,C2,197.5,0.5,95,105.0
933,E2,198.0,0.484,95,105.0
934,E2,198.0,0.484,95,105.0
935,B1,198.5,0.25,95,105.0
936,C#3,198.5,0.75,95,105.0
937,C2,198.5,0.75,95,105.0
938,C#2,198.75,0.5,95,105.0
939,B1,199.25,0.75,95,105.0
940,A3,199.25,0.75,95,105.0
941,C2,199.25,0.75,95,105.0
942,E-4,199.5,0.5,95,105.0
943,B-4,200.0,0.75,95,105.0
944,G#1,200.0,0.5,95,105.0
945,A3,200.0,1.0,95,105.0
946,C2,200.0,1.0,95,105.0
947,G#1,200.5,0.5,95,105.0
948,E-3,200.5,0.5,47,105.0
949,G#2,200.5,0.5,47,105.0
950,B-4,200.75,0.25,95,105.0
951,B4,201.0,0.5,70,105.0
952,F#2,201.0,0.5,95,105.0
953,E-3,201.0,0.5,47,105.0
954,G#2,201.0,0.5,47,105.0
955,B-4,201.5,0.5,95,105.0
956,G#1,201.5,0.5,95,105.0
957,E2,201.5,0.5,95,105.0
958,G#4,202.0,0.75,95,105.0
959,F#2,202.0,0.5,95,105.0
960,E-3,202.0,0.5,47,105.0
961,G#2,202.0,0.5,47,105.0
962,C2,202.5,0.5,95,105.0
963,G#4,202.75,0.75,63,105.0
964,E-4,202.75,0.75,63,105.0
965,E-1,203.0,0.5,95,105.0
966,F#2,203.0,0.5,95,105.0
967,E2,203.0,0.5,95,105.0
968,B3,203.5,0.5,95,105.0
969,F#1,203.5,0.5,95,105.0
970,F#2,203.5,167/1000,63,105.0
971,F#2,203.667,167/1000,63,105.0
972,F#2,203.833,167/1000,63,105.0
973,F#4,204.0,1.5,95,105.0
974,G#1,204.0,0.5,95,105.0
975,F#2,204.0,0.5,95,105.0
976,C2,204.0,0.5,95,105.0
977,G#1,204.5,0.5,95,105.0
978,C2,204.5,0.5,95,105.0
979,F#2,205.0,0.5,95,105.0
980,F4,205.5,0.5,95,105.0
981,G#1,205.5,0.5,95,105.0
982,E2,205.5,0.5,95,105.0
983,G#3,206.0,0.5,95,105.0
984,F#2,206.0,0.5,95,105.0
985,B-3,206.5,0.5,95,105.0
986,C2,206.5,0.5,95,105.0
987,B3,207.0,0.5,95,105.0
988,E-1,207.0,0.5,95,105.0
989,F#2,207.0,0.5,95,105.0
990,E2,207.0,0.5,95,105.0
991,E-4,207.5,0.5,95,105.0
992,F#1,207.5,0.5,95,105.0
993,F#2,207.5,167/1000,63,105.0
994,F#2,207.667,167/1000,63,105.0
995,F#2,207.833,167/1000,63,105.0
996,D4,208.0,4.0,95,105.0
997,G#1,208.0,0.5,95,105.0
998,F#2,208.0,0.5,95,105.0
999,C2,208.0,0.5,95,105.0
1000,G#1,208.5,0.5,95,105.0
1001,C2,208.5,0.5,95,105.0
1002,F#2,209.0,0.5,95,105.0
1003,G#1,209.5,0.5,95,105.0
1004,E2,209.5,0.5,95,105.0
1005,F#2,210.0,0.5,95,105.0
1006,C2,210.5,0.5,95,105.0
1007,E-1,211.0,0.5,95,105.0
1008,B-2,211.0,1.0,95,105.0
1009,E2,211.0,1.0,95,105.0
1010,F#1,211.5,0.5,95,105.0
1011,D4,212.0,2.5,95,105.0
1012,G#1,212.0,0.5,95,105.0
1013,B-2,212.0,0.5,95,105.0
1014,C2,212.0,0.5,95,105.0
1015,G#1,212.5,0.5,95,105.0
1016,B-2,212.5,0.25,63,105.0
1017,E2,212.75,0.25,95,105.0
1018,E2,213.0,0.25,95,105.0
1019,E2,213.25,0.25,95,105.0
1020,G#1,213.5,0.5,95,105.0
1021,E2,213.5,0.25,95,105.0
1022,E2,213.75,0.25,95,105.0
1023,B2,214.0,0.25,95,105.0
1024,B2,214.25,0.25,95,105.0
1025,B2,214.5,0.25,95,105.0
1026,B2,214.5,0.25,95,105.0
1027,C#3,214.75,0.5,95,105.0
1028,A2,214.75,0.25,95,105.0
1029,E-1,215.0,0.5,95,105.0
1030,E2,215.0,0.969,95,105.0
1031,E2,215.0,0.969,95,105.0
1032,B2,215.25,0.75,95,105.0
1033,F#1,215.5,0.5,95,105.0
1034,G#1,216.0,0.5,95,105.0
1035,E-3,216.0,0.5,95,105.0
1036,G#2,216.0,0.5,95,105.0
1037,A3,216.0,1.0,95,105.0
1038,C2,216.0,1.0,95,105.0
1039,G#1,216.5,0.5,95,105.0
1040,E-3,216.5,0.5,95,105.0
1041,G#2,216.5,0.5,95,105.0
1042,F#2,217.0,0.5,95,105.0
1043,G#1,217.5,0.5,95,105.0
1044,E2,217.5,0.5,95,105.0
1045,E-3,217.5,0.5,95,105.0
1046,G#2,217.5,0.5,95,105.0
1047,F#2,218.0,0.5,95,105.0
1048,C2,218.5,0.5,95,105.0
1049,E-2,219.0,29/250,95,105.0
1050,E-1,219.0,0.5,95,105.0
1051,F#2,219.0,0.5,95,105.0
1052,E2,219.0,0.5,95,105.0
1053,F#2,219.5,29/250,95,105.0
1054,F#1,219.5,0.5,95,105.0
1055,F#2,219.5,167/1000,63,105.0
1056,F#2,219.667,167/1000,63,105.0
1057,F#2,219.833,167/1000,63,105.0
1058,G#1,220.0,0.5,95,105.0
1059,E-3,220.0,0.5,95,105.0
1060,G#2,220.0,0.5,95,105.0
1061,F#2,220.0,0.5,95,105.0
1062,C2,220.0,0.5,95,105.0
1063,G#1,220.5,0.5,95,105.0
1064,C2,220.5,0.5,95,105.0
1065,E-3,220.5,0.5,95,105.0
1066,G#2,220.5,0.5,95,105.0
1067,F#2,221.0,0.5,95,105.0
1068,G#1,221.5,0.5,95,105.0
1069,E2,221.5,0.5,95,105.0
1070,E-3,221.5,0.5,95,105.0
1071,G#2,221.5,0.5,95,105.0
1072,F#2,222.0,0.25,95,105.0
1073,C2,222.25,0.25,63,105.0
1074,C2,222.5,0.25,95,105.0
1075,C2,222.75,0.25,95,105.0
1076,E-2,223.0,29/250,95,105.0
1077,E-1,223.0,0.5,95,105.0
1078,F#2,223.0,0.25,95,105.0
1079,E2,223.0,0.25,95,105.0
1080,C2,223.25,0.25,95,105.0
1081,F#2,223.5,29/250,95,105.0
1082,F#1,223.5,0.5,95,105.0
1083,F#2,223.5,0.5,47,105.0
1084,G#1,224.0,0.5,95,105.0
1085,E-3,224.0,0.5,95,105.0
1086,G#2,224.0,0.5,95,105.0
1087,F#2,224.0,0.5,95,105.0
1088,C2,224.0,0.5,95,105.0
1089,G#1,224.5,0.5,95,105.0
1090,C2,224.5,0.5,95,105.0
1091,E-3,224.5,0.5,95,105.0
1092,G#2,224.5,0.5,95,105.0
1093,F#2,225.0,0.5,95,105.0
1094,G#1,225.5,0.5,95,105.0
1095,E2,225.5,0.5,95,105.0
1096,E-3,225.5,0.5,95,105.0
1097,G#2,225.5,0.5,95,105.0
1098,F#2,226.0,0.5,95,105.0
1099,C#2,226.5,0.25,95,105.0
1100,C2,226.5,0.5,95,105.0
1101,E-2,226.75,1.25,95,105.0
1102,E-2,227.0,29/250,95,105.0
1103,F#2,227.0,1.0,95,105.0
1104,F#2,227.0,0.5,95,105.0
1105,E2,227.0,0.5,95,105.0
1106,F#2,227.5,29/250,95,105.0
1107,F#2,227.5,167/1000,63,105.0
1108,F#2,227.667,167/1000,63,105.0
1109,F#2,227.833,167/1000,63,105.0
1110,G#2,228.0,1.0,95,105.0
1111,E-3,228.0,0.5,95,105.0
1112,G#2,228.0,0.5,95,105.0
1113,F#2,228.0,0.5,95,105.0
1114,C2,228.0,0.5,95,105.0
1115,E-3,228.5,0.5,95,105.0
1116,G#2,228.5,0.5,95,105.0
1117,F#2,228.5,0.5,95,105.0
1118,C2,228.5,0.5,95,105.0
1119,B2,229.0,0.25,95,105.0
1120,B-2,229.0,0.5,95,105.0
1121,G#2,229.5,1.0,95,105.0
1122,C2,229.5,0.5,95,105.0
1123,E-3,229.5,0.5,95,105.0
1124,G#2,229.5,0.5,95,105.0
1125,E2,230.0,0.484,95,105.0
1126,E2,230.0,0.484,95,105.0
1127,E-1,230.5,0.5,95,105.0
1128,C2,230.5,0.5,95,105.0
1129,E-2,231.0,29/250,95,105.0
1130,F#1,231.0,0.5,95,105.0
1131,B2,231.0,0.484,95,105.0
1132,B2,231.0,0.484,95,105.0
1133,F#2,231.5,29/250,95,105.0
1134,E-1,231.5,0.5,95,105.0
1135,C2,231.5,0.5,95,105.0
1136,G#1,232.0,0.5,95,105.0
1137,E-3,232.0,0.5,95,105.0
1138,G#2,232.0,0.5,95,105.0
1139,C#3,232.0,1.0,95,105.0
1140,C2,232.0,1.0,95,105.0
1141,G#1,232.5,0.5,95,105.0
1142,E-3,232.5,0.5,95,105.0
1143,G#2,232.5,0.5,95,105.0
1144,F#2,233.0,0.5,95,105.0
1145,G#1,233.5,0.5,95,105.0
1146,E2,233.5,0.5,95,105.0
1147,E-3,233.5,0.5,95,105.0
1148,G#2,233.5,0.5,95,105.0
1149,F#2,234.0,0.5,95,105.0
1150,E-1,234.5,0.5,95,105.0
1151,C2,234.5,0.5,95,105.0
1152,E-2,235.0,29/250,95,105.0
1153,F#1,235.0,0.5,95,105.0
1154,F#2,235.0,0.5,95,105.0
1155,E2,235.0,0.5,95,105.0
1156,F#2,235.5,29/250,95,105.0
1157,E-1,235.5,0.5,95,105.0
1158,F#2,235.5,167/1000,63,105.0
1159,F#2,235.667,167/1000,63,105.0
1160,F#2,235.833,167/1000,63,105.0
1161,G#1,236.0,0.5,95,105.0
1162,E-3,236.0,0.5,95,105.0
1163,G#2,236.0,0.5,95,105.0
1164,F#2,236.0,0.5,95,105.0
1165,C2,236.0,0.5,95,105.0
1166,G#1,236.5,0.5,95,105.0
1167,C2,236.5,0.5,95,105.0
1168,E-3,236.5,0.5,95,105.0
1169,G#2,236.5,0.5,95,105.0
1170,F#2,237.0,0.5,95,105.0
1171,G#1,237.5,0.5,95,105.0
1172,E2,237.5,0.5,95,105.0
1173,E-3,237.5,0.5,95,105.0
1174,G#2,237.5,0.5,95,105.0
1175,F#2,238.0,0.5,95,105.0
1176,E-1,238.5,0.5,95,105.0
1177,C2,238.5,0.5,95,105.0
1178,E-2,239.0,29/250,95,105.0
1179,F#1,239.0,0.5,95,105.0
1180,B-2,239.0,1.0,95,105.0
1181,E2,239.0,1.0,95,105.0
1182,F#2,239.5,29/250,95,105.0
1183,E-1,239.5,0.5,95,105.0
1184,G#1,240.0,0.5,95,105.0
1185,E-3,240.0,0.5,95,105.0
1186,G#2,240.0,0.5,95,105.0
1187,F#2,240.0,0.5,95,105.0
1188,C2,240.0,0.5,95,105.0
1189,G#1,240.5,0.5,95,105.0
1190,C2,240.5,0.5,95,105.0
1191,E-3,240.5,0.5,95,105.0
1192,G#2,240.5,0.5,95,105.0
1193,F#2,241.0,0.5,95,105.0
1194,G#1,241.5,0.5,95,105.0
1195,E2,241.5,0.5,95,105.0
1196,E-3,241.5,0.5,95,105.0
1197,G#2,241.5,0.5,95,105.0
1198,F#2,242.0,0.5,95,105.0
1199,E-1,242.5,0.5,95,105.0
1200,C2,242.5,0.5,95,105.0
1201,E-2,243.0,29/250,95,105.0
1202,F#1,243.0,0.5,95,105.0
1203,F#2,243.0,0.5,95,105.0
1204,E2,243.0,0.5,95,105.0
1205,F#2,243.5,29/250,95,105.0
1206,E-1,243.5,0.5,95,105.0
1207,F#2,243.5,167/1000,63,105.0
1208,F#2,243.667,167/1000,63,105.0
1209,F#2,243.833,167/1000,63,105.0
1210,G#1,244.0,0.5,95,105.0
1211,E-3,244.0,0.5,95,105.0
1212,G#2,244.0,0.5,95,105.0
1213,F#2,244.0,0.5,95,105.0
1214,C2,244.0,0.5,95,105.0
1215,G#1,244.5,0.5,95,105.0
1216,C2,244.5,0.5,95,105.0
1217,E-3,244.5,0.5,95,105.0
1218,G#2,244.5,0.5,95,105.0
1219,F#2,245.0,0.5,95,105.0
1220,G#1,245.5,0.5,95,105.0
1221,E2,245.5,0.5,95,105.0
1222,E-3,245.5,0.5,95,105.0
1223,G#2,245.5,0.5,95,105.0
1224,F#2,246.0,0.5,95,105.0
1225,F#4,246.5,0.5,95,105.0
1226,E-1,246.5,0.5,95,105.0
1227,C2,246.5,0.5,95,105.0
1228,G#4,247.0,0.5,95,105.0
1229,F#1,247.0,0.5,95,105.0
1230,B-2,247.0,1.0,95,105.0
1231,E2,247.0,1.0,95,105.0
1232,B4,247.5,0.5,95,105.0
1233,E-1,247.5,0.5,95,105.0
1234,E-5,248.0,1.5,95,105.0
1235,G#1,248.0,0.5,95,105.0
1236,F#2,248.0,0.5,95,105.0
1237,C2,248.0,0.5,95,105.0
1238,G#1,248.5,0.5,95,105.0
1239,C2,248.5,0.5,95,105.0
1240,F#2,249.0,0.5,95,105.0
1241,D5,249.5,0.5,95,105.0
1242,G#1,249.5,0.5,95,105.0
1243,E2,249.5,0.5,95,105.0
1244,D5,250.0,2.0,95,105.0
1245,F#2,250.0,0.5,95,105.0
1246,E-1,250.5,0.5,95,105.0
1247,C2,250.5,0.5,95,105.0
1248,F#1,251.0,0.5,95,105.0
1249,F#2,251.0,0.5,95,105.0
1250,E2,251.0,0.5,95,105.0
1251,E-1,251.5,0.5,95,105.0
1252,F#2,251.5,167/1000,63,105.0
1253,F#2,251.667,167/1000,63,105.0
1254,F#2,251.833,167/1000,63,105.0
1255,D5,252.0,2.5,95,105.0
1256,G#1,252.0,0.5,95,105.0
1257,F#2,252.0,0.5,95,105.0
1258,C2,252.0,0.5,95,105.0
1259,G#1,252.5,0.5,95,105.0
1260,C2,252.5,0.5,95,105.0
1261,F#2,253.0,0.5,95,105.0
1262,G#1,253.5,0.5,95,105.0
1263,E2,253.5,0.5,95,105.0
1264,F#2,254.0,0.5,95,105.0
1265,B4,254.5,1.0,95,105.0
1266,E-1,254.5,0.5,95,105.0
1267,C2,254.5,0.5,95,105.0
1268,F#1,255.0,0.5,95,105.0
1269,B-2,255.0,1.0,95,105.0
1270,E2,255.0,1.0,95,105.0
1271,G#4,255.5,0.5,95,105.0
1272,E-1,255.5,0.5,95,105.0
1273,F#5,256.0,1.5,95,105.0
1274,G#1,256.0,0.5,95,105.0
1275,F#2,256.0,0.5,95,105.0
1276,C2,256.0,0.5,95,105.0
1277,G#1,256.5,0.5,95,105.0
1278,C2,256.5,0.5,95,105.0
1279,F#2,257.0,0.5,95,105.0
1280,F5,257.5,2.5,95,105.0
1281,G#1,257.5,0.5,95,105.0
1282,E2,257.5,0.5,95,105.0
1283,F#2,258.0,0.5,95,105.0
1284,E-1,258.5,0.5,95,105.0
1285,C2,258.5,0.5,95,105.0
1286,F#1,259.0,0.5,95,105.0
1287,B-2,259.0,1.0,95,105.0
1288,E2,259.0,1.0,95,105.0
1289,E-1,259.5,0.5,95,105.0
1290,F5,260.0,2.5,95,105.0
1291,G#1,260.0,0.5,95,105.0
1292,F#2,260.0,0.5,95,105.0
1293,C2,260.0,0.5,95,105.0
1294,G#1,260.5,0.5,95,105.0
1295,C2,260.5,0.5,95,105.0
1296,F#2,261.0,0.5,95,105.0
1297,G#1,261.5,0.5,95,105.0
1298,E2,261.5,0.5,95,105.0
1299,B-2,262.0,0.5,95,105.0
1300,G#4,262.5,1.0,95,105.0
1301,E-1,262.5,0.5,95,105.0
1302,C2,262.5,0.5,95,105.0
1303,F#1,263.0,0.5,95,105.0
1304,B2,263.0,0.484,95,105.0
1305,B2,263.0,0.484,95,105.0
1306,B4,263.5,0.5,95,105.0
1307,E-1,263.5,0.5,95,105.0
1308,C2,263.5,0.5,95,105.0
1309,E-5,264.0,1.5,95,105.0
1310,G#1,264.0,0.5,95,105.0
1311,A3,264.0,0.5,95,105.0
1312,C2,264.0,0.5,95,105.0
1313,G#1,264.5,0.5,95,105.0
1314,C2,264.5,0.5,95,105.0
1315,F#2,265.0,0.5,95,105.0
1316,D5,265.5,1.0,95,105.0
1317,G#1,265.5,0.5,95,105.0
1318,E2,265.5,0.5,95,105.0
1319,F#2,266.0,0.5,95,105.0
1320,B4,266.5,1.0,95,105.0
1321,E-1,266.5,0.5,95,105.0
1322,C2,266.5,0.5,95,105.0
1323,F#1,267.0,0.5,95,105.0
1324,F#2,267.0,0.5,95,105.0
1325,E2,267.0,0.5,95,105.0
1326,G#4,267.5,0.25,95,105.0
1327,E-1,267.5,0.5,95,105.0
1328,F#2,267.5,167/1000,63,105.0
1329,F#2,267.667,167/1000,63,105.0
1330,F#2,267.833,167/1000,63,105.0
1331,F#5,268.0,1.5,95,105.0
1332,G#1,268.0,0.5,95,105.0
1333,F#2,268.0,0.5,95,105.0
1334,C2,268.0,0.5,95,105.0
1335,G#1,268.5,0.5,95,105.0
1336,C2,268.5,0.5,95,105.0
1337,F#2,269.0,0.5,95,105.0
1338,F5,269.5,1.0,95,105.0
1339,G#1,269.5,0.5,95,105.0
1340,E2,269.5,0.5,95,105.0
1341,F#2,270.0,0.5,95,105.0
1342,E-5,270.5,1.0,95,105.0
1343,E-1,270.5,0.5,95,105.0
1344,C2,270.5,0.5,95,105.0
1345,F#1,271.0,0.5,95,105.0
1346,B-2,271.0,1.0,95,105.0
1347,E2,271.0,1.0,95,105.0
1348,B4,271.5,0.5,95,105.0
1349,E-1,271.5,0.5,95,105.0
1350,B-5,272.0,1.5,95,105.0
1351,G#1,272.0,0.5,95,105.0
1352,F#2,272.0,0.5,95,105.0
1353,C2,272.0,0.5,95,105.0
1354,G#1,272.5,0.5,95,105.0
1355,C2,272.5,0.5,95,105.0
1356,F#2,273.0,0.5,95,105.0
1357,G#5,273.5,2.5,95,105.0
1358,G#1,273.5,0.5,95,105.0
1359,E2,273.5,0.5,95,105.0
1360,F#2,274.0,0.5,95,105.0
1361,E-1,274.5,0.5,95,105.0
1362,C2,274.5,0.5,95,105.0
1363,F#1,275.0,0.5,95,105.0
1364,F#2,275.0,0.5,95,105.0
1365,E2,275.0,0.5,95,105.0
1366,E-1,275.5,0.5,95,105.0
1367,F#2,275.5,167/1000,63,105.0
1368,F#2,275.667,167/1000,63,105.0
1369,F#2,275.833,167/1000,63,105.0
1370,G#5,276.0,2.5,95,105.0
1371,G#1,276.0,0.5,95,105.0
1372,F#2,276.0,0.5,95,105.0
1373,C2,276.0,0.5,95,105.0
1374,G#1,276.5,0.5,95,105.0
1375,C2,276.5,0.5,95,105.0
1376,B-2,277.0,0.5,95,105.0
1377,G#1,277.5,0.5,95,105.0
1378,C2,277.5,0.5,95,105.0
1379,G#1,278.0,0.5,95,105.0
1380,E2,278.0,0.484,95,105.0
1381,E2,278.0,0.484,95,105.0
1382,G#4,278.5,0.5,95,105.0
1383,B-1,278.5,0.5,95,105.0
1384,C2,278.5,0.5,95,105.0
1385,B4,279.0,0.5,95,105.0
1386,B1,279.0,0.5,95,105.0
1387,B2,279.0,0.484,95,105.0
1388,B2,279.0,0.484,95,105.0
1389,E-2,279.5,0.5,95,105.0
1390,C2,279.5,0.5,95,105.0
1391,E-5,279.5,0.5,63,105.0
1392,B4,279.5,0.5,63,105.0
1393,B-5,280.0,1.0,95,105.0
1394,D2,280.0,0.5,95,105.0
1395,C#3,280.0,1.0,95,105.0
1396,C2,280.0,1.0,95,105.0
1397,D2,280.5,0.5,95,105.0
1398,F#2,281.0,0.5,95,105.0
1399,G#5,281.5,1.0,95,105.0
1400,D2,281.5,2.5,95,105.0
1401,E2,281.5,0.5,95,105.0
1402,F#2,282.0,0.5,95,105.0
1403,C2,282.5,0.5,95,105.0
1404,G#5,282.5,1.0,63,105.0
1405,E-5,282.5,1.0,63,105.0
1406,E2,283.0,0.5,95,105.0
1407,B4,283.5,0.5,95,105.0
1408,F#2,283.5,167/1000,63,105.0
1409,F#2,283.667,167/1000,63,105.0
1410,F#2,283.833,167/1000,63,105.0
1411,F#5,284.0,1.0,95,105.0
1412,D2,284.0,0.5,95,105.0
1413,F#2,284.0,0.5,95,105.0
1414,C2,284.0,0.5,95,105.0
1415,D2,284.5,0.5,95,105.0
1416,C2,284.5,0.5,95,105.0
1417,B-2,285.0,0.5,95,105.0
1418,F5,285.5,1.5,95,105.0
1419,D2,285.5,0.5,95,105.0
1420,C2,285.5,0.5,95,105.0
1421,E2,286.0,0.484,95,105.0
1422,E2,286.0,0.484,95,105.0
1423,C#2,286.5,0.75,95,105.0
1424,C#3,286.5,0.75,95,105.0
1425,C2,286.5,0.75,95,105.0
1426,B1,287.25,0.75,95,105.0
1427,A3,287.25,0.75,95,105.0
1428,C2,287.25,0.75,95,105.0
1429,E-5,287.5,0.25,95,105.0
1430,B-5,288.0,1.5,95,105.0
1431,G#1,288.0,0.5,95,105.0
1432,A3,288.0,1.0,95,105.0
1433,C2,288.0,1.0,95,105.0
1434,G#1,288.5,0.5,95,105.0
1435,F#2,289.0,0.5,95,105.0
1436,B-5,289.5,0.25,95,105.0
1437,G#1,289.5,0.5,95,105.0
1438,E2,289.5,0.5,95,105.0
1439,G#5,290.0,0.75,95,105.0
1440,F#2,290.0,0.5,95,105.0
1441,C2,290.5,0.5,95,105.0
1442,E-5,290.75,0.75,95,105.0
1443,E-1,291.0,0.5,95,105.0
1444,B-2,291.0,1.0,95,105.0
1445,E2,291.0,1.0,95,105.0
1446,F#1,291.5,0.5,95,105.0
1447,E-5,291.5,0.25,63,105.0
1448,B4,291.5,0.25,63,105.0
1449,F#5,292.0,1.5,95,105.0
1450,G#1,292.0,0.5,95,105.0
1451,B-2,292.0,0.5,95,105.0
1452,C2,292.0,0.5,95,105.0
1453,G#1,292.5,0.5,95,105.0
1454,C2,292.5,0.5,95,105.0
1455,E2,293.0,0.484,95,105.0
1456,E2,293.0,0.484,95,105.0
1457,F5,293.5,0.5,95,105.0
1458,G#1,293.5,0.5,95,105.0
1459,C2,293.5,0.5,95,105.0
1460,G#2,294.0,0.5,95,105.0
1461,G#1,294.0,0.5,95,105.0
1462,E2,294.0,0.484,95,105.0
1463,E2,294.0,0.484,95,105.0
1464,B-2,294.5,0.5,95,105.0
1465,B-1,294.5,0.5,95,105.0
1466,C2,294.5,0.5,95,105.0
1467,B2,295.0,0.5,95,105.0
1468,B1,295.0,0.5,95,105.0
1469,E2,295.0,0.484,95,105.0
1470,E2,295.0,0.484,95,105.0
1471,E-3,295.5,0.5,95,105.0
1472,E-2,295.5,0.5,95,105.0
1473,C2,295.5,0.5,95,105.0
1474,D3,296.0,4.0,95,105.0
1475,D2,296.0,0.5,95,105.0
1476,A3,296.0,1.0,95,105.0
1477,C2,296.0,1.0,95,105.0
1478,D2,296.5,0.5,95,105.0
1479,F#2,297.0,0.5,95,105.0
1480,D2,297.5,2.5,95,105.0
1481,E2,297.5,0.5,95,105.0
1482,F#2,298.0,0.5,95,105.0
1483,C2,298.5,0.5,95,105.0
1484,B-2,299.0,0.5,95,105.0
1485,E2,299.0,0.5,95,105.0
1486,G#2,299.5,0.5,47,105.0
1487,D3,300.0,2.5,95,105.0
1488,D2,300.0,0.5,95,105.0
1489,F#2,300.0,0.5,95,105.0
1490,C2,300.0,0.5,95,105.0
1491,D2,300.5,0.5,95,105.0
1492,C2,300.5,0.5,95,105.0
1493,F#2,301.0,0.5,95,105.0
1494,D2,301.5,2.5,95,105.0
1495,E2,301.5,0.5,95,105.0
1496,F#2,302.0,0.5,95,105.0
1497,B2,302.5,0.25,95,105.0
1498,C2,302.5,0.5,95,105.0
1499,C#3,302.75,0.5,95,105.0
1500,B-2,303.0,0.5,95,105.0
1501,E2,303.0,0.5,95,105.0
1502,B2,303.25,0.75,95,105.0
1503,G#2,303.5,0.5,47,105.0
1504,G#2,304.0,1.5,95,105.0
1505,D2,304.0,0.5,95,105.0
1506,F#2,304.0,0.5,95,105.0
1507,C2,304.0,0.5,95,105.0
1508,D2,304.5,0.5,95,105.0
1509,C2,304.5,0.5,95,105.0
1510,F#2,305.0,0.5,95,105.0
1511,G#5,305.5,1.5,95,105.0
1512,D2,305.5,2.5,95,105.0
1513,E2,305.5,0.5,95,105.0
1514,E-4,305.5,0.062,95,105.0
1515,D4,305.562,0.062,95,105.0
1516,C#4,305.625,0.062,95,105.0
1517,C4,305.688,0.062,95,105.0
1518,B3,305.75,0.062,95,105.0
1519,B-3,305.812,0.062,95,105.0
1520,A3,305.875,0.062,95,105.0
1521,G#3,305.938,0.062,95,105.0
1522,F#2,306.0,0.5,95,105.0
1523,G3,306.0,0.062,95,105.0
1524,F#3,306.062,0.062,95,105.0
1525,F3,306.125,0.062,95,105.0
1526,E3,306.188,0.062,95,105.0
1527,E-3,306.25,0.062,95,105.0
1528,D3,306.312,0.062,95,105.0
1529,C#3,306.375,0.062,95,105.0
1530,C3,306.438,0.062,95,105.0
1531,C2,306.5,0.5,95,105.0
1532,B2,306.5,0.062,95,105.0
1533,B-2,306.562,0.062,95,105.0
1534,A2,306.625,0.062,95,105.0
1535,G#2,306.688,0.062,95,105.0
1536,G2,306.75,0.062,95,105.0
1537,F#2,306.812,0.062,95,105.0
1538,F2,306.875,0.062,95,105.0
1539,E2,306.938,0.062,95,105.0
1540,G#5,307.0,1.0,95,105.0
1541,B-2,307.0,0.5,95,105.0
1542,E2,307.0,0.5,95,105.0
1543,G#2,307.5,0.5,47,105.0
1544,G#5,308.0,1.0,95,105.0
1545,D2,308.0,0.5,95,105.0
1546,E2,308.0,0.484,95,105.0
1547,E2,308.0,0.484,95,105.0
1548,D2,308.5,0.5,95,105.0
1549,C2,308.5,0.5,95,105.0
1550,E-4,309.0,1.0,47,105.0
1551,E2,309.0,0.484,95,105.0
1552,E2,309.0,0.484,95,105.0
1553,D2,309.5,0.5,95,105.0
1554,C2,309.5,0.5,95,105.0
1555,G#2,310.0,0.5,95,105.0
1556,E2,310.0,0.484,95,105.0
1557,E2,310.0,0.484,95,105.0
1558,B-2,310.5,0.5,95,105.0
1559,C#2,310.5,0.75,95,105.0
1560,C#3,310.5,0.75,95,105.0
1561,C2,310.5,0.75,95,105.0
1562,B2,311.0,0.5,95,105.0
1563,B1,311.25,0.75,95,105.0
1564,C#3,311.25,0.75,95,105.0
1565,C2,311.25,0.75,95,105.0
1566,E-3,311.5,0.5,95,105.0
1567,D3,312.0,3.0,95,105.0
1568,G#1,312.0,0.5,95,105.0
1569,A3,312.0,1.0,95,105.0
1570,C2,312.0,1.0,95,105.0
1571,G#1,312.5,0.5,95,105.0
1572,E-3,312.5,0.5,47,105.0
1573,G#2,312.5,0.5,47,105.0
1574,F#2,313.0,0.5,95,105.0
1575,E-3,313.0,0.5,47,105.0
1576,G#2,313.0,0.5,47,105.0
1577,G#1,313.5,0.5,95,105.0
1578,E2,313.5,0.5,95,105.0
1579,F#2,314.0,0.5,95,105.0
1580,E-3,314.0,0.5,47,105.0
1581,G#2,314.0,0.5,47,105.0
1582,C2,314.5,0.5,95,105.0
1583,E-1,315.0,0.5,95,105.0
1584,B-2,315.0,1.0,95,105.0
1585,E2,315.0,1.0,95,105.0
1586,F#1,315.5,0.5,95,105.0
1587,E-2,315.5,29/250,47,105.0
1588,D4,316.0,1.5,95,105.0
1589,G#1,316.0,0.5,95,105.0
1590,F#2,316.0,29/250,47,105.0
1591,F#2,316.0,0.5,95,105.0
1592,C2,316.0,0.5,95,105.0
1593,G#1,316.5,0.5,95,105.0
1594,C2,316.5,0.5,95,105.0
1595,E-3,316.5,0.5,47,105.0
1596,G#2,316.5,0.5,47,105.0
1597,F#2,317.0,0.5,95,105.0
1598,E-3,317.0,0.5,47,105.0
1599,G#2,317.0,0.5,47,105.0
1600,D5,317.5,1.5,95,105.0
1601,G#1,317.5,0.5,95,105.0
1602,E2,317.5,0.5,95,105.0
1603,F#2,318.0,0.5,95,105.0
1604,C2,318.5,0.5,95,105.0
1605,D5,319.0,1.0,95,105.0
1606,E-1,319.0,0.5,95,105.0
1607,B-2,319.0,1.0,95,105.0
1608,E2,319.0,1.0,95,105.0
1609,F#1,319.5,0.5,95,105.0
1610,D5,320.0,1.5,95,105.0
1611,G#1,320.0,0.5,95,105.0
1612,F#2,320.0,0.5,95,105.0
1613,C2,320.0,0.5,95,105.0
1614,G#1,320.5,0.5,95,105.0
1615,C2,320.5,0.5,95,105.0
1616,F#2,321.0,0.5,95,105.0
1617,E-4,321.5,0.062,79,105.0
1618,G#1,321.5,0.5,95,105.0
1619,E2,321.5,0.5,95,105.0
1620,D4,321.562,0.062,79,105.0
1621,C#4,321.625,0.062,79,105.0
1622,C4,321.688,0.062,79,105.0
1623,B3,321.75,0.062,79,105.0
1624,B-3,321.812,0.062,79,105.0
1625,A3,321.875,0.062,79,105.0
1626,G#3,321.938,0.062,79,105.0
1627,G3,322.0,0.062,79,105.0
1628,F#2,322.0,0.5,95,105.0
1629,F#3,322.062,0.062,79,105.0
1630,E3,322.125,0.062,79,105.0
1631,E-3,322.188,0.062,79,105.0
1632,D3,322.25,0.062,79,105.0
1633,C#3,322.312,0.062,79,105.0
1634,C3,322.375,0.062,79,105.0
1635,B2,322.438,0.062,79,105.0
1636,B-2,322.5,0.062,79,105.0
1637,C2,322.5,0.5,95,105.0
1638,A2,322.562,0.062,79,105.0
1639,G#2,322.625,0.062,79,105.0
1640,G2,322.688,0.062,79,105.0
1641,F#2,322.75,0.062,79,105.0
1642,F2,322.812,0.062,79,105.0
1643,G#3,323.0,1.0,95,105.0
1644,E-1,323.0,0.5,95,105.0
1645,F#2,323.0,0.5,95,105.0
1646,E2,323.0,0.5,95,105.0
1647,F#1,323.5,0.5,95,105.0
1648,F#2,323.5,0.5,47,105.0
1649,G#3,324.0,2.0,95,105.0
1650,G#1,324.0,0.5,95,105.0
1651,F#2,324.0,0.5,95,105.0
1652,C2,324.0,0.5,95,105.0
1653,G#1,324.5,0.5,95,105.0
1654,E2,324.5,0.5,95,105.0
1655,E2,325.0,0.25,95,105.0
1656,E2,325.25,0.25,95,105.0
1657,G#1,325.5,0.5,95,105.0
1658,E2,325.5,0.25,95,105.0
1659,E2,325.75,0.25,95,105.0
1660,E2,326.0,0.25,95,105.0
1661,E2,326.25,0.25,95,105.0
1662,B2,326.5,0.25,95,105.0
1663,E2,326.5,0.25,95,105.0
1664,C#3,326.75,0.5,95,105.0
1665,C2,326.75,0.25,95,105.0
1666,E2,327.0,0.969,95,105.0
1667,E2,327.0,0.969,95,105.0
1668,B2,327.25,0.75,95,105.0
1669,G#1,328.0,1.5,95,105.0
1670,E-3,328.0,0.5,95,105.0
1671,G#2,328.0,0.5,95,105.0
1672,C#3,328.0,1.5,95,105.0
1673,C2,328.0,1.5,95,105.0
1674,E-3,328.5,0.5,95,105.0
1675,G#2,328.5,0.5,95,105.0
1676,B-1,329.5,0.5,95,105.0
1677,E-3,329.5,0.5,95,105.0
1678,G#2,329.5,0.5,95,105.0
1679,A3,329.5,0.5,95,105.0
1680,C2,329.5,0.5,95,105.0
1681,B1,330.0,0.5,95,105.0
1682,A3,330.0,0.5,95,105.0
1683,C2,330.0,0.5,95,105.0
1684,E-2,330.5,1.0,95,105.0
1685,A3,330.5,1.0,95,105.0
1686,C2,330.5,1.0,95,105.0
1687,E-2,331.0,29/250,95,105.0
1688,F#2,331.5,29/250,95,105.0
1689,D2,331.5,1.0,95,105.0
1690,C#3,331.5,1.0,95,105.0
1691,C2,331.5,1.0,95,105.0
1692,E-3,332.0,0.5,95,105.0
1693,G#2,332.0,0.5,95,105.0
1694,D2,332.5,3.25,95,105.0
1695,E-3,332.5,0.5,95,105.0
1696,G#2,332.5,0.5,95,105.0
1697,E-3,333.5,0.5,95,105.0
1698,G#2,333.5,0.5,95,105.0
1699,B-2,333.75,1.0,95,105.0
1700,B-2,334.75,1.0,95,105.0
1701,E-2,335.0,29/250,95,105.0
1702,F#2,335.5,29/250,95,105.0
1703,G#1,335.75,0.25,95,105.0
1704,E2,335.75,0.25,95,105.0
1705,G#1,336.0,0.25,95,105.0
1706,E2,336.0,0.25,95,105.0
1707,E-3,336.0,0.5,95,105.0
1708,G#2,336.0,0.5,95,105.0
1709,G#1,336.25,0.25,95,105.0
1710,E2,336.25,0.25,95,105.0
1711,G#1,336.5,0.25,95,105.0
1712,E2,336.5,0.25,95,105.0
1713,E-3,336.5,0.5,95,105.0
1714,G#2,336.5,0.5,95,105.0
1715,G#1,336.75,0.5,95,105.0
1716,E2,336.75,0.5,95,105.0
1717,C2,336.75,0.5,95,105.0
1718,E-3,337.5,0.5,95,105.0
1719,G#2,337.5,0.5,95,105.0
1720,E-2,339.0,29/250,95,105.0
1721,F#2,339.5,29/250,95,105.0
1722,E-3,340.0,0.5,95,105.0
1723,G#2,340.0,0.5,95,105.0
1724,E-3,340.5,0.5,95,105.0
1725,G#2,340.5,0.5,95,105.0
1726,E-3,341.5,0.5,95,105.0
1727,G#2,341.5,0.5,95,105.0
1728,G#3,343.0,1.0,95,105.0
1729,G#2,344.0,1.5,95,105.0
1730,B-2,345.5,0.5,95,105.0
1731,B2,346.0,0.5,95,105.0
1732,E-3,346.5,1.0,95,105.0
1733,D3,347.5,1.0,95,105.0
1734,E-3,348.5,167/1000,70,105.0
1735,D3,348.667,167/1000,70,105.0
1736,E-3,348.833,167/1000,70,105.0
1737,D3,349.0,167/1000,70,105.0
1738,E-3,349.167,167/1000,70,105.0
1739,D3,349.333,167/1000,70,105.0
1740,E-3,349.5,167/1000,70,105.0
1741,D3,349.667,167/1000,70,105.0
1742,E-3,349.833,167/1000,70,105.0
1743,D3,350.0,1.75,70,105.0
1744,G#2,351.75,29/250,95,105.0
1745,G#2,352.0,29/250,95,105.0
1746,G#2,352.25,29/250,95,105.0
1747,G#2,352.5,29/250,95,105.0
1748,E-3,352.75,0.5,95,105.0
1749,G#2,352.75,0.5,95,105.0
