,note_name,start_time,duration,velocity,tempo
0,E5,0.0,0.5,95,150.0
1,F#5,0.5,0.5,95,150.0
2,D5,1.0,0.5,95,150.0
3,B4,1.5,0.5,95,150.0
4,C#5,2.5,0.5,95,150.0
5,A4,3.0,0.5,95,150.0
6,E4,4.0,0.5,95,150.0
7,F#4,4.5,0.5,95,150.0
8,D4,5.0,0.5,95,150.0
9,B3,5.5,0.5,95,150.0
10,C#4,6.5,0.5,95,150.0
11,A3,7.0,0.5,95,150.0
12,E3,8.0,0.5,95,150.0
13,F#3,8.5,0.5,95,150.0
14,D3,9.0,0.5,95,150.0
15,B2,9.5,1.0,95,150.0
16,C#3,10.5,0.5,95,150.0
17,B2,11.0,0.5,95,150.0
18,B-2,11.5,0.5,95,150.0
19,A2,12.0,1.0,95,150.0
20,G3,14.0,1.0,95,150.0
21,C#4,14.125,0.875,95,150.0
22,F#4,14.25,0.75,95,150.0
23,A4,14.375,0.625,95,150.0
24,E3,16.0,0.5,95,150.0
25,C#3,16.0,0.5,95,150.0
26,F3,16.5,0.5,95,150.0
27,F#3,17.0,0.5,95,150.0
28,D2,17.0,0.5,95,150.0
29,D4,17.5,0.5,95,150.0
30,F#3,18.5,0.5,95,150.0
31,D4,19.0,0.5,95,150.0
32,D2,19.0,0.5,95,150.0
33,F#3,19.5,0.5,95,150.0
34,D4,20.0,0.5,95,150.0
35,F#3,20.5,0.5,95,150.0
36,D4,21.0,1.0,95,150.0
37,G2,21.0,1.0,95,150.0
38,G3,22.0,1.0,95,150.0
39,D3,22.0,1.0,95,150.0
40,F#2,23.0,0.5,95,150.0
41,D4,23.5,0.5,95,150.0
42,F#3,23.5,0.5,95,150.0
43,E4,24.0,0.5,95,150.0
44,G3,24.0,0.5,95,150.0
45,F4,24.5,0.5,95,150.0
46,G#3,24.5,0.5,95,150.0
47,F#4,25.0,0.5,95,150.0
48,A3,25.0,0.5,95,150.0
49,A2,25.0,0.5,95,150.0
50,D4,25.5,0.5,95,150.0
51,F#3,25.5,0.5,95,150.0
52,E4,26.0,0.5,95,150.0
53,G3,26.0,0.5,95,150.0
54,F#4,26.5,0.5,95,150.0
55,A3,26.5,0.5,95,150.0
56,A2,27.0,0.5,95,150.0
57,C#4,27.5,0.5,95,150.0
58,E3,27.5,0.5,95,150.0
59,E4,28.0,1.0,95,150.0
60,G3,28.0,1.0,95,150.0
61,D2,29.0,0.969,95,150.0
62,F#3,29.0,0.969,95,150.0
63,D4,29.062,0.938,95,150.0
64,A2,30.0,1.0,95,150.0
65,B2,31.0,1.0,95,150.0
66,C#3,32.0,1.0,95,150.0
67,F#3,33.0,0.5,95,150.0
68,D2,33.0,2.0,95,150.0
69,D4,33.5,0.5,95,150.0
70,F#3,34.0,0.5,95,150.0
71,F#3,34.5,0.5,95,150.0
72,D4,35.0,0.5,95,150.0
73,D2,35.0,0.5,95,150.0
74,F#3,35.5,0.5,95,150.0
75,D4,36.0,0.5,95,150.0
76,F#3,36.5,0.5,95,150.0
77,D4,37.0,1.0,95,150.0
78,G2,37.0,1.0,95,150.0
79,G3,38.0,1.0,95,150.0
80,D3,38.0,1.0,95,150.0
81,F#2,39.0,0.5,95,150.0
82,D3,39.5,0.25,95,150.0
83,A3,39.75,0.25,95,150.0
84,B3,40.0,0.5,95,150.0
85,A3,40.5,0.5,95,150.0
86,G#3,41.0,0.5,95,150.0
87,E2,41.0,0.5,95,150.0
88,B3,41.5,0.5,95,150.0
89,D4,42.0,0.5,95,150.0
90,G#3,42.0,0.5,95,150.0
91,F#4,42.5,0.5,95,150.0
92,E2,43.0,0.5,95,150.0
93,E4,43.5,0.5,95,150.0
94,D4,44.0,0.5,95,150.0
95,G#3,44.0,0.5,95,150.0
96,B3,44.5,0.5,95,150.0
97,E4,45.0,1.0,95,150.0
98,A2,45.0,1.0,95,150.0
99,G3,46.0,1.0,95,150.0
100,E3,46.0,1.0,95,150.0
101,C#3,47.0,1.0,95,150.0
102,F3,48.0,1.0,95,150.0
103,F#3,49.0,0.5,95,150.0
104,D2,49.0,0.5,95,150.0
105,D4,49.5,0.5,95,150.0
106,F#3,50.5,0.5,95,150.0
107,D4,51.0,0.5,95,150.0
108,D2,51.0,1.0,95,150.0
109,F#3,51.5,0.5,95,150.0
110,D4,52.0,0.5,95,150.0
111,D2,52.0,1.0,95,150.0
112,F#3,52.5,0.5,95,150.0
113,D4,53.0,1.0,95,150.0
114,G2,53.0,1.0,95,150.0
115,G3,54.0,1.0,95,150.0
116,D3,54.0,1.0,95,150.0
117,F#2,55.0,0.5,95,150.0
118,D4,55.5,0.5,95,150.0
119,F#3,55.5,0.5,95,150.0
120,E4,56.0,0.5,95,150.0
121,G3,56.0,0.5,95,150.0
122,F4,56.5,0.5,95,150.0
123,G#3,56.5,0.5,95,150.0
124,F#4,57.0,0.5,95,150.0
125,A3,57.0,0.5,95,150.0
126,A2,57.0,0.5,95,150.0
127,D4,57.5,0.5,95,150.0
128,F#3,57.5,0.5,95,150.0
129,E4,58.0,0.5,95,150.0
130,G3,58.0,0.5,95,150.0
131,F#4,58.5,0.5,95,150.0
132,A3,58.5,0.5,95,150.0
133,A2,59.0,0.5,95,150.0
134,C#4,59.5,0.5,95,150.0
135,E3,59.5,0.5,95,150.0
136,E4,60.0,1.0,95,150.0
137,G3,60.0,1.0,95,150.0
138,D2,61.0,0.969,95,150.0
139,F#3,61.0,0.969,95,150.0
140,D4,61.062,0.938,95,150.0
141,A2,62.0,1.0,95,150.0
142,D2,63.0,1.0,95,150.0
143,D4,64.0,0.5,95,150.0
144,D2,64.0,3.0,95,150.0
145,E4,64.5,0.5,95,150.0
146,F#4,65.0,0.5,95,150.0
147,D3,65.0,0.5,95,150.0
148,D4,65.5,0.5,95,150.0
149,E4,66.0,0.5,95,150.0
150,A3,66.0,0.5,95,150.0
151,F#4,66.5,0.5,95,150.0
152,C3,67.0,1.0,95,150.0
153,D4,67.5,0.5,95,150.0
154,E4,68.0,0.5,95,150.0
155,C3,68.0,1.0,95,150.0
156,D4,68.5,0.5,95,150.0
157,B2,69.0,2.0,95,150.0
158,A3,69.016,0.469,95,150.0
159,F#4,69.016,0.469,95,150.0
160,D4,69.5,0.5,95,150.0
161,E4,70.0,0.5,95,150.0
162,F#4,70.5,0.5,95,150.0
163,B-2,71.0,1.0,95,150.0
164,D4,71.5,0.5,95,150.0
165,E4,72.0,0.5,95,150.0
166,B-2,72.0,1.0,95,150.0
167,D4,72.5,0.5,95,150.0
168,F#4,73.0,0.5,95,150.0
169,A3,73.0,0.5,95,150.0
170,A2,73.0,0.5,95,150.0
171,D4,73.5,0.5,95,150.0
172,F#3,73.5,0.5,95,150.0
173,E4,74.0,0.5,95,150.0
174,G3,74.0,0.5,95,150.0
175,F#4,74.5,0.5,95,150.0
176,A3,74.5,0.5,95,150.0
177,A2,75.0,0.5,95,150.0
178,C#4,75.5,0.5,95,150.0
179,E3,75.5,0.5,95,150.0
180,E4,76.0,1.0,95,150.0
181,G3,76.0,1.0,95,150.0
182,D2,77.0,0.969,95,150.0
183,F#3,77.0,0.969,95,150.0
184,D4,77.062,0.938,95,150.0
185,A2,78.0,1.0,95,150.0
186,B2,79.0,1.0,95,150.0
187,C#3,80.0,1.0,95,150.0
188,F#3,81.0,0.5,95,150.0
189,D2,81.0,0.5,95,150.0
190,D4,81.5,0.5,95,150.0
191,F#3,82.5,0.5,95,150.0
192,D4,83.0,0.5,95,150.0
193,D2,83.0,0.5,95,150.0
194,F#3,83.5,0.5,95,150.0
195,D4,84.0,0.5,95,150.0
196,F#3,84.5,0.5,95,150.0
197,D4,85.0,1.0,95,150.0
198,G2,85.0,1.0,95,150.0
199,G3,86.0,1.0,95,150.0
200,D3,86.0,1.0,95,150.0
201,F#2,87.0,0.5,95,150.0
202,D4,87.5,0.5,95,150.0
203,F#3,87.5,0.5,95,150.0
204,E4,88.0,0.5,95,150.0
205,G3,88.0,0.5,95,150.0
206,F4,88.5,0.5,95,150.0
207,G#3,88.5,0.5,95,150.0
208,F#4,89.0,0.5,95,150.0
209,A3,89.0,0.5,95,150.0
210,A2,89.0,0.5,95,150.0
211,D4,89.5,0.5,95,150.0
212,F#3,89.5,0.5,95,150.0
213,E4,90.0,0.5,95,150.0
214,G3,90.0,0.5,95,150.0
215,F#4,90.5,0.5,95,150.0
216,A3,90.5,0.5,95,150.0
217,A2,91.0,0.5,95,150.0
218,C#4,91.5,0.5,95,150.0
219,E3,91.5,0.5,95,150.0
220,E4,92.0,1.0,95,150.0
221,G3,92.0,1.0,95,150.0
222,D2,93.0,0.969,95,150.0
223,F#3,93.0,0.969,95,150.0
224,D4,93.062,0.938,95,150.0
225,A2,94.0,1.0,95,150.0
226,B2,95.0,1.0,95,150.0
227,C#3,96.0,1.0,95,150.0
228,F#3,97.0,0.5,95,150.0
229,D2,97.0,2.0,95,150.0
230,D4,97.5,0.5,95,150.0
231,F#3,98.0,0.5,95,150.0
232,F#3,98.5,0.5,95,150.0
233,D4,99.0,0.5,95,150.0
234,D2,99.0,0.5,95,150.0
235,F#3,99.5,0.5,95,150.0
236,D4,100.0,0.5,95,150.0
237,F#3,100.5,0.5,95,150.0
238,D4,101.0,1.0,95,150.0
239,G2,101.0,1.0,95,150.0
240,G3,102.0,1.0,95,150.0
241,D3,102.0,1.0,95,150.0
242,F#2,103.0,0.5,95,150.0
243,D3,103.5,0.25,95,150.0
244,A3,103.75,0.25,95,150.0
245,B3,104.0,0.5,95,150.0
246,A3,104.5,0.5,95,150.0
247,G#3,105.0,0.5,95,150.0
248,E2,105.0,0.5,95,150.0
249,B3,105.5,0.5,95,150.0
250,D4,106.0,0.5,95,150.0
251,G#3,106.0,0.5,95,150.0
252,F#4,106.5,0.5,95,150.0
253,E2,107.0,0.5,95,150.0
254,E4,107.5,0.5,95,150.0
255,D4,108.0,0.5,95,150.0
256,G#3,108.0,0.5,95,150.0
257,B3,108.5,0.5,95,150.0
258,E4,109.0,1.0,95,150.0
259,A2,109.0,1.0,95,150.0
260,G3,110.0,1.0,95,150.0
261,E3,110.0,1.0,95,150.0
262,C#3,111.0,1.0,95,150.0
263,F3,112.0,1.0,95,150.0
264,F#3,113.0,0.5,95,150.0
265,D2,113.0,0.5,95,150.0
266,D4,113.5,0.5,95,150.0
267,F#3,114.5,0.5,95,150.0
268,D4,115.0,0.5,95,150.0
269,D2,115.0,1.0,95,150.0
270,F#3,115.5,0.5,95,150.0
271,D4,116.0,0.5,95,150.0
272,D2,116.0,1.0,95,150.0
273,F#3,116.5,0.5,95,150.0
274,D4,117.0,1.0,95,150.0
275,G2,117.0,1.0,95,150.0
276,G3,118.0,1.0,95,150.0
277,D3,118.0,1.0,95,150.0
278,F#2,119.0,0.5,95,150.0
279,D4,119.5,0.5,95,150.0
280,F#3,119.5,0.5,95,150.0
281,E4,120.0,0.5,95,150.0
282,G3,120.0,0.5,95,150.0
283,F4,120.5,0.5,95,150.0
284,G#3,120.5,0.5,95,150.0
285,F#4,121.0,0.5,95,150.0
286,A3,121.0,0.5,95,150.0
287,A2,121.0,0.5,95,150.0
288,D4,121.5,0.5,95,150.0
289,F#3,121.5,0.5,95,150.0
290,E4,122.0,0.5,95,150.0
291,G3,122.0,0.5,95,150.0
292,F#4,122.5,0.5,95,150.0
293,A3,122.5,0.5,95,150.0
294,A2,123.0,0.5,95,150.0
295,C#4,123.5,0.5,95,150.0
296,E3,123.5,0.5,95,150.0
297,E4,124.0,1.0,95,150.0
298,G3,124.0,1.0,95,150.0
299,D2,125.0,0.969,95,150.0
300,F#3,125.0,0.969,95,150.0
301,D4,125.062,0.938,95,150.0
302,A2,126.0,1.0,95,150.0
303,D2,127.0,1.0,95,150.0
304,D4,128.0,0.5,95,150.0
305,E4,128.5,0.5,95,150.0
306,F#4,129.0,0.5,95,150.0
307,D3,129.0,0.5,95,150.0
308,D4,129.5,0.5,95,150.0
309,E4,130.0,0.5,95,150.0
310,A3,130.0,0.5,95,150.0
311,F#4,130.5,0.5,95,150.0
312,C3,131.0,1.0,95,150.0
313,D4,131.5,0.5,95,150.0
314,E4,132.0,0.5,95,150.0
315,C3,132.0,1.0,95,150.0
316,D4,132.5,0.5,95,150.0
317,B2,133.0,2.0,95,150.0
318,A3,133.016,0.469,95,150.0
319,F#4,133.016,0.469,95,150.0
320,D4,133.5,0.5,95,150.0
321,E4,134.0,0.5,95,150.0
322,F#4,134.5,0.5,95,150.0
323,B-2,135.0,1.0,95,150.0
324,D4,135.5,0.5,95,150.0
325,E4,136.0,0.5,95,150.0
326,B-2,136.0,1.0,95,150.0
327,D4,136.5,0.5,95,150.0
328,A2,137.0,0.469,95,150.0
329,A3,137.0,0.469,95,150.0
330,F#4,137.0,0.469,95,150.0
331,D4,137.5,0.5,95,150.0
332,F#3,137.5,0.5,95,150.0
333,E4,138.0,0.5,95,150.0
334,G3,138.0,0.5,95,150.0
335,F#4,138.5,0.5,95,150.0
336,A3,138.5,0.5,95,150.0
337,A2,139.0,0.5,95,150.0
338,C#4,139.5,0.5,95,150.0
339,E3,139.5,0.5,95,150.0
340,E4,140.0,1.0,95,150.0
341,G3,140.0,1.0,95,150.0
342,D2,141.0,0.969,95,150.0
343,F#3,141.0,0.969,95,150.0
344,D4,141.062,0.938,95,150.0
345,A2,142.0,1.0,95,150.0
346,D2,143.0,1.0,95,150.0
347,D2,144.0,3.5,95,150.0
348,F#4,144.0,0.5,95,150.0
349,D4,144.0,0.5,95,150.0
350,F#3,144.0,0.5,95,150.0
351,G4,144.5,0.5,95,150.0
352,E4,144.5,0.5,95,150.0
353,G3,144.5,0.5,95,150.0
354,G#4,145.0,0.5,95,150.0
355,F4,145.0,0.5,95,150.0
356,G#3,145.0,0.5,95,150.0
357,A4,145.5,1.0,95,150.0
358,F#4,145.5,1.0,95,150.0
359,A3,145.5,1.0,95,150.0
360,B4,146.5,0.5,95,150.0
361,G#4,146.5,0.5,95,150.0
362,B3,146.5,0.5,95,150.0
363,A4,147.0,0.5,95,150.0
364,F#4,147.0,0.5,95,150.0
365,A3,147.0,0.5,95,150.0
366,D2,147.5,0.5,95,150.0
367,D2,148.0,3.5,95,150.0
368,F#4,148.0,0.5,95,150.0
369,D4,148.0,0.5,95,150.0
370,F#3,148.0,0.5,95,150.0
371,G4,148.5,0.5,95,150.0
372,E4,148.5,0.5,95,150.0
373,G3,148.5,0.5,95,150.0
374,G#4,149.0,0.5,95,150.0
375,F4,149.0,0.5,95,150.0
376,G#3,149.0,0.5,95,150.0
377,A4,149.5,1.0,95,150.0
378,F#4,149.5,1.0,95,150.0
379,A3,149.5,1.0,95,150.0
380,B4,150.5,0.5,95,150.0
381,G#4,150.5,0.5,95,150.0
382,B3,150.5,0.5,95,150.0
383,A4,151.0,0.5,95,150.0
384,F#4,151.0,0.5,95,150.0
385,A3,151.0,0.5,95,150.0
386,D2,151.5,0.5,95,150.0
387,F#4,152.0,0.5,95,150.0
388,D4,152.5,0.5,95,150.0
389,A3,153.0,0.5,95,150.0
390,B3,153.5,0.5,95,150.0
391,G2,153.5,0.5,95,150.0
392,C#4,154.0,0.5,70,150.0
393,D4,154.5,0.5,95,150.0
394,G3,154.5,0.5,95,150.0
395,E4,155.0,0.5,95,150.0
396,F#4,155.5,0.5,95,150.0
397,B3,155.5,0.5,95,150.0
398,G2,155.5,0.5,95,150.0
399,E4,156.0,0.5,95,150.0
400,D4,156.5,0.5,95,150.0
401,G3,156.5,0.5,95,150.0
402,E4,157.0,0.5,95,150.0
403,D4,157.5,0.5,95,150.0
404,D2,157.5,2.5,95,150.0
405,F#3,158.0,0.5,95,150.0
406,G3,158.5,0.5,70,150.0
407,A3,159.0,0.5,95,150.0
408,B3,159.5,0.5,95,150.0
409,A3,160.0,0.5,95,150.0
410,D2,160.0,3.5,95,150.0
411,F#4,160.5,0.5,95,150.0
412,D4,160.5,0.5,95,150.0
413,F#3,160.5,0.5,95,150.0
414,G4,161.0,0.5,95,150.0
415,E4,161.0,0.5,95,150.0
416,G3,161.0,0.5,95,150.0
417,A4,161.5,1.0,95,150.0
418,F#4,161.5,1.0,95,150.0
419,A3,161.5,1.0,95,150.0
420,B4,162.5,0.5,95,150.0
421,G#4,162.5,0.5,95,150.0
422,B3,162.5,0.5,95,150.0
423,A4,163.0,0.5,95,150.0
424,F#4,163.0,0.5,95,150.0
425,A3,163.0,0.5,95,150.0
426,D2,163.5,0.5,95,150.0
427,D2,164.0,3.5,95,150.0
428,F#4,164.0,0.5,95,150.0
429,D4,164.0,0.5,95,150.0
430,F#3,164.0,0.5,95,150.0
431,G4,164.5,0.5,95,150.0
432,E4,164.5,0.5,95,150.0
433,G3,164.5,0.5,95,150.0
434,G#4,165.0,0.5,95,150.0
435,F4,165.0,0.5,95,150.0
436,G#3,165.0,0.5,95,150.0
437,A4,165.5,1.0,95,150.0
438,F#4,165.5,1.0,95,150.0
439,A3,165.5,1.0,95,150.0
440,B4,166.5,0.5,95,150.0
441,G#4,166.5,0.5,95,150.0
442,B3,166.5,0.5,95,150.0
443,A4,167.0,0.5,95,150.0
444,F#4,167.0,0.5,95,150.0
445,A3,167.0,0.5,95,150.0
446,D2,167.5,0.5,95,150.0
447,A4,168.0,0.5,95,150.0
448,B4,168.5,1.0,95,150.0
449,F4,168.5,1.0,95,150.0
450,C#5,169.5,0.5,95,150.0
451,E4,169.5,0.5,95,150.0
452,A2,169.5,0.5,95,150.0
453,C#5,170.0,0.5,95,150.0
454,E4,170.0,0.5,95,150.0
455,A3,170.5,0.5,95,150.0
456,C#5,171.0,0.5,95,150.0
457,E4,171.0,0.5,95,150.0
458,E3,171.5,0.5,95,150.0
459,B4,172.0,0.5,95,150.0
460,G#4,172.5,0.5,95,150.0
461,D4,172.5,0.5,95,150.0
462,E4,173.0,0.5,95,150.0
463,A4,173.5,0.5,95,150.0
464,A2,173.5,0.5,95,150.0
465,G3,174.0,0.5,95,150.0
466,E4,174.5,0.5,95,150.0
467,C#4,174.5,0.5,95,150.0
468,A4,175.0,1.0,95,150.0
469,F#4,176.0,0.5,95,150.0
470,G4,176.5,0.5,95,150.0
471,G#4,177.0,0.5,95,150.0
472,A4,177.5,0.5,95,150.0
473,D4,177.5,0.5,95,150.0
474,D2,177.5,0.5,95,150.0
475,B4,178.0,0.5,95,150.0
476,A3,178.5,0.5,95,150.0
477,A4,179.0,0.5,95,150.0
478,F#4,180.0,0.5,95,150.0
479,G4,180.5,0.5,95,150.0
480,G#4,181.0,0.5,95,150.0
481,A4,181.5,0.5,95,150.0
482,D4,181.5,0.5,95,150.0
483,D2,181.5,0.5,95,150.0
484,B4,182.0,0.5,95,150.0
485,A3,182.5,0.5,95,150.0
486,A4,183.0,0.5,95,150.0
487,F#4,184.0,0.5,95,150.0
488,D4,184.5,0.5,95,150.0
489,A3,185.0,0.5,95,150.0
490,B3,185.5,0.5,95,150.0
491,G2,185.5,0.5,95,150.0
492,C#4,186.0,0.5,70,150.0
493,D4,186.5,0.5,95,150.0
494,G3,186.5,0.5,95,150.0
495,E4,187.0,0.5,95,150.0
496,F#4,187.5,0.5,95,150.0
497,G2,187.5,0.5,95,150.0
498,E4,188.0,0.5,70,150.0
499,D4,188.5,0.5,95,150.0
500,G3,188.5,0.5,95,150.0
501,E4,189.0,0.5,95,150.0
502,D4,189.5,0.5,95,150.0
503,F#3,189.5,0.5,95,150.0
504,D2,189.5,0.5,95,150.0
505,F#3,190.0,0.5,95,150.0
506,A3,190.5,0.5,95,150.0
507,D4,191.0,1.0,95,150.0
508,B3,192.0,0.25,95,150.0
509,A3,192.25,0.25,70,150.0
510,G#3,192.5,0.5,95,150.0
511,A3,193.0,0.5,95,150.0
512,D4,193.5,1.0,95,150.0
513,G2,193.5,2.5,95,150.0
514,D3,194.5,0.5,95,150.0
515,B3,195.0,1.0,95,150.0
516,D4,196.0,1.0,95,150.0
517,G2,196.0,1.5,95,150.0
518,B3,197.0,0.5,95,150.0
519,G#2,197.5,2.5,95,150.0
520,B3,198.0,0.5,95,150.0
521,D4,198.5,0.5,95,150.0
522,E4,199.0,1.0,95,150.0
523,D4,200.0,1.0,95,150.0
524,G#2,200.0,1.5,95,150.0
525,B3,201.0,0.5,95,150.0
526,A3,201.5,0.5,95,150.0
527,A2,201.5,0.5,95,150.0
528,D4,202.0,0.5,95,150.0
529,F#4,202.5,0.5,95,150.0
530,D3,202.5,0.5,95,150.0
531,A4,203.0,0.5,95,150.0
532,D3,203.5,0.5,95,150.0
533,F#4,204.0,0.5,95,150.0
534,D4,204.5,0.5,95,150.0
535,A3,205.0,0.5,95,150.0
536,B3,205.5,1.0,95,150.0
537,G#3,205.5,1.0,95,150.0
538,E2,205.5,1.0,95,150.0
539,D4,206.5,1.0,95,150.0
540,F#4,207.5,0.5,95,150.0
541,D4,207.5,0.5,95,150.0
542,A3,207.5,0.5,95,150.0
543,A2,207.5,0.5,95,150.0
544,E4,208.0,1.5,95,150.0
545,B3,208.0,1.5,95,150.0
546,G3,208.0,1.5,95,150.0
547,D4,209.5,1.5,95,150.0
548,A3,209.5,1.5,95,150.0
549,F#3,209.5,1.5,95,150.0
550,D2,209.5,1.5,95,150.0
551,E3,212.0,0.5,95,150.0
552,C#3,212.0,0.5,95,150.0
553,F3,212.5,0.5,95,150.0
554,F#3,213.0,0.5,95,150.0
555,D2,213.0,0.5,95,150.0
556,D4,213.5,0.5,95,150.0
557,F#3,214.5,0.5,95,150.0
558,D4,215.0,0.5,95,150.0
559,D2,215.0,0.5,95,150.0
560,F#3,215.5,0.5,95,150.0
561,D4,216.0,0.5,95,150.0
562,F#3,216.5,0.5,95,150.0
563,D4,217.0,1.0,95,150.0
564,G2,217.0,1.0,95,150.0
565,G3,218.0,1.0,95,150.0
566,D3,218.0,1.0,95,150.0
567,F#2,219.0,0.5,95,150.0
568,D4,219.5,0.5,95,150.0
569,F#3,219.5,0.5,95,150.0
570,E4,220.0,0.5,95,150.0
571,G3,220.0,0.5,95,150.0
572,F4,220.5,0.5,95,150.0
573,G#3,220.5,0.5,95,150.0
574,F#4,221.0,0.5,95,150.0
575,A3,221.0,0.5,95,150.0
576,A2,221.0,0.5,95,150.0
577,D4,221.5,0.5,95,150.0
578,F#3,221.5,0.5,95,150.0
579,E4,222.0,0.5,95,150.0
580,G3,222.0,0.5,95,150.0
581,F#4,222.5,0.5,95,150.0
582,A3,222.5,0.5,95,150.0
583,A2,223.0,0.5,95,150.0
584,C#4,223.5,0.5,95,150.0
585,E3,223.5,0.5,95,150.0
586,E4,224.0,1.0,95,150.0
587,G3,224.0,1.0,95,150.0
588,D2,225.0,0.969,95,150.0
589,F#3,225.0,0.969,95,150.0
590,D4,225.062,0.938,95,150.0
591,A2,226.0,1.0,95,150.0
592,B2,227.0,1.0,95,150.0
593,C#3,228.0,1.0,95,150.0
594,F#3,229.0,0.5,95,150.0
595,D2,229.0,2.0,95,150.0
596,D4,229.5,0.5,95,150.0
597,F#3,230.0,0.5,95,150.0
598,F#3,230.5,0.5,95,150.0
599,D4,231.0,0.5,95,150.0
600,D2,231.0,1.0,95,150.0
601,F#3,231.5,0.5,95,150.0
602,D4,232.0,0.5,95,150.0
603,D2,232.0,1.0,95,150.0
604,F#3,232.5,0.5,95,150.0
605,D4,233.0,1.0,95,150.0
606,G2,233.0,1.0,95,150.0
607,G3,234.0,1.0,95,150.0
608,D3,234.0,1.0,95,150.0
609,F#2,235.0,0.5,95,150.0
610,D3,235.5,0.25,95,150.0
611,A3,235.75,0.25,95,150.0
612,B3,236.0,0.5,95,150.0
613,A3,236.5,0.5,95,150.0
614,G#3,237.0,0.5,95,150.0
615,E2,237.0,0.5,95,150.0
616,B3,237.5,0.5,95,150.0
617,D4,238.0,0.5,95,150.0
618,G#3,238.0,0.5,95,150.0
619,F#4,238.5,0.5,95,150.0
620,E2,239.0,0.5,95,150.0
621,E4,239.5,0.5,95,150.0
622,D4,240.0,0.5,95,150.0
623,G#3,240.0,0.5,95,150.0
624,B3,240.5,0.5,95,150.0
625,E4,241.0,1.0,95,150.0
626,A2,241.0,1.0,95,150.0
627,G3,242.0,1.0,95,150.0
628,E3,242.0,1.0,95,150.0
629,C#3,243.0,1.0,95,150.0
630,F3,244.0,1.0,95,150.0
631,F#3,245.0,0.5,95,150.0
632,D2,245.0,0.5,95,150.0
633,D4,245.5,0.5,95,150.0
634,F#3,246.5,0.5,95,150.0
635,D4,247.0,0.5,95,150.0
636,D2,247.0,0.5,95,150.0
637,F#3,247.5,0.5,95,150.0
638,D4,248.0,0.5,95,150.0
639,F#3,248.5,0.5,95,150.0
640,D4,249.0,1.0,95,150.0
641,G2,249.0,1.0,95,150.0
642,G3,250.0,1.0,95,150.0
643,D3,250.0,1.0,95,150.0
644,F#2,251.0,0.5,95,150.0
645,D4,251.5,0.5,95,150.0
646,F#3,251.5,0.5,95,150.0
647,E4,252.0,0.5,95,150.0
648,G3,252.0,0.5,95,150.0
649,F4,252.5,0.5,95,150.0
650,G#3,252.5,0.5,95,150.0
651,F#4,253.0,0.5,95,150.0
652,A3,253.0,0.5,95,150.0
653,A2,253.0,0.5,95,150.0
654,D4,253.5,0.5,95,150.0
655,F#3,253.5,0.5,95,150.0
656,E4,254.0,0.5,95,150.0
657,G3,254.0,0.5,95,150.0
658,F#4,254.5,0.5,95,150.0
659,A3,254.5,0.5,95,150.0
660,A2,255.0,0.5,95,150.0
661,C#4,255.5,0.5,95,150.0
662,E3,255.5,0.5,95,150.0
663,E4,256.0,1.0,95,150.0
664,G3,256.0,1.0,95,150.0
665,D2,257.0,0.969,95,150.0
666,F#3,257.0,0.969,95,150.0
667,D4,257.062,0.938,95,150.0
668,A2,258.0,1.0,95,150.0
669,D2,259.0,1.0,95,150.0
670,D4,260.0,0.5,95,150.0
671,D2,260.0,8.0,95,150.0
672,E4,260.5,0.5,95,150.0
673,F#4,261.0,0.5,95,150.0
674,D3,261.0,2.0,95,150.0
675,D4,261.5,0.5,95,150.0
676,E4,262.0,0.5,95,150.0
677,A3,262.0,0.5,95,150.0
678,F#4,262.5,0.5,95,150.0
679,C3,263.0,1.0,95,150.0
680,D4,263.5,0.5,95,150.0
681,E4,268.0,0.5,95,150.0
682,C3,268.0,1.0,95,150.0
683,D4,268.5,0.5,95,150.0
684,B2,269.0,2.0,95,150.0
685,A3,269.016,0.469,95,150.0
686,F#4,269.016,0.469,95,150.0
687,D4,269.5,0.5,95,150.0
688,E4,270.0,0.5,95,150.0
689,F#4,270.5,0.5,95,150.0
690,B-2,271.0,1.0,95,150.0
691,D4,271.5,0.5,95,150.0
692,E4,272.0,0.5,95,150.0
693,B-2,272.0,1.0,95,150.0
694,D4,272.5,0.5,95,150.0
695,A2,273.0,2.0,95,150.0
696,A3,273.016,0.469,95,150.0
697,F#4,273.016,0.469,95,150.0
698,D4,273.5,0.5,95,150.0
699,F#3,273.5,0.5,95,150.0
700,E4,274.0,0.5,95,150.0
701,G3,274.0,0.5,95,150.0
702,F#4,274.5,0.5,95,150.0
703,A3,274.5,0.5,95,150.0
704,A2,275.0,0.5,95,150.0
705,C#4,275.5,0.5,95,150.0
706,E3,275.5,0.5,95,150.0
707,E4,276.0,1.0,95,150.0
708,G3,276.0,1.0,95,150.0
709,D2,277.0,0.969,95,150.0
710,F#3,277.0,0.969,95,150.0
711,D4,277.0,0.969,95,150.0
712,A2,278.0,1.0,95,150.0
713,D2,279.0,1.0,95,150.0
714,D4,280.0,0.5,95,150.0
715,D2,280.0,4.0,95,150.0
716,E4,280.5,0.5,95,150.0
717,D3,281.0,1.469,95,150.0
718,A3,281.0,1.469,95,150.0
719,D4,281.062,1.406,95,150.0
720,F#4,281.062,1.406,95,150.0
721,F#4,282.5,1.5,95,150.0
722,D4,282.5,1.5,95,150.0
723,A3,282.5,1.5,95,150.0
724,C3,282.5,1.5,95,150.0
725,B2,285.0,1.469,95,150.0
726,A3,285.0,1.469,95,150.0
727,D4,285.062,1.406,95,150.0
728,F#4,285.062,1.406,95,150.0
729,E4,286.5,1.5,95,150.0
730,D4,286.5,1.5,95,150.0
731,G3,286.5,1.5,95,150.0
732,B-2,286.5,1.5,95,150.0
733,F#4,289.0,0.5,95,150.0
734,A3,289.0,0.5,95,150.0
735,A2,289.0,0.5,95,150.0
736,D4,289.5,0.5,95,150.0
737,F#3,289.5,0.5,95,150.0
738,E4,290.0,0.5,95,150.0
739,G3,290.0,0.5,95,150.0
740,F#4,290.5,0.5,95,150.0
741,A3,290.5,0.5,95,150.0
742,A2,291.0,0.5,95,150.0
743,C#4,291.5,0.5,95,150.0
744,E3,291.5,0.5,95,150.0
745,E4,292.0,1.0,95,150.0
746,G3,292.0,1.0,95,150.0
747,D4,293.0,1.0,95,150.0
748,F#3,293.0,1.0,95,150.0
749,D2,293.0,1.0,95,150.0
750,A2,294.0,1.0,95,150.0
751,D2,295.0,1.0,95,150.0
752,D4,296.0,0.5,95,150.0
753,E4,296.5,0.5,95,150.0
754,D3,297.0,1.469,95,150.0
755,A3,297.0,1.469,95,150.0
756,D4,297.062,1.406,95,150.0
757,F#4,297.062,1.406,95,150.0
758,C3,298.5,1.5,95,150.0
759,F#4,298.5,1.0,95,150.0
760,D4,298.5,1.0,95,150.0
761,A3,298.5,1.0,95,150.0
762,D3,299.5,0.5,95,150.0
763,A3,300.0,0.5,95,150.0
764,C3,300.0,1.0,95,150.0
765,D4,300.5,0.5,95,150.0
766,B2,301.0,1.469,95,150.0
767,A3,301.0,1.469,95,150.0
768,D4,301.062,1.406,95,150.0
769,F#4,301.062,1.406,95,150.0
770,B-2,302.5,1.5,95,150.0
771,E4,302.5,1.0,95,150.0
772,D4,302.5,1.0,95,150.0
773,G3,302.5,1.0,95,150.0
774,G3,303.5,0.5,95,150.0
775,D4,304.0,0.5,95,150.0
776,B-2,304.0,1.0,95,150.0
777,E4,304.5,0.5,95,150.0
778,A2,305.0,0.469,95,150.0
779,A3,305.0,0.469,95,150.0
780,F#4,305.0,0.469,95,150.0
781,D4,305.5,0.5,95,150.0
782,F#3,305.5,0.5,95,150.0
783,E4,306.0,0.5,95,150.0
784,G3,306.0,0.5,95,150.0
785,F#4,306.5,0.5,95,150.0
786,A3,306.5,0.5,95,150.0
787,A2,307.0,0.5,95,150.0
788,C#4,307.5,0.5,95,150.0
789,E3,307.5,0.5,95,150.0
790,E4,308.0,1.0,95,150.0
791,G3,308.0,1.0,95,150.0
792,D2,309.0,0.969,95,150.0
793,F#3,309.0,0.969,95,150.0
794,D4,309.062,0.938,95,150.0
795,A2,310.0,1.0,95,150.0
796,D2,311.0,1.0,95,150.0
797,A2,311.125,0.875,95,150.0
798,D3,311.25,0.75,95,150.0
799,D4,311.375,0.625,95,150.0
800,F#4,311.5,0.5,95,150.0
801,D5,311.625,0.375,95,150.0
802,D2,312.0,4.0,95,150.0
803,A2,312.0,4.0,95,150.0
804,D3,312.0,4.0,95,150.0
805,D4,312.0,4.0,95,150.0
806,F#4,312.0,4.0,95,150.0
807,D5,312.0,4.0,95,150.0
