,note_name,start_time,duration,velocity,tempo
0,A3,0.0,0.25,95,155.0
1,A3,0.0,0.25,95,155.0
2,B-3,0.25,0.25,95,155.0
3,B-3,0.25,0.25,95,155.0
4,B3,0.5,0.25,95,155.0
5,B3,0.5,0.25,95,155.0
6,C4,0.75,0.25,95,155.0
7,C4,0.75,0.25,95,155.0
8,C#4,1.0,0.25,95,155.0
9,C#4,1.0,0.25,95,155.0
10,D4,1.25,0.25,95,155.0
11,D4,1.25,0.25,95,155.0
12,E-4,1.5,0.25,95,155.0
13,E-4,1.5,0.25,95,155.0
14,E4,1.75,0.25,95,155.0
15,E4,1.75,0.25,95,155.0
16,F4,2.0,0.25,95,155.0
17,F4,2.0,0.25,95,155.0
18,F#4,2.25,0.25,95,155.0
19,F#4,2.25,0.25,95,155.0
20,G4,2.5,0.25,95,155.0
21,G4,2.5,0.25,95,155.0
22,G#4,2.75,0.25,95,155.0
23,G#4,2.75,0.25,95,155.0
24,A4,3.0,0.25,95,155.0
25,A4,3.0,0.25,95,155.0
26,B-4,3.25,0.25,95,155.0
27,B-4,3.25,0.25,95,155.0
28,B4,3.5,0.25,95,155.0
29,B4,3.5,0.25,95,155.0
30,C5,3.75,0.25,95,155.0
31,C5,3.75,0.25,95,155.0
32,C#5,4.0,0.25,95,155.0
33,C#5,4.0,0.25,95,155.0
34,D5,4.25,0.25,95,155.0
35,D5,4.25,0.25,95,155.0
36,E-5,4.5,0.25,95,155.0
37,E-5,4.5,0.25,95,155.0
38,E5,4.75,0.25,95,155.0
39,E5,4.75,0.25,95,155.0
40,F5,5.0,0.25,95,155.0
41,F5,5.0,0.25,95,155.0
42,E5,5.25,0.25,95,155.0
43,E5,5.25,0.25,95,155.0
44,E-5,5.5,0.25,95,155.0
45,E-5,5.5,0.25,95,155.0
46,D5,5.75,0.25,95,155.0
47,D5,5.75,0.25,95,155.0
48,C#5,6.0,0.25,95,155.0
49,C#5,6.0,0.25,95,155.0
50,C5,6.25,0.25,95,155.0
51,C5,6.25,0.25,95,155.0
52,B4,6.5,0.25,95,155.0
53,B4,6.5,0.25,95,155.0
54,B-4,6.75,0.25,95,155.0
55,B-4,6.75,0.25,95,155.0
56,A4,7.0,0.25,95,155.0
57,A4,7.0,0.25,95,155.0
58,G#4,7.25,0.25,95,155.0
59,G#4,7.25,0.25,95,155.0
60,B4,7.5,0.25,95,155.0
61,B4,7.5,0.25,95,155.0
62,A4,7.75,0.25,95,155.0
63,A4,7.75,0.25,95,155.0
64,G#4,8.0,0.25,95,155.0
65,G#4,8.0,0.25,95,155.0
66,G4,8.25,0.25,95,155.0
67,G4,8.25,0.25,95,155.0
68,F#4,8.5,0.25,95,155.0
69,F#4,8.5,0.25,95,155.0
70,F4,8.75,0.25,95,155.0
71,F4,8.75,0.25,95,155.0
72,E4,9.0,0.25,95,155.0
73,E4,9.0,0.25,95,155.0
74,E-4,9.25,0.25,95,155.0
75,E-4,9.25,0.25,95,155.0
76,F4,9.5,0.25,95,155.0
77,F4,9.5,0.25,95,155.0
78,E4,9.75,0.25,95,155.0
79,E4,9.75,0.25,95,155.0
80,E-4,10.0,0.25,95,155.0
81,E-4,10.0,0.25,95,155.0
82,D4,10.25,0.25,95,155.0
83,D4,10.25,0.25,95,155.0
84,C#4,10.5,0.25,95,155.0
85,C#4,10.5,0.25,95,155.0
86,C4,10.75,0.25,95,155.0
87,C4,10.75,0.25,95,155.0
88,B3,11.0,0.25,95,155.0
89,B3,11.0,0.25,95,155.0
90,C4,11.25,0.25,95,155.0
91,C4,11.25,0.25,95,155.0
92,D4,11.5,0.25,95,155.0
93,D4,11.5,0.25,95,155.0
94,C4,11.75,0.25,95,155.0
95,C4,11.75,0.25,95,155.0
96,B3,12.0,0.25,95,155.0
97,B3,12.0,0.25,95,155.0
98,C4,12.25,0.25,95,155.0
99,C4,12.25,0.25,95,155.0
100,B3,12.5,0.25,95,155.0
101,B3,12.5,0.25,95,155.0
102,C4,12.75,0.25,95,155.0
103,C4,12.75,0.25,95,155.0
104,B3,13.0,0.25,95,155.0
105,B3,13.0,0.25,95,155.0
106,C4,13.25,0.25,95,155.0
107,C4,13.25,0.25,95,155.0
108,B3,13.5,0.25,95,155.0
109,B3,13.5,0.25,95,155.0
110,C4,13.75,0.25,95,155.0
111,C4,13.75,0.25,95,155.0
112,B3,14.0,0.25,95,155.0
113,B3,14.0,0.25,95,155.0
114,E4,14.25,0.25,95,155.0
115,E4,14.25,0.25,95,155.0
116,E-4,14.5,0.25,95,155.0
117,E-4,14.5,0.25,95,155.0
118,D4,14.75,0.25,95,155.0
119,D4,14.75,0.25,95,155.0
120,C#4,15.0,0.25,95,155.0
121,C#4,15.0,0.25,95,155.0
122,C4,15.25,0.25,95,155.0
123,C4,15.25,0.25,95,155.0
124,B3,15.5,0.25,95,155.0
125,B3,15.5,0.25,95,155.0
126,B-3,15.75,0.25,95,155.0
127,B-3,15.75,0.25,95,155.0
128,A3,16.0,0.25,95,155.0
129,A3,16.0,0.25,95,155.0
130,B-3,16.25,0.25,95,155.0
131,B-3,16.25,0.25,95,155.0
132,B3,16.5,0.25,95,155.0
133,B3,16.5,0.25,95,155.0
134,C4,16.75,0.25,95,155.0
135,C4,16.75,0.25,95,155.0
136,C#4,17.0,0.25,95,155.0
137,C#4,17.0,0.25,95,155.0
138,D4,17.25,0.25,95,155.0
139,D4,17.25,0.25,95,155.0
140,E-4,17.5,0.25,95,155.0
141,E-4,17.5,0.25,95,155.0
142,E4,17.75,0.25,95,155.0
143,E4,17.75,0.25,95,155.0
144,F4,18.0,0.25,95,155.0
145,F4,18.0,0.25,95,155.0
146,F#4,18.25,0.25,95,155.0
147,F#4,18.25,0.25,95,155.0
148,G4,18.5,0.25,95,155.0
149,G4,18.5,0.25,95,155.0
150,G#4,18.75,0.25,95,155.0
151,G#4,18.75,0.25,95,155.0
152,A4,19.0,0.25,95,155.0
153,A4,19.0,0.25,95,155.0
154,B-4,19.25,0.25,95,155.0
155,B-4,19.25,0.25,95,155.0
156,B4,19.5,0.25,95,155.0
157,B4,19.5,0.25,95,155.0
158,C5,19.75,0.25,95,155.0
159,C5,19.75,0.25,95,155.0
160,C#5,20.0,0.25,95,155.0
161,C#5,20.0,0.25,95,155.0
162,D5,20.25,0.25,95,155.0
163,D5,20.25,0.25,95,155.0
164,E-5,20.5,0.25,95,155.0
165,E-5,20.5,0.25,95,155.0
166,E5,20.75,0.25,95,155.0
167,E5,20.75,0.25,95,155.0
168,F5,21.0,0.25,95,155.0
169,F5,21.0,0.25,95,155.0
170,E5,21.25,0.25,95,155.0
171,E5,21.25,0.25,95,155.0
172,E-5,21.5,0.25,95,155.0
173,E-5,21.5,0.25,95,155.0
174,D5,21.75,0.25,95,155.0
175,D5,21.75,0.25,95,155.0
176,C#5,22.0,0.25,95,155.0
177,C#5,22.0,0.25,95,155.0
178,C5,22.25,0.25,95,155.0
179,C5,22.25,0.25,95,155.0
180,B4,22.5,0.25,95,155.0
181,B4,22.5,0.25,95,155.0
182,B-4,22.75,0.25,95,155.0
183,B-4,22.75,0.25,95,155.0
184,A4,23.0,0.25,95,155.0
185,A4,23.0,0.25,95,155.0
186,G#4,23.25,0.25,95,155.0
187,G#4,23.25,0.25,95,155.0
188,B4,23.5,0.25,95,155.0
189,B4,23.5,0.25,95,155.0
190,A4,23.75,0.25,95,155.0
191,A4,23.75,0.25,95,155.0
192,G4,24.0,0.25,95,155.0
193,G4,24.0,0.25,95,155.0
194,G#4,24.25,0.25,95,155.0
195,G#4,24.25,0.25,95,155.0
196,A4,24.5,0.25,95,155.0
197,A4,24.5,0.25,95,155.0
198,B-4,24.75,0.25,95,155.0
199,B-4,24.75,0.25,95,155.0
200,B4,25.0,0.25,95,155.0
201,B4,25.0,0.25,95,155.0
202,C5,25.25,0.25,95,155.0
203,C5,25.25,0.25,95,155.0
204,B4,25.5,0.25,95,155.0
205,B4,25.5,0.25,95,155.0
206,B-4,25.75,0.25,95,155.0
207,B-4,25.75,0.25,95,155.0
208,A4,26.0,0.25,95,155.0
209,A4,26.0,0.25,95,155.0
210,G#4,26.25,0.25,95,155.0
211,G#4,26.25,0.25,95,155.0
212,G4,26.5,0.25,95,155.0
213,G4,26.5,0.25,95,155.0
214,F#4,26.75,0.25,95,155.0
215,F#4,26.75,0.25,95,155.0
216,F4,27.0,0.25,95,155.0
217,F4,27.0,0.25,95,155.0
218,F#4,27.25,0.25,95,155.0
219,F#4,27.25,0.25,95,155.0
220,G4,27.5,0.25,95,155.0
221,G4,27.5,0.25,95,155.0
222,F#4,27.75,0.25,95,155.0
223,F#4,27.75,0.25,95,155.0
224,E4,28.0,0.25,95,155.0
225,E4,28.0,0.25,95,155.0
226,F4,28.25,0.25,95,155.0
227,F4,28.25,0.25,95,155.0
228,E-4,28.5,0.25,95,155.0
229,E-4,28.5,0.25,95,155.0
230,E4,28.75,0.25,95,155.0
231,E4,28.75,0.25,95,155.0
232,D4,29.0,0.25,95,155.0
233,D4,29.0,0.25,95,155.0
234,E4,29.25,0.25,95,155.0
235,E4,29.25,0.25,95,155.0
236,C#4,29.5,0.25,95,155.0
237,C#4,29.5,0.25,95,155.0
238,D4,29.75,0.25,95,155.0
239,D4,29.75,0.25,95,155.0
240,C4,30.0,0.25,95,155.0
241,C4,30.0,0.25,95,155.0
242,D4,30.25,0.25,95,155.0
243,D4,30.25,0.25,95,155.0
244,B3,30.5,0.25,95,155.0
245,B3,30.5,0.25,95,155.0
246,C4,30.75,0.25,95,155.0
247,C4,30.75,0.25,95,155.0
248,B3,31.0,0.25,95,155.0
249,B3,31.0,0.25,95,155.0
250,C4,31.25,0.25,95,155.0
251,C4,31.25,0.25,95,155.0
252,B-3,31.5,0.25,95,155.0
253,B-3,31.5,0.25,95,155.0
254,B3,31.75,0.25,95,155.0
255,B3,31.75,0.25,95,155.0
256,A3,32.0,0.25,95,155.0
257,A3,32.0,0.25,95,155.0
258,B-3,32.25,0.25,95,155.0
259,B-3,32.25,0.25,95,155.0
260,B3,32.5,0.25,95,155.0
261,B3,32.5,0.25,95,155.0
262,C4,32.75,0.25,95,155.0
263,C4,32.75,0.25,95,155.0
264,C#4,33.0,0.25,95,155.0
265,C#4,33.0,0.25,95,155.0
266,D4,33.25,0.25,95,155.0
267,D4,33.25,0.25,95,155.0
268,E-4,33.5,0.25,95,155.0
269,E-4,33.5,0.25,95,155.0
270,E4,33.75,0.25,95,155.0
271,E4,33.75,0.25,95,155.0
272,F4,34.0,0.25,95,155.0
273,F4,34.0,0.25,95,155.0
274,F#4,34.25,0.25,95,155.0
275,F#4,34.25,0.25,95,155.0
276,G4,34.5,0.25,95,155.0
277,G4,34.5,0.25,95,155.0
278,G#4,34.75,0.25,95,155.0
279,G#4,34.75,0.25,95,155.0
280,A4,35.0,0.25,95,155.0
281,A4,35.0,0.25,95,155.0
282,B-4,35.25,0.25,95,155.0
283,B-4,35.25,0.25,95,155.0
284,B4,35.5,0.25,95,155.0
285,B4,35.5,0.25,95,155.0
286,C5,35.75,0.25,95,155.0
287,C5,35.75,0.25,95,155.0
288,C#5,36.0,0.25,95,155.0
289,C#5,36.0,0.25,95,155.0
290,D5,36.25,0.25,95,155.0
291,D5,36.25,0.25,95,155.0
292,E-5,36.5,0.25,95,155.0
293,E-5,36.5,0.25,95,155.0
294,E5,36.75,0.25,95,155.0
295,E5,36.75,0.25,95,155.0
296,F5,37.0,0.25,95,155.0
297,F5,37.0,0.25,95,155.0
298,E5,37.25,0.25,95,155.0
299,E5,37.25,0.25,95,155.0
300,E-5,37.5,0.25,95,155.0
301,E-5,37.5,0.25,95,155.0
302,D5,37.75,0.25,95,155.0
303,D5,37.75,0.25,95,155.0
304,C#5,38.0,0.25,95,155.0
305,C#5,38.0,0.25,95,155.0
306,C5,38.25,0.25,95,155.0
307,C5,38.25,0.25,95,155.0
308,B4,38.5,0.25,95,155.0
309,B4,38.5,0.25,95,155.0
310,B-4,38.75,0.25,95,155.0
311,B-4,38.75,0.25,95,155.0
312,A4,39.0,0.25,95,155.0
313,A4,39.0,0.25,95,155.0
314,G#4,39.25,0.25,95,155.0
315,G#4,39.25,0.25,95,155.0
316,B4,39.5,0.25,95,155.0
317,B4,39.5,0.25,95,155.0
318,A4,39.75,0.25,95,155.0
319,A4,39.75,0.25,95,155.0
320,G#4,40.0,0.25,95,155.0
321,G#4,40.0,0.25,95,155.0
322,G4,40.25,0.25,95,155.0
323,G4,40.25,0.25,95,155.0
324,F#4,40.5,0.25,95,155.0
325,F#4,40.5,0.25,95,155.0
326,F4,40.75,0.25,95,155.0
327,F4,40.75,0.25,95,155.0
328,E4,41.0,0.25,95,155.0
329,E4,41.0,0.25,95,155.0
330,E-4,41.25,0.25,95,155.0
331,E-4,41.25,0.25,95,155.0
332,F4,41.5,0.25,95,155.0
333,F4,41.5,0.25,95,155.0
334,E4,41.75,0.25,95,155.0
335,E4,41.75,0.25,95,155.0
336,E-4,42.0,0.25,95,155.0
337,E-4,42.0,0.25,95,155.0
338,D4,42.25,0.25,95,155.0
339,D4,42.25,0.25,95,155.0
340,C#4,42.5,0.25,95,155.0
341,C#4,42.5,0.25,95,155.0
342,C4,42.75,0.25,95,155.0
343,C4,42.75,0.25,95,155.0
344,B3,43.0,0.25,95,155.0
345,B3,43.0,0.25,95,155.0
346,C4,43.25,0.25,95,155.0
347,C4,43.25,0.25,95,155.0
348,D4,43.5,0.25,95,155.0
349,D4,43.5,0.25,95,155.0
350,C4,43.75,0.25,95,155.0
351,C4,43.75,0.25,95,155.0
352,B3,44.0,0.25,95,155.0
353,B3,44.0,0.25,95,155.0
354,C4,44.25,0.25,95,155.0
355,C4,44.25,0.25,95,155.0
356,B3,44.5,0.25,95,155.0
357,B3,44.5,0.25,95,155.0
358,C4,44.75,0.25,95,155.0
359,C4,44.75,0.25,95,155.0
360,B3,45.0,0.25,95,155.0
361,B3,45.0,0.25,95,155.0
362,C4,45.25,0.25,95,155.0
363,C4,45.25,0.25,95,155.0
364,B3,45.5,0.25,95,155.0
365,B3,45.5,0.25,95,155.0
366,C4,45.75,0.25,95,155.0
367,C4,45.75,0.25,95,155.0
368,B3,46.0,0.25,95,155.0
369,B3,46.0,0.25,95,155.0
370,E4,46.25,0.25,95,155.0
371,E4,46.25,0.25,95,155.0
372,E-4,46.5,0.25,95,155.0
373,E-4,46.5,0.25,95,155.0
374,D4,46.75,0.25,95,155.0
375,D4,46.75,0.25,95,155.0
376,C#4,47.0,0.25,95,155.0
377,C#4,47.0,0.25,95,155.0
378,C4,47.25,0.25,95,155.0
379,C4,47.25,0.25,95,155.0
380,B3,47.5,0.25,95,155.0
381,B3,47.5,0.25,95,155.0
382,B-3,47.75,0.25,95,155.0
383,B-3,47.75,0.25,95,155.0
384,A3,48.0,0.25,95,155.0
385,A3,48.0,0.25,95,155.0
386,B-3,48.25,0.25,95,155.0
387,B-3,48.25,0.25,95,155.0
388,B3,48.5,0.25,95,155.0
389,B3,48.5,0.25,95,155.0
390,C4,48.75,0.25,95,155.0
391,C4,48.75,0.25,95,155.0
392,C#4,49.0,0.25,95,155.0
393,C#4,49.0,0.25,95,155.0
394,D4,49.25,0.25,95,155.0
395,D4,49.25,0.25,95,155.0
396,E-4,49.5,0.25,95,155.0
397,E-4,49.5,0.25,95,155.0
398,E4,49.75,0.25,95,155.0
399,E4,49.75,0.25,95,155.0
400,F4,50.0,0.25,95,155.0
401,F4,50.0,0.25,95,155.0
402,F#4,50.25,0.25,95,155.0
403,F#4,50.25,0.25,95,155.0
404,G4,50.5,0.25,95,155.0
405,G4,50.5,0.25,95,155.0
406,G#4,50.75,0.25,95,155.0
407,G#4,50.75,0.25,95,155.0
408,A4,51.0,0.25,95,155.0
409,A4,51.0,0.25,95,155.0
410,B-4,51.25,0.25,95,155.0
411,B-4,51.25,0.25,95,155.0
412,B4,51.5,0.25,95,155.0
413,B4,51.5,0.25,95,155.0
414,C5,51.75,0.25,95,155.0
415,C5,51.75,0.25,95,155.0
416,C#5,52.0,0.25,95,155.0
417,C#5,52.0,0.25,95,155.0
418,D5,52.25,0.25,95,155.0
419,D5,52.25,0.25,95,155.0
420,E-5,52.5,0.25,95,155.0
421,E-5,52.5,0.25,95,155.0
422,E5,52.75,0.25,95,155.0
423,E5,52.75,0.25,95,155.0
424,F5,53.0,0.25,95,155.0
425,F5,53.0,0.25,95,155.0
426,E5,53.25,0.25,95,155.0
427,E5,53.25,0.25,95,155.0
428,E-5,53.5,0.25,95,155.0
429,E-5,53.5,0.25,95,155.0
430,D5,53.75,0.25,95,155.0
431,D5,53.75,0.25,95,155.0
432,C#5,54.0,0.25,95,155.0
433,C#5,54.0,0.25,95,155.0
434,C5,54.25,0.25,95,155.0
435,C5,54.25,0.25,95,155.0
436,B4,54.5,0.25,95,155.0
437,B4,54.5,0.25,95,155.0
438,B-4,54.75,0.25,95,155.0
439,B-4,54.75,0.25,95,155.0
440,A4,55.0,0.25,95,155.0
441,A4,55.0,0.25,95,155.0
442,G#4,55.25,0.25,95,155.0
443,G#4,55.25,0.25,95,155.0
444,B4,55.5,0.25,95,155.0
445,B4,55.5,0.25,95,155.0
446,A4,55.75,0.25,95,155.0
447,A4,55.75,0.25,95,155.0
448,B-4,56.0,0.25,95,155.0
449,B-4,56.0,0.25,95,155.0
450,B4,56.25,0.25,95,155.0
451,B4,56.25,0.25,95,155.0
452,C5,56.5,0.25,95,155.0
453,C5,56.5,0.25,95,155.0
454,C#5,56.75,0.25,95,155.0
455,C#5,56.75,0.25,95,155.0
456,D5,57.0,0.25,95,155.0
457,D5,57.0,0.25,95,155.0
458,E-5,57.25,0.25,95,155.0
459,E-5,57.25,0.25,95,155.0
460,E5,57.5,0.25,95,155.0
461,E5,57.5,0.25,95,155.0
462,F5,57.75,0.25,95,155.0
463,F5,57.75,0.25,95,155.0
464,E5,58.0,0.25,95,155.0
465,E5,58.0,0.25,95,155.0
466,F5,58.25,0.25,95,155.0
467,F5,58.25,0.25,95,155.0
468,F#5,58.5,0.25,95,155.0
469,F#5,58.5,0.25,95,155.0
470,G5,58.75,0.25,95,155.0
471,G5,58.75,0.25,95,155.0
472,G#5,59.0,0.25,95,155.0
473,G#5,59.0,0.25,95,155.0
474,A5,59.25,0.25,95,155.0
475,A5,59.25,0.25,95,155.0
476,B-5,59.5,0.25,95,155.0
477,B-5,59.5,0.25,95,155.0
478,B5,59.75,0.25,95,155.0
479,B5,59.75,0.25,95,155.0
480,A5,60.0,0.25,95,155.0
481,A5,60.0,0.25,95,155.0
482,G#5,60.25,0.25,95,155.0
483,G#5,60.25,0.25,95,155.0
484,G5,60.5,0.25,95,155.0
485,G5,60.5,0.25,95,155.0
486,F#5,60.75,0.25,95,155.0
487,F#5,60.75,0.25,95,155.0
488,F5,61.0,0.25,95,155.0
489,F5,61.0,0.25,95,155.0
490,E5,61.25,0.25,95,155.0
491,E5,61.25,0.25,95,155.0
492,E-5,61.5,0.25,95,155.0
493,E-5,61.5,0.25,95,155.0
494,D5,61.75,0.25,95,155.0
495,D5,61.75,0.25,95,155.0
496,C#5,62.0,0.25,95,155.0
497,C#5,62.0,0.25,95,155.0
498,C5,62.25,0.25,95,155.0
499,C5,62.25,0.25,95,155.0
500,B4,62.5,0.25,95,155.0
501,B4,62.5,0.25,95,155.0
502,A4,62.75,0.25,95,155.0
503,A4,62.75,0.25,95,155.0
504,A4,63.0,0.25,95,155.0
505,A4,63.0,0.25,95,155.0
506,G#4,63.25,0.25,95,155.0
507,G#4,63.25,0.25,95,155.0
508,G4,63.5,0.25,95,155.0
509,G4,63.5,0.25,95,155.0
510,F#4,63.75,0.25,95,155.0
511,F#4,63.75,0.25,95,155.0
512,F4,64.0,0.25,95,155.0
513,F4,64.0,0.25,95,155.0
514,E4,64.25,0.25,95,155.0
515,E4,64.25,0.25,95,155.0
516,E-4,64.5,0.25,95,155.0
517,E-4,64.5,0.25,95,155.0
518,D4,64.75,0.25,95,155.0
519,D4,64.75,0.25,95,155.0
520,C#4,65.0,0.25,95,155.0
521,C#4,65.0,0.25,95,155.0
522,D4,65.25,0.25,95,155.0
523,D4,65.25,0.25,95,155.0
524,F4,65.5,0.25,95,155.0
525,F4,65.5,0.25,95,155.0
526,D4,65.75,0.25,95,155.0
527,D4,65.75,0.25,95,155.0
528,B3,66.0,0.25,95,155.0
529,B3,66.0,0.25,95,155.0
530,C4,66.25,0.25,95,155.0
531,C4,66.25,0.25,95,155.0
532,E4,66.5,0.25,95,155.0
533,E4,66.5,0.25,95,155.0
534,C4,66.75,0.25,95,155.0
535,C4,66.75,0.25,95,155.0
536,B-3,67.0,0.25,95,155.0
537,B-3,67.0,0.25,95,155.0
538,B3,67.25,0.25,95,155.0
539,B3,67.25,0.25,95,155.0
540,E4,67.5,0.25,95,155.0
541,E4,67.5,0.25,95,155.0
542,B3,67.75,0.25,95,155.0
543,B3,67.75,0.25,95,155.0
544,A3,68.0,0.25,95,155.0
545,A3,68.0,0.25,95,155.0
546,B-3,68.25,0.25,95,155.0
547,B-3,68.25,0.25,95,155.0
548,B3,68.5,0.25,95,155.0
549,B3,68.5,0.25,95,155.0
550,C4,68.75,0.25,95,155.0
551,C4,68.75,0.25,95,155.0
552,C#4,69.0,0.25,95,155.0
553,C#4,69.0,0.25,95,155.0
554,D4,69.25,0.25,95,155.0
555,D4,69.25,0.25,95,155.0
556,E-4,69.5,0.25,95,155.0
557,E-4,69.5,0.25,95,155.0
558,E4,69.75,0.25,95,155.0
559,E4,69.75,0.25,95,155.0
560,A4,70.0,0.25,95,155.0
561,A4,70.0,0.25,95,155.0
562,G#4,70.25,0.25,95,155.0
563,G#4,70.25,0.25,95,155.0
564,G4,70.5,0.25,95,155.0
565,G4,70.5,0.25,95,155.0
566,F#4,70.75,0.25,95,155.0
567,F#4,70.75,0.25,95,155.0
568,F4,71.0,0.25,95,155.0
569,F4,71.0,0.25,95,155.0
570,E4,71.25,0.25,95,155.0
571,E4,71.25,0.25,95,155.0
572,E-4,71.5,0.25,95,155.0
573,E-4,71.5,0.25,95,155.0
574,D4,71.75,0.25,95,155.0
575,D4,71.75,0.25,95,155.0
576,C#4,72.0,0.25,95,155.0
577,C#4,72.0,0.25,95,155.0
578,C4,72.25,0.25,95,155.0
579,C4,72.25,0.25,95,155.0
580,B3,72.5,0.25,95,155.0
581,B3,72.5,0.25,95,155.0
582,C4,72.75,0.25,95,155.0
583,C4,72.75,0.25,95,155.0
584,C#4,73.0,0.25,95,155.0
585,C#4,73.0,0.25,95,155.0
586,D4,73.25,0.25,95,155.0
587,D4,73.25,0.25,95,155.0
588,E-4,73.5,0.25,95,155.0
589,E-4,73.5,0.25,95,155.0
590,E4,73.75,0.25,95,155.0
591,E4,73.75,0.25,95,155.0
592,F4,74.0,0.25,95,155.0
593,F4,74.0,0.25,95,155.0
594,F#4,74.25,0.25,95,155.0
595,F#4,74.25,0.25,95,155.0
596,G4,74.5,0.25,95,155.0
597,G4,74.5,0.25,95,155.0
598,G#4,74.75,0.25,95,155.0
599,G#4,74.75,0.25,95,155.0
600,A4,75.0,0.25,95,155.0
601,A4,75.0,0.25,95,155.0
602,E4,75.25,0.25,95,155.0
603,E4,75.25,0.25,95,155.0
604,F4,75.5,0.25,95,155.0
605,F4,75.5,0.25,95,155.0
606,D4,75.75,0.25,95,155.0
607,D4,75.75,0.25,95,155.0
608,C#4,76.0,0.25,95,155.0
609,C#4,76.0,0.25,95,155.0
610,C4,76.25,0.25,95,155.0
611,C4,76.25,0.25,95,155.0
612,B3,76.5,0.25,95,155.0
613,B3,76.5,0.25,95,155.0
614,C4,76.75,0.25,95,155.0
615,C4,76.75,0.25,95,155.0
616,C#4,77.0,0.25,95,155.0
617,C#4,77.0,0.25,95,155.0
618,D4,77.25,0.25,95,155.0
619,D4,77.25,0.25,95,155.0
620,E-4,77.5,0.25,95,155.0
621,E-4,77.5,0.25,95,155.0
622,E4,77.75,0.25,95,155.0
623,E4,77.75,0.25,95,155.0
624,F4,78.0,0.25,95,155.0
625,F4,78.0,0.25,95,155.0
626,F#4,78.25,0.25,95,155.0
627,F#4,78.25,0.25,95,155.0
628,G4,78.5,0.25,95,155.0
629,G4,78.5,0.25,95,155.0
630,G#4,78.75,0.25,95,155.0
631,G#4,78.75,0.25,95,155.0
632,G4,79.0,0.25,95,155.0
633,G4,79.0,0.25,95,155.0
634,F#4,79.25,0.25,95,155.0
635,F#4,79.25,0.25,95,155.0
636,F4,79.5,0.25,95,155.0
637,F4,79.5,0.25,95,155.0
638,E4,79.75,0.25,95,155.0
639,E4,79.75,0.25,95,155.0
640,E-4,80.0,0.25,95,155.0
641,E-4,80.0,0.25,95,155.0
642,D4,80.25,0.25,95,155.0
643,D4,80.25,0.25,95,155.0
644,C#4,80.5,0.25,95,155.0
645,C#4,80.5,0.25,95,155.0
646,D4,80.75,0.25,95,155.0
647,D4,80.75,0.25,95,155.0
648,E-4,81.0,0.25,95,155.0
649,E-4,81.0,0.25,95,155.0
650,E4,81.25,0.25,95,155.0
651,E4,81.25,0.25,95,155.0
652,F4,81.5,0.25,95,155.0
653,F4,81.5,0.25,95,155.0
654,F#4,81.75,0.25,95,155.0
655,F#4,81.75,0.25,95,155.0
656,G4,82.0,0.25,95,155.0
657,G4,82.0,0.25,95,155.0
658,G#4,82.25,0.25,95,155.0
659,G#4,82.25,0.25,95,155.0
660,A4,82.5,0.25,95,155.0
661,A4,82.5,0.25,95,155.0
662,B-4,82.75,0.25,95,155.0
663,B-4,82.75,0.25,95,155.0
664,A4,83.0,0.25,95,155.0
665,A4,83.0,0.25,95,155.0
666,F#4,83.25,0.25,95,155.0
667,F#4,83.25,0.25,95,155.0
668,G4,83.5,0.25,95,155.0
669,G4,83.5,0.25,95,155.0
670,E-4,83.75,0.25,95,155.0
671,E-4,83.75,0.25,95,155.0
672,D4,84.0,0.25,95,155.0
673,D4,84.0,0.25,95,155.0
674,E-4,84.25,0.25,95,155.0
675,E-4,84.25,0.25,95,155.0
676,C#4,84.5,0.25,95,155.0
677,C#4,84.5,0.25,95,155.0
678,D4,84.75,0.25,95,155.0
679,D4,84.75,0.25,95,155.0
680,E-4,85.0,0.25,95,155.0
681,E-4,85.0,0.25,95,155.0
682,E4,85.25,0.25,95,155.0
683,E4,85.25,0.25,95,155.0
684,F4,85.5,0.25,95,155.0
685,F4,85.5,0.25,95,155.0
686,F#4,85.75,0.25,95,155.0
687,F#4,85.75,0.25,95,155.0
688,G4,86.0,0.25,95,155.0
689,G4,86.0,0.25,95,155.0
690,G#4,86.25,0.25,95,155.0
691,G#4,86.25,0.25,95,155.0
692,A4,86.5,0.25,95,155.0
693,A4,86.5,0.25,95,155.0
694,B-4,86.75,0.25,95,155.0
695,B-4,86.75,0.25,95,155.0
696,A4,87.0,0.25,95,155.0
697,A4,87.0,0.25,95,155.0
698,G#4,87.25,0.25,95,155.0
699,G#4,87.25,0.25,95,155.0
700,G4,87.5,0.25,95,155.0
701,G4,87.5,0.25,95,155.0
702,F#4,87.75,0.25,95,155.0
703,F#4,87.75,0.25,95,155.0
704,F4,88.0,0.25,95,155.0
705,F4,88.0,0.25,95,155.0
706,E4,88.25,0.25,95,155.0
707,E4,88.25,0.25,95,155.0
708,D4,88.5,0.25,95,155.0
709,D4,88.5,0.25,95,155.0
710,E4,88.75,0.25,95,155.0
711,E4,88.75,0.25,95,155.0
712,F4,89.0,0.25,95,155.0
713,F4,89.0,0.25,95,155.0
714,F#4,89.25,0.25,95,155.0
715,F#4,89.25,0.25,95,155.0
716,G4,89.5,0.25,95,155.0
717,G4,89.5,0.25,95,155.0
718,G#4,89.75,0.25,95,155.0
719,G#4,89.75,0.25,95,155.0
720,A4,90.0,0.25,95,155.0
721,A4,90.0,0.25,95,155.0
722,B-4,90.25,0.25,95,155.0
723,B-4,90.25,0.25,95,155.0
724,B4,90.5,0.25,95,155.0
725,B4,90.5,0.25,95,155.0
726,C5,90.75,0.25,95,155.0
727,C5,90.75,0.25,95,155.0
728,B4,91.0,0.25,95,155.0
729,B4,91.0,0.25,95,155.0
730,B-4,91.25,0.25,95,155.0
731,B-4,91.25,0.25,95,155.0
732,A4,91.5,0.25,95,155.0
733,A4,91.5,0.25,95,155.0
734,G#4,91.75,0.25,95,155.0
735,G#4,91.75,0.25,95,155.0
736,G4,92.0,0.25,95,155.0
737,G4,92.0,0.25,95,155.0
738,F#4,92.25,0.25,95,155.0
739,F#4,92.25,0.25,95,155.0
740,F4,92.5,0.25,95,155.0
741,F4,92.5,0.25,95,155.0
742,E4,92.75,0.25,95,155.0
743,E4,92.75,0.25,95,155.0
744,F4,93.0,0.25,95,155.0
745,F4,93.0,0.25,95,155.0
746,F#4,93.25,0.25,95,155.0
747,F#4,93.25,0.25,95,155.0
748,G4,93.5,0.25,95,155.0
749,G4,93.5,0.25,95,155.0
750,G#4,93.75,0.25,95,155.0
751,G#4,93.75,0.25,95,155.0
752,A4,94.0,0.25,95,155.0
753,A4,94.0,0.25,95,155.0
754,B-4,94.25,0.25,95,155.0
755,B-4,94.25,0.25,95,155.0
756,B4,94.5,0.25,95,155.0
757,B4,94.5,0.25,95,155.0
758,C5,94.75,0.25,95,155.0
759,C5,94.75,0.25,95,155.0
760,C#5,95.0,0.25,95,155.0
761,C#5,95.0,0.25,95,155.0
762,D5,95.25,0.25,95,155.0
763,D5,95.25,0.25,95,155.0
764,E-5,95.5,0.25,95,155.0
765,E-5,95.5,0.25,95,155.0
766,E5,95.75,0.25,95,155.0
767,E5,95.75,0.25,95,155.0
768,F5,96.0,0.25,95,155.0
769,F5,96.0,0.25,95,155.0
770,E5,96.25,0.25,95,155.0
771,E5,96.25,0.25,95,155.0
772,E-5,96.5,0.25,95,155.0
773,E-5,96.5,0.25,95,155.0
774,D5,96.75,0.25,95,155.0
775,D5,96.75,0.25,95,155.0
776,C#5,97.0,0.25,95,155.0
777,C#5,97.0,0.25,95,155.0
778,C5,97.25,0.25,95,155.0
779,C5,97.25,0.25,95,155.0
780,B4,97.5,0.25,95,155.0
781,B4,97.5,0.25,95,155.0
782,B-4,97.75,0.25,95,155.0
783,B-4,97.75,0.25,95,155.0
784,A4,98.0,0.25,95,155.0
785,A4,98.0,0.25,95,155.0
786,G#4,98.25,0.25,95,155.0
787,G#4,98.25,0.25,95,155.0
788,G4,98.5,0.25,95,155.0
789,G4,98.5,0.25,95,155.0
790,F#4,98.75,0.25,95,155.0
791,F#4,98.75,0.25,95,155.0
792,F4,99.0,0.25,95,155.0
793,F4,99.0,0.25,95,155.0
794,E4,99.25,0.25,95,155.0
795,E4,99.25,0.25,95,155.0
796,E-4,99.5,0.25,95,155.0
797,E-4,99.5,0.25,95,155.0
798,E4,99.75,0.25,95,155.0
799,E4,99.75,0.25,95,155.0
800,E-5,100.0,0.25,95,155.0
801,E-5,100.0,0.25,95,155.0
802,D5,100.25,0.25,95,155.0
803,D5,100.25,0.25,95,155.0
804,C#5,100.5,0.25,95,155.0
805,C#5,100.5,0.25,95,155.0
806,C5,100.75,0.25,95,155.0
807,C5,100.75,0.25,95,155.0
808,B4,101.0,0.25,95,155.0
809,B4,101.0,0.25,95,155.0
810,B-4,101.25,0.25,95,155.0
811,B-4,101.25,0.25,95,155.0
812,A4,101.5,0.25,95,155.0
813,A4,101.5,0.25,95,155.0
814,G#4,101.75,0.25,95,155.0
815,G#4,101.75,0.25,95,155.0
816,G4,102.0,0.25,95,155.0
817,G4,102.0,0.25,95,155.0
818,F#4,102.25,0.25,95,155.0
819,F#4,102.25,0.25,95,155.0
820,F4,102.5,0.25,95,155.0
821,F4,102.5,0.25,95,155.0
822,E4,102.75,0.25,95,155.0
823,E4,102.75,0.25,95,155.0
824,E-4,103.0,0.25,95,155.0
825,E-4,103.0,0.25,95,155.0
826,D4,103.25,0.25,95,155.0
827,D4,103.25,0.25,95,155.0
828,C#4,103.5,0.25,95,155.0
829,C#4,103.5,0.25,95,155.0
830,D4,103.75,0.25,95,155.0
831,D4,103.75,0.25,95,155.0
832,D5,104.0,0.25,95,155.0
833,D5,104.0,0.25,95,155.0
834,C#5,104.25,0.25,95,155.0
835,C#5,104.25,0.25,95,155.0
836,C5,104.5,0.25,95,155.0
837,C5,104.5,0.25,95,155.0
838,B4,104.75,0.25,95,155.0
839,B4,104.75,0.25,95,155.0
840,B-4,105.0,0.25,95,155.0
841,B-4,105.0,0.25,95,155.0
842,A4,105.25,0.25,95,155.0
843,A4,105.25,0.25,95,155.0
844,G#4,105.5,0.25,95,155.0
845,G#4,105.5,0.25,95,155.0
846,G4,105.75,0.25,95,155.0
847,G4,105.75,0.25,95,155.0
848,F#4,106.0,0.25,95,155.0
849,F#4,106.0,0.25,95,155.0
850,G4,106.25,0.25,95,155.0
851,G4,106.25,0.25,95,155.0
852,G#4,106.5,0.25,95,155.0
853,G#4,106.5,0.25,95,155.0
854,A4,106.75,0.25,95,155.0
855,A4,106.75,0.25,95,155.0
856,B-4,107.0,0.25,95,155.0
857,B-4,107.0,0.25,95,155.0
858,B4,107.25,0.25,95,155.0
859,B4,107.25,0.25,95,155.0
860,C5,107.5,0.25,95,155.0
861,C5,107.5,0.25,95,155.0
862,B4,107.75,0.25,95,155.0
863,B4,107.75,0.25,95,155.0
864,D5,108.0,0.25,95,155.0
865,D5,108.0,0.25,95,155.0
866,C5,108.25,0.25,95,155.0
867,C5,108.25,0.25,95,155.0
868,B-4,108.5,0.25,95,155.0
869,B-4,108.5,0.25,95,155.0
870,A4,108.75,0.25,95,155.0
871,A4,108.75,0.25,95,155.0
872,G#4,109.0,0.25,95,155.0
873,G#4,109.0,0.25,95,155.0
874,G4,109.25,0.25,95,155.0
875,G4,109.25,0.25,95,155.0
876,F#4,109.5,0.25,95,155.0
877,F#4,109.5,0.25,95,155.0
878,F4,109.75,0.25,95,155.0
879,F4,109.75,0.25,95,155.0
880,E4,110.0,0.25,95,155.0
881,E4,110.0,0.25,95,155.0
882,F4,110.25,0.25,95,155.0
883,F4,110.25,0.25,95,155.0
884,F#4,110.5,0.25,95,155.0
885,F#4,110.5,0.25,95,155.0
886,G4,110.75,0.25,95,155.0
887,G4,110.75,0.25,95,155.0
888,G#4,111.0,0.25,95,155.0
889,G#4,111.0,0.25,95,155.0
890,A4,111.25,0.25,95,155.0
891,A4,111.25,0.25,95,155.0
892,B-4,111.5,0.25,95,155.0
893,B-4,111.5,0.25,95,155.0
894,A4,111.75,0.25,95,155.0
895,A4,111.75,0.25,95,155.0
896,C5,112.0,0.25,95,155.0
897,C5,112.0,0.25,95,155.0
898,B-4,112.25,0.25,95,155.0
899,B-4,112.25,0.25,95,155.0
900,A4,112.5,0.25,95,155.0
901,A4,112.5,0.25,95,155.0
902,G#4,112.75,0.25,95,155.0
903,G#4,112.75,0.25,95,155.0
904,G4,113.0,0.25,95,155.0
905,G4,113.0,0.25,95,155.0
906,F#4,113.25,0.25,95,155.0
907,F#4,113.25,0.25,95,155.0
908,F4,113.5,0.25,95,155.0
909,F4,113.5,0.25,95,155.0
910,E4,113.75,0.25,95,155.0
911,E4,113.75,0.25,95,155.0
912,E-4,114.0,0.25,95,155.0
913,E-4,114.0,0.25,95,155.0
914,D4,114.25,0.25,95,155.0
915,D4,114.25,0.25,95,155.0
916,C#4,114.5,0.25,95,155.0
917,C#4,114.5,0.25,95,155.0
918,C4,114.75,0.25,95,155.0
919,C4,114.75,0.25,95,155.0
920,B-3,115.0,0.25,95,155.0
921,B-3,115.0,0.25,95,155.0
922,A3,115.25,0.25,95,155.0
923,A3,115.25,0.25,95,155.0
924,G#3,115.5,0.25,95,155.0
925,G#3,115.5,0.25,95,155.0
926,G3,115.75,0.25,95,155.0
927,G3,115.75,0.25,95,155.0
928,F#3,116.0,0.25,95,155.0
929,F#3,116.0,0.25,95,155.0
930,G3,116.25,0.25,95,155.0
931,G3,116.25,0.25,95,155.0
932,G#3,116.5,0.25,95,155.0
933,G#3,116.5,0.25,95,155.0
934,A3,116.75,0.25,95,155.0
935,A3,116.75,0.25,95,155.0
936,B-3,117.0,0.25,95,155.0
937,B-3,117.0,0.25,95,155.0
938,A3,117.25,0.25,95,155.0
939,A3,117.25,0.25,95,155.0
940,G#3,117.5,0.25,95,155.0
941,G#3,117.5,0.25,95,155.0
942,G3,117.75,0.25,95,155.0
943,G3,117.75,0.25,95,155.0
944,F#3,118.0,0.25,95,155.0
945,F#3,118.0,0.25,95,155.0
946,G3,118.25,0.25,95,155.0
947,G3,118.25,0.25,95,155.0
948,G#3,118.5,0.25,95,155.0
949,G#3,118.5,0.25,95,155.0
950,A3,118.75,0.25,95,155.0
951,A3,118.75,0.25,95,155.0
952,B-3,119.0,0.25,95,155.0
953,B-3,119.0,0.25,95,155.0
954,A3,119.25,0.25,95,155.0
955,A3,119.25,0.25,95,155.0
956,G#3,119.5,0.25,95,155.0
957,G#3,119.5,0.25,95,155.0
958,G3,119.75,0.25,95,155.0
959,G3,119.75,0.25,95,155.0
960,F#3,120.0,0.25,95,155.0
961,F#3,120.0,0.25,95,155.0
962,G3,120.25,0.25,95,155.0
963,G3,120.25,0.25,95,155.0
964,G#3,120.5,0.25,95,155.0
965,G#3,120.5,0.25,95,155.0
966,A3,120.75,0.25,95,155.0
967,A3,120.75,0.25,95,155.0
968,C4,121.0,0.25,95,155.0
969,C4,121.0,0.25,95,155.0
970,B3,121.25,0.25,95,155.0
971,B3,121.25,0.25,95,155.0
972,B-3,121.5,0.25,95,155.0
973,B-3,121.5,0.25,95,155.0
974,A3,121.75,0.25,95,155.0
975,A3,121.75,0.25,95,155.0
976,G#3,122.0,0.25,95,155.0
977,G#3,122.0,0.25,95,155.0
978,A3,122.25,0.25,95,155.0
979,A3,122.25,0.25,95,155.0
980,B-3,122.5,0.25,95,155.0
981,B-3,122.5,0.25,95,155.0
982,B3,122.75,0.25,95,155.0
983,B3,122.75,0.25,95,155.0
984,C4,123.0,0.25,95,155.0
985,C4,123.0,0.25,95,155.0
986,B3,123.25,0.25,95,155.0
987,B3,123.25,0.25,95,155.0
988,B-3,123.5,0.25,95,155.0
989,B-3,123.5,0.25,95,155.0
990,A3,123.75,0.25,95,155.0
991,A3,123.75,0.25,95,155.0
992,G#3,124.0,1.0,95,155.0
993,G#3,124.0,1.0,95,155.0
994,E5,125.0,0.25,95,155.0
995,E5,125.0,0.25,95,155.0
996,F5,125.25,0.25,95,155.0
997,F5,125.25,0.25,95,155.0
998,D5,125.5,0.25,95,155.0
999,D5,125.5,0.25,95,155.0
1000,E5,125.75,0.25,95,155.0
1001,E5,125.75,0.25,95,155.0
1002,C5,126.0,0.25,95,155.0
1003,C5,126.0,0.25,95,155.0
1004,D5,126.25,0.25,95,155.0
1005,D5,126.25,0.25,95,155.0
1006,B4,126.5,0.25,95,155.0
1007,B4,126.5,0.25,95,155.0
1008,C5,126.75,0.25,95,155.0
1009,C5,126.75,0.25,95,155.0
1010,A4,127.0,0.25,95,155.0
1011,A4,127.0,0.25,95,155.0
1012,B4,127.25,0.25,95,155.0
1013,B4,127.25,0.25,95,155.0
1014,G4,127.5,0.25,95,155.0
1015,G4,127.5,0.25,95,155.0
1016,A4,127.75,0.25,95,155.0
1017,A4,127.75,0.25,95,155.0
1018,F4,128.0,0.25,95,155.0
1019,F4,128.0,0.25,95,155.0
1020,G4,128.25,0.25,95,155.0
1021,G4,128.25,0.25,95,155.0
1022,E4,128.5,0.25,95,155.0
1023,E4,128.5,0.25,95,155.0
1024,F4,128.75,0.25,95,155.0
1025,F4,128.75,0.25,95,155.0
1026,D5,129.0,0.25,95,155.0
1027,D5,129.0,0.25,95,155.0
1028,E5,129.25,0.25,95,155.0
1029,E5,129.25,0.25,95,155.0
1030,C5,129.5,0.25,95,155.0
1031,C5,129.5,0.25,95,155.0
1032,D5,129.75,0.25,95,155.0
1033,D5,129.75,0.25,95,155.0
1034,B4,130.0,0.25,95,155.0
1035,B4,130.0,0.25,95,155.0
1036,C5,130.25,0.25,95,155.0
1037,C5,130.25,0.25,95,155.0
1038,A4,130.5,0.25,95,155.0
1039,A4,130.5,0.25,95,155.0
1040,B4,130.75,0.25,95,155.0
1041,B4,130.75,0.25,95,155.0
1042,G#4,131.0,0.25,95,155.0
1043,G#4,131.0,0.25,95,155.0
1044,A4,131.25,0.25,95,155.0
1045,A4,131.25,0.25,95,155.0
1046,F4,131.5,0.25,95,155.0
1047,F4,131.5,0.25,95,155.0
1048,G4,131.75,0.25,95,155.0
1049,G4,131.75,0.25,95,155.0
1050,E4,132.0,0.25,95,155.0
1051,E4,132.0,0.25,95,155.0
1052,F4,132.25,0.25,95,155.0
1053,F4,132.25,0.25,95,155.0
1054,E-4,132.5,0.25,95,155.0
1055,E-4,132.5,0.25,95,155.0
1056,E4,132.75,0.25,95,155.0
1057,E4,132.75,0.25,95,155.0
1058,C5,133.0,0.25,95,155.0
1059,C5,133.0,0.25,95,155.0
1060,D5,133.25,0.25,95,155.0
1061,D5,133.25,0.25,95,155.0
1062,B4,133.5,0.25,95,155.0
1063,B4,133.5,0.25,95,155.0
1064,C5,133.75,0.25,95,155.0
1065,C5,133.75,0.25,95,155.0
1066,A4,134.0,0.25,95,155.0
1067,A4,134.0,0.25,95,155.0
1068,B4,134.25,0.25,95,155.0
1069,B4,134.25,0.25,95,155.0
1070,G4,134.5,0.25,95,155.0
1071,G4,134.5,0.25,95,155.0
1072,A4,134.75,0.25,95,155.0
1073,A4,134.75,0.25,95,155.0
1074,F4,135.0,0.25,95,155.0
1075,F4,135.0,0.25,95,155.0
1076,G4,135.25,0.25,95,155.0
1077,G4,135.25,0.25,95,155.0
1078,E4,135.5,0.25,95,155.0
1079,E4,135.5,0.25,95,155.0
1080,F4,135.75,0.25,95,155.0
1081,F4,135.75,0.25,95,155.0
1082,D4,136.0,0.25,95,155.0
1083,D4,136.0,0.25,95,155.0
1084,E4,136.25,0.25,95,155.0
1085,E4,136.25,0.25,95,155.0
1086,C4,136.5,0.25,95,155.0
1087,C4,136.5,0.25,95,155.0
1088,D4,136.75,0.25,95,155.0
1089,D4,136.75,0.25,95,155.0
1090,B3,137.0,0.25,95,155.0
1091,B3,137.0,0.25,95,155.0
1092,C4,137.25,0.25,95,155.0
1093,C4,137.25,0.25,95,155.0
1094,A3,137.5,0.25,95,155.0
1095,A3,137.5,0.25,95,155.0
1096,B3,137.75,0.25,95,155.0
1097,B3,137.75,0.25,95,155.0
1098,G#3,138.0,0.25,95,155.0
1099,G#3,138.0,0.25,95,155.0
1100,F#3,138.25,0.25,95,155.0
1101,F#3,138.25,0.25,95,155.0
1102,E-3,138.5,0.25,95,155.0
1103,E-3,138.5,0.25,95,155.0
1104,E3,138.75,0.25,95,155.0
1105,E3,138.75,0.25,95,155.0
1106,F3,139.0,0.25,95,155.0
1107,F3,139.0,0.25,95,155.0
1108,F#3,139.25,0.25,95,155.0
1109,F#3,139.25,0.25,95,155.0
1110,G3,139.5,0.25,95,155.0
1111,G3,139.5,0.25,95,155.0
1112,G#3,139.75,0.25,95,155.0
1113,G#3,139.75,0.25,95,155.0
1114,A3,140.0,0.25,95,155.0
1115,A3,140.0,0.25,95,155.0
1116,B-3,140.25,0.25,95,155.0
1117,B-3,140.25,0.25,95,155.0
1118,B3,140.5,0.25,95,155.0
1119,B3,140.5,0.25,95,155.0
1120,C4,140.75,0.25,95,155.0
1121,C4,140.75,0.25,95,155.0
1122,C#4,141.0,0.25,95,155.0
1123,C#4,141.0,0.25,95,155.0
1124,D4,141.25,0.25,95,155.0
1125,D4,141.25,0.25,95,155.0
1126,E-4,141.5,0.25,95,155.0
1127,E-4,141.5,0.25,95,155.0
1128,E4,141.75,0.25,95,155.0
1129,E4,141.75,0.25,95,155.0
1130,F4,142.0,0.25,95,155.0
1131,F4,142.0,0.25,95,155.0
1132,F#4,142.25,0.25,95,155.0
1133,F#4,142.25,0.25,95,155.0
1134,G4,142.5,0.25,95,155.0
1135,G4,142.5,0.25,95,155.0
1136,G#4,142.75,0.25,95,155.0
1137,G#4,142.75,0.25,95,155.0
1138,A4,143.0,0.25,95,155.0
1139,A4,143.0,0.25,95,155.0
1140,B-4,143.25,0.25,95,155.0
1141,B-4,143.25,0.25,95,155.0
1142,B4,143.5,0.25,95,155.0
1143,B4,143.5,0.25,95,155.0
1144,C5,143.75,0.25,95,155.0
1145,C5,143.75,0.25,95,155.0
1146,C#5,144.0,0.25,95,155.0
1147,C#5,144.0,0.25,95,155.0
1148,D5,144.25,0.25,95,155.0
1149,D5,144.25,0.25,95,155.0
1150,E-5,144.5,0.25,95,155.0
1151,E-5,144.5,0.25,95,155.0
1152,E5,144.75,0.25,95,155.0
1153,E5,144.75,0.25,95,155.0
1154,F5,145.0,0.25,95,155.0
1155,F5,145.0,0.25,95,155.0
1156,E5,145.25,0.25,95,155.0
1157,E5,145.25,0.25,95,155.0
1158,E-5,145.5,0.25,95,155.0
1159,E-5,145.5,0.25,95,155.0
1160,D5,145.75,0.25,95,155.0
1161,D5,145.75,0.25,95,155.0
1162,C#5,146.0,0.25,95,155.0
1163,C#5,146.0,0.25,95,155.0
1164,C5,146.25,0.25,95,155.0
1165,C5,146.25,0.25,95,155.0
1166,B4,146.5,0.25,95,155.0
1167,B4,146.5,0.25,95,155.0
1168,B-4,146.75,0.25,95,155.0
1169,B-4,146.75,0.25,95,155.0
1170,A4,147.0,0.25,95,155.0
1171,A4,147.0,0.25,95,155.0
1172,G#4,147.25,0.25,95,155.0
1173,G#4,147.25,0.25,95,155.0
1174,B4,147.5,0.25,95,155.0
1175,B4,147.5,0.25,95,155.0
1176,A4,147.75,0.25,95,155.0
1177,A4,147.75,0.25,95,155.0
1178,G#4,148.0,0.25,95,155.0
1179,G#4,148.0,0.25,95,155.0
1180,G4,148.25,0.25,95,155.0
1181,G4,148.25,0.25,95,155.0
1182,F#4,148.5,0.25,95,155.0
1183,F#4,148.5,0.25,95,155.0
1184,F4,148.75,0.25,95,155.0
1185,F4,148.75,0.25,95,155.0
1186,E4,149.0,0.25,95,155.0
1187,E4,149.0,0.25,95,155.0
1188,E-4,149.25,0.25,95,155.0
1189,E-4,149.25,0.25,95,155.0
1190,F4,149.5,0.25,95,155.0
1191,F4,149.5,0.25,95,155.0
1192,E4,149.75,0.25,95,155.0
1193,E4,149.75,0.25,95,155.0
1194,E-4,150.0,0.25,95,155.0
1195,E-4,150.0,0.25,95,155.0
1196,D4,150.25,0.25,95,155.0
1197,D4,150.25,0.25,95,155.0
1198,C#4,150.5,0.25,95,155.0
1199,C#4,150.5,0.25,95,155.0
1200,C4,150.75,0.25,95,155.0
1201,C4,150.75,0.25,95,155.0
1202,B3,151.0,0.25,95,155.0
1203,B3,151.0,0.25,95,155.0
1204,C4,151.25,0.25,95,155.0
1205,C4,151.25,0.25,95,155.0
1206,D4,151.5,0.25,95,155.0
1207,D4,151.5,0.25,95,155.0
1208,C4,151.75,0.25,95,155.0
1209,C4,151.75,0.25,95,155.0
1210,B3,152.0,0.25,95,155.0
1211,B3,152.0,0.25,95,155.0
1212,C4,152.25,0.25,95,155.0
1213,C4,152.25,0.25,95,155.0
1214,B3,152.5,0.25,95,155.0
1215,B3,152.5,0.25,95,155.0
1216,C4,152.75,0.25,95,155.0
1217,C4,152.75,0.25,95,155.0
1218,B3,153.0,0.25,95,155.0
1219,B3,153.0,0.25,95,155.0
1220,C4,153.25,0.25,95,155.0
1221,C4,153.25,0.25,95,155.0
1222,B3,153.5,0.25,95,155.0
1223,B3,153.5,0.25,95,155.0
1224,C4,153.75,0.25,95,155.0
1225,C4,153.75,0.25,95,155.0
1226,B3,154.0,0.25,95,155.0
1227,B3,154.0,0.25,95,155.0
1228,E4,154.25,0.25,95,155.0
1229,E4,154.25,0.25,95,155.0
1230,E-4,154.5,0.25,95,155.0
1231,E-4,154.5,0.25,95,155.0
1232,D4,154.75,0.25,95,155.0
1233,D4,154.75,0.25,95,155.0
1234,C#4,155.0,0.25,95,155.0
1235,C#4,155.0,0.25,95,155.0
1236,C4,155.25,0.25,95,155.0
1237,C4,155.25,0.25,95,155.0
1238,B3,155.5,0.25,95,155.0
1239,B3,155.5,0.25,95,155.0
1240,B-3,155.75,0.25,95,155.0
1241,B-3,155.75,0.25,95,155.0
1242,A3,156.0,0.25,95,155.0
1243,A3,156.0,0.25,95,155.0
1244,B-3,156.25,0.25,95,155.0
1245,B-3,156.25,0.25,95,155.0
1246,B3,156.5,0.25,95,155.0
1247,B3,156.5,0.25,95,155.0
1248,C4,156.75,0.25,95,155.0
1249,C4,156.75,0.25,95,155.0
1250,C#4,157.0,0.25,95,155.0
1251,C#4,157.0,0.25,95,155.0
1252,D4,157.25,0.25,95,155.0
1253,D4,157.25,0.25,95,155.0
1254,E-4,157.5,0.25,95,155.0
1255,E-4,157.5,0.25,95,155.0
1256,E4,157.75,0.25,95,155.0
1257,E4,157.75,0.25,95,155.0
1258,F4,158.0,0.25,95,155.0
1259,F4,158.0,0.25,95,155.0
1260,F#4,158.25,0.25,95,155.0
1261,F#4,158.25,0.25,95,155.0
1262,G4,158.5,0.25,95,155.0
1263,G4,158.5,0.25,95,155.0
1264,G#4,158.75,0.25,95,155.0
1265,G#4,158.75,0.25,95,155.0
1266,A4,159.0,0.25,95,155.0
1267,A4,159.0,0.25,95,155.0
1268,B-4,159.25,0.25,95,155.0
1269,B-4,159.25,0.25,95,155.0
1270,B4,159.5,0.25,95,155.0
1271,B4,159.5,0.25,95,155.0
1272,C5,159.75,0.25,95,155.0
1273,C5,159.75,0.25,95,155.0
1274,C#5,160.0,0.25,95,155.0
1275,C#5,160.0,0.25,95,155.0
1276,D5,160.25,0.25,95,155.0
1277,D5,160.25,0.25,95,155.0
1278,E-5,160.5,0.25,95,155.0
1279,E-5,160.5,0.25,95,155.0
1280,E5,160.75,0.25,95,155.0
1281,E5,160.75,0.25,95,155.0
1282,F5,161.0,0.25,95,155.0
1283,F5,161.0,0.25,95,155.0
1284,E5,161.25,0.25,95,155.0
1285,E5,161.25,0.25,95,155.0
1286,E-5,161.5,0.25,95,155.0
1287,E-5,161.5,0.25,95,155.0
1288,D5,161.75,0.25,95,155.0
1289,D5,161.75,0.25,95,155.0
1290,C#5,162.0,0.25,95,155.0
1291,C#5,162.0,0.25,95,155.0
1292,C5,162.25,0.25,95,155.0
1293,C5,162.25,0.25,95,155.0
1294,B4,162.5,0.25,95,155.0
1295,B4,162.5,0.25,95,155.0
1296,B-4,162.75,0.25,95,155.0
1297,B-4,162.75,0.25,95,155.0
1298,A4,163.0,0.25,95,155.0
1299,A4,163.0,0.25,95,155.0
1300,G#4,163.25,0.25,95,155.0
1301,G#4,163.25,0.25,95,155.0
1302,B4,163.5,0.25,95,155.0
1303,B4,163.5,0.25,95,155.0
1304,A4,163.75,0.25,95,155.0
1305,A4,163.75,0.25,95,155.0
1306,B-4,164.0,0.25,95,155.0
1307,B-4,164.0,0.25,95,155.0
1308,B4,164.25,0.25,95,155.0
1309,B4,164.25,0.25,95,155.0
1310,C5,164.5,0.25,95,155.0
1311,C5,164.5,0.25,95,155.0
1312,C#5,164.75,0.25,95,155.0
1313,C#5,164.75,0.25,95,155.0
1314,D5,165.0,0.25,95,155.0
1315,D5,165.0,0.25,95,155.0
1316,E-5,165.25,0.25,95,155.0
1317,E-5,165.25,0.25,95,155.0
1318,E5,165.5,0.25,95,155.0
1319,E5,165.5,0.25,95,155.0
1320,F5,165.75,0.25,95,155.0
1321,F5,165.75,0.25,95,155.0
1322,E5,166.0,0.25,95,155.0
1323,E5,166.0,0.25,95,155.0
1324,F5,166.25,0.25,95,155.0
1325,F5,166.25,0.25,95,155.0
1326,F#5,166.5,0.25,95,155.0
1327,F#5,166.5,0.25,95,155.0
1328,G5,166.75,0.25,95,155.0
1329,G5,166.75,0.25,95,155.0
1330,G#5,167.0,0.25,95,155.0
1331,G#5,167.0,0.25,95,155.0
1332,A5,167.25,0.25,95,155.0
1333,A5,167.25,0.25,95,155.0
1334,B-5,167.5,0.25,95,155.0
1335,B-5,167.5,0.25,95,155.0
1336,B5,167.75,0.25,95,155.0
1337,B5,167.75,0.25,95,155.0
1338,A5,168.0,0.25,95,155.0
1339,A5,168.0,0.25,95,155.0
1340,G#5,168.25,0.25,95,155.0
1341,G#5,168.25,0.25,95,155.0
1342,G5,168.5,0.25,95,155.0
1343,G5,168.5,0.25,95,155.0
1344,F#5,168.75,0.25,95,155.0
1345,F#5,168.75,0.25,95,155.0
1346,F5,169.0,0.25,95,155.0
1347,F5,169.0,0.25,95,155.0
1348,E5,169.25,0.25,95,155.0
1349,E5,169.25,0.25,95,155.0
1350,E-5,169.5,0.25,95,155.0
1351,E-5,169.5,0.25,95,155.0
1352,D5,169.75,0.25,95,155.0
1353,D5,169.75,0.25,95,155.0
1354,C#5,170.0,0.25,95,155.0
1355,C#5,170.0,0.25,95,155.0
1356,C5,170.25,0.25,95,155.0
1357,C5,170.25,0.25,95,155.0
1358,B4,170.5,0.25,95,155.0
1359,B4,170.5,0.25,95,155.0
1360,A4,170.75,0.25,95,155.0
1361,A4,170.75,0.25,95,155.0
1362,A4,171.0,0.25,95,155.0
1363,A4,171.0,0.25,95,155.0
1364,G#4,171.25,0.25,95,155.0
1365,G#4,171.25,0.25,95,155.0
1366,G4,171.5,0.25,95,155.0
1367,G4,171.5,0.25,95,155.0
1368,F#4,171.75,0.25,95,155.0
1369,F#4,171.75,0.25,95,155.0
1370,F4,172.0,0.25,95,155.0
1371,F4,172.0,0.25,95,155.0
1372,E4,172.25,0.25,95,155.0
1373,E4,172.25,0.25,95,155.0
1374,E-4,172.5,0.25,95,155.0
1375,E-4,172.5,0.25,95,155.0
1376,D4,172.75,0.25,95,155.0
1377,D4,172.75,0.25,95,155.0
1378,C#4,173.0,0.25,95,155.0
1379,C#4,173.0,0.25,95,155.0
1380,C4,173.25,0.25,95,155.0
1381,C4,173.25,0.25,95,155.0
1382,B3,173.5,0.25,95,155.0
1383,B3,173.5,0.25,95,155.0
1384,B-3,173.75,0.25,95,155.0
1385,B-3,173.75,0.25,95,155.0
1386,A3,174.0,0.25,95,155.0
1387,A3,174.0,0.25,95,155.0
1388,G#3,174.25,0.25,95,155.0
1389,G#3,174.25,0.25,95,155.0
1390,G3,174.5,0.25,95,155.0
1391,G3,174.5,0.25,95,155.0
1392,F#3,174.75,0.25,95,155.0
1393,F#3,174.75,0.25,95,155.0
1394,F3,175.0,0.25,95,155.0
1395,F3,175.0,0.25,95,155.0
1396,E3,175.25,0.25,95,155.0
1397,E3,175.25,0.25,95,155.0
1398,E-3,175.5,0.25,95,155.0
1399,E-3,175.5,0.25,95,155.0
1400,D3,175.75,0.25,95,155.0
1401,D3,175.75,0.25,95,155.0
1402,C#3,176.0,4.0,95,155.0
1403,C#3,176.0,4.0,95,155.0
