,note_name,start_time,duration,velocity,tempo
0,G3,3.5,0.5,100,60.0
1,G3,3.5,0.5,100,60.0
2,G1,3.5,0.5,70,60.0
3,G1,3.5,0.5,70,60.0
4,C4,4.0,1.5,100,60.0
5,C4,4.0,1.5,100,60.0
6,C2,4.0,1.5,70,60.0
7,C2,4.0,1.5,70,60.0
8,G4,5.5,0.5,100,60.0
9,G4,5.5,0.5,100,60.0
10,G2,5.5,0.5,70,60.0
11,G2,5.5,0.5,70,60.0
12,F4,6.0,1.5,100,60.0
13,F4,6.0,1.5,100,60.0
14,F2,6.0,1.5,70,60.0
15,F2,6.0,1.5,70,60.0
16,C5,7.5,0.5,100,60.0
17,C5,7.5,0.5,100,60.0
18,C3,7.5,0.5,70,60.0
19,C3,7.5,0.5,70,60.0
20,C#3,8.0,1.0,100,60.0
21,E-4,8.0,1.0,100,60.0
22,E-5,8.0,1.0,100,60.0
23,E-5,8.0,1.0,100,60.0
24,E-4,8.0,1.0,100,60.0
25,G4,8.0,1.0,90,60.0
26,C5,8.0,1.0,90,60.0
27,C5,8.0,1.0,90,60.0
28,G4,8.0,1.0,90,60.0
29,C2,8.0,1.0,70,60.0
30,C3,8.0,1.0,70,60.0
31,C3,8.0,1.0,70,60.0
32,C2,8.0,1.0,70,60.0
33,C#3,9.0,1.0,100,60.0
34,F4,9.0,1.0,100,60.0
35,F5,9.0,1.0,100,60.0
36,F5,9.0,1.0,100,60.0
37,F4,9.0,1.0,100,60.0
38,G#3,9.0,1.0,90,60.0
39,C5,9.0,1.0,90,60.0
40,C5,9.0,1.0,90,60.0
41,G#3,9.0,1.0,90,60.0
42,G#2,9.0,1.0,70,60.0
43,E-3,9.0,1.0,70,60.0
44,E-3,9.0,1.0,70,60.0
45,G#2,9.0,1.0,70,60.0
46,C#3,10.0,1.0,100,60.0
47,D4,10.0,1.0,100,60.0
48,D5,10.0,1.0,100,60.0
49,D5,10.0,1.0,100,60.0
50,D4,10.0,1.0,100,60.0
51,B-3,10.0,1.0,90,60.0
52,B-4,10.0,1.0,90,60.0
53,B-4,10.0,1.0,90,60.0
54,B-3,10.0,1.0,90,60.0
55,B-2,10.0,1.0,70,60.0
56,F3,10.0,1.0,70,60.0
57,F3,10.0,1.0,70,60.0
58,B-2,10.0,1.0,70,60.0
59,C#3,11.0,1.0,100,60.0
60,B-4,11.0,1.0,100,60.0
61,B-3,11.0,1.0,100,60.0
62,B-3,11.0,1.0,100,60.0
63,B-4,11.0,1.0,100,60.0
64,F4,11.0,1.0,90,60.0
65,G3,11.0,1.0,90,60.0
66,G3,11.0,1.0,90,60.0
67,F4,11.0,1.0,90,60.0
68,D3,11.0,1.0,70,60.0
69,G2,11.0,1.0,70,60.0
70,G2,11.0,1.0,70,60.0
71,D3,11.0,1.0,70,60.0
72,C#3,12.0,1.0,100,60.0
73,C4,12.0,1.0,100,60.0
74,C5,12.0,1.0,100,60.0
75,C5,12.0,1.0,100,60.0
76,C4,12.0,1.0,100,60.0
77,G3,12.0,1.0,90,60.0
78,G4,12.0,1.0,90,60.0
79,G4,12.0,1.0,90,60.0
80,G3,12.0,1.0,90,60.0
81,C3,12.0,1.0,70,60.0
82,E-3,12.0,1.0,70,60.0
83,E-3,12.0,1.0,70,60.0
84,C3,12.0,1.0,70,60.0
85,C#3,13.0,2.0,100,60.0
86,C5,13.0,2.0,100,60.0
87,C6,13.0,2.0,100,60.0
88,C6,13.0,2.0,100,60.0
89,C5,13.0,2.0,100,60.0
90,E-5,13.0,2.0,90,60.0
91,G5,13.0,2.0,90,60.0
92,G5,13.0,2.0,90,60.0
93,E-5,13.0,2.0,90,60.0
94,C4,13.0,2.0,70,60.0
95,E-4,13.0,2.0,70,60.0
96,E-4,13.0,2.0,70,60.0
97,C4,13.0,2.0,70,60.0
98,G3,15.5,0.5,100,60.0
99,G3,15.5,0.5,100,60.0
100,C4,16.0,1.5,100,60.0
101,C4,16.0,1.5,100,60.0
102,E-3,16.0,1.5,90,60.0
103,G3,16.0,1.5,90,60.0
104,G3,16.0,1.5,90,60.0
105,E-3,16.0,1.5,90,60.0
106,C2,16.0,1.5,70,60.0
107,G2,16.0,1.5,70,60.0
108,G2,16.0,1.5,70,60.0
109,C2,16.0,1.5,70,60.0
110,G4,17.5,0.5,100,60.0
111,G4,17.5,0.5,100,60.0
112,F4,18.0,1.5,100,60.0
113,F4,18.0,1.5,100,60.0
114,A3,18.0,1.5,90,60.0
115,C4,18.0,1.5,90,60.0
116,C4,18.0,1.5,90,60.0
117,A3,18.0,1.5,90,60.0
118,F2,18.0,1.5,70,60.0
119,C3,18.0,1.5,70,60.0
120,C3,18.0,1.5,70,60.0
121,F2,18.0,1.5,70,60.0
122,C4,19.5,0.5,100,60.0
123,C4,19.5,0.5,100,60.0
124,E-4,20.0,0.5,100,60.0
125,E-4,20.0,0.5,100,60.0
126,G#3,20.0,1.0,90,60.0
127,C4,20.0,1.0,90,60.0
128,C4,20.0,1.0,90,60.0
129,G#3,20.0,1.0,90,60.0
130,G#2,20.0,1.0,70,60.0
131,E-3,20.0,1.0,70,60.0
132,E-3,20.0,1.0,70,60.0
133,G#2,20.0,1.0,70,60.0
134,F4,20.5,0.5,100,60.0
135,F4,20.5,0.5,100,60.0
136,D4,21.0,0.75,100,60.0
137,D4,21.0,0.75,100,60.0
138,B-3,21.0,0.75,90,60.0
139,B-3,21.0,0.75,90,60.0
140,B-2,21.0,1.0,70,60.0
141,F3,21.0,1.0,70,60.0
142,F3,21.0,1.0,70,60.0
143,B-2,21.0,1.0,70,60.0
144,B-3,21.75,0.25,100,60.0
145,B-3,21.75,0.25,100,60.0
146,C4,22.0,1.5,100,60.0
147,C4,22.0,1.5,100,60.0
148,G3,22.0,1.5,90,60.0
149,G3,22.0,1.5,90,60.0
150,C3,22.0,1.5,70,60.0
151,E-3,22.0,1.5,70,60.0
152,E-3,22.0,1.5,70,60.0
153,C3,22.0,1.5,70,60.0
154,G4,23.5,0.5,100,60.0
155,G4,23.5,0.5,100,60.0
156,B-4,24.0,1.5,100,60.0
157,B-4,24.0,1.5,100,60.0
158,G2,24.0,0.5,70,60.0
159,G2,24.0,2.0,70,60.0
160,G2,24.0,0.5,70,60.0
161,G2,24.0,2.0,70,60.0
162,B-3,24.0,2.0,90,60.0
163,D4,24.0,2.0,90,60.0
164,D4,24.0,2.0,90,60.0
165,B-3,24.0,2.0,90,60.0
166,D3,24.5,0.5,70,60.0
167,D3,24.5,0.5,70,60.0
168,G3,25.0,1.0,70,60.0
169,G3,25.0,1.0,70,60.0
170,A4,25.5,0.5,100,60.0
171,A4,25.5,0.5,100,60.0
172,B-4,26.0,0.5,100,60.0
173,B-4,26.0,0.5,100,60.0
174,B-3,26.0,1.0,90,60.0
175,E-4,26.0,1.0,90,60.0
176,E-4,26.0,1.0,90,60.0
177,B-3,26.0,1.0,90,60.0
178,B-2,26.0,1.0,70,60.0
179,E-2,26.0,1.0,70,60.0
180,E-2,26.0,1.0,70,60.0
181,B-2,26.0,1.0,70,60.0
182,C5,26.5,0.5,100,60.0
183,C5,26.5,0.5,100,60.0
184,A4,27.0,0.75,100,60.0
185,A4,27.0,0.75,100,60.0
186,C4,27.0,1.0,90,60.0
187,A3,27.0,1.0,90,60.0
188,A3,27.0,1.0,90,60.0
189,C4,27.0,1.0,90,60.0
190,F2,27.0,1.0,70,60.0
191,C3,27.0,1.0,70,60.0
192,C3,27.0,1.0,70,60.0
193,F2,27.0,1.0,70,60.0
194,F4,27.75,0.25,100,60.0
195,F4,27.75,0.25,100,60.0
196,G4,28.0,2.0,100,60.0
197,G4,28.0,2.0,100,60.0
198,G3,28.0,2.0,90,60.0
199,B3,28.0,2.0,90,60.0
200,D4,28.0,2.0,90,60.0
201,D4,28.0,2.0,90,60.0
202,B3,28.0,2.0,90,60.0
203,G3,28.0,2.0,90,60.0
204,D3,28.0,1.0,70,60.0
205,G2,28.0,1.0,70,60.0
206,G2,28.0,1.0,70,60.0
207,D3,28.0,1.0,70,60.0
208,G1,29.0,2.0,70,60.0
209,G2,29.0,2.0,70,60.0
210,G2,29.0,2.0,70,60.0
211,G1,29.0,2.0,70,60.0
212,G4,30.5,0.5,100,60.0
213,G4,30.5,0.5,100,60.0
214,B-4,31.0,0.5,100,60.0
215,B-4,31.0,0.5,100,60.0
216,D4,31.0,1.0,90,60.0
217,B-3,31.0,1.0,90,60.0
218,B-3,31.0,1.0,90,60.0
219,D4,31.0,1.0,90,60.0
220,G2,31.0,1.0,70,60.0
221,D3,31.0,1.0,70,60.0
222,D3,31.0,1.0,70,60.0
223,G2,31.0,1.0,70,60.0
224,D5,31.5,0.5,100,60.0
225,D5,31.5,0.5,100,60.0
226,C5,32.0,0.75,100,60.0
227,C5,32.0,0.75,100,60.0
228,C4,32.0,1.5,90,60.0
229,E4,32.0,3.0,90,60.0
230,C4,32.0,1.5,90,60.0
231,E4,32.0,3.0,90,60.0
232,G3,32.0,1.5,70,60.0
233,C3,32.0,3.0,70,60.0
234,C3,32.0,3.0,70,60.0
235,G3,32.0,1.5,70,60.0
236,G4,32.75,0.25,100,60.0
237,G4,32.75,0.25,100,60.0
238,G4,33.0,1.5,100,60.0
239,G4,33.0,1.5,100,60.0
240,G3,33.5,0.5,90,60.0
241,G3,33.5,0.5,90,60.0
242,G3,33.5,0.5,70,60.0
243,G3,33.5,0.5,70,60.0
244,G3,34.0,1.0,90,60.0
245,G3,34.0,1.0,90,60.0
246,G3,34.0,1.0,70,60.0
247,G3,34.0,1.0,70,60.0
248,C5,34.5,0.5,100,60.0
249,C5,34.5,0.5,100,60.0
250,G4,35.0,0.5,100,60.0
251,G4,35.0,0.5,100,60.0
252,C3,35.0,1.0,70,60.0
253,C3,35.0,1.0,70,60.0
254,E-4,35.0,1.0,90,60.0
255,C4,35.0,1.0,90,60.0
256,G3,35.0,1.0,90,60.0
257,G3,35.0,1.0,90,60.0
258,C4,35.0,1.0,90,60.0
259,E-4,35.0,1.0,90,60.0
260,C5,35.5,0.5,100,60.0
261,C5,35.5,0.5,100,60.0
262,D5,36.0,0.75,100,60.0
263,D5,36.0,0.75,100,60.0
264,B-3,36.0,1.5,90,60.0
265,D4,36.0,3.0,90,60.0
266,D4,36.0,3.0,90,60.0
267,B-3,36.0,1.5,90,60.0
268,B-3,36.0,1.5,70,60.0
269,G2,36.0,3.0,70,60.0
270,D3,36.0,3.0,70,60.0
271,D3,36.0,3.0,70,60.0
272,G2,36.0,3.0,70,60.0
273,G4,36.75,0.25,100,60.0
274,G4,36.75,0.25,100,60.0
275,G4,37.0,2.0,100,60.0
276,G4,37.0,2.0,100,60.0
277,G3,37.5,0.5,90,60.0
278,G3,37.5,0.5,90,60.0
279,G3,37.5,0.5,70,60.0
280,G3,38.0,1.0,90,60.0
281,G3,38.0,1.0,90,60.0
282,G3,38.0,1.0,70,60.0
283,F4,39.0,0.5,100,60.0
284,F4,39.0,0.5,100,60.0
285,D4,39.0,1.0,90,60.0
286,B-3,39.0,1.0,90,60.0
287,B-3,39.0,1.0,90,60.0
288,D4,39.0,1.0,90,60.0
289,F3,39.0,1.0,70,60.0
290,B-2,39.0,1.0,70,60.0
291,B-2,39.0,1.0,70,60.0
292,F3,39.0,1.0,70,60.0
293,G4,39.5,0.5,100,60.0
294,G4,39.5,0.5,100,60.0
295,G#4,40.0,0.5,100,60.0
296,G#4,40.0,0.5,100,60.0
297,G#3,40.0,1.0,90,60.0
298,C4,40.0,1.0,90,60.0
299,F4,40.0,1.0,90,60.0
300,F4,40.0,1.0,90,60.0
301,C4,40.0,1.0,90,60.0
302,G#3,40.0,1.0,90,60.0
303,C3,40.0,1.0,70,60.0
304,F2,40.0,1.0,70,60.0
305,F2,40.0,1.0,70,60.0
306,C3,40.0,1.0,70,60.0
307,B-4,40.5,0.5,100,60.0
308,B-4,40.5,0.5,100,60.0
309,G4,41.0,0.75,100,60.0
310,G4,41.0,0.75,100,60.0
311,G3,41.0,1.0,90,60.0
312,B-3,41.0,1.0,90,60.0
313,D4,41.0,1.0,90,60.0
314,D4,41.0,1.0,90,60.0
315,B-3,41.0,1.0,90,60.0
316,G3,41.0,1.0,90,60.0
317,D3,41.0,1.0,70,60.0
318,G2,41.0,1.0,70,60.0
319,G2,41.0,1.0,70,60.0
320,D3,41.0,1.0,70,60.0
321,E-4,41.75,0.25,100,60.0
322,E-4,41.75,0.25,100,60.0
323,F4,42.0,0.5,100,60.0
324,F4,42.0,0.5,100,60.0
325,F3,42.0,1.0,90,60.0
326,B-3,42.0,1.0,90,60.0
327,D4,42.0,1.0,90,60.0
328,D4,42.0,1.0,90,60.0
329,B-3,42.0,1.0,90,60.0
330,F3,42.0,1.0,90,60.0
331,F3,42.0,1.0,70,60.0
332,B-2,42.0,1.0,70,60.0
333,B-2,42.0,1.0,70,60.0
334,F3,42.0,1.0,70,60.0
335,G4,42.5,0.5,100,60.0
336,G4,42.5,0.5,100,60.0
337,E-4,43.0,0.75,100,60.0
338,E-4,43.0,0.75,100,60.0
339,C4,43.0,0.5,90,60.0
340,C4,43.0,0.5,90,60.0
341,C3,43.0,1.0,70,60.0
342,G3,43.0,1.0,70,60.0
343,G3,43.0,1.0,70,60.0
344,C3,43.0,1.0,70,60.0
345,C4,43.75,0.25,100,60.0
346,C4,43.75,0.25,100,60.0
347,D4,44.0,3.0,100,60.0
348,D4,44.0,3.0,100,60.0
349,G3,44.0,3.0,90,60.0
350,B3,44.0,3.0,90,60.0
351,B3,44.0,3.0,90,60.0
352,G3,44.0,3.0,90,60.0
353,G2,44.0,1.0,70,60.0
354,D3,44.0,1.0,70,60.0
355,D3,44.0,1.0,70,60.0
356,G2,44.0,1.0,70,60.0
357,G1,45.0,0.125,70,60.0
358,G1,45.0,0.125,70,60.0
359,G2,45.125,0.125,70,60.0
360,G2,45.125,0.125,70,60.0
361,G1,45.25,0.125,70,60.0
362,G1,45.25,0.125,70,60.0
363,G2,45.375,0.125,70,60.0
364,G2,45.375,0.125,70,60.0
365,G1,45.5,0.125,70,60.0
366,G1,45.5,0.125,70,60.0
367,G2,45.625,0.125,70,60.0
368,G2,45.625,0.125,70,60.0
369,G1,45.75,0.125,70,60.0
370,G1,45.75,0.125,70,60.0
371,G2,45.875,0.125,70,60.0
372,G2,45.875,0.125,70,60.0
373,G1,46.0,0.125,70,60.0
374,G1,46.0,0.125,70,60.0
375,G2,46.125,0.125,70,60.0
376,G2,46.125,0.125,70,60.0
377,G1,46.25,0.125,70,60.0
378,G1,46.25,0.125,70,60.0
379,G2,46.375,0.125,70,60.0
380,G2,46.375,0.125,70,60.0
381,G1,46.5,0.125,70,60.0
382,G1,46.5,0.125,70,60.0
383,G2,46.625,0.125,70,60.0
384,G2,46.625,0.125,70,60.0
385,G1,46.75,0.125,70,60.0
386,G1,46.75,0.125,70,60.0
387,G2,46.875,0.125,70,60.0
388,G2,46.875,0.125,70,60.0
389,G1,47.0,0.125,70,60.0
390,G1,47.0,0.125,70,60.0
391,G2,47.125,0.125,70,60.0
392,G2,47.125,0.125,70,60.0
393,G1,47.25,0.125,70,60.0
394,G1,47.25,0.125,70,60.0
395,G2,47.375,0.125,70,60.0
396,G2,47.375,0.125,70,60.0
397,G3,47.5,0.5,100,60.0
398,G3,47.5,0.5,100,60.0
399,G1,47.5,0.125,70,60.0
400,G1,47.5,0.125,70,60.0
401,G2,47.625,0.125,70,60.0
402,G2,47.625,0.125,70,60.0
403,G1,47.75,0.125,70,60.0
404,G1,47.75,0.125,70,60.0
405,G2,47.875,0.125,70,60.0
406,G2,47.875,0.125,70,60.0
407,C4,48.0,1.5,100,60.0
408,C4,48.0,1.5,100,60.0
409,E-3,48.0,1.5,90,60.0
410,G3,48.0,1.5,90,60.0
411,G3,48.0,1.5,90,60.0
412,E-3,48.0,1.5,90,60.0
413,C2,48.0,1.5,70,60.0
414,G2,48.0,1.5,70,60.0
415,G2,48.0,1.5,70,60.0
416,C2,48.0,1.5,70,60.0
417,G4,49.5,0.5,100,60.0
418,G4,49.5,0.5,100,60.0
419,F4,50.0,1.5,100,60.0
420,F4,50.0,1.5,100,60.0
421,A3,50.0,1.5,90,60.0
422,C4,50.0,1.5,90,60.0
423,C4,50.0,1.5,90,60.0
424,A3,50.0,1.5,90,60.0
425,F2,50.0,1.5,70,60.0
426,C3,50.0,1.5,70,60.0
427,C3,50.0,1.5,70,60.0
428,F2,50.0,1.5,70,60.0
429,C4,51.5,0.5,100,60.0
430,C4,51.5,0.5,100,60.0
431,E-4,52.0,0.5,100,60.0
432,E-4,52.0,0.5,100,60.0
433,G#3,52.0,1.0,90,60.0
434,C4,52.0,1.0,90,60.0
435,C4,52.0,1.0,90,60.0
436,G#3,52.0,1.0,90,60.0
437,E-3,52.0,1.0,70,60.0
438,G#2,52.0,1.0,70,60.0
439,G#2,52.0,1.0,70,60.0
440,E-3,52.0,1.0,70,60.0
441,F4,52.5,0.5,100,60.0
442,F4,52.5,0.5,100,60.0
443,D4,53.0,0.75,100,60.0
444,D4,53.0,0.75,100,60.0
445,B-3,53.0,0.75,90,60.0
446,B-3,53.0,0.75,90,60.0
447,F3,53.0,1.0,70,60.0
448,B-2,53.0,1.0,70,60.0
449,B-2,53.0,1.0,70,60.0
450,F3,53.0,1.0,70,60.0
451,B-3,53.75,0.25,100,60.0
452,B-3,53.75,0.25,100,60.0
453,C4,54.0,1.5,100,60.0
454,C4,54.0,1.5,100,60.0
455,G3,54.0,1.5,90,60.0
456,G3,54.0,1.5,90,60.0
457,C3,54.0,1.5,70,60.0
458,E-3,54.0,1.5,70,60.0
459,E-3,54.0,1.5,70,60.0
460,C3,54.0,1.5,70,60.0
461,G4,55.5,0.5,100,60.0
462,G4,55.5,0.5,100,60.0
463,B-4,56.0,1.5,100,60.0
464,B-4,56.0,1.5,100,60.0
465,G2,56.0,0.5,70,60.0
466,G2,56.0,2.0,70,60.0
467,G2,56.0,0.5,70,60.0
468,G2,56.0,2.0,70,60.0
469,B-3,56.0,2.0,90,60.0
470,D4,56.0,2.0,90,60.0
471,D4,56.0,2.0,90,60.0
472,B-3,56.0,2.0,90,60.0
473,D3,56.5,0.5,70,60.0
474,D3,56.5,0.5,70,60.0
475,G3,57.0,1.0,70,60.0
476,G3,57.0,1.0,70,60.0
477,A4,57.5,0.5,100,60.0
478,A4,57.5,0.5,100,60.0
479,B-4,58.0,0.5,100,60.0
480,B-4,58.0,0.5,100,60.0
481,B-3,58.0,1.0,90,60.0
482,E-4,58.0,1.0,90,60.0
483,E-4,58.0,1.0,90,60.0
484,B-3,58.0,1.0,90,60.0
485,G3,58.0,1.0,70,60.0
486,B-2,58.0,1.0,70,60.0
487,E-2,58.0,1.0,70,60.0
488,E-2,58.0,1.0,70,60.0
489,B-2,58.0,1.0,70,60.0
490,G3,58.0,1.0,70,60.0
491,C5,58.5,0.5,100,60.0
492,C5,58.5,0.5,100,60.0
493,A4,59.0,0.75,100,60.0
494,A4,59.0,0.75,100,60.0
495,C4,59.0,1.0,90,60.0
496,A3,59.0,1.0,90,60.0
497,A3,59.0,1.0,90,60.0
498,C4,59.0,1.0,90,60.0
499,C3,59.0,1.0,70,60.0
500,F2,59.0,1.0,70,60.0
501,F3,59.0,1.0,70,60.0
502,F3,59.0,1.0,70,60.0
503,F2,59.0,1.0,70,60.0
504,C3,59.0,1.0,70,60.0
505,F4,59.75,0.25,100,60.0
506,F4,59.75,0.25,100,60.0
507,G4,60.0,2.0,100,60.0
508,G4,60.0,2.0,100,60.0
509,G3,60.0,2.0,90,60.0
510,B3,60.0,2.0,90,60.0
511,D4,60.0,2.0,90,60.0
512,D4,60.0,2.0,90,60.0
513,B3,60.0,2.0,90,60.0
514,G3,60.0,2.0,90,60.0
515,G2,60.0,1.0,70,60.0
516,D3,60.0,1.0,70,60.0
517,D3,60.0,1.0,70,60.0
518,G2,60.0,1.0,70,60.0
519,G1,61.0,2.0,70,60.0
520,G2,61.0,2.0,70,60.0
521,G2,61.0,2.0,70,60.0
522,G1,61.0,2.0,70,60.0
523,G4,62.5,0.5,100,60.0
524,G4,62.5,0.5,100,60.0
525,B-4,63.0,0.5,100,60.0
526,B-4,63.0,0.5,100,60.0
527,D4,63.0,1.0,90,60.0
528,B-3,63.0,1.0,90,60.0
529,B-3,63.0,1.0,90,60.0
530,D4,63.0,1.0,90,60.0
531,D3,63.0,1.0,70,60.0
532,G2,63.0,1.0,70,60.0
533,G2,63.0,1.0,70,60.0
534,D3,63.0,1.0,70,60.0
535,D5,63.5,0.5,100,60.0
536,D5,63.5,0.5,100,60.0
537,C5,64.0,0.75,100,60.0
538,C5,64.0,0.75,100,60.0
539,C4,64.0,1.5,90,60.0
540,E4,64.0,3.0,90,60.0
541,E4,64.0,3.0,90,60.0
542,C4,64.0,1.5,90,60.0
543,G3,64.0,1.5,70,60.0
544,C3,64.0,3.0,70,60.0
545,C3,64.0,3.0,70,60.0
546,G3,64.0,1.5,70,60.0
547,G4,64.75,0.25,100,60.0
548,G4,64.75,0.25,100,60.0
549,G4,65.0,1.5,100,60.0
550,G4,65.0,1.5,100,60.0
551,G3,65.5,0.5,90,60.0
552,G3,65.5,0.5,90,60.0
553,G3,65.5,0.5,70,60.0
554,G3,65.5,0.5,70,60.0
555,G3,66.0,1.0,90,60.0
556,G3,66.0,1.0,90,60.0
557,G3,66.0,1.0,70,60.0
558,G3,66.0,1.0,70,60.0
559,C5,66.5,0.5,100,60.0
560,C5,66.5,0.5,100,60.0
561,G4,67.0,0.5,100,60.0
562,G4,67.0,0.5,100,60.0
563,E-4,67.0,1.0,90,60.0
564,C4,67.0,1.0,90,60.0
565,C4,67.0,1.0,90,60.0
566,E-4,67.0,1.0,90,60.0
567,C3,67.0,1.0,70,60.0
568,G3,67.0,1.0,70,60.0
569,G3,67.0,1.0,70,60.0
570,C3,67.0,1.0,70,60.0
571,C5,67.5,0.5,100,60.0
572,C5,67.5,0.5,100,60.0
573,B-3,68.0,1.5,90,60.0
574,D4,68.0,3.0,90,60.0
575,D4,68.0,3.0,90,60.0
576,B-3,68.0,1.5,90,60.0
577,G4,68.0,0.75,100,60.0
578,D5,68.0,0.75,100,60.0
579,G4,68.0,0.75,100,60.0
580,D5,68.0,0.75,100,60.0
581,G2,68.0,3.0,70,60.0
582,D3,68.0,3.0,70,60.0
583,D3,68.0,3.0,70,60.0
584,G2,68.0,3.0,70,60.0
585,G4,68.75,0.25,100,60.0
586,G4,68.75,0.25,100,60.0
587,G4,69.0,2.0,100,60.0
588,G4,69.0,2.0,100,60.0
589,G3,69.5,0.5,90,60.0
590,G3,69.5,0.5,90,60.0
591,G3,70.0,1.0,90,60.0
592,G3,70.0,1.0,90,60.0
593,F4,71.0,0.5,100,60.0
594,F4,71.0,0.5,100,60.0
595,D4,71.0,1.0,90,60.0
596,B-3,71.0,1.0,90,60.0
597,B-3,71.0,1.0,90,60.0
598,D4,71.0,1.0,90,60.0
599,F3,71.0,1.0,70,60.0
600,B-2,71.0,1.0,70,60.0
601,B-2,71.0,1.0,70,60.0
602,F3,71.0,1.0,70,60.0
603,G4,71.5,0.5,100,60.0
604,G4,71.5,0.5,100,60.0
605,G#4,72.0,0.5,100,60.0
606,G#4,72.0,0.5,100,60.0
607,G#3,72.0,1.0,90,60.0
608,C4,72.0,1.0,90,60.0
609,F4,72.0,1.0,90,60.0
610,F4,72.0,1.0,90,60.0
611,C4,72.0,1.0,90,60.0
612,G#3,72.0,1.0,90,60.0
613,C3,72.0,1.0,70,60.0
614,F2,72.0,1.0,70,60.0
615,F2,72.0,1.0,70,60.0
616,C3,72.0,1.0,70,60.0
617,B-4,72.5,0.5,100,60.0
618,B-4,72.5,0.5,100,60.0
619,G4,73.0,0.75,100,60.0
620,G4,73.0,0.75,100,60.0
621,G3,73.0,1.0,90,60.0
622,B-3,73.0,1.0,90,60.0
623,D4,73.0,1.0,90,60.0
624,D4,73.0,1.0,90,60.0
625,B-3,73.0,1.0,90,60.0
626,G3,73.0,1.0,90,60.0
627,D3,73.0,1.0,70,60.0
628,G2,73.0,1.0,70,60.0
629,G2,73.0,1.0,70,60.0
630,D3,73.0,1.0,70,60.0
631,F4,73.75,0.25,100,60.0
632,F4,73.75,0.25,100,60.0
633,E-4,74.0,0.5,100,60.0
634,E-4,74.0,0.5,100,60.0
635,G#3,74.0,1.0,90,60.0
636,C4,74.0,1.0,90,60.0
637,C4,74.0,1.0,90,60.0
638,G#3,74.0,1.0,90,60.0
639,E-3,74.0,1.0,70,60.0
640,G#2,74.0,1.0,70,60.0
641,G#2,74.0,1.0,70,60.0
642,E-3,74.0,1.0,70,60.0
643,F4,74.5,0.5,100,60.0
644,F4,74.5,0.5,100,60.0
645,D4,75.0,0.5,100,60.0
646,D4,75.0,0.5,100,60.0
647,F3,75.0,0.5,90,60.0
648,B-3,75.0,0.5,90,60.0
649,B-3,75.0,0.5,90,60.0
650,F3,75.0,0.5,90,60.0
651,F3,75.0,0.5,70,60.0
652,B-2,75.0,0.5,70,60.0
653,B-2,75.0,0.5,70,60.0
654,F3,75.0,0.5,70,60.0
655,B-4,75.5,0.5,100,60.0
656,B-4,75.5,0.5,100,60.0
657,C5,76.0,1.0,100,60.0
658,C5,76.0,1.0,100,60.0
659,C4,76.0,1.0,90,60.0
660,G4,76.0,1.0,90,60.0
661,G4,76.0,1.0,90,60.0
662,C4,76.0,1.0,90,60.0
663,C2,76.0,1.0,70,60.0
664,G2,76.0,1.0,70,60.0
665,E-3,76.0,1.0,70,60.0
666,E-3,76.0,1.0,70,60.0
667,G2,76.0,1.0,70,60.0
668,C2,76.0,1.0,70,60.0
669,C5,77.0,2.0,100,60.0
670,C6,77.0,2.0,100,60.0
671,C6,77.0,2.0,100,60.0
672,C5,77.0,2.0,100,60.0
673,G4,77.0,2.0,90,60.0
674,E-5,77.0,2.0,90,60.0
675,G5,77.0,2.0,90,60.0
676,G5,77.0,2.0,90,60.0
677,E-5,77.0,2.0,90,60.0
678,G4,77.0,2.0,90,60.0
679,C4,77.0,2.0,70,60.0
680,E-4,77.0,2.0,70,60.0
681,E-4,77.0,2.0,70,60.0
682,C4,77.0,2.0,70,60.0
683,G3,79.5,0.5,100,60.0
684,G3,79.5,0.5,100,60.0
685,C4,80.0,1.5,100,60.0
686,C4,80.0,1.5,100,60.0
687,G3,80.0,1.5,90,60.0
688,E-3,80.0,1.5,90,60.0
689,E-3,80.0,1.5,90,60.0
690,G3,80.0,1.5,90,60.0
691,G2,80.0,1.5,70,60.0
692,C2,80.0,1.5,70,60.0
693,C2,80.0,1.5,70,60.0
694,G2,80.0,1.5,70,60.0
695,G4,81.5,0.5,100,60.0
696,G4,81.5,0.5,100,60.0
697,F4,82.0,1.5,100,60.0
698,F4,82.0,1.5,100,60.0
699,C4,82.0,1.5,90,60.0
700,A3,82.0,1.5,90,60.0
701,A3,82.0,1.5,90,60.0
702,C4,82.0,1.5,90,60.0
703,C3,82.0,1.5,70,60.0
704,F2,82.0,1.5,70,60.0
705,F2,82.0,1.5,70,60.0
706,C3,82.0,1.5,70,60.0
707,C4,83.5,0.5,100,60.0
708,C4,83.5,0.5,100,60.0
709,E-4,84.0,0.5,100,60.0
710,E-4,84.0,0.5,100,60.0
711,C4,84.0,1.0,90,60.0
712,G#3,84.0,1.0,90,60.0
713,G#3,84.0,1.0,90,60.0
714,C4,84.0,1.0,90,60.0
715,G#2,84.0,1.0,70,60.0
716,E-3,84.0,1.0,70,60.0
717,E-3,84.0,1.0,70,60.0
718,G#2,84.0,1.0,70,60.0
719,F4,84.5,0.5,100,60.0
720,F4,84.5,0.5,100,60.0
721,D4,85.0,0.75,100,60.0
722,D4,85.0,0.75,100,60.0
723,B-3,85.0,0.75,90,60.0
724,B-3,85.0,0.75,90,60.0
725,B-2,85.0,1.0,70,60.0
726,F3,85.0,1.0,70,60.0
727,F3,85.0,1.0,70,60.0
728,B-2,85.0,1.0,70,60.0
729,B-3,85.75,0.25,100,60.0
730,B-3,85.75,0.25,100,60.0
731,C4,86.0,1.5,100,60.0
732,C4,86.0,1.5,100,60.0
733,G3,86.0,1.5,90,60.0
734,G3,86.0,1.5,90,60.0
735,E-3,86.0,1.5,70,60.0
736,C3,86.0,1.5,70,60.0
737,C3,86.0,1.5,70,60.0
738,E-3,86.0,1.5,70,60.0
739,G4,87.5,0.5,100,60.0
740,G4,87.5,0.5,100,60.0
741,B-4,88.0,1.5,100,60.0
742,B-4,88.0,1.5,100,60.0
743,G2,88.0,0.5,70,60.0
744,G2,88.0,2.0,70,60.0
745,G2,88.0,0.5,70,60.0
746,G2,88.0,2.0,70,60.0
747,D4,88.0,2.0,90,60.0
748,B-3,88.0,2.0,90,60.0
749,B-3,88.0,2.0,90,60.0
750,D4,88.0,2.0,90,60.0
751,D3,88.5,0.5,70,60.0
752,D3,88.5,0.5,70,60.0
753,G3,89.0,1.0,70,60.0
754,G3,89.0,1.0,70,60.0
755,A4,89.5,0.5,100,60.0
756,A4,89.5,0.5,100,60.0
757,B-4,90.0,0.5,100,60.0
758,B-4,90.0,0.5,100,60.0
759,E-4,90.0,1.0,90,60.0
760,B-3,90.0,1.0,90,60.0
761,B-3,90.0,1.0,90,60.0
762,E-4,90.0,1.0,90,60.0
763,E-2,90.0,1.0,70,60.0
764,B-2,90.0,1.0,70,60.0
765,G3,90.0,1.0,70,60.0
766,G3,90.0,1.0,70,60.0
767,B-2,90.0,1.0,70,60.0
768,E-2,90.0,1.0,70,60.0
769,C5,90.5,0.5,100,60.0
770,C5,90.5,0.5,100,60.0
771,A4,91.0,0.75,100,60.0
772,A4,91.0,0.75,100,60.0
773,A3,91.0,1.0,90,60.0
774,C4,91.0,1.0,90,60.0
775,C4,91.0,1.0,90,60.0
776,A3,91.0,1.0,90,60.0
777,F3,91.0,1.0,70,60.0
778,F2,91.0,1.0,70,60.0
779,C3,91.0,1.0,70,60.0
780,C3,91.0,1.0,70,60.0
781,F2,91.0,1.0,70,60.0
782,F3,91.0,1.0,70,60.0
783,F4,91.75,0.25,100,60.0
784,F4,91.75,0.25,100,60.0
785,G4,92.0,2.0,100,60.0
786,G4,92.0,2.0,100,60.0
787,D4,92.0,2.0,90,60.0
788,B3,92.0,2.0,90,60.0
789,G3,92.0,2.0,90,60.0
790,G3,92.0,2.0,90,60.0
791,B3,92.0,2.0,90,60.0
792,D4,92.0,2.0,90,60.0
793,D3,92.0,1.0,70,60.0
794,G2,92.0,1.0,70,60.0
795,G2,92.0,1.0,70,60.0
796,D3,92.0,1.0,70,60.0
797,G2,93.0,2.0,70,60.0
798,G1,93.0,2.0,70,60.0
799,G1,93.0,2.0,70,60.0
800,G2,93.0,2.0,70,60.0
801,G4,94.5,0.5,100,60.0
802,G4,94.5,0.5,100,60.0
803,B-4,95.0,0.5,100,60.0
804,B-4,95.0,0.5,100,60.0
805,B-3,95.0,1.0,90,60.0
806,D4,95.0,1.0,90,60.0
807,D4,95.0,1.0,90,60.0
808,B-3,95.0,1.0,90,60.0
809,G2,95.0,1.0,70,60.0
810,D3,95.0,1.0,70,60.0
811,D3,95.0,1.0,70,60.0
812,G2,95.0,1.0,70,60.0
813,D5,95.5,0.5,100,60.0
814,D5,95.5,0.5,100,60.0
815,C5,96.0,0.75,100,60.0
816,C5,96.0,0.75,100,60.0
817,E4,96.0,3.0,90,60.0
818,C4,96.0,1.5,90,60.0
819,C4,96.0,1.5,90,60.0
820,E4,96.0,3.0,90,60.0
821,C3,96.0,3.0,70,60.0
822,G3,96.0,1.5,70,60.0
823,G3,96.0,1.5,70,60.0
824,C3,96.0,3.0,70,60.0
825,G4,96.75,0.25,100,60.0
826,G4,96.75,0.25,100,60.0
827,G4,97.0,1.5,100,60.0
828,G4,97.0,1.5,100,60.0
829,G3,97.5,0.5,90,60.0
830,G3,97.5,0.5,90,60.0
831,G3,97.5,0.5,70,60.0
832,G3,97.5,0.5,70,60.0
833,G3,98.0,1.0,90,60.0
834,G3,98.0,1.0,90,60.0
835,G3,98.0,1.0,70,60.0
836,G3,98.0,1.0,70,60.0
837,C5,98.5,0.5,100,60.0
838,C5,98.5,0.5,100,60.0
839,G4,99.0,0.5,100,60.0
840,G4,99.0,0.5,100,60.0
841,C4,99.0,1.0,90,60.0
842,E-4,99.0,1.0,90,60.0
843,E-4,99.0,1.0,90,60.0
844,C4,99.0,1.0,90,60.0
845,G3,99.0,1.0,70,60.0
846,C3,99.0,1.0,70,60.0
847,C3,99.0,1.0,70,60.0
848,G3,99.0,1.0,70,60.0
849,C5,99.5,0.5,100,60.0
850,C5,99.5,0.5,100,60.0
851,D4,100.0,3.0,90,60.0
852,B-3,100.0,1.5,90,60.0
853,B-3,100.0,1.5,90,60.0
854,D4,100.0,3.0,90,60.0
855,D5,100.0,0.75,100,60.0
856,G4,100.0,0.75,100,60.0
857,D5,100.0,0.75,100,60.0
858,G4,100.0,0.75,100,60.0
859,D3,100.0,3.0,70,60.0
860,G2,100.0,3.0,70,60.0
861,G2,100.0,3.0,70,60.0
862,D3,100.0,3.0,70,60.0
863,G4,100.75,0.25,100,60.0
864,G4,100.75,0.25,100,60.0
865,G4,101.0,2.0,100,60.0
866,G4,101.0,2.0,100,60.0
867,G3,101.5,0.5,90,60.0
868,G3,101.5,0.5,90,60.0
869,G3,102.0,1.0,90,60.0
870,G3,102.0,1.0,90,60.0
871,F4,103.0,0.5,100,60.0
872,F4,103.0,0.5,100,60.0
873,B-3,103.0,1.0,90,60.0
874,D4,103.0,1.0,90,60.0
875,D4,103.0,1.0,90,60.0
876,B-3,103.0,1.0,90,60.0
877,B-2,103.0,1.0,70,60.0
878,F3,103.0,1.0,70,60.0
879,F3,103.0,1.0,70,60.0
880,B-2,103.0,1.0,70,60.0
881,G4,103.5,0.5,100,60.0
882,G4,103.5,0.5,100,60.0
883,G#4,104.0,0.5,100,60.0
884,G#4,104.0,0.5,100,60.0
885,F4,104.0,1.0,90,60.0
886,C4,104.0,1.0,90,60.0
887,G#3,104.0,1.0,90,60.0
888,G#3,104.0,1.0,90,60.0
889,C4,104.0,1.0,90,60.0
890,F4,104.0,1.0,90,60.0
891,F2,104.0,1.0,70,60.0
892,C3,104.0,1.0,70,60.0
893,C3,104.0,1.0,70,60.0
894,F2,104.0,1.0,70,60.0
895,B-4,104.5,0.5,100,60.0
896,B-4,104.5,0.5,100,60.0
897,G4,105.0,0.75,100,60.0
898,G4,105.0,0.75,100,60.0
899,D4,105.0,1.0,90,60.0
900,B-3,105.0,1.0,90,60.0
901,G3,105.0,1.0,90,60.0
902,G3,105.0,1.0,90,60.0
903,B-3,105.0,1.0,90,60.0
904,D4,105.0,1.0,90,60.0
905,G2,105.0,1.0,70,60.0
906,D3,105.0,1.0,70,60.0
907,D3,105.0,1.0,70,60.0
908,G2,105.0,1.0,70,60.0
909,F4,105.75,0.25,100,60.0
910,F4,105.75,0.25,100,60.0
911,E-4,106.0,0.5,100,60.0
912,E-4,106.0,0.5,100,60.0
913,C4,106.0,1.0,90,60.0
914,G#3,106.0,1.0,90,60.0
915,G#3,106.0,1.0,90,60.0
916,C4,106.0,1.0,90,60.0
917,G#2,106.0,1.0,70,60.0
918,E-3,106.0,1.0,70,60.0
919,E-3,106.0,1.0,70,60.0
920,G#2,106.0,1.0,70,60.0
921,F4,106.5,0.5,100,60.0
922,F4,106.5,0.5,100,60.0
923,D4,107.0,0.5,100,60.0
924,D4,107.0,0.5,100,60.0
925,B-3,107.0,0.5,90,60.0
926,F3,107.0,0.5,90,60.0
927,F3,107.0,0.5,90,60.0
928,B-3,107.0,0.5,90,60.0
929,B-2,107.0,0.5,70,60.0
930,F3,107.0,0.5,70,60.0
931,F3,107.0,0.5,70,60.0
932,B-2,107.0,0.5,70,60.0
933,B-4,107.5,0.5,100,60.0
934,B-4,107.5,0.5,100,60.0
935,C5,108.0,3.0,100,60.0
936,C5,108.0,3.0,100,60.0
937,C2,108.0,0.5,70,60.0
938,C2,108.0,0.5,70,60.0
939,C4,108.0,3.0,90,60.0
940,G4,108.0,3.0,90,60.0
941,G4,108.0,3.0,90,60.0
942,C4,108.0,3.0,90,60.0
943,G2,108.5,0.5,70,60.0
944,G2,108.5,0.5,70,60.0
945,C3,109.0,0.5,70,60.0
946,C3,109.0,0.5,70,60.0
947,D3,109.5,0.5,70,60.0
948,D3,109.5,0.5,70,60.0
949,E-3,110.0,2.0,70,60.0
950,E-3,110.0,2.0,70,60.0
951,C5,111.0,1.0,100,60.0
952,C5,111.0,1.0,100,60.0
953,G4,111.0,1.0,90,60.0
954,C4,111.0,1.0,90,60.0
955,C4,111.0,1.0,90,60.0
956,G4,111.0,1.0,90,60.0
957,B-4,112.0,0.25,100,60.0
958,B-4,112.0,0.25,100,60.0
959,B-3,112.0,1.0,90,60.0
960,D4,112.0,1.0,90,60.0
961,G4,112.0,1.0,90,60.0
962,B-3,112.0,1.0,90,60.0
963,G4,112.0,1.0,90,60.0
964,D4,112.0,1.0,90,60.0
965,G2,112.0,1.0,70,60.0
966,D3,112.0,1.0,70,60.0
967,D3,112.0,1.0,70,60.0
968,G2,112.0,1.0,70,60.0
969,C5,112.25,0.25,100,60.0
970,C5,112.25,0.25,100,60.0
971,B-4,112.5,0.25,100,60.0
972,B-4,112.5,0.25,100,60.0
973,G4,112.75,0.25,100,60.0
974,G4,112.75,0.25,100,60.0
975,B-4,113.0,2.5,100,60.0
976,B-4,113.0,2.5,100,60.0
977,F4,113.0,3.0,90,60.0
978,B-3,113.0,3.0,90,60.0
979,B-3,113.0,3.0,90,60.0
980,F4,113.0,3.0,90,60.0
981,G2,113.0,1.0,70,60.0
982,D3,113.0,1.0,70,60.0
983,F3,113.0,1.0,70,60.0
984,F3,113.0,1.0,70,60.0
985,D3,113.0,1.0,70,60.0
986,G2,113.0,1.0,70,60.0
987,G1,114.0,1.0,70,60.0
988,G1,114.0,1.0,70,60.0
989,G2,115.0,1.0,70,60.0
990,G2,115.0,1.0,70,60.0
991,G4,115.5,0.5,100,60.0
992,G4,115.5,0.5,100,60.0
993,C5,116.0,0.5,100,60.0
994,C5,116.0,0.5,100,60.0
995,C4,116.0,0.5,90,60.0
996,G4,116.0,0.5,90,60.0
997,G4,116.0,0.5,90,60.0
998,C4,116.0,0.5,90,60.0
999,C2,116.0,1.0,70,60.0
1000,G2,116.0,1.0,70,60.0
1001,E3,116.0,1.0,70,60.0
1002,E3,116.0,1.0,70,60.0
1003,G2,116.0,1.0,70,60.0
1004,C2,116.0,1.0,70,60.0
1005,D5,116.5,0.5,100,60.0
1006,D5,116.5,0.5,100,60.0
1007,D4,116.5,0.5,90,60.0
1008,D4,116.5,0.5,90,60.0
1009,F5,117.0,1.5,100,60.0
1010,F5,117.0,1.5,100,60.0
1011,C5,117.0,1.5,90,60.0
1012,F4,117.0,1.5,90,60.0
1013,F4,117.0,1.5,90,60.0
1014,C5,117.0,1.5,90,60.0
1015,E-3,117.0,3.0,70,60.0
1016,G2,117.0,3.0,70,60.0
1017,C2,117.0,3.0,70,60.0
1018,C2,117.0,3.0,70,60.0
1019,G2,117.0,3.0,70,60.0
1020,E-3,117.0,3.0,70,60.0
1021,E-5,118.5,0.5,100,60.0
1022,E-5,118.5,0.5,100,60.0
1023,E-4,118.5,0.5,90,60.0
1024,E-4,118.5,0.5,90,60.0
1025,D5,119.0,0.5,100,60.0
1026,D5,119.0,0.5,100,60.0
1027,D4,119.0,0.5,90,60.0
1028,D4,119.0,0.5,90,60.0
1029,C5,119.5,0.5,100,60.0
1030,C5,119.5,0.5,100,60.0
1031,C4,119.5,0.5,90,60.0
1032,C4,119.5,0.5,90,60.0
1033,B-4,120.0,0.25,100,60.0
1034,B-4,120.0,0.25,100,60.0
1035,B-3,120.0,1.0,90,60.0
1036,D4,120.0,1.0,90,60.0
1037,G4,120.0,1.0,90,60.0
1038,B-3,120.0,1.0,90,60.0
1039,G4,120.0,1.0,90,60.0
1040,D4,120.0,1.0,90,60.0
1041,G2,120.0,1.0,70,60.0
1042,D3,120.0,1.0,70,60.0
1043,D3,120.0,1.0,70,60.0
1044,G2,120.0,1.0,70,60.0
1045,C5,120.25,0.25,100,60.0
1046,C5,120.25,0.25,100,60.0
1047,B-4,120.5,0.25,100,60.0
1048,B-4,120.5,0.25,100,60.0
1049,G4,120.75,0.25,100,60.0
1050,G4,120.75,0.25,100,60.0
1051,B-4,121.0,2.5,100,60.0
1052,B-4,121.0,2.5,100,60.0
1053,F4,121.0,3.0,90,60.0
1054,B-3,121.0,3.0,90,60.0
1055,B-3,121.0,3.0,90,60.0
1056,F4,121.0,3.0,90,60.0
1057,G2,121.0,1.0,70,60.0
1058,D3,121.0,1.0,70,60.0
1059,F3,121.0,1.0,70,60.0
1060,F3,121.0,1.0,70,60.0
1061,D3,121.0,1.0,70,60.0
1062,G2,121.0,1.0,70,60.0
1063,G1,122.0,1.0,70,60.0
1064,G1,122.0,1.0,70,60.0
1065,G2,123.0,1.0,70,60.0
1066,G2,123.0,1.0,70,60.0
1067,G4,123.5,0.5,100,60.0
1068,G4,123.5,0.5,100,60.0
1069,C5,124.0,0.5,100,60.0
1070,C5,124.0,0.5,100,60.0
1071,C3,124.0,4.0,70,60.0
1072,G3,124.0,1.0,70,60.0
1073,C3,124.0,4.0,70,60.0
1074,G3,124.0,1.0,70,60.0
1075,G3,124.0,1.0,90,60.0
1076,E4,124.0,1.0,90,60.0
1077,G4,124.0,1.0,90,60.0
1078,G4,124.0,1.0,90,60.0
1079,E4,124.0,1.0,90,60.0
1080,G3,124.0,1.0,90,60.0
1081,D5,124.5,0.5,100,60.0
1082,D5,124.5,0.5,100,60.0
1083,G4,125.0,3.0,90,60.0
1084,E-4,125.0,1.5,90,60.0
1085,G4,125.0,3.0,90,60.0
1086,E-4,125.0,1.5,90,60.0
1087,A3,125.0,1.5,70,60.0
1088,A3,125.0,1.5,70,60.0
1089,D5,125.0,1.5,100,60.0
1090,G5,125.0,1.5,100,60.0
1091,G5,125.0,1.5,100,60.0
1092,D5,125.0,1.5,100,60.0
1093,F5,126.5,0.5,100,60.0
1094,F5,126.5,0.5,100,60.0
1095,F4,126.5,0.5,90,60.0
1096,F4,126.5,0.5,90,60.0
1097,D5,127.0,0.75,100,60.0
1098,D5,127.0,0.75,100,60.0
1099,D4,127.0,0.75,90,60.0
1100,D4,127.0,0.75,90,60.0
1101,C5,127.75,0.25,100,60.0
1102,C5,127.75,0.25,100,60.0
1103,C4,127.75,0.25,90,60.0
1104,C4,127.75,0.25,90,60.0
1105,D5,128.0,0.125,100,60.0
1106,D5,128.0,0.375,100,60.0
1107,D5,128.0,0.125,100,60.0
1108,D5,128.0,0.375,100,60.0
1109,G2,128.0,0.125,70,60.0
1110,G2,128.0,0.125,70,60.0
1111,E-3,128.0,1/10,80,60.0
1112,B4,128.0,4.0,90,60.0
1113,G4,128.0,4.0,90,60.0
1114,B4,128.0,4.0,90,60.0
1115,G4,128.0,4.0,90,60.0
1116,D5,128.0,4.0,100,60.0
1117,B4,128.0,4.0,100,60.0
1118,G4,128.0,4.0,100,60.0
1119,D4,128.125,0.125,100,60.0
1120,D4,128.125,0.125,100,60.0
1121,G1,128.125,0.125,70,60.0
1122,G1,128.125,0.125,70,60.0
1123,E-3,128.125,1/10,80,60.0
1124,D5,128.25,0.375,100,60.0
1125,D5,128.25,0.375,100,60.0
1126,G2,128.25,0.125,70,60.0
1127,G2,128.25,0.125,70,60.0
1128,E-3,128.25,1/10,80,60.0
1129,D4,128.375,0.125,100,60.0
1130,D4,128.375,0.125,100,60.0
1131,G1,128.375,0.125,70,60.0
1132,G1,128.375,0.125,70,60.0
1133,E-3,128.375,1/10,80,60.0
1134,D5,128.5,0.375,100,60.0
1135,D5,128.5,0.375,100,60.0
1136,G2,128.5,0.125,70,60.0
1137,G2,128.5,0.125,70,60.0
1138,E-3,128.5,1/10,80,60.0
1139,D4,128.625,0.125,100,60.0
1140,D4,128.625,0.125,100,60.0
1141,G1,128.625,0.125,70,60.0
1142,G1,128.625,0.125,70,60.0
1143,E-3,128.625,1/10,80,60.0
1144,D5,128.75,0.375,100,60.0
1145,D5,128.75,0.375,100,60.0
1146,G2,128.75,0.125,70,60.0
1147,G2,128.75,0.125,70,60.0
1148,E-3,128.75,1/10,80,60.0
1149,D4,128.875,0.125,100,60.0
1150,D4,128.875,0.125,100,60.0
1151,G1,128.875,0.125,70,60.0
1152,G1,128.875,0.125,70,60.0
1153,E-3,128.875,1/10,80,60.0
1154,D5,129.0,0.375,100,60.0
1155,D5,129.0,0.375,100,60.0
1156,G2,129.0,0.125,70,60.0
1157,G2,129.0,0.125,70,60.0
1158,B3,129.0,1/10,80,60.0
1159,D4,129.125,0.125,100,60.0
1160,D4,129.125,0.125,100,60.0
1161,G1,129.125,0.125,70,60.0
1162,G1,129.125,0.125,70,60.0
1163,B3,129.125,1/10,80,60.0
1164,D5,129.25,0.375,100,60.0
1165,D5,129.25,0.375,100,60.0
1166,G2,129.25,0.125,70,60.0
1167,G2,129.25,0.125,70,60.0
1168,B3,129.25,1/10,80,60.0
1169,D4,129.375,0.125,100,60.0
1170,D4,129.375,0.125,100,60.0
1171,G1,129.375,0.125,70,60.0
1172,G1,129.375,0.125,70,60.0
1173,B3,129.375,1/10,80,60.0
1174,D5,129.5,0.375,100,60.0
1175,D5,129.5,0.375,100,60.0
1176,G2,129.5,0.125,70,60.0
1177,G2,129.5,0.125,70,60.0
1178,B3,129.5,1/10,80,60.0
1179,D4,129.625,0.125,100,60.0
1180,D4,129.625,0.125,100,60.0
1181,G1,129.625,0.125,70,60.0
1182,G1,129.625,0.125,70,60.0
1183,B3,129.625,1/10,80,60.0
1184,D5,129.75,0.375,100,60.0
1185,D5,129.75,0.375,100,60.0
1186,G2,129.75,0.125,70,60.0
1187,G2,129.75,0.125,70,60.0
1188,B3,129.75,1/10,80,60.0
1189,D4,129.875,0.125,100,60.0
1190,D4,129.875,0.125,100,60.0
1191,G1,129.875,0.125,70,60.0
1192,G1,129.875,0.125,70,60.0
1193,B3,129.875,1/10,80,60.0
1194,D5,130.0,0.375,100,60.0
1195,D5,130.0,0.375,100,60.0
1196,G2,130.0,0.125,70,60.0
1197,G2,130.0,0.125,70,60.0
1198,E-3,130.0,1/10,80,60.0
1199,D4,130.125,0.125,100,60.0
1200,D4,130.125,0.125,100,60.0
1201,G1,130.125,0.125,70,60.0
1202,G1,130.125,0.125,70,60.0
1203,E-3,130.125,1/10,80,60.0
1204,D5,130.25,0.375,100,60.0
1205,D5,130.25,0.375,100,60.0
1206,G2,130.25,0.125,70,60.0
1207,G2,130.25,0.125,70,60.0
1208,E-3,130.25,1/10,80,60.0
1209,D4,130.375,0.125,100,60.0
1210,D4,130.375,0.125,100,60.0
1211,G1,130.375,0.125,70,60.0
1212,G1,130.375,0.125,70,60.0
1213,E-3,130.375,1/10,80,60.0
1214,D5,130.5,0.375,100,60.0
1215,D5,130.5,0.375,100,60.0
1216,G2,130.5,0.125,70,60.0
1217,G2,130.5,0.125,70,60.0
1218,E-3,130.5,1/10,80,60.0
1219,D4,130.625,0.125,100,60.0
1220,D4,130.625,0.125,100,60.0
1221,G1,130.625,0.125,70,60.0
1222,G1,130.625,0.125,70,60.0
1223,E-3,130.625,1/10,80,60.0
1224,D5,130.75,0.375,100,60.0
1225,D5,130.75,0.375,100,60.0
1226,G2,130.75,0.125,70,60.0
1227,G2,130.75,0.125,70,60.0
1228,E-3,130.75,1/10,80,60.0
1229,D4,130.875,0.125,100,60.0
1230,D4,130.875,0.125,100,60.0
1231,G1,130.875,0.125,70,60.0
1232,G1,130.875,0.125,70,60.0
1233,E-3,130.875,1/10,80,60.0
1234,D5,131.0,0.375,100,60.0
1235,D5,131.0,0.375,100,60.0
1236,G2,131.0,0.125,70,60.0
1237,G2,131.0,0.125,70,60.0
1238,E-3,131.0,1/10,80,60.0
1239,D4,131.125,0.125,100,60.0
1240,D4,131.125,0.125,100,60.0
1241,G1,131.125,0.125,70,60.0
1242,G1,131.125,0.125,70,60.0
1243,E-3,131.125,1/10,80,60.0
1244,D5,131.25,0.375,100,60.0
1245,D5,131.25,0.375,100,60.0
1246,G2,131.25,0.125,70,60.0
1247,G2,131.25,0.125,70,60.0
1248,E-3,131.25,1/10,80,60.0
1249,D4,131.375,0.125,100,60.0
1250,D4,131.375,0.125,100,60.0
1251,G1,131.375,0.125,70,60.0
1252,G1,131.375,0.125,70,60.0
1253,E-3,131.375,1/10,80,60.0
1254,D5,131.5,0.375,100,60.0
1255,D5,131.5,0.375,100,60.0
1256,G2,131.5,0.125,70,60.0
1257,G2,131.5,0.125,70,60.0
1258,E-3,131.5,1/10,80,60.0
1259,D4,131.625,0.125,100,60.0
1260,D4,131.625,0.125,100,60.0
1261,G1,131.625,0.125,70,60.0
1262,G1,131.625,0.125,70,60.0
1263,E-3,131.625,1/10,80,60.0
1264,D5,131.75,0.25,100,60.0
1265,D5,131.75,0.25,100,60.0
1266,G2,131.75,0.125,70,60.0
1267,G2,131.75,0.125,70,60.0
1268,E-3,131.75,1/10,80,60.0
1269,D4,131.875,0.125,100,60.0
1270,D4,131.875,0.125,100,60.0
1271,G1,131.875,0.125,70,60.0
1272,G1,131.875,0.125,70,60.0
1273,E-3,131.875,1/10,80,60.0
