,note_name,start_time,duration,velocity,tempo
0,B1,0.0,1.0,64,60.0
1,B2,0.0,1.0,64,60.0
2,B3,0.5,0.75,64,60.0
3,E-4,0.5,0.75,64,60.0
4,F#3,1.0,0.75,64,60.0
5,C#4,1.25,0.75,64,60.0
6,B2,1.75,0.25,64,60.0
7,B2,2.0,1.0,64,60.0
8,E4,2.0,0.75,64,60.0
9,B3,2.0,0.75,64,60.0
10,E-4,2.75,0.5,64,60.0
11,B3,2.75,0.5,64,60.0
12,B1,3.0,1.0,64,60.0
13,B2,3.0,1.0,64,60.0
14,F#3,3.25,0.25,64,60.0
15,C#4,3.5,0.25,64,60.0
16,E-4,3.75,0.25,64,60.0
17,G#1,4.0,1.0,64,60.0
18,G#2,4.0,1.0,64,60.0
19,B3,4.5,0.75,64,60.0
20,E-4,4.5,0.75,64,60.0
21,G#2,5.0,0.75,64,60.0
22,C#4,5.25,0.75,64,60.0
23,G#1,5.75,0.25,64,60.0
24,G#1,6.0,1.0,64,60.0
25,B3,6.0,0.75,64,60.0
26,E4,6.0,0.75,64,60.0
27,E-4,6.75,0.5,64,60.0
28,B3,6.75,0.5,64,60.0
29,G#2,7.0,1.0,64,60.0
30,B3,7.25,0.25,64,60.0
31,C#4,7.5,0.25,64,60.0
32,E-4,7.75,0.25,64,60.0
33,F#1,8.0,1.0,64,60.0
34,F#2,8.0,1.0,64,60.0
35,B3,8.5,0.75,64,60.0
36,E-4,8.5,0.75,64,60.0
37,F#2,9.0,0.75,64,60.0
38,C#4,9.25,0.75,64,60.0
39,F#1,9.75,0.25,64,60.0
40,F#1,10.0,1.0,64,60.0
41,E4,10.0,0.75,64,60.0
42,B3,10.0,0.75,64,60.0
43,E-4,10.75,0.5,64,60.0
44,F#2,11.0,1.0,64,60.0
45,B3,11.25,0.75,64,60.0
46,E2,12.0,1.0,64,60.0
47,E1,12.0,1.0,64,60.0
48,G#3,12.0,0.75,64,60.0
49,E3,12.0,0.75,64,60.0
50,G#3,12.75,0.5,64,60.0
51,E4,12.75,0.5,64,60.0
52,E2,13.0,0.5,64,60.0
53,E1,13.0,0.5,64,60.0
54,B-3,13.25,0.25,64,60.0
55,E2,13.5,2.5,64,60.0
56,E1,13.5,2.5,64,60.0
57,B3,13.5,2.5,64,60.0
58,E4,13.5,2.5,64,60.0
59,B4,15.0,0.5,64,60.0
60,E-5,15.5,0.5,64,60.0
61,E-5,16.0,1/100,64,60.0
62,B1,16.0,667/1000,64,60.0
63,B2,16.0,667/1000,64,60.0
64,B3,16.5,0.5,64,60.0
65,E-4,16.5,0.5,64,60.0
66,F#3,17.0,0.5,64,60.0
67,C#4,17.25,0.5,64,60.0
68,B2,17.75,167/1000,64,60.0
69,B2,18.0,667/1000,64,60.0
70,B3,18.0,0.5,64,60.0
71,E4,18.0,0.5,64,60.0
72,B4,18.5,333/1000,64,60.0
73,B3,18.75,833/1000,64,60.0
74,E-4,18.75,833/1000,64,60.0
75,B4,19.0,333/1000,64,60.0
76,B2,19.0,667/1000,64,60.0
77,B1,19.0,667/1000,64,60.0
78,E-5,19.5,333/1000,64,60.0
79,E5,20.0,0.5,64,60.0
80,G#2,20.0,667/1000,64,60.0
81,G#1,20.0,667/1000,64,60.0
82,B3,20.5,0.5,64,60.0
83,E-4,20.5,0.5,64,60.0
84,E-5,20.75,0.5,64,60.0
85,G#2,21.0,0.5,64,60.0
86,C#4,21.25,0.5,64,60.0
87,B4,21.5,1.0,64,60.0
88,G#1,21.75,167/1000,64,60.0
89,G#1,22.0,667/1000,64,60.0
90,E4,22.0,0.5,64,60.0
91,B3,22.0,0.5,64,60.0
92,E-4,22.75,333/1000,64,60.0
93,G#2,23.0,667/1000,64,60.0
94,B3,23.25,167/1000,64,60.0
95,G#3,23.5,333/1000,64,60.0
96,E5,24.0,333/1000,64,60.0
97,E1,24.0,667/1000,64,60.0
98,E2,24.0,667/1000,64,60.0
99,E3,24.0,0.5,64,60.0
100,G#3,24.0,0.5,64,60.0
101,E5,24.5,167/1000,64,60.0
102,E5,24.75,333/1000,64,60.0
103,G#3,24.75,0.5,64,60.0
104,E4,24.75,0.5,64,60.0
105,E2,25.0,333/1000,64,60.0
106,E1,25.0,333/1000,64,60.0
107,G#5,25.25,167/1000,64,60.0
108,G#5,25.5,667/1000,64,60.0
109,E2,25.5,1667/1000,64,60.0
110,E1,25.5,1667/1000,64,60.0
111,E4,25.5,333/1000,64,60.0
112,B3,25.5,333/1000,64,60.0
113,B4,26.5,333/1000,64,60.0
114,B4,27.0,333/1000,64,60.0
115,B4,27.5,333/1000,64,60.0
116,E-5,28.0,1333/1000,64,60.0
117,B1,28.0,1.0,64,60.0
118,B2,28.0,1.0,64,60.0
119,B3,28.5,0.5,64,60.0
120,E-4,28.5,0.5,64,60.0
121,F#3,29.0,0.75,64,60.0
122,C#4,29.25,0.5,64,60.0
123,B2,29.75,0.25,64,60.0
124,B2,30.0,1.0,64,60.0
125,E4,30.0,0.5,64,60.0
126,B3,30.0,0.5,64,60.0
127,E-4,30.75,333/1000,64,60.0
128,B2,31.0,1.0,64,60.0
129,B1,31.0,1.0,64,60.0
130,B3,31.25,167/1000,64,60.0
131,C#4,31.5,167/1000,64,60.0
132,F#4,31.5,167/1000,64,60.0
133,F#4,31.75,167/1000,64,60.0
134,E-4,31.75,167/1000,64,60.0
135,B2,32.0,1/100,64,60.0
136,B1,32.0,1/100,64,60.0
137,B3,32.5,0.75,64,60.0
138,E-4,32.5,0.75,64,60.0
139,F#3,33.0,0.75,64,60.0
140,C#4,33.25,0.75,64,60.0
141,B2,33.75,0.25,64,60.0
142,B2,34.0,1.0,64,60.0
143,B3,34.0,0.75,64,60.0
144,E4,34.0,0.75,64,60.0
145,E-4,34.75,0.5,64,60.0
146,B4,35.0,0.5,64,60.0
147,B2,35.0,1.0,64,60.0
148,B1,35.0,1.0,64,60.0
149,E-4,35.25,0.25,64,60.0
150,E-5,35.5,0.5,64,60.0
151,F#3,35.5,0.5,64,60.0
152,E-5,36.0,2.0,64,60.0
153,B2,36.0,1.0,64,60.0
154,B1,36.0,1.0,64,60.0
155,B3,36.5,0.75,64,60.0
156,E-4,36.5,0.75,64,60.0
157,F#3,37.0,0.75,64,60.0
158,C#4,37.25,0.75,64,60.0
159,B2,37.75,0.25,64,60.0
160,B2,38.0,1.0,64,60.0
161,B3,38.0,0.75,64,60.0
162,E4,38.0,0.75,64,60.0
163,E-4,38.75,0.5,64,60.0
164,B2,39.0,1.0,64,60.0
165,B1,39.0,1.0,64,60.0
166,B3,39.25,0.25,64,60.0
167,B4,39.333,333/1000,64,60.0
168,C#4,39.5,0.25,64,60.0
169,E-5,39.667,333/1000,64,60.0
170,E-4,39.75,0.25,64,60.0
171,E5,40.0,0.75,64,60.0
172,G#2,40.0,1.0,64,60.0
173,G#1,40.0,1.0,64,60.0
174,B3,40.5,0.75,64,60.0
175,E-4,40.5,0.75,64,60.0
176,E-5,40.75,0.75,64,60.0
177,G#2,41.0,0.75,64,60.0
178,C#4,41.25,0.75,64,60.0
179,B4,41.5,1.5,64,60.0
180,G#1,41.75,0.25,64,60.0
181,G#1,42.0,1.0,64,60.0
182,B3,42.0,0.75,64,60.0
183,E4,42.0,0.75,64,60.0
184,E-4,42.75,0.5,64,60.0
185,G#2,43.0,1.0,64,60.0
186,G#1,43.0,1.0,64,60.0
187,B3,43.25,0.25,64,60.0
188,G#3,43.5,0.5,64,60.0
189,E5,44.0,0.5,64,60.0
190,E2,44.0,1.0,64,60.0
191,E1,44.0,1.0,64,60.0
192,E3,44.0,0.75,64,60.0
193,G#3,44.0,0.75,64,60.0
194,E5,44.5,0.25,64,60.0
195,E5,44.75,0.5,64,60.0
196,G#3,44.75,0.75,64,60.0
197,E4,44.75,0.75,64,60.0
198,E2,45.0,0.5,64,60.0
199,E1,45.0,0.5,64,60.0
200,G#5,45.25,0.5,64,60.0
201,E1,45.5,2.5,64,60.0
202,E2,45.5,2.5,64,60.0
203,E4,45.5,1.5,64,60.0
204,G#3,45.5,1.5,64,60.0
205,G#5,45.75,0.75,64,60.0
206,B4,46.5,0.5,64,60.0
207,B4,47.0,0.5,64,60.0
208,E-4,47.0,0.5,64,60.0
209,E5,47.5,0.5,64,60.0
210,E4,47.5,0.5,64,60.0
211,E-5,48.0,1.5,64,60.0
212,F#2,48.0,1.0,64,60.0
213,F#1,48.0,1.0,64,60.0
214,B3,48.0,0.75,64,60.0
215,E-4,48.0,0.75,64,60.0
216,G#4,48.0,0.75,64,60.0
217,B3,48.75,0.75,64,60.0
218,G#4,48.75,0.75,64,60.0
219,E-4,48.75,0.75,64,60.0
220,F#2,49.0,0.5,64,60.0
221,F#1,49.0,0.5,64,60.0
222,C#5,49.5,1.5,64,60.0
223,F#2,49.5,1.5,64,60.0
224,F#1,49.5,1.5,64,60.0
225,B-3,49.5,1.5,64,60.0
226,C#4,49.5,1.5,64,60.0
227,F#4,49.5,1.5,64,60.0
228,F#2,51.0,1.0,64,60.0
229,B-3,51.0,0.25,64,60.0
230,F#3,51.0,0.25,64,60.0
231,B3,51.25,0.25,64,60.0
232,C#4,51.5,0.25,64,60.0
233,B4,51.75,0.25,64,60.0
234,B3,51.75,0.25,64,60.0
235,G#5,52.0,0.5,64,60.0
236,E3,52.0,2.0,64,60.0
237,E2,52.0,2.0,64,60.0
238,B3,52.0,0.5,64,60.0
239,G#4,52.0,0.5,64,60.0
240,E4,52.0,0.5,64,60.0
241,G#5,52.5,0.25,64,60.0
242,G#4,52.5,0.25,64,60.0
243,G#5,52.75,0.25,64,60.0
244,G#4,52.75,0.25,64,60.0
245,G#5,53.0,0.5,64,60.0
246,B3,53.0,0.5,64,60.0
247,E4,53.0,0.5,64,60.0
248,G#4,53.0,0.5,64,60.0
249,G#5,53.5,0.25,64,60.0
250,G#4,53.5,0.25,64,60.0
251,G#5,53.75,0.5,64,60.0
252,G#4,53.75,0.25,64,60.0
253,G#3,54.0,1.0,64,60.0
254,G#2,54.0,1.0,64,60.0
255,G#4,54.0,0.25,64,60.0
256,B3,54.0,0.25,64,60.0
257,E-4,54.0,0.25,64,60.0
258,G#5,54.25,0.5,64,60.0
259,G#4,54.25,0.5,64,60.0
260,G#5,54.75,0.25,64,60.0
261,G#4,54.75,0.25,64,60.0
262,G#5,55.0,0.5,64,60.0
263,G#2,55.0,0.75,64,60.0
264,G#1,55.0,0.75,64,60.0
265,B3,55.0,0.5,64,60.0
266,G#4,55.0,0.5,64,60.0
267,E-4,55.0,0.5,64,60.0
268,F#5,55.5,0.25,64,60.0
269,F#4,55.5,0.25,64,60.0
270,F#5,55.75,0.25,64,60.0
271,F#4,55.75,0.25,64,60.0
272,B1,55.75,0.25,64,60.0
273,B2,55.75,0.25,64,60.0
274,F#5,56.0,0.25,64,60.0
275,F#4,56.0,0.25,64,60.0
276,B2,56.0,1.0,64,60.0
277,B1,56.0,1.0,64,60.0
278,B3,56.0,0.25,64,60.0
279,E-4,56.0,0.25,64,60.0
280,F#4,56.0,0.25,64,60.0
281,F#5,56.25,0.75,64,60.0
282,F#4,56.25,1/100,64,60.0
283,B2,57.0,1.0,64,60.0
284,B1,57.0,1.0,64,60.0
285,F#3,57.0,0.25,64,60.0
286,B3,57.0,0.25,64,60.0
287,C#4,57.25,0.5,64,60.0
288,F#3,57.25,0.5,64,60.0
289,F#3,57.75,0.5,64,60.0
290,E4,57.75,0.5,64,60.0
291,B1,58.0,1.0,64,60.0
292,B2,58.0,1.0,64,60.0
293,E-4,58.25,0.5,64,60.0
294,F#3,58.25,0.5,64,60.0
295,F#3,58.75,0.25,64,60.0
296,C#4,58.75,0.25,64,60.0
297,B1,59.0,1.0,64,60.0
298,B2,59.0,1.0,64,60.0
299,E-4,59.0,0.5,64,60.0
300,F#3,59.0,0.5,64,60.0
301,F#3,59.5,0.5,64,60.0
302,B3,59.5,0.5,64,60.0
303,G#3,60.0,0.5,64,60.0
304,E3,60.0,1.0,64,60.0
305,E2,60.0,1.0,64,60.0
306,G#5,60.5,0.5,64,60.0
307,G#4,60.5,0.5,64,60.0
308,G#5,61.0,0.5,64,60.0
309,E2,61.0,1.0,64,60.0
310,G#4,61.0,0.5,64,60.0
311,E4,61.0,0.5,64,60.0
312,B3,61.0,0.5,64,60.0
313,G#5,61.5,0.25,64,60.0
314,G#4,61.5,0.75,64,60.0
315,G#5,61.75,0.5,64,60.0
316,G#3,62.0,1.0,64,60.0
317,G#2,62.0,1.0,64,60.0
318,B3,62.0,0.25,64,60.0
319,E-4,62.0,0.25,64,60.0
320,G#5,62.25,0.25,64,60.0
321,G#4,62.25,0.25,64,60.0
322,G#5,62.5,0.5,64,60.0
323,G#4,62.5,0.5,64,60.0
324,G#5,63.0,0.5,64,60.0
325,G#2,63.0,0.75,64,60.0
326,G#1,63.0,0.75,64,60.0
327,G#4,63.0,0.5,64,60.0
328,B3,63.0,0.5,64,60.0
329,E-4,63.0,0.5,64,60.0
330,F#5,63.5,0.25,64,60.0
331,F#4,63.5,0.5,64,60.0
332,F#5,63.75,0.25,64,60.0
333,B2,63.75,0.25,64,60.0
334,B1,63.75,0.25,64,60.0
335,F#5,64.0,1.0,64,60.0
336,B1,64.0,1/100,64,60.0
337,B2,64.0,1/100,64,60.0
338,F#4,64.0,1/100,64,60.0
339,B3,64.0,0.75,64,60.0
340,E-4,64.0,0.75,64,60.0
341,F#3,64.75,0.5,64,60.0
342,B3,64.75,0.5,64,60.0
343,C#4,64.75,0.5,64,60.0
344,B1,65.0,1.0,64,60.0
345,B2,65.0,1.0,64,60.0
346,F#3,65.25,0.75,64,60.0
347,B3,65.25,0.75,64,60.0
348,E-4,65.25,0.75,64,60.0
349,B1,66.0,1.0,64,60.0
350,B2,66.0,1.0,64,60.0
351,G#3,66.0,0.5,64,60.0
352,E4,66.0,0.5,64,60.0
353,B3,66.0,0.5,64,60.0
354,G#3,66.5,0.25,64,60.0
355,B3,66.5,0.25,64,60.0
356,E4,66.5,0.25,64,60.0
357,G#3,66.75,0.5,64,60.0
358,B3,66.75,0.5,64,60.0
359,E4,66.75,0.5,64,60.0
360,B1,67.0,1.0,64,60.0
361,B2,67.0,1.0,64,60.0
362,E-4,67.25,0.5,64,60.0
363,F#3,67.25,0.5,64,60.0
364,B3,67.25,0.5,64,60.0
365,B4,67.75,167/1000,64,60.0
366,B3,67.75,0.25,64,60.0
367,G#5,68.0,333/1000,64,60.0
368,B3,68.0,1/100,64,60.0
369,E3,68.0,1.0,64,60.0
370,E2,68.0,1.0,64,60.0
371,G#4,68.0,0.5,64,60.0
372,E4,68.0,0.5,64,60.0
373,G#5,68.5,167/1000,64,60.0
374,G#4,68.5,0.25,64,60.0
375,G#5,68.75,167/1000,64,60.0
376,G#4,68.75,0.25,64,60.0
377,G#5,69.0,333/1000,64,60.0
378,E2,69.0,1.0,64,60.0
379,B3,69.0,0.5,64,60.0
380,G#4,69.0,0.5,64,60.0
381,E4,69.0,0.5,64,60.0
382,G#5,69.5,167/1000,64,60.0
383,G#4,69.5,0.25,64,60.0
384,G#5,69.75,333/1000,64,60.0
385,G#4,69.75,0.25,64,60.0
386,G#2,70.0,1.0,64,60.0
387,G#3,70.0,1.0,64,60.0
388,B3,70.0,0.25,64,60.0
389,G#4,70.0,0.25,64,60.0
390,E-4,70.0,0.25,64,60.0
391,G#5,70.25,333/1000,64,60.0
392,G#4,70.25,0.5,64,60.0
393,G#5,70.75,333/1000,64,60.0
394,G#4,70.75,0.5,64,60.0
395,G#2,71.0,1.0,64,60.0
396,G#1,71.0,1.0,64,60.0
397,F#5,71.25,167/1000,64,60.0
398,F#4,71.25,0.25,64,60.0
399,F#5,71.5,167/1000,64,60.0
400,F#4,71.5,0.25,64,60.0
401,F#5,71.75,167/1000,64,60.0
402,F#4,71.75,0.25,64,60.0
403,F#5,72.0,333/1000,64,60.0
404,B1,72.0,1.0,64,60.0
405,B2,72.0,1.0,64,60.0
406,B3,72.0,0.5,64,60.0
407,E-4,72.0,0.5,64,60.0
408,F#4,72.0,0.5,64,60.0
409,B4,72.5,167/1000,64,60.0
410,B3,72.5,0.25,64,60.0
411,B4,72.75,833/1000,64,60.0
412,F#3,72.75,0.5,64,60.0
413,B3,72.75,0.5,64,60.0
414,B2,73.0,0.75,64,60.0
415,F#3,73.25,0.5,64,60.0
416,C#4,73.25,0.5,64,60.0
417,B1,73.75,0.25,64,60.0
418,F#3,73.75,0.5,64,60.0
419,E4,73.75,0.5,64,60.0
420,B1,74.0,1.0,64,60.0
421,F#3,74.25,0.5,64,60.0
422,E-4,74.25,0.5,64,60.0
423,F#3,74.75,0.25,64,60.0
424,C#4,74.75,0.25,64,60.0
425,B1,75.0,1.0,64,60.0
426,B2,75.0,1.0,64,60.0
427,F#3,75.0,0.5,64,60.0
428,E-4,75.0,0.5,64,60.0
429,E-5,75.5,333/1000,64,60.0
430,F#3,75.5,0.5,64,60.0
431,E-4,75.5,0.5,64,60.0
432,B3,75.5,0.5,64,60.0
433,C#5,76.0,1.0,64,60.0
434,F#2,76.0,1.0,64,60.0
435,B-3,76.0,1.5,64,60.0
436,F#3,76.0,1.5,64,60.0
437,C#4,76.0,1.5,64,60.0
438,F#2,77.0,1.0,64,60.0
439,E-5,77.5,167/1000,64,60.0
440,E-4,77.5,0.25,64,60.0
441,F#5,77.75,1167/1000,64,60.0
442,F#4,77.75,0.25,64,60.0
443,E-2,78.0,1.0,64,60.0
444,B-3,78.0,1.5,64,60.0
445,E-4,78.0,1.5,64,60.0
446,F#4,78.0,1.5,64,60.0
447,E-3,79.0,1.0,64,60.0
448,E-5,79.5,333/1000,64,60.0
449,E-4,79.5,0.5,64,60.0
450,C#5,80.0,667/1000,64,60.0
451,F#2,80.0,1.0,64,60.0
452,B-3,80.0,1.0,64,60.0
453,F#3,80.0,1.0,64,60.0
454,C#4,80.0,1.0,64,60.0
455,F#3,81.0,0.75,64,60.0
456,B-3,81.0,0.75,64,60.0
457,F#4,81.0,0.75,64,60.0
458,C#4,81.0,0.75,64,60.0
459,F#2,81.75,0.25,64,60.0
460,B-3,81.75,0.5,64,60.0
461,F#4,81.75,0.5,64,60.0
462,F#2,82.0,1.0,64,60.0
463,B3,82.25,0.25,64,60.0
464,C#4,82.5,0.5,64,60.0
465,F#4,82.5,0.5,64,60.0
466,F#2,83.0,1.0,64,60.0
467,C#4,83.0,0.5,64,60.0
468,C#5,83.333,0.219,64,60.0
469,E-4,83.5,0.5,64,60.0
470,E-5,83.667,0.219,64,60.0
471,E5,84.0,0.5,64,60.0
472,C#3,84.0,2.0,64,60.0
473,C#4,84.0,1.0,64,60.0
474,G#3,84.0,1.0,64,60.0
475,C#4,84.0,1.0,64,60.0
476,E4,84.0,1.0,64,60.0
477,E-5,84.75,0.5,64,60.0
478,G#3,85.0,1.0,64,60.0
479,C#4,85.0,1.0,64,60.0
480,E4,85.0,1.0,64,60.0
481,C#5,85.5,667/1000,64,60.0
482,C#3,86.0,1.25,64,60.0
483,G#3,86.0,0.75,64,60.0
484,C#4,86.0,0.75,64,60.0
485,E4,86.0,0.75,64,60.0
486,B4,86.5,1.0,64,60.0
487,G#3,86.75,0.5,64,60.0
488,C#4,86.75,0.5,64,60.0
489,E4,86.75,0.5,64,60.0
490,E-3,87.25,0.75,64,60.0
491,F#3,87.25,0.75,64,60.0
492,E-4,87.25,0.75,64,60.0
493,B3,87.25,0.75,64,60.0
494,E3,88.0,4.0,64,60.0
495,E2,88.0,4.0,64,60.0
496,E4,88.0,4.0,64,60.0
497,G#3,88.0,4.0,64,60.0
498,B3,88.0,4.0,64,60.0
499,G#4,91.0,0.5,64,60.0
500,B4,91.5,0.25,64,60.0
501,B4,91.75,0.25,64,60.0
502,B4,92.0,1.0,64,60.0
503,B2,92.0,1.0,64,60.0
504,B3,92.0,1.0,64,60.0
505,B3,92.5,0.5,64,60.0
506,E-4,92.5,0.75,64,60.0
507,B5,92.5,0.75,64,60.0
508,F#4,93.0,0.75,64,60.0
509,C#4,93.25,0.75,64,60.0
510,F#5,93.25,0.75,64,60.0
511,B3,93.75,0.25,64,60.0
512,E5,94.0,1.0,64,60.0
513,B3,94.0,0.75,64,60.0
514,B3,94.0,0.75,64,60.0
515,E4,94.0,0.75,64,60.0
516,B3,94.75,0.25,64,60.0
517,E-4,94.75,0.5,64,60.0
518,B2,95.0,1.0,64,60.0
519,B3,95.0,0.25,64,60.0
520,E-5,95.0,0.25,64,60.0
521,B3,95.25,0.25,64,60.0
522,E5,95.25,0.25,64,60.0
523,C#4,95.5,0.25,64,60.0
524,F#5,95.5,0.5,64,60.0
525,E-4,95.75,0.25,64,60.0
526,G#3,96.0,1.0,64,60.0
527,G#2,96.0,1.0,64,60.0
528,B5,96.5,0.75,64,60.0
529,B3,96.5,0.75,64,60.0
530,E-4,96.5,0.75,64,60.0
531,G#3,97.0,0.75,64,60.0
532,C#4,97.25,0.75,64,60.0
533,F#5,97.25,0.75,64,60.0
534,G#2,97.75,0.25,64,60.0
535,G#2,98.0,1.0,64,60.0
536,E5,98.0,1.0,64,60.0
537,B3,98.0,0.75,64,60.0
538,E4,98.0,0.75,64,60.0
539,E-4,98.75,0.5,64,60.0
540,B3,98.75,0.5,64,60.0
541,E-5,99.0,0.25,64,60.0
542,G#3,99.0,1.0,64,60.0
543,G#2,99.0,1.0,64,60.0
544,B3,99.25,0.25,64,60.0
545,E5,99.25,0.25,64,60.0
546,C#4,99.5,0.25,64,60.0
547,F#5,99.5,0.5,64,60.0
548,E-4,99.75,0.25,64,60.0
549,F#3,100.0,1.0,64,60.0
550,F#2,100.0,1.0,64,60.0
551,B5,100.5,0.75,64,60.0
552,B3,100.5,0.75,64,60.0
553,E-4,100.5,0.75,64,60.0
554,F#3,101.0,0.75,64,60.0
555,C#4,101.25,0.75,64,60.0
556,F#5,101.25,0.75,64,60.0
557,F#2,101.75,0.25,64,60.0
558,F#2,102.0,1.0,64,60.0
559,E5,102.0,1.0,64,60.0
560,E4,102.0,0.75,64,60.0
561,B3,102.0,0.75,64,60.0
562,E-4,102.75,0.5,64,60.0
563,E-5,103.0,0.25,64,60.0
564,F#3,103.0,1.0,64,60.0
565,F#2,103.0,1.0,64,60.0
566,B3,103.25,0.25,64,60.0
567,E5,103.25,0.25,64,60.0
568,F#3,103.5,0.5,64,60.0
569,F#5,103.5,0.25,64,60.0
570,B5,103.75,0.25,64,60.0
571,E5,104.0,3.0,64,60.0
572,E2,104.0,4.0,64,60.0
573,E1,104.0,4.0,64,60.0
574,G#3,104.0,4.0,64,60.0
575,B3,104.0,4.0,64,60.0
576,E4,104.0,4.0,64,60.0
577,G#5,107.0,0.5,64,60.0
578,F#5,107.5,0.5,64,60.0
579,E-5,108.0,667/1000,64,60.0
580,B1,108.0,667/1000,64,60.0
581,B2,108.0,667/1000,64,60.0
582,B3,108.5,0.5,64,60.0
583,E-4,108.5,0.5,64,60.0
584,F#3,109.0,0.5,64,60.0
585,C#4,109.25,0.5,64,60.0
586,B2,109.75,167/1000,64,60.0
587,B2,110.0,667/1000,64,60.0
588,B3,110.0,0.5,64,60.0
589,E4,110.0,0.5,64,60.0
590,B4,110.5,333/1000,64,60.0
591,B3,110.75,833/1000,64,60.0
592,E-4,110.75,833/1000,64,60.0
593,B4,111.0,333/1000,64,60.0
594,B2,111.0,667/1000,64,60.0
595,B1,111.0,667/1000,64,60.0
596,E-5,111.5,333/1000,64,60.0
597,E5,112.0,0.5,64,60.0
598,G#2,112.0,667/1000,64,60.0
599,G#1,112.0,667/1000,64,60.0
600,B3,112.5,0.5,64,60.0
601,E-4,112.5,0.5,64,60.0
602,E-5,112.75,0.5,64,60.0
603,G#2,113.0,0.5,64,60.0
604,C#4,113.25,0.5,64,60.0
605,B4,113.5,1.0,64,60.0
606,G#1,113.75,167/1000,64,60.0
607,G#1,114.0,667/1000,64,60.0
608,E4,114.0,0.5,64,60.0
609,B3,114.0,0.5,64,60.0
610,E-4,114.75,333/1000,64,60.0
611,G#2,115.0,667/1000,64,60.0
612,B3,115.25,167/1000,64,60.0
613,G#3,115.5,333/1000,64,60.0
614,E5,116.0,333/1000,64,60.0
615,E1,116.0,667/1000,64,60.0
616,E2,116.0,667/1000,64,60.0
617,E3,116.0,0.5,64,60.0
618,G#3,116.0,0.5,64,60.0
619,E5,116.5,167/1000,64,60.0
620,E5,116.75,333/1000,64,60.0
621,G#3,116.75,0.5,64,60.0
622,E4,116.75,0.5,64,60.0
623,E2,117.0,333/1000,64,60.0
624,E1,117.0,333/1000,64,60.0
625,G#5,117.25,167/1000,64,60.0
626,G#5,117.5,667/1000,64,60.0
627,E2,117.5,1667/1000,64,60.0
628,E1,117.5,1667/1000,64,60.0
629,E4,117.5,333/1000,64,60.0
630,B3,117.5,333/1000,64,60.0
631,B4,118.5,333/1000,64,60.0
632,B4,119.0,333/1000,64,60.0
633,B4,119.5,333/1000,64,60.0
634,E-5,120.0,1333/1000,64,60.0
635,B1,120.0,1.0,64,60.0
636,B2,120.0,1.0,64,60.0
637,B3,120.5,0.5,64,60.0
638,E-4,120.5,0.5,64,60.0
639,F#3,121.0,0.75,64,60.0
640,C#4,121.25,0.5,64,60.0
641,B2,121.75,0.25,64,60.0
642,B2,122.0,1.0,64,60.0
643,E4,122.0,0.5,64,60.0
644,B3,122.0,0.5,64,60.0
645,E-4,122.75,333/1000,64,60.0
646,B2,123.0,1.0,64,60.0
647,B1,123.0,1.0,64,60.0
648,B3,123.25,167/1000,64,60.0
649,C#4,123.5,167/1000,64,60.0
650,F#4,123.5,167/1000,64,60.0
651,F#4,123.75,167/1000,64,60.0
652,E-4,123.75,167/1000,64,60.0
653,B2,124.0,1/100,64,60.0
654,B1,124.0,1/100,64,60.0
655,B3,124.5,0.75,64,60.0
656,E-4,124.5,0.75,64,60.0
657,F#3,125.0,0.75,64,60.0
658,C#4,125.25,0.75,64,60.0
659,B2,125.75,0.25,64,60.0
660,B2,126.0,1.0,64,60.0
661,B3,126.0,0.75,64,60.0
662,E4,126.0,0.75,64,60.0
663,E-4,126.75,0.5,64,60.0
664,B4,127.0,0.5,64,60.0
665,B2,127.0,1.0,64,60.0
666,B1,127.0,1.0,64,60.0
667,E-4,127.25,0.25,64,60.0
668,E-5,127.5,0.5,64,60.0
669,F#3,127.5,0.5,64,60.0
670,E-5,128.0,2.0,64,60.0
671,B2,128.0,1.0,64,60.0
672,B1,128.0,1.0,64,60.0
673,B3,128.5,0.75,64,60.0
674,E-4,128.5,0.75,64,60.0
675,F#3,129.0,0.75,64,60.0
676,C#4,129.25,0.75,64,60.0
677,B2,129.75,0.25,64,60.0
678,B2,130.0,1.0,64,60.0
679,B3,130.0,0.75,64,60.0
680,E4,130.0,0.75,64,60.0
681,E-4,130.75,0.5,64,60.0
682,B2,131.0,1.0,64,60.0
683,B1,131.0,1.0,64,60.0
684,B3,131.25,0.25,64,60.0
685,B4,131.333,333/1000,64,60.0
686,C#4,131.5,0.25,64,60.0
687,E-5,131.667,333/1000,64,60.0
688,E-4,131.75,0.25,64,60.0
689,E5,132.0,0.75,64,60.0
690,G#2,132.0,1.0,64,60.0
691,G#1,132.0,1.0,64,60.0
692,B3,132.5,0.75,64,60.0
693,E-4,132.5,0.75,64,60.0
694,E-5,132.75,0.75,64,60.0
695,G#2,133.0,0.75,64,60.0
696,C#4,133.25,0.75,64,60.0
697,B4,133.5,1.5,64,60.0
698,G#1,133.75,0.25,64,60.0
699,G#1,134.0,1.0,64,60.0
700,B3,134.0,0.75,64,60.0
701,E4,134.0,0.75,64,60.0
702,E-4,134.75,0.5,64,60.0
703,G#2,135.0,1.0,64,60.0
704,G#1,135.0,1.0,64,60.0
705,B3,135.25,0.25,64,60.0
706,G#3,135.5,0.5,64,60.0
707,E5,136.0,0.5,64,60.0
708,E2,136.0,1.0,64,60.0
709,E1,136.0,1.0,64,60.0
710,E3,136.0,0.75,64,60.0
711,G#3,136.0,0.75,64,60.0
712,E5,136.5,0.25,64,60.0
713,E5,136.75,0.5,64,60.0
714,G#3,136.75,0.75,64,60.0
715,E4,136.75,0.75,64,60.0
716,E2,137.0,0.5,64,60.0
717,E1,137.0,0.5,64,60.0
718,G#5,137.25,0.5,64,60.0
719,E1,137.5,2.5,64,60.0
720,E2,137.5,2.5,64,60.0
721,E4,137.5,1.5,64,60.0
722,G#3,137.5,1.5,64,60.0
723,G#5,137.75,0.75,64,60.0
724,B4,138.5,0.5,64,60.0
725,B4,139.0,0.5,64,60.0
726,E-4,139.0,0.5,64,60.0
727,E5,139.5,0.5,64,60.0
728,E4,139.5,0.5,64,60.0
729,E-5,140.0,1.5,64,60.0
730,F#2,140.0,1.0,64,60.0
731,F#1,140.0,1.0,64,60.0
732,B3,140.0,0.75,64,60.0
733,E-4,140.0,0.75,64,60.0
734,G#4,140.0,0.75,64,60.0
735,B3,140.75,0.75,64,60.0
736,G#4,140.75,0.75,64,60.0
737,E-4,140.75,0.75,64,60.0
738,F#2,141.0,0.5,64,60.0
739,F#1,141.0,0.5,64,60.0
740,C#5,141.5,1.5,64,60.0
741,F#2,141.5,1.5,64,60.0
742,F#1,141.5,1.5,64,60.0
743,B-3,141.5,1.5,64,60.0
744,C#4,141.5,1.5,64,60.0
745,F#4,141.5,1.5,64,60.0
746,F#2,143.0,1.0,64,60.0
747,B-3,143.0,0.25,64,60.0
748,F#3,143.0,0.25,64,60.0
749,B3,143.25,0.25,64,60.0
750,C#4,143.5,0.25,64,60.0
751,B4,143.75,0.25,64,60.0
752,B3,143.75,0.25,64,60.0
753,G#5,144.0,0.5,64,60.0
754,E3,144.0,2.0,64,60.0
755,E2,144.0,2.0,64,60.0
756,B3,144.0,0.5,64,60.0
757,G#4,144.0,0.5,64,60.0
758,E4,144.0,0.5,64,60.0
759,G#5,144.5,0.25,64,60.0
760,G#4,144.5,0.25,64,60.0
761,G#5,144.75,0.25,64,60.0
762,G#4,144.75,0.25,64,60.0
763,G#5,145.0,0.5,64,60.0
764,B3,145.0,0.5,64,60.0
765,E4,145.0,0.5,64,60.0
766,G#4,145.0,0.5,64,60.0
767,G#5,145.5,0.25,64,60.0
768,G#4,145.5,0.25,64,60.0
769,G#5,145.75,0.5,64,60.0
770,G#4,145.75,0.25,64,60.0
771,G#3,146.0,1.0,64,60.0
772,G#2,146.0,1.0,64,60.0
773,G#4,146.0,0.25,64,60.0
774,B3,146.0,0.25,64,60.0
775,E-4,146.0,0.25,64,60.0
776,G#5,146.25,0.5,64,60.0
777,G#4,146.25,0.5,64,60.0
778,G#5,146.75,0.25,64,60.0
779,G#4,146.75,0.25,64,60.0
780,G#5,147.0,0.5,64,60.0
781,G#2,147.0,0.75,64,60.0
782,G#1,147.0,0.75,64,60.0
783,B3,147.0,0.5,64,60.0
784,G#4,147.0,0.5,64,60.0
785,E-4,147.0,0.5,64,60.0
786,F#5,147.5,0.25,64,60.0
787,F#4,147.5,0.25,64,60.0
788,F#5,147.75,0.25,64,60.0
789,F#4,147.75,0.25,64,60.0
790,B1,147.75,0.25,64,60.0
791,B2,147.75,0.25,64,60.0
792,F#5,148.0,0.25,64,60.0
793,F#4,148.0,0.25,64,60.0
794,B2,148.0,1.0,64,60.0
795,B1,148.0,1.0,64,60.0
796,B3,148.0,0.25,64,60.0
797,E-4,148.0,0.25,64,60.0
798,F#4,148.0,0.25,64,60.0
799,F#5,148.25,0.75,64,60.0
800,F#4,148.25,1/100,64,60.0
801,B2,149.0,1.0,64,60.0
802,B1,149.0,1.0,64,60.0
803,F#3,149.0,0.25,64,60.0
804,B3,149.0,0.25,64,60.0
805,C#4,149.25,0.5,64,60.0
806,F#3,149.25,0.5,64,60.0
807,F#3,149.75,0.5,64,60.0
808,E4,149.75,0.5,64,60.0
809,B1,150.0,1.0,64,60.0
810,B2,150.0,1.0,64,60.0
811,E-4,150.25,0.5,64,60.0
812,F#3,150.25,0.5,64,60.0
813,F#3,150.75,0.25,64,60.0
814,C#4,150.75,0.25,64,60.0
815,B1,151.0,1.0,64,60.0
816,B2,151.0,1.0,64,60.0
817,E-4,151.0,0.5,64,60.0
818,F#3,151.0,0.5,64,60.0
819,F#3,151.5,0.5,64,60.0
820,B3,151.5,0.5,64,60.0
821,G#3,152.0,0.5,64,60.0
822,E3,152.0,1.0,64,60.0
823,E2,152.0,1.0,64,60.0
824,G#5,152.5,0.5,64,60.0
825,G#4,152.5,0.5,64,60.0
826,G#5,153.0,0.5,64,60.0
827,E2,153.0,1.0,64,60.0
828,G#4,153.0,0.5,64,60.0
829,E4,153.0,0.5,64,60.0
830,B3,153.0,0.5,64,60.0
831,G#5,153.5,0.25,64,60.0
832,G#4,153.5,0.75,64,60.0
833,G#5,153.75,0.5,64,60.0
834,G#3,154.0,1.0,64,60.0
835,G#2,154.0,1.0,64,60.0
836,B3,154.0,0.25,64,60.0
837,E-4,154.0,0.25,64,60.0
838,G#5,154.25,0.25,64,60.0
839,G#4,154.25,0.25,64,60.0
840,G#5,154.5,0.5,64,60.0
841,G#4,154.5,0.5,64,60.0
842,G#5,155.0,0.5,64,60.0
843,G#2,155.0,0.75,64,60.0
844,G#1,155.0,0.75,64,60.0
845,G#4,155.0,0.5,64,60.0
846,B3,155.0,0.5,64,60.0
847,E-4,155.0,0.5,64,60.0
848,F#5,155.5,0.25,64,60.0
849,F#4,155.5,0.5,64,60.0
850,F#5,155.75,0.25,64,60.0
851,B2,155.75,0.25,64,60.0
852,B1,155.75,0.25,64,60.0
853,F#5,156.0,1.0,64,60.0
854,B1,156.0,1/100,64,60.0
855,B2,156.0,1/100,64,60.0
856,F#4,156.0,1/100,64,60.0
857,B3,156.0,0.75,64,60.0
858,E-4,156.0,0.75,64,60.0
859,F#3,156.75,0.5,64,60.0
860,B3,156.75,0.5,64,60.0
861,C#4,156.75,0.5,64,60.0
862,B1,157.0,1.0,64,60.0
863,B2,157.0,1.0,64,60.0
864,F#3,157.25,0.75,64,60.0
865,B3,157.25,0.75,64,60.0
866,E-4,157.25,0.75,64,60.0
867,B1,158.0,1.0,64,60.0
868,B2,158.0,1.0,64,60.0
869,G#3,158.0,0.5,64,60.0
870,E4,158.0,0.5,64,60.0
871,B3,158.0,0.5,64,60.0
872,G#3,158.5,0.25,64,60.0
873,B3,158.5,0.25,64,60.0
874,E4,158.5,0.25,64,60.0
875,G#3,158.75,0.5,64,60.0
876,B3,158.75,0.5,64,60.0
877,E4,158.75,0.5,64,60.0
878,B1,159.0,1.0,64,60.0
879,B2,159.0,1.0,64,60.0
880,E-4,159.25,0.5,64,60.0
881,F#3,159.25,0.5,64,60.0
882,B3,159.25,0.5,64,60.0
883,B4,159.75,167/1000,64,60.0
884,B3,159.75,0.25,64,60.0
885,G#5,160.0,333/1000,64,60.0
886,B3,160.0,1/100,64,60.0
887,E3,160.0,1.0,64,60.0
888,E2,160.0,1.0,64,60.0
889,G#4,160.0,0.5,64,60.0
890,E4,160.0,0.5,64,60.0
891,G#5,160.5,167/1000,64,60.0
892,G#4,160.5,0.25,64,60.0
893,G#5,160.75,167/1000,64,60.0
894,G#4,160.75,0.25,64,60.0
895,G#5,161.0,333/1000,64,60.0
896,E2,161.0,1.0,64,60.0
897,B3,161.0,0.5,64,60.0
898,G#4,161.0,0.5,64,60.0
899,E4,161.0,0.5,64,60.0
900,G#5,161.5,167/1000,64,60.0
901,G#4,161.5,0.25,64,60.0
902,G#5,161.75,333/1000,64,60.0
903,G#4,161.75,0.25,64,60.0
904,G#2,162.0,1.0,64,60.0
905,G#3,162.0,1.0,64,60.0
906,B3,162.0,0.25,64,60.0
907,G#4,162.0,0.25,64,60.0
908,E-4,162.0,0.25,64,60.0
909,G#5,162.25,333/1000,64,60.0
910,G#4,162.25,0.5,64,60.0
911,G#5,162.75,333/1000,64,60.0
912,G#4,162.75,0.5,64,60.0
913,G#2,163.0,1.0,64,60.0
914,G#1,163.0,1.0,64,60.0
915,F#5,163.25,167/1000,64,60.0
916,F#4,163.25,0.25,64,60.0
917,F#5,163.5,167/1000,64,60.0
918,F#4,163.5,0.25,64,60.0
919,F#5,163.75,167/1000,64,60.0
920,F#4,163.75,0.25,64,60.0
921,F#5,164.0,333/1000,64,60.0
922,B1,164.0,1.0,64,60.0
923,B2,164.0,1.0,64,60.0
924,B3,164.0,0.5,64,60.0
925,E-4,164.0,0.5,64,60.0
926,F#4,164.0,0.5,64,60.0
927,B4,164.5,167/1000,64,60.0
928,B3,164.5,0.25,64,60.0
929,B4,164.75,833/1000,64,60.0
930,F#3,164.75,0.5,64,60.0
931,B3,164.75,0.5,64,60.0
932,B2,165.0,0.75,64,60.0
933,F#3,165.25,0.5,64,60.0
934,C#4,165.25,0.5,64,60.0
935,B1,165.75,0.25,64,60.0
936,F#3,165.75,0.5,64,60.0
937,E4,165.75,0.5,64,60.0
938,B1,166.0,1.0,64,60.0
939,F#3,166.25,0.5,64,60.0
940,E-4,166.25,0.5,64,60.0
941,F#3,166.75,0.25,64,60.0
942,C#4,166.75,0.25,64,60.0
943,B1,167.0,1.0,64,60.0
944,B2,167.0,1.0,64,60.0
945,F#3,167.0,0.5,64,60.0
946,E-4,167.0,0.5,64,60.0
947,E-5,167.5,333/1000,64,60.0
948,F#3,167.5,0.5,64,60.0
949,E-4,167.5,0.5,64,60.0
950,B3,167.5,0.5,64,60.0
951,C#5,168.0,1.0,64,60.0
952,F#2,168.0,1.0,64,60.0
953,B-3,168.0,1.5,64,60.0
954,F#3,168.0,1.5,64,60.0
955,C#4,168.0,1.5,64,60.0
956,F#2,169.0,1.0,64,60.0
957,E-5,169.5,167/1000,64,60.0
958,E-4,169.5,0.25,64,60.0
959,F#5,169.75,1167/1000,64,60.0
960,F#4,169.75,0.25,64,60.0
961,E-2,170.0,1.0,64,60.0
962,B-3,170.0,1.5,64,60.0
963,E-4,170.0,1.5,64,60.0
964,F#4,170.0,1.5,64,60.0
965,E-3,171.0,1.0,64,60.0
966,E-5,171.5,333/1000,64,60.0
967,E-4,171.5,0.5,64,60.0
968,C#5,172.0,667/1000,64,60.0
969,F#2,172.0,1.0,64,60.0
970,B-3,172.0,1.0,64,60.0
971,F#3,172.0,1.0,64,60.0
972,C#4,172.0,1.0,64,60.0
973,F#3,173.0,0.75,64,60.0
974,B-3,173.0,0.75,64,60.0
975,F#4,173.0,0.75,64,60.0
976,C#4,173.0,0.75,64,60.0
977,F#2,173.75,0.25,64,60.0
978,B-3,173.75,0.5,64,60.0
979,F#4,173.75,0.5,64,60.0
980,F#2,174.0,1.0,64,60.0
981,B3,174.25,0.25,64,60.0
982,C#4,174.5,0.5,64,60.0
983,F#4,174.5,0.5,64,60.0
984,F#2,175.0,1.0,64,60.0
985,C#4,175.0,0.5,64,60.0
986,C#5,175.333,0.219,64,60.0
987,E-4,175.5,0.5,64,60.0
988,E-5,175.667,0.219,64,60.0
989,E5,176.0,0.5,64,60.0
990,C#3,176.0,2.0,64,60.0
991,C#4,176.0,1.0,64,60.0
992,G#3,176.0,1.0,64,60.0
993,C#4,176.0,1.0,64,60.0
994,E4,176.0,1.0,64,60.0
995,E-5,176.75,0.5,64,60.0
996,G#3,177.0,1.0,64,60.0
997,C#4,177.0,1.0,64,60.0
998,E4,177.0,1.0,64,60.0
999,C#5,177.5,667/1000,64,60.0
1000,C#3,178.0,1.25,64,60.0
1001,G#3,178.0,0.75,64,60.0
1002,C#4,178.0,0.75,64,60.0
1003,E4,178.0,0.75,64,60.0
1004,B4,178.5,1.0,64,60.0
1005,G#3,178.75,0.5,64,60.0
1006,C#4,178.75,0.5,64,60.0
1007,E4,178.75,0.5,64,60.0
1008,E-3,179.25,0.75,64,60.0
1009,F#3,179.25,0.75,64,60.0
1010,E-4,179.25,0.75,64,60.0
1011,B3,179.25,0.75,64,60.0
1012,E3,180.0,4.0,64,60.0
1013,E2,180.0,4.0,64,60.0
1014,E4,180.0,4.0,64,60.0
1015,G#3,180.0,4.0,64,60.0
1016,B3,180.0,4.0,64,60.0
1017,G#4,183.0,0.5,64,60.0
1018,B4,183.5,0.25,64,60.0
1019,B4,183.75,0.25,64,60.0
1020,B4,184.0,1.0,64,60.0
1021,B2,184.0,1.0,64,60.0
1022,B3,184.0,1.0,64,60.0
1023,B3,184.5,0.5,64,60.0
1024,E-4,184.5,0.75,64,60.0
1025,B5,184.5,0.75,64,60.0
1026,F#4,185.0,0.75,64,60.0
1027,C#4,185.25,0.75,64,60.0
1028,F#5,185.25,0.75,64,60.0
1029,B3,185.75,0.25,64,60.0
1030,E5,186.0,1.0,64,60.0
1031,B3,186.0,0.75,64,60.0
1032,B3,186.0,0.75,64,60.0
1033,E4,186.0,0.75,64,60.0
1034,B3,186.75,0.25,64,60.0
1035,E-4,186.75,0.5,64,60.0
1036,B2,187.0,1.0,64,60.0
1037,B3,187.0,0.25,64,60.0
1038,E-5,187.0,0.25,64,60.0
1039,B3,187.25,0.25,64,60.0
1040,E5,187.25,0.25,64,60.0
1041,C#4,187.5,0.25,64,60.0
1042,F#5,187.5,0.5,64,60.0
1043,E-4,187.75,0.25,64,60.0
1044,G#3,188.0,1.0,64,60.0
1045,G#2,188.0,1.0,64,60.0
1046,B5,188.5,0.75,64,60.0
1047,B3,188.5,0.75,64,60.0
1048,E-4,188.5,0.75,64,60.0
1049,G#3,189.0,0.75,64,60.0
1050,C#4,189.25,0.75,64,60.0
1051,F#5,189.25,0.75,64,60.0
1052,G#2,189.75,0.25,64,60.0
1053,G#2,190.0,1.0,64,60.0
1054,E5,190.0,1.0,64,60.0
1055,B3,190.0,0.75,64,60.0
1056,E4,190.0,0.75,64,60.0
1057,E-4,190.75,0.5,64,60.0
1058,B3,190.75,0.5,64,60.0
1059,E-5,191.0,0.25,64,60.0
1060,G#3,191.0,1.0,64,60.0
1061,G#2,191.0,1.0,64,60.0
1062,B3,191.25,0.25,64,60.0
1063,E5,191.25,0.25,64,60.0
1064,C#4,191.5,0.25,64,60.0
1065,F#5,191.5,0.5,64,60.0
1066,E-4,191.75,0.25,64,60.0
1067,F#3,192.0,1.0,64,60.0
1068,F#2,192.0,1.0,64,60.0
1069,B5,192.5,0.75,64,60.0
1070,B3,192.5,0.75,64,60.0
1071,E-4,192.5,0.75,64,60.0
1072,F#3,193.0,0.75,64,60.0
1073,C#4,193.25,0.75,64,60.0
1074,F#5,193.25,0.75,64,60.0
1075,F#2,193.75,0.25,64,60.0
1076,F#2,194.0,1.0,64,60.0
1077,E5,194.0,1.0,64,60.0
1078,E4,194.0,0.75,64,60.0
1079,B3,194.0,0.75,64,60.0
1080,E-4,194.75,0.5,64,60.0
1081,E-5,195.0,0.25,64,60.0
1082,F#3,195.0,1.0,64,60.0
1083,F#2,195.0,1.0,64,60.0
1084,B3,195.25,0.25,64,60.0
1085,E5,195.25,0.25,64,60.0
1086,F#3,195.5,0.5,64,60.0
1087,F#5,195.5,0.25,64,60.0
1088,B5,195.75,0.25,64,60.0
1089,E2,196.0,4.0,64,60.0
1090,E1,196.0,4.0,64,60.0
1091,G#3,196.0,4.0,64,60.0
1092,E4,196.0,4.0,64,60.0
1093,B3,196.0,4.0,64,60.0
1094,B2,200.0,1.0,64,60.0
1095,B1,200.0,1.0,64,60.0
1096,E-5,200.5,0.75,64,60.0
1097,B3,200.5,0.75,64,60.0
1098,E-4,200.5,0.75,64,60.0
1099,F#3,201.0,0.75,64,60.0
1100,C#5,201.25,0.75,64,60.0
1101,C#4,201.25,0.75,64,60.0
1102,B2,201.75,0.25,64,60.0
1103,E5,202.0,0.75,64,60.0
1104,B2,202.0,1.0,64,60.0
1105,B3,202.0,0.75,64,60.0
1106,E4,202.0,0.75,64,60.0
1107,E-5,202.75,1.25,64,60.0
1108,B3,202.75,0.5,64,60.0
1109,E-4,202.75,0.5,64,60.0
1110,B1,203.0,1.0,64,60.0
1111,B2,203.0,1.0,64,60.0
1112,B3,203.25,0.25,64,60.0
1113,C#4,203.5,0.25,64,60.0
1114,E-4,203.75,0.25,64,60.0
1115,G#2,204.0,1.0,64,60.0
1116,G#1,204.0,1.0,64,60.0
1117,E-5,204.5,0.75,64,60.0
1118,B3,204.5,0.75,64,60.0
1119,E-4,204.5,0.75,64,60.0
1120,G#2,205.0,0.75,64,60.0
1121,C#5,205.25,0.75,64,60.0
1122,C#4,205.25,0.75,64,60.0
1123,G#1,205.75,0.25,64,60.0
1124,E5,206.0,0.75,64,60.0
1125,G#1,206.0,1.0,64,60.0
1126,B3,206.0,0.75,64,60.0
1127,E4,206.0,0.75,64,60.0
1128,E-5,206.75,0.75,64,60.0
1129,E-4,206.75,0.5,64,60.0
1130,G#2,207.0,1.0,64,60.0
1131,G#1,207.0,1.0,64,60.0
1132,B3,207.25,0.25,64,60.0
1133,B4,207.5,0.5,64,60.0
1134,C#4,207.5,0.25,64,60.0
1135,E-4,207.75,0.25,64,60.0
1136,F#1,208.0,1.0,64,60.0
1137,F#2,208.0,1.0,64,60.0
1138,E-5,208.5,0.75,64,60.0
1139,E-4,208.5,0.75,64,60.0
1140,B3,208.5,0.75,64,60.0
1141,F#2,209.0,0.75,64,60.0
1142,C#5,209.25,0.75,64,60.0
1143,C#4,209.25,0.75,64,60.0
1144,F#1,209.75,0.25,64,60.0
1145,E5,210.0,0.75,64,60.0
1146,F#1,210.0,1.0,64,60.0
1147,B3,210.0,0.75,64,60.0
1148,E4,210.0,0.75,64,60.0
1149,E-5,210.75,0.75,64,60.0
1150,E-4,210.75,0.5,64,60.0
1151,B3,210.75,0.5,64,60.0
1152,F#2,211.0,1.0,64,60.0
1153,F#1,211.0,1.0,64,60.0
1154,B3,211.25,0.25,64,60.0
1155,B4,211.5,0.5,64,60.0
1156,F#3,211.5,0.5,64,60.0
1157,G#5,212.0,3.0,64,60.0
1158,E2,212.0,4.0,64,60.0
1159,E1,212.0,4.0,64,60.0
1160,G#3,212.0,4.0,64,60.0
1161,B3,212.0,4.0,64,60.0
1162,E4,212.0,4.0,64,60.0
1163,F#5,215.0,1.0,64,60.0
1164,B2,216.0,1.0,64,60.0
1165,B1,216.0,1.0,64,60.0
1166,E-5,216.5,0.75,64,60.0
1167,B3,216.5,0.75,64,60.0
1168,E-4,216.5,0.75,64,60.0
1169,F#3,217.0,0.75,64,60.0
1170,C#5,217.25,0.75,64,60.0
1171,C#4,217.25,0.75,64,60.0
1172,B2,217.75,0.25,64,60.0
1173,E5,218.0,0.75,64,60.0
1174,B2,218.0,1.0,64,60.0
1175,B3,218.0,0.75,64,60.0
1176,E4,218.0,0.75,64,60.0
1177,E-5,218.75,1.25,64,60.0
1178,B3,218.75,0.5,64,60.0
1179,E-4,218.75,0.5,64,60.0
1180,B1,219.0,1.0,64,60.0
1181,B2,219.0,1.0,64,60.0
1182,B3,219.25,0.25,64,60.0
1183,C#4,219.5,0.25,64,60.0
1184,E-4,219.75,0.25,64,60.0
1185,G#2,220.0,1.0,64,60.0
1186,G#1,220.0,1.0,64,60.0
1187,E-5,220.5,0.75,64,60.0
1188,B3,220.5,0.75,64,60.0
1189,E-4,220.5,0.75,64,60.0
1190,G#2,221.0,0.75,64,60.0
1191,C#5,221.25,0.75,64,60.0
1192,C#4,221.25,0.75,64,60.0
1193,G#1,221.75,0.25,64,60.0
1194,E5,222.0,0.75,64,60.0
1195,G#1,222.0,1.0,64,60.0
1196,B3,222.0,0.75,64,60.0
1197,E4,222.0,0.75,64,60.0
1198,E-5,222.75,0.75,64,60.0
1199,E-4,222.75,0.5,64,60.0
1200,G#2,223.0,1.0,64,60.0
1201,G#1,223.0,1.0,64,60.0
1202,B3,223.25,0.25,64,60.0
1203,B4,223.5,0.5,64,60.0
1204,C#4,223.5,0.25,64,60.0
1205,E-4,223.75,0.25,64,60.0
1206,F#1,224.0,1.0,64,60.0
1207,F#2,224.0,1.0,64,60.0
1208,E-5,224.5,0.75,64,60.0
1209,E-4,224.5,0.75,64,60.0
1210,B3,224.5,0.75,64,60.0
1211,F#2,225.0,0.75,64,60.0
1212,C#5,225.25,0.75,64,60.0
1213,C#4,225.25,0.75,64,60.0
1214,F#1,225.75,0.25,64,60.0
1215,E5,226.0,0.75,64,60.0
1216,F#1,226.0,1.0,64,60.0
1217,B3,226.0,0.75,64,60.0
1218,E4,226.0,0.75,64,60.0
1219,E-5,226.75,0.75,64,60.0
1220,E-4,226.75,0.5,64,60.0
1221,B3,226.75,0.5,64,60.0
1222,F#2,227.0,1.0,64,60.0
1223,F#1,227.0,1.0,64,60.0
1224,B3,227.25,0.25,64,60.0
1225,B4,227.5,0.5,64,60.0
1226,F#3,227.5,0.5,64,60.0
1227,G#5,228.0,3.0,64,60.0
1228,E2,228.0,4.0,64,60.0
1229,E1,228.0,4.0,64,60.0
1230,G#3,228.0,4.0,64,60.0
1231,B3,228.0,4.0,64,60.0
1232,E4,228.0,4.0,64,60.0
1233,F#5,231.0,1.0,64,60.0
1234,B2,232.0,1.0,64,60.0
1235,B1,232.0,1.0,64,60.0
1236,E-5,232.5,0.75,64,60.0
1237,B3,232.5,0.75,64,60.0
1238,E-4,232.5,0.75,64,60.0
1239,F#3,233.0,0.75,64,60.0
1240,C#5,233.25,0.75,64,60.0
1241,C#4,233.25,0.75,64,60.0
1242,B2,233.75,0.25,64,60.0
1243,E5,234.0,0.75,64,60.0
1244,B2,234.0,1.0,64,60.0
1245,B3,234.0,0.75,64,60.0
1246,E4,234.0,0.75,64,60.0
1247,E-5,234.75,1.25,64,60.0
1248,B3,234.75,0.5,64,60.0
1249,E-4,234.75,0.5,64,60.0
1250,B1,235.0,1.0,64,60.0
1251,B2,235.0,1.0,64,60.0
1252,B3,235.25,0.25,64,60.0
1253,C#4,235.5,0.25,64,60.0
1254,E-4,235.75,0.25,64,60.0
1255,G#2,236.0,1.0,64,60.0
1256,G#1,236.0,1.0,64,60.0
1257,E-5,236.5,0.75,64,60.0
1258,B3,236.5,0.75,64,60.0
1259,E-4,236.5,0.75,64,60.0
1260,G#2,237.0,0.75,64,60.0
1261,C#5,237.25,0.75,64,60.0
1262,C#4,237.25,0.75,64,60.0
1263,G#1,237.75,0.25,64,60.0
1264,E5,238.0,0.75,64,60.0
1265,G#1,238.0,1.0,64,60.0
1266,B3,238.0,0.75,64,60.0
1267,E4,238.0,0.75,64,60.0
1268,E-5,238.75,0.75,64,60.0
1269,E-4,238.75,0.5,64,60.0
1270,G#2,239.0,1.0,64,60.0
1271,G#1,239.0,1.0,64,60.0
1272,B3,239.25,0.25,64,60.0
1273,B4,239.5,0.5,64,60.0
1274,C#4,239.5,0.25,64,60.0
1275,E-4,239.75,0.25,64,60.0
1276,F#1,240.0,1.0,64,60.0
1277,F#2,240.0,1.0,64,60.0
1278,E-5,240.5,0.75,64,60.0
1279,E-4,240.5,0.75,64,60.0
1280,B3,240.5,0.75,64,60.0
1281,F#2,241.0,0.75,64,60.0
1282,C#5,241.25,0.75,64,60.0
1283,C#4,241.25,0.75,64,60.0
1284,F#1,241.75,0.25,64,60.0
1285,E5,242.0,0.75,64,60.0
1286,F#1,242.0,1.0,64,60.0
1287,B3,242.0,0.75,64,60.0
1288,E4,242.0,0.75,64,60.0
1289,E-5,242.75,0.75,64,60.0
1290,E-4,242.75,0.5,64,60.0
1291,B3,242.75,0.5,64,60.0
1292,F#2,243.0,1.0,64,60.0
1293,F#1,243.0,1.0,64,60.0
1294,B3,243.25,0.25,64,60.0
1295,B4,243.5,0.5,64,60.0
1296,F#3,243.5,0.5,64,60.0
1297,G#5,244.0,3.0,64,60.0
1298,E2,244.0,4.0,64,60.0
1299,E1,244.0,4.0,64,60.0
1300,G#3,244.0,4.0,64,60.0
1301,B3,244.0,4.0,64,60.0
1302,E4,244.0,4.0,64,60.0
1303,F#5,247.0,1.0,64,60.0
1304,B2,248.0,1.0,64,60.0
1305,B1,248.0,1.0,64,60.0
1306,E-5,248.5,0.75,64,60.0
1307,B3,248.5,0.75,64,60.0
1308,E-4,248.5,0.75,64,60.0
1309,F#3,249.0,0.75,64,60.0
1310,C#5,249.25,0.75,64,60.0
1311,C#4,249.25,0.75,64,60.0
1312,B2,249.75,0.25,64,60.0
1313,E5,250.0,0.75,64,60.0
1314,B2,250.0,1.0,64,60.0
1315,B3,250.0,0.75,64,60.0
1316,E4,250.0,0.75,64,60.0
1317,E-5,250.75,1.25,64,60.0
1318,B3,250.75,0.5,64,60.0
1319,E-4,250.75,0.5,64,60.0
1320,B1,251.0,1.0,64,60.0
1321,B2,251.0,1.0,64,60.0
1322,B3,251.25,0.25,64,60.0
1323,C#4,251.5,0.25,64,60.0
1324,E-4,251.75,0.25,64,60.0
1325,G#2,252.0,1.0,64,60.0
1326,G#1,252.0,1.0,64,60.0
1327,E-5,252.5,0.75,64,60.0
1328,B3,252.5,0.75,64,60.0
1329,E-4,252.5,0.75,64,60.0
1330,G#2,253.0,0.75,64,60.0
1331,C#5,253.25,0.75,64,60.0
1332,C#4,253.25,0.75,64,60.0
1333,G#1,253.75,0.25,64,60.0
1334,E5,254.0,0.75,64,60.0
1335,G#1,254.0,1.0,64,60.0
1336,B3,254.0,0.75,64,60.0
1337,E4,254.0,0.75,64,60.0
1338,E-5,254.75,0.75,64,60.0
1339,E-4,254.75,0.5,64,60.0
1340,G#2,255.0,1.0,64,60.0
1341,G#1,255.0,1.0,64,60.0
1342,B3,255.25,0.25,64,60.0
1343,B4,255.5,0.5,64,60.0
1344,C#4,255.5,0.25,64,60.0
1345,E-4,255.75,0.25,64,60.0
1346,F#1,256.0,1.0,64,60.0
1347,F#2,256.0,1.0,64,60.0
1348,E-5,256.5,0.75,64,60.0
1349,E-4,256.5,0.75,64,60.0
1350,B3,256.5,0.75,64,60.0
1351,F#2,257.0,0.75,64,60.0
1352,C#5,257.25,0.75,64,60.0
1353,C#4,257.25,0.75,64,60.0
1354,F#1,257.75,0.25,64,60.0
1355,E5,258.0,0.75,64,60.0
1356,F#1,258.0,1.0,64,60.0
1357,B3,258.0,0.75,64,60.0
1358,E4,258.0,0.75,64,60.0
1359,E-5,258.75,0.75,64,60.0
1360,E-4,258.75,0.5,64,60.0
1361,B3,258.75,0.5,64,60.0
1362,F#2,259.0,1.0,64,60.0
1363,F#1,259.0,1.0,64,60.0
1364,B3,259.25,0.25,64,60.0
1365,B4,259.5,0.5,64,60.0
1366,F#3,259.5,0.5,64,60.0
1367,E2,260.0,4.0,64,60.0
1368,E1,260.0,4.0,64,60.0
1369,G#3,260.0,4.0,64,60.0
1370,B3,260.0,4.0,64,60.0
1371,E4,260.0,4.0,64,60.0
