,note_name,start_time,duration,velocity,tempo
0,B2,0.0,1.0,118,63.0
1,B1,0.0,1.0,115,63.0
2,B1,0.0,1.0,110,63.0
3,E-4,0.5,0.75,118,63.0
4,B3,0.5,0.75,118,63.0
5,F#3,1.0,0.75,118,63.0
6,C#4,1.25,0.75,118,63.0
7,B2,1.75,0.25,118,63.0
8,B2,2.0,1.0,118,63.0
9,E4,2.0,0.75,118,63.0
10,B3,2.0,0.75,118,63.0
11,E-4,2.75,0.5,118,63.0
12,B3,2.75,0.5,118,63.0
13,B2,3.0,1.0,118,63.0
14,B1,3.0,1.0,115,63.0
15,B1,3.0,1.0,110,63.0
16,F#3,3.25,0.25,118,63.0
17,C#4,3.5,0.25,118,63.0
18,E-4,3.75,0.25,118,63.0
19,G#2,4.0,1.0,118,63.0
20,G#1,4.0,1.0,115,63.0
21,G#1,4.0,1.0,110,63.0
22,E-4,4.5,0.75,118,63.0
23,B3,4.5,0.75,118,63.0
24,G#2,5.0,0.75,118,63.0
25,C#4,5.25,0.75,118,63.0
26,G#1,5.75,0.25,118,63.0
27,G#1,6.0,1.0,118,63.0
28,E4,6.0,0.75,118,63.0
29,B3,6.0,0.75,118,63.0
30,E-4,6.75,0.5,118,63.0
31,B3,6.75,0.5,118,63.0
32,G#2,7.0,1.0,118,63.0
33,B3,7.25,0.25,118,63.0
34,C#4,7.5,0.25,118,63.0
35,E-4,7.75,0.25,118,63.0
36,F#2,8.0,1.0,118,63.0
37,F#1,8.0,1.0,115,63.0
38,F#1,8.0,1.0,110,63.0
39,E-4,8.5,0.75,118,63.0
40,B3,8.5,0.75,118,63.0
41,F#2,9.0,0.75,118,63.0
42,C#4,9.25,0.75,118,63.0
43,F#1,9.75,0.25,118,63.0
44,F#1,10.0,1.0,118,63.0
45,E4,10.0,0.75,118,63.0
46,B3,10.0,0.75,118,63.0
47,E-4,10.75,0.5,118,63.0
48,F#2,11.0,1.0,118,63.0
49,B3,11.25,0.75,118,63.0
50,E2,12.0,1.0,118,63.0
51,E1,12.0,1.0,115,63.0
52,E1,12.0,1.0,110,63.0
53,G#3,12.0,0.75,118,63.0
54,E3,12.0,0.75,118,63.0
55,E4,12.75,0.5,118,63.0
56,G#3,12.75,0.5,118,63.0
57,E2,13.0,0.5,118,63.0
58,E1,13.0,0.5,115,63.0
59,E1,13.0,0.5,110,63.0
60,B-3,13.25,0.25,118,63.0
61,E2,13.5,2.5,118,63.0
62,E1,13.5,2.5,115,63.0
63,E1,13.5,2.5,110,63.0
64,E4,13.5,2.5,118,63.0
65,B3,13.5,2.5,118,63.0
66,B-2,14.0,21/1000,103,63.0
67,E-3,14.0,21/1000,103,63.0
68,B-2,14.25,21/1000,98,63.0
69,B-2,14.5,21/1000,103,63.0
70,E-3,14.5,21/1000,103,63.0
71,B-2,14.75,21/1000,108,63.0
72,B4,15.0,0.5,115,63.0
73,E-3,15.0,21/1000,98,63.0
74,E-5,15.5,0.5,115,63.0
75,E-3,15.5,21/1000,116,63.0
76,E-5,16.0,1.0,115,63.0
77,B2,16.0,1.0,118,63.0
78,B1,16.0,1.0,115,63.0
79,B1,16.0,1.0,110,63.0
80,G#2,16.0,21/1000,116,63.0
81,E-4,16.5,0.75,118,63.0
82,B3,16.5,0.75,118,63.0
83,F#3,17.0,0.75,118,63.0
84,C#4,17.25,0.75,118,63.0
85,B2,17.75,0.25,118,63.0
86,B2,18.0,1.0,118,63.0
87,E4,18.0,0.75,118,63.0
88,B3,18.0,0.75,118,63.0
89,B4,18.5,0.5,115,63.0
90,E-4,18.75,1.25,118,63.0
91,B3,18.75,1.25,118,63.0
92,B4,19.0,0.5,115,63.0
93,B2,19.0,1.0,118,63.0
94,B1,19.0,1.0,115,63.0
95,B1,19.0,1.0,110,63.0
96,E-5,19.5,0.5,115,63.0
97,E5,20.0,0.75,115,63.0
98,G#2,20.0,1.0,118,63.0
99,G#1,20.0,1.0,115,63.0
100,G#1,20.0,1.0,110,63.0
101,E-4,20.5,0.75,118,63.0
102,B3,20.5,0.75,118,63.0
103,E-5,20.75,0.75,115,63.0
104,G#2,21.0,0.75,118,63.0
105,C#4,21.25,0.75,118,63.0
106,B4,21.5,1.5,115,63.0
107,G#1,21.75,0.25,118,63.0
108,G#1,22.0,1.0,118,63.0
109,E4,22.0,0.75,118,63.0
110,B3,22.0,0.75,118,63.0
111,E-4,22.75,0.5,118,63.0
112,G#2,23.0,1.0,118,63.0
113,B3,23.25,0.25,118,63.0
114,G#3,23.5,0.5,118,63.0
115,E5,24.0,0.5,115,63.0
116,E2,24.0,1.0,118,63.0
117,E1,24.0,1.0,115,63.0
118,E1,24.0,1.0,110,63.0
119,G#3,24.0,0.75,118,63.0
120,E3,24.0,0.75,118,63.0
121,E5,24.5,0.25,115,63.0
122,E5,24.75,0.5,115,63.0
123,E4,24.75,0.75,118,63.0
124,G#3,24.75,0.75,118,63.0
125,E2,25.0,0.5,118,63.0
126,E1,25.0,0.5,115,63.0
127,E1,25.0,0.5,110,63.0
128,G#5,25.25,0.25,115,63.0
129,G#5,25.5,1.0,115,63.0
130,E2,25.5,2.5,118,63.0
131,E1,25.5,2.5,115,63.0
132,E1,25.5,2.5,110,63.0
133,E4,25.5,2.5,118,63.0
134,B3,25.5,2.5,118,63.0
135,B4,26.5,0.5,115,63.0
136,B4,27.0,0.5,115,63.0
137,B4,27.5,0.5,115,63.0
138,E-5,28.0,2.0,115,63.0
139,B2,28.0,1.0,118,63.0
140,B1,28.0,1.0,115,63.0
141,B1,28.0,1.0,110,63.0
142,E-4,28.5,0.75,118,63.0
143,B3,28.5,0.75,118,63.0
144,F#3,29.0,0.75,118,63.0
145,C#4,29.25,0.75,118,63.0
146,B2,29.75,0.25,118,63.0
147,B2,30.0,1.0,118,63.0
148,E4,30.0,0.75,118,63.0
149,B3,30.0,0.75,118,63.0
150,E-4,30.75,0.5,118,63.0
151,B2,31.0,1.0,118,63.0
152,B1,31.0,1.0,115,63.0
153,B1,31.0,1.0,110,63.0
154,B3,31.25,0.25,118,63.0
155,F#4,31.5,0.25,118,63.0
156,C#4,31.5,0.25,118,63.0
157,F#4,31.75,0.25,118,63.0
158,E-4,31.75,0.25,118,63.0
159,B2,32.0,1.0,118,63.0
160,B1,32.0,1.0,115,63.0
161,B1,32.0,1.0,110,63.0
162,E-4,32.5,0.75,118,63.0
163,B3,32.5,0.75,118,63.0
164,F#3,33.0,0.75,118,63.0
165,C#4,33.25,0.75,118,63.0
166,B2,33.75,0.25,118,63.0
167,B2,34.0,1.0,118,63.0
168,E4,34.0,0.75,118,63.0
169,B3,34.0,0.75,118,63.0
170,E-4,34.75,0.5,118,63.0
171,B4,35.0,0.5,115,63.0
172,B2,35.0,1.0,118,63.0
173,B1,35.0,1.0,115,63.0
174,B1,35.0,1.0,110,63.0
175,B3,35.25,0.25,118,63.0
176,E-5,35.5,0.5,115,63.0
177,F#3,35.5,0.5,118,63.0
178,E-5,36.0,2.0,115,63.0
179,B2,36.0,1.0,118,63.0
180,B1,36.0,1.0,115,63.0
181,B1,36.0,1.0,110,63.0
182,E-4,36.5,0.75,118,63.0
183,B3,36.5,0.75,118,63.0
184,F#3,37.0,0.75,118,63.0
185,C#4,37.25,0.75,118,63.0
186,B2,37.75,0.25,118,63.0
187,B2,38.0,1.0,118,63.0
188,E4,38.0,0.75,118,63.0
189,B3,38.0,0.75,118,63.0
190,E-4,38.75,0.5,118,63.0
191,B4,39.0,0.5,115,63.0
192,B2,39.0,1.0,118,63.0
193,B1,39.0,1.0,115,63.0
194,B1,39.0,1.0,110,63.0
195,B3,39.25,0.25,118,63.0
196,E-5,39.5,0.5,115,63.0
197,C#4,39.5,0.25,118,63.0
198,E-4,39.75,0.25,118,63.0
199,E5,40.0,0.75,115,63.0
200,G#2,40.0,1.0,118,63.0
201,G#1,40.0,1.0,115,63.0
202,G#1,40.0,1.0,110,63.0
203,E-4,40.5,0.75,118,63.0
204,B3,40.5,0.75,118,63.0
205,E-5,40.75,0.75,115,63.0
206,G#2,41.0,0.75,118,63.0
207,C#4,41.25,0.75,118,63.0
208,B4,41.5,1.5,115,63.0
209,G#1,41.75,0.25,118,63.0
210,G#1,42.0,1.0,118,63.0
211,E4,42.0,0.75,118,63.0
212,B3,42.0,0.75,118,63.0
213,E-4,42.75,0.5,118,63.0
214,G#2,43.0,1.0,118,63.0
215,B3,43.25,0.25,118,63.0
216,F#3,43.5,0.5,118,63.0
217,E5,44.0,0.5,115,63.0
218,E2,44.0,1.0,118,63.0
219,E1,44.0,1.0,115,63.0
220,E1,44.0,1.0,110,63.0
221,G#3,44.0,0.75,118,63.0
222,E3,44.0,0.75,118,63.0
223,E5,44.5,0.25,115,63.0
224,E5,44.75,0.5,115,63.0
225,E4,44.75,0.75,118,63.0
226,G#3,44.75,0.75,118,63.0
227,E2,45.0,0.5,118,63.0
228,E1,45.0,0.5,115,63.0
229,E1,45.0,0.5,110,63.0
230,G#5,45.25,0.5,115,63.0
231,E2,45.5,2.5,118,63.0
232,E1,45.5,2.5,115,63.0
233,E1,45.5,2.5,110,63.0
234,E4,45.5,1.5,118,63.0
235,B3,45.5,1.5,118,63.0
236,G#5,45.75,0.75,115,63.0
237,E-5,46.5,0.5,115,63.0
238,E-5,47.0,0.5,115,63.0
239,E-4,47.0,0.5,118,63.0
240,E5,47.5,0.5,115,63.0
241,E4,47.5,0.5,118,63.0
242,E-5,48.0,1.5,115,63.0
243,F#2,48.0,1.0,118,63.0
244,F#1,48.0,1.0,115,63.0
245,F#1,48.0,1.0,110,63.0
246,F#4,48.0,0.75,118,63.0
247,E-4,48.0,0.75,118,63.0
248,B3,48.0,0.75,118,63.0
249,F#4,48.75,0.75,118,63.0
250,E-4,48.75,0.75,118,63.0
251,B3,48.75,0.75,118,63.0
252,F#2,49.0,0.5,118,63.0
253,F#1,49.0,0.5,115,63.0
254,F#1,49.0,0.5,110,63.0
255,C#5,49.5,1.5,115,63.0
256,F#2,49.5,1.5,118,63.0
257,F#1,49.5,1.5,115,63.0
258,F#1,49.5,1.5,110,63.0
259,F#4,49.5,1.5,118,63.0
260,C#4,49.5,1.5,118,63.0
261,B-3,49.5,1.5,118,63.0
262,B-2,50.0,21/1000,108,63.0
263,B-2,50.25,21/1000,98,63.0
264,B-2,50.5,21/1000,108,63.0
265,B-2,50.75,21/1000,108,63.0
266,B-3,51.0,0.25,118,63.0
267,F#3,51.0,1.0,118,63.0
268,F#2,51.0,1.0,118,63.0
269,B3,51.25,0.25,118,63.0
270,C#4,51.5,0.25,118,63.0
271,B4,51.75,0.25,115,63.0
272,B3,51.75,0.25,118,63.0
273,G#5,52.0,0.5,115,63.0
274,G#4,52.0,0.5,118,63.0
275,E3,52.0,2.0,118,63.0
276,E2,52.0,2.0,115,63.0
277,E2,52.0,2.0,110,63.0
278,E4,52.0,1979/1000,105,63.0
279,E4,52.0,1.0,118,63.0
280,B3,52.0,1.0,118,63.0
281,G#5,52.5,0.25,115,63.0
282,G#4,52.5,0.25,118,63.0
283,G#5,52.75,0.25,115,63.0
284,G#4,52.75,0.25,118,63.0
285,G#5,53.0,0.25,115,63.0
286,G#4,53.0,0.5,118,63.0
287,E4,53.0,1.0,118,63.0
288,B3,53.0,1.0,118,63.0
289,G#5,53.25,0.25,115,63.0
290,G#5,53.5,0.25,115,63.0
291,G#4,53.5,0.25,118,63.0
292,G#5,53.75,0.5,115,63.0
293,G#4,53.75,0.5,118,63.0
294,G#3,54.0,1.0,118,63.0
295,G#2,54.0,1.0,115,63.0
296,G#2,54.0,1.0,110,63.0
297,G#4,54.0,1979/1000,105,63.0
298,E-4,54.0,1.0,118,63.0
299,B3,54.0,1.0,118,63.0
300,G#5,54.25,0.5,115,63.0
301,G#4,54.25,0.5,118,63.0
302,G#5,54.75,0.25,115,63.0
303,G#4,54.75,0.25,118,63.0
304,G#5,55.0,0.5,115,63.0
305,G#4,55.0,0.5,118,63.0
306,G#2,55.0,0.75,118,63.0
307,G#1,55.0,0.75,115,63.0
308,G#1,55.0,0.75,110,63.0
309,E-4,55.0,1.0,118,63.0
310,B3,55.0,1.0,118,63.0
311,F#5,55.5,0.25,115,63.0
312,F#4,55.5,0.25,118,63.0
313,F#5,55.75,0.25,115,63.0
314,F#4,55.75,0.25,118,63.0
315,B2,55.75,0.25,118,63.0
316,B1,55.75,0.25,115,63.0
317,B1,55.75,0.25,110,63.0
318,F#5,56.0,0.25,115,63.0
319,F#4,56.0,0.25,118,63.0
320,B2,56.0,1.0,118,63.0
321,B1,56.0,1.0,115,63.0
322,B1,56.0,1.0,110,63.0
323,F#4,56.0,1979/1000,105,63.0
324,E-4,56.0,1.0,118,63.0
325,B3,56.0,1.0,118,63.0
326,F#5,56.25,0.75,115,63.0
327,F#4,56.25,0.75,118,63.0
328,B2,57.0,1.0,118,63.0
329,B1,57.0,1.0,115,63.0
330,B1,57.0,1.0,110,63.0
331,B3,57.0,0.25,118,63.0
332,F#3,57.0,0.25,118,63.0
333,C#4,57.25,0.5,118,63.0
334,F#3,57.25,0.5,118,63.0
335,E4,57.75,0.5,118,63.0
336,F#3,57.75,0.5,118,63.0
337,B2,58.0,1.0,118,63.0
338,B1,58.0,1.0,115,63.0
339,B1,58.0,1.0,110,63.0
340,B3,58.0,1979/1000,105,63.0
341,E-4,58.25,0.5,118,63.0
342,F#3,58.25,0.5,118,63.0
343,C#4,58.75,0.25,118,63.0
344,F#3,58.75,0.25,118,63.0
345,B2,59.0,1.0,118,63.0
346,B1,59.0,1.0,115,63.0
347,B1,59.0,1.0,110,63.0
348,E-4,59.0,0.5,118,63.0
349,F#3,59.0,0.5,118,63.0
350,B3,59.5,0.5,118,63.0
351,F#3,59.5,0.5,118,63.0
352,G#3,60.0,0.5,118,63.0
353,E-3,60.0,1.0,118,63.0
354,E2,60.0,1.0,115,63.0
355,E2,60.0,1.0,110,63.0
356,E4,60.0,1979/1000,105,63.0
357,G#5,60.5,0.5,115,63.0
358,G#4,60.5,0.5,118,63.0
359,G#5,61.0,0.5,115,63.0
360,G#4,61.0,0.5,118,63.0
361,E2,61.0,1.0,115,63.0
362,E2,61.0,1.0,110,63.0
363,E4,61.0,1.0,118,63.0
364,B3,61.0,1.0,118,63.0
365,G#5,61.5,0.25,115,63.0
366,G#4,61.5,0.25,118,63.0
367,G#5,61.75,0.5,115,63.0
368,G#4,61.75,0.5,118,63.0
369,G#3,62.0,1.0,118,63.0
370,G#2,62.0,1.0,115,63.0
371,G#2,62.0,1.0,110,63.0
372,G#4,62.0,1979/1000,105,63.0
373,E-4,62.0,1.0,118,63.0
374,B3,62.0,1.0,118,63.0
375,G#5,62.25,0.25,115,63.0
376,G#4,62.25,0.25,118,63.0
377,G#5,62.5,0.5,115,63.0
378,G#4,62.5,0.5,118,63.0
379,G#5,63.0,0.5,115,63.0
380,G#4,63.0,0.5,118,63.0
381,G#2,63.0,0.75,118,63.0
382,G#1,63.0,0.75,115,63.0
383,G#1,63.0,0.75,110,63.0
384,E-4,63.0,1.0,118,63.0
385,B3,63.0,1.0,118,63.0
386,F#5,63.5,0.25,115,63.0
387,F#4,63.5,0.25,118,63.0
388,F#5,63.75,0.25,115,63.0
389,F#4,63.75,0.25,118,63.0
390,B2,63.75,0.25,118,63.0
391,B1,63.75,0.25,115,63.0
392,B1,63.75,0.25,110,63.0
393,F#5,64.0,1.0,115,63.0
394,F#4,64.0,0.75,118,63.0
395,B2,64.0,1.0,118,63.0
396,B1,64.0,1.0,115,63.0
397,B1,64.0,1.0,110,63.0
398,F#4,64.0,3979/1000,105,63.0
399,E-4,64.0,0.75,118,63.0
400,B3,64.0,0.75,118,63.0
401,C#4,64.75,0.5,118,63.0
402,B3,64.75,0.5,118,63.0
403,F#3,64.75,0.5,118,63.0
404,B2,65.0,1.0,118,63.0
405,B1,65.0,1.0,115,63.0
406,B1,65.0,1.0,110,63.0
407,E-4,65.25,0.75,118,63.0
408,B3,65.25,0.75,118,63.0
409,F#3,65.25,0.75,118,63.0
410,B2,66.0,1.0,118,63.0
411,B1,66.0,1.0,115,63.0
412,B1,66.0,1.0,110,63.0
413,E4,66.0,0.5,118,63.0
414,B3,66.0,0.5,118,63.0
415,G#3,66.0,0.5,118,63.0
416,E4,66.5,0.25,118,63.0
417,B3,66.5,0.25,118,63.0
418,G#3,66.5,0.25,118,63.0
419,B4,66.75,0.25,115,63.0
420,E4,66.75,0.5,118,63.0
421,B3,66.75,0.5,118,63.0
422,G#3,66.75,0.5,118,63.0
423,B2,67.0,1.0,118,63.0
424,B1,67.0,1.0,115,63.0
425,B1,67.0,1.0,110,63.0
426,E-4,67.25,0.5,118,63.0
427,B3,67.25,0.5,118,63.0
428,F#3,67.25,0.5,118,63.0
429,B3,67.75,0.25,118,63.0
430,G#5,68.0,0.5,115,63.0
431,G#4,68.0,0.5,118,63.0
432,E3,68.0,1.0,118,63.0
433,E2,68.0,1.0,115,63.0
434,E2,68.0,1.0,110,63.0
435,E4,68.0,1979/1000,105,63.0
436,E4,68.0,1.0,118,63.0
437,B3,68.0,1.0,118,63.0
438,G#5,68.5,0.25,115,63.0
439,G#4,68.5,0.25,118,63.0
440,G#5,68.75,0.25,115,63.0
441,G#4,68.75,0.25,118,63.0
442,G#5,69.0,0.5,115,63.0
443,G#4,69.0,0.5,118,63.0
444,E2,69.0,1.0,115,63.0
445,E2,69.0,1.0,110,63.0
446,E4,69.0,1.0,118,63.0
447,B3,69.0,1.0,118,63.0
448,G#5,69.5,0.25,115,63.0
449,G#4,69.5,0.25,118,63.0
450,G#5,69.75,0.5,115,63.0
451,G#4,69.75,0.5,118,63.0
452,G#3,70.0,1.0,118,63.0
453,G#2,70.0,1.0,115,63.0
454,G#2,70.0,1.0,110,63.0
455,G#4,70.0,1979/1000,105,63.0
456,E-4,70.0,1.0,118,63.0
457,B3,70.0,1.0,118,63.0
458,G#5,70.25,0.5,115,63.0
459,G#4,70.25,0.5,118,63.0
460,G#5,70.75,0.5,115,63.0
461,G#4,70.75,0.5,118,63.0
462,G#2,71.0,1.0,118,63.0
463,G#1,71.0,1.0,115,63.0
464,G#1,71.0,1.0,110,63.0
465,F#5,71.25,0.25,115,63.0
466,F#4,71.25,0.25,118,63.0
467,F#5,71.5,0.25,115,63.0
468,F#4,71.5,0.25,118,63.0
469,F#5,71.75,0.25,115,63.0
470,F#4,71.75,0.25,118,63.0
471,F#5,72.0,0.5,115,63.0
472,B2,72.0,1.0,118,63.0
473,B1,72.0,1.0,115,63.0
474,B1,72.0,1.0,110,63.0
475,F#4,72.0,3979/1000,105,63.0
476,F#4,72.0,0.5,118,63.0
477,E-4,72.0,0.5,118,63.0
478,B3,72.0,0.5,118,63.0
479,B4,72.5,0.25,115,63.0
480,B3,72.5,0.25,118,63.0
481,B4,72.75,1.25,115,63.0
482,B3,72.75,0.5,118,63.0
483,F#3,72.75,0.5,118,63.0
484,B2,73.0,0.75,118,63.0
485,C#4,73.25,0.5,118,63.0
486,F#3,73.25,0.5,118,63.0
487,B1,73.75,0.25,118,63.0
488,E4,73.75,0.5,118,63.0
489,F#3,73.75,0.5,118,63.0
490,B1,74.0,1.0,118,63.0
491,E-4,74.25,0.5,118,63.0
492,F#3,74.25,0.5,118,63.0
493,C#4,74.75,0.25,118,63.0
494,F#3,74.75,0.25,118,63.0
495,B2,75.0,1.0,118,63.0
496,B1,75.0,1.0,115,63.0
497,B1,75.0,1.0,110,63.0
498,E-4,75.0,0.5,118,63.0
499,F#3,75.0,0.5,118,63.0
500,E-5,75.5,0.5,115,63.0
501,E-4,75.5,0.5,118,63.0
502,B3,75.5,0.5,118,63.0
503,F#3,75.5,0.5,118,63.0
504,C#5,76.0,1.5,115,63.0
505,F#2,76.0,1.0,118,63.0
506,C#4,76.0,1979/1000,105,63.0
507,C#4,76.0,1.5,118,63.0
508,B-3,76.0,1.5,118,63.0
509,F#3,76.0,1.5,118,63.0
510,F#2,77.0,1.0,118,63.0
511,E-5,77.5,0.25,115,63.0
512,E-4,77.5,0.25,118,63.0
513,F#5,77.75,1.75,115,63.0
514,F#4,77.75,1.75,118,63.0
515,E-2,78.0,1.0,118,63.0
516,F#4,78.0,1979/1000,105,63.0
517,E-4,78.0,1.5,118,63.0
518,B-3,78.0,1.5,118,63.0
519,E-3,79.0,1.0,118,63.0
520,E-5,79.5,0.5,115,63.0
521,E-4,79.5,0.5,118,63.0
522,C#5,80.0,1.0,115,63.0
523,F#2,80.0,1.0,118,63.0
524,C#4,80.0,3979/1000,105,63.0
525,C#4,80.0,1.0,118,63.0
526,B-3,80.0,1.0,118,63.0
527,F#3,80.0,1.0,118,63.0
528,F#3,81.0,0.75,118,63.0
529,F#4,81.0,0.75,118,63.0
530,C#4,81.0,0.75,118,63.0
531,B-3,81.0,0.75,118,63.0
532,F#2,81.75,0.25,118,63.0
533,F#4,81.75,0.5,118,63.0
534,B-3,81.75,0.5,118,63.0
535,F#2,82.0,1.0,118,63.0
536,B3,82.25,0.25,118,63.0
537,F#4,82.5,1.0,118,63.0
538,C#4,82.5,1.0,118,63.0
539,C#5,83.0,0.5,115,63.0
540,F#2,83.0,1.0,118,63.0
541,E-5,83.5,0.5,115,63.0
542,E-4,83.5,0.5,118,63.0
543,E5,84.0,0.75,115,63.0
544,C#3,84.0,2.0,118,63.0
545,C#2,84.0,2.0,115,63.0
546,C#2,84.0,2.0,110,63.0
547,E4,84.0,2979/1000,105,63.0
548,E4,84.0,1.0,118,63.0
549,C#4,84.0,1.0,118,63.0
550,G#3,84.0,1.0,118,63.0
551,E-5,84.75,0.75,115,63.0
552,E4,85.0,1.0,118,63.0
553,C#4,85.0,1.0,118,63.0
554,G#3,85.0,1.0,118,63.0
555,C#5,85.5,1.0,115,63.0
556,C#2,86.0,1.25,118,63.0
557,E4,86.0,0.75,118,63.0
558,C#4,86.0,0.75,118,63.0
559,G#3,86.0,0.75,118,63.0
560,B4,86.5,1.5,115,63.0
561,E4,86.75,0.5,118,63.0
562,C#4,86.75,0.5,118,63.0
563,G#3,86.75,0.5,118,63.0
564,E-2,87.25,0.75,118,63.0
565,E-4,87.25,0.75,118,63.0
566,B3,87.25,0.75,118,63.0
567,F#3,87.25,0.75,118,63.0
568,E2,88.0,4.0,118,63.0
569,E1,88.0,4.0,115,63.0
570,E1,88.0,4.0,110,63.0
571,E3,88.0,4.0,105,63.0
572,E4,88.0,4.0,118,63.0
573,B3,88.0,4.0,118,63.0
574,G#3,88.0,4.0,118,63.0
575,B-2,88.0,21/1000,112,63.0
576,C#3,88.0,21/1000,112,63.0
577,B-2,88.25,21/1000,98,63.0
578,B-2,88.5,21/1000,98,63.0
579,B-2,88.75,21/1000,98,63.0
580,B-2,89.0,21/1000,98,63.0
581,B-2,89.25,21/1000,98,63.0
582,B-2,89.5,21/1000,98,63.0
583,B-2,89.75,21/1000,98,63.0
584,G#4,91.0,0.5,115,63.0
585,B4,91.5,0.25,115,63.0
586,B4,91.75,0.25,115,63.0
587,B4,92.0,0.5,115,63.0
588,B2,92.0,1.0,118,63.0
589,B1,92.0,1.0,115,63.0
590,B1,92.0,1.0,110,63.0
591,B4,92.0,3979/1000,105,63.0
592,E3,92.0,979/1000,105,63.0
593,C2,92.0,21/1000,122,63.0
594,D2,92.0,21/1000,122,63.0
595,C3,92.0,21/1000,122,63.0
596,B5,92.5,0.812,90,63.0
597,B5,92.5,0.812,85,63.0
598,E-4,92.5,0.75,118,63.0
599,B3,92.5,0.75,118,63.0
600,F#3,93.0,0.75,118,63.0
601,D2,93.0,21/1000,116,63.0
602,A2,93.0,21/1000,116,63.0
603,C#4,93.25,0.75,118,63.0
604,F#5,93.25,0.812,90,63.0
605,F#5,93.25,0.812,85,63.0
606,D2,93.5,21/1000,116,63.0
607,B2,93.75,0.25,118,63.0
608,D2,93.875,21/1000,108,63.0
609,B2,94.0,1.0,118,63.0
610,E5,94.0,1.062,90,63.0
611,E5,94.0,1.062,85,63.0
612,E4,94.0,0.75,118,63.0
613,B3,94.0,0.75,118,63.0
614,D2,94.0,21/1000,116,63.0
615,C2,94.0,21/1000,116,63.0
616,C3,94.0,21/1000,116,63.0
617,D2,94.125,21/1000,108,63.0
618,C2,94.25,21/1000,116,63.0
619,A2,94.375,21/1000,108,63.0
620,A2,94.5,21/1000,116,63.0
621,E-4,94.75,0.5,118,63.0
622,B3,94.75,0.5,118,63.0
623,D2,94.875,21/1000,108,63.0
624,F2,94.875,21/1000,108,63.0
625,B2,95.0,1.0,118,63.0
626,B1,95.0,1.0,115,63.0
627,B1,95.0,1.0,110,63.0
628,E-5,95.0,0.312,90,63.0
629,E-5,95.0,0.312,85,63.0
630,D2,95.0,21/1000,116,63.0
631,F2,95.0,21/1000,116,63.0
632,D2,95.125,21/1000,108,63.0
633,B3,95.25,0.25,118,63.0
634,E5,95.25,0.312,90,63.0
635,E5,95.25,0.312,85,63.0
636,D2,95.25,21/1000,116,63.0
637,C#4,95.5,0.25,118,63.0
638,F#5,95.5,0.5,90,63.0
639,F#5,95.5,0.5,85,63.0
640,E-4,95.75,0.25,118,63.0
641,G#2,96.0,1.0,118,63.0
642,G#1,96.0,1.0,115,63.0
643,G#1,96.0,1.0,110,63.0
644,G#3,96.0,3979/1000,105,63.0
645,F#5,96.0,167/1000,90,63.0
646,F#5,96.0,167/1000,85,63.0
647,C2,96.0,21/1000,120,63.0
648,D2,96.0,21/1000,120,63.0
649,C3,96.0,21/1000,120,63.0
650,C#3,96.0,21/1000,120,63.0
651,B5,96.5,0.812,90,63.0
652,B5,96.5,0.812,85,63.0
653,E-4,96.5,0.75,118,63.0
654,B3,96.5,0.75,118,63.0
655,G#2,97.0,0.75,118,63.0
656,D2,97.0,21/1000,116,63.0
657,A2,97.0,21/1000,116,63.0
658,C#4,97.25,0.75,118,63.0
659,F#5,97.25,0.812,90,63.0
660,F#5,97.25,0.812,85,63.0
661,D2,97.5,21/1000,116,63.0
662,G#1,97.75,0.25,118,63.0
663,D2,97.875,21/1000,108,63.0
664,G#1,98.0,1.0,118,63.0
665,E5,98.0,1.062,90,63.0
666,E5,98.0,1.062,85,63.0
667,E4,98.0,0.75,118,63.0
668,B3,98.0,0.75,118,63.0
669,D2,98.0,21/1000,116,63.0
670,C2,98.0,21/1000,116,63.0
671,C3,98.0,21/1000,116,63.0
672,C2,98.25,21/1000,116,63.0
673,A2,98.375,21/1000,108,63.0
674,A2,98.5,21/1000,116,63.0
675,E-4,98.75,0.5,118,63.0
676,B3,98.75,0.5,118,63.0
677,D2,98.875,21/1000,108,63.0
678,F2,98.875,21/1000,108,63.0
679,G#2,99.0,1.0,118,63.0
680,G#1,99.0,1.0,115,63.0
681,G#1,99.0,1.0,110,63.0
682,E-5,99.0,0.312,90,63.0
683,E-5,99.0,0.312,85,63.0
684,D2,99.0,21/1000,116,63.0
685,F2,99.0,21/1000,116,63.0
686,D2,99.125,21/1000,108,63.0
687,B3,99.25,0.25,118,63.0
688,E5,99.25,0.312,90,63.0
689,E5,99.25,0.312,85,63.0
690,D2,99.25,21/1000,116,63.0
691,C#4,99.5,0.25,118,63.0
692,F#5,99.5,0.5,90,63.0
693,F#5,99.5,0.5,85,63.0
694,E-4,99.75,0.25,118,63.0
695,F#2,100.0,1.0,118,63.0
696,F#1,100.0,1.0,115,63.0
697,F#1,100.0,1.0,110,63.0
698,F#3,100.0,3979/1000,105,63.0
699,F#5,100.0,0.062,90,63.0
700,F#5,100.0,0.062,85,63.0
701,C2,100.0,21/1000,120,63.0
702,D2,100.0,21/1000,120,63.0
703,C3,100.0,21/1000,120,63.0
704,C#3,100.0,21/1000,120,63.0
705,B5,100.5,0.812,90,63.0
706,B5,100.5,0.812,85,63.0
707,E-4,100.5,0.75,118,63.0
708,B3,100.5,0.75,118,63.0
709,F#2,101.0,0.75,118,63.0
710,D2,101.0,21/1000,116,63.0
711,A2,101.0,21/1000,116,63.0
712,C#4,101.25,0.75,118,63.0
713,F#5,101.25,0.812,90,63.0
714,F#5,101.25,0.812,85,63.0
715,D2,101.5,21/1000,116,63.0
716,F#1,101.75,0.25,118,63.0
717,D2,101.875,21/1000,108,63.0
718,F#1,102.0,1.0,118,63.0
719,E5,102.0,1.062,90,63.0
720,E5,102.0,1.062,85,63.0
721,E4,102.0,0.75,118,63.0
722,B3,102.0,0.75,118,63.0
723,D2,102.0,21/1000,116,63.0
724,C2,102.0,21/1000,116,63.0
725,C3,102.0,21/1000,116,63.0
726,C2,102.25,21/1000,116,63.0
727,A2,102.375,21/1000,108,63.0
728,A2,102.5,21/1000,116,63.0
729,E-4,102.75,0.5,118,63.0
730,D2,102.875,21/1000,108,63.0
731,F2,102.875,21/1000,108,63.0
732,F#2,103.0,1.0,118,63.0
733,F#1,103.0,1.0,115,63.0
734,F#1,103.0,1.0,110,63.0
735,E-5,103.0,0.312,90,63.0
736,E-5,103.0,0.312,85,63.0
737,D2,103.0,21/1000,116,63.0
738,F2,103.0,21/1000,116,63.0
739,D2,103.125,21/1000,108,63.0
740,B3,103.25,0.25,118,63.0
741,E5,103.25,0.312,90,63.0
742,E5,103.25,0.312,85,63.0
743,D2,103.25,21/1000,116,63.0
744,F#3,103.5,0.5,118,63.0
745,F#5,103.5,0.312,90,63.0
746,F#5,103.5,0.312,85,63.0
747,B5,103.75,0.25,90,63.0
748,B5,103.75,0.25,85,63.0
749,E2,104.0,4.0,118,63.0
750,E1,104.0,4.0,115,63.0
751,E1,104.0,4.0,110,63.0
752,E3,104.0,3979/1000,105,63.0
753,E5,104.0,3.062,90,63.0
754,B5,104.0,0.062,90,63.0
755,E5,104.0,3.062,85,63.0
756,B5,104.0,0.062,85,63.0
757,E4,104.0,4.0,118,63.0
758,B3,104.0,4.0,118,63.0
759,G#3,104.0,4.0,118,63.0
760,C#3,104.0,21/1000,112,63.0
761,C2,104.0,21/1000,112,63.0
762,B-2,104.0,21/1000,112,63.0
763,E-3,104.0,21/1000,112,63.0
764,G#2,104.25,21/1000,98,63.0
765,B-2,104.5,21/1000,98,63.0
766,G#2,104.75,21/1000,98,63.0
767,B-2,105.0,21/1000,98,63.0
768,G#2,105.25,21/1000,98,63.0
769,B-2,105.5,21/1000,98,63.0
770,G#2,105.75,21/1000,98,63.0
771,B-2,106.0,21/1000,98,63.0
772,G#5,107.0,0.5,115,63.0
773,D2,107.0,21/1000,108,63.0
774,D2,107.083,21/1000,122,63.0
775,F#5,107.5,0.5,115,63.0
776,D2,107.5,21/1000,116,63.0
777,E-5,108.0,1.0,115,63.0
778,B2,108.0,1.0,118,63.0
779,B1,108.0,1.0,115,63.0
780,B1,108.0,1.0,110,63.0
781,B3,108.0,3979/1000,105,63.0
782,C2,108.0,21/1000,116,63.0
783,E-3,108.0,21/1000,116,63.0
784,E-4,108.5,0.75,118,63.0
785,B3,108.5,0.75,118,63.0
786,F#3,109.0,0.75,118,63.0
787,D2,109.0,21/1000,116,63.0
788,C#4,109.25,0.75,118,63.0
789,B2,109.75,0.25,118,63.0
790,B2,110.0,1.0,118,63.0
791,E4,110.0,0.75,118,63.0
792,B3,110.0,0.75,118,63.0
793,C2,110.0,21/1000,112,63.0
794,C#2,110.0,21/1000,112,63.0
795,B4,110.5,0.5,115,63.0
796,E-4,110.75,1.25,118,63.0
797,B3,110.75,1.25,118,63.0
798,B4,111.0,0.5,115,63.0
799,B2,111.0,1.0,118,63.0
800,B1,111.0,1.0,115,63.0
801,B1,111.0,1.0,110,63.0
802,D2,111.0,21/1000,116,63.0
803,E-5,111.5,0.5,115,63.0
804,E5,112.0,0.75,115,63.0
805,G#2,112.0,1.0,118,63.0
806,G#1,112.0,1.0,115,63.0
807,G#1,112.0,1.0,110,63.0
808,G#3,112.0,3979/1000,105,63.0
809,C2,112.0,21/1000,116,63.0
810,E-4,112.5,0.75,118,63.0
811,B3,112.5,0.75,118,63.0
812,E-5,112.75,0.75,115,63.0
813,G#2,113.0,0.75,118,63.0
814,D2,113.0,21/1000,116,63.0
815,C#4,113.25,0.75,118,63.0
816,B4,113.5,1.5,115,63.0
817,G#1,113.75,0.25,118,63.0
818,G#1,114.0,1.0,118,63.0
819,C2,114.0,21/1000,116,63.0
820,E4,114.0,0.75,118,63.0
821,B3,114.0,0.75,118,63.0
822,E-4,114.75,0.5,118,63.0
823,G#2,115.0,1.0,118,63.0
824,D2,115.0,21/1000,116,63.0
825,B3,115.25,0.25,118,63.0
826,G#3,115.5,0.5,118,63.0
827,E5,116.0,0.5,115,63.0
828,E2,116.0,1.0,118,63.0
829,E1,116.0,1.0,115,63.0
830,E1,116.0,1.0,110,63.0
831,E3,116.0,3979/1000,105,63.0
832,C2,116.0,21/1000,116,63.0
833,G#3,116.0,0.75,118,63.0
834,E3,116.0,0.75,118,63.0
835,E5,116.5,0.25,115,63.0
836,E5,116.75,0.5,115,63.0
837,E4,116.75,0.75,118,63.0
838,G#3,116.75,0.75,118,63.0
839,E2,117.0,0.5,118,63.0
840,E1,117.0,0.5,115,63.0
841,E1,117.0,0.5,110,63.0
842,D2,117.0,21/1000,116,63.0
843,G#5,117.25,0.25,115,63.0
844,G#5,117.5,1.0,115,63.0
845,E2,117.5,2.5,118,63.0
846,E1,117.5,2.5,115,63.0
847,E1,117.5,2.5,110,63.0
848,E4,117.5,2.5,118,63.0
849,B3,117.5,2.5,118,63.0
850,G#2,118.0,21/1000,108,63.0
851,G#2,118.25,21/1000,108,63.0
852,B4,118.5,0.5,115,63.0
853,G#2,118.5,21/1000,108,63.0
854,G#2,118.75,21/1000,108,63.0
855,D2,118.917,21/1000,108,63.0
856,B4,119.0,0.5,115,63.0
857,D2,119.0,21/1000,113,63.0
858,B-2,119.0,21/1000,113,63.0
859,C3,119.0,21/1000,113,63.0
860,G#2,119.25,21/1000,108,63.0
861,D2,119.417,21/1000,108,63.0
862,B4,119.5,0.5,115,63.0
863,G#2,119.5,21/1000,115,63.0
864,D2,119.5,21/1000,115,63.0
865,A2,119.5,21/1000,115,63.0
866,E-5,120.0,2.0,115,63.0
867,B2,120.0,1.0,118,63.0
868,B1,120.0,1.0,115,63.0
869,B1,120.0,1.0,110,63.0
870,B3,120.0,3979/1000,105,63.0
871,C2,120.0,21/1000,118,63.0
872,F2,120.0,21/1000,118,63.0
873,C#3,120.0,21/1000,118,63.0
874,E-4,120.5,0.75,118,63.0
875,B3,120.5,0.75,118,63.0
876,F#3,121.0,0.75,118,63.0
877,D2,121.0,21/1000,116,63.0
878,C#4,121.25,0.75,118,63.0
879,B2,121.75,0.25,118,63.0
880,B2,122.0,1.0,118,63.0
881,C2,122.0,21/1000,116,63.0
882,E4,122.0,0.75,118,63.0
883,B3,122.0,0.75,118,63.0
884,E-4,122.75,0.5,118,63.0
885,B2,123.0,1.0,118,63.0
886,B1,123.0,1.0,115,63.0
887,B1,123.0,1.0,110,63.0
888,D2,123.0,21/1000,108,63.0
889,B3,123.25,0.25,118,63.0
890,D2,123.417,21/1000,108,63.0
891,D2,123.5,21/1000,122,63.0
892,F#4,123.5,0.25,118,63.0
893,C#4,123.5,0.25,118,63.0
894,F#4,123.75,0.25,118,63.0
895,E-4,123.75,0.25,118,63.0
896,B2,124.0,1.0,118,63.0
897,B1,124.0,1.0,115,63.0
898,B1,124.0,1.0,110,63.0
899,B3,124.0,3979/1000,105,63.0
900,C2,124.0,21/1000,116,63.0
901,E-4,124.5,0.75,118,63.0
902,B3,124.5,0.75,118,63.0
903,F#3,125.0,0.75,118,63.0
904,D2,125.0,21/1000,116,63.0
905,C#4,125.25,0.75,118,63.0
906,B2,125.75,0.25,118,63.0
907,B2,126.0,1.0,118,63.0
908,C2,126.0,21/1000,116,63.0
909,E4,126.0,0.75,118,63.0
910,B3,126.0,0.75,118,63.0
911,E-4,126.75,0.5,118,63.0
912,B4,127.0,0.5,115,63.0
913,B2,127.0,1.0,118,63.0
914,B1,127.0,1.0,115,63.0
915,B1,127.0,1.0,110,63.0
916,D2,127.0,21/1000,116,63.0
917,B3,127.25,0.25,118,63.0
918,E-5,127.5,0.5,115,63.0
919,F#3,127.5,0.5,118,63.0
920,E-5,128.0,2.0,115,63.0
921,B2,128.0,1.0,118,63.0
922,B1,128.0,1.0,115,63.0
923,B1,128.0,1.0,110,63.0
924,B3,128.0,3979/1000,105,63.0
925,C2,128.0,21/1000,122,63.0
926,E-4,128.5,0.75,118,63.0
927,B3,128.5,0.75,118,63.0
928,F#3,129.0,0.75,118,63.0
929,D2,129.0,21/1000,116,63.0
930,C#4,129.25,0.75,118,63.0
931,B2,129.75,0.25,118,63.0
932,B2,130.0,1.0,118,63.0
933,C2,130.0,21/1000,116,63.0
934,E4,130.0,0.75,118,63.0
935,B3,130.0,0.75,118,63.0
936,E-4,130.75,0.5,118,63.0
937,B4,131.0,0.5,115,63.0
938,B2,131.0,1.0,118,63.0
939,B1,131.0,1.0,115,63.0
940,B1,131.0,1.0,110,63.0
941,D2,131.0,21/1000,116,63.0
942,B3,131.25,0.25,118,63.0
943,E-5,131.5,0.5,115,63.0
944,C#4,131.5,0.25,118,63.0
945,E-4,131.75,0.25,118,63.0
946,E5,132.0,0.75,115,63.0
947,G#2,132.0,1.0,118,63.0
948,G#1,132.0,1.0,115,63.0
949,G#1,132.0,1.0,110,63.0
950,G#3,132.0,3979/1000,105,63.0
951,C2,132.0,21/1000,116,63.0
952,E-4,132.5,0.75,118,63.0
953,B3,132.5,0.75,118,63.0
954,E-5,132.75,0.75,115,63.0
955,G#2,133.0,0.75,118,63.0
956,D2,133.0,21/1000,116,63.0
957,C#4,133.25,0.75,118,63.0
958,B4,133.5,1.5,115,63.0
959,G#1,133.75,0.25,118,63.0
960,G#1,134.0,1.0,118,63.0
961,C2,134.0,21/1000,116,63.0
962,E4,134.0,0.75,118,63.0
963,B3,134.0,0.75,118,63.0
964,E-4,134.75,0.5,118,63.0
965,G#2,135.0,1.0,118,63.0
966,D2,135.0,21/1000,116,63.0
967,B3,135.25,0.25,118,63.0
968,F#3,135.5,0.5,118,63.0
969,E5,136.0,0.5,115,63.0
970,E2,136.0,1.0,118,63.0
971,E1,136.0,1.0,115,63.0
972,E1,136.0,1.0,110,63.0
973,E3,136.0,3979/1000,105,63.0
974,G#3,136.0,0.75,118,63.0
975,E3,136.0,0.75,118,63.0
976,C2,136.0,21/1000,116,63.0
977,G#2,136.0,21/1000,116,63.0
978,E5,136.5,0.25,115,63.0
979,E5,136.75,0.5,115,63.0
980,E4,136.75,0.75,118,63.0
981,G#3,136.75,0.75,118,63.0
982,E2,137.0,0.5,118,63.0
983,E1,137.0,0.5,115,63.0
984,E1,137.0,0.5,110,63.0
985,D2,137.0,21/1000,116,63.0
986,G#5,137.25,0.5,115,63.0
987,E2,137.5,2.5,118,63.0
988,E1,137.5,2.5,115,63.0
989,E1,137.5,2.5,110,63.0
990,E4,137.5,1.5,118,63.0
991,B3,137.5,1.5,118,63.0
992,G#5,137.75,0.75,115,63.0
993,C2,138.0,21/1000,112,63.0
994,E-3,138.0,21/1000,112,63.0
995,E-3,138.25,21/1000,108,63.0
996,E-5,138.5,0.5,115,63.0
997,E-3,138.5,21/1000,108,63.0
998,E-3,138.75,21/1000,108,63.0
999,E-5,139.0,0.5,115,63.0
1000,E-4,139.0,0.5,118,63.0
1001,D2,139.0,21/1000,112,63.0
1002,F#2,139.0,21/1000,112,63.0
1003,E-3,139.25,21/1000,108,63.0
1004,E5,139.5,0.5,115,63.0
1005,E4,139.5,0.5,118,63.0
1006,F2,139.5,21/1000,108,63.0
1007,E-3,139.5,21/1000,108,63.0
1008,F2,139.625,21/1000,122,63.0
1009,E-3,139.75,21/1000,108,63.0
1010,E-5,140.0,1.5,115,63.0
1011,F#2,140.0,1.0,118,63.0
1012,F#1,140.0,1.0,115,63.0
1013,F#1,140.0,1.0,110,63.0
1014,F#3,140.0,3979/1000,105,63.0
1015,F#4,140.0,0.75,118,63.0
1016,E-4,140.0,0.75,118,63.0
1017,B3,140.0,0.75,118,63.0
1018,C2,140.0,21/1000,116,63.0
1019,C#3,140.0,21/1000,116,63.0
1020,F#4,140.75,0.75,118,63.0
1021,E-4,140.75,0.75,118,63.0
1022,B3,140.75,0.75,118,63.0
1023,F#2,141.0,0.5,118,63.0
1024,F#1,141.0,0.5,115,63.0
1025,F#1,141.0,0.5,110,63.0
1026,D2,141.0,21/1000,113,63.0
1027,G#2,141.0,21/1000,113,63.0
1028,C3,141.0,21/1000,113,63.0
1029,C#5,141.5,1.5,115,63.0
1030,F#2,141.5,1.5,118,63.0
1031,F#1,141.5,1.5,115,63.0
1032,F#1,141.5,1.5,110,63.0
1033,F#4,141.5,1.5,118,63.0
1034,C#4,141.5,1.5,118,63.0
1035,B-3,141.5,1.5,118,63.0
1036,A2,141.875,21/1000,108,63.0
1037,C2,142.0,21/1000,118,63.0
1038,A2,142.0,21/1000,118,63.0
1039,B-2,142.0,21/1000,118,63.0
1040,C2,142.25,21/1000,116,63.0
1041,C3,142.5,21/1000,116,63.0
1042,B-3,143.0,0.25,118,63.0
1043,F#3,143.0,1.0,118,63.0
1044,F#2,143.0,1.0,118,63.0
1045,D2,143.0,21/1000,122,63.0
1046,F2,143.0,21/1000,122,63.0
1047,B3,143.25,0.25,118,63.0
1048,C#4,143.5,0.25,118,63.0
1049,D2,143.5,21/1000,98,63.0
1050,B4,143.75,0.25,115,63.0
1051,B3,143.75,0.25,118,63.0
1052,G#5,144.0,0.5,115,63.0
1053,G#4,144.0,0.5,118,63.0
1054,E3,144.0,2.0,118,63.0
1055,E2,144.0,2.0,115,63.0
1056,E2,144.0,2.0,110,63.0
1057,E4,144.0,1979/1000,105,63.0
1058,E4,144.0,1.0,118,63.0
1059,B3,144.0,1.0,118,63.0
1060,C2,144.0,21/1000,114,63.0
1061,F2,144.0,21/1000,114,63.0
1062,B-2,144.0,21/1000,114,63.0
1063,C#3,144.0,21/1000,114,63.0
1064,G#5,144.5,0.25,115,63.0
1065,G#4,144.5,0.25,118,63.0
1066,G#5,144.75,0.25,115,63.0
1067,G#4,144.75,0.25,118,63.0
1068,G#5,145.0,0.5,115,63.0
1069,G#4,145.0,0.5,118,63.0
1070,D2,145.0,21/1000,116,63.0
1071,E4,145.0,1.0,118,63.0
1072,B3,145.0,1.0,118,63.0
1073,G#5,145.5,0.25,115,63.0
1074,G#4,145.5,0.25,118,63.0
1075,G#5,145.75,0.5,115,63.0
1076,G#4,145.75,0.5,118,63.0
1077,G#3,146.0,1.0,118,63.0
1078,G#2,146.0,1.0,115,63.0
1079,G#2,146.0,1.0,110,63.0
1080,G#4,146.0,1979/1000,105,63.0
1081,C2,146.0,21/1000,116,63.0
1082,E-4,146.0,1.0,118,63.0
1083,B3,146.0,1.0,118,63.0
1084,G#5,146.25,0.5,115,63.0
1085,G#4,146.25,0.5,118,63.0
1086,C2,146.25,21/1000,122,63.0
1087,G#5,146.75,0.25,115,63.0
1088,G#4,146.75,0.25,118,63.0
1089,G#5,147.0,0.5,115,63.0
1090,G#4,147.0,0.5,118,63.0
1091,G#2,147.0,0.75,118,63.0
1092,G#1,147.0,0.75,115,63.0
1093,G#1,147.0,0.75,110,63.0
1094,D2,147.0,21/1000,116,63.0
1095,E-4,147.0,1.0,118,63.0
1096,B3,147.0,1.0,118,63.0
1097,F#5,147.5,0.25,115,63.0
1098,F#4,147.5,0.25,118,63.0
1099,F#5,147.75,0.25,115,63.0
1100,F#4,147.75,0.25,118,63.0
1101,B2,147.75,0.25,118,63.0
1102,B1,147.75,0.25,115,63.0
1103,B1,147.75,0.25,110,63.0
1104,F#5,148.0,0.25,115,63.0
1105,F#4,148.0,0.25,118,63.0
1106,B2,148.0,1.0,118,63.0
1107,B1,148.0,1.0,115,63.0
1108,B1,148.0,1.0,110,63.0
1109,F#4,148.0,1979/1000,105,63.0
1110,C2,148.0,21/1000,116,63.0
1111,E-4,148.0,1.0,118,63.0
1112,B3,148.0,1.0,118,63.0
1113,F#5,148.25,0.75,115,63.0
1114,F#4,148.25,0.75,118,63.0
1115,B2,149.0,1.0,118,63.0
1116,B1,149.0,1.0,115,63.0
1117,B1,149.0,1.0,110,63.0
1118,D2,149.0,21/1000,116,63.0
1119,B3,149.0,0.25,118,63.0
1120,F#3,149.0,0.25,118,63.0
1121,C#4,149.25,0.5,118,63.0
1122,F#3,149.25,0.5,118,63.0
1123,E4,149.75,0.5,118,63.0
1124,F#3,149.75,0.5,118,63.0
1125,B2,150.0,1.0,118,63.0
1126,B1,150.0,1.0,115,63.0
1127,B1,150.0,1.0,110,63.0
1128,B3,150.0,1979/1000,105,63.0
1129,C2,150.0,21/1000,116,63.0
1130,C2,150.25,21/1000,116,63.0
1131,E-4,150.25,0.5,118,63.0
1132,F#3,150.25,0.5,118,63.0
1133,C#4,150.75,0.25,118,63.0
1134,F#3,150.75,0.25,118,63.0
1135,B2,151.0,1.0,118,63.0
1136,B1,151.0,1.0,115,63.0
1137,B1,151.0,1.0,110,63.0
1138,E-4,151.0,0.5,118,63.0
1139,F#3,151.0,0.5,118,63.0
1140,D2,151.0,21/1000,116,63.0
1141,C3,151.0,21/1000,116,63.0
1142,A2,151.25,21/1000,116,63.0
1143,F2,151.5,21/1000,116,63.0
1144,B3,151.5,0.5,118,63.0
1145,F#3,151.5,0.5,118,63.0
1146,G#3,152.0,0.5,118,63.0
1147,E-3,152.0,1.0,118,63.0
1148,E2,152.0,1.0,115,63.0
1149,E2,152.0,1.0,110,63.0
1150,E4,152.0,1979/1000,105,63.0
1151,C2,152.0,21/1000,112,63.0
1152,C#3,152.0,21/1000,112,63.0
1153,G#5,152.5,0.5,115,63.0
1154,G#4,152.5,0.5,118,63.0
1155,G#5,153.0,0.5,115,63.0
1156,G#4,153.0,0.5,118,63.0
1157,E2,153.0,1.0,115,63.0
1158,E2,153.0,1.0,110,63.0
1159,D2,153.0,21/1000,116,63.0
1160,E4,153.0,1.0,118,63.0
1161,B3,153.0,1.0,118,63.0
1162,G#5,153.5,0.25,115,63.0
1163,G#4,153.5,0.25,118,63.0
1164,G#5,153.75,0.5,115,63.0
1165,G#4,153.75,0.5,118,63.0
1166,G#3,154.0,1.0,118,63.0
1167,G#2,154.0,1.0,115,63.0
1168,G#2,154.0,1.0,110,63.0
1169,G#4,154.0,1979/1000,105,63.0
1170,E-4,154.0,1.0,118,63.0
1171,B3,154.0,1.0,118,63.0
1172,C2,154.0,21/1000,116,63.0
1173,C#3,154.0,21/1000,116,63.0
1174,G#5,154.25,0.25,115,63.0
1175,G#4,154.25,0.25,118,63.0
1176,C2,154.25,21/1000,116,63.0
1177,G#5,154.5,0.5,115,63.0
1178,G#4,154.5,0.5,118,63.0
1179,G#5,155.0,0.5,115,63.0
1180,G#4,155.0,0.5,118,63.0
1181,G#2,155.0,0.75,118,63.0
1182,G#1,155.0,0.75,115,63.0
1183,G#1,155.0,0.75,110,63.0
1184,D2,155.0,21/1000,116,63.0
1185,E-4,155.0,1.0,118,63.0
1186,B3,155.0,1.0,118,63.0
1187,F#5,155.5,0.25,115,63.0
1188,F#4,155.5,0.25,118,63.0
1189,F#5,155.75,0.25,115,63.0
1190,F#4,155.75,0.25,118,63.0
1191,B2,155.75,0.25,118,63.0
1192,B1,155.75,0.25,115,63.0
1193,B1,155.75,0.25,110,63.0
1194,F#5,156.0,1.0,115,63.0
1195,F#4,156.0,0.75,118,63.0
1196,B2,156.0,1.0,118,63.0
1197,B1,156.0,1.0,115,63.0
1198,B1,156.0,1.0,110,63.0
1199,F#4,156.0,3979/1000,105,63.0
1200,E-4,156.0,0.75,118,63.0
1201,B3,156.0,0.75,118,63.0
1202,C2,156.0,21/1000,112,63.0
1203,B-2,156.0,21/1000,112,63.0
1204,C#4,156.75,0.5,118,63.0
1205,B3,156.75,0.5,118,63.0
1206,F#3,156.75,0.5,118,63.0
1207,B2,157.0,1.0,118,63.0
1208,B1,157.0,1.0,115,63.0
1209,B1,157.0,1.0,110,63.0
1210,D2,157.0,21/1000,116,63.0
1211,E-4,157.25,0.75,118,63.0
1212,B3,157.25,0.75,118,63.0
1213,F#3,157.25,0.75,118,63.0
1214,B2,158.0,1.0,118,63.0
1215,B1,158.0,1.0,115,63.0
1216,B1,158.0,1.0,110,63.0
1217,C2,158.0,21/1000,116,63.0
1218,E4,158.0,0.5,118,63.0
1219,B3,158.0,0.5,118,63.0
1220,G#3,158.0,0.5,118,63.0
1221,C2,158.25,21/1000,127,63.0
1222,E4,158.5,0.25,118,63.0
1223,B3,158.5,0.25,118,63.0
1224,G#3,158.5,0.25,118,63.0
1225,B4,158.75,0.25,115,63.0
1226,E4,158.75,0.5,118,63.0
1227,B3,158.75,0.5,118,63.0
1228,G#3,158.75,0.5,118,63.0
1229,B2,159.0,1.0,118,63.0
1230,B1,159.0,1.0,115,63.0
1231,B1,159.0,1.0,110,63.0
1232,D2,159.0,21/1000,116,63.0
1233,E-4,159.25,0.5,118,63.0
1234,B3,159.25,0.5,118,63.0
1235,F#3,159.25,0.5,118,63.0
1236,B3,159.75,0.25,118,63.0
1237,G#5,160.0,0.5,115,63.0
1238,G#4,160.0,0.5,118,63.0
1239,E3,160.0,1.0,118,63.0
1240,E2,160.0,1.0,115,63.0
1241,E2,160.0,1.0,110,63.0
1242,E4,160.0,1979/1000,105,63.0
1243,E4,160.0,1.0,118,63.0
1244,B3,160.0,1.0,118,63.0
1245,C2,160.0,21/1000,116,63.0
1246,C#3,160.0,21/1000,116,63.0
1247,G#5,160.5,0.25,115,63.0
1248,G#4,160.5,0.25,118,63.0
1249,G#5,160.75,0.25,115,63.0
1250,G#4,160.75,0.25,118,63.0
1251,G#5,161.0,0.5,115,63.0
1252,G#4,161.0,0.5,118,63.0
1253,E2,161.0,1.0,115,63.0
1254,E2,161.0,1.0,110,63.0
1255,D2,161.0,21/1000,116,63.0
1256,E4,161.0,1.0,118,63.0
1257,B3,161.0,1.0,118,63.0
1258,G#5,161.5,0.25,115,63.0
1259,G#4,161.5,0.25,118,63.0
1260,G#5,161.75,0.5,115,63.0
1261,G#4,161.75,0.5,118,63.0
1262,G#3,162.0,1.0,118,63.0
1263,G#2,162.0,1.0,115,63.0
1264,G#2,162.0,1.0,110,63.0
1265,G#4,162.0,1979/1000,105,63.0
1266,C2,162.0,21/1000,116,63.0
1267,E-4,162.0,1.0,118,63.0
1268,B3,162.0,1.0,118,63.0
1269,G#5,162.25,0.5,115,63.0
1270,G#4,162.25,0.5,118,63.0
1271,C2,162.25,21/1000,127,63.0
1272,G#5,162.75,0.5,115,63.0
1273,G#4,162.75,0.5,118,63.0
1274,G#2,163.0,1.0,118,63.0
1275,G#1,163.0,1.0,115,63.0
1276,G#1,163.0,1.0,110,63.0
1277,D2,163.0,21/1000,116,63.0
1278,F#5,163.25,0.25,115,63.0
1279,F#4,163.25,0.25,118,63.0
1280,F#5,163.5,0.25,115,63.0
1281,F#4,163.5,0.25,118,63.0
1282,F#5,163.75,0.25,115,63.0
1283,F#4,163.75,0.25,118,63.0
1284,F#5,164.0,0.5,115,63.0
1285,B2,164.0,1.0,118,63.0
1286,B1,164.0,1.0,115,63.0
1287,B1,164.0,1.0,110,63.0
1288,F#4,164.0,3979/1000,105,63.0
1289,C2,164.0,21/1000,116,63.0
1290,F#4,164.0,0.5,118,63.0
1291,E-4,164.0,0.5,118,63.0
1292,B3,164.0,0.5,118,63.0
1293,B4,164.5,0.25,115,63.0
1294,B3,164.5,0.25,118,63.0
1295,B4,164.75,1.25,115,63.0
1296,B3,164.75,0.5,118,63.0
1297,F#3,164.75,0.5,118,63.0
1298,B2,165.0,0.75,118,63.0
1299,D2,165.0,21/1000,116,63.0
1300,C#4,165.25,0.5,118,63.0
1301,F#3,165.25,0.5,118,63.0
1302,B1,165.75,0.25,118,63.0
1303,E4,165.75,0.5,118,63.0
1304,F#3,165.75,0.5,118,63.0
1305,B1,166.0,1.0,118,63.0
1306,C2,166.0,21/1000,116,63.0
1307,C2,166.25,21/1000,116,63.0
1308,E-4,166.25,0.5,118,63.0
1309,F#3,166.25,0.5,118,63.0
1310,C#4,166.75,0.25,118,63.0
1311,F#3,166.75,0.25,118,63.0
1312,B2,167.0,1.0,118,63.0
1313,B1,167.0,1.0,115,63.0
1314,B1,167.0,1.0,110,63.0
1315,D2,167.0,21/1000,116,63.0
1316,E-4,167.0,0.5,118,63.0
1317,F#3,167.0,0.5,118,63.0
1318,E-5,167.5,0.5,115,63.0
1319,C3,167.5,21/1000,116,63.0
1320,E-4,167.5,0.5,118,63.0
1321,B3,167.5,0.5,118,63.0
1322,F#3,167.5,0.5,118,63.0
1323,F2,167.75,21/1000,122,63.0
1324,C#5,168.0,1.5,115,63.0
1325,F#2,168.0,1.0,118,63.0
1326,C#4,168.0,1979/1000,105,63.0
1327,C2,168.0,21/1000,116,63.0
1328,C#4,168.0,1.5,118,63.0
1329,B-3,168.0,1.5,118,63.0
1330,F#3,168.0,1.5,118,63.0
1331,F#2,169.0,1.0,118,63.0
1332,D2,169.0,21/1000,116,63.0
1333,E-5,169.5,0.25,115,63.0
1334,E-4,169.5,0.25,118,63.0
1335,F#5,169.75,1.75,115,63.0
1336,F#4,169.75,1.75,118,63.0
1337,E-2,170.0,1.0,118,63.0
1338,F#4,170.0,1979/1000,105,63.0
1339,C2,170.0,21/1000,116,63.0
1340,E-4,170.0,1.5,118,63.0
1341,B-3,170.0,1.5,118,63.0
1342,C2,170.25,21/1000,116,63.0
1343,E-3,171.0,1.0,118,63.0
1344,D2,171.0,21/1000,116,63.0
1345,E-5,171.5,0.5,115,63.0
1346,E-4,171.5,0.5,118,63.0
1347,C#5,172.0,1.0,115,63.0
1348,F#2,172.0,1.0,118,63.0
1349,C#4,172.0,3979/1000,105,63.0
1350,C2,172.0,21/1000,116,63.0
1351,C#4,172.0,1.0,118,63.0
1352,B-3,172.0,1.0,118,63.0
1353,F#3,172.0,1.0,118,63.0
1354,F#3,173.0,0.75,118,63.0
1355,D2,173.0,21/1000,116,63.0
1356,F#4,173.0,0.75,118,63.0
1357,C#4,173.0,0.75,118,63.0
1358,B-3,173.0,0.75,118,63.0
1359,F#2,173.75,0.25,118,63.0
1360,F#4,173.75,0.5,118,63.0
1361,B-3,173.75,0.5,118,63.0
1362,F#2,174.0,1.0,118,63.0
1363,C2,174.0,21/1000,116,63.0
1364,B3,174.25,0.25,118,63.0
1365,C2,174.25,21/1000,116,63.0
1366,F#4,174.5,1.0,118,63.0
1367,C#4,174.5,1.0,118,63.0
1368,C#5,175.0,0.5,115,63.0
1369,F#2,175.0,1.0,118,63.0
1370,D2,175.0,21/1000,116,63.0
1371,E-5,175.5,0.5,115,63.0
1372,E-4,175.5,0.5,118,63.0
1373,E5,176.0,0.75,115,63.0
1374,C#3,176.0,2.0,118,63.0
1375,C#2,176.0,2.0,115,63.0
1376,C#2,176.0,2.0,110,63.0
1377,E4,176.0,3979/1000,105,63.0
1378,E4,176.0,1.0,118,63.0
1379,C#4,176.0,1.0,118,63.0
1380,G#3,176.0,1.0,118,63.0
1381,C2,176.0,21/1000,112,63.0
1382,C#3,176.0,21/1000,112,63.0
1383,E-5,176.75,0.75,115,63.0
1384,E4,177.0,1.0,118,63.0
1385,C#4,177.0,1.0,118,63.0
1386,G#3,177.0,1.0,118,63.0
1387,D2,177.0,21/1000,112,63.0
1388,C#3,177.0,21/1000,112,63.0
1389,C#5,177.5,1.0,115,63.0
1390,C#2,178.0,1.25,118,63.0
1391,E4,178.0,0.75,118,63.0
1392,C#4,178.0,0.75,118,63.0
1393,G#3,178.0,0.75,118,63.0
1394,C2,178.0,21/1000,112,63.0
1395,C#3,178.0,21/1000,112,63.0
1396,C2,178.25,21/1000,116,63.0
1397,B4,178.5,1.5,115,63.0
1398,E4,178.75,0.5,118,63.0
1399,C#4,178.75,0.5,118,63.0
1400,G#3,178.75,0.5,118,63.0
1401,D2,179.0,21/1000,120,63.0
1402,A2,179.0,21/1000,120,63.0
1403,C#3,179.0,21/1000,120,63.0
1404,E-2,179.25,0.75,118,63.0
1405,E-4,179.25,0.75,118,63.0
1406,B3,179.25,0.75,118,63.0
1407,F#3,179.25,0.75,118,63.0
1408,E2,180.0,4.0,118,63.0
1409,E1,180.0,4.0,115,63.0
1410,E1,180.0,4.0,110,63.0
1411,E3,180.0,3979/1000,105,63.0
1412,E4,180.0,4.0,118,63.0
1413,B3,180.0,4.0,118,63.0
1414,G#3,180.0,4.0,118,63.0
1415,C2,180.0,21/1000,116,63.0
1416,C#3,180.0,21/1000,116,63.0
1417,D2,181.0,21/1000,116,63.0
1418,C2,182.0,21/1000,116,63.0
1419,C2,182.25,21/1000,127,63.0
1420,G#4,183.0,0.5,115,63.0
1421,D2,183.0,21/1000,116,63.0
1422,B4,183.5,0.25,115,63.0
1423,B4,183.75,0.25,115,63.0
1424,B4,184.0,0.5,115,63.0
1425,B2,184.0,1.0,118,63.0
1426,B1,184.0,1.0,115,63.0
1427,B1,184.0,1.0,110,63.0
1428,B4,184.0,3979/1000,105,63.0
1429,C2,184.0,21/1000,120,63.0
1430,D2,184.0,21/1000,120,63.0
1431,C3,184.0,21/1000,120,63.0
1432,C#3,184.0,21/1000,120,63.0
1433,B5,184.5,0.812,90,63.0
1434,B5,184.5,0.812,85,63.0
1435,E-4,184.5,0.75,118,63.0
1436,B3,184.5,0.75,118,63.0
1437,F#3,185.0,0.75,118,63.0
1438,D2,185.0,21/1000,116,63.0
1439,A2,185.0,21/1000,116,63.0
1440,C#4,185.25,0.75,118,63.0
1441,F#5,185.25,0.812,90,63.0
1442,F#5,185.25,0.812,85,63.0
1443,D2,185.5,21/1000,116,63.0
1444,B2,185.75,0.25,118,63.0
1445,D2,185.875,21/1000,108,63.0
1446,B2,186.0,1.0,118,63.0
1447,E5,186.0,1.062,90,63.0
1448,E5,186.0,1.062,85,63.0
1449,E4,186.0,0.75,118,63.0
1450,B3,186.0,0.75,118,63.0
1451,D2,186.0,21/1000,116,63.0
1452,C2,186.0,21/1000,116,63.0
1453,C3,186.0,21/1000,116,63.0
1454,C2,186.25,21/1000,116,63.0
1455,A2,186.375,21/1000,108,63.0
1456,A2,186.5,21/1000,116,63.0
1457,E-4,186.75,0.5,118,63.0
1458,B3,186.75,0.5,118,63.0
1459,D2,186.875,21/1000,108,63.0
1460,F2,186.875,21/1000,108,63.0
1461,B2,187.0,1.0,118,63.0
1462,B1,187.0,1.0,115,63.0
1463,B1,187.0,1.0,110,63.0
1464,E-5,187.0,0.312,90,63.0
1465,E-5,187.0,0.312,85,63.0
1466,D2,187.0,21/1000,122,63.0
1467,F2,187.0,21/1000,122,63.0
1468,D2,187.125,21/1000,108,63.0
1469,B3,187.25,0.25,118,63.0
1470,E5,187.25,0.312,90,63.0
1471,E5,187.25,0.312,85,63.0
1472,D2,187.25,21/1000,122,63.0
1473,C#4,187.5,0.25,118,63.0
1474,F#5,187.5,0.5,90,63.0
1475,F#5,187.5,0.5,85,63.0
1476,E-4,187.75,0.25,118,63.0
1477,G#2,188.0,1.0,118,63.0
1478,G#1,188.0,1.0,115,63.0
1479,G#1,188.0,1.0,110,63.0
1480,G#3,188.0,3979/1000,105,63.0
1481,F#5,188.0,0.062,90,63.0
1482,F#5,188.0,0.062,85,63.0
1483,C2,188.0,21/1000,120,63.0
1484,D2,188.0,21/1000,120,63.0
1485,C3,188.0,21/1000,120,63.0
1486,C#3,188.0,21/1000,120,63.0
1487,B5,188.5,0.812,90,63.0
1488,B5,188.5,0.812,85,63.0
1489,E-4,188.5,0.75,118,63.0
1490,B3,188.5,0.75,118,63.0
1491,G#2,189.0,0.75,118,63.0
1492,D2,189.0,21/1000,116,63.0
1493,A2,189.0,21/1000,116,63.0
1494,C#4,189.25,0.75,118,63.0
1495,F#5,189.25,0.812,90,63.0
1496,F#5,189.25,0.812,85,63.0
1497,D2,189.5,21/1000,116,63.0
1498,G#1,189.75,0.25,118,63.0
1499,D2,189.875,21/1000,108,63.0
1500,G#1,190.0,1.0,118,63.0
1501,E5,190.0,1.062,90,63.0
1502,E5,190.0,1.062,85,63.0
1503,E4,190.0,0.75,118,63.0
1504,B3,190.0,0.75,118,63.0
1505,D2,190.0,21/1000,116,63.0
1506,C2,190.0,21/1000,116,63.0
1507,C3,190.0,21/1000,116,63.0
1508,C2,190.25,21/1000,116,63.0
1509,A2,190.375,21/1000,108,63.0
1510,A2,190.5,21/1000,122,63.0
1511,E-4,190.75,0.5,118,63.0
1512,B3,190.75,0.5,118,63.0
1513,D2,190.875,21/1000,108,63.0
1514,F2,190.875,21/1000,108,63.0
1515,G#2,191.0,1.0,118,63.0
1516,G#1,191.0,1.0,115,63.0
1517,G#1,191.0,1.0,110,63.0
1518,E-5,191.0,0.312,90,63.0
1519,E-5,191.0,0.312,85,63.0
1520,D2,191.0,21/1000,122,63.0
1521,F2,191.0,21/1000,122,63.0
1522,D2,191.125,21/1000,108,63.0
1523,B3,191.25,0.25,118,63.0
1524,E5,191.25,0.312,90,63.0
1525,E5,191.25,0.312,85,63.0
1526,D2,191.25,21/1000,122,63.0
1527,C#4,191.5,0.25,118,63.0
1528,F#5,191.5,0.5,90,63.0
1529,F#5,191.5,0.5,85,63.0
1530,E-4,191.75,0.25,118,63.0
1531,F#2,192.0,1.0,118,63.0
1532,F#1,192.0,1.0,115,63.0
1533,F#1,192.0,1.0,110,63.0
1534,F#3,192.0,3979/1000,105,63.0
1535,F#5,192.0,0.062,90,63.0
1536,F#5,192.0,0.062,85,63.0
1537,C2,192.0,21/1000,120,63.0
1538,D2,192.0,21/1000,120,63.0
1539,C3,192.0,21/1000,120,63.0
1540,C#3,192.0,21/1000,120,63.0
1541,B5,192.5,0.812,90,63.0
1542,B5,192.5,0.812,85,63.0
1543,E-4,192.5,0.75,118,63.0
1544,B3,192.5,0.75,118,63.0
1545,F#2,193.0,0.75,118,63.0
1546,D2,193.0,21/1000,116,63.0
1547,A2,193.0,21/1000,116,63.0
1548,C#4,193.25,0.75,118,63.0
1549,F#5,193.25,0.812,90,63.0
1550,F#5,193.25,0.812,85,63.0
1551,D2,193.5,21/1000,116,63.0
1552,F#1,193.75,0.25,118,63.0
1553,D2,193.875,21/1000,108,63.0
1554,F#1,194.0,1.0,118,63.0
1555,E5,194.0,1.062,90,63.0
1556,E5,194.0,1.062,85,63.0
1557,E4,194.0,0.75,118,63.0
1558,B3,194.0,0.75,118,63.0
1559,D2,194.0,21/1000,116,63.0
1560,C2,194.0,21/1000,116,63.0
1561,C3,194.0,21/1000,116,63.0
1562,C2,194.25,21/1000,116,63.0
1563,A2,194.375,21/1000,108,63.0
1564,A2,194.5,21/1000,127,63.0
1565,E-4,194.75,0.5,118,63.0
1566,D2,194.875,21/1000,108,63.0
1567,F2,194.875,21/1000,108,63.0
1568,F#2,195.0,1.0,118,63.0
1569,F#1,195.0,1.0,115,63.0
1570,F#1,195.0,1.0,110,63.0
1571,E-5,195.0,0.312,90,63.0
1572,E-5,195.0,0.312,85,63.0
1573,D2,195.0,21/1000,116,63.0
1574,F2,195.0,21/1000,116,63.0
1575,D2,195.125,21/1000,108,63.0
1576,B3,195.25,0.25,118,63.0
1577,E5,195.25,0.312,90,63.0
1578,E5,195.25,0.312,85,63.0
1579,D2,195.25,21/1000,127,63.0
1580,F#3,195.5,0.5,118,63.0
1581,F#5,195.5,0.312,90,63.0
1582,F#5,195.5,0.312,85,63.0
1583,B5,195.75,0.25,90,63.0
1584,B5,195.75,0.25,85,63.0
1585,E2,196.0,4.0,118,63.0
1586,E1,196.0,4.0,115,63.0
1587,E1,196.0,4.0,110,63.0
1588,E3,196.0,3979/1000,105,63.0
1589,E5,196.0,3.812,90,63.0
1590,B5,196.0,0.062,90,63.0
1591,E5,196.0,3.812,85,63.0
1592,B5,196.0,0.062,85,63.0
1593,E4,196.0,4.0,118,63.0
1594,B3,196.0,4.0,118,63.0
1595,G#3,196.0,4.0,118,63.0
1596,C2,196.0,21/1000,116,63.0
1597,C#3,196.0,21/1000,116,63.0
1598,B-2,196.25,21/1000,108,63.0
1599,B-2,196.5,21/1000,108,63.0
1600,B-2,196.75,21/1000,108,63.0
1601,B-2,197.0,21/1000,108,63.0
1602,B-2,197.25,21/1000,108,63.0
1603,B-2,197.5,21/1000,108,63.0
1604,B-2,197.75,21/1000,108,63.0
1605,C3,199.0,21/1000,116,63.0
1606,A2,199.25,21/1000,127,63.0
1607,F2,199.5,21/1000,116,63.0
1608,B2,200.0,1.0,118,63.0
1609,B1,200.0,1.0,115,63.0
1610,B1,200.0,1.0,110,63.0
1611,B3,200.0,3979/1000,105,63.0
1612,C2,200.0,21/1000,113,63.0
1613,F#2,200.0,21/1000,113,63.0
1614,C#3,200.0,21/1000,113,63.0
1615,E-6,200.5,0.812,90,63.0
1616,E-6,200.5,0.812,85,63.0
1617,E-4,200.5,0.75,118,63.0
1618,B3,200.5,0.75,118,63.0
1619,E-6,200.5,0.75,118,63.0
1620,F#3,201.0,0.75,118,63.0
1621,D2,201.0,21/1000,116,63.0
1622,C#6,201.25,0.812,90,63.0
1623,C#6,201.25,0.812,85,63.0
1624,C#4,201.25,0.75,118,63.0
1625,C#6,201.25,0.75,118,63.0
1626,B2,201.75,0.25,118,63.0
1627,B2,202.0,1.0,118,63.0
1628,E6,202.0,0.812,90,63.0
1629,E6,202.0,0.812,85,63.0
1630,C2,202.0,21/1000,116,63.0
1631,E4,202.0,0.75,118,63.0
1632,B3,202.0,0.75,118,63.0
1633,E6,202.0,0.75,118,63.0
1634,E-6,202.75,1.25,118,63.0
1635,E-6,202.75,1.25,90,63.0
1636,E-6,202.75,1.25,85,63.0
1637,E-4,202.75,0.5,118,63.0
1638,B3,202.75,0.5,118,63.0
1639,B2,203.0,1.0,118,63.0
1640,B1,203.0,1.0,115,63.0
1641,B1,203.0,1.0,110,63.0
1642,D2,203.0,21/1000,116,63.0
1643,B3,203.25,0.25,118,63.0
1644,C#4,203.5,0.25,118,63.0
1645,E-4,203.75,0.25,118,63.0
1646,G#2,204.0,1.0,118,63.0
1647,G#1,204.0,1.0,115,63.0
1648,G#1,204.0,1.0,110,63.0
1649,G#3,204.0,3979/1000,105,63.0
1650,E-6,204.0,0.062,90,63.0
1651,E-6,204.0,0.062,85,63.0
1652,C2,204.0,21/1000,116,63.0
1653,E-6,204.5,0.812,90,63.0
1654,E-6,204.5,0.812,85,63.0
1655,E-4,204.5,0.75,118,63.0
1656,B3,204.5,0.75,118,63.0
1657,E-6,204.5,0.75,118,63.0
1658,G#2,205.0,0.75,118,63.0
1659,D2,205.0,21/1000,116,63.0
1660,C#6,205.25,0.812,90,63.0
1661,C#6,205.25,0.812,85,63.0
1662,C#4,205.25,0.75,118,63.0
1663,C#6,205.25,0.75,118,63.0
1664,G#1,205.75,0.25,118,63.0
1665,G#1,206.0,1.0,118,63.0
1666,E6,206.0,0.812,90,63.0
1667,E6,206.0,0.812,85,63.0
1668,C2,206.0,21/1000,116,63.0
1669,E4,206.0,0.75,118,63.0
1670,B3,206.0,0.75,118,63.0
1671,E6,206.0,0.75,118,63.0
1672,E-6,206.75,0.75,118,63.0
1673,E-6,206.75,0.812,90,63.0
1674,E-6,206.75,0.812,85,63.0
1675,E-4,206.75,0.5,118,63.0
1676,B3,206.75,0.5,118,63.0
1677,G#2,207.0,1.0,118,63.0
1678,G#1,207.0,1.0,115,63.0
1679,G#1,207.0,1.0,110,63.0
1680,D2,207.0,21/1000,116,63.0
1681,B3,207.25,0.25,118,63.0
1682,C#4,207.5,0.25,118,63.0
1683,B5,207.5,0.5,118,63.0
1684,B5,207.5,0.5,90,63.0
1685,B5,207.5,0.5,85,63.0
1686,E-4,207.75,0.25,118,63.0
1687,F#2,208.0,1.0,118,63.0
1688,F#1,208.0,1.0,115,63.0
1689,F#1,208.0,1.0,110,63.0
1690,F#3,208.0,3979/1000,105,63.0
1691,B5,208.0,0.062,90,63.0
1692,B5,208.0,0.062,85,63.0
1693,C2,208.0,21/1000,116,63.0
1694,E-6,208.5,0.812,90,63.0
1695,E-6,208.5,0.812,85,63.0
1696,E-4,208.5,0.75,118,63.0
1697,B3,208.5,0.75,118,63.0
1698,E-6,208.5,0.75,118,63.0
1699,F#2,209.0,0.75,118,63.0
1700,D2,209.0,21/1000,116,63.0
1701,C#6,209.25,0.812,90,63.0
1702,C#6,209.25,0.812,85,63.0
1703,C#4,209.25,0.75,118,63.0
1704,C#6,209.25,0.75,118,63.0
1705,F#1,209.75,0.25,118,63.0
1706,F#1,210.0,1.0,118,63.0
1707,E6,210.0,0.812,90,63.0
1708,E6,210.0,0.812,85,63.0
1709,C2,210.0,21/1000,116,63.0
1710,E4,210.0,0.75,118,63.0
1711,B3,210.0,0.75,118,63.0
1712,E6,210.0,0.75,118,63.0
1713,E-6,210.75,0.75,118,63.0
1714,E-6,210.75,0.812,90,63.0
1715,E-6,210.75,0.812,85,63.0
1716,E-4,210.75,0.5,118,63.0
1717,B3,210.75,0.5,118,63.0
1718,F#2,211.0,1.0,118,63.0
1719,F#1,211.0,1.0,115,63.0
1720,F#1,211.0,1.0,110,63.0
1721,D2,211.0,21/1000,116,63.0
1722,B3,211.25,0.25,118,63.0
1723,B5,211.5,0.5,90,63.0
1724,B5,211.5,0.5,85,63.0
1725,F#3,211.5,0.5,118,63.0
1726,B5,211.5,0.5,118,63.0
1727,G#6,212.0,2.5,118,63.0
1728,E2,212.0,4.0,118,63.0
1729,E1,212.0,4.0,115,63.0
1730,E1,212.0,4.0,110,63.0
1731,E3,212.0,3979/1000,105,63.0
1732,G#6,212.0,3.062,90,63.0
1733,B5,212.0,0.062,90,63.0
1734,G#6,212.0,3.062,85,63.0
1735,B5,212.0,0.062,85,63.0
1736,E4,212.0,4.0,118,63.0
1737,B3,212.0,4.0,118,63.0
1738,C2,212.0,21/1000,116,63.0
1739,C#3,212.0,21/1000,116,63.0
1740,D2,213.0,21/1000,116,63.0
1741,C2,214.0,21/1000,116,63.0
1742,G#6,214.5,0.25,118,63.0
1743,G#6,214.75,0.25,118,63.0
1744,D2,214.75,21/1000,98,63.0
1745,F#6,215.0,0.75,118,63.0
1746,F#6,215.0,1.0,90,63.0
1747,F#6,215.0,1.0,85,63.0
1748,D2,215.0,21/1000,116,63.0
1749,F#6,215.75,0.25,118,63.0
1750,B2,216.0,1.0,118,63.0
1751,B1,216.0,1.0,115,63.0
1752,B1,216.0,1.0,110,63.0
1753,B3,216.0,3979/1000,105,63.0
1754,F#6,216.0,0.062,90,63.0
1755,F#6,216.0,0.062,85,63.0
1756,C2,216.0,21/1000,116,63.0
1757,E-6,216.5,0.812,90,63.0
1758,E-6,216.5,0.812,85,63.0
1759,E-4,216.5,0.75,118,63.0
1760,B3,216.5,0.75,118,63.0
1761,E-6,216.5,0.75,118,63.0
1762,F#3,217.0,0.75,118,63.0
1763,D2,217.0,21/1000,116,63.0
1764,C#6,217.25,0.812,90,63.0
1765,C#6,217.25,0.812,85,63.0
1766,C#4,217.25,0.75,118,63.0
1767,C#6,217.25,0.75,118,63.0
1768,B2,217.75,0.25,118,63.0
1769,B2,218.0,1.0,118,63.0
1770,E6,218.0,0.812,90,63.0
1771,E6,218.0,0.812,85,63.0
1772,C2,218.0,21/1000,116,63.0
1773,E4,218.0,0.75,118,63.0
1774,B3,218.0,0.75,118,63.0
1775,E6,218.0,0.75,118,63.0
1776,E-6,218.75,1.25,118,63.0
1777,E-6,218.75,1.25,90,63.0
1778,E-6,218.75,1.25,85,63.0
1779,E-4,218.75,0.5,118,63.0
1780,B3,218.75,0.5,118,63.0
1781,B2,219.0,1.0,118,63.0
1782,B1,219.0,1.0,115,63.0
1783,B1,219.0,1.0,110,63.0
1784,D2,219.0,21/1000,116,63.0
1785,B3,219.25,0.25,118,63.0
1786,C#4,219.5,0.25,118,63.0
1787,E-4,219.75,0.25,118,63.0
1788,G#2,220.0,1.0,118,63.0
1789,G#1,220.0,1.0,115,63.0
1790,G#1,220.0,1.0,110,63.0
1791,G#3,220.0,3979/1000,105,63.0
1792,E-6,220.0,0.062,90,63.0
1793,E-6,220.0,0.062,85,63.0
1794,C2,220.0,21/1000,116,63.0
1795,E-6,220.5,0.812,90,63.0
1796,E-6,220.5,0.812,85,63.0
1797,E-4,220.5,0.75,118,63.0
1798,B3,220.5,0.75,118,63.0
1799,E-6,220.5,0.75,118,63.0
1800,G#2,221.0,0.75,118,63.0
1801,D2,221.0,21/1000,116,63.0
1802,C#6,221.25,0.812,90,63.0
1803,C#6,221.25,0.812,85,63.0
1804,C#4,221.25,0.75,118,63.0
1805,C#6,221.25,0.75,118,63.0
1806,G#1,221.75,0.25,118,63.0
1807,G#1,222.0,1.0,118,63.0
1808,E6,222.0,0.812,90,63.0
1809,E6,222.0,0.812,85,63.0
1810,C2,222.0,21/1000,116,63.0
1811,E4,222.0,0.75,118,63.0
1812,B3,222.0,0.75,118,63.0
1813,E6,222.0,0.75,118,63.0
1814,E-6,222.75,0.75,118,63.0
1815,E-6,222.75,0.812,90,63.0
1816,E-6,222.75,0.812,85,63.0
1817,E-4,222.75,0.5,118,63.0
1818,B3,222.75,0.5,118,63.0
1819,G#2,223.0,1.0,118,63.0
1820,G#1,223.0,1.0,115,63.0
1821,G#1,223.0,1.0,110,63.0
1822,D2,223.0,21/1000,116,63.0
1823,B3,223.25,0.25,118,63.0
1824,C#4,223.5,0.25,118,63.0
1825,B5,223.5,0.5,118,63.0
1826,B5,223.5,0.5,90,63.0
1827,B5,223.5,0.5,85,63.0
1828,E-4,223.75,0.25,118,63.0
1829,F#2,224.0,1.0,118,63.0
1830,F#1,224.0,1.0,115,63.0
1831,F#1,224.0,1.0,110,63.0
1832,F#3,224.0,3979/1000,105,63.0
1833,B5,224.0,0.062,90,63.0
1834,B5,224.0,0.062,85,63.0
1835,C2,224.0,21/1000,116,63.0
1836,E-6,224.5,0.812,90,63.0
1837,E-6,224.5,0.812,85,63.0
1838,E-4,224.5,0.75,118,63.0
1839,B3,224.5,0.75,118,63.0
1840,E-6,224.5,0.75,118,63.0
1841,F#2,225.0,0.75,118,63.0
1842,D2,225.0,21/1000,116,63.0
1843,C#6,225.25,0.812,90,63.0
1844,C#6,225.25,0.812,85,63.0
1845,C#4,225.25,0.75,118,63.0
1846,C#6,225.25,0.75,118,63.0
1847,F#1,225.75,0.25,118,63.0
1848,F#1,226.0,1.0,118,63.0
1849,E6,226.0,0.812,90,63.0
1850,E6,226.0,0.812,85,63.0
1851,C2,226.0,21/1000,116,63.0
1852,E4,226.0,0.75,118,63.0
1853,B3,226.0,0.75,118,63.0
1854,E6,226.0,0.75,118,63.0
1855,E-6,226.75,0.75,118,63.0
1856,E-6,226.75,0.812,90,63.0
1857,E-6,226.75,0.812,85,63.0
1858,D2,226.75,21/1000,108,63.0
1859,E-4,226.75,0.5,118,63.0
1860,B3,226.75,0.5,118,63.0
1861,F#2,227.0,1.0,118,63.0
1862,F#1,227.0,1.0,115,63.0
1863,F#1,227.0,1.0,110,63.0
1864,D2,227.0,21/1000,116,63.0
1865,B3,227.25,0.25,118,63.0
1866,B5,227.5,0.5,90,63.0
1867,B5,227.5,0.5,85,63.0
1868,F#3,227.5,0.5,118,63.0
1869,B5,227.5,0.5,118,63.0
1870,G#6,228.0,2.75,118,63.0
1871,E2,228.0,4.0,118,63.0
1872,E1,228.0,4.0,115,63.0
1873,E1,228.0,4.0,110,63.0
1874,E3,228.0,3979/1000,105,63.0
1875,G#6,228.0,3.062,90,63.0
1876,B5,228.0,0.062,90,63.0
1877,G#6,228.0,3.062,85,63.0
1878,B5,228.0,0.062,85,63.0
1879,C2,228.0,21/1000,116,63.0
1880,E4,228.0,4.0,118,63.0
1881,B3,228.0,4.0,118,63.0
1882,D2,229.0,21/1000,116,63.0
1883,C2,230.0,21/1000,116,63.0
1884,G#6,230.75,0.25,118,63.0
1885,F#6,231.0,0.75,118,63.0
1886,F#6,231.0,1.0,90,63.0
1887,F#6,231.0,1.0,85,63.0
1888,D2,231.0,21/1000,112,63.0
1889,C3,231.0,21/1000,112,63.0
1890,A2,231.25,21/1000,108,63.0
1891,F2,231.5,21/1000,108,63.0
1892,F#6,231.75,0.25,118,63.0
1893,B2,232.0,1.0,118,63.0
1894,B1,232.0,1.0,115,63.0
1895,B1,232.0,1.0,110,63.0
1896,B3,232.0,3979/1000,105,63.0
1897,F#6,232.0,0.062,90,63.0
1898,F#6,232.0,0.062,85,63.0
1899,C2,232.0,21/1000,116,63.0
1900,E-6,232.5,0.812,90,63.0
1901,E-6,232.5,0.812,85,63.0
1902,E-4,232.5,0.75,118,63.0
1903,B3,232.5,0.75,118,63.0
1904,E-6,232.5,0.75,118,63.0
1905,F#3,233.0,0.75,118,63.0
1906,D2,233.0,21/1000,116,63.0
1907,C#6,233.25,0.812,90,63.0
1908,C#6,233.25,0.812,85,63.0
1909,C#4,233.25,0.75,118,63.0
1910,C#6,233.25,0.75,118,63.0
1911,B2,233.75,0.25,118,63.0
1912,B2,234.0,1.0,118,63.0
1913,E6,234.0,0.812,90,63.0
1914,E6,234.0,0.812,85,63.0
1915,C2,234.0,21/1000,116,63.0
1916,E4,234.0,0.75,118,63.0
1917,B3,234.0,0.75,118,63.0
1918,E6,234.0,0.75,118,63.0
1919,E-6,234.75,1.0,118,63.0
1920,E-6,234.75,1.25,90,63.0
1921,E-6,234.75,1.25,85,63.0
1922,D2,234.75,21/1000,108,63.0
1923,E-4,234.75,0.5,118,63.0
1924,B3,234.75,0.5,118,63.0
1925,B2,235.0,1.0,118,63.0
1926,B1,235.0,1.0,115,63.0
1927,B1,235.0,1.0,110,63.0
1928,D2,235.0,21/1000,116,63.0
1929,B3,235.25,0.25,118,63.0
1930,C#4,235.5,0.25,118,63.0
1931,E-4,235.75,0.25,118,63.0
1932,E-6,235.75,0.25,118,63.0
1933,G#2,236.0,1.0,118,63.0
1934,G#1,236.0,1.0,115,63.0
1935,G#1,236.0,1.0,110,63.0
1936,G#3,236.0,3979/1000,105,63.0
1937,E-6,236.0,0.062,90,63.0
1938,E-6,236.0,0.062,85,63.0
1939,C2,236.0,21/1000,116,63.0
1940,E-6,236.5,0.812,90,63.0
1941,E-6,236.5,0.812,85,63.0
1942,E-4,236.5,0.75,118,63.0
1943,B3,236.5,0.75,118,63.0
1944,E-6,236.5,0.75,118,63.0
1945,G#2,237.0,0.75,118,63.0
1946,D2,237.0,21/1000,116,63.0
1947,C#6,237.25,0.812,90,63.0
1948,C#6,237.25,0.812,85,63.0
1949,C#4,237.25,0.75,118,63.0
1950,C#6,237.25,0.75,118,63.0
1951,G#1,237.75,0.25,118,63.0
1952,G#1,238.0,1.0,118,63.0
1953,E6,238.0,0.812,90,63.0
1954,E6,238.0,0.812,85,63.0
1955,C2,238.0,21/1000,116,63.0
1956,E4,238.0,0.75,118,63.0
1957,B3,238.0,0.75,118,63.0
1958,E6,238.0,0.75,118,63.0
1959,C2,238.25,21/1000,108,63.0
1960,E-6,238.75,0.75,118,63.0
1961,E-6,238.75,0.812,90,63.0
1962,E-6,238.75,0.812,85,63.0
1963,D2,238.75,21/1000,108,63.0
1964,E-4,238.75,0.5,118,63.0
1965,B3,238.75,0.5,118,63.0
1966,G#2,239.0,1.0,118,63.0
1967,G#1,239.0,1.0,115,63.0
1968,G#1,239.0,1.0,110,63.0
1969,D2,239.0,21/1000,116,63.0
1970,B3,239.25,0.25,118,63.0
1971,C#4,239.5,0.25,118,63.0
1972,B5,239.5,0.5,118,63.0
1973,B5,239.5,0.5,90,63.0
1974,B5,239.5,0.5,85,63.0
1975,E-4,239.75,0.25,118,63.0
1976,F#2,240.0,1.0,118,63.0
1977,F#1,240.0,1.0,115,63.0
1978,F#1,240.0,1.0,110,63.0
1979,F#3,240.0,3979/1000,105,63.0
1980,B5,240.0,0.062,90,63.0
1981,B5,240.0,0.062,85,63.0
1982,C2,240.0,21/1000,116,63.0
1983,E-6,240.5,0.812,90,63.0
1984,E-6,240.5,0.812,85,63.0
1985,E-4,240.5,0.75,118,63.0
1986,B3,240.5,0.75,118,63.0
1987,E-6,240.5,0.75,118,63.0
1988,F#2,241.0,0.75,118,63.0
1989,D2,241.0,21/1000,116,63.0
1990,C#6,241.25,0.812,90,63.0
1991,C#6,241.25,0.812,85,63.0
1992,C#4,241.25,0.75,118,63.0
1993,C#6,241.25,0.75,118,63.0
1994,F#1,241.75,0.25,118,63.0
1995,F#1,242.0,1.0,118,63.0
1996,E6,242.0,0.812,90,63.0
1997,E6,242.0,0.812,85,63.0
1998,C2,242.0,21/1000,116,63.0
1999,E4,242.0,0.75,118,63.0
2000,B3,242.0,0.75,118,63.0
2001,E6,242.0,0.75,118,63.0
2002,C2,242.25,21/1000,108,63.0
2003,E-6,242.75,0.75,118,63.0
2004,E-6,242.75,0.812,90,63.0
2005,E-6,242.75,0.812,85,63.0
2006,D2,242.75,21/1000,108,63.0
2007,E-4,242.75,0.5,118,63.0
2008,B3,242.75,0.5,118,63.0
2009,F#2,243.0,1.0,118,63.0
2010,F#1,243.0,1.0,115,63.0
2011,F#1,243.0,1.0,110,63.0
2012,D2,243.0,21/1000,116,63.0
2013,B3,243.25,0.25,118,63.0
2014,C#2,243.25,21/1000,108,63.0
2015,B5,243.5,0.5,90,63.0
2016,B5,243.5,0.5,85,63.0
2017,F#3,243.5,0.5,118,63.0
2018,B5,243.5,0.5,118,63.0
2019,E5,244.0,3.0,118,63.0
2020,E2,244.0,4.0,118,63.0
2021,E1,244.0,4.0,115,63.0
2022,E1,244.0,4.0,110,63.0
2023,E3,244.0,3979/1000,105,63.0
2024,E5,244.0,3.062,90,63.0
2025,B5,244.0,0.062,90,63.0
2026,E5,244.0,3.062,85,63.0
2027,B5,244.0,0.062,85,63.0
2028,C2,244.0,21/1000,116,63.0
2029,E4,244.0,4.0,118,63.0
2030,B3,244.0,4.0,118,63.0
2031,D2,244.75,21/1000,108,63.0
2032,D2,245.0,21/1000,116,63.0
2033,C2,246.0,21/1000,116,63.0
2034,C2,246.25,21/1000,108,63.0
2035,D2,246.75,21/1000,108,63.0
2036,G#5,247.0,0.5,115,63.0
2037,G#5,247.0,0.5,118,63.0
2038,G#5,247.0,0.562,90,63.0
2039,G#5,247.0,0.562,85,63.0
2040,D2,247.0,21/1000,119,63.0
2041,C3,247.0,21/1000,119,63.0
2042,A2,247.25,21/1000,127,63.0
2043,F#5,247.5,0.5,115,63.0
2044,F#5,247.5,0.5,118,63.0
2045,F#5,247.5,0.5,90,63.0
2046,F#5,247.5,0.5,85,63.0
2047,F2,247.5,21/1000,116,63.0
2048,E-5,248.0,1.0,115,63.0
2049,E-5,248.0,1.0,118,63.0
2050,B2,248.0,1.0,118,63.0
2051,B1,248.0,1.0,115,63.0
2052,B1,248.0,1.0,110,63.0
2053,B3,248.0,3979/1000,105,63.0
2054,E-5,248.0,1.062,90,63.0
2055,F#5,248.0,0.062,90,63.0
2056,E-5,248.0,1.062,85,63.0
2057,F#5,248.0,0.062,85,63.0
2058,C2,248.0,21/1000,116,63.0
2059,C#3,248.0,21/1000,116,63.0
2060,E-4,248.5,0.75,118,63.0
2061,B3,248.5,0.75,118,63.0
2062,F#3,249.0,0.75,118,63.0
2063,D2,249.0,21/1000,116,63.0
2064,C#4,249.25,0.75,118,63.0
2065,B2,249.75,0.25,118,63.0
2066,B2,250.0,1.0,118,63.0
2067,C2,250.0,21/1000,116,63.0
2068,E4,250.0,0.75,118,63.0
2069,B3,250.0,0.75,118,63.0
2070,C2,250.25,21/1000,108,63.0
2071,B4,250.5,0.5,118,63.0
2072,B4,250.75,0.25,115,63.0
2073,E-4,250.75,1.25,118,63.0
2074,B3,250.75,1.25,118,63.0
2075,B4,251.0,0.5,115,63.0
2076,B4,251.0,0.5,118,63.0
2077,B2,251.0,1.0,118,63.0
2078,B1,251.0,1.0,115,63.0
2079,B1,251.0,1.0,110,63.0
2080,D2,251.0,21/1000,116,63.0
2081,E-5,251.5,0.5,115,63.0
2082,E-5,251.5,0.5,118,63.0
2083,E5,252.0,0.75,115,63.0
2084,E5,252.0,0.75,118,63.0
2085,G#2,252.0,1.0,118,63.0
2086,G#1,252.0,1.0,115,63.0
2087,G#1,252.0,1.0,110,63.0
2088,G#3,252.0,3979/1000,105,63.0
2089,C2,252.0,21/1000,116,63.0
2090,E-4,252.5,0.75,118,63.0
2091,B3,252.5,0.75,118,63.0
2092,E-5,252.75,0.75,115,63.0
2093,E-5,252.75,0.75,118,63.0
2094,G#2,253.0,0.75,118,63.0
2095,D2,253.0,21/1000,116,63.0
2096,C#4,253.25,0.75,118,63.0
2097,B4,253.5,1.5,115,63.0
2098,B4,253.5,1.5,118,63.0
2099,G#1,253.75,0.25,118,63.0
2100,G#1,254.0,1.0,118,63.0
2101,C2,254.0,21/1000,116,63.0
2102,E4,254.0,0.75,118,63.0
2103,B3,254.0,0.75,118,63.0
2104,E-4,254.75,0.5,118,63.0
2105,D2,254.75,21/1000,108,63.0
2106,G#2,255.0,1.0,118,63.0
2107,D2,255.0,21/1000,116,63.0
2108,B3,255.25,0.25,118,63.0
2109,G#3,255.5,0.5,118,63.0
2110,E5,256.0,0.25,115,63.0
2111,E5,256.0,0.5,118,63.0
2112,E2,256.0,1.0,118,63.0
2113,E1,256.0,1.0,115,63.0
2114,E1,256.0,1.0,110,63.0
2115,E3,256.0,3979/1000,105,63.0
2116,C2,256.0,21/1000,116,63.0
2117,G#3,256.0,0.75,118,63.0
2118,E3,256.0,0.75,118,63.0
2119,E5,256.5,0.25,115,63.0
2120,E5,256.5,0.25,118,63.0
2121,E5,256.75,0.5,115,63.0
2122,E5,256.75,0.5,118,63.0
2123,E4,256.75,0.75,118,63.0
2124,G#3,256.75,0.75,118,63.0
2125,E2,257.0,0.5,118,63.0
2126,E1,257.0,0.5,115,63.0
2127,E1,257.0,0.5,110,63.0
2128,D2,257.0,21/1000,116,63.0
2129,G#5,257.25,0.25,115,63.0
2130,G#5,257.25,0.25,118,63.0
2131,G#5,257.5,1.0,115,63.0
2132,G#5,257.5,1.0,118,63.0
2133,E2,257.5,2.5,118,63.0
2134,E1,257.5,2.5,115,63.0
2135,E1,257.5,2.5,110,63.0
2136,E4,257.5,2.5,118,63.0
2137,B3,257.5,2.5,118,63.0
2138,C2,258.0,21/1000,112,63.0
2139,E-3,258.0,21/1000,112,63.0
2140,C2,258.25,21/1000,108,63.0
2141,E-3,258.25,21/1000,108,63.0
2142,G#4,258.5,0.25,115,63.0
2143,B4,258.5,0.5,118,63.0
2144,E-3,258.5,21/1000,108,63.0
2145,B4,258.75,0.25,115,63.0
2146,D2,258.75,21/1000,108,63.0
2147,F#2,258.75,21/1000,108,63.0
2148,B4,259.0,0.5,115,63.0
2149,B4,259.0,0.5,118,63.0
2150,D2,259.0,21/1000,112,63.0
2151,E-3,259.0,21/1000,112,63.0
2152,E-3,259.25,21/1000,108,63.0
2153,B4,259.5,0.5,115,63.0
2154,B4,259.5,0.5,118,63.0
2155,E-5,260.0,2.0,115,63.0
2156,E-5,260.0,2.0,118,63.0
2157,B2,260.0,1.0,118,63.0
2158,B1,260.0,1.0,115,63.0
2159,B1,260.0,1.0,110,63.0
2160,B3,260.0,3979/1000,105,63.0
2161,C2,260.0,21/1000,116,63.0
2162,E-4,260.5,0.75,118,63.0
2163,B3,260.5,0.75,118,63.0
2164,F#3,261.0,0.75,118,63.0
2165,D2,261.0,21/1000,116,63.0
2166,C#4,261.25,0.75,118,63.0
2167,B2,261.75,0.25,118,63.0
2168,B2,262.0,1.0,118,63.0
2169,E4,262.0,0.812,90,63.0
2170,E4,262.0,0.812,85,63.0
2171,C2,262.0,21/1000,116,63.0
2172,E4,262.0,0.75,118,63.0
2173,B3,262.0,0.75,118,63.0
2174,C2,262.25,21/1000,108,63.0
2175,E-4,262.75,0.5,118,63.0
2176,E-4,262.75,0.562,90,63.0
2177,E-4,262.75,0.562,85,63.0
2178,D2,262.75,21/1000,108,63.0
2179,B2,263.0,1.0,118,63.0
2180,B1,263.0,1.0,115,63.0
2181,B1,263.0,1.0,110,63.0
2182,D2,263.0,21/1000,112,63.0
2183,C3,263.0,21/1000,112,63.0
2184,B3,263.25,0.25,118,63.0
2185,A2,263.25,21/1000,116,63.0
2186,F#4,263.5,0.312,90,63.0
2187,F#4,263.5,0.312,85,63.0
2188,F2,263.5,21/1000,108,63.0
2189,F#4,263.5,0.25,118,63.0
2190,C#4,263.5,0.25,118,63.0
2191,F#4,263.75,0.25,90,63.0
2192,F#4,263.75,0.25,85,63.0
2193,F#4,263.75,0.25,118,63.0
2194,E-4,263.75,0.25,118,63.0
2195,B2,264.0,1.0,118,63.0
2196,B1,264.0,1.0,115,63.0
2197,B1,264.0,1.0,110,63.0
2198,B3,264.0,3979/1000,105,63.0
2199,F#4,264.0,0.062,90,63.0
2200,F#4,264.0,0.062,85,63.0
2201,C2,264.0,21/1000,116,63.0
2202,E-4,264.5,0.812,90,63.0
2203,E-4,264.5,0.812,85,63.0
2204,E-4,264.5,0.75,118,63.0
2205,B3,264.5,0.75,118,63.0
2206,F#3,265.0,0.75,118,63.0
2207,D2,265.0,21/1000,116,63.0
2208,C#4,265.25,0.75,118,63.0
2209,C#4,265.25,0.812,90,63.0
2210,C#4,265.25,0.812,85,63.0
2211,B2,265.75,0.25,118,63.0
2212,B2,266.0,1.0,118,63.0
2213,E4,266.0,0.812,90,63.0
2214,E4,266.0,0.812,85,63.0
2215,C2,266.0,21/1000,116,63.0
2216,E4,266.0,0.75,118,63.0
2217,B3,266.0,0.75,118,63.0
2218,C2,266.25,21/1000,108,63.0
2219,E-4,266.75,0.5,118,63.0
2220,G#4,266.75,0.812,90,63.0
2221,G#4,266.75,0.812,85,63.0
2222,B4,267.0,0.25,115,63.0
2223,B4,267.0,0.5,118,63.0
2224,B2,267.0,1.0,118,63.0
2225,B1,267.0,1.0,115,63.0
2226,B1,267.0,1.0,110,63.0
2227,D2,267.0,21/1000,116,63.0
2228,B4,267.25,0.25,115,63.0
2229,B3,267.25,0.25,118,63.0
2230,E-5,267.5,0.5,115,63.0
2231,F#3,267.5,0.5,118,63.0
2232,E-5,267.5,0.5,118,63.0
2233,E-5,268.0,2.0,115,63.0
2234,B2,268.0,1.0,118,63.0
2235,B1,268.0,1.0,115,63.0
2236,B1,268.0,1.0,110,63.0
2237,B3,268.0,3979/1000,105,63.0
2238,C2,268.0,21/1000,116,63.0
2239,B-2,268.0,21/1000,116,63.0
2240,E-4,268.5,0.75,118,63.0
2241,B3,268.5,0.75,118,63.0
2242,F#3,269.0,0.75,118,63.0
2243,D2,269.0,21/1000,116,63.0
2244,C#4,269.25,0.75,118,63.0
2245,B2,269.75,0.25,118,63.0
2246,B2,270.0,1.0,118,63.0
2247,C2,270.0,21/1000,116,63.0
2248,E4,270.0,0.75,118,63.0
2249,B3,270.0,0.75,118,63.0
2250,E-4,270.75,0.5,118,63.0
2251,G#4,271.0,0.25,115,63.0
2252,B2,271.0,1.0,118,63.0
2253,B1,271.0,1.0,115,63.0
2254,B1,271.0,1.0,110,63.0
2255,D2,271.0,21/1000,116,63.0
2256,B4,271.25,0.25,115,63.0
2257,B3,271.25,0.25,118,63.0
2258,E-5,271.5,0.25,115,63.0
2259,C#4,271.5,0.25,118,63.0
2260,E-5,271.75,0.25,115,63.0
2261,E-4,271.75,0.25,118,63.0
2262,E5,272.0,0.75,115,63.0
2263,E5,272.0,0.75,118,63.0
2264,G#2,272.0,1.0,118,63.0
2265,G#1,272.0,1.0,115,63.0
2266,G#1,272.0,1.0,110,63.0
2267,G#3,272.0,3979/1000,105,63.0
2268,C2,272.0,21/1000,116,63.0
2269,E-4,272.5,0.75,118,63.0
2270,B3,272.5,0.75,118,63.0
2271,E-5,272.75,0.75,115,63.0
2272,E-5,272.75,0.75,118,63.0
2273,G#2,273.0,0.75,118,63.0
2274,D2,273.0,21/1000,116,63.0
2275,C#4,273.25,0.75,118,63.0
2276,B4,273.5,1.5,115,63.0
2277,B4,273.5,1.5,118,63.0
2278,G#1,273.75,0.25,118,63.0
2279,G#1,274.0,1.0,118,63.0
2280,C2,274.0,21/1000,116,63.0
2281,E4,274.0,0.75,118,63.0
2282,B3,274.0,0.75,118,63.0
2283,E-4,274.75,0.5,118,63.0
2284,G#2,275.0,1.0,118,63.0
2285,E-4,275.0,0.312,90,63.0
2286,E-4,275.0,0.312,85,63.0
2287,D2,275.0,21/1000,116,63.0
2288,B3,275.25,0.25,118,63.0
2289,B3,275.25,0.312,90,63.0
2290,B3,275.25,0.312,85,63.0
2291,F#3,275.5,0.5,118,63.0
2292,F#3,275.5,0.5,90,63.0
2293,F#3,275.5,0.5,85,63.0
2294,E5,276.0,0.5,115,63.0
2295,E2,276.0,1.0,118,63.0
2296,E1,276.0,1.0,115,63.0
2297,E1,276.0,1.0,110,63.0
2298,E3,276.0,3979/1000,105,63.0
2299,E3,276.0,1.562,90,63.0
2300,F#3,276.0,0.062,90,63.0
2301,E3,276.0,1.562,85,63.0
2302,F#3,276.0,0.062,85,63.0
2303,C2,276.0,21/1000,116,63.0
2304,G#3,276.0,0.75,118,63.0
2305,E3,276.0,0.75,118,63.0
2306,E5,276.5,0.25,115,63.0
2307,E5,276.75,0.5,115,63.0
2308,E4,276.75,0.75,118,63.0
2309,G#3,276.75,0.75,118,63.0
2310,E2,277.0,0.5,118,63.0
2311,E1,277.0,0.5,115,63.0
2312,E1,277.0,0.5,110,63.0
2313,D2,277.0,21/1000,116,63.0
2314,G#5,277.25,0.5,115,63.0
2315,E2,277.5,2.5,118,63.0
2316,E1,277.5,2.5,115,63.0
2317,E1,277.5,2.5,110,63.0
2318,E4,277.5,1.5,118,63.0
2319,B3,277.5,1.5,118,63.0
2320,G#5,277.75,0.75,115,63.0
2321,C2,278.0,21/1000,112,63.0
2322,E-3,278.0,21/1000,112,63.0
2323,C2,278.25,21/1000,108,63.0
2324,E-3,278.25,21/1000,108,63.0
2325,E-5,278.5,0.5,115,63.0
2326,E-3,278.5,21/1000,108,63.0
2327,G#2,278.75,21/1000,116,63.0
2328,E-5,279.0,0.5,115,63.0
2329,E-4,279.0,0.5,118,63.0
2330,D2,279.0,21/1000,112,63.0
2331,E-3,279.0,21/1000,112,63.0
2332,E-3,279.25,21/1000,108,63.0
2333,E5,279.5,0.5,115,63.0
2334,E4,279.5,0.5,118,63.0
2335,E-3,279.5,21/1000,108,63.0
2336,E-3,279.75,21/1000,108,63.0
2337,E-5,280.0,1.5,115,63.0
2338,E-5,280.0,1.5,118,63.0
2339,F#2,280.0,1.0,118,63.0
2340,F#1,280.0,1.0,115,63.0
2341,F#1,280.0,1.0,110,63.0
2342,F#3,280.0,3979/1000,105,63.0
2343,E-5,280.0,1.562,90,63.0
2344,E-5,280.0,1.562,85,63.0
2345,F#4,280.0,0.75,118,63.0
2346,E-4,280.0,0.75,118,63.0
2347,C2,280.0,21/1000,116,63.0
2348,C#3,280.0,21/1000,116,63.0
2349,F#4,280.75,0.75,118,63.0
2350,E-4,280.75,0.75,118,63.0
2351,F#2,281.0,0.5,118,63.0
2352,F#1,281.0,0.5,115,63.0
2353,F#1,281.0,0.5,110,63.0
2354,D2,281.0,21/1000,116,63.0
2355,C#5,281.5,1.5,115,63.0
2356,F#2,281.5,1.5,118,63.0
2357,F#1,281.5,1.5,115,63.0
2358,F#1,281.5,1.5,110,63.0
2359,C#5,281.5,1.562,90,63.0
2360,C#5,281.5,1.562,85,63.0
2361,C#3,281.5,21/1000,116,63.0
2362,F#4,281.5,1.5,118,63.0
2363,C#4,281.5,1.5,118,63.0
2364,C#5,281.5,1.5,118,63.0
2365,C2,282.0,21/1000,116,63.0
2366,C2,282.25,21/1000,108,63.0
2367,D2,282.75,21/1000,108,63.0
2368,B-3,283.0,0.25,118,63.0
2369,F#3,283.0,1.0,118,63.0
2370,F#2,283.0,1.0,118,63.0
2371,B-3,283.0,0.312,90,63.0
2372,B-3,283.0,0.312,85,63.0
2373,D2,283.0,21/1000,122,63.0
2374,B3,283.25,0.25,118,63.0
2375,B3,283.25,0.312,90,63.0
2376,B3,283.25,0.312,85,63.0
2377,C#4,283.5,0.25,118,63.0
2378,C#4,283.5,0.312,90,63.0
2379,C#4,283.5,0.312,85,63.0
2380,F2,283.5,21/1000,116,63.0
2381,B4,283.75,0.25,115,63.0
2382,B4,283.75,0.25,90,63.0
2383,B4,283.75,0.25,85,63.0
2384,B3,283.75,0.25,118,63.0
2385,B4,283.75,0.25,118,63.0
2386,G#5,284.0,0.25,115,63.0
2387,E4,284.0,1.0,118,63.0
2388,E3,284.0,2.0,118,63.0
2389,E2,284.0,2.0,115,63.0
2390,E2,284.0,2.0,110,63.0
2391,E4,284.0,1979/1000,105,63.0
2392,G#5,284.0,1.562,90,63.0
2393,B4,284.0,0.062,90,63.0
2394,G#5,284.0,1.562,85,63.0
2395,B4,284.0,0.062,85,63.0
2396,G#4,284.0,0.5,118,63.0
2397,G#5,284.0,0.5,118,63.0
2398,C2,284.0,21/1000,112,63.0
2399,C#3,284.0,21/1000,112,63.0
2400,G#5,284.25,0.25,115,63.0
2401,G#5,284.5,0.25,115,63.0
2402,G#4,284.5,0.25,118,63.0
2403,G#5,284.5,0.25,118,63.0
2404,G#5,284.75,0.25,115,63.0
2405,G#4,284.75,0.25,118,63.0
2406,G#5,284.75,0.25,118,63.0
2407,G#5,285.0,0.5,115,63.0
2408,E4,285.0,1.0,118,63.0
2409,G#5,285.0,1.312,90,63.0
2410,G#5,285.0,1.312,85,63.0
2411,D2,285.0,21/1000,116,63.0
2412,G#4,285.0,0.5,118,63.0
2413,G#5,285.0,0.5,118,63.0
2414,G#5,285.5,0.25,115,63.0
2415,G#4,285.5,0.25,118,63.0
2416,G#5,285.5,0.25,118,63.0
2417,G#5,285.75,0.5,115,63.0
2418,G#5,285.75,0.812,90,63.0
2419,G#5,285.75,0.812,85,63.0
2420,G#4,285.75,0.5,118,63.0
2421,G#5,285.75,0.5,118,63.0
2422,E-4,286.0,1.0,118,63.0
2423,G#3,286.0,1.0,118,63.0
2424,G#2,286.0,1.0,115,63.0
2425,G#2,286.0,1.0,110,63.0
2426,G#4,286.0,1979/1000,105,63.0
2427,G#5,286.0,1.562,90,63.0
2428,G#5,286.0,1.562,85,63.0
2429,C2,286.0,21/1000,116,63.0
2430,G#5,286.25,0.5,115,63.0
2431,G#4,286.25,0.5,118,63.0
2432,G#5,286.25,0.5,118,63.0
2433,G#5,286.75,0.25,115,63.0
2434,G#4,286.75,0.25,118,63.0
2435,G#5,286.75,0.25,118,63.0
2436,G#5,287.0,0.5,115,63.0
2437,E-4,287.0,1.0,118,63.0
2438,G#2,287.0,0.75,118,63.0
2439,G#1,287.0,0.75,115,63.0
2440,G#1,287.0,0.75,110,63.0
2441,G#5,287.0,0.562,90,63.0
2442,G#5,287.0,0.562,85,63.0
2443,D2,287.0,21/1000,116,63.0
2444,G#4,287.0,0.5,118,63.0
2445,G#5,287.0,0.5,118,63.0
2446,F#5,287.5,0.25,115,63.0
2447,F#5,287.5,0.312,90,63.0
2448,F#5,287.5,0.312,85,63.0
2449,F#4,287.5,0.25,118,63.0
2450,F#5,287.5,0.25,118,63.0
2451,F#5,287.75,0.25,115,63.0
2452,B2,287.75,0.25,118,63.0
2453,B1,287.75,0.25,115,63.0
2454,B1,287.75,0.25,110,63.0
2455,F#5,287.75,0.25,90,63.0
2456,F#5,287.75,0.25,85,63.0
2457,F#4,287.75,0.25,118,63.0
2458,F#5,287.75,0.25,118,63.0
2459,F#5,288.0,0.25,115,63.0
2460,B2,288.0,1.0,118,63.0
2461,B1,288.0,1.0,115,63.0
2462,B1,288.0,1.0,110,63.0
2463,F#4,288.0,1979/1000,105,63.0
2464,F#5,288.0,177/500,90,63.0
2465,F#5,288.0,177/500,85,63.0
2466,C2,288.0,21/1000,116,63.0
2467,F#5,288.25,0.75,115,63.0
2468,E-4,288.25,1.0,118,63.0
2469,F#5,288.25,0.812,90,63.0
2470,F#5,288.25,0.812,85,63.0
2471,F#4,288.25,0.25,118,63.0
2472,F#5,288.25,0.25,118,63.0
2473,F#4,288.5,0.75,118,63.0
2474,F#5,288.5,0.75,118,63.0
2475,B2,289.0,1.0,118,63.0
2476,B1,289.0,1.0,115,63.0
2477,B1,289.0,1.0,110,63.0
2478,B3,289.0,0.312,90,63.0
2479,B3,289.0,0.312,85,63.0
2480,D2,289.0,21/1000,112,63.0
2481,C3,289.0,21/1000,112,63.0
2482,C#4,289.25,0.562,90,63.0
2483,C#4,289.25,0.562,85,63.0
2484,A2,289.25,21/1000,116,63.0
2485,B3,289.25,0.25,118,63.0
2486,F#3,289.25,0.25,118,63.0
2487,F2,289.5,21/1000,108,63.0
2488,C#4,289.5,0.5,118,63.0
2489,F#3,289.5,0.5,118,63.0
2490,C#4,289.5,0.5,118,63.0
2491,E4,289.75,0.562,90,63.0
2492,E4,289.75,0.562,85,63.0
2493,B2,290.0,1.0,118,63.0
2494,B1,290.0,1.0,115,63.0
2495,B1,290.0,1.0,110,63.0
2496,B3,290.0,1979/1000,105,63.0
2497,C2,290.0,21/1000,116,63.0
2498,E4,290.0,0.5,118,63.0
2499,F#3,290.0,0.5,118,63.0
2500,E-4,290.25,0.562,90,63.0
2501,E-4,290.25,0.562,85,63.0
2502,E-4,290.5,0.5,118,63.0
2503,F#3,290.5,0.5,118,63.0
2504,E-4,290.5,0.5,118,63.0
2505,C#4,290.75,0.312,90,63.0
2506,C#4,290.75,0.312,85,63.0
2507,D2,290.75,21/1000,108,63.0
2508,B2,291.0,1.0,118,63.0
2509,B1,291.0,1.0,115,63.0
2510,B1,291.0,1.0,110,63.0
2511,E-4,291.0,0.562,90,63.0
2512,E-4,291.0,0.562,85,63.0
2513,D2,291.0,21/1000,116,63.0
2514,C#4,291.0,0.25,118,63.0
2515,F#3,291.0,0.25,118,63.0
2516,E-4,291.25,0.5,118,63.0
2517,F#3,291.25,0.5,118,63.0
2518,E-4,291.25,0.5,118,63.0
2519,B3,291.5,0.5,90,63.0
2520,B3,291.5,0.5,85,63.0
2521,A2,291.5,21/1000,116,63.0
2522,B3,291.75,0.5,118,63.0
2523,F#3,291.75,0.5,118,63.0
2524,E-3,292.0,1.0,118,63.0
2525,E2,292.0,1.0,115,63.0
2526,E2,292.0,1.0,110,63.0
2527,E4,292.0,1979/1000,105,63.0
2528,B3,292.0,1.062,90,63.0
2529,B3,292.0,1.062,85,63.0
2530,C2,292.0,21/1000,116,63.0
2531,C#3,292.0,21/1000,116,63.0
2532,G#3,292.25,0.5,118,63.0
2533,G#3,292.25,0.5,118,63.0
2534,G#5,292.5,0.5,115,63.0
2535,G#4,292.75,0.5,118,63.0
2536,G#5,292.75,0.5,118,63.0
2537,G#5,293.0,0.5,115,63.0
2538,E2,293.0,1.0,115,63.0
2539,E2,293.0,1.0,110,63.0
2540,D2,293.0,21/1000,116,63.0
2541,E4,293.25,1.0,118,63.0
2542,G#4,293.25,0.5,118,63.0
2543,G#5,293.25,0.5,118,63.0
2544,G#5,293.5,0.25,115,63.0
2545,G#5,293.75,0.5,115,63.0
2546,G#4,293.75,0.25,118,63.0
2547,G#5,293.75,0.25,118,63.0
2548,G#3,294.0,1.0,118,63.0
2549,G#2,294.0,1.0,115,63.0
2550,G#2,294.0,1.0,110,63.0
2551,G#4,294.0,1979/1000,105,63.0
2552,C2,294.0,21/1000,116,63.0
2553,G#4,294.0,0.5,118,63.0
2554,G#5,294.0,0.5,118,63.0
2555,G#5,294.25,0.25,115,63.0
2556,E-4,294.25,1.0,118,63.0
2557,G#5,294.5,0.5,115,63.0
2558,G#4,294.5,0.25,118,63.0
2559,G#5,294.5,0.25,118,63.0
2560,D2,294.75,21/1000,108,63.0
2561,G#4,294.75,0.5,118,63.0
2562,G#5,294.75,0.5,118,63.0
2563,G#5,295.0,0.5,115,63.0
2564,G#2,295.0,0.75,118,63.0
2565,G#1,295.0,0.75,115,63.0
2566,G#1,295.0,0.75,110,63.0
2567,D2,295.0,21/1000,116,63.0
2568,E-4,295.25,1.0,118,63.0
2569,G#4,295.25,0.5,118,63.0
2570,G#5,295.25,0.5,118,63.0
2571,F#5,295.5,0.25,115,63.0
2572,D2,295.5,21/1000,108,63.0
2573,F#5,295.75,0.25,115,63.0
2574,B2,295.75,0.25,118,63.0
2575,B1,295.75,0.25,115,63.0
2576,B1,295.75,0.25,110,63.0
2577,F#4,295.75,0.25,118,63.0
2578,F#5,295.75,0.25,118,63.0
2579,F#5,296.0,1.0,115,63.0
2580,F#4,296.0,0.25,118,63.0
2581,F#5,296.0,0.25,118,63.0
2582,B2,296.0,1.0,118,63.0
2583,B1,296.0,1.0,115,63.0
2584,B1,296.0,1.0,110,63.0
2585,F#4,296.0,3979/1000,105,63.0
2586,C2,296.0,21/1000,116,63.0
2587,C#3,296.0,21/1000,116,63.0
2588,E-4,296.25,0.75,118,63.0
2589,F#4,296.25,0.75,118,63.0
2590,F#5,296.25,1.0,118,63.0
2591,B2,297.0,1.0,118,63.0
2592,B1,297.0,1.0,115,63.0
2593,B1,297.0,1.0,110,63.0
2594,C#4,297.0,0.312,90,63.0
2595,C#4,297.0,0.312,85,63.0
2596,D2,297.0,21/1000,116,63.0
2597,C#4,297.0,0.5,118,63.0
2598,B3,297.0,0.5,118,63.0
2599,E-4,297.25,0.312,90,63.0
2600,E-4,297.25,0.312,85,63.0
2601,E-4,297.5,0.312,90,63.0
2602,E-4,297.5,0.312,85,63.0
2603,E-4,297.5,0.75,118,63.0
2604,B3,297.5,0.75,118,63.0
2605,E-4,297.5,0.75,118,63.0
2606,E-4,297.75,0.312,90,63.0
2607,E-4,297.75,0.312,85,63.0
2608,B2,298.0,1.0,118,63.0
2609,B1,298.0,1.0,115,63.0
2610,B1,298.0,1.0,110,63.0
2611,E4,298.0,0.562,90,63.0
2612,E4,298.0,0.562,85,63.0
2613,C2,298.0,21/1000,112,63.0
2614,C3,298.0,21/1000,112,63.0
2615,E4,298.25,0.25,118,63.0
2616,A2,298.25,21/1000,116,63.0
2617,B3,298.25,0.5,118,63.0
2618,E4,298.25,0.5,118,63.0
2619,E4,298.5,0.5,118,63.0
2620,E4,298.5,0.312,90,63.0
2621,E4,298.5,0.312,85,63.0
2622,F2,298.5,21/1000,122,63.0
2623,B4,298.75,0.25,115,63.0
2624,B4,298.75,0.312,90,63.0
2625,B4,298.75,0.312,85,63.0
2626,D2,298.75,21/1000,108,63.0
2627,E4,298.75,0.25,118,63.0
2628,B3,298.75,0.25,118,63.0
2629,B4,299.0,0.25,118,63.0
2630,B2,299.0,1.0,118,63.0
2631,B1,299.0,1.0,115,63.0
2632,B1,299.0,1.0,110,63.0
2633,E4,299.0,0.312,90,63.0
2634,E4,299.0,0.312,85,63.0
2635,D2,299.0,21/1000,116,63.0
2636,E4,299.0,0.5,118,63.0
2637,B3,299.0,0.5,118,63.0
2638,E4,299.25,0.25,118,63.0
2639,E-4,299.25,0.312,90,63.0
2640,E-4,299.25,0.312,85,63.0
2641,E-5,299.5,0.25,115,63.0
2642,E-4,299.5,0.25,118,63.0
2643,E-5,299.5,0.312,90,63.0
2644,E-5,299.5,0.312,85,63.0
2645,C2,299.5,21/1000,108,63.0
2646,B3,299.5,0.5,118,63.0
2647,E-4,299.5,0.5,118,63.0
2648,F#5,299.75,0.25,115,63.0
2649,E-5,299.75,0.25,118,63.0
2650,F#5,299.75,0.25,90,63.0
2651,F#5,299.75,0.25,85,63.0
2652,G#5,300.0,0.5,115,63.0
2653,E3,300.0,1.0,118,63.0
2654,E2,300.0,1.0,115,63.0
2655,E2,300.0,1.0,110,63.0
2656,E4,300.0,1979/1000,105,63.0
2657,G#5,300.0,0.562,90,63.0
2658,F#5,300.0,0.062,90,63.0
2659,G#5,300.0,0.562,85,63.0
2660,F#5,300.0,0.062,85,63.0
2661,B3,300.0,0.25,118,63.0
2662,F#5,300.0,0.25,118,63.0
2663,C2,300.0,21/1000,116,63.0
2664,C#3,300.0,21/1000,116,63.0
2665,E4,300.25,1.0,118,63.0
2666,G#4,300.25,0.5,118,63.0
2667,G#5,300.25,0.5,118,63.0
2668,G#5,300.5,0.25,115,63.0
2669,G#5,300.75,0.25,115,63.0
2670,G#4,300.75,0.25,118,63.0
2671,G#5,300.75,0.25,118,63.0
2672,G#5,301.0,0.5,115,63.0
2673,E2,301.0,1.0,115,63.0
2674,E2,301.0,1.0,110,63.0
2675,D2,301.0,21/1000,116,63.0
2676,G#4,301.0,0.25,118,63.0
2677,G#5,301.0,0.25,118,63.0
2678,E4,301.25,1.0,118,63.0
2679,G#4,301.25,0.5,118,63.0
2680,G#5,301.25,0.5,118,63.0
2681,G#5,301.5,0.25,115,63.0
2682,G#5,301.75,0.5,115,63.0
2683,G#4,301.75,0.25,118,63.0
2684,G#5,301.75,0.25,118,63.0
2685,G#3,302.0,1.0,118,63.0
2686,G#2,302.0,1.0,115,63.0
2687,G#2,302.0,1.0,110,63.0
2688,G#4,302.0,1979/1000,105,63.0
2689,C2,302.0,21/1000,116,63.0
2690,G#4,302.0,0.5,118,63.0
2691,G#5,302.0,0.5,118,63.0
2692,G#5,302.25,0.5,115,63.0
2693,E-4,302.25,1.0,118,63.0
2694,C2,302.25,21/1000,116,63.0
2695,G#4,302.5,0.5,118,63.0
2696,G#5,302.5,0.5,118,63.0
2697,G#5,302.75,0.5,115,63.0
2698,D2,302.75,21/1000,108,63.0
2699,G#2,303.0,1.0,118,63.0
2700,G#1,303.0,1.0,115,63.0
2701,G#1,303.0,1.0,110,63.0
2702,D2,303.0,21/1000,116,63.0
2703,G#4,303.0,0.5,118,63.0
2704,G#5,303.0,0.5,118,63.0
2705,F#5,303.25,0.25,115,63.0
2706,F#5,303.5,0.25,115,63.0
2707,F#4,303.5,0.25,118,63.0
2708,F#5,303.5,0.25,118,63.0
2709,F#5,303.75,0.25,115,63.0
2710,F#4,303.75,0.25,118,63.0
2711,F#5,303.75,0.25,118,63.0
2712,F#5,304.0,0.5,115,63.0
2713,B2,304.0,1.0,118,63.0
2714,B1,304.0,1.0,115,63.0
2715,B1,304.0,1.0,110,63.0
2716,F#4,304.0,3979/1000,105,63.0
2717,F#4,304.0,0.25,118,63.0
2718,F#5,304.0,0.25,118,63.0
2719,C2,304.0,21/1000,116,63.0
2720,C#3,304.0,21/1000,116,63.0
2721,F#4,304.25,0.5,118,63.0
2722,E-4,304.25,0.5,118,63.0
2723,F#5,304.25,0.5,118,63.0
2724,B4,304.5,0.25,115,63.0
2725,B4,304.75,1.25,115,63.0
2726,B4,304.75,1.312,90,63.0
2727,B4,304.75,1.312,85,63.0
2728,B3,304.75,0.25,118,63.0
2729,C#5,304.75,0.25,118,63.0
2730,B4,305.0,1.25,118,63.0
2731,B2,305.0,0.75,118,63.0
2732,D2,305.0,21/1000,116,63.0
2733,B3,305.0,0.5,118,63.0
2734,F#3,305.0,0.5,118,63.0
2735,C#4,305.5,0.5,118,63.0
2736,F#3,305.5,0.5,118,63.0
2737,B1,305.75,0.25,118,63.0
2738,B1,306.0,1.0,118,63.0
2739,E4,306.0,0.312,90,63.0
2740,E4,306.0,0.312,85,63.0
2741,E4,306.0,0.5,118,63.0
2742,F#3,306.0,0.5,118,63.0
2743,C2,306.0,21/1000,112,63.0
2744,F2,306.0,21/1000,112,63.0
2745,E4,306.25,0.25,118,63.0
2746,E-4,306.25,0.312,90,63.0
2747,E-4,306.25,0.312,85,63.0
2748,C2,306.25,21/1000,108,63.0
2749,A2,306.25,21/1000,108,63.0
2750,E-4,306.5,0.25,118,63.0
2751,E-4,306.5,0.312,90,63.0
2752,E-4,306.5,0.312,85,63.0
2753,F#3,306.5,0.5,118,63.0
2754,E-4,306.5,0.5,118,63.0
2755,D2,306.5,21/1000,108,63.0
2756,C3,306.5,21/1000,108,63.0
2757,E-4,306.75,0.25,118,63.0
2758,C#4,306.75,0.312,90,63.0
2759,C#4,306.75,0.312,85,63.0
2760,D2,306.75,21/1000,108,63.0
2761,B2,307.0,1.0,118,63.0
2762,B1,307.0,1.0,115,63.0
2763,B1,307.0,1.0,110,63.0
2764,E-4,307.0,0.312,90,63.0
2765,E-4,307.0,0.312,85,63.0
2766,D2,307.0,21/1000,116,63.0
2767,C#4,307.0,0.25,118,63.0
2768,F#3,307.0,0.25,118,63.0
2769,C#4,307.0,0.25,118,63.0
2770,E-4,307.25,0.25,118,63.0
2771,E-4,307.25,0.312,90,63.0
2772,E-4,307.25,0.312,85,63.0
2773,F#3,307.25,0.5,118,63.0
2774,E-4,307.25,0.5,118,63.0
2775,E-5,307.5,0.25,115,63.0
2776,E-4,307.5,0.25,118,63.0
2777,E-5,307.5,0.312,90,63.0
2778,E-5,307.5,0.312,85,63.0
2779,D2,307.5,21/1000,108,63.0
2780,E-5,307.75,0.25,115,63.0
2781,E-5,307.75,0.25,90,63.0
2782,E-5,307.75,0.25,85,63.0
2783,E-4,307.75,0.5,118,63.0
2784,B3,307.75,0.5,118,63.0
2785,E-5,307.75,0.5,118,63.0
2786,C#5,308.0,1.5,115,63.0
2787,F#2,308.0,1.0,118,63.0
2788,C#4,308.0,1979/1000,105,63.0
2789,C#5,308.0,1.562,90,63.0
2790,E-5,308.0,0.062,90,63.0
2791,C#5,308.0,1.562,85,63.0
2792,E-5,308.0,0.062,85,63.0
2793,C2,308.0,21/1000,116,63.0
2794,C#3,308.0,21/1000,116,63.0
2795,C#4,308.25,1.5,118,63.0
2796,B-3,308.25,1.5,118,63.0
2797,C#5,308.25,1.5,118,63.0
2798,F#2,309.0,1.0,118,63.0
2799,D2,309.0,21/1000,116,63.0
2800,E-5,309.5,0.25,115,63.0
2801,E-5,309.5,0.312,90,63.0
2802,E-5,309.5,0.312,85,63.0
2803,F#5,309.75,1.75,115,63.0
2804,F#5,309.75,1.812,90,63.0
2805,F#5,309.75,1.812,85,63.0
2806,E-4,309.75,0.25,118,63.0
2807,E-5,309.75,0.25,118,63.0
2808,E-2,310.0,1.0,118,63.0
2809,F#4,310.0,1979/1000,105,63.0
2810,C2,310.0,21/1000,116,63.0
2811,F#4,310.0,1.75,118,63.0
2812,F#5,310.0,1.75,118,63.0
2813,E-4,310.25,1.5,118,63.0
2814,C2,310.25,21/1000,116,63.0
2815,E-3,311.0,1.0,118,63.0
2816,D2,311.0,21/1000,116,63.0
2817,E-5,311.5,0.5,115,63.0
2818,E-5,311.5,0.5,90,63.0
2819,E-5,311.5,0.5,85,63.0
2820,E-4,311.75,0.5,118,63.0
2821,E-5,311.75,0.5,118,63.0
2822,C#5,312.0,1.0,115,63.0
2823,F#2,312.0,1.0,118,63.0
2824,C#4,312.0,3979/1000,105,63.0
2825,C#5,312.0,1.062,90,63.0
2826,E-5,312.0,0.062,90,63.0
2827,C#5,312.0,1.062,85,63.0
2828,E-5,312.0,0.062,85,63.0
2829,C2,312.0,21/1000,116,63.0
2830,C#3,312.0,21/1000,116,63.0
2831,C#4,312.25,1.0,118,63.0
2832,B-3,312.25,1.0,118,63.0
2833,C#5,312.25,1.0,118,63.0
2834,F#3,313.0,0.75,118,63.0
2835,F#4,313.0,0.312,90,63.0
2836,F#4,313.0,0.312,85,63.0
2837,D2,313.0,21/1000,116,63.0
2838,F#4,313.25,0.75,118,63.0
2839,C#4,313.25,0.75,118,63.0
2840,F#4,313.25,0.75,118,63.0
2841,F#4,313.5,0.312,90,63.0
2842,F#4,313.5,0.312,85,63.0
2843,C#3,313.5,21/1000,116,63.0
2844,F#2,313.75,0.25,118,63.0
2845,F#4,314.0,0.25,118,63.0
2846,F#2,314.0,1.0,118,63.0
2847,F#4,314.0,0.312,90,63.0
2848,F#4,314.0,0.312,85,63.0
2849,B-3,314.0,0.5,118,63.0
2850,F#4,314.0,0.5,118,63.0
2851,C2,314.0,21/1000,116,63.0
2852,F2,314.0,21/1000,116,63.0
2853,F#4,314.25,0.25,118,63.0
2854,C2,314.25,21/1000,116,63.0
2855,F#4,314.5,0.312,90,63.0
2856,F#4,314.5,0.312,85,63.0
2857,A2,314.5,21/1000,116,63.0
2858,B3,314.5,0.25,118,63.0
2859,B3,314.5,0.25,118,63.0
2860,F#4,314.75,0.5,118,63.0
2861,D2,314.75,21/1000,108,63.0
2862,C#4,314.75,1.0,118,63.0
2863,F#4,314.75,1.0,118,63.0
2864,C#5,315.0,0.5,115,63.0
2865,F#2,315.0,1.0,118,63.0
2866,C#5,315.0,0.562,90,63.0
2867,C#5,315.0,0.562,85,63.0
2868,D2,315.0,21/1000,116,63.0
2869,F2,315.0,21/1000,116,63.0
2870,C#5,315.25,0.5,118,63.0
2871,E-5,315.5,0.5,115,63.0
2872,E-5,315.5,0.5,90,63.0
2873,E-5,315.5,0.5,85,63.0
2874,D2,315.5,21/1000,115,63.0
2875,C3,315.5,21/1000,115,63.0
2876,E-4,315.75,0.5,118,63.0
2877,E-5,315.75,0.5,118,63.0
2878,E5,316.0,0.75,115,63.0
2879,C#3,316.0,2.0,118,63.0
2880,C#2,316.0,2.0,115,63.0
2881,C#2,316.0,2.0,110,63.0
2882,E4,316.0,3979/1000,105,63.0
2883,E5,316.0,0.812,90,63.0
2884,E-5,316.0,0.062,90,63.0
2885,E5,316.0,0.812,85,63.0
2886,E-5,316.0,0.062,85,63.0
2887,C2,316.0,21/1000,107,63.0
2888,C#3,316.0,21/1000,107,63.0
2889,E5,316.25,0.75,118,63.0
2890,E4,316.25,1.0,118,63.0
2891,C#4,316.25,1.0,118,63.0
2892,E-5,316.75,0.75,115,63.0
2893,E-5,316.75,0.812,90,63.0
2894,E-5,316.75,0.812,85,63.0
2895,E-5,317.0,0.75,118,63.0
2896,D2,317.0,21/1000,107,63.0
2897,C#3,317.0,21/1000,107,63.0
2898,E4,317.25,1.0,118,63.0
2899,C#4,317.25,1.0,118,63.0
2900,C#5,317.5,1.0,115,63.0
2901,C#5,317.5,1.062,90,63.0
2902,C#5,317.5,1.062,85,63.0
2903,C#5,317.75,1.0,118,63.0
2904,C#2,318.0,1.25,118,63.0
2905,C2,318.0,21/1000,116,63.0
2906,C#3,318.0,21/1000,116,63.0
2907,E4,318.25,0.75,118,63.0
2908,C#4,318.25,0.75,118,63.0
2909,B4,318.5,1.5,115,63.0
2910,B4,318.5,1.5,90,63.0
2911,B4,318.5,1.5,85,63.0
2912,B4,318.75,1.5,118,63.0
2913,D2,318.75,21/1000,108,63.0
2914,E4,319.0,0.5,118,63.0
2915,C#4,319.0,0.5,118,63.0
2916,D2,319.0,21/1000,113,63.0
2917,C3,319.0,21/1000,113,63.0
2918,C#3,319.0,21/1000,113,63.0
2919,E-2,319.25,0.75,118,63.0
2920,A2,319.25,21/1000,116,63.0
2921,E-4,319.5,0.75,118,63.0
2922,B3,319.5,0.75,118,63.0
2923,D2,319.5,21/1000,112,63.0
2924,F2,319.5,21/1000,112,63.0
2925,E2,320.0,4.0,118,63.0
2926,E1,320.0,4.0,115,63.0
2927,E1,320.0,4.0,110,63.0
2928,E3,320.0,3979/1000,105,63.0
2929,B4,320.0,0.062,90,63.0
2930,B4,320.0,0.062,85,63.0
2931,C2,320.0,21/1000,116,63.0
2932,C#3,320.0,21/1000,116,63.0
2933,E4,320.25,4.0,118,63.0
2934,B3,320.25,4.0,118,63.0
2935,D2,321.0,21/1000,116,63.0
2936,C2,322.0,21/1000,116,63.0
2937,C2,322.25,21/1000,108,63.0
2938,D2,322.75,21/1000,108,63.0
2939,G#4,323.0,0.5,115,63.0
2940,G#4,323.0,0.562,90,63.0
2941,G#4,323.0,0.562,85,63.0
2942,D2,323.0,21/1000,116,63.0
2943,G#4,323.25,0.5,118,63.0
2944,B4,323.5,0.25,115,63.0
2945,B4,323.5,0.312,90,63.0
2946,B4,323.5,0.312,85,63.0
2947,D2,323.5,21/1000,108,63.0
2948,B4,323.75,0.25,115,63.0
2949,B4,323.75,0.25,118,63.0
2950,B4,323.75,0.25,90,63.0
2951,B4,323.75,0.25,85,63.0
2952,B4,324.0,0.5,115,63.0
2953,B4,324.0,0.25,118,63.0
2954,B2,324.0,1.0,118,63.0
2955,B1,324.0,1.0,115,63.0
2956,B1,324.0,1.0,110,63.0
2957,B3,324.0,3979/1000,105,63.0
2958,B4,324.0,0.562,90,63.0
2959,B4,324.0,0.562,85,63.0
2960,C2,324.0,21/1000,120,63.0
2961,D2,324.0,21/1000,120,63.0
2962,C3,324.0,21/1000,120,63.0
2963,C#3,324.0,21/1000,120,63.0
2964,B4,324.25,0.5,118,63.0
2965,B5,324.5,0.812,90,63.0
2966,B5,324.5,0.812,85,63.0
2967,E-4,324.75,0.75,118,63.0
2968,B3,324.75,0.75,118,63.0
2969,B5,324.75,0.75,118,63.0
2970,F#3,325.0,0.75,118,63.0
2971,D2,325.0,21/1000,116,63.0
2972,A2,325.0,21/1000,116,63.0
2973,F#5,325.25,0.812,90,63.0
2974,F#5,325.25,0.812,85,63.0
2975,D2,325.5,21/1000,116,63.0
2976,C#4,325.5,0.75,118,63.0
2977,F#5,325.5,0.75,118,63.0
2978,B2,325.75,0.25,118,63.0
2979,D2,325.875,21/1000,108,63.0
2980,B2,326.0,1.0,118,63.0
2981,E5,326.0,1.062,90,63.0
2982,E5,326.0,1.062,85,63.0
2983,C2,326.0,21/1000,120,63.0
2984,D2,326.0,21/1000,120,63.0
2985,C3,326.0,21/1000,120,63.0
2986,E5,326.25,1.0,118,63.0
2987,C2,326.25,21/1000,116,63.0
2988,E4,326.25,0.75,118,63.0
2989,B3,326.25,0.75,118,63.0
2990,A2,326.375,21/1000,108,63.0
2991,A2,326.5,21/1000,116,63.0
2992,D2,326.875,21/1000,108,63.0
2993,F2,326.875,21/1000,108,63.0
2994,B2,327.0,1.0,118,63.0
2995,B1,327.0,1.0,115,63.0
2996,B1,327.0,1.0,110,63.0
2997,E-5,327.0,0.312,90,63.0
2998,E-5,327.0,0.312,85,63.0
2999,E-4,327.0,0.5,118,63.0
3000,B3,327.0,0.5,118,63.0
3001,D2,327.0,21/1000,122,63.0
3002,F2,327.0,21/1000,122,63.0
3003,D2,327.125,21/1000,108,63.0
3004,E-5,327.25,0.25,118,63.0
3005,E5,327.25,0.312,90,63.0
3006,E5,327.25,0.312,85,63.0
3007,D2,327.25,21/1000,127,63.0
3008,F#5,327.5,0.5,90,63.0
3009,F#5,327.5,0.5,85,63.0
3010,B3,327.5,0.25,118,63.0
3011,E5,327.5,0.25,118,63.0
3012,C#4,327.75,0.25,118,63.0
3013,F#5,327.75,0.5,118,63.0
3014,E-4,328.0,0.25,118,63.0
3015,G#2,328.0,1.0,118,63.0
3016,G#1,328.0,1.0,115,63.0
3017,G#1,328.0,1.0,110,63.0
3018,G#3,328.0,3979/1000,105,63.0
3019,F#5,328.0,0.062,90,63.0
3020,F#5,328.0,0.062,85,63.0
3021,C2,328.0,21/1000,120,63.0
3022,D2,328.0,21/1000,120,63.0
3023,C3,328.0,21/1000,120,63.0
3024,C#3,328.0,21/1000,120,63.0
3025,B5,328.5,0.812,90,63.0
3026,B5,328.5,0.812,85,63.0
3027,E-4,328.75,0.75,118,63.0
3028,B3,328.75,0.75,118,63.0
3029,B5,328.75,0.75,118,63.0
3030,G#2,329.0,0.75,118,63.0
3031,D2,329.0,21/1000,116,63.0
3032,A2,329.0,21/1000,116,63.0
3033,F#5,329.25,0.812,90,63.0
3034,F#5,329.25,0.812,85,63.0
3035,D2,329.5,21/1000,116,63.0
3036,C#4,329.5,0.75,118,63.0
3037,F#5,329.5,0.75,118,63.0
3038,G#1,329.75,0.25,118,63.0
3039,D2,329.875,21/1000,108,63.0
3040,G#1,330.0,1.0,118,63.0
3041,E5,330.0,1.062,90,63.0
3042,E5,330.0,1.062,85,63.0
3043,D2,330.0,21/1000,116,63.0
3044,C2,330.0,21/1000,116,63.0
3045,C3,330.0,21/1000,116,63.0
3046,E5,330.25,1.0,118,63.0
3047,C2,330.25,21/1000,116,63.0
3048,E4,330.25,0.75,118,63.0
3049,B3,330.25,0.75,118,63.0
3050,A2,330.375,21/1000,108,63.0
3051,A2,330.5,21/1000,127,63.0
3052,D2,330.875,21/1000,108,63.0
3053,F2,330.875,21/1000,108,63.0
3054,G#2,331.0,1.0,118,63.0
3055,G#1,331.0,1.0,115,63.0
3056,G#1,331.0,1.0,110,63.0
3057,E-5,331.0,0.312,90,63.0
3058,E-5,331.0,0.312,85,63.0
3059,E-4,331.0,0.5,118,63.0
3060,B3,331.0,0.5,118,63.0
3061,D2,331.0,21/1000,119,63.0
3062,F2,331.0,21/1000,119,63.0
3063,D2,331.125,21/1000,108,63.0
3064,E-5,331.25,0.25,118,63.0
3065,E5,331.25,0.312,90,63.0
3066,E5,331.25,0.312,85,63.0
3067,D2,331.25,21/1000,127,63.0
3068,F#5,331.5,0.5,90,63.0
3069,F#5,331.5,0.5,85,63.0
3070,B3,331.5,0.25,118,63.0
3071,E5,331.5,0.25,118,63.0
3072,C#4,331.75,0.25,118,63.0
3073,F#5,331.75,0.5,118,63.0
3074,E-4,332.0,0.25,118,63.0
3075,F#2,332.0,1.0,118,63.0
3076,F#1,332.0,1.0,115,63.0
3077,F#1,332.0,1.0,110,63.0
3078,F#3,332.0,3979/1000,105,63.0
3079,F#5,332.0,0.062,90,63.0
3080,F#5,332.0,0.062,85,63.0
3081,C2,332.0,21/1000,120,63.0
3082,D2,332.0,21/1000,120,63.0
3083,C3,332.0,21/1000,120,63.0
3084,C#3,332.0,21/1000,120,63.0
3085,B5,332.5,0.812,90,63.0
3086,B5,332.5,0.812,85,63.0
3087,E-4,332.75,0.75,118,63.0
3088,B3,332.75,0.75,118,63.0
3089,B5,332.75,0.75,118,63.0
3090,F#2,333.0,0.75,118,63.0
3091,D2,333.0,21/1000,116,63.0
3092,A2,333.0,21/1000,116,63.0
3093,F#5,333.25,0.812,90,63.0
3094,F#5,333.25,0.812,85,63.0
3095,D2,333.5,21/1000,116,63.0
3096,C#4,333.5,0.75,118,63.0
3097,F#5,333.5,0.75,118,63.0
3098,F#1,333.75,0.25,118,63.0
3099,D2,333.875,21/1000,108,63.0
3100,F#1,334.0,1.0,118,63.0
3101,E5,334.0,1.062,90,63.0
3102,E5,334.0,1.062,85,63.0
3103,D2,334.0,21/1000,116,63.0
3104,C2,334.0,21/1000,116,63.0
3105,C3,334.0,21/1000,116,63.0
3106,E5,334.25,1.0,118,63.0
3107,C2,334.25,21/1000,116,63.0
3108,E4,334.25,0.75,118,63.0
3109,B3,334.25,0.75,118,63.0
3110,A2,334.375,21/1000,108,63.0
3111,A2,334.5,21/1000,127,63.0
3112,D2,334.875,21/1000,108,63.0
3113,F2,334.875,21/1000,108,63.0
3114,E-4,335.0,0.5,118,63.0
3115,F#2,335.0,1.0,118,63.0
3116,F#1,335.0,1.0,115,63.0
3117,F#1,335.0,1.0,110,63.0
3118,E-5,335.0,0.312,90,63.0
3119,E-5,335.0,0.312,85,63.0
3120,D2,335.0,21/1000,119,63.0
3121,F2,335.0,21/1000,119,63.0
3122,D2,335.125,21/1000,108,63.0
3123,E-5,335.25,0.25,118,63.0
3124,E5,335.25,0.312,90,63.0
3125,E5,335.25,0.312,85,63.0
3126,D2,335.25,21/1000,127,63.0
3127,F#5,335.5,0.312,90,63.0
3128,F#5,335.5,0.312,85,63.0
3129,B3,335.5,0.25,118,63.0
3130,E5,335.5,0.25,118,63.0
3131,F#3,335.75,0.5,118,63.0
3132,F#5,335.75,0.25,118,63.0
3133,B5,335.75,0.25,90,63.0
3134,B5,335.75,0.25,85,63.0
3135,B5,336.0,0.25,118,63.0
3136,E2,336.0,4.0,118,63.0
3137,E1,336.0,4.0,115,63.0
3138,E1,336.0,4.0,110,63.0
3139,E3,336.0,3979/1000,105,63.0
3140,E5,336.0,3.812,90,63.0
3141,B5,336.0,0.062,90,63.0
3142,E5,336.0,3.812,85,63.0
3143,B5,336.0,0.062,85,63.0
3144,C2,336.0,21/1000,118,63.0
3145,G#2,336.0,21/1000,118,63.0
3146,C#3,336.0,21/1000,118,63.0
3147,E4,336.25,4.0,118,63.0
3148,B3,336.25,4.0,118,63.0
3149,E5,336.25,4.0,118,63.0
3150,E-3,337.0,21/1000,98,63.0
3151,E-3,337.25,21/1000,116,63.0
3152,E-3,338.0,21/1000,98,63.0
3153,E-3,338.25,21/1000,116,63.0
3154,E-3,339.0,21/1000,98,63.0
3155,E-3,339.25,21/1000,116,63.0
3156,B2,340.0,1.0,118,63.0
3157,B1,340.0,1.0,115,63.0
3158,B1,340.0,1.0,110,63.0
3159,B3,340.0,3979/1000,105,63.0
3160,C2,340.0,21/1000,116,63.0
3161,E-6,340.5,0.812,90,63.0
3162,E-6,340.5,0.812,85,63.0
3163,E-4,340.75,0.75,118,63.0
3164,B3,340.75,0.75,118,63.0
3165,E-6,340.75,0.75,118,63.0
3166,F#3,341.0,0.75,118,63.0
3167,D2,341.0,21/1000,116,63.0
3168,C#6,341.25,0.812,90,63.0
3169,C#6,341.25,0.812,85,63.0
3170,C#4,341.5,0.75,118,63.0
3171,C#6,341.5,0.75,118,63.0
3172,B2,341.75,0.25,118,63.0
3173,B2,342.0,1.0,118,63.0
3174,E6,342.0,0.812,90,63.0
3175,E6,342.0,0.812,85,63.0
3176,C2,342.0,21/1000,116,63.0
3177,C2,342.25,21/1000,108,63.0
3178,E4,342.25,0.75,118,63.0
3179,B3,342.25,0.75,118,63.0
3180,E6,342.25,0.75,118,63.0
3181,E-6,342.75,1.25,90,63.0
3182,E-6,342.75,1.25,85,63.0
3183,D2,342.875,21/1000,108,63.0
3184,E-6,343.0,1.25,118,63.0
3185,B2,343.0,1.0,118,63.0
3186,B1,343.0,1.0,115,63.0
3187,B1,343.0,1.0,110,63.0
3188,E-4,343.0,0.5,118,63.0
3189,B3,343.0,0.5,118,63.0
3190,D2,343.0,21/1000,112,63.0
3191,C3,343.0,21/1000,112,63.0
3192,D2,343.125,21/1000,108,63.0
3193,A2,343.25,21/1000,127,63.0
3194,B3,343.5,0.25,118,63.0
3195,F2,343.5,21/1000,108,63.0
3196,C#4,343.75,0.25,118,63.0
3197,E-4,344.0,0.25,118,63.0
3198,G#2,344.0,1.0,118,63.0
3199,G#1,344.0,1.0,115,63.0
3200,G#1,344.0,1.0,110,63.0
3201,G#3,344.0,3979/1000,105,63.0
3202,E-6,344.0,0.062,90,63.0
3203,E-6,344.0,0.062,85,63.0
3204,C2,344.0,21/1000,116,63.0
3205,E-6,344.5,0.812,90,63.0
3206,E-6,344.5,0.812,85,63.0
3207,E-4,344.75,0.75,118,63.0
3208,B3,344.75,0.75,118,63.0
3209,E-6,344.75,0.75,118,63.0
3210,G#2,345.0,0.75,118,63.0
3211,D2,345.0,21/1000,116,63.0
3212,C#6,345.25,0.812,90,63.0
3213,C#6,345.25,0.812,85,63.0
3214,C#4,345.5,0.75,118,63.0
3215,C#6,345.5,0.75,118,63.0
3216,G#1,345.75,0.25,118,63.0
3217,G#1,346.0,1.0,118,63.0
3218,E6,346.0,0.812,90,63.0
3219,E6,346.0,0.812,85,63.0
3220,C2,346.0,21/1000,116,63.0
3221,C2,346.25,21/1000,108,63.0
3222,E4,346.25,0.75,118,63.0
3223,B3,346.25,0.75,118,63.0
3224,E6,346.25,0.75,118,63.0
3225,E-6,346.75,0.812,90,63.0
3226,E-6,346.75,0.812,85,63.0
3227,D2,346.875,21/1000,108,63.0
3228,E-6,347.0,0.75,118,63.0
3229,G#2,347.0,1.0,118,63.0
3230,G#1,347.0,1.0,115,63.0
3231,G#1,347.0,1.0,110,63.0
3232,E-4,347.0,0.5,118,63.0
3233,B3,347.0,0.5,118,63.0
3234,D2,347.0,21/1000,112,63.0
3235,C3,347.0,21/1000,112,63.0
3236,D2,347.125,21/1000,108,63.0
3237,C2,347.375,21/1000,108,63.0
3238,A2,347.375,21/1000,108,63.0
3239,B3,347.5,0.25,118,63.0
3240,B5,347.5,0.5,90,63.0
3241,B5,347.5,0.5,85,63.0
3242,C#4,347.75,0.25,118,63.0
3243,B5,347.75,0.5,118,63.0
3244,F2,347.75,21/1000,122,63.0
3245,E-4,348.0,0.25,118,63.0
3246,F#2,348.0,1.0,118,63.0
3247,F#1,348.0,1.0,115,63.0
3248,F#1,348.0,1.0,110,63.0
3249,F#3,348.0,3979/1000,105,63.0
3250,B5,348.0,0.062,90,63.0
3251,B5,348.0,0.062,85,63.0
3252,C2,348.0,21/1000,116,63.0
3253,E-6,348.5,0.812,90,63.0
3254,E-6,348.5,0.812,85,63.0
3255,E-4,348.75,0.75,118,63.0
3256,B3,348.75,0.75,118,63.0
3257,E-6,348.75,0.75,118,63.0
3258,F#2,349.0,0.75,118,63.0
3259,D2,349.0,21/1000,116,63.0
3260,C#6,349.25,0.812,90,63.0
3261,C#6,349.25,0.812,85,63.0
3262,C#4,349.5,0.75,118,63.0
3263,C#6,349.5,0.75,118,63.0
3264,F#1,349.75,0.25,118,63.0
3265,F#1,350.0,1.0,118,63.0
3266,E6,350.0,0.812,90,63.0
3267,E6,350.0,0.812,85,63.0
3268,C2,350.0,21/1000,116,63.0
3269,C2,350.25,21/1000,116,63.0
3270,E4,350.25,0.75,118,63.0
3271,B3,350.25,0.75,118,63.0
3272,E6,350.25,0.75,118,63.0
3273,E-6,350.75,0.812,90,63.0
3274,E-6,350.75,0.812,85,63.0
3275,D2,350.875,21/1000,108,63.0
3276,E-6,351.0,0.75,118,63.0
3277,F#2,351.0,1.0,118,63.0
3278,F#1,351.0,1.0,115,63.0
3279,F#1,351.0,1.0,110,63.0
3280,E-4,351.0,0.5,118,63.0
3281,B3,351.0,0.5,118,63.0
3282,D2,351.0,21/1000,112,63.0
3283,C3,351.0,21/1000,112,63.0
3284,D2,351.125,21/1000,108,63.0
3285,C2,351.25,21/1000,112,63.0
3286,A2,351.25,21/1000,112,63.0
3287,D2,351.375,21/1000,108,63.0
3288,B3,351.5,0.25,118,63.0
3289,B5,351.5,0.5,90,63.0
3290,B5,351.5,0.5,85,63.0
3291,F2,351.5,21/1000,116,63.0
3292,F#3,351.75,0.5,118,63.0
3293,B5,351.75,0.5,118,63.0
3294,E2,352.0,4.0,118,63.0
3295,E1,352.0,4.0,115,63.0
3296,E1,352.0,4.0,110,63.0
3297,E3,352.0,3979/1000,105,63.0
3298,G#6,352.0,3.062,90,63.0
3299,B5,352.0,0.062,90,63.0
3300,G#6,352.0,3.062,85,63.0
3301,B5,352.0,0.062,85,63.0
3302,C2,352.0,21/1000,116,63.0
3303,D2,352.0,21/1000,116,63.0
3304,C#3,352.0,21/1000,116,63.0
3305,G#6,352.25,3.0,118,63.0
3306,E4,352.25,4.0,118,63.0
3307,B3,352.25,4.0,118,63.0
3308,C2,353.0,21/1000,116,63.0
3309,D2,353.0,21/1000,116,63.0
3310,C2,354.0,21/1000,116,63.0
3311,C2,354.25,21/1000,116,63.0
3312,D2,354.917,21/1000,108,63.0
3313,F#6,355.0,1.0,90,63.0
3314,F#6,355.0,1.0,85,63.0
3315,C2,355.0,21/1000,116,63.0
3316,D2,355.0,21/1000,116,63.0
3317,C3,355.0,21/1000,116,63.0
3318,D2,355.125,21/1000,108,63.0
3319,F#6,355.25,1.0,118,63.0
3320,A2,355.25,21/1000,127,63.0
3321,A2,355.25,0.75,116,63.0
3322,C2,355.5,21/1000,116,63.0
3323,F2,355.5,21/1000,116,63.0
3324,D2,355.75,21/1000,127,63.0
3325,B2,356.0,1.0,118,63.0
3326,B1,356.0,1.0,115,63.0
3327,B1,356.0,1.0,110,63.0
3328,B3,356.0,3979/1000,105,63.0
3329,F#6,356.0,0.062,90,63.0
3330,F#6,356.0,0.062,85,63.0
3331,A2,356.0,4.0,116,63.0
3332,C2,356.0,21/1000,116,63.0
3333,C#3,356.0,21/1000,116,63.0
3334,E-5,356.5,0.812,90,63.0
3335,E-5,356.5,0.812,85,63.0
3336,E-4,356.75,0.75,118,63.0
3337,B3,356.75,0.75,118,63.0
3338,E-6,356.75,0.75,118,63.0
3339,F#3,357.0,0.75,118,63.0
3340,D2,357.0,21/1000,116,63.0
3341,C#5,357.25,0.812,90,63.0
3342,C#5,357.25,0.812,85,63.0
3343,C#4,357.5,0.75,118,63.0
3344,C#6,357.5,0.75,118,63.0
3345,B2,357.75,0.25,118,63.0
3346,B2,358.0,1.0,118,63.0
3347,E5,358.0,0.812,90,63.0
3348,E5,358.0,0.812,85,63.0
3349,C2,358.0,21/1000,116,63.0
3350,C2,358.25,21/1000,116,63.0
3351,E4,358.25,0.75,118,63.0
3352,B3,358.25,0.75,118,63.0
3353,E6,358.25,0.75,118,63.0
3354,E-5,358.75,1.25,90,63.0
3355,E-5,358.75,1.25,85,63.0
3356,E-6,359.0,1.25,118,63.0
3357,B2,359.0,1.0,118,63.0
3358,B1,359.0,1.0,115,63.0
3359,B1,359.0,1.0,110,63.0
3360,D2,359.0,21/1000,116,63.0
3361,E-4,359.0,0.5,118,63.0
3362,B3,359.0,0.5,118,63.0
3363,B3,359.5,0.25,118,63.0
3364,E-2,359.5,21/1000,116,63.0
3365,C#4,359.75,0.25,118,63.0
3366,E-4,360.0,0.25,118,63.0
3367,G#2,360.0,1.0,118,63.0
3368,G#1,360.0,1.0,115,63.0
3369,G#1,360.0,1.0,110,63.0
3370,G#3,360.0,3979/1000,105,63.0
3371,E-5,360.0,0.062,90,63.0
3372,E-5,360.0,0.062,85,63.0
3373,C2,360.0,21/1000,116,63.0
3374,A2,360.0,4.0,116,63.0
3375,E-5,360.5,0.812,90,63.0
3376,E-5,360.5,0.812,85,63.0
3377,E-4,360.75,0.75,118,63.0
3378,B3,360.75,0.75,118,63.0
3379,E-6,360.75,0.75,118,63.0
3380,G#2,361.0,0.75,118,63.0
3381,D2,361.0,21/1000,116,63.0
3382,C#5,361.25,0.812,90,63.0
3383,C#5,361.25,0.812,85,63.0
3384,C#4,361.5,0.75,118,63.0
3385,C#6,361.5,0.75,118,63.0
3386,G#1,361.75,0.25,118,63.0
3387,G#1,362.0,1.0,118,63.0
3388,E5,362.0,0.812,90,63.0
3389,E5,362.0,0.812,85,63.0
3390,C2,362.0,21/1000,116,63.0
3391,C2,362.25,21/1000,116,63.0
3392,E4,362.25,0.75,118,63.0
3393,B3,362.25,0.75,118,63.0
3394,E6,362.25,0.75,118,63.0
3395,E-5,362.75,0.812,90,63.0
3396,E-5,362.75,0.812,85,63.0
3397,E-6,363.0,0.75,118,63.0
3398,G#2,363.0,1.0,118,63.0
3399,G#1,363.0,1.0,115,63.0
3400,G#1,363.0,1.0,110,63.0
3401,D2,363.0,21/1000,116,63.0
3402,E-4,363.0,0.5,118,63.0
3403,B3,363.0,0.5,118,63.0
3404,B3,363.5,0.25,118,63.0
3405,B4,363.5,0.5,90,63.0
3406,B4,363.5,0.5,85,63.0
3407,E-2,363.5,21/1000,112,63.0
3408,C3,363.5,21/1000,112,63.0
3409,C#4,363.75,0.25,118,63.0
3410,B5,363.75,0.5,118,63.0
3411,E-2,363.75,21/1000,112,63.0
3412,F2,363.75,21/1000,112,63.0
3413,E-4,364.0,0.25,118,63.0
3414,F#2,364.0,1.0,118,63.0
3415,F#1,364.0,1.0,115,63.0
3416,F#1,364.0,1.0,110,63.0
3417,F#3,364.0,3979/1000,105,63.0
3418,B4,364.0,0.062,90,63.0
3419,B4,364.0,0.062,85,63.0
3420,C2,364.0,21/1000,116,63.0
3421,A2,364.0,3771/1000,116,63.0
3422,E-5,364.5,0.812,90,63.0
3423,E-5,364.5,0.812,85,63.0
3424,E-4,364.75,0.75,118,63.0
3425,B3,364.75,0.75,118,63.0
3426,E-6,364.75,0.75,118,63.0
3427,F#2,365.0,0.75,118,63.0
3428,D2,365.0,21/1000,116,63.0
3429,C#5,365.25,0.812,90,63.0
3430,C#5,365.25,0.812,85,63.0
3431,C#4,365.5,0.75,118,63.0
3432,C#6,365.5,0.75,118,63.0
3433,F#1,365.75,0.25,118,63.0
3434,F#1,366.0,1.0,118,63.0
3435,E5,366.0,0.812,90,63.0
3436,E5,366.0,0.812,85,63.0
3437,C2,366.0,21/1000,116,63.0
3438,C2,366.25,21/1000,116,63.0
3439,E4,366.25,0.75,118,63.0
3440,B3,366.25,0.75,118,63.0
3441,E6,366.25,0.75,118,63.0
3442,E-5,366.75,0.812,90,63.0
3443,E-5,366.75,0.812,85,63.0
3444,E-6,367.0,0.75,118,63.0
3445,F#2,367.0,1.0,118,63.0
3446,F#1,367.0,1.0,115,63.0
3447,F#1,367.0,1.0,110,63.0
3448,D2,367.0,21/1000,116,63.0
3449,E-4,367.0,0.5,118,63.0
3450,B3,367.0,0.5,118,63.0
3451,B3,367.5,0.25,118,63.0
3452,B4,367.5,0.5,90,63.0
3453,B4,367.5,0.5,85,63.0
3454,C2,367.5,21/1000,116,63.0
3455,C3,367.5,21/1000,116,63.0
3456,F2,367.75,21/1000,116,63.0
3457,A2,367.75,0.25,116,63.0
3458,F#3,367.75,0.5,118,63.0
3459,B5,367.75,0.5,118,63.0
3460,E2,368.0,4.0,118,63.0
3461,E1,368.0,4.0,115,63.0
3462,E1,368.0,4.0,110,63.0
3463,E3,368.0,3979/1000,105,63.0
3464,G#5,368.0,3.062,90,63.0
3465,B4,368.0,0.062,90,63.0
3466,G#5,368.0,3.062,85,63.0
3467,B4,368.0,0.062,85,63.0
3468,A2,368.0,3771/1000,116,63.0
3469,C2,368.0,21/1000,116,63.0
3470,C#3,368.0,21/1000,116,63.0
3471,G#6,368.25,3.0,118,63.0
3472,E4,368.25,4.0,118,63.0
3473,B3,368.25,4.0,118,63.0
3474,C2,369.0,21/1000,116,63.0
3475,D2,369.0,21/1000,116,63.0
3476,C2,370.0,21/1000,116,63.0
3477,D2,370.0,21/1000,116,63.0
3478,C2,370.25,21/1000,116,63.0
3479,D2,370.25,21/1000,116,63.0
3480,D2,370.875,21/1000,108,63.0
3481,F#5,371.0,1.0,90,63.0
3482,F#5,371.0,1.0,85,63.0
3483,C2,371.0,21/1000,116,63.0
3484,D2,371.0,21/1000,116,63.0
3485,D2,371.125,21/1000,108,63.0
3486,F#6,371.25,1.0,118,63.0
3487,C2,371.25,21/1000,116,63.0
3488,D2,371.25,21/1000,116,63.0
3489,C3,371.5,21/1000,116,63.0
3490,F2,371.625,21/1000,116,63.0
3491,A2,371.75,0.25,116,63.0
3492,F2,371.875,21/1000,116,63.0
3493,B2,372.0,1.0,118,63.0
3494,B1,372.0,1.0,115,63.0
3495,B1,372.0,1.0,110,63.0
3496,B3,372.0,3979/1000,105,63.0
3497,F#5,372.0,0.062,90,63.0
3498,F#5,372.0,0.062,85,63.0
3499,A2,372.0,4.0,116,63.0
3500,C2,372.0,21/1000,116,63.0
3501,C#3,372.0,21/1000,116,63.0
3502,E-6,372.5,0.812,90,63.0
3503,E-6,372.5,0.812,85,63.0
3504,E-4,372.75,0.75,118,63.0
3505,B3,372.75,0.75,118,63.0
3506,E-6,372.75,0.75,118,63.0
3507,F#3,373.0,0.75,118,63.0
3508,D2,373.0,21/1000,116,63.0
3509,C#6,373.25,0.812,90,63.0
3510,C#6,373.25,0.812,85,63.0
3511,C#4,373.5,0.75,118,63.0
3512,C#6,373.5,0.75,118,63.0
3513,B2,373.75,0.25,118,63.0
3514,B2,374.0,1.0,118,63.0
3515,E6,374.0,0.812,90,63.0
3516,E6,374.0,0.812,85,63.0
3517,C2,374.0,21/1000,112,63.0
3518,C#3,374.0,21/1000,112,63.0
3519,C2,374.25,21/1000,116,63.0
3520,E4,374.25,0.75,118,63.0
3521,B3,374.25,0.75,118,63.0
3522,E6,374.25,0.75,118,63.0
3523,E-6,374.75,1.25,90,63.0
3524,E-6,374.75,1.25,85,63.0
3525,E-6,375.0,1.25,118,63.0
3526,B2,375.0,1.0,118,63.0
3527,B1,375.0,1.0,115,63.0
3528,B1,375.0,1.0,110,63.0
3529,D2,375.0,21/1000,116,63.0
3530,E-4,375.0,0.5,118,63.0
3531,B3,375.0,0.5,118,63.0
3532,B3,375.5,0.25,118,63.0
3533,C#4,375.75,0.25,118,63.0
3534,E-4,376.0,0.25,118,63.0
3535,G#2,376.0,1.0,118,63.0
3536,G#1,376.0,1.0,115,63.0
3537,G#1,376.0,1.0,110,63.0
3538,G#3,376.0,3979/1000,105,63.0
3539,E-6,376.0,0.062,90,63.0
3540,E-6,376.0,0.062,85,63.0
3541,A2,376.0,3271/1000,116,63.0
3542,C2,376.0,21/1000,116,63.0
3543,C#3,376.0,21/1000,116,63.0
3544,E-6,376.5,0.812,90,63.0
3545,E-6,376.5,0.812,85,63.0
3546,E-4,376.75,0.75,118,63.0
3547,B3,376.75,0.75,118,63.0
3548,E-6,376.75,0.75,118,63.0
3549,G#2,377.0,0.75,118,63.0
3550,D2,377.0,21/1000,116,63.0
3551,C#6,377.25,0.812,90,63.0
3552,C#6,377.25,0.812,85,63.0
3553,C#4,377.5,0.75,118,63.0
3554,C#6,377.5,0.75,118,63.0
3555,G#1,377.75,0.25,118,63.0
3556,G#1,378.0,1.0,118,63.0
3557,E6,378.0,0.812,90,63.0
3558,E6,378.0,0.812,85,63.0
3559,C2,378.0,21/1000,107,63.0
3560,C#3,378.0,21/1000,107,63.0
3561,C2,378.25,21/1000,116,63.0
3562,E4,378.25,0.75,118,63.0
3563,B3,378.25,0.75,118,63.0
3564,E6,378.25,0.75,118,63.0
3565,E-6,378.75,0.812,90,63.0
3566,E-6,378.75,0.812,85,63.0
3567,E-6,379.0,0.75,118,63.0
3568,G#2,379.0,1.0,118,63.0
3569,G#1,379.0,1.0,115,63.0
3570,G#1,379.0,1.0,110,63.0
3571,D2,379.0,21/1000,116,63.0
3572,E-4,379.0,0.5,118,63.0
3573,B3,379.0,0.5,118,63.0
3574,A2,379.25,521/1000,122,63.0
3575,B3,379.5,0.25,118,63.0
3576,B5,379.5,0.5,90,63.0
3577,B5,379.5,0.5,85,63.0
3578,C2,379.5,21/1000,98,63.0
3579,C3,379.5,21/1000,98,63.0
3580,C#4,379.75,0.25,118,63.0
3581,B5,379.75,0.5,118,63.0
3582,F2,379.75,21/1000,98,63.0
3583,A2,379.75,0.25,98,63.0
3584,E-4,380.0,0.25,118,63.0
3585,F#2,380.0,1.0,118,63.0
3586,F#1,380.0,1.0,115,63.0
3587,F#1,380.0,1.0,110,63.0
3588,F#3,380.0,3979/1000,105,63.0
3589,B5,380.0,0.062,90,63.0
3590,B5,380.0,0.062,85,63.0
3591,A2,380.0,3771/1000,98,63.0
3592,C2,380.0,21/1000,116,63.0
3593,C#3,380.0,21/1000,116,63.0
3594,E-6,380.5,0.812,90,63.0
3595,E-6,380.5,0.812,85,63.0
3596,E-4,380.75,0.75,118,63.0
3597,B3,380.75,0.75,118,63.0
3598,E-6,380.75,0.75,118,63.0
3599,F#2,381.0,0.75,118,63.0
3600,D2,381.0,21/1000,116,63.0
3601,C#6,381.25,0.812,90,63.0
3602,C#6,381.25,0.812,85,63.0
3603,C#4,381.5,0.75,118,63.0
3604,C#6,381.5,0.75,118,63.0
3605,F#1,381.75,0.25,118,63.0
3606,F#1,382.0,1.0,118,63.0
3607,E6,382.0,0.812,90,63.0
3608,E6,382.0,0.812,85,63.0
3609,C2,382.0,21/1000,107,63.0
3610,C#3,382.0,21/1000,107,63.0
3611,C2,382.25,21/1000,116,63.0
3612,E4,382.25,0.75,118,63.0
3613,B3,382.25,0.75,118,63.0
3614,E6,382.25,0.75,118,63.0
3615,E-6,382.75,0.812,90,63.0
3616,E-6,382.75,0.812,85,63.0
3617,E-6,383.0,0.75,118,63.0
3618,F#2,383.0,1.0,118,63.0
3619,F#1,383.0,1.0,115,63.0
3620,F#1,383.0,1.0,110,63.0
3621,F#3,383.0,979/1000,105,63.0
3622,D2,383.0,21/1000,116,63.0
3623,E-4,383.0,0.5,118,63.0
3624,B3,383.0,0.5,118,63.0
3625,F2,383.25,21/1000,116,63.0
3626,B3,383.5,0.25,118,63.0
3627,B5,383.5,0.5,90,63.0
3628,B5,383.5,0.5,85,63.0
3629,C3,383.5,21/1000,98,63.0
3630,A2,383.75,0.25,108,63.0
3631,F#3,383.75,0.5,118,63.0
3632,B5,383.75,0.5,118,63.0
3633,E2,384.0,4.0,118,63.0
3634,E1,384.0,4.0,115,63.0
3635,E1,384.0,4.0,110,63.0
3636,E3,384.0,3979/1000,105,63.0
3637,E6,384.0,4.0,90,63.0
3638,B5,384.0,0.062,90,63.0
3639,E6,384.0,4.0,85,63.0
3640,B5,384.0,0.062,85,63.0
3641,A2,384.0,573/500,108,63.0
3642,C2,384.0,21/1000,116,63.0
3643,C#3,384.0,21/1000,116,63.0
3644,C#3,384.125,21/1000,98,63.0
3645,E4,384.25,3.0,118,63.0
3646,B3,384.25,4.0,118,63.0
3647,C#3,384.25,21/1000,98,63.0
3648,C#3,384.375,21/1000,98,63.0
3649,C#3,384.5,21/1000,98,63.0
3650,C#3,384.625,21/1000,98,63.0
3651,C#3,384.75,21/1000,98,63.0
3652,C#3,384.875,21/1000,98,63.0
3653,C#3,385.0,21/1000,98,63.0
3654,C#3,385.125,21/1000,98,63.0
3655,E6,388.0,0.062,90,63.0
3656,E6,388.0,0.062,85,63.0
