,note_name,start_time,duration,velocity,tempo
0,D5,10.023,51/100,127,76.0
1,B4,10.49,417/1000,122,76.0
2,G4,10.927,0.617,117,76.0
3,A4,11.513,233/500,123,76.0
4,G4,11.956,11/250,123,76.0
5,G4,12.0,1349/1000,123,76.0
6,B4,13.479,577/500,120,76.0
7,A4,14.586,247/1000,124,76.0
8,G4,14.794,103/500,124,76.0
9,G4,15.0,0.07,124,76.0
10,A4,15.029,279/1000,125,76.0
11,G4,15.24,0.227,117,76.0
12,E4,15.479,237/1000,124,76.0
13,G4,15.711,0.242,113,76.0
14,E4,15.956,0.305,123,76.0
15,D4,16.219,0.242,123,76.0
16,E4,16.453,263/1000,123,76.0
17,D4,16.695,247/1000,122,76.0
18,B3,16.943,307/1000,125,76.0
19,A3,17.219,0.781,123,76.0
20,A3,18.0,1.484,123,76.0
21,D4,19.482,1169/1000,127,76.0
22,D4,20.961,0.039,127,76.0
23,E3,21.0,0.5,127,76.0
24,D4,21.0,0.492,127,76.0
25,B1,21.0,1.5,127,76.0
26,F#2,21.0,0.5,127,76.0
27,G3,21.0,0.5,120,76.0
28,E2,21.0,0.5,120,76.0
29,E4,21.448,477/200,125,76.0
30,B3,21.5,0.5,96,76.0
31,E3,21.5,0.5,104,76.0
32,F#2,21.5,0.5,98,76.0
33,E4,22.0,0.5,99,76.0
34,E3,22.0,0.5,102,76.0
35,F#2,22.0,0.5,95,76.0
36,E4,22.5,0.5,114,76.0
37,E3,22.5,1.5,119,76.0
38,C#2,22.5,1.0,107,76.0
39,F#2,22.5,0.5,113,76.0
40,B3,23.0,0.5,91,76.0
41,F#2,23.0,0.5,95,76.0
42,G3,23.5,0.5,99,76.0
43,B1,23.5,0.5,92,76.0
44,F#2,23.5,0.5,92,76.0
45,B2,24.0,2.5,127,76.0
46,B1,24.0,1.5,127,76.0
47,F#2,24.0,0.5,127,76.0
48,B2,24.0,0.5,122,76.0
49,B1,24.0,0.5,122,76.0
50,D3,24.5,0.5,96,76.0
51,F#2,24.5,0.5,98,76.0
52,F#3,25.0,0.5,99,76.0
53,F#2,25.0,0.5,95,76.0
54,F#3,25.5,0.5,109,76.0
55,C#2,25.5,1.0,107,76.0
56,F#2,25.5,0.5,113,76.0
57,G4,25.982,267/500,125,76.0
58,D3,26.0,0.5,104,76.0
59,F#2,26.0,0.5,95,76.0
60,E4,26.477,101/200,126,76.0
61,B2,26.5,0.5,99,76.0
62,B2,26.5,0.5,111,76.0
63,B1,26.5,0.5,92,76.0
64,F#2,26.5,0.5,92,76.0
65,G4,26.979,21/1000,127,76.0
66,E3,27.0,0.5,127,76.0
67,G4,27.0,1.93,127,76.0
68,B1,27.0,1.5,127,76.0
69,F#2,27.0,0.5,127,76.0
70,G3,27.0,0.5,120,76.0
71,E2,27.0,0.5,120,76.0
72,B3,27.5,0.5,96,76.0
73,E3,27.5,0.5,104,76.0
74,F#2,27.5,0.5,98,76.0
75,E4,28.0,0.5,99,76.0
76,E3,28.0,0.5,102,76.0
77,F#2,28.0,0.5,95,76.0
78,E4,28.5,0.5,114,76.0
79,E3,28.5,1.5,119,76.0
80,C#2,28.5,1.0,107,76.0
81,F#2,28.5,0.5,113,76.0
82,B3,29.0,0.5,91,76.0
83,F#2,29.0,0.5,95,76.0
84,G3,29.5,0.5,99,76.0
85,B1,29.5,0.5,92,76.0
86,F#2,29.5,0.5,92,76.0
87,B2,30.0,2.5,127,76.0
88,B1,30.0,1.5,127,76.0
89,F#2,30.0,0.5,127,76.0
90,B2,30.0,0.5,122,76.0
91,B1,30.0,0.5,122,76.0
92,D3,30.5,0.5,96,76.0
93,F#2,30.5,0.5,98,76.0
94,F#3,31.0,0.5,99,76.0
95,F#2,31.0,0.5,95,76.0
96,G4,31.01,0.492,126,76.0
97,A4,31.461,263/250,125,76.0
98,F#3,31.5,0.5,109,76.0
99,C#2,31.5,1.0,107,76.0
100,F#2,31.5,0.5,113,76.0
101,D3,32.0,0.5,104,76.0
102,F#2,32.0,0.5,95,76.0
103,G4,32.495,101/200,125,76.0
104,B2,32.5,0.5,99,76.0
105,B2,32.5,0.5,111,76.0
106,B1,32.5,0.5,92,76.0
107,F#2,32.5,0.5,92,76.0
108,B4,32.966,17/500,127,76.0
109,E3,33.0,0.5,127,76.0
110,G4,33.0,3/1000,125,76.0
111,B4,33.0,0.875,127,76.0
112,B1,33.0,1.5,127,76.0
113,F#2,33.0,0.5,127,76.0
114,G3,33.0,0.5,120,76.0
115,E2,33.0,0.5,120,76.0
116,B3,33.5,0.5,96,76.0
117,E3,33.5,0.5,104,76.0
118,F#2,33.5,0.5,98,76.0
119,B4,33.971,0.523,125,76.0
120,E4,34.0,0.5,99,76.0
121,E3,34.0,0.5,102,76.0
122,F#2,34.0,0.5,95,76.0
123,E4,34.5,0.5,114,76.0
124,E3,34.5,1.5,119,76.0
125,C#2,34.5,1.0,107,76.0
126,F#2,34.5,0.5,113,76.0
127,B3,35.0,0.5,91,76.0
128,F#2,35.0,0.5,95,76.0
129,G3,35.5,0.5,99,76.0
130,B1,35.5,0.5,92,76.0
131,F#2,35.5,0.5,92,76.0
132,B2,36.0,2.5,127,76.0
133,B1,36.0,1.5,127,76.0
134,F#2,36.0,0.5,127,76.0
135,B2,36.0,0.5,122,76.0
136,B1,36.0,0.5,122,76.0
137,D3,36.5,0.5,96,76.0
138,F#2,36.5,0.5,98,76.0
139,E4,36.508,521/1000,125,76.0
140,D4,36.979,271/1000,125,76.0
141,F#3,37.0,0.5,99,76.0
142,F#2,37.0,0.5,95,76.0
143,D4,37.471,189/500,127,76.0
144,F#3,37.5,0.5,109,76.0
145,C#2,37.5,1.0,107,76.0
146,F#2,37.5,0.5,113,76.0
147,D4,37.964,151/500,123,76.0
148,D3,38.0,0.5,104,76.0
149,F#2,38.0,0.5,95,76.0
150,D4,38.464,529/1000,125,76.0
151,B2,38.5,0.5,99,76.0
152,B2,38.5,0.5,111,76.0
153,B1,38.5,0.5,92,76.0
154,F#2,38.5,0.5,92,76.0
155,E4,38.956,11/250,127,76.0
156,E3,39.0,0.5,127,76.0
157,E4,39.0,304/125,127,76.0
158,B1,39.0,1.5,127,76.0
159,F#2,39.0,0.5,127,76.0
160,G3,39.0,0.5,120,76.0
161,E2,39.0,0.5,120,76.0
162,B3,39.5,0.5,96,76.0
163,E3,39.5,0.5,104,76.0
164,F#2,39.5,0.5,98,76.0
165,E4,40.0,0.5,99,76.0
166,E3,40.0,0.5,102,76.0
167,F#2,40.0,0.5,95,76.0
168,E4,40.5,0.5,114,76.0
169,E3,40.5,1.5,119,76.0
170,C#2,40.5,1.0,107,76.0
171,F#2,40.5,0.5,113,76.0
172,B3,41.0,0.5,91,76.0
173,F#2,41.0,0.5,95,76.0
174,G3,41.5,0.5,99,76.0
175,B1,41.5,0.5,92,76.0
176,F#2,41.5,0.5,92,76.0
177,B2,42.0,2.5,127,76.0
178,B1,42.0,1.5,127,76.0
179,F#2,42.0,0.5,127,76.0
180,B2,42.0,0.5,122,76.0
181,B1,42.0,0.5,122,76.0
182,D3,42.5,0.5,96,76.0
183,F#2,42.5,0.5,98,76.0
184,F#3,43.0,0.5,99,76.0
185,F#2,43.0,0.5,95,76.0
186,E4,43.01,471/1000,126,76.0
187,G4,43.484,503/1000,127,76.0
188,F#3,43.5,0.5,109,76.0
189,C#2,43.5,1.0,107,76.0
190,F#2,43.5,0.5,113,76.0
191,E4,43.971,0.305,127,76.0
192,D3,44.0,0.5,104,76.0
193,F#2,44.0,0.5,95,76.0
194,E4,44.453,0.547,125,76.0
195,B2,44.5,0.5,99,76.0
196,B2,44.5,0.5,111,76.0
197,B1,44.5,0.5,92,76.0
198,F#2,44.5,0.5,92,76.0
199,G4,44.984,0.016,127,76.0
200,E3,45.0,0.5,127,76.0
201,E4,45.0,0.016,125,76.0
202,G4,45.0,509/250,127,76.0
203,B1,45.0,1.5,127,76.0
204,F#2,45.0,0.5,127,76.0
205,G3,45.0,0.5,120,76.0
206,E2,45.0,0.5,120,76.0
207,B3,45.5,0.5,96,76.0
208,E3,45.5,0.5,104,76.0
209,F#2,45.5,0.5,98,76.0
210,E4,46.0,0.5,99,76.0
211,E3,46.0,0.5,102,76.0
212,F#2,46.0,0.5,95,76.0
213,E4,46.5,0.5,114,76.0
214,E3,46.5,1.5,119,76.0
215,C#2,46.5,1.0,107,76.0
216,F#2,46.5,0.5,113,76.0
217,B3,47.0,0.5,91,76.0
218,F#2,47.0,0.5,95,76.0
219,G3,47.5,0.5,99,76.0
220,B1,47.5,0.5,92,76.0
221,F#2,47.5,0.5,92,76.0
222,B2,48.0,2.5,127,76.0
223,B1,48.0,1.5,127,76.0
224,F#2,48.0,0.5,127,76.0
225,B2,48.0,0.5,122,76.0
226,B1,48.0,0.5,122,76.0
227,D3,48.5,0.5,96,76.0
228,F#2,48.5,0.5,98,76.0
229,D4,48.964,49/200,124,76.0
230,F#3,49.0,0.5,99,76.0
231,F#2,49.0,0.5,95,76.0
232,D4,49.458,307/1000,124,76.0
233,F#3,49.5,0.5,109,76.0
234,C#2,49.5,1.0,107,76.0
235,F#2,49.5,0.5,113,76.0
236,D3,50.0,0.5,104,76.0
237,F#2,50.0,0.5,95,76.0
238,D4,50.003,37/200,124,76.0
239,D4,50.474,263/500,124,76.0
240,B2,50.5,0.5,99,76.0
241,B2,50.5,0.5,111,76.0
242,B1,50.5,0.5,92,76.0
243,F#2,50.5,0.5,92,76.0
244,E4,50.982,9/500,124,76.0
245,E3,51.0,0.5,127,76.0
246,D4,51.0,0.055,124,76.0
247,E4,51.0,3.0,124,76.0
248,B1,51.0,1.5,127,76.0
249,F#2,51.0,0.5,127,76.0
250,G3,51.0,0.5,120,76.0
251,E2,51.0,0.5,120,76.0
252,B3,51.5,0.5,96,76.0
253,E3,51.5,0.5,104,76.0
254,F#2,51.5,0.5,98,76.0
255,E4,52.0,0.5,99,76.0
256,E3,52.0,0.5,102,76.0
257,F#2,52.0,0.5,95,76.0
258,E4,52.5,0.5,114,76.0
259,E3,52.5,1.5,119,76.0
260,C#2,52.5,1.0,107,76.0
261,F#2,52.5,0.5,113,76.0
262,B3,53.0,0.5,91,76.0
263,F#2,53.0,0.5,95,76.0
264,G3,53.5,0.5,99,76.0
265,B1,53.5,0.5,92,76.0
266,F#2,53.5,0.5,92,76.0
267,B2,54.0,2.5,127,76.0
268,E4,54.0,0.867,124,76.0
269,B1,54.0,1.5,127,76.0
270,F#2,54.0,0.5,127,76.0
271,B2,54.0,0.5,122,76.0
272,B1,54.0,0.5,122,76.0
273,D3,54.5,0.5,96,76.0
274,F#2,54.5,0.5,98,76.0
275,F#3,55.0,0.5,99,76.0
276,F#2,55.0,0.5,95,76.0
277,B4,55.466,101/250,126,76.0
278,F#3,55.5,0.5,109,76.0
279,C#2,55.5,1.0,107,76.0
280,F#2,55.5,0.5,113,76.0
281,B4,55.964,417/1000,123,76.0
282,D3,56.0,0.5,104,76.0
283,F#2,56.0,0.5,95,76.0
284,B4,56.458,93/250,124,76.0
285,B2,56.5,0.5,99,76.0
286,B2,56.5,0.5,111,76.0
287,B1,56.5,0.5,92,76.0
288,F#2,56.5,0.5,92,76.0
289,B-4,56.99,1/100,127,76.0
290,E3,57.0,0.5,127,76.0
291,B-4,57.0,29/125,127,76.0
292,B1,57.0,1.5,127,76.0
293,F#2,57.0,0.5,127,76.0
294,G3,57.0,0.5,120,76.0
295,E2,57.0,0.5,120,76.0
296,A4,57.208,247/1000,125,76.0
297,G4,57.458,1.852,126,76.0
298,B3,57.5,0.5,96,76.0
299,E3,57.5,0.5,104,76.0
300,F#2,57.5,0.5,98,76.0
301,E4,58.0,0.5,99,76.0
302,E3,58.0,0.5,102,76.0
303,F#2,58.0,0.5,95,76.0
304,E4,58.5,0.5,114,76.0
305,E3,58.5,1.5,119,76.0
306,C#2,58.5,1.0,107,76.0
307,F#2,58.5,0.5,113,76.0
308,B3,59.0,0.5,91,76.0
309,F#2,59.0,0.5,95,76.0
310,G3,59.5,0.5,99,76.0
311,B1,59.5,0.5,92,76.0
312,F#2,59.5,0.5,92,76.0
313,B2,60.0,2.5,127,76.0
314,B1,60.0,1.5,127,76.0
315,F#2,60.0,0.5,127,76.0
316,B2,60.0,0.5,122,76.0
317,B1,60.0,0.5,122,76.0
318,D3,60.5,0.5,96,76.0
319,F#2,60.5,0.5,98,76.0
320,E4,60.987,451/1000,126,76.0
321,F#3,61.0,0.5,99,76.0
322,F#2,61.0,0.5,95,76.0
323,G4,61.44,259/500,126,76.0
324,F#3,61.5,0.5,109,76.0
325,C#2,61.5,1.0,107,76.0
326,F#2,61.5,0.5,113,76.0
327,E4,61.94,0.359,121,76.0
328,D3,62.0,0.5,104,76.0
329,F#2,62.0,0.5,95,76.0
330,E4,62.453,0.219,120,76.0
331,B2,62.5,0.5,99,76.0
332,B2,62.5,0.5,111,76.0
333,B1,62.5,0.5,92,76.0
334,F#2,62.5,0.5,92,76.0
335,E4,62.938,0.062,124,76.0
336,E3,63.0,0.5,127,76.0
337,E4,63.0,137/200,124,76.0
338,B1,63.0,1.5,127,76.0
339,F#2,63.0,0.5,127,76.0
340,G3,63.0,0.5,120,76.0
341,E2,63.0,0.5,120,76.0
342,B3,63.5,0.5,96,76.0
343,E3,63.5,0.5,104,76.0
344,F#2,63.5,0.5,98,76.0
345,D4,63.664,0.242,117,76.0
346,B3,63.94,1.727,115,76.0
347,E4,64.0,0.5,99,76.0
348,E3,64.0,0.5,102,76.0
349,F#2,64.0,0.5,95,76.0
350,E4,64.5,0.5,114,76.0
351,E3,64.5,1.5,119,76.0
352,C#2,64.5,1.0,107,76.0
353,F#2,64.5,0.5,113,76.0
354,B3,65.0,0.5,91,76.0
355,F#2,65.0,0.5,95,76.0
356,G3,65.5,0.5,99,76.0
357,B1,65.5,0.5,92,76.0
358,F#2,65.5,0.5,92,76.0
359,B2,66.0,2.5,127,76.0
360,B1,66.0,1.5,127,76.0
361,F#2,66.0,0.5,127,76.0
362,B2,66.0,0.5,122,76.0
363,B1,66.0,0.5,122,76.0
364,B3,66.026,0.508,127,76.0
365,D4,66.474,557/1000,121,76.0
366,D3,66.5,0.5,96,76.0
367,F#2,66.5,0.5,98,76.0
368,E4,66.979,177/500,127,76.0
369,F#3,67.0,0.5,99,76.0
370,F#2,67.0,0.5,95,76.0
371,E4,67.484,58/125,127,76.0
372,F#3,67.5,0.5,109,76.0
373,C#2,67.5,1.0,107,76.0
374,F#2,67.5,0.5,113,76.0
375,G4,67.94,31/100,127,76.0
376,D3,68.0,0.5,104,76.0
377,F#2,68.0,0.5,95,76.0
378,G4,68.427,0.344,127,76.0
379,B2,68.5,0.5,99,76.0
380,B2,68.5,0.5,111,76.0
381,B1,68.5,0.5,92,76.0
382,F#2,68.5,0.5,92,76.0
383,G4,68.987,13/1000,127,76.0
384,E3,69.0,2.5,127,76.0
385,G4,69.0,259/250,127,76.0
386,B1,69.0,1.0,127,76.0
387,G3,69.0,0.5,127,76.0
388,E4,69.0,0.5,127,76.0
389,B3,69.0,0.5,127,76.0
390,E2,69.0,0.5,127,76.0
391,E3,69.0,0.5,127,76.0
392,E-3,69.0,0.5,127,76.0
393,G3,69.0,0.5,127,76.0
394,F#2,69.0,0.5,127,76.0
395,G4,69.5,0.5,101,76.0
396,G3,69.5,0.5,101,76.0
397,E4,69.5,0.5,101,76.0
398,B3,69.5,0.5,101,76.0
399,E-3,69.5,0.5,99,76.0
400,F#2,69.5,0.5,99,76.0
401,E4,69.992,987/1000,126,76.0
402,G4,70.0,0.5,104,76.0
403,G3,70.0,0.5,104,76.0
404,E4,70.0,0.5,104,76.0
405,B3,70.0,0.5,104,76.0
406,E-3,70.0,0.5,95,76.0
407,B1,70.0,0.5,95,76.0
408,F#2,70.0,0.5,95,76.0
409,D2,70.5,1.0,111,76.0
410,G4,70.5,0.5,116,76.0
411,G3,70.5,0.5,116,76.0
412,E4,70.5,0.5,116,76.0
413,B3,70.5,0.5,116,76.0
414,E-3,70.5,0.5,116,76.0
415,F#2,70.5,0.5,116,76.0
416,B4,70.977,513/1000,126,76.0
417,G3,71.0,0.5,98,76.0
418,E4,71.0,0.5,98,76.0
419,B3,71.0,0.5,98,76.0
420,G4,71.0,0.5,98,76.0
421,E4,71.0,0.5,98,76.0
422,E-3,71.0,0.5,102,76.0
423,F#2,71.0,0.5,102,76.0
424,A4,71.458,271/500,126,76.0
425,E3,71.5,0.5,98,76.0
426,B3,71.5,0.5,96,76.0
427,G4,71.5,0.5,99,76.0
428,G3,71.5,0.5,99,76.0
429,E4,71.5,0.5,99,76.0
430,B3,71.5,0.5,99,76.0
431,E-3,71.5,0.5,93,76.0
432,B1,71.5,0.5,93,76.0
433,F#2,71.5,0.5,93,76.0
434,B4,71.984,0.016,125,76.0
435,B3,72.0,0.5,127,76.0
436,B2,72.0,1.5,127,76.0
437,A4,72.0,0.023,126,76.0
438,B4,72.0,69/250,125,76.0
439,F#3,72.0,3.0,127,76.0
440,B2,72.0,3.0,127,76.0
441,D4,72.0,1.5,119,76.0
442,B3,72.0,1.5,119,76.0
443,E-3,72.0,0.5,127,76.0
444,B1,72.0,0.5,127,76.0
445,F#2,72.0,0.5,127,76.0
446,A4,72.232,147/500,125,76.0
447,G4,72.482,1.086,125,76.0
448,D4,72.5,0.5,101,76.0
449,B3,72.5,0.5,101,76.0
450,E-3,72.5,0.5,99,76.0
451,B1,72.5,0.5,99,76.0
452,F#2,72.5,0.5,99,76.0
453,D4,73.0,0.5,104,76.0
454,B3,73.0,0.5,104,76.0
455,F#4,73.0,0.5,104,76.0
456,E-3,73.0,0.5,95,76.0
457,B1,73.0,0.5,95,76.0
458,F#2,73.0,0.5,95,76.0
459,B2,73.5,0.5,116,76.0
460,D4,73.5,0.5,116,76.0
461,B3,73.5,0.5,116,76.0
462,F#4,73.5,0.5,116,76.0
463,B4,73.5,0.5,116,76.0
464,E-3,73.5,0.5,116,76.0
465,D2,73.5,0.5,116,76.0
466,F#2,73.5,0.5,116,76.0
467,D3,74.0,0.5,99,76.0
468,D4,74.0,0.5,98,76.0
469,B3,74.0,0.5,98,76.0
470,F#4,74.0,0.5,98,76.0
471,E-3,74.0,0.5,102,76.0
472,B1,74.0,0.5,102,76.0
473,F#2,74.0,0.5,102,76.0
474,D4,74.479,503/1000,126,76.0
475,B2,74.5,0.5,99,76.0
476,D4,74.5,0.5,99,76.0
477,B3,74.5,0.5,99,76.0
478,E-3,74.5,0.5,92,76.0
479,B1,74.5,0.5,92,76.0
480,G#2,74.5,0.5,92,76.0
481,E4,74.966,17/500,127,76.0
482,E3,75.0,2.5,127,76.0
483,E4,75.0,1.969,127,76.0
484,B1,75.0,1.0,127,76.0
485,G3,75.0,0.5,127,76.0
486,E4,75.0,0.5,127,76.0
487,B3,75.0,0.5,127,76.0
488,E2,75.0,0.5,127,76.0
489,E3,75.0,0.5,127,76.0
490,E-3,75.0,0.5,127,76.0
491,G3,75.0,0.5,127,76.0
492,F#2,75.0,0.5,127,76.0
493,G4,75.5,0.5,101,76.0
494,G3,75.5,0.5,101,76.0
495,E4,75.5,0.5,101,76.0
496,B3,75.5,0.5,101,76.0
497,E-3,75.5,0.5,99,76.0
498,F#2,75.5,0.5,99,76.0
499,G4,76.0,0.5,104,76.0
500,G3,76.0,0.5,104,76.0
501,E4,76.0,0.5,104,76.0
502,B3,76.0,0.5,104,76.0
503,E-3,76.0,0.5,95,76.0
504,B1,76.0,0.5,95,76.0
505,F#2,76.0,0.5,95,76.0
506,D2,76.5,1.0,111,76.0
507,G4,76.5,0.5,116,76.0
508,G3,76.5,0.5,116,76.0
509,E4,76.5,0.5,116,76.0
510,B3,76.5,0.5,116,76.0
511,E-3,76.5,0.5,116,76.0
512,F#2,76.5,0.5,116,76.0
513,G4,76.961,0.531,122,76.0
514,G3,77.0,0.5,98,76.0
515,E4,77.0,0.5,98,76.0
516,B3,77.0,0.5,98,76.0
517,G4,77.0,0.5,98,76.0
518,E4,77.0,0.5,98,76.0
519,E-3,77.0,0.5,102,76.0
520,F#2,77.0,0.5,102,76.0
521,E4,77.492,0.508,124,76.0
522,E3,77.5,0.5,98,76.0
523,B3,77.5,0.5,96,76.0
524,G4,77.5,0.5,99,76.0
525,G3,77.5,0.5,99,76.0
526,E4,77.5,0.5,99,76.0
527,B3,77.5,0.5,99,76.0
528,E-3,77.5,0.5,93,76.0
529,B1,77.5,0.5,93,76.0
530,F#2,77.5,0.5,93,76.0
531,G4,77.984,0.016,124,76.0
532,B3,78.0,0.5,127,76.0
533,B2,78.0,1.5,127,76.0
534,G4,78.0,113/200,124,76.0
535,F#3,78.0,3.0,127,76.0
536,B2,78.0,3.0,127,76.0
537,D4,78.0,1.5,119,76.0
538,B3,78.0,1.5,119,76.0
539,E-3,78.0,0.5,127,76.0
540,B1,78.0,0.5,127,76.0
541,F#2,78.0,0.5,127,76.0
542,D4,78.5,0.5,101,76.0
543,B3,78.5,0.5,101,76.0
544,E-3,78.5,0.5,99,76.0
545,B1,78.5,0.5,99,76.0
546,F#2,78.5,0.5,99,76.0
547,B3,78.995,557/1000,126,76.0
548,D4,79.0,0.5,104,76.0
549,B3,79.0,0.5,104,76.0
550,F#4,79.0,0.5,104,76.0
551,E-3,79.0,0.5,95,76.0
552,B1,79.0,0.5,95,76.0
553,F#2,79.0,0.5,95,76.0
554,B2,79.5,0.5,116,76.0
555,D4,79.5,549/1000,125,76.0
556,D4,79.5,0.5,116,76.0
557,B3,79.5,0.5,116,76.0
558,F#4,79.5,0.5,116,76.0
559,B4,79.5,0.5,116,76.0
560,E-3,79.5,0.5,116,76.0
561,D2,79.5,0.5,116,76.0
562,F#2,79.5,0.5,116,76.0
563,E4,79.984,451/1000,121,76.0
564,D3,80.0,0.5,99,76.0
565,D4,80.0,0.5,98,76.0
566,B3,80.0,0.5,98,76.0
567,F#4,80.0,0.5,98,76.0
568,E-3,80.0,0.5,102,76.0
569,B1,80.0,0.5,102,76.0
570,F#2,80.0,0.5,102,76.0
571,F#4,80.435,113/200,124,76.0
572,B2,80.5,0.5,99,76.0
573,D4,80.5,0.5,99,76.0
574,B3,80.5,0.5,99,76.0
575,E-3,80.5,0.5,92,76.0
576,B1,80.5,0.5,92,76.0
577,G#2,80.5,0.5,92,76.0
578,G4,80.945,0.055,126,76.0
579,E3,81.0,2.5,127,76.0
580,F#4,81.0,29/1000,124,76.0
581,G4,81.0,1021/1000,126,76.0
582,B1,81.0,1.0,127,76.0
583,G3,81.0,0.5,127,76.0
584,E4,81.0,0.5,127,76.0
585,B3,81.0,0.5,127,76.0
586,E2,81.0,0.5,127,76.0
587,E3,81.0,0.5,127,76.0
588,E-3,81.0,0.5,127,76.0
589,G3,81.0,0.5,127,76.0
590,F#2,81.0,0.5,127,76.0
591,G4,81.5,0.5,101,76.0
592,G3,81.5,0.5,101,76.0
593,E4,81.5,0.5,101,76.0
594,B3,81.5,0.5,101,76.0
595,E-3,81.5,0.5,99,76.0
596,F#2,81.5,0.5,99,76.0
597,G4,82.0,0.5,104,76.0
598,G3,82.0,0.5,104,76.0
599,E4,82.0,0.5,104,76.0
600,B3,82.0,0.5,104,76.0
601,E-3,82.0,0.5,95,76.0
602,B1,82.0,0.5,95,76.0
603,F#2,82.0,0.5,95,76.0
604,E4,82.018,237/500,125,76.0
605,D2,82.5,1.0,111,76.0
606,G4,82.5,0.5,116,76.0
607,G3,82.5,0.5,116,76.0
608,E4,82.5,0.5,116,76.0
609,B3,82.5,0.5,116,76.0
610,E-3,82.5,0.5,116,76.0
611,F#2,82.5,0.5,116,76.0
612,B4,82.984,549/1000,125,76.0
613,G3,83.0,0.5,98,76.0
614,E4,83.0,0.5,98,76.0
615,B3,83.0,0.5,98,76.0
616,G4,83.0,0.5,98,76.0
617,E4,83.0,0.5,98,76.0
618,E-3,83.0,0.5,102,76.0
619,F#2,83.0,0.5,102,76.0
620,A4,83.487,513/1000,127,76.0
621,E3,83.5,0.5,98,76.0
622,B3,83.5,0.5,96,76.0
623,G4,83.5,0.5,99,76.0
624,G3,83.5,0.5,99,76.0
625,E4,83.5,0.5,99,76.0
626,B3,83.5,0.5,99,76.0
627,E-3,83.5,0.5,93,76.0
628,B1,83.5,0.5,93,76.0
629,F#2,83.5,0.5,93,76.0
630,B4,83.995,1/200,126,76.0
631,B3,84.0,0.5,127,76.0
632,B2,84.0,1.5,127,76.0
633,A4,84.0,13/1000,127,76.0
634,B4,84.0,147/500,126,76.0
635,F#3,84.0,3.0,127,76.0
636,B2,84.0,3.0,127,76.0
637,D4,84.0,1.5,119,76.0
638,B3,84.0,1.5,119,76.0
639,E-3,84.0,0.5,127,76.0
640,B1,84.0,0.5,127,76.0
641,F#2,84.0,0.5,127,76.0
642,A4,84.245,299/1000,123,76.0
643,G4,84.49,1057/1000,124,76.0
644,D4,84.5,0.5,101,76.0
645,B3,84.5,0.5,101,76.0
646,E-3,84.5,0.5,99,76.0
647,B1,84.5,0.5,99,76.0
648,F#2,84.5,0.5,99,76.0
649,D4,85.0,0.5,104,76.0
650,B3,85.0,0.5,104,76.0
651,F#4,85.0,0.5,104,76.0
652,E-3,85.0,0.5,95,76.0
653,B1,85.0,0.5,95,76.0
654,F#2,85.0,0.5,95,76.0
655,B2,85.5,0.5,116,76.0
656,D4,85.5,0.5,116,76.0
657,B3,85.5,0.5,116,76.0
658,F#4,85.5,0.5,116,76.0
659,B4,85.5,0.5,116,76.0
660,E-3,85.5,0.5,116,76.0
661,D2,85.5,0.5,116,76.0
662,F#2,85.5,0.5,116,76.0
663,D4,85.99,0.234,126,76.0
664,D3,86.0,0.5,99,76.0
665,D4,86.0,0.5,98,76.0
666,B3,86.0,0.5,98,76.0
667,F#4,86.0,0.5,98,76.0
668,E-3,86.0,0.5,102,76.0
669,B1,86.0,0.5,102,76.0
670,F#2,86.0,0.5,102,76.0
671,D4,86.484,0.516,125,76.0
672,B2,86.5,0.5,99,76.0
673,D4,86.5,0.5,99,76.0
674,B3,86.5,0.5,99,76.0
675,E-3,86.5,0.5,92,76.0
676,B1,86.5,0.5,92,76.0
677,G#2,86.5,0.5,92,76.0
678,E4,86.982,9/500,125,76.0
679,E3,87.0,2.5,127,76.0
680,D4,87.0,0.031,125,76.0
681,E4,87.0,81/50,125,76.0
682,B1,87.0,1.0,127,76.0
683,G3,87.0,0.5,127,76.0
684,E4,87.0,0.5,127,76.0
685,B3,87.0,0.5,127,76.0
686,E2,87.0,0.5,127,76.0
687,E3,87.0,0.5,127,76.0
688,E-3,87.0,0.5,127,76.0
689,G3,87.0,0.5,127,76.0
690,F#2,87.0,0.5,127,76.0
691,G4,87.5,0.5,101,76.0
692,G3,87.5,0.5,101,76.0
693,E4,87.5,0.5,101,76.0
694,B3,87.5,0.5,101,76.0
695,E-3,87.5,0.5,99,76.0
696,F#2,87.5,0.5,99,76.0
697,G4,88.0,0.5,104,76.0
698,G3,88.0,0.5,104,76.0
699,E4,88.0,0.5,104,76.0
700,B3,88.0,0.5,104,76.0
701,E-3,88.0,0.5,95,76.0
702,B1,88.0,0.5,95,76.0
703,F#2,88.0,0.5,95,76.0
704,D2,88.5,1.0,111,76.0
705,G4,88.5,0.5,116,76.0
706,G3,88.5,0.5,116,76.0
707,E4,88.5,0.5,116,76.0
708,B3,88.5,0.5,116,76.0
709,E-3,88.5,0.5,116,76.0
710,F#2,88.5,0.5,116,76.0
711,G4,88.966,99/200,120,76.0
712,G3,89.0,0.5,98,76.0
713,E4,89.0,0.5,98,76.0
714,B3,89.0,0.5,98,76.0
715,G4,89.0,0.5,98,76.0
716,E4,89.0,0.5,98,76.0
717,E-3,89.0,0.5,102,76.0
718,F#2,89.0,0.5,102,76.0
719,E4,89.461,0.539,121,76.0
720,E3,89.5,0.5,98,76.0
721,B3,89.5,0.5,96,76.0
722,G4,89.5,0.5,99,76.0
723,G3,89.5,0.5,99,76.0
724,E4,89.5,0.5,99,76.0
725,B3,89.5,0.5,99,76.0
726,E-3,89.5,0.5,93,76.0
727,B1,89.5,0.5,93,76.0
728,F#2,89.5,0.5,93,76.0
729,G4,89.987,13/1000,122,76.0
730,B3,90.0,0.5,127,76.0
731,B2,90.0,1.5,127,76.0
732,E4,90.0,3/50,121,76.0
733,G4,90.0,29/125,122,76.0
734,D4,90.0,1.5,119,76.0
735,B3,90.0,1.5,119,76.0
736,E-3,90.0,0.5,127,76.0
737,B1,90.0,0.5,127,76.0
738,F#2,90.0,0.5,127,76.0
739,D4,90.5,0.5,101,76.0
740,B3,90.5,0.5,101,76.0
741,E-3,90.5,0.5,99,76.0
742,B1,90.5,0.5,99,76.0
743,F#2,90.5,0.5,99,76.0
744,D5,91.0,271/1000,124,76.0
745,E5,92.0,443/1000,126,76.0
746,E3,93.0,0.5,127,76.0
747,E5,93.0,0.5,126,76.0
748,B1,93.0,1.5,127,76.0
749,F#2,93.0,0.5,127,76.0
750,G3,93.0,0.5,120,76.0
751,E2,93.0,0.5,120,76.0
752,D5,93.44,67/250,122,76.0
753,B3,93.5,0.5,96,76.0
754,E3,93.5,0.5,104,76.0
755,F#2,93.5,0.5,98,76.0
756,B4,93.69,81/100,121,76.0
757,E4,94.0,0.5,99,76.0
758,E3,94.0,0.5,102,76.0
759,F#2,94.0,0.5,95,76.0
760,E4,94.5,0.5,114,76.0
761,E3,94.5,1.5,119,76.0
762,C#2,94.5,1.0,107,76.0
763,F#2,94.5,0.5,113,76.0
764,A4,94.526,0.484,123,76.0
765,G4,94.945,1.055,123,76.0
766,B3,95.0,0.5,91,76.0
767,F#2,95.0,0.5,95,76.0
768,G3,95.5,0.5,99,76.0
769,B1,95.5,0.5,92,76.0
770,F#2,95.5,0.5,92,76.0
771,B2,96.0,2.5,127,76.0
772,G4,96.0,0.023,123,76.0
773,B1,96.0,1.5,127,76.0
774,F#2,96.0,0.5,127,76.0
775,B2,96.0,0.5,122,76.0
776,B1,96.0,0.5,122,76.0
777,D3,96.5,0.5,96,76.0
778,F#2,96.5,0.5,98,76.0
779,F#3,97.0,0.5,99,76.0
780,F#2,97.0,0.5,95,76.0
781,E4,97.018,0.461,122,76.0
782,G4,97.458,521/1000,122,76.0
783,F#3,97.5,0.5,109,76.0
784,C#2,97.5,1.0,107,76.0
785,F#2,97.5,0.5,113,76.0
786,E4,97.982,69/250,121,76.0
787,D3,98.0,0.5,104,76.0
788,F#2,98.0,0.5,95,76.0
789,E4,98.471,27/200,120,76.0
790,B2,98.5,0.5,99,76.0
791,B2,98.5,0.5,111,76.0
792,B1,98.5,0.5,92,76.0
793,F#2,98.5,0.5,92,76.0
794,E4,98.99,1/100,124,76.0
795,E3,99.0,0.5,127,76.0
796,E4,99.0,0.477,124,76.0
797,B1,99.0,1.5,127,76.0
798,F#2,99.0,0.5,127,76.0
799,G3,99.0,0.5,120,76.0
800,E2,99.0,0.5,120,76.0
801,G4,99.451,2.352,122,76.0
802,B3,99.5,0.5,96,76.0
803,E3,99.5,0.5,104,76.0
804,F#2,99.5,0.5,98,76.0
805,E4,100.0,0.5,99,76.0
806,E3,100.0,0.5,102,76.0
807,F#2,100.0,0.5,95,76.0
808,E4,100.5,0.5,114,76.0
809,E3,100.5,1.5,119,76.0
810,C#2,100.5,1.0,107,76.0
811,F#2,100.5,0.5,113,76.0
812,B3,101.0,0.5,91,76.0
813,F#2,101.0,0.5,95,76.0
814,G3,101.5,0.5,99,76.0
815,B1,101.5,0.5,92,76.0
816,F#2,101.5,0.5,92,76.0
817,B2,102.0,2.5,127,76.0
818,B1,102.0,1.5,127,76.0
819,F#2,102.0,0.5,127,76.0
820,B2,102.0,0.5,122,76.0
821,B1,102.0,0.5,122,76.0
822,D3,102.5,0.5,96,76.0
823,F#2,102.5,0.5,98,76.0
824,G4,102.956,0.555,126,76.0
825,F#3,103.0,0.5,99,76.0
826,F#2,103.0,0.5,95,76.0
827,A4,103.477,253/1000,124,76.0
828,F#3,103.5,0.5,109,76.0
829,C#2,103.5,1.0,107,76.0
830,F#2,103.5,0.5,113,76.0
831,G4,103.703,271/1000,111,76.0
832,A4,103.961,0.258,122,76.0
833,D3,104.0,0.5,104,76.0
834,F#2,104.0,0.5,95,76.0
835,G4,104.203,6/25,120,76.0
836,A4,104.44,147/500,120,76.0
837,B2,104.5,0.5,99,76.0
838,B2,104.5,0.5,111,76.0
839,B1,104.5,0.5,92,76.0
840,F#2,104.5,0.5,92,76.0
841,G4,104.685,63/200,122,76.0
842,B4,104.974,13/500,127,76.0
843,E3,105.0,0.5,127,76.0
844,G4,105.0,1/100,122,76.0
845,B4,105.0,413/500,127,76.0
846,B1,105.0,1.5,127,76.0
847,F#2,105.0,0.5,127,76.0
848,G3,105.0,0.5,120,76.0
849,E2,105.0,0.5,120,76.0
850,B3,105.5,0.5,96,76.0
851,E3,105.5,0.5,104,76.0
852,F#2,105.5,0.5,98,76.0
853,B4,105.971,439/500,123,76.0
854,E4,106.0,0.5,99,76.0
855,E3,106.0,0.5,102,76.0
856,F#2,106.0,0.5,95,76.0
857,E4,106.5,0.5,114,76.0
858,E3,106.5,1.5,119,76.0
859,C#2,106.5,1.0,107,76.0
860,F#2,106.5,0.5,113,76.0
861,B3,107.0,0.5,91,76.0
862,F#2,107.0,0.5,95,76.0
863,G3,107.5,0.5,99,76.0
864,B1,107.5,0.5,92,76.0
865,F#2,107.5,0.5,92,76.0
866,B2,108.0,2.5,127,76.0
867,B1,108.0,1.5,127,76.0
868,F#2,108.0,0.5,127,76.0
869,B2,108.0,0.5,122,76.0
870,B1,108.0,0.5,122,76.0
871,D3,108.5,0.5,96,76.0
872,F#2,108.5,0.5,98,76.0
873,D4,108.971,0.242,126,76.0
874,F#3,109.0,0.5,99,76.0
875,F#2,109.0,0.5,95,76.0
876,D4,109.453,13/50,127,76.0
877,F#3,109.5,0.5,109,76.0
878,C#2,109.5,1.0,107,76.0
879,F#2,109.5,0.5,113,76.0
880,D4,109.927,177/1000,121,76.0
881,D3,110.0,0.5,104,76.0
882,F#2,110.0,0.5,95,76.0
883,D4,110.25,14/125,121,76.0
884,D4,110.495,101/200,124,76.0
885,B2,110.5,0.5,99,76.0
886,B2,110.5,0.5,111,76.0
887,B1,110.5,0.5,92,76.0
888,F#2,110.5,0.5,92,76.0
889,E3,111.0,0.5,127,76.0
890,D4,111.0,0.055,124,76.0
891,B1,111.0,1.5,127,76.0
892,F#2,111.0,0.5,127,76.0
893,G3,111.0,0.5,120,76.0
894,E2,111.0,0.5,120,76.0
895,E4,111.008,0.906,122,76.0
896,B3,111.5,0.5,96,76.0
897,E3,111.5,0.5,104,76.0
898,F#2,111.5,0.5,98,76.0
899,B3,111.943,157/250,122,76.0
900,E4,112.0,0.5,99,76.0
901,E3,112.0,0.5,102,76.0
902,F#2,112.0,0.5,95,76.0
903,E4,112.5,0.5,114,76.0
904,E3,112.5,1.5,119,76.0
905,C#2,112.5,1.0,107,76.0
906,F#2,112.5,0.5,113,76.0
907,D4,112.523,233/500,119,76.0
908,E4,112.992,487/1000,113,76.0
909,B3,113.0,0.5,91,76.0
910,F#2,113.0,0.5,95,76.0
911,G3,113.5,0.5,99,76.0
912,B1,113.5,0.5,92,76.0
913,F#2,113.5,0.5,92,76.0
914,B3,113.516,0.484,120,76.0
915,B2,114.0,2.5,127,76.0
916,B3,114.0,0.047,120,76.0
917,B1,114.0,1.5,127,76.0
918,F#2,114.0,0.5,127,76.0
919,B2,114.0,0.5,122,76.0
920,B1,114.0,0.5,122,76.0
921,D4,114.013,237/500,121,76.0
922,E4,114.432,491/500,124,76.0
923,D3,114.5,0.5,96,76.0
924,F#2,114.5,0.5,98,76.0
925,F#3,115.0,0.5,99,76.0
926,F#2,115.0,0.5,95,76.0
927,B-4,115.372,221/1000,127,76.0
928,B4,115.482,19/50,123,76.0
929,F#3,115.5,0.5,109,76.0
930,C#2,115.5,1.0,107,76.0
931,F#2,115.5,0.5,113,76.0
932,B4,115.977,401/1000,123,76.0
933,D3,116.0,0.5,104,76.0
934,F#2,116.0,0.5,95,76.0
935,B4,116.443,357/1000,122,76.0
936,B2,116.5,0.5,99,76.0
937,B2,116.5,0.5,111,76.0
938,B1,116.5,0.5,92,76.0
939,F#2,116.5,0.5,92,76.0
940,E3,117.0,0.5,127,76.0
941,B1,117.0,1.5,127,76.0
942,F#2,117.0,0.5,127,76.0
943,G3,117.0,0.5,120,76.0
944,E2,117.0,0.5,120,76.0
945,B-4,117.003,103/500,127,76.0
946,A4,117.219,0.258,116,76.0
947,G4,117.474,759/500,125,76.0
948,B3,117.5,0.5,96,76.0
949,E3,117.5,0.5,104,76.0
950,F#2,117.5,0.5,98,76.0
951,E4,118.0,0.5,99,76.0
952,E3,118.0,0.5,102,76.0
953,F#2,118.0,0.5,95,76.0
954,E4,118.5,0.5,114,76.0
955,E3,118.5,1.5,119,76.0
956,C#2,118.5,1.0,107,76.0
957,F#2,118.5,0.5,113,76.0
958,B3,119.0,0.5,91,76.0
959,F#2,119.0,0.5,95,76.0
960,G3,119.5,0.5,99,76.0
961,B1,119.5,0.5,92,76.0
962,F#2,119.5,0.5,92,76.0
963,B2,120.0,2.5,127,76.0
964,B1,120.0,1.5,127,76.0
965,F#2,120.0,0.5,127,76.0
966,B2,120.0,0.5,122,76.0
967,B1,120.0,0.5,122,76.0
968,D3,120.5,0.5,96,76.0
969,F#2,120.5,0.5,98,76.0
970,B3,120.708,339/1000,123,76.0
971,E4,120.997,0.078,122,76.0
972,F#3,121.0,0.5,99,76.0
973,F#2,121.0,0.5,95,76.0
974,E4,121.216,263/1000,122,76.0
975,G4,121.484,0.523,123,76.0
976,F#3,121.5,0.5,109,76.0
977,C#2,121.5,1.0,107,76.0
978,F#2,121.5,0.5,113,76.0
979,E4,121.948,221/1000,121,76.0
980,D3,122.0,0.5,104,76.0
981,F#2,122.0,0.5,95,76.0
982,E4,122.479,28/125,120,76.0
983,B2,122.5,0.5,99,76.0
984,B2,122.5,0.5,111,76.0
985,B1,122.5,0.5,92,76.0
986,F#2,122.5,0.5,92,76.0
987,D4,122.721,27/125,118,76.0
988,E4,122.997,3/1000,115,76.0
989,E3,123.0,0.5,127,76.0
990,E4,123.0,0.469,115,76.0
991,B1,123.0,1.5,127,76.0
992,F#2,123.0,0.5,127,76.0
993,G3,123.0,0.5,120,76.0
994,E2,123.0,0.5,120,76.0
995,D4,123.464,341/1000,120,76.0
996,B3,123.5,0.5,96,76.0
997,E3,123.5,0.5,104,76.0
998,F#2,123.5,0.5,98,76.0
999,E4,123.729,72/125,122,76.0
1000,E4,124.0,0.5,99,76.0
1001,E3,124.0,0.5,102,76.0
1002,F#2,124.0,0.5,95,76.0
1003,G4,124.273,857/500,124,76.0
1004,E4,124.5,0.5,114,76.0
1005,E3,124.5,1.5,119,76.0
1006,C#2,124.5,1.0,107,76.0
1007,F#2,124.5,0.5,113,76.0
1008,B3,125.0,0.5,91,76.0
1009,F#2,125.0,0.5,95,76.0
1010,G3,125.5,0.5,99,76.0
1011,B1,125.5,0.5,92,76.0
1012,F#2,125.5,0.5,92,76.0
1013,B2,126.0,2.5,127,76.0
1014,B1,126.0,1.5,127,76.0
1015,F#2,126.0,0.5,127,76.0
1016,B2,126.0,0.5,122,76.0
1017,B1,126.0,0.5,122,76.0
1018,D3,126.5,0.5,96,76.0
1019,F#2,126.5,0.5,98,76.0
1020,D5,126.982,0.531,124,76.0
1021,F#3,127.0,0.5,99,76.0
1022,F#2,127.0,0.5,95,76.0
1023,E5,127.448,0.359,126,76.0
1024,F#3,127.5,0.5,109,76.0
1025,C#2,127.5,1.0,107,76.0
1026,F#2,127.5,0.5,113,76.0
1027,E5,127.966,0.898,123,76.0
1028,D3,128.0,0.5,104,76.0
1029,F#2,128.0,0.5,95,76.0
1030,B2,128.5,0.5,99,76.0
1031,B2,128.5,0.5,111,76.0
1032,B1,128.5,0.5,92,76.0
1033,F#2,128.5,0.5,92,76.0
1034,E5,128.995,1/200,125,76.0
1035,E3,129.0,0.5,127,76.0
1036,E5,129.0,0.492,125,76.0
1037,B1,129.0,1.5,127,76.0
1038,F#2,129.0,0.5,127,76.0
1039,G3,129.0,0.5,120,76.0
1040,E2,129.0,0.5,120,76.0
1041,D5,129.451,0.289,123,76.0
1042,B3,129.5,0.5,96,76.0
1043,E3,129.5,0.5,104,76.0
1044,F#2,129.5,0.5,98,76.0
1045,B4,129.69,0.852,122,76.0
1046,E4,130.0,0.5,99,76.0
1047,E3,130.0,0.5,102,76.0
1048,F#2,130.0,0.5,95,76.0
1049,E4,130.5,0.5,114,76.0
1050,E3,130.5,1.5,119,76.0
1051,C#2,130.5,1.0,107,76.0
1052,F#2,130.5,0.5,113,76.0
1053,A4,130.536,271/500,123,76.0
1054,B3,131.0,0.5,91,76.0
1055,F#2,131.0,0.5,95,76.0
1056,G4,131.008,841/1000,122,76.0
1057,G3,131.5,0.5,99,76.0
1058,B1,131.5,0.5,92,76.0
1059,F#2,131.5,0.5,92,76.0
1060,A4,131.802,99/500,121,76.0
1061,B2,132.0,2.5,127,76.0
1062,A4,132.0,0.836,121,76.0
1063,B1,132.0,1.5,127,76.0
1064,F#2,132.0,0.5,127,76.0
1065,B2,132.0,0.5,122,76.0
1066,B1,132.0,0.5,122,76.0
1067,D3,132.5,0.5,96,76.0
1068,F#2,132.5,0.5,98,76.0
1069,D4,132.776,0.445,122,76.0
1070,F#3,133.0,0.5,99,76.0
1071,F#2,133.0,0.5,95,76.0
1072,D4,133.435,357/1000,126,76.0
1073,F#3,133.5,0.5,109,76.0
1074,C#2,133.5,1.0,107,76.0
1075,F#2,133.5,0.5,113,76.0
1076,D4,133.966,0.219,123,76.0
1077,D3,134.0,0.5,104,76.0
1078,F#2,134.0,0.5,95,76.0
1079,D4,134.443,557/1000,125,76.0
1080,B2,134.5,0.5,99,76.0
1081,B2,134.5,0.5,111,76.0
1082,B1,134.5,0.5,92,76.0
1083,F#2,134.5,0.5,92,76.0
1084,G4,134.969,0.031,126,76.0
1085,E3,135.0,0.5,127,76.0
1086,D4,135.0,0.023,125,76.0
1087,G4,135.0,57/125,126,76.0
1088,B1,135.0,1.5,127,76.0
1089,F#2,135.0,0.5,127,76.0
1090,G3,135.0,0.5,120,76.0
1091,E2,135.0,0.5,120,76.0
1092,E4,135.451,1779/1000,121,76.0
1093,B3,135.5,0.5,96,76.0
1094,E3,135.5,0.5,104,76.0
1095,F#2,135.5,0.5,98,76.0
1096,E4,136.0,0.5,99,76.0
1097,E3,136.0,0.5,102,76.0
1098,F#2,136.0,0.5,95,76.0
1099,E4,136.5,0.5,114,76.0
1100,E3,136.5,1.5,119,76.0
1101,C#2,136.5,1.0,107,76.0
1102,F#2,136.5,0.5,113,76.0
1103,B3,137.0,0.5,91,76.0
1104,F#2,137.0,0.5,95,76.0
1105,G3,137.5,0.5,99,76.0
1106,B1,137.5,0.5,92,76.0
1107,F#2,137.5,0.5,92,76.0
1108,B2,138.0,2.5,127,76.0
1109,B1,138.0,1.5,127,76.0
1110,F#2,138.0,0.5,127,76.0
1111,B2,138.0,0.5,122,76.0
1112,B1,138.0,0.5,122,76.0
1113,B3,138.026,0.523,127,76.0
1114,D3,138.5,0.5,96,76.0
1115,F#2,138.5,0.5,98,76.0
1116,D4,138.505,0.539,120,76.0
1117,E4,138.992,151/500,126,76.0
1118,F#3,139.0,0.5,99,76.0
1119,F#2,139.0,0.5,95,76.0
1120,E4,139.464,14/25,125,76.0
1121,F#3,139.5,0.5,109,76.0
1122,C#2,139.5,1.0,107,76.0
1123,F#2,139.5,0.5,113,76.0
1124,F#4,139.961,549/1000,126,76.0
1125,D3,140.0,0.5,104,76.0
1126,F#2,140.0,0.5,95,76.0
1127,G4,140.451,159/500,125,76.0
1128,B2,140.5,0.5,99,76.0
1129,B2,140.5,0.5,111,76.0
1130,B1,140.5,0.5,92,76.0
1131,F#2,140.5,0.5,92,76.0
1132,G4,140.99,1/100,127,76.0
1133,E3,141.0,2.5,127,76.0
1134,G4,141.0,521/1000,127,76.0
1135,B1,141.0,1.0,127,76.0
1136,G3,141.0,0.5,127,76.0
1137,E4,141.0,0.5,127,76.0
1138,B3,141.0,0.5,127,76.0
1139,E2,141.0,0.5,127,76.0
1140,E3,141.0,0.5,127,76.0
1141,E-3,141.0,0.5,127,76.0
1142,G3,141.0,0.5,127,76.0
1143,F#2,141.0,0.5,127,76.0
1144,F#4,141.458,583/1000,127,76.0
1145,G4,141.5,0.5,101,76.0
1146,G3,141.5,0.5,101,76.0
1147,E4,141.5,0.5,101,76.0
1148,B3,141.5,0.5,101,76.0
1149,E-3,141.5,0.5,99,76.0
1150,F#2,141.5,0.5,99,76.0
1151,E4,141.99,0.727,125,76.0
1152,G4,142.0,0.5,104,76.0
1153,G3,142.0,0.5,104,76.0
1154,E4,142.0,0.5,104,76.0
1155,B3,142.0,0.5,104,76.0
1156,E-3,142.0,0.5,95,76.0
1157,B1,142.0,0.5,95,76.0
1158,F#2,142.0,0.5,95,76.0
1159,D2,142.5,1.0,111,76.0
1160,G4,142.5,0.5,116,76.0
1161,G3,142.5,0.5,116,76.0
1162,E4,142.5,0.5,116,76.0
1163,B3,142.5,0.5,116,76.0
1164,E-3,142.5,0.5,116,76.0
1165,F#2,142.5,0.5,116,76.0
1166,B4,142.987,0.531,127,76.0
1167,G3,143.0,0.5,98,76.0
1168,E4,143.0,0.5,98,76.0
1169,B3,143.0,0.5,98,76.0
1170,G4,143.0,0.5,98,76.0
1171,E4,143.0,0.5,98,76.0
1172,E-3,143.0,0.5,102,76.0
1173,F#2,143.0,0.5,102,76.0
1174,A4,143.479,333/1000,126,76.0
1175,E3,143.5,0.5,98,76.0
1176,B3,143.5,0.5,96,76.0
1177,G4,143.5,0.5,99,76.0
1178,G3,143.5,0.5,99,76.0
1179,E4,143.5,0.5,99,76.0
1180,B3,143.5,0.5,99,76.0
1181,E-3,143.5,0.5,93,76.0
1182,B1,143.5,0.5,93,76.0
1183,F#2,143.5,0.5,93,76.0
1184,B3,144.0,0.5,127,76.0
1185,B2,144.0,1.5,127,76.0
1186,F#3,144.0,3.0,127,76.0
1187,B2,144.0,3.0,127,76.0
1188,D4,144.0,1.5,119,76.0
1189,B3,144.0,1.5,119,76.0
1190,E-3,144.0,0.5,127,76.0
1191,B1,144.0,0.5,127,76.0
1192,F#2,144.0,0.5,127,76.0
1193,B4,144.026,279/1000,127,76.0
1194,A4,144.253,71/250,126,76.0
1195,G4,144.495,1.047,127,76.0
1196,D4,144.5,0.5,101,76.0
1197,B3,144.5,0.5,101,76.0
1198,E-3,144.5,0.5,99,76.0
1199,B1,144.5,0.5,99,76.0
1200,F#2,144.5,0.5,99,76.0
1201,D4,145.0,0.5,104,76.0
1202,B3,145.0,0.5,104,76.0
1203,F#4,145.0,0.5,104,76.0
1204,E-3,145.0,0.5,95,76.0
1205,B1,145.0,0.5,95,76.0
1206,F#2,145.0,0.5,95,76.0
1207,B2,145.5,0.5,116,76.0
1208,D4,145.5,0.5,116,76.0
1209,B3,145.5,0.5,116,76.0
1210,F#4,145.5,0.5,116,76.0
1211,B4,145.5,0.5,116,76.0
1212,E-3,145.5,0.5,116,76.0
1213,D2,145.5,0.5,116,76.0
1214,F#2,145.5,0.5,116,76.0
1215,D3,146.0,0.5,99,76.0
1216,D4,146.0,0.5,98,76.0
1217,B3,146.0,0.5,98,76.0
1218,F#4,146.0,0.5,98,76.0
1219,E-3,146.0,0.5,102,76.0
1220,B1,146.0,0.5,102,76.0
1221,F#2,146.0,0.5,102,76.0
1222,B2,146.5,0.5,99,76.0
1223,D4,146.5,0.5,99,76.0
1224,B3,146.5,0.5,99,76.0
1225,E-3,146.5,0.5,92,76.0
1226,B1,146.5,0.5,92,76.0
1227,G#2,146.5,0.5,92,76.0
1228,D4,146.516,0.484,127,76.0
1229,E4,146.997,3/1000,127,76.0
1230,E3,147.0,2.5,127,76.0
1231,D4,147.0,49/1000,127,76.0
1232,E4,147.0,1.539,127,76.0
1233,B1,147.0,1.0,127,76.0
1234,G3,147.0,0.5,127,76.0
1235,E4,147.0,0.5,127,76.0
1236,B3,147.0,0.5,127,76.0
1237,E2,147.0,0.5,127,76.0
1238,E3,147.0,0.5,127,76.0
1239,E-3,147.0,0.5,127,76.0
1240,G3,147.0,0.5,127,76.0
1241,F#2,147.0,0.5,127,76.0
1242,G4,147.5,0.5,101,76.0
1243,G3,147.5,0.5,101,76.0
1244,E4,147.5,0.5,101,76.0
1245,B3,147.5,0.5,101,76.0
1246,E-3,147.5,0.5,99,76.0
1247,F#2,147.5,0.5,99,76.0
1248,G4,148.0,0.5,104,76.0
1249,G3,148.0,0.5,104,76.0
1250,E4,148.0,0.5,104,76.0
1251,B3,148.0,0.5,104,76.0
1252,E-3,148.0,0.5,95,76.0
1253,B1,148.0,0.5,95,76.0
1254,F#2,148.0,0.5,95,76.0
1255,D2,148.5,1.0,111,76.0
1256,G4,148.5,0.5,116,76.0
1257,G3,148.5,0.5,116,76.0
1258,E4,148.5,0.5,116,76.0
1259,B3,148.5,0.5,116,76.0
1260,E-3,148.5,0.5,116,76.0
1261,F#2,148.5,0.5,116,76.0
1262,G4,148.99,99/200,127,76.0
1263,G3,149.0,0.5,98,76.0
1264,E4,149.0,0.5,98,76.0
1265,B3,149.0,0.5,98,76.0
1266,G4,149.0,0.5,98,76.0
1267,E4,149.0,0.5,98,76.0
1268,E-3,149.0,0.5,102,76.0
1269,F#2,149.0,0.5,102,76.0
1270,E4,149.474,263/500,126,76.0
1271,E3,149.5,0.5,98,76.0
1272,B3,149.5,0.5,96,76.0
1273,G4,149.5,0.5,99,76.0
1274,G3,149.5,0.5,99,76.0
1275,E4,149.5,0.5,99,76.0
1276,B3,149.5,0.5,99,76.0
1277,E-3,149.5,0.5,93,76.0
1278,B1,149.5,0.5,93,76.0
1279,F#2,149.5,0.5,93,76.0
1280,G4,149.987,13/1000,127,76.0
1281,B3,150.0,0.5,127,76.0
1282,B2,150.0,1.5,127,76.0
1283,E4,150.0,13/1000,126,76.0
1284,G4,150.0,471/1000,127,76.0
1285,F#3,150.0,3.0,127,76.0
1286,B2,150.0,3.0,127,76.0
1287,D4,150.0,1.5,119,76.0
1288,B3,150.0,1.5,119,76.0
1289,E-3,150.0,0.5,127,76.0
1290,B1,150.0,0.5,127,76.0
1291,F#2,150.0,0.5,127,76.0
1292,D4,150.5,0.5,101,76.0
1293,B3,150.5,0.5,101,76.0
1294,E-3,150.5,0.5,99,76.0
1295,B1,150.5,0.5,99,76.0
1296,F#2,150.5,0.5,99,76.0
1297,B3,150.979,503/1000,127,76.0
1298,D4,151.0,0.5,104,76.0
1299,B3,151.0,0.5,104,76.0
1300,F#4,151.0,0.5,104,76.0
1301,E-3,151.0,0.5,95,76.0
1302,B1,151.0,0.5,95,76.0
1303,F#2,151.0,0.5,95,76.0
1304,D4,151.456,0.578,127,76.0
1305,B2,151.5,0.5,116,76.0
1306,D4,151.5,0.5,116,76.0
1307,B3,151.5,0.5,116,76.0
1308,F#4,151.5,0.5,116,76.0
1309,B4,151.5,0.5,116,76.0
1310,E-3,151.5,0.5,116,76.0
1311,D2,151.5,0.5,116,76.0
1312,F#2,151.5,0.5,116,76.0
1313,E4,151.982,67/125,125,76.0
1314,D3,152.0,0.5,99,76.0
1315,D4,152.0,0.5,98,76.0
1316,B3,152.0,0.5,98,76.0
1317,F#4,152.0,0.5,98,76.0
1318,E-3,152.0,0.5,102,76.0
1319,B1,152.0,0.5,102,76.0
1320,F#2,152.0,0.5,102,76.0
1321,F#4,152.479,521/1000,127,76.0
1322,B2,152.5,0.5,99,76.0
1323,D4,152.5,0.5,99,76.0
1324,B3,152.5,0.5,99,76.0
1325,E-3,152.5,0.5,92,76.0
1326,B1,152.5,0.5,92,76.0
1327,G#2,152.5,0.5,92,76.0
1328,G4,152.977,0.023,126,76.0
1329,E3,153.0,2.5,127,76.0
1330,F#4,153.0,13/500,127,76.0
1331,G4,153.0,1.047,126,76.0
1332,B1,153.0,1.0,127,76.0
1333,G3,153.0,0.5,127,76.0
1334,E4,153.0,0.5,127,76.0
1335,B3,153.0,0.5,127,76.0
1336,E2,153.0,0.5,127,76.0
1337,E3,153.0,0.5,127,76.0
1338,E-3,153.0,0.5,127,76.0
1339,G3,153.0,0.5,127,76.0
1340,F#2,153.0,0.5,127,76.0
1341,G4,153.5,0.5,101,76.0
1342,G3,153.5,0.5,101,76.0
1343,E4,153.5,0.5,101,76.0
1344,B3,153.5,0.5,101,76.0
1345,E-3,153.5,0.5,99,76.0
1346,F#2,153.5,0.5,99,76.0
1347,G4,154.0,0.5,104,76.0
1348,G3,154.0,0.5,104,76.0
1349,E4,154.0,0.5,104,76.0
1350,B3,154.0,0.5,104,76.0
1351,E-3,154.0,0.5,95,76.0
1352,B1,154.0,0.5,95,76.0
1353,F#2,154.0,0.5,95,76.0
1354,E4,154.018,69/125,126,76.0
1355,D2,154.5,1.0,111,76.0
1356,G4,154.5,0.5,116,76.0
1357,G3,154.5,0.5,116,76.0
1358,E4,154.5,0.5,116,76.0
1359,B3,154.5,0.5,116,76.0
1360,E-3,154.5,0.5,116,76.0
1361,F#2,154.5,0.5,116,76.0
1362,B4,154.974,67/125,127,76.0
1363,G3,155.0,0.5,98,76.0
1364,E4,155.0,0.5,98,76.0
1365,B3,155.0,0.5,98,76.0
1366,G4,155.0,0.5,98,76.0
1367,E4,155.0,0.5,98,76.0
1368,E-3,155.0,0.5,102,76.0
1369,F#2,155.0,0.5,102,76.0
1370,A4,155.469,341/1000,125,76.0
1371,E3,155.5,0.5,98,76.0
1372,B3,155.5,0.5,96,76.0
1373,G4,155.5,0.5,99,76.0
1374,G3,155.5,0.5,99,76.0
1375,E4,155.5,0.5,99,76.0
1376,B3,155.5,0.5,99,76.0
1377,E-3,155.5,0.5,93,76.0
1378,B1,155.5,0.5,93,76.0
1379,F#2,155.5,0.5,93,76.0
1380,B4,155.995,1/200,126,76.0
1381,B3,156.0,0.5,127,76.0
1382,B2,156.0,1.5,127,76.0
1383,B4,156.0,299/1000,126,76.0
1384,F#3,156.0,3.0,127,76.0
1385,B2,156.0,3.0,127,76.0
1386,D4,156.0,1.5,119,76.0
1387,B3,156.0,1.5,119,76.0
1388,E-3,156.0,0.5,127,76.0
1389,B1,156.0,0.5,127,76.0
1390,F#2,156.0,0.5,127,76.0
1391,A4,156.245,31/100,122,76.0
1392,D4,156.5,0.5,101,76.0
1393,B3,156.5,0.5,101,76.0
1394,E-3,156.5,0.5,99,76.0
1395,B1,156.5,0.5,99,76.0
1396,F#2,156.5,0.5,99,76.0
1397,G4,156.513,22/25,121,76.0
1398,D4,157.0,0.5,104,76.0
1399,B3,157.0,0.5,104,76.0
1400,F#4,157.0,0.5,104,76.0
1401,E-3,157.0,0.5,95,76.0
1402,B1,157.0,0.5,95,76.0
1403,F#2,157.0,0.5,95,76.0
1404,B2,157.5,0.5,116,76.0
1405,D4,157.5,0.5,116,76.0
1406,B3,157.5,0.5,116,76.0
1407,F#4,157.5,0.5,116,76.0
1408,B4,157.5,0.5,116,76.0
1409,E-3,157.5,0.5,116,76.0
1410,D2,157.5,0.5,116,76.0
1411,F#2,157.5,0.5,116,76.0
1412,D3,158.0,0.5,99,76.0
1413,D4,158.0,0.258,125,76.0
1414,D4,158.0,0.5,98,76.0
1415,B3,158.0,0.5,98,76.0
1416,F#4,158.0,0.5,98,76.0
1417,E-3,158.0,0.5,102,76.0
1418,B1,158.0,0.5,102,76.0
1419,F#2,158.0,0.5,102,76.0
1420,D4,158.487,513/1000,127,76.0
1421,B2,158.5,0.5,99,76.0
1422,D4,158.5,0.5,99,76.0
1423,B3,158.5,0.5,99,76.0
1424,E-3,158.5,0.5,92,76.0
1425,B1,158.5,0.5,92,76.0
1426,G#2,158.5,0.5,92,76.0
1427,E4,158.964,9/250,127,76.0
1428,E3,159.0,2.5,127,76.0
1429,D4,159.0,13/500,127,76.0
1430,E4,159.0,1411/1000,127,76.0
1431,B1,159.0,1.0,127,76.0
1432,G3,159.0,0.5,127,76.0
1433,E4,159.0,0.5,127,76.0
1434,B3,159.0,0.5,127,76.0
1435,E2,159.0,0.5,127,76.0
1436,E3,159.0,0.5,127,76.0
1437,E-3,159.0,0.5,127,76.0
1438,G3,159.0,0.5,127,76.0
1439,F#2,159.0,0.5,127,76.0
1440,G4,159.5,0.5,101,76.0
1441,G3,159.5,0.5,101,76.0
1442,E4,159.5,0.5,101,76.0
1443,B3,159.5,0.5,101,76.0
1444,E-3,159.5,0.5,99,76.0
1445,F#2,159.5,0.5,99,76.0
1446,G4,160.0,0.5,104,76.0
1447,G3,160.0,0.5,104,76.0
1448,E4,160.0,0.5,104,76.0
1449,B3,160.0,0.5,104,76.0
1450,E-3,160.0,0.5,95,76.0
1451,B1,160.0,0.5,95,76.0
1452,F#2,160.0,0.5,95,76.0
1453,D2,160.5,1.0,111,76.0
1454,G4,160.5,0.5,116,76.0
1455,G3,160.5,0.5,116,76.0
1456,E4,160.5,0.5,116,76.0
1457,B3,160.5,0.5,116,76.0
1458,E-3,160.5,0.5,116,76.0
1459,F#2,160.5,0.5,116,76.0
1460,G4,160.943,503/1000,124,76.0
1461,G3,161.0,0.5,98,76.0
1462,E4,161.0,0.5,98,76.0
1463,B3,161.0,0.5,98,76.0
1464,G4,161.0,0.5,98,76.0
1465,E4,161.0,0.5,98,76.0
1466,E-3,161.0,0.5,102,76.0
1467,F#2,161.0,0.5,102,76.0
1468,E4,161.44,549/1000,123,76.0
1469,E3,161.5,0.5,98,76.0
1470,B3,161.5,0.5,96,76.0
1471,G4,161.5,0.5,99,76.0
1472,G3,161.5,0.5,99,76.0
1473,E4,161.5,0.5,99,76.0
1474,B3,161.5,0.5,99,76.0
1475,E-3,161.5,0.5,93,76.0
1476,B1,161.5,0.5,93,76.0
1477,F#2,161.5,0.5,93,76.0
1478,G4,161.982,9/500,125,76.0
1479,B3,162.0,0.5,127,76.0
1480,B2,162.0,1.5,127,76.0
1481,G4,162.0,357/1000,125,76.0
1482,F#3,162.0,3.0,127,76.0
1483,B2,162.0,3.0,127,76.0
1484,D4,162.0,1.5,119,76.0
1485,B3,162.0,1.5,119,76.0
1486,E-3,162.0,0.5,127,76.0
1487,B1,162.0,0.5,127,76.0
1488,F#2,162.0,0.5,127,76.0
1489,D4,162.5,0.5,101,76.0
1490,B3,162.5,0.5,101,76.0
1491,E-3,162.5,0.5,99,76.0
1492,B1,162.5,0.5,99,76.0
1493,F#2,162.5,0.5,99,76.0
1494,D4,162.958,279/1000,127,76.0
1495,D4,163.0,0.5,104,76.0
1496,B3,163.0,0.5,104,76.0
1497,F#4,163.0,0.5,104,76.0
1498,E-3,163.0,0.5,95,76.0
1499,B1,163.0,0.5,95,76.0
1500,F#2,163.0,0.5,95,76.0
1501,D4,163.464,159/500,127,76.0
1502,B2,163.5,0.5,116,76.0
1503,D4,163.5,0.5,116,76.0
1504,B3,163.5,0.5,116,76.0
1505,F#4,163.5,0.5,116,76.0
1506,B4,163.5,0.5,116,76.0
1507,E-3,163.5,0.5,116,76.0
1508,D2,163.5,0.5,116,76.0
1509,F#2,163.5,0.5,116,76.0
1510,D4,163.945,0.25,126,76.0
1511,D3,164.0,0.5,99,76.0
1512,D4,164.0,0.5,98,76.0
1513,B3,164.0,0.5,98,76.0
1514,F#4,164.0,0.5,98,76.0
1515,E-3,164.0,0.5,102,76.0
1516,B1,164.0,0.5,102,76.0
1517,F#2,164.0,0.5,102,76.0
1518,D4,164.43,0.258,126,76.0
1519,B2,164.5,0.5,99,76.0
1520,D4,164.5,0.5,99,76.0
1521,B3,164.5,0.5,99,76.0
1522,E-3,164.5,0.5,92,76.0
1523,B1,164.5,0.5,92,76.0
1524,G#2,164.5,0.5,92,76.0
1525,B3,164.982,9/500,127,76.0
1526,E3,165.0,0.5,127,76.0
1527,B3,165.0,53/125,127,76.0
1528,B1,165.0,1.5,127,76.0
1529,F#2,165.0,0.5,127,76.0
1530,G3,165.0,0.5,120,76.0
1531,E2,165.0,0.5,120,76.0
1532,B3,165.5,0.5,96,76.0
1533,E3,165.5,0.5,104,76.0
1534,F#2,165.5,0.5,98,76.0
1535,E4,166.0,0.5,99,76.0
1536,E3,166.0,0.5,102,76.0
1537,F#2,166.0,0.5,95,76.0
1538,E4,166.471,0.469,127,76.0
1539,E4,166.5,0.5,114,76.0
1540,E3,166.5,1.5,119,76.0
1541,C#2,166.5,1.0,107,76.0
1542,F#2,166.5,0.5,113,76.0
1543,B3,167.0,0.5,91,76.0
1544,F#2,167.0,0.5,95,76.0
1545,G3,167.5,0.5,99,76.0
1546,B1,167.5,0.5,92,76.0
1547,F#2,167.5,0.5,92,76.0
1548,D4,167.982,9/500,127,76.0
1549,B2,168.0,2.5,127,76.0
1550,D4,168.0,0.516,127,76.0
1551,B1,168.0,1.5,127,76.0
1552,F#2,168.0,0.5,127,76.0
1553,B2,168.0,0.5,122,76.0
1554,B1,168.0,0.5,122,76.0
1555,D3,168.5,0.5,96,76.0
1556,F#2,168.5,0.5,98,76.0
1557,F#3,169.0,0.5,99,76.0
1558,F#2,169.0,0.5,95,76.0
1559,F#4,169.479,56/125,127,76.0
1560,F#3,169.5,0.5,109,76.0
1561,C#2,169.5,1.0,107,76.0
1562,F#2,169.5,0.5,113,76.0
1563,D3,170.0,0.5,104,76.0
1564,F#2,170.0,0.5,95,76.0
1565,B2,170.5,0.5,99,76.0
1566,B2,170.5,0.5,111,76.0
1567,B1,170.5,0.5,92,76.0
1568,F#2,170.5,0.5,92,76.0
1569,G4,170.966,17/500,127,76.0
1570,E3,171.0,0.5,127,76.0
1571,G4,171.0,759/500,127,76.0
1572,B1,171.0,1.5,127,76.0
1573,F#2,171.0,0.5,127,76.0
1574,G3,171.0,0.5,120,76.0
1575,E2,171.0,0.5,120,76.0
1576,B3,171.5,0.5,96,76.0
1577,E3,171.5,0.5,104,76.0
1578,F#2,171.5,0.5,98,76.0
1579,E4,172.0,0.5,99,76.0
1580,E3,172.0,0.5,102,76.0
1581,F#2,172.0,0.5,95,76.0
1582,E4,172.477,183/125,125,76.0
1583,E4,172.5,0.5,114,76.0
1584,E3,172.5,1.5,119,76.0
1585,C#2,172.5,1.0,107,76.0
1586,F#2,172.5,0.5,113,76.0
1587,B3,173.0,0.5,91,76.0
1588,F#2,173.0,0.5,95,76.0
1589,G3,173.5,0.5,99,76.0
1590,B1,173.5,0.5,92,76.0
1591,F#2,173.5,0.5,92,76.0
1592,B3,173.953,0.047,127,76.0
1593,B2,174.0,2.5,127,76.0
1594,B3,174.0,767/500,127,76.0
1595,B1,174.0,1.5,127,76.0
1596,F#2,174.0,0.5,127,76.0
1597,B2,174.0,0.5,122,76.0
1598,B1,174.0,0.5,122,76.0
1599,D3,174.5,0.5,96,76.0
1600,F#2,174.5,0.5,98,76.0
1601,F#3,175.0,0.5,99,76.0
1602,F#2,175.0,0.5,95,76.0
1603,D4,175.492,1503/1000,127,76.0
1604,F#3,175.5,0.5,109,76.0
1605,C#2,175.5,1.0,107,76.0
1606,F#2,175.5,0.5,113,76.0
1607,D3,176.0,0.5,104,76.0
1608,F#2,176.0,0.5,95,76.0
1609,B2,176.5,0.5,99,76.0
1610,B2,176.5,0.5,111,76.0
1611,B1,176.5,0.5,92,76.0
1612,F#2,176.5,0.5,92,76.0
1613,E3,177.0,0.5,127,76.0
1614,B1,177.0,1.5,127,76.0
1615,F#2,177.0,0.5,127,76.0
1616,G3,177.0,0.5,120,76.0
1617,E2,177.0,0.5,120,76.0
1618,B3,177.008,427/1000,127,76.0
1619,B3,177.5,0.5,96,76.0
1620,E3,177.5,0.5,104,76.0
1621,F#2,177.5,0.5,98,76.0
1622,E4,178.0,0.5,99,76.0
1623,E3,178.0,0.5,102,76.0
1624,F#2,178.0,0.5,95,76.0
1625,E4,178.456,73/200,127,76.0
1626,E4,178.5,0.5,114,76.0
1627,E3,178.5,1.5,119,76.0
1628,C#2,178.5,1.0,107,76.0
1629,F#2,178.5,0.5,113,76.0
1630,B3,179.0,0.5,91,76.0
1631,F#2,179.0,0.5,95,76.0
1632,G3,179.5,0.5,99,76.0
1633,B1,179.5,0.5,92,76.0
1634,F#2,179.5,0.5,92,76.0
1635,D4,179.956,11/250,127,76.0
1636,B2,180.0,2.5,127,76.0
1637,D4,180.0,163/500,127,76.0
1638,B1,180.0,1.5,127,76.0
1639,F#2,180.0,0.5,127,76.0
1640,B2,180.0,0.5,122,76.0
1641,B1,180.0,0.5,122,76.0
1642,D3,180.5,0.5,96,76.0
1643,F#2,180.5,0.5,98,76.0
1644,F#3,181.0,0.5,99,76.0
1645,F#2,181.0,0.5,95,76.0
1646,F#3,181.5,0.5,109,76.0
1647,C#2,181.5,1.0,107,76.0
1648,F#2,181.5,0.5,113,76.0
1649,F#4,181.51,97/250,127,76.0
1650,D3,182.0,0.5,104,76.0
1651,F#2,182.0,0.5,95,76.0
1652,B2,182.5,0.5,99,76.0
1653,B2,182.5,0.5,111,76.0
1654,B1,182.5,0.5,92,76.0
1655,F#2,182.5,0.5,92,76.0
1656,G4,182.977,0.023,127,76.0
1657,E3,183.0,0.5,127,76.0
1658,G4,183.0,1.469,127,76.0
1659,B1,183.0,1.5,127,76.0
1660,F#2,183.0,0.5,127,76.0
1661,G3,183.0,0.5,120,76.0
1662,E2,183.0,0.5,120,76.0
1663,B3,183.5,0.5,96,76.0
1664,E3,183.5,0.5,104,76.0
1665,F#2,183.5,0.5,98,76.0
1666,E4,184.0,0.5,99,76.0
1667,E3,184.0,0.5,102,76.0
1668,F#2,184.0,0.5,95,76.0
1669,E4,184.43,1.547,127,76.0
1670,E4,184.5,0.5,114,76.0
1671,E3,184.5,1.5,119,76.0
1672,C#2,184.5,1.0,107,76.0
1673,F#2,184.5,0.5,113,76.0
1674,B3,185.0,0.5,91,76.0
1675,F#2,185.0,0.5,95,76.0
1676,G3,185.5,0.5,99,76.0
1677,B1,185.5,0.5,92,76.0
1678,F#2,185.5,0.5,92,76.0
1679,B3,185.984,0.016,127,76.0
1680,B2,186.0,2.5,127,76.0
1681,B3,186.0,1.219,127,76.0
1682,B1,186.0,1.5,127,76.0
1683,F#2,186.0,0.5,127,76.0
1684,B2,186.0,0.5,122,76.0
1685,B1,186.0,0.5,122,76.0
1686,D3,186.5,0.5,96,76.0
1687,F#2,186.5,0.5,98,76.0
1688,F#3,187.0,0.5,99,76.0
1689,F#2,187.0,0.5,95,76.0
1690,B3,187.466,767/500,127,76.0
1691,F#3,187.5,0.5,109,76.0
1692,C#2,187.5,1.0,107,76.0
1693,F#2,187.5,0.5,113,76.0
1694,D3,188.0,0.5,104,76.0
1695,F#2,188.0,0.5,95,76.0
1696,B2,188.5,0.5,99,76.0
1697,B2,188.5,0.5,111,76.0
1698,B1,188.5,0.5,92,76.0
1699,F#2,188.5,0.5,92,76.0
1700,E3,189.0,0.5,127,76.0
1701,B3,189.0,0.023,127,76.0
1702,B1,189.0,1.5,127,76.0
1703,F#2,189.0,0.5,127,76.0
1704,G3,189.0,0.5,120,76.0
1705,E2,189.0,0.5,120,76.0
1706,B4,189.01,763/1000,126,76.0
1707,B3,189.5,0.5,96,76.0
1708,E3,189.5,0.5,104,76.0
1709,F#2,189.5,0.5,98,76.0
1710,A4,189.734,13/50,123,76.0
1711,G4,189.943,14/25,125,76.0
1712,E4,190.0,0.5,99,76.0
1713,E3,190.0,0.5,102,76.0
1714,F#2,190.0,0.5,95,76.0
1715,A4,190.464,31/50,124,76.0
1716,E4,190.5,0.5,114,76.0
1717,E3,190.5,1.5,119,76.0
1718,C#2,190.5,1.0,107,76.0
1719,F#2,190.5,0.5,113,76.0
1720,G4,190.992,259/500,120,76.0
1721,B3,191.0,0.5,91,76.0
1722,F#2,191.0,0.5,95,76.0
1723,F#4,191.471,529/1000,124,76.0
1724,G3,191.5,0.5,99,76.0
1725,B1,191.5,0.5,92,76.0
1726,F#2,191.5,0.5,92,76.0
1727,G4,191.992,0.008,123,76.0
1728,B2,192.0,2.5,127,76.0
1729,F#4,192.0,0.031,124,76.0
1730,G4,192.0,729/1000,123,76.0
1731,B1,192.0,1.5,127,76.0
1732,F#2,192.0,0.5,127,76.0
1733,B2,192.0,0.5,122,76.0
1734,B1,192.0,0.5,122,76.0
1735,D3,192.5,0.5,96,76.0
1736,F#2,192.5,0.5,98,76.0
1737,F#4,192.693,247/1000,118,76.0
1738,E4,192.956,583/1000,123,76.0
1739,F#3,193.0,0.5,99,76.0
1740,F#2,193.0,0.5,95,76.0
1741,F#4,193.471,0.797,125,76.0
1742,F#3,193.5,0.5,109,76.0
1743,C#2,193.5,1.0,107,76.0
1744,F#2,193.5,0.5,113,76.0
1745,D3,194.0,0.5,104,76.0
1746,F#2,194.0,0.5,95,76.0
1747,E4,194.216,253/1000,118,76.0
1748,D4,194.458,497/1000,117,76.0
1749,B2,194.5,0.5,99,76.0
1750,B2,194.5,0.5,111,76.0
1751,B1,194.5,0.5,92,76.0
1752,F#2,194.5,0.5,92,76.0
1753,E4,194.93,0.07,121,76.0
1754,E3,195.0,0.5,127,76.0
1755,E4,195.0,179/250,121,76.0
1756,B1,195.0,1.5,127,76.0
1757,F#2,195.0,0.5,127,76.0
1758,G3,195.0,0.5,120,76.0
1759,E2,195.0,0.5,120,76.0
1760,B3,195.5,0.5,96,76.0
1761,E3,195.5,0.5,104,76.0
1762,F#2,195.5,0.5,98,76.0
1763,D4,195.68,6/25,119,76.0
1764,B3,195.932,259/500,117,76.0
1765,E4,196.0,0.5,99,76.0
1766,E3,196.0,0.5,102,76.0
1767,F#2,196.0,0.5,95,76.0
1768,D4,196.461,101/200,119,76.0
1769,E4,196.5,0.5,114,76.0
1770,E3,196.5,1.5,119,76.0
1771,C#2,196.5,1.0,107,76.0
1772,F#2,196.5,0.5,113,76.0
1773,B3,196.951,0.539,120,76.0
1774,B3,197.0,0.5,91,76.0
1775,F#2,197.0,0.5,95,76.0
1776,A3,197.43,0.57,121,76.0
1777,G3,197.5,0.5,99,76.0
1778,B1,197.5,0.5,92,76.0
1779,F#2,197.5,0.5,92,76.0
1780,B3,197.974,13/500,124,76.0
1781,B2,198.0,2.5,127,76.0
1782,A3,198.0,9/250,121,76.0
1783,B3,198.0,2299/1000,124,76.0
1784,B1,198.0,1.5,127,76.0
1785,F#2,198.0,0.5,127,76.0
1786,B2,198.0,0.5,122,76.0
1787,B1,198.0,0.5,122,76.0
1788,D3,198.5,0.5,96,76.0
1789,F#2,198.5,0.5,98,76.0
1790,F#3,199.0,0.5,99,76.0
1791,F#2,199.0,0.5,95,76.0
1792,F#3,199.5,0.5,109,76.0
1793,C#2,199.5,1.0,107,76.0
1794,F#2,199.5,0.5,113,76.0
1795,D3,200.0,0.5,104,76.0
1796,F#2,200.0,0.5,95,76.0
1797,B2,200.5,0.5,99,76.0
1798,B2,200.5,0.5,111,76.0
1799,B1,200.5,0.5,92,76.0
1800,F#2,200.5,0.5,92,76.0
1801,E3,201.0,0.5,127,76.0
1802,B1,201.0,1.5,127,76.0
1803,F#2,201.0,0.5,127,76.0
1804,G3,201.0,0.5,120,76.0
1805,E2,201.0,0.5,120,76.0
1806,B4,201.057,357/500,127,76.0
1807,B3,201.5,0.5,96,76.0
1808,E3,201.5,0.5,104,76.0
1809,F#2,201.5,0.5,98,76.0
1810,A4,201.724,69/250,121,76.0
1811,G4,201.958,51/100,121,76.0
1812,E4,202.0,0.5,99,76.0
1813,E3,202.0,0.5,102,76.0
1814,F#2,202.0,0.5,95,76.0
1815,A4,202.435,0.648,124,76.0
1816,E4,202.5,0.5,114,76.0
1817,E3,202.5,1.5,119,76.0
1818,C#2,202.5,1.0,107,76.0
1819,F#2,202.5,0.5,113,76.0
1820,B3,203.0,0.5,91,76.0
1821,F#2,203.0,0.5,95,76.0
1822,G4,203.031,307/1000,108,76.0
1823,G3,203.5,0.5,99,76.0
1824,F#4,203.5,0.367,126,76.0
1825,B1,203.5,0.5,92,76.0
1826,F#2,203.5,0.5,92,76.0
1827,B2,204.0,2.5,127,76.0
1828,G4,204.0,0.5,120,76.0
1829,B1,204.0,1.5,127,76.0
1830,F#2,204.0,0.5,127,76.0
1831,B2,204.0,0.5,122,76.0
1832,B1,204.0,0.5,122,76.0
1833,D3,204.5,0.5,96,76.0
1834,F#2,204.5,0.5,98,76.0
1835,F#4,204.635,221/1000,111,76.0
1836,E4,204.875,319/500,121,76.0
1837,F#3,205.0,0.5,99,76.0
1838,F#2,205.0,0.5,95,76.0
1839,F#4,205.471,0.539,125,76.0
1840,F#3,205.5,0.5,109,76.0
1841,C#2,205.5,1.0,107,76.0
1842,F#2,205.5,0.5,113,76.0
1843,E4,205.948,529/1000,122,76.0
1844,D3,206.0,0.5,104,76.0
1845,F#2,206.0,0.5,95,76.0
1846,D4,206.461,529/1000,122,76.0
1847,B2,206.5,0.5,99,76.0
1848,B2,206.5,0.5,111,76.0
1849,B1,206.5,0.5,92,76.0
1850,F#2,206.5,0.5,92,76.0
1851,E4,206.956,11/250,123,76.0
1852,E3,207.0,0.5,127,76.0
1853,E4,207.0,2.07,123,76.0
1854,B1,207.0,1.5,127,76.0
1855,F#2,207.0,0.5,127,76.0
1856,G3,207.0,0.5,120,76.0
1857,E2,207.0,0.5,120,76.0
1858,B3,207.5,0.5,96,76.0
1859,E3,207.5,0.5,104,76.0
1860,F#2,207.5,0.5,98,76.0
1861,E4,208.0,0.5,99,76.0
1862,E3,208.0,0.5,102,76.0
1863,F#2,208.0,0.5,95,76.0
1864,E4,208.5,0.5,114,76.0
1865,E3,208.5,1.5,119,76.0
1866,C#2,208.5,1.0,107,76.0
1867,F#2,208.5,0.5,113,76.0
1868,B3,209.0,0.5,91,76.0
1869,F#2,209.0,0.5,95,76.0
1870,G3,209.5,0.5,99,76.0
1871,B1,209.5,0.5,92,76.0
1872,F#2,209.5,0.5,92,76.0
1873,B3,209.956,11/250,127,76.0
1874,B2,210.0,2.5,127,76.0
1875,B3,210.0,0.523,127,76.0
1876,B1,210.0,1.5,127,76.0
1877,F#2,210.0,0.5,127,76.0
1878,B2,210.0,0.5,122,76.0
1879,B1,210.0,0.5,122,76.0
1880,D4,210.469,0.562,122,76.0
1881,D3,210.5,0.5,96,76.0
1882,F#2,210.5,0.5,98,76.0
1883,E4,210.958,0.375,127,76.0
1884,F#3,211.0,0.5,99,76.0
1885,F#2,211.0,0.5,95,76.0
1886,E4,211.469,479/1000,127,76.0
1887,F#3,211.5,0.5,109,76.0
1888,C#2,211.5,1.0,107,76.0
1889,F#2,211.5,0.5,113,76.0
1890,G4,211.969,307/1000,127,76.0
1891,D3,212.0,0.5,104,76.0
1892,F#2,212.0,0.5,95,76.0
1893,G4,212.44,143/500,126,76.0
1894,B2,212.5,0.5,99,76.0
1895,B2,212.5,0.5,111,76.0
1896,B1,212.5,0.5,92,76.0
1897,F#2,212.5,0.5,92,76.0
1898,G4,212.977,0.023,127,76.0
1899,E3,213.0,2.5,127,76.0
1900,G4,213.0,1029/1000,127,76.0
1901,B1,213.0,1.0,127,76.0
1902,G3,213.0,0.5,127,76.0
1903,E4,213.0,0.5,127,76.0
1904,B3,213.0,0.5,127,76.0
1905,E2,213.0,0.5,127,76.0
1906,E3,213.0,0.5,127,76.0
1907,E-3,213.0,0.5,127,76.0
1908,G3,213.0,0.5,127,76.0
1909,F#2,213.0,0.5,127,76.0
1910,G4,213.5,0.5,101,76.0
1911,G3,213.5,0.5,101,76.0
1912,E4,213.5,0.5,101,76.0
1913,B3,213.5,0.5,101,76.0
1914,E-3,213.5,0.5,99,76.0
1915,F#2,213.5,0.5,99,76.0
1916,E4,213.984,259/250,126,76.0
1917,G4,214.0,0.5,104,76.0
1918,G3,214.0,0.5,104,76.0
1919,E4,214.0,0.5,104,76.0
1920,B3,214.0,0.5,104,76.0
1921,E-3,214.0,0.5,95,76.0
1922,B1,214.0,0.5,95,76.0
1923,F#2,214.0,0.5,95,76.0
1924,D2,214.5,1.0,111,76.0
1925,G4,214.5,0.5,116,76.0
1926,G3,214.5,0.5,116,76.0
1927,E4,214.5,0.5,116,76.0
1928,B3,214.5,0.5,116,76.0
1929,E-3,214.5,0.5,116,76.0
1930,F#2,214.5,0.5,116,76.0
1931,B4,214.974,0.57,127,76.0
1932,G3,215.0,0.5,98,76.0
1933,E4,215.0,0.5,98,76.0
1934,B3,215.0,0.5,98,76.0
1935,G4,215.0,0.5,98,76.0
1936,E4,215.0,0.5,98,76.0
1937,E-3,215.0,0.5,102,76.0
1938,F#2,215.0,0.5,102,76.0
1939,A4,215.458,19/50,125,76.0
1940,E3,215.5,0.5,98,76.0
1941,B3,215.5,0.5,96,76.0
1942,G4,215.5,0.5,99,76.0
1943,G3,215.5,0.5,99,76.0
1944,E4,215.5,0.5,99,76.0
1945,B3,215.5,0.5,99,76.0
1946,E-3,215.5,0.5,93,76.0
1947,B1,215.5,0.5,93,76.0
1948,F#2,215.5,0.5,93,76.0
1949,B4,215.995,1/200,126,76.0
1950,B3,216.0,0.5,127,76.0
1951,B2,216.0,1.5,127,76.0
1952,B4,216.0,147/500,126,76.0
1953,F#3,216.0,3.0,127,76.0
1954,B2,216.0,3.0,127,76.0
1955,D4,216.0,1.5,119,76.0
1956,B3,216.0,1.5,119,76.0
1957,E-3,216.0,0.5,127,76.0
1958,B1,216.0,0.5,127,76.0
1959,F#2,216.0,0.5,127,76.0
1960,A4,216.234,73/250,124,76.0
1961,G4,216.482,261/250,126,76.0
1962,D4,216.5,0.5,101,76.0
1963,B3,216.5,0.5,101,76.0
1964,E-3,216.5,0.5,99,76.0
1965,B1,216.5,0.5,99,76.0
1966,F#2,216.5,0.5,99,76.0
1967,D4,217.0,0.5,104,76.0
1968,B3,217.0,0.5,104,76.0
1969,F#4,217.0,0.5,104,76.0
1970,E-3,217.0,0.5,95,76.0
1971,B1,217.0,0.5,95,76.0
1972,F#2,217.0,0.5,95,76.0
1973,B2,217.5,0.5,116,76.0
1974,D4,217.5,0.5,116,76.0
1975,B3,217.5,0.5,116,76.0
1976,F#4,217.5,0.5,116,76.0
1977,B4,217.5,0.5,116,76.0
1978,E-3,217.5,0.5,116,76.0
1979,D2,217.5,0.5,116,76.0
1980,F#2,217.5,0.5,116,76.0
1981,D3,218.0,0.5,99,76.0
1982,D4,218.0,0.5,98,76.0
1983,B3,218.0,0.5,98,76.0
1984,F#4,218.0,0.5,98,76.0
1985,E-3,218.0,0.5,102,76.0
1986,B1,218.0,0.5,102,76.0
1987,F#2,218.0,0.5,102,76.0
1988,B2,218.5,0.5,99,76.0
1989,D4,218.5,0.5,99,76.0
1990,B3,218.5,0.5,99,76.0
1991,E-3,218.5,0.5,92,76.0
1992,B1,218.5,0.5,92,76.0
1993,G#2,218.5,0.5,92,76.0
1994,D4,218.531,0.469,127,76.0
1995,E4,218.969,0.031,127,76.0
1996,E3,219.0,2.5,127,76.0
1997,D4,219.0,0.016,127,76.0
1998,E4,219.0,1.523,127,76.0
1999,B1,219.0,1.0,127,76.0
2000,G3,219.0,0.5,127,76.0
2001,E4,219.0,0.5,127,76.0
2002,B3,219.0,0.5,127,76.0
2003,E2,219.0,0.5,127,76.0
2004,E3,219.0,0.5,127,76.0
2005,E-3,219.0,0.5,127,76.0
2006,G3,219.0,0.5,127,76.0
2007,F#2,219.0,0.5,127,76.0
2008,G4,219.5,0.5,101,76.0
2009,G3,219.5,0.5,101,76.0
2010,E4,219.5,0.5,101,76.0
2011,B3,219.5,0.5,101,76.0
2012,E-3,219.5,0.5,99,76.0
2013,F#2,219.5,0.5,99,76.0
2014,G4,220.0,0.5,104,76.0
2015,G3,220.0,0.5,104,76.0
2016,E4,220.0,0.5,104,76.0
2017,B3,220.0,0.5,104,76.0
2018,E-3,220.0,0.5,95,76.0
2019,B1,220.0,0.5,95,76.0
2020,F#2,220.0,0.5,95,76.0
2021,D2,220.5,1.0,111,76.0
2022,G4,220.5,0.5,116,76.0
2023,G3,220.5,0.5,116,76.0
2024,E4,220.5,0.5,116,76.0
2025,B3,220.5,0.5,116,76.0
2026,E-3,220.5,0.5,116,76.0
2027,F#2,220.5,0.5,116,76.0
2028,G4,220.984,271/500,126,76.0
2029,G3,221.0,0.5,98,76.0
2030,E4,221.0,0.5,98,76.0
2031,B3,221.0,0.5,98,76.0
2032,G4,221.0,0.5,98,76.0
2033,E4,221.0,0.5,98,76.0
2034,E-3,221.0,0.5,102,76.0
2035,F#2,221.0,0.5,102,76.0
2036,E4,221.461,0.539,123,76.0
2037,E3,221.5,0.5,98,76.0
2038,B3,221.5,0.5,96,76.0
2039,G4,221.5,0.5,99,76.0
2040,G3,221.5,0.5,99,76.0
2041,E4,221.5,0.5,99,76.0
2042,B3,221.5,0.5,99,76.0
2043,E-3,221.5,0.5,93,76.0
2044,B1,221.5,0.5,93,76.0
2045,F#2,221.5,0.5,93,76.0
2046,G4,221.984,0.016,126,76.0
2047,B3,222.0,0.5,127,76.0
2048,B2,222.0,1.5,127,76.0
2049,E4,222.0,0.023,123,76.0
2050,G4,222.0,11/25,126,76.0
2051,F#3,222.0,3.0,127,76.0
2052,B2,222.0,3.0,127,76.0
2053,D4,222.0,1.5,119,76.0
2054,B3,222.0,1.5,119,76.0
2055,E-3,222.0,0.5,127,76.0
2056,B1,222.0,0.5,127,76.0
2057,F#2,222.0,0.5,127,76.0
2058,D4,222.5,0.5,101,76.0
2059,B3,222.5,0.5,101,76.0
2060,E-3,222.5,0.5,99,76.0
2061,B1,222.5,0.5,99,76.0
2062,F#2,222.5,0.5,99,76.0
2063,B3,222.969,549/1000,127,76.0
2064,D4,223.0,0.5,104,76.0
2065,B3,223.0,0.5,104,76.0
2066,F#4,223.0,0.5,104,76.0
2067,E-3,223.0,0.5,95,76.0
2068,B1,223.0,0.5,95,76.0
2069,F#2,223.0,0.5,95,76.0
2070,D4,223.474,0.562,127,76.0
2071,B2,223.5,0.5,116,76.0
2072,D4,223.5,0.5,116,76.0
2073,B3,223.5,0.5,116,76.0
2074,F#4,223.5,0.5,116,76.0
2075,B4,223.5,0.5,116,76.0
2076,E-3,223.5,0.5,116,76.0
2077,D2,223.5,0.5,116,76.0
2078,F#2,223.5,0.5,116,76.0
2079,E4,223.984,271/500,125,76.0
2080,D3,224.0,0.5,99,76.0
2081,D4,224.0,0.5,98,76.0
2082,B3,224.0,0.5,98,76.0
2083,F#4,224.0,0.5,98,76.0
2084,E-3,224.0,0.5,102,76.0
2085,B1,224.0,0.5,102,76.0
2086,F#2,224.0,0.5,102,76.0
2087,F#4,224.464,471/1000,126,76.0
2088,B2,224.5,0.5,99,76.0
2089,D4,224.5,0.5,99,76.0
2090,B3,224.5,0.5,99,76.0
2091,E-3,224.5,0.5,92,76.0
2092,B1,224.5,0.5,92,76.0
2093,G#2,224.5,0.5,92,76.0
2094,G4,224.961,0.039,126,76.0
2095,E3,225.0,2.5,127,76.0
2096,G4,225.0,199/200,126,76.0
2097,B1,225.0,1.0,127,76.0
2098,G3,225.0,0.5,127,76.0
2099,E4,225.0,0.5,127,76.0
2100,B3,225.0,0.5,127,76.0
2101,E2,225.0,0.5,127,76.0
2102,E3,225.0,0.5,127,76.0
2103,E-3,225.0,0.5,127,76.0
2104,G3,225.0,0.5,127,76.0
2105,F#2,225.0,0.5,127,76.0
2106,G4,225.5,0.5,101,76.0
2107,G3,225.5,0.5,101,76.0
2108,E4,225.5,0.5,101,76.0
2109,B3,225.5,0.5,101,76.0
2110,E-3,225.5,0.5,99,76.0
2111,F#2,225.5,0.5,99,76.0
2112,E4,226.0,503/1000,124,76.0
2113,G4,226.0,0.5,104,76.0
2114,G3,226.0,0.5,104,76.0
2115,E4,226.0,0.5,104,76.0
2116,B3,226.0,0.5,104,76.0
2117,E-3,226.0,0.5,95,76.0
2118,B1,226.0,0.5,95,76.0
2119,F#2,226.0,0.5,95,76.0
2120,D2,226.5,1.0,111,76.0
2121,G4,226.5,0.5,116,76.0
2122,G3,226.5,0.5,116,76.0
2123,E4,226.5,0.5,116,76.0
2124,B3,226.5,0.5,116,76.0
2125,E-3,226.5,0.5,116,76.0
2126,F#2,226.5,0.5,116,76.0
2127,B4,226.987,0.43,127,76.0
2128,G3,227.0,0.5,98,76.0
2129,E4,227.0,0.5,98,76.0
2130,B3,227.0,0.5,98,76.0
2131,G4,227.0,0.5,98,76.0
2132,E4,227.0,0.5,98,76.0
2133,E-3,227.0,0.5,102,76.0
2134,F#2,227.0,0.5,102,76.0
2135,A4,227.477,147/500,126,76.0
2136,E3,227.5,0.5,98,76.0
2137,B3,227.5,0.5,96,76.0
2138,G4,227.5,0.5,99,76.0
2139,G3,227.5,0.5,99,76.0
2140,E4,227.5,0.5,99,76.0
2141,B3,227.5,0.5,99,76.0
2142,E-3,227.5,0.5,93,76.0
2143,B1,227.5,0.5,93,76.0
2144,F#2,227.5,0.5,93,76.0
2145,B3,228.0,0.5,127,76.0
2146,B2,228.0,1.5,127,76.0
2147,F#3,228.0,3.0,127,76.0
2148,B2,228.0,3.0,127,76.0
2149,D4,228.0,1.5,119,76.0
2150,B3,228.0,1.5,119,76.0
2151,E-3,228.0,0.5,127,76.0
2152,B1,228.0,0.5,127,76.0
2153,F#2,228.0,0.5,127,76.0
2154,B4,228.036,271/1000,127,76.0
2155,A4,228.26,0.305,124,76.0
2156,D4,228.5,0.5,101,76.0
2157,B3,228.5,0.5,101,76.0
2158,E-3,228.5,0.5,99,76.0
2159,B1,228.5,0.5,99,76.0
2160,F#2,228.5,0.5,99,76.0
2161,G4,228.521,0.945,127,76.0
2162,D4,229.0,0.5,104,76.0
2163,B3,229.0,0.5,104,76.0
2164,F#4,229.0,0.5,104,76.0
2165,E-3,229.0,0.5,95,76.0
2166,B1,229.0,0.5,95,76.0
2167,F#2,229.0,0.5,95,76.0
2168,B2,229.5,0.5,116,76.0
2169,D4,229.5,0.5,116,76.0
2170,B3,229.5,0.5,116,76.0
2171,F#4,229.5,0.5,116,76.0
2172,B4,229.5,0.5,116,76.0
2173,E-3,229.5,0.5,116,76.0
2174,D2,229.5,0.5,116,76.0
2175,F#2,229.5,0.5,116,76.0
2176,D4,229.984,0.188,127,76.0
2177,D3,230.0,0.5,99,76.0
2178,D4,230.0,0.5,98,76.0
2179,B3,230.0,0.5,98,76.0
2180,F#4,230.0,0.5,98,76.0
2181,E-3,230.0,0.5,102,76.0
2182,B1,230.0,0.5,102,76.0
2183,F#2,230.0,0.5,102,76.0
2184,D4,230.461,0.523,127,76.0
2185,B2,230.5,0.5,99,76.0
2186,D4,230.5,0.5,99,76.0
2187,B3,230.5,0.5,99,76.0
2188,E-3,230.5,0.5,92,76.0
2189,B1,230.5,0.5,92,76.0
2190,G#2,230.5,0.5,92,76.0
2191,E4,230.945,0.055,127,76.0
2192,E3,231.0,2.5,127,76.0
2193,E4,231.0,313/200,127,76.0
2194,B1,231.0,1.0,127,76.0
2195,G3,231.0,0.5,127,76.0
2196,E4,231.0,0.5,127,76.0
2197,B3,231.0,0.5,127,76.0
2198,E2,231.0,0.5,127,76.0
2199,E3,231.0,0.5,127,76.0
2200,E-3,231.0,0.5,127,76.0
2201,G3,231.0,0.5,127,76.0
2202,F#2,231.0,0.5,127,76.0
2203,G4,231.5,0.5,101,76.0
2204,G3,231.5,0.5,101,76.0
2205,E4,231.5,0.5,101,76.0
2206,B3,231.5,0.5,101,76.0
2207,E-3,231.5,0.5,99,76.0
2208,F#2,231.5,0.5,99,76.0
2209,G4,232.0,0.5,104,76.0
2210,G3,232.0,0.5,104,76.0
2211,E4,232.0,0.5,104,76.0
2212,B3,232.0,0.5,104,76.0
2213,E-3,232.0,0.5,95,76.0
2214,B1,232.0,0.5,95,76.0
2215,F#2,232.0,0.5,95,76.0
2216,D2,232.5,1.0,111,76.0
2217,G4,232.5,0.5,116,76.0
2218,G3,232.5,0.5,116,76.0
2219,E4,232.5,0.5,116,76.0
2220,B3,232.5,0.5,116,76.0
2221,E-3,232.5,0.5,116,76.0
2222,F#2,232.5,0.5,116,76.0
2223,G4,232.982,101/200,124,76.0
2224,G3,233.0,0.5,98,76.0
2225,E4,233.0,0.5,98,76.0
2226,B3,233.0,0.5,98,76.0
2227,G4,233.0,0.5,98,76.0
2228,E4,233.0,0.5,98,76.0
2229,E-3,233.0,0.5,102,76.0
2230,F#2,233.0,0.5,102,76.0
2231,E4,233.453,0.547,122,76.0
2232,E3,233.5,0.5,98,76.0
2233,B3,233.5,0.5,96,76.0
2234,G4,233.5,0.5,99,76.0
2235,G3,233.5,0.5,99,76.0
2236,E4,233.5,0.5,99,76.0
2237,B3,233.5,0.5,99,76.0
2238,E-3,233.5,0.5,93,76.0
2239,B1,233.5,0.5,93,76.0
2240,F#2,233.5,0.5,93,76.0
2241,G4,233.977,0.023,124,76.0
2242,B3,234.0,0.5,127,76.0
2243,B2,234.0,1.5,127,76.0
2244,E4,234.0,17/500,122,76.0
2245,G4,234.0,0.5,124,76.0
2246,F#3,234.0,3.0,127,76.0
2247,B2,234.0,3.0,127,76.0
2248,D4,234.0,1.5,119,76.0
2249,B3,234.0,1.5,119,76.0
2250,E-3,234.0,0.5,127,76.0
2251,B1,234.0,0.5,127,76.0
2252,F#2,234.0,0.5,127,76.0
2253,D4,234.5,0.5,101,76.0
2254,B3,234.5,0.5,101,76.0
2255,E-3,234.5,0.5,99,76.0
2256,B1,234.5,0.5,99,76.0
2257,F#2,234.5,0.5,99,76.0
2258,A3,234.966,0.523,123,76.0
2259,D4,235.0,0.5,104,76.0
2260,B3,235.0,0.5,104,76.0
2261,F#4,235.0,0.5,104,76.0
2262,E-3,235.0,0.5,95,76.0
2263,B1,235.0,0.5,95,76.0
2264,F#2,235.0,0.5,95,76.0
2265,B3,235.448,0.594,120,76.0
2266,B2,235.5,0.5,116,76.0
2267,D4,235.5,0.5,116,76.0
2268,B3,235.5,0.5,116,76.0
2269,F#4,235.5,0.5,116,76.0
2270,B4,235.5,0.5,116,76.0
2271,E-3,235.5,0.5,116,76.0
2272,D2,235.5,0.5,116,76.0
2273,F#2,235.5,0.5,116,76.0
2274,D4,235.943,599/1000,117,76.0
2275,D3,236.0,0.5,99,76.0
2276,D4,236.0,0.5,98,76.0
2277,B3,236.0,0.5,98,76.0
2278,F#4,236.0,0.5,98,76.0
2279,E-3,236.0,0.5,102,76.0
2280,B1,236.0,0.5,102,76.0
2281,F#2,236.0,0.5,102,76.0
2282,E4,236.466,513/1000,124,76.0
2283,B2,236.5,0.5,99,76.0
2284,D4,236.5,0.5,99,76.0
2285,B3,236.5,0.5,99,76.0
2286,E-3,236.5,0.5,92,76.0
2287,B1,236.5,0.5,92,76.0
2288,G#2,236.5,0.5,92,76.0
2289,G4,236.953,0.047,127,76.0
2290,E3,237.0,2.5,127,76.0
2291,G4,237.0,199/200,127,76.0
2292,B1,237.0,1.0,127,76.0
2293,G3,237.0,0.5,127,76.0
2294,E4,237.0,0.5,127,76.0
2295,B3,237.0,0.5,127,76.0
2296,E2,237.0,0.5,127,76.0
2297,E3,237.0,0.5,127,76.0
2298,E-3,237.0,0.5,127,76.0
2299,G3,237.0,0.5,127,76.0
2300,F#2,237.0,0.5,127,76.0
2301,G4,237.5,0.5,101,76.0
2302,G3,237.5,0.5,101,76.0
2303,E4,237.5,0.5,101,76.0
2304,B3,237.5,0.5,101,76.0
2305,E-3,237.5,0.5,99,76.0
2306,F#2,237.5,0.5,99,76.0
2307,E4,237.956,101/100,126,76.0
2308,G4,238.0,0.5,104,76.0
2309,G3,238.0,0.5,104,76.0
2310,E4,238.0,0.5,104,76.0
2311,B3,238.0,0.5,104,76.0
2312,E-3,238.0,0.5,95,76.0
2313,B1,238.0,0.5,95,76.0
2314,F#2,238.0,0.5,95,76.0
2315,D2,238.5,1.0,111,76.0
2316,G4,238.5,0.5,116,76.0
2317,G3,238.5,0.5,116,76.0
2318,E4,238.5,0.5,116,76.0
2319,B3,238.5,0.5,116,76.0
2320,E-3,238.5,0.5,116,76.0
2321,F#2,238.5,0.5,116,76.0
2322,B4,238.966,529/1000,123,76.0
2323,G3,239.0,0.5,98,76.0
2324,E4,239.0,0.5,98,76.0
2325,B3,239.0,0.5,98,76.0
2326,G4,239.0,0.5,98,76.0
2327,E4,239.0,0.5,98,76.0
2328,E-3,239.0,0.5,102,76.0
2329,F#2,239.0,0.5,102,76.0
2330,A4,239.461,0.539,123,76.0
2331,E3,239.5,0.5,98,76.0
2332,B3,239.5,0.5,96,76.0
2333,G4,239.5,0.5,99,76.0
2334,G3,239.5,0.5,99,76.0
2335,E4,239.5,0.5,99,76.0
2336,B3,239.5,0.5,99,76.0
2337,E-3,239.5,0.5,93,76.0
2338,B1,239.5,0.5,93,76.0
2339,F#2,239.5,0.5,93,76.0
2340,B4,239.977,0.023,126,76.0
2341,B3,240.0,0.5,127,76.0
2342,B2,240.0,1.5,127,76.0
2343,A4,240.0,29/1000,123,76.0
2344,B4,240.0,279/1000,126,76.0
2345,F#3,240.0,3.0,127,76.0
2346,B2,240.0,3.0,127,76.0
2347,D4,240.0,1.5,119,76.0
2348,B3,240.0,1.5,119,76.0
2349,E-3,240.0,0.5,127,76.0
2350,B1,240.0,0.5,127,76.0
2351,F#2,240.0,0.5,127,76.0
2352,A4,240.227,63/200,123,76.0
2353,G4,240.492,1003/1000,124,76.0
2354,D4,240.5,0.5,101,76.0
2355,B3,240.5,0.5,101,76.0
2356,E-3,240.5,0.5,99,76.0
2357,B1,240.5,0.5,99,76.0
2358,F#2,240.5,0.5,99,76.0
2359,D4,241.0,0.5,104,76.0
2360,B3,241.0,0.5,104,76.0
2361,F#4,241.0,0.5,104,76.0
2362,E-3,241.0,0.5,95,76.0
2363,B1,241.0,0.5,95,76.0
2364,F#2,241.0,0.5,95,76.0
2365,B2,241.5,0.5,116,76.0
2366,D4,241.5,0.5,116,76.0
2367,B3,241.5,0.5,116,76.0
2368,F#4,241.5,0.5,116,76.0
2369,B4,241.5,0.5,116,76.0
2370,E-3,241.5,0.5,116,76.0
2371,D2,241.5,0.5,116,76.0
2372,F#2,241.5,0.5,116,76.0
2373,D3,242.0,0.5,99,76.0
2374,D4,242.0,0.5,98,76.0
2375,B3,242.0,0.5,98,76.0
2376,F#4,242.0,0.5,98,76.0
2377,E-3,242.0,0.5,102,76.0
2378,B1,242.0,0.5,102,76.0
2379,F#2,242.0,0.5,102,76.0
2380,D4,242.036,69/250,127,76.0
2381,B2,242.5,0.5,99,76.0
2382,D4,242.5,0.5,99,76.0
2383,B3,242.5,0.5,99,76.0
2384,E-3,242.5,0.5,92,76.0
2385,B1,242.5,0.5,92,76.0
2386,G#2,242.5,0.5,92,76.0
2387,D4,242.536,58/125,127,76.0
2388,E4,242.995,1/200,127,76.0
2389,E3,243.0,2.5,127,76.0
2390,D4,243.0,49/1000,127,76.0
2391,E4,243.0,1581/1000,127,76.0
2392,B1,243.0,1.0,127,76.0
2393,G3,243.0,0.5,127,76.0
2394,E4,243.0,0.5,127,76.0
2395,B3,243.0,0.5,127,76.0
2396,E2,243.0,0.5,127,76.0
2397,E3,243.0,0.5,127,76.0
2398,E-3,243.0,0.5,127,76.0
2399,G3,243.0,0.5,127,76.0
2400,F#2,243.0,0.5,127,76.0
2401,G4,243.5,0.5,101,76.0
2402,G3,243.5,0.5,101,76.0
2403,E4,243.5,0.5,101,76.0
2404,B3,243.5,0.5,101,76.0
2405,E-3,243.5,0.5,99,76.0
2406,F#2,243.5,0.5,99,76.0
2407,G4,244.0,0.5,104,76.0
2408,G3,244.0,0.5,104,76.0
2409,E4,244.0,0.5,104,76.0
2410,B3,244.0,0.5,104,76.0
2411,E-3,244.0,0.5,95,76.0
2412,B1,244.0,0.5,95,76.0
2413,F#2,244.0,0.5,95,76.0
2414,D2,244.5,1.0,111,76.0
2415,G4,244.5,0.5,116,76.0
2416,G3,244.5,0.5,116,76.0
2417,E4,244.5,0.5,116,76.0
2418,B3,244.5,0.5,116,76.0
2419,E-3,244.5,0.5,116,76.0
2420,F#2,244.5,0.5,116,76.0
2421,G4,245.0,521/1000,127,76.0
2422,G3,245.0,0.5,98,76.0
2423,E4,245.0,0.5,98,76.0
2424,B3,245.0,0.5,98,76.0
2425,G4,245.0,0.5,98,76.0
2426,E4,245.0,0.5,98,76.0
2427,E-3,245.0,0.5,102,76.0
2428,F#2,245.0,0.5,102,76.0
2429,E4,245.482,259/500,123,76.0
2430,E3,245.5,0.5,98,76.0
2431,B3,245.5,0.5,96,76.0
2432,G4,245.5,0.5,99,76.0
2433,G3,245.5,0.5,99,76.0
2434,E4,245.5,0.5,99,76.0
2435,B3,245.5,0.5,99,76.0
2436,E-3,245.5,0.5,93,76.0
2437,B1,245.5,0.5,93,76.0
2438,F#2,245.5,0.5,93,76.0
2439,G4,245.987,13/1000,127,76.0
2440,B3,246.0,0.5,127,76.0
2441,B2,246.0,1.5,127,76.0
2442,E4,246.0,21/1000,123,76.0
2443,G4,246.0,97/250,127,76.0
2444,F#3,246.0,3.0,127,76.0
2445,B2,246.0,3.0,127,76.0
2446,D4,246.0,1.5,119,76.0
2447,B3,246.0,1.5,119,76.0
2448,E-3,246.0,0.5,127,76.0
2449,B1,246.0,0.5,127,76.0
2450,F#2,246.0,0.5,127,76.0
2451,D4,246.5,0.5,101,76.0
2452,B3,246.5,0.5,101,76.0
2453,E-3,246.5,0.5,99,76.0
2454,B1,246.5,0.5,99,76.0
2455,F#2,246.5,0.5,99,76.0
2456,B3,246.977,271/500,127,76.0
2457,D4,247.0,0.5,104,76.0
2458,B3,247.0,0.5,104,76.0
2459,F#4,247.0,0.5,104,76.0
2460,E-3,247.0,0.5,95,76.0
2461,B1,247.0,0.5,95,76.0
2462,F#2,247.0,0.5,95,76.0
2463,D4,247.492,0.555,127,76.0
2464,B2,247.5,0.5,116,76.0
2465,D4,247.5,0.5,116,76.0
2466,B3,247.5,0.5,116,76.0
2467,F#4,247.5,0.5,116,76.0
2468,B4,247.5,0.5,116,76.0
2469,E-3,247.5,0.5,116,76.0
2470,D2,247.5,0.5,116,76.0
2471,F#2,247.5,0.5,116,76.0
2472,D3,248.0,0.5,99,76.0
2473,D4,248.0,0.5,98,76.0
2474,B3,248.0,0.5,98,76.0
2475,F#4,248.0,0.5,98,76.0
2476,E-3,248.0,0.5,102,76.0
2477,B1,248.0,0.5,102,76.0
2478,F#2,248.0,0.5,102,76.0
2479,E4,248.031,51/100,126,76.0
2480,F#4,248.495,101/200,127,76.0
2481,B2,248.5,0.5,99,76.0
2482,D4,248.5,0.5,99,76.0
2483,B3,248.5,0.5,99,76.0
2484,E-3,248.5,0.5,92,76.0
2485,B1,248.5,0.5,92,76.0
2486,G#2,248.5,0.5,92,76.0
2487,G4,248.951,49/1000,126,76.0
2488,E3,249.0,2.5,127,76.0
2489,F#4,249.0,9/250,127,76.0
2490,G4,249.0,409/500,126,76.0
2491,B1,249.0,1.0,127,76.0
2492,G3,249.0,0.5,127,76.0
2493,E4,249.0,0.5,127,76.0
2494,B3,249.0,0.5,127,76.0
2495,E2,249.0,0.5,127,76.0
2496,E3,249.0,0.5,127,76.0
2497,E-3,249.0,0.5,127,76.0
2498,G3,249.0,0.5,127,76.0
2499,F#2,249.0,0.5,127,76.0
2500,G4,249.5,0.5,101,76.0
2501,G3,249.5,0.5,101,76.0
2502,E4,249.5,0.5,101,76.0
2503,B3,249.5,0.5,101,76.0
2504,E-3,249.5,0.5,99,76.0
2505,F#2,249.5,0.5,99,76.0
2506,E4,249.969,101/200,122,76.0
2507,G4,250.0,0.5,104,76.0
2508,G3,250.0,0.5,104,76.0
2509,E4,250.0,0.5,104,76.0
2510,B3,250.0,0.5,104,76.0
2511,E-3,250.0,0.5,95,76.0
2512,B1,250.0,0.5,95,76.0
2513,F#2,250.0,0.5,95,76.0
2514,D2,250.5,1.0,111,76.0
2515,G4,250.5,0.5,116,76.0
2516,G3,250.5,0.5,116,76.0
2517,E4,250.5,0.5,116,76.0
2518,B3,250.5,0.5,116,76.0
2519,E-3,250.5,0.5,116,76.0
2520,F#2,250.5,0.5,116,76.0
2521,B4,250.969,409/1000,126,76.0
2522,G3,251.0,0.5,98,76.0
2523,E4,251.0,0.5,98,76.0
2524,B3,251.0,0.5,98,76.0
2525,G4,251.0,0.5,98,76.0
2526,E4,251.0,0.5,98,76.0
2527,E-3,251.0,0.5,102,76.0
2528,F#2,251.0,0.5,102,76.0
2529,A4,251.458,93/250,125,76.0
2530,E3,251.5,0.5,98,76.0
2531,B3,251.5,0.5,96,76.0
2532,G4,251.5,0.5,99,76.0
2533,G3,251.5,0.5,99,76.0
2534,E4,251.5,0.5,99,76.0
2535,B3,251.5,0.5,99,76.0
2536,E-3,251.5,0.5,93,76.0
2537,B1,251.5,0.5,93,76.0
2538,F#2,251.5,0.5,93,76.0
2539,B3,252.0,0.5,127,76.0
2540,B2,252.0,1.5,127,76.0
2541,F#3,252.0,3.0,127,76.0
2542,B2,252.0,3.0,127,76.0
2543,D4,252.0,1.5,119,76.0
2544,B3,252.0,1.5,119,76.0
2545,E-3,252.0,0.5,127,76.0
2546,B1,252.0,0.5,127,76.0
2547,F#2,252.0,0.5,127,76.0
2548,B4,252.026,0.312,127,76.0
2549,A4,252.268,31/100,121,76.0
2550,D4,252.5,0.5,101,76.0
2551,B3,252.5,0.5,101,76.0
2552,E-3,252.5,0.5,99,76.0
2553,B1,252.5,0.5,99,76.0
2554,F#2,252.5,0.5,99,76.0
2555,G4,252.526,187/200,125,76.0
2556,D4,253.0,0.5,104,76.0
2557,B3,253.0,0.5,104,76.0
2558,F#4,253.0,0.5,104,76.0
2559,E-3,253.0,0.5,95,76.0
2560,B1,253.0,0.5,95,76.0
2561,F#2,253.0,0.5,95,76.0
2562,B2,253.5,0.5,116,76.0
2563,D4,253.5,0.5,116,76.0
2564,B3,253.5,0.5,116,76.0
2565,F#4,253.5,0.5,116,76.0
2566,B4,253.5,0.5,116,76.0
2567,E-3,253.5,0.5,116,76.0
2568,D2,253.5,0.5,116,76.0
2569,F#2,253.5,0.5,116,76.0
2570,D4,253.971,28/125,127,76.0
2571,D3,254.0,0.5,99,76.0
2572,D4,254.0,0.5,98,76.0
2573,B3,254.0,0.5,98,76.0
2574,F#4,254.0,0.5,98,76.0
2575,E-3,254.0,0.5,102,76.0
2576,B1,254.0,0.5,102,76.0
2577,F#2,254.0,0.5,102,76.0
2578,D4,254.451,549/1000,127,76.0
2579,B2,254.5,0.5,99,76.0
2580,D4,254.5,0.5,99,76.0
2581,B3,254.5,0.5,99,76.0
2582,E-3,254.5,0.5,92,76.0
2583,B1,254.5,0.5,92,76.0
2584,G#2,254.5,0.5,92,76.0
2585,E4,254.943,57/1000,127,76.0
2586,E3,255.0,2.5,127,76.0
2587,D4,255.0,0.031,127,76.0
2588,E4,255.0,196/125,127,76.0
2589,B1,255.0,1.0,127,76.0
2590,G3,255.0,0.5,127,76.0
2591,E4,255.0,0.5,127,76.0
2592,B3,255.0,0.5,127,76.0
2593,E2,255.0,0.5,127,76.0
2594,E3,255.0,0.5,127,76.0
2595,E-3,255.0,0.5,127,76.0
2596,G3,255.0,0.5,127,76.0
2597,F#2,255.0,0.5,127,76.0
2598,G4,255.5,0.5,101,76.0
2599,G3,255.5,0.5,101,76.0
2600,E4,255.5,0.5,101,76.0
2601,B3,255.5,0.5,101,76.0
2602,E-3,255.5,0.5,99,76.0
2603,F#2,255.5,0.5,99,76.0
2604,G4,256.0,0.5,104,76.0
2605,G3,256.0,0.5,104,76.0
2606,E4,256.0,0.5,104,76.0
2607,B3,256.0,0.5,104,76.0
2608,E-3,256.0,0.5,95,76.0
2609,B1,256.0,0.5,95,76.0
2610,F#2,256.0,0.5,95,76.0
2611,D2,256.5,1.0,111,76.0
2612,G4,256.5,0.5,116,76.0
2613,G3,256.5,0.5,116,76.0
2614,E4,256.5,0.5,116,76.0
2615,B3,256.5,0.5,116,76.0
2616,E-3,256.5,0.5,116,76.0
2617,F#2,256.5,0.5,116,76.0
2618,G4,256.979,0.492,124,76.0
2619,G3,257.0,0.5,98,76.0
2620,E4,257.0,0.5,98,76.0
2621,B3,257.0,0.5,98,76.0
2622,G4,257.0,0.5,98,76.0
2623,E4,257.0,0.5,98,76.0
2624,E-3,257.0,0.5,102,76.0
2625,F#2,257.0,0.5,102,76.0
2626,E4,257.448,0.539,122,76.0
2627,E3,257.5,0.5,98,76.0
2628,B3,257.5,0.5,96,76.0
2629,G4,257.5,0.5,99,76.0
2630,G3,257.5,0.5,99,76.0
2631,E4,257.5,0.5,99,76.0
2632,B3,257.5,0.5,99,76.0
2633,E-3,257.5,0.5,93,76.0
2634,B1,257.5,0.5,93,76.0
2635,F#2,257.5,0.5,93,76.0
2636,G4,257.958,21/500,125,76.0
2637,B3,258.0,0.5,127,76.0
2638,B2,258.0,1.5,127,76.0
2639,G4,258.0,1.781,125,76.0
2640,F#3,258.0,3.0,127,76.0
2641,B2,258.0,3.0,127,76.0
2642,D4,258.0,1.5,119,76.0
2643,B3,258.0,1.5,119,76.0
2644,E-3,258.0,0.5,127,76.0
2645,B1,258.0,0.5,127,76.0
2646,F#2,258.0,0.5,127,76.0
2647,D4,258.5,0.5,101,76.0
2648,B3,258.5,0.5,101,76.0
2649,E-3,258.5,0.5,99,76.0
2650,B1,258.5,0.5,99,76.0
2651,F#2,258.5,0.5,99,76.0
2652,D4,259.0,0.5,104,76.0
2653,B3,259.0,0.5,104,76.0
2654,F#4,259.0,0.5,104,76.0
2655,E-3,259.0,0.5,95,76.0
2656,B1,259.0,0.5,95,76.0
2657,F#2,259.0,0.5,95,76.0
2658,B2,259.5,0.5,116,76.0
2659,D4,259.5,0.5,116,76.0
2660,B3,259.5,0.5,116,76.0
2661,F#4,259.5,0.5,116,76.0
2662,B4,259.5,0.5,116,76.0
2663,E-3,259.5,0.5,116,76.0
2664,D2,259.5,0.5,116,76.0
2665,F#2,259.5,0.5,116,76.0
2666,D3,260.0,0.5,99,76.0
2667,D4,260.0,0.5,98,76.0
2668,B3,260.0,0.5,98,76.0
2669,F#4,260.0,0.5,98,76.0
2670,E-3,260.0,0.5,102,76.0
2671,B1,260.0,0.5,102,76.0
2672,F#2,260.0,0.5,102,76.0
2673,B2,260.5,0.5,99,76.0
2674,D4,260.5,0.5,99,76.0
2675,B3,260.5,0.5,99,76.0
2676,E-3,260.5,0.5,92,76.0
2677,B1,260.5,0.5,92,76.0
2678,G#2,260.5,0.5,92,76.0
2679,G3,261.0,0.5,120,76.0
2680,E2,261.0,0.5,120,76.0
2681,E4,261.049,2833/1000,122,76.0
2682,B3,261.5,0.5,96,76.0
2683,E4,262.0,0.5,99,76.0
2684,E4,262.5,0.5,114,76.0
2685,B3,263.0,0.5,91,76.0
2686,G3,263.5,0.5,99,76.0
