,note_name,start_time,duration,velocity,tempo
0,E3,0.0,0.25,127,140.0
1,E3,0.25,0.25,127,140.0
2,D3,0.5,0.25,127,140.0
3,C#3,0.75,0.25,127,140.0
4,B2,1.0,0.25,127,140.0
5,A2,1.25,0.25,127,140.0
6,G#2,1.5,0.25,127,140.0
7,E2,1.75,0.25,102,140.0
8,E3,2.0,0.25,127,140.0
9,E3,2.25,0.25,127,140.0
10,D3,2.5,0.25,127,140.0
11,C#3,2.75,0.25,127,140.0
12,B2,3.0,0.25,127,140.0
13,A2,3.25,0.25,127,140.0
14,G#2,3.5,0.25,127,140.0
15,E2,3.75,0.25,102,140.0
16,E3,4.0,0.25,127,140.0
17,E3,4.25,0.25,127,140.0
18,D3,4.5,0.25,127,140.0
19,C#3,4.75,0.25,127,140.0
20,B2,5.0,0.25,127,140.0
21,A2,5.25,0.25,127,140.0
22,G#2,5.5,0.25,127,140.0
23,E2,5.75,0.25,102,140.0
24,E3,6.0,0.25,127,140.0
25,E3,6.25,0.25,127,140.0
26,D3,6.5,0.25,127,140.0
27,C#3,6.75,0.25,127,140.0
28,B2,7.0,0.25,127,140.0
29,A2,7.25,0.25,127,140.0
30,G#2,7.5,0.25,127,140.0
31,E2,7.75,0.25,102,140.0
32,E3,8.0,0.25,127,140.0
33,E4,8.25,73/1000,95,140.0
34,E3,8.25,0.25,127,140.0
35,B3,8.5,73/1000,95,140.0
36,D3,8.5,0.25,127,140.0
37,C#3,8.75,0.25,127,140.0
38,G3,8.833,73/1000,95,140.0
39,B2,9.0,0.25,127,140.0
40,B3,9.25,73/1000,95,140.0
41,A2,9.25,0.25,127,140.0
42,G#2,9.5,0.25,127,140.0
43,G3,9.75,73/1000,95,140.0
44,E2,9.75,0.25,102,140.0
45,B3,10.0,73/1000,95,140.0
46,E3,10.0,0.25,127,140.0
47,E3,10.25,0.25,127,140.0
48,G3,10.5,73/1000,95,140.0
49,D3,10.5,0.25,127,140.0
50,C#3,10.75,0.25,127,140.0
51,E4,11.0,73/1000,95,140.0
52,B2,11.0,0.25,127,140.0
53,A2,11.25,0.25,127,140.0
54,B3,11.333,73/1000,95,140.0
55,G#2,11.5,0.25,127,140.0
56,B3,11.667,73/1000,95,140.0
57,E2,11.75,0.25,102,140.0
58,E3,12.0,0.25,127,140.0
59,G3,12.25,73/1000,95,140.0
60,E3,12.25,0.25,127,140.0
61,D3,12.5,0.25,127,140.0
62,C#3,12.75,0.25,127,140.0
63,D3,13.0,73/1000,95,140.0
64,B2,13.0,0.25,127,140.0
65,A2,13.25,0.25,127,140.0
66,G#2,13.5,0.25,127,140.0
67,E2,13.75,0.25,102,140.0
68,E3,14.0,0.25,127,140.0
69,E3,14.25,0.25,127,140.0
70,D3,14.5,0.25,127,140.0
71,C#3,14.75,0.25,127,140.0
72,B2,15.0,0.25,127,140.0
73,A2,15.25,0.25,127,140.0
74,G#2,15.5,0.25,127,140.0
75,E2,15.75,0.25,102,140.0
76,E3,16.0,0.25,127,140.0
77,E3,16.25,0.25,127,140.0
78,D3,16.5,0.25,127,140.0
79,C#3,16.75,0.25,127,140.0
80,B2,17.0,0.25,127,140.0
81,A2,17.25,0.25,127,140.0
82,G#2,17.5,0.25,127,140.0
83,E2,17.75,0.25,102,140.0
84,A3,17.75,0.25,127,140.0
85,F#3,17.75,0.25,127,140.0
86,E3,18.0,0.25,127,140.0
87,E3,18.25,0.25,127,140.0
88,A3,18.25,0.25,127,140.0
89,F#3,18.25,0.25,127,140.0
90,D3,18.5,0.25,127,140.0
91,C#3,18.75,0.25,127,140.0
92,A3,18.75,0.25,127,140.0
93,F#3,18.75,0.25,127,140.0
94,B2,19.0,0.25,127,140.0
95,A2,19.25,0.25,127,140.0
96,A3,19.25,0.25,127,140.0
97,F#3,19.25,0.25,127,140.0
98,G#2,19.5,0.25,127,140.0
99,B3,19.5,0.5,127,140.0
100,G#3,19.5,0.5,127,140.0
101,E2,19.75,0.25,102,140.0
102,E3,20.0,0.25,127,140.0
103,E3,20.25,0.25,127,140.0
104,D3,20.5,0.25,127,140.0
105,C#3,20.75,0.25,127,140.0
106,B2,21.0,0.25,127,140.0
107,A2,21.25,0.25,127,140.0
108,G#2,21.5,0.25,127,140.0
109,E2,21.75,0.25,102,140.0
110,A3,21.75,0.25,127,140.0
111,F#3,21.75,0.25,127,140.0
112,E3,22.0,0.25,127,140.0
113,E3,22.25,0.25,127,140.0
114,E3,22.25,0.25,127,140.0
115,A2,22.25,0.25,127,140.0
116,D3,22.5,0.25,127,140.0
117,C#3,22.75,0.25,127,140.0
118,D3,22.75,0.75,127,140.0
119,G2,22.75,0.75,127,140.0
120,B2,23.0,0.25,127,140.0
121,A2,23.25,0.25,127,140.0
122,G#2,23.5,0.25,127,140.0
123,E2,23.75,0.25,102,140.0
124,E3,24.0,0.25,127,140.0
125,E3,24.25,0.25,127,140.0
126,D3,24.5,0.25,127,140.0
127,C#3,24.75,0.25,127,140.0
128,B2,25.0,0.25,127,140.0
129,A2,25.25,0.25,127,140.0
130,G#2,25.5,0.25,127,140.0
131,E2,25.75,0.25,102,140.0
132,A3,25.75,0.25,127,140.0
133,F#3,25.75,0.25,127,140.0
134,E3,26.0,0.25,127,140.0
135,E3,26.25,0.25,127,140.0
136,A3,26.25,0.25,127,140.0
137,F#3,26.25,0.25,127,140.0
138,D3,26.5,0.25,127,140.0
139,C#3,26.75,0.25,127,140.0
140,A3,26.75,0.25,127,140.0
141,F#3,26.75,0.25,127,140.0
142,B2,27.0,0.25,127,140.0
143,A2,27.25,0.25,127,140.0
144,A3,27.25,0.25,127,140.0
145,F#3,27.25,0.25,127,140.0
146,G#2,27.5,0.25,127,140.0
147,B3,27.5,0.5,127,140.0
148,G#3,27.5,0.5,127,140.0
149,E2,27.75,0.25,102,140.0
150,E3,28.0,0.25,127,140.0
151,E3,28.25,0.25,127,140.0
152,D3,28.5,0.25,127,140.0
153,C#3,28.75,0.25,127,140.0
154,B2,29.0,0.25,127,140.0
155,A2,29.25,0.25,127,140.0
156,G#2,29.5,0.25,127,140.0
157,E2,29.75,0.25,102,140.0
158,A3,29.75,0.25,127,140.0
159,F#3,29.75,0.25,127,140.0
160,E3,30.0,0.25,127,140.0
161,E3,30.25,0.25,127,140.0
162,E3,30.25,0.25,127,140.0
163,A2,30.25,0.25,127,140.0
164,D3,30.5,0.25,127,140.0
165,C#3,30.75,0.25,127,140.0
166,D3,30.75,0.75,127,140.0
167,G2,30.75,0.75,127,140.0
168,F#3,31.0,0.5,127,140.0
169,B2,31.0,0.25,127,140.0
170,A2,31.25,0.25,127,140.0
171,E3,31.5,0.5,127,140.0
172,G#2,31.5,0.25,127,140.0
173,E2,31.75,0.25,102,140.0
174,F#3,32.0,0.5,127,140.0
175,E2,32.0,0.5,127,140.0
176,E2,32.0,0.5,127,140.0
177,G#3,32.5,0.25,127,140.0
178,G2,32.5,0.25,127,140.0
179,G2,32.5,0.25,127,140.0
180,E3,32.75,0.5,127,140.0
181,G#2,32.75,0.25,127,140.0
182,G#2,32.75,0.25,127,140.0
183,E3,33.0,0.25,127,140.0
184,E3,33.0,0.25,127,140.0
185,E3,33.25,0.5,127,140.0
186,E3,33.25,0.25,127,140.0
187,E3,33.25,0.25,127,140.0
188,D3,33.5,0.25,127,140.0
189,D3,33.5,0.25,127,140.0
190,E3,33.75,0.5,127,140.0
191,A3,33.75,0.25,127,140.0
192,F#3,33.75,0.25,127,140.0
193,E3,34.25,0.25,127,140.0
194,A3,34.25,0.25,127,140.0
195,F#3,34.25,0.25,127,140.0
196,D3,34.5,1.0,127,140.0
197,A3,34.75,0.25,127,140.0
198,F#3,34.75,0.25,127,140.0
199,A3,35.25,0.25,127,140.0
200,F#3,35.25,0.25,127,140.0
201,E3,35.5,0.5,127,140.0
202,B3,35.5,0.5,127,140.0
203,G#3,35.5,0.5,127,140.0
204,E3,36.0,0.5,127,140.0
205,E2,36.0,0.5,127,140.0
206,E2,36.0,0.5,127,140.0
207,D3,36.5,0.5,127,140.0
208,G2,36.5,0.25,127,140.0
209,G2,36.5,0.25,127,140.0
210,G#2,36.75,0.25,127,140.0
211,G#2,36.75,0.25,127,140.0
212,E3,37.0,0.25,127,140.0
213,E3,37.0,0.25,127,140.0
214,E3,37.0,0.25,127,140.0
215,D3,37.25,0.5,127,140.0
216,E3,37.25,0.25,127,140.0
217,E3,37.25,0.25,127,140.0
218,D3,37.5,0.25,127,140.0
219,D3,37.5,0.25,127,140.0
220,G3,37.75,1.25,127,140.0
221,A3,37.75,0.25,127,140.0
222,F#3,37.75,0.25,127,140.0
223,E3,38.25,0.25,127,140.0
224,A2,38.25,0.25,127,140.0
225,D3,38.75,1.25,127,140.0
226,G2,38.75,1.25,127,140.0
227,E3,39.5,0.5,127,140.0
228,E3,40.0,0.25,127,140.0
229,E2,40.0,0.5,127,140.0
230,E2,40.0,0.5,127,140.0
231,D3,40.25,0.75,127,140.0
232,G2,40.5,0.25,127,140.0
233,G2,40.5,0.25,127,140.0
234,G#2,40.75,0.25,127,140.0
235,G#2,40.75,0.25,127,140.0
236,E3,41.0,0.5,127,140.0
237,E3,41.0,0.25,127,140.0
238,E3,41.0,0.25,127,140.0
239,E3,41.25,0.25,127,140.0
240,E3,41.25,0.25,127,140.0
241,D3,41.5,0.25,127,140.0
242,D3,41.5,0.25,127,140.0
243,D3,41.5,0.25,127,140.0
244,G3,41.75,0.5,127,140.0
245,A3,41.75,0.25,127,140.0
246,F#3,41.75,0.25,127,140.0
247,E3,42.25,0.75,127,140.0
248,A3,42.25,0.25,127,140.0
249,F#3,42.25,0.25,127,140.0
250,A3,42.75,0.25,127,140.0
251,F#3,42.75,0.25,127,140.0
252,E3,43.25,0.5,127,140.0
253,A3,43.25,0.25,127,140.0
254,F#3,43.25,0.25,127,140.0
255,B3,43.5,0.5,127,140.0
256,G#3,43.5,0.5,127,140.0
257,D3,43.75,0.25,127,140.0
258,D3,44.0,0.5,127,140.0
259,E2,44.0,0.5,127,140.0
260,E2,44.0,0.5,127,140.0
261,E3,44.5,0.5,127,140.0
262,G2,44.5,0.25,127,140.0
263,G2,44.5,0.25,127,140.0
264,G#2,44.75,0.25,127,140.0
265,G#2,44.75,0.25,127,140.0
266,E3,45.0,0.25,127,140.0
267,E3,45.0,0.25,127,140.0
268,E3,45.0,0.25,127,140.0
269,D3,45.25,0.5,127,140.0
270,E3,45.25,0.25,127,140.0
271,E3,45.25,0.25,127,140.0
272,D3,45.5,0.25,127,140.0
273,D3,45.5,0.25,127,140.0
274,G3,45.75,1.25,127,140.0
275,A3,45.75,0.25,127,140.0
276,F#3,45.75,0.25,127,140.0
277,E3,46.25,0.25,127,140.0
278,A2,46.25,0.25,127,140.0
279,D3,46.75,1.25,127,140.0
280,G2,46.75,1.25,127,140.0
281,G3,47.25,0.25,127,140.0
282,C#3,47.5,0.5,127,140.0
283,E3,48.0,0.25,127,140.0
284,E2,48.0,0.5,127,140.0
285,E2,48.0,0.5,127,140.0
286,C#3,48.25,0.75,127,140.0
287,G2,48.5,0.25,127,140.0
288,G2,48.5,0.25,127,140.0
289,G#2,48.75,0.25,127,140.0
290,G#2,48.75,0.25,127,140.0
291,E3,49.0,0.25,127,140.0
292,E3,49.0,0.25,127,140.0
293,E3,49.0,0.25,127,140.0
294,D3,49.25,0.5,127,140.0
295,E3,49.25,0.25,127,140.0
296,E3,49.25,0.25,127,140.0
297,D3,49.5,0.25,127,140.0
298,D3,49.5,0.25,127,140.0
299,G#3,49.75,0.5,127,140.0
300,A3,49.75,0.25,127,140.0
301,F#3,49.75,0.25,127,140.0
302,B2,50.25,0.75,127,140.0
303,A3,50.25,0.25,127,140.0
304,F#3,50.25,0.25,127,140.0
305,A3,50.75,0.25,127,140.0
306,F#3,50.75,0.25,127,140.0
307,E3,51.25,0.5,127,140.0
308,A3,51.25,0.25,127,140.0
309,F#3,51.25,0.25,127,140.0
310,B3,51.5,0.5,127,140.0
311,G#3,51.5,0.5,127,140.0
312,E3,51.75,0.25,127,140.0
313,E3,52.0,0.5,127,140.0
314,E2,52.0,0.5,127,140.0
315,E2,52.0,0.5,127,140.0
316,D3,52.5,0.25,127,140.0
317,G2,52.5,0.25,127,140.0
318,G2,52.5,0.25,127,140.0
319,E3,52.75,0.5,127,140.0
320,G#2,52.75,0.25,127,140.0
321,G#2,52.75,0.25,127,140.0
322,E3,53.0,0.25,127,140.0
323,E3,53.0,0.25,127,140.0
324,D3,53.25,0.5,127,140.0
325,E3,53.25,0.25,127,140.0
326,E3,53.25,0.25,127,140.0
327,D3,53.5,0.25,127,140.0
328,D3,53.5,0.25,127,140.0
329,G3,53.75,1.25,127,140.0
330,A3,53.75,0.25,127,140.0
331,F#3,53.75,0.25,127,140.0
332,E3,54.25,0.25,127,140.0
333,A2,54.25,0.25,127,140.0
334,D3,54.75,1.25,127,140.0
335,G2,54.75,1.25,127,140.0
336,D3,55.5,0.25,127,140.0
337,E3,55.75,0.25,127,140.0
338,G3,56.0,0.5,127,140.0
339,D4,56.0,0.5,127,140.0
340,B3,56.0,0.5,127,140.0
341,G3,56.5,0.25,127,140.0
342,D4,56.5,0.25,127,140.0
343,B3,56.5,0.25,127,140.0
344,E3,56.75,0.5,127,140.0
345,B3,56.75,0.5,127,140.0
346,G3,56.75,0.5,127,140.0
347,D3,57.25,0.25,127,140.0
348,B3,57.25,0.25,127,140.0
349,G3,57.25,0.25,127,140.0
350,G3,57.5,0.5,127,140.0
351,D4,57.5,0.5,127,140.0
352,B3,57.5,0.5,127,140.0
353,G3,58.0,0.25,127,140.0
354,D4,58.0,0.25,127,140.0
355,B3,58.0,0.25,127,140.0
356,D3,58.25,0.5,127,140.0
357,B3,58.25,0.5,127,140.0
358,G3,58.25,0.5,127,140.0
359,D3,58.75,0.25,127,140.0
360,B3,58.75,0.25,127,140.0
361,G3,58.75,0.25,127,140.0
362,G3,59.0,0.5,127,140.0
363,D4,59.0,0.5,127,140.0
364,B3,59.0,0.5,127,140.0
365,G3,59.5,0.25,127,140.0
366,D4,59.5,0.25,127,140.0
367,B3,59.5,0.25,127,140.0
368,D3,59.75,0.75,127,140.0
369,B3,59.75,0.75,127,140.0
370,G3,59.75,0.75,127,140.0
371,D3,60.5,0.5,127,140.0
372,B3,60.5,0.5,127,140.0
373,G3,60.5,0.5,127,140.0
374,D3,61.0,4.0,127,140.0
375,A3,61.0,4.0,127,140.0
376,F#3,61.0,4.0,127,140.0
377,D3,65.0,1.0,127,140.0
378,A3,65.0,4.0,127,140.0
379,F#3,65.0,4.0,127,140.0
380,A2,66.0,1.0,127,140.0
381,E3,68.75,0.25,127,140.0
382,G3,69.0,0.5,127,140.0
383,D4,69.0,0.5,127,140.0
384,B3,69.0,0.5,127,140.0
385,G3,69.5,0.25,127,140.0
386,D4,69.5,0.25,127,140.0
387,B3,69.5,0.25,127,140.0
388,E3,69.75,0.5,127,140.0
389,B3,69.75,0.5,127,140.0
390,G3,69.75,0.5,127,140.0
391,E3,70.25,0.25,127,140.0
392,B3,70.25,0.25,127,140.0
393,G3,70.25,0.25,127,140.0
394,G3,70.5,0.5,127,140.0
395,D4,70.5,0.5,127,140.0
396,B3,70.5,0.5,127,140.0
397,G3,71.0,0.25,127,140.0
398,D4,71.0,0.25,127,140.0
399,B3,71.0,0.25,127,140.0
400,D3,71.25,0.5,127,140.0
401,B3,71.25,0.5,127,140.0
402,G3,71.25,0.5,127,140.0
403,D3,71.75,0.25,127,140.0
404,B3,71.75,0.25,127,140.0
405,G3,71.75,0.25,127,140.0
406,G3,72.0,0.5,127,140.0
407,D4,72.0,0.5,127,140.0
408,B3,72.0,0.5,127,140.0
409,G3,72.5,0.25,127,140.0
410,D4,72.5,0.25,127,140.0
411,B3,72.5,0.25,127,140.0
412,D3,72.75,0.75,127,140.0
413,B3,72.75,0.75,127,140.0
414,G3,72.75,0.75,127,140.0
415,D3,73.5,0.5,127,140.0
416,B3,73.5,0.5,127,140.0
417,G3,73.5,0.5,127,140.0
418,D3,74.0,3.5,127,140.0
419,A3,74.0,4.0,127,140.0
420,F#3,74.0,4.0,127,140.0
421,A2,77.5,0.5,127,140.0
422,F#3,78.0,0.5,127,140.0
423,A3,78.0,4.0,127,140.0
424,F#3,78.0,4.0,127,140.0
425,A2,78.5,1.0,127,140.0
426,E3,81.75,0.25,127,140.0
427,G3,82.0,0.5,127,140.0
428,D4,82.0,0.5,127,140.0
429,B3,82.0,0.5,127,140.0
430,G3,82.5,0.25,127,140.0
431,D4,82.5,0.25,127,140.0
432,B3,82.5,0.25,127,140.0
433,E3,82.75,0.5,127,140.0
434,B3,82.75,0.5,127,140.0
435,G3,82.75,0.5,127,140.0
436,E3,83.25,0.25,127,140.0
437,B3,83.25,0.25,127,140.0
438,G3,83.25,0.25,127,140.0
439,G3,83.5,0.5,127,140.0
440,D4,83.5,0.5,127,140.0
441,B3,83.5,0.5,127,140.0
442,G3,84.0,0.25,127,140.0
443,D4,84.0,0.25,127,140.0
444,B3,84.0,0.25,127,140.0
445,D3,84.25,0.5,127,140.0
446,B3,84.25,0.5,127,140.0
447,G3,84.25,0.5,127,140.0
448,D3,84.75,0.25,127,140.0
449,B3,84.75,0.25,127,140.0
450,G3,84.75,0.25,127,140.0
451,G3,85.0,0.5,127,140.0
452,D4,85.0,0.5,127,140.0
453,B3,85.0,0.5,127,140.0
454,G3,85.5,0.25,127,140.0
455,D4,85.5,0.25,127,140.0
456,B3,85.5,0.25,127,140.0
457,D3,85.75,0.75,127,140.0
458,B3,85.75,0.75,127,140.0
459,G3,85.75,0.75,127,140.0
460,D3,86.5,0.5,127,140.0
461,B3,86.5,0.5,127,140.0
462,G3,86.5,0.5,127,140.0
463,D3,87.0,4.0,127,140.0
464,A3,87.0,4.0,127,140.0
465,F#3,87.0,4.0,127,140.0
466,D3,91.0,2.0,127,140.0
467,A3,91.0,4.0,127,140.0
468,F#3,91.0,4.0,127,140.0
469,E-3,93.0,1.0,127,140.0
470,C4,95.0,0.5,127,140.0
471,G3,95.0,0.5,127,140.0
472,E4,95.0,0.75,127,140.0
473,C4,95.0,0.75,127,140.0
474,E3,95.0,0.75,127,140.0
475,C4,95.5,0.25,127,140.0
476,G3,95.5,0.25,127,140.0
477,C4,95.75,0.5,127,140.0
478,G3,95.75,0.5,127,140.0
479,E-4,95.75,0.75,127,140.0
480,B3,95.75,0.75,127,140.0
481,E-3,95.75,0.75,127,140.0
482,C4,96.25,0.25,127,140.0
483,G3,96.25,0.25,127,140.0
484,C4,96.5,0.25,127,140.0
485,G3,96.5,0.25,127,140.0
486,E4,96.5,0.5,127,140.0
487,C4,96.5,0.5,127,140.0
488,E3,96.5,0.5,127,140.0
489,C4,96.75,0.25,127,140.0
490,G3,96.75,0.25,127,140.0
491,B3,97.0,0.25,127,140.0
492,F#3,97.0,0.25,127,140.0
493,F#4,97.0,0.75,127,140.0
494,E-4,97.0,0.75,127,140.0
495,F#3,97.0,0.75,127,140.0
496,B3,97.25,0.25,127,140.0
497,F#3,97.25,0.25,127,140.0
498,B3,97.5,0.25,127,140.0
499,F#3,97.5,0.25,127,140.0
500,B3,97.75,0.5,127,140.0
501,F#3,97.75,0.5,127,140.0
502,E4,97.75,0.75,127,140.0
503,C4,97.75,0.75,127,140.0
504,E3,97.75,0.75,127,140.0
505,B3,98.25,0.25,127,140.0
506,F#3,98.25,0.25,127,140.0
507,B3,98.5,0.25,127,140.0
508,F#3,98.5,0.25,127,140.0
509,F#4,98.5,0.5,127,140.0
510,E-4,98.5,0.5,127,140.0
511,F#3,98.5,0.5,127,140.0
512,B3,98.75,0.25,127,140.0
513,F#3,98.75,0.25,127,140.0
514,A3,99.0,0.5,127,140.0
515,E3,99.0,0.5,127,140.0
516,G4,99.0,0.75,127,140.0
517,E4,99.0,0.75,127,140.0
518,G3,99.0,0.75,127,140.0
519,A3,99.5,0.25,127,140.0
520,E3,99.5,0.25,127,140.0
521,A3,99.75,0.5,127,140.0
522,E3,99.75,0.5,127,140.0
523,F#4,99.75,0.75,127,140.0
524,D4,99.75,0.75,127,140.0
525,F#3,99.75,0.75,127,140.0
526,A3,100.25,0.25,127,140.0
527,E3,100.25,0.25,127,140.0
528,A3,100.5,0.25,127,140.0
529,E3,100.5,0.25,127,140.0
530,G4,100.5,0.5,127,140.0
531,E4,100.5,0.5,127,140.0
532,G3,100.5,0.5,127,140.0
533,A3,100.75,0.25,127,140.0
534,E3,100.75,0.25,127,140.0
535,G3,101.0,0.25,127,140.0
536,E3,101.0,0.25,127,140.0
537,A4,101.0,0.75,127,140.0
538,F#4,101.0,0.75,127,140.0
539,A3,101.0,0.75,127,140.0
540,A3,101.25,0.25,102,140.0
541,F#3,101.25,0.25,102,140.0
542,G3,101.5,0.25,127,140.0
543,E3,101.5,0.25,127,140.0
544,F#3,101.75,0.5,127,140.0
545,D3,101.75,1.25,127,140.0
546,G4,101.75,0.75,127,140.0
547,E4,101.75,0.75,127,140.0
548,G3,101.75,0.75,127,140.0
549,F#3,102.25,0.75,127,140.0
550,A4,102.5,0.5,127,140.0
551,F#4,102.5,0.5,127,140.0
552,F#3,102.5,0.5,127,140.0
553,C4,103.0,0.5,127,140.0
554,G3,103.0,0.5,127,140.0
555,B4,103.0,0.75,127,140.0
556,G4,103.0,0.75,127,140.0
557,G3,103.0,0.75,127,140.0
558,C4,103.5,0.25,127,140.0
559,G3,103.5,0.25,127,140.0
560,C4,103.75,0.5,127,140.0
561,G3,103.75,0.5,127,140.0
562,A4,103.75,0.75,127,140.0
563,F#4,103.75,0.75,127,140.0
564,F#3,103.75,0.75,127,140.0
565,C4,104.25,0.25,127,140.0
566,G3,104.25,0.25,127,140.0
567,C4,104.5,0.25,127,140.0
568,G3,104.5,0.25,127,140.0
569,G4,104.5,0.5,127,140.0
570,E4,104.5,0.5,127,140.0
571,E3,104.5,0.5,127,140.0
572,C4,104.75,0.25,127,140.0
573,G3,104.75,0.25,127,140.0
574,B3,105.0,0.25,127,140.0
575,F#3,105.0,0.25,127,140.0
576,A4,105.0,0.75,127,140.0
577,F#4,105.0,0.75,127,140.0
578,F#3,105.0,0.75,127,140.0
579,B3,105.25,0.25,127,140.0
580,F#3,105.25,0.25,127,140.0
581,B3,105.5,0.25,127,140.0
582,F#3,105.5,0.25,127,140.0
583,B3,105.75,0.5,127,140.0
584,F#3,105.75,0.5,127,140.0
585,G4,105.75,0.75,127,140.0
586,E4,105.75,0.75,127,140.0
587,E3,105.75,0.75,127,140.0
588,B3,106.25,0.25,127,140.0
589,F#3,106.25,0.25,127,140.0
590,B3,106.5,0.25,127,140.0
591,F#3,106.5,0.25,127,140.0
592,F#4,106.5,0.5,127,140.0
593,D4,106.5,0.5,127,140.0
594,D3,106.5,0.5,127,140.0
595,B3,106.75,0.25,127,140.0
596,F#3,106.75,0.25,127,140.0
597,A3,107.0,0.5,127,140.0
598,E3,107.0,0.5,127,140.0
599,G4,107.0,1.0,127,140.0
600,E4,107.0,1.0,127,140.0
601,E3,107.0,1.0,127,140.0
602,A3,107.5,0.25,127,140.0
603,E3,107.5,0.25,127,140.0
604,A3,107.75,0.5,127,140.0
605,E3,107.75,0.5,127,140.0
606,A3,108.0,0.5,127,140.0
607,A3,108.25,0.25,127,140.0
608,E3,108.25,0.25,127,140.0
609,E3,108.5,0.5,127,140.0
610,A3,108.5,0.25,127,140.0
611,E3,108.5,0.25,127,140.0
612,A3,108.75,0.25,127,140.0
613,E3,108.75,0.25,127,140.0
614,C3,109.0,1.0,127,140.0
615,G3,109.0,0.25,127,140.0
616,E3,109.0,0.25,127,140.0
617,A3,109.25,0.25,102,140.0
618,F#3,109.25,0.25,102,140.0
619,G3,109.5,0.25,127,140.0
620,E3,109.5,0.25,127,140.0
621,F#3,109.75,0.5,127,140.0
622,D3,109.75,1.25,127,140.0
623,G3,110.25,73/1000,95,140.0
624,F#3,110.25,0.75,127,140.0
625,B3,110.5,73/1000,95,140.0
626,G3,110.75,73/1000,95,140.0
627,B3,111.0,73/1000,95,140.0
628,D3,111.0,0.25,127,140.0
629,D3,111.0,0.25,127,140.0
630,E3,111.25,0.25,102,140.0
631,E3,111.25,0.25,102,140.0
632,G3,111.5,73/1000,95,140.0
633,E3,111.5,0.5,127,140.0
634,E3,111.5,0.5,127,140.0
635,G3,112.0,73/1000,95,140.0
636,E3,112.0,0.25,127,140.0
637,E3,112.0,0.25,127,140.0
638,E3,112.25,0.25,127,140.0
639,E3,112.25,0.25,127,140.0
640,G3,112.5,73/1000,95,140.0
641,E3,112.5,0.25,127,140.0
642,E3,112.5,0.25,127,140.0
643,E4,112.75,73/1000,95,140.0
644,E3,112.75,0.5,127,140.0
645,E3,112.75,0.5,127,140.0
646,E3,113.25,0.25,127,140.0
647,E3,113.25,0.25,127,140.0
648,B3,113.5,73/1000,95,140.0
649,E3,113.5,0.25,127,140.0
650,E3,113.5,0.25,127,140.0
651,E3,113.75,0.25,127,140.0
652,E3,113.75,0.25,127,140.0
653,E3,114.0,0.25,127,140.0
654,E3,114.0,0.25,127,140.0
655,B3,114.25,73/1000,95,140.0
656,E3,114.25,0.25,127,140.0
657,E3,114.25,0.25,127,140.0
658,G3,114.5,73/1000,95,140.0
659,E3,114.5,0.25,127,140.0
660,E3,114.5,0.25,127,140.0
661,E3,114.75,0.25,127,140.0
662,E3,114.75,0.25,127,140.0
663,B3,115.0,73/1000,95,140.0
664,D3,115.0,0.25,127,140.0
665,D3,115.0,0.25,127,140.0
666,E3,115.25,0.25,102,140.0
667,E3,115.25,0.25,102,140.0
668,D3,115.5,73/1000,95,140.0
669,E3,115.5,0.5,127,140.0
670,E3,115.5,0.5,127,140.0
671,E4,115.75,73/1000,95,140.0
672,E3,116.0,0.25,127,140.0
673,E3,116.0,0.25,127,140.0
674,E4,116.25,73/1000,95,140.0
675,E3,116.25,0.25,127,140.0
676,E3,116.25,0.25,127,140.0
677,B3,116.5,73/1000,95,140.0
678,E3,116.5,0.25,127,140.0
679,E3,116.5,0.25,127,140.0
680,E3,116.75,0.5,127,140.0
681,E3,116.75,0.5,127,140.0
682,E3,117.25,0.25,127,140.0
683,E3,117.25,0.25,127,140.0
684,E3,117.5,1.0,127,140.0
685,E3,117.5,1.0,127,140.0
686,D3,118.5,0.25,127,140.0
687,D3,118.75,0.25,127,140.0
688,G3,119.0,0.5,127,140.0
689,D4,119.0,0.5,127,140.0
690,B3,119.0,0.5,127,140.0
691,G3,119.5,0.25,127,140.0
692,D4,119.5,0.25,127,140.0
693,B3,119.5,0.25,127,140.0
694,F#3,119.75,0.75,127,140.0
695,C#4,119.75,0.75,127,140.0
696,A3,119.75,0.75,127,140.0
697,E3,120.5,0.25,127,140.0
698,B3,120.5,0.25,127,140.0
699,G3,120.5,0.25,127,140.0
700,B2,120.75,0.25,127,140.0
701,A3,120.75,0.25,127,140.0
702,F#3,120.75,0.25,127,140.0
703,E3,122.5,0.25,127,140.0
704,E3,122.75,0.25,127,140.0
705,G3,123.0,0.5,127,140.0
706,D4,123.0,0.5,127,140.0
707,B3,123.0,0.5,127,140.0
708,G3,123.5,0.25,127,140.0
709,D4,123.5,0.25,127,140.0
710,B3,123.5,0.25,127,140.0
711,F#3,123.75,0.75,127,140.0
712,C#4,123.75,0.75,127,140.0
713,A3,123.75,0.75,127,140.0
714,E3,124.5,0.25,127,140.0
715,B3,124.5,0.25,127,140.0
716,G3,124.5,0.25,127,140.0
717,B2,124.75,0.25,127,140.0
718,A3,124.75,0.25,127,140.0
719,F#3,124.75,0.25,127,140.0
720,E3,126.5,0.25,127,140.0
721,E3,126.75,0.25,127,140.0
722,G3,127.0,0.5,127,140.0
723,D4,127.0,0.5,127,140.0
724,B3,127.0,0.5,127,140.0
725,G3,127.5,0.25,127,140.0
726,D4,127.5,0.25,127,140.0
727,B3,127.5,0.25,127,140.0
728,F#3,127.75,0.75,127,140.0
729,C#4,127.75,0.75,127,140.0
730,A3,127.75,0.75,127,140.0
731,E3,128.5,0.25,127,140.0
732,B3,128.5,0.25,127,140.0
733,G3,128.5,0.25,127,140.0
734,B2,128.75,0.25,127,140.0
735,A3,128.75,0.25,127,140.0
736,F#3,128.75,0.25,127,140.0
737,G4,131.0,0.75,127,140.0
738,E4,131.0,0.75,127,140.0
739,G3,131.0,0.75,127,140.0
740,F#4,131.75,0.75,127,140.0
741,E-4,131.75,0.75,127,140.0
742,F#3,131.75,0.75,127,140.0
743,E4,132.5,1.5,127,140.0
744,B3,132.5,1.5,127,140.0
745,E3,132.5,1.5,127,140.0
746,A2,133.0,0.25,127,140.0
747,A2,133.0,0.25,127,140.0
748,B2,133.25,0.25,102,140.0
749,B2,133.25,0.25,102,140.0
750,D3,133.5,0.25,127,140.0
751,D3,133.5,0.25,127,140.0
752,A2,133.75,0.25,127,140.0
753,A2,133.75,0.25,127,140.0
754,B2,134.0,1.0,102,140.0
755,B2,134.0,1.0,102,140.0
756,E2,134.25,0.75,127,140.0
757,E2,134.25,0.75,127,140.0
758,B2,135.0,2.0,102,140.0
759,E2,135.0,2.0,127,140.0
760,B2,135.0,2.0,102,140.0
761,E2,135.0,2.0,127,140.0
762,G4,135.0,0.75,127,140.0
763,E4,135.0,0.75,127,140.0
764,G3,135.0,0.75,127,140.0
765,F#4,135.75,0.75,127,140.0
766,E-4,135.75,0.75,127,140.0
767,F#3,135.75,0.75,127,140.0
768,E4,136.5,1.5,127,140.0
769,B3,136.5,1.5,127,140.0
770,E3,136.5,1.5,127,140.0
771,A2,137.0,0.25,127,140.0
772,A2,137.0,0.25,127,140.0
773,B2,137.25,0.25,102,140.0
774,B2,137.25,0.25,102,140.0
775,D3,137.5,0.25,127,140.0
776,D3,137.5,0.25,127,140.0
777,A2,137.75,0.25,127,140.0
778,A2,137.75,0.25,127,140.0
779,B2,138.0,1.0,102,140.0
780,B2,138.0,1.0,102,140.0
781,E2,138.25,0.75,127,140.0
782,E2,138.25,0.75,127,140.0
783,B2,139.0,2.0,102,140.0
784,E2,139.0,2.0,127,140.0
785,B2,139.0,2.0,102,140.0
786,E2,139.0,2.0,127,140.0
787,G4,139.0,0.75,127,140.0
788,E4,139.0,0.75,127,140.0
789,G3,139.0,0.75,127,140.0
790,F#4,139.75,0.75,127,140.0
791,E-4,139.75,0.75,127,140.0
792,F#3,139.75,0.75,127,140.0
793,E4,140.5,1.5,127,140.0
794,B3,140.5,1.5,127,140.0
795,E3,140.5,1.5,127,140.0
796,A2,141.0,0.25,127,140.0
797,A2,141.0,0.25,127,140.0
798,B2,141.25,0.25,102,140.0
799,B2,141.25,0.25,102,140.0
800,D3,141.5,0.25,127,140.0
801,D3,141.5,0.25,127,140.0
802,A2,141.75,0.25,127,140.0
803,A2,141.75,0.25,127,140.0
804,B2,142.0,1.0,102,140.0
805,B2,142.0,1.0,102,140.0
806,E2,142.25,0.75,127,140.0
807,E2,142.25,0.75,127,140.0
808,A3,142.333,333/1000,127,140.0
809,A3,142.667,333/1000,127,140.0
810,B3,143.0,0.5,127,140.0
811,B2,143.0,4.0,102,140.0
812,E2,143.0,4.0,127,140.0
813,B2,143.0,4.0,102,140.0
814,E2,143.0,4.0,127,140.0
815,F#3,143.5,0.25,127,140.0
816,G3,143.75,0.5,127,140.0
817,E3,144.25,0.5,127,140.0
818,B2,147.0,2.0,102,140.0
819,E2,147.0,2.0,127,140.0
820,B2,147.0,2.0,102,140.0
821,E2,147.0,2.0,127,140.0
822,G3,148.25,73/1000,95,140.0
823,G3,148.5,73/1000,95,140.0
824,G3,148.75,73/1000,95,140.0
825,B3,149.0,73/1000,95,140.0
826,E2,149.0,0.25,127,140.0
827,E2,149.0,0.25,127,140.0
828,E2,149.25,0.25,127,140.0
829,E2,149.25,0.25,127,140.0
830,G3,149.5,73/1000,95,140.0
831,G2,149.5,0.25,127,140.0
832,G2,149.5,0.25,127,140.0
833,G3,149.75,73/1000,95,140.0
834,G#2,149.75,0.25,127,140.0
835,G#2,149.75,0.25,127,140.0
836,E3,150.0,0.25,127,140.0
837,E3,150.0,0.25,127,140.0
838,G3,150.25,73/1000,95,140.0
839,E3,150.25,0.25,127,140.0
840,E3,150.25,0.25,127,140.0
841,D3,150.5,0.25,102,140.0
842,D3,150.5,0.25,102,140.0
843,A3,150.75,0.25,127,140.0
844,F#3,150.75,0.25,127,140.0
845,B3,151.0,73/1000,95,140.0
846,G3,151.25,73/1000,95,140.0
847,A3,151.25,0.25,127,140.0
848,F#3,151.25,0.25,127,140.0
849,A3,151.75,0.5,127,140.0
850,F#3,151.75,0.5,127,140.0
851,A3,152.25,0.25,127,140.0
852,F#3,152.25,0.25,127,140.0
853,D3,152.5,73/1000,95,140.0
854,B3,152.5,0.5,127,140.0
855,G#3,152.5,0.5,127,140.0
856,E4,153.0,73/1000,95,140.0
857,E2,153.0,0.25,127,140.0
858,E2,153.0,0.25,127,140.0
859,E2,153.25,0.25,127,140.0
860,E2,153.25,0.25,127,140.0
861,E4,153.5,73/1000,95,140.0
862,G2,153.5,0.25,127,140.0
863,G2,153.5,0.25,127,140.0
864,G#2,153.75,0.25,127,140.0
865,G#2,153.75,0.25,127,140.0
866,E4,154.0,73/1000,95,140.0
867,E3,154.0,0.25,127,140.0
868,E3,154.0,0.25,127,140.0
869,E4,154.25,73/1000,95,140.0
870,E3,154.25,0.25,127,140.0
871,E3,154.25,0.25,127,140.0
872,D3,154.5,0.25,102,140.0
873,D3,154.5,0.25,102,140.0
874,B3,154.75,73/1000,95,140.0
875,A3,154.75,0.25,127,140.0
876,F#3,154.75,0.25,127,140.0
877,F#3,155.25,0.25,127,140.0
878,D3,155.25,0.25,127,140.0
879,G3,155.75,73/1000,95,140.0
880,F#4,155.75,0.25,127,140.0
881,A3,155.75,0.25,127,140.0
882,E4,156.0,0.5,127,140.0
883,G3,156.0,0.5,127,140.0
884,F#3,156.75,0.25,127,140.0
885,E-4,157.0,1.0,127,140.0
886,F#3,157.0,1.0,127,140.0
887,G#4,159.0,1.0,127,140.0
888,B3,159.0,1.0,127,140.0
889,E3,159.0,1.0,127,140.0
890,E4,159.0,1.0,127,140.0
891,B3,159.0,1.0,127,140.0
892,G#3,159.0,1.0,127,140.0
893,E3,159.0,1.0,127,140.0
894,G#4,160.0,1.0,127,140.0
895,B3,160.0,1.0,127,140.0
896,E3,160.0,1.0,127,140.0
897,E4,160.0,1.0,127,140.0
898,B3,160.0,1.0,127,140.0
899,G#3,160.0,1.0,127,140.0
900,E3,160.0,1.0,127,140.0
901,A4,161.0,1.0,127,140.0
902,C#4,161.0,1.0,127,140.0
903,F#3,161.0,1.0,127,140.0
904,E4,161.0,1.0,127,140.0
905,B3,161.0,1.0,127,140.0
906,A3,161.0,1.0,127,140.0
907,F#3,161.0,1.0,127,140.0
908,B4,162.0,1.0,127,140.0
909,E4,162.0,1.0,127,140.0
910,G#3,162.0,1.0,127,140.0
911,E4,162.0,1.0,127,140.0
912,B3,162.0,1.0,127,140.0
913,G#3,162.0,1.0,127,140.0
914,B4,163.0,1.0,127,140.0
915,E4,163.0,1.0,127,140.0
916,G#3,163.0,1.0,127,140.0
917,E4,163.0,1.0,127,140.0
918,B3,163.0,1.0,127,140.0
919,G#3,163.0,1.0,127,140.0
920,E5,164.0,1.0,127,140.0
921,F#4,164.0,1.0,127,140.0
922,A3,164.0,1.0,127,140.0
923,F#4,164.0,1.0,127,140.0
924,C#4,164.0,1.0,127,140.0
925,A3,164.0,1.0,127,140.0
926,A4,165.0,1.0,127,140.0
927,E4,165.0,1.0,127,140.0
928,G#3,165.0,1.0,127,140.0
929,E4,165.0,1.0,127,140.0
930,B3,165.0,1.0,127,140.0
931,G#3,165.0,1.0,127,140.0
932,A4,166.0,1.5,127,140.0
933,E4,166.0,1.5,127,140.0
934,F#3,166.0,1.5,127,140.0
935,F#4,166.0,1.5,127,140.0
936,C#4,166.0,1.5,127,140.0
937,A3,166.0,1.5,127,140.0
938,F#3,166.0,1.5,127,140.0
939,B4,167.5,0.25,127,140.0
940,C#4,167.5,0.5,127,140.0
941,F#3,167.5,0.5,127,140.0
942,F#4,167.5,0.5,127,140.0
943,C#4,167.5,0.5,127,140.0
944,A3,167.5,0.5,127,140.0
945,F#3,167.5,0.5,127,140.0
946,C#5,167.75,0.25,127,140.0
947,C#5,168.0,0.5,127,140.0
948,C#4,168.0,2.0,127,140.0
949,F#3,168.0,2.0,127,140.0
950,F#4,168.0,2.0,127,140.0
951,C#4,168.0,2.0,127,140.0
952,A3,168.0,2.0,127,140.0
953,F#3,168.0,2.0,127,140.0
954,B4,168.5,0.5,127,140.0
955,A4,169.0,1.0,127,140.0
956,A4,170.0,2.0,127,140.0
957,C#4,170.0,2.0,127,140.0
958,B4,170.0,1.5,127,140.0
959,G#4,170.0,1.5,127,140.0
960,E-4,170.0,1.5,127,140.0
961,A4,171.5,0.5,127,140.0
962,F#4,171.5,0.5,127,140.0
963,C#4,171.5,0.5,127,140.0
964,A4,172.0,2.0,127,140.0
965,F#4,172.0,2.0,127,140.0
966,C#4,172.0,2.0,127,140.0
967,A4,182.0,4.0,127,140.0
968,F#4,182.0,4.0,127,140.0
969,C#4,182.0,4.0,127,140.0
970,A4,182.0,2.0,127,140.0
971,F#4,182.0,2.0,127,140.0
972,F#4,184.0,2.0,127,140.0
973,C#4,184.0,2.0,127,140.0
974,C#4,186.0,3.0,127,140.0
975,A3,186.0,3.0,127,140.0
976,E-4,189.0,0.5,127,140.0
977,B3,189.0,0.5,127,140.0
978,A2,189.5,73/1000,95,140.0
979,E4,189.5,0.5,127,140.0
980,C#4,189.5,0.5,127,140.0
981,A2,190.0,73/1000,95,140.0
982,A4,190.0,4.0,127,140.0
983,F#4,190.0,4.0,127,140.0
984,C#4,190.0,4.0,127,140.0
985,E-4,190.0,4.0,127,140.0
986,B3,190.0,4.0,127,140.0
987,A2,190.25,73/1000,95,140.0
988,E2,191.0,73/1000,95,140.0
989,E2,191.75,73/1000,95,140.0
990,E2,192.0,73/1000,95,140.0
991,F#3,194.0,0.5,127,140.0
992,C#4,194.5,0.25,127,140.0
993,G#3,194.75,0.5,127,140.0
994,E-3,195.25,0.5,127,140.0
995,A3,195.75,0.25,127,140.0
996,E-4,196.25,0.25,127,140.0
997,F#3,196.5,1.5,79,140.0
998,C#3,196.5,1.5,79,140.0
999,A2,196.5,1.5,79,140.0
1000,B3,196.75,0.25,127,140.0
1001,E-4,197.25,0.25,127,140.0
1002,F#3,197.75,0.25,127,140.0
1003,F#3,198.0,0.5,127,140.0
1004,B3,198.0,4.0,79,140.0
1005,F#3,198.0,4.0,79,140.0
1006,E-3,198.0,4.0,79,140.0
1007,C#4,198.5,0.25,127,140.0
1008,G#3,198.75,0.5,127,140.0
1009,E-3,199.25,0.5,127,140.0
1010,A3,199.75,0.25,127,140.0
1011,E-4,200.25,0.25,127,140.0
1012,B3,200.75,0.25,127,140.0
1013,E-4,201.25,0.25,127,140.0
1014,F#3,201.75,0.25,127,140.0
1015,F#3,202.0,0.5,127,140.0
1016,C#4,202.5,0.25,127,140.0
1017,G#3,202.75,0.5,127,140.0
1018,E-3,203.25,0.5,127,140.0
1019,A3,203.75,0.25,127,140.0
1020,E-4,204.25,0.25,127,140.0
1021,B3,204.75,0.25,127,140.0
1022,E-4,205.25,0.25,127,140.0
1023,F#3,205.75,0.25,127,140.0
1024,F#3,206.0,0.5,127,140.0
1025,B3,206.0,4.0,79,140.0
1026,F#3,206.0,4.0,79,140.0
1027,E-3,206.0,4.0,79,140.0
1028,C#4,206.5,0.25,127,140.0
1029,G#3,206.75,0.5,127,140.0
1030,E-3,207.25,0.5,127,140.0
1031,A3,207.75,0.25,127,140.0
1032,E-4,208.25,0.25,127,140.0
1033,B3,208.75,0.25,127,140.0
1034,E-4,209.25,0.25,127,140.0
1035,F#3,209.75,0.25,127,140.0
1036,E5,210.0,0.75,79,140.0
1037,G#4,210.0,0.75,79,140.0
1038,C#4,210.0,0.75,79,140.0
1039,E-5,210.75,0.75,79,140.0
1040,F#5,211.5,0.5,79,140.0
1041,E5,212.0,667/1000,79,140.0
1042,E5,212.667,1333/1000,79,140.0
1043,C#4,214.0,0.5,103,140.0
1044,A3,214.0,0.5,103,140.0
1045,B3,214.5,0.25,103,140.0
1046,G#3,214.5,0.25,103,140.0
1047,B3,214.75,0.5,103,140.0
1048,G#3,214.75,0.5,103,140.0
1049,E4,215.25,0.5,103,140.0
1050,C#4,215.25,0.5,103,140.0
1051,C#4,215.75,0.5,103,140.0
1052,G#3,215.75,0.5,103,140.0
1053,B3,216.25,0.75,103,140.0
1054,F#3,216.25,0.75,103,140.0
1055,B3,217.0,0.5,103,140.0
1056,F#3,217.0,0.5,103,140.0
1057,A3,217.5,0.5,103,140.0
1058,E3,217.5,0.5,103,140.0
1059,B3,218.0,0.5,103,140.0
1060,G#3,218.0,0.5,103,140.0
1061,B3,218.5,0.25,103,140.0
1062,G#3,218.5,0.25,103,140.0
1063,B3,218.75,0.5,103,140.0
1064,G#3,218.75,0.5,103,140.0
1065,C#4,219.25,0.5,103,140.0
1066,B3,219.25,0.5,103,140.0
1067,A3,219.75,1.25,103,140.0
1068,F#3,219.75,1.25,103,140.0
1069,A3,221.0,0.5,103,140.0
1070,F#3,221.0,0.5,103,140.0
1071,A3,221.5,0.5,103,140.0
1072,E3,221.5,0.5,103,140.0
1073,F#3,222.0,0.5,127,140.0
1074,C#4,222.0,0.5,103,140.0
1075,G#3,222.0,0.5,103,140.0
1076,B3,222.5,0.5,103,140.0
1077,G#3,222.5,0.5,103,140.0
1078,C#4,222.5,0.25,127,140.0
1079,A3,222.5,0.25,127,140.0
1080,F3,222.75,0.5,127,140.0
1081,C#4,223.0,0.5,103,140.0
1082,G#3,223.0,0.5,103,140.0
1083,C#4,223.25,0.25,127,140.0
1084,A3,223.25,0.25,127,140.0
1085,E-4,223.5,0.25,103,140.0
1086,A3,223.5,0.25,103,140.0
1087,E3,223.75,0.25,127,140.0
1088,C#4,223.75,0.5,103,140.0
1089,G#3,223.75,0.5,103,140.0
1090,A3,224.25,0.75,103,140.0
1091,F#3,224.25,0.75,103,140.0
1092,C#4,224.25,0.25,127,140.0
1093,A3,224.25,0.25,127,140.0
1094,E-3,224.75,0.25,127,140.0
1095,E-3,225.0,0.5,127,140.0
1096,B3,225.0,0.5,103,140.0
1097,G#3,225.0,0.5,103,140.0
1098,A3,225.5,0.5,103,140.0
1099,F#3,225.5,0.5,103,140.0
1100,C#4,225.5,0.5,127,140.0
1101,A3,225.5,0.5,127,140.0
1102,F#3,226.0,0.5,127,140.0
1103,B3,226.0,0.5,103,140.0
1104,G#3,226.0,0.5,103,140.0
1105,B3,226.5,0.25,103,140.0
1106,G#3,226.5,0.25,103,140.0
1107,C#4,226.5,0.25,127,140.0
1108,A3,226.5,0.25,127,140.0
1109,F3,226.75,0.5,127,140.0
1110,B3,226.75,0.5,103,140.0
1111,G#3,226.75,0.5,103,140.0
1112,C#4,227.25,0.75,103,140.0
1113,A3,227.25,0.75,103,140.0
1114,C#4,227.25,0.25,127,140.0
1115,A3,227.25,0.25,127,140.0
1116,E3,227.75,0.25,127,140.0
1117,A3,228.0,1.0,103,140.0
1118,F#3,228.0,1.0,103,140.0
1119,C#4,228.25,0.25,127,140.0
1120,A3,228.25,0.25,127,140.0
1121,E-3,228.75,0.25,127,140.0
1122,E-3,229.0,0.5,127,140.0
1123,E-4,229.0,0.5,127,140.0
1124,F#3,229.0,0.5,127,140.0
1125,E-4,229.5,0.5,127,140.0
1126,E3,229.5,0.5,127,140.0
1127,C#4,229.5,0.5,127,140.0
1128,A3,229.5,0.5,127,140.0
1129,F#3,230.0,0.5,127,140.0
1130,E4,230.0,0.5,127,140.0
1131,G#3,230.0,0.5,127,140.0
1132,G#2,230.0,0.5,127,140.0
1133,E4,230.5,0.25,127,140.0
1134,G#3,230.5,0.25,127,140.0
1135,G#2,230.5,0.25,127,140.0
1136,C#4,230.5,0.25,127,140.0
1137,A3,230.5,0.25,127,140.0
1138,F3,230.75,0.5,127,140.0
1139,E4,230.75,0.5,127,140.0
1140,G#3,230.75,0.5,127,140.0
1141,G#2,230.75,0.5,127,140.0
1142,E4,231.25,0.25,127,140.0
1143,G#3,231.25,0.25,127,140.0
1144,G#2,231.25,0.25,127,140.0
1145,C#4,231.25,0.25,127,140.0
1146,A3,231.25,0.25,127,140.0
1147,E-4,231.5,1.5,127,140.0
1148,F#3,231.5,1.5,127,140.0
1149,B2,231.5,1.5,127,140.0
1150,E3,231.75,0.25,127,140.0
1151,C#4,232.25,0.25,127,140.0
1152,A3,232.25,0.25,127,140.0
1153,E-3,232.75,0.25,127,140.0
1154,E-3,233.0,0.5,127,140.0
1155,E-4,233.0,0.25,127,140.0
1156,F#3,233.0,0.25,127,140.0
1157,B2,233.0,0.25,127,140.0
1158,E-4,233.25,0.5,127,140.0
1159,F#3,233.25,0.5,127,140.0
1160,B2,233.25,0.5,127,140.0
1161,C#4,233.5,0.5,127,140.0
1162,A3,233.5,0.5,127,140.0
1163,E-4,233.75,0.25,127,140.0
1164,E3,233.75,0.25,127,140.0
1165,B2,233.75,0.25,127,140.0
1166,F#3,234.0,0.5,127,140.0
1167,E4,234.0,0.5,127,140.0
1168,G#3,234.0,0.5,127,140.0
1169,G#2,234.0,0.5,127,140.0
1170,E4,234.5,0.25,127,140.0
1171,G#3,234.5,0.25,127,140.0
1172,G#2,234.5,0.25,127,140.0
1173,C#4,234.5,0.25,127,140.0
1174,A3,234.5,0.25,127,140.0
1175,F3,234.75,0.5,127,140.0
1176,E4,234.75,0.5,127,140.0
1177,G#3,234.75,0.5,127,140.0
1178,G#2,234.75,0.5,127,140.0
1179,E4,235.25,0.25,127,140.0
1180,G#3,235.25,0.25,127,140.0
1181,C#3,235.25,0.25,127,140.0
1182,C#4,235.25,0.25,127,140.0
1183,A3,235.25,0.25,127,140.0
1184,E-4,235.5,1.5,127,140.0
1185,F#3,235.5,1.5,127,140.0
1186,B2,235.5,1.5,127,140.0
1187,E3,235.75,0.25,127,140.0
1188,C#4,236.25,0.25,127,140.0
1189,A3,236.25,0.25,127,140.0
1190,E-3,236.75,0.25,127,140.0
1191,E-3,237.0,0.5,127,140.0
1192,E-4,237.0,0.5,127,140.0
1193,F#3,237.0,0.5,127,140.0
1194,B2,237.0,0.5,127,140.0
1195,E-4,237.5,0.5,127,140.0
1196,E3,237.5,0.5,127,140.0
1197,B2,237.5,0.5,127,140.0
1198,C#4,237.5,0.5,127,140.0
1199,A3,237.5,0.5,127,140.0
1200,A2,238.0,73/1000,95,140.0
1201,E4,238.0,0.5,127,140.0
1202,G#3,238.0,0.5,127,140.0
1203,G#2,238.0,0.5,127,140.0
1204,E4,238.0,0.5,127,140.0
1205,C#4,238.0,0.5,127,140.0
1206,G#3,238.0,0.5,127,140.0
1207,A2,238.0,0.5,127,140.0
1208,E4,238.5,0.25,127,140.0
1209,G#3,238.5,0.25,127,140.0
1210,G#2,238.5,0.25,127,140.0
1211,A2,238.75,73/1000,95,140.0
1212,E4,238.75,0.5,127,140.0
1213,G#3,238.75,0.5,127,140.0
1214,G#2,238.75,0.5,127,140.0
1215,E4,238.75,0.25,127,140.0
1216,C#4,238.75,0.25,127,140.0
1217,G#3,238.75,0.25,127,140.0
1218,A2,238.75,0.25,127,140.0
1219,E4,239.25,0.25,127,140.0
1220,G#3,239.25,0.25,127,140.0
1221,G#2,239.25,0.25,127,140.0
1222,A2,239.5,73/1000,95,140.0
1223,E-4,239.5,1.5,127,140.0
1224,F#3,239.5,1.5,127,140.0
1225,B2,239.5,1.5,127,140.0
1226,E-4,239.5,1.5,127,140.0
1227,B3,239.5,1.5,127,140.0
1228,F#3,239.5,1.5,127,140.0
1229,G#2,239.5,1.5,127,140.0
1230,E-4,241.0,0.25,127,140.0
1231,F#3,241.0,0.25,127,140.0
1232,B2,241.0,0.25,127,140.0
1233,E-4,241.25,0.5,127,140.0
1234,F#3,241.25,0.5,127,140.0
1235,B2,241.25,0.5,127,140.0
1236,E-4,241.75,0.25,127,140.0
1237,E3,241.75,0.25,127,140.0
1238,B2,241.75,0.25,127,140.0
1239,A2,242.0,73/1000,95,140.0
1240,E4,242.0,0.5,127,140.0
1241,G#3,242.0,0.5,127,140.0
1242,G#2,242.0,0.5,127,140.0
1243,E4,242.0,0.5,127,140.0
1244,C#4,242.0,0.5,127,140.0
1245,G#3,242.0,0.5,127,140.0
1246,A2,242.0,0.5,127,140.0
1247,E4,242.5,0.25,127,140.0
1248,G#3,242.5,0.25,127,140.0
1249,G#2,242.5,0.25,127,140.0
1250,A2,242.75,73/1000,95,140.0
1251,E4,242.75,0.5,127,140.0
1252,G#3,242.75,0.5,127,140.0
1253,G#2,242.75,0.5,127,140.0
1254,E4,242.75,0.25,127,140.0
1255,C#4,242.75,0.25,127,140.0
1256,G#3,242.75,0.25,127,140.0
1257,A2,242.75,0.25,127,140.0
1258,E4,243.25,0.25,127,140.0
1259,G#3,243.25,0.25,127,140.0
1260,C#3,243.25,0.25,127,140.0
1261,A2,243.5,73/1000,95,140.0
1262,E-4,243.5,1.5,127,140.0
1263,F#3,243.5,1.5,127,140.0
1264,B2,243.5,1.5,127,140.0
1265,E-4,243.5,1.5,127,140.0
1266,B3,243.5,1.5,127,140.0
1267,F#3,243.5,1.5,127,140.0
1268,G#2,243.5,1.5,127,140.0
1269,E-4,245.0,0.5,127,140.0
1270,F#3,245.0,0.5,127,140.0
1271,B2,245.0,0.5,127,140.0
1272,E-4,245.5,0.5,127,140.0
1273,E3,245.5,0.5,127,140.0
1274,B2,245.5,0.5,127,140.0
1275,A2,246.0,73/1000,95,140.0
1276,E4,246.0,0.5,127,140.0
1277,G#3,246.0,0.5,127,140.0
1278,E2,246.0,0.5,127,140.0
1279,E4,246.0,0.5,127,140.0
1280,C#4,246.0,0.5,127,140.0
1281,G#3,246.0,0.5,127,140.0
1282,A2,246.0,0.5,127,140.0
1283,E4,246.5,0.25,127,140.0
1284,G#3,246.5,0.25,127,140.0
1285,E2,246.5,0.25,127,140.0
1286,A2,246.75,73/1000,95,140.0
1287,E4,246.75,0.5,127,140.0
1288,G#3,246.75,0.5,127,140.0
1289,E2,246.75,0.5,127,140.0
1290,E4,246.75,0.25,127,140.0
1291,C#4,246.75,0.25,127,140.0
1292,G#3,246.75,0.25,127,140.0
1293,A2,246.75,0.25,127,140.0
1294,E4,247.25,0.25,127,140.0
1295,G#3,247.25,0.25,127,140.0
1296,E2,247.25,0.25,127,140.0
1297,A2,247.5,73/1000,95,140.0
1298,E-4,247.5,1.5,127,140.0
1299,F#3,247.5,1.5,127,140.0
1300,B2,247.5,1.5,127,140.0
1301,E-4,247.5,1.5,127,140.0
1302,B3,247.5,1.5,127,140.0
1303,F#3,247.5,1.5,127,140.0
1304,G#2,247.5,1.5,127,140.0
1305,E-4,249.0,0.5,127,140.0
1306,E3,249.0,0.5,127,140.0
1307,B2,249.0,0.5,127,140.0
1308,E-4,249.5,0.5,127,140.0
1309,E3,249.5,0.5,127,140.0
1310,B2,249.5,0.5,127,140.0
1311,A2,250.0,73/1000,95,140.0
1312,E4,250.0,0.5,127,140.0
1313,G#3,250.0,0.5,127,140.0
1314,E2,250.0,0.5,127,140.0
1315,E4,250.0,0.5,127,140.0
1316,C#4,250.0,0.5,127,140.0
1317,G#3,250.0,0.5,127,140.0
1318,A2,250.0,0.5,127,140.0
1319,E4,250.5,0.25,127,140.0
1320,G#3,250.5,0.25,127,140.0
1321,E2,250.5,0.25,127,140.0
1322,A2,250.75,73/1000,95,140.0
1323,E4,250.75,0.5,127,140.0
1324,G#3,250.75,0.5,127,140.0
1325,E2,250.75,0.5,127,140.0
1326,E4,250.75,0.25,127,140.0
1327,C#4,250.75,0.25,127,140.0
1328,G#3,250.75,0.25,127,140.0
1329,A2,250.75,0.25,127,140.0
1330,E4,251.25,0.25,127,140.0
1331,G#3,251.25,0.25,127,140.0
1332,E2,251.25,0.25,127,140.0
1333,A2,251.5,73/1000,95,140.0
1334,E-4,251.5,1.5,127,140.0
1335,F#3,251.5,1.5,127,140.0
1336,B2,251.5,1.5,127,140.0
1337,E-4,251.5,1.5,127,140.0
1338,B3,251.5,1.5,127,140.0
1339,F#3,251.5,1.5,127,140.0
1340,G#2,251.5,1.5,127,140.0
1341,E-4,253.0,0.5,127,140.0
1342,F#3,253.0,0.5,127,140.0
1343,B2,253.0,0.5,127,140.0
1344,E-4,253.5,0.5,127,140.0
1345,E3,253.5,0.5,127,140.0
1346,B2,253.5,0.5,127,140.0
1347,A2,254.0,73/1000,95,140.0
1348,E4,254.0,0.5,127,140.0
1349,G#3,254.0,0.5,127,140.0
1350,E2,254.0,0.5,127,140.0
1351,E4,254.0,0.5,127,140.0
1352,C#4,254.0,0.5,127,140.0
1353,G#3,254.0,0.5,127,140.0
1354,A2,254.0,0.5,127,140.0
1355,E4,254.5,0.25,127,140.0
1356,G#3,254.5,0.25,127,140.0
1357,E2,254.5,0.25,127,140.0
1358,A2,254.75,73/1000,95,140.0
1359,E4,254.75,0.5,127,140.0
1360,G#3,254.75,0.5,127,140.0
1361,E2,254.75,0.5,127,140.0
1362,E4,254.75,0.25,127,140.0
1363,C#4,254.75,0.25,127,140.0
1364,G#3,254.75,0.25,127,140.0
1365,A2,254.75,0.25,127,140.0
1366,E4,255.25,0.25,127,140.0
1367,G#3,255.25,0.25,127,140.0
1368,E2,255.25,0.25,127,140.0
1369,A2,255.5,73/1000,95,140.0
1370,E-4,255.5,1.5,127,140.0
1371,F#3,255.5,1.5,127,140.0
1372,B2,255.5,1.5,127,140.0
1373,E-4,255.5,1.5,127,140.0
1374,B3,255.5,1.5,127,140.0
1375,F#3,255.5,1.5,127,140.0
1376,G#2,255.5,1.5,127,140.0
1377,E-4,257.0,0.5,127,140.0
1378,F#3,257.0,0.5,127,140.0
1379,E-3,257.0,0.5,127,140.0
1380,C#4,257.5,0.5,127,140.0
1381,E3,257.5,0.5,127,140.0
1382,C#3,257.5,0.5,127,140.0
1383,A2,258.0,73/1000,95,140.0
1384,E4,258.0,0.5,127,140.0
1385,G#3,258.0,0.5,127,140.0
1386,B2,258.0,0.5,127,140.0
1387,E4,258.0,0.5,127,140.0
1388,C#4,258.0,0.5,127,140.0
1389,G#3,258.0,0.5,127,140.0
1390,A2,258.0,0.5,127,140.0
1391,B4,258.5,0.25,127,140.0
1392,G#3,258.5,0.25,127,140.0
1393,B2,258.5,0.25,127,140.0
1394,A2,258.75,73/1000,95,140.0
1395,E4,258.75,0.5,127,140.0
1396,G#3,258.75,0.5,127,140.0
1397,B2,258.75,0.5,127,140.0
1398,E4,258.75,0.25,127,140.0
1399,C#4,258.75,0.25,127,140.0
1400,G#3,258.75,0.25,127,140.0
1401,A2,258.75,0.25,127,140.0
1402,E4,259.25,0.25,127,140.0
1403,G#3,259.25,0.25,127,140.0
1404,B2,259.25,0.25,127,140.0
1405,A2,259.5,73/1000,95,140.0
1406,E-4,259.5,1.5,127,140.0
1407,F#3,259.5,1.5,127,140.0
1408,E2,259.5,1.5,127,140.0
1409,E-4,259.5,1.5,127,140.0
1410,B3,259.5,1.5,127,140.0
1411,F#3,259.5,1.5,127,140.0
1412,G#2,259.5,1.5,127,140.0
1413,B3,261.5,0.5,127,140.0
1414,B3,262.0,2.75,127,140.0
1415,A2,262.0,73/1000,95,140.0
1416,E4,262.0,0.5,127,140.0
1417,C#4,262.0,0.5,127,140.0
1418,G#3,262.0,0.5,127,140.0
1419,A2,262.0,0.5,127,140.0
1420,A2,262.75,73/1000,95,140.0
1421,E4,262.75,0.25,127,140.0
1422,C#4,262.75,0.25,127,140.0
1423,G#3,262.75,0.25,127,140.0
1424,A2,262.75,0.25,127,140.0
1425,A2,263.5,73/1000,95,140.0
1426,E-4,263.5,1.5,127,140.0
1427,B3,263.5,1.5,127,140.0
1428,F#3,263.5,1.5,127,140.0
1429,G#2,263.5,1.5,127,140.0
1430,G#3,264.75,0.75,127,140.0
1431,F#3,265.5,0.5,127,140.0
1432,F#3,266.0,1.0,127,140.0
1433,A2,266.0,73/1000,95,140.0
1434,E4,266.0,0.5,127,140.0
1435,C#4,266.0,0.5,127,140.0
1436,G#3,266.0,0.5,127,140.0
1437,A2,266.0,0.5,127,140.0
1438,A2,266.75,73/1000,95,140.0
1439,E4,266.75,0.25,127,140.0
1440,C#4,266.75,0.25,127,140.0
1441,G#3,266.75,0.25,127,140.0
1442,A2,266.75,0.25,127,140.0
1443,G#3,267.0,2.0,127,140.0
1444,A2,267.5,73/1000,95,140.0
1445,E-4,267.5,1.5,127,140.0
1446,B3,267.5,1.5,127,140.0
1447,F#3,267.5,1.5,127,140.0
1448,G#2,267.5,1.5,127,140.0
1449,E4,270.0,3.0,127,140.0
1450,A2,270.0,73/1000,95,140.0
1451,C#4,270.0,3.25,127,140.0
1452,A3,270.0,3.25,127,140.0
1453,G#4,270.0,4.0,127,140.0
1454,E4,270.0,4.0,127,140.0
1455,C#4,270.0,4.0,127,140.0
1456,G#3,270.0,4.0,127,140.0
1457,A2,270.0,4.0,127,140.0
1458,F#4,273.25,0.75,127,140.0
1459,E-4,273.25,0.75,127,140.0
1460,B3,273.25,0.75,127,140.0
1461,A2,274.0,73/1000,95,140.0
1462,E-4,274.0,3.0,127,140.0
1463,B3,274.0,3.0,127,140.0
1464,G#3,274.0,3.0,127,140.0
1465,F#4,274.0,4.0,127,140.0
1466,E-4,274.0,4.0,127,140.0
1467,B3,274.0,4.0,127,140.0
1468,F#3,274.0,4.0,127,140.0
1469,G#2,274.0,4.0,127,140.0
1470,B4,277.5,0.5,127,140.0
1471,B4,278.0,333/1000,127,140.0
1472,A2,278.0,73/1000,95,140.0
1473,G#4,278.0,4.0,127,140.0
1474,E4,278.0,4.0,127,140.0
1475,C#4,278.0,4.0,127,140.0
1476,G#3,278.0,4.0,127,140.0
1477,A2,278.0,4.0,127,140.0
1478,C#5,278.333,333/1000,127,140.0
1479,B4,278.667,333/1000,127,140.0
1480,A4,279.0,333/1000,127,140.0
1481,B4,279.333,1667/1000,127,140.0
1482,G#4,281.0,0.5,127,140.0
1483,F#4,281.5,0.5,127,140.0
1484,F#4,282.0,0.75,127,140.0
1485,A2,282.0,73/1000,95,140.0
1486,F#4,282.0,4.0,127,140.0
1487,E-4,282.0,4.0,127,140.0
1488,B3,282.0,4.0,127,140.0
1489,F#3,282.0,4.0,127,140.0
1490,G#2,282.0,4.0,127,140.0
1491,F#4,282.75,0.25,127,140.0
1492,G#4,283.0,333/1000,127,140.0
1493,F#4,283.333,333/1000,127,140.0
1494,G#4,283.667,1333/1000,127,140.0
1495,E4,286.0,3.0,127,140.0
1496,A2,286.0,73/1000,95,140.0
1497,C#4,286.0,3.25,127,140.0
1498,A3,286.0,3.25,127,140.0
1499,G#4,286.0,4.0,127,140.0
1500,E4,286.0,4.0,127,140.0
1501,C#4,286.0,4.0,127,140.0
1502,G#3,286.0,4.0,127,140.0
1503,A2,286.0,4.0,127,140.0
1504,F#4,289.25,0.75,127,140.0
1505,E-4,289.25,0.75,127,140.0
1506,B3,289.25,0.75,127,140.0
1507,A2,290.0,73/1000,95,140.0
1508,E-4,290.0,3.0,127,140.0
1509,B3,290.0,3.0,127,140.0
1510,G#3,290.0,3.0,127,140.0
1511,F#4,290.0,4.0,127,140.0
1512,E-4,290.0,4.0,127,140.0
1513,B3,290.0,4.0,127,140.0
1514,F#3,290.0,4.0,127,140.0
1515,G#2,290.0,4.0,127,140.0
1516,B3,293.5,0.5,127,140.0
1517,B3,294.0,2.75,127,140.0
1518,A2,294.0,73/1000,95,140.0
1519,G#4,294.0,4.0,127,140.0
1520,E4,294.0,4.0,127,140.0
1521,C#4,294.0,4.0,127,140.0
1522,G#3,294.0,4.0,127,140.0
1523,A2,294.0,4.0,127,140.0
1524,G#3,296.75,0.75,127,140.0
1525,F#3,297.5,0.5,127,140.0
1526,F#3,298.0,1.0,127,140.0
1527,A2,298.0,73/1000,95,140.0
1528,F#4,298.0,4.0,127,140.0
1529,E-4,298.0,4.0,127,140.0
1530,B3,298.0,4.0,127,140.0
1531,F#3,298.0,4.0,127,140.0
1532,G#2,298.0,4.0,127,140.0
1533,G#3,299.0,2.0,127,140.0
1534,E4,302.0,3.0,127,140.0
1535,A2,302.0,73/1000,95,140.0
1536,C#4,302.0,3.25,127,140.0
1537,A3,302.0,3.25,127,140.0
1538,G#4,302.0,4.0,127,140.0
1539,E4,302.0,4.0,127,140.0
1540,C#4,302.0,4.0,127,140.0
1541,G#3,302.0,4.0,127,140.0
1542,A2,302.0,4.0,127,140.0
1543,F#4,305.25,0.75,127,140.0
1544,E-4,305.25,0.75,127,140.0
1545,B3,305.25,0.75,127,140.0
1546,A2,306.0,73/1000,95,140.0
1547,E-4,306.0,3.0,127,140.0
1548,B3,306.0,3.0,127,140.0
1549,G#3,306.0,3.0,127,140.0
1550,F#4,306.0,4.0,127,140.0
1551,E-4,306.0,4.0,127,140.0
1552,B3,306.0,4.0,127,140.0
1553,F#3,306.0,4.0,127,140.0
1554,G#2,306.0,4.0,127,140.0
1555,B4,309.5,0.5,127,140.0
1556,B4,310.0,333/1000,127,140.0
1557,A2,310.0,73/1000,95,140.0
1558,G#4,310.0,4.0,127,140.0
1559,E4,310.0,4.0,127,140.0
1560,C#4,310.0,4.0,127,140.0
1561,G#3,310.0,4.0,127,140.0
1562,A2,310.0,4.0,127,140.0
1563,C#5,310.333,333/1000,127,140.0
1564,B4,310.667,333/1000,127,140.0
1565,A4,311.0,333/1000,127,140.0
1566,B4,311.333,1667/1000,127,140.0
1567,G#4,313.0,0.5,127,140.0
1568,F#4,313.5,0.5,127,140.0
1569,F#4,314.0,0.75,127,140.0
1570,A2,314.0,73/1000,95,140.0
1571,C4,314.0,0.125,127,140.0
1572,F#4,314.0,4.0,127,140.0
1573,E-4,314.0,4.0,127,140.0
1574,B3,314.0,4.0,127,140.0
1575,F#3,314.0,4.0,127,140.0
1576,G#2,314.0,4.0,127,140.0
1577,C4,314.125,0.125,127,140.0
1578,C4,314.25,0.125,127,140.0
1579,C4,314.375,0.125,127,140.0
1580,C4,314.5,0.125,127,140.0
1581,C4,314.625,0.125,127,140.0
1582,F#4,314.75,0.25,127,140.0
1583,C4,314.75,0.125,127,140.0
1584,C4,314.875,31/250,127,140.0
1585,G#4,315.0,333/1000,127,140.0
1586,D4,315.0,0.125,127,140.0
1587,D4,315.125,31/250,127,140.0
1588,B3,315.25,0.125,127,140.0
1589,F#4,315.333,333/1000,127,140.0
1590,B3,315.375,31/250,127,140.0
1591,A3,315.5,0.125,127,140.0
1592,A3,315.625,0.125,127,140.0
1593,G#4,315.667,1333/1000,127,140.0
1594,A3,315.75,0.125,127,140.0
1595,A3,315.875,31/250,127,140.0
1596,A2,318.0,73/1000,95,140.0
1597,G#4,318.0,4.0,127,140.0
1598,E4,318.0,4.0,127,140.0
1599,C#4,318.0,4.0,127,140.0
1600,G#3,318.0,4.0,127,140.0
1601,A2,318.0,4.0,127,140.0
1602,A2,322.0,73/1000,95,140.0
1603,F#4,322.0,4.0,127,140.0
1604,E-4,322.0,4.0,127,140.0
1605,B3,322.0,4.0,127,140.0
1606,F#3,322.0,4.0,127,140.0
1607,G#2,322.0,4.0,127,140.0
