,note_name,start_time,duration,velocity,tempo
0,E5,0.0,1.75,95,75.0
1,C5,0.0,1.75,95,75.0
2,C3,0.0,1.75,95,75.0
3,G2,1.75,0.25,95,75.0
4,C3,2.0,1.75,95,75.0
5,F5,2.0,0.25,95,75.0
6,C5,2.0,0.25,95,75.0
7,G5,2.25,0.25,95,75.0
8,C5,2.25,0.25,95,75.0
9,F5,2.5,0.25,95,75.0
10,C5,2.5,0.25,95,75.0
11,F5,2.75,0.5,95,75.0
12,C5,2.75,0.5,95,75.0
13,C5,3.25,0.25,95,75.0
14,A4,3.5,0.25,95,75.0
15,G4,3.75,0.25,95,75.0
16,G2,3.75,0.25,95,75.0
17,C3,4.0,2.0,95,75.0
18,C5,4.0,0.5,95,75.0
19,G4,4.0,0.5,95,75.0
20,C4,4.5,0.25,95,75.0
21,G4,4.75,0.25,95,75.0
22,C5,5.0,0.25,95,75.0
23,G4,5.25,0.25,95,75.0
24,E4,5.5,0.25,95,75.0
25,A4,6.0,0.25,95,75.0
26,F4,6.0,0.5,95,75.0
27,C3,6.0,0.75,95,75.0
28,F4,6.25,0.25,95,75.0
29,C4,6.5,0.25,95,75.0
30,A4,6.75,0.5,95,75.0
31,F4,6.75,1.25,95,75.0
32,C3,6.75,1.25,95,75.0
33,G4,7.25,0.25,95,75.0
34,F4,7.5,0.5,95,75.0
35,C3,8.0,1.25,95,75.0
36,E4,8.0,1.0,95,75.0
37,C4,8.0,1.0,95,75.0
38,G3,9.0,0.25,95,75.0
39,C4,9.0,0.25,95,75.0
40,C3,9.25,0.75,95,75.0
41,C4,9.25,0.25,95,75.0
42,E4,9.25,0.5,95,75.0
43,C4,9.25,0.5,95,75.0
44,C4,9.5,0.25,95,75.0
45,G3,9.75,0.25,95,75.0
46,C4,9.75,0.5,95,75.0
47,C3,10.0,1.25,95,75.0
48,E4,10.0,1.0,95,75.0
49,C4,10.0,1.0,95,75.0
50,C4,10.5,0.25,95,75.0
51,C4,10.75,0.25,95,75.0
52,G3,11.0,0.25,95,75.0
53,C4,11.0,0.25,95,75.0
54,C3,11.25,0.75,95,75.0
55,C4,11.25,0.25,95,75.0
56,E4,11.25,0.5,95,75.0
57,C4,11.25,0.5,95,75.0
58,C4,11.5,0.25,95,75.0
59,G3,11.75,0.25,95,75.0
60,C4,11.75,0.25,95,75.0
61,G2,12.0,1.25,95,75.0
62,C4,12.0,0.5,95,75.0
63,D4,12.0,0.75,95,75.0
64,B3,12.0,0.75,95,75.0
65,G3,12.75,0.25,95,75.0
66,G3,13.0,0.25,95,75.0
67,E4,13.25,0.75,95,75.0
68,C4,13.25,0.75,95,75.0
69,G2,13.25,0.75,95,75.0
70,G2,14.0,0.75,95,75.0
71,E4,14.0,0.25,95,75.0
72,C4,14.0,0.25,95,75.0
73,D4,14.25,0.5,95,75.0
74,B3,14.25,0.5,95,75.0
75,D4,14.75,0.5,95,75.0
76,B3,14.75,0.5,95,75.0
77,G2,14.75,0.5,95,75.0
78,G2,15.25,0.75,95,75.0
79,E4,15.25,0.25,95,75.0
80,C4,15.25,0.25,95,75.0
81,D4,15.5,0.5,95,75.0
82,B3,15.5,0.5,95,75.0
83,C3,16.0,1.25,95,75.0
84,E4,16.0,1.0,95,75.0
85,C4,16.0,1.0,95,75.0
86,G3,17.0,0.25,95,75.0
87,C4,17.0,0.5,95,75.0
88,C3,17.25,0.75,95,75.0
89,E4,17.25,0.5,95,75.0
90,C4,17.25,0.5,95,75.0
91,C4,17.5,0.25,95,75.0
92,G3,17.75,0.25,95,75.0
93,C4,17.75,0.5,95,75.0
94,C3,18.0,1.25,95,75.0
95,E4,18.0,1.0,95,75.0
96,C4,18.0,1.0,95,75.0
97,G3,18.25,0.5,95,75.0
98,G3,19.0,0.25,95,75.0
99,C3,19.25,0.75,95,75.0
100,C4,19.25,0.25,95,75.0
101,E4,19.25,0.5,95,75.0
102,C4,19.25,0.5,95,75.0
103,G3,19.5,0.5,95,75.0
104,G3,19.75,0.25,95,75.0
105,G2,20.0,2.0,95,75.0
106,C4,20.0,1.25,95,75.0
107,C4,20.0,0.75,95,75.0
108,F3,20.0,0.75,95,75.0
109,G3,20.75,0.25,95,75.0
110,G3,21.0,0.75,95,75.0
111,C4,21.25,0.75,95,75.0
112,D4,21.25,0.25,95,75.0
113,E4,21.5,0.5,95,75.0
114,G3,21.75,0.25,95,75.0
115,D4,22.0,1.0,95,75.0
116,D4,22.0,1.25,95,75.0
117,B3,22.0,1.25,95,75.0
118,G2,22.0,1.25,95,75.0
119,C4,23.25,0.25,95,75.0
120,C4,23.25,0.25,95,75.0
121,F2,23.25,0.25,95,75.0
122,D4,23.5,0.5,95,75.0
123,D4,23.5,0.5,95,75.0
124,G2,23.5,0.5,95,75.0
125,B-3,24.0,0.75,95,75.0
126,C4,24.0,1.0,95,75.0
127,F3,24.0,1.0,95,75.0
128,B-2,24.0,1.0,95,75.0
129,B-3,24.75,0.5,95,75.0
130,B-2,25.0,1.0,95,75.0
131,F4,25.25,0.25,95,75.0
132,C4,25.25,0.25,95,75.0
133,D4,25.5,0.25,95,75.0
134,D4,25.5,0.25,95,75.0
135,B-3,25.75,0.25,95,75.0
136,C4,25.75,1.0,95,75.0
137,A3,26.0,0.75,95,75.0
138,E3,26.0,1.0,95,75.0
139,A2,26.0,1.0,95,75.0
140,A3,26.75,0.5,95,75.0
141,A3,26.75,1.25,95,75.0
142,A2,27.0,1.0,95,75.0
143,F4,27.25,0.25,95,75.0
144,D4,27.5,0.25,95,75.0
145,B-3,27.75,0.25,95,75.0
146,C4,28.0,1.0,95,75.0
147,G#2,28.0,1.0,95,75.0
148,G#3,28.0,0.75,95,75.0
149,E-3,28.0,0.75,95,75.0
150,G#3,28.75,0.5,95,75.0
151,G#2,29.0,1.0,95,75.0
152,F4,29.25,0.25,95,75.0
153,D4,29.5,0.25,95,75.0
154,B-3,29.75,0.25,95,75.0
155,B-3,29.75,0.25,95,75.0
156,E-4,30.0,0.75,95,75.0
157,E-4,30.0,0.25,95,75.0
158,F4,30.0,1.0,95,75.0
159,B-3,30.0,1.0,95,75.0
160,E-3,30.0,1.0,95,75.0
161,E-4,30.25,0.5,95,75.0
162,E-4,30.75,0.5,95,75.0
163,E-4,30.75,0.5,95,75.0
164,E-3,31.0,1.0,95,75.0
165,G4,31.25,0.25,95,75.0
166,F4,31.25,0.5,95,75.0
167,E-4,31.5,0.25,95,75.0
168,B-3,31.75,0.25,95,75.0
169,F4,31.75,0.25,95,75.0
170,B-3,32.0,0.75,95,75.0
171,F4,32.0,0.25,95,75.0
172,D4,32.0,1.0,95,75.0
173,F3,32.0,1.0,95,75.0
174,B-2,32.0,1.0,95,75.0
175,F4,32.25,0.5,95,75.0
176,B-3,32.75,0.5,95,75.0
177,B-2,33.0,1.0,95,75.0
178,F4,33.25,0.25,95,75.0
179,D4,33.5,0.25,95,75.0
180,B-3,33.75,0.25,95,75.0
181,F3,33.75,0.25,95,75.0
182,C#4,34.0,0.25,95,75.0
183,G#3,34.0,0.75,95,75.0
184,C#3,34.0,0.75,95,75.0
185,C#4,34.25,1.0,95,75.0
186,C#4,34.25,0.5,95,75.0
187,B-3,34.75,0.75,95,75.0
188,G#3,34.75,0.75,95,75.0
189,C#3,34.75,0.75,95,75.0
190,C#4,35.25,0.75,95,75.0
191,G#3,35.5,0.5,95,75.0
192,C#3,35.5,0.5,95,75.0
193,G#3,36.0,0.75,111,75.0
194,C#3,36.0,0.75,111,75.0
195,C#4,36.25,0.5,95,75.0
196,G#3,36.75,1.25,111,75.0
197,C#3,36.75,1.25,111,75.0
198,C#4,37.0,0.25,95,75.0
199,B-3,37.25,0.75,95,75.0
200,F4,37.5,0.5,95,75.0
201,B3,37.5,0.25,95,75.0
202,C#4,37.75,0.5,95,75.0
203,F4,38.0,0.5,95,75.0
204,C4,38.0,0.75,95,75.0
205,G3,38.0,0.75,95,75.0
206,C3,38.0,0.75,95,75.0
207,C#4,38.25,0.5,95,75.0
208,G2,38.5,0.5,95,75.0
209,F4,38.75,0.5,95,75.0
210,C4,38.75,0.75,95,75.0
211,C4,38.75,0.75,95,75.0
212,G3,38.75,0.75,95,75.0
213,C3,38.75,0.75,95,75.0
214,G2,39.25,0.75,95,75.0
215,C4,39.5,0.5,95,75.0
216,E4,39.5,0.5,95,75.0
217,C4,39.5,0.5,95,75.0
218,G3,39.5,0.5,95,75.0
219,C3,39.5,0.5,95,75.0
220,G2,40.0,2.0,95,75.0
221,C4,40.0,2.0,95,75.0
222,E4,40.0,2.0,95,75.0
223,C4,40.0,2.0,95,75.0
224,G3,40.0,2.0,95,75.0
225,C3,40.0,2.0,95,75.0
226,C2,41.5,0.25,95,75.0
227,D4,41.5,0.25,95,75.0
228,C2,41.75,0.25,95,75.0
229,F4,41.75,0.25,95,75.0
230,B-1,42.0,0.5,95,75.0
231,G4,42.0,0.5,95,75.0
232,C#3,42.0,0.5,95,75.0
233,C2,42.0,0.5,95,75.0
234,B-1,42.5,0.5,95,75.0
235,G4,42.5,1.0,95,75.0
236,A3,42.5,0.5,95,75.0
237,C2,42.5,0.5,95,75.0
238,E2,43.0,0.5,95,75.0
239,B-4,43.0,1.0,95,75.0
240,F4,43.0,1.0,95,75.0
241,B-3,43.0,1.0,95,75.0
242,F3,43.0,1.0,95,75.0
243,B-2,43.0,1.0,95,75.0
244,B-2,43.5,0.25,95,75.0
245,F4,43.5,0.5,95,75.0
246,F1,43.75,0.5,95,75.0
247,C2,43.75,0.25,95,75.0
248,F1,44.25,0.25,95,75.0
249,C2,44.25,0.25,95,75.0
250,F1,44.5,0.75,95,75.0
251,B-4,44.5,0.25,95,75.0
252,B-2,44.5,0.25,95,75.0
253,C2,44.5,0.25,95,75.0
254,E2,45.0,0.5,95,75.0
255,B-4,45.0,0.25,95,75.0
256,F4,45.0,1.0,95,75.0
257,C4,45.0,1.0,95,75.0
258,F3,45.0,1.0,95,75.0
259,C3,45.0,1.0,95,75.0
260,F2,45.0,1.0,95,75.0
261,B-2,45.5,0.5,95,75.0
262,G4,45.5,0.5,95,75.0
263,C2,46.0,0.5,95,75.0
264,C2,46.0,0.5,95,75.0
265,C2,46.5,0.5,95,75.0
266,B-2,46.5,0.5,95,75.0
267,C2,46.5,0.5,95,75.0
268,E2,47.0,21/500,95,75.0
269,E2,47.0,0.5,95,75.0
270,E4,47.0,0.25,95,75.0
271,C4,47.0,0.25,95,75.0
272,G3,47.0,0.25,95,75.0
273,G4,47.25,0.25,95,75.0
274,B-2,47.5,0.25,95,75.0
275,G4,47.5,0.25,95,75.0
276,E2,47.75,21/500,95,75.0
277,C2,47.75,0.5,95,75.0
278,C2,47.75,0.25,95,75.0
279,E4,47.75,0.25,95,75.0
280,C4,47.75,0.25,95,75.0
281,G3,47.75,0.25,95,75.0
282,E4,48.0,0.5,95,75.0
283,C2,48.25,0.25,95,75.0
284,C2,48.25,0.25,95,75.0
285,E2,48.5,21/500,95,75.0
286,C2,48.5,0.75,95,75.0
287,E4,48.5,1.0,95,75.0
288,C4,48.5,0.25,95,75.0
289,G3,48.5,0.25,95,75.0
290,B-2,48.5,0.25,95,75.0
291,C2,48.5,0.25,95,75.0
292,E2,48.75,21/500,95,75.0
293,F4,48.75,0.25,95,75.0
294,C4,48.75,0.25,95,75.0
295,G3,48.75,0.25,95,75.0
296,E2,49.0,21/500,95,75.0
297,E2,49.0,0.5,95,75.0
298,F4,49.0,0.25,95,75.0
299,C4,49.0,0.25,95,75.0
300,G3,49.0,0.25,95,75.0
301,E2,49.25,21/500,95,75.0
302,E4,49.25,0.25,95,75.0
303,C4,49.25,0.25,95,75.0
304,G3,49.25,0.25,95,75.0
305,B-2,49.5,0.5,95,75.0
306,B-1,50.0,0.5,95,75.0
307,C2,50.0,0.5,95,75.0
308,A4,50.0,0.75,95,75.0
309,B-1,50.5,0.5,95,75.0
310,B-2,50.5,0.5,95,75.0
311,C2,50.5,0.5,95,75.0
312,A4,50.75,0.25,95,75.0
313,E2,51.0,0.5,95,75.0
314,G4,51.0,0.75,95,75.0
315,B-4,51.0,1.0,95,75.0
316,F4,51.0,1.0,95,75.0
317,B-3,51.0,1.0,95,75.0
318,F3,51.0,1.0,95,75.0
319,B-2,51.0,1.0,95,75.0
320,B-2,51.5,0.25,95,75.0
321,F1,51.75,0.5,95,75.0
322,C2,51.75,0.25,95,75.0
323,C5,51.75,0.25,95,75.0
324,G4,52.0,0.75,95,75.0
325,F1,52.25,0.25,95,75.0
326,C2,52.25,0.25,95,75.0
327,F1,52.5,0.75,95,75.0
328,B-2,52.5,0.25,95,75.0
329,C2,52.5,0.25,95,75.0
330,G4,52.75,0.25,95,75.0
331,E2,53.0,0.5,95,75.0
332,F4,53.0,0.5,95,75.0
333,F4,53.0,1.0,95,75.0
334,C4,53.0,1.0,95,75.0
335,F3,53.0,1.0,95,75.0
336,C3,53.0,1.0,95,75.0
337,F2,53.0,1.0,95,75.0
338,B-2,53.5,0.5,95,75.0
339,G4,53.5,0.5,95,75.0
340,C2,54.0,0.5,95,75.0
341,C2,54.0,0.5,95,75.0
342,G4,54.0,0.5,95,75.0
343,C2,54.5,0.5,95,75.0
344,G4,54.5,0.25,95,75.0
345,B-2,54.5,0.5,95,75.0
346,C2,54.5,0.5,95,75.0
347,G4,54.75,0.25,95,75.0
348,E2,55.0,21/500,95,75.0
349,E2,55.0,0.5,95,75.0
350,G4,55.0,0.25,95,75.0
351,C4,55.0,0.25,95,75.0
352,G3,55.0,0.25,95,75.0
353,G4,55.375,0.25,95,75.0
354,B-2,55.5,0.25,95,75.0
355,E2,55.75,21/500,95,75.0
356,C2,55.75,0.5,95,75.0
357,C2,55.75,0.25,95,75.0
358,G4,55.75,0.25,95,75.0
359,C4,55.75,0.25,95,75.0
360,G3,55.75,0.25,95,75.0
361,G4,56.0,0.375,95,75.0
362,C2,56.25,0.25,95,75.0
363,C2,56.25,0.25,95,75.0
364,E2,56.5,21/500,95,75.0
365,C2,56.5,0.75,95,75.0
366,C4,56.5,0.25,95,75.0
367,G3,56.5,0.25,95,75.0
368,B-2,56.5,0.25,95,75.0
369,C2,56.5,0.25,95,75.0
370,E2,56.75,21/500,95,75.0
371,F4,56.75,0.25,95,75.0
372,C4,56.75,0.25,95,75.0
373,G3,56.75,0.25,95,75.0
374,E2,57.0,21/500,95,75.0
375,E2,57.0,0.25,95,75.0
376,F4,57.0,0.25,95,75.0
377,C4,57.0,0.25,95,75.0
378,G3,57.0,0.25,95,75.0
379,E2,57.25,21/500,95,75.0
380,E2,57.25,0.25,95,75.0
381,F4,57.25,0.25,95,75.0
382,E4,57.25,0.25,95,75.0
383,C4,57.25,0.25,95,75.0
384,G3,57.25,0.25,95,75.0
385,E2,57.5,0.25,95,75.0
386,F4,57.5,0.25,95,75.0
387,E2,57.75,0.25,95,75.0
388,C4,57.75,0.25,95,75.0
389,B-1,58.0,2.0,95,75.0
390,C4,58.0,1.0,95,75.0
391,C4,58.0,0.5,95,75.0
392,B-3,58.0,0.5,95,75.0
393,F3,58.0,0.5,95,75.0
394,B-2,58.0,0.5,95,75.0
395,F#2,58.0,0.25,95,75.0
396,C2,58.0,0.25,95,75.0
397,F4,58.5,0.5,95,75.0
398,F#2,58.5,0.25,95,75.0
399,D4,59.0,0.5,95,75.0
400,F#2,59.0,0.25,95,75.0
401,E2,59.0,0.25,95,75.0
402,C4,59.25,0.25,95,75.0
403,B-3,59.5,0.5,95,75.0
404,F#2,59.5,0.25,95,75.0
405,D4,59.5,0.25,95,75.0
406,C4,59.75,1.0,95,75.0
407,A1,60.0,2.0,95,75.0
408,C4,60.0,0.5,95,75.0
409,A3,60.0,0.5,95,75.0
410,E3,60.0,0.5,95,75.0
411,A2,60.0,0.5,95,75.0
412,F#2,60.0,0.25,95,75.0
413,C2,60.0,0.25,95,75.0
414,F4,60.5,0.5,95,75.0
415,F#2,60.5,0.25,95,75.0
416,A3,60.75,1.25,95,75.0
417,C4,61.0,0.5,95,75.0
418,F#2,61.0,0.25,95,75.0
419,E2,61.0,0.25,95,75.0
420,A3,61.5,0.5,95,75.0
421,F#2,61.5,0.25,95,75.0
422,G#1,62.0,2.0,95,75.0
423,C4,62.0,0.5,95,75.0
424,G#3,62.0,0.5,95,75.0
425,E-3,62.0,0.5,95,75.0
426,G#2,62.0,0.5,95,75.0
427,F#2,62.0,0.25,95,75.0
428,C2,62.0,0.25,95,75.0
429,E-4,62.5,0.5,95,75.0
430,F#2,62.5,0.25,95,75.0
431,C4,63.0,0.5,95,75.0
432,F#2,63.0,0.25,95,75.0
433,E2,63.0,0.25,95,75.0
434,G#3,63.5,0.5,95,75.0
435,F#2,63.5,0.25,95,75.0
436,B-3,63.75,0.25,95,75.0
437,E-2,64.0,2.0,95,75.0
438,E-4,64.0,0.25,95,75.0
439,F4,64.0,0.5,95,75.0
440,E-4,64.0,0.5,95,75.0
441,B-3,64.0,0.5,95,75.0
442,E-3,64.0,0.5,95,75.0
443,F#2,64.0,0.25,95,75.0
444,C2,64.0,0.25,95,75.0
445,E-4,64.25,0.5,95,75.0
446,G4,64.5,0.5,95,75.0
447,F#2,64.5,0.25,95,75.0
448,E-4,64.75,0.5,95,75.0
449,E-4,65.0,0.5,95,75.0
450,F#2,65.0,0.25,95,75.0
451,E2,65.0,0.25,95,75.0
452,F4,65.25,0.5,95,75.0
453,B-3,65.5,0.5,95,75.0
454,F#2,65.5,0.25,95,75.0
455,F4,65.75,0.25,95,75.0
456,B-3,66.0,0.75,95,75.0
457,D2,66.0,2.0,95,75.0
458,F4,66.0,0.25,95,75.0
459,D4,66.0,1.0,95,75.0
460,F3,66.0,1.0,95,75.0
461,B-2,66.0,1.0,95,75.0
462,B-3,66.0,2.0,95,75.0
463,F3,66.0,2.0,95,75.0
464,B-2,66.0,2.0,95,75.0
465,F#2,66.0,0.25,95,75.0
466,C2,66.0,0.25,95,75.0
467,F4,66.25,0.5,95,75.0
468,F#2,66.5,0.25,95,75.0
469,B-3,66.75,0.5,95,75.0
470,B-2,67.0,1.0,95,75.0
471,F#2,67.0,0.25,95,75.0
472,E2,67.0,0.25,95,75.0
473,F4,67.25,0.25,95,75.0
474,D4,67.5,0.25,95,75.0
475,F#2,67.5,0.25,95,75.0
476,B-3,67.75,0.25,95,75.0
477,F3,67.75,0.25,95,75.0
478,C#2,68.0,2.0,95,75.0
479,C#4,68.0,0.25,95,75.0
480,G#3,68.0,0.75,95,75.0
481,C#3,68.0,0.75,95,75.0
482,C#4,68.0,2.0,95,75.0
483,G#3,68.0,2.0,95,75.0
484,C#3,68.0,2.0,95,75.0
485,F#2,68.0,0.25,95,75.0
486,C2,68.0,0.25,95,75.0
487,C#4,68.25,1.0,95,75.0
488,C#4,68.25,0.5,95,75.0
489,F#2,68.5,0.25,95,75.0
490,B-3,68.75,0.75,95,75.0
491,G#3,68.75,0.75,95,75.0
492,C#3,68.75,0.75,95,75.0
493,F#2,69.0,0.25,95,75.0
494,E2,69.0,0.25,95,75.0
495,C#4,69.25,0.75,95,75.0
496,F#2,69.5,0.25,95,75.0
497,G#3,69.5,0.5,95,75.0
498,C#3,69.5,0.5,95,75.0
499,F1,70.0,2.0,95,75.0
500,G#3,70.0,0.75,111,75.0
501,C#3,70.0,0.75,111,75.0
502,F#2,70.0,0.25,95,75.0
503,C2,70.0,0.25,95,75.0
504,C#4,70.25,0.5,95,75.0
505,F#2,70.5,0.25,95,75.0
506,C2,70.75,0.25,95,75.0
507,G#3,70.75,1.25,111,75.0
508,C#3,70.75,1.25,111,75.0
509,C#4,71.0,0.25,95,75.0
510,F#2,71.0,0.25,95,75.0
511,E2,71.0,0.25,95,75.0
512,B-3,71.25,0.75,95,75.0
513,F4,71.5,0.5,95,75.0
514,F#2,71.5,0.25,95,75.0
515,B3,71.5,0.25,95,75.0
516,C#4,71.75,0.5,95,75.0
517,F4,72.0,0.5,95,75.0
518,C2,72.0,0.75,95,75.0
519,C4,72.0,0.75,95,75.0
520,G3,72.0,0.75,95,75.0
521,C3,72.0,0.75,95,75.0
522,C#4,72.0,2.0,95,75.0
523,G#3,72.0,2.0,95,75.0
524,C#3,72.0,2.0,95,75.0
525,B-2,72.0,0.25,95,75.0
526,E2,72.0,0.25,95,75.0
527,C2,72.0,0.25,95,75.0
528,C#4,72.25,0.5,95,75.0
529,G2,72.5,0.5,95,75.0
530,F4,72.75,0.5,95,75.0
531,G1,72.75,0.75,95,75.0
532,C4,72.75,0.75,95,75.0
533,C4,72.75,0.75,95,75.0
534,G3,72.75,0.75,95,75.0
535,C3,72.75,0.75,95,75.0
536,B-2,72.75,0.25,95,75.0
537,E2,72.75,0.25,95,75.0
538,C2,72.75,0.25,95,75.0
539,G2,73.25,0.75,95,75.0
540,C2,73.25,0.25,95,75.0
541,C2,73.5,0.5,95,75.0
542,C4,73.5,0.5,95,75.0
543,E4,73.5,0.5,95,75.0
544,C4,73.5,0.5,95,75.0
545,G3,73.5,0.5,95,75.0
546,C3,73.5,0.5,95,75.0
547,B-2,73.5,0.25,95,75.0
548,E2,73.5,0.25,95,75.0
549,C2,73.5,0.25,95,75.0
550,G2,74.0,2.0,95,75.0
551,C2,74.0,2.0,95,75.0
552,C4,74.0,2.0,95,75.0
553,E4,74.0,2.0,95,75.0
554,C4,74.0,2.0,95,75.0
555,G3,74.0,2.0,95,75.0
556,C3,74.0,2.0,95,75.0
557,C4,74.0,2.0,95,75.0
558,G3,74.0,2.0,95,75.0
559,C3,74.0,2.0,95,75.0
560,A2,74.75,0.25,95,75.0
561,C2,74.75,0.25,95,75.0
562,A2,75.0,0.5,95,75.0
563,C2,75.0,0.5,95,75.0
564,G2,75.5,0.5,95,75.0
565,C2,75.5,0.5,95,75.0
566,C3,76.0,1.25,95,75.0
567,C2,76.0,4.0,95,75.0
568,E4,76.0,1.0,95,75.0
569,C4,76.0,1.0,95,75.0
570,F#2,76.0,0.25,95,75.0
571,C2,76.0,0.25,95,75.0
572,F#2,76.5,0.25,95,75.0
573,G3,76.75,0.25,95,75.0
574,G3,77.0,0.25,95,75.0
575,C4,77.0,0.25,95,75.0
576,F#2,77.0,0.25,95,75.0
577,E2,77.0,0.25,95,75.0
578,C3,77.25,0.75,95,75.0
579,C4,77.25,0.5,95,75.0
580,E4,77.25,0.5,95,75.0
581,C4,77.25,0.5,95,75.0
582,F#2,77.5,0.25,95,75.0
583,G3,77.75,0.25,95,75.0
584,C4,77.75,0.25,95,75.0
585,C3,78.0,1.25,95,75.0
586,E4,78.0,1.0,95,75.0
587,C4,78.0,1.0,95,75.0
588,C4,78.0,2.0,95,75.0
589,G3,78.0,2.0,95,75.0
590,C3,78.0,2.0,95,75.0
591,F#2,78.0,0.25,95,75.0
592,C2,78.0,0.25,95,75.0
593,F#2,78.5,0.25,95,75.0
594,G3,79.0,0.25,95,75.0
595,C4,79.0,0.375,95,75.0
596,F#2,79.0,0.25,95,75.0
597,E2,79.0,0.25,95,75.0
598,C3,79.25,0.75,95,75.0
599,E4,79.25,0.5,95,75.0
600,C4,79.25,0.5,95,75.0
601,C4,79.375,0.375,95,75.0
602,F#2,79.5,0.25,95,75.0
603,G3,79.75,0.25,95,75.0
604,C4,79.75,0.25,95,75.0
605,G2,80.0,1.25,95,75.0
606,G1,80.0,2.0,95,75.0
607,C4,80.0,0.5,95,75.0
608,D4,80.0,0.75,95,75.0
609,B3,80.0,0.75,95,75.0
610,F#2,80.0,0.25,95,75.0
611,C2,80.0,0.25,95,75.0
612,F#2,80.5,0.25,95,75.0
613,G3,80.75,0.25,95,75.0
614,G3,81.0,0.25,95,75.0
615,F#2,81.0,0.25,95,75.0
616,E2,81.0,0.25,95,75.0
617,E4,81.25,0.75,95,75.0
618,C4,81.25,0.75,95,75.0
619,G2,81.25,0.75,95,75.0
620,F#2,81.5,0.25,95,75.0
621,G2,82.0,0.75,95,75.0
622,D3,82.0,0.5,95,75.0
623,G1,82.0,1.0,95,75.0
624,E4,82.0,0.25,95,75.0
625,C4,82.0,0.25,95,75.0
626,F#2,82.0,0.25,95,75.0
627,C2,82.0,0.25,95,75.0
628,D4,82.25,0.5,95,75.0
629,B3,82.25,0.5,95,75.0
630,G3,82.5,0.25,95,75.0
631,F#2,82.5,0.25,95,75.0
632,E3,82.75,0.25,95,75.0
633,D4,82.75,0.5,95,75.0
634,F4,82.75,0.5,95,75.0
635,D4,82.75,0.5,95,75.0
636,B3,82.75,0.5,95,75.0
637,G2,82.75,0.5,95,75.0
638,G3,83.0,0.125,95,75.0
639,G1,83.0,0.25,95,75.0
640,F#2,83.0,0.25,95,75.0
641,E2,83.0,0.25,95,75.0
642,A3,83.125,0.125,86,75.0
643,G2,83.25,0.75,95,75.0
644,G3,83.25,0.25,86,75.0
645,A1,83.25,0.25,95,75.0
646,D4,83.25,0.25,95,75.0
647,F4,83.25,0.25,95,75.0
648,E4,83.25,0.25,95,75.0
649,C4,83.25,0.25,95,75.0
650,D3,83.5,0.125,95,75.0
651,C2,83.5,0.25,95,75.0
652,F#2,83.5,0.25,95,75.0
653,C4,83.5,0.5,95,75.0
654,E4,83.5,0.5,95,75.0
655,D4,83.5,0.5,95,75.0
656,B3,83.5,0.5,95,75.0
657,E3,83.625,0.125,86,75.0
658,D3,83.75,0.25,86,75.0
659,G1,83.75,0.25,95,75.0
660,C3,84.0,1.25,95,75.0
661,G2,84.0,0.5,95,75.0
662,C2,84.0,2.0,95,75.0
663,E4,84.0,1.0,95,75.0
664,C4,84.0,1.0,95,75.0
665,F#2,84.0,0.25,95,75.0
666,C2,84.0,0.25,95,75.0
667,G4,84.5,0.75,95,75.0
668,F#2,84.5,0.25,95,75.0
669,G3,85.0,0.25,95,75.0
670,C4,85.0,0.5,95,75.0
671,E4,85.0,0.5,95,75.0
672,F#2,85.0,0.25,95,75.0
673,E2,85.0,0.25,95,75.0
674,C3,85.25,0.75,95,75.0
675,D4,85.25,0.5,95,75.0
676,E4,85.25,0.5,95,75.0
677,C4,85.25,0.5,95,75.0
678,F#2,85.5,0.25,95,75.0
679,G3,85.5,0.25,95,75.0
680,C4,85.5,0.25,95,75.0
681,G3,85.75,0.25,95,75.0
682,G3,85.75,0.25,95,75.0
683,C4,85.75,0.5,95,75.0
684,E4,85.75,0.5,95,75.0
685,C3,86.0,1.25,95,75.0
686,G4,86.0,0.125,95,75.0
687,C2,86.0,1.25,95,75.0
688,E4,86.0,1.0,95,75.0
689,C4,86.0,1.0,95,75.0
690,F#2,86.0,0.25,95,75.0
691,C2,86.0,0.25,95,75.0
692,A4,86.125,0.125,86,75.0
693,G4,86.25,0.25,86,75.0
694,D4,86.5,0.5,95,75.0
695,F#2,86.5,0.25,95,75.0
696,C4,86.5,0.25,95,75.0
697,E4,86.5,0.25,95,75.0
698,G3,86.75,0.5,95,75.0
699,C4,86.75,0.5,95,75.0
700,G3,87.0,0.25,95,75.0
701,G4,87.0,0.25,95,75.0
702,F#2,87.0,0.25,95,75.0
703,E2,87.0,0.25,95,75.0
704,C3,87.25,0.75,95,75.0
705,D4,87.25,0.25,95,75.0
706,D2,87.25,0.25,95,75.0
707,C4,87.25,0.25,95,75.0
708,E4,87.25,0.25,95,75.0
709,E4,87.25,0.5,95,75.0
710,C4,87.25,0.5,95,75.0
711,G3,87.5,0.25,95,75.0
712,E2,87.5,0.25,95,75.0
713,F#2,87.5,0.25,95,75.0
714,G3,87.5,0.5,95,75.0
715,C4,87.5,0.5,95,75.0
716,G3,87.75,0.25,95,75.0
717,G2,87.75,0.25,95,75.0
718,F2,87.75,0.25,95,75.0
719,G2,88.0,2.0,95,75.0
720,C3,88.0,2.0,95,75.0
721,G2,88.0,1.75,95,75.0
722,C4,88.0,1.25,95,75.0
723,F4,88.0,1.25,95,75.0
724,C4,88.0,0.75,95,75.0
725,F3,88.0,0.75,95,75.0
726,F#2,88.0,0.25,95,75.0
727,C2,88.0,0.25,95,75.0
728,G3,88.5,1.5,95,75.0
729,F#2,88.5,0.25,95,75.0
730,C2,88.5,0.25,95,75.0
731,G3,88.75,0.25,95,75.0
732,G3,89.0,0.75,95,75.0
733,F#2,89.0,0.25,95,75.0
734,E2,89.0,0.25,95,75.0
735,C4,89.25,0.75,95,75.0
736,D4,89.25,0.25,95,75.0
737,G4,89.25,0.25,95,75.0
738,F#2,89.5,0.25,95,75.0
739,E4,89.5,0.5,95,75.0
740,A4,89.5,0.5,95,75.0
741,G3,89.75,0.25,95,75.0
742,D2,89.75,0.25,95,75.0
743,G2,90.0,0.25,95,75.0
744,D4,90.0,1.0,95,75.0
745,G4,90.0,1.0,95,75.0
746,D4,90.0,1.25,95,75.0
747,B3,90.0,1.25,95,75.0
748,G2,90.0,1.25,95,75.0
749,G3,90.0,2.0,95,75.0
750,C3,90.0,2.0,95,75.0
751,F#2,90.0,0.25,95,75.0
752,C2,90.0,0.25,95,75.0
753,D2,90.25,0.25,95,75.0
754,G1,90.5,0.75,95,75.0
755,F#2,90.5,0.25,95,75.0
756,E2,90.5,0.25,95,75.0
757,E2,90.75,0.25,95,75.0
758,F#2,91.0,0.25,95,75.0
759,E2,91.0,0.25,95,75.0
760,F1,91.25,0.25,95,75.0
761,G2,91.25,0.25,95,75.0
762,C4,91.25,0.25,95,75.0
763,C4,91.25,0.25,95,75.0
764,F2,91.25,0.25,95,75.0
765,G1,91.5,0.5,95,75.0
766,D4,91.5,0.5,95,75.0
767,D4,91.5,0.5,95,75.0
768,G2,91.5,0.5,95,75.0
769,F#2,91.5,0.25,95,75.0
770,G2,91.5,0.25,95,75.0
771,B-3,92.0,0.75,95,75.0
772,B-1,92.0,2.0,95,75.0
773,C4,92.0,1.0,95,75.0
774,F3,92.0,1.0,95,75.0
775,B-2,92.0,1.0,95,75.0
776,C4,92.0,2.0,95,75.0
777,F3,92.0,2.0,95,75.0
778,G2,92.0,2.0,95,75.0
779,F#2,92.0,0.25,95,75.0
780,C2,92.0,0.25,95,75.0
781,F#2,92.5,0.25,95,75.0
782,B-3,92.75,0.5,95,75.0
783,B-2,93.0,1.0,95,75.0
784,F#2,93.0,0.25,95,75.0
785,E2,93.0,0.25,95,75.0
786,F4,93.25,0.25,95,75.0
787,C4,93.25,0.25,95,75.0
788,F4,93.25,0.25,95,75.0
789,D4,93.5,0.25,95,75.0
790,F#2,93.5,0.25,95,75.0
791,D4,93.5,0.25,95,75.0
792,F4,93.5,0.25,95,75.0
793,B-3,93.75,0.25,95,75.0
794,C4,93.75,0.75,95,75.0
795,F4,93.75,0.75,95,75.0
796,A3,94.0,0.75,95,75.0
797,A1,94.0,2.0,95,75.0
798,E3,94.0,1.0,95,75.0
799,A2,94.0,1.0,95,75.0
800,D4,94.0,1.25,95,75.0
801,B3,94.0,1.25,95,75.0
802,G2,94.0,1.25,95,75.0
803,F#2,94.0,0.25,95,75.0
804,C2,94.0,0.25,95,75.0
805,F#2,94.5,0.25,95,75.0
806,C4,94.5,0.25,95,75.0
807,F4,94.5,0.25,95,75.0
808,A3,94.75,0.5,95,75.0
809,A3,94.75,0.75,95,75.0
810,F4,94.75,0.75,95,75.0
811,A2,95.0,1.0,95,75.0
812,F#2,95.0,0.25,95,75.0
813,E2,95.0,0.25,95,75.0
814,F4,95.25,0.25,95,75.0
815,F3,95.25,0.25,95,75.0
816,C3,95.25,0.25,95,75.0
817,F2,95.25,0.25,95,75.0
818,D4,95.5,0.25,95,75.0
819,F#2,95.5,0.25,95,75.0
820,C4,95.5,0.25,95,75.0
821,G3,95.5,0.5,95,75.0
822,D3,95.5,0.5,95,75.0
823,G2,95.5,0.5,95,75.0
824,B-3,95.75,0.25,95,75.0
825,C4,95.75,0.25,95,75.0
826,E-4,95.75,0.25,95,75.0
827,G#1,96.0,2.0,95,75.0
828,C4,96.0,0.5,95,75.0
829,E-4,96.0,0.5,95,75.0
830,C4,96.0,1.0,95,75.0
831,G#2,96.0,1.0,95,75.0
832,G#3,96.0,0.75,95,75.0
833,E-3,96.0,0.75,95,75.0
834,C4,96.0,0.5,95,75.0
835,B-3,96.0,0.5,95,75.0
836,F3,96.0,0.5,95,75.0
837,B-2,96.0,0.5,95,75.0
838,F#2,96.0,0.25,95,75.0
839,C2,96.0,0.25,95,75.0
840,F4,96.5,0.5,95,75.0
841,F#2,96.5,0.25,95,75.0
842,C4,96.5,0.5,95,75.0
843,E-4,96.5,0.5,95,75.0
844,G#3,96.75,0.5,95,75.0
845,G#2,97.0,1.0,95,75.0
846,D4,97.0,0.5,95,75.0
847,F#2,97.0,0.25,95,75.0
848,E2,97.0,0.25,95,75.0
849,F4,97.25,0.25,95,75.0
850,D4,97.5,0.25,95,75.0
851,B-3,97.5,0.5,95,75.0
852,F#2,97.5,0.25,95,75.0
853,B-3,97.75,0.25,95,75.0
854,B-3,97.75,0.25,95,75.0
855,E-4,98.0,0.75,95,75.0
856,E-2,98.0,2.0,95,75.0
857,E-4,98.0,0.25,95,75.0
858,G4,98.0,0.25,95,75.0
859,F4,98.0,1.0,95,75.0
860,B-3,98.0,1.0,95,75.0
861,E-3,98.0,1.0,95,75.0
862,C4,98.0,0.5,95,75.0
863,A3,98.0,0.5,95,75.0
864,E3,98.0,0.5,95,75.0
865,A2,98.0,0.5,95,75.0
866,F#2,98.0,0.25,95,75.0
867,C2,98.0,0.25,95,75.0
868,E-4,98.25,0.5,95,75.0
869,G4,98.25,0.5,95,75.0
870,F4,98.5,0.5,95,75.0
871,F#2,98.5,0.25,95,75.0
872,E-4,98.75,0.5,95,75.0
873,E-4,98.75,0.5,95,75.0
874,G4,98.75,0.5,95,75.0
875,E-3,99.0,1.0,95,75.0
876,C4,99.0,0.5,95,75.0
877,F#2,99.0,0.25,95,75.0
878,E2,99.0,0.25,95,75.0
879,G4,99.25,0.25,95,75.0
880,F4,99.25,0.5,95,75.0
881,A4,99.25,0.5,95,75.0
882,E-4,99.5,0.25,95,75.0
883,A3,99.5,0.5,95,75.0
884,F#2,99.5,0.25,95,75.0
885,B-3,99.75,0.25,95,75.0
886,C2,99.75,0.25,95,75.0
887,F4,99.75,0.25,95,75.0
888,B-4,99.75,0.25,95,75.0
889,B-3,100.0,0.75,95,75.0
890,D2,100.0,2.0,95,75.0
891,F4,100.0,0.25,95,75.0
892,B-4,100.0,0.75,95,75.0
893,D4,100.0,1.0,95,75.0
894,F3,100.0,1.0,95,75.0
895,B-2,100.0,1.0,95,75.0
896,C4,100.0,0.5,95,75.0
897,G#3,100.0,0.5,95,75.0
898,E-3,100.0,0.5,95,75.0
899,G#2,100.0,0.5,95,75.0
900,F#2,100.0,0.25,95,75.0
901,C2,100.0,0.25,95,75.0
902,F4,100.25,0.5,95,75.0
903,E-4,100.5,0.5,95,75.0
904,F#2,100.5,0.25,95,75.0
905,B-3,100.75,0.5,95,75.0
906,B-2,101.0,1.0,95,75.0
907,C4,101.0,0.5,95,75.0
908,F#2,101.0,0.25,95,75.0
909,E2,101.0,0.25,95,75.0
910,F4,101.25,0.25,95,75.0
911,D4,101.5,0.25,95,75.0
912,G#3,101.5,0.5,95,75.0
913,F#2,101.5,0.25,95,75.0
914,B-3,101.75,0.25,95,75.0
915,C2,101.75,0.25,95,75.0
916,F3,101.75,0.25,95,75.0
917,F4,101.75,0.25,95,75.0
918,C#2,102.0,2.0,95,75.0
919,C#4,102.0,0.25,95,75.0
920,F4,102.0,0.25,95,75.0
921,G#3,102.0,0.75,95,75.0
922,C#3,102.0,0.75,95,75.0
923,F4,102.0,0.5,95,75.0
924,E-4,102.0,0.5,95,75.0
925,B-3,102.0,0.5,95,75.0
926,E-3,102.0,0.5,95,75.0
927,F#2,102.0,0.25,95,75.0
928,C2,102.0,0.25,95,75.0
929,C#4,102.25,1.0,95,75.0
930,C#4,102.25,0.5,95,75.0
931,F4,102.25,0.5,95,75.0
932,G4,102.5,0.5,95,75.0
933,F#2,102.5,0.25,95,75.0
934,C2,102.5,0.25,95,75.0
935,C#4,102.75,0.75,95,75.0
936,F4,102.75,0.75,95,75.0
937,G#3,102.75,0.75,95,75.0
938,C#3,102.75,0.75,95,75.0
939,E-4,103.0,0.5,95,75.0
940,F#2,103.0,0.25,95,75.0
941,E2,103.0,0.25,95,75.0
942,G#4,103.0,0.25,95,75.0
943,C#4,103.0,0.25,95,75.0
944,C#4,103.25,0.75,95,75.0
945,C#4,103.25,0.25,95,75.0
946,B-3,103.25,0.25,95,75.0
947,B-3,103.5,0.5,95,75.0
948,F#2,103.5,0.25,95,75.0
949,G#3,103.5,0.5,95,75.0
950,C#3,103.5,0.5,95,75.0
951,F4,103.5,0.25,95,75.0
952,C#4,103.5,0.25,95,75.0
953,C2,103.75,0.25,95,75.0
954,C#4,103.75,0.25,95,75.0
955,B-3,103.75,0.25,95,75.0
956,F1,104.0,2.0,95,75.0
957,G#3,104.0,0.75,111,75.0
958,C#3,104.0,0.75,111,75.0
959,B-3,104.0,0.5,95,75.0
960,F3,104.0,0.5,95,75.0
961,B-2,104.0,0.5,95,75.0
962,F#2,104.0,0.25,95,75.0
963,C2,104.0,0.25,95,75.0
964,C#4,104.0,2.0,95,75.0
965,B-3,104.0,2.0,95,75.0
966,C#4,104.25,0.5,95,75.0
967,F4,104.5,0.5,95,75.0
968,F#2,104.5,0.25,95,75.0
969,C2,104.75,0.25,95,75.0
970,G#3,104.75,1.25,111,75.0
971,C#3,104.75,1.25,111,75.0
972,C#4,105.0,0.25,95,75.0
973,D4,105.0,0.5,95,75.0
974,F#2,105.0,0.25,95,75.0
975,E2,105.0,0.25,95,75.0
976,B-3,105.25,0.75,95,75.0
977,F4,105.5,0.5,95,75.0
978,B-3,105.5,0.5,95,75.0
979,F#2,105.5,0.25,95,75.0
980,C4,105.5,0.5,95,75.0
981,F4,105.5,0.5,95,75.0
982,F4,106.0,0.5,95,75.0
983,C2,106.0,0.75,95,75.0
984,D4,106.0,0.25,95,75.0
985,F4,106.0,0.25,95,75.0
986,C4,106.0,0.75,95,75.0
987,G3,106.0,0.75,95,75.0
988,C3,106.0,0.75,95,75.0
989,C#4,106.0,2.0,95,75.0
990,G#3,106.0,2.0,95,75.0
991,C#3,106.0,2.0,95,75.0
992,B-2,106.0,0.25,95,75.0
993,E2,106.0,0.25,95,75.0
994,C2,106.0,0.25,95,75.0
995,C4,106.25,0.5,95,75.0
996,E4,106.25,0.5,95,75.0
997,G2,106.5,0.5,95,75.0
998,F4,106.75,0.5,95,75.0
999,G1,106.75,0.75,95,75.0
1000,C4,106.75,0.75,95,75.0
1001,E4,106.75,0.75,95,75.0
1002,C4,106.75,0.75,95,75.0
1003,G3,106.75,0.75,95,75.0
1004,C3,106.75,0.75,95,75.0
1005,B-2,106.75,0.25,95,75.0
1006,E2,106.75,0.25,95,75.0
1007,C2,106.75,0.25,95,75.0
1008,G2,107.25,0.75,95,75.0
1009,C2,107.25,0.25,95,75.0
1010,C2,107.5,0.5,95,75.0
1011,C4,107.5,0.5,95,75.0
1012,E4,107.5,0.5,95,75.0
1013,E4,107.5,0.5,95,75.0
1014,C4,107.5,0.5,95,75.0
1015,G3,107.5,0.5,95,75.0
1016,C3,107.5,0.5,95,75.0
1017,B-2,107.5,0.25,95,75.0
1018,E2,107.5,0.25,95,75.0
1019,C2,107.5,0.25,95,75.0
1020,G2,108.0,2.0,95,75.0
1021,C2,108.0,2.0,95,75.0
1022,E2,108.0,0.25,95,75.0
1023,C4,108.0,2.0,95,75.0
1024,E4,108.0,1.5,95,75.0
1025,E4,108.0,2.0,95,75.0
1026,C4,108.0,2.0,95,75.0
1027,G3,108.0,2.0,95,75.0
1028,C3,108.0,2.0,95,75.0
1029,E2,108.25,0.125,95,75.0
1030,E2,108.375,0.125,95,75.0
1031,E2,108.5,0.25,95,75.0
1032,E2,108.75,0.25,95,75.0
1033,A2,109.0,0.25,95,75.0
1034,A2,109.25,0.125,95,75.0
1035,A2,109.375,0.125,95,75.0
1036,A2,109.5,0.125,95,75.0
1037,B-4,109.5,0.25,95,75.0
1038,A2,109.625,0.125,95,75.0
1039,G2,109.75,0.125,95,75.0
1040,B-4,109.75,0.25,95,75.0
1041,G2,109.875,0.125,95,75.0
1042,B-1,110.0,0.5,95,75.0
1043,A4,110.0,0.75,95,75.0
1044,C#4,110.0,2.0,95,75.0
1045,G#3,110.0,2.0,95,75.0
1046,C#3,110.0,2.0,95,75.0
1047,C#3,110.0,0.5,95,75.0
1048,C2,110.0,0.5,95,75.0
1049,B-1,110.5,0.5,95,75.0
1050,A3,110.5,0.5,95,75.0
1051,C2,110.5,0.5,95,75.0
1052,B-4,110.75,0.75,95,75.0
1053,E2,111.0,0.5,95,75.0
1054,B-2,111.5,0.25,95,75.0
1055,G#4,111.5,0.5,95,75.0
1056,F1,111.75,0.5,95,75.0
1057,C2,111.75,0.25,95,75.0
1058,C4,112.0,0.5,95,75.0
1059,F3,112.0,0.5,95,75.0
1060,C3,112.0,0.5,95,75.0
1061,F1,112.25,0.25,95,75.0
1062,C2,112.25,0.25,95,75.0
1063,F1,112.5,0.75,95,75.0
1064,A4,112.5,0.25,95,75.0
1065,B-2,112.5,0.25,95,75.0
1066,C2,112.5,0.25,95,75.0
1067,C4,112.75,0.5,95,75.0
1068,F3,112.75,0.5,95,75.0
1069,C3,112.75,0.5,95,75.0
1070,E2,113.0,0.5,95,75.0
1071,A4,113.0,0.25,95,75.0
1072,B-2,113.5,0.5,95,75.0
1073,F#4,113.5,0.5,95,75.0
1074,C4,113.5,0.5,95,75.0
1075,G3,113.5,0.5,95,75.0
1076,C3,113.5,0.5,95,75.0
1077,C2,114.0,0.5,95,75.0
1078,C2,114.0,0.5,95,75.0
1079,C4,114.0,2.0,95,75.0
1080,G3,114.0,2.0,95,75.0
1081,C3,114.0,2.0,95,75.0
1082,C2,114.5,0.5,95,75.0
1083,B-2,114.5,0.5,95,75.0
1084,C2,114.5,0.5,95,75.0
1085,E2,115.0,0.5,95,75.0
1086,E4,115.0,0.25,95,75.0
1087,G4,115.25,0.25,95,75.0
1088,B-2,115.5,0.25,95,75.0
1089,G4,115.5,0.25,95,75.0
1090,C2,115.75,0.5,95,75.0
1091,C2,115.75,0.25,95,75.0
1092,E4,115.75,0.25,95,75.0
1093,E4,116.0,0.5,95,75.0
1094,C2,116.25,0.25,95,75.0
1095,C2,116.25,0.25,95,75.0
1096,C2,116.5,0.75,95,75.0
1097,E4,116.5,1.0,95,75.0
1098,B-2,116.5,0.25,95,75.0
1099,C2,116.5,0.25,95,75.0
1100,E2,117.0,0.5,95,75.0
1101,B-4,117.0,0.5,95,75.0
1102,F4,117.0,0.5,95,75.0
1103,B-3,117.0,0.5,95,75.0
1104,F3,117.0,0.5,95,75.0
1105,B-2,117.0,0.5,95,75.0
1106,B-2,117.5,0.5,95,75.0
1107,G3,117.5,21/500,95,75.0
1108,D3,117.5,21/500,95,75.0
1109,A2,117.5,21/500,95,75.0
1110,G3,117.75,21/500,95,75.0
1111,D3,117.75,21/500,95,75.0
1112,A2,117.75,21/500,95,75.0
1113,B-1,118.0,0.5,95,75.0
1114,C2,118.0,0.5,95,75.0
1115,A4,118.0,0.75,95,75.0
1116,G3,118.0,21/500,95,75.0
1117,D3,118.0,21/500,95,75.0
1118,A2,118.0,21/500,95,75.0
1119,B-1,118.5,0.5,95,75.0
1120,G3,118.5,21/500,95,75.0
1121,D3,118.5,21/500,95,75.0
1122,A2,118.5,21/500,95,75.0
1123,B-2,118.5,0.5,95,75.0
1124,C2,118.5,0.5,95,75.0
1125,A4,118.75,0.25,95,75.0
1126,E2,119.0,0.5,95,75.0
1127,G4,119.0,0.75,95,75.0
1128,F4,119.0,0.5,95,75.0
1129,C4,119.0,0.5,95,75.0
1130,F3,119.0,0.5,95,75.0
1131,C3,119.0,0.5,95,75.0
1132,F2,119.0,0.5,95,75.0
1133,B-2,119.5,0.25,95,75.0
1134,D3,119.5,21/500,95,75.0
1135,A2,119.5,21/500,95,75.0
1136,E2,119.5,21/500,95,75.0
1137,F1,119.75,0.5,95,75.0
1138,C2,119.75,0.25,95,75.0
1139,C5,119.75,0.25,95,75.0
1140,D3,119.75,21/500,95,75.0
1141,A2,119.75,21/500,95,75.0
1142,E2,119.75,21/500,95,75.0
1143,G4,120.0,0.75,95,75.0
1144,E4,120.0,21/500,95,75.0
1145,B3,120.0,21/500,95,75.0
1146,D3,120.0,21/500,95,75.0
1147,A2,120.0,21/500,95,75.0
1148,E2,120.0,21/500,95,75.0
1149,F1,120.25,0.25,95,75.0
1150,C2,120.25,0.25,95,75.0
1151,F1,120.5,0.75,95,75.0
1152,E4,120.5,21/500,95,75.0
1153,B3,120.5,21/500,95,75.0
1154,D3,120.5,21/500,95,75.0
1155,A2,120.5,21/500,95,75.0
1156,E2,120.5,21/500,95,75.0
1157,B-2,120.5,0.25,95,75.0
1158,C2,120.5,0.25,95,75.0
1159,G4,120.75,0.25,95,75.0
1160,E2,121.0,21/500,95,75.0
1161,E2,121.0,0.5,95,75.0
1162,F4,121.0,0.5,95,75.0
1163,C4,121.0,0.25,95,75.0
1164,G3,121.0,0.25,95,75.0
1165,G3,121.25,21/500,95,75.0
1166,D3,121.25,21/500,95,75.0
1167,A2,121.25,21/500,95,75.0
1168,B-2,121.5,0.5,95,75.0
1169,G4,121.5,0.5,95,75.0
1170,E2,121.75,21/500,95,75.0
1171,C4,121.75,0.25,95,75.0
1172,G3,121.75,0.25,95,75.0
1173,C2,122.0,0.5,95,75.0
1174,C2,122.0,0.5,95,75.0
1175,G4,122.0,0.5,95,75.0
1176,G3,122.0,21/500,95,75.0
1177,D3,122.0,21/500,95,75.0
1178,A2,122.0,21/500,95,75.0
1179,E2,122.5,21/500,95,75.0
1180,C2,122.5,0.5,95,75.0
1181,G4,122.5,0.25,95,75.0
1182,C4,122.5,0.25,95,75.0
1183,G3,122.5,0.25,95,75.0
1184,B-2,122.5,0.5,95,75.0
1185,C2,122.5,0.5,95,75.0
1186,E2,122.75,21/500,95,75.0
1187,G4,122.75,0.25,95,75.0
1188,F4,122.75,0.25,95,75.0
1189,C4,122.75,0.25,95,75.0
1190,G3,122.75,0.25,95,75.0
1191,E2,123.0,21/500,95,75.0
1192,E2,123.0,0.5,95,75.0
1193,G4,123.0,0.25,95,75.0
1194,F4,123.0,0.25,95,75.0
1195,C4,123.0,0.25,95,75.0
1196,G3,123.0,0.25,95,75.0
1197,E2,123.25,21/500,95,75.0
1198,E4,123.25,0.25,95,75.0
1199,C4,123.25,0.25,95,75.0
1200,G3,123.25,0.25,95,75.0
1201,G4,123.375,0.25,95,75.0
1202,B-2,123.5,0.25,95,75.0
1203,C2,123.75,0.5,95,75.0
1204,C2,123.75,0.25,95,75.0
1205,G4,123.75,0.25,95,75.0
1206,G4,124.0,0.25,95,75.0
1207,G3,124.0,21/500,95,75.0
1208,D3,124.0,21/500,95,75.0
1209,A2,124.0,21/500,95,75.0
1210,C2,124.25,0.25,95,75.0
1211,C2,124.25,0.25,95,75.0
1212,C2,124.5,0.75,95,75.0
1213,G3,124.5,21/500,95,75.0
1214,D3,124.5,21/500,95,75.0
1215,A2,124.5,21/500,95,75.0
1216,B-2,124.5,0.25,95,75.0
1217,C2,124.5,0.25,95,75.0
1218,E2,125.0,0.25,95,75.0
1219,B-4,125.0,0.5,95,75.0
1220,F4,125.0,0.5,95,75.0
1221,B-3,125.0,0.5,95,75.0
1222,F3,125.0,0.5,95,75.0
1223,B-2,125.0,0.5,95,75.0
1224,E2,125.25,0.25,95,75.0
1225,F4,125.25,0.25,95,75.0
1226,E2,125.5,0.25,95,75.0
1227,F4,125.5,0.25,95,75.0
1228,G3,125.5,21/500,95,75.0
1229,D3,125.5,21/500,95,75.0
1230,A2,125.5,21/500,95,75.0
1231,E2,125.75,0.25,95,75.0
1232,C4,125.75,0.25,95,75.0
1233,G3,125.75,21/500,95,75.0
1234,D3,125.75,21/500,95,75.0
1235,A2,125.75,21/500,95,75.0
1236,B-3,126.0,0.75,95,75.0
1237,B-1,126.0,2.0,95,75.0
1238,C4,126.0,1.0,95,75.0
1239,C4,126.0,1.0,95,75.0
1240,F3,126.0,1.0,95,75.0
1241,B-2,126.0,1.0,95,75.0
1242,G3,126.0,21/500,95,75.0
1243,D3,126.0,21/500,95,75.0
1244,A2,126.0,21/500,95,75.0
1245,F#2,126.0,0.25,95,75.0
1246,C2,126.0,0.25,95,75.0
1247,F#2,126.5,0.25,95,75.0
1248,G3,126.5,21/500,95,75.0
1249,D3,126.5,21/500,95,75.0
1250,A2,126.5,21/500,95,75.0
1251,B-3,126.75,0.5,95,75.0
1252,B-2,127.0,1.0,95,75.0
1253,F4,127.0,0.5,95,75.0
1254,C4,127.0,0.5,95,75.0
1255,F3,127.0,0.5,95,75.0
1256,C3,127.0,0.5,95,75.0
1257,F2,127.0,0.5,95,75.0
1258,F#2,127.0,0.25,95,75.0
1259,E2,127.0,0.25,95,75.0
1260,F4,127.25,0.25,95,75.0
1261,C4,127.25,0.25,95,75.0
1262,D4,127.5,0.25,95,75.0
1263,F#2,127.5,0.25,95,75.0
1264,D4,127.5,0.25,95,75.0
1265,D3,127.5,21/500,95,75.0
1266,A2,127.5,21/500,95,75.0
1267,E2,127.5,21/500,95,75.0
1268,B-3,127.75,0.25,95,75.0
1269,C4,127.75,1.0,95,75.0
1270,D3,127.75,21/500,95,75.0
1271,A2,127.75,21/500,95,75.0
1272,E2,127.75,21/500,95,75.0
1273,A3,128.0,0.75,95,75.0
1274,A1,128.0,2.0,95,75.0
1275,E3,128.0,1.0,95,75.0
1276,A2,128.0,1.0,95,75.0
1277,E4,128.0,21/500,95,75.0
1278,B3,128.0,21/500,95,75.0
1279,D3,128.0,21/500,95,75.0
1280,A2,128.0,21/500,95,75.0
1281,E2,128.0,21/500,95,75.0
1282,F#2,128.0,0.25,95,75.0
1283,C2,128.0,0.25,95,75.0
1284,F#2,128.5,0.25,95,75.0
1285,E4,128.5,21/500,95,75.0
1286,B3,128.5,21/500,95,75.0
1287,D3,128.5,21/500,95,75.0
1288,A2,128.5,21/500,95,75.0
1289,E2,128.5,21/500,95,75.0
1290,A3,128.75,0.5,95,75.0
1291,A3,128.75,1.25,95,75.0
1292,A2,129.0,1.0,95,75.0
1293,E2,129.0,21/500,95,75.0
1294,C4,129.0,0.25,95,75.0
1295,G3,129.0,0.25,95,75.0
1296,F#2,129.0,0.25,95,75.0
1297,E2,129.0,0.25,95,75.0
1298,F4,129.25,0.25,95,75.0
1299,G3,129.25,21/500,95,75.0
1300,D3,129.25,21/500,95,75.0
1301,A2,129.25,21/500,95,75.0
1302,D4,129.5,0.25,95,75.0
1303,F#2,129.5,0.25,95,75.0
1304,B-3,129.75,0.25,95,75.0
1305,E2,129.75,21/500,95,75.0
1306,C4,129.75,0.25,95,75.0
1307,G3,129.75,0.25,95,75.0
1308,G#1,130.0,2.0,95,75.0
1309,C4,130.0,1.0,95,75.0
1310,G#2,130.0,1.0,95,75.0
1311,G#3,130.0,0.75,95,75.0
1312,E-3,130.0,0.75,95,75.0
1313,G3,130.0,21/500,95,75.0
1314,D3,130.0,21/500,95,75.0
1315,A2,130.0,21/500,95,75.0
1316,F#2,130.0,0.25,95,75.0
1317,C2,130.0,0.25,95,75.0
1318,E2,130.5,21/500,95,75.0
1319,F#2,130.5,0.25,95,75.0
1320,C4,130.5,0.25,95,75.0
1321,G3,130.5,0.25,95,75.0
1322,G#3,130.75,0.5,95,75.0
1323,E2,130.75,21/500,95,75.0
1324,F4,130.75,0.25,95,75.0
1325,C4,130.75,0.25,95,75.0
1326,G3,130.75,0.25,95,75.0
1327,G#2,131.0,1.0,95,75.0
1328,E2,131.0,21/500,95,75.0
1329,F4,131.0,0.25,95,75.0
1330,C4,131.0,0.25,95,75.0
1331,G3,131.0,0.25,95,75.0
1332,F#2,131.0,0.25,95,75.0
1333,E2,131.0,0.25,95,75.0
1334,F4,131.25,0.25,95,75.0
1335,E2,131.25,21/500,95,75.0
1336,E4,131.25,0.25,95,75.0
1337,C4,131.25,0.25,95,75.0
1338,G3,131.25,0.25,95,75.0
1339,D4,131.5,0.25,95,75.0
1340,F#2,131.5,0.25,95,75.0
1341,B-3,131.75,0.25,95,75.0
1342,B-3,131.75,0.25,95,75.0
1343,E-4,132.0,0.75,95,75.0
1344,E-2,132.0,2.0,95,75.0
1345,E-4,132.0,0.25,95,75.0
1346,F4,132.0,1.0,95,75.0
1347,B-3,132.0,1.0,95,75.0
1348,E-3,132.0,1.0,95,75.0
1349,C4,132.0,0.5,95,75.0
1350,B-3,132.0,0.5,95,75.0
1351,F3,132.0,0.5,95,75.0
1352,B-2,132.0,0.5,95,75.0
1353,F#2,132.0,0.25,95,75.0
1354,C2,132.0,0.25,95,75.0
1355,E-4,132.25,0.5,95,75.0
1356,F4,132.5,0.5,95,75.0
1357,F#2,132.5,0.25,95,75.0
1358,E-4,132.75,0.5,95,75.0
1359,E-4,132.75,0.5,95,75.0
1360,E-3,133.0,1.0,95,75.0
1361,D4,133.0,0.5,95,75.0
1362,F#2,133.0,0.25,95,75.0
1363,E2,133.0,0.25,95,75.0
1364,G4,133.25,0.25,95,75.0
1365,E-4,133.25,0.5,95,75.0
1366,E-4,133.5,0.25,95,75.0
1367,B-3,133.5,0.5,95,75.0
1368,F#2,133.5,0.25,95,75.0
1369,B-3,133.75,0.25,95,75.0
1370,F4,133.75,0.25,95,75.0
1371,B-3,134.0,0.75,95,75.0
1372,B-1,134.0,2.0,95,75.0
1373,F4,134.0,0.75,95,75.0
1374,C4,134.0,1.0,95,75.0
1375,F3,134.0,1.0,95,75.0
1376,B-2,134.0,1.0,95,75.0
1377,C4,134.0,0.5,95,75.0
1378,A3,134.0,0.5,95,75.0
1379,E3,134.0,0.5,95,75.0
1380,A2,134.0,0.5,95,75.0
1381,F#2,134.0,0.25,95,75.0
1382,C2,134.0,0.25,95,75.0
1383,F4,134.5,0.5,95,75.0
1384,F#2,134.5,0.25,95,75.0
1385,B-3,134.75,0.5,95,75.0
1386,B-2,135.0,1.0,95,75.0
1387,C4,135.0,0.5,95,75.0
1388,F#2,135.0,0.25,95,75.0
1389,E2,135.0,0.25,95,75.0
1390,B-4,135.0,1.0,95,75.0
1391,F4,135.0,1.0,95,75.0
1392,D4,135.0,1.0,95,75.0
1393,F4,135.25,0.25,95,75.0
1394,D4,135.5,0.25,95,75.0
1395,A3,135.5,0.5,95,75.0
1396,F#2,135.5,0.25,95,75.0
1397,B-3,135.75,0.25,95,75.0
1398,A3,136.0,0.75,95,75.0
1399,A1,136.0,2.0,95,75.0
1400,E3,136.0,1.0,95,75.0
1401,A2,136.0,1.0,95,75.0
1402,C4,136.0,0.5,95,75.0
1403,G#3,136.0,0.5,95,75.0
1404,E-3,136.0,0.5,95,75.0
1405,G#2,136.0,0.5,95,75.0
1406,F#2,136.0,0.25,95,75.0
1407,C2,136.0,0.25,95,75.0
1408,A4,136.0,2.0,95,75.0
1409,F4,136.0,2.0,95,75.0
1410,C4,136.0,2.0,95,75.0
1411,E-4,136.5,0.5,95,75.0
1412,F#2,136.5,0.25,95,75.0
1413,A3,136.75,0.5,95,75.0
1414,A2,137.0,1.0,95,75.0
1415,C4,137.0,0.5,95,75.0
1416,F#2,137.0,0.25,95,75.0
1417,E2,137.0,0.25,95,75.0
1418,F4,137.25,0.25,95,75.0
1419,E-4,137.25,0.5,95,75.0
1420,D4,137.5,0.25,95,75.0
1421,G#3,137.5,0.5,95,75.0
1422,F#2,137.5,0.25,95,75.0
1423,B-3,137.75,0.25,95,75.0
1424,G4,137.75,0.25,95,75.0
1425,G#1,138.0,2.0,95,75.0
1426,G4,138.0,0.25,95,75.0
1427,C4,138.0,1.0,95,75.0
1428,G#2,138.0,1.0,95,75.0
1429,G#3,138.0,0.75,95,75.0
1430,E-3,138.0,0.75,95,75.0
1431,F4,138.0,0.5,95,75.0
1432,E-4,138.0,0.5,95,75.0
1433,B-3,138.0,0.5,95,75.0
1434,E-3,138.0,0.5,95,75.0
1435,F#2,138.0,0.25,95,75.0
1436,C2,138.0,0.25,95,75.0
1437,G#4,138.0,2.0,95,75.0
1438,E-4,138.0,2.0,95,75.0
1439,C4,138.0,2.0,95,75.0
1440,F4,138.25,0.5,95,75.0
1441,G4,138.5,0.5,95,75.0
1442,F#2,138.5,0.25,95,75.0
1443,G#3,138.75,0.5,95,75.0
1444,C2,138.75,0.25,95,75.0
1445,B-3,138.75,0.75,95,75.0
1446,G#2,139.0,1.0,95,75.0
1447,E-4,139.0,0.5,95,75.0
1448,F#2,139.0,0.25,95,75.0
1449,E2,139.0,0.25,95,75.0
1450,F4,139.25,0.25,95,75.0
1451,D4,139.5,0.25,95,75.0
1452,B-3,139.5,0.5,95,75.0
1453,F#2,139.5,0.25,95,75.0
1454,B-3,139.75,0.25,95,75.0
1455,C2,139.75,0.25,95,75.0
1456,B-3,139.75,0.25,95,75.0
1457,E-4,140.0,0.75,95,75.0
1458,E-2,140.0,2.0,95,75.0
1459,E2,140.0,0.25,95,75.0
1460,E-4,140.0,0.25,95,75.0
1461,F4,140.0,1.0,95,75.0
1462,B-3,140.0,1.0,95,75.0
1463,E-3,140.0,1.0,95,75.0
1464,C4,140.0,0.5,95,75.0
1465,B-3,140.0,0.5,95,75.0
1466,F3,140.0,0.5,95,75.0
1467,B-2,140.0,0.5,95,75.0
1468,G4,140.0,2.0,95,75.0
1469,E-4,140.0,2.0,95,75.0
1470,B-3,140.0,2.0,95,75.0
1471,E2,140.25,0.25,95,75.0
1472,E-4,140.25,0.5,95,75.0
1473,F4,140.5,0.5,95,75.0
1474,A2,140.5,0.25,95,75.0
1475,E-4,140.75,0.5,95,75.0
1476,E-4,140.75,0.5,95,75.0
1477,E-3,141.0,1.0,95,75.0
1478,D4,141.0,0.5,95,75.0
1479,A2,141.0,0.25,95,75.0
1480,G4,141.25,0.25,95,75.0
1481,A2,141.25,0.25,95,75.0
1482,E-4,141.25,0.5,95,75.0
1483,E-4,141.5,0.25,95,75.0
1484,B-3,141.5,0.5,95,75.0
1485,G2,141.5,0.25,95,75.0
1486,B-4,141.5,0.25,95,75.0
1487,B-3,141.75,0.25,95,75.0
1488,F4,141.75,0.25,95,75.0
1489,B-4,141.75,0.25,95,75.0
1490,B-1,142.0,0.5,95,75.0
1491,A4,142.0,0.75,95,75.0
1492,C4,142.0,0.5,95,75.0
1493,A3,142.0,0.5,95,75.0
1494,E3,142.0,0.5,95,75.0
1495,A2,142.0,0.5,95,75.0
1496,C#3,142.0,0.5,95,75.0
1497,C2,142.0,0.5,95,75.0
1498,F4,142.5,0.5,95,75.0
1499,B-1,142.5,0.5,95,75.0
1500,A3,142.5,0.5,95,75.0
1501,C2,142.5,0.5,95,75.0
1502,B-4,142.75,0.75,95,75.0
1503,C4,143.0,0.5,95,75.0
1504,E2,143.0,0.5,95,75.0
1505,A3,143.5,0.5,95,75.0
1506,B-2,143.5,0.25,95,75.0
1507,G#4,143.5,0.5,95,75.0
1508,F1,143.75,0.5,95,75.0
1509,C2,143.75,0.25,95,75.0
1510,C4,144.0,0.5,95,75.0
1511,G#3,144.0,0.5,95,75.0
1512,E-3,144.0,0.5,95,75.0
1513,G#2,144.0,0.5,95,75.0
1514,F1,144.25,0.25,95,75.0
1515,C2,144.25,0.25,95,75.0
1516,E-4,144.5,0.5,95,75.0
1517,F1,144.5,0.75,95,75.0
1518,A4,144.5,0.25,95,75.0
1519,B-2,144.5,0.25,95,75.0
1520,C2,144.5,0.25,95,75.0
1521,C4,145.0,0.5,95,75.0
1522,E2,145.0,0.5,95,75.0
1523,A4,145.0,0.25,95,75.0
1524,G#3,145.5,0.5,95,75.0
1525,B-2,145.5,0.5,95,75.0
1526,F#4,145.5,0.5,95,75.0
1527,C2,146.0,0.5,95,75.0
1528,C2,146.0,0.5,95,75.0
1529,F4,146.0,0.5,95,75.0
1530,E-4,146.0,0.5,95,75.0
1531,B-3,146.0,0.5,95,75.0
1532,E-3,146.0,0.5,95,75.0
1533,G4,146.5,0.5,95,75.0
1534,C2,146.5,0.5,95,75.0
1535,B-2,146.5,0.5,95,75.0
1536,C2,146.5,0.5,95,75.0
1537,E-4,147.0,0.5,95,75.0
1538,E2,147.0,0.5,95,75.0
1539,E4,147.0,0.25,95,75.0
1540,G4,147.25,0.25,95,75.0
1541,B-3,147.5,0.5,95,75.0
1542,B-2,147.5,0.25,95,75.0
1543,G4,147.5,0.25,95,75.0
1544,C2,147.75,0.5,95,75.0
1545,C2,147.75,0.25,95,75.0
1546,E4,147.75,0.25,95,75.0
1547,E4,148.0,0.5,95,75.0
1548,C2,148.25,0.25,95,75.0
1549,C2,148.25,0.25,95,75.0
1550,C2,148.5,0.75,95,75.0
1551,E4,148.5,1.0,95,75.0
1552,B-2,148.5,0.25,95,75.0
1553,C2,148.5,0.25,95,75.0
1554,E2,149.0,0.5,95,75.0
1555,B-4,149.0,0.5,95,75.0
1556,F4,149.0,0.5,95,75.0
1557,B-3,149.0,0.5,95,75.0
1558,F3,149.0,0.5,95,75.0
1559,B-2,149.0,0.5,95,75.0
1560,B-2,149.5,0.5,95,75.0
1561,G3,149.5,21/500,95,75.0
1562,D3,149.5,21/500,95,75.0
1563,A2,149.5,21/500,95,75.0
1564,G3,149.75,21/500,95,75.0
1565,D3,149.75,21/500,95,75.0
1566,A2,149.75,21/500,95,75.0
1567,B-1,150.0,0.5,95,75.0
1568,C2,150.0,0.5,95,75.0
1569,A4,150.0,0.75,95,75.0
1570,G3,150.0,21/500,95,75.0
1571,D3,150.0,21/500,95,75.0
1572,A2,150.0,21/500,95,75.0
1573,B-1,150.5,0.5,95,75.0
1574,G3,150.5,21/500,95,75.0
1575,D3,150.5,21/500,95,75.0
1576,A2,150.5,21/500,95,75.0
1577,B-2,150.5,0.5,95,75.0
1578,C2,150.5,0.5,95,75.0
1579,A4,150.75,0.25,95,75.0
1580,E2,151.0,0.5,95,75.0
1581,G4,151.0,0.75,95,75.0
1582,F4,151.0,0.5,95,75.0
1583,C4,151.0,0.5,95,75.0
1584,F3,151.0,0.5,95,75.0
1585,C3,151.0,0.5,95,75.0
1586,F2,151.0,0.5,95,75.0
1587,B-2,151.5,0.25,95,75.0
1588,D3,151.5,21/500,95,75.0
1589,A2,151.5,21/500,95,75.0
1590,E2,151.5,21/500,95,75.0
1591,F1,151.75,0.5,95,75.0
1592,C2,151.75,0.25,95,75.0
1593,C5,151.75,0.25,95,75.0
1594,D3,151.75,21/500,95,75.0
1595,A2,151.75,21/500,95,75.0
1596,E2,151.75,21/500,95,75.0
1597,G4,152.0,0.75,95,75.0
1598,E4,152.0,21/500,95,75.0
1599,B3,152.0,21/500,95,75.0
1600,D3,152.0,21/500,95,75.0
1601,A2,152.0,21/500,95,75.0
1602,E2,152.0,21/500,95,75.0
1603,F1,152.25,0.25,95,75.0
1604,C2,152.25,0.25,95,75.0
1605,F1,152.5,0.75,95,75.0
1606,E4,152.5,21/500,95,75.0
1607,B3,152.5,21/500,95,75.0
1608,D3,152.5,21/500,95,75.0
1609,A2,152.5,21/500,95,75.0
1610,E2,152.5,21/500,95,75.0
1611,B-2,152.5,0.25,95,75.0
1612,C2,152.5,0.25,95,75.0
1613,G4,152.75,0.25,95,75.0
1614,E2,153.0,21/500,95,75.0
1615,E2,153.0,0.5,95,75.0
1616,F4,153.0,0.5,95,75.0
1617,C4,153.0,0.25,95,75.0
1618,G3,153.0,0.25,95,75.0
1619,G3,153.25,21/500,95,75.0
1620,D3,153.25,21/500,95,75.0
1621,A2,153.25,21/500,95,75.0
1622,B-2,153.5,0.5,95,75.0
1623,G4,153.5,0.5,95,75.0
1624,E2,153.75,21/500,95,75.0
1625,C4,153.75,0.25,95,75.0
1626,G3,153.75,0.25,95,75.0
1627,C2,154.0,0.5,95,75.0
1628,C2,154.0,0.5,95,75.0
1629,G4,154.0,0.5,95,75.0
1630,G3,154.0,21/500,95,75.0
1631,D3,154.0,21/500,95,75.0
1632,A2,154.0,21/500,95,75.0
1633,E2,154.5,21/500,95,75.0
1634,C2,154.5,0.5,95,75.0
1635,G4,154.5,0.25,95,75.0
1636,C4,154.5,0.25,95,75.0
1637,G3,154.5,0.25,95,75.0
1638,B-2,154.5,0.5,95,75.0
1639,C2,154.5,0.5,95,75.0
1640,E2,154.75,21/500,95,75.0
1641,G4,154.75,0.25,95,75.0
1642,F4,154.75,0.25,95,75.0
1643,C4,154.75,0.25,95,75.0
1644,G3,154.75,0.25,95,75.0
1645,E2,155.0,21/500,95,75.0
1646,E2,155.0,0.5,95,75.0
1647,G4,155.0,0.25,95,75.0
1648,F4,155.0,0.25,95,75.0
1649,C4,155.0,0.25,95,75.0
1650,G3,155.0,0.25,95,75.0
1651,E2,155.25,21/500,95,75.0
1652,E4,155.25,0.25,95,75.0
1653,C4,155.25,0.25,95,75.0
1654,G3,155.25,0.25,95,75.0
1655,G4,155.375,0.25,95,75.0
1656,B-2,155.5,0.25,95,75.0
1657,C2,155.75,0.5,95,75.0
1658,C2,155.75,0.25,95,75.0
1659,G4,155.75,0.25,95,75.0
1660,G4,156.0,0.25,95,75.0
1661,G3,156.0,21/500,95,75.0
1662,D3,156.0,21/500,95,75.0
1663,A2,156.0,21/500,95,75.0
1664,C2,156.25,0.25,95,75.0
1665,C2,156.25,0.25,95,75.0
1666,C2,156.5,0.75,95,75.0
1667,G3,156.5,21/500,95,75.0
1668,D3,156.5,21/500,95,75.0
1669,A2,156.5,21/500,95,75.0
1670,B-2,156.5,0.25,95,75.0
1671,C2,156.5,0.25,95,75.0
1672,E2,157.0,0.25,95,75.0
1673,B-4,157.0,0.5,95,75.0
1674,F4,157.0,0.5,95,75.0
1675,B-3,157.0,0.5,95,75.0
1676,F3,157.0,0.5,95,75.0
1677,B-2,157.0,0.5,95,75.0
1678,E2,157.25,0.25,95,75.0
1679,B-4,157.25,0.25,95,75.0
1680,E2,157.5,0.25,95,75.0
1681,A4,157.5,0.25,95,75.0
1682,G3,157.5,21/500,95,75.0
1683,D3,157.5,21/500,95,75.0
1684,A2,157.5,21/500,95,75.0
1685,E2,157.75,0.25,95,75.0
1686,D4,157.75,0.25,95,75.0
1687,G3,157.75,21/500,95,75.0
1688,D3,157.75,21/500,95,75.0
1689,A2,157.75,21/500,95,75.0
1690,B-3,158.0,0.75,95,75.0
1691,B-1,158.0,2.0,95,75.0
1692,D4,158.0,1.0,95,75.0
1693,C4,158.0,1.0,95,75.0
1694,F3,158.0,1.0,95,75.0
1695,B-2,158.0,1.0,95,75.0
1696,G3,158.0,21/500,95,75.0
1697,D3,158.0,21/500,95,75.0
1698,A2,158.0,21/500,95,75.0
1699,F#2,158.0,0.25,95,75.0
1700,C2,158.0,0.25,95,75.0
1701,F#2,158.5,0.25,95,75.0
1702,G3,158.5,21/500,95,75.0
1703,D3,158.5,21/500,95,75.0
1704,A2,158.5,21/500,95,75.0
1705,B-3,158.75,0.5,95,75.0
1706,B-2,159.0,1.0,95,75.0
1707,F4,159.0,0.5,95,75.0
1708,C4,159.0,0.5,95,75.0
1709,F3,159.0,0.5,95,75.0
1710,C3,159.0,0.5,95,75.0
1711,F2,159.0,0.5,95,75.0
1712,F#2,159.0,0.25,95,75.0
1713,E2,159.0,0.25,95,75.0
1714,F4,159.25,0.25,95,75.0
1715,D4,159.5,0.25,95,75.0
1716,F#2,159.5,0.25,95,75.0
1717,D3,159.5,21/500,95,75.0
1718,A2,159.5,21/500,95,75.0
1719,E2,159.5,21/500,95,75.0
1720,B-3,159.75,0.25,95,75.0
1721,D3,159.75,21/500,95,75.0
1722,A2,159.75,21/500,95,75.0
1723,E2,159.75,21/500,95,75.0
1724,A3,160.0,0.75,95,75.0
1725,A1,160.0,2.0,95,75.0
1726,E3,160.0,1.0,95,75.0
1727,A2,160.0,1.0,95,75.0
1728,E4,160.0,21/500,95,75.0
1729,B3,160.0,21/500,95,75.0
1730,D3,160.0,21/500,95,75.0
1731,A2,160.0,21/500,95,75.0
1732,E2,160.0,21/500,95,75.0
1733,F#2,160.0,0.25,95,75.0
1734,C2,160.0,0.25,95,75.0
1735,F#2,160.5,0.25,95,75.0
1736,E4,160.5,21/500,95,75.0
1737,B3,160.5,21/500,95,75.0
1738,D3,160.5,21/500,95,75.0
1739,A2,160.5,21/500,95,75.0
1740,E2,160.5,21/500,95,75.0
1741,A3,160.75,0.5,95,75.0
1742,A2,161.0,1.0,95,75.0
1743,E2,161.0,21/500,95,75.0
1744,C4,161.0,0.25,95,75.0
1745,G3,161.0,0.25,95,75.0
1746,F#2,161.0,0.25,95,75.0
1747,E2,161.0,0.25,95,75.0
1748,F4,161.25,0.25,95,75.0
1749,G3,161.25,21/500,95,75.0
1750,D3,161.25,21/500,95,75.0
1751,A2,161.25,21/500,95,75.0
1752,D4,161.5,0.25,95,75.0
1753,F#2,161.5,0.25,95,75.0
1754,B-3,161.75,0.25,95,75.0
1755,E2,161.75,21/500,95,75.0
1756,C4,161.75,0.25,95,75.0
1757,G3,161.75,0.25,95,75.0
1758,G#1,162.0,2.0,95,75.0
1759,C4,162.0,1.0,95,75.0
1760,G#2,162.0,1.0,95,75.0
1761,G#3,162.0,0.75,95,75.0
1762,E-3,162.0,0.75,95,75.0
1763,G3,162.0,21/500,95,75.0
1764,D3,162.0,21/500,95,75.0
1765,A2,162.0,21/500,95,75.0
1766,F#2,162.0,0.25,95,75.0
1767,C2,162.0,0.25,95,75.0
1768,E2,162.5,21/500,95,75.0
1769,F#2,162.5,0.25,95,75.0
1770,C4,162.5,0.25,95,75.0
1771,G3,162.5,0.25,95,75.0
1772,G#3,162.75,0.5,95,75.0
1773,E2,162.75,21/500,95,75.0
1774,F4,162.75,0.25,95,75.0
1775,C4,162.75,0.25,95,75.0
1776,G3,162.75,0.25,95,75.0
1777,G#2,163.0,1.0,95,75.0
1778,E2,163.0,21/500,95,75.0
1779,F4,163.0,0.25,95,75.0
1780,C4,163.0,0.25,95,75.0
1781,G3,163.0,0.25,95,75.0
1782,F#2,163.0,0.25,95,75.0
1783,E2,163.0,0.25,95,75.0
1784,F4,163.25,0.25,95,75.0
1785,E2,163.25,21/500,95,75.0
1786,E4,163.25,0.25,95,75.0
1787,C4,163.25,0.25,95,75.0
1788,G3,163.25,0.25,95,75.0
1789,D4,163.5,0.25,95,75.0
1790,F#2,163.5,0.25,95,75.0
1791,B-3,163.75,0.25,95,75.0
1792,E-4,164.0,0.75,95,75.0
1793,F4,164.0,0.5,95,75.0
1794,E-2,164.0,2.0,95,75.0
1795,F4,164.0,1.0,95,75.0
1796,B-3,164.0,1.0,95,75.0
1797,E-3,164.0,1.0,95,75.0
1798,F#2,164.0,0.25,95,75.0
1799,C2,164.0,0.25,95,75.0
1800,D4,164.5,0.5,95,75.0
1801,F#2,164.5,0.25,95,75.0
1802,E-4,164.75,0.5,95,75.0
1803,E-3,165.0,1.0,95,75.0
1804,B-3,165.0,0.5,95,75.0
1805,F#2,165.0,0.25,95,75.0
1806,E2,165.0,0.25,95,75.0
1807,G4,165.25,0.25,95,75.0
1808,E-4,165.5,0.25,95,75.0
1809,F4,165.5,0.125,95,75.0
1810,F#2,165.5,0.25,95,75.0
1811,G4,165.625,0.375,86,75.0
1812,B-3,165.75,0.25,95,75.0
1813,B-3,166.0,0.75,95,75.0
1814,F4,166.0,0.5,95,75.0
1815,B-1,166.0,2.0,95,75.0
1816,C4,166.0,1.0,95,75.0
1817,F3,166.0,1.0,95,75.0
1818,B-2,166.0,1.0,95,75.0
1819,F#2,166.0,0.25,95,75.0
1820,C2,166.0,0.25,95,75.0
1821,C4,166.5,0.5,95,75.0
1822,F#2,166.5,0.25,95,75.0
1823,B-3,166.75,0.5,95,75.0
1824,B-2,167.0,1.0,95,75.0
1825,A3,167.0,0.5,95,75.0
1826,F#2,167.0,0.25,95,75.0
1827,E2,167.0,0.25,95,75.0
1828,F4,167.25,0.25,95,75.0
1829,D4,167.5,0.25,95,75.0
1830,C4,167.5,0.5,95,75.0
1831,F#2,167.5,0.25,95,75.0
1832,B-3,167.75,0.25,95,75.0
1833,A3,168.0,0.75,95,75.0
1834,E-4,168.0,0.5,95,75.0
1835,A1,168.0,2.0,95,75.0
1836,E3,168.0,1.0,95,75.0
1837,A2,168.0,1.0,95,75.0
1838,F#2,168.0,0.25,95,75.0
1839,C2,168.0,0.25,95,75.0
1840,C4,168.5,0.5,95,75.0
1841,F#2,168.5,0.25,95,75.0
1842,A3,168.75,0.5,95,75.0
1843,A2,169.0,1.0,95,75.0
1844,G#3,169.0,0.5,95,75.0
1845,F#2,169.0,0.25,95,75.0
1846,E2,169.0,0.25,95,75.0
1847,F4,169.25,0.25,95,75.0
1848,D4,169.5,0.25,95,75.0
1849,D4,169.5,0.125,95,75.0
1850,F#2,169.5,0.25,95,75.0
1851,E-4,169.625,0.375,86,75.0
1852,B-3,169.75,0.25,95,75.0
1853,D4,170.0,0.5,95,75.0
1854,G#1,170.0,2.0,95,75.0
1855,C4,170.0,1.0,95,75.0
1856,G#2,170.0,1.0,95,75.0
1857,G#3,170.0,0.75,95,75.0
1858,E-3,170.0,0.75,95,75.0
1859,F#2,170.0,0.25,95,75.0
1860,C2,170.0,0.25,95,75.0
1861,B-3,170.5,0.5,95,75.0
1862,F#2,170.5,0.25,95,75.0
1863,G#3,170.75,0.5,95,75.0
1864,C2,170.75,0.25,95,75.0
1865,G#2,171.0,1.0,95,75.0
1866,G3,171.0,1.0,95,75.0
1867,F#2,171.0,0.25,95,75.0
1868,E2,171.0,0.25,95,75.0
1869,F4,171.25,0.25,95,75.0
1870,D4,171.5,0.25,95,75.0
1871,F#2,171.5,0.25,95,75.0
1872,B-3,171.75,0.25,95,75.0
1873,C2,171.75,0.25,95,75.0
1874,E-4,172.0,0.75,95,75.0
1875,F4,172.0,0.5,95,75.0
1876,E-2,172.0,2.0,95,75.0
1877,E2,172.0,0.25,95,75.0
1878,F4,172.0,1.0,95,75.0
1879,B-3,172.0,1.0,95,75.0
1880,E-3,172.0,1.0,95,75.0
1881,E2,172.25,0.25,95,75.0
1882,D4,172.5,0.5,95,75.0
1883,A2,172.5,0.25,95,75.0
1884,E-4,172.75,0.5,95,75.0
1885,E-3,173.0,1.0,95,75.0
1886,B-3,173.0,0.5,95,75.0
1887,A2,173.0,0.25,95,75.0
1888,G4,173.25,0.25,95,75.0
1889,A2,173.25,0.25,95,75.0
1890,E-4,173.5,0.25,95,75.0
1891,F4,173.5,0.125,95,75.0
1892,G2,173.5,0.25,95,75.0
1893,G4,173.625,0.375,86,75.0
1894,B-3,173.75,0.25,95,75.0
1895,F4,174.0,0.5,95,75.0
1896,B-1,174.0,0.5,95,75.0
1897,C#3,174.0,0.5,95,75.0
1898,C2,174.0,0.5,95,75.0
1899,C4,174.5,0.5,95,75.0
1900,B-1,174.5,0.5,95,75.0
1901,A3,174.5,0.5,95,75.0
1902,C2,174.5,0.5,95,75.0
1903,A3,175.0,0.5,95,75.0
1904,E2,175.0,0.5,95,75.0
1905,B-4,175.0,0.5,95,75.0
1906,F4,175.0,0.5,95,75.0
1907,B-3,175.0,0.5,95,75.0
1908,F3,175.0,0.5,95,75.0
1909,B-2,175.0,0.5,95,75.0
1910,G4,175.5,0.5,95,75.0
1911,B-2,175.5,0.25,95,75.0
1912,G3,175.5,21/500,95,75.0
1913,D3,175.5,21/500,95,75.0
1914,A2,175.5,21/500,95,75.0
1915,F1,175.75,0.5,95,75.0
1916,C2,175.75,0.25,95,75.0
1917,G3,175.75,21/500,95,75.0
1918,D3,175.75,21/500,95,75.0
1919,A2,175.75,21/500,95,75.0
1920,E-4,176.0,0.5,95,75.0
1921,G3,176.0,21/500,95,75.0
1922,D3,176.0,21/500,95,75.0
1923,A2,176.0,21/500,95,75.0
1924,F1,176.25,0.25,95,75.0
1925,C2,176.25,0.25,95,75.0
1926,C4,176.5,0.5,95,75.0
1927,F1,176.5,0.75,95,75.0
1928,G3,176.5,21/500,95,75.0
1929,D3,176.5,21/500,95,75.0
1930,A2,176.5,21/500,95,75.0
1931,B-2,176.5,0.25,95,75.0
1932,C2,176.5,0.25,95,75.0
1933,G#3,177.0,0.5,95,75.0
1934,E2,177.0,0.5,95,75.0
1935,F4,177.0,0.5,95,75.0
1936,C4,177.0,0.5,95,75.0
1937,F3,177.0,0.5,95,75.0
1938,C3,177.0,0.5,95,75.0
1939,F2,177.0,0.5,95,75.0
1940,C4,177.5,0.5,95,75.0
1941,B-2,177.5,0.5,95,75.0
1942,D3,177.5,21/500,95,75.0
1943,A2,177.5,21/500,95,75.0
1944,E2,177.5,21/500,95,75.0
1945,D3,177.75,21/500,95,75.0
1946,A2,177.75,21/500,95,75.0
1947,E2,177.75,21/500,95,75.0
1948,C4,178.0,0.125,95,75.0
1949,C2,178.0,0.5,95,75.0
1950,C2,178.0,0.5,95,75.0
1951,E4,178.0,21/500,95,75.0
1952,B3,178.0,21/500,95,75.0
1953,D3,178.0,21/500,95,75.0
1954,A2,178.0,21/500,95,75.0
1955,E2,178.0,21/500,95,75.0
1956,D4,178.125,0.375,86,75.0
1957,B-3,178.5,0.5,95,75.0
1958,C2,178.5,0.5,95,75.0
1959,E4,178.5,21/500,95,75.0
1960,B3,178.5,21/500,95,75.0
1961,D3,178.5,21/500,95,75.0
1962,A2,178.5,21/500,95,75.0
1963,E2,178.5,21/500,95,75.0
1964,B-2,178.5,0.5,95,75.0
1965,C2,178.5,0.5,95,75.0
1966,G3,179.0,0.25,95,75.0
1967,E2,179.0,21/500,95,75.0
1968,E2,179.0,0.5,95,75.0
1969,C4,179.0,0.25,95,75.0
1970,G3,179.0,0.25,95,75.0
1971,B-3,179.25,0.25,95,75.0
1972,G3,179.25,21/500,95,75.0
1973,D3,179.25,21/500,95,75.0
1974,A2,179.25,21/500,95,75.0
1975,B-4,179.5,0.25,95,75.0
1976,B-2,179.5,0.25,95,75.0
1977,B-4,179.75,0.25,95,75.0
1978,E2,179.75,21/500,95,75.0
1979,C2,179.75,0.5,95,75.0
1980,C2,179.75,0.25,95,75.0
1981,C4,179.75,0.25,95,75.0
1982,G3,179.75,0.25,95,75.0
1983,B-4,180.0,0.25,95,75.0
1984,G3,180.0,21/500,95,75.0
1985,D3,180.0,21/500,95,75.0
1986,A2,180.0,21/500,95,75.0
1987,B-4,180.25,0.25,95,75.0
1988,C2,180.25,0.25,95,75.0
1989,C2,180.25,0.25,95,75.0
1990,A4,180.5,0.5,86,75.0
1991,E2,180.5,21/500,95,75.0
1992,C2,180.5,0.75,95,75.0
1993,C4,180.5,0.25,95,75.0
1994,G3,180.5,0.25,95,75.0
1995,B-2,180.5,0.25,95,75.0
1996,C2,180.5,0.25,95,75.0
1997,E2,180.75,21/500,95,75.0
1998,F4,180.75,0.25,95,75.0
1999,C4,180.75,0.25,95,75.0
2000,G3,180.75,0.25,95,75.0
2001,G4,181.0,0.5,86,75.0
2002,E2,181.0,21/500,95,75.0
2003,E2,181.0,0.5,95,75.0
2004,F4,181.0,0.25,95,75.0
2005,C4,181.0,0.25,95,75.0
2006,G3,181.0,0.25,95,75.0
2007,E2,181.25,21/500,95,75.0
2008,E4,181.25,0.25,95,75.0
2009,C4,181.25,0.25,95,75.0
2010,G3,181.25,0.25,95,75.0
2011,F4,181.5,0.25,86,75.0
2012,B-2,181.5,0.5,95,75.0
2013,F4,181.75,0.5,95,75.0
2014,B-1,182.0,0.5,95,75.0
2015,C2,182.0,0.5,95,75.0
2016,G3,182.0,21/500,95,75.0
2017,D3,182.0,21/500,95,75.0
2018,A2,182.0,21/500,95,75.0
2019,A4,182.25,0.25,95,75.0
2020,G4,182.5,0.5,86,75.0
2021,B-1,182.5,0.5,95,75.0
2022,G3,182.5,21/500,95,75.0
2023,D3,182.5,21/500,95,75.0
2024,A2,182.5,21/500,95,75.0
2025,B-2,182.5,0.5,95,75.0
2026,C2,182.5,0.5,95,75.0
2027,F4,183.0,0.25,86,75.0
2028,E2,183.0,0.5,95,75.0
2029,B-4,183.0,0.5,95,75.0
2030,F4,183.0,0.5,95,75.0
2031,B-3,183.0,0.5,95,75.0
2032,F3,183.0,0.5,95,75.0
2033,B-2,183.0,0.5,95,75.0
2034,G4,183.25,0.25,86,75.0
2035,D4,183.5,0.25,95,75.0
2036,B-2,183.5,0.25,95,75.0
2037,G3,183.5,21/500,95,75.0
2038,D3,183.5,21/500,95,75.0
2039,A2,183.5,21/500,95,75.0
2040,D4,183.75,0.25,95,75.0
2041,F1,183.75,0.5,95,75.0
2042,C2,183.75,0.25,95,75.0
2043,G3,183.75,21/500,95,75.0
2044,D3,183.75,21/500,95,75.0
2045,A2,183.75,21/500,95,75.0
2046,D4,184.0,0.25,95,75.0
2047,G3,184.0,21/500,95,75.0
2048,D3,184.0,21/500,95,75.0
2049,A2,184.0,21/500,95,75.0
2050,D4,184.25,0.5,95,75.0
2051,F1,184.25,0.25,95,75.0
2052,C2,184.25,0.25,95,75.0
2053,F1,184.5,0.75,95,75.0
2054,G3,184.5,21/500,95,75.0
2055,D3,184.5,21/500,95,75.0
2056,A2,184.5,21/500,95,75.0
2057,B-2,184.5,0.25,95,75.0
2058,C2,184.5,0.25,95,75.0
2059,D4,184.75,0.5,95,75.0
2060,E2,185.0,0.5,95,75.0
2061,F4,185.0,0.5,95,75.0
2062,C4,185.0,0.5,95,75.0
2063,F3,185.0,0.5,95,75.0
2064,C3,185.0,0.5,95,75.0
2065,F2,185.0,0.5,95,75.0
2066,D4,185.25,0.5,95,75.0
2067,B-2,185.5,0.5,95,75.0
2068,D3,185.5,21/500,95,75.0
2069,A2,185.5,21/500,95,75.0
2070,E2,185.5,21/500,95,75.0
2071,D4,185.75,0.25,95,75.0
2072,D3,185.75,21/500,95,75.0
2073,A2,185.75,21/500,95,75.0
2074,E2,185.75,21/500,95,75.0
2075,E4,186.0,0.125,95,75.0
2076,C2,186.0,0.5,95,75.0
2077,C2,186.0,0.5,95,75.0
2078,E4,186.0,21/500,95,75.0
2079,B3,186.0,21/500,95,75.0
2080,D3,186.0,21/500,95,75.0
2081,A2,186.0,21/500,95,75.0
2082,E2,186.0,21/500,95,75.0
2083,D4,186.125,0.125,86,75.0
2084,C4,186.25,0.25,86,75.0
2085,D4,186.5,0.25,86,75.0
2086,C2,186.5,0.5,95,75.0
2087,E4,186.5,21/500,95,75.0
2088,B3,186.5,21/500,95,75.0
2089,D3,186.5,21/500,95,75.0
2090,A2,186.5,21/500,95,75.0
2091,E2,186.5,21/500,95,75.0
2092,B-2,186.5,0.5,95,75.0
2093,C2,186.5,0.5,95,75.0
2094,E4,186.75,0.25,86,75.0
2095,C4,187.0,0.25,86,75.0
2096,E2,187.0,21/500,95,75.0
2097,E2,187.0,0.5,95,75.0
2098,C4,187.0,0.25,95,75.0
2099,G3,187.0,0.25,95,75.0
2100,G4,187.25,0.25,86,75.0
2101,G3,187.25,21/500,95,75.0
2102,D3,187.25,21/500,95,75.0
2103,A2,187.25,21/500,95,75.0
2104,E5,187.5,0.25,95,75.0
2105,B-2,187.5,0.25,95,75.0
2106,C5,187.75,0.25,95,75.0
2107,E2,187.75,21/500,95,75.0
2108,C2,187.75,0.5,95,75.0
2109,C2,187.75,0.25,95,75.0
2110,C4,187.75,0.25,95,75.0
2111,G3,187.75,0.25,95,75.0
2112,C5,188.0,0.25,95,75.0
2113,G3,188.0,21/500,95,75.0
2114,D3,188.0,21/500,95,75.0
2115,A2,188.0,21/500,95,75.0
2116,B-4,188.25,0.25,95,75.0
2117,C2,188.25,0.25,95,75.0
2118,C2,188.25,0.25,95,75.0
2119,B-4,188.5,0.5,95,75.0
2120,E2,188.5,21/500,95,75.0
2121,C2,188.5,0.75,95,75.0
2122,C4,188.5,0.25,95,75.0
2123,G3,188.5,0.25,95,75.0
2124,B-2,188.5,0.25,95,75.0
2125,C2,188.5,0.25,95,75.0
2126,E2,188.75,21/500,95,75.0
2127,F4,188.75,0.25,95,75.0
2128,C4,188.75,0.25,95,75.0
2129,G3,188.75,0.25,95,75.0
2130,C5,189.0,0.5,95,75.0
2131,E2,189.0,21/500,95,75.0
2132,E2,189.0,0.25,95,75.0
2133,F4,189.0,0.25,95,75.0
2134,C4,189.0,0.25,95,75.0
2135,G3,189.0,0.25,95,75.0
2136,E2,189.25,21/500,95,75.0
2137,E2,189.25,0.25,95,75.0
2138,E4,189.25,0.25,95,75.0
2139,C4,189.25,0.25,95,75.0
2140,G3,189.25,0.25,95,75.0
2141,A4,189.5,0.25,86,75.0
2142,E2,189.5,0.25,95,75.0
2143,C5,189.75,0.25,86,75.0
2144,E2,189.75,0.25,95,75.0
2145,E-5,190.0,0.125,95,75.0
2146,B-1,190.0,0.5,95,75.0
2147,C#3,190.0,0.5,95,75.0
2148,C2,190.0,0.5,95,75.0
2149,D5,190.125,0.125,86,75.0
2150,C5,190.25,0.25,95,75.0
2151,D5,190.5,0.25,95,75.0
2152,B-1,190.5,0.5,95,75.0
2153,A3,190.5,0.5,95,75.0
2154,C2,190.5,0.5,95,75.0
2155,A4,190.75,0.25,95,75.0
2156,C5,191.0,0.5,95,75.0
2157,E2,191.0,0.5,95,75.0
2158,B-4,191.0,0.5,95,75.0
2159,F4,191.0,0.5,95,75.0
2160,B-3,191.0,0.5,95,75.0
2161,F3,191.0,0.5,95,75.0
2162,B-2,191.0,0.5,95,75.0
2163,C5,191.5,0.25,86,75.0
2164,B-2,191.5,0.25,95,75.0
2165,G3,191.5,21/500,95,75.0
2166,D3,191.5,21/500,95,75.0
2167,A2,191.5,21/500,95,75.0
2168,C5,191.75,0.25,86,75.0
2169,F1,191.75,0.5,95,75.0
2170,C2,191.75,0.25,95,75.0
2171,G3,191.75,21/500,95,75.0
2172,D3,191.75,21/500,95,75.0
2173,A2,191.75,21/500,95,75.0
2174,G5,192.0,1.0,95,75.0
2175,G3,192.0,21/500,95,75.0
2176,D3,192.0,21/500,95,75.0
2177,A2,192.0,21/500,95,75.0
2178,F1,192.25,0.25,95,75.0
2179,C2,192.25,0.25,95,75.0
2180,F1,192.5,0.75,95,75.0
2181,G3,192.5,21/500,95,75.0
2182,D3,192.5,21/500,95,75.0
2183,A2,192.5,21/500,95,75.0
2184,B-2,192.5,0.25,95,75.0
2185,C2,192.5,0.25,95,75.0
2186,F5,193.0,0.25,95,75.0
2187,E2,193.0,0.5,95,75.0
2188,F4,193.0,0.5,95,75.0
2189,C4,193.0,0.5,95,75.0
2190,F3,193.0,0.5,95,75.0
2191,C3,193.0,0.5,95,75.0
2192,F2,193.0,0.5,95,75.0
2193,G5,193.25,0.25,86,75.0
2194,D5,193.5,0.5,95,75.0
2195,B-2,193.5,0.5,95,75.0
2196,D3,193.5,21/500,95,75.0
2197,A2,193.5,21/500,95,75.0
2198,E2,193.5,21/500,95,75.0
2199,D3,193.75,21/500,95,75.0
2200,A2,193.75,21/500,95,75.0
2201,E2,193.75,21/500,95,75.0
2202,C5,194.0,1.0,95,75.0
2203,C2,194.0,0.5,95,75.0
2204,C2,194.0,0.5,95,75.0
2205,E4,194.0,21/500,95,75.0
2206,B3,194.0,21/500,95,75.0
2207,D3,194.0,21/500,95,75.0
2208,A2,194.0,21/500,95,75.0
2209,E2,194.0,21/500,95,75.0
2210,C2,194.5,0.5,95,75.0
2211,E4,194.5,21/500,95,75.0
2212,B3,194.5,21/500,95,75.0
2213,D3,194.5,21/500,95,75.0
2214,A2,194.5,21/500,95,75.0
2215,E2,194.5,21/500,95,75.0
2216,B-2,194.5,0.5,95,75.0
2217,C2,194.5,0.5,95,75.0
2218,B-4,195.0,0.5,86,75.0
2219,E2,195.0,21/500,95,75.0
2220,E2,195.0,0.5,95,75.0
2221,C4,195.0,0.25,95,75.0
2222,G3,195.0,0.25,95,75.0
2223,G3,195.25,21/500,95,75.0
2224,D3,195.25,21/500,95,75.0
2225,A2,195.25,21/500,95,75.0
2226,C5,195.5,0.25,95,75.0
2227,B-2,195.5,0.25,95,75.0
2228,B-4,195.75,0.25,86,75.0
2229,E2,195.75,21/500,95,75.0
2230,C2,195.75,0.5,95,75.0
2231,C2,195.75,0.25,95,75.0
2232,C4,195.75,0.25,95,75.0
2233,G3,195.75,0.25,95,75.0
2234,E-5,196.0,1.0,95,75.0
2235,G3,196.0,21/500,95,75.0
2236,D3,196.0,21/500,95,75.0
2237,A2,196.0,21/500,95,75.0
2238,C2,196.25,0.25,95,75.0
2239,C2,196.25,0.25,95,75.0
2240,E2,196.5,21/500,95,75.0
2241,C2,196.5,0.75,95,75.0
2242,C4,196.5,0.25,95,75.0
2243,G3,196.5,0.25,95,75.0
2244,B-2,196.5,0.25,95,75.0
2245,C2,196.5,0.25,95,75.0
2246,E2,196.75,21/500,95,75.0
2247,F4,196.75,0.25,95,75.0
2248,C4,196.75,0.25,95,75.0
2249,G3,196.75,0.25,95,75.0
2250,E-5,197.0,0.5,95,75.0
2251,E2,197.0,21/500,95,75.0
2252,E2,197.0,0.5,95,75.0
2253,F4,197.0,0.25,95,75.0
2254,C4,197.0,0.25,95,75.0
2255,G3,197.0,0.25,95,75.0
2256,E2,197.25,21/500,95,75.0
2257,E4,197.25,0.25,95,75.0
2258,C4,197.25,0.25,95,75.0
2259,G3,197.25,0.25,95,75.0
2260,C5,197.5,0.125,95,75.0
2261,B-2,197.5,0.5,95,75.0
2262,E-5,197.625,0.125,95,75.0
2263,D5,197.75,0.125,86,75.0
2264,B-4,197.875,0.125,95,75.0
2265,C5,198.0,0.25,86,75.0
2266,B-1,198.0,0.5,95,75.0
2267,C2,198.0,0.5,95,75.0
2268,G3,198.0,21/500,95,75.0
2269,D3,198.0,21/500,95,75.0
2270,A2,198.0,21/500,95,75.0
2271,C5,198.25,0.25,86,75.0
2272,C5,198.5,0.25,86,75.0
2273,B-1,198.5,0.5,95,75.0
2274,G3,198.5,21/500,95,75.0
2275,D3,198.5,21/500,95,75.0
2276,A2,198.5,21/500,95,75.0
2277,B-2,198.5,0.5,95,75.0
2278,C2,198.5,0.5,95,75.0
2279,D5,198.75,0.25,86,75.0
2280,D5,199.0,0.25,95,75.0
2281,E2,199.0,0.5,95,75.0
2282,B-4,199.0,0.5,95,75.0
2283,F4,199.0,0.5,95,75.0
2284,B-3,199.0,0.5,95,75.0
2285,F3,199.0,0.5,95,75.0
2286,B-2,199.0,0.5,95,75.0
2287,B-4,199.0,1.0,95,75.0
2288,F4,199.0,1.0,95,75.0
2289,D4,199.0,1.0,95,75.0
2290,C5,199.25,0.25,86,75.0
2291,D5,199.5,0.25,86,75.0
2292,B-2,199.5,0.25,95,75.0
2293,G3,199.5,21/500,95,75.0
2294,D3,199.5,21/500,95,75.0
2295,A2,199.5,21/500,95,75.0
2296,A4,199.75,0.25,86,75.0
2297,F1,199.75,0.5,95,75.0
2298,C2,199.75,0.25,95,75.0
2299,G3,199.75,21/500,95,75.0
2300,D3,199.75,21/500,95,75.0
2301,A2,199.75,21/500,95,75.0
2302,E-5,200.0,0.5,95,75.0
2303,G3,200.0,21/500,95,75.0
2304,D3,200.0,21/500,95,75.0
2305,A2,200.0,21/500,95,75.0
2306,A4,200.0,2.0,95,75.0
2307,F4,200.0,2.0,95,75.0
2308,C4,200.0,2.0,95,75.0
2309,F1,200.25,0.25,95,75.0
2310,C2,200.25,0.25,95,75.0
2311,G5,200.5,0.25,95,75.0
2312,F1,200.5,0.75,95,75.0
2313,G3,200.5,21/500,95,75.0
2314,D3,200.5,21/500,95,75.0
2315,A2,200.5,21/500,95,75.0
2316,B-2,200.5,0.25,95,75.0
2317,C2,200.5,0.25,95,75.0
2318,D5,200.75,0.5,86,75.0
2319,E2,201.0,0.5,95,75.0
2320,F4,201.0,0.5,95,75.0
2321,C4,201.0,0.5,95,75.0
2322,F3,201.0,0.5,95,75.0
2323,C3,201.0,0.5,95,75.0
2324,F2,201.0,0.5,95,75.0
2325,C5,201.25,0.25,95,75.0
2326,D5,201.5,0.25,86,75.0
2327,B-2,201.5,0.5,95,75.0
2328,D3,201.5,21/500,95,75.0
2329,A2,201.5,21/500,95,75.0
2330,E2,201.5,21/500,95,75.0
2331,A4,201.75,0.25,95,75.0
2332,D3,201.75,21/500,95,75.0
2333,A2,201.75,21/500,95,75.0
2334,E2,201.75,21/500,95,75.0
2335,C5,202.0,1.0,86,75.0
2336,C2,202.0,0.5,95,75.0
2337,C2,202.0,0.5,95,75.0
2338,E4,202.0,21/500,95,75.0
2339,B3,202.0,21/500,95,75.0
2340,D3,202.0,21/500,95,75.0
2341,A2,202.0,21/500,95,75.0
2342,E2,202.0,21/500,95,75.0
2343,G4,202.0,4.0,95,75.0
2344,E4,202.0,4.0,95,75.0
2345,C4,202.0,4.0,95,75.0
2346,C2,202.5,0.5,95,75.0
2347,E4,202.5,21/500,95,75.0
2348,B3,202.5,21/500,95,75.0
2349,D3,202.5,21/500,95,75.0
2350,A2,202.5,21/500,95,75.0
2351,E2,202.5,21/500,95,75.0
2352,B-2,202.5,0.5,95,75.0
2353,C2,202.5,0.5,95,75.0
2354,E5,203.0,0.25,95,75.0
2355,E2,203.0,21/500,95,75.0
2356,E2,203.0,0.5,95,75.0
2357,C4,203.0,0.25,95,75.0
2358,G3,203.0,0.25,95,75.0
2359,C5,203.25,0.25,95,75.0
2360,G3,203.25,21/500,95,75.0
2361,D3,203.25,21/500,95,75.0
2362,A2,203.25,21/500,95,75.0
2363,F5,203.5,0.5,95,75.0
2364,B-2,203.5,0.25,95,75.0
2365,E2,203.75,21/500,95,75.0
2366,C2,203.75,0.5,95,75.0
2367,C2,203.75,0.25,95,75.0
2368,C4,203.75,0.25,95,75.0
2369,G3,203.75,0.25,95,75.0
2370,B-5,204.0,0.25,95,75.0
2371,G3,204.0,21/500,95,75.0
2372,D3,204.0,21/500,95,75.0
2373,A2,204.0,21/500,95,75.0
2374,F5,204.25,0.5,86,75.0
2375,C2,204.25,0.25,95,75.0
2376,C2,204.25,0.25,95,75.0
2377,E2,204.5,21/500,95,75.0
2378,C2,204.5,0.75,95,75.0
2379,C4,204.5,0.25,95,75.0
2380,G3,204.5,0.25,95,75.0
2381,B-2,204.5,0.25,95,75.0
2382,C2,204.5,0.25,95,75.0
2383,E-5,204.75,0.25,95,75.0
2384,E2,204.75,21/500,95,75.0
2385,F4,204.75,0.25,95,75.0
2386,C4,204.75,0.25,95,75.0
2387,G3,204.75,0.25,95,75.0
2388,F5,205.0,0.25,86,75.0
2389,E2,205.0,21/500,95,75.0
2390,E2,205.0,0.25,95,75.0
2391,F4,205.0,0.25,95,75.0
2392,C4,205.0,0.25,95,75.0
2393,G3,205.0,0.25,95,75.0
2394,C5,205.25,0.25,95,75.0
2395,E2,205.25,21/500,95,75.0
2396,E2,205.25,0.25,95,75.0
2397,E4,205.25,0.25,95,75.0
2398,C4,205.25,0.25,95,75.0
2399,G3,205.25,0.25,95,75.0
2400,D5,205.5,0.5,95,75.0
2401,E2,205.5,0.25,95,75.0
2402,E2,205.75,0.25,95,75.0
2403,C5,206.0,0.25,95,75.0
2404,B-1,206.0,0.5,95,75.0
2405,B-4,206.0,0.75,95,75.0
2406,F4,206.0,0.75,95,75.0
2407,C4,206.0,0.75,95,75.0
2408,B-3,206.0,0.5,95,75.0
2409,F3,206.0,0.5,95,75.0
2410,B-2,206.0,0.5,95,75.0
2411,C#3,206.0,0.5,95,75.0
2412,C2,206.0,0.5,95,75.0
2413,B-4,206.25,0.25,86,75.0
2414,C5,206.5,0.5,86,75.0
2415,B-1,206.5,0.5,95,75.0
2416,B-3,206.5,0.5,95,75.0
2417,F3,206.5,0.5,95,75.0
2418,B-2,206.5,0.5,95,75.0
2419,B-2,206.5,0.5,95,75.0
2420,C2,206.5,0.5,95,75.0
2421,B-4,206.75,0.25,95,75.0
2422,F4,206.75,0.25,95,75.0
2423,C4,206.75,0.25,95,75.0
2424,C5,207.0,0.125,86,75.0
2425,E2,207.0,0.5,95,75.0
2426,B-4,207.0,0.25,95,75.0
2427,B-4,207.0,0.5,95,75.0
2428,F4,207.0,0.5,95,75.0
2429,C4,207.0,0.5,95,75.0
2430,B-4,207.0,0.5,95,75.0
2431,F4,207.0,0.5,95,75.0
2432,B-3,207.0,0.5,95,75.0
2433,F3,207.0,0.5,95,75.0
2434,B-2,207.0,0.5,95,75.0
2435,B-4,207.125,0.375,86,75.0
2436,C5,207.25,0.25,95,75.0
2437,C6,207.5,0.5,95,75.0
2438,B-2,207.5,0.25,95,75.0
2439,B-4,207.5,0.25,95,75.0
2440,B-4,207.5,0.5,95,75.0
2441,F4,207.5,0.5,95,75.0
2442,C4,207.5,0.5,95,75.0
2443,G3,207.5,21/500,95,75.0
2444,D3,207.5,21/500,95,75.0
2445,A2,207.5,21/500,95,75.0
2446,F1,207.75,0.5,95,75.0
2447,C2,207.75,0.25,95,75.0
2448,A4,207.75,0.5,95,75.0
2449,G3,207.75,21/500,95,75.0
2450,D3,207.75,21/500,95,75.0
2451,A2,207.75,21/500,95,75.0
2452,B-5,208.0,0.5,95,75.0
2453,F4,208.0,0.5,95,75.0
2454,C4,208.0,0.5,95,75.0
2455,F3,208.0,0.5,95,75.0
2456,C3,208.0,0.5,95,75.0
2457,F2,208.0,0.5,95,75.0
2458,F1,208.25,0.25,95,75.0
2459,C2,208.25,0.25,95,75.0
2460,C6,208.5,0.25,95,75.0
2461,F1,208.5,0.75,95,75.0
2462,F4,208.5,0.5,95,75.0
2463,C4,208.5,0.5,95,75.0
2464,F3,208.5,0.5,95,75.0
2465,C3,208.5,0.5,95,75.0
2466,F2,208.5,0.5,95,75.0
2467,B-2,208.5,0.25,95,75.0
2468,C2,208.5,0.25,95,75.0
2469,B-5,208.75,0.5,86,75.0
2470,E2,209.0,0.5,95,75.0
2471,F4,209.0,0.5,95,75.0
2472,C4,209.0,0.5,95,75.0
2473,F4,209.0,0.5,95,75.0
2474,C4,209.0,0.5,95,75.0
2475,F3,209.0,0.5,95,75.0
2476,C3,209.0,0.5,95,75.0
2477,F2,209.0,0.5,95,75.0
2478,C6,209.25,0.25,95,75.0
2479,F4,209.25,0.25,95,75.0
2480,B-5,209.5,0.25,86,75.0
2481,B-2,209.5,0.5,95,75.0
2482,G4,209.5,0.25,95,75.0
2483,F4,209.5,0.5,95,75.0
2484,C4,209.5,0.5,95,75.0
2485,F3,209.5,0.25,95,75.0
2486,C3,209.5,0.25,95,75.0
2487,F2,209.5,0.25,95,75.0
2488,C6,209.75,0.25,95,75.0
2489,G4,209.75,0.25,95,75.0
2490,F3,209.75,0.25,95,75.0
2491,C3,209.75,0.25,95,75.0
2492,F2,209.75,0.25,95,75.0
2493,C6,210.0,0.25,86,75.0
2494,C2,210.0,0.5,95,75.0
2495,C2,210.0,0.5,95,75.0
2496,G4,210.0,0.5,95,75.0
2497,G4,210.0,0.75,95,75.0
2498,E4,210.0,0.75,95,75.0
2499,C4,210.0,0.75,95,75.0
2500,E4,210.0,0.5,95,75.0
2501,C4,210.0,0.5,95,75.0
2502,G3,210.0,0.5,95,75.0
2503,B-5,210.25,0.25,86,75.0
2504,G5,210.5,0.25,86,75.0
2505,E2,210.5,21/500,95,75.0
2506,C2,210.5,0.5,95,75.0
2507,D4,210.5,0.5,95,75.0
2508,E4,210.5,0.5,95,75.0
2509,C4,210.5,0.5,95,75.0
2510,G3,210.5,0.5,95,75.0
2511,B-2,210.5,0.5,95,75.0
2512,C2,210.5,0.5,95,75.0
2513,F5,210.75,0.25,86,75.0
2514,G4,210.75,0.25,95,75.0
2515,E4,210.75,0.25,95,75.0
2516,C4,210.75,0.25,95,75.0
2517,E-5,211.0,0.25,95,75.0
2518,E2,211.0,21/500,95,75.0
2519,E2,211.0,0.5,95,75.0
2520,G4,211.0,0.75,95,75.0
2521,E4,211.0,0.75,95,75.0
2522,C4,211.0,0.75,95,75.0
2523,E4,211.0,0.25,95,75.0
2524,C4,211.0,0.25,95,75.0
2525,G3,211.0,0.25,95,75.0
2526,D5,211.25,0.25,86,75.0
2527,G3,211.25,21/500,95,75.0
2528,D3,211.25,21/500,95,75.0
2529,A2,211.25,21/500,95,75.0
2530,C5,211.5,0.25,86,75.0
2531,B-2,211.5,0.25,95,75.0
2532,C6,211.75,0.25,95,75.0
2533,E2,211.75,21/500,95,75.0
2534,C2,211.75,0.5,95,75.0
2535,C2,211.75,0.25,95,75.0
2536,G4,211.75,0.25,95,75.0
2537,E4,211.75,0.25,95,75.0
2538,C4,211.75,0.25,95,75.0
2539,E4,211.75,0.25,95,75.0
2540,C4,211.75,0.25,95,75.0
2541,G3,211.75,0.25,95,75.0
2542,C6,212.0,1.0,95,75.0
2543,G4,212.0,0.25,95,75.0
2544,E4,212.0,0.25,95,75.0
2545,C4,212.0,0.25,95,75.0
2546,G3,212.0,21/500,95,75.0
2547,D3,212.0,21/500,95,75.0
2548,A2,212.0,21/500,95,75.0
2549,C5,212.0,0.25,95,75.0
2550,E4,212.0,0.25,95,75.0
2551,C2,212.25,0.25,95,75.0
2552,C2,212.25,0.25,95,75.0
2553,G4,212.25,0.5,95,75.0
2554,F4,212.25,0.5,95,75.0
2555,C4,212.25,0.5,95,75.0
2556,A4,212.25,0.5,95,75.0
2557,D4,212.25,0.5,95,75.0
2558,E2,212.5,21/500,95,75.0
2559,C2,212.5,0.75,95,75.0
2560,E4,212.5,0.25,95,75.0
2561,C4,212.5,0.25,95,75.0
2562,G3,212.5,0.25,95,75.0
2563,B-2,212.5,0.25,95,75.0
2564,C2,212.5,0.25,95,75.0
2565,E2,212.75,21/500,95,75.0
2566,G4,212.75,0.5,95,75.0
2567,F4,212.75,0.5,95,75.0
2568,C4,212.75,0.5,95,75.0
2569,F4,212.75,0.25,95,75.0
2570,C4,212.75,0.25,95,75.0
2571,G3,212.75,0.25,95,75.0
2572,G4,212.75,0.5,95,75.0
2573,C4,212.75,0.5,95,75.0
2574,E2,213.0,21/500,95,75.0
2575,E2,213.0,0.5,95,75.0
2576,F4,213.0,0.25,95,75.0
2577,C4,213.0,0.25,95,75.0
2578,G3,213.0,0.25,95,75.0
2579,E2,213.25,21/500,95,75.0
2580,G4,213.25,0.75,95,75.0
2581,E4,213.25,0.75,95,75.0
2582,C4,213.25,0.75,95,75.0
2583,E4,213.25,0.25,95,75.0
2584,C4,213.25,0.25,95,75.0
2585,G3,213.25,0.25,95,75.0
2586,G4,213.25,0.5,95,75.0
2587,C4,213.25,0.5,95,75.0
2588,B-2,213.5,0.5,95,75.0
2589,A4,213.75,0.25,95,75.0
2590,B-1,214.0,0.5,95,75.0
2591,C2,214.0,0.5,95,75.0
2592,A4,214.0,0.5,95,75.0
2593,B-4,214.0,0.75,95,75.0
2594,F4,214.0,0.75,95,75.0
2595,C4,214.0,0.75,95,75.0
2596,B-3,214.0,0.5,95,75.0
2597,F3,214.0,0.5,95,75.0
2598,B-2,214.0,0.5,95,75.0
2599,B-1,214.5,0.5,95,75.0
2600,B-3,214.5,0.5,95,75.0
2601,F3,214.5,0.5,95,75.0
2602,B-2,214.5,0.5,95,75.0
2603,B-2,214.5,0.5,95,75.0
2604,C2,214.5,0.5,95,75.0
2605,B-4,214.75,0.25,95,75.0
2606,F4,214.75,0.25,95,75.0
2607,C4,214.75,0.25,95,75.0
2608,E2,215.0,0.5,95,75.0
2609,B-4,215.0,0.5,95,75.0
2610,F4,215.0,0.5,95,75.0
2611,C4,215.0,0.5,95,75.0
2612,B-4,215.0,0.5,95,75.0
2613,F4,215.0,0.5,95,75.0
2614,B-3,215.0,0.5,95,75.0
2615,F3,215.0,0.5,95,75.0
2616,B-2,215.0,0.5,95,75.0
2617,A4,215.25,0.25,95,75.0
2618,B-2,215.5,0.25,95,75.0
2619,B-4,215.5,0.25,95,75.0
2620,B-4,215.5,0.5,95,75.0
2621,F4,215.5,0.5,95,75.0
2622,C4,215.5,0.5,95,75.0
2623,G3,215.5,21/500,95,75.0
2624,D3,215.5,21/500,95,75.0
2625,A2,215.5,21/500,95,75.0
2626,F1,215.75,0.5,95,75.0
2627,C2,215.75,0.25,95,75.0
2628,A4,215.75,0.5,95,75.0
2629,G3,215.75,21/500,95,75.0
2630,D3,215.75,21/500,95,75.0
2631,A2,215.75,21/500,95,75.0
2632,F4,216.0,0.5,95,75.0
2633,C4,216.0,0.5,95,75.0
2634,F3,216.0,0.5,95,75.0
2635,C3,216.0,0.5,95,75.0
2636,F2,216.0,0.5,95,75.0
2637,F1,216.25,0.25,95,75.0
2638,C2,216.25,0.25,95,75.0
2639,F1,216.5,0.75,95,75.0
2640,F4,216.5,0.5,95,75.0
2641,C4,216.5,0.5,95,75.0
2642,F3,216.5,0.5,95,75.0
2643,C3,216.5,0.5,95,75.0
2644,F2,216.5,0.5,95,75.0
2645,B-2,216.5,0.25,95,75.0
2646,C2,216.5,0.25,95,75.0
2647,E2,217.0,0.5,95,75.0
2648,F4,217.0,0.5,95,75.0
2649,C4,217.0,0.5,95,75.0
2650,F4,217.0,0.5,95,75.0
2651,C4,217.0,0.5,95,75.0
2652,F3,217.0,0.5,95,75.0
2653,C3,217.0,0.5,95,75.0
2654,F2,217.0,0.5,95,75.0
2655,F4,217.25,0.25,95,75.0
2656,B-2,217.5,0.5,95,75.0
2657,A4,217.5,0.25,95,75.0
2658,F4,217.5,0.5,95,75.0
2659,C4,217.5,0.5,95,75.0
2660,F3,217.5,0.25,95,75.0
2661,C3,217.5,0.25,95,75.0
2662,F2,217.5,0.25,95,75.0
2663,G4,217.75,0.25,95,75.0
2664,F3,217.75,0.25,95,75.0
2665,C3,217.75,0.25,95,75.0
2666,F2,217.75,0.25,95,75.0
2667,C2,218.0,0.5,95,75.0
2668,C2,218.0,0.5,95,75.0
2669,G4,218.0,0.25,95,75.0
2670,G4,218.0,0.75,95,75.0
2671,E4,218.0,0.75,95,75.0
2672,C4,218.0,0.75,95,75.0
2673,E4,218.0,0.5,95,75.0
2674,C4,218.0,0.5,95,75.0
2675,G3,218.0,0.5,95,75.0
2676,D4,218.25,0.25,95,75.0
2677,E2,218.5,21/500,95,75.0
2678,C2,218.5,0.5,95,75.0
2679,E4,218.5,0.5,95,75.0
2680,E4,218.5,0.5,95,75.0
2681,C4,218.5,0.5,95,75.0
2682,G3,218.5,0.5,95,75.0
2683,B-2,218.5,0.5,95,75.0
2684,C2,218.5,0.5,95,75.0
2685,G4,218.75,0.25,95,75.0
2686,E4,218.75,0.25,95,75.0
2687,C4,218.75,0.25,95,75.0
2688,E2,219.0,21/500,95,75.0
2689,E2,219.0,0.5,95,75.0
2690,G4,219.0,0.75,95,75.0
2691,E4,219.0,0.75,95,75.0
2692,C4,219.0,0.75,95,75.0
2693,E4,219.0,0.25,95,75.0
2694,C4,219.0,0.25,95,75.0
2695,G3,219.0,0.25,95,75.0
2696,G3,219.25,21/500,95,75.0
2697,D3,219.25,21/500,95,75.0
2698,A2,219.25,21/500,95,75.0
2699,B-2,219.5,0.25,95,75.0
2700,E2,219.75,21/500,95,75.0
2701,C2,219.75,0.5,95,75.0
2702,C2,219.75,0.25,95,75.0
2703,G4,219.75,0.25,95,75.0
2704,E4,219.75,0.25,95,75.0
2705,C4,219.75,0.25,95,75.0
2706,E4,219.75,0.25,95,75.0
2707,C4,219.75,0.25,95,75.0
2708,G3,219.75,0.25,95,75.0
2709,E2,220.0,0.25,95,75.0
2710,G4,220.0,0.25,95,75.0
2711,E4,220.0,0.25,95,75.0
2712,C4,220.0,0.25,95,75.0
2713,G3,220.0,21/500,95,75.0
2714,D3,220.0,21/500,95,75.0
2715,A2,220.0,21/500,95,75.0
2716,C5,220.0,0.25,95,75.0
2717,E4,220.0,0.25,95,75.0
2718,C2,220.25,0.25,95,75.0
2719,E2,220.25,0.25,95,75.0
2720,G4,220.25,0.5,95,75.0
2721,F4,220.25,0.5,95,75.0
2722,C4,220.25,0.5,95,75.0
2723,A4,220.25,0.5,95,75.0
2724,D4,220.25,0.5,95,75.0
2725,E2,220.5,21/500,95,75.0
2726,C2,220.5,0.75,95,75.0
2727,E2,220.5,0.25,95,75.0
2728,E4,220.5,0.25,95,75.0
2729,C4,220.5,0.25,95,75.0
2730,G3,220.5,0.25,95,75.0
2731,E2,220.75,21/500,95,75.0
2732,E2,220.75,0.25,95,75.0
2733,G4,220.75,0.5,95,75.0
2734,F4,220.75,0.5,95,75.0
2735,C4,220.75,0.5,95,75.0
2736,F4,220.75,0.25,95,75.0
2737,C4,220.75,0.25,95,75.0
2738,G3,220.75,0.25,95,75.0
2739,G4,220.75,0.5,95,75.0
2740,C4,220.75,0.5,95,75.0
2741,E2,221.0,21/500,95,75.0
2742,E2,221.0,0.25,95,75.0
2743,F4,221.0,0.25,95,75.0
2744,C4,221.0,0.25,95,75.0
2745,G3,221.0,0.25,95,75.0
2746,E2,221.25,21/500,95,75.0
2747,E2,221.25,0.25,95,75.0
2748,G4,221.25,0.75,95,75.0
2749,E4,221.25,0.75,95,75.0
2750,C4,221.25,0.75,95,75.0
2751,E4,221.25,0.25,95,75.0
2752,C4,221.25,0.25,95,75.0
2753,G3,221.25,0.25,95,75.0
2754,G4,221.25,0.5,95,75.0
2755,C4,221.25,0.5,95,75.0
2756,E2,221.5,0.25,95,75.0
2757,E2,221.75,0.25,95,75.0
2758,B-4,221.75,0.25,95,75.0
2759,B-1,222.0,0.5,95,75.0
2760,B-4,222.0,0.25,95,75.0
2761,B-4,222.0,0.75,95,75.0
2762,F4,222.0,0.75,95,75.0
2763,C4,222.0,0.75,95,75.0
2764,B-3,222.0,0.5,95,75.0
2765,F3,222.0,0.5,95,75.0
2766,B-2,222.0,0.5,95,75.0
2767,C#3,222.0,0.5,95,75.0
2768,C2,222.0,0.5,95,75.0
2769,G4,222.25,0.25,95,75.0
2770,B-1,222.5,0.5,95,75.0
2771,A4,222.5,0.25,95,75.0
2772,B-3,222.5,0.5,95,75.0
2773,F3,222.5,0.5,95,75.0
2774,B-2,222.5,0.5,95,75.0
2775,B-2,222.5,0.5,95,75.0
2776,C2,222.5,0.5,95,75.0
2777,G4,222.75,0.25,95,75.0
2778,B-4,222.75,0.25,95,75.0
2779,F4,222.75,0.25,95,75.0
2780,C4,222.75,0.25,95,75.0
2781,E2,223.0,0.5,95,75.0
2782,G4,223.0,0.25,95,75.0
2783,B-4,223.0,0.5,95,75.0
2784,F4,223.0,0.5,95,75.0
2785,C4,223.0,0.5,95,75.0
2786,B-4,223.0,0.5,95,75.0
2787,F4,223.0,0.5,95,75.0
2788,B-3,223.0,0.5,95,75.0
2789,F3,223.0,0.5,95,75.0
2790,B-2,223.0,0.5,95,75.0
2791,B-4,223.0,1.0,95,75.0
2792,F4,223.0,1.0,95,75.0
2793,D4,223.0,1.0,95,75.0
2794,F4,223.25,0.25,95,75.0
2795,B-2,223.5,0.25,95,75.0
2796,B-4,223.5,0.5,95,75.0
2797,F4,223.5,0.5,95,75.0
2798,C4,223.5,0.5,95,75.0
2799,G3,223.5,21/500,95,75.0
2800,D3,223.5,21/500,95,75.0
2801,A2,223.5,21/500,95,75.0
2802,F1,223.75,0.5,95,75.0
2803,C2,223.75,0.25,95,75.0
2804,A4,223.75,0.5,95,75.0
2805,G3,223.75,21/500,95,75.0
2806,D3,223.75,21/500,95,75.0
2807,A2,223.75,21/500,95,75.0
2808,F4,224.0,0.5,95,75.0
2809,C4,224.0,0.5,95,75.0
2810,F3,224.0,0.5,95,75.0
2811,C3,224.0,0.5,95,75.0
2812,F2,224.0,0.5,95,75.0
2813,A4,224.0,2.0,95,75.0
2814,F4,224.0,2.0,95,75.0
2815,C4,224.0,2.0,95,75.0
2816,F1,224.25,0.25,95,75.0
2817,C2,224.25,0.25,95,75.0
2818,G4,224.25,0.25,95,75.0
2819,F1,224.5,0.75,95,75.0
2820,G4,224.5,0.25,95,75.0
2821,F4,224.5,0.5,95,75.0
2822,C4,224.5,0.5,95,75.0
2823,F3,224.5,0.5,95,75.0
2824,C3,224.5,0.5,95,75.0
2825,F2,224.5,0.5,95,75.0
2826,B-2,224.5,0.25,95,75.0
2827,C2,224.5,0.25,95,75.0
2828,F4,224.75,0.25,95,75.0
2829,E2,225.0,0.5,95,75.0
2830,F4,225.0,0.5,95,75.0
2831,F4,225.0,0.5,95,75.0
2832,C4,225.0,0.5,95,75.0
2833,F4,225.0,0.5,95,75.0
2834,C4,225.0,0.5,95,75.0
2835,F3,225.0,0.5,95,75.0
2836,C3,225.0,0.5,95,75.0
2837,F2,225.0,0.5,95,75.0
2838,B-2,225.5,0.5,95,75.0
2839,F4,225.5,0.5,95,75.0
2840,C4,225.5,0.5,95,75.0
2841,F3,225.5,0.25,95,75.0
2842,C3,225.5,0.25,95,75.0
2843,F2,225.5,0.25,95,75.0
2844,F3,225.75,0.25,95,75.0
2845,C3,225.75,0.25,95,75.0
2846,F2,225.75,0.25,95,75.0
2847,C2,226.0,0.5,95,75.0
2848,C2,226.0,0.5,95,75.0
2849,G4,226.0,0.75,95,75.0
2850,E4,226.0,0.75,95,75.0
2851,C4,226.0,0.75,95,75.0
2852,E4,226.0,0.5,95,75.0
2853,C4,226.0,0.5,95,75.0
2854,G3,226.0,0.5,95,75.0
2855,G4,226.0,4.0,95,75.0
2856,E4,226.0,4.0,95,75.0
2857,C4,226.0,4.0,95,75.0
2858,E2,226.5,21/500,95,75.0
2859,C2,226.5,0.5,95,75.0
2860,F4,226.5,0.25,95,75.0
2861,E4,226.5,0.5,95,75.0
2862,C4,226.5,0.5,95,75.0
2863,G3,226.5,0.5,95,75.0
2864,B-2,226.5,0.5,95,75.0
2865,C2,226.5,0.5,95,75.0
2866,F4,226.75,0.25,95,75.0
2867,G4,226.75,0.25,95,75.0
2868,E4,226.75,0.25,95,75.0
2869,C4,226.75,0.25,95,75.0
2870,E2,227.0,21/500,95,75.0
2871,E2,227.0,0.5,95,75.0
2872,F4,227.0,0.25,95,75.0
2873,G4,227.0,0.75,95,75.0
2874,E4,227.0,0.75,95,75.0
2875,C4,227.0,0.75,95,75.0
2876,E4,227.0,0.25,95,75.0
2877,C4,227.0,0.25,95,75.0
2878,G3,227.0,0.25,95,75.0
2879,G4,227.25,0.25,95,75.0
2880,G3,227.25,21/500,95,75.0
2881,D3,227.25,21/500,95,75.0
2882,A2,227.25,21/500,95,75.0
2883,B-2,227.5,0.25,95,75.0
2884,A4,227.5,0.25,95,75.0
2885,E2,227.75,21/500,95,75.0
2886,C2,227.75,0.5,95,75.0
2887,C2,227.75,0.25,95,75.0
2888,G4,227.75,1.0,95,75.0
2889,G4,227.75,0.25,95,75.0
2890,E4,227.75,0.25,95,75.0
2891,C4,227.75,0.25,95,75.0
2892,E4,227.75,0.25,95,75.0
2893,C4,227.75,0.25,95,75.0
2894,G3,227.75,0.25,95,75.0
2895,G4,228.0,0.25,95,75.0
2896,E4,228.0,0.25,95,75.0
2897,C4,228.0,0.25,95,75.0
2898,G3,228.0,21/500,95,75.0
2899,D3,228.0,21/500,95,75.0
2900,A2,228.0,21/500,95,75.0
2901,C5,228.0,0.25,95,75.0
2902,E4,228.0,0.25,95,75.0
2903,C2,228.25,0.25,95,75.0
2904,C2,228.25,0.25,95,75.0
2905,G4,228.25,0.5,95,75.0
2906,F4,228.25,0.5,95,75.0
2907,C4,228.25,0.5,95,75.0
2908,A4,228.25,0.5,95,75.0
2909,D4,228.25,0.5,95,75.0
2910,E2,228.5,21/500,95,75.0
2911,C2,228.5,0.75,95,75.0
2912,E4,228.5,0.25,95,75.0
2913,C4,228.5,0.25,95,75.0
2914,G3,228.5,0.25,95,75.0
2915,B-2,228.5,0.25,95,75.0
2916,C2,228.5,0.25,95,75.0
2917,E2,228.75,21/500,95,75.0
2918,E2,228.75,0.25,95,75.0
2919,G4,228.75,0.5,95,75.0
2920,F4,228.75,0.5,95,75.0
2921,C4,228.75,0.5,95,75.0
2922,F4,228.75,0.25,95,75.0
2923,C4,228.75,0.25,95,75.0
2924,G3,228.75,0.25,95,75.0
2925,G4,228.75,0.5,95,75.0
2926,C4,228.75,0.5,95,75.0
2927,E2,229.0,21/500,95,75.0
2928,E2,229.0,0.25,95,75.0
2929,F4,229.0,0.25,95,75.0
2930,C4,229.0,0.25,95,75.0
2931,G3,229.0,0.25,95,75.0
2932,E2,229.25,21/500,95,75.0
2933,E2,229.25,0.25,95,75.0
2934,B-4,229.25,0.5,95,75.0
2935,G4,229.25,0.75,95,75.0
2936,E4,229.25,0.75,95,75.0
2937,C4,229.25,0.75,95,75.0
2938,E4,229.25,0.25,95,75.0
2939,C4,229.25,0.25,95,75.0
2940,G3,229.25,0.25,95,75.0
2941,G4,229.25,0.5,95,75.0
2942,C4,229.25,0.5,95,75.0
2943,E2,229.5,0.25,95,75.0
2944,E2,229.75,0.25,95,75.0
2945,A4,229.75,0.25,95,75.0
2946,B-1,230.0,0.5,95,75.0
2947,A4,230.0,0.5,95,75.0
2948,B-4,230.0,0.75,95,75.0
2949,F4,230.0,0.75,95,75.0
2950,C4,230.0,0.75,95,75.0
2951,B-3,230.0,0.5,95,75.0
2952,F3,230.0,0.5,95,75.0
2953,B-2,230.0,0.5,95,75.0
2954,C#3,230.0,0.5,95,75.0
2955,C2,230.0,0.5,95,75.0
2956,B-1,230.5,0.5,95,75.0
2957,G4,230.5,0.5,95,75.0
2958,B-3,230.5,0.5,95,75.0
2959,F3,230.5,0.5,95,75.0
2960,B-2,230.5,0.5,95,75.0
2961,B-2,230.5,0.5,95,75.0
2962,C2,230.5,0.5,95,75.0
2963,B-4,230.75,0.25,95,75.0
2964,F4,230.75,0.25,95,75.0
2965,C4,230.75,0.25,95,75.0
2966,E2,231.0,0.5,95,75.0
2967,F4,231.0,0.5,95,75.0
2968,B-4,231.0,0.5,95,75.0
2969,F4,231.0,0.5,95,75.0
2970,C4,231.0,0.5,95,75.0
2971,B-4,231.0,0.5,95,75.0
2972,F4,231.0,0.5,95,75.0
2973,B-3,231.0,0.5,95,75.0
2974,F3,231.0,0.5,95,75.0
2975,B-2,231.0,0.5,95,75.0
2976,B-4,231.0,1.0,95,75.0
2977,F4,231.0,1.0,95,75.0
2978,D4,231.0,1.0,95,75.0
2979,B-2,231.5,0.25,95,75.0
2980,B-4,231.5,0.5,95,75.0
2981,F4,231.5,0.5,95,75.0
2982,C4,231.5,0.5,95,75.0
2983,G3,231.5,21/500,95,75.0
2984,D3,231.5,21/500,95,75.0
2985,A2,231.5,21/500,95,75.0
2986,F1,231.75,0.5,95,75.0
2987,C2,231.75,0.25,95,75.0
2988,G4,231.75,0.75,95,75.0
2989,G3,231.75,21/500,95,75.0
2990,D3,231.75,21/500,95,75.0
2991,A2,231.75,21/500,95,75.0
2992,F4,232.0,0.5,95,75.0
2993,C4,232.0,0.5,95,75.0
2994,F3,232.0,0.5,95,75.0
2995,C3,232.0,0.5,95,75.0
2996,F2,232.0,0.5,95,75.0
2997,A4,232.0,2.0,95,75.0
2998,F4,232.0,2.0,95,75.0
2999,C4,232.0,2.0,95,75.0
3000,F1,232.25,0.25,95,75.0
3001,C2,232.25,0.25,95,75.0
3002,F1,232.5,0.75,95,75.0
3003,F4,232.5,0.5,95,75.0
3004,F4,232.5,0.5,95,75.0
3005,C4,232.5,0.5,95,75.0
3006,F3,232.5,0.5,95,75.0
3007,C3,232.5,0.5,95,75.0
3008,F2,232.5,0.5,95,75.0
3009,B-2,232.5,0.25,95,75.0
3010,C2,232.5,0.25,95,75.0
3011,E2,233.0,0.5,95,75.0
3012,F4,233.0,0.5,95,75.0
3013,F4,233.0,0.5,95,75.0
3014,C4,233.0,0.5,95,75.0
3015,F4,233.0,0.5,95,75.0
3016,C4,233.0,0.5,95,75.0
3017,F3,233.0,0.5,95,75.0
3018,C3,233.0,0.5,95,75.0
3019,F2,233.0,0.5,95,75.0
3020,B-2,233.5,0.5,95,75.0
3021,F4,233.5,0.5,95,75.0
3022,C4,233.5,0.5,95,75.0
3023,F3,233.5,0.25,95,75.0
3024,C3,233.5,0.25,95,75.0
3025,F2,233.5,0.25,95,75.0
3026,F3,233.75,0.25,95,75.0
3027,C3,233.75,0.25,95,75.0
3028,F2,233.75,0.25,95,75.0
3029,C2,234.0,0.5,95,75.0
3030,C2,234.0,0.5,95,75.0
3031,G4,234.0,0.75,95,75.0
3032,E4,234.0,0.75,95,75.0
3033,C4,234.0,0.75,95,75.0
3034,E4,234.0,0.5,95,75.0
3035,C4,234.0,0.5,95,75.0
3036,G3,234.0,0.5,95,75.0
3037,G4,234.0,4.0,95,75.0
3038,E4,234.0,4.0,95,75.0
3039,C4,234.0,4.0,95,75.0
3040,E2,234.5,21/500,95,75.0
3041,C2,234.5,0.5,95,75.0
3042,F4,234.5,0.25,95,75.0
3043,E4,234.5,0.5,95,75.0
3044,C4,234.5,0.5,95,75.0
3045,G3,234.5,0.5,95,75.0
3046,B-2,234.5,0.5,95,75.0
3047,C2,234.5,0.5,95,75.0
3048,F4,234.75,0.25,95,75.0
3049,G4,234.75,0.25,95,75.0
3050,E4,234.75,0.25,95,75.0
3051,C4,234.75,0.25,95,75.0
3052,E2,235.0,21/500,95,75.0
3053,E2,235.0,0.5,95,75.0
3054,F4,235.0,0.25,95,75.0
3055,G4,235.0,0.75,95,75.0
3056,E4,235.0,0.75,95,75.0
3057,C4,235.0,0.75,95,75.0
3058,E4,235.0,0.25,95,75.0
3059,C4,235.0,0.25,95,75.0
3060,G3,235.0,0.25,95,75.0
3061,G4,235.25,0.25,95,75.0
3062,G3,235.25,21/500,95,75.0
3063,D3,235.25,21/500,95,75.0
3064,A2,235.25,21/500,95,75.0
3065,B-2,235.5,0.25,95,75.0
3066,A4,235.5,0.25,95,75.0
3067,E2,235.75,21/500,95,75.0
3068,C2,235.75,0.5,95,75.0
3069,C2,235.75,0.25,95,75.0
3070,G4,235.75,1.0,95,75.0
3071,G4,235.75,0.25,95,75.0
3072,E4,235.75,0.25,95,75.0
3073,C4,235.75,0.25,95,75.0
3074,E4,235.75,0.25,95,75.0
3075,C4,235.75,0.25,95,75.0
3076,G3,235.75,0.25,95,75.0
3077,G4,236.0,0.25,95,75.0
3078,E4,236.0,0.25,95,75.0
3079,C4,236.0,0.25,95,75.0
3080,G3,236.0,21/500,95,75.0
3081,D3,236.0,21/500,95,75.0
3082,A2,236.0,21/500,95,75.0
3083,C5,236.0,0.25,95,75.0
3084,E4,236.0,0.25,95,75.0
3085,C2,236.25,0.25,95,75.0
3086,C2,236.25,0.25,95,75.0
3087,G4,236.25,0.5,95,75.0
3088,F4,236.25,0.5,95,75.0
3089,C4,236.25,0.5,95,75.0
3090,A4,236.25,0.5,95,75.0
3091,D4,236.25,0.5,95,75.0
3092,E2,236.5,21/500,95,75.0
3093,C2,236.5,0.75,95,75.0
3094,E4,236.5,0.25,95,75.0
3095,C4,236.5,0.25,95,75.0
3096,G3,236.5,0.25,95,75.0
3097,B-2,236.5,0.25,95,75.0
3098,C2,236.5,0.25,95,75.0
3099,E2,236.75,21/500,95,75.0
3100,E2,236.75,0.25,95,75.0
3101,G4,236.75,0.5,95,75.0
3102,F4,236.75,0.5,95,75.0
3103,C4,236.75,0.5,95,75.0
3104,F4,236.75,0.25,95,75.0
3105,C4,236.75,0.25,95,75.0
3106,G3,236.75,0.25,95,75.0
3107,G4,236.75,0.5,95,75.0
3108,C4,236.75,0.5,95,75.0
3109,E2,237.0,21/500,95,75.0
3110,E2,237.0,0.25,95,75.0
3111,F4,237.0,0.25,95,75.0
3112,C4,237.0,0.25,95,75.0
3113,G3,237.0,0.25,95,75.0
3114,E2,237.25,21/500,95,75.0
3115,E2,237.25,0.25,95,75.0
3116,A4,237.25,0.5,95,75.0
3117,G4,237.25,0.75,95,75.0
3118,E4,237.25,0.75,95,75.0
3119,C4,237.25,0.75,95,75.0
3120,E4,237.25,0.25,95,75.0
3121,C4,237.25,0.25,95,75.0
3122,G3,237.25,0.25,95,75.0
3123,G4,237.25,0.5,95,75.0
3124,C4,237.25,0.5,95,75.0
3125,E2,237.5,0.25,95,75.0
3126,E2,237.75,0.25,95,75.0
3127,B-4,237.75,0.25,95,75.0
3128,B-1,238.0,0.5,95,75.0
3129,B-4,238.0,1.25,95,75.0
3130,B-4,238.0,0.75,95,75.0
3131,F4,238.0,0.75,95,75.0
3132,C4,238.0,0.75,95,75.0
3133,B-3,238.0,0.5,95,75.0
3134,F3,238.0,0.5,95,75.0
3135,B-2,238.0,0.5,95,75.0
3136,C#3,238.0,0.5,95,75.0
3137,C2,238.0,0.5,95,75.0
3138,B-1,238.5,0.5,95,75.0
3139,B-3,238.5,0.5,95,75.0
3140,F3,238.5,0.5,95,75.0
3141,B-2,238.5,0.5,95,75.0
3142,B-2,238.5,0.5,95,75.0
3143,C2,238.5,0.5,95,75.0
3144,B-4,238.75,0.25,95,75.0
3145,F4,238.75,0.25,95,75.0
3146,C4,238.75,0.25,95,75.0
3147,E2,239.0,0.5,95,75.0
3148,B-4,239.0,0.5,95,75.0
3149,F4,239.0,0.5,95,75.0
3150,C4,239.0,0.5,95,75.0
3151,B-4,239.0,0.5,95,75.0
3152,F4,239.0,0.5,95,75.0
3153,B-3,239.0,0.5,95,75.0
3154,F3,239.0,0.5,95,75.0
3155,B-2,239.0,0.5,95,75.0
3156,C5,239.25,0.25,95,75.0
3157,B-2,239.5,0.25,95,75.0
3158,B-4,239.5,0.5,95,75.0
3159,B-4,239.5,0.5,95,75.0
3160,F4,239.5,0.5,95,75.0
3161,C4,239.5,0.5,95,75.0
3162,G3,239.5,21/500,95,75.0
3163,D3,239.5,21/500,95,75.0
3164,A2,239.5,21/500,95,75.0
3165,F1,239.75,0.5,95,75.0
3166,C2,239.75,0.25,95,75.0
3167,G3,239.75,21/500,95,75.0
3168,D3,239.75,21/500,95,75.0
3169,A2,239.75,21/500,95,75.0
3170,A4,240.0,1.25,95,75.0
3171,F4,240.0,0.5,95,75.0
3172,C4,240.0,0.5,95,75.0
3173,F3,240.0,0.5,95,75.0
3174,C3,240.0,0.5,95,75.0
3175,F2,240.0,0.5,95,75.0
3176,F1,240.25,0.25,95,75.0
3177,C2,240.25,0.25,95,75.0
3178,F1,240.5,0.75,95,75.0
3179,F4,240.5,0.5,95,75.0
3180,C4,240.5,0.5,95,75.0
3181,F3,240.5,0.5,95,75.0
3182,C3,240.5,0.5,95,75.0
3183,F2,240.5,0.5,95,75.0
3184,B-2,240.5,0.25,95,75.0
3185,C2,240.5,0.25,95,75.0
3186,E2,241.0,0.5,95,75.0
3187,F4,241.0,0.5,95,75.0
3188,C4,241.0,0.5,95,75.0
3189,F4,241.0,0.5,95,75.0
3190,C4,241.0,0.5,95,75.0
3191,F3,241.0,0.5,95,75.0
3192,C3,241.0,0.5,95,75.0
3193,F2,241.0,0.5,95,75.0
3194,B-4,241.25,0.25,95,75.0
3195,B-2,241.5,0.5,95,75.0
3196,A4,241.5,0.5,95,75.0
3197,F4,241.5,0.5,95,75.0
3198,C4,241.5,0.5,95,75.0
3199,F3,241.5,0.25,95,75.0
3200,C3,241.5,0.25,95,75.0
3201,F2,241.5,0.25,95,75.0
3202,F3,241.75,0.25,95,75.0
3203,C3,241.75,0.25,95,75.0
3204,F2,241.75,0.25,95,75.0
3205,C2,242.0,0.5,95,75.0
3206,C2,242.0,0.5,95,75.0
3207,G4,242.0,3.25,95,75.0
3208,G4,242.0,0.75,95,75.0
3209,E4,242.0,0.75,95,75.0
3210,C4,242.0,0.75,95,75.0
3211,E4,242.0,0.5,95,75.0
3212,C4,242.0,0.5,95,75.0
3213,G3,242.0,0.5,95,75.0
3214,E2,242.5,21/500,95,75.0
3215,C2,242.5,0.5,95,75.0
3216,E4,242.5,0.5,95,75.0
3217,C4,242.5,0.5,95,75.0
3218,G3,242.5,0.5,95,75.0
3219,B-2,242.5,0.5,95,75.0
3220,C2,242.5,0.5,95,75.0
3221,G4,242.75,0.25,95,75.0
3222,E4,242.75,0.25,95,75.0
3223,C4,242.75,0.25,95,75.0
3224,E2,243.0,21/500,95,75.0
3225,E2,243.0,0.5,95,75.0
3226,G4,243.0,0.75,95,75.0
3227,E4,243.0,0.75,95,75.0
3228,C4,243.0,0.75,95,75.0
3229,E4,243.0,0.25,95,75.0
3230,C4,243.0,0.25,95,75.0
3231,G3,243.0,0.25,95,75.0
3232,G3,243.25,21/500,95,75.0
3233,D3,243.25,21/500,95,75.0
3234,A2,243.25,21/500,95,75.0
3235,B-2,243.5,0.25,95,75.0
3236,E2,243.75,21/500,95,75.0
3237,C2,243.75,0.5,95,75.0
3238,C2,243.75,0.25,95,75.0
3239,G4,243.75,0.25,95,75.0
3240,E4,243.75,0.25,95,75.0
3241,C4,243.75,0.25,95,75.0
3242,E4,243.75,0.25,95,75.0
3243,C4,243.75,0.25,95,75.0
3244,G3,243.75,0.25,95,75.0
3245,G4,244.0,0.25,95,75.0
3246,E4,244.0,0.25,95,75.0
3247,C4,244.0,0.25,95,75.0
3248,G3,244.0,21/500,95,75.0
3249,D3,244.0,21/500,95,75.0
3250,A2,244.0,21/500,95,75.0
3251,C5,244.0,0.25,95,75.0
3252,E4,244.0,0.25,95,75.0
3253,C2,244.25,0.25,95,75.0
3254,C2,244.25,0.25,95,75.0
3255,G4,244.25,0.5,95,75.0
3256,F4,244.25,0.5,95,75.0
3257,C4,244.25,0.5,95,75.0
3258,A4,244.25,0.5,95,75.0
3259,D4,244.25,0.5,95,75.0
3260,E2,244.5,21/500,95,75.0
3261,C2,244.5,0.75,95,75.0
3262,E4,244.5,0.25,95,75.0
3263,C4,244.5,0.25,95,75.0
3264,G3,244.5,0.25,95,75.0
3265,B-2,244.5,0.25,95,75.0
3266,C2,244.5,0.25,95,75.0
3267,E2,244.75,21/500,95,75.0
3268,E2,244.75,0.25,95,75.0
3269,G4,244.75,0.5,95,75.0
3270,F4,244.75,0.5,95,75.0
3271,C4,244.75,0.5,95,75.0
3272,F4,244.75,0.25,95,75.0
3273,C4,244.75,0.25,95,75.0
3274,G3,244.75,0.25,95,75.0
3275,G4,244.75,0.5,95,75.0
3276,C4,244.75,0.5,95,75.0
3277,E2,245.0,21/500,95,75.0
3278,E2,245.0,0.25,95,75.0
3279,F4,245.0,0.25,95,75.0
3280,C4,245.0,0.25,95,75.0
3281,G3,245.0,0.25,95,75.0
3282,E2,245.25,21/500,95,75.0
3283,E2,245.25,0.25,95,75.0
3284,A4,245.25,0.5,95,75.0
3285,G4,245.25,0.75,95,75.0
3286,E4,245.25,0.75,95,75.0
3287,C4,245.25,0.75,95,75.0
3288,E4,245.25,0.25,95,75.0
3289,C4,245.25,0.25,95,75.0
3290,G3,245.25,0.25,95,75.0
3291,G4,245.25,0.5,95,75.0
3292,C4,245.25,0.5,95,75.0
3293,E2,245.5,0.25,95,75.0
3294,E2,245.75,0.25,95,75.0
3295,B-4,245.75,0.25,95,75.0
3296,B-1,246.0,0.5,95,75.0
3297,B-4,246.0,1.25,95,75.0
3298,B-4,246.0,0.75,95,75.0
3299,F4,246.0,0.75,95,75.0
3300,C4,246.0,0.75,95,75.0
3301,B-3,246.0,0.5,95,75.0
3302,F3,246.0,0.5,95,75.0
3303,B-2,246.0,0.5,95,75.0
3304,C#3,246.0,0.5,95,75.0
3305,C2,246.0,0.5,95,75.0
3306,B-1,246.5,0.5,95,75.0
3307,B-3,246.5,0.5,95,75.0
3308,F3,246.5,0.5,95,75.0
3309,B-2,246.5,0.5,95,75.0
3310,B-2,246.5,0.5,95,75.0
3311,C2,246.5,0.5,95,75.0
3312,B-4,246.75,0.25,95,75.0
3313,F4,246.75,0.25,95,75.0
3314,C4,246.75,0.25,95,75.0
3315,E2,247.0,0.5,95,75.0
3316,B-4,247.0,0.5,95,75.0
3317,F4,247.0,0.5,95,75.0
3318,C4,247.0,0.5,95,75.0
3319,B-4,247.0,0.5,95,75.0
3320,F4,247.0,0.5,95,75.0
3321,B-3,247.0,0.5,95,75.0
3322,F3,247.0,0.5,95,75.0
3323,B-2,247.0,0.5,95,75.0
3324,B-4,247.0,1.0,95,75.0
3325,F4,247.0,1.0,95,75.0
3326,D4,247.0,1.0,95,75.0
3327,C5,247.25,0.25,95,75.0
3328,B-2,247.5,0.25,95,75.0
3329,B-4,247.5,0.5,95,75.0
3330,B-4,247.5,0.5,95,75.0
3331,F4,247.5,0.5,95,75.0
3332,C4,247.5,0.5,95,75.0
3333,G3,247.5,21/500,95,75.0
3334,D3,247.5,21/500,95,75.0
3335,A2,247.5,21/500,95,75.0
3336,F1,247.75,0.5,95,75.0
3337,C2,247.75,0.25,95,75.0
3338,G3,247.75,21/500,95,75.0
3339,D3,247.75,21/500,95,75.0
3340,A2,247.75,21/500,95,75.0
3341,A4,248.0,1.25,95,75.0
3342,F4,248.0,0.5,95,75.0
3343,C4,248.0,0.5,95,75.0
3344,F3,248.0,0.5,95,75.0
3345,C3,248.0,0.5,95,75.0
3346,F2,248.0,0.5,95,75.0
3347,A4,248.0,2.0,95,75.0
3348,F4,248.0,2.0,95,75.0
3349,C4,248.0,2.0,95,75.0
3350,F1,248.25,0.25,95,75.0
3351,C2,248.25,0.25,95,75.0
3352,F1,248.5,0.75,95,75.0
3353,F4,248.5,0.5,95,75.0
3354,C4,248.5,0.5,95,75.0
3355,F3,248.5,0.5,95,75.0
3356,C3,248.5,0.5,95,75.0
3357,F2,248.5,0.5,95,75.0
3358,B-2,248.5,0.25,95,75.0
3359,C2,248.5,0.25,95,75.0
3360,E2,249.0,0.5,95,75.0
3361,F4,249.0,0.5,95,75.0
3362,C4,249.0,0.5,95,75.0
3363,F4,249.0,0.5,95,75.0
3364,C4,249.0,0.5,95,75.0
3365,F3,249.0,0.5,95,75.0
3366,C3,249.0,0.5,95,75.0
3367,F2,249.0,0.5,95,75.0
3368,B-4,249.25,0.25,95,75.0
3369,B-2,249.5,0.25,95,75.0
3370,A4,249.5,0.5,95,75.0
3371,F4,249.5,0.5,95,75.0
3372,C4,249.5,0.5,95,75.0
3373,F3,249.5,0.25,95,75.0
3374,C3,249.5,0.25,95,75.0
3375,F2,249.5,0.25,95,75.0
3376,E2,249.75,0.125,95,75.0
3377,F3,249.75,0.25,95,75.0
3378,C3,249.75,0.25,95,75.0
3379,F2,249.75,0.25,95,75.0
3380,E2,249.875,0.125,95,75.0
3381,C2,250.0,1.0,95,75.0
3382,E2,250.0,1.0,95,75.0
3383,G4,250.0,1.0,95,75.0
3384,G4,250.0,1.0,95,75.0
3385,E4,250.0,1.0,95,75.0
3386,C4,250.0,1.0,95,75.0
3387,E4,250.0,1.0,95,75.0
3388,C4,250.0,1.0,95,75.0
3389,G3,250.0,1.0,95,75.0
3390,G4,250.0,1.0,95,75.0
3391,E4,250.0,1.0,95,75.0
3392,C4,250.0,1.0,95,75.0
3393,C5,251.0,0.25,95,75.0
3394,E4,251.0,0.25,95,75.0
3395,A4,251.25,0.5,95,75.0
3396,D4,251.25,0.5,95,75.0
3397,G4,251.75,0.5,95,75.0
3398,C4,251.75,0.5,95,75.0
3399,G4,252.25,0.5,95,75.0
3400,C4,252.25,0.5,95,75.0
