,note_name,start_time,duration,velocity,tempo
0,F#2,4.0,0.031,65,120.0
1,F#2,5.0,0.031,65,120.0
2,F#2,6.0,0.031,65,120.0
3,F#2,7.0,0.031,65,120.0
4,F#2,8.0,0.031,65,120.0
5,F#2,9.0,0.031,65,120.0
6,F#2,10.0,0.031,65,120.0
7,F#2,11.0,0.031,65,120.0
8,B2,11.625,0.375,79,120.0
9,A3,11.75,0.25,59,120.0
10,D4,11.875,0.125,59,120.0
11,B1,12.0,1.25,123,120.0
12,F#5,12.0,4.0,99,120.0
13,B2,12.0,4.0,79,120.0
14,A3,12.0,4.0,59,120.0
15,D4,12.0,4.0,59,120.0
16,E8,12.0,0.031,85,120.0
17,B2,12.0,4.0,74,120.0
18,A3,12.0,4.0,74,120.0
19,D4,12.0,4.0,74,120.0
20,B1,12.0,0.031,52,120.0
21,G#2,12.0,0.031,52,120.0
22,G#2,12.5,0.031,30,120.0
23,C#2,13.0,0.031,70,120.0
24,G#2,13.0,0.031,70,120.0
25,B1,13.5,1.312,122,120.0
26,E8,13.5,0.031,85,120.0
27,B1,13.5,0.031,42,120.0
28,G#2,13.5,0.031,42,120.0
29,G#2,14.0,0.031,50,120.0
30,E8,14.0,0.031,85,120.0
31,G#2,14.5,0.031,30,120.0
32,B1,15.0,427/1000,124,120.0
33,B1,15.0,0.031,61,120.0
34,C#2,15.0,0.031,61,120.0
35,G#2,15.0,0.031,61,120.0
36,A1,15.5,56/125,123,120.0
37,E8,15.5,0.031,85,120.0
38,B1,15.5,0.031,25,120.0
39,G#2,15.5,0.031,25,120.0
40,B1,16.0,1.188,125,120.0
41,F#5,16.0,3979/1000,99,120.0
42,B2,16.0,3729/1000,79,120.0
43,A3,16.0,1927/500,59,120.0
44,D4,16.0,3979/1000,59,120.0
45,E8,16.0,0.031,85,120.0
46,B1,16.0,0.031,47,120.0
47,G#2,16.0,0.031,47,120.0
48,G#2,16.5,0.031,30,120.0
49,C#2,17.0,0.031,70,120.0
50,G#2,17.0,0.031,70,120.0
51,B1,17.5,323/250,124,120.0
52,E8,17.5,0.031,85,120.0
53,B1,17.5,0.031,42,120.0
54,G#2,17.5,0.031,42,120.0
55,G#2,18.0,0.031,50,120.0
56,E8,18.0,0.031,85,120.0
57,G#2,18.5,0.031,30,120.0
58,B1,19.0,229/500,124,120.0
59,C#2,19.0,0.031,70,120.0
60,G#2,19.0,0.031,70,120.0
61,A1,19.5,0.438,123,120.0
62,G#2,19.5,0.031,30,120.0
63,E8,19.5,0.031,85,120.0
64,B1,20.0,151/125,124,120.0
65,E8,20.0,0.031,85,120.0
66,B1,20.0,0.031,52,120.0
67,G#2,20.0,0.031,52,120.0
68,G#2,20.5,0.031,30,120.0
69,E4,20.5,729/1000,113,120.0
70,D4,20.75,729/1000,83,120.0
71,A3,21.0,729/1000,63,120.0
72,C#2,21.0,0.031,70,120.0
73,G#2,21.0,0.031,70,120.0
74,E4,21.25,729/1000,113,120.0
75,B1,21.5,1.312,123,120.0
76,D4,21.5,729/1000,83,120.0
77,E8,21.5,0.031,85,120.0
78,B1,21.5,0.031,42,120.0
79,G#2,21.5,0.031,42,120.0
80,A3,21.75,729/1000,63,120.0
81,G#2,22.0,0.031,50,120.0
82,E4,22.0,729/1000,113,120.0
83,E8,22.0,0.031,85,120.0
84,D4,22.25,729/1000,83,120.0
85,G#2,22.5,0.031,30,120.0
86,A3,22.5,729/1000,63,120.0
87,E4,22.75,729/1000,113,120.0
88,B1,23.0,0.375,123,120.0
89,D4,23.0,729/1000,83,120.0
90,B1,23.0,0.031,61,120.0
91,C#2,23.0,0.031,61,120.0
92,G#2,23.0,0.031,61,120.0
93,A3,23.25,729/1000,63,120.0
94,A1,23.5,0.469,123,120.0
95,E4,23.5,0.5,113,120.0
96,E8,23.5,0.031,85,120.0
97,B1,23.5,0.031,25,120.0
98,G#2,23.5,0.031,25,120.0
99,D4,23.75,0.25,83,120.0
100,B1,24.0,599/500,123,120.0
101,A3,24.0,729/1000,63,120.0
102,E4,24.0,229/1000,113,120.0
103,D4,24.0,479/1000,83,120.0
104,E8,24.0,0.031,85,120.0
105,B1,24.0,0.031,47,120.0
106,G#2,24.0,0.031,47,120.0
107,E4,24.25,729/1000,113,120.0
108,G#2,24.5,0.031,30,120.0
109,D4,24.5,729/1000,83,120.0
110,A3,24.75,729/1000,63,120.0
111,E4,25.0,729/1000,113,120.0
112,C#2,25.0,0.031,70,120.0
113,G#2,25.0,0.031,70,120.0
114,D4,25.25,729/1000,83,120.0
115,B1,25.5,1.312,123,120.0
116,A3,25.5,729/1000,63,120.0
117,E8,25.5,0.031,85,120.0
118,B1,25.5,0.031,42,120.0
119,G#2,25.5,0.031,42,120.0
120,E4,25.75,729/1000,113,120.0
121,G#2,26.0,0.031,50,120.0
122,D4,26.0,729/1000,83,120.0
123,E8,26.0,0.031,85,120.0
124,A3,26.25,729/1000,63,120.0
125,G#2,26.5,0.031,30,120.0
126,E4,26.5,729/1000,113,120.0
127,D4,26.75,729/1000,83,120.0
128,B1,27.0,99/250,124,120.0
129,A3,27.0,729/1000,63,120.0
130,C#2,27.0,0.031,70,120.0
131,G#2,27.0,0.031,70,120.0
132,E4,27.25,729/1000,113,120.0
133,A1,27.5,229/500,123,120.0
134,G#2,27.5,0.031,30,120.0
135,D4,27.5,0.5,83,120.0
136,E8,27.5,0.031,85,120.0
137,A3,27.75,0.25,63,120.0
138,B1,28.0,1.188,124,120.0
139,E4,28.0,729/1000,113,120.0
140,D4,28.0,229/1000,83,120.0
141,A3,28.0,479/1000,63,120.0
142,E8,28.0,0.031,85,120.0
143,B1,28.0,0.031,52,120.0
144,G#2,28.0,0.031,52,120.0
145,C#4,28.25,729/1000,83,120.0
146,G#2,28.5,0.031,30,120.0
147,A3,28.5,729/1000,63,120.0
148,E4,28.75,729/1000,113,120.0
149,C#4,29.0,729/1000,83,120.0
150,C#2,29.0,0.031,70,120.0
151,G#2,29.0,0.031,70,120.0
152,A3,29.25,729/1000,63,120.0
153,B1,29.5,1.312,123,120.0
154,E4,29.5,729/1000,113,120.0
155,E8,29.5,0.031,85,120.0
156,B1,29.5,0.031,42,120.0
157,G#2,29.5,0.031,42,120.0
158,C#4,29.75,729/1000,83,120.0
159,G#2,30.0,0.031,50,120.0
160,A3,30.0,729/1000,63,120.0
161,E8,30.0,0.031,85,120.0
162,E4,30.25,729/1000,113,120.0
163,G#2,30.5,0.031,30,120.0
164,C#4,30.5,729/1000,83,120.0
165,A3,30.75,729/1000,63,120.0
166,B1,31.0,427/1000,124,120.0
167,E4,31.0,729/1000,113,120.0
168,B1,31.0,0.031,61,120.0
169,C#2,31.0,0.031,61,120.0
170,G#2,31.0,0.031,61,120.0
171,C#4,31.25,729/1000,83,120.0
172,A1,31.5,417/1000,123,120.0
173,A3,31.5,0.5,63,120.0
174,E8,31.5,0.031,85,120.0
175,B1,31.5,0.031,25,120.0
176,G#2,31.5,0.031,25,120.0
177,E4,31.75,0.25,113,120.0
178,B1,32.0,323/250,124,120.0
179,B3,32.0,729/1000,83,120.0
180,A3,32.0,229/1000,63,120.0
181,E4,32.0,479/1000,113,120.0
182,E8,32.0,0.031,85,120.0
183,B1,32.0,0.031,47,120.0
184,G#2,32.0,0.031,47,120.0
185,A3,32.25,729/1000,63,120.0
186,G#2,32.5,0.031,30,120.0
187,E4,32.5,729/1000,113,120.0
188,B3,32.75,729/1000,83,120.0
189,A3,33.0,729/1000,63,120.0
190,C#2,33.0,0.031,70,120.0
191,G#2,33.0,0.031,70,120.0
192,E4,33.25,729/1000,113,120.0
193,B1,33.5,323/250,124,120.0
194,B3,33.5,729/1000,83,120.0
195,E8,33.5,0.031,85,120.0
196,B1,33.5,0.031,42,120.0
197,G#2,33.5,0.031,42,120.0
198,A3,33.75,729/1000,63,120.0
199,G#2,34.0,0.031,50,120.0
200,E4,34.0,729/1000,113,120.0
201,E8,34.0,0.031,85,120.0
202,B3,34.25,729/1000,83,120.0
203,G#2,34.5,0.031,30,120.0
204,A3,34.5,729/1000,63,120.0
205,E4,34.75,729/1000,113,120.0
206,B1,35.0,56/125,124,120.0
207,B3,35.0,729/1000,83,120.0
208,C#2,35.0,0.031,70,120.0
209,G#2,35.0,0.031,70,120.0
210,A3,35.25,729/1000,63,120.0
211,A1,35.5,0.469,123,120.0
212,G#2,35.5,0.031,30,120.0
213,E4,35.5,0.5,113,120.0
214,E8,35.5,0.031,85,120.0
215,B3,35.75,0.25,83,120.0
216,B1,36.0,599/500,125,120.0
217,A3,36.0,729/1000,63,120.0
218,E4,36.0,229/1000,113,120.0
219,B3,36.0,479/1000,83,120.0
220,E8,36.0,0.031,85,120.0
221,B1,36.0,0.031,52,120.0
222,G#2,36.0,0.031,52,120.0
223,E4,36.25,729/1000,113,120.0
224,G#2,36.5,0.031,30,120.0
225,B3,36.5,729/1000,83,120.0
226,A3,36.75,729/1000,63,120.0
227,E4,37.0,729/1000,113,120.0
228,C#2,37.0,0.031,70,120.0
229,G#2,37.0,0.031,70,120.0
230,B3,37.25,729/1000,83,120.0
231,B1,37.5,1.312,123,120.0
232,A3,37.5,729/1000,63,120.0
233,E8,37.5,0.031,85,120.0
234,B1,37.5,0.031,42,120.0
235,G#2,37.5,0.031,42,120.0
236,E4,37.75,729/1000,113,120.0
237,G#2,38.0,0.031,50,120.0
238,B3,38.0,729/1000,83,120.0
239,E8,38.0,0.031,85,120.0
240,A3,38.25,729/1000,63,120.0
241,G#2,38.5,0.031,30,120.0
242,E4,38.5,729/1000,113,120.0
243,B3,38.75,729/1000,83,120.0
244,B1,39.0,0.438,124,120.0
245,A3,39.0,729/1000,63,120.0
246,B1,39.0,0.031,61,120.0
247,C#2,39.0,0.031,61,120.0
248,G#2,39.0,0.031,61,120.0
249,E4,39.25,729/1000,113,120.0
250,A1,39.5,479/1000,123,120.0
251,B3,39.5,0.5,83,120.0
252,E8,39.5,0.031,85,120.0
253,B1,39.5,0.031,25,120.0
254,G#2,39.5,0.031,25,120.0
255,A3,39.75,0.25,63,120.0
256,B1,40.0,1167/1000,125,120.0
257,B3,40.0,229/1000,83,120.0
258,A3,40.0,479/1000,63,120.0
259,E8,40.0,0.031,85,120.0
260,B1,40.0,0.031,47,120.0
261,G#2,40.0,0.031,47,120.0
262,G#2,40.5,0.031,30,120.0
263,C#2,41.0,0.031,70,120.0
264,G#2,41.0,0.031,70,120.0
265,B1,41.5,1.281,124,120.0
266,E8,41.5,0.031,85,120.0
267,B1,41.5,0.031,42,120.0
268,G#2,41.5,0.031,42,120.0
269,G#2,42.0,0.031,50,120.0
270,E8,42.0,0.031,85,120.0
271,G#2,42.5,0.031,30,120.0
272,B1,43.0,99/250,123,120.0
273,D4,43.0,479/1000,92,120.0
274,C#2,43.0,0.031,70,120.0
275,G#2,43.0,0.031,70,120.0
276,A1,43.5,479/1000,121,120.0
277,C#4,43.5,479/1000,93,120.0
278,G#2,43.5,0.031,30,120.0
279,E8,43.5,0.031,85,120.0
280,B2,43.979,4.0,74,120.0
281,A3,43.979,4.0,74,120.0
282,D4,43.979,4.0,74,120.0
283,B1,44.0,1.062,124,120.0
284,B3,44.0,479/1000,86,120.0
285,E8,44.0,0.031,85,120.0
286,B1,44.0,0.031,52,120.0
287,G#2,44.0,0.031,52,120.0
288,A3,44.5,979/1000,87,120.0
289,G#2,44.5,0.031,30,120.0
290,C#2,45.0,0.031,70,120.0
291,G#2,45.0,0.031,70,120.0
292,B1,45.5,1.312,124,120.0
293,A3,45.5,1479/1000,89,120.0
294,E8,45.5,0.031,85,120.0
295,B1,45.5,0.031,42,120.0
296,G#2,45.5,0.031,42,120.0
297,G#2,46.0,0.031,50,120.0
298,E8,46.0,0.031,85,120.0
299,G#2,46.5,0.031,30,120.0
300,B1,47.0,56/125,124,120.0
301,D4,47.0,479/1000,92,120.0
302,B1,47.0,0.031,61,120.0
303,C#2,47.0,0.031,61,120.0
304,G#2,47.0,0.031,61,120.0
305,A1,47.5,417/1000,123,120.0
306,C#4,47.5,479/1000,92,120.0
307,E8,47.5,0.031,85,120.0
308,B1,47.5,0.031,25,120.0
309,G#2,47.5,0.031,25,120.0
310,G1,48.0,1.188,123,120.0
311,B3,48.0,479/1000,90,120.0
312,E8,48.0,0.031,85,120.0
313,B1,48.0,0.031,47,120.0
314,G#2,48.0,0.031,47,120.0
315,A3,48.5,979/1000,86,120.0
316,G#2,48.5,0.031,30,120.0
317,C#2,49.0,0.031,70,120.0
318,G#2,49.0,0.031,70,120.0
319,G1,49.5,2.312,123,120.0
320,B3,49.5,1479/1000,83,120.0
321,E8,49.5,0.031,85,120.0
322,B1,49.5,0.031,42,120.0
323,G#2,49.5,0.031,42,120.0
324,G#2,50.0,0.031,50,120.0
325,E8,50.0,0.031,85,120.0
326,G#2,50.5,0.031,30,120.0
327,C#2,51.0,0.031,70,120.0
328,G#2,51.0,0.031,70,120.0
329,D3,51.5,479/1000,77,120.0
330,G#2,51.5,0.031,30,120.0
331,E8,51.5,0.031,85,120.0
332,G1,52.0,1.156,124,120.0
333,B3,52.0,979/1000,94,120.0
334,E8,52.0,0.031,85,120.0
335,B1,52.0,0.031,52,120.0
336,G#2,52.0,0.031,52,120.0
337,G#2,52.5,0.031,30,120.0
338,A3,53.0,479/1000,86,120.0
339,C#2,53.0,0.031,70,120.0
340,G#2,53.0,0.031,70,120.0
341,G1,53.5,477/200,123,120.0
342,A3,53.5,1479/1000,89,120.0
343,E8,53.5,0.031,85,120.0
344,B1,53.5,0.031,42,120.0
345,G#2,53.5,0.031,42,120.0
346,G#2,54.0,0.031,50,120.0
347,E8,54.0,0.031,85,120.0
348,G#2,54.5,0.031,30,120.0
349,D3,55.0,479/1000,71,120.0
350,B1,55.0,0.031,61,120.0
351,C#2,55.0,0.031,61,120.0
352,G#2,55.0,0.031,61,120.0
353,F#3,55.5,0.5,91,120.0
354,E8,55.5,0.031,85,120.0
355,B1,55.5,0.031,25,120.0
356,G#2,55.5,0.031,25,120.0
357,D2,56.0,573/500,124,120.0
358,F#3,56.0,479/1000,91,120.0
359,E8,56.0,0.031,85,120.0
360,B1,56.0,0.031,47,120.0
361,G#2,56.0,0.031,47,120.0
362,A3,56.5,1479/1000,67,120.0
363,G#2,56.5,0.031,30,120.0
364,C#2,57.0,0.031,70,120.0
365,G#2,57.0,0.031,70,120.0
366,D2,57.5,1.312,122,120.0
367,E8,57.5,0.031,85,120.0
368,B1,57.5,0.031,42,120.0
369,G#2,57.5,0.031,42,120.0
370,G#2,58.0,0.031,50,120.0
371,E8,58.0,0.031,85,120.0
372,G#2,58.5,0.031,30,120.0
373,D2,59.0,427/1000,122,120.0
374,D4,59.0,479/1000,89,120.0
375,C#2,59.0,0.031,70,120.0
376,G#2,59.0,0.031,70,120.0
377,C#2,59.5,479/1000,124,120.0
378,C#4,59.5,479/1000,93,120.0
379,G#2,59.5,0.031,30,120.0
380,E8,59.5,0.031,85,120.0
381,B1,60.0,1.219,123,120.0
382,B3,60.0,479/1000,91,120.0
383,E8,60.0,0.031,85,120.0
384,B1,60.0,0.031,52,120.0
385,G#2,60.0,0.031,52,120.0
386,A3,60.5,979/1000,88,120.0
387,G#2,60.5,0.031,30,120.0
388,C#2,61.0,0.031,70,120.0
389,G#2,61.0,0.031,70,120.0
390,B1,61.5,651/500,124,120.0
391,A3,61.5,1479/1000,79,120.0
392,E8,61.5,0.031,85,120.0
393,B1,61.5,0.031,42,120.0
394,G#2,61.5,0.031,42,120.0
395,G#2,62.0,0.031,50,120.0
396,E8,62.0,0.031,85,120.0
397,G#2,62.5,0.031,30,120.0
398,B1,63.0,479/1000,123,120.0
399,D4,63.0,479/1000,92,120.0
400,B1,63.0,0.031,61,120.0
401,C#2,63.0,0.031,61,120.0
402,G#2,63.0,0.031,61,120.0
403,A1,63.5,0.469,123,120.0
404,C#4,63.5,479/1000,94,120.0
405,E8,63.5,0.031,85,120.0
406,B1,63.5,0.031,25,120.0
407,G#2,63.5,0.031,25,120.0
408,G1,64.0,1333/1000,119,120.0
409,B3,64.0,479/1000,93,120.0
410,E8,64.0,0.031,85,120.0
411,B1,64.0,0.031,47,120.0
412,G#2,64.0,0.031,47,120.0
413,A3,64.5,979/1000,79,120.0
414,G#2,64.5,0.031,30,120.0
415,C#2,65.0,0.031,70,120.0
416,G#2,65.0,0.031,70,120.0
417,D2,65.5,56/25,124,120.0
418,A3,65.5,1479/1000,86,120.0
419,E8,65.5,0.031,85,120.0
420,B1,65.5,0.031,42,120.0
421,G#2,65.5,0.031,42,120.0
422,G#2,66.0,0.031,50,120.0
423,E8,66.0,0.031,85,120.0
424,G#2,66.5,0.031,30,120.0
425,E3,67.0,479/1000,71,120.0
426,C#2,67.0,0.031,70,120.0
427,G#2,67.0,0.031,70,120.0
428,F#3,67.5,479/1000,93,120.0
429,G#2,67.5,0.031,30,120.0
430,E8,67.5,0.031,85,120.0
431,B1,68.0,1333/1000,122,120.0
432,G3,68.0,729/1000,90,120.0
433,E8,68.0,0.031,85,120.0
434,B1,68.0,0.031,52,120.0
435,G#2,68.0,0.031,52,120.0
436,G#2,68.5,0.031,30,120.0
437,F#3,68.75,729/1000,83,120.0
438,C#2,69.0,0.031,70,120.0
439,G#2,69.0,0.031,70,120.0
440,A1,69.5,113/50,124,120.0
441,F#3,69.5,979/1000,90,120.0
442,E8,69.5,0.031,85,120.0
443,B1,69.5,0.031,42,120.0
444,G#2,69.5,0.031,42,120.0
445,D5,70.0,2.0,62,120.0
446,G#2,70.0,0.031,50,120.0
447,E8,70.0,0.031,85,120.0
448,E3,70.5,479/1000,87,120.0
449,G#2,70.5,0.031,30,120.0
450,D3,71.0,979/1000,86,120.0
451,B1,71.0,0.031,61,120.0
452,C#2,71.0,0.031,61,120.0
453,G#2,71.0,0.031,61,120.0
454,E8,71.5,0.031,85,120.0
455,B1,71.5,0.031,25,120.0
456,G#2,71.5,0.031,25,120.0
457,B2,71.958,4.0,74,120.0
458,A3,71.958,4.0,74,120.0
459,D4,71.958,4.0,74,120.0
460,B1,72.0,1.25,124,120.0
461,D5,72.0,4.0,62,120.0
462,E8,72.0,0.031,85,120.0
463,B1,72.0,0.031,47,120.0
464,G#2,72.0,0.031,47,120.0
465,G#2,72.5,0.031,30,120.0
466,C#2,73.0,0.031,70,120.0
467,G#2,73.0,0.031,70,120.0
468,B1,73.5,2.031,124,120.0
469,E8,73.5,0.031,85,120.0
470,B1,73.5,0.031,42,120.0
471,G#2,73.5,0.031,42,120.0
472,G#2,74.0,0.031,50,120.0
473,E8,74.0,0.031,85,120.0
474,G#2,74.5,0.031,30,120.0
475,C#2,75.0,0.031,70,120.0
476,G#2,75.0,0.031,70,120.0
477,G#2,75.5,0.031,30,120.0
478,E8,75.5,0.031,85,120.0
479,B1,76.0,63/50,124,120.0
480,D5,76.0,1479/1000,62,120.0
481,E8,76.0,0.031,85,120.0
482,B1,76.0,0.031,52,120.0
483,G#2,76.0,0.031,52,120.0
484,G#2,76.5,0.031,30,120.0
485,C#2,77.0,0.031,70,120.0
486,G#2,77.0,0.031,70,120.0
487,G1,77.5,2.281,123,120.0
488,C#5,77.5,73/500,47,120.0
489,E8,77.5,0.031,85,120.0
490,B1,77.5,0.031,42,120.0
491,G#2,77.5,0.031,42,120.0
492,B4,77.667,0.312,54,120.0
493,A4,78.0,729/1000,62,120.0
494,G#2,78.0,0.031,50,120.0
495,E8,78.0,0.031,85,120.0
496,G#2,78.5,0.031,30,120.0
497,B4,78.75,13/125,47,120.0
498,A4,78.875,13/125,47,120.0
499,G4,79.0,979/1000,62,120.0
500,B1,79.0,0.031,61,120.0
501,C#2,79.0,0.031,61,120.0
502,G#2,79.0,0.031,61,120.0
503,E8,79.5,0.031,85,120.0
504,B1,79.5,0.031,25,120.0
505,G#2,79.5,0.031,25,120.0
506,D2,80.0,1.312,123,120.0
507,A4,80.0,2979/1000,62,120.0
508,E8,80.0,0.031,85,120.0
509,B1,80.0,0.031,47,120.0
510,G#2,80.0,0.031,47,120.0
511,G#2,80.5,0.031,30,120.0
512,C#2,81.0,0.031,70,120.0
513,G#2,81.0,0.031,70,120.0
514,D2,81.5,1073/500,124,120.0
515,E8,81.5,0.031,85,120.0
516,B1,81.5,0.031,42,120.0
517,G#2,81.5,0.031,42,120.0
518,G#2,82.0,0.031,50,120.0
519,E8,82.0,0.031,85,120.0
520,G#2,82.5,0.031,30,120.0
521,G4,83.0,479/1000,62,120.0
522,C#2,83.0,0.031,70,120.0
523,G#2,83.0,0.031,70,120.0
524,D5,83.5,479/1000,62,120.0
525,G#2,83.5,0.031,30,120.0
526,E8,83.5,0.031,85,120.0
527,D2,84.0,1323/1000,123,120.0
528,F#4,84.0,4.0,62,120.0
529,E8,84.0,0.031,85,120.0
530,B1,84.0,0.031,52,120.0
531,G#2,84.0,0.031,52,120.0
532,G#2,84.5,0.031,30,120.0
533,C#2,85.0,0.031,70,120.0
534,G#2,85.0,0.031,70,120.0
535,D2,85.5,1.312,123,120.0
536,E8,85.5,0.031,85,120.0
537,B1,85.5,0.031,42,120.0
538,G#2,85.5,0.031,42,120.0
539,G#2,86.0,0.031,50,120.0
540,E8,86.0,0.031,85,120.0
541,G#2,86.5,0.031,30,120.0
542,D2,87.0,417/1000,123,120.0
543,D4,87.0,479/1000,90,120.0
544,B1,87.0,0.031,61,120.0
545,C#2,87.0,0.031,61,120.0
546,G#2,87.0,0.031,61,120.0
547,C#2,87.5,479/1000,122,120.0
548,C#4,87.5,479/1000,97,120.0
549,E8,87.5,0.031,85,120.0
550,B1,87.5,0.031,25,120.0
551,G#2,87.5,0.031,25,120.0
552,B1,88.0,323/250,124,120.0
553,F#4,88.0,3979/1000,62,120.0
554,B3,88.0,479/1000,95,120.0
555,E8,88.0,0.031,85,120.0
556,B1,88.0,0.031,47,120.0
557,G#2,88.0,0.031,47,120.0
558,A3,88.5,979/1000,90,120.0
559,G#2,88.5,0.031,30,120.0
560,C#2,89.0,0.031,70,120.0
561,G#2,89.0,0.031,70,120.0
562,B1,89.5,1271/1000,124,120.0
563,A3,89.5,1479/1000,88,120.0
564,E8,89.5,0.031,85,120.0
565,B1,89.5,0.031,42,120.0
566,G#2,89.5,0.031,42,120.0
567,G#2,90.0,0.031,50,120.0
568,E8,90.0,0.031,85,120.0
569,G#2,90.5,0.031,30,120.0
570,B1,91.0,479/1000,123,120.0
571,D4,91.0,479/1000,93,120.0
572,C#2,91.0,0.031,70,120.0
573,G#2,91.0,0.031,70,120.0
574,A1,91.5,427/1000,122,120.0
575,C#4,91.5,479/1000,95,120.0
576,G#2,91.5,0.031,30,120.0
577,E8,91.5,0.031,85,120.0
578,G1,92.0,1229/1000,122,120.0
579,B3,92.0,979/1000,95,120.0
580,E8,92.0,0.031,85,120.0
581,B1,92.0,0.031,52,120.0
582,G#2,92.0,0.031,52,120.0
583,G#2,92.5,0.031,30,120.0
584,A3,93.0,479/1000,77,120.0
585,C#2,93.0,0.031,70,120.0
586,G#2,93.0,0.031,70,120.0
587,G1,93.5,423/200,123,120.0
588,B3,93.5,1479/1000,94,120.0
589,E8,93.5,0.031,85,120.0
590,B1,93.5,0.031,42,120.0
591,G#2,93.5,0.031,42,120.0
592,G#2,94.0,0.031,50,120.0
593,E8,94.0,0.031,85,120.0
594,G#2,94.5,0.031,30,120.0
595,B1,95.0,0.031,61,120.0
596,C#2,95.0,0.031,61,120.0
597,G#2,95.0,0.031,61,120.0
598,D3,95.5,479/1000,83,120.0
599,E8,95.5,0.031,85,120.0
600,B1,95.5,0.031,25,120.0
601,G#2,95.5,0.031,25,120.0
602,B2,95.938,4.0,74,120.0
603,A3,95.938,4.0,74,120.0
604,D4,95.938,4.0,74,120.0
605,G1,96.0,1.312,121,120.0
606,B3,96.0,979/1000,95,120.0
607,E8,96.0,0.031,85,120.0
608,B1,96.0,0.031,47,120.0
609,G#2,96.0,0.031,47,120.0
610,G#2,96.5,0.031,30,120.0
611,A3,97.0,479/1000,70,120.0
612,C#2,97.0,0.031,70,120.0
613,G#2,97.0,0.031,70,120.0
614,G1,97.5,2.188,124,120.0
615,A3,97.5,1479/1000,86,120.0
616,E8,97.5,0.031,85,120.0
617,B1,97.5,0.031,42,120.0
618,G#2,97.5,0.031,42,120.0
619,G#2,98.0,0.031,50,120.0
620,E8,98.0,0.031,85,120.0
621,G#2,98.5,0.031,30,120.0
622,D3,99.0,479/1000,85,120.0
623,C#2,99.0,0.031,70,120.0
624,G#2,99.0,0.031,70,120.0
625,F#3,99.5,0.5,89,120.0
626,G#2,99.5,0.031,30,120.0
627,E8,99.5,0.031,85,120.0
628,D2,100.0,1.25,124,120.0
629,F#3,100.0,479/1000,89,120.0
630,E8,100.0,0.031,85,120.0
631,B1,100.0,0.031,52,120.0
632,G#2,100.0,0.031,52,120.0
633,A3,100.5,1479/1000,82,120.0
634,G#2,100.5,0.031,30,120.0
635,C#2,101.0,0.031,70,120.0
636,G#2,101.0,0.031,70,120.0
637,D2,101.5,1.281,122,120.0
638,E8,101.5,0.031,85,120.0
639,B1,101.5,0.031,42,120.0
640,G#2,101.5,0.031,42,120.0
641,G#2,102.0,0.031,50,120.0
642,E8,102.0,0.031,85,120.0
643,G#2,102.5,0.031,30,120.0
644,D2,103.0,0.438,122,120.0
645,D4,103.0,479/1000,90,120.0
646,B1,103.0,0.031,61,120.0
647,C#2,103.0,0.031,61,120.0
648,G#2,103.0,0.031,61,120.0
649,C#2,103.5,479/1000,122,120.0
650,C#4,103.5,479/1000,94,120.0
651,E8,103.5,0.031,85,120.0
652,B1,103.5,0.031,25,120.0
653,G#2,103.5,0.031,25,120.0
654,B1,104.0,1177/1000,124,120.0
655,B3,104.0,979/1000,92,120.0
656,E8,104.0,0.031,85,120.0
657,B1,104.0,0.031,47,120.0
658,G#2,104.0,0.031,47,120.0
659,G#2,104.5,0.031,30,120.0
660,A3,105.0,479/1000,79,120.0
661,C#2,105.0,0.031,70,120.0
662,G#2,105.0,0.031,70,120.0
663,B1,105.5,1333/1000,123,120.0
664,A3,105.5,1479/1000,91,120.0
665,E8,105.5,0.031,85,120.0
666,B1,105.5,0.031,42,120.0
667,G#2,105.5,0.031,42,120.0
668,G#2,106.0,0.031,50,120.0
669,E8,106.0,0.031,85,120.0
670,G#2,106.5,0.031,30,120.0
671,B1,107.0,56/125,122,120.0
672,D4,107.0,479/1000,92,120.0
673,C#2,107.0,0.031,70,120.0
674,G#2,107.0,0.031,70,120.0
675,A1,107.5,0.438,123,120.0
676,C#4,107.5,479/1000,91,120.0
677,G#2,107.5,0.031,30,120.0
678,E8,107.5,0.031,85,120.0
679,G1,108.0,1271/1000,123,120.0
680,B3,108.0,479/1000,86,120.0
681,E8,108.0,0.031,85,120.0
682,B1,108.0,0.031,52,120.0
683,G#2,108.0,0.031,52,120.0
684,A3,108.5,979/1000,87,120.0
685,G#2,108.5,0.031,30,120.0
686,C#2,109.0,0.031,70,120.0
687,G#2,109.0,0.031,70,120.0
688,D2,109.5,2177/1000,123,120.0
689,A3,109.5,1479/1000,87,120.0
690,E8,109.5,0.031,85,120.0
691,B1,109.5,0.031,42,120.0
692,G#2,109.5,0.031,42,120.0
693,G#2,110.0,0.031,50,120.0
694,E8,110.0,0.031,85,120.0
695,G#2,110.5,0.031,30,120.0
696,F#3,111.0,479/1000,87,120.0
697,B1,111.0,0.031,61,120.0
698,C#2,111.0,0.031,61,120.0
699,G#2,111.0,0.031,61,120.0
700,G3,111.5,0.5,95,120.0
701,E8,111.5,0.031,85,120.0
702,B1,111.5,0.031,25,120.0
703,G#2,111.5,0.031,25,120.0
704,B1,112.0,31/25,123,120.0
705,G3,112.0,979/1000,95,120.0
706,E8,112.0,0.031,85,120.0
707,B1,112.0,0.031,47,120.0
708,G#2,112.0,0.031,47,120.0
709,G#2,112.5,0.031,30,120.0
710,F#3,113.0,479/1000,87,120.0
711,C#2,113.0,0.031,70,120.0
712,G#2,113.0,0.031,70,120.0
713,A1,113.5,1099/500,122,120.0
714,F#3,113.5,979/1000,95,120.0
715,E8,113.5,0.031,85,120.0
716,B1,113.5,0.031,42,120.0
717,G#2,113.5,0.031,42,120.0
718,G#2,114.0,0.031,50,120.0
719,E8,114.0,0.031,85,120.0
720,E3,114.5,479/1000,84,120.0
721,G#2,114.5,0.031,30,120.0
722,D3,115.0,979/1000,91,120.0
723,C#2,115.0,0.031,70,120.0
724,G#2,115.0,0.031,70,120.0
725,G#2,115.5,0.031,30,120.0
726,E8,115.5,0.031,85,120.0
727,B2,115.917,4.0,74,120.0
728,A3,115.917,4.0,74,120.0
729,D4,115.917,4.0,74,120.0
730,D2,116.0,1.219,122,120.0
731,E8,116.0,0.031,85,120.0
732,B1,116.0,0.031,52,120.0
733,G#2,116.0,0.031,52,120.0
734,G#2,116.5,0.031,30,120.0
735,C#2,117.0,0.031,70,120.0
736,G#2,117.0,0.031,70,120.0
737,D2,117.5,1.312,121,120.0
738,E8,117.5,0.031,85,120.0
739,B1,117.5,0.031,42,120.0
740,G#2,117.5,0.031,42,120.0
741,G#2,118.0,0.031,50,120.0
742,E8,118.0,0.031,85,120.0
743,G#2,118.5,0.031,30,120.0
744,D2,119.0,56/125,122,120.0
745,D4,119.0,479/1000,92,120.0
746,D4,119.0,479/1000,59,120.0
747,B1,119.0,0.031,61,120.0
748,C#2,119.0,0.031,61,120.0
749,G#2,119.0,0.031,61,120.0
750,C#2,119.5,479/1000,121,120.0
751,C#4,119.5,479/1000,94,120.0
752,C#4,119.5,479/1000,126,120.0
753,E8,119.5,0.031,85,120.0
754,B1,119.5,0.031,25,120.0
755,G#2,119.5,0.031,25,120.0
756,B1,120.0,151/125,124,120.0
757,B3,120.0,729/1000,93,120.0
758,B3,120.0,729/1000,126,120.0
759,E8,120.0,0.031,85,120.0
760,B1,120.0,0.031,47,120.0
761,G#2,120.0,0.031,47,120.0
762,G#2,120.5,0.031,30,120.0
763,A3,120.75,729/1000,88,120.0
764,A3,120.75,729/1000,99,120.0
765,C#2,121.0,0.031,70,120.0
766,G#2,121.0,0.031,70,120.0
767,B1,121.5,1.281,123,120.0
768,A3,121.5,1479/1000,87,120.0
769,A3,121.5,1479/1000,79,120.0
770,E8,121.5,0.031,85,120.0
771,B1,121.5,0.031,42,120.0
772,G#2,121.5,0.031,42,120.0
773,G#2,122.0,0.031,50,120.0
774,E8,122.0,0.031,85,120.0
775,G#2,122.5,0.031,30,120.0
776,B1,123.0,417/1000,122,120.0
777,D4,123.0,479/1000,87,120.0
778,D4,123.0,479/1000,79,120.0
779,C#2,123.0,0.031,70,120.0
780,G#2,123.0,0.031,70,120.0
781,A1,123.5,229/500,122,120.0
782,C#4,123.5,479/1000,94,120.0
783,G#2,123.5,0.031,30,120.0
784,C#4,123.5,479/1000,126,120.0
785,E8,123.5,0.031,85,120.0
786,G1,124.0,651/500,121,120.0
787,B3,124.0,729/1000,88,120.0
788,B3,124.0,729/1000,126,120.0
789,E8,124.0,0.031,85,120.0
790,B1,124.0,0.031,52,120.0
791,G#2,124.0,0.031,52,120.0
792,G#2,124.5,0.031,30,120.0
793,A3,124.75,729/1000,87,120.0
794,A3,124.75,729/1000,59,120.0
795,C#2,125.0,0.031,70,120.0
796,G#2,125.0,0.031,70,120.0
797,G1,125.5,2.188,123,120.0
798,B3,125.5,1479/1000,85,120.0
799,B3,125.5,2479/1000,79,120.0
800,E8,125.5,0.031,85,120.0
801,B1,125.5,0.031,42,120.0
802,G#2,125.5,0.031,42,120.0
803,G#2,126.0,0.031,50,120.0
804,E8,126.0,0.031,85,120.0
805,G#2,126.5,0.031,30,120.0
806,B1,127.0,0.031,61,120.0
807,C#2,127.0,0.031,61,120.0
808,G#2,127.0,0.031,61,120.0
809,D3,127.5,479/1000,75,120.0
810,E8,127.5,0.031,85,120.0
811,B1,127.5,0.031,25,120.0
812,G#2,127.5,0.031,25,120.0
813,G1,128.0,1.312,124,120.0
814,B3,128.0,979/1000,95,120.0
815,A3,128.0,73/500,109,120.0
816,E8,128.0,0.031,85,120.0
817,B1,128.0,0.031,47,120.0
818,G#2,128.0,0.031,47,120.0
819,B3,128.167,729/1000,99,120.0
820,G#2,128.5,0.031,30,120.0
821,A3,129.0,479/1000,85,120.0
822,A3,129.0,479/1000,59,120.0
823,C#2,129.0,0.031,70,120.0
824,G#2,129.0,0.031,70,120.0
825,G1,129.5,56/25,122,120.0
826,A3,129.5,1479/1000,91,120.0
827,A3,129.5,1479/1000,126,120.0
828,E8,129.5,0.031,85,120.0
829,B1,129.5,0.031,42,120.0
830,G#2,129.5,0.031,42,120.0
831,G#2,130.0,0.031,50,120.0
832,E8,130.0,0.031,85,120.0
833,G#2,130.5,0.031,30,120.0
834,D3,131.0,479/1000,79,120.0
835,D3,131.0,479/1000,59,120.0
836,C#2,131.0,0.031,70,120.0
837,G#2,131.0,0.031,70,120.0
838,F#3,131.5,0.5,90,120.0
839,G#2,131.5,0.031,30,120.0
840,E3,131.5,73/500,109,120.0
841,E8,131.5,0.031,85,120.0
842,F#3,131.667,333/1000,79,120.0
843,B2,131.896,4.0,74,120.0
844,A3,131.896,4.0,74,120.0
845,D4,131.896,4.0,74,120.0
846,D2,132.0,1333/1000,124,120.0
847,F#3,132.0,479/1000,90,120.0
848,F#3,132.0,99/250,79,120.0
849,E8,132.0,0.031,85,120.0
850,B1,132.0,0.031,52,120.0
851,G#2,132.0,0.031,52,120.0
852,A3,132.5,1479/1000,81,120.0
853,G#2,132.5,0.031,30,120.0
854,A3,132.5,2479/1000,99,120.0
855,C#2,133.0,0.031,70,120.0
856,G#2,133.0,0.031,70,120.0
857,D2,133.5,1271/1000,123,120.0
858,E8,133.5,0.031,85,120.0
859,B1,133.5,0.031,42,120.0
860,G#2,133.5,0.031,42,120.0
861,G#2,134.0,0.031,50,120.0
862,E8,134.0,0.031,85,120.0
863,G#2,134.5,0.031,30,120.0
864,D2,135.0,427/1000,122,120.0
865,D4,135.0,479/1000,90,120.0
866,D4,135.0,479/1000,59,120.0
867,B1,135.0,0.031,61,120.0
868,C#2,135.0,0.031,61,120.0
869,G#2,135.0,0.031,61,120.0
870,C#2,135.5,479/1000,122,120.0
871,C#4,135.5,479/1000,91,120.0
872,C#4,135.5,479/1000,126,120.0
873,E8,135.5,0.031,85,120.0
874,B1,135.5,0.031,25,120.0
875,G#2,135.5,0.031,25,120.0
876,B1,136.0,651/500,124,120.0
877,B3,136.0,479/1000,91,120.0
878,B3,136.0,479/1000,126,120.0
879,E8,136.0,0.031,85,120.0
880,B1,136.0,0.031,47,120.0
881,G#2,136.0,0.031,47,120.0
882,A3,136.5,979/1000,85,120.0
883,G#2,136.5,0.031,30,120.0
884,A3,136.5,979/1000,99,120.0
885,C#2,137.0,0.031,70,120.0
886,G#2,137.0,0.031,70,120.0
887,B1,137.5,1.25,124,120.0
888,A3,137.5,1479/1000,88,120.0
889,A3,137.5,1479/1000,79,120.0
890,E8,137.5,0.031,85,120.0
891,B1,137.5,0.031,42,120.0
892,G#2,137.5,0.031,42,120.0
893,G#2,138.0,0.031,50,120.0
894,E8,138.0,0.031,85,120.0
895,G#2,138.5,0.031,30,120.0
896,B1,139.0,0.469,124,120.0
897,D4,139.0,479/1000,92,120.0
898,D4,139.0,479/1000,59,120.0
899,C#2,139.0,0.031,70,120.0
900,G#2,139.0,0.031,70,120.0
901,A1,139.5,479/1000,123,120.0
902,C#4,139.5,479/1000,92,120.0
903,G#2,139.5,0.031,30,120.0
904,C#4,139.5,479/1000,126,120.0
905,E8,139.5,0.031,85,120.0
906,G1,140.0,1.281,123,120.0
907,B3,140.0,479/1000,88,120.0
908,B3,140.0,729/1000,126,120.0
909,E8,140.0,0.031,85,120.0
910,B1,140.0,0.031,52,120.0
911,G#2,140.0,0.031,52,120.0
912,A3,140.5,979/1000,84,120.0
913,G#2,140.5,0.031,30,120.0
914,A3,140.5,729/1000,99,120.0
915,C#2,141.0,0.031,70,120.0
916,G#2,141.0,0.031,70,120.0
917,D2,141.5,2.25,124,120.0
918,A3,141.5,1479/1000,87,120.0
919,A3,141.5,1479/1000,79,120.0
920,E8,141.5,0.031,85,120.0
921,B1,141.5,0.031,42,120.0
922,G#2,141.5,0.031,42,120.0
923,G#2,142.0,0.031,50,120.0
924,E8,142.0,0.031,85,120.0
925,G#2,142.5,0.031,30,120.0
926,E3,143.0,479/1000,83,120.0
927,B1,143.0,0.031,61,120.0
928,C#2,143.0,0.031,61,120.0
929,G#2,143.0,0.031,61,120.0
930,E3,143.333,0.312,79,120.0
931,F#3,143.5,479/1000,93,120.0
932,E8,143.5,0.031,85,120.0
933,B1,143.5,0.031,25,120.0
934,G#2,143.5,0.031,25,120.0
935,F#3,143.667,0.312,99,120.0
936,B2,143.875,4.0,74,120.0
937,A3,143.875,4.0,74,120.0
938,D4,143.875,4.0,74,120.0
939,B1,144.0,1271/1000,123,120.0
940,G3,144.0,729/1000,91,120.0
941,G3,144.0,729/1000,126,120.0
942,E8,144.0,0.031,85,120.0
943,B1,144.0,0.031,47,120.0
944,G#2,144.0,0.031,47,120.0
945,G#2,144.5,0.031,30,120.0
946,F#3,144.75,729/1000,81,120.0
947,F#3,144.75,729/1000,126,120.0
948,C#2,145.0,0.031,70,120.0
949,G#2,145.0,0.031,70,120.0
950,A1,145.5,1177/500,124,120.0
951,F#3,145.5,979/1000,93,120.0
952,F#3,145.5,979/1000,113,120.0
953,E8,145.5,0.031,85,120.0
954,B1,145.5,0.031,42,120.0
955,G#2,145.5,0.031,42,120.0
956,D5,146.0,2.0,62,120.0
957,G#2,146.0,0.031,50,120.0
958,E8,146.0,0.031,85,120.0
959,E3,146.5,479/1000,88,120.0
960,G#2,146.5,0.031,30,120.0
961,E3,146.5,479/1000,107,120.0
962,D3,147.0,979/1000,89,120.0
963,D3,147.0,1.0,107,120.0
964,C#2,147.0,0.031,70,120.0
965,G#2,147.0,0.031,70,120.0
966,G#2,147.5,0.031,30,120.0
967,E8,147.5,0.031,85,120.0
968,B1,148.0,651/500,123,120.0
969,D5,148.0,4.0,62,120.0
970,D3,148.0,3979/1000,107,120.0
971,E8,148.0,0.031,85,120.0
972,B1,148.0,0.031,52,120.0
973,G#2,148.0,0.031,52,120.0
974,G#2,148.5,0.031,30,120.0
975,C#2,149.0,0.031,70,120.0
976,G#2,149.0,0.031,70,120.0
977,B1,149.5,1073/500,123,120.0
978,E8,149.5,0.031,85,120.0
979,B1,149.5,0.031,42,120.0
980,G#2,149.5,0.031,42,120.0
981,G#2,150.0,0.031,50,120.0
982,E8,150.0,0.031,85,120.0
983,G#2,150.5,0.031,30,120.0
984,B1,151.0,0.031,61,120.0
985,C#2,151.0,0.031,61,120.0
986,G#2,151.0,0.031,61,120.0
987,E8,151.5,0.031,85,120.0
988,B1,151.5,0.031,25,120.0
989,G#2,151.5,0.031,25,120.0
990,B2,151.854,3979/1000,74,120.0
991,A3,151.854,3979/1000,74,120.0
992,D4,151.854,3979/1000,74,120.0
993,B1,152.0,1.344,123,120.0
994,D5,152.0,1479/1000,62,120.0
995,E8,152.0,0.031,85,120.0
996,B1,152.0,0.031,47,120.0
997,G#2,152.0,0.031,47,120.0
998,G#2,152.5,0.031,30,120.0
999,C#2,153.0,0.031,70,120.0
1000,G#2,153.0,0.031,70,120.0
1001,G1,153.5,2323/1000,123,120.0
1002,C#5,153.5,73/500,47,120.0
1003,A3,153.5,2479/1000,126,120.0
1004,E8,153.5,0.031,85,120.0
1005,B1,153.5,0.031,42,120.0
1006,G#2,153.5,0.031,42,120.0
1007,B4,153.667,0.312,54,120.0
1008,A4,154.0,729/1000,62,120.0
1009,G#2,154.0,0.031,50,120.0
1010,E8,154.0,0.031,85,120.0
1011,G#2,154.5,0.031,30,120.0
1012,B4,154.75,13/125,47,120.0
1013,A4,154.875,13/125,47,120.0
1014,G4,155.0,979/1000,62,120.0
1015,C#2,155.0,0.031,70,120.0
1016,G#2,155.0,0.031,70,120.0
1017,G#2,155.5,0.031,30,120.0
1018,E8,155.5,0.031,85,120.0
1019,A3,155.854,3979/1000,74,120.0
1020,C#4,155.854,3979/1000,74,120.0
1021,F#4,155.854,3979/1000,74,120.0
1022,D2,156.0,63/50,122,120.0
1023,A4,156.0,4.0,62,120.0
1024,D3,156.0,979/1000,79,120.0
1025,E8,156.0,0.031,85,120.0
1026,B1,156.0,0.031,52,120.0
1027,G#2,156.0,0.031,52,120.0
1028,G#2,156.5,0.031,30,120.0
1029,C#2,157.0,0.031,70,120.0
1030,G#2,157.0,0.031,70,120.0
1031,F#3,157.0,479/1000,79,120.0
1032,D4,157.0,479/1000,79,120.0
1033,D2,157.5,477/200,122,120.0
1034,E8,157.5,0.031,85,120.0
1035,B1,157.5,0.031,42,120.0
1036,G#2,157.5,0.031,42,120.0
1037,G3,157.5,1479/1000,102,120.0
1038,D4,157.5,1479/1000,102,120.0
1039,G#2,158.0,0.031,50,120.0
1040,E8,158.0,0.031,85,120.0
1041,G#2,158.5,0.031,30,120.0
1042,B1,159.0,0.031,61,120.0
1043,C#2,159.0,0.031,61,120.0
1044,G#2,159.0,0.031,61,120.0
1045,F#3,159.0,979/1000,89,120.0
1046,D4,159.0,979/1000,89,120.0
1047,E8,159.5,0.031,85,120.0
1048,B1,159.5,0.031,25,120.0
1049,G#2,159.5,0.031,25,120.0
1050,B3,159.854,4.0,74,120.0
1051,D4,159.854,4.0,74,120.0
1052,G4,159.854,4.0,74,120.0
1053,D2,160.0,31/25,123,120.0
1054,A4,160.0,4.0,62,120.0
1055,E8,160.0,0.031,85,120.0
1056,B1,160.0,0.031,47,120.0
1057,G#2,160.0,0.031,47,120.0
1058,D3,160.0,3979/1000,69,120.0
1059,A3,160.0,3979/1000,69,120.0
1060,G#2,160.5,0.031,30,120.0
1061,C#2,161.0,0.031,70,120.0
1062,G#2,161.0,0.031,70,120.0
1063,D2,161.5,1333/1000,122,120.0
1064,E8,161.5,0.031,85,120.0
1065,B1,161.5,0.031,42,120.0
1066,G#2,161.5,0.031,42,120.0
1067,G#2,162.0,0.031,50,120.0
1068,E8,162.0,0.031,85,120.0
1069,G#2,162.5,0.031,30,120.0
1070,D2,163.0,0.406,121,120.0
1071,D4,163.0,479/1000,94,120.0
1072,C#2,163.0,0.031,70,120.0
1073,G#2,163.0,0.031,70,120.0
1074,C#2,163.5,479/1000,121,120.0
1075,C#4,163.5,479/1000,95,120.0
1076,G#2,163.5,0.031,30,120.0
1077,E8,163.5,0.031,85,120.0
1078,B1,164.0,599/500,123,120.0
1079,A4,164.0,3979/1000,62,120.0
1080,B3,164.0,479/1000,92,120.0
1081,E8,164.0,0.031,85,120.0
1082,B1,164.0,0.031,52,120.0
1083,G#2,164.0,0.031,52,120.0
1084,A4,164.25,729/1000,79,120.0
1085,A3,164.5,979/1000,87,120.0
1086,G#2,164.5,0.031,30,120.0
1087,F#4,164.5,729/1000,79,120.0
1088,D4,164.75,729/1000,59,120.0
1089,A4,165.0,729/1000,89,120.0
1090,C#2,165.0,0.031,70,120.0
1091,G#2,165.0,0.031,70,120.0
1092,F#4,165.25,729/1000,79,120.0
1093,B1,165.5,1.281,124,120.0
1094,A3,165.5,1479/1000,91,120.0
1095,D4,165.5,729/1000,59,120.0
1096,E8,165.5,0.031,85,120.0
1097,B1,165.5,0.031,42,120.0
1098,G#2,165.5,0.031,42,120.0
1099,A4,165.75,729/1000,99,120.0
1100,G#2,166.0,0.031,50,120.0
1101,F#4,166.0,729/1000,79,120.0
1102,E8,166.0,0.031,85,120.0
1103,D4,166.25,729/1000,59,120.0
1104,G#2,166.5,0.031,30,120.0
1105,A4,166.5,729/1000,109,120.0
1106,F#4,166.75,729/1000,79,120.0
1107,B1,167.0,99/250,123,120.0
1108,D4,167.0,479/1000,92,120.0
1109,D4,167.0,729/1000,59,120.0
1110,B1,167.0,0.031,61,120.0
1111,C#2,167.0,0.031,61,120.0
1112,G#2,167.0,0.031,61,120.0
1113,A4,167.25,729/1000,119,120.0
1114,A1,167.5,0.438,122,120.0
1115,C#4,167.5,479/1000,93,120.0
1116,F#4,167.5,0.5,79,120.0
1117,E8,167.5,0.031,85,120.0
1118,B1,167.5,0.031,25,120.0
1119,G#2,167.5,0.031,25,120.0
1120,D4,167.75,0.25,59,120.0
1121,B3,167.833,3979/1000,74,120.0
1122,D4,167.833,3979/1000,74,120.0
1123,G4,167.833,3979/1000,74,120.0
1124,G1,168.0,31/25,123,120.0
1125,B3,168.0,979/1000,91,120.0
1126,G4,168.0,479/1000,79,120.0
1127,F#4,168.0,229/1000,79,120.0
1128,D4,168.0,479/1000,59,120.0
1129,E8,168.0,0.031,85,120.0
1130,B1,168.0,0.031,47,120.0
1131,G#2,168.0,0.031,47,120.0
1132,A4,168.25,729/1000,109,120.0
1133,G#2,168.5,0.031,30,120.0
1134,G4,168.5,229/1000,79,120.0
1135,D4,168.75,729/1000,59,120.0
1136,A3,169.0,479/1000,81,120.0
1137,A4,169.0,729/1000,99,120.0
1138,C#2,169.0,0.031,70,120.0
1139,G#2,169.0,0.031,70,120.0
1140,G4,169.25,729/1000,79,120.0
1141,G1,169.5,2.281,122,120.0
1142,B3,169.5,1479/1000,92,120.0
1143,D4,169.5,729/1000,59,120.0
1144,E8,169.5,0.031,85,120.0
1145,B1,169.5,0.031,42,120.0
1146,G#2,169.5,0.031,42,120.0
1147,A4,169.75,729/1000,89,120.0
1148,G#2,170.0,0.031,50,120.0
1149,G4,170.0,729/1000,79,120.0
1150,E8,170.0,0.031,85,120.0
1151,D4,170.25,729/1000,59,120.0
1152,G#2,170.5,0.031,30,120.0
1153,A4,170.5,729/1000,79,120.0
1154,G4,170.75,729/1000,79,120.0
1155,D4,171.0,729/1000,59,120.0
1156,C#2,171.0,0.031,70,120.0
1157,G#2,171.0,0.031,70,120.0
1158,A4,171.25,729/1000,89,120.0
1159,D3,171.5,479/1000,82,120.0
1160,G#2,171.5,0.031,30,120.0
1161,G4,171.5,479/1000,79,120.0
1162,E8,171.5,0.031,85,120.0
1163,D4,171.75,0.25,59,120.0
1164,A3,171.833,3979/1000,74,120.0
1165,D4,171.833,3979/1000,74,120.0
1166,F#4,171.833,3979/1000,74,120.0
1167,G1,172.0,677/500,123,120.0
1168,B3,172.0,979/1000,96,120.0
1169,G4,172.0,229/1000,79,120.0
1170,D4,172.0,37/50,59,120.0
1171,E8,172.0,0.031,85,120.0
1172,B1,172.0,0.031,52,120.0
1173,G#2,172.0,0.031,52,120.0
1174,A4,172.25,729/1000,109,120.0
1175,G#2,172.5,0.031,30,120.0
1176,G4,172.5,229/1000,79,120.0
1177,D4,172.75,229/1000,59,120.0
1178,A3,173.0,479/1000,84,120.0
1179,A4,173.0,729/1000,119,120.0
1180,C#2,173.0,0.031,70,120.0
1181,G#2,173.0,0.031,70,120.0
1182,G4,173.25,729/1000,79,120.0
1183,G1,173.5,477/200,124,120.0
1184,A3,173.5,1479/1000,91,120.0
1185,D4,173.5,729/1000,59,120.0
1186,E8,173.5,0.031,85,120.0
1187,B1,173.5,0.031,42,120.0
1188,G#2,173.5,0.031,42,120.0
1189,A4,173.75,729/1000,109,120.0
1190,G#2,174.0,0.031,50,120.0
1191,G4,174.0,729/1000,79,120.0
1192,E8,174.0,0.031,85,120.0
1193,D4,174.25,729/1000,59,120.0
1194,G#2,174.5,0.031,30,120.0
1195,A4,174.5,729/1000,99,120.0
1196,G4,174.75,729/1000,79,120.0
1197,D3,175.0,479/1000,75,120.0
1198,D4,175.0,729/1000,59,120.0
1199,B1,175.0,0.031,61,120.0
1200,C#2,175.0,0.031,61,120.0
1201,G#2,175.0,0.031,61,120.0
1202,A4,175.25,729/1000,89,120.0
1203,F#3,175.5,0.5,90,120.0
1204,G4,175.5,0.5,79,120.0
1205,E8,175.5,0.031,85,120.0
1206,B1,175.5,0.031,25,120.0
1207,G#2,175.5,0.031,25,120.0
1208,D4,175.75,0.25,59,120.0
1209,A3,175.833,3979/1000,74,120.0
1210,C#4,175.833,3979/1000,74,120.0
1211,F#4,175.833,3979/1000,74,120.0
1212,D2,176.0,63/50,121,120.0
1213,F#3,176.0,479/1000,90,120.0
1214,F#4,176.0,479/1000,59,120.0
1215,G4,176.0,229/1000,79,120.0
1216,D4,176.0,729/1000,59,120.0
1217,E8,176.0,0.031,85,120.0
1218,B1,176.0,0.031,47,120.0
1219,G#2,176.0,0.031,47,120.0
1220,A4,176.25,729/1000,79,120.0
1221,A3,176.5,1479/1000,89,120.0
1222,G#2,176.5,0.031,30,120.0
1223,F#4,176.5,729/1000,79,120.0
1224,D4,176.75,729/1000,59,120.0
1225,A4,177.0,729/1000,89,120.0
1226,C#2,177.0,0.031,70,120.0
1227,G#2,177.0,0.031,70,120.0
1228,F#4,177.25,729/1000,79,120.0
1229,D2,177.5,1.312,122,120.0
1230,D4,177.5,729/1000,59,120.0
1231,E8,177.5,0.031,85,120.0
1232,B1,177.5,0.031,42,120.0
1233,G#2,177.5,0.031,42,120.0
1234,A4,177.75,729/1000,99,120.0
1235,G#2,178.0,0.031,50,120.0
1236,F#4,178.0,729/1000,79,120.0
1237,E8,178.0,0.031,85,120.0
1238,D4,178.25,729/1000,59,120.0
1239,G#2,178.5,0.031,30,120.0
1240,A4,178.5,729/1000,109,120.0
1241,F#4,178.75,729/1000,79,120.0
1242,D2,179.0,0.438,121,120.0
1243,D4,179.0,479/1000,92,120.0
1244,D4,179.0,729/1000,59,120.0
1245,C#2,179.0,0.031,70,120.0
1246,G#2,179.0,0.031,70,120.0
1247,A4,179.25,729/1000,119,120.0
1248,C#2,179.5,479/1000,121,120.0
1249,C#4,179.5,479/1000,94,120.0
1250,G#2,179.5,0.031,30,120.0
1251,F#4,179.5,0.5,79,120.0
1252,E8,179.5,0.031,85,120.0
1253,D4,179.75,0.25,59,120.0
1254,B3,179.833,1479/1000,74,120.0
1255,D4,179.833,1479/1000,74,120.0
1256,G4,179.833,1479/1000,74,120.0
1257,B1,180.0,651/500,124,120.0
1258,B3,180.0,979/1000,92,120.0
1259,F#4,180.0,229/1000,79,120.0
1260,D4,180.0,479/1000,59,120.0
1261,E8,180.0,0.031,85,120.0
1262,B1,180.0,0.031,52,120.0
1263,G#2,180.0,0.031,52,120.0
1264,A4,180.25,729/1000,79,120.0
1265,G#2,180.5,0.031,30,120.0
1266,F#4,180.5,729/1000,79,120.0
1267,D4,180.75,729/1000,59,120.0
1268,A3,181.0,479/1000,77,120.0
1269,A4,181.0,729/1000,89,120.0
1270,C#2,181.0,0.031,70,120.0
1271,G#2,181.0,0.031,70,120.0
1272,F#4,181.25,729/1000,79,120.0
1273,F#3,181.333,2479/1000,74,120.0
1274,A3,181.333,2479/1000,74,120.0
1275,D4,181.333,2479/1000,74,120.0
1276,B1,181.5,1.312,123,120.0
1277,A3,181.5,1479/1000,78,120.0
1278,D4,181.5,729/1000,59,120.0
1279,E8,181.5,0.031,85,120.0
1280,B1,181.5,0.031,42,120.0
1281,G#2,181.5,0.031,42,120.0
1282,A4,181.75,729/1000,99,120.0
1283,G#2,182.0,0.031,50,120.0
1284,F#4,182.0,729/1000,79,120.0
1285,E8,182.0,0.031,85,120.0
1286,D4,182.25,729/1000,59,120.0
1287,G#2,182.5,0.031,30,120.0
1288,A4,182.5,729/1000,109,120.0
1289,F#4,182.75,729/1000,79,120.0
1290,B1,183.0,229/500,121,120.0
1291,D4,183.0,479/1000,92,120.0
1292,D4,183.0,729/1000,59,120.0
1293,B1,183.0,0.031,61,120.0
1294,C#2,183.0,0.031,61,120.0
1295,G#2,183.0,0.031,61,120.0
1296,A4,183.25,729/1000,119,120.0
1297,A1,183.5,229/500,122,120.0
1298,C#4,183.5,479/1000,94,120.0
1299,F#4,183.5,0.5,79,120.0
1300,E8,183.5,0.031,85,120.0
1301,B1,183.5,0.031,25,120.0
1302,G#2,183.5,0.031,25,120.0
1303,D4,183.75,0.25,59,120.0
1304,G3,183.833,1479/1000,74,120.0
1305,B3,183.833,1479/1000,74,120.0
1306,D4,183.833,1479/1000,74,120.0
1307,G1,184.0,1417/1000,122,120.0
1308,B3,184.0,479/1000,91,120.0
1309,F#4,184.0,229/1000,79,120.0
1310,D4,184.0,479/1000,59,120.0
1311,E8,184.0,0.031,85,120.0
1312,B1,184.0,0.031,47,120.0
1313,G#2,184.0,0.031,47,120.0
1314,A4,184.25,729/1000,109,120.0
1315,A3,184.5,979/1000,87,120.0
1316,G#2,184.5,0.031,30,120.0
1317,G4,184.5,729/1000,79,120.0
1318,D4,184.75,729/1000,59,120.0
1319,A4,185.0,729/1000,99,120.0
1320,C#2,185.0,0.031,70,120.0
1321,G#2,185.0,0.031,70,120.0
1322,G4,185.25,729/1000,79,120.0
1323,A3,185.333,2479/1000,74,120.0
1324,C#4,185.333,2479/1000,74,120.0
1325,E4,185.333,2479/1000,74,120.0
1326,D2,185.5,2.219,123,120.0
1327,A3,185.5,1479/1000,84,120.0
1328,D4,185.5,729/1000,59,120.0
1329,E8,185.5,0.031,85,120.0
1330,B1,185.5,0.031,42,120.0
1331,G#2,185.5,0.031,42,120.0
1332,A4,185.75,479/1000,89,120.0
1333,G#2,186.0,0.031,50,120.0
1334,F#4,186.0,479/1000,79,120.0
1335,E8,186.0,0.031,85,120.0
1336,A4,186.25,229/1000,79,120.0
1337,G#2,186.5,0.031,30,120.0
1338,F#4,186.5,229/1000,79,120.0
1339,D4,186.75,729/1000,59,120.0
1340,F#3,187.0,479/1000,89,120.0
1341,A4,187.0,729/1000,89,120.0
1342,C#2,187.0,0.031,70,120.0
1343,G#2,187.0,0.031,70,120.0
1344,F#4,187.25,729/1000,79,120.0
1345,G3,187.5,0.5,94,120.0
1346,G#2,187.5,0.031,30,120.0
1347,D4,187.5,479/1000,59,120.0
1348,E8,187.5,0.031,85,120.0
1349,A4,187.75,0.25,59,120.0
1350,A3,187.833,4.0,74,120.0
1351,D4,187.833,4.0,74,120.0
1352,B1,188.0,1.312,123,120.0
1353,G3,188.0,979/1000,94,120.0
1354,D4,188.0,229/1000,59,120.0
1355,A4,188.0,229/1000,59,120.0
1356,E8,188.0,0.031,85,120.0
1357,B1,188.0,0.031,52,120.0
1358,G#2,188.0,0.031,52,120.0
1359,A4,188.25,479/1000,109,120.0
1360,G#2,188.5,0.031,30,120.0
1361,G4,188.5,729/1000,79,120.0
1362,D4,188.75,729/1000,59,120.0
1363,F#3,189.0,479/1000,87,120.0
1364,A4,189.0,229/1000,119,120.0
1365,C#2,189.0,0.031,70,120.0
1366,G#2,189.0,0.031,70,120.0
1367,G4,189.25,729/1000,79,120.0
1368,A1,189.5,1073/500,123,120.0
1369,F#3,189.5,979/1000,89,120.0
1370,D4,189.5,49/100,59,120.0
1371,E8,189.5,0.031,85,120.0
1372,B1,189.5,0.031,42,120.0
1373,G#2,189.5,0.031,42,120.0
1374,E4,189.75,729/1000,109,120.0
1375,G#2,190.0,0.031,50,120.0
1376,D4,190.0,229/1000,79,120.0
1377,E8,190.0,0.031,85,120.0
1378,A3,190.25,729/1000,59,120.0
1379,E3,190.5,479/1000,85,120.0
1380,G#2,190.5,0.031,30,120.0
1381,E4,190.5,729/1000,99,120.0
1382,D4,190.75,729/1000,79,120.0
1383,A4,190.833,1.0,74,120.0
1384,D3,191.0,979/1000,85,120.0
1385,A3,191.0,729/1000,59,120.0
1386,B1,191.0,0.031,61,120.0
1387,C#2,191.0,0.031,61,120.0
1388,G#2,191.0,0.031,61,120.0
1389,E4,191.25,479/1000,89,120.0
1390,D4,191.5,0.5,79,120.0
1391,E8,191.5,0.031,85,120.0
1392,B1,191.5,0.031,25,120.0
1393,G#2,191.5,0.031,25,120.0
1394,E4,191.75,229/1000,79,120.0
1395,D2,192.0,651/500,121,120.0
1396,A3,192.0,229/1000,59,120.0
1397,D4,192.0,479/1000,79,120.0
1398,E8,192.0,0.031,85,120.0
1399,B1,192.0,0.031,47,120.0
1400,G#2,192.0,0.031,47,120.0
1401,E4,192.25,729/1000,79,120.0
1402,G#2,192.5,0.031,30,120.0
1403,D4,192.5,229/1000,79,120.0
1404,A3,192.75,729/1000,59,120.0
1405,E4,193.0,729/1000,89,120.0
1406,C#2,193.0,0.031,70,120.0
1407,G#2,193.0,0.031,70,120.0
1408,D4,193.25,729/1000,79,120.0
1409,D2,193.5,1.312,123,120.0
1410,A3,193.5,729/1000,59,120.0
1411,E8,193.5,0.031,85,120.0
1412,B1,193.5,0.031,42,120.0
1413,G#2,193.5,0.031,42,120.0
1414,E4,193.75,729/1000,99,120.0
1415,G#2,194.0,0.031,50,120.0
1416,D4,194.0,729/1000,79,120.0
1417,E8,194.0,0.031,85,120.0
1418,A3,194.25,729/1000,59,120.0
1419,G#2,194.5,0.031,30,120.0
1420,E4,194.5,729/1000,109,120.0
1421,D4,194.75,729/1000,79,120.0
1422,D2,195.0,0.938,123,120.0
1423,A3,195.0,729/1000,59,120.0
1424,C#2,195.0,0.031,70,120.0
1425,G#2,195.0,0.031,70,120.0
1426,E4,195.25,729/1000,119,120.0
1427,G#2,195.5,0.031,30,120.0
1428,D4,195.5,0.5,79,120.0
1429,E8,195.5,0.031,85,120.0
1430,A3,195.75,0.25,59,120.0
1431,G1,196.0,651/500,120,120.0
1432,A4,196.0,979/1000,119,120.0
1433,D4,196.0,229/1000,79,120.0
1434,A3,196.0,479/1000,59,120.0
1435,E8,196.0,0.031,85,120.0
1436,B1,196.0,0.031,52,120.0
1437,G#2,196.0,0.031,52,120.0
1438,D4,196.25,479/1000,89,120.0
1439,G#2,196.5,0.031,30,120.0
1440,A3,196.5,979/1000,79,120.0
1441,D4,196.75,479/1000,59,120.0
1442,A4,197.0,979/1000,119,120.0
1443,C#2,197.0,0.031,70,120.0
1444,G#2,197.0,0.031,70,120.0
1445,D4,197.25,479/1000,89,120.0
1446,G1,197.5,2417/1000,124,120.0
1447,A3,197.5,479/1000,90,120.0
1448,A3,197.5,979/1000,79,120.0
1449,E8,197.5,0.031,85,120.0
1450,B1,197.5,0.031,42,120.0
1451,G#2,197.5,0.031,42,120.0
1452,D4,197.75,479/1000,59,120.0
1453,A3,198.0,479/1000,91,120.0
1454,G#2,198.0,0.031,50,120.0
1455,A4,198.0,979/1000,119,120.0
1456,E8,198.0,0.031,85,120.0
1457,D4,198.25,479/1000,89,120.0
1458,A3,198.5,479/1000,91,120.0
1459,G#2,198.5,0.031,30,120.0
1460,A3,198.5,979/1000,79,120.0
1461,D4,198.75,479/1000,59,120.0
1462,A3,199.0,979/1000,95,120.0
1463,A4,199.0,979/1000,119,120.0
1464,B1,199.0,0.031,61,120.0
1465,C#2,199.0,0.031,61,120.0
1466,G#2,199.0,0.031,61,120.0
1467,D4,199.25,479/1000,89,120.0
1468,A3,199.5,0.5,79,120.0
1469,E8,199.5,0.031,85,120.0
1470,B1,199.5,0.031,25,120.0
1471,G#2,199.5,0.031,25,120.0
1472,D4,199.75,0.25,59,120.0
1473,D2,200.0,651/500,123,120.0
1474,B3,200.0,479/1000,91,120.0
1475,A4,200.0,979/1000,119,120.0
1476,A3,200.0,479/1000,79,120.0
1477,D4,200.0,229/1000,59,120.0
1478,E8,200.0,0.031,85,120.0
1479,B1,200.0,0.031,47,120.0
1480,G#2,200.0,0.031,47,120.0
1481,D4,200.25,479/1000,89,120.0
1482,A3,200.5,479/1000,81,120.0
1483,G#2,200.5,0.031,30,120.0
1484,A3,200.5,979/1000,79,120.0
1485,D4,200.75,479/1000,59,120.0
1486,A3,201.0,979/1000,89,120.0
1487,A4,201.0,979/1000,119,120.0
1488,C#2,201.0,0.031,70,120.0
1489,G#2,201.0,0.031,70,120.0
1490,D4,201.25,479/1000,89,120.0
1491,D2,201.5,2417/1000,122,120.0
1492,A3,201.5,979/1000,79,120.0
1493,E8,201.5,0.031,85,120.0
1494,B1,201.5,0.031,42,120.0
1495,G#2,201.5,0.031,42,120.0
1496,D4,201.75,479/1000,59,120.0
1497,A3,202.0,979/1000,90,120.0
1498,G#2,202.0,0.031,50,120.0
1499,A4,202.0,979/1000,119,120.0
1500,E8,202.0,0.031,85,120.0
1501,D4,202.25,479/1000,89,120.0
1502,G#2,202.5,0.031,30,120.0
1503,A3,202.5,979/1000,79,120.0
1504,D4,202.75,479/1000,59,120.0
1505,D3,203.0,979/1000,83,120.0
1506,A4,203.0,979/1000,119,120.0
1507,C#2,203.0,0.031,70,120.0
1508,G#2,203.0,0.031,70,120.0
1509,D4,203.25,479/1000,89,120.0
1510,G#2,203.5,0.031,30,120.0
1511,A3,203.5,0.5,79,120.0
1512,E8,203.5,0.031,85,120.0
1513,D4,203.75,0.25,59,120.0
1514,A4,203.812,4.0,74,120.0
1515,A3,203.812,4.0,74,120.0
1516,D4,203.812,4.0,74,120.0
1517,G1,204.0,1271/1000,120,120.0
1518,A4,204.0,979/1000,119,120.0
1519,A3,204.0,479/1000,79,120.0
1520,D4,204.0,229/1000,59,120.0
1521,E8,204.0,0.031,85,120.0
1522,B1,204.0,0.031,52,120.0
1523,G#2,204.0,0.031,52,120.0
1524,D4,204.25,479/1000,89,120.0
1525,G#2,204.5,0.031,30,120.0
1526,A3,204.5,979/1000,79,120.0
1527,D4,204.75,479/1000,59,120.0
1528,A4,205.0,979/1000,119,120.0
1529,C#2,205.0,0.031,70,120.0
1530,G#2,205.0,0.031,70,120.0
1531,D4,205.25,479/1000,89,120.0
1532,G1,205.5,2417/1000,124,120.0
1533,A3,205.5,479/1000,81,120.0
1534,A3,205.5,979/1000,79,120.0
1535,E8,205.5,0.031,85,120.0
1536,B1,205.5,0.031,42,120.0
1537,G#2,205.5,0.031,42,120.0
1538,D4,205.75,479/1000,59,120.0
1539,A3,206.0,479/1000,91,120.0
1540,G#2,206.0,0.031,50,120.0
1541,A4,206.0,979/1000,119,120.0
1542,E8,206.0,0.031,85,120.0
1543,D4,206.25,479/1000,89,120.0
1544,A3,206.5,479/1000,94,120.0
1545,G#2,206.5,0.031,30,120.0
1546,A3,206.5,979/1000,79,120.0
1547,D4,206.75,479/1000,59,120.0
1548,A3,207.0,979/1000,93,120.0
1549,A4,207.0,979/1000,119,120.0
1550,B1,207.0,0.031,61,120.0
1551,C#2,207.0,0.031,61,120.0
1552,G#2,207.0,0.031,61,120.0
1553,D4,207.25,479/1000,89,120.0
1554,A3,207.5,0.5,79,120.0
1555,E8,207.5,0.031,85,120.0
1556,B1,207.5,0.031,25,120.0
1557,G#2,207.5,0.031,25,120.0
1558,D4,207.75,0.25,59,120.0
1559,F#3,207.812,4.0,74,120.0
1560,A4,207.812,4.0,74,120.0
1561,A3,207.812,4.0,74,120.0
1562,D4,207.812,4.0,74,120.0
1563,D2,208.0,1.281,122,120.0
1564,B3,208.0,479/1000,92,120.0
1565,A4,208.0,979/1000,119,120.0
1566,A3,208.0,479/1000,79,120.0
1567,D4,208.0,229/1000,59,120.0
1568,E8,208.0,0.031,85,120.0
1569,B1,208.0,0.031,47,120.0
1570,G#2,208.0,0.031,47,120.0
1571,D4,208.25,479/1000,89,120.0
1572,A3,208.5,479/1000,90,120.0
1573,G#2,208.5,0.031,30,120.0
1574,A3,208.5,979/1000,79,120.0
1575,D4,208.75,479/1000,59,120.0
1576,A3,209.0,979/1000,85,120.0
1577,A4,209.0,979/1000,119,120.0
1578,C#2,209.0,0.031,70,120.0
1579,G#2,209.0,0.031,70,120.0
1580,D4,209.25,479/1000,89,120.0
1581,D2,209.5,306/125,122,120.0
1582,A3,209.5,979/1000,79,120.0
1583,E8,209.5,0.031,85,120.0
1584,B1,209.5,0.031,42,120.0
1585,G#2,209.5,0.031,42,120.0
1586,D4,209.75,479/1000,59,120.0
1587,A3,210.0,979/1000,91,120.0
1588,G#2,210.0,0.031,50,120.0
1589,A4,210.0,979/1000,119,120.0
1590,E8,210.0,0.031,85,120.0
1591,D4,210.25,479/1000,89,120.0
1592,G#2,210.5,0.031,30,120.0
1593,A3,210.5,979/1000,79,120.0
1594,D4,210.75,479/1000,59,120.0
1595,D3,211.0,979/1000,82,120.0
1596,A4,211.0,979/1000,119,120.0
1597,C#2,211.0,0.031,70,120.0
1598,G#2,211.0,0.031,70,120.0
1599,D4,211.25,479/1000,89,120.0
1600,G#2,211.5,0.031,30,120.0
1601,A3,211.5,0.5,79,120.0
1602,E8,211.5,0.031,85,120.0
1603,D4,211.75,0.25,59,120.0
1604,F#3,211.812,3979/1000,74,120.0
1605,A4,211.812,3979/1000,74,120.0
1606,A3,211.812,3979/1000,74,120.0
1607,D4,211.812,3979/1000,74,120.0
1608,G1,212.0,1.312,123,120.0
1609,A4,212.0,979/1000,119,120.0
1610,A3,212.0,479/1000,79,120.0
1611,D4,212.0,229/1000,59,120.0
1612,E8,212.0,0.031,85,120.0
1613,B1,212.0,0.031,52,120.0
1614,G#2,212.0,0.031,52,120.0
1615,D4,212.25,479/1000,89,120.0
1616,E3,212.5,479/1000,80,120.0
1617,G#2,212.5,0.031,30,120.0
1618,A3,212.5,979/1000,79,120.0
1619,D4,212.75,479/1000,59,120.0
1620,A3,213.0,479/1000,95,120.0
1621,A4,213.0,979/1000,119,120.0
1622,C#2,213.0,0.031,70,120.0
1623,G#2,213.0,0.031,70,120.0
1624,D4,213.25,479/1000,89,120.0
1625,G1,213.5,2.406,123,120.0
1626,A3,213.5,1479/1000,95,120.0
1627,A3,213.5,979/1000,79,120.0
1628,E8,213.5,0.031,85,120.0
1629,B1,213.5,0.031,42,120.0
1630,G#2,213.5,0.031,42,120.0
1631,D4,213.75,479/1000,59,120.0
1632,G#2,214.0,0.031,50,120.0
1633,A4,214.0,979/1000,119,120.0
1634,E8,214.0,0.031,85,120.0
1635,D4,214.25,479/1000,89,120.0
1636,G#2,214.5,0.031,30,120.0
1637,A3,214.5,979/1000,79,120.0
1638,D4,214.75,479/1000,59,120.0
1639,A3,215.0,479/1000,82,120.0
1640,A4,215.0,979/1000,119,120.0
1641,B1,215.0,0.031,61,120.0
1642,C#2,215.0,0.031,61,120.0
1643,G#2,215.0,0.031,61,120.0
1644,D4,215.25,479/1000,89,120.0
1645,A3,215.5,479/1000,86,120.0
1646,A3,215.5,0.5,79,120.0
1647,E8,215.5,0.031,85,120.0
1648,B1,215.5,0.031,25,120.0
1649,G#2,215.5,0.031,25,120.0
1650,D4,215.75,0.25,59,120.0
1651,C#4,215.812,1479/1000,74,120.0
1652,A3,215.812,3979/1000,74,120.0
1653,F#4,215.812,3979/1000,74,120.0
1654,D2,216.0,1.25,120,120.0
1655,B3,216.0,979/1000,94,120.0
1656,A4,216.0,979/1000,119,120.0
1657,A3,216.0,479/1000,79,120.0
1658,D4,216.0,229/1000,59,120.0
1659,E8,216.0,0.031,85,120.0
1660,B1,216.0,0.031,47,120.0
1661,G#2,216.0,0.031,47,120.0
1662,D4,216.25,479/1000,89,120.0
1663,G#2,216.5,0.031,30,120.0
1664,A3,216.5,979/1000,79,120.0
1665,D4,216.75,479/1000,59,120.0
1666,A3,217.0,979/1000,92,120.0
1667,A4,217.0,979/1000,119,120.0
1668,C#2,217.0,0.031,70,120.0
1669,G#2,217.0,0.031,70,120.0
1670,D4,217.25,479/1000,89,120.0
1671,B3,217.312,2479/1000,74,120.0
1672,D2,217.5,573/250,120,120.0
1673,A3,217.5,979/1000,79,120.0
1674,E8,217.5,0.031,85,120.0
1675,B1,217.5,0.031,42,120.0
1676,G#2,217.5,0.031,42,120.0
1677,D4,217.75,479/1000,59,120.0
1678,A3,218.0,979/1000,94,120.0
1679,G#2,218.0,0.031,50,120.0
1680,E8,218.0,0.031,85,120.0
1681,G#2,218.5,0.031,30,120.0
1682,F#3,219.0,479/1000,89,120.0
1683,F#4,219.0,479/1000,79,120.0
1684,C#2,219.0,0.031,70,120.0
1685,G#2,219.0,0.031,70,120.0
1686,G3,219.5,0.5,94,120.0
1687,G#2,219.5,0.031,30,120.0
1688,G4,219.5,0.5,126,120.0
1689,E8,219.5,0.031,85,120.0
1690,B3,219.812,4.0,74,120.0
1691,D4,219.812,4.0,74,120.0
1692,G4,219.812,4.0,74,120.0
1693,B1,220.0,1.375,123,120.0
1694,G3,220.0,979/1000,94,120.0
1695,G4,220.0,979/1000,126,120.0
1696,E8,220.0,0.031,85,120.0
1697,B1,220.0,0.031,52,120.0
1698,G#2,220.0,0.031,52,120.0
1699,G#2,220.5,0.031,30,120.0
1700,F#3,221.0,479/1000,91,120.0
1701,F#4,221.0,479/1000,59,120.0
1702,C#2,221.0,0.031,70,120.0
1703,G#2,221.0,0.031,70,120.0
1704,A1,221.5,599/250,123,120.0
1705,F#3,221.5,979/1000,93,120.0
1706,F#4,221.5,979/1000,99,120.0
1707,E8,221.5,0.031,85,120.0
1708,B1,221.5,0.031,42,120.0
1709,G#2,221.5,0.031,42,120.0
1710,G#2,222.0,0.031,50,120.0
1711,E8,222.0,0.031,85,120.0
1712,E3,222.5,479/1000,87,120.0
1713,G#2,222.5,0.031,30,120.0
1714,E4,222.5,479/1000,59,120.0
1715,D3,223.0,979/1000,87,120.0
1716,D4,223.0,1.0,79,120.0
1717,B1,223.0,0.031,61,120.0
1718,C#2,223.0,0.031,61,120.0
1719,G#2,223.0,0.031,61,120.0
1720,E8,223.5,0.031,85,120.0
1721,B1,223.5,0.031,25,120.0
1722,G#2,223.5,0.031,25,120.0
1723,D2,224.0,1.281,123,120.0
1724,D4,224.0,3979/1000,79,120.0
1725,E8,224.0,0.031,85,120.0
1726,B1,224.0,0.031,47,120.0
1727,G#2,224.0,0.031,47,120.0
1728,G#2,224.5,0.031,30,120.0
1729,C#2,225.0,0.031,70,120.0
1730,G#2,225.0,0.031,70,120.0
1731,D2,225.5,2.25,122,120.0
1732,E8,225.5,0.031,85,120.0
1733,B1,225.5,0.031,42,120.0
1734,G#2,225.5,0.031,42,120.0
1735,G#2,226.0,0.031,50,120.0
1736,E8,226.0,0.031,85,120.0
1737,G#2,226.5,0.031,30,120.0
1738,D3,227.0,0.312,79,120.0
1739,C#2,227.0,0.031,70,120.0
1740,G#2,227.0,0.031,70,120.0
1741,E3,227.333,0.312,87,120.0
1742,G#2,227.5,0.031,30,120.0
1743,E8,227.5,0.031,85,120.0
1744,F#3,227.667,0.312,95,120.0
1745,B3,227.792,3979/1000,74,120.0
1746,D4,227.792,3979/1000,74,120.0
1747,G4,227.792,3979/1000,74,120.0
1748,B1,228.0,1167/1000,122,120.0
1749,G3,228.0,979/1000,95,120.0
1750,G4,228.0,979/1000,126,120.0
1751,E8,228.0,0.031,85,120.0
1752,B1,228.0,0.031,52,120.0
1753,G#2,228.0,0.031,52,120.0
1754,G#2,228.5,0.031,30,120.0
1755,F#3,229.0,479/1000,85,120.0
1756,F#4,229.0,479/1000,79,120.0
1757,C#2,229.0,0.031,70,120.0
1758,G#2,229.0,0.031,70,120.0
1759,A1,229.5,306/125,119,120.0
1760,F#3,229.5,979/1000,90,120.0
1761,F#4,229.5,979/1000,99,120.0
1762,E8,229.5,0.031,85,120.0
1763,B1,229.5,0.031,42,120.0
1764,G#2,229.5,0.031,42,120.0
1765,G#2,230.0,0.031,50,120.0
1766,E8,230.0,0.031,85,120.0
1767,E3,230.5,479/1000,85,120.0
1768,G#2,230.5,0.031,30,120.0
1769,E4,230.5,479/1000,59,120.0
1770,D3,231.0,979/1000,85,120.0
1771,D4,231.0,1.0,79,120.0
1772,B1,231.0,0.031,61,120.0
1773,C#2,231.0,0.031,61,120.0
1774,G#2,231.0,0.031,61,120.0
1775,E8,231.5,0.031,85,120.0
1776,B1,231.5,0.031,25,120.0
1777,G#2,231.5,0.031,25,120.0
1778,A3,231.792,3979/1000,74,120.0
1779,D4,231.792,3979/1000,74,120.0
1780,F#4,231.792,3979/1000,74,120.0
1781,D2,232.0,1229/1000,122,120.0
1782,D4,232.0,4.0,79,120.0
1783,E8,232.0,0.031,85,120.0
1784,B1,232.0,0.031,47,120.0
1785,G#2,232.0,0.031,47,120.0
1786,G#2,232.5,0.031,30,120.0
1787,C#2,233.0,0.031,70,120.0
1788,G#2,233.0,0.031,70,120.0
1789,D2,233.5,113/50,122,120.0
1790,E8,233.5,0.031,85,120.0
1791,B1,233.5,0.031,42,120.0
1792,G#2,233.5,0.031,42,120.0
1793,G#2,234.0,0.031,50,120.0
1794,E8,234.0,0.031,85,120.0
1795,G#2,234.5,0.031,30,120.0
1796,C#2,235.0,0.031,70,120.0
1797,G#2,235.0,0.031,70,120.0
1798,G#2,235.5,0.031,30,120.0
1799,E8,235.5,0.031,85,120.0
1800,B3,235.792,3979/1000,74,120.0
1801,C#4,235.792,3979/1000,74,120.0
1802,F#4,235.792,3979/1000,74,120.0
1803,D2,236.0,273/200,121,120.0
1804,D4,236.0,1979/1000,79,120.0
1805,E8,236.0,0.031,85,120.0
1806,B1,236.0,0.031,52,120.0
1807,G#2,236.0,0.031,52,120.0
1808,G#2,236.5,0.031,30,120.0
1809,C#2,237.0,0.031,70,120.0
1810,G#2,237.0,0.031,70,120.0
1811,D2,237.5,1.312,122,120.0
1812,E8,237.5,0.031,85,120.0
1813,B1,237.5,0.031,42,120.0
1814,G#2,237.5,0.031,42,120.0
1815,G#2,238.0,0.031,50,120.0
1816,E8,238.0,0.031,85,120.0
1817,G#2,238.5,0.031,30,120.0
1818,D2,239.0,479/1000,120,120.0
1819,D4,239.0,479/1000,126,120.0
1820,D5,239.0,479/1000,126,120.0
1821,B1,239.0,0.031,61,120.0
1822,C#2,239.0,0.031,61,120.0
1823,G#2,239.0,0.031,61,120.0
1824,C#2,239.5,479/1000,122,120.0
1825,C#4,239.5,479/1000,93,120.0
1826,C#5,239.5,479/1000,79,120.0
1827,E8,239.5,0.031,85,120.0
1828,B1,239.5,0.031,25,120.0
1829,G#2,239.5,0.031,25,120.0
1830,B3,239.792,1479/1000,74,120.0
1831,D4,239.792,1479/1000,74,120.0
1832,G4,239.792,1479/1000,74,120.0
1833,B1,240.0,63/50,123,120.0
1834,B3,240.0,729/1000,126,120.0
1835,B4,240.0,729/1000,126,120.0
1836,E8,240.0,0.031,85,120.0
1837,B1,240.0,0.031,47,120.0
1838,G#2,240.0,0.031,47,120.0
1839,G#2,240.5,0.031,30,120.0
1840,A3,240.75,729/1000,93,120.0
1841,A4,240.75,729/1000,79,120.0
1842,C#2,241.0,0.031,70,120.0
1843,G#2,241.0,0.031,70,120.0
1844,F#3,241.292,2479/1000,74,120.0
1845,A3,241.292,2479/1000,74,120.0
1846,D4,241.292,2479/1000,74,120.0
1847,B1,241.5,1.312,122,120.0
1848,A3,241.5,1479/1000,113,120.0
1849,A4,241.5,1479/1000,99,120.0
1850,E8,241.5,0.031,85,120.0
1851,B1,241.5,0.031,42,120.0
1852,G#2,241.5,0.031,42,120.0
1853,G#2,242.0,0.031,50,120.0
1854,E8,242.0,0.031,85,120.0
1855,G#2,242.5,0.031,30,120.0
1856,B1,243.0,229/500,122,120.0
1857,D4,243.0,479/1000,126,120.0
1858,D5,243.0,479/1000,126,120.0
1859,C#2,243.0,0.031,70,120.0
1860,G#2,243.0,0.031,70,120.0
1861,A1,243.5,479/1000,117,120.0
1862,G#2,243.5,0.031,30,120.0
1863,C#4,243.5,479/1000,113,120.0
1864,C#5,243.5,479/1000,99,120.0
1865,E8,243.5,0.031,85,120.0
1866,G3,243.792,1479/1000,74,120.0
1867,B3,243.792,1479/1000,74,120.0
1868,D4,243.792,1479/1000,74,120.0
1869,G1,244.0,1.281,122,120.0
1870,B3,244.0,729/1000,126,120.0
1871,B4,244.0,729/1000,126,120.0
1872,E8,244.0,0.031,85,120.0
1873,B1,244.0,0.031,52,120.0
1874,G#2,244.0,0.031,52,120.0
1875,G#2,244.5,0.031,30,120.0
1876,A3,244.75,729/1000,93,120.0
1877,A4,244.75,729/1000,79,120.0
1878,C#2,245.0,0.031,70,120.0
1879,G#2,245.0,0.031,70,120.0
1880,A3,245.292,2479/1000,74,120.0
1881,C#4,245.292,2479/1000,74,120.0
1882,E4,245.292,2479/1000,74,120.0
1883,G1,245.5,2177/1000,123,120.0
1884,B3,245.5,1979/1000,103,120.0
1885,B-4,245.5,13/125,89,120.0
1886,E8,245.5,0.031,85,120.0
1887,B1,245.5,0.031,42,120.0
1888,G#2,245.5,0.031,42,120.0
1889,B4,245.625,13/125,59,120.0
1890,B4,245.75,1979/1000,69,120.0
1891,G#2,246.0,0.031,50,120.0
1892,E8,246.0,0.031,85,120.0
1893,G#2,246.5,0.031,30,120.0
1894,B1,247.0,0.031,61,120.0
1895,C#2,247.0,0.031,61,120.0
1896,G#2,247.0,0.031,61,120.0
1897,D3,247.5,479/1000,73,120.0
1898,D4,247.5,479/1000,59,120.0
1899,E8,247.5,0.031,85,120.0
1900,B1,247.5,0.031,25,120.0
1901,G#2,247.5,0.031,25,120.0
1902,F#3,247.792,3979/1000,74,120.0
1903,A3,247.792,3979/1000,74,120.0
1904,D4,247.792,3979/1000,74,120.0
1905,G1,248.0,1.25,123,120.0
1906,B3,248.0,979/1000,113,120.0
1907,B4,248.0,979/1000,99,120.0
1908,E8,248.0,0.031,85,120.0
1909,B1,248.0,0.031,47,120.0
1910,G#2,248.0,0.031,47,120.0
1911,G#2,248.5,0.031,30,120.0
1912,A3,249.0,479/1000,73,120.0
1913,A4,249.0,479/1000,59,120.0
1914,C#2,249.0,0.031,70,120.0
1915,G#2,249.0,0.031,70,120.0
1916,G1,249.5,573/250,124,120.0
1917,A3,249.5,1479/1000,103,120.0
1918,A4,249.5,1479/1000,89,120.0
1919,E8,249.5,0.031,85,120.0
1920,B1,249.5,0.031,42,120.0
1921,G#2,249.5,0.031,42,120.0
1922,G#2,250.0,0.031,50,120.0
1923,E8,250.0,0.031,85,120.0
1924,G#2,250.5,0.031,30,120.0
1925,D3,251.0,479/1000,73,120.0
1926,D4,251.0,479/1000,59,120.0
1927,C#2,251.0,0.031,70,120.0
1928,G#2,251.0,0.031,70,120.0
1929,G#2,251.5,0.031,30,120.0
1930,F#3,251.5,0.5,103,120.0
1931,E4,251.5,13/125,89,120.0
1932,E8,251.5,0.031,85,120.0
1933,F4,251.625,13/125,59,120.0
1934,F#4,251.75,0.25,69,120.0
1935,B3,251.792,3979/1000,74,120.0
1936,C#4,251.792,3979/1000,74,120.0
1937,F#4,251.792,3979/1000,74,120.0
1938,D2,252.0,1229/1000,124,120.0
1939,F#3,252.0,2979/1000,103,120.0
1940,F#4,252.0,2479/1000,69,120.0
1941,E8,252.0,0.031,85,120.0
1942,B1,252.0,0.031,52,120.0
1943,G#2,252.0,0.031,52,120.0
1944,G#2,252.5,0.031,30,120.0
1945,C#2,253.0,0.031,70,120.0
1946,G#2,253.0,0.031,70,120.0
1947,D2,253.5,1.25,121,120.0
1948,E8,253.5,0.031,85,120.0
1949,B1,253.5,0.031,42,120.0
1950,G#2,253.5,0.031,42,120.0
1951,G#2,254.0,0.031,50,120.0
1952,E8,254.0,0.031,85,120.0
1953,G#2,254.5,0.031,30,120.0
1954,D2,255.0,479/1000,123,120.0
1955,D4,255.0,479/1000,126,120.0
1956,D5,255.0,479/1000,126,120.0
1957,B1,255.0,0.031,61,120.0
1958,C#2,255.0,0.031,61,120.0
1959,G#2,255.0,0.031,61,120.0
1960,C#2,255.5,479/1000,121,120.0
1961,C#4,255.5,479/1000,93,120.0
1962,C#5,255.5,479/1000,79,120.0
1963,E8,255.5,0.031,85,120.0
1964,B1,255.5,0.031,25,120.0
1965,G#2,255.5,0.031,25,120.0
1966,B3,255.792,4.0,74,120.0
1967,D4,255.792,4.0,74,120.0
1968,G4,255.792,4.0,74,120.0
1969,B1,256.0,599/500,123,120.0
1970,B3,256.0,729/1000,126,120.0
1971,B4,256.0,729/1000,126,120.0
1972,E8,256.0,0.031,85,120.0
1973,B1,256.0,0.031,47,120.0
1974,G#2,256.0,0.031,47,120.0
1975,G#2,256.5,0.031,30,120.0
1976,A3,256.75,729/1000,93,120.0
1977,A4,256.75,729/1000,79,120.0
1978,C#2,257.0,0.031,70,120.0
1979,G#2,257.0,0.031,70,120.0
1980,B1,257.5,1417/1000,123,120.0
1981,A3,257.5,1479/1000,113,120.0
1982,A4,257.5,1479/1000,99,120.0
1983,E8,257.5,0.031,85,120.0
1984,B1,257.5,0.031,42,120.0
1985,G#2,257.5,0.031,42,120.0
1986,G#2,258.0,0.031,50,120.0
1987,E8,258.0,0.031,85,120.0
1988,G#2,258.5,0.031,30,120.0
1989,B1,259.0,229/500,123,120.0
1990,D4,259.0,479/1000,126,120.0
1991,D5,259.0,479/1000,126,120.0
1992,C#2,259.0,0.031,70,120.0
1993,G#2,259.0,0.031,70,120.0
1994,A1,259.5,229/500,123,120.0
1995,G#2,259.5,0.031,30,120.0
1996,C#4,259.5,479/1000,113,120.0
1997,C#5,259.5,479/1000,99,120.0
1998,E8,259.5,0.031,85,120.0
1999,G1,260.0,1417/1000,122,120.0
2000,B3,260.0,729/1000,126,120.0
2001,B4,260.0,729/1000,126,120.0
2002,E8,260.0,0.031,85,120.0
2003,B1,260.0,0.031,52,120.0
2004,G#2,260.0,0.031,52,120.0
2005,G#2,260.5,0.031,30,120.0
2006,A3,260.75,729/1000,93,120.0
2007,A4,260.75,729/1000,79,120.0
2008,C#2,261.0,0.031,70,120.0
2009,G#2,261.0,0.031,70,120.0
2010,D2,261.5,2323/1000,123,120.0
2011,A3,261.5,1979/1000,103,120.0
2012,A4,261.5,1979/1000,89,120.0
2013,E8,261.5,0.031,85,120.0
2014,B1,261.5,0.031,42,120.0
2015,G#2,261.5,0.031,42,120.0
2016,G#2,262.0,0.031,50,120.0
2017,E8,262.0,0.031,85,120.0
2018,G#2,262.5,0.031,30,120.0
2019,B1,263.0,0.031,61,120.0
2020,C#2,263.0,0.031,61,120.0
2021,G#2,263.0,0.031,61,120.0
2022,E3,263.333,0.312,73,120.0
2023,E4,263.333,0.312,59,120.0
2024,E8,263.5,0.031,85,120.0
2025,B1,263.5,0.031,25,120.0
2026,G#2,263.5,0.031,25,120.0
2027,F#3,263.667,0.312,103,120.0
2028,F#4,263.667,0.312,89,120.0
2029,B3,263.771,3979/1000,74,120.0
2030,D4,263.771,3979/1000,74,120.0
2031,G4,263.771,3979/1000,74,120.0
2032,B1,264.0,1.375,123,120.0
2033,G3,264.0,979/1000,126,120.0
2034,G4,264.0,979/1000,126,120.0
2035,E8,264.0,0.031,85,120.0
2036,B1,264.0,0.031,47,120.0
2037,G#2,264.0,0.031,47,120.0
2038,G#2,264.5,0.031,30,120.0
2039,F#3,265.0,479/1000,73,120.0
2040,F#4,265.0,479/1000,59,120.0
2041,C#2,265.0,0.031,70,120.0
2042,G#2,265.0,0.031,70,120.0
2043,A1,265.5,1099/500,123,120.0
2044,F#3,265.5,1479/1000,113,120.0
2045,F#4,265.5,1479/1000,99,120.0
2046,E8,265.5,0.031,85,120.0
2047,B1,265.5,0.031,42,120.0
2048,G#2,265.5,0.031,42,120.0
2049,G#2,266.0,0.031,50,120.0
2050,E8,266.0,0.031,85,120.0
2051,G#2,266.5,0.031,30,120.0
2052,E3,267.0,479/1000,73,120.0
2053,E4,267.0,479/1000,59,120.0
2054,C#2,267.0,0.031,70,120.0
2055,G#2,267.0,0.031,70,120.0
2056,G#2,267.5,0.031,30,120.0
2057,D3,267.5,0.5,103,120.0
2058,D4,267.5,0.5,89,120.0
2059,E8,267.5,0.031,85,120.0
2060,A3,267.771,3979/1000,74,120.0
2061,D4,267.771,3979/1000,74,120.0
2062,F#4,267.771,3979/1000,74,120.0
2063,D2,268.0,1333/1000,122,120.0
2064,D3,268.0,2979/1000,103,120.0
2065,D4,268.0,2979/1000,89,120.0
2066,E8,268.0,0.031,85,120.0
2067,B1,268.0,0.031,52,120.0
2068,G#2,268.0,0.031,52,120.0
2069,G#2,268.5,0.031,30,120.0
2070,C#2,269.0,0.031,70,120.0
2071,G#2,269.0,0.031,70,120.0
2072,D2,269.5,1.312,122,120.0
2073,E8,269.5,0.031,85,120.0
2074,B1,269.5,0.031,42,120.0
2075,G#2,269.5,0.031,42,120.0
2076,G#2,270.0,0.031,50,120.0
2077,E8,270.0,0.031,85,120.0
2078,G#2,270.5,0.031,30,120.0
2079,D2,271.0,0.406,122,120.0
2080,D4,271.0,479/1000,91,120.0
2081,B1,271.0,0.031,61,120.0
2082,C#2,271.0,0.031,61,120.0
2083,G#2,271.0,0.031,61,120.0
2084,C#2,271.5,0.438,121,120.0
2085,C#4,271.5,479/1000,96,120.0
2086,E8,271.5,0.031,85,120.0
2087,B1,271.5,0.031,25,120.0
2088,G#2,271.5,0.031,25,120.0
2089,B3,271.771,3979/1000,74,120.0
2090,C#4,271.771,3979/1000,74,120.0
2091,F#4,271.771,3979/1000,74,120.0
2092,B1,272.0,63/50,124,120.0
2093,B3,272.0,479/1000,91,120.0
2094,E8,272.0,0.031,85,120.0
2095,B1,272.0,0.031,47,120.0
2096,G#2,272.0,0.031,47,120.0
2097,A4,272.25,729/1000,79,120.0
2098,A3,272.5,979/1000,92,120.0
2099,G#2,272.5,0.031,30,120.0
2100,F#4,272.5,729/1000,79,120.0
2101,D4,272.75,729/1000,59,120.0
2102,A4,273.0,729/1000,89,120.0
2103,C#2,273.0,0.031,70,120.0
2104,G#2,273.0,0.031,70,120.0
2105,F#4,273.25,729/1000,79,120.0
2106,B1,273.5,1.312,124,120.0
2107,A3,273.5,1479/1000,86,120.0
2108,D4,273.5,729/1000,59,120.0
2109,E8,273.5,0.031,85,120.0
2110,B1,273.5,0.031,42,120.0
2111,G#2,273.5,0.031,42,120.0
2112,A4,273.75,729/1000,99,120.0
2113,G#2,274.0,0.031,50,120.0
2114,F#4,274.0,729/1000,79,120.0
2115,E8,274.0,0.031,85,120.0
2116,D4,274.25,729/1000,59,120.0
2117,G#2,274.5,0.031,30,120.0
2118,A4,274.5,729/1000,109,120.0
2119,F#4,274.75,729/1000,79,120.0
2120,B1,275.0,0.438,123,120.0
2121,D4,275.0,479/1000,93,120.0
2122,D4,275.0,729/1000,59,120.0
2123,C#2,275.0,0.031,70,120.0
2124,G#2,275.0,0.031,70,120.0
2125,A4,275.25,729/1000,119,120.0
2126,A1,275.5,99/250,123,120.0
2127,C#4,275.5,0.5,92,120.0
2128,G#2,275.5,0.031,30,120.0
2129,F#4,275.5,0.5,79,120.0
2130,E8,275.5,0.031,85,120.0
2131,D4,275.75,0.25,59,120.0
2132,B3,275.771,1479/1000,74,120.0
2133,D4,275.771,1479/1000,74,120.0
2134,G4,275.771,1479/1000,74,120.0
2135,G1,276.0,599/500,119,120.0
2136,C#4,276.0,479/1000,92,120.0
2137,A4,276.0,729/1000,109,120.0
2138,F#4,276.0,229/1000,79,120.0
2139,D4,276.0,479/1000,59,120.0
2140,E8,276.0,0.031,85,120.0
2141,B1,276.0,0.031,52,120.0
2142,G#2,276.0,0.031,52,120.0
2143,G4,276.25,229/1000,79,120.0
2144,B3,276.5,229/1000,88,120.0
2145,G#2,276.5,0.031,30,120.0
2146,D4,276.5,729/1000,59,120.0
2147,A3,276.75,229/1000,61,120.0
2148,A4,276.75,729/1000,99,120.0
2149,B3,277.0,1979/1000,93,120.0
2150,G4,277.0,729/1000,79,120.0
2151,C#2,277.0,0.031,70,120.0
2152,G#2,277.0,0.031,70,120.0
2153,D4,277.25,729/1000,59,120.0
2154,F#3,277.271,2479/1000,74,120.0
2155,A3,277.271,2479/1000,74,120.0
2156,D4,277.271,2479/1000,74,120.0
2157,G1,277.5,2.125,122,120.0
2158,A4,277.5,729/1000,89,120.0
2159,E8,277.5,0.031,85,120.0
2160,B1,277.5,0.031,42,120.0
2161,G#2,277.5,0.031,42,120.0
2162,G4,277.75,729/1000,79,120.0
2163,G#2,278.0,0.031,50,120.0
2164,D4,278.0,729/1000,59,120.0
2165,E8,278.0,0.031,85,120.0
2166,A4,278.25,729/1000,79,120.0
2167,G#2,278.5,0.031,30,120.0
2168,G4,278.5,729/1000,79,120.0
2169,D4,278.75,729/1000,59,120.0
2170,A4,279.0,729/1000,89,120.0
2171,B1,279.0,0.031,61,120.0
2172,C#2,279.0,0.031,61,120.0
2173,G#2,279.0,0.031,61,120.0
2174,G4,279.25,729/1000,79,120.0
2175,D3,279.5,479/1000,82,120.0
2176,D4,279.5,0.5,59,120.0
2177,E8,279.5,0.031,85,120.0
2178,B1,279.5,0.031,25,120.0
2179,G#2,279.5,0.031,25,120.0
2180,A4,279.75,0.25,89,120.0
2181,G3,279.771,1479/1000,74,120.0
2182,B3,279.771,1479/1000,74,120.0
2183,D4,279.771,1479/1000,74,120.0
2184,G1,280.0,1.312,121,120.0
2185,B3,280.0,979/1000,95,120.0
2186,G4,280.0,229/1000,79,120.0
2187,D4,280.0,229/1000,59,120.0
2188,A4,280.0,479/1000,89,120.0
2189,E8,280.0,0.031,85,120.0
2190,B1,280.0,0.031,47,120.0
2191,G#2,280.0,0.031,47,120.0
2192,D4,280.25,229/1000,59,120.0
2193,G#2,280.5,0.031,30,120.0
2194,A4,280.5,479/1000,119,120.0
2195,G4,280.75,229/1000,79,120.0
2196,A3,281.0,479/1000,80,120.0
2197,D4,281.0,229/1000,59,120.0
2198,C#2,281.0,0.031,70,120.0
2199,G#2,281.0,0.031,70,120.0
2200,A4,281.25,729/1000,109,120.0
2201,A3,281.271,2479/1000,74,120.0
2202,C#4,281.271,2479/1000,74,120.0
2203,E4,281.271,2479/1000,74,120.0
2204,G1,281.5,2271/1000,124,120.0
2205,A3,281.5,1479/1000,92,120.0
2206,G4,281.5,729/1000,79,120.0
2207,E8,281.5,0.031,85,120.0
2208,B1,281.5,0.031,42,120.0
2209,G#2,281.5,0.031,42,120.0
2210,D4,281.75,729/1000,59,120.0
2211,G#2,282.0,0.031,50,120.0
2212,A4,282.0,729/1000,99,120.0
2213,E8,282.0,0.031,85,120.0
2214,G4,282.25,729/1000,79,120.0
2215,G#2,282.5,0.031,30,120.0
2216,D4,282.5,729/1000,59,120.0
2217,A4,282.75,729/1000,89,120.0
2218,D3,283.0,479/1000,83,120.0
2219,G4,283.0,729/1000,79,120.0
2220,C#2,283.0,0.031,70,120.0
2221,G#2,283.0,0.031,70,120.0
2222,D4,283.25,0.75,59,120.0
2223,F#3,283.5,0.5,91,120.0
2224,G#2,283.5,0.031,30,120.0
2225,A4,283.5,0.5,89,120.0
2226,E8,283.5,0.031,85,120.0
2227,G4,283.75,0.25,79,120.0
2228,A4,283.771,4.0,74,120.0
2229,A3,283.771,4.0,74,120.0
2230,D4,283.771,4.0,74,120.0
2231,D2,284.0,1271/1000,123,120.0
2232,F#3,284.0,479/1000,91,120.0
2233,F#4,284.0,479/1000,59,120.0
2234,D4,284.0,229/1000,59,120.0
2235,A4,284.0,229/1000,89,120.0
2236,G4,284.0,479/1000,79,120.0
2237,E8,284.0,0.031,85,120.0
2238,B1,284.0,0.031,52,120.0
2239,G#2,284.0,0.031,52,120.0
2240,A4,284.25,729/1000,79,120.0
2241,A3,284.5,1479/1000,88,120.0
2242,G#2,284.5,0.031,30,120.0
2243,F#4,284.5,729/1000,79,120.0
2244,D4,284.75,729/1000,59,120.0
2245,A4,285.0,729/1000,89,120.0
2246,C#2,285.0,0.031,70,120.0
2247,G#2,285.0,0.031,70,120.0
2248,F#4,285.25,729/1000,79,120.0
2249,D2,285.5,323/250,122,120.0
2250,D4,285.5,729/1000,59,120.0
2251,E8,285.5,0.031,85,120.0
2252,B1,285.5,0.031,42,120.0
2253,G#2,285.5,0.031,42,120.0
2254,A4,285.75,729/1000,99,120.0
2255,G#2,286.0,0.031,50,120.0
2256,E4,286.0,729/1000,79,120.0
2257,E8,286.0,0.031,85,120.0
2258,D4,286.25,729/1000,59,120.0
2259,G#2,286.5,0.031,30,120.0
2260,A4,286.5,729/1000,109,120.0
2261,E4,286.75,729/1000,79,120.0
2262,D2,287.0,417/1000,122,120.0
2263,D4,287.0,479/1000,92,120.0
2264,D4,287.0,729/1000,59,120.0
2265,B1,287.0,0.031,61,120.0
2266,C#2,287.0,0.031,61,120.0
2267,G#2,287.0,0.031,61,120.0
2268,A4,287.25,729/1000,119,120.0
2269,C#2,287.5,479/1000,121,120.0
2270,C#4,287.5,479/1000,86,120.0
2271,E4,287.5,0.5,79,120.0
2272,E8,287.5,0.031,85,120.0
2273,B1,287.5,0.031,25,120.0
2274,G#2,287.5,0.031,25,120.0
2275,D4,287.75,0.25,59,120.0
2276,B1,288.0,599/500,123,120.0
2277,B3,288.0,479/1000,92,120.0
2278,E4,288.0,229/1000,79,120.0
2279,D4,288.0,479/1000,59,120.0
2280,E8,288.0,0.031,85,120.0
2281,B1,288.0,0.031,47,120.0
2282,G#2,288.0,0.031,47,120.0
2283,A4,288.25,729/1000,79,120.0
2284,A3,288.5,979/1000,83,120.0
2285,G#2,288.5,0.031,30,120.0
2286,F#4,288.5,729/1000,79,120.0
2287,D4,288.75,729/1000,59,120.0
2288,A4,289.0,729/1000,89,120.0
2289,C#2,289.0,0.031,70,120.0
2290,G#2,289.0,0.031,70,120.0
2291,F#4,289.25,729/1000,79,120.0
2292,B1,289.5,1323/1000,122,120.0
2293,A3,289.5,1479/1000,86,120.0
2294,D4,289.5,729/1000,59,120.0
2295,E8,289.5,0.031,85,120.0
2296,B1,289.5,0.031,42,120.0
2297,G#2,289.5,0.031,42,120.0
2298,A4,289.75,729/1000,99,120.0
2299,G#2,290.0,0.031,50,120.0
2300,F#4,290.0,729/1000,79,120.0
2301,E8,290.0,0.031,85,120.0
2302,D4,290.25,729/1000,59,120.0
2303,G#2,290.5,0.031,30,120.0
2304,A4,290.5,729/1000,109,120.0
2305,F#4,290.75,729/1000,79,120.0
2306,B1,291.0,0.406,122,120.0
2307,D4,291.0,479/1000,95,120.0
2308,D4,291.0,729/1000,59,120.0
2309,C#2,291.0,0.031,70,120.0
2310,G#2,291.0,0.031,70,120.0
2311,A4,291.25,729/1000,119,120.0
2312,A1,291.5,427/1000,120,120.0
2313,C#4,291.5,479/1000,91,120.0
2314,G#2,291.5,0.031,30,120.0
2315,F#4,291.5,0.5,79,120.0
2316,E8,291.5,0.031,85,120.0
2317,D4,291.75,0.25,59,120.0
2318,G1,292.0,1.344,120,120.0
2319,B3,292.0,479/1000,90,120.0
2320,A4,292.0,729/1000,109,120.0
2321,F#4,292.0,229/1000,79,120.0
2322,D4,292.0,479/1000,59,120.0
2323,E8,292.0,0.031,85,120.0
2324,B1,292.0,0.031,52,120.0
2325,G#2,292.0,0.031,52,120.0
2326,G4,292.25,729/1000,79,120.0
2327,A3,292.5,979/1000,88,120.0
2328,G#2,292.5,0.031,30,120.0
2329,D4,292.5,729/1000,59,120.0
2330,A4,292.75,729/1000,99,120.0
2331,G4,293.0,729/1000,79,120.0
2332,C#2,293.0,0.031,70,120.0
2333,G#2,293.0,0.031,70,120.0
2334,D4,293.25,729/1000,59,120.0
2335,D2,293.5,573/250,123,120.0
2336,A3,293.5,1479/1000,80,120.0
2337,A4,293.5,479/1000,89,120.0
2338,E8,293.5,0.031,85,120.0
2339,B1,293.5,0.031,42,120.0
2340,G#2,293.5,0.031,42,120.0
2341,F#4,293.75,479/1000,79,120.0
2342,G#2,294.0,0.031,50,120.0
2343,A4,294.0,229/1000,79,120.0
2344,E8,294.0,0.031,85,120.0
2345,F#4,294.25,229/1000,79,120.0
2346,G#2,294.5,0.031,30,120.0
2347,D4,294.5,729/1000,59,120.0
2348,A4,294.75,729/1000,89,120.0
2349,F#3,295.0,479/1000,91,120.0
2350,F#4,295.0,729/1000,79,120.0
2351,B1,295.0,0.031,61,120.0
2352,C#2,295.0,0.031,61,120.0
2353,G#2,295.0,0.031,61,120.0
2354,D4,295.25,729/1000,59,120.0
2355,G3,295.5,0.5,95,120.0
2356,A4,295.5,0.5,59,120.0
2357,E8,295.5,0.031,85,120.0
2358,B1,295.5,0.031,25,120.0
2359,G#2,295.5,0.031,25,120.0
2360,B1,296.0,1167/1000,123,120.0
2361,G3,296.0,979/1000,95,120.0
2362,D4,296.0,229/1000,59,120.0
2363,A4,296.0,229/1000,59,120.0
2364,E8,296.0,0.031,85,120.0
2365,B1,296.0,0.031,47,120.0
2366,G#2,296.0,0.031,47,120.0
2367,A4,296.25,479/1000,109,120.0
2368,G#2,296.5,0.031,30,120.0
2369,G4,296.5,729/1000,79,120.0
2370,D4,296.75,729/1000,59,120.0
2371,F#3,297.0,479/1000,91,120.0
2372,A4,297.0,229/1000,119,120.0
2373,C#2,297.0,0.031,70,120.0
2374,G#2,297.0,0.031,70,120.0
2375,G4,297.25,729/1000,79,120.0
2376,A1,297.5,1073/500,123,120.0
2377,F#3,297.5,979/1000,91,120.0
2378,D4,297.5,49/100,59,120.0
2379,E8,297.5,0.031,85,120.0
2380,B1,297.5,0.031,42,120.0
2381,G#2,297.5,0.031,42,120.0
2382,E4,297.75,729/1000,109,120.0
2383,G#2,298.0,0.031,50,120.0
2384,D4,298.0,229/1000,79,120.0
2385,E8,298.0,0.031,85,120.0
2386,A3,298.25,729/1000,59,120.0
2387,E3,298.5,479/1000,87,120.0
2388,G#2,298.5,0.031,30,120.0
2389,E4,298.5,729/1000,99,120.0
2390,D4,298.75,729/1000,79,120.0
2391,D3,299.0,979/1000,87,120.0
2392,A3,299.0,729/1000,59,120.0
2393,C#2,299.0,0.031,70,120.0
2394,G#2,299.0,0.031,70,120.0
2395,E4,299.25,479/1000,89,120.0
2396,G#2,299.5,0.031,30,120.0
2397,D4,299.5,0.5,79,120.0
2398,E8,299.5,0.031,85,120.0
2399,A4,299.75,3979/1000,74,120.0
2400,E4,299.75,229/1000,79,120.0
2401,A3,299.75,4.0,74,120.0
2402,D4,299.75,4.0,74,120.0
2403,D2,300.0,1271/1000,123,120.0
2404,A3,300.0,229/1000,59,120.0
2405,D4,300.0,479/1000,79,120.0
2406,E8,300.0,0.031,85,120.0
2407,B1,300.0,0.031,52,120.0
2408,G#2,300.0,0.031,52,120.0
2409,E4,300.25,729/1000,79,120.0
2410,G#2,300.5,0.031,30,120.0
2411,D4,300.5,229/1000,79,120.0
2412,A3,300.75,729/1000,59,120.0
2413,E4,301.0,729/1000,89,120.0
2414,C#2,301.0,0.031,70,120.0
2415,G#2,301.0,0.031,70,120.0
2416,D4,301.25,729/1000,79,120.0
2417,D2,301.5,1271/1000,122,120.0
2418,A3,301.5,729/1000,59,120.0
2419,E8,301.5,0.031,85,120.0
2420,B1,301.5,0.031,42,120.0
2421,G#2,301.5,0.031,42,120.0
2422,E4,301.75,729/1000,99,120.0
2423,G#2,302.0,0.031,50,120.0
2424,D4,302.0,729/1000,79,120.0
2425,E8,302.0,0.031,85,120.0
2426,A3,302.25,729/1000,59,120.0
2427,G#2,302.5,0.031,30,120.0
2428,E4,302.5,729/1000,109,120.0
2429,D4,302.75,729/1000,79,120.0
2430,D2,303.0,56/125,120,120.0
2431,D4,303.0,479/1000,92,120.0
2432,A3,303.0,729/1000,59,120.0
2433,B1,303.0,0.031,61,120.0
2434,C#2,303.0,0.031,61,120.0
2435,G#2,303.0,0.031,61,120.0
2436,E4,303.25,729/1000,119,120.0
2437,C#2,303.5,229/500,121,120.0
2438,C#4,303.5,479/1000,91,120.0
2439,D4,303.5,0.5,79,120.0
2440,E8,303.5,0.031,85,120.0
2441,B1,303.5,0.031,25,120.0
2442,G#2,303.5,0.031,25,120.0
2443,F#4,303.75,4.0,74,120.0
2444,A3,303.75,0.25,59,120.0
2445,A3,303.75,4.0,74,120.0
2446,D4,303.75,4.0,74,120.0
2447,B1,304.0,599/500,122,120.0
2448,B3,304.0,479/1000,91,120.0
2449,D4,304.0,229/1000,79,120.0
2450,A3,304.0,479/1000,59,120.0
2451,E8,304.0,0.031,85,120.0
2452,B1,304.0,0.031,47,120.0
2453,G#2,304.0,0.031,47,120.0
2454,A4,304.25,729/1000,79,120.0
2455,A3,304.5,979/1000,92,120.0
2456,G#2,304.5,0.031,30,120.0
2457,F#4,304.5,729/1000,79,120.0
2458,D4,304.75,729/1000,59,120.0
2459,A4,305.0,729/1000,89,120.0
2460,C#2,305.0,0.031,70,120.0
2461,G#2,305.0,0.031,70,120.0
2462,F#4,305.25,729/1000,79,120.0
2463,B1,305.5,1333/1000,124,120.0
2464,A3,305.5,1479/1000,93,120.0
2465,D4,305.5,729/1000,59,120.0
2466,E8,305.5,0.031,85,120.0
2467,B1,305.5,0.031,42,120.0
2468,G#2,305.5,0.031,42,120.0
2469,A4,305.75,729/1000,99,120.0
2470,G#2,306.0,0.031,50,120.0
2471,F#4,306.0,729/1000,79,120.0
2472,E8,306.0,0.031,85,120.0
2473,D4,306.25,729/1000,59,120.0
2474,G#2,306.5,0.031,30,120.0
2475,A4,306.5,729/1000,109,120.0
2476,F#4,306.75,729/1000,79,120.0
2477,B1,307.0,0.469,122,120.0
2478,D4,307.0,479/1000,91,120.0
2479,D4,307.0,729/1000,59,120.0
2480,C#2,307.0,0.031,70,120.0
2481,G#2,307.0,0.031,70,120.0
2482,A4,307.25,729/1000,119,120.0
2483,A1,307.5,56/125,121,120.0
2484,C#4,307.5,0.5,92,120.0
2485,G#2,307.5,0.031,30,120.0
2486,F#4,307.5,0.5,79,120.0
2487,E8,307.5,0.031,85,120.0
2488,F#4,307.75,3979/1000,74,120.0
2489,D4,307.75,0.25,59,120.0
2490,A3,307.75,3979/1000,74,120.0
2491,D4,307.75,3979/1000,74,120.0
2492,G1,308.0,1271/1000,120,120.0
2493,C#4,308.0,479/1000,92,120.0
2494,A4,308.0,729/1000,109,120.0
2495,F#4,308.0,229/1000,79,120.0
2496,D4,308.0,479/1000,59,120.0
2497,E8,308.0,0.031,85,120.0
2498,B1,308.0,0.031,52,120.0
2499,G#2,308.0,0.031,52,120.0
2500,G4,308.25,229/1000,79,120.0
2501,B3,308.5,229/1000,85,120.0
2502,G#2,308.5,0.031,30,120.0
2503,D4,308.5,729/1000,59,120.0
2504,A3,308.75,229/1000,68,120.0
2505,A4,308.75,729/1000,99,120.0
2506,B3,309.0,1979/1000,95,120.0
2507,G4,309.0,729/1000,79,120.0
2508,C#2,309.0,0.031,70,120.0
2509,G#2,309.0,0.031,70,120.0
2510,D4,309.25,729/1000,59,120.0
2511,G1,309.5,2.219,122,120.0
2512,A4,309.5,729/1000,89,120.0
2513,E8,309.5,0.031,85,120.0
2514,B1,309.5,0.031,42,120.0
2515,G#2,309.5,0.031,42,120.0
2516,G4,309.75,729/1000,79,120.0
2517,G#2,310.0,0.031,50,120.0
2518,D4,310.0,729/1000,59,120.0
2519,E8,310.0,0.031,85,120.0
2520,A4,310.25,729/1000,79,120.0
2521,G#2,310.5,0.031,30,120.0
2522,G4,310.5,729/1000,79,120.0
2523,D4,310.75,729/1000,59,120.0
2524,A4,311.0,729/1000,89,120.0
2525,B1,311.0,0.031,61,120.0
2526,C#2,311.0,0.031,61,120.0
2527,G#2,311.0,0.031,61,120.0
2528,G4,311.25,729/1000,79,120.0
2529,D3,311.5,479/1000,87,120.0
2530,D4,311.5,0.5,59,120.0
2531,E8,311.5,0.031,85,120.0
2532,B1,311.5,0.031,25,120.0
2533,G#2,311.5,0.031,25,120.0
2534,C#4,311.75,1479/1000,74,120.0
2535,A4,311.75,0.25,89,120.0
2536,A3,311.75,3979/1000,74,120.0
2537,F#4,311.75,3979/1000,74,120.0
2538,G1,312.0,1.281,122,120.0
2539,B3,312.0,979/1000,95,120.0
2540,G4,312.0,229/1000,79,120.0
2541,D4,312.0,229/1000,59,120.0
2542,A4,312.0,479/1000,89,120.0
2543,E8,312.0,0.031,85,120.0
2544,B1,312.0,0.031,47,120.0
2545,G#2,312.0,0.031,47,120.0
2546,D4,312.25,229/1000,59,120.0
2547,G#2,312.5,0.031,30,120.0
2548,A4,312.5,479/1000,119,120.0
2549,G4,312.75,229/1000,79,120.0
2550,A3,313.0,479/1000,88,120.0
2551,D4,313.0,229/1000,59,120.0
2552,C#2,313.0,0.031,70,120.0
2553,G#2,313.0,0.031,70,120.0
2554,B3,313.25,2479/1000,74,120.0
2555,A4,313.25,729/1000,109,120.0
2556,G1,313.5,2.219,122,120.0
2557,A3,313.5,1479/1000,90,120.0
2558,G4,313.5,729/1000,79,120.0
2559,E8,313.5,0.031,85,120.0
2560,B1,313.5,0.031,42,120.0
2561,G#2,313.5,0.031,42,120.0
2562,D4,313.75,729/1000,59,120.0
2563,G#2,314.0,0.031,50,120.0
2564,A4,314.0,729/1000,99,120.0
2565,E8,314.0,0.031,85,120.0
2566,G4,314.25,729/1000,79,120.0
2567,G#2,314.5,0.031,30,120.0
2568,D4,314.5,729/1000,59,120.0
2569,A4,314.75,729/1000,89,120.0
2570,D3,315.0,479/1000,84,120.0
2571,G4,315.0,729/1000,79,120.0
2572,C#2,315.0,0.031,70,120.0
2573,G#2,315.0,0.031,70,120.0
2574,D4,315.25,0.75,59,120.0
2575,F#3,315.5,0.5,95,120.0
2576,G#2,315.5,0.031,30,120.0
2577,A4,315.5,0.5,89,120.0
2578,E8,315.5,0.031,85,120.0
2579,G4,315.75,0.25,79,120.0
2580,B3,315.75,4.0,74,120.0
2581,D4,315.75,4.0,74,120.0
2582,G4,315.75,4.0,74,120.0
2583,D2,316.0,1.25,121,120.0
2584,F#3,316.0,479/1000,95,120.0
2585,F#4,316.0,479/1000,59,120.0
2586,D4,316.0,229/1000,59,120.0
2587,A4,316.0,229/1000,89,120.0
2588,G4,316.0,479/1000,79,120.0
2589,E8,316.0,0.031,85,120.0
2590,B1,316.0,0.031,52,120.0
2591,G#2,316.0,0.031,52,120.0
2592,A4,316.25,729/1000,79,120.0
2593,A3,316.5,1479/1000,90,120.0
2594,G#2,316.5,0.031,30,120.0
2595,F#4,316.5,729/1000,79,120.0
2596,D4,316.75,729/1000,59,120.0
2597,A4,317.0,729/1000,89,120.0
2598,C#2,317.0,0.031,70,120.0
2599,G#2,317.0,0.031,70,120.0
2600,F#4,317.25,729/1000,79,120.0
2601,D2,317.5,1333/1000,122,120.0
2602,D4,317.5,729/1000,59,120.0
2603,E8,317.5,0.031,85,120.0
2604,B1,317.5,0.031,42,120.0
2605,G#2,317.5,0.031,42,120.0
2606,A4,317.75,729/1000,99,120.0
2607,G#2,318.0,0.031,50,120.0
2608,E4,318.0,729/1000,79,120.0
2609,E8,318.0,0.031,85,120.0
2610,D4,318.25,729/1000,59,120.0
2611,G#2,318.5,0.031,30,120.0
2612,A4,318.5,729/1000,109,120.0
2613,E4,318.75,729/1000,79,120.0
2614,D2,319.0,427/1000,122,120.0
2615,D4,319.0,479/1000,87,120.0
2616,D4,319.0,729/1000,59,120.0
2617,B1,319.0,0.031,61,120.0
2618,C#2,319.0,0.031,61,120.0
2619,G#2,319.0,0.031,61,120.0
2620,A4,319.25,729/1000,119,120.0
2621,C#2,319.5,479/1000,119,120.0
2622,C#4,319.5,479/1000,91,120.0
2623,E4,319.5,0.5,79,120.0
2624,E8,319.5,0.031,85,120.0
2625,B1,319.5,0.031,25,120.0
2626,G#2,319.5,0.031,25,120.0
2627,D4,319.75,0.25,59,120.0
2628,B1,320.0,1.125,123,120.0
2629,B3,320.0,479/1000,91,120.0
2630,E4,320.0,229/1000,79,120.0
2631,D4,320.0,479/1000,59,120.0
2632,E8,320.0,0.031,85,120.0
2633,B1,320.0,0.031,47,120.0
2634,G#2,320.0,0.031,47,120.0
2635,A4,320.25,729/1000,79,120.0
2636,A3,320.5,979/1000,87,120.0
2637,G#2,320.5,0.031,30,120.0
2638,F#4,320.5,729/1000,79,120.0
2639,D4,320.75,729/1000,59,120.0
2640,A4,321.0,729/1000,89,120.0
2641,C#2,321.0,0.031,70,120.0
2642,G#2,321.0,0.031,70,120.0
2643,F#4,321.25,729/1000,79,120.0
2644,B1,321.5,1333/1000,124,120.0
2645,A3,321.5,1479/1000,91,120.0
2646,D4,321.5,729/1000,59,120.0
2647,E8,321.5,0.031,85,120.0
2648,B1,321.5,0.031,42,120.0
2649,G#2,321.5,0.031,42,120.0
2650,A4,321.75,729/1000,99,120.0
2651,G#2,322.0,0.031,50,120.0
2652,F#4,322.0,729/1000,79,120.0
2653,E8,322.0,0.031,85,120.0
2654,D4,322.25,729/1000,59,120.0
2655,G#2,322.5,0.031,30,120.0
2656,A4,322.5,729/1000,109,120.0
2657,F#4,322.75,729/1000,79,120.0
2658,B1,323.0,229/500,123,120.0
2659,D4,323.0,479/1000,87,120.0
2660,D4,323.0,729/1000,59,120.0
2661,C#2,323.0,0.031,70,120.0
2662,G#2,323.0,0.031,70,120.0
2663,A4,323.25,729/1000,119,120.0
2664,A1,323.5,0.438,120,120.0
2665,C#4,323.5,479/1000,93,120.0
2666,G#2,323.5,0.031,30,120.0
2667,F#4,323.5,0.5,79,120.0
2668,E8,323.5,0.031,85,120.0
2669,B3,323.729,3979/1000,74,120.0
2670,D4,323.729,3979/1000,74,120.0
2671,G4,323.729,3979/1000,74,120.0
2672,D4,323.75,0.25,59,120.0
2673,G1,324.0,1.312,123,120.0
2674,B3,324.0,479/1000,89,120.0
2675,A4,324.0,729/1000,109,120.0
2676,F#4,324.0,229/1000,79,120.0
2677,D4,324.0,479/1000,59,120.0
2678,E8,324.0,0.031,85,120.0
2679,B1,324.0,0.031,52,120.0
2680,G#2,324.0,0.031,52,120.0
2681,G4,324.25,729/1000,79,120.0
2682,A3,324.5,979/1000,86,120.0
2683,G#2,324.5,0.031,30,120.0
2684,D4,324.5,729/1000,59,120.0
2685,A4,324.75,729/1000,99,120.0
2686,G4,325.0,729/1000,79,120.0
2687,C#2,325.0,0.031,70,120.0
2688,G#2,325.0,0.031,70,120.0
2689,D4,325.25,729/1000,59,120.0
2690,D2,325.5,2.219,124,120.0
2691,A3,325.5,1479/1000,88,120.0
2692,A4,325.5,479/1000,89,120.0
2693,E8,325.5,0.031,85,120.0
2694,B1,325.5,0.031,42,120.0
2695,G#2,325.5,0.031,42,120.0
2696,F#4,325.75,479/1000,79,120.0
2697,G#2,326.0,0.031,50,120.0
2698,A4,326.0,229/1000,79,120.0
2699,E8,326.0,0.031,85,120.0
2700,F#4,326.25,229/1000,79,120.0
2701,G#2,326.5,0.031,30,120.0
2702,D4,326.5,729/1000,59,120.0
2703,A4,326.75,729/1000,89,120.0
2704,F#3,327.0,479/1000,87,120.0
2705,F#4,327.0,729/1000,79,120.0
2706,B1,327.0,0.031,61,120.0
2707,C#2,327.0,0.031,61,120.0
2708,G#2,327.0,0.031,61,120.0
2709,D4,327.25,729/1000,59,120.0
2710,G3,327.5,0.5,91,120.0
2711,A4,327.5,0.5,59,120.0
2712,E8,327.5,0.031,85,120.0
2713,B1,327.5,0.031,25,120.0
2714,G#2,327.5,0.031,25,120.0
2715,A3,327.729,3979/1000,74,120.0
2716,D4,327.729,3979/1000,74,120.0
2717,F#4,327.729,3979/1000,74,120.0
2718,B1,328.0,1167/1000,123,120.0
2719,G3,328.0,979/1000,91,120.0
2720,D4,328.0,229/1000,59,120.0
2721,A4,328.0,229/1000,59,120.0
2722,E8,328.0,0.031,85,120.0
2723,B1,328.0,0.031,47,120.0
2724,G#2,328.0,0.031,47,120.0
2725,A4,328.25,479/1000,109,120.0
2726,G#2,328.5,0.031,30,120.0
2727,G4,328.5,729/1000,79,120.0
2728,D4,328.75,729/1000,59,120.0
2729,F#3,329.0,479/1000,82,120.0
2730,A4,329.0,229/1000,119,120.0
2731,C#2,329.0,0.031,70,120.0
2732,G#2,329.0,0.031,70,120.0
2733,G4,329.25,729/1000,79,120.0
2734,A1,329.5,1151/500,122,120.0
2735,F#3,329.5,979/1000,95,120.0
2736,D4,329.5,49/100,59,120.0
2737,E8,329.5,0.031,85,120.0
2738,B1,329.5,0.031,42,120.0
2739,G#2,329.5,0.031,42,120.0
2740,E4,329.75,729/1000,109,120.0
2741,G#2,330.0,0.031,50,120.0
2742,D4,330.0,229/1000,79,120.0
2743,E8,330.0,0.031,85,120.0
2744,A3,330.25,729/1000,59,120.0
2745,E3,330.5,479/1000,89,120.0
2746,G#2,330.5,0.031,30,120.0
2747,E4,330.5,729/1000,99,120.0
2748,D4,330.75,729/1000,79,120.0
2749,D3,331.0,979/1000,85,120.0
2750,A3,331.0,729/1000,59,120.0
2751,C#2,331.0,0.031,70,120.0
2752,G#2,331.0,0.031,70,120.0
2753,E4,331.25,479/1000,89,120.0
2754,G#2,331.5,0.031,30,120.0
2755,D4,331.5,0.5,79,120.0
2756,E8,331.5,0.031,85,120.0
2757,A3,331.729,3979/1000,74,120.0
2758,C#4,331.729,3979/1000,74,120.0
2759,F#4,331.729,3979/1000,74,120.0
2760,E4,331.75,229/1000,79,120.0
2761,D2,332.0,63/50,122,120.0
2762,A3,332.0,229/1000,59,120.0
2763,D4,332.0,479/1000,79,120.0
2764,E8,332.0,0.031,85,120.0
2765,B1,332.0,0.031,52,120.0
2766,G#2,332.0,0.031,52,120.0
2767,E4,332.25,729/1000,79,120.0
2768,G#2,332.5,0.031,30,120.0
2769,D4,332.5,229/1000,79,120.0
2770,A3,332.75,729/1000,59,120.0
2771,E4,333.0,729/1000,89,120.0
2772,C#2,333.0,0.031,70,120.0
2773,G#2,333.0,0.031,70,120.0
2774,D4,333.25,729/1000,79,120.0
2775,D2,333.5,599/250,122,120.0
2776,A3,333.5,729/1000,59,120.0
2777,E8,333.5,0.031,85,120.0
2778,B1,333.5,0.031,42,120.0
2779,G#2,333.5,0.031,42,120.0
2780,E4,333.75,729/1000,99,120.0
2781,G#2,334.0,0.031,50,120.0
2782,D4,334.0,729/1000,79,120.0
2783,E8,334.0,0.031,85,120.0
2784,A3,334.25,729/1000,59,120.0
2785,G#2,334.5,0.031,30,120.0
2786,E4,334.5,729/1000,109,120.0
2787,D4,334.75,729/1000,79,120.0
2788,D3,335.0,0.312,68,120.0
2789,A3,335.0,729/1000,59,120.0
2790,B1,335.0,0.031,61,120.0
2791,C#2,335.0,0.031,61,120.0
2792,G#2,335.0,0.031,61,120.0
2793,E4,335.25,729/1000,119,120.0
2794,E3,335.333,0.312,78,120.0
2795,D4,335.5,479/1000,79,120.0
2796,E8,335.5,0.031,85,120.0
2797,B1,335.5,0.031,25,120.0
2798,G#2,335.5,0.031,25,120.0
2799,F#3,335.667,0.312,87,120.0
2800,B3,335.729,1479/1000,74,120.0
2801,D4,335.729,1479/1000,74,120.0
2802,G4,335.729,1479/1000,74,120.0
2803,A3,335.75,0.25,59,120.0
2804,B1,336.0,323/250,124,120.0
2805,G3,336.0,979/1000,97,120.0
2806,D4,336.0,229/1000,59,120.0
2807,A3,336.0,479/1000,59,120.0
2808,E8,336.0,0.031,85,120.0
2809,B1,336.0,0.031,47,120.0
2810,G#2,336.0,0.031,47,120.0
2811,A4,336.25,479/1000,109,120.0
2812,G#2,336.5,0.031,30,120.0
2813,G4,336.5,729/1000,79,120.0
2814,D4,336.75,729/1000,59,120.0
2815,F#3,337.0,479/1000,91,120.0
2816,A4,337.0,229/1000,119,120.0
2817,C#2,337.0,0.031,70,120.0
2818,G#2,337.0,0.031,70,120.0
2819,F#3,337.229,2479/1000,74,120.0
2820,A3,337.229,2479/1000,74,120.0
2821,D4,337.229,2479/1000,74,120.0
2822,G4,337.25,729/1000,79,120.0
2823,A1,337.5,2.281,123,120.0
2824,F#3,337.5,1479/1000,94,120.0
2825,D4,337.5,479/1000,59,120.0
2826,E8,337.5,0.031,85,120.0
2827,B1,337.5,0.031,42,120.0
2828,G#2,337.5,0.031,42,120.0
2829,E4,337.75,729/1000,109,120.0
2830,G#2,338.0,0.031,50,120.0
2831,D4,338.0,229/1000,79,120.0
2832,E8,338.0,0.031,85,120.0
2833,A3,338.25,729/1000,59,120.0
2834,G#2,338.5,0.031,30,120.0
2835,E4,338.5,729/1000,99,120.0
2836,D4,338.75,729/1000,79,120.0
2837,E3,339.0,479/1000,87,120.0
2838,A3,339.0,729/1000,59,120.0
2839,C#2,339.0,0.031,70,120.0
2840,G#2,339.0,0.031,70,120.0
2841,E4,339.25,49/100,89,120.0
2842,D3,339.5,0.5,86,120.0
2843,G#2,339.5,0.031,30,120.0
2844,D4,339.5,0.5,79,120.0
2845,E8,339.5,0.031,85,120.0
2846,G3,339.729,1479/1000,74,120.0
2847,B3,339.729,1479/1000,74,120.0
2848,D4,339.729,1479/1000,74,120.0
2849,E4,339.75,229/1000,79,120.0
2850,D2,340.0,1.281,124,120.0
2851,D3,340.0,979/1000,86,120.0
2852,A3,340.0,229/1000,59,120.0
2853,D4,340.0,49/100,79,120.0
2854,E8,340.0,0.031,85,120.0
2855,B1,340.0,0.031,52,120.0
2856,G#2,340.0,0.031,52,120.0
2857,E4,340.25,729/1000,79,120.0
2858,G#2,340.5,0.031,30,120.0
2859,D4,340.5,229/1000,79,120.0
2860,A3,340.75,729/1000,59,120.0
2861,E4,341.0,729/1000,89,120.0
2862,C#2,341.0,0.031,70,120.0
2863,G#2,341.0,0.031,70,120.0
2864,A3,341.229,2479/1000,74,120.0
2865,C#4,341.229,2479/1000,74,120.0
2866,E4,341.229,2479/1000,74,120.0
2867,D4,341.25,729/1000,79,120.0
2868,D2,341.5,473/200,123,120.0
2869,A3,341.5,729/1000,59,120.0
2870,E8,341.5,0.031,85,120.0
2871,B1,341.5,0.031,42,120.0
2872,G#2,341.5,0.031,42,120.0
2873,E4,341.75,729/1000,99,120.0
2874,G#2,342.0,0.031,50,120.0
2875,D4,342.0,729/1000,79,120.0
2876,E8,342.0,0.031,85,120.0
2877,A3,342.25,729/1000,59,120.0
2878,G#2,342.5,0.031,30,120.0
2879,E4,342.5,729/1000,109,120.0
2880,D4,342.75,729/1000,79,120.0
2881,E3,343.0,479/1000,88,120.0
2882,A3,343.0,729/1000,59,120.0
2883,B1,343.0,0.031,61,120.0
2884,C#2,343.0,0.031,61,120.0
2885,G#2,343.0,0.031,61,120.0
2886,E4,343.25,729/1000,119,120.0
2887,F#3,343.5,479/1000,94,120.0
2888,D4,343.5,479/1000,79,120.0
2889,E8,343.5,0.031,85,120.0
2890,B1,343.5,0.031,25,120.0
2891,G#2,343.5,0.031,25,120.0
2892,A3,343.729,4.0,74,120.0
2893,D4,343.729,4.0,74,120.0
2894,A3,343.75,0.25,59,120.0
2895,B1,344.0,323/250,123,120.0
2896,G3,344.0,979/1000,96,120.0
2897,D4,344.0,229/1000,59,120.0
2898,A3,344.0,479/1000,59,120.0
2899,E8,344.0,0.031,85,120.0
2900,B1,344.0,0.031,47,120.0
2901,G#2,344.0,0.031,47,120.0
2902,A4,344.25,479/1000,109,120.0
2903,G#2,344.5,0.031,30,120.0
2904,G4,344.5,729/1000,79,120.0
2905,D4,344.75,729/1000,59,120.0
2906,F#3,345.0,479/1000,86,120.0
2907,A4,345.0,229/1000,119,120.0
2908,C#2,345.0,0.031,70,120.0
2909,G#2,345.0,0.031,70,120.0
2910,G4,345.25,729/1000,79,120.0
2911,A1,345.5,1151/500,123,120.0
2912,F#3,345.5,979/1000,93,120.0
2913,D4,345.5,479/1000,59,120.0
2914,E8,345.5,0.031,85,120.0
2915,B1,345.5,0.031,42,120.0
2916,G#2,345.5,0.031,42,120.0
2917,E4,345.75,729/1000,109,120.0
2918,G#2,346.0,0.031,50,120.0
2919,D4,346.0,229/1000,79,120.0
2920,E8,346.0,0.031,85,120.0
2921,A3,346.25,729/1000,59,120.0
2922,E3,346.5,479/1000,91,120.0
2923,G#2,346.5,0.031,30,120.0
2924,E4,346.5,729/1000,99,120.0
2925,D4,346.75,729/1000,79,120.0
2926,D3,347.0,979/1000,87,120.0
2927,A3,347.0,729/1000,59,120.0
2928,C#2,347.0,0.031,70,120.0
2929,G#2,347.0,0.031,70,120.0
2930,E4,347.25,729/1000,89,120.0
2931,G#2,347.5,0.031,30,120.0
2932,D4,347.5,479/1000,79,120.0
2933,E8,347.5,0.031,85,120.0
2934,A3,347.729,4.0,74,120.0
2935,D4,347.729,4.0,74,120.0
2936,D2,348.0,1.281,121,120.0
2937,D3,348.0,979/1000,59,120.0
2938,E8,348.0,0.031,85,120.0
2939,B1,348.0,0.031,52,120.0
2940,G#2,348.0,0.031,52,120.0
2941,G#2,348.5,0.031,30,120.0
2942,D3,348.75,979/1000,64,120.0
2943,C#2,349.0,0.031,70,120.0
2944,G#2,349.0,0.031,70,120.0
2945,F#3,349.0,479/1000,79,120.0
2946,D4,349.0,479/1000,79,120.0
2947,D2,349.5,1151/500,123,120.0
2948,E8,349.5,0.031,85,120.0
2949,B1,349.5,0.031,42,120.0
2950,G#2,349.5,0.031,42,120.0
2951,G3,349.5,1479/1000,92,120.0
2952,D4,349.5,1479/1000,92,120.0
2953,F#3,349.75,479/1000,78,120.0
2954,D4,349.75,479/1000,78,120.0
2955,G#2,350.0,0.031,50,120.0
2956,E8,350.0,0.031,85,120.0
2957,G3,350.25,1479/1000,92,120.0
2958,D4,350.25,1479/1000,92,120.0
2959,G#2,350.5,0.031,30,120.0
2960,F#3,351.0,979/1000,79,120.0
2961,B1,351.0,0.031,61,120.0
2962,C#2,351.0,0.031,61,120.0
2963,G#2,351.0,0.031,61,120.0
2964,E8,351.5,0.031,85,120.0
2965,B1,351.5,0.031,25,120.0
2966,G#2,351.5,0.031,25,120.0
2967,A3,351.729,1979/1000,74,120.0
2968,D4,351.729,4.0,74,120.0
2969,F#3,351.75,0.25,73,120.0
2970,D2,352.0,323/250,124,120.0
2971,F#3,352.0,729/1000,73,120.0
2972,D3,352.0,979/1000,59,120.0
2973,E8,352.0,0.031,85,120.0
2974,B1,352.0,0.031,47,120.0
2975,G#2,352.0,0.031,47,120.0
2976,G#2,352.5,0.031,30,120.0
2977,D3,352.75,979/1000,64,120.0
2978,C#2,353.0,0.031,70,120.0
2979,G#2,353.0,0.031,70,120.0
2980,F#3,353.0,479/1000,79,120.0
2981,D4,353.0,479/1000,79,120.0
2982,D2,353.5,1099/500,121,120.0
2983,E8,353.5,0.031,85,120.0
2984,B1,353.5,0.031,42,120.0
2985,G#2,353.5,0.031,42,120.0
2986,G3,353.5,1479/1000,92,120.0
2987,D4,353.5,1479/1000,92,120.0
2988,F#3,353.729,1979/1000,74,120.0
2989,F#3,353.75,479/1000,78,120.0
2990,D4,353.75,479/1000,78,120.0
2991,G#2,354.0,0.031,50,120.0
2992,E8,354.0,0.031,85,120.0
2993,G3,354.25,1479/1000,92,120.0
2994,D4,354.25,1479/1000,92,120.0
2995,G#2,354.5,0.031,30,120.0
2996,F#3,355.0,979/1000,79,120.0
2997,C#2,355.0,0.031,70,120.0
2998,G#2,355.0,0.031,70,120.0
2999,G#2,355.5,0.031,30,120.0
3000,E8,355.5,0.031,85,120.0
3001,B2,355.729,3979/1000,54,120.0
3002,A3,355.729,4.0,74,120.0
3003,D4,355.729,6979/1000,74,120.0
3004,F#3,355.75,0.25,73,120.0
3005,D2,356.0,1167/1000,121,120.0
3006,F#3,356.0,729/1000,73,120.0
3007,D3,356.0,979/1000,59,120.0
3008,E8,356.0,0.031,85,120.0
3009,B1,356.0,0.031,52,120.0
3010,G#2,356.0,0.031,52,120.0
3011,G#2,356.5,0.031,30,120.0
3012,D3,356.75,979/1000,64,120.0
3013,C#2,357.0,0.031,70,120.0
3014,G#2,357.0,0.031,70,120.0
3015,F#3,357.0,479/1000,79,120.0
3016,D4,357.0,479/1000,79,120.0
3017,D2,357.5,573/250,120,120.0
3018,E8,357.5,0.031,85,120.0
3019,B1,357.5,0.031,42,120.0
3020,G#2,357.5,0.031,42,120.0
3021,G3,357.5,1479/1000,92,120.0
3022,D4,357.5,1479/1000,92,120.0
3023,F#3,357.75,479/1000,78,120.0
3024,D4,357.75,479/1000,78,120.0
3025,G#2,358.0,0.031,50,120.0
3026,E8,358.0,0.031,85,120.0
3027,G3,358.25,1479/1000,92,120.0
3028,D4,358.25,1479/1000,92,120.0
3029,G#2,358.5,0.031,30,120.0
3030,F#3,359.0,979/1000,79,120.0
3031,B1,359.0,0.031,61,120.0
3032,C#2,359.0,0.031,61,120.0
3033,G#2,359.0,0.031,61,120.0
3034,E8,359.5,0.031,85,120.0
3035,B1,359.5,0.031,25,120.0
3036,G#2,359.5,0.031,25,120.0
3037,F#3,359.75,0.25,73,120.0
3038,D2,360.0,1323/1000,122,120.0
3039,F#3,360.0,729/1000,73,120.0
3040,D3,360.0,979/1000,59,120.0
3041,E8,360.0,0.031,85,120.0
3042,B1,360.0,0.031,47,120.0
3043,G#2,360.0,0.031,47,120.0
3044,G#2,360.5,0.031,30,120.0
3045,D3,360.75,979/1000,64,120.0
3046,C#2,361.0,0.031,70,120.0
3047,G#2,361.0,0.031,70,120.0
3048,F#3,361.0,479/1000,79,120.0
3049,D4,361.0,479/1000,79,120.0
3050,D2,361.5,2.156,123,120.0
3051,E8,361.5,0.031,85,120.0
3052,B1,361.5,0.031,42,120.0
3053,G#2,361.5,0.031,42,120.0
3054,G3,361.5,1479/1000,92,120.0
3055,D4,361.5,1479/1000,92,120.0
3056,F#3,361.75,479/1000,78,120.0
3057,D4,361.75,479/1000,78,120.0
3058,G#2,362.0,0.031,50,120.0
3059,E8,362.0,0.031,85,120.0
3060,G3,362.25,1479/1000,92,120.0
3061,D4,362.25,1479/1000,92,120.0
3062,G#2,362.5,0.031,30,120.0
3063,A3,362.708,2979/1000,74,120.0
3064,D3,362.708,2979/1000,64,120.0
3065,F#4,362.708,2979/1000,64,120.0
3066,F#3,363.0,979/1000,79,120.0
3067,C#2,363.0,0.031,70,120.0
3068,G#2,363.0,0.031,70,120.0
3069,G#2,363.5,0.031,30,120.0
3070,E8,363.5,0.031,85,120.0
3071,F#3,363.75,0.25,73,120.0
3072,D2,364.0,1271/1000,122,120.0
3073,F#3,364.0,729/1000,73,120.0
3074,D3,364.0,979/1000,59,120.0
3075,E8,364.0,0.031,85,120.0
3076,B1,364.0,0.031,52,120.0
3077,G#2,364.0,0.031,52,120.0
3078,G#2,364.5,0.031,30,120.0
3079,D3,364.75,979/1000,64,120.0
3080,C#2,365.0,0.031,70,120.0
3081,G#2,365.0,0.031,70,120.0
3082,F#3,365.0,479/1000,79,120.0
3083,D4,365.0,479/1000,79,120.0
3084,D2,365.5,2.281,122,120.0
3085,E8,365.5,0.031,85,120.0
3086,B1,365.5,0.031,42,120.0
3087,G#2,365.5,0.031,42,120.0
3088,G3,365.5,1479/1000,92,120.0
3089,D4,365.5,1479/1000,92,120.0
3090,F#3,365.75,479/1000,78,120.0
3091,D4,365.75,479/1000,78,120.0
3092,G#2,366.0,0.031,50,120.0
3093,E8,366.0,0.031,85,120.0
3094,G3,366.25,1479/1000,92,120.0
3095,D4,366.25,1479/1000,92,120.0
3096,G#2,366.5,0.031,30,120.0
3097,B2,366.708,3979/1000,54,120.0
3098,A3,366.708,4.0,74,120.0
3099,D4,366.708,4.0,74,120.0
3100,A4,366.708,4.0,74,120.0
3101,F#3,367.0,979/1000,79,120.0
3102,B1,367.0,0.031,61,120.0
3103,C#2,367.0,0.031,61,120.0
3104,G#2,367.0,0.031,61,120.0
3105,E8,367.5,0.031,85,120.0
3106,B1,367.5,0.031,25,120.0
3107,G#2,367.5,0.031,25,120.0
3108,F#3,367.75,0.25,73,120.0
3109,D2,368.0,651/500,120,120.0
3110,F#3,368.0,729/1000,73,120.0
3111,D3,368.0,979/1000,59,120.0
3112,E8,368.0,0.031,85,120.0
3113,B1,368.0,0.031,47,120.0
3114,G#2,368.0,0.031,47,120.0
3115,G#2,368.5,0.031,30,120.0
3116,D3,368.75,979/1000,64,120.0
3117,C#2,369.0,0.031,70,120.0
3118,G#2,369.0,0.031,70,120.0
3119,F#3,369.0,479/1000,79,120.0
3120,D4,369.0,479/1000,79,120.0
3121,D2,369.5,2.281,123,120.0
3122,E8,369.5,0.031,85,120.0
3123,B1,369.5,0.031,42,120.0
3124,G#2,369.5,0.031,42,120.0
3125,G3,369.5,1479/1000,92,120.0
3126,D4,369.5,1479/1000,92,120.0
3127,F#3,369.75,479/1000,78,120.0
3128,D4,369.75,479/1000,78,120.0
3129,G#2,370.0,0.031,50,120.0
3130,E8,370.0,0.031,85,120.0
3131,G3,370.25,1479/1000,92,120.0
3132,D4,370.25,1479/1000,92,120.0
3133,G#2,370.5,0.031,30,120.0
3134,F#3,371.0,979/1000,79,120.0
3135,C#2,371.0,0.031,70,120.0
3136,G#2,371.0,0.031,70,120.0
3137,G#2,371.5,0.031,30,120.0
3138,E8,371.5,0.031,85,120.0
3139,F#3,371.75,0.25,73,120.0
3140,D2,372.0,1.219,122,120.0
3141,F#3,372.0,729/1000,73,120.0
3142,D3,372.0,979/1000,59,120.0
3143,E8,372.0,0.031,85,120.0
3144,B1,372.0,0.031,52,120.0
3145,G#2,372.0,0.031,52,120.0
3146,G#2,372.5,0.031,30,120.0
3147,D3,372.75,979/1000,64,120.0
3148,C#2,373.0,0.031,70,120.0
3149,G#2,373.0,0.031,70,120.0
3150,F#3,373.0,479/1000,79,120.0
3151,D4,373.0,479/1000,79,120.0
3152,D2,373.5,2177/1000,122,120.0
3153,E8,373.5,0.031,85,120.0
3154,B1,373.5,0.031,42,120.0
3155,G#2,373.5,0.031,42,120.0
3156,G3,373.5,1479/1000,92,120.0
3157,D4,373.5,1479/1000,92,120.0
3158,D3,373.688,2979/1000,64,120.0
3159,F#4,373.688,2979/1000,64,120.0
3160,A3,373.688,2979/1000,74,120.0
3161,D4,373.688,2979/1000,74,120.0
3162,A4,373.688,2979/1000,74,120.0
3163,F#3,373.75,479/1000,78,120.0
3164,D4,373.75,479/1000,78,120.0
3165,G#2,374.0,0.031,50,120.0
3166,E8,374.0,0.031,85,120.0
3167,G3,374.25,1479/1000,92,120.0
3168,D4,374.25,1479/1000,92,120.0
3169,G#2,374.5,0.031,30,120.0
3170,F#3,375.0,979/1000,79,120.0
3171,B1,375.0,0.031,61,120.0
3172,C#2,375.0,0.031,61,120.0
3173,G#2,375.0,0.031,61,120.0
3174,E8,375.5,0.031,85,120.0
3175,B1,375.5,0.031,25,120.0
3176,G#2,375.5,0.031,25,120.0
3177,F#3,375.75,0.25,73,120.0
3178,D2,376.0,4.0,120,120.0
3179,F#3,376.0,729/1000,73,120.0
3180,E8,376.0,0.031,85,120.0
3181,B1,376.0,0.031,47,120.0
3182,G#2,376.0,0.031,47,120.0
3183,D3,376.0,4.0,92,120.0
3184,A3,376.0,4.0,92,120.0
3185,D3,376.75,3.25,92,120.0
3186,A3,376.75,3.25,92,120.0
3187,B3,377.688,1479/1000,74,120.0
3188,D4,377.688,1479/1000,74,120.0
3189,F#4,377.688,1479/1000,74,120.0
3190,A3,379.188,2479/1000,74,120.0
3191,C#4,379.188,2479/1000,74,120.0
3192,E4,379.188,2479/1000,74,120.0
3193,D2,380.0,0.062,120,120.0
3194,D3,380.0,4.0,92,120.0
3195,A3,380.0,4.0,92,120.0
3196,F#3,381.688,3979/1000,74,120.0
3197,A3,381.688,3979/1000,74,120.0
3198,D4,381.688,3979/1000,74,120.0
3199,D3,383.979,3979/1000,92,120.0
3200,A3,383.979,3979/1000,92,120.0
3201,D3,384.729,729/1000,92,120.0
3202,A3,384.729,729/1000,92,120.0
3203,B3,385.688,1479/1000,74,120.0
3204,D4,385.688,1479/1000,74,120.0
3205,F#4,385.688,1479/1000,74,120.0
3206,A3,387.188,2479/1000,74,120.0
3207,C#4,387.188,2479/1000,74,120.0
3208,E4,387.188,2479/1000,74,120.0
3209,F#3,389.688,4.0,74,120.0
3210,A3,389.688,4.0,74,120.0
3211,D4,389.688,4.0,74,120.0
3212,F#3,396.667,2979/1000,74,120.0
3213,A3,396.667,2979/1000,74,120.0
3214,D4,396.667,2979/1000,74,120.0
3215,B3,400.667,3979/1000,74,120.0
3216,C#4,400.667,3979/1000,74,120.0
3217,F#4,400.667,3979/1000,74,120.0
3218,B3,404.667,4.0,74,120.0
3219,D4,404.667,4.0,74,120.0
3220,G4,404.667,4.0,74,120.0
3221,B3,412.646,3979/1000,74,120.0
3222,D4,412.646,3979/1000,74,120.0
3223,G4,412.646,3979/1000,74,120.0
3224,F#3,416.646,3979/1000,74,120.0
3225,A3,416.646,3979/1000,74,120.0
3226,D4,416.646,3979/1000,74,120.0
3227,A3,420.646,3979/1000,74,120.0
3228,C#4,420.646,3979/1000,74,120.0
3229,F#4,420.646,3979/1000,74,120.0
3230,B3,424.646,1479/1000,74,120.0
3231,D4,424.646,1479/1000,74,120.0
3232,G4,424.646,1479/1000,74,120.0
3233,F#3,426.146,2479/1000,74,120.0
3234,A3,426.146,2479/1000,74,120.0
3235,D4,426.146,2479/1000,74,120.0
3236,G3,428.646,1479/1000,74,120.0
3237,B3,428.646,1479/1000,74,120.0
3238,D4,428.646,1479/1000,74,120.0
3239,A3,430.146,2479/1000,74,120.0
3240,C#4,430.146,2479/1000,74,120.0
3241,E4,430.146,2479/1000,74,120.0
3242,F#3,432.646,3979/1000,74,120.0
3243,A3,432.646,3979/1000,74,120.0
3244,D4,432.646,3979/1000,74,120.0
3245,B3,436.646,3979/1000,74,120.0
3246,C#4,436.646,3979/1000,74,120.0
3247,F#4,436.646,3979/1000,74,120.0
3248,B3,440.646,4.0,74,120.0
3249,D4,440.646,4.0,74,120.0
3250,G4,440.646,4.0,74,120.0
3251,B3,448.625,3979/1000,74,120.0
3252,D4,448.625,3979/1000,74,120.0
3253,G4,448.625,3979/1000,74,120.0
3254,A3,452.625,3979/1000,74,120.0
3255,D4,452.625,3979/1000,74,120.0
3256,F#4,452.625,3979/1000,74,120.0
3257,A3,456.625,3979/1000,74,120.0
3258,C#4,456.625,3979/1000,74,120.0
3259,F#4,456.625,3979/1000,74,120.0
3260,B3,460.625,1479/1000,74,120.0
3261,D4,460.625,1479/1000,74,120.0
3262,G4,460.625,1479/1000,74,120.0
3263,F#3,462.125,2479/1000,74,120.0
3264,A3,462.125,2479/1000,74,120.0
3265,D4,462.125,2479/1000,74,120.0
3266,G3,464.625,1479/1000,74,120.0
3267,B3,464.625,1479/1000,74,120.0
3268,D4,464.625,1479/1000,74,120.0
3269,A3,466.125,2479/1000,74,120.0
3270,C#4,466.125,2479/1000,74,120.0
3271,E4,466.125,2479/1000,74,120.0
3272,A3,468.625,3979/1000,74,120.0
3273,D4,468.625,3979/1000,74,120.0
3274,A4,471.625,1.0,74,120.0
3275,A4,472.625,3979/1000,74,120.0
3276,A3,472.625,3979/1000,74,120.0
3277,C#4,472.625,3979/1000,74,120.0
3278,F#4,472.625,3979/1000,74,120.0
3279,B3,476.625,4.0,74,120.0
3280,D4,476.625,4.0,74,120.0
3281,G4,476.625,4.0,74,120.0
3282,B3,484.604,3979/1000,74,120.0
3283,D4,484.604,3979/1000,74,120.0
3284,G4,484.604,3979/1000,74,120.0
3285,A3,488.604,3979/1000,74,120.0
3286,D4,488.604,3979/1000,74,120.0
3287,F#4,488.604,3979/1000,74,120.0
3288,A3,492.604,3979/1000,74,120.0
3289,C#4,492.604,3979/1000,74,120.0
3290,F#4,492.604,3979/1000,74,120.0
3291,B3,496.604,1479/1000,74,120.0
3292,D4,496.604,1479/1000,74,120.0
3293,G4,496.604,1479/1000,74,120.0
3294,F#3,498.104,2479/1000,74,120.0
3295,A3,498.104,2479/1000,74,120.0
3296,D4,498.104,2479/1000,74,120.0
3297,G3,500.604,1479/1000,74,120.0
3298,B3,500.604,1479/1000,74,120.0
3299,D4,500.604,1479/1000,74,120.0
3300,A3,502.104,2479/1000,74,120.0
3301,C#4,502.104,2479/1000,74,120.0
3302,E4,502.104,2479/1000,74,120.0
3303,F#3,504.604,3979/1000,74,120.0
3304,A3,504.604,3979/1000,74,120.0
3305,D4,504.604,3979/1000,74,120.0
3306,G3,508.604,1479/1000,74,120.0
3307,B3,508.604,1479/1000,74,120.0
3308,D4,508.604,1479/1000,74,120.0
3309,A3,510.104,2479/1000,74,120.0
3310,C#4,510.104,2479/1000,74,120.0
3311,E4,510.104,2479/1000,74,120.0
3312,F#3,512.604,3979/1000,74,120.0
3313,A3,512.604,3979/1000,74,120.0
3314,D4,512.604,3979/1000,74,120.0
3315,G3,516.604,1479/1000,74,120.0
3316,B3,516.604,1479/1000,74,120.0
3317,D4,516.604,1479/1000,74,120.0
3318,A3,518.104,2479/1000,74,120.0
3319,C#4,518.104,2479/1000,74,120.0
3320,E4,518.104,2479/1000,74,120.0
3321,D4,520.604,4.0,74,120.0
3322,A2,520.604,1479/1000,74,120.0
3323,F#3,520.604,1479/1000,74,120.0
3324,B2,522.104,1479/1000,74,120.0
3325,G3,522.104,1479/1000,74,120.0
3326,A2,523.604,979/1000,74,120.0
3327,F#3,523.604,979/1000,74,120.0
3328,D4,524.604,4.0,74,120.0
3329,A2,524.604,1479/1000,74,120.0
3330,F#3,524.604,1479/1000,74,120.0
3331,B2,526.104,1479/1000,74,120.0
3332,G3,526.104,1479/1000,74,120.0
3333,A2,527.604,979/1000,74,120.0
3334,F#3,527.604,979/1000,74,120.0
3335,D4,528.604,4.0,74,120.0
3336,A2,528.604,1479/1000,74,120.0
3337,F#3,528.604,1479/1000,74,120.0
3338,B2,530.104,1479/1000,74,120.0
3339,G3,530.104,1479/1000,74,120.0
3340,A2,531.604,979/1000,74,120.0
3341,F#3,531.604,979/1000,74,120.0
3342,D4,532.604,4.0,74,120.0
3343,A2,532.604,1479/1000,74,120.0
3344,F#3,532.604,1479/1000,74,120.0
3345,B2,534.104,1479/1000,74,120.0
3346,G3,534.104,1479/1000,74,120.0
3347,A2,535.604,979/1000,74,120.0
3348,F#3,535.604,979/1000,74,120.0
3349,D4,536.604,4.0,74,120.0
3350,A2,536.604,1479/1000,74,120.0
3351,F#3,536.604,1479/1000,74,120.0
3352,B2,538.104,1479/1000,74,120.0
3353,G3,538.104,1479/1000,74,120.0
3354,A2,539.604,979/1000,74,120.0
3355,F#3,539.604,979/1000,74,120.0
3356,D4,540.604,4.0,74,120.0
3357,A2,540.604,1479/1000,74,120.0
3358,F#3,540.604,1479/1000,74,120.0
3359,B2,542.104,1479/1000,74,120.0
3360,G3,542.104,1479/1000,74,120.0
3361,A2,543.604,979/1000,74,120.0
3362,F#3,543.604,979/1000,74,120.0
3363,D4,544.604,4.0,74,120.0
3364,A2,544.604,1479/1000,74,120.0
3365,F#3,544.604,1479/1000,74,120.0
3366,B2,546.104,1479/1000,74,120.0
3367,G3,546.104,1479/1000,74,120.0
3368,A2,547.604,979/1000,74,120.0
3369,F#3,547.604,979/1000,74,120.0
3370,D4,548.604,4.0,74,120.0
3371,A2,548.604,4.0,74,120.0
3372,F#3,548.604,4.0,74,120.0
3373,D4,552.604,3979/1000,74,120.0
3374,A2,552.604,3979/1000,74,120.0
3375,F#3,552.604,3979/1000,74,120.0
