,note_name,start_time,duration,velocity,tempo
0,C2,0.0,0.75,100,124.4
1,B-4,0.0,333/1000,65,124.4
2,F2,0.0,3.5,95,124.4
3,E-4,0.0,3.5,95,124.4
4,C3,0.0,3.5,95,124.4
5,B-3,0.0,3.5,95,124.4
6,F2,0.0,3.5,95,124.4
7,F2,0.0,3.5,95,124.4
8,G#3,0.0,3.5,95,124.4
9,G#3,0.0,3.5,95,124.4
10,G3,0.0,3.5,95,124.4
11,E-4,0.0,3.5,95,124.4
12,G3,0.0,3.5,95,124.4
13,B-3,0.0,3.5,95,124.4
14,C3,0.0,3.5,95,124.4
15,B-4,0.5,333/1000,65,124.4
16,B-2,1.0,0.75,100,124.4
17,B-4,1.0,333/1000,65,124.4
18,B-4,1.5,333/1000,65,124.4
19,G#3,1.5,0.5,70,124.4
20,B-4,2.0,333/1000,65,124.4
21,B-4,2.5,333/1000,65,124.4
22,G#3,2.5,0.5,70,124.4
23,B-2,3.0,0.75,100,124.4
24,B-4,3.0,333/1000,65,124.4
25,C2,3.5,0.5,100,124.4
26,B-4,3.5,333/1000,65,124.4
27,E-3,3.5,0.5,92,124.4
28,E-3,3.5,0.5,92,124.4
29,G#2,3.5,0.5,92,124.4
30,E-4,3.5,0.5,92,124.4
31,G#2,3.5,0.5,92,124.4
32,E-4,3.5,0.5,92,124.4
33,G#2,3.5,0.5,92,124.4
34,B-3,3.5,0.5,92,124.4
35,B-3,3.5,0.5,92,124.4
36,B-4,4.0,333/1000,65,124.4
37,C2,4.0,0.25,100,124.4
38,E-3,4.0,4.0,92,124.4
39,E-3,4.0,4.0,92,124.4
40,G#2,4.0,4.0,92,124.4
41,E-4,4.0,4.0,92,124.4
42,G#2,4.0,4.0,92,124.4
43,E-4,4.0,4.0,92,124.4
44,G#2,4.0,4.0,92,124.4
45,B-3,4.0,4.0,92,124.4
46,B-3,4.0,4.0,92,124.4
47,B-4,4.5,333/1000,65,124.4
48,B-2,5.0,0.75,100,124.4
49,B-4,5.0,333/1000,65,124.4
50,B-4,5.5,333/1000,65,124.4
51,G#3,5.5,0.5,70,124.4
52,B-4,6.0,333/1000,65,124.4
53,B-4,6.5,333/1000,65,124.4
54,G#3,6.5,0.5,70,124.4
55,B-2,7.0,0.75,100,124.4
56,B-4,7.0,333/1000,65,124.4
57,B-4,7.5,333/1000,65,124.4
58,C2,8.0,0.75,100,124.4
59,B-4,8.0,333/1000,65,124.4
60,E-2,8.0,3.5,92,124.4
61,E-2,8.0,3.5,92,124.4
62,B-2,8.0,3.5,92,124.4
63,E-2,8.0,3.5,92,124.4
64,B-3,8.0,3.5,92,124.4
65,F3,8.0,3.5,92,124.4
66,B-2,8.0,3.5,92,124.4
67,B-3,8.0,3.5,92,124.4
68,F3,8.0,3.5,92,124.4
69,B-4,8.5,333/1000,65,124.4
70,B-2,9.0,0.75,100,124.4
71,B-4,9.0,333/1000,65,124.4
72,G#3,9.5,0.5,70,124.4
73,B-4,9.5,333/1000,65,124.4
74,B-4,10.0,333/1000,65,124.4
75,G#3,10.5,0.5,70,124.4
76,B-4,10.5,333/1000,65,124.4
77,B-4,11.0,333/1000,65,124.4
78,B-2,11.0,0.75,100,124.4
79,C2,11.5,0.5,100,124.4
80,B-4,11.5,333/1000,65,124.4
81,G#2,11.5,0.5,92,124.4
82,E-3,11.5,0.5,92,124.4
83,G#3,11.5,0.5,92,124.4
84,C#2,11.5,0.5,92,124.4
85,C#2,11.5,0.5,92,124.4
86,G#3,11.5,0.5,92,124.4
87,G#2,11.5,0.5,92,124.4
88,C#2,11.5,0.5,92,124.4
89,E-3,11.5,0.5,92,124.4
90,C#6,12.0,0.25,69,124.4
91,B-4,12.0,333/1000,65,124.4
92,C2,12.0,0.25,100,124.4
93,G#2,12.0,1.5,92,124.4
94,E-3,12.0,1.5,92,124.4
95,G#3,12.0,1.5,92,124.4
96,C#2,12.0,1.5,92,124.4
97,C#2,12.0,1.5,92,124.4
98,G#3,12.0,1.5,92,124.4
99,G#2,12.0,1.5,92,124.4
100,C#2,12.0,1.5,92,124.4
101,E-3,12.0,1.5,92,124.4
102,G#5,12.25,0.25,69,124.4
103,E-5,12.5,0.25,69,124.4
104,B-4,12.5,333/1000,65,124.4
105,C#5,12.75,0.25,69,124.4
106,B-2,13.0,0.75,100,124.4
107,C#6,13.0,0.25,69,124.4
108,B-4,13.0,333/1000,65,124.4
109,G#5,13.25,0.25,69,124.4
110,B-4,13.5,333/1000,65,124.4
111,C2,13.5,0.75,100,124.4
112,F5,13.5,0.25,69,124.4
113,B-3,13.5,0.5,90,124.4
114,B-2,13.5,0.5,90,124.4
115,B-3,13.5,0.5,90,124.4
116,E-2,13.5,0.5,90,124.4
117,F3,13.5,0.5,90,124.4
118,E-2,13.5,0.5,90,124.4
119,E-2,13.5,0.5,90,124.4
120,G#3,13.5,0.5,90,124.4
121,F3,13.5,0.5,90,124.4
122,B-2,13.5,0.5,90,124.4
123,E-5,13.75,0.25,69,124.4
124,E-6,14.0,0.25,69,124.4
125,C2,14.0,0.75,100,124.4
126,B-4,14.0,333/1000,65,124.4
127,B-3,14.0,2.0,92,124.4
128,F3,14.0,2.0,92,124.4
129,F3,14.0,2.0,92,124.4
130,E-2,14.0,2.0,92,124.4
131,E-2,14.0,2.0,92,124.4
132,B-2,14.0,2.0,92,124.4
133,B-2,14.0,2.0,92,124.4
134,E-2,14.0,2.0,92,124.4
135,B-3,14.0,2.0,92,124.4
136,B-5,14.25,0.25,69,124.4
137,G#3,14.5,0.5,70,124.4
138,F5,14.5,0.25,69,124.4
139,B-4,14.5,333/1000,65,124.4
140,E-5,14.75,0.25,69,124.4
141,E-6,15.0,0.25,69,124.4
142,B-2,15.0,0.75,100,124.4
143,B-4,15.0,333/1000,65,124.4
144,B-5,15.25,0.25,69,124.4
145,B-4,15.5,333/1000,65,124.4
146,F5,15.5,0.25,69,124.4
147,E-5,15.75,0.25,69,124.4
148,C2,16.0,0.75,100,124.4
149,B-4,16.0,333/1000,65,124.4
150,G#3,16.0,873/250,95,124.4
151,G3,16.0,873/250,95,124.4
152,B-3,16.0,873/250,95,124.4
153,C3,16.0,873/250,95,124.4
154,G3,16.0,873/250,95,124.4
155,F2,16.0,873/250,95,124.4
156,C3,16.0,873/250,95,124.4
157,B-3,16.0,873/250,95,124.4
158,G#3,16.0,873/250,95,124.4
159,E-4,16.0,873/250,95,124.4
160,E-4,16.0,873/250,95,124.4
161,F2,16.0,873/250,95,124.4
162,F2,16.0,873/250,95,124.4
163,B-4,16.5,333/1000,65,124.4
164,B-2,17.0,0.75,100,124.4
165,B-4,17.0,333/1000,65,124.4
166,G#3,17.5,0.5,70,124.4
167,B-4,17.5,333/1000,65,124.4
168,B-4,18.0,333/1000,65,124.4
169,B-4,18.5,333/1000,65,124.4
170,G#3,18.5,0.5,70,124.4
171,B-2,19.0,0.75,100,124.4
172,B-4,19.0,333/1000,65,124.4
173,C2,19.5,0.5,100,124.4
174,B-4,19.5,333/1000,65,124.4
175,E-4,19.5,0.5,92,124.4
176,G#2,19.5,0.5,92,124.4
177,G#2,19.5,0.5,92,124.4
178,G#2,19.5,0.5,92,124.4
179,B-3,19.5,0.5,92,124.4
180,E-3,19.5,0.5,92,124.4
181,B-3,19.5,0.5,92,124.4
182,E-3,19.5,0.5,92,124.4
183,E-4,19.5,0.5,92,124.4
184,G#4,20.0,0.25,69,124.4
185,B-4,20.0,333/1000,65,124.4
186,C2,20.0,0.25,100,124.4
187,E-4,20.0,4.0,92,124.4
188,G#2,20.0,4.0,92,124.4
189,G#2,20.0,4.0,92,124.4
190,G#2,20.0,4.0,92,124.4
191,B-3,20.0,4.0,92,124.4
192,E-3,20.0,4.0,92,124.4
193,B-3,20.0,4.0,92,124.4
194,E-3,20.0,4.0,92,124.4
195,E-4,20.0,4.0,92,124.4
196,E-5,20.25,0.25,69,124.4
197,B-4,20.5,333/1000,65,124.4
198,B-5,20.5,0.25,69,124.4
199,E-5,20.75,0.25,69,124.4
200,B-4,21.0,333/1000,65,124.4
201,G#4,21.0,0.25,69,124.4
202,B-2,21.0,0.75,100,124.4
203,E-5,21.25,0.25,69,124.4
204,B-4,21.5,333/1000,65,124.4
205,G#3,21.5,0.5,70,124.4
206,B-5,21.5,0.5,70,124.4
207,G#4,22.0,0.25,69,124.4
208,B-4,22.0,333/1000,65,124.4
209,E-5,22.25,0.25,69,124.4
210,B-4,22.5,333/1000,65,124.4
211,G#3,22.5,0.5,70,124.4
212,B-5,22.5,0.25,69,124.4
213,E-5,22.75,0.25,69,124.4
214,B-4,23.0,333/1000,65,124.4
215,G#4,23.0,0.25,69,124.4
216,B-2,23.0,0.75,100,124.4
217,E-5,23.25,0.25,69,124.4
218,B-4,23.5,333/1000,65,124.4
219,B-5,23.5,0.5,69,124.4
220,C2,24.0,0.75,100,124.4
221,E-5,24.0,0.25,69,124.4
222,B-4,24.0,333/1000,65,124.4
223,B-2,24.0,3.5,92,124.4
224,F3,24.0,3.5,92,124.4
225,B-3,24.0,3.5,92,124.4
226,E-2,24.0,3.5,92,124.4
227,B-3,24.0,3.5,92,124.4
228,F3,24.0,3.5,92,124.4
229,E-2,24.0,3.5,92,124.4
230,E-2,24.0,3.5,92,124.4
231,B-2,24.0,3.5,92,124.4
232,B-5,24.25,0.25,69,124.4
233,B-4,24.5,333/1000,65,124.4
234,F6,24.5,0.25,69,124.4
235,B-5,24.75,0.25,69,124.4
236,B-2,25.0,0.75,100,124.4
237,E-5,25.0,0.25,69,124.4
238,B-4,25.0,333/1000,65,124.4
239,B-5,25.25,0.25,69,124.4
240,B-4,25.5,333/1000,65,124.4
241,F6,25.5,0.5,70,124.4
242,G#3,25.5,0.5,70,124.4
243,B-4,26.0,333/1000,65,124.4
244,E-5,26.0,0.25,69,124.4
245,B-5,26.25,0.25,69,124.4
246,B-4,26.5,333/1000,65,124.4
247,G#3,26.5,0.5,70,124.4
248,F6,26.5,0.25,69,124.4
249,B-5,26.75,0.25,69,124.4
250,B-4,27.0,333/1000,65,124.4
251,E-5,27.0,0.25,69,124.4
252,B-2,27.0,0.75,100,124.4
253,B-5,27.25,0.25,69,124.4
254,C2,27.5,0.5,100,124.4
255,F6,27.5,0.5,69,124.4
256,B-4,27.5,333/1000,65,124.4
257,C#2,27.5,0.5,92,124.4
258,G#2,27.5,0.5,92,124.4
259,G#3,27.5,0.5,92,124.4
260,G#2,27.5,0.5,92,124.4
261,C#2,27.5,0.5,92,124.4
262,G#3,27.5,0.5,92,124.4
263,E-3,27.5,0.5,92,124.4
264,E-3,27.5,0.5,92,124.4
265,C#2,27.5,0.5,92,124.4
266,B-4,29.5,333/1000,65,124.4
267,C#5,29.5,0.25,69,124.4
268,C2,29.5,0.25,100,124.4
269,C#2,29.5,1.5,92,124.4
270,G#2,29.5,1.5,92,124.4
271,G#3,29.5,1.5,92,124.4
272,G#2,29.5,1.5,92,124.4
273,C#2,29.5,1.5,92,124.4
274,G#3,29.5,1.5,92,124.4
275,E-3,29.5,1.5,92,124.4
276,E-3,29.5,1.5,92,124.4
277,C#2,29.5,1.5,92,124.4
278,G#5,29.75,0.25,69,124.4
279,B-4,30.0,333/1000,65,124.4
280,E-6,30.0,0.25,69,124.4
281,G#5,30.25,0.25,69,124.4
282,B-2,30.5,0.75,100,124.4
283,B-4,30.5,333/1000,65,124.4
284,C#5,30.5,0.25,69,124.4
285,G#5,30.75,0.25,69,124.4
286,B-4,31.0,333/1000,65,124.4
287,C2,31.0,0.75,100,124.4
288,E-2,31.0,0.5,88,124.4
289,B-3,31.0,0.5,88,124.4
290,B-2,31.0,0.5,88,124.4
291,E-2,31.0,0.5,88,124.4
292,F3,31.0,0.5,88,124.4
293,F3,31.0,0.5,88,124.4
294,G#3,31.0,0.5,88,124.4
295,E-2,31.0,0.5,88,124.4
296,B-2,31.0,0.5,88,124.4
297,E-6,31.0,0.5,88,124.4
298,B-3,31.0,0.5,88,124.4
299,C2,31.5,0.75,100,124.4
300,B-4,31.5,333/1000,65,124.4
301,E-5,31.5,0.25,69,124.4
302,B-3,31.5,2.0,92,124.4
303,E-2,31.5,2.0,92,124.4
304,F3,31.5,2.0,92,124.4
305,B-3,31.5,2.0,92,124.4
306,E-2,31.5,2.0,92,124.4
307,B-2,31.5,2.0,92,124.4
308,E-2,31.5,2.0,92,124.4
309,F3,31.5,2.0,92,124.4
310,B-2,31.5,2.0,92,124.4
311,B-5,31.75,0.25,69,124.4
312,B-4,32.0,333/1000,65,124.4
313,G#3,32.0,0.5,70,124.4
314,F6,32.0,0.25,69,124.4
315,B-5,32.25,0.25,69,124.4
316,B-2,32.5,0.75,100,124.4
317,B-4,32.5,333/1000,65,124.4
318,E-5,32.5,0.25,69,124.4
319,B-5,32.75,0.25,69,124.4
320,B-4,33.0,333/1000,65,124.4
321,F6,33.0,0.5,82,124.4
322,C5,33.0,0.5,82,124.4
323,B-4,33.5,333/1000,65,124.4
324,E-5,33.5,0.5,95,124.4
325,C2,33.5,0.75,100,124.4
326,G3,33.5,873/250,95,124.4
327,F2,33.5,873/250,95,124.4
328,G3,33.5,873/250,95,124.4
329,C3,33.5,873/250,95,124.4
330,G#3,33.5,873/250,95,124.4
331,F2,33.5,873/250,95,124.4
332,B-3,33.5,873/250,95,124.4
333,C3,33.5,873/250,95,124.4
334,F2,33.5,873/250,95,124.4
335,E-4,33.5,873/250,95,124.4
336,G#3,33.5,873/250,95,124.4
337,E-4,33.5,873/250,95,124.4
338,B-3,33.5,873/250,95,124.4
339,F5,34.0,0.5,95,124.4
340,B-4,34.0,333/1000,65,124.4
341,B-2,34.5,0.75,100,124.4
342,F5,34.5,0.5,95,124.4
343,B-4,34.5,333/1000,65,124.4
344,B-4,35.0,333/1000,65,124.4
345,G#3,35.0,0.5,82,124.4
346,F5,35.0,0.5,82,124.4
347,F5,35.5,0.5,95,124.4
348,B-4,35.5,333/1000,65,124.4
349,G#3,36.0,0.5,70,124.4
350,B-4,36.0,333/1000,65,124.4
351,F5,36.0,1.0,95,124.4
352,B-2,36.5,0.75,100,124.4
353,B-4,36.5,333/1000,65,124.4
354,B-4,37.0,333/1000,65,124.4
355,E-5,37.0,0.5,95,124.4
356,C2,37.0,0.5,100,124.4
357,E-3,37.0,0.5,92,124.4
358,E-4,37.0,0.5,92,124.4
359,E-3,37.0,0.5,92,124.4
360,B-3,37.0,0.5,92,124.4
361,G#2,37.0,0.5,92,124.4
362,G#2,37.0,0.5,92,124.4
363,B-3,37.0,0.5,92,124.4
364,G#2,37.0,0.5,92,124.4
365,E-4,37.0,0.5,92,124.4
366,B-4,37.5,333/1000,65,124.4
367,E-5,37.5,1.0,95,124.4
368,C2,37.5,0.25,100,124.4
369,E-3,37.5,4.0,92,124.4
370,E-4,37.5,4.0,92,124.4
371,E-3,37.5,4.0,92,124.4
372,B-3,37.5,4.0,92,124.4
373,G#2,37.5,4.0,92,124.4
374,G#2,37.5,4.0,92,124.4
375,B-3,37.5,4.0,92,124.4
376,G#2,37.5,4.0,92,124.4
377,E-4,37.5,4.0,92,124.4
378,B-4,38.0,333/1000,65,124.4
379,B-4,38.5,333/1000,65,124.4
380,C5,38.5,0.5,95,124.4
381,B-2,38.5,0.75,100,124.4
382,B-4,39.0,333/1000,65,124.4
383,B-4,39.0,0.5,82,124.4
384,G#3,39.0,0.5,82,124.4
385,C5,39.5,0.5,95,124.4
386,B-4,39.5,333/1000,65,124.4
387,B-4,40.0,333/1000,65,124.4
388,G#3,40.0,0.5,70,124.4
389,B-4,40.0,1.0,95,124.4
390,B-4,40.5,333/1000,65,124.4
391,B-2,40.5,0.75,100,124.4
392,B-4,41.0,333/1000,65,124.4
393,B-4,41.0,0.5,95,124.4
394,C2,41.5,0.75,100,124.4
395,B-4,41.5,333/1000,65,124.4
396,B-4,41.5,0.5,95,124.4
397,E-2,41.5,3.5,92,124.4
398,B-2,41.5,3.5,92,124.4
399,F3,41.5,3.5,92,124.4
400,E-2,41.5,3.5,92,124.4
401,E-2,41.5,3.5,92,124.4
402,F3,41.5,3.5,92,124.4
403,B-3,41.5,3.5,92,124.4
404,B-3,41.5,3.5,92,124.4
405,B-2,41.5,3.5,92,124.4
406,B-4,42.0,333/1000,65,124.4
407,B-4,42.0,0.25,95,124.4
408,G#4,42.25,0.25,95,124.4
409,B-2,42.5,0.75,100,124.4
410,B-4,42.5,333/1000,65,124.4
411,F4,42.5,1.0,95,124.4
412,G#3,43.0,0.5,70,124.4
413,B-4,43.0,333/1000,65,124.4
414,B-4,43.5,333/1000,65,124.4
415,G#3,44.0,0.5,70,124.4
416,B-4,44.0,333/1000,65,124.4
417,B-2,44.5,0.75,100,124.4
418,B-4,44.5,333/1000,65,124.4
419,C2,45.0,0.5,100,124.4
420,B-4,45.0,333/1000,65,124.4
421,E-3,45.0,0.5,92,124.4
422,G#3,45.0,0.5,92,124.4
423,G#2,45.0,0.5,92,124.4
424,C#2,45.0,0.5,92,124.4
425,G#2,45.0,0.5,92,124.4
426,G#3,45.0,0.5,92,124.4
427,E-3,45.0,0.5,92,124.4
428,C#2,45.0,0.5,92,124.4
429,C#2,45.0,0.5,92,124.4
430,B-4,46.992,333/1000,65,124.4
431,C#6,46.992,0.25,69,124.4
432,C2,46.992,0.25,100,124.4
433,E-3,46.992,373/250,92,124.4
434,G#3,46.992,373/250,92,124.4
435,G#2,46.992,373/250,92,124.4
436,C#2,46.992,373/250,92,124.4
437,G#2,46.992,373/250,92,124.4
438,G#3,46.992,373/250,92,124.4
439,E-3,46.992,373/250,92,124.4
440,C#2,46.992,373/250,92,124.4
441,C#2,46.992,373/250,92,124.4
442,G#5,47.242,0.25,69,124.4
443,E-5,47.492,0.25,69,124.4
444,B-4,47.492,333/1000,65,124.4
445,C#5,47.742,0.25,69,124.4
446,B-2,47.992,0.75,100,124.4
447,B-4,47.992,333/1000,65,124.4
448,C#6,47.992,0.25,69,124.4
449,G#5,48.242,0.25,69,124.4
450,B-4,48.492,333/1000,65,124.4
451,F5,48.492,0.25,69,124.4
452,C2,48.492,0.75,100,124.4
453,B-2,48.492,123/250,90,124.4
454,B-3,48.492,123/250,90,124.4
455,F3,48.492,123/250,90,124.4
456,G#3,48.492,123/250,90,124.4
457,E-2,48.492,123/250,90,124.4
458,E-2,48.492,123/250,90,124.4
459,F3,48.492,123/250,90,124.4
460,B-3,48.492,123/250,90,124.4
461,B-2,48.492,123/250,90,124.4
462,E-2,48.492,123/250,90,124.4
463,E-5,48.742,0.25,69,124.4
464,E-6,48.992,0.25,69,124.4
465,C2,48.992,0.75,100,124.4
466,B-4,48.992,333/1000,65,124.4
467,B-3,48.992,2.0,92,124.4
468,B-2,48.992,2.0,92,124.4
469,B-2,48.992,2.0,92,124.4
470,F3,48.992,2.0,92,124.4
471,B-3,48.992,2.0,92,124.4
472,E-2,48.992,2.0,92,124.4
473,E-2,48.992,2.0,92,124.4
474,E-2,48.992,2.0,92,124.4
475,F3,48.992,2.0,92,124.4
476,B-5,49.242,0.25,69,124.4
477,F5,49.492,0.25,69,124.4
478,B-4,49.492,333/1000,65,124.4
479,G#3,49.492,0.5,70,124.4
480,E-5,49.742,0.25,69,124.4
481,B-2,49.992,0.75,100,124.4
482,E-6,49.992,0.25,69,124.4
483,B-4,49.992,333/1000,65,124.4
484,B-5,50.242,0.25,69,124.4
485,B-4,50.492,333/1000,65,124.4
486,C5,50.492,0.5,95,124.4
487,F5,50.492,0.25,69,124.4
488,E-5,50.742,0.25,69,124.4
489,B-4,50.992,333/1000,65,124.4
490,E-5,50.992,0.5,95,124.4
491,C2,50.992,0.75,100,124.4
492,B-3,50.992,3.5,95,124.4
493,G#3,50.992,3.5,95,124.4
494,E-4,50.992,3.5,95,124.4
495,F2,50.992,3.5,95,124.4
496,E-4,50.992,3.5,95,124.4
497,G#3,50.992,3.5,95,124.4
498,G3,50.992,3.5,95,124.4
499,C3,50.992,3.5,95,124.4
500,F2,50.992,3.5,95,124.4
501,B-3,50.992,3.5,95,124.4
502,G3,50.992,3.5,95,124.4
503,F2,50.992,3.5,95,124.4
504,C3,50.992,3.5,95,124.4
505,F5,51.492,0.5,95,124.4
506,B-4,51.492,333/1000,65,124.4
507,B-4,51.992,333/1000,65,124.4
508,F5,51.992,1.0,95,124.4
509,B-2,51.992,0.75,100,124.4
510,B-4,52.492,333/1000,65,124.4
511,G#3,52.492,0.5,70,124.4
512,B-4,52.992,333/1000,65,124.4
513,F5,52.992,1.0,95,124.4
514,B-4,53.492,333/1000,65,124.4
515,G#3,53.492,0.5,70,124.4
516,B-2,53.992,0.75,100,124.4
517,B-4,53.992,333/1000,65,124.4
518,E-5,53.992,0.5,95,124.4
519,C2,54.492,0.5,100,124.4
520,B-4,54.492,333/1000,65,124.4
521,C5,54.492,0.5,95,124.4
522,G#2,54.492,0.5,92,124.4
523,G#2,54.492,0.5,92,124.4
524,B-3,54.492,0.5,92,124.4
525,E-4,54.492,0.5,92,124.4
526,E-3,54.492,0.5,92,124.4
527,G#2,54.492,0.5,92,124.4
528,E-3,54.492,0.5,92,124.4
529,B-3,54.492,0.5,92,124.4
530,E-4,54.492,0.5,92,124.4
531,B-4,54.992,333/1000,65,124.4
532,E-5,54.992,0.5,95,124.4
533,C2,54.992,0.25,100,124.4
534,G#2,54.992,4.0,92,124.4
535,G#2,54.992,4.0,92,124.4
536,B-3,54.992,4.0,92,124.4
537,E-4,54.992,4.0,92,124.4
538,E-3,54.992,4.0,92,124.4
539,G#2,54.992,4.0,92,124.4
540,E-3,54.992,4.0,92,124.4
541,B-3,54.992,4.0,92,124.4
542,E-4,54.992,4.0,92,124.4
543,B-4,55.492,333/1000,65,124.4
544,C5,55.492,0.5,95,124.4
545,C5,55.992,1.0,95,124.4
546,B-4,55.992,333/1000,65,124.4
547,B-2,55.992,0.75,100,124.4
548,G#3,56.492,0.5,70,124.4
549,B-4,56.492,333/1000,65,124.4
550,C5,56.992,0.5,95,124.4
551,B-4,56.992,333/1000,65,124.4
552,B-4,57.492,333/1000,65,124.4
553,B-4,57.492,0.5,82,124.4
554,G#3,57.492,0.5,82,124.4
555,B-4,57.992,0.5,95,124.4
556,B-4,57.992,333/1000,65,124.4
557,B-2,57.992,0.75,100,124.4
558,B-4,58.492,333/1000,65,124.4
559,B-4,58.492,0.5,95,124.4
560,C2,58.992,0.75,100,124.4
561,B-4,58.992,333/1000,65,124.4
562,B-4,58.992,0.5,95,124.4
563,B-2,58.992,3.5,92,124.4
564,B-3,58.992,3.5,92,124.4
565,B-2,58.992,3.5,92,124.4
566,E-2,58.992,3.5,92,124.4
567,E-2,58.992,3.5,92,124.4
568,E-2,58.992,3.5,92,124.4
569,B-3,58.992,3.5,92,124.4
570,F3,58.992,3.5,92,124.4
571,F3,58.992,3.5,92,124.4
572,B-4,59.492,0.25,95,124.4
573,B-4,59.492,333/1000,65,124.4
574,G#4,59.742,0.25,95,124.4
575,B-2,59.992,0.75,100,124.4
576,F4,59.992,1.0,95,124.4
577,B-4,59.992,333/1000,65,124.4
578,B-4,60.492,333/1000,65,124.4
579,G#3,60.492,0.5,70,124.4
580,B-4,60.992,333/1000,65,124.4
581,G#3,61.492,0.5,70,124.4
582,B-4,61.492,333/1000,65,124.4
583,B-4,61.992,333/1000,65,124.4
584,B-2,61.992,0.75,100,124.4
585,B-4,62.492,333/1000,65,124.4
586,C2,62.492,0.5,100,124.4
587,C#2,62.492,0.5,92,124.4
588,E-3,62.492,0.5,92,124.4
589,G#3,62.492,0.5,92,124.4
590,C#2,62.492,0.5,92,124.4
591,G#2,62.492,0.5,92,124.4
592,E-3,62.492,0.5,92,124.4
593,G#2,62.492,0.5,92,124.4
594,C#2,62.492,0.5,92,124.4
595,G#3,62.492,0.5,92,124.4
596,B-4,64.492,333/1000,65,124.4
597,C#6,64.492,0.25,69,124.4
598,C2,64.492,0.25,100,124.4
599,C#2,64.492,1.5,92,124.4
600,E-3,64.492,1.5,92,124.4
601,G#3,64.492,1.5,92,124.4
602,C#2,64.492,1.5,92,124.4
603,G#2,64.492,1.5,92,124.4
604,E-3,64.492,1.5,92,124.4
605,G#2,64.492,1.5,92,124.4
606,C#2,64.492,1.5,92,124.4
607,G#3,64.492,1.5,92,124.4
608,G#5,64.742,0.25,69,124.4
609,E-5,64.992,0.25,69,124.4
610,B-4,64.992,333/1000,65,124.4
611,C#5,65.242,0.25,69,124.4
612,B-2,65.492,0.75,100,124.4
613,C#6,65.492,0.25,69,124.4
614,B-4,65.492,333/1000,65,124.4
615,G#5,65.742,0.25,69,124.4
616,F5,65.992,0.25,69,124.4
617,C2,65.992,0.75,100,124.4
618,B-4,65.992,333/1000,65,124.4
619,E-2,65.992,0.5,90,124.4
620,E-2,65.992,0.5,90,124.4
621,B-3,65.992,0.5,90,124.4
622,F3,65.992,0.5,90,124.4
623,E-2,65.992,0.5,90,124.4
624,B-2,65.992,0.5,90,124.4
625,G#3,65.992,0.5,90,124.4
626,B-2,65.992,0.5,90,124.4
627,F3,65.992,0.5,90,124.4
628,B-3,65.992,0.5,90,124.4
629,E-5,66.242,0.25,69,124.4
630,C2,66.492,0.75,100,124.4
631,B-4,66.492,333/1000,65,124.4
632,E-6,66.492,0.25,69,124.4
633,B-3,66.492,2.0,92,124.4
634,B-2,66.492,2.0,92,124.4
635,E-2,66.492,2.0,92,124.4
636,E-2,66.492,2.0,92,124.4
637,F3,66.492,2.0,92,124.4
638,E-2,66.492,2.0,92,124.4
639,B-2,66.492,2.0,92,124.4
640,B-3,66.492,2.0,92,124.4
641,F3,66.492,2.0,92,124.4
642,B-5,66.742,0.25,69,124.4
643,B-4,66.992,333/1000,65,124.4
644,G#3,66.992,0.5,70,124.4
645,F5,66.992,0.25,69,124.4
646,E-5,67.242,0.25,69,124.4
647,C5,67.492,0.5,95,124.4
648,E-6,67.492,0.25,69,124.4
649,B-4,67.492,333/1000,65,124.4
650,B-2,67.492,0.75,100,124.4
651,B-5,67.742,0.25,69,124.4
652,C5,67.992,0.5,95,124.4
653,F5,67.992,0.25,69,124.4
654,B-4,67.992,333/1000,65,124.4
655,E-5,68.242,0.25,69,124.4
656,C2,68.492,0.75,100,124.4
657,B-4,68.492,333/1000,65,124.4
658,E-5,68.492,0.5,95,124.4
659,C3,68.492,873/250,95,124.4
660,C3,68.492,873/250,95,124.4
661,E-4,68.492,873/250,95,124.4
662,G3,68.492,873/250,95,124.4
663,B-3,68.492,873/250,95,124.4
664,F2,68.492,873/250,95,124.4
665,E-4,68.492,873/250,95,124.4
666,F2,68.492,873/250,95,124.4
667,G#3,68.492,873/250,95,124.4
668,B-3,68.492,873/250,95,124.4
669,G#3,68.492,873/250,95,124.4
670,G3,68.492,873/250,95,124.4
671,F2,68.492,873/250,95,124.4
672,F5,68.992,0.5,95,124.4
673,B-4,68.992,333/1000,65,124.4
674,B-4,69.492,333/1000,65,124.4
675,F5,69.492,1.0,95,124.4
676,B-2,69.492,0.75,100,124.4
677,B-4,69.992,333/1000,65,124.4
678,G#3,69.992,0.5,70,124.4
679,B-4,70.492,333/1000,65,124.4
680,F5,70.492,0.5,95,124.4
681,B-4,70.992,333/1000,65,124.4
682,E-5,70.992,0.5,82,124.4
683,G#3,70.992,0.5,82,124.4
684,B-4,71.492,333/1000,65,124.4
685,E-5,71.492,1.0,95,124.4
686,B-2,71.492,0.75,100,124.4
687,B-4,71.992,333/1000,65,124.4
688,C2,71.992,0.5,100,124.4
689,E-4,71.992,0.5,92,124.4
690,E-3,71.992,0.5,92,124.4
691,E-4,71.992,0.5,92,124.4
692,B-3,71.992,0.5,92,124.4
693,B-3,71.992,0.5,92,124.4
694,G#2,71.992,0.5,92,124.4
695,G#2,71.992,0.5,92,124.4
696,E-3,71.992,0.5,92,124.4
697,G#2,71.992,0.5,92,124.4
698,B-4,72.492,333/1000,65,124.4
699,E-5,72.492,1.0,95,124.4
700,C2,72.492,0.25,100,124.4
701,E-4,72.492,4.0,92,124.4
702,E-3,72.492,4.0,92,124.4
703,E-4,72.492,4.0,92,124.4
704,B-3,72.492,4.0,92,124.4
705,B-3,72.492,4.0,92,124.4
706,G#2,72.492,4.0,92,124.4
707,G#2,72.492,4.0,92,124.4
708,E-3,72.492,4.0,92,124.4
709,G#2,72.492,4.0,92,124.4
710,B-4,72.992,333/1000,65,124.4
711,B-2,73.492,0.75,100,124.4
712,C5,73.492,0.5,95,124.4
713,B-4,73.492,333/1000,65,124.4
714,B-4,73.992,333/1000,65,124.4
715,G#3,73.992,0.5,82,124.4
716,B-4,73.992,0.5,82,124.4
717,B-4,74.492,333/1000,65,124.4
718,C5,74.492,0.5,95,124.4
719,B-4,74.992,1.0,95,124.4
720,G#3,74.992,0.5,70,124.4
721,B-4,74.992,333/1000,65,124.4
722,B-2,75.492,0.75,100,124.4
723,B-4,75.492,333/1000,65,124.4
724,B-4,75.992,0.5,95,124.4
725,B-4,75.992,333/1000,65,124.4
726,B-4,76.492,333/1000,65,124.4
727,C2,76.492,0.75,100,124.4
728,B-4,76.492,0.5,95,124.4
729,F3,76.492,3.5,92,124.4
730,B-3,76.492,3.5,92,124.4
731,B-2,76.492,3.5,92,124.4
732,B-3,76.492,3.5,92,124.4
733,F3,76.492,3.5,92,124.4
734,E-2,76.492,3.5,92,124.4
735,E-2,76.492,3.5,92,124.4
736,E-2,76.492,3.5,92,124.4
737,B-2,76.492,3.5,92,124.4
738,B-4,76.992,0.25,95,124.4
739,B-4,76.992,333/1000,65,124.4
740,G#4,77.242,0.25,95,124.4
741,B-2,77.492,0.75,100,124.4
742,F4,77.492,1.0,95,124.4
743,B-4,77.492,333/1000,65,124.4
744,B-4,77.992,333/1000,65,124.4
745,G#3,77.992,0.5,70,124.4
746,B-4,78.492,333/1000,65,124.4
747,G#3,78.992,0.5,70,124.4
748,B-4,78.992,333/1000,65,124.4
749,B-4,79.492,333/1000,65,124.4
750,B-2,79.492,0.75,100,124.4
751,C2,79.992,0.5,100,124.4
752,B-4,79.992,333/1000,65,124.4
753,G#2,79.992,0.5,92,124.4
754,C#2,79.992,0.5,92,124.4
755,E-3,79.992,0.5,92,124.4
756,C#2,79.992,0.5,92,124.4
757,G#3,79.992,0.5,92,124.4
758,C#2,79.992,0.5,92,124.4
759,G#2,79.992,0.5,92,124.4
760,G#3,79.992,0.5,92,124.4
761,E-3,79.992,0.5,92,124.4
762,B-4,80.492,333/1000,65,124.4
763,C#6,80.492,0.25,69,124.4
764,C2,80.492,0.25,100,124.4
765,G#2,80.492,1.5,92,124.4
766,C#2,80.492,1.5,92,124.4
767,E-3,80.492,1.5,92,124.4
768,C#2,80.492,1.5,92,124.4
769,G#3,80.492,1.5,92,124.4
770,C#2,80.492,1.5,92,124.4
771,G#2,80.492,1.5,92,124.4
772,G#3,80.492,1.5,92,124.4
773,E-3,80.492,1.5,92,124.4
774,G#5,80.742,0.25,69,124.4
775,B-4,80.992,333/1000,65,124.4
776,E-5,80.992,0.25,69,124.4
777,C#5,81.242,0.25,69,124.4
778,C#6,81.492,0.25,69,124.4
779,B-2,81.492,0.75,100,124.4
780,B-4,81.492,333/1000,65,124.4
781,G#5,81.742,0.25,69,124.4
782,B-4,81.992,333/1000,65,124.4
783,F5,81.992,0.25,69,124.4
784,C2,81.992,0.75,100,124.4
785,B-2,81.992,0.5,90,124.4
786,F3,81.992,0.5,90,124.4
787,E-2,81.992,0.5,90,124.4
788,B-3,81.992,0.5,90,124.4
789,E-2,81.992,0.5,90,124.4
790,G#3,81.992,0.5,90,124.4
791,B-2,81.992,0.5,90,124.4
792,E-2,81.992,0.5,90,124.4
793,B-3,81.992,0.5,90,124.4
794,F3,81.992,0.5,90,124.4
795,E-5,82.242,0.25,69,124.4
796,E-6,82.492,0.25,69,124.4
797,B-4,82.492,333/1000,65,124.4
798,C2,82.492,0.75,100,124.4
799,B-2,82.492,2.0,92,124.4
800,B-3,82.492,2.0,92,124.4
801,F3,82.492,2.0,92,124.4
802,F3,82.492,2.0,92,124.4
803,B-3,82.492,2.0,92,124.4
804,E-2,82.492,2.0,92,124.4
805,B-2,82.492,2.0,92,124.4
806,E-2,82.492,2.0,92,124.4
807,E-2,82.492,2.0,92,124.4
808,B-5,82.742,0.25,69,124.4
809,B-4,82.992,333/1000,65,124.4
810,G#3,82.992,0.5,70,124.4
811,F5,82.992,0.25,69,124.4
812,E-5,83.242,0.25,69,124.4
813,B-2,83.492,0.75,100,124.4
814,B-4,83.492,333/1000,65,124.4
815,E-6,83.492,0.25,69,124.4
816,B-5,83.742,0.25,69,124.4
817,B-4,83.992,333/1000,65,124.4
818,F5,83.992,0.25,69,124.4
819,C5,83.992,0.5,95,124.4
820,E-5,84.242,0.25,69,124.4
821,C2,84.492,0.75,100,124.4
822,E-5,84.492,0.5,95,124.4
823,B-4,84.492,333/1000,65,124.4
824,G#3,84.492,3.5,95,124.4
825,F2,84.492,3.5,95,124.4
826,G3,84.492,3.5,95,124.4
827,B-3,84.492,3.5,95,124.4
828,E-4,84.492,3.5,95,124.4
829,E-4,84.492,3.5,95,124.4
830,F2,84.492,3.5,95,124.4
831,F2,84.492,3.5,95,124.4
832,G#3,84.492,3.5,95,124.4
833,C3,84.492,3.5,95,124.4
834,G3,84.492,3.5,95,124.4
835,B-3,84.492,3.5,95,124.4
836,C3,84.492,3.5,95,124.4
837,B-4,84.992,333/1000,65,124.4
838,F5,84.992,0.5,95,124.4
839,F5,85.492,1.0,95,124.4
840,B-4,85.492,333/1000,65,124.4
841,B-2,85.492,0.75,100,124.4
842,G#3,85.992,0.5,70,124.4
843,B-4,85.992,333/1000,65,124.4
844,B-4,86.492,333/1000,65,124.4
845,F5,86.492,0.5,95,124.4
846,B-4,86.992,333/1000,65,124.4
847,G#3,86.992,0.5,82,124.4
848,E-5,86.992,0.5,82,124.4
849,B-2,87.492,0.75,100,124.4
850,B-4,87.492,333/1000,65,124.4
851,E-5,87.492,0.5,95,124.4
852,B-4,87.992,333/1000,65,124.4
853,E-5,87.992,0.5,95,124.4
854,C2,87.992,0.5,100,124.4
855,G#2,87.992,0.5,92,124.4
856,E-4,87.992,0.5,92,124.4
857,G#2,87.992,0.5,92,124.4
858,B-3,87.992,0.5,92,124.4
859,E-4,87.992,0.5,92,124.4
860,B-3,87.992,0.5,92,124.4
861,E-3,87.992,0.5,92,124.4
862,G#2,87.992,0.5,92,124.4
863,E-3,87.992,0.5,92,124.4
864,B-4,92.492,333/1000,65,124.4
865,E-5,92.492,1.0,95,124.4
866,C2,92.492,0.25,100,124.4
867,G#2,92.492,4.0,92,124.4
868,E-4,92.492,4.0,92,124.4
869,G#2,92.492,4.0,92,124.4
870,B-3,92.492,4.0,92,124.4
871,E-4,92.492,4.0,92,124.4
872,B-3,92.492,4.0,92,124.4
873,E-3,92.492,4.0,92,124.4
874,G#2,92.492,4.0,92,124.4
875,E-3,92.492,4.0,92,124.4
876,B-4,92.992,333/1000,65,124.4
877,C5,93.492,0.5,95,124.4
878,B-2,93.492,0.75,100,124.4
879,B-4,93.492,333/1000,65,124.4
880,C5,93.992,1.0,95,124.4
881,G#3,93.992,0.5,70,124.4
882,B-4,93.992,333/1000,65,124.4
883,B-4,94.492,333/1000,65,124.4
884,B-4,94.992,333/1000,65,124.4
885,B-4,94.992,0.5,82,124.4
886,G#3,94.992,0.5,82,124.4
887,G#4,95.492,0.5,95,124.4
888,B-4,95.492,333/1000,65,124.4
889,B-2,95.492,0.75,100,124.4
890,B-4,95.992,0.5,95,124.4
891,B-4,95.992,333/1000,65,124.4
892,B-4,96.492,333/1000,65,124.4
893,C2,96.492,0.75,100,124.4
894,B-4,96.492,0.5,95,124.4
895,B-3,96.492,3.5,92,124.4
896,F3,96.492,3.5,92,124.4
897,E-2,96.492,3.5,92,124.4
898,E-2,96.492,3.5,92,124.4
899,B-2,96.492,3.5,92,124.4
900,B-3,96.492,3.5,92,124.4
901,E-2,96.492,3.5,92,124.4
902,F3,96.492,3.5,92,124.4
903,B-2,96.492,3.5,92,124.4
904,B-4,96.992,333/1000,65,124.4
905,B-4,96.992,0.25,95,124.4
906,G#4,97.242,0.25,95,124.4
907,B-2,97.492,0.75,100,124.4
908,F4,97.492,1.0,95,124.4
909,B-4,97.492,333/1000,65,124.4
910,G#3,97.992,0.5,70,124.4
911,B-4,97.992,333/1000,65,124.4
912,B-4,98.492,333/1000,65,124.4
913,G#3,98.992,0.5,70,124.4
914,B-4,98.992,333/1000,65,124.4
915,B-4,99.492,333/1000,65,124.4
916,B-2,99.492,0.75,100,124.4
917,C2,99.992,0.5,100,124.4
918,B-4,99.992,333/1000,65,124.4
919,G#3,99.992,0.5,92,124.4
920,G#3,99.992,0.5,92,124.4
921,G#2,99.992,0.5,92,124.4
922,C#2,99.992,0.5,92,124.4
923,G#2,99.992,0.5,92,124.4
924,E-3,99.992,0.5,92,124.4
925,C#2,99.992,0.5,92,124.4
926,E-3,99.992,0.5,92,124.4
927,C#2,99.992,0.5,92,124.4
928,C#6,101.983,0.25,69,124.4
929,B-4,101.983,333/1000,65,124.4
930,C2,101.983,0.25,100,124.4
931,G#3,101.983,373/250,92,124.4
932,G#3,101.983,373/250,92,124.4
933,G#2,101.983,373/250,92,124.4
934,C#2,101.983,373/250,92,124.4
935,G#2,101.983,373/250,92,124.4
936,E-3,101.983,373/250,92,124.4
937,C#2,101.983,373/250,92,124.4
938,E-3,101.983,373/250,92,124.4
939,C#2,101.983,373/250,92,124.4
940,G#5,102.233,0.25,69,124.4
941,B-4,102.483,333/1000,65,124.4
942,E-5,102.483,0.25,69,124.4
943,C#5,102.733,0.25,69,124.4
944,B-2,102.983,0.75,100,124.4
945,B-4,102.983,333/1000,65,124.4
946,C#6,102.983,0.25,69,124.4
947,G#5,103.233,0.25,69,124.4
948,B-4,103.483,333/1000,65,124.4
949,F5,103.483,0.25,69,124.4
950,C2,103.483,0.75,100,124.4
951,B-2,103.483,123/250,90,124.4
952,E-2,103.483,123/250,90,124.4
953,F3,103.483,123/250,90,124.4
954,B-2,103.483,123/250,90,124.4
955,G#3,103.483,123/250,90,124.4
956,B-3,103.483,123/250,90,124.4
957,E-2,103.483,123/250,90,124.4
958,B-3,103.483,123/250,90,124.4
959,F3,103.483,123/250,90,124.4
960,E-2,103.483,123/250,90,124.4
961,E-5,103.733,0.25,69,124.4
962,B-4,103.983,333/1000,65,124.4
963,E-6,103.983,0.25,69,124.4
964,C2,103.983,0.75,100,124.4
965,E-2,103.983,2.0,92,124.4
966,E-2,103.983,2.0,92,124.4
967,B-3,103.983,2.0,92,124.4
968,B-2,103.983,2.0,92,124.4
969,F3,103.983,2.0,92,124.4
970,F3,103.983,2.0,92,124.4
971,B-2,103.983,2.0,92,124.4
972,E-2,103.983,2.0,92,124.4
973,B-3,103.983,2.0,92,124.4
974,B-5,104.233,0.25,69,124.4
975,F5,104.483,0.25,69,124.4
976,G#3,104.483,0.5,70,124.4
977,B-4,104.483,333/1000,65,124.4
978,E-5,104.733,0.25,69,124.4
979,B-4,104.983,333/1000,65,124.4
980,E-6,104.983,0.25,69,124.4
981,B-2,104.983,0.75,100,124.4
982,B-5,105.233,0.25,69,124.4
983,B-4,105.483,333/1000,65,124.4
984,C5,105.483,0.5,95,124.4
985,F5,105.483,0.25,69,124.4
986,E-5,105.733,0.25,69,124.4
987,C5,105.983,1.0,95,124.4
988,C3,105.983,4.0,88,124.4
989,E-3,105.983,4.0,88,124.4
990,E-3,105.983,4.0,88,124.4
991,C3,105.983,1.5,94,124.4
992,G3,105.983,1.5,94,124.4
993,C3,105.983,1.5,94,124.4
994,G3,105.983,1.5,94,124.4
995,B-2,105.983,0.5,88,124.4
996,C2,105.983,0.5,88,124.4
997,F#2,106.483,0.25,50,124.4
998,F#2,106.733,0.25,50,124.4
999,C5,106.983,0.5,88,124.4
1000,B-2,106.983,0.5,88,124.4
1001,E-5,107.483,1.0,95,124.4
1002,F#2,107.483,0.25,50,124.4
1003,G#3,107.483,2.5,94,124.4
1004,C3,107.483,2.5,94,124.4
1005,C3,107.483,2.5,94,124.4
1006,G#3,107.483,2.5,94,124.4
1007,F#2,107.733,0.25,50,124.4
1008,B-2,107.983,0.5,82,124.4
1009,F#2,108.483,0.25,50,124.4
1010,E-5,108.483,1.0,95,124.4
1011,F#2,108.733,0.25,50,124.4
1012,B-2,108.983,0.5,82,124.4
1013,F#2,109.483,0.25,50,124.4
1014,C2,109.483,0.5,95,124.4
1015,F5,109.483,0.5,95,124.4
1016,F#2,109.733,0.25,50,124.4
1017,B-2,109.983,0.5,82,124.4
1018,F5,109.983,0.5,95,124.4
1019,E-3,109.983,4.0,88,124.4
1020,E-3,109.983,4.0,88,124.4
1021,C3,109.983,4.0,88,124.4
1022,B-3,109.983,373/250,94,124.4
1023,C3,109.983,373/250,94,124.4
1024,B-3,109.983,373/250,94,124.4
1025,C3,109.983,373/250,94,124.4
1026,F5,110.483,1.5,95,124.4
1027,F#2,110.483,0.25,50,124.4
1028,F#2,110.733,0.25,50,124.4
1029,B-2,110.983,0.5,82,124.4
1030,F#2,111.483,0.25,50,124.4
1031,C3,111.483,2.5,94,124.4
1032,C3,111.483,2.5,94,124.4
1033,G#3,111.483,2.5,94,124.4
1034,G#3,111.483,2.5,94,124.4
1035,F#2,111.733,0.25,50,124.4
1036,B-2,111.983,0.5,82,124.4
1037,F#2,112.483,0.25,50,124.4
1038,F#2,112.733,0.25,50,124.4
1039,B-2,112.983,0.5,82,124.4
1040,F#2,113.483,0.25,50,124.4
1041,E-5,113.483,0.5,95,124.4
1042,C2,113.483,0.5,95,124.4
1043,F#2,113.733,0.25,50,124.4
1044,B-3,113.983,373/250,94,124.4
1045,G5,113.983,373/250,94,124.4
1046,C3,113.983,373/250,94,124.4
1047,B-3,113.983,373/250,94,124.4
1048,C3,113.983,373/250,94,124.4
1049,E-3,113.983,4.0,88,124.4
1050,E-3,113.983,4.0,88,124.4
1051,C3,113.983,4.0,88,124.4
1052,B-2,113.983,0.5,88,124.4
1053,C2,113.983,0.5,88,124.4
1054,F#2,114.483,0.25,50,124.4
1055,F#2,114.733,0.25,50,124.4
1056,B-2,114.983,0.5,82,124.4
1057,F5,115.483,0.5,95,124.4
1058,F#2,115.483,0.25,50,124.4
1059,C3,115.483,623/250,94,124.4
1060,G#3,115.483,623/250,94,124.4
1061,G#3,115.483,623/250,94,124.4
1062,C3,115.483,623/250,94,124.4
1063,F#2,115.733,0.25,50,124.4
1064,B-2,115.983,0.5,82,124.4
1065,E-5,115.983,1.0,95,124.4
1066,F#2,116.483,0.25,50,124.4
1067,F#2,116.733,0.25,50,124.4
1068,B-2,116.983,0.5,82,124.4
1069,C5,116.983,0.25,95,124.4
1070,C5,117.233,0.25,95,124.4
1071,C2,117.483,0.5,95,124.4
1072,C5,117.483,0.5,95,124.4
1073,F#2,117.483,0.25,50,124.4
1074,F#2,117.733,0.25,50,124.4
1075,B-2,117.983,0.5,82,124.4
1076,C5,117.983,2.0,95,124.4
1077,G3,117.983,4.0,88,124.4
1078,B-2,117.983,4.0,88,124.4
1079,B-2,117.983,4.0,88,124.4
1080,E-3,117.983,4.0,88,124.4
1081,C4,117.983,4.0,88,124.4
1082,G#2,117.983,4.0,88,124.4
1083,E-3,117.983,4.0,88,124.4
1084,G3,117.983,4.0,88,124.4
1085,C4,117.983,4.0,88,124.4
1086,F#2,118.483,0.25,50,124.4
1087,F#2,118.733,0.25,50,124.4
1088,B-2,118.983,0.5,82,124.4
1089,F#2,119.483,0.25,50,124.4
1090,F#2,119.733,0.25,50,124.4
1091,B-2,119.983,0.5,82,124.4
1092,F#2,120.483,0.25,50,124.4
1093,F#2,120.733,0.25,50,124.4
1094,B-2,120.983,0.5,82,124.4
1095,C5,121.233,0.25,95,124.4
1096,F#2,121.483,0.25,50,124.4
1097,C2,121.483,0.5,95,124.4
1098,C5,121.483,0.5,95,124.4
1099,F#2,121.733,0.25,50,124.4
1100,C5,121.983,1.0,95,124.4
1101,C2,121.983,0.5,88,124.4
1102,B-2,121.983,0.5,88,124.4
1103,G3,121.983,1.5,94,124.4
1104,C3,121.983,1.5,94,124.4
1105,C3,121.983,1.5,94,124.4
1106,G3,121.983,1.5,94,124.4
1107,C3,121.983,4.0,88,124.4
1108,E-3,121.983,4.0,88,124.4
1109,E-3,121.983,4.0,88,124.4
1110,F#2,122.483,0.25,50,124.4
1111,F#2,122.733,0.25,50,124.4
1112,C5,122.983,0.5,88,124.4
1113,B-2,122.983,0.5,88,124.4
1114,F#2,123.483,0.25,50,124.4
1115,E-5,123.483,1.0,95,124.4
1116,C3,123.483,2.5,94,124.4
1117,C3,123.483,2.5,94,124.4
1118,G#3,123.483,2.5,94,124.4
1119,G#3,123.483,2.5,94,124.4
1120,F#2,123.733,0.25,50,124.4
1121,B-2,123.983,0.5,82,124.4
1122,E-5,124.483,1.0,95,124.4
1123,F#2,124.483,0.25,50,124.4
1124,F#2,124.733,0.25,50,124.4
1125,B-2,124.983,0.5,82,124.4
1126,F#2,125.483,0.25,50,124.4
1127,F5,125.483,0.5,95,124.4
1128,C2,125.483,0.5,95,124.4
1129,F#2,125.733,0.25,50,124.4
1130,B-2,125.983,0.5,82,124.4
1131,F5,125.983,0.5,95,124.4
1132,E-3,125.983,4.0,88,124.4
1133,C3,125.983,4.0,88,124.4
1134,E-3,125.983,4.0,88,124.4
1135,C3,125.983,1.5,94,124.4
1136,C3,125.983,1.5,94,124.4
1137,B-3,125.983,1.5,94,124.4
1138,B-3,125.983,1.5,94,124.4
1139,F5,126.483,1.5,95,124.4
1140,F#2,126.483,0.25,50,124.4
1141,F#2,126.733,0.25,50,124.4
1142,B-2,126.983,0.5,82,124.4
1143,F#2,127.483,0.25,50,124.4
1144,G#3,127.483,2.5,94,124.4
1145,C3,127.483,2.5,94,124.4
1146,C3,127.483,2.5,94,124.4
1147,G#3,127.483,2.5,94,124.4
1148,F#2,127.733,0.25,50,124.4
1149,B-2,127.983,0.5,82,124.4
1150,F#2,128.483,0.25,50,124.4
1151,F#2,128.733,0.25,50,124.4
1152,B-2,128.983,0.5,88,124.4
1153,E-5,128.983,0.5,88,124.4
1154,F#2,129.483,0.25,50,124.4
1155,C2,129.483,0.5,95,124.4
1156,E-5,129.483,0.5,95,124.4
1157,F#2,129.733,0.25,50,124.4
1158,C#3,129.983,0.25,80,124.4
1159,C2,129.983,0.5,100,124.4
1160,B-2,129.983,1.5,89,124.4
1161,C3,129.983,1.5,89,124.4
1162,C3,129.983,1.5,89,124.4
1163,G5,129.983,1.5,89,124.4
1164,F3,129.983,1.5,89,124.4
1165,F3,129.983,1.5,89,124.4
1166,B-2,129.983,1.5,89,124.4
1167,B-2,129.983,1.5,89,124.4
1168,D2,130.483,0.25,103,124.4
1169,C3,130.483,0.25,103,124.4
1170,C2,130.483,0.25,103,124.4
1171,D2,130.983,0.25,103,124.4
1172,C2,130.983,0.25,103,124.4
1173,B2,130.983,0.25,103,124.4
1174,F5,131.483,1.0,95,124.4
1175,G#2,131.483,249/125,88,124.4
1176,G#2,131.483,249/125,88,124.4
1177,E-3,131.483,249/125,88,124.4
1178,B-2,131.483,249/125,88,124.4
1179,G#2,131.483,249/125,88,124.4
1180,E-3,131.483,249/125,88,124.4
1181,B-2,131.483,249/125,88,124.4
1182,C#3,131.483,0.25,90,124.4
1183,C2,131.483,0.25,90,124.4
1184,B2,131.733,0.25,50,124.4
1185,B2,131.983,0.25,105,124.4
1186,D2,131.983,0.25,105,124.4
1187,E-5,132.483,0.5,95,124.4
1188,D2,132.483,0.25,103,124.4
1189,C2,132.483,0.25,103,124.4
1190,C3,132.483,0.25,103,124.4
1191,B2,132.733,0.25,50,124.4
1192,G5,132.983,1.0,95,124.4
1193,B2,132.983,0.25,100,124.4
1194,C2,132.983,0.25,100,124.4
1195,E-2,133.483,0.5,88,124.4
1196,E-2,133.483,0.5,88,124.4
1197,F2,133.483,0.5,88,124.4
1198,E-2,133.483,0.5,88,124.4
1199,B-2,133.483,0.5,88,124.4
1200,B-2,133.483,0.5,88,124.4
1201,F2,133.483,0.5,88,124.4
1202,C2,133.483,0.25,90,124.4
1203,C#3,133.483,0.25,90,124.4
1204,G5,133.983,2.0,95,124.4
1205,E-2,133.983,373/250,88,124.4
1206,E-2,133.983,373/250,88,124.4
1207,F2,133.983,373/250,88,124.4
1208,E-2,133.983,373/250,88,124.4
1209,B-2,133.983,373/250,88,124.4
1210,B-2,133.983,373/250,88,124.4
1211,F2,133.983,373/250,88,124.4
1212,C3,134.483,0.25,100,124.4
1213,C2,134.483,0.25,100,124.4
1214,B2,134.983,0.25,100,124.4
1215,B2,135.233,0.25,100,124.4
1216,E-2,135.483,623/250,88,124.4
1217,C#2,135.483,623/250,88,124.4
1218,G#2,135.483,623/250,88,124.4
1219,E-2,135.483,623/250,88,124.4
1220,C#2,135.483,623/250,88,124.4
1221,C#2,135.483,623/250,88,124.4
1222,G#2,135.483,623/250,88,124.4
1223,C2,135.483,0.25,100,124.4
1224,C3,135.483,0.25,100,124.4
1225,C3,135.733,0.25,100,124.4
1226,C2,135.983,0.25,100,124.4
1227,D3,135.983,0.25,100,124.4
1228,D2,136.233,0.25,110,124.4
1229,D2,136.483,0.25,110,124.4
1230,D3,136.733,0.25,100,124.4
1231,F5,136.983,0.5,95,124.4
1232,C2,136.983,0.25,100,124.4
1233,C3,136.983,0.25,100,124.4
1234,E-5,137.483,0.5,95,124.4
1235,B2,137.483,0.25,100,124.4
1236,C2,137.483,0.25,100,124.4
1237,F4,137.983,0.25,69,124.4
1238,E-3,137.983,4.0,94,124.4
1239,G#1,137.983,4.0,94,124.4
1240,B-3,137.983,4.0,94,124.4
1241,G#2,137.983,4.0,94,124.4
1242,F2,137.983,4.0,94,124.4
1243,G3,137.983,4.0,94,124.4
1244,F2,137.983,1.0,94,124.4
1245,C#3,137.983,1.0,94,124.4
1246,F5,137.983,1.0,94,124.4
1247,E-3,137.983,0.5,90,124.4
1248,C2,137.983,0.5,90,124.4
1249,C5,138.233,0.25,69,124.4
1250,G5,138.483,0.25,69,124.4
1251,C5,138.733,0.25,69,124.4
1252,F4,138.983,0.25,69,124.4
1253,F2,138.983,1.0,92,124.4
1254,F5,138.983,1.0,92,124.4
1255,E-3,138.983,0.5,95,124.4
1256,D2,138.983,0.5,95,124.4
1257,C5,139.233,0.25,69,124.4
1258,G5,139.483,0.5,84,124.4
1259,C2,139.483,0.5,84,124.4
1260,F4,139.983,0.25,69,124.4
1261,C2,139.983,0.5,90,124.4
1262,E-3,139.983,0.5,90,124.4
1263,F2,139.983,1.0,92,124.4
1264,F5,139.983,1.0,92,124.4
1265,C5,140.233,0.25,69,124.4
1266,G5,140.483,0.25,69,124.4
1267,C5,140.733,0.25,69,124.4
1268,F4,140.983,0.25,69,124.4
1269,F2,140.983,1.0,88,124.4
1270,E-3,140.983,0.5,95,124.4
1271,D2,140.983,0.5,95,124.4
1272,C5,141.233,0.25,69,124.4
1273,G5,141.483,0.5,69,124.4
1274,G#4,141.983,0.25,69,124.4
1275,G#2,141.983,1.0,88,124.4
1276,B-3,141.983,4.0,93,124.4
1277,E-4,141.983,4.0,93,124.4
1278,E-2,141.983,4.0,93,124.4
1279,E-3,141.983,4.0,93,124.4
1280,G#2,141.983,4.0,93,124.4
1281,E-3,141.983,0.5,90,124.4
1282,C2,141.983,0.5,90,124.4
1283,E-5,142.233,0.25,69,124.4
1284,B-5,142.483,0.25,69,124.4
1285,E-5,142.733,0.25,69,124.4
1286,G#2,142.983,1.0,88,124.4
1287,G#4,142.983,0.25,69,124.4
1288,E-3,142.983,0.5,95,124.4
1289,D2,142.983,0.5,95,124.4
1290,E-5,143.233,0.25,69,124.4
1291,B-5,143.483,0.5,84,124.4
1292,C2,143.483,0.5,84,124.4
1293,G#4,143.983,0.25,69,124.4
1294,G#2,143.983,1.0,88,124.4
1295,C2,143.983,0.5,90,124.4
1296,E-3,143.983,0.5,90,124.4
1297,E-5,144.233,0.25,69,124.4
1298,B-5,144.483,0.25,69,124.4
1299,E-5,144.733,0.25,69,124.4
1300,G#4,144.983,0.25,69,124.4
1301,G#2,144.983,1.0,88,124.4
1302,E-3,144.983,0.5,95,124.4
1303,D2,144.983,0.5,95,124.4
1304,C5,144.983,0.5,95,124.4
1305,E-5,145.233,0.25,69,124.4
1306,B-4,145.483,0.5,82,124.4
1307,B-5,145.483,0.5,82,124.4
1308,E-5,145.983,0.25,69,124.4
1309,E-2,145.983,3.5,94,124.4
1310,B-1,145.983,3.5,94,124.4
1311,B-2,145.983,3.5,94,124.4
1312,F3,145.983,3.5,94,124.4
1313,F5,145.983,1.0,92,124.4
1314,B-2,145.983,1.0,92,124.4
1315,C2,145.983,0.5,90,124.4
1316,E-3,145.983,0.5,90,124.4
1317,B-5,146.233,0.25,69,124.4
1318,F6,146.483,0.25,69,124.4
1319,B-5,146.733,0.25,69,124.4
1320,E-5,146.983,0.25,69,124.4
1321,D2,146.983,0.5,95,124.4
1322,E-3,146.983,0.5,95,124.4
1323,B-2,146.983,1.0,92,124.4
1324,F5,146.983,1.0,92,124.4
1325,B-5,147.233,0.25,69,124.4
1326,F6,147.483,0.5,84,124.4
1327,C2,147.483,0.5,84,124.4
1328,B-2,147.983,1.5,88,124.4
1329,F5,147.983,1.0,95,124.4
1330,E-5,147.983,0.25,69,124.4
1331,C2,147.983,0.5,90,124.4
1332,E-3,147.983,0.5,90,124.4
1333,B-5,148.233,0.25,69,124.4
1334,F6,148.483,0.25,69,124.4
1335,B-5,148.733,0.25,69,124.4
1336,E-5,148.983,0.25,69,124.4
1337,D2,148.983,0.5,95,124.4
1338,E-3,148.983,0.5,95,124.4
1339,B-5,149.233,0.25,69,124.4
1340,F6,149.483,0.5,69,124.4
1341,C#2,149.483,0.5,93,124.4
1342,G#2,149.483,0.5,93,124.4
1343,E-3,149.483,0.5,93,124.4
1344,G#1,149.483,0.5,93,124.4
1345,C#2,149.483,0.5,93,124.4
1346,C#5,151.483,0.25,69,124.4
1347,C2,151.483,0.5,90,124.4
1348,E-3,151.483,0.5,90,124.4
1349,C#2,151.483,1.5,93,124.4
1350,G#2,151.483,1.5,93,124.4
1351,E-3,151.483,1.5,93,124.4
1352,G#1,151.483,1.5,93,124.4
1353,C#2,151.483,1.5,93,124.4
1354,G#5,151.733,0.25,69,124.4
1355,E-6,151.983,0.25,69,124.4
1356,G#5,152.233,0.25,69,124.4
1357,C#5,152.483,0.25,69,124.4
1358,E-3,152.483,0.5,95,124.4
1359,D2,152.483,0.5,95,124.4
1360,G#5,152.733,0.25,69,124.4
1361,B-2,152.983,0.5,92,124.4
1362,B-1,152.983,0.5,92,124.4
1363,E-6,152.983,0.5,92,124.4
1364,C2,152.983,0.5,92,124.4
1365,E-2,152.983,2.5,88,124.4
1366,F3,152.983,2.5,88,124.4
1367,E-2,152.983,2.5,88,124.4
1368,E-5,153.483,0.25,69,124.4
1369,B-1,153.483,249/125,100,124.4
1370,B-2,153.483,249/125,100,124.4
1371,E-3,153.483,0.5,90,124.4
1372,C2,153.483,0.5,90,124.4
1373,B-5,153.733,0.25,69,124.4
1374,F6,153.983,0.25,69,124.4
1375,D2,154.233,0.5,110,124.4
1376,B-5,154.233,0.25,69,124.4
1377,E-5,154.483,0.25,69,124.4
1378,E-3,154.483,0.5,95,124.4
1379,D2,154.483,0.5,95,124.4
1380,B-5,154.733,0.25,69,124.4
1381,F6,154.983,0.5,82,124.4
1382,C5,154.983,0.5,82,124.4
1383,F4,155.483,0.25,69,124.4
1384,E-3,155.483,0.5,90,124.4
1385,C2,155.483,0.5,90,124.4
1386,E-3,155.483,4.0,94,124.4
1387,G3,155.483,4.0,94,124.4
1388,G#1,155.483,4.0,94,124.4
1389,F2,155.483,4.0,94,124.4
1390,G#2,155.483,4.0,94,124.4
1391,B-3,155.483,4.0,94,124.4
1392,G#5,155.483,1.0,92,124.4
1393,F2,155.483,1.0,92,124.4
1394,C5,155.733,0.25,69,124.4
1395,G5,155.983,0.25,69,124.4
1396,C5,156.233,0.25,69,124.4
1397,F2,156.483,1.0,88,124.4
1398,F4,156.483,0.25,69,124.4
1399,E-3,156.483,0.5,95,124.4
1400,D2,156.483,0.5,95,124.4
1401,G#5,156.483,0.5,95,124.4
1402,C5,156.733,0.25,69,124.4
1403,F5,156.983,1.5,95,124.4
1404,G5,156.983,0.5,84,124.4
1405,C2,156.983,0.5,84,124.4
1406,F4,157.483,0.25,69,124.4
1407,F2,157.483,1.0,88,124.4
1408,E-3,157.483,0.5,90,124.4
1409,C2,157.483,0.5,90,124.4
1410,C5,157.733,0.25,69,124.4
1411,G5,157.983,0.25,69,124.4
1412,C5,158.233,0.25,69,124.4
1413,F2,158.483,1.0,88,124.4
1414,F4,158.483,0.25,69,124.4
1415,E-3,158.483,0.5,95,124.4
1416,D2,158.483,0.5,95,124.4
1417,F5,158.483,0.5,95,124.4
1418,C5,158.733,0.25,69,124.4
1419,G5,158.983,0.5,69,124.4
1420,E-5,158.983,0.5,95,124.4
1421,G#4,159.483,0.25,69,124.4
1422,G#2,159.483,1.0,88,124.4
1423,E-5,159.483,0.5,95,124.4
1424,E-2,159.483,4.0,93,124.4
1425,E-3,159.483,4.0,93,124.4
1426,B-3,159.483,4.0,93,124.4
1427,G#2,159.483,4.0,93,124.4
1428,E-4,159.483,4.0,93,124.4
1429,C2,159.483,0.5,90,124.4
1430,E-3,159.483,0.5,90,124.4
1431,E-5,159.733,0.25,69,124.4
1432,E-5,159.983,0.5,95,124.4
1433,B-5,159.983,0.25,69,124.4
1434,E-5,160.233,0.25,69,124.4
1435,G#2,160.483,1.0,88,124.4
1436,G#4,160.483,0.25,69,124.4
1437,E-3,160.483,0.5,95,124.4
1438,C5,160.483,0.5,95,124.4
1439,D2,160.483,0.5,95,124.4
1440,E-5,160.733,0.25,69,124.4
1441,C5,160.983,0.5,88,124.4
1442,B-5,160.983,0.5,88,124.4
1443,C2,160.983,0.5,88,124.4
1444,G#4,161.483,0.25,69,124.4
1445,G#2,161.483,1.0,92,124.4
1446,E-5,161.483,1.0,92,124.4
1447,E-3,161.483,0.5,90,124.4
1448,C2,161.483,0.5,90,124.4
1449,E-5,161.733,0.25,69,124.4
1450,B-5,161.983,0.25,69,124.4
1451,E-5,162.233,0.25,69,124.4
1452,G#4,162.483,0.25,69,124.4
1453,G#2,162.483,1.0,88,124.4
1454,C5,162.483,0.5,95,124.4
1455,E-3,162.483,0.5,95,124.4
1456,D2,162.483,0.5,95,124.4
1457,E-5,162.733,0.25,69,124.4
1458,E-5,162.983,0.5,95,124.4
1459,B-5,162.983,0.5,69,124.4
1460,B-2,163.483,1.0,88,124.4
1461,E-5,163.483,0.25,69,124.4
1462,E-5,163.483,0.5,95,124.4
1463,F3,163.483,873/250,94,124.4
1464,E-2,163.483,873/250,94,124.4
1465,B-1,163.483,873/250,94,124.4
1466,B-2,163.483,873/250,94,124.4
1467,E-3,163.483,0.5,90,124.4
1468,C2,163.483,0.5,90,124.4
1469,B-5,163.733,0.25,69,124.4
1470,C5,163.983,1.0,95,124.4
1471,F6,163.983,0.25,69,124.4
1472,B-5,164.233,0.25,69,124.4
1473,E-5,164.483,0.25,69,124.4
1474,B-2,164.483,1.0,88,124.4
1475,D2,164.483,0.5,95,124.4
1476,E-3,164.483,0.5,95,124.4
1477,B-5,164.733,0.25,69,124.4
1478,B-4,164.983,1.0,95,124.4
1479,C2,164.983,0.5,84,124.4
1480,F6,164.983,0.5,84,124.4
1481,B-2,165.483,1.5,88,124.4
1482,E-5,165.483,0.25,69,124.4
1483,C2,165.483,0.5,90,124.4
1484,E-3,165.483,0.5,90,124.4
1485,B-5,165.733,0.25,69,124.4
1486,F6,165.983,0.25,69,124.4
1487,F4,165.983,1.5,95,124.4
1488,B-5,166.233,0.25,69,124.4
1489,E-5,166.483,0.25,69,124.4
1490,E-3,166.483,0.5,95,124.4
1491,D2,166.483,0.5,95,124.4
1492,B-5,166.733,0.25,69,124.4
1493,F6,166.983,0.5,69,124.4
1494,E-3,166.983,0.5,93,124.4
1495,C#2,166.983,0.5,93,124.4
1496,G#2,166.983,0.5,93,124.4
1497,G#1,166.983,0.5,93,124.4
1498,C#2,166.983,0.5,93,124.4
1499,C#5,167.483,0.25,69,124.4
1500,C2,167.483,0.5,90,124.4
1501,E-3,167.483,0.5,90,124.4
1502,E-3,167.483,1.5,93,124.4
1503,C#2,167.483,1.5,93,124.4
1504,G#2,167.483,1.5,93,124.4
1505,G#1,167.483,1.5,93,124.4
1506,C#2,167.483,1.5,93,124.4
1507,G#5,167.733,0.25,69,124.4
1508,E-6,167.983,0.25,69,124.4
1509,G#5,168.233,0.25,69,124.4
1510,C#5,168.483,0.25,69,124.4
1511,D2,168.483,0.5,95,124.4
1512,E-3,168.483,0.5,95,124.4
1513,G#5,168.733,0.25,69,124.4
1514,E-2,168.983,2.5,88,124.4
1515,E-2,168.983,2.5,88,124.4
1516,F3,168.983,2.5,88,124.4
1517,E-6,168.983,123/250,92,124.4
1518,C2,168.983,123/250,92,124.4
1519,B-2,168.983,123/250,92,124.4
1520,B-1,168.983,123/250,92,124.4
1521,E-5,169.483,0.25,69,124.4
1522,B-2,169.483,249/125,100,124.4
1523,B-1,169.483,249/125,100,124.4
1524,E-3,169.483,0.5,90,124.4
1525,C2,169.483,0.5,90,124.4
1526,B-5,169.733,0.25,69,124.4
1527,F6,169.983,0.25,69,124.4
1528,B-5,170.233,0.25,69,124.4
1529,B2,170.233,0.5,100,124.4
1530,E-5,170.483,0.25,69,124.4
1531,D2,170.483,0.5,96,124.4
1532,C5,170.483,0.5,96,124.4
1533,E-3,170.483,0.5,96,124.4
1534,C3,170.483,0.5,96,124.4
1535,B-5,170.733,0.25,69,124.4
1536,D3,170.983,0.5,88,124.4
1537,F6,170.983,0.5,88,124.4
1538,E-5,170.983,0.5,88,124.4
1539,F4,171.483,0.25,69,124.4
1540,F2,171.483,1.0,88,124.4
1541,G#1,171.483,499/125,94,124.4
1542,E-3,171.483,499/125,94,124.4
1543,F2,171.483,499/125,94,124.4
1544,B-3,171.483,499/125,94,124.4
1545,G3,171.483,499/125,94,124.4
1546,G#2,171.483,499/125,94,124.4
1547,F5,171.483,0.5,92,124.4
1548,E-3,171.483,0.5,92,124.4
1549,C2,171.483,0.5,92,124.4
1550,C5,171.733,0.25,69,124.4
1551,F5,171.983,0.5,95,124.4
1552,G5,171.983,0.25,69,124.4
1553,C5,172.233,0.25,69,124.4
1554,F4,172.483,0.25,69,124.4
1555,F2,172.483,1.0,88,124.4
1556,E-3,172.483,0.5,95,124.4
1557,F5,172.483,0.5,95,124.4
1558,D2,172.483,0.5,95,124.4
1559,C5,172.733,0.25,69,124.4
1560,E-5,172.983,0.5,88,124.4
1561,G5,172.983,0.5,88,124.4
1562,C2,172.983,0.5,88,124.4
1563,F4,173.483,0.25,69,124.4
1564,E-3,173.483,0.5,90,124.4
1565,C2,173.483,0.5,90,124.4
1566,F5,173.483,1.0,92,124.4
1567,F2,173.483,1.0,92,124.4
1568,C5,173.733,0.25,69,124.4
1569,G5,173.983,0.25,69,124.4
1570,C5,174.233,0.25,69,124.4
1571,F4,174.483,0.25,69,124.4
1572,E-3,174.483,0.5,93,124.4
1573,F2,174.483,0.5,93,124.4
1574,D2,174.483,0.5,93,124.4
1575,C5,174.733,0.25,69,124.4
1576,G5,174.983,0.5,78,124.4
1577,G#2,174.983,0.5,78,124.4
1578,G#4,175.483,0.25,69,124.4
1579,G#2,175.483,1.0,88,124.4
1580,E-2,175.483,4.0,93,124.4
1581,B-3,175.483,4.0,93,124.4
1582,E-3,175.483,4.0,93,124.4
1583,E-4,175.483,4.0,93,124.4
1584,G#2,175.483,4.0,93,124.4
1585,E-3,175.483,0.5,90,124.4
1586,C2,175.483,0.5,90,124.4
1587,E-5,175.733,0.25,69,124.4
1588,B-5,175.983,0.25,69,124.4
1589,E-5,176.233,0.25,69,124.4
1590,G#4,176.483,0.25,69,124.4
1591,G#2,176.483,1.0,88,124.4
1592,E-3,176.483,0.5,95,124.4
1593,D2,176.483,0.5,95,124.4
1594,E-5,176.733,0.25,69,124.4
1595,C2,176.983,0.5,84,124.4
1596,B-5,176.983,0.5,84,124.4
1597,G#2,177.483,1.0,88,124.4
1598,G#4,177.483,0.25,69,124.4
1599,C2,177.483,0.5,90,124.4
1600,E-3,177.483,0.5,90,124.4
1601,E-5,177.733,0.25,69,124.4
1602,B-5,177.983,0.25,69,124.4
1603,E-5,178.233,0.25,69,124.4
1604,G#4,178.483,0.25,69,124.4
1605,G#2,178.483,1.0,88,124.4
1606,E-3,178.483,0.5,95,124.4
1607,C5,178.483,0.5,95,124.4
1608,D2,178.483,0.5,95,124.4
1609,E-5,178.733,0.25,69,124.4
1610,B-5,178.983,0.5,82,124.4
1611,E-5,178.983,0.5,82,124.4
1612,E-5,179.483,0.25,69,124.4
1613,B-2,179.483,1.0,88,124.4
1614,B-2,179.483,3.5,94,124.4
1615,B-1,179.483,3.5,94,124.4
1616,E-2,179.483,3.5,94,124.4
1617,F3,179.483,3.5,94,124.4
1618,E-3,179.483,0.5,92,124.4
1619,C2,179.483,0.5,92,124.4
1620,F5,179.483,0.5,92,124.4
1621,B-5,179.733,0.25,69,124.4
1622,F6,179.983,0.25,69,124.4
1623,F5,179.983,0.5,95,124.4
1624,B-5,180.233,0.25,69,124.4
1625,B-2,180.483,1.0,88,124.4
1626,E-5,180.483,0.25,69,124.4
1627,F5,180.483,0.5,95,124.4
1628,D2,180.483,0.5,95,124.4
1629,E-3,180.483,0.5,95,124.4
1630,B-5,180.733,0.25,69,124.4
1631,F6,180.983,0.5,88,124.4
1632,C2,180.983,0.5,88,124.4
1633,F5,180.983,0.5,88,124.4
1634,E-5,181.483,0.25,69,124.4
1635,B-2,181.483,1.5,88,124.4
1636,E-5,181.483,1.0,95,124.4
1637,C2,181.483,0.5,90,124.4
1638,E-3,181.483,0.5,90,124.4
1639,B-5,181.733,0.25,69,124.4
1640,F6,181.983,0.25,69,124.4
1641,B-5,182.233,0.25,69,124.4
1642,E-5,182.483,0.25,69,124.4
1643,E-3,182.483,0.5,95,124.4
1644,D2,182.483,0.5,95,124.4
1645,C5,182.483,0.5,95,124.4
1646,B-5,182.733,0.25,69,124.4
1647,B-4,182.983,0.5,95,124.4
1648,F6,182.983,0.5,69,124.4
1649,G#2,182.983,0.5,93,124.4
1650,C#2,182.983,0.5,93,124.4
1651,G#1,182.983,0.5,93,124.4
1652,C#2,182.983,0.5,93,124.4
1653,E-3,182.983,0.5,93,124.4
1654,C#5,184.983,0.25,69,124.4
1655,B-4,184.983,0.5,95,124.4
1656,E-3,184.983,0.5,90,124.4
1657,C2,184.983,0.5,90,124.4
1658,G#2,184.983,1.5,93,124.4
1659,C#2,184.983,1.5,93,124.4
1660,G#1,184.983,1.5,93,124.4
1661,C#2,184.983,1.5,93,124.4
1662,E-3,184.983,1.5,93,124.4
1663,G#5,185.233,0.25,69,124.4
1664,C3,185.483,0.5,100,124.4
1665,B-4,185.483,0.25,82,124.4
1666,E-6,185.483,0.25,82,124.4
1667,G#5,185.733,0.25,82,124.4
1668,G#4,185.733,0.25,82,124.4
1669,F4,185.983,1.0,95,124.4
1670,C#5,185.983,0.25,69,124.4
1671,E-3,185.983,0.5,95,124.4
1672,D2,185.983,0.5,95,124.4
1673,G#5,186.233,0.25,69,124.4
1674,B-2,186.483,0.5,90,124.4
1675,B-1,186.483,0.5,90,124.4
1676,C2,186.483,0.5,90,124.4
1677,E-6,186.483,0.5,90,124.4
1678,G3,186.483,0.5,90,124.4
1679,E-2,186.483,249/125,88,124.4
1680,F3,186.483,249/125,88,124.4
1681,E-2,186.483,249/125,88,124.4
1682,E-5,186.983,0.25,69,124.4
1683,B-2,186.983,373/250,100,124.4
1684,B-1,186.983,373/250,100,124.4
1685,E-3,186.983,0.5,90,124.4
1686,C2,186.983,0.5,90,124.4
1687,B-5,187.233,0.25,69,124.4
1688,F6,187.483,0.25,69,124.4
1689,C3,187.483,0.5,100,124.4
1690,B-5,187.733,0.25,69,124.4
1691,E-5,187.983,0.25,69,124.4
1692,A3,187.983,1.0,100,124.4
1693,E-3,187.983,0.5,90,124.4
1694,B2,187.983,0.5,90,124.4
1695,B-5,188.233,0.25,69,124.4
1696,G3,188.483,0.5,100,124.4
1697,E-6,188.483,0.5,69,124.4
1698,F2,188.483,0.5,93,124.4
1699,C4,188.483,0.5,93,124.4
1700,F1,188.483,0.5,93,124.4
1701,F1,188.483,0.5,93,124.4
1702,B-3,188.483,0.5,93,124.4
1703,F4,188.483,0.5,93,124.4
1704,E-3,188.483,0.5,93,124.4
1705,G3,188.983,0.5,100,124.4
1706,F2,188.983,999/125,93,124.4
1707,C4,188.983,999/125,93,124.4
1708,F1,188.983,999/125,93,124.4
1709,F1,188.983,999/125,93,124.4
1710,B-3,188.983,999/125,93,124.4
1711,F4,188.983,999/125,93,124.4
1712,E-3,188.983,999/125,93,124.4
1713,F#2,189.483,0.5,50,124.4
1714,F6,189.65,667/1000,74,124.4
1715,C6,189.65,667/1000,74,124.4
1716,C6,189.733,0.5,69,124.4
1717,B-2,189.983,0.5,82,124.4
1718,C6,190.233,0.75,69,124.4
1719,C6,190.317,667/1000,70,124.4
1720,F6,190.317,667/1000,70,124.4
1721,F#2,190.483,0.5,50,124.4
1722,C6,190.983,0.75,69,124.4
1723,C6,190.983,667/1000,66,124.4
1724,F6,190.983,667/1000,66,124.4
1725,F#2,191.483,0.5,50,124.4
1726,F6,191.65,667/1000,62,124.4
1727,C6,191.65,667/1000,62,124.4
1728,C6,191.733,0.5,69,124.4
1729,B-2,191.983,0.5,82,124.4
1730,C6,192.233,0.75,69,124.4
1731,F6,192.317,667/1000,58,124.4
1732,C6,192.317,667/1000,58,124.4
1733,F#2,192.483,0.5,50,124.4
1734,C6,196.975,0.75,69,124.4
1735,C6,196.975,667/1000,54,124.4
1736,F6,196.975,667/1000,54,124.4
1737,F#2,197.475,0.5,50,124.4
1738,C6,197.642,667/1000,50,124.4
1739,F6,197.642,667/1000,50,124.4
1740,C6,197.725,0.5,69,124.4
1741,B-2,197.975,0.5,82,124.4
1742,C6,198.225,0.75,69,124.4
1743,C6,198.308,667/1000,46,124.4
1744,F6,198.308,667/1000,46,124.4
1745,F#2,198.475,0.5,50,124.4
1746,C6,198.975,0.75,69,124.4
1747,F6,198.975,667/1000,42,124.4
1748,C6,198.975,667/1000,42,124.4
1749,F#2,199.475,0.5,50,124.4
1750,C6,199.642,667/1000,38,124.4
1751,F6,199.642,667/1000,38,124.4
1752,C6,199.725,0.5,69,124.4
1753,B-2,199.975,0.5,82,124.4
1754,C6,200.225,0.75,69,124.4
1755,C6,200.308,667/1000,34,124.4
1756,F6,200.308,667/1000,34,124.4
1757,C5,200.475,0.5,72,124.4
1758,F#2,200.475,0.5,72,124.4
1759,B-4,200.975,333/1000,65,124.4
1760,E-5,200.975,0.5,95,124.4
1761,C2,200.975,0.75,100,124.4
1762,C3,200.975,3.5,95,124.4
1763,C3,200.975,3.5,95,124.4
1764,F2,200.975,3.5,95,124.4
1765,E-4,200.975,3.5,95,124.4
1766,B-3,200.975,3.5,95,124.4
1767,G3,200.975,3.5,95,124.4
1768,G#3,200.975,3.5,95,124.4
1769,F2,200.975,3.5,95,124.4
1770,E-4,200.975,3.5,95,124.4
1771,F2,200.975,3.5,95,124.4
1772,B-3,200.975,3.5,95,124.4
1773,G#3,200.975,3.5,95,124.4
1774,G3,200.975,3.5,95,124.4
1775,B-4,201.475,333/1000,65,124.4
1776,F5,201.475,0.5,95,124.4
1777,B-2,201.975,0.75,100,124.4
1778,B-4,201.975,333/1000,65,124.4
1779,F5,201.975,0.5,82,124.4
1780,C#2,201.975,0.5,82,124.4
1781,B-4,202.475,333/1000,65,124.4
1782,G#3,202.475,0.5,82,124.4
1783,F5,202.475,0.5,82,124.4
1784,B-4,202.975,333/1000,65,124.4
1785,F5,202.975,0.5,95,124.4
1786,G#3,203.475,0.5,70,124.4
1787,B-4,203.475,333/1000,65,124.4
1788,F5,203.475,1.0,95,124.4
1789,C#2,203.975,0.5,70,124.4
1790,B-4,203.975,333/1000,65,124.4
1791,B-2,203.975,0.75,100,124.4
1792,B-4,204.475,333/1000,65,124.4
1793,C2,204.475,0.5,100,124.4
1794,E-5,204.475,0.5,95,124.4
1795,B-3,204.475,0.5,92,124.4
1796,G#2,204.475,0.5,92,124.4
1797,E-3,204.475,0.5,92,124.4
1798,B-3,204.475,0.5,92,124.4
1799,E-3,204.475,0.5,92,124.4
1800,E-4,204.475,0.5,92,124.4
1801,G#2,204.475,0.5,92,124.4
1802,E-4,204.475,0.5,92,124.4
1803,G#2,204.475,0.5,92,124.4
1804,B-4,208.975,333/1000,65,124.4
1805,C2,208.975,0.25,100,124.4
1806,E-5,208.975,1.0,95,124.4
1807,B-3,208.975,4.0,92,124.4
1808,G#2,208.975,4.0,92,124.4
1809,E-3,208.975,4.0,92,124.4
1810,B-3,208.975,4.0,92,124.4
1811,E-3,208.975,4.0,92,124.4
1812,E-4,208.975,4.0,92,124.4
1813,G#2,208.975,4.0,92,124.4
1814,E-4,208.975,4.0,92,124.4
1815,G#2,208.975,4.0,92,124.4
1816,B-4,209.475,333/1000,65,124.4
1817,B-2,209.975,0.75,100,124.4
1818,B-4,209.975,333/1000,65,124.4
1819,C5,209.975,0.5,82,124.4
1820,C#2,209.975,0.5,82,124.4
1821,B-4,210.475,333/1000,65,124.4
1822,G#3,210.475,0.5,82,124.4
1823,B-4,210.475,0.5,82,124.4
1824,B-4,210.975,333/1000,65,124.4
1825,C5,210.975,0.5,95,124.4
1826,B-4,211.475,1.0,95,124.4
1827,B-4,211.475,333/1000,65,124.4
1828,G#3,211.475,0.5,70,124.4
1829,B-4,211.975,333/1000,65,124.4
1830,C#2,211.975,0.5,70,124.4
1831,B-2,211.975,0.75,100,124.4
1832,B-4,212.475,333/1000,65,124.4
1833,B-4,212.475,0.5,95,124.4
1834,C2,212.975,0.75,100,124.4
1835,B-4,212.975,333/1000,65,124.4
1836,B-4,212.975,0.5,95,124.4
1837,B-2,212.975,3.5,92,124.4
1838,E-2,212.975,3.5,92,124.4
1839,B-3,212.975,3.5,92,124.4
1840,E-2,212.975,3.5,92,124.4
1841,B-3,212.975,3.5,92,124.4
1842,F3,212.975,3.5,92,124.4
1843,F3,212.975,3.5,92,124.4
1844,E-2,212.975,3.5,92,124.4
1845,B-2,212.975,3.5,92,124.4
1846,B-4,213.475,333/1000,65,124.4
1847,B-4,213.475,0.25,95,124.4
1848,G#4,213.725,0.25,95,124.4
1849,B-2,213.975,0.75,100,124.4
1850,C#2,213.975,0.5,70,124.4
1851,F4,213.975,1.0,95,124.4
1852,B-4,213.975,333/1000,65,124.4
1853,G#3,214.475,0.5,70,124.4
1854,B-4,214.475,333/1000,65,124.4
1855,B-4,214.975,333/1000,65,124.4
1856,G#3,215.475,0.5,70,124.4
1857,B-4,215.475,333/1000,65,124.4
1858,C#2,215.975,0.5,70,124.4
1859,B-4,215.975,333/1000,65,124.4
1860,B-2,215.975,0.75,100,124.4
1861,B-4,216.475,333/1000,65,124.4
1862,C2,216.475,0.5,100,124.4
1863,G#3,216.475,0.5,92,124.4
1864,C#2,216.475,0.5,92,124.4
1865,C#2,216.475,0.5,92,124.4
1866,G#3,216.475,0.5,92,124.4
1867,C#2,216.475,0.5,92,124.4
1868,E-3,216.475,0.5,92,124.4
1869,G#2,216.475,0.5,92,124.4
1870,G#2,216.475,0.5,92,124.4
1871,E-3,216.475,0.5,92,124.4
1872,B-4,218.475,333/1000,65,124.4
1873,C#6,218.475,0.25,69,124.4
1874,C2,218.475,0.25,100,124.4
1875,G#3,218.475,1.5,92,124.4
1876,C#2,218.475,1.5,92,124.4
1877,C#2,218.475,1.5,92,124.4
1878,G#3,218.475,1.5,92,124.4
1879,C#2,218.475,1.5,92,124.4
1880,E-3,218.475,1.5,92,124.4
1881,G#2,218.475,1.5,92,124.4
1882,G#2,218.475,1.5,92,124.4
1883,E-3,218.475,1.5,92,124.4
1884,G#5,218.725,0.25,69,124.4
1885,E-5,218.975,0.25,69,124.4
1886,B-4,218.975,333/1000,65,124.4
1887,C#5,219.225,0.25,69,124.4
1888,B-4,219.475,333/1000,65,124.4
1889,C#2,219.475,0.5,70,124.4
1890,C#6,219.475,0.25,69,124.4
1891,B-2,219.475,0.75,100,124.4
1892,G#5,219.725,0.25,69,124.4
1893,B-4,219.975,333/1000,65,124.4
1894,C2,219.975,0.75,100,124.4
1895,F5,219.975,0.25,69,124.4
1896,F3,219.975,123/250,90,124.4
1897,B-3,219.975,123/250,90,124.4
1898,B-3,219.975,123/250,90,124.4
1899,F3,219.975,123/250,90,124.4
1900,E-2,219.975,123/250,90,124.4
1901,E-2,219.975,123/250,90,124.4
1902,B-2,219.975,123/250,90,124.4
1903,B-2,219.975,123/250,90,124.4
1904,G#3,219.975,123/250,90,124.4
1905,E-2,219.975,123/250,90,124.4
1906,E-5,220.225,0.25,69,124.4
1907,E-6,220.475,0.25,69,124.4
1908,C2,220.475,0.75,100,124.4
1909,B-4,220.475,333/1000,65,124.4
1910,B-2,220.475,249/125,92,124.4
1911,E-2,220.475,249/125,92,124.4
1912,B-2,220.475,249/125,92,124.4
1913,F3,220.475,249/125,92,124.4
1914,B-3,220.475,249/125,92,124.4
1915,B-3,220.475,249/125,92,124.4
1916,E-2,220.475,249/125,92,124.4
1917,F3,220.475,249/125,92,124.4
1918,E-2,220.475,249/125,92,124.4
1919,B-5,220.725,0.25,69,124.4
1920,G#3,220.975,0.5,70,124.4
1921,F5,220.975,0.25,69,124.4
1922,B-4,220.975,333/1000,65,124.4
1923,E-5,221.225,0.25,69,124.4
1924,B-2,221.475,0.75,100,124.4
1925,C#2,221.475,0.5,70,124.4
1926,B-4,221.475,333/1000,65,124.4
1927,E-6,221.475,0.25,69,124.4
1928,B-5,221.725,0.25,69,124.4
1929,C5,221.975,0.5,95,124.4
1930,F5,221.975,0.25,69,124.4
1931,B-4,221.975,333/1000,65,124.4
1932,E-5,222.225,0.25,69,124.4
1933,C2,222.475,0.75,100,124.4
1934,B-4,222.475,333/1000,65,124.4
1935,E-5,222.475,0.5,95,124.4
1936,C3,222.475,873/250,95,124.4
1937,F2,222.475,873/250,95,124.4
1938,G#3,222.475,873/250,95,124.4
1939,B-3,222.475,873/250,95,124.4
1940,E-4,222.475,873/250,95,124.4
1941,C3,222.475,873/250,95,124.4
1942,B-3,222.475,873/250,95,124.4
1943,F2,222.475,873/250,95,124.4
1944,F2,222.475,873/250,95,124.4
1945,G3,222.475,873/250,95,124.4
1946,E-4,222.475,873/250,95,124.4
1947,G3,222.475,873/250,95,124.4
1948,G#3,222.475,873/250,95,124.4
1949,B-4,222.975,333/1000,65,124.4
1950,F5,222.975,0.5,95,124.4
1951,C#2,223.475,0.5,70,124.4
1952,B-2,223.475,0.75,100,124.4
1953,F5,223.475,1.0,95,124.4
1954,B-4,223.475,333/1000,65,124.4
1955,B-4,223.975,333/1000,65,124.4
1956,G#3,223.975,0.5,70,124.4
1957,B-4,224.475,333/1000,65,124.4
1958,F5,224.475,1.0,95,124.4
1959,B-4,224.975,333/1000,65,124.4
1960,G#3,224.975,0.5,70,124.4
1961,B-4,225.475,333/1000,65,124.4
1962,B-2,225.475,0.75,100,124.4
1963,E-5,225.475,0.5,82,124.4
1964,C#2,225.475,0.5,82,124.4
1965,C2,225.975,0.5,100,124.4
1966,C5,225.975,0.5,95,124.4
1967,B-4,225.975,333/1000,65,124.4
1968,B-3,225.975,0.5,92,124.4
1969,E-3,225.975,0.5,92,124.4
1970,G#2,225.975,0.5,92,124.4
1971,E-4,225.975,0.5,92,124.4
1972,B-3,225.975,0.5,92,124.4
1973,E-4,225.975,0.5,92,124.4
1974,E-3,225.975,0.5,92,124.4
1975,G#2,225.975,0.5,92,124.4
1976,G#2,225.975,0.5,92,124.4
1977,E-5,226.475,0.5,95,124.4
1978,B-4,226.475,333/1000,65,124.4
1979,C2,226.475,0.25,100,124.4
1980,B-3,226.475,4.0,92,124.4
1981,E-3,226.475,4.0,92,124.4
1982,G#2,226.475,4.0,92,124.4
1983,E-4,226.475,4.0,92,124.4
1984,B-3,226.475,4.0,92,124.4
1985,E-4,226.475,4.0,92,124.4
1986,E-3,226.475,4.0,92,124.4
1987,G#2,226.475,4.0,92,124.4
1988,G#2,226.475,4.0,92,124.4
1989,C5,226.975,0.5,95,124.4
1990,B-4,226.975,333/1000,65,124.4
1991,C#2,227.475,0.5,70,124.4
1992,B-2,227.475,0.75,100,124.4
1993,B-4,227.475,333/1000,65,124.4
1994,C5,227.475,1.0,95,124.4
1995,B-4,227.975,333/1000,65,124.4
1996,G#3,227.975,0.5,70,124.4
1997,B-4,228.475,333/1000,65,124.4
1998,C5,228.475,0.5,95,124.4
1999,B-4,228.975,333/1000,65,124.4
2000,B-4,228.975,0.5,82,124.4
2001,G#3,228.975,0.5,82,124.4
2002,B-2,229.475,0.75,100,124.4
2003,B-4,229.475,333/1000,65,124.4
2004,B-4,229.475,0.5,82,124.4
2005,C#2,229.475,0.5,82,124.4
2006,B-4,229.975,333/1000,65,124.4
2007,B-4,229.975,0.5,95,124.4
2008,B-4,230.475,333/1000,65,124.4
2009,C2,230.475,0.75,100,124.4
2010,B-4,230.475,0.5,95,124.4
2011,E-2,230.475,3.5,92,124.4
2012,B-2,230.475,3.5,92,124.4
2013,B-2,230.475,3.5,92,124.4
2014,F3,230.475,3.5,92,124.4
2015,E-2,230.475,3.5,92,124.4
2016,F3,230.475,3.5,92,124.4
2017,B-3,230.475,3.5,92,124.4
2018,E-2,230.475,3.5,92,124.4
2019,B-3,230.475,3.5,92,124.4
2020,B-4,230.975,0.25,95,124.4
2021,B-4,230.975,333/1000,65,124.4
2022,G#4,231.225,0.25,95,124.4
2023,B-2,231.475,0.75,100,124.4
2024,C#2,231.475,0.5,70,124.4
2025,B-4,231.475,333/1000,65,124.4
2026,F4,231.475,1.0,95,124.4
2027,B-4,231.975,333/1000,65,124.4
2028,G#3,231.975,0.5,70,124.4
2029,B-4,232.475,333/1000,65,124.4
2030,G#3,232.975,0.5,70,124.4
2031,B-4,232.975,333/1000,65,124.4
2032,B-4,233.475,333/1000,65,124.4
2033,B-2,233.475,0.75,100,124.4
2034,C#2,233.475,0.5,70,124.4
2035,B-4,233.975,333/1000,65,124.4
2036,C2,233.975,0.5,100,124.4
2037,E-3,233.975,0.5,92,124.4
2038,G#3,233.975,0.5,92,124.4
2039,G#3,233.975,0.5,92,124.4
2040,G#2,233.975,0.5,92,124.4
2041,E-3,233.975,0.5,92,124.4
2042,G#2,233.975,0.5,92,124.4
2043,C#2,233.975,0.5,92,124.4
2044,C#2,233.975,0.5,92,124.4
2045,C#2,233.975,0.5,92,124.4
2046,C#6,235.967,0.25,69,124.4
2047,B-4,235.967,333/1000,65,124.4
2048,C2,235.967,0.25,100,124.4
2049,E-3,235.967,373/250,92,124.4
2050,G#3,235.967,373/250,92,124.4
2051,G#3,235.967,373/250,92,124.4
2052,G#2,235.967,373/250,92,124.4
2053,E-3,235.967,373/250,92,124.4
2054,G#2,235.967,373/250,92,124.4
2055,C#2,235.967,373/250,92,124.4
2056,C#2,235.967,373/250,92,124.4
2057,C#2,235.967,373/250,92,124.4
2058,G#5,236.217,0.25,69,124.4
2059,E-5,236.467,0.25,69,124.4
2060,B-4,236.467,333/1000,65,124.4
2061,C#5,236.717,0.25,69,124.4
2062,B-2,236.967,0.75,100,124.4
2063,C#6,236.967,0.25,69,124.4
2064,C#2,236.967,0.5,70,124.4
2065,B-4,236.967,333/1000,65,124.4
2066,G#5,237.217,0.25,69,124.4
2067,F5,237.467,0.25,69,124.4
2068,B-4,237.467,333/1000,65,124.4
2069,C2,237.467,0.75,100,124.4
2070,F3,237.467,0.5,90,124.4
2071,E-2,237.467,0.5,90,124.4
2072,B-2,237.467,0.5,90,124.4
2073,B-3,237.467,0.5,90,124.4
2074,B-3,237.467,0.5,90,124.4
2075,E-2,237.467,0.5,90,124.4
2076,B-2,237.467,0.5,90,124.4
2077,E-2,237.467,0.5,90,124.4
2078,G#3,237.467,0.5,90,124.4
2079,F3,237.467,0.5,90,124.4
2080,E-5,237.717,0.25,69,124.4
2081,B-4,237.967,333/1000,65,124.4
2082,E-6,237.967,0.25,69,124.4
2083,C2,237.967,0.75,100,124.4
2084,F3,237.967,249/125,92,124.4
2085,B-2,237.967,249/125,92,124.4
2086,E-2,237.967,249/125,92,124.4
2087,E-2,237.967,249/125,92,124.4
2088,B-3,237.967,249/125,92,124.4
2089,B-3,237.967,249/125,92,124.4
2090,F3,237.967,249/125,92,124.4
2091,B-2,237.967,249/125,92,124.4
2092,E-2,237.967,249/125,92,124.4
2093,B-5,238.217,0.25,69,124.4
2094,F5,238.467,0.25,69,124.4
2095,B-4,238.467,333/1000,65,124.4
2096,G#3,238.467,0.5,70,124.4
2097,E-5,238.717,0.25,69,124.4
2098,B-4,238.967,333/1000,65,124.4
2099,E-6,238.967,0.25,69,124.4
2100,B-2,238.967,0.75,100,124.4
2101,C5,238.967,0.5,82,124.4
2102,C#2,238.967,0.5,82,124.4
2103,B-5,239.217,0.25,69,124.4
2104,C5,239.467,0.5,95,124.4
2105,F5,239.467,0.25,69,124.4
2106,B-4,239.467,333/1000,65,124.4
2107,E-5,239.717,0.25,69,124.4
2108,E-5,239.967,0.5,95,124.4
2109,C2,239.967,0.75,100,124.4
2110,B-4,239.967,333/1000,65,124.4
2111,C3,239.967,3.5,95,124.4
2112,G#3,239.967,3.5,95,124.4
2113,B-3,239.967,3.5,95,124.4
2114,F2,239.967,3.5,95,124.4
2115,E-4,239.967,3.5,95,124.4
2116,G3,239.967,3.5,95,124.4
2117,B-3,239.967,3.5,95,124.4
2118,C3,239.967,3.5,95,124.4
2119,F2,239.967,3.5,95,124.4
2120,F2,239.967,3.5,95,124.4
2121,E-4,239.967,3.5,95,124.4
2122,G#3,239.967,3.5,95,124.4
2123,G3,239.967,3.5,95,124.4
2124,B-4,240.467,333/1000,65,124.4
2125,F5,240.467,0.5,95,124.4
2126,B-4,240.967,333/1000,65,124.4
2127,B-2,240.967,0.75,100,124.4
2128,F5,240.967,1.0,95,124.4
2129,C#2,240.967,0.5,70,124.4
2130,G#3,241.467,0.5,70,124.4
2131,B-4,241.467,333/1000,65,124.4
2132,F5,241.967,0.5,95,124.4
2133,B-4,241.967,333/1000,65,124.4
2134,B-4,242.467,333/1000,65,124.4
2135,G#3,242.467,0.5,82,124.4
2136,E-5,242.467,0.5,82,124.4
2137,B-2,242.967,0.75,100,124.4
2138,C#2,242.967,0.5,70,124.4
2139,E-5,242.967,1.0,95,124.4
2140,B-4,242.967,333/1000,65,124.4
2141,B-4,243.467,333/1000,65,124.4
2142,C2,243.467,0.5,100,124.4
2143,B-3,243.467,0.5,92,124.4
2144,B-3,243.467,0.5,92,124.4
2145,G#2,243.467,0.5,92,124.4
2146,E-3,243.467,0.5,92,124.4
2147,E-3,243.467,0.5,92,124.4
2148,E-4,243.467,0.5,92,124.4
2149,G#2,243.467,0.5,92,124.4
2150,G#2,243.467,0.5,92,124.4
2151,E-4,243.467,0.5,92,124.4
2152,B-4,247.967,333/1000,65,124.4
2153,E-5,247.967,1.0,95,124.4
2154,C2,247.967,0.25,100,124.4
2155,B-3,247.967,4.0,92,124.4
2156,B-3,247.967,4.0,92,124.4
2157,G#2,247.967,4.0,92,124.4
2158,E-3,247.967,4.0,92,124.4
2159,E-3,247.967,4.0,92,124.4
2160,E-4,247.967,4.0,92,124.4
2161,G#2,247.967,4.0,92,124.4
2162,G#2,247.967,4.0,92,124.4
2163,E-4,247.967,4.0,92,124.4
2164,B-4,248.467,333/1000,65,124.4
2165,B-4,248.967,333/1000,65,124.4
2166,B-2,248.967,0.75,100,124.4
2167,C5,248.967,0.5,82,124.4
2168,C#2,248.967,0.5,82,124.4
2169,B-4,249.467,333/1000,65,124.4
2170,G#3,249.467,0.5,82,124.4
2171,B-4,249.467,0.5,82,124.4
2172,B-4,249.967,333/1000,65,124.4
2173,C5,249.967,0.5,95,124.4
2174,G#3,250.467,0.5,70,124.4
2175,B-4,250.467,1.0,95,124.4
2176,B-4,250.467,333/1000,65,124.4
2177,B-4,250.967,333/1000,65,124.4
2178,C#2,250.967,0.5,70,124.4
2179,B-2,250.967,0.75,100,124.4
2180,B-4,251.467,333/1000,65,124.4
2181,B-4,251.467,0.5,95,124.4
2182,C2,251.967,0.75,100,124.4
2183,B-4,251.967,333/1000,65,124.4
2184,B-4,251.967,0.5,95,124.4
2185,B-3,251.967,3.5,92,124.4
2186,F3,251.967,3.5,92,124.4
2187,E-2,251.967,3.5,92,124.4
2188,E-2,251.967,3.5,92,124.4
2189,B-2,251.967,3.5,92,124.4
2190,F3,251.967,3.5,92,124.4
2191,B-3,251.967,3.5,92,124.4
2192,E-2,251.967,3.5,92,124.4
2193,B-2,251.967,3.5,92,124.4
2194,B-4,252.467,0.25,95,124.4
2195,B-4,252.467,333/1000,65,124.4
2196,G#4,252.717,0.25,95,124.4
2197,F4,252.967,1.0,95,124.4
2198,B-2,252.967,0.75,100,124.4
2199,B-4,252.967,333/1000,65,124.4
2200,C#2,252.967,0.5,70,124.4
2201,G#3,253.467,0.5,70,124.4
2202,B-4,253.467,333/1000,65,124.4
2203,B-4,253.967,333/1000,65,124.4
2204,G#3,254.467,0.5,70,124.4
2205,B-4,254.467,333/1000,65,124.4
2206,B-2,254.967,0.75,100,124.4
2207,C#2,254.967,0.5,70,124.4
2208,B-4,254.967,333/1000,65,124.4
2209,C2,255.467,0.5,100,124.4
2210,B-4,255.467,333/1000,65,124.4
2211,E-3,255.467,0.5,92,124.4
2212,G#2,255.467,0.5,92,124.4
2213,G#3,255.467,0.5,92,124.4
2214,G#3,255.467,0.5,92,124.4
2215,E-3,255.467,0.5,92,124.4
2216,C#2,255.467,0.5,92,124.4
2217,C#2,255.467,0.5,92,124.4
2218,G#2,255.467,0.5,92,124.4
2219,C#2,255.467,0.5,92,124.4
2220,B-4,257.458,333/1000,65,124.4
2221,C#6,257.458,0.25,69,124.4
2222,C2,257.458,0.25,100,124.4
2223,E-3,257.458,373/250,92,124.4
2224,G#2,257.458,373/250,92,124.4
2225,G#3,257.458,373/250,92,124.4
2226,G#3,257.458,373/250,92,124.4
2227,E-3,257.458,373/250,92,124.4
2228,C#2,257.458,373/250,92,124.4
2229,C#2,257.458,373/250,92,124.4
2230,G#2,257.458,373/250,92,124.4
2231,C#2,257.458,373/250,92,124.4
2232,G#5,257.708,0.25,69,124.4
2233,B-4,257.958,333/1000,65,124.4
2234,E-5,257.958,0.25,69,124.4
2235,C#5,258.208,0.25,69,124.4
2236,C#6,258.458,0.25,69,124.4
2237,B-2,258.458,0.75,100,124.4
2238,C#2,258.458,0.5,70,124.4
2239,B-4,258.458,333/1000,65,124.4
2240,G#5,258.708,0.25,69,124.4
2241,B-4,258.958,333/1000,65,124.4
2242,F5,258.958,0.25,69,124.4
2243,C2,258.958,0.75,100,124.4
2244,E-2,258.958,123/250,90,124.4
2245,B-2,258.958,123/250,90,124.4
2246,E-2,258.958,123/250,90,124.4
2247,B-3,258.958,123/250,90,124.4
2248,B-2,258.958,123/250,90,124.4
2249,F3,258.958,123/250,90,124.4
2250,F3,258.958,123/250,90,124.4
2251,G#3,258.958,123/250,90,124.4
2252,B-3,258.958,123/250,90,124.4
2253,E-2,258.958,123/250,90,124.4
2254,E-5,259.208,0.25,69,124.4
2255,E-6,259.458,0.25,69,124.4
2256,C2,259.458,0.75,100,124.4
2257,B-4,259.458,333/1000,65,124.4
2258,B-3,259.458,2.0,92,124.4
2259,B-2,259.458,2.0,92,124.4
2260,E-2,259.458,2.0,92,124.4
2261,F3,259.458,2.0,92,124.4
2262,E-2,259.458,2.0,92,124.4
2263,B-2,259.458,2.0,92,124.4
2264,B-3,259.458,2.0,92,124.4
2265,E-2,259.458,2.0,92,124.4
2266,F3,259.458,2.0,92,124.4
2267,B-5,259.708,0.25,69,124.4
2268,G#3,259.958,0.5,70,124.4
2269,B-4,259.958,333/1000,65,124.4
2270,F5,259.958,0.25,69,124.4
2271,E-5,260.208,0.25,69,124.4
2272,B-4,260.458,333/1000,65,124.4
2273,C#2,260.458,0.5,70,124.4
2274,B-2,260.458,0.75,100,124.4
2275,E-6,260.458,0.25,69,124.4
2276,B-5,260.708,0.25,69,124.4
2277,C5,260.958,0.5,95,124.4
2278,B-4,260.958,333/1000,65,124.4
2279,F5,260.958,0.25,69,124.4
2280,E-5,261.208,0.25,69,124.4
2281,E-5,261.458,0.5,95,124.4
2282,B-4,261.458,333/1000,65,124.4
2283,C2,261.458,0.75,100,124.4
2284,G#3,261.458,3.5,95,124.4
2285,G3,261.458,3.5,95,124.4
2286,F2,261.458,3.5,95,124.4
2287,E-4,261.458,3.5,95,124.4
2288,G3,261.458,3.5,95,124.4
2289,B-3,261.458,3.5,95,124.4
2290,F2,261.458,3.5,95,124.4
2291,B-3,261.458,3.5,95,124.4
2292,E-4,261.458,3.5,95,124.4
2293,C3,261.458,3.5,95,124.4
2294,G#3,261.458,3.5,95,124.4
2295,F2,261.458,3.5,95,124.4
2296,C3,261.458,3.5,95,124.4
2297,F5,261.958,0.5,95,124.4
2298,B-4,261.958,333/1000,65,124.4
2299,B-2,262.458,0.75,100,124.4
2300,C#2,262.458,0.5,70,124.4
2301,F5,262.458,1.0,95,124.4
2302,B-4,262.458,333/1000,65,124.4
2303,B-4,262.958,333/1000,65,124.4
2304,G#3,262.958,0.5,70,124.4
2305,F5,263.458,0.5,95,124.4
2306,B-4,263.458,333/1000,65,124.4
2307,B-4,263.958,333/1000,65,124.4
2308,G#3,263.958,0.5,82,124.4
2309,E-5,263.958,0.5,82,124.4
2310,B-4,264.458,333/1000,65,124.4
2311,B-2,264.458,0.75,100,124.4
2312,C#2,264.458,0.5,82,124.4
2313,E-5,264.458,0.5,82,124.4
2314,B-4,264.958,333/1000,65,124.4
2315,E-5,264.958,0.5,95,124.4
2316,C2,264.958,0.5,100,124.4
2317,G#2,264.958,0.5,92,124.4
2318,B-3,264.958,0.5,92,124.4
2319,B-3,264.958,0.5,92,124.4
2320,E-4,264.958,0.5,92,124.4
2321,G#2,264.958,0.5,92,124.4
2322,G#2,264.958,0.5,92,124.4
2323,E-3,264.958,0.5,92,124.4
2324,E-3,264.958,0.5,92,124.4
2325,E-4,264.958,0.5,92,124.4
2326,B-4,269.458,333/1000,65,124.4
2327,E-5,269.458,1.0,95,124.4
2328,C2,269.458,0.25,100,124.4
2329,G#2,269.458,4.0,92,124.4
2330,B-3,269.458,4.0,92,124.4
2331,B-3,269.458,4.0,92,124.4
2332,E-4,269.458,4.0,92,124.4
2333,G#2,269.458,4.0,92,124.4
2334,G#2,269.458,4.0,92,124.4
2335,E-3,269.458,4.0,92,124.4
2336,E-3,269.458,4.0,92,124.4
2337,E-4,269.458,4.0,92,124.4
2338,B-4,269.958,333/1000,65,124.4
2339,B-2,270.458,0.75,100,124.4
2340,B-4,270.458,333/1000,65,124.4
2341,C5,270.458,0.5,82,124.4
2342,C#2,270.458,0.5,82,124.4
2343,G#3,270.958,0.5,70,124.4
2344,C5,270.958,1.0,95,124.4
2345,B-4,270.958,333/1000,65,124.4
2346,B-4,271.458,333/1000,65,124.4
2347,B-4,271.958,333/1000,65,124.4
2348,G#3,271.958,0.5,82,124.4
2349,B-4,271.958,0.5,82,124.4
2350,B-4,272.458,333/1000,65,124.4
2351,B-2,272.458,0.75,100,124.4
2352,C#2,272.458,0.5,82,124.4
2353,G#4,272.458,0.5,82,124.4
2354,B-4,272.958,333/1000,65,124.4
2355,B-4,272.958,0.5,95,124.4
2356,B-4,273.458,333/1000,65,124.4
2357,C2,273.458,0.75,100,124.4
2358,B-4,273.458,0.5,95,124.4
2359,B-3,273.458,3.5,92,124.4
2360,E-2,273.458,3.5,92,124.4
2361,E-2,273.458,3.5,92,124.4
2362,F3,273.458,3.5,92,124.4
2363,E-2,273.458,3.5,92,124.4
2364,B-2,273.458,3.5,92,124.4
2365,B-3,273.458,3.5,92,124.4
2366,B-2,273.458,3.5,92,124.4
2367,F3,273.458,3.5,92,124.4
2368,B-4,273.958,0.25,95,124.4
2369,B-4,273.958,333/1000,65,124.4
2370,G#4,274.208,0.25,95,124.4
2371,C#2,274.458,0.5,70,124.4
2372,F4,274.458,1.0,95,124.4
2373,B-2,274.458,0.75,100,124.4
2374,B-4,274.458,333/1000,65,124.4
2375,B-4,274.958,333/1000,65,124.4
2376,G#3,274.958,0.5,70,124.4
2377,B-4,275.458,333/1000,65,124.4
2378,G#3,275.958,0.5,70,124.4
2379,B-4,275.958,333/1000,65,124.4
2380,B-2,276.458,0.75,100,124.4
2381,C#2,276.458,0.5,70,124.4
2382,B-4,276.458,333/1000,65,124.4
2383,B-4,276.958,333/1000,65,124.4
2384,C2,276.958,0.5,100,124.4
2385,G#2,276.958,0.5,92,124.4
2386,C#2,276.958,0.5,92,124.4
2387,C#2,276.958,0.5,92,124.4
2388,E-3,276.958,0.5,92,124.4
2389,G#2,276.958,0.5,92,124.4
2390,C#2,276.958,0.5,92,124.4
2391,E-3,276.958,0.5,92,124.4
2392,G#3,276.958,0.5,92,124.4
2393,G#3,276.958,0.5,92,124.4
2394,B-4,278.958,333/1000,65,124.4
2395,C#6,278.958,0.25,69,124.4
2396,C2,278.958,0.25,100,124.4
2397,G#2,278.958,1.5,92,124.4
2398,C#2,278.958,1.5,92,124.4
2399,C#2,278.958,1.5,92,124.4
2400,E-3,278.958,1.5,92,124.4
2401,G#2,278.958,1.5,92,124.4
2402,C#2,278.958,1.5,92,124.4
2403,E-3,278.958,1.5,92,124.4
2404,G#3,278.958,1.5,92,124.4
2405,G#3,278.958,1.5,92,124.4
2406,G#5,279.208,0.25,69,124.4
2407,E-5,279.458,0.25,69,124.4
2408,B-4,279.458,333/1000,65,124.4
2409,C#5,279.708,0.25,69,124.4
2410,C#2,279.958,0.5,70,124.4
2411,C#6,279.958,0.25,69,124.4
2412,B-4,279.958,333/1000,65,124.4
2413,B-2,279.958,0.75,100,124.4
2414,G#5,280.208,0.25,69,124.4
2415,C2,280.458,0.75,100,124.4
2416,F5,280.458,0.25,69,124.4
2417,B-4,280.458,333/1000,65,124.4
2418,B-3,280.458,0.5,90,124.4
2419,E-2,280.458,0.5,90,124.4
2420,B-3,280.458,0.5,90,124.4
2421,G#3,280.458,0.5,90,124.4
2422,F3,280.458,0.5,90,124.4
2423,B-2,280.458,0.5,90,124.4
2424,E-2,280.458,0.5,90,124.4
2425,E-2,280.458,0.5,90,124.4
2426,F3,280.458,0.5,90,124.4
2427,B-2,280.458,0.5,90,124.4
2428,E-5,280.708,0.25,69,124.4
2429,B-4,280.958,333/1000,65,124.4
2430,C2,280.958,0.75,100,124.4
2431,E-6,280.958,0.25,69,124.4
2432,F3,280.958,2.0,92,124.4
2433,E-2,280.958,2.0,92,124.4
2434,B-3,280.958,2.0,92,124.4
2435,E-2,280.958,2.0,92,124.4
2436,E-2,280.958,2.0,92,124.4
2437,B-2,280.958,2.0,92,124.4
2438,B-2,280.958,2.0,92,124.4
2439,F3,280.958,2.0,92,124.4
2440,B-3,280.958,2.0,92,124.4
2441,B-5,281.208,0.25,69,124.4
2442,F5,281.458,0.25,69,124.4
2443,B-4,281.458,333/1000,65,124.4
2444,G#3,281.458,0.5,70,124.4
2445,E-5,281.708,0.25,69,124.4
2446,E-6,281.958,0.25,69,124.4
2447,B-2,281.958,0.75,100,124.4
2448,C#2,281.958,0.5,70,124.4
2449,B-4,281.958,333/1000,65,124.4
2450,B-5,282.208,0.25,69,124.4
2451,B-4,282.458,333/1000,65,124.4
2452,F5,282.458,0.25,69,124.4
2453,C5,282.458,0.5,95,124.4
2454,E-5,282.708,0.25,69,124.4
2455,C5,282.958,1.0,95,124.4
2456,C3,282.958,1.5,94,124.4
2457,G3,282.958,1.5,94,124.4
2458,C3,282.958,1.5,94,124.4
2459,G3,282.958,1.5,94,124.4
2460,C2,282.958,0.5,76,124.4
2461,C#2,282.958,0.5,76,124.4
2462,B-2,282.958,0.5,76,124.4
2463,E-3,282.958,4.0,88,124.4
2464,E-3,282.958,4.0,88,124.4
2465,C3,282.958,4.0,88,124.4
2466,F#2,283.458,0.25,50,124.4
2467,F#2,283.708,0.25,50,124.4
2468,C5,283.958,0.5,76,124.4
2469,C#2,283.958,0.5,76,124.4
2470,B-2,283.958,0.5,76,124.4
2471,F#2,284.458,0.25,50,124.4
2472,E-5,284.458,1.0,95,124.4
2473,C3,284.458,623/250,94,124.4
2474,G#3,284.458,623/250,94,124.4
2475,G#3,284.458,623/250,94,124.4
2476,C3,284.458,623/250,94,124.4
2477,F#2,284.708,0.25,50,124.4
2478,C#2,284.958,0.5,76,124.4
2479,B-2,284.958,0.5,76,124.4
2480,E-5,285.458,1.0,95,124.4
2481,F#2,285.458,0.25,50,124.4
2482,F#2,285.708,0.25,50,124.4
2483,C#2,285.958,0.5,76,124.4
2484,B-2,285.958,0.5,76,124.4
2485,F#2,286.458,0.25,50,124.4
2486,F5,286.458,0.5,95,124.4
2487,C2,286.458,0.5,95,124.4
2488,F#2,286.708,0.25,50,124.4
2489,F5,286.958,0.5,95,124.4
2490,B-3,286.958,373/250,94,124.4
2491,C3,286.958,373/250,94,124.4
2492,B-3,286.958,373/250,94,124.4
2493,C3,286.958,373/250,94,124.4
2494,C#2,286.958,0.5,76,124.4
2495,B-2,286.958,0.5,76,124.4
2496,C3,286.958,4.0,88,124.4
2497,E-3,286.958,4.0,88,124.4
2498,E-3,286.958,4.0,88,124.4
2499,F#2,287.458,0.25,50,124.4
2500,F5,287.458,1.5,95,124.4
2501,F#2,287.708,0.25,50,124.4
2502,B-2,287.958,0.5,76,124.4
2503,C#2,287.958,0.5,76,124.4
2504,F#2,288.458,0.25,50,124.4
2505,C3,288.458,2.5,94,124.4
2506,C3,288.458,2.5,94,124.4
2507,G#3,288.458,2.5,94,124.4
2508,G#3,288.458,2.5,94,124.4
2509,F#2,288.708,0.25,50,124.4
2510,B-2,288.958,0.5,76,124.4
2511,C#2,288.958,0.5,76,124.4
2512,F#2,289.458,0.25,50,124.4
2513,F#2,289.708,0.25,50,124.4
2514,B-2,289.958,0.5,76,124.4
2515,C#2,289.958,0.5,76,124.4
2516,F#2,290.458,0.25,50,124.4
2517,E-5,290.458,0.5,95,124.4
2518,C2,290.458,0.5,95,124.4
2519,F#2,290.708,0.25,50,124.4
2520,C3,290.958,373/250,94,124.4
2521,B-3,290.958,373/250,94,124.4
2522,B-3,290.958,373/250,94,124.4
2523,G5,290.958,373/250,94,124.4
2524,C3,290.958,373/250,94,124.4
2525,B-2,290.958,0.5,82,124.4
2526,C2,290.958,0.5,82,124.4
2527,C#2,290.958,0.5,82,124.4
2528,E-3,290.958,4.0,88,124.4
2529,C3,290.958,4.0,88,124.4
2530,E-3,290.958,4.0,88,124.4
2531,F#2,291.458,0.25,50,124.4
2532,F#2,291.708,0.25,50,124.4
2533,B-2,291.958,0.5,76,124.4
2534,C#2,291.958,0.5,76,124.4
2535,F#2,292.458,0.25,50,124.4
2536,F5,292.458,0.5,95,124.4
2537,G#3,292.458,623/250,94,124.4
2538,G#3,292.458,623/250,94,124.4
2539,C3,292.458,623/250,94,124.4
2540,C3,292.458,623/250,94,124.4
2541,F#2,292.708,0.25,50,124.4
2542,E-5,292.958,1.0,95,124.4
2543,B-2,292.958,0.5,76,124.4
2544,C#2,292.958,0.5,76,124.4
2545,F#2,293.458,0.25,50,124.4
2546,F#2,293.708,0.25,50,124.4
2547,C5,293.958,0.25,95,124.4
2548,B-2,293.958,0.5,76,124.4
2549,C#2,293.958,0.5,76,124.4
2550,C5,294.208,0.25,95,124.4
2551,C2,294.458,0.5,95,124.4
2552,C5,294.458,0.5,95,124.4
2553,F#2,294.458,0.25,50,124.4
2554,F#2,294.708,0.25,50,124.4
2555,C5,294.958,2.0,95,124.4
2556,B-2,294.958,4.0,88,124.4
2557,G3,294.958,4.0,88,124.4
2558,G3,294.958,4.0,88,124.4
2559,E-3,294.958,4.0,88,124.4
2560,C4,294.958,4.0,88,124.4
2561,E-3,294.958,4.0,88,124.4
2562,B-2,294.958,4.0,88,124.4
2563,G#2,294.958,4.0,88,124.4
2564,C4,294.958,4.0,88,124.4
2565,C#2,294.958,0.5,76,124.4
2566,B-2,294.958,0.5,76,124.4
2567,F#2,295.458,0.25,50,124.4
2568,F#2,295.708,0.25,50,124.4
2569,B-2,295.958,0.5,76,124.4
2570,C#2,295.958,0.5,76,124.4
2571,F#2,296.458,0.25,50,124.4
2572,F#2,296.708,0.25,50,124.4
2573,C#2,296.958,0.5,76,124.4
2574,B-2,296.958,0.5,76,124.4
2575,F#2,297.458,0.25,50,124.4
2576,F#2,297.708,0.25,50,124.4
2577,C#2,297.958,0.5,76,124.4
2578,B-2,297.958,0.5,76,124.4
2579,C5,298.208,0.25,95,124.4
2580,F#2,298.458,0.25,50,124.4
2581,C5,298.458,0.5,95,124.4
2582,C2,298.458,0.5,95,124.4
2583,F#2,298.708,0.25,50,124.4
2584,C5,298.958,1.0,95,124.4
2585,E-3,298.958,4.0,88,124.4
2586,C3,298.958,4.0,88,124.4
2587,E-3,298.958,4.0,88,124.4
2588,C3,298.958,1.5,94,124.4
2589,C3,298.958,1.5,94,124.4
2590,G3,298.958,1.5,94,124.4
2591,G3,298.958,1.5,94,124.4
2592,B-2,298.958,0.5,82,124.4
2593,C#2,298.958,0.5,82,124.4
2594,C2,298.958,0.5,82,124.4
2595,F#2,299.458,0.25,50,124.4
2596,F#2,299.708,0.25,50,124.4
2597,C5,299.958,0.5,82,124.4
2598,B-2,299.958,0.5,82,124.4
2599,C#2,299.958,0.5,82,124.4
2600,E-5,300.458,1.0,95,124.4
2601,F#2,300.458,0.25,50,124.4
2602,C3,300.458,623/250,94,124.4
2603,G#3,300.458,623/250,94,124.4
2604,G#3,300.458,623/250,94,124.4
2605,C3,300.458,623/250,94,124.4
2606,F#2,300.708,0.25,50,124.4
2607,C#2,300.958,0.5,76,124.4
2608,B-2,300.958,0.5,76,124.4
2609,F#2,301.458,0.25,50,124.4
2610,E-5,301.458,1.0,95,124.4
2611,F#2,301.708,0.25,50,124.4
2612,B-2,301.958,0.5,76,124.4
2613,C#2,301.958,0.5,76,124.4
2614,F5,302.458,0.5,95,124.4
2615,C2,302.458,0.5,95,124.4
2616,F#2,302.458,0.25,50,124.4
2617,F#2,302.708,0.25,50,124.4
2618,F5,302.958,0.5,95,124.4
2619,B-3,302.958,1.5,94,124.4
2620,C3,302.958,1.5,94,124.4
2621,C3,302.958,1.5,94,124.4
2622,B-3,302.958,1.5,94,124.4
2623,C#2,302.958,0.5,76,124.4
2624,B-2,302.958,0.5,76,124.4
2625,E-3,302.958,4.0,88,124.4
2626,C3,302.958,4.0,88,124.4
2627,E-3,302.958,4.0,88,124.4
2628,F5,303.458,1.5,95,124.4
2629,F#2,303.458,0.25,50,124.4
2630,F#2,303.708,0.25,50,124.4
2631,B-2,303.958,0.5,76,124.4
2632,C#2,303.958,0.5,76,124.4
2633,F#2,304.458,0.25,50,124.4
2634,G#3,304.458,623/250,94,124.4
2635,C3,304.458,623/250,94,124.4
2636,G#3,304.458,623/250,94,124.4
2637,C3,304.458,623/250,94,124.4
2638,F#2,304.708,0.25,50,124.4
2639,C#2,304.958,0.5,76,124.4
2640,B-2,304.958,0.5,76,124.4
2641,F#2,305.458,0.25,50,124.4
2642,F#2,305.708,0.25,50,124.4
2643,B-2,305.958,0.5,82,124.4
2644,C#2,305.958,0.5,82,124.4
2645,E-5,305.958,0.5,82,124.4
2646,F#2,306.458,0.25,50,124.4
2647,E-5,306.458,0.5,95,124.4
2648,C2,306.458,0.5,95,124.4
2649,F#2,306.708,0.25,50,124.4
2650,C2,306.958,0.5,100,124.4
2651,C#3,306.958,0.25,80,124.4
2652,G5,306.958,1.5,89,124.4
2653,B-2,306.958,1.5,89,124.4
2654,B-2,306.958,1.5,89,124.4
2655,F3,306.958,1.5,89,124.4
2656,F3,306.958,1.5,89,124.4
2657,B-2,306.958,1.5,89,124.4
2658,C3,306.958,1.5,89,124.4
2659,C3,306.958,1.5,89,124.4
2660,C2,307.458,0.25,103,124.4
2661,D2,307.458,0.25,103,124.4
2662,C3,307.458,0.25,103,124.4
2663,C2,307.958,0.25,103,124.4
2664,B2,307.958,0.25,103,124.4
2665,D2,307.958,0.25,103,124.4
2666,F5,308.458,1.0,95,124.4
2667,G#2,308.458,249/125,88,124.4
2668,B-2,308.458,249/125,88,124.4
2669,E-3,308.458,249/125,88,124.4
2670,G#2,308.458,249/125,88,124.4
2671,E-3,308.458,249/125,88,124.4
2672,B-2,308.458,249/125,88,124.4
2673,G#2,308.458,249/125,88,124.4
2674,C#3,308.458,0.25,90,124.4
2675,C2,308.458,0.25,90,124.4
2676,B2,308.708,0.25,100,124.4
2677,D2,308.958,0.25,105,124.4
2678,B2,308.958,0.25,105,124.4
2679,E-5,309.458,0.5,95,124.4
2680,C3,309.458,0.25,103,124.4
2681,D2,309.458,0.25,103,124.4
2682,C2,309.458,0.25,103,124.4
2683,B2,309.708,0.25,100,124.4
2684,G5,309.958,1.0,95,124.4
2685,B2,309.958,0.25,100,124.4
2686,C2,309.958,0.25,100,124.4
2687,C2,310.458,0.25,90,124.4
2688,C#3,310.458,0.25,90,124.4
2689,B-2,310.458,0.5,88,124.4
2690,F2,310.458,0.5,88,124.4
2691,F2,310.458,0.5,88,124.4
2692,E-2,310.458,0.5,88,124.4
2693,E-2,310.458,0.5,88,124.4
2694,E-2,310.458,0.5,88,124.4
2695,B-2,310.458,0.5,88,124.4
2696,C3,310.958,0.5,100,124.4
2697,G5,310.958,2.0,95,124.4
2698,B-2,310.958,373/250,88,124.4
2699,F2,310.958,373/250,88,124.4
2700,F2,310.958,373/250,88,124.4
2701,E-2,310.958,373/250,88,124.4
2702,E-2,310.958,373/250,88,124.4
2703,E-2,310.958,373/250,88,124.4
2704,B-2,310.958,373/250,88,124.4
2705,C2,311.458,0.25,100,124.4
2706,C3,311.458,0.25,100,124.4
2707,C3,311.708,0.5,100,124.4
2708,B2,311.958,0.25,100,124.4
2709,B2,312.208,0.25,100,124.4
2710,C2,312.458,0.25,100,124.4
2711,C#2,312.458,623/250,88,124.4
2712,C#2,312.458,623/250,88,124.4
2713,G#2,312.458,623/250,88,124.4
2714,C#2,312.458,623/250,88,124.4
2715,E-2,312.458,623/250,88,124.4
2716,E-2,312.458,623/250,88,124.4
2717,G#2,312.458,623/250,88,124.4
2718,C3,312.708,0.25,100,124.4
2719,C2,312.958,0.25,100,124.4
2720,D3,312.958,0.25,100,124.4
2721,D3,313.208,0.5,100,124.4
2722,D2,313.208,0.25,110,124.4
2723,D2,313.458,0.25,110,124.4
2724,D3,313.708,0.25,100,124.4
2725,F5,313.958,0.5,95,124.4
2726,C3,313.958,0.25,100,124.4
2727,C2,313.958,0.25,100,124.4
2728,C3,314.208,0.5,100,124.4
2729,E-5,314.458,0.5,95,124.4
2730,C2,314.458,0.25,100,124.4
2731,B2,314.458,0.25,100,124.4
2732,F4,314.958,0.25,69,124.4
2733,C#3,314.958,1.0,94,124.4
2734,F2,314.958,1.0,94,124.4
2735,F5,314.958,1.0,94,124.4
2736,G#2,314.958,4.0,94,124.4
2737,E-3,314.958,4.0,94,124.4
2738,F2,314.958,4.0,94,124.4
2739,B-3,314.958,4.0,94,124.4
2740,G#1,314.958,4.0,94,124.4
2741,G3,314.958,4.0,94,124.4
2742,E-3,314.958,0.5,90,124.4
2743,C2,314.958,0.5,90,124.4
2744,C5,315.208,0.25,69,124.4
2745,G5,315.458,0.25,69,124.4
2746,C5,315.708,0.25,69,124.4
2747,F4,315.958,0.25,69,124.4
2748,D2,315.958,0.5,95,124.4
2749,E-3,315.958,0.5,95,124.4
2750,F2,315.958,1.0,92,124.4
2751,F5,315.958,1.0,92,124.4
2752,C5,316.208,0.25,69,124.4
2753,G5,316.458,0.5,84,124.4
2754,C2,316.458,0.5,84,124.4
2755,F4,316.958,0.25,69,124.4
2756,F5,316.958,1.0,92,124.4
2757,F2,316.958,1.0,92,124.4
2758,C2,316.958,0.5,90,124.4
2759,E-3,316.958,0.5,90,124.4
2760,C5,317.208,0.25,69,124.4
2761,G5,317.458,0.25,69,124.4
2762,C5,317.708,0.25,69,124.4
2763,F4,317.958,0.25,69,124.4
2764,F2,317.958,1.0,88,124.4
2765,D2,317.958,0.5,95,124.4
2766,E-3,317.958,0.5,95,124.4
2767,C5,318.208,0.25,69,124.4
2768,G5,318.458,0.5,69,124.4
2769,G#4,318.958,0.25,69,124.4
2770,G#2,318.958,1.0,88,124.4
2771,C2,318.958,0.5,90,124.4
2772,E-3,318.958,0.5,90,124.4
2773,E-4,318.958,499/125,93,124.4
2774,E-3,318.958,499/125,93,124.4
2775,G#2,318.958,499/125,93,124.4
2776,B-3,318.958,499/125,93,124.4
2777,E-2,318.958,499/125,93,124.4
2778,E-5,319.208,0.25,69,124.4
2779,B-5,319.458,0.25,69,124.4
2780,E-5,319.708,0.25,69,124.4
2781,G#2,319.958,1.0,88,124.4
2782,G#4,319.958,0.25,69,124.4
2783,D2,319.958,0.5,95,124.4
2784,E-3,319.958,0.5,95,124.4
2785,E-5,320.208,0.25,69,124.4
2786,B-5,320.458,0.5,84,124.4
2787,C2,320.458,0.5,84,124.4
2788,G#2,320.958,1.0,88,124.4
2789,G#4,320.958,0.25,69,124.4
2790,C2,320.958,0.5,90,124.4
2791,E-3,320.958,0.5,90,124.4
2792,E-5,321.208,0.25,69,124.4
2793,B-5,321.458,0.25,69,124.4
2794,E-5,321.708,0.25,69,124.4
2795,G#2,321.958,1.0,88,124.4
2796,G#4,321.958,0.25,69,124.4
2797,E-3,321.958,0.5,95,124.4
2798,D2,321.958,0.5,95,124.4
2799,C5,321.958,0.5,95,124.4
2800,E-5,322.208,0.25,69,124.4
2801,B-5,322.458,0.5,82,124.4
2802,B-4,322.458,0.5,82,124.4
2803,E-5,322.958,0.25,69,124.4
2804,F5,322.958,1.0,92,124.4
2805,B-2,322.958,1.0,92,124.4
2806,E-3,322.958,0.5,90,124.4
2807,C2,322.958,0.5,90,124.4
2808,E-2,322.958,873/250,94,124.4
2809,F3,322.958,873/250,94,124.4
2810,B-2,322.958,873/250,94,124.4
2811,B-1,322.958,873/250,94,124.4
2812,B-5,323.208,0.25,69,124.4
2813,F6,323.458,0.25,69,124.4
2814,B-5,323.708,0.25,69,124.4
2815,E-5,323.958,0.25,69,124.4
2816,B-2,323.958,1.0,92,124.4
2817,F5,323.958,1.0,92,124.4
2818,E-3,323.958,0.5,95,124.4
2819,D2,323.958,0.5,95,124.4
2820,B-5,324.208,0.25,69,124.4
2821,F6,324.458,0.5,84,124.4
2822,C2,324.458,0.5,84,124.4
2823,B-2,324.958,1.5,88,124.4
2824,F5,324.958,1.0,95,124.4
2825,E-5,324.958,0.25,69,124.4
2826,E-3,324.958,0.5,90,124.4
2827,C2,324.958,0.5,90,124.4
2828,B-5,325.208,0.25,69,124.4
2829,F6,325.458,0.25,69,124.4
2830,B-5,325.708,0.25,69,124.4
2831,E-5,325.958,0.25,69,124.4
2832,E-3,325.958,0.5,95,124.4
2833,D2,325.958,0.5,95,124.4
2834,B-5,326.208,0.25,69,124.4
2835,F6,326.458,0.5,69,124.4
2836,C#2,326.458,0.5,93,124.4
2837,E-3,326.458,0.5,93,124.4
2838,G#1,326.458,0.5,93,124.4
2839,G#2,326.458,0.5,93,124.4
2840,C#2,326.458,0.5,93,124.4
2841,C#5,328.458,0.25,69,124.4
2842,C2,328.458,0.5,90,124.4
2843,E-3,328.458,0.5,90,124.4
2844,C#2,328.458,1.5,93,124.4
2845,E-3,328.458,1.5,93,124.4
2846,G#1,328.458,1.5,93,124.4
2847,G#2,328.458,1.5,93,124.4
2848,C#2,328.458,1.5,93,124.4
2849,G#5,328.708,0.25,69,124.4
2850,E-6,328.958,0.25,69,124.4
2851,G#5,329.208,0.25,69,124.4
2852,C#5,329.458,0.25,69,124.4
2853,E-3,329.458,0.5,95,124.4
2854,D2,329.458,0.5,95,124.4
2855,G#5,329.708,0.25,69,124.4
2856,B-1,329.958,0.5,92,124.4
2857,C2,329.958,0.5,92,124.4
2858,B-2,329.958,0.5,92,124.4
2859,E-6,329.958,0.5,92,124.4
2860,E-2,329.958,2.5,88,124.4
2861,E-2,329.958,2.5,88,124.4
2862,F3,329.958,2.5,88,124.4
2863,E-5,330.458,0.25,69,124.4
2864,B-1,330.458,249/125,100,124.4
2865,B-2,330.458,249/125,100,124.4
2866,C2,330.458,0.5,90,124.4
2867,E-3,330.458,0.5,90,124.4
2868,B-5,330.708,0.25,69,124.4
2869,F6,330.958,0.25,69,124.4
2870,G2,330.958,0.75,110,124.4
2871,B-5,331.208,0.25,69,124.4
2872,E-3,331.458,0.5,80,124.4
2873,E-5,331.458,0.25,90,124.4
2874,D2,331.458,0.25,90,124.4
2875,B-5,331.708,0.25,69,124.4
2876,F6,331.958,0.5,82,124.4
2877,C5,331.958,0.5,82,124.4
2878,F4,332.458,0.25,69,124.4
2879,E-3,332.458,0.5,90,124.4
2880,C2,332.458,0.5,90,124.4
2881,G#1,332.458,4.0,94,124.4
2882,F2,332.458,4.0,94,124.4
2883,G3,332.458,4.0,94,124.4
2884,G#2,332.458,4.0,94,124.4
2885,E-3,332.458,4.0,94,124.4
2886,B-3,332.458,4.0,94,124.4
2887,F2,332.458,1.0,92,124.4
2888,G#5,332.458,1.0,92,124.4
2889,C5,332.708,0.25,69,124.4
2890,G5,332.958,0.25,69,124.4
2891,C5,333.208,0.25,69,124.4
2892,F4,333.458,0.25,69,124.4
2893,F2,333.458,1.0,88,124.4
2894,D2,333.458,0.5,95,124.4
2895,E-3,333.458,0.5,95,124.4
2896,G#5,333.458,0.5,95,124.4
2897,C5,333.708,0.25,69,124.4
2898,F5,333.958,1.5,95,124.4
2899,G5,333.958,0.5,84,124.4
2900,C2,333.958,0.5,84,124.4
2901,F2,334.458,1.0,88,124.4
2902,F4,334.458,0.25,69,124.4
2903,E-3,334.458,0.5,90,124.4
2904,C2,334.458,0.5,90,124.4
2905,C5,334.708,0.25,69,124.4
2906,G5,334.958,0.25,69,124.4
2907,C5,335.208,0.25,69,124.4
2908,F2,335.458,1.0,88,124.4
2909,F4,335.458,0.25,69,124.4
2910,D2,335.458,0.5,95,124.4
2911,F5,335.458,0.5,95,124.4
2912,E-3,335.458,0.5,95,124.4
2913,C5,335.708,0.25,69,124.4
2914,G5,335.958,0.5,69,124.4
2915,E-5,335.958,0.5,95,124.4
2916,G#4,336.458,0.25,69,124.4
2917,G#2,336.458,1.0,88,124.4
2918,E-5,336.458,0.5,95,124.4
2919,B-3,336.458,499/125,93,124.4
2920,E-4,336.458,499/125,93,124.4
2921,G#2,336.458,499/125,93,124.4
2922,E-3,336.458,499/125,93,124.4
2923,E-2,336.458,499/125,93,124.4
2924,C2,336.458,0.5,90,124.4
2925,E-3,336.458,0.5,90,124.4
2926,E-5,336.708,0.25,69,124.4
2927,B-5,336.958,0.25,69,124.4
2928,E-5,336.958,0.5,95,124.4
2929,E-5,337.208,0.25,69,124.4
2930,G#2,337.458,1.0,88,124.4
2931,G#4,337.458,0.25,69,124.4
2932,E-3,337.458,0.5,95,124.4
2933,D2,337.458,0.5,95,124.4
2934,C5,337.458,0.5,95,124.4
2935,E-5,337.708,0.25,69,124.4
2936,C5,337.958,0.5,88,124.4
2937,C2,337.958,0.5,88,124.4
2938,B-5,337.958,0.5,88,124.4
2939,G#4,338.458,0.25,69,124.4
2940,C2,338.458,0.5,90,124.4
2941,E-3,338.458,0.5,90,124.4
2942,E-5,338.458,1.0,92,124.4
2943,G#2,338.458,1.0,92,124.4
2944,E-5,338.708,0.25,69,124.4
2945,B-5,338.958,0.25,69,124.4
2946,E-5,339.208,0.25,69,124.4
2947,G#4,339.458,0.25,69,124.4
2948,G#2,339.458,1.0,88,124.4
2949,C5,339.458,0.5,95,124.4
2950,E-3,339.458,0.5,95,124.4
2951,D2,339.458,0.5,95,124.4
2952,E-5,339.708,0.25,69,124.4
2953,E-5,339.958,0.5,95,124.4
2954,B-5,339.958,0.5,69,124.4
2955,E-5,340.458,0.25,69,124.4
2956,B-2,340.458,1.0,88,124.4
2957,E-5,340.458,0.5,95,124.4
2958,C2,340.458,0.5,90,124.4
2959,E-3,340.458,0.5,90,124.4
2960,B-1,340.458,3.5,94,124.4
2961,F3,340.458,3.5,94,124.4
2962,B-2,340.458,3.5,94,124.4
2963,E-2,340.458,3.5,94,124.4
2964,B-5,340.708,0.25,69,124.4
2965,C5,340.958,1.0,95,124.4
2966,F6,340.958,0.25,69,124.4
2967,B-5,341.208,0.25,69,124.4
2968,B-2,341.458,1.0,88,124.4
2969,E-5,341.458,0.25,69,124.4
2970,E-3,341.458,0.5,95,124.4
2971,D2,341.458,0.5,95,124.4
2972,B-5,341.708,0.25,69,124.4
2973,B-4,341.958,1.0,95,124.4
2974,F6,341.958,0.5,84,124.4
2975,C2,341.958,0.5,84,124.4
2976,B-2,342.458,1.5,88,124.4
2977,E-5,342.458,0.25,69,124.4
2978,E-3,342.458,0.5,90,124.4
2979,C2,342.458,0.5,90,124.4
2980,B-5,342.708,0.25,69,124.4
2981,F4,342.958,1.5,95,124.4
2982,F6,342.958,0.25,69,124.4
2983,B-5,343.208,0.25,69,124.4
2984,E-5,343.458,0.25,69,124.4
2985,E-3,343.458,0.5,95,124.4
2986,D2,343.458,0.5,95,124.4
2987,B-5,343.708,0.25,69,124.4
2988,F6,343.958,0.5,69,124.4
2989,C#2,343.958,0.5,93,124.4
2990,G#2,343.958,0.5,93,124.4
2991,G#1,343.958,0.5,93,124.4
2992,C#2,343.958,0.5,93,124.4
2993,E-3,343.958,0.5,93,124.4
2994,C#5,345.958,0.25,69,124.4
2995,C2,345.958,0.5,90,124.4
2996,E-3,345.958,0.5,90,124.4
2997,C#2,345.958,1.5,93,124.4
2998,G#2,345.958,1.5,93,124.4
2999,G#1,345.958,1.5,93,124.4
3000,C#2,345.958,1.5,93,124.4
3001,E-3,345.958,1.5,93,124.4
3002,G#5,346.208,0.25,69,124.4
3003,E-6,346.458,0.25,69,124.4
3004,G#5,346.708,0.25,69,124.4
3005,C#5,346.958,0.25,69,124.4
3006,E-3,346.958,0.5,95,124.4
3007,D2,346.958,0.5,95,124.4
3008,G#5,347.208,0.25,69,124.4
3009,B-2,347.458,0.5,92,124.4
3010,C2,347.458,0.5,92,124.4
3011,B-1,347.458,0.5,92,124.4
3012,E-6,347.458,0.5,92,124.4
3013,F3,347.458,2.5,88,124.4
3014,E-2,347.458,2.5,88,124.4
3015,E-2,347.458,2.5,88,124.4
3016,E-5,347.958,0.25,69,124.4
3017,B-1,347.958,249/125,100,124.4
3018,B-2,347.958,249/125,100,124.4
3019,E-3,347.958,0.5,90,124.4
3020,C2,347.958,0.5,90,124.4
3021,B-5,348.208,0.25,69,124.4
3022,F6,348.458,0.25,69,124.4
3023,C3,348.458,0.5,100,124.4
3024,B2,348.458,0.5,100,124.4
3025,B-5,348.708,0.25,69,124.4
3026,B2,348.708,0.5,100,124.4
3027,C3,348.708,0.5,100,124.4
3028,E-5,348.958,0.25,69,124.4
3029,C5,348.958,0.5,95,124.4
3030,E-3,348.958,0.5,95,124.4
3031,D2,348.958,0.5,95,124.4
3032,B-5,349.208,0.25,69,124.4
3033,G2,349.458,0.5,91,124.4
3034,A2,349.458,0.5,91,124.4
3035,F6,349.458,0.5,91,124.4
3036,E-5,349.458,0.5,91,124.4
3037,F4,349.958,0.25,69,124.4
3038,F2,349.958,1.0,88,124.4
3039,G3,349.958,117/1000,100,124.4
3040,F2,349.958,499/125,94,124.4
3041,B-3,349.958,499/125,94,124.4
3042,G#1,349.958,499/125,94,124.4
3043,G3,349.958,499/125,94,124.4
3044,E-3,349.958,499/125,94,124.4
3045,G#2,349.958,499/125,94,124.4
3046,F5,349.958,0.5,92,124.4
3047,E-3,349.958,0.5,92,124.4
3048,C2,349.958,0.5,92,124.4
3049,C5,350.208,0.25,69,124.4
3050,F5,350.458,0.5,95,124.4
3051,G5,350.458,0.25,69,124.4
3052,C5,350.708,0.25,69,124.4
3053,F2,350.958,1.0,88,124.4
3054,F4,350.958,0.25,69,124.4
3055,E-3,350.958,0.5,95,124.4
3056,D2,350.958,0.5,95,124.4
3057,F5,350.958,0.5,95,124.4
3058,C5,351.208,0.25,69,124.4
3059,G5,351.458,0.5,88,124.4
3060,E-5,351.458,0.5,88,124.4
3061,C2,351.458,0.5,88,124.4
3062,F4,351.958,0.25,69,124.4
3063,E-3,351.958,0.5,90,124.4
3064,C2,351.958,0.5,90,124.4
3065,F5,351.958,1.0,92,124.4
3066,F2,351.958,1.0,92,124.4
3067,C5,352.208,0.25,69,124.4
3068,G5,352.458,0.25,69,124.4
3069,C5,352.708,0.25,69,124.4
3070,F4,352.958,0.25,69,124.4
3071,F2,352.958,0.5,93,124.4
3072,E-3,352.958,0.5,93,124.4
3073,D2,352.958,0.5,93,124.4
3074,C5,353.208,0.25,69,124.4
3075,G#2,353.458,0.5,78,124.4
3076,G5,353.458,0.5,78,124.4
3077,G#2,353.958,1.0,88,124.4
3078,G#4,353.958,0.25,69,124.4
3079,E-2,353.958,4.0,93,124.4
3080,B-3,353.958,4.0,93,124.4
3081,E-4,353.958,4.0,93,124.4
3082,E-3,353.958,4.0,93,124.4
3083,G#2,353.958,4.0,93,124.4
3084,E-3,353.958,0.5,90,124.4
3085,C2,353.958,0.5,90,124.4
3086,E-5,354.208,0.25,69,124.4
3087,B-5,354.458,0.25,69,124.4
3088,E-5,354.708,0.25,69,124.4
3089,G#2,354.958,1.0,88,124.4
3090,G#4,354.958,0.25,69,124.4
3091,E-3,354.958,0.5,95,124.4
3092,D2,354.958,0.5,95,124.4
3093,E-5,355.208,0.25,69,124.4
3094,C2,355.458,0.5,84,124.4
3095,B-5,355.458,0.5,84,124.4
3096,G#2,355.958,1.0,88,124.4
3097,G#4,355.958,0.25,69,124.4
3098,C2,355.958,0.5,90,124.4
3099,E-3,355.958,0.5,90,124.4
3100,E-5,356.208,0.25,69,124.4
3101,B-5,356.458,0.25,69,124.4
3102,E-5,356.708,0.25,69,124.4
3103,G#4,356.958,0.25,69,124.4
3104,G#2,356.958,1.0,88,124.4
3105,D2,356.958,0.5,95,124.4
3106,C5,356.958,0.5,95,124.4
3107,E-3,356.958,0.5,95,124.4
3108,E-5,357.208,0.25,69,124.4
3109,B-5,357.458,0.5,82,124.4
3110,E-5,357.458,0.5,82,124.4
3111,E-5,357.958,0.25,69,124.4
3112,B-2,357.958,1.0,88,124.4
3113,B-1,357.958,3.5,94,124.4
3114,B-2,357.958,3.5,94,124.4
3115,F3,357.958,3.5,94,124.4
3116,E-2,357.958,3.5,94,124.4
3117,E-3,357.958,0.5,92,124.4
3118,F5,357.958,0.5,92,124.4
3119,C2,357.958,0.5,92,124.4
3120,B-5,358.208,0.25,69,124.4
3121,F5,358.458,0.5,95,124.4
3122,F6,358.458,0.25,69,124.4
3123,B-5,358.708,0.25,69,124.4
3124,B-2,358.958,1.0,88,124.4
3125,E-5,358.958,0.25,69,124.4
3126,F5,358.958,0.5,95,124.4
3127,E-3,358.958,0.5,95,124.4
3128,D2,358.958,0.5,95,124.4
3129,B-5,359.208,0.25,69,124.4
3130,F6,359.458,0.5,88,124.4
3131,C2,359.458,0.5,88,124.4
3132,F5,359.458,0.5,88,124.4
3133,E-5,359.958,0.25,69,124.4
3134,B-2,359.958,1.5,88,124.4
3135,E-5,359.958,1.0,95,124.4
3136,E-3,359.958,0.5,90,124.4
3137,C2,359.958,0.5,90,124.4
3138,B-5,360.208,0.25,69,124.4
3139,F6,360.458,0.25,69,124.4
3140,B-5,360.708,0.25,69,124.4
3141,E-5,360.958,0.25,69,124.4
3142,D2,360.958,0.5,95,124.4
3143,C5,360.958,0.5,95,124.4
3144,E-3,360.958,0.5,95,124.4
3145,B-5,361.208,0.25,69,124.4
3146,F6,361.458,0.5,69,124.4
3147,B-4,361.458,0.5,95,124.4
3148,E-3,361.458,0.5,93,124.4
3149,G#1,361.458,0.5,93,124.4
3150,G#2,361.458,0.5,93,124.4
3151,C#2,361.458,0.5,93,124.4
3152,C#2,361.458,0.5,93,124.4
3153,C#5,363.458,0.25,69,124.4
3154,B-4,363.458,0.5,95,124.4
3155,C2,363.458,0.5,90,124.4
3156,E-3,363.458,0.5,90,124.4
3157,E-3,363.458,1.5,93,124.4
3158,G#1,363.458,1.5,93,124.4
3159,G#2,363.458,1.5,93,124.4
3160,C#2,363.458,1.5,93,124.4
3161,C#2,363.458,1.5,93,124.4
3162,G#5,363.708,0.25,69,124.4
3163,C3,363.958,0.5,100,124.4
3164,E-6,363.958,0.25,82,124.4
3165,B-4,363.958,0.25,82,124.4
3166,G#5,364.208,0.25,82,124.4
3167,G#4,364.208,0.25,82,124.4
3168,C#5,364.458,0.25,69,124.4
3169,F4,364.458,1.0,95,124.4
3170,E-3,364.458,0.5,95,124.4
3171,D2,364.458,0.5,95,124.4
3172,G#5,364.708,0.25,69,124.4
3173,F3,364.958,2.0,88,124.4
3174,E-2,364.958,2.0,88,124.4
3175,E-2,364.958,2.0,88,124.4
3176,G3,364.958,123/250,90,124.4
3177,B-2,364.958,123/250,90,124.4
3178,E-6,364.958,123/250,90,124.4
3179,C2,364.958,123/250,90,124.4
3180,B-1,364.958,123/250,90,124.4
3181,E-5,365.458,0.25,69,124.4
3182,E-3,365.458,0.5,90,124.4
3183,C2,365.458,0.5,90,124.4
3184,B-2,365.458,373/250,100,124.4
3185,B-1,365.458,373/250,100,124.4
3186,B-5,365.708,0.25,69,124.4
3187,F6,365.958,0.25,69,124.4
3188,C5,365.958,0.5,98,124.4
3189,C3,365.958,0.5,98,124.4
3190,B-5,366.208,0.25,69,124.4
3191,E-5,366.458,0.25,69,124.4
3192,A3,366.458,1.0,100,124.4
3193,B-4,366.458,0.5,92,124.4
3194,B2,366.458,0.5,92,124.4
3195,E-3,366.458,0.5,92,124.4
3196,B-5,366.708,0.25,69,124.4
3197,G3,366.958,0.5,100,124.4
3198,F1,366.958,0.5,93,124.4
3199,F1,366.958,0.5,93,124.4
3200,E-3,366.958,0.5,93,124.4
3201,B-3,366.958,0.5,93,124.4
3202,F2,366.958,0.5,93,124.4
3203,F4,366.958,0.5,93,124.4
3204,C4,366.958,0.5,93,124.4
3205,G#4,366.958,0.5,82,124.4
3206,E-6,366.958,0.5,82,124.4
3207,B-4,375.45,333/1000,65,124.4
3208,A3,375.45,117/1000,100,124.4
3209,F4,375.45,1.0,95,124.4
3210,C2,375.45,0.75,100,124.4
3211,G3,375.45,0.5,100,124.4
3212,F1,375.45,999/125,93,124.4
3213,F1,375.45,999/125,93,124.4
3214,E-3,375.45,999/125,93,124.4
3215,B-3,375.45,999/125,93,124.4
3216,F2,375.45,999/125,93,124.4
3217,F4,375.45,999/125,93,124.4
3218,C4,375.45,999/125,93,124.4
3219,F2,375.95,0.5,105,124.4
3220,D2,375.95,117/1000,40,124.4
3221,B-4,375.95,333/1000,65,124.4
3222,F2,376.45,0.5,105,124.4
3223,B-4,376.45,333/1000,65,124.4
3224,D2,376.45,117/1000,47,124.4
3225,B-4,376.95,333/1000,65,124.4
3226,D2,376.95,117/1000,54,124.4
3227,F2,376.95,0.5,105,124.4
3228,B-4,377.45,333/1000,65,124.4
3229,F2,377.45,0.5,105,124.4
3230,D2,377.45,117/1000,61,124.4
3231,B-4,377.95,333/1000,65,124.4
3232,D2,377.95,117/1000,68,124.4
3233,G#2,377.95,0.5,105,124.4
3234,G2,378.45,0.5,105,124.4
3235,D2,378.45,117/1000,75,124.4
3236,B-4,378.45,333/1000,65,124.4
3237,C2,378.95,0.5,100,124.4
3238,B-4,378.95,333/1000,65,124.4
3239,F2,378.95,0.5,105,124.4
3240,F2,378.95,117/1000,82,124.4
3241,B-2,383.442,0.5,105,124.4
3242,F2,383.442,117/1000,89,124.4
3243,B-4,383.442,333/1000,65,124.4
3244,C2,383.442,0.25,100,124.4
3245,G2,383.942,117/1000,96,124.4
3246,B-4,383.942,333/1000,65,124.4
3247,F2,383.942,0.5,105,124.4
3248,G2,384.442,117/1000,103,124.4
3249,G#2,384.442,0.5,105,124.4
3250,B-4,384.442,333/1000,65,124.4
3251,B-4,384.942,333/1000,65,124.4
3252,F2,384.942,0.5,105,124.4
3253,A2,384.942,117/1000,110,124.4
3254,D2,385.442,117/1000,117,124.4
3255,B-4,385.442,333/1000,65,124.4
3256,E-2,385.442,0.5,105,124.4
3257,D2,385.692,117/1000,117,124.4
3258,C2,385.942,0.5,105,124.4
3259,D2,385.942,117/1000,117,124.4
3260,B-4,385.942,333/1000,65,124.4
3261,D2,386.192,117/1000,117,124.4
3262,B-4,386.442,333/1000,65,124.4
3263,E-2,386.442,0.5,105,124.4
3264,D2,386.442,117/1000,115,124.4
3265,A2,386.442,117/1000,115,124.4
3266,F2,386.942,0.5,105,124.4
3267,B-4,386.942,333/1000,65,124.4
3268,A2,386.942,117/1000,115,124.4
3269,B2,386.942,117/1000,115,124.4
3270,F2,387.442,1.0,88,124.4
3271,C2,387.442,0.5,95,124.4
3272,E-3,387.442,4.0,82,124.4
3273,C4,387.442,4.0,82,124.4
3274,B-3,387.442,4.0,82,124.4
3275,C4,387.442,4.0,82,124.4
3276,B-3,387.442,4.0,82,124.4
3277,E-3,387.442,4.0,82,124.4
3278,E-3,387.442,117/1000,100,124.4
3279,C#3,387.442,117/1000,100,124.4
3280,D1,388.442,0.5,101,124.4
3281,F2,388.442,1.0,88,124.4
3282,E-3,388.442,117/1000,100,124.4
3283,D2,388.442,117/1000,100,124.4
3284,C2,388.942,0.5,95,124.4
3285,E-3,389.442,117/1000,100,124.4
3286,C2,389.442,0.5,95,124.4
3287,F2,389.442,1.0,88,124.4
3288,D1,390.442,0.5,101,124.4
3289,F2,390.442,1.0,88,124.4
3290,D2,390.442,117/1000,100,124.4
3291,E-3,390.442,117/1000,100,124.4
3292,C2,391.442,0.5,95,124.4
3293,G#2,391.442,1.0,88,124.4
3294,E-3,391.442,117/1000,100,124.4
3295,E-4,391.442,4.0,82,124.4
3296,E-3,391.442,4.0,82,124.4
3297,B-3,391.442,4.0,82,124.4
3298,E-4,391.442,4.0,82,124.4
3299,E-3,391.442,4.0,82,124.4
3300,B-3,391.442,4.0,82,124.4
3301,D1,392.442,0.5,101,124.4
3302,G#2,392.442,1.0,88,124.4
3303,E-3,392.442,117/1000,100,124.4
3304,D2,392.442,117/1000,100,124.4
3305,C2,392.942,0.5,95,124.4
3306,G#2,393.442,1.0,88,124.4
3307,C2,393.442,0.5,95,124.4
3308,E-3,393.442,117/1000,100,124.4
3309,D1,394.442,0.5,101,124.4
3310,G#2,394.442,1.0,88,124.4
3311,D2,394.442,117/1000,100,124.4
3312,E-3,394.442,117/1000,100,124.4
3313,C2,395.442,0.5,95,124.4
3314,B-2,395.442,1.0,88,124.4
3315,E-3,395.442,117/1000,100,124.4
3316,C4,395.442,4.0,82,124.4
3317,F4,395.442,4.0,82,124.4
3318,F4,395.442,4.0,82,124.4
3319,F3,395.442,4.0,82,124.4
3320,F3,395.442,4.0,82,124.4
3321,C4,395.442,4.0,82,124.4
3322,B-2,396.442,1.0,88,124.4
3323,D1,396.442,0.5,101,124.4
3324,E-3,396.442,117/1000,100,124.4
3325,D2,396.442,117/1000,100,124.4
3326,C2,396.942,0.5,95,124.4
3327,B-2,397.442,1.0,88,124.4
3328,C2,397.442,0.5,95,124.4
3329,E-3,397.442,117/1000,100,124.4
3330,D1,398.442,0.5,101,124.4
3331,B-2,398.442,1.0,88,124.4
3332,E-3,398.442,117/1000,100,124.4
3333,D2,398.442,117/1000,100,124.4
3334,C2,399.442,0.5,95,124.4
3335,E-3,399.442,117/1000,100,124.4
3336,C#2,399.442,1.0,88,124.4
3337,G#4,399.442,2.0,82,124.4
3338,E-4,399.442,2.0,82,124.4
3339,G#2,399.442,2.0,82,124.4
3340,G#2,399.442,2.0,82,124.4
3341,G#4,399.442,2.0,82,124.4
3342,E-4,399.442,2.0,82,124.4
3343,C#2,400.442,1.0,88,124.4
3344,D1,400.442,0.5,101,124.4
3345,E-3,400.442,117/1000,100,124.4
3346,D2,400.442,117/1000,100,124.4
3347,C2,400.942,0.5,95,124.4
3348,C2,401.442,0.5,95,124.4
3349,E-2,401.442,1.0,88,124.4
3350,D2,401.442,117/1000,100,124.4
3351,E-3,401.442,117/1000,100,124.4
3352,F4,401.442,2.0,82,124.4
3353,B-4,401.442,2.0,82,124.4
3354,B-2,401.442,2.0,82,124.4
3355,F4,401.442,2.0,82,124.4
3356,B-2,401.442,2.0,82,124.4
3357,B-4,401.442,2.0,82,124.4
3358,D2,401.692,117/1000,100,124.4
3359,D2,401.942,117/1000,100,124.4
3360,D1,402.442,0.5,101,124.4
3361,E-2,402.442,1.0,88,124.4
3362,E-3,402.442,117/1000,100,124.4
3363,D2,402.442,117/1000,100,124.4
3364,D2,402.942,117/1000,100,124.4
3365,D2,403.192,117/1000,100,124.4
3366,F2,403.442,1.0,88,124.4
3367,C2,403.442,0.5,95,124.4
3368,C4,403.442,4.0,82,124.4
3369,E-3,403.442,4.0,82,124.4
3370,E-3,403.442,4.0,82,124.4
3371,B-3,403.442,4.0,82,124.4
3372,C4,403.442,4.0,82,124.4
3373,B-3,403.442,4.0,82,124.4
3374,C#3,403.442,117/1000,100,124.4
3375,E-3,403.442,117/1000,100,124.4
3376,F2,404.442,1.0,88,124.4
3377,D1,404.442,0.5,101,124.4
3378,E-3,404.442,117/1000,100,124.4
3379,D2,404.442,117/1000,100,124.4
3380,C2,404.942,0.5,95,124.4
3381,F2,405.442,1.0,88,124.4
3382,E-3,405.442,117/1000,100,124.4
3383,C2,405.442,0.5,95,124.4
3384,F2,406.442,1.0,88,124.4
3385,D1,406.442,0.5,101,124.4
3386,D2,406.442,117/1000,100,124.4
3387,E-3,406.442,117/1000,100,124.4
3388,G#2,407.442,1.0,88,124.4
3389,C2,407.442,0.5,95,124.4
3390,E-3,407.442,117/1000,100,124.4
3391,B-3,407.442,4.0,82,124.4
3392,B-3,407.442,4.0,82,124.4
3393,E-4,407.442,4.0,82,124.4
3394,E-3,407.442,4.0,82,124.4
3395,E-4,407.442,4.0,82,124.4
3396,E-3,407.442,4.0,82,124.4
3397,D1,408.442,0.5,101,124.4
3398,G#2,408.442,1.0,88,124.4
3399,E-3,408.442,117/1000,100,124.4
3400,D2,408.442,117/1000,100,124.4
3401,C2,408.942,0.5,95,124.4
3402,G#2,409.442,1.0,88,124.4
3403,C2,409.442,0.5,95,124.4
3404,E-3,409.442,117/1000,100,124.4
3405,G#2,410.442,1.0,88,124.4
3406,D1,410.442,0.5,101,124.4
3407,E-3,410.442,117/1000,100,124.4
3408,D2,410.442,117/1000,100,124.4
3409,E-3,411.442,117/1000,100,124.4
3410,C2,411.442,0.5,95,124.4
3411,B-2,411.442,1.0,88,124.4
3412,F3,411.442,4.0,82,124.4
3413,F3,411.442,4.0,82,124.4
3414,C4,411.442,4.0,82,124.4
3415,F4,411.442,4.0,82,124.4
3416,F4,411.442,4.0,82,124.4
3417,C4,411.442,4.0,82,124.4
3418,B-2,412.442,1.0,88,124.4
3419,D1,412.442,0.5,101,124.4
3420,D2,412.442,117/1000,100,124.4
3421,E-3,412.442,117/1000,100,124.4
3422,C2,412.942,0.5,95,124.4
3423,E-3,413.442,117/1000,100,124.4
3424,B-2,413.442,1.0,88,124.4
3425,C2,413.442,0.5,95,124.4
3426,D1,414.442,0.5,101,124.4
3427,B-2,414.442,1.0,88,124.4
3428,D2,414.442,117/1000,100,124.4
3429,E-3,414.442,117/1000,100,124.4
3430,C#2,415.442,1.0,88,124.4
3431,C2,415.442,0.5,95,124.4
3432,E-3,415.442,117/1000,100,124.4
3433,G#4,415.442,2.0,82,124.4
3434,G#4,415.442,2.0,82,124.4
3435,E-4,415.442,2.0,82,124.4
3436,G#2,415.442,2.0,82,124.4
3437,G#2,415.442,2.0,82,124.4
3438,E-4,415.442,2.0,82,124.4
3439,C#2,416.442,1.0,88,124.4
3440,D1,416.442,0.5,101,124.4
3441,E-3,416.442,117/1000,100,124.4
3442,D2,416.442,117/1000,100,124.4
3443,C2,416.942,0.5,95,124.4
3444,C2,417.442,0.5,95,124.4
3445,E-2,417.442,1.0,88,124.4
3446,E-3,417.442,117/1000,100,124.4
3447,B-2,417.442,2.0,82,124.4
3448,B-4,417.442,2.0,82,124.4
3449,B-4,417.442,2.0,82,124.4
3450,F4,417.442,2.0,82,124.4
3451,B-2,417.442,2.0,82,124.4
3452,F4,417.442,2.0,82,124.4
3453,C3,417.942,117/1000,100,124.4
3454,D3,417.942,117/1000,100,124.4
3455,E-2,418.442,1.0,88,124.4
3456,D1,418.442,0.5,101,124.4
3457,E-3,418.442,117/1000,100,124.4
3458,C3,418.442,117/1000,100,124.4
3459,B2,418.442,117/1000,100,124.4
3460,C5,418.942,0.5,95,124.4
3461,A2,418.942,117/1000,100,124.4
3462,B2,418.942,117/1000,100,124.4
3463,C5,419.442,1.0,95,124.4
3464,E-3,419.442,4.0,88,124.4
3465,C3,419.442,4.0,88,124.4
3466,E-3,419.442,4.0,88,124.4
3467,C3,419.442,1.5,94,124.4
3468,C3,419.442,1.5,94,124.4
3469,G3,419.442,1.5,94,124.4
3470,G3,419.442,1.5,94,124.4
3471,B-2,419.442,0.5,76,124.4
3472,C#2,419.442,0.5,76,124.4
3473,C2,419.442,0.5,76,124.4
3474,F#2,419.942,0.25,50,124.4
3475,F#2,420.192,0.25,50,124.4
3476,C#2,420.442,0.5,76,124.4
3477,C5,420.442,0.5,76,124.4
3478,B-2,420.442,0.5,76,124.4
3479,E-5,420.942,1.0,95,124.4
3480,F#2,420.942,0.25,50,124.4
3481,G#3,420.942,623/250,94,124.4
3482,G#3,420.942,623/250,94,124.4
3483,C3,420.942,623/250,94,124.4
3484,C3,420.942,623/250,94,124.4
3485,F#2,421.192,0.25,50,124.4
3486,C#2,421.442,0.5,76,124.4
3487,B-2,421.442,0.5,76,124.4
3488,E-5,421.942,1.0,95,124.4
3489,F#2,421.942,0.25,50,124.4
3490,F#2,422.192,0.25,50,124.4
3491,B-2,422.442,0.5,76,124.4
3492,C#2,422.442,0.5,76,124.4
3493,C2,422.942,0.5,95,124.4
3494,F5,422.942,0.5,95,124.4
3495,F#2,422.942,0.25,50,124.4
3496,F#2,423.192,0.25,50,124.4
3497,F5,423.442,0.5,95,124.4
3498,E-3,423.442,4.0,88,124.4
3499,C3,423.442,4.0,88,124.4
3500,E-3,423.442,4.0,88,124.4
3501,B-3,423.442,373/250,94,124.4
3502,C3,423.442,373/250,94,124.4
3503,B-3,423.442,373/250,94,124.4
3504,C3,423.442,373/250,94,124.4
3505,B-2,423.442,0.5,76,124.4
3506,C#2,423.442,0.5,76,124.4
3507,F#2,423.942,0.25,50,124.4
3508,F5,423.942,1.5,95,124.4
3509,F#2,424.192,0.25,50,124.4
3510,B-2,424.442,0.5,76,124.4
3511,C#2,424.442,0.5,76,124.4
3512,F#2,424.942,0.25,50,124.4
3513,G#3,424.942,2.5,94,124.4
3514,C3,424.942,2.5,94,124.4
3515,C3,424.942,2.5,94,124.4
3516,G#3,424.942,2.5,94,124.4
3517,F#2,425.192,0.25,50,124.4
3518,B-2,425.442,0.5,76,124.4
3519,C#2,425.442,0.5,76,124.4
3520,F#2,425.942,0.25,50,124.4
3521,F#2,426.192,0.25,50,124.4
3522,B-2,426.442,0.5,76,124.4
3523,C#2,426.442,0.5,76,124.4
3524,F#2,426.942,0.25,50,124.4
3525,C2,426.942,0.5,95,124.4
3526,E-5,426.942,0.5,95,124.4
3527,F#2,427.192,0.25,50,124.4
3528,B-3,427.442,1.5,94,124.4
3529,C3,427.442,1.5,94,124.4
3530,G5,427.442,1.5,94,124.4
3531,C3,427.442,1.5,94,124.4
3532,B-3,427.442,1.5,94,124.4
3533,C2,427.442,0.5,82,124.4
3534,B-2,427.442,0.5,82,124.4
3535,C#2,427.442,0.5,82,124.4
3536,C3,427.442,4.0,88,124.4
3537,E-3,427.442,4.0,88,124.4
3538,E-3,427.442,4.0,88,124.4
3539,F#2,427.942,0.25,50,124.4
3540,F#2,428.192,0.25,50,124.4
3541,B-2,428.442,0.5,76,124.4
3542,C#2,428.442,0.5,76,124.4
3543,F5,428.942,0.5,95,124.4
3544,F#2,428.942,0.25,50,124.4
3545,C3,428.942,623/250,94,124.4
3546,G#3,428.942,623/250,94,124.4
3547,G#3,428.942,623/250,94,124.4
3548,C3,428.942,623/250,94,124.4
3549,F#2,429.192,0.25,50,124.4
3550,E-5,429.442,1.0,95,124.4
3551,C#2,429.442,0.5,76,124.4
3552,B-2,429.442,0.5,76,124.4
3553,F#2,429.942,0.25,50,124.4
3554,F#2,430.192,0.25,50,124.4
3555,C5,430.442,0.25,95,124.4
3556,B-2,430.442,0.5,76,124.4
3557,C#2,430.442,0.5,76,124.4
3558,C5,430.692,0.25,95,124.4
3559,C5,430.942,0.5,95,124.4
3560,F#2,430.942,0.25,50,124.4
3561,C2,430.942,0.5,95,124.4
3562,F#2,431.192,0.25,50,124.4
3563,C5,431.442,2.0,95,124.4
3564,C4,431.442,4.0,88,124.4
3565,B-2,431.442,4.0,88,124.4
3566,G#2,431.442,4.0,88,124.4
3567,B-2,431.442,4.0,88,124.4
3568,G3,431.442,4.0,88,124.4
3569,G3,431.442,4.0,88,124.4
3570,C4,431.442,4.0,88,124.4
3571,E-3,431.442,4.0,88,124.4
3572,E-3,431.442,4.0,88,124.4
3573,C#2,431.442,0.5,76,124.4
3574,B-2,431.442,0.5,76,124.4
3575,F#2,431.942,0.25,50,124.4
3576,F#2,432.192,0.25,50,124.4
3577,C#2,432.442,0.5,76,124.4
3578,B-2,432.442,0.5,76,124.4
3579,F#2,432.942,0.25,50,124.4
3580,F#2,433.192,0.25,50,124.4
3581,C#2,433.442,0.5,76,124.4
3582,B-2,433.442,0.5,76,124.4
3583,F#2,433.942,0.25,50,124.4
3584,F#2,434.192,0.25,50,124.4
3585,C#2,434.442,0.5,76,124.4
3586,B-2,434.442,0.5,76,124.4
3587,C5,434.692,0.25,95,124.4
3588,F#2,434.942,0.25,50,124.4
3589,C5,434.942,0.5,95,124.4
3590,C2,434.942,0.5,95,124.4
3591,F#2,435.192,0.25,50,124.4
3592,C5,435.442,1.0,95,124.4
3593,C#2,435.442,0.5,82,124.4
3594,B-2,435.442,0.5,82,124.4
3595,C2,435.442,0.5,82,124.4
3596,C3,435.442,1.5,94,124.4
3597,C3,435.442,1.5,94,124.4
3598,G3,435.442,1.5,94,124.4
3599,G3,435.442,1.5,94,124.4
3600,C3,435.442,4.0,88,124.4
3601,E-3,435.442,4.0,88,124.4
3602,E-3,435.442,4.0,88,124.4
3603,F#2,435.942,0.25,50,124.4
3604,F#2,436.192,0.25,50,124.4
3605,C#2,436.442,0.5,82,124.4
3606,C5,436.442,0.5,82,124.4
3607,B-2,436.442,0.5,82,124.4
3608,E-5,436.942,1.0,95,124.4
3609,F#2,436.942,0.25,50,124.4
3610,G#3,436.942,623/250,94,124.4
3611,C3,436.942,623/250,94,124.4
3612,G#3,436.942,623/250,94,124.4
3613,C3,436.942,623/250,94,124.4
3614,F#2,437.192,0.25,50,124.4
3615,B-2,437.442,0.5,76,124.4
3616,C#2,437.442,0.5,76,124.4
3617,F#2,437.942,0.25,50,124.4
3618,E-5,437.942,1.0,95,124.4
3619,F#2,438.192,0.25,50,124.4
3620,C#2,438.442,0.5,76,124.4
3621,B-2,438.442,0.5,76,124.4
3622,F#2,438.942,0.25,50,124.4
3623,F5,438.942,0.5,95,124.4
3624,C2,438.942,0.5,95,124.4
3625,F#2,439.192,0.25,50,124.4
3626,F5,439.442,0.5,95,124.4
3627,E-3,439.442,4.0,88,124.4
3628,C3,439.442,4.0,88,124.4
3629,E-3,439.442,4.0,88,124.4
3630,B-3,439.442,373/250,94,124.4
3631,B-3,439.442,373/250,94,124.4
3632,C3,439.442,373/250,94,124.4
3633,C3,439.442,373/250,94,124.4
3634,B-2,439.442,0.5,76,124.4
3635,C#2,439.442,0.5,76,124.4
3636,F#2,439.942,0.25,50,124.4
3637,F5,439.942,1.5,95,124.4
3638,F#2,440.192,0.25,50,124.4
3639,C#2,440.442,0.5,76,124.4
3640,B-2,440.442,0.5,76,124.4
3641,F#2,440.942,0.25,50,124.4
3642,G#3,440.942,623/250,94,124.4
3643,G#3,440.942,623/250,94,124.4
3644,C3,440.942,623/250,94,124.4
3645,C3,440.942,623/250,94,124.4
3646,F#2,441.192,0.25,50,124.4
3647,B-2,441.442,0.5,76,124.4
3648,C#2,441.442,0.5,76,124.4
3649,F#2,441.942,0.25,50,124.4
3650,F#2,442.192,0.25,50,124.4
3651,B-2,442.442,0.5,82,124.4
3652,C#2,442.442,0.5,82,124.4
3653,E-5,442.442,0.5,82,124.4
3654,F#2,442.942,0.25,50,124.4
3655,C2,442.942,0.5,95,124.4
3656,E-5,442.942,0.5,95,124.4
3657,F#2,443.192,0.25,50,124.4
3658,C#3,443.442,0.25,80,124.4
3659,C2,443.442,0.5,100,124.4
3660,B-2,443.442,1.5,89,124.4
3661,C3,443.442,1.5,89,124.4
3662,F3,443.442,1.5,89,124.4
3663,G5,443.442,1.5,89,124.4
3664,F3,443.442,1.5,89,124.4
3665,B-2,443.442,1.5,89,124.4
3666,B-2,443.442,1.5,89,124.4
3667,C3,443.442,1.5,89,124.4
3668,D2,443.942,0.25,103,124.4
3669,C3,443.942,0.25,103,124.4
3670,C2,443.942,0.25,103,124.4
3671,B2,444.442,0.25,103,124.4
3672,D2,444.442,0.25,103,124.4
3673,C2,444.442,0.25,103,124.4
3674,F5,444.942,1.0,95,124.4
3675,G#2,444.942,249/125,88,124.4
3676,G#2,444.942,249/125,88,124.4
3677,B-2,444.942,249/125,88,124.4
3678,B-2,444.942,249/125,88,124.4
3679,E-3,444.942,249/125,88,124.4
3680,E-3,444.942,249/125,88,124.4
3681,G#2,444.942,249/125,88,124.4
3682,C#3,444.942,0.25,90,124.4
3683,C2,444.942,0.25,90,124.4
3684,B2,445.192,0.25,100,124.4
3685,B2,445.442,0.25,105,124.4
3686,D2,445.442,0.25,105,124.4
3687,E-5,445.942,0.5,95,124.4
3688,C3,445.942,0.25,103,124.4
3689,D2,445.942,0.25,103,124.4
3690,C2,445.942,0.25,103,124.4
3691,B2,446.192,0.25,100,124.4
3692,G5,446.442,1.0,95,124.4
3693,C2,446.442,0.25,100,124.4
3694,B2,446.442,0.25,100,124.4
3695,F2,446.942,0.5,88,124.4
3696,F2,446.942,0.5,88,124.4
3697,E-2,446.942,0.5,88,124.4
3698,B-2,446.942,0.5,88,124.4
3699,B-2,446.942,0.5,88,124.4
3700,E-2,446.942,0.5,88,124.4
3701,E-2,446.942,0.5,88,124.4
3702,C2,446.942,0.25,90,124.4
3703,C#3,446.942,0.25,90,124.4
3704,C3,447.442,0.5,100,124.4
3705,G5,447.442,2.0,95,124.4
3706,F2,447.442,1.5,88,124.4
3707,F2,447.442,1.5,88,124.4
3708,E-2,447.442,1.5,88,124.4
3709,B-2,447.442,1.5,88,124.4
3710,B-2,447.442,1.5,88,124.4
3711,E-2,447.442,1.5,88,124.4
3712,E-2,447.442,1.5,88,124.4
3713,C3,447.942,0.25,100,124.4
3714,C2,447.942,0.25,100,124.4
3715,C3,448.192,0.5,100,124.4
3716,B2,448.442,0.25,100,124.4
3717,B2,448.692,0.25,100,124.4
3718,C2,448.942,0.25,100,124.4
3719,C#2,448.942,623/250,88,124.4
3720,C#2,448.942,623/250,88,124.4
3721,G#2,448.942,623/250,88,124.4
3722,C#2,448.942,623/250,88,124.4
3723,E-2,448.942,623/250,88,124.4
3724,G#2,448.942,623/250,88,124.4
3725,E-2,448.942,623/250,88,124.4
3726,C3,449.192,0.25,100,124.4
3727,C2,449.442,0.25,100,124.4
3728,D3,449.442,0.25,100,124.4
3729,D3,449.692,0.5,100,124.4
3730,D2,449.692,0.25,110,124.4
3731,D2,449.942,0.25,110,124.4
3732,D3,450.192,0.25,100,124.4
3733,F5,450.442,0.5,95,124.4
3734,C2,450.442,0.25,100,124.4
3735,C3,450.442,0.25,100,124.4
3736,C3,450.692,0.5,100,124.4
3737,E-5,450.942,0.5,95,124.4
3738,C2,450.942,0.25,100,124.4
3739,B2,450.942,0.25,100,124.4
3740,F4,451.442,0.25,69,124.4
3741,B-3,451.442,499/125,94,124.4
3742,G3,451.442,499/125,94,124.4
3743,F2,451.442,499/125,94,124.4
3744,G#2,451.442,499/125,94,124.4
3745,E-3,451.442,499/125,94,124.4
3746,G#1,451.442,499/125,94,124.4
3747,C2,451.442,0.5,90,124.4
3748,E-3,451.442,0.5,90,124.4
3749,F5,451.442,1.0,94,124.4
3750,C#3,451.442,1.0,94,124.4
3751,F2,451.442,1.0,94,124.4
3752,C5,451.692,0.25,69,124.4
3753,G5,451.942,0.25,69,124.4
3754,C5,452.192,0.25,69,124.4
3755,F4,452.442,0.25,69,124.4
3756,F5,452.442,1.0,92,124.4
3757,F2,452.442,1.0,92,124.4
3758,E-3,452.442,0.5,95,124.4
3759,D2,452.442,0.5,95,124.4
3760,C5,452.692,0.25,69,124.4
3761,G5,452.942,0.5,84,124.4
3762,C2,452.942,0.5,84,124.4
3763,F4,453.442,0.25,69,124.4
3764,C2,453.442,0.5,90,124.4
3765,E-3,453.442,0.5,90,124.4
3766,F5,453.442,1.0,92,124.4
3767,F2,453.442,1.0,92,124.4
3768,C5,453.692,0.25,69,124.4
3769,G5,453.942,0.25,69,124.4
3770,C5,454.192,0.25,69,124.4
3771,F4,454.442,0.25,69,124.4
3772,F2,454.442,1.0,88,124.4
3773,D2,454.442,0.5,95,124.4
3774,E-3,454.442,0.5,95,124.4
3775,C5,454.692,0.25,69,124.4
3776,G5,454.942,0.5,69,124.4
3777,G#4,455.442,0.25,69,124.4
3778,G#2,455.442,1.0,88,124.4
3779,C2,455.442,0.5,90,124.4
3780,E-3,455.442,0.5,90,124.4
3781,E-3,455.442,499/125,93,124.4
3782,B-3,455.442,499/125,93,124.4
3783,G#2,455.442,499/125,93,124.4
3784,E-4,455.442,499/125,93,124.4
3785,E-2,455.442,499/125,93,124.4
3786,E-5,455.692,0.25,69,124.4
3787,B-5,455.942,0.25,69,124.4
3788,E-5,456.192,0.25,69,124.4
3789,G#4,456.442,0.25,69,124.4
3790,G#2,456.442,1.0,88,124.4
3791,E-3,456.442,0.5,95,124.4
3792,D2,456.442,0.5,95,124.4
3793,E-5,456.692,0.25,69,124.4
3794,B-5,456.942,0.5,84,124.4
3795,C2,456.942,0.5,84,124.4
3796,G#2,457.442,1.0,88,124.4
3797,G#4,457.442,0.25,69,124.4
3798,C2,457.442,0.5,90,124.4
3799,E-3,457.442,0.5,90,124.4
3800,E-5,457.692,0.25,69,124.4
3801,B-5,457.942,0.25,69,124.4
3802,E-5,458.192,0.25,69,124.4
3803,G#4,458.442,0.25,69,124.4
3804,G#2,458.442,1.0,88,124.4
3805,E-3,458.442,0.5,95,124.4
3806,C5,458.442,0.5,95,124.4
3807,D2,458.442,0.5,95,124.4
3808,E-5,458.692,0.25,69,124.4
3809,B-4,458.942,0.5,82,124.4
3810,B-5,458.942,0.5,82,124.4
3811,E-5,459.442,0.25,69,124.4
3812,B-2,459.442,1.0,92,124.4
3813,F5,459.442,1.0,92,124.4
3814,F3,459.442,873/250,94,124.4
3815,E-2,459.442,873/250,94,124.4
3816,B-1,459.442,873/250,94,124.4
3817,B-2,459.442,873/250,94,124.4
3818,E-3,459.442,0.5,90,124.4
3819,C2,459.442,0.5,90,124.4
3820,B-5,459.692,0.25,69,124.4
3821,F6,459.942,0.25,69,124.4
3822,B-5,460.192,0.25,69,124.4
3823,E-5,460.442,0.25,69,124.4
3824,D2,460.442,0.5,95,124.4
3825,E-3,460.442,0.5,95,124.4
3826,B-2,460.442,1.0,92,124.4
3827,F5,460.442,1.0,92,124.4
3828,B-5,460.692,0.25,69,124.4
3829,F6,460.942,0.5,84,124.4
3830,C2,460.942,0.5,84,124.4
3831,B-2,461.442,1.5,88,124.4
3832,F5,461.442,1.0,95,124.4
3833,E-5,461.442,0.25,69,124.4
3834,E-3,461.442,0.5,90,124.4
3835,C2,461.442,0.5,90,124.4
3836,B-5,461.692,0.25,69,124.4
3837,F6,461.942,0.25,69,124.4
3838,B-5,462.192,0.25,69,124.4
3839,E-5,462.442,0.25,69,124.4
3840,E-3,462.442,0.5,95,124.4
3841,D2,462.442,0.5,95,124.4
3842,B-5,462.692,0.25,69,124.4
3843,F6,462.942,0.5,69,124.4
3844,G#2,462.942,0.5,93,124.4
3845,C#2,462.942,0.5,93,124.4
3846,C#2,462.942,0.5,93,124.4
3847,G#1,462.942,0.5,93,124.4
3848,E-3,462.942,0.5,93,124.4
3849,C#5,464.942,0.25,69,124.4
3850,C2,464.942,0.5,90,124.4
3851,E-3,464.942,0.5,90,124.4
3852,G#2,464.942,1.5,93,124.4
3853,C#2,464.942,1.5,93,124.4
3854,C#2,464.942,1.5,93,124.4
3855,G#1,464.942,1.5,93,124.4
3856,E-3,464.942,1.5,93,124.4
3857,G#5,465.192,0.25,69,124.4
3858,E-6,465.442,0.25,69,124.4
3859,G#5,465.692,0.25,69,124.4
3860,C#5,465.942,0.25,69,124.4
3861,E-3,465.942,0.5,95,124.4
3862,D2,465.942,0.5,95,124.4
3863,G#5,466.192,0.25,69,124.4
3864,E-6,466.442,123/250,92,124.4
3865,C2,466.442,123/250,92,124.4
3866,B-1,466.442,123/250,92,124.4
3867,B-2,466.442,123/250,92,124.4
3868,F3,466.442,2.5,88,124.4
3869,E-2,466.442,2.5,88,124.4
3870,E-2,466.442,2.5,88,124.4
3871,E-5,466.942,0.25,69,124.4
3872,B-2,466.942,249/125,100,124.4
3873,B-1,466.942,249/125,100,124.4
3874,C2,466.942,0.5,90,124.4
3875,E-3,466.942,0.5,90,124.4
3876,B-5,467.192,0.25,69,124.4
3877,F6,467.442,0.25,69,124.4
3878,G2,467.442,0.75,110,124.4
3879,B-5,467.692,0.25,69,124.4
3880,E-3,467.942,0.5,80,124.4
3881,D2,467.942,0.25,90,124.4
3882,E-5,467.942,0.25,90,124.4
3883,B-5,468.192,0.25,69,124.4
3884,C5,468.442,0.5,82,124.4
3885,F6,468.442,0.5,82,124.4
3886,F4,468.942,0.25,69,124.4
3887,G#2,468.942,499/125,94,124.4
3888,G3,468.942,499/125,94,124.4
3889,E-3,468.942,499/125,94,124.4
3890,F2,468.942,499/125,94,124.4
3891,B-3,468.942,499/125,94,124.4
3892,G#1,468.942,499/125,94,124.4
3893,E-3,468.942,0.5,90,124.4
3894,C2,468.942,0.5,90,124.4
3895,G#5,468.942,1.0,92,124.4
3896,F2,468.942,1.0,92,124.4
3897,C5,469.192,0.25,69,124.4
3898,G5,469.442,0.25,69,124.4
3899,C5,469.692,0.25,69,124.4
3900,F2,469.942,1.0,88,124.4
3901,F4,469.942,0.25,69,124.4
3902,E-3,469.942,0.5,95,124.4
3903,D2,469.942,0.5,95,124.4
3904,G#5,469.942,0.5,95,124.4
3905,C5,470.192,0.25,69,124.4
3906,F5,470.442,1.5,95,124.4
3907,C2,470.442,0.5,84,124.4
3908,G5,470.442,0.5,84,124.4
3909,F2,470.942,1.0,88,124.4
3910,F4,470.942,0.25,69,124.4
3911,E-3,470.942,0.5,90,124.4
3912,C2,470.942,0.5,90,124.4
3913,C5,471.192,0.25,69,124.4
3914,G5,471.442,0.25,69,124.4
3915,C5,471.692,0.25,69,124.4
3916,F4,471.942,0.25,69,124.4
3917,F2,471.942,1.0,88,124.4
3918,E-3,471.942,0.5,95,124.4
3919,F5,471.942,0.5,95,124.4
3920,D2,471.942,0.5,95,124.4
3921,C5,472.192,0.25,69,124.4
3922,E-5,472.442,0.5,95,124.4
3923,G5,472.442,0.5,69,124.4
3924,G#2,472.942,1.0,88,124.4
3925,G#4,472.942,0.25,69,124.4
3926,E-5,472.942,0.5,95,124.4
3927,G#2,472.942,499/125,93,124.4
3928,B-3,472.942,499/125,93,124.4
3929,E-4,472.942,499/125,93,124.4
3930,E-2,472.942,499/125,93,124.4
3931,E-3,472.942,499/125,93,124.4
3932,C2,472.942,0.5,90,124.4
3933,E-3,472.942,0.5,90,124.4
3934,E-5,473.192,0.25,69,124.4
3935,B-5,473.442,0.25,69,124.4
3936,E-5,473.442,0.5,95,124.4
3937,E-5,473.692,0.25,69,124.4
3938,G#2,473.942,1.0,88,124.4
3939,G#4,473.942,0.25,69,124.4
3940,C5,473.942,0.5,95,124.4
3941,D2,473.942,0.5,95,124.4
3942,E-3,473.942,0.5,95,124.4
3943,E-5,474.192,0.25,69,124.4
3944,C5,474.442,0.5,88,124.4
3945,B-5,474.442,0.5,88,124.4
3946,C2,474.442,0.5,88,124.4
3947,G#4,474.942,0.25,69,124.4
3948,C2,474.942,0.5,90,124.4
3949,E-3,474.942,0.5,90,124.4
3950,G#2,474.942,1.0,92,124.4
3951,E-5,474.942,1.0,92,124.4
3952,E-5,475.192,0.25,69,124.4
3953,B-5,475.442,0.25,69,124.4
3954,E-5,475.692,0.25,69,124.4
3955,G#4,475.942,0.25,69,124.4
3956,G#2,475.942,1.0,88,124.4
3957,E-3,475.942,0.5,95,124.4
3958,D2,475.942,0.5,95,124.4
3959,C5,475.942,0.5,95,124.4
3960,E-5,476.192,0.25,69,124.4
3961,B-5,476.442,0.5,69,124.4
3962,E-5,476.442,0.5,95,124.4
3963,E-5,476.942,0.25,69,124.4
3964,B-2,476.942,1.0,88,124.4
3965,E-5,476.942,0.5,95,124.4
3966,E-2,476.942,3.5,94,124.4
3967,B-1,476.942,3.5,94,124.4
3968,B-2,476.942,3.5,94,124.4
3969,F3,476.942,3.5,94,124.4
3970,C2,476.942,0.5,90,124.4
3971,E-3,476.942,0.5,90,124.4
3972,B-5,477.192,0.25,69,124.4
3973,F6,477.442,0.25,69,124.4
3974,C5,477.442,1.0,95,124.4
3975,B-5,477.692,0.25,69,124.4
3976,E-5,477.942,0.25,69,124.4
3977,B-2,477.942,1.0,88,124.4
3978,D2,477.942,0.5,95,124.4
3979,E-3,477.942,0.5,95,124.4
3980,B-5,478.192,0.25,69,124.4
3981,B-4,478.442,1.0,95,124.4
3982,F6,478.442,0.5,84,124.4
3983,C2,478.442,0.5,84,124.4
3984,E-5,478.942,0.25,69,124.4
3985,B-2,478.942,1.5,88,124.4
3986,E-3,478.942,0.5,90,124.4
3987,C2,478.942,0.5,90,124.4
3988,B-5,479.192,0.25,69,124.4
3989,F6,479.442,0.25,69,124.4
3990,F4,479.442,1.5,95,124.4
3991,B-5,479.692,0.25,69,124.4
3992,E-5,479.942,0.25,69,124.4
3993,E-3,479.942,0.5,95,124.4
3994,D2,479.942,0.5,95,124.4
3995,B-5,480.192,0.25,69,124.4
3996,F6,480.442,0.5,69,124.4
3997,E-3,480.442,0.5,93,124.4
3998,G#2,480.442,0.5,93,124.4
3999,C#2,480.442,0.5,93,124.4
4000,C#2,480.442,0.5,93,124.4
4001,G#1,480.442,0.5,93,124.4
4002,C#5,482.433,0.25,69,124.4
4003,E-3,482.433,0.5,90,124.4
4004,C2,482.433,0.5,90,124.4
4005,E-3,482.433,373/250,93,124.4
4006,G#2,482.433,373/250,93,124.4
4007,C#2,482.433,373/250,93,124.4
4008,C#2,482.433,373/250,93,124.4
4009,G#1,482.433,373/250,93,124.4
4010,G#5,482.683,0.25,69,124.4
4011,E-6,482.933,0.25,69,124.4
4012,G#5,483.183,0.25,69,124.4
4013,C#5,483.433,0.25,69,124.4
4014,E-3,483.433,0.5,95,124.4
4015,D2,483.433,0.5,95,124.4
4016,G#5,483.683,0.25,69,124.4
4017,E-6,483.933,123/250,92,124.4
4018,B-1,483.933,123/250,92,124.4
4019,C2,483.933,123/250,92,124.4
4020,B-2,483.933,123/250,92,124.4
4021,F3,483.933,2.5,88,124.4
4022,E-2,483.933,2.5,88,124.4
4023,E-2,483.933,2.5,88,124.4
4024,E-5,484.433,0.25,69,124.4
4025,B-1,484.433,249/125,100,124.4
4026,B-2,484.433,249/125,100,124.4
4027,E-3,484.433,0.5,90,124.4
4028,C2,484.433,0.5,90,124.4
4029,B-5,484.683,0.25,69,124.4
4030,F6,484.933,0.25,69,124.4
4031,C3,484.933,0.5,100,124.4
4032,B2,484.933,0.5,100,124.4
4033,B-5,485.183,0.25,69,124.4
4034,C3,485.183,0.5,100,124.4
4035,B2,485.183,0.5,100,124.4
4036,E-5,485.433,0.25,69,124.4
4037,C5,485.433,0.5,95,124.4
4038,E-3,485.433,0.5,95,124.4
4039,D2,485.433,0.5,95,124.4
4040,B-5,485.683,0.25,69,124.4
4041,G2,485.933,0.5,91,124.4
4042,E-5,485.933,0.5,91,124.4
4043,A2,485.933,0.5,91,124.4
4044,F6,485.933,0.5,91,124.4
4045,G3,486.433,117/1000,100,124.4
4046,F4,486.433,0.25,69,124.4
4047,F2,486.433,1.0,88,124.4
4048,C2,486.433,0.5,92,124.4
4049,E-3,486.433,0.5,92,124.4
4050,F5,486.433,0.5,92,124.4
4051,G#1,486.433,4.0,94,124.4
4052,E-3,486.433,4.0,94,124.4
4053,G3,486.433,4.0,94,124.4
4054,G#2,486.433,4.0,94,124.4
4055,F2,486.433,4.0,94,124.4
4056,B-3,486.433,4.0,94,124.4
4057,C5,486.683,0.25,69,124.4
4058,F5,486.933,0.5,95,124.4
4059,G5,486.933,0.25,69,124.4
4060,C5,487.183,0.25,69,124.4
4061,F2,487.433,1.0,88,124.4
4062,F4,487.433,0.25,69,124.4
4063,D2,487.433,0.5,95,124.4
4064,E-3,487.433,0.5,95,124.4
4065,F5,487.433,0.5,95,124.4
4066,C5,487.683,0.25,69,124.4
4067,C2,487.933,0.5,88,124.4
4068,E-5,487.933,0.5,88,124.4
4069,G5,487.933,0.5,88,124.4
4070,F4,488.433,0.25,69,124.4
4071,C2,488.433,0.5,90,124.4
4072,E-3,488.433,0.5,90,124.4
4073,F5,488.433,1.0,92,124.4
4074,F2,488.433,1.0,92,124.4
4075,C5,488.683,0.25,69,124.4
4076,G5,488.933,0.25,69,124.4
4077,C5,489.183,0.25,69,124.4
4078,F4,489.433,0.25,69,124.4
4079,D2,489.433,0.5,93,124.4
4080,F2,489.433,0.5,93,124.4
4081,E-3,489.433,0.5,93,124.4
4082,C5,489.683,0.25,69,124.4
4083,G5,489.933,0.5,78,124.4
4084,G#2,489.933,0.5,78,124.4
4085,G#2,490.433,1.0,88,124.4
4086,G#4,490.433,0.25,69,124.4
4087,E-3,490.433,4.0,93,124.4
4088,B-3,490.433,4.0,93,124.4
4089,G#2,490.433,4.0,93,124.4
4090,E-2,490.433,4.0,93,124.4
4091,E-4,490.433,4.0,93,124.4
4092,C2,490.433,0.5,90,124.4
4093,E-3,490.433,0.5,90,124.4
4094,E-5,490.683,0.25,69,124.4
4095,B-5,490.933,0.25,69,124.4
4096,E-5,491.183,0.25,69,124.4
4097,G#4,491.433,0.25,69,124.4
4098,G#2,491.433,1.0,88,124.4
4099,D2,491.433,0.5,95,124.4
4100,E-3,491.433,0.5,95,124.4
4101,E-5,491.683,0.25,69,124.4
4102,B-5,491.933,0.5,84,124.4
4103,C2,491.933,0.5,84,124.4
4104,G#2,492.433,1.0,88,124.4
4105,G#4,492.433,0.25,69,124.4
4106,E-3,492.433,0.5,90,124.4
4107,C2,492.433,0.5,90,124.4
4108,E-5,492.683,0.25,69,124.4
4109,B-5,492.933,0.25,69,124.4
4110,E-5,493.183,0.25,69,124.4
4111,G#4,493.433,0.25,69,124.4
4112,G#2,493.433,1.0,88,124.4
4113,E-3,493.433,0.5,95,124.4
4114,D2,493.433,0.5,95,124.4
4115,C5,493.433,0.5,95,124.4
4116,E-5,493.683,0.25,69,124.4
4117,B-5,493.933,0.5,82,124.4
4118,E-5,493.933,0.5,82,124.4
4119,B-2,494.433,1.0,88,124.4
4120,E-5,494.433,0.25,69,124.4
4121,F5,494.433,0.5,92,124.4
4122,E-3,494.433,0.5,92,124.4
4123,C2,494.433,0.5,92,124.4
4124,E-2,494.433,873/250,94,124.4
4125,B-2,494.433,873/250,94,124.4
4126,F3,494.433,873/250,94,124.4
4127,B-1,494.433,873/250,94,124.4
4128,B-5,494.683,0.25,69,124.4
4129,F5,494.933,0.5,95,124.4
4130,F6,494.933,0.25,69,124.4
4131,B-5,495.183,0.25,69,124.4
4132,B-2,495.433,1.0,88,124.4
4133,E-5,495.433,0.25,69,124.4
4134,E-3,495.433,0.5,95,124.4
4135,F5,495.433,0.5,95,124.4
4136,D2,495.433,0.5,95,124.4
4137,B-5,495.683,0.25,69,124.4
4138,F5,495.933,0.5,88,124.4
4139,C2,495.933,0.5,88,124.4
4140,F6,495.933,0.5,88,124.4
4141,E-5,496.433,0.25,69,124.4
4142,E-3,496.433,0.5,90,124.4
4143,C2,496.433,0.5,90,124.4
4144,B-2,496.433,1.5,92,124.4
4145,G#5,496.433,1.5,92,124.4
4146,B-5,496.683,0.25,69,124.4
4147,F6,496.933,0.25,69,124.4
4148,B-5,497.183,0.25,69,124.4
4149,E-5,497.433,0.25,69,124.4
4150,D2,497.433,0.5,95,124.4
4151,E-3,497.433,0.5,95,124.4
4152,B-5,497.683,0.25,69,124.4
4153,E-3,497.933,0.5,93,124.4
4154,C#2,497.933,0.5,93,124.4
4155,C#2,497.933,0.5,93,124.4
4156,G#1,497.933,0.5,93,124.4
4157,G#2,497.933,0.5,93,124.4
4158,F5,497.933,0.5,82,124.4
4159,F6,497.933,0.5,82,124.4
4160,C2,499.925,0.5,90,124.4
4161,E-3,499.925,0.5,90,124.4
4162,C#5,499.925,0.25,82,124.4
4163,F5,499.925,0.25,82,124.4
4164,E-3,499.925,373/250,93,124.4
4165,C#2,499.925,373/250,93,124.4
4166,C#2,499.925,373/250,93,124.4
4167,G#1,499.925,373/250,93,124.4
4168,G#2,499.925,373/250,93,124.4
4169,G#5,500.175,0.25,82,124.4
4170,E-5,500.175,0.25,82,124.4
4171,C5,500.425,1.5,95,124.4
4172,C3,500.425,0.5,100,124.4
4173,E-6,500.425,0.25,69,124.4
4174,G#5,500.675,0.25,69,124.4
4175,C#5,500.925,0.25,69,124.4
4176,E-3,500.925,0.5,95,124.4
4177,D2,500.925,0.5,95,124.4
4178,G#5,501.175,0.25,69,124.4
4179,C2,501.425,123/250,90,124.4
4180,E-6,501.425,123/250,90,124.4
4181,G3,501.425,123/250,90,124.4
4182,B-2,501.425,123/250,90,124.4
4183,B-1,501.425,123/250,90,124.4
4184,F3,501.425,249/125,88,124.4
4185,E-2,501.425,249/125,88,124.4
4186,E-2,501.425,249/125,88,124.4
4187,E-5,501.925,0.25,69,124.4
4188,E-3,501.925,0.5,90,124.4
4189,C2,501.925,0.5,90,124.4
4190,B-2,501.925,373/250,100,124.4
4191,B-1,501.925,373/250,100,124.4
4192,B-5,502.175,0.25,69,124.4
4193,F6,502.425,0.25,69,124.4
4194,C3,502.425,0.5,98,124.4
4195,F5,502.425,0.5,98,124.4
4196,B-5,502.675,0.25,69,124.4
4197,A3,502.925,1.0,100,124.4
4198,E-5,502.925,0.25,69,124.4
4199,F5,502.925,1.0,95,124.4
4200,E-3,502.925,0.5,90,124.4
4201,B2,502.925,0.5,90,124.4
4202,B-5,503.175,0.25,69,124.4
4203,E-6,503.425,0.5,69,124.4
4204,G3,503.425,0.5,100,124.4
4205,B-3,503.425,0.5,93,124.4
4206,E-3,503.425,0.5,93,124.4
4207,C4,503.425,0.5,93,124.4
4208,F2,503.425,0.5,93,124.4
4209,F4,503.425,0.5,93,124.4
4210,F1,503.425,0.5,93,124.4
4211,F1,503.425,0.5,93,124.4
4212,B-4,503.925,333/1000,65,124.4
4213,C2,503.925,0.75,100,124.4
4214,A3,503.925,117/1000,100,124.4
4215,G3,503.925,0.5,100,124.4
4216,F5,503.925,4.0,95,124.4
4217,B-3,503.925,999/125,93,124.4
4218,E-3,503.925,999/125,93,124.4
4219,C4,503.925,999/125,93,124.4
4220,F2,503.925,999/125,93,124.4
4221,F4,503.925,999/125,93,124.4
4222,F1,503.925,999/125,93,124.4
4223,F1,503.925,999/125,93,124.4
4224,B-4,504.425,333/1000,65,124.4
4225,F2,504.425,0.5,105,124.4
4226,D2,504.425,117/1000,40,124.4
4227,F2,504.925,0.5,105,124.4
4228,D2,504.925,117/1000,47,124.4
4229,B-4,504.925,333/1000,65,124.4
4230,F2,505.425,0.5,105,124.4
4231,D2,505.425,117/1000,54,124.4
4232,B-4,505.425,333/1000,65,124.4
4233,B-4,505.925,333/1000,65,124.4
4234,D2,505.925,117/1000,61,124.4
4235,F2,505.925,0.5,105,124.4
4236,B-4,506.425,333/1000,65,124.4
4237,D2,506.425,117/1000,68,124.4
4238,G#2,506.425,0.5,105,124.4
4239,G2,506.925,0.5,105,124.4
4240,B-4,506.925,333/1000,65,124.4
4241,D2,506.925,117/1000,75,124.4
4242,C2,507.425,0.5,100,124.4
4243,B-4,507.425,333/1000,65,124.4
4244,F2,507.425,0.5,105,124.4
4245,F2,507.425,117/1000,82,124.4
4246,F2,511.917,117/1000,89,124.4
4247,B-2,511.917,0.5,105,124.4
4248,B-4,511.917,333/1000,65,124.4
4249,C2,511.917,0.25,100,124.4
4250,F2,512.417,0.5,105,124.4
4251,G2,512.417,117/1000,96,124.4
4252,B-4,512.417,333/1000,65,124.4
4253,B-4,512.917,333/1000,65,124.4
4254,G#2,512.917,0.5,105,124.4
4255,G2,512.917,117/1000,103,124.4
4256,A2,513.417,117/1000,110,124.4
4257,B-4,513.417,333/1000,65,124.4
4258,F2,513.417,0.5,105,124.4
4259,E-2,513.917,0.5,105,124.4
4260,B-4,513.917,333/1000,65,124.4
4261,D2,513.917,117/1000,117,124.4
4262,D2,514.167,117/1000,117,124.4
4263,C2,514.417,0.5,105,124.4
4264,B-4,514.417,333/1000,65,124.4
4265,D2,514.417,117/1000,117,124.4
4266,D2,514.667,117/1000,117,124.4
4267,B-4,514.917,333/1000,65,124.4
4268,E-2,514.917,0.5,105,124.4
4269,D2,514.917,117/1000,115,124.4
4270,A2,514.917,117/1000,115,124.4
4271,F2,515.417,0.5,105,124.4
4272,B-4,515.417,333/1000,65,124.4
4273,A2,515.417,117/1000,115,124.4
4274,B2,515.417,117/1000,115,124.4
4275,C2,515.917,0.5,95,124.4
4276,F2,515.917,1.0,88,124.4
4277,C4,515.917,4.0,82,124.4
4278,B-3,515.917,4.0,82,124.4
4279,E-3,515.917,4.0,82,124.4
4280,E-3,515.917,4.0,82,124.4
4281,C4,515.917,4.0,82,124.4
4282,B-3,515.917,4.0,82,124.4
4283,E-3,515.917,117/1000,100,124.4
4284,C#3,515.917,117/1000,100,124.4
4285,D1,516.917,0.5,101,124.4
4286,F2,516.917,1.0,88,124.4
4287,E-3,516.917,117/1000,100,124.4
4288,D2,516.917,117/1000,100,124.4
4289,C2,517.417,0.5,95,124.4
4290,C2,517.917,0.5,95,124.4
4291,F2,517.917,1.0,88,124.4
4292,E-3,517.917,117/1000,100,124.4
4293,D1,518.917,0.5,101,124.4
4294,F2,518.917,1.0,88,124.4
4295,D2,518.917,117/1000,100,124.4
4296,E-3,518.917,117/1000,100,124.4
4297,G#2,519.917,1.0,88,124.4
4298,E-3,519.917,117/1000,100,124.4
4299,C2,519.917,0.5,95,124.4
4300,E-4,519.917,4.0,82,124.4
4301,E-3,519.917,4.0,82,124.4
4302,E-3,519.917,4.0,82,124.4
4303,B-3,519.917,4.0,82,124.4
4304,E-4,519.917,4.0,82,124.4
4305,B-3,519.917,4.0,82,124.4
4306,D1,520.917,0.5,101,124.4
4307,G#2,520.917,1.0,88,124.4
4308,D2,520.917,117/1000,100,124.4
4309,E-3,520.917,117/1000,100,124.4
4310,C2,521.417,0.5,95,124.4
4311,G#2,521.917,1.0,88,124.4
4312,C2,521.917,0.5,95,124.4
4313,E-3,521.917,117/1000,100,124.4
4314,D1,522.917,0.5,101,124.4
4315,G#2,522.917,1.0,88,124.4
4316,D2,522.917,117/1000,100,124.4
4317,E-3,522.917,117/1000,100,124.4
4318,C2,523.917,0.5,95,124.4
4319,E-3,523.917,117/1000,100,124.4
4320,B-2,523.917,1.0,88,124.4
4321,C4,523.917,4.0,82,124.4
4322,C4,523.917,4.0,82,124.4
4323,F3,523.917,4.0,82,124.4
4324,F4,523.917,4.0,82,124.4
4325,F4,523.917,4.0,82,124.4
4326,F3,523.917,4.0,82,124.4
4327,B-2,524.917,1.0,88,124.4
4328,D1,524.917,0.5,101,124.4
4329,D2,524.917,117/1000,100,124.4
4330,E-3,524.917,117/1000,100,124.4
4331,C2,525.417,0.5,95,124.4
4332,E-3,525.917,117/1000,100,124.4
4333,C2,525.917,0.5,95,124.4
4334,B-2,525.917,1.0,88,124.4
4335,D1,526.917,0.5,101,124.4
4336,B-2,526.917,1.0,88,124.4
4337,D2,526.917,117/1000,100,124.4
4338,E-3,526.917,117/1000,100,124.4
4339,C2,527.917,0.5,95,124.4
4340,E-3,527.917,117/1000,100,124.4
4341,C#2,527.917,1.0,88,124.4
4342,G#4,527.917,2.0,82,124.4
4343,E-4,527.917,2.0,82,124.4
4344,G#2,527.917,2.0,82,124.4
4345,G#4,527.917,2.0,82,124.4
4346,G#2,527.917,2.0,82,124.4
4347,E-4,527.917,2.0,82,124.4
4348,C#2,528.917,1.0,88,124.4
4349,D1,528.917,0.5,101,124.4
4350,D2,528.917,117/1000,100,124.4
4351,E-3,528.917,117/1000,100,124.4
4352,C2,529.417,0.5,95,124.4
4353,C2,529.917,0.5,95,124.4
4354,E-2,529.917,1.0,88,124.4
4355,B-2,529.917,2.0,82,124.4
4356,B-4,529.917,2.0,82,124.4
4357,B-4,529.917,2.0,82,124.4
4358,F4,529.917,2.0,82,124.4
4359,B-2,529.917,2.0,82,124.4
4360,F4,529.917,2.0,82,124.4
4361,E-3,529.917,117/1000,100,124.4
4362,D2,529.917,117/1000,100,124.4
4363,D2,530.167,117/1000,100,124.4
4364,D2,530.417,117/1000,100,124.4
4365,D1,530.917,0.5,101,124.4
4366,E-2,530.917,1.0,88,124.4
4367,E-3,530.917,117/1000,100,124.4
4368,D2,530.917,117/1000,100,124.4
4369,D2,531.417,117/1000,100,124.4
4370,D2,531.667,117/1000,100,124.4
4371,F2,531.917,1.0,88,124.4
4372,C2,531.917,0.5,95,124.4
4373,B-3,531.917,4.0,82,124.4
4374,C4,531.917,4.0,82,124.4
4375,B-3,531.917,4.0,82,124.4
4376,E-3,531.917,4.0,82,124.4
4377,E-3,531.917,4.0,82,124.4
4378,C4,531.917,4.0,82,124.4
4379,E-3,531.917,117/1000,100,124.4
4380,C#3,531.917,117/1000,100,124.4
4381,F2,532.917,1.0,88,124.4
4382,D1,532.917,0.5,101,124.4
4383,D2,532.917,117/1000,100,124.4
4384,E-3,532.917,117/1000,100,124.4
4385,C2,533.417,0.5,95,124.4
4386,E-3,533.917,117/1000,100,124.4
4387,F2,533.917,1.0,88,124.4
4388,C2,533.917,0.5,95,124.4
4389,D1,534.917,0.5,101,124.4
4390,F2,534.917,1.0,88,124.4
4391,E-3,534.917,117/1000,100,124.4
4392,D2,534.917,117/1000,100,124.4
4393,C2,535.917,0.5,95,124.4
4394,E-3,535.917,117/1000,100,124.4
4395,G#2,535.917,1.0,88,124.4
4396,E-3,535.917,4.0,82,124.4
4397,B-3,535.917,4.0,82,124.4
4398,E-4,535.917,4.0,82,124.4
4399,E-3,535.917,4.0,82,124.4
4400,E-4,535.917,4.0,82,124.4
4401,B-3,535.917,4.0,82,124.4
4402,G#2,536.917,1.0,88,124.4
4403,D1,536.917,0.5,101,124.4
4404,E-3,536.917,117/1000,100,124.4
4405,D2,536.917,117/1000,100,124.4
4406,C2,537.417,0.5,95,124.4
4407,C2,537.917,0.5,95,124.4
4408,E-3,537.917,117/1000,100,124.4
4409,G#2,537.917,1.0,88,124.4
4410,D1,538.917,0.5,101,124.4
4411,G#2,538.917,1.0,88,124.4
4412,D2,538.917,117/1000,100,124.4
4413,E-3,538.917,117/1000,100,124.4
4414,B-2,539.917,1.0,88,124.4
4415,E-3,539.917,117/1000,100,124.4
4416,C2,539.917,0.5,95,124.4
4417,F3,539.917,4.0,82,124.4
4418,C4,539.917,4.0,82,124.4
4419,C4,539.917,4.0,82,124.4
4420,F4,539.917,4.0,82,124.4
4421,F4,539.917,4.0,82,124.4
4422,F3,539.917,4.0,82,124.4
4423,D1,540.917,0.5,101,124.4
4424,B-2,540.917,1.0,88,124.4
4425,E-3,540.917,117/1000,100,124.4
4426,D2,540.917,117/1000,100,124.4
4427,C2,541.417,0.5,95,124.4
4428,E-3,541.917,117/1000,100,124.4
4429,C2,541.917,0.5,95,124.4
4430,B-2,541.917,1.0,88,124.4
4431,B-2,542.917,1.0,88,124.4
4432,D1,542.917,0.5,101,124.4
4433,E-3,542.917,117/1000,100,124.4
4434,D2,542.917,117/1000,100,124.4
4435,C2,543.917,0.5,95,124.4
4436,E-3,543.917,117/1000,100,124.4
4437,C#2,543.917,1.0,88,124.4
4438,E-4,543.917,2.0,82,124.4
4439,G#4,543.917,2.0,82,124.4
4440,E-4,543.917,2.0,82,124.4
4441,G#2,543.917,2.0,82,124.4
4442,G#4,543.917,2.0,82,124.4
4443,G#2,543.917,2.0,82,124.4
4444,D1,544.917,0.5,101,124.4
4445,C#2,544.917,1.0,88,124.4
4446,E-3,544.917,117/1000,100,124.4
4447,D2,544.917,117/1000,100,124.4
4448,C2,545.417,0.5,95,124.4
4449,C2,545.917,0.5,95,124.4
4450,E-3,545.917,117/1000,100,124.4
4451,E-2,545.917,1.0,88,124.4
4452,F4,545.917,2.0,82,124.4
4453,F4,545.917,2.0,82,124.4
4454,B-2,545.917,2.0,82,124.4
4455,B-2,545.917,2.0,82,124.4
4456,B-4,545.917,2.0,82,124.4
4457,B-4,545.917,2.0,82,124.4
4458,C3,546.417,117/1000,100,124.4
4459,D3,546.417,117/1000,100,124.4
4460,E-2,546.917,1.0,88,124.4
4461,D1,546.917,0.5,101,124.4
4462,B2,546.917,117/1000,100,124.4
4463,E-3,546.917,117/1000,100,124.4
4464,C3,546.917,117/1000,100,124.4
4465,A2,547.417,117/1000,100,124.4
4466,B2,547.417,117/1000,100,124.4
