,note_name,start_time,duration,velocity,tempo
0,G4,0.0,0.375,95,100.0
1,G1,0.0,0.375,95,100.0
2,G3,0.0,0.375,95,100.0
3,G3,0.0,0.375,95,100.0
4,C3,0.0,0.25,95,100.0
5,A3,0.0,0.25,95,100.0
6,E4,0.375,0.125,95,100.0
7,E1,0.375,0.125,95,100.0
8,E3,0.375,0.125,95,100.0
9,E3,0.375,0.125,95,100.0
10,B2,0.375,0.125,95,100.0
11,C5,0.5,0.5,95,100.0
12,C2,0.5,0.5,95,100.0
13,C4,0.5,0.5,95,100.0
14,C4,0.5,0.5,95,100.0
15,A2,0.5,0.25,95,100.0
16,A4,1.0,0.375,95,100.0
17,A1,1.0,0.375,95,100.0
18,A3,1.0,0.375,95,100.0
19,A3,1.0,0.375,95,100.0
20,A3,1.0,0.25,95,100.0
21,B2,1.0,0.25,95,100.0
22,E4,1.375,0.125,95,100.0
23,E2,1.375,0.125,95,100.0
24,E3,1.375,0.125,95,100.0
25,E3,1.375,0.125,95,100.0
26,C3,1.375,0.125,95,100.0
27,D4,1.5,0.5,95,100.0
28,D2,1.5,0.5,95,100.0
29,D3,1.5,0.5,95,100.0
30,D3,1.5,0.5,95,100.0
31,A2,1.5,0.25,95,100.0
32,D4,2.0,0.375,95,100.0
33,D2,2.0,0.375,95,100.0
34,D3,2.0,0.375,95,100.0
35,D3,2.0,0.375,95,100.0
36,A3,2.0,0.125,95,100.0
37,D3,2.0,0.125,95,100.0
38,C3,2.125,0.125,95,100.0
39,B2,2.25,0.125,95,100.0
40,C4,2.375,0.125,95,100.0
41,C2,2.375,0.125,95,100.0
42,C3,2.375,0.125,95,100.0
43,C3,2.375,0.125,95,100.0
44,A2,2.375,0.125,95,100.0
45,A1,2.5,1.0,95,100.0
46,A2,2.5,1.0,95,100.0
47,A2,2.5,1.0,95,100.0
48,G2,2.5,0.125,95,100.0
49,A3,2.5,1.0,95,100.0
50,E3,2.5,1.0,95,100.0
51,A3,3.0,0.125,95,100.0
52,E2,3.0,0.125,95,100.0
53,B-2,3.0,0.125,95,100.0
54,E2,3.125,0.125,95,100.0
55,E2,3.25,0.125,95,100.0
56,E2,3.375,0.125,95,100.0
57,E2,3.5,0.5,95,100.0
58,E3,3.5,0.5,95,100.0
59,E3,3.5,0.5,95,100.0
60,C#3,3.5,0.25,95,100.0
61,E4,3.5,0.5,95,100.0
62,A3,3.5,0.5,95,100.0
63,E2,4.0,0.5,95,100.0
64,E3,4.0,0.5,95,100.0
65,E3,4.0,0.5,95,100.0
66,A3,4.0,0.25,95,100.0
67,A2,4.0,0.25,95,100.0
68,B-2,4.0,0.25,95,100.0
69,B-2,4.25,0.25,95,100.0
70,D2,4.5,1.5,95,100.0
71,D4,4.5,1.5,95,100.0
72,D3,4.5,1.375,95,100.0
73,E4,4.5,0.5,95,100.0
74,A3,4.5,0.5,95,100.0
75,B-2,4.5,0.25,95,100.0
76,E3,4.5,0.25,95,100.0
77,D4,5.0,1.5,95,100.0
78,G3,5.0,1.5,95,100.0
79,A3,5.0,0.25,95,100.0
80,E2,5.0,0.25,95,100.0
81,C#3,5.25,0.25,95,100.0
82,D5,5.875,0.125,95,100.0
83,G1,6.0,0.375,95,100.0
84,G3,6.0,0.375,95,100.0
85,G5,6.0,0.375,95,100.0
86,A3,6.0,0.25,95,100.0
87,C3,6.0,0.25,95,100.0
88,E1,6.375,0.125,95,100.0
89,E3,6.375,0.125,95,100.0
90,E5,6.375,0.125,95,100.0
91,B2,6.375,0.125,95,100.0
92,G4,6.5,0.375,95,100.0
93,C2,6.5,0.5,95,100.0
94,C4,6.5,0.5,95,100.0
95,C6,6.5,0.5,95,100.0
96,A2,6.5,0.25,95,100.0
97,E4,6.875,0.125,95,100.0
98,C5,7.0,0.5,95,100.0
99,A1,7.0,0.375,95,100.0
100,A3,7.0,0.375,95,100.0
101,A5,7.0,0.375,95,100.0
102,A3,7.0,0.25,95,100.0
103,B2,7.0,0.25,95,100.0
104,E2,7.375,0.125,95,100.0
105,E3,7.375,0.125,95,100.0
106,E5,7.375,0.125,95,100.0
107,C3,7.375,0.125,95,100.0
108,A4,7.5,0.375,95,100.0
109,D2,7.5,0.5,95,100.0
110,D3,7.5,0.5,95,100.0
111,D5,7.5,0.5,95,100.0
112,A2,7.5,0.25,95,100.0
113,E4,7.875,0.125,95,100.0
114,D4,8.0,0.5,95,100.0
115,D2,8.0,0.375,95,100.0
116,D3,8.0,0.375,95,100.0
117,D5,8.0,0.375,95,100.0
118,A3,8.0,0.125,95,100.0
119,D3,8.0,0.125,95,100.0
120,C3,8.125,0.125,95,100.0
121,B2,8.25,0.125,95,100.0
122,C2,8.375,0.125,95,100.0
123,C3,8.375,0.125,95,100.0
124,C5,8.375,0.125,95,100.0
125,A2,8.375,0.125,95,100.0
126,D4,8.5,0.375,95,100.0
127,A1,8.5,1.0,95,100.0
128,A2,8.5,1.0,95,100.0
129,A4,8.5,0.5,95,100.0
130,G2,8.5,0.125,95,100.0
131,C4,8.875,0.125,95,100.0
132,A3,9.0,1.0,95,100.0
133,E3,9.0,1.0,95,100.0
134,A3,9.0,0.125,95,100.0
135,E2,9.0,0.125,95,100.0
136,B-2,9.0,0.125,95,100.0
137,E2,9.125,0.125,95,100.0
138,E2,9.25,0.125,95,100.0
139,E2,9.375,0.125,95,100.0
140,E1,9.5,1.0,95,100.0
141,C#3,9.5,0.25,95,100.0
142,D5,9.5,1.0,127,100.0
143,A4,9.5,1.0,127,100.0
144,E4,9.5,1.0,127,100.0
145,C5,9.5,1.0,95,100.0
146,A4,9.5,1.0,95,100.0
147,G4,10.0,1.0,95,100.0
148,E4,10.0,1.0,95,100.0
149,C4,10.0,1.0,95,100.0
150,A2,10.0,0.25,95,100.0
151,B-2,10.0,0.25,95,100.0
152,B-2,10.25,0.25,95,100.0
153,D2,10.5,1.5,95,100.0
154,D5,10.5,1.5,127,100.0
155,A4,10.5,1.5,127,100.0
156,E4,10.5,1.5,127,100.0
157,C5,10.5,1.5,95,100.0
158,A4,10.5,1.5,95,100.0
159,B-2,10.5,0.25,95,100.0
160,E3,10.5,0.25,95,100.0
161,E2,11.0,0.25,95,100.0
162,G4,11.0,1.5,95,100.0
163,E4,11.0,1.5,95,100.0
164,C4,11.0,1.5,95,100.0
165,C#3,11.25,0.25,95,100.0
166,G1,12.0,0.375,95,100.0
167,G3,12.0,0.375,95,100.0
168,G3,12.0,0.375,95,100.0
169,A3,12.0,0.25,95,100.0
170,C3,12.0,0.25,95,100.0
171,E1,12.375,0.125,95,100.0
172,E3,12.375,0.125,95,100.0
173,E3,12.375,0.125,95,100.0
174,B2,12.375,0.125,95,100.0
175,G4,12.5,0.375,95,100.0
176,C2,12.5,0.5,95,100.0
177,C4,12.5,0.5,95,100.0
178,C4,12.5,0.5,95,100.0
179,A2,12.5,0.25,95,100.0
180,E4,12.875,0.125,95,100.0
181,C5,13.0,0.5,95,100.0
182,A1,13.0,0.375,95,100.0
183,A3,13.0,0.375,95,100.0
184,A3,13.0,0.375,95,100.0
185,A3,13.0,0.25,95,100.0
186,B2,13.0,0.25,95,100.0
187,E2,13.375,0.125,95,100.0
188,E3,13.375,0.125,95,100.0
189,E3,13.375,0.125,95,100.0
190,C3,13.375,0.125,95,100.0
191,A4,13.5,0.375,95,100.0
192,D2,13.5,0.5,95,100.0
193,D3,13.5,0.5,95,100.0
194,D3,13.5,0.5,95,100.0
195,A2,13.5,0.25,95,100.0
196,E4,13.875,0.125,95,100.0
197,D4,14.0,0.5,95,100.0
198,D2,14.0,0.375,95,100.0
199,D3,14.0,0.375,95,100.0
200,D3,14.0,0.375,95,100.0
201,A3,14.0,0.125,95,100.0
202,D3,14.0,0.125,95,100.0
203,C3,14.125,0.125,95,100.0
204,B2,14.25,0.125,95,100.0
205,C2,14.375,0.125,95,100.0
206,C3,14.375,0.125,95,100.0
207,C3,14.375,0.125,95,100.0
208,A2,14.375,0.125,95,100.0
209,D4,14.5,0.375,95,100.0
210,A1,14.5,1.0,95,100.0
211,A2,14.5,1.0,95,100.0
212,A2,14.5,1.0,95,100.0
213,G2,14.5,0.125,95,100.0
214,C4,14.875,0.125,95,100.0
215,A3,15.0,1.0,95,100.0
216,E3,15.0,1.0,95,100.0
217,A3,15.0,0.25,95,100.0
218,E2,15.0,0.25,95,100.0
219,B-2,15.0,0.25,95,100.0
220,E2,15.5,0.5,95,100.0
221,E3,15.5,0.5,95,100.0
222,E3,15.5,0.5,95,100.0
223,C#3,15.5,0.25,95,100.0
224,E2,16.0,0.5,95,100.0
225,E3,16.0,0.5,95,100.0
226,E3,16.0,0.5,95,100.0
227,E4,16.0,0.5,95,100.0
228,A3,16.0,0.5,95,100.0
229,A3,16.0,0.25,95,100.0
230,A2,16.0,0.25,95,100.0
231,B-2,16.0,0.25,95,100.0
232,B-2,16.25,0.25,95,100.0
233,D2,16.5,1.5,95,100.0
234,D4,16.5,1.5,95,100.0
235,D3,16.5,1.375,95,100.0
236,B-2,16.5,0.25,95,100.0
237,E3,16.5,0.25,95,100.0
238,E4,17.0,0.5,95,100.0
239,A3,17.0,0.5,95,100.0
240,A3,17.0,0.125,95,100.0
241,E2,17.0,0.125,95,100.0
242,E2,17.125,0.125,95,100.0
243,E2,17.25,0.125,95,100.0
244,C#3,17.25,0.125,95,100.0
245,E2,17.375,0.125,95,100.0
246,D4,17.5,1.5,95,100.0
247,G3,17.5,1.5,95,100.0
248,D5,17.875,0.125,95,100.0
249,G1,18.0,0.375,95,100.0
250,G3,18.0,0.375,95,100.0
251,G5,18.0,0.375,95,100.0
252,A3,18.0,0.25,95,100.0
253,C3,18.0,0.25,95,100.0
254,E1,18.375,0.125,95,100.0
255,E3,18.375,0.125,95,100.0
256,E5,18.375,0.125,95,100.0
257,B2,18.375,0.125,95,100.0
258,C2,18.5,0.5,95,100.0
259,C4,18.5,0.5,95,100.0
260,C6,18.5,0.5,95,100.0
261,A2,18.5,0.25,95,100.0
262,G4,19.0,0.375,95,100.0
263,A1,19.0,0.375,95,100.0
264,A3,19.0,0.375,95,100.0
265,A5,19.0,0.375,95,100.0
266,A3,19.0,0.25,95,100.0
267,B2,19.0,0.25,95,100.0
268,E4,19.375,0.125,95,100.0
269,E2,19.375,0.125,95,100.0
270,E3,19.375,0.125,95,100.0
271,E5,19.375,0.125,95,100.0
272,C3,19.375,0.125,95,100.0
273,C5,19.5,0.5,95,100.0
274,D2,19.5,0.5,95,100.0
275,D3,19.5,0.5,95,100.0
276,D5,19.5,0.5,95,100.0
277,A2,19.5,0.25,95,100.0
278,A4,20.0,0.375,95,100.0
279,D2,20.0,0.375,95,100.0
280,D3,20.0,0.375,95,100.0
281,D5,20.0,0.375,95,100.0
282,A3,20.0,0.125,95,100.0
283,D3,20.0,0.125,95,100.0
284,C3,20.125,0.125,95,100.0
285,B2,20.25,0.125,95,100.0
286,E4,20.375,0.125,95,100.0
287,C2,20.375,0.125,95,100.0
288,C3,20.375,0.125,95,100.0
289,C5,20.375,0.125,95,100.0
290,A2,20.375,0.125,95,100.0
291,D4,20.5,0.5,95,100.0
292,A1,20.5,1.0,95,100.0
293,A2,20.5,1.5,95,100.0
294,A4,20.5,0.5,95,100.0
295,G2,20.5,0.125,95,100.0
296,D4,21.0,0.375,95,100.0
297,A3,21.0,0.125,95,100.0
298,E2,21.0,0.125,95,100.0
299,B-2,21.0,0.125,95,100.0
300,E2,21.125,0.125,95,100.0
301,E2,21.25,0.125,95,100.0
302,C4,21.375,0.125,95,100.0
303,E2,21.375,0.125,95,100.0
304,E1,21.5,1.0,95,100.0
305,C#3,21.5,0.25,95,100.0
306,A3,21.5,1.0,95,100.0
307,E3,21.5,1.0,95,100.0
308,D5,21.5,1.0,127,100.0
309,A4,21.5,1.0,127,100.0
310,E4,21.5,1.0,127,100.0
311,C5,21.5,1.0,95,100.0
312,A4,21.5,1.0,95,100.0
313,A2,22.0,0.25,95,100.0
314,B-2,22.0,0.25,95,100.0
315,B-2,22.25,0.25,95,100.0
316,C2,22.5,1.5,95,100.0
317,G4,22.5,1.0,95,100.0
318,E4,22.5,1.0,95,100.0
319,C4,22.5,1.0,95,100.0
320,D5,22.5,1.5,127,100.0
321,A4,22.5,1.5,127,100.0
322,E4,22.5,1.5,127,100.0
323,C5,22.5,1.5,95,100.0
324,A4,22.5,1.5,95,100.0
325,B-2,22.5,0.25,95,100.0
326,E3,22.5,0.25,95,100.0
327,E2,23.0,0.25,95,100.0
328,C#3,23.25,0.25,95,100.0
329,G#3,23.5,0.5,127,100.0
330,G4,23.5,1.5,95,100.0
331,E4,23.5,1.5,95,100.0
332,C4,23.5,1.5,95,100.0
333,C#2,24.0,0.5,95,100.0
334,C#4,24.0,0.5,127,100.0
335,G#2,24.0,0.25,95,100.0
336,E-3,24.0,0.25,95,100.0
337,F2,24.0,0.25,95,100.0
338,C#2,24.5,1.25,95,100.0
339,C#4,24.5,0.5,127,100.0
340,F2,24.5,0.25,95,100.0
341,C#4,25.0,0.5,127,100.0
342,C#4,25.0,2.0,95,100.0
343,E3,25.0,2.0,95,100.0
344,G#2,25.0,0.25,95,100.0
345,E2,25.0,0.25,95,100.0
346,B3,25.5,1.0,127,100.0
347,E1,25.75,0.25,95,100.0
348,B-2,25.75,0.25,95,100.0
349,E2,25.75,0.25,95,100.0
350,B1,26.0,0.5,95,100.0
351,G#2,26.0,0.25,95,100.0
352,E-3,26.0,0.25,95,100.0
353,F2,26.0,0.25,95,100.0
354,B1,26.5,1.25,95,100.0
355,F2,26.5,0.25,95,100.0
356,B3,27.0,2.0,95,100.0
357,F#3,27.0,2.0,95,100.0
358,G#2,27.0,0.25,95,100.0
359,E2,27.0,0.25,95,100.0
360,E1,27.75,0.25,95,100.0
361,B3,27.75,0.25,127,100.0
362,B-2,27.75,0.25,95,100.0
363,E2,27.75,0.25,95,100.0
364,B1,28.0,0.5,95,100.0
365,B3,28.0,0.5,127,100.0
366,G#2,28.0,0.25,95,100.0
367,E-3,28.0,0.25,95,100.0
368,F2,28.0,0.25,95,100.0
369,B1,28.5,0.5,95,100.0
370,B3,28.5,0.5,127,100.0
371,F2,28.5,0.25,95,100.0
372,E1,29.0,0.5,95,100.0
373,B3,29.0,0.5,127,100.0
374,B3,29.0,2.0,95,100.0
375,F#3,29.0,2.0,95,100.0
376,G#2,29.0,0.25,95,100.0
377,E2,29.0,0.25,95,100.0
378,F#1,29.5,0.5,95,100.0
379,A3,29.5,1.0,127,100.0
380,B-2,29.75,0.25,95,100.0
381,E2,29.75,0.25,95,100.0
382,A1,30.0,0.5,95,100.0
383,G#2,30.0,0.25,95,100.0
384,E-3,30.0,0.25,95,100.0
385,F2,30.0,0.25,95,100.0
386,A1,30.5,0.5,95,100.0
387,F#3,30.5,0.5,127,100.0
388,F2,30.5,0.25,95,100.0
389,E1,31.0,0.5,95,100.0
390,E3,31.0,0.5,127,100.0
391,A3,31.0,2.0,95,100.0
392,E3,31.0,2.0,95,100.0
393,G#2,31.0,0.25,95,100.0
394,E2,31.0,0.25,95,100.0
395,F#1,31.5,0.5,95,100.0
396,F#3,31.5,0.5,127,100.0
397,B-2,31.75,0.25,95,100.0
398,E2,31.75,0.25,95,100.0
399,C#2,32.0,0.5,95,100.0
400,C#4,32.0,1.0,127,100.0
401,G#2,32.0,0.25,95,100.0
402,E-3,32.0,0.25,95,100.0
403,F2,32.0,0.25,95,100.0
404,F#1,32.5,0.5,95,100.0
405,F2,32.5,0.25,95,100.0
406,C#2,33.0,0.5,95,100.0
407,C#4,33.0,0.5,127,100.0
408,C#4,33.0,2.0,95,100.0
409,A3,33.0,2.0,95,100.0
410,G#2,33.0,0.25,95,100.0
411,E2,33.0,0.25,95,100.0
412,B1,33.5,2.25,95,100.0
413,B3,33.5,2.25,127,100.0
414,B-2,33.75,0.25,95,100.0
415,E2,33.75,0.25,95,100.0
416,G#2,34.0,0.25,95,100.0
417,E-3,34.0,0.25,95,100.0
418,F2,34.0,0.25,95,100.0
419,F2,34.5,0.25,95,100.0
420,B3,35.0,2.0,95,100.0
421,F#3,35.0,2.0,95,100.0
422,G#2,35.0,0.25,95,100.0
423,E2,35.0,0.25,95,100.0
424,F#1,35.75,0.25,95,100.0
425,A3,35.75,0.25,127,100.0
426,B-2,35.75,0.25,95,100.0
427,E2,35.75,0.25,95,100.0
428,B1,36.0,1.0,95,100.0
429,B3,36.0,1.5,127,100.0
430,G#2,36.0,0.25,95,100.0
431,E-3,36.0,0.25,95,100.0
432,F2,36.0,0.25,95,100.0
433,F2,36.5,0.25,95,100.0
434,B1,37.0,0.5,95,100.0
435,B3,37.0,1.5,95,100.0
436,F#3,37.0,1.5,95,100.0
437,G#2,37.0,0.25,95,100.0
438,E2,37.0,0.25,95,100.0
439,G#1,37.5,2.25,95,100.0
440,G#3,37.5,2.25,127,100.0
441,B-2,37.75,0.25,95,100.0
442,E2,37.75,0.25,95,100.0
443,G#2,38.0,0.25,95,100.0
444,E-3,38.0,0.25,95,100.0
445,F2,38.0,0.25,95,100.0
446,F2,38.5,0.25,95,100.0
447,G#3,38.5,2.5,95,100.0
448,E-3,38.5,2.5,95,100.0
449,G#2,39.0,0.25,95,100.0
450,E2,39.0,0.25,95,100.0
451,E1,39.75,0.25,95,100.0
452,G#3,39.75,0.25,127,100.0
453,B-2,39.75,0.25,95,100.0
454,E2,39.75,0.25,95,100.0
455,A1,40.0,1.0,95,100.0
456,A3,40.0,1.0,127,100.0
457,G#2,40.0,0.25,95,100.0
458,E-3,40.0,0.25,95,100.0
459,F2,40.0,0.25,95,100.0
460,F2,40.5,0.25,95,100.0
461,A1,41.0,0.5,95,100.0
462,A3,41.0,0.5,127,100.0
463,A3,41.0,1.5,95,100.0
464,E3,41.0,1.5,95,100.0
465,G#2,41.0,0.25,95,100.0
466,E2,41.0,0.25,95,100.0
467,F#1,41.5,1.0,95,100.0
468,F#3,41.5,1.5,127,100.0
469,B-2,41.75,0.25,95,100.0
470,E2,41.75,0.25,95,100.0
471,G#2,42.0,0.25,95,100.0
472,E-3,42.0,0.25,95,100.0
473,F2,42.0,0.25,95,100.0
474,F#1,42.5,0.5,95,100.0
475,F2,42.5,0.25,95,100.0
476,F#3,42.5,2.5,95,100.0
477,C#3,42.5,2.5,95,100.0
478,E1,43.0,0.5,95,100.0
479,E3,43.0,0.5,127,100.0
480,G#2,43.0,0.25,95,100.0
481,E2,43.0,0.25,95,100.0
482,F#1,43.5,0.5,95,100.0
483,F#3,43.5,0.5,127,100.0
484,F2,43.5,0.25,95,100.0
485,B4,43.75,0.25,95,100.0
486,B-2,43.75,0.25,95,100.0
487,E2,43.75,0.25,95,100.0
488,G#1,44.0,0.5,95,100.0
489,G#3,44.0,0.5,127,100.0
490,B4,44.0,4.0,95,100.0
491,E-5,44.0,4.0,95,100.0
492,G#4,44.0,4.0,95,100.0
493,F2,44.0,0.25,95,100.0
494,C#3,44.0,0.25,95,100.0
495,B-2,44.0,0.25,95,100.0
496,E-3,44.0,0.25,95,100.0
497,G#1,44.5,0.5,95,100.0
498,B3,44.5,0.5,127,100.0
499,B-2,44.5,0.25,95,100.0
500,G#2,45.0,0.75,95,100.0
501,B3,45.0,0.5,127,100.0
502,E-4,45.0,4.0,95,100.0
503,B3,45.0,4.0,95,100.0
504,G#3,45.0,4.0,95,100.0
505,E-3,45.0,4.0,95,100.0
506,E2,45.0,0.25,95,100.0
507,B-2,45.0,0.25,95,100.0
508,E-3,45.0,0.25,95,100.0
509,G#3,45.5,0.25,127,100.0
510,B-2,45.5,0.25,95,100.0
511,E-2,45.75,0.25,95,100.0
512,C#4,45.75,0.5,127,100.0
513,G#1,46.0,0.5,95,100.0
514,F2,46.0,0.25,95,100.0
515,B-2,46.0,0.25,95,100.0
516,E-3,46.0,0.25,95,100.0
517,G#3,46.25,0.25,127,100.0
518,G#1,46.5,0.5,95,100.0
519,B3,46.5,0.75,127,100.0
520,F2,46.5,0.25,95,100.0
521,B-2,46.5,0.25,95,100.0
522,G#2,47.0,0.75,95,100.0
523,B-2,47.0,0.25,95,100.0
524,E-3,47.0,0.25,95,100.0
525,E2,47.0,0.25,95,100.0
526,G#3,47.25,0.25,127,100.0
527,F#3,47.5,0.5,127,100.0
528,B-2,47.5,0.25,95,100.0
529,E-2,47.75,0.25,95,100.0
530,G#1,48.0,0.5,95,100.0
531,G#5,48.0,0.25,95,100.0
532,G#3,48.0,4.0,127,100.0
533,F2,48.0,0.25,95,100.0
534,C#3,48.0,0.25,95,100.0
535,B-2,48.0,0.25,95,100.0
536,E-3,48.0,0.25,95,100.0
537,G5,48.25,0.25,95,100.0
538,G#1,48.5,0.5,95,100.0
539,F#5,48.5,0.25,95,100.0
540,B-2,48.5,0.25,95,100.0
541,F5,48.75,0.25,95,100.0
542,G#2,49.0,0.75,95,100.0
543,E5,49.0,0.25,95,100.0
544,E2,49.0,0.25,95,100.0
545,B-2,49.0,0.25,95,100.0
546,E-3,49.0,0.25,95,100.0
547,E-5,49.25,0.25,95,100.0
548,D5,49.5,0.25,95,100.0
549,B-2,49.5,0.25,95,100.0
550,E-2,49.75,0.25,95,100.0
551,C#5,49.75,0.25,95,100.0
552,G#2,50.0,0.25,95,100.0
553,C5,50.0,0.25,95,100.0
554,F2,50.0,0.25,95,100.0
555,B-2,50.0,0.25,95,100.0
556,E-3,50.0,0.25,95,100.0
557,F#2,50.25,0.25,95,100.0
558,B4,50.25,0.25,95,100.0
559,E2,50.5,0.25,95,100.0
560,B-4,50.5,0.25,95,100.0
561,F2,50.5,0.25,95,100.0
562,B-2,50.5,0.25,95,100.0
563,F#2,50.75,0.25,95,100.0
564,A4,50.75,0.25,95,100.0
565,F#2,51.0,0.25,95,100.0
566,G#4,51.0,0.25,95,100.0
567,C3,51.0,0.25,95,100.0
568,B-2,51.0,0.25,95,100.0
569,E-3,51.0,0.25,95,100.0
570,E2,51.0,0.25,95,100.0
571,E2,51.25,0.25,95,100.0
572,G4,51.25,0.25,95,100.0
573,B2,51.25,0.25,95,100.0
574,E-2,51.5,0.25,95,100.0
575,F#4,51.5,0.25,95,100.0
576,B-2,51.5,0.25,95,100.0
577,E2,51.75,0.25,95,100.0
578,F4,51.75,0.25,95,100.0
579,A2,51.75,0.25,95,100.0
580,F#1,52.0,0.5,95,100.0
581,F#3,52.0,0.5,127,100.0
582,B4,52.0,4.0,95,100.0
583,E-5,52.0,4.0,95,100.0
584,G#4,52.0,4.0,95,100.0
585,F2,52.0,0.25,95,100.0
586,C#3,52.0,0.25,95,100.0
587,B-2,52.0,0.25,95,100.0
588,E-3,52.0,0.25,95,100.0
589,F#1,52.5,0.5,95,100.0
590,F#3,52.5,0.5,127,100.0
591,B-2,52.5,0.25,95,100.0
592,F#2,53.0,0.75,95,100.0
593,F#3,53.0,0.5,127,100.0
594,E-4,53.0,4.0,95,100.0
595,B3,53.0,4.0,95,100.0
596,G#3,53.0,4.0,95,100.0
597,E-3,53.0,4.0,95,100.0
598,E2,53.0,0.25,95,100.0
599,B-2,53.0,0.25,95,100.0
600,E-3,53.0,0.25,95,100.0
601,E3,53.5,0.25,127,100.0
602,B-2,53.5,0.25,95,100.0
603,C#2,53.75,0.25,95,100.0
604,G#3,53.75,0.5,127,100.0
605,F#1,54.0,0.5,95,100.0
606,F2,54.0,0.25,95,100.0
607,B-2,54.0,0.25,95,100.0
608,E-3,54.0,0.25,95,100.0
609,E3,54.25,0.25,127,100.0
610,F#1,54.5,0.5,95,100.0
611,F#3,54.5,0.75,127,100.0
612,F2,54.5,0.25,95,100.0
613,B-2,54.5,0.25,95,100.0
614,F#2,55.0,0.75,95,100.0
615,B-2,55.0,0.25,95,100.0
616,E-3,55.0,0.25,95,100.0
617,E2,55.0,0.25,95,100.0
618,E3,55.25,0.25,127,100.0
619,C#3,55.5,0.5,127,100.0
620,B-2,55.5,0.25,95,100.0
621,C#2,55.75,0.25,95,100.0
622,F#1,56.0,0.5,95,100.0
623,C#3,56.0,3.5,127,100.0
624,F#4,56.0,4.0,95,100.0
625,A4,56.0,4.0,95,100.0
626,C#5,56.0,4.0,95,100.0
627,F2,56.0,0.25,95,100.0
628,C#3,56.0,0.25,95,100.0
629,B-2,56.0,0.25,95,100.0
630,E-3,56.0,0.25,95,100.0
631,F#1,56.5,0.5,95,100.0
632,B-2,56.5,0.25,95,100.0
633,F#2,57.0,0.75,95,100.0
634,C#4,57.0,4.0,95,100.0
635,A3,57.0,4.0,95,100.0
636,F#3,57.0,4.0,95,100.0
637,C#3,57.0,4.0,95,100.0
638,E2,57.0,0.25,95,100.0
639,B-2,57.0,0.25,95,100.0
640,E-3,57.0,0.25,95,100.0
641,B-2,57.5,0.25,95,100.0
642,C#2,57.75,0.25,95,100.0
643,F#1,58.0,0.5,95,100.0
644,C3,58.0,0.25,95,100.0
645,F2,58.0,0.25,95,100.0
646,B-2,58.0,0.25,95,100.0
647,E-3,58.0,0.25,95,100.0
648,B2,58.25,0.25,95,100.0
649,F#1,58.5,0.5,95,100.0
650,C3,58.5,0.25,95,100.0
651,F2,58.5,0.25,95,100.0
652,B-2,58.5,0.25,95,100.0
653,A2,58.75,0.25,95,100.0
654,F#2,59.0,0.25,95,100.0
655,B2,59.0,0.25,95,100.0
656,B-2,59.0,0.25,95,100.0
657,E-3,59.0,0.25,95,100.0
658,E2,59.0,0.25,95,100.0
659,C#2,59.25,0.25,95,100.0
660,C3,59.25,0.25,95,100.0
661,A1,59.5,0.25,95,100.0
662,G#3,59.5,0.25,127,100.0
663,E2,59.5,0.125,95,100.0
664,D3,59.5,0.125,95,100.0
665,B-2,59.5,0.125,95,100.0
666,E2,59.625,0.125,95,100.0
667,B1,59.75,0.25,95,100.0
668,G#3,59.75,0.25,127,100.0
669,E2,59.75,0.125,95,100.0
670,B2,59.75,0.125,95,100.0
671,E2,59.875,0.125,95,100.0
672,E2,60.0,0.5,95,100.0
673,G#3,60.0,0.5,127,100.0
674,E3,60.0,0.75,95,100.0
675,B2,60.0,0.75,95,100.0
676,G#2,60.0,0.75,95,100.0
677,B-2,60.0,0.25,95,100.0
678,C#3,60.0,0.25,95,100.0
679,C3,60.0,0.25,95,100.0
680,B2,60.25,0.25,95,100.0
681,C#2,60.5,0.25,95,100.0
682,E3,60.5,0.25,127,100.0
683,B-2,60.5,0.25,95,100.0
684,G2,60.5,0.25,95,100.0
685,F#2,60.75,0.5,95,100.0
686,A3,60.75,0.5,127,100.0
687,F#3,60.75,0.75,95,100.0
688,C#3,60.75,0.75,95,100.0
689,A2,60.75,0.75,95,100.0
690,C#3,60.75,0.25,95,100.0
691,C3,60.75,0.25,95,100.0
692,B-2,61.0,0.25,95,100.0
693,B2,61.0,0.25,95,100.0
694,C#2,61.25,0.25,95,100.0
695,E3,61.25,0.25,127,100.0
696,G2,61.25,0.25,95,100.0
697,B1,61.5,1.0,95,100.0
698,F#3,61.5,2.0,127,100.0
699,E3,61.5,1.5,95,100.0
700,B2,61.5,1.5,95,100.0
701,F#2,61.5,1.5,95,100.0
702,B-2,61.5,0.25,95,100.0
703,C#3,61.5,0.25,95,100.0
704,B-2,62.0,0.25,95,100.0
705,B2,62.0,0.25,95,100.0
706,E2,62.0,0.25,95,100.0
707,A2,62.25,0.25,95,100.0
708,B1,62.5,0.5,95,100.0
709,B-2,62.5,0.25,95,100.0
710,D3,62.5,0.25,95,100.0
711,E2,62.5,0.25,95,100.0
712,B2,62.75,0.25,95,100.0
713,E1,63.0,0.25,95,100.0
714,E-3,63.0,0.875,95,100.0
715,B-2,63.0,0.125,95,100.0
716,D3,63.0,0.125,95,100.0
717,E2,63.0,0.125,95,100.0
718,E2,63.125,0.125,95,100.0
719,F#1,63.25,0.25,95,100.0
720,C3,63.25,0.125,95,100.0
721,E2,63.25,0.125,95,100.0
722,E2,63.375,0.125,95,100.0
723,G#1,63.5,0.25,95,100.0
724,G#3,63.5,0.25,127,100.0
725,B-2,63.5,0.25,95,100.0
726,B2,63.5,0.25,95,100.0
727,E2,63.5,0.25,95,100.0
728,A1,63.75,0.25,95,100.0
729,G#3,63.75,0.25,127,100.0
730,A2,63.75,0.25,95,100.0
731,E2,63.75,0.25,95,100.0
732,E-3,63.875,0.125,95,100.0
733,E2,64.0,0.5,95,100.0
734,G#3,64.0,0.5,127,100.0
735,E3,64.0,0.75,95,100.0
736,B2,64.0,0.75,95,100.0
737,G#2,64.0,0.75,95,100.0
738,F#4,64.0,4.0,95,100.0
739,A4,64.0,4.0,95,100.0
740,C#5,64.0,4.0,95,100.0
741,B-2,64.0,0.25,95,100.0
742,C#3,64.0,0.25,95,100.0
743,C3,64.0,0.25,95,100.0
744,B2,64.25,0.25,95,100.0
745,C#2,64.5,0.25,95,100.0
746,E3,64.5,0.25,127,100.0
747,B-2,64.5,0.25,95,100.0
748,G2,64.5,0.25,95,100.0
749,F#2,64.75,0.5,95,100.0
750,A3,64.75,0.5,127,100.0
751,F#3,64.75,0.75,95,100.0
752,C#3,64.75,0.75,95,100.0
753,A2,64.75,0.75,95,100.0
754,C#3,64.75,0.25,95,100.0
755,C3,64.75,0.25,95,100.0
756,C#4,65.0,4.0,95,100.0
757,A3,65.0,4.0,95,100.0
758,F#3,65.0,4.0,95,100.0
759,C#3,65.0,4.0,95,100.0
760,B-2,65.0,0.25,95,100.0
761,B2,65.0,0.25,95,100.0
762,C#2,65.25,0.25,95,100.0
763,E3,65.25,0.25,127,100.0
764,G2,65.25,0.25,95,100.0
765,B1,65.5,1.0,95,100.0
766,F#3,65.5,2.0,127,100.0
767,E3,65.5,1.5,95,100.0
768,B2,65.5,1.5,95,100.0
769,F#2,65.5,1.5,95,100.0
770,B-2,65.5,0.25,95,100.0
771,C#3,65.5,0.25,95,100.0
772,E5,66.0,1.0,127,100.0
773,B-2,66.0,0.25,95,100.0
774,B2,66.0,0.25,95,100.0
775,E2,66.0,0.25,95,100.0
776,A2,66.25,0.25,95,100.0
777,B1,66.5,0.5,95,100.0
778,B-2,66.5,0.25,95,100.0
779,D3,66.5,0.25,95,100.0
780,E2,66.5,0.25,95,100.0
781,B2,66.75,0.25,95,100.0
782,E1,67.0,0.25,95,100.0
783,E-3,67.0,0.875,95,100.0
784,E-5,67.0,1.0,127,100.0
785,B-2,67.0,0.125,95,100.0
786,D3,67.0,0.125,95,100.0
787,E2,67.0,0.125,95,100.0
788,E2,67.125,0.125,95,100.0
789,F#1,67.25,0.25,95,100.0
790,C3,67.25,0.125,95,100.0
791,E2,67.25,0.125,95,100.0
792,E2,67.375,0.125,95,100.0
793,G#1,67.5,0.25,95,100.0
794,G#3,67.5,0.25,127,100.0
795,B-2,67.5,0.25,95,100.0
796,B2,67.5,0.25,95,100.0
797,E2,67.5,0.25,95,100.0
798,A1,67.75,0.25,95,100.0
799,G#3,67.75,0.25,127,100.0
800,A2,67.75,0.25,95,100.0
801,E2,67.75,0.25,95,100.0
802,E-3,67.875,0.125,95,100.0
803,E2,68.0,0.5,95,100.0
804,E5,68.0,2.0,127,100.0
805,G#3,68.0,0.5,127,100.0
806,E3,68.0,0.75,95,100.0
807,B2,68.0,0.75,95,100.0
808,G#2,68.0,0.75,95,100.0
809,B4,68.0,4.0,95,100.0
810,E5,68.0,4.0,95,100.0
811,B-2,68.0,0.25,95,100.0
812,C#3,68.0,0.25,95,100.0
813,C3,68.0,0.25,95,100.0
814,B2,68.25,0.25,95,100.0
815,C#2,68.5,0.25,95,100.0
816,E3,68.5,0.25,127,100.0
817,B-2,68.5,0.25,95,100.0
818,G2,68.5,0.25,95,100.0
819,F#2,68.75,0.5,95,100.0
820,A3,68.75,0.5,127,100.0
821,F#3,68.75,0.75,95,100.0
822,C#3,68.75,0.75,95,100.0
823,A2,68.75,0.75,95,100.0
824,C#3,68.75,0.25,95,100.0
825,C3,68.75,0.25,95,100.0
826,G#3,69.0,0.75,95,100.0
827,E3,69.0,0.75,95,100.0
828,B-2,69.0,0.25,95,100.0
829,B2,69.0,0.25,95,100.0
830,C#2,69.25,0.25,95,100.0
831,E3,69.25,0.25,127,100.0
832,G2,69.25,0.25,95,100.0
833,B1,69.5,1.0,95,100.0
834,F#3,69.5,2.0,127,100.0
835,E3,69.5,1.5,95,100.0
836,B2,69.5,1.5,95,100.0
837,F#2,69.5,1.5,95,100.0
838,B-2,69.5,0.25,95,100.0
839,C#3,69.5,0.25,95,100.0
840,A3,69.75,0.75,95,100.0
841,F#3,69.75,0.75,95,100.0
842,B-2,70.0,0.25,95,100.0
843,B2,70.0,0.25,95,100.0
844,E2,70.0,0.25,95,100.0
845,A2,70.25,0.25,95,100.0
846,B1,70.5,0.5,95,100.0
847,F#3,70.5,2.0,95,100.0
848,B2,70.5,2.0,95,100.0
849,B-2,70.5,0.25,95,100.0
850,D3,70.5,0.25,95,100.0
851,E2,70.5,0.25,95,100.0
852,B2,70.75,0.25,95,100.0
853,E1,71.0,0.25,95,100.0
854,E-3,71.0,0.875,95,100.0
855,B-2,71.0,0.125,95,100.0
856,D3,71.0,0.125,95,100.0
857,E2,71.0,0.125,95,100.0
858,E2,71.125,0.125,95,100.0
859,F#1,71.25,0.25,95,100.0
860,C3,71.25,0.125,95,100.0
861,E2,71.25,0.125,95,100.0
862,E2,71.375,0.125,95,100.0
863,G#1,71.5,0.25,95,100.0
864,G#3,71.5,0.25,127,100.0
865,B-2,71.5,0.25,95,100.0
866,B2,71.5,0.25,95,100.0
867,E2,71.5,0.25,95,100.0
868,A1,71.75,0.25,95,100.0
869,G#3,71.75,0.25,127,100.0
870,A2,71.75,0.25,95,100.0
871,E2,71.75,0.25,95,100.0
872,E-3,71.875,0.125,95,100.0
873,E2,72.0,0.5,95,100.0
874,G#3,72.0,0.5,127,100.0
875,E3,72.0,0.75,95,100.0
876,B2,72.0,0.75,95,100.0
877,G#2,72.0,0.75,95,100.0
878,B-2,72.0,0.25,95,100.0
879,C#3,72.0,0.25,95,100.0
880,C3,72.0,0.25,95,100.0
881,B2,72.25,0.25,95,100.0
882,C#2,72.5,0.25,95,100.0
883,E3,72.5,0.25,127,100.0
884,B-2,72.5,0.25,95,100.0
885,G2,72.5,0.25,95,100.0
886,F#2,72.75,0.5,95,100.0
887,A3,72.75,0.5,127,100.0
888,F#3,72.75,0.75,95,100.0
889,C#3,72.75,0.75,95,100.0
890,A2,72.75,0.75,95,100.0
891,C#3,72.75,0.25,95,100.0
892,C3,72.75,0.25,95,100.0
893,G#3,73.0,0.75,95,100.0
894,E3,73.0,0.75,95,100.0
895,B-2,73.0,0.25,95,100.0
896,B2,73.0,0.25,95,100.0
897,C#2,73.25,0.25,95,100.0
898,E3,73.25,0.25,127,100.0
899,G2,73.25,0.25,95,100.0
900,B1,73.5,1.0,95,100.0
901,F#3,73.5,1.5,127,100.0
902,E3,73.5,1.5,95,100.0
903,B2,73.5,1.5,95,100.0
904,F#2,73.5,1.5,95,100.0
905,B-2,73.5,0.25,95,100.0
906,C#3,73.5,0.25,95,100.0
907,A3,73.75,0.75,95,100.0
908,F#3,73.75,0.75,95,100.0
909,E5,74.0,1.0,127,100.0
910,B-2,74.0,0.25,95,100.0
911,B2,74.0,0.25,95,100.0
912,E2,74.0,0.25,95,100.0
913,A2,74.25,0.25,95,100.0
914,B1,74.5,0.5,95,100.0
915,F#3,74.5,2.5,95,100.0
916,B2,74.5,2.5,95,100.0
917,B-2,74.5,0.25,95,100.0
918,D3,74.5,0.25,95,100.0
919,E2,74.5,0.25,95,100.0
920,B2,74.75,0.25,95,100.0
921,E1,75.0,0.25,95,100.0
922,E-3,75.0,0.875,95,100.0
923,E-5,75.0,1.0,127,100.0
924,A3,75.0,0.25,127,100.0
925,B-2,75.0,0.125,95,100.0
926,D3,75.0,0.125,95,100.0
927,E2,75.0,0.125,95,100.0
928,E2,75.125,0.125,95,100.0
929,F#1,75.25,0.25,95,100.0
930,G#3,75.25,0.25,127,100.0
931,C3,75.25,0.125,95,100.0
932,E2,75.25,0.125,95,100.0
933,E2,75.375,0.125,95,100.0
934,G#1,75.5,0.25,95,100.0
935,E3,75.5,0.5,127,100.0
936,B-2,75.5,0.25,95,100.0
937,B2,75.5,0.25,95,100.0
938,E2,75.5,0.25,95,100.0
939,A1,75.75,0.25,95,100.0
940,A2,75.75,0.25,95,100.0
941,E2,75.75,0.25,95,100.0
942,E-3,75.875,0.125,95,100.0
943,G1,76.0,0.375,95,100.0
944,G3,76.0,0.375,95,100.0
945,G3,76.0,0.375,95,100.0
946,C3,76.0,0.25,95,100.0
947,A3,76.0,0.25,95,100.0
948,E1,76.375,0.125,95,100.0
949,E3,76.375,0.125,95,100.0
950,E3,76.375,0.125,95,100.0
951,B2,76.375,0.125,95,100.0
952,C2,76.5,0.5,95,100.0
953,C4,76.5,0.5,95,100.0
954,C4,76.5,0.5,95,100.0
955,A2,76.5,0.25,95,100.0
956,A1,77.0,0.375,95,100.0
957,A3,77.0,0.375,95,100.0
958,A3,77.0,0.375,95,100.0
959,G#3,77.0,0.75,95,100.0
960,E3,77.0,0.75,95,100.0
961,A3,77.0,0.25,95,100.0
962,B2,77.0,0.25,95,100.0
963,E2,77.375,0.125,95,100.0
964,E3,77.375,0.125,95,100.0
965,E3,77.375,0.125,95,100.0
966,C3,77.375,0.125,95,100.0
967,D2,77.5,0.5,95,100.0
968,D3,77.5,0.5,95,100.0
969,D3,77.5,0.5,95,100.0
970,A2,77.5,0.25,95,100.0
971,A3,77.75,0.75,95,100.0
972,F#3,77.75,0.75,95,100.0
973,D2,78.0,0.375,95,100.0
974,D3,78.0,0.375,95,100.0
975,D3,78.0,0.375,95,100.0
976,A3,78.0,0.125,95,100.0
977,D3,78.0,0.125,95,100.0
978,C3,78.125,0.125,95,100.0
979,B2,78.25,0.125,95,100.0
980,C2,78.375,0.125,95,100.0
981,C3,78.375,0.125,95,100.0
982,C3,78.375,0.125,95,100.0
983,A2,78.375,0.125,95,100.0
984,A1,78.5,0.5,95,100.0
985,A2,78.5,0.5,95,100.0
986,A2,78.5,0.5,95,100.0
987,G2,78.5,0.125,95,100.0
988,F#3,78.5,2.5,95,100.0
989,B2,78.5,2.5,95,100.0
990,A1,79.0,0.5,95,100.0
991,A2,79.0,0.5,95,100.0
992,A2,79.0,0.5,95,100.0
993,A3,79.0,0.125,95,100.0
994,E2,79.0,0.125,95,100.0
995,B-2,79.0,0.125,95,100.0
996,E2,79.125,0.125,95,100.0
997,E2,79.25,0.125,95,100.0
998,E2,79.375,0.125,95,100.0
999,E2,79.5,1.0,95,100.0
1000,E3,79.5,1.0,95,100.0
1001,E3,79.5,1.0,95,100.0
1002,C#3,79.5,0.25,95,100.0
1003,A3,80.0,0.25,95,100.0
1004,A2,80.0,0.25,95,100.0
1005,B-2,80.0,0.25,95,100.0
1006,B-2,80.25,0.25,95,100.0
1007,D2,80.5,1.5,95,100.0
1008,D4,80.5,1.5,95,100.0
1009,D3,80.5,1.375,95,100.0
1010,B-2,80.5,0.25,95,100.0
1011,E3,80.5,0.25,95,100.0
1012,G#3,81.0,0.75,95,100.0
1013,E3,81.0,0.75,95,100.0
1014,A3,81.0,0.25,95,100.0
1015,E2,81.0,0.25,95,100.0
1016,C#3,81.25,0.25,95,100.0
1017,A3,81.75,0.75,95,100.0
1018,F#3,81.75,0.75,95,100.0
1019,D5,81.875,0.125,95,100.0
1020,G1,82.0,0.375,95,100.0
1021,G3,82.0,0.375,95,100.0
1022,G5,82.0,0.375,95,100.0
1023,A3,82.0,0.25,95,100.0
1024,C3,82.0,0.25,95,100.0
1025,E1,82.375,0.125,95,100.0
1026,E3,82.375,0.125,95,100.0
1027,E5,82.375,0.125,95,100.0
1028,B2,82.375,0.125,95,100.0
1029,C2,82.5,0.5,95,100.0
1030,C4,82.5,0.5,95,100.0
1031,C6,82.5,0.5,95,100.0
1032,A2,82.5,0.25,95,100.0
1033,F#3,82.5,2.5,95,100.0
1034,B2,82.5,2.5,95,100.0
1035,A1,83.0,0.375,95,100.0
1036,A3,83.0,0.375,95,100.0
1037,A5,83.0,0.375,95,100.0
1038,A3,83.0,0.25,95,100.0
1039,B2,83.0,0.25,95,100.0
1040,E2,83.375,0.125,95,100.0
1041,E3,83.375,0.125,95,100.0
1042,E5,83.375,0.125,95,100.0
1043,C3,83.375,0.125,95,100.0
1044,D2,83.5,0.5,95,100.0
1045,D3,83.5,0.5,95,100.0
1046,D5,83.5,0.5,95,100.0
1047,A2,83.5,0.25,95,100.0
1048,D2,84.0,0.375,95,100.0
1049,D3,84.0,0.375,95,100.0
1050,D5,84.0,0.375,95,100.0
1051,B4,84.0,4.0,95,100.0
1052,E5,84.0,4.0,95,100.0
1053,A3,84.0,0.125,95,100.0
1054,D3,84.0,0.125,95,100.0
1055,C3,84.125,0.125,95,100.0
1056,B2,84.25,0.125,95,100.0
1057,C2,84.375,0.125,95,100.0
1058,C3,84.375,0.125,95,100.0
1059,E5,84.375,0.125,95,100.0
1060,A2,84.375,0.125,95,100.0
1061,A1,84.5,0.5,95,100.0
1062,A2,84.5,0.5,95,100.0
1063,D5,84.5,0.125,95,100.0
1064,G2,84.5,0.125,95,100.0
1065,C5,84.625,0.125,95,100.0
1066,A4,84.75,0.25,95,100.0
1067,G4,85.0,0.375,95,100.0
1068,A1,85.0,0.5,95,100.0
1069,A2,85.0,0.5,95,100.0
1070,A3,85.0,0.125,95,100.0
1071,E2,85.0,0.125,95,100.0
1072,B-2,85.0,0.125,95,100.0
1073,E2,85.125,0.125,95,100.0
1074,E2,85.25,0.125,95,100.0
1075,E4,85.375,0.125,95,100.0
1076,E2,85.375,0.125,95,100.0
1077,C5,85.5,0.5,95,100.0
1078,E1,85.5,1.0,95,100.0
1079,C#3,85.5,0.25,95,100.0
1080,D5,85.5,1.0,127,100.0
1081,A4,85.5,1.0,127,100.0
1082,E4,85.5,1.0,127,100.0
1083,C5,85.5,1.0,95,100.0
1084,A4,85.5,1.0,95,100.0
1085,A4,86.0,0.375,95,100.0
1086,A2,86.0,0.25,95,100.0
1087,B-2,86.0,0.25,95,100.0
1088,B-2,86.25,0.25,95,100.0
1089,E4,86.375,0.125,95,100.0
1090,D4,86.5,0.5,95,100.0
1091,D2,86.5,1.5,95,100.0
1092,D5,86.5,1.5,127,100.0
1093,A4,86.5,1.5,127,100.0
1094,E4,86.5,1.5,127,100.0
1095,C5,86.5,1.5,95,100.0
1096,A4,86.5,1.5,95,100.0
1097,B-2,86.5,0.25,95,100.0
1098,E3,86.5,0.25,95,100.0
1099,D4,87.0,0.375,95,100.0
1100,E2,87.0,0.25,95,100.0
1101,C#3,87.25,0.25,95,100.0
1102,C4,87.375,0.125,95,100.0
1103,A3,87.5,0.5,95,100.0
1104,E3,87.5,0.5,95,100.0
1105,B3,87.75,0.25,127,100.0
1106,C#2,88.0,0.5,95,100.0
1107,C#4,88.0,0.5,127,100.0
1108,A3,88.0,0.25,95,100.0
1109,C3,88.0,0.25,95,100.0
1110,G#2,88.0,0.25,95,100.0
1111,E-3,88.0,0.25,95,100.0
1112,F2,88.0,0.25,95,100.0
1113,C#2,88.5,1.25,95,100.0
1114,C#4,88.5,0.5,127,100.0
1115,F2,88.5,0.25,95,100.0
1116,A3,88.5,0.5,95,100.0
1117,E3,88.5,0.5,95,100.0
1118,C#4,89.0,0.5,127,100.0
1119,E4,89.0,1.0,95,100.0
1120,A3,89.0,1.0,95,100.0
1121,G#2,89.0,0.25,95,100.0
1122,E2,89.0,0.25,95,100.0
1123,B3,89.5,2.25,127,100.0
1124,E1,89.75,0.25,95,100.0
1125,B-2,89.75,0.25,95,100.0
1126,E2,89.75,0.25,95,100.0
1127,B1,90.0,0.5,95,100.0
1128,D4,90.0,1.5,95,100.0
1129,G3,90.0,1.5,95,100.0
1130,G#2,90.0,0.25,95,100.0
1131,E-3,90.0,0.25,95,100.0
1132,F2,90.0,0.25,95,100.0
1133,B1,90.5,1.25,95,100.0
1134,F2,90.5,0.25,95,100.0
1135,G#2,91.0,0.25,95,100.0
1136,E2,91.0,0.25,95,100.0
1137,G4,91.5,0.375,95,100.0
1138,E1,91.75,0.25,95,100.0
1139,A3,91.75,0.25,127,100.0
1140,B-2,91.75,0.25,95,100.0
1141,E2,91.75,0.25,95,100.0
1142,E4,91.875,0.125,95,100.0
1143,C5,92.0,0.5,95,100.0
1144,B1,92.0,0.5,95,100.0
1145,B3,92.0,0.5,127,100.0
1146,G#2,92.0,0.25,95,100.0
1147,E-3,92.0,0.25,95,100.0
1148,F2,92.0,0.25,95,100.0
1149,A4,92.5,0.375,95,100.0
1150,B1,92.5,0.5,95,100.0
1151,B3,92.5,0.5,127,100.0
1152,F2,92.5,0.25,95,100.0
1153,E4,92.875,0.125,95,100.0
1154,D4,93.0,0.5,95,100.0
1155,F#1,93.0,0.5,95,100.0
1156,B3,93.0,0.5,127,100.0
1157,G#2,93.0,0.25,95,100.0
1158,E2,93.0,0.25,95,100.0
1159,D4,93.5,0.375,95,100.0
1160,G#1,93.5,0.5,95,100.0
1161,B3,93.5,0.5,127,100.0
1162,B-2,93.75,0.25,95,100.0
1163,E2,93.75,0.25,95,100.0
1164,C4,93.875,0.125,95,100.0
1165,A1,94.0,0.5,95,100.0
1166,A3,94.0,0.5,127,100.0
1167,A3,94.0,0.5,95,100.0
1168,E3,94.0,0.5,95,100.0
1169,G#2,94.0,0.25,95,100.0
1170,E-3,94.0,0.25,95,100.0
1171,F2,94.0,0.25,95,100.0
1172,A1,94.5,0.5,95,100.0
1173,F#3,94.5,0.5,127,100.0
1174,F2,94.5,0.25,95,100.0
1175,E1,95.0,0.5,95,100.0
1176,E3,95.0,0.5,127,100.0
1177,A3,95.0,0.5,95,100.0
1178,E3,95.0,0.5,95,100.0
1179,G#2,95.0,0.25,95,100.0
1180,E2,95.0,0.25,95,100.0
1181,F#1,95.5,0.5,95,100.0
1182,F#3,95.5,0.5,127,100.0
1183,G4,95.5,1.0,95,100.0
1184,E4,95.5,1.0,95,100.0
1185,C4,95.5,1.0,95,100.0
1186,B-2,95.75,0.25,95,100.0
1187,E2,95.75,0.25,95,100.0
1188,C#2,96.0,0.5,95,100.0
1189,C#4,96.0,0.5,127,100.0
1190,B4,96.0,4.0,95,100.0
1191,E5,96.0,4.0,95,100.0
1192,G#2,96.0,0.25,95,100.0
1193,E-3,96.0,0.25,95,100.0
1194,F2,96.0,0.25,95,100.0
1195,F#1,96.5,0.5,95,100.0
1196,F#3,96.5,0.5,127,100.0
1197,F2,96.5,0.25,95,100.0
1198,G4,96.5,1.5,95,100.0
1199,E4,96.5,1.5,95,100.0
1200,C4,96.5,1.5,95,100.0
1201,C#2,97.0,0.5,95,100.0
1202,C#4,97.0,0.5,127,100.0
1203,G#2,97.0,0.25,95,100.0
1204,E2,97.0,0.25,95,100.0
1205,B1,97.5,2.25,95,100.0
1206,B3,97.5,2.0,127,100.0
1207,B-2,97.75,0.25,95,100.0
1208,E2,97.75,0.25,95,100.0
1209,C#4,98.0,2.0,95,100.0
1210,E3,98.0,2.0,95,100.0
1211,G#2,98.0,0.25,95,100.0
1212,E-3,98.0,0.25,95,100.0
1213,F2,98.0,0.25,95,100.0
1214,F2,98.5,0.25,95,100.0
1215,G#2,99.0,0.25,95,100.0
1216,E2,99.0,0.25,95,100.0
1217,B3,99.5,0.25,127,100.0
1218,F#1,99.75,0.25,95,100.0
1219,B3,99.75,0.25,127,100.0
1220,B-2,99.75,0.25,95,100.0
1221,E2,99.75,0.25,95,100.0
1222,B1,100.0,1.0,95,100.0
1223,B3,100.0,0.5,127,100.0
1224,B3,100.0,2.0,95,100.0
1225,F#3,100.0,2.0,95,100.0
1226,G#2,100.0,0.25,95,100.0
1227,E-3,100.0,0.25,95,100.0
1228,F2,100.0,0.25,95,100.0
1229,B3,100.5,0.25,127,100.0
1230,F2,100.5,0.25,95,100.0
1231,B3,100.75,0.5,127,100.0
1232,B1,101.0,0.5,95,100.0
1233,G#2,101.0,0.25,95,100.0
1234,E2,101.0,0.25,95,100.0
1235,B3,101.25,0.25,127,100.0
1236,G#1,101.5,2.25,95,100.0
1237,G#3,101.5,2.0,127,100.0
1238,B-2,101.75,0.25,95,100.0
1239,E2,101.75,0.25,95,100.0
1240,B3,102.0,2.0,95,100.0
1241,F#3,102.0,2.0,95,100.0
1242,G#2,102.0,0.25,95,100.0
1243,E-3,102.0,0.25,95,100.0
1244,F2,102.0,0.25,95,100.0
1245,F2,102.5,0.25,95,100.0
1246,G#2,103.0,0.25,95,100.0
1247,E2,103.0,0.25,95,100.0
1248,F#3,103.5,0.25,127,100.0
1249,E1,103.75,0.25,95,100.0
1250,G#3,103.75,0.25,127,100.0
1251,B-2,103.75,0.25,95,100.0
1252,E2,103.75,0.25,95,100.0
1253,A1,104.0,1.0,95,100.0
1254,A3,104.0,0.5,127,100.0
1255,A3,104.0,2.0,95,100.0
1256,E3,104.0,2.0,95,100.0
1257,B4,104.0,4.0,95,100.0
1258,E5,104.0,4.0,95,100.0
1259,G#2,104.0,0.25,95,100.0
1260,E-3,104.0,0.25,95,100.0
1261,F2,104.0,0.25,95,100.0
1262,A3,104.5,0.25,127,100.0
1263,F2,104.5,0.25,95,100.0
1264,A3,104.75,0.5,127,100.0
1265,A1,105.0,0.5,95,100.0
1266,G#2,105.0,0.25,95,100.0
1267,E2,105.0,0.25,95,100.0
1268,A3,105.25,0.25,127,100.0
1269,F#1,105.5,1.0,95,100.0
1270,F#3,105.5,2.0,127,100.0
1271,B-2,105.75,0.25,95,100.0
1272,E2,105.75,0.25,95,100.0
1273,C#4,106.0,2.0,95,100.0
1274,A3,106.0,2.0,95,100.0
1275,G#2,106.0,0.25,95,100.0
1276,E-3,106.0,0.25,95,100.0
1277,F2,106.0,0.25,95,100.0
1278,F#1,106.5,0.5,95,100.0
1279,F2,106.5,0.25,95,100.0
1280,E1,107.0,0.5,95,100.0
1281,G#2,107.0,0.25,95,100.0
1282,E2,107.0,0.25,95,100.0
1283,F#1,107.5,0.5,95,100.0
1284,G#3,107.5,0.5,127,100.0
1285,F2,107.5,0.25,95,100.0
1286,B-2,107.75,0.25,95,100.0
1287,E2,107.75,0.25,95,100.0
1288,G#1,108.0,0.5,95,100.0
1289,C#4,108.0,0.5,127,100.0
1290,B3,108.0,2.0,95,100.0
1291,F#3,108.0,2.0,95,100.0
1292,F2,108.0,0.25,95,100.0
1293,C#3,108.0,0.25,95,100.0
1294,B-2,108.0,0.25,95,100.0
1295,E-3,108.0,0.25,95,100.0
1296,G#1,108.5,0.5,95,100.0
1297,B3,108.5,0.5,127,100.0
1298,B-2,108.5,0.25,95,100.0
1299,G#2,109.0,0.75,95,100.0
1300,G#3,109.0,0.5,127,100.0
1301,E2,109.0,0.25,95,100.0
1302,B-2,109.0,0.25,95,100.0
1303,E-3,109.0,0.25,95,100.0
1304,C#4,109.5,1.0,127,100.0
1305,B-2,109.5,0.25,95,100.0
1306,E-2,109.75,0.25,95,100.0
1307,G#1,110.0,0.5,95,100.0
1308,B3,110.0,1.5,95,100.0
1309,F#3,110.0,1.5,95,100.0
1310,F2,110.0,0.25,95,100.0
1311,B-2,110.0,0.25,95,100.0
1312,E-3,110.0,0.25,95,100.0
1313,G#1,110.5,0.5,95,100.0
1314,B3,110.5,0.25,127,100.0
1315,F2,110.5,0.25,95,100.0
1316,B-2,110.5,0.25,95,100.0
1317,B3,110.75,1.25,127,100.0
1318,G#2,111.0,0.75,95,100.0
1319,B-2,111.0,0.25,95,100.0
1320,E-3,111.0,0.25,95,100.0
1321,E2,111.0,0.25,95,100.0
1322,B-2,111.5,0.25,95,100.0
1323,G#3,111.5,2.5,95,100.0
1324,E-3,111.5,2.5,95,100.0
1325,E-2,111.75,0.25,95,100.0
1326,G#1,112.0,0.5,95,100.0
1327,B3,112.0,3.0,127,100.0
1328,F2,112.0,0.25,95,100.0
1329,C#3,112.0,0.25,95,100.0
1330,B-2,112.0,0.25,95,100.0
1331,E-3,112.0,0.25,95,100.0
1332,G#1,112.5,0.5,95,100.0
1333,B-2,112.5,0.25,95,100.0
1334,G#2,113.0,0.75,95,100.0
1335,E2,113.0,0.25,95,100.0
1336,B-2,113.0,0.25,95,100.0
1337,E-3,113.0,0.25,95,100.0
1338,B-2,113.5,0.25,95,100.0
1339,E-2,113.75,0.25,95,100.0
1340,G#2,114.0,0.25,95,100.0
1341,A3,114.0,1.5,95,100.0
1342,E3,114.0,1.5,95,100.0
1343,F2,114.0,0.25,95,100.0
1344,B-2,114.0,0.25,95,100.0
1345,E-3,114.0,0.25,95,100.0
1346,F#2,114.25,0.25,95,100.0
1347,E2,114.5,0.25,95,100.0
1348,F2,114.5,0.25,95,100.0
1349,B-2,114.5,0.25,95,100.0
1350,F#2,114.75,0.25,95,100.0
1351,F#2,115.0,0.25,95,100.0
1352,G#3,115.0,0.25,127,100.0
1353,C3,115.0,0.25,95,100.0
1354,B-2,115.0,0.25,95,100.0
1355,E-3,115.0,0.25,95,100.0
1356,E2,115.0,0.25,95,100.0
1357,E2,115.25,0.25,95,100.0
1358,F#3,115.25,0.25,127,100.0
1359,B2,115.25,0.25,95,100.0
1360,E-2,115.5,0.25,95,100.0
1361,E3,115.5,0.5,127,100.0
1362,B-2,115.5,0.25,95,100.0
1363,F#3,115.5,2.5,95,100.0
1364,C#3,115.5,2.5,95,100.0
1365,E2,115.75,0.25,95,100.0
1366,A2,115.75,0.25,95,100.0
1367,F#1,116.0,0.5,95,100.0
1368,F#3,116.0,0.5,127,100.0
1369,F2,116.0,0.25,95,100.0
1370,C#3,116.0,0.25,95,100.0
1371,B-2,116.0,0.25,95,100.0
1372,E-3,116.0,0.25,95,100.0
1373,F#1,116.5,0.5,95,100.0
1374,E3,116.5,0.5,127,100.0
1375,B-2,116.5,0.25,95,100.0
1376,F#2,117.0,0.75,95,100.0
1377,G#3,117.0,0.5,127,100.0
1378,E2,117.0,0.25,95,100.0
1379,B-2,117.0,0.25,95,100.0
1380,E-3,117.0,0.25,95,100.0
1381,F#3,117.5,1.0,127,100.0
1382,B-2,117.5,0.25,95,100.0
1383,C#2,117.75,0.25,95,100.0
1384,F#1,118.0,0.5,95,100.0
1385,B3,118.0,4.0,95,100.0
1386,G#3,118.0,4.0,95,100.0
1387,E-3,118.0,4.0,95,100.0
1388,E-3,118.0,4.0,95,100.0
1389,F2,118.0,0.25,95,100.0
1390,B-2,118.0,0.25,95,100.0
1391,E-3,118.0,0.25,95,100.0
1392,F#1,118.5,0.5,95,100.0
1393,E3,118.5,0.25,127,100.0
1394,F2,118.5,0.25,95,100.0
1395,B-2,118.5,0.25,95,100.0
1396,C#3,118.75,1.25,127,100.0
1397,F#2,119.0,0.75,95,100.0
1398,B-2,119.0,0.25,95,100.0
1399,E-3,119.0,0.25,95,100.0
1400,E2,119.0,0.25,95,100.0
1401,B-2,119.5,0.25,95,100.0
1402,C#2,119.75,0.25,95,100.0
1403,F#1,120.0,0.5,95,100.0
1404,C#3,120.0,3.5,127,100.0
1405,F2,120.0,0.25,95,100.0
1406,C#3,120.0,0.25,95,100.0
1407,B-2,120.0,0.25,95,100.0
1408,E-3,120.0,0.25,95,100.0
1409,F#1,120.5,0.5,95,100.0
1410,B-2,120.5,0.25,95,100.0
1411,F#2,121.0,0.75,95,100.0
1412,E2,121.0,0.25,95,100.0
1413,B-2,121.0,0.25,95,100.0
1414,E-3,121.0,0.25,95,100.0
1415,B-2,121.5,0.25,95,100.0
1416,C#2,121.75,0.25,95,100.0
1417,F#1,122.0,0.5,95,100.0
1418,C3,122.0,0.25,95,100.0
1419,F2,122.0,0.25,95,100.0
1420,B-2,122.0,0.25,95,100.0
1421,E-3,122.0,0.25,95,100.0
1422,B2,122.25,0.25,95,100.0
1423,F#1,122.5,0.5,95,100.0
1424,C3,122.5,0.25,95,100.0
1425,F2,122.5,0.25,95,100.0
1426,B-2,122.5,0.25,95,100.0
1427,A2,122.75,0.25,95,100.0
1428,F#2,123.0,0.25,95,100.0
1429,B2,123.0,0.25,95,100.0
1430,B-2,123.0,0.25,95,100.0
1431,E-3,123.0,0.25,95,100.0
1432,E2,123.0,0.25,95,100.0
1433,C#2,123.25,0.25,95,100.0
1434,C3,123.25,0.25,95,100.0
1435,A1,123.5,0.25,95,100.0
1436,G#3,123.5,0.25,127,100.0
1437,E2,123.5,0.125,95,100.0
1438,D3,123.5,0.125,95,100.0
1439,B-2,123.5,0.125,95,100.0
1440,E2,123.625,0.125,95,100.0
1441,B1,123.75,0.25,95,100.0
1442,G#3,123.75,0.25,127,100.0
1443,E2,123.75,0.125,95,100.0
1444,B2,123.75,0.125,95,100.0
1445,E2,123.875,0.125,95,100.0
1446,E2,124.0,0.5,95,100.0
1447,G#3,124.0,0.5,127,100.0
1448,E3,124.0,0.75,95,100.0
1449,B2,124.0,0.75,95,100.0
1450,G#2,124.0,0.75,95,100.0
1451,B-2,124.0,0.25,95,100.0
1452,C#3,124.0,0.25,95,100.0
1453,C3,124.0,0.25,95,100.0
1454,B2,124.25,0.25,95,100.0
1455,C#2,124.5,0.25,95,100.0
1456,E3,124.5,0.25,127,100.0
1457,B-2,124.5,0.25,95,100.0
1458,G2,124.5,0.25,95,100.0
1459,F#2,124.75,0.5,95,100.0
1460,A3,124.75,0.5,127,100.0
1461,F#3,124.75,0.75,95,100.0
1462,C#3,124.75,0.75,95,100.0
1463,A2,124.75,0.75,95,100.0
1464,C#3,124.75,0.25,95,100.0
1465,C3,124.75,0.25,95,100.0
1466,B-2,125.0,0.25,95,100.0
1467,B2,125.0,0.25,95,100.0
1468,C#2,125.25,0.25,95,100.0
1469,E3,125.25,0.25,127,100.0
1470,G2,125.25,0.25,95,100.0
1471,B1,125.5,1.0,95,100.0
1472,F#3,125.5,2.0,127,100.0
1473,E3,125.5,1.5,95,100.0
1474,B2,125.5,1.5,95,100.0
1475,F#2,125.5,1.5,95,100.0
1476,B-2,125.5,0.25,95,100.0
1477,C#3,125.5,0.25,95,100.0
1478,B3,126.0,4.0,95,100.0
1479,G#3,126.0,4.0,95,100.0
1480,E-3,126.0,4.0,95,100.0
1481,E-3,126.0,4.0,95,100.0
1482,B-2,126.0,0.25,95,100.0
1483,B2,126.0,0.25,95,100.0
1484,E2,126.0,0.25,95,100.0
1485,A2,126.25,0.25,95,100.0
1486,B1,126.5,0.5,95,100.0
1487,B-2,126.5,0.25,95,100.0
1488,D3,126.5,0.25,95,100.0
1489,E2,126.5,0.25,95,100.0
1490,B2,126.75,0.25,95,100.0
1491,E1,127.0,0.25,95,100.0
1492,E-3,127.0,0.875,95,100.0
1493,B-2,127.0,0.125,95,100.0
1494,D3,127.0,0.125,95,100.0
1495,E2,127.0,0.125,95,100.0
1496,E2,127.125,0.125,95,100.0
1497,F#1,127.25,0.25,95,100.0
1498,C3,127.25,0.125,95,100.0
1499,E2,127.25,0.125,95,100.0
1500,E2,127.375,0.125,95,100.0
1501,G#1,127.5,0.25,95,100.0
1502,G#3,127.5,0.25,127,100.0
1503,B-2,127.5,0.25,95,100.0
1504,B2,127.5,0.25,95,100.0
1505,E2,127.5,0.25,95,100.0
1506,A1,127.75,0.25,95,100.0
1507,G#3,127.75,0.25,127,100.0
1508,A2,127.75,0.25,95,100.0
1509,E2,127.75,0.25,95,100.0
1510,E-3,127.875,0.125,95,100.0
1511,E2,128.0,0.5,95,100.0
1512,G#3,128.0,0.5,127,100.0
1513,E3,128.0,0.75,95,100.0
1514,B2,128.0,0.75,95,100.0
1515,G#2,128.0,0.75,95,100.0
1516,C#3,128.0,0.25,95,100.0
1517,C3,128.0,0.25,95,100.0
1518,B-2,128.0,0.25,95,100.0
1519,B2,128.25,0.25,95,100.0
1520,C#2,128.5,0.25,95,100.0
1521,E3,128.5,0.25,127,100.0
1522,B-2,128.5,0.25,95,100.0
1523,G2,128.5,0.25,95,100.0
1524,F#2,128.75,0.5,95,100.0
1525,A3,128.75,0.5,127,100.0
1526,F#3,128.75,0.75,95,100.0
1527,C#3,128.75,0.75,95,100.0
1528,A2,128.75,0.75,95,100.0
1529,C3,128.75,0.25,95,100.0
1530,C#3,128.75,0.25,95,100.0
1531,B-2,129.0,0.25,95,100.0
1532,B2,129.0,0.25,95,100.0
1533,C#2,129.25,0.25,95,100.0
1534,E3,129.25,0.25,127,100.0
1535,G2,129.25,0.25,95,100.0
1536,B1,129.5,1.0,95,100.0
1537,F#3,129.5,2.0,127,100.0
1538,E3,129.5,1.5,95,100.0
1539,B2,129.5,1.5,95,100.0
1540,F#2,129.5,1.5,95,100.0
1541,B-2,129.5,0.25,95,100.0
1542,C#3,129.5,0.25,95,100.0
1543,C#4,130.0,4.0,95,100.0
1544,A3,130.0,4.0,95,100.0
1545,F#3,130.0,4.0,95,100.0
1546,C#3,130.0,4.0,95,100.0
1547,B-2,130.0,0.25,95,100.0
1548,B2,130.0,0.25,95,100.0
1549,E2,130.0,0.25,95,100.0
1550,A2,130.25,0.25,95,100.0
1551,B1,130.5,0.5,95,100.0
1552,B-2,130.5,0.25,95,100.0
1553,E2,130.5,0.25,95,100.0
1554,D3,130.5,0.25,95,100.0
1555,B2,130.75,0.25,95,100.0
1556,E1,131.0,0.25,95,100.0
1557,E-3,131.0,0.875,95,100.0
1558,D3,131.0,0.125,95,100.0
1559,E2,131.0,0.125,95,100.0
1560,B-2,131.0,0.125,95,100.0
1561,E2,131.125,0.125,95,100.0
1562,F#1,131.25,0.25,95,100.0
1563,C3,131.25,0.125,95,100.0
1564,E2,131.25,0.125,95,100.0
1565,E2,131.375,0.125,95,100.0
1566,G#1,131.5,0.25,95,100.0
1567,G#3,131.5,0.25,127,100.0
1568,B-2,131.5,0.25,95,100.0
1569,B2,131.5,0.25,95,100.0
1570,E2,131.5,0.25,95,100.0
1571,A1,131.75,0.25,95,100.0
1572,G#3,131.75,0.25,127,100.0
1573,A2,131.75,0.25,95,100.0
1574,E2,131.75,0.25,95,100.0
1575,E-3,131.875,0.125,95,100.0
1576,E2,132.0,0.5,95,100.0
1577,G#3,132.0,0.5,127,100.0
1578,E3,132.0,0.75,95,100.0
1579,B2,132.0,0.75,95,100.0
1580,G#2,132.0,0.75,95,100.0
1581,B-2,132.0,0.25,95,100.0
1582,C#3,132.0,0.25,95,100.0
1583,C3,132.0,0.25,95,100.0
1584,B2,132.25,0.25,95,100.0
1585,C#2,132.5,0.25,95,100.0
1586,E3,132.5,0.25,127,100.0
1587,B-2,132.5,0.25,95,100.0
1588,G2,132.5,0.25,95,100.0
1589,F#2,132.75,0.5,95,100.0
1590,A3,132.75,0.5,127,100.0
1591,F#3,132.75,0.75,95,100.0
1592,C#3,132.75,0.75,95,100.0
1593,A2,132.75,0.75,95,100.0
1594,C#3,132.75,0.25,95,100.0
1595,C3,132.75,0.25,95,100.0
1596,B-2,133.0,0.25,95,100.0
1597,B2,133.0,0.25,95,100.0
1598,C#2,133.25,0.25,95,100.0
1599,E3,133.25,0.25,127,100.0
1600,G2,133.25,0.25,95,100.0
1601,B1,133.5,1.0,95,100.0
1602,F#3,133.5,2.0,127,100.0
1603,E3,133.5,1.5,95,100.0
1604,B2,133.5,1.5,95,100.0
1605,F#2,133.5,1.5,95,100.0
1606,B-2,133.5,0.25,95,100.0
1607,C#3,133.5,0.25,95,100.0
1608,B-2,134.0,0.25,95,100.0
1609,B2,134.0,0.25,95,100.0
1610,E2,134.0,0.25,95,100.0
1611,A2,134.25,0.25,95,100.0
1612,B1,134.5,0.5,95,100.0
1613,B-2,134.5,0.25,95,100.0
1614,D3,134.5,0.25,95,100.0
1615,E2,134.5,0.25,95,100.0
1616,B2,134.75,0.25,95,100.0
1617,E1,135.0,0.25,95,100.0
1618,E-3,135.0,0.875,95,100.0
1619,B-2,135.0,0.125,95,100.0
1620,D3,135.0,0.125,95,100.0
1621,E2,135.0,0.125,95,100.0
1622,E2,135.125,0.125,95,100.0
1623,F#1,135.25,0.25,95,100.0
1624,C3,135.25,0.125,95,100.0
1625,E2,135.25,0.125,95,100.0
1626,E2,135.375,0.125,95,100.0
1627,G#1,135.5,0.25,95,100.0
1628,G#3,135.5,0.25,127,100.0
1629,B-2,135.5,0.25,95,100.0
1630,B2,135.5,0.25,95,100.0
1631,E2,135.5,0.25,95,100.0
1632,A1,135.75,0.25,95,100.0
1633,G#3,135.75,0.25,127,100.0
1634,A2,135.75,0.25,95,100.0
1635,E2,135.75,0.25,95,100.0
1636,E-3,135.875,0.125,95,100.0
1637,E2,136.0,0.5,95,100.0
1638,G#3,136.0,0.5,127,100.0
1639,E3,136.0,0.75,95,100.0
1640,B2,136.0,0.75,95,100.0
1641,G#2,136.0,0.75,95,100.0
1642,B-2,136.0,0.25,95,100.0
1643,C#3,136.0,0.25,95,100.0
1644,C3,136.0,0.25,95,100.0
1645,B2,136.25,0.25,95,100.0
1646,C#2,136.5,0.25,95,100.0
1647,E3,136.5,0.25,127,100.0
1648,B-2,136.5,0.25,95,100.0
1649,G2,136.5,0.25,95,100.0
1650,F#2,136.75,0.5,95,100.0
1651,A3,136.75,0.5,127,100.0
1652,F#3,136.75,0.75,95,100.0
1653,C#3,136.75,0.75,95,100.0
1654,A2,136.75,0.75,95,100.0
1655,C#3,136.75,0.25,95,100.0
1656,C3,136.75,0.25,95,100.0
1657,B-2,137.0,0.25,95,100.0
1658,B2,137.0,0.25,95,100.0
1659,C#2,137.25,0.25,95,100.0
1660,E3,137.25,0.25,127,100.0
1661,G2,137.25,0.25,95,100.0
1662,B1,137.5,1.0,95,100.0
1663,F#3,137.5,2.5,127,100.0
1664,E3,137.5,1.5,95,100.0
1665,B2,137.5,1.5,95,100.0
1666,F#2,137.5,1.5,95,100.0
1667,B-2,137.5,0.25,95,100.0
1668,C#3,137.5,0.25,95,100.0
1669,C#4,138.0,4.0,95,100.0
1670,A3,138.0,4.0,95,100.0
1671,F#3,138.0,4.0,95,100.0
1672,C#3,138.0,4.0,95,100.0
1673,B-2,138.0,0.25,95,100.0
1674,B2,138.0,0.25,95,100.0
1675,E2,138.0,0.25,95,100.0
1676,A2,138.25,0.25,95,100.0
1677,B1,138.5,0.5,95,100.0
1678,B-2,138.5,0.25,95,100.0
1679,D3,138.5,0.25,95,100.0
1680,E2,138.5,0.25,95,100.0
1681,B2,138.75,0.25,95,100.0
1682,E1,139.0,0.25,95,100.0
1683,E-3,139.0,1.0,95,100.0
1684,B-2,139.0,0.125,95,100.0
1685,D3,139.0,0.125,95,100.0
1686,E2,139.0,0.125,95,100.0
1687,E2,139.125,0.125,95,100.0
1688,F#1,139.25,0.25,95,100.0
1689,C3,139.25,0.125,95,100.0
1690,E2,139.25,0.125,95,100.0
1691,E2,139.375,0.125,95,100.0
1692,G#1,139.5,0.25,95,100.0
1693,B-2,139.5,0.25,95,100.0
1694,B2,139.5,0.25,95,100.0
1695,E2,139.5,0.25,95,100.0
1696,A1,139.75,0.25,95,100.0
1697,A2,139.75,0.25,95,100.0
1698,E2,139.75,0.25,95,100.0
1699,D2,140.0,0.5,95,100.0
1700,B4,140.0,4.0,95,100.0
1701,E-5,140.0,4.0,95,100.0
1702,G#4,140.0,4.0,95,100.0
1703,F2,140.0,0.25,95,100.0
1704,G#2,140.0,0.25,95,100.0
1705,E-3,140.0,0.25,95,100.0
1706,D2,140.5,0.5,95,100.0
1707,E2,141.0,0.25,95,100.0
1708,E-3,141.0,0.25,95,100.0
1709,A1,141.5,0.5,95,100.0
1710,D2,142.0,0.5,95,100.0
1711,G#3,142.0,0.75,95,100.0
1712,E3,142.0,0.75,95,100.0
1713,F2,142.0,0.25,95,100.0
1714,E-3,142.0,0.25,95,100.0
1715,A3,142.75,0.75,95,100.0
1716,F#3,142.75,0.75,95,100.0
1717,A1,143.0,0.5,95,100.0
1718,E-3,143.0,0.25,95,100.0
1719,E2,143.0,0.25,95,100.0
1720,B-2,143.5,0.25,95,100.0
1721,F#3,143.5,2.0,95,100.0
1722,B2,143.5,2.0,95,100.0
1723,E2,144.0,0.5,95,100.0
1724,F2,144.0,0.25,95,100.0
1725,G#2,144.0,0.25,95,100.0
1726,E-3,144.0,0.25,95,100.0
1727,E2,144.5,0.5,95,100.0
1728,E2,145.0,0.25,95,100.0
1729,E-3,145.0,0.25,95,100.0
1730,B1,145.5,0.5,95,100.0
1731,E2,146.0,0.5,95,100.0
1732,G#3,146.0,0.75,95,100.0
1733,E3,146.0,0.75,95,100.0
1734,F2,146.0,0.25,95,100.0
1735,E-3,146.0,0.25,95,100.0
1736,A3,146.75,0.75,95,100.0
1737,F#3,146.75,0.75,95,100.0
1738,B1,147.0,0.5,95,100.0
1739,E-3,147.0,0.25,95,100.0
1740,E2,147.0,0.25,95,100.0
1741,B-2,147.5,0.25,95,100.0
1742,F#3,147.5,2.5,95,100.0
1743,B2,147.5,2.5,95,100.0
1744,E2,148.0,0.5,95,100.0
1745,B4,148.0,4.0,95,100.0
1746,E-5,148.0,4.0,95,100.0
1747,G#4,148.0,4.0,95,100.0
1748,F2,148.0,0.25,95,100.0
1749,G#2,148.0,0.25,95,100.0
1750,E-3,148.0,0.25,95,100.0
1751,E2,148.5,0.5,95,100.0
1752,E2,149.0,0.25,95,100.0
1753,E-3,149.0,0.25,95,100.0
1754,B1,149.5,0.5,95,100.0
1755,E2,150.0,0.5,95,100.0
1756,G#3,150.0,0.75,95,100.0
1757,E3,150.0,0.75,95,100.0
1758,F2,150.0,0.25,95,100.0
1759,E-3,150.0,0.25,95,100.0
1760,A3,150.75,0.75,95,100.0
1761,F#3,150.75,0.75,95,100.0
1762,B1,151.0,0.5,95,100.0
1763,E-3,151.0,0.25,95,100.0
1764,E2,151.0,0.25,95,100.0
1765,B-2,151.5,0.25,95,100.0
1766,F#3,151.5,2.5,95,100.0
1767,B2,151.5,2.5,95,100.0
1768,D2,152.0,0.5,95,100.0
1769,F#4,152.0,4.0,95,100.0
1770,A4,152.0,4.0,95,100.0
1771,C#5,152.0,4.0,95,100.0
1772,F2,152.0,0.25,95,100.0
1773,G#2,152.0,0.25,95,100.0
1774,E-3,152.0,0.25,95,100.0
1775,D2,152.5,0.5,95,100.0
1776,E2,153.0,0.25,95,100.0
1777,E-3,153.0,0.25,95,100.0
1778,A1,153.5,0.5,95,100.0
1779,D2,154.0,0.5,95,100.0
1780,G#3,154.0,0.75,95,100.0
1781,E3,154.0,0.75,95,100.0
1782,F2,154.0,0.25,95,100.0
1783,E-3,154.0,0.25,95,100.0
1784,C2,154.5,0.5,95,100.0
1785,A3,154.75,0.75,95,100.0
1786,F#3,154.75,0.75,95,100.0
1787,B1,155.0,0.5,95,100.0
1788,E-3,155.0,0.25,95,100.0
1789,E2,155.0,0.25,95,100.0
1790,A1,155.5,0.5,95,100.0
1791,B-2,155.5,0.25,95,100.0
1792,F#3,155.5,2.5,95,100.0
1793,B2,155.5,2.5,95,100.0
1794,G1,156.0,0.5,95,100.0
1795,F2,156.0,0.25,95,100.0
1796,G#2,156.0,0.25,95,100.0
1797,E-3,156.0,0.25,95,100.0
1798,G1,156.5,0.5,95,100.0
1799,E2,157.0,0.25,95,100.0
1800,E-3,157.0,0.25,95,100.0
1801,G1,158.0,0.5,95,100.0
1802,A3,158.0,4.0,95,100.0
1803,F#3,158.0,4.0,95,100.0
1804,D3,158.0,4.0,95,100.0
1805,F2,158.0,0.25,95,100.0
1806,E-3,158.0,0.25,95,100.0
1807,E-3,159.0,0.25,95,100.0
1808,E2,159.0,0.25,95,100.0
1809,B-2,159.5,0.25,95,100.0
1810,A1,160.0,0.5,95,100.0
1811,F#4,160.0,4.0,95,100.0
1812,A4,160.0,4.0,95,100.0
1813,C#5,160.0,4.0,95,100.0
1814,F2,160.0,0.25,95,100.0
1815,G#2,160.0,0.25,95,100.0
1816,E-3,160.0,0.25,95,100.0
1817,A1,160.5,0.5,95,100.0
1818,E2,161.0,0.25,95,100.0
1819,E-3,161.0,0.25,95,100.0
1820,E1,161.5,0.5,95,100.0
1821,A1,162.0,0.5,95,100.0
1822,B3,162.0,4.0,95,100.0
1823,G3,162.0,4.0,95,100.0
1824,E3,162.0,4.0,95,100.0
1825,F2,162.0,0.25,95,100.0
1826,E-3,162.0,0.25,95,100.0
1827,E1,163.0,0.5,95,100.0
1828,E-3,163.0,0.25,95,100.0
1829,E2,163.0,0.25,95,100.0
1830,B-2,163.5,0.25,95,100.0
1831,B1,164.0,0.5,95,100.0
1832,B4,164.0,4.0,95,100.0
1833,E5,164.0,4.0,95,100.0
1834,F2,164.0,0.25,95,100.0
1835,G#2,164.0,0.25,95,100.0
1836,E-3,164.0,0.25,95,100.0
1837,B1,164.5,0.5,95,100.0
1838,E2,165.0,0.25,95,100.0
1839,E-3,165.0,0.25,95,100.0
1840,F#1,165.5,0.5,95,100.0
1841,B1,166.0,0.5,95,100.0
1842,F2,166.0,0.25,95,100.0
1843,E-3,166.0,0.25,95,100.0
1844,F#1,167.0,0.5,95,100.0
1845,E-3,167.0,0.25,95,100.0
1846,E2,167.0,0.25,95,100.0
1847,B-2,167.5,0.25,95,100.0
1848,F2,168.0,0.25,95,100.0
1849,G#2,168.0,0.25,95,100.0
1850,E-3,168.0,0.25,95,100.0
1851,E2,169.0,0.25,95,100.0
1852,E-3,169.0,0.25,95,100.0
1853,B3,170.0,4.0,95,100.0
1854,G3,170.0,4.0,95,100.0
1855,E3,170.0,4.0,95,100.0
1856,F2,170.0,0.25,95,100.0
1857,E-3,170.0,0.25,95,100.0
1858,E2,170.5,0.25,95,100.0
1859,E2,171.0,0.25,95,100.0
1860,E2,171.5,0.25,95,100.0
1861,B-2,171.5,0.25,95,100.0
1862,D2,172.0,0.5,95,100.0
1863,G#2,172.0,0.25,95,100.0
1864,E-3,172.0,0.25,95,100.0
1865,F2,172.0,0.25,95,100.0
1866,D2,172.5,0.5,95,100.0
1867,E2,173.0,0.25,95,100.0
1868,E-3,173.0,0.25,95,100.0
1869,A1,173.5,0.5,95,100.0
1870,D2,174.0,0.5,95,100.0
1871,A3,174.0,4.0,95,100.0
1872,F#3,174.0,4.0,95,100.0
1873,D3,174.0,4.0,95,100.0
1874,F2,174.0,0.25,95,100.0
1875,E-3,174.0,0.25,95,100.0
1876,A1,175.0,0.5,95,100.0
1877,E-3,175.0,0.25,95,100.0
1878,E2,175.0,0.25,95,100.0
1879,B-2,175.5,0.25,95,100.0
1880,E2,176.0,0.5,95,100.0
1881,F2,176.0,0.25,95,100.0
1882,G#2,176.0,0.25,95,100.0
1883,E-3,176.0,0.25,95,100.0
1884,E2,176.5,0.5,95,100.0
1885,E2,177.0,0.25,95,100.0
1886,E-3,177.0,0.25,95,100.0
1887,B1,177.5,0.5,95,100.0
1888,E2,178.0,0.5,95,100.0
1889,G3,178.0,4.0,95,100.0
1890,D3,178.0,4.0,95,100.0
1891,B2,178.0,4.0,95,100.0
1892,F2,178.0,0.25,95,100.0
1893,E-3,178.0,0.25,95,100.0
1894,B1,179.0,0.5,95,100.0
1895,E-3,179.0,0.25,95,100.0
1896,E2,179.0,0.25,95,100.0
1897,B-2,179.5,0.25,95,100.0
1898,E2,180.0,0.5,95,100.0
1899,B4,180.0,4.0,95,100.0
1900,E5,180.0,4.0,95,100.0
1901,F2,180.0,0.25,95,100.0
1902,G#2,180.0,0.25,95,100.0
1903,E-3,180.0,0.25,95,100.0
1904,E2,180.5,0.5,95,100.0
1905,E2,181.0,0.25,95,100.0
1906,E-3,181.0,0.25,95,100.0
1907,B1,181.5,0.5,95,100.0
1908,E2,182.0,0.5,95,100.0
1909,A3,182.0,4.0,95,100.0
1910,E3,182.0,4.0,95,100.0
1911,C#3,182.0,4.0,95,100.0
1912,F2,182.0,0.25,95,100.0
1913,E-3,182.0,0.25,95,100.0
1914,B1,183.0,0.5,95,100.0
1915,E-3,183.0,0.25,95,100.0
1916,E2,183.0,0.25,95,100.0
1917,B-2,183.5,0.25,95,100.0
1918,D2,184.0,0.5,95,100.0
1919,F2,184.0,0.25,95,100.0
1920,G#2,184.0,0.25,95,100.0
1921,E-3,184.0,0.25,95,100.0
1922,D2,184.5,0.5,95,100.0
1923,E2,185.0,0.25,95,100.0
1924,E-3,185.0,0.25,95,100.0
1925,A1,185.5,0.5,95,100.0
1926,D2,186.0,0.5,95,100.0
1927,B3,186.0,4.0,95,100.0
1928,F#3,186.0,4.0,95,100.0
1929,B2,186.0,4.0,95,100.0
1930,F2,186.0,0.25,95,100.0
1931,E-3,186.0,0.25,95,100.0
1932,C2,186.5,0.5,95,100.0
1933,B1,187.0,0.5,95,100.0
1934,E-3,187.0,0.25,95,100.0
1935,E2,187.0,0.25,95,100.0
1936,A1,187.5,0.5,95,100.0
1937,B-2,187.5,0.25,95,100.0
1938,G1,188.0,0.5,95,100.0
1939,F2,188.0,0.25,95,100.0
1940,G#2,188.0,0.25,95,100.0
1941,E-3,188.0,0.25,95,100.0
1942,G1,188.5,0.5,95,100.0
1943,E2,189.0,0.25,95,100.0
1944,E-3,189.0,0.25,95,100.0
1945,G1,190.0,0.5,95,100.0
1946,F2,190.0,0.25,95,100.0
1947,E-3,190.0,0.25,95,100.0
1948,E-3,191.0,0.25,95,100.0
1949,E2,191.0,0.25,95,100.0
1950,B-2,191.5,0.25,95,100.0
1951,A1,192.0,0.5,95,100.0
1952,B4,192.0,4.0,95,100.0
1953,E5,192.0,4.0,95,100.0
1954,F2,192.0,0.25,95,100.0
1955,G#2,192.0,0.25,95,100.0
1956,E-3,192.0,0.25,95,100.0
1957,A1,192.5,0.5,95,100.0
1958,E2,193.0,0.25,95,100.0
1959,E-3,193.0,0.25,95,100.0
1960,E1,193.5,0.5,95,100.0
1961,A1,194.0,0.5,95,100.0
1962,B3,194.0,4.0,95,100.0
1963,F#3,194.0,4.0,95,100.0
1964,B2,194.0,4.0,95,100.0
1965,F2,194.0,0.25,95,100.0
1966,E-3,194.0,0.25,95,100.0
1967,E1,195.0,0.5,95,100.0
1968,E-3,195.0,0.25,95,100.0
1969,E2,195.0,0.25,95,100.0
1970,B-2,195.5,0.25,95,100.0
1971,B1,196.0,0.5,95,100.0
1972,F2,196.0,0.25,95,100.0
1973,G#2,196.0,0.25,95,100.0
1974,E-3,196.0,0.25,95,100.0
1975,B1,196.5,0.5,95,100.0
1976,E2,197.0,0.25,95,100.0
1977,E-3,197.0,0.25,95,100.0
1978,F#1,197.5,0.5,95,100.0
1979,B1,198.0,0.5,95,100.0
1980,A3,198.0,4.0,95,100.0
1981,F#3,198.0,4.0,95,100.0
1982,D3,198.0,4.0,95,100.0
1983,F2,198.0,0.25,95,100.0
1984,E-3,198.0,0.25,95,100.0
1985,F#1,199.0,0.5,95,100.0
1986,E-3,199.0,0.25,95,100.0
1987,E2,199.0,0.25,95,100.0
1988,B-2,199.5,0.25,95,100.0
1989,B4,200.0,4.0,95,100.0
1990,E5,200.0,4.0,95,100.0
1991,F2,200.0,0.25,95,100.0
1992,G#2,200.0,0.25,95,100.0
1993,E-3,200.0,0.25,95,100.0
1994,E2,201.0,0.25,95,100.0
1995,E-3,201.0,0.25,95,100.0
1996,B3,202.0,4.0,95,100.0
1997,G3,202.0,4.0,95,100.0
1998,E3,202.0,4.0,95,100.0
1999,F2,202.0,0.25,95,100.0
2000,E-3,202.0,0.25,95,100.0
2001,E2,202.5,0.25,95,100.0
2002,E2,203.0,0.25,95,100.0
2003,E2,203.5,0.25,95,100.0
2004,D2,204.0,0.5,95,100.0
2005,A3,204.0,4.0,95,100.0
2006,D4,204.0,4.0,95,100.0
2007,F2,204.0,0.25,95,100.0
2008,G#2,204.0,0.25,95,100.0
2009,E-3,204.0,0.25,95,100.0
2010,D2,204.5,0.5,95,100.0
2011,E2,205.0,0.25,95,100.0
2012,E-3,205.0,0.25,95,100.0
2013,A1,205.5,0.5,95,100.0
2014,D2,206.0,0.5,95,100.0
2015,F2,206.0,0.25,95,100.0
2016,E-3,206.0,0.25,95,100.0
2017,A1,207.0,0.5,95,100.0
2018,E-3,207.0,0.25,95,100.0
2019,E2,207.0,0.25,95,100.0
2020,B-2,207.5,0.25,95,100.0
2021,E2,208.0,0.5,95,100.0
2022,B3,208.0,4.0,95,100.0
2023,E4,208.0,4.0,95,100.0
2024,F2,208.0,0.25,95,100.0
2025,G#2,208.0,0.25,95,100.0
2026,E-3,208.0,0.25,95,100.0
2027,E2,208.5,0.5,95,100.0
2028,E2,209.0,0.25,95,100.0
2029,E-3,209.0,0.25,95,100.0
2030,B1,209.5,0.5,95,100.0
2031,E2,210.0,0.5,95,100.0
2032,B3,210.0,4.0,95,100.0
2033,G3,210.0,4.0,95,100.0
2034,E3,210.0,4.0,95,100.0
2035,F2,210.0,0.25,95,100.0
2036,E-3,210.0,0.25,95,100.0
2037,B1,211.0,0.5,95,100.0
2038,E-3,211.0,0.25,95,100.0
2039,E2,211.0,0.25,95,100.0
2040,B-2,211.5,0.25,95,100.0
2041,E2,212.0,0.5,95,100.0
2042,F2,212.0,0.25,95,100.0
2043,G#2,212.0,0.25,95,100.0
2044,E-3,212.0,0.25,95,100.0
2045,E2,212.5,0.5,95,100.0
2046,E2,213.0,0.25,95,100.0
2047,E-3,213.0,0.25,95,100.0
2048,B1,213.5,0.5,95,100.0
2049,E2,214.0,0.5,95,100.0
2050,A3,214.0,4.0,95,100.0
2051,F#3,214.0,4.0,95,100.0
2052,D3,214.0,4.0,95,100.0
2053,F2,214.0,0.25,95,100.0
2054,E-3,214.0,0.25,95,100.0
2055,B1,215.0,0.5,95,100.0
2056,E-3,215.0,0.25,95,100.0
2057,E2,215.0,0.25,95,100.0
2058,B-2,215.5,0.25,95,100.0
2059,D2,216.0,0.5,95,100.0
2060,B3,216.0,4.0,95,100.0
2061,E4,216.0,4.0,95,100.0
2062,F2,216.0,0.25,95,100.0
2063,G#2,216.0,0.25,95,100.0
2064,E-3,216.0,0.25,95,100.0
2065,D2,216.5,0.5,95,100.0
2066,E2,217.0,0.25,95,100.0
2067,E-3,217.0,0.25,95,100.0
2068,A1,217.5,0.5,95,100.0
2069,D2,218.0,0.5,95,100.0
2070,G3,218.0,4.0,95,100.0
2071,D3,218.0,4.0,95,100.0
2072,B2,218.0,4.0,95,100.0
2073,F2,218.0,0.25,95,100.0
2074,E-3,218.0,0.25,95,100.0
2075,C2,218.5,0.5,95,100.0
2076,B1,219.0,0.5,95,100.0
2077,E-3,219.0,0.25,95,100.0
2078,E2,219.0,0.25,95,100.0
2079,A1,219.5,0.5,95,100.0
2080,B-2,219.5,0.25,95,100.0
2081,G1,220.0,0.5,95,100.0
2082,A3,220.0,4.0,95,100.0
2083,D4,220.0,4.0,95,100.0
2084,F2,220.0,0.25,95,100.0
2085,G#2,220.0,0.25,95,100.0
2086,E-3,220.0,0.25,95,100.0
2087,G1,220.5,0.5,95,100.0
2088,E2,221.0,0.25,95,100.0
2089,E-3,221.0,0.25,95,100.0
2090,G1,222.0,0.5,95,100.0
2091,A3,222.0,4.0,95,100.0
2092,E3,222.0,4.0,95,100.0
2093,C#3,222.0,4.0,95,100.0
2094,F2,222.0,0.25,95,100.0
2095,E-3,222.0,0.25,95,100.0
2096,E-3,223.0,0.25,95,100.0
2097,E2,223.0,0.25,95,100.0
2098,B-2,223.5,0.25,95,100.0
2099,A1,224.0,0.5,95,100.0
2100,B3,224.0,4.0,95,100.0
2101,G4,224.0,4.0,95,100.0
2102,F2,224.0,0.25,95,100.0
2103,G#2,224.0,0.25,95,100.0
2104,E-3,224.0,0.25,95,100.0
2105,A1,224.5,0.5,95,100.0
2106,E2,225.0,0.25,95,100.0
2107,E-3,225.0,0.25,95,100.0
2108,E1,225.5,0.5,95,100.0
2109,A1,226.0,0.5,95,100.0
2110,B3,226.0,4.0,95,100.0
2111,F#3,226.0,4.0,95,100.0
2112,B2,226.0,4.0,95,100.0
2113,F2,226.0,0.25,95,100.0
2114,E-3,226.0,0.25,95,100.0
2115,E1,227.0,0.5,95,100.0
2116,E-3,227.0,0.25,95,100.0
2117,E2,227.0,0.25,95,100.0
2118,B-2,227.5,0.25,95,100.0
2119,B1,228.0,0.5,95,100.0
2120,C#4,228.0,4.0,95,100.0
2121,A4,228.0,4.0,95,100.0
2122,F2,228.0,0.25,95,100.0
2123,G#2,228.0,0.25,95,100.0
2124,E-3,228.0,0.25,95,100.0
2125,B1,228.5,0.5,95,100.0
2126,E2,229.0,0.25,95,100.0
2127,E-3,229.0,0.25,95,100.0
2128,F#1,229.5,0.5,95,100.0
2129,B1,230.0,0.5,95,100.0
2130,F2,230.0,0.25,95,100.0
2131,E-3,230.0,0.25,95,100.0
2132,F#1,231.0,0.5,95,100.0
2133,E-3,231.0,0.25,95,100.0
2134,E2,231.0,0.25,95,100.0
2135,B-2,231.5,0.25,95,100.0
2136,B1,232.0,0.5,95,100.0
2137,F#4,232.0,4.0,95,100.0
2138,B4,232.0,4.0,95,100.0
2139,F2,232.0,0.25,95,100.0
2140,G#2,232.0,0.25,95,100.0
2141,E-3,232.0,0.25,95,100.0
2142,E2,233.0,0.25,95,100.0
2143,E-3,233.0,0.25,95,100.0
2144,B3,234.0,4.0,95,100.0
2145,F#3,234.0,4.0,95,100.0
2146,B2,234.0,4.0,95,100.0
2147,F2,234.0,0.25,95,100.0
2148,E-3,234.0,0.25,95,100.0
2149,E2,234.5,0.25,95,100.0
2150,E2,235.0,0.25,95,100.0
2151,E2,235.5,0.25,95,100.0
2152,D2,236.0,0.5,95,100.0
2153,F2,236.0,0.25,95,100.0
2154,G#2,236.0,0.25,95,100.0
2155,E-3,236.0,0.25,95,100.0
2156,D2,236.5,0.5,95,100.0
2157,E2,237.0,0.25,95,100.0
2158,E-3,237.0,0.25,95,100.0
2159,A1,237.5,0.5,95,100.0
2160,D2,238.0,0.5,95,100.0
2161,A3,238.0,4.0,95,100.0
2162,F#3,238.0,4.0,95,100.0
2163,D3,238.0,4.0,95,100.0
2164,F2,238.0,0.25,95,100.0
2165,E-3,238.0,0.25,95,100.0
2166,A1,239.0,0.5,95,100.0
2167,E-3,239.0,0.25,95,100.0
2168,E2,239.0,0.25,95,100.0
2169,B-2,239.5,0.25,95,100.0
2170,E2,240.0,0.5,95,100.0
2171,F#4,240.0,4.0,95,100.0
2172,B4,240.0,4.0,95,100.0
2173,F2,240.0,0.25,95,100.0
2174,G#2,240.0,0.25,95,100.0
2175,E-3,240.0,0.25,95,100.0
2176,E2,240.5,0.5,95,100.0
2177,E2,241.0,0.25,95,100.0
2178,E-3,241.0,0.25,95,100.0
2179,B1,241.5,0.5,95,100.0
2180,E2,242.0,0.5,95,100.0
2181,B3,242.0,4.0,95,100.0
2182,G3,242.0,4.0,95,100.0
2183,E3,242.0,4.0,95,100.0
2184,F2,242.0,0.25,95,100.0
2185,E-3,242.0,0.25,95,100.0
2186,B1,243.0,0.5,95,100.0
2187,E-3,243.0,0.25,95,100.0
2188,E2,243.0,0.25,95,100.0
2189,B-2,243.5,0.25,95,100.0
2190,E2,244.0,0.5,95,100.0
2191,A3,244.0,4.0,95,100.0
2192,D4,244.0,4.0,95,100.0
2193,F2,244.0,0.25,95,100.0
2194,G#2,244.0,0.25,95,100.0
2195,E-3,244.0,0.25,95,100.0
2196,E2,244.5,0.5,95,100.0
2197,E2,245.0,0.25,95,100.0
2198,E-3,245.0,0.25,95,100.0
2199,B1,245.5,0.5,95,100.0
2200,E2,246.0,0.5,95,100.0
2201,F2,246.0,0.25,95,100.0
2202,E-3,246.0,0.25,95,100.0
2203,B1,247.0,0.5,95,100.0
2204,E-3,247.0,0.25,95,100.0
2205,E2,247.0,0.25,95,100.0
2206,B-2,247.5,0.25,95,100.0
2207,D2,248.0,0.5,95,100.0
2208,B3,248.0,4.0,95,100.0
2209,E4,248.0,4.0,95,100.0
2210,F2,248.0,0.25,95,100.0
2211,G#2,248.0,0.25,95,100.0
2212,E-3,248.0,0.25,95,100.0
2213,D2,248.5,0.5,95,100.0
2214,E2,249.0,0.25,95,100.0
2215,E-3,249.0,0.25,95,100.0
2216,A1,249.5,0.5,95,100.0
2217,D2,250.0,0.5,95,100.0
2218,B3,250.0,4.0,95,100.0
2219,G3,250.0,4.0,95,100.0
2220,E3,250.0,4.0,95,100.0
2221,F2,250.0,0.25,95,100.0
2222,E-3,250.0,0.25,95,100.0
2223,C2,250.5,0.5,95,100.0
2224,B1,251.0,0.5,95,100.0
2225,E-3,251.0,0.25,95,100.0
2226,E2,251.0,0.25,95,100.0
2227,A1,251.5,0.5,95,100.0
2228,B-2,251.5,0.25,95,100.0
2229,G1,252.0,0.5,95,100.0
2230,F2,252.0,0.25,95,100.0
2231,G#2,252.0,0.25,95,100.0
2232,E-3,252.0,0.25,95,100.0
2233,G1,252.5,0.5,95,100.0
2234,E2,253.0,0.25,95,100.0
2235,E-3,253.0,0.25,95,100.0
2236,G1,254.0,0.5,95,100.0
2237,A3,254.0,4.0,95,100.0
2238,F#3,254.0,4.0,95,100.0
2239,D3,254.0,4.0,95,100.0
2240,F2,254.0,0.25,95,100.0
2241,E-3,254.0,0.25,95,100.0
2242,E-3,255.0,0.25,95,100.0
2243,E2,255.0,0.25,95,100.0
2244,B-2,255.5,0.25,95,100.0
2245,A1,256.0,0.5,95,100.0
2246,B3,256.0,4.0,95,100.0
2247,E4,256.0,4.0,95,100.0
2248,F2,256.0,0.25,95,100.0
2249,G#2,256.0,0.25,95,100.0
2250,E-3,256.0,0.25,95,100.0
2251,A1,256.5,0.5,95,100.0
2252,E2,257.0,0.25,95,100.0
2253,E-3,257.0,0.25,95,100.0
2254,E1,257.5,0.5,95,100.0
2255,A1,258.0,0.5,95,100.0
2256,G3,258.0,4.0,95,100.0
2257,D3,258.0,4.0,95,100.0
2258,B2,258.0,4.0,95,100.0
2259,F2,258.0,0.25,95,100.0
2260,E-3,258.0,0.25,95,100.0
2261,E2,258.5,0.25,95,100.0
2262,E1,259.0,0.5,95,100.0
2263,C3,259.0,0.25,95,100.0
2264,E-3,259.0,0.25,95,100.0
2265,E2,259.0,0.25,95,100.0
2266,B2,259.25,0.25,95,100.0
2267,C#3,259.5,0.125,95,100.0
2268,E2,259.5,0.125,95,100.0
2269,A2,259.5,0.125,95,100.0
2270,E2,259.625,0.125,95,100.0
2271,E2,259.75,0.125,95,100.0
2272,G2,259.75,0.125,95,100.0
2273,F2,259.75,0.125,95,100.0
2274,E2,259.875,0.125,95,100.0
2275,G2,259.875,0.125,95,100.0
2276,C#2,260.0,0.5,95,100.0
2277,E3,260.0,0.5,95,100.0
2278,C#3,260.0,0.5,95,100.0
2279,A2,260.0,0.5,95,100.0
2280,A3,260.0,4.0,95,100.0
2281,D4,260.0,4.0,95,100.0
2282,A3,260.0,0.125,95,100.0
2283,F3,260.0,0.125,95,100.0
2284,C#3,260.0,0.125,95,100.0
2285,A2,260.0,0.125,95,100.0
2286,B2,260.125,0.125,95,100.0
2287,F3,260.25,0.25,95,100.0
2288,B1,260.5,0.5,95,100.0
2289,E-3,260.5,0.5,95,100.0
2290,B2,260.5,0.5,95,100.0
2291,F#2,260.5,0.5,95,100.0
2292,F3,260.5,0.125,95,100.0
2293,E2,260.5,0.125,95,100.0
2294,E-3,260.5,0.125,95,100.0
2295,E2,260.625,0.125,95,100.0
2296,F3,260.75,0.125,95,100.0
2297,E2,260.75,0.125,95,100.0
2298,D3,260.75,0.125,95,100.0
2299,E2,260.875,0.125,95,100.0
2300,B1,261.0,1.0,95,100.0
2301,E-3,261.0,1.0,95,100.0
2302,B2,261.0,1.0,95,100.0
2303,F#2,261.0,1.0,95,100.0
2304,A3,261.0,0.25,95,100.0
2305,F3,261.0,0.25,95,100.0
2306,C3,261.0,0.25,95,100.0
2307,F3,261.25,0.25,95,100.0
2308,B2,261.25,0.25,95,100.0
2309,F3,261.5,0.125,95,100.0
2310,A2,261.5,0.125,95,100.0
2311,E2,261.5,0.125,95,100.0
2312,E2,261.625,0.125,95,100.0
2313,F3,261.75,0.125,95,100.0
2314,G2,261.75,0.125,95,100.0
2315,E2,261.75,0.125,95,100.0
2316,E2,261.875,0.125,95,100.0
2317,C#2,262.0,0.5,95,100.0
2318,A3,262.0,4.0,95,100.0
2319,E3,262.0,4.0,95,100.0
2320,C#3,262.0,4.0,95,100.0
2321,E3,262.0,0.5,95,100.0
2322,C#3,262.0,0.5,95,100.0
2323,A2,262.0,0.5,95,100.0
2324,A3,262.0,0.25,95,100.0
2325,F3,262.0,0.25,95,100.0
2326,C#3,262.0,0.25,95,100.0
2327,F3,262.25,0.25,95,100.0
2328,B1,262.5,0.5,95,100.0
2329,E-3,262.5,0.5,95,100.0
2330,B2,262.5,0.5,95,100.0
2331,F#2,262.5,0.5,95,100.0
2332,F3,262.5,0.125,95,100.0
2333,E-3,262.5,0.125,95,100.0
2334,E2,262.5,0.125,95,100.0
2335,E2,262.625,0.125,95,100.0
2336,F3,262.75,0.125,95,100.0
2337,D3,262.75,0.125,95,100.0
2338,E2,262.75,0.125,95,100.0
2339,E2,262.875,0.125,95,100.0
2340,B1,263.0,1.0,95,100.0
2341,E-3,263.0,1.0,95,100.0
2342,B2,263.0,1.0,95,100.0
2343,F#2,263.0,1.0,95,100.0
2344,A3,263.0,0.25,95,100.0
2345,F3,263.0,0.25,95,100.0
2346,C3,263.0,0.25,95,100.0
2347,F3,263.25,0.25,95,100.0
2348,B2,263.25,0.25,95,100.0
2349,F3,263.5,0.125,95,100.0
2350,A2,263.5,0.125,95,100.0
2351,E2,263.5,0.125,95,100.0
2352,E2,263.625,0.125,95,100.0
2353,F3,263.75,0.125,95,100.0
2354,G2,263.75,0.125,95,100.0
2355,E2,263.75,0.125,95,100.0
2356,E2,263.875,0.125,95,100.0
2357,C#2,264.0,0.5,95,100.0
2358,E3,264.0,0.5,95,100.0
2359,C#3,264.0,0.5,95,100.0
2360,A2,264.0,0.5,95,100.0
2361,B3,264.0,4.0,95,100.0
2362,G4,264.0,4.0,95,100.0
2363,A3,264.0,0.125,95,100.0
2364,F3,264.0,0.125,95,100.0
2365,C#3,264.0,0.125,95,100.0
2366,A2,264.0,0.125,95,100.0
2367,B2,264.125,0.125,95,100.0
2368,F3,264.25,0.25,95,100.0
2369,B1,264.5,0.5,95,100.0
2370,E-3,264.5,0.5,95,100.0
2371,B2,264.5,0.5,95,100.0
2372,F#2,264.5,0.5,95,100.0
2373,F3,264.5,0.125,95,100.0
2374,E2,264.5,0.125,95,100.0
2375,E-3,264.5,0.125,95,100.0
2376,E2,264.625,0.125,95,100.0
2377,F3,264.75,0.125,95,100.0
2378,E2,264.75,0.125,95,100.0
2379,D3,264.75,0.125,95,100.0
2380,E2,264.875,0.125,95,100.0
2381,C#2,265.0,0.5,95,100.0
2382,E3,265.0,0.5,95,100.0
2383,C#3,265.0,0.5,95,100.0
2384,A2,265.0,0.5,95,100.0
2385,A3,265.0,0.25,95,100.0
2386,F3,265.0,0.25,95,100.0
2387,C3,265.0,0.25,95,100.0
2388,F3,265.25,0.25,95,100.0
2389,B2,265.25,0.25,95,100.0
2390,B1,265.5,0.5,95,100.0
2391,E-3,265.5,0.5,95,100.0
2392,B2,265.5,0.5,95,100.0
2393,F#2,265.5,0.5,95,100.0
2394,F3,265.5,0.125,95,100.0
2395,A2,265.5,0.125,95,100.0
2396,E2,265.5,0.125,95,100.0
2397,E2,265.625,0.125,95,100.0
2398,F3,265.75,0.125,95,100.0
2399,G2,265.75,0.125,95,100.0
2400,E2,265.75,0.125,95,100.0
2401,E2,265.875,0.125,95,100.0
2402,C#2,266.0,0.5,95,100.0
2403,B3,266.0,4.0,95,100.0
2404,F#3,266.0,4.0,95,100.0
2405,B2,266.0,4.0,95,100.0
2406,E3,266.0,0.5,95,100.0
2407,C#3,266.0,0.5,95,100.0
2408,A2,266.0,0.5,95,100.0
2409,A3,266.0,0.25,95,100.0
2410,F3,266.0,0.25,95,100.0
2411,C#3,266.0,0.25,95,100.0
2412,F3,266.25,0.25,95,100.0
2413,B1,266.5,0.5,95,100.0
2414,E-3,266.5,0.5,95,100.0
2415,B2,266.5,0.5,95,100.0
2416,F#2,266.5,0.5,95,100.0
2417,F3,266.5,0.125,95,100.0
2418,E-3,266.5,0.125,95,100.0
2419,E2,266.5,0.125,95,100.0
2420,E2,266.625,0.125,95,100.0
2421,F3,266.75,0.125,95,100.0
2422,D3,266.75,0.125,95,100.0
2423,E2,266.75,0.125,95,100.0
2424,E2,266.875,0.125,95,100.0
2425,B1,267.0,0.25,95,100.0
2426,E-4,267.0,0.125,95,100.0
2427,E-3,267.0,1.0,95,100.0
2428,B2,267.0,1.0,95,100.0
2429,F#2,267.0,1.0,95,100.0
2430,A3,267.0,0.25,95,100.0
2431,F3,267.0,0.25,95,100.0
2432,C3,267.0,0.25,95,100.0
2433,F#4,267.125,0.125,95,100.0
2434,A1,267.25,0.25,95,100.0
2435,G#4,267.25,0.125,95,100.0
2436,F3,267.25,0.25,95,100.0
2437,B2,267.25,0.25,95,100.0
2438,A4,267.375,0.125,95,100.0
2439,G#1,267.5,0.25,95,100.0
2440,B-4,267.5,0.125,95,100.0
2441,F3,267.5,0.125,95,100.0
2442,A2,267.5,0.125,95,100.0
2443,E2,267.5,0.125,95,100.0
2444,B4,267.625,0.125,95,100.0
2445,E2,267.625,0.125,95,100.0
2446,F#1,267.75,0.25,95,100.0
2447,C#5,267.75,0.125,95,100.0
2448,F3,267.75,0.125,95,100.0
2449,G2,267.75,0.125,95,100.0
2450,E2,267.75,0.125,95,100.0
2451,E-5,267.875,0.125,95,100.0
2452,E2,267.875,0.125,95,100.0
2453,E1,268.0,0.5,95,100.0
2454,E5,268.0,0.25,95,100.0
2455,G#3,268.0,0.5,127,100.0
2456,E3,268.0,0.75,95,100.0
2457,B2,268.0,0.75,95,100.0
2458,E2,268.0,0.75,95,100.0
2459,C#4,268.0,4.0,95,100.0
2460,A4,268.0,4.0,95,100.0
2461,F3,268.0,0.25,95,100.0
2462,F#3,268.0,0.25,95,100.0
2463,G2,268.0,0.25,95,100.0
2464,C#3,268.0,0.25,95,100.0
2465,C#5,268.25,0.25,95,100.0
2466,A2,268.25,0.25,95,100.0
2467,A4,268.5,0.25,95,100.0
2468,E3,268.5,0.25,127,100.0
2469,F#3,268.5,0.25,95,100.0
2470,F2,268.5,0.25,95,100.0
2471,A1,268.75,0.5,95,100.0
2472,C#5,268.75,0.25,95,100.0
2473,A3,268.75,0.5,127,100.0
2474,G2,268.75,0.25,95,100.0
2475,A3,268.75,0.75,95,100.0
2476,E3,268.75,0.75,95,100.0
2477,B2,268.75,0.75,95,100.0
2478,A4,269.0,0.25,95,100.0
2479,F3,269.0,0.25,95,100.0
2480,F#3,269.0,0.25,95,100.0
2481,C3,269.0,0.25,95,100.0
2482,C#3,269.0,0.25,95,100.0
2483,F#4,269.25,0.25,95,100.0
2484,E3,269.25,0.25,127,100.0
2485,B2,269.25,0.25,95,100.0
2486,B1,269.5,1.0,95,100.0
2487,F#5,269.5,1.0,95,100.0
2488,F#3,269.5,2.0,127,100.0
2489,B3,269.5,2.5,95,100.0
2490,F#3,269.5,2.5,95,100.0
2491,B2,269.5,2.5,95,100.0
2492,F#3,269.5,0.25,95,100.0
2493,A2,269.5,0.25,95,100.0
2494,F#3,270.0,0.25,95,100.0
2495,C#3,270.0,0.25,95,100.0
2496,F3,270.25,0.25,95,100.0
2497,C3,270.25,0.25,95,100.0
2498,B1,270.5,0.5,95,100.0
2499,B4,270.5,0.5,95,100.0
2500,F#3,270.5,0.25,95,100.0
2501,B2,270.5,0.25,95,100.0
2502,A2,270.75,0.25,95,100.0
2503,B1,271.0,0.25,95,100.0
2504,F#5,271.0,0.25,95,100.0
2505,F3,271.0,0.25,95,100.0
2506,F#3,271.0,0.25,95,100.0
2507,E2,271.0,0.25,95,100.0
2508,C#3,271.0,0.25,95,100.0
2509,A1,271.25,0.25,95,100.0
2510,E5,271.25,0.25,95,100.0
2511,E2,271.25,0.25,95,100.0
2512,G#1,271.5,0.25,95,100.0
2513,E-5,271.5,0.25,95,100.0
2514,G#3,271.5,0.25,127,100.0
2515,F#3,271.5,0.25,95,100.0
2516,E2,271.5,0.25,95,100.0
2517,A1,271.75,0.25,95,100.0
2518,E5,271.75,0.25,95,100.0
2519,G#3,271.75,0.25,127,100.0
2520,E2,271.75,0.25,95,100.0
2521,G#1,272.0,0.5,95,100.0
2522,E5,272.0,0.25,95,100.0
2523,G#3,272.0,0.5,127,100.0
2524,E3,272.0,0.75,95,100.0
2525,B2,272.0,0.75,95,100.0
2526,E2,272.0,0.75,95,100.0
2527,F#4,272.0,4.0,95,100.0
2528,B4,272.0,4.0,95,100.0
2529,F3,272.0,0.25,95,100.0
2530,F#3,272.0,0.25,95,100.0
2531,G2,272.0,0.25,95,100.0
2532,C#3,272.0,0.25,95,100.0
2533,C#5,272.25,0.25,95,100.0
2534,A2,272.25,0.25,95,100.0
2535,E1,272.5,0.25,95,100.0
2536,A4,272.5,0.25,95,100.0
2537,E3,272.5,0.25,127,100.0
2538,F#3,272.5,0.25,95,100.0
2539,F2,272.5,0.25,95,100.0
2540,A1,272.75,0.5,95,100.0
2541,C#5,272.75,0.25,95,100.0
2542,A3,272.75,0.5,127,100.0
2543,G2,272.75,0.25,95,100.0
2544,A3,272.75,0.75,95,100.0
2545,E3,272.75,0.75,95,100.0
2546,B2,272.75,0.75,95,100.0
2547,A4,273.0,0.25,95,100.0
2548,F3,273.0,0.25,95,100.0
2549,F#3,273.0,0.25,95,100.0
2550,C3,273.0,0.25,95,100.0
2551,C#3,273.0,0.25,95,100.0
2552,E1,273.25,0.25,95,100.0
2553,F#4,273.25,0.25,95,100.0
2554,E3,273.25,0.25,127,100.0
2555,B2,273.25,0.25,95,100.0
2556,F#1,273.5,1.0,95,100.0
2557,F#5,273.5,1.0,95,100.0
2558,F#3,273.5,2.0,127,100.0
2559,B3,273.5,2.5,95,100.0
2560,F#3,273.5,2.5,95,100.0
2561,B2,273.5,2.5,95,100.0
2562,F#3,273.5,0.25,95,100.0
2563,A2,273.5,0.25,95,100.0
2564,B3,274.0,4.0,95,100.0
2565,F#3,274.0,4.0,95,100.0
2566,B2,274.0,4.0,95,100.0
2567,F#3,274.0,0.25,95,100.0
2568,C#3,274.0,0.25,95,100.0
2569,F3,274.25,0.25,95,100.0
2570,C3,274.25,0.25,95,100.0
2571,F#1,274.5,0.5,95,100.0
2572,B4,274.5,0.5,95,100.0
2573,F#3,274.5,0.25,95,100.0
2574,B2,274.5,0.25,95,100.0
2575,A2,274.75,0.25,95,100.0
2576,F#1,275.0,0.25,95,100.0
2577,F#5,275.0,0.125,95,100.0
2578,E4,275.0,0.125,95,100.0
2579,F3,275.0,0.25,95,100.0
2580,F#3,275.0,0.25,95,100.0
2581,E2,275.0,0.25,95,100.0
2582,C#3,275.0,0.25,95,100.0
2583,F#4,275.125,0.125,95,100.0
2584,E1,275.25,0.25,95,100.0
2585,E2,275.25,0.25,95,100.0
2586,E5,275.25,0.125,95,100.0
2587,G#4,275.25,0.125,95,100.0
2588,A4,275.375,0.125,95,100.0
2589,G#3,275.5,0.25,127,100.0
2590,E-5,275.5,0.125,95,100.0
2591,B4,275.5,0.125,95,100.0
2592,F#3,275.5,0.25,95,100.0
2593,E2,275.5,0.25,95,100.0
2594,C#5,275.625,0.125,95,100.0
2595,E1,275.75,0.25,95,100.0
2596,G#3,275.75,0.25,127,100.0
2597,E2,275.75,0.25,95,100.0
2598,E5,275.75,0.125,95,100.0
2599,E-5,275.75,0.125,95,100.0
2600,F#5,275.875,0.125,95,100.0
2601,E1,276.0,0.5,95,100.0
2602,G#5,276.0,0.25,95,100.0
2603,G#3,276.0,0.5,127,100.0
2604,E3,276.0,0.75,95,100.0
2605,B2,276.0,0.75,95,100.0
2606,E2,276.0,0.75,95,100.0
2607,F3,276.0,0.25,95,100.0
2608,F#3,276.0,0.25,95,100.0
2609,G2,276.0,0.25,95,100.0
2610,C#3,276.0,0.25,95,100.0
2611,F#5,276.25,0.25,95,100.0
2612,A2,276.25,0.25,95,100.0
2613,E5,276.5,0.25,95,100.0
2614,E3,276.5,0.25,127,100.0
2615,F#3,276.5,0.25,95,100.0
2616,F2,276.5,0.25,95,100.0
2617,A1,276.75,0.5,95,100.0
2618,F#5,276.75,0.25,95,100.0
2619,A3,276.75,0.5,127,100.0
2620,G2,276.75,0.25,95,100.0
2621,A3,276.75,0.75,95,100.0
2622,E3,276.75,0.75,95,100.0
2623,B2,276.75,0.75,95,100.0
2624,E5,277.0,0.25,95,100.0
2625,F3,277.0,0.25,95,100.0
2626,F#3,277.0,0.25,95,100.0
2627,C3,277.0,0.25,95,100.0
2628,C#3,277.0,0.25,95,100.0
2629,E-5,277.25,0.25,95,100.0
2630,E3,277.25,0.25,127,100.0
2631,B2,277.25,0.25,95,100.0
2632,B1,277.5,1.0,95,100.0
2633,E5,277.5,1.0,95,100.0
2634,F#3,277.5,2.0,127,100.0
2635,B3,277.5,2.5,95,100.0
2636,F#3,277.5,2.5,95,100.0
2637,B2,277.5,2.5,95,100.0
2638,F#3,277.5,0.25,95,100.0
2639,A2,277.5,0.25,95,100.0
2640,A3,278.0,4.0,95,100.0
2641,F#3,278.0,4.0,95,100.0
2642,D3,278.0,4.0,95,100.0
2643,F#3,278.0,0.25,95,100.0
2644,C#3,278.0,0.25,95,100.0
2645,F3,278.25,0.25,95,100.0
2646,C3,278.25,0.25,95,100.0
2647,B1,278.5,0.5,95,100.0
2648,E-5,278.5,0.5,95,100.0
2649,F#3,278.5,0.25,95,100.0
2650,B2,278.5,0.25,95,100.0
2651,A2,278.75,0.25,95,100.0
2652,B1,279.0,0.25,95,100.0
2653,E-5,279.0,0.25,95,100.0
2654,F3,279.0,0.25,95,100.0
2655,F#3,279.0,0.25,95,100.0
2656,E2,279.0,0.25,95,100.0
2657,C#3,279.0,0.25,95,100.0
2658,A1,279.25,0.25,95,100.0
2659,C#5,279.25,0.25,95,100.0
2660,E2,279.25,0.25,95,100.0
2661,G#1,279.5,0.25,95,100.0
2662,B4,279.5,0.25,95,100.0
2663,G#3,279.5,0.25,127,100.0
2664,F#3,279.5,0.25,95,100.0
2665,E2,279.5,0.25,95,100.0
2666,A1,279.75,0.25,95,100.0
2667,C#5,279.75,0.25,95,100.0
2668,G#3,279.75,0.25,127,100.0
2669,E2,279.75,0.25,95,100.0
2670,G#1,280.0,0.5,95,100.0
2671,B4,280.0,0.25,95,100.0
2672,G#3,280.0,0.5,127,100.0
2673,E3,280.0,0.75,95,100.0
2674,B2,280.0,0.75,95,100.0
2675,E2,280.0,0.75,95,100.0
2676,F#4,280.0,4.0,95,100.0
2677,B4,280.0,4.0,95,100.0
2678,F3,280.0,0.25,95,100.0
2679,F#3,280.0,0.25,95,100.0
2680,G2,280.0,0.25,95,100.0
2681,C#3,280.0,0.25,95,100.0
2682,A4,280.25,0.25,95,100.0
2683,A2,280.25,0.25,95,100.0
2684,E1,280.5,0.25,95,100.0
2685,G#4,280.5,0.25,95,100.0
2686,E3,280.5,0.25,127,100.0
2687,F#3,280.5,0.25,95,100.0
2688,F2,280.5,0.25,95,100.0
2689,A1,280.75,0.5,95,100.0
2690,A4,280.75,0.25,95,100.0
2691,A3,280.75,0.5,127,100.0
2692,G2,280.75,0.25,95,100.0
2693,A3,280.75,0.75,95,100.0
2694,E3,280.75,0.75,95,100.0
2695,B2,280.75,0.75,95,100.0
2696,G#4,281.0,0.25,95,100.0
2697,F3,281.0,0.25,95,100.0
2698,F#3,281.0,0.25,95,100.0
2699,C3,281.0,0.25,95,100.0
2700,C#3,281.0,0.25,95,100.0
2701,E1,281.25,0.25,95,100.0
2702,F#4,281.25,0.25,95,100.0
2703,E3,281.25,0.25,127,100.0
2704,B2,281.25,0.25,95,100.0
2705,F#1,281.5,1.0,95,100.0
2706,G#4,281.5,0.25,95,100.0
2707,F#3,281.5,2.0,127,100.0
2708,B3,281.5,2.5,95,100.0
2709,F#3,281.5,2.5,95,100.0
2710,B2,281.5,2.5,95,100.0
2711,F#3,281.5,0.25,95,100.0
2712,A2,281.5,0.25,95,100.0
2713,F#4,281.75,0.25,95,100.0
2714,G#4,282.0,0.25,95,100.0
2715,B3,282.0,4.0,95,100.0
2716,G3,282.0,4.0,95,100.0
2717,E3,282.0,4.0,95,100.0
2718,F#3,282.0,0.25,95,100.0
2719,C#3,282.0,0.25,95,100.0
2720,F#4,282.25,0.25,95,100.0
2721,F3,282.25,0.25,95,100.0
2722,C3,282.25,0.25,95,100.0
2723,F#1,282.5,0.5,95,100.0
2724,G#4,282.5,0.25,95,100.0
2725,F#3,282.5,0.25,95,100.0
2726,B2,282.5,0.25,95,100.0
2727,F#4,282.75,0.25,95,100.0
2728,A2,282.75,0.25,95,100.0
2729,F#1,283.0,0.25,95,100.0
2730,C#4,283.0,0.25,95,100.0
2731,F3,283.0,0.25,95,100.0
2732,F#3,283.0,0.25,95,100.0
2733,E2,283.0,0.25,95,100.0
2734,C#3,283.0,0.25,95,100.0
2735,E1,283.25,0.25,95,100.0
2736,E-4,283.25,0.25,95,100.0
2737,E2,283.25,0.25,95,100.0
2738,E4,283.5,0.25,95,100.0
2739,G#3,283.5,0.25,127,100.0
2740,F#3,283.5,0.25,95,100.0
2741,E2,283.5,0.25,95,100.0
2742,E1,283.75,0.25,95,100.0
2743,F#4,283.75,0.25,95,100.0
2744,G#3,283.75,0.25,127,100.0
2745,E2,283.75,0.25,95,100.0
2746,E1,284.0,0.5,95,100.0
2747,A4,284.0,0.25,95,100.0
2748,G#3,284.0,0.5,127,100.0
2749,E3,284.0,0.75,95,100.0
2750,B2,284.0,0.75,95,100.0
2751,E2,284.0,0.75,95,100.0
2752,A3,284.0,4.0,95,100.0
2753,D4,284.0,4.0,95,100.0
2754,F3,284.0,0.25,95,100.0
2755,F#3,284.0,0.25,95,100.0
2756,G2,284.0,0.25,95,100.0
2757,C#3,284.0,0.25,95,100.0
2758,G#4,284.25,0.25,95,100.0
2759,A2,284.25,0.25,95,100.0
2760,F#4,284.5,0.25,95,100.0
2761,E3,284.5,0.25,127,100.0
2762,F#3,284.5,0.25,95,100.0
2763,F2,284.5,0.25,95,100.0
2764,A1,284.75,0.5,95,100.0
2765,A4,284.75,0.25,95,100.0
2766,A3,284.75,0.5,127,100.0
2767,G2,284.75,0.25,95,100.0
2768,A3,284.75,0.75,95,100.0
2769,E3,284.75,0.75,95,100.0
2770,B2,284.75,0.75,95,100.0
2771,G#4,285.0,0.25,95,100.0
2772,F3,285.0,0.25,95,100.0
2773,F#3,285.0,0.25,95,100.0
2774,C3,285.0,0.25,95,100.0
2775,C#3,285.0,0.25,95,100.0
2776,F#4,285.25,0.25,95,100.0
2777,E3,285.25,0.25,127,100.0
2778,B2,285.25,0.25,95,100.0
2779,B1,285.5,1.0,95,100.0
2780,B4,285.5,1.0,95,100.0
2781,F#3,285.5,2.0,127,100.0
2782,B3,285.5,2.5,95,100.0
2783,F#3,285.5,2.5,95,100.0
2784,B2,285.5,2.5,95,100.0
2785,F#3,285.5,0.25,95,100.0
2786,A2,285.5,0.25,95,100.0
2787,F#3,286.0,0.25,95,100.0
2788,C#3,286.0,0.25,95,100.0
2789,F3,286.25,0.25,95,100.0
2790,C3,286.25,0.25,95,100.0
2791,B1,286.5,0.5,95,100.0
2792,F#4,286.5,0.5,95,100.0
2793,F#3,286.5,0.25,95,100.0
2794,B2,286.5,0.25,95,100.0
2795,A2,286.75,0.25,95,100.0
2796,B1,287.0,0.25,95,100.0
2797,B4,287.0,0.25,95,100.0
2798,F3,287.0,0.25,95,100.0
2799,F#3,287.0,0.25,95,100.0
2800,E2,287.0,0.25,95,100.0
2801,C#3,287.0,0.25,95,100.0
2802,A1,287.25,0.25,95,100.0
2803,A4,287.25,0.25,95,100.0
2804,E2,287.25,0.25,95,100.0
2805,G#1,287.5,0.25,95,100.0
2806,G#4,287.5,0.25,95,100.0
2807,G#3,287.5,0.25,127,100.0
2808,F#3,287.5,0.25,95,100.0
2809,E2,287.5,0.25,95,100.0
2810,A1,287.75,0.25,95,100.0
2811,A4,287.75,0.25,95,100.0
2812,G#3,287.75,0.25,127,100.0
2813,E2,287.75,0.25,95,100.0
2814,G#1,288.0,0.5,95,100.0
2815,G#5,288.0,0.25,95,100.0
2816,G#3,288.0,0.5,127,100.0
2817,E3,288.0,0.75,95,100.0
2818,B2,288.0,0.75,95,100.0
2819,E2,288.0,0.75,95,100.0
2820,B3,288.0,4.0,95,100.0
2821,E4,288.0,4.0,95,100.0
2822,F3,288.0,0.25,95,100.0
2823,F#3,288.0,0.25,95,100.0
2824,G2,288.0,0.25,95,100.0
2825,C#3,288.0,0.25,95,100.0
2826,F#5,288.25,0.25,95,100.0
2827,A2,288.25,0.25,95,100.0
2828,E1,288.5,0.25,95,100.0
2829,E5,288.5,0.25,95,100.0
2830,E3,288.5,0.25,127,100.0
2831,F#3,288.5,0.25,95,100.0
2832,F2,288.5,0.25,95,100.0
2833,A1,288.75,0.5,95,100.0
2834,C#5,288.75,0.5,95,100.0
2835,A3,288.75,0.5,127,100.0
2836,G2,288.75,0.25,95,100.0
2837,A3,288.75,0.75,95,100.0
2838,E3,288.75,0.75,95,100.0
2839,B2,288.75,0.75,95,100.0
2840,F3,289.0,0.25,95,100.0
2841,F#3,289.0,0.25,95,100.0
2842,C3,289.0,0.25,95,100.0
2843,C#3,289.0,0.25,95,100.0
2844,E1,289.25,0.25,95,100.0
2845,A4,289.25,0.25,95,100.0
2846,E3,289.25,0.25,127,100.0
2847,B2,289.25,0.25,95,100.0
2848,F#1,289.5,1.0,95,100.0
2849,F#5,289.5,1.0,95,100.0
2850,F#3,289.5,2.0,127,100.0
2851,B3,289.5,2.5,95,100.0
2852,F#3,289.5,2.5,95,100.0
2853,B2,289.5,2.5,95,100.0
2854,F#3,289.5,0.25,95,100.0
2855,A2,289.5,0.25,95,100.0
2856,B3,290.0,4.0,95,100.0
2857,G3,290.0,4.0,95,100.0
2858,E3,290.0,4.0,95,100.0
2859,F#3,290.0,0.25,95,100.0
2860,C#3,290.0,0.25,95,100.0
2861,F3,290.25,0.25,95,100.0
2862,C3,290.25,0.25,95,100.0
2863,F#1,290.5,0.5,95,100.0
2864,B4,290.5,0.5,95,100.0
2865,F#3,290.5,0.25,95,100.0
2866,B2,290.5,0.25,95,100.0
2867,A2,290.75,0.25,95,100.0
2868,F#1,291.0,0.25,95,100.0
2869,C#5,291.0,0.25,95,100.0
2870,F3,291.0,0.25,95,100.0
2871,F#3,291.0,0.25,95,100.0
2872,E2,291.0,0.25,95,100.0
2873,C#3,291.0,0.25,95,100.0
2874,E1,291.25,0.25,95,100.0
2875,B4,291.25,0.25,95,100.0
2876,E2,291.25,0.25,95,100.0
2877,A4,291.5,0.25,95,100.0
2878,G#3,291.5,0.25,127,100.0
2879,F#3,291.5,0.25,95,100.0
2880,E2,291.5,0.25,95,100.0
2881,E1,291.75,0.25,95,100.0
2882,G#4,291.75,0.25,95,100.0
2883,G#3,291.75,0.25,127,100.0
2884,E2,291.75,0.25,95,100.0
2885,E1,292.0,0.5,95,100.0
2886,G#4,292.0,0.25,95,100.0
2887,G#3,292.0,0.5,127,100.0
2888,E3,292.0,0.75,95,100.0
2889,B2,292.0,0.75,95,100.0
2890,E2,292.0,0.75,95,100.0
2891,F3,292.0,0.25,95,100.0
2892,F#3,292.0,0.25,95,100.0
2893,G2,292.0,0.25,95,100.0
2894,C#3,292.0,0.25,95,100.0
2895,F#4,292.25,0.25,95,100.0
2896,A2,292.25,0.25,95,100.0
2897,E4,292.5,0.25,95,100.0
2898,E3,292.5,0.25,127,100.0
2899,F#3,292.5,0.25,95,100.0
2900,F2,292.5,0.25,95,100.0
2901,A1,292.75,0.5,95,100.0
2902,A4,292.75,0.25,95,100.0
2903,A3,292.75,0.5,127,100.0
2904,G2,292.75,0.25,95,100.0
2905,A3,292.75,0.75,95,100.0
2906,E3,292.75,0.75,95,100.0
2907,B2,292.75,0.75,95,100.0
2908,F#4,293.0,0.25,95,100.0
2909,F3,293.0,0.25,95,100.0
2910,F#3,293.0,0.25,95,100.0
2911,C3,293.0,0.25,95,100.0
2912,C#3,293.0,0.25,95,100.0
2913,E4,293.25,0.25,95,100.0
2914,E3,293.25,0.25,127,100.0
2915,B2,293.25,0.25,95,100.0
2916,B1,293.5,1.0,95,100.0
2917,F#4,293.5,1.0,95,100.0
2918,F#3,293.5,2.0,127,100.0
2919,B3,293.5,2.5,95,100.0
2920,F#3,293.5,2.5,95,100.0
2921,B2,293.5,2.5,95,100.0
2922,F#3,293.5,0.25,95,100.0
2923,A2,293.5,0.25,95,100.0
2924,A3,294.0,4.0,95,100.0
2925,F#3,294.0,4.0,95,100.0
2926,D3,294.0,4.0,95,100.0
2927,F#3,294.0,0.25,95,100.0
2928,C#3,294.0,0.25,95,100.0
2929,F3,294.25,0.25,95,100.0
2930,C3,294.25,0.25,95,100.0
2931,B1,294.5,0.5,95,100.0
2932,E4,294.5,0.5,95,100.0
2933,F#3,294.5,0.25,95,100.0
2934,B2,294.5,0.25,95,100.0
2935,A2,294.75,0.25,95,100.0
2936,B1,295.0,0.25,95,100.0
2937,E4,295.0,0.125,95,100.0
2938,F3,295.0,0.25,95,100.0
2939,F#3,295.0,0.25,95,100.0
2940,E2,295.0,0.25,95,100.0
2941,C#3,295.0,0.25,95,100.0
2942,F#4,295.125,0.125,95,100.0
2943,A1,295.25,0.25,95,100.0
2944,G#4,295.25,0.125,95,100.0
2945,E2,295.25,0.25,95,100.0
2946,A4,295.375,0.125,95,100.0
2947,G#1,295.5,0.25,95,100.0
2948,B4,295.5,0.125,95,100.0
2949,G#3,295.5,0.25,127,100.0
2950,F#3,295.5,0.25,95,100.0
2951,E2,295.5,0.25,95,100.0
2952,C#5,295.625,0.125,95,100.0
2953,A1,295.75,0.25,95,100.0
2954,E-5,295.75,0.125,95,100.0
2955,G#3,295.75,0.25,127,100.0
2956,E2,295.75,0.25,95,100.0
2957,E5,295.875,0.125,95,100.0
2958,G#1,296.0,0.5,95,100.0
2959,E5,296.0,0.25,95,100.0
2960,G#3,296.0,0.5,127,100.0
2961,E3,296.0,0.75,95,100.0
2962,B2,296.0,0.75,95,100.0
2963,E2,296.0,0.75,95,100.0
2964,B3,296.0,4.0,95,100.0
2965,E4,296.0,4.0,95,100.0
2966,F3,296.0,0.25,95,100.0
2967,F#3,296.0,0.25,95,100.0
2968,G2,296.0,0.25,95,100.0
2969,C#3,296.0,0.25,95,100.0
2970,B4,296.25,0.25,95,100.0
2971,A2,296.25,0.25,95,100.0
2972,E1,296.5,0.25,95,100.0
2973,E4,296.5,0.25,95,100.0
2974,E3,296.5,0.25,127,100.0
2975,F#3,296.5,0.25,95,100.0
2976,F2,296.5,0.25,95,100.0
2977,A1,296.75,0.5,95,100.0
2978,E5,296.75,0.25,95,100.0
2979,A3,296.75,0.5,127,100.0
2980,G2,296.75,0.25,95,100.0
2981,A3,296.75,0.75,95,100.0
2982,E3,296.75,0.75,95,100.0
2983,B2,296.75,0.75,95,100.0
2984,E-5,297.0,0.25,95,100.0
2985,F3,297.0,0.25,95,100.0
2986,F#3,297.0,0.25,95,100.0
2987,C3,297.0,0.25,95,100.0
2988,C#3,297.0,0.25,95,100.0
2989,E1,297.25,0.25,95,100.0
2990,B4,297.25,0.25,95,100.0
2991,E3,297.25,0.25,127,100.0
2992,B2,297.25,0.25,95,100.0
2993,F#1,297.5,1.0,95,100.0
2994,F#3,297.5,1.5,95,100.0
2995,F#3,297.5,2.0,127,100.0
2996,F#5,297.5,0.5,95,100.0
2997,E-5,297.5,0.5,95,100.0
2998,B4,297.5,0.5,95,100.0
2999,F#3,297.5,0.25,95,100.0
3000,A2,297.5,0.25,95,100.0
3001,E-5,298.0,0.125,95,100.0
3002,G3,298.0,4.0,95,100.0
3003,D3,298.0,4.0,95,100.0
3004,B2,298.0,4.0,95,100.0
3005,F#3,298.0,0.25,95,100.0
3006,C#3,298.0,0.25,95,100.0
3007,E5,298.125,0.125,95,100.0
3008,E-5,298.25,0.125,95,100.0
3009,F3,298.25,0.25,95,100.0
3010,C3,298.25,0.25,95,100.0
3011,E5,298.375,0.125,95,100.0
3012,F#1,298.5,0.5,95,100.0
3013,E-5,298.5,0.125,95,100.0
3014,F#3,298.5,0.25,95,100.0
3015,B2,298.5,0.25,95,100.0
3016,E5,298.625,0.125,95,100.0
3017,E-5,298.75,0.125,95,100.0
3018,A2,298.75,0.25,95,100.0
3019,E5,298.875,0.125,95,100.0
3020,E1,299.0,0.5,95,100.0
3021,E-3,299.0,1.0,95,100.0
3022,E-5,299.0,0.125,95,100.0
3023,B-2,299.0,0.25,95,100.0
3024,B2,299.0,0.25,95,100.0
3025,F2,299.0,0.25,95,100.0
3026,E5,299.125,0.125,95,100.0
3027,E-5,299.25,0.125,95,100.0
3028,E5,299.375,0.125,95,100.0
3029,F#1,299.5,0.5,95,100.0
3030,E-5,299.5,0.125,95,100.0
3031,G#2,299.5,0.25,95,100.0
3032,A2,299.5,0.25,95,100.0
3033,E2,299.5,0.25,95,100.0
3034,E5,299.625,0.125,95,100.0
3035,E-5,299.75,0.125,95,100.0
3036,E5,299.875,0.125,95,100.0
3037,E2,300.0,0.25,95,100.0
3038,E5,300.0,0.125,95,100.0
3039,E4,300.0,0.25,47,100.0
3040,B3,300.0,0.25,47,100.0
3041,E3,300.0,0.25,47,100.0
3042,A3,300.0,4.0,95,100.0
3043,D4,300.0,4.0,95,100.0
3044,F2,300.0,0.25,95,100.0
3045,G2,300.0,0.25,95,100.0
3046,F#2,300.0,0.25,95,100.0
3047,E2,300.25,0.25,95,100.0
3048,E4,300.25,0.25,47,100.0
3049,B3,300.25,0.25,47,100.0
3050,E3,300.25,0.25,47,100.0
3051,D3,301.0,0.25,106,100.0
3052,E3,301.0,0.25,106,100.0
3053,F#2,301.0,0.25,106,100.0
3054,E2,301.5,0.25,95,100.0
3055,E4,301.5,0.25,47,100.0
3056,B3,301.5,0.25,47,100.0
3057,E3,301.5,0.25,47,100.0
3058,B2,301.5,0.25,111,100.0
3059,A2,301.5,0.25,111,100.0
3060,E2,301.75,0.25,95,100.0
3061,E4,301.75,0.25,47,100.0
3062,B3,301.75,0.25,47,100.0
3063,E3,301.75,0.25,47,100.0
3064,F#2,302.0,0.25,95,100.0
3065,A3,302.0,4.0,95,100.0
3066,E3,302.0,4.0,95,100.0
3067,C#3,302.0,4.0,95,100.0
3068,B1,303.0,0.5,95,100.0
3069,B3,303.0,0.25,47,100.0
3070,A2,303.0,0.25,116,100.0
3071,G2,303.0,0.25,116,100.0
3072,F#2,303.0,0.25,116,100.0
3073,C#2,303.5,0.5,95,100.0
3074,C#4,303.5,0.25,47,100.0
3075,E2,304.0,0.25,95,100.0
3076,F#2,304.0,0.25,95,100.0
3077,A4,304.0,0.25,47,100.0
3078,C#4,304.0,0.25,47,100.0
3079,A3,304.0,0.25,47,100.0
3080,B3,304.0,4.0,95,100.0
3081,G4,304.0,4.0,95,100.0
3082,E2,304.25,0.25,95,100.0
3083,A4,304.25,0.25,47,100.0
3084,C#4,304.25,0.25,47,100.0
3085,A3,304.25,0.25,47,100.0
3086,F#2,305.0,0.25,95,100.0
3087,E2,305.5,0.25,95,100.0
3088,A4,305.5,0.25,47,100.0
3089,C#4,305.5,0.25,47,100.0
3090,A3,305.5,0.25,47,100.0
3091,E2,305.75,0.25,95,100.0
3092,A4,305.75,0.25,47,100.0
3093,C#4,305.75,0.25,47,100.0
3094,A3,305.75,0.25,47,100.0
3095,C#4,306.0,0.5,95,100.0
3096,F#2,306.0,0.25,95,100.0
3097,B3,306.5,0.5,95,100.0
3098,B3,307.0,1.0,95,100.0
3099,B1,307.0,0.5,95,100.0
3100,B3,307.0,0.25,47,100.0
3101,A2,307.0,0.25,95,100.0
3102,F#2,307.0,0.25,95,100.0
3103,C#2,307.5,0.5,95,100.0
3104,C#4,307.5,0.25,47,100.0
3105,G2,307.5,0.25,95,100.0
3106,C#4,308.0,0.5,95,100.0
3107,E2,308.0,0.25,95,100.0
3108,E4,308.0,0.25,47,100.0
3109,B3,308.0,0.25,47,100.0
3110,E3,308.0,0.25,47,100.0
3111,C#4,308.0,4.0,95,100.0
3112,A4,308.0,4.0,95,100.0
3113,F2,308.0,0.25,95,100.0
3114,G2,308.0,0.25,95,100.0
3115,F#2,308.0,0.25,95,100.0
3116,E2,308.25,0.25,95,100.0
3117,E4,308.25,0.25,47,100.0
3118,B3,308.25,0.25,47,100.0
3119,E3,308.25,0.25,47,100.0
3120,B3,308.5,0.5,95,100.0
3121,B3,309.0,1.0,95,100.0
3122,F#2,309.0,0.25,95,100.0
3123,E2,309.5,0.25,95,100.0
3124,E4,309.5,0.25,47,100.0
3125,B3,309.5,0.25,47,100.0
3126,E3,309.5,0.25,47,100.0
3127,E2,309.75,0.25,95,100.0
3128,E4,309.75,0.25,47,100.0
3129,B3,309.75,0.25,47,100.0
3130,E3,309.75,0.25,47,100.0
3131,C#4,310.0,0.5,95,100.0
3132,F#2,310.0,0.25,95,100.0
3133,B3,310.5,0.5,95,100.0
3134,C#4,311.0,0.5,95,100.0
3135,B1,311.0,0.5,95,100.0
3136,B3,311.0,0.25,47,100.0
3137,F#2,311.0,0.25,95,100.0
3138,B3,311.5,0.5,95,100.0
3139,C#2,311.5,0.5,95,100.0
3140,C#4,311.5,0.25,47,100.0
3141,C#4,312.0,0.5,95,100.0
3142,E2,312.0,0.25,95,100.0
3143,F#2,312.0,0.25,95,100.0
3144,A4,312.0,0.25,47,100.0
3145,C#4,312.0,0.25,47,100.0
3146,A3,312.0,0.25,47,100.0
3147,F#4,312.0,4.0,95,100.0
3148,B4,312.0,4.0,95,100.0
3149,E2,312.25,0.25,95,100.0
3150,A4,312.25,0.25,47,100.0
3151,C#4,312.25,0.25,47,100.0
3152,A3,312.25,0.25,47,100.0
3153,B3,312.5,0.5,95,100.0
3154,B3,313.0,1.0,95,100.0
3155,F#2,313.0,0.25,95,100.0
3156,E2,313.5,0.25,95,100.0
3157,A4,313.5,0.25,47,100.0
3158,C#4,313.5,0.25,47,100.0
3159,A3,313.5,0.25,47,100.0
3160,E2,313.75,0.25,95,100.0
3161,A4,313.75,0.25,47,100.0
3162,C#4,313.75,0.25,47,100.0
3163,A3,313.75,0.25,47,100.0
3164,F#2,314.0,0.25,95,100.0
3165,E3,314.0,0.75,95,100.0
3166,B2,314.0,0.75,95,100.0
3167,A3,314.75,0.75,95,100.0
3168,E3,314.75,0.75,95,100.0
3169,B1,315.0,0.5,95,100.0
3170,B3,315.0,0.25,47,100.0
3171,A2,315.0,0.25,95,100.0
3172,F#2,315.0,0.25,95,100.0
3173,C#2,315.5,0.5,95,100.0
3174,C#4,315.5,0.25,47,100.0
3175,G2,315.5,0.25,95,100.0
3176,F#3,315.5,2.5,95,100.0
3177,B2,315.5,2.5,95,100.0
3178,E2,316.0,0.25,95,100.0
3179,G#3,316.0,1.0,127,100.0
3180,E4,316.0,0.25,47,100.0
3181,B3,316.0,0.25,47,100.0
3182,E3,316.0,0.25,47,100.0
3183,F2,316.0,0.25,95,100.0
3184,G2,316.0,0.25,95,100.0
3185,F#2,316.0,0.25,95,100.0
3186,G#4,316.0,4.0,79,100.0
3187,E4,316.0,4.0,79,100.0
3188,E2,316.25,0.25,95,100.0
3189,E4,316.25,0.25,47,100.0
3190,B3,316.25,0.25,47,100.0
3191,E3,316.25,0.25,47,100.0
3192,G#3,317.0,0.5,127,100.0
3193,F#2,317.0,0.25,95,100.0
3194,E2,317.5,0.25,95,100.0
3195,G#3,317.5,1.0,127,100.0
3196,E4,317.5,0.25,47,100.0
3197,B3,317.5,0.25,47,100.0
3198,E3,317.5,0.25,47,100.0
3199,E2,317.75,0.25,95,100.0
3200,E4,317.75,0.25,47,100.0
3201,B3,317.75,0.25,47,100.0
3202,E3,317.75,0.25,47,100.0
3203,F#2,318.0,0.25,95,100.0
3204,E3,318.0,0.75,95,100.0
3205,B2,318.0,0.75,95,100.0
3206,F#3,318.5,1.0,127,100.0
3207,A3,318.75,0.75,95,100.0
3208,E3,318.75,0.75,95,100.0
3209,B1,319.0,0.5,95,100.0
3210,B3,319.0,0.25,47,100.0
3211,F#2,319.0,0.25,95,100.0
3212,C#2,319.5,0.5,95,100.0
3213,C#4,319.5,0.25,47,100.0
3214,F#3,319.5,0.5,127,100.0
3215,F#3,319.5,2.5,95,100.0
3216,B2,319.5,2.5,95,100.0
3217,E2,320.0,0.25,95,100.0
3218,A3,320.0,0.5,127,100.0
3219,F#2,320.0,0.25,95,100.0
3220,A4,320.0,0.25,47,100.0
3221,C#4,320.0,0.25,47,100.0
3222,A3,320.0,0.25,47,100.0
3223,F#4,320.0,4.0,95,100.0
3224,B4,320.0,4.0,95,100.0
3225,A4,320.0,2.0,79,100.0
3226,F#4,320.0,2.0,79,100.0
3227,E2,320.25,0.25,95,100.0
3228,A4,320.25,0.25,47,100.0
3229,C#4,320.25,0.25,47,100.0
3230,A3,320.25,0.25,47,100.0
3231,A3,320.5,0.5,127,100.0
3232,B3,321.0,0.5,127,100.0
3233,F#2,321.0,0.25,95,100.0
3234,E2,321.5,0.25,95,100.0
3235,A3,321.5,1.0,127,100.0
3236,A4,321.5,0.25,47,100.0
3237,C#4,321.5,0.25,47,100.0
3238,A3,321.5,0.25,47,100.0
3239,E2,321.75,0.25,95,100.0
3240,A4,321.75,0.25,47,100.0
3241,C#4,321.75,0.25,47,100.0
3242,A3,321.75,0.25,47,100.0
3243,F#2,322.0,0.25,95,100.0
3244,E5,322.0,0.5,79,100.0
3245,E3,322.0,0.75,95,100.0
3246,B2,322.0,0.75,95,100.0
3247,G#3,322.5,1.0,127,100.0
3248,E-5,322.5,0.5,79,100.0
3249,A3,322.75,0.75,95,100.0
3250,E3,322.75,0.75,95,100.0
3251,B1,323.0,0.5,95,100.0
3252,B3,323.0,0.25,47,100.0
3253,C#5,323.0,0.5,79,100.0
3254,A2,323.0,0.25,95,100.0
3255,F#2,323.0,0.25,95,100.0
3256,C#2,323.5,0.5,95,100.0
3257,C#4,323.5,0.25,47,100.0
3258,E3,323.5,0.5,127,100.0
3259,G2,323.5,0.25,95,100.0
3260,B4,323.5,0.5,79,100.0
3261,F#3,323.5,2.5,95,100.0
3262,B2,323.5,2.5,95,100.0
3263,E2,324.0,0.25,95,100.0
3264,G#3,324.0,0.5,127,100.0
3265,E5,324.0,0.5,79,100.0
3266,E4,324.0,0.25,47,100.0
3267,B3,324.0,0.25,47,100.0
3268,E3,324.0,0.25,47,100.0
3269,A3,324.0,4.0,95,100.0
3270,D4,324.0,4.0,95,100.0
3271,F2,324.0,0.25,95,100.0
3272,G2,324.0,0.25,95,100.0
3273,F#2,324.0,0.25,95,100.0
3274,E2,324.25,0.25,95,100.0
3275,E4,324.25,0.25,47,100.0
3276,B3,324.25,0.25,47,100.0
3277,E3,324.25,0.25,47,100.0
3278,G#3,324.5,0.5,127,100.0
3279,E-5,324.5,0.5,79,100.0
3280,G#3,325.0,0.5,127,100.0
3281,F#2,325.0,0.25,95,100.0
3282,C#5,325.0,0.5,79,100.0
3283,E2,325.5,0.25,95,100.0
3284,G#3,325.5,1.0,127,100.0
3285,B4,325.5,0.5,79,100.0
3286,E4,325.5,0.25,47,100.0
3287,B3,325.5,0.25,47,100.0
3288,E3,325.5,0.25,47,100.0
3289,E2,325.75,0.25,95,100.0
3290,E4,325.75,0.25,47,100.0
3291,B3,325.75,0.25,47,100.0
3292,E3,325.75,0.25,47,100.0
3293,F#2,326.0,0.25,95,100.0
3294,G#4,326.0,0.5,79,100.0
3295,E3,326.0,0.75,95,100.0
3296,B2,326.0,0.75,95,100.0
3297,F#3,326.5,1.0,127,100.0
3298,A4,326.5,0.5,79,100.0
3299,A3,326.75,0.75,95,100.0
3300,E3,326.75,0.75,95,100.0
3301,B1,327.0,0.5,95,100.0
3302,B3,327.0,0.25,47,100.0
3303,F#2,327.0,0.25,95,100.0
3304,B4,327.0,0.5,79,100.0
3305,C#2,327.5,0.5,95,100.0
3306,C#4,327.5,0.25,47,100.0
3307,F#3,327.5,0.5,127,100.0
3308,F#3,327.5,2.5,95,100.0
3309,B2,327.5,2.5,95,100.0
3310,A4,327.5,0.5,79,100.0
3311,F#4,327.5,0.5,79,100.0
3312,E2,328.0,0.25,95,100.0
3313,A3,328.0,1.0,127,100.0
3314,F#2,328.0,0.25,95,100.0
3315,A4,328.0,0.25,47,100.0
3316,C#4,328.0,0.25,47,100.0
3317,A3,328.0,0.25,47,100.0
3318,B3,328.0,4.0,95,100.0
3319,E4,328.0,4.0,95,100.0
3320,E2,328.25,0.25,95,100.0
3321,A4,328.25,0.25,47,100.0
3322,C#4,328.25,0.25,47,100.0
3323,A3,328.25,0.25,47,100.0
3324,B3,329.0,0.5,127,100.0
3325,F#2,329.0,0.25,95,100.0
3326,E2,329.5,0.25,95,100.0
3327,A3,329.5,1.0,127,100.0
3328,A4,329.5,0.25,47,100.0
3329,C#4,329.5,0.25,47,100.0
3330,A3,329.5,0.25,47,100.0
3331,E2,329.75,0.25,95,100.0
3332,A4,329.75,0.25,47,100.0
3333,C#4,329.75,0.25,47,100.0
3334,A3,329.75,0.25,47,100.0
3335,A4,329.75,1.75,79,100.0
3336,F#4,329.75,1.75,79,100.0
3337,F#2,330.0,0.25,95,100.0
3338,E3,330.0,0.75,95,100.0
3339,B2,330.0,0.75,95,100.0
3340,G#3,330.5,1.5,127,100.0
3341,A3,330.75,0.75,95,100.0
3342,E3,330.75,0.75,95,100.0
3343,B1,331.0,0.5,95,100.0
3344,B3,331.0,0.25,47,100.0
3345,A2,331.0,0.25,95,100.0
3346,F#2,331.0,0.25,95,100.0
3347,C#2,331.5,0.5,95,100.0
3348,C#4,331.5,0.25,47,100.0
3349,G2,331.5,0.25,95,100.0
3350,F#3,331.5,2.5,95,100.0
3351,B2,331.5,2.5,95,100.0
3352,F#4,331.625,0.125,79,100.0
3353,A4,331.75,0.125,79,100.0
3354,E2,332.0,0.25,95,100.0
3355,G#3,332.0,0.5,127,100.0
3356,E4,332.0,0.25,47,100.0
3357,B3,332.0,0.25,47,100.0
3358,E3,332.0,0.25,47,100.0
3359,F2,332.0,0.25,95,100.0
3360,G2,332.0,0.25,95,100.0
3361,F#2,332.0,0.25,95,100.0
3362,F#4,332.125,0.125,79,100.0
3363,E2,332.25,0.25,95,100.0
3364,B4,332.25,0.125,79,100.0
3365,E4,332.25,0.25,47,100.0
3366,B3,332.25,0.25,47,100.0
3367,E3,332.25,0.25,47,100.0
3368,G#3,332.5,0.5,127,100.0
3369,F#4,332.625,0.125,79,100.0
3370,C#5,332.75,0.125,79,100.0
3371,G#3,333.0,0.5,127,100.0
3372,F#2,333.0,0.25,95,100.0
3373,F#4,333.125,0.125,79,100.0
3374,E-5,333.25,0.125,79,100.0
3375,E2,333.5,0.25,95,100.0
3376,G#3,333.5,1.0,127,100.0
3377,E4,333.5,0.25,47,100.0
3378,B3,333.5,0.25,47,100.0
3379,E3,333.5,0.25,47,100.0
3380,F#4,333.625,0.125,79,100.0
3381,E2,333.75,0.25,95,100.0
3382,E4,333.75,0.25,47,100.0
3383,B3,333.75,0.25,47,100.0
3384,E3,333.75,0.25,47,100.0
3385,E5,333.75,4.0,79,100.0
3386,B4,333.75,4.0,79,100.0
3387,F#2,334.0,0.25,95,100.0
3388,E3,334.0,0.75,95,100.0
3389,B2,334.0,0.75,95,100.0
3390,F#3,334.5,1.0,127,100.0
3391,A3,334.75,0.75,95,100.0
3392,E3,334.75,0.75,95,100.0
3393,B1,335.0,0.5,95,100.0
3394,B3,335.0,0.25,47,100.0
3395,F#2,335.0,0.25,95,100.0
3396,C#2,335.5,0.5,95,100.0
3397,C#4,335.5,0.25,47,100.0
3398,F#3,335.5,0.5,127,100.0
3399,F#3,335.5,2.5,95,100.0
3400,B2,335.5,2.5,95,100.0
3401,E2,336.0,0.25,95,100.0
3402,A3,336.0,0.5,127,100.0
3403,F#2,336.0,0.25,95,100.0
3404,A4,336.0,0.25,47,100.0
3405,C#4,336.0,0.25,47,100.0
3406,A3,336.0,0.25,47,100.0
3407,B3,336.0,4.0,95,100.0
3408,E4,336.0,4.0,95,100.0
3409,E2,336.25,0.25,95,100.0
3410,A4,336.25,0.25,47,100.0
3411,C#4,336.25,0.25,47,100.0
3412,A3,336.25,0.25,47,100.0
3413,A3,336.5,0.5,127,100.0
3414,B3,337.0,0.5,127,100.0
3415,F#2,337.0,0.25,95,100.0
3416,E2,337.5,0.25,95,100.0
3417,A3,337.5,1.0,127,100.0
3418,A4,337.5,0.25,47,100.0
3419,C#4,337.5,0.25,47,100.0
3420,A3,337.5,0.25,47,100.0
3421,E2,337.75,0.25,95,100.0
3422,A4,337.75,0.25,47,100.0
3423,C#4,337.75,0.25,47,100.0
3424,A3,337.75,0.25,47,100.0
3425,F#2,338.0,0.25,95,100.0
3426,E3,338.0,0.75,95,100.0
3427,B2,338.0,0.75,95,100.0
3428,G#3,338.5,0.5,127,100.0
3429,A3,338.75,0.75,95,100.0
3430,E3,338.75,0.75,95,100.0
3431,B1,339.0,0.5,95,100.0
3432,B3,339.0,0.25,47,100.0
3433,E3,339.0,0.5,127,100.0
3434,A2,339.0,0.25,95,100.0
3435,F#2,339.0,0.25,95,100.0
3436,C#2,339.5,0.5,95,100.0
3437,C#4,339.5,0.25,47,100.0
3438,E3,339.5,0.5,127,100.0
3439,G2,339.5,0.25,95,100.0
3440,F#3,339.5,2.5,95,100.0
3441,B2,339.5,2.5,95,100.0
3442,E2,340.0,0.25,95,100.0
3443,G#3,340.0,0.5,127,100.0
3444,E4,340.0,0.25,47,100.0
3445,B3,340.0,0.25,47,100.0
3446,E3,340.0,0.25,47,100.0
3447,A3,340.0,4.0,95,100.0
3448,D4,340.0,4.0,95,100.0
3449,F2,340.0,0.25,95,100.0
3450,G2,340.0,0.25,95,100.0
3451,F#2,340.0,0.25,95,100.0
3452,E2,340.25,0.25,95,100.0
3453,E4,340.25,0.25,47,100.0
3454,B3,340.25,0.25,47,100.0
3455,E3,340.25,0.25,47,100.0
3456,G#3,340.5,0.5,127,100.0
3457,G#3,341.0,0.5,127,100.0
3458,F#2,341.0,0.25,95,100.0
3459,E2,341.5,0.25,95,100.0
3460,G#3,341.5,1.0,127,100.0
3461,E4,341.5,0.25,47,100.0
3462,B3,341.5,0.25,47,100.0
3463,E3,341.5,0.25,47,100.0
3464,E2,341.75,0.25,95,100.0
3465,E4,341.75,0.25,47,100.0
3466,B3,341.75,0.25,47,100.0
3467,E3,341.75,0.25,47,100.0
3468,F#2,342.0,0.25,95,100.0
3469,E3,342.0,0.75,95,100.0
3470,B2,342.0,0.75,95,100.0
3471,F#3,342.5,0.5,127,100.0
3472,A3,342.75,0.75,95,100.0
3473,E3,342.75,0.75,95,100.0
3474,B1,343.0,0.5,95,100.0
3475,B3,343.0,0.25,47,100.0
3476,F#3,343.0,0.5,127,100.0
3477,F#2,343.0,0.25,95,100.0
3478,C#2,343.5,0.5,95,100.0
3479,C#4,343.5,0.25,47,100.0
3480,F#3,343.5,0.5,127,100.0
3481,F#3,343.5,2.5,95,100.0
3482,B2,343.5,2.5,95,100.0
3483,E2,344.0,0.25,95,100.0
3484,A3,344.0,0.5,127,100.0
3485,F#2,344.0,0.25,95,100.0
3486,A4,344.0,0.25,47,100.0
3487,C#4,344.0,0.25,47,100.0
3488,A3,344.0,0.25,47,100.0
3489,B3,344.0,4.0,95,100.0
3490,G4,344.0,4.0,95,100.0
3491,E2,344.25,0.25,95,100.0
3492,A4,344.25,0.25,47,100.0
3493,C#4,344.25,0.25,47,100.0
3494,A3,344.25,0.25,47,100.0
3495,A3,344.5,0.5,127,100.0
3496,B3,345.0,0.5,127,100.0
3497,F#2,345.0,0.25,95,100.0
3498,E2,345.5,0.25,95,100.0
3499,A3,345.5,1.0,127,100.0
3500,A4,345.5,0.25,47,100.0
3501,C#4,345.5,0.25,47,100.0
3502,A3,345.5,0.25,47,100.0
3503,E2,345.75,0.25,95,100.0
3504,A4,345.75,0.25,47,100.0
3505,C#4,345.75,0.25,47,100.0
3506,A3,345.75,0.25,47,100.0
3507,F#2,346.0,0.25,95,100.0
3508,G#3,346.5,0.5,127,100.0
3509,B1,347.0,0.5,95,100.0
3510,B3,347.0,0.25,47,100.0
3511,E3,347.0,0.5,127,100.0
3512,A2,347.0,0.25,95,100.0
3513,F#2,347.0,0.25,95,100.0
3514,C#2,347.5,0.5,95,100.0
3515,C#4,347.5,0.25,47,100.0
3516,E3,347.5,0.5,127,100.0
3517,G2,347.5,0.25,95,100.0
3518,E2,348.0,0.25,95,100.0
3519,G#3,348.0,0.5,127,100.0
3520,E4,348.0,0.25,47,100.0
3521,B3,348.0,0.25,47,100.0
3522,E3,348.0,0.25,47,100.0
3523,C#4,348.0,4.0,95,100.0
3524,A4,348.0,4.0,95,100.0
3525,F2,348.0,0.25,95,100.0
3526,G2,348.0,0.25,95,100.0
3527,F#2,348.0,0.25,95,100.0
3528,E2,348.25,0.25,95,100.0
3529,E4,348.25,0.25,47,100.0
3530,B3,348.25,0.25,47,100.0
3531,E3,348.25,0.25,47,100.0
3532,G#3,348.5,0.5,127,100.0
3533,G#3,349.0,0.5,127,100.0
3534,F#2,349.0,0.25,95,100.0
3535,E2,349.5,0.25,95,100.0
3536,G#3,349.5,1.0,127,100.0
3537,E4,349.5,0.25,47,100.0
3538,B3,349.5,0.25,47,100.0
3539,E3,349.5,0.25,47,100.0
3540,E2,349.75,0.25,95,100.0
3541,E4,349.75,0.25,47,100.0
3542,B3,349.75,0.25,47,100.0
3543,E3,349.75,0.25,47,100.0
3544,F#2,350.0,0.25,95,100.0
3545,F#3,350.5,0.5,127,100.0
3546,B1,351.0,0.5,95,100.0
3547,B3,351.0,0.25,47,100.0
3548,F#3,351.0,0.5,127,100.0
3549,F#2,351.0,0.25,95,100.0
3550,C#2,351.5,0.5,95,100.0
3551,C#4,351.5,0.25,47,100.0
3552,F#3,351.5,0.5,127,100.0
3553,E2,352.0,0.25,95,100.0
3554,A3,352.0,0.5,127,100.0
3555,F#2,352.0,0.25,95,100.0
3556,A4,352.0,0.25,47,100.0
3557,C#4,352.0,0.25,47,100.0
3558,A3,352.0,0.25,47,100.0
3559,F#4,352.0,4.0,95,100.0
3560,B4,352.0,4.0,95,100.0
3561,E2,352.25,0.25,95,100.0
3562,A4,352.25,0.25,47,100.0
3563,C#4,352.25,0.25,47,100.0
3564,A3,352.25,0.25,47,100.0
3565,A3,352.5,0.5,127,100.0
3566,B3,353.0,0.5,127,100.0
3567,F#2,353.0,0.25,95,100.0
3568,E2,353.5,0.25,95,100.0
3569,A3,353.5,1.0,127,100.0
3570,A4,353.5,0.25,47,100.0
3571,C#4,353.5,0.25,47,100.0
3572,A3,353.5,0.25,47,100.0
3573,E2,353.75,0.25,95,100.0
3574,A4,353.75,0.25,47,100.0
3575,C#4,353.75,0.25,47,100.0
3576,A3,353.75,0.25,47,100.0
3577,F#2,354.0,0.25,95,100.0
3578,G#3,354.5,0.5,127,100.0
3579,B1,355.0,0.5,95,100.0
3580,B3,355.0,0.25,47,100.0
3581,E3,355.0,0.5,127,100.0
3582,A2,355.0,0.25,95,100.0
3583,F#2,355.0,0.25,95,100.0
3584,C#2,355.5,0.5,95,100.0
3585,C#4,355.5,0.25,47,100.0
3586,E3,355.5,0.5,127,100.0
3587,G2,355.5,0.25,95,100.0
3588,E2,356.0,0.25,95,100.0
3589,G#3,356.0,0.5,127,100.0
3590,E4,356.0,0.25,47,100.0
3591,B3,356.0,0.25,47,100.0
3592,E3,356.0,0.25,47,100.0
3593,F2,356.0,0.25,95,100.0
3594,G2,356.0,0.25,95,100.0
3595,F#2,356.0,0.25,95,100.0
3596,E2,356.25,0.25,95,100.0
3597,E4,356.25,0.25,47,100.0
3598,B3,356.25,0.25,47,100.0
3599,E3,356.25,0.25,47,100.0
3600,G#3,356.5,0.5,127,100.0
3601,G#3,357.0,0.5,127,100.0
3602,F#2,357.0,0.25,95,100.0
3603,E2,357.5,0.25,95,100.0
3604,G#3,357.5,1.0,127,100.0
3605,E4,357.5,0.25,47,100.0
3606,B3,357.5,0.25,47,100.0
3607,E3,357.5,0.25,47,100.0
3608,E2,357.75,0.25,95,100.0
3609,E4,357.75,0.25,47,100.0
3610,B3,357.75,0.25,47,100.0
3611,E3,357.75,0.25,47,100.0
3612,F#2,358.0,0.25,95,100.0
3613,F#3,358.5,1.0,127,100.0
3614,B1,359.0,0.5,95,100.0
3615,B3,359.0,0.25,47,100.0
3616,F#2,359.0,0.25,95,100.0
3617,C#2,359.5,0.5,95,100.0
3618,C#4,359.5,0.25,47,100.0
3619,F#3,359.5,0.5,127,100.0
3620,E2,360.0,0.25,95,100.0
3621,A3,360.0,0.5,127,100.0
3622,F#2,360.0,0.25,95,100.0
3623,A4,360.0,0.25,47,100.0
3624,C#4,360.0,0.25,47,100.0
3625,A3,360.0,0.25,47,100.0
3626,F#4,360.0,4.0,95,100.0
3627,B4,360.0,4.0,95,100.0
3628,E2,360.25,0.25,95,100.0
3629,A4,360.25,0.25,47,100.0
3630,C#4,360.25,0.25,47,100.0
3631,A3,360.25,0.25,47,100.0
3632,A3,360.5,0.5,127,100.0
3633,B3,361.0,0.5,127,100.0
3634,F#2,361.0,0.25,95,100.0
3635,E2,361.5,0.25,95,100.0
3636,A3,361.5,1.0,127,100.0
3637,A4,361.5,0.25,47,100.0
3638,C#4,361.5,0.25,47,100.0
3639,A3,361.5,0.25,47,100.0
3640,E2,361.75,0.25,95,100.0
3641,A4,361.75,0.25,47,100.0
3642,C#4,361.75,0.25,47,100.0
3643,A3,361.75,0.25,47,100.0
3644,F#2,362.0,0.25,95,100.0
3645,G#3,362.5,1.0,127,100.0
3646,B1,363.0,0.5,95,100.0
3647,B3,363.0,0.25,47,100.0
3648,A2,363.0,0.25,95,100.0
3649,F#2,363.0,0.25,95,100.0
3650,C#2,363.5,0.5,95,100.0
3651,C#4,363.5,0.25,47,100.0
3652,E3,363.5,0.5,127,100.0
3653,G2,363.5,0.25,95,100.0
3654,E2,364.0,0.25,95,100.0
3655,G#3,364.0,0.5,127,100.0
3656,E4,364.0,0.25,47,100.0
3657,B3,364.0,0.25,47,100.0
3658,E3,364.0,0.25,47,100.0
3659,F2,364.0,0.25,95,100.0
3660,G2,364.0,0.25,95,100.0
3661,F#2,364.0,0.25,95,100.0
3662,E2,364.25,0.25,95,100.0
3663,E4,364.25,0.25,47,100.0
3664,B3,364.25,0.25,47,100.0
3665,E3,364.25,0.25,47,100.0
3666,G#3,364.5,1.0,127,100.0
3667,F#2,365.0,0.25,95,100.0
3668,E2,365.5,0.25,95,100.0
3669,G#3,365.5,1.0,127,100.0
3670,E4,365.5,0.25,47,100.0
3671,B3,365.5,0.25,47,100.0
3672,E3,365.5,0.25,47,100.0
3673,E2,365.75,0.25,95,100.0
3674,E4,365.75,0.25,47,100.0
3675,B3,365.75,0.25,47,100.0
3676,E3,365.75,0.25,47,100.0
3677,F#2,366.0,0.25,95,100.0
3678,F#3,366.5,1.0,127,100.0
3679,B1,367.0,0.5,95,100.0
3680,B3,367.0,0.25,47,100.0
3681,F#2,367.0,0.25,95,100.0
3682,C#2,367.5,0.5,95,100.0
3683,C#4,367.5,0.25,47,100.0
3684,F#3,367.5,0.5,127,100.0
3685,E2,368.0,0.25,95,100.0
3686,A3,368.0,0.5,127,100.0
3687,F#2,368.0,0.25,95,100.0
3688,A4,368.0,0.25,47,100.0
3689,C#4,368.0,0.25,47,100.0
3690,A3,368.0,0.25,47,100.0
3691,E2,368.25,0.25,95,100.0
3692,A4,368.25,0.25,47,100.0
3693,C#4,368.25,0.25,47,100.0
3694,A3,368.25,0.25,47,100.0
3695,A3,368.5,0.5,127,100.0
3696,B3,369.0,0.5,127,100.0
3697,F#2,369.0,0.25,95,100.0
3698,E2,369.5,0.25,95,100.0
3699,A3,369.5,1.0,127,100.0
3700,A4,369.5,0.25,47,100.0
3701,C#4,369.5,0.25,47,100.0
3702,A3,369.5,0.25,47,100.0
3703,E2,369.75,0.25,95,100.0
3704,A4,369.75,0.25,47,100.0
3705,C#4,369.75,0.25,47,100.0
3706,A3,369.75,0.25,47,100.0
3707,F#2,370.0,0.25,95,100.0
3708,G#3,370.5,1.0,127,100.0
3709,B1,371.0,0.5,95,100.0
3710,B3,371.0,0.25,47,100.0
3711,A2,371.0,0.25,95,100.0
3712,F#2,371.0,0.25,95,100.0
3713,C#2,371.5,0.5,95,100.0
3714,C#4,371.5,0.25,47,100.0
3715,E3,371.5,0.5,127,100.0
3716,G2,371.5,0.25,95,100.0
3717,E2,372.0,0.25,95,100.0
3718,G#3,372.0,0.5,127,100.0
3719,E4,372.0,0.25,47,100.0
3720,B3,372.0,0.25,47,100.0
3721,E3,372.0,0.25,47,100.0
3722,F2,372.0,0.25,95,100.0
3723,G2,372.0,0.25,95,100.0
3724,F#2,372.0,0.25,95,100.0
3725,E2,372.25,0.25,95,100.0
3726,E4,372.25,0.25,47,100.0
3727,B3,372.25,0.25,47,100.0
3728,E3,372.25,0.25,47,100.0
3729,G#3,372.5,0.5,127,100.0
3730,G#3,373.0,0.5,127,100.0
3731,F#2,373.0,0.25,95,100.0
3732,E2,373.5,0.25,95,100.0
3733,G#3,373.5,0.25,127,100.0
3734,E4,373.5,0.25,47,100.0
3735,B3,373.5,0.25,47,100.0
3736,E3,373.5,0.25,47,100.0
3737,E2,373.75,0.25,95,100.0
3738,F#3,373.75,0.75,127,100.0
3739,E4,373.75,0.25,47,100.0
3740,B3,373.75,0.25,47,100.0
3741,E3,373.75,0.25,47,100.0
3742,F#2,374.0,0.25,95,100.0
3743,F#3,374.5,0.5,127,100.0
3744,B1,375.0,0.5,95,100.0
3745,B3,375.0,0.25,47,100.0
3746,F#3,375.0,0.5,127,100.0
3747,F#2,375.0,0.25,95,100.0
3748,C#2,375.5,0.5,95,100.0
3749,C#4,375.5,0.25,47,100.0
3750,F#3,375.5,0.5,127,100.0
3751,E2,376.0,0.25,95,100.0
3752,A3,376.0,0.5,127,100.0
3753,F#2,376.0,0.25,95,100.0
3754,A4,376.0,0.25,47,100.0
3755,C#4,376.0,0.25,47,100.0
3756,A3,376.0,0.25,47,100.0
3757,E2,376.25,0.25,95,100.0
3758,A4,376.25,0.25,47,100.0
3759,C#4,376.25,0.25,47,100.0
3760,A3,376.25,0.25,47,100.0
3761,A3,376.5,0.5,127,100.0
3762,B3,377.0,0.5,127,100.0
3763,F#2,377.0,0.25,95,100.0
3764,E2,377.5,0.25,95,100.0
3765,A3,377.5,0.25,127,100.0
3766,A4,377.5,0.25,47,100.0
3767,C#4,377.5,0.25,47,100.0
3768,A3,377.5,0.25,47,100.0
3769,E2,377.75,0.25,95,100.0
3770,G#3,377.75,1.25,127,100.0
3771,A4,377.75,0.25,47,100.0
3772,C#4,377.75,0.25,47,100.0
3773,A3,377.75,0.25,47,100.0
3774,F#2,378.0,0.25,95,100.0
3775,B-2,378.5,0.25,95,100.0
3776,B1,379.0,0.5,95,100.0
3777,B3,379.0,0.25,47,100.0
3778,E3,379.0,0.5,127,100.0
3779,A2,379.0,0.25,95,100.0
3780,F#2,379.0,0.25,95,100.0
3781,G2,379.25,0.25,95,100.0
3782,C#2,379.5,0.5,95,100.0
3783,C#4,379.5,0.25,47,100.0
3784,E3,379.5,0.5,127,100.0
3785,F2,379.5,0.25,95,100.0
3786,A2,379.75,0.25,95,100.0
3787,E1,380.0,0.5,95,100.0
3788,G#3,380.0,0.5,127,100.0
3789,E3,380.0,0.5,127,100.0
3790,F#2,380.0,0.25,95,100.0
3791,G#2,380.0,0.25,95,100.0
3792,B-2,380.0,0.25,95,100.0
3793,F2,380.0,0.25,95,100.0
3794,G#1,380.5,0.5,95,100.0
3795,G#2,380.5,0.25,95,100.0
3796,G#3,380.5,0.5,127,100.0
3797,E3,380.5,0.5,127,100.0
3798,B1,381.0,0.5,95,100.0
3799,G#3,381.0,0.5,127,100.0
3800,E3,381.0,0.5,127,100.0
3801,F#2,381.0,0.25,95,100.0
3802,G#2,381.0,0.25,95,100.0
3803,B-2,381.0,0.25,95,100.0
3804,E2,381.0,0.25,95,100.0
3805,E2,381.5,1.0,95,100.0
3806,G#2,381.5,0.25,95,100.0
3807,G#3,381.5,1.0,127,100.0
3808,E3,381.5,1.0,127,100.0
3809,F#2,382.0,0.25,95,100.0
3810,G#2,382.0,0.25,95,100.0
3811,B-2,382.0,0.25,95,100.0
3812,F2,382.0,0.25,95,100.0
3813,E2,382.5,0.5,95,100.0
3814,G#2,382.5,0.25,95,100.0
3815,G#3,382.5,0.5,127,100.0
3816,E3,382.5,0.5,127,100.0
3817,C#2,383.0,0.5,95,100.0
3818,G#3,383.0,0.5,127,100.0
3819,E3,383.0,0.5,127,100.0
3820,F#2,383.0,0.25,95,100.0
3821,G#2,383.0,0.25,95,100.0
3822,B-2,383.0,0.25,95,100.0
3823,E2,383.0,0.25,95,100.0
3824,B1,383.5,0.5,95,100.0
3825,G#2,383.5,0.25,95,100.0
3826,G#3,383.5,0.5,127,100.0
3827,E3,383.5,0.5,127,100.0
3828,A1,384.0,0.5,95,100.0
3829,E3,384.0,0.5,127,100.0
3830,A2,384.0,0.5,127,100.0
3831,F#2,384.0,0.25,95,100.0
3832,G#2,384.0,0.25,95,100.0
3833,B-2,384.0,0.25,95,100.0
3834,F2,384.0,0.25,95,100.0
3835,A1,384.5,0.5,95,100.0
3836,G#2,384.5,0.25,95,100.0
3837,E3,384.5,0.5,127,100.0
3838,A2,384.5,0.5,127,100.0
3839,A1,385.0,0.5,95,100.0
3840,E3,385.0,0.5,127,100.0
3841,A2,385.0,0.5,127,100.0
3842,F#2,385.0,0.25,95,100.0
3843,G#2,385.0,0.25,95,100.0
3844,B-2,385.0,0.25,95,100.0
3845,E2,385.0,0.25,95,100.0
3846,C#2,385.5,0.5,95,100.0
3847,G#2,385.5,0.25,95,100.0
3848,C#3,385.5,0.25,127,100.0
3849,A2,385.5,0.25,127,100.0
3850,B2,385.75,1.75,127,100.0
3851,F#2,385.75,1.75,127,100.0
3852,C#2,386.0,0.5,95,100.0
3853,F#2,386.0,0.25,95,100.0
3854,G#2,386.0,0.25,95,100.0
3855,B-2,386.0,0.25,95,100.0
3856,F2,386.0,0.25,95,100.0
3857,B1,386.5,0.5,95,100.0
3858,G#2,386.5,0.25,95,100.0
3859,A1,387.0,0.5,95,100.0
3860,F#2,387.0,0.25,95,100.0
3861,G#2,387.0,0.25,95,100.0
3862,B-2,387.0,0.25,95,100.0
3863,E2,387.0,0.25,95,100.0
3864,B1,387.5,0.5,95,100.0
3865,G#2,387.5,0.25,95,100.0
3866,E-3,387.5,0.5,127,100.0
3867,B2,387.5,0.5,127,100.0
3868,E1,388.0,0.5,95,100.0
3869,G#3,388.0,0.5,127,100.0
3870,E3,388.0,0.5,127,100.0
3871,F#2,388.0,0.25,95,100.0
3872,G#2,388.0,0.25,95,100.0
3873,B-2,388.0,0.25,95,100.0
3874,F2,388.0,0.25,95,100.0
3875,G#1,388.5,0.5,95,100.0
3876,G#2,388.5,0.25,95,100.0
3877,G#3,388.5,0.5,127,100.0
3878,E3,388.5,0.5,127,100.0
3879,B1,389.0,0.5,95,100.0
3880,G#3,389.0,0.5,127,100.0
3881,E3,389.0,0.5,127,100.0
3882,F#2,389.0,0.25,95,100.0
3883,G#2,389.0,0.25,95,100.0
3884,B-2,389.0,0.25,95,100.0
3885,E2,389.0,0.25,95,100.0
3886,E2,389.5,1.0,95,100.0
3887,G#2,389.5,0.25,95,100.0
3888,G#3,389.5,1.0,127,100.0
3889,E3,389.5,1.0,127,100.0
3890,F#2,390.0,0.25,95,100.0
3891,G#2,390.0,0.25,95,100.0
3892,B-2,390.0,0.25,95,100.0
3893,F2,390.0,0.25,95,100.0
3894,E2,390.5,0.5,95,100.0
3895,G#2,390.5,0.25,95,100.0
3896,G#3,390.5,0.5,127,100.0
3897,E3,390.5,0.5,127,100.0
3898,C#2,391.0,0.5,95,100.0
3899,G#3,391.0,0.5,127,100.0
3900,E3,391.0,0.5,127,100.0
3901,F#2,391.0,0.25,95,100.0
3902,G#2,391.0,0.25,95,100.0
3903,B-2,391.0,0.25,95,100.0
3904,E2,391.0,0.25,95,100.0
3905,B1,391.5,0.5,95,100.0
3906,G#2,391.5,0.25,95,100.0
3907,G#3,391.5,0.5,127,100.0
3908,E3,391.5,0.5,127,100.0
3909,A1,392.0,0.5,95,100.0
3910,E3,392.0,0.5,127,100.0
3911,A2,392.0,0.5,127,100.0
3912,F#2,392.0,0.25,95,100.0
3913,G#2,392.0,0.25,95,100.0
3914,B-2,392.0,0.25,95,100.0
3915,F2,392.0,0.25,95,100.0
3916,A1,392.5,0.5,95,100.0
3917,G#2,392.5,0.25,95,100.0
3918,E3,392.5,0.5,127,100.0
3919,A2,392.5,0.5,127,100.0
3920,A1,393.0,0.5,95,100.0
3921,E3,393.0,0.5,127,100.0
3922,A2,393.0,0.5,127,100.0
3923,F#2,393.0,0.25,95,100.0
3924,G#2,393.0,0.25,95,100.0
3925,B-2,393.0,0.25,95,100.0
3926,E2,393.0,0.25,95,100.0
3927,C#2,393.5,0.5,95,100.0
3928,G#2,393.5,0.25,95,100.0
3929,C#3,393.5,0.25,127,100.0
3930,A2,393.5,0.25,127,100.0
3931,B2,393.75,1.75,127,100.0
3932,F#2,393.75,1.75,127,100.0
3933,C#2,394.0,0.5,95,100.0
3934,F#2,394.0,0.25,95,100.0
3935,G#2,394.0,0.25,95,100.0
3936,B-2,394.0,0.25,95,100.0
3937,F2,394.0,0.25,95,100.0
3938,B1,394.5,0.5,95,100.0
3939,G#2,394.5,0.25,95,100.0
3940,A1,395.0,0.5,95,100.0
3941,F#2,395.0,0.25,95,100.0
3942,G#2,395.0,0.25,95,100.0
3943,B-2,395.0,0.25,95,100.0
3944,E2,395.0,0.25,95,100.0
3945,B1,395.5,0.5,95,100.0
3946,G#2,395.5,0.25,95,100.0
3947,E-3,395.5,0.5,127,100.0
3948,B2,395.5,0.5,127,100.0
3949,E1,396.0,0.5,95,100.0
3950,G#3,396.0,0.5,127,100.0
3951,E3,396.0,0.5,127,100.0
3952,F#2,396.0,0.25,95,100.0
3953,G#2,396.0,0.25,95,100.0
3954,B-2,396.0,0.25,95,100.0
3955,F2,396.0,0.25,95,100.0
3956,G#1,396.5,0.5,95,100.0
3957,G#2,396.5,0.25,95,100.0
3958,G#3,396.5,0.5,127,100.0
3959,E3,396.5,0.5,127,100.0
3960,B1,397.0,0.5,95,100.0
3961,G#3,397.0,0.5,127,100.0
3962,E3,397.0,0.5,127,100.0
3963,F#2,397.0,0.25,95,100.0
3964,G#2,397.0,0.25,95,100.0
3965,B-2,397.0,0.25,95,100.0
3966,E2,397.0,0.25,95,100.0
3967,E2,397.5,1.0,95,100.0
3968,G#2,397.5,0.25,95,100.0
3969,G#3,397.5,1.0,127,100.0
3970,E3,397.5,1.0,127,100.0
3971,F#2,398.0,0.25,95,100.0
3972,G#2,398.0,0.25,95,100.0
3973,B-2,398.0,0.25,95,100.0
3974,F2,398.0,0.25,95,100.0
3975,E2,398.5,0.5,95,100.0
3976,G#2,398.5,0.25,95,100.0
3977,G#3,398.5,0.5,127,100.0
3978,E3,398.5,0.5,127,100.0
3979,C#2,399.0,0.5,95,100.0
3980,G#3,399.0,0.5,127,100.0
3981,E3,399.0,0.5,127,100.0
3982,F#2,399.0,0.25,95,100.0
3983,G#2,399.0,0.25,95,100.0
3984,B-2,399.0,0.25,95,100.0
3985,E2,399.0,0.25,95,100.0
3986,B1,399.5,0.5,95,100.0
3987,G#2,399.5,0.25,95,100.0
3988,G#3,399.5,0.5,127,100.0
3989,E3,399.5,0.5,127,100.0
3990,A1,400.0,0.5,95,100.0
3991,E3,400.0,0.5,127,100.0
3992,A2,400.0,0.5,127,100.0
3993,F#2,400.0,0.25,95,100.0
3994,G#2,400.0,0.25,95,100.0
3995,B-2,400.0,0.25,95,100.0
3996,F2,400.0,0.25,95,100.0
3997,A1,400.5,0.5,95,100.0
3998,G#2,400.5,0.25,95,100.0
3999,E3,400.5,0.5,127,100.0
4000,A2,400.5,0.5,127,100.0
4001,A1,401.0,0.5,95,100.0
4002,E3,401.0,0.5,127,100.0
4003,A2,401.0,0.5,127,100.0
4004,F#2,401.0,0.25,95,100.0
4005,G#2,401.0,0.25,95,100.0
4006,B-2,401.0,0.25,95,100.0
4007,E2,401.0,0.25,95,100.0
4008,C#2,401.5,0.5,95,100.0
4009,G#2,401.5,0.25,95,100.0
4010,C#3,401.5,0.25,127,100.0
4011,A2,401.5,0.25,127,100.0
4012,B2,401.75,1.25,127,100.0
4013,F#2,401.75,1.25,127,100.0
4014,C#2,402.0,0.5,95,100.0
4015,F#2,402.0,0.25,95,100.0
4016,G#2,402.0,0.25,95,100.0
4017,B-2,402.0,0.25,95,100.0
4018,F2,402.0,0.25,95,100.0
4019,B1,402.5,0.5,95,100.0
4020,G#2,402.5,0.25,95,100.0
4021,A1,403.0,0.5,95,100.0
4022,C#3,403.0,0.5,127,100.0
4023,A2,403.0,0.5,127,100.0
4024,F#2,403.0,0.25,95,100.0
4025,G#2,403.0,0.25,95,100.0
4026,B-2,403.0,0.25,95,100.0
4027,E2,403.0,0.25,95,100.0
4028,B1,403.5,0.5,95,100.0
4029,G#2,403.5,0.25,95,100.0
4030,E-3,403.5,0.5,127,100.0
4031,B2,403.5,0.5,127,100.0
4032,E1,404.0,0.5,95,100.0
4033,G#3,404.0,0.5,127,100.0
4034,E3,404.0,0.5,127,100.0
4035,F#2,404.0,0.25,95,100.0
4036,G#2,404.0,0.25,95,100.0
4037,B-2,404.0,0.25,95,100.0
4038,F2,404.0,0.25,95,100.0
4039,G#1,404.5,0.5,95,100.0
4040,G#2,404.5,0.25,95,100.0
4041,G#3,404.5,0.5,127,100.0
4042,E3,404.5,0.5,127,100.0
4043,B1,405.0,0.5,95,100.0
4044,G#3,405.0,0.5,127,100.0
4045,E3,405.0,0.5,127,100.0
4046,F#2,405.0,0.25,95,100.0
4047,G#2,405.0,0.25,95,100.0
4048,B-2,405.0,0.25,95,100.0
4049,E2,405.0,0.25,95,100.0
4050,E2,405.5,1.0,95,100.0
4051,G#2,405.5,0.25,95,100.0
4052,G#3,405.5,1.5,127,100.0
4053,E3,405.5,1.5,127,100.0
4054,F#2,406.0,0.25,95,100.0
4055,G#2,406.0,0.25,95,100.0
4056,B-2,406.0,0.25,95,100.0
4057,F2,406.0,0.25,95,100.0
4058,E2,406.5,0.5,95,100.0
4059,G#2,406.5,0.25,95,100.0
4060,C#2,407.0,0.5,95,100.0
4061,E3,407.0,0.5,127,100.0
4062,C#3,407.0,0.5,127,100.0
4063,F#2,407.0,0.25,95,100.0
4064,G#2,407.0,0.25,95,100.0
4065,B-2,407.0,0.25,95,100.0
4066,E2,407.0,0.25,95,100.0
4067,B1,407.5,0.5,95,100.0
4068,G#2,407.5,0.25,95,100.0
4069,E3,407.5,0.5,127,100.0
4070,C#3,407.5,0.5,127,100.0
4071,A1,408.0,0.5,95,100.0
4072,E3,408.0,0.5,127,100.0
4073,A2,408.0,0.5,127,100.0
4074,F#2,408.0,0.25,95,100.0
4075,G#2,408.0,0.25,95,100.0
4076,B-2,408.0,0.25,95,100.0
4077,F2,408.0,0.25,95,100.0
4078,A1,408.5,0.5,95,100.0
4079,G#2,408.5,0.25,95,100.0
4080,E3,408.5,0.5,127,100.0
4081,A2,408.5,0.5,127,100.0
4082,A1,409.0,0.5,95,100.0
4083,C#3,409.0,0.5,127,100.0
4084,A2,409.0,0.5,127,100.0
4085,F#2,409.0,0.25,95,100.0
4086,G#2,409.0,0.25,95,100.0
4087,B-2,409.0,0.25,95,100.0
4088,E2,409.0,0.25,95,100.0
4089,C#2,409.5,0.5,95,100.0
4090,G#2,409.5,0.25,95,100.0
4091,G#3,409.5,0.25,127,100.0
4092,E3,409.5,0.25,127,100.0
4093,F#3,409.75,0.75,127,100.0
4094,B2,409.75,0.75,127,100.0
4095,C#2,410.0,0.5,95,100.0
4096,F#2,410.0,0.25,95,100.0
4097,G#2,410.0,0.25,95,100.0
4098,B-2,410.0,0.25,95,100.0
4099,F2,410.0,0.25,95,100.0
4100,B1,410.5,0.5,95,100.0
4101,G#2,410.5,0.25,95,100.0
4102,E3,410.5,0.25,127,100.0
4103,A2,410.5,0.25,127,100.0
4104,F#3,410.75,1.25,127,100.0
4105,B2,410.75,1.25,127,100.0
4106,A1,411.0,0.5,95,100.0
4107,F#2,411.0,0.25,95,100.0
4108,G#2,411.0,0.25,95,100.0
4109,B-2,411.0,0.25,95,100.0
4110,E2,411.0,0.25,95,100.0
4111,B1,411.5,0.5,95,100.0
4112,G#2,411.5,0.25,95,100.0
4113,E1,412.0,0.5,95,100.0
4114,B3,412.0,4.0,127,100.0
4115,B3,412.0,4.0,127,100.0
4116,G#3,412.0,3.0,127,100.0
4117,E3,412.0,3.0,127,100.0
4118,F#2,412.0,0.25,95,100.0
4119,G#2,412.0,0.25,95,100.0
4120,B-2,412.0,0.25,95,100.0
4121,F2,412.0,0.25,95,100.0
4122,G#1,412.5,0.5,95,100.0
4123,G#2,412.5,0.25,95,100.0
4124,B1,413.0,0.5,95,100.0
4125,F#2,413.0,0.25,95,100.0
4126,G#2,413.0,0.25,95,100.0
4127,B-2,413.0,0.25,95,100.0
4128,E2,413.0,0.25,95,100.0
4129,E2,413.5,1.0,95,100.0
4130,G#2,413.5,0.25,95,100.0
4131,F#2,414.0,0.25,95,100.0
4132,G#2,414.0,0.25,95,100.0
4133,B-2,414.0,0.25,95,100.0
4134,F2,414.0,0.25,95,100.0
4135,E2,414.5,0.5,95,100.0
4136,G#2,414.5,0.25,95,100.0
4137,C#2,415.0,0.5,95,100.0
4138,G#3,415.0,1.0,127,100.0
4139,E3,415.0,1.0,127,100.0
4140,F#2,415.0,0.25,95,100.0
4141,G#2,415.0,0.25,95,100.0
4142,B-2,415.0,0.25,95,100.0
4143,E2,415.0,0.25,95,100.0
4144,B1,415.5,0.5,95,100.0
4145,G#2,415.5,0.25,95,100.0
4146,A1,416.0,0.5,95,100.0
4147,F#3,416.0,2.0,127,100.0
4148,C#3,416.0,2.0,127,100.0
4149,F#2,416.0,0.25,95,100.0
4150,G#2,416.0,0.25,95,100.0
4151,B-2,416.0,0.25,95,100.0
4152,F2,416.0,0.25,95,100.0
4153,A1,416.5,0.5,95,100.0
4154,G#2,416.5,0.25,95,100.0
4155,A1,417.0,0.5,95,100.0
4156,F#2,417.0,0.25,95,100.0
4157,G#2,417.0,0.25,95,100.0
4158,B-2,417.0,0.25,95,100.0
4159,E2,417.0,0.25,95,100.0
4160,C#2,417.5,0.5,95,100.0
4161,G#2,417.5,0.25,95,100.0
4162,C#2,418.0,0.5,95,100.0
4163,G#3,418.0,0.25,127,100.0
4164,E3,418.0,0.25,127,100.0
4165,F#2,418.0,0.25,95,100.0
4166,G#2,418.0,0.25,95,100.0
4167,B-2,418.0,0.25,95,100.0
4168,F2,418.0,0.25,95,100.0
4169,F#3,418.25,0.75,127,100.0
4170,C#3,418.25,0.75,127,100.0
4171,B1,418.5,0.5,95,100.0
4172,G#2,418.5,0.25,95,100.0
4173,A1,419.0,0.5,95,100.0
4174,E3,419.0,0.25,127,100.0
4175,A2,419.0,0.25,127,100.0
4176,F#2,419.0,0.25,95,100.0
4177,G#2,419.0,0.25,95,100.0
4178,B-2,419.0,0.25,95,100.0
4179,E2,419.0,0.25,95,100.0
4180,F#3,419.25,0.75,127,100.0
4181,C#3,419.25,0.75,127,100.0
4182,B1,419.5,0.5,95,100.0
4183,G#2,419.5,0.25,95,100.0
4184,E1,420.0,0.5,95,100.0
4185,B3,420.0,4.0,127,100.0
4186,B3,420.0,4.0,127,100.0
4187,G#3,420.0,3.0,127,100.0
4188,E3,420.0,3.0,127,100.0
4189,F#2,420.0,0.25,95,100.0
4190,G#2,420.0,0.25,95,100.0
4191,B-2,420.0,0.25,95,100.0
4192,F2,420.0,0.25,95,100.0
4193,G#1,420.5,0.5,95,100.0
4194,G#2,420.5,0.25,95,100.0
4195,B1,421.0,0.5,95,100.0
4196,F#2,421.0,0.25,95,100.0
4197,G#2,421.0,0.25,95,100.0
4198,B-2,421.0,0.25,95,100.0
4199,E2,421.0,0.25,95,100.0
4200,E2,421.5,1.0,95,100.0
4201,G#2,421.5,0.25,95,100.0
4202,F#2,422.0,0.25,95,100.0
4203,G#2,422.0,0.25,95,100.0
4204,B-2,422.0,0.25,95,100.0
4205,F2,422.0,0.25,95,100.0
4206,E2,422.5,0.5,95,100.0
4207,G#2,422.5,0.25,95,100.0
4208,C#2,423.0,0.5,95,100.0
4209,G#3,423.0,1.0,127,100.0
4210,E3,423.0,1.0,127,100.0
4211,F#2,423.0,0.25,95,100.0
4212,G#2,423.0,0.25,95,100.0
4213,B-2,423.0,0.25,95,100.0
4214,E2,423.0,0.25,95,100.0
4215,B1,423.5,0.5,95,100.0
4216,G#2,423.5,0.25,95,100.0
4217,A1,424.0,0.5,95,100.0
4218,B3,424.0,4.0,127,100.0
4219,B3,424.0,4.0,127,100.0
4220,F#3,424.0,2.0,127,100.0
4221,C#3,424.0,2.0,127,100.0
4222,F#2,424.0,0.25,95,100.0
4223,G#2,424.0,0.25,95,100.0
4224,B-2,424.0,0.25,95,100.0
4225,F2,424.0,0.25,95,100.0
4226,A1,424.5,0.5,95,100.0
4227,G#2,424.5,0.25,95,100.0
4228,A1,425.0,0.5,95,100.0
4229,F#2,425.0,0.25,95,100.0
4230,G#2,425.0,0.25,95,100.0
4231,B-2,425.0,0.25,95,100.0
4232,E2,425.0,0.25,95,100.0
4233,C#2,425.5,0.5,95,100.0
4234,G#2,425.5,0.25,95,100.0
4235,C#2,426.0,0.5,95,100.0
4236,B3,426.0,4.0,95,100.0
4237,G#3,426.0,4.0,95,100.0
4238,E3,426.0,4.0,95,100.0
4239,G#3,426.0,0.25,127,100.0
4240,E3,426.0,0.25,127,100.0
4241,F#2,426.0,0.25,95,100.0
4242,G#2,426.0,0.25,95,100.0
4243,B-2,426.0,0.25,95,100.0
4244,F2,426.0,0.25,95,100.0
4245,F#3,426.25,0.75,127,100.0
4246,C#3,426.25,0.75,127,100.0
4247,B1,426.5,0.5,95,100.0
4248,G#2,426.5,0.25,95,100.0
4249,A1,427.0,0.5,95,100.0
4250,E3,427.0,0.5,127,100.0
4251,F#2,427.0,0.25,95,100.0
4252,G#2,427.0,0.25,95,100.0
4253,B-2,427.0,0.25,95,100.0
4254,E2,427.0,0.25,95,100.0
4255,B1,427.5,0.5,95,100.0
4256,F#3,427.5,0.5,127,100.0
4257,G#2,427.5,0.25,95,100.0
4258,E1,428.0,0.25,95,100.0
4259,G#3,428.0,0.5,127,100.0
4260,B-2,428.0,0.25,95,100.0
4261,C#3,428.0,0.25,95,100.0
4262,A2,428.0,0.25,95,100.0
4263,F2,428.0,0.25,95,100.0
4264,E2,428.0,0.25,95,100.0
4265,E1,428.5,0.125,95,100.0
4266,G#3,428.5,0.5,127,100.0
4267,B-2,428.5,0.125,95,100.0
4268,E2,428.5,0.125,95,100.0
4269,E1,428.625,0.125,95,100.0
4270,E2,428.625,0.125,95,100.0
4271,E1,428.75,0.125,95,100.0
4272,E2,428.75,0.125,95,100.0
4273,E1,428.875,0.125,95,100.0
4274,E2,428.875,0.125,95,100.0
4275,E1,429.0,0.25,95,100.0
4276,G#3,429.0,0.5,127,100.0
4277,B-2,429.0,0.25,95,100.0
4278,C#3,429.0,0.25,95,100.0
4279,B2,429.0,0.25,95,100.0
4280,F2,429.0,0.25,95,100.0
4281,E2,429.0,0.25,95,100.0
4282,E1,429.5,0.125,95,100.0
4283,G#3,429.5,1.0,127,100.0
4284,B-2,429.5,0.125,95,100.0
4285,E2,429.5,0.125,95,100.0
4286,E1,429.625,0.125,95,100.0
4287,E2,429.625,0.125,95,100.0
4288,E1,429.75,0.125,95,100.0
4289,E2,429.75,0.125,95,100.0
4290,E1,429.875,0.125,95,100.0
4291,E2,429.875,0.125,95,100.0
4292,E1,430.0,0.25,95,100.0
4293,E3,430.0,2.0,95,100.0
4294,C#3,430.0,2.0,95,100.0
4295,A2,430.0,2.0,95,100.0
4296,B-2,430.0,0.25,95,100.0
4297,C#3,430.0,0.25,95,100.0
4298,A2,430.0,0.25,95,100.0
4299,F2,430.0,0.25,95,100.0
4300,E2,430.0,0.25,95,100.0
4301,E1,430.5,0.125,95,100.0
4302,F#3,430.5,1.0,127,100.0
4303,B-2,430.5,0.125,95,100.0
4304,E2,430.5,0.125,95,100.0
4305,E1,430.625,0.125,95,100.0
4306,E2,430.625,0.125,95,100.0
4307,E1,430.75,0.125,95,100.0
4308,E2,430.75,0.125,95,100.0
4309,E1,430.875,0.125,95,100.0
4310,E2,430.875,0.125,95,100.0
4311,E1,431.0,0.25,95,100.0
4312,B-2,431.0,0.25,95,100.0
4313,C#3,431.0,0.25,95,100.0
4314,B2,431.0,0.25,95,100.0
4315,E2,431.0,0.25,95,100.0
4316,F2,431.0,0.25,95,100.0
4317,E1,431.5,0.125,95,100.0
4318,F#3,431.5,0.5,127,100.0
4319,B-2,431.5,0.125,95,100.0
4320,E2,431.5,0.125,95,100.0
4321,E1,431.625,0.125,95,100.0
4322,E2,431.625,0.125,95,100.0
4323,E1,431.75,0.125,95,100.0
4324,E2,431.75,0.125,95,100.0
4325,E1,431.875,0.125,95,100.0
4326,E2,431.875,0.125,95,100.0
4327,A1,432.0,0.25,95,100.0
4328,A3,432.0,0.5,127,100.0
4329,F#3,432.0,2.0,95,100.0
4330,E-3,432.0,2.0,95,100.0
4331,B2,432.0,2.0,95,100.0
4332,B3,432.0,4.0,127,100.0
4333,B3,432.0,4.0,127,100.0
4334,B-2,432.0,0.25,95,100.0
4335,C#3,432.0,0.25,95,100.0
4336,A2,432.0,0.25,95,100.0
4337,F2,432.0,0.25,95,100.0
4338,E2,432.0,0.25,95,100.0
4339,A1,432.5,0.125,95,100.0
4340,A3,432.5,0.5,127,100.0
4341,B-2,432.5,0.125,95,100.0
4342,E2,432.5,0.125,95,100.0
4343,A1,432.625,0.125,95,100.0
4344,E2,432.625,0.125,95,100.0
4345,A1,432.75,0.125,95,100.0
4346,E2,432.75,0.125,95,100.0
4347,A1,432.875,0.125,95,100.0
4348,E2,432.875,0.125,95,100.0
4349,A1,433.0,0.25,95,100.0
4350,B3,433.0,0.5,127,100.0
4351,B-2,433.0,0.25,95,100.0
4352,C#3,433.0,0.25,95,100.0
4353,B2,433.0,0.25,95,100.0
4354,F2,433.0,0.25,95,100.0
4355,E2,433.0,0.25,95,100.0
4356,A1,433.5,0.125,95,100.0
4357,A3,433.5,1.0,127,100.0
4358,B-2,433.5,0.125,95,100.0
4359,E2,433.5,0.125,95,100.0
4360,A1,433.625,0.125,95,100.0
4361,E2,433.625,0.125,95,100.0
4362,A1,433.75,0.125,95,100.0
4363,E2,433.75,0.125,95,100.0
4364,A1,433.875,0.125,95,100.0
4365,E2,433.875,0.125,95,100.0
4366,B1,434.0,0.25,95,100.0
4367,B3,434.0,4.0,95,100.0
4368,G#3,434.0,4.0,95,100.0
4369,E3,434.0,4.0,95,100.0
4370,B-2,434.0,0.25,95,100.0
4371,C#3,434.0,0.25,95,100.0
4372,A2,434.0,0.25,95,100.0
4373,F2,434.0,0.25,95,100.0
4374,E2,434.0,0.25,95,100.0
4375,B1,434.5,0.125,95,100.0
4376,G#3,434.5,0.5,127,100.0
4377,B-2,434.5,0.125,95,100.0
4378,E2,434.5,0.125,95,100.0
4379,B1,434.625,0.125,95,100.0
4380,E2,434.625,0.125,95,100.0
4381,B1,434.75,0.125,95,100.0
4382,E2,434.75,0.125,95,100.0
4383,B1,434.875,0.125,95,100.0
4384,E2,434.875,0.125,95,100.0
4385,B1,435.0,0.25,95,100.0
4386,E3,435.0,0.5,127,100.0
4387,B-2,435.0,0.25,95,100.0
4388,C#3,435.0,0.25,95,100.0
4389,B2,435.0,0.25,95,100.0
4390,E2,435.0,0.25,95,100.0
4391,F2,435.0,0.25,95,100.0
4392,B1,435.5,0.125,95,100.0
4393,E3,435.5,0.5,127,100.0
4394,B-2,435.5,0.125,95,100.0
4395,E2,435.5,0.125,95,100.0
4396,B1,435.625,0.125,95,100.0
4397,E2,435.625,0.125,95,100.0
4398,B1,435.75,0.125,95,100.0
4399,E2,435.75,0.125,95,100.0
4400,B1,435.875,0.125,95,100.0
4401,E2,435.875,0.125,95,100.0
4402,E1,436.0,0.25,95,100.0
4403,G#3,436.0,0.5,127,100.0
4404,B3,436.0,4.0,101,100.0
4405,G#3,436.0,4.0,101,100.0
4406,E3,436.0,4.0,101,100.0
4407,B2,436.0,4.0,101,100.0
4408,E2,436.0,4.0,101,100.0
4409,B-2,436.0,0.25,95,100.0
4410,C#3,436.0,0.25,95,100.0
4411,A2,436.0,0.25,95,100.0
4412,F2,436.0,0.25,95,100.0
4413,E2,436.0,0.25,95,100.0
4414,E1,436.5,0.125,95,100.0
4415,G#3,436.5,0.5,127,100.0
4416,B-2,436.5,0.125,95,100.0
4417,E2,436.5,0.125,95,100.0
4418,E1,436.625,0.125,95,100.0
4419,E2,436.625,0.125,95,100.0
4420,E1,436.75,0.125,95,100.0
4421,E2,436.75,0.125,95,100.0
4422,E1,436.875,0.125,95,100.0
4423,E2,436.875,0.125,95,100.0
4424,E1,437.0,0.25,95,100.0
4425,G#3,437.0,0.5,127,100.0
4426,B-2,437.0,0.25,95,100.0
4427,C#3,437.0,0.25,95,100.0
4428,B2,437.0,0.25,95,100.0
4429,F2,437.0,0.25,95,100.0
4430,E2,437.0,0.25,95,100.0
4431,E1,437.5,0.125,95,100.0
4432,G#3,437.5,1.0,127,100.0
4433,B-2,437.5,0.125,95,100.0
4434,E2,437.5,0.125,95,100.0
4435,E1,437.625,0.125,95,100.0
4436,E2,437.625,0.125,95,100.0
4437,E1,437.75,0.125,95,100.0
4438,E2,437.75,0.125,95,100.0
4439,E1,437.875,0.125,95,100.0
4440,E2,437.875,0.125,95,100.0
4441,E1,438.0,0.25,95,100.0
4442,E3,438.0,2.0,95,100.0
4443,C#3,438.0,2.0,95,100.0
4444,A2,438.0,2.0,95,100.0
4445,B-2,438.0,0.25,95,100.0
4446,C#3,438.0,0.25,95,100.0
4447,A2,438.0,0.25,95,100.0
4448,F2,438.0,0.25,95,100.0
4449,E2,438.0,0.25,95,100.0
4450,E1,438.5,0.125,95,100.0
4451,F#3,438.5,1.0,127,100.0
4452,B-2,438.5,0.125,95,100.0
4453,E2,438.5,0.125,95,100.0
4454,E1,438.625,0.125,95,100.0
4455,E2,438.625,0.125,95,100.0
4456,E1,438.75,0.125,95,100.0
4457,E2,438.75,0.125,95,100.0
4458,E1,438.875,0.125,95,100.0
4459,E2,438.875,0.125,95,100.0
4460,E1,439.0,0.25,95,100.0
4461,B-2,439.0,0.25,95,100.0
4462,C#3,439.0,0.25,95,100.0
4463,B2,439.0,0.25,95,100.0
4464,E2,439.0,0.25,95,100.0
4465,F2,439.0,0.25,95,100.0
4466,E1,439.5,0.125,95,100.0
4467,F#3,439.5,0.5,127,100.0
4468,B-2,439.5,0.125,95,100.0
4469,E2,439.5,0.125,95,100.0
4470,E1,439.625,0.125,95,100.0
4471,E2,439.625,0.125,95,100.0
4472,E1,439.75,0.125,95,100.0
4473,E2,439.75,0.125,95,100.0
4474,E1,439.875,0.125,95,100.0
4475,E2,439.875,0.125,95,100.0
4476,A1,440.0,0.25,95,100.0
4477,A3,440.0,0.5,127,100.0
4478,F#3,440.0,2.0,95,100.0
4479,E-3,440.0,2.0,95,100.0
4480,B2,440.0,2.0,95,100.0
4481,B-2,440.0,0.25,95,100.0
4482,C#3,440.0,0.25,95,100.0
4483,A2,440.0,0.25,95,100.0
4484,F2,440.0,0.25,95,100.0
4485,E2,440.0,0.25,95,100.0
4486,A1,440.5,0.125,95,100.0
4487,A3,440.5,0.5,127,100.0
4488,B-2,440.5,0.125,95,100.0
4489,E2,440.5,0.125,95,100.0
4490,A1,440.625,0.125,95,100.0
4491,E2,440.625,0.125,95,100.0
4492,A1,440.75,0.125,95,100.0
4493,E2,440.75,0.125,95,100.0
4494,A1,440.875,0.125,95,100.0
4495,E2,440.875,0.125,95,100.0
4496,A1,441.0,0.25,95,100.0
4497,B3,441.0,0.5,127,100.0
4498,B-2,441.0,0.25,95,100.0
4499,C#3,441.0,0.25,95,100.0
4500,B2,441.0,0.25,95,100.0
4501,F2,441.0,0.25,95,100.0
4502,E2,441.0,0.25,95,100.0
4503,A1,441.5,0.125,95,100.0
4504,A3,441.5,1.0,127,100.0
4505,B-2,441.5,0.125,95,100.0
4506,E2,441.5,0.125,95,100.0
4507,A1,441.625,0.125,95,100.0
4508,E2,441.625,0.125,95,100.0
4509,A1,441.75,0.125,95,100.0
4510,E2,441.75,0.125,95,100.0
4511,A1,441.875,0.125,95,100.0
4512,E2,441.875,0.125,95,100.0
4513,B1,442.0,0.25,95,100.0
4514,B3,442.0,4.0,95,100.0
4515,G#3,442.0,4.0,95,100.0
4516,E3,442.0,4.0,95,100.0
4517,B-2,442.0,0.25,95,100.0
4518,C#3,442.0,0.25,95,100.0
4519,A2,442.0,0.25,95,100.0
4520,F2,442.0,0.25,95,100.0
4521,E2,442.0,0.25,95,100.0
4522,B1,442.5,0.125,95,100.0
4523,G#3,442.5,0.5,127,100.0
4524,B-2,442.5,0.125,95,100.0
4525,E2,442.5,0.125,95,100.0
4526,B1,442.625,0.125,95,100.0
4527,E2,442.625,0.125,95,100.0
4528,B1,442.75,0.125,95,100.0
4529,E2,442.75,0.125,95,100.0
4530,B1,442.875,0.125,95,100.0
4531,E2,442.875,0.125,95,100.0
4532,B1,443.0,0.25,95,100.0
4533,E3,443.0,0.5,127,100.0
4534,B-2,443.0,0.25,95,100.0
4535,C#3,443.0,0.25,95,100.0
4536,B2,443.0,0.25,95,100.0
4537,E2,443.0,0.25,95,100.0
4538,F2,443.0,0.25,95,100.0
4539,B1,443.5,0.125,95,100.0
4540,E3,443.5,0.5,127,100.0
4541,B-2,443.5,0.125,95,100.0
4542,E2,443.5,0.125,95,100.0
4543,B1,443.625,0.125,95,100.0
4544,E2,443.625,0.125,95,100.0
4545,B1,443.75,0.125,95,100.0
4546,E2,443.75,0.125,95,100.0
4547,B1,443.875,0.125,95,100.0
4548,E2,443.875,0.125,95,100.0
4549,E1,444.0,0.25,95,100.0
4550,G#3,444.0,0.5,127,100.0
4551,B3,444.0,4.0,101,100.0
4552,G#3,444.0,4.0,101,100.0
4553,E3,444.0,4.0,101,100.0
4554,B2,444.0,4.0,101,100.0
4555,E2,444.0,4.0,101,100.0
4556,B-2,444.0,0.25,95,100.0
4557,C#3,444.0,0.25,95,100.0
4558,A2,444.0,0.25,95,100.0
4559,F2,444.0,0.25,95,100.0
4560,E2,444.0,0.25,95,100.0
4561,E1,444.5,0.125,95,100.0
4562,G#3,444.5,0.5,127,100.0
4563,B-2,444.5,0.125,95,100.0
4564,E2,444.5,0.125,95,100.0
4565,E1,444.625,0.125,95,100.0
4566,E2,444.625,0.125,95,100.0
4567,E1,444.75,0.125,95,100.0
4568,E2,444.75,0.125,95,100.0
4569,E1,444.875,0.125,95,100.0
4570,E2,444.875,0.125,95,100.0
4571,E1,445.0,0.25,95,100.0
4572,G#3,445.0,0.5,127,100.0
4573,B-2,445.0,0.25,95,100.0
4574,C#3,445.0,0.25,95,100.0
4575,B2,445.0,0.25,95,100.0
4576,F2,445.0,0.25,95,100.0
4577,E2,445.0,0.25,95,100.0
4578,E1,445.5,0.125,95,100.0
4579,G#3,445.5,1.0,127,100.0
4580,B-2,445.5,0.125,95,100.0
4581,E2,445.5,0.125,95,100.0
4582,E1,445.625,0.125,95,100.0
4583,E2,445.625,0.125,95,100.0
4584,E1,445.75,0.125,95,100.0
4585,E2,445.75,0.125,95,100.0
4586,E1,445.875,0.125,95,100.0
4587,E2,445.875,0.125,95,100.0
4588,E1,446.0,0.25,95,100.0
4589,E3,446.0,2.0,95,100.0
4590,C#3,446.0,2.0,95,100.0
4591,A2,446.0,2.0,95,100.0
4592,B-2,446.0,0.25,95,100.0
4593,C#3,446.0,0.25,95,100.0
4594,A2,446.0,0.25,95,100.0
4595,F2,446.0,0.25,95,100.0
4596,E2,446.0,0.25,95,100.0
4597,E1,446.5,0.125,95,100.0
4598,F#3,446.5,0.5,127,100.0
4599,B-2,446.5,0.125,95,100.0
4600,E2,446.5,0.125,95,100.0
4601,E1,446.625,0.125,95,100.0
4602,E2,446.625,0.125,95,100.0
4603,E1,446.75,0.125,95,100.0
4604,E2,446.75,0.125,95,100.0
4605,E1,446.875,0.125,95,100.0
4606,E2,446.875,0.125,95,100.0
4607,E1,447.0,0.25,95,100.0
4608,F#3,447.0,0.5,127,100.0
4609,B-2,447.0,0.25,95,100.0
4610,C#3,447.0,0.25,95,100.0
4611,B2,447.0,0.25,95,100.0
4612,E2,447.0,0.25,95,100.0
4613,F2,447.0,0.25,95,100.0
4614,E1,447.5,0.125,95,100.0
4615,F#3,447.5,0.5,127,100.0
4616,B-2,447.5,0.125,95,100.0
4617,E2,447.5,0.125,95,100.0
4618,E1,447.625,0.125,95,100.0
4619,E2,447.625,0.125,95,100.0
4620,E1,447.75,0.125,95,100.0
4621,E2,447.75,0.125,95,100.0
4622,E1,447.875,0.125,95,100.0
4623,E2,447.875,0.125,95,100.0
4624,A1,448.0,0.25,95,100.0
4625,A3,448.0,0.5,127,100.0
4626,F#3,448.0,2.0,95,100.0
4627,E-3,448.0,2.0,95,100.0
4628,B2,448.0,2.0,95,100.0
4629,B-2,448.0,0.25,95,100.0
4630,C#3,448.0,0.25,95,100.0
4631,A2,448.0,0.25,95,100.0
4632,F2,448.0,0.25,95,100.0
4633,E2,448.0,0.25,95,100.0
4634,A1,448.5,0.125,95,100.0
4635,A3,448.5,0.5,127,100.0
4636,B-2,448.5,0.125,95,100.0
4637,E2,448.5,0.125,95,100.0
4638,A1,448.625,0.125,95,100.0
4639,E2,448.625,0.125,95,100.0
4640,A1,448.75,0.125,95,100.0
4641,E2,448.75,0.125,95,100.0
4642,A1,448.875,0.125,95,100.0
4643,E2,448.875,0.125,95,100.0
4644,A1,449.0,0.25,95,100.0
4645,B3,449.0,0.5,127,100.0
4646,B-2,449.0,0.25,95,100.0
4647,C#3,449.0,0.25,95,100.0
4648,B2,449.0,0.25,95,100.0
4649,F2,449.0,0.25,95,100.0
4650,E2,449.0,0.25,95,100.0
4651,A1,449.5,0.125,95,100.0
4652,A3,449.5,1.0,127,100.0
4653,B-2,449.5,0.125,95,100.0
4654,E2,449.5,0.125,95,100.0
4655,A1,449.625,0.125,95,100.0
4656,E2,449.625,0.125,95,100.0
4657,A1,449.75,0.125,95,100.0
4658,E2,449.75,0.125,95,100.0
4659,A1,449.875,0.125,95,100.0
4660,E2,449.875,0.125,95,100.0
4661,B1,450.0,0.25,95,100.0
4662,B3,450.0,4.0,95,100.0
4663,G#3,450.0,4.0,95,100.0
4664,E3,450.0,4.0,95,100.0
4665,B-2,450.0,0.25,95,100.0
4666,C#3,450.0,0.25,95,100.0
4667,A2,450.0,0.25,95,100.0
4668,F2,450.0,0.25,95,100.0
4669,E2,450.0,0.25,95,100.0
4670,B1,450.5,0.125,95,100.0
4671,G#3,450.5,0.5,127,100.0
4672,B-2,450.5,0.125,95,100.0
4673,E2,450.5,0.125,95,100.0
4674,B1,450.625,0.125,95,100.0
4675,E2,450.625,0.125,95,100.0
4676,B1,450.75,0.125,95,100.0
4677,E2,450.75,0.125,95,100.0
4678,B1,450.875,0.125,95,100.0
4679,E2,450.875,0.125,95,100.0
4680,B1,451.0,0.25,95,100.0
4681,E3,451.0,0.5,127,100.0
4682,B-2,451.0,0.25,95,100.0
4683,C#3,451.0,0.25,95,100.0
4684,B2,451.0,0.25,95,100.0
4685,E2,451.0,0.25,95,100.0
4686,F2,451.0,0.25,95,100.0
4687,B1,451.5,0.125,95,100.0
4688,E3,451.5,0.5,127,100.0
4689,B-2,451.5,0.125,95,100.0
4690,E2,451.5,0.125,95,100.0
4691,B1,451.625,0.125,95,100.0
4692,E2,451.625,0.125,95,100.0
4693,B1,451.75,0.125,95,100.0
4694,E2,451.75,0.125,95,100.0
4695,B1,451.875,0.125,95,100.0
4696,E2,451.875,0.125,95,100.0
4697,E1,452.0,0.25,95,100.0
4698,G#3,452.0,0.5,127,100.0
4699,B-2,452.0,0.25,95,100.0
4700,C#3,452.0,0.25,95,100.0
4701,A2,452.0,0.25,95,100.0
4702,F2,452.0,0.25,95,100.0
4703,E2,452.0,0.25,95,100.0
4704,E1,452.5,0.125,95,100.0
4705,G#3,452.5,0.5,127,100.0
4706,B-2,452.5,0.125,95,100.0
4707,E2,452.5,0.125,95,100.0
4708,E1,452.625,0.125,95,100.0
4709,E2,452.625,0.125,95,100.0
4710,E1,452.75,0.125,95,100.0
4711,E2,452.75,0.125,95,100.0
4712,E1,452.875,0.125,95,100.0
4713,E2,452.875,0.125,95,100.0
4714,E1,453.0,0.25,95,100.0
4715,G#3,453.0,0.5,127,100.0
4716,B-2,453.0,0.25,95,100.0
4717,C#3,453.0,0.25,95,100.0
4718,B2,453.0,0.25,95,100.0
4719,F2,453.0,0.25,95,100.0
4720,E2,453.0,0.25,95,100.0
4721,E1,453.5,0.125,95,100.0
4722,G#3,453.5,1.0,127,100.0
4723,B-2,453.5,0.125,95,100.0
4724,E2,453.5,0.125,95,100.0
4725,E1,453.625,0.125,95,100.0
4726,E2,453.625,0.125,95,100.0
4727,E1,453.75,0.125,95,100.0
4728,E2,453.75,0.125,95,100.0
4729,E1,453.875,0.125,95,100.0
4730,E2,453.875,0.125,95,100.0
4731,E1,454.0,0.25,95,100.0
4732,E3,454.0,2.0,95,100.0
4733,C#3,454.0,2.0,95,100.0
4734,A2,454.0,2.0,95,100.0
4735,B-2,454.0,0.25,95,100.0
4736,C#3,454.0,0.25,95,100.0
4737,A2,454.0,0.25,95,100.0
4738,F2,454.0,0.25,95,100.0
4739,E2,454.0,0.25,95,100.0
4740,E1,454.5,0.125,95,100.0
4741,F#3,454.5,1.0,127,100.0
4742,B-2,454.5,0.125,95,100.0
4743,E2,454.5,0.125,95,100.0
4744,E1,454.625,0.125,95,100.0
4745,E2,454.625,0.125,95,100.0
4746,E1,454.75,0.125,95,100.0
4747,E2,454.75,0.125,95,100.0
4748,E1,454.875,0.125,95,100.0
4749,E2,454.875,0.125,95,100.0
4750,E1,455.0,0.25,95,100.0
4751,B-2,455.0,0.25,95,100.0
4752,C#3,455.0,0.25,95,100.0
4753,B2,455.0,0.25,95,100.0
4754,E2,455.0,0.25,95,100.0
4755,F2,455.0,0.25,95,100.0
4756,E1,455.5,0.125,95,100.0
4757,F#3,455.5,0.5,127,100.0
4758,B-2,455.5,0.125,95,100.0
4759,E2,455.5,0.125,95,100.0
4760,E1,455.625,0.125,95,100.0
4761,E2,455.625,0.125,95,100.0
4762,E1,455.75,0.125,95,100.0
4763,E2,455.75,0.125,95,100.0
4764,E1,455.875,0.125,95,100.0
4765,E2,455.875,0.125,95,100.0
4766,A1,456.0,0.25,95,100.0
4767,A3,456.0,0.5,127,100.0
4768,F#3,456.0,2.0,95,100.0
4769,E-3,456.0,2.0,95,100.0
4770,B2,456.0,2.0,95,100.0
4771,B-2,456.0,0.25,95,100.0
4772,C#3,456.0,0.25,95,100.0
4773,A2,456.0,0.25,95,100.0
4774,F2,456.0,0.25,95,100.0
4775,E2,456.0,0.25,95,100.0
4776,A1,456.5,0.125,95,100.0
4777,A3,456.5,0.5,127,100.0
4778,B-2,456.5,0.125,95,100.0
4779,E2,456.5,0.125,95,100.0
4780,A1,456.625,0.125,95,100.0
4781,E2,456.625,0.125,95,100.0
4782,A1,456.75,0.125,95,100.0
4783,E2,456.75,0.125,95,100.0
4784,A1,456.875,0.125,95,100.0
4785,E2,456.875,0.125,95,100.0
4786,A1,457.0,0.25,95,100.0
4787,B3,457.0,0.5,127,100.0
4788,B-2,457.0,0.25,95,100.0
4789,C#3,457.0,0.25,95,100.0
4790,B2,457.0,0.25,95,100.0
4791,F2,457.0,0.25,95,100.0
4792,E2,457.0,0.25,95,100.0
4793,A1,457.5,0.125,95,100.0
4794,A3,457.5,1.0,127,100.0
4795,B-2,457.5,0.125,95,100.0
4796,E2,457.5,0.125,95,100.0
4797,A1,457.625,0.125,95,100.0
4798,E2,457.625,0.125,95,100.0
4799,A1,457.75,0.125,95,100.0
4800,E2,457.75,0.125,95,100.0
4801,A1,457.875,0.125,95,100.0
4802,E2,457.875,0.125,95,100.0
4803,B1,458.0,0.25,95,100.0
4804,B3,458.0,4.0,95,100.0
4805,G#3,458.0,4.0,95,100.0
4806,E3,458.0,4.0,95,100.0
4807,B-2,458.0,0.25,95,100.0
4808,C#3,458.0,0.25,95,100.0
4809,A2,458.0,0.25,95,100.0
4810,F2,458.0,0.25,95,100.0
4811,E2,458.0,0.25,95,100.0
4812,B1,458.5,0.125,95,100.0
4813,G#3,458.5,0.5,127,100.0
4814,B-2,458.5,0.125,95,100.0
4815,E2,458.5,0.125,95,100.0
4816,B1,458.625,0.125,95,100.0
4817,E2,458.625,0.125,95,100.0
4818,B1,458.75,0.125,95,100.0
4819,E2,458.75,0.125,95,100.0
4820,B1,458.875,0.125,95,100.0
4821,E2,458.875,0.125,95,100.0
4822,B1,459.0,0.25,95,100.0
4823,E3,459.0,0.5,127,100.0
4824,B-2,459.0,0.25,95,100.0
4825,C#3,459.0,0.25,95,100.0
4826,B2,459.0,0.25,95,100.0
4827,E2,459.0,0.25,95,100.0
4828,F2,459.0,0.25,95,100.0
4829,B1,459.5,0.125,95,100.0
4830,E3,459.5,0.5,127,100.0
4831,B-2,459.5,0.125,95,100.0
4832,E2,459.5,0.125,95,100.0
4833,B1,459.625,0.125,95,100.0
4834,E2,459.625,0.125,95,100.0
4835,B1,459.75,0.125,95,100.0
4836,E2,459.75,0.125,95,100.0
4837,B1,459.875,0.125,95,100.0
4838,E2,459.875,0.125,95,100.0
4839,E1,460.0,0.25,95,100.0
4840,G#3,460.0,0.5,127,100.0
4841,B-2,460.0,0.25,95,100.0
4842,C#3,460.0,0.25,95,100.0
4843,A2,460.0,0.25,95,100.0
4844,F2,460.0,0.25,95,100.0
4845,E2,460.0,0.25,95,100.0
4846,E1,460.5,0.125,95,100.0
4847,G#3,460.5,0.5,127,100.0
4848,B-2,460.5,0.125,95,100.0
4849,E2,460.5,0.125,95,100.0
4850,E1,460.625,0.125,95,100.0
4851,E2,460.625,0.125,95,100.0
4852,E1,460.75,0.125,95,100.0
4853,E2,460.75,0.125,95,100.0
4854,E1,460.875,0.125,95,100.0
4855,E2,460.875,0.125,95,100.0
4856,E1,461.0,0.25,95,100.0
4857,G#3,461.0,0.5,127,100.0
4858,B-2,461.0,0.25,95,100.0
4859,C#3,461.0,0.25,95,100.0
4860,B2,461.0,0.25,95,100.0
4861,F2,461.0,0.25,95,100.0
4862,E2,461.0,0.25,95,100.0
4863,E1,461.5,0.125,95,100.0
4864,G#3,461.5,1.0,127,100.0
4865,B-2,461.5,0.125,95,100.0
4866,E2,461.5,0.125,95,100.0
4867,E1,461.625,0.125,95,100.0
4868,E2,461.625,0.125,95,100.0
4869,E1,461.75,0.125,95,100.0
4870,E2,461.75,0.125,95,100.0
4871,E1,461.875,0.125,95,100.0
4872,E2,461.875,0.125,95,100.0
4873,E1,462.0,0.25,95,100.0
4874,E3,462.0,2.0,95,100.0
4875,C#3,462.0,2.0,95,100.0
4876,A2,462.0,2.0,95,100.0
4877,B-2,462.0,0.25,95,100.0
4878,C#3,462.0,0.25,95,100.0
4879,A2,462.0,0.25,95,100.0
4880,F2,462.0,0.25,95,100.0
4881,E2,462.0,0.25,95,100.0
4882,E1,462.5,0.125,95,100.0
4883,F#3,462.5,0.5,127,100.0
4884,B-2,462.5,0.125,95,100.0
4885,E2,462.5,0.125,95,100.0
4886,E1,462.625,0.125,95,100.0
4887,E2,462.625,0.125,95,100.0
4888,E1,462.75,0.125,95,100.0
4889,E2,462.75,0.125,95,100.0
4890,E1,462.875,0.125,95,100.0
4891,E2,462.875,0.125,95,100.0
4892,E1,463.0,0.25,95,100.0
4893,F#3,463.0,0.5,127,100.0
4894,B-2,463.0,0.25,95,100.0
4895,C#3,463.0,0.25,95,100.0
4896,B2,463.0,0.25,95,100.0
4897,E2,463.0,0.25,95,100.0
4898,F2,463.0,0.25,95,100.0
4899,E1,463.5,0.125,95,100.0
4900,F#3,463.5,0.5,127,100.0
4901,B-2,463.5,0.125,95,100.0
4902,E2,463.5,0.125,95,100.0
4903,E1,463.625,0.125,95,100.0
4904,E2,463.625,0.125,95,100.0
4905,E1,463.75,0.125,95,100.0
4906,E2,463.75,0.125,95,100.0
4907,E1,463.875,0.125,95,100.0
4908,E2,463.875,0.125,95,100.0
4909,A1,464.0,0.25,95,100.0
4910,A3,464.0,0.5,127,100.0
4911,F#3,464.0,2.0,95,100.0
4912,E-3,464.0,2.0,95,100.0
4913,B2,464.0,2.0,95,100.0
4914,B-2,464.0,0.25,95,100.0
4915,C#3,464.0,0.25,95,100.0
4916,A2,464.0,0.25,95,100.0
4917,F2,464.0,0.25,95,100.0
4918,E2,464.0,0.25,95,100.0
4919,A1,464.5,0.125,95,100.0
4920,A3,464.5,0.5,127,100.0
4921,B-2,464.5,0.125,95,100.0
4922,E2,464.5,0.125,95,100.0
4923,A1,464.625,0.125,95,100.0
4924,E2,464.625,0.125,95,100.0
4925,A1,464.75,0.125,95,100.0
4926,E2,464.75,0.125,95,100.0
4927,A1,464.875,0.125,95,100.0
4928,E2,464.875,0.125,95,100.0
4929,A1,465.0,0.25,95,100.0
4930,B3,465.0,0.5,127,100.0
4931,B-2,465.0,0.25,95,100.0
4932,C#3,465.0,0.25,95,100.0
4933,B2,465.0,0.25,95,100.0
4934,F2,465.0,0.25,95,100.0
4935,E2,465.0,0.25,95,100.0
4936,A1,465.5,0.125,95,100.0
4937,A3,465.5,1.0,127,100.0
4938,B-2,465.5,0.125,95,100.0
4939,E2,465.5,0.125,95,100.0
4940,A1,465.625,0.125,95,100.0
4941,E2,465.625,0.125,95,100.0
4942,A1,465.75,0.125,95,100.0
4943,E2,465.75,0.125,95,100.0
4944,A1,465.875,0.125,95,100.0
4945,E2,465.875,0.125,95,100.0
4946,B1,466.0,0.25,95,100.0
4947,B3,466.0,4.0,95,100.0
4948,G#3,466.0,4.0,95,100.0
4949,E3,466.0,4.0,95,100.0
4950,B-2,466.0,0.25,95,100.0
4951,C#3,466.0,0.25,95,100.0
4952,A2,466.0,0.25,95,100.0
4953,F2,466.0,0.25,95,100.0
4954,E2,466.0,0.25,95,100.0
4955,B1,466.5,0.125,95,100.0
4956,G#3,466.5,0.5,127,100.0
4957,B-2,466.5,0.125,95,100.0
4958,E2,466.5,0.125,95,100.0
4959,B1,466.625,0.125,95,100.0
4960,E2,466.625,0.125,95,100.0
4961,B1,466.75,0.125,95,100.0
4962,E2,466.75,0.125,95,100.0
4963,B1,466.875,0.125,95,100.0
4964,E2,466.875,0.125,95,100.0
4965,B1,467.0,0.25,95,100.0
4966,E3,467.0,0.5,127,100.0
4967,B-2,467.0,0.25,95,100.0
4968,C#3,467.0,0.25,95,100.0
4969,B2,467.0,0.25,95,100.0
4970,E2,467.0,0.25,95,100.0
4971,F2,467.0,0.25,95,100.0
4972,B1,467.5,0.125,95,100.0
4973,E3,467.5,0.5,127,100.0
4974,B-2,467.5,0.125,95,100.0
4975,E2,467.5,0.125,95,100.0
4976,B1,467.625,0.125,95,100.0
4977,E2,467.625,0.125,95,100.0
4978,B1,467.75,0.125,95,100.0
4979,E2,467.75,0.125,95,100.0
4980,B1,467.875,0.125,95,100.0
4981,E2,467.875,0.125,95,100.0
4982,E1,468.0,0.25,95,100.0
4983,G#3,468.0,0.5,127,100.0
4984,B-2,468.0,0.25,95,100.0
4985,C#3,468.0,0.25,95,100.0
4986,A2,468.0,0.25,95,100.0
4987,F2,468.0,0.25,95,100.0
4988,E2,468.0,0.25,95,100.0
4989,E1,468.5,0.125,95,100.0
4990,G#3,468.5,0.5,127,100.0
4991,B-2,468.5,0.125,95,100.0
4992,E2,468.5,0.125,95,100.0
4993,E1,468.625,0.125,95,100.0
4994,E2,468.625,0.125,95,100.0
4995,E1,468.75,0.125,95,100.0
4996,E2,468.75,0.125,95,100.0
4997,E1,468.875,0.125,95,100.0
4998,E2,468.875,0.125,95,100.0
4999,E1,469.0,0.25,95,100.0
5000,G#3,469.0,0.5,127,100.0
5001,B-2,469.0,0.25,95,100.0
5002,C#3,469.0,0.25,95,100.0
5003,B2,469.0,0.25,95,100.0
5004,F2,469.0,0.25,95,100.0
5005,E2,469.0,0.25,95,100.0
5006,E1,469.5,0.125,95,100.0
5007,G#3,469.5,1.0,127,100.0
5008,B-2,469.5,0.125,95,100.0
5009,E2,469.5,0.125,95,100.0
5010,E1,469.625,0.125,95,100.0
5011,E2,469.625,0.125,95,100.0
5012,E1,469.75,0.125,95,100.0
5013,E2,469.75,0.125,95,100.0
5014,E1,469.875,0.125,95,100.0
5015,E2,469.875,0.125,95,100.0
5016,E1,470.0,0.25,95,100.0
5017,E3,470.0,2.0,95,100.0
5018,C#3,470.0,2.0,95,100.0
5019,A2,470.0,2.0,95,100.0
5020,B-2,470.0,0.25,95,100.0
5021,C#3,470.0,0.25,95,100.0
5022,A2,470.0,0.25,95,100.0
5023,F2,470.0,0.25,95,100.0
5024,E2,470.0,0.25,95,100.0
5025,E1,470.5,0.125,95,100.0
5026,F#3,470.5,1.0,127,100.0
5027,B-2,470.5,0.125,95,100.0
5028,E2,470.5,0.125,95,100.0
5029,E1,470.625,0.125,95,100.0
5030,E2,470.625,0.125,95,100.0
5031,E1,470.75,0.125,95,100.0
5032,E2,470.75,0.125,95,100.0
5033,E1,470.875,0.125,95,100.0
5034,E2,470.875,0.125,95,100.0
5035,E1,471.0,0.25,95,100.0
5036,B-2,471.0,0.25,95,100.0
5037,C#3,471.0,0.25,95,100.0
5038,B2,471.0,0.25,95,100.0
5039,E2,471.0,0.25,95,100.0
5040,F2,471.0,0.25,95,100.0
5041,E1,471.5,0.125,95,100.0
5042,F#3,471.5,0.5,127,100.0
5043,B-2,471.5,0.125,95,100.0
5044,E2,471.5,0.125,95,100.0
5045,E1,471.625,0.125,95,100.0
5046,E2,471.625,0.125,95,100.0
5047,E1,471.75,0.125,95,100.0
5048,E2,471.75,0.125,95,100.0
5049,E1,471.875,0.125,95,100.0
5050,E2,471.875,0.125,95,100.0
5051,A1,472.0,0.25,95,100.0
5052,A3,472.0,0.5,127,100.0
5053,F#3,472.0,2.0,95,100.0
5054,E-3,472.0,2.0,95,100.0
5055,B2,472.0,2.0,95,100.0
5056,B-2,472.0,0.25,95,100.0
5057,C#3,472.0,0.25,95,100.0
5058,A2,472.0,0.25,95,100.0
5059,F2,472.0,0.25,95,100.0
5060,E2,472.0,0.25,95,100.0
5061,A1,472.5,0.125,95,100.0
5062,A3,472.5,0.5,127,100.0
5063,B-2,472.5,0.125,95,100.0
5064,E2,472.5,0.125,95,100.0
5065,A1,472.625,0.125,95,100.0
5066,E2,472.625,0.125,95,100.0
5067,A1,472.75,0.125,95,100.0
5068,E2,472.75,0.125,95,100.0
5069,A1,472.875,0.125,95,100.0
5070,E2,472.875,0.125,95,100.0
5071,A1,473.0,0.25,95,100.0
5072,B3,473.0,0.5,127,100.0
5073,B-2,473.0,0.25,95,100.0
5074,C#3,473.0,0.25,95,100.0
5075,B2,473.0,0.25,95,100.0
5076,F2,473.0,0.25,95,100.0
5077,E2,473.0,0.25,95,100.0
5078,A1,473.5,0.125,95,100.0
5079,A3,473.5,1.0,127,100.0
5080,B-2,473.5,0.125,95,100.0
5081,E2,473.5,0.125,95,100.0
5082,A1,473.625,0.125,95,100.0
5083,E2,473.625,0.125,95,100.0
5084,A1,473.75,0.125,95,100.0
5085,E2,473.75,0.125,95,100.0
5086,A1,473.875,0.125,95,100.0
5087,E2,473.875,0.125,95,100.0
5088,B1,474.0,0.25,95,100.0
5089,B3,474.0,4.0,95,100.0
5090,G#3,474.0,4.0,95,100.0
5091,E3,474.0,4.0,95,100.0
5092,B-2,474.0,0.25,95,100.0
5093,C#3,474.0,0.25,95,100.0
5094,A2,474.0,0.25,95,100.0
5095,F2,474.0,0.25,95,100.0
5096,E2,474.0,0.25,95,100.0
5097,B1,474.5,0.125,95,100.0
5098,G#3,474.5,1.0,127,100.0
5099,B-2,474.5,0.125,95,100.0
5100,E2,474.5,0.125,95,100.0
5101,B1,474.625,0.125,95,100.0
5102,E2,474.625,0.125,95,100.0
5103,B1,474.75,0.125,95,100.0
5104,E2,474.75,0.125,95,100.0
5105,B1,474.875,0.125,95,100.0
5106,E2,474.875,0.125,95,100.0
5107,B1,475.0,0.25,95,100.0
5108,B-2,475.0,0.25,95,100.0
5109,C#3,475.0,0.25,95,100.0
5110,B2,475.0,0.25,95,100.0
5111,E2,475.0,0.25,95,100.0
5112,F2,475.0,0.25,95,100.0
5113,B1,475.5,0.125,95,100.0
5114,E3,475.5,0.5,127,100.0
5115,B-2,475.5,0.125,95,100.0
5116,E2,475.5,0.125,95,100.0
5117,B1,475.625,0.125,95,100.0
5118,E2,475.625,0.125,95,100.0
5119,B1,475.75,0.125,95,100.0
5120,E2,475.75,0.125,95,100.0
5121,B1,475.875,0.125,95,100.0
5122,E2,475.875,0.125,95,100.0
5123,E1,476.0,0.25,95,100.0
5124,G#3,476.0,0.5,127,100.0
5125,B3,476.0,4.0,95,100.0
5126,E4,476.0,4.0,95,100.0
5127,B-2,476.0,0.25,95,100.0
5128,C#3,476.0,0.25,95,100.0
5129,A2,476.0,0.25,95,100.0
5130,F2,476.0,0.25,95,100.0
5131,E2,476.0,0.25,95,100.0
5132,E1,476.5,0.125,95,100.0
5133,G#3,476.5,0.5,127,100.0
5134,B-2,476.5,0.125,95,100.0
5135,E2,476.5,0.125,95,100.0
5136,E1,476.625,0.125,95,100.0
5137,E2,476.625,0.125,95,100.0
5138,E1,476.75,0.125,95,100.0
5139,E2,476.75,0.125,95,100.0
5140,E1,476.875,0.125,95,100.0
5141,E2,476.875,0.125,95,100.0
5142,E1,477.0,0.25,95,100.0
5143,G#3,477.0,0.5,127,100.0
5144,B-2,477.0,0.25,95,100.0
5145,C#3,477.0,0.25,95,100.0
5146,B2,477.0,0.25,95,100.0
5147,F2,477.0,0.25,95,100.0
5148,E2,477.0,0.25,95,100.0
5149,E1,477.5,0.125,95,100.0
5150,G#3,477.5,1.0,127,100.0
5151,B-2,477.5,0.125,95,100.0
5152,E2,477.5,0.125,95,100.0
5153,E1,477.625,0.125,95,100.0
5154,E2,477.625,0.125,95,100.0
5155,E1,477.75,0.125,95,100.0
5156,E2,477.75,0.125,95,100.0
5157,E1,477.875,0.125,95,100.0
5158,E2,477.875,0.125,95,100.0
5159,E1,478.0,0.25,95,100.0
5160,C#4,478.0,2.0,95,100.0
5161,A3,478.0,2.0,95,100.0
5162,E3,478.0,2.0,95,100.0
5163,B-2,478.0,0.25,95,100.0
5164,C#3,478.0,0.25,95,100.0
5165,A2,478.0,0.25,95,100.0
5166,F2,478.0,0.25,95,100.0
5167,E2,478.0,0.25,95,100.0
5168,E1,478.5,0.125,95,100.0
5169,F#3,478.5,0.5,127,100.0
5170,B-2,478.5,0.125,95,100.0
5171,E2,478.5,0.125,95,100.0
5172,E1,478.625,0.125,95,100.0
5173,E2,478.625,0.125,95,100.0
5174,E1,478.75,0.125,95,100.0
5175,E2,478.75,0.125,95,100.0
5176,E1,478.875,0.125,95,100.0
5177,E2,478.875,0.125,95,100.0
5178,E1,479.0,0.25,95,100.0
5179,F#3,479.0,0.5,127,100.0
5180,B-2,479.0,0.25,95,100.0
5181,C#3,479.0,0.25,95,100.0
5182,B2,479.0,0.25,95,100.0
5183,E2,479.0,0.25,95,100.0
5184,F2,479.0,0.25,95,100.0
5185,E1,479.5,0.125,95,100.0
5186,F#3,479.5,0.5,127,100.0
5187,B-2,479.5,0.125,95,100.0
5188,E2,479.5,0.125,95,100.0
5189,E1,479.625,0.125,95,100.0
5190,E2,479.625,0.125,95,100.0
5191,E1,479.75,0.125,95,100.0
5192,E2,479.75,0.125,95,100.0
5193,E1,479.875,0.125,95,100.0
5194,E2,479.875,0.125,95,100.0
5195,A1,480.0,0.25,95,100.0
5196,A3,480.0,0.5,127,100.0
5197,B3,480.0,2.0,95,100.0
5198,F#3,480.0,2.0,95,100.0
5199,E-3,480.0,2.0,95,100.0
5200,B-2,480.0,0.25,95,100.0
5201,C#3,480.0,0.25,95,100.0
5202,A2,480.0,0.25,95,100.0
5203,F2,480.0,0.25,95,100.0
5204,E2,480.0,0.25,95,100.0
5205,A1,480.5,0.125,95,100.0
5206,A3,480.5,0.5,127,100.0
5207,B-2,480.5,0.125,95,100.0
5208,E2,480.5,0.125,95,100.0
5209,A1,480.625,0.125,95,100.0
5210,E2,480.625,0.125,95,100.0
5211,A1,480.75,0.125,95,100.0
5212,E2,480.75,0.125,95,100.0
5213,A1,480.875,0.125,95,100.0
5214,E2,480.875,0.125,95,100.0
5215,A1,481.0,0.25,95,100.0
5216,B3,481.0,0.5,127,100.0
5217,B-2,481.0,0.25,95,100.0
5218,C#3,481.0,0.25,95,100.0
5219,B2,481.0,0.25,95,100.0
5220,F2,481.0,0.25,95,100.0
5221,E2,481.0,0.25,95,100.0
5222,A1,481.5,0.125,95,100.0
5223,A3,481.5,1.0,127,100.0
5224,B-2,481.5,0.125,95,100.0
5225,E2,481.5,0.125,95,100.0
5226,A1,481.625,0.125,95,100.0
5227,E2,481.625,0.125,95,100.0
5228,A1,481.75,0.125,95,100.0
5229,E2,481.75,0.125,95,100.0
5230,A1,481.875,0.125,95,100.0
5231,E2,481.875,0.125,95,100.0
5232,B1,482.0,0.25,95,100.0
5233,B3,482.0,4.0,95,100.0
5234,G#3,482.0,4.0,95,100.0
5235,E3,482.0,4.0,95,100.0
5236,B-2,482.0,0.25,95,100.0
5237,C#3,482.0,0.25,95,100.0
5238,A2,482.0,0.25,95,100.0
5239,F2,482.0,0.25,95,100.0
5240,E2,482.0,0.25,95,100.0
5241,B1,482.5,0.125,95,100.0
5242,G#3,482.5,1.0,127,100.0
5243,B-2,482.5,0.125,95,100.0
5244,E2,482.5,0.125,95,100.0
5245,B1,482.625,0.125,95,100.0
5246,E2,482.625,0.125,95,100.0
5247,B1,482.75,0.125,95,100.0
5248,E2,482.75,0.125,95,100.0
5249,B1,482.875,0.125,95,100.0
5250,E2,482.875,0.125,95,100.0
5251,B1,483.0,0.25,95,100.0
5252,B-2,483.0,0.25,95,100.0
5253,C#3,483.0,0.25,95,100.0
5254,B2,483.0,0.25,95,100.0
5255,E2,483.0,0.25,95,100.0
5256,F2,483.0,0.25,95,100.0
5257,B1,483.5,0.125,95,100.0
5258,E3,483.5,0.5,127,100.0
5259,B-2,483.5,0.125,95,100.0
5260,E2,483.5,0.125,95,100.0
5261,B1,483.625,0.125,95,100.0
5262,E2,483.625,0.125,95,100.0
5263,B1,483.75,0.125,95,100.0
5264,E2,483.75,0.125,95,100.0
5265,B1,483.875,0.125,95,100.0
5266,E2,483.875,0.125,95,100.0
5267,E1,484.0,0.25,95,100.0
5268,G#3,484.0,0.5,127,100.0
5269,B-2,484.0,0.25,95,100.0
5270,C#3,484.0,0.25,95,100.0
5271,A2,484.0,0.25,95,100.0
5272,F2,484.0,0.25,95,100.0
5273,E2,484.0,0.25,95,100.0
5274,E1,484.5,0.125,95,100.0
5275,G#3,484.5,0.5,127,100.0
5276,B-2,484.5,0.125,95,100.0
5277,E2,484.5,0.125,95,100.0
5278,E1,484.625,0.125,95,100.0
5279,E2,484.625,0.125,95,100.0
5280,E1,484.75,0.125,95,100.0
5281,E2,484.75,0.125,95,100.0
5282,E1,484.875,0.125,95,100.0
5283,E2,484.875,0.125,95,100.0
5284,E1,485.0,0.25,95,100.0
5285,G#3,485.0,0.5,127,100.0
5286,B-2,485.0,0.25,95,100.0
5287,C#3,485.0,0.25,95,100.0
5288,B2,485.0,0.25,95,100.0
5289,F2,485.0,0.25,95,100.0
5290,E2,485.0,0.25,95,100.0
5291,E1,485.5,0.125,95,100.0
5292,G#3,485.5,1.0,127,100.0
5293,B-2,485.5,0.125,95,100.0
5294,E2,485.5,0.125,95,100.0
5295,E1,485.625,0.125,95,100.0
5296,E2,485.625,0.125,95,100.0
5297,E1,485.75,0.125,95,100.0
5298,E2,485.75,0.125,95,100.0
5299,E1,485.875,0.125,95,100.0
5300,E2,485.875,0.125,95,100.0
5301,E1,486.0,0.25,95,100.0
5302,C#4,486.0,2.0,95,100.0
5303,A3,486.0,2.0,95,100.0
5304,E3,486.0,2.0,95,100.0
5305,B-2,486.0,0.25,95,100.0
5306,C#3,486.0,0.25,95,100.0
5307,A2,486.0,0.25,95,100.0
5308,F2,486.0,0.25,95,100.0
5309,E2,486.0,0.25,95,100.0
5310,E1,486.5,0.125,95,100.0
5311,F#3,486.5,1.0,127,100.0
5312,B-2,486.5,0.125,95,100.0
5313,E2,486.5,0.125,95,100.0
5314,E1,486.625,0.125,95,100.0
5315,E2,486.625,0.125,95,100.0
5316,E1,486.75,0.125,95,100.0
5317,E2,486.75,0.125,95,100.0
5318,E1,486.875,0.125,95,100.0
5319,E2,486.875,0.125,95,100.0
5320,E1,487.0,0.25,95,100.0
5321,B-2,487.0,0.25,95,100.0
5322,C#3,487.0,0.25,95,100.0
5323,B2,487.0,0.25,95,100.0
5324,E2,487.0,0.25,95,100.0
5325,F2,487.0,0.25,95,100.0
5326,E1,487.5,0.125,95,100.0
5327,F#3,487.5,0.5,127,100.0
5328,B-2,487.5,0.125,95,100.0
5329,E2,487.5,0.125,95,100.0
5330,E1,487.625,0.125,95,100.0
5331,E2,487.625,0.125,95,100.0
5332,E1,487.75,0.125,95,100.0
5333,E2,487.75,0.125,95,100.0
5334,E1,487.875,0.125,95,100.0
5335,E2,487.875,0.125,95,100.0
5336,A1,488.0,0.25,95,100.0
5337,A3,488.0,0.5,127,100.0
5338,B3,488.0,2.0,95,100.0
5339,F#3,488.0,2.0,95,100.0
5340,E-3,488.0,2.0,95,100.0
5341,B-2,488.0,0.25,95,100.0
5342,C#3,488.0,0.25,95,100.0
5343,A2,488.0,0.25,95,100.0
5344,F2,488.0,0.25,95,100.0
5345,E2,488.0,0.25,95,100.0
5346,A1,488.5,0.125,95,100.0
5347,A3,488.5,0.5,127,100.0
5348,B-2,488.5,0.125,95,100.0
5349,E2,488.5,0.125,95,100.0
5350,A1,488.625,0.125,95,100.0
5351,E2,488.625,0.125,95,100.0
5352,A1,488.75,0.125,95,100.0
5353,E2,488.75,0.125,95,100.0
5354,A1,488.875,0.125,95,100.0
5355,E2,488.875,0.125,95,100.0
5356,A1,489.0,0.25,95,100.0
5357,B3,489.0,0.5,127,100.0
5358,B-2,489.0,0.25,95,100.0
5359,C#3,489.0,0.25,95,100.0
5360,B2,489.0,0.25,95,100.0
5361,F2,489.0,0.25,95,100.0
5362,E2,489.0,0.25,95,100.0
5363,A1,489.5,0.125,95,100.0
5364,A3,489.5,1.0,127,100.0
5365,B-2,489.5,0.125,95,100.0
5366,E2,489.5,0.125,95,100.0
5367,A1,489.625,0.125,95,100.0
5368,E2,489.625,0.125,95,100.0
5369,A1,489.75,0.125,95,100.0
5370,E2,489.75,0.125,95,100.0
5371,A1,489.875,0.125,95,100.0
5372,E2,489.875,0.125,95,100.0
5373,B1,490.0,0.25,95,100.0
5374,B3,490.0,4.0,95,100.0
5375,G#3,490.0,4.0,95,100.0
5376,E3,490.0,4.0,95,100.0
5377,B-2,490.0,0.25,95,100.0
5378,C#3,490.0,0.25,95,100.0
5379,A2,490.0,0.25,95,100.0
5380,F2,490.0,0.25,95,100.0
5381,E2,490.0,0.25,95,100.0
5382,B1,490.5,0.125,95,100.0
5383,G#3,490.5,1.0,127,100.0
5384,B-2,490.5,0.125,95,100.0
5385,E2,490.5,0.125,95,100.0
5386,B1,490.625,0.125,95,100.0
5387,E2,490.625,0.125,95,100.0
5388,B1,490.75,0.125,95,100.0
5389,E2,490.75,0.125,95,100.0
5390,B1,490.875,0.125,95,100.0
5391,E2,490.875,0.125,95,100.0
5392,B1,491.0,0.25,95,100.0
5393,B-2,491.0,0.25,95,100.0
5394,C#3,491.0,0.25,95,100.0
5395,B2,491.0,0.25,95,100.0
5396,E2,491.0,0.25,95,100.0
5397,F2,491.0,0.25,95,100.0
5398,A2,491.25,0.25,95,100.0
5399,B1,491.5,0.125,95,100.0
5400,E3,491.5,0.5,127,100.0
5401,G2,491.5,0.25,95,100.0
5402,B-2,491.5,0.25,95,100.0
5403,B1,491.625,0.125,95,100.0
5404,B1,491.75,0.125,95,100.0
5405,F2,491.75,0.25,95,100.0
5406,B1,491.875,0.125,95,100.0
5407,E1,492.0,1.0,95,100.0
5408,G#3,492.0,0.5,127,100.0
5409,G#4,492.0,4.0,127,100.0
5410,E4,492.0,4.0,127,100.0
5411,E-3,492.0,0.25,95,100.0
5412,G3,492.0,0.25,95,100.0
5413,G#2,492.0,0.25,95,100.0
5414,B2,492.0,0.25,95,100.0
5415,F3,492.0,0.25,95,100.0
5416,F2,492.0,0.25,95,100.0
5417,G#3,492.5,0.5,127,100.0
5418,G#2,492.5,0.25,95,100.0
5419,B2,492.5,0.25,95,100.0
5420,E1,493.0,1.0,95,100.0
5421,G#3,493.0,0.5,127,100.0
5422,G3,493.0,0.25,95,100.0
5423,G#2,493.0,0.25,95,100.0
5424,C3,493.0,0.25,95,100.0
5425,F3,493.0,0.25,95,100.0
5426,E2,493.0,0.25,95,100.0
5427,G#3,493.5,1.0,127,100.0
5428,G#2,493.5,0.25,95,100.0
5429,B2,493.5,0.25,95,100.0
5430,E1,494.0,0.5,95,100.0
5431,C#4,494.0,2.0,95,100.0
5432,A3,494.0,2.0,95,100.0
5433,E3,494.0,2.0,95,100.0
5434,G3,494.0,0.25,95,100.0
5435,G#2,494.0,0.25,95,100.0
5436,B2,494.0,0.25,95,100.0
5437,F2,494.0,0.25,95,100.0
5438,F3,494.0,0.25,95,100.0
5439,E1,494.5,0.5,95,100.0
5440,F#3,494.5,1.0,127,100.0
5441,G#2,494.5,0.25,95,100.0
5442,B2,494.5,0.25,95,100.0
5443,E1,495.0,0.5,95,100.0
5444,G3,495.0,0.25,95,100.0
5445,G#2,495.0,0.25,95,100.0
5446,C3,495.0,0.25,95,100.0
5447,E2,495.0,0.25,95,100.0
5448,F3,495.0,0.25,95,100.0
5449,E1,495.5,0.5,95,100.0
5450,F#3,495.5,0.5,127,100.0
5451,B-2,495.5,0.25,95,100.0
5452,G#2,495.5,0.25,95,100.0
5453,B2,495.5,0.25,95,100.0
5454,A1,496.0,1.0,95,100.0
5455,A3,496.0,0.5,127,100.0
5456,B3,496.0,2.0,95,100.0
5457,F#3,496.0,2.0,95,100.0
5458,E-3,496.0,2.0,95,100.0
5459,F#4,496.0,2.0,127,100.0
5460,C#4,496.0,2.0,127,100.0
5461,E-3,496.0,0.25,95,100.0
5462,G3,496.0,0.25,95,100.0
5463,G#2,496.0,0.25,95,100.0
5464,B2,496.0,0.25,95,100.0
5465,F3,496.0,0.25,95,100.0
5466,F2,496.0,0.25,95,100.0
5467,A3,496.5,0.5,127,100.0
5468,G#2,496.5,0.25,95,100.0
5469,B2,496.5,0.25,95,100.0
5470,A1,497.0,1.0,95,100.0
5471,B3,497.0,0.5,127,100.0
5472,G3,497.0,0.25,95,100.0
5473,G#2,497.0,0.25,95,100.0
5474,C3,497.0,0.25,95,100.0
5475,F3,497.0,0.25,95,100.0
5476,E2,497.0,0.25,95,100.0
5477,A3,497.5,1.0,127,100.0
5478,G#2,497.5,0.25,95,100.0
5479,B2,497.5,0.25,95,100.0
5480,C#2,498.0,0.5,95,100.0
5481,G#4,498.0,0.5,127,100.0
5482,B3,498.0,4.0,95,100.0
5483,G#3,498.0,4.0,95,100.0
5484,E3,498.0,4.0,95,100.0
5485,G3,498.0,0.25,95,100.0
5486,G#2,498.0,0.25,95,100.0
5487,B2,498.0,0.25,95,100.0
5488,F2,498.0,0.25,95,100.0
5489,F3,498.0,0.25,95,100.0
5490,B1,498.5,0.5,95,100.0
5491,F#4,498.5,0.5,127,100.0
5492,G#3,498.5,1.0,127,100.0
5493,G#2,498.5,0.25,95,100.0
5494,B2,498.5,0.25,95,100.0
5495,C#2,499.0,0.5,95,100.0
5496,E4,499.0,0.25,127,100.0
5497,G3,499.0,0.25,95,100.0
5498,G#2,499.0,0.25,95,100.0
5499,C3,499.0,0.25,95,100.0
5500,E2,499.0,0.25,95,100.0
5501,F3,499.0,0.25,95,100.0
5502,F#4,499.25,0.75,127,100.0
5503,B1,499.5,0.5,95,100.0
5504,E3,499.5,0.5,127,100.0
5505,B-2,499.5,0.25,95,100.0
5506,G#2,499.5,0.25,95,100.0
5507,B2,499.5,0.25,95,100.0
5508,E1,500.0,1.0,95,100.0
5509,G#3,500.0,0.5,127,100.0
5510,G#4,500.0,4.0,127,100.0
5511,E4,500.0,4.0,127,100.0
5512,E-3,500.0,0.25,95,100.0
5513,G3,500.0,0.25,95,100.0
5514,G#2,500.0,0.25,95,100.0
5515,B2,500.0,0.25,95,100.0
5516,F3,500.0,0.25,95,100.0
5517,F2,500.0,0.25,95,100.0
5518,G#3,500.5,0.5,127,100.0
5519,G#2,500.5,0.25,95,100.0
5520,B2,500.5,0.25,95,100.0
5521,E1,501.0,1.0,95,100.0
5522,G#3,501.0,0.5,127,100.0
5523,G3,501.0,0.25,95,100.0
5524,G#2,501.0,0.25,95,100.0
5525,C3,501.0,0.25,95,100.0
5526,F3,501.0,0.25,95,100.0
5527,E2,501.0,0.25,95,100.0
5528,G#3,501.5,1.0,127,100.0
5529,G#2,501.5,0.25,95,100.0
5530,B2,501.5,0.25,95,100.0
5531,E1,502.0,0.5,95,100.0
5532,C#4,502.0,2.0,95,100.0
5533,A3,502.0,2.0,95,100.0
5534,E3,502.0,2.0,95,100.0
5535,G3,502.0,0.25,95,100.0
5536,G#2,502.0,0.25,95,100.0
5537,B2,502.0,0.25,95,100.0
5538,F2,502.0,0.25,95,100.0
5539,F3,502.0,0.25,95,100.0
5540,E1,502.5,0.5,95,100.0
5541,F#3,502.5,1.0,127,100.0
5542,G#2,502.5,0.25,95,100.0
5543,B2,502.5,0.25,95,100.0
5544,E1,503.0,0.5,95,100.0
5545,G3,503.0,0.25,95,100.0
5546,G#2,503.0,0.25,95,100.0
5547,C3,503.0,0.25,95,100.0
5548,E2,503.0,0.25,95,100.0
5549,F3,503.0,0.25,95,100.0
5550,E1,503.5,0.5,95,100.0
5551,F#3,503.5,0.5,127,100.0
5552,B-2,503.5,0.25,95,100.0
5553,G#2,503.5,0.25,95,100.0
5554,B2,503.5,0.25,95,100.0
5555,A1,504.0,1.0,95,100.0
5556,A3,504.0,0.5,127,100.0
5557,B3,504.0,2.0,95,100.0
5558,F#3,504.0,2.0,95,100.0
5559,E-3,504.0,2.0,95,100.0
5560,E3,504.0,4.0,95,100.0
5561,B2,504.0,4.0,95,100.0
5562,E2,504.0,4.0,95,100.0
5563,F#4,504.0,2.0,127,100.0
5564,C#4,504.0,2.0,127,100.0
5565,E-3,504.0,0.25,95,100.0
5566,G3,504.0,0.25,95,100.0
5567,G#2,504.0,0.25,95,100.0
5568,B2,504.0,0.25,95,100.0
5569,F3,504.0,0.25,95,100.0
5570,F2,504.0,0.25,95,100.0
5571,A3,504.5,0.5,127,100.0
5572,G#2,504.5,0.25,95,100.0
5573,B2,504.5,0.25,95,100.0
5574,A1,505.0,1.0,95,100.0
5575,B3,505.0,0.5,127,100.0
5576,G3,505.0,0.25,95,100.0
5577,G#2,505.0,0.25,95,100.0
5578,C3,505.0,0.25,95,100.0
5579,F3,505.0,0.25,95,100.0
5580,E2,505.0,0.25,95,100.0
5581,A3,505.5,1.0,127,100.0
5582,G#2,505.5,0.25,95,100.0
5583,B2,505.5,0.25,95,100.0
5584,C#2,506.0,0.5,95,100.0
5585,G#4,506.0,0.5,127,100.0
5586,B3,506.0,4.0,95,100.0
5587,G#3,506.0,4.0,95,100.0
5588,E3,506.0,4.0,95,100.0
5589,G3,506.0,0.25,95,100.0
5590,G#2,506.0,0.25,95,100.0
5591,B2,506.0,0.25,95,100.0
5592,F2,506.0,0.25,95,100.0
5593,F3,506.0,0.25,95,100.0
5594,B1,506.5,0.5,95,100.0
5595,F#4,506.5,0.5,127,100.0
5596,G#3,506.5,1.0,127,100.0
5597,G#2,506.5,0.25,95,100.0
5598,B2,506.5,0.25,95,100.0
5599,C#2,507.0,0.5,95,100.0
5600,E4,507.0,0.25,127,100.0
5601,G3,507.0,0.25,95,100.0
5602,G#2,507.0,0.25,95,100.0
5603,C3,507.0,0.25,95,100.0
5604,E2,507.0,0.25,95,100.0
5605,F3,507.0,0.25,95,100.0
5606,F#4,507.25,0.75,127,100.0
5607,B1,507.5,0.5,95,100.0
5608,E3,507.5,0.5,127,100.0
5609,B-2,507.5,0.25,95,100.0
5610,G#2,507.5,0.25,95,100.0
5611,B2,507.5,0.25,95,100.0
5612,E1,508.0,1.0,95,100.0
5613,G#3,508.0,0.5,127,100.0
5614,A3,508.0,2.0,95,100.0
5615,E3,508.0,2.0,95,100.0
5616,A2,508.0,2.0,95,100.0
5617,G#4,508.0,4.0,127,100.0
5618,E4,508.0,4.0,127,100.0
5619,E-3,508.0,0.25,95,100.0
5620,G3,508.0,0.25,95,100.0
5621,G#2,508.0,0.25,95,100.0
5622,B2,508.0,0.25,95,100.0
5623,F3,508.0,0.25,95,100.0
5624,F2,508.0,0.25,95,100.0
5625,G#3,508.5,0.5,127,100.0
5626,G#2,508.5,0.25,95,100.0
5627,B2,508.5,0.25,95,100.0
5628,E1,509.0,1.0,95,100.0
5629,G#3,509.0,0.5,127,100.0
5630,G3,509.0,0.25,95,100.0
5631,G#2,509.0,0.25,95,100.0
5632,C3,509.0,0.25,95,100.0
5633,F3,509.0,0.25,95,100.0
5634,E2,509.0,0.25,95,100.0
5635,G#3,509.5,1.0,127,100.0
5636,G#2,509.5,0.25,95,100.0
5637,B2,509.5,0.25,95,100.0
5638,E1,510.0,0.5,95,100.0
5639,C#4,510.0,2.0,95,100.0
5640,A3,510.0,2.0,95,100.0
5641,E3,510.0,2.0,95,100.0
5642,B3,510.0,2.0,95,100.0
5643,F#3,510.0,2.0,95,100.0
5644,B2,510.0,2.0,95,100.0
5645,G3,510.0,0.25,95,100.0
5646,G#2,510.0,0.25,95,100.0
5647,B2,510.0,0.25,95,100.0
5648,F2,510.0,0.25,95,100.0
5649,F3,510.0,0.25,95,100.0
5650,E1,510.5,0.5,95,100.0
5651,F#3,510.5,1.0,127,100.0
5652,G#2,510.5,0.25,95,100.0
5653,B2,510.5,0.25,95,100.0
5654,E1,511.0,0.5,95,100.0
5655,G3,511.0,0.25,95,100.0
5656,G#2,511.0,0.25,95,100.0
5657,C3,511.0,0.25,95,100.0
5658,E2,511.0,0.25,95,100.0
5659,F3,511.0,0.25,95,100.0
5660,E1,511.5,0.5,95,100.0
5661,F#3,511.5,0.5,127,100.0
5662,B-2,511.5,0.25,95,100.0
5663,G#2,511.5,0.25,95,100.0
5664,B2,511.5,0.25,95,100.0
5665,A1,512.0,1.0,95,100.0
5666,A3,512.0,0.5,127,100.0
5667,B3,512.0,2.0,95,100.0
5668,F#3,512.0,2.0,95,100.0
5669,E-3,512.0,2.0,95,100.0
5670,E3,512.0,4.0,95,100.0
5671,B2,512.0,4.0,95,100.0
5672,E2,512.0,4.0,95,100.0
5673,F#4,512.0,2.0,127,100.0
5674,C#4,512.0,2.0,127,100.0
5675,E-3,512.0,0.25,95,100.0
5676,G3,512.0,0.25,95,100.0
5677,G#2,512.0,0.25,95,100.0
5678,B2,512.0,0.25,95,100.0
5679,F3,512.0,0.25,95,100.0
5680,F2,512.0,0.25,95,100.0
5681,A3,512.5,0.5,127,100.0
5682,G#2,512.5,0.25,95,100.0
5683,B2,512.5,0.25,95,100.0
5684,A1,513.0,1.0,95,100.0
5685,B3,513.0,0.5,127,100.0
5686,G3,513.0,0.25,95,100.0
5687,G#2,513.0,0.25,95,100.0
5688,C3,513.0,0.25,95,100.0
5689,F3,513.0,0.25,95,100.0
5690,E2,513.0,0.25,95,100.0
5691,A3,513.5,1.0,127,100.0
5692,G#2,513.5,0.25,95,100.0
5693,B2,513.5,0.25,95,100.0
5694,C#2,514.0,0.5,95,100.0
5695,G#4,514.0,0.5,127,100.0
5696,B3,514.0,4.0,95,100.0
5697,G#3,514.0,4.0,95,100.0
5698,E3,514.0,4.0,95,100.0
5699,G3,514.0,0.25,95,100.0
5700,G#2,514.0,0.25,95,100.0
5701,B2,514.0,0.25,95,100.0
5702,F2,514.0,0.25,95,100.0
5703,F3,514.0,0.25,95,100.0
5704,B1,514.5,0.5,95,100.0
5705,F#4,514.5,0.5,127,100.0
5706,G#3,514.5,1.0,127,100.0
5707,G#2,514.5,0.25,95,100.0
5708,B2,514.5,0.25,95,100.0
5709,C#2,515.0,0.5,95,100.0
5710,E4,515.0,0.25,127,100.0
5711,G3,515.0,0.25,95,100.0
5712,G#2,515.0,0.25,95,100.0
5713,C3,515.0,0.25,95,100.0
5714,E2,515.0,0.25,95,100.0
5715,F3,515.0,0.25,95,100.0
5716,F#4,515.25,0.75,127,100.0
5717,B1,515.5,0.5,95,100.0
5718,E3,515.5,0.5,127,100.0
5719,B-2,515.5,0.25,95,100.0
5720,G#2,515.5,0.25,95,100.0
5721,B2,515.5,0.25,95,100.0
5722,E1,516.0,1.0,95,100.0
5723,G#3,516.0,0.5,127,100.0
5724,A3,516.0,2.0,95,100.0
5725,E3,516.0,2.0,95,100.0
5726,A2,516.0,2.0,95,100.0
5727,G#4,516.0,4.0,127,100.0
5728,E4,516.0,4.0,127,100.0
5729,E-3,516.0,0.25,95,100.0
5730,G3,516.0,0.25,95,100.0
5731,G#2,516.0,0.25,95,100.0
5732,B2,516.0,0.25,95,100.0
5733,F3,516.0,0.25,95,100.0
5734,F2,516.0,0.25,95,100.0
5735,G#3,516.5,0.5,127,100.0
5736,G#2,516.5,0.25,95,100.0
5737,B2,516.5,0.25,95,100.0
5738,E1,517.0,1.0,95,100.0
5739,G#3,517.0,0.5,127,100.0
5740,G3,517.0,0.25,95,100.0
5741,G#2,517.0,0.25,95,100.0
5742,C3,517.0,0.25,95,100.0
5743,F3,517.0,0.25,95,100.0
5744,E2,517.0,0.25,95,100.0
5745,G#3,517.5,1.0,127,100.0
5746,G#2,517.5,0.25,95,100.0
5747,B2,517.5,0.25,95,100.0
5748,E1,518.0,0.5,95,100.0
5749,C#4,518.0,2.0,95,100.0
5750,A3,518.0,2.0,95,100.0
5751,E3,518.0,2.0,95,100.0
5752,B3,518.0,2.0,95,100.0
5753,F#3,518.0,2.0,95,100.0
5754,B2,518.0,2.0,95,100.0
5755,G3,518.0,0.25,95,100.0
5756,G#2,518.0,0.25,95,100.0
5757,B2,518.0,0.25,95,100.0
5758,F2,518.0,0.25,95,100.0
5759,F3,518.0,0.25,95,100.0
5760,E1,518.5,0.5,95,100.0
5761,F#3,518.5,1.0,127,100.0
5762,G#2,518.5,0.25,95,100.0
5763,B2,518.5,0.25,95,100.0
5764,E1,519.0,0.5,95,100.0
5765,G3,519.0,0.25,95,100.0
5766,G#2,519.0,0.25,95,100.0
5767,C3,519.0,0.25,95,100.0
5768,E2,519.0,0.25,95,100.0
5769,F3,519.0,0.25,95,100.0
5770,E1,519.5,0.5,95,100.0
5771,F#3,519.5,0.5,127,100.0
5772,B-2,519.5,0.25,95,100.0
5773,G#2,519.5,0.25,95,100.0
5774,B2,519.5,0.25,95,100.0
5775,A1,520.0,1.0,95,100.0
5776,A3,520.0,0.5,127,100.0
5777,B3,520.0,2.0,95,100.0
5778,F#3,520.0,2.0,95,100.0
5779,E-3,520.0,2.0,95,100.0
5780,E3,520.0,4.0,95,100.0
5781,B2,520.0,4.0,95,100.0
5782,E2,520.0,4.0,95,100.0
5783,F#4,520.0,2.0,127,100.0
5784,C#4,520.0,2.0,127,100.0
5785,E-3,520.0,0.25,95,100.0
5786,G3,520.0,0.25,95,100.0
5787,G#2,520.0,0.25,95,100.0
5788,B2,520.0,0.25,95,100.0
5789,F3,520.0,0.25,95,100.0
5790,F2,520.0,0.25,95,100.0
5791,A3,520.5,0.5,127,100.0
5792,G#2,520.5,0.25,95,100.0
5793,B2,520.5,0.25,95,100.0
5794,A1,521.0,1.0,95,100.0
5795,B3,521.0,0.5,127,100.0
5796,G3,521.0,0.25,95,100.0
5797,G#2,521.0,0.25,95,100.0
5798,C3,521.0,0.25,95,100.0
5799,F3,521.0,0.25,95,100.0
5800,E2,521.0,0.25,95,100.0
5801,A3,521.5,1.0,127,100.0
5802,G#2,521.5,0.25,95,100.0
5803,B2,521.5,0.25,95,100.0
5804,C#2,522.0,0.5,95,100.0
5805,G#4,522.0,0.5,127,100.0
5806,B3,522.0,4.0,95,100.0
5807,G#3,522.0,4.0,95,100.0
5808,E3,522.0,4.0,95,100.0
5809,G3,522.0,0.25,95,100.0
5810,G#2,522.0,0.25,95,100.0
5811,B2,522.0,0.25,95,100.0
5812,F2,522.0,0.25,95,100.0
5813,F3,522.0,0.25,95,100.0
5814,B1,522.5,0.5,95,100.0
5815,F#4,522.5,0.5,127,100.0
5816,G#3,522.5,1.0,127,100.0
5817,G#2,522.5,0.25,95,100.0
5818,B2,522.5,0.25,95,100.0
5819,C#2,523.0,0.5,95,100.0
5820,E4,523.0,0.25,127,100.0
5821,G3,523.0,0.25,95,100.0
5822,G#2,523.0,0.25,95,100.0
5823,C3,523.0,0.25,95,100.0
5824,E2,523.0,0.25,95,100.0
5825,F3,523.0,0.25,95,100.0
5826,F#4,523.25,0.75,127,100.0
5827,B1,523.5,0.5,95,100.0
5828,E3,523.5,0.5,127,100.0
5829,A5,523.5,0.5,95,100.0
5830,B-2,523.5,0.5,95,100.0
5831,G#2,523.5,0.5,95,100.0
5832,B2,523.5,0.5,95,100.0
5833,G#3,524.0,0.5,95,100.0
5834,A3,524.0,2.0,95,100.0
5835,E3,524.0,2.0,95,100.0
5836,A2,524.0,2.0,95,100.0
5837,B3,524.0,4.0,95,100.0
5838,E4,524.0,4.0,95,100.0
5839,C#3,524.0,0.5,95,100.0
5840,A5,524.0,0.5,95,100.0
5841,E5,524.0,0.5,95,100.0
5842,G#3,524.5,0.5,95,100.0
5843,F5,524.5,0.5,95,100.0
5844,G#3,525.0,0.5,95,100.0
5845,A5,525.0,0.5,95,100.0
5846,E5,525.0,0.5,95,100.0
5847,G#3,525.5,1.0,127,100.0
5848,F5,525.5,0.5,95,100.0
5849,C#4,526.0,2.0,95,100.0
5850,A3,526.0,2.0,95,100.0
5851,E3,526.0,2.0,95,100.0
5852,B3,526.0,2.0,95,100.0
5853,F#3,526.0,2.0,95,100.0
5854,B2,526.0,2.0,95,100.0
5855,A5,526.0,0.5,95,100.0
5856,E5,526.0,0.5,95,100.0
5857,F#3,526.5,1.0,127,100.0
5858,F5,526.5,0.5,95,100.0
5859,A5,527.0,0.5,95,100.0
5860,E5,527.0,0.5,95,100.0
5861,F#3,527.5,0.5,127,100.0
5862,F5,527.5,0.5,95,100.0
5863,A3,528.0,0.5,127,100.0
5864,B3,528.0,2.0,95,100.0
5865,F#3,528.0,2.0,95,100.0
5866,E-3,528.0,2.0,95,100.0
5867,E3,528.0,4.0,95,100.0
5868,B2,528.0,4.0,95,100.0
5869,E2,528.0,4.0,95,100.0
5870,A5,528.0,0.5,95,100.0
5871,E5,528.0,0.5,95,100.0
5872,A3,528.5,0.5,127,100.0
5873,F5,528.5,0.5,95,100.0
5874,B3,529.0,0.5,127,100.0
5875,A5,529.0,0.5,95,100.0
5876,E5,529.0,0.5,95,100.0
5877,A3,529.5,1.0,127,100.0
5878,F5,529.5,0.5,95,100.0
5879,B3,530.0,4.0,95,100.0
5880,G#3,530.0,4.0,95,100.0
5881,E3,530.0,4.0,95,100.0
5882,A5,530.0,0.5,95,100.0
5883,E5,530.0,0.5,95,100.0
5884,G#3,530.5,1.5,127,100.0
5885,F5,530.5,0.5,95,100.0
5886,A5,531.0,0.5,95,100.0
5887,E5,531.0,0.5,95,100.0
5888,F5,531.5,0.5,95,100.0
5889,A3,532.0,2.0,95,100.0
5890,E3,532.0,2.0,95,100.0
5891,A2,532.0,2.0,95,100.0
5892,A5,532.0,0.5,95,100.0
5893,E-5,532.0,0.5,95,100.0
5894,C#4,534.0,2.0,95,100.0
5895,A3,534.0,2.0,95,100.0
5896,E3,534.0,2.0,95,100.0
5897,B3,534.0,2.0,95,100.0
5898,F#3,534.0,2.0,95,100.0
5899,B2,534.0,2.0,95,100.0
5900,B3,536.0,2.0,95,100.0
5901,F#3,536.0,2.0,95,100.0
5902,E-3,536.0,2.0,95,100.0
5903,B3,538.0,4.0,95,100.0
5904,G#3,538.0,4.0,95,100.0
5905,E3,538.0,4.0,95,100.0
5906,E4,542.0,2.0,95,100.0
5907,C#4,542.0,2.0,95,100.0
5908,A3,542.0,2.0,95,100.0
5909,F#4,544.0,2.0,95,100.0
5910,E-4,544.0,2.0,95,100.0
5911,B3,544.0,2.0,95,100.0
5912,B3,546.0,4.0,95,100.0
5913,G#3,546.0,4.0,95,100.0
5914,E3,546.0,4.0,95,100.0
5915,E4,550.0,2.0,95,100.0
5916,C#4,550.0,2.0,95,100.0
5917,A3,550.0,2.0,95,100.0
5918,F#4,552.0,2.0,95,100.0
5919,E-4,552.0,2.0,95,100.0
5920,B3,552.0,2.0,95,100.0
5921,B3,554.0,4.0,95,100.0
5922,G#3,554.0,4.0,95,100.0
5923,E3,554.0,4.0,95,100.0
5924,E4,558.0,2.0,95,100.0
5925,C#4,558.0,2.0,95,100.0
5926,A3,558.0,2.0,95,100.0
5927,F#4,560.0,2.0,95,100.0
5928,E-4,560.0,2.0,95,100.0
5929,B3,560.0,2.0,95,100.0
5930,B3,562.0,4.0,95,100.0
5931,G#3,562.0,4.0,95,100.0
5932,E3,562.0,4.0,95,100.0
5933,E4,566.0,2.0,95,100.0
5934,C#4,566.0,2.0,95,100.0
5935,A3,566.0,2.0,95,100.0
5936,F#4,568.0,2.0,95,100.0
5937,E-4,568.0,2.0,95,100.0
5938,B3,568.0,2.0,95,100.0
5939,B3,568.0,4.0,95,100.0
5940,E4,568.0,4.0,95,100.0
5941,B3,608.0,4.0,95,100.0
5942,E4,608.0,4.0,95,100.0
5943,B3,644.0,4.0,95,100.0
5944,E4,644.0,4.0,95,100.0
5945,B3,676.0,4.0,95,100.0
5946,E4,676.0,4.0,95,100.0
5947,B3,704.0,4.0,95,100.0
5948,E4,704.0,4.0,95,100.0
5949,B3,728.0,4.0,95,100.0
5950,E4,728.0,4.0,95,100.0
5951,B3,748.0,4.0,95,100.0
5952,E4,748.0,4.0,95,100.0
5953,B3,764.0,4.0,95,100.0
5954,E4,764.0,4.0,95,100.0
5955,B3,776.0,4.0,95,100.0
5956,E4,776.0,4.0,95,100.0
5957,B3,784.0,4.0,95,100.0
5958,E4,784.0,4.0,95,100.0
5959,E4,788.0,4.0,95,100.0
5960,A4,792.0,2.0,95,100.0
5961,B4,794.0,2.0,95,100.0
5962,E4,796.0,4.0,95,100.0
5963,A4,800.0,2.0,95,100.0
5964,B4,802.0,2.0,95,100.0
5965,E4,804.0,4.0,95,100.0
5966,A4,808.0,2.0,95,100.0
5967,B4,810.0,2.0,95,100.0
5968,E4,812.0,4.0,95,100.0
5969,A4,816.0,2.0,95,100.0
5970,B4,818.0,2.0,95,100.0
5971,E4,820.0,4.0,95,100.0
5972,A4,824.0,2.0,95,100.0
5973,B4,826.0,2.0,95,100.0
5974,E4,828.0,4.0,95,100.0
5975,A4,832.0,2.0,95,100.0
5976,B4,834.0,2.0,95,100.0
5977,E4,836.0,4.0,95,100.0
5978,A4,840.0,2.0,95,100.0
5979,B4,842.0,2.0,95,100.0
5980,E4,844.0,4.0,95,100.0
5981,A4,848.0,2.0,95,100.0
5982,B4,850.0,2.0,95,100.0
5983,G#4,852.0,4.0,95,100.0
5984,B4,852.0,4.0,95,100.0
5985,E5,852.0,4.0,95,100.0
5986,G#4,884.0,4.0,95,100.0
5987,B4,884.0,4.0,95,100.0
5988,E5,884.0,4.0,95,100.0
5989,G#4,912.0,4.0,95,100.0
5990,B4,912.0,4.0,95,100.0
5991,E5,912.0,4.0,95,100.0
5992,G#4,936.0,4.0,95,100.0
5993,B4,936.0,4.0,95,100.0
5994,E5,936.0,4.0,95,100.0
5995,G#4,956.0,4.0,95,100.0
5996,B4,956.0,4.0,95,100.0
5997,E5,956.0,4.0,95,100.0
5998,G#4,972.0,4.0,95,100.0
5999,B4,972.0,4.0,95,100.0
6000,E5,972.0,4.0,95,100.0
6001,G#4,984.0,4.0,95,100.0
6002,B4,984.0,4.0,95,100.0
6003,E5,984.0,4.0,95,100.0
6004,G#4,992.0,4.0,95,100.0
6005,B4,992.0,4.0,95,100.0
6006,E5,992.0,4.0,95,100.0
