,note_name,start_time,duration,velocity,tempo
0,G1,7.5,0.25,70,109.0
1,E2,7.5,0.25,79,109.0
2,B-4,7.5,233/1000,73,109.0
3,D4,7.5,233/1000,73,109.0
4,F4,7.5,233/1000,73,109.0
5,B-4,7.5,0.25,99,109.0
6,D4,7.5,0.25,99,109.0
7,F4,7.5,0.25,99,109.0
8,G1,7.75,0.25,70,109.0
9,E2,7.75,0.25,80,109.0
10,B-4,7.75,233/1000,73,109.0
11,D4,7.75,233/1000,73,109.0
12,F4,7.75,233/1000,73,109.0
13,B-4,7.75,0.25,99,109.0
14,D4,7.75,0.25,99,109.0
15,F4,7.75,0.25,99,109.0
16,F#2,8.0,0.25,70,109.0
17,F#2,8.25,0.25,50,109.0
18,G1,8.5,333/1000,70,109.0
19,C2,8.5,0.5,67,109.0
20,F#2,8.5,0.25,47,109.0
21,F4,8.5,167/1000,69,109.0
22,D4,8.5,167/1000,69,109.0
23,B-3,8.5,167/1000,69,109.0
24,F4,8.5,167/1000,99,109.0
25,D4,8.5,167/1000,99,109.0
26,B-3,8.5,167/1000,99,109.0
27,F#2,8.75,0.25,47,109.0
28,F#2,9.0,0.25,70,109.0
29,E2,9.0,0.5,79,109.0
30,A1,9.25,333/1000,70,109.0
31,C2,9.25,0.5,67,109.0
32,F#2,9.25,0.25,70,109.0
33,G4,9.25,167/1000,69,109.0
34,E4,9.25,167/1000,69,109.0
35,C4,9.25,167/1000,69,109.0
36,G4,9.25,167/1000,99,109.0
37,E4,9.25,167/1000,99,109.0
38,C4,9.25,167/1000,99,109.0
39,F#2,9.5,0.25,47,109.0
40,F#2,9.75,0.25,47,109.0
41,B-1,10.0,333/1000,70,109.0
42,C2,10.0,0.5,67,109.0
43,F#2,10.0,0.25,70,109.0
44,A4,10.0,167/1000,69,109.0
45,F4,10.0,167/1000,69,109.0
46,D4,10.0,167/1000,69,109.0
47,A4,10.0,167/1000,99,109.0
48,F4,10.0,167/1000,99,109.0
49,D4,10.0,167/1000,99,109.0
50,F#2,10.25,0.25,50,109.0
51,F#2,10.5,0.25,50,109.0
52,A5,10.5,1.5,50,109.0
53,B-4,10.5,1.5,50,109.0
54,D5,10.5,1.5,50,109.0
55,F5,10.5,1.5,50,109.0
56,F#2,10.75,0.25,50,109.0
57,C3,11.0,79/500,82,109.0
58,F#2,11.0,0.25,70,109.0
59,E2,11.0,0.5,82,109.0
60,D3,11.25,217/1000,74,109.0
61,F#2,11.25,0.25,50,109.0
62,F3,11.492,3/20,56,109.0
63,F#2,11.5,0.25,50,109.0
64,F3,11.75,3/20,71,109.0
65,C2,11.75,0.25,67,109.0
66,F#2,11.75,0.25,50,109.0
67,C2,12.0,0.25,67,109.0
68,F#2,12.0,0.25,70,109.0
69,A5,12.0,4.0,50,109.0
70,B-4,12.0,4.0,50,109.0
71,D5,12.0,4.0,50,109.0
72,F5,12.0,4.0,50,109.0
73,F3,12.25,183/1000,85,109.0
74,F#2,12.25,0.25,50,109.0
75,F#2,12.5,0.25,50,109.0
76,F#2,12.75,0.25,51,109.0
77,F#2,13.0,0.25,70,109.0
78,E2,13.0,0.5,80,109.0
79,F3,13.008,233/1000,66,109.0
80,F#2,13.25,0.25,50,109.0
81,F#2,13.5,0.25,51,109.0
82,F3,13.75,7/40,66,109.0
83,C2,13.75,0.25,67,109.0
84,F#2,13.75,0.25,51,109.0
85,C2,14.0,0.25,67,109.0
86,F#2,14.0,0.25,70,109.0
87,F3,14.25,1/5,74,109.0
88,F#2,14.25,0.25,51,109.0
89,D3,14.5,0.25,62,109.0
90,F#2,14.5,0.25,50,109.0
91,F#2,14.75,0.25,52,109.0
92,F3,15.0,1/5,69,109.0
93,F#2,15.0,0.25,70,109.0
94,E2,15.0,0.5,80,109.0
95,G3,15.25,24/125,65,109.0
96,F#2,15.25,0.25,48,109.0
97,G1,15.5,0.25,70,109.0
98,F#2,15.5,0.25,48,109.0
99,E2,15.5,0.25,76,109.0
100,B-3,15.5,0.25,69,109.0
101,D4,15.5,0.25,69,109.0
102,F4,15.5,0.25,69,109.0
103,B-3,15.5,0.25,99,109.0
104,D4,15.5,0.25,99,109.0
105,F4,15.5,0.25,99,109.0
106,G1,15.75,0.25,70,109.0
107,F#2,15.75,0.25,49,109.0
108,E2,15.75,0.25,79,109.0
109,B-3,15.75,0.25,69,109.0
110,D4,15.75,0.25,69,109.0
111,F4,15.75,0.25,69,109.0
112,B-3,15.75,0.25,99,109.0
113,D4,15.75,0.25,99,109.0
114,F4,15.75,0.25,99,109.0
115,F#2,16.0,0.25,70,109.0
116,F#2,16.25,0.25,48,109.0
117,G1,16.5,333/1000,70,109.0
118,C2,16.5,0.5,67,109.0
119,F#2,16.5,0.25,53,109.0
120,B-3,16.5,167/1000,69,109.0
121,D4,16.5,167/1000,69,109.0
122,F4,16.5,167/1000,69,109.0
123,B-3,16.5,167/1000,99,109.0
124,D4,16.5,167/1000,99,109.0
125,F4,16.5,167/1000,99,109.0
126,F#2,16.75,0.25,55,109.0
127,F#2,17.0,0.25,70,109.0
128,A1,17.25,333/1000,70,109.0
129,C2,17.25,0.5,67,109.0
130,F#2,17.25,0.25,49,109.0
131,E4,17.25,167/1000,69,109.0
132,C4,17.25,167/1000,69,109.0
133,G4,17.25,167/1000,69,109.0
134,E4,17.25,167/1000,99,109.0
135,C4,17.25,167/1000,99,109.0
136,G4,17.25,167/1000,99,109.0
137,F#2,17.5,0.25,50,109.0
138,F#2,17.75,0.25,51,109.0
139,B-1,18.0,333/1000,70,109.0
140,C2,18.0,0.5,67,109.0
141,F#2,18.0,0.25,70,109.0
142,B-3,18.0,167/1000,69,109.0
143,D4,18.0,167/1000,69,109.0
144,F4,18.0,167/1000,69,109.0
145,B-3,18.0,167/1000,99,109.0
146,D4,18.0,167/1000,99,109.0
147,F4,18.0,167/1000,99,109.0
148,F#2,18.25,0.25,47,109.0
149,F#2,18.5,0.25,47,109.0
150,A4,18.5,1.5,50,109.0
151,D5,18.5,1.5,50,109.0
152,F5,18.5,1.5,50,109.0
153,F#2,18.75,0.25,51,109.0
154,C3,19.0,167/1000,63,109.0
155,F#2,19.0,0.25,70,109.0
156,E2,19.0,0.5,79,109.0
157,D3,19.25,27/250,50,109.0
158,F#2,19.25,0.25,49,109.0
159,F3,19.5,121/500,69,109.0
160,F#2,19.5,233/1000,51,109.0
161,C2,19.75,0.25,67,109.0
162,F#2,19.75,0.25,50,109.0
163,C4,20.0,1/5,70,109.0
164,C2,20.0,0.25,67,109.0
165,F#2,20.0,0.25,70,109.0
166,A4,20.0,4.0,50,109.0
167,D5,20.0,4.0,50,109.0
168,F5,20.0,4.0,50,109.0
169,F#2,20.25,0.25,55,109.0
170,A3,20.5,167/1000,62,109.0
171,F#2,20.5,0.25,52,109.0
172,F#2,20.75,0.25,49,109.0
173,F#2,21.0,0.25,70,109.0
174,E2,21.0,0.5,80,109.0
175,C4,21.008,1/5,67,109.0
176,D4,21.25,167/1000,59,109.0
177,F#2,21.25,0.25,44,109.0
178,F#2,21.5,0.25,49,109.0
179,C4,21.75,79/500,56,109.0
180,C2,21.75,0.25,67,109.0
181,F#2,21.75,0.25,46,109.0
182,C2,22.0,0.25,67,109.0
183,F#2,22.0,0.25,70,109.0
184,C4,22.25,7/40,61,109.0
185,F#2,22.25,0.25,49,109.0
186,A3,22.5,1/5,62,109.0
187,F#2,22.5,0.25,46,109.0
188,F#2,22.75,0.25,47,109.0
189,C4,23.0,183/1000,61,109.0
190,F#2,23.0,0.25,70,109.0
191,E2,23.0,0.5,77,109.0
192,D4,23.25,3/20,47,109.0
193,F#2,23.25,0.25,49,109.0
194,G1,23.5,0.25,70,109.0
195,F#2,23.5,0.25,44,109.0
196,E2,23.5,0.25,83,109.0
197,B-4,23.5,167/1000,73,109.0
198,D4,23.5,167/1000,73,109.0
199,F4,23.5,167/1000,73,109.0
200,B-4,23.5,167/1000,99,109.0
201,D4,23.5,167/1000,99,109.0
202,F4,23.5,167/1000,99,109.0
203,G1,23.75,0.25,70,109.0
204,F#2,23.75,0.25,50,109.0
205,E2,23.75,121/500,82,109.0
206,D4,23.75,167/1000,73,109.0
207,B-4,23.75,167/1000,73,109.0
208,F4,23.75,167/1000,73,109.0
209,D4,23.75,167/1000,99,109.0
210,B-4,23.75,167/1000,99,109.0
211,F4,23.75,167/1000,99,109.0
212,F#2,24.0,0.25,70,109.0
213,F#2,24.25,0.25,48,109.0
214,G1,24.5,333/1000,70,109.0
215,C2,24.5,0.5,67,109.0
216,F#2,24.5,0.25,48,109.0
217,B-3,24.5,167/1000,69,109.0
218,D4,24.5,167/1000,69,109.0
219,F4,24.5,167/1000,69,109.0
220,B-3,24.5,167/1000,99,109.0
221,D4,24.5,167/1000,99,109.0
222,F4,24.5,167/1000,99,109.0
223,F#2,24.75,0.25,49,109.0
224,F#2,25.0,0.25,70,109.0
225,A1,25.25,333/1000,70,109.0
226,C2,25.25,0.5,67,109.0
227,F#2,25.25,0.25,50,109.0
228,C4,25.25,167/1000,69,109.0
229,E4,25.25,167/1000,69,109.0
230,G4,25.25,167/1000,69,109.0
231,C4,25.25,167/1000,99,109.0
232,E4,25.25,167/1000,99,109.0
233,G4,25.25,167/1000,99,109.0
234,F#2,25.5,0.25,47,109.0
235,F#2,25.75,0.25,49,109.0
236,B-1,26.0,333/1000,70,109.0
237,C2,26.0,0.5,67,109.0
238,F#2,26.0,0.25,70,109.0
239,D4,26.0,167/1000,69,109.0
240,F4,26.0,167/1000,69,109.0
241,A4,26.0,167/1000,69,109.0
242,D4,26.0,167/1000,99,109.0
243,F4,26.0,167/1000,99,109.0
244,A4,26.0,167/1000,99,109.0
245,F#2,26.25,0.25,48,109.0
246,F#2,26.5,0.25,49,109.0
247,A5,26.5,1.5,50,109.0
248,B-4,26.5,1.5,50,109.0
249,D5,26.5,1.5,50,109.0
250,F5,26.5,1.5,50,109.0
251,F#2,26.75,0.25,50,109.0
252,G3,27.0,79/500,63,109.0
253,F#2,27.0,0.25,70,109.0
254,E2,27.0,0.5,81,109.0
255,F#2,27.25,0.25,49,109.0
256,A3,27.267,133/1000,54,109.0
257,C4,27.5,7/40,62,109.0
258,F#2,27.5,0.25,45,109.0
259,C2,27.75,0.25,67,109.0
260,F#2,27.75,0.25,45,109.0
261,C4,27.758,167/1000,55,109.0
262,C2,28.0,0.25,67,109.0
263,F#2,28.0,0.25,70,109.0
264,A5,28.0,4.0,50,109.0
265,B-4,28.0,4.0,50,109.0
266,D5,28.0,4.0,50,109.0
267,F5,28.0,4.0,50,109.0
268,F#2,28.25,0.25,44,109.0
269,G3,28.5,27/250,50,109.0
270,F#2,28.5,0.25,49,109.0
271,A3,28.75,183/1000,56,109.0
272,F#2,28.75,233/1000,50,109.0
273,F#2,29.0,0.25,70,109.0
274,E2,29.0,0.5,81,109.0
275,C4,29.017,7/40,66,109.0
276,F#2,29.25,0.25,48,109.0
277,C4,29.258,79/500,69,109.0
278,F#2,29.5,0.25,46,109.0
279,C2,29.75,0.25,67,109.0
280,F#2,29.75,0.25,48,109.0
281,G3,30.0,3/20,56,109.0
282,C2,30.0,0.25,67,109.0
283,F#2,30.0,0.25,70,109.0
284,A3,30.25,167/1000,47,109.0
285,F#2,30.25,0.25,47,109.0
286,C4,30.5,1/5,60,109.0
287,F#2,30.5,0.25,47,109.0
288,C4,30.75,117/1000,62,109.0
289,F#2,30.75,0.25,47,109.0
290,F#2,31.0,0.25,70,109.0
291,E2,31.0,0.5,80,109.0
292,F#2,31.25,0.25,47,109.0
293,F#2,31.5,0.25,55,109.0
294,E2,31.5,0.25,79,109.0
295,C4,31.617,24/125,70,109.0
296,F#2,31.75,0.25,50,109.0
297,E2,31.75,0.25,80,109.0
298,D4,31.858,71/500,72,109.0
299,C2,32.0,1.0,80,109.0
300,D4,32.0,23/250,72,109.0
301,C2,32.0,1.0,67,109.0
302,C#3,32.0,1.0,62,109.0
303,F4,32.0,1.0,60,109.0
304,D4,32.0,1.0,60,109.0
305,B-3,32.0,1.0,60,109.0
306,F4,32.15,33/40,92,109.0
307,D2,33.0,1.0,80,109.0
308,C2,33.0,1.0,67,109.0
309,A3,33.0,1.0,62,109.0
310,G4,33.0,1.0,60,109.0
311,E4,33.0,1.0,60,109.0
312,C4,33.0,1.0,60,109.0
313,G4,33.075,983/1000,96,109.0
314,E2,34.0,1.0,80,109.0
315,C2,34.0,1.0,67,109.0
316,C#3,34.0,1.0,62,109.0
317,A4,34.0,1.0,60,109.0
318,F#4,34.0,1.0,60,109.0
319,D4,34.0,1.0,60,109.0
320,A4,34.167,33/40,95,109.0
321,F#2,35.0,1.0,80,109.0
322,C2,35.0,1.0,67,109.0
323,A3,35.0,1.0,62,109.0
324,B4,35.0,1.0,60,109.0
325,G#4,35.0,1.0,60,109.0
326,E4,35.0,1.0,60,109.0
327,B4,35.133,867/1000,97,109.0
328,G#2,36.0,1.0,80,109.0
329,B4,36.0,67/1000,97,109.0
330,C2,36.0,1.0,67,109.0
331,C#3,36.0,1.0,62,109.0
332,C#5,36.0,1.0,60,109.0
333,B-4,36.0,1.0,60,109.0
334,F#4,36.0,1.0,60,109.0
335,C#5,36.142,33/40,96,109.0
336,B-2,37.0,1.0,80,109.0
337,C2,37.0,1.0,67,109.0
338,A3,37.0,1.0,62,109.0
339,E-5,37.0,1.0,60,109.0
340,C5,37.0,1.0,60,109.0
341,G#4,37.0,1.0,60,109.0
342,E-5,37.117,4/5,98,109.0
343,B2,38.0,1.0,80,109.0
344,C2,38.0,1.0,67,109.0
345,C#3,38.0,1.0,62,109.0
346,E5,38.0,1.0,60,109.0
347,C#5,38.0,1.0,60,109.0
348,A4,38.0,1.0,60,109.0
349,E5,38.133,421/500,104,109.0
350,C#3,39.0,1.0,80,109.0
351,C2,39.0,1.0,67,109.0
352,A3,39.0,1.0,62,109.0
353,F#5,39.0,1.0,60,109.0
354,E-5,39.0,1.0,60,109.0
355,B4,39.0,1.0,60,109.0
356,F#5,39.083,33/40,89,109.0
357,D2,40.0,0.5,80,109.0
358,C2,40.0,0.25,67,109.0
359,F#2,40.0,0.25,70,109.0
360,G4,40.0,583/1000,77,109.0
361,C4,40.0,583/1000,77,109.0
362,E4,40.0,583/1000,77,109.0
363,G5,40.0,4.0,60,109.0
364,E5,40.0,4.0,60,109.0
365,C5,40.0,4.0,60,109.0
366,C5,40.0,4.0,60,109.0
367,E5,40.0,4.0,60,109.0
368,G5,40.0,4.0,60,109.0
369,G5,40.15,1579/500,106,109.0
370,B-2,40.5,0.25,70,109.0
371,D2,40.75,0.25,80,109.0
372,G4,40.75,1/10,69,109.0
373,C4,40.75,1/10,69,109.0
374,E4,40.75,1/10,69,109.0
375,A1,41.0,0.25,80,109.0
376,C2,41.0,0.25,67,109.0
377,F2,41.0,0.25,72,109.0
378,F#2,41.5,0.25,70,109.0
379,G4,41.5,27/250,68,109.0
380,C4,41.5,27/250,68,109.0
381,E4,41.5,27/250,68,109.0
382,F#2,41.75,0.25,70,109.0
383,C2,42.0,0.25,67,109.0
384,B-2,42.5,0.25,70,109.0
385,G4,42.5,1/10,76,109.0
386,C4,42.5,1/10,76,109.0
387,E4,42.5,1/10,76,109.0
388,A1,43.0,0.25,80,109.0
389,C2,43.0,0.25,67,109.0
390,F2,43.0,0.25,72,109.0
391,C2,43.25,0.5,80,109.0
392,A4,43.25,533/1000,74,109.0
393,D4,43.25,229/500,75,109.0
394,F#4,43.25,229/500,75,109.0
395,F#2,43.5,0.25,70,109.0
396,D2,44.0,0.5,80,109.0
397,C2,44.0,0.25,67,109.0
398,F#2,44.0,0.25,70,109.0
399,G4,44.0,583/1000,77,109.0
400,C4,44.0,583/1000,77,109.0
401,E4,44.0,583/1000,77,109.0
402,B-2,44.5,0.25,70,109.0
403,D5,44.525,2383/1000,81,109.0
404,D2,44.75,0.25,80,109.0
405,G4,44.75,1/10,69,109.0
406,C4,44.75,1/10,69,109.0
407,E4,44.75,1/10,69,109.0
408,A1,45.0,0.25,80,109.0
409,C2,45.0,0.25,67,109.0
410,F2,45.0,0.25,72,109.0
411,F#2,45.5,0.25,70,109.0
412,G4,45.5,27/250,68,109.0
413,C4,45.5,27/250,68,109.0
414,E4,45.5,27/250,68,109.0
415,F#2,45.75,0.25,70,109.0
416,C2,46.0,0.25,67,109.0
417,B-2,46.5,0.25,70,109.0
418,G4,46.5,1/10,76,109.0
419,C4,46.5,1/10,76,109.0
420,E4,46.5,1/10,76,109.0
421,A1,47.0,0.25,80,109.0
422,C2,47.0,0.25,67,109.0
423,F2,47.0,0.25,72,109.0
424,C5,47.1,9/10,73,109.0
425,C2,47.25,0.5,80,109.0
426,A3,47.25,533/1000,64,109.0
427,D4,47.25,229/500,74,109.0
428,F#4,47.25,229/500,74,109.0
429,F#2,47.5,0.25,70,109.0
430,D2,48.0,0.5,80,109.0
431,C5,48.0,83/1000,73,109.0
432,C2,48.0,0.25,67,109.0
433,F#2,48.0,0.25,70,109.0
434,G4,48.0,583/1000,77,109.0
435,C4,48.0,583/1000,77,109.0
436,E4,48.0,583/1000,77,109.0
437,A4,48.142,1579/500,77,109.0
438,B-2,48.5,0.25,70,109.0
439,D2,48.75,0.25,80,109.0
440,G4,48.75,1/10,69,109.0
441,C4,48.75,1/10,69,109.0
442,E4,48.75,1/10,69,109.0
443,A1,49.0,0.25,80,109.0
444,C2,49.0,0.25,67,109.0
445,F2,49.0,0.25,72,109.0
446,F#2,49.5,0.25,70,109.0
447,G4,49.5,27/250,68,109.0
448,C4,49.5,27/250,68,109.0
449,E4,49.5,27/250,68,109.0
450,F#2,49.75,0.25,70,109.0
451,C2,50.0,0.25,67,109.0
452,B-2,50.5,0.25,70,109.0
453,G4,50.5,1/10,76,109.0
454,C4,50.5,1/10,76,109.0
455,E4,50.5,1/10,76,109.0
456,A1,51.0,0.25,80,109.0
457,C2,51.0,0.25,67,109.0
458,F2,51.0,0.25,72,109.0
459,C2,51.25,0.5,80,109.0
460,A4,51.25,533/1000,74,109.0
461,D4,51.25,229/500,74,109.0
462,F#4,51.25,229/500,74,109.0
463,F#2,51.5,0.25,70,109.0
464,D2,52.0,0.5,80,109.0
465,C2,52.0,0.25,67,109.0
466,F#2,52.0,0.25,70,109.0
467,G4,52.0,583/1000,77,109.0
468,C4,52.0,583/1000,77,109.0
469,E4,52.0,583/1000,77,109.0
470,B-2,52.5,0.25,70,109.0
471,D2,52.75,0.25,80,109.0
472,G4,52.75,1/10,69,109.0
473,C4,52.75,1/10,69,109.0
474,E4,52.75,1/10,69,109.0
475,A1,53.0,0.25,80,109.0
476,C2,53.0,0.25,67,109.0
477,F2,53.0,0.25,72,109.0
478,F#2,53.5,0.25,70,109.0
479,G4,53.5,27/250,68,109.0
480,C4,53.5,27/250,68,109.0
481,E4,53.5,27/250,68,109.0
482,F#2,53.75,0.25,70,109.0
483,C2,54.0,0.25,67,109.0
484,E2,54.0,0.25,72,109.0
485,G5,54.0,4.0,60,109.0
486,E5,54.0,4.0,60,109.0
487,C5,54.0,4.0,60,109.0
488,B-2,54.5,0.25,70,109.0
489,G4,54.5,1/10,76,109.0
490,C4,54.5,1/10,76,109.0
491,E4,54.5,1/10,76,109.0
492,E2,54.75,0.125,52,109.0
493,E2,54.875,0.125,52,109.0
494,A1,55.0,0.25,80,109.0
495,C2,55.0,0.25,67,109.0
496,E2,55.0,0.125,72,109.0
497,A3,55.083,129/500,91,109.0
498,A3,55.25,533/1000,64,109.0
499,E2,55.25,0.125,72,109.0
500,D4,55.25,229/500,74,109.0
501,F#4,55.25,229/500,74,109.0
502,C2,55.5,0.25,80,109.0
503,F#2,55.5,0.25,70,109.0
504,F2,55.5,0.25,72,109.0
505,C4,55.558,183/1000,100,109.0
506,D2,56.0,7/10,80,109.0
507,C4,56.0,19/40,80,109.0
508,C2,56.0,0.25,67,109.0
509,F#2,56.0,0.25,63,109.0
510,E-4,56.0,0.25,50,109.0
511,F3,56.0,0.5,60,109.0
512,A3,56.0,0.5,60,109.0
513,C5,56.0,4.0,60,109.0
514,E5,56.0,4.0,60,109.0
515,G5,56.0,4.0,60,109.0
516,E-4,56.083,229/500,92,109.0
517,F#2,56.5,0.25,63,109.0
518,E-4,56.5,0.25,24,109.0
519,D4,56.6,24/125,86,109.0
520,D2,56.75,1/5,80,109.0
521,E4,56.75,0.25,53,109.0
522,F3,56.75,27/250,61,109.0
523,A3,56.75,27/250,61,109.0
524,C4,56.75,27/250,61,109.0
525,A1,57.0,173/250,80,109.0
526,C2,57.0,0.25,67,109.0
527,F#2,57.0,0.25,63,109.0
528,E2,57.0,0.25,72,109.0
529,E-4,57.0,0.5,39,109.0
530,C4,57.067,7/40,77,109.0
531,F#2,57.5,0.25,63,109.0
532,E4,57.5,0.25,56,109.0
533,F3,57.517,117/1000,67,109.0
534,A3,57.517,117/1000,67,109.0
535,C4,57.517,117/1000,67,109.0
536,A3,57.583,226/125,69,109.0
537,F#2,57.75,0.25,63,109.0
538,D2,58.0,467/1000,80,109.0
539,C2,58.0,0.25,67,109.0
540,F#2,58.0,0.25,63,109.0
541,E-4,58.0,0.25,36,109.0
542,F#2,58.5,0.25,63,109.0
543,E-4,58.5,0.25,27,109.0
544,F3,58.5,27/250,57,109.0
545,A3,58.5,27/250,57,109.0
546,C4,58.5,27/250,57,109.0
547,D2,58.75,1/5,80,109.0
548,E4,58.75,0.25,53,109.0
549,A1,59.0,229/500,80,109.0
550,C2,59.0,0.25,67,109.0
551,F#2,59.0,0.25,63,109.0
552,E2,59.0,0.25,72,109.0
553,E-4,59.0,0.5,48,109.0
554,F3,59.267,117/1000,71,109.0
555,A3,59.267,117/1000,71,109.0
556,C4,59.267,117/1000,71,109.0
557,C2,59.5,9/20,80,109.0
558,F#2,59.5,0.25,63,109.0
559,D4,59.5,0.5,70,109.0
560,C4,59.575,9/40,90,109.0
561,F#2,59.75,0.25,63,109.0
562,D2,60.0,7/10,80,109.0
563,C2,60.0,0.25,67,109.0
564,F#2,60.0,0.25,63,109.0
565,E-4,60.0,0.25,34,109.0
566,F3,60.008,617/1000,79,109.0
567,A3,60.008,617/1000,79,109.0
568,C4,60.008,617/1000,79,109.0
569,E-4,60.067,229/500,81,109.0
570,F#2,60.5,0.25,63,109.0
571,E-4,60.5,0.25,24,109.0
572,D4,60.617,1/5,77,109.0
573,D2,60.75,1/5,80,109.0
574,E4,60.75,0.25,44,109.0
575,F3,60.75,0.125,69,109.0
576,A3,60.75,0.125,69,109.0
577,C4,60.75,0.125,69,109.0
578,A1,61.0,7/10,80,109.0
579,C2,61.0,0.25,67,109.0
580,F#2,61.0,0.25,63,109.0
581,E2,61.0,0.25,72,109.0
582,E-4,61.0,0.5,32,109.0
583,C4,61.075,217/1000,77,109.0
584,F#2,61.5,0.25,63,109.0
585,E4,61.5,0.25,63,109.0
586,F3,61.5,0.125,73,109.0
587,A3,61.5,0.125,73,109.0
588,C4,61.5,0.125,73,109.0
589,A3,61.575,57/40,90,109.0
590,F#2,61.75,0.25,63,109.0
591,D2,62.0,9/20,80,109.0
592,C2,62.0,0.25,67,109.0
593,F#2,62.0,0.25,63,109.0
594,E-4,62.0,0.25,32,109.0
595,F#2,62.5,0.25,63,109.0
596,E-4,62.5,0.25,28,109.0
597,F3,62.5,23/250,80,109.0
598,A3,62.5,23/250,80,109.0
599,C4,62.5,23/250,80,109.0
600,D2,62.75,1/5,80,109.0
601,C2,63.0,467/1000,80,109.0
602,C2,63.0,0.25,67,109.0
603,F#2,63.0,0.25,63,109.0
604,E2,63.0,0.25,72,109.0
605,E-4,63.0,0.25,36,109.0
606,C4,63.1,49/125,91,109.0
607,F3,63.25,27/250,76,109.0
608,A3,63.25,27/250,76,109.0
609,C4,63.25,27/250,76,109.0
610,A1,63.5,229/500,80,109.0
611,F#2,63.5,0.25,63,109.0
612,D4,63.5,0.25,70,109.0
613,D4,63.575,217/1000,90,109.0
614,F#2,63.75,0.25,63,109.0
615,B-1,64.0,7/10,80,109.0
616,C2,64.0,0.25,67,109.0
617,F#2,64.0,0.25,63,109.0
618,E-4,64.0,0.25,39,109.0
619,G5,64.0,4.0,60,109.0
620,E5,64.0,4.0,60,109.0
621,C5,64.0,4.0,60,109.0
622,F3,64.058,567/1000,67,109.0
623,A3,64.058,567/1000,67,109.0
624,D4,64.058,567/1000,67,109.0
625,G#3,64.067,49/125,80,109.0
626,F#2,64.5,0.25,63,109.0
627,E-4,64.5,0.25,18,109.0
628,G3,64.583,121/500,81,109.0
629,B-1,64.75,1/5,80,109.0
630,E4,64.75,0.25,32,109.0
631,A3,64.783,27/250,64,109.0
632,F3,64.783,27/250,64,109.0
633,D4,64.783,27/250,64,109.0
634,F1,65.0,9/20,80,109.0
635,C2,65.0,0.25,67,109.0
636,F#2,65.0,0.25,63,109.0
637,E2,65.0,0.25,72,109.0
638,E-4,65.0,0.5,32,109.0
639,F3,65.033,23/250,75,109.0
640,F#2,65.5,0.25,63,109.0
641,E4,65.5,0.25,53,109.0
642,A3,65.5,71/500,56,109.0
643,F3,65.5,71/500,56,109.0
644,D4,65.5,71/500,56,109.0
645,D3,65.558,1817/1000,86,109.0
646,F#2,65.75,0.25,63,109.0
647,B-1,66.0,229/500,80,109.0
648,C2,66.0,0.25,67,109.0
649,F#2,66.0,0.25,63,109.0
650,E-4,66.0,0.25,32,109.0
651,F#2,66.5,0.25,63,109.0
652,E-4,66.5,0.25,18,109.0
653,F3,66.5,27/250,63,109.0
654,A3,66.5,27/250,63,109.0
655,D4,66.5,27/250,63,109.0
656,B-1,66.75,1/5,80,109.0
657,E4,66.75,0.25,56,109.0
658,F1,67.0,229/500,80,109.0
659,C2,67.0,0.25,67,109.0
660,F#2,67.0,0.25,63,109.0
661,E2,67.0,0.25,72,109.0
662,E-4,67.0,0.5,56,109.0
663,F3,67.25,23/250,69,109.0
664,A3,67.25,23/250,69,109.0
665,D4,67.25,23/250,69,109.0
666,G#1,67.5,9/20,80,109.0
667,F#2,67.5,0.25,63,109.0
668,D4,67.5,0.5,63,109.0
669,D3,67.517,26/125,86,109.0
670,F#2,67.75,0.25,63,109.0
671,F3,67.775,217/1000,79,109.0
672,B-1,68.0,177/250,80,109.0
673,C2,68.0,0.25,67,109.0
674,F#2,68.0,0.25,63,109.0
675,E-4,68.0,0.25,32,109.0
676,C5,68.0,4.0,60,109.0
677,E5,68.0,4.0,60,109.0
678,G5,68.0,4.0,60,109.0
679,A3,68.033,3/5,85,109.0
680,F3,68.033,3/5,85,109.0
681,D4,68.033,3/5,85,109.0
682,A3,68.058,11/40,68,109.0
683,F#2,68.5,0.25,63,109.0
684,E-4,68.5,0.25,27,109.0
685,G3,68.525,26/125,78,109.0
686,B-1,68.75,217/1000,80,109.0
687,E4,68.75,0.25,32,109.0
688,C4,68.75,0.25,56,109.0
689,G3,68.75,0.25,56,109.0
690,E3,68.75,0.25,56,109.0
691,F3,68.983,7/40,85,109.0
692,F1,69.0,229/500,80,109.0
693,C2,69.0,0.25,67,109.0
694,F#2,69.0,0.25,63,109.0
695,E2,69.0,0.25,72,109.0
696,E-4,69.0,0.25,30,109.0
697,B-3,69.0,0.25,94,109.0
698,D4,69.0,0.25,94,109.0
699,F3,69.0,0.25,94,109.0
700,F#2,69.5,0.25,63,109.0
701,E4,69.5,0.25,26,109.0
702,D3,69.55,79/500,78,109.0
703,G1,69.75,7/10,80,109.0
704,F#2,69.75,0.25,63,109.0
705,E2,69.75,0.25,72,109.0
706,F3,69.75,0.5,68,109.0
707,B-3,69.75,0.5,68,109.0
708,D4,69.75,0.5,68,109.0
709,B-3,69.75,0.75,94,109.0
710,D4,69.75,0.75,94,109.0
711,F3,69.75,0.75,94,109.0
712,F3,69.808,0.75,103,109.0
713,C2,70.0,0.25,67,109.0
714,B-2,70.0,0.25,70,109.0
715,E-4,70.0,0.25,26,109.0
716,G5,70.0,2.0,60,109.0
717,E5,70.0,2.0,60,109.0
718,C5,70.0,2.0,60,109.0
719,A1,70.5,217/1000,80,109.0
720,G3,70.5,0.25,68,109.0
721,C4,70.5,0.25,68,109.0
722,E4,70.5,0.25,68,109.0
723,C4,70.5,0.25,94,109.0
724,E4,70.5,0.25,94,109.0
725,A3,70.5,0.25,94,109.0
726,G3,70.608,26/125,86,109.0
727,A1,71.0,467/1000,80,109.0
728,C2,71.0,0.25,67,109.0
729,E2,71.0,0.25,72,109.0
730,A3,71.083,129/500,91,109.0
731,C2,71.5,229/500,80,109.0
732,C2,71.5,0.25,67,109.0
733,F#2,71.5,0.25,63,109.0
734,C4,71.558,183/1000,100,109.0
735,F#2,71.75,0.25,63,109.0
736,D2,72.0,7/10,80,109.0
737,C4,72.0,19/40,80,109.0
738,C2,72.0,0.25,67,109.0
739,F#2,72.0,0.25,63,109.0
740,E-4,72.0,0.25,53,109.0
741,F3,72.0,0.5,60,109.0
742,A3,72.0,0.5,60,109.0
743,E-4,72.083,229/500,92,109.0
744,F#2,72.5,0.25,63,109.0
745,E-4,72.5,0.25,26,109.0
746,D4,72.6,24/125,86,109.0
747,D2,72.75,1/5,80,109.0
748,E4,72.75,0.25,53,109.0
749,F3,72.75,27/250,61,109.0
750,A3,72.75,27/250,61,109.0
751,C4,72.75,27/250,61,109.0
752,A1,73.0,173/250,80,109.0
753,C2,73.0,0.25,67,109.0
754,F#2,73.0,0.25,63,109.0
755,E2,73.0,0.25,72,109.0
756,E-4,73.0,0.5,36,109.0
757,C4,73.067,7/40,77,109.0
758,F#2,73.5,0.25,63,109.0
759,E4,73.5,0.5,50,109.0
760,F3,73.517,117/1000,67,109.0
761,A3,73.517,117/1000,67,109.0
762,C4,73.517,117/1000,67,109.0
763,A3,73.583,226/125,69,109.0
764,F#2,73.75,0.25,63,109.0
765,D2,74.0,467/1000,80,109.0
766,C2,74.0,0.25,67,109.0
767,F#2,74.0,0.25,63,109.0
768,E-4,74.0,0.25,28,109.0
769,F#2,74.5,0.25,63,109.0
770,E-4,74.5,0.25,28,109.0
771,F3,74.5,27/250,57,109.0
772,A3,74.5,27/250,57,109.0
773,C4,74.5,27/250,57,109.0
774,D2,74.75,1/5,80,109.0
775,E4,74.75,0.25,56,109.0
776,A1,75.0,229/500,80,109.0
777,C2,75.0,0.25,67,109.0
778,F#2,75.0,0.25,63,109.0
779,E2,75.0,0.25,72,109.0
780,E-4,75.0,0.5,48,109.0
781,F3,75.267,117/1000,71,109.0
782,A3,75.267,117/1000,71,109.0
783,C4,75.267,117/1000,71,109.0
784,C2,75.5,9/20,80,109.0
785,F#2,75.5,0.25,63,109.0
786,D4,75.5,0.5,63,109.0
787,C4,75.575,9/40,90,109.0
788,F#2,75.75,0.25,63,109.0
789,D2,76.0,7/10,80,109.0
790,C2,76.0,0.25,67,109.0
791,F#2,76.0,0.25,63,109.0
792,E-4,76.0,0.25,34,109.0
793,C5,76.0,4.0,60,109.0
794,E5,76.0,4.0,60,109.0
795,G5,76.0,4.0,60,109.0
796,F3,76.008,617/1000,79,109.0
797,A3,76.008,617/1000,79,109.0
798,C4,76.008,617/1000,79,109.0
799,E-4,76.067,229/500,81,109.0
800,F#2,76.5,0.25,63,109.0
801,E-4,76.5,0.25,25,109.0
802,D4,76.617,1/5,77,109.0
803,D2,76.75,1/5,80,109.0
804,E4,76.75,0.25,50,109.0
805,F3,76.75,0.125,69,109.0
806,A3,76.75,0.125,69,109.0
807,C4,76.75,0.125,69,109.0
808,A1,77.0,7/10,80,109.0
809,C2,77.0,0.25,67,109.0
810,F#2,77.0,0.25,63,109.0
811,E2,77.0,0.25,72,109.0
812,E-4,77.0,0.5,34,109.0
813,C4,77.075,217/1000,77,109.0
814,F#2,77.5,0.25,63,109.0
815,E4,77.5,0.5,56,109.0
816,F3,77.5,0.125,73,109.0
817,A3,77.5,0.125,73,109.0
818,C4,77.5,0.125,73,109.0
819,A3,77.575,57/40,90,109.0
820,F#2,77.75,0.25,63,109.0
821,D2,78.0,9/20,80,109.0
822,C2,78.0,0.25,67,109.0
823,F#2,78.0,0.25,63,109.0
824,E-4,78.0,0.25,39,109.0
825,F#2,78.5,0.25,63,109.0
826,E-4,78.5,0.25,27,109.0
827,F3,78.5,23/250,80,109.0
828,A3,78.5,23/250,80,109.0
829,C4,78.5,23/250,80,109.0
830,D2,78.75,1/5,80,109.0
831,E4,78.75,0.25,56,109.0
832,C2,79.0,467/1000,80,109.0
833,C2,79.0,0.25,67,109.0
834,F#2,79.0,0.25,63,109.0
835,E2,79.0,0.25,72,109.0
836,E-4,79.0,0.5,36,109.0
837,C4,79.1,49/125,91,109.0
838,F3,79.25,27/250,76,109.0
839,A3,79.25,27/250,76,109.0
840,C4,79.25,27/250,76,109.0
841,A1,79.5,229/500,80,109.0
842,F#2,79.5,0.25,63,109.0
843,D4,79.5,0.5,63,109.0
844,D4,79.575,217/1000,90,109.0
845,F#2,79.75,0.25,63,109.0
846,B-1,80.0,7/10,80,109.0
847,C2,80.0,0.25,67,109.0
848,F#2,80.0,0.25,63,109.0
849,E-4,80.0,0.25,28,109.0
850,F3,80.058,567/1000,67,109.0
851,A3,80.058,567/1000,67,109.0
852,D4,80.058,567/1000,67,109.0
853,G#3,80.067,49/125,80,109.0
854,F#2,80.5,0.25,63,109.0
855,E-4,80.5,0.25,28,109.0
856,G3,80.583,121/500,81,109.0
857,B-1,80.75,1/5,80,109.0
858,A3,80.783,27/250,64,109.0
859,F3,80.783,27/250,64,109.0
860,D4,80.783,27/250,64,109.0
861,F1,81.0,9/20,80,109.0
862,C2,81.0,0.25,67,109.0
863,F#2,81.0,0.25,63,109.0
864,E2,81.0,0.25,72,109.0
865,E4,81.0,0.25,32,109.0
866,E-4,81.0,0.5,32,109.0
867,F3,81.033,23/250,75,109.0
868,F#2,81.5,0.25,63,109.0
869,E4,81.5,0.25,56,109.0
870,A3,81.5,71/500,56,109.0
871,F3,81.5,71/500,56,109.0
872,D4,81.5,71/500,56,109.0
873,D3,81.558,1817/1000,86,109.0
874,F#2,81.75,0.25,63,109.0
875,B-1,82.0,229/500,80,109.0
876,C2,82.0,0.25,67,109.0
877,F#2,82.0,0.25,63,109.0
878,E-4,82.0,0.25,27,109.0
879,F#2,82.5,0.25,63,109.0
880,E-4,82.5,0.25,26,109.0
881,F3,82.5,27/250,63,109.0
882,A3,82.5,27/250,63,109.0
883,D4,82.5,27/250,63,109.0
884,B-1,82.75,1/5,80,109.0
885,E4,82.75,0.25,53,109.0
886,F1,83.0,229/500,80,109.0
887,C2,83.0,0.25,67,109.0
888,F#2,83.0,0.25,63,109.0
889,E2,83.0,0.25,72,109.0
890,E-4,83.0,0.5,44,109.0
891,F3,83.25,23/250,69,109.0
892,A3,83.25,23/250,69,109.0
893,D4,83.25,23/250,69,109.0
894,G#1,83.5,9/20,80,109.0
895,F#2,83.5,0.25,63,109.0
896,D4,83.5,0.5,63,109.0
897,D3,83.517,26/125,86,109.0
898,F#2,83.75,0.25,63,109.0
899,F3,83.775,217/1000,79,109.0
900,G4,84.0,0.0,77,109.0
901,B-1,84.0,177/250,80,109.0
902,C2,84.0,0.25,67,109.0
903,F#2,84.0,0.25,63,109.0
904,E-4,84.0,0.25,36,109.0
905,A3,84.033,3/5,85,109.0
906,F3,84.033,3/5,85,109.0
907,D4,84.033,3/5,85,109.0
908,A3,84.058,11/40,68,109.0
909,F#2,84.5,0.25,63,109.0
910,E-4,84.5,0.25,26,109.0
911,G3,84.525,26/125,78,109.0
912,B-1,84.75,217/1000,80,109.0
913,E4,84.75,0.25,48,109.0
914,C4,84.75,0.25,56,109.0
915,G3,84.75,0.25,56,109.0
916,E3,84.75,0.25,56,109.0
917,F1,85.0,229/500,80,109.0
918,C2,85.0,0.25,67,109.0
919,F#2,85.0,0.25,63,109.0
920,E2,85.0,0.25,72,109.0
921,E-4,85.0,0.5,39,109.0
922,F3,85.017,121/500,84,109.0
923,F#3,85.292,129/500,66,109.0
924,F#2,85.5,0.25,63,109.0
925,E4,85.5,0.25,50,109.0
926,D3,85.592,1867/1000,90,109.0
927,G1,85.75,7/10,80,109.0
928,F#2,85.75,0.25,63,109.0
929,F3,85.75,0.5,68,109.0
930,B-3,85.75,0.5,68,109.0
931,D4,85.75,0.5,68,109.0
932,F#2,86.0,0.25,63,109.0
933,E2,86.0,0.25,72,109.0
934,E-4,86.0,0.25,34,109.0
935,A1,86.5,217/1000,80,109.0
936,F#2,86.5,0.25,63,109.0
937,E-4,86.5,0.25,30,109.0
938,G3,86.5,0.25,68,109.0
939,C4,86.5,0.25,68,109.0
940,E4,86.5,0.25,68,109.0
941,E2,86.75,0.125,40,109.0
942,E4,86.75,0.25,44,109.0
943,E2,86.875,0.125,40,109.0
944,A1,87.0,467/1000,80,109.0
945,F#2,87.0,0.25,63,109.0
946,E2,87.0,0.25,56,109.0
947,E-4,87.0,0.5,50,109.0
948,F3,87.0,0.25,68,109.0
949,B-3,87.0,0.25,68,109.0
950,D4,87.0,0.25,68,109.0
951,E2,87.25,0.25,72,109.0
952,C2,87.5,229/500,80,109.0
953,F#2,87.5,0.25,63,109.0
954,G2,87.5,0.25,80,109.0
955,D4,87.5,0.25,63,109.0
956,C3,87.6,167/1000,77,109.0
957,F#2,87.75,0.25,63,109.0
958,D3,87.817,183/1000,74,109.0
959,G1,88.0,177/250,80,109.0
960,D3,88.0,23/250,74,109.0
961,C2,88.0,0.25,67,109.0
962,F#2,88.0,0.25,63,109.0
963,C#3,88.0,1.0,66,109.0
964,E-4,88.0,0.25,28,109.0
965,B-3,88.0,1.5,63,109.0
966,D4,88.0,1.5,63,109.0
967,F3,88.0,1.5,63,109.0
968,F3,88.058,417/1000,85,109.0
969,B-2,88.5,0.25,70,109.0
970,E-4,88.5,0.25,28,109.0
971,G3,88.558,24/125,70,109.0
972,G1,89.0,229/500,80,109.0
973,E2,89.0,0.25,64,109.0
974,E4,89.0,0.25,32,109.0
975,E-4,89.0,0.5,32,109.0
976,A3,89.025,79/500,88,109.0
977,A1,89.5,151/125,80,109.0
978,C2,89.5,0.25,67,109.0
979,F#2,89.5,0.25,63,109.0
980,E4,89.5,0.25,56,109.0
981,C4,89.5,2.0,55,109.0
982,G3,89.5,2.0,55,109.0
983,E4,89.5,2.0,55,109.0
984,C4,89.567,917/1000,96,109.0
985,F#2,89.75,0.25,63,109.0
986,C2,90.0,0.25,67,109.0
987,E-4,90.0,0.25,27,109.0
988,B-2,90.5,0.25,70,109.0
989,E-4,90.5,0.25,26,109.0
990,D4,90.558,167/1000,99,109.0
991,E4,90.75,0.25,53,109.0
992,A1,91.0,229/500,80,109.0
993,E2,91.0,0.25,64,109.0
994,E-4,91.0,0.5,44,109.0
995,F4,91.025,3/20,100,109.0
996,B-1,91.5,0.5,80,109.0
997,C2,91.5,0.25,67,109.0
998,F#2,91.5,0.25,63,109.0
999,D4,91.5,0.5,63,109.0
1000,F4,91.5,0.5,63,109.0
1001,A3,91.5,0.5,63,109.0
1002,D4,91.5,0.5,63,109.0
1003,G4,91.567,433/1000,107,109.0
1004,B-1,92.0,177/250,80,109.0
1005,G4,92.0,21/40,107,109.0
1006,C2,92.0,0.25,67,109.0
1007,F#2,92.0,0.25,63,109.0
1008,E-4,92.0,0.25,36,109.0
1009,B-2,92.5,0.25,70,109.0
1010,E-4,92.5,0.25,26,109.0
1011,F4,92.567,0.375,75,109.0
1012,E4,92.75,0.25,48,109.0
1013,B-1,93.0,229/500,80,109.0
1014,E2,93.0,0.25,64,109.0
1015,E-4,93.0,0.5,39,109.0
1016,D4,93.05,183/1000,81,109.0
1017,C2,93.5,479/500,80,109.0
1018,C2,93.5,0.25,67,109.0
1019,F#2,93.5,0.25,63,109.0
1020,E4,93.5,0.25,50,109.0
1021,F4,93.5,1.5,63,109.0
1022,A3,93.5,1.5,63,109.0
1023,D4,93.5,1.5,63,109.0
1024,C4,93.558,9/10,80,109.0
1025,F#2,93.75,0.25,63,109.0
1026,C2,94.0,0.25,67,109.0
1027,E-4,94.0,0.25,34,109.0
1028,B-2,94.5,0.25,70,109.0
1029,E-4,94.5,0.25,30,109.0
1030,D4,94.575,77/250,89,109.0
1031,E4,94.75,0.25,44,109.0
1032,E2,95.0,0.25,64,109.0
1033,E-4,95.0,0.5,50,109.0
1034,F4,95.0,2.0,60,109.0
1035,B-3,95.0,2.0,60,109.0
1036,C4,95.0,2.0,60,109.0
1037,G3,95.0,2.0,60,109.0
1038,F3,95.067,267/1000,72,109.0
1039,D2,95.5,0.5,80,109.0
1040,C2,95.5,0.25,67,109.0
1041,F#2,95.5,0.25,63,109.0
1042,C#3,95.5,0.5,66,109.0
1043,D4,95.5,0.25,63,109.0
1044,D3,95.558,33/1000,80,109.0
1045,G#3,95.617,383/1000,80,109.0
1046,D2,96.0,151/125,80,109.0
1047,G#3,96.0,2.75,80,109.0
1048,C2,96.0,0.25,67,109.0
1049,F#2,96.0,0.25,63,109.0
1050,E-4,96.0,0.25,28,109.0
1051,B-2,96.5,0.25,70,109.0
1052,E-4,96.5,0.25,28,109.0
1053,E2,97.0,0.25,64,109.0
1054,E4,97.0,0.25,32,109.0
1055,E-4,97.0,0.5,32,109.0
1056,D3,97.5,7/40,61,109.0
1057,C2,97.5,0.25,67,109.0
1058,F#2,97.5,0.25,63,109.0
1059,E4,97.5,0.25,56,109.0
1060,C#4,97.5,76/125,60,109.0
1061,F#4,97.5,76/125,60,109.0
1062,A3,97.5,76/125,60,109.0
1063,D3,97.5,76/125,60,109.0
1064,E3,97.75,217/1000,57,109.0
1065,F#2,97.75,0.25,63,109.0
1066,D3,98.0,9/40,62,109.0
1067,C2,98.0,0.25,67,109.0
1068,E-4,98.0,0.25,27,109.0
1069,C#4,98.267,27/250,60,109.0
1070,F#4,98.267,27/250,60,109.0
1071,A3,98.267,27/250,60,109.0
1072,D3,98.275,27/250,61,109.0
1073,F#4,98.275,27/250,61,109.0
1074,A3,98.275,27/250,61,109.0
1075,A2,98.5,9/40,47,109.0
1076,B-2,98.5,0.25,70,109.0
1077,E-4,98.5,0.25,26,109.0
1078,B2,98.75,1/5,56,109.0
1079,E4,98.75,0.25,53,109.0
1080,A2,99.0,483/1000,80,109.0
1081,E2,99.0,0.25,64,109.0
1082,E-4,99.0,0.5,44,109.0
1083,C#4,99.042,27/250,52,109.0
1084,F#4,99.042,27/250,52,109.0
1085,A3,99.042,27/250,52,109.0
1086,D3,99.042,27/250,59,109.0
1087,F#4,99.042,27/250,59,109.0
1088,A3,99.042,27/250,59,109.0
1089,A1,99.5,233/1000,80,109.0
1090,C2,99.5,0.25,67,109.0
1091,F#2,99.5,0.25,63,109.0
1092,D4,99.5,0.5,63,109.0
1093,D2,100.0,151/125,80,109.0
1094,C2,100.0,0.25,67,109.0
1095,F#2,100.0,0.25,63,109.0
1096,E-4,100.0,0.25,36,109.0
1097,F#4,100.033,0.125,48,109.0
1098,D3,100.033,0.125,48,109.0
1099,C#4,100.033,0.125,48,109.0
1100,A3,100.033,0.125,48,109.0
1101,F#2,100.5,0.25,63,109.0
1102,E-4,100.5,0.25,26,109.0
1103,C2,100.75,0.25,67,109.0
1104,E4,100.75,0.25,48,109.0
1105,C#4,100.775,79/500,54,109.0
1106,F#4,100.775,79/500,54,109.0
1107,A3,100.775,79/500,54,109.0
1108,D3,100.775,79/500,54,109.0
1109,F#2,101.0,0.25,63,109.0
1110,E2,101.0,0.25,72,109.0
1111,E-4,101.0,0.5,39,109.0
1112,D3,101.5,24/125,62,109.0
1113,C2,101.5,0.25,67,109.0
1114,F#2,101.5,0.25,63,109.0
1115,E4,101.5,0.25,50,109.0
1116,F#4,101.5,617/1000,67,109.0
1117,C#4,101.5,617/1000,67,109.0
1118,A3,101.5,617/1000,67,109.0
1119,D3,101.5,617/1000,67,109.0
1120,E3,101.75,1/5,61,109.0
1121,F#2,101.75,0.25,63,109.0
1122,D3,102.0,1/5,60,109.0
1123,F#2,102.0,0.25,63,109.0
1124,E2,102.0,0.25,72,109.0
1125,E-4,102.0,0.25,34,109.0
1126,C#4,102.242,0.125,56,109.0
1127,F#4,102.242,0.125,56,109.0
1128,A3,102.242,0.125,56,109.0
1129,D3,102.258,0.125,64,109.0
1130,A3,102.258,0.125,64,109.0
1131,A2,102.5,26/125,62,109.0
1132,F#2,102.5,0.25,63,109.0
1133,E-4,102.5,0.25,30,109.0
1134,B2,102.75,26/125,63,109.0
1135,E2,102.75,0.125,40,109.0
1136,E4,102.75,0.25,44,109.0
1137,E2,102.875,0.125,40,109.0
1138,A2,103.0,19/40,64,109.0
1139,F#2,103.0,0.25,63,109.0
1140,E2,103.0,0.25,56,109.0
1141,E-4,103.0,0.5,50,109.0
1142,F#4,103.017,79/500,57,109.0
1143,C#4,103.017,79/500,57,109.0
1144,A3,103.017,79/500,57,109.0
1145,D3,103.017,79/500,57,109.0
1146,E2,103.25,0.25,72,109.0
1147,D1,103.5,9/40,80,109.0
1148,F#2,103.5,0.25,63,109.0
1149,G2,103.5,0.25,80,109.0
1150,D4,103.5,0.25,63,109.0
1151,A2,103.558,217/1000,89,109.0
1152,E1,103.75,9/40,80,109.0
1153,F#2,103.75,0.25,63,109.0
1154,D3,103.75,71/500,63,109.0
1155,A3,103.75,71/500,63,109.0
1156,C#4,103.75,71/500,63,109.0
1157,F#4,103.75,71/500,63,109.0
1158,B2,103.817,183/1000,80,109.0
1159,G1,104.0,177/250,80,109.0
1160,B2,104.0,21/500,80,109.0
1161,C2,104.0,0.25,67,109.0
1162,F#2,104.0,0.25,63,109.0
1163,A3,104.0,0.5,66,109.0
1164,E-4,104.0,0.25,28,109.0
1165,D3,104.075,433/1000,99,109.0
1166,B-2,104.5,0.25,70,109.0
1167,E-4,104.5,0.25,28,109.0
1168,C#4,104.542,79/500,59,109.0
1169,F#4,104.542,79/500,59,109.0
1170,A3,104.542,79/500,59,109.0
1171,D3,104.558,26/125,80,109.0
1172,E3,104.567,9/40,123,109.0
1173,G1,105.0,229/500,80,109.0
1174,E2,105.0,0.25,64,109.0
1175,E4,105.0,0.25,32,109.0
1176,E-4,105.0,0.5,32,109.0
1177,F3,105.083,221/500,90,109.0
1178,F#1,105.5,151/125,80,109.0
1179,C2,105.5,0.25,67,109.0
1180,F#2,105.5,0.25,63,109.0
1181,E4,105.5,0.25,56,109.0
1182,G3,105.5,1.5,61,109.0
1183,B3,105.5,1.5,61,109.0
1184,D4,105.5,1.5,61,109.0
1185,F#4,105.5,1.5,61,109.0
1186,A3,105.592,867/1000,92,109.0
1187,F#2,105.75,0.25,63,109.0
1188,C2,106.0,0.25,67,109.0
1189,E-4,106.0,0.25,27,109.0
1190,B-2,106.5,0.25,70,109.0
1191,E-4,106.5,0.25,26,109.0
1192,B3,106.533,0.25,127,109.0
1193,E4,106.75,0.25,53,109.0
1194,F#1,107.0,229/500,80,109.0
1195,E2,107.0,0.25,64,109.0
1196,E-4,107.0,0.5,44,109.0
1197,A3,107.0,2.0,67,109.0
1198,C#4,107.0,2.0,67,109.0
1199,F#3,107.0,2.0,67,109.0
1200,E4,107.0,2.0,67,109.0
1201,D4,107.042,183/1000,89,109.0
1202,F1,107.5,0.5,80,109.0
1203,C2,107.5,0.25,67,109.0
1204,F#2,107.5,0.25,63,109.0
1205,D4,107.5,0.5,63,109.0
1206,E4,107.542,229/500,104,109.0
1207,F1,108.0,177/250,80,109.0
1208,E4,108.0,11/20,104,109.0
1209,C2,108.0,0.25,67,109.0
1210,F#2,108.0,0.25,63,109.0
1211,E-4,108.0,0.25,36,109.0
1212,B-2,108.5,0.25,70,109.0
1213,E-4,108.5,0.25,26,109.0
1214,D4,108.592,367/1000,93,109.0
1215,E4,108.75,0.25,48,109.0
1216,F1,109.0,229/500,80,109.0
1217,E2,109.0,0.25,64,109.0
1218,E-4,109.0,0.5,39,109.0
1219,F3,109.0,0.5,63,109.0
1220,E4,109.0,0.5,63,109.0
1221,A3,109.0,0.5,63,109.0
1222,C4,109.0,0.5,63,109.0
1223,C4,109.075,221/500,81,109.0
1224,B-1,109.5,1.125,80,109.0
1225,C2,109.5,0.25,67,109.0
1226,F#2,109.5,0.25,63,109.0
1227,E4,109.5,0.25,50,109.0
1228,D4,109.575,833/1000,117,109.0
1229,F#2,109.75,0.25,63,109.0
1230,C2,110.0,0.25,67,109.0
1231,E-4,110.0,0.25,34,109.0
1232,B-2,110.5,0.25,70,109.0
1233,E-4,110.5,0.25,30,109.0
1234,F4,110.517,467/1000,83,109.0
1235,E4,110.75,0.25,44,109.0
1236,B-1,111.0,26/125,80,109.0
1237,E2,111.0,0.25,64,109.0
1238,E-4,111.0,0.5,50,109.0
1239,F3,111.0,1.5,63,109.0
1240,E4,111.0,1.5,63,109.0
1241,A3,111.0,1.5,63,109.0
1242,C4,111.0,1.5,63,109.0
1243,D4,111.042,3/5,101,109.0
1244,A1,111.5,229/500,80,109.0
1245,C2,111.5,0.25,67,109.0
1246,F#2,111.5,0.25,63,109.0
1247,D4,111.5,0.25,63,109.0
1248,G#4,111.542,117/1000,89,109.0
1249,A4,111.658,171/500,81,109.0
1250,A1,112.0,0.25,80,109.0
1251,A4,112.0,2667/1000,81,109.0
1252,C2,112.0,0.25,33,109.0
1253,F#2,112.0,0.25,40,109.0
1254,E2,112.0,0.25,40,109.0
1255,A3,112.0,1.0,68,109.0
1256,G2,112.0,0.25,40,109.0
1257,B-4,112.008,323/250,56,109.0
1258,D5,112.008,323/250,56,109.0
1259,F4,112.008,323/250,56,109.0
1260,A1,112.5,0.25,80,109.0
1261,C2,112.5,0.25,37,109.0
1262,F#2,112.5,0.25,45,109.0
1263,E2,112.5,0.25,45,109.0
1264,G2,112.5,0.25,45,109.0
1265,F4,112.5,2.0,60,109.0
1266,A3,112.5,2.0,60,109.0
1267,D4,112.5,2.0,60,109.0
1268,G3,112.5,2.0,60,109.0
1269,A1,113.0,0.25,80,109.0
1270,C2,113.0,0.25,42,109.0
1271,F#2,113.0,0.25,50,109.0
1272,E2,113.0,0.25,50,109.0
1273,G2,113.0,0.25,50,109.0
1274,A1,113.5,0.25,80,109.0
1275,C2,113.5,0.25,46,109.0
1276,F#2,113.5,0.25,55,109.0
1277,E2,113.5,0.25,55,109.0
1278,G2,113.5,0.25,55,109.0
1279,C5,113.533,33/20,56,109.0
1280,E5,113.533,33/20,56,109.0
1281,G4,113.533,33/20,56,109.0
1282,A1,114.0,0.25,80,109.0
1283,C2,114.0,0.25,50,109.0
1284,F#2,114.0,0.25,60,109.0
1285,E2,114.0,0.25,60,109.0
1286,G2,114.0,0.25,60,109.0
1287,A1,114.5,0.25,80,109.0
1288,C2,114.5,0.25,54,109.0
1289,F#2,114.5,0.25,65,109.0
1290,E2,114.5,0.25,65,109.0
1291,G2,114.5,0.25,65,109.0
1292,A1,115.0,0.25,80,109.0
1293,C2,115.0,0.25,59,109.0
1294,F#2,115.0,0.25,70,109.0
1295,E2,115.0,0.25,70,109.0
1296,G2,115.0,0.25,70,109.0
1297,A1,115.5,0.25,80,109.0
1298,E2,115.5,0.25,75,109.0
1299,D5,115.533,467/1000,56,109.0
1300,F5,115.533,467/1000,56,109.0
1301,A4,115.533,467/1000,56,109.0
1302,A1,115.75,0.25,80,109.0
1303,E2,115.75,0.25,77,109.0
1304,D5,116.0,323/250,56,109.0
1305,F5,116.0,323/250,56,109.0
1306,A4,116.0,323/250,56,109.0
1307,A1,116.5,417/1000,80,109.0
1308,C2,116.5,667/1000,62,109.0
1309,B-2,116.5,0.25,75,109.0
1310,E2,116.5,667/1000,75,109.0
1311,F#2,116.75,0.25,75,109.0
1312,G1,117.25,417/1000,80,109.0
1313,C2,117.25,667/1000,62,109.0
1314,B-2,117.25,0.25,75,109.0
1315,E2,117.25,667/1000,75,109.0
1316,F#2,117.5,0.25,75,109.0
1317,C5,117.508,37/20,56,109.0
1318,G4,117.508,37/20,56,109.0
1319,F5,117.508,37/20,56,109.0
1320,A1,118.0,0.5,80,109.0
1321,C2,118.0,667/1000,62,109.0
1322,B-2,118.0,0.25,75,109.0
1323,E2,118.0,0.25,75,109.0
1324,F#2,118.25,0.25,75,109.0
1325,G4,118.5,167/1000,80,109.0
1326,B4,118.5,167/1000,80,109.0
1327,D5,118.5,167/1000,80,109.0
1328,G4,118.75,167/1000,80,109.0
1329,B4,118.75,167/1000,80,109.0
1330,D5,118.75,167/1000,80,109.0
1331,A4,119.083,129/500,81,109.0
1332,G4,119.5,167/1000,80,109.0
1333,B4,119.5,167/1000,80,109.0
1334,D5,119.5,167/1000,80,109.0
1335,C#4,119.5,0.5,56,109.0
1336,F#4,119.5,0.5,56,109.0
1337,A4,119.5,0.5,56,109.0
1338,C5,119.558,183/1000,90,109.0
1339,D2,120.0,633/1000,80,109.0
1340,C2,120.0,0.25,67,109.0
1341,F#2,120.0,0.25,63,109.0
1342,E-4,120.0,0.25,44,109.0
1343,C#4,120.0,4.0,56,109.0
1344,F#4,120.0,4.0,56,109.0
1345,A4,120.0,4.0,56,109.0
1346,E-5,120.083,229/500,82,109.0
1347,F4,120.25,167/1000,80,109.0
1348,A4,120.25,167/1000,80,109.0
1349,C5,120.25,167/1000,80,109.0
1350,F#2,120.5,0.25,63,109.0
1351,E-4,120.5,0.25,21,109.0
1352,D5,120.6,24/125,77,109.0
1353,D2,120.75,1/5,80,109.0
1354,E4,120.75,0.25,47,109.0
1355,A1,121.0,173/250,80,109.0
1356,C2,121.0,0.25,67,109.0
1357,F#2,121.0,0.25,63,109.0
1358,E2,121.0,0.25,72,109.0
1359,E-4,121.0,0.5,36,109.0
1360,G4,121.0,0.25,80,109.0
1361,B4,121.0,0.25,80,109.0
1362,D5,121.0,0.25,80,109.0
1363,C5,121.067,7/40,69,109.0
1364,F#2,121.5,0.25,63,109.0
1365,E4,121.5,0.25,50,109.0
1366,A4,121.583,226/125,62,109.0
1367,F#2,121.75,0.25,63,109.0
1368,D2,122.0,467/1000,80,109.0
1369,C2,122.0,0.25,67,109.0
1370,F#2,122.0,0.25,63,109.0
1371,E-4,122.0,0.25,33,109.0
1372,F#2,122.5,0.25,63,109.0
1373,E-4,122.5,0.25,24,109.0
1374,D2,122.75,1/5,80,109.0
1375,E4,122.75,0.25,47,109.0
1376,A1,123.0,229/500,80,109.0
1377,C4,123.0,19/40,80,109.0
1378,C2,123.0,0.25,67,109.0
1379,F#2,123.0,0.25,63,109.0
1380,E2,123.0,0.25,72,109.0
1381,E-4,123.0,0.5,42,109.0
1382,F3,123.0,0.5,60,109.0
1383,A3,123.0,0.5,60,109.0
1384,C2,123.5,9/20,80,109.0
1385,F#2,123.5,0.25,63,109.0
1386,D4,123.5,0.5,61,109.0
1387,C5,123.575,9/40,81,109.0
1388,F#2,123.75,0.25,63,109.0
1389,F3,123.75,27/250,61,109.0
1390,A3,123.75,27/250,61,109.0
1391,C4,123.75,27/250,61,109.0
1392,D2,124.0,7/10,80,109.0
1393,C2,124.0,0.25,67,109.0
1394,F#2,124.0,0.25,63,109.0
1395,E-4,124.0,0.25,31,109.0
1396,E-5,124.067,229/500,72,109.0
1397,F#2,124.5,0.25,63,109.0
1398,E-4,124.5,0.25,21,109.0
1399,F3,124.517,117/1000,67,109.0
1400,A3,124.517,117/1000,67,109.0
1401,C4,124.517,117/1000,67,109.0
1402,D5,124.617,1/5,69,109.0
1403,D2,124.75,1/5,80,109.0
1404,E4,124.75,0.25,39,109.0
1405,A1,125.0,7/10,80,109.0
1406,C2,125.0,0.25,67,109.0
1407,F#2,125.0,0.25,63,109.0
1408,E2,125.0,0.25,72,109.0
1409,E-4,125.0,0.5,29,109.0
1410,C5,125.075,217/1000,69,109.0
1411,F#2,125.5,0.25,63,109.0
1412,E4,125.5,0.25,56,109.0
1413,F3,125.5,27/250,57,109.0
1414,A3,125.5,27/250,57,109.0
1415,C4,125.5,27/250,57,109.0
1416,A4,125.575,57/40,81,109.0
1417,F#2,125.75,0.25,63,109.0
1418,D2,126.0,9/20,80,109.0
1419,C2,126.0,0.25,67,109.0
1420,F#2,126.0,0.25,63,109.0
1421,E-4,126.0,0.25,29,109.0
1422,F3,126.267,117/1000,71,109.0
1423,A3,126.267,117/1000,71,109.0
1424,C4,126.267,117/1000,71,109.0
1425,F#2,126.5,0.25,63,109.0
1426,E-4,126.5,0.25,25,109.0
1427,D2,126.75,1/5,80,109.0
1428,C2,127.0,467/1000,80,109.0
1429,C2,127.0,0.25,67,109.0
1430,F#2,127.0,0.25,63,109.0
1431,E2,127.0,0.25,72,109.0
1432,E-4,127.0,0.25,33,109.0
1433,F3,127.008,617/1000,79,109.0
1434,A3,127.008,617/1000,79,109.0
1435,C4,127.008,617/1000,79,109.0
1436,C5,127.1,49/125,81,109.0
1437,A1,127.5,229/500,80,109.0
1438,F#2,127.5,0.25,63,109.0
1439,D4,127.5,0.25,61,109.0
1440,D5,127.575,217/1000,81,109.0
1441,F#2,127.75,0.25,63,109.0
1442,F3,127.75,0.125,69,109.0
1443,A3,127.75,0.125,69,109.0
1444,C4,127.75,0.125,69,109.0
1445,B-1,128.0,633/1000,80,109.0
1446,C2,128.0,0.25,67,109.0
1447,F#2,128.0,0.25,63,109.0
1448,E-4,128.0,0.25,36,109.0
1449,C#4,128.0,4.0,56,109.0
1450,F#4,128.0,4.0,56,109.0
1451,A4,128.0,4.0,56,109.0
1452,G#4,128.067,49/125,72,109.0
1453,F#2,128.5,0.25,63,109.0
1454,E-4,128.5,0.25,18,109.0
1455,F3,128.5,0.125,73,109.0
1456,A3,128.5,0.125,73,109.0
1457,C4,128.5,0.125,73,109.0
1458,G4,128.583,121/500,72,109.0
1459,B-1,128.75,1/5,80,109.0
1460,E4,128.75,0.25,29,109.0
1461,F1,129.0,9/20,80,109.0
1462,C2,129.0,0.25,67,109.0
1463,F#2,129.0,0.25,63,109.0
1464,E2,129.0,0.25,72,109.0
1465,E-4,129.0,0.5,29,109.0
1466,F4,129.033,23/250,67,109.0
1467,F#2,129.5,0.25,63,109.0
1468,E4,129.5,0.25,47,109.0
1469,F3,129.5,23/250,80,109.0
1470,A3,129.5,23/250,80,109.0
1471,C4,129.5,23/250,80,109.0
1472,D4,129.558,1817/1000,77,109.0
1473,F#2,129.75,0.25,63,109.0
1474,B-1,130.0,229/500,80,109.0
1475,C2,130.0,0.25,67,109.0
1476,F#2,130.0,0.25,63,109.0
1477,E-4,130.0,0.25,29,109.0
1478,F3,130.25,27/250,76,109.0
1479,A3,130.25,27/250,76,109.0
1480,C4,130.25,27/250,76,109.0
1481,F#2,130.5,0.25,63,109.0
1482,E-4,130.5,0.25,18,109.0
1483,B-1,130.75,1/5,80,109.0
1484,E4,130.75,0.25,50,109.0
1485,F1,131.0,229/500,80,109.0
1486,C2,131.0,0.25,67,109.0
1487,F#2,131.0,0.25,63,109.0
1488,E2,131.0,0.25,72,109.0
1489,E-4,131.0,0.5,50,109.0
1490,F3,131.058,567/1000,67,109.0
1491,A3,131.058,567/1000,67,109.0
1492,D4,131.058,567/1000,67,109.0
1493,G#1,131.5,9/20,80,109.0
1494,F#2,131.5,0.25,63,109.0
1495,D4,131.5,0.5,56,109.0
1496,D4,131.517,26/125,77,109.0
1497,F#2,131.75,0.25,63,109.0
1498,F4,131.775,217/1000,71,109.0
1499,A3,131.783,27/250,64,109.0
1500,F3,131.783,27/250,64,109.0
1501,D4,131.783,27/250,64,109.0
1502,B-1,132.0,26/125,80,109.0
1503,C2,132.0,0.25,67,109.0
1504,F#2,132.0,0.25,63,109.0
1505,E-4,132.0,0.25,29,109.0
1506,B4,132.008,323/250,50,109.0
1507,D5,132.008,323/250,50,109.0
1508,F#5,132.008,323/250,50,109.0
1509,A4,132.058,11/40,61,109.0
1510,B-1,132.5,217/1000,80,109.0
1511,F#2,132.5,0.25,63,109.0
1512,E-4,132.5,0.25,24,109.0
1513,A3,132.5,71/500,56,109.0
1514,F3,132.5,71/500,56,109.0
1515,D4,132.5,71/500,56,109.0
1516,G4,132.525,26/125,70,109.0
1517,E4,132.75,0.25,29,109.0
1518,F4,132.983,7/40,76,109.0
1519,F1,133.0,229/500,80,109.0
1520,C2,133.0,0.25,67,109.0
1521,F#2,133.0,0.25,63,109.0
1522,E2,133.0,0.25,72,109.0
1523,E-4,133.0,0.25,27,109.0
1524,B-3,133.0,0.25,94,109.0
1525,D4,133.0,0.25,94,109.0
1526,F3,133.0,0.25,94,109.0
1527,C#5,133.5,69/40,50,109.0
1528,A4,133.5,33/20,50,109.0
1529,F#2,133.5,0.25,63,109.0
1530,E4,133.5,0.25,23,109.0
1531,F3,133.5,27/250,63,109.0
1532,A3,133.5,27/250,63,109.0
1533,D4,133.5,27/250,63,109.0
1534,B5,133.5,167/1000,80,109.0
1535,D6,133.5,167/1000,80,109.0
1536,G5,133.5,167/1000,80,109.0
1537,D4,133.55,79/500,70,109.0
1538,E5,133.55,1.75,50,109.0
1539,G1,133.75,7/10,80,109.0
1540,F#2,133.75,0.25,63,109.0
1541,E2,133.75,0.25,72,109.0
1542,B5,133.75,167/1000,80,109.0
1543,G5,133.75,167/1000,80,109.0
1544,D6,133.75,167/1000,80,109.0
1545,D4,133.75,0.75,94,109.0
1546,F3,133.75,0.75,94,109.0
1547,B-3,133.75,0.75,94,109.0
1548,F4,133.808,0.75,92,109.0
1549,C2,134.0,0.25,67,109.0
1550,B-2,134.0,0.25,70,109.0
1551,E-4,134.0,0.25,23,109.0
1552,F3,134.25,23/250,69,109.0
1553,A3,134.25,23/250,69,109.0
1554,D4,134.25,23/250,69,109.0
1555,A1,134.5,217/1000,80,109.0
1556,B5,134.5,167/1000,80,109.0
1557,G5,134.5,167/1000,80,109.0
1558,D6,134.5,167/1000,80,109.0
1559,C4,134.5,0.25,94,109.0
1560,E4,134.5,0.25,94,109.0
1561,A3,134.5,0.25,94,109.0
1562,G4,134.608,26/125,77,109.0
1563,A1,135.0,0.375,80,109.0
1564,C2,135.0,0.25,67,109.0
1565,E2,135.0,0.25,72,109.0
1566,A3,135.033,3/5,85,109.0
1567,F3,135.033,3/5,85,109.0
1568,D4,135.033,3/5,85,109.0
1569,A4,135.083,129/500,81,109.0
1570,F5,135.25,167/1000,80,109.0
1571,C6,135.25,167/1000,80,109.0
1572,A5,135.25,167/1000,80,109.0
1573,C2,135.5,51/125,80,109.0
1574,C2,135.5,0.25,67,109.0
1575,F#2,135.5,0.25,63,109.0
1576,E5,135.5,0.5,50,109.0
1577,C5,135.5,0.5,50,109.0
1578,A4,135.5,0.5,50,109.0
1579,C5,135.558,183/1000,90,109.0
1580,F#2,135.75,0.25,63,109.0
1581,C4,135.75,0.25,56,109.0
1582,G3,135.75,0.25,56,109.0
1583,E3,135.75,0.25,56,109.0
1584,D2,136.0,7/10,80,109.0
1585,C2,136.0,0.25,67,109.0
1586,F#2,136.0,0.25,63,109.0
1587,E-4,136.0,0.25,47,109.0
1588,G5,136.0,0.25,80,109.0
1589,D6,136.0,0.25,80,109.0
1590,B5,136.0,0.25,80,109.0
1591,E5,136.0,629/500,50,109.0
1592,C5,136.0,629/500,50,109.0
1593,A4,136.0,629/500,50,109.0
1594,E-5,136.083,229/500,82,109.0
1595,F#2,136.5,0.25,63,109.0
1596,E-4,136.5,0.25,23,109.0
1597,D5,136.6,24/125,77,109.0
1598,D2,136.75,1/5,80,109.0
1599,E4,136.75,0.25,47,109.0
1600,F3,136.75,0.5,68,109.0
1601,B-3,136.75,0.5,68,109.0
1602,D4,136.75,0.5,68,109.0
1603,A1,137.0,173/250,80,109.0
1604,C2,137.0,0.25,67,109.0
1605,F#2,137.0,0.25,63,109.0
1606,E2,137.0,0.25,72,109.0
1607,E-4,137.0,0.5,33,109.0
1608,C5,137.067,7/40,69,109.0
1609,F#2,137.5,0.25,63,109.0
1610,E4,137.5,0.5,44,109.0
1611,G3,137.5,0.25,68,109.0
1612,C4,137.5,0.25,68,109.0
1613,E4,137.5,0.25,68,109.0
1614,A4,137.5,37/20,50,109.0
1615,D5,137.5,37/20,50,109.0
1616,F5,137.5,37/20,50,109.0
1617,A4,137.583,226/125,62,109.0
1618,F#2,137.75,0.25,63,109.0
1619,D2,138.0,467/1000,80,109.0
1620,C2,138.0,0.25,67,109.0
1621,F#2,138.0,0.25,63,109.0
1622,E-4,138.0,0.25,25,109.0
1623,F3,138.0,0.25,68,109.0
1624,B-3,138.0,0.25,68,109.0
1625,D4,138.0,0.25,68,109.0
1626,F#2,138.5,0.25,63,109.0
1627,E-4,138.5,0.25,25,109.0
1628,G3,138.5,0.25,68,109.0
1629,C4,138.5,0.25,68,109.0
1630,E4,138.5,0.25,68,109.0
1631,D2,138.75,1/5,80,109.0
1632,E4,138.75,0.25,50,109.0
1633,A1,139.0,229/500,80,109.0
1634,C4,139.0,19/40,80,109.0
1635,C2,139.0,0.25,67,109.0
1636,F#2,139.0,0.25,63,109.0
1637,E2,139.0,0.25,72,109.0
1638,E-4,139.0,0.5,42,109.0
1639,F3,139.0,0.5,60,109.0
1640,A3,139.0,0.5,60,109.0
1641,C2,139.5,9/20,80,109.0
1642,A6,139.5,0.5,63,109.0
1643,F#2,139.5,0.25,63,109.0
1644,D4,139.5,0.5,56,109.0
1645,E5,139.5,0.5,50,109.0
1646,D5,139.5,0.5,50,109.0
1647,A5,139.5,0.5,50,109.0
1648,C5,139.575,9/40,81,109.0
1649,F#2,139.75,0.25,63,109.0
1650,F3,139.75,27/250,61,109.0
1651,A3,139.75,27/250,61,109.0
1652,C4,139.75,27/250,61,109.0
1653,D2,140.0,7/10,80,109.0
1654,A6,140.0,4.0,63,109.0
1655,C2,140.0,0.25,67,109.0
1656,F#2,140.0,0.25,63,109.0
1657,E-4,140.0,0.25,31,109.0
1658,E5,140.0,3.5,50,109.0
1659,D5,140.0,3.5,50,109.0
1660,A5,140.0,3.5,50,109.0
1661,E-5,140.067,229/500,72,109.0
1662,F#2,140.5,0.25,63,109.0
1663,E-4,140.5,0.25,22,109.0
1664,F3,140.517,117/1000,67,109.0
1665,A3,140.517,117/1000,67,109.0
1666,C4,140.517,117/1000,67,109.0
1667,D5,140.617,1/5,69,109.0
1668,D2,140.75,1/5,80,109.0
1669,E4,140.75,0.25,44,109.0
1670,A1,141.0,7/10,80,109.0
1671,C2,141.0,0.25,67,109.0
1672,F#2,141.0,0.25,63,109.0
1673,E2,141.0,0.25,72,109.0
1674,E-4,141.0,0.5,31,109.0
1675,C5,141.075,217/1000,69,109.0
1676,F#2,141.5,0.25,63,109.0
1677,E4,141.5,0.5,50,109.0
1678,F3,141.5,27/250,57,109.0
1679,A3,141.5,27/250,57,109.0
1680,C4,141.5,27/250,57,109.0
1681,A4,141.575,57/40,81,109.0
1682,F#2,141.75,0.25,63,109.0
1683,D2,142.0,9/20,80,109.0
1684,C2,142.0,0.25,67,109.0
1685,F#2,142.0,0.25,63,109.0
1686,E-4,142.0,0.25,36,109.0
1687,F3,142.267,117/1000,71,109.0
1688,A3,142.267,117/1000,71,109.0
1689,C4,142.267,117/1000,71,109.0
1690,F#2,142.5,0.25,63,109.0
1691,E-4,142.5,0.25,24,109.0
1692,D2,142.75,1/5,80,109.0
1693,E4,142.75,0.25,50,109.0
1694,C2,143.0,467/1000,80,109.0
1695,C2,143.0,0.25,67,109.0
1696,F#2,143.0,0.25,63,109.0
1697,E2,143.0,0.25,72,109.0
1698,E-4,143.0,0.5,33,109.0
1699,F3,143.008,617/1000,79,109.0
1700,A3,143.008,617/1000,79,109.0
1701,C4,143.008,617/1000,79,109.0
1702,C5,143.1,49/125,81,109.0
1703,A1,143.5,229/500,80,109.0
1704,F#2,143.5,0.25,63,109.0
1705,D4,143.5,0.5,56,109.0
1706,D5,143.575,217/1000,81,109.0
1707,F#2,143.75,0.25,63,109.0
1708,F3,143.75,0.125,69,109.0
1709,A3,143.75,0.125,69,109.0
1710,C4,143.75,0.125,69,109.0
1711,B-1,144.0,7/10,80,109.0
1712,A6,144.0,4.0,63,109.0
1713,C2,144.0,0.25,67,109.0
1714,F#2,144.0,0.25,63,109.0
1715,E-4,144.0,0.25,25,109.0
1716,G#4,144.067,49/125,72,109.0
1717,F#2,144.5,0.25,63,109.0
1718,E-4,144.5,0.25,25,109.0
1719,F3,144.5,0.125,73,109.0
1720,A3,144.5,0.125,73,109.0
1721,C4,144.5,0.125,73,109.0
1722,G4,144.583,121/500,72,109.0
1723,B-1,144.75,1/5,80,109.0
1724,F1,145.0,9/20,80,109.0
1725,C2,145.0,0.25,67,109.0
1726,F#2,145.0,0.25,63,109.0
1727,E2,145.0,0.25,72,109.0
1728,E4,145.0,0.25,29,109.0
1729,E-4,145.0,0.5,29,109.0
1730,F4,145.033,23/250,67,109.0
1731,F#2,145.5,0.25,63,109.0
1732,E4,145.5,0.25,50,109.0
1733,F3,145.5,23/250,80,109.0
1734,A3,145.5,23/250,80,109.0
1735,C4,145.5,23/250,80,109.0
1736,D4,145.558,1817/1000,77,109.0
1737,F#2,145.75,0.25,63,109.0
1738,B-1,146.0,229/500,80,109.0
1739,C2,146.0,0.25,67,109.0
1740,F#2,146.0,0.25,63,109.0
1741,E-4,146.0,0.25,24,109.0
1742,F3,146.25,27/250,76,109.0
1743,A3,146.25,27/250,76,109.0
1744,C4,146.25,27/250,76,109.0
1745,F#2,146.5,0.25,63,109.0
1746,E-4,146.5,0.25,23,109.0
1747,B-1,146.75,1/5,80,109.0
1748,E4,146.75,0.25,47,109.0
1749,F1,147.0,229/500,80,109.0
1750,C2,147.0,0.25,67,109.0
1751,F#2,147.0,0.25,63,109.0
1752,E2,147.0,0.25,72,109.0
1753,E-4,147.0,0.5,39,109.0
1754,F3,147.058,567/1000,67,109.0
1755,A3,147.058,567/1000,67,109.0
1756,D4,147.058,567/1000,67,109.0
1757,G#1,147.5,9/20,80,109.0
1758,F#2,147.5,0.25,63,109.0
1759,D4,147.5,0.5,56,109.0
1760,D4,147.517,26/125,77,109.0
1761,F#2,147.75,0.25,63,109.0
1762,F4,147.775,217/1000,71,109.0
1763,A3,147.783,27/250,64,109.0
1764,F3,147.783,27/250,64,109.0
1765,D4,147.783,27/250,64,109.0
1766,G5,148.0,0.0,69,109.0
1767,B-1,148.0,177/250,80,109.0
1768,A6,148.0,4.0,63,109.0
1769,C2,148.0,0.25,67,109.0
1770,F#2,148.0,0.25,63,109.0
1771,E-4,148.0,0.25,33,109.0
1772,A4,148.058,11/40,61,109.0
1773,F#2,148.5,0.25,63,109.0
1774,E-4,148.5,0.25,23,109.0
1775,A3,148.5,71/500,56,109.0
1776,F3,148.5,71/500,56,109.0
1777,D4,148.5,71/500,56,109.0
1778,G4,148.525,26/125,70,109.0
1779,B-1,148.75,217/1000,80,109.0
1780,E4,148.75,0.25,42,109.0
1781,F1,149.0,229/500,80,109.0
1782,C2,149.0,0.25,67,109.0
1783,F#2,149.0,0.25,63,109.0
1784,E2,149.0,0.25,72,109.0
1785,E-4,149.0,0.5,36,109.0
1786,F4,149.017,121/500,75,109.0
1787,F#4,149.292,129/500,59,109.0
1788,F#2,149.5,0.25,63,109.0
1789,E4,149.5,0.25,44,109.0
1790,F3,149.5,27/250,63,109.0
1791,A3,149.5,27/250,63,109.0
1792,D4,149.5,27/250,63,109.0
1793,D4,149.592,1867/1000,81,109.0
1794,G1,149.75,7/10,80,109.0
1795,F#2,149.75,0.25,63,109.0
1796,F#2,150.0,0.25,63,109.0
1797,E2,150.0,0.25,72,109.0
1798,E-4,150.0,0.25,31,109.0
1799,F3,150.25,23/250,69,109.0
1800,A3,150.25,23/250,69,109.0
1801,D4,150.25,23/250,69,109.0
1802,B-1,150.5,217/1000,80,109.0
1803,F#2,150.5,0.25,63,109.0
1804,E-4,150.5,0.25,27,109.0
1805,E2,150.75,0.125,40,109.0
1806,E4,150.75,0.25,39,109.0
1807,E2,150.875,0.125,40,109.0
1808,A1,151.0,217/1000,80,109.0
1809,F#2,151.0,0.25,63,109.0
1810,E2,151.0,0.25,56,109.0
1811,E-4,151.0,0.5,44,109.0
1812,A3,151.033,3/5,85,109.0
1813,F3,151.033,3/5,85,109.0
1814,D4,151.033,3/5,85,109.0
1815,E2,151.25,0.25,72,109.0
1816,G#1,151.5,26/125,80,109.0
1817,F#2,151.5,0.25,63,109.0
1818,G2,151.5,0.25,80,109.0
1819,D4,151.5,0.25,56,109.0
1820,C4,151.6,167/1000,69,109.0
1821,F#2,151.75,0.25,63,109.0
1822,C4,151.75,0.25,56,109.0
1823,G3,151.75,0.25,56,109.0
1824,E3,151.75,0.25,56,109.0
1825,D4,151.817,183/1000,66,109.0
1826,G1,152.0,177/250,80,109.0
1827,D4,152.0,23/250,66,109.0
1828,G6,152.0,157/40,64,109.0
1829,C2,152.0,0.25,67,109.0
1830,F#2,152.0,0.25,63,109.0
1831,C#3,152.0,1.0,66,109.0
1832,E-4,152.0,0.25,25,109.0
1833,F4,152.058,417/1000,76,109.0
1834,B-2,152.5,0.25,70,109.0
1835,E-4,152.5,0.25,25,109.0
1836,G4,152.558,24/125,63,109.0
1837,F3,152.75,0.5,68,109.0
1838,B-3,152.75,0.5,68,109.0
1839,D4,152.75,0.5,68,109.0
1840,G1,153.0,229/500,80,109.0
1841,E2,153.0,0.25,64,109.0
1842,E4,153.0,0.25,29,109.0
1843,E-4,153.0,0.5,29,109.0
1844,A4,153.025,79/500,79,109.0
1845,A1,153.5,151/125,80,109.0
1846,C2,153.5,0.25,67,109.0
1847,F#2,153.5,0.25,63,109.0
1848,E4,153.5,0.25,50,109.0
1849,G3,153.5,0.25,68,109.0
1850,C4,153.5,0.25,68,109.0
1851,E4,153.5,0.25,68,109.0
1852,C5,153.567,917/1000,86,109.0
1853,F#2,153.75,0.25,63,109.0
1854,C2,154.0,0.25,67,109.0
1855,E-4,154.0,0.25,24,109.0
1856,F3,154.0,0.25,68,109.0
1857,B-3,154.0,0.25,68,109.0
1858,D4,154.0,0.25,68,109.0
1859,B-2,154.5,0.25,70,109.0
1860,E-4,154.5,0.25,23,109.0
1861,D5,154.558,167/1000,89,109.0
1862,E4,154.75,0.25,47,109.0
1863,A1,155.0,229/500,80,109.0
1864,E2,155.0,0.25,64,109.0
1865,E-4,155.0,0.5,39,109.0
1866,B-3,155.0,1.5,63,109.0
1867,D4,155.0,1.5,63,109.0
1868,F3,155.0,1.5,63,109.0
1869,F5,155.025,3/20,90,109.0
1870,B-1,155.5,0.5,80,109.0
1871,C2,155.5,0.25,67,109.0
1872,F#2,155.5,0.25,63,109.0
1873,D4,155.5,0.5,56,109.0
1874,G5,155.567,433/1000,96,109.0
1875,B-1,156.0,177/250,80,109.0
1876,G5,156.0,21/40,96,109.0
1877,C2,156.0,0.25,67,109.0
1878,F#2,156.0,0.25,63,109.0
1879,E-4,156.0,0.25,33,109.0
1880,F6,156.092,977/250,56,109.0
1881,B-2,156.5,0.25,70,109.0
1882,E-4,156.5,0.25,23,109.0
1883,C4,156.5,2.0,55,109.0
1884,G3,156.5,2.0,55,109.0
1885,E4,156.5,2.0,55,109.0
1886,F5,156.567,0.375,67,109.0
1887,E4,156.75,0.25,42,109.0
1888,B-1,157.0,229/500,80,109.0
1889,E2,157.0,0.25,64,109.0
1890,E-4,157.0,0.5,36,109.0
1891,D5,157.05,183/1000,72,109.0
1892,C2,157.5,579/500,80,109.0
1893,C2,157.5,0.25,67,109.0
1894,F#2,157.5,0.25,63,109.0
1895,E4,157.5,0.25,44,109.0
1896,C5,157.558,9/10,72,109.0
1897,F#2,157.75,0.25,63,109.0
1898,C2,158.0,0.25,67,109.0
1899,E-4,158.0,0.25,31,109.0
1900,B-2,158.5,0.25,70,109.0
1901,E-4,158.5,0.25,27,109.0
1902,F4,158.5,0.5,63,109.0
1903,A3,158.5,0.5,63,109.0
1904,D4,158.5,0.5,63,109.0
1905,D5,158.575,77/250,80,109.0
1906,E4,158.75,0.25,39,109.0
1907,C2,159.0,0.25,80,109.0
1908,E2,159.0,0.25,64,109.0
1909,E-4,159.0,0.5,44,109.0
1910,F4,159.067,267/1000,64,109.0
1911,D2,159.5,0.5,80,109.0
1912,G#4,159.5,0.5,72,109.0
1913,C2,159.5,0.25,67,109.0
1914,F#2,159.5,0.25,63,109.0
1915,C#3,159.5,0.5,66,109.0
1916,D4,159.5,0.25,56,109.0
1917,D2,160.0,151/125,80,109.0
1918,G#4,160.0,2633/1000,72,109.0
1919,F6,160.0,317/1000,56,109.0
1920,C2,160.0,0.25,67,109.0
1921,F#2,160.0,0.25,63,109.0
1922,E-4,160.0,0.25,25,109.0
1923,B-2,160.5,0.25,70,109.0
1924,E-4,160.5,0.25,25,109.0
1925,F4,160.5,1.5,63,109.0
1926,A3,160.5,1.5,63,109.0
1927,D4,160.5,1.5,63,109.0
1928,E2,161.0,0.25,64,109.0
1929,E4,161.0,0.25,29,109.0
1930,E-4,161.0,0.5,29,109.0
1931,D3,161.5,26/125,62,109.0
1932,C2,161.5,0.25,67,109.0
1933,F#2,161.5,0.25,63,109.0
1934,E4,161.5,0.25,50,109.0
1935,E3,161.75,1/5,60,109.0
1936,F#2,161.75,0.25,63,109.0
1937,A5,161.767,177/250,68,109.0
1938,D3,162.0,217/1000,62,109.0
1939,C2,162.0,0.25,67,109.0
1940,E-4,162.0,0.25,24,109.0
1941,F4,162.0,2.0,60,109.0
1942,B-3,162.0,2.0,60,109.0
1943,C4,162.0,2.0,60,109.0
1944,G3,162.0,2.0,60,109.0
1945,C6,162.483,221/500,60,109.0
1946,F4,162.492,817/1000,73,109.0
1947,A2,162.5,233/1000,51,109.0
1948,B-2,162.5,0.25,70,109.0
1949,E-4,162.5,0.25,23,109.0
1950,B2,162.75,1/5,56,109.0
1951,E4,162.75,0.25,47,109.0
1952,D6,162.967,433/1000,60,109.0
1953,A2,163.0,433/1000,73,109.0
1954,E2,163.0,0.25,64,109.0
1955,E-4,163.0,0.5,39,109.0
1956,E4,163.25,7/20,72,109.0
1957,A1,163.5,233/1000,61,109.0
1958,E6,163.5,0.5,55,109.0
1959,C2,163.5,0.25,67,109.0
1960,F#2,163.5,0.25,63,109.0
1961,D4,163.5,0.5,56,109.0
1962,D4,163.75,0.25,63,109.0
1963,D2,164.0,151/125,80,109.0
1964,D4,164.0,1/40,63,109.0
1965,A6,164.0,4.0,64,109.0
1966,C2,164.0,0.25,67,109.0
1967,F#2,164.0,0.25,63,109.0
1968,E-4,164.0,0.25,33,109.0
1969,E4,164.008,3283/1000,81,109.0
1970,F#2,164.5,0.25,63,109.0
1971,E-4,164.5,0.25,23,109.0
1972,C#4,164.5,76/125,60,109.0
1973,F#4,164.5,76/125,60,109.0
1974,A3,164.5,76/125,60,109.0
1975,D3,164.5,76/125,60,109.0
1976,C2,164.75,0.25,67,109.0
1977,E4,164.75,0.25,42,109.0
1978,F#2,165.0,0.25,63,109.0
1979,E2,165.0,0.25,72,109.0
1980,E-4,165.0,0.5,36,109.0
1981,C#4,165.267,27/250,60,109.0
1982,F#4,165.267,27/250,60,109.0
1983,A3,165.267,27/250,60,109.0
1984,D3,165.275,27/250,61,109.0
1985,F#4,165.275,27/250,61,109.0
1986,A3,165.275,27/250,61,109.0
1987,D3,165.5,26/125,62,109.0
1988,C2,165.5,0.25,67,109.0
1989,F#2,165.5,0.25,63,109.0
1990,E4,165.5,0.25,44,109.0
1991,E3,165.75,26/125,62,109.0
1992,F#2,165.75,0.25,63,109.0
1993,D3,166.0,26/125,62,109.0
1994,F#2,166.0,0.25,63,109.0
1995,E2,166.0,0.25,72,109.0
1996,E-4,166.0,0.25,31,109.0
1997,C#4,166.042,27/250,52,109.0
1998,F#4,166.042,27/250,52,109.0
1999,A3,166.042,27/250,52,109.0
2000,D3,166.042,27/250,59,109.0
2001,F#4,166.042,27/250,59,109.0
2002,A3,166.042,27/250,59,109.0
2003,A2,166.5,26/125,61,109.0
2004,F#2,166.5,0.25,63,109.0
2005,E-4,166.5,0.25,27,109.0
2006,B2,166.75,26/125,62,109.0
2007,E2,166.75,0.125,40,109.0
2008,E4,166.75,0.25,39,109.0
2009,E2,166.875,0.125,40,109.0
2010,A2,167.0,9/20,64,109.0
2011,F#2,167.0,0.25,63,109.0
2012,E2,167.0,0.25,56,109.0
2013,E-4,167.0,0.5,44,109.0
2014,F#4,167.033,0.125,48,109.0
2015,D3,167.033,0.125,48,109.0
2016,C#4,167.033,0.125,48,109.0
2017,A3,167.033,0.125,48,109.0
2018,E2,167.25,0.25,72,109.0
2019,D1,167.5,1/5,80,109.0
2020,F#2,167.5,0.25,63,109.0
2021,G2,167.5,0.25,80,109.0
2022,D4,167.5,0.25,56,109.0
2023,A3,167.558,217/1000,80,109.0
2024,E1,167.75,1/5,80,109.0
2025,F#2,167.75,0.25,63,109.0
2026,C#4,167.775,79/500,54,109.0
2027,F#4,167.775,79/500,54,109.0
2028,A3,167.775,79/500,54,109.0
2029,D3,167.775,79/500,54,109.0
2030,B3,167.817,183/1000,72,109.0
2031,G1,168.0,177/250,80,109.0
2032,B3,168.0,21/500,72,109.0
2033,A6,168.0,17/1000,64,109.0
2034,C2,168.0,0.25,67,109.0
2035,F#2,168.0,0.25,63,109.0
2036,A3,168.0,0.5,66,109.0
2037,E-4,168.0,0.25,25,109.0
2038,G6,168.042,1979/500,60,109.0
2039,D4,168.075,433/1000,89,109.0
2040,E4,168.5,9/40,98,109.0
2041,B-2,168.5,0.25,70,109.0
2042,E-4,168.5,0.25,25,109.0
2043,F#4,168.5,617/1000,67,109.0
2044,C#4,168.5,617/1000,67,109.0
2045,A3,168.5,617/1000,67,109.0
2046,D3,168.5,617/1000,67,109.0
2047,G1,169.0,229/500,80,109.0
2048,F4,169.0,221/500,81,109.0
2049,E2,169.0,0.25,64,109.0
2050,E4,169.0,0.25,29,109.0
2051,E-4,169.0,0.5,29,109.0
2052,C#4,169.242,0.125,56,109.0
2053,F#4,169.242,0.125,56,109.0
2054,A3,169.242,0.125,56,109.0
2055,D3,169.258,0.125,64,109.0
2056,A3,169.258,0.125,64,109.0
2057,F#1,169.5,151/125,80,109.0
2058,A4,169.5,867/1000,82,109.0
2059,C2,169.5,0.25,67,109.0
2060,F#2,169.5,0.25,63,109.0
2061,E4,169.5,0.25,50,109.0
2062,F#2,169.75,0.25,63,109.0
2063,C2,170.0,0.25,67,109.0
2064,E-4,170.0,0.25,24,109.0
2065,F#4,170.017,79/500,57,109.0
2066,C#4,170.017,79/500,57,109.0
2067,A3,170.017,79/500,57,109.0
2068,D3,170.017,79/500,57,109.0
2069,B-2,170.5,0.25,70,109.0
2070,E-4,170.5,0.25,23,109.0
2071,B4,170.533,0.25,114,109.0
2072,E4,170.75,0.25,47,109.0
2073,D3,170.75,71/500,63,109.0
2074,A3,170.75,71/500,63,109.0
2075,C#4,170.75,71/500,63,109.0
2076,F#4,170.75,71/500,63,109.0
2077,F#1,171.0,229/500,80,109.0
2078,E2,171.0,0.25,64,109.0
2079,E-4,171.0,0.5,39,109.0
2080,D5,171.042,183/1000,80,109.0
2081,F1,171.5,0.5,80,109.0
2082,C2,171.5,0.25,67,109.0
2083,F#2,171.5,0.25,63,109.0
2084,D4,171.5,0.5,56,109.0
2085,E5,171.542,229/500,93,109.0
2086,C#4,171.542,79/500,59,109.0
2087,F#4,171.542,79/500,59,109.0
2088,A3,171.542,79/500,59,109.0
2089,D3,171.558,26/125,80,109.0
2090,F1,172.0,177/250,80,109.0
2091,E5,172.0,11/20,93,109.0
2092,G6,172.0,33/1000,60,109.0
2093,C2,172.0,0.25,67,109.0
2094,F#2,172.0,0.25,63,109.0
2095,E-4,172.0,0.25,33,109.0
2096,D6,172.025,159/40,64,109.0
2097,D5,172.5,367/1000,83,109.0
2098,B-2,172.5,0.25,70,109.0
2099,E-4,172.5,0.25,23,109.0
2100,G3,172.5,1.5,61,109.0
2101,B3,172.5,1.5,61,109.0
2102,D4,172.5,1.5,61,109.0
2103,F#4,172.5,1.5,61,109.0
2104,E4,172.75,0.25,42,109.0
2105,F1,173.0,229/500,80,109.0
2106,C5,173.0,221/500,72,109.0
2107,E2,173.0,0.25,64,109.0
2108,E-4,173.0,0.5,36,109.0
2109,B-1,173.5,151/125,80,109.0
2110,D5,173.5,833/1000,98,109.0
2111,C2,173.5,0.25,67,109.0
2112,F#2,173.5,0.25,63,109.0
2113,E4,173.5,0.25,44,109.0
2114,F#2,173.75,0.25,63,109.0
2115,C2,174.0,0.25,67,109.0
2116,E-4,174.0,0.25,31,109.0
2117,A3,174.0,2.0,67,109.0
2118,C#4,174.0,2.0,67,109.0
2119,F#3,174.0,2.0,67,109.0
2120,E4,174.0,2.0,67,109.0
2121,B-2,174.5,0.25,70,109.0
2122,E-4,174.5,0.25,27,109.0
2123,F5,174.517,467/1000,74,109.0
2124,E4,174.75,0.25,39,109.0
2125,B-1,175.0,217/1000,80,109.0
2126,E2,175.0,0.25,64,109.0
2127,E-4,175.0,0.5,44,109.0
2128,D5,175.042,3/5,90,109.0
2129,A1,175.5,229/500,80,109.0
2130,C2,175.5,0.25,67,109.0
2131,F#2,175.5,0.25,63,109.0
2132,D4,175.5,0.25,56,109.0
2133,G#5,175.542,117/1000,80,109.0
2134,A5,175.658,171/500,72,109.0
2135,A1,176.0,0.25,80,109.0
2136,A5,176.0,2667/1000,72,109.0
2137,D6,176.0,33/1000,64,109.0
2138,C2,176.0,0.25,33,109.0
2139,F#2,176.0,0.25,40,109.0
2140,E2,176.0,0.25,40,109.0
2141,A3,176.0,1.0,68,109.0
2142,F3,176.0,0.5,63,109.0
2143,E4,176.0,0.5,63,109.0
2144,A3,176.0,0.5,63,109.0
2145,C4,176.0,0.5,63,109.0
2146,G2,176.025,0.25,40,109.0
2147,A5,176.042,1879/500,56,109.0
2148,A1,176.5,0.25,80,109.0
2149,C2,176.5,0.25,37,109.0
2150,F#2,176.5,0.25,45,109.0
2151,E2,176.5,0.25,45,109.0
2152,G2,176.525,0.25,45,109.0
2153,A1,177.0,0.25,80,109.0
2154,C2,177.0,0.25,42,109.0
2155,F#2,177.0,0.25,50,109.0
2156,E2,177.0,0.25,50,109.0
2157,G2,177.025,0.25,50,109.0
2158,A1,177.5,0.25,80,109.0
2159,C2,177.5,0.25,46,109.0
2160,F#2,177.5,0.25,55,109.0
2161,E2,177.5,0.25,55,109.0
2162,G2,177.525,0.25,55,109.0
2163,A1,178.0,0.25,80,109.0
2164,C2,178.0,0.25,50,109.0
2165,F#2,178.0,0.25,60,109.0
2166,E2,178.0,0.25,60,109.0
2167,F3,178.0,1.5,63,109.0
2168,E4,178.0,1.5,63,109.0
2169,A3,178.0,1.5,63,109.0
2170,C4,178.0,1.5,63,109.0
2171,G2,178.025,0.25,60,109.0
2172,A1,178.5,0.25,80,109.0
2173,C2,178.5,0.25,54,109.0
2174,F#2,178.5,0.25,65,109.0
2175,E2,178.5,0.25,65,109.0
2176,G2,178.525,0.25,65,109.0
2177,A1,179.0,0.25,80,109.0
2178,C2,179.0,0.25,59,109.0
2179,F#2,179.0,0.25,70,109.0
2180,E2,179.0,0.25,70,109.0
2181,G2,179.025,0.25,70,109.0
2182,A1,179.5,0.25,80,109.0
2183,E2,179.5,0.25,75,109.0
2184,F4,179.5,2.0,60,109.0
2185,A3,179.5,2.0,60,109.0
2186,D4,179.5,2.0,60,109.0
2187,G3,179.5,2.0,60,109.0
2188,A1,179.75,0.25,80,109.0
2189,E2,179.75,0.25,77,109.0
2190,B-4,180.008,323/250,60,109.0
2191,D5,180.008,323/250,60,109.0
2192,F4,180.008,323/250,60,109.0
2193,A1,180.5,417/1000,80,109.0
2194,C2,180.5,667/1000,62,109.0
2195,B-2,180.5,0.25,75,109.0
2196,E2,180.5,667/1000,75,109.0
2197,F#2,180.75,0.25,75,109.0
2198,G1,181.25,417/1000,80,109.0
2199,C2,181.25,667/1000,62,109.0
2200,B-2,181.25,0.25,75,109.0
2201,E2,181.25,667/1000,75,109.0
2202,F#2,181.5,0.25,75,109.0
2203,C5,181.533,33/20,60,109.0
2204,E5,181.533,33/20,60,109.0
2205,G4,181.533,33/20,60,109.0
2206,A1,182.0,0.5,80,109.0
2207,C2,182.0,667/1000,62,109.0
2208,B-2,182.0,0.25,75,109.0
2209,E2,182.0,0.25,75,109.0
2210,F#2,182.25,0.25,75,109.0
2211,B-2,183.0,0.25,75,109.0
2212,D5,183.533,467/1000,60,109.0
2213,F5,183.533,467/1000,60,109.0
2214,A4,183.533,467/1000,60,109.0
2215,E-1,184.0,0.75,80,109.0
2216,C2,184.0,0.5,62,109.0
2217,F#2,184.0,0.5,70,109.0
2218,E-4,184.0,0.25,28,109.0
2219,F#3,184.0,0.25,56,109.0
2220,F4,184.0,1383/1000,79,109.0
2221,F5,184.0,1383/1000,79,109.0
2222,D5,184.0,323/250,60,109.0
2223,F5,184.0,323/250,60,109.0
2224,A4,184.0,323/250,60,109.0
2225,F#3,184.25,0.25,40,109.0
2226,B-2,184.5,0.5,70,109.0
2227,E-4,184.5,0.25,28,109.0
2228,F#3,184.5,0.25,40,109.0
2229,E-1,184.75,217/1000,80,109.0
2230,F#3,184.75,0.25,40,109.0
2231,B-1,185.0,1.0,80,109.0
2232,F#2,185.0,0.5,70,109.0
2233,E2,185.0,0.25,75,109.0
2234,E4,185.0,0.25,32,109.0
2235,E-4,185.0,0.5,32,109.0
2236,F#3,185.0,0.25,56,109.0
2237,F2,185.017,0.25,65,109.0
2238,F#3,185.25,0.25,40,109.0
2239,B-2,185.5,0.5,70,109.0
2240,E4,185.5,0.25,58,109.0
2241,F#3,185.5,0.25,40,109.0
2242,G4,185.5,167/1000,80,109.0
2243,B4,185.5,167/1000,80,109.0
2244,D5,185.5,167/1000,80,109.0
2245,C5,185.508,37/20,60,109.0
2246,G4,185.508,37/20,60,109.0
2247,F5,185.508,37/20,60,109.0
2248,F4,185.517,867/1000,81,109.0
2249,F5,185.517,867/1000,81,109.0
2250,F#3,185.75,0.25,40,109.0
2251,G4,185.75,167/1000,80,109.0
2252,B4,185.75,167/1000,80,109.0
2253,D5,185.75,167/1000,80,109.0
2254,C#3,186.0,9/40,80,109.0
2255,C2,186.0,0.5,62,109.0
2256,F#2,186.0,0.5,70,109.0
2257,E-4,186.0,0.25,27,109.0
2258,F#3,186.0,0.25,56,109.0
2259,E-3,186.25,9/40,80,109.0
2260,F#3,186.25,0.25,40,109.0
2261,B-2,186.5,0.5,70,109.0
2262,E-4,186.5,0.25,26,109.0
2263,F#3,186.5,0.25,40,109.0
2264,G4,186.5,167/1000,85,109.0
2265,B4,186.5,167/1000,85,109.0
2266,D5,186.5,167/1000,85,109.0
2267,C#4,186.558,121/500,51,109.0
2268,C#5,186.558,121/500,51,109.0
2269,E4,186.75,0.25,54,109.0
2270,F#3,186.75,0.25,40,109.0
2271,B-2,187.0,217/1000,80,109.0
2272,F#2,187.0,0.5,70,109.0
2273,E2,187.0,0.25,75,109.0
2274,E-4,187.0,0.5,44,109.0
2275,F#3,187.0,0.25,56,109.0
2276,F2,187.017,0.25,65,109.0
2277,B-3,187.017,183/1000,73,109.0
2278,B-4,187.017,183/1000,73,109.0
2279,F#3,187.25,0.25,40,109.0
2280,F4,187.25,167/1000,86,109.0
2281,A4,187.25,167/1000,86,109.0
2282,C5,187.25,167/1000,86,109.0
2283,E-2,187.5,217/1000,80,109.0
2284,B-2,187.5,0.5,70,109.0
2285,D4,187.5,0.5,64,109.0
2286,F#3,187.5,0.25,40,109.0
2287,C#4,187.5,0.5,60,109.0
2288,F#4,187.5,0.5,60,109.0
2289,A4,187.5,0.5,60,109.0
2290,D4,187.542,229/500,68,109.0
2291,D5,187.542,229/500,68,109.0
2292,B-1,187.75,217/1000,80,109.0
2293,F#3,187.75,0.25,40,109.0
2294,E-1,188.0,1.0,80,109.0
2295,C2,188.0,0.5,62,109.0
2296,F#2,188.0,0.5,70,109.0
2297,E-4,188.0,0.25,38,109.0
2298,F#3,188.0,0.25,56,109.0
2299,G4,188.0,0.25,85,109.0
2300,B4,188.0,0.25,85,109.0
2301,D5,188.0,0.25,85,109.0
2302,D4,188.0,79/40,68,109.0
2303,D5,188.0,79/40,68,109.0
2304,C#4,188.0,4.0,60,109.0
2305,F#4,188.0,4.0,60,109.0
2306,A4,188.0,4.0,60,109.0
2307,F#3,188.25,0.25,40,109.0
2308,B-2,188.5,0.5,70,109.0
2309,E-4,188.5,0.25,26,109.0
2310,F#3,188.5,0.25,40,109.0
2311,E4,188.75,0.25,48,109.0
2312,F#3,188.75,0.25,40,109.0
2313,B-1,189.0,1.0,80,109.0
2314,F#2,189.0,0.5,70,109.0
2315,E2,189.0,0.25,75,109.0
2316,E-4,189.0,0.5,41,109.0
2317,F#3,189.0,0.25,56,109.0
2318,F2,189.017,0.25,65,109.0
2319,A5,189.033,167/1000,64,109.0
2320,G5,189.075,9/40,54,109.0
2321,F#3,189.25,0.25,40,109.0
2322,F5,189.258,117/1000,70,109.0
2323,E5,189.325,117/1000,73,109.0
2324,D5,189.325,117/1000,73,109.0
2325,C5,189.458,71/500,70,109.0
2326,B-2,189.5,0.5,70,109.0
2327,E4,189.5,0.25,50,109.0
2328,F#3,189.5,0.25,40,109.0
2329,B4,189.542,0.25,70,109.0
2330,A4,189.667,233/1000,51,109.0
2331,F#3,189.75,0.25,40,109.0
2332,C#3,190.0,0.25,80,109.0
2333,C2,190.0,0.5,62,109.0
2334,F#2,190.0,0.5,70,109.0
2335,E-4,190.0,0.25,36,109.0
2336,F#3,190.0,0.25,56,109.0
2337,B-3,190.008,617/1000,59,109.0
2338,C#4,190.008,617/1000,59,109.0
2339,F#3,190.008,617/1000,59,109.0
2340,E-3,190.008,617/1000,59,109.0
2341,F4,190.008,617/1000,59,109.0
2342,E-3,190.25,0.25,80,109.0
2343,F#3,190.25,0.25,40,109.0
2344,B-2,190.5,0.5,70,109.0
2345,E-4,190.5,0.25,30,109.0
2346,F#3,190.5,0.25,40,109.0
2347,B-3,190.5,11/40,84,109.0
2348,B-4,190.5,11/40,84,109.0
2349,B-2,190.75,0.25,80,109.0
2350,E4,190.75,0.25,44,109.0
2351,F#3,190.75,0.25,40,109.0
2352,B-3,190.775,3/40,50,109.0
2353,C#4,190.775,3/40,50,109.0
2354,E-3,190.775,3/40,50,109.0
2355,F#3,190.775,3/40,50,109.0
2356,F4,190.775,3/40,50,109.0
2357,F#2,191.0,0.5,70,109.0
2358,E2,191.0,0.25,75,109.0
2359,E-4,191.0,0.5,50,109.0
2360,F#3,191.0,0.25,56,109.0
2361,F2,191.017,0.25,65,109.0
2362,F#3,191.25,0.25,40,109.0
2363,C#4,191.25,11/40,79,109.0
2364,C#5,191.25,11/40,79,109.0
2365,E-2,191.5,0.25,80,109.0
2366,B-2,191.5,0.5,70,109.0
2367,D4,191.5,0.25,64,109.0
2368,F#3,191.5,0.25,40,109.0
2369,F#3,191.533,133/1000,55,109.0
2370,E-3,191.533,133/1000,55,109.0
2371,B-3,191.533,133/1000,55,109.0
2372,C#4,191.533,133/1000,55,109.0
2373,F4,191.533,133/1000,55,109.0
2374,B-1,191.75,0.25,80,109.0
2375,F#3,191.75,0.25,40,109.0
2376,E-1,192.0,1.0,80,109.0
2377,C2,192.0,0.5,62,109.0
2378,F#2,192.0,0.5,70,109.0
2379,E-4,192.0,0.25,28,109.0
2380,F#3,192.0,0.25,56,109.0
2381,F4,192.0,1417/1000,78,109.0
2382,F5,192.0,1417/1000,78,109.0
2383,F#3,192.25,0.25,40,109.0
2384,B-2,192.5,0.5,70,109.0
2385,E-4,192.5,0.25,28,109.0
2386,F#3,192.5,0.25,40,109.0
2387,B-3,192.517,3/20,58,109.0
2388,F#3,192.517,3/20,58,109.0
2389,E-3,192.517,3/20,58,109.0
2390,C#4,192.517,3/20,58,109.0
2391,F4,192.517,3/20,58,109.0
2392,F#3,192.75,0.25,40,109.0
2393,B-1,193.0,1.0,80,109.0
2394,F#2,193.0,0.5,70,109.0
2395,E2,193.0,0.25,75,109.0
2396,E4,193.0,0.25,32,109.0
2397,E-4,193.0,0.5,32,109.0
2398,F#3,193.0,0.25,56,109.0
2399,F2,193.017,0.25,65,109.0
2400,F#3,193.25,0.25,40,109.0
2401,B-3,193.258,117/1000,53,109.0
2402,E-3,193.258,117/1000,53,109.0
2403,F#3,193.258,117/1000,53,109.0
2404,C#4,193.258,117/1000,53,109.0
2405,F4,193.258,117/1000,53,109.0
2406,B-2,193.5,0.5,70,109.0
2407,E4,193.5,0.25,58,109.0
2408,F#3,193.5,0.25,40,109.0
2409,F4,193.5,101/125,102,109.0
2410,F5,193.5,101/125,102,109.0
2411,F#3,193.75,0.25,40,109.0
2412,B-3,193.983,17/1000,46,109.0
2413,F4,193.983,17/1000,46,109.0
2414,E-3,193.992,1/125,56,109.0
2415,C#4,193.992,1/125,56,109.0
2416,F#3,193.992,1/125,56,109.0
2417,C#3,194.0,0.25,80,109.0
2418,C2,194.0,0.5,62,109.0
2419,F#2,194.0,0.5,70,109.0
2420,E-4,194.0,0.25,27,109.0
2421,F#3,194.0,0.25,56,109.0
2422,B-3,194.0,13/20,46,109.0
2423,F4,194.0,13/20,46,109.0
2424,E-3,194.0,617/1000,56,109.0
2425,C#4,194.0,617/1000,56,109.0
2426,F#3,194.0,617/1000,56,109.0
2427,E-3,194.25,0.25,80,109.0
2428,F#3,194.25,0.25,40,109.0
2429,B-2,194.5,0.5,70,109.0
2430,E-4,194.5,0.25,26,109.0
2431,F#3,194.5,0.25,40,109.0
2432,C#4,194.5,0.375,84,109.0
2433,C#5,194.5,0.375,84,109.0
2434,B-2,194.75,0.25,80,109.0
2435,E4,194.75,0.25,54,109.0
2436,F#3,194.75,0.25,40,109.0
2437,B-3,194.767,1/10,41,109.0
2438,F#3,194.767,1/10,41,109.0
2439,F4,194.767,1/10,41,109.0
2440,C#4,194.767,1/10,41,109.0
2441,E-3,194.767,1/10,41,109.0
2442,F#2,195.0,0.5,70,109.0
2443,E2,195.0,0.25,75,109.0
2444,E-4,195.0,0.5,44,109.0
2445,F#3,195.0,0.25,56,109.0
2446,B-3,195.0,24/125,70,109.0
2447,B-4,195.0,24/125,70,109.0
2448,F2,195.017,0.25,65,109.0
2449,F#3,195.25,0.25,40,109.0
2450,E-2,195.5,0.25,80,109.0
2451,B-2,195.5,0.5,70,109.0
2452,D4,195.5,0.5,64,109.0
2453,F#3,195.5,0.25,40,109.0
2454,D4,195.5,0.5,71,109.0
2455,D5,195.5,0.5,71,109.0
2456,B-3,195.525,117/1000,53,109.0
2457,F#3,195.525,117/1000,53,109.0
2458,C#4,195.525,117/1000,53,109.0
2459,F4,195.525,117/1000,53,109.0
2460,E-3,195.525,117/1000,53,109.0
2461,B-1,195.75,0.25,80,109.0
2462,F#3,195.75,0.25,40,109.0
2463,E-1,196.0,1.0,80,109.0
2464,C2,196.0,0.5,62,109.0
2465,F#2,196.0,0.5,70,109.0
2466,E-4,196.0,0.25,38,109.0
2467,F#3,196.0,0.25,56,109.0
2468,D4,196.0,57/40,71,109.0
2469,D5,196.0,57/40,71,109.0
2470,C#4,196.0,4.0,60,109.0
2471,F#4,196.0,4.0,60,109.0
2472,A4,196.0,4.0,60,109.0
2473,F#3,196.25,0.25,40,109.0
2474,C#4,196.35,1/10,44,109.0
2475,F4,196.35,1/10,44,109.0
2476,F#3,196.35,1/10,44,109.0
2477,B-3,196.35,1/10,44,109.0
2478,E-3,196.35,1/10,44,109.0
2479,B-2,196.5,0.5,70,109.0
2480,E-4,196.5,0.25,26,109.0
2481,F#3,196.5,0.25,40,109.0
2482,E4,196.75,0.25,48,109.0
2483,F#3,196.75,0.25,40,109.0
2484,B-1,197.0,1.0,80,109.0
2485,F#2,197.0,0.5,70,109.0
2486,E2,197.0,0.25,75,109.0
2487,E-4,197.0,0.5,41,109.0
2488,F#3,197.0,0.25,56,109.0
2489,F2,197.017,0.25,65,109.0
2490,C#4,197.017,117/1000,46,109.0
2491,F4,197.017,117/1000,46,109.0
2492,F#3,197.017,117/1000,46,109.0
2493,E-3,197.017,117/1000,46,109.0
2494,B-3,197.017,117/1000,46,109.0
2495,F#3,197.25,0.25,40,109.0
2496,B-2,197.5,0.5,70,109.0
2497,E4,197.5,0.25,50,109.0
2498,F#3,197.5,0.25,40,109.0
2499,B5,197.5,167/1000,80,109.0
2500,D6,197.5,167/1000,80,109.0
2501,G5,197.5,167/1000,80,109.0
2502,F#3,197.75,0.25,40,109.0
2503,B5,197.75,167/1000,80,109.0
2504,G5,197.75,167/1000,80,109.0
2505,D6,197.75,167/1000,80,109.0
2506,B-2,198.0,0.25,80,109.0
2507,C2,198.0,0.5,62,109.0
2508,F#2,198.0,0.5,70,109.0
2509,E2,198.0,0.25,49,109.0
2510,E-4,198.0,0.25,36,109.0
2511,F#3,198.0,0.25,56,109.0
2512,B-3,198.0,121/500,85,109.0
2513,B-4,198.0,121/500,85,109.0
2514,B-3,198.008,617/1000,59,109.0
2515,C#4,198.008,617/1000,59,109.0
2516,F#3,198.008,617/1000,59,109.0
2517,E-3,198.008,617/1000,59,109.0
2518,F4,198.008,617/1000,59,109.0
2519,F#3,198.25,0.25,40,109.0
2520,C#3,198.5,0.25,80,109.0
2521,B-2,198.5,0.5,70,109.0
2522,E2,198.5,0.25,55,109.0
2523,E-4,198.5,0.25,30,109.0
2524,F#3,198.5,0.25,40,109.0
2525,B5,198.5,167/1000,64,109.0
2526,G5,198.5,167/1000,64,109.0
2527,D6,198.5,167/1000,64,109.0
2528,C#4,198.5,383/1000,72,109.0
2529,C#5,198.5,383/1000,72,109.0
2530,E4,198.75,0.25,44,109.0
2531,F#3,198.75,0.25,40,109.0
2532,B-3,198.775,3/40,50,109.0
2533,C#4,198.775,3/40,50,109.0
2534,E-3,198.775,3/40,50,109.0
2535,F#3,198.775,3/40,50,109.0
2536,F4,198.775,3/40,50,109.0
2537,B-2,199.0,0.25,80,109.0
2538,F#2,199.0,0.5,70,109.0
2539,E2,199.0,0.25,75,109.0
2540,E-4,199.0,0.5,50,109.0
2541,F#3,199.0,0.25,56,109.0
2542,F2,199.017,0.25,65,109.0
2543,B-3,199.033,24/125,86,109.0
2544,B-4,199.033,24/125,86,109.0
2545,F#3,199.25,0.25,40,109.0
2546,F5,199.25,167/1000,64,109.0
2547,C6,199.25,167/1000,64,109.0
2548,A5,199.25,167/1000,64,109.0
2549,B1,199.5,0.5,80,109.0
2550,B-2,199.5,0.5,70,109.0
2551,A3,199.5,0.25,66,109.0
2552,D4,199.5,0.25,64,109.0
2553,F#3,199.5,0.25,40,109.0
2554,G4,199.5,0.5,87,109.0
2555,G5,199.5,0.5,87,109.0
2556,F#3,199.533,133/1000,55,109.0
2557,E-3,199.533,133/1000,55,109.0
2558,B-3,199.533,133/1000,55,109.0
2559,C#4,199.533,133/1000,55,109.0
2560,F4,199.533,133/1000,55,109.0
2561,F#3,199.75,0.25,40,109.0
2562,B1,200.0,1.0,80,109.0
2563,C2,200.0,0.5,62,109.0
2564,F#2,200.0,0.5,70,109.0
2565,E-4,200.0,0.25,28,109.0
2566,F#3,200.0,0.25,56,109.0
2567,G5,200.0,0.25,64,109.0
2568,D6,200.0,0.25,64,109.0
2569,B5,200.0,0.25,64,109.0
2570,G4,200.0,3217/1000,87,109.0
2571,G5,200.0,3217/1000,87,109.0
2572,B4,200.008,323/250,60,109.0
2573,D5,200.008,323/250,60,109.0
2574,F#5,200.008,323/250,60,109.0
2575,F#3,200.25,0.25,40,109.0
2576,B-2,200.5,0.5,70,109.0
2577,E-4,200.5,0.25,28,109.0
2578,F#3,200.5,0.25,40,109.0
2579,B-3,200.517,3/20,58,109.0
2580,F#3,200.517,3/20,58,109.0
2581,E-3,200.517,3/20,58,109.0
2582,C#4,200.517,3/20,58,109.0
2583,F4,200.517,3/20,58,109.0
2584,F#3,200.75,0.25,40,109.0
2585,F#2,201.0,9/40,80,109.0
2586,F#2,201.0,0.5,70,109.0
2587,E2,201.0,0.25,75,109.0
2588,E4,201.0,0.25,32,109.0
2589,E-4,201.0,0.5,32,109.0
2590,F#3,201.0,0.25,56,109.0
2591,F2,201.017,0.25,65,109.0
2592,F#3,201.25,0.25,40,109.0
2593,B-3,201.258,117/1000,53,109.0
2594,E-3,201.258,117/1000,53,109.0
2595,F#3,201.258,117/1000,53,109.0
2596,C#4,201.258,117/1000,53,109.0
2597,F4,201.258,117/1000,53,109.0
2598,B2,201.5,0.25,80,109.0
2599,C#5,201.5,69/40,60,109.0
2600,A4,201.5,33/20,60,109.0
2601,B-2,201.5,0.5,70,109.0
2602,E4,201.5,0.25,58,109.0
2603,F#3,201.5,0.25,40,109.0
2604,E5,201.55,1.75,60,109.0
2605,C#3,201.75,0.25,80,109.0
2606,F#3,201.75,0.25,40,109.0
2607,B-3,201.983,17/1000,46,109.0
2608,F4,201.983,17/1000,46,109.0
2609,E-3,201.992,1/125,56,109.0
2610,C#4,201.992,1/125,56,109.0
2611,F#3,201.992,1/125,56,109.0
2612,F#2,202.0,127/250,80,109.0
2613,C2,202.0,0.5,62,109.0
2614,F#2,202.0,0.5,70,109.0
2615,E-4,202.0,0.25,27,109.0
2616,F#3,202.0,0.25,56,109.0
2617,B-3,202.0,13/20,46,109.0
2618,F4,202.0,13/20,46,109.0
2619,E-3,202.0,617/1000,56,109.0
2620,C#4,202.0,617/1000,56,109.0
2621,F#3,202.0,617/1000,56,109.0
2622,F#3,202.25,0.25,40,109.0
2623,B-2,202.5,0.5,70,109.0
2624,E-4,202.5,0.25,26,109.0
2625,F#3,202.5,0.25,40,109.0
2626,G#2,202.75,0.25,80,109.0
2627,E4,202.75,0.25,54,109.0
2628,F#3,202.75,0.25,40,109.0
2629,B-3,202.767,1/10,41,109.0
2630,F#3,202.767,1/10,41,109.0
2631,F4,202.767,1/10,41,109.0
2632,C#4,202.767,1/10,41,109.0
2633,E-3,202.767,1/10,41,109.0
2634,F#2,203.0,1.0,80,109.0
2635,F#2,203.0,0.5,70,109.0
2636,E2,203.0,0.25,75,109.0
2637,E-4,203.0,0.5,44,109.0
2638,F#3,203.0,0.25,56,109.0
2639,F2,203.017,0.25,65,109.0
2640,F#3,203.25,0.25,40,109.0
2641,B-2,203.5,0.5,70,109.0
2642,D4,203.5,0.5,64,109.0
2643,F#3,203.5,0.25,40,109.0
2644,E5,203.5,0.5,60,109.0
2645,C5,203.5,0.5,60,109.0
2646,A4,203.5,0.5,60,109.0
2647,B-3,203.525,117/1000,53,109.0
2648,F#3,203.525,117/1000,53,109.0
2649,C#4,203.525,117/1000,53,109.0
2650,F4,203.525,117/1000,53,109.0
2651,E-3,203.525,117/1000,53,109.0
2652,F#3,203.75,0.25,40,109.0
2653,B1,204.0,1.0,80,109.0
2654,C2,204.0,0.5,62,109.0
2655,F#2,204.0,0.5,70,109.0
2656,E-4,204.0,0.25,38,109.0
2657,F#3,204.0,0.25,56,109.0
2658,E5,204.0,629/500,60,109.0
2659,C5,204.0,629/500,60,109.0
2660,A4,204.0,629/500,60,109.0
2661,F#3,204.25,0.25,40,109.0
2662,C#4,204.35,1/10,44,109.0
2663,F4,204.35,1/10,44,109.0
2664,F#3,204.35,1/10,44,109.0
2665,B-3,204.35,1/10,44,109.0
2666,E-3,204.35,1/10,44,109.0
2667,B-2,204.5,0.5,70,109.0
2668,E-4,204.5,0.25,26,109.0
2669,F#3,204.5,0.25,40,109.0
2670,C#5,204.558,24/125,60,109.0
2671,C#4,204.558,24/125,60,109.0
2672,E4,204.75,0.25,48,109.0
2673,F#3,204.75,0.25,40,109.0
2674,F#2,205.0,0.5,70,109.0
2675,E2,205.0,0.25,75,109.0
2676,E-4,205.0,0.5,41,109.0
2677,F#3,205.0,0.25,56,109.0
2678,F2,205.017,0.25,65,109.0
2679,C#4,205.017,117/1000,46,109.0
2680,F4,205.017,117/1000,46,109.0
2681,F#3,205.017,117/1000,46,109.0
2682,E-3,205.017,117/1000,46,109.0
2683,B-3,205.017,117/1000,46,109.0
2684,F#3,205.25,0.25,40,109.0
2685,E5,205.358,121/500,62,109.0
2686,E4,205.358,121/500,62,109.0
2687,B2,205.5,0.25,80,109.0
2688,B-2,205.5,0.5,70,109.0
2689,E4,205.5,0.25,50,109.0
2690,F#3,205.5,0.25,40,109.0
2691,A4,205.5,37/20,60,109.0
2692,D5,205.5,37/20,60,109.0
2693,F5,205.5,37/20,60,109.0
2694,C#3,205.75,0.25,80,109.0
2695,F#3,205.75,0.25,40,109.0
2696,F#2,206.0,0.5,80,109.0
2697,C2,206.0,0.5,62,109.0
2698,F#2,206.0,0.5,70,109.0
2699,E-4,206.0,0.25,36,109.0
2700,F#3,206.0,0.25,56,109.0
2701,A3,206.0,279/500,66,109.0
2702,E4,206.0,279/500,66,109.0
2703,G#4,206.0,279/500,66,109.0
2704,F5,206.008,233/1000,64,109.0
2705,F4,206.008,233/1000,64,109.0
2706,F#3,206.25,0.25,40,109.0
2707,B-2,206.5,0.5,70,109.0
2708,E-4,206.5,0.25,30,109.0
2709,F#3,206.5,0.25,40,109.0
2710,C#5,206.55,121/500,60,109.0
2711,C#4,206.55,121/500,60,109.0
2712,G#2,206.75,0.25,80,109.0
2713,E4,206.75,0.25,44,109.0
2714,F#3,206.75,0.25,40,109.0
2715,A3,206.75,7/40,68,109.0
2716,E4,206.75,7/40,68,109.0
2717,G#4,206.75,7/40,68,109.0
2718,F#2,207.0,1.0,80,109.0
2719,F#2,207.0,0.5,70,109.0
2720,E2,207.0,0.25,75,109.0
2721,E-4,207.0,0.5,50,109.0
2722,F#3,207.0,0.25,56,109.0
2723,E5,207.0,177/250,64,109.0
2724,E4,207.0,177/250,64,109.0
2725,F2,207.017,0.25,65,109.0
2726,F#3,207.25,0.25,40,109.0
2727,B-2,207.5,0.5,70,109.0
2728,D4,207.5,0.25,64,109.0
2729,F#3,207.5,0.25,40,109.0
2730,A3,207.5,7/40,69,109.0
2731,E4,207.5,7/40,69,109.0
2732,G#4,207.5,7/40,69,109.0
2733,E5,207.5,0.5,64,109.0
2734,D5,207.5,0.5,64,109.0
2735,A5,207.5,0.5,64,109.0
2736,F#3,207.75,0.25,40,109.0
2737,A3,207.75,117/1000,65,109.0
2738,E4,207.75,117/1000,65,109.0
2739,G#4,207.75,117/1000,65,109.0
2740,C1,208.0,73/250,80,109.0
2741,C2,208.0,0.5,62,109.0
2742,F#2,208.0,0.5,70,109.0
2743,C#3,208.0,0.25,66,109.0
2744,E-4,208.0,0.25,28,109.0
2745,F#3,208.0,0.25,56,109.0
2746,G4,208.0,1383/1000,75,109.0
2747,G5,208.0,1383/1000,75,109.0
2748,E5,208.0,3.5,64,109.0
2749,D5,208.0,3.5,64,109.0
2750,A5,208.0,3.5,64,109.0
2751,F#3,208.25,0.25,40,109.0
2752,C2,208.5,9/40,80,109.0
2753,B-2,208.5,0.5,70,109.0
2754,E-4,208.5,0.25,28,109.0
2755,F#3,208.5,0.25,40,109.0
2756,A3,208.5,71/500,66,109.0
2757,E4,208.5,71/500,66,109.0
2758,G#4,208.5,71/500,66,109.0
2759,F#3,208.75,0.25,40,109.0
2760,E-1,209.0,73/250,80,109.0
2761,F#2,209.0,0.5,70,109.0
2762,E2,209.0,0.25,75,109.0
2763,E4,209.0,0.25,32,109.0
2764,E-4,209.0,0.5,32,109.0
2765,F#3,209.0,0.25,56,109.0
2766,F2,209.017,0.25,65,109.0
2767,F#3,209.25,0.25,40,109.0
2768,G#4,209.25,27/250,76,109.0
2769,E4,209.25,27/250,76,109.0
2770,A3,209.3,27/250,78,109.0
2771,E4,209.3,27/250,78,109.0
2772,E-2,209.5,9/40,80,109.0
2773,B-2,209.5,0.5,70,109.0
2774,E4,209.5,0.25,58,109.0
2775,F#3,209.5,0.25,40,109.0
2776,G4,209.517,867/1000,81,109.0
2777,G5,209.517,867/1000,81,109.0
2778,F#3,209.75,0.25,40,109.0
2779,F1,210.0,73/250,80,109.0
2780,C2,210.0,0.5,62,109.0
2781,F#2,210.0,0.5,70,109.0
2782,E-4,210.0,0.25,27,109.0
2783,F#3,210.0,0.25,56,109.0
2784,E4,210.025,3/5,79,109.0
2785,G#4,210.025,3/5,79,109.0
2786,A3,210.025,3/5,79,109.0
2787,F#3,210.25,0.25,40,109.0
2788,F2,210.5,9/40,80,109.0
2789,B-2,210.5,0.5,70,109.0
2790,E-4,210.5,0.25,26,109.0
2791,F#3,210.5,0.25,40,109.0
2792,E-4,210.5,121/500,62,109.0
2793,E-5,210.5,121/500,62,109.0
2794,E4,210.75,0.25,54,109.0
2795,F#3,210.75,0.25,40,109.0
2796,E4,210.758,0.125,61,109.0
2797,G#4,210.758,0.125,61,109.0
2798,A3,210.758,0.125,61,109.0
2799,E-1,211.0,73/250,80,109.0
2800,F#2,211.0,0.5,70,109.0
2801,E2,211.0,0.25,75,109.0
2802,E-4,211.0,0.5,44,109.0
2803,F#3,211.0,0.25,56,109.0
2804,F2,211.017,0.25,65,109.0
2805,C4,211.017,183/1000,73,109.0
2806,C5,211.017,183/1000,73,109.0
2807,F#3,211.25,0.25,40,109.0
2808,E-2,211.5,9/40,80,109.0
2809,B-2,211.5,0.5,70,109.0
2810,D4,211.5,0.5,64,109.0
2811,F#3,211.5,0.25,40,109.0
2812,E4,211.5,0.5,68,109.0
2813,E5,211.5,0.5,68,109.0
2814,E4,211.533,133/1000,77,109.0
2815,G#4,211.533,133/1000,77,109.0
2816,A3,211.533,133/1000,77,109.0
2817,F#3,211.75,0.25,40,109.0
2818,G#4,211.792,117/1000,61,109.0
2819,A3,211.792,117/1000,61,109.0
2820,E4,211.792,117/1000,61,109.0
2821,F1,212.0,73/250,80,109.0
2822,C2,212.0,0.5,62,109.0
2823,F#2,212.0,0.5,70,109.0
2824,E-4,212.0,0.25,38,109.0
2825,F#3,212.0,0.25,56,109.0
2826,E4,212.0,1933/1000,68,109.0
2827,E5,212.0,1933/1000,68,109.0
2828,F#3,212.25,0.25,40,109.0
2829,F2,212.5,9/40,80,109.0
2830,B-2,212.5,0.5,70,109.0
2831,E-4,212.5,0.25,26,109.0
2832,F#3,212.5,0.25,40,109.0
2833,E4,212.533,3/20,68,109.0
2834,G#4,212.533,3/20,68,109.0
2835,A3,212.542,7/40,60,109.0
2836,E4,212.75,0.25,48,109.0
2837,F#3,212.75,0.25,40,109.0
2838,G1,213.0,73/250,80,109.0
2839,F#2,213.0,0.5,70,109.0
2840,E2,213.0,0.25,75,109.0
2841,E-4,213.0,0.5,41,109.0
2842,F#3,213.0,0.25,56,109.0
2843,F2,213.017,0.25,65,109.0
2844,F#3,213.25,0.25,40,109.0
2845,G#4,213.3,23/250,72,109.0
2846,A3,213.3,23/250,72,109.0
2847,E4,213.3,23/250,72,109.0
2848,G2,213.5,9/40,80,109.0
2849,B-2,213.5,0.5,70,109.0
2850,E4,213.5,0.25,50,109.0
2851,F#3,213.5,0.25,40,109.0
2852,F#3,213.75,0.25,40,109.0
2853,G#1,214.0,73/250,80,109.0
2854,C2,214.0,0.5,62,109.0
2855,F#2,214.0,0.5,70,109.0
2856,E-4,214.0,0.25,36,109.0
2857,F#3,214.0,0.25,56,109.0
2858,G3,214.008,617/1000,59,109.0
2859,B-3,214.008,617/1000,59,109.0
2860,E-3,214.008,617/1000,59,109.0
2861,C3,214.008,617/1000,59,109.0
2862,D4,214.008,617/1000,59,109.0
2863,F#3,214.25,0.25,40,109.0
2864,G#2,214.5,9/40,80,109.0
2865,A4,214.5,0.125,100,109.0
2866,B-2,214.5,0.5,70,109.0
2867,E-4,214.5,0.25,30,109.0
2868,F#3,214.5,0.25,40,109.0
2869,C4,214.5,11/40,84,109.0
2870,C5,214.5,11/40,84,109.0
2871,B4,214.625,0.125,100,109.0
2872,C5,214.75,0.125,100,109.0
2873,E4,214.75,0.25,44,109.0
2874,F#3,214.75,0.25,40,109.0
2875,G3,214.775,3/40,50,109.0
2876,B-3,214.775,3/40,50,109.0
2877,C3,214.775,3/40,50,109.0
2878,E-3,214.775,3/40,50,109.0
2879,D4,214.775,3/40,50,109.0
2880,D5,214.875,0.125,100,109.0
2881,B-1,215.0,9/40,80,109.0
2882,E5,215.0,0.125,100,109.0
2883,F#2,215.0,0.5,70,109.0
2884,E2,215.0,0.25,75,109.0
2885,E-4,215.0,0.5,50,109.0
2886,F#3,215.0,0.25,56,109.0
2887,F2,215.017,0.25,65,109.0
2888,F5,215.125,0.125,100,109.0
2889,G5,215.25,0.125,100,109.0
2890,F#3,215.25,0.25,40,109.0
2891,E-4,215.317,11/40,76,109.0
2892,E-5,215.317,11/40,76,109.0
2893,A5,215.375,0.125,100,109.0
2894,B-2,215.5,9/40,80,109.0
2895,B5,215.5,0.125,100,109.0
2896,B-2,215.5,0.5,70,109.0
2897,D4,215.5,0.25,64,109.0
2898,F#3,215.5,0.25,40,109.0
2899,E-3,215.533,133/1000,55,109.0
2900,C3,215.533,133/1000,55,109.0
2901,G3,215.533,133/1000,55,109.0
2902,B-3,215.533,133/1000,55,109.0
2903,D4,215.533,133/1000,55,109.0
2904,C6,215.625,0.125,100,109.0
2905,D6,215.75,0.125,100,109.0
2906,F#3,215.75,0.25,40,109.0
2907,E6,215.875,0.125,100,109.0
2908,C1,216.0,73/250,80,109.0
2909,C2,216.0,0.5,62,109.0
2910,F#2,216.0,0.5,70,109.0
2911,E-4,216.0,0.25,28,109.0
2912,F#3,216.0,0.25,56,109.0
2913,G4,216.0,1417/1000,74,109.0
2914,G5,216.0,1417/1000,74,109.0
2915,F6,216.067,3483/1000,68,109.0
2916,F#3,216.25,0.25,40,109.0
2917,C2,216.5,9/40,80,109.0
2918,B-2,216.5,0.5,70,109.0
2919,E-4,216.5,0.25,28,109.0
2920,F#3,216.5,0.25,40,109.0
2921,G3,216.517,3/20,58,109.0
2922,E-3,216.517,3/20,58,109.0
2923,C3,216.517,3/20,58,109.0
2924,B-3,216.517,3/20,58,109.0
2925,D4,216.517,3/20,58,109.0
2926,F#3,216.75,0.25,40,109.0
2927,E-1,217.0,73/250,80,109.0
2928,F#2,217.0,0.5,70,109.0
2929,E2,217.0,0.25,75,109.0
2930,E4,217.0,0.25,32,109.0
2931,E-4,217.0,0.5,32,109.0
2932,F#3,217.0,0.25,56,109.0
2933,F2,217.017,0.25,65,109.0
2934,F#3,217.25,0.25,40,109.0
2935,G3,217.258,117/1000,53,109.0
2936,C3,217.258,117/1000,53,109.0
2937,E-3,217.258,117/1000,53,109.0
2938,B-3,217.258,117/1000,53,109.0
2939,D4,217.258,117/1000,53,109.0
2940,E-2,217.5,9/40,80,109.0
2941,B-2,217.5,0.5,70,109.0
2942,E4,217.5,0.25,58,109.0
2943,F#3,217.5,0.25,40,109.0
2944,G4,217.5,101/125,89,109.0
2945,G5,217.5,101/125,89,109.0
2946,F#3,217.75,0.25,40,109.0
2947,F3,217.983,17/1000,46,109.0
2948,C4,217.983,17/1000,46,109.0
2949,C3,217.992,1/125,56,109.0
2950,G#3,217.992,1/125,56,109.0
2951,E-3,217.992,1/125,56,109.0
2952,F1,218.0,73/250,80,109.0
2953,C2,218.0,0.5,62,109.0
2954,F#2,218.0,0.5,70,109.0
2955,E-4,218.0,0.25,27,109.0
2956,F#3,218.0,0.25,56,109.0
2957,F3,218.0,13/20,46,109.0
2958,C4,218.0,13/20,46,109.0
2959,C3,218.0,617/1000,56,109.0
2960,G#3,218.0,617/1000,56,109.0
2961,E-3,218.0,617/1000,56,109.0
2962,F#3,218.25,0.25,40,109.0
2963,F2,218.5,9/40,80,109.0
2964,B-2,218.5,0.5,70,109.0
2965,E-4,218.5,0.25,26,109.0
2966,F#3,218.5,0.25,40,109.0
2967,E-4,218.5,0.375,84,109.0
2968,E-5,218.5,0.375,84,109.0
2969,E4,218.75,0.25,54,109.0
2970,F#3,218.75,0.25,40,109.0
2971,F3,218.767,1/10,41,109.0
2972,E-3,218.767,1/10,41,109.0
2973,C4,218.767,1/10,41,109.0
2974,G#3,218.767,1/10,41,109.0
2975,C3,218.767,1/10,41,109.0
2976,E-1,219.0,73/250,80,109.0
2977,F#2,219.0,0.5,70,109.0
2978,E2,219.0,0.25,75,109.0
2979,E-4,219.0,0.5,44,109.0
2980,F#3,219.0,0.25,56,109.0
2981,C4,219.0,24/125,75,109.0
2982,C5,219.0,24/125,75,109.0
2983,F2,219.017,0.25,65,109.0
2984,F#3,219.25,0.25,40,109.0
2985,E-6,219.492,127/250,68,109.0
2986,E-2,219.5,9/40,80,109.0
2987,B-2,219.5,0.5,70,109.0
2988,D4,219.5,0.5,64,109.0
2989,F#3,219.5,0.25,40,109.0
2990,C3,219.5,3/20,61,109.0
2991,F3,219.5,3/20,61,109.0
2992,E-3,219.5,3/20,61,109.0
2993,G#3,219.5,3/20,61,109.0
2994,C4,219.5,3/20,61,109.0
2995,E4,219.5,0.5,76,109.0
2996,E5,219.5,0.5,76,109.0
2997,F#3,219.75,0.25,40,109.0
2998,F1,220.0,73/250,80,109.0
2999,E-6,220.0,103/40,68,109.0
3000,C2,220.0,0.5,62,109.0
3001,F#2,220.0,0.5,70,109.0
3002,E-4,220.0,0.25,38,109.0
3003,F#3,220.0,0.25,56,109.0
3004,E4,220.0,57/40,76,109.0
3005,E5,220.0,57/40,76,109.0
3006,F#3,220.25,0.25,40,109.0
3007,C3,220.25,3/20,54,109.0
3008,E-3,220.25,3/20,54,109.0
3009,F3,220.25,3/20,54,109.0
3010,G#3,220.25,3/20,54,109.0
3011,C4,220.25,3/20,54,109.0
3012,F2,220.5,9/40,80,109.0
3013,B-2,220.5,0.5,70,109.0
3014,E-4,220.5,0.25,26,109.0
3015,F#3,220.5,0.25,40,109.0
3016,E4,220.75,0.25,48,109.0
3017,F#3,220.75,0.25,40,109.0
3018,G1,221.0,73/250,80,109.0
3019,F#2,221.0,0.5,70,109.0
3020,E2,221.0,0.25,75,109.0
3021,E-4,221.0,0.5,41,109.0
3022,F#3,221.0,0.25,56,109.0
3023,F2,221.017,0.25,65,109.0
3024,G#3,221.017,117/1000,57,109.0
3025,C4,221.017,117/1000,57,109.0
3026,E-3,221.017,117/1000,57,109.0
3027,C3,221.017,117/1000,57,109.0
3028,F3,221.017,117/1000,57,109.0
3029,F#3,221.25,0.25,40,109.0
3030,G2,221.5,9/40,80,109.0
3031,B-2,221.5,0.5,70,109.0
3032,E4,221.5,0.25,50,109.0
3033,F#3,221.5,0.25,40,109.0
3034,F#3,221.75,0.25,40,109.0
3035,G#1,222.0,73/250,80,109.0
3036,C2,222.0,0.5,62,109.0
3037,F#2,222.0,0.5,70,109.0
3038,E2,222.0,0.25,49,109.0
3039,E-4,222.0,0.25,36,109.0
3040,F#3,222.0,0.25,56,109.0
3041,C4,222.0,121/500,85,109.0
3042,C5,222.0,121/500,85,109.0
3043,G3,222.008,617/1000,59,109.0
3044,B-3,222.008,617/1000,59,109.0
3045,E-3,222.008,617/1000,59,109.0
3046,C3,222.008,617/1000,59,109.0
3047,D4,222.008,617/1000,59,109.0
3048,F#3,222.25,0.25,40,109.0
3049,G#2,222.5,9/40,80,109.0
3050,B-2,222.5,0.5,70,109.0
3051,E2,222.5,0.25,55,109.0
3052,E-4,222.5,0.25,30,109.0
3053,F#3,222.5,0.25,40,109.0
3054,E-4,222.5,383/1000,72,109.0
3055,E-5,222.5,383/1000,72,109.0
3056,B-5,222.55,767/1000,45,109.0
3057,E4,222.75,0.25,44,109.0
3058,F#3,222.75,0.25,40,109.0
3059,G3,222.775,3/40,50,109.0
3060,B-3,222.775,3/40,50,109.0
3061,C3,222.775,3/40,50,109.0
3062,E-3,222.775,3/40,50,109.0
3063,D4,222.775,3/40,50,109.0
3064,G#1,223.0,49/125,80,109.0
3065,F#2,223.0,0.5,70,109.0
3066,E2,223.0,0.25,75,109.0
3067,E-4,223.0,0.5,50,109.0
3068,F#3,223.0,0.25,56,109.0
3069,F2,223.017,0.25,65,109.0
3070,C4,223.033,24/125,86,109.0
3071,C5,223.033,24/125,86,109.0
3072,F#3,223.25,0.25,40,109.0
3073,C#6,223.317,683/1000,64,109.0
3074,C#2,223.5,0.5,80,109.0
3075,B-2,223.5,0.5,70,109.0
3076,A3,223.5,0.25,66,109.0
3077,D4,223.5,0.25,64,109.0
3078,F#3,223.5,0.25,40,109.0
3079,A4,223.5,0.5,87,109.0
3080,A5,223.5,0.5,87,109.0
3081,E-3,223.533,133/1000,55,109.0
3082,C3,223.533,133/1000,55,109.0
3083,G3,223.533,133/1000,55,109.0
3084,B-3,223.533,133/1000,55,109.0
3085,D4,223.533,133/1000,55,109.0
3086,F#3,223.75,0.25,40,109.0
3087,C#2,224.0,19/40,80,109.0
3088,C#6,224.0,23/250,64,109.0
3089,C2,224.0,0.5,62,109.0
3090,F#2,224.0,0.5,70,109.0
3091,E-4,224.0,0.25,28,109.0
3092,F#3,224.0,0.25,56,109.0
3093,A4,224.0,3217/1000,87,109.0
3094,A5,224.0,3217/1000,87,109.0
3095,F6,224.158,3.375,64,109.0
3096,F#3,224.25,0.25,40,109.0
3097,C#3,224.5,217/1000,70,109.0
3098,B-2,224.5,0.5,70,109.0
3099,E-4,224.5,0.25,28,109.0
3100,F#3,224.5,0.25,40,109.0
3101,G3,224.517,3/20,58,109.0
3102,E-3,224.517,3/20,58,109.0
3103,C3,224.517,3/20,58,109.0
3104,B-3,224.517,3/20,58,109.0
3105,D4,224.517,3/20,58,109.0
3106,E-3,224.75,9/40,70,109.0
3107,F#3,224.75,0.25,40,109.0
3108,C#3,225.0,217/1000,70,109.0
3109,F#2,225.0,0.5,70,109.0
3110,E2,225.0,0.25,75,109.0
3111,E4,225.0,0.25,32,109.0
3112,E-4,225.0,0.5,32,109.0
3113,F#3,225.0,0.25,56,109.0
3114,F#3,225.25,0.25,40,109.0
3115,G3,225.258,117/1000,53,109.0
3116,C3,225.258,117/1000,53,109.0
3117,E-3,225.258,117/1000,53,109.0
3118,B-3,225.258,117/1000,53,109.0
3119,D4,225.258,117/1000,53,109.0
3120,G#2,225.5,9/40,70,109.0
3121,B-2,225.5,0.5,70,109.0
3122,E4,225.5,0.25,58,109.0
3123,F#3,225.5,0.25,40,109.0
3124,B-2,225.75,9/40,70,109.0
3125,F#3,225.75,0.25,40,109.0
3126,F3,225.983,17/1000,46,109.0
3127,C4,225.983,17/1000,46,109.0
3128,C3,225.992,1/125,56,109.0
3129,G#3,225.992,1/125,56,109.0
3130,E-3,225.992,1/125,56,109.0
3131,G#2,226.0,217/1000,70,109.0
3132,C2,226.0,0.5,62,109.0
3133,F#2,226.0,0.5,70,109.0
3134,E-4,226.0,0.25,27,109.0
3135,F#3,226.0,0.25,56,109.0
3136,F3,226.0,13/20,46,109.0
3137,C4,226.0,13/20,46,109.0
3138,C3,226.0,617/1000,56,109.0
3139,G#3,226.0,617/1000,56,109.0
3140,E-3,226.0,617/1000,56,109.0
3141,F#3,226.25,0.25,40,109.0
3142,B-1,226.5,217/1000,80,109.0
3143,B-2,226.5,0.5,70,109.0
3144,E-4,226.5,0.25,26,109.0
3145,F#3,226.5,0.25,40,109.0
3146,E4,226.75,0.25,54,109.0
3147,F#3,226.75,0.25,40,109.0
3148,F3,226.767,1/10,41,109.0
3149,E-3,226.767,1/10,41,109.0
3150,C4,226.767,1/10,41,109.0
3151,G#3,226.767,1/10,41,109.0
3152,C3,226.767,1/10,41,109.0
3153,B1,227.0,217/1000,80,109.0
3154,F#2,227.0,0.5,70,109.0
3155,E2,227.0,0.25,75,109.0
3156,E-4,227.0,0.5,44,109.0
3157,F#3,227.0,0.25,56,109.0
3158,F#3,227.25,0.25,40,109.0
3159,C2,227.5,217/1000,80,109.0
3160,B-2,227.5,0.5,70,109.0
3161,D4,227.5,0.5,64,109.0
3162,F#3,227.5,0.25,40,109.0
3163,C3,227.5,3/20,61,109.0
3164,F3,227.5,3/20,61,109.0
3165,E-3,227.5,3/20,61,109.0
3166,G#3,227.5,3/20,61,109.0
3167,C4,227.5,3/20,61,109.0
3168,E-6,227.55,9/20,56,109.0
3169,F#3,227.75,0.25,40,109.0
3170,C#2,228.0,217/1000,80,109.0
3171,E-6,228.0,71/20,56,109.0
3172,C2,228.0,0.5,62,109.0
3173,F#2,228.0,0.5,70,109.0
3174,E-4,228.0,0.25,38,109.0
3175,F#3,228.0,0.25,56,109.0
3176,F#3,228.25,0.25,40,109.0
3177,C3,228.25,3/20,54,109.0
3178,E-3,228.25,3/20,54,109.0
3179,F3,228.25,3/20,54,109.0
3180,G#3,228.25,3/20,54,109.0
3181,C4,228.25,3/20,54,109.0
3182,C#3,228.5,9/40,70,109.0
3183,B-2,228.5,0.5,70,109.0
3184,E-4,228.5,0.25,26,109.0
3185,F#3,228.5,0.25,40,109.0
3186,E-3,228.75,9/40,70,109.0
3187,E4,228.75,0.25,48,109.0
3188,F#3,228.75,0.25,40,109.0
3189,C#3,229.0,9/40,70,109.0
3190,F#2,229.0,0.5,70,109.0
3191,E2,229.0,0.25,75,109.0
3192,E-4,229.0,0.5,41,109.0
3193,F#3,229.0,0.25,56,109.0
3194,G#3,229.017,117/1000,57,109.0
3195,C4,229.017,117/1000,57,109.0
3196,E-3,229.017,117/1000,57,109.0
3197,C3,229.017,117/1000,57,109.0
3198,F3,229.017,117/1000,57,109.0
3199,F#3,229.25,0.25,40,109.0
3200,G#2,229.5,9/40,70,109.0
3201,C#4,229.5,0.5,66,109.0
3202,B-2,229.5,0.5,70,109.0
3203,E4,229.5,0.25,50,109.0
3204,F#3,229.5,0.25,40,109.0
3205,B-4,229.5,0.5,66,109.0
3206,F#4,229.5,0.5,66,109.0
3207,E-4,229.5,0.5,66,109.0
3208,B-2,229.75,9/40,70,109.0
3209,F#3,229.75,0.25,40,109.0
3210,G#2,230.0,217/1000,70,109.0
3211,C#4,230.0,2.0,66,109.0
3212,C2,230.0,0.5,62,109.0
3213,F#2,230.0,0.5,70,109.0
3214,E-4,230.0,0.25,36,109.0
3215,F#3,230.0,0.25,56,109.0
3216,B-4,230.0,1.75,66,109.0
3217,F#4,230.0,1.75,66,109.0
3218,E-4,230.0,1.75,66,109.0
3219,F#3,230.25,0.25,40,109.0
3220,C#2,230.5,9/40,80,109.0
3221,B-2,230.5,0.5,70,109.0
3222,E-4,230.5,0.25,30,109.0
3223,F#3,230.5,0.25,40,109.0
3224,E-2,230.75,9/40,80,109.0
3225,E4,230.75,0.25,44,109.0
3226,F#3,230.75,0.25,40,109.0
3227,C#2,231.0,19/40,80,109.0
3228,F#2,231.0,0.5,70,109.0
3229,E2,231.0,0.25,75,109.0
3230,E-4,231.0,0.5,50,109.0
3231,F#3,231.0,0.25,56,109.0
3232,F#3,231.25,0.25,40,109.0
3233,G1,231.5,9/40,70,109.0
3234,E2,231.5,0.25,90,109.0
3235,F#3,231.5,0.25,40,109.0
3236,B-4,231.5,0.25,99,109.0
3237,D4,231.5,0.25,99,109.0
3238,F4,231.5,0.25,99,109.0
3239,G1,231.75,9/40,70,109.0
3240,C#5,231.75,2.0,70,109.0
3241,E2,231.75,0.25,90,109.0
3242,F#3,231.75,0.25,40,109.0
3243,B-4,231.75,0.25,99,109.0
3244,D4,231.75,0.25,99,109.0
3245,F4,231.75,0.25,99,109.0
3246,F#5,231.875,1.875,70,109.0
3247,B-5,232.0,1.75,70,109.0
3248,F#2,232.0,0.25,70,109.0
3249,E-6,232.0,4.0,60,109.0
3250,G#6,232.0,4.0,60,109.0
3251,F#2,232.25,0.25,50,109.0
3252,G1,232.5,333/1000,70,109.0
3253,C2,232.5,0.5,67,109.0
3254,F#2,232.5,0.25,47,109.0
3255,F4,232.5,167/1000,99,109.0
3256,D4,232.5,167/1000,99,109.0
3257,B-3,232.5,167/1000,99,109.0
3258,F#2,232.75,0.25,47,109.0
3259,F#2,233.0,0.25,70,109.0
3260,E2,233.0,0.5,79,109.0
3261,A1,233.25,333/1000,70,109.0
3262,C2,233.25,0.5,67,109.0
3263,F#2,233.25,0.25,70,109.0
3264,G4,233.25,167/1000,99,109.0
3265,E4,233.25,167/1000,99,109.0
3266,C4,233.25,167/1000,99,109.0
3267,F#2,233.5,0.25,47,109.0
3268,F#5,233.75,0.25,70,109.0
3269,F#2,233.75,0.25,47,109.0
3270,B-5,233.875,0.125,70,109.0
3271,B-1,234.0,333/1000,70,109.0
3272,C#6,234.0,1.75,70,109.0
3273,F#5,234.0,1.75,70,109.0
3274,B-5,234.0,1.75,70,109.0
3275,C2,234.0,0.5,67,109.0
3276,F#2,234.0,0.25,70,109.0
3277,A4,234.0,167/1000,99,109.0
3278,F4,234.0,167/1000,99,109.0
3279,D4,234.0,167/1000,99,109.0
3280,F#2,234.25,0.25,50,109.0
3281,F#2,234.5,0.25,50,109.0
3282,A5,234.5,1.5,50,109.0
3283,B-4,234.5,1.5,50,109.0
3284,D5,234.5,1.5,50,109.0
3285,F5,234.5,1.5,50,109.0
3286,F#2,234.75,0.25,50,109.0
3287,C3,235.0,79/500,82,109.0
3288,F#2,235.0,0.25,70,109.0
3289,E2,235.0,0.5,82,109.0
3290,D3,235.25,217/1000,74,109.0
3291,F#2,235.25,0.25,50,109.0
3292,F3,235.492,3/20,56,109.0
3293,F#2,235.5,0.25,50,109.0
3294,B-5,235.75,1.75,70,109.0
3295,F3,235.75,3/20,71,109.0
3296,C2,235.75,0.25,67,109.0
3297,F#2,235.75,0.25,50,109.0
3298,C#6,235.875,1.625,70,109.0
3299,F#6,236.0,1.5,70,109.0
3300,C2,236.0,0.25,67,109.0
3301,F#2,236.0,0.25,70,109.0
3302,A5,236.0,4.0,50,109.0
3303,B-4,236.0,4.0,50,109.0
3304,D5,236.0,4.0,50,109.0
3305,F5,236.0,4.0,50,109.0
3306,F3,236.25,183/1000,85,109.0
3307,F#2,236.25,0.25,50,109.0
3308,F#2,236.5,0.25,50,109.0
3309,F#2,236.75,0.25,51,109.0
3310,F#2,237.0,0.25,70,109.0
3311,E2,237.0,0.5,80,109.0
3312,F3,237.008,233/1000,66,109.0
3313,F#2,237.25,0.25,50,109.0
3314,F#2,237.5,0.25,51,109.0
3315,B-4,237.5,233/1000,73,109.0
3316,D4,237.5,233/1000,73,109.0
3317,F4,237.5,233/1000,73,109.0
3318,F3,237.75,7/40,66,109.0
3319,C2,237.75,0.25,67,109.0
3320,F#2,237.75,0.25,51,109.0
3321,B-4,237.75,233/1000,73,109.0
3322,D4,237.75,233/1000,73,109.0
3323,F4,237.75,233/1000,73,109.0
3324,C2,238.0,0.25,67,109.0
3325,F#2,238.0,0.25,70,109.0
3326,F3,238.25,1/5,74,109.0
3327,F#2,238.25,0.25,51,109.0
3328,D3,238.5,0.25,62,109.0
3329,F#2,238.5,0.25,50,109.0
3330,F4,238.5,167/1000,69,109.0
3331,D4,238.5,167/1000,69,109.0
3332,B-3,238.5,167/1000,69,109.0
3333,F#2,238.75,0.25,52,109.0
3334,F3,239.0,1/5,69,109.0
3335,F#2,239.0,0.25,70,109.0
3336,E2,239.0,0.5,80,109.0
3337,G3,239.25,24/125,65,109.0
3338,F#2,239.25,0.25,48,109.0
3339,G4,239.25,167/1000,69,109.0
3340,E4,239.25,167/1000,69,109.0
3341,C4,239.25,167/1000,69,109.0
3342,G1,239.5,0.25,70,109.0
3343,F#2,239.5,0.25,48,109.0
3344,E2,239.5,0.25,76,109.0
3345,B-3,239.5,0.25,99,109.0
3346,D4,239.5,0.25,99,109.0
3347,F4,239.5,0.25,99,109.0
3348,G1,239.75,0.25,70,109.0
3349,F#2,239.75,0.25,49,109.0
3350,E2,239.75,0.25,79,109.0
3351,B-3,239.75,0.25,99,109.0
3352,D4,239.75,0.25,99,109.0
3353,F4,239.75,0.25,99,109.0
3354,F#2,240.0,0.25,70,109.0
3355,A4,240.0,167/1000,69,109.0
3356,F4,240.0,167/1000,69,109.0
3357,D4,240.0,167/1000,69,109.0
3358,E-6,240.0,4.0,60,109.0
3359,G#6,240.0,4.0,60,109.0
3360,F#2,240.25,0.25,48,109.0
3361,G1,240.5,333/1000,70,109.0
3362,C2,240.5,0.5,67,109.0
3363,F#2,240.5,0.25,53,109.0
3364,B-3,240.5,167/1000,99,109.0
3365,D4,240.5,167/1000,99,109.0
3366,F4,240.5,167/1000,99,109.0
3367,F#2,240.75,0.25,55,109.0
3368,F#2,241.0,0.25,70,109.0
3369,A1,241.25,333/1000,70,109.0
3370,C2,241.25,0.5,67,109.0
3371,F#2,241.25,0.25,49,109.0
3372,E4,241.25,167/1000,99,109.0
3373,C4,241.25,167/1000,99,109.0
3374,G4,241.25,167/1000,99,109.0
3375,F#2,241.5,0.25,50,109.0
3376,F#2,241.75,0.25,51,109.0
3377,B-1,242.0,333/1000,70,109.0
3378,C2,242.0,0.5,67,109.0
3379,F#2,242.0,0.25,70,109.0
3380,B-3,242.0,167/1000,99,109.0
3381,D4,242.0,167/1000,99,109.0
3382,F4,242.0,167/1000,99,109.0
3383,F#2,242.25,0.25,47,109.0
3384,F#2,242.5,0.25,47,109.0
3385,A4,242.5,1.5,50,109.0
3386,D5,242.5,1.5,50,109.0
3387,F5,242.5,1.5,50,109.0
3388,F#2,242.75,0.25,51,109.0
3389,C3,243.0,167/1000,63,109.0
3390,F#2,243.0,0.25,70,109.0
3391,E2,243.0,0.5,79,109.0
3392,D3,243.25,27/250,50,109.0
3393,F#2,243.25,0.25,49,109.0
3394,F3,243.5,121/500,69,109.0
3395,F#2,243.5,233/1000,51,109.0
3396,C2,243.75,0.25,67,109.0
3397,F#2,243.75,0.25,50,109.0
3398,C4,244.0,1/5,70,109.0
3399,G6,244.0,4.0,60,109.0
3400,C2,244.0,0.25,67,109.0
3401,F#2,244.0,0.25,70,109.0
3402,A4,244.0,4.0,50,109.0
3403,D5,244.0,4.0,50,109.0
3404,F5,244.0,4.0,50,109.0
3405,F#2,244.25,0.25,55,109.0
3406,A3,244.5,167/1000,62,109.0
3407,F#2,244.5,0.25,52,109.0
3408,F#2,244.75,0.25,49,109.0
3409,F#2,245.0,0.25,70,109.0
3410,E2,245.0,0.5,80,109.0
3411,C4,245.008,1/5,67,109.0
3412,D4,245.25,167/1000,59,109.0
3413,F#2,245.25,0.25,44,109.0
3414,F#2,245.5,0.25,49,109.0
3415,B-3,245.5,0.25,69,109.0
3416,D4,245.5,0.25,69,109.0
3417,F4,245.5,0.25,69,109.0
3418,C4,245.75,79/500,56,109.0
3419,C2,245.75,0.25,67,109.0
3420,F#2,245.75,0.25,46,109.0
3421,B-3,245.75,0.25,69,109.0
3422,D4,245.75,0.25,69,109.0
3423,F4,245.75,0.25,69,109.0
3424,C2,246.0,0.25,67,109.0
3425,F#2,246.0,0.25,70,109.0
3426,C4,246.25,7/40,61,109.0
3427,F#2,246.25,0.25,49,109.0
3428,A3,246.5,1/5,62,109.0
3429,F#2,246.5,0.25,46,109.0
3430,B-3,246.5,167/1000,69,109.0
3431,D4,246.5,167/1000,69,109.0
3432,F4,246.5,167/1000,69,109.0
3433,F#2,246.75,0.25,47,109.0
3434,C4,247.0,183/1000,61,109.0
3435,F#2,247.0,0.25,70,109.0
3436,E2,247.0,0.5,77,109.0
3437,D4,247.25,3/20,47,109.0
3438,F#2,247.25,0.25,49,109.0
3439,E4,247.25,167/1000,69,109.0
3440,C4,247.25,167/1000,69,109.0
3441,G4,247.25,167/1000,69,109.0
3442,G1,247.5,0.25,70,109.0
3443,F#2,247.5,0.25,44,109.0
3444,E2,247.5,0.25,83,109.0
3445,B-4,247.5,167/1000,99,109.0
3446,D4,247.5,167/1000,99,109.0
3447,F4,247.5,167/1000,99,109.0
3448,G1,247.75,0.25,70,109.0
3449,F#2,247.75,0.25,50,109.0
3450,E2,247.75,121/500,82,109.0
3451,D4,247.75,167/1000,99,109.0
3452,B-4,247.75,167/1000,99,109.0
3453,F4,247.75,167/1000,99,109.0
3454,F6,248.0,4.0,60,109.0
3455,F#2,248.0,0.25,70,109.0
3456,B-3,248.0,167/1000,69,109.0
3457,D4,248.0,167/1000,69,109.0
3458,F4,248.0,167/1000,69,109.0
3459,F#2,248.25,0.25,48,109.0
3460,G1,248.5,333/1000,70,109.0
3461,C2,248.5,0.5,67,109.0
3462,F#2,248.5,0.25,48,109.0
3463,B-3,248.5,167/1000,99,109.0
3464,D4,248.5,167/1000,99,109.0
3465,F4,248.5,167/1000,99,109.0
3466,F#2,248.75,0.25,49,109.0
3467,F#2,249.0,0.25,70,109.0
3468,A1,249.25,333/1000,70,109.0
3469,C2,249.25,0.5,67,109.0
3470,F#2,249.25,0.25,50,109.0
3471,C4,249.25,167/1000,99,109.0
3472,E4,249.25,167/1000,99,109.0
3473,G4,249.25,167/1000,99,109.0
3474,F#2,249.5,0.25,47,109.0
3475,F#2,249.75,0.25,49,109.0
3476,B-1,250.0,333/1000,70,109.0
3477,C2,250.0,0.5,67,109.0
3478,F#2,250.0,0.25,70,109.0
3479,D4,250.0,167/1000,99,109.0
3480,F4,250.0,167/1000,99,109.0
3481,A4,250.0,167/1000,99,109.0
3482,F#2,250.25,0.25,48,109.0
3483,F#2,250.5,0.25,49,109.0
3484,A5,250.5,1.5,50,109.0
3485,B-4,250.5,1.5,50,109.0
3486,D5,250.5,1.5,50,109.0
3487,F5,250.5,1.5,50,109.0
3488,F#2,250.75,0.25,50,109.0
3489,G3,251.0,79/500,63,109.0
3490,F#2,251.0,0.25,70,109.0
3491,E2,251.0,0.5,81,109.0
3492,F#2,251.25,0.25,49,109.0
3493,A3,251.267,133/1000,54,109.0
3494,C4,251.5,7/40,62,109.0
3495,F#2,251.5,0.25,45,109.0
3496,C2,251.75,0.25,67,109.0
3497,F#2,251.75,0.25,45,109.0
3498,C4,251.758,167/1000,55,109.0
3499,G6,252.0,4.0,60,109.0
3500,C2,252.0,0.25,67,109.0
3501,F#2,252.0,0.25,70,109.0
3502,A5,252.0,4.0,50,109.0
3503,B-4,252.0,4.0,50,109.0
3504,D5,252.0,4.0,50,109.0
3505,F5,252.0,4.0,50,109.0
3506,F#2,252.25,0.25,44,109.0
3507,G3,252.5,27/250,50,109.0
3508,F#2,252.5,0.25,49,109.0
3509,A3,252.75,183/1000,56,109.0
3510,F#2,252.75,233/1000,50,109.0
3511,F#2,253.0,0.25,70,109.0
3512,E2,253.0,0.5,81,109.0
3513,C4,253.017,7/40,66,109.0
3514,F#2,253.25,0.25,48,109.0
3515,C4,253.258,79/500,69,109.0
3516,F#2,253.5,0.25,46,109.0
3517,B-4,253.5,167/1000,73,109.0
3518,D4,253.5,167/1000,73,109.0
3519,F4,253.5,167/1000,73,109.0
3520,C2,253.75,0.25,67,109.0
3521,F#2,253.75,0.25,48,109.0
3522,D4,253.75,167/1000,73,109.0
3523,B-4,253.75,167/1000,73,109.0
3524,F4,253.75,167/1000,73,109.0
3525,G3,254.0,3/20,56,109.0
3526,C2,254.0,0.25,67,109.0
3527,F#2,254.0,0.25,70,109.0
3528,A3,254.25,167/1000,47,109.0
3529,F#2,254.25,0.25,47,109.0
3530,C4,254.5,1/5,60,109.0
3531,F#2,254.5,0.25,47,109.0
3532,B-3,254.5,167/1000,69,109.0
3533,D4,254.5,167/1000,69,109.0
3534,F4,254.5,167/1000,69,109.0
3535,C4,254.75,117/1000,62,109.0
3536,F#2,254.75,0.25,47,109.0
3537,F#2,255.0,0.25,70,109.0
3538,E2,255.0,0.5,80,109.0
3539,F#2,255.25,0.25,47,109.0
3540,C4,255.25,167/1000,69,109.0
3541,E4,255.25,167/1000,69,109.0
3542,G4,255.25,167/1000,69,109.0
3543,F#2,255.5,0.25,55,109.0
3544,E2,255.5,0.25,79,109.0
3545,C4,255.617,24/125,70,109.0
3546,F#2,255.75,0.25,50,109.0
3547,E2,255.75,0.25,80,109.0
3548,D4,255.858,71/500,72,109.0
3549,C2,256.0,1.0,80,109.0
3550,D4,256.0,23/250,72,109.0
3551,F6,256.0,4.0,60,109.0
3552,C2,256.0,1.0,67,109.0
3553,C#3,256.0,1.0,62,109.0
3554,D4,256.0,167/1000,69,109.0
3555,F4,256.0,167/1000,69,109.0
3556,A4,256.0,167/1000,69,109.0
3557,F4,256.15,33/40,92,109.0
3558,D2,257.0,1.0,80,109.0
3559,C2,257.0,1.0,67,109.0
3560,A3,257.0,1.0,62,109.0
3561,G4,257.075,983/1000,96,109.0
3562,E2,258.0,1.0,80,109.0
3563,C2,258.0,1.0,67,109.0
3564,C#3,258.0,1.0,62,109.0
3565,A4,258.167,33/40,95,109.0
3566,F#2,259.0,1.0,80,109.0
3567,C2,259.0,1.0,67,109.0
3568,A3,259.0,1.0,62,109.0
3569,B4,259.133,867/1000,97,109.0
3570,G#2,260.0,1.0,80,109.0
3571,B4,260.0,67/1000,97,109.0
3572,B-5,260.0,4.0,65,109.0
3573,C2,260.0,1.0,67,109.0
3574,C#3,260.0,1.0,62,109.0
3575,C#5,260.142,33/40,96,109.0
3576,B-2,261.0,1.0,80,109.0
3577,C2,261.0,1.0,67,109.0
3578,A3,261.0,1.0,62,109.0
3579,E-5,261.117,4/5,98,109.0
3580,B2,262.0,1.0,80,109.0
3581,C2,262.0,1.0,67,109.0
3582,C#3,262.0,1.0,62,109.0
3583,E5,262.133,421/500,104,109.0
3584,C#3,263.0,1.0,80,109.0
3585,C2,263.0,1.0,67,109.0
3586,A3,263.0,1.0,62,109.0
3587,F#5,263.083,33/40,89,109.0
3588,D2,264.0,0.5,80,109.0
3589,B-5,264.0,3.5,65,109.0
3590,C2,264.0,0.25,67,109.0
3591,F#2,264.0,0.25,70,109.0
3592,G5,264.15,1579/500,106,109.0
3593,B-2,264.5,0.25,70,109.0
3594,D2,264.75,0.25,80,109.0
3595,A1,265.0,0.25,80,109.0
3596,C2,265.0,0.25,67,109.0
3597,F2,265.0,0.25,72,109.0
3598,F#2,265.5,0.25,70,109.0
3599,F#2,265.75,0.25,70,109.0
3600,C2,266.0,0.25,67,109.0
3601,B-2,266.5,0.25,70,109.0
3602,A1,267.0,0.25,80,109.0
3603,C2,267.0,0.25,67,109.0
3604,F2,267.0,0.25,72,109.0
3605,C2,267.25,0.5,80,109.0
3606,F#2,267.5,0.25,70,109.0
3607,D2,268.0,0.5,80,109.0
3608,C2,268.0,0.25,67,109.0
3609,F#2,268.0,0.25,70,109.0
3610,B-2,268.5,0.25,70,109.0
3611,D5,268.525,2383/1000,81,109.0
3612,D2,268.75,0.25,80,109.0
3613,A1,269.0,0.25,80,109.0
3614,C2,269.0,0.25,67,109.0
3615,F2,269.0,0.25,72,109.0
3616,F#2,269.5,0.25,70,109.0
3617,F#2,269.75,0.25,70,109.0
3618,C2,270.0,0.25,67,109.0
3619,G4,270.0,583/1000,77,109.0
3620,C4,270.0,583/1000,77,109.0
3621,E4,270.0,583/1000,77,109.0
3622,B-2,270.5,0.25,70,109.0
3623,G4,270.75,1/10,69,109.0
3624,C4,270.75,1/10,69,109.0
3625,E4,270.75,1/10,69,109.0
3626,A1,271.0,0.25,80,109.0
3627,C2,271.0,0.25,67,109.0
3628,F2,271.0,0.25,72,109.0
3629,C5,271.1,9/10,73,109.0
3630,C2,271.25,0.5,80,109.0
3631,F#2,271.5,0.25,70,109.0
3632,G4,271.5,27/250,68,109.0
3633,C4,271.5,27/250,68,109.0
3634,E4,271.5,27/250,68,109.0
3635,D2,272.0,0.5,80,109.0
3636,C5,272.0,83/1000,73,109.0
3637,C2,272.0,0.25,67,109.0
3638,F#2,272.0,0.25,70,109.0
3639,A4,272.142,1579/500,77,109.0
3640,B-2,272.5,0.25,70,109.0
3641,G4,272.5,1/10,76,109.0
3642,C4,272.5,1/10,76,109.0
3643,E4,272.5,1/10,76,109.0
3644,D2,272.75,0.25,80,109.0
3645,A1,273.0,0.25,80,109.0
3646,C2,273.0,0.25,67,109.0
3647,F2,273.0,0.25,72,109.0
3648,A4,273.25,533/1000,74,109.0
3649,D4,273.25,229/500,74,109.0
3650,F#4,273.25,229/500,74,109.0
3651,F#2,273.5,0.25,70,109.0
3652,F#2,273.75,0.25,70,109.0
3653,C2,274.0,0.25,67,109.0
3654,G4,274.0,583/1000,77,109.0
3655,C4,274.0,583/1000,77,109.0
3656,E4,274.0,583/1000,77,109.0
3657,F4,274.0,1.0,60,109.0
3658,D4,274.0,1.0,60,109.0
3659,B-3,274.0,1.0,60,109.0
3660,B-2,274.5,0.25,70,109.0
3661,G4,274.75,1/10,69,109.0
3662,C4,274.75,1/10,69,109.0
3663,E4,274.75,1/10,69,109.0
3664,A1,275.0,0.25,80,109.0
3665,C2,275.0,0.25,67,109.0
3666,F2,275.0,0.25,72,109.0
3667,G4,275.0,1.0,60,109.0
3668,E4,275.0,1.0,60,109.0
3669,C4,275.0,1.0,60,109.0
3670,C2,275.25,0.5,80,109.0
3671,F#2,275.5,0.25,70,109.0
3672,G4,275.5,27/250,68,109.0
3673,C4,275.5,27/250,68,109.0
3674,E4,275.5,27/250,68,109.0
3675,D2,276.0,0.5,80,109.0
3676,C2,276.0,0.25,67,109.0
3677,F#2,276.0,0.25,70,109.0
3678,A4,276.0,1.0,60,109.0
3679,F#4,276.0,1.0,60,109.0
3680,D4,276.0,1.0,60,109.0
3681,B-2,276.5,0.25,70,109.0
3682,G4,276.5,1/10,76,109.0
3683,C4,276.5,1/10,76,109.0
3684,E4,276.5,1/10,76,109.0
3685,D2,276.75,0.25,80,109.0
3686,A1,277.0,0.25,80,109.0
3687,C2,277.0,0.25,67,109.0
3688,F2,277.0,0.25,72,109.0
3689,B4,277.0,1.0,60,109.0
3690,G#4,277.0,1.0,60,109.0
3691,E4,277.0,1.0,60,109.0
3692,A3,277.25,533/1000,64,109.0
3693,D4,277.25,229/500,74,109.0
3694,F#4,277.25,229/500,74,109.0
3695,F#2,277.5,0.25,70,109.0
3696,F#2,277.75,0.25,70,109.0
3697,C2,278.0,0.25,67,109.0
3698,E2,278.0,0.25,72,109.0
3699,G4,278.0,583/1000,77,109.0
3700,C4,278.0,583/1000,77,109.0
3701,E4,278.0,583/1000,77,109.0
3702,C#5,278.0,1.0,60,109.0
3703,B-4,278.0,1.0,60,109.0
3704,F#4,278.0,1.0,60,109.0
3705,B-2,278.5,0.25,70,109.0
3706,E2,278.75,0.125,52,109.0
3707,G4,278.75,1/10,69,109.0
3708,C4,278.75,1/10,69,109.0
3709,E4,278.75,1/10,69,109.0
3710,E2,278.875,0.125,52,109.0
3711,A1,279.0,0.25,80,109.0
3712,C2,279.0,0.25,67,109.0
3713,E2,279.0,0.125,72,109.0
3714,E-5,279.0,1.0,60,109.0
3715,C5,279.0,1.0,60,109.0
3716,G#4,279.0,1.0,60,109.0
3717,A3,279.083,129/500,91,109.0
3718,E2,279.25,0.125,72,109.0
3719,C2,279.5,0.25,80,109.0
3720,F#2,279.5,0.25,70,109.0
3721,F2,279.5,0.25,72,109.0
3722,G4,279.5,27/250,68,109.0
3723,C4,279.5,27/250,68,109.0
3724,E4,279.5,27/250,68,109.0
3725,C4,279.558,183/1000,100,109.0
3726,D2,280.0,7/10,80,109.0
3727,C2,280.0,0.25,67,109.0
3728,F#2,280.0,0.25,70,109.0
3729,E-4,280.0,0.25,44,109.0
3730,F#3,280.0,0.25,52,109.0
3731,E5,280.0,1.0,60,109.0
3732,C#5,280.0,1.0,60,109.0
3733,A4,280.0,1.0,60,109.0
3734,E4,280.075,9/40,80,109.0
3735,E4,280.25,24/125,70,109.0
3736,F#3,280.25,0.25,37,109.0
3737,F4,280.5,333/1000,76,109.0
3738,F#2,280.5,0.25,70,109.0
3739,E-4,280.5,0.25,21,109.0
3740,F#3,280.5,0.25,37,109.0
3741,G4,280.5,1/10,76,109.0
3742,C4,280.5,1/10,76,109.0
3743,E4,280.5,1/10,76,109.0
3744,D2,280.75,1/5,80,109.0
3745,E4,280.75,0.25,47,109.0
3746,F#3,280.75,0.25,37,109.0
3747,A1,281.0,173/250,80,109.0
3748,E4,281.0,233/1000,74,109.0
3749,C2,281.0,0.25,67,109.0
3750,F#2,281.0,0.25,70,109.0
3751,E2,281.0,0.25,72,109.0
3752,E-4,281.0,0.5,36,109.0
3753,F#3,281.0,0.25,52,109.0
3754,F#5,281.0,1.0,60,109.0
3755,E-5,281.0,1.0,60,109.0
3756,B4,281.0,1.0,60,109.0
3757,A4,281.25,533/1000,74,109.0
3758,F#3,281.25,0.25,37,109.0
3759,D4,281.25,229/500,74,109.0
3760,F#4,281.25,229/500,74,109.0
3761,F#2,281.5,0.25,70,109.0
3762,E4,281.5,0.25,50,109.0
3763,F#3,281.5,0.25,37,109.0
3764,D4,281.533,24/125,73,109.0
3765,C4,281.75,13/20,57,109.0
3766,F#2,281.75,0.25,70,109.0
3767,F#3,281.75,0.25,37,109.0
3768,D2,282.0,467/1000,80,109.0
3769,C2,282.0,0.25,67,109.0
3770,F#2,282.0,0.25,70,109.0
3771,E-4,282.0,0.25,33,109.0
3772,F#3,282.0,0.25,52,109.0
3773,G4,282.0,583/1000,77,109.0
3774,C4,282.0,583/1000,77,109.0
3775,E4,282.0,583/1000,77,109.0
3776,G5,282.0,4.0,60,109.0
3777,E5,282.0,4.0,60,109.0
3778,C5,282.0,4.0,60,109.0
3779,F#3,282.25,0.25,37,109.0
3780,F#2,282.5,0.25,70,109.0
3781,E-4,282.5,0.25,24,109.0
3782,F#3,282.5,0.25,37,109.0
3783,D4,282.525,26/125,68,109.0
3784,D2,282.75,1/5,80,109.0
3785,E4,282.75,0.25,47,109.0
3786,F#3,282.75,0.25,37,109.0
3787,G4,282.75,1/10,69,109.0
3788,C4,282.75,1/10,69,109.0
3789,E4,282.75,1/10,69,109.0
3790,A1,283.0,229/500,80,109.0
3791,C2,283.0,0.25,67,109.0
3792,F#2,283.0,0.25,70,109.0
3793,E2,283.0,0.25,72,109.0
3794,E-4,283.0,0.5,42,109.0
3795,F#3,283.0,0.25,52,109.0
3796,A3,283.067,26/125,60,109.0
3797,F#3,283.25,0.25,37,109.0
3798,C2,283.5,9/20,80,109.0
3799,F#2,283.5,0.25,70,109.0
3800,D4,283.5,0.5,61,109.0
3801,F#3,283.5,0.25,37,109.0
3802,G4,283.5,27/250,68,109.0
3803,C4,283.5,27/250,68,109.0
3804,E4,283.5,27/250,68,109.0
3805,C4,283.567,26/125,68,109.0
3806,F#2,283.75,0.25,70,109.0
3807,F#3,283.75,0.25,37,109.0
3808,D2,284.0,7/10,80,109.0
3809,C2,284.0,0.25,67,109.0
3810,F#2,284.0,0.25,70,109.0
3811,E-4,284.0,0.25,31,109.0
3812,F#3,284.0,0.25,52,109.0
3813,E4,284.058,9/40,78,109.0
3814,E4,284.25,26/125,67,109.0
3815,F#3,284.25,0.25,37,109.0
3816,E4,284.5,171/500,68,109.0
3817,F#2,284.5,0.25,70,109.0
3818,E-4,284.5,0.25,21,109.0
3819,F#3,284.5,0.25,37,109.0
3820,G4,284.5,1/10,76,109.0
3821,C4,284.5,1/10,76,109.0
3822,E4,284.5,1/10,76,109.0
3823,D2,284.75,1/5,80,109.0
3824,E4,284.75,0.25,39,109.0
3825,F#3,284.75,0.25,37,109.0
3826,A1,285.0,7/10,80,109.0
3827,E4,285.0,233/1000,72,109.0
3828,C2,285.0,0.25,67,109.0
3829,F#2,285.0,0.25,70,109.0
3830,E2,285.0,0.25,72,109.0
3831,E-4,285.0,0.5,29,109.0
3832,F#3,285.0,0.25,52,109.0
3833,A3,285.25,533/1000,64,109.0
3834,F#3,285.25,0.25,37,109.0
3835,D4,285.25,229/500,74,109.0
3836,F#4,285.25,229/500,74,109.0
3837,D4,285.5,26/125,69,109.0
3838,F#2,285.5,0.25,70,109.0
3839,E4,285.5,0.25,56,109.0
3840,F#3,285.5,0.25,37,109.0
3841,C4,285.75,13/20,54,109.0
3842,F#2,285.75,0.25,70,109.0
3843,F#3,285.75,0.25,37,109.0
3844,D2,286.0,9/20,80,109.0
3845,C4,286.0,19/40,80,109.0
3846,C2,286.0,0.25,67,109.0
3847,F#2,286.0,0.25,70,109.0
3848,E-4,286.0,0.25,29,109.0
3849,F#3,286.0,0.25,52,109.0
3850,F3,286.0,0.5,60,109.0
3851,A3,286.0,0.5,60,109.0
3852,F#3,286.25,0.25,37,109.0
3853,D4,286.5,7/40,66,109.0
3854,F#2,286.5,0.25,70,109.0
3855,E-4,286.5,0.25,25,109.0
3856,F#3,286.5,0.25,37,109.0
3857,D2,286.75,1/5,80,109.0
3858,F#3,286.75,0.25,37,109.0
3859,F3,286.75,27/250,61,109.0
3860,A3,286.75,27/250,61,109.0
3861,C4,286.75,27/250,61,109.0
3862,C2,287.0,467/1000,80,109.0
3863,A3,287.0,11/40,66,109.0
3864,C2,287.0,0.25,67,109.0
3865,F#2,287.0,0.25,70,109.0
3866,E2,287.0,0.25,72,109.0
3867,E-4,287.0,0.25,33,109.0
3868,F#3,287.0,0.25,52,109.0
3869,F#3,287.25,0.25,37,109.0
3870,A1,287.5,229/500,80,109.0
3871,F#2,287.5,0.25,70,109.0
3872,D4,287.5,0.25,61,109.0
3873,F#3,287.5,0.25,37,109.0
3874,F3,287.517,117/1000,67,109.0
3875,A3,287.517,117/1000,67,109.0
3876,C4,287.517,117/1000,67,109.0
3877,C4,287.55,9/40,69,109.0
3878,F#2,287.75,0.25,70,109.0
3879,F#3,287.75,0.25,37,109.0
3880,B-1,288.0,7/10,80,109.0
3881,C2,288.0,0.25,67,109.0
3882,F#2,288.0,0.25,70,109.0
3883,E-4,288.0,0.25,36,109.0
3884,F#3,288.0,0.25,52,109.0
3885,C#4,288.075,0.375,76,109.0
3886,F#3,288.25,0.25,37,109.0
3887,F#2,288.5,0.25,70,109.0
3888,E-4,288.5,0.25,18,109.0
3889,F#3,288.5,0.25,37,109.0
3890,F3,288.5,27/250,57,109.0
3891,A3,288.5,27/250,57,109.0
3892,C4,288.5,27/250,57,109.0
3893,F4,288.575,7/40,53,109.0
3894,B-1,288.75,1/5,80,109.0
3895,E4,288.75,0.25,29,109.0
3896,F#3,288.75,0.25,37,109.0
3897,G4,288.875,7/40,53,109.0
3898,F1,289.0,9/20,80,109.0
3899,C2,289.0,0.25,67,109.0
3900,F#2,289.0,0.25,70,109.0
3901,E2,289.0,0.25,72,109.0
3902,E-4,289.0,0.5,29,109.0
3903,F#3,289.0,0.25,52,109.0
3904,D4,289.25,233/1000,53,109.0
3905,F#3,289.25,0.25,37,109.0
3906,F3,289.267,117/1000,71,109.0
3907,A3,289.267,117/1000,71,109.0
3908,C4,289.267,117/1000,71,109.0
3909,F#2,289.5,0.25,70,109.0
3910,E4,289.5,0.25,47,109.0
3911,F#3,289.5,0.25,37,109.0
3912,F4,289.617,57/40,66,109.0
3913,F#2,289.75,0.25,70,109.0
3914,F#3,289.75,0.25,37,109.0
3915,B-1,290.0,229/500,80,109.0
3916,C2,290.0,0.25,67,109.0
3917,F#2,290.0,0.25,70,109.0
3918,E-4,290.0,0.25,29,109.0
3919,F#3,290.0,0.25,52,109.0
3920,F3,290.008,617/1000,79,109.0
3921,A3,290.008,617/1000,79,109.0
3922,C4,290.008,617/1000,79,109.0
3923,F#3,290.25,0.25,37,109.0
3924,F#2,290.5,0.25,70,109.0
3925,E-4,290.5,0.25,18,109.0
3926,F#3,290.5,0.25,37,109.0
3927,B-1,290.75,1/5,80,109.0
3928,E4,290.75,0.25,50,109.0
3929,F#3,290.75,0.25,37,109.0
3930,F3,290.75,0.125,69,109.0
3931,A3,290.75,0.125,69,109.0
3932,C4,290.75,0.125,69,109.0
3933,F1,291.0,229/500,80,109.0
3934,C2,291.0,0.25,67,109.0
3935,F#2,291.0,0.25,70,109.0
3936,E2,291.0,0.25,72,109.0
3937,E-4,291.0,0.5,50,109.0
3938,F#3,291.0,0.25,52,109.0
3939,F#3,291.25,0.25,37,109.0
3940,G#1,291.5,9/20,80,109.0
3941,D4,291.5,233/1000,86,109.0
3942,F#2,291.5,0.25,70,109.0
3943,D4,291.5,0.5,56,109.0
3944,F#3,291.5,0.25,37,109.0
3945,F3,291.5,0.125,73,109.0
3946,A3,291.5,0.125,73,109.0
3947,C4,291.5,0.125,73,109.0
3948,F4,291.75,0.25,88,109.0
3949,F#2,291.75,0.25,70,109.0
3950,F#3,291.75,0.25,37,109.0
3951,B-1,292.0,229/500,80,109.0
3952,G#4,292.0,9/40,88,109.0
3953,F4,292.0,71/500,88,109.0
3954,C2,292.0,0.25,67,109.0
3955,F#2,292.0,0.25,70,109.0
3956,E-4,292.0,0.25,29,109.0
3957,F#3,292.0,0.25,52,109.0
3958,F4,292.0,0.25,80,109.0
3959,D4,292.0,0.25,80,109.0
3960,B-2,292.0,0.25,80,109.0
3961,A4,292.0,0.25,80,109.0
3962,C5,292.25,233/1000,72,109.0
3963,F#3,292.25,0.25,37,109.0
3964,B-1,292.5,217/1000,80,109.0
3965,C5,292.5,26/125,63,109.0
3966,F#2,292.5,0.25,70,109.0
3967,E-4,292.5,0.25,24,109.0
3968,F#3,292.5,0.25,37,109.0
3969,F3,292.5,23/250,80,109.0
3970,A3,292.5,23/250,80,109.0
3971,C4,292.5,23/250,80,109.0
3972,B-2,292.5,0.25,80,109.0
3973,F4,292.5,0.25,80,109.0
3974,D4,292.5,0.25,80,109.0
3975,A4,292.5,0.25,80,109.0
3976,C5,292.75,1/5,56,109.0
3977,E4,292.75,0.25,29,109.0
3978,F#3,292.75,0.25,37,109.0
3979,A1,293.0,229/500,80,109.0
3980,A4,293.0,26/125,68,109.0
3981,C2,293.0,0.25,67,109.0
3982,F#2,293.0,0.25,70,109.0
3983,E2,293.0,0.25,72,109.0
3984,E-4,293.0,0.25,27,109.0
3985,F#3,293.0,0.25,52,109.0
3986,E4,293.0,0.25,80,109.0
3987,C4,293.0,0.25,80,109.0
3988,A2,293.0,0.25,80,109.0
3989,G4,293.0,0.25,80,109.0
3990,F#3,293.25,0.25,37,109.0
3991,F3,293.25,27/250,76,109.0
3992,A3,293.25,27/250,76,109.0
3993,C4,293.25,27/250,76,109.0
3994,C5,293.5,1/5,63,109.0
3995,F#2,293.5,0.25,70,109.0
3996,E4,293.5,0.25,23,109.0
3997,F#3,293.5,0.25,37,109.0
3998,G1,293.75,7/10,80,109.0
3999,A4,293.75,833/1000,72,109.0
4000,F#2,293.75,0.25,70,109.0
4001,E2,293.75,0.25,72,109.0
4002,F#3,293.75,0.25,37,109.0
4003,D4,293.75,0.75,80,109.0
4004,F4,293.75,0.75,80,109.0
4005,B-3,293.75,0.75,80,109.0
4006,G2,293.75,0.75,80,109.0
4007,C2,294.0,0.25,67,109.0
4008,B-2,294.0,0.25,70,109.0
4009,E-4,294.0,0.25,23,109.0
4010,F#3,294.0,0.25,52,109.0
4011,F3,294.058,567/1000,67,109.0
4012,A3,294.058,567/1000,67,109.0
4013,D4,294.058,567/1000,67,109.0
4014,F#3,294.25,0.25,37,109.0
4015,A1,294.5,217/1000,80,109.0
4016,F#3,294.5,0.25,37,109.0
4017,A2,294.5,0.25,80,109.0
4018,E4,294.5,0.25,80,109.0
4019,G4,294.5,0.25,80,109.0
4020,C4,294.5,0.25,80,109.0
4021,F#3,294.75,0.25,37,109.0
4022,A3,294.783,27/250,64,109.0
4023,F3,294.783,27/250,64,109.0
4024,D4,294.783,27/250,64,109.0
4025,B-1,295.0,467/1000,80,109.0
4026,C2,295.0,0.25,67,109.0
4027,E2,295.0,0.25,72,109.0
4028,F#3,295.0,0.25,52,109.0
4029,B-2,295.0,0.25,80,109.0
4030,F4,295.0,0.25,80,109.0
4031,A4,295.0,0.25,80,109.0
4032,D4,295.0,0.25,80,109.0
4033,F#3,295.25,0.25,37,109.0
4034,A3,295.492,0.25,74,109.0
4035,A1,295.5,383/1000,80,109.0
4036,F#2,295.5,0.25,70,109.0
4037,F#3,295.5,0.25,37,109.0
4038,A3,295.5,71/500,56,109.0
4039,F3,295.5,71/500,56,109.0
4040,D4,295.5,71/500,56,109.0
4041,C4,295.5,0.25,80,109.0
4042,E4,295.5,0.25,80,109.0
4043,A2,295.5,0.25,80,109.0
4044,G3,295.5,0.25,80,109.0
4045,F#2,295.75,0.25,70,109.0
4046,F#3,295.75,0.25,37,109.0
4047,C4,295.783,217/1000,68,109.0
4048,D2,296.0,7/10,80,109.0
4049,E4,296.0,121/500,86,109.0
4050,C4,296.0,33/1000,68,109.0
4051,C2,296.0,0.25,67,109.0
4052,F#2,296.0,0.25,70,109.0
4053,E-4,296.0,0.25,47,109.0
4054,F#3,296.0,0.25,52,109.0
4055,G5,296.0,4.0,60,109.0
4056,E5,296.0,4.0,60,109.0
4057,C5,296.0,4.0,60,109.0
4058,F4,296.0,0.75,90,109.0
4059,C4,296.0,0.75,90,109.0
4060,A4,296.0,0.75,90,109.0
4061,E4,296.25,24/125,75,109.0
4062,F#3,296.25,0.25,37,109.0
4063,F4,296.5,121/500,70,109.0
4064,F#2,296.5,0.25,70,109.0
4065,E-4,296.5,0.25,23,109.0
4066,F#3,296.5,0.25,37,109.0
4067,F3,296.5,27/250,63,109.0
4068,A3,296.5,27/250,63,109.0
4069,D4,296.5,27/250,63,109.0
4070,D2,296.75,1/5,80,109.0
4071,E4,296.75,0.25,47,109.0
4072,F#3,296.75,0.25,37,109.0
4073,A1,297.0,173/250,80,109.0
4074,E4,297.0,121/500,79,109.0
4075,C2,297.0,0.25,67,109.0
4076,F#2,297.0,0.25,70,109.0
4077,E2,297.0,0.25,72,109.0
4078,E-4,297.0,0.5,33,109.0
4079,F#3,297.0,0.25,52,109.0
4080,F#3,297.25,0.25,37,109.0
4081,F3,297.25,23/250,69,109.0
4082,A3,297.25,23/250,69,109.0
4083,D4,297.25,23/250,69,109.0
4084,D4,297.5,121/500,80,109.0
4085,F#2,297.5,0.25,70,109.0
4086,E4,297.5,0.5,44,109.0
4087,F#3,297.5,0.25,37,109.0
4088,C4,297.75,13/20,82,109.0
4089,F#2,297.75,0.25,70,109.0
4090,F#3,297.75,0.25,37,109.0
4091,D2,298.0,467/1000,80,109.0
4092,C2,298.0,0.25,67,109.0
4093,F#2,298.0,0.25,70,109.0
4094,E-4,298.0,0.25,25,109.0
4095,F#3,298.0,0.25,52,109.0
4096,A3,298.0,9/40,88,109.0
4097,D4,298.0,9/40,88,109.0
4098,F4,298.0,9/40,88,109.0
4099,F#3,298.25,0.25,37,109.0
4100,D4,298.483,24/125,81,109.0
4101,F#2,298.5,0.25,70,109.0
4102,E-4,298.5,0.25,25,109.0
4103,F#3,298.5,0.25,37,109.0
4104,A3,298.5,9/40,88,109.0
4105,D4,298.5,9/40,88,109.0
4106,F4,298.5,9/40,88,109.0
4107,D2,298.75,1/5,80,109.0
4108,E4,298.75,0.25,50,109.0
4109,F#3,298.75,0.25,37,109.0
4110,A1,299.0,229/500,80,109.0
4111,C2,299.0,0.25,67,109.0
4112,F#2,299.0,0.25,70,109.0
4113,E2,299.0,0.25,72,109.0
4114,E-4,299.0,0.5,42,109.0
4115,F#3,299.0,0.25,52,109.0
4116,G3,299.0,9/40,88,109.0
4117,C4,299.0,9/40,88,109.0
4118,E4,299.0,9/40,88,109.0
4119,F#3,299.25,0.25,37,109.0
4120,A4,299.392,233/1000,85,109.0
4121,C2,299.5,9/20,80,109.0
4122,F#2,299.5,0.25,70,109.0
4123,D4,299.5,0.5,56,109.0
4124,F#3,299.5,0.25,37,109.0
4125,C5,299.717,0.25,96,109.0
4126,F#2,299.75,0.25,70,109.0
4127,F#3,299.75,0.25,37,109.0
4128,F3,299.75,0.5,68,109.0
4129,B-3,299.75,0.5,68,109.0
4130,D4,299.75,0.5,68,109.0
4131,D2,300.0,7/10,80,109.0
4132,E5,300.0,7/20,88,109.0
4133,C2,300.0,0.25,67,109.0
4134,F#2,300.0,0.25,70,109.0
4135,E-4,300.0,0.25,31,109.0
4136,F#3,300.0,0.25,52,109.0
4137,C5,300.0,4.0,60,109.0
4138,E5,300.0,4.0,60,109.0
4139,G5,300.0,4.0,60,109.0
4140,F#3,300.25,0.25,37,109.0
4141,F5,300.5,7/40,73,109.0
4142,F#2,300.5,0.25,70,109.0
4143,E-4,300.5,0.25,22,109.0
4144,F#3,300.5,0.25,37,109.0
4145,G3,300.5,0.25,68,109.0
4146,C4,300.5,0.25,68,109.0
4147,E4,300.5,0.25,68,109.0
4148,D2,300.75,1/5,80,109.0
4149,E5,300.75,11/40,65,109.0
4150,E4,300.75,0.25,44,109.0
4151,F#3,300.75,0.25,37,109.0
4152,A1,301.0,7/10,80,109.0
4153,C2,301.0,0.25,67,109.0
4154,F#2,301.0,0.25,70,109.0
4155,E2,301.0,0.25,72,109.0
4156,E-4,301.0,0.5,31,109.0
4157,F#3,301.0,0.25,52,109.0
4158,A3,301.0,0.25,68,109.0
4159,D4,301.0,0.25,68,109.0
4160,F4,301.0,0.25,68,109.0
4161,D5,301.25,1/5,73,109.0
4162,F#3,301.25,0.25,37,109.0
4163,C5,301.5,1033/1000,66,109.0
4164,F#2,301.5,0.25,70,109.0
4165,E4,301.5,0.5,50,109.0
4166,F#3,301.5,0.25,37,109.0
4167,G3,301.5,0.25,68,109.0
4168,C4,301.5,0.25,68,109.0
4169,E4,301.5,0.25,68,109.0
4170,F#2,301.75,0.25,70,109.0
4171,F#3,301.75,0.25,37,109.0
4172,D2,302.0,9/20,80,109.0
4173,C4,302.0,19/40,80,109.0
4174,C2,302.0,0.25,67,109.0
4175,F#2,302.0,0.25,70,109.0
4176,E-4,302.0,0.25,36,109.0
4177,F#3,302.0,0.25,52,109.0
4178,F3,302.0,0.5,60,109.0
4179,A3,302.0,0.5,60,109.0
4180,F#3,302.25,0.25,37,109.0
4181,F#2,302.5,0.25,70,109.0
4182,E-4,302.5,0.25,24,109.0
4183,F#3,302.5,0.25,37,109.0
4184,D2,302.75,1/5,80,109.0
4185,E4,302.75,0.25,50,109.0
4186,F#3,302.75,0.25,37,109.0
4187,F3,302.75,27/250,61,109.0
4188,A3,302.75,27/250,61,109.0
4189,C4,302.75,27/250,61,109.0
4190,C2,303.0,467/1000,80,109.0
4191,A4,303.0,167/1000,73,109.0
4192,C2,303.0,0.25,67,109.0
4193,F#2,303.0,0.25,70,109.0
4194,E2,303.0,0.25,72,109.0
4195,E-4,303.0,0.5,33,109.0
4196,F#3,303.0,0.25,52,109.0
4197,G4,303.167,167/1000,73,109.0
4198,F#3,303.25,0.25,37,109.0
4199,F4,303.333,167/1000,73,109.0
4200,A1,303.5,229/500,80,109.0
4201,D4,303.5,0.5,73,109.0
4202,F#2,303.5,0.25,70,109.0
4203,D4,303.5,0.5,56,109.0
4204,F#3,303.5,0.25,37,109.0
4205,F3,303.517,117/1000,67,109.0
4206,A3,303.517,117/1000,67,109.0
4207,C4,303.517,117/1000,67,109.0
4208,F#2,303.75,0.25,70,109.0
4209,F#3,303.75,0.25,37,109.0
4210,B-1,304.0,7/10,80,109.0
4211,C2,304.0,0.25,67,109.0
4212,F#2,304.0,0.25,70,109.0
4213,E-4,304.0,0.25,25,109.0
4214,F#3,304.0,0.25,52,109.0
4215,E4,304.075,433/1000,74,109.0
4216,F#3,304.25,0.25,37,109.0
4217,F#2,304.5,0.25,70,109.0
4218,E-4,304.5,0.25,25,109.0
4219,F#3,304.5,0.25,37,109.0
4220,F3,304.5,27/250,57,109.0
4221,A3,304.5,27/250,57,109.0
4222,C4,304.5,27/250,57,109.0
4223,G4,304.575,167/1000,65,109.0
4224,B-1,304.75,1/5,80,109.0
4225,F#3,304.75,0.25,37,109.0
4226,F4,304.808,167/1000,62,109.0
4227,F1,305.0,9/20,80,109.0
4228,C2,305.0,0.25,67,109.0
4229,F#2,305.0,0.25,70,109.0
4230,E2,305.0,0.25,72,109.0
4231,E4,305.0,0.25,29,109.0
4232,E-4,305.0,0.5,29,109.0
4233,F#3,305.0,0.25,52,109.0
4234,A4,305.017,121/500,57,109.0
4235,F#3,305.25,0.25,37,109.0
4236,F3,305.267,117/1000,71,109.0
4237,A3,305.267,117/1000,71,109.0
4238,C4,305.267,117/1000,71,109.0
4239,G4,305.283,26/125,74,109.0
4240,F#2,305.5,0.25,70,109.0
4241,E4,305.5,0.25,50,109.0
4242,F#3,305.5,0.25,37,109.0
4243,F4,305.542,9/40,58,109.0
4244,F#2,305.75,0.25,70,109.0
4245,F#3,305.75,0.25,37,109.0
4246,B-1,306.0,229/500,80,109.0
4247,C2,306.0,0.25,67,109.0
4248,F#2,306.0,0.25,70,109.0
4249,E-4,306.0,0.25,24,109.0
4250,F#3,306.0,0.25,52,109.0
4251,G5,306.0,4.0,60,109.0
4252,E5,306.0,4.0,60,109.0
4253,C5,306.0,4.0,60,109.0
4254,F3,306.008,617/1000,79,109.0
4255,A3,306.008,617/1000,79,109.0
4256,C4,306.008,617/1000,79,109.0
4257,F4,306.042,9/40,72,109.0
4258,G4,306.25,26/125,84,109.0
4259,F#3,306.25,0.25,37,109.0
4260,F#2,306.5,0.25,70,109.0
4261,E-4,306.5,0.25,23,109.0
4262,F#3,306.5,0.25,37,109.0
4263,B-1,306.75,1/5,80,109.0
4264,F4,306.75,7/40,76,109.0
4265,E4,306.75,0.25,47,109.0
4266,F#3,306.75,0.25,37,109.0
4267,F3,306.75,0.125,69,109.0
4268,A3,306.75,0.125,69,109.0
4269,C4,306.75,0.125,69,109.0
4270,F1,307.0,229/500,80,109.0
4271,C2,307.0,0.25,67,109.0
4272,F#2,307.0,0.25,70,109.0
4273,E2,307.0,0.25,72,109.0
4274,E-4,307.0,0.5,39,109.0
4275,F#3,307.0,0.25,52,109.0
4276,F#3,307.25,0.25,37,109.0
4277,D4,307.308,26/125,64,109.0
4278,G#1,307.5,9/20,80,109.0
4279,F#2,307.5,0.25,70,109.0
4280,D4,307.5,0.5,56,109.0
4281,F#3,307.5,0.25,37,109.0
4282,F3,307.5,0.125,73,109.0
4283,A3,307.5,0.125,73,109.0
4284,C4,307.5,0.125,73,109.0
4285,F#2,307.75,0.25,70,109.0
4286,F#3,307.75,0.25,37,109.0
4287,C4,307.775,9/40,60,109.0
4288,B-1,308.0,177/250,80,109.0
4289,C4,308.0,483/1000,60,109.0
4290,C2,308.0,0.25,67,109.0
4291,F#2,308.0,0.25,70,109.0
4292,E-4,308.0,0.25,33,109.0
4293,F#3,308.0,0.25,52,109.0
4294,F#3,308.25,0.25,37,109.0
4295,F#2,308.5,0.25,70,109.0
4296,E-4,308.5,0.25,23,109.0
4297,F#3,308.5,0.25,37,109.0
4298,F3,308.5,23/250,80,109.0
4299,A3,308.5,23/250,80,109.0
4300,C4,308.5,23/250,80,109.0
4301,D4,308.567,183/1000,70,109.0
4302,B-1,308.75,217/1000,80,109.0
4303,E4,308.75,0.25,42,109.0
4304,F#3,308.75,0.25,37,109.0
4305,F1,309.0,229/500,80,109.0
4306,C2,309.0,0.25,67,109.0
4307,F#2,309.0,0.25,70,109.0
4308,E2,309.0,0.25,72,109.0
4309,E-4,309.0,0.5,36,109.0
4310,F#3,309.0,0.25,52,109.0
4311,G#3,309.05,0.25,70,109.0
4312,F#3,309.25,0.25,37,109.0
4313,F3,309.25,27/250,76,109.0
4314,A3,309.25,27/250,76,109.0
4315,C4,309.25,27/250,76,109.0
4316,C4,309.342,1/5,57,109.0
4317,F#2,309.5,0.25,70,109.0
4318,E4,309.5,0.25,44,109.0
4319,F#3,309.5,0.25,37,109.0
4320,G3,309.567,26/125,64,109.0
4321,G1,309.75,7/10,80,109.0
4322,F#2,309.75,0.25,70,109.0
4323,F#3,309.75,0.25,37,109.0
4324,G3,309.8,1617/1000,72,109.0
4325,F#2,310.0,0.25,70,109.0
4326,E2,310.0,0.25,72,109.0
4327,E-4,310.0,0.25,31,109.0
4328,F#3,310.0,0.25,52,109.0
4329,F3,310.058,567/1000,67,109.0
4330,A3,310.058,567/1000,67,109.0
4331,D4,310.058,567/1000,67,109.0
4332,F#3,310.25,0.25,37,109.0
4333,A1,310.5,217/1000,80,109.0
4334,F#2,310.5,0.25,70,109.0
4335,E-4,310.5,0.25,27,109.0
4336,F#3,310.5,0.25,37,109.0
4337,E2,310.75,0.125,40,109.0
4338,E4,310.75,0.25,39,109.0
4339,F#3,310.75,0.25,37,109.0
4340,A3,310.783,27/250,64,109.0
4341,F3,310.783,27/250,64,109.0
4342,D4,310.783,27/250,64,109.0
4343,E2,310.875,0.125,40,109.0
4344,A1,311.0,467/1000,80,109.0
4345,F#2,311.0,0.25,70,109.0
4346,E2,311.0,0.25,56,109.0
4347,E-4,311.0,0.5,44,109.0
4348,F#3,311.0,0.25,52,109.0
4349,E2,311.25,0.25,72,109.0
4350,F#3,311.25,0.25,37,109.0
4351,C2,311.5,229/500,80,109.0
4352,F#2,311.5,0.25,70,109.0
4353,G2,311.5,0.25,80,109.0
4354,D4,311.5,0.25,56,109.0
4355,F#3,311.5,0.25,37,109.0
4356,A3,311.5,71/500,56,109.0
4357,F3,311.5,71/500,56,109.0
4358,D4,311.5,71/500,56,109.0
4359,F#2,311.75,0.25,70,109.0
4360,F#3,311.75,0.25,37,109.0
4361,G1,312.0,177/250,80,109.0
4362,C2,312.0,0.25,67,109.0
4363,F#2,312.0,0.25,70,109.0
4364,C#3,312.0,1.0,66,109.0
4365,E-4,312.0,0.25,25,109.0
4366,F#3,312.0,0.25,52,109.0
4367,G5,312.0,2.0,60,109.0
4368,E5,312.0,2.0,60,109.0
4369,C5,312.0,2.0,60,109.0
4370,F#3,312.25,0.25,37,109.0
4371,B-2,312.5,0.25,70,109.0
4372,E-4,312.5,0.25,25,109.0
4373,F#3,312.5,0.25,37,109.0
4374,F3,312.5,27/250,63,109.0
4375,A3,312.5,27/250,63,109.0
4376,D4,312.5,27/250,63,109.0
4377,F#3,312.75,0.25,37,109.0
4378,G1,313.0,229/500,80,109.0
4379,E2,313.0,0.25,64,109.0
4380,E4,313.0,0.25,29,109.0
4381,E-4,313.0,0.5,29,109.0
4382,F#3,313.0,0.25,52,109.0
4383,G#4,313.075,217/1000,92,109.0
4384,F#3,313.25,0.25,37,109.0
4385,F3,313.25,23/250,69,109.0
4386,A3,313.25,23/250,69,109.0
4387,D4,313.25,23/250,69,109.0
4388,C5,313.342,183/1000,70,109.0
4389,A1,313.5,151/125,80,109.0
4390,C2,313.5,0.25,67,109.0
4391,F#2,313.5,0.25,70,109.0
4392,E4,313.5,0.25,50,109.0
4393,F#3,313.5,0.25,37,109.0
4394,C5,313.575,0.25,62,109.0
4395,A4,313.75,79/500,82,109.0
4396,F#2,313.75,0.25,70,109.0
4397,F#3,313.75,0.25,37,109.0
4398,C5,314.0,171/500,66,109.0
4399,C2,314.0,0.25,67,109.0
4400,E-4,314.0,0.25,24,109.0
4401,F#3,314.0,0.25,52,109.0
4402,A3,314.033,3/5,85,109.0
4403,F3,314.033,3/5,85,109.0
4404,D4,314.033,3/5,85,109.0
4405,F#3,314.25,0.25,37,109.0
4406,D5,314.5,1/5,78,109.0
4407,B-2,314.5,0.25,70,109.0
4408,E-4,314.5,0.25,23,109.0
4409,F#3,314.5,0.25,37,109.0
4410,E4,314.75,0.25,47,109.0
4411,F#3,314.75,0.25,37,109.0
4412,C4,314.75,0.25,56,109.0
4413,G3,314.75,0.25,56,109.0
4414,E3,314.75,0.25,56,109.0
4415,G#4,314.858,433/1000,74,109.0
4416,A1,315.0,229/500,80,109.0
4417,E2,315.0,0.25,64,109.0
4418,E-4,315.0,0.5,39,109.0
4419,F#3,315.0,0.25,52,109.0
4420,F#3,315.25,0.25,37,109.0
4421,F4,315.358,3/20,65,109.0
4422,B-1,315.5,0.5,80,109.0
4423,C2,315.5,0.25,67,109.0
4424,F#2,315.5,0.25,70,109.0
4425,D4,315.5,0.5,56,109.0
4426,F#3,315.5,0.25,37,109.0
4427,D4,315.583,417/1000,67,109.0
4428,F#3,315.75,0.25,37,109.0
4429,F3,315.75,0.5,68,109.0
4430,B-3,315.75,0.5,68,109.0
4431,D4,315.75,0.5,68,109.0
4432,B-1,316.0,177/250,80,109.0
4433,D4,316.0,0.75,67,109.0
4434,C2,316.0,0.25,67,109.0
4435,F#2,316.0,0.25,70,109.0
4436,E-4,316.0,0.25,33,109.0
4437,F#3,316.0,0.25,52,109.0
4438,C5,316.0,4.0,60,109.0
4439,E5,316.0,4.0,60,109.0
4440,G5,316.0,4.0,60,109.0
4441,F#3,316.25,0.25,37,109.0
4442,B-2,316.5,0.25,70,109.0
4443,E-4,316.5,0.25,23,109.0
4444,F#3,316.5,0.25,37,109.0
4445,G3,316.5,0.25,68,109.0
4446,C4,316.5,0.25,68,109.0
4447,E4,316.5,0.25,68,109.0
4448,E4,316.75,0.25,42,109.0
4449,F#3,316.75,0.25,37,109.0
4450,B-1,317.0,229/500,80,109.0
4451,E2,317.0,0.25,64,109.0
4452,E-4,317.0,0.5,36,109.0
4453,F#3,317.0,0.25,52,109.0
4454,F3,317.0,0.25,68,109.0
4455,B-3,317.0,0.25,68,109.0
4456,D4,317.0,0.25,68,109.0
4457,F#3,317.25,0.25,37,109.0
4458,C2,317.5,479/500,80,109.0
4459,C2,317.5,0.25,67,109.0
4460,F#2,317.5,0.25,70,109.0
4461,E4,317.5,0.25,44,109.0
4462,F#3,317.5,0.25,37,109.0
4463,F#2,317.75,0.25,70,109.0
4464,F#3,317.75,0.25,37,109.0
4465,C2,318.0,0.25,67,109.0
4466,E-4,318.0,0.25,31,109.0
4467,F#3,318.0,0.25,52,109.0
4468,B-3,318.0,1.5,63,109.0
4469,D4,318.0,1.5,63,109.0
4470,F3,318.0,1.5,63,109.0
4471,F#3,318.25,0.25,37,109.0
4472,C4,318.283,129/500,84,109.0
4473,B-2,318.5,0.25,70,109.0
4474,E-4,318.5,0.25,27,109.0
4475,F#3,318.5,0.25,37,109.0
4476,E4,318.75,0.25,39,109.0
4477,F#3,318.75,0.25,37,109.0
4478,C4,318.833,183/1000,74,109.0
4479,E2,319.0,0.25,64,109.0
4480,E-4,319.0,0.5,44,109.0
4481,F#3,319.0,0.25,52,109.0
4482,F#3,319.25,0.25,37,109.0
4483,C4,319.35,183/1000,82,109.0
4484,D2,319.5,0.5,80,109.0
4485,C2,319.5,0.25,67,109.0
4486,F#2,319.5,0.25,70,109.0
4487,C#3,319.5,0.5,66,109.0
4488,D4,319.5,0.25,56,109.0
4489,F#3,319.5,0.25,37,109.0
4490,C4,319.5,2.0,55,109.0
4491,G3,319.5,2.0,55,109.0
4492,E4,319.5,2.0,55,109.0
4493,F#3,319.75,0.25,37,109.0
4494,C4,319.842,79/500,70,109.0
4495,D2,320.0,151/125,80,109.0
4496,C4,320.0,1/40,70,109.0
4497,C2,320.0,0.25,67,109.0
4498,F#2,320.0,0.25,70,109.0
4499,E-4,320.0,0.25,25,109.0
4500,F#3,320.0,0.25,52,109.0
4501,D4,320.092,0.25,96,109.0
4502,F#3,320.25,0.25,37,109.0
4503,D4,320.4,71/500,66,109.0
4504,B-2,320.5,0.25,70,109.0
4505,E-4,320.5,0.25,25,109.0
4506,F#3,320.5,0.25,37,109.0
4507,E4,320.592,233/1000,66,109.0
4508,F#3,320.75,0.25,37,109.0
4509,E2,321.0,0.25,64,109.0
4510,E4,321.0,0.25,29,109.0
4511,E-4,321.0,0.5,29,109.0
4512,F#3,321.0,0.25,52,109.0
4513,F#4,321.083,24/125,91,109.0
4514,F#3,321.25,0.25,37,109.0
4515,F#4,321.342,71/500,74,109.0
4516,D3,321.5,26/125,68,109.0
4517,C2,321.5,0.25,67,109.0
4518,F#2,321.5,0.25,70,109.0
4519,E4,321.5,0.25,50,109.0
4520,F#3,321.5,0.25,37,109.0
4521,F4,321.5,0.5,63,109.0
4522,A3,321.5,0.5,63,109.0
4523,D4,321.5,0.5,63,109.0
4524,A4,321.583,183/1000,94,109.0
4525,E3,321.75,0.25,60,109.0
4526,F#2,321.75,0.25,70,109.0
4527,F#3,321.75,0.25,37,109.0
4528,D3,322.0,73/250,68,109.0
4529,C2,322.0,0.25,67,109.0
4530,E-4,322.0,0.25,24,109.0
4531,F#3,322.0,0.25,52,109.0
4532,B4,322.058,26/125,89,109.0
4533,F#3,322.25,0.25,37,109.0
4534,B4,322.317,23/250,73,109.0
4535,A2,322.5,233/1000,47,109.0
4536,B-2,322.5,0.25,70,109.0
4537,E-4,322.5,0.25,23,109.0
4538,F#3,322.5,0.25,37,109.0
4539,C#5,322.558,121/500,86,109.0
4540,B2,322.75,1/5,56,109.0
4541,E4,322.75,0.25,47,109.0
4542,F#3,322.75,0.25,37,109.0
4543,D5,322.85,167/1000,74,109.0
4544,A2,323.0,0.5,80,109.0
4545,E2,323.0,0.25,64,109.0
4546,E-4,323.0,0.5,39,109.0
4547,F#3,323.0,0.25,52,109.0
4548,F#3,323.25,0.25,37,109.0
4549,E4,323.483,121/500,98,109.0
4550,D2,323.5,0.5,80,109.0
4551,C2,323.5,0.25,67,109.0
4552,F#2,323.5,0.25,70,109.0
4553,D4,323.5,0.5,56,109.0
4554,F#3,323.5,0.25,37,109.0
4555,F4,323.5,1.5,63,109.0
4556,A3,323.5,1.5,63,109.0
4557,D4,323.5,1.5,63,109.0
4558,D4,323.75,24/125,105,109.0
4559,F#3,323.75,0.25,37,109.0
4560,D2,324.0,151/125,80,109.0
4561,C2,324.0,0.25,67,109.0
4562,F#2,324.0,0.25,70,109.0
4563,E-4,324.0,0.25,33,109.0
4564,F#3,324.0,0.25,52,109.0
4565,C4,324.108,51/125,85,109.0
4566,F#3,324.25,0.25,37,109.0
4567,F#2,324.5,0.25,70,109.0
4568,E-4,324.5,0.25,23,109.0
4569,F#3,324.5,0.25,37,109.0
4570,A3,324.517,24/125,92,109.0
4571,C#4,324.517,17/1000,48,109.0
4572,C2,324.75,0.25,67,109.0
4573,E4,324.75,0.25,42,109.0
4574,F#3,324.75,0.25,37,109.0
4575,B3,324.792,9/40,77,109.0
4576,F#2,325.0,0.25,70,109.0
4577,E2,325.0,0.25,72,109.0
4578,E-4,325.0,0.5,36,109.0
4579,F#3,325.0,0.25,52,109.0
4580,F4,325.0,2.0,60,109.0
4581,B-3,325.0,2.0,60,109.0
4582,C4,325.0,2.0,60,109.0
4583,G3,325.0,2.0,60,109.0
4584,F#3,325.25,183/1000,74,109.0
4585,F#3,325.25,0.25,37,109.0
4586,D3,325.5,26/125,68,109.0
4587,A3,325.5,1667/1000,70,109.0
4588,C2,325.5,0.25,67,109.0
4589,F#2,325.5,0.25,70,109.0
4590,E4,325.5,0.25,44,109.0
4591,F#3,325.5,0.25,37,109.0
4592,E3,325.75,26/125,68,109.0
4593,F#2,325.75,0.25,70,109.0
4594,F#3,325.75,0.25,37,109.0
4595,D3,326.0,26/125,68,109.0
4596,F#2,326.0,0.25,70,109.0
4597,E2,326.0,0.25,72,109.0
4598,E-4,326.0,0.25,31,109.0
4599,F#3,326.0,0.25,52,109.0
4600,F#3,326.25,0.25,37,109.0
4601,A2,326.5,26/125,68,109.0
4602,F#2,326.5,0.25,70,109.0
4603,E-4,326.5,0.25,27,109.0
4604,F#3,326.5,0.25,37,109.0
4605,B2,326.75,26/125,68,109.0
4606,E2,326.75,0.125,40,109.0
4607,E4,326.75,0.25,39,109.0
4608,F#3,326.75,0.25,37,109.0
4609,E2,326.875,0.125,40,109.0
4610,A2,327.0,0.5,80,109.0
4611,F#2,327.0,0.25,70,109.0
4612,E2,327.0,0.25,56,109.0
4613,E-4,327.0,0.5,44,109.0
4614,F#3,327.0,0.25,52,109.0
4615,E2,327.25,0.25,72,109.0
4616,F#3,327.25,0.25,37,109.0
4617,D1,327.5,0.25,80,109.0
4618,F#2,327.5,0.25,70,109.0
4619,G2,327.5,0.25,80,109.0
4620,D4,327.5,0.25,56,109.0
4621,F#3,327.5,0.25,37,109.0
4622,C#4,327.5,76/125,60,109.0
4623,F#4,327.5,76/125,60,109.0
4624,A3,327.5,76/125,60,109.0
4625,D3,327.5,76/125,60,109.0
4626,A3,327.592,167/1000,60,109.0
4627,E1,327.75,0.25,80,109.0
4628,F#2,327.75,0.25,70,109.0
4629,F#3,327.75,0.25,37,109.0
4630,B3,327.792,26/125,64,109.0
4631,G1,328.0,177/250,80,109.0
4632,B3,328.0,33/1000,64,109.0
4633,C2,328.0,0.25,67,109.0
4634,F#2,328.0,0.25,70,109.0
4635,A3,328.0,0.5,66,109.0
4636,E-4,328.0,0.25,25,109.0
4637,F#3,328.0,0.25,52,109.0
4638,C5,328.0,4.0,60,109.0
4639,E5,328.0,4.0,60,109.0
4640,G5,328.0,4.0,60,109.0
4641,F4,328.108,229/500,101,109.0
4642,F#3,328.25,0.25,37,109.0
4643,C#4,328.267,27/250,60,109.0
4644,F#4,328.267,27/250,60,109.0
4645,A3,328.267,27/250,60,109.0
4646,D3,328.275,27/250,61,109.0
4647,F#4,328.275,27/250,61,109.0
4648,A3,328.275,27/250,61,109.0
4649,B-2,328.5,0.25,70,109.0
4650,E-4,328.5,0.25,25,109.0
4651,F#3,328.5,0.25,37,109.0
4652,G4,328.592,1/5,70,109.0
4653,F#3,328.75,0.25,37,109.0
4654,F#4,328.858,217/1000,86,109.0
4655,G1,329.0,229/500,80,109.0
4656,E2,329.0,0.25,64,109.0
4657,E4,329.0,0.25,29,109.0
4658,E-4,329.0,0.5,29,109.0
4659,F#3,329.0,0.25,52,109.0
4660,C#4,329.042,27/250,52,109.0
4661,F#4,329.042,27/250,52,109.0
4662,A3,329.042,27/250,52,109.0
4663,D3,329.042,27/250,59,109.0
4664,F#4,329.042,27/250,59,109.0
4665,A3,329.042,27/250,59,109.0
4666,D4,329.25,26/125,79,109.0
4667,F#3,329.25,0.25,37,109.0
4668,F#1,329.5,151/125,80,109.0
4669,B3,329.5,1/5,69,109.0
4670,C2,329.5,0.25,67,109.0
4671,F#2,329.5,0.25,70,109.0
4672,E4,329.5,0.25,50,109.0
4673,F#3,329.5,0.25,37,109.0
4674,A3,329.75,76/125,83,109.0
4675,F#2,329.75,0.25,70,109.0
4676,F#3,329.75,0.25,37,109.0
4677,C2,330.0,0.25,67,109.0
4678,E-4,330.0,0.25,24,109.0
4679,F#3,330.0,0.25,52,109.0
4680,F#4,330.033,0.125,48,109.0
4681,D3,330.033,0.125,48,109.0
4682,C#4,330.033,0.125,48,109.0
4683,A3,330.033,0.125,48,109.0
4684,F#3,330.25,0.25,37,109.0
4685,B3,330.5,9/40,74,109.0
4686,B-2,330.5,0.25,70,109.0
4687,E-4,330.5,0.25,23,109.0
4688,F#3,330.5,0.25,37,109.0
4689,E4,330.75,0.25,47,109.0
4690,F#3,330.75,0.25,37,109.0
4691,C#4,330.775,79/500,54,109.0
4692,F#4,330.775,79/500,54,109.0
4693,A3,330.775,79/500,54,109.0
4694,D3,330.775,79/500,54,109.0
4695,F#1,331.0,229/500,80,109.0
4696,D4,331.0,9/40,74,109.0
4697,E2,331.0,0.25,64,109.0
4698,E-4,331.0,0.5,39,109.0
4699,F#3,331.0,0.25,52,109.0
4700,E4,331.25,24/125,83,109.0
4701,F#3,331.25,0.25,37,109.0
4702,F1,331.5,0.5,80,109.0
4703,C2,331.5,0.25,67,109.0
4704,F#2,331.5,0.25,70,109.0
4705,D4,331.5,0.5,56,109.0
4706,F#3,331.5,0.25,37,109.0
4707,F#4,331.5,617/1000,67,109.0
4708,C#4,331.5,617/1000,67,109.0
4709,A3,331.5,617/1000,67,109.0
4710,D3,331.5,617/1000,67,109.0
4711,E4,331.75,0.25,89,109.0
4712,F#3,331.75,0.25,37,109.0
4713,F1,332.0,177/250,80,109.0
4714,E4,332.0,21/500,89,109.0
4715,C2,332.0,0.25,67,109.0
4716,F#2,332.0,0.25,70,109.0
4717,E-4,332.0,0.25,33,109.0
4718,F#3,332.0,0.25,52,109.0
4719,C#4,332.242,0.125,56,109.0
4720,F#4,332.242,0.125,56,109.0
4721,A3,332.242,0.125,56,109.0
4722,F#3,332.25,0.25,37,109.0
4723,D3,332.258,0.125,64,109.0
4724,A3,332.258,0.125,64,109.0
4725,E4,332.342,333/1000,79,109.0
4726,B-2,332.5,0.25,70,109.0
4727,E-4,332.5,0.25,23,109.0
4728,F#3,332.5,0.25,37,109.0
4729,E4,332.75,0.25,42,109.0
4730,F#3,332.75,0.25,37,109.0
4731,F4,332.808,129/500,70,109.0
4732,F1,333.0,229/500,80,109.0
4733,E2,333.0,0.25,64,109.0
4734,E-4,333.0,0.5,36,109.0
4735,F#3,333.0,0.25,52,109.0
4736,F#4,333.017,79/500,57,109.0
4737,C#4,333.017,79/500,57,109.0
4738,A3,333.017,79/500,57,109.0
4739,D3,333.017,79/500,57,109.0
4740,F#3,333.25,0.25,37,109.0
4741,E4,333.283,0.25,81,109.0
4742,B-1,333.5,479/500,80,109.0
4743,C2,333.5,0.25,67,109.0
4744,F#2,333.5,0.25,70,109.0
4745,E4,333.5,0.25,44,109.0
4746,F#3,333.5,0.25,37,109.0
4747,E4,333.733,783/1000,81,109.0
4748,F#2,333.75,0.25,70,109.0
4749,F#3,333.75,0.25,37,109.0
4750,D3,333.75,71/500,63,109.0
4751,A3,333.75,71/500,63,109.0
4752,C#4,333.75,71/500,63,109.0
4753,F#4,333.75,71/500,63,109.0
4754,C2,334.0,0.25,67,109.0
4755,E-4,334.0,0.25,31,109.0
4756,F#3,334.0,0.25,52,109.0
4757,F#3,334.25,0.25,37,109.0
4758,B-2,334.5,0.25,70,109.0
4759,E-4,334.5,0.25,27,109.0
4760,F#3,334.5,0.25,37,109.0
4761,C#4,334.542,79/500,59,109.0
4762,F#4,334.542,79/500,59,109.0
4763,A3,334.542,79/500,59,109.0
4764,D3,334.558,26/125,80,109.0
4765,D4,334.592,53/40,86,109.0
4766,E4,334.75,0.25,39,109.0
4767,F#3,334.75,0.25,37,109.0
4768,E2,335.0,0.25,64,109.0
4769,E-4,335.0,0.5,44,109.0
4770,F#3,335.0,0.25,52,109.0
4771,F#3,335.25,0.25,37,109.0
4772,A1,335.5,229/500,80,109.0
4773,C2,335.5,0.25,67,109.0
4774,F#2,335.5,0.25,70,109.0
4775,D4,335.5,0.25,56,109.0
4776,F#3,335.5,0.25,37,109.0
4777,G3,335.5,1.5,61,109.0
4778,B3,335.5,1.5,61,109.0
4779,D4,335.5,1.5,61,109.0
4780,F#4,335.5,1.5,61,109.0
4781,F#3,335.75,0.25,37,109.0
4782,A1,336.0,0.25,80,109.0
4783,C2,336.0,0.25,33,109.0
4784,F#2,336.0,0.25,40,109.0
4785,E2,336.0,0.25,40,109.0
4786,A3,336.0,1.0,68,109.0
4787,C5,336.0,4.0,60,109.0
4788,E5,336.0,4.0,60,109.0
4789,G5,336.0,4.0,60,109.0
4790,G2,336.025,0.25,40,109.0
4791,A1,336.5,0.25,80,109.0
4792,C2,336.5,0.25,37,109.0
4793,F#2,336.5,0.25,45,109.0
4794,E2,336.5,0.25,45,109.0
4795,G2,336.525,0.25,45,109.0
4796,A1,337.0,0.25,80,109.0
4797,C2,337.0,0.25,42,109.0
4798,F#2,337.0,0.25,50,109.0
4799,E2,337.0,0.25,50,109.0
4800,A3,337.0,2.0,67,109.0
4801,C#4,337.0,2.0,67,109.0
4802,F#3,337.0,2.0,67,109.0
4803,E4,337.0,2.0,67,109.0
4804,G2,337.025,0.25,50,109.0
4805,A4,337.358,117/1000,59,109.0
4806,A1,337.5,0.25,80,109.0
4807,C2,337.5,0.25,46,109.0
4808,F#2,337.5,0.25,55,109.0
4809,E2,337.5,0.25,55,109.0
4810,G2,337.525,0.25,55,109.0
4811,A4,337.783,183/1000,67,109.0
4812,A1,338.0,0.25,80,109.0
4813,C2,338.0,0.25,50,109.0
4814,F#2,338.0,0.25,60,109.0
4815,E2,338.0,0.25,60,109.0
4816,G2,338.025,0.25,60,109.0
4817,C5,338.05,24/125,66,109.0
4818,C5,338.25,1/5,64,109.0
4819,A1,338.5,0.25,80,109.0
4820,A4,338.5,121/500,62,109.0
4821,C2,338.5,0.25,54,109.0
4822,F#2,338.5,0.25,65,109.0
4823,E2,338.5,0.25,65,109.0
4824,G2,338.525,0.25,65,109.0
4825,G4,338.75,183/1000,83,109.0
4826,A1,339.0,0.25,80,109.0
4827,C2,339.0,0.25,59,109.0
4828,F#2,339.0,0.25,70,109.0
4829,E2,339.0,0.25,70,109.0
4830,F3,339.0,0.5,63,109.0
4831,E4,339.0,0.5,63,109.0
4832,A3,339.0,0.5,63,109.0
4833,C4,339.0,0.5,63,109.0
4834,G2,339.025,0.25,70,109.0
4835,E4,339.042,217/1000,80,109.0
4836,E-4,339.25,7/40,86,109.0
4837,A1,339.5,0.25,80,109.0
4838,D4,339.5,167/1000,91,109.0
4839,E2,339.5,0.25,75,109.0
4840,G4,339.5,167/1000,127,109.0
4841,D5,339.5,167/1000,127,109.0
4842,B4,339.5,167/1000,127,109.0
4843,A1,339.75,0.25,80,109.0
4844,C4,339.75,121/500,90,109.0
4845,E2,339.75,0.25,77,109.0
4846,B4,339.75,167/1000,127,109.0
4847,G4,339.75,167/1000,127,109.0
4848,D5,339.75,167/1000,127,109.0
4849,C#4,340.0,26/125,90,109.0
4850,E4,340.25,217/1000,81,109.0
4851,A1,340.5,417/1000,80,109.0
4852,C#4,340.5,1/5,92,109.0
4853,C2,340.5,667/1000,62,109.0
4854,B-2,340.5,0.25,75,109.0
4855,E2,340.5,667/1000,75,109.0
4856,B4,340.5,167/1000,127,109.0
4857,G4,340.5,167/1000,127,109.0
4858,D5,340.5,167/1000,127,109.0
4859,F#2,340.75,0.25,75,109.0
4860,A3,341.0,1/5,91,109.0
4861,F3,341.0,1.5,63,109.0
4862,E4,341.0,1.5,63,109.0
4863,A3,341.0,1.5,63,109.0
4864,C4,341.0,1.5,63,109.0
4865,G1,341.25,417/1000,80,109.0
4866,C2,341.25,667/1000,62,109.0
4867,B-2,341.25,0.25,75,109.0
4868,E2,341.25,667/1000,75,109.0
4869,A4,341.25,167/1000,127,109.0
4870,C5,341.25,167/1000,127,109.0
4871,F4,341.25,167/1000,127,109.0
4872,G3,341.5,9/40,83,109.0
4873,F#2,341.5,0.25,75,109.0
4874,A3,341.75,267/1000,108,109.0
4875,A1,342.0,0.5,80,109.0
4876,C2,342.0,667/1000,62,109.0
4877,B-2,342.0,0.25,75,109.0
4878,E2,342.0,0.25,75,109.0
4879,D5,342.0,0.25,127,109.0
4880,G4,342.0,0.25,127,109.0
4881,B4,342.0,0.25,127,109.0
4882,F#2,342.25,0.25,75,109.0
4883,F4,342.5,2.0,60,109.0
4884,A3,342.5,2.0,60,109.0
4885,D4,342.5,2.0,60,109.0
4886,G3,342.5,2.0,60,109.0
4887,B-2,343.0,0.25,75,109.0
4888,A5,343.033,167/1000,109,109.0
4889,G5,343.075,9/40,91,109.0
4890,F5,343.258,117/1000,120,109.0
4891,E5,343.325,117/1000,124,109.0
4892,D5,343.325,117/1000,124,109.0
4893,C5,343.458,71/500,120,109.0
4894,B4,343.542,0.25,120,109.0
4895,A4,343.667,233/1000,87,109.0
4896,E-1,344.0,0.75,80,109.0
4897,C2,344.0,0.5,62,109.0
4898,F#2,344.0,0.5,70,109.0
4899,E-4,344.0,0.25,28,109.0
4900,F#3,344.0,0.25,56,109.0
4901,F#3,344.25,0.25,40,109.0
4902,B-2,344.5,0.5,70,109.0
4903,E-4,344.5,0.25,28,109.0
4904,F#3,344.5,0.25,40,109.0
4905,E-1,344.75,217/1000,80,109.0
4906,F#3,344.75,0.25,40,109.0
4907,B-1,345.0,1.0,80,109.0
4908,F#2,345.0,0.5,70,109.0
4909,E2,345.0,0.25,75,109.0
4910,E4,345.0,0.25,32,109.0
4911,E-4,345.0,0.5,32,109.0
4912,F#3,345.0,0.25,56,109.0
4913,F2,345.017,0.25,65,109.0
4914,E4,345.058,77/250,88,109.0
4915,F#3,345.25,0.25,40,109.0
4916,G#4,345.358,217/1000,78,109.0
4917,F4,345.367,17/1000,47,109.0
4918,B-2,345.5,0.5,70,109.0
4919,E4,345.5,0.25,58,109.0
4920,F#3,345.5,0.25,40,109.0
4921,G#4,345.608,3/10,73,109.0
4922,F#3,345.75,0.25,40,109.0
4923,C#3,346.0,9/40,80,109.0
4924,C2,346.0,0.5,62,109.0
4925,F#2,346.0,0.5,70,109.0
4926,E-4,346.0,0.25,27,109.0
4927,F#3,346.0,0.25,56,109.0
4928,B-4,346.108,267/1000,98,109.0
4929,E-3,346.25,9/40,80,109.0
4930,F#3,346.25,0.25,40,109.0
4931,B-2,346.5,0.5,70,109.0
4932,E-4,346.5,0.25,26,109.0
4933,F#3,346.5,0.25,40,109.0
4934,C#5,346.625,24/125,80,109.0
4935,E4,346.75,0.25,54,109.0
4936,F#3,346.75,0.25,40,109.0
4937,B-2,347.0,217/1000,80,109.0
4938,F#2,347.0,0.5,70,109.0
4939,E2,347.0,0.25,75,109.0
4940,E-4,347.0,0.5,44,109.0
4941,F#3,347.0,0.25,56,109.0
4942,F2,347.017,0.25,65,109.0
4943,E-5,347.092,9/40,82,109.0
4944,F#3,347.25,0.25,40,109.0
4945,E-2,347.5,217/1000,80,109.0
4946,B-2,347.5,0.5,70,109.0
4947,D4,347.5,0.5,64,109.0
4948,F#3,347.5,0.25,40,109.0
4949,E-5,347.55,2/5,93,109.0
4950,B-1,347.75,217/1000,80,109.0
4951,F#3,347.75,0.25,40,109.0
4952,E-1,348.0,1.0,80,109.0
4953,C2,348.0,0.5,62,109.0
4954,F#2,348.0,0.5,70,109.0
4955,E-4,348.0,0.25,38,109.0
4956,F#3,348.0,0.25,56,109.0
4957,E-5,348.1,26/125,70,109.0
4958,F#3,348.25,0.25,40,109.0
4959,B-2,348.5,0.5,70,109.0
4960,E-4,348.5,0.25,26,109.0
4961,F#3,348.5,0.25,40,109.0
4962,G4,348.5,167/1000,72,109.0
4963,B4,348.5,167/1000,72,109.0
4964,D5,348.5,167/1000,72,109.0
4965,C#5,348.558,71/500,62,109.0
4966,E4,348.75,0.25,48,109.0
4967,F#3,348.75,0.25,40,109.0
4968,G4,348.75,167/1000,72,109.0
4969,B4,348.75,167/1000,72,109.0
4970,D5,348.75,167/1000,72,109.0
4971,C#5,348.758,8/5,70,109.0
4972,B-1,349.0,1.0,80,109.0
4973,F#2,349.0,0.5,70,109.0
4974,E2,349.0,0.25,75,109.0
4975,E-4,349.0,0.5,41,109.0
4976,F#3,349.0,0.25,56,109.0
4977,F2,349.017,0.25,65,109.0
4978,F#3,349.25,0.25,40,109.0
4979,B-2,349.5,0.5,70,109.0
4980,E4,349.5,0.25,50,109.0
4981,F#3,349.5,0.25,40,109.0
4982,G4,349.5,167/1000,77,109.0
4983,B4,349.5,167/1000,77,109.0
4984,D5,349.5,167/1000,77,109.0
4985,F#3,349.75,0.25,40,109.0
4986,C#3,350.0,0.25,80,109.0
4987,C2,350.0,0.5,62,109.0
4988,F#2,350.0,0.5,70,109.0
4989,E-4,350.0,0.25,36,109.0
4990,F#3,350.0,0.25,56,109.0
4991,E-3,350.25,0.25,80,109.0
4992,F#3,350.25,0.25,40,109.0
4993,F4,350.25,167/1000,77,109.0
4994,A4,350.25,167/1000,77,109.0
4995,C5,350.25,167/1000,77,109.0
4996,B-2,350.5,0.5,70,109.0
4997,E-4,350.5,0.25,30,109.0
4998,F#3,350.5,0.25,40,109.0
4999,B-4,350.558,79/500,82,109.0
5000,B-2,350.75,0.25,80,109.0
5001,E4,350.75,0.25,44,109.0
5002,F#3,350.75,0.25,40,109.0
5003,G#4,350.783,24/125,67,109.0
5004,F#2,351.0,0.5,70,109.0
5005,E2,351.0,0.25,75,109.0
5006,E-4,351.0,0.5,50,109.0
5007,F#3,351.0,0.25,56,109.0
5008,G4,351.0,0.25,77,109.0
5009,B4,351.0,0.25,77,109.0
5010,D5,351.0,0.25,77,109.0
5011,F2,351.017,0.25,65,109.0
5012,E4,351.033,283/1000,85,109.0
5013,F#3,351.25,0.25,40,109.0
5014,C#4,351.317,71/500,74,109.0
5015,F4,351.317,71/500,74,109.0
5016,E-2,351.5,0.25,80,109.0
5017,B-2,351.5,0.5,70,109.0
5018,D4,351.5,0.25,64,109.0
5019,F#3,351.5,0.25,40,109.0
5020,C#4,351.567,433/1000,73,109.0
5021,B-1,351.75,0.25,80,109.0
5022,F#3,351.75,0.25,40,109.0
5023,E-1,352.0,1.0,80,109.0
5024,C#4,352.0,1217/1000,73,109.0
5025,C2,352.0,0.5,62,109.0
5026,F#2,352.0,0.5,70,109.0
5027,E-4,352.0,0.25,28,109.0
5028,F#3,352.0,0.25,56,109.0
5029,A5,352.033,167/1000,57,109.0
5030,G5,352.075,9/40,48,109.0
5031,F#3,352.25,0.25,40,109.0
5032,F5,352.258,117/1000,63,109.0
5033,E5,352.325,117/1000,66,109.0
5034,D5,352.325,117/1000,66,109.0
5035,C5,352.458,71/500,63,109.0
5036,B-2,352.5,0.5,70,109.0
5037,E-4,352.5,0.25,28,109.0
5038,F#3,352.5,0.25,40,109.0
5039,B4,352.542,0.25,63,109.0
5040,A4,352.667,233/1000,45,109.0
5041,F#3,352.75,0.25,40,109.0
5042,B-1,353.0,1.0,80,109.0
5043,F#2,353.0,0.5,70,109.0
5044,E2,353.0,0.25,75,109.0
5045,E4,353.0,0.25,32,109.0
5046,E-4,353.0,0.5,32,109.0
5047,F#3,353.0,0.25,56,109.0
5048,B-3,353.008,617/1000,59,109.0
5049,C#4,353.008,617/1000,59,109.0
5050,F#3,353.008,617/1000,59,109.0
5051,E-3,353.008,617/1000,59,109.0
5052,F4,353.008,617/1000,59,109.0
5053,F2,353.017,0.25,65,109.0
5054,F#3,353.25,0.25,40,109.0
5055,C#4,353.375,79/500,63,109.0
5056,B-2,353.5,0.5,70,109.0
5057,E4,353.5,0.25,58,109.0
5058,F#3,353.5,0.25,40,109.0
5059,C#4,353.575,11/40,70,109.0
5060,F#3,353.75,0.25,40,109.0
5061,B-3,353.775,3/40,50,109.0
5062,C#4,353.775,3/40,50,109.0
5063,E-3,353.775,3/40,50,109.0
5064,F#3,353.775,3/40,50,109.0
5065,F4,353.775,3/40,50,109.0
5066,C#3,354.0,0.25,80,109.0
5067,C2,354.0,0.5,62,109.0
5068,F#2,354.0,0.5,70,109.0
5069,E-4,354.0,0.25,27,109.0
5070,F#3,354.0,0.25,56,109.0
5071,F4,354.092,367/1000,93,109.0
5072,E-3,354.25,0.25,80,109.0
5073,F#3,354.25,0.25,40,109.0
5074,B-2,354.5,0.5,70,109.0
5075,E-4,354.5,0.25,26,109.0
5076,F#3,354.5,0.25,40,109.0
5077,F#3,354.533,133/1000,55,109.0
5078,E-3,354.533,133/1000,55,109.0
5079,B-3,354.533,133/1000,55,109.0
5080,C#4,354.533,133/1000,55,109.0
5081,F4,354.533,133/1000,55,109.0
5082,F#4,354.575,1/5,74,109.0
5083,B-2,354.75,0.25,80,109.0
5084,E4,354.75,0.25,54,109.0
5085,F#3,354.75,0.25,40,109.0
5086,F4,355.0,3/10,83,109.0
5087,F#2,355.0,0.5,70,109.0
5088,E2,355.0,0.25,75,109.0
5089,E-4,355.0,0.5,44,109.0
5090,F#3,355.0,0.25,56,109.0
5091,F2,355.017,0.25,65,109.0
5092,F#3,355.25,0.25,40,109.0
5093,C#4,355.258,1/5,52,109.0
5094,E-2,355.5,0.25,80,109.0
5095,B-2,355.5,0.5,70,109.0
5096,D4,355.5,0.5,64,109.0
5097,F#3,355.5,0.25,40,109.0
5098,B-3,355.517,129/500,66,109.0
5099,B-3,355.517,3/20,58,109.0
5100,F#3,355.517,3/20,58,109.0
5101,E-3,355.517,3/20,58,109.0
5102,C#4,355.517,3/20,58,109.0
5103,F4,355.517,3/20,58,109.0
5104,B-1,355.75,0.25,80,109.0
5105,F#3,355.75,0.25,40,109.0
5106,G#3,355.775,9/40,94,109.0
5107,E-1,356.0,1.0,80,109.0
5108,G#3,356.0,1967/1000,94,109.0
5109,C2,356.0,0.5,62,109.0
5110,F#2,356.0,0.5,70,109.0
5111,E-4,356.0,0.25,38,109.0
5112,F#3,356.0,0.25,56,109.0
5113,F#3,356.25,0.25,40,109.0
5114,B-3,356.258,117/1000,53,109.0
5115,E-3,356.258,117/1000,53,109.0
5116,F#3,356.258,117/1000,53,109.0
5117,C#4,356.258,117/1000,53,109.0
5118,F4,356.258,117/1000,53,109.0
5119,B-2,356.5,0.5,70,109.0
5120,E-4,356.5,0.25,26,109.0
5121,F#3,356.5,0.25,40,109.0
5122,E4,356.75,0.25,48,109.0
5123,F#3,356.75,0.25,40,109.0
5124,B-3,356.983,17/1000,46,109.0
5125,F4,356.983,17/1000,46,109.0
5126,E-3,356.992,1/125,56,109.0
5127,C#4,356.992,1/125,56,109.0
5128,F#3,356.992,1/125,56,109.0
5129,B-1,357.0,1.0,80,109.0
5130,F#2,357.0,0.5,70,109.0
5131,E2,357.0,0.25,75,109.0
5132,E-4,357.0,0.5,41,109.0
5133,F#3,357.0,0.25,56,109.0
5134,B-3,357.0,13/20,46,109.0
5135,F4,357.0,13/20,46,109.0
5136,E-3,357.0,617/1000,56,109.0
5137,C#4,357.0,617/1000,56,109.0
5138,F#3,357.0,617/1000,56,109.0
5139,F2,357.017,0.25,65,109.0
5140,F#3,357.25,0.25,40,109.0
5141,B-2,357.5,0.5,70,109.0
5142,E4,357.5,0.25,50,109.0
5143,F#3,357.5,0.25,40,109.0
5144,F#3,357.75,0.25,40,109.0
5145,B-3,357.767,1/10,41,109.0
5146,F#3,357.767,1/10,41,109.0
5147,F4,357.767,1/10,41,109.0
5148,C#4,357.767,1/10,41,109.0
5149,E-3,357.767,1/10,41,109.0
5150,B-2,358.0,0.25,80,109.0
5151,C2,358.0,0.5,62,109.0
5152,F#2,358.0,0.5,70,109.0
5153,E2,358.0,0.25,49,109.0
5154,E-4,358.0,0.25,36,109.0
5155,F#3,358.0,0.25,56,109.0
5156,F#3,358.25,0.25,40,109.0
5157,G#3,358.383,0.25,88,109.0
5158,C#3,358.5,0.25,80,109.0
5159,B-2,358.5,0.5,70,109.0
5160,E2,358.5,0.25,55,109.0
5161,E-4,358.5,0.25,30,109.0
5162,F#3,358.5,0.25,40,109.0
5163,B-3,358.525,117/1000,53,109.0
5164,F#3,358.525,117/1000,53,109.0
5165,C#4,358.525,117/1000,53,109.0
5166,F4,358.525,117/1000,53,109.0
5167,E-3,358.525,117/1000,53,109.0
5168,B-3,358.617,79/500,76,109.0
5169,E4,358.75,0.25,44,109.0
5170,F#3,358.75,0.25,40,109.0
5171,C#4,358.842,9/40,99,109.0
5172,B-2,359.0,0.25,80,109.0
5173,F#2,359.0,0.5,70,109.0
5174,E2,359.0,0.25,75,109.0
5175,E-4,359.0,0.5,50,109.0
5176,F#3,359.0,0.25,56,109.0
5177,F2,359.017,0.25,65,109.0
5178,F#3,359.25,0.25,40,109.0
5179,G#3,359.333,79/500,70,109.0
5180,C#4,359.35,1/10,44,109.0
5181,F4,359.35,1/10,44,109.0
5182,F#3,359.35,1/10,44,109.0
5183,B-3,359.35,1/10,44,109.0
5184,E-3,359.35,1/10,44,109.0
5185,B1,359.5,0.5,80,109.0
5186,B-2,359.5,0.5,70,109.0
5187,A3,359.5,0.25,66,109.0
5188,D4,359.5,0.25,64,109.0
5189,F#3,359.5,0.25,40,109.0
5190,B-3,359.575,9/40,81,109.0
5191,F#3,359.75,0.25,40,109.0
5192,C#4,359.858,71/500,120,109.0
5193,B1,360.0,1.0,80,109.0
5194,C#4,360.0,473/250,120,109.0
5195,C2,360.0,0.5,62,109.0
5196,F#2,360.0,0.5,70,109.0
5197,E-4,360.0,0.25,28,109.0
5198,F#3,360.0,0.25,56,109.0
5199,C#4,360.017,117/1000,46,109.0
5200,F4,360.017,117/1000,46,109.0
5201,F#3,360.017,117/1000,46,109.0
5202,E-3,360.017,117/1000,46,109.0
5203,B-3,360.017,117/1000,46,109.0
5204,F#3,360.25,0.25,40,109.0
5205,B-2,360.5,0.5,70,109.0
5206,E-4,360.5,0.25,28,109.0
5207,F#3,360.5,0.25,40,109.0
5208,F#3,360.75,0.25,40,109.0
5209,F#2,361.0,9/40,80,109.0
5210,F#2,361.0,0.5,70,109.0
5211,E2,361.0,0.25,75,109.0
5212,E4,361.0,0.25,32,109.0
5213,E-4,361.0,0.5,32,109.0
5214,F#3,361.0,0.25,56,109.0
5215,B-3,361.008,617/1000,59,109.0
5216,C#4,361.008,617/1000,59,109.0
5217,F#3,361.008,617/1000,59,109.0
5218,E-3,361.008,617/1000,59,109.0
5219,F4,361.008,617/1000,59,109.0
5220,F2,361.017,0.25,65,109.0
5221,F#3,361.25,0.25,40,109.0
5222,B2,361.5,0.25,80,109.0
5223,B-2,361.5,0.5,70,109.0
5224,E4,361.5,0.25,58,109.0
5225,F#3,361.5,0.25,40,109.0
5226,C#3,361.75,0.25,80,109.0
5227,F#3,361.75,0.25,40,109.0
5228,B-3,361.775,3/40,50,109.0
5229,C#4,361.775,3/40,50,109.0
5230,E-3,361.775,3/40,50,109.0
5231,F#3,361.775,3/40,50,109.0
5232,F4,361.775,3/40,50,109.0
5233,F#2,362.0,127/250,80,109.0
5234,C2,362.0,0.5,62,109.0
5235,F#2,362.0,0.5,70,109.0
5236,E-4,362.0,0.25,27,109.0
5237,F#3,362.0,0.25,56,109.0
5238,F#3,362.25,0.25,40,109.0
5239,F#4,362.35,79/500,83,109.0
5240,B-2,362.5,0.5,70,109.0
5241,E-4,362.5,0.25,26,109.0
5242,F#3,362.5,0.25,40,109.0
5243,F#3,362.533,133/1000,55,109.0
5244,E-3,362.533,133/1000,55,109.0
5245,B-3,362.533,133/1000,55,109.0
5246,C#4,362.533,133/1000,55,109.0
5247,F4,362.533,133/1000,55,109.0
5248,G#4,362.6,3/20,83,109.0
5249,G#2,362.75,0.25,80,109.0
5250,E4,362.75,0.25,54,109.0
5251,F#3,362.75,0.25,40,109.0
5252,B4,362.842,167/1000,72,109.0
5253,F#2,363.0,1.0,80,109.0
5254,F#2,363.0,0.5,70,109.0
5255,E2,363.0,0.25,75,109.0
5256,E-4,363.0,0.5,44,109.0
5257,F#3,363.0,0.25,56,109.0
5258,F2,363.017,0.25,65,109.0
5259,F#3,363.25,0.25,40,109.0
5260,B-2,363.5,0.5,70,109.0
5261,D4,363.5,0.5,64,109.0
5262,F#3,363.5,0.25,40,109.0
5263,B-3,363.517,3/20,58,109.0
5264,F#3,363.517,3/20,58,109.0
5265,E-3,363.517,3/20,58,109.0
5266,C#4,363.517,3/20,58,109.0
5267,F4,363.517,3/20,58,109.0
5268,B4,363.55,24/125,87,109.0
5269,F#3,363.75,0.25,40,109.0
5270,B1,364.0,1.0,80,109.0
5271,C2,364.0,0.5,62,109.0
5272,F#2,364.0,0.5,70,109.0
5273,E-4,364.0,0.25,38,109.0
5274,F#3,364.0,0.25,56,109.0
5275,E-5,364.108,1.125,76,109.0
5276,F#3,364.25,0.25,40,109.0
5277,B-3,364.258,117/1000,53,109.0
5278,E-3,364.258,117/1000,53,109.0
5279,F#3,364.258,117/1000,53,109.0
5280,C#4,364.258,117/1000,53,109.0
5281,F4,364.258,117/1000,53,109.0
5282,B-2,364.5,0.5,70,109.0
5283,E-4,364.5,0.25,26,109.0
5284,F#3,364.5,0.25,40,109.0
5285,E4,364.75,0.25,48,109.0
5286,F#3,364.75,0.25,40,109.0
5287,B-3,364.983,17/1000,46,109.0
5288,F4,364.983,17/1000,46,109.0
5289,E-3,364.992,1/125,56,109.0
5290,C#4,364.992,1/125,56,109.0
5291,F#3,364.992,1/125,56,109.0
5292,F#2,365.0,0.5,70,109.0
5293,E2,365.0,0.25,75,109.0
5294,E-4,365.0,0.5,41,109.0
5295,F#3,365.0,0.25,56,109.0
5296,B-3,365.0,13/20,46,109.0
5297,F4,365.0,13/20,46,109.0
5298,E-3,365.0,617/1000,56,109.0
5299,C#4,365.0,617/1000,56,109.0
5300,F#3,365.0,617/1000,56,109.0
5301,F2,365.017,0.25,65,109.0
5302,F#3,365.25,0.25,40,109.0
5303,E-5,365.483,417/1000,79,109.0
5304,B2,365.5,0.25,80,109.0
5305,B-2,365.5,0.5,70,109.0
5306,E4,365.5,0.25,50,109.0
5307,F#3,365.5,0.25,40,109.0
5308,C#3,365.75,0.25,80,109.0
5309,F#3,365.75,0.25,40,109.0
5310,B-3,365.767,1/10,41,109.0
5311,F#3,365.767,1/10,41,109.0
5312,F4,365.767,1/10,41,109.0
5313,C#4,365.767,1/10,41,109.0
5314,E-3,365.767,1/10,41,109.0
5315,F#2,366.0,0.5,80,109.0
5316,E5,366.0,167/1000,76,109.0
5317,C2,366.0,0.5,62,109.0
5318,F#2,366.0,0.5,70,109.0
5319,E-4,366.0,0.25,36,109.0
5320,F#3,366.0,0.25,56,109.0
5321,C#5,366.167,167/1000,76,109.0
5322,F#3,366.25,0.25,40,109.0
5323,B4,366.333,167/1000,76,109.0
5324,G#4,366.5,167/1000,76,109.0
5325,B-2,366.5,0.5,70,109.0
5326,E-4,366.5,0.25,30,109.0
5327,F#3,366.5,0.25,40,109.0
5328,B-3,366.525,117/1000,53,109.0
5329,F#3,366.525,117/1000,53,109.0
5330,C#4,366.525,117/1000,53,109.0
5331,F4,366.525,117/1000,53,109.0
5332,E-3,366.525,117/1000,53,109.0
5333,F#4,366.667,167/1000,76,109.0
5334,G#2,366.75,0.25,80,109.0
5335,E4,366.75,0.25,44,109.0
5336,F#3,366.75,0.25,40,109.0
5337,E4,366.833,167/1000,76,109.0
5338,F#2,367.0,1.0,80,109.0
5339,C#4,367.0,167/1000,76,109.0
5340,F#2,367.0,0.5,70,109.0
5341,E2,367.0,0.25,75,109.0
5342,E-4,367.0,0.5,50,109.0
5343,F#3,367.0,0.25,56,109.0
5344,F2,367.017,0.25,65,109.0
5345,B3,367.167,167/1000,76,109.0
5346,F#3,367.25,0.25,40,109.0
5347,G#3,367.333,167/1000,76,109.0
5348,C#4,367.35,1/10,44,109.0
5349,F4,367.35,1/10,44,109.0
5350,F#3,367.35,1/10,44,109.0
5351,B-3,367.35,1/10,44,109.0
5352,E-3,367.35,1/10,44,109.0
5353,E3,367.5,0.5,76,109.0
5354,B-2,367.5,0.5,70,109.0
5355,D4,367.5,0.25,64,109.0
5356,F#3,367.5,0.25,40,109.0
5357,F#3,367.75,0.25,40,109.0
5358,C1,368.0,73/250,80,109.0
5359,C2,368.0,0.5,62,109.0
5360,F#2,368.0,0.5,70,109.0
5361,C#3,368.0,0.25,66,109.0
5362,E-4,368.0,0.25,28,109.0
5363,F#3,368.0,0.25,56,109.0
5364,C#4,368.017,117/1000,46,109.0
5365,F4,368.017,117/1000,46,109.0
5366,F#3,368.017,117/1000,46,109.0
5367,E-3,368.017,117/1000,46,109.0
5368,B-3,368.017,117/1000,46,109.0
5369,C4,368.067,99/125,74,109.0
5370,F#3,368.25,0.25,40,109.0
5371,C2,368.5,9/40,80,109.0
5372,B-2,368.5,0.5,70,109.0
5373,E-4,368.5,0.25,28,109.0
5374,F#3,368.5,0.25,40,109.0
5375,C5,368.567,23/40,75,109.0
5376,F#3,368.75,0.25,40,109.0
5377,C4,368.9,24/125,67,109.0
5378,E-1,369.0,73/250,80,109.0
5379,F#2,369.0,0.5,70,109.0
5380,E2,369.0,0.25,75,109.0
5381,E4,369.0,0.25,32,109.0
5382,E-4,369.0,0.5,32,109.0
5383,F#3,369.0,0.25,56,109.0
5384,A3,369.0,279/500,66,109.0
5385,E4,369.0,279/500,66,109.0
5386,G#4,369.0,279/500,66,109.0
5387,F2,369.017,0.25,65,109.0
5388,C#4,369.092,33/1000,58,109.0
5389,D4,369.125,467/1000,57,109.0
5390,F#3,369.25,0.25,40,109.0
5391,D5,369.383,517/1000,89,109.0
5392,E-2,369.5,9/40,80,109.0
5393,B-2,369.5,0.5,70,109.0
5394,E4,369.5,0.25,58,109.0
5395,F#3,369.5,0.25,40,109.0
5396,D4,369.633,11/40,62,109.0
5397,F#3,369.75,0.25,40,109.0
5398,A3,369.75,7/40,68,109.0
5399,E4,369.75,7/40,68,109.0
5400,G#4,369.75,7/40,68,109.0
5401,E-5,369.908,0.125,46,109.0
5402,E-4,369.908,2/5,54,109.0
5403,F1,370.0,73/250,80,109.0
5404,C2,370.0,0.5,62,109.0
5405,F#2,370.0,0.5,70,109.0
5406,E-4,370.0,0.25,27,109.0
5407,F#3,370.0,0.25,56,109.0
5408,E-5,370.092,533/1000,88,109.0
5409,F#3,370.25,0.25,40,109.0
5410,E-4,370.342,267/1000,82,109.0
5411,F2,370.5,9/40,80,109.0
5412,B-2,370.5,0.5,70,109.0
5413,E-4,370.5,0.25,26,109.0
5414,F#3,370.5,0.25,40,109.0
5415,A3,370.5,7/40,69,109.0
5416,E4,370.5,7/40,69,109.0
5417,G#4,370.5,7/40,69,109.0
5418,E4,370.608,33/1000,56,109.0
5419,E5,370.608,33/1000,56,109.0
5420,F4,370.65,221/500,67,109.0
5421,F5,370.667,3/20,36,109.0
5422,E4,370.75,0.25,54,109.0
5423,F#3,370.75,0.25,40,109.0
5424,A3,370.75,117/1000,65,109.0
5425,E4,370.75,117/1000,65,109.0
5426,G#4,370.75,117/1000,65,109.0
5427,F5,370.867,517/1000,86,109.0
5428,E-1,371.0,73/250,80,109.0
5429,F#2,371.0,0.5,70,109.0
5430,E2,371.0,0.25,75,109.0
5431,E-4,371.0,0.5,44,109.0
5432,F#3,371.0,0.25,56,109.0
5433,F2,371.017,0.25,65,109.0
5434,F4,371.125,283/1000,82,109.0
5435,F#3,371.25,0.25,40,109.0
5436,E-2,371.5,9/40,80,109.0
5437,B-2,371.5,0.5,70,109.0
5438,D4,371.5,0.5,64,109.0
5439,F#3,371.5,0.25,40,109.0
5440,A3,371.5,71/500,66,109.0
5441,E4,371.5,71/500,66,109.0
5442,G#4,371.5,71/500,66,109.0
5443,F#5,371.5,233/1000,70,109.0
5444,F#4,371.5,233/1000,70,109.0
5445,F#3,371.75,0.25,40,109.0
5446,F1,372.0,73/250,80,109.0
5447,C2,372.0,0.5,62,109.0
5448,F#2,372.0,0.5,70,109.0
5449,E-4,372.0,0.25,38,109.0
5450,F#3,372.0,0.25,56,109.0
5451,B-4,372.008,323/250,50,109.0
5452,D5,372.008,323/250,50,109.0
5453,F4,372.008,323/250,50,109.0
5454,F#4,372.075,129/500,78,109.0
5455,F#5,372.075,129/500,78,109.0
5456,F#3,372.25,0.25,40,109.0
5457,G#4,372.25,27/250,76,109.0
5458,E4,372.25,27/250,76,109.0
5459,A3,372.3,27/250,78,109.0
5460,E4,372.3,27/250,78,109.0
5461,G4,372.342,47/40,70,109.0
5462,G5,372.342,47/40,70,109.0
5463,F2,372.5,9/40,80,109.0
5464,B-2,372.5,0.5,70,109.0
5465,E-4,372.5,0.25,26,109.0
5466,F#3,372.5,0.25,40,109.0
5467,E4,372.75,0.25,48,109.0
5468,F#3,372.75,0.25,40,109.0
5469,G1,373.0,73/250,80,109.0
5470,F#2,373.0,0.5,70,109.0
5471,E2,373.0,0.25,75,109.0
5472,E-4,373.0,0.5,41,109.0
5473,F#3,373.0,0.25,56,109.0
5474,F2,373.017,0.25,65,109.0
5475,E4,373.025,3/5,79,109.0
5476,G#4,373.025,3/5,79,109.0
5477,A3,373.025,3/5,79,109.0
5478,F#3,373.25,0.25,40,109.0
5479,G2,373.5,9/40,80,109.0
5480,B-2,373.5,0.5,70,109.0
5481,E4,373.5,0.25,50,109.0
5482,F#3,373.5,0.25,40,109.0
5483,C5,373.533,33/20,50,109.0
5484,E5,373.533,33/20,50,109.0
5485,G4,373.533,33/20,50,109.0
5486,F#5,373.583,1/40,35,109.0
5487,F#3,373.75,0.25,40,109.0
5488,E4,373.758,0.125,61,109.0
5489,G#4,373.758,0.125,61,109.0
5490,A3,373.758,0.125,61,109.0
5491,G#1,374.0,73/250,80,109.0
5492,C2,374.0,0.5,62,109.0
5493,F#2,374.0,0.5,70,109.0
5494,E-4,374.0,0.25,36,109.0
5495,F#3,374.0,0.25,56,109.0
5496,B-4,374.1,383/1000,80,109.0
5497,F#3,374.25,0.25,40,109.0
5498,G#2,374.5,9/40,80,109.0
5499,B-2,374.5,0.5,70,109.0
5500,E-4,374.5,0.25,30,109.0
5501,F#3,374.5,0.25,40,109.0
5502,E4,374.533,133/1000,77,109.0
5503,G#4,374.533,133/1000,77,109.0
5504,A3,374.533,133/1000,77,109.0
5505,E-5,374.558,0.25,77,109.0
5506,E4,374.75,0.25,44,109.0
5507,F#3,374.75,0.25,40,109.0
5508,G#4,374.792,117/1000,61,109.0
5509,A3,374.792,117/1000,61,109.0
5510,E4,374.792,117/1000,61,109.0
5511,B-1,375.0,9/40,80,109.0
5512,F#2,375.0,0.5,70,109.0
5513,E2,375.0,0.25,75,109.0
5514,E-4,375.0,0.5,50,109.0
5515,F#3,375.0,0.25,56,109.0
5516,F5,375.008,217/1000,82,109.0
5517,F2,375.017,0.25,65,109.0
5518,F#3,375.25,0.25,40,109.0
5519,B-2,375.5,9/40,80,109.0
5520,B-2,375.5,0.5,70,109.0
5521,D4,375.5,0.25,64,109.0
5522,F#3,375.5,0.25,40,109.0
5523,B5,375.5,167/1000,64,109.0
5524,D6,375.5,167/1000,64,109.0
5525,G5,375.5,167/1000,64,109.0
5526,E4,375.533,3/20,68,109.0
5527,G#4,375.533,3/20,68,109.0
5528,D5,375.533,467/1000,50,109.0
5529,F5,375.533,467/1000,50,109.0
5530,A4,375.533,467/1000,50,109.0
5531,A3,375.542,7/40,60,109.0
5532,F5,375.55,129/500,82,109.0
5533,F#3,375.75,0.25,40,109.0
5534,B5,375.75,167/1000,64,109.0
5535,G5,375.75,167/1000,64,109.0
5536,D6,375.75,167/1000,64,109.0
5537,C1,376.0,73/250,80,109.0
5538,C2,376.0,0.5,62,109.0
5539,F#2,376.0,0.5,70,109.0
5540,E-4,376.0,0.25,28,109.0
5541,F#3,376.0,0.25,56,109.0
5542,D5,376.0,323/250,50,109.0
5543,F5,376.0,323/250,50,109.0
5544,A4,376.0,323/250,50,109.0
5545,F5,376.067,129/500,79,109.0
5546,F#3,376.25,0.25,40,109.0
5547,G#4,376.3,23/250,72,109.0
5548,A3,376.3,23/250,72,109.0
5549,E4,376.3,23/250,72,109.0
5550,C2,376.5,9/40,80,109.0
5551,B-2,376.5,0.5,70,109.0
5552,E-4,376.5,0.25,28,109.0
5553,F#3,376.5,0.25,40,109.0
5554,B5,376.5,167/1000,51,109.0
5555,G5,376.5,167/1000,51,109.0
5556,D6,376.5,167/1000,51,109.0
5557,F5,376.533,1/5,70,109.0
5558,F#3,376.75,0.25,40,109.0
5559,E-5,376.792,321/500,74,109.0
5560,E-1,377.0,73/250,80,109.0
5561,F#2,377.0,0.5,70,109.0
5562,E2,377.0,0.25,75,109.0
5563,E4,377.0,0.25,32,109.0
5564,E-4,377.0,0.5,32,109.0
5565,F#3,377.0,0.25,56,109.0
5566,G3,377.008,617/1000,59,109.0
5567,B-3,377.008,617/1000,59,109.0
5568,E-3,377.008,617/1000,59,109.0
5569,C3,377.008,617/1000,59,109.0
5570,D4,377.008,617/1000,59,109.0
5571,F2,377.017,0.25,65,109.0
5572,F#3,377.25,0.25,40,109.0
5573,F5,377.25,167/1000,51,109.0
5574,C6,377.25,167/1000,51,109.0
5575,A5,377.25,167/1000,51,109.0
5576,E-2,377.5,9/40,80,109.0
5577,B-2,377.5,0.5,70,109.0
5578,E4,377.5,0.25,58,109.0
5579,F#3,377.5,0.25,40,109.0
5580,C5,377.508,37/20,50,109.0
5581,G4,377.508,37/20,50,109.0
5582,F5,377.508,37/20,50,109.0
5583,C5,377.583,7/40,82,109.0
5584,F#3,377.75,0.25,40,109.0
5585,G3,377.775,3/40,50,109.0
5586,B-3,377.775,3/40,50,109.0
5587,C3,377.775,3/40,50,109.0
5588,E-3,377.775,3/40,50,109.0
5589,D4,377.775,3/40,50,109.0
5590,B-4,377.783,7/20,66,109.0
5591,F1,378.0,73/250,80,109.0
5592,C2,378.0,0.5,62,109.0
5593,F#2,378.0,0.5,70,109.0
5594,E-4,378.0,0.25,27,109.0
5595,F#3,378.0,0.25,56,109.0
5596,G5,378.0,0.25,51,109.0
5597,D6,378.0,0.25,51,109.0
5598,B5,378.0,0.25,51,109.0
5599,F#4,378.033,117/1000,78,109.0
5600,F4,378.158,1/5,66,109.0
5601,F#3,378.25,0.25,40,109.0
5602,D4,378.333,17/1000,61,109.0
5603,F2,378.5,9/40,80,109.0
5604,B-2,378.5,0.5,70,109.0
5605,E-4,378.5,0.25,26,109.0
5606,F#3,378.5,0.25,40,109.0
5607,E-3,378.533,133/1000,55,109.0
5608,C3,378.533,133/1000,55,109.0
5609,G3,378.533,133/1000,55,109.0
5610,B-3,378.533,133/1000,55,109.0
5611,D4,378.533,133/1000,55,109.0
5612,C4,378.6,49/125,62,109.0
5613,E4,378.75,0.25,54,109.0
5614,F#3,378.75,0.25,40,109.0
5615,E-1,379.0,73/250,80,109.0
5616,F#2,379.0,0.5,70,109.0
5617,E2,379.0,0.25,75,109.0
5618,E-4,379.0,0.5,44,109.0
5619,F#3,379.0,0.25,56,109.0
5620,F2,379.017,0.25,65,109.0
5621,E-4,379.075,217/1000,63,109.0
5622,F#3,379.25,0.25,40,109.0
5623,F4,379.317,0.25,89,109.0
5624,E-2,379.5,9/40,80,109.0
5625,B-2,379.5,0.5,70,109.0
5626,D4,379.5,0.5,64,109.0
5627,F#3,379.5,0.25,40,109.0
5628,C#4,379.5,0.5,50,109.0
5629,F#4,379.5,0.5,50,109.0
5630,A4,379.5,0.5,50,109.0
5631,G3,379.517,3/20,58,109.0
5632,E-3,379.517,3/20,58,109.0
5633,C3,379.517,3/20,58,109.0
5634,B-3,379.517,3/20,58,109.0
5635,D4,379.517,3/20,58,109.0
5636,F#3,379.75,0.25,40,109.0
5637,F#4,379.842,79/500,74,109.0
5638,F1,380.0,73/250,80,109.0
5639,F#4,380.0,333/1000,74,109.0
5640,C2,380.0,0.5,62,109.0
5641,F#2,380.0,0.5,70,109.0
5642,E-4,380.0,0.25,38,109.0
5643,F#3,380.0,0.25,56,109.0
5644,C#4,380.0,4.0,50,109.0
5645,F#4,380.0,4.0,50,109.0
5646,A4,380.0,4.0,50,109.0
5647,F#3,380.25,0.25,40,109.0
5648,G3,380.258,117/1000,53,109.0
5649,C3,380.258,117/1000,53,109.0
5650,E-3,380.258,117/1000,53,109.0
5651,B-3,380.258,117/1000,53,109.0
5652,D4,380.258,117/1000,53,109.0
5653,B-4,380.333,183/1000,64,109.0
5654,G4,380.342,1/125,54,109.0
5655,F2,380.5,9/40,80,109.0
5656,B-2,380.5,0.5,70,109.0
5657,E-4,380.5,0.25,26,109.0
5658,F#3,380.5,0.25,40,109.0
5659,C5,380.558,121/500,77,109.0
5660,E4,380.75,0.25,48,109.0
5661,F#3,380.75,0.25,40,109.0
5662,F3,380.983,17/1000,46,109.0
5663,C4,380.983,17/1000,46,109.0
5664,C3,380.992,1/125,56,109.0
5665,G#3,380.992,1/125,56,109.0
5666,E-3,380.992,1/125,56,109.0
5667,G1,381.0,73/250,80,109.0
5668,F#2,381.0,0.5,70,109.0
5669,E2,381.0,0.25,75,109.0
5670,E-4,381.0,0.5,41,109.0
5671,F#3,381.0,0.25,56,109.0
5672,F3,381.0,13/20,46,109.0
5673,C4,381.0,13/20,46,109.0
5674,C3,381.0,617/1000,56,109.0
5675,G#3,381.0,617/1000,56,109.0
5676,E-3,381.0,617/1000,56,109.0
5677,F2,381.017,0.25,65,109.0
5678,F#4,381.042,0.25,79,109.0
5679,F#3,381.25,0.25,40,109.0
5680,E-4,381.367,167/1000,66,109.0
5681,G2,381.5,9/40,80,109.0
5682,B-2,381.5,0.5,70,109.0
5683,E4,381.5,0.25,50,109.0
5684,F#3,381.5,0.25,40,109.0
5685,C4,381.592,217/1000,71,109.0
5686,F#3,381.75,0.25,40,109.0
5687,F3,381.767,1/10,41,109.0
5688,E-3,381.767,1/10,41,109.0
5689,C4,381.767,1/10,41,109.0
5690,G#3,381.767,1/10,41,109.0
5691,C3,381.767,1/10,41,109.0
5692,E-4,381.842,1383/1000,73,109.0
5693,G#1,382.0,73/250,80,109.0
5694,C2,382.0,0.5,62,109.0
5695,F#2,382.0,0.5,70,109.0
5696,E2,382.0,0.25,49,109.0
5697,E-4,382.0,0.25,36,109.0
5698,F#3,382.0,0.25,56,109.0
5699,F#3,382.25,0.25,40,109.0
5700,G#2,382.5,9/40,80,109.0
5701,B-2,382.5,0.5,70,109.0
5702,E2,382.5,0.25,55,109.0
5703,E-4,382.5,0.25,30,109.0
5704,F#3,382.5,0.25,40,109.0
5705,C3,382.5,3/20,61,109.0
5706,F3,382.5,3/20,61,109.0
5707,E-3,382.5,3/20,61,109.0
5708,G#3,382.5,3/20,61,109.0
5709,C4,382.5,3/20,61,109.0
5710,E4,382.75,0.25,44,109.0
5711,F#3,382.75,0.25,40,109.0
5712,G#1,383.0,49/125,80,109.0
5713,F#2,383.0,0.5,70,109.0
5714,E2,383.0,0.25,75,109.0
5715,E-4,383.0,0.5,50,109.0
5716,F#3,383.0,0.25,56,109.0
5717,F2,383.017,0.25,65,109.0
5718,F#3,383.25,0.25,40,109.0
5719,C3,383.25,3/20,54,109.0
5720,E-3,383.25,3/20,54,109.0
5721,F3,383.25,3/20,54,109.0
5722,G#3,383.25,3/20,54,109.0
5723,C4,383.25,3/20,54,109.0
5724,C#2,383.5,0.5,80,109.0
5725,B-2,383.5,0.5,70,109.0
5726,A3,383.5,0.25,66,109.0
5727,D4,383.5,0.25,64,109.0
5728,F#3,383.5,0.25,40,109.0
5729,F#3,383.75,0.25,40,109.0
5730,C#2,384.0,19/40,80,109.0
5731,C2,384.0,0.5,62,109.0
5732,F#2,384.0,0.5,70,109.0
5733,E-4,384.0,0.25,28,109.0
5734,F#3,384.0,0.25,56,109.0
5735,G#3,384.017,117/1000,57,109.0
5736,C4,384.017,117/1000,57,109.0
5737,E-3,384.017,117/1000,57,109.0
5738,C3,384.017,117/1000,57,109.0
5739,F3,384.017,117/1000,57,109.0
5740,F#3,384.25,0.25,40,109.0
5741,C#3,384.5,217/1000,70,109.0
5742,B-2,384.5,0.5,70,109.0
5743,E-4,384.5,0.25,28,109.0
5744,F#3,384.5,0.25,40,109.0
5745,E-3,384.75,9/40,70,109.0
5746,F#3,384.75,0.25,40,109.0
5747,C#3,385.0,217/1000,70,109.0
5748,F#2,385.0,0.5,70,109.0
5749,E2,385.0,0.25,75,109.0
5750,E4,385.0,0.25,32,109.0
5751,E-4,385.0,0.5,32,109.0
5752,F#3,385.0,0.25,56,109.0
5753,G3,385.008,617/1000,59,109.0
5754,B-3,385.008,617/1000,59,109.0
5755,E-3,385.008,617/1000,59,109.0
5756,C3,385.008,617/1000,59,109.0
5757,D4,385.008,617/1000,59,109.0
5758,A4,385.058,1/5,78,109.0
5759,F#3,385.25,0.25,40,109.0
5760,C#5,385.308,183/1000,82,109.0
5761,G#2,385.5,9/40,70,109.0
5762,B-2,385.5,0.5,70,109.0
5763,E4,385.5,0.25,58,109.0
5764,F#3,385.5,0.25,40,109.0
5765,C#5,385.542,183/1000,70,109.0
5766,B-2,385.75,9/40,70,109.0
5767,F#3,385.75,0.25,40,109.0
5768,G3,385.775,3/40,50,109.0
5769,B-3,385.775,3/40,50,109.0
5770,C3,385.775,3/40,50,109.0
5771,E-3,385.775,3/40,50,109.0
5772,D4,385.775,3/40,50,109.0
5773,C#5,385.783,233/1000,76,109.0
5774,G#2,386.0,217/1000,70,109.0
5775,C2,386.0,0.5,62,109.0
5776,F#2,386.0,0.5,70,109.0
5777,E-4,386.0,0.25,27,109.0
5778,F#3,386.0,0.25,56,109.0
5779,E-5,386.05,13/40,72,109.0
5780,F#3,386.25,0.25,40,109.0
5781,B-1,386.5,217/1000,80,109.0
5782,B-2,386.5,0.5,70,109.0
5783,E-4,386.5,0.25,26,109.0
5784,F#3,386.5,0.25,40,109.0
5785,E-3,386.533,133/1000,55,109.0
5786,C3,386.533,133/1000,55,109.0
5787,G3,386.533,133/1000,55,109.0
5788,B-3,386.533,133/1000,55,109.0
5789,D4,386.533,133/1000,55,109.0
5790,E-5,386.575,77/250,67,109.0
5791,E4,386.75,0.25,54,109.0
5792,F#3,386.75,0.25,40,109.0
5793,B1,387.0,217/1000,80,109.0
5794,F#2,387.0,0.5,70,109.0
5795,E2,387.0,0.25,75,109.0
5796,E-4,387.0,0.5,44,109.0
5797,F#3,387.0,0.25,56,109.0
5798,C#5,387.05,179/500,85,109.0
5799,F#3,387.25,0.25,40,109.0
5800,C2,387.5,217/1000,80,109.0
5801,B-2,387.5,0.5,70,109.0
5802,D4,387.5,0.5,64,109.0
5803,F#3,387.5,0.25,40,109.0
5804,E-5,387.508,183/1000,66,109.0
5805,G3,387.517,3/20,58,109.0
5806,E-3,387.517,3/20,58,109.0
5807,C3,387.517,3/20,58,109.0
5808,B-3,387.517,3/20,58,109.0
5809,D4,387.517,3/20,58,109.0
5810,F#3,387.75,0.25,40,109.0
5811,C#5,387.758,121/500,72,109.0
5812,C#2,388.0,217/1000,80,109.0
5813,C#5,388.0,19/40,72,109.0
5814,C2,388.0,0.5,62,109.0
5815,F#2,388.0,0.5,70,109.0
5816,E-4,388.0,0.25,38,109.0
5817,F#3,388.0,0.25,56,109.0
5818,C#4,388.0,4.0,50,109.0
5819,F#4,388.0,4.0,50,109.0
5820,A4,388.0,4.0,50,109.0
5821,F#3,388.25,0.25,40,109.0
5822,G3,388.258,117/1000,53,109.0
5823,C3,388.258,117/1000,53,109.0
5824,E-3,388.258,117/1000,53,109.0
5825,B-3,388.258,117/1000,53,109.0
5826,D4,388.258,117/1000,53,109.0
5827,C#3,388.5,9/40,70,109.0
5828,B-2,388.5,0.5,70,109.0
5829,E-4,388.5,0.25,26,109.0
5830,F#3,388.5,0.25,40,109.0
5831,B-4,388.575,79/500,78,109.0
5832,E-3,388.75,9/40,70,109.0
5833,E4,388.75,0.25,48,109.0
5834,F#3,388.75,0.25,40,109.0
5835,G#4,388.792,9/40,60,109.0
5836,F3,388.983,17/1000,46,109.0
5837,C4,388.983,17/1000,46,109.0
5838,C3,388.992,1/125,56,109.0
5839,G#3,388.992,1/125,56,109.0
5840,E-3,388.992,1/125,56,109.0
5841,C#3,389.0,9/40,70,109.0
5842,F#2,389.0,0.5,70,109.0
5843,E2,389.0,0.25,75,109.0
5844,E-4,389.0,0.5,41,109.0
5845,F#3,389.0,0.25,56,109.0
5846,F3,389.0,13/20,46,109.0
5847,C4,389.0,13/20,46,109.0
5848,C3,389.0,617/1000,56,109.0
5849,G#3,389.0,617/1000,56,109.0
5850,E-3,389.0,617/1000,56,109.0
5851,E4,389.05,129/500,74,109.0
5852,F#3,389.25,0.25,40,109.0
5853,C#4,389.308,7/40,80,109.0
5854,F4,389.308,1/10,60,109.0
5855,G#2,389.5,9/40,70,109.0
5856,B-2,389.5,0.5,70,109.0
5857,E4,389.5,0.25,50,109.0
5858,F#3,389.5,0.25,40,109.0
5859,C#4,389.55,2167/1000,74,109.0
5860,B-2,389.75,9/40,70,109.0
5861,F#3,389.75,0.25,40,109.0
5862,F3,389.767,1/10,41,109.0
5863,E-3,389.767,1/10,41,109.0
5864,C4,389.767,1/10,41,109.0
5865,G#3,389.767,1/10,41,109.0
5866,C3,389.767,1/10,41,109.0
5867,G#2,390.0,217/1000,70,109.0
5868,C2,390.0,0.5,62,109.0
5869,F#2,390.0,0.5,70,109.0
5870,E-4,390.0,0.25,36,109.0
5871,F#3,390.0,0.25,56,109.0
5872,F#3,390.25,0.25,40,109.0
5873,C#2,390.5,9/40,80,109.0
5874,B-2,390.5,0.5,70,109.0
5875,E-4,390.5,0.25,30,109.0
5876,F#3,390.5,0.25,40,109.0
5877,C3,390.5,3/20,61,109.0
5878,F3,390.5,3/20,61,109.0
5879,E-3,390.5,3/20,61,109.0
5880,G#3,390.5,3/20,61,109.0
5881,C4,390.5,3/20,61,109.0
5882,E-2,390.75,9/40,80,109.0
5883,E4,390.75,0.25,44,109.0
5884,F#3,390.75,0.25,40,109.0
5885,C#2,391.0,19/40,80,109.0
5886,F#2,391.0,0.5,70,109.0
5887,E2,391.0,0.25,75,109.0
5888,E-4,391.0,0.5,50,109.0
5889,F#3,391.0,0.25,56,109.0
5890,F#3,391.25,0.25,40,109.0
5891,C3,391.25,3/20,54,109.0
5892,E-3,391.25,3/20,54,109.0
5893,F3,391.25,3/20,54,109.0
5894,G#3,391.25,3/20,54,109.0
5895,C4,391.25,3/20,54,109.0
5896,G1,391.5,9/40,70,109.0
5897,E2,391.5,0.25,85,109.0
5898,F#3,391.5,0.25,40,109.0
5899,B-4,391.5,0.25,99,109.0
5900,D4,391.5,0.25,99,109.0
5901,F4,391.5,0.25,99,109.0
5902,G1,391.75,9/40,70,109.0
5903,E2,391.75,0.25,86,109.0
5904,F#3,391.75,0.25,40,109.0
5905,B-4,391.75,0.25,99,109.0
5906,D4,391.75,0.25,99,109.0
5907,F4,391.75,0.25,99,109.0
5908,F#2,392.0,0.25,70,109.0
5909,B4,392.008,323/250,50,109.0
5910,D5,392.008,323/250,50,109.0
5911,F#5,392.008,323/250,50,109.0
5912,G#3,392.017,117/1000,57,109.0
5913,C4,392.017,117/1000,57,109.0
5914,E-3,392.017,117/1000,57,109.0
5915,C3,392.017,117/1000,57,109.0
5916,F3,392.017,117/1000,57,109.0
5917,F#2,392.25,0.25,50,109.0
5918,G1,392.5,333/1000,70,109.0
5919,B3,392.5,0.5,66,109.0
5920,C2,392.5,0.5,60,109.0
5921,F#2,392.5,0.25,47,109.0
5922,B-4,392.5,0.5,66,109.0
5923,F#4,392.5,0.5,66,109.0
5924,E-4,392.5,0.5,66,109.0
5925,F4,392.5,167/1000,99,109.0
5926,D4,392.5,167/1000,99,109.0
5927,B-3,392.5,167/1000,99,109.0
5928,F#2,392.75,0.25,47,109.0
5929,B3,393.0,2.0,66,109.0
5930,F#2,393.0,0.25,70,109.0
5931,E2,393.0,0.5,80,109.0
5932,B-4,393.0,1.75,66,109.0
5933,F#4,393.0,1.75,66,109.0
5934,E-4,393.0,1.75,66,109.0
5935,A1,393.25,333/1000,70,109.0
5936,C2,393.25,0.5,60,109.0
5937,F#2,393.25,0.25,70,109.0
5938,G4,393.25,167/1000,99,109.0
5939,E4,393.25,167/1000,99,109.0
5940,C4,393.25,167/1000,99,109.0
5941,C#5,393.5,69/40,50,109.0
5942,A4,393.5,33/20,50,109.0
5943,F#2,393.5,0.25,47,109.0
5944,E5,393.55,1.75,50,109.0
5945,F#2,393.75,0.25,47,109.0
5946,B-1,394.0,333/1000,70,109.0
5947,C2,394.0,0.5,60,109.0
5948,F#2,394.0,0.25,70,109.0
5949,A4,394.0,167/1000,99,109.0
5950,F4,394.0,167/1000,99,109.0
5951,D4,394.0,167/1000,99,109.0
5952,F#2,394.25,0.25,50,109.0
5953,F#2,394.5,0.25,50,109.0
5954,A5,394.5,1.5,50,109.0
5955,B-4,394.5,1.5,50,109.0
5956,D5,394.5,1.5,50,109.0
5957,F5,394.5,1.5,50,109.0
5958,G#3,394.567,267/1000,76,109.0
5959,F#4,394.75,2.0,70,109.0
5960,F#2,394.75,0.25,50,109.0
5961,B-4,394.875,1.875,70,109.0
5962,G#3,394.892,233/1000,58,109.0
5963,E-5,395.0,1.75,70,109.0
5964,F#2,395.0,0.25,70,109.0
5965,E2,395.0,0.5,76,109.0
5966,F#2,395.25,0.25,50,109.0
5967,G3,395.4,183/1000,58,109.0
5968,F#2,395.5,0.25,50,109.0
5969,E5,395.5,0.5,50,109.0
5970,C5,395.5,0.5,50,109.0
5971,A4,395.5,0.5,50,109.0
5972,C2,395.75,0.25,60,109.0
5973,F#2,395.75,0.25,50,109.0
5974,F3,395.783,217/1000,59,109.0
5975,F3,396.0,33/1000,59,109.0
5976,C2,396.0,0.25,60,109.0
5977,F#2,396.0,0.25,70,109.0
5978,A5,396.0,4.0,50,109.0
5979,B-4,396.0,4.0,50,109.0
5980,D5,396.0,4.0,50,109.0
5981,F5,396.0,4.0,50,109.0
5982,E5,396.0,629/500,50,109.0
5983,C5,396.0,629/500,50,109.0
5984,A4,396.0,629/500,50,109.0
5985,G3,396.1,633/1000,59,109.0
5986,F#2,396.25,0.25,50,109.0
5987,F#2,396.5,0.25,50,109.0
5988,G#4,396.75,0.25,70,109.0
5989,F#2,396.75,0.25,51,109.0
5990,A3,396.783,677/250,67,109.0
5991,C#5,396.875,0.125,70,109.0
5992,G#4,397.0,1.75,70,109.0
5993,C#5,397.0,1.75,70,109.0
5994,F#2,397.0,0.25,70,109.0
5995,E2,397.0,0.5,75,109.0
5996,F5,397.0,1.75,70,109.0
5997,C#6,397.0,1.75,70,109.0
5998,F#2,397.25,0.25,50,109.0
5999,F#2,397.5,0.25,51,109.0
6000,A4,397.5,37/20,60,109.0
6001,D5,397.5,37/20,60,109.0
6002,F5,397.5,37/20,60,109.0
6003,C2,397.75,0.25,60,109.0
6004,F#2,397.75,0.25,51,109.0
6005,C2,398.0,0.25,60,109.0
6006,F#2,398.0,0.25,70,109.0
6007,F#2,398.25,0.25,51,109.0
6008,F#2,398.5,0.25,50,109.0
6009,F#2,398.75,0.25,52,109.0
6010,E-5,398.75,1.75,70,109.0
6011,B-5,398.75,1.75,70,109.0
6012,F#5,398.875,1.625,70,109.0
6013,C#6,398.875,1.625,70,109.0
6014,F#2,399.0,0.25,70,109.0
6015,E2,399.0,0.5,77,109.0
6016,B-5,399.0,1.5,70,109.0
6017,F#6,399.0,1.5,70,109.0
6018,F#2,399.25,0.25,48,109.0
6019,G1,399.5,0.25,70,109.0
6020,F#2,399.5,0.25,48,109.0
6021,E2,399.5,0.25,74,109.0
6022,E5,399.5,0.5,64,109.0
6023,D5,399.5,0.5,64,109.0
6024,A5,399.5,0.5,64,109.0
6025,B-3,399.5,0.25,99,109.0
6026,D4,399.5,0.25,99,109.0
6027,F4,399.5,0.25,99,109.0
6028,G1,399.75,0.25,70,109.0
6029,F#2,399.75,0.25,49,109.0
6030,E2,399.75,0.25,81,109.0
6031,B-3,399.75,0.25,99,109.0
6032,D4,399.75,0.25,99,109.0
6033,F4,399.75,0.25,99,109.0
6034,F#2,400.0,0.25,70,109.0
6035,E5,400.0,3.5,64,109.0
6036,D5,400.0,3.5,64,109.0
6037,A5,400.0,3.5,64,109.0
6038,F#2,400.25,0.25,48,109.0
6039,G1,400.5,333/1000,70,109.0
6040,C2,400.5,0.5,60,109.0
6041,F#2,400.5,0.25,53,109.0
6042,B-4,400.5,233/1000,70,109.0
6043,D4,400.5,233/1000,70,109.0
6044,F4,400.5,233/1000,70,109.0
6045,B-3,400.5,167/1000,99,109.0
6046,D4,400.5,167/1000,99,109.0
6047,F4,400.5,167/1000,99,109.0
6048,F#2,400.75,0.25,55,109.0
6049,B-4,400.75,233/1000,70,109.0
6050,D4,400.75,233/1000,70,109.0
6051,F4,400.75,233/1000,70,109.0
6052,F#2,401.0,0.25,70,109.0
6053,A1,401.25,333/1000,70,109.0
6054,C2,401.25,0.5,60,109.0
6055,F#2,401.25,0.25,49,109.0
6056,E4,401.25,167/1000,99,109.0
6057,C4,401.25,167/1000,99,109.0
6058,G4,401.25,167/1000,99,109.0
6059,F#2,401.5,0.25,50,109.0
6060,F4,401.5,167/1000,66,109.0
6061,D4,401.5,167/1000,66,109.0
6062,B-3,401.5,167/1000,66,109.0
6063,F#2,401.75,0.25,51,109.0
6064,B-1,402.0,333/1000,70,109.0
6065,C2,402.0,0.5,60,109.0
6066,F#2,402.0,0.25,70,109.0
6067,B-3,402.0,167/1000,99,109.0
6068,D4,402.0,167/1000,99,109.0
6069,F4,402.0,167/1000,99,109.0
6070,F#2,402.25,0.25,47,109.0
6071,G4,402.25,167/1000,66,109.0
6072,E4,402.25,167/1000,66,109.0
6073,C4,402.25,167/1000,66,109.0
6074,D4,402.367,783/1000,76,109.0
6075,F#2,402.5,0.25,47,109.0
6076,A4,402.5,1.5,50,109.0
6077,D5,402.5,1.5,50,109.0
6078,F5,402.5,1.5,50,109.0
6079,E4,402.592,9/40,77,109.0
6080,F#2,402.75,0.25,51,109.0
6081,F4,402.858,0.25,63,109.0
6082,F#2,403.0,0.25,70,109.0
6083,E2,403.0,0.5,76,109.0
6084,A4,403.0,167/1000,66,109.0
6085,F4,403.0,167/1000,66,109.0
6086,D4,403.0,167/1000,66,109.0
6087,F#2,403.25,0.25,49,109.0
6088,D4,403.308,217/1000,63,109.0
6089,F#2,403.5,233/1000,51,109.0
6090,E4,403.6,26/125,66,109.0
6091,C2,403.75,0.25,60,109.0
6092,F#2,403.75,0.25,50,109.0
6093,F4,403.85,3/20,74,109.0
6094,F4,404.0,3/40,74,109.0
6095,C2,404.0,0.25,60,109.0
6096,F#2,404.0,0.25,70,109.0
6097,A4,404.0,4.0,50,109.0
6098,D5,404.0,4.0,50,109.0
6099,F5,404.0,4.0,50,109.0
6100,F#2,404.25,0.25,55,109.0
6101,D4,404.35,26/125,57,109.0
6102,F#2,404.5,0.25,52,109.0
6103,E4,404.6,121/500,62,109.0
6104,F#2,404.75,0.25,49,109.0
6105,G4,404.9,31/10,74,109.0
6106,F#2,405.0,0.25,70,109.0
6107,E2,405.0,0.5,78,109.0
6108,F#2,405.25,0.25,44,109.0
6109,F#2,405.5,0.25,49,109.0
6110,C2,405.75,0.25,60,109.0
6111,F#2,405.75,0.25,46,109.0
6112,C2,406.0,0.25,60,109.0
6113,F#2,406.0,0.25,70,109.0
6114,F#2,406.25,0.25,49,109.0
6115,A4,406.5,0.125,100,109.0
6116,F#2,406.5,0.25,46,109.0
6117,B4,406.625,0.125,100,109.0
6118,C5,406.75,0.125,100,109.0
6119,F#2,406.75,0.25,47,109.0
6120,D5,406.875,0.125,100,109.0
6121,E5,407.0,0.125,100,109.0
6122,F#2,407.0,0.25,70,109.0
6123,E2,407.0,0.5,78,109.0
6124,F5,407.125,0.125,100,109.0
6125,G5,407.25,0.125,100,109.0
6126,F#2,407.25,0.25,49,109.0
6127,A5,407.375,0.125,100,109.0
6128,G1,407.5,0.25,70,109.0
6129,B5,407.5,0.125,100,109.0
6130,F#2,407.5,0.25,44,109.0
6131,E2,407.5,0.25,84,109.0
6132,B-4,407.5,167/1000,99,109.0
6133,D4,407.5,167/1000,99,109.0
6134,F4,407.5,167/1000,99,109.0
6135,C6,407.625,0.125,100,109.0
6136,G1,407.75,0.25,70,109.0
6137,D6,407.75,0.125,100,109.0
6138,F#2,407.75,0.25,50,109.0
6139,E2,407.75,0.25,85,109.0
6140,D4,407.75,167/1000,99,109.0
6141,B-4,407.75,167/1000,99,109.0
6142,F4,407.75,167/1000,99,109.0
6143,E6,407.875,0.125,100,109.0
6144,G4,408.0,17/1000,74,109.0
6145,F#2,408.0,0.25,70,109.0
6146,F6,408.067,3483/1000,68,109.0
6147,F#2,408.25,0.25,48,109.0
6148,G1,408.5,333/1000,70,109.0
6149,C2,408.5,0.5,60,109.0
6150,F#2,408.5,0.25,48,109.0
6151,B-3,408.5,0.25,66,109.0
6152,D4,408.5,0.25,66,109.0
6153,F4,408.5,0.25,66,109.0
6154,B-3,408.5,167/1000,99,109.0
6155,D4,408.5,167/1000,99,109.0
6156,F4,408.5,167/1000,99,109.0
6157,F#2,408.75,0.25,49,109.0
6158,B-3,408.75,0.25,66,109.0
6159,D4,408.75,0.25,66,109.0
6160,F4,408.75,0.25,66,109.0
6161,F#2,409.0,0.25,70,109.0
6162,A1,409.25,333/1000,70,109.0
6163,C2,409.25,0.5,60,109.0
6164,F#2,409.25,0.25,50,109.0
6165,C4,409.25,167/1000,99,109.0
6166,E4,409.25,167/1000,99,109.0
6167,G4,409.25,167/1000,99,109.0
6168,F#2,409.5,0.25,47,109.0
6169,B-3,409.5,167/1000,66,109.0
6170,D4,409.5,167/1000,66,109.0
6171,F4,409.5,167/1000,66,109.0
6172,F#2,409.75,0.25,49,109.0
6173,B-1,410.0,333/1000,70,109.0
6174,C2,410.0,0.5,60,109.0
6175,F#2,410.0,0.25,70,109.0
6176,D4,410.0,167/1000,99,109.0
6177,F4,410.0,167/1000,99,109.0
6178,A4,410.0,167/1000,99,109.0
6179,F#2,410.25,0.25,48,109.0
6180,E4,410.25,167/1000,66,109.0
6181,C4,410.25,167/1000,66,109.0
6182,G4,410.25,167/1000,66,109.0
6183,G#4,410.5,19/40,85,109.0
6184,F#2,410.5,0.25,49,109.0
6185,A5,410.5,1.5,50,109.0
6186,B-4,410.5,1.5,50,109.0
6187,D5,410.5,1.5,50,109.0
6188,F5,410.5,1.5,50,109.0
6189,F#2,410.75,0.25,50,109.0
6190,G4,411.0,71/500,65,109.0
6191,F#2,411.0,0.25,70,109.0
6192,E2,411.0,0.5,77,109.0
6193,B-3,411.0,167/1000,66,109.0
6194,D4,411.0,167/1000,66,109.0
6195,F4,411.0,167/1000,66,109.0
6196,F4,411.25,9/40,63,109.0
6197,F#2,411.25,0.25,49,109.0
6198,E-6,411.492,127/250,65,109.0
6199,D4,411.5,121/500,58,109.0
6200,F#2,411.5,0.25,45,109.0
6201,C#5,411.75,0.25,62,109.0
6202,C2,411.75,0.25,60,109.0
6203,F#2,411.75,0.25,45,109.0
6204,C#5,412.0,0.125,62,109.0
6205,E-6,412.0,623/250,65,109.0
6206,C2,412.0,0.25,60,109.0
6207,F#2,412.0,0.25,70,109.0
6208,A5,412.0,4.0,50,109.0
6209,B-4,412.0,4.0,50,109.0
6210,D5,412.0,4.0,50,109.0
6211,F5,412.0,4.0,50,109.0
6212,F#2,412.25,0.25,44,109.0
6213,G#4,412.5,483/1000,63,109.0
6214,F#2,412.5,0.25,49,109.0
6215,F#2,412.75,233/1000,50,109.0
6216,D4,413.0,1283/1000,53,109.0
6217,F#2,413.0,0.25,70,109.0
6218,E2,413.0,0.5,81,109.0
6219,F#2,413.25,0.25,48,109.0
6220,F#2,413.5,0.25,46,109.0
6221,C2,413.75,0.25,60,109.0
6222,F#2,413.75,0.25,48,109.0
6223,C2,414.0,0.25,60,109.0
6224,F#2,414.0,0.25,70,109.0
6225,F#2,414.25,0.25,47,109.0
6226,B-5,414.5,479/500,45,109.0
6227,F#2,414.5,0.25,47,109.0
6228,F#2,414.75,0.25,47,109.0
6229,F#2,415.0,0.25,70,109.0
6230,E2,415.0,0.5,80,109.0
6231,F#2,415.25,0.25,47,109.0
6232,C4,415.5,24/125,70,109.0
6233,C#6,415.5,19/40,64,109.0
6234,F#2,415.5,0.25,55,109.0
6235,E2,415.5,0.25,84,109.0
6236,F#2,415.75,0.25,50,109.0
6237,E2,415.75,0.25,84,109.0
6238,D4,415.858,71/500,72,109.0
6239,C2,416.0,1.0,80,109.0
6240,D4,416.0,23/250,72,109.0
6241,F6,416.0,3.375,64,109.0
6242,C2,416.0,1.0,67,109.0
6243,C#3,416.0,1.0,62,109.0
6244,F4,416.15,33/40,92,109.0
6245,B-4,416.5,167/1000,70,109.0
6246,D4,416.5,167/1000,70,109.0
6247,F4,416.5,167/1000,70,109.0
6248,D4,416.75,167/1000,70,109.0
6249,B-4,416.75,167/1000,70,109.0
6250,F4,416.75,167/1000,70,109.0
6251,D2,417.0,1.0,80,109.0
6252,C2,417.0,1.0,67,109.0
6253,A3,417.0,1.0,62,109.0
6254,G4,417.075,983/1000,96,109.0
6255,B-3,417.5,167/1000,66,109.0
6256,D4,417.5,167/1000,66,109.0
6257,F4,417.5,167/1000,66,109.0
6258,E2,418.0,1.0,80,109.0
6259,C2,418.0,1.0,67,109.0
6260,C#3,418.0,1.0,62,109.0
6261,A4,418.167,33/40,95,109.0
6262,C4,418.25,167/1000,66,109.0
6263,E4,418.25,167/1000,66,109.0
6264,G4,418.25,167/1000,66,109.0
6265,F#2,419.0,1.0,80,109.0
6266,C2,419.0,1.0,67,109.0
6267,A3,419.0,1.0,62,109.0
6268,D4,419.0,167/1000,66,109.0
6269,F4,419.0,167/1000,66,109.0
6270,A4,419.0,167/1000,66,109.0
6271,B4,419.133,867/1000,97,109.0
6272,E-6,419.5,0.5,52,109.0
6273,G#2,420.0,1.0,80,109.0
6274,B4,420.0,67/1000,97,109.0
6275,E-6,420.0,3.5,52,109.0
6276,C2,420.0,1.0,67,109.0
6277,C#3,420.0,1.0,62,109.0
6278,C#5,420.142,33/40,96,109.0
6279,B-2,421.0,1.0,80,109.0
6280,C2,421.0,1.0,67,109.0
6281,A3,421.0,1.0,62,109.0
6282,E-5,421.117,4/5,98,109.0
6283,B2,422.0,1.0,80,109.0
6284,C2,422.0,1.0,67,109.0
6285,C#3,422.0,1.0,62,109.0
6286,E5,422.133,421/500,104,109.0
6287,C#3,423.0,1.0,80,109.0
6288,C2,423.0,1.0,67,109.0
6289,A3,423.0,1.0,62,109.0
6290,F#5,423.083,33/40,89,109.0
6291,D2,424.0,0.5,80,109.0
6292,C2,424.0,0.25,67,109.0
6293,F#2,424.0,0.25,70,109.0
6294,E-6,424.0,4.0,56,109.0
6295,G#6,424.0,4.0,56,109.0
6296,G5,424.142,137/40,88,109.0
6297,B-2,424.5,0.25,70,109.0
6298,D2,424.75,0.25,80,109.0
6299,A1,425.0,0.25,80,109.0
6300,C2,425.0,0.25,67,109.0
6301,F2,425.0,0.25,80,109.0
6302,F#2,425.5,0.25,70,109.0
6303,F#2,425.75,0.25,70,109.0
6304,C2,426.0,0.25,67,109.0
6305,B-2,426.5,0.25,70,109.0
6306,A1,427.0,0.25,80,109.0
6307,C2,427.0,0.25,67,109.0
6308,F2,427.0,0.25,80,109.0
6309,C2,427.25,0.5,80,109.0
6310,F#2,427.5,0.25,70,109.0
6311,D2,428.0,0.5,80,109.0
6312,C2,428.0,0.25,67,109.0
6313,F#2,428.0,0.25,70,109.0
6314,B-2,428.5,0.25,70,109.0
6315,G5,428.575,1733/1000,68,109.0
6316,D2,428.75,0.25,80,109.0
6317,A1,429.0,0.25,80,109.0
6318,C2,429.0,0.25,67,109.0
6319,F2,429.0,0.25,80,109.0
6320,F#2,429.5,0.25,70,109.0
6321,F#2,429.75,0.25,70,109.0
6322,C2,430.0,0.25,67,109.0
6323,B-2,430.5,0.25,70,109.0
6324,D5,430.75,1.25,86,109.0
6325,A1,431.0,0.25,80,109.0
6326,C2,431.0,0.25,67,109.0
6327,F2,431.0,0.25,80,109.0
6328,C2,431.25,0.5,80,109.0
6329,F#2,431.5,0.25,70,109.0
6330,D2,432.0,0.5,80,109.0
6331,D5,432.0,9/5,86,109.0
6332,C2,432.0,0.25,67,109.0
6333,F#2,432.0,0.25,70,109.0
6334,E-6,432.0,4.0,56,109.0
6335,G#6,432.0,4.0,56,109.0
6336,B-2,432.5,0.25,70,109.0
6337,D2,432.75,0.25,80,109.0
6338,A1,433.0,0.25,80,109.0
6339,C2,433.0,0.25,67,109.0
6340,F2,433.0,0.25,80,109.0
6341,G4,433.0,583/1000,77,109.0
6342,C4,433.0,583/1000,77,109.0
6343,E4,433.0,583/1000,77,109.0
6344,F#2,433.5,0.25,70,109.0
6345,F#2,433.75,0.25,70,109.0
6346,G4,433.75,1/10,69,109.0
6347,C4,433.75,1/10,69,109.0
6348,E4,433.75,1/10,69,109.0
6349,C2,434.0,0.25,67,109.0
6350,B-4,434.233,1/10,70,109.0
6351,F4,434.233,1/10,70,109.0
6352,A4,434.392,1/20,54,109.0
6353,E4,434.392,1/20,54,109.0
6354,E-4,434.483,79/500,48,109.0
6355,B-2,434.5,0.25,70,109.0
6356,G4,434.5,27/250,68,109.0
6357,C4,434.5,27/250,68,109.0
6358,E4,434.5,27/250,68,109.0
6359,G#4,434.508,29/500,53,109.0
6360,G4,434.625,67/1000,54,109.0
6361,D4,434.65,3/20,43,109.0
6362,F#4,434.708,7/40,52,109.0
6363,C#4,434.842,17/1000,50,109.0
6364,C4,434.867,233/1000,50,109.0
6365,F4,434.883,23/250,43,109.0
6366,A1,435.0,0.25,80,109.0
6367,C2,435.0,0.25,67,109.0
6368,F2,435.0,0.25,80,109.0
6369,E4,435.033,7/40,48,109.0
6370,B3,435.1,27/250,38,109.0
6371,E-4,435.217,3/20,43,109.0
6372,C2,435.25,0.5,80,109.0
6373,D4,435.367,29/500,40,109.0
6374,D4,435.467,9/40,48,109.0
6375,F#2,435.5,0.25,70,109.0
6376,G4,435.5,1/10,76,109.0
6377,C4,435.5,1/10,76,109.0
6378,E4,435.5,1/10,76,109.0
6379,G#3,435.692,79/500,44,109.0
6380,C#4,435.692,79/500,44,109.0
6381,C4,435.85,67/1000,38,109.0
6382,G3,435.875,0.125,42,109.0
6383,C4,435.95,1/20,52,109.0
6384,D2,436.0,0.5,80,109.0
6385,C4,436.0,49/20,52,109.0
6386,G3,436.0,49/20,42,109.0
6387,G6,436.0,4.0,56,109.0
6388,C2,436.0,0.25,67,109.0
6389,F#2,436.0,0.25,70,109.0
6390,A4,436.25,533/1000,74,109.0
6391,D4,436.25,229/500,74,109.0
6392,F#4,436.25,229/500,74,109.0
6393,B-2,436.5,0.25,70,109.0
6394,D2,436.75,0.25,80,109.0
6395,A1,437.0,0.25,80,109.0
6396,C2,437.0,0.25,67,109.0
6397,F2,437.0,0.25,80,109.0
6398,G4,437.0,583/1000,77,109.0
6399,C4,437.0,583/1000,77,109.0
6400,E4,437.0,583/1000,77,109.0
6401,F#2,437.5,0.25,70,109.0
6402,F#2,437.75,0.25,70,109.0
6403,G4,437.75,1/10,69,109.0
6404,C4,437.75,1/10,69,109.0
6405,E4,437.75,1/10,69,109.0
6406,C2,438.0,0.25,67,109.0
6407,E2,438.0,0.25,72,109.0
6408,B-2,438.5,0.25,70,109.0
6409,G4,438.5,27/250,68,109.0
6410,C4,438.5,27/250,68,109.0
6411,E4,438.5,27/250,68,109.0
6412,E2,438.75,0.125,52,109.0
6413,E2,438.875,0.125,52,109.0
6414,A1,439.0,0.25,80,109.0
6415,C2,439.0,0.25,67,109.0
6416,E2,439.0,0.125,72,109.0
6417,A4,439.083,129/500,81,109.0
6418,E2,439.25,0.125,72,109.0
6419,C2,439.5,0.25,80,109.0
6420,F#2,439.5,0.25,70,109.0
6421,F2,439.5,0.25,80,109.0
6422,G4,439.5,1/10,76,109.0
6423,C4,439.5,1/10,76,109.0
6424,E4,439.5,1/10,76,109.0
6425,C5,439.558,183/1000,90,109.0
6426,D2,440.0,633/1000,80,109.0
6427,F6,440.0,4.0,56,109.0
6428,C2,440.0,0.25,67,109.0
6429,F#2,440.0,0.25,63,109.0
6430,E-4,440.0,0.25,44,109.0
6431,E-5,440.083,229/500,82,109.0
6432,A3,440.25,533/1000,64,109.0
6433,D4,440.25,229/500,74,109.0
6434,F#4,440.25,229/500,74,109.0
6435,F#2,440.5,0.25,63,109.0
6436,E-4,440.5,0.25,21,109.0
6437,D5,440.6,24/125,77,109.0
6438,D2,440.75,1/5,80,109.0
6439,E4,440.75,0.25,47,109.0
6440,A1,441.0,173/250,80,109.0
6441,C2,441.0,0.25,67,109.0
6442,F#2,441.0,0.25,63,109.0
6443,E2,441.0,0.25,72,109.0
6444,E-4,441.0,0.5,36,109.0
6445,G4,441.0,583/1000,77,109.0
6446,C4,441.0,583/1000,77,109.0
6447,E4,441.0,583/1000,77,109.0
6448,C5,441.067,7/40,69,109.0
6449,F#2,441.5,0.25,63,109.0
6450,E4,441.5,0.25,50,109.0
6451,A4,441.583,226/125,62,109.0
6452,F#2,441.75,0.25,63,109.0
6453,G4,441.75,1/10,69,109.0
6454,C4,441.75,1/10,69,109.0
6455,E4,441.75,1/10,69,109.0
6456,D2,442.0,467/1000,80,109.0
6457,C2,442.0,0.25,67,109.0
6458,F#2,442.0,0.25,63,109.0
6459,E-4,442.0,0.25,33,109.0
6460,F#2,442.5,0.25,63,109.0
6461,E-4,442.5,0.25,24,109.0
6462,G4,442.5,27/250,68,109.0
6463,C4,442.5,27/250,68,109.0
6464,E4,442.5,27/250,68,109.0
6465,D2,442.75,1/5,80,109.0
6466,E4,442.75,0.25,47,109.0
6467,A1,443.0,229/500,80,109.0
6468,C2,443.0,0.25,67,109.0
6469,F#2,443.0,0.25,63,109.0
6470,E2,443.0,0.25,72,109.0
6471,E-4,443.0,0.5,42,109.0
6472,C2,443.5,9/20,80,109.0
6473,F#2,443.5,0.25,63,109.0
6474,D4,443.5,0.5,61,109.0
6475,G4,443.5,1/10,76,109.0
6476,C4,443.5,1/10,76,109.0
6477,E4,443.5,1/10,76,109.0
6478,C5,443.575,9/40,81,109.0
6479,F#2,443.75,0.25,63,109.0
6480,D2,444.0,7/10,80,109.0
6481,G6,444.0,4.0,56,109.0
6482,C2,444.0,0.25,67,109.0
6483,F#2,444.0,0.25,63,109.0
6484,E-4,444.0,0.25,31,109.0
6485,E-5,444.067,229/500,72,109.0
6486,A4,444.25,533/1000,74,109.0
6487,D4,444.25,229/500,74,109.0
6488,F#4,444.25,229/500,74,109.0
6489,F#2,444.5,0.25,63,109.0
6490,E-4,444.5,0.25,21,109.0
6491,D5,444.617,1/5,69,109.0
6492,D2,444.75,1/5,80,109.0
6493,E4,444.75,0.25,39,109.0
6494,A1,445.0,7/10,80,109.0
6495,C2,445.0,0.25,67,109.0
6496,F#2,445.0,0.25,63,109.0
6497,E2,445.0,0.25,72,109.0
6498,E-4,445.0,0.5,29,109.0
6499,G4,445.0,583/1000,77,109.0
6500,C4,445.0,583/1000,77,109.0
6501,E4,445.0,583/1000,77,109.0
6502,C5,445.075,217/1000,69,109.0
6503,F#2,445.5,0.25,63,109.0
6504,E4,445.5,0.25,56,109.0
6505,A4,445.575,57/40,81,109.0
6506,F#2,445.75,0.25,63,109.0
6507,G4,445.75,1/10,69,109.0
6508,C4,445.75,1/10,69,109.0
6509,E4,445.75,1/10,69,109.0
6510,D2,446.0,9/20,80,109.0
6511,C2,446.0,0.25,67,109.0
6512,F#2,446.0,0.25,63,109.0
6513,E-4,446.0,0.25,29,109.0
6514,F#2,446.5,0.25,63,109.0
6515,E-4,446.5,0.25,25,109.0
6516,G4,446.5,27/250,68,109.0
6517,C4,446.5,27/250,68,109.0
6518,E4,446.5,27/250,68,109.0
6519,D2,446.75,1/5,80,109.0
6520,C2,447.0,467/1000,80,109.0
6521,C2,447.0,0.25,67,109.0
6522,F#2,447.0,0.25,63,109.0
6523,E2,447.0,0.25,72,109.0
6524,E-4,447.0,0.25,33,109.0
6525,C5,447.1,49/125,81,109.0
6526,A1,447.5,229/500,80,109.0
6527,F#2,447.5,0.25,63,109.0
6528,D4,447.5,0.25,61,109.0
6529,G4,447.5,1/10,76,109.0
6530,C4,447.5,1/10,76,109.0
6531,E4,447.5,1/10,76,109.0
6532,D5,447.575,217/1000,81,109.0
6533,F#2,447.75,0.25,63,109.0
6534,B-1,448.0,633/1000,80,109.0
6535,F6,448.0,4.0,56,109.0
6536,C2,448.0,0.25,67,109.0
6537,F#2,448.0,0.25,63,109.0
6538,E-4,448.0,0.25,36,109.0
6539,G#4,448.067,49/125,72,109.0
6540,A3,448.25,533/1000,64,109.0
6541,D4,448.25,229/500,74,109.0
6542,F#4,448.25,229/500,74,109.0
6543,F#2,448.5,0.25,63,109.0
6544,E-4,448.5,0.25,18,109.0
6545,G4,448.583,121/500,72,109.0
6546,B-1,448.75,1/5,80,109.0
6547,E4,448.75,0.25,29,109.0
6548,F1,449.0,9/20,80,109.0
6549,C4,449.0,19/40,80,109.0
6550,C2,449.0,0.25,67,109.0
6551,F#2,449.0,0.25,63,109.0
6552,E2,449.0,0.25,72,109.0
6553,E-4,449.0,0.5,29,109.0
6554,F3,449.0,0.5,60,109.0
6555,A3,449.0,0.5,60,109.0
6556,F4,449.033,23/250,67,109.0
6557,F#2,449.5,0.25,63,109.0
6558,E4,449.5,0.25,47,109.0
6559,D4,449.558,1817/1000,77,109.0
6560,F#2,449.75,0.25,63,109.0
6561,F3,449.75,27/250,61,109.0
6562,A3,449.75,27/250,61,109.0
6563,C4,449.75,27/250,61,109.0
6564,B-1,450.0,229/500,80,109.0
6565,C2,450.0,0.25,67,109.0
6566,F#2,450.0,0.25,63,109.0
6567,E-4,450.0,0.25,29,109.0
6568,F#2,450.5,0.25,63,109.0
6569,E-4,450.5,0.25,18,109.0
6570,F3,450.517,117/1000,67,109.0
6571,A3,450.517,117/1000,67,109.0
6572,C4,450.517,117/1000,67,109.0
6573,B-1,450.75,1/5,80,109.0
6574,E4,450.75,0.25,50,109.0
6575,F1,451.0,229/500,80,109.0
6576,C2,451.0,0.25,67,109.0
6577,F#2,451.0,0.25,63,109.0
6578,E2,451.0,0.25,72,109.0
6579,E-4,451.0,0.5,50,109.0
6580,G#1,451.5,9/20,80,109.0
6581,F#2,451.5,0.25,63,109.0
6582,D4,451.5,0.5,56,109.0
6583,F3,451.5,27/250,57,109.0
6584,A3,451.5,27/250,57,109.0
6585,C4,451.5,27/250,57,109.0
6586,D4,451.517,26/125,77,109.0
6587,F#2,451.75,0.25,63,109.0
6588,F4,451.775,217/1000,71,109.0
6589,B-1,452.0,26/125,80,109.0
6590,B-5,452.0,4.0,62,109.0
6591,C2,452.0,0.25,67,109.0
6592,F#2,452.0,0.25,63,109.0
6593,E-4,452.0,0.25,29,109.0
6594,F4,452.0,1.0,60,109.0
6595,D4,452.0,1.0,60,109.0
6596,B-3,452.0,1.0,60,109.0
6597,A4,452.058,11/40,61,109.0
6598,F3,452.267,117/1000,71,109.0
6599,A3,452.267,117/1000,71,109.0
6600,C4,452.267,117/1000,71,109.0
6601,B-1,452.5,217/1000,80,109.0
6602,F#2,452.5,0.25,63,109.0
6603,E-4,452.5,0.25,24,109.0
6604,G4,452.525,26/125,70,109.0
6605,E4,452.75,0.25,29,109.0
6606,F4,452.983,7/40,76,109.0
6607,F1,453.0,229/500,80,109.0
6608,C2,453.0,0.25,67,109.0
6609,F#2,453.0,0.25,63,109.0
6610,E2,453.0,0.25,72,109.0
6611,E-4,453.0,0.25,27,109.0
6612,G4,453.0,1.0,60,109.0
6613,E4,453.0,1.0,60,109.0
6614,C4,453.0,1.0,60,109.0
6615,B-3,453.0,0.25,94,109.0
6616,D4,453.0,0.25,94,109.0
6617,F3,453.0,0.25,94,109.0
6618,F3,453.008,617/1000,79,109.0
6619,A3,453.008,617/1000,79,109.0
6620,C4,453.008,617/1000,79,109.0
6621,F#2,453.5,0.25,63,109.0
6622,E4,453.5,0.25,23,109.0
6623,D4,453.55,79/500,70,109.0
6624,G1,453.75,7/10,80,109.0
6625,F#2,453.75,0.25,63,109.0
6626,E2,453.75,0.25,72,109.0
6627,F3,453.75,0.125,69,109.0
6628,A3,453.75,0.125,69,109.0
6629,C4,453.75,0.125,69,109.0
6630,D4,453.75,0.75,94,109.0
6631,F3,453.75,0.75,94,109.0
6632,B-3,453.75,0.75,94,109.0
6633,F4,453.808,0.75,92,109.0
6634,C2,454.0,0.25,67,109.0
6635,B-2,454.0,0.25,70,109.0
6636,E-4,454.0,0.25,23,109.0
6637,A4,454.0,1.0,60,109.0
6638,F#4,454.0,1.0,60,109.0
6639,D4,454.0,1.0,60,109.0
6640,A1,454.5,217/1000,80,109.0
6641,F3,454.5,0.125,73,109.0
6642,A3,454.5,0.125,73,109.0
6643,C4,454.5,0.125,73,109.0
6644,C4,454.5,0.25,94,109.0
6645,E4,454.5,0.25,94,109.0
6646,A3,454.5,0.25,94,109.0
6647,G4,454.608,26/125,77,109.0
6648,A1,455.0,0.375,80,109.0
6649,C2,455.0,0.25,67,109.0
6650,E2,455.0,0.25,72,109.0
6651,B4,455.0,1.0,60,109.0
6652,G#4,455.0,1.0,60,109.0
6653,E4,455.0,1.0,60,109.0
6654,A4,455.083,129/500,81,109.0
6655,C2,455.5,51/125,80,109.0
6656,C2,455.5,0.25,67,109.0
6657,F#2,455.5,0.25,63,109.0
6658,F3,455.5,23/250,80,109.0
6659,A3,455.5,23/250,80,109.0
6660,C4,455.5,23/250,80,109.0
6661,C5,455.558,183/1000,90,109.0
6662,F#2,455.75,0.25,63,109.0
6663,D2,456.0,7/10,80,109.0
6664,B-5,456.0,3.5,62,109.0
6665,C2,456.0,0.25,67,109.0
6666,F#2,456.0,0.25,63,109.0
6667,E-4,456.0,0.25,47,109.0
6668,C#5,456.0,1.0,60,109.0
6669,B-4,456.0,1.0,60,109.0
6670,F#4,456.0,1.0,60,109.0
6671,E-5,456.083,229/500,82,109.0
6672,F3,456.25,27/250,76,109.0
6673,A3,456.25,27/250,76,109.0
6674,C4,456.25,27/250,76,109.0
6675,F#2,456.5,0.25,63,109.0
6676,E-4,456.5,0.25,23,109.0
6677,D5,456.6,24/125,77,109.0
6678,D2,456.75,1/5,80,109.0
6679,E4,456.75,0.25,47,109.0
6680,A1,457.0,173/250,80,109.0
6681,C2,457.0,0.25,67,109.0
6682,F#2,457.0,0.25,63,109.0
6683,E2,457.0,0.25,72,109.0
6684,E-4,457.0,0.5,33,109.0
6685,E-5,457.0,1.0,60,109.0
6686,C5,457.0,1.0,60,109.0
6687,G#4,457.0,1.0,60,109.0
6688,F3,457.058,567/1000,67,109.0
6689,A3,457.058,567/1000,67,109.0
6690,D4,457.058,567/1000,67,109.0
6691,C5,457.067,7/40,69,109.0
6692,F#2,457.5,0.25,63,109.0
6693,E4,457.5,0.5,44,109.0
6694,A4,457.583,226/125,62,109.0
6695,F#2,457.75,0.25,63,109.0
6696,A3,457.783,27/250,64,109.0
6697,F3,457.783,27/250,64,109.0
6698,D4,457.783,27/250,64,109.0
6699,D2,458.0,467/1000,80,109.0
6700,C2,458.0,0.25,67,109.0
6701,F#2,458.0,0.25,63,109.0
6702,E-4,458.0,0.25,25,109.0
6703,E5,458.0,1.0,60,109.0
6704,C#5,458.0,1.0,60,109.0
6705,A4,458.0,1.0,60,109.0
6706,F#2,458.5,0.25,63,109.0
6707,E-4,458.5,0.25,25,109.0
6708,A3,458.5,71/500,56,109.0
6709,F3,458.5,71/500,56,109.0
6710,D4,458.5,71/500,56,109.0
6711,D2,458.75,1/5,80,109.0
6712,E4,458.75,0.25,50,109.0
6713,A1,459.0,229/500,80,109.0
6714,C2,459.0,0.25,67,109.0
6715,F#2,459.0,0.25,63,109.0
6716,E2,459.0,0.25,72,109.0
6717,E-4,459.0,0.5,42,109.0
6718,F#5,459.0,1.0,60,109.0
6719,E-5,459.0,1.0,60,109.0
6720,B4,459.0,1.0,60,109.0
6721,C2,459.5,9/20,80,109.0
6722,F#2,459.5,0.25,63,109.0
6723,D4,459.5,0.5,56,109.0
6724,F3,459.5,27/250,63,109.0
6725,A3,459.5,27/250,63,109.0
6726,D4,459.5,27/250,63,109.0
6727,C5,459.575,9/40,81,109.0
6728,F#2,459.75,0.25,63,109.0
6729,D2,460.0,7/10,80,109.0
6730,C2,460.0,0.25,67,109.0
6731,F#2,460.0,0.25,63,109.0
6732,E-4,460.0,0.25,31,109.0
6733,G5,460.0,4.0,60,109.0
6734,E5,460.0,4.0,60,109.0
6735,C5,460.0,4.0,60,109.0
6736,E-5,460.067,229/500,72,109.0
6737,F3,460.25,23/250,69,109.0
6738,A3,460.25,23/250,69,109.0
6739,D4,460.25,23/250,69,109.0
6740,F#2,460.5,0.25,63,109.0
6741,E-4,460.5,0.25,22,109.0
6742,D5,460.617,1/5,69,109.0
6743,D2,460.75,1/5,80,109.0
6744,E4,460.75,0.25,44,109.0
6745,A1,461.0,7/10,80,109.0
6746,C2,461.0,0.25,67,109.0
6747,F#2,461.0,0.25,63,109.0
6748,E2,461.0,0.25,72,109.0
6749,E-4,461.0,0.5,31,109.0
6750,A3,461.033,3/5,85,109.0
6751,F3,461.033,3/5,85,109.0
6752,D4,461.033,3/5,85,109.0
6753,C5,461.075,217/1000,69,109.0
6754,F#2,461.5,0.25,63,109.0
6755,E4,461.5,0.5,50,109.0
6756,A4,461.575,57/40,81,109.0
6757,F#2,461.75,0.25,63,109.0
6758,C4,461.75,0.25,56,109.0
6759,G3,461.75,0.25,56,109.0
6760,E3,461.75,0.25,56,109.0
6761,D2,462.0,9/20,80,109.0
6762,C2,462.0,0.25,67,109.0
6763,F#2,462.0,0.25,63,109.0
6764,E-4,462.0,0.25,36,109.0
6765,F#2,462.5,0.25,63,109.0
6766,E-4,462.5,0.25,24,109.0
6767,D2,462.75,1/5,80,109.0
6768,E4,462.75,0.25,50,109.0
6769,F3,462.75,0.5,68,109.0
6770,B-3,462.75,0.5,68,109.0
6771,D4,462.75,0.5,68,109.0
6772,C2,463.0,467/1000,80,109.0
6773,C2,463.0,0.25,67,109.0
6774,F#2,463.0,0.25,63,109.0
6775,E2,463.0,0.25,72,109.0
6776,E-4,463.0,0.5,33,109.0
6777,C5,463.1,49/125,81,109.0
6778,A1,463.5,229/500,80,109.0
6779,F#2,463.5,0.25,63,109.0
6780,D4,463.5,0.5,56,109.0
6781,G3,463.5,0.25,68,109.0
6782,C4,463.5,0.25,68,109.0
6783,E4,463.5,0.25,68,109.0
6784,D5,463.575,217/1000,81,109.0
6785,F#2,463.75,0.25,63,109.0
6786,B-1,464.0,7/10,80,109.0
6787,C2,464.0,0.25,67,109.0
6788,F#2,464.0,0.25,63,109.0
6789,E-4,464.0,0.25,25,109.0
6790,F3,464.0,0.25,68,109.0
6791,B-3,464.0,0.25,68,109.0
6792,D4,464.0,0.25,68,109.0
6793,G#4,464.067,49/125,72,109.0
6794,F#2,464.5,0.25,63,109.0
6795,E-4,464.5,0.25,25,109.0
6796,G3,464.5,0.25,68,109.0
6797,C4,464.5,0.25,68,109.0
6798,E4,464.5,0.25,68,109.0
6799,G4,464.583,121/500,72,109.0
6800,B-1,464.75,1/5,80,109.0
6801,F1,465.0,9/20,80,109.0
6802,C4,465.0,19/40,80,109.0
6803,C2,465.0,0.25,67,109.0
6804,F#2,465.0,0.25,63,109.0
6805,E2,465.0,0.25,72,109.0
6806,E4,465.0,0.25,29,109.0
6807,E-4,465.0,0.5,29,109.0
6808,F3,465.0,0.5,60,109.0
6809,A3,465.0,0.5,60,109.0
6810,F4,465.033,23/250,67,109.0
6811,F#2,465.5,0.25,63,109.0
6812,E4,465.5,0.25,50,109.0
6813,D4,465.558,1817/1000,77,109.0
6814,F#2,465.75,0.25,63,109.0
6815,F3,465.75,27/250,61,109.0
6816,A3,465.75,27/250,61,109.0
6817,C4,465.75,27/250,61,109.0
6818,B-1,466.0,229/500,80,109.0
6819,C2,466.0,0.25,67,109.0
6820,F#2,466.0,0.25,63,109.0
6821,E-4,466.0,0.25,24,109.0
6822,F#2,466.5,0.25,63,109.0
6823,E-4,466.5,0.25,23,109.0
6824,F3,466.517,117/1000,67,109.0
6825,A3,466.517,117/1000,67,109.0
6826,C4,466.517,117/1000,67,109.0
6827,B-1,466.75,1/5,80,109.0
6828,E4,466.75,0.25,47,109.0
6829,F1,467.0,229/500,80,109.0
6830,C2,467.0,0.25,67,109.0
6831,F#2,467.0,0.25,63,109.0
6832,E2,467.0,0.25,72,109.0
6833,E-4,467.0,0.5,39,109.0
6834,G#1,467.5,9/20,80,109.0
6835,F#2,467.5,0.25,63,109.0
6836,D4,467.5,0.5,56,109.0
6837,F3,467.5,27/250,57,109.0
6838,A3,467.5,27/250,57,109.0
6839,C4,467.5,27/250,57,109.0
6840,D4,467.517,26/125,77,109.0
6841,F#2,467.75,0.25,63,109.0
6842,F4,467.775,217/1000,71,109.0
6843,G5,468.0,0.0,69,109.0
6844,B-1,468.0,177/250,80,109.0
6845,C2,468.0,0.25,67,109.0
6846,F#2,468.0,0.25,63,109.0
6847,E-4,468.0,0.25,33,109.0
6848,A4,468.058,11/40,61,109.0
6849,F3,468.267,117/1000,71,109.0
6850,A3,468.267,117/1000,71,109.0
6851,C4,468.267,117/1000,71,109.0
6852,F#2,468.5,0.25,63,109.0
6853,E-4,468.5,0.25,23,109.0
6854,G4,468.525,26/125,70,109.0
6855,B-1,468.75,217/1000,80,109.0
6856,E4,468.75,0.25,42,109.0
6857,F1,469.0,229/500,80,109.0
6858,C2,469.0,0.25,67,109.0
6859,F#2,469.0,0.25,63,109.0
6860,E2,469.0,0.25,72,109.0
6861,E-4,469.0,0.5,36,109.0
6862,F3,469.008,617/1000,79,109.0
6863,A3,469.008,617/1000,79,109.0
6864,C4,469.008,617/1000,79,109.0
6865,F4,469.017,121/500,75,109.0
6866,F#4,469.292,129/500,59,109.0
6867,F#2,469.5,0.25,63,109.0
6868,E4,469.5,0.25,44,109.0
6869,D4,469.592,1867/1000,81,109.0
6870,G1,469.75,7/10,80,109.0
6871,F#2,469.75,0.25,63,109.0
6872,F3,469.75,0.125,69,109.0
6873,A3,469.75,0.125,69,109.0
6874,C4,469.75,0.125,69,109.0
6875,F#2,470.0,0.25,63,109.0
6876,E2,470.0,0.25,72,109.0
6877,E-4,470.0,0.25,31,109.0
6878,B-1,470.5,217/1000,80,109.0
6879,F#2,470.5,0.25,63,109.0
6880,E-4,470.5,0.25,27,109.0
6881,F3,470.5,0.125,73,109.0
6882,A3,470.5,0.125,73,109.0
6883,C4,470.5,0.125,73,109.0
6884,E2,470.75,0.125,40,109.0
6885,E4,470.75,0.25,39,109.0
6886,E2,470.875,0.125,40,109.0
6887,A1,471.0,217/1000,80,109.0
6888,F#2,471.0,0.25,63,109.0
6889,E2,471.0,0.25,56,109.0
6890,E-4,471.0,0.5,44,109.0
6891,E2,471.25,0.25,72,109.0
6892,G#1,471.5,26/125,80,109.0
6893,F#2,471.5,0.25,63,109.0
6894,G2,471.5,0.25,80,109.0
6895,D4,471.5,0.25,56,109.0
6896,F3,471.5,23/250,80,109.0
6897,A3,471.5,23/250,80,109.0
6898,C4,471.5,23/250,80,109.0
6899,C4,471.6,167/1000,69,109.0
6900,F#2,471.75,0.25,63,109.0
6901,D4,471.817,183/1000,66,109.0
6902,G1,472.0,177/250,80,109.0
6903,D4,472.0,23/250,66,109.0
6904,C2,472.0,0.25,67,109.0
6905,F#2,472.0,0.25,70,109.0
6906,C#3,472.0,1.0,66,109.0
6907,E-4,472.0,0.25,25,109.0
6908,F4,472.058,417/1000,76,109.0
6909,F3,472.25,27/250,76,109.0
6910,A3,472.25,27/250,76,109.0
6911,C4,472.25,27/250,76,109.0
6912,B-2,472.5,0.25,70,109.0
6913,E-4,472.5,0.25,25,109.0
6914,G4,472.558,24/125,63,109.0
6915,G1,473.0,229/500,80,109.0
6916,E2,473.0,0.25,64,109.0
6917,E4,473.0,0.25,29,109.0
6918,E-4,473.0,0.5,29,109.0
6919,A4,473.025,79/500,79,109.0
6920,F3,473.058,567/1000,67,109.0
6921,A3,473.058,567/1000,67,109.0
6922,D4,473.058,567/1000,67,109.0
6923,A1,473.5,151/125,80,109.0
6924,C2,473.5,0.25,67,109.0
6925,F#2,473.5,0.25,70,109.0
6926,E4,473.5,0.25,50,109.0
6927,C5,473.567,917/1000,86,109.0
6928,F#2,473.75,0.25,70,109.0
6929,A3,473.783,27/250,64,109.0
6930,F3,473.783,27/250,64,109.0
6931,D4,473.783,27/250,64,109.0
6932,C2,474.0,0.25,67,109.0
6933,E-4,474.0,0.25,24,109.0
6934,G5,474.0,4.0,60,109.0
6935,E5,474.0,4.0,60,109.0
6936,C5,474.0,4.0,60,109.0
6937,B-2,474.5,0.25,70,109.0
6938,E-4,474.5,0.25,23,109.0
6939,A3,474.5,71/500,56,109.0
6940,F3,474.5,71/500,56,109.0
6941,D4,474.5,71/500,56,109.0
6942,D5,474.558,167/1000,89,109.0
6943,E4,474.75,0.25,47,109.0
6944,A1,475.0,229/500,80,109.0
6945,E2,475.0,0.25,64,109.0
6946,E-4,475.0,0.5,39,109.0
6947,F5,475.025,3/20,90,109.0
6948,B-1,475.5,0.5,80,109.0
6949,C2,475.5,0.25,67,109.0
6950,F#2,475.5,0.25,70,109.0
6951,D4,475.5,0.5,56,109.0
6952,F3,475.5,27/250,63,109.0
6953,A3,475.5,27/250,63,109.0
6954,D4,475.5,27/250,63,109.0
6955,G5,475.567,433/1000,96,109.0
6956,B-1,476.0,177/250,80,109.0
6957,G5,476.0,21/40,96,109.0
6958,C2,476.0,0.25,67,109.0
6959,F#2,476.0,0.25,70,109.0
6960,E-4,476.0,0.25,33,109.0
6961,F3,476.25,23/250,69,109.0
6962,A3,476.25,23/250,69,109.0
6963,D4,476.25,23/250,69,109.0
6964,B-2,476.5,0.25,70,109.0
6965,E-4,476.5,0.25,23,109.0
6966,F5,476.567,0.375,67,109.0
6967,E4,476.75,0.25,42,109.0
6968,B-1,477.0,229/500,80,109.0
6969,E2,477.0,0.25,64,109.0
6970,E-4,477.0,0.5,36,109.0
6971,A3,477.033,3/5,85,109.0
6972,F3,477.033,3/5,85,109.0
6973,D4,477.033,3/5,85,109.0
6974,D5,477.05,183/1000,72,109.0
6975,C2,477.5,579/500,80,109.0
6976,C2,477.5,0.25,67,109.0
6977,F#2,477.5,0.25,70,109.0
6978,E4,477.5,0.25,44,109.0
6979,C5,477.558,9/10,72,109.0
6980,F#2,477.75,0.25,70,109.0
6981,C4,477.75,0.25,56,109.0
6982,G3,477.75,0.25,56,109.0
6983,E3,477.75,0.25,56,109.0
6984,C2,478.0,0.25,67,109.0
6985,E-4,478.0,0.25,31,109.0
6986,B-2,478.5,0.25,70,109.0
6987,E-4,478.5,0.25,27,109.0
6988,D5,478.575,77/250,80,109.0
6989,E4,478.75,0.25,39,109.0
6990,F3,478.75,0.5,68,109.0
6991,B-3,478.75,0.5,68,109.0
6992,D4,478.75,0.5,68,109.0
6993,C2,479.0,0.25,80,109.0
6994,E2,479.0,0.25,64,109.0
6995,E-4,479.0,0.5,44,109.0
6996,F4,479.067,267/1000,64,109.0
6997,D2,479.5,0.5,80,109.0
6998,G#4,479.5,0.5,72,109.0
6999,C2,479.5,0.25,67,109.0
7000,F#2,479.5,0.25,70,109.0
7001,C#3,479.5,0.5,66,109.0
7002,D4,479.5,0.25,56,109.0
7003,G3,479.5,0.25,68,109.0
7004,C4,479.5,0.25,68,109.0
7005,E4,479.5,0.25,68,109.0
7006,D2,480.0,151/125,80,109.0
7007,G#4,480.0,2633/1000,72,109.0
7008,C2,480.0,0.25,67,109.0
7009,F#2,480.0,0.25,70,109.0
7010,E-4,480.0,0.25,25,109.0
7011,F3,480.0,0.25,68,109.0
7012,B-3,480.0,0.25,68,109.0
7013,D4,480.0,0.25,68,109.0
7014,B-2,480.5,0.25,70,109.0
7015,E-4,480.5,0.25,25,109.0
7016,E2,481.0,0.25,64,109.0
7017,E4,481.0,0.25,29,109.0
7018,E-4,481.0,0.5,29,109.0
7019,B-3,481.0,1.5,63,109.0
7020,D4,481.0,1.5,63,109.0
7021,F3,481.0,1.5,63,109.0
7022,D3,481.5,26/125,62,109.0
7023,C2,481.5,0.25,67,109.0
7024,F#2,481.5,0.25,70,109.0
7025,E4,481.5,0.25,50,109.0
7026,E3,481.75,1/5,60,109.0
7027,F#2,481.75,0.25,70,109.0
7028,D3,482.0,217/1000,62,109.0
7029,C2,482.0,0.25,67,109.0
7030,E-4,482.0,0.25,24,109.0
7031,A2,482.5,233/1000,51,109.0
7032,B-2,482.5,0.25,70,109.0
7033,E-4,482.5,0.25,23,109.0
7034,C4,482.5,2.0,55,109.0
7035,G3,482.5,2.0,55,109.0
7036,E4,482.5,2.0,55,109.0
7037,B2,482.75,1/5,56,109.0
7038,E4,482.75,0.25,47,109.0
7039,A2,483.0,433/1000,73,109.0
7040,E2,483.0,0.25,64,109.0
7041,E-4,483.0,0.5,39,109.0
7042,A1,483.5,233/1000,61,109.0
7043,C2,483.5,0.25,67,109.0
7044,F#2,483.5,0.25,70,109.0
7045,D4,483.5,0.5,56,109.0
7046,D2,484.0,151/125,80,109.0
7047,C2,484.0,0.25,67,109.0
7048,F#2,484.0,0.25,70,109.0
7049,E-4,484.0,0.25,33,109.0
7050,G5,484.0,4.0,60,109.0
7051,E5,484.0,4.0,60,109.0
7052,C5,484.0,4.0,60,109.0
7053,F#2,484.5,0.25,70,109.0
7054,E-4,484.5,0.25,23,109.0
7055,F4,484.5,0.5,63,109.0
7056,A3,484.5,0.5,63,109.0
7057,D4,484.5,0.5,63,109.0
7058,C2,484.75,0.25,67,109.0
7059,E4,484.75,0.25,42,109.0
7060,F#2,485.0,0.25,70,109.0
7061,E2,485.0,0.25,72,109.0
7062,E-4,485.0,0.5,36,109.0
7063,D3,485.5,26/125,62,109.0
7064,C2,485.5,0.25,67,109.0
7065,F#2,485.5,0.25,70,109.0
7066,E4,485.5,0.25,44,109.0
7067,E3,485.75,26/125,62,109.0
7068,F#2,485.75,0.25,70,109.0
7069,D3,486.0,26/125,62,109.0
7070,F#2,486.0,0.25,70,109.0
7071,E2,486.0,0.25,72,109.0
7072,E-4,486.0,0.25,31,109.0
7073,A2,486.5,26/125,61,109.0
7074,F#2,486.5,0.25,70,109.0
7075,E-4,486.5,0.25,27,109.0
7076,F4,486.5,1.5,63,109.0
7077,A3,486.5,1.5,63,109.0
7078,D4,486.5,1.5,63,109.0
7079,B2,486.75,26/125,62,109.0
7080,E2,486.75,0.125,40,109.0
7081,E4,486.75,0.25,39,109.0
7082,E2,486.875,0.125,40,109.0
7083,A2,487.0,9/20,64,109.0
7084,F#2,487.0,0.25,70,109.0
7085,E2,487.0,0.25,56,109.0
7086,E-4,487.0,0.5,44,109.0
7087,E2,487.25,0.25,72,109.0
7088,D1,487.5,1/5,80,109.0
7089,F#2,487.5,0.25,70,109.0
7090,G2,487.5,0.25,80,109.0
7091,D4,487.5,0.25,56,109.0
7092,A3,487.558,217/1000,80,109.0
7093,E1,487.75,1/5,80,109.0
7094,F#2,487.75,0.25,70,109.0
7095,B3,487.817,183/1000,72,109.0
7096,G1,488.0,177/250,80,109.0
7097,B3,488.0,21/500,72,109.0
7098,C2,488.0,0.25,67,109.0
7099,F#2,488.0,0.25,70,109.0
7100,A3,488.0,0.5,66,109.0
7101,E-4,488.0,0.25,25,109.0
7102,F4,488.0,2.0,60,109.0
7103,B-3,488.0,2.0,60,109.0
7104,C4,488.0,2.0,60,109.0
7105,G3,488.0,2.0,60,109.0
7106,D4,488.075,433/1000,89,109.0
7107,E4,488.5,9/40,98,109.0
7108,B-2,488.5,0.25,70,109.0
7109,E-4,488.5,0.25,25,109.0
7110,G1,489.0,229/500,80,109.0
7111,F4,489.0,221/500,81,109.0
7112,E2,489.0,0.25,64,109.0
7113,E4,489.0,0.25,29,109.0
7114,E-4,489.0,0.5,29,109.0
7115,F#1,489.5,151/125,80,109.0
7116,A4,489.5,867/1000,82,109.0
7117,C2,489.5,0.25,67,109.0
7118,F#2,489.5,0.25,70,109.0
7119,E4,489.5,0.25,50,109.0
7120,F#2,489.75,0.25,70,109.0
7121,C2,490.0,0.25,67,109.0
7122,E-4,490.0,0.25,24,109.0
7123,G5,490.0,2.0,60,109.0
7124,E5,490.0,2.0,60,109.0
7125,C5,490.0,2.0,60,109.0
7126,B-2,490.5,0.25,70,109.0
7127,E-4,490.5,0.25,23,109.0
7128,C#4,490.5,76/125,60,109.0
7129,F#4,490.5,76/125,60,109.0
7130,A3,490.5,76/125,60,109.0
7131,D3,490.5,76/125,60,109.0
7132,B4,490.533,0.25,114,109.0
7133,E4,490.75,0.25,47,109.0
7134,F#1,491.0,229/500,80,109.0
7135,E2,491.0,0.25,64,109.0
7136,E-4,491.0,0.5,39,109.0
7137,D5,491.042,183/1000,80,109.0
7138,C#4,491.267,27/250,60,109.0
7139,F#4,491.267,27/250,60,109.0
7140,A3,491.267,27/250,60,109.0
7141,D3,491.275,27/250,61,109.0
7142,F#4,491.275,27/250,61,109.0
7143,A3,491.275,27/250,61,109.0
7144,F1,491.5,0.5,80,109.0
7145,C2,491.5,0.25,67,109.0
7146,F#2,491.5,0.25,70,109.0
7147,D4,491.5,0.5,56,109.0
7148,E5,491.542,229/500,93,109.0
7149,F1,492.0,177/250,80,109.0
7150,E5,492.0,11/20,93,109.0
7151,C2,492.0,0.25,67,109.0
7152,F#2,492.0,0.25,70,109.0
7153,E-4,492.0,0.25,33,109.0
7154,C5,492.0,4.0,60,109.0
7155,E5,492.0,4.0,60,109.0
7156,C#4,492.042,27/250,52,109.0
7157,F#4,492.042,27/250,52,109.0
7158,A3,492.042,27/250,52,109.0
7159,D3,492.042,27/250,59,109.0
7160,F#4,492.042,27/250,59,109.0
7161,A3,492.042,27/250,59,109.0
7162,G5,492.067,3933/1000,60,109.0
7163,D5,492.5,367/1000,83,109.0
7164,B-2,492.5,0.25,70,109.0
7165,E-4,492.5,0.25,23,109.0
7166,E4,492.75,0.25,42,109.0
7167,F1,493.0,229/500,80,109.0
7168,C5,493.0,221/500,72,109.0
7169,E2,493.0,0.25,64,109.0
7170,E-4,493.0,0.5,36,109.0
7171,F#4,493.033,0.125,48,109.0
7172,D3,493.033,0.125,48,109.0
7173,C#4,493.033,0.125,48,109.0
7174,A3,493.033,0.125,48,109.0
7175,B-1,493.5,151/125,80,109.0
7176,D5,493.5,833/1000,98,109.0
7177,C2,493.5,0.25,67,109.0
7178,F#2,493.5,0.25,70,109.0
7179,E4,493.5,0.25,44,109.0
7180,F#2,493.75,0.25,70,109.0
7181,C#4,493.775,79/500,54,109.0
7182,F#4,493.775,79/500,54,109.0
7183,A3,493.775,79/500,54,109.0
7184,D3,493.775,79/500,54,109.0
7185,C2,494.0,0.25,67,109.0
7186,E-4,494.0,0.25,31,109.0
7187,B-2,494.5,0.25,70,109.0
7188,E-4,494.5,0.25,27,109.0
7189,F#4,494.5,617/1000,67,109.0
7190,C#4,494.5,617/1000,67,109.0
7191,A3,494.5,617/1000,67,109.0
7192,D3,494.5,617/1000,67,109.0
7193,F5,494.517,467/1000,74,109.0
7194,E4,494.75,0.25,39,109.0
7195,B-1,495.0,217/1000,80,109.0
7196,E2,495.0,0.25,64,109.0
7197,E-4,495.0,0.5,44,109.0
7198,D5,495.042,3/5,90,109.0
7199,C#4,495.242,0.125,56,109.0
7200,F#4,495.242,0.125,56,109.0
7201,A3,495.242,0.125,56,109.0
7202,D3,495.258,0.125,64,109.0
7203,A3,495.258,0.125,64,109.0
7204,A1,495.5,229/500,80,109.0
7205,C2,495.5,0.25,67,109.0
7206,F#2,495.5,0.25,70,109.0
7207,D4,495.5,0.25,56,109.0
7208,G#5,495.542,117/1000,80,109.0
7209,A5,495.658,171/500,72,109.0
7210,A1,496.0,0.25,80,109.0
7211,A5,496.0,2667/1000,72,109.0
7212,C2,496.0,0.25,33,109.0
7213,F#2,496.0,0.25,40,109.0
7214,E2,496.0,0.25,40,109.0
7215,A3,496.0,1.0,68,109.0
7216,F#4,496.017,79/500,57,109.0
7217,C#4,496.017,79/500,57,109.0
7218,A3,496.017,79/500,57,109.0
7219,D3,496.017,79/500,57,109.0
7220,G2,496.025,0.25,40,109.0
7221,A1,496.5,0.25,80,109.0
7222,C2,496.5,0.25,37,109.0
7223,F#2,496.5,0.25,45,109.0
7224,E2,496.5,0.25,45,109.0
7225,G2,496.525,0.25,45,109.0
7226,D3,496.75,71/500,63,109.0
7227,A3,496.75,71/500,63,109.0
7228,C#4,496.75,71/500,63,109.0
7229,F#4,496.75,71/500,63,109.0
7230,A1,497.0,0.25,80,109.0
7231,C2,497.0,0.25,42,109.0
7232,F#2,497.0,0.25,50,109.0
7233,E2,497.0,0.25,50,109.0
7234,G2,497.025,0.25,50,109.0
7235,A1,497.5,0.25,80,109.0
7236,C2,497.5,0.25,46,109.0
7237,F#2,497.5,0.25,55,109.0
7238,E2,497.5,0.25,55,109.0
7239,G2,497.525,0.25,55,109.0
7240,C#4,497.542,79/500,59,109.0
7241,F#4,497.542,79/500,59,109.0
7242,A3,497.542,79/500,59,109.0
7243,D3,497.558,26/125,80,109.0
7244,A1,498.0,0.25,80,109.0
7245,C2,498.0,0.25,50,109.0
7246,F#2,498.0,0.25,60,109.0
7247,E2,498.0,0.25,60,109.0
7248,G2,498.025,0.25,60,109.0
7249,A1,498.5,0.25,80,109.0
7250,C2,498.5,0.25,54,109.0
7251,F#2,498.5,0.25,65,109.0
7252,E2,498.5,0.25,65,109.0
7253,G3,498.5,1.5,61,109.0
7254,B3,498.5,1.5,61,109.0
7255,D4,498.5,1.5,61,109.0
7256,F#4,498.5,1.5,61,109.0
7257,G2,498.525,0.25,65,109.0
7258,A1,499.0,0.25,80,109.0
7259,C2,499.0,0.25,59,109.0
7260,F#2,499.0,0.25,70,109.0
7261,E2,499.0,0.25,70,109.0
7262,G2,499.025,0.25,70,109.0
7263,A1,499.5,0.25,80,109.0
7264,E2,499.5,0.25,75,109.0
7265,A1,499.75,0.25,80,109.0
7266,E2,499.75,0.25,77,109.0
7267,A3,500.0,2.0,67,109.0
7268,C#4,500.0,2.0,67,109.0
7269,F#3,500.0,2.0,67,109.0
7270,E4,500.0,2.0,67,109.0
7271,A1,500.5,417/1000,80,109.0
7272,C2,500.5,667/1000,62,109.0
7273,B-2,500.5,0.25,75,109.0
7274,E2,500.5,667/1000,75,109.0
7275,F#2,500.75,0.25,75,109.0
7276,G1,501.25,417/1000,80,109.0
7277,C2,501.25,667/1000,62,109.0
7278,B-2,501.25,0.25,75,109.0
7279,E2,501.25,667/1000,75,109.0
7280,F#2,501.5,0.25,75,109.0
7281,A1,502.0,0.5,80,109.0
7282,C2,502.0,667/1000,62,109.0
7283,B-2,502.0,0.25,75,109.0
7284,E2,502.0,0.25,75,109.0
7285,F3,502.0,0.5,63,109.0
7286,E4,502.0,0.5,63,109.0
7287,A3,502.0,0.5,63,109.0
7288,C4,502.0,0.5,63,109.0
7289,F#2,502.25,0.25,75,109.0
7290,B-2,503.0,0.25,75,109.0
7291,E2,503.0,0.25,75,109.0
7292,A1,504.0,471/500,80,109.0
7293,C2,504.0,0.5,62,109.0
7294,F#2,504.0,0.5,70,109.0
7295,E-4,504.0,0.25,28,109.0
7296,F#3,504.0,0.25,56,109.0
7297,F3,504.0,1.5,63,109.0
7298,E4,504.0,1.5,63,109.0
7299,A3,504.0,1.5,63,109.0
7300,C4,504.0,1.5,63,109.0
7301,F#3,504.25,0.25,40,109.0
7302,B-2,504.5,0.5,70,109.0
7303,E-4,504.5,0.25,28,109.0
7304,F#3,504.5,0.25,40,109.0
7305,F#3,504.75,0.25,40,109.0
7306,D4,504.825,533/1000,71,109.0
7307,G1,505.0,471/500,80,109.0
7308,F#2,505.0,0.5,70,109.0
7309,E2,505.0,0.25,75,109.0
7310,E4,505.0,0.25,32,109.0
7311,E-4,505.0,0.5,32,109.0
7312,F#3,505.0,0.25,56,109.0
7313,G4,505.083,129/500,85,109.0
7314,F#3,505.25,0.25,40,109.0
7315,F#2,505.5,0.5,70,109.0
7316,E4,505.5,0.25,58,109.0
7317,F#3,505.5,0.25,40,109.0
7318,F4,505.5,2.0,60,109.0
7319,A3,505.5,2.0,60,109.0
7320,D4,505.5,2.0,60,109.0
7321,G3,505.5,2.0,60,109.0
7322,F4,505.575,49/125,79,109.0
7323,F#3,505.75,0.25,40,109.0
7324,F#1,506.0,471/500,80,109.0
7325,C2,506.0,0.5,62,109.0
7326,F#2,506.0,0.5,70,109.0
7327,E-4,506.0,0.25,27,109.0
7328,F#3,506.0,0.25,56,109.0
7329,D4,506.075,71/500,72,109.0
7330,F#3,506.25,0.25,40,109.0
7331,C4,506.308,26/125,77,109.0
7332,B-2,506.5,0.5,70,109.0
7333,E-4,506.5,0.25,26,109.0
7334,F#3,506.5,0.25,40,109.0
7335,B3,506.575,9/40,51,109.0
7336,E4,506.75,0.25,54,109.0
7337,F#3,506.75,0.25,40,109.0
7338,F1,507.0,471/500,80,109.0
7339,F#2,507.0,0.5,70,109.0
7340,E2,507.0,0.25,75,109.0
7341,E-4,507.0,0.5,44,109.0
7342,F#3,507.0,0.25,56,109.0
7343,A3,507.075,24/125,79,109.0
7344,F#3,507.25,0.25,40,109.0
7345,F#2,507.5,0.5,70,109.0
7346,D4,507.5,0.5,64,109.0
7347,F#3,507.5,0.25,40,109.0
7348,G3,507.55,71/500,57,109.0
7349,F#3,507.75,0.25,40,109.0
7350,F3,507.833,167/1000,78,109.0
7351,E1,508.0,471/500,80,109.0
7352,F3,508.0,283/1000,78,109.0
7353,G5,508.0,4.0,60,109.0
7354,C2,508.0,0.5,62,109.0
7355,F#2,508.0,0.5,70,109.0
7356,E-4,508.0,0.25,38,109.0
7357,F#3,508.0,0.25,56,109.0
7358,C5,508.0,4.0,60,109.0
7359,E5,508.0,4.0,60,109.0
7360,F#3,508.25,0.25,40,109.0
7361,D3,508.325,127/250,69,109.0
7362,B-2,508.5,0.5,70,109.0
7363,E-4,508.5,0.25,26,109.0
7364,F#3,508.5,0.25,40,109.0
7365,E4,508.75,0.25,48,109.0
7366,F#3,508.75,0.25,40,109.0
7367,D3,508.867,6/5,74,109.0
7368,F#1,509.0,471/500,80,109.0
7369,F#2,509.0,0.5,70,109.0
7370,E2,509.0,0.25,75,109.0
7371,E-4,509.0,0.5,41,109.0
7372,F#3,509.0,0.25,56,109.0
7373,F#3,509.25,0.25,40,109.0
7374,F#2,509.5,0.5,70,109.0
7375,E4,509.5,0.25,50,109.0
7376,F#3,509.5,0.25,40,109.0
7377,F#3,509.75,0.25,40,109.0
7378,G1,510.0,471/500,80,109.0
7379,C2,510.0,0.5,62,109.0
7380,F#2,510.0,0.5,70,109.0
7381,E-4,510.0,0.25,36,109.0
7382,F#3,510.0,0.25,56,109.0
7383,F#3,510.25,0.25,40,109.0
7384,B-2,510.5,0.5,70,109.0
7385,E-4,510.5,0.25,30,109.0
7386,F#3,510.5,0.25,40,109.0
7387,E4,510.75,0.25,44,109.0
7388,F#3,510.75,0.25,40,109.0
7389,G#1,511.0,471/500,80,109.0
7390,F#2,511.0,0.5,70,109.0
7391,E2,511.0,0.25,75,109.0
7392,E-4,511.0,0.5,50,109.0
7393,F#3,511.0,0.25,56,109.0
7394,B3,511.025,121/500,67,109.0
7395,F#3,511.25,0.25,40,109.0
7396,D4,511.308,183/1000,63,109.0
7397,F#2,511.5,0.5,70,109.0
7398,D4,511.5,0.25,64,109.0
7399,F#3,511.5,0.25,40,109.0
7400,G4,511.5,167/1000,80,109.0
7401,B4,511.5,167/1000,80,109.0
7402,D5,511.5,167/1000,80,109.0
7403,D4,511.533,183/1000,54,109.0
7404,F#3,511.75,0.25,40,109.0
7405,G4,511.75,167/1000,80,109.0
7406,B4,511.75,167/1000,80,109.0
7407,D5,511.75,167/1000,80,109.0
7408,D4,511.767,233/1000,64,109.0
7409,A1,512.0,471/500,80,109.0
7410,G5,512.0,4.0,60,109.0
7411,C2,512.0,0.5,62,109.0
7412,F#2,512.0,0.5,70,109.0
7413,E-4,512.0,0.25,28,109.0
7414,F#3,512.0,0.25,56,109.0
7415,C5,512.0,4.0,60,109.0
7416,E5,512.0,4.0,60,109.0
7417,F4,512.067,2/5,71,109.0
7418,F#3,512.25,0.25,40,109.0
7419,B-2,512.5,0.5,70,109.0
7420,E-4,512.5,0.25,28,109.0
7421,F#3,512.5,0.25,40,109.0
7422,G4,512.5,167/1000,85,109.0
7423,B4,512.5,167/1000,85,109.0
7424,D5,512.5,167/1000,85,109.0
7425,A4,512.542,3/20,77,109.0
7426,F#3,512.75,0.25,40,109.0
7427,D2,513.0,471/500,80,109.0
7428,F#2,513.0,0.5,70,109.0
7429,E2,513.0,0.25,75,109.0
7430,E4,513.0,0.25,32,109.0
7431,E-4,513.0,0.5,32,109.0
7432,F#3,513.0,0.25,56,109.0
7433,B4,513.025,267/1000,80,109.0
7434,F#3,513.25,0.25,40,109.0
7435,F4,513.25,167/1000,86,109.0
7436,A4,513.25,167/1000,86,109.0
7437,C5,513.25,167/1000,86,109.0
7438,F#2,513.5,0.5,70,109.0
7439,E4,513.5,0.25,58,109.0
7440,F#3,513.5,0.25,40,109.0
7441,D5,513.542,217/1000,62,109.0
7442,F#3,513.75,0.25,40,109.0
7443,E2,514.0,471/500,80,109.0
7444,C2,514.0,0.5,62,109.0
7445,F#2,514.0,0.5,70,109.0
7446,E-4,514.0,0.25,27,109.0
7447,F#3,514.0,0.25,56,109.0
7448,G4,514.0,0.25,85,109.0
7449,B4,514.0,0.25,85,109.0
7450,D5,514.0,0.25,85,109.0
7451,E5,514.067,233/1000,62,109.0
7452,F#3,514.25,0.25,40,109.0
7453,B-2,514.5,0.5,70,109.0
7454,E-4,514.5,0.25,26,109.0
7455,F#3,514.5,0.25,40,109.0
7456,E5,514.55,129/500,69,109.0
7457,E4,514.75,0.25,54,109.0
7458,F#3,514.75,0.25,40,109.0
7459,G2,515.0,471/500,80,109.0
7460,F#2,515.0,0.5,70,109.0
7461,E2,515.0,0.25,75,109.0
7462,E-4,515.0,0.5,44,109.0
7463,F#3,515.0,0.25,56,109.0
7464,D5,515.033,24/125,57,109.0
7465,F#3,515.25,0.25,40,109.0
7466,E5,515.275,3/20,58,109.0
7467,F#2,515.5,0.5,70,109.0
7468,D4,515.5,0.5,64,109.0
7469,F#3,515.5,0.25,40,109.0
7470,D5,515.517,333/1000,73,109.0
7471,F#3,515.75,0.25,40,109.0
7472,D2,516.0,471/500,80,109.0
7473,G5,516.0,4.0,60,109.0
7474,C2,516.0,0.5,62,109.0
7475,F#2,516.0,0.5,70,109.0
7476,E-4,516.0,0.25,38,109.0
7477,F#3,516.0,0.25,56,109.0
7478,C5,516.0,4.0,60,109.0
7479,E5,516.0,4.0,60,109.0
7480,B4,516.058,167/1000,78,109.0
7481,B3,516.058,279/500,48,109.0
7482,D4,516.058,279/500,48,109.0
7483,G3,516.058,279/500,48,109.0
7484,F#3,516.25,0.25,40,109.0
7485,A4,516.325,1/5,55,109.0
7486,B-2,516.5,0.5,70,109.0
7487,E-4,516.5,0.25,26,109.0
7488,F#3,516.5,0.25,40,109.0
7489,F4,516.583,383/1000,65,109.0
7490,E4,516.75,0.25,48,109.0
7491,F#3,516.75,0.25,40,109.0
7492,B3,516.758,117/1000,52,109.0
7493,G3,516.758,117/1000,52,109.0
7494,D4,516.758,117/1000,52,109.0
7495,E2,517.0,471/500,80,109.0
7496,F#2,517.0,0.5,70,109.0
7497,E2,517.0,0.25,75,109.0
7498,E-4,517.0,0.5,41,109.0
7499,F#3,517.0,0.25,56,109.0
7500,D4,517.067,79/500,61,109.0
7501,F#3,517.25,0.25,40,109.0
7502,B3,517.317,24/125,53,109.0
7503,F#2,517.5,0.5,70,109.0
7504,E4,517.5,0.25,50,109.0
7505,F#3,517.5,0.25,40,109.0
7506,D4,517.567,1.5,62,109.0
7507,F#3,517.75,0.25,40,109.0
7508,A1,518.0,471/500,80,109.0
7509,C2,518.0,0.5,62,109.0
7510,F#2,518.0,0.5,70,109.0
7511,E-4,518.0,0.25,36,109.0
7512,F#3,518.0,0.25,56,109.0
7513,F#3,518.25,0.25,40,109.0
7514,B-2,518.5,0.5,70,109.0
7515,E-4,518.5,0.25,30,109.0
7516,F#3,518.5,0.25,40,109.0
7517,B3,518.517,117/1000,59,109.0
7518,G3,518.517,117/1000,59,109.0
7519,D4,518.517,117/1000,59,109.0
7520,E4,518.75,0.25,44,109.0
7521,F#3,518.75,0.25,40,109.0
7522,B3,518.783,67/1000,42,109.0
7523,G3,518.783,67/1000,42,109.0
7524,D4,518.783,67/1000,42,109.0
7525,F#2,519.0,0.5,70,109.0
7526,E2,519.0,0.25,75,109.0
7527,E-4,519.0,0.5,50,109.0
7528,F#3,519.0,0.25,56,109.0
7529,F#3,519.25,0.25,40,109.0
7530,B3,519.4,3/40,54,109.0
7531,D4,519.4,3/40,54,109.0
7532,G3,519.4,3/40,54,109.0
7533,A2,519.5,0.25,80,109.0
7534,F#2,519.5,0.5,70,109.0
7535,E2,519.5,0.25,75,109.0
7536,D4,519.5,0.25,64,109.0
7537,F#3,519.5,0.25,40,109.0
7538,D5,519.5,167/1000,127,109.0
7539,B4,519.5,167/1000,127,109.0
7540,G4,519.5,167/1000,127,109.0
7541,A2,519.75,0.25,80,109.0
7542,E2,519.75,0.25,75,109.0
7543,F#3,519.75,0.25,40,109.0
7544,D5,519.75,167/1000,127,109.0
7545,B4,519.75,167/1000,127,109.0
7546,G4,519.75,167/1000,127,109.0
7547,G5,520.0,67/1000,60,109.0
7548,C2,520.0,0.5,62,109.0
7549,F#2,520.0,0.5,70,109.0
7550,E-4,520.0,0.25,28,109.0
7551,F#3,520.0,0.25,56,109.0
7552,B3,520.075,123/250,63,109.0
7553,G3,520.075,123/250,63,109.0
7554,D4,520.075,123/250,63,109.0
7555,F#3,520.25,0.25,40,109.0
7556,F4,520.358,17/40,70,109.0
7557,A2,520.5,0.25,80,109.0
7558,B-2,520.5,0.5,70,109.0
7559,E-4,520.5,0.25,28,109.0
7560,F#3,520.5,0.25,40,109.0
7561,B4,520.5,167/1000,127,109.0
7562,G4,520.5,167/1000,127,109.0
7563,D5,520.5,167/1000,127,109.0
7564,F#3,520.75,0.25,40,109.0
7565,G3,520.767,0.125,32,109.0
7566,B3,520.767,0.125,32,109.0
7567,D4,520.767,0.125,32,109.0
7568,A4,520.833,24/125,58,109.0
7569,F#2,521.0,0.5,70,109.0
7570,E2,521.0,0.25,75,109.0
7571,E4,521.0,0.25,32,109.0
7572,E-4,521.0,0.5,32,109.0
7573,F#3,521.0,0.25,56,109.0
7574,B4,521.075,233/1000,54,109.0
7575,G2,521.25,0.25,80,109.0
7576,F#3,521.25,0.25,40,109.0
7577,A4,521.25,167/1000,127,109.0
7578,C5,521.25,167/1000,127,109.0
7579,F4,521.25,167/1000,127,109.0
7580,F#4,521.342,183/1000,55,109.0
7581,F#2,521.5,0.5,70,109.0
7582,E4,521.5,0.25,58,109.0
7583,F#3,521.5,0.25,40,109.0
7584,B3,521.533,27/250,31,109.0
7585,D4,521.533,27/250,31,109.0
7586,G3,521.533,27/250,31,109.0
7587,A4,521.558,26/125,61,109.0
7588,F#3,521.75,0.25,40,109.0
7589,B3,521.775,23/250,34,109.0
7590,D4,521.775,23/250,34,109.0
7591,G3,521.775,23/250,34,109.0
7592,B4,521.792,127/250,70,109.0
7593,A2,522.0,0.25,80,109.0
7594,A6,522.0,2.0,49,109.0
7595,C2,522.0,0.5,62,109.0
7596,F#2,522.0,0.5,70,109.0
7597,E-4,522.0,0.25,27,109.0
7598,F#3,522.0,0.25,56,109.0
7599,D5,522.0,0.25,127,109.0
7600,G4,522.0,0.25,127,109.0
7601,B4,522.0,0.25,127,109.0
7602,F#3,522.25,0.25,40,109.0
7603,A4,522.333,77/250,57,109.0
7604,B-2,522.5,0.5,70,109.0
7605,E-4,522.5,0.25,26,109.0
7606,F#3,522.5,0.25,40,109.0
7607,B3,522.533,117/1000,47,109.0
7608,G3,522.533,117/1000,47,109.0
7609,D4,522.533,117/1000,47,109.0
7610,F#4,522.6,233/1000,57,109.0
7611,E4,522.75,0.25,54,109.0
7612,F#3,522.75,0.25,40,109.0
7613,B2,523.0,471/500,80,109.0
7614,F#2,523.0,0.5,70,109.0
7615,E2,523.0,0.25,75,109.0
7616,E-4,523.0,0.5,44,109.0
7617,F#3,523.0,0.25,56,109.0
7618,B3,523.125,183/1000,56,109.0
7619,F#3,523.25,0.25,40,109.0
7620,B3,523.325,117/1000,49,109.0
7621,G3,523.325,117/1000,49,109.0
7622,D4,523.325,117/1000,49,109.0
7623,D4,523.367,183/1000,55,109.0
7624,F#2,523.5,0.5,70,109.0
7625,D4,523.5,0.5,64,109.0
7626,F#3,523.5,0.25,40,109.0
7627,E4,523.6,129/500,59,109.0
7628,F#3,523.75,0.25,40,109.0
7629,D4,523.833,167/1000,57,109.0
7630,G2,524.0,471/500,80,109.0
7631,D4,524.0,101/125,57,109.0
7632,G6,524.0,157/40,52,109.0
7633,C2,524.0,0.5,62,109.0
7634,F#2,524.0,0.5,70,109.0
7635,E-4,524.0,0.25,38,109.0
7636,F#3,524.0,0.25,56,109.0
7637,B3,524.058,279/500,48,109.0
7638,D4,524.058,279/500,48,109.0
7639,G3,524.058,279/500,48,109.0
7640,F#3,524.25,0.25,40,109.0
7641,B-2,524.5,0.5,70,109.0
7642,E-4,524.5,0.25,26,109.0
7643,F#3,524.5,0.25,40,109.0
7644,E4,524.75,0.25,48,109.0
7645,F#3,524.75,0.25,40,109.0
7646,B3,524.758,117/1000,52,109.0
7647,G3,524.758,117/1000,52,109.0
7648,D4,524.758,117/1000,52,109.0
7649,E2,525.0,471/500,80,109.0
7650,F#2,525.0,0.5,70,109.0
7651,E2,525.0,0.25,75,109.0
7652,E-4,525.0,0.5,41,109.0
7653,F#3,525.0,0.25,56,109.0
7654,F#3,525.25,0.25,40,109.0
7655,F#5,525.325,24/125,81,109.0
7656,F#2,525.5,0.5,70,109.0
7657,E4,525.5,0.25,50,109.0
7658,F#3,525.5,0.25,40,109.0
7659,E5,525.567,217/1000,45,109.0
7660,F#3,525.75,0.25,40,109.0
7661,D2,526.0,471/500,80,109.0
7662,C2,526.0,0.5,62,109.0
7663,F#2,526.0,0.5,70,109.0
7664,E-4,526.0,0.25,36,109.0
7665,F#3,526.0,0.25,56,109.0
7666,D5,526.075,233/1000,61,109.0
7667,F#3,526.25,0.25,40,109.0
7668,B-2,526.5,0.5,70,109.0
7669,E-4,526.5,0.25,30,109.0
7670,F#3,526.5,0.25,40,109.0
7671,B4,526.517,79/500,51,109.0
7672,B3,526.517,117/1000,59,109.0
7673,G3,526.517,117/1000,59,109.0
7674,D4,526.517,117/1000,59,109.0
7675,E4,526.75,0.25,44,109.0
7676,F#3,526.75,0.25,40,109.0
7677,A4,526.775,267/1000,61,109.0
7678,B3,526.783,67/1000,42,109.0
7679,G3,526.783,67/1000,42,109.0
7680,D4,526.783,67/1000,42,109.0
7681,E2,527.0,471/500,80,109.0
7682,F#2,527.0,0.5,70,109.0
7683,E2,527.0,0.25,75,109.0
7684,E-4,527.0,0.5,50,109.0
7685,F#3,527.0,0.25,56,109.0
7686,F#3,527.25,0.25,40,109.0
7687,G4,527.292,26/125,48,109.0
7688,B3,527.4,3/40,54,109.0
7689,D4,527.4,3/40,54,109.0
7690,G3,527.4,3/40,54,109.0
7691,F#2,527.5,0.5,70,109.0
7692,D4,527.5,0.25,64,109.0
7693,F#3,527.5,0.25,40,109.0
7694,F#3,527.75,0.25,40,109.0
7695,F4,527.767,233/1000,65,109.0
7696,G1,528.0,471/500,80,109.0
7697,F4,528.0,167/1000,65,109.0
7698,C2,528.0,0.5,62,109.0
7699,F#2,528.0,0.5,70,109.0
7700,E-4,528.0,0.25,28,109.0
7701,F#3,528.0,0.25,56,109.0
7702,B3,528.075,123/250,63,109.0
7703,G3,528.075,123/250,63,109.0
7704,D4,528.075,123/250,63,109.0
7705,F6,528.092,977/250,52,109.0
7706,F#3,528.25,0.25,40,109.0
7707,B-2,528.5,0.5,70,109.0
7708,E-4,528.5,0.25,28,109.0
7709,F#3,528.5,0.25,40,109.0
7710,B3,528.533,3/10,54,109.0
7711,F#3,528.75,0.25,40,109.0
7712,G3,528.767,0.125,32,109.0
7713,B3,528.767,0.125,32,109.0
7714,D4,528.767,0.125,32,109.0
7715,A1,529.0,471/500,80,109.0
7716,F#2,529.0,0.5,70,109.0
7717,E2,529.0,0.25,75,109.0
7718,E4,529.0,0.25,32,109.0
7719,E-4,529.0,0.5,32,109.0
7720,F#3,529.0,0.25,56,109.0
7721,D4,529.008,73/250,60,109.0
7722,F#3,529.25,0.25,40,109.0
7723,F#2,529.5,0.5,70,109.0
7724,E4,529.5,0.25,58,109.0
7725,F#3,529.5,0.25,40,109.0
7726,B3,529.517,24/125,52,109.0
7727,B3,529.533,27/250,31,109.0
7728,D4,529.533,27/250,31,109.0
7729,G3,529.533,27/250,31,109.0
7730,F#3,529.75,0.25,40,109.0
7731,D4,529.775,1/5,60,109.0
7732,B3,529.775,23/250,34,109.0
7733,D4,529.775,23/250,34,109.0
7734,G3,529.775,23/250,34,109.0
7735,B1,530.0,471/500,80,109.0
7736,C2,530.0,0.5,62,109.0
7737,F#2,530.0,0.5,70,109.0
7738,E-4,530.0,0.25,27,109.0
7739,F#3,530.0,0.25,56,109.0
7740,F4,530.033,417/1000,72,109.0
7741,F#3,530.25,0.25,40,109.0
7742,B-2,530.5,0.5,70,109.0
7743,E-4,530.5,0.25,26,109.0
7744,F#3,530.5,0.25,40,109.0
7745,F4,530.533,7/20,58,109.0
7746,B3,530.533,117/1000,47,109.0
7747,G3,530.533,117/1000,47,109.0
7748,D4,530.533,117/1000,47,109.0
7749,E4,530.75,0.25,54,109.0
7750,F#3,530.75,0.25,40,109.0
7751,D2,531.0,471/500,80,109.0
7752,F#2,531.0,0.5,70,109.0
7753,E2,531.0,0.25,75,109.0
7754,E-4,531.0,0.5,44,109.0
7755,F#3,531.0,0.25,56,109.0
7756,F#3,531.25,0.25,40,109.0
7757,F#2,531.5,0.5,70,109.0
7758,D4,531.5,0.5,64,109.0
7759,F#3,531.5,0.25,40,109.0
7760,G4,531.5,233/1000,59,109.0
7761,B4,531.5,233/1000,59,109.0
7762,D5,531.5,233/1000,59,109.0
7763,F#3,531.75,0.25,40,109.0
7764,G4,531.75,233/1000,62,109.0
7765,B4,531.75,233/1000,62,109.0
7766,D5,531.75,233/1000,62,109.0
7767,G2,532.0,471/500,80,109.0
7768,F6,532.0,317/1000,52,109.0
7769,C2,532.0,0.5,62,109.0
7770,F#2,532.0,0.5,70,109.0
7771,E-4,532.0,0.25,38,109.0
7772,F#3,532.0,0.25,56,109.0
7773,F4,532.067,367/1000,78,109.0
7774,F#3,532.25,0.25,40,109.0
7775,B-2,532.5,0.5,70,109.0
7776,E-4,532.5,0.25,26,109.0
7777,F#3,532.5,0.25,40,109.0
7778,G4,532.5,167/1000,77,109.0
7779,D5,532.5,167/1000,77,109.0
7780,B4,532.5,167/1000,77,109.0
7781,A4,532.533,0.125,57,109.0
7782,E4,532.75,0.25,48,109.0
7783,F#3,532.75,0.25,40,109.0
7784,F4,532.825,17/40,66,109.0
7785,E2,533.0,471/500,80,109.0
7786,F#2,533.0,0.5,70,109.0
7787,E2,533.0,0.25,75,109.0
7788,E-4,533.0,0.5,41,109.0
7789,F#3,533.0,0.25,56,109.0
7790,F#3,533.25,0.25,40,109.0
7791,F4,533.25,167/1000,77,109.0
7792,A4,533.25,167/1000,77,109.0
7793,C5,533.25,167/1000,77,109.0
7794,D4,533.317,167/1000,54,109.0
7795,F#2,533.5,0.5,70,109.0
7796,E4,533.5,0.25,50,109.0
7797,F#3,533.5,0.25,40,109.0
7798,B3,533.533,267/1000,60,109.0
7799,F#3,533.75,0.25,40,109.0
7800,A5,533.767,177/250,68,109.0
7801,D4,533.842,29/20,70,109.0
7802,D2,534.0,471/500,80,109.0
7803,C2,534.0,0.5,62,109.0
7804,F#2,534.0,0.5,70,109.0
7805,E-4,534.0,0.25,36,109.0
7806,F#3,534.0,0.25,56,109.0
7807,G4,534.0,9/40,77,109.0
7808,D5,534.0,9/40,77,109.0
7809,B4,534.0,9/40,77,109.0
7810,F#3,534.25,0.25,40,109.0
7811,C6,534.483,221/500,60,109.0
7812,B-2,534.5,0.5,70,109.0
7813,E-4,534.5,0.25,30,109.0
7814,F#3,534.5,0.25,40,109.0
7815,E4,534.75,0.25,44,109.0
7816,F#3,534.75,0.25,40,109.0
7817,D6,534.967,433/1000,60,109.0
7818,A1,535.0,471/500,80,109.0
7819,E-4,535.0,0.125,77,109.0
7820,F#2,535.0,0.5,70,109.0
7821,E2,535.0,0.25,75,109.0
7822,E-4,535.0,0.5,50,109.0
7823,F#3,535.0,0.25,56,109.0
7824,B3,535.0,1.0,77,109.0
7825,G3,535.0,1.0,77,109.0
7826,E4,535.125,833/1000,77,109.0
7827,F#3,535.25,0.25,40,109.0
7828,E6,535.5,0.5,55,109.0
7829,F#2,535.5,0.5,70,109.0
7830,D4,535.5,0.25,64,109.0
7831,F#3,535.5,0.25,40,109.0
7832,F#3,535.75,0.25,40,109.0
7833,D1,536.0,471/500,80,109.0
7834,A6,536.0,4.0,54,109.0
7835,C2,536.0,0.5,62,109.0
7836,F#2,536.0,0.5,70,109.0
7837,E-4,536.0,0.25,38,109.0
7838,F#3,536.0,0.25,56,109.0
7839,B3,536.058,279/500,64,109.0
7840,D4,536.058,279/500,64,109.0
7841,G3,536.058,279/500,64,109.0
7842,F#3,536.25,0.25,40,109.0
7843,B-2,536.5,0.5,70,109.0
7844,E-4,536.5,0.25,26,109.0
7845,F#3,536.5,0.25,40,109.0
7846,E4,536.75,0.25,48,109.0
7847,F#3,536.75,0.25,40,109.0
7848,B3,536.758,117/1000,52,109.0
7849,G3,536.758,117/1000,52,109.0
7850,D4,536.758,117/1000,52,109.0
7851,E1,537.0,471/500,80,109.0
7852,F#2,537.0,0.5,70,109.0
7853,E2,537.0,0.25,75,109.0
7854,E-4,537.0,0.5,41,109.0
7855,F#3,537.0,0.25,56,109.0
7856,F#3,537.25,0.25,40,109.0
7857,F#2,537.5,0.5,70,109.0
7858,E4,537.5,0.25,50,109.0
7859,F#3,537.5,0.25,40,109.0
7860,F#3,537.75,0.25,40,109.0
7861,F1,538.0,471/500,80,109.0
7862,C2,538.0,0.5,62,109.0
7863,F#2,538.0,0.5,70,109.0
7864,E-4,538.0,0.25,36,109.0
7865,F#3,538.0,0.25,56,109.0
7866,F#3,538.25,0.25,40,109.0
7867,B-2,538.5,0.5,70,109.0
7868,E-4,538.5,0.25,30,109.0
7869,F#3,538.5,0.25,40,109.0
7870,B3,538.517,117/1000,59,109.0
7871,G3,538.517,117/1000,59,109.0
7872,D4,538.517,117/1000,59,109.0
7873,E4,538.75,0.25,44,109.0
7874,F#3,538.75,0.25,40,109.0
7875,B3,538.783,67/1000,42,109.0
7876,G3,538.783,67/1000,42,109.0
7877,D4,538.783,67/1000,42,109.0
7878,G1,539.0,221/500,80,109.0
7879,F#2,539.0,0.5,70,109.0
7880,E2,539.0,0.25,75,109.0
7881,E-4,539.0,0.5,50,109.0
7882,F#3,539.0,0.25,56,109.0
7883,F#3,539.25,0.25,40,109.0
7884,B3,539.4,3/40,54,109.0
7885,D4,539.4,3/40,54,109.0
7886,G3,539.4,3/40,54,109.0
7887,A1,539.5,0.25,80,109.0
7888,F#2,539.5,0.5,70,109.0
7889,E2,539.5,0.25,75,109.0
7890,D4,539.5,0.25,64,109.0
7891,F#3,539.5,0.25,40,109.0
7892,D5,539.5,167/1000,127,109.0
7893,B4,539.5,167/1000,127,109.0
7894,G4,539.5,167/1000,127,109.0
7895,A1,539.75,0.25,80,109.0
7896,E2,539.75,0.25,75,109.0
7897,F#3,539.75,0.25,40,109.0
7898,D5,539.75,167/1000,127,109.0
7899,B4,539.75,167/1000,127,109.0
7900,G4,539.75,167/1000,127,109.0
7901,A6,540.0,17/1000,54,109.0
7902,C2,540.0,0.5,62,109.0
7903,F#2,540.0,0.5,70,109.0
7904,E-4,540.0,0.25,28,109.0
7905,F#3,540.0,0.25,56,109.0
7906,G6,540.042,1979/500,53,109.0
7907,B3,540.075,123/250,63,109.0
7908,G3,540.075,123/250,63,109.0
7909,D4,540.075,123/250,63,109.0
7910,F#3,540.25,0.25,40,109.0
7911,A1,540.5,0.25,80,109.0
7912,B-2,540.5,0.5,70,109.0
7913,E-4,540.5,0.25,28,109.0
7914,F#3,540.5,0.25,40,109.0
7915,B4,540.5,167/1000,127,109.0
7916,G4,540.5,167/1000,127,109.0
7917,D5,540.5,167/1000,127,109.0
7918,F#3,540.75,0.25,40,109.0
7919,G3,540.767,0.125,32,109.0
7920,B3,540.767,0.125,32,109.0
7921,D4,540.767,0.125,32,109.0
7922,F#2,541.0,0.5,70,109.0
7923,E2,541.0,0.25,75,109.0
7924,E4,541.0,0.25,32,109.0
7925,E-4,541.0,0.5,32,109.0
7926,F#3,541.0,0.25,56,109.0
7927,G1,541.25,0.25,80,109.0
7928,F#3,541.25,0.25,40,109.0
7929,A4,541.25,167/1000,127,109.0
7930,C5,541.25,167/1000,127,109.0
7931,F4,541.25,167/1000,127,109.0
7932,F#2,541.5,0.5,70,109.0
7933,E4,541.5,0.25,58,109.0
7934,F#3,541.5,0.25,40,109.0
7935,B3,541.533,27/250,31,109.0
7936,D4,541.533,27/250,31,109.0
7937,G3,541.533,27/250,31,109.0
7938,F#3,541.75,0.25,40,109.0
7939,B3,541.775,23/250,34,109.0
7940,D4,541.775,23/250,34,109.0
7941,G3,541.775,23/250,34,109.0
7942,A1,542.0,0.25,80,109.0
7943,C2,542.0,0.5,62,109.0
7944,F#2,542.0,0.5,70,109.0
7945,E-4,542.0,0.25,27,109.0
7946,F#3,542.0,0.25,56,109.0
7947,D5,542.0,0.25,127,109.0
7948,G4,542.0,0.25,127,109.0
7949,B4,542.0,0.25,127,109.0
7950,F#3,542.25,0.25,40,109.0
7951,B-2,542.5,0.5,70,109.0
7952,E-4,542.5,0.25,26,109.0
7953,F#3,542.5,0.25,40,109.0
7954,B3,542.533,117/1000,47,109.0
7955,G3,542.533,117/1000,47,109.0
7956,D4,542.533,117/1000,47,109.0
7957,E4,542.75,0.25,54,109.0
7958,F#3,542.75,0.25,40,109.0
7959,F#2,543.0,0.5,70,109.0
7960,E2,543.0,0.25,75,109.0
7961,E-4,543.0,0.5,44,109.0
7962,F#3,543.0,0.25,56,109.0
7963,F#3,543.25,0.25,40,109.0
7964,B3,543.325,117/1000,49,109.0
7965,G3,543.325,117/1000,49,109.0
7966,D4,543.325,117/1000,49,109.0
7967,F#2,543.5,0.5,70,109.0
7968,D4,543.5,0.5,64,109.0
7969,F#3,543.5,0.25,40,109.0
7970,F#3,543.75,0.25,40,109.0
7971,G6,544.0,33/1000,53,109.0
7972,D6,544.025,159/40,59,109.0
7973,B3,544.058,279/500,48,109.0
7974,D4,544.058,279/500,48,109.0
7975,G3,544.058,279/500,48,109.0
7976,B3,544.758,117/1000,52,109.0
7977,G3,544.758,117/1000,52,109.0
7978,D4,544.758,117/1000,52,109.0
7979,B3,546.517,117/1000,59,109.0
7980,G3,546.517,117/1000,59,109.0
7981,D4,546.517,117/1000,59,109.0
7982,B3,546.783,67/1000,42,109.0
7983,G3,546.783,67/1000,42,109.0
7984,D4,546.783,67/1000,42,109.0
7985,B3,547.4,3/40,54,109.0
7986,D4,547.4,3/40,54,109.0
7987,G3,547.4,3/40,54,109.0
7988,D6,548.0,33/1000,59,109.0
7989,A5,548.042,1879/500,56,109.0
7990,B3,548.075,123/250,63,109.0
7991,G3,548.075,123/250,63,109.0
7992,D4,548.075,123/250,63,109.0
7993,G3,548.767,0.125,32,109.0
7994,B3,548.767,0.125,32,109.0
7995,D4,548.767,0.125,32,109.0
7996,B3,549.533,27/250,31,109.0
7997,D4,549.533,27/250,31,109.0
7998,G3,549.533,27/250,31,109.0
7999,B3,549.775,23/250,34,109.0
8000,D4,549.775,23/250,34,109.0
8001,G3,549.775,23/250,34,109.0
8002,B3,550.533,117/1000,47,109.0
8003,G3,550.533,117/1000,47,109.0
8004,D4,550.533,117/1000,47,109.0
8005,G4,551.5,233/1000,59,109.0
8006,B4,551.5,233/1000,59,109.0
8007,D5,551.5,233/1000,59,109.0
8008,G4,551.75,233/1000,62,109.0
8009,B4,551.75,233/1000,62,109.0
8010,D5,551.75,233/1000,62,109.0
8011,B-4,552.008,323/250,60,109.0
8012,D5,552.008,323/250,60,109.0
8013,F4,552.008,323/250,60,109.0
8014,G4,552.5,167/1000,77,109.0
8015,D5,552.5,167/1000,77,109.0
8016,B4,552.5,167/1000,77,109.0
8017,F4,553.25,167/1000,77,109.0
8018,A4,553.25,167/1000,77,109.0
8019,C5,553.25,167/1000,77,109.0
8020,B5,553.5,167/1000,80,109.0
8021,D6,553.5,167/1000,80,109.0
8022,G5,553.5,167/1000,80,109.0
8023,C5,553.533,33/20,60,109.0
8024,E5,553.533,33/20,60,109.0
8025,G4,553.533,33/20,60,109.0
8026,B5,553.75,167/1000,80,109.0
8027,G5,553.75,167/1000,80,109.0
8028,D6,553.75,167/1000,80,109.0
8029,G4,554.0,9/40,77,109.0
8030,D5,554.0,9/40,77,109.0
8031,B4,554.0,9/40,77,109.0
8032,B5,554.5,167/1000,64,109.0
8033,G5,554.5,167/1000,64,109.0
8034,D6,554.5,167/1000,64,109.0
8035,F5,555.25,167/1000,64,109.0
8036,C6,555.25,167/1000,64,109.0
8037,A5,555.25,167/1000,64,109.0
8038,D5,555.533,467/1000,60,109.0
8039,F5,555.533,467/1000,60,109.0
8040,A4,555.533,467/1000,60,109.0
8041,G5,556.0,0.25,64,109.0
8042,D6,556.0,0.25,64,109.0
8043,B5,556.0,0.25,64,109.0
8044,D5,556.0,323/250,60,109.0
8045,F5,556.0,323/250,60,109.0
8046,A4,556.0,323/250,60,109.0
8047,C5,557.508,37/20,60,109.0
8048,G4,557.508,37/20,60,109.0
8049,F5,557.508,37/20,60,109.0
8050,C#4,559.5,0.5,60,109.0
8051,F#4,559.5,0.5,60,109.0
8052,A4,559.5,0.5,60,109.0
8053,C#4,560.0,4.0,60,109.0
8054,F#4,560.0,4.0,60,109.0
8055,A4,560.0,4.0,60,109.0
8056,C#4,568.0,4.0,60,109.0
8057,F#4,568.0,4.0,60,109.0
8058,A4,568.0,4.0,60,109.0
8059,B4,572.008,323/250,60,109.0
8060,D5,572.008,323/250,60,109.0
8061,F#5,572.008,323/250,60,109.0
8062,C#5,573.5,69/40,60,109.0
8063,A4,573.5,33/20,60,109.0
8064,E5,573.55,1.75,60,109.0
8065,E5,575.5,0.5,60,109.0
8066,C5,575.5,0.5,60,109.0
8067,A4,575.5,0.5,60,109.0
8068,E5,576.0,629/500,60,109.0
8069,C5,576.0,629/500,60,109.0
8070,A4,576.0,629/500,60,109.0
8071,A4,577.5,37/20,60,109.0
8072,D5,577.5,37/20,60,109.0
8073,F5,577.5,37/20,60,109.0
8074,A5,579.5,0.5,64,109.0
8075,E5,579.5,0.5,64,109.0
8076,D5,579.5,0.5,64,109.0
8077,A5,580.0,4.0,64,109.0
8078,E5,580.0,3.5,64,109.0
8079,D5,580.0,3.5,64,109.0
8080,A5,584.0,4.0,64,109.0
8081,A5,588.0,4.0,64,109.0
8082,A5,592.0,4.0,64,109.0
8083,A5,596.0,2.0,64,109.0
8084,D5,598.0,2.0,64,109.0
8085,B4,600.0,4.0,64,109.0
8086,A5,608.0,4.0,64,109.0
8087,A5,612.0,4.0,64,109.0
8088,A5,616.0,3.0,64,109.0
8089,D5,619.0,1.0,64,109.0
8090,B4,620.0,4.0,64,109.0
