,note_name,start_time,duration,velocity,tempo
0,D4,4.0,0.25,80,117.0
1,G#3,4.0,1.0,70,117.0
2,D4,4.75,0.25,80,117.0
3,D4,5.0,0.25,80,117.0
4,G#3,5.0,1.0,70,117.0
5,C#2,5.0,0.25,115,117.0
6,E4,5.0,0.25,115,117.0
7,G#4,5.0,0.25,115,117.0
8,C#5,5.0,0.25,115,117.0
9,E5,5.0,0.25,115,117.0
10,E-4,5.5,0.25,80,117.0
11,C#2,5.5,0.25,115,117.0
12,E4,5.5,0.25,115,117.0
13,G#4,5.5,0.25,115,117.0
14,C#5,5.5,0.25,115,117.0
15,E5,5.5,0.25,115,117.0
16,D4,6.0,0.25,80,117.0
17,G#3,6.0,1.0,70,117.0
18,G#2,6.0,0.75,115,117.0
19,E-4,6.0,0.75,115,117.0
20,G#4,6.0,0.75,115,117.0
21,B4,6.0,0.75,115,117.0
22,E-5,6.0,0.75,115,117.0
23,D4,6.75,0.25,80,117.0
24,D4,7.0,0.25,80,117.0
25,G#3,7.0,1.0,70,117.0
26,G#2,7.0,0.75,115,117.0
27,F#4,7.0,0.75,115,117.0
28,B4,7.0,0.75,115,117.0
29,E-4,7.5,0.25,80,117.0
30,C#3,7.75,0.25,115,117.0
31,E4,7.75,0.25,115,117.0
32,G#4,7.75,0.25,115,117.0
33,C#5,7.75,0.25,115,117.0
34,D4,8.0,0.25,80,117.0
35,G#3,8.0,1.0,70,117.0
36,D4,8.75,0.25,80,117.0
37,D4,9.0,0.25,80,117.0
38,G#3,9.0,1.0,70,117.0
39,C#3,9.0,0.25,115,117.0
40,E4,9.0,0.25,115,117.0
41,G#4,9.0,0.25,115,117.0
42,C#5,9.0,0.25,115,117.0
43,E-4,9.5,0.25,80,117.0
44,C#3,9.5,0.25,115,117.0
45,E4,9.5,0.25,115,117.0
46,G#4,9.5,0.25,115,117.0
47,E5,9.5,0.25,115,117.0
48,D4,10.0,0.25,80,117.0
49,G#3,10.0,1.0,70,117.0
50,B2,10.0,0.75,115,117.0
51,D5,10.0,0.75,115,117.0
52,A4,10.0,0.75,115,117.0
53,F#5,10.0,0.75,115,117.0
54,D4,10.75,0.25,80,117.0
55,D4,11.0,0.25,80,117.0
56,G#3,11.0,1.0,70,117.0
57,E2,11.0,0.75,115,117.0
58,E5,11.0,0.75,115,117.0
59,G#4,11.0,0.75,115,117.0
60,G#5,11.0,0.75,115,117.0
61,B4,11.0,0.75,115,117.0
62,E-4,11.5,0.25,80,117.0
63,A2,11.75,0.25,115,117.0
64,C#5,11.75,0.25,115,117.0
65,E5,11.75,0.25,115,117.0
66,E4,11.75,0.25,115,117.0
67,G#4,11.75,0.25,115,117.0
68,G#3,12.0,1.0,70,117.0
69,D4,12.25,0.125,80,117.0
70,D4,12.375,0.125,80,117.0
71,D4,12.5,0.125,80,117.0
72,A2,12.75,0.25,115,117.0
73,D4,12.75,0.125,80,117.0
74,E-4,13.0,0.125,80,117.0
75,G#3,13.0,1.0,70,117.0
76,A2,13.0,0.25,115,117.0
77,E4,13.0,0.25,115,117.0
78,G#4,13.0,0.25,115,117.0
79,C#5,13.0,0.25,115,117.0
80,E5,13.0,0.25,115,117.0
81,E-4,13.5,0.25,80,117.0
82,A2,13.5,0.25,115,117.0
83,E4,13.5,0.25,115,117.0
84,G#4,13.5,0.25,115,117.0
85,C#5,13.5,0.25,115,117.0
86,E5,13.5,0.25,115,117.0
87,D4,14.0,0.25,80,117.0
88,G#3,14.0,1.0,70,117.0
89,G#2,14.0,0.75,115,117.0
90,E4,14.0,0.75,115,117.0
91,E5,14.0,0.75,115,117.0
92,G#4,14.0,0.75,115,117.0
93,B4,14.0,0.75,115,117.0
94,D4,14.75,0.25,80,117.0
95,D4,15.0,0.25,80,117.0
96,G#3,15.0,1.0,70,117.0
97,C#3,15.0,0.75,115,117.0
98,B3,15.0,0.75,115,117.0
99,E4,15.0,0.75,115,117.0
100,B4,15.0,0.75,115,117.0
101,E-4,15.5,0.25,80,117.0
102,E-4,15.75,0.25,80,117.0
103,D4,16.0,0.25,80,117.0
104,G#3,16.0,1.0,70,117.0
105,F#5,16.0,1.0,115,117.0
106,F#2,16.0,1.0,115,117.0
107,F#4,16.0,1.0,115,117.0
108,C#5,16.0,1.0,115,117.0
109,A5,16.0,1.0,115,117.0
110,D4,16.75,0.25,80,117.0
111,D4,17.0,0.25,80,117.0
112,G#3,17.0,1.0,70,117.0
113,B4,17.0,0.25,115,117.0
114,G#4,17.0,0.25,115,117.0
115,G#2,17.0,0.25,115,117.0
116,E5,17.0,0.25,115,117.0
117,G#5,17.0,0.25,115,117.0
118,E-5,17.5,0.25,115,117.0
119,G#4,17.5,0.25,115,117.0
120,A2,17.5,0.25,115,117.0
121,F#5,17.5,0.25,115,117.0
122,E-4,17.75,0.25,80,117.0
123,E-4,18.0,0.25,80,117.0
124,G#3,18.0,1.0,70,117.0
125,B4,18.0,1.0,115,117.0
126,F#4,18.0,1.0,115,117.0
127,B2,18.0,1.0,115,117.0
128,E5,18.0,1.0,115,117.0
129,A4,18.0,1.0,115,117.0
130,D4,18.25,0.25,80,117.0
131,D4,18.75,0.25,60,117.0
132,D4,19.0,0.25,80,117.0
133,G#3,19.0,1.0,70,117.0
134,E-4,19.0,0.75,115,117.0
135,G#4,19.0,0.75,115,117.0
136,E-5,19.0,0.75,115,117.0
137,C3,19.0,0.75,115,117.0
138,D4,19.5,0.25,60,117.0
139,D4,19.75,0.25,80,117.0
140,E4,19.75,0.25,115,117.0
141,G#4,19.75,0.25,115,117.0
142,E5,19.75,0.25,115,117.0
143,C#3,19.75,0.25,115,117.0
144,D4,20.0,0.25,80,117.0
145,G#3,20.0,1.0,70,117.0
146,C#2,20.25,0.25,115,117.0
147,C#2,20.75,0.25,115,117.0
148,D4,20.75,0.25,80,117.0
149,E-4,21.0,0.25,80,117.0
150,G#3,21.0,1.0,70,117.0
151,C#2,21.0,0.25,115,117.0
152,E4,21.0,0.25,115,117.0
153,G#4,21.0,0.25,115,117.0
154,C#5,21.0,0.25,115,117.0
155,E5,21.0,0.25,115,117.0
156,E-4,21.5,0.25,80,117.0
157,G#2,21.5,0.25,115,117.0
158,E4,21.5,0.25,115,117.0
159,G#4,21.5,0.25,115,117.0
160,C#5,21.5,0.25,115,117.0
161,E5,21.5,0.25,115,117.0
162,D4,22.0,0.25,80,117.0
163,G#3,22.0,1.0,70,117.0
164,G#2,22.0,0.75,115,117.0
165,E-4,22.0,0.75,115,117.0
166,G#4,22.0,0.75,115,117.0
167,B4,22.0,0.75,115,117.0
168,E-5,22.0,0.75,115,117.0
169,D4,23.0,0.25,80,117.0
170,G#3,23.0,1.0,70,117.0
171,G#2,23.0,0.75,115,117.0
172,F#4,23.0,0.75,115,117.0
173,B4,23.0,0.75,115,117.0
174,E-4,23.5,0.25,80,117.0
175,E-4,23.75,0.25,80,117.0
176,C#3,23.75,0.25,115,117.0
177,E4,23.75,0.25,115,117.0
178,G#4,23.75,0.25,115,117.0
179,C#5,23.75,0.25,115,117.0
180,D4,24.0,0.25,80,117.0
181,G#3,24.0,1.0,70,117.0
182,E-4,24.75,0.25,80,117.0
183,D4,25.0,0.25,80,117.0
184,G#3,25.0,1.0,70,117.0
185,C#3,25.0,0.25,115,117.0
186,E4,25.0,0.25,115,117.0
187,G#4,25.0,0.25,115,117.0
188,C#5,25.0,0.25,115,117.0
189,E-4,25.5,0.25,80,117.0
190,C#3,25.5,0.25,115,117.0
191,E4,25.5,0.25,115,117.0
192,G#4,25.5,0.25,115,117.0
193,E5,25.5,0.25,115,117.0
194,D4,26.0,0.25,80,117.0
195,G#3,26.0,1.0,70,117.0
196,B2,26.0,0.75,115,117.0
197,D5,26.0,0.75,115,117.0
198,A4,26.0,0.75,115,117.0
199,F#5,26.0,0.75,115,117.0
200,E-4,26.75,0.25,80,117.0
201,D4,27.0,0.25,80,117.0
202,G#3,27.0,1.0,70,117.0
203,E2,27.0,0.75,115,117.0
204,E5,27.0,0.75,115,117.0
205,G#4,27.0,0.75,115,117.0
206,G#5,27.0,0.75,115,117.0
207,B4,27.0,0.75,115,117.0
208,E-4,27.5,0.25,80,117.0
209,D4,27.75,0.25,80,117.0
210,A1,27.75,0.25,115,117.0
211,B3,27.75,0.25,115,117.0
212,E5,27.75,0.25,115,117.0
213,C#5,27.75,0.25,115,117.0
214,G#4,27.75,0.25,115,117.0
215,E4,27.75,0.25,115,117.0
216,A2,27.75,0.25,115,117.0
217,B1,27.75,0.25,120,117.0
218,C#3,27.75,0.25,120,117.0
219,B3,27.75,0.25,100,117.0
220,E4,27.75,0.25,100,117.0
221,G#4,27.75,0.25,100,117.0
222,A1,28.0,4.0,115,117.0
223,B3,28.0,4.0,115,117.0
224,E5,28.0,4.0,115,117.0
225,C#5,28.0,4.0,115,117.0
226,G#4,28.0,4.0,115,117.0
227,E4,28.0,4.0,115,117.0
228,A2,28.0,4.0,115,117.0
229,B3,28.0,4.0,100,117.0
230,E4,28.0,4.0,100,117.0
231,G#4,28.0,4.0,100,117.0
232,E6,31.5,0.25,105,117.0
233,C#6,31.75,0.25,105,117.0
234,E6,32.0,0.25,105,117.0
235,B1,32.0,4.0,115,117.0
236,F#4,32.0,4.0,105,117.0
237,C#4,32.0,4.0,105,117.0
238,B4,32.0,4.0,105,117.0
239,B2,32.0,4.0,105,117.0
240,C#3,32.0,0.25,120,117.0
241,B1,32.0,0.25,120,117.0
242,E4,32.0,4.0,100,117.0
243,C#4,32.0,4.0,100,117.0
244,B4,32.0,4.0,100,117.0
245,B5,32.25,0.25,105,117.0
246,A5,32.5,3.25,105,117.0
247,E2,35.0,0.25,110,117.0
248,B-2,35.0,0.25,110,117.0
249,B1,36.0,1.0,125,117.0
250,B1,36.0,167/1000,105,117.0
251,C#4,36.0,4.0,105,117.0
252,E4,36.0,4.0,105,117.0
253,B3,36.0,4.0,105,117.0
254,G#4,36.0,4.0,105,117.0
255,B4,36.0,4.0,105,117.0
256,C#3,36.0,0.5,95,117.0
257,F#2,36.0,0.5,95,117.0
258,B1,36.25,167/1000,105,117.0
259,C#2,36.5,0.25,105,117.0
260,E-4,36.742,0.25,80,117.0
261,B1,36.75,167/1000,105,117.0
262,C4,36.992,0.25,80,117.0
263,F#2,37.0,0.5,95,117.0
264,E2,37.0,1.0,125,117.0
265,E2,37.0,0.25,115,117.0
266,E-4,37.492,0.25,80,117.0
267,G#5,37.5,0.25,115,117.0
268,F#2,37.5,0.25,115,117.0
269,E-4,37.742,0.25,80,117.0
270,A5,37.75,0.25,115,117.0
271,B1,37.75,0.25,125,117.0
272,C4,37.992,0.25,80,117.0
273,G#5,38.0,2.0,115,117.0
274,B1,38.0,1.0,125,117.0
275,F#2,38.0,0.5,95,117.0
276,G#2,38.0,0.75,115,117.0
277,E-4,38.742,0.25,80,117.0
278,F#2,38.75,0.25,115,117.0
279,D4,38.992,0.25,80,117.0
280,F#2,39.0,0.5,95,117.0
281,E2,39.0,1.0,125,117.0
282,E-4,39.492,0.25,80,117.0
283,F#1,39.5,0.25,115,117.0
284,E-4,39.742,0.25,80,117.0
285,F#1,39.75,0.25,115,117.0
286,C4,39.992,1/125,80,117.0
287,C4,40.0,121/500,80,117.0
288,F#2,40.0,0.5,95,117.0
289,B1,40.0,1.0,125,117.0
290,F#1,40.25,0.25,115,117.0
291,E-4,40.742,0.25,80,117.0
292,D4,40.992,0.25,80,117.0
293,F#2,41.0,0.5,95,117.0
294,E2,41.0,1.0,125,117.0
295,F#1,41.0,0.5,115,117.0
296,E-4,41.492,0.25,80,117.0
297,C4,41.742,0.25,80,117.0
298,B1,41.75,0.25,125,117.0
299,B1,42.0,1.0,125,117.0
300,F#2,42.0,0.5,95,117.0
301,E-4,42.742,0.25,80,117.0
302,E-4,42.992,0.25,80,117.0
303,F#2,43.0,0.5,95,117.0
304,E2,43.0,1.0,125,117.0
305,E-2,43.0,1.0,115,117.0
306,C4,43.242,0.25,80,117.0
307,E-4,43.742,0.25,80,117.0
308,C4,43.992,1/125,80,117.0
309,G#5,44.0,2.0,115,117.0
310,C4,44.0,121/500,80,117.0
311,F#2,44.0,0.5,95,117.0
312,B1,44.0,1.0,125,117.0
313,C#2,44.0,0.5,115,117.0
314,C#4,44.0,4.0,105,117.0
315,E4,44.0,4.0,105,117.0
316,B3,44.0,4.0,105,117.0
317,G#4,44.0,4.0,105,117.0
318,B4,44.0,4.0,105,117.0
319,E-4,44.742,0.25,80,117.0
320,F#1,44.75,0.25,115,117.0
321,D4,44.992,0.25,80,117.0
322,F#2,45.0,0.5,95,117.0
323,E2,45.0,1.0,125,117.0
324,B1,45.0,0.25,115,117.0
325,E-4,45.492,0.25,80,117.0
326,C#2,45.5,0.25,115,117.0
327,B1,45.75,0.25,125,117.0
328,C4,45.992,0.25,80,117.0
329,B1,46.0,1.0,125,117.0
330,F#2,46.0,0.5,95,117.0
331,F#2,46.0,0.75,115,117.0
332,E-4,46.742,0.25,80,117.0
333,F#5,46.75,0.125,105,117.0
334,E2,46.75,0.25,115,117.0
335,F5,46.875,0.125,105,117.0
336,D4,46.992,0.25,80,117.0
337,E5,47.0,1.0,115,117.0
338,F#2,47.0,0.5,95,117.0
339,E2,47.0,1.0,125,117.0
340,E-4,47.492,0.25,80,117.0
341,E-4,47.742,0.25,80,117.0
342,F#5,48.0,1.0,115,117.0
343,F#2,48.0,0.5,95,117.0
344,B1,48.0,1.0,125,117.0
345,G#3,48.0,4.0,105,117.0
346,B3,48.0,4.0,105,117.0
347,C#4,48.0,4.0,105,117.0
348,E4,48.0,4.0,105,117.0
349,G#4,48.0,4.0,105,117.0
350,E-4,48.242,0.25,80,117.0
351,E-4,48.492,0.25,80,117.0
352,B1,48.5,0.25,115,117.0
353,C4,48.742,0.25,80,117.0
354,B5,49.0,3.0,115,117.0
355,F#2,49.0,0.5,95,117.0
356,E2,49.0,1.0,125,117.0
357,B1,49.0,0.25,115,117.0
358,C#2,49.25,0.25,115,117.0
359,B1,49.75,0.25,125,117.0
360,C4,49.992,0.25,80,117.0
361,B1,50.0,1.0,125,117.0
362,F#2,50.0,0.5,95,117.0
363,D4,50.242,0.25,80,117.0
364,C4,50.492,0.25,80,117.0
365,D4,50.992,0.25,80,117.0
366,B-2,51.0,0.5,95,117.0
367,E2,51.0,1.0,125,117.0
368,D4,51.242,0.25,80,117.0
369,C4,51.492,0.25,80,117.0
370,B3,51.958,21/500,100,117.0
371,E4,51.958,21/500,100,117.0
372,E-4,52.0,0.25,80,117.0
373,B1,52.0,1.0,125,117.0
374,B1,52.0,0.25,115,117.0
375,G3,52.0,0.5,95,117.0
376,F#2,52.0,0.5,95,117.0
377,B3,52.0,4.0,100,117.0
378,E4,52.0,4.0,100,117.0
379,G#4,52.042,1979/500,100,117.0
380,B1,52.25,0.25,115,117.0
381,C#2,52.5,0.25,115,117.0
382,E-4,52.742,0.25,80,117.0
383,B1,52.75,0.25,115,117.0
384,C4,52.992,0.25,80,117.0
385,F#2,53.0,0.5,95,117.0
386,E2,53.0,1.0,125,117.0
387,E2,53.0,0.25,115,117.0
388,E-4,53.492,0.25,80,117.0
389,F#2,53.5,0.25,115,117.0
390,E-4,53.742,0.25,80,117.0
391,B1,53.75,0.25,125,117.0
392,C4,53.992,0.25,80,117.0
393,B1,54.0,1.0,125,117.0
394,F#2,54.0,0.5,95,117.0
395,G#2,54.0,0.75,115,117.0
396,E-4,54.742,0.25,80,117.0
397,F#2,54.75,0.25,115,117.0
398,D4,54.992,0.25,80,117.0
399,F#2,55.0,0.5,95,117.0
400,E2,55.0,1.0,125,117.0
401,E-4,55.492,0.25,80,117.0
402,F#1,55.5,0.25,115,117.0
403,E-4,55.742,0.25,80,117.0
404,F#1,55.75,0.25,115,117.0
405,C4,55.992,1/125,80,117.0
406,B5,56.0,3.0,115,117.0
407,C4,56.0,121/500,80,117.0
408,F#2,56.0,0.5,95,117.0
409,B1,56.0,1.0,125,117.0
410,G#4,56.0,4.0,100,117.0
411,G#3,56.0,4.0,105,117.0
412,B3,56.0,4.0,105,117.0
413,C#4,56.0,4.0,105,117.0
414,E4,56.0,4.0,105,117.0
415,G#4,56.0,4.0,105,117.0
416,B3,56.0,1979/500,100,117.0
417,E4,56.0,1979/500,100,117.0
418,F#1,56.25,0.25,115,117.0
419,E-4,56.742,0.25,80,117.0
420,D4,56.992,0.25,80,117.0
421,F#2,57.0,0.5,95,117.0
422,E2,57.0,1.0,125,117.0
423,F#1,57.0,0.5,115,117.0
424,E-4,57.492,0.25,80,117.0
425,C4,57.742,0.25,80,117.0
426,B1,57.75,0.25,125,117.0
427,B1,58.0,1.0,125,117.0
428,F#2,58.0,0.5,95,117.0
429,E-4,58.742,0.25,80,117.0
430,E-4,58.992,0.25,80,117.0
431,F#2,59.0,0.5,95,117.0
432,E2,59.0,1.0,125,117.0
433,E-2,59.0,1.0,115,117.0
434,C4,59.242,0.25,80,117.0
435,E-4,59.742,0.25,80,117.0
436,C4,59.992,1/125,80,117.0
437,C4,60.0,121/500,80,117.0
438,F#2,60.0,0.5,95,117.0
439,B1,60.0,1.0,125,117.0
440,C#2,60.0,0.5,115,117.0
441,G#4,60.0,21/500,100,117.0
442,C#4,60.0,4.0,105,117.0
443,E4,60.0,4.0,105,117.0
444,B3,60.0,4.0,105,117.0
445,G#4,60.0,4.0,105,117.0
446,B4,60.0,4.0,105,117.0
447,E-4,60.742,0.25,80,117.0
448,F#1,60.75,0.25,115,117.0
449,D4,60.992,0.25,80,117.0
450,F#2,61.0,0.5,95,117.0
451,E2,61.0,1.0,125,117.0
452,B1,61.0,0.25,115,117.0
453,E-4,61.492,0.25,80,117.0
454,G#5,61.5,0.25,115,117.0
455,C#2,61.5,0.25,115,117.0
456,A5,61.75,0.25,115,117.0
457,B1,61.75,0.25,125,117.0
458,C4,61.992,0.25,80,117.0
459,G#5,62.0,2.0,115,117.0
460,B1,62.0,1.0,125,117.0
461,F#2,62.0,0.5,95,117.0
462,F#2,62.0,0.75,115,117.0
463,E-4,62.742,0.25,80,117.0
464,E2,62.75,0.25,115,117.0
465,D4,62.992,0.25,80,117.0
466,F#2,63.0,0.5,95,117.0
467,E2,63.0,1.0,125,117.0
468,B3,63.0,1.0,100,117.0
469,E4,63.0,1.0,100,117.0
470,E-4,63.492,0.25,80,117.0
471,E-4,63.742,0.25,80,117.0
472,F#2,64.0,0.5,95,117.0
473,B1,64.0,1.0,125,117.0
474,B3,64.0,4.0,100,117.0
475,E-4,64.0,4.0,100,117.0
476,E-4,64.242,0.25,80,117.0
477,E-4,64.492,0.25,80,117.0
478,B1,64.5,0.25,115,117.0
479,C4,64.742,0.25,80,117.0
480,F#2,65.0,0.5,95,117.0
481,E2,65.0,1.0,125,117.0
482,B1,65.0,0.25,115,117.0
483,C#2,65.25,0.25,115,117.0
484,B1,65.75,0.25,125,117.0
485,C4,65.992,0.25,80,117.0
486,B1,66.0,1.0,125,117.0
487,F#2,66.0,0.5,95,117.0
488,D4,66.242,0.25,80,117.0
489,C4,66.492,0.25,80,117.0
490,D4,66.992,0.25,80,117.0
491,F#2,67.0,0.5,95,117.0
492,E2,67.0,1.0,125,117.0
493,D4,67.242,0.25,80,117.0
494,C4,67.492,0.25,80,117.0
495,B3,67.958,21/500,100,117.0
496,E4,67.958,21/500,100,117.0
497,C#4,68.0,0.25,80,117.0
498,B1,68.0,1.0,125,117.0
499,F#1,68.0,1.0,115,117.0
500,C#4,68.0,4.0,105,117.0
501,E4,68.0,4.0,105,117.0
502,B3,68.0,4.0,105,117.0
503,G#4,68.0,4.0,105,117.0
504,B4,68.0,4.0,105,117.0
505,G3,68.0,0.5,105,117.0
506,F#2,68.0,0.5,105,117.0
507,A4,68.5,0.25,40,117.0
508,D4,68.742,0.25,60,117.0
509,A4,68.742,0.25,60,117.0
510,F#2,69.0,0.5,95,117.0
511,E2,69.0,1.0,125,117.0
512,E-4,69.0,0.25,60,117.0
513,B-4,69.0,0.25,60,117.0
514,E-4,69.492,0.25,60,117.0
515,A4,69.492,0.25,60,117.0
516,A4,69.75,0.25,40,117.0
517,B1,69.75,0.25,125,117.0
518,F#1,69.75,0.25,115,117.0
519,B1,70.0,1.0,125,117.0
520,F#2,70.0,0.5,95,117.0
521,F#1,70.0,1.0,115,117.0
522,C#4,70.0,0.25,60,117.0
523,B-4,70.0,0.25,60,117.0
524,D4,70.742,0.25,80,117.0
525,F#5,70.75,0.125,105,117.0
526,F5,70.875,0.125,105,117.0
527,D4,70.992,0.25,60,117.0
528,A4,70.992,0.25,60,117.0
529,E5,71.0,1.0,105,117.0
530,B-2,71.0,0.5,95,117.0
531,E2,71.0,1.0,125,117.0
532,A4,71.25,0.25,40,117.0
533,E-4,71.492,0.25,80,117.0
534,B3,71.958,1979/500,100,117.0
535,E4,71.958,1979/500,100,117.0
536,C4,71.992,1/125,80,117.0
537,F#5,72.0,1.0,115,117.0
538,C4,72.0,121/500,80,117.0
539,F#2,72.0,0.5,95,117.0
540,B1,72.0,1.0,125,117.0
541,G#1,72.0,1.0,115,117.0
542,G#4,72.0,1979/500,100,117.0
543,G#3,72.0,4.0,105,117.0
544,B3,72.0,4.0,105,117.0
545,C#4,72.0,4.0,105,117.0
546,E4,72.0,4.0,105,117.0
547,G#4,72.0,4.0,105,117.0
548,A4,72.5,0.25,40,117.0
549,E-4,72.742,0.25,60,117.0
550,A4,72.742,0.25,60,117.0
551,C4,72.992,0.25,60,117.0
552,B-4,72.992,0.25,60,117.0
553,E-6,73.0,3.0,115,117.0
554,F#2,73.0,0.5,95,117.0
555,E2,73.0,1.0,125,117.0
556,E-4,73.492,0.25,60,117.0
557,A4,73.492,0.25,60,117.0
558,A4,73.75,0.25,40,117.0
559,B1,73.75,0.25,125,117.0
560,G#1,73.75,0.25,115,117.0
561,C4,73.992,0.25,60,117.0
562,B-4,73.992,0.25,60,117.0
563,B1,74.0,1.0,125,117.0
564,F#2,74.0,0.5,95,117.0
565,G#1,74.0,1.0,115,117.0
566,D4,74.742,0.25,80,117.0
567,D4,74.992,0.25,60,117.0
568,A4,74.992,0.25,60,117.0
569,F#2,75.0,0.5,95,117.0
570,E2,75.0,1.0,125,117.0
571,A4,75.25,0.25,40,117.0
572,E-4,75.492,0.25,80,117.0
573,B1,75.75,0.25,125,117.0
574,G#3,75.875,83/1000,100,117.0
575,C#4,75.875,83/1000,100,117.0
576,G#4,75.958,21/500,100,117.0
577,E4,75.958,4.0,100,117.0
578,G#4,75.958,4.0,100,117.0
579,G#3,75.958,3917/1000,100,117.0
580,C#4,75.958,3917/1000,100,117.0
581,F#2,76.0,0.5,95,117.0
582,B1,76.0,1.0,125,117.0
583,A1,76.0,1.0,115,117.0
584,D4,76.242,0.125,80,117.0
585,D4,76.367,0.125,80,117.0
586,D4,76.492,0.125,80,117.0
587,A4,76.5,0.25,40,117.0
588,D4,76.742,0.125,80,117.0
589,A4,76.75,0.25,40,117.0
590,E-4,76.992,0.125,80,117.0
591,B-4,77.0,0.25,40,117.0
592,F#2,77.0,0.5,95,117.0
593,E2,77.0,1.0,125,117.0
594,E-4,77.492,0.25,60,117.0
595,A4,77.492,0.25,60,117.0
596,A4,77.75,0.25,40,117.0
597,B1,77.75,0.25,125,117.0
598,A1,77.75,0.25,115,117.0
599,C4,77.992,0.25,60,117.0
600,B-4,77.992,0.25,60,117.0
601,B1,78.0,1.0,125,117.0
602,F#2,78.0,0.5,95,117.0
603,A1,78.0,1.0,115,117.0
604,E-4,78.742,0.25,80,117.0
605,C4,78.992,0.25,60,117.0
606,A4,78.992,0.25,60,117.0
607,F#2,79.0,0.5,95,117.0
608,E2,79.0,1.0,125,117.0
609,A4,79.25,0.25,40,117.0
610,E-4,79.492,0.25,80,117.0
611,E-4,79.742,0.25,80,117.0
612,E4,79.958,4.0,100,117.0
613,B3,79.958,4.0,100,117.0
614,G#4,79.958,4.0,100,117.0
615,C4,79.992,1/125,80,117.0
616,C4,80.0,121/500,80,117.0
617,B1,80.0,1.0,125,117.0
618,B1,80.0,1.0,115,117.0
619,G#3,80.0,4.0,105,117.0
620,B3,80.0,4.0,105,117.0
621,C#4,80.0,4.0,105,117.0
622,E4,80.0,4.0,105,117.0
623,G#4,80.0,4.0,105,117.0
624,G3,80.0,0.5,100,117.0
625,F#2,80.0,0.5,100,117.0
626,A4,80.5,0.25,40,117.0
627,D4,80.742,0.25,60,117.0
628,A4,80.742,0.25,60,117.0
629,D4,80.992,0.25,60,117.0
630,B-4,80.992,0.25,60,117.0
631,F#2,81.0,0.5,95,117.0
632,E2,81.0,1.0,125,117.0
633,A4,81.5,0.25,40,117.0
634,E-4,81.742,0.25,60,117.0
635,A4,81.742,0.25,60,117.0
636,B1,81.75,0.25,125,117.0
637,B1,81.75,0.25,115,117.0
638,E-4,81.992,0.25,60,117.0
639,B-4,81.992,0.25,60,117.0
640,B1,82.0,1.0,125,117.0
641,C2,82.0,1.0,115,117.0
642,G3,82.0,0.5,100,117.0
643,F#2,82.0,0.5,100,117.0
644,D4,82.242,0.25,80,117.0
645,D4,82.742,0.25,60,117.0
646,D4,82.992,0.25,60,117.0
647,A4,82.992,0.25,60,117.0
648,F#2,83.0,0.5,95,117.0
649,E2,83.0,1.0,125,117.0
650,A4,83.25,0.25,40,117.0
651,D4,83.492,0.25,60,117.0
652,B1,83.5,0.25,125,117.0
653,D4,83.742,0.25,80,117.0
654,E2,83.75,0.25,125,117.0
655,G#4,83.958,2.0,100,117.0
656,E4,83.958,2.0,100,117.0
657,B4,83.958,2.0,100,117.0
658,D4,84.0,0.25,80,117.0
659,G#3,84.0,1.0,70,117.0
660,E2,84.0,0.25,125,117.0
661,F#2,84.0,0.5,95,117.0
662,E-3,84.0,1.0,95,117.0
663,C#4,84.0,4.0,105,117.0
664,G#4,84.0,4.0,105,117.0
665,B3,84.0,4.0,105,117.0
666,E4,84.0,4.0,105,117.0
667,B1,84.5,0.25,125,117.0
668,F#2,84.5,0.5,55,117.0
669,D4,84.75,0.25,80,117.0
670,D4,85.0,0.25,80,117.0
671,G#3,85.0,1.0,70,117.0
672,F#2,85.0,0.5,95,117.0
673,C#2,85.0,0.25,115,117.0
674,E2,85.0,1.0,110,117.0
675,E-3,85.0,1.0,110,117.0
676,G#5,85.5,0.25,115,117.0
677,E-4,85.5,0.25,80,117.0
678,B1,85.5,0.25,125,117.0
679,F#2,85.5,0.5,55,117.0
680,C#2,85.5,0.25,115,117.0
681,A5,85.75,0.25,115,117.0
682,G#5,86.0,1.75,115,117.0
683,D4,86.0,0.25,80,117.0
684,G#3,86.0,1.0,70,117.0
685,F#2,86.0,0.5,95,117.0
686,G#1,86.0,1.0,115,117.0
687,B1,86.0,1.0,110,117.0
688,E-3,86.0,1.0,110,117.0
689,F#2,86.5,0.5,55,117.0
690,D4,86.75,0.25,80,117.0
691,D4,87.0,0.25,80,117.0
692,G#3,87.0,1.0,70,117.0
693,F#2,87.0,0.5,95,117.0
694,B1,87.0,0.75,115,117.0
695,E2,87.0,1.0,110,117.0
696,E-3,87.0,1.0,110,117.0
697,F#5,87.25,0.125,105,117.0
698,F5,87.375,0.125,105,117.0
699,E5,87.5,0.5,115,117.0
700,E-4,87.5,0.25,80,117.0
701,F#2,87.5,0.5,55,117.0
702,F#4,87.708,167/1000,100,117.0
703,C#2,87.75,0.25,115,117.0
704,F#5,88.0,1.0,115,117.0
705,D4,88.0,0.25,80,117.0
706,G#3,88.0,1.0,70,117.0
707,F#2,88.0,0.5,95,117.0
708,B3,88.0,4.0,105,117.0
709,F#4,88.0,4.0,105,117.0
710,G#3,88.0,4.0,105,117.0
711,E4,88.0,4.0,105,117.0
712,B1,88.0,1.0,110,117.0
713,E-3,88.0,1.0,110,117.0
714,E4,88.208,167/1000,100,117.0
715,C#4,88.458,167/1000,100,117.0
716,F#2,88.5,0.5,55,117.0
717,B3,88.708,167/1000,100,117.0
718,D4,88.75,0.25,80,117.0
719,E4,88.958,167/1000,100,117.0
720,B5,89.0,2.0,115,117.0
721,D4,89.0,0.25,80,117.0
722,G#3,89.0,1.0,70,117.0
723,F#2,89.0,0.5,95,117.0
724,C#2,89.0,0.25,115,117.0
725,E2,89.0,1.0,110,117.0
726,E-3,89.0,1.0,110,117.0
727,E4,89.208,167/1000,100,117.0
728,E-4,89.5,0.25,80,117.0
729,B1,89.5,0.25,125,117.0
730,F#2,89.5,0.5,55,117.0
731,C#2,89.5,0.25,115,117.0
732,D4,90.0,0.25,80,117.0
733,G#3,90.0,1.0,70,117.0
734,F#2,90.0,0.5,95,117.0
735,B1,90.0,1.0,115,117.0
736,B1,90.0,1.0,110,117.0
737,E-3,90.0,1.0,110,117.0
738,B3,90.458,167/1000,100,117.0
739,F#2,90.5,0.5,55,117.0
740,B3,90.708,167/1000,100,117.0
741,D4,90.75,0.25,80,117.0
742,D4,91.0,0.25,80,117.0
743,G#3,91.0,1.0,70,117.0
744,F#2,91.0,0.5,95,117.0
745,E2,91.0,0.75,115,117.0
746,E2,91.0,1.0,110,117.0
747,E-3,91.0,1.0,110,117.0
748,B3,91.208,167/1000,100,117.0
749,E-4,91.5,0.25,80,117.0
750,F#2,91.5,0.5,55,117.0
751,G#4,91.708,167/1000,100,117.0
752,A1,91.75,0.25,115,117.0
753,G#3,92.0,1.0,70,117.0
754,F#2,92.0,0.5,95,117.0
755,C#4,92.0,4.0,105,117.0
756,E4,92.0,4.0,105,117.0
757,G#4,92.0,4.0,105,117.0
758,B3,92.0,4.0,105,117.0
759,B1,92.0,1.0,110,117.0
760,E-3,92.0,1.0,110,117.0
761,E4,92.208,167/1000,100,117.0
762,D4,92.25,0.125,80,117.0
763,D4,92.375,0.125,80,117.0
764,C#4,92.458,167/1000,100,117.0
765,D4,92.5,0.125,80,117.0
766,F#2,92.5,0.5,55,117.0
767,B3,92.708,167/1000,100,117.0
768,D4,92.75,0.125,80,117.0
769,E4,92.958,167/1000,100,117.0
770,E-4,93.0,0.125,80,117.0
771,G#3,93.0,1.0,70,117.0
772,F#2,93.0,0.5,95,117.0
773,A1,93.0,0.25,115,117.0
774,E2,93.0,1.0,110,117.0
775,E-3,93.0,1.0,110,117.0
776,E4,93.208,167/1000,100,117.0
777,B4,93.25,0.25,115,117.0
778,E5,93.5,0.25,115,117.0
779,E-4,93.5,0.25,80,117.0
780,B1,93.5,0.25,125,117.0
781,F#2,93.5,0.5,55,117.0
782,A1,93.5,0.25,115,117.0
783,F#5,93.75,0.25,115,117.0
784,G#5,94.0,0.25,115,117.0
785,D4,94.0,0.25,80,117.0
786,G#3,94.0,1.0,70,117.0
787,F#2,94.0,0.5,95,117.0
788,G#1,94.0,1.0,115,117.0
789,B1,94.0,1.0,110,117.0
790,E-3,94.0,1.0,110,117.0
791,A5,94.25,0.25,115,117.0
792,B3,94.458,167/1000,100,117.0
793,G#5,94.5,1.5,115,117.0
794,F#2,94.5,0.5,55,117.0
795,B3,94.708,167/1000,100,117.0
796,D4,94.75,0.25,80,117.0
797,D4,95.0,0.25,80,117.0
798,G#3,95.0,1.0,70,117.0
799,F#2,95.0,0.5,95,117.0
800,C#2,95.0,1.0,115,117.0
801,E2,95.0,1.0,110,117.0
802,E-3,95.0,1.0,110,117.0
803,B3,95.208,167/1000,100,117.0
804,F#5,95.5,0.25,115,117.0
805,E-4,95.5,0.25,80,117.0
806,F#2,95.5,0.5,55,117.0
807,G#4,95.708,167/1000,100,117.0
808,E5,95.75,0.25,115,117.0
809,E-4,95.75,0.25,80,117.0
810,F#5,96.0,1.0,115,117.0
811,D4,96.0,0.25,80,117.0
812,G#3,96.0,1.0,70,117.0
813,F#2,96.0,0.5,95,117.0
814,F#1,96.0,1.0,115,117.0
815,A3,96.0,2.0,105,117.0
816,F#3,96.0,2.0,105,117.0
817,C#4,96.0,2.0,105,117.0
818,E4,96.0,2.0,105,117.0
819,B1,96.0,1.0,110,117.0
820,E-3,96.0,1.0,110,117.0
821,E4,96.208,167/1000,100,117.0
822,C#4,96.458,167/1000,100,117.0
823,F#2,96.5,0.5,55,117.0
824,B3,96.708,167/1000,100,117.0
825,D4,96.75,0.25,80,117.0
826,E4,96.958,167/1000,100,117.0
827,E-6,97.0,1.0,115,117.0
828,D4,97.0,0.25,80,117.0
829,G#3,97.0,1.0,70,117.0
830,F#2,97.0,0.5,95,117.0
831,G#1,97.0,0.25,115,117.0
832,E2,97.0,1.0,110,117.0
833,E-3,97.0,1.0,110,117.0
834,E4,97.208,167/1000,100,117.0
835,B1,97.5,0.25,125,117.0
836,F#2,97.5,0.5,55,117.0
837,A1,97.5,0.25,115,117.0
838,E-4,97.75,0.25,80,117.0
839,E-4,98.0,0.25,80,117.0
840,G#3,98.0,1.0,70,117.0
841,F#2,98.0,0.5,95,117.0
842,B1,98.0,1.0,115,117.0
843,G#4,98.0,2.0,107,117.0
844,C6,98.0,2.0,107,117.0
845,G#3,98.0,2.0,107,117.0
846,C4,98.0,2.0,107,117.0
847,E4,98.0,2.0,107,117.0
848,B1,98.0,1.0,110,117.0
849,E-3,98.0,1.0,110,117.0
850,D4,98.25,0.25,80,117.0
851,B3,98.458,167/1000,100,117.0
852,F#2,98.5,0.5,55,117.0
853,B3,98.708,167/1000,100,117.0
854,D4,98.75,0.25,60,117.0
855,D4,99.0,0.25,80,117.0
856,G#3,99.0,1.0,70,117.0
857,F#2,99.0,0.5,95,117.0
858,C2,99.0,0.75,115,117.0
859,E2,99.0,1.0,110,117.0
860,E-3,99.0,1.0,110,117.0
861,B3,99.208,167/1000,100,117.0
862,D4,99.5,0.25,60,117.0
863,F#2,99.5,0.5,55,117.0
864,D4,99.75,0.25,80,117.0
865,C#2,99.75,0.25,115,117.0
866,B-2,99.75,0.25,110,117.0
867,B1,99.75,0.25,110,117.0
868,A4,99.958,1.0,100,117.0
869,D4,100.0,0.25,80,117.0
870,G#3,100.0,1.0,70,117.0
871,F#2,100.0,0.25,95,117.0
872,E-3,100.0,1.0,95,117.0
873,F#2,100.5,0.5,55,117.0
874,D4,100.75,0.25,80,117.0
875,E4,100.958,0.25,100,117.0
876,G#4,100.958,0.25,100,117.0
877,D4,101.0,0.25,80,117.0
878,G#3,101.0,1.0,70,117.0
879,F#2,101.0,0.5,95,117.0
880,C#2,101.0,0.25,115,117.0
881,C#6,101.0,0.25,115,117.0
882,E6,101.0,0.25,115,117.0
883,G#4,101.0,0.25,115,117.0
884,C#5,101.0,0.25,115,117.0
885,E5,101.0,0.25,115,117.0
886,E2,101.0,1.0,110,117.0
887,E-3,101.0,1.0,110,117.0
888,C#4,101.458,0.25,100,117.0
889,F#4,101.458,0.25,100,117.0
890,E-4,101.5,0.25,80,117.0
891,B1,101.5,0.25,125,117.0
892,F#2,101.5,0.5,55,117.0
893,C#2,101.5,0.25,115,117.0
894,C#6,101.5,0.25,115,117.0
895,E6,101.5,0.25,115,117.0
896,G#4,101.5,0.25,115,117.0
897,C#5,101.5,0.25,115,117.0
898,E5,101.5,0.25,115,117.0
899,B3,101.958,0.25,100,117.0
900,E4,101.958,0.25,100,117.0
901,D4,102.0,0.25,80,117.0
902,G#3,102.0,1.0,70,117.0
903,F#2,102.0,0.5,95,117.0
904,G#1,102.0,1.0,115,117.0
905,B5,102.0,0.75,115,117.0
906,E-6,102.0,0.75,115,117.0
907,G#4,102.0,0.75,115,117.0
908,B4,102.0,0.75,115,117.0
909,E-5,102.0,0.75,115,117.0
910,B1,102.0,1.0,110,117.0
911,E-3,102.0,1.0,110,117.0
912,F#2,102.5,0.5,55,117.0
913,D4,102.75,0.25,80,117.0
914,C4,102.958,0.75,100,117.0
915,E-4,102.958,0.75,100,117.0
916,D4,103.0,0.25,80,117.0
917,G#3,103.0,1.0,70,117.0
918,F#2,103.0,0.5,95,117.0
919,B1,103.0,0.75,115,117.0
920,E-5,103.0,0.75,115,117.0
921,B5,103.0,0.75,115,117.0
922,F#4,103.0,0.75,115,117.0
923,B4,103.0,0.75,115,117.0
924,E2,103.0,1.0,110,117.0
925,E-3,103.0,1.0,110,117.0
926,E-4,103.5,0.25,80,117.0
927,F#2,103.5,0.5,55,117.0
928,G#4,103.708,0.25,100,117.0
929,C#2,103.75,0.25,115,117.0
930,E5,103.75,0.25,115,117.0
931,C#6,103.75,0.25,115,117.0
932,E4,103.75,0.25,115,117.0
933,G#4,103.75,0.25,115,117.0
934,C#5,103.75,0.25,115,117.0
935,D4,104.0,0.25,80,117.0
936,G#3,104.0,1.0,70,117.0
937,F#2,104.0,0.5,95,117.0
938,B1,104.0,1.0,110,117.0
939,E-3,104.0,1.0,110,117.0
940,E4,104.208,167/1000,100,117.0
941,C#4,104.458,167/1000,100,117.0
942,F#2,104.5,0.5,55,117.0
943,B3,104.708,167/1000,100,117.0
944,D4,104.75,0.25,80,117.0
945,E4,104.958,167/1000,100,117.0
946,D4,105.0,0.25,80,117.0
947,G#3,105.0,1.0,70,117.0
948,F#2,105.0,0.5,95,117.0
949,C#2,105.0,0.25,115,117.0
950,G#5,105.0,0.25,115,117.0
951,C#6,105.0,0.25,115,117.0
952,E4,105.0,0.25,115,117.0
953,G#4,105.0,0.25,115,117.0
954,C#5,105.0,0.25,115,117.0
955,E2,105.0,1.0,110,117.0
956,E-3,105.0,1.0,110,117.0
957,E4,105.208,167/1000,100,117.0
958,E-4,105.5,0.25,80,117.0
959,B1,105.5,0.25,125,117.0
960,F#2,105.5,0.5,55,117.0
961,C#2,105.5,0.25,115,117.0
962,B5,105.5,0.25,115,117.0
963,E5,105.5,0.25,115,117.0
964,B4,105.5,0.25,115,117.0
965,E6,105.5,0.25,115,117.0
966,G#4,105.5,0.25,115,117.0
967,D4,106.0,0.25,80,117.0
968,G#3,106.0,1.0,70,117.0
969,F#2,106.0,0.5,95,117.0
970,B1,106.0,1.0,115,117.0
971,D6,106.0,0.75,115,117.0
972,F#6,106.0,0.75,115,117.0
973,D5,106.0,0.75,115,117.0
974,A4,106.0,0.75,115,117.0
975,F#5,106.0,0.75,115,117.0
976,B1,106.0,1.0,110,117.0
977,E-3,106.0,1.0,110,117.0
978,B3,106.458,167/1000,100,117.0
979,F#2,106.5,0.5,55,117.0
980,B3,106.708,167/1000,100,117.0
981,D4,106.75,0.25,80,117.0
982,D4,107.0,0.25,80,117.0
983,G#3,107.0,1.0,70,117.0
984,F#2,107.0,0.5,95,117.0
985,E2,107.0,0.75,115,117.0
986,E6,107.0,0.75,115,117.0
987,G#6,107.0,0.75,115,117.0
988,E5,107.0,0.75,115,117.0
989,G#5,107.0,0.75,115,117.0
990,B4,107.0,0.75,115,117.0
991,E2,107.0,1.0,110,117.0
992,E-3,107.0,1.0,110,117.0
993,B3,107.208,167/1000,100,117.0
994,E-4,107.5,0.25,80,117.0
995,F#2,107.5,0.5,55,117.0
996,G#4,107.708,167/1000,100,117.0
997,A1,107.75,0.25,115,117.0
998,C#6,107.75,0.25,115,117.0
999,E6,107.75,0.25,115,117.0
1000,C#5,107.75,0.25,115,117.0
1001,E5,107.75,0.25,115,117.0
1002,G#4,107.75,0.25,115,117.0
1003,G#3,108.0,1.0,70,117.0
1004,F#2,108.0,0.5,95,117.0
1005,B1,108.0,1.0,110,117.0
1006,E-3,108.0,1.0,110,117.0
1007,E4,108.208,167/1000,100,117.0
1008,D4,108.25,0.125,80,117.0
1009,D4,108.375,0.125,80,117.0
1010,C#4,108.458,167/1000,100,117.0
1011,D4,108.5,0.125,80,117.0
1012,F#2,108.5,0.5,55,117.0
1013,B3,108.708,167/1000,100,117.0
1014,D4,108.75,0.125,80,117.0
1015,E4,108.958,167/1000,100,117.0
1016,E-4,109.0,0.125,80,117.0
1017,G#3,109.0,1.0,70,117.0
1018,F#2,109.0,0.5,95,117.0
1019,A1,109.0,0.25,115,117.0
1020,C#6,109.0,0.25,115,117.0
1021,E6,109.0,0.25,115,117.0
1022,G#4,109.0,0.25,115,117.0
1023,C#5,109.0,0.25,115,117.0
1024,E5,109.0,0.25,115,117.0
1025,E2,109.0,1.0,110,117.0
1026,E-3,109.0,1.0,110,117.0
1027,E4,109.208,167/1000,100,117.0
1028,E-4,109.5,0.25,80,117.0
1029,B1,109.5,0.25,125,117.0
1030,F#2,109.5,0.5,55,117.0
1031,A1,109.5,0.25,115,117.0
1032,C#6,109.5,0.25,115,117.0
1033,E6,109.5,0.25,115,117.0
1034,G#4,109.5,0.25,115,117.0
1035,C#5,109.5,0.25,115,117.0
1036,E5,109.5,0.25,115,117.0
1037,D4,110.0,0.25,80,117.0
1038,G#3,110.0,1.0,70,117.0
1039,F#2,110.0,0.5,95,117.0
1040,G#1,110.0,1.0,115,117.0
1041,B5,110.0,0.75,115,117.0
1042,E6,110.0,0.75,115,117.0
1043,E5,110.0,0.75,115,117.0
1044,G#4,110.0,0.75,115,117.0
1045,B4,110.0,0.75,115,117.0
1046,B1,110.0,1.0,110,117.0
1047,E-3,110.0,1.0,110,117.0
1048,B3,110.458,167/1000,100,117.0
1049,F#2,110.5,0.5,55,117.0
1050,B3,110.708,167/1000,100,117.0
1051,D4,110.75,0.25,80,117.0
1052,D4,111.0,0.25,80,117.0
1053,G#3,111.0,1.0,70,117.0
1054,F#2,111.0,0.5,95,117.0
1055,C#2,111.0,1.0,115,117.0
1056,E5,111.0,0.75,115,117.0
1057,B5,111.0,0.75,115,117.0
1058,B3,111.0,0.75,115,117.0
1059,E4,111.0,0.75,115,117.0
1060,B4,111.0,0.75,115,117.0
1061,E2,111.0,1.0,110,117.0
1062,E-3,111.0,1.0,110,117.0
1063,B3,111.208,167/1000,100,117.0
1064,E-4,111.5,0.25,80,117.0
1065,F#2,111.5,0.5,55,117.0
1066,G#4,111.708,167/1000,100,117.0
1067,E-4,111.75,0.25,80,117.0
1068,D4,112.0,0.25,80,117.0
1069,G#3,112.0,1.0,70,117.0
1070,F#2,112.0,0.5,95,117.0
1071,F#1,112.0,1.0,115,117.0
1072,F#6,112.0,1.0,115,117.0
1073,A6,112.0,1.0,115,117.0
1074,F#5,112.0,1.0,115,117.0
1075,C#5,112.0,1.0,115,117.0
1076,A5,112.0,1.0,115,117.0
1077,B1,112.0,1.0,110,117.0
1078,E-3,112.0,1.0,110,117.0
1079,E4,112.208,167/1000,100,117.0
1080,C#4,112.458,167/1000,100,117.0
1081,F#2,112.5,0.5,55,117.0
1082,B3,112.708,167/1000,100,117.0
1083,D4,112.75,0.25,80,117.0
1084,E4,112.958,167/1000,100,117.0
1085,D4,113.0,0.25,80,117.0
1086,G#3,113.0,1.0,70,117.0
1087,F#2,113.0,0.5,95,117.0
1088,G#1,113.0,0.25,115,117.0
1089,E6,113.0,0.25,115,117.0
1090,G#6,113.0,0.25,115,117.0
1091,B4,113.0,0.25,115,117.0
1092,E5,113.0,0.25,115,117.0
1093,G#5,113.0,0.25,115,117.0
1094,E2,113.0,1.0,110,117.0
1095,E-3,113.0,1.0,110,117.0
1096,E4,113.208,167/1000,100,117.0
1097,B1,113.5,0.25,125,117.0
1098,F#2,113.5,0.5,55,117.0
1099,A1,113.5,0.25,115,117.0
1100,E-6,113.5,0.25,115,117.0
1101,F#6,113.5,0.25,115,117.0
1102,E-5,113.5,0.25,115,117.0
1103,G#4,113.5,0.25,115,117.0
1104,F#5,113.5,0.25,115,117.0
1105,E-4,113.75,0.25,80,117.0
1106,E-4,114.0,0.25,80,117.0
1107,G#3,114.0,1.0,70,117.0
1108,F#2,114.0,0.5,95,117.0
1109,B1,114.0,1.0,115,117.0
1110,B5,114.0,1.0,115,117.0
1111,E6,114.0,1.0,115,117.0
1112,B4,114.0,1.0,115,117.0
1113,F#4,114.0,1.0,115,117.0
1114,E5,114.0,1.0,115,117.0
1115,A4,114.0,1.0,115,117.0
1116,B1,114.0,1.0,110,117.0
1117,E-3,114.0,1.0,110,117.0
1118,D4,114.25,0.25,80,117.0
1119,B3,114.458,167/1000,100,117.0
1120,F#2,114.5,0.5,55,117.0
1121,B3,114.708,167/1000,100,117.0
1122,D4,114.75,0.25,60,117.0
1123,D4,115.0,0.25,80,117.0
1124,G#3,115.0,1.0,70,117.0
1125,F#2,115.0,0.5,95,117.0
1126,C2,115.0,0.75,115,117.0
1127,E-6,115.0,0.75,115,117.0
1128,E-4,115.0,0.75,115,117.0
1129,G#4,115.0,0.75,115,117.0
1130,E-5,115.0,0.75,115,117.0
1131,E2,115.0,1.0,110,117.0
1132,E-3,115.0,1.0,110,117.0
1133,B3,115.208,167/1000,100,117.0
1134,D4,115.5,0.25,60,117.0
1135,F#2,115.5,0.5,55,117.0
1136,D4,115.75,0.25,80,117.0
1137,F#1,115.75,0.25,115,117.0
1138,B5,115.75,0.25,115,117.0
1139,E6,115.75,0.25,115,117.0
1140,E4,115.75,0.25,115,117.0
1141,G#4,115.75,0.25,115,117.0
1142,E5,115.75,0.25,115,117.0
1143,C#3,115.75,0.25,110,117.0
1144,B1,115.75,0.25,110,117.0
1145,A4,115.958,1.0,100,117.0
1146,F#2,116.0,0.5,95,117.0
1147,B1,116.0,167/1000,105,117.0
1148,B1,116.25,167/1000,105,117.0
1149,C#2,116.5,0.25,105,117.0
1150,E-4,116.75,0.25,80,117.0
1151,B1,116.75,167/1000,105,117.0
1152,E4,116.958,0.25,100,117.0
1153,G#4,116.958,0.25,100,117.0
1154,C4,117.0,0.25,80,117.0
1155,F#2,117.0,0.5,95,117.0
1156,E2,117.0,1.0,125,117.0
1157,E2,117.0,0.25,115,117.0
1158,C#6,117.0,0.25,115,117.0
1159,E6,117.0,0.25,115,117.0
1160,G#4,117.0,0.25,115,117.0
1161,C#5,117.0,0.25,115,117.0
1162,E5,117.0,0.25,115,117.0
1163,C#4,117.458,0.25,100,117.0
1164,F#4,117.458,0.25,100,117.0
1165,E-4,117.5,0.25,80,117.0
1166,F#2,117.5,0.25,115,117.0
1167,C#6,117.5,0.25,115,117.0
1168,E6,117.5,0.25,115,117.0
1169,G#4,117.5,0.25,115,117.0
1170,C#5,117.5,0.25,115,117.0
1171,E5,117.5,0.25,115,117.0
1172,B1,117.75,0.25,125,117.0
1173,B3,117.958,0.25,100,117.0
1174,E4,117.958,0.25,100,117.0
1175,D4,118.0,0.25,80,117.0
1176,B1,118.0,1.0,125,117.0
1177,F#2,118.0,0.5,95,117.0
1178,G#2,118.0,0.75,115,117.0
1179,B5,118.0,0.75,115,117.0
1180,E-6,118.0,0.75,115,117.0
1181,G#4,118.0,0.75,115,117.0
1182,B4,118.0,0.75,115,117.0
1183,E-5,118.0,0.75,115,117.0
1184,E-4,118.75,0.25,80,117.0
1185,F#2,118.75,0.25,115,117.0
1186,C4,118.958,0.75,100,117.0
1187,E-4,118.958,0.75,100,117.0
1188,D4,119.0,0.25,80,117.0
1189,F#2,119.0,0.5,95,117.0
1190,E2,119.0,1.0,125,117.0
1191,E-5,119.0,0.75,115,117.0
1192,B5,119.0,0.75,115,117.0
1193,F#4,119.0,0.75,115,117.0
1194,B4,119.0,0.75,115,117.0
1195,E-4,119.5,0.25,80,117.0
1196,F#1,119.5,0.25,115,117.0
1197,G#4,119.708,0.25,100,117.0
1198,E-4,119.75,0.25,80,117.0
1199,F#1,119.75,0.25,115,117.0
1200,E5,119.75,0.25,115,117.0
1201,C#6,119.75,0.25,115,117.0
1202,E4,119.75,0.25,115,117.0
1203,G#4,119.75,0.25,115,117.0
1204,C#5,119.75,0.25,115,117.0
1205,C4,120.0,0.25,80,117.0
1206,F#2,120.0,0.5,95,117.0
1207,B1,120.0,1.0,125,117.0
1208,F#1,120.25,0.25,115,117.0
1209,E-4,120.75,0.25,80,117.0
1210,D4,121.0,0.25,80,117.0
1211,F#2,121.0,0.5,95,117.0
1212,E2,121.0,1.0,125,117.0
1213,F#1,121.0,0.5,115,117.0
1214,G#5,121.0,0.25,115,117.0
1215,C#6,121.0,0.25,115,117.0
1216,E4,121.0,0.25,115,117.0
1217,G#4,121.0,0.25,115,117.0
1218,C#5,121.0,0.25,115,117.0
1219,B5,121.5,0.25,115,117.0
1220,E5,121.5,0.25,115,117.0
1221,B4,121.5,0.25,115,117.0
1222,E6,121.5,0.25,115,117.0
1223,G#4,121.5,0.25,115,117.0
1224,C4,121.75,0.25,80,117.0
1225,B1,121.75,0.25,125,117.0
1226,E-4,122.0,0.25,80,117.0
1227,B1,122.0,1.0,125,117.0
1228,F#2,122.0,0.5,95,117.0
1229,D6,122.0,0.75,115,117.0
1230,F#6,122.0,0.75,115,117.0
1231,D5,122.0,0.75,115,117.0
1232,A4,122.0,0.75,115,117.0
1233,F#5,122.0,0.75,115,117.0
1234,E-4,122.75,0.25,80,117.0
1235,D4,123.0,0.25,80,117.0
1236,F#2,123.0,0.5,95,117.0
1237,E2,123.0,1.0,125,117.0
1238,E-2,123.0,1.0,115,117.0
1239,E6,123.0,0.75,115,117.0
1240,G#6,123.0,0.75,115,117.0
1241,E5,123.0,0.75,115,117.0
1242,G#5,123.0,0.75,115,117.0
1243,B4,123.0,0.75,115,117.0
1244,E-4,123.5,0.25,80,117.0
1245,E-4,123.75,0.25,80,117.0
1246,C#6,123.75,0.25,115,117.0
1247,E6,123.75,0.25,115,117.0
1248,C#5,123.75,0.25,115,117.0
1249,E5,123.75,0.25,115,117.0
1250,G#4,123.75,0.25,115,117.0
1251,C4,124.0,0.25,80,117.0
1252,F#2,124.0,0.5,95,117.0
1253,B1,124.0,1.0,125,117.0
1254,C#2,124.0,0.5,115,117.0
1255,E-4,124.75,0.25,80,117.0
1256,F#1,124.75,0.25,115,117.0
1257,D4,125.0,0.25,80,117.0
1258,F#2,125.0,0.5,95,117.0
1259,E2,125.0,1.0,125,117.0
1260,B1,125.0,0.25,115,117.0
1261,C#6,125.0,0.25,115,117.0
1262,E6,125.0,0.25,115,117.0
1263,G#4,125.0,0.25,115,117.0
1264,C#5,125.0,0.25,115,117.0
1265,E5,125.0,0.25,115,117.0
1266,E-4,125.5,0.25,80,117.0
1267,C#2,125.5,0.25,115,117.0
1268,C#6,125.5,0.25,115,117.0
1269,E6,125.5,0.25,115,117.0
1270,G#4,125.5,0.25,115,117.0
1271,C#5,125.5,0.25,115,117.0
1272,E5,125.5,0.25,115,117.0
1273,B1,125.75,0.25,125,117.0
1274,C4,126.0,0.25,80,117.0
1275,B1,126.0,1.0,125,117.0
1276,F#2,126.0,0.5,95,117.0
1277,F#2,126.0,0.75,115,117.0
1278,B5,126.0,0.75,115,117.0
1279,E6,126.0,0.75,115,117.0
1280,E5,126.0,0.75,115,117.0
1281,G#4,126.0,0.75,115,117.0
1282,B4,126.0,0.75,115,117.0
1283,E-4,126.75,0.25,80,117.0
1284,E2,126.75,0.25,115,117.0
1285,D4,127.0,0.25,80,117.0
1286,F#2,127.0,0.5,95,117.0
1287,E2,127.0,1.0,125,117.0
1288,E5,127.0,0.75,115,117.0
1289,B5,127.0,0.75,115,117.0
1290,B3,127.0,0.75,115,117.0
1291,E4,127.0,0.75,115,117.0
1292,B4,127.0,0.75,115,117.0
1293,E-4,127.5,0.25,80,117.0
1294,E-4,127.75,0.25,80,117.0
1295,E-4,127.958,4.0,100,117.0
1296,B3,127.958,4.0,100,117.0
1297,F#3,127.958,4.0,100,117.0
1298,F#2,128.0,0.5,95,117.0
1299,B1,128.0,1.0,125,117.0
1300,F#6,128.0,1.0,115,117.0
1301,A6,128.0,1.0,115,117.0
1302,F#5,128.0,1.0,115,117.0
1303,C#5,128.0,1.0,115,117.0
1304,A5,128.0,1.0,115,117.0
1305,E-4,128.25,0.25,80,117.0
1306,E-4,128.5,0.25,80,117.0
1307,B1,128.5,0.25,115,117.0
1308,C4,128.75,0.25,80,117.0
1309,F#2,129.0,0.5,95,117.0
1310,E2,129.0,1.0,125,117.0
1311,B1,129.0,0.25,115,117.0
1312,E6,129.0,0.25,115,117.0
1313,G#6,129.0,0.25,115,117.0
1314,B4,129.0,0.25,115,117.0
1315,E5,129.0,0.25,115,117.0
1316,G#5,129.0,0.25,115,117.0
1317,C#2,129.25,0.25,115,117.0
1318,E-6,129.5,0.25,115,117.0
1319,F#6,129.5,0.25,115,117.0
1320,E-5,129.5,0.25,115,117.0
1321,G#4,129.5,0.25,115,117.0
1322,F#5,129.5,0.25,115,117.0
1323,B1,129.75,0.25,125,117.0
1324,C4,130.0,0.25,80,117.0
1325,B1,130.0,1.0,125,117.0
1326,F#2,130.0,0.5,95,117.0
1327,B5,130.0,1.0,115,117.0
1328,E6,130.0,1.0,115,117.0
1329,B4,130.0,1.0,115,117.0
1330,F#4,130.0,1.0,115,117.0
1331,E5,130.0,1.0,115,117.0
1332,A4,130.0,1.0,115,117.0
1333,D4,130.25,0.25,80,117.0
1334,C4,130.5,0.25,80,117.0
1335,D4,131.0,0.25,80,117.0
1336,F#2,131.0,0.5,95,117.0
1337,E2,131.0,1.0,125,117.0
1338,E-6,131.0,0.75,115,117.0
1339,E-4,131.0,0.75,115,117.0
1340,G#4,131.0,0.75,115,117.0
1341,E-5,131.0,0.75,115,117.0
1342,D4,131.25,0.25,80,117.0
1343,C4,131.5,0.25,80,117.0
1344,E2,131.75,0.25,125,117.0
1345,B3,131.75,0.25,115,117.0
1346,E4,131.75,0.25,115,117.0
1347,G#4,131.75,0.25,115,117.0
1348,B4,131.75,0.25,115,117.0
1349,E5,131.75,0.25,115,117.0
1350,E4,131.958,2.0,100,117.0
1351,C#4,131.958,2.0,100,117.0
1352,C4,132.0,0.25,80,117.0
1353,G3,132.0,0.25,105,117.0
1354,F#2,132.0,0.5,95,117.0
1355,B1,132.0,1.0,125,117.0
1356,B1,132.0,0.25,115,117.0
1357,B3,132.0,4.0,115,117.0
1358,E4,132.0,4.0,115,117.0
1359,G#4,132.0,4.0,115,117.0
1360,B4,132.0,4.0,115,117.0
1361,E5,132.0,4.0,115,117.0
1362,B1,132.25,0.25,115,117.0
1363,C#2,132.5,0.25,115,117.0
1364,E-4,132.75,0.25,80,117.0
1365,B1,132.75,0.25,115,117.0
1366,D4,133.0,0.25,80,117.0
1367,F#2,133.0,0.5,95,117.0
1368,E2,133.0,1.0,125,117.0
1369,E2,133.0,0.25,115,117.0
1370,G#5,133.5,0.25,115,117.0
1371,E-4,133.5,0.25,80,117.0
1372,F#2,133.5,0.25,115,117.0
1373,A5,133.75,0.25,115,117.0
1374,B1,133.75,0.25,125,117.0
1375,B3,133.958,2.0,100,117.0
1376,E-4,133.958,2.0,100,117.0
1377,G#5,134.0,2.0,115,117.0
1378,C4,134.0,0.25,80,117.0
1379,B1,134.0,1.0,125,117.0
1380,F#2,134.0,0.5,95,117.0
1381,G#2,134.0,0.75,115,117.0
1382,E-4,134.75,0.25,80,117.0
1383,F#2,134.75,0.25,115,117.0
1384,D4,135.0,0.25,80,117.0
1385,F#2,135.0,0.5,95,117.0
1386,E2,135.0,1.0,125,117.0
1387,E-4,135.5,0.25,80,117.0
1388,F#1,135.5,0.25,115,117.0
1389,E-4,135.75,0.25,80,117.0
1390,F#1,135.75,0.25,115,117.0
1391,F#3,135.958,4.0,100,117.0
1392,B3,135.958,4.0,100,117.0
1393,E4,135.958,4.0,100,117.0
1394,C4,136.0,0.25,80,117.0
1395,F#2,136.0,0.5,95,117.0
1396,B1,136.0,1.0,125,117.0
1397,F#1,136.25,0.25,115,117.0
1398,E-4,136.75,0.25,80,117.0
1399,D4,137.0,0.25,80,117.0
1400,F#2,137.0,0.5,95,117.0
1401,E2,137.0,1.0,125,117.0
1402,F#1,137.0,0.5,115,117.0
1403,C4,137.75,0.25,80,117.0
1404,B1,137.75,0.25,125,117.0
1405,E-4,138.0,0.25,80,117.0
1406,B1,138.0,1.0,125,117.0
1407,F#2,138.0,0.5,95,117.0
1408,E-4,138.75,0.25,80,117.0
1409,D4,139.0,0.25,80,117.0
1410,F#2,139.0,0.5,95,117.0
1411,E2,139.0,1.0,125,117.0
1412,E-2,139.0,1.0,115,117.0
1413,E-4,139.5,0.25,80,117.0
1414,E-4,139.75,0.25,80,117.0
1415,C4,140.0,0.25,80,117.0
1416,F#2,140.0,0.5,95,117.0
1417,B1,140.0,1.0,125,117.0
1418,C#2,140.0,0.5,115,117.0
1419,B3,140.0,4.0,115,117.0
1420,E4,140.0,4.0,115,117.0
1421,G#4,140.0,4.0,115,117.0
1422,B4,140.0,4.0,115,117.0
1423,E5,140.0,4.0,115,117.0
1424,E-4,140.75,0.25,80,117.0
1425,F#1,140.75,0.25,115,117.0
1426,D4,141.0,0.25,80,117.0
1427,F#2,141.0,0.5,95,117.0
1428,E2,141.0,1.0,125,117.0
1429,B1,141.0,0.25,115,117.0
1430,E-4,141.5,0.25,80,117.0
1431,C#2,141.5,0.25,115,117.0
1432,B1,141.75,0.25,125,117.0
1433,C4,142.0,0.25,80,117.0
1434,B1,142.0,1.0,125,117.0
1435,F#2,142.0,0.5,95,117.0
1436,F#2,142.0,0.75,115,117.0
1437,F#5,142.75,0.125,105,117.0
1438,E-4,142.75,0.25,80,117.0
1439,E2,142.75,0.25,115,117.0
1440,F5,142.875,0.125,105,117.0
1441,E5,143.0,1.0,115,117.0
1442,D4,143.0,0.25,80,117.0
1443,F#2,143.0,0.5,95,117.0
1444,E2,143.0,1.0,125,117.0
1445,E-4,143.5,0.25,80,117.0
1446,E-4,143.75,0.25,80,117.0
1447,F#5,144.0,1.0,115,117.0
1448,F#2,144.0,0.5,95,117.0
1449,B1,144.0,1.0,125,117.0
1450,G#3,144.0,4.0,105,117.0
1451,B3,144.0,4.0,105,117.0
1452,C#4,144.0,4.0,105,117.0
1453,E4,144.0,4.0,105,117.0
1454,G#4,144.0,4.0,105,117.0
1455,E-4,144.25,0.25,80,117.0
1456,E-4,144.5,0.25,80,117.0
1457,B1,144.5,0.25,115,117.0
1458,C4,144.75,0.25,80,117.0
1459,B5,145.0,3.0,115,117.0
1460,F#2,145.0,0.5,95,117.0
1461,E2,145.0,1.0,125,117.0
1462,B1,145.0,0.25,115,117.0
1463,C#2,145.25,0.25,115,117.0
1464,B1,145.75,0.25,125,117.0
1465,C4,146.0,0.25,80,117.0
1466,B1,146.0,1.0,125,117.0
1467,F#2,146.0,0.5,95,117.0
1468,D4,146.25,0.25,80,117.0
1469,C4,146.5,0.25,80,117.0
1470,B4,146.958,0.75,100,117.0
1471,E-5,146.958,0.75,100,117.0
1472,D4,147.0,0.25,80,117.0
1473,F#2,147.0,0.5,95,117.0
1474,E2,147.0,1.0,125,117.0
1475,D4,147.25,0.25,80,117.0
1476,C4,147.5,0.25,80,117.0
1477,B4,147.708,0.25,100,117.0
1478,E-5,147.708,0.25,100,117.0
1479,C4,148.0,0.25,80,117.0
1480,F#1,148.0,1.0,115,117.0
1481,G3,148.0,0.5,105,117.0
1482,F#2,148.0,0.5,105,117.0
1483,B1,148.0,1.0,110,117.0
1484,E-3,148.0,1.0,110,117.0
1485,A4,148.5,0.25,40,117.0
1486,E-4,148.75,0.25,60,117.0
1487,A4,148.75,0.25,60,117.0
1488,G#4,148.958,0.75,100,117.0
1489,C#5,148.958,0.75,100,117.0
1490,E4,148.958,0.75,100,117.0
1491,F#2,149.0,0.5,95,117.0
1492,C4,149.0,0.25,60,117.0
1493,B-4,149.0,0.25,60,117.0
1494,E2,149.0,1.0,110,117.0
1495,E-3,149.0,1.0,110,117.0
1496,E-4,149.5,0.25,60,117.0
1497,A4,149.5,0.25,60,117.0
1498,C#5,149.708,0.25,100,117.0
1499,E4,149.708,0.25,100,117.0
1500,G#4,149.708,0.25,100,117.0
1501,B1,149.75,0.25,125,117.0
1502,F#1,149.75,0.25,115,117.0
1503,E-4,149.75,0.25,60,117.0
1504,A4,149.75,0.25,60,117.0
1505,F#2,150.0,0.5,95,117.0
1506,F#1,150.0,1.0,115,117.0
1507,C4,150.0,0.25,60,117.0
1508,B-4,150.0,0.25,60,117.0
1509,B1,150.0,1.0,110,117.0
1510,E-3,150.0,1.0,110,117.0
1511,E-4,150.75,0.25,80,117.0
1512,F#2,151.0,0.5,95,117.0
1513,D4,151.0,0.25,60,117.0
1514,A4,151.0,0.25,60,117.0
1515,E2,151.0,1.0,110,117.0
1516,E-3,151.0,1.0,110,117.0
1517,A4,151.25,0.25,40,117.0
1518,E-4,151.5,0.25,80,117.0
1519,E-4,151.75,0.25,80,117.0
1520,E4,151.958,4.0,100,117.0
1521,G#4,151.958,4.0,100,117.0
1522,B3,151.958,4.0,100,117.0
1523,C4,152.0,0.25,80,117.0
1524,F#2,152.0,0.5,95,117.0
1525,G#1,152.0,1.0,115,117.0
1526,G#3,152.0,4.0,105,117.0
1527,B3,152.0,4.0,105,117.0
1528,C#4,152.0,4.0,105,117.0
1529,E4,152.0,4.0,105,117.0
1530,G#4,152.0,4.0,105,117.0
1531,B1,152.0,1.0,110,117.0
1532,E-3,152.0,1.0,110,117.0
1533,A4,152.5,0.25,40,117.0
1534,E-4,152.75,0.25,60,117.0
1535,A4,152.75,0.25,60,117.0
1536,F#2,153.0,0.5,95,117.0
1537,D4,153.0,0.25,60,117.0
1538,B-4,153.0,0.25,60,117.0
1539,E2,153.0,1.0,110,117.0
1540,E-3,153.0,1.0,110,117.0
1541,E-4,153.5,0.25,60,117.0
1542,A4,153.5,0.25,60,117.0
1543,B1,153.75,0.25,125,117.0
1544,G#1,153.75,0.25,115,117.0
1545,C4,153.75,0.25,60,117.0
1546,A4,153.75,0.25,60,117.0
1547,B-4,154.0,0.25,40,117.0
1548,F#2,154.0,0.5,95,117.0
1549,G#1,154.0,1.0,115,117.0
1550,B1,154.0,1.0,110,117.0
1551,E-3,154.0,1.0,110,117.0
1552,E-4,154.75,0.25,80,117.0
1553,F#2,155.0,0.5,95,117.0
1554,E-4,155.0,0.25,60,117.0
1555,A4,155.0,0.25,60,117.0
1556,E2,155.0,1.0,110,117.0
1557,E-3,155.0,1.0,110,117.0
1558,C4,155.25,0.25,60,117.0
1559,A4,155.25,0.25,60,117.0
1560,E-4,155.75,0.25,80,117.0
1561,G#3,155.958,4.0,100,117.0
1562,G#4,155.958,4.0,100,117.0
1563,E4,155.958,4.0,100,117.0
1564,C4,156.0,0.25,80,117.0
1565,F#2,156.0,0.5,95,117.0
1566,A1,156.0,1.0,115,117.0
1567,C#4,156.0,4.0,105,117.0
1568,E4,156.0,4.0,105,117.0
1569,B3,156.0,4.0,105,117.0
1570,G#4,156.0,4.0,105,117.0
1571,B4,156.0,4.0,105,117.0
1572,B1,156.0,1.0,110,117.0
1573,E-3,156.0,1.0,110,117.0
1574,A4,156.5,0.25,40,117.0
1575,E-4,156.75,0.25,60,117.0
1576,A4,156.75,0.25,60,117.0
1577,F#2,157.0,0.5,95,117.0
1578,D4,157.0,0.25,60,117.0
1579,B-4,157.0,0.25,60,117.0
1580,E2,157.0,1.0,110,117.0
1581,E-3,157.0,1.0,110,117.0
1582,G#5,157.5,0.25,115,117.0
1583,E-4,157.5,0.25,60,117.0
1584,A4,157.5,0.25,60,117.0
1585,A5,157.75,0.25,115,117.0
1586,A4,157.75,0.25,40,117.0
1587,B1,157.75,0.25,125,117.0
1588,A1,157.75,0.25,115,117.0
1589,F#4,157.958,1.0,100,117.0
1590,G#5,158.0,2.0,115,117.0
1591,F#2,158.0,0.5,95,117.0
1592,A1,158.0,1.0,115,117.0
1593,C4,158.0,0.25,60,117.0
1594,B-4,158.0,0.25,60,117.0
1595,B1,158.0,1.0,110,117.0
1596,E-3,158.0,1.0,110,117.0
1597,E-4,158.75,0.25,80,117.0
1598,E4,158.958,1.0,100,117.0
1599,F#2,159.0,0.5,95,117.0
1600,D4,159.0,0.25,60,117.0
1601,A4,159.0,0.25,60,117.0
1602,E2,159.0,1.0,110,117.0
1603,E-3,159.0,1.0,110,117.0
1604,A4,159.25,0.25,40,117.0
1605,E-4,159.5,0.25,80,117.0
1606,E-4,159.75,0.25,80,117.0
1607,E4,159.958,4.0,100,117.0
1608,B3,159.958,4.0,100,117.0
1609,G#4,159.958,4.0,100,117.0
1610,F#2,160.0,0.5,95,117.0
1611,B1,160.0,1.0,115,117.0
1612,B1,160.0,1.0,110,117.0
1613,E-3,160.0,1.0,110,117.0
1614,E-4,160.25,0.25,80,117.0
1615,E-4,160.5,0.25,60,117.0
1616,A4,160.5,0.25,60,117.0
1617,C4,160.75,0.25,60,117.0
1618,A4,160.75,0.25,60,117.0
1619,B-4,161.0,0.25,40,117.0
1620,F#2,161.0,0.5,95,117.0
1621,E2,161.0,1.0,110,117.0
1622,E-3,161.0,1.0,110,117.0
1623,A4,161.5,0.25,40,117.0
1624,A4,161.75,0.25,40,117.0
1625,B1,161.75,0.25,125,117.0
1626,B1,161.75,0.25,115,117.0
1627,F#2,162.0,0.5,95,117.0
1628,C2,162.0,1.0,115,117.0
1629,C4,162.0,0.25,60,117.0
1630,B-4,162.0,0.25,60,117.0
1631,B1,162.0,1.0,110,117.0
1632,E-3,162.0,1.0,110,117.0
1633,D4,162.25,0.25,80,117.0
1634,C4,162.5,0.25,80,117.0
1635,F#2,163.0,0.5,95,117.0
1636,D4,163.0,0.25,60,117.0
1637,A4,163.0,0.25,60,117.0
1638,E2,163.0,1.0,110,117.0
1639,E-3,163.0,1.0,110,117.0
1640,D4,163.25,0.25,60,117.0
1641,A4,163.25,0.25,60,117.0
1642,C4,163.5,0.25,80,117.0
1643,E2,163.75,0.25,115,117.0
1644,G#4,163.958,2.0,100,117.0
1645,E4,163.958,2.0,100,117.0
1646,B4,163.958,2.0,100,117.0
1647,C4,164.0,0.25,80,117.0
1648,G#3,164.0,1.0,70,117.0
1649,E2,164.0,0.25,125,117.0
1650,F#2,164.0,0.5,95,117.0
1651,E-3,164.0,1.0,95,117.0
1652,C#4,164.0,4.0,105,117.0
1653,E4,164.0,4.0,105,117.0
1654,B3,164.0,4.0,105,117.0
1655,G#4,164.0,4.0,105,117.0
1656,B4,164.0,4.0,105,117.0
1657,B1,164.5,0.25,125,117.0
1658,F#2,164.5,0.5,55,117.0
1659,E-4,164.75,0.25,80,117.0
1660,D4,165.0,0.25,80,117.0
1661,G#3,165.0,1.0,70,117.0
1662,F#2,165.0,0.5,95,117.0
1663,C#2,165.0,0.25,115,117.0
1664,G3,165.0,1.0,110,117.0
1665,E2,165.0,1.0,110,117.0
1666,B1,165.5,0.25,125,117.0
1667,F#2,165.5,0.5,55,117.0
1668,C#2,165.5,0.25,115,117.0
1669,E-4,165.75,0.25,80,117.0
1670,C4,166.0,0.25,80,117.0
1671,G#3,166.0,1.0,70,117.0
1672,F#2,166.0,0.5,95,117.0
1673,G#1,166.0,1.0,115,117.0
1674,B1,166.0,1.0,110,117.0
1675,E-3,166.0,1.0,110,117.0
1676,F#2,166.5,0.5,55,117.0
1677,F#5,166.75,0.125,105,117.0
1678,D4,166.75,0.25,80,117.0
1679,F5,166.875,0.125,105,117.0
1680,E5,167.0,1.0,115,117.0
1681,D4,167.0,0.25,80,117.0
1682,G#3,167.0,1.0,70,117.0
1683,F#2,167.0,0.5,95,117.0
1684,B1,167.0,0.75,115,117.0
1685,E2,167.0,1.0,110,117.0
1686,E-3,167.0,1.0,110,117.0
1687,E-4,167.5,0.25,80,117.0
1688,F#2,167.5,0.5,55,117.0
1689,F#4,167.708,167/1000,100,117.0
1690,C#2,167.75,0.25,115,117.0
1691,F#5,168.0,1.0,115,117.0
1692,C4,168.0,0.25,80,117.0
1693,G#3,168.0,1.0,70,117.0
1694,F#2,168.0,0.5,95,117.0
1695,G#3,168.0,4.0,105,117.0
1696,B3,168.0,4.0,105,117.0
1697,C#4,168.0,4.0,105,117.0
1698,E4,168.0,4.0,105,117.0
1699,G#4,168.0,4.0,105,117.0
1700,B1,168.0,1.0,110,117.0
1701,E-3,168.0,1.0,110,117.0
1702,E4,168.208,167/1000,100,117.0
1703,C#4,168.458,167/1000,100,117.0
1704,F#2,168.5,0.5,55,117.0
1705,B3,168.708,167/1000,100,117.0
1706,D4,168.75,0.25,80,117.0
1707,E4,168.958,167/1000,100,117.0
1708,E-6,169.0,3.0,115,117.0
1709,C4,169.0,0.25,80,117.0
1710,G#3,169.0,1.0,70,117.0
1711,F#2,169.0,0.5,95,117.0
1712,C#2,169.0,0.25,115,117.0
1713,E2,169.0,1.0,110,117.0
1714,E-3,169.0,1.0,110,117.0
1715,E4,169.208,167/1000,100,117.0
1716,E-4,169.5,0.25,80,117.0
1717,B1,169.5,0.25,125,117.0
1718,F#2,169.5,0.5,55,117.0
1719,C#2,169.5,0.25,115,117.0
1720,C4,170.0,0.25,80,117.0
1721,G#3,170.0,1.0,70,117.0
1722,F#2,170.0,0.5,95,117.0
1723,B1,170.0,1.0,115,117.0
1724,B1,170.0,1.0,110,117.0
1725,E-3,170.0,1.0,110,117.0
1726,B3,170.458,167/1000,100,117.0
1727,F#2,170.5,0.5,55,117.0
1728,B3,170.708,167/1000,100,117.0
1729,D4,170.75,0.25,80,117.0
1730,D4,171.0,0.25,80,117.0
1731,G#3,171.0,1.0,70,117.0
1732,F#2,171.0,0.5,95,117.0
1733,E2,171.0,0.75,115,117.0
1734,E2,171.0,1.0,110,117.0
1735,E-3,171.0,1.0,110,117.0
1736,B3,171.208,167/1000,100,117.0
1737,E-4,171.5,0.25,80,117.0
1738,F#2,171.5,0.5,55,117.0
1739,G#4,171.708,167/1000,100,117.0
1740,E-4,171.75,0.25,80,117.0
1741,A1,171.75,0.25,115,117.0
1742,C4,172.0,0.25,80,117.0
1743,G#3,172.0,1.0,70,117.0
1744,F#2,172.0,0.5,95,117.0
1745,B1,172.0,1.0,110,117.0
1746,E-3,172.0,1.0,110,117.0
1747,E4,172.208,167/1000,100,117.0
1748,C#4,172.458,167/1000,100,117.0
1749,F#2,172.5,0.5,55,117.0
1750,B3,172.708,167/1000,100,117.0
1751,E-4,172.75,0.25,80,117.0
1752,E4,172.958,167/1000,100,117.0
1753,C4,173.0,0.25,80,117.0
1754,G#3,173.0,1.0,70,117.0
1755,F#2,173.0,0.5,95,117.0
1756,A1,173.0,0.25,115,117.0
1757,E2,173.0,1.0,110,117.0
1758,E-3,173.0,1.0,110,117.0
1759,E4,173.208,167/1000,100,117.0
1760,E-4,173.5,0.25,80,117.0
1761,B1,173.5,0.25,125,117.0
1762,F#2,173.5,0.5,55,117.0
1763,A1,173.5,0.25,115,117.0
1764,D4,174.0,0.25,80,117.0
1765,G#3,174.0,1.0,70,117.0
1766,F#2,174.0,0.5,95,117.0
1767,G#1,174.0,1.0,115,117.0
1768,B1,174.0,1.0,110,117.0
1769,E-3,174.0,1.0,110,117.0
1770,B3,174.458,167/1000,100,117.0
1771,F#2,174.5,0.5,55,117.0
1772,B3,174.708,167/1000,100,117.0
1773,D4,174.75,0.25,80,117.0
1774,D4,175.0,0.25,80,117.0
1775,G#3,175.0,1.0,70,117.0
1776,F#2,175.0,0.5,95,117.0
1777,C#2,175.0,1.0,115,117.0
1778,E2,175.0,1.0,110,117.0
1779,E-3,175.0,1.0,110,117.0
1780,B3,175.208,167/1000,100,117.0
1781,E-4,175.5,0.25,80,117.0
1782,F#2,175.5,0.5,55,117.0
1783,G#4,175.708,167/1000,100,117.0
1784,E-4,175.75,0.25,80,117.0
1785,D4,176.0,0.25,80,117.0
1786,G#3,176.0,1.0,70,117.0
1787,F#2,176.0,0.5,95,117.0
1788,F#1,176.0,1.0,115,117.0
1789,G#3,176.0,4.0,105,117.0
1790,B3,176.0,4.0,105,117.0
1791,C#4,176.0,4.0,105,117.0
1792,E4,176.0,4.0,105,117.0
1793,G#4,176.0,4.0,105,117.0
1794,B1,176.0,1.0,110,117.0
1795,E-3,176.0,1.0,110,117.0
1796,E4,176.208,167/1000,100,117.0
1797,C#4,176.458,167/1000,100,117.0
1798,F#2,176.5,0.5,55,117.0
1799,B3,176.708,167/1000,100,117.0
1800,D4,176.75,0.25,80,117.0
1801,E4,176.958,167/1000,100,117.0
1802,D4,177.0,0.25,80,117.0
1803,G#3,177.0,1.0,70,117.0
1804,F#2,177.0,0.5,95,117.0
1805,G#1,177.0,0.25,115,117.0
1806,E2,177.0,1.0,110,117.0
1807,E-3,177.0,1.0,110,117.0
1808,E4,177.208,167/1000,100,117.0
1809,B1,177.5,0.25,125,117.0
1810,F#2,177.5,0.5,55,117.0
1811,A1,177.5,0.25,115,117.0
1812,E-4,177.75,0.25,80,117.0
1813,E-4,178.0,0.25,80,117.0
1814,G#3,178.0,1.0,70,117.0
1815,F#2,178.0,0.5,95,117.0
1816,B1,178.0,1.0,115,117.0
1817,B1,178.0,1.0,110,117.0
1818,E-3,178.0,1.0,110,117.0
1819,D4,178.25,0.25,80,117.0
1820,B3,178.458,167/1000,100,117.0
1821,F#2,178.5,0.5,55,117.0
1822,B3,178.708,167/1000,100,117.0
1823,D4,178.75,0.25,60,117.0
1824,D4,179.0,0.25,80,117.0
1825,G#3,179.0,1.0,70,117.0
1826,F#2,179.0,0.5,95,117.0
1827,C2,179.0,0.75,115,117.0
1828,E2,179.0,1.0,110,117.0
1829,E-3,179.0,1.0,110,117.0
1830,B3,179.208,167/1000,100,117.0
1831,D4,179.5,0.25,60,117.0
1832,F#2,179.5,0.5,55,117.0
1833,D4,179.75,0.25,80,117.0
1834,C#2,179.75,0.25,115,117.0
1835,B-2,179.75,0.25,110,117.0
1836,B1,179.75,0.25,110,117.0
1837,A4,179.958,1.0,100,117.0
1838,G#3,180.0,1.0,70,117.0
1839,F#2,180.0,0.25,95,117.0
1840,E-3,180.0,1.0,95,117.0
1841,B4,180.0,4.0,105,117.0
1842,G#4,180.0,4.0,105,117.0
1843,B3,180.0,4.0,105,117.0
1844,E4,180.0,4.0,105,117.0
1845,F#2,180.5,0.5,55,117.0
1846,D4,180.75,0.25,80,117.0
1847,E4,180.958,0.25,100,117.0
1848,G#4,180.958,0.25,100,117.0
1849,C4,181.0,0.25,80,117.0
1850,G#3,181.0,1.0,70,117.0
1851,F#2,181.0,0.5,95,117.0
1852,C#2,181.0,0.25,115,117.0
1853,E2,181.0,1.0,110,117.0
1854,E-3,181.0,1.0,110,117.0
1855,C#4,181.458,0.25,100,117.0
1856,F#4,181.458,0.25,100,117.0
1857,G#5,181.5,0.25,115,117.0
1858,E-4,181.5,0.25,80,117.0
1859,B1,181.5,0.25,125,117.0
1860,F#2,181.5,0.5,55,117.0
1861,C#2,181.5,0.25,115,117.0
1862,A5,181.75,0.25,115,117.0
1863,B3,181.958,0.25,100,117.0
1864,E4,181.958,0.25,100,117.0
1865,G#5,182.0,1.75,115,117.0
1866,C4,182.0,0.25,80,117.0
1867,G#3,182.0,1.0,70,117.0
1868,F#2,182.0,0.5,95,117.0
1869,G#1,182.0,1.0,115,117.0
1870,B1,182.0,1.0,110,117.0
1871,E-3,182.0,1.0,110,117.0
1872,F#2,182.5,0.5,55,117.0
1873,D4,182.75,0.25,80,117.0
1874,C4,182.958,0.75,100,117.0
1875,E-4,182.958,0.75,100,117.0
1876,D4,183.0,0.25,80,117.0
1877,G#3,183.0,1.0,70,117.0
1878,F#2,183.0,0.5,95,117.0
1879,B1,183.0,0.75,115,117.0
1880,E2,183.0,1.0,110,117.0
1881,E-3,183.0,1.0,110,117.0
1882,F#5,183.25,0.125,105,117.0
1883,F5,183.375,0.125,105,117.0
1884,E5,183.5,0.5,115,117.0
1885,E-4,183.5,0.25,80,117.0
1886,F#2,183.5,0.5,55,117.0
1887,G#4,183.708,0.25,100,117.0
1888,C#2,183.75,0.25,115,117.0
1889,F#5,184.0,1.0,115,117.0
1890,C4,184.0,0.25,80,117.0
1891,G#3,184.0,1.0,70,117.0
1892,F#2,184.0,0.5,95,117.0
1893,B3,184.0,4.0,105,117.0
1894,F#4,184.0,4.0,105,117.0
1895,G#3,184.0,4.0,105,117.0
1896,E4,184.0,4.0,105,117.0
1897,B1,184.0,1.0,110,117.0
1898,E-3,184.0,1.0,110,117.0
1899,E4,184.208,167/1000,100,117.0
1900,C#4,184.458,167/1000,100,117.0
1901,F#2,184.5,0.5,55,117.0
1902,B3,184.708,167/1000,100,117.0
1903,E-4,184.75,0.25,80,117.0
1904,E4,184.958,167/1000,100,117.0
1905,B5,185.0,2.0,115,117.0
1906,C4,185.0,0.25,80,117.0
1907,G#3,185.0,1.0,70,117.0
1908,F#2,185.0,0.5,95,117.0
1909,C#2,185.0,0.25,115,117.0
1910,E2,185.0,1.0,110,117.0
1911,E-3,185.0,1.0,110,117.0
1912,E4,185.208,167/1000,100,117.0
1913,E-4,185.5,0.25,80,117.0
1914,B1,185.5,0.25,125,117.0
1915,F#2,185.5,0.5,55,117.0
1916,C#2,185.5,0.25,115,117.0
1917,C4,186.0,0.25,80,117.0
1918,G#3,186.0,1.0,70,117.0
1919,F#2,186.0,0.5,95,117.0
1920,B1,186.0,1.0,115,117.0
1921,B1,186.0,1.0,110,117.0
1922,E-3,186.0,1.0,110,117.0
1923,B3,186.458,167/1000,100,117.0
1924,F#2,186.5,0.5,55,117.0
1925,B3,186.708,167/1000,100,117.0
1926,D4,186.75,0.25,80,117.0
1927,D4,187.0,0.25,80,117.0
1928,G#3,187.0,1.0,70,117.0
1929,F#2,187.0,0.5,95,117.0
1930,E2,187.0,0.75,115,117.0
1931,E2,187.0,1.0,110,117.0
1932,E-3,187.0,1.0,110,117.0
1933,B3,187.208,167/1000,100,117.0
1934,E-4,187.5,0.25,80,117.0
1935,F#2,187.5,0.5,55,117.0
1936,G#4,187.708,167/1000,100,117.0
1937,A1,187.75,0.25,115,117.0
1938,G#3,188.0,1.0,70,117.0
1939,F#2,188.0,0.5,95,117.0
1940,C#4,188.0,4.0,105,117.0
1941,E4,188.0,4.0,105,117.0
1942,G#4,188.0,4.0,105,117.0
1943,B3,188.0,4.0,105,117.0
1944,B1,188.0,1.0,110,117.0
1945,E-3,188.0,1.0,110,117.0
1946,E4,188.208,167/1000,100,117.0
1947,D4,188.25,0.125,80,117.0
1948,D4,188.375,0.125,80,117.0
1949,C#4,188.458,167/1000,100,117.0
1950,D4,188.5,0.125,80,117.0
1951,F#2,188.5,0.5,55,117.0
1952,B3,188.708,167/1000,100,117.0
1953,D4,188.75,0.125,80,117.0
1954,E4,188.958,167/1000,100,117.0
1955,E-4,189.0,0.125,80,117.0
1956,G#3,189.0,1.0,70,117.0
1957,F#2,189.0,0.5,95,117.0
1958,A1,189.0,0.25,115,117.0
1959,E2,189.0,1.0,110,117.0
1960,E-3,189.0,1.0,110,117.0
1961,E4,189.208,167/1000,100,117.0
1962,B4,189.25,0.25,115,117.0
1963,E5,189.5,0.25,115,117.0
1964,E-4,189.5,0.25,80,117.0
1965,B1,189.5,0.25,125,117.0
1966,F#2,189.5,0.5,55,117.0
1967,A1,189.5,0.25,115,117.0
1968,F#5,189.75,0.25,115,117.0
1969,G#5,190.0,0.25,115,117.0
1970,C4,190.0,0.25,80,117.0
1971,G#3,190.0,1.0,70,117.0
1972,F#2,190.0,0.5,95,117.0
1973,G#1,190.0,1.0,115,117.0
1974,B1,190.0,1.0,110,117.0
1975,E-3,190.0,1.0,110,117.0
1976,A5,190.25,0.25,115,117.0
1977,B3,190.458,167/1000,100,117.0
1978,G#5,190.5,1.5,115,117.0
1979,F#2,190.5,0.5,55,117.0
1980,B3,190.708,167/1000,100,117.0
1981,E-4,190.75,0.25,80,117.0
1982,C4,191.0,0.25,80,117.0
1983,G#3,191.0,1.0,70,117.0
1984,F#2,191.0,0.5,95,117.0
1985,C#2,191.0,1.0,115,117.0
1986,E2,191.0,1.0,110,117.0
1987,E-3,191.0,1.0,110,117.0
1988,B3,191.208,167/1000,100,117.0
1989,F#5,191.5,0.25,115,117.0
1990,E-4,191.5,0.25,80,117.0
1991,F#2,191.5,0.5,55,117.0
1992,G#4,191.708,167/1000,100,117.0
1993,E5,191.75,0.25,115,117.0
1994,E-4,191.75,0.25,80,117.0
1995,F#5,192.0,1.0,115,117.0
1996,C4,192.0,0.25,80,117.0
1997,G#3,192.0,1.0,70,117.0
1998,F#2,192.0,0.5,95,117.0
1999,F#1,192.0,1.0,115,117.0
2000,A3,192.0,2.0,105,117.0
2001,F#3,192.0,2.0,105,117.0
2002,C#4,192.0,2.0,105,117.0
2003,E4,192.0,2.0,105,117.0
2004,B1,192.0,1.0,110,117.0
2005,E-3,192.0,1.0,110,117.0
2006,E4,192.208,167/1000,100,117.0
2007,C#4,192.458,167/1000,100,117.0
2008,F#2,192.5,0.5,55,117.0
2009,B3,192.708,167/1000,100,117.0
2010,D4,192.75,0.25,80,117.0
2011,E4,192.958,167/1000,100,117.0
2012,E-6,193.0,1.0,115,117.0
2013,D4,193.0,0.25,80,117.0
2014,G#3,193.0,1.0,70,117.0
2015,F#2,193.0,0.5,95,117.0
2016,G#1,193.0,0.25,115,117.0
2017,E2,193.0,1.0,110,117.0
2018,E-3,193.0,1.0,110,117.0
2019,E4,193.208,167/1000,100,117.0
2020,B1,193.5,0.25,125,117.0
2021,F#2,193.5,0.5,55,117.0
2022,A1,193.5,0.25,115,117.0
2023,E-4,193.75,0.25,80,117.0
2024,E-4,194.0,0.25,80,117.0
2025,G#3,194.0,1.0,70,117.0
2026,F#2,194.0,0.5,95,117.0
2027,B1,194.0,1.0,115,117.0
2028,C6,194.0,2.0,107,117.0
2029,G#4,194.0,2.0,107,117.0
2030,G#3,194.0,2.0,107,117.0
2031,C4,194.0,2.0,107,117.0
2032,E4,194.0,2.0,107,117.0
2033,B1,194.0,1.0,110,117.0
2034,E-3,194.0,1.0,110,117.0
2035,D4,194.25,0.25,80,117.0
2036,B3,194.458,167/1000,100,117.0
2037,F#2,194.5,0.5,55,117.0
2038,B3,194.708,167/1000,100,117.0
2039,D4,194.75,0.25,60,117.0
2040,D4,195.0,0.25,80,117.0
2041,G#3,195.0,1.0,70,117.0
2042,F#2,195.0,0.5,95,117.0
2043,C2,195.0,1.0,115,117.0
2044,E2,195.0,1.0,110,117.0
2045,E-3,195.0,1.0,110,117.0
2046,B3,195.208,167/1000,100,117.0
2047,D4,195.5,0.25,60,117.0
2048,F#2,195.5,0.5,55,117.0
2049,D4,195.75,0.25,80,117.0
2050,G3,195.75,0.25,125,117.0
2051,B1,195.75,0.25,125,117.0
2052,A4,195.958,1.0,100,117.0
2053,C#3,196.0,0.25,125,117.0
2054,F#2,196.0,0.5,95,117.0
2055,B1,196.0,1.0,125,117.0
2056,F1,196.0,1.5,115,117.0
2057,F#2,196.5,0.5,55,117.0
2058,E4,196.958,0.25,100,117.0
2059,G#4,196.958,0.25,100,117.0
2060,F#2,197.0,0.5,95,117.0
2061,C#6,197.0,0.25,115,117.0
2062,E6,197.0,0.25,115,117.0
2063,G#4,197.0,0.25,115,117.0
2064,C#5,197.0,0.25,115,117.0
2065,E5,197.0,0.25,115,117.0
2066,E-3,197.0,1.0,115,117.0
2067,E2,197.0,1.0,115,117.0
2068,C#4,197.458,0.25,100,117.0
2069,F#4,197.458,0.25,100,117.0
2070,F#2,197.5,0.5,55,117.0
2071,C#6,197.5,0.25,115,117.0
2072,E6,197.5,0.25,115,117.0
2073,G#4,197.5,0.25,115,117.0
2074,C#5,197.5,0.25,115,117.0
2075,E5,197.5,0.25,115,117.0
2076,B1,197.75,0.25,125,117.0
2077,F1,197.75,0.25,115,117.0
2078,B3,197.958,0.25,100,117.0
2079,E4,197.958,0.25,100,117.0
2080,F#2,198.0,0.5,95,117.0
2081,F1,198.0,1.5,115,117.0
2082,B5,198.0,0.75,115,117.0
2083,E-6,198.0,0.75,115,117.0
2084,G#4,198.0,0.75,115,117.0
2085,B4,198.0,0.75,115,117.0
2086,E-5,198.0,0.75,115,117.0
2087,E-3,198.0,1.0,115,117.0
2088,B1,198.0,1.0,115,117.0
2089,F#2,198.5,0.5,55,117.0
2090,C4,198.958,0.75,100,117.0
2091,E-4,198.958,0.75,100,117.0
2092,F#2,199.0,0.5,95,117.0
2093,E-5,199.0,0.75,115,117.0
2094,B5,199.0,0.75,115,117.0
2095,F#4,199.0,0.75,115,117.0
2096,B4,199.0,0.75,115,117.0
2097,E-3,199.0,1.0,115,117.0
2098,E2,199.0,1.0,115,117.0
2099,F#2,199.5,0.5,55,117.0
2100,E5,199.75,0.25,115,117.0
2101,C#6,199.75,0.25,115,117.0
2102,E4,199.75,0.25,115,117.0
2103,G#4,199.75,0.25,115,117.0
2104,C#5,199.75,0.25,115,117.0
2105,F#2,200.0,0.5,95,117.0
2106,B-1,200.0,1.5,115,117.0
2107,E-3,200.0,1.0,115,117.0
2108,B1,200.0,1.0,115,117.0
2109,F#2,200.5,0.5,55,117.0
2110,F#2,201.0,0.5,95,117.0
2111,G#5,201.0,0.25,115,117.0
2112,C#6,201.0,0.25,115,117.0
2113,E4,201.0,0.25,115,117.0
2114,G#4,201.0,0.25,115,117.0
2115,C#5,201.0,0.25,115,117.0
2116,E-3,201.0,1.0,115,117.0
2117,E2,201.0,1.0,115,117.0
2118,F#2,201.5,0.5,55,117.0
2119,B5,201.5,0.25,115,117.0
2120,E5,201.5,0.25,115,117.0
2121,B4,201.5,0.25,115,117.0
2122,E6,201.5,0.25,115,117.0
2123,G#4,201.5,0.25,115,117.0
2124,B1,201.75,0.25,125,117.0
2125,B-1,201.75,0.25,115,117.0
2126,F#2,202.0,0.5,95,117.0
2127,B-1,202.0,1.5,115,117.0
2128,D6,202.0,0.75,115,117.0
2129,F#6,202.0,0.75,115,117.0
2130,D5,202.0,0.75,115,117.0
2131,A4,202.0,0.75,115,117.0
2132,F#5,202.0,0.75,115,117.0
2133,E-3,202.0,1.0,115,117.0
2134,B1,202.0,1.0,115,117.0
2135,F#2,202.5,0.5,55,117.0
2136,F#2,203.0,0.5,95,117.0
2137,E6,203.0,0.75,115,117.0
2138,G#6,203.0,0.75,115,117.0
2139,E5,203.0,0.75,115,117.0
2140,G#5,203.0,0.75,115,117.0
2141,B4,203.0,0.75,115,117.0
2142,E-3,203.0,1.0,115,117.0
2143,E2,203.0,1.0,115,117.0
2144,F#2,203.5,0.5,55,117.0
2145,C#6,203.75,0.25,115,117.0
2146,E6,203.75,0.25,115,117.0
2147,C#5,203.75,0.25,115,117.0
2148,E5,203.75,0.25,115,117.0
2149,G#4,203.75,0.25,115,117.0
2150,B-3,203.958,4.0,100,117.0
2151,G#3,203.958,4.0,100,117.0
2152,C#4,203.958,4.0,100,117.0
2153,F#2,204.0,0.5,95,117.0
2154,A1,204.0,1.5,115,117.0
2155,E-3,204.0,1.0,115,117.0
2156,B1,204.0,1.0,115,117.0
2157,F#2,204.5,0.5,55,117.0
2158,F#2,205.0,0.5,95,117.0
2159,C#6,205.0,0.25,115,117.0
2160,E6,205.0,0.25,115,117.0
2161,G#4,205.0,0.25,115,117.0
2162,C#5,205.0,0.25,115,117.0
2163,E5,205.0,0.25,115,117.0
2164,E-3,205.0,1.0,115,117.0
2165,E2,205.0,1.0,115,117.0
2166,F#2,205.5,0.5,55,117.0
2167,C#6,205.5,0.25,115,117.0
2168,E6,205.5,0.25,115,117.0
2169,G#4,205.5,0.25,115,117.0
2170,C#5,205.5,0.25,115,117.0
2171,E5,205.5,0.25,115,117.0
2172,B1,205.75,0.25,125,117.0
2173,A1,205.75,0.25,115,117.0
2174,F#2,206.0,0.5,95,117.0
2175,A1,206.0,1.0,115,117.0
2176,B5,206.0,0.75,115,117.0
2177,E6,206.0,0.75,115,117.0
2178,E5,206.0,0.75,115,117.0
2179,G#4,206.0,0.75,115,117.0
2180,B4,206.0,0.75,115,117.0
2181,E-3,206.0,1.0,115,117.0
2182,B1,206.0,1.0,115,117.0
2183,F#2,206.5,0.5,55,117.0
2184,F#2,207.0,0.5,95,117.0
2185,G#1,207.0,1.0,115,117.0
2186,E5,207.0,0.75,115,117.0
2187,B5,207.0,0.75,115,117.0
2188,B3,207.0,0.75,115,117.0
2189,E4,207.0,0.75,115,117.0
2190,B4,207.0,0.75,115,117.0
2191,E-3,207.0,1.0,115,117.0
2192,E2,207.0,1.0,115,117.0
2193,F#2,207.5,0.5,55,117.0
2194,A4,207.958,1.0,100,117.0
2195,C#5,207.958,1.0,100,117.0
2196,F#2,208.0,0.5,95,117.0
2197,F#1,208.0,1.5,115,117.0
2198,F#6,208.0,1.0,115,117.0
2199,A6,208.0,1.0,115,117.0
2200,F#5,208.0,1.0,115,117.0
2201,C#5,208.0,1.0,115,117.0
2202,A5,208.0,1.0,115,117.0
2203,E-3,208.0,1.0,115,117.0
2204,B1,208.0,1.0,115,117.0
2205,F#2,208.5,0.5,55,117.0
2206,B3,208.958,2.0,100,117.0
2207,E4,208.958,2.0,100,117.0
2208,G#4,208.958,2.0,100,117.0
2209,F#2,209.0,0.5,95,117.0
2210,E6,209.0,0.25,115,117.0
2211,G#6,209.0,0.25,115,117.0
2212,B4,209.0,0.25,115,117.0
2213,E5,209.0,0.25,115,117.0
2214,G#5,209.0,0.25,115,117.0
2215,E-3,209.0,1.0,115,117.0
2216,E2,209.0,1.0,115,117.0
2217,F#2,209.5,0.5,55,117.0
2218,E-6,209.5,0.25,115,117.0
2219,F#6,209.5,0.25,115,117.0
2220,E-5,209.5,0.25,115,117.0
2221,G#4,209.5,0.25,115,117.0
2222,F#5,209.5,0.25,115,117.0
2223,B1,209.75,0.25,125,117.0
2224,F#1,209.75,0.25,115,117.0
2225,F#2,210.0,0.5,95,117.0
2226,B1,210.0,1.5,115,117.0
2227,B5,210.0,1.0,115,117.0
2228,E6,210.0,1.0,115,117.0
2229,B4,210.0,1.0,115,117.0
2230,F#4,210.0,1.0,115,117.0
2231,E5,210.0,1.0,115,117.0
2232,A4,210.0,1.0,115,117.0
2233,E-3,210.0,1.0,115,117.0
2234,B1,210.0,1.0,115,117.0
2235,F#2,210.5,0.5,55,117.0
2236,C#4,210.958,1.0,100,117.0
2237,F#4,210.958,1.0,100,117.0
2238,B-2,211.0,0.5,95,117.0
2239,E-6,211.0,0.75,115,117.0
2240,E-4,211.0,0.75,115,117.0
2241,G#4,211.0,0.75,115,117.0
2242,E-5,211.0,0.75,115,117.0
2243,E-3,211.0,1.0,115,117.0
2244,E2,211.0,1.0,115,117.0
2245,B5,211.75,0.25,115,117.0
2246,E6,211.75,0.25,115,117.0
2247,E4,211.75,0.25,115,117.0
2248,G#4,211.75,0.25,115,117.0
2249,E5,211.75,0.25,115,117.0
2250,G#3,211.958,2.0,100,117.0
2251,B3,211.958,2.0,100,117.0
2252,E4,211.958,2.0,100,117.0
2253,F#2,212.0,0.5,95,117.0
2254,F2,212.0,3.0,115,117.0
2255,C#3,212.0,1.0,115,117.0
2256,B1,212.0,1.0,115,117.0
2257,F#2,212.5,0.5,55,117.0
2258,F#2,213.0,0.5,95,117.0
2259,C#6,213.0,0.25,115,117.0
2260,E6,213.0,0.25,115,117.0
2261,G#4,213.0,0.25,115,117.0
2262,C#5,213.0,0.25,115,117.0
2263,E5,213.0,0.25,115,117.0
2264,E-3,213.0,1.0,115,117.0
2265,E2,213.0,1.0,115,117.0
2266,F#2,213.5,0.5,55,117.0
2267,C#6,213.5,0.25,115,117.0
2268,E6,213.5,0.25,115,117.0
2269,G#4,213.5,0.25,115,117.0
2270,C#5,213.5,0.25,115,117.0
2271,E5,213.5,0.25,115,117.0
2272,B1,213.75,0.25,125,117.0
2273,F#2,214.0,0.5,95,117.0
2274,B5,214.0,0.75,115,117.0
2275,E-6,214.0,0.75,115,117.0
2276,G#4,214.0,0.75,115,117.0
2277,B4,214.0,0.75,115,117.0
2278,E-5,214.0,0.75,115,117.0
2279,E-3,214.0,1.0,115,117.0
2280,B1,214.0,1.0,115,117.0
2281,F#2,214.5,0.5,55,117.0
2282,F#2,215.0,0.5,95,117.0
2283,F2,215.0,1.0,115,117.0
2284,E-5,215.0,0.75,115,117.0
2285,B5,215.0,0.75,115,117.0
2286,F#4,215.0,0.75,115,117.0
2287,B4,215.0,0.75,115,117.0
2288,E-3,215.0,1.0,115,117.0
2289,E2,215.0,1.0,115,117.0
2290,F#2,215.5,0.5,55,117.0
2291,E5,215.75,0.25,115,117.0
2292,C#6,215.75,0.25,115,117.0
2293,E4,215.75,0.25,115,117.0
2294,G#4,215.75,0.25,115,117.0
2295,C#5,215.75,0.25,115,117.0
2296,F#2,216.0,0.5,95,117.0
2297,B-1,216.0,3.0,115,117.0
2298,E-3,216.0,1.0,115,117.0
2299,B1,216.0,1.0,115,117.0
2300,F#2,216.5,0.5,55,117.0
2301,F#2,217.0,0.5,95,117.0
2302,G#5,217.0,0.25,115,117.0
2303,C#6,217.0,0.25,115,117.0
2304,E4,217.0,0.25,115,117.0
2305,G#4,217.0,0.25,115,117.0
2306,C#5,217.0,0.25,115,117.0
2307,E-3,217.0,1.0,115,117.0
2308,E2,217.0,1.0,115,117.0
2309,F#2,217.5,0.5,55,117.0
2310,B5,217.5,0.25,115,117.0
2311,E5,217.5,0.25,115,117.0
2312,B4,217.5,0.25,115,117.0
2313,E6,217.5,0.25,115,117.0
2314,G#4,217.5,0.25,115,117.0
2315,B1,217.75,0.25,125,117.0
2316,F#2,218.0,0.5,95,117.0
2317,D6,218.0,0.75,115,117.0
2318,F#6,218.0,0.75,115,117.0
2319,D5,218.0,0.75,115,117.0
2320,A4,218.0,0.75,115,117.0
2321,F#5,218.0,0.75,115,117.0
2322,E-3,218.0,1.0,115,117.0
2323,B1,218.0,1.0,115,117.0
2324,F#2,218.5,0.5,55,117.0
2325,F#2,219.0,0.5,95,117.0
2326,B-1,219.0,1.0,115,117.0
2327,E6,219.0,0.75,115,117.0
2328,G#6,219.0,0.75,115,117.0
2329,E5,219.0,0.75,115,117.0
2330,G#5,219.0,0.75,115,117.0
2331,B4,219.0,0.75,115,117.0
2332,E-3,219.0,1.0,115,117.0
2333,E2,219.0,1.0,115,117.0
2334,F#2,219.5,0.5,55,117.0
2335,C#6,219.75,0.25,115,117.0
2336,E6,219.75,0.25,115,117.0
2337,C#5,219.75,0.25,115,117.0
2338,E5,219.75,0.25,115,117.0
2339,G#4,219.75,0.25,115,117.0
2340,F4,219.958,4.0,100,117.0
2341,C#4,219.958,4.0,100,117.0
2342,B-4,219.958,4.0,100,117.0
2343,F#2,220.0,0.5,95,117.0
2344,A1,220.0,3.0,115,117.0
2345,E-3,220.0,1.0,115,117.0
2346,B1,220.0,1.0,115,117.0
2347,F#2,220.5,0.5,55,117.0
2348,F#2,221.0,0.5,95,117.0
2349,C#6,221.0,0.25,115,117.0
2350,E6,221.0,0.25,115,117.0
2351,G#4,221.0,0.25,115,117.0
2352,C#5,221.0,0.25,115,117.0
2353,E5,221.0,0.25,115,117.0
2354,E-3,221.0,1.0,115,117.0
2355,E2,221.0,1.0,115,117.0
2356,F#2,221.5,0.5,55,117.0
2357,C#6,221.5,0.25,115,117.0
2358,E6,221.5,0.25,115,117.0
2359,G#4,221.5,0.25,115,117.0
2360,C#5,221.5,0.25,115,117.0
2361,E5,221.5,0.25,115,117.0
2362,B1,221.75,0.25,125,117.0
2363,F#2,222.0,0.5,95,117.0
2364,B5,222.0,0.75,115,117.0
2365,E6,222.0,0.75,115,117.0
2366,E5,222.0,0.75,115,117.0
2367,G#4,222.0,0.75,115,117.0
2368,B4,222.0,0.75,115,117.0
2369,E-3,222.0,1.0,115,117.0
2370,B1,222.0,1.0,115,117.0
2371,F#2,222.5,0.5,55,117.0
2372,F#2,223.0,0.5,95,117.0
2373,G#1,223.0,1.0,115,117.0
2374,E5,223.0,0.75,115,117.0
2375,B5,223.0,0.75,115,117.0
2376,B3,223.0,0.75,115,117.0
2377,E4,223.0,0.75,115,117.0
2378,B4,223.0,0.75,115,117.0
2379,E-3,223.0,1.0,115,117.0
2380,E2,223.0,1.0,115,117.0
2381,F#2,223.5,0.5,55,117.0
2382,B4,223.958,1.0,100,117.0
2383,E5,223.958,1.0,100,117.0
2384,F#2,224.0,0.5,95,117.0
2385,F#1,224.0,2.0,115,117.0
2386,F#6,224.0,1.0,115,117.0
2387,A6,224.0,1.0,115,117.0
2388,F#5,224.0,1.0,115,117.0
2389,C#5,224.0,1.0,115,117.0
2390,A5,224.0,1.0,115,117.0
2391,E-3,224.0,1.0,115,117.0
2392,B1,224.0,1.0,115,117.0
2393,F#2,224.5,0.5,55,117.0
2394,G#4,224.958,3.0,100,117.0
2395,C#5,224.958,3.0,100,117.0
2396,F#2,225.0,0.5,95,117.0
2397,E6,225.0,0.25,115,117.0
2398,G#6,225.0,0.25,115,117.0
2399,B4,225.0,0.25,115,117.0
2400,E5,225.0,0.25,115,117.0
2401,G#5,225.0,0.25,115,117.0
2402,E-3,225.0,1.0,115,117.0
2403,E2,225.0,1.0,115,117.0
2404,F#2,225.5,0.5,55,117.0
2405,E-6,225.5,0.25,115,117.0
2406,F#6,225.5,0.25,115,117.0
2407,E-5,225.5,0.25,115,117.0
2408,G#4,225.5,0.25,115,117.0
2409,F#5,225.5,0.25,115,117.0
2410,B1,225.75,0.25,125,117.0
2411,F#2,226.0,0.5,95,117.0
2412,B1,226.0,2.0,115,117.0
2413,B5,226.0,1.0,115,117.0
2414,E6,226.0,1.0,115,117.0
2415,B4,226.0,1.0,115,117.0
2416,F#4,226.0,1.0,115,117.0
2417,E5,226.0,1.0,115,117.0
2418,A4,226.0,1.0,115,117.0
2419,E-3,226.0,1.0,115,117.0
2420,B1,226.0,1.0,115,117.0
2421,F#2,226.5,0.5,55,117.0
2422,E-3,227.0,1.0,105,117.0
2423,F#2,227.0,0.5,95,117.0
2424,E-6,227.0,0.75,115,117.0
2425,E-4,227.0,0.75,115,117.0
2426,G#4,227.0,0.75,115,117.0
2427,E-5,227.0,0.75,115,117.0
2428,F#2,227.5,0.5,55,117.0
2429,B1,227.75,0.25,125,117.0
2430,G#5,228.0,2.0,115,117.0
2431,E2,228.0,0.25,125,117.0
2432,F#2,228.0,0.5,95,117.0
2433,B1,228.0,167/1000,105,117.0
2434,G#3,228.0,4.0,105,117.0
2435,E-4,228.0,4.0,105,117.0
2436,C4,228.0,4.0,105,117.0
2437,G#4,228.0,4.0,105,117.0
2438,B1,228.25,0.25,125,117.0
2439,B1,228.25,167/1000,105,117.0
2440,C#2,228.5,0.25,105,117.0
2441,E-4,228.75,0.25,80,117.0
2442,B1,228.75,167/1000,105,117.0
2443,C4,229.0,0.25,80,117.0
2444,F#2,229.0,0.5,95,117.0
2445,E2,229.0,1.0,125,117.0
2446,E2,229.0,0.25,115,117.0
2447,E-4,229.5,0.25,80,117.0
2448,B1,229.5,0.25,125,117.0
2449,F#2,229.5,0.25,115,117.0
2450,G#5,230.0,0.75,115,117.0
2451,D4,230.0,0.25,80,117.0
2452,B1,230.0,1.0,125,117.0
2453,F#2,230.0,0.5,95,117.0
2454,G#2,230.0,0.75,115,117.0
2455,B-5,230.75,0.75,115,117.0
2456,E-4,230.75,0.25,80,117.0
2457,F#2,230.75,0.25,115,117.0
2458,D4,231.0,0.25,80,117.0
2459,F#2,231.0,0.5,95,117.0
2460,E2,231.0,1.0,125,117.0
2461,C6,231.5,0.5,115,117.0
2462,E-4,231.5,0.25,80,117.0
2463,F#1,231.5,0.25,115,117.0
2464,E-4,231.75,0.25,80,117.0
2465,F#1,231.75,0.25,115,117.0
2466,C#6,232.0,2.0,115,117.0
2467,C4,232.0,0.25,80,117.0
2468,F#2,232.0,0.5,95,117.0
2469,B1,232.0,1.0,125,117.0
2470,F#4,232.0,0.25,105,117.0
2471,B-3,232.0,4.0,105,117.0
2472,C#4,232.0,4.0,105,117.0
2473,G#3,232.0,4.0,105,117.0
2474,F4,232.0,4.0,105,117.0
2475,F#1,232.25,0.25,115,117.0
2476,F#4,232.25,0.25,105,117.0
2477,E4,232.5,0.25,105,117.0
2478,E-4,232.75,0.25,80,117.0
2479,F#4,232.75,0.25,105,117.0
2480,D4,233.0,0.25,80,117.0
2481,F#2,233.0,0.5,95,117.0
2482,E2,233.0,1.0,125,117.0
2483,F#1,233.0,0.5,115,117.0
2484,E4,233.25,0.25,105,117.0
2485,C4,233.75,0.25,80,117.0
2486,B1,233.75,0.25,125,117.0
2487,F#4,233.75,0.75,105,117.0
2488,G#5,234.0,0.75,115,117.0
2489,E-4,234.0,0.25,80,117.0
2490,B1,234.0,1.0,125,117.0
2491,F#2,234.0,0.5,95,117.0
2492,G#4,234.5,0.25,105,117.0
2493,F#5,234.75,0.75,115,117.0
2494,E-4,234.75,0.25,80,117.0
2495,D4,235.0,0.25,80,117.0
2496,F#2,235.0,0.5,95,117.0
2497,E2,235.0,1.0,125,117.0
2498,E-2,235.0,1.0,115,117.0
2499,E5,235.5,0.5,115,117.0
2500,E-4,235.5,0.25,80,117.0
2501,E-4,235.75,0.25,80,117.0
2502,C#5,236.0,2.0,115,117.0
2503,C4,236.0,0.25,80,117.0
2504,F#2,236.0,0.5,95,117.0
2505,B1,236.0,1.0,125,117.0
2506,C#2,236.0,0.5,115,117.0
2507,A3,236.0,4.0,105,117.0
2508,C#4,236.0,4.0,105,117.0
2509,G#4,236.0,4.0,105,117.0
2510,E4,236.0,4.0,105,117.0
2511,E-4,236.75,0.25,80,117.0
2512,F#1,236.75,0.25,115,117.0
2513,D4,237.0,0.25,80,117.0
2514,F#2,237.0,0.5,95,117.0
2515,E2,237.0,1.0,125,117.0
2516,B1,237.0,0.25,115,117.0
2517,E-4,237.5,0.25,80,117.0
2518,C#2,237.5,0.25,115,117.0
2519,B1,237.75,0.25,125,117.0
2520,C4,238.0,0.25,80,117.0
2521,B1,238.0,1.0,125,117.0
2522,F#2,238.0,0.5,95,117.0
2523,F#2,238.0,0.75,115,117.0
2524,G#4,238.0,0.25,105,117.0
2525,C#5,238.5,0.5,115,117.0
2526,F#4,238.5,0.25,105,117.0
2527,E-4,238.75,0.25,80,117.0
2528,E2,238.75,0.25,115,117.0
2529,E5,239.0,0.5,115,117.0
2530,D4,239.0,0.25,80,117.0
2531,F#2,239.0,0.5,95,117.0
2532,E2,239.0,1.0,125,117.0
2533,E4,239.0,0.5,105,117.0
2534,E-4,239.0,1.0,105,117.0
2535,B3,239.0,1.0,105,117.0
2536,F#4,239.0,1.0,105,117.0
2537,F#5,239.5,0.5,115,117.0
2538,E-4,239.5,0.25,80,117.0
2539,C#4,239.5,0.25,105,117.0
2540,E-4,239.75,0.25,80,117.0
2541,E-4,239.958,4.0,100,117.0
2542,B3,239.958,4.0,100,117.0
2543,F#3,239.958,4.0,100,117.0
2544,G#5,240.0,1.5,115,117.0
2545,F#2,240.0,0.5,95,117.0
2546,B1,240.0,1.0,125,117.0
2547,E4,240.0,0.75,105,117.0
2548,F#4,240.0,2.0,105,117.0
2549,B3,240.0,2.0,105,117.0
2550,E4,240.0,2.0,105,117.0
2551,E-4,240.25,0.25,80,117.0
2552,E-4,240.5,0.25,80,117.0
2553,B1,240.5,0.25,115,117.0
2554,C4,240.75,0.25,80,117.0
2555,C#4,240.75,0.25,105,117.0
2556,F#2,241.0,0.5,95,117.0
2557,E2,241.0,1.0,125,117.0
2558,B1,241.0,0.25,115,117.0
2559,C#2,241.25,0.25,115,117.0
2560,F#5,241.5,0.25,115,117.0
2561,E5,241.75,0.25,115,117.0
2562,B1,241.75,0.25,125,117.0
2563,C4,242.0,0.25,80,117.0
2564,B1,242.0,1.0,125,117.0
2565,F#2,242.0,0.5,95,117.0
2566,F#5,242.0,2.0,107,117.0
2567,C#4,242.0,2.0,107,117.0
2568,G#4,242.0,2.0,107,117.0
2569,B3,242.0,2.0,107,117.0
2570,E4,242.0,2.0,107,117.0
2571,D4,242.25,0.25,80,117.0
2572,C4,242.5,0.25,80,117.0
2573,E2,242.5,0.25,125,117.0
2574,D4,243.0,0.25,80,117.0
2575,F#2,243.0,0.5,110,117.0
2576,E2,243.0,0.5,110,117.0
2577,D4,243.25,0.25,80,117.0
2578,E2,243.25,0.75,125,117.0
2579,C4,243.5,0.25,80,117.0
2580,B1,243.75,0.25,125,117.0
2581,E4,243.958,2.0,100,117.0
2582,C#4,243.958,2.0,100,117.0
2583,G#5,244.0,2.0,115,117.0
2584,C4,244.0,0.25,80,117.0
2585,G3,244.0,0.25,115,117.0
2586,F#2,244.0,0.5,95,117.0
2587,B1,244.0,1.0,125,117.0
2588,B1,244.0,0.25,115,117.0
2589,G#3,244.0,4.0,105,117.0
2590,E-4,244.0,4.0,105,117.0
2591,C4,244.0,4.0,105,117.0
2592,G#4,244.0,4.0,105,117.0
2593,B1,244.25,0.25,115,117.0
2594,C#2,244.5,0.25,115,117.0
2595,B3,244.5,0.25,105,117.0
2596,E-4,244.75,0.25,80,117.0
2597,B1,244.75,0.25,115,117.0
2598,D4,245.0,0.25,80,117.0
2599,F#2,245.0,0.5,95,117.0
2600,E2,245.0,1.0,125,117.0
2601,E2,245.0,0.25,115,117.0
2602,C#4,245.0,0.25,105,117.0
2603,E-4,245.5,0.25,80,117.0
2604,F#2,245.5,0.25,115,117.0
2605,E4,245.5,0.25,105,117.0
2606,B1,245.75,0.25,125,117.0
2607,B3,245.958,2.0,100,117.0
2608,E-4,245.958,2.0,100,117.0
2609,G#5,246.0,0.75,115,117.0
2610,C4,246.0,0.25,80,117.0
2611,B1,246.0,1.0,125,117.0
2612,F#2,246.0,0.5,95,117.0
2613,G#2,246.0,0.75,115,117.0
2614,F#4,246.0,0.75,105,117.0
2615,B-5,246.75,0.75,115,117.0
2616,E-4,246.75,0.25,80,117.0
2617,F#2,246.75,0.25,115,117.0
2618,G#4,246.75,0.25,105,117.0
2619,D4,247.0,0.25,80,117.0
2620,F#2,247.0,0.5,95,117.0
2621,E2,247.0,1.0,125,117.0
2622,C6,247.5,0.5,115,117.0
2623,E-4,247.5,0.25,80,117.0
2624,F#1,247.5,0.25,115,117.0
2625,B3,247.5,0.5,105,117.0
2626,E-4,247.75,0.25,80,117.0
2627,F#1,247.75,0.25,115,117.0
2628,F#3,247.958,4.0,100,117.0
2629,B3,247.958,4.0,100,117.0
2630,E4,247.958,4.0,100,117.0
2631,E-6,248.0,2.0,115,117.0
2632,C4,248.0,0.25,80,117.0
2633,F#2,248.0,0.5,95,117.0
2634,B1,248.0,1.0,125,117.0
2635,B3,248.0,0.25,105,117.0
2636,B-3,248.0,4.0,105,117.0
2637,C#4,248.0,4.0,105,117.0
2638,G#3,248.0,4.0,105,117.0
2639,F4,248.0,4.0,105,117.0
2640,F#1,248.25,0.25,115,117.0
2641,C#4,248.5,0.25,105,117.0
2642,E-4,248.75,0.25,80,117.0
2643,D4,249.0,0.25,80,117.0
2644,F#2,249.0,0.5,95,117.0
2645,E2,249.0,1.0,125,117.0
2646,F#1,249.0,0.5,115,117.0
2647,E4,249.0,0.25,105,117.0
2648,F#4,249.5,0.25,105,117.0
2649,C4,249.75,0.25,80,117.0
2650,B1,249.75,0.25,125,117.0
2651,C#6,250.0,2.0,115,117.0
2652,E-4,250.0,0.25,80,117.0
2653,B1,250.0,1.0,125,117.0
2654,F#2,250.0,0.5,95,117.0
2655,G#4,250.0,0.75,105,117.0
2656,E-4,250.75,0.25,80,117.0
2657,B4,250.75,0.25,105,117.0
2658,D4,251.0,0.25,80,117.0
2659,F#2,251.0,0.5,95,117.0
2660,E2,251.0,1.0,125,117.0
2661,E-2,251.0,1.0,115,117.0
2662,E5,251.5,0.25,115,117.0
2663,E-4,251.5,0.25,80,117.0
2664,B4,251.5,0.5,105,117.0
2665,F#5,251.75,0.25,115,117.0
2666,E-4,251.75,0.25,80,117.0
2667,G#5,252.0,2.0,115,117.0
2668,C4,252.0,0.25,80,117.0
2669,F#2,252.0,0.5,95,117.0
2670,B1,252.0,1.0,125,117.0
2671,C#2,252.0,0.5,115,117.0
2672,B4,252.0,1.5,105,117.0
2673,A3,252.0,4.0,105,117.0
2674,C#4,252.0,4.0,105,117.0
2675,G#4,252.0,4.0,105,117.0
2676,E4,252.0,4.0,105,117.0
2677,E-4,252.75,0.25,80,117.0
2678,F#1,252.75,0.25,115,117.0
2679,D4,253.0,0.25,80,117.0
2680,F#2,253.0,0.5,95,117.0
2681,E2,253.0,1.0,125,117.0
2682,B1,253.0,0.25,115,117.0
2683,E-4,253.5,0.25,80,117.0
2684,C#2,253.5,0.25,115,117.0
2685,B4,253.5,0.25,105,117.0
2686,B1,253.75,0.25,125,117.0
2687,C4,254.0,0.25,80,117.0
2688,B1,254.0,1.0,125,117.0
2689,F#2,254.0,0.5,95,117.0
2690,F#2,254.0,0.75,115,117.0
2691,B4,254.0,0.25,105,117.0
2692,C#5,254.25,0.25,105,117.0
2693,C#5,254.5,0.5,115,117.0
2694,E-4,254.75,0.25,80,117.0
2695,E2,254.75,0.25,115,117.0
2696,E5,255.0,0.5,115,117.0
2697,D4,255.0,0.25,80,117.0
2698,F#2,255.0,0.5,95,117.0
2699,E2,255.0,1.0,125,117.0
2700,E-4,255.0,1.0,105,117.0
2701,B3,255.0,1.0,105,117.0
2702,F#4,255.0,1.0,105,117.0
2703,F#5,255.5,0.5,115,117.0
2704,E-4,255.5,0.25,80,117.0
2705,E-4,255.75,0.25,80,117.0
2706,G#5,256.0,1.5,115,117.0
2707,F#2,256.0,0.5,95,117.0
2708,B1,256.0,1.0,125,117.0
2709,G#4,256.0,0.25,105,117.0
2710,F#4,256.0,2.0,105,117.0
2711,B3,256.0,2.0,105,117.0
2712,E4,256.0,2.0,105,117.0
2713,E-4,256.25,0.25,80,117.0
2714,F#4,256.25,0.25,105,117.0
2715,E-4,256.5,0.25,80,117.0
2716,B1,256.5,0.25,115,117.0
2717,E4,256.5,0.25,105,117.0
2718,C4,256.75,0.25,80,117.0
2719,F#2,257.0,0.5,95,117.0
2720,E2,257.0,1.0,125,117.0
2721,B1,257.0,0.25,115,117.0
2722,G#4,257.0,0.25,105,117.0
2723,C#2,257.25,0.25,115,117.0
2724,F#5,257.5,0.25,115,117.0
2725,E4,257.5,0.25,105,117.0
2726,E5,257.75,0.25,115,117.0
2727,B1,257.75,0.25,125,117.0
2728,C#4,257.75,1.25,105,117.0
2729,C4,258.0,0.25,80,117.0
2730,B1,258.0,1.0,125,117.0
2731,F#2,258.0,0.5,95,117.0
2732,F#5,258.0,2.0,107,117.0
2733,C#4,258.0,2.0,107,117.0
2734,G#4,258.0,2.0,107,117.0
2735,B3,258.0,2.0,107,117.0
2736,E4,258.0,2.0,107,117.0
2737,D4,258.25,0.25,80,117.0
2738,C4,258.5,0.25,80,117.0
2739,B4,258.958,0.75,100,117.0
2740,E-5,258.958,0.75,100,117.0
2741,D4,259.0,0.25,80,117.0
2742,F#2,259.0,0.5,110,117.0
2743,E2,259.0,0.5,110,117.0
2744,D4,259.25,0.25,80,117.0
2745,E2,259.25,0.75,115,117.0
2746,C4,259.5,0.25,80,117.0
2747,B4,259.708,0.25,100,117.0
2748,E-5,259.708,0.25,100,117.0
2749,E2,259.75,0.25,115,117.0
2750,C4,260.0,0.25,80,117.0
2751,B1,260.0,1.0,125,117.0
2752,F#1,260.0,1.0,115,117.0
2753,E5,260.0,4.0,105,117.0
2754,C#4,260.0,4.0,105,117.0
2755,E4,260.0,4.0,105,117.0
2756,B3,260.0,4.0,105,117.0
2757,G#4,260.0,4.0,105,117.0
2758,B4,260.0,4.0,105,117.0
2759,G3,260.0,0.5,105,117.0
2760,F#2,260.0,0.5,105,117.0
2761,A4,260.5,0.25,40,117.0
2762,C#4,260.5,0.25,105,117.0
2763,E-4,260.75,0.25,60,117.0
2764,A4,260.75,0.25,60,117.0
2765,G#4,260.958,0.75,100,117.0
2766,C#5,260.958,0.75,100,117.0
2767,E4,260.958,0.75,100,117.0
2768,E2,261.0,1.0,125,117.0
2769,E4,261.0,0.25,105,117.0
2770,C4,261.0,0.25,60,117.0
2771,B-4,261.0,0.25,60,117.0
2772,E-3,261.0,0.5,100,117.0
2773,F#2,261.0,0.5,100,117.0
2774,E-4,261.5,0.25,60,117.0
2775,A4,261.5,0.25,60,117.0
2776,C#5,261.708,0.25,100,117.0
2777,E4,261.708,0.25,100,117.0
2778,G#4,261.708,0.25,100,117.0
2779,B1,261.75,0.25,125,117.0
2780,F#1,261.75,0.25,115,117.0
2781,E4,261.75,0.75,105,117.0
2782,E-4,261.75,0.25,60,117.0
2783,A4,261.75,0.25,60,117.0
2784,B1,262.0,1.0,125,117.0
2785,F#1,262.0,1.0,115,117.0
2786,C4,262.0,0.25,60,117.0
2787,B-4,262.0,0.25,60,117.0
2788,E-3,262.0,0.5,100,117.0
2789,F#2,262.0,0.5,100,117.0
2790,C#4,262.5,0.25,105,117.0
2791,E-4,262.75,0.25,80,117.0
2792,E2,263.0,1.0,125,117.0
2793,D4,263.0,0.25,60,117.0
2794,A4,263.0,0.25,60,117.0
2795,E-3,263.0,0.5,100,117.0
2796,F#2,263.0,0.5,100,117.0
2797,A4,263.25,0.25,40,117.0
2798,E-4,263.5,0.25,80,117.0
2799,E4,263.5,0.25,105,117.0
2800,E-4,263.75,0.25,80,117.0
2801,E4,263.958,4.0,100,117.0
2802,G#4,263.958,4.0,100,117.0
2803,B3,263.958,4.0,100,117.0
2804,C4,264.0,0.25,80,117.0
2805,B1,264.0,1.0,125,117.0
2806,G#1,264.0,1.0,115,117.0
2807,F#4,264.0,0.25,105,117.0
2808,E-3,264.0,0.5,100,117.0
2809,F#2,264.0,0.5,100,117.0
2810,A4,264.5,0.25,40,117.0
2811,F#4,264.75,0.75,105,117.0
2812,E-4,264.75,0.25,60,117.0
2813,A4,264.75,0.25,60,117.0
2814,E2,265.0,1.0,125,117.0
2815,D4,265.0,0.25,60,117.0
2816,B-4,265.0,0.25,60,117.0
2817,E-3,265.0,0.5,100,117.0
2818,F#2,265.0,0.5,100,117.0
2819,E4,265.5,0.25,105,117.0
2820,E-4,265.5,0.25,60,117.0
2821,A4,265.5,0.25,60,117.0
2822,B1,265.75,0.25,125,117.0
2823,G#1,265.75,0.25,115,117.0
2824,C4,265.75,0.25,60,117.0
2825,A4,265.75,0.25,60,117.0
2826,B-4,266.0,0.25,40,117.0
2827,B1,266.0,1.0,125,117.0
2828,G#1,266.0,1.0,115,117.0
2829,E-3,266.0,0.5,100,117.0
2830,F#2,266.0,0.5,100,117.0
2831,E-4,266.75,0.25,80,117.0
2832,E2,267.0,1.0,125,117.0
2833,E-4,267.0,0.25,60,117.0
2834,A4,267.0,0.25,60,117.0
2835,E-3,267.0,0.5,100,117.0
2836,F#2,267.0,0.5,100,117.0
2837,C4,267.25,0.25,60,117.0
2838,A4,267.25,0.25,60,117.0
2839,E4,267.5,0.25,105,117.0
2840,E-4,267.75,0.25,80,117.0
2841,G#3,267.958,4.0,100,117.0
2842,G#4,267.958,4.0,100,117.0
2843,E4,267.958,4.0,100,117.0
2844,C4,268.0,0.25,80,117.0
2845,B1,268.0,1.0,125,117.0
2846,A1,268.0,1.0,115,117.0
2847,F#4,268.0,1.5,105,117.0
2848,E5,268.0,4.0,105,117.0
2849,C#4,268.0,4.0,105,117.0
2850,E4,268.0,4.0,105,117.0
2851,B3,268.0,4.0,105,117.0
2852,G#4,268.0,4.0,105,117.0
2853,B4,268.0,4.0,105,117.0
2854,E-3,268.0,0.5,100,117.0
2855,F#2,268.0,0.5,100,117.0
2856,A4,268.5,0.25,40,117.0
2857,E-4,268.75,0.25,60,117.0
2858,A4,268.75,0.25,60,117.0
2859,E2,269.0,1.0,125,117.0
2860,D4,269.0,0.25,60,117.0
2861,B-4,269.0,0.25,60,117.0
2862,E-3,269.0,0.5,100,117.0
2863,F#2,269.0,0.5,100,117.0
2864,A4,269.5,0.25,105,117.0
2865,E-4,269.5,0.25,60,117.0
2866,A4,269.5,0.25,60,117.0
2867,A4,269.75,0.25,40,117.0
2868,B1,269.75,0.25,125,117.0
2869,A1,269.75,0.25,115,117.0
2870,B4,269.75,0.25,105,117.0
2871,F#4,269.958,1.0,100,117.0
2872,B1,270.0,1.0,125,117.0
2873,A1,270.0,1.0,115,117.0
2874,G#4,270.0,0.75,105,117.0
2875,C4,270.0,0.25,60,117.0
2876,B-4,270.0,0.25,60,117.0
2877,E-3,270.0,0.5,100,117.0
2878,F#2,270.0,0.5,100,117.0
2879,E-4,270.75,0.25,80,117.0
2880,F#4,270.75,0.75,105,117.0
2881,E4,270.958,1.0,100,117.0
2882,E2,271.0,1.0,125,117.0
2883,D4,271.0,0.25,60,117.0
2884,A4,271.0,0.25,60,117.0
2885,E-3,271.0,0.5,100,117.0
2886,F#2,271.0,0.5,100,117.0
2887,A4,271.25,0.25,40,117.0
2888,E-4,271.5,0.25,80,117.0
2889,E4,271.5,0.5,105,117.0
2890,E-4,271.75,0.25,80,117.0
2891,E4,271.958,4.0,100,117.0
2892,B3,271.958,4.0,100,117.0
2893,G#4,271.958,4.0,100,117.0
2894,B1,272.0,1.0,125,117.0
2895,B1,272.0,1.0,115,117.0
2896,B4,272.0,1.0,105,117.0
2897,B4,272.0,4.0,105,117.0
2898,G#3,272.0,4.0,105,117.0
2899,E4,272.0,4.0,105,117.0
2900,C#4,272.0,4.0,105,117.0
2901,G#4,272.0,4.0,105,117.0
2902,E-3,272.0,0.5,100,117.0
2903,F#2,272.0,0.5,100,117.0
2904,E-4,272.25,0.25,80,117.0
2905,E-4,272.5,0.25,60,117.0
2906,A4,272.5,0.25,60,117.0
2907,C4,272.75,0.25,60,117.0
2908,A4,272.75,0.25,60,117.0
2909,B-4,273.0,0.25,40,117.0
2910,E2,273.0,1.0,125,117.0
2911,B4,273.0,3.0,105,117.0
2912,E-3,273.0,0.5,100,117.0
2913,F#2,273.0,0.5,100,117.0
2914,A4,273.5,0.25,40,117.0
2915,A4,273.75,0.25,40,117.0
2916,B1,273.75,0.25,125,117.0
2917,B1,273.75,0.25,115,117.0
2918,B1,274.0,1.0,125,117.0
2919,C2,274.0,1.0,115,117.0
2920,C4,274.0,0.25,60,117.0
2921,B-4,274.0,0.25,60,117.0
2922,E-3,274.0,0.5,100,117.0
2923,F#2,274.0,0.5,100,117.0
2924,D4,274.25,0.25,80,117.0
2925,C4,274.5,0.25,80,117.0
2926,E2,274.5,0.25,125,117.0
2927,E2,275.0,0.25,125,117.0
2928,D4,275.0,0.25,60,117.0
2929,A4,275.0,0.25,60,117.0
2930,E-3,275.0,0.5,100,117.0
2931,F#2,275.0,0.5,100,117.0
2932,E2,275.25,0.25,125,117.0
2933,D4,275.25,0.25,60,117.0
2934,A4,275.25,0.25,60,117.0
2935,C4,275.5,0.25,80,117.0
2936,E2,275.5,0.25,125,117.0
2937,B-2,275.75,0.25,115,117.0
2938,B1,275.75,0.25,115,117.0
2939,G#4,275.958,2.0,100,117.0
2940,E4,275.958,2.0,100,117.0
2941,B4,275.958,2.0,100,117.0
2942,C4,276.0,0.25,80,117.0
2943,G#3,276.0,1.0,70,117.0
2944,F#2,276.0,0.5,95,117.0
2945,E-3,276.0,1.0,95,117.0
2946,F#2,276.5,0.5,55,117.0
2947,E-4,276.75,0.25,80,117.0
2948,D4,277.0,0.25,80,117.0
2949,G#3,277.0,1.0,70,117.0
2950,F#2,277.0,0.5,95,117.0
2951,C#2,277.0,0.25,115,117.0
2952,G3,277.0,1.0,110,117.0
2953,E2,277.0,1.0,110,117.0
2954,B1,277.5,0.25,125,117.0
2955,F#2,277.5,0.5,55,117.0
2956,C#2,277.5,0.25,115,117.0
2957,E-4,277.75,0.25,80,117.0
2958,C4,278.0,0.25,80,117.0
2959,G#3,278.0,1.0,70,117.0
2960,F#2,278.0,0.5,95,117.0
2961,G#1,278.0,1.0,115,117.0
2962,B1,278.0,1.0,110,117.0
2963,E-3,278.0,1.0,110,117.0
2964,F#2,278.5,0.5,55,117.0
2965,D4,278.75,0.25,80,117.0
2966,D4,279.0,0.25,80,117.0
2967,G#3,279.0,1.0,70,117.0
2968,F#2,279.0,0.5,95,117.0
2969,B1,279.0,0.75,115,117.0
2970,E2,279.0,1.0,110,117.0
2971,E-3,279.0,1.0,110,117.0
2972,E-4,279.5,0.25,80,117.0
2973,F#2,279.5,0.5,55,117.0
2974,F#4,279.708,167/1000,100,117.0
2975,C#2,279.75,0.25,115,117.0
2976,C4,280.0,0.25,80,117.0
2977,G#3,280.0,1.0,70,117.0
2978,F#2,280.0,0.5,95,117.0
2979,B4,280.0,1.75,105,117.0
2980,G#3,280.0,1.75,105,117.0
2981,E4,280.0,1.75,105,117.0
2982,C#4,280.0,4.0,105,117.0
2983,G#4,280.0,4.0,105,117.0
2984,B1,280.0,1.0,110,117.0
2985,E-3,280.0,1.0,110,117.0
2986,E4,280.208,167/1000,100,117.0
2987,C#4,280.458,167/1000,100,117.0
2988,F#2,280.5,0.5,55,117.0
2989,B3,280.708,167/1000,100,117.0
2990,D4,280.75,0.25,80,117.0
2991,E4,280.958,167/1000,100,117.0
2992,C4,281.0,0.25,80,117.0
2993,G#3,281.0,1.0,70,117.0
2994,F#2,281.0,0.5,95,117.0
2995,C#2,281.0,0.25,115,117.0
2996,E2,281.0,1.0,110,117.0
2997,E-3,281.0,1.0,110,117.0
2998,E4,281.208,167/1000,100,117.0
2999,E-5,281.5,0.25,105,117.0
3000,E-4,281.5,0.25,80,117.0
3001,B1,281.5,0.25,125,117.0
3002,F#2,281.5,0.5,55,117.0
3003,C#2,281.5,0.25,115,117.0
3004,E4,281.5,1.25,105,117.0
3005,B4,281.5,1.25,105,117.0
3006,G#3,281.5,1.25,105,117.0
3007,C4,282.0,0.25,80,117.0
3008,G#3,282.0,1.0,70,117.0
3009,F#2,282.0,0.5,95,117.0
3010,B1,282.0,1.0,115,117.0
3011,B1,282.0,1.0,110,117.0
3012,E-3,282.0,1.0,110,117.0
3013,B3,282.458,167/1000,100,117.0
3014,E-5,282.5,0.25,105,117.0
3015,F#2,282.5,0.5,55,117.0
3016,E4,282.5,1.5,105,117.0
3017,G#3,282.5,1.5,105,117.0
3018,B4,282.5,1.5,105,117.0
3019,B3,282.708,167/1000,100,117.0
3020,D4,282.75,0.25,80,117.0
3021,D4,283.0,0.25,80,117.0
3022,G#3,283.0,1.0,70,117.0
3023,F#2,283.0,0.5,95,117.0
3024,E2,283.0,0.75,115,117.0
3025,E2,283.0,1.0,110,117.0
3026,E-3,283.0,1.0,110,117.0
3027,B3,283.208,167/1000,100,117.0
3028,G#3,283.25,0.75,105,117.0
3029,E4,283.25,0.75,105,117.0
3030,B4,283.25,0.75,105,117.0
3031,E-5,283.25,0.75,105,117.0
3032,E-4,283.5,0.25,80,117.0
3033,F#2,283.5,0.5,55,117.0
3034,G#4,283.708,167/1000,100,117.0
3035,E-4,283.75,0.25,80,117.0
3036,A1,283.75,0.25,115,117.0
3037,C4,284.0,0.25,80,117.0
3038,G#3,284.0,1.0,70,117.0
3039,F#2,284.0,0.5,95,117.0
3040,E4,284.0,4.0,105,117.0
3041,B4,284.0,4.0,105,117.0
3042,C#5,284.0,4.0,105,117.0
3043,B3,284.0,4.0,105,117.0
3044,G#4,284.0,4.0,105,117.0
3045,B1,284.0,1.0,110,117.0
3046,E-3,284.0,1.0,110,117.0
3047,E4,284.208,167/1000,100,117.0
3048,C#4,284.458,167/1000,100,117.0
3049,F#2,284.5,0.5,55,117.0
3050,B3,284.708,167/1000,100,117.0
3051,E-4,284.75,0.25,80,117.0
3052,E4,284.958,167/1000,100,117.0
3053,C4,285.0,0.25,80,117.0
3054,G#3,285.0,1.0,70,117.0
3055,F#2,285.0,0.5,95,117.0
3056,A1,285.0,0.25,115,117.0
3057,E2,285.0,1.0,110,117.0
3058,E-3,285.0,1.0,110,117.0
3059,E4,285.208,167/1000,100,117.0
3060,E-4,285.5,0.25,80,117.0
3061,B1,285.5,0.25,125,117.0
3062,F#2,285.5,0.5,55,117.0
3063,A1,285.5,0.25,115,117.0
3064,D4,286.0,0.25,80,117.0
3065,G#3,286.0,1.0,70,117.0
3066,F#2,286.0,0.5,95,117.0
3067,G#1,286.0,1.0,115,117.0
3068,B1,286.0,1.0,110,117.0
3069,E-3,286.0,1.0,110,117.0
3070,B3,286.458,167/1000,100,117.0
3071,F#2,286.5,0.5,55,117.0
3072,B3,286.708,167/1000,100,117.0
3073,D4,286.75,0.25,80,117.0
3074,D4,287.0,0.25,80,117.0
3075,G#3,287.0,1.0,70,117.0
3076,F#2,287.0,0.5,95,117.0
3077,C#2,287.0,1.0,115,117.0
3078,E2,287.0,1.0,110,117.0
3079,E-3,287.0,1.0,110,117.0
3080,B3,287.208,167/1000,100,117.0
3081,E-4,287.5,0.25,80,117.0
3082,F#2,287.5,0.5,55,117.0
3083,G#4,287.708,167/1000,100,117.0
3084,E-4,287.75,0.25,80,117.0
3085,D4,288.0,0.25,80,117.0
3086,G#3,288.0,1.0,70,117.0
3087,F#2,288.0,0.5,95,117.0
3088,F#1,288.0,1.0,115,117.0
3089,B1,288.0,1.0,110,117.0
3090,E-3,288.0,1.0,110,117.0
3091,E4,288.208,167/1000,100,117.0
3092,C#4,288.458,167/1000,100,117.0
3093,F#2,288.5,0.5,55,117.0
3094,B3,288.708,167/1000,100,117.0
3095,D4,288.75,0.25,80,117.0
3096,E4,288.958,167/1000,100,117.0
3097,D4,289.0,0.25,80,117.0
3098,G#3,289.0,1.0,70,117.0
3099,F#2,289.0,0.5,95,117.0
3100,G#1,289.0,0.25,115,117.0
3101,E2,289.0,1.0,110,117.0
3102,E-3,289.0,1.0,110,117.0
3103,E4,289.208,167/1000,100,117.0
3104,B1,289.5,0.25,125,117.0
3105,F#2,289.5,0.5,55,117.0
3106,A1,289.5,0.25,115,117.0
3107,E-4,289.75,0.25,80,117.0
3108,E-4,290.0,0.25,80,117.0
3109,G#3,290.0,1.0,70,117.0
3110,F#2,290.0,0.5,95,117.0
3111,B1,290.0,1.0,115,117.0
3112,B1,290.0,1.0,110,117.0
3113,E-3,290.0,1.0,110,117.0
3114,D4,290.25,0.25,80,117.0
3115,B3,290.458,167/1000,100,117.0
3116,F#2,290.5,0.5,55,117.0
3117,B3,290.708,167/1000,100,117.0
3118,D4,290.75,0.25,60,117.0
3119,D4,291.0,0.25,80,117.0
3120,G#3,291.0,1.0,70,117.0
3121,F#2,291.0,0.5,95,117.0
3122,C2,291.0,0.75,115,117.0
3123,E2,291.0,1.0,110,117.0
3124,E-3,291.0,1.0,110,117.0
3125,B3,291.208,167/1000,100,117.0
3126,D4,291.5,0.25,60,117.0
3127,F#2,291.5,0.5,55,117.0
3128,D4,291.75,0.25,80,117.0
3129,C#2,291.75,0.25,115,117.0
3130,B-2,291.75,0.25,110,117.0
3131,B1,291.75,0.25,110,117.0
3132,A4,291.958,1.0,100,117.0
3133,G#3,292.0,1.0,70,117.0
3134,F#2,292.0,0.25,95,117.0
3135,E-3,292.0,1.0,95,117.0
3136,E4,292.0,4.0,105,117.0
3137,B4,292.0,4.0,105,117.0
3138,C#5,292.0,4.0,105,117.0
3139,B3,292.0,4.0,105,117.0
3140,G#4,292.0,4.0,105,117.0
3141,F#2,292.5,0.5,55,117.0
3142,D4,292.75,0.25,80,117.0
3143,E4,292.958,0.25,100,117.0
3144,G#4,292.958,0.25,100,117.0
3145,C4,293.0,0.25,80,117.0
3146,G#3,293.0,1.0,70,117.0
3147,F#2,293.0,0.5,95,117.0
3148,C#2,293.0,0.25,115,117.0
3149,E2,293.0,1.0,110,117.0
3150,E-3,293.0,1.0,110,117.0
3151,C#4,293.458,0.25,100,117.0
3152,F#4,293.458,0.25,100,117.0
3153,E-4,293.5,0.25,80,117.0
3154,B1,293.5,0.25,125,117.0
3155,F#2,293.5,0.5,55,117.0
3156,C#2,293.5,0.25,115,117.0
3157,B3,293.958,0.25,100,117.0
3158,E4,293.958,0.25,100,117.0
3159,C4,294.0,0.25,80,117.0
3160,G#3,294.0,1.0,70,117.0
3161,F#2,294.0,0.5,95,117.0
3162,G#1,294.0,1.0,115,117.0
3163,B1,294.0,1.0,110,117.0
3164,E-3,294.0,1.0,110,117.0
3165,F#2,294.5,0.5,55,117.0
3166,D4,294.75,0.25,80,117.0
3167,C4,294.958,0.75,100,117.0
3168,E-4,294.958,0.75,100,117.0
3169,D4,295.0,0.25,80,117.0
3170,G#3,295.0,1.0,70,117.0
3171,F#2,295.0,0.5,95,117.0
3172,B1,295.0,0.75,115,117.0
3173,E2,295.0,1.0,110,117.0
3174,E-3,295.0,1.0,110,117.0
3175,E-4,295.5,0.25,80,117.0
3176,F#2,295.5,0.5,55,117.0
3177,G#4,295.708,0.25,100,117.0
3178,B1,295.75,0.25,105,117.0
3179,C#2,295.75,0.25,115,117.0
3180,C4,296.0,0.25,80,117.0
3181,G#3,296.0,1.0,70,117.0
3182,F#2,296.0,0.5,95,117.0
3183,E-3,296.0,1.0,95,117.0
3184,E4,296.208,167/1000,100,117.0
3185,C#4,296.458,167/1000,100,117.0
3186,F#2,296.5,0.5,55,117.0
3187,G#5,296.5,0.25,105,117.0
3188,B4,296.5,0.25,105,117.0
3189,E4,296.5,0.25,105,117.0
3190,E-6,296.5,0.25,105,117.0
3191,E-5,296.5,0.25,105,117.0
3192,B3,296.708,167/1000,100,117.0
3193,E-4,296.75,0.25,80,117.0
3194,E4,296.958,167/1000,100,117.0
3195,C4,297.0,0.25,80,117.0
3196,G#3,297.0,1.0,70,117.0
3197,F#2,297.0,0.5,95,117.0
3198,C#2,297.0,0.25,115,117.0
3199,E2,297.0,1.0,110,117.0
3200,E-3,297.0,1.0,110,117.0
3201,E4,297.208,167/1000,100,117.0
3202,F#5,297.25,0.25,105,117.0
3203,G#4,297.25,0.25,105,117.0
3204,C#5,297.25,0.25,105,117.0
3205,E4,297.25,0.25,105,117.0
3206,C#6,297.25,0.25,105,117.0
3207,E-4,297.5,0.25,80,117.0
3208,B1,297.5,0.25,125,117.0
3209,F#2,297.5,0.5,55,117.0
3210,C#2,297.5,0.25,115,117.0
3211,C4,298.0,0.25,80,117.0
3212,G#3,298.0,1.0,70,117.0
3213,F#2,298.0,0.5,95,117.0
3214,B1,298.0,1.0,115,117.0
3215,E5,298.0,2.0,105,117.0
3216,B4,298.0,2.0,105,117.0
3217,E4,298.0,2.0,105,117.0
3218,B3,298.0,2.0,105,117.0
3219,G#4,298.0,2.0,105,117.0
3220,C#6,298.0,2.0,105,117.0
3221,B1,298.0,1.0,110,117.0
3222,E-3,298.0,1.0,110,117.0
3223,B3,298.458,167/1000,100,117.0
3224,F#2,298.5,0.5,55,117.0
3225,B3,298.708,167/1000,100,117.0
3226,D4,298.75,0.25,80,117.0
3227,D4,299.0,0.25,80,117.0
3228,G#3,299.0,1.0,70,117.0
3229,F#2,299.0,0.5,95,117.0
3230,E2,299.0,0.75,115,117.0
3231,E2,299.0,1.0,110,117.0
3232,E-3,299.0,1.0,110,117.0
3233,B3,299.208,167/1000,100,117.0
3234,E-4,299.5,0.25,80,117.0
3235,F#2,299.5,0.5,55,117.0
3236,G#4,299.708,167/1000,100,117.0
3237,B1,299.75,0.25,125,117.0
3238,A1,299.75,0.25,115,117.0
3239,G#3,300.0,1.0,70,117.0
3240,F#2,300.0,0.5,95,117.0
3241,E-3,300.0,1.0,95,117.0
3242,E5,300.0,4.0,105,117.0
3243,B4,300.0,4.0,105,117.0
3244,E4,300.0,4.0,105,117.0
3245,B3,300.0,4.0,105,117.0
3246,G#4,300.0,4.0,105,117.0
3247,C#6,300.0,4.0,105,117.0
3248,E4,300.208,167/1000,100,117.0
3249,D4,300.25,0.125,80,117.0
3250,D4,300.375,0.125,80,117.0
3251,C#4,300.458,167/1000,100,117.0
3252,D4,300.5,0.125,80,117.0
3253,F#2,300.5,0.5,55,117.0
3254,B3,300.708,167/1000,100,117.0
3255,D4,300.75,0.125,80,117.0
3256,E4,300.958,167/1000,100,117.0
3257,E-4,301.0,0.125,80,117.0
3258,G#3,301.0,1.0,70,117.0
3259,F#2,301.0,0.5,95,117.0
3260,A1,301.0,0.25,115,117.0
3261,E2,301.0,1.0,110,117.0
3262,E-3,301.0,1.0,110,117.0
3263,E4,301.208,167/1000,100,117.0
3264,E-4,301.5,0.25,80,117.0
3265,B1,301.5,0.25,125,117.0
3266,F#2,301.5,0.5,55,117.0
3267,A1,301.5,0.25,115,117.0
3268,C4,302.0,0.25,80,117.0
3269,G#3,302.0,1.0,70,117.0
3270,F#2,302.0,0.5,95,117.0
3271,G#1,302.0,1.0,115,117.0
3272,B1,302.0,1.0,110,117.0
3273,E-3,302.0,1.0,110,117.0
3274,B3,302.458,167/1000,100,117.0
3275,F#2,302.5,0.5,55,117.0
3276,B3,302.708,167/1000,100,117.0
3277,E-4,302.75,0.25,80,117.0
3278,C4,303.0,0.25,80,117.0
3279,G#3,303.0,1.0,70,117.0
3280,F#2,303.0,0.5,95,117.0
3281,C#2,303.0,1.0,115,117.0
3282,E2,303.0,1.0,110,117.0
3283,E-3,303.0,1.0,110,117.0
3284,B3,303.208,167/1000,100,117.0
3285,E-4,303.5,0.25,80,117.0
3286,F#2,303.5,0.5,55,117.0
3287,G#4,303.708,167/1000,100,117.0
3288,E-4,303.75,0.25,80,117.0
3289,C4,304.0,0.25,80,117.0
3290,G#3,304.0,1.0,70,117.0
3291,F#2,304.0,0.5,95,117.0
3292,F#1,304.0,1.0,115,117.0
3293,B4,304.0,2.75,105,117.0
3294,G#4,304.0,2.75,105,117.0
3295,E4,304.0,2.75,105,117.0
3296,C#5,304.0,4.0,105,117.0
3297,B3,304.0,4.0,105,117.0
3298,B1,304.0,1.0,110,117.0
3299,E-3,304.0,1.0,110,117.0
3300,E4,304.208,167/1000,100,117.0
3301,C#4,304.458,167/1000,100,117.0
3302,F#2,304.5,0.5,55,117.0
3303,B3,304.708,167/1000,100,117.0
3304,D4,304.75,0.25,80,117.0
3305,E4,304.958,167/1000,100,117.0
3306,D4,305.0,0.25,80,117.0
3307,G#3,305.0,1.0,70,117.0
3308,F#2,305.0,0.5,95,117.0
3309,G#1,305.0,0.25,115,117.0
3310,E2,305.0,1.0,110,117.0
3311,E-3,305.0,1.0,110,117.0
3312,E4,305.208,167/1000,100,117.0
3313,B1,305.5,0.25,125,117.0
3314,F#2,305.5,0.5,55,117.0
3315,A1,305.5,0.25,115,117.0
3316,E-4,305.75,0.25,80,117.0
3317,E-4,306.0,0.25,80,117.0
3318,G#3,306.0,1.0,70,117.0
3319,F#2,306.0,0.5,95,117.0
3320,B1,306.0,1.0,115,117.0
3321,B1,306.0,1.0,110,117.0
3322,E-3,306.0,1.0,110,117.0
3323,D4,306.25,0.25,80,117.0
3324,B3,306.458,167/1000,100,117.0
3325,F#2,306.5,0.5,55,117.0
3326,B4,306.5,1.5,105,117.0
3327,G#4,306.5,1.5,105,117.0
3328,E4,306.5,1.5,105,117.0
3329,E5,306.5,0.25,105,117.0
3330,A3,306.5,0.25,105,117.0
3331,B3,306.708,167/1000,100,117.0
3332,D4,306.75,0.25,60,117.0
3333,D4,307.0,0.25,80,117.0
3334,G#3,307.0,1.0,70,117.0
3335,F#2,307.0,0.5,95,117.0
3336,C2,307.0,1.0,115,117.0
3337,E2,307.0,1.0,110,117.0
3338,E-3,307.0,1.0,110,117.0
3339,B3,307.208,167/1000,100,117.0
3340,B4,307.25,0.75,105,117.0
3341,E4,307.25,0.75,105,117.0
3342,G#4,307.25,0.75,105,117.0
3343,C#5,307.25,0.75,105,117.0
3344,D4,307.5,0.25,60,117.0
3345,F#2,307.5,0.5,55,117.0
3346,D4,307.75,0.25,80,117.0
3347,G3,307.75,0.25,110,117.0
3348,B1,307.75,0.25,110,117.0
3349,A4,307.958,1.0,100,117.0
3350,C#3,308.0,0.25,125,117.0
3351,F#2,308.0,0.5,95,117.0
3352,B1,308.0,1.0,125,117.0
3353,F1,308.0,1.5,115,117.0
3354,G#4,308.0,4.0,105,117.0
3355,B3,308.0,4.0,105,117.0
3356,F#4,308.0,4.0,105,117.0
3357,E4,308.0,4.0,105,117.0
3358,F#2,308.5,0.5,55,117.0
3359,E4,308.958,0.25,100,117.0
3360,G#4,308.958,0.25,100,117.0
3361,F#2,309.0,0.5,95,117.0
3362,E-3,309.0,1.0,115,117.0
3363,E2,309.0,1.0,115,117.0
3364,C#4,309.458,0.25,100,117.0
3365,F#4,309.458,0.25,100,117.0
3366,F#2,309.5,0.5,55,117.0
3367,B1,309.75,0.25,125,117.0
3368,F1,309.75,0.25,115,117.0
3369,B3,309.958,0.25,100,117.0
3370,E4,309.958,0.25,100,117.0
3371,F#2,310.0,0.5,95,117.0
3372,F1,310.0,1.5,115,117.0
3373,E-3,310.0,1.0,115,117.0
3374,B1,310.0,1.0,115,117.0
3375,F#2,310.5,0.5,55,117.0
3376,C4,310.958,0.75,100,117.0
3377,E-4,310.958,0.75,100,117.0
3378,F#2,311.0,0.5,95,117.0
3379,E-3,311.0,1.0,115,117.0
3380,E2,311.0,1.0,115,117.0
3381,F#2,311.5,0.5,55,117.0
3382,F#2,312.0,0.5,95,117.0
3383,B-1,312.0,1.5,115,117.0
3384,C#4,312.0,4.0,105,117.0
3385,E4,312.0,4.0,105,117.0
3386,G#4,312.0,4.0,105,117.0
3387,B3,312.0,4.0,105,117.0
3388,E-3,312.0,1.0,115,117.0
3389,B1,312.0,1.0,115,117.0
3390,F#2,312.5,0.5,55,117.0
3391,F#2,313.0,0.5,95,117.0
3392,E-3,313.0,1.0,115,117.0
3393,E2,313.0,1.0,115,117.0
3394,F#2,313.5,0.5,55,117.0
3395,B1,313.75,0.25,125,117.0
3396,B-1,313.75,0.25,115,117.0
3397,F#2,314.0,0.5,95,117.0
3398,B-1,314.0,1.5,115,117.0
3399,E-3,314.0,1.0,115,117.0
3400,B1,314.0,1.0,115,117.0
3401,F#2,314.5,0.5,55,117.0
3402,F#2,315.0,0.5,95,117.0
3403,E-3,315.0,1.0,115,117.0
3404,E2,315.0,1.0,115,117.0
3405,F#2,315.5,0.5,55,117.0
3406,B-3,315.958,4.0,100,117.0
3407,G#3,315.958,4.0,100,117.0
3408,C#4,315.958,4.0,100,117.0
3409,F#2,316.0,0.5,95,117.0
3410,A1,316.0,1.5,115,117.0
3411,A3,316.0,2.0,105,117.0
3412,F#3,316.0,2.0,105,117.0
3413,C#4,316.0,2.0,105,117.0
3414,E4,316.0,2.0,105,117.0
3415,E-3,316.0,1.0,115,117.0
3416,B1,316.0,1.0,115,117.0
3417,F#2,316.5,0.5,55,117.0
3418,F#2,317.0,0.5,95,117.0
3419,E-3,317.0,1.0,115,117.0
3420,E2,317.0,1.0,115,117.0
3421,F#2,317.5,0.5,55,117.0
3422,B1,317.75,0.25,125,117.0
3423,A1,317.75,0.25,115,117.0
3424,F#2,318.0,0.5,95,117.0
3425,A1,318.0,1.0,115,117.0
3426,G#4,318.0,2.0,105,117.0
3427,G#3,318.0,2.0,105,117.0
3428,C4,318.0,2.0,105,117.0
3429,E4,318.0,2.0,105,117.0
3430,E-3,318.0,1.0,115,117.0
3431,B1,318.0,1.0,115,117.0
3432,F#2,318.5,0.5,55,117.0
3433,F#2,319.0,0.5,95,117.0
3434,G#1,319.0,1.0,115,117.0
3435,E-3,319.0,1.0,115,117.0
3436,E2,319.0,1.0,115,117.0
3437,F#2,319.5,0.5,55,117.0
3438,A4,319.958,1.0,100,117.0
3439,C#5,319.958,1.0,100,117.0
3440,F#2,320.0,0.5,95,117.0
3441,F#1,320.0,1.5,115,117.0
3442,E-3,320.0,1.0,115,117.0
3443,B1,320.0,1.0,115,117.0
3444,F#2,320.5,0.5,55,117.0
3445,B3,320.958,2.0,100,117.0
3446,E4,320.958,2.0,100,117.0
3447,G#4,320.958,2.0,100,117.0
3448,F#2,321.0,0.5,95,117.0
3449,C#6,321.0,0.25,115,117.0
3450,E6,321.0,0.25,115,117.0
3451,G#4,321.0,0.25,115,117.0
3452,C#5,321.0,0.25,115,117.0
3453,E5,321.0,0.25,115,117.0
3454,E-3,321.0,1.0,115,117.0
3455,E2,321.0,1.0,115,117.0
3456,F#2,321.5,0.5,55,117.0
3457,C#6,321.5,0.25,115,117.0
3458,E6,321.5,0.25,115,117.0
3459,G#4,321.5,0.25,115,117.0
3460,C#5,321.5,0.25,115,117.0
3461,E5,321.5,0.25,115,117.0
3462,B1,321.75,0.25,125,117.0
3463,F#1,321.75,0.25,115,117.0
3464,F#2,322.0,0.5,95,117.0
3465,B1,322.0,1.5,115,117.0
3466,B5,322.0,0.75,115,117.0
3467,E-6,322.0,0.75,115,117.0
3468,G#4,322.0,0.75,115,117.0
3469,B4,322.0,0.75,115,117.0
3470,E-5,322.0,0.75,115,117.0
3471,E-3,322.0,1.0,115,117.0
3472,B1,322.0,1.0,115,117.0
3473,F#2,322.5,0.5,55,117.0
3474,C#4,322.958,1.0,100,117.0
3475,F#4,322.958,1.0,100,117.0
3476,B-2,323.0,0.5,95,117.0
3477,E2,323.0,1.0,125,117.0
3478,E-5,323.0,0.75,115,117.0
3479,B5,323.0,0.75,115,117.0
3480,F#4,323.0,0.75,115,117.0
3481,B4,323.0,0.75,115,117.0
3482,E5,323.75,0.25,115,117.0
3483,C#6,323.75,0.25,115,117.0
3484,E4,323.75,0.25,115,117.0
3485,G#4,323.75,0.25,115,117.0
3486,C#5,323.75,0.25,115,117.0
3487,G#3,323.958,2.0,100,117.0
3488,B3,323.958,2.0,100,117.0
3489,E4,323.958,2.0,100,117.0
3490,F#2,324.0,0.5,95,117.0
3491,F2,324.0,3.0,115,117.0
3492,C#3,324.0,1.0,115,117.0
3493,B1,324.0,1.0,115,117.0
3494,F#2,324.5,0.5,55,117.0
3495,F#2,325.0,0.5,95,117.0
3496,G#5,325.0,0.25,115,117.0
3497,C#6,325.0,0.25,115,117.0
3498,E4,325.0,0.25,115,117.0
3499,G#4,325.0,0.25,115,117.0
3500,C#5,325.0,0.25,115,117.0
3501,E-3,325.0,1.0,115,117.0
3502,E2,325.0,1.0,115,117.0
3503,F#2,325.5,0.5,55,117.0
3504,B5,325.5,0.25,115,117.0
3505,E5,325.5,0.25,115,117.0
3506,B4,325.5,0.25,115,117.0
3507,E6,325.5,0.25,115,117.0
3508,G#4,325.5,0.25,115,117.0
3509,B1,325.75,0.25,125,117.0
3510,F#2,326.0,0.5,95,117.0
3511,D6,326.0,0.75,115,117.0
3512,F#6,326.0,0.75,115,117.0
3513,D5,326.0,0.75,115,117.0
3514,A4,326.0,0.75,115,117.0
3515,F#5,326.0,0.75,115,117.0
3516,E-3,326.0,1.0,115,117.0
3517,B1,326.0,1.0,115,117.0
3518,F#2,326.5,0.5,55,117.0
3519,F#2,327.0,0.5,95,117.0
3520,F2,327.0,1.0,115,117.0
3521,E6,327.0,0.75,115,117.0
3522,G#6,327.0,0.75,115,117.0
3523,E5,327.0,0.75,115,117.0
3524,G#5,327.0,0.75,115,117.0
3525,B4,327.0,0.75,115,117.0
3526,E-3,327.0,1.0,115,117.0
3527,E2,327.0,1.0,115,117.0
3528,F#2,327.5,0.5,55,117.0
3529,C#6,327.75,0.25,115,117.0
3530,E6,327.75,0.25,115,117.0
3531,C#5,327.75,0.25,115,117.0
3532,E5,327.75,0.25,115,117.0
3533,G#4,327.75,0.25,115,117.0
3534,F#2,328.0,0.5,95,117.0
3535,B-1,328.0,3.0,115,117.0
3536,E-3,328.0,1.0,115,117.0
3537,B1,328.0,1.0,115,117.0
3538,F#2,328.5,0.5,55,117.0
3539,F#2,329.0,0.5,95,117.0
3540,C#6,329.0,0.25,115,117.0
3541,E6,329.0,0.25,115,117.0
3542,G#4,329.0,0.25,115,117.0
3543,C#5,329.0,0.25,115,117.0
3544,E5,329.0,0.25,115,117.0
3545,E-3,329.0,1.0,115,117.0
3546,E2,329.0,1.0,115,117.0
3547,F#2,329.5,0.5,55,117.0
3548,C#6,329.5,0.25,115,117.0
3549,E6,329.5,0.25,115,117.0
3550,G#4,329.5,0.25,115,117.0
3551,C#5,329.5,0.25,115,117.0
3552,E5,329.5,0.25,115,117.0
3553,B1,329.75,0.25,125,117.0
3554,F#2,330.0,0.5,95,117.0
3555,B5,330.0,0.75,115,117.0
3556,E6,330.0,0.75,115,117.0
3557,E5,330.0,0.75,115,117.0
3558,G#4,330.0,0.75,115,117.0
3559,B4,330.0,0.75,115,117.0
3560,E-3,330.0,1.0,115,117.0
3561,B1,330.0,1.0,115,117.0
3562,F#2,330.5,0.5,55,117.0
3563,F#2,331.0,0.5,95,117.0
3564,B-1,331.0,1.0,115,117.0
3565,E5,331.0,0.75,115,117.0
3566,B5,331.0,0.75,115,117.0
3567,B3,331.0,0.75,115,117.0
3568,E4,331.0,0.75,115,117.0
3569,B4,331.0,0.75,115,117.0
3570,E-3,331.0,1.0,115,117.0
3571,E2,331.0,1.0,115,117.0
3572,F#2,331.5,0.5,55,117.0
3573,F4,331.958,4.0,100,117.0
3574,C#4,331.958,4.0,100,117.0
3575,B-4,331.958,4.0,100,117.0
3576,F#2,332.0,0.5,95,117.0
3577,A1,332.0,3.0,115,117.0
3578,F#6,332.0,1.0,115,117.0
3579,A6,332.0,1.0,115,117.0
3580,F#5,332.0,1.0,115,117.0
3581,C#5,332.0,1.0,115,117.0
3582,A5,332.0,1.0,115,117.0
3583,E-3,332.0,1.0,115,117.0
3584,B1,332.0,1.0,115,117.0
3585,F#2,332.5,0.5,55,117.0
3586,F#2,333.0,0.5,95,117.0
3587,E6,333.0,0.25,115,117.0
3588,G#6,333.0,0.25,115,117.0
3589,B4,333.0,0.25,115,117.0
3590,E5,333.0,0.25,115,117.0
3591,G#5,333.0,0.25,115,117.0
3592,E-3,333.0,1.0,115,117.0
3593,E2,333.0,1.0,115,117.0
3594,F#2,333.5,0.5,55,117.0
3595,E-6,333.5,0.25,115,117.0
3596,F#6,333.5,0.25,115,117.0
3597,E-5,333.5,0.25,115,117.0
3598,G#4,333.5,0.25,115,117.0
3599,F#5,333.5,0.25,115,117.0
3600,B1,333.75,0.25,125,117.0
3601,F#2,334.0,0.5,95,117.0
3602,B5,334.0,1.0,115,117.0
3603,E6,334.0,1.0,115,117.0
3604,B4,334.0,1.0,115,117.0
3605,F#4,334.0,1.0,115,117.0
3606,E5,334.0,1.0,115,117.0
3607,A4,334.0,1.0,115,117.0
3608,E-3,334.0,1.0,115,117.0
3609,B1,334.0,1.0,115,117.0
3610,F#2,334.5,0.5,55,117.0
3611,F#2,335.0,0.5,95,117.0
3612,G#1,335.0,1.0,115,117.0
3613,E-6,335.0,0.75,115,117.0
3614,E-4,335.0,0.75,115,117.0
3615,G#4,335.0,0.75,115,117.0
3616,E-5,335.0,0.75,115,117.0
3617,E-3,335.0,1.0,115,117.0
3618,E2,335.0,1.0,115,117.0
3619,F#2,335.5,0.5,55,117.0
3620,B5,335.75,0.25,115,117.0
3621,E6,335.75,0.25,115,117.0
3622,E4,335.75,0.25,115,117.0
3623,G#4,335.75,0.25,115,117.0
3624,E5,335.75,0.25,115,117.0
3625,B4,335.958,1.0,100,117.0
3626,E5,335.958,1.0,100,117.0
3627,F#2,336.0,0.5,95,117.0
3628,F#1,336.0,2.0,115,117.0
3629,E-3,336.0,1.0,115,117.0
3630,B1,336.0,1.0,115,117.0
3631,F#2,336.5,0.5,55,117.0
3632,G#4,336.958,3.0,100,117.0
3633,C#5,336.958,3.0,100,117.0
3634,F#2,337.0,0.5,95,117.0
3635,C#6,337.0,0.25,115,117.0
3636,E6,337.0,0.25,115,117.0
3637,G#4,337.0,0.25,115,117.0
3638,C#5,337.0,0.25,115,117.0
3639,E5,337.0,0.25,115,117.0
3640,E-3,337.0,1.0,115,117.0
3641,E2,337.0,1.0,115,117.0
3642,F#2,337.5,0.5,55,117.0
3643,C#6,337.5,0.25,115,117.0
3644,E6,337.5,0.25,115,117.0
3645,G#4,337.5,0.25,115,117.0
3646,C#5,337.5,0.25,115,117.0
3647,E5,337.5,0.25,115,117.0
3648,B1,337.75,0.25,125,117.0
3649,F#2,338.0,0.5,95,117.0
3650,B1,338.0,2.0,115,117.0
3651,B5,338.0,0.75,115,117.0
3652,E-6,338.0,0.75,115,117.0
3653,G#4,338.0,0.75,115,117.0
3654,B4,338.0,0.75,115,117.0
3655,E-5,338.0,0.75,115,117.0
3656,E-3,338.0,1.0,115,117.0
3657,B1,338.0,1.0,115,117.0
3658,F#2,338.5,0.5,55,117.0
3659,E-3,339.0,1.0,105,117.0
3660,F#2,339.0,0.5,95,117.0
3661,E2,339.0,0.875,125,117.0
3662,E-5,339.0,0.75,115,117.0
3663,B5,339.0,0.75,115,117.0
3664,F#4,339.0,0.75,115,117.0
3665,B4,339.0,0.75,115,117.0
3666,F#2,339.5,0.5,55,117.0
3667,E2,339.75,0.25,75,117.0
3668,E5,339.75,0.25,115,117.0
3669,C#6,339.75,0.25,115,117.0
3670,E4,339.75,0.25,115,117.0
3671,G#4,339.75,0.25,115,117.0
3672,C#5,339.75,0.25,115,117.0
3673,E2,339.875,0.125,85,117.0
3674,D4,340.0,0.25,80,117.0
3675,G#3,340.0,1.0,70,117.0
3676,B1,340.0,0.25,125,117.0
3677,C#2,340.0,0.5,115,117.0
3678,E2,340.0,1.0,116,117.0
3679,B-2,340.0,1.0,116,117.0
3680,F#2,340.25,0.25,105,117.0
3681,D4,340.75,0.25,80,117.0
3682,D4,341.0,0.25,80,117.0
3683,G#3,341.0,1.0,70,117.0
3684,G#5,341.0,0.25,115,117.0
3685,C#6,341.0,0.25,115,117.0
3686,E4,341.0,0.25,115,117.0
3687,G#4,341.0,0.25,115,117.0
3688,C#5,341.0,0.25,115,117.0
3689,E-4,341.5,0.25,80,117.0
3690,B5,341.5,0.25,115,117.0
3691,E5,341.5,0.25,115,117.0
3692,B4,341.5,0.25,115,117.0
3693,E6,341.5,0.25,115,117.0
3694,G#4,341.5,0.25,115,117.0
3695,D4,342.0,0.25,80,117.0
3696,G#3,342.0,1.0,70,117.0
3697,D6,342.0,0.75,115,117.0
3698,F#6,342.0,0.75,115,117.0
3699,D5,342.0,0.75,115,117.0
3700,A4,342.0,0.75,115,117.0
3701,F#5,342.0,0.75,115,117.0
3702,D4,342.75,0.25,80,117.0
3703,D4,343.0,0.25,80,117.0
3704,G#3,343.0,1.0,70,117.0
3705,E6,343.0,0.75,115,117.0
3706,G#6,343.0,0.75,115,117.0
3707,E5,343.0,0.75,115,117.0
3708,G#5,343.0,0.75,115,117.0
3709,B4,343.0,0.75,115,117.0
3710,E-4,343.5,0.25,80,117.0
3711,C#6,343.75,0.25,115,117.0
3712,E6,343.75,0.25,115,117.0
3713,C#5,343.75,0.25,115,117.0
3714,E5,343.75,0.25,115,117.0
3715,G#4,343.75,0.25,115,117.0
3716,D4,344.0,0.25,80,117.0
3717,G#3,344.0,1.0,70,117.0
3718,D4,344.75,0.25,80,117.0
3719,D4,345.0,0.25,80,117.0
3720,G#3,345.0,1.0,70,117.0
3721,C#6,345.0,0.25,115,117.0
3722,E6,345.0,0.25,115,117.0
3723,G#4,345.0,0.25,115,117.0
3724,C#5,345.0,0.25,115,117.0
3725,E5,345.0,0.25,115,117.0
3726,E-4,345.5,0.25,80,117.0
3727,C#6,345.5,0.25,115,117.0
3728,E6,345.5,0.25,115,117.0
3729,G#4,345.5,0.25,115,117.0
3730,C#5,345.5,0.25,115,117.0
3731,E5,345.5,0.25,115,117.0
3732,D4,346.0,0.25,80,117.0
3733,G#3,346.0,1.0,70,117.0
3734,B5,346.0,0.75,115,117.0
3735,E6,346.0,0.75,115,117.0
3736,E5,346.0,0.75,115,117.0
3737,G#4,346.0,0.75,115,117.0
3738,B4,346.0,0.75,115,117.0
3739,D4,346.75,0.25,80,117.0
3740,D4,347.0,0.25,80,117.0
3741,G#3,347.0,1.0,70,117.0
3742,E5,347.0,0.75,115,117.0
3743,B5,347.0,0.75,115,117.0
3744,B3,347.0,0.75,115,117.0
3745,E4,347.0,0.75,115,117.0
3746,B4,347.0,0.75,115,117.0
3747,E-4,347.5,0.25,80,117.0
3748,A1,347.75,0.25,115,117.0
3749,B1,347.75,0.25,118,117.0
3750,E2,347.75,0.25,118,117.0
3751,B-2,347.75,0.25,118,117.0
3752,G#3,348.0,1.0,70,117.0
3753,F#2,348.0,0.25,105,117.0
3754,A1,348.0,0.25,115,117.0
3755,F#6,348.0,1.0,115,117.0
3756,A6,348.0,1.0,115,117.0
3757,F#5,348.0,1.0,115,117.0
3758,C#5,348.0,1.0,115,117.0
3759,A5,348.0,1.0,115,117.0
3760,D4,348.25,0.125,80,117.0
3761,D4,348.375,0.125,80,117.0
3762,D4,348.5,0.125,80,117.0
3763,D4,348.75,0.125,80,117.0
3764,E-4,349.0,0.125,80,117.0
3765,G#3,349.0,1.0,70,117.0
3766,E6,349.0,0.25,115,117.0
3767,G#6,349.0,0.25,115,117.0
3768,B4,349.0,0.25,115,117.0
3769,E5,349.0,0.25,115,117.0
3770,G#5,349.0,0.25,115,117.0
3771,E-4,349.5,0.25,80,117.0
3772,E-6,349.5,0.25,115,117.0
3773,F#6,349.5,0.25,115,117.0
3774,E-5,349.5,0.25,115,117.0
3775,G#4,349.5,0.25,115,117.0
3776,F#5,349.5,0.25,115,117.0
3777,D4,350.0,0.25,80,117.0
3778,G#3,350.0,1.0,70,117.0
3779,B5,350.0,1.0,115,117.0
3780,E6,350.0,1.0,115,117.0
3781,B4,350.0,1.0,115,117.0
3782,F#4,350.0,1.0,115,117.0
3783,E5,350.0,1.0,115,117.0
3784,A4,350.0,1.0,115,117.0
3785,D4,350.75,0.25,80,117.0
3786,D4,351.0,0.25,80,117.0
3787,G#3,351.0,1.0,70,117.0
3788,E-6,351.0,0.75,115,117.0
3789,E-4,351.0,0.75,115,117.0
3790,G#4,351.0,0.75,115,117.0
3791,E-5,351.0,0.75,115,117.0
3792,E-4,351.5,0.25,80,117.0
3793,B4,351.708,0.25,105,117.0
3794,G#4,351.708,0.25,105,117.0
3795,E5,351.708,0.25,105,117.0
3796,E-4,351.75,0.25,80,117.0
3797,B4,351.958,0.25,105,117.0
3798,G#4,351.958,0.25,105,117.0
3799,E5,351.958,0.25,105,117.0
3800,G#5,352.0,2.0,115,117.0
3801,D4,352.0,0.25,80,117.0
3802,G#3,352.0,1.0,70,117.0
3803,G#3,352.0,4.0,105,117.0
3804,E-4,352.0,4.0,105,117.0
3805,C4,352.0,4.0,105,117.0
3806,G#4,352.0,4.0,105,117.0
3807,D4,352.75,0.25,80,117.0
3808,D4,353.0,0.25,80,117.0
3809,G#3,353.0,1.0,70,117.0
3810,D3,353.5,0.125,115,117.0
3811,B2,353.625,0.125,115,117.0
3812,E-4,353.75,0.25,80,117.0
3813,A2,353.75,0.125,115,117.0
3814,G2,353.875,0.125,115,117.0
3815,G#5,354.0,0.75,115,117.0
3816,E-4,354.0,0.25,80,117.0
3817,G#3,354.0,1.0,70,117.0
3818,B1,354.0,0.125,115,117.0
3819,D4,354.25,0.25,80,117.0
3820,B-5,354.75,0.75,115,117.0
3821,D4,354.75,0.25,60,117.0
3822,D4,355.0,0.25,80,117.0
3823,G#3,355.0,1.0,70,117.0
3824,E2,355.0,0.125,125,117.0
3825,C6,355.5,0.5,115,117.0
3826,D4,355.5,0.25,60,117.0
3827,D4,355.75,0.25,80,117.0
3828,C#2,355.75,0.25,115,117.0
3829,B-2,355.75,0.25,118,117.0
3830,E2,355.75,0.25,118,117.0
3831,B1,355.75,0.25,118,117.0
3832,C#6,356.0,2.0,115,117.0
3833,D4,356.0,0.25,80,117.0
3834,G#3,356.0,1.0,70,117.0
3835,F#2,356.0,0.25,105,117.0
3836,C#2,356.0,0.25,115,117.0
3837,B-3,356.0,4.0,105,117.0
3838,C#4,356.0,4.0,105,117.0
3839,G#3,356.0,4.0,105,117.0
3840,F4,356.0,4.0,105,117.0
3841,D4,356.75,0.25,80,117.0
3842,D4,357.0,0.25,80,117.0
3843,G#3,357.0,1.0,70,117.0
3844,E-4,357.5,0.25,80,117.0
3845,G#5,358.0,0.75,115,117.0
3846,D4,358.0,0.25,80,117.0
3847,G#3,358.0,1.0,70,117.0
3848,F#5,358.75,0.75,115,117.0
3849,D4,358.75,0.25,80,117.0
3850,D4,359.0,0.25,80,117.0
3851,G#3,359.0,1.0,70,117.0
3852,E5,359.5,0.5,115,117.0
3853,E-4,359.5,0.25,80,117.0
3854,C#5,359.708,0.25,105,117.0
3855,G#5,359.708,0.25,105,117.0
3856,C#5,359.958,0.25,105,117.0
3857,G#5,359.958,0.25,105,117.0
3858,C#5,360.0,2.0,115,117.0
3859,D4,360.0,0.25,80,117.0
3860,G#3,360.0,1.0,70,117.0
3861,A3,360.0,4.0,105,117.0
3862,C#4,360.0,4.0,105,117.0
3863,G#4,360.0,4.0,105,117.0
3864,E4,360.0,4.0,105,117.0
3865,D3,360.625,0.125,115,117.0
3866,D4,360.75,0.25,80,117.0
3867,B2,360.75,0.125,115,117.0
3868,A2,360.875,0.125,115,117.0
3869,D4,361.0,0.25,80,117.0
3870,G#3,361.0,1.0,70,117.0
3871,G3,361.0,333/1000,115,117.0
3872,B1,361.0,333/1000,115,117.0
3873,E-4,361.5,0.25,80,117.0
3874,D4,362.0,0.25,80,117.0
3875,G#3,362.0,1.0,70,117.0
3876,C#5,362.5,0.5,115,117.0
3877,D4,362.75,0.25,80,117.0
3878,B1,362.75,0.25,125,117.0
3879,E5,363.0,0.5,115,117.0
3880,D4,363.0,0.25,80,117.0
3881,G#3,363.0,1.0,70,117.0
3882,B1,363.0,0.25,125,117.0
3883,E-4,363.0,1.0,105,117.0
3884,B3,363.0,1.0,105,117.0
3885,F#4,363.0,1.0,105,117.0
3886,F#5,363.5,0.5,115,117.0
3887,E-4,363.5,0.25,80,117.0
3888,A1,363.75,0.25,115,117.0
3889,B-2,363.75,0.25,118,117.0
3890,E2,363.75,0.25,118,117.0
3891,B1,363.75,0.25,118,117.0
3892,G#5,364.0,1.5,115,117.0
3893,G#3,364.0,1.0,70,117.0
3894,F#2,364.0,0.25,105,117.0
3895,A1,364.0,0.25,115,117.0
3896,F#4,364.0,2.0,105,117.0
3897,B3,364.0,2.0,105,117.0
3898,E4,364.0,2.0,105,117.0
3899,D4,364.25,0.125,80,117.0
3900,D4,364.375,0.125,80,117.0
3901,D4,364.5,0.125,80,117.0
3902,D4,364.75,0.125,80,117.0
3903,E-4,365.0,0.125,80,117.0
3904,G#3,365.0,1.0,70,117.0
3905,F#5,365.5,0.25,115,117.0
3906,E-4,365.5,0.25,80,117.0
3907,E5,365.75,0.25,115,117.0
3908,D4,366.0,0.25,80,117.0
3909,G#3,366.0,1.0,70,117.0
3910,F#5,366.0,2.0,107,117.0
3911,C#4,366.0,2.0,107,117.0
3912,G#4,366.0,2.0,107,117.0
3913,B3,366.0,2.0,107,117.0
3914,E4,366.0,2.0,107,117.0
3915,D4,366.75,0.25,80,117.0
3916,D4,367.0,0.25,80,117.0
3917,G#3,367.0,1.0,70,117.0
3918,E-4,367.5,0.25,80,117.0
3919,E5,367.708,0.25,105,117.0
3920,B5,367.708,0.25,105,117.0
3921,E-4,367.75,0.25,80,117.0
3922,E5,367.958,0.25,105,117.0
3923,B5,367.958,0.25,105,117.0
3924,G#5,368.0,2.0,115,117.0
3925,D4,368.0,0.25,80,117.0
3926,G#3,368.0,1.0,70,117.0
3927,F#1,368.0,1.0,115,117.0
3928,G#3,368.0,4.0,105,117.0
3929,E-4,368.0,4.0,105,117.0
3930,C4,368.0,4.0,105,117.0
3931,G#4,368.0,4.0,105,117.0
3932,C#3,368.0,0.25,115,117.0
3933,B1,368.0,0.25,115,117.0
3934,D3,368.5,0.25,105,117.0
3935,D4,368.75,0.25,80,117.0
3936,C3,368.75,0.25,105,117.0
3937,D4,369.0,0.25,80,117.0
3938,G#3,369.0,1.0,70,117.0
3939,G#1,369.0,0.25,115,117.0
3940,B1,369.0,0.25,115,117.0
3941,G3,369.0,0.25,115,117.0
3942,C3,369.5,0.25,105,117.0
3943,A1,369.5,0.25,115,117.0
3944,E-4,369.75,0.25,80,117.0
3945,B2,369.75,0.25,105,117.0
3946,G#5,370.0,0.75,115,117.0
3947,E-4,370.0,0.25,80,117.0
3948,G#3,370.0,1.0,70,117.0
3949,B1,370.0,1.0,115,117.0
3950,B-2,370.0,0.25,115,117.0
3951,B1,370.0,0.25,115,117.0
3952,D4,370.25,0.25,80,117.0
3953,B2,370.5,0.25,105,117.0
3954,B-5,370.75,0.75,115,117.0
3955,D4,370.75,0.25,60,117.0
3956,A2,370.75,0.25,105,117.0
3957,D4,371.0,0.25,80,117.0
3958,G#3,371.0,1.0,70,117.0
3959,G2,371.0,0.25,105,117.0
3960,C2,371.0,0.75,115,117.0
3961,F2,371.25,0.25,105,117.0
3962,C6,371.5,0.5,115,117.0
3963,D4,371.5,0.25,60,117.0
3964,B1,371.5,0.25,105,117.0
3965,D4,371.75,0.25,80,117.0
3966,C#2,371.75,0.25,115,117.0
3967,E2,371.75,0.25,115,117.0
3968,B-2,371.75,0.25,115,117.0
3969,E-6,372.0,2.0,115,117.0
3970,D4,372.0,0.25,80,117.0
3971,G#3,372.0,1.0,70,117.0
3972,F#2,372.0,0.5,95,117.0
3973,B-3,372.0,4.0,105,117.0
3974,C#4,372.0,4.0,105,117.0
3975,G#3,372.0,4.0,105,117.0
3976,F4,372.0,4.0,105,117.0
3977,D4,372.75,0.25,80,117.0
3978,D4,373.0,0.25,80,117.0
3979,G#3,373.0,1.0,70,117.0
3980,C#3,373.0,0.5,115,117.0
3981,C#2,373.0,0.25,115,117.0
3982,E2,373.0,1.0,110,117.0
3983,E-3,373.0,1.0,110,117.0
3984,E-4,373.5,0.25,80,117.0
3985,B1,373.5,0.25,125,117.0
3986,F#2,373.5,0.5,55,117.0
3987,C#2,373.5,0.25,115,117.0
3988,C#6,374.0,2.0,115,117.0
3989,D4,374.0,0.25,80,117.0
3990,G#3,374.0,1.0,70,117.0
3991,F#2,374.0,0.5,95,117.0
3992,G#1,374.0,1.0,115,117.0
3993,B1,374.0,1.0,110,117.0
3994,E-3,374.0,1.0,110,117.0
3995,F#2,374.5,0.5,55,117.0
3996,D4,374.75,0.25,80,117.0
3997,D4,375.0,0.25,80,117.0
3998,G#3,375.0,1.0,70,117.0
3999,F#2,375.0,0.5,95,117.0
4000,B1,375.0,0.75,115,117.0
4001,E2,375.0,1.0,110,117.0
4002,E-3,375.0,1.0,110,117.0
4003,E5,375.5,0.25,115,117.0
4004,E-4,375.5,0.25,80,117.0
4005,F#2,375.5,0.5,55,117.0
4006,F#5,375.75,0.25,115,117.0
4007,C#2,375.75,0.25,115,117.0
4008,G#5,376.0,2.0,115,117.0
4009,D4,376.0,0.25,80,117.0
4010,G#3,376.0,1.0,70,117.0
4011,F#2,376.0,0.5,95,117.0
4012,A3,376.0,4.0,105,117.0
4013,C#4,376.0,4.0,105,117.0
4014,G#4,376.0,4.0,105,117.0
4015,E4,376.0,4.0,105,117.0
4016,B1,376.0,1.0,110,117.0
4017,E-3,376.0,1.0,110,117.0
4018,E4,376.208,167/1000,100,117.0
4019,C#4,376.458,167/1000,100,117.0
4020,F#2,376.5,0.5,55,117.0
4021,B3,376.708,167/1000,100,117.0
4022,D4,376.75,0.25,80,117.0
4023,E4,376.958,167/1000,100,117.0
4024,D4,377.0,0.25,80,117.0
4025,G#3,377.0,1.0,70,117.0
4026,F#2,377.0,0.5,95,117.0
4027,C#2,377.0,0.25,115,117.0
4028,E2,377.0,1.0,110,117.0
4029,E-3,377.0,1.0,110,117.0
4030,E4,377.208,167/1000,100,117.0
4031,E-4,377.5,0.25,80,117.0
4032,B1,377.5,0.25,125,117.0
4033,F#2,377.5,0.5,55,117.0
4034,C#2,377.5,0.25,115,117.0
4035,D4,378.0,0.25,80,117.0
4036,G#3,378.0,1.0,70,117.0
4037,F#2,378.0,0.5,95,117.0
4038,B1,378.0,1.0,115,117.0
4039,B1,378.0,1.0,110,117.0
4040,E-3,378.0,1.0,110,117.0
4041,B3,378.458,167/1000,100,117.0
4042,C#5,378.5,0.5,115,117.0
4043,F#2,378.5,0.5,55,117.0
4044,B3,378.708,167/1000,100,117.0
4045,D4,378.75,0.25,80,117.0
4046,E5,379.0,0.5,115,117.0
4047,D4,379.0,0.25,80,117.0
4048,G#3,379.0,1.0,70,117.0
4049,F#2,379.0,0.5,95,117.0
4050,E2,379.0,0.75,115,117.0
4051,E-4,379.0,1.0,105,117.0
4052,B3,379.0,1.0,105,117.0
4053,F#4,379.0,1.0,105,117.0
4054,E2,379.0,1.0,110,117.0
4055,E-3,379.0,1.0,110,117.0
4056,B3,379.208,167/1000,100,117.0
4057,F#5,379.5,0.5,115,117.0
4058,E-4,379.5,0.25,80,117.0
4059,F#2,379.5,0.5,55,117.0
4060,G#4,379.708,167/1000,100,117.0
4061,A1,379.75,0.25,115,117.0
4062,G#5,380.0,1.5,115,117.0
4063,G#3,380.0,1.0,70,117.0
4064,F#2,380.0,0.5,95,117.0
4065,F#4,380.0,2.0,105,117.0
4066,B3,380.0,2.0,105,117.0
4067,E4,380.0,2.0,105,117.0
4068,B1,380.0,1.0,110,117.0
4069,E-3,380.0,1.0,110,117.0
4070,E4,380.208,167/1000,100,117.0
4071,D4,380.25,0.125,80,117.0
4072,D4,380.375,0.125,80,117.0
4073,C#4,380.458,167/1000,100,117.0
4074,D4,380.5,0.125,80,117.0
4075,F#2,380.5,0.5,55,117.0
4076,B3,380.708,167/1000,100,117.0
4077,D4,380.75,0.125,80,117.0
4078,E4,380.958,167/1000,100,117.0
4079,E-4,381.0,0.125,80,117.0
4080,G#3,381.0,1.0,70,117.0
4081,F#2,381.0,0.5,95,117.0
4082,A1,381.0,0.25,115,117.0
4083,E2,381.0,1.0,110,117.0
4084,E-3,381.0,1.0,110,117.0
4085,E4,381.208,167/1000,100,117.0
4086,F#5,381.5,0.25,115,117.0
4087,E-4,381.5,0.25,80,117.0
4088,B1,381.5,0.25,125,117.0
4089,F#2,381.5,0.5,55,117.0
4090,A1,381.5,0.25,115,117.0
4091,E5,381.75,0.25,115,117.0
4092,D4,382.0,0.25,80,117.0
4093,G#3,382.0,1.0,70,117.0
4094,F#2,382.0,0.5,95,117.0
4095,G#1,382.0,1.0,115,117.0
4096,F#5,382.0,2.0,107,117.0
4097,C#4,382.0,2.0,107,117.0
4098,G#4,382.0,2.0,107,117.0
4099,B3,382.0,2.0,107,117.0
4100,E4,382.0,2.0,107,117.0
4101,B1,382.0,1.0,110,117.0
4102,E-3,382.0,1.0,110,117.0
4103,B3,382.458,167/1000,100,117.0
4104,F#2,382.5,0.5,55,117.0
4105,B3,382.708,167/1000,100,117.0
4106,D4,382.75,0.25,80,117.0
4107,D4,383.0,0.25,80,117.0
4108,G#3,383.0,1.0,70,117.0
4109,F#2,383.0,0.5,95,117.0
4110,C#2,383.0,1.0,115,117.0
4111,E2,383.0,1.0,110,117.0
4112,E-3,383.0,1.0,110,117.0
4113,B3,383.208,167/1000,100,117.0
4114,E-4,383.5,0.25,80,117.0
4115,F#2,383.5,0.5,55,117.0
4116,G#4,383.708,167/1000,100,117.0
4117,E-4,383.75,0.25,80,117.0
4118,D4,384.0,0.25,80,117.0
4119,G#3,384.0,1.0,70,117.0
4120,F#2,384.0,0.5,95,117.0
4121,F#1,384.0,1.0,115,117.0
4122,B1,384.0,1.0,110,117.0
4123,E-3,384.0,1.0,110,117.0
4124,E4,384.208,167/1000,100,117.0
4125,C#4,384.458,167/1000,100,117.0
4126,F#2,384.5,0.5,55,117.0
4127,B3,384.708,167/1000,100,117.0
4128,D4,384.75,0.25,80,117.0
4129,E4,384.958,167/1000,100,117.0
4130,D4,385.0,0.25,80,117.0
4131,G#3,385.0,1.0,70,117.0
4132,F#2,385.0,0.5,95,117.0
4133,G#1,385.0,0.25,115,117.0
4134,C#2,385.0,0.25,115,117.0
4135,E4,385.0,0.25,115,117.0
4136,G#4,385.0,0.25,115,117.0
4137,C#5,385.0,0.25,115,117.0
4138,E5,385.0,0.25,115,117.0
4139,E2,385.0,1.0,110,117.0
4140,E-3,385.0,1.0,110,117.0
4141,E4,385.208,167/1000,100,117.0
4142,B1,385.5,0.25,125,117.0
4143,F#2,385.5,0.5,55,117.0
4144,A1,385.5,0.25,115,117.0
4145,C#2,385.5,0.25,115,117.0
4146,E4,385.5,0.25,115,117.0
4147,G#4,385.5,0.25,115,117.0
4148,C#5,385.5,0.25,115,117.0
4149,E5,385.5,0.25,115,117.0
4150,E-4,385.75,0.25,80,117.0
4151,E-4,386.0,0.25,80,117.0
4152,G#3,386.0,1.0,70,117.0
4153,F#2,386.0,0.5,95,117.0
4154,B1,386.0,1.0,115,117.0
4155,G#2,386.0,0.75,115,117.0
4156,E-4,386.0,0.75,115,117.0
4157,G#4,386.0,0.75,115,117.0
4158,B4,386.0,0.75,115,117.0
4159,E-5,386.0,0.75,115,117.0
4160,B1,386.0,1.0,110,117.0
4161,E-3,386.0,1.0,110,117.0
4162,D4,386.25,0.25,80,117.0
4163,B3,386.458,167/1000,100,117.0
4164,F#2,386.5,0.5,55,117.0
4165,B3,386.708,167/1000,100,117.0
4166,D4,386.75,0.25,60,117.0
4167,D4,387.0,0.25,80,117.0
4168,G#3,387.0,1.0,70,117.0
4169,F#2,387.0,0.5,95,117.0
4170,C2,387.0,0.75,115,117.0
4171,G#2,387.0,0.75,115,117.0
4172,F#4,387.0,0.75,115,117.0
4173,B4,387.0,0.75,115,117.0
4174,E2,387.0,1.0,110,117.0
4175,E-3,387.0,1.0,110,117.0
4176,B3,387.208,167/1000,100,117.0
4177,D4,387.5,0.25,60,117.0
4178,F#2,387.5,0.5,55,117.0
4179,D4,387.75,0.25,80,117.0
4180,C#2,387.75,0.25,115,117.0
4181,C#3,387.75,0.25,115,117.0
4182,E4,387.75,0.25,115,117.0
4183,G#4,387.75,0.25,115,117.0
4184,C#5,387.75,0.25,115,117.0
4185,B-2,387.75,0.25,110,117.0
4186,B1,387.75,0.25,110,117.0
4187,A4,387.958,1.0,100,117.0
4188,D4,388.0,0.25,80,117.0
4189,G#3,388.0,1.0,70,117.0
4190,F#2,388.0,0.25,95,117.0
4191,E-3,388.0,1.0,95,117.0
4192,F#2,388.5,0.5,55,117.0
4193,D4,388.75,0.25,80,117.0
4194,E4,388.958,0.25,100,117.0
4195,G#4,388.958,0.25,100,117.0
4196,D4,389.0,0.25,80,117.0
4197,G#3,389.0,1.0,70,117.0
4198,F#2,389.0,0.5,95,117.0
4199,C#2,389.0,0.25,115,117.0
4200,C#3,389.0,0.25,115,117.0
4201,E4,389.0,0.25,115,117.0
4202,G#4,389.0,0.25,115,117.0
4203,C#5,389.0,0.25,115,117.0
4204,E2,389.0,1.0,110,117.0
4205,E-3,389.0,1.0,110,117.0
4206,C#4,389.458,0.25,100,117.0
4207,F#4,389.458,0.25,100,117.0
4208,E-4,389.5,0.25,80,117.0
4209,B1,389.5,0.25,125,117.0
4210,F#2,389.5,0.5,55,117.0
4211,C#2,389.5,0.25,115,117.0
4212,C#3,389.5,0.25,115,117.0
4213,E4,389.5,0.25,115,117.0
4214,G#4,389.5,0.25,115,117.0
4215,E5,389.5,0.25,115,117.0
4216,B3,389.958,0.25,100,117.0
4217,E4,389.958,0.25,100,117.0
4218,D4,390.0,0.25,80,117.0
4219,G#3,390.0,1.0,70,117.0
4220,F#2,390.0,0.5,95,117.0
4221,G#1,390.0,1.0,115,117.0
4222,B2,390.0,0.75,115,117.0
4223,D5,390.0,0.75,115,117.0
4224,A4,390.0,0.75,115,117.0
4225,F#5,390.0,0.75,115,117.0
4226,B1,390.0,1.0,110,117.0
4227,E-3,390.0,1.0,110,117.0
4228,F#2,390.5,0.5,55,117.0
4229,D4,390.75,0.25,80,117.0
4230,C4,390.958,0.75,100,117.0
4231,E-4,390.958,0.75,100,117.0
4232,D4,391.0,0.25,80,117.0
4233,G#3,391.0,1.0,70,117.0
4234,F#2,391.0,0.5,95,117.0
4235,B1,391.0,0.75,115,117.0
4236,E2,391.0,0.75,115,117.0
4237,E5,391.0,0.75,115,117.0
4238,G#4,391.0,0.75,115,117.0
4239,G#5,391.0,0.75,115,117.0
4240,B4,391.0,0.75,115,117.0
4241,E2,391.0,1.0,110,117.0
4242,E-3,391.0,1.0,110,117.0
4243,E-4,391.5,0.25,80,117.0
4244,F#2,391.5,0.5,55,117.0
4245,G#4,391.708,0.25,100,117.0
4246,C#2,391.75,0.25,115,117.0
4247,A2,391.75,0.25,115,117.0
4248,C#5,391.75,0.25,115,117.0
4249,E5,391.75,0.25,115,117.0
4250,E4,391.75,0.25,115,117.0
4251,G#4,391.75,0.25,115,117.0
4252,D4,392.0,0.25,80,117.0
4253,G#3,392.0,1.0,70,117.0
4254,F#2,392.0,0.5,95,117.0
4255,B1,392.0,1.0,110,117.0
4256,E-3,392.0,1.0,110,117.0
4257,E4,392.208,167/1000,100,117.0
4258,C#4,392.458,167/1000,100,117.0
4259,F#2,392.5,0.5,55,117.0
4260,B3,392.708,167/1000,100,117.0
4261,A2,392.75,0.25,115,117.0
4262,D4,392.75,0.25,80,117.0
4263,E4,392.958,167/1000,100,117.0
4264,D4,393.0,0.25,80,117.0
4265,G#3,393.0,1.0,70,117.0
4266,F#2,393.0,0.5,95,117.0
4267,C#2,393.0,0.25,115,117.0
4268,A2,393.0,0.25,115,117.0
4269,E4,393.0,0.25,115,117.0
4270,G#4,393.0,0.25,115,117.0
4271,C#5,393.0,0.25,115,117.0
4272,E5,393.0,0.25,115,117.0
4273,E2,393.0,1.0,110,117.0
4274,E-3,393.0,1.0,110,117.0
4275,E4,393.208,167/1000,100,117.0
4276,E-4,393.5,0.25,80,117.0
4277,B1,393.5,0.25,125,117.0
4278,F#2,393.5,0.5,55,117.0
4279,C#2,393.5,0.25,115,117.0
4280,A2,393.5,0.25,115,117.0
4281,E4,393.5,0.25,115,117.0
4282,G#4,393.5,0.25,115,117.0
4283,C#5,393.5,0.25,115,117.0
4284,E5,393.5,0.25,115,117.0
4285,D4,394.0,0.25,80,117.0
4286,G#3,394.0,1.0,70,117.0
4287,F#2,394.0,0.5,95,117.0
4288,B1,394.0,1.0,115,117.0
4289,G#2,394.0,0.75,115,117.0
4290,E4,394.0,0.75,115,117.0
4291,E5,394.0,0.75,115,117.0
4292,G#4,394.0,0.75,115,117.0
4293,B4,394.0,0.75,115,117.0
4294,B1,394.0,1.0,110,117.0
4295,E-3,394.0,1.0,110,117.0
4296,B3,394.458,167/1000,100,117.0
4297,F#2,394.5,0.5,55,117.0
4298,B3,394.708,167/1000,100,117.0
4299,D4,394.75,0.25,80,117.0
4300,D4,395.0,0.25,80,117.0
4301,G#3,395.0,1.0,70,117.0
4302,F#2,395.0,0.5,95,117.0
4303,E2,395.0,0.75,115,117.0
4304,C#3,395.0,0.75,115,117.0
4305,B3,395.0,0.75,115,117.0
4306,E4,395.0,0.75,115,117.0
4307,B4,395.0,0.75,115,117.0
4308,E2,395.0,1.0,110,117.0
4309,E-3,395.0,1.0,110,117.0
4310,B3,395.208,167/1000,100,117.0
4311,E-4,395.5,0.25,80,117.0
4312,F#2,395.5,0.5,55,117.0
4313,G#4,395.708,167/1000,100,117.0
4314,A1,395.75,0.25,115,117.0
4315,G#3,396.0,1.0,70,117.0
4316,F#2,396.0,0.5,95,117.0
4317,F#5,396.0,1.0,115,117.0
4318,F#2,396.0,1.0,115,117.0
4319,F#4,396.0,1.0,115,117.0
4320,C#5,396.0,1.0,115,117.0
4321,A5,396.0,1.0,115,117.0
4322,B1,396.0,1.0,110,117.0
4323,E-3,396.0,1.0,110,117.0
4324,E4,396.208,167/1000,100,117.0
4325,D4,396.25,0.125,80,117.0
4326,D4,396.375,0.125,80,117.0
4327,C#4,396.458,167/1000,100,117.0
4328,D4,396.5,0.125,80,117.0
4329,F#2,396.5,0.5,55,117.0
4330,B3,396.708,167/1000,100,117.0
4331,D4,396.75,0.125,80,117.0
4332,E4,396.958,167/1000,100,117.0
4333,E-4,397.0,0.125,80,117.0
4334,G#3,397.0,1.0,70,117.0
4335,F#2,397.0,0.5,95,117.0
4336,A1,397.0,0.25,115,117.0
4337,B4,397.0,0.25,115,117.0
4338,G#4,397.0,0.25,115,117.0
4339,G#2,397.0,0.25,115,117.0
4340,E5,397.0,0.25,115,117.0
4341,G#5,397.0,0.25,115,117.0
4342,E2,397.0,1.0,110,117.0
4343,E-3,397.0,1.0,110,117.0
4344,E4,397.208,167/1000,100,117.0
4345,E-4,397.5,0.25,80,117.0
4346,B1,397.5,0.25,125,117.0
4347,F#2,397.5,0.5,55,117.0
4348,A1,397.5,0.25,115,117.0
4349,E-5,397.5,0.25,115,117.0
4350,G#4,397.5,0.25,115,117.0
4351,A2,397.5,0.25,115,117.0
4352,F#5,397.5,0.25,115,117.0
4353,D4,398.0,0.25,80,117.0
4354,G#3,398.0,1.0,70,117.0
4355,F#2,398.0,0.5,95,117.0
4356,G#1,398.0,1.0,115,117.0
4357,B4,398.0,1.0,115,117.0
4358,F#4,398.0,1.0,115,117.0
4359,B2,398.0,1.0,115,117.0
4360,E5,398.0,1.0,115,117.0
4361,A4,398.0,1.0,115,117.0
4362,B1,398.0,1.0,110,117.0
4363,E-3,398.0,1.0,110,117.0
4364,B3,398.458,167/1000,100,117.0
4365,F#2,398.5,0.5,55,117.0
4366,B3,398.708,167/1000,100,117.0
4367,D4,398.75,0.25,80,117.0
4368,D4,399.0,0.25,80,117.0
4369,G#3,399.0,1.0,70,117.0
4370,F#2,399.0,0.5,95,117.0
4371,C#2,399.0,1.0,115,117.0
4372,E-4,399.0,0.75,115,117.0
4373,G#4,399.0,0.75,115,117.0
4374,E-5,399.0,0.75,115,117.0
4375,C3,399.0,0.75,115,117.0
4376,E2,399.0,1.0,110,117.0
4377,E-3,399.0,1.0,110,117.0
4378,B3,399.208,167/1000,100,117.0
4379,E-4,399.5,0.25,80,117.0
4380,F#2,399.5,0.5,55,117.0
4381,G#4,399.708,167/1000,100,117.0
4382,E-4,399.75,0.25,80,117.0
4383,E4,399.75,0.25,115,117.0
4384,G#4,399.75,0.25,115,117.0
4385,E5,399.75,0.25,115,117.0
4386,C#3,399.75,0.25,115,117.0
4387,D4,400.0,0.25,80,117.0
4388,G#3,400.0,1.0,70,117.0
4389,F#2,400.0,0.5,95,117.0
4390,F#1,400.0,1.0,115,117.0
4391,B1,400.0,1.0,110,117.0
4392,E-3,400.0,1.0,110,117.0
4393,E4,400.208,167/1000,100,117.0
4394,C#4,400.458,167/1000,100,117.0
4395,F#2,400.5,0.5,55,117.0
4396,B3,400.708,167/1000,100,117.0
4397,D4,400.75,0.25,80,117.0
4398,E4,400.958,167/1000,100,117.0
4399,D4,401.0,0.25,80,117.0
4400,G#3,401.0,1.0,70,117.0
4401,F#2,401.0,0.5,95,117.0
4402,G#1,401.0,0.25,115,117.0
4403,C#2,401.0,0.25,115,117.0
4404,E4,401.0,0.25,115,117.0
4405,G#4,401.0,0.25,115,117.0
4406,C#5,401.0,0.25,115,117.0
4407,E5,401.0,0.25,115,117.0
4408,E2,401.0,1.0,110,117.0
4409,E-3,401.0,1.0,110,117.0
4410,E4,401.208,167/1000,100,117.0
4411,B1,401.5,0.25,125,117.0
4412,F#2,401.5,0.5,55,117.0
4413,A1,401.5,0.25,115,117.0
4414,C#2,401.5,0.25,115,117.0
4415,E4,401.5,0.25,115,117.0
4416,G#4,401.5,0.25,115,117.0
4417,C#5,401.5,0.25,115,117.0
4418,E5,401.5,0.25,115,117.0
4419,E-4,401.75,0.25,80,117.0
4420,E-4,402.0,0.25,80,117.0
4421,G#3,402.0,1.0,70,117.0
4422,F#2,402.0,0.5,95,117.0
4423,B1,402.0,1.0,115,117.0
4424,G#2,402.0,0.75,115,117.0
4425,E-4,402.0,0.75,115,117.0
4426,G#4,402.0,0.75,115,117.0
4427,B4,402.0,0.75,115,117.0
4428,E-5,402.0,0.75,115,117.0
4429,B1,402.0,1.0,110,117.0
4430,E-3,402.0,1.0,110,117.0
4431,D4,402.25,0.25,80,117.0
4432,B3,402.458,167/1000,100,117.0
4433,F#2,402.5,0.5,55,117.0
4434,B3,402.708,167/1000,100,117.0
4435,D4,402.75,0.25,60,117.0
4436,D4,403.0,0.25,80,117.0
4437,G#3,403.0,1.0,70,117.0
4438,F#2,403.0,0.5,95,117.0
4439,C2,403.0,0.75,115,117.0
4440,G#2,403.0,0.75,115,117.0
4441,F#4,403.0,0.75,115,117.0
4442,B4,403.0,0.75,115,117.0
4443,E2,403.0,1.0,110,117.0
4444,E-3,403.0,1.0,110,117.0
4445,B3,403.208,167/1000,100,117.0
4446,D4,403.5,0.25,60,117.0
4447,F#2,403.5,0.5,55,117.0
4448,D4,403.75,0.25,80,117.0
4449,C#2,403.75,0.25,115,117.0
4450,C#3,403.75,0.25,115,117.0
4451,E4,403.75,0.25,115,117.0
4452,G#4,403.75,0.25,115,117.0
4453,C#5,403.75,0.25,115,117.0
4454,C#3,403.75,0.25,110,117.0
4455,B1,403.75,0.25,110,117.0
4456,A4,403.958,1.0,100,117.0
4457,D4,404.0,0.25,80,117.0
4458,G#3,404.0,1.0,70,117.0
4459,F#2,404.0,0.5,95,117.0
4460,B1,404.0,1.0,115,117.0
4461,E-3,404.0,1.0,115,117.0
4462,F#2,404.5,0.5,55,117.0
4463,D4,404.75,0.25,80,117.0
4464,E4,404.958,0.25,100,117.0
4465,G#4,404.958,0.25,100,117.0
4466,D4,405.0,0.25,80,117.0
4467,G#3,405.0,1.0,70,117.0
4468,F#2,405.0,0.5,95,117.0
4469,C#2,405.0,0.25,115,117.0
4470,C#3,405.0,0.25,115,117.0
4471,E4,405.0,0.25,115,117.0
4472,G#4,405.0,0.25,115,117.0
4473,C#5,405.0,0.25,115,117.0
4474,E2,405.0,1.0,115,117.0
4475,E-3,405.0,1.0,115,117.0
4476,C#4,405.458,0.25,100,117.0
4477,F#4,405.458,0.25,100,117.0
4478,E-4,405.5,0.25,80,117.0
4479,B1,405.5,0.25,125,117.0
4480,F#2,405.5,0.5,55,117.0
4481,C#2,405.5,0.25,115,117.0
4482,C#3,405.5,0.25,115,117.0
4483,E4,405.5,0.25,115,117.0
4484,G#4,405.5,0.25,115,117.0
4485,E5,405.5,0.25,115,117.0
4486,B3,405.958,0.25,100,117.0
4487,E4,405.958,0.25,100,117.0
4488,D4,406.0,0.25,80,117.0
4489,G#3,406.0,1.0,70,117.0
4490,F#2,406.0,0.5,95,117.0
4491,G#1,406.0,1.0,115,117.0
4492,B2,406.0,0.75,115,117.0
4493,D5,406.0,0.75,115,117.0
4494,A4,406.0,0.75,115,117.0
4495,F#5,406.0,0.75,115,117.0
4496,B1,406.0,1.0,115,117.0
4497,E-3,406.0,1.0,115,117.0
4498,F#2,406.5,0.5,55,117.0
4499,D4,406.75,0.25,80,117.0
4500,C4,406.958,0.75,100,117.0
4501,E-4,406.958,0.75,100,117.0
4502,D4,407.0,0.25,80,117.0
4503,G#3,407.0,1.0,70,117.0
4504,F#2,407.0,0.5,95,117.0
4505,B1,407.0,0.75,115,117.0
4506,E2,407.0,0.75,115,117.0
4507,E5,407.0,0.75,115,117.0
4508,G#4,407.0,0.75,115,117.0
4509,G#5,407.0,0.75,115,117.0
4510,B4,407.0,0.75,115,117.0
4511,E2,407.0,1.0,115,117.0
4512,E-3,407.0,1.0,115,117.0
4513,E-4,407.5,0.25,80,117.0
4514,F#2,407.5,0.5,55,117.0
4515,G#4,407.708,0.25,100,117.0
4516,C#2,407.75,0.25,115,117.0
4517,A2,407.75,0.25,115,117.0
4518,C#5,407.75,0.25,115,117.0
4519,E5,407.75,0.25,115,117.0
4520,E4,407.75,0.25,115,117.0
4521,G#4,407.75,0.25,115,117.0
4522,D4,408.0,0.25,80,117.0
4523,G#3,408.0,1.0,70,117.0
4524,F#2,408.0,0.5,95,117.0
4525,B1,408.0,1.0,115,117.0
4526,E-3,408.0,1.0,115,117.0
4527,F#2,408.5,0.5,55,117.0
4528,A2,408.75,0.25,115,117.0
4529,D4,408.75,0.25,80,117.0
4530,D4,409.0,0.25,80,117.0
4531,G#3,409.0,1.0,70,117.0
4532,F#2,409.0,0.5,95,117.0
4533,C#2,409.0,0.25,115,117.0
4534,A2,409.0,0.25,115,117.0
4535,E4,409.0,0.25,115,117.0
4536,G#4,409.0,0.25,115,117.0
4537,C#5,409.0,0.25,115,117.0
4538,E5,409.0,0.25,115,117.0
4539,E2,409.0,1.0,115,117.0
4540,E-3,409.0,1.0,115,117.0
4541,E-4,409.5,0.25,80,117.0
4542,B1,409.5,0.25,125,117.0
4543,F#2,409.5,0.5,55,117.0
4544,C#2,409.5,0.25,115,117.0
4545,A2,409.5,0.25,115,117.0
4546,E4,409.5,0.25,115,117.0
4547,G#4,409.5,0.25,115,117.0
4548,C#5,409.5,0.25,115,117.0
4549,E5,409.5,0.25,115,117.0
4550,D4,410.0,0.25,80,117.0
4551,G#3,410.0,1.0,70,117.0
4552,F#2,410.0,0.5,95,117.0
4553,B1,410.0,1.0,115,117.0
4554,G#2,410.0,0.75,115,117.0
4555,E4,410.0,0.75,115,117.0
4556,E5,410.0,0.75,115,117.0
4557,G#4,410.0,0.75,115,117.0
4558,B4,410.0,0.75,115,117.0
4559,B1,410.0,1.0,115,117.0
4560,E-3,410.0,1.0,115,117.0
4561,F#2,410.5,0.5,55,117.0
4562,D4,410.75,0.25,80,117.0
4563,D4,411.0,0.25,80,117.0
4564,G#3,411.0,1.0,70,117.0
4565,F#2,411.0,0.5,95,117.0
4566,E2,411.0,0.75,115,117.0
4567,C#3,411.0,0.75,115,117.0
4568,B3,411.0,0.75,115,117.0
4569,E4,411.0,0.75,115,117.0
4570,B4,411.0,0.75,115,117.0
4571,E2,411.0,1.0,115,117.0
4572,E-3,411.0,1.0,115,117.0
4573,E-4,411.5,0.25,80,117.0
4574,F#2,411.5,0.5,55,117.0
4575,A1,411.75,0.25,115,117.0
4576,G#3,412.0,1.0,70,117.0
4577,F#2,412.0,0.5,95,117.0
4578,F#5,412.0,1.0,115,117.0
4579,F#2,412.0,1.0,115,117.0
4580,F#4,412.0,1.0,115,117.0
4581,C#5,412.0,1.0,115,117.0
4582,A5,412.0,1.0,115,117.0
4583,B1,412.0,1.0,115,117.0
4584,E-3,412.0,1.0,115,117.0
4585,D4,412.25,0.125,80,117.0
4586,D4,412.375,0.125,80,117.0
4587,D4,412.5,0.125,80,117.0
4588,F#2,412.5,0.5,55,117.0
4589,D4,412.75,0.125,80,117.0
4590,E-4,413.0,0.125,80,117.0
4591,G#3,413.0,1.0,70,117.0
4592,F#2,413.0,0.5,95,117.0
4593,A1,413.0,0.25,115,117.0
4594,B4,413.0,0.25,115,117.0
4595,G#4,413.0,0.25,115,117.0
4596,G#2,413.0,0.25,115,117.0
4597,E5,413.0,0.25,115,117.0
4598,G#5,413.0,0.25,115,117.0
4599,E2,413.0,1.0,115,117.0
4600,E-3,413.0,1.0,115,117.0
4601,E-4,413.5,0.25,80,117.0
4602,B1,413.5,0.25,125,117.0
4603,F#2,413.5,0.5,55,117.0
4604,A1,413.5,0.25,115,117.0
4605,E-5,413.5,0.25,115,117.0
4606,G#4,413.5,0.25,115,117.0
4607,A2,413.5,0.25,115,117.0
4608,F#5,413.5,0.25,115,117.0
4609,D4,414.0,0.25,80,117.0
4610,G#3,414.0,1.0,70,117.0
4611,F#2,414.0,0.5,95,117.0
4612,G#1,414.0,1.0,115,117.0
4613,B4,414.0,1.0,115,117.0
4614,F#4,414.0,1.0,115,117.0
4615,B2,414.0,1.0,115,117.0
4616,E5,414.0,1.0,115,117.0
4617,A4,414.0,1.0,115,117.0
4618,B1,414.0,1.0,115,117.0
4619,E-3,414.0,1.0,115,117.0
4620,F#2,414.5,0.5,55,117.0
4621,D4,414.75,0.25,80,117.0
4622,D4,415.0,0.25,80,117.0
4623,G#3,415.0,1.0,70,117.0
4624,F#2,415.0,0.5,95,117.0
4625,C#2,415.0,1.0,115,117.0
4626,E-4,415.0,0.75,115,117.0
4627,G#4,415.0,0.75,115,117.0
4628,E-5,415.0,0.75,115,117.0
4629,C3,415.0,0.75,115,117.0
4630,E2,415.0,1.0,115,117.0
4631,E-3,415.0,1.0,115,117.0
4632,E-4,415.5,0.25,80,117.0
4633,F#2,415.5,0.5,55,117.0
4634,E-4,415.75,0.25,80,117.0
4635,C#3,415.75,0.25,115,117.0
4636,B3,415.75,0.25,115,117.0
4637,E4,415.75,0.25,115,117.0
4638,G#4,415.75,0.25,115,117.0
4639,B4,415.75,0.25,115,117.0
4640,E5,415.75,0.25,115,117.0
4641,D4,416.0,0.25,80,117.0
4642,G#3,416.0,1.0,70,117.0
4643,F#2,416.0,0.5,95,117.0
4644,F#1,416.0,1.0,115,117.0
4645,B1,416.0,1.0,115,117.0
4646,E-3,416.0,1.0,115,117.0
4647,F#2,416.5,0.5,55,117.0
4648,D4,416.75,0.25,80,117.0
4649,D4,417.0,0.25,80,117.0
4650,G#3,417.0,1.0,70,117.0
4651,F#2,417.0,0.5,95,117.0
4652,G#1,417.0,0.25,115,117.0
4653,C#6,417.0,0.25,115,117.0
4654,E6,417.0,0.25,115,117.0
4655,G#4,417.0,0.25,115,117.0
4656,C#5,417.0,0.25,115,117.0
4657,E5,417.0,0.25,115,117.0
4658,E2,417.0,1.0,115,117.0
4659,E-3,417.0,1.0,115,117.0
4660,B1,417.5,0.25,125,117.0
4661,F#2,417.5,0.5,55,117.0
4662,A1,417.5,0.25,115,117.0
4663,C#6,417.5,0.25,115,117.0
4664,E6,417.5,0.25,115,117.0
4665,G#4,417.5,0.25,115,117.0
4666,C#5,417.5,0.25,115,117.0
4667,E5,417.5,0.25,115,117.0
4668,E-4,417.75,0.25,80,117.0
4669,E-4,418.0,0.25,80,117.0
4670,G#3,418.0,1.0,70,117.0
4671,F#2,418.0,0.5,95,117.0
4672,B1,418.0,1.0,115,117.0
4673,B5,418.0,0.75,115,117.0
4674,E-6,418.0,0.75,115,117.0
4675,G#4,418.0,0.75,115,117.0
4676,B4,418.0,0.75,115,117.0
4677,E-5,418.0,0.75,115,117.0
4678,B1,418.0,1.0,115,117.0
4679,E-3,418.0,1.0,115,117.0
4680,D4,418.25,0.25,80,117.0
4681,F#2,418.5,0.5,55,117.0
4682,D4,418.75,0.25,60,117.0
4683,D4,419.0,0.25,80,117.0
4684,G#3,419.0,1.0,70,117.0
4685,F#2,419.0,0.5,95,117.0
4686,C2,419.0,0.75,115,117.0
4687,E-5,419.0,0.75,115,117.0
4688,B5,419.0,0.75,115,117.0
4689,F#4,419.0,0.75,115,117.0
4690,B4,419.0,0.75,115,117.0
4691,E2,419.0,1.0,115,117.0
4692,E-3,419.0,1.0,115,117.0
4693,D4,419.5,0.25,60,117.0
4694,F#2,419.5,0.5,55,117.0
4695,D4,419.75,0.25,80,117.0
4696,C#2,419.75,0.25,115,117.0
4697,E5,419.75,0.25,115,117.0
4698,C#6,419.75,0.25,115,117.0
4699,E4,419.75,0.25,115,117.0
4700,G#4,419.75,0.25,115,117.0
4701,C#5,419.75,0.25,115,117.0
4702,B-2,419.75,0.25,110,117.0
4703,B1,419.75,0.25,110,117.0
4704,D4,420.0,0.25,80,117.0
4705,G#3,420.0,1.0,70,117.0
4706,F#2,420.0,0.25,95,117.0
4707,E-3,420.0,1.0,105,117.0
4708,F#2,420.5,0.5,55,117.0
4709,D4,420.75,0.25,80,117.0
4710,D4,421.0,0.25,80,117.0
4711,G#3,421.0,1.0,70,117.0
4712,F#2,421.0,0.5,95,117.0
4713,C#2,421.0,0.25,115,117.0
4714,G#5,421.0,0.25,115,117.0
4715,C#6,421.0,0.25,115,117.0
4716,E4,421.0,0.25,115,117.0
4717,G#4,421.0,0.25,115,117.0
4718,C#5,421.0,0.25,115,117.0
4719,E2,421.0,1.0,115,117.0
4720,E-3,421.0,1.0,115,117.0
4721,E-4,421.5,0.25,80,117.0
4722,B1,421.5,0.25,125,117.0
4723,F#2,421.5,0.5,55,117.0
4724,C#2,421.5,0.25,115,117.0
4725,B5,421.5,0.25,115,117.0
4726,E5,421.5,0.25,115,117.0
4727,B4,421.5,0.25,115,117.0
4728,E6,421.5,0.25,115,117.0
4729,G#4,421.5,0.25,115,117.0
4730,D4,422.0,0.25,80,117.0
4731,G#3,422.0,1.0,70,117.0
4732,F#2,422.0,0.5,95,117.0
4733,G#1,422.0,1.0,115,117.0
4734,D6,422.0,0.75,115,117.0
4735,F#6,422.0,0.75,115,117.0
4736,D5,422.0,0.75,115,117.0
4737,A4,422.0,0.75,115,117.0
4738,F#5,422.0,0.75,115,117.0
4739,B1,422.0,1.0,115,117.0
4740,E-3,422.0,1.0,115,117.0
4741,F#2,422.5,0.5,55,117.0
4742,D4,422.75,0.25,80,117.0
4743,D4,423.0,0.25,80,117.0
4744,G#3,423.0,1.0,70,117.0
4745,F#2,423.0,0.5,95,117.0
4746,B1,423.0,0.75,115,117.0
4747,E6,423.0,0.75,115,117.0
4748,G#6,423.0,0.75,115,117.0
4749,E5,423.0,0.75,115,117.0
4750,G#5,423.0,0.75,115,117.0
4751,B4,423.0,0.75,115,117.0
4752,E2,423.0,1.0,115,117.0
4753,E-3,423.0,1.0,115,117.0
4754,E-4,423.5,0.25,80,117.0
4755,F#2,423.5,0.5,55,117.0
4756,C#2,423.75,0.25,115,117.0
4757,C#6,423.75,0.25,115,117.0
4758,E6,423.75,0.25,115,117.0
4759,C#5,423.75,0.25,115,117.0
4760,E5,423.75,0.25,115,117.0
4761,G#4,423.75,0.25,115,117.0
4762,D4,424.0,0.25,80,117.0
4763,G#3,424.0,1.0,70,117.0
4764,F#2,424.0,0.5,95,117.0
4765,B1,424.0,1.0,115,117.0
4766,E-3,424.0,1.0,115,117.0
4767,F#2,424.5,0.5,55,117.0
4768,D4,424.75,0.25,80,117.0
4769,D4,425.0,0.25,80,117.0
4770,G#3,425.0,1.0,70,117.0
4771,F#2,425.0,0.5,95,117.0
4772,C#2,425.0,0.25,115,117.0
4773,C#6,425.0,0.25,115,117.0
4774,E6,425.0,0.25,115,117.0
4775,G#4,425.0,0.25,115,117.0
4776,C#5,425.0,0.25,115,117.0
4777,E5,425.0,0.25,115,117.0
4778,E2,425.0,1.0,115,117.0
4779,E-3,425.0,1.0,115,117.0
4780,E-4,425.5,0.25,80,117.0
4781,B1,425.5,0.25,125,117.0
4782,F#2,425.5,0.5,55,117.0
4783,C#2,425.5,0.25,115,117.0
4784,C#6,425.5,0.25,115,117.0
4785,E6,425.5,0.25,115,117.0
4786,G#4,425.5,0.25,115,117.0
4787,C#5,425.5,0.25,115,117.0
4788,E5,425.5,0.25,115,117.0
4789,D4,426.0,0.25,80,117.0
4790,G#3,426.0,1.0,70,117.0
4791,F#2,426.0,0.5,95,117.0
4792,B1,426.0,1.0,115,117.0
4793,B5,426.0,0.75,115,117.0
4794,E6,426.0,0.75,115,117.0
4795,E5,426.0,0.75,115,117.0
4796,G#4,426.0,0.75,115,117.0
4797,B4,426.0,0.75,115,117.0
4798,B1,426.0,1.0,115,117.0
4799,E-3,426.0,1.0,115,117.0
4800,F#2,426.5,0.5,55,117.0
4801,D4,426.75,0.25,80,117.0
4802,D4,427.0,0.25,80,117.0
4803,G#3,427.0,1.0,70,117.0
4804,F#2,427.0,0.5,95,117.0
4805,E2,427.0,0.75,115,117.0
4806,E5,427.0,0.75,115,117.0
4807,B5,427.0,0.75,115,117.0
4808,B3,427.0,0.75,115,117.0
4809,E4,427.0,0.75,115,117.0
4810,B4,427.0,0.75,115,117.0
4811,E2,427.0,1.0,115,117.0
4812,E-3,427.0,1.0,115,117.0
4813,E-4,427.5,0.25,80,117.0
4814,F#2,427.5,0.5,55,117.0
4815,A1,427.75,0.25,115,117.0
4816,G#3,428.0,1.0,70,117.0
4817,F#2,428.0,0.5,95,117.0
4818,F#6,428.0,1.0,115,117.0
4819,A6,428.0,1.0,115,117.0
4820,F#5,428.0,1.0,115,117.0
4821,C#5,428.0,1.0,115,117.0
4822,A5,428.0,1.0,115,117.0
4823,B1,428.0,1.0,115,117.0
4824,E-3,428.0,1.0,115,117.0
4825,D4,428.25,0.125,80,117.0
4826,D4,428.375,0.125,80,117.0
4827,D4,428.5,0.125,80,117.0
4828,F#2,428.5,0.5,55,117.0
4829,D4,428.75,0.125,80,117.0
4830,E-4,429.0,0.125,80,117.0
4831,G#3,429.0,1.0,70,117.0
4832,F#2,429.0,0.5,95,117.0
4833,A1,429.0,0.25,115,117.0
4834,E6,429.0,0.25,115,117.0
4835,G#6,429.0,0.25,115,117.0
4836,B4,429.0,0.25,115,117.0
4837,E5,429.0,0.25,115,117.0
4838,G#5,429.0,0.25,115,117.0
4839,E2,429.0,1.0,115,117.0
4840,E-3,429.0,1.0,115,117.0
4841,E-4,429.5,0.25,80,117.0
4842,B1,429.5,0.25,125,117.0
4843,F#2,429.5,0.5,55,117.0
4844,A1,429.5,0.25,115,117.0
4845,E-6,429.5,0.25,115,117.0
4846,F#6,429.5,0.25,115,117.0
4847,E-5,429.5,0.25,115,117.0
4848,G#4,429.5,0.25,115,117.0
4849,F#5,429.5,0.25,115,117.0
4850,D4,430.0,0.25,80,117.0
4851,G#3,430.0,1.0,70,117.0
4852,F#2,430.0,0.5,95,117.0
4853,G#1,430.0,1.0,115,117.0
4854,B5,430.0,1.0,115,117.0
4855,E6,430.0,1.0,115,117.0
4856,B4,430.0,1.0,115,117.0
4857,F#4,430.0,1.0,115,117.0
4858,E5,430.0,1.0,115,117.0
4859,A4,430.0,1.0,115,117.0
4860,B1,430.0,1.0,115,117.0
4861,E-3,430.0,1.0,115,117.0
4862,F#2,430.5,0.5,55,117.0
4863,D4,430.75,0.25,80,117.0
4864,D4,431.0,0.25,80,117.0
4865,G#3,431.0,1.0,70,117.0
4866,F#2,431.0,0.5,95,117.0
4867,C#2,431.0,1.0,115,117.0
4868,E-6,431.0,0.75,115,117.0
4869,E-4,431.0,0.75,115,117.0
4870,G#4,431.0,0.75,115,117.0
4871,E-5,431.0,0.75,115,117.0
4872,E2,431.0,1.0,115,117.0
4873,E-3,431.0,1.0,115,117.0
4874,E-4,431.5,0.25,80,117.0
4875,F#2,431.5,0.5,55,117.0
4876,E-4,431.75,0.25,80,117.0
4877,B5,431.75,0.25,115,117.0
4878,E6,431.75,0.25,115,117.0
4879,E4,431.75,0.25,115,117.0
4880,G#4,431.75,0.25,115,117.0
4881,E5,431.75,0.25,115,117.0
4882,D4,432.0,0.25,80,117.0
4883,G#3,432.0,1.0,70,117.0
4884,F#2,432.0,0.5,95,117.0
4885,F#1,432.0,1.0,115,117.0
4886,E2,432.0,1.0,118,117.0
4887,B1,432.0,1.0,118,117.0
4888,E-3,432.0,1.0,118,117.0
4889,F#2,432.5,0.5,55,117.0
4890,D4,432.75,0.25,80,117.0
4891,B1,432.75,0.25,125,117.0
4892,D4,433.0,0.25,80,117.0
4893,G#3,433.0,1.0,70,117.0
4894,F#2,433.0,0.5,95,117.0
4895,G#1,433.0,0.25,115,117.0
4896,C#6,433.0,0.25,115,117.0
4897,E6,433.0,0.25,115,117.0
4898,G#4,433.0,0.25,115,117.0
4899,C#5,433.0,0.25,115,117.0
4900,E5,433.0,0.25,115,117.0
4901,E2,433.0,1.0,115,117.0
4902,E-3,433.0,1.0,115,117.0
4903,B1,433.5,0.25,125,117.0
4904,F#2,433.5,0.5,55,117.0
4905,A1,433.5,0.25,115,117.0
4906,C#6,433.5,0.25,115,117.0
4907,E6,433.5,0.25,115,117.0
4908,G#4,433.5,0.25,115,117.0
4909,C#5,433.5,0.25,115,117.0
4910,E5,433.5,0.25,115,117.0
4911,E-4,433.75,0.25,80,117.0
4912,E-4,434.0,0.25,80,117.0
4913,G#3,434.0,1.0,70,117.0
4914,E2,434.0,0.25,125,117.0
4915,F#2,434.0,0.5,95,117.0
4916,E-3,434.0,1.0,105,117.0
4917,B1,434.0,1.0,115,117.0
4918,B5,434.0,0.75,115,117.0
4919,E-6,434.0,0.75,115,117.0
4920,G#4,434.0,0.75,115,117.0
4921,B4,434.0,0.75,115,117.0
4922,E-5,434.0,0.75,115,117.0
4923,D4,434.25,0.25,80,117.0
4924,E2,434.5,0.25,125,117.0
4925,F#2,434.5,0.5,55,117.0
4926,D4,434.75,0.25,60,117.0
4927,D4,435.0,0.25,80,117.0
4928,G#3,435.0,1.0,70,117.0
4929,E-3,435.0,1.0,105,117.0
4930,B1,435.0,0.75,115,117.0
4931,E-5,435.0,0.75,115,117.0
4932,B5,435.0,0.75,115,117.0
4933,F#4,435.0,0.75,115,117.0
4934,B4,435.0,0.75,115,117.0
4935,F#2,435.0,0.5,110,117.0
4936,E2,435.0,0.5,110,117.0
4937,E2,435.25,0.75,125,117.0
4938,D4,435.5,0.25,60,117.0
4939,F#2,435.5,0.5,55,117.0
4940,D4,435.75,0.25,80,117.0
4941,C#2,435.75,0.25,115,117.0
4942,E5,435.75,0.25,115,117.0
4943,C#6,435.75,0.25,115,117.0
4944,E4,435.75,0.25,115,117.0
4945,G#4,435.75,0.25,115,117.0
4946,C#5,435.75,0.25,115,117.0
4947,G#3,435.75,0.25,110,117.0
4948,B1,435.75,0.25,110,117.0
4949,D4,436.0,0.25,80,117.0
4950,G#3,436.0,1.0,70,117.0
4951,F#2,436.0,0.5,95,117.0
4952,C#3,436.0,1.0,115,117.0
4953,B1,436.0,1.0,115,117.0
4954,F#2,436.5,0.5,55,117.0
4955,D4,436.75,0.25,80,117.0
4956,D4,437.0,0.25,80,117.0
4957,G#3,437.0,1.0,70,117.0
4958,F#2,437.0,0.5,95,117.0
4959,C#2,437.0,0.25,115,117.0
4960,G#5,437.0,0.25,115,117.0
4961,C#6,437.0,0.25,115,117.0
4962,E4,437.0,0.25,115,117.0
4963,G#4,437.0,0.25,115,117.0
4964,C#5,437.0,0.25,115,117.0
4965,E2,437.0,1.0,115,117.0
4966,E-3,437.0,1.0,115,117.0
4967,E-4,437.5,0.25,80,117.0
4968,B1,437.5,0.25,125,117.0
4969,F#2,437.5,0.5,55,117.0
4970,C#2,437.5,0.25,115,117.0
4971,B5,437.5,0.25,115,117.0
4972,E5,437.5,0.25,115,117.0
4973,B4,437.5,0.25,115,117.0
4974,E6,437.5,0.25,115,117.0
4975,G#4,437.5,0.25,115,117.0
4976,D4,438.0,0.25,80,117.0
4977,G#3,438.0,1.0,70,117.0
4978,F#2,438.0,0.5,95,117.0
4979,G#1,438.0,1.0,115,117.0
4980,D6,438.0,0.75,115,117.0
4981,F#6,438.0,0.75,115,117.0
4982,D5,438.0,0.75,115,117.0
4983,A4,438.0,0.75,115,117.0
4984,F#5,438.0,0.75,115,117.0
4985,B1,438.0,1.0,115,117.0
4986,E-3,438.0,1.0,115,117.0
4987,F#2,438.5,0.5,55,117.0
4988,D4,438.75,0.25,80,117.0
4989,D4,439.0,0.25,80,117.0
4990,G#3,439.0,1.0,70,117.0
4991,F#2,439.0,0.5,95,117.0
4992,B1,439.0,0.75,115,117.0
4993,E6,439.0,0.75,115,117.0
4994,G#6,439.0,0.75,115,117.0
4995,E5,439.0,0.75,115,117.0
4996,G#5,439.0,0.75,115,117.0
4997,B4,439.0,0.75,115,117.0
4998,E2,439.0,1.0,115,117.0
4999,E-3,439.0,1.0,115,117.0
5000,E-4,439.5,0.25,80,117.0
5001,F#2,439.5,0.5,55,117.0
5002,C#2,439.75,0.25,115,117.0
5003,C#6,439.75,0.25,115,117.0
5004,E6,439.75,0.25,115,117.0
5005,C#5,439.75,0.25,115,117.0
5006,E5,439.75,0.25,115,117.0
5007,G#4,439.75,0.25,115,117.0
5008,D4,440.0,0.25,80,117.0
5009,G#3,440.0,1.0,70,117.0
5010,F#2,440.0,0.5,95,117.0
5011,B1,440.0,1.0,115,117.0
5012,E-3,440.0,1.0,115,117.0
5013,F#2,440.5,0.5,55,117.0
5014,D4,440.75,0.25,80,117.0
5015,D4,441.0,0.25,80,117.0
5016,G#3,441.0,1.0,70,117.0
5017,F#2,441.0,0.5,95,117.0
5018,C#2,441.0,0.25,115,117.0
5019,C#6,441.0,0.25,115,117.0
5020,E6,441.0,0.25,115,117.0
5021,G#4,441.0,0.25,115,117.0
5022,C#5,441.0,0.25,115,117.0
5023,E5,441.0,0.25,115,117.0
5024,E2,441.0,1.0,115,117.0
5025,E-3,441.0,1.0,115,117.0
5026,E-4,441.5,0.25,80,117.0
5027,B1,441.5,0.25,125,117.0
5028,F#2,441.5,0.5,55,117.0
5029,C#2,441.5,0.25,115,117.0
5030,C#6,441.5,0.25,115,117.0
5031,E6,441.5,0.25,115,117.0
5032,G#4,441.5,0.25,115,117.0
5033,C#5,441.5,0.25,115,117.0
5034,E5,441.5,0.25,115,117.0
5035,D4,442.0,0.25,80,117.0
5036,G#3,442.0,1.0,70,117.0
5037,F#2,442.0,0.5,95,117.0
5038,B1,442.0,1.0,115,117.0
5039,B5,442.0,0.75,115,117.0
5040,E6,442.0,0.75,115,117.0
5041,E5,442.0,0.75,115,117.0
5042,G#4,442.0,0.75,115,117.0
5043,B4,442.0,0.75,115,117.0
5044,B1,442.0,1.0,115,117.0
5045,E-3,442.0,1.0,115,117.0
5046,F#2,442.5,0.5,55,117.0
5047,D4,442.75,0.25,80,117.0
5048,D4,443.0,0.25,80,117.0
5049,G#3,443.0,1.0,70,117.0
5050,F#2,443.0,0.5,95,117.0
5051,E2,443.0,0.75,115,117.0
5052,E5,443.0,0.75,115,117.0
5053,B5,443.0,0.75,115,117.0
5054,B3,443.0,0.75,115,117.0
5055,E4,443.0,0.75,115,117.0
5056,B4,443.0,0.75,115,117.0
5057,E2,443.0,1.0,115,117.0
5058,E-3,443.0,1.0,115,117.0
5059,E-4,443.5,0.25,80,117.0
5060,F#2,443.5,0.5,55,117.0
5061,A1,443.75,0.25,115,117.0
5062,G#3,444.0,1.0,70,117.0
5063,F#2,444.0,0.5,95,117.0
5064,F#6,444.0,1.0,115,117.0
5065,A6,444.0,1.0,115,117.0
5066,F#5,444.0,1.0,115,117.0
5067,C#5,444.0,1.0,115,117.0
5068,A5,444.0,1.0,115,117.0
5069,B1,444.0,1.0,115,117.0
5070,E-3,444.0,1.0,115,117.0
5071,D4,444.25,0.125,80,117.0
5072,D4,444.375,0.125,80,117.0
5073,D4,444.5,0.125,80,117.0
5074,F#2,444.5,0.5,55,117.0
5075,D4,444.75,0.125,80,117.0
5076,E2,444.75,0.25,125,117.0
5077,E-4,445.0,0.125,80,117.0
5078,G#3,445.0,1.0,70,117.0
5079,F#2,445.0,0.5,95,117.0
5080,E-3,445.0,1.0,105,117.0
5081,A1,445.0,0.25,115,117.0
5082,E6,445.0,0.25,115,117.0
5083,G#6,445.0,0.25,115,117.0
5084,B4,445.0,0.25,115,117.0
5085,E5,445.0,0.25,115,117.0
5086,G#5,445.0,0.25,115,117.0
5087,E-4,445.5,0.25,80,117.0
5088,B1,445.5,0.25,125,117.0
5089,F#2,445.5,0.5,55,117.0
5090,A1,445.5,0.25,115,117.0
5091,E-6,445.5,0.25,115,117.0
5092,F#6,445.5,0.25,115,117.0
5093,E-5,445.5,0.25,115,117.0
5094,G#4,445.5,0.25,115,117.0
5095,F#5,445.5,0.25,115,117.0
5096,D4,446.0,0.25,80,117.0
5097,G#3,446.0,1.0,70,117.0
5098,F#2,446.0,0.5,95,117.0
5099,G#1,446.0,1.0,115,117.0
5100,B5,446.0,1.0,115,117.0
5101,E6,446.0,1.0,115,117.0
5102,B4,446.0,1.0,115,117.0
5103,F#4,446.0,1.0,115,117.0
5104,E5,446.0,1.0,115,117.0
5105,A4,446.0,1.0,115,117.0
5106,B1,446.0,1.0,115,117.0
5107,E-3,446.0,1.0,115,117.0
5108,F#2,446.5,0.5,55,117.0
5109,D4,446.75,0.25,80,117.0
5110,D4,447.0,0.25,80,117.0
5111,G#3,447.0,1.0,70,117.0
5112,F#2,447.0,0.5,95,117.0
5113,C#2,447.0,1.0,115,117.0
5114,E-6,447.0,0.75,115,117.0
5115,E-4,447.0,0.75,115,117.0
5116,G#4,447.0,0.75,115,117.0
5117,E-5,447.0,0.75,115,117.0
5118,E2,447.0,1.0,115,117.0
5119,E-3,447.0,1.0,115,117.0
5120,E-4,447.5,0.25,80,117.0
5121,F#2,447.5,0.5,55,117.0
5122,E-4,447.75,0.25,80,117.0
5123,B3,447.75,0.25,115,117.0
5124,E4,447.75,0.25,115,117.0
5125,G#4,447.75,0.25,115,117.0
5126,B4,447.75,0.25,115,117.0
5127,E5,447.75,0.25,115,117.0
5128,D4,448.0,0.25,80,117.0
5129,G#3,448.0,1.0,70,117.0
5130,E2,448.0,0.25,125,117.0
5131,F#2,448.0,0.5,95,117.0
5132,E-3,448.0,1.0,105,117.0
5133,F#1,448.0,1.0,115,117.0
5134,E6,448.25,0.25,105,117.0
5135,C#6,448.5,0.25,105,117.0
5136,B1,448.5,0.25,125,117.0
5137,F#2,448.5,0.5,55,117.0
5138,B5,448.75,0.25,105,117.0
5139,D4,448.75,0.25,80,117.0
5140,E6,449.0,0.5,105,117.0
5141,D4,449.0,0.25,80,117.0
5142,G#3,449.0,1.0,70,117.0
5143,F#2,449.0,0.5,95,117.0
5144,G#1,449.0,0.25,115,117.0
5145,E2,449.0,1.0,115,117.0
5146,E-3,449.0,1.0,115,117.0
5147,C#6,449.5,0.25,105,117.0
5148,B1,449.5,0.25,125,117.0
5149,F#2,449.5,0.5,55,117.0
5150,A1,449.5,0.25,115,117.0
5151,B5,449.75,0.25,105,117.0
5152,E-4,449.75,0.25,80,117.0
5153,E-4,450.0,2.0,105,117.0
5154,G#5,450.0,0.25,105,117.0
5155,E-4,450.0,0.25,80,117.0
5156,G#3,450.0,1.0,70,117.0
5157,F#2,450.0,0.5,95,117.0
5158,B1,450.0,1.0,115,117.0
5159,B3,450.0,2.0,105,117.0
5160,G#3,450.0,2.0,105,117.0
5161,G#4,450.0,2.0,105,117.0
5162,E2,450.0,1.0,115,117.0
5163,E-3,450.0,1.0,115,117.0
5164,F#5,450.25,0.25,105,117.0
5165,D4,450.25,0.25,80,117.0
5166,E5,450.5,0.25,105,117.0
5167,B1,450.5,0.25,125,117.0
5168,F#2,450.5,0.5,55,117.0
5169,C#5,450.75,0.25,105,117.0
5170,D4,450.75,0.25,60,117.0
5171,D4,451.0,0.25,80,117.0
5172,G#3,451.0,1.0,70,117.0
5173,E-3,451.0,1.0,105,117.0
5174,C2,451.0,0.75,115,117.0
5175,F#2,451.0,0.5,110,117.0
5176,E2,451.0,0.5,110,117.0
5177,E2,451.25,0.75,125,117.0
5178,C#5,451.5,0.25,105,117.0
5179,D4,451.5,0.25,60,117.0
5180,F#2,451.5,0.5,55,117.0
5181,E5,451.75,0.25,105,117.0
5182,D4,451.75,0.25,80,117.0
5183,C#2,451.75,0.25,115,117.0
5184,B-2,451.75,0.25,110,117.0
5185,B1,451.75,0.25,110,117.0
5186,E-4,452.0,2.0,105,117.0
5187,E5,452.0,0.5,105,117.0
5188,D4,452.0,0.25,80,117.0
5189,G#3,452.0,1.0,70,117.0
5190,F#2,452.0,0.25,95,117.0
5191,B3,452.0,1.5,105,117.0
5192,G#3,452.0,1.5,105,117.0
5193,G#4,452.0,1.5,105,117.0
5194,C#5,452.5,0.25,105,117.0
5195,F#2,452.5,0.5,55,117.0
5196,B4,452.75,0.25,105,117.0
5197,D4,452.75,0.25,80,117.0
5198,D4,453.0,0.25,80,117.0
5199,G#3,453.0,1.0,70,117.0
5200,F#2,453.0,0.5,95,117.0
5201,C#2,453.0,0.25,115,117.0
5202,C#3,453.0,1.0,115,117.0
5203,E2,453.0,1.0,115,117.0
5204,E4,453.25,0.25,105,117.0
5205,B3,453.25,0.75,105,117.0
5206,G#3,453.25,0.75,105,117.0
5207,G#4,453.25,0.75,105,117.0
5208,E-4,453.5,0.25,80,117.0
5209,B1,453.5,0.25,125,117.0
5210,F#2,453.5,0.5,55,117.0
5211,C#2,453.5,0.25,115,117.0
5212,C#4,453.75,2.25,105,117.0
5213,E4,453.75,2.25,105,117.0
5214,G#3,453.75,2.25,105,117.0
5215,D4,454.0,0.25,80,117.0
5216,G#3,454.0,1.0,70,117.0
5217,F#2,454.0,0.5,95,117.0
5218,G#1,454.0,1.0,115,117.0
5219,B1,454.0,1.0,115,117.0
5220,E-3,454.0,1.0,115,117.0
5221,D5,454.25,0.125,105,117.0
5222,E5,454.375,0.125,105,117.0
5223,A5,454.5,0.25,105,117.0
5224,F#2,454.5,0.5,55,117.0
5225,C#6,454.75,0.25,105,117.0
5226,D4,454.75,0.25,80,117.0
5227,C6,455.0,0.25,105,117.0
5228,D4,455.0,0.25,80,117.0
5229,G#3,455.0,1.0,70,117.0
5230,F#2,455.0,0.5,95,117.0
5231,B1,455.0,0.75,115,117.0
5232,E2,455.0,1.0,115,117.0
5233,E-3,455.0,1.0,115,117.0
5234,A5,455.25,0.25,105,117.0
5235,F#5,455.5,0.25,105,117.0
5236,E-4,455.5,0.25,80,117.0
5237,F#2,455.5,0.5,55,117.0
5238,D5,455.75,0.25,105,117.0
5239,C#2,455.75,0.25,115,117.0
5240,B5,456.0,0.25,105,117.0
5241,D4,456.0,0.25,80,117.0
5242,G#3,456.0,1.0,70,117.0
5243,F#2,456.0,0.5,95,117.0
5244,B1,456.0,1.0,115,117.0
5245,E-3,456.0,1.0,115,117.0
5246,G#5,456.25,0.25,105,117.0
5247,F#2,456.5,0.5,55,117.0
5248,E-4,456.5,0.25,105,117.0
5249,G#4,456.5,0.25,105,117.0
5250,G#3,456.5,0.25,105,117.0
5251,B3,456.5,0.25,105,117.0
5252,F#5,456.5,0.25,105,117.0
5253,D4,456.75,0.25,80,117.0
5254,C#5,457.0,0.25,105,117.0
5255,D4,457.0,0.25,80,117.0
5256,G#3,457.0,1.0,70,117.0
5257,F#2,457.0,0.5,95,117.0
5258,C#2,457.0,0.25,115,117.0
5259,E2,457.0,1.0,115,117.0
5260,E-3,457.0,1.0,115,117.0
5261,C#5,457.5,0.25,105,117.0
5262,E-4,457.5,0.25,80,117.0
5263,B1,457.5,0.25,125,117.0
5264,F#2,457.5,0.5,55,117.0
5265,C#2,457.5,0.25,115,117.0
5266,G#4,457.75,0.25,105,117.0
5267,G#3,457.75,0.25,105,117.0
5268,C#4,457.75,0.25,105,117.0
5269,E4,457.75,0.25,105,117.0
5270,E5,457.75,0.25,105,117.0
5271,D4,458.0,0.25,80,117.0
5272,G#3,458.0,1.0,70,117.0
5273,F#2,458.0,0.5,95,117.0
5274,B1,458.0,1.0,115,117.0
5275,B1,458.0,1.0,115,117.0
5276,E-3,458.0,1.0,115,117.0
5277,B5,458.5,0.25,105,117.0
5278,F#2,458.5,0.5,55,117.0
5279,D4,458.75,0.25,80,117.0
5280,D4,459.0,0.25,80,117.0
5281,G#3,459.0,1.0,70,117.0
5282,F#2,459.0,0.5,95,117.0
5283,E2,459.0,0.75,115,117.0
5284,E2,459.0,1.0,115,117.0
5285,E-3,459.0,1.0,115,117.0
5286,C#6,459.5,0.25,105,117.0
5287,E-4,459.5,0.25,80,117.0
5288,F#2,459.5,0.5,55,117.0
5289,E6,459.75,0.25,105,117.0
5290,A1,459.75,0.25,115,117.0
5291,G#6,460.0,0.25,105,117.0
5292,G#3,460.0,1.0,70,117.0
5293,F#2,460.0,0.5,95,117.0
5294,F#4,460.0,2.25,95,117.0
5295,C#4,460.0,2.25,95,117.0
5296,F#3,460.0,2.25,95,117.0
5297,A3,460.0,2.25,95,117.0
5298,B1,460.0,1.0,115,117.0
5299,E-3,460.0,1.0,115,117.0
5300,B6,460.25,0.25,105,117.0
5301,D4,460.25,0.125,80,117.0
5302,D4,460.375,0.125,80,117.0
5303,C#7,460.5,0.25,105,117.0
5304,D4,460.5,0.125,80,117.0
5305,F#2,460.5,0.5,55,117.0
5306,E7,460.75,0.25,105,117.0
5307,D4,460.75,0.125,80,117.0
5308,E-4,461.0,0.125,80,117.0
5309,G#3,461.0,1.0,70,117.0
5310,F#2,461.0,0.5,95,117.0
5311,A1,461.0,0.25,115,117.0
5312,E2,461.0,1.0,115,117.0
5313,E-3,461.0,1.0,115,117.0
5314,C#7,461.25,0.25,105,117.0
5315,E-4,461.5,0.25,80,117.0
5316,B1,461.5,0.25,125,117.0
5317,F#2,461.5,0.5,55,117.0
5318,A1,461.5,0.25,115,117.0
5319,B6,461.75,0.25,105,117.0
5320,G#6,462.0,0.25,105,117.0
5321,D4,462.0,0.25,80,117.0
5322,G#3,462.0,1.0,70,117.0
5323,F#2,462.0,0.5,95,117.0
5324,G#1,462.0,1.0,115,117.0
5325,B1,462.0,1.0,115,117.0
5326,E-3,462.0,1.0,115,117.0
5327,F#6,462.25,0.25,105,117.0
5328,F#2,462.5,0.5,55,117.0
5329,A3,462.5,0.25,97,117.0
5330,C#4,462.5,0.25,97,117.0
5331,E4,462.5,0.25,97,117.0
5332,G#4,462.5,0.25,97,117.0
5333,E6,462.5,0.25,97,117.0
5334,C#6,462.75,0.25,105,117.0
5335,D4,462.75,0.25,80,117.0
5336,B5,463.0,0.25,105,117.0
5337,D4,463.0,0.25,80,117.0
5338,G#3,463.0,1.0,70,117.0
5339,F#2,463.0,0.5,95,117.0
5340,C#2,463.0,1.0,115,117.0
5341,E2,463.0,1.0,115,117.0
5342,E-3,463.0,1.0,115,117.0
5343,G#5,463.25,0.25,105,117.0
5344,F#5,463.5,0.25,105,117.0
5345,E-4,463.5,0.25,80,117.0
5346,F#2,463.5,0.5,55,117.0
5347,E5,463.75,0.25,105,117.0
5348,E-4,463.75,0.25,80,117.0
5349,G#4,464.0,1.5,95,117.0
5350,E4,464.0,2.0,95,117.0
5351,F#5,464.0,0.25,105,117.0
5352,D4,464.0,0.25,80,117.0
5353,G#3,464.0,1.0,70,117.0
5354,F#2,464.0,0.5,95,117.0
5355,F#1,464.0,1.0,115,117.0
5356,C#4,464.0,2.25,95,117.0
5357,B3,464.0,2.25,95,117.0
5358,E2,464.0,1.0,118,117.0
5359,B1,464.0,1.0,118,117.0
5360,E-3,464.0,1.0,118,117.0
5361,F#5,464.25,0.25,105,117.0
5362,E5,464.5,0.25,105,117.0
5363,F#2,464.5,0.5,55,117.0
5364,C#5,464.75,0.25,105,117.0
5365,D4,464.75,0.25,80,117.0
5366,B1,464.75,0.25,125,117.0
5367,D4,465.0,0.25,80,117.0
5368,G#3,465.0,1.0,70,117.0
5369,F#2,465.0,0.5,95,117.0
5370,E2,465.0,0.875,125,117.0
5371,E-3,465.0,1.0,105,117.0
5372,G#1,465.0,0.25,115,117.0
5373,G#4,465.25,1.0,105,117.0
5374,B1,465.5,0.25,125,117.0
5375,F#2,465.5,0.5,55,117.0
5376,A1,465.5,0.25,115,117.0
5377,E4,465.75,0.5,105,117.0
5378,E-4,465.75,0.25,80,117.0
5379,E2,465.75,0.25,55,117.0
5380,E2,465.875,0.125,95,117.0
5381,F#4,466.0,0.25,105,117.0
5382,E-4,466.0,0.25,80,117.0
5383,G#3,466.0,1.0,70,117.0
5384,E2,466.0,0.25,125,117.0
5385,F#2,466.0,0.5,95,117.0
5386,B1,466.0,1.0,115,117.0
5387,G#4,466.25,0.25,105,117.0
5388,D4,466.25,0.25,80,117.0
5389,E2,466.25,0.25,125,117.0
5390,E4,466.5,0.25,105,117.0
5391,D3,466.5,0.25,105,117.0
5392,C#4,466.75,0.25,105,117.0
5393,D4,466.75,0.25,60,117.0
5394,C3,466.75,0.25,105,117.0
5395,D4,467.0,0.25,80,117.0
5396,G#3,467.0,1.0,70,117.0
5397,A2,467.0,0.25,105,117.0
5398,E-2,467.0,0.75,115,117.0
5399,C#4,467.25,0.25,105,117.0
5400,G2,467.25,0.25,105,117.0
5401,E4,467.5,0.25,105,117.0
5402,D4,467.5,0.25,60,117.0
5403,F2,467.5,0.25,105,117.0
5404,C#4,467.75,0.25,105,117.0
5405,D4,467.75,0.25,80,117.0
5406,E2,467.75,0.25,115,117.0
5407,C#3,467.75,0.25,118,117.0
5408,E2,467.75,0.25,118,117.0
5409,B1,467.75,0.25,118,117.0
5410,F#4,468.0,0.25,105,117.0
5411,F#2,468.0,0.25,85,117.0
5412,C#4,468.25,0.25,105,117.0
5413,G#4,468.5,0.25,105,117.0
5414,E4,468.75,0.25,105,117.0
5415,B4,469.0,0.25,105,117.0
5416,G#4,469.25,0.25,105,117.0
5417,C#5,469.5,0.25,105,117.0
5418,E5,469.75,0.25,105,117.0
5419,C#5,470.0,0.25,105,117.0
5420,F#5,470.25,0.25,105,117.0
5421,C#5,470.5,0.25,105,117.0
5422,G#3,470.5,1.5,105,117.0
5423,C#4,470.5,1.5,105,117.0
5424,E4,470.5,1.5,105,117.0
5425,G#5,470.75,0.25,105,117.0
5426,C#5,471.0,0.25,105,117.0
5427,B5,471.25,0.25,105,117.0
5428,C#5,471.5,0.25,105,117.0
5429,C#6,471.75,0.25,105,117.0
5430,E5,472.0,0.25,105,117.0
5431,G#3,472.0,4.0,105,117.0
5432,F#4,472.0,4.0,105,117.0
5433,B3,472.0,4.0,105,117.0
5434,C#4,472.0,4.0,105,117.0
5435,E-6,472.25,0.25,105,117.0
5436,E5,472.5,0.25,105,117.0
5437,E6,472.75,0.25,105,117.0
5438,E5,472.875,0.125,105,117.0
5439,E6,473.0,0.125,105,117.0
5440,E5,473.125,0.125,105,117.0
5441,E6,473.25,0.125,105,117.0
5442,E5,473.375,0.125,105,117.0
5443,E6,473.5,0.125,105,117.0
5444,E5,473.625,0.125,105,117.0
5445,E6,473.75,0.125,105,117.0
5446,E5,473.875,0.125,105,117.0
5447,E6,474.0,0.125,105,117.0
5448,E5,474.125,0.125,105,117.0
5449,E6,474.25,0.125,105,117.0
5450,E5,474.375,0.125,105,117.0
5451,E6,474.5,0.125,105,117.0
5452,E5,474.625,0.125,105,117.0
5453,E6,474.75,0.125,105,117.0
5454,E5,474.875,0.125,105,117.0
5455,E6,475.0,0.125,105,117.0
5456,E5,475.125,0.125,105,117.0
5457,E6,475.25,0.125,105,117.0
5458,C#7,475.5,0.25,105,117.0
5459,B6,475.75,0.25,105,117.0
5460,C#7,476.0,0.25,105,117.0
5461,C#4,476.0,2.0,105,117.0
5462,F#4,476.0,2.0,105,117.0
5463,A4,476.0,2.0,105,117.0
5464,B6,476.5,0.25,105,117.0
5465,A6,476.75,0.25,105,117.0
5466,G#6,477.0,0.25,105,117.0
5467,F#6,477.25,0.25,105,117.0
5468,E6,477.5,0.25,105,117.0
5469,C#6,477.75,0.25,105,117.0
5470,B5,478.0,0.25,105,117.0
5471,E6,478.25,0.25,105,117.0
5472,B5,478.5,0.25,105,117.0
5473,G#3,478.5,1.5,105,117.0
5474,E4,478.5,1.5,105,117.0
5475,B3,478.5,1.5,105,117.0
5476,G#5,478.75,0.25,105,117.0
5477,F#5,479.0,0.25,105,117.0
5478,E5,479.25,0.25,105,117.0
5479,F#5,479.5,0.25,105,117.0
5480,E5,479.75,0.25,105,117.0
5481,E5,480.0,0.5,105,117.0
5482,C#5,480.5,0.25,105,117.0
5483,E4,480.75,0.75,105,117.0
5484,B4,480.75,0.25,105,117.0
5485,G#3,480.75,3.25,105,117.0
5486,B3,480.75,3.25,105,117.0
5487,G#4,481.0,0.25,105,117.0
5488,E4,481.25,2.75,105,117.0
5489,F#4,481.5,0.25,105,117.0
5490,G#4,481.75,0.25,105,117.0
5491,B4,482.0,0.25,105,117.0
5492,G#4,482.25,0.75,105,117.0
5493,B4,483.5,0.25,105,117.0
5494,F#4,483.5,0.25,105,117.0
5495,E4,483.75,0.25,105,117.0
5496,F#4,483.958,21/500,105,117.0
5497,F#4,484.0,26/125,105,117.0
5498,B4,484.0,0.75,105,117.0
5499,G#4,484.0,0.75,105,117.0
5500,G#3,484.5,0.25,90,117.0
5501,B3,484.5,0.25,90,117.0
5502,F#4,484.75,0.25,105,117.0
5503,B4,484.75,0.25,105,117.0
5504,C#4,485.25,0.25,105,117.0
5505,A3,485.25,0.25,105,117.0
5506,E4,485.458,0.25,105,117.0
5507,F#4,485.5,0.75,105,117.0
5508,A4,485.5,0.75,105,117.0
5509,E4,486.25,0.25,105,117.0
5510,A4,486.25,0.25,105,117.0
5511,D4,486.5,0.25,105,117.0
5512,C#4,486.75,0.25,105,117.0
5513,B3,487.0,0.25,105,117.0
5514,G#3,487.0,0.25,105,117.0
5515,F#4,487.25,0.25,105,117.0
5516,G#3,487.75,0.25,85,117.0
5517,C#4,487.75,0.25,85,117.0
5518,E4,487.75,0.25,85,117.0
5519,F#4,487.75,0.25,85,117.0
5520,G#3,488.0,4.0,85,117.0
5521,C#4,488.0,4.0,85,117.0
5522,E4,488.0,4.0,85,117.0
5523,F#4,488.0,4.0,85,117.0
5524,B4,488.167,167/1000,105,117.0
5525,E5,488.333,167/1000,105,117.0
5526,G#5,488.5,167/1000,105,117.0
5527,B5,488.667,167/1000,105,117.0
5528,C#6,488.833,167/1000,105,117.0
5529,E6,489.0,167/1000,105,117.0
5530,B5,489.167,167/1000,105,117.0
5531,E6,489.333,167/1000,105,117.0
5532,B5,489.5,167/1000,105,117.0
5533,G#5,489.667,167/1000,105,117.0
5534,E5,489.833,167/1000,105,117.0
5535,E6,490.0,167/1000,105,117.0
5536,B5,490.167,167/1000,105,117.0
5537,E6,490.333,167/1000,105,117.0
5538,B5,490.5,167/1000,105,117.0
5539,G#5,490.667,167/1000,105,117.0
5540,E5,490.833,167/1000,105,117.0
5541,F#5,491.0,0.25,105,117.0
5542,G#5,491.25,0.25,105,117.0
5543,C#4,492.0,0.5,105,117.0
5544,F#4,492.0,0.5,105,117.0
5545,G#6,492.5,167/1000,105,117.0
5546,G#5,492.5,167/1000,105,117.0
5547,A6,492.75,167/1000,105,117.0
5548,A5,492.75,167/1000,105,117.0
5549,A3,493.0,0.5,105,117.0
5550,C#4,493.0,0.5,105,117.0
5551,G#5,493.5,167/1000,105,117.0
5552,G#6,493.5,167/1000,105,117.0
5553,A5,493.75,167/1000,105,117.0
5554,A6,493.75,167/1000,105,117.0
5555,F#4,494.0,0.5,105,117.0
5556,E-4,494.0,0.5,105,117.0
5557,B3,494.0,0.5,105,117.0
5558,G#5,494.5,167/1000,105,117.0
5559,G#6,494.5,167/1000,105,117.0
5560,A6,494.75,167/1000,105,117.0
5561,A5,494.75,167/1000,105,117.0
5562,B3,495.0,0.25,105,117.0
5563,G4,495.0,0.25,105,117.0
5564,E-4,495.0,0.25,105,117.0
5565,B6,495.25,167/1000,105,117.0
5566,B5,495.25,167/1000,105,117.0
5567,C#7,495.5,167/1000,105,117.0
5568,C#6,495.5,167/1000,105,117.0
5569,B3,495.75,0.25,105,117.0
5570,C#4,495.75,0.25,105,117.0
5571,E4,495.75,0.25,105,117.0
5572,G#4,495.75,0.25,105,117.0
5573,E7,495.75,0.25,105,117.0
5574,E6,495.75,0.25,105,117.0
5575,B3,496.0,3.5,105,117.0
5576,C#4,496.0,3.5,105,117.0
5577,E4,496.0,3.5,105,117.0
5578,G#4,496.0,3.5,105,117.0
5579,E7,496.0,0.5,105,117.0
5580,E6,496.0,0.5,105,117.0
5581,C#6,496.5,0.25,105,117.0
5582,B5,497.0,0.25,105,117.0
5583,C#6,497.5,0.25,105,117.0
5584,B5,498.5,0.25,105,117.0
5585,E6,498.75,0.25,105,117.0
5586,B5,499.0,0.25,105,117.0
5587,G#5,499.25,0.25,105,117.0
5588,E5,499.5,0.25,105,117.0
5589,F#5,500.0,0.25,105,117.0
5590,F#5,500.25,0.25,105,117.0
5591,E5,500.5,0.25,105,117.0
5592,C#5,500.75,0.25,105,117.0
5593,D5,501.167,167/1000,105,117.0
5594,A3,501.25,0.25,105,117.0
5595,C#4,501.25,0.25,105,117.0
5596,E4,501.25,0.25,105,117.0
5597,F#5,501.333,167/1000,105,117.0
5598,A5,501.5,0.25,105,117.0
5599,E6,501.75,0.25,105,117.0
5600,E-4,501.75,2.25,105,117.0
5601,G#3,501.75,2.25,105,117.0
5602,B3,501.75,2.25,105,117.0
5603,C#6,502.0,0.25,105,117.0
5604,E6,502.25,0.25,105,117.0
5605,G#6,502.5,0.25,105,117.0
5606,B6,502.75,0.25,105,117.0
5607,C#7,503.0,0.25,105,117.0
5608,C#7,503.5,0.25,105,117.0
5609,D7,504.0,0.25,105,117.0
5610,F#4,504.0,4.0,105,117.0
5611,B3,504.0,4.0,105,117.0
5612,C#4,504.0,4.0,105,117.0
5613,G#3,504.0,4.0,105,117.0
5614,C#7,504.25,0.25,105,117.0
5615,B-6,504.75,0.25,105,117.0
5616,C#7,505.25,0.25,105,117.0
5617,B6,505.5,0.25,105,117.0
5618,G#6,505.75,0.25,105,117.0
5619,F#6,506.0,0.25,105,117.0
5620,E6,506.25,0.25,105,117.0
5621,C#6,506.5,0.25,105,117.0
5622,B5,506.75,0.25,105,117.0
5623,G#5,507.0,0.25,105,117.0
5624,F#5,507.25,0.25,105,117.0
5625,E5,507.5,0.25,105,117.0
5626,F#5,507.75,0.25,105,117.0
5627,F#6,508.0,1.0,115,117.0
5628,A6,508.0,1.0,115,117.0
5629,F#5,508.0,1.0,115,117.0
5630,C#5,508.0,1.0,115,117.0
5631,A5,508.0,1.0,115,117.0
5632,E6,509.0,0.25,115,117.0
5633,G#6,509.0,0.25,115,117.0
5634,B4,509.0,0.25,115,117.0
5635,E5,509.0,0.25,115,117.0
5636,G#5,509.0,0.25,115,117.0
5637,E-6,509.5,0.25,115,117.0
5638,F#6,509.5,0.25,115,117.0
5639,E-5,509.5,0.25,115,117.0
5640,G#4,509.5,0.25,115,117.0
5641,F#5,509.5,0.25,115,117.0
5642,B5,510.0,1.0,115,117.0
5643,E6,510.0,1.0,115,117.0
5644,B4,510.0,1.0,115,117.0
5645,F#4,510.0,1.0,115,117.0
5646,E5,510.0,1.0,115,117.0
5647,A4,510.0,1.0,115,117.0
5648,E-6,511.0,0.75,115,117.0
5649,E-4,511.0,0.75,115,117.0
5650,G#4,511.0,0.75,115,117.0
5651,E-5,511.0,0.75,115,117.0
5652,B3,511.75,0.25,115,117.0
5653,E4,511.75,0.25,115,117.0
5654,G#4,511.75,0.25,115,117.0
5655,B4,511.75,0.25,115,117.0
5656,E5,511.75,0.25,115,117.0
