,note_name,start_time,duration,velocity,tempo
0,G3,4.0,1.25,88,136.0
1,D6,4.0,0.25,78,136.0
2,G2,4.0,0.5,96,136.0
3,D6,4.25,0.25,79,136.0
4,D6,4.5,0.25,100,136.0
5,C#5,4.5,0.25,100,136.0
6,C#5,5.0,0.25,123,136.0
7,D3,5.0,0.5,101,136.0
8,G2,5.0,0.5,101,136.0
9,D3,5.0,0.5,101,136.0
10,C#5,5.5,0.25,127,136.0
11,C#3,5.5,0.5,104,136.0
12,C#3,5.5,0.5,104,136.0
13,G2,5.5,0.5,104,136.0
14,G3,6.0,0.75,92,136.0
15,G2,6.0,0.5,110,136.0
16,D6,6.5,0.25,112,136.0
17,C#5,6.5,0.25,112,136.0
18,G3,7.0,0.25,100,136.0
19,D3,7.0,0.25,100,136.0
20,G2,7.0,0.5,96,136.0
21,D3,7.0,0.5,96,136.0
22,G3,7.5,0.25,86,136.0
23,C#3,7.5,0.25,86,136.0
24,C#3,7.5,0.5,112,136.0
25,G2,7.5,0.5,112,136.0
26,G3,8.0,1.5,105,136.0
27,D6,8.0,0.25,79,136.0
28,G2,8.0,1.0,111,136.0
29,D6,8.25,0.25,75,136.0
30,D6,8.5,0.25,94,136.0
31,C#5,8.5,0.25,94,136.0
32,D3,9.0,0.25,117,136.0
33,C#5,9.0,0.25,117,136.0
34,D3,9.0,0.5,98,136.0
35,G2,9.0,0.5,98,136.0
36,C#3,9.5,0.25,116,136.0
37,C#5,9.5,0.25,116,136.0
38,C#3,9.5,0.5,98,136.0
39,G2,9.5,0.5,98,136.0
40,G3,10.0,0.75,108,136.0
41,G2,10.0,1.0,107,136.0
42,D6,10.5,0.25,112,136.0
43,C#5,10.5,0.25,112,136.0
44,G3,11.0,0.25,104,136.0
45,D3,11.0,0.25,104,136.0
46,G2,11.0,0.5,102,136.0
47,D3,11.0,0.5,102,136.0
48,E-3,11.0,1.0,114,136.0
49,G3,11.0,1.0,114,136.0
50,E-4,11.0,1.0,114,136.0
51,G4,11.0,1.0,114,136.0
52,G3,11.5,0.25,86,136.0
53,C#3,11.5,0.25,86,136.0
54,C#3,11.5,0.5,103,136.0
55,G2,11.5,0.5,103,136.0
56,D3,11.75,0.25,53,136.0
57,D6,12.0,0.25,79,136.0
58,G2,12.0,0.5,107,136.0
59,G3,12.0,1.25,113,136.0
60,G3,12.0,1.25,113,136.0
61,B-3,12.0,1.25,113,136.0
62,G4,12.0,1.25,113,136.0
63,B-4,12.0,1.25,113,136.0
64,D6,12.25,0.25,76,136.0
65,D6,12.5,0.25,92,136.0
66,C#5,12.5,0.25,92,136.0
67,D3,13.0,0.25,114,136.0
68,C#5,13.0,0.25,114,136.0
69,D3,13.0,0.5,104,136.0
70,G2,13.0,0.5,104,136.0
71,C#3,13.5,0.25,112,136.0
72,C#5,13.5,0.25,112,136.0
73,G2,13.5,0.5,104,136.0
74,C#3,13.5,0.5,104,136.0
75,G3,14.0,0.75,108,136.0
76,G2,14.0,0.5,111,136.0
77,D6,14.5,0.25,112,136.0
78,C#5,14.5,0.25,112,136.0
79,G3,15.0,0.25,98,136.0
80,D3,15.0,0.25,98,136.0
81,D3,15.0,0.5,108,136.0
82,G2,15.0,0.5,108,136.0
83,E-3,15.0,1.0,107,136.0
84,G3,15.0,1.0,107,136.0
85,E-4,15.0,1.0,107,136.0
86,G4,15.0,1.0,107,136.0
87,G3,15.5,0.25,88,136.0
88,C#3,15.5,0.25,88,136.0
89,G2,15.5,0.5,105,136.0
90,C#3,15.5,0.5,105,136.0
91,D6,16.0,0.25,77,136.0
92,G3,16.0,0.5,112,136.0
93,G2,16.0,0.5,112,136.0
94,C3,16.0,0.5,112,136.0
95,E-3,16.0,0.5,112,136.0
96,C4,16.0,0.5,112,136.0
97,E-4,16.0,0.5,112,136.0
98,D6,16.25,0.25,78,136.0
99,D6,16.5,0.25,96,136.0
100,C#5,16.5,0.25,96,136.0
101,B-2,16.5,0.5,79,136.0
102,C3,16.5,0.5,79,136.0
103,B-3,16.5,0.5,79,136.0
104,C4,16.5,0.5,79,136.0
105,D3,17.0,0.25,112,136.0
106,C#5,17.0,0.25,112,136.0
107,D3,17.0,0.5,106,136.0
108,G2,17.0,0.5,106,136.0
109,C3,17.0,1.5,114,136.0
110,E-3,17.0,1.5,114,136.0
111,C4,17.0,1.5,114,136.0
112,E-4,17.0,1.5,114,136.0
113,C#3,17.5,0.25,116,136.0
114,C#5,17.5,0.25,116,136.0
115,G2,17.5,0.5,108,136.0
116,C#3,17.5,0.5,108,136.0
117,G3,18.0,0.5,108,136.0
118,G2,18.0,0.5,108,136.0
119,D6,18.5,0.25,104,136.0
120,C#5,18.5,0.25,104,136.0
121,E-4,18.5,0.25,104,136.0
122,E-4,18.75,0.25,77,136.0
123,G3,19.0,0.25,108,136.0
124,E-4,19.0,0.25,108,136.0
125,D3,19.0,0.5,107,136.0
126,D3,19.0,0.5,107,136.0
127,G2,19.0,0.5,107,136.0
128,E-3,19.0,1.0,114,136.0
129,G3,19.0,1.0,114,136.0
130,E-4,19.0,1.0,114,136.0
131,G4,19.0,1.0,114,136.0
132,E-4,19.25,0.25,107,136.0
133,G3,19.5,0.25,107,136.0
134,C#3,19.5,0.25,107,136.0
135,E-4,19.5,0.25,107,136.0
136,G2,19.5,0.5,124,136.0
137,C#3,19.5,0.5,124,136.0
138,G3,20.0,1.25,88,136.0
139,G2,20.0,0.5,96,136.0
140,D6,20.0,0.25,102,136.0
141,E-4,20.0,0.25,102,136.0
142,D3,20.0,1.75,114,136.0
143,F3,20.0,1.75,114,136.0
144,D4,20.0,1.75,114,136.0
145,F4,20.0,1.75,114,136.0
146,D6,20.25,0.25,79,136.0
147,D6,20.5,0.25,100,136.0
148,C#5,20.5,0.25,100,136.0
149,C#5,21.0,0.25,123,136.0
150,D3,21.0,0.5,101,136.0
151,G2,21.0,0.5,101,136.0
152,D3,21.0,0.5,101,136.0
153,C#5,21.5,0.25,127,136.0
154,C#3,21.5,0.5,104,136.0
155,C#3,21.5,0.5,104,136.0
156,G2,21.5,0.5,104,136.0
157,G3,22.0,0.75,92,136.0
158,G2,22.0,0.5,110,136.0
159,D6,22.5,0.25,108,136.0
160,C#5,22.5,0.25,108,136.0
161,E-4,22.5,0.25,108,136.0
162,E-4,22.75,0.25,91,136.0
163,G3,23.0,0.25,101,136.0
164,D3,23.0,0.25,101,136.0
165,E-4,23.0,0.25,101,136.0
166,G2,23.0,0.5,96,136.0
167,D3,23.0,0.5,96,136.0
168,B-2,23.0,1.0,114,136.0
169,C3,23.0,1.0,114,136.0
170,B-3,23.0,1.0,114,136.0
171,C4,23.0,1.0,114,136.0
172,E-4,23.25,0.25,92,136.0
173,G3,23.5,0.25,93,136.0
174,C#3,23.5,0.25,93,136.0
175,E-4,23.5,0.25,93,136.0
176,C#3,23.5,0.5,112,136.0
177,G2,23.5,0.5,112,136.0
178,G3,24.0,1.5,105,136.0
179,G2,24.0,1.0,111,136.0
180,D6,24.0,0.25,100,136.0
181,E-4,24.0,0.25,100,136.0
182,C3,24.0,0.5,114,136.0
183,E-3,24.0,0.5,114,136.0
184,C4,24.0,0.5,114,136.0
185,E-4,24.0,0.5,114,136.0
186,D6,24.25,0.25,75,136.0
187,D6,24.5,0.25,94,136.0
188,C#5,24.5,0.25,94,136.0
189,D3,24.5,0.5,114,136.0
190,F3,24.5,0.5,114,136.0
191,D4,24.5,0.5,114,136.0
192,F4,24.5,0.5,114,136.0
193,C3,24.958,1.25,114,136.0
194,E-3,24.958,1.25,114,136.0
195,C4,24.958,1.25,114,136.0
196,E-4,24.958,1.25,114,136.0
197,D3,25.0,0.25,117,136.0
198,C#5,25.0,0.25,117,136.0
199,D3,25.0,0.5,98,136.0
200,G2,25.0,0.5,98,136.0
201,C#3,25.5,0.25,116,136.0
202,C#5,25.5,0.25,116,136.0
203,C#3,25.5,0.5,98,136.0
204,G2,25.5,0.5,98,136.0
205,G3,26.0,0.75,108,136.0
206,G2,26.0,1.0,107,136.0
207,D6,26.5,0.25,112,136.0
208,C#5,26.5,0.25,112,136.0
209,G3,27.0,0.25,104,136.0
210,D3,27.0,0.25,104,136.0
211,G2,27.0,0.5,102,136.0
212,D3,27.0,0.5,102,136.0
213,E-3,27.0,1.0,114,136.0
214,G3,27.0,1.0,114,136.0
215,E-4,27.0,1.0,114,136.0
216,G4,27.0,1.0,114,136.0
217,G3,27.5,0.25,86,136.0
218,C#3,27.5,0.25,86,136.0
219,C#3,27.5,0.5,103,136.0
220,G2,27.5,0.5,103,136.0
221,D3,27.75,0.25,53,136.0
222,D6,28.0,0.25,79,136.0
223,G2,28.0,0.5,107,136.0
224,G3,28.0,1.25,98,136.0
225,G3,28.0,1.25,98,136.0
226,B-3,28.0,1.25,98,136.0
227,G4,28.0,1.25,98,136.0
228,B-4,28.0,1.25,98,136.0
229,D6,28.25,0.25,76,136.0
230,D6,28.5,0.25,92,136.0
231,C#5,28.5,0.25,92,136.0
232,D3,29.0,0.25,108,136.0
233,C#5,29.0,0.25,108,136.0
234,E-4,29.0,0.25,108,136.0
235,D3,29.0,0.5,104,136.0
236,G2,29.0,0.5,104,136.0
237,E-4,29.083,3/20,125,136.0
238,E-4,29.25,0.25,92,136.0
239,C#3,29.5,0.25,109,136.0
240,C#5,29.5,0.25,109,136.0
241,E-4,29.5,0.25,109,136.0
242,G2,29.5,0.5,104,136.0
243,C#3,29.5,0.5,104,136.0
244,E-4,29.55,31/40,127,136.0
245,G3,30.0,0.75,108,136.0
246,G2,30.0,0.5,111,136.0
247,E-4,30.0,0.25,112,136.0
248,D6,30.5,0.25,116,136.0
249,C#5,30.5,0.25,116,136.0
250,E-4,30.5,0.25,116,136.0
251,E-4,30.675,39/40,127,136.0
252,G3,31.0,0.25,98,136.0
253,D3,31.0,0.25,98,136.0
254,D3,31.0,0.5,108,136.0
255,G2,31.0,0.5,108,136.0
256,E-3,31.0,1.0,113,136.0
257,G3,31.0,1.0,113,136.0
258,E-4,31.0,1.0,113,136.0
259,G4,31.0,1.0,113,136.0
260,G3,31.5,0.25,88,136.0
261,C#3,31.5,0.25,88,136.0
262,G2,31.5,0.5,105,136.0
263,C#3,31.5,0.5,105,136.0
264,D6,32.0,0.25,77,136.0
265,G3,32.0,0.5,112,136.0
266,G2,32.0,0.5,112,136.0
267,C3,32.0,0.5,112,136.0
268,E-3,32.0,0.5,112,136.0
269,C4,32.0,0.5,112,136.0
270,E-4,32.0,0.5,112,136.0
271,D6,32.25,0.25,78,136.0
272,D6,32.5,0.25,96,136.0
273,C#5,32.5,0.25,96,136.0
274,B-2,32.5,0.5,98,136.0
275,C3,32.5,0.5,98,136.0
276,B-3,32.5,0.5,98,136.0
277,C4,32.5,0.5,98,136.0
278,D3,33.0,0.25,112,136.0
279,C#5,33.0,0.25,112,136.0
280,D3,33.0,0.5,106,136.0
281,G2,33.0,0.5,106,136.0
282,C3,33.0,1.5,114,136.0
283,E-3,33.0,1.5,114,136.0
284,C4,33.0,1.5,114,136.0
285,E-4,33.0,1.5,114,136.0
286,C#3,33.5,0.25,116,136.0
287,C#5,33.5,0.25,116,136.0
288,G2,33.5,0.5,108,136.0
289,C#3,33.5,0.5,108,136.0
290,G4,33.65,1/20,127,136.0
291,G3,34.0,0.5,108,136.0
292,G2,34.0,0.5,108,136.0
293,G4,34.058,667/1000,127,136.0
294,D6,34.5,0.25,112,136.0
295,C#5,34.5,0.25,112,136.0
296,G3,35.0,0.25,98,136.0
297,D3,35.0,0.5,107,136.0
298,D3,35.0,0.5,107,136.0
299,G2,35.0,0.5,107,136.0
300,G4,35.067,0.75,117,136.0
301,E-3,35.067,0.75,117,136.0
302,G3,35.067,0.75,117,136.0
303,E-4,35.067,0.75,117,136.0
304,G4,35.067,0.75,117,136.0
305,G3,35.5,0.25,101,136.0
306,C#3,35.5,0.25,101,136.0
307,G2,35.5,0.5,124,136.0
308,C#3,35.5,0.5,124,136.0
309,G2,36.0,0.5,96,136.0
310,G3,36.0,1.25,109,136.0
311,D3,36.0,1.25,109,136.0
312,F3,36.0,1.25,109,136.0
313,D4,36.0,1.25,109,136.0
314,F4,36.0,1.25,109,136.0
315,D6,36.0,0.25,86,136.0
316,E-4,36.0,0.25,86,136.0
317,D6,36.25,0.25,68,136.0
318,E-4,36.25,0.25,68,136.0
319,D6,36.5,0.25,100,136.0
320,C#5,36.5,0.25,100,136.0
321,E-4,36.75,0.0,87,136.0
322,E-4,36.75,0.25,71,136.0
323,D3,37.0,0.5,101,136.0
324,G2,37.0,0.5,101,136.0
325,D3,37.0,0.5,101,136.0
326,C#5,37.0,0.25,114,136.0
327,E-4,37.0,0.25,114,136.0
328,G4,37.117,173/250,117,136.0
329,E-4,37.25,0.25,71,136.0
330,C#3,37.5,0.5,104,136.0
331,C#3,37.5,0.5,104,136.0
332,G2,37.5,0.5,104,136.0
333,C#5,37.5,0.25,97,136.0
334,E-4,37.5,0.25,97,136.0
335,E-4,37.75,0.25,84,136.0
336,G2,38.0,0.5,110,136.0
337,E-4,38.0,0.25,102,136.0
338,G3,38.0,717/1000,107,136.0
339,F4,38.0,717/1000,107,136.0
340,E-4,38.25,0.25,97,136.0
341,E-4,38.5,0.0,79,136.0
342,D6,38.5,0.25,112,136.0
343,C#5,38.5,0.25,112,136.0
344,E-4,38.75,0.25,81,136.0
345,G3,39.0,0.25,104,136.0
346,D3,39.0,0.25,104,136.0
347,E-4,39.0,0.25,104,136.0
348,G2,39.0,0.5,96,136.0
349,D3,39.0,0.5,96,136.0
350,B-2,39.0,1.0,113,136.0
351,C3,39.0,1.0,113,136.0
352,B-3,39.0,1.0,113,136.0
353,C4,39.0,1.0,113,136.0
354,E-4,39.25,0.25,90,136.0
355,G3,39.5,0.25,83,136.0
356,C#3,39.5,0.25,83,136.0
357,E-4,39.5,0.25,83,136.0
358,C#3,39.5,0.5,112,136.0
359,G2,39.5,0.5,112,136.0
360,E-4,39.75,0.25,91,136.0
361,G3,40.0,1.5,105,136.0
362,G2,40.0,1.0,111,136.0
363,D6,40.0,0.25,96,136.0
364,E-4,40.0,0.25,96,136.0
365,C3,40.0,0.5,112,136.0
366,E-3,40.0,0.5,112,136.0
367,C4,40.0,0.5,112,136.0
368,E-4,40.0,0.5,112,136.0
369,D6,40.25,0.25,81,136.0
370,E-4,40.25,0.25,81,136.0
371,D6,40.5,0.25,93,136.0
372,C#5,40.5,0.25,93,136.0
373,E-4,40.5,0.25,93,136.0
374,D3,40.5,0.5,105,136.0
375,F3,40.5,0.5,105,136.0
376,D4,40.5,0.5,105,136.0
377,F4,40.5,0.5,105,136.0
378,E-4,40.75,0.25,97,136.0
379,D3,41.0,0.25,117,136.0
380,C#5,41.0,0.25,117,136.0
381,E-4,41.0,0.25,117,136.0
382,D3,41.0,0.5,98,136.0
383,G2,41.0,0.5,98,136.0
384,C3,41.0,1.75,114,136.0
385,E-3,41.0,1.75,114,136.0
386,C4,41.0,1.75,114,136.0
387,E-4,41.0,1.75,114,136.0
388,G4,41.158,101/125,119,136.0
389,E-4,41.25,0.25,91,136.0
390,C#3,41.5,0.25,105,136.0
391,C#5,41.5,0.25,105,136.0
392,E-4,41.5,0.25,105,136.0
393,C#3,41.5,0.5,98,136.0
394,G2,41.5,0.5,98,136.0
395,G3,42.0,0.75,108,136.0
396,G2,42.0,1.0,107,136.0
397,E-4,42.0,417/1000,104,136.0
398,E-4,42.0,0.25,105,136.0
399,E-4,42.0,0.25,105,136.0
400,E-4,42.25,0.25,98,136.0
401,C4,42.458,567/1000,104,136.0
402,D6,42.5,0.25,104,136.0
403,C#5,42.5,0.25,104,136.0
404,E-4,42.5,0.25,104,136.0
405,E-4,42.75,0.25,97,136.0
406,E-4,42.95,0.5,110,136.0
407,G2,42.95,0.5,110,136.0
408,D3,42.95,0.5,110,136.0
409,G3,43.0,0.25,108,136.0
410,D3,43.0,0.25,108,136.0
411,E-4,43.0,0.25,108,136.0
412,G3,43.5,0.25,85,136.0
413,C#3,43.5,0.25,85,136.0
414,E-4,43.5,0.25,85,136.0
415,E-4,43.5,0.25,85,136.0
416,C#3,43.5,0.5,103,136.0
417,G2,43.5,0.5,103,136.0
418,D3,43.75,0.25,53,136.0
419,G3,44.0,1.25,108,136.0
420,D6,44.0,0.25,93,136.0
421,E-4,44.0,0.25,93,136.0
422,E-4,44.0,0.25,93,136.0
423,F3,44.0,0.25,93,136.0
424,G2,44.0,0.5,105,136.0
425,E-3,44.0,0.5,105,136.0
426,G3,44.0,0.5,105,136.0
427,E-4,44.0,0.5,105,136.0
428,G4,44.0,0.5,105,136.0
429,D6,44.25,0.25,82,136.0
430,E-4,44.25,0.25,82,136.0
431,D6,44.5,0.25,92,136.0
432,C#5,44.5,0.25,92,136.0
433,D3,44.5,0.5,114,136.0
434,F3,44.5,0.5,114,136.0
435,D4,44.5,0.5,114,136.0
436,F4,44.5,0.5,114,136.0
437,E-4,44.75,0.25,86,136.0
438,E-4,44.75,0.25,86,136.0
439,D3,45.0,0.25,102,136.0
440,C#5,45.0,0.25,102,136.0
441,F3,45.0,0.25,102,136.0
442,D3,45.0,0.5,108,136.0
443,G2,45.0,0.5,108,136.0
444,D3,45.0,0.5,108,136.0
445,F3,45.0,0.5,108,136.0
446,D4,45.0,0.5,108,136.0
447,F4,45.0,0.5,108,136.0
448,E-4,45.25,0.25,119,136.0
449,C#3,45.5,0.25,99,136.0
450,C#5,45.5,0.25,99,136.0
451,E-4,45.5,0.25,99,136.0
452,F3,45.5,0.25,99,136.0
453,G2,45.5,0.5,111,136.0
454,C#3,45.5,0.5,111,136.0
455,C3,45.5,0.5,111,136.0
456,E-3,45.5,0.5,111,136.0
457,C4,45.5,0.5,111,136.0
458,E-4,45.5,0.5,111,136.0
459,E-4,45.75,0.25,80,136.0
460,G3,46.0,0.75,108,136.0
461,G2,46.0,0.5,111,136.0
462,E-4,46.0,0.25,71,136.0
463,D3,46.0,2.0,113,136.0
464,F3,46.0,2.0,113,136.0
465,D4,46.0,2.0,113,136.0
466,F4,46.0,2.0,113,136.0
467,E-4,46.25,0.25,117,136.0
468,D6,46.5,0.25,103,136.0
469,C#5,46.5,0.25,103,136.0
470,E-4,46.5,0.25,103,136.0
471,E-4,46.5,0.25,103,136.0
472,E-4,46.75,0.25,106,136.0
473,G3,47.0,0.25,106,136.0
474,D3,47.0,0.25,106,136.0
475,E-4,47.0,0.25,106,136.0
476,D3,47.0,0.5,108,136.0
477,G2,47.0,0.5,108,136.0
478,E-4,47.25,0.25,112,136.0
479,G3,47.5,0.25,82,136.0
480,C#3,47.5,0.25,82,136.0
481,E-4,47.5,0.25,82,136.0
482,G2,47.5,0.5,105,136.0
483,C#3,47.5,0.5,105,136.0
484,E-4,47.75,0.25,97,136.0
485,G3,48.0,0.5,112,136.0
486,G2,48.0,0.5,112,136.0
487,C3,48.0,0.5,112,136.0
488,E-3,48.0,0.5,112,136.0
489,C4,48.0,0.5,112,136.0
490,E-4,48.0,0.5,112,136.0
491,D6,48.0,0.25,97,136.0
492,E-4,48.0,0.25,97,136.0
493,F3,48.0,0.25,97,136.0
494,D6,48.25,0.25,78,136.0
495,D6,48.5,0.25,96,136.0
496,C#5,48.5,0.25,96,136.0
497,E-3,48.5,0.5,92,136.0
498,G3,48.5,0.5,92,136.0
499,E-4,48.5,0.5,92,136.0
500,G4,48.5,0.5,92,136.0
501,D3,49.0,0.25,93,136.0
502,C#5,49.0,0.25,93,136.0
503,F3,49.0,0.25,93,136.0
504,D3,49.0,0.5,106,136.0
505,G2,49.0,0.5,106,136.0
506,C3,49.0,0.75,114,136.0
507,E-3,49.0,0.75,114,136.0
508,C4,49.0,0.75,114,136.0
509,E-4,49.0,0.75,114,136.0
510,C#3,49.5,0.25,104,136.0
511,C#5,49.5,0.25,104,136.0
512,F3,49.5,0.25,104,136.0
513,G2,49.5,0.5,108,136.0
514,C#3,49.5,0.5,108,136.0
515,F3,50.0,0.25,44,136.0
516,G3,50.0,0.5,108,136.0
517,G2,50.0,0.5,108,136.0
518,B-4,50.042,73/250,127,136.0
519,D6,50.5,0.25,106,136.0
520,C#5,50.5,0.25,106,136.0
521,F3,50.5,0.25,106,136.0
522,G4,50.533,379/500,126,136.0
523,G3,51.0,0.25,88,136.0
524,F3,51.0,0.25,88,136.0
525,D3,51.0,0.5,107,136.0
526,D3,51.0,0.5,107,136.0
527,G2,51.0,0.5,107,136.0
528,G3,51.5,0.25,101,136.0
529,C#3,51.5,0.25,101,136.0
530,G2,51.5,433/1000,124,136.0
531,C#3,51.5,433/1000,124,136.0
532,G4,51.5,433/1000,124,136.0
533,G3,52.0,1.25,108,136.0
534,F4,52.0,1.25,108,136.0
535,D6,52.0,0.25,95,136.0
536,E-4,52.0,0.25,95,136.0
537,F3,52.0,0.25,95,136.0
538,G2,52.0,0.5,108,136.0
539,E-3,52.0,0.5,108,136.0
540,G3,52.0,0.5,108,136.0
541,E-4,52.0,0.5,108,136.0
542,G4,52.0,0.5,108,136.0
543,D6,52.25,0.25,79,136.0
544,D6,52.5,0.25,89,136.0
545,D3,52.5,0.25,89,136.0
546,F3,52.5,0.25,89,136.0
547,D4,52.5,0.25,89,136.0
548,F4,52.5,0.25,89,136.0
549,C#5,52.5,0.25,89,136.0
550,F3,52.5,0.25,89,136.0
551,E-4,52.75,0.25,91,136.0
552,F3,53.0,0.0,81,136.0
553,D3,53.0,0.5,101,136.0
554,G2,53.0,0.5,101,136.0
555,D3,53.0,0.5,101,136.0
556,D3,53.0,0.25,109,136.0
557,F3,53.0,0.25,109,136.0
558,D4,53.0,0.25,109,136.0
559,F4,53.0,0.25,109,136.0
560,C#5,53.0,0.25,109,136.0
561,E-4,53.0,0.25,109,136.0
562,E-4,53.25,0.25,101,136.0
563,C#3,53.5,0.5,107,136.0
564,C#3,53.5,0.5,107,136.0
565,G2,53.5,0.5,107,136.0
566,C3,53.5,0.5,107,136.0
567,E-3,53.5,0.5,107,136.0
568,C4,53.5,0.5,107,136.0
569,E-4,53.5,0.5,107,136.0
570,C#5,53.5,0.25,116,136.0
571,E-4,53.5,0.25,116,136.0
572,F3,53.75,0.0,88,136.0
573,E-4,53.75,0.25,102,136.0
574,G3,54.0,0.75,92,136.0
575,G2,54.0,0.5,110,136.0
576,E-4,54.0,0.25,112,136.0
577,B-2,54.0,2.0,113,136.0
578,C3,54.0,2.0,113,136.0
579,B-3,54.0,2.0,113,136.0
580,C4,54.0,2.0,113,136.0
581,F3,54.5,0.0,86,136.0
582,D6,54.5,0.25,112,136.0
583,C#5,54.5,0.25,112,136.0
584,G3,55.0,0.25,96,136.0
585,D3,55.0,0.25,96,136.0
586,F3,55.0,0.25,96,136.0
587,G2,55.0,0.5,96,136.0
588,D3,55.0,0.5,96,136.0
589,G3,55.5,0.25,86,136.0
590,C#3,55.5,0.25,86,136.0
591,C#3,55.5,0.5,112,136.0
592,G2,55.5,0.5,112,136.0
593,G3,56.0,1.5,105,136.0
594,G2,56.0,1.0,111,136.0
595,D6,56.0,0.25,80,136.0
596,F3,56.0,0.25,80,136.0
597,G2,56.0,0.5,114,136.0
598,B-2,56.0,0.5,114,136.0
599,G3,56.0,0.5,114,136.0
600,B-3,56.0,0.5,114,136.0
601,D6,56.25,0.25,75,136.0
602,D6,56.5,0.25,94,136.0
603,C#5,56.5,0.25,94,136.0
604,B-2,56.5,0.5,90,136.0
605,C3,56.5,0.5,90,136.0
606,B-3,56.5,0.5,90,136.0
607,C4,56.5,0.5,90,136.0
608,D3,57.0,0.25,99,136.0
609,C#5,57.0,0.25,99,136.0
610,F3,57.0,0.25,99,136.0
611,D3,57.0,0.5,98,136.0
612,G2,57.0,0.5,98,136.0
613,G2,57.0,1.0,114,136.0
614,B-2,57.0,1.0,114,136.0
615,G3,57.0,1.0,114,136.0
616,B-3,57.0,1.0,114,136.0
617,C#3,57.5,0.25,108,136.0
618,C#5,57.5,0.25,108,136.0
619,F3,57.5,0.25,108,136.0
620,C#3,57.5,0.5,98,136.0
621,G2,57.5,0.5,98,136.0
622,G3,58.0,0.75,108,136.0
623,G2,58.0,1.0,107,136.0
624,B-3,58.008,51/125,98,136.0
625,C4,58.467,567/1000,100,136.0
626,D6,58.5,0.25,100,136.0
627,C#5,58.5,0.25,100,136.0
628,F3,58.5,0.25,100,136.0
629,D4,58.5,0.25,100,136.0
630,E-4,58.958,0.25,102,136.0
631,G3,58.958,0.25,102,136.0
632,D3,58.958,0.25,102,136.0
633,F3,58.958,0.25,102,136.0
634,G2,59.0,0.5,102,136.0
635,D3,59.0,0.5,102,136.0
636,G3,59.5,0.25,91,136.0
637,C#3,59.5,0.25,91,136.0
638,D4,59.5,0.25,91,136.0
639,C#3,59.5,0.5,103,136.0
640,G2,59.5,0.5,103,136.0
641,E-4,59.567,433/1000,127,136.0
642,D3,59.75,0.25,53,136.0
643,G3,60.0,1.25,108,136.0
644,E-4,60.0,467/1000,127,136.0
645,D6,60.0,0.25,86,136.0
646,E-4,60.0,0.25,86,136.0
647,F3,60.0,0.25,86,136.0
648,G2,60.0,0.5,105,136.0
649,E-3,60.0,0.5,105,136.0
650,G3,60.0,0.5,105,136.0
651,E-4,60.0,0.5,105,136.0
652,G4,60.0,0.5,105,136.0
653,D6,60.25,0.25,83,136.0
654,E-4,60.25,0.25,83,136.0
655,D6,60.5,0.25,89,136.0
656,C#5,60.5,0.25,89,136.0
657,E-4,60.5,0.25,89,136.0
658,D3,60.5,0.5,114,136.0
659,F3,60.5,0.5,114,136.0
660,D4,60.5,0.5,114,136.0
661,F4,60.5,0.5,114,136.0
662,E-4,60.75,0.25,83,136.0
663,F3,61.0,0.0,73,136.0
664,D3,61.0,0.25,112,136.0
665,C#5,61.0,0.25,112,136.0
666,E-4,61.0,0.25,112,136.0
667,D3,61.0,0.5,108,136.0
668,G2,61.0,0.5,108,136.0
669,D3,61.0,0.5,108,136.0
670,F3,61.0,0.5,108,136.0
671,D4,61.0,0.5,108,136.0
672,F4,61.0,0.5,108,136.0
673,C#3,61.5,0.25,95,136.0
674,C#5,61.5,0.25,95,136.0
675,E-4,61.5,0.25,95,136.0
676,F3,61.5,0.25,95,136.0
677,G2,61.5,0.5,111,136.0
678,C#3,61.5,0.5,111,136.0
679,C3,61.5,0.5,111,136.0
680,E-3,61.5,0.5,111,136.0
681,C4,61.5,0.5,111,136.0
682,E-4,61.5,0.5,111,136.0
683,E-4,61.75,0.25,95,136.0
684,G3,62.0,0.75,108,136.0
685,G2,62.0,0.5,111,136.0
686,E-4,62.0,0.25,106,136.0
687,D3,62.0,2.0,113,136.0
688,F3,62.0,2.0,113,136.0
689,D4,62.0,2.0,113,136.0
690,F4,62.0,2.0,113,136.0
691,E-4,62.25,0.25,87,136.0
692,D6,62.5,0.25,98,136.0
693,C#5,62.5,0.25,98,136.0
694,E-4,62.5,0.25,98,136.0
695,F3,62.5,0.25,98,136.0
696,D4,62.5,0.25,98,136.0
697,E-4,62.75,0.25,98,136.0
698,G3,63.0,0.25,95,136.0
699,D3,63.0,0.25,95,136.0
700,E-4,63.0,0.25,95,136.0
701,F3,63.0,0.25,95,136.0
702,D4,63.0,0.25,95,136.0
703,D3,63.0,0.5,108,136.0
704,G2,63.0,0.5,108,136.0
705,G3,63.5,0.25,88,136.0
706,C#3,63.5,0.25,88,136.0
707,G2,63.5,0.5,105,136.0
708,C#3,63.5,0.5,105,136.0
709,F3,64.0,1.0,73,136.0
710,G3,64.0,0.5,112,136.0
711,G2,64.0,0.5,112,136.0
712,C3,64.0,0.5,112,136.0
713,E-3,64.0,0.5,112,136.0
714,C4,64.0,0.5,112,136.0
715,E-4,64.0,0.5,112,136.0
716,D6,64.0,0.25,97,136.0
717,E-4,64.0,0.25,97,136.0
718,D6,64.25,0.25,86,136.0
719,E-4,64.25,0.25,86,136.0
720,D6,64.5,0.25,101,136.0
721,C#5,64.5,0.25,101,136.0
722,E-4,64.5,0.25,101,136.0
723,D4,64.5,0.25,101,136.0
724,E-3,64.5,0.5,92,136.0
725,G3,64.5,0.5,92,136.0
726,E-4,64.5,0.5,92,136.0
727,G4,64.5,0.5,92,136.0
728,D3,65.0,0.25,102,136.0
729,C#5,65.0,0.25,102,136.0
730,F3,65.0,0.25,102,136.0
731,D3,65.0,0.5,106,136.0
732,G2,65.0,0.5,106,136.0
733,C3,65.0,0.75,114,136.0
734,E-3,65.0,0.75,114,136.0
735,C4,65.0,0.75,114,136.0
736,E-4,65.0,0.75,114,136.0
737,G4,65.05,17/20,124,136.0
738,C#3,65.5,0.25,100,136.0
739,C#5,65.5,0.25,100,136.0
740,F3,65.5,0.25,100,136.0
741,D4,65.5,0.25,100,136.0
742,G2,65.5,0.5,108,136.0
743,C#3,65.5,0.5,108,136.0
744,E-4,65.75,0.25,106,136.0
745,E-4,65.75,0.25,106,136.0
746,E-4,66.0,0.25,109,136.0
747,G3,66.0,123/250,110,136.0
748,G2,66.0,123/250,110,136.0
749,F4,66.0,123/250,110,136.0
750,E-4,66.25,0.25,94,136.0
751,D6,66.5,0.25,101,136.0
752,C#5,66.5,0.25,101,136.0
753,E-4,66.5,0.25,101,136.0
754,F3,66.5,0.25,101,136.0
755,D4,66.5,0.25,101,136.0
756,G3,67.0,0.25,91,136.0
757,F3,67.0,0.25,91,136.0
758,D4,67.0,0.25,91,136.0
759,D3,67.0,0.5,107,136.0
760,D3,67.0,0.5,107,136.0
761,G2,67.0,0.5,107,136.0
762,C4,67.083,433/1000,121,136.0
763,G3,67.5,0.25,101,136.0
764,C#3,67.5,0.25,101,136.0
765,G2,67.5,0.5,124,136.0
766,C#3,67.5,0.5,124,136.0
767,E-4,67.567,433/1000,122,136.0
768,G3,68.0,1.25,88,136.0
769,E-4,68.0,79/500,122,136.0
770,D6,68.0,0.25,95,136.0
771,E-4,68.0,0.25,95,136.0
772,F3,68.0,0.25,95,136.0
773,G2,68.0,0.5,108,136.0
774,E-3,68.0,0.5,108,136.0
775,G3,68.0,0.5,108,136.0
776,E-4,68.0,0.5,108,136.0
777,G4,68.0,0.5,108,136.0
778,C4,68.142,19/40,104,136.0
779,D6,68.25,0.25,76,136.0
780,D4,68.25,0.25,76,136.0
781,D6,68.5,0.25,97,136.0
782,D3,68.5,0.25,97,136.0
783,F3,68.5,0.25,97,136.0
784,D4,68.5,0.25,97,136.0
785,F4,68.5,0.25,97,136.0
786,C#5,68.5,0.25,97,136.0
787,E-4,68.5,0.25,97,136.0
788,E-4,68.592,521/500,122,136.0
789,D3,69.0,0.5,101,136.0
790,G2,69.0,0.5,101,136.0
791,D3,69.0,0.5,101,136.0
792,D3,69.0,0.25,103,136.0
793,F3,69.0,0.25,103,136.0
794,D4,69.0,0.25,103,136.0
795,F4,69.0,0.25,103,136.0
796,C#5,69.0,0.25,103,136.0
797,F3,69.0,0.25,103,136.0
798,C#3,69.5,0.5,107,136.0
799,C#3,69.5,0.5,107,136.0
800,G2,69.5,0.5,107,136.0
801,C3,69.5,0.5,107,136.0
802,E-3,69.5,0.5,107,136.0
803,C4,69.5,0.5,107,136.0
804,E-4,69.5,0.5,107,136.0
805,C#5,69.5,0.25,96,136.0
806,E-4,69.5,0.25,96,136.0
807,F3,69.5,0.25,96,136.0
808,C4,69.625,21/40,116,136.0
809,E-4,69.75,0.25,74,136.0
810,G3,70.0,0.75,92,136.0
811,G2,70.0,0.5,110,136.0
812,B-2,70.0,2.0,113,136.0
813,C3,70.0,2.0,113,136.0
814,B-3,70.0,2.0,113,136.0
815,C4,70.0,2.0,113,136.0
816,E-4,70.0,0.25,92,136.0
817,F3,70.0,0.25,92,136.0
818,D4,70.0,0.25,92,136.0
819,E-4,70.25,0.25,83,136.0
820,D6,70.5,0.25,105,136.0
821,C#5,70.5,0.25,105,136.0
822,E-4,70.5,0.25,105,136.0
823,D4,70.5,0.25,105,136.0
824,E-4,70.75,0.25,101,136.0
825,G3,71.0,0.25,92,136.0
826,D3,71.0,0.25,92,136.0
827,F3,71.0,0.25,92,136.0
828,G2,71.0,0.5,96,136.0
829,D3,71.0,0.5,96,136.0
830,G3,71.5,0.25,91,136.0
831,C#3,71.5,0.25,91,136.0
832,D4,71.5,0.25,91,136.0
833,C#3,71.5,0.5,112,136.0
834,G2,71.5,0.5,112,136.0
835,G3,72.0,1.5,105,136.0
836,G2,72.0,1.0,111,136.0
837,D6,72.0,0.25,89,136.0
838,E-4,72.0,0.25,89,136.0
839,F3,72.0,0.25,89,136.0
840,G2,72.0,0.5,114,136.0
841,B-2,72.0,0.5,114,136.0
842,G3,72.0,0.5,114,136.0
843,B-3,72.0,0.5,114,136.0
844,G4,72.108,321/500,116,136.0
845,D6,72.25,0.25,90,136.0
846,E-4,72.25,0.25,90,136.0
847,D6,72.5,0.25,100,136.0
848,C#5,72.5,0.25,100,136.0
849,E-4,72.5,0.25,100,136.0
850,D4,72.5,0.25,100,136.0
851,B-2,72.5,0.5,90,136.0
852,C3,72.5,0.5,90,136.0
853,B-3,72.5,0.5,90,136.0
854,C4,72.5,0.5,90,136.0
855,E-4,72.95,29/40,127,136.0
856,D3,73.0,0.25,96,136.0
857,C#5,73.0,0.25,96,136.0
858,F3,73.0,0.25,96,136.0
859,D4,73.0,0.25,96,136.0
860,D3,73.0,0.5,98,136.0
861,G2,73.0,0.5,98,136.0
862,G2,73.0,1.0,114,136.0
863,B-2,73.0,1.0,114,136.0
864,G3,73.0,1.0,114,136.0
865,B-3,73.0,1.0,114,136.0
866,C#3,73.5,0.25,104,136.0
867,C#5,73.5,0.25,104,136.0
868,E-4,73.5,0.25,104,136.0
869,F3,73.5,0.25,104,136.0
870,C#3,73.5,0.5,98,136.0
871,G2,73.5,0.5,98,136.0
872,G3,74.0,0.75,108,136.0
873,G2,74.0,1.0,107,136.0
874,E-4,74.0,7/40,104,136.0
875,E-4,74.0,7/40,104,136.0
876,D4,74.0,7/40,104,136.0
877,E-4,74.0,7/40,104,136.0
878,E-4,74.25,0.25,92,136.0
879,D6,74.5,0.25,103,136.0
880,C#5,74.5,0.25,103,136.0
881,E-4,74.5,0.25,103,136.0
882,F3,74.5,0.25,103,136.0
883,D4,74.5,0.25,103,136.0
884,E-4,74.533,76/125,127,136.0
885,E-4,74.75,0.25,101,136.0
886,G3,75.0,0.25,101,136.0
887,D3,75.0,0.25,101,136.0
888,E-4,75.0,0.25,101,136.0
889,F3,75.0,0.25,101,136.0
890,D4,75.0,0.25,101,136.0
891,G2,75.0,0.5,102,136.0
892,D3,75.0,0.5,102,136.0
893,G3,75.5,0.25,86,136.0
894,C#3,75.5,0.25,86,136.0
895,C#3,75.5,0.5,103,136.0
896,G2,75.5,0.5,103,136.0
897,E-4,75.558,221/500,127,136.0
898,D3,75.75,0.25,53,136.0
899,G3,76.0,1.25,108,136.0
900,G2,76.0,0.5,107,136.0
901,E-4,76.0,333/1000,127,136.0
902,D6,76.0,0.25,92,136.0
903,F3,76.0,0.25,92,136.0
904,E-4,76.0,0.25,92,136.0
905,G3,76.0,1.5,114,136.0
906,B-3,76.0,1.5,114,136.0
907,G4,76.0,1.5,114,136.0
908,B-4,76.0,1.5,114,136.0
909,D4,76.25,0.0,101,136.0
910,D6,76.25,0.25,79,136.0
911,E-4,76.25,0.25,79,136.0
912,D6,76.5,0.25,89,136.0
913,C#5,76.5,0.25,89,136.0
914,E-4,76.5,0.25,89,136.0
915,D3,77.0,0.25,101,136.0
916,C#5,77.0,0.25,101,136.0
917,F3,77.0,0.25,101,136.0
918,D4,77.0,0.25,101,136.0
919,E-4,77.0,0.25,101,136.0
920,D3,77.0,0.5,104,136.0
921,G2,77.0,0.5,104,136.0
922,C#3,77.5,0.25,102,136.0
923,C#5,77.5,0.25,102,136.0
924,F3,77.5,0.25,102,136.0
925,D4,77.5,0.25,102,136.0
926,G2,77.5,0.5,106,136.0
927,C#3,77.5,0.5,106,136.0
928,E-3,77.5,0.5,106,136.0
929,G3,77.5,0.5,106,136.0
930,E-4,77.5,0.5,106,136.0
931,G4,77.5,0.5,106,136.0
932,B-4,77.933,1233/1000,127,136.0
933,G3,78.0,0.75,108,136.0
934,G2,78.0,0.5,111,136.0
935,D6,78.5,0.25,101,136.0
936,C#5,78.5,0.25,101,136.0
937,F3,78.5,0.25,101,136.0
938,D4,78.5,0.25,101,136.0
939,G3,79.0,0.25,94,136.0
940,D3,79.0,0.25,94,136.0
941,F3,79.0,0.25,94,136.0
942,D4,79.0,0.25,94,136.0
943,D3,79.0,0.5,108,136.0
944,G2,79.0,0.5,108,136.0
945,G4,79.125,31/40,121,136.0
946,G3,79.5,0.25,88,136.0
947,C#3,79.5,0.25,88,136.0
948,G2,79.5,0.5,105,136.0
949,C#3,79.5,0.5,105,136.0
950,G3,80.0,0.5,109,136.0
951,G2,80.0,0.5,109,136.0
952,D6,80.0,0.25,94,136.0
953,E-4,80.0,0.25,94,136.0
954,F3,80.0,0.25,94,136.0
955,D4,80.0,0.25,94,136.0
956,B-3,80.0,1.5,114,136.0
957,C4,80.0,1.5,114,136.0
958,B-4,80.0,1.5,114,136.0
959,C5,80.0,1.5,114,136.0
960,D6,80.25,0.25,80,136.0
961,E-4,80.25,0.25,80,136.0
962,D6,80.5,0.25,93,136.0
963,C#5,80.5,0.25,93,136.0
964,E-4,80.5,0.25,93,136.0
965,D4,80.5,0.25,93,136.0
966,E-4,80.75,0.25,86,136.0
967,D3,81.0,0.25,94,136.0
968,C#5,81.0,0.25,94,136.0
969,E-4,81.0,0.25,94,136.0
970,F3,81.0,0.25,94,136.0
971,D4,81.0,0.25,94,136.0
972,D3,81.0,0.5,106,136.0
973,G2,81.0,0.5,106,136.0
974,C#3,81.5,0.25,103,136.0
975,C#5,81.5,0.25,103,136.0
976,F3,81.5,0.25,103,136.0
977,D4,81.5,0.25,103,136.0
978,G2,81.5,0.5,112,136.0
979,C#3,81.5,0.5,112,136.0
980,E-3,81.5,0.5,112,136.0
981,G3,81.5,0.5,112,136.0
982,E-4,81.5,0.5,112,136.0
983,G4,81.5,0.5,112,136.0
984,G3,82.0,0.5,108,136.0
985,G2,82.0,0.5,108,136.0
986,D6,82.5,0.25,100,136.0
987,C#5,82.5,0.25,100,136.0
988,F3,82.5,0.25,100,136.0
989,D4,82.5,0.25,100,136.0
990,G3,83.0,0.25,89,136.0
991,F3,83.0,0.25,89,136.0
992,D4,83.0,0.25,89,136.0
993,D3,83.0,0.5,107,136.0
994,D3,83.0,0.5,107,136.0
995,G2,83.0,0.5,107,136.0
996,G3,83.5,0.25,101,136.0
997,C#3,83.5,0.25,101,136.0
998,G2,83.5,0.5,124,136.0
999,C#3,83.5,0.5,124,136.0
1000,G3,84.0,1.25,88,136.0
1001,D6,84.0,0.25,96,136.0
1002,E-4,84.0,0.25,96,136.0
1003,D4,84.0,0.25,96,136.0
1004,G2,84.0,0.5,103,136.0
1005,E-3,84.0,0.5,103,136.0
1006,G3,84.0,0.5,103,136.0
1007,E-4,84.0,0.5,103,136.0
1008,G4,84.0,0.5,103,136.0
1009,D6,84.25,0.25,76,136.0
1010,E-4,84.25,0.25,76,136.0
1011,F3,84.25,0.25,76,136.0
1012,D6,84.5,0.25,94,136.0
1013,C#5,84.5,0.25,94,136.0
1014,E-4,84.5,0.25,94,136.0
1015,D4,84.5,0.25,94,136.0
1016,D3,84.5,0.5,94,136.0
1017,F3,84.5,0.5,94,136.0
1018,D4,84.5,0.5,94,136.0
1019,F4,84.5,0.5,94,136.0
1020,D3,85.0,0.5,100,136.0
1021,G2,85.0,0.5,100,136.0
1022,D3,85.0,0.5,100,136.0
1023,D3,85.0,0.5,100,136.0
1024,F3,85.0,0.5,100,136.0
1025,D4,85.0,0.5,100,136.0
1026,F4,85.0,0.5,100,136.0
1027,C#5,85.0,0.25,103,136.0
1028,E-4,85.0,0.25,103,136.0
1029,D4,85.0,0.25,103,136.0
1030,F3,85.25,0.0,72,136.0
1031,E-4,85.25,0.25,94,136.0
1032,C#3,85.5,0.5,110,136.0
1033,C#3,85.5,0.5,110,136.0
1034,G2,85.5,0.5,110,136.0
1035,C3,85.5,0.5,110,136.0
1036,E-3,85.5,0.5,110,136.0
1037,C4,85.5,0.5,110,136.0
1038,E-4,85.5,0.5,110,136.0
1039,C#5,85.5,0.25,108,136.0
1040,E-4,85.5,0.25,108,136.0
1041,D4,85.5,0.25,108,136.0
1042,G3,86.0,0.75,92,136.0
1043,G2,86.0,0.5,110,136.0
1044,D3,86.0,1.5,114,136.0
1045,F3,86.0,1.5,114,136.0
1046,D4,86.0,1.5,114,136.0
1047,F4,86.0,1.5,114,136.0
1048,F3,86.0,0.25,94,136.0
1049,D4,86.0,0.25,94,136.0
1050,D6,86.5,0.25,103,136.0
1051,C#5,86.5,0.25,103,136.0
1052,D4,86.5,0.25,103,136.0
1053,G3,87.0,0.25,94,136.0
1054,D3,87.0,0.25,94,136.0
1055,F3,87.0,0.25,94,136.0
1056,D4,87.0,0.25,94,136.0
1057,G2,87.0,0.5,96,136.0
1058,D3,87.0,0.5,96,136.0
1059,G3,87.5,0.25,82,136.0
1060,C#3,87.5,0.25,82,136.0
1061,F3,87.5,0.25,82,136.0
1062,D4,87.5,0.25,82,136.0
1063,C#3,87.5,0.5,112,136.0
1064,G2,87.5,0.5,112,136.0
1065,G3,88.0,1.5,105,136.0
1066,G2,88.0,1.0,111,136.0
1067,D6,88.0,0.25,87,136.0
1068,F3,88.0,0.25,87,136.0
1069,D4,88.0,0.25,87,136.0
1070,B-2,88.0,0.5,107,136.0
1071,C3,88.0,0.5,107,136.0
1072,B-3,88.0,0.5,107,136.0
1073,C4,88.0,0.5,107,136.0
1074,D6,88.25,0.25,75,136.0
1075,D6,88.5,0.25,94,136.0
1076,C#5,88.5,0.25,94,136.0
1077,C3,88.5,1.0,114,136.0
1078,E-3,88.5,1.0,114,136.0
1079,C4,88.5,1.0,114,136.0
1080,E-4,88.5,1.0,114,136.0
1081,D3,89.0,0.25,103,136.0
1082,C#5,89.0,0.25,103,136.0
1083,F3,89.0,0.25,103,136.0
1084,D4,89.0,0.25,103,136.0
1085,D3,89.0,0.5,98,136.0
1086,G2,89.0,0.5,98,136.0
1087,C#3,89.5,0.25,106,136.0
1088,C#5,89.5,0.25,106,136.0
1089,D4,89.5,0.25,106,136.0
1090,C#3,89.5,0.5,103,136.0
1091,G2,89.5,0.5,103,136.0
1092,E-3,89.5,0.5,103,136.0
1093,G3,89.5,0.5,103,136.0
1094,E-4,89.5,0.5,103,136.0
1095,G4,89.5,0.5,103,136.0
1096,G3,90.0,0.75,108,136.0
1097,G2,90.0,1.0,112,136.0
1098,D3,90.0,1.0,112,136.0
1099,F3,90.0,1.0,112,136.0
1100,D4,90.0,1.0,112,136.0
1101,F4,90.0,1.0,112,136.0
1102,F3,90.0,0.25,96,136.0
1103,D4,90.0,0.25,96,136.0
1104,C4,90.125,279/500,127,136.0
1105,D6,90.5,0.25,101,136.0
1106,C#5,90.5,0.25,101,136.0
1107,E-4,90.5,0.25,101,136.0
1108,D4,90.5,0.25,101,136.0
1109,E-4,90.542,867/1000,127,136.0
1110,E-4,90.75,0.25,92,136.0
1111,D4,90.75,0.25,92,136.0
1112,G3,91.0,0.25,98,136.0
1113,D3,91.0,0.25,98,136.0
1114,E-4,91.0,0.25,98,136.0
1115,F3,91.0,0.25,98,136.0
1116,D4,91.0,0.25,98,136.0
1117,G2,91.0,0.5,110,136.0
1118,D3,91.0,0.5,110,136.0
1119,C3,91.0,0.5,110,136.0
1120,E-3,91.0,0.5,110,136.0
1121,C4,91.0,0.5,110,136.0
1122,E-4,91.0,0.5,110,136.0
1123,E-4,91.25,0.25,97,136.0
1124,G3,91.5,0.25,93,136.0
1125,C#3,91.5,0.25,93,136.0
1126,E-4,91.5,0.25,93,136.0
1127,C#3,91.5,0.5,103,136.0
1128,G2,91.5,0.5,103,136.0
1129,G4,91.525,367/1000,122,136.0
1130,D3,91.75,0.25,69,136.0
1131,E-4,91.75,0.25,69,136.0
1132,G3,92.0,1.25,108,136.0
1133,G2,92.0,0.5,107,136.0
1134,D6,92.0,0.25,80,136.0
1135,F3,92.0,0.25,80,136.0
1136,D4,92.0,0.25,80,136.0
1137,G3,92.0,1.5,114,136.0
1138,B-3,92.0,1.5,114,136.0
1139,G4,92.0,1.5,114,136.0
1140,B-4,92.0,1.5,114,136.0
1141,F4,92.058,7/10,127,136.0
1142,E-4,92.25,0.0,119,136.0
1143,D6,92.25,0.25,68,136.0
1144,E-4,92.25,0.25,68,136.0
1145,F3,92.25,0.25,68,136.0
1146,D6,92.5,0.25,82,136.0
1147,C#5,92.5,0.25,82,136.0
1148,E-4,92.5,0.25,82,136.0
1149,F3,92.5,0.25,82,136.0
1150,D4,92.5,0.25,82,136.0
1151,E-4,92.75,0.25,74,136.0
1152,F3,92.75,0.25,74,136.0
1153,D3,93.0,0.25,98,136.0
1154,C#5,93.0,0.25,98,136.0
1155,E-4,93.0,0.25,98,136.0
1156,F3,93.0,0.25,98,136.0
1157,D4,93.0,0.25,98,136.0
1158,D4,93.0,0.25,98,136.0
1159,D3,93.0,0.5,104,136.0
1160,G2,93.0,0.5,104,136.0
1161,E-4,93.25,0.25,70,136.0
1162,F3,93.25,0.25,70,136.0
1163,C#3,93.5,0.25,88,136.0
1164,C#5,93.5,0.25,88,136.0
1165,E-4,93.5,0.25,88,136.0
1166,F3,93.5,0.25,88,136.0
1167,G2,93.5,0.5,106,136.0
1168,C#3,93.5,0.5,106,136.0
1169,E-3,93.5,0.5,106,136.0
1170,G3,93.5,0.5,106,136.0
1171,E-4,93.5,0.5,106,136.0
1172,G4,93.5,0.5,106,136.0
1173,E-4,93.75,0.25,81,136.0
1174,F3,93.75,0.25,81,136.0
1175,D4,93.75,0.25,81,136.0
1176,G3,94.0,0.75,108,136.0
1177,G2,94.0,0.5,111,136.0
1178,E-4,94.0,0.25,92,136.0
1179,F3,94.0,0.25,92,136.0
1180,D4,94.0,0.25,92,136.0
1181,D4,94.0,0.25,92,136.0
1182,F3,94.25,0.25,51,136.0
1183,B-4,94.275,421/500,125,136.0
1184,D6,94.5,0.25,105,136.0
1185,C#5,94.5,0.25,105,136.0
1186,D4,94.5,0.25,105,136.0
1187,F3,94.75,0.25,51,136.0
1188,G3,95.0,0.25,82,136.0
1189,D3,95.0,0.25,82,136.0
1190,F3,95.0,0.25,82,136.0
1191,F3,95.0,0.25,82,136.0
1192,D4,95.0,0.25,82,136.0
1193,D3,95.0,0.5,108,136.0
1194,G2,95.0,0.5,108,136.0
1195,G4,95.133,74/125,127,136.0
1196,F3,95.25,0.25,80,136.0
1197,D4,95.25,0.25,80,136.0
1198,G3,95.5,0.25,77,136.0
1199,C#3,95.5,0.25,77,136.0
1200,F3,95.5,0.25,77,136.0
1201,G2,95.5,0.5,105,136.0
1202,C#3,95.5,0.5,105,136.0
1203,F3,95.75,0.25,72,136.0
1204,D4,95.75,0.25,72,136.0
1205,G3,96.0,0.5,109,136.0
1206,G2,96.0,0.5,109,136.0
1207,D6,96.0,0.25,90,136.0
1208,E-4,96.0,0.25,90,136.0
1209,F3,96.0,0.25,90,136.0
1210,D4,96.0,0.25,90,136.0
1211,B-3,96.0,1.5,114,136.0
1212,C4,96.0,1.5,114,136.0
1213,B-4,96.0,1.5,114,136.0
1214,C5,96.0,1.5,114,136.0
1215,D6,96.25,0.25,72,136.0
1216,E-4,96.25,0.25,72,136.0
1217,F3,96.25,0.25,72,136.0
1218,D6,96.5,0.25,88,136.0
1219,C#5,96.5,0.25,88,136.0
1220,E-4,96.5,0.25,88,136.0
1221,F3,96.5,0.25,88,136.0
1222,D4,96.5,0.25,88,136.0
1223,E-4,96.75,0.25,75,136.0
1224,F3,96.75,0.25,75,136.0
1225,D4,96.75,0.25,75,136.0
1226,F3,97.0,0.0,60,136.0
1227,D3,97.0,0.25,104,136.0
1228,C#5,97.0,0.25,104,136.0
1229,E-4,97.0,0.25,104,136.0
1230,D4,97.0,0.25,104,136.0
1231,D3,97.0,0.5,106,136.0
1232,G2,97.0,0.5,106,136.0
1233,E-4,97.25,0.25,62,136.0
1234,F3,97.25,0.25,62,136.0
1235,F3,97.5,0.0,47,136.0
1236,C#3,97.5,0.25,104,136.0
1237,C#5,97.5,0.25,104,136.0
1238,E-4,97.5,0.25,104,136.0
1239,D4,97.5,0.25,104,136.0
1240,G2,97.5,0.5,112,136.0
1241,C#3,97.5,0.5,112,136.0
1242,E-3,97.5,0.5,112,136.0
1243,G3,97.5,0.5,112,136.0
1244,E-4,97.5,0.5,112,136.0
1245,G4,97.5,0.5,112,136.0
1246,E-4,97.75,0.25,78,136.0
1247,F3,97.75,0.25,78,136.0
1248,D4,97.75,0.25,78,136.0
1249,G3,98.0,0.5,108,136.0
1250,G2,98.0,0.5,108,136.0
1251,E-4,98.0,0.25,90,136.0
1252,F3,98.0,0.25,90,136.0
1253,D4,98.0,0.25,90,136.0
1254,C5,98.092,126/125,127,136.0
1255,E-4,98.25,0.25,78,136.0
1256,F3,98.25,0.25,78,136.0
1257,D6,98.5,0.25,92,136.0
1258,C#5,98.5,0.25,92,136.0
1259,E-4,98.5,0.25,92,136.0
1260,F3,98.5,0.25,92,136.0
1261,D4,98.5,0.25,92,136.0
1262,F3,98.75,0.25,68,136.0
1263,D4,98.75,0.25,68,136.0
1264,G3,99.0,0.25,87,136.0
1265,F3,99.0,0.25,87,136.0
1266,D4,99.0,0.25,87,136.0
1267,D3,99.0,0.5,107,136.0
1268,D3,99.0,0.5,107,136.0
1269,G2,99.0,0.5,107,136.0
1270,G4,99.108,371/500,122,136.0
1271,F3,99.25,0.25,57,136.0
1272,G3,99.5,0.25,86,136.0
1273,C#3,99.5,0.25,86,136.0
1274,F3,99.5,0.25,86,136.0
1275,D4,99.5,0.25,86,136.0
1276,G2,99.5,0.5,124,136.0
1277,C#3,99.5,0.5,124,136.0
1278,F3,99.75,0.25,49,136.0
1279,G3,100.0,1.25,88,136.0
1280,D6,100.0,0.25,87,136.0
1281,E-4,100.0,0.25,87,136.0
1282,F3,100.0,0.25,87,136.0
1283,D4,100.0,0.25,87,136.0
1284,G2,100.0,0.5,103,136.0
1285,E-3,100.0,0.5,103,136.0
1286,G3,100.0,0.5,103,136.0
1287,E-4,100.0,0.5,103,136.0
1288,G4,100.0,0.5,103,136.0
1289,D6,100.25,0.25,72,136.0
1290,E-4,100.25,0.25,72,136.0
1291,F3,100.25,0.25,72,136.0
1292,D6,100.5,0.25,89,136.0
1293,C#5,100.5,0.25,89,136.0
1294,E-4,100.5,0.25,89,136.0
1295,F3,100.5,0.25,89,136.0
1296,D4,100.5,0.25,89,136.0
1297,D3,100.5,0.5,94,136.0
1298,F3,100.5,0.5,94,136.0
1299,D4,100.5,0.5,94,136.0
1300,F4,100.5,0.5,94,136.0
1301,E-4,100.75,0.25,72,136.0
1302,F3,100.75,0.25,72,136.0
1303,D4,100.75,0.25,72,136.0
1304,D3,101.0,0.5,100,136.0
1305,G2,101.0,0.5,100,136.0
1306,D3,101.0,0.5,100,136.0
1307,D3,101.0,0.5,100,136.0
1308,F3,101.0,0.5,100,136.0
1309,D4,101.0,0.5,100,136.0
1310,F4,101.0,0.5,100,136.0
1311,C#5,101.0,0.25,98,136.0
1312,E-4,101.0,0.25,98,136.0
1313,F3,101.0,0.25,98,136.0
1314,D4,101.0,0.25,98,136.0
1315,E-4,101.25,0.25,74,136.0
1316,F3,101.25,0.25,74,136.0
1317,C#3,101.5,0.5,110,136.0
1318,C#3,101.5,0.5,110,136.0
1319,G2,101.5,0.5,110,136.0
1320,C3,101.5,0.5,110,136.0
1321,E-3,101.5,0.5,110,136.0
1322,C4,101.5,0.5,110,136.0
1323,E-4,101.5,0.5,110,136.0
1324,C#5,101.5,0.25,93,136.0
1325,E-4,101.5,0.25,93,136.0
1326,F3,101.5,0.25,93,136.0
1327,D4,101.5,0.25,93,136.0
1328,E-4,101.75,0.25,75,136.0
1329,F3,101.75,0.25,75,136.0
1330,G3,102.0,0.75,92,136.0
1331,G2,102.0,0.5,110,136.0
1332,D3,102.0,1.5,114,136.0
1333,F3,102.0,1.5,114,136.0
1334,D4,102.0,1.5,114,136.0
1335,F4,102.0,1.5,114,136.0
1336,E-4,102.0,0.25,95,136.0
1337,F3,102.0,0.25,95,136.0
1338,D4,102.0,0.25,95,136.0
1339,D4,102.0,0.25,95,136.0
1340,F3,102.25,0.25,56,136.0
1341,D6,102.5,0.25,96,136.0
1342,C#5,102.5,0.25,96,136.0
1343,F3,102.5,0.25,96,136.0
1344,D4,102.5,0.25,96,136.0
1345,F3,102.75,0.25,52,136.0
1346,G3,103.0,0.25,92,136.0
1347,D3,103.0,0.25,92,136.0
1348,F3,103.0,0.25,92,136.0
1349,D4,103.0,0.25,92,136.0
1350,D4,103.0,0.25,92,136.0
1351,G2,103.0,0.5,96,136.0
1352,D3,103.0,0.5,96,136.0
1353,F3,103.25,0.25,56,136.0
1354,G3,103.5,0.25,81,136.0
1355,C#3,103.5,0.25,81,136.0
1356,F3,103.5,0.25,81,136.0
1357,D4,103.5,0.25,81,136.0
1358,C#3,103.5,0.5,112,136.0
1359,G2,103.5,0.5,112,136.0
1360,F3,103.75,0.25,60,136.0
1361,F3,104.0,0.0,51,136.0
1362,G3,104.0,1.5,105,136.0
1363,G2,104.0,1.0,111,136.0
1364,D6,104.0,0.25,102,136.0
1365,E-4,104.0,0.25,102,136.0
1366,D4,104.0,0.25,102,136.0
1367,B-2,104.0,0.5,107,136.0
1368,C3,104.0,0.5,107,136.0
1369,B-3,104.0,0.5,107,136.0
1370,C4,104.0,0.5,107,136.0
1371,D6,104.25,0.25,74,136.0
1372,E-4,104.25,0.25,74,136.0
1373,F3,104.25,0.25,74,136.0
1374,D6,104.5,0.25,88,136.0
1375,C#5,104.5,0.25,88,136.0
1376,E-4,104.5,0.25,88,136.0
1377,F3,104.5,0.25,88,136.0
1378,D4,104.5,0.25,88,136.0
1379,C3,104.5,1.0,114,136.0
1380,E-3,104.5,1.0,114,136.0
1381,C4,104.5,1.0,114,136.0
1382,E-4,104.5,1.0,114,136.0
1383,E-4,104.75,0.25,74,136.0
1384,F3,104.75,0.25,74,136.0
1385,D4,104.75,0.25,74,136.0
1386,D3,105.0,0.25,98,136.0
1387,C#5,105.0,0.25,98,136.0
1388,E-4,105.0,0.25,98,136.0
1389,F3,105.0,0.25,98,136.0
1390,D4,105.0,0.25,98,136.0
1391,D3,105.0,0.5,98,136.0
1392,G2,105.0,0.5,98,136.0
1393,E-4,105.25,0.25,77,136.0
1394,F3,105.25,0.25,77,136.0
1395,D4,105.25,0.25,77,136.0
1396,C#3,105.5,0.25,94,136.0
1397,C#5,105.5,0.25,94,136.0
1398,E-4,105.5,0.25,94,136.0
1399,F3,105.5,0.25,94,136.0
1400,D4,105.5,0.25,94,136.0
1401,C#3,105.5,0.5,103,136.0
1402,G2,105.5,0.5,103,136.0
1403,E-3,105.5,0.5,103,136.0
1404,G3,105.5,0.5,103,136.0
1405,E-4,105.5,0.5,103,136.0
1406,G4,105.5,0.5,103,136.0
1407,E-4,105.75,0.25,80,136.0
1408,F3,105.75,0.25,80,136.0
1409,D4,105.75,0.25,80,136.0
1410,G3,106.0,0.75,108,136.0
1411,G2,106.0,1.0,112,136.0
1412,D3,106.0,1.0,112,136.0
1413,F3,106.0,1.0,112,136.0
1414,D4,106.0,1.0,112,136.0
1415,F4,106.0,1.0,112,136.0
1416,E-4,106.0,0.25,95,136.0
1417,F3,106.0,0.25,95,136.0
1418,D4,106.0,0.25,95,136.0
1419,G4,106.017,7/20,111,136.0
1420,F3,106.25,0.25,72,136.0
1421,D4,106.25,0.25,72,136.0
1422,F4,106.5,9/20,127,136.0
1423,D6,106.5,0.25,94,136.0
1424,C#5,106.5,0.25,94,136.0
1425,F3,106.5,0.25,94,136.0
1426,D4,106.5,0.25,94,136.0
1427,F3,106.75,0.25,70,136.0
1428,D4,106.75,0.25,70,136.0
1429,G3,107.0,0.25,93,136.0
1430,D3,107.0,0.25,93,136.0
1431,F3,107.0,0.25,93,136.0
1432,D4,107.0,0.25,93,136.0
1433,G2,107.0,0.5,110,136.0
1434,D3,107.0,0.5,110,136.0
1435,C3,107.0,0.5,110,136.0
1436,E-3,107.0,0.5,110,136.0
1437,C4,107.0,0.5,110,136.0
1438,E-4,107.0,0.5,110,136.0
1439,F3,107.25,0.25,76,136.0
1440,D4,107.25,0.25,76,136.0
1441,G3,107.5,0.25,83,136.0
1442,C#3,107.5,0.25,83,136.0
1443,F3,107.5,0.25,83,136.0
1444,D4,107.5,0.25,83,136.0
1445,C#3,107.5,0.5,103,136.0
1446,G2,107.5,0.5,103,136.0
1447,F4,107.583,417/1000,127,136.0
1448,D3,107.75,0.25,67,136.0
1449,F3,107.75,0.25,67,136.0
1450,D4,107.75,0.25,67,136.0
1451,G3,108.0,1.25,108,136.0
1452,F4,108.0,117/1000,127,136.0
1453,D6,108.0,0.25,90,136.0
1454,E-4,108.0,0.25,90,136.0
1455,F3,108.0,0.25,90,136.0
1456,D4,108.0,0.25,90,136.0
1457,G2,108.0,0.5,107,136.0
1458,E-3,108.0,0.5,107,136.0
1459,F#3,108.0,0.5,107,136.0
1460,E-4,108.0,0.5,107,136.0
1461,F#4,108.0,0.5,107,136.0
1462,E-4,108.117,21/40,122,136.0
1463,D6,108.25,0.25,76,136.0
1464,E-4,108.25,0.25,76,136.0
1465,F3,108.25,0.25,76,136.0
1466,D4,108.25,0.25,76,136.0
1467,D6,108.5,0.25,85,136.0
1468,C#5,108.5,0.25,85,136.0
1469,E-4,108.5,0.25,85,136.0
1470,F3,108.5,0.25,85,136.0
1471,D4,108.5,0.25,85,136.0
1472,C3,108.5,1.0,105,136.0
1473,E-3,108.5,1.0,105,136.0
1474,C4,108.5,1.0,105,136.0
1475,E-4,108.5,1.0,105,136.0
1476,E-4,108.75,0.25,75,136.0
1477,F3,108.75,0.25,75,136.0
1478,D4,108.75,0.25,75,136.0
1479,D3,109.0,0.25,96,136.0
1480,C#5,109.0,0.25,96,136.0
1481,E-4,109.0,0.25,96,136.0
1482,F3,109.0,0.25,96,136.0
1483,D4,109.0,0.25,96,136.0
1484,D3,109.0,0.5,104,136.0
1485,G2,109.0,0.5,104,136.0
1486,E-4,109.25,0.25,76,136.0
1487,F3,109.25,0.25,76,136.0
1488,D4,109.25,0.25,76,136.0
1489,C#3,109.5,0.25,94,136.0
1490,C#5,109.5,0.25,94,136.0
1491,E-4,109.5,0.25,94,136.0
1492,F3,109.5,0.25,94,136.0
1493,D4,109.5,0.25,94,136.0
1494,G2,109.5,0.5,111,136.0
1495,C#3,109.5,0.5,111,136.0
1496,E-3,109.5,0.5,111,136.0
1497,F#3,109.5,0.5,111,136.0
1498,E-4,109.5,0.5,111,136.0
1499,F#4,109.5,0.5,111,136.0
1500,F3,109.75,0.25,77,136.0
1501,D4,109.75,0.25,77,136.0
1502,G3,110.0,0.75,108,136.0
1503,G2,110.0,0.5,111,136.0
1504,E-4,110.0,0.25,87,136.0
1505,F3,110.0,0.25,87,136.0
1506,D4,110.0,0.25,87,136.0
1507,E-4,110.25,0.25,70,136.0
1508,F3,110.25,0.25,70,136.0
1509,D6,110.5,0.25,91,136.0
1510,C#5,110.5,0.25,91,136.0
1511,F3,110.5,0.25,91,136.0
1512,D4,110.5,0.25,91,136.0
1513,D4,110.5,0.25,91,136.0
1514,F#4,110.575,217/1000,127,136.0
1515,E-4,110.75,0.25,88,136.0
1516,E-4,110.75,0.25,88,136.0
1517,F3,110.75,0.25,88,136.0
1518,G3,111.0,0.25,92,136.0
1519,D3,111.0,0.25,92,136.0
1520,E-4,111.0,0.25,92,136.0
1521,F3,111.0,0.25,92,136.0
1522,D4,111.0,0.25,92,136.0
1523,D4,111.0,0.25,92,136.0
1524,D3,111.0,0.5,108,136.0
1525,G2,111.0,0.5,108,136.0
1526,F#4,111.075,817/1000,127,136.0
1527,F3,111.25,0.25,63,136.0
1528,G3,111.5,0.25,94,136.0
1529,C#3,111.5,0.25,94,136.0
1530,E-4,111.5,0.25,94,136.0
1531,D4,111.5,0.25,94,136.0
1532,D4,111.5,0.25,94,136.0
1533,G2,111.5,0.5,105,136.0
1534,C#3,111.5,0.5,105,136.0
1535,E-4,111.75,0.25,78,136.0
1536,F3,111.75,0.25,78,136.0
1537,F3,111.75,0.25,78,136.0
1538,D4,111.75,0.25,78,136.0
1539,G3,112.0,0.5,108,136.0
1540,G2,112.0,0.5,108,136.0
1541,E-3,112.0,0.5,108,136.0
1542,F#3,112.0,0.5,108,136.0
1543,E-4,112.0,0.5,108,136.0
1544,F#4,112.0,0.5,108,136.0
1545,D6,112.0,0.25,83,136.0
1546,F3,112.0,0.25,83,136.0
1547,D4,112.0,0.25,83,136.0
1548,D6,112.25,0.25,81,136.0
1549,E-4,112.25,0.25,81,136.0
1550,F3,112.25,0.25,81,136.0
1551,D4,112.25,0.25,81,136.0
1552,D6,112.5,0.25,84,136.0
1553,C#5,112.5,0.25,84,136.0
1554,E-4,112.5,0.25,84,136.0
1555,F3,112.5,0.25,84,136.0
1556,D4,112.5,0.25,84,136.0
1557,C3,112.5,1.0,98,136.0
1558,E-3,112.5,1.0,98,136.0
1559,C4,112.5,1.0,98,136.0
1560,E-4,112.5,1.0,98,136.0
1561,F3,112.75,0.25,76,136.0
1562,D4,112.75,0.25,76,136.0
1563,D3,113.0,0.25,99,136.0
1564,C#5,113.0,0.25,99,136.0
1565,E-4,113.0,0.25,99,136.0
1566,F3,113.0,0.25,99,136.0
1567,D3,113.0,0.5,106,136.0
1568,G2,113.0,0.5,106,136.0
1569,D4,113.25,0.0,93,136.0
1570,F3,113.25,0.25,82,136.0
1571,D4,113.25,0.25,82,136.0
1572,C#3,113.5,0.25,91,136.0
1573,C#5,113.5,0.25,91,136.0
1574,E-4,113.5,0.25,91,136.0
1575,F3,113.5,0.25,91,136.0
1576,D4,113.5,0.25,91,136.0
1577,G2,113.5,0.5,108,136.0
1578,C#3,113.5,0.5,108,136.0
1579,A2,113.5,1.0,97,136.0
1580,C3,113.5,1.0,97,136.0
1581,A3,113.5,1.0,97,136.0
1582,C4,113.5,1.0,97,136.0
1583,E-4,113.75,0.25,79,136.0
1584,F3,113.75,0.25,79,136.0
1585,D4,113.75,0.25,79,136.0
1586,G3,114.0,0.5,108,136.0
1587,G2,114.0,0.5,108,136.0
1588,F3,114.0,0.25,86,136.0
1589,D4,114.0,0.25,86,136.0
1590,E-4,114.25,0.0,107,136.0
1591,F3,114.25,0.25,78,136.0
1592,D4,114.25,0.25,78,136.0
1593,D6,114.5,0.25,93,136.0
1594,C#5,114.5,0.25,93,136.0
1595,E-4,114.5,0.25,93,136.0
1596,F3,114.5,0.25,93,136.0
1597,D4,114.5,0.25,93,136.0
1598,F#4,114.575,233/1000,114,136.0
1599,E-4,114.75,0.25,86,136.0
1600,F3,114.75,0.25,86,136.0
1601,D4,114.75,0.25,86,136.0
1602,G3,115.0,0.25,92,136.0
1603,E-4,115.0,0.25,92,136.0
1604,F3,115.0,0.25,92,136.0
1605,D4,115.0,0.25,92,136.0
1606,D3,115.0,0.5,107,136.0
1607,D3,115.0,0.5,107,136.0
1608,G2,115.0,0.5,107,136.0
1609,F#4,115.05,73/250,117,136.0
1610,F3,115.25,0.25,74,136.0
1611,D4,115.25,0.25,74,136.0
1612,G3,115.5,0.25,90,136.0
1613,C#3,115.5,0.25,90,136.0
1614,E-4,115.5,0.25,90,136.0
1615,F3,115.5,0.25,90,136.0
1616,D4,115.5,0.25,90,136.0
1617,G2,115.5,0.5,124,136.0
1618,C#3,115.5,0.5,124,136.0
1619,F#4,115.55,9/20,125,136.0
1620,E-4,115.75,0.25,83,136.0
1621,F3,115.75,0.25,83,136.0
1622,D4,115.75,0.25,83,136.0
1623,G3,116.0,1.25,88,136.0
1624,F#4,116.0,0.125,125,136.0
1625,D6,116.0,0.25,89,136.0
1626,E-4,116.0,0.25,89,136.0
1627,F3,116.0,0.25,89,136.0
1628,D4,116.0,0.25,89,136.0
1629,G2,116.0,0.5,105,136.0
1630,E-3,116.0,0.5,105,136.0
1631,F#3,116.0,0.5,105,136.0
1632,E-4,116.0,0.5,105,136.0
1633,F#4,116.0,0.5,105,136.0
1634,D6,116.25,0.25,78,136.0
1635,F3,116.25,0.25,78,136.0
1636,D4,116.25,0.25,78,136.0
1637,D6,116.5,0.25,87,136.0
1638,C#5,116.5,0.25,87,136.0
1639,E-4,116.5,0.25,87,136.0
1640,F3,116.5,0.25,87,136.0
1641,D4,116.5,0.25,87,136.0
1642,C3,116.5,1.0,107,136.0
1643,E-3,116.5,1.0,107,136.0
1644,C4,116.5,1.0,107,136.0
1645,E-4,116.5,1.0,107,136.0
1646,F3,116.75,0.25,77,136.0
1647,D4,116.75,0.25,77,136.0
1648,D3,117.0,0.5,101,136.0
1649,G2,117.0,0.5,101,136.0
1650,D3,117.0,0.5,101,136.0
1651,C#5,117.0,0.25,98,136.0
1652,E-4,117.0,0.25,98,136.0
1653,E-4,117.0,0.25,98,136.0
1654,F3,117.0,0.25,98,136.0
1655,D4,117.0,0.25,98,136.0
1656,F3,117.25,0.25,78,136.0
1657,D4,117.25,0.25,78,136.0
1658,C#3,117.5,0.5,104,136.0
1659,C#3,117.5,0.5,104,136.0
1660,G2,117.5,0.5,104,136.0
1661,E-3,117.5,1.0,114,136.0
1662,F#3,117.5,1.0,114,136.0
1663,E-4,117.5,1.0,114,136.0
1664,F#4,117.5,1.0,114,136.0
1665,C#5,117.5,0.25,96,136.0
1666,E-4,117.5,0.25,96,136.0
1667,F3,117.5,0.25,96,136.0
1668,D4,117.5,0.25,96,136.0
1669,E-4,117.75,0.25,83,136.0
1670,F3,117.75,0.25,83,136.0
1671,D4,117.75,0.25,83,136.0
1672,G3,118.0,0.75,92,136.0
1673,G2,118.0,0.5,110,136.0
1674,E-4,118.0,0.25,91,136.0
1675,F3,118.0,0.25,91,136.0
1676,D4,118.0,0.25,91,136.0
1677,F3,118.25,0.25,76,136.0
1678,D4,118.25,0.25,76,136.0
1679,D6,118.5,0.25,95,136.0
1680,C#5,118.5,0.25,95,136.0
1681,E-4,118.5,0.25,95,136.0
1682,F3,118.5,0.25,95,136.0
1683,D4,118.5,0.25,95,136.0
1684,F#4,118.525,383/1000,104,136.0
1685,E-4,118.75,0.25,84,136.0
1686,F3,118.75,0.25,84,136.0
1687,D4,118.75,0.25,84,136.0
1688,G3,119.0,0.25,92,136.0
1689,D3,119.0,0.25,92,136.0
1690,E-4,119.0,0.25,92,136.0
1691,F3,119.0,0.25,92,136.0
1692,G2,119.0,0.5,96,136.0
1693,D3,119.0,0.5,96,136.0
1694,B-4,119.025,99/125,119,136.0
1695,F3,119.25,0.25,87,136.0
1696,D4,119.25,0.25,87,136.0
1697,D4,119.25,0.25,87,136.0
1698,G3,119.5,0.25,85,136.0
1699,C#3,119.5,0.25,85,136.0
1700,E-4,119.5,0.25,85,136.0
1701,F3,119.5,0.25,85,136.0
1702,D4,119.5,0.25,85,136.0
1703,C#3,119.5,0.5,112,136.0
1704,G2,119.5,0.5,112,136.0
1705,E-4,119.75,0.25,82,136.0
1706,F3,119.75,0.25,82,136.0
1707,D4,119.75,0.25,82,136.0
1708,G3,120.0,1.5,105,136.0
1709,G2,120.0,1.0,111,136.0
1710,D6,120.0,0.25,90,136.0
1711,E-4,120.0,0.25,90,136.0
1712,F3,120.0,0.25,90,136.0
1713,D4,120.0,0.25,90,136.0
1714,E-3,120.0,0.5,107,136.0
1715,F#3,120.0,0.5,107,136.0
1716,E-4,120.0,0.5,107,136.0
1717,F#4,120.0,0.5,107,136.0
1718,F#4,120.225,0.0,114,136.0
1719,D6,120.25,0.25,77,136.0
1720,F3,120.25,0.25,77,136.0
1721,D4,120.25,0.25,77,136.0
1722,D6,120.5,0.25,86,136.0
1723,C#5,120.5,0.25,86,136.0
1724,E-4,120.5,0.25,86,136.0
1725,F3,120.5,0.25,86,136.0
1726,D4,120.5,0.25,86,136.0
1727,C3,120.5,1.0,107,136.0
1728,E-3,120.5,1.0,107,136.0
1729,C4,120.5,1.0,107,136.0
1730,E-4,120.5,1.0,107,136.0
1731,F#4,120.542,3/10,122,136.0
1732,D4,120.75,0.25,87,136.0
1733,D3,121.0,0.25,93,136.0
1734,C#5,121.0,0.25,93,136.0
1735,E-4,121.0,0.25,93,136.0
1736,E-4,121.0,0.25,93,136.0
1737,F3,121.0,0.25,93,136.0
1738,F3,121.0,0.25,93,136.0
1739,D4,121.0,0.25,93,136.0
1740,D3,121.0,0.5,98,136.0
1741,G2,121.0,0.5,98,136.0
1742,F3,121.25,0.25,76,136.0
1743,D4,121.25,0.25,76,136.0
1744,C#3,121.5,0.25,97,136.0
1745,C#5,121.5,0.25,97,136.0
1746,E-4,121.5,0.25,97,136.0
1747,F3,121.5,0.25,97,136.0
1748,D4,121.5,0.25,97,136.0
1749,C#3,121.5,0.5,98,136.0
1750,G2,121.5,0.5,98,136.0
1751,A2,121.5,1.0,95,136.0
1752,C3,121.5,1.0,95,136.0
1753,A3,121.5,1.0,95,136.0
1754,C4,121.5,1.0,95,136.0
1755,F3,121.75,0.25,72,136.0
1756,D4,121.75,0.25,72,136.0
1757,G3,122.0,0.75,108,136.0
1758,G2,122.0,1.0,107,136.0
1759,E-4,122.0,0.25,92,136.0
1760,E-4,122.0,0.25,92,136.0
1761,F3,122.0,0.25,92,136.0
1762,D4,122.0,0.25,92,136.0
1763,F3,122.25,0.25,63,136.0
1764,D6,122.5,0.25,92,136.0
1765,C#5,122.5,0.25,92,136.0
1766,E-4,122.5,0.25,92,136.0
1767,F3,122.5,0.25,92,136.0
1768,D4,122.5,0.25,92,136.0
1769,D4,122.5,0.25,92,136.0
1770,C3,122.5,0.5,112,136.0
1771,E-3,122.5,0.5,112,136.0
1772,C4,122.5,0.5,112,136.0
1773,E-4,122.5,0.5,112,136.0
1774,F#4,122.575,1/5,114,136.0
1775,F3,122.75,0.25,75,136.0
1776,D4,122.75,0.25,75,136.0
1777,G3,123.0,0.25,96,136.0
1778,D3,123.0,0.25,96,136.0
1779,E-4,123.0,0.25,96,136.0
1780,E-4,123.0,0.25,96,136.0
1781,F3,123.0,0.25,96,136.0
1782,D4,123.0,0.25,96,136.0
1783,G2,123.0,0.5,102,136.0
1784,D3,123.0,0.5,102,136.0
1785,F#4,123.067,129/500,117,136.0
1786,F3,123.25,0.25,74,136.0
1787,D4,123.25,0.25,74,136.0
1788,G3,123.5,0.25,84,136.0
1789,C#3,123.5,0.25,84,136.0
1790,E-4,123.5,0.25,84,136.0
1791,F3,123.5,0.25,84,136.0
1792,D4,123.5,0.25,84,136.0
1793,C#3,123.5,0.5,110,136.0
1794,G2,123.5,0.5,110,136.0
1795,F#4,123.5,0.5,110,136.0
1796,D3,123.75,0.25,69,136.0
1797,F3,123.75,0.25,69,136.0
1798,D4,123.75,0.25,69,136.0
1799,G3,124.0,1.25,108,136.0
1800,D6,124.0,0.25,94,136.0
1801,E-4,124.0,0.25,94,136.0
1802,E-4,124.0,0.25,94,136.0
1803,F3,124.0,0.25,94,136.0
1804,D4,124.0,0.25,94,136.0
1805,G2,124.0,0.5,107,136.0
1806,E-3,124.0,0.5,107,136.0
1807,F#3,124.0,0.5,107,136.0
1808,E-4,124.0,0.5,107,136.0
1809,F#4,124.0,0.5,107,136.0
1810,D6,124.25,0.25,75,136.0
1811,F3,124.25,0.25,75,136.0
1812,D4,124.25,0.25,75,136.0
1813,D6,124.5,0.25,88,136.0
1814,C#5,124.5,0.25,88,136.0
1815,E-4,124.5,0.25,88,136.0
1816,F3,124.5,0.25,88,136.0
1817,D4,124.5,0.25,88,136.0
1818,C3,124.5,1.0,110,136.0
1819,E-3,124.5,1.0,110,136.0
1820,C4,124.5,1.0,110,136.0
1821,E-4,124.5,1.0,110,136.0
1822,E-4,124.75,0.25,83,136.0
1823,F3,124.75,0.25,83,136.0
1824,D4,124.75,0.25,83,136.0
1825,G3,125.0,3.0,116,136.0
1826,D3,125.0,0.25,103,136.0
1827,C#5,125.0,0.25,103,136.0
1828,E-4,125.0,0.25,103,136.0
1829,F3,125.0,0.25,103,136.0
1830,D4,125.0,0.25,103,136.0
1831,D3,125.0,0.5,104,136.0
1832,G2,125.0,0.5,104,136.0
1833,F3,125.25,0.25,78,136.0
1834,D4,125.25,0.25,78,136.0
1835,C#3,125.5,0.25,94,136.0
1836,C#5,125.5,0.25,94,136.0
1837,E-4,125.5,0.25,94,136.0
1838,F3,125.5,0.25,94,136.0
1839,D4,125.5,0.25,94,136.0
1840,G2,125.5,0.5,111,136.0
1841,C#3,125.5,0.5,111,136.0
1842,E-3,125.5,0.5,111,136.0
1843,F#3,125.5,0.5,111,136.0
1844,E-4,125.5,0.5,111,136.0
1845,F#4,125.5,0.5,111,136.0
1846,E-4,125.75,0.25,89,136.0
1847,F3,125.75,0.25,89,136.0
1848,D4,125.75,0.25,89,136.0
1849,G3,126.0,0.75,108,136.0
1850,G2,126.0,0.5,111,136.0
1851,E-4,126.0,0.25,95,136.0
1852,F3,126.0,0.25,95,136.0
1853,D4,126.0,0.25,95,136.0
1854,F3,126.25,0.25,78,136.0
1855,D4,126.25,0.25,78,136.0
1856,F#4,126.433,183/1000,107,136.0
1857,D6,126.5,0.25,93,136.0
1858,C#5,126.5,0.25,93,136.0
1859,E-4,126.5,0.25,93,136.0
1860,F3,126.5,0.25,93,136.0
1861,D4,126.5,0.25,93,136.0
1862,E-4,126.75,0.25,85,136.0
1863,F3,126.75,0.25,85,136.0
1864,D4,126.75,0.25,85,136.0
1865,F#4,126.958,433/1000,109,136.0
1866,G3,127.0,0.25,95,136.0
1867,D3,127.0,0.25,95,136.0
1868,E-4,127.0,0.25,95,136.0
1869,F3,127.0,0.25,95,136.0
1870,D4,127.0,0.25,95,136.0
1871,D3,127.0,0.5,108,136.0
1872,G2,127.0,0.5,108,136.0
1873,F3,127.25,0.25,64,136.0
1874,E-4,127.475,383/1000,98,136.0
1875,G3,127.5,0.25,83,136.0
1876,C#3,127.5,0.25,83,136.0
1877,E-4,127.5,0.25,83,136.0
1878,F3,127.5,0.25,83,136.0
1879,D4,127.5,0.25,83,136.0
1880,D4,127.5,0.25,83,136.0
1881,G2,127.5,0.5,105,136.0
1882,C#3,127.5,0.5,105,136.0
1883,E-4,127.75,0.25,86,136.0
1884,F3,127.75,0.25,86,136.0
1885,D4,127.75,0.25,86,136.0
1886,F#4,127.983,17/1000,109,136.0
1887,G3,128.0,117/1000,113,136.0
1888,F#4,128.0,13/40,109,136.0
1889,G3,128.0,17/20,116,136.0
1890,G3,128.0,0.5,109,136.0
1891,G2,128.0,0.5,109,136.0
1892,E-3,128.0,0.5,109,136.0
1893,F#3,128.0,0.5,109,136.0
1894,E-4,128.0,0.5,109,136.0
1895,F#4,128.0,0.5,109,136.0
1896,D6,128.0,0.25,91,136.0
1897,E-4,128.0,0.25,91,136.0
1898,F3,128.0,0.25,91,136.0
1899,D4,128.0,0.25,91,136.0
1900,D6,128.25,0.25,83,136.0
1901,D4,128.25,0.25,83,136.0
1902,D6,128.5,0.25,82,136.0
1903,C#5,128.5,0.25,82,136.0
1904,E-4,128.5,0.25,82,136.0
1905,F3,128.5,0.25,82,136.0
1906,D4,128.5,0.25,82,136.0
1907,C3,128.5,517/1000,109,136.0
1908,E-3,128.5,517/1000,109,136.0
1909,C4,128.5,517/1000,109,136.0
1910,E-4,128.5,517/1000,109,136.0
1911,E-4,128.5,517/1000,109,136.0
1912,E-4,128.75,0.25,86,136.0
1913,F3,128.75,0.25,86,136.0
1914,D4,128.75,0.25,86,136.0
1915,D3,129.0,0.25,101,136.0
1916,C#5,129.0,0.25,101,136.0
1917,E-4,129.0,0.25,101,136.0
1918,F3,129.0,0.25,101,136.0
1919,D4,129.0,0.25,101,136.0
1920,D3,129.0,0.5,106,136.0
1921,G2,129.0,0.5,106,136.0
1922,F3,129.25,0.25,81,136.0
1923,D4,129.25,0.25,81,136.0
1924,C#3,129.5,0.25,92,136.0
1925,C#5,129.5,0.25,92,136.0
1926,E-4,129.5,0.25,92,136.0
1927,F3,129.5,0.25,92,136.0
1928,F3,129.5,0.25,92,136.0
1929,D4,129.5,0.25,92,136.0
1930,G2,129.5,0.5,108,136.0
1931,C#3,129.5,0.5,108,136.0
1932,A2,129.5,1.0,105,136.0
1933,C3,129.5,1.0,105,136.0
1934,A3,129.5,1.0,105,136.0
1935,C4,129.5,1.0,105,136.0
1936,F3,129.75,0.25,77,136.0
1937,D4,129.75,0.25,77,136.0
1938,G3,130.0,0.5,108,136.0
1939,G2,130.0,0.5,108,136.0
1940,E-4,130.0,0.25,85,136.0
1941,E-4,130.0,0.25,85,136.0
1942,F3,130.0,0.25,85,136.0
1943,D4,130.25,0.0,101,136.0
1944,F3,130.25,0.25,78,136.0
1945,D4,130.25,0.25,78,136.0
1946,D6,130.5,7/40,93,136.0
1947,C#5,130.5,7/40,93,136.0
1948,E-4,130.5,7/40,93,136.0
1949,E-4,130.5,7/40,93,136.0
1950,F3,130.5,7/40,93,136.0
1951,D4,130.5,7/40,93,136.0
1952,F#4,130.5,7/40,93,136.0
1953,E-4,130.75,0.25,80,136.0
1954,F3,130.75,0.25,80,136.0
1955,D4,130.75,0.25,80,136.0
1956,G3,131.0,0.25,96,136.0
1957,E-4,131.0,0.25,96,136.0
1958,F3,131.0,0.25,96,136.0
1959,D4,131.0,0.25,96,136.0
1960,D3,131.0,0.5,107,136.0
1961,D3,131.0,0.5,107,136.0
1962,G2,131.0,0.5,107,136.0
1963,F#4,131.075,183/1000,117,136.0
1964,F3,131.25,0.25,78,136.0
1965,D4,131.25,0.25,78,136.0
1966,G3,131.5,0.25,87,136.0
1967,C#3,131.5,0.25,87,136.0
1968,E-4,131.5,0.25,87,136.0
1969,E-4,131.5,0.25,87,136.0
1970,F3,131.5,0.25,87,136.0
1971,D4,131.5,0.25,87,136.0
1972,G2,131.5,0.5,121,136.0
1973,C#3,131.5,0.5,121,136.0
1974,F#4,131.5,0.5,121,136.0
1975,E-4,131.75,0.25,86,136.0
1976,F3,131.75,0.25,86,136.0
1977,D4,131.75,0.25,86,136.0
1978,G3,132.0,1.25,88,136.0
1979,G2,132.0,0.5,96,136.0
1980,D6,132.0,0.25,92,136.0
1981,E-4,132.0,0.25,92,136.0
1982,F3,132.0,0.25,92,136.0
1983,D4,132.0,0.25,92,136.0
1984,D6,132.25,0.25,82,136.0
1985,E-4,132.25,0.25,82,136.0
1986,F3,132.25,0.25,82,136.0
1987,D4,132.25,0.25,82,136.0
1988,D6,132.5,0.25,90,136.0
1989,C#5,132.5,0.25,90,136.0
1990,E-4,132.5,0.25,90,136.0
1991,F3,132.5,0.25,90,136.0
1992,D4,132.5,0.25,90,136.0
1993,E-4,132.75,0.25,81,136.0
1994,F3,132.75,0.25,81,136.0
1995,D4,132.75,0.25,81,136.0
1996,D3,133.0,0.5,101,136.0
1997,G2,133.0,0.5,101,136.0
1998,D3,133.0,0.5,101,136.0
1999,C#5,133.0,0.25,100,136.0
2000,E-4,133.0,0.25,100,136.0
2001,F3,133.0,0.25,100,136.0
2002,D4,133.0,0.25,100,136.0
2003,E-4,133.25,0.25,83,136.0
2004,F3,133.25,0.25,83,136.0
2005,D4,133.25,0.25,83,136.0
2006,C#3,133.5,0.5,104,136.0
2007,C#3,133.5,0.5,104,136.0
2008,G2,133.5,0.5,104,136.0
2009,C#5,133.5,0.25,85,136.0
2010,F3,133.5,0.25,85,136.0
2011,D4,133.5,0.25,85,136.0
2012,E-4,133.75,0.0,109,136.0
2013,E-4,133.75,0.25,86,136.0
2014,F3,133.75,0.25,86,136.0
2015,D4,133.75,0.25,86,136.0
2016,G3,134.0,0.75,92,136.0
2017,G2,134.0,0.5,110,136.0
2018,E-6,134.0,0.125,100,136.0
2019,E-4,134.0,0.25,99,136.0
2020,F3,134.0,0.25,99,136.0
2021,D4,134.0,0.25,99,136.0
