,note_name,start_time,duration,velocity,tempo
0,F#3,0.0,2.0,95,148.0
1,B2,0.0,2.0,95,148.0
2,G3,2.0,2.0,95,148.0
3,D3,2.0,2.0,95,148.0
4,G2,2.0,2.0,95,148.0
5,B2,4.0,4.0,95,148.0
6,E2,4.0,4.0,95,148.0
7,F#3,8.0,2.0,95,148.0
8,B2,8.0,2.0,95,148.0
9,E3,10.0,2.0,95,148.0
10,A2,10.0,2.0,95,148.0
11,C#3,12.0,2.0,95,148.0
12,F#2,12.0,2.0,95,148.0
13,D3,14.0,2.0,95,148.0
14,G2,14.0,2.0,95,148.0
15,G3,16.0,2.0,95,148.0
16,C3,16.0,2.0,95,148.0
17,A3,18.0,1.0,95,148.0
18,D3,18.0,1.0,95,148.0
19,E5,19.0,167/1000,95,148.0
20,E4,19.167,167/1000,95,148.0
21,E5,19.333,167/1000,95,148.0
22,D5,19.5,167/1000,95,148.0
23,C5,19.667,167/1000,95,148.0
24,E5,19.833,167/1000,95,148.0
25,D5,20.0,143/1000,95,148.0
26,C5,20.143,143/1000,95,148.0
27,E5,20.285,143/1000,95,148.0
28,B4,20.428,143/1000,95,148.0
29,C5,20.571,143/1000,95,148.0
30,B4,20.714,143/1000,95,148.0
31,E5,20.856,143/1000,95,148.0
32,D5,20.999,143/1000,95,148.0
33,E5,21.142,143/1000,95,148.0
34,B4,21.284,143/1000,95,148.0
35,C5,21.427,143/1000,95,148.0
36,E5,21.57,143/1000,95,148.0
37,B4,21.712,143/1000,95,148.0
38,A4,21.855,143/1000,95,148.0
39,B4,21.998,167/1000,95,148.0
40,F#4,22.165,167/1000,95,148.0
41,G4,22.331,167/1000,95,148.0
42,E4,22.498,167/1000,95,148.0
43,B4,22.665,167/1000,95,148.0
44,G4,22.831,167/1000,95,148.0
45,F#4,22.998,83/1000,95,148.0
46,G4,23.081,83/1000,95,148.0
47,E4,23.165,167/1000,95,148.0
48,B4,23.331,167/1000,95,148.0
49,G4,23.498,167/1000,95,148.0
50,F#4,23.665,167/1000,95,148.0
51,G4,23.831,167/1000,95,148.0
52,F#4,24.0,0.125,95,148.0
53,B4,24.125,0.125,95,148.0
54,G4,24.25,0.125,95,148.0
55,F#4,24.375,0.125,95,148.0
56,G4,24.5,167/1000,95,148.0
57,E4,24.667,167/1000,95,148.0
58,G4,24.833,167/1000,95,148.0
59,E4,25.0,0.125,95,148.0
60,D4,25.125,0.125,95,148.0
61,A4,25.25,0.125,95,148.0
62,E4,25.375,0.125,95,148.0
63,G4,25.5,167/1000,95,148.0
64,E4,25.667,167/1000,95,148.0
65,D4,25.833,167/1000,95,148.0
66,G4,26.0,143/1000,95,148.0
67,E4,26.143,143/1000,95,148.0
68,G4,26.285,143/1000,95,148.0
69,E4,26.428,143/1000,95,148.0
70,D4,26.571,143/1000,95,148.0
71,G4,26.714,143/1000,95,148.0
72,E4,26.856,143/1000,95,148.0
73,G4,26.999,1/5,95,148.0
74,D4,27.199,1/5,95,148.0
75,G4,27.399,1/5,95,148.0
76,C4,27.599,1/5,95,148.0
77,G4,27.799,1/5,95,148.0
78,E4,28.0,1/5,95,148.0
79,G4,28.2,1/5,95,148.0
80,D4,28.4,1/5,95,148.0
81,G4,28.6,1/5,95,148.0
82,C4,28.8,1/5,95,148.0
83,G4,29.0,1/5,95,148.0
84,B3,29.2,1/5,95,148.0
85,G4,29.4,1/5,95,148.0
86,D4,29.6,1/5,95,148.0
87,G4,29.8,1/5,95,148.0
88,C4,30.0,1/5,95,148.0
89,G4,30.2,1/5,95,148.0
90,B3,30.4,8/5,95,148.0
91,D5,32.0,667/1000,95,148.0
92,C#5,32.667,667/1000,95,148.0
93,A4,33.333,667/1000,95,148.0
94,B4,34.0,667/1000,95,148.0
95,C#5,34.667,667/1000,95,148.0
96,F#4,35.333,667/1000,95,148.0
97,C#5,36.0,2.0,95,148.0
98,F#4,38.0,333/1000,95,148.0
99,G4,38.333,333/1000,95,148.0
100,A4,38.667,333/1000,95,148.0
101,B4,39.0,333/1000,95,148.0
102,C#5,39.333,333/1000,95,148.0
103,D5,39.667,333/1000,95,148.0
104,E5,40.0,1333/1000,95,148.0
105,D5,41.333,667/1000,95,148.0
106,C#5,42.0,667/1000,95,148.0
107,D5,42.667,667/1000,95,148.0
108,A5,43.333,667/1000,95,148.0
109,B5,44.0,2.0,95,148.0
110,B5,46.0,1.75,95,148.0
111,E4,47.75,0.25,95,148.0
112,B5,48.0,167/1000,95,148.0
113,C6,48.167,167/1000,95,148.0
114,B5,48.333,167/1000,95,148.0
115,E4,48.5,167/1000,95,148.0
116,A5,48.667,167/1000,95,148.0
117,B5,48.833,167/1000,95,148.0
118,A5,49.0,167/1000,95,148.0
119,E4,49.167,167/1000,95,148.0
120,G5,49.333,167/1000,95,148.0
121,A5,49.5,167/1000,95,148.0
122,G5,49.667,167/1000,95,148.0
123,E4,49.833,167/1000,95,148.0
124,A5,50.0,167/1000,95,148.0
125,B5,50.167,167/1000,95,148.0
126,A5,50.333,167/1000,95,148.0
127,E4,50.5,167/1000,95,148.0
128,G5,50.667,167/1000,95,148.0
129,A5,50.833,167/1000,95,148.0
130,G5,51.0,167/1000,95,148.0
131,E4,51.167,167/1000,95,148.0
132,F#5,51.333,167/1000,95,148.0
133,G5,51.5,167/1000,95,148.0
134,F#5,51.667,167/1000,95,148.0
135,E4,51.833,167/1000,95,148.0
136,G5,52.0,167/1000,95,148.0
137,A5,52.167,167/1000,95,148.0
138,G5,52.333,167/1000,95,148.0
139,E4,52.5,167/1000,95,148.0
140,F#5,52.667,167/1000,95,148.0
141,G5,52.833,167/1000,95,148.0
142,F#5,53.0,167/1000,95,148.0
143,E4,53.167,167/1000,95,148.0
144,E5,53.333,167/1000,95,148.0
145,F#5,53.5,167/1000,95,148.0
146,E5,53.667,167/1000,95,148.0
147,E4,53.833,167/1000,95,148.0
148,D5,54.0,167/1000,95,148.0
149,E5,54.167,167/1000,95,148.0
150,D5,54.333,167/1000,95,148.0
151,E4,54.5,167/1000,95,148.0
152,C5,54.667,167/1000,95,148.0
153,D5,54.833,167/1000,95,148.0
154,C5,55.0,167/1000,95,148.0
155,E4,55.167,167/1000,95,148.0
156,B4,55.333,167/1000,95,148.0
157,C5,55.5,167/1000,95,148.0
158,B4,55.667,167/1000,95,148.0
159,E4,55.833,167/1000,95,148.0
160,C5,56.0,167/1000,95,148.0
161,D5,56.167,167/1000,95,148.0
162,C5,56.333,167/1000,95,148.0
163,E4,56.5,167/1000,95,148.0
164,B4,56.667,167/1000,95,148.0
165,C5,56.833,167/1000,95,148.0
166,B4,57.0,167/1000,95,148.0
167,E4,57.167,167/1000,95,148.0
168,A4,57.333,167/1000,95,148.0
169,B4,57.5,167/1000,95,148.0
170,A4,57.667,167/1000,95,148.0
171,E4,57.833,167/1000,95,148.0
172,B4,58.0,167/1000,95,148.0
173,C5,58.167,167/1000,95,148.0
174,B4,58.333,167/1000,95,148.0
175,E4,58.5,167/1000,95,148.0
176,A4,58.667,167/1000,95,148.0
177,B4,58.833,167/1000,95,148.0
178,A4,59.0,167/1000,95,148.0
179,E4,59.167,167/1000,95,148.0
180,G4,59.333,167/1000,95,148.0
181,A4,59.5,167/1000,95,148.0
182,G4,59.667,167/1000,95,148.0
183,E4,59.833,167/1000,95,148.0
184,A4,60.0,167/1000,95,148.0
185,B4,60.167,167/1000,95,148.0
186,A4,60.333,167/1000,95,148.0
187,E4,60.5,167/1000,95,148.0
188,G4,60.667,167/1000,95,148.0
189,A4,60.833,167/1000,95,148.0
190,G4,61.0,167/1000,95,148.0
191,E4,61.167,167/1000,95,148.0
192,F#4,61.333,167/1000,95,148.0
193,G4,61.5,167/1000,95,148.0
194,F#4,61.667,333/1000,95,148.0
195,E4,62.0,2.0,95,148.0
196,A3,64.0,0.25,95,148.0
197,B3,64.25,0.25,95,148.0
198,D4,64.5,0.25,95,148.0
199,F#4,64.75,0.25,95,148.0
200,A3,65.0,0.25,95,148.0
201,B3,65.25,0.25,95,148.0
202,D4,65.5,0.25,95,148.0
203,F#4,65.75,0.25,95,148.0
204,A3,66.0,0.25,95,148.0
205,B3,66.25,0.25,95,148.0
206,D4,66.5,0.25,95,148.0
207,G4,66.75,0.25,95,148.0
208,A3,67.0,0.25,95,148.0
209,B3,67.25,0.25,95,148.0
210,D4,67.5,0.25,95,148.0
211,F#4,67.75,0.25,95,148.0
212,E3,68.0,0.25,95,148.0
213,F#3,68.25,0.25,95,148.0
214,D4,68.5,0.25,95,148.0
215,F#4,68.75,0.25,95,148.0
216,E3,69.0,0.25,95,148.0
217,F#3,69.25,0.25,95,148.0
218,D4,69.5,0.25,95,148.0
219,F#4,69.75,0.25,95,148.0
220,E3,70.0,0.25,95,148.0
221,F#3,70.25,0.25,95,148.0
222,D4,70.5,0.25,95,148.0
223,F#4,70.75,0.25,95,148.0
224,E3,71.0,0.25,95,148.0
225,F#3,71.25,0.25,95,148.0
226,D4,71.5,0.25,95,148.0
227,E4,71.75,0.25,95,148.0
228,A3,72.0,0.25,95,148.0
229,B3,72.25,0.25,95,148.0
230,F#4,72.5,0.25,95,148.0
231,B4,72.75,0.25,95,148.0
232,A3,73.0,0.25,95,148.0
233,B3,73.25,0.25,95,148.0
234,F#4,73.5,0.25,95,148.0
235,B4,73.75,0.25,95,148.0
236,A3,74.0,0.25,95,148.0
237,B3,74.25,0.25,95,148.0
238,F#4,74.5,0.25,95,148.0
239,B4,74.75,0.25,95,148.0
240,A3,75.0,0.25,95,148.0
241,B3,75.25,0.25,95,148.0
242,F#4,75.5,0.25,95,148.0
243,A4,75.75,0.25,95,148.0
244,E3,76.0,0.25,95,148.0
245,F#3,76.25,0.25,95,148.0
246,A3,76.5,0.25,95,148.0
247,C#4,76.75,0.25,95,148.0
248,E3,77.0,0.25,95,148.0
249,F#3,77.25,0.25,95,148.0
250,A3,77.5,0.25,95,148.0
251,C#4,77.75,0.25,95,148.0
252,F#3,78.0,0.25,95,148.0
253,G3,78.25,0.25,95,148.0
254,B3,78.5,0.25,95,148.0
255,D4,78.75,0.25,95,148.0
256,F#3,79.0,0.25,95,148.0
257,G3,79.25,0.25,95,148.0
258,B3,79.5,0.25,95,148.0
259,C#4,79.75,0.25,95,148.0
260,B3,80.0,0.25,95,148.0
261,C4,80.25,0.25,95,148.0
262,E4,80.5,0.25,95,148.0
263,G4,80.75,0.25,95,148.0
264,B3,81.0,0.25,95,148.0
265,C4,81.25,0.25,95,148.0
266,E4,81.5,0.25,95,148.0
267,G4,81.75,0.25,95,148.0
268,B3,82.0,0.25,95,148.0
269,C4,82.25,0.25,95,148.0
270,G4,82.5,0.25,95,148.0
271,B4,82.75,0.25,95,148.0
272,B3,83.0,0.25,95,148.0
273,C4,83.25,0.25,95,148.0
274,G4,83.5,0.25,95,148.0
275,A4,83.75,0.25,95,148.0
276,F#4,84.0,0.25,95,148.0
277,G4,84.25,0.25,95,148.0
278,D5,84.5,0.25,95,148.0
279,F#5,84.75,0.25,95,148.0
280,F#4,85.0,0.25,95,148.0
281,G4,85.25,0.25,95,148.0
282,D5,85.5,0.25,95,148.0
283,F#5,85.75,0.25,95,148.0
284,D4,86.0,0.25,95,148.0
285,E4,86.25,0.25,95,148.0
286,B4,86.5,0.25,95,148.0
287,D5,86.75,0.25,95,148.0
288,D4,87.0,0.25,95,148.0
289,E4,87.25,0.25,95,148.0
290,B4,87.5,0.25,95,148.0
291,D5,87.75,0.25,95,148.0
292,F#4,88.0,0.25,95,148.0
293,G4,88.25,0.25,95,148.0
294,B4,88.5,0.25,95,148.0
295,D5,88.75,0.25,95,148.0
296,E5,89.0,0.25,95,148.0
297,C5,89.25,0.25,95,148.0
298,A4,89.5,0.25,95,148.0
299,G4,89.75,0.25,95,148.0
300,A4,90.0,0.25,95,148.0
301,B4,90.25,0.25,95,148.0
302,D5,90.5,0.25,95,148.0
303,F#5,90.75,0.25,95,148.0
304,G5,91.0,0.25,95,148.0
305,E5,91.25,0.25,95,148.0
306,C5,91.5,0.25,95,148.0
307,B4,91.75,0.25,95,148.0
308,D5,92.0,0.25,95,148.0
309,E5,92.25,0.25,95,148.0
310,G5,92.5,0.25,95,148.0
311,B5,92.75,0.25,95,148.0
312,B5,93.0,0.25,95,148.0
313,G5,93.25,0.25,95,148.0
314,E5,93.5,0.25,95,148.0
315,D5,93.75,0.25,95,148.0
316,F#5,94.0,0.25,95,148.0
317,D5,94.25,0.25,95,148.0
318,C5,94.5,0.25,95,148.0
319,B4,94.75,0.25,95,148.0
320,D5,95.0,0.25,95,148.0
321,B4,95.25,0.25,95,148.0
322,G4,95.5,0.25,95,148.0
323,F#4,95.75,0.25,95,148.0
324,E4,96.0,0.25,95,148.0
325,F#4,96.25,0.25,95,148.0
326,A4,96.5,0.25,95,148.0
327,C#5,96.75,0.25,95,148.0
328,E4,97.0,0.25,95,148.0
329,F#4,97.25,0.25,95,148.0
330,A4,97.5,0.25,95,148.0
331,C#5,97.75,0.25,95,148.0
332,E4,98.0,0.25,95,148.0
333,F#4,98.25,0.25,95,148.0
334,A4,98.5,0.25,95,148.0
335,D5,98.75,0.25,95,148.0
336,E4,99.0,0.25,95,148.0
337,F#4,99.25,0.25,95,148.0
338,A4,99.5,0.25,95,148.0
339,D5,99.75,0.25,95,148.0
340,B3,100.0,0.25,95,148.0
341,C#4,100.25,0.25,95,148.0
342,A4,100.5,0.25,95,148.0
343,C#5,100.75,0.25,95,148.0
344,B3,101.0,0.25,95,148.0
345,C#4,101.25,0.25,95,148.0
346,A4,101.5,0.25,95,148.0
347,C#5,101.75,0.25,95,148.0
348,B3,102.0,0.25,95,148.0
349,C#4,102.25,0.25,95,148.0
350,A4,102.5,0.25,95,148.0
351,C#5,102.75,0.25,95,148.0
352,B3,103.0,0.25,95,148.0
353,C#4,103.25,0.25,95,148.0
354,A4,103.5,0.25,95,148.0
355,B4,103.75,0.25,95,148.0
356,E4,104.0,0.25,95,148.0
357,F#4,104.25,0.25,95,148.0
358,C#5,104.5,0.25,95,148.0
359,F#5,104.75,0.25,95,148.0
360,E4,105.0,0.25,95,148.0
361,F#4,105.25,0.25,95,148.0
362,C#5,105.5,0.25,95,148.0
363,F#5,105.75,0.25,95,148.0
364,E4,106.0,0.25,95,148.0
365,F#4,106.25,0.25,95,148.0
366,C#5,106.5,0.25,95,148.0
367,F#5,106.75,0.25,95,148.0
368,E4,107.0,0.25,95,148.0
369,F#4,107.25,0.25,95,148.0
370,C#5,107.5,0.25,95,148.0
371,E5,107.75,0.25,95,148.0
372,B3,108.0,0.25,95,148.0
373,C#4,108.25,0.25,95,148.0
374,E4,108.5,0.25,95,148.0
375,G#4,108.75,0.25,95,148.0
376,B3,109.0,0.25,95,148.0
377,C#4,109.25,0.25,95,148.0
378,E4,109.5,0.25,95,148.0
379,G#4,109.75,0.25,95,148.0
380,C#4,110.0,0.25,95,148.0
381,D4,110.25,0.25,95,148.0
382,F#4,110.5,0.25,95,148.0
383,A4,110.75,0.25,95,148.0
384,C#4,111.0,0.25,95,148.0
385,D4,111.25,0.25,95,148.0
386,F#4,111.5,0.25,95,148.0
387,G#4,111.75,0.25,95,148.0
388,F#4,112.0,0.25,95,148.0
389,G4,112.25,0.25,95,148.0
390,B4,112.5,0.25,95,148.0
391,D5,112.75,0.25,95,148.0
392,F#4,113.0,0.25,95,148.0
393,G4,113.25,0.25,95,148.0
394,B4,113.5,0.25,95,148.0
395,D5,113.75,0.25,95,148.0
396,F#4,114.0,0.25,95,148.0
397,G4,114.25,0.25,95,148.0
398,D5,114.5,0.25,95,148.0
399,F#5,114.75,0.25,95,148.0
400,F#4,115.0,0.25,95,148.0
401,G4,115.25,0.25,95,148.0
402,D5,115.5,0.25,95,148.0
403,E5,115.75,0.25,95,148.0
404,C#5,116.0,0.25,95,148.0
405,D5,116.25,0.25,95,148.0
406,A5,116.5,0.25,95,148.0
407,C#6,116.75,0.25,95,148.0
408,C#5,117.0,0.25,95,148.0
409,D5,117.25,0.25,95,148.0
410,A5,117.5,0.25,95,148.0
411,C#6,117.75,0.25,95,148.0
412,A4,118.0,0.25,95,148.0
413,B4,118.25,0.25,95,148.0
414,F#5,118.5,0.25,95,148.0
415,A5,118.75,0.25,95,148.0
416,A4,119.0,0.25,95,148.0
417,B4,119.25,0.25,95,148.0
418,F#5,119.5,0.25,95,148.0
419,A5,119.75,0.25,95,148.0
420,C#5,120.0,0.25,95,148.0
421,D5,120.25,0.25,95,148.0
422,F#5,120.5,0.25,95,148.0
423,A5,120.75,0.25,95,148.0
424,B5,121.0,0.25,95,148.0
425,G5,121.25,0.25,95,148.0
426,E5,121.5,0.25,95,148.0
427,D5,121.75,0.25,95,148.0
428,E5,122.0,0.25,95,148.0
429,F#5,122.25,0.25,95,148.0
430,A5,122.5,0.25,95,148.0
431,C#6,122.75,0.25,95,148.0
432,D6,123.0,0.25,95,148.0
433,B5,123.25,0.25,95,148.0
434,G5,123.5,0.25,95,148.0
435,F#5,123.75,0.25,95,148.0
436,F#5,124.0,0.25,95,148.0
437,G5,124.25,0.25,95,148.0
438,G#5,124.5,0.25,95,148.0
439,A5,124.75,0.25,95,148.0
440,B5,125.0,0.25,95,148.0
441,C6,125.25,0.25,95,148.0
442,C#6,125.5,0.25,95,148.0
443,D6,125.75,0.25,95,148.0
444,D6,126.0,0.25,95,148.0
445,C#6,126.25,0.25,95,148.0
446,C6,126.5,0.25,95,148.0
447,B5,126.75,0.25,95,148.0
448,A5,127.0,0.25,95,148.0
449,G#5,127.25,0.25,95,148.0
450,G5,127.5,0.25,95,148.0
451,F#5,127.75,0.25,95,148.0
452,F5,128.0,0.25,95,148.0
453,E5,128.25,0.25,95,148.0
454,E-5,128.5,0.25,95,148.0
455,D5,128.75,0.25,95,148.0
456,C#5,129.0,0.25,95,148.0
457,D5,129.25,0.25,95,148.0
458,E-5,129.5,0.25,95,148.0
459,E5,129.75,0.25,95,148.0
460,E-5,130.0,0.25,95,148.0
461,D5,130.25,0.25,95,148.0
462,C#5,130.5,0.25,95,148.0
463,C5,130.75,0.25,95,148.0
464,B4,131.0,0.25,95,148.0
465,C5,131.25,0.25,95,148.0
466,C#5,131.5,0.25,95,148.0
467,D5,131.75,0.25,95,148.0
468,D5,132.0,0.25,95,148.0
469,C#5,132.25,0.25,95,148.0
470,C5,132.5,0.25,95,148.0
471,B4,132.75,0.25,95,148.0
472,A4,133.0,0.25,95,148.0
473,G#4,133.25,0.25,95,148.0
474,G4,133.5,0.25,95,148.0
475,F#4,133.75,0.25,95,148.0
476,D4,134.0,0.25,95,148.0
477,C#4,134.25,0.25,95,148.0
478,C4,134.5,0.25,95,148.0
479,B3,134.75,0.25,95,148.0
480,A3,135.0,0.25,95,148.0
481,G#3,135.25,0.25,95,148.0
482,G3,135.5,0.25,95,148.0
483,F#3,135.75,0.25,95,148.0
484,E3,136.0,0.25,95,148.0
485,F#3,136.25,0.25,95,148.0
486,D4,136.5,0.25,95,148.0
487,F#4,136.75,0.25,95,148.0
488,E3,137.0,0.25,95,148.0
489,F#3,137.25,0.25,95,148.0
490,D4,137.5,0.25,95,148.0
491,F#4,137.75,0.25,95,148.0
492,A3,138.0,0.25,95,148.0
493,B3,138.25,0.25,95,148.0
494,G4,138.5,0.25,95,148.0
495,B4,138.75,0.25,95,148.0
496,D4,139.0,0.25,95,148.0
497,E4,139.25,0.25,95,148.0
498,B4,139.5,0.25,95,148.0
499,E5,139.75,0.25,95,148.0
500,G4,140.0,0.25,95,148.0
501,A4,140.25,0.25,95,148.0
502,E5,140.5,0.25,95,148.0
503,A5,140.75,0.25,95,148.0
504,G4,141.0,0.25,95,148.0
505,A4,141.25,0.25,95,148.0
506,E5,141.5,0.25,95,148.0
507,A5,141.75,0.25,95,148.0
508,A4,142.0,0.25,95,148.0
509,B4,142.25,0.25,95,148.0
510,F#5,142.5,0.25,95,148.0
511,B5,142.75,0.25,95,148.0
512,A4,143.0,0.25,95,148.0
513,B4,143.25,0.25,95,148.0
514,F#5,143.5,0.25,95,148.0
515,B5,143.75,0.25,95,148.0
516,A5,144.0,333/1000,95,148.0
517,G#5,144.333,333/1000,95,148.0
518,F#4,144.667,333/1000,95,148.0
519,B4,145.0,333/1000,95,148.0
520,A4,145.333,333/1000,95,148.0
521,E5,145.667,333/1000,95,148.0
522,A4,146.0,333/1000,95,148.0
523,G#4,146.333,333/1000,95,148.0
524,E4,146.667,333/1000,95,148.0
525,C#4,147.0,333/1000,95,148.0
526,E-4,147.333,333/1000,95,148.0
527,C#4,147.667,333/1000,95,148.0
528,C4,148.0,333/1000,95,148.0
529,B3,148.333,333/1000,95,148.0
530,B-3,148.667,333/1000,95,148.0
531,F#4,149.0,333/1000,95,148.0
532,B-3,149.333,333/1000,95,148.0
533,A3,149.667,333/1000,95,148.0
534,F4,150.0,333/1000,95,148.0
535,A3,150.333,333/1000,95,148.0
536,G#3,150.667,333/1000,95,148.0
537,E4,151.0,333/1000,95,148.0
538,G#3,151.333,333/1000,95,148.0
539,E-4,151.667,333/1000,95,148.0
540,B3,152.0,333/1000,95,148.0
541,C#4,152.333,333/1000,95,148.0
542,A3,152.667,333/1000,95,148.0
543,F#3,153.0,0.25,95,148.0
544,G#3,153.25,0.25,95,148.0
545,A3,153.5,0.25,95,148.0
546,G#3,153.75,0.25,95,148.0
547,F#3,154.0,333/1000,95,148.0
548,E3,154.333,333/1000,95,148.0
549,G#3,154.667,333/1000,95,148.0
550,F#3,155.0,333/1000,95,148.0
551,F3,155.333,333/1000,95,148.0
552,E3,155.667,333/1000,95,148.0
553,E-3,156.0,333/1000,95,148.0
554,F#4,156.333,1667/1000,63,148.0
555,F#5,156.333,1667/1000,63,148.0
556,D3,158.0,4.0,95,148.0
557,A2,158.0,4.0,95,148.0
558,D3,173.5,4.0,95,148.0
559,A2,173.5,4.0,95,148.0
560,B5,175.5,2.0,95,148.0
561,B5,177.5,4.0,95,148.0
562,D3,177.5,4.0,95,148.0
563,A2,177.5,4.0,95,148.0
564,B5,181.5,3.5,95,148.0
565,D3,181.5,3.5,95,148.0
566,A2,181.5,3.5,95,148.0
567,A2,185.0,0.5,95,148.0
568,D4,185.5,1.5,95,148.0
569,A3,185.5,1.5,95,148.0
570,D3,185.5,1.5,95,148.0
571,A2,185.5,1.5,95,148.0
572,E3,187.0,0.25,95,148.0
573,B2,187.0,0.25,95,148.0
574,F3,187.25,0.25,95,148.0
575,C3,187.25,0.25,95,148.0
576,E2,187.75,0.25,95,148.0
577,G3,188.0,1.25,95,148.0
578,D3,188.0,1.25,95,148.0
579,E2,189.25,0.25,95,148.0
580,D3,189.5,0.25,95,148.0
581,G#2,189.75,0.25,95,148.0
582,G2,190.0,0.25,95,148.0
583,F2,190.25,0.5,95,148.0
584,C3,190.75,0.5,95,148.0
585,B2,191.25,0.5,95,148.0
586,E2,191.25,0.5,95,148.0
587,F2,191.75,0.25,95,148.0
588,F#2,192.0,0.25,95,148.0
589,G2,192.25,0.25,95,148.0
590,G#2,192.5,0.25,95,148.0
591,E-3,192.75,0.5,95,148.0
592,B-2,192.75,0.5,95,148.0
593,D3,193.25,0.25,95,148.0
594,A2,193.25,0.25,95,148.0
595,D3,195.0,1.5,95,148.0
596,A2,195.0,1.5,95,148.0
597,E3,196.5,0.25,95,148.0
598,B2,196.5,0.25,95,148.0
599,F3,196.75,0.25,95,148.0
600,C3,196.75,0.25,95,148.0
601,E2,197.25,0.25,95,148.0
602,G#3,197.5,1.25,95,148.0
603,E-3,197.5,1.25,95,148.0
604,E2,198.75,0.25,95,148.0
605,D3,199.0,0.25,95,148.0
606,C3,199.25,0.25,95,148.0
607,A2,199.5,0.25,95,148.0
608,G#2,199.75,0.25,95,148.0
609,F3,200.0,0.25,95,148.0
610,D3,200.25,0.75,95,148.0
611,G#2,201.0,0.5,95,148.0
612,B-2,201.5,0.5,95,148.0
613,F#2,202.0,0.5,95,148.0
614,G#2,202.5,0.5,95,148.0
615,D3,203.0,1.5,95,148.0
616,A2,203.0,1.5,95,148.0
617,E3,204.5,0.25,95,148.0
618,B2,204.5,0.25,95,148.0
619,F3,204.75,0.25,95,148.0
620,C3,204.75,0.25,95,148.0
621,E2,205.25,0.25,95,148.0
622,G3,205.5,1.25,95,148.0
623,D3,205.5,1.25,95,148.0
624,F3,206.75,0.125,95,148.0
625,D3,206.875,0.125,95,148.0
626,A2,206.875,0.125,95,148.0
627,F4,207.0,0.375,95,148.0
628,C4,207.375,0.125,95,148.0
629,G3,207.5,0.25,95,148.0
630,F3,207.75,0.25,95,148.0
631,D3,208.0,0.25,95,148.0
632,G2,208.25,0.25,95,148.0
633,F2,208.5,0.25,95,148.0
634,E2,208.75,0.5,95,148.0
635,F2,209.25,0.25,95,148.0
636,F#2,209.5,0.25,95,148.0
637,G2,209.75,0.25,95,148.0
638,G#2,210.0,0.25,95,148.0
639,E-3,210.25,0.5,95,148.0
640,B-2,210.25,0.5,95,148.0
641,D3,210.75,0.25,95,148.0
642,A2,210.75,0.25,95,148.0
643,D3,212.5,1.5,95,148.0
644,A2,212.5,1.5,95,148.0
645,E3,214.0,0.25,95,148.0
646,B2,214.0,0.25,95,148.0
647,F3,214.25,0.25,95,148.0
648,C3,214.25,0.25,95,148.0
649,E2,214.75,0.25,95,148.0
650,G#3,215.0,1.25,95,148.0
651,E-3,215.0,1.25,95,148.0
652,E2,216.25,0.25,95,148.0
653,D3,216.5,0.25,95,148.0
654,C3,216.75,0.25,95,148.0
655,A2,217.0,0.25,95,148.0
656,G#2,217.25,0.25,95,148.0
657,F3,217.5,0.25,95,148.0
658,D3,217.75,0.75,95,148.0
659,G#2,218.5,0.5,95,148.0
660,B-2,219.0,0.5,95,148.0
661,F#2,219.5,0.5,95,148.0
662,G#2,220.0,333/1000,95,148.0
663,E2,220.333,167/1000,95,148.0
664,F#2,220.5,167/1000,95,148.0
665,G#2,220.667,167/1000,95,148.0
666,B-2,220.833,167/1000,95,148.0
667,C3,221.0,167/1000,95,148.0
668,D3,221.167,167/1000,95,148.0
669,E3,221.333,167/1000,95,148.0
670,C3,221.5,167/1000,95,148.0
671,D3,221.667,167/1000,95,148.0
672,E3,221.833,167/1000,95,148.0
673,F#3,222.0,167/1000,95,148.0
674,G#3,222.167,167/1000,95,148.0
675,B-3,222.333,167/1000,95,148.0
676,F#3,222.5,167/1000,95,148.0
677,G#3,222.667,167/1000,95,148.0
678,B-3,222.833,167/1000,95,148.0
679,C4,223.0,167/1000,95,148.0
680,D4,223.167,167/1000,95,148.0
681,E4,223.333,167/1000,95,148.0
682,E4,223.5,333/1000,95,148.0
683,E4,223.833,333/1000,95,148.0
684,D4,224.167,333/1000,95,148.0
685,A3,224.5,0.75,95,148.0
686,D4,225.25,1.25,95,148.0
687,A3,227.25,0.25,95,148.0
688,E4,227.5,0.875,95,148.0
689,D4,228.375,0.125,95,148.0
690,B-3,228.5,0.75,95,148.0
691,D4,229.25,0.125,95,148.0
692,E4,229.375,1.625,95,148.0
693,D4,231.25,0.25,95,148.0
694,E4,231.5,0.875,95,148.0
695,D4,232.375,0.125,95,148.0
696,A4,232.5,1.0,95,148.0
697,G4,234.25,83/1000,95,148.0
698,A4,234.333,83/1000,95,148.0
699,G4,234.417,83/1000,95,148.0
700,F#4,234.5,1.0,95,148.0
701,G4,235.833,333/1000,95,148.0
702,A4,236.167,333/1000,95,148.0
703,B-4,236.5,2.0,95,148.0
704,B-4,239.5,1.0,95,148.0
705,G4,240.438,0.062,95,148.0
706,A4,240.5,1.0,95,148.0
707,G4,242.125,0.125,95,148.0
708,F#4,242.25,0.125,95,148.0
709,E4,242.375,0.125,95,148.0
710,D4,242.5,0.75,95,148.0
711,G#3,243.188,0.062,95,148.0
712,A3,243.25,0.25,95,148.0
713,D4,243.5,333/1000,95,148.0
714,E4,243.833,333/1000,95,148.0
715,E4,244.167,333/1000,95,148.0
716,E4,244.5,0.75,95,148.0
717,B-3,245.25,0.25,95,148.0
718,B-3,245.5,2.0,95,148.0
719,A3,247.5,0.75,95,148.0
720,G3,248.25,83/1000,95,148.0
721,A3,248.333,83/1000,95,148.0
722,G3,248.417,83/1000,95,148.0
723,F#3,248.5,0.75,95,148.0
724,G3,249.25,0.25,95,148.0
725,A3,249.5,0.25,95,148.0
726,D3,249.75,1.25,95,148.0
727,A2,251.375,0.125,95,148.0
728,D3,251.5,333/1000,95,148.0
729,E3,251.833,333/1000,95,148.0
730,F#3,252.167,333/1000,95,148.0
731,F#3,252.5,1.0,95,148.0
732,E3,253.5,0.25,95,148.0
733,B-2,253.75,0.25,95,148.0
734,B-2,254.0,1.5,95,148.0
735,G2,255.5,1.0,95,148.0
736,F#2,256.5,1.0,95,148.0
737,D3,257.5,3.0,95,148.0
738,D3,260.5,333/1000,95,148.0
739,C3,260.833,333/1000,95,148.0
740,G#3,261.167,333/1000,95,148.0
741,F#3,261.5,333/1000,95,148.0
742,D4,261.833,333/1000,95,148.0
743,C4,262.167,333/1000,95,148.0
744,G#4,262.5,333/1000,95,148.0
745,F#4,262.833,333/1000,95,148.0
746,C5,263.167,333/1000,95,148.0
747,D5,263.5,333/1000,95,148.0
748,E5,263.833,333/1000,95,148.0
749,D5,264.167,333/1000,95,148.0
750,E5,264.5,1.0,95,148.0
751,E5,265.5,2.0,95,148.0
752,E5,267.5,0.875,95,148.0
753,D5,268.375,0.125,95,148.0
754,B-4,268.5,1.0,95,148.0
755,D5,269.438,0.062,95,148.0
756,E5,269.5,2.0,95,148.0
757,E5,271.5,0.875,95,148.0
758,D5,272.375,0.125,95,148.0
759,A5,272.5,1.75,95,148.0
760,G5,274.25,83/1000,95,148.0
761,A5,274.333,83/1000,95,148.0
762,G5,274.417,83/1000,95,148.0
763,F#5,274.5,0.75,95,148.0
764,D5,275.25,0.25,95,148.0
765,F#5,275.5,333/1000,95,148.0
766,G5,275.833,333/1000,95,148.0
767,A5,276.167,333/1000,95,148.0
768,B-5,276.5,1.0,95,148.0
769,B-5,277.5,167/1000,95,148.0
770,F#5,277.667,167/1000,95,148.0
771,D5,277.833,167/1000,95,148.0
772,B-4,278.0,167/1000,95,148.0
773,F#4,278.167,167/1000,95,148.0
774,D4,278.333,167/1000,95,148.0
775,F#4,278.5,1/10,95,148.0
776,B-4,278.6,1/10,95,148.0
777,D5,278.7,1/10,95,148.0
778,F#5,278.8,1/10,95,148.0
779,B-5,278.9,1/10,95,148.0
780,A5,279.5,0.75,95,148.0
781,G5,280.25,0.25,95,148.0
782,F#5,280.5,0.75,95,148.0
783,G5,281.25,0.25,95,148.0
784,A5,281.5,0.25,95,148.0
785,D5,281.75,0.25,95,148.0
786,D5,282.0,1.25,95,148.0
787,A4,283.25,0.25,95,148.0
788,D5,283.5,333/1000,95,148.0
789,E5,283.833,667/1000,95,148.0
790,E5,284.5,0.75,95,148.0
791,B-4,285.25,0.25,95,148.0
792,B-4,285.5,2.0,95,148.0
793,A4,287.5,0.75,95,148.0
794,G4,288.25,83/1000,95,148.0
795,A4,288.333,83/1000,95,148.0
796,G4,288.417,83/1000,95,148.0
797,F#4,288.5,0.75,95,148.0
798,G4,289.25,0.25,95,148.0
799,A4,289.5,0.25,95,148.0
800,D4,289.75,0.25,95,148.0
801,D4,290.0,1.25,95,148.0
802,G#3,291.125,0.125,95,148.0
803,A3,291.25,0.25,95,148.0
804,D4,291.5,333/1000,95,148.0
805,E4,291.833,333/1000,95,148.0
806,E4,292.042,0.125,95,148.0
807,F#4,292.167,333/1000,95,148.0
808,B-3,292.5,1.5,95,148.0
809,A3,294.25,0.25,95,148.0
810,G3,294.5,0.75,95,148.0
811,F#3,295.25,0.125,95,148.0
812,G3,295.375,0.125,95,148.0
813,A3,295.5,333/1000,95,148.0
814,B3,295.833,333/1000,95,148.0
815,D4,296.167,333/1000,95,148.0
816,A3,296.5,333/1000,95,148.0
817,G3,296.833,333/1000,95,148.0
818,F#3,297.167,333/1000,95,148.0
819,G3,297.5,0.25,95,148.0
820,D3,297.75,0.25,95,148.0
821,D3,298.0,1.5,95,148.0
822,A2,299.5,333/1000,95,148.0
823,G2,299.833,333/1000,95,148.0
824,F#2,300.167,333/1000,95,148.0
825,D3,300.5,0.75,95,148.0
826,D3,301.25,1.75,95,148.0
827,D3,303.0,1.25,95,148.0
828,A2,304.25,17/500,95,148.0
829,A2,304.375,17/500,95,148.0
830,A3,304.5,0.25,95,148.0
831,G3,304.75,0.25,70,148.0
832,F#3,305.0,0.25,95,148.0
833,A3,305.25,0.25,95,148.0
834,G3,305.5,0.25,70,148.0
835,F#3,305.75,0.25,95,148.0
836,D3,306.0,0.25,70,148.0
837,G3,306.25,0.25,95,148.0
838,D3,306.5,0.25,70,148.0
839,E3,306.75,0.25,95,148.0
840,D3,307.0,0.25,70,148.0
841,F#3,307.25,0.25,95,148.0
842,D3,307.5,0.25,70,148.0
843,C3,307.75,0.25,95,148.0
844,A3,308.0,0.25,95,148.0
845,G3,308.25,0.25,70,148.0
846,F#3,308.5,0.25,95,148.0
847,A3,308.75,0.25,95,148.0
848,G3,309.0,0.25,70,148.0
849,F#3,309.25,0.25,95,148.0
850,D3,309.5,0.25,70,148.0
851,G3,309.75,0.25,95,148.0
852,D3,310.0,0.25,70,148.0
853,E3,310.25,0.25,95,148.0
854,D3,310.5,0.25,70,148.0
855,F#3,310.75,0.25,95,148.0
856,D3,311.0,0.25,70,148.0
857,C3,311.25,0.25,95,148.0
858,A2,311.5,0.25,70,148.0
859,B-3,311.75,0.25,95,148.0
860,G3,312.0,0.25,70,148.0
861,G3,312.25,0.25,95,148.0
862,B-3,312.5,0.25,95,148.0
863,G3,312.75,0.25,70,148.0
864,G3,313.0,0.25,95,148.0
865,D3,313.25,0.25,70,148.0
866,A3,313.5,0.25,95,148.0
867,D3,313.75,0.25,70,148.0
868,F3,314.0,0.25,95,148.0
869,D3,314.25,0.25,70,148.0
870,G3,314.5,0.25,95,148.0
871,D3,314.75,0.25,70,148.0
872,D3,315.0,0.25,95,148.0
873,B-3,315.25,0.25,95,148.0
874,G3,315.5,0.25,70,148.0
875,G3,315.75,0.25,95,148.0
876,B-3,316.0,0.25,95,148.0
877,G3,316.25,0.25,70,148.0
878,G3,316.5,0.25,95,148.0
879,D3,316.75,0.25,70,148.0
880,A3,317.0,0.25,95,148.0
881,D3,317.25,0.25,70,148.0
882,F3,317.5,0.25,95,148.0
883,D3,317.75,0.25,70,148.0
884,G3,318.0,0.25,95,148.0
885,D3,318.25,0.25,70,148.0
886,D3,318.5,0.25,95,148.0
887,A2,318.75,0.25,70,148.0
888,C4,319.0,0.25,95,148.0
889,G3,319.25,0.25,70,148.0
890,A3,319.5,0.25,95,148.0
891,C4,319.75,0.25,95,148.0
892,G3,320.0,0.25,70,148.0
893,A3,320.25,0.25,95,148.0
894,D3,320.5,0.25,70,148.0
895,B-3,320.75,0.25,95,148.0
896,D3,321.0,0.25,70,148.0
897,G3,321.25,0.25,95,148.0
898,D3,321.5,0.25,70,148.0
899,A3,321.75,0.25,95,148.0
900,D3,322.0,0.25,70,148.0
901,E-3,322.25,0.25,95,148.0
902,C4,322.5,0.25,95,148.0
903,G3,322.75,0.25,70,148.0
904,A3,323.0,0.25,95,148.0
905,C4,323.25,0.25,95,148.0
906,G3,323.5,0.25,70,148.0
907,A3,323.75,0.25,95,148.0
908,D3,324.0,0.25,70,148.0
909,B-3,324.25,0.25,95,148.0
910,D3,324.5,0.25,70,148.0
911,G3,324.75,0.25,95,148.0
912,D3,325.0,0.25,70,148.0
913,A3,325.25,0.25,95,148.0
914,D3,325.5,0.25,70,148.0
915,E-3,325.75,0.25,95,148.0
916,A2,326.0,0.25,70,148.0
917,D4,326.25,0.25,95,148.0
918,G3,326.5,0.25,70,148.0
919,B-3,326.75,0.25,95,148.0
920,D4,327.0,0.25,95,148.0
921,G3,327.25,0.25,70,148.0
922,B-3,327.5,0.25,95,148.0
923,D3,327.75,0.25,70,148.0
924,C4,328.0,0.25,95,148.0
925,D3,328.25,0.25,70,148.0
926,A3,328.5,0.25,95,148.0
927,D3,328.75,0.25,70,148.0
928,B-3,329.0,0.25,95,148.0
929,D3,329.25,0.25,70,148.0
930,F#3,329.5,0.25,95,148.0
931,D4,329.75,0.25,95,148.0
932,G3,330.0,0.25,70,148.0
933,B-3,330.25,0.25,95,148.0
934,D4,330.5,0.25,95,148.0
935,G3,330.75,0.25,70,148.0
936,B-3,331.0,0.25,95,148.0
937,D3,331.25,0.25,70,148.0
938,C4,331.5,0.25,95,148.0
939,D3,331.75,0.25,70,148.0
940,A3,332.0,0.25,95,148.0
941,D3,332.25,0.25,70,148.0
942,B-3,332.5,0.25,95,148.0
943,D3,332.75,0.25,70,148.0
944,F#3,333.0,0.25,95,148.0
945,A2,333.25,0.25,70,148.0
946,E-4,333.5,0.25,95,148.0
947,G3,333.75,0.25,70,148.0
948,C4,334.0,0.25,95,148.0
949,E-4,334.25,0.25,95,148.0
950,G3,334.5,0.25,70,148.0
951,C4,334.75,0.25,95,148.0
952,D3,335.0,0.25,70,148.0
953,D4,335.25,0.25,95,148.0
954,D3,335.5,0.25,70,148.0
955,B-3,335.75,0.25,95,148.0
956,D3,336.0,0.25,70,148.0
957,C4,336.25,0.25,95,148.0
958,D3,336.5,0.25,70,148.0
959,G3,336.75,0.25,95,148.0
960,E-4,337.0,0.25,95,148.0
961,G3,337.25,0.25,70,148.0
962,C4,337.5,0.25,95,148.0
963,E-4,337.75,0.25,95,148.0
964,G3,338.0,0.25,70,148.0
965,C4,338.25,0.25,95,148.0
966,D3,338.5,0.25,70,148.0
967,D4,338.75,0.25,95,148.0
968,D3,339.0,0.25,70,148.0
969,B-3,339.25,0.25,95,148.0
970,D3,339.5,0.25,70,148.0
971,C4,339.75,0.25,95,148.0
972,D3,340.0,0.25,70,148.0
973,G3,340.25,0.25,95,148.0
974,A2,340.5,0.25,70,148.0
975,F#4,340.75,0.25,95,148.0
976,G3,341.0,0.25,70,148.0
977,D4,341.25,0.25,95,148.0
978,F#4,341.5,0.25,95,148.0
979,G3,341.75,0.25,70,148.0
980,D4,342.0,0.25,95,148.0
981,D3,342.25,0.25,70,148.0
982,E-4,342.5,0.25,95,148.0
983,D3,342.75,0.25,70,148.0
984,C4,343.0,0.25,95,148.0
985,D3,343.25,0.25,70,148.0
986,D4,343.5,0.25,95,148.0
987,D3,343.75,0.25,70,148.0
988,A3,344.0,0.25,95,148.0
989,F#4,344.25,0.25,95,148.0
990,G3,344.5,0.25,70,148.0
991,D4,344.75,0.25,95,148.0
992,F#4,345.0,0.25,95,148.0
993,G3,345.25,0.25,70,148.0
994,D4,345.5,0.25,95,148.0
995,D3,345.75,0.25,70,148.0
996,E-4,346.0,0.25,95,148.0
997,D3,346.25,0.25,70,148.0
998,C4,346.5,0.25,95,148.0
999,D3,346.75,0.25,70,148.0
1000,D4,347.0,0.25,95,148.0
1001,D3,347.25,0.25,70,148.0
1002,A3,347.5,0.25,95,148.0
1003,A2,347.75,0.25,70,148.0
1004,G4,348.0,0.25,95,148.0
1005,G3,348.25,0.25,70,148.0
1006,E-4,348.5,0.25,95,148.0
1007,G4,348.75,0.25,95,148.0
1008,G3,349.0,0.25,70,148.0
1009,E-4,349.25,0.25,95,148.0
1010,D3,349.5,0.25,70,148.0
1011,F4,349.75,0.25,95,148.0
1012,D3,350.0,0.25,70,148.0
1013,D4,350.25,0.25,95,148.0
1014,D3,350.5,0.25,70,148.0
1015,E-4,350.75,0.25,95,148.0
1016,D3,351.0,0.25,70,148.0
1017,B-3,351.25,0.25,95,148.0
1018,G4,351.5,0.25,95,148.0
1019,G3,351.75,0.25,70,148.0
1020,E-4,352.0,0.25,95,148.0
1021,G4,352.25,0.25,95,148.0
1022,G3,352.5,0.25,70,148.0
1023,E-4,352.75,0.25,95,148.0
1024,D3,353.0,0.25,70,148.0
1025,F4,353.25,0.25,95,148.0
1026,D3,353.5,0.25,70,148.0
1027,D4,353.75,0.25,95,148.0
1028,D3,354.0,0.25,70,148.0
1029,E-4,354.25,0.25,95,148.0
1030,D3,354.5,0.25,70,148.0
1031,B-3,354.75,0.25,95,148.0
1032,A2,355.0,0.25,70,148.0
1033,A4,355.25,0.25,95,148.0
1034,G3,355.5,0.25,70,148.0
1035,F#4,355.75,0.25,95,148.0
1036,A4,356.0,0.25,95,148.0
1037,G3,356.25,0.25,70,148.0
1038,F#4,356.5,0.25,95,148.0
1039,D3,356.75,0.25,70,148.0
1040,G4,357.0,0.25,95,148.0
1041,D3,357.25,0.25,70,148.0
1042,E4,357.5,0.25,95,148.0
1043,D3,357.75,0.25,70,148.0
1044,F#4,358.0,0.25,95,148.0
1045,D3,358.25,0.25,70,148.0
1046,C4,358.5,0.25,95,148.0
1047,A4,358.75,0.25,95,148.0
1048,G3,359.0,0.25,70,148.0
1049,F#4,359.25,0.25,95,148.0
1050,A4,359.5,0.25,95,148.0
1051,G3,359.75,0.25,70,148.0
1052,F#4,360.0,0.25,95,148.0
1053,D3,360.25,0.25,70,148.0
1054,G4,360.5,0.25,95,148.0
1055,D3,360.75,0.25,70,148.0
1056,E4,361.0,0.25,95,148.0
1057,D3,361.25,0.25,70,148.0
1058,F#4,361.5,0.25,95,148.0
1059,D3,361.75,0.25,70,148.0
1060,C4,362.0,0.25,95,148.0
1061,A2,362.25,0.25,70,148.0
1062,B-4,362.5,0.25,95,148.0
1063,C5,362.75,0.25,95,148.0
1064,B-4,363.0,0.25,95,148.0
1065,G3,363.25,0.25,95,148.0
1066,C5,363.5,0.25,95,148.0
1067,D5,363.75,0.25,95,148.0
1068,C5,364.0,0.25,95,148.0
1069,G3,364.25,0.25,95,148.0
1070,A4,364.5,0.25,95,148.0
1071,B-4,364.75,0.25,95,148.0
1072,A4,365.0,0.25,95,148.0
1073,G3,365.25,0.25,95,148.0
1074,B-4,365.5,0.25,95,148.0
1075,C5,365.75,0.25,95,148.0
1076,B-4,366.0,0.25,95,148.0
1077,G3,366.25,0.25,95,148.0
1078,G4,366.5,0.25,95,148.0
1079,A4,366.75,0.25,95,148.0
1080,G4,367.0,0.25,95,148.0
1081,G3,367.25,0.25,95,148.0
1082,A4,367.5,0.25,95,148.0
1083,B-4,367.75,0.25,95,148.0
1084,A4,368.0,0.25,95,148.0
1085,G3,368.25,0.25,95,148.0
1086,F#4,368.5,0.25,95,148.0
1087,G4,368.75,0.25,95,148.0
1088,F#4,369.0,0.25,95,148.0
1089,G3,369.25,0.25,95,148.0
1090,G4,369.5,0.25,95,148.0
1091,A4,369.75,0.25,95,148.0
1092,G4,370.0,0.25,95,148.0
1093,G3,370.25,0.25,95,148.0
1094,D3,370.5,0.25,95,148.0
1095,E-3,370.75,0.25,95,148.0
1096,G3,371.0,0.25,95,148.0
1097,A3,371.25,0.25,95,148.0
1098,D4,371.5,0.25,95,148.0
1099,E-4,371.75,0.25,95,148.0
1100,G4,372.0,0.25,95,148.0
1101,A4,372.25,0.25,95,148.0
1102,D4,372.5,0.25,95,148.0
1103,E-4,372.75,0.25,95,148.0
1104,G4,373.0,0.25,95,148.0
1105,A4,373.25,0.25,95,148.0
1106,D5,373.5,0.25,95,148.0
1107,E-5,373.75,0.25,95,148.0
1108,G5,374.0,0.25,95,148.0
1109,B-5,374.25,0.25,95,148.0
1110,A5,374.5,1.5,95,148.0
1111,A5,376.0,167/1000,95,148.0
1112,B-5,376.167,167/1000,95,148.0
1113,A5,376.333,167/1000,95,148.0
1114,G5,376.5,2.0,95,148.0
1115,G5,379.0,0.5,95,148.0
1116,A5,379.5,0.5,95,148.0
1117,B-5,380.0,0.5,95,148.0
1118,C6,380.5,1.5,95,148.0
1119,C6,382.0,0.5,95,148.0
1120,B-5,382.5,0.5,95,148.0
1121,A5,383.0,0.25,95,148.0
1122,B-5,383.25,0.25,95,148.0
1123,B-5,383.5,0.5,95,148.0
1124,A5,384.0,0.25,95,148.0
1125,F5,384.25,0.25,95,148.0
1126,C5,384.5,0.25,95,148.0
1127,G5,384.75,0.25,95,148.0
1128,C5,385.0,0.25,95,148.0
1129,F5,385.25,1.25,95,148.0
1130,F5,386.5,1.0,95,148.0
1131,C5,390.0,0.25,95,148.0
1132,D5,390.25,0.25,95,148.0
1133,E-5,390.5,1.25,95,148.0
1134,D5,391.75,0.25,95,148.0
1135,C#5,391.875,0.125,95,148.0
1136,C5,392.0,0.5,95,148.0
1137,B-4,392.5,2.0,95,148.0
1138,D4,395.0,0.5,95,148.0
1139,F4,395.5,0.5,95,148.0
1140,A4,396.0,0.5,95,148.0
1141,C5,396.5,667/1000,95,148.0
1142,G#4,397.042,0.125,95,148.0
1143,A4,397.167,583/1000,95,148.0
1144,F4,397.75,0.25,95,148.0
1145,D4,398.0,0.5,95,148.0
1146,F4,398.375,0.125,95,148.0
1147,G4,398.5,667/1000,95,148.0
1148,F4,399.167,667/1000,95,148.0
1149,C4,399.833,667/1000,95,148.0
1150,B-3,400.5,667/1000,95,148.0
1151,C4,401.167,667/1000,95,148.0
1152,D4,401.833,667/1000,95,148.0
1153,C4,402.375,0.125,95,148.0
1154,D4,402.5,2.0,95,148.0
1155,G3,405.5,333/1000,95,148.0
1156,C4,405.833,333/1000,95,148.0
1157,D4,406.167,333/1000,95,148.0
1158,E-4,406.5,1.5,95,148.0
1159,D4,408.0,0.5,95,148.0
1160,D5,408.5,0.5,95,148.0
1161,E-4,409.0,0.25,95,148.0
1162,E-5,409.25,0.25,95,148.0
1163,D5,410.0,0.5,95,148.0
1164,D4,410.0,0.5,95,148.0
1165,C4,410.5,0.25,95,148.0
1166,C5,410.75,1.75,95,148.0
1167,B-4,413.5,1.0,95,148.0
1168,B-4,414.5,1.5,95,148.0
1169,A4,416.0,0.25,95,148.0
1170,G4,416.25,0.25,95,148.0
1171,B-4,416.5,0.25,95,148.0
1172,A4,416.75,0.25,95,148.0
1173,G4,417.0,0.25,95,148.0
1174,A4,417.25,0.25,95,148.0
1175,F4,417.5,0.25,95,148.0
1176,G4,417.75,0.25,95,148.0
1177,D4,418.0,0.25,95,148.0
1178,F4,418.25,0.25,95,148.0
1179,D4,418.5,1.5,95,148.0
1180,C4,420.0,1.5,95,148.0
1181,F5,422.5,0.25,95,148.0
1182,E5,422.75,0.25,95,148.0
1183,E-5,423.0,0.25,95,148.0
1184,C#5,423.25,0.25,95,148.0
1185,D5,423.5,0.25,95,148.0
1186,B-4,423.75,0.25,95,148.0
1187,G4,424.0,0.25,95,148.0
1188,F4,424.25,0.25,95,148.0
1189,B-4,424.5,0.25,95,148.0
1190,A4,424.75,0.25,95,148.0
1191,G4,425.0,0.25,95,148.0
1192,F#4,425.25,0.25,95,148.0
1193,A4,425.5,0.25,95,148.0
1194,G4,425.75,0.25,95,148.0
1195,F#4,426.0,0.25,95,148.0
1196,F4,426.25,0.25,95,148.0
1197,D4,426.5,0.25,95,148.0
1198,F4,426.75,0.25,95,148.0
1199,E4,427.0,0.25,95,148.0
1200,C4,427.25,0.25,95,148.0
1201,G3,427.5,0.25,95,148.0
1202,E4,427.75,0.25,95,148.0
1203,E-4,428.0,0.25,95,148.0
1204,C4,428.25,0.25,95,148.0
1205,B-3,428.5,0.25,95,148.0
1206,E-4,428.75,0.25,95,148.0
1207,C4,429.0,0.25,95,148.0
1208,B3,429.25,0.25,95,148.0
1209,B-3,429.5,0.25,95,148.0
1210,A3,429.75,0.25,95,148.0
1211,F4,430.0,0.25,95,148.0
1212,E4,430.25,0.25,95,148.0
1213,E-4,430.5,0.25,95,148.0
1214,D4,430.75,0.25,95,148.0
1215,C4,431.0,0.25,95,148.0
1216,C#4,431.25,0.25,95,148.0
1217,D4,431.5,0.25,95,148.0
1218,B-3,431.75,0.25,95,148.0
1219,G3,432.0,0.25,95,148.0
1220,A3,432.25,0.25,95,148.0
1221,B-3,432.5,0.5,95,148.0
1222,F4,433.0,0.5,95,148.0
1223,D4,434.5,1.0,95,148.0
1224,C4,435.5,2.5,95,148.0
1225,B-3,438.0,0.25,95,148.0
1226,G3,438.25,0.25,95,148.0
1227,B-3,438.375,0.125,95,148.0
1228,C4,438.5,0.75,95,148.0
1229,C4,439.25,0.75,95,148.0
1230,B-3,440.0,0.25,95,148.0
1231,G3,440.25,0.25,95,148.0
1232,F3,440.5,0.25,95,148.0
1233,G3,440.75,0.25,95,148.0
1234,B-3,441.0,0.25,95,148.0
1235,G3,441.25,1.25,95,148.0
1236,G3,442.5,1.0,95,148.0
1237,B3,443.833,333/1000,95,148.0
1238,C4,444.167,333/1000,95,148.0
1239,G4,444.5,667/1000,95,148.0
1240,G4,445.167,667/1000,95,148.0
1241,G4,445.833,667/1000,95,148.0
1242,F4,446.375,0.125,95,148.0
1243,G4,446.5,1333/1000,95,148.0
1244,G4,447.833,667/1000,95,148.0
1245,F4,448.5,2.0,95,148.0
1246,F4,451.375,0.125,95,148.0
1247,A4,451.5,0.25,95,148.0
1248,B-4,451.75,0.25,95,148.0
1249,B4,452.0,0.25,95,148.0
1250,C5,452.25,0.25,95,148.0
1251,G#4,452.5,0.25,95,148.0
1252,A4,452.75,0.25,95,148.0
1253,F4,453.0,0.25,95,148.0
1254,C4,453.25,0.25,95,148.0
1255,G4,453.5,0.25,95,148.0
1256,C4,453.75,0.25,95,148.0
1257,F4,454.0,0.5,95,148.0
1258,F4,454.5,1.0,95,148.0
1259,F4,455.5,1.0,95,148.0
1260,D4,456.5,667/1000,95,148.0
1261,E-4,457.167,667/1000,95,148.0
1262,C4,457.833,667/1000,95,148.0
1263,A3,458.5,667/1000,95,148.0
1264,B-3,459.167,667/1000,95,148.0
1265,F4,459.833,667/1000,95,148.0
1266,B-3,460.5,667/1000,95,148.0
1267,C4,461.167,667/1000,95,148.0
1268,G4,461.833,667/1000,95,148.0
1269,C4,462.5,667/1000,95,148.0
1270,D4,463.167,667/1000,95,148.0
1271,A4,463.833,667/1000,95,148.0
1272,D4,464.5,667/1000,95,148.0
1273,E-4,465.167,667/1000,95,148.0
1274,B-4,465.833,667/1000,95,148.0
1275,E-4,466.5,667/1000,95,148.0
1276,F4,467.167,667/1000,95,148.0
1277,C5,467.833,667/1000,95,148.0
1278,C#5,468.5,667/1000,95,148.0
1279,G5,469.167,667/1000,95,148.0
1280,D5,469.833,667/1000,95,148.0
1281,F5,470.5,0.75,95,148.0
1282,F5,471.25,1.75,95,148.0
1283,G5,473.0,167/1000,95,148.0
1284,F5,473.167,167/1000,95,148.0
1285,D5,473.333,167/1000,95,148.0
1286,F5,473.5,0.5,95,148.0
1287,G5,474.0,167/1000,95,148.0
1288,F5,474.167,167/1000,95,148.0
1289,D5,474.333,167/1000,95,148.0
1290,F5,474.5,0.5,95,148.0
1291,G5,475.0,167/1000,95,148.0
1292,F5,475.167,167/1000,95,148.0
1293,D5,475.333,167/1000,95,148.0
1294,F5,475.5,3.0,95,148.0
1295,F5,478.5,0.5,95,148.0
1296,F5,479.0,0.25,95,148.0
1297,D5,479.25,0.25,95,148.0
1298,C#5,479.5,167/1000,95,148.0
1299,C5,479.667,167/1000,95,148.0
1300,B-4,479.833,167/1000,95,148.0
1301,G4,480.0,0.25,95,148.0
1302,C5,480.25,0.25,95,148.0
1303,G4,480.5,0.25,95,148.0
1304,B-4,480.75,0.25,95,148.0
1305,G4,481.0,0.25,95,148.0
1306,F4,481.25,0.25,95,148.0
1307,C4,481.5,0.25,95,148.0
1308,B-3,481.75,0.25,95,148.0
1309,G3,482.0,0.25,95,148.0
1310,B-3,482.25,0.25,95,148.0
1311,C4,482.375,0.125,95,148.0
1312,D4,482.5,667/1000,95,148.0
1313,F4,483.167,667/1000,95,148.0
1314,G4,483.833,667/1000,95,148.0
1315,C5,484.375,0.125,95,148.0
1316,D5,484.5,667/1000,95,148.0
1317,F5,485.167,667/1000,95,148.0
1318,G5,485.833,667/1000,95,148.0
1319,F5,486.5,2.25,95,148.0
1320,C6,487.75,0.25,95,148.0
1321,C6,488.75,0.25,95,148.0
1322,F5,489.0,1.25,95,148.0
1323,C6,489.5,0.25,95,148.0
1324,C6,490.25,0.25,95,148.0
1325,F5,490.5,0.5,95,148.0
1326,C6,491.0,0.25,95,148.0
1327,F5,491.25,0.5,95,148.0
1328,C6,491.75,0.25,95,148.0
1329,F5,492.0,0.5,95,148.0
1330,C6,492.5,0.25,95,148.0
1331,F5,492.75,0.5,95,148.0
1332,C6,493.25,0.25,95,148.0
1333,F5,493.5,0.5,95,148.0
1334,C6,494.0,0.25,95,148.0
1335,F5,494.25,0.25,95,148.0
1336,F5,494.5,0.5,95,148.0
1337,C6,495.0,1.5,95,148.0
1338,B-5,496.5,1.0,95,148.0
1339,G5,497.5,0.75,95,148.0
1340,F5,498.25,0.25,95,148.0
1341,G5,498.5,0.25,95,148.0
1342,B-5,498.75,0.25,95,148.0
1343,G5,499.0,1.5,95,148.0
1344,G5,500.5,1.75,95,148.0
1345,G5,502.25,0.25,95,148.0
1346,B-5,502.5,167/1000,95,148.0
1347,C6,502.667,167/1000,95,148.0
1348,B-5,502.833,167/1000,95,148.0
1349,G5,503.0,167/1000,95,148.0
1350,F5,503.167,167/1000,95,148.0
1351,D5,503.333,167/1000,95,148.0
1352,B-5,503.5,167/1000,95,148.0
1353,C6,503.667,167/1000,95,148.0
1354,B-5,503.833,167/1000,95,148.0
1355,G5,504.0,167/1000,95,148.0
1356,F5,504.167,167/1000,95,148.0
1357,D5,504.333,167/1000,95,148.0
1358,B-5,504.5,167/1000,95,148.0
1359,C6,504.667,167/1000,95,148.0
1360,B-5,504.833,167/1000,95,148.0
1361,G5,505.0,167/1000,95,148.0
1362,F5,505.167,167/1000,95,148.0
1363,D5,505.333,167/1000,95,148.0
1364,B-5,505.5,167/1000,95,148.0
1365,C6,505.667,167/1000,95,148.0
1366,B-5,505.833,167/1000,95,148.0
1367,G5,506.0,167/1000,95,148.0
1368,F5,506.167,167/1000,95,148.0
1369,D5,506.333,167/1000,95,148.0
1370,B-5,506.5,0.25,95,148.0
1371,C6,506.75,0.25,95,148.0
1372,B-5,507.0,0.25,95,148.0
1373,G5,507.25,0.25,95,148.0
1374,F5,507.5,0.25,95,148.0
1375,D5,507.75,0.25,95,148.0
1376,B-5,508.0,0.25,95,148.0
1377,C6,508.25,0.25,95,148.0
1378,B-5,508.5,0.25,95,148.0
1379,G5,508.75,0.25,95,148.0
1380,F5,509.0,0.25,95,148.0
1381,G5,509.25,0.25,95,148.0
1382,A5,509.5,0.25,95,148.0
1383,G5,509.75,143/1000,95,148.0
1384,G5,509.893,143/1000,95,148.0
1385,G5,510.035,143/1000,95,148.0
1386,G5,510.178,143/1000,95,148.0
1387,A5,510.321,143/1000,95,148.0
1388,B-5,510.464,9/250,95,148.0
1389,G5,510.5,0.25,95,148.0
1390,B-5,510.5,53/500,95,148.0
1391,B-5,510.606,143/1000,95,148.0
1392,A5,510.749,143/1000,95,148.0
1393,F5,510.75,0.25,95,148.0
1394,G5,510.892,143/1000,95,148.0
1395,F5,511.0,0.25,95,148.0
1396,G5,511.034,143/1000,95,148.0
1397,A5,511.177,143/1000,95,148.0
1398,E-5,511.25,0.25,95,148.0
1399,B-5,511.32,143/1000,95,148.0
1400,A5,511.462,143/1000,95,148.0
1401,F5,511.5,0.25,95,148.0
1402,G5,511.605,143/1000,95,148.0
1403,D5,511.75,0.25,95,148.0
1404,E-5,512.0,0.25,95,148.0
1405,E-5,512.25,0.25,95,148.0
1406,F5,512.5,0.25,95,148.0
1407,D5,512.75,0.25,95,148.0
1408,D5,513.0,0.25,95,148.0
1409,D5,513.25,0.25,95,148.0
1410,E-5,513.5,0.25,95,148.0
1411,F5,513.75,0.25,95,148.0
1412,D5,514.0,0.25,95,148.0
1413,D5,514.25,0.25,95,148.0
1414,E-5,514.5,143/1000,95,148.0
1415,E-5,514.5,0.25,95,148.0
1416,F5,514.643,143/1000,95,148.0
1417,E-5,514.75,89/500,95,148.0
1418,E-5,514.785,43/200,95,148.0
1419,D5,514.928,143/1000,95,148.0
1420,F5,515.0,0.25,95,148.0
1421,E-5,515.071,143/1000,95,148.0
1422,E-5,515.214,143/1000,95,148.0
1423,E-5,515.25,0.25,95,148.0
1424,F5,515.356,143/1000,95,148.0
1425,D5,515.499,143/1000,95,148.0
1426,D5,515.5,0.25,95,148.0
1427,D5,515.642,143/1000,95,148.0
1428,E-5,515.75,177/1000,95,148.0
1429,E-5,515.784,27/125,95,148.0
1430,F5,515.927,143/1000,95,148.0
1431,E-5,516.0,53/250,95,148.0
1432,E-5,516.07,9/50,95,148.0
1433,D5,516.212,143/1000,95,148.0
1434,F5,516.25,0.25,95,148.0
1435,E-5,516.355,143/1000,95,148.0
1436,C5,516.498,0.25,95,148.0
1437,D5,516.498,0.25,95,148.0
1438,C5,516.748,0.25,95,148.0
1439,D5,516.748,0.25,95,148.0
1440,D5,516.998,0.25,95,148.0
1441,E-5,517.248,0.25,95,148.0
1442,D5,517.498,0.25,95,148.0
1443,C5,517.748,0.25,95,148.0
1444,C5,517.998,0.25,95,148.0
1445,D5,518.248,0.25,95,148.0
1446,D5,518.498,1/500,95,148.0
1447,B-4,518.5,143/1000,95,148.0
1448,D5,518.5,31/125,95,148.0
1449,B-4,518.643,143/1000,95,148.0
1450,E-5,518.748,0.25,95,148.0
1451,C5,518.785,143/1000,95,148.0
1452,B-4,518.928,143/1000,95,148.0
1453,C5,518.998,0.25,95,148.0
1454,A4,519.071,143/1000,95,148.0
1455,A4,519.214,143/1000,95,148.0
1456,D5,519.248,0.25,95,148.0
1457,B-4,519.356,143/1000,95,148.0
1458,A4,519.498,0.25,95,148.0
1459,C5,519.499,143/1000,95,148.0
1460,B-4,519.642,143/1000,95,148.0
1461,A4,519.784,143/1000,95,148.0
1462,B-4,519.927,143/1000,95,148.0
1463,B-4,520.07,143/1000,95,148.0
1464,C5,520.212,143/1000,95,148.0
1465,A4,520.355,143/1000,95,148.0
1466,B-4,520.498,0.25,95,148.0
1467,B-4,520.748,0.25,95,148.0
1468,C5,520.998,0.25,95,148.0
1469,A4,521.248,0.25,95,148.0
1470,B-4,521.498,0.25,95,148.0
1471,A4,521.748,0.25,95,148.0
1472,G4,521.998,0.25,95,148.0
1473,G#4,522.248,0.25,95,148.0
1474,G#4,522.498,1/500,95,148.0
1475,F4,522.498,1/500,95,148.0
1476,G#4,522.5,31/125,95,148.0
1477,F4,522.5,31/125,95,148.0
1478,A4,522.748,0.25,95,148.0
1479,F#4,522.748,0.25,95,148.0
1480,G#4,522.998,0.25,95,148.0
1481,G4,522.998,0.25,95,148.0
1482,G4,523.248,0.25,95,148.0
1483,G4,523.248,0.25,95,148.0
1484,G4,523.498,0.25,95,148.0
1485,A4,523.498,0.25,95,148.0
1486,G4,523.75,0.25,95,148.0
1487,F4,524.0,0.25,95,148.0
1488,F#4,524.25,0.25,95,148.0
1489,G4,524.5,0.25,95,148.0
1490,G4,524.75,0.25,95,148.0
1491,A4,525.0,0.25,95,148.0
1492,G4,525.25,0.25,95,148.0
1493,F4,525.5,0.25,95,148.0
1494,G4,525.75,1/10,95,148.0
1495,E4,525.85,1/10,95,148.0
1496,E4,525.95,1/10,95,148.0
1497,F4,526.05,1/10,95,148.0
1498,G4,526.15,1/10,95,148.0
1499,G4,526.25,1/10,95,148.0
1500,F4,526.35,1/10,95,148.0
1501,E4,526.45,1/20,95,148.0
1502,E4,526.5,1/20,95,148.0
1503,E-4,526.55,1/10,95,148.0
1504,E-4,526.65,1/10,95,148.0
1505,F4,526.75,0.75,95,148.0
1506,G4,527.5,0.25,95,148.0
1507,G4,527.75,0.5,95,148.0
1508,E4,528.25,0.25,95,148.0
1509,C5,528.5,1.0,95,148.0
1510,B-4,529.5,1.0,95,148.0
1511,G4,530.5,0.25,95,148.0
1512,F4,530.75,0.25,95,148.0
1513,C5,531.0,0.25,95,148.0
1514,D5,531.25,0.25,95,148.0
1515,C5,531.5,0.5,95,148.0
1516,D5,532.0,0.25,95,148.0
1517,G5,532.25,0.25,95,148.0
1518,C5,532.5,0.25,95,148.0
1519,D5,532.75,0.25,95,148.0
1520,G5,533.0,0.25,95,148.0
1521,C5,533.25,0.25,95,148.0
1522,D5,533.5,0.25,95,148.0
1523,C5,533.75,0.25,95,148.0
1524,C5,534.0,0.5,95,148.0
1525,C5,534.5,0.25,95,148.0
1526,A2,534.75,17/250,95,148.0
1527,C5,535.0,1.0,95,148.0
1528,C5,536.0,0.25,95,148.0
1529,B-4,536.25,0.25,95,148.0
1530,D3,536.5,0.75,95,148.0
1531,G4,537.25,0.25,95,148.0
1532,F4,537.5,0.25,95,148.0
1533,C#4,537.75,417/1000,95,148.0
1534,B3,538.167,167/1000,95,148.0
1535,G3,538.333,167/1000,95,148.0
1536,E2,538.5,3.0,95,148.0
1537,C4,541.5,1.0,95,148.0
1538,E2,542.5,1.0,47,148.0
1539,C4,542.5,1.75,95,148.0
1540,G3,542.5,1.75,95,148.0
1541,C3,542.5,1.75,95,148.0
1542,A2,544.25,0.25,95,148.0
1543,F4,544.5,2.0,95,148.0
1544,C4,544.5,2.0,95,148.0
1545,B-3,544.5,2.0,95,148.0
1546,F3,544.5,2.0,95,148.0
1547,B-2,544.5,2.0,95,148.0
1548,G#2,546.5,351/500,95,148.0
1549,C#3,546.5,351/500,95,148.0
1550,G#3,546.5,351/500,95,148.0
1551,C#4,546.572,339/500,95,148.0
1552,E-4,547.25,1.0,95,148.0
1553,E2,548.25,0.25,95,148.0
1554,G3,548.5,0.75,95,148.0
1555,D3,548.5,0.75,95,148.0
1556,G#3,549.25,0.75,95,148.0
1557,E-3,549.25,0.75,95,148.0
1558,F#3,550.0,0.5,95,148.0
1559,C#3,550.0,0.5,95,148.0
1560,F#3,550.5,0.25,95,148.0
1561,C#3,550.5,0.25,95,148.0
1562,C#3,550.75,0.25,95,148.0
1563,G3,551.0,0.25,95,148.0
1564,C#3,551.25,0.25,95,148.0
1565,C#4,551.5,0.25,95,148.0
1566,G3,551.75,0.25,95,148.0
1567,F#3,552.0,0.25,95,148.0
1568,G3,552.25,0.25,95,148.0
1569,C#3,552.5,0.25,95,148.0
1570,F#3,552.75,0.25,95,148.0
1571,G3,553.0,0.25,95,148.0
1572,C#3,553.25,0.25,95,148.0
1573,C#4,553.5,0.25,95,148.0
1574,G3,553.75,0.25,95,148.0
1575,F#3,554.0,0.25,95,148.0
1576,C#3,554.0,0.25,95,148.0
1577,A2,554.25,0.25,95,148.0
1578,B3,554.5,2.0,95,148.0
1579,F#3,554.5,2.0,95,148.0
1580,B2,554.5,2.0,95,148.0
1581,G3,556.5,2.0,95,148.0
1582,D3,556.5,2.0,95,148.0
1583,G2,556.5,2.0,95,148.0
1584,B2,558.5,4.0,95,148.0
1585,E2,558.5,4.0,95,148.0
1586,B3,562.5,2.0,95,148.0
1587,F#3,562.5,2.0,95,148.0
1588,B2,562.5,2.0,95,148.0
1589,E3,564.5,2.0,95,148.0
1590,A2,564.5,2.0,95,148.0
1591,F#3,566.5,2.0,95,148.0
1592,C#3,566.5,2.0,95,148.0
1593,F#2,566.5,2.0,95,148.0
1594,G3,568.5,2.0,95,148.0
1595,D3,568.5,2.0,95,148.0
1596,G2,568.5,2.0,95,148.0
1597,G3,570.5,2.0,95,148.0
1598,C3,570.5,2.0,95,148.0
1599,A3,572.5,1.0,95,148.0
1600,D3,572.5,1.0,95,148.0
1601,D4,573.5,167/1000,95,148.0
1602,B4,573.667,167/1000,95,148.0
1603,E4,573.833,167/1000,95,148.0
1604,B5,574.0,167/1000,95,148.0
1605,F#5,574.167,167/1000,95,148.0
1606,B5,574.333,167/1000,95,148.0
1607,F#5,574.5,1/5,95,148.0
1608,B5,574.7,1/5,95,148.0
1609,A5,574.9,1/5,95,148.0
1610,B5,575.1,1/5,95,148.0
1611,G5,575.3,1/5,95,148.0
1612,B5,575.5,1/5,95,148.0
1613,F#5,575.7,1/5,95,148.0
1614,B5,575.9,1/5,95,148.0
1615,E5,576.1,1/5,95,148.0
1616,B5,576.3,1/5,95,148.0
1617,G5,576.5,1/5,95,148.0
1618,B5,576.7,1/5,95,148.0
1619,F#5,576.9,1/5,95,148.0
1620,B5,577.1,1/5,95,148.0
1621,E5,577.3,1/5,95,148.0
1622,B5,577.5,1/5,95,148.0
1623,D5,577.7,1/5,95,148.0
1624,B5,577.9,1/5,95,148.0
1625,F#5,578.1,1/5,95,148.0
1626,B5,578.3,1/5,95,148.0
1627,E5,578.5,1/5,95,148.0
1628,B5,578.7,1/5,95,148.0
1629,D5,578.9,1/5,95,148.0
1630,F#5,579.1,1/5,95,148.0
1631,D5,579.3,1/5,95,148.0
1632,F#5,579.5,1/5,95,148.0
1633,C5,579.7,1/5,95,148.0
1634,F#5,579.9,1/5,95,148.0
1635,B4,580.1,1/5,95,148.0
1636,F#5,580.3,1/5,95,148.0
1637,A4,580.5,1/5,95,148.0
1638,F#5,580.7,1/5,95,148.0
1639,C5,580.9,1/5,95,148.0
1640,F#5,581.1,1/5,95,148.0
1641,B4,581.3,1/5,95,148.0
1642,F#5,581.5,1/5,95,148.0
1643,A4,581.7,1/5,95,148.0
1644,F#5,581.9,1/5,95,148.0
1645,G4,582.1,1/5,95,148.0
1646,F#5,582.3,1/5,95,148.0
1647,B4,582.5,1/5,95,148.0
1648,F#5,582.7,1/5,95,148.0
1649,A4,582.9,1/5,95,148.0
1650,F#5,583.1,1/5,95,148.0
1651,G4,583.3,1/5,95,148.0
1652,F#5,583.5,1/5,95,148.0
1653,F#4,583.7,1/5,95,148.0
1654,F#5,583.9,1/5,95,148.0
1655,A4,584.1,1/5,95,148.0
1656,F#5,584.3,1/5,95,148.0
1657,G4,584.5,167/1000,95,148.0
1658,F#4,584.667,167/1000,95,148.0
1659,G4,584.833,167/1000,95,148.0
1660,F#4,585.0,1.5,95,148.0
1661,D4,586.5,667/1000,95,148.0
1662,C#4,587.167,667/1000,95,148.0
1663,A3,587.833,667/1000,95,148.0
1664,B3,588.5,667/1000,95,148.0
1665,C#4,589.167,667/1000,95,148.0
1666,F#3,589.833,667/1000,95,148.0
1667,C#4,590.5,2.0,95,148.0
1668,F#3,592.5,333/1000,95,148.0
1669,G3,592.833,333/1000,95,148.0
1670,A3,593.167,333/1000,95,148.0
1671,B3,593.5,333/1000,95,148.0
1672,C#4,593.833,333/1000,95,148.0
1673,D4,594.167,333/1000,95,148.0
1674,E4,594.375,0.125,95,148.0
1675,F#4,594.5,667/1000,95,148.0
1676,E4,595.167,0.5,95,148.0
1677,F#4,595.667,83/1000,95,148.0
1678,E4,595.75,83/1000,95,148.0
1679,D4,595.833,667/1000,95,148.0
1680,C#4,596.5,667/1000,95,148.0
1681,D4,597.167,667/1000,95,148.0
1682,A4,597.833,667/1000,95,148.0
1683,C#5,598.5,1.5,95,148.0
1684,D5,600.0,0.25,95,148.0
1685,C#5,600.25,0.25,95,148.0
1686,B4,600.5,2.0,95,148.0
