,note_name,start_time,duration,velocity,tempo
0,E4,0.0,1.0,100,120.0
1,F#4,1.0,1.0,100,120.0
2,E4,1.5,1.0,50,120.0
3,G#4,2.0,1.0,100,120.0
4,E4,2.5,1.0,50,120.0
5,A4,3.0,1.0,100,120.0
6,E4,3.5,0.5,50,120.0
7,B4,4.0,1.0,100,120.0
8,E4,4.0,0.5,50,120.0
9,E4,4.5,1.0,50,120.0
10,B4,5.0,1.0,100,120.0
11,E4,5.5,1.0,50,120.0
12,B4,6.0,1.0,100,120.0
13,E4,6.5,1.0,50,120.0
14,E4,7.5,0.5,50,120.0
15,A4,8.0,1.0,100,120.0
16,E4,8.0,0.5,50,120.0
17,E4,8.5,1.0,50,120.0
18,B4,9.0,1.0,100,120.0
19,E4,9.5,1.0,50,120.0
20,C#5,10.0,1.0,100,120.0
21,E4,10.5,1.0,50,120.0
22,A4,11.0,1.0,100,120.0
23,E4,11.5,0.5,50,120.0
24,B4,12.0,1.0,100,120.0
25,E4,12.0,0.5,50,120.0
26,E4,12.5,1.0,50,120.0
27,B4,13.0,1.0,100,120.0
28,E4,13.5,1.0,50,120.0
29,B4,14.0,1.0,100,120.0
30,E4,14.5,1.0,50,120.0
31,E4,15.5,0.5,50,120.0
32,G#4,16.0,1.0,100,120.0
33,E4,16.0,0.5,50,120.0
34,E4,16.5,1.0,50,120.0
35,B4,17.0,1.0,100,120.0
36,E4,17.5,1.0,50,120.0
37,A4,18.0,1.0,100,120.0
38,E4,18.5,1.0,50,120.0
39,G#4,19.0,1.0,100,120.0
40,E4,19.5,0.5,50,120.0
41,A4,20.0,1.0,100,120.0
42,E4,20.0,0.5,50,120.0
43,E4,20.5,1.0,50,120.0
44,F#4,21.0,1.0,100,120.0
45,E4,21.5,1.0,50,120.0
46,F#4,22.0,1.0,100,120.0
47,E4,22.5,1.0,50,120.0
48,F#4,23.0,1.0,100,120.0
49,E4,23.5,0.5,50,120.0
50,A4,24.0,1.0,100,120.0
51,E4,24.0,0.5,50,120.0
52,E4,24.5,1.0,50,120.0
53,G#4,25.0,1.0,100,120.0
54,E4,25.5,1.0,50,120.0
55,E4,26.0,1.0,100,120.0
56,E4,26.5,1.0,50,120.0
57,G#4,27.0,1.0,100,120.0
58,E4,27.5,0.5,50,120.0
59,F#4,28.0,1.0,100,120.0
60,E4,28.0,0.5,50,120.0
61,E4,28.5,1.0,50,120.0
62,F#4,29.0,1.0,100,120.0
63,E4,29.5,1.0,50,120.0
64,F#4,30.0,1.0,100,120.0
65,E4,30.5,1.0,50,120.0
66,B3,31.0,1.0,100,120.0
67,E4,31.5,0.5,50,120.0
68,B4,32.0,1.0,100,120.0
69,E4,32.0,0.5,50,120.0
70,E4,32.5,1.0,50,120.0
71,A4,33.0,1.0,100,120.0
72,E4,33.5,1.0,50,120.0
73,G#4,34.0,1.0,100,120.0
74,E4,34.5,1.0,50,120.0
75,B3,35.0,1.0,100,120.0
76,E4,35.5,0.5,50,120.0
77,B4,36.0,1.0,100,120.0
78,E4,36.0,0.5,50,120.0
79,E4,36.5,1.0,50,120.0
80,A4,37.0,1.0,100,120.0
81,E4,37.5,1.0,50,120.0
82,A4,38.0,1.0,100,120.0
83,E4,38.5,1.0,50,120.0
84,A4,39.0,1.0,100,120.0
85,E4,39.5,0.5,50,120.0
86,C#5,40.0,1.0,100,120.0
87,E4,40.0,0.5,50,120.0
88,E4,40.5,1.0,50,120.0
89,B4,41.0,1.0,100,120.0
90,E4,41.5,1.0,50,120.0
91,G#4,42.0,1.0,100,120.0
92,E4,42.5,1.0,50,120.0
93,A4,43.0,1.0,100,120.0
94,E4,43.5,0.5,50,120.0
95,F#4,44.0,1.0,100,120.0
96,E4,44.0,0.5,50,120.0
97,E4,44.5,1.0,50,120.0
98,F#4,45.0,1.0,100,120.0
99,E4,45.5,1.0,50,120.0
100,F#4,46.0,1.0,100,120.0
101,E4,46.5,1.0,50,120.0
102,E4,47.5,0.5,50,120.0
103,E-4,48.0,1.0,100,120.0
104,E4,48.0,0.5,50,120.0
105,E4,48.5,1.0,50,120.0
106,E4,49.0,1.0,100,120.0
107,E4,49.5,1.0,50,120.0
108,F#4,50.0,1.0,100,120.0
109,E4,50.5,1.0,50,120.0
110,G#4,51.0,1.0,100,120.0
111,E4,51.5,0.5,50,120.0
112,A4,52.0,1.0,100,120.0
113,E4,52.0,0.5,50,120.0
114,E4,52.5,1.0,50,120.0
115,A4,53.0,1.0,100,120.0
116,E4,53.5,1.0,50,120.0
117,A4,54.0,1.0,100,120.0
118,E4,54.5,1.0,50,120.0
119,A4,55.0,1.0,100,120.0
120,E4,55.5,0.5,50,120.0
121,F#4,56.0,1.0,100,120.0
122,E4,56.0,0.5,50,120.0
123,E4,56.5,1.0,50,120.0
124,A4,57.0,1.0,100,120.0
125,E4,57.5,1.0,50,120.0
126,G#4,58.0,1.0,100,120.0
127,E4,58.5,1.0,50,120.0
128,F#4,59.0,1.0,100,120.0
129,E4,59.5,0.5,50,120.0
130,A5,59.5,0.5,100,120.0
131,E4,60.0,1.0,100,120.0
132,E4,60.0,0.5,50,120.0
133,A5,60.0,0.5,100,120.0
134,E4,61.0,1.0,50,120.0
135,E4,62.0,1.0,50,120.0
136,E4,63.0,1.0,50,120.0
137,E4,64.0,1.0,100,120.0
138,E4,64.0,1.0,100,120.0
139,F#4,65.0,1.0,100,120.0
140,F#4,65.0,1.0,100,120.0
141,E4,65.5,1.0,50,120.0
142,G#4,66.0,1.0,100,120.0
143,G#4,66.0,1.0,100,120.0
144,E4,66.5,1.0,50,120.0
145,A4,67.0,1.0,100,120.0
146,A4,67.0,1.0,100,120.0
147,E4,67.5,0.5,50,120.0
148,B4,68.0,1.0,100,120.0
149,E4,68.0,0.5,50,120.0
150,B4,68.0,1.0,100,120.0
151,E4,68.5,1.0,50,120.0
152,B4,69.0,1.0,100,120.0
153,B4,69.0,2.0,100,120.0
154,E4,69.5,1.0,50,120.0
155,B4,70.0,1.0,100,120.0
156,E4,70.5,1.0,50,120.0
157,E4,71.5,0.5,50,120.0
158,A4,72.0,1.0,100,120.0
159,E4,72.0,0.5,50,120.0
160,A4,72.0,1.0,100,120.0
161,E4,72.5,1.0,50,120.0
162,B4,73.0,1.0,100,120.0
163,B4,73.0,1.0,100,120.0
164,E4,73.5,1.0,50,120.0
165,C#5,74.0,1.0,100,120.0
166,C#5,74.0,1.0,100,120.0
167,E4,74.5,1.0,50,120.0
168,A4,75.0,1.0,100,120.0
169,A4,75.0,1.0,100,120.0
170,E4,75.5,0.5,50,120.0
171,B4,76.0,1.0,100,120.0
172,E4,76.0,0.5,50,120.0
173,B4,76.0,2.0,100,120.0
174,E4,76.5,1.0,50,120.0
175,B4,77.0,1.0,100,120.0
176,E4,77.5,1.0,50,120.0
177,B4,78.0,1.0,100,120.0
178,E4,78.5,1.0,50,120.0
179,E4,79.5,0.5,50,120.0
180,G#4,80.0,1.0,100,120.0
181,E4,80.0,0.5,50,120.0
182,G#4,80.0,1.0,100,120.0
183,E4,80.5,1.0,50,120.0
184,B4,81.0,1.0,100,120.0
185,B4,81.0,1.0,100,120.0
186,E4,81.5,1.0,50,120.0
187,A4,82.0,1.0,100,120.0
188,A4,82.0,1.0,100,120.0
189,E4,82.5,1.0,50,120.0
190,G#4,83.0,1.0,100,120.0
191,G#4,83.0,1.0,100,120.0
192,E4,83.5,0.5,50,120.0
193,A4,84.0,1.0,100,120.0
194,E4,84.0,0.5,50,120.0
195,A4,84.0,1.0,100,120.0
196,E4,84.5,1.0,50,120.0
197,F#4,85.0,1.0,100,120.0
198,F#4,85.0,2.0,100,120.0
199,E4,85.5,1.0,50,120.0
200,F#4,86.0,1.0,100,120.0
201,E4,86.5,1.0,50,120.0
202,F#4,87.0,1.0,100,120.0
203,E4,87.5,0.5,50,120.0
204,A4,88.0,1.0,100,120.0
205,E4,88.0,0.5,50,120.0
206,A4,88.0,1.0,100,120.0
207,E4,88.5,1.0,50,120.0
208,G#4,89.0,1.0,100,120.0
209,G#4,89.0,1.0,100,120.0
210,E4,89.5,1.0,50,120.0
211,E4,90.0,1.0,100,120.0
212,E4,90.0,1.0,100,120.0
213,E4,90.5,1.0,50,120.0
214,G#4,91.0,1.0,100,120.0
215,G#4,91.0,1.0,100,120.0
216,E4,91.5,0.5,50,120.0
217,F#4,92.0,1.0,100,120.0
218,E4,92.0,0.5,50,120.0
219,F#4,92.0,2.0,100,120.0
220,E4,92.5,1.0,50,120.0
221,F#4,93.0,1.0,100,120.0
222,E4,93.5,1.0,50,120.0
223,F#4,94.0,1.0,100,120.0
224,E4,94.5,1.0,50,120.0
225,B3,95.0,1.0,100,120.0
226,E4,95.5,0.5,50,120.0
227,B4,96.0,1.0,100,120.0
228,E4,96.0,0.5,50,120.0
229,B4,96.0,1.0,100,120.0
230,E4,96.5,1.0,50,120.0
231,A4,97.0,1.0,100,120.0
232,A4,97.0,1.0,100,120.0
233,E4,97.5,1.0,50,120.0
234,G#4,98.0,1.0,100,120.0
235,G#4,98.0,1.0,100,120.0
236,E4,98.5,1.0,50,120.0
237,B3,99.0,1.0,100,120.0
238,B3,99.0,1.0,100,120.0
239,E4,99.5,0.5,50,120.0
240,B4,100.0,1.0,100,120.0
241,E4,100.0,0.5,50,120.0
242,B4,100.0,1.0,100,120.0
243,E4,100.5,1.0,50,120.0
244,A4,101.0,1.0,100,120.0
245,A4,101.0,2.0,100,120.0
246,E4,101.5,1.0,50,120.0
247,A4,102.0,1.0,100,120.0
248,E4,102.5,1.0,50,120.0
249,A4,103.0,1.0,100,120.0
250,E4,103.5,0.5,50,120.0
251,C#5,104.0,1.0,100,120.0
252,E4,104.0,0.5,50,120.0
253,C#5,104.0,1.0,100,120.0
254,E4,104.5,1.0,50,120.0
255,B4,105.0,1.0,100,120.0
256,B4,105.0,1.0,100,120.0
257,E4,105.5,1.0,50,120.0
258,G#4,106.0,1.0,100,120.0
259,G#4,106.0,1.0,100,120.0
260,E4,106.5,1.0,50,120.0
261,A4,107.0,1.0,100,120.0
262,A4,107.0,1.0,100,120.0
263,E4,107.5,0.5,50,120.0
264,F#4,108.0,1.0,100,120.0
265,E4,108.0,0.5,50,120.0
266,F#4,108.0,2.0,100,120.0
267,E4,108.5,1.0,50,120.0
268,F#4,109.0,1.0,100,120.0
269,E4,109.5,1.0,50,120.0
270,F#4,110.0,1.0,100,120.0
271,E4,110.5,1.0,50,120.0
272,E4,111.5,0.5,50,120.0
273,E-4,112.0,1.0,100,120.0
274,E4,112.0,0.5,50,120.0
275,E-4,112.0,1.0,100,120.0
276,E4,112.5,1.0,50,120.0
277,E4,113.0,1.0,100,120.0
278,E4,113.0,1.0,100,120.0
279,E4,113.5,1.0,50,120.0
280,F#4,114.0,1.0,100,120.0
281,F#4,114.0,1.0,100,120.0
282,E4,114.5,1.0,50,120.0
283,G#4,115.0,1.0,100,120.0
284,G#4,115.0,1.0,100,120.0
285,E4,115.5,0.5,50,120.0
286,A4,116.0,1.0,100,120.0
287,E4,116.0,0.5,50,120.0
288,A4,116.0,2.0,100,120.0
289,E4,116.0,4.0,70,120.0
290,A3,116.0,4.0,70,120.0
291,C#4,116.0,4.0,70,120.0
292,E4,116.5,1.0,50,120.0
293,A4,117.0,1.0,100,120.0
294,E4,117.5,1.0,50,120.0
295,A4,118.0,1.0,100,120.0
296,E4,118.5,1.0,50,120.0
297,A4,119.0,1.0,100,120.0
298,E4,119.5,0.5,50,120.0
299,F#4,120.0,1.0,100,120.0
300,E4,120.0,0.5,50,120.0
301,F#4,120.0,1.0,100,120.0
302,E4,120.5,1.0,50,120.0
303,A4,121.0,1.0,100,120.0
304,A4,121.0,1.0,100,120.0
305,E4,121.5,1.0,50,120.0
306,G#4,122.0,1.0,100,120.0
307,G#4,122.0,1.0,100,120.0
308,E4,122.5,1.0,50,120.0
309,F#4,123.0,1.0,100,120.0
310,F#4,123.0,1.0,100,120.0
311,E4,123.5,0.5,50,120.0
312,E4,124.0,1.0,100,120.0
313,E4,124.0,0.5,50,120.0
314,E4,124.0,2.0,100,120.0
315,E4,124.0,4.0,70,120.0
316,A3,124.0,4.0,70,120.0
317,C#4,124.0,4.0,70,120.0
318,E4,125.0,1.0,50,120.0
319,E4,126.0,1.0,50,120.0
320,E4,127.0,1.0,50,120.0
321,E4,128.0,1.0,100,120.0
322,E4,128.0,1.0,100,120.0
323,B3,128.0,4.0,50,120.0
324,G#3,128.0,4.0,50,120.0
325,E3,128.0,4.0,50,120.0
326,F#4,129.0,1.0,100,120.0
327,F#4,129.0,1.0,100,120.0
328,E4,129.5,1.0,50,120.0
329,G#4,130.0,1.0,100,120.0
330,G#4,130.0,1.0,100,120.0
331,E4,130.5,1.0,50,120.0
332,A4,131.0,1.0,100,120.0
333,A4,131.0,1.0,100,120.0
334,E4,131.5,0.5,50,120.0
335,B4,132.0,1.0,100,120.0
336,E4,132.0,0.5,50,120.0
337,B4,132.0,1.0,100,120.0
338,B3,132.0,0.5,100,120.0
339,E4,132.5,1.0,50,120.0
340,B3,132.5,0.5,100,120.0
341,B4,133.0,1.0,100,120.0
342,B4,133.0,2.0,100,120.0
343,E4,133.5,1.0,50,120.0
344,B4,134.0,1.0,100,120.0
345,E4,134.5,1.0,50,120.0
346,E4,135.5,0.5,50,120.0
347,A4,136.0,1.0,100,120.0
348,E4,136.0,0.5,50,120.0
349,A4,136.0,1.0,100,120.0
350,E4,136.5,1.0,50,120.0
351,B4,137.0,1.0,100,120.0
352,B4,137.0,1.0,100,120.0
353,E4,137.5,1.0,50,120.0
354,C#5,138.0,1.0,100,120.0
355,C#5,138.0,1.0,100,120.0
356,E4,138.5,1.0,50,120.0
357,A4,139.0,1.0,100,120.0
358,A4,139.0,1.0,100,120.0
359,E4,139.5,0.5,50,120.0
360,B4,140.0,1.0,100,120.0
361,E4,140.0,0.5,50,120.0
362,B4,140.0,2.0,100,120.0
363,B3,140.0,0.5,100,120.0
364,E4,140.5,1.0,50,120.0
365,B3,140.5,0.5,100,120.0
366,B4,141.0,1.0,100,120.0
367,E4,141.5,1.0,50,120.0
368,B4,142.0,1.0,100,120.0
369,E4,142.5,1.0,50,120.0
370,E4,143.5,0.5,50,120.0
371,G#4,144.0,1.0,100,120.0
372,E4,144.0,0.5,50,120.0
373,G#4,144.0,1.0,100,120.0
374,B3,144.0,4.0,50,120.0
375,G#3,144.0,4.0,50,120.0
376,E3,144.0,4.0,50,120.0
377,E4,144.5,1.0,50,120.0
378,B4,145.0,1.0,100,120.0
379,B4,145.0,1.0,100,120.0
380,E4,145.5,1.0,50,120.0
381,A4,146.0,1.0,100,120.0
382,A4,146.0,1.0,100,120.0
383,E4,146.5,1.0,50,120.0
384,G#4,147.0,1.0,100,120.0
385,G#4,147.0,1.0,100,120.0
386,E4,147.5,0.5,50,120.0
387,A4,148.0,1.0,100,120.0
388,E4,148.0,0.5,50,120.0
389,A4,148.0,1.0,100,120.0
390,B3,148.0,0.5,100,120.0
391,E4,148.5,1.0,50,120.0
392,B3,148.5,0.5,100,120.0
393,F#4,149.0,1.0,100,120.0
394,F#4,149.0,2.0,100,120.0
395,E4,149.5,1.0,50,120.0
396,F#4,150.0,1.0,100,120.0
397,E4,150.5,1.0,50,120.0
398,F#4,151.0,1.0,100,120.0
399,E4,151.5,0.5,50,120.0
400,A4,152.0,1.0,100,120.0
401,E4,152.0,0.5,50,120.0
402,A4,152.0,1.0,100,120.0
403,E4,152.5,1.0,50,120.0
404,G#4,153.0,1.0,100,120.0
405,G#4,153.0,1.0,100,120.0
406,E4,153.5,1.0,50,120.0
407,E4,154.0,1.0,100,120.0
408,E4,154.0,1.0,100,120.0
409,E4,154.5,1.0,50,120.0
410,G#4,155.0,1.0,100,120.0
411,G#4,155.0,1.0,100,120.0
412,E4,155.5,0.5,50,120.0
413,F#4,156.0,1.0,100,120.0
414,E4,156.0,0.5,50,120.0
415,F#4,156.0,2.0,100,120.0
416,B3,156.0,0.5,100,120.0
417,B3,156.0,4.0,50,120.0
418,G#3,156.0,4.0,50,120.0
419,E3,156.0,4.0,50,120.0
420,E4,156.5,1.0,50,120.0
421,B3,156.5,0.5,100,120.0
422,F#4,157.0,1.0,100,120.0
423,E4,157.5,1.0,50,120.0
424,F#4,158.0,1.0,100,120.0
425,E4,158.5,1.0,50,120.0
426,B3,159.0,1.0,100,120.0
427,E4,159.5,0.5,50,120.0
428,B4,160.0,1.0,100,120.0
429,E4,160.0,0.5,50,120.0
430,B4,160.0,1.0,100,120.0
431,F3,160.0,0.5,100,120.0
432,E4,160.5,1.0,50,120.0
433,A4,161.0,1.0,100,120.0
434,A4,161.0,1.0,100,120.0
435,E4,161.5,1.0,50,120.0
436,G#4,162.0,1.0,100,120.0
437,G#4,162.0,1.0,100,120.0
438,F3,162.0,0.5,100,120.0
439,E4,162.5,1.0,50,120.0
440,B3,163.0,1.0,100,120.0
441,B3,163.0,1.0,100,120.0
442,E4,163.5,0.5,50,120.0
443,B4,164.0,1.0,100,120.0
444,E4,164.0,0.5,50,120.0
445,B4,164.0,1.0,100,120.0
446,B3,164.0,0.5,100,120.0
447,B3,164.0,4.0,50,120.0
448,G#3,164.0,4.0,50,120.0
449,E3,164.0,4.0,50,120.0
450,E4,164.5,1.0,50,120.0
451,B3,164.5,0.5,100,120.0
452,A4,165.0,1.0,100,120.0
453,A4,165.0,2.0,100,120.0
454,E4,165.5,1.0,50,120.0
455,A4,166.0,1.0,100,120.0
456,E4,166.5,1.0,50,120.0
457,A4,167.0,1.0,100,120.0
458,E4,167.5,0.5,50,120.0
459,C#5,168.0,1.0,100,120.0
460,E4,168.0,0.5,50,120.0
461,C#5,168.0,1.0,100,120.0
462,F3,168.0,0.5,100,120.0
463,E4,168.5,1.0,50,120.0
464,B4,169.0,1.0,100,120.0
465,B4,169.0,1.0,100,120.0
466,E4,169.5,1.0,50,120.0
467,G#4,170.0,1.0,100,120.0
468,G#4,170.0,1.0,100,120.0
469,E4,170.5,1.0,50,120.0
470,A4,171.0,1.0,100,120.0
471,A4,171.0,1.0,100,120.0
472,E4,171.5,0.5,50,120.0
473,F#4,172.0,1.0,100,120.0
474,E4,172.0,0.5,50,120.0
475,F#4,172.0,2.0,100,120.0
476,B3,172.0,0.5,100,120.0
477,E4,172.5,1.0,50,120.0
478,B3,172.5,0.5,100,120.0
479,F#4,173.0,1.0,100,120.0
480,E4,173.5,1.0,50,120.0
481,F#4,174.0,1.0,100,120.0
482,E4,174.5,1.0,50,120.0
483,E4,175.5,0.5,50,120.0
484,E-4,176.0,1.0,100,120.0
485,E4,176.0,0.5,50,120.0
486,E-4,176.0,1.0,100,120.0
487,E4,176.5,1.0,50,120.0
488,E4,177.0,1.0,100,120.0
489,E4,177.0,1.0,100,120.0
490,E4,177.5,1.0,50,120.0
491,F#4,178.0,1.0,100,120.0
492,F#4,178.0,1.0,100,120.0
493,E4,178.5,1.0,50,120.0
494,G#4,179.0,1.0,100,120.0
495,G#4,179.0,1.0,100,120.0
496,E4,179.5,0.5,50,120.0
497,A4,180.0,1.0,100,120.0
498,E4,180.0,0.5,50,120.0
499,A4,180.0,2.0,100,120.0
500,B3,180.0,0.5,100,120.0
501,E4,180.5,1.0,50,120.0
502,B3,180.5,0.5,100,120.0
503,A4,181.0,1.0,100,120.0
504,F3,181.0,1.0,100,120.0
505,E4,181.5,1.0,50,120.0
506,A4,182.0,1.0,100,120.0
507,E4,182.5,1.0,50,120.0
508,A4,183.0,1.0,100,120.0
509,E4,183.5,0.5,50,120.0
510,F#4,184.0,1.0,100,120.0
511,E4,184.0,0.5,50,120.0
512,F#4,184.0,1.0,100,120.0
513,B3,184.0,1.0,100,120.0
514,E4,184.5,1.0,50,120.0
515,A4,185.0,1.0,100,120.0
516,A4,185.0,1.0,100,120.0
517,F#3,185.0,0.5,100,120.0
518,E4,185.5,1.0,50,120.0
519,G#4,186.0,1.0,100,120.0
520,G#4,186.0,1.0,100,120.0
521,E4,186.5,1.0,50,120.0
522,F#4,187.0,1.0,100,120.0
523,F#4,187.0,1.0,100,120.0
524,E4,187.5,0.5,50,120.0
525,E4,188.0,1.0,100,120.0
526,E4,188.0,0.5,50,120.0
527,E4,188.0,2.0,100,120.0
528,B3,188.0,0.5,100,120.0
529,B3,188.5,0.5,100,120.0
530,E4,189.0,1.0,50,120.0
531,E4,190.0,1.0,50,120.0
532,E4,191.0,1.0,50,120.0
533,E4,192.0,1.0,100,120.0
534,E4,192.0,1.0,100,120.0
535,F#3,192.0,0.5,100,120.0
536,F#4,193.0,1.0,100,120.0
537,F#4,193.0,1.0,100,120.0
538,E4,193.5,1.0,50,120.0
539,G#4,194.0,1.0,100,120.0
540,G#4,194.0,1.0,100,120.0
541,F3,194.0,0.5,100,120.0
542,E4,194.5,1.0,50,120.0
543,A4,195.0,1.0,100,120.0
544,A4,195.0,1.0,100,120.0
545,E4,195.5,0.5,50,120.0
546,B4,196.0,1.0,100,120.0
547,E4,196.0,0.5,50,120.0
548,B4,196.0,1.0,100,120.0
549,F2,196.0,0.5,25,120.0
550,E4,196.5,1.0,50,120.0
551,F#2,196.5,0.5,25,120.0
552,F2,196.5,0.5,25,120.0
553,B4,197.0,1.0,100,120.0
554,B4,197.0,2.0,100,120.0
555,E4,197.5,1.0,50,120.0
556,F#2,197.5,0.5,25,120.0
557,B4,198.0,1.0,100,120.0
558,E4,198.5,1.0,50,120.0
559,F#2,198.5,0.5,25,120.0
560,E4,199.5,0.5,50,120.0
561,F#2,199.5,0.5,25,120.0
562,A4,200.0,1.0,100,120.0
563,E4,200.0,0.5,50,120.0
564,A4,200.0,1.0,100,120.0
565,F2,200.0,0.5,25,120.0
566,E4,200.5,1.0,50,120.0
567,F#2,200.5,0.5,25,120.0
568,F2,200.5,0.5,25,120.0
569,B4,201.0,1.0,100,120.0
570,B4,201.0,1.0,100,120.0
571,E4,201.5,1.0,50,120.0
572,F#2,201.5,0.5,25,120.0
573,C#5,202.0,1.0,100,120.0
574,C#5,202.0,1.0,100,120.0
575,E4,202.5,1.0,50,120.0
576,F#2,202.5,0.5,25,120.0
577,A4,203.0,1.0,100,120.0
578,A4,203.0,1.0,100,120.0
579,E4,203.5,0.5,50,120.0
580,F#2,203.5,0.5,25,120.0
581,B4,204.0,1.0,100,120.0
582,E4,204.0,0.5,50,120.0
583,B4,204.0,2.0,100,120.0
584,F2,204.0,0.5,25,120.0
585,E4,204.5,1.0,50,120.0
586,F2,204.5,0.5,25,120.0
587,F#2,204.5,0.5,25,120.0
588,B4,205.0,1.0,100,120.0
589,E4,205.5,1.0,50,120.0
590,F#2,205.5,0.5,25,120.0
591,B4,206.0,1.0,100,120.0
592,E4,206.5,1.0,50,120.0
593,F#2,206.5,0.5,25,120.0
594,E4,207.5,0.5,50,120.0
595,F#2,207.5,0.5,25,120.0
596,G#4,208.0,1.0,100,120.0
597,E4,208.0,0.5,50,120.0
598,G#4,208.0,1.0,100,120.0
599,F2,208.0,0.5,25,120.0
600,E4,208.0,4.0,70,120.0
601,A3,208.0,4.0,70,120.0
602,C#4,208.0,4.0,70,120.0
603,E4,208.5,1.0,50,120.0
604,F#2,208.5,0.5,25,120.0
605,F2,208.5,0.5,25,120.0
606,B4,209.0,1.0,100,120.0
607,B4,209.0,1.0,100,120.0
608,E4,209.5,1.0,50,120.0
609,F#2,209.5,0.5,25,120.0
610,A4,210.0,1.0,100,120.0
611,A4,210.0,1.0,100,120.0
612,E4,210.5,1.0,50,120.0
613,F#2,210.5,0.5,25,120.0
614,G#4,211.0,1.0,100,120.0
615,G#4,211.0,1.0,100,120.0
616,E4,211.5,0.5,50,120.0
617,F#2,211.5,0.5,25,120.0
618,A4,212.0,1.0,100,120.0
619,E4,212.0,0.5,50,120.0
620,A4,212.0,1.0,100,120.0
621,F2,212.0,0.5,25,120.0
622,E4,212.5,1.0,50,120.0
623,F2,212.5,0.5,25,120.0
624,F#2,212.5,0.5,25,120.0
625,F#4,213.0,1.0,100,120.0
626,F#4,213.0,2.0,100,120.0
627,E4,213.5,1.0,50,120.0
628,F#2,213.5,0.5,25,120.0
629,F#4,214.0,1.0,100,120.0
630,E4,214.5,1.0,50,120.0
631,F#2,214.5,0.5,25,120.0
632,F#4,215.0,1.0,100,120.0
633,E4,215.5,0.5,50,120.0
634,F#2,215.5,0.5,25,120.0
635,A4,216.0,1.0,100,120.0
636,E4,216.0,0.5,50,120.0
637,A4,216.0,1.0,100,120.0
638,F2,216.0,0.5,25,120.0
639,E4,216.0,4.0,70,120.0
640,A3,216.0,4.0,70,120.0
641,C#4,216.0,4.0,70,120.0
642,E4,216.5,1.0,50,120.0
643,F#2,216.5,0.5,25,120.0
644,F2,216.5,0.5,25,120.0
645,G#4,217.0,1.0,100,120.0
646,G#4,217.0,1.0,100,120.0
647,E4,217.5,1.0,50,120.0
648,F#2,217.5,0.5,25,120.0
649,E4,218.0,1.0,100,120.0
650,E4,218.0,1.0,100,120.0
651,E4,218.5,1.0,50,120.0
652,F#2,218.5,0.5,25,120.0
653,G#4,219.0,1.0,100,120.0
654,G#4,219.0,1.0,100,120.0
655,E4,219.5,0.5,50,120.0
656,F#2,219.5,0.5,25,120.0
657,F#4,220.0,1.0,100,120.0
658,E4,220.0,0.5,50,120.0
659,F#4,220.0,2.0,100,120.0
660,F2,220.0,0.5,25,120.0
661,B3,220.0,4.0,50,120.0
662,G#3,220.0,4.0,50,120.0
663,E3,220.0,4.0,50,120.0
664,E4,220.5,1.0,50,120.0
665,F#2,220.5,0.5,25,120.0
666,F2,220.5,0.5,25,120.0
667,F#4,221.0,1.0,100,120.0
668,E4,221.5,1.0,50,120.0
669,F#2,221.5,0.5,25,120.0
670,F#4,222.0,1.0,100,120.0
671,E4,222.5,1.0,50,120.0
672,F#2,222.5,0.5,25,120.0
673,B3,223.0,1.0,100,120.0
674,E4,223.5,0.5,50,120.0
675,F#2,223.5,0.5,25,120.0
676,B4,224.0,1.0,100,120.0
677,E4,224.0,0.5,50,120.0
678,B4,224.0,1.0,100,120.0
679,F2,224.0,0.5,25,120.0
680,E4,224.5,1.0,50,120.0
681,F#2,224.5,0.5,25,120.0
682,F2,224.5,0.5,25,120.0
683,A4,225.0,1.0,100,120.0
684,A4,225.0,1.0,100,120.0
685,E4,225.5,1.0,50,120.0
686,F#2,225.5,0.5,25,120.0
687,G#4,226.0,1.0,100,120.0
688,G#4,226.0,1.0,100,120.0
689,E4,226.5,1.0,50,120.0
690,F#2,226.5,0.5,25,120.0
691,B3,227.0,1.0,100,120.0
692,B3,227.0,1.0,100,120.0
693,E4,227.5,0.5,50,120.0
694,F#2,227.5,0.5,25,120.0
695,B4,228.0,1.0,100,120.0
696,E4,228.0,0.5,50,120.0
697,B4,228.0,1.0,100,120.0
698,F2,228.0,0.5,25,120.0
699,E4,228.5,1.0,50,120.0
700,F#2,228.5,0.5,25,120.0
701,F2,228.5,0.5,25,120.0
702,A4,229.0,1.0,100,120.0
703,A4,229.0,2.0,100,120.0
704,E4,229.5,1.0,50,120.0
705,F#2,229.5,0.5,25,120.0
706,A4,230.0,1.0,100,120.0
707,E4,230.5,1.0,50,120.0
708,F#2,230.5,0.5,25,120.0
709,A4,231.0,1.0,100,120.0
710,E4,231.5,0.5,50,120.0
711,F#2,231.5,0.5,25,120.0
712,C#5,232.0,1.0,100,120.0
713,E4,232.0,0.5,50,120.0
714,C#5,232.0,1.0,100,120.0
715,F2,232.0,0.5,25,120.0
716,B3,232.0,4.0,50,120.0
717,G#3,232.0,4.0,50,120.0
718,E3,232.0,4.0,50,120.0
719,E4,232.5,1.0,50,120.0
720,F#2,232.5,0.5,25,120.0
721,F2,232.5,0.5,25,120.0
722,B4,233.0,1.0,100,120.0
723,B4,233.0,1.0,100,120.0
724,E4,233.5,1.0,50,120.0
725,F#2,233.5,0.5,25,120.0
726,G#4,234.0,1.0,100,120.0
727,G#4,234.0,1.0,100,120.0
728,E4,234.5,1.0,50,120.0
729,F#2,234.5,0.5,25,120.0
730,A4,235.0,1.0,100,120.0
731,A4,235.0,1.0,100,120.0
732,E4,235.5,0.5,50,120.0
733,F#2,235.5,0.5,25,120.0
734,F#4,236.0,1.0,100,120.0
735,E4,236.0,0.5,50,120.0
736,F#4,236.0,2.0,100,120.0
737,F2,236.0,0.5,25,120.0
738,E4,236.5,1.0,50,120.0
739,F#2,236.5,0.5,25,120.0
740,F2,236.5,0.5,25,120.0
741,F#4,237.0,1.0,100,120.0
742,E4,237.5,1.0,50,120.0
743,F#2,237.5,0.5,25,120.0
744,F#4,238.0,1.0,100,120.0
745,E4,238.5,1.0,50,120.0
746,F#2,238.5,0.5,25,120.0
747,E4,239.5,0.5,50,120.0
748,F#2,239.5,0.5,25,120.0
749,E-4,240.0,1.0,100,120.0
750,E4,240.0,0.5,50,120.0
751,E-4,240.0,1.0,100,120.0
752,F2,240.0,0.5,25,120.0
753,B3,240.0,4.0,50,120.0
754,G#3,240.0,4.0,50,120.0
755,E3,240.0,4.0,50,120.0
756,E4,240.5,1.0,50,120.0
757,F#2,240.5,0.5,25,120.0
758,F2,240.5,0.5,25,120.0
759,E4,241.0,1.0,100,120.0
760,E4,241.0,1.0,100,120.0
761,E4,241.5,1.0,50,120.0
762,F#2,241.5,0.5,25,120.0
763,F#4,242.0,1.0,100,120.0
764,F#4,242.0,1.0,100,120.0
765,E4,242.5,1.0,50,120.0
766,F#2,242.5,0.5,25,120.0
767,G#4,243.0,1.0,100,120.0
768,G#4,243.0,1.0,100,120.0
769,E4,243.5,0.5,50,120.0
770,F#2,243.5,0.5,25,120.0
771,A4,244.0,1.0,100,120.0
772,E4,244.0,0.5,50,120.0
773,A4,244.0,2.0,100,120.0
774,F2,244.0,0.5,25,120.0
775,E4,244.5,1.0,50,120.0
776,F#2,244.5,0.5,25,120.0
777,F2,244.5,0.5,25,120.0
778,A4,245.0,1.0,100,120.0
779,E4,245.5,1.0,50,120.0
780,F#2,245.5,0.5,25,120.0
781,A4,246.0,1.0,100,120.0
782,E4,246.5,1.0,50,120.0
783,F#2,246.5,0.5,25,120.0
784,A4,247.0,1.0,100,120.0
785,E4,247.5,0.5,50,120.0
786,F#2,247.5,0.5,25,120.0
787,F#4,248.0,1.0,100,120.0
788,E4,248.0,0.5,50,120.0
789,F#4,248.0,1.0,100,120.0
790,F2,248.0,0.5,25,120.0
791,E4,248.5,1.0,50,120.0
792,F#2,248.5,0.5,25,120.0
793,F2,248.5,0.5,25,120.0
794,A4,249.0,1.0,100,120.0
795,A4,249.0,1.0,100,120.0
796,E4,249.5,1.0,50,120.0
797,F#2,249.5,0.5,25,120.0
798,G#4,250.0,1.0,100,120.0
799,G#4,250.0,1.0,100,120.0
800,E4,250.5,1.0,50,120.0
801,F#2,250.5,0.5,25,120.0
802,F#4,251.0,1.0,100,120.0
803,F#4,251.0,1.0,100,120.0
804,E4,251.5,0.5,50,120.0
805,F#2,251.5,0.5,25,120.0
806,E4,252.0,1.0,100,120.0
807,E4,252.0,0.5,50,120.0
808,E4,252.0,2.0,100,120.0
809,F2,252.0,0.5,25,120.0
810,F#2,252.5,0.5,25,120.0
811,F2,252.5,0.5,25,120.0
812,E4,253.0,1.0,50,120.0
813,F#2,253.5,0.5,25,120.0
814,E4,254.0,1.0,50,120.0
815,F#2,254.5,0.5,25,120.0
816,E4,255.0,1.0,50,120.0
817,F#2,255.5,0.5,25,120.0
818,B4,256.0,1.0,100,120.0
819,B4,256.0,1.0,100,120.0
820,B-4,256.0,0.5,90,120.0
821,B1,256.0,0.5,90,120.0
822,E4,256.5,1.0,60,120.0
823,B-4,256.5,0.5,93,120.0
824,B1,256.5,0.5,93,120.0
825,F3,256.5,0.5,93,120.0
826,B4,257.0,1.0,100,120.0
827,B4,257.0,1.0,100,120.0
828,E4,257.5,1.0,60,120.0
829,F#2,257.5,0.5,100,120.0
830,G#4,258.0,1.0,100,120.0
831,G#4,258.0,1.0,100,120.0
832,B-4,258.0,0.5,80,120.0
833,E4,258.5,1.0,60,120.0
834,B-4,258.5,0.5,90,120.0
835,F3,258.5,0.5,90,120.0
836,G#4,259.0,1.0,100,120.0
837,G#4,259.0,1.0,100,120.0
838,C#3,259.0,1.0,100,120.0
839,E4,259.5,0.5,60,120.0
840,F#2,259.5,0.5,100,120.0
841,B4,260.0,1.0,100,120.0
842,E4,260.0,0.5,60,120.0
843,B4,260.0,1.0,100,120.0
844,C#3,260.0,4.0,100,120.0
845,B-4,260.0,0.5,90,120.0
846,B1,260.0,0.5,90,120.0
847,E4,260.5,1.0,60,120.0
848,B-4,260.5,0.5,90,120.0
849,F3,260.5,0.5,90,120.0
850,B4,261.0,1.0,100,120.0
851,B4,261.0,1.0,100,120.0
852,E4,261.5,1.0,60,120.0
853,F#2,261.5,0.5,100,120.0
854,E2,261.5,0.5,100,120.0
855,B-4,262.0,0.5,80,120.0
856,E4,262.5,1.0,60,120.0
857,B-4,262.5,0.5,90,120.0
858,F3,262.5,0.5,90,120.0
859,E4,263.5,0.5,60,120.0
860,F#2,263.5,0.5,100,120.0
861,B4,264.0,1.0,100,120.0
862,E4,264.0,0.5,60,120.0
863,B4,264.0,1.0,100,120.0
864,C#3,264.0,3.0,100,120.0
865,B-4,264.0,0.5,90,120.0
866,B1,264.0,0.5,90,120.0
867,E4,264.5,1.0,60,120.0
868,B-4,264.5,0.5,93,120.0
869,B1,264.5,0.5,93,120.0
870,F3,264.5,0.5,93,120.0
871,B4,265.0,1.0,100,120.0
872,B4,265.0,1.0,100,120.0
873,E4,265.5,1.0,60,120.0
874,F#2,265.5,0.5,100,120.0
875,G#4,266.0,1.0,100,120.0
876,G#4,266.0,1.0,100,120.0
877,B-4,266.0,0.5,80,120.0
878,E4,266.5,1.0,60,120.0
879,B-4,266.5,0.5,90,120.0
880,F3,266.5,0.5,90,120.0
881,G#4,267.0,1.0,100,120.0
882,G#4,267.0,1.0,100,120.0
883,E-3,267.0,1.0,100,120.0
884,E4,267.5,0.5,60,120.0
885,F#2,267.5,0.5,100,120.0
886,B4,268.0,1.0,100,120.0
887,E4,268.0,0.5,60,120.0
888,B4,268.0,1.0,100,120.0
889,E-3,268.0,4.0,100,120.0
890,B-4,268.0,0.5,90,120.0
891,B1,268.0,0.5,90,120.0
892,E4,268.5,1.0,60,120.0
893,B-4,268.5,0.5,90,120.0
894,F3,268.5,0.5,90,120.0
895,B4,269.0,1.0,100,120.0
896,B4,269.0,1.0,100,120.0
897,E4,269.5,1.0,60,120.0
898,F#2,269.5,0.5,100,120.0
899,E2,269.5,0.5,100,120.0
900,B-4,270.0,0.5,80,120.0
901,E4,270.5,1.0,60,120.0
902,B-4,270.5,0.5,90,120.0
903,F3,270.5,0.5,90,120.0
904,E4,271.5,0.5,60,120.0
905,F#2,271.5,0.5,100,120.0
906,B4,272.0,1.0,100,120.0
907,E4,272.0,0.5,60,120.0
908,B4,272.0,1.0,100,120.0
909,E-3,272.0,3.0,100,120.0
910,B-4,272.0,0.5,90,120.0
911,B1,272.0,0.5,90,120.0
912,E4,272.5,1.0,60,120.0
913,B-4,272.5,0.5,93,120.0
914,B1,272.5,0.5,93,120.0
915,F3,272.5,0.5,93,120.0
916,B4,273.0,1.0,100,120.0
917,B4,273.0,1.0,100,120.0
918,E4,273.5,1.0,60,120.0
919,F#2,273.5,0.5,100,120.0
920,A4,274.0,1.0,100,120.0
921,A4,274.0,1.0,100,120.0
922,B-4,274.0,0.5,80,120.0
923,E4,274.5,1.0,60,120.0
924,B-4,274.5,0.5,90,120.0
925,F3,274.5,0.5,90,120.0
926,C#5,275.0,1.0,100,120.0
927,C#5,275.0,1.0,100,120.0
928,A2,275.0,1.0,100,120.0
929,C#4,275.0,1.0,70,120.0
930,E3,275.0,1.0,70,120.0
931,A3,275.0,1.0,70,120.0
932,E4,275.5,0.5,60,120.0
933,F#2,275.5,0.5,100,120.0
934,A4,276.0,1.0,100,120.0
935,E4,276.0,0.5,60,120.0
936,A4,276.0,1.0,100,120.0
937,A2,276.0,4.0,100,120.0
938,B-4,276.0,0.5,90,120.0
939,B1,276.0,0.5,90,120.0
940,C#4,276.0,4.0,70,120.0
941,E3,276.0,4.0,70,120.0
942,A3,276.0,4.0,70,120.0
943,E4,276.5,1.0,60,120.0
944,B-4,276.5,0.5,90,120.0
945,F3,276.5,0.5,90,120.0
946,A4,277.0,1.0,100,120.0
947,A4,277.0,1.0,100,120.0
948,E4,277.5,1.0,60,120.0
949,F#2,277.5,0.5,100,120.0
950,E2,277.5,0.5,100,120.0
951,B-4,278.0,0.5,80,120.0
952,E4,278.5,1.0,60,120.0
953,B-4,278.5,0.5,90,120.0
954,F3,278.5,0.5,90,120.0
955,E4,279.5,0.5,60,120.0
956,F#2,279.5,0.5,100,120.0
957,C#5,280.0,1.0,100,120.0
958,E4,280.0,0.5,60,120.0
959,C#5,280.0,1.0,100,120.0
960,A2,280.0,3.0,100,120.0
961,B-4,280.0,0.5,90,120.0
962,B1,280.0,0.5,90,120.0
963,E4,280.5,1.0,60,120.0
964,B-4,280.5,0.5,93,120.0
965,B1,280.5,0.5,93,120.0
966,F3,280.5,0.5,93,120.0
967,C#5,281.0,1.0,100,120.0
968,C#5,281.0,1.0,100,120.0
969,E4,281.5,1.0,60,120.0
970,F#2,281.5,0.5,100,120.0
971,B4,282.0,1.0,100,120.0
972,B4,282.0,1.0,100,120.0
973,B-4,282.0,0.5,80,120.0
974,E4,282.5,1.0,60,120.0
975,B-4,282.5,0.5,90,120.0
976,F3,282.5,0.5,90,120.0
977,A4,283.0,1.0,100,120.0
978,A4,283.0,1.0,100,120.0
979,E2,283.0,1.0,100,120.0
980,C#4,283.0,3.0,70,120.0
981,E3,283.0,3.0,70,120.0
982,A3,283.0,3.0,70,120.0
983,E4,283.5,0.5,60,120.0
984,F#2,283.5,0.5,100,120.0
985,G#4,284.0,1.0,100,120.0
986,E4,284.0,0.5,60,120.0
987,G#4,284.0,1.0,100,120.0
988,E2,284.0,4.0,100,120.0
989,B-4,284.0,0.5,90,120.0
990,B1,284.0,0.5,90,120.0
991,E4,284.5,1.0,60,120.0
992,B-4,284.5,0.5,90,120.0
993,F3,284.5,0.5,90,120.0
994,B4,285.0,1.0,100,120.0
995,B4,285.0,2.0,100,120.0
996,E4,285.5,1.0,60,120.0
997,F#2,285.5,0.5,100,120.0
998,E2,285.5,0.5,100,120.0
999,B4,286.0,1.0,100,120.0
1000,B-4,286.0,0.5,80,120.0
1001,G#3,286.0,1.0,70,120.0
1002,B3,286.0,1.0,70,120.0
1003,E3,286.0,1.0,70,120.0
1004,E4,286.5,1.0,60,120.0
1005,B-4,286.5,0.5,90,120.0
1006,F3,286.5,0.5,90,120.0
1007,E4,287.5,0.5,60,120.0
1008,F#2,287.5,0.5,100,120.0
1009,A4,288.0,1.0,100,120.0
1010,E4,288.0,0.5,60,120.0
1011,A4,288.0,1.0,100,120.0
1012,E2,288.0,1.0,100,120.0
1013,E4,288.0,4.0,70,120.0
1014,A3,288.0,4.0,70,120.0
1015,C#4,288.0,4.0,70,120.0
1016,B-4,288.0,0.5,90,120.0
1017,B1,288.0,0.5,90,120.0
1018,E4,288.5,1.0,60,120.0
1019,B-4,288.5,0.5,93,120.0
1020,B1,288.5,0.5,93,120.0
1021,F3,288.5,0.5,93,120.0
1022,A4,289.0,1.0,100,120.0
1023,A4,289.0,1.0,100,120.0
1024,C#3,289.0,2.0,100,120.0
1025,E4,289.5,1.0,60,120.0
1026,F#2,289.5,0.5,100,120.0
1027,G#4,290.0,1.0,100,120.0
1028,G#4,290.0,1.0,100,120.0
1029,B-4,290.0,0.5,80,120.0
1030,E4,290.5,1.0,60,120.0
1031,B-4,290.5,0.5,90,120.0
1032,F3,290.5,0.5,90,120.0
1033,G#4,291.0,1.0,100,120.0
1034,G#4,291.0,1.0,100,120.0
1035,B2,291.0,1.0,100,120.0
1036,E4,291.5,0.5,60,120.0
1037,F#2,291.5,0.5,100,120.0
1038,F#4,292.0,1.0,100,120.0
1039,E4,292.0,0.5,60,120.0
1040,F#4,292.0,1.0,100,120.0
1041,B2,292.0,4.0,100,120.0
1042,B-4,292.0,0.5,90,120.0
1043,B1,292.0,0.5,90,120.0
1044,G#3,292.0,4.0,70,120.0
1045,B3,292.0,4.0,70,120.0
1046,E3,292.0,4.0,70,120.0
1047,E4,292.5,1.0,60,120.0
1048,B-4,292.5,0.5,90,120.0
1049,F3,292.5,0.5,90,120.0
1050,F#4,293.0,1.0,100,120.0
1051,F#4,293.0,2.0,100,120.0
1052,E4,293.5,1.0,60,120.0
1053,F#2,293.5,0.5,100,120.0
1054,E2,293.5,0.5,100,120.0
1055,F#4,294.0,1.0,100,120.0
1056,B-4,294.0,0.5,80,120.0
1057,E4,294.5,1.0,60,120.0
1058,B-4,294.5,0.5,90,120.0
1059,F3,294.5,0.5,90,120.0
1060,E4,295.5,0.5,60,120.0
1061,F#2,295.5,0.5,100,120.0
1062,A4,296.0,1.0,100,120.0
1063,E4,296.0,0.5,60,120.0
1064,A4,296.0,1.0,100,120.0
1065,B2,296.0,1.0,100,120.0
1066,E4,296.0,4.0,70,120.0
1067,A3,296.0,4.0,70,120.0
1068,C#4,296.0,4.0,70,120.0
1069,B-4,296.0,0.5,90,120.0
1070,B1,296.0,0.5,90,120.0
1071,E4,296.5,1.0,60,120.0
1072,B-4,296.5,0.5,93,120.0
1073,B1,296.5,0.5,93,120.0
1074,F3,296.5,0.5,93,120.0
1075,A4,297.0,1.0,100,120.0
1076,A4,297.0,1.0,100,120.0
1077,C#3,297.0,2.0,100,120.0
1078,G#3,297.0,1.0,70,120.0
1079,B3,297.0,1.0,70,120.0
1080,E3,297.0,1.0,70,120.0
1081,E4,297.5,1.0,60,120.0
1082,F#2,297.5,0.5,100,120.0
1083,G#4,298.0,1.0,100,120.0
1084,G#4,298.0,1.0,100,120.0
1085,B-4,298.0,0.5,80,120.0
1086,B3,298.0,2.0,70,120.0
1087,F#3,298.0,2.0,70,120.0
1088,E4,298.5,1.0,60,120.0
1089,B-4,298.5,0.5,90,120.0
1090,F3,298.5,0.5,90,120.0
1091,G#4,299.0,1.0,100,120.0
1092,G#4,299.0,1.0,100,120.0
1093,B2,299.0,1.0,100,120.0
1094,E4,299.5,0.5,60,120.0
1095,F#2,299.5,0.5,100,120.0
1096,F#4,300.0,1.0,100,120.0
1097,E4,300.0,0.5,60,120.0
1098,F#4,300.0,2.0,100,120.0
1099,B2,300.0,4.0,100,120.0
1100,B3,300.0,4.0,50,120.0
1101,G#3,300.0,4.0,50,120.0
1102,E3,300.0,4.0,50,120.0
1103,B-4,300.0,0.5,90,120.0
1104,B1,300.0,0.5,90,120.0
1105,B3,300.0,1.0,70,120.0
1106,F#3,300.0,1.0,70,120.0
1107,E4,300.5,1.0,60,120.0
1108,B-4,300.5,0.5,90,120.0
1109,F3,300.5,0.5,90,120.0
1110,F#4,301.0,1.0,100,120.0
1111,E4,301.5,1.0,60,120.0
1112,F#2,301.5,0.5,100,120.0
1113,E2,301.5,0.5,100,120.0
1114,B-4,302.0,0.5,80,120.0
1115,E4,302.5,1.0,60,120.0
1116,B-4,302.5,0.5,90,120.0
1117,F3,302.5,0.5,90,120.0
1118,E4,303.5,0.5,60,120.0
1119,F#2,303.5,0.5,100,120.0
1120,A4,304.0,1.0,100,120.0
1121,E4,304.0,0.5,60,120.0
1122,A4,304.0,1.0,100,120.0
1123,B2,304.0,1.0,100,120.0
1124,B-4,304.0,0.5,90,120.0
1125,B1,304.0,0.5,90,120.0
1126,E4,304.5,1.0,60,120.0
1127,B-4,304.5,0.5,93,120.0
1128,B1,304.5,0.5,93,120.0
1129,F3,304.5,0.5,93,120.0
1130,A4,305.0,1.0,100,120.0
1131,A4,305.0,1.0,100,120.0
1132,C#3,305.0,2.0,100,120.0
1133,E4,305.5,1.0,60,120.0
1134,F#2,305.5,0.5,100,120.0
1135,G#4,306.0,1.0,100,120.0
1136,G#4,306.0,1.0,100,120.0
1137,B-4,306.0,0.5,80,120.0
1138,B3,306.0,4.0,70,120.0
1139,F#3,306.0,4.0,70,120.0
1140,E4,306.5,1.0,60,120.0
1141,B-4,306.5,0.5,90,120.0
1142,F3,306.5,0.5,90,120.0
1143,G#4,307.0,1.0,100,120.0
1144,G#4,307.0,1.0,100,120.0
1145,A2,307.0,1.0,100,120.0
1146,E4,307.5,0.5,60,120.0
1147,F#2,307.5,0.5,100,120.0
1148,E4,308.0,1.0,60,120.0
1149,E4,308.0,0.5,60,120.0
1150,E4,308.0,1.0,100,120.0
1151,A2,308.0,4.0,100,120.0
1152,A4,308.0,1.0,100,120.0
1153,B-4,308.0,0.5,90,120.0
1154,B1,308.0,0.5,90,120.0
1155,E4,308.5,1.0,60,120.0
1156,G#4,308.5,1.0,100,120.0
1157,B-4,308.5,0.5,90,120.0
1158,F3,308.5,0.5,90,120.0
1159,E4,309.0,1.0,60,120.0
1160,E4,309.0,1.0,100,120.0
1161,E4,309.0,1.0,100,120.0
1162,E4,309.5,1.0,60,120.0
1163,A4,309.5,1.0,100,120.0
1164,F#2,309.5,0.5,100,120.0
1165,E2,309.5,0.5,100,120.0
1166,B-4,310.0,0.5,80,120.0
1167,E4,310.5,1.0,60,120.0
1168,G#4,310.5,1.0,100,120.0
1169,B-4,310.5,0.5,90,120.0
1170,F3,310.5,0.5,90,120.0
1171,B3,311.0,1.0,70,120.0
1172,F#3,311.0,1.0,70,120.0
1173,E4,311.5,0.5,60,120.0
1174,F#2,311.5,0.5,100,120.0
1175,E4,311.5,0.5,100,120.0
1176,A4,312.0,1.0,100,120.0
1177,E4,312.0,0.5,60,120.0
1178,A4,312.0,1.0,100,120.0
1179,A2,312.0,1.0,100,120.0
1180,E4,312.0,2.75,100,120.0
1181,B3,312.0,4.0,50,120.0
1182,G#3,312.0,4.0,50,120.0
1183,E3,312.0,4.0,50,120.0
1184,B-4,312.0,0.5,90,120.0
1185,B1,312.0,0.5,90,120.0
1186,F#3,312.0,2.0,70,120.0
1187,B3,312.0,2.0,70,120.0
1188,E4,312.5,1.0,60,120.0
1189,B-4,312.5,0.5,93,120.0
1190,B1,312.5,0.5,93,120.0
1191,F3,312.5,0.5,93,120.0
1192,A4,313.0,1.0,100,120.0
1193,A4,313.0,1.0,100,120.0
1194,B2,313.0,2.0,100,120.0
1195,E4,313.5,1.0,60,120.0
1196,F#2,313.5,0.5,100,120.0
1197,G#4,314.0,1.0,100,120.0
1198,G#4,314.0,1.0,100,120.0
1199,B-4,314.0,0.5,80,120.0
1200,F#3,314.0,1.0,70,120.0
1201,B3,314.0,1.0,70,120.0
1202,E4,314.5,1.0,60,120.0
1203,B-4,314.5,0.5,90,120.0
1204,F3,314.5,0.5,90,120.0
1205,F#4,315.0,1.0,100,120.0
1206,F#4,315.0,1.0,100,120.0
1207,A2,315.0,1.0,100,120.0
1208,E4,315.5,0.5,60,120.0
1209,F#2,315.5,0.5,100,120.0
1210,E4,316.0,1.0,60,120.0
1211,E4,316.0,0.5,60,120.0
1212,E4,316.0,2.0,100,120.0
1213,A2,316.0,4.0,100,120.0
1214,B-4,316.0,0.5,90,120.0
1215,B1,316.0,0.5,90,120.0
1216,E4,316.5,1.0,60,120.0
1217,B-4,316.5,0.5,90,120.0
1218,F3,316.5,0.5,90,120.0
1219,E4,317.0,1.0,60,120.0
1220,E4,317.5,1.0,60,120.0
1221,F#2,317.5,0.5,100,120.0
1222,E2,317.5,0.5,100,120.0
1223,B-4,318.0,0.5,80,120.0
1224,E4,318.5,1.0,60,120.0
1225,B-4,318.5,0.5,90,120.0
1226,F3,318.5,0.5,90,120.0
1227,E4,319.5,0.5,60,120.0
1228,F#2,319.5,0.5,100,120.0
1229,E4,320.0,1.0,60,120.0
1230,E4,320.0,0.5,60,120.0
1231,E4,320.0,1.0,100,120.0
1232,A2,320.0,1.0,100,120.0
1233,G#3,320.0,4.0,75,120.0
1234,B3,320.0,4.0,75,120.0
1235,E4,320.0,4.0,75,120.0
1236,B3,320.0,4.0,50,120.0
1237,G#3,320.0,4.0,50,120.0
1238,E3,320.0,4.0,50,120.0
1239,B1,320.5,0.5,100,120.0
1240,F#2,320.5,0.5,100,120.0
1241,F#4,321.0,1.0,100,120.0
1242,F#4,321.0,1.0,100,120.0
1243,B2,321.0,2.0,100,120.0
1244,E4,321.5,1.0,100,120.0
1245,F#2,321.5,0.5,100,120.0
1246,G#4,322.0,1.0,100,120.0
1247,G#4,322.0,1.0,100,120.0
1248,F#3,322.0,4.0,70,120.0
1249,B3,322.0,4.0,70,120.0
1250,E4,322.5,1.0,100,120.0
1251,F#2,322.5,0.5,100,120.0
1252,F#4,323.0,1.0,100,120.0
1253,F#4,323.0,1.0,100,120.0
1254,E2,323.0,1.0,100,120.0
1255,E4,323.5,0.5,100,120.0
1256,F#2,323.5,0.5,100,120.0
1257,E4,324.0,1.0,60,120.0
1258,E4,324.0,0.5,100,120.0
1259,E4,324.0,2.0,100,120.0
1260,E2,324.0,4.0,100,120.0
1261,B1,324.0,0.5,100,120.0
1262,B1,324.5,0.5,100,120.0
1263,F#2,324.5,0.5,100,120.0
1264,E4,325.0,1.0,60,120.0
1265,F#2,325.5,0.5,100,120.0
1266,E4,326.0,1.0,60,120.0
1267,F#2,326.5,0.5,100,120.0
1268,E4,327.0,1.0,60,120.0
1269,F#2,327.5,0.5,100,120.0
1270,E4,328.0,1.0,100,120.0
1271,E2,328.0,1.0,100,120.0
1272,F#2,328.5,0.5,100,120.0
1273,B1,328.5,0.5,100,120.0
1274,F#4,329.0,1.0,100,120.0
1275,F#2,329.0,1.0,100,120.0
1276,F#3,329.0,3.0,70,120.0
1277,B3,329.0,3.0,70,120.0
1278,E4,329.5,1.0,100,120.0
1279,F#2,329.5,0.5,100,120.0
1280,G#4,330.0,1.0,100,120.0
1281,G#2,330.0,1.0,100,120.0
1282,E4,330.5,1.0,100,120.0
1283,F#2,330.5,0.5,100,120.0
1284,F#4,331.0,1.0,100,120.0
1285,B2,331.0,1.0,100,120.0
1286,E4,331.5,0.5,100,120.0
1287,F#2,331.5,0.5,100,120.0
1288,E4,332.0,1.0,100,120.0
1289,E4,332.0,0.5,100,120.0
1290,E2,332.0,4.0,100,120.0
1291,B1,332.0,0.5,100,120.0
1292,F#4,332.0,1.0,100,120.0
1293,C#4,332.0,1.0,70,120.0
1294,E3,332.0,1.0,70,120.0
1295,A3,332.0,1.0,70,120.0
1296,B3,332.5,1.0,100,120.0
1297,B1,332.5,0.5,100,120.0
1298,F#2,332.5,0.5,100,120.0
1299,G#3,333.0,1.0,100,120.0
1300,E4,333.5,1.0,75,120.0
1301,F#2,333.5,0.5,100,120.0
1302,E4,333.5,1.0,100,120.0
1303,B3,334.0,1.0,100,120.0
1304,E4,334.5,1.0,62,120.0
1305,F#2,334.5,0.5,100,120.0
1306,G#3,334.5,1.0,100,120.0
1307,F#4,335.0,1.0,100,120.0
1308,E4,335.5,0.5,49,120.0
1309,F#2,335.5,0.5,100,120.0
1310,B3,335.5,0.5,100,120.0
1311,E4,336.0,1.0,100,120.0
1312,E4,336.0,0.5,49,120.0
1313,E2,336.0,4.0,100,120.0
1314,G#3,336.0,1.0,100,120.0
1315,B3,336.0,0.5,100,120.0
1316,E4,336.5,1.0,36,120.0
1317,F#2,336.5,0.5,100,120.0
1318,E4,336.5,1.0,100,120.0
1319,F#4,337.0,1.0,100,120.0
1320,B3,337.0,1.0,100,120.0
1321,E4,337.5,1.0,23,120.0
1322,F#2,337.5,0.5,100,120.0
1323,G#3,337.5,1.0,100,120.0
1324,G#4,338.0,1.0,100,120.0
1325,F#4,338.0,1.0,100,120.0
1326,E4,338.5,1.0,10,120.0
1327,F#2,338.5,0.5,100,120.0
1328,B3,338.5,1.0,100,120.0
1329,E4,339.0,1.0,100,120.0
1330,G#3,339.0,1.0,100,120.0
1331,F#2,339.5,0.5,100,120.0
1332,E4,339.5,0.5,100,120.0
1333,B1,340.0,0.5,100,120.0
1334,B3,340.0,1.0,100,120.0
1335,E4,340.0,0.5,100,120.0
1336,G#3,340.0,4.0,75,120.0
1337,B3,340.0,4.0,75,120.0
1338,E4,340.0,4.0,75,120.0
1339,G#3,340.5,1.0,100,120.0
1340,B1,340.5,0.5,100,120.0
1341,F#2,340.5,0.5,100,120.0
1342,F#4,341.0,1.0,100,120.0
1343,F#2,341.5,0.5,100,120.0
1344,B3,341.5,1.0,100,120.0
1345,G#3,342.0,1.0,100,120.0
1346,F#2,342.5,0.5,100,120.0
1347,E4,342.5,1.0,100,120.0
1348,B3,343.0,1.0,100,120.0
1349,F#2,343.5,0.5,100,120.0
1350,G#3,343.5,0.5,100,120.0
1351,E4,344.0,1.0,100,120.0
1352,E2,344.0,1.0,100,120.0
1353,F#4,344.0,1.0,100,120.0
1354,G#3,344.0,0.5,100,120.0
1355,F#2,344.5,0.5,100,120.0
1356,B3,344.5,1.0,100,120.0
1357,F#4,345.0,1.0,100,120.0
1358,F#2,345.0,1.0,100,120.0
1359,G#3,345.0,1.0,100,120.0
1360,C#4,345.0,4.0,70,120.0
1361,E3,345.0,4.0,70,120.0
1362,A3,345.0,4.0,70,120.0
1363,F#2,345.5,0.5,100,120.0
1364,E4,345.5,1.0,100,120.0
1365,G#4,346.0,1.0,100,120.0
1366,G#2,346.0,1.0,100,120.0
1367,B3,346.0,1.0,100,120.0
1368,F#2,346.5,0.5,100,120.0
1369,G#3,346.5,1.0,100,120.0
1370,E4,347.0,1.0,100,120.0
1371,E2,347.0,1.0,100,120.0
1372,F#4,347.0,1.0,100,120.0
1373,F#2,347.5,0.5,100,120.0
1374,B3,347.5,0.5,100,120.0
1375,E2,348.0,4.0,100,120.0
1376,B1,348.0,0.5,100,120.0
1377,G#3,348.0,1.0,100,120.0
1378,B3,348.0,0.5,100,120.0
1379,E4,348.5,1.0,100,120.0
1380,B1,348.5,0.5,100,120.0
1381,F#2,348.5,0.5,100,120.0
1382,B3,349.0,1.0,100,120.0
1383,F#2,349.5,0.5,100,120.0
1384,G#3,349.5,1.0,100,120.0
1385,F#4,350.0,1.0,100,120.0
1386,F#2,350.5,0.5,100,120.0
1387,B3,350.5,1.0,100,120.0
1388,G#3,351.0,1.0,100,120.0
1389,E4,351.5,0.5,100,120.0
1390,D3,351.5,0.5,100,120.0
1391,F#2,351.5,0.5,100,120.0
1392,E4,352.0,1.0,100,120.0
1393,B3,352.0,1.0,100,120.0
1394,E4,352.0,0.5,100,120.0
1395,B1,352.0,0.5,100,120.0
1396,A3,352.0,0.5,100,120.0
1397,F#2,352.5,0.5,100,120.0
1398,G#3,352.5,1.0,100,120.0
1399,F#4,353.0,1.0,100,120.0
1400,F#4,353.0,1.0,100,120.0
1401,F#2,353.5,0.5,100,120.0
1402,B3,353.5,1.0,100,120.0
1403,G#4,354.0,1.0,100,120.0
1404,G#3,354.0,1.0,100,120.0
1405,F#2,354.5,0.5,100,120.0
1406,E4,354.5,1.0,100,120.0
1407,E4,355.0,1.0,100,120.0
1408,E3,355.0,1.0,100,120.0
1409,B3,355.0,1.0,100,120.0
1410,F#2,355.5,0.5,100,120.0
1411,G#3,355.5,0.5,100,120.0
1412,B3,356.0,0.5,100,120.0
1413,E3,356.0,4.0,100,120.0
1414,B1,356.0,0.5,100,120.0
1415,F#4,356.0,1.0,100,120.0
1416,G#3,356.0,0.5,100,120.0
1417,G#3,356.0,4.0,75,120.0
1418,B3,356.0,4.0,75,120.0
1419,E4,356.0,4.0,75,120.0
1420,E4,356.5,1.0,100,120.0
1421,B3,356.5,1.0,100,120.0
1422,B1,356.5,0.5,100,120.0
1423,F#2,356.5,0.5,100,120.0
1424,G#3,357.0,1.0,100,120.0
1425,C#4,357.0,4.0,70,120.0
1426,E3,357.0,4.0,70,120.0
1427,A3,357.0,4.0,70,120.0
1428,B3,357.5,0.5,100,120.0
1429,E4,357.5,1.0,100,120.0
1430,E2,357.5,0.5,100,120.0
1431,F#2,357.5,0.5,100,120.0
1432,E-4,358.0,1.0,100,120.0
1433,B3,358.0,1.0,100,120.0
1434,F#2,358.5,0.5,100,120.0
1435,G#3,358.5,1.0,100,120.0
1436,B3,359.0,0.5,100,120.0
1437,C3,359.0,0.5,100,120.0
1438,F#4,359.0,1.0,100,120.0
1439,C#4,359.5,0.5,100,120.0
1440,F#2,359.5,0.5,100,120.0
1441,B3,359.5,0.5,100,120.0
1442,C#4,360.0,0.5,100,120.0
1443,E3,360.0,1.0,100,120.0
1444,G#3,360.0,1.0,100,120.0
1445,B3,360.0,0.5,100,120.0
1446,B3,360.5,0.5,100,120.0
1447,E4,360.5,1.0,100,120.0
1448,B2,360.5,0.5,100,120.0
1449,F#2,360.5,0.5,100,120.0
1450,B3,361.0,2.0,100,120.0
1451,E3,361.0,1.0,100,120.0
1452,B3,361.0,1.0,100,120.0
1453,F#2,361.5,0.5,100,120.0
1454,G#3,361.5,1.0,100,120.0
1455,F#3,362.0,1.0,100,120.0
1456,F#4,362.0,1.0,100,120.0
1457,F#2,362.5,0.5,100,120.0
1458,B3,362.5,1.0,100,120.0
1459,B2,363.0,1.0,100,120.0
1460,G#3,363.0,1.0,100,120.0
1461,F#2,363.5,0.5,100,120.0
1462,E4,363.5,0.5,100,120.0
1463,B3,364.0,0.5,100,120.0
1464,B2,364.0,4.0,100,120.0
1465,B1,364.0,0.5,100,120.0
1466,B3,364.0,1.0,100,120.0
1467,E4,364.0,0.5,100,120.0
1468,B4,364.0,4.0,100,120.0
1469,G#4,364.0,4.0,100,120.0
1470,E4,364.0,4.0,100,120.0
1471,F#4,364.0,4.0,100,120.0
1472,B3,364.0,4.0,100,120.0
1473,C#4,364.5,1.0,100,120.0
1474,G#3,364.5,1.0,100,120.0
1475,B1,364.5,0.5,100,120.0
1476,F#2,364.5,0.5,100,120.0
1477,F#4,365.0,1.0,100,120.0
1478,C#4,365.0,4.0,70,120.0
1479,E3,365.0,4.0,70,120.0
1480,A3,365.0,4.0,70,120.0
1481,B3,365.5,0.5,100,120.0
1482,B3,365.5,1.0,100,120.0
1483,E2,365.5,0.5,100,120.0
1484,F#2,365.5,0.5,100,120.0
1485,B3,366.0,1.0,100,120.0
1486,G#3,366.0,1.0,100,120.0
1487,F#2,366.5,0.5,100,120.0
1488,E4,366.5,1.0,100,120.0
1489,G#3,367.0,0.5,100,120.0
1490,C3,367.0,0.5,100,120.0
1491,B3,367.0,1.0,100,120.0
1492,G#3,367.5,0.5,100,120.0
1493,G#3,367.5,0.5,100,120.0
1494,C3,367.5,0.5,100,120.0
1495,F#2,367.5,0.5,100,120.0
1496,G#3,368.0,0.5,100,120.0
1497,B2,368.0,1.0,100,120.0
1498,B2,368.0,0.5,100,120.0
1499,F#4,368.0,1.0,100,120.0
1500,G#3,368.0,0.5,100,120.0
1501,G#3,368.0,4.0,75,120.0
1502,B3,368.0,4.0,75,120.0
1503,E4,368.0,4.0,75,120.0
1504,F#3,368.5,0.5,100,120.0
1505,B3,368.5,1.0,100,120.0
1506,A3,368.5,0.5,100,120.0
1507,A2,368.5,0.5,100,120.0
1508,F#2,368.5,0.5,100,120.0
1509,E3,369.0,2.0,100,120.0
1510,B2,369.0,1.0,100,120.0
1511,G#3,369.0,1.0,100,120.0
1512,F#2,369.5,0.5,100,120.0
1513,E4,369.5,1.0,100,120.0
1514,C#3,370.0,1.0,100,120.0
1515,B3,370.0,1.0,100,120.0
1516,F#2,370.5,0.5,100,120.0
1517,G#3,370.5,1.0,100,120.0
1518,A2,371.0,1.0,100,120.0
1519,F#4,371.0,1.0,100,120.0
1520,F#2,371.5,0.5,100,120.0
1521,B3,371.5,0.5,100,120.0
1522,E3,372.0,0.5,100,120.0
1523,A2,372.0,4.0,100,120.0
1524,G#3,372.0,1.0,100,120.0
1525,B3,372.0,0.5,100,120.0
1526,B4,372.0,4.0,100,120.0
1527,F#4,372.0,4.0,100,120.0
1528,E4,372.0,4.0,100,120.0
1529,B3,372.0,4.0,100,120.0
1530,A3,372.0,4.0,100,120.0
1531,B3,372.5,0.75,100,120.0
1532,F#2,372.5,0.5,100,120.0
1533,E4,372.5,1.0,100,120.0
1534,B3,373.0,1.0,100,120.0
1535,B3,373.25,0.5,100,120.0
1536,G#3,373.5,1.0,100,120.0
1537,F#2,373.5,0.5,100,120.0
1538,E3,373.5,0.5,100,120.0
1539,E2,373.5,0.5,100,120.0
1540,B3,373.75,0.75,100,120.0
1541,F#4,374.0,1.0,100,120.0
1542,A3,374.5,0.5,100,120.0
1543,F#2,374.5,0.5,100,120.0
1544,B3,374.5,1.0,100,120.0
1545,A3,375.0,0.5,100,120.0
1546,G#3,375.0,1.0,100,120.0
1547,A3,375.5,0.5,100,120.0
1548,F#2,375.5,0.5,100,120.0
1549,E4,375.5,0.5,100,120.0
1550,E3,376.0,0.5,100,120.0
1551,A2,376.0,1.0,100,120.0
1552,B3,376.0,1.0,100,120.0
1553,E4,376.0,0.5,100,120.0
1554,G#3,376.0,4.0,75,120.0
1555,B3,376.0,4.0,75,120.0
1556,E4,376.0,4.0,75,120.0
1557,F#3,376.5,1.0,100,120.0
1558,G#3,376.5,1.0,100,120.0
1559,F#2,376.5,0.5,100,120.0
1560,B1,376.5,0.5,100,120.0
1561,G3,376.5,0.5,100,120.0
1562,A2,377.0,1.0,100,120.0
1563,F#4,377.0,1.0,100,120.0
1564,F#2,377.5,0.5,100,120.0
1565,B3,377.5,1.0,100,120.0
1566,B2,378.0,1.0,100,120.0
1567,G#3,378.0,1.0,100,120.0
1568,F#2,378.5,0.5,100,120.0
1569,E4,378.5,1.0,100,120.0
1570,A2,379.0,1.0,100,120.0
1571,B3,379.0,1.0,100,120.0
1572,C#4,379.5,0.5,100,120.0
1573,F#2,379.5,0.5,100,120.0
1574,G#3,379.5,0.5,100,120.0
1575,B3,380.0,0.5,100,120.0
1576,A2,380.0,4.0,100,120.0
1577,B1,380.0,0.5,100,120.0
1578,F#4,380.0,1.0,100,120.0
1579,G#3,380.0,0.5,100,120.0
1580,A3,380.0,4.0,100,120.0
1581,B3,380.0,4.0,100,120.0
1582,E4,380.0,4.0,100,120.0
1583,F#4,380.0,4.0,100,120.0
1584,B3,380.5,0.5,100,120.0
1585,B3,380.5,1.0,100,120.0
1586,F#2,380.5,0.5,100,120.0
1587,B1,380.5,0.5,100,120.0
1588,B3,381.0,1.5,100,120.0
1589,G#3,381.0,1.0,100,120.0
1590,E4,381.5,1.0,100,120.0
1591,F#2,381.5,0.5,100,120.0
1592,E2,381.5,0.5,100,120.0
1593,B3,382.0,1.0,100,120.0
1594,A3,382.5,0.5,100,120.0
1595,G#3,382.5,1.0,100,120.0
1596,F#2,382.5,0.5,100,120.0
1597,D3,382.5,0.5,100,120.0
1598,G#3,383.0,1.0,100,120.0
1599,D3,383.0,0.5,100,120.0
1600,F#4,383.0,1.0,100,120.0
1601,B3,383.5,0.5,100,120.0
1602,F#2,383.5,0.5,100,120.0
1603,C3,383.5,0.5,100,120.0
1604,G#3,384.0,0.5,100,120.0
1605,A2,384.0,1.0,100,120.0
1606,G#3,384.0,1.0,100,120.0
1607,B3,384.0,0.5,100,120.0
1608,F#3,384.5,1.0,100,120.0
1609,E4,384.5,1.0,100,120.0
1610,F#2,384.5,0.5,100,120.0
1611,A3,384.5,0.5,100,120.0
1612,G2,384.5,0.5,100,120.0
1613,E3,385.0,1.5,100,120.0
1614,A2,385.0,1.0,100,120.0
1615,B3,385.0,1.0,100,120.0
1616,F#2,385.5,0.5,100,120.0
1617,G#3,385.5,1.0,100,120.0
1618,B2,386.0,2.0,100,120.0
1619,F#4,386.0,1.0,100,120.0
1620,F#2,386.5,0.5,100,120.0
1621,B3,386.5,1.0,100,120.0
1622,E3,387.0,0.5,100,120.0
1623,G#3,387.0,1.0,100,120.0
1624,E4,387.5,0.5,100,120.0
1625,E4,387.5,0.5,100,120.0
1626,F#2,387.5,0.5,100,120.0
1627,F#2,387.5,0.5,100,120.0
1628,E4,388.0,0.5,100,120.0
1629,C#3,388.0,4.0,100,120.0
1630,B1,388.0,0.5,100,120.0
1631,B3,388.0,1.0,100,120.0
1632,E4,388.0,0.5,100,120.0
1633,B3,388.5,0.5,100,120.0
1634,G#3,388.5,1.0,100,120.0
1635,F#2,388.5,0.5,100,120.0
1636,F#2,388.5,0.5,100,120.0
1637,B1,388.5,0.5,100,120.0
1638,E-4,389.0,1.5,100,120.0
1639,D3,389.0,0.25,60,120.0
1640,F#4,389.0,1.0,100,120.0
1641,D3,389.25,0.25,60,120.0
1642,B3,389.5,1.0,100,120.0
1643,F#2,389.5,0.5,100,120.0
1644,F#2,389.5,0.5,100,120.0
1645,E3,389.5,0.5,100,120.0
1646,E2,389.5,0.5,100,120.0
1647,G#3,390.0,1.0,100,120.0
1648,B3,390.5,0.5,100,120.0
1649,F#2,390.5,0.5,100,120.0
1650,D3,390.5,0.25,60,120.0
1651,E4,390.5,1.0,100,120.0
1652,D3,390.75,0.25,60,120.0
1653,C#4,391.0,1.0,100,120.0
1654,B3,391.0,1.0,100,120.0
1655,F#2,391.5,0.5,100,120.0
1656,G#3,391.5,0.5,100,120.0
1657,C#4,392.0,0.5,100,120.0
1658,C#3,392.0,1.0,100,120.0
1659,D3,392.0,0.25,60,120.0
1660,F#4,392.0,1.0,100,120.0
1661,G#3,392.0,0.5,100,120.0
1662,D3,392.25,0.25,60,120.0
1663,G#3,392.5,0.5,100,120.0
1664,F#2,392.5,0.5,100,120.0
1665,B3,392.5,1.0,100,120.0
1666,E3,392.5,0.25,80,120.0
1667,C3,392.5,0.25,80,120.0
1668,B3,393.0,1.5,100,120.0
1669,C#3,393.0,1.0,100,120.0
1670,G#3,393.0,1.0,100,120.0
1671,F#2,393.5,0.5,100,120.0
1672,E4,393.5,1.0,100,120.0
1673,E-3,394.0,1.0,100,120.0
1674,B3,394.0,1.0,100,120.0
1675,F#2,394.5,0.5,100,120.0
1676,G#3,394.5,1.0,100,120.0
1677,B2,395.0,1.0,100,120.0
1678,F#4,395.0,1.0,100,120.0
1679,F#2,395.5,0.5,100,120.0
1680,B3,395.5,0.5,100,120.0
1681,C#4,396.0,0.5,100,120.0
1682,B2,396.0,4.0,100,120.0
1683,B1,396.0,0.5,100,120.0
1684,G#3,396.0,1.0,100,120.0
1685,B3,396.0,0.5,100,120.0
1686,B4,396.0,4.0,100,120.0
1687,B3,396.0,4.0,100,120.0
1688,G#4,396.0,4.0,100,120.0
1689,E4,396.0,4.0,100,120.0
1690,F#4,396.0,4.0,100,120.0
1691,B3,396.5,1.0,100,120.0
1692,E4,396.5,1.0,100,120.0
1693,F#2,396.5,0.5,100,120.0
1694,B1,396.5,0.5,100,120.0
1695,B3,397.0,1.0,100,120.0
1696,B3,397.5,1.0,100,120.0
1697,G#3,397.5,1.0,100,120.0
1698,F#2,397.5,0.5,100,120.0
1699,C#3,397.5,0.5,100,120.0
1700,E2,397.5,0.5,100,120.0
1701,F#4,398.0,1.0,100,120.0
1702,G#3,398.5,0.5,100,120.0
1703,B3,398.5,1.0,100,120.0
1704,F#2,398.5,0.5,100,120.0
1705,D3,398.5,0.5,100,120.0
1706,G#3,399.0,1.0,100,120.0
1707,G#3,399.0,1.0,100,120.0
1708,E4,399.5,0.5,100,120.0
1709,F#2,399.5,0.5,100,120.0
1710,E2,399.5,0.5,100,120.0
1711,F#3,400.0,0.5,100,120.0
1712,B2,400.0,1.0,100,120.0
1713,B3,400.0,1.0,100,120.0
1714,E4,400.0,0.5,100,120.0
1715,F#3,400.5,0.5,100,120.0
1716,G#3,400.5,1.0,100,120.0
1717,F#2,400.5,0.5,100,120.0
1718,G3,400.5,0.5,100,120.0
1719,B2,400.5,0.5,100,120.0
1720,E3,401.0,0.5,100,120.0
1721,B2,401.0,1.0,100,120.0
1722,F#4,401.0,1.0,100,120.0
1723,E3,401.5,1.0,100,120.0
1724,F#2,401.5,0.5,100,120.0
1725,B3,401.5,1.0,100,120.0
1726,C#3,402.0,1.0,100,120.0
1727,G#3,402.0,1.0,100,120.0
1728,F#2,402.5,0.5,100,120.0
1729,E4,402.5,1.0,100,120.0
1730,A2,403.0,1.0,100,120.0
1731,B3,403.0,1.0,100,120.0
1732,E3,403.5,0.5,100,120.0
1733,F#2,403.5,0.5,100,120.0
1734,G#3,403.5,0.5,100,120.0
1735,C#4,404.0,1.0,100,120.0
1736,A2,404.0,4.0,100,120.0
1737,B1,404.0,0.5,100,120.0
1738,F#4,404.0,1.0,100,120.0
1739,G#3,404.0,0.5,100,120.0
1740,A3,404.0,4.0,100,120.0
1741,B3,404.0,4.0,100,120.0
1742,E4,404.0,4.0,100,120.0
1743,F#4,404.0,4.0,100,120.0
1744,B4,404.0,4.0,100,120.0
1745,B3,404.5,1.0,100,120.0
1746,F#2,404.5,0.5,100,120.0
1747,B1,404.5,0.5,100,120.0
1748,B3,405.0,0.5,100,120.0
1749,G#3,405.0,1.0,100,120.0
1750,E3,405.0,4.0,100,120.0
1751,E4,405.0,4.0,100,120.0
1752,B3,405.5,1.0,100,120.0
1753,E4,405.5,1.0,100,120.0
1754,F#2,405.5,0.5,100,120.0
1755,E2,405.5,0.5,100,120.0
1756,B3,406.0,1.0,100,120.0
1757,G#3,406.5,0.5,100,120.0
1758,F#2,406.5,0.5,100,120.0
1759,G#3,406.5,1.0,100,120.0
1760,G#3,407.0,1.0,100,120.0
1761,A2,407.0,0.5,100,120.0
1762,F#4,407.0,1.0,100,120.0
1763,F#2,407.5,0.5,100,120.0
1764,B3,407.5,0.5,100,120.0
1765,F#3,408.0,0.5,100,120.0
1766,A2,408.0,1.0,100,120.0
1767,G#3,408.0,1.0,100,120.0
1768,B3,408.0,0.5,100,120.0
1769,E3,408.5,1.0,100,120.0
1770,E4,408.5,1.0,100,120.0
1771,F#2,408.5,0.5,100,120.0
1772,C#3,408.5,0.5,100,120.0
1773,B1,408.5,0.5,100,120.0
1774,A2,409.0,1.0,100,120.0
1775,B3,409.0,1.0,100,120.0
1776,F#2,409.5,0.5,100,120.0
1777,G#3,409.5,1.0,100,120.0
1778,B2,410.0,1.0,100,120.0
1779,F#4,410.0,1.0,100,120.0
1780,F#2,410.5,0.5,100,120.0
1781,B3,410.5,1.0,100,120.0
1782,A2,411.0,1.0,100,120.0
1783,G#3,411.0,1.0,100,120.0
1784,E3,411.5,0.5,100,120.0
1785,F#2,411.5,0.5,100,120.0
1786,E4,411.5,0.5,100,120.0
1787,C#4,412.0,1.0,100,120.0
1788,A2,412.0,4.0,100,120.0
1789,B1,412.0,0.5,100,120.0
1790,B3,412.0,1.0,100,120.0
1791,E4,412.0,0.5,100,120.0
1792,A3,412.0,4.0,100,120.0
1793,B3,412.0,4.0,100,120.0
1794,E4,412.0,4.0,100,120.0
1795,F#4,412.0,4.0,100,120.0
1796,B4,412.0,4.0,100,120.0
1797,G#3,412.5,1.0,100,120.0
1798,F#2,412.5,0.5,100,120.0
1799,B1,412.5,0.5,100,120.0
1800,B3,413.0,0.5,100,120.0
1801,F#4,413.0,1.0,100,120.0
1802,E3,413.0,4.0,100,120.0
1803,E4,413.0,4.0,100,120.0
1804,B3,413.5,1.0,100,120.0
1805,B3,413.5,1.0,100,120.0
1806,F#2,413.5,0.5,100,120.0
1807,A3,413.5,0.5,100,120.0
1808,E2,413.5,0.5,100,120.0
1809,G#3,414.0,1.0,100,120.0
1810,G#3,414.5,0.5,100,120.0
1811,F#2,414.5,0.5,100,120.0
1812,E4,414.5,1.0,100,120.0
1813,G#3,415.0,1.0,100,120.0
1814,B3,415.0,1.0,100,120.0
1815,F#2,415.5,0.5,100,120.0
1816,G#3,415.5,0.5,100,120.0
1817,F#3,416.0,0.5,100,120.0
1818,A2,416.0,4.0,100,120.0
1819,D3,416.0,0.25,60,120.0
1820,F#4,416.0,1.0,100,120.0
1821,G#3,416.0,0.5,100,120.0
1822,G#3,416.0,1.0,100,120.0
1823,B3,416.0,1.0,100,120.0
1824,D3,416.25,0.25,60,120.0
1825,E3,416.5,1.5,100,120.0
1826,F#2,416.5,0.5,100,120.0
1827,D3,416.5,0.25,60,120.0
1828,B3,416.5,1.0,100,120.0
1829,G#3,417.0,1.0,100,120.0
1830,F#2,417.5,0.5,100,120.0
1831,E4,417.5,1.0,100,120.0
1832,B3,418.0,1.0,100,120.0
1833,F#2,418.5,0.5,100,120.0
1834,G#3,418.5,1.0,100,120.0
1835,F#4,419.0,1.0,100,120.0
1836,F#2,419.5,0.5,100,120.0
1837,F#4,420.0,1.0,100,120.0
1838,F#3,420.0,1.0,100,120.0
1839,A3,420.0,4.0,100,120.0
1840,B3,420.0,4.0,100,120.0
1841,E4,420.0,4.0,100,120.0
1842,F#4,420.0,4.0,100,120.0
1843,B4,420.0,4.0,100,120.0
1844,F#2,420.5,0.5,100,120.0
1845,G#4,421.0,1.0,100,120.0
1846,G#3,421.0,1.0,100,120.0
1847,B2,421.5,2.0,100,120.0
1848,C#3,421.5,0.5,100,120.0
1849,F#2,421.5,0.5,100,120.0
1850,B1,421.5,0.5,100,120.0
1851,B4,422.0,1.0,100,120.0
1852,B3,422.0,1.0,100,120.0
1853,F#2,422.5,0.5,100,120.0
1854,B4,423.0,1.0,100,120.0
1855,B3,423.0,1.0,100,120.0
1856,F#2,423.5,0.5,100,120.0
1857,B-4,423.5,0.25,80,120.0
1858,A3,423.5,0.5,100,120.0
1859,B1,423.5,0.5,100,120.0
1860,F#2,423.5,0.5,100,120.0
1861,A4,423.75,0.25,40,120.0
1862,C#5,424.0,1.0,100,120.0
1863,C#4,424.0,1.0,100,120.0
1864,F#2,424.0,0.75,100,120.0
1865,A4,424.0,0.25,40,120.0
1866,F#2,424.0,0.5,100,120.0
1867,G#3,424.0,4.0,75,120.0
1868,B3,424.0,4.0,75,120.0
1869,E4,424.0,4.0,75,120.0
1870,G#3,424.0,4.0,100,120.0
1871,B3,424.0,4.0,100,120.0
1872,A4,424.25,0.25,40,120.0
1873,C#2,424.5,0.5,100,120.0
1874,B-4,424.5,0.25,80,120.0
1875,A4,424.75,0.25,40,120.0
1876,C#5,425.0,2.5,100,120.0
1877,C#4,425.0,2.5,100,120.0
1878,F#2,425.0,0.5,100,120.0
1879,A4,425.0,0.25,40,120.0
1880,B1,425.0,0.5,100,120.0
1881,F#2,425.0,0.5,100,120.0
1882,A4,425.25,0.25,40,120.0
1883,F#2,425.5,1.5,100,120.0
1884,B1,425.5,0.5,100,120.0
1885,B-4,425.5,0.25,80,120.0
1886,A4,425.75,0.25,40,120.0
1887,F#2,426.0,0.5,100,120.0
1888,A4,426.0,0.25,40,120.0
1889,A4,426.25,0.25,40,120.0
1890,C#2,426.5,0.5,100,120.0
1891,B-4,426.5,0.25,80,120.0
1892,A4,426.75,0.25,40,120.0
1893,A4,427.0,0.25,40,120.0
1894,F#2,427.0,0.5,100,120.0
1895,A4,427.25,0.25,40,120.0
1896,F#2,427.5,0.5,100,120.0
1897,B1,427.5,0.5,100,120.0
1898,B-4,427.5,0.25,80,120.0
1899,A4,427.75,0.25,40,120.0
1900,B4,428.0,1.0,100,120.0
1901,B3,428.0,1.0,100,120.0
1902,F#2,428.0,0.75,100,120.0
1903,A4,428.0,0.25,40,120.0
1904,F#2,428.0,0.5,100,120.0
1905,A4,428.25,0.25,40,120.0
1906,B-4,428.5,0.25,80,120.0
1907,C#2,428.5,0.5,100,120.0
1908,A4,428.75,0.25,40,120.0
1909,C#5,429.0,1.0,100,120.0
1910,C#4,429.0,1.0,100,120.0
1911,F#2,429.0,0.5,100,120.0
1912,F#2,429.0,0.5,100,120.0
1913,A4,429.0,0.25,40,120.0
1914,A4,429.25,0.25,40,120.0
1915,F#2,429.5,1.5,100,120.0
1916,B-4,429.5,0.25,80,120.0
1917,B1,429.5,0.5,100,120.0
1918,A4,429.75,0.25,40,120.0
1919,E-5,430.0,1.0,100,120.0
1920,E-4,430.0,1.0,100,120.0
1921,A4,430.0,0.25,40,120.0
1922,F#2,430.0,0.5,100,120.0
1923,A4,430.25,0.25,40,120.0
1924,B-4,430.5,0.25,80,120.0
1925,C#2,430.5,0.5,100,120.0
1926,A4,430.75,0.25,40,120.0
1927,B4,431.0,1.0,100,120.0
1928,B3,431.0,1.0,100,120.0
1929,F#2,431.0,0.5,100,120.0
1930,A4,431.0,0.25,40,120.0
1931,G#3,431.0,3.0,100,120.0
1932,B3,431.0,3.0,100,120.0
1933,A4,431.25,0.25,40,120.0
1934,F#2,431.5,0.5,100,120.0
1935,B1,431.5,0.5,100,120.0
1936,B-4,431.5,0.25,80,120.0
1937,A4,431.75,0.25,40,120.0
1938,C#5,432.0,3.0,100,120.0
1939,C#4,432.0,3.0,100,120.0
1940,F#2,432.0,0.75,100,120.0
1941,A4,432.0,0.25,40,120.0
1942,F#2,432.0,0.5,100,120.0
1943,A4,432.25,0.25,40,120.0
1944,B-4,432.5,0.25,80,120.0
1945,C#2,432.5,0.5,100,120.0
1946,A4,432.75,0.25,40,120.0
1947,F#2,433.0,0.5,100,120.0
1948,A4,433.0,0.25,40,120.0
1949,B1,433.0,0.5,100,120.0
1950,F#2,433.0,0.5,100,120.0
1951,A4,433.25,0.25,40,120.0
1952,F#2,433.5,1.5,100,120.0
1953,B1,433.5,0.5,100,120.0
1954,B-4,433.5,0.25,80,120.0
1955,A4,433.75,0.25,40,120.0
1956,F#2,434.0,0.5,100,120.0
1957,A4,434.0,0.25,40,120.0
1958,C#4,434.0,1.0,100,120.0
1959,A3,434.0,1.0,100,120.0
1960,A4,434.25,0.25,40,120.0
1961,C#2,434.5,0.5,100,120.0
1962,B-4,434.5,0.25,80,120.0
1963,A4,434.75,0.25,40,120.0
1964,A4,435.0,0.25,40,120.0
1965,F#2,435.0,0.5,100,120.0
1966,A4,435.25,0.25,40,120.0
1967,F#2,435.5,0.5,100,120.0
1968,B-4,435.5,0.25,80,120.0
1969,B1,435.5,0.5,100,120.0
1970,A4,435.75,0.25,40,120.0
1971,B-4,436.0,1.0,100,120.0
1972,B-3,436.0,1.0,100,120.0
1973,F#2,436.0,1.0,100,120.0
1974,F#2,436.0,0.5,100,120.0
1975,A4,436.0,0.25,40,120.0
1976,A4,436.25,0.25,40,120.0
1977,C#2,436.5,0.5,100,120.0
1978,B-4,436.5,0.25,80,120.0
1979,A4,436.75,0.25,40,120.0
1980,C#5,437.0,1.0,100,120.0
1981,A4,437.0,0.25,40,120.0
1982,F#2,437.0,0.5,100,120.0
1983,F#4,437.0,1.0,80,120.0
1984,C#4,437.0,1.0,80,120.0
1985,A4,437.25,0.25,40,120.0
1986,F#2,437.5,1.5,100,120.0
1987,B-4,437.5,0.25,80,120.0
1988,B1,437.5,0.5,100,120.0
1989,A4,437.75,0.25,40,120.0
1990,B4,438.0,1.0,100,120.0
1991,F#2,438.0,0.5,100,120.0
1992,A4,438.0,0.25,40,120.0
1993,F#4,438.0,1.0,80,120.0
1994,B3,438.0,1.0,80,120.0
1995,A4,438.25,0.25,40,120.0
1996,E-2,438.5,1.0,100,120.0
1997,C#2,438.5,0.5,100,120.0
1998,B-4,438.5,0.25,80,120.0
1999,A4,438.75,0.25,40,120.0
2000,B-4,439.0,1.0,100,120.0
2001,A4,439.0,0.25,40,120.0
2002,F#2,439.0,0.5,100,120.0
2003,F#4,439.0,1.0,80,120.0
2004,B-3,439.0,1.0,80,120.0
2005,A4,439.25,0.25,40,120.0
2006,C#2,439.5,0.5,100,120.0
2007,B-4,439.5,0.25,80,120.0
2008,B1,439.5,0.5,100,120.0
2009,A4,439.75,0.25,40,120.0
2010,B4,440.0,1.0,100,120.0
2011,C#2,440.0,0.75,100,120.0
2012,A4,440.0,0.25,40,120.0
2013,F#2,440.0,0.5,100,120.0
2014,G#4,440.0,1.0,80,120.0
2015,B3,440.0,1.0,80,120.0
2016,A4,440.25,0.25,40,120.0
2017,B-4,440.5,0.25,80,120.0
2018,C#2,440.5,0.5,100,120.0
2019,A4,440.75,0.25,40,120.0
2020,G#4,441.0,2.5,100,120.0
2021,E-2,441.0,0.5,100,120.0
2022,A4,441.0,0.25,40,120.0
2023,C#4,441.0,2.5,80,120.0
2024,G#3,441.0,2.5,80,120.0
2025,B1,441.0,0.5,100,120.0
2026,F#2,441.0,0.5,100,120.0
2027,A4,441.25,0.25,40,120.0
2028,G#2,441.5,1.25,100,120.0
2029,B-4,441.5,0.25,80,120.0
2030,B1,441.5,0.5,100,120.0
2031,A4,441.75,0.25,40,120.0
2032,F#2,442.0,0.5,100,120.0
2033,A4,442.0,0.25,40,120.0
2034,A4,442.25,0.25,40,120.0
2035,B-4,442.5,0.25,80,120.0
2036,C#2,442.5,0.5,100,120.0
2037,A4,442.75,0.25,40,120.0
2038,E-2,443.0,0.5,100,120.0
2039,A4,443.0,0.25,40,120.0
2040,F#2,443.0,0.5,100,120.0
2041,A4,443.25,0.25,40,120.0
2042,C#2,443.5,0.5,100,120.0
2043,B-4,443.5,0.25,80,120.0
2044,B1,443.5,0.5,100,120.0
2045,A4,443.75,0.25,40,120.0
2046,B4,444.0,1.0,100,120.0
2047,B3,444.0,1.0,100,120.0
2048,C#2,444.0,0.75,100,120.0
2049,F#2,444.0,0.5,100,120.0
2050,A4,444.0,0.25,40,120.0
2051,G#3,444.0,4.0,75,120.0
2052,B3,444.0,4.0,75,120.0
2053,E4,444.0,4.0,75,120.0
2054,A4,444.25,0.25,40,120.0
2055,C#2,444.5,0.5,100,120.0
2056,B-4,444.5,0.25,80,120.0
2057,A4,444.75,0.25,40,120.0
2058,B-4,445.0,1.0,100,120.0
2059,B-3,445.0,1.0,100,120.0
2060,E-2,445.0,0.5,100,120.0
2061,A4,445.0,0.25,40,120.0
2062,F#2,445.0,0.5,100,120.0
2063,A4,445.25,0.25,40,120.0
2064,F#2,445.5,1.5,100,120.0
2065,B-4,445.5,0.25,80,120.0
2066,B1,445.5,0.5,100,120.0
2067,A4,445.75,0.25,40,120.0
2068,F#4,446.0,1.0,100,120.0
2069,F#3,446.0,1.0,100,120.0
2070,A4,446.0,0.25,40,120.0
2071,F#2,446.0,0.5,100,120.0
2072,A4,446.25,0.25,40,120.0
2073,C#2,446.5,0.5,100,120.0
2074,B-4,446.5,0.25,80,120.0
2075,A4,446.75,0.25,40,120.0
2076,B-4,447.0,1.0,100,120.0
2077,B-3,447.0,1.0,100,120.0
2078,F#2,447.0,0.5,100,120.0
2079,A4,447.0,0.25,40,120.0
2080,A4,447.25,0.25,40,120.0
2081,E-2,447.5,0.5,100,120.0
2082,B1,447.5,0.5,100,120.0
2083,B-4,447.5,0.25,80,120.0
2084,A4,447.75,0.25,40,120.0
2085,G#4,448.0,2.5,100,120.0
2086,G#3,448.0,2.5,100,120.0
2087,E-2,448.0,0.75,100,120.0
2088,A4,448.0,0.25,40,120.0
2089,F#2,448.0,0.5,100,120.0
2090,A4,448.25,0.25,40,120.0
2091,B-4,448.5,0.25,80,120.0
2092,C#2,448.5,0.5,100,120.0
2093,A4,448.75,0.25,40,120.0
2094,E-2,449.0,0.5,100,120.0
2095,A4,449.0,0.25,40,120.0
2096,B1,449.0,0.5,100,120.0
2097,F#2,449.0,0.5,100,120.0
2098,A4,449.25,0.25,40,120.0
2099,E-2,449.5,1.25,100,120.0
2100,B1,449.5,0.5,100,120.0
2101,B-4,449.5,0.25,80,120.0
2102,A4,449.75,0.25,40,120.0
2103,F#2,450.0,0.5,100,120.0
2104,A4,450.0,0.25,40,120.0
2105,A4,450.25,0.25,40,120.0
2106,C#2,450.5,0.5,100,120.0
2107,B-4,450.5,0.25,80,120.0
2108,A4,450.75,0.25,40,120.0
2109,E-2,451.0,0.5,100,120.0
2110,A4,451.0,0.25,40,120.0
2111,F#2,451.0,0.5,100,120.0
2112,C#4,451.0,4.0,100,120.0
2113,A3,451.0,4.0,100,120.0
2114,A4,451.25,0.25,40,120.0
2115,E-2,451.5,0.5,100,120.0
2116,B1,451.5,0.5,100,120.0
2117,B-4,451.5,0.25,80,120.0
2118,A4,451.75,0.25,40,120.0
2119,C#5,452.0,1.0,100,120.0
2120,C#4,452.0,1.0,100,120.0
2121,E-2,452.0,0.75,100,120.0
2122,F#2,452.0,0.5,100,120.0
2123,A4,452.0,0.25,40,120.0
2124,A4,452.25,0.25,40,120.0
2125,C#2,452.5,0.5,100,120.0
2126,B-4,452.5,0.25,80,120.0
2127,A4,452.75,0.25,40,120.0
2128,B4,453.0,1.0,100,120.0
2129,B3,453.0,1.0,100,120.0
2130,E-2,453.0,0.5,100,120.0
2131,A4,453.0,0.25,40,120.0
2132,F#2,453.0,0.5,100,120.0
2133,A4,453.25,0.25,40,120.0
2134,E-2,453.5,1.25,100,120.0
2135,B1,453.5,0.5,100,120.0
2136,B-4,453.5,0.25,80,120.0
2137,A4,453.75,0.25,40,120.0
2138,B-4,454.0,1.0,100,120.0
2139,B-3,454.0,1.0,100,120.0
2140,A4,454.0,0.25,40,120.0
2141,F#2,454.0,0.5,100,120.0
2142,A4,454.25,0.25,40,120.0
2143,C#2,454.5,1.0,100,120.0
2144,B-4,454.5,0.25,80,120.0
2145,C#2,454.5,0.5,100,120.0
2146,A4,454.75,0.25,40,120.0
2147,C#4,455.0,1.0,100,120.0
2148,C#3,455.0,1.0,100,120.0
2149,F#2,455.0,0.5,100,120.0
2150,A4,455.0,0.25,40,120.0
2151,A4,455.25,0.25,40,120.0
2152,B1,455.5,0.5,100,120.0
2153,B1,455.5,0.5,100,120.0
2154,B-4,455.5,0.25,80,120.0
2155,A4,455.75,0.25,40,120.0
2156,C#5,456.0,1.0,100,120.0
2157,C#4,456.0,1.0,100,120.0
2158,B1,456.0,0.5,100,120.0
2159,A4,456.0,0.25,40,120.0
2160,F#2,456.0,0.5,100,120.0
2161,A4,456.25,0.25,40,120.0
2162,C#2,456.5,0.5,100,120.0
2163,B-4,456.5,0.25,80,120.0
2164,A4,456.75,0.25,40,120.0
2165,B4,457.0,2.25,100,120.0
2166,B3,457.0,2.25,100,120.0
2167,B2,457.0,0.5,100,120.0
2168,A4,457.0,0.25,40,120.0
2169,F#2,457.0,0.5,100,120.0
2170,B1,457.0,0.5,100,120.0
2171,A4,457.25,0.25,40,120.0
2172,B2,457.5,1.0,100,120.0
2173,B1,457.5,0.5,100,120.0
2174,B-4,457.5,0.25,80,120.0
2175,A4,457.75,0.25,40,120.0
2176,F#2,458.0,0.5,100,120.0
2177,A4,458.0,0.25,40,120.0
2178,A4,458.25,0.25,40,120.0
2179,B-4,458.5,0.25,80,120.0
2180,C#2,458.5,0.5,100,120.0
2181,A4,458.75,0.25,40,120.0
2182,B1,459.0,0.5,100,120.0
2183,F#2,459.0,0.5,100,120.0
2184,A4,459.0,0.25,40,120.0
2185,A4,459.25,0.25,40,120.0
2186,B1,459.5,0.5,100,120.0
2187,B1,459.5,0.5,100,120.0
2188,B-4,459.5,0.25,80,120.0
2189,A4,459.75,0.25,40,120.0
2190,E-5,460.0,1.0,100,120.0
2191,E-4,460.0,1.0,100,120.0
2192,B1,460.0,0.5,100,120.0
2193,F#2,460.0,0.5,100,120.0
2194,A4,460.0,0.25,40,120.0
2195,G#3,460.0,4.0,75,120.0
2196,B3,460.0,4.0,75,120.0
2197,E4,460.0,4.0,75,120.0
2198,A4,460.25,0.25,40,120.0
2199,C#2,460.5,0.5,100,120.0
2200,B-4,460.5,0.25,80,120.0
2201,A4,460.75,0.25,40,120.0
2202,C#5,461.0,1.0,100,120.0
2203,C#4,461.0,1.0,100,120.0
2204,B1,461.0,0.5,100,120.0
2205,A4,461.0,0.25,40,120.0
2206,F#2,461.0,0.5,100,120.0
2207,A4,461.25,0.25,40,120.0
2208,B1,461.5,1.0,100,120.0
2209,B-4,461.5,0.25,80,120.0
2210,B1,461.5,0.5,100,120.0
2211,A4,461.75,0.25,40,120.0
2212,B-4,462.0,1.0,100,120.0
2213,B-3,462.0,1.0,100,120.0
2214,F#2,462.0,0.5,100,120.0
2215,A4,462.0,0.25,40,120.0
2216,A4,462.25,0.25,40,120.0
2217,C#2,462.5,0.5,100,120.0
2218,B-4,462.5,0.25,80,120.0
2219,A4,462.75,0.25,40,120.0
2220,B4,463.0,1.0,100,120.0
2221,B3,463.0,1.0,100,120.0
2222,F#2,463.0,0.5,100,120.0
2223,A4,463.0,0.25,40,120.0
2224,A4,463.25,0.25,40,120.0
2225,C#2,463.5,0.5,100,120.0
2226,B1,463.5,0.5,100,120.0
2227,B-4,463.5,0.25,80,120.0
2228,A4,463.75,0.25,40,120.0
2229,G#4,464.0,2.5,100,120.0
2230,G#3,464.0,2.5,100,120.0
2231,C#2,464.0,0.5,100,120.0
2232,A4,464.0,0.25,40,120.0
2233,F#2,464.0,0.5,100,120.0
2234,A4,464.25,0.25,40,120.0
2235,C#2,464.5,0.5,100,120.0
2236,B-4,464.5,0.25,80,120.0
2237,A4,464.75,0.25,40,120.0
2238,C#2,465.0,0.5,100,120.0
2239,A4,465.0,0.25,40,120.0
2240,F#2,465.0,0.5,100,120.0
2241,B1,465.0,0.5,100,120.0
2242,A4,465.25,0.25,40,120.0
2243,C#2,465.5,1.0,100,120.0
2244,B1,465.5,0.5,100,120.0
2245,B-4,465.5,0.25,80,120.0
2246,A4,465.75,0.25,40,120.0
2247,F#2,466.0,0.5,100,120.0
2248,A4,466.0,0.25,40,120.0
2249,A4,466.25,0.25,40,120.0
2250,C#2,466.5,0.5,100,120.0
2251,B-4,466.5,0.25,80,120.0
2252,A4,466.75,0.25,40,120.0
2253,C#2,467.0,0.5,100,120.0
2254,A4,467.0,0.25,40,120.0
2255,F#2,467.0,0.5,100,120.0
2256,C#4,467.0,4.0,100,120.0
2257,A3,467.0,4.0,100,120.0
2258,A4,467.25,0.25,40,120.0
2259,C#2,467.5,0.5,100,120.0
2260,B1,467.5,0.5,100,120.0
2261,B-4,467.5,0.25,80,120.0
2262,A4,467.75,0.25,40,120.0
2263,F4,468.0,1.0,100,120.0
2264,F3,468.0,1.0,100,120.0
2265,C#2,468.0,0.5,100,120.0
2266,A4,468.0,0.25,40,120.0
2267,F#2,468.0,0.5,100,120.0
2268,A4,468.25,0.25,40,120.0
2269,C#2,468.5,0.5,100,120.0
2270,B-4,468.5,0.25,80,120.0
2271,A4,468.75,0.25,40,120.0
2272,F#4,469.0,1.0,100,120.0
2273,F#3,469.0,1.0,100,120.0
2274,C#3,469.0,0.5,100,120.0
2275,F#2,469.0,0.5,100,120.0
2276,A4,469.0,0.25,40,120.0
2277,A4,469.25,0.25,40,120.0
2278,C#3,469.5,1.0,100,120.0
2279,B1,469.5,0.5,100,120.0
2280,B-4,469.5,0.25,80,120.0
2281,A4,469.75,0.25,40,120.0
2282,G#4,470.0,1.0,100,120.0
2283,G#3,470.0,1.0,100,120.0
2284,F#2,470.0,0.5,100,120.0
2285,A4,470.0,0.25,40,120.0
2286,A4,470.25,0.25,40,120.0
2287,C#2,470.5,0.5,100,120.0
2288,B-4,470.5,0.25,80,120.0
2289,A4,470.75,0.25,40,120.0
2290,B-4,471.0,1.0,100,120.0
2291,B-3,471.0,1.0,100,120.0
2292,F#2,471.0,0.5,100,120.0
2293,A4,471.0,0.25,40,120.0
2294,A4,471.25,0.25,40,120.0
2295,E-2,471.5,0.5,100,120.0
2296,B-4,471.5,0.25,80,120.0
2297,B1,471.5,0.5,100,120.0
2298,A4,471.75,0.25,40,120.0
2299,B4,472.0,1.0,100,120.0
2300,E-2,472.0,0.5,100,120.0
2301,F#2,472.0,0.5,100,120.0
2302,A4,472.0,0.25,40,120.0
2303,F#4,472.0,1.0,80,120.0
2304,B3,472.0,1.0,80,120.0
2305,G#3,472.0,4.0,75,120.0
2306,B3,472.0,4.0,75,120.0
2307,E4,472.0,4.0,75,120.0
2308,A4,472.25,0.25,40,120.0
2309,C#2,472.5,0.5,100,120.0
2310,B-4,472.5,0.25,80,120.0
2311,A4,472.75,0.25,40,120.0
2312,B4,473.0,2.0,100,120.0
2313,E-2,473.0,0.5,100,120.0
2314,A4,473.0,0.25,40,120.0
2315,F#4,473.0,2.0,80,120.0
2316,B3,473.0,2.0,80,120.0
2317,F#2,473.0,0.5,100,120.0
2318,B1,473.0,0.5,100,120.0
2319,A4,473.25,0.25,40,120.0
2320,E-2,473.5,1.0,100,120.0
2321,B1,473.5,0.5,100,120.0
2322,B-4,473.5,0.25,80,120.0
2323,A4,473.75,0.25,40,120.0
2324,F#2,474.0,0.5,100,120.0
2325,A4,474.0,0.25,40,120.0
2326,A4,474.25,0.25,40,120.0
2327,B-4,474.5,0.25,80,120.0
2328,C#2,474.5,0.5,100,120.0
2329,A4,474.75,0.25,40,120.0
2330,E-2,475.0,0.5,100,120.0
2331,F#2,475.0,0.5,100,120.0
2332,A4,475.0,0.25,40,120.0
2333,A4,475.25,0.25,40,120.0
2334,E-2,475.5,0.5,100,120.0
2335,B1,475.5,0.5,100,120.0
2336,B-4,475.5,0.25,80,120.0
2337,A4,475.75,0.25,40,120.0
2338,B-4,476.0,1.0,100,120.0
2339,E-2,476.0,0.5,100,120.0
2340,F#2,476.0,0.5,100,120.0
2341,A4,476.0,0.25,40,120.0
2342,F4,476.0,1.0,80,120.0
2343,B-3,476.0,1.0,80,120.0
2344,A4,476.25,0.25,40,120.0
2345,C#2,476.5,0.5,100,120.0
2346,B-4,476.5,0.25,80,120.0
2347,A4,476.75,0.25,40,120.0
2348,C#5,477.0,1.0,100,120.0
2349,E-2,477.0,0.5,100,120.0
2350,A4,477.0,0.25,40,120.0
2351,F#2,477.0,0.5,100,120.0
2352,G#4,477.0,1.0,80,120.0
2353,C#4,477.0,1.0,80,120.0
2354,A4,477.25,0.25,40,120.0
2355,E-2,477.5,1.0,100,120.0
2356,B1,477.5,0.5,100,120.0
2357,B-4,477.5,0.25,80,120.0
2358,A4,477.75,0.25,40,120.0
2359,B4,478.0,1.0,100,120.0
2360,F#2,478.0,0.5,100,120.0
2361,A4,478.0,0.25,40,120.0
2362,F#4,478.0,1.0,80,120.0
2363,B3,478.0,1.0,80,120.0
2364,A4,478.25,0.25,40,120.0
2365,C#2,478.5,0.5,100,120.0
2366,B-4,478.5,0.25,80,120.0
2367,A4,478.75,0.25,40,120.0
2368,B-4,479.0,1.0,100,120.0
2369,A4,479.0,0.25,40,120.0
2370,F#2,479.0,0.5,100,120.0
2371,F4,479.0,1.0,80,120.0
2372,B-3,479.0,1.0,80,120.0
2373,C#4,479.0,4.0,100,120.0
2374,A3,479.0,4.0,100,120.0
2375,A4,479.25,0.25,40,120.0
2376,F2,479.5,0.5,100,120.0
2377,B-4,479.5,0.25,80,120.0
2378,B1,479.5,0.5,100,120.0
2379,A4,479.75,0.25,40,120.0
2380,B4,480.0,2.5,100,120.0
2381,F2,480.0,0.5,100,120.0
2382,A4,480.0,0.25,40,120.0
2383,F#2,480.0,0.5,100,120.0
2384,F#4,480.0,2.5,80,120.0
2385,B3,480.0,2.5,80,120.0
2386,G#3,480.0,4.0,75,120.0
2387,B3,480.0,4.0,75,120.0
2388,E4,480.0,4.0,75,120.0
2389,A4,480.25,0.25,40,120.0
2390,C#2,480.5,0.5,100,120.0
2391,B-4,480.5,0.25,80,120.0
2392,A4,480.75,0.25,40,120.0
2393,F2,481.0,0.5,100,120.0
2394,A4,481.0,0.25,40,120.0
2395,F#2,481.0,0.5,100,120.0
2396,B1,481.0,0.5,100,120.0
2397,A4,481.25,0.25,40,120.0
2398,F2,481.5,1.0,100,120.0
2399,B1,481.5,0.5,100,120.0
2400,B-4,481.5,0.25,80,120.0
2401,A4,481.75,0.25,40,120.0
2402,A4,482.0,0.25,40,120.0
2403,F#2,482.0,0.5,100,120.0
2404,A4,482.25,0.25,40,120.0
2405,C#2,482.5,0.5,100,120.0
2406,B-4,482.5,0.25,80,120.0
2407,A4,482.75,0.25,40,120.0
2408,F2,483.0,0.5,100,120.0
2409,A4,483.0,0.25,40,120.0
2410,F#2,483.0,0.5,100,120.0
2411,A4,483.25,0.25,40,120.0
2412,F2,483.5,0.5,100,120.0
2413,B-4,483.5,0.25,80,120.0
2414,B1,483.5,0.5,100,120.0
2415,A4,483.75,0.25,40,120.0
2416,C#5,484.0,1.0,100,120.0
2417,F2,484.0,0.5,100,120.0
2418,A4,484.0,0.25,40,120.0
2419,F#2,484.0,0.5,100,120.0
2420,F#4,484.0,1.0,80,120.0
2421,C#4,484.0,1.0,80,120.0
2422,A4,484.25,0.25,40,120.0
2423,C#2,484.5,0.5,100,120.0
2424,B-4,484.5,0.25,80,120.0
2425,A4,484.75,0.25,40,120.0
2426,C#5,485.0,1.0,100,120.0
2427,C#3,485.0,0.5,100,120.0
2428,A4,485.0,0.25,40,120.0
2429,F#2,485.0,0.5,100,120.0
2430,C#4,485.0,1.0,80,120.0
2431,F#4,485.0,1.0,80,120.0
2432,A4,485.25,0.25,40,120.0
2433,C#3,485.5,1.25,100,120.0
2434,B1,485.5,0.5,100,120.0
2435,B-4,485.5,0.25,80,120.0
2436,A4,485.75,0.25,40,120.0
2437,B-4,486.0,1.0,100,120.0
2438,B-3,486.0,1.0,100,120.0
2439,A4,486.0,0.25,40,120.0
2440,F#2,486.0,0.5,100,120.0
2441,A4,486.25,0.25,40,120.0
2442,G#2,486.5,1.25,100,120.0
2443,C#2,486.5,0.5,100,120.0
2444,B-4,486.5,0.25,80,120.0
2445,A4,486.75,0.25,40,120.0
2446,B-4,487.0,1.0,100,120.0
2447,B-3,487.0,1.0,100,120.0
2448,F#2,487.0,0.5,100,120.0
2449,A4,487.0,0.25,40,120.0
2450,C#4,487.0,4.0,100,120.0
2451,A3,487.0,4.0,100,120.0
2452,A4,487.25,0.25,40,120.0
2453,F#2,487.5,0.5,100,120.0
2454,B1,487.5,0.5,100,120.0
2455,B-4,487.5,0.25,80,120.0
2456,A4,487.75,0.25,40,120.0
2457,C#5,488.0,1.0,100,120.0
2458,F#2,488.0,0.75,100,120.0
2459,F#2,488.0,0.5,100,120.0
2460,A4,488.0,0.25,40,120.0
2461,F#4,488.0,1.0,80,120.0
2462,C#4,488.0,1.0,80,120.0
2463,A4,488.25,0.25,40,120.0
2464,C#2,488.5,0.5,100,120.0
2465,B-4,488.5,0.25,80,120.0
2466,A4,488.75,0.25,40,120.0
2467,C#5,489.0,2.0,100,120.0
2468,F#2,489.0,0.5,100,120.0
2469,A4,489.0,0.25,40,120.0
2470,F#4,489.0,2.0,80,120.0
2471,C#4,489.0,2.0,80,120.0
2472,B1,489.0,0.5,100,120.0
2473,F#2,489.0,0.5,100,120.0
2474,A4,489.25,0.25,40,120.0
2475,F#2,489.5,1.5,100,120.0
2476,B1,489.5,0.5,100,120.0
2477,B-4,489.5,0.25,80,120.0
2478,A4,489.75,0.25,40,120.0
2479,A4,490.0,0.25,40,120.0
2480,F#2,490.0,0.5,100,120.0
2481,A4,490.25,0.25,40,120.0
2482,C#2,490.5,0.5,100,120.0
2483,B-4,490.5,0.25,80,120.0
2484,A4,490.75,0.25,40,120.0
2485,F#2,491.0,0.5,100,120.0
2486,A4,491.0,0.25,40,120.0
2487,E3,491.0,4.0,100,120.0
2488,E4,491.0,4.0,100,120.0
2489,A4,491.25,0.25,40,120.0
2490,F#2,491.5,0.5,100,120.0
2491,B-4,491.5,0.25,80,120.0
2492,B1,491.5,0.5,100,120.0
2493,A4,491.75,0.25,40,120.0
2494,C#5,492.0,1.0,100,120.0
2495,F#2,492.0,0.75,100,120.0
2496,F#2,492.0,0.5,100,120.0
2497,A4,492.0,0.25,40,120.0
2498,F#4,492.0,1.0,80,120.0
2499,C#4,492.0,1.0,80,120.0
2500,A4,492.25,0.25,40,120.0
2501,C#2,492.5,0.5,100,120.0
2502,B-4,492.5,0.25,80,120.0
2503,A4,492.75,0.25,40,120.0
2504,C#5,493.0,1.0,100,120.0
2505,F#2,493.0,0.5,100,120.0
2506,A4,493.0,0.25,40,120.0
2507,F#2,493.0,0.5,100,120.0
2508,F#4,493.0,1.0,80,120.0
2509,C#4,493.0,1.0,80,120.0
2510,A4,493.25,0.25,40,120.0
2511,F#2,493.5,1.75,100,120.0
2512,B1,493.5,0.5,100,120.0
2513,B-4,493.5,0.25,80,120.0
2514,A4,493.75,0.25,40,120.0
2515,B-4,494.0,1.0,100,120.0
2516,B-3,494.0,1.0,100,120.0
2517,A4,494.0,0.25,40,120.0
2518,F#2,494.0,0.5,100,120.0
2519,A4,494.25,0.25,40,120.0
2520,B-4,494.5,0.25,80,120.0
2521,C#2,494.5,0.5,100,120.0
2522,A4,494.75,0.25,40,120.0
2523,B-4,495.0,1.0,100,120.0
2524,B-3,495.0,1.0,100,120.0
2525,F#2,495.0,0.5,100,120.0
2526,A4,495.0,0.25,40,120.0
2527,A4,495.25,0.25,40,120.0
2528,F#2,495.5,0.5,100,120.0
2529,B1,495.5,0.5,100,120.0
2530,B-4,495.5,0.25,80,120.0
2531,A4,495.75,0.25,40,120.0
2532,C#5,496.0,1.0,100,120.0
2533,F#2,496.0,0.75,100,120.0
2534,A4,496.0,0.25,40,120.0
2535,F#2,496.0,0.5,100,120.0
2536,F#4,496.0,1.0,100,120.0
2537,C#4,496.0,1.0,100,120.0
2538,A4,496.25,0.25,40,120.0
2539,C#2,496.5,0.5,100,120.0
2540,B-4,496.5,0.25,80,120.0
2541,A4,496.75,0.25,40,120.0
2542,C#5,497.0,2.0,100,120.0
2543,F#2,497.0,0.5,100,120.0
2544,A4,497.0,0.25,40,120.0
2545,F#4,497.0,2.0,100,120.0
2546,C#4,497.0,2.0,100,120.0
2547,B1,497.0,0.5,100,120.0
2548,F#2,497.0,0.5,100,120.0
2549,A4,497.25,0.25,40,120.0
2550,F#2,497.5,1.5,100,120.0
2551,B-4,497.5,0.25,80,120.0
2552,B1,497.5,0.5,100,120.0
2553,A4,497.75,0.25,40,120.0
2554,F#2,498.0,0.5,100,120.0
2555,A4,498.0,0.25,40,120.0
2556,E3,498.0,3.0,100,120.0
2557,E4,498.0,3.0,100,120.0
2558,A4,498.25,0.25,40,120.0
2559,C#2,498.5,0.5,100,120.0
2560,B-4,498.5,0.25,80,120.0
2561,A4,498.75,0.25,40,120.0
2562,A4,499.0,0.25,40,120.0
2563,F#2,499.0,0.5,100,120.0
2564,A4,499.25,0.25,40,120.0
2565,F#2,499.5,0.5,100,120.0
2566,B-4,499.5,0.25,80,120.0
2567,B1,499.5,0.5,100,120.0
2568,A4,499.75,0.25,40,120.0
2569,B-4,500.0,1.0,100,120.0
2570,B-3,500.0,1.0,100,120.0
2571,F#2,500.0,1.0,100,120.0
2572,F#2,500.0,0.5,100,120.0
2573,A4,500.0,0.25,40,120.0
2574,A4,500.25,0.25,40,120.0
2575,B-4,500.5,0.25,80,120.0
2576,C#2,500.5,0.5,100,120.0
2577,A4,500.75,0.25,40,120.0
2578,C#5,501.0,1.0,100,120.0
2579,A4,501.0,0.25,40,120.0
2580,F#2,501.0,0.5,100,120.0
2581,C#4,501.0,1.0,80,120.0
2582,F#4,501.0,1.0,80,120.0
2583,G#3,501.0,1.0,100,120.0
2584,B3,501.0,1.0,100,120.0
2585,A4,501.25,0.25,40,120.0
2586,F#2,501.5,1.5,100,120.0
2587,B1,501.5,0.5,100,120.0
2588,B-4,501.5,0.25,80,120.0
2589,A4,501.75,0.25,40,120.0
2590,B4,502.0,1.0,100,120.0
2591,F#2,502.0,0.5,100,120.0
2592,A4,502.0,0.25,40,120.0
2593,F#4,502.0,1.0,80,120.0
2594,B3,502.0,1.0,80,120.0
2595,A4,502.25,0.25,40,120.0
2596,E-2,502.5,1.0,100,120.0
2597,C#2,502.5,0.5,100,120.0
2598,B-4,502.5,0.25,80,120.0
2599,A4,502.75,0.25,40,120.0
2600,B-4,503.0,1.0,100,120.0
2601,F#2,503.0,0.5,100,120.0
2602,A4,503.0,0.25,40,120.0
2603,F#4,503.0,1.0,80,120.0
2604,B-3,503.0,1.0,80,120.0
2605,A4,503.25,0.25,40,120.0
2606,C#2,503.5,0.5,100,120.0
2607,B1,503.5,0.5,100,120.0
2608,B-4,503.5,0.25,80,120.0
2609,A4,503.75,0.25,40,120.0
2610,B4,504.0,1.0,100,120.0
2611,C#2,504.0,0.75,100,120.0
2612,A4,504.0,0.25,40,120.0
2613,F#2,504.0,0.5,100,120.0
2614,G#4,504.0,1.0,80,120.0
2615,B3,504.0,1.0,80,120.0
2616,A4,504.25,0.25,40,120.0
2617,B-4,504.5,0.25,80,120.0
2618,C#2,504.5,0.5,100,120.0
2619,A4,504.75,0.25,40,120.0
2620,G#4,505.0,2.0,100,120.0
2621,E-2,505.0,0.5,100,120.0
2622,A4,505.0,0.25,40,120.0
2623,C#4,505.0,2.0,80,120.0
2624,G#3,505.0,2.0,80,120.0
2625,B1,505.0,0.5,100,120.0
2626,F#2,505.0,0.5,100,120.0
2627,A4,505.25,0.25,40,120.0
2628,G#2,505.5,1.25,100,120.0
2629,B1,505.5,0.5,100,120.0
2630,B-4,505.5,0.25,80,120.0
2631,A4,505.75,0.25,40,120.0
2632,A4,506.0,0.25,40,120.0
2633,F#2,506.0,0.5,100,120.0
2634,A4,506.25,0.25,40,120.0
2635,C#2,506.5,0.5,100,120.0
2636,B-4,506.5,0.25,80,120.0
2637,A4,506.75,0.25,40,120.0
2638,E-2,507.0,0.5,100,120.0
2639,F#2,507.0,0.5,100,120.0
2640,A4,507.0,0.25,40,120.0
2641,A4,507.25,0.25,40,120.0
2642,C#2,507.5,0.5,100,120.0
2643,B-4,507.5,0.25,80,120.0
2644,B1,507.5,0.5,100,120.0
2645,A4,507.75,0.25,40,120.0
2646,B4,508.0,1.0,100,120.0
2647,C#2,508.0,0.75,100,120.0
2648,F#2,508.0,0.5,100,120.0
2649,A4,508.0,0.25,40,120.0
2650,F#4,508.0,1.0,80,120.0
2651,B3,508.0,1.0,80,120.0
2652,A4,508.25,0.25,40,120.0
2653,C#2,508.5,0.5,100,120.0
2654,B-4,508.5,0.25,80,120.0
2655,A4,508.75,0.25,40,120.0
2656,B-4,509.0,1.0,100,120.0
2657,E-2,509.0,0.5,100,120.0
2658,F#2,509.0,0.5,100,120.0
2659,A4,509.0,0.25,40,120.0
2660,F#4,509.0,1.0,80,120.0
2661,B-3,509.0,1.0,80,120.0
2662,G#3,509.0,4.0,100,120.0
2663,B3,509.0,4.0,100,120.0
2664,A4,509.25,0.25,40,120.0
2665,F#2,509.5,1.5,100,120.0
2666,B1,509.5,0.5,100,120.0
2667,B-4,509.5,0.25,80,120.0
2668,A4,509.75,0.25,40,120.0
2669,F#4,510.0,1.0,100,120.0
2670,F#2,510.0,0.5,100,120.0
2671,A4,510.0,0.25,40,120.0
2672,C#4,510.0,1.0,80,120.0
2673,F#3,510.0,1.0,80,120.0
2674,A4,510.25,0.25,40,120.0
2675,B-4,510.5,0.25,80,120.0
2676,C#2,510.5,0.5,100,120.0
2677,A4,510.75,0.25,40,120.0
2678,B-4,511.0,1.0,100,120.0
2679,F#2,511.0,0.5,100,120.0
2680,A4,511.0,0.25,40,120.0
2681,F#4,511.0,1.0,80,120.0
2682,B-3,511.0,1.0,80,120.0
2683,A4,511.25,0.25,40,120.0
2684,E-2,511.5,0.5,100,120.0
2685,B1,511.5,0.5,100,120.0
2686,B-4,511.5,0.25,80,120.0
2687,A4,511.75,0.25,40,120.0
2688,G#4,512.0,2.0,100,120.0
2689,E-2,512.0,0.75,100,120.0
2690,A4,512.0,0.25,40,120.0
2691,F#2,512.0,0.5,100,120.0
2692,B3,512.0,2.0,80,120.0
2693,G#3,512.0,2.0,80,120.0
2694,A4,512.25,0.25,40,120.0
2695,B-4,512.5,0.25,80,120.0
2696,C#2,512.5,0.5,100,120.0
2697,A4,512.75,0.25,40,120.0
2698,E-2,513.0,0.5,100,120.0
2699,A4,513.0,0.25,40,120.0
2700,F#2,513.0,0.5,100,120.0
2701,B1,513.0,0.5,100,120.0
2702,A4,513.25,0.25,40,120.0
2703,E-2,513.5,1.25,100,120.0
2704,B-4,513.5,0.25,80,120.0
2705,B1,513.5,0.5,100,120.0
2706,A4,513.75,0.25,40,120.0
2707,F#2,514.0,0.5,100,120.0
2708,A4,514.0,0.25,40,120.0
2709,A4,514.25,0.25,40,120.0
2710,C#2,514.5,0.5,100,120.0
2711,B-4,514.5,0.25,80,120.0
2712,A4,514.75,0.25,40,120.0
2713,E-2,515.0,0.5,100,120.0
2714,A4,515.0,0.25,40,120.0
2715,F#2,515.0,0.5,100,120.0
2716,A4,515.25,0.25,40,120.0
2717,E-2,515.5,0.5,100,120.0
2718,B-4,515.5,0.25,80,120.0
2719,B1,515.5,0.5,100,120.0
2720,A4,515.75,0.25,40,120.0
2721,C#5,516.0,1.0,100,120.0
2722,E-2,516.0,0.75,100,120.0
2723,F#2,516.0,0.5,100,120.0
2724,A4,516.0,0.25,40,120.0
2725,C#4,516.0,1.0,80,120.0
2726,F#4,516.0,1.0,80,120.0
2727,G#3,516.0,3.0,100,120.0
2728,B3,516.0,3.0,100,120.0
2729,A4,516.25,0.25,40,120.0
2730,C#2,516.5,0.5,100,120.0
2731,B-4,516.5,0.25,80,120.0
2732,A4,516.75,0.25,40,120.0
2733,B4,517.0,1.0,100,120.0
2734,E-2,517.0,0.5,100,120.0
2735,F#2,517.0,0.5,100,120.0
2736,A4,517.0,0.25,40,120.0
2737,F#4,517.0,1.0,80,120.0
2738,B3,517.0,1.0,80,120.0
2739,A4,517.25,0.25,40,120.0
2740,E-2,517.5,1.25,100,120.0
2741,B1,517.5,0.5,100,120.0
2742,B-4,517.5,0.25,80,120.0
2743,A4,517.75,0.25,40,120.0
2744,B-4,518.0,1.0,100,120.0
2745,A4,518.0,0.25,40,120.0
2746,F#2,518.0,0.5,100,120.0
2747,F#4,518.0,1.0,80,120.0
2748,B-3,518.0,1.0,80,120.0
2749,A4,518.25,0.25,40,120.0
2750,C#2,518.5,1.0,100,120.0
2751,C#2,518.5,0.5,100,120.0
2752,B-4,518.5,0.25,80,120.0
2753,A4,518.75,0.25,40,120.0
2754,C#4,519.0,1.0,100,120.0
2755,A4,519.0,0.25,40,120.0
2756,F#2,519.0,0.5,100,120.0
2757,E5,519.0,1.0,100,120.0
2758,C#3,519.0,1.0,80,120.0
2759,C#4,519.0,1.0,80,120.0
2760,C#4,519.0,1.0,100,120.0
2761,A3,519.0,1.0,100,120.0
2762,A4,519.25,0.25,40,120.0
2763,B1,519.5,0.5,100,120.0
2764,B-4,519.5,0.25,80,120.0
2765,B1,519.5,0.5,100,120.0
2766,A4,519.75,0.25,40,120.0
2767,C#5,520.0,1.0,100,120.0
2768,B1,520.0,0.5,100,120.0
2769,A4,520.0,0.25,40,120.0
2770,F#2,520.0,0.5,100,120.0
2771,E5,520.0,4.0,100,120.0
2772,F#4,520.0,1.0,80,120.0
2773,C#4,520.0,1.0,80,120.0
2774,C#4,520.0,4.0,100,120.0
2775,A3,520.0,4.0,100,120.0
2776,A4,520.25,0.25,40,120.0
2777,C#2,520.5,0.5,100,120.0
2778,B-4,520.5,0.25,80,120.0
2779,A4,520.75,0.25,40,120.0
2780,B4,521.0,2.0,100,120.0
2781,B2,521.0,0.5,100,120.0
2782,A4,521.0,0.25,40,120.0
2783,E-4,521.0,2.0,80,120.0
2784,B3,521.0,2.0,80,120.0
2785,B1,521.0,0.5,100,120.0
2786,F#2,521.0,0.5,100,120.0
2787,A4,521.25,0.25,40,120.0
2788,B2,521.5,1.0,100,120.0
2789,B1,521.5,0.5,100,120.0
2790,B-4,521.5,0.25,80,120.0
2791,A4,521.75,0.25,40,120.0
2792,A4,522.0,0.25,40,120.0
2793,F#2,522.0,0.5,100,120.0
2794,A4,522.25,0.25,40,120.0
2795,B-4,522.5,0.25,80,120.0
2796,C#2,522.5,0.5,100,120.0
2797,A4,522.75,0.25,40,120.0
2798,B1,523.0,0.5,100,120.0
2799,A4,523.0,0.25,40,120.0
2800,F#2,523.0,0.5,100,120.0
2801,A4,523.25,0.25,40,120.0
2802,B1,523.5,0.5,100,120.0
2803,B1,523.5,0.5,100,120.0
2804,B-4,523.5,0.25,80,120.0
2805,A4,523.75,0.25,40,120.0
2806,E-5,524.0,1.0,100,120.0
2807,E-4,524.0,1.0,100,120.0
2808,B1,524.0,0.5,100,120.0
2809,A4,524.0,0.25,40,120.0
2810,F#2,524.0,0.5,100,120.0
2811,E5,524.0,4.0,100,120.0
2812,C#4,524.0,4.0,100,120.0
2813,A3,524.0,4.0,100,120.0
2814,A4,524.25,0.25,40,120.0
2815,C#2,524.5,0.5,100,120.0
2816,B-4,524.5,0.25,80,120.0
2817,A4,524.75,0.25,40,120.0
2818,C#5,525.0,1.0,100,120.0
2819,C#4,525.0,1.0,100,120.0
2820,B1,525.0,0.5,100,120.0
2821,A4,525.0,0.25,40,120.0
2822,F#2,525.0,0.5,100,120.0
2823,A4,525.25,0.25,40,120.0
2824,B1,525.5,1.0,100,120.0
2825,B1,525.5,0.5,100,120.0
2826,B-4,525.5,0.25,80,120.0
2827,A4,525.75,0.25,40,120.0
2828,B-4,526.0,1.0,100,120.0
2829,B-3,526.0,1.0,100,120.0
2830,A4,526.0,0.25,40,120.0
2831,F#2,526.0,0.5,100,120.0
2832,A4,526.25,0.25,40,120.0
2833,C#2,526.5,0.5,100,120.0
2834,B-4,526.5,0.25,80,120.0
2835,A4,526.75,0.25,40,120.0
2836,B4,527.0,1.0,100,120.0
2837,B3,527.0,1.0,100,120.0
2838,F#2,527.0,0.5,100,120.0
2839,A4,527.0,0.25,40,120.0
2840,A4,527.25,0.25,40,120.0
2841,C#2,527.5,0.5,100,120.0
2842,B1,527.5,0.5,100,120.0
2843,B-4,527.5,0.25,80,120.0
2844,A4,527.75,0.25,40,120.0
2845,G#4,528.0,1.0,100,120.0
2846,G#3,528.0,1.0,100,120.0
2847,C#2,528.0,0.5,100,120.0
2848,A4,528.0,0.25,40,120.0
2849,F#2,528.0,0.5,100,120.0
2850,E5,528.0,4.0,100,120.0
2851,C#4,528.0,4.0,100,120.0
2852,A3,528.0,4.0,100,120.0
2853,A4,528.25,0.25,40,120.0
2854,C#2,528.5,0.5,100,120.0
2855,B-4,528.5,0.25,80,120.0
2856,A4,528.75,0.25,40,120.0
2857,G#4,529.0,2.0,100,120.0
2858,G#3,529.0,2.0,100,120.0
2859,C#2,529.0,0.5,100,120.0
2860,A4,529.0,0.25,40,120.0
2861,F#2,529.0,0.5,100,120.0
2862,B1,529.0,0.5,100,120.0
2863,A4,529.25,0.25,40,120.0
2864,C#2,529.5,1.0,100,120.0
2865,B1,529.5,0.5,100,120.0
2866,B-4,529.5,0.25,80,120.0
2867,A4,529.75,0.25,40,120.0
2868,F#2,530.0,0.5,100,120.0
2869,A4,530.0,0.25,40,120.0
2870,A4,530.25,0.25,40,120.0
2871,C#2,530.5,0.5,100,120.0
2872,B-4,530.5,0.25,80,120.0
2873,A4,530.75,0.25,40,120.0
2874,C#2,531.0,0.5,100,120.0
2875,A4,531.0,0.25,40,120.0
2876,F#2,531.0,0.5,100,120.0
2877,A4,531.25,0.25,40,120.0
2878,C#2,531.5,0.5,100,120.0
2879,B1,531.5,0.5,100,120.0
2880,B-4,531.5,0.25,80,120.0
2881,A4,531.75,0.25,40,120.0
2882,F4,532.0,1.0,100,120.0
2883,F3,532.0,1.0,100,120.0
2884,C#2,532.0,0.5,100,120.0
2885,A4,532.0,0.25,40,120.0
2886,F#2,532.0,0.5,100,120.0
2887,E5,532.0,4.0,100,120.0
2888,A4,532.25,0.25,40,120.0
2889,B-4,532.5,0.25,80,120.0
2890,C#2,532.5,0.5,100,120.0
2891,A4,532.75,0.25,40,120.0
2892,F#4,533.0,1.0,100,120.0
2893,F#3,533.0,1.0,100,120.0
2894,C#3,533.0,0.5,100,120.0
2895,A4,533.0,0.25,40,120.0
2896,F#2,533.0,0.5,100,120.0
2897,A4,533.25,0.25,40,120.0
2898,C#3,533.5,1.0,100,120.0
2899,B1,533.5,0.5,100,120.0
2900,B-4,533.5,0.25,80,120.0
2901,A4,533.75,0.25,40,120.0
2902,G#4,534.0,1.0,100,120.0
2903,G#3,534.0,1.0,100,120.0
2904,A4,534.0,0.25,40,120.0
2905,F#2,534.0,0.5,100,120.0
2906,A4,534.25,0.25,40,120.0
2907,B-4,534.5,0.25,80,120.0
2908,C#2,534.5,0.5,100,120.0
2909,A4,534.75,0.25,40,120.0
2910,B-4,535.0,1.0,100,120.0
2911,B-3,535.0,1.0,100,120.0
2912,F#2,535.0,0.5,100,120.0
2913,A4,535.0,0.25,40,120.0
2914,A4,535.25,0.25,40,120.0
2915,E-2,535.5,0.5,100,120.0
2916,B1,535.5,0.5,100,120.0
2917,B-4,535.5,0.25,80,120.0
2918,A4,535.75,0.25,40,120.0
2919,B4,536.0,1.0,100,120.0
2920,E-2,536.0,0.5,100,120.0
2921,F#2,536.0,0.5,100,120.0
2922,A4,536.0,0.25,40,120.0
2923,E5,536.0,2.0,100,120.0
2924,F#4,536.0,1.0,80,120.0
2925,B3,536.0,1.0,80,120.0
2926,A4,536.25,0.25,40,120.0
2927,C#2,536.5,0.5,100,120.0
2928,B-4,536.5,0.25,80,120.0
2929,A4,536.75,0.25,40,120.0
2930,B4,537.0,2.0,100,120.0
2931,E-2,537.0,0.5,100,120.0
2932,A4,537.0,0.25,40,120.0
2933,F#4,537.0,2.0,80,120.0
2934,B3,537.0,2.0,80,120.0
2935,B1,537.0,0.5,100,120.0
2936,F#2,537.0,0.5,100,120.0
2937,A4,537.25,0.25,40,120.0
2938,E-2,537.5,1.0,100,120.0
2939,B1,537.5,0.5,100,120.0
2940,B-4,537.5,0.25,80,120.0
2941,A4,537.75,0.25,40,120.0
2942,A4,538.0,0.25,40,120.0
2943,F#2,538.0,0.5,100,120.0
2944,A4,538.25,0.25,40,120.0
2945,C#2,538.5,0.5,100,120.0
2946,B-4,538.5,0.25,80,120.0
2947,A4,538.75,0.25,40,120.0
2948,E-2,539.0,0.5,100,120.0
2949,F#2,539.0,0.5,100,120.0
2950,A4,539.0,0.25,40,120.0
2951,A4,539.25,0.25,40,120.0
2952,E-2,539.5,0.5,100,120.0
2953,B1,539.5,0.5,100,120.0
2954,B-4,539.5,0.25,80,120.0
2955,A4,539.75,0.25,40,120.0
2956,B-4,540.0,1.0,100,120.0
2957,E-2,540.0,0.5,100,120.0
2958,F#2,540.0,0.5,100,120.0
2959,A4,540.0,0.25,40,120.0
2960,F4,540.0,1.0,80,120.0
2961,B-3,540.0,1.0,80,120.0
2962,F#4,540.0,4.0,100,120.0
2963,B-3,540.0,4.0,100,120.0
2964,C#4,540.0,4.0,100,120.0
2965,A4,540.25,0.25,40,120.0
2966,C#2,540.5,0.5,100,120.0
2967,B-4,540.5,0.25,80,120.0
2968,A4,540.75,0.25,40,120.0
2969,C#5,541.0,1.0,100,120.0
2970,E-2,541.0,0.5,100,120.0
2971,A4,541.0,0.25,40,120.0
2972,F#2,541.0,0.5,100,120.0
2973,G#4,541.0,1.0,80,120.0
2974,C#4,541.0,1.0,80,120.0
2975,A4,541.25,0.25,40,120.0
2976,E-2,541.5,1.0,100,120.0
2977,B1,541.5,0.5,100,120.0
2978,B-4,541.5,0.25,80,120.0
2979,A4,541.75,0.25,40,120.0
2980,B4,542.0,1.0,100,120.0
2981,A4,542.0,0.25,40,120.0
2982,F#2,542.0,0.5,100,120.0
2983,F#4,542.0,1.0,80,120.0
2984,B3,542.0,1.0,80,120.0
2985,A4,542.25,0.25,40,120.0
2986,C#2,542.5,0.5,100,120.0
2987,B-4,542.5,0.25,80,120.0
2988,A4,542.75,0.25,40,120.0
2989,B-4,543.0,1.0,100,120.0
2990,A4,543.0,0.25,40,120.0
2991,F#2,543.0,0.5,100,120.0
2992,F4,543.0,1.0,80,120.0
2993,B-3,543.0,1.0,80,120.0
2994,A4,543.25,0.25,40,120.0
2995,C#2,543.5,0.5,100,120.0
2996,B1,543.5,0.5,100,120.0
2997,A3,543.5,0.5,100,120.0
2998,B4,544.0,1.0,100,120.0
2999,C#2,544.0,4.0,100,120.0
3000,A3,544.0,0.5,100,120.0
3001,F#4,544.0,1.0,80,120.0
3002,B3,544.0,1.0,80,120.0
3003,B4,545.0,3.0,100,120.0
3004,F#4,545.0,2.0,80,120.0
3005,B3,545.0,2.0,80,120.0
3006,G#4,548.0,1.0,100,120.0
3007,G#3,548.0,1.0,100,120.0
3008,C#2,548.0,3.0,100,120.0
3009,B4,549.0,1.0,100,120.0
3010,B3,549.0,1.0,100,120.0
3011,B-4,550.0,1.0,100,120.0
3012,B-3,550.0,1.0,100,120.0
3013,G#4,551.0,1.0,100,120.0
3014,G#3,551.0,1.0,100,120.0
3015,F#1,551.5,0.5,100,120.0
3016,C#3,551.5,0.5,100,120.0
3017,B1,551.5,0.5,100,120.0
3018,F#4,552.0,2.25,100,120.0
3019,F#3,552.0,2.25,100,120.0
3020,F#1,552.0,0.5,100,120.0
3021,C#3,552.0,0.5,100,120.0
3022,F#2,552.5,0.5,100,120.0
3023,C#2,552.5,0.5,100,120.0
3024,F#1,553.0,0.5,100,120.0
3025,F#2,553.0,1.0,100,120.0
3026,B1,553.0,0.5,100,120.0
3027,F#2,553.5,1.0,100,120.0
3028,F#2,553.5,0.5,100,120.0
3029,B1,553.5,0.5,100,120.0
3030,F#2,554.0,1.0,100,120.0
3031,F#2,554.5,0.5,100,120.0
3032,C#2,554.5,0.5,100,120.0
3033,C#2,555.0,0.5,100,120.0
3034,F#2,555.0,1.0,100,120.0
3035,F#4,555.0,4.0,100,120.0
3036,B-3,555.0,4.0,100,120.0
3037,C#4,555.0,4.0,100,120.0
3038,F#1,555.5,0.5,100,120.0
3039,F#2,555.5,0.5,100,120.0
3040,B1,555.5,0.5,100,120.0
3041,F#4,556.0,1.0,100,120.0
3042,F#1,556.0,0.5,100,120.0
3043,F#2,556.0,1.0,100,120.0
3044,F#2,556.5,0.5,100,120.0
3045,C#2,556.5,0.5,100,120.0
3046,G#4,557.0,1.0,100,120.0
3047,F#1,557.0,0.5,100,120.0
3048,F#2,557.0,1.0,100,120.0
3049,F#2,557.5,1.0,100,120.0
3050,F#2,557.5,0.5,100,120.0
3051,B1,557.5,0.5,100,120.0
3052,B-4,558.0,1.0,100,120.0
3053,F#2,558.0,1.0,100,120.0
3054,F#2,558.5,0.5,100,120.0
3055,C#2,558.5,0.5,100,120.0
3056,G#4,559.0,1.0,100,120.0
3057,C#2,559.0,0.5,100,120.0
3058,F#2,559.0,1.0,100,120.0
3059,F#1,559.5,0.5,100,120.0
3060,F#2,559.5,0.5,100,120.0
3061,B1,559.5,0.5,100,120.0
3062,F#4,560.0,1.0,100,120.0
3063,F#1,560.0,0.5,100,120.0
3064,F#2,560.0,1.0,100,120.0
3065,F#2,560.5,0.5,100,120.0
3066,C#2,560.5,0.5,100,120.0
3067,F#1,561.0,0.5,100,120.0
3068,F#2,561.0,1.0,100,120.0
3069,B1,561.0,0.5,100,120.0
3070,F#2,561.5,1.0,100,120.0
3071,F#2,561.5,0.5,100,120.0
3072,B1,561.5,0.5,100,120.0
3073,F#2,562.0,1.0,100,120.0
3074,F#2,562.5,0.5,100,120.0
3075,C#2,562.5,0.5,100,120.0
3076,C#2,563.0,0.5,100,120.0
3077,F#2,563.0,1.0,100,120.0
3078,F#1,563.5,0.5,100,120.0
3079,F#2,563.5,0.5,100,120.0
3080,B1,563.5,0.5,100,120.0
3081,F#4,564.0,1.0,100,120.0
3082,F#3,564.0,1.0,100,120.0
3083,F#1,564.0,0.5,100,120.0
3084,F#2,564.0,1.0,100,120.0
3085,F#2,564.5,0.5,100,120.0
3086,C#2,564.5,0.5,100,120.0
3087,G#4,565.0,1.0,100,120.0
3088,G#3,565.0,1.0,100,120.0
3089,F#2,565.0,0.5,100,120.0
3090,F#2,565.0,1.0,100,120.0
3091,F#2,565.5,1.0,100,120.0
3092,F#2,565.5,0.5,100,120.0
3093,B1,565.5,0.5,100,120.0
3094,B-4,566.0,1.0,100,120.0
3095,B-3,566.0,1.0,100,120.0
3096,F#2,566.0,1.0,100,120.0
3097,F#4,566.0,4.0,100,120.0
3098,B-3,566.0,4.0,100,120.0
3099,C#4,566.0,4.0,100,120.0
3100,F#2,566.5,0.5,100,120.0
3101,C#2,566.5,0.5,100,120.0
3102,G#4,567.0,1.0,100,120.0
3103,G#3,567.0,1.0,100,120.0
3104,F#2,567.0,1.0,100,120.0
3105,F#1,567.5,0.5,100,120.0
3106,B1,567.5,0.5,100,120.0
3107,F#2,567.5,0.5,100,120.0
3108,F#4,568.0,2.0,100,120.0
3109,F#3,568.0,2.0,100,120.0
3110,F#1,568.0,0.5,100,120.0
3111,F#2,568.0,1.0,100,120.0
3112,F#2,568.5,0.5,100,120.0
3113,C#2,568.5,0.5,100,120.0
3114,F#1,569.0,0.5,100,120.0
3115,F#2,569.0,1.0,100,120.0
3116,B1,569.0,0.5,100,120.0
3117,F#2,569.5,1.0,100,120.0
3118,F#2,569.5,0.5,100,120.0
3119,B1,569.5,0.5,100,120.0
3120,F#2,570.0,1.0,100,120.0
3121,F#2,570.5,0.5,100,120.0
3122,C#2,570.5,0.5,100,120.0
3123,C#2,571.0,0.5,100,120.0
3124,F#2,571.0,1.0,100,120.0
3125,F#1,571.5,0.5,100,120.0
3126,F#2,571.5,0.5,100,120.0
3127,B1,571.5,0.5,100,120.0
3128,F#4,572.0,1.0,100,120.0
3129,F#1,572.0,0.5,100,120.0
3130,F#2,572.0,1.0,100,120.0
3131,F#2,572.5,0.5,100,120.0
3132,C#2,572.5,0.5,100,120.0
3133,G#4,573.0,1.0,100,120.0
3134,F#2,573.0,0.5,100,120.0
3135,F#2,573.0,1.0,100,120.0
3136,F#4,573.0,3.0,100,120.0
3137,B-3,573.0,3.0,100,120.0
3138,C#4,573.0,3.0,100,120.0
3139,F#2,573.5,1.0,100,120.0
3140,F#2,573.5,0.5,100,120.0
3141,B1,573.5,0.5,100,120.0
3142,B-4,574.0,1.0,100,120.0
3143,F#2,574.0,1.0,100,120.0
3144,F#2,574.5,0.5,100,120.0
3145,C#2,574.5,0.5,100,120.0
3146,G#4,575.0,1.0,100,120.0
3147,C#2,575.0,0.5,100,120.0
3148,F#2,575.0,1.0,100,120.0
3149,F#1,575.5,0.5,100,120.0
3150,F#2,575.5,0.5,100,120.0
3151,B1,575.5,0.5,100,120.0
3152,F#4,576.0,1.0,100,120.0
3153,F#1,576.0,0.5,100,120.0
3154,F#2,576.0,1.0,100,120.0
3155,G#3,576.0,1.0,100,120.0
3156,F3,576.0,1.0,100,120.0
3157,C#3,576.0,1.0,100,120.0
3158,F#2,576.5,0.5,100,120.0
3159,C#2,576.5,0.5,100,120.0
3160,F#1,577.0,0.5,100,120.0
3161,F#2,577.0,1.0,100,120.0
3162,B1,577.0,0.5,100,120.0
3163,F#2,577.5,1.0,100,120.0
3164,F#2,577.5,0.5,100,120.0
3165,B1,577.5,0.5,100,120.0
3166,F#2,578.0,1.0,100,120.0
3167,F#2,578.5,0.5,100,120.0
3168,C#2,578.5,0.5,100,120.0
3169,C#2,579.0,0.5,100,120.0
3170,F#2,579.0,1.0,100,120.0
3171,F#1,579.5,0.5,100,120.0
3172,F#2,579.5,0.5,100,120.0
3173,B1,579.5,0.5,100,120.0
3174,F#4,580.0,1.0,100,120.0
3175,F#3,580.0,1.0,100,120.0
3176,F#1,580.0,0.5,100,120.0
3177,F#2,580.0,1.0,100,120.0
3178,C#2,580.5,0.5,100,120.0
3179,F#2,580.5,0.5,100,120.0
3180,G#4,581.0,1.0,100,120.0
3181,G#3,581.0,1.0,100,120.0
3182,F#2,581.0,0.5,100,120.0
3183,F#2,581.0,1.0,100,120.0
3184,F#2,581.5,1.0,100,120.0
3185,B1,581.5,0.5,100,120.0
3186,F#2,581.5,0.5,100,120.0
3187,B-4,582.0,1.0,100,120.0
3188,B-3,582.0,1.0,100,120.0
3189,F#2,582.0,1.0,100,120.0
3190,F#2,582.5,0.5,100,120.0
3191,C#2,582.5,0.5,100,120.0
3192,G#4,583.0,1.0,100,120.0
3193,G#3,583.0,1.0,100,120.0
3194,C#2,583.0,0.5,100,120.0
3195,F#2,583.0,1.0,100,120.0
3196,F#1,583.5,0.5,100,120.0
3197,F#2,583.5,0.5,100,120.0
3198,B1,583.5,0.5,100,120.0
3199,F#4,584.0,2.0,100,120.0
3200,F#3,584.0,2.0,100,120.0
3201,F#1,584.0,0.5,100,120.0
3202,F#2,584.0,1.0,100,120.0
3203,G#3,584.0,4.0,100,120.0
3204,F3,584.0,4.0,100,120.0
3205,C#3,584.0,4.0,100,120.0
3206,F#2,584.5,0.5,100,120.0
3207,C#2,584.5,0.5,100,120.0
3208,F#1,585.0,0.5,100,120.0
3209,F#2,585.0,1.0,100,120.0
3210,B1,585.0,0.5,100,120.0
3211,F#2,585.5,1.0,100,120.0
3212,F#2,585.5,0.5,100,120.0
3213,B1,585.5,0.5,100,120.0
3214,F#2,586.0,1.0,100,120.0
3215,F#2,586.5,0.5,100,120.0
3216,C#2,586.5,0.5,100,120.0
3217,C#2,587.0,0.5,100,120.0
3218,F#2,587.0,1.0,100,120.0
3219,F#1,587.5,0.5,100,120.0
3220,B1,587.5,0.5,100,120.0
3221,F#2,587.5,0.5,100,120.0
3222,F#4,588.0,1.0,100,120.0
3223,F#1,588.0,0.5,100,120.0
3224,F#2,588.0,1.0,100,120.0
3225,C#2,588.5,0.5,100,120.0
3226,F#2,588.5,0.5,100,120.0
3227,G#4,589.0,1.0,100,120.0
3228,F#1,589.0,0.5,100,120.0
3229,F#2,589.0,1.0,100,120.0
3230,F#2,589.5,1.0,100,120.0
3231,B1,589.5,0.5,100,120.0
3232,F#2,589.5,0.5,100,120.0
3233,B-4,590.0,1.0,100,120.0
3234,F#2,590.0,1.0,100,120.0
3235,C#2,590.5,0.5,100,120.0
3236,F#2,590.5,0.5,100,120.0
3237,G#4,591.0,1.0,100,120.0
3238,C#2,591.0,0.5,100,120.0
3239,F#2,591.0,1.0,100,120.0
3240,G#3,591.0,3.0,100,120.0
3241,F3,591.0,3.0,100,120.0
3242,C#3,591.0,3.0,100,120.0
3243,F#1,591.5,0.5,100,120.0
3244,B1,591.5,0.5,100,120.0
3245,F#2,591.5,0.5,100,120.0
3246,F#4,592.0,1.0,100,120.0
3247,F#1,592.0,0.5,100,120.0
3248,F#2,592.0,1.0,100,120.0
3249,C#2,592.5,0.5,100,120.0
3250,F#2,592.5,0.5,100,120.0
3251,F#1,593.0,0.5,100,120.0
3252,F#2,593.0,1.0,100,120.0
3253,B1,593.0,0.5,100,120.0
3254,F#2,593.5,1.0,100,120.0
3255,B1,593.5,0.5,100,120.0
3256,F#2,593.5,0.5,100,120.0
3257,F#2,594.0,1.0,100,120.0
3258,F#3,594.0,1.0,100,120.0
3259,B-3,594.0,1.0,100,120.0
3260,E-3,594.0,1.0,100,120.0
3261,C#2,594.5,0.5,100,120.0
3262,F#2,594.5,0.5,100,120.0
3263,C#2,595.0,0.5,100,120.0
3264,F#2,595.0,1.0,100,120.0
3265,F#1,595.5,0.5,100,120.0
3266,B1,595.5,0.5,100,120.0
3267,F#2,595.5,0.5,100,120.0
3268,F#4,596.0,1.0,100,120.0
3269,F#3,596.0,1.0,100,120.0
3270,F#1,596.0,0.5,100,120.0
3271,F#2,596.0,1.0,100,120.0
3272,C#2,596.5,0.5,100,120.0
3273,F#2,596.5,0.5,100,120.0
3274,G#4,597.0,1.0,100,120.0
3275,G#3,597.0,1.0,100,120.0
3276,F#2,597.0,0.5,100,120.0
3277,F#2,597.0,1.0,100,120.0
3278,F#2,597.5,1.0,100,120.0
3279,B1,597.5,0.5,100,120.0
3280,F#2,597.5,0.5,100,120.0
3281,B-4,598.0,1.0,100,120.0
3282,B-3,598.0,1.0,100,120.0
3283,F#2,598.0,1.0,100,120.0
3284,C#2,598.5,0.5,100,120.0
3285,F#2,598.5,0.5,100,120.0
3286,G#4,599.0,1.0,100,120.0
3287,G#3,599.0,1.0,100,120.0
3288,F#2,599.0,1.0,100,120.0
3289,F#1,599.5,0.5,100,120.0
3290,B1,599.5,0.5,100,120.0
3291,F#2,599.5,0.5,100,120.0
3292,F#4,600.0,2.0,100,120.0
3293,F#3,600.0,2.0,100,120.0
3294,F#1,600.0,0.5,100,120.0
3295,F#2,600.0,1.0,100,120.0
3296,C#2,600.5,0.5,100,120.0
3297,F#2,600.5,0.5,100,120.0
3298,F#1,601.0,0.5,100,120.0
3299,F#2,601.0,1.0,100,120.0
3300,B1,601.0,0.5,100,120.0
3301,F#2,601.5,1.0,100,120.0
3302,B1,601.5,0.5,100,120.0
3303,F#2,601.5,0.5,100,120.0
3304,F#2,602.0,1.0,100,120.0
3305,F#3,602.0,4.0,100,120.0
3306,B-3,602.0,4.0,100,120.0
3307,E-3,602.0,4.0,100,120.0
3308,F#2,602.5,0.5,100,120.0
3309,C#2,602.5,0.5,100,120.0
3310,C#2,603.0,0.5,100,120.0
3311,F#2,603.0,1.0,100,120.0
3312,F#1,603.5,0.5,100,120.0
3313,B1,603.5,0.5,100,120.0
3314,F#2,603.5,0.5,100,120.0
3315,F#4,604.0,1.0,100,120.0
3316,F#1,604.0,0.5,100,120.0
3317,F#2,604.0,1.0,100,120.0
3318,C#2,604.5,0.5,100,120.0
3319,F#2,604.5,0.5,100,120.0
3320,G#4,605.0,1.0,100,120.0
3321,F#1,605.0,0.5,100,120.0
3322,F#2,605.0,1.0,100,120.0
3323,F#2,605.5,1.0,100,120.0
3324,B1,605.5,0.5,100,120.0
3325,F#2,605.5,0.5,100,120.0
3326,B-4,606.0,1.0,100,120.0
3327,F#2,606.0,1.0,100,120.0
3328,C#2,606.5,0.5,100,120.0
3329,F#2,606.5,0.5,100,120.0
3330,G#4,607.0,1.0,100,120.0
3331,C#2,607.0,0.5,100,120.0
3332,F#2,607.0,1.0,100,120.0
3333,F#1,607.5,0.5,100,120.0
3334,B1,607.5,0.5,100,120.0
3335,F#2,607.5,0.5,100,120.0
3336,F#4,608.0,1.0,100,120.0
3337,F#1,608.0,0.5,100,120.0
3338,F#2,608.0,1.0,100,120.0
3339,C#2,608.5,0.5,100,120.0
3340,F#2,608.5,0.5,100,120.0
3341,F#1,609.0,0.5,100,120.0
3342,F#2,609.0,1.0,100,120.0
3343,B1,609.0,0.5,100,120.0
3344,F#3,609.0,3.0,100,120.0
3345,B-3,609.0,3.0,100,120.0
3346,E-3,609.0,3.0,100,120.0
3347,F#2,609.5,1.0,100,120.0
3348,B1,609.5,0.5,100,120.0
3349,F#2,609.5,0.5,100,120.0
3350,F#2,610.0,1.0,100,120.0
3351,C#2,610.5,0.5,100,120.0
3352,F#2,610.5,0.5,100,120.0
3353,C#2,611.0,0.5,100,120.0
3354,F#2,611.0,1.0,100,120.0
3355,F#1,611.5,0.5,100,120.0
3356,B1,611.5,0.5,100,120.0
3357,F#2,611.5,0.5,100,120.0
3358,F#4,612.0,1.0,100,120.0
3359,F#3,612.0,1.0,100,120.0
3360,F#1,612.0,0.5,100,120.0
3361,F#2,612.0,1.0,100,120.0
3362,B3,612.0,1.0,100,120.0
3363,F#3,612.0,1.0,100,120.0
3364,E-3,612.0,1.0,100,120.0
3365,C#2,612.5,0.5,100,120.0
3366,F#2,612.5,0.5,100,120.0
3367,G#4,613.0,1.0,100,120.0
3368,G#3,613.0,1.0,100,120.0
3369,F#2,613.0,0.5,100,120.0
3370,F#2,613.0,1.0,100,120.0
3371,F#2,613.5,1.0,100,120.0
3372,B1,613.5,0.5,100,120.0
3373,F#2,613.5,0.5,100,120.0
3374,B-4,614.0,1.0,100,120.0
3375,B-3,614.0,1.0,100,120.0
3376,F#2,614.0,1.0,100,120.0
3377,C#2,614.5,0.5,100,120.0
3378,F#2,614.5,0.5,100,120.0
3379,G#4,615.0,1.0,100,120.0
3380,G#3,615.0,1.0,100,120.0
3381,F#2,615.0,1.0,100,120.0
3382,F#1,615.5,0.5,100,120.0
3383,B1,615.5,0.5,100,120.0
3384,F#2,615.5,0.5,100,120.0
3385,F#4,616.0,2.0,100,120.0
3386,F#3,616.0,2.0,100,120.0
3387,F#1,616.0,0.5,100,120.0
3388,F#2,616.0,1.0,100,120.0
3389,C#2,616.5,0.5,100,120.0
3390,F#2,616.5,0.5,100,120.0
3391,F#1,617.0,0.5,100,120.0
3392,F#2,617.0,1.0,100,120.0
3393,B1,617.0,0.5,100,120.0
3394,F#2,617.5,1.0,100,120.0
3395,B1,617.5,0.5,100,120.0
3396,F#2,617.5,0.5,100,120.0
3397,F#2,618.0,1.0,100,120.0
3398,F#2,618.5,0.5,100,120.0
3399,C#2,618.5,0.5,100,120.0
3400,C#2,619.0,0.5,100,120.0
3401,F#2,619.0,1.0,100,120.0
3402,F#1,619.5,0.5,100,120.0
3403,B1,619.5,0.5,100,120.0
3404,F#2,619.5,0.5,100,120.0
3405,F#4,620.0,1.0,100,120.0
3406,F#1,620.0,0.5,100,120.0
3407,F#2,620.0,1.0,100,120.0
3408,B3,620.0,4.0,100,120.0
3409,F#3,620.0,4.0,100,120.0
3410,E-3,620.0,4.0,100,120.0
3411,C#2,620.5,0.5,100,120.0
3412,F#2,620.5,0.5,100,120.0
3413,G#4,621.0,1.0,100,120.0
3414,F#1,621.0,0.5,100,120.0
3415,F#2,621.0,1.0,100,120.0
3416,F#2,621.5,1.0,100,120.0
3417,B1,621.5,0.5,100,120.0
3418,F#2,621.5,0.5,100,120.0
3419,B-4,622.0,1.0,100,120.0
3420,F#2,622.0,1.0,100,120.0
3421,C#2,622.5,0.5,100,120.0
3422,F#2,622.5,0.5,100,120.0
3423,G#4,623.0,1.0,100,120.0
3424,C#2,623.0,0.5,100,120.0
3425,F#2,623.0,1.0,100,120.0
3426,F#1,623.5,0.5,100,120.0
3427,B1,623.5,0.5,100,120.0
3428,F#2,623.5,0.5,100,120.0
3429,F#4,624.0,1.0,100,120.0
3430,F#1,624.0,0.5,100,120.0
3431,F#2,624.0,1.0,100,120.0
3432,C#2,624.5,0.5,100,120.0
3433,F#2,624.5,0.5,100,120.0
3434,F#1,625.0,0.5,100,120.0
3435,F#2,625.0,1.0,100,120.0
3436,B1,625.0,0.5,100,120.0
3437,F#2,625.5,1.0,100,120.0
3438,B1,625.5,0.5,100,120.0
3439,F#2,625.5,0.5,100,120.0
3440,F#2,626.0,1.0,100,120.0
3441,C#2,626.5,0.5,100,120.0
3442,F#2,626.5,0.5,100,120.0
3443,C#2,627.0,0.5,100,120.0
3444,F#2,627.0,1.0,100,120.0
3445,B3,627.0,3.0,100,120.0
3446,F#3,627.0,3.0,100,120.0
3447,E-3,627.0,3.0,100,120.0
3448,F#1,627.5,0.5,100,120.0
3449,B1,627.5,0.5,100,120.0
3450,F#2,627.5,0.5,100,120.0
3451,F#4,628.0,1.0,100,120.0
3452,F#3,628.0,1.0,100,120.0
3453,F#1,628.0,0.5,100,120.0
3454,F#2,628.0,1.0,100,120.0
3455,C#2,628.5,0.5,100,120.0
3456,F#2,628.5,0.5,100,120.0
3457,G#4,629.0,1.0,100,120.0
3458,G#3,629.0,1.0,100,120.0
3459,F#2,629.0,0.5,100,120.0
3460,F#2,629.0,1.0,100,120.0
3461,F#2,629.5,1.0,100,120.0
3462,B1,629.5,0.5,100,120.0
3463,F#2,629.5,0.5,100,120.0
3464,B-4,630.0,1.0,100,120.0
3465,B-3,630.0,1.0,100,120.0
3466,F#2,630.0,1.0,100,120.0
3467,F3,630.0,1.0,100,120.0
3468,G#3,630.0,1.0,100,120.0
3469,C#4,630.0,1.0,100,120.0
3470,C#2,630.5,0.5,100,120.0
3471,F#2,630.5,0.5,100,120.0
3472,G#4,631.0,1.0,100,120.0
3473,G#3,631.0,1.0,100,120.0
3474,F#2,631.0,1.0,100,120.0
3475,F#1,631.5,0.5,100,120.0
3476,B1,631.5,0.5,100,120.0
3477,F#2,631.5,0.5,100,120.0
3478,F#4,632.0,2.0,100,120.0
3479,F#3,632.0,2.0,100,120.0
3480,F#1,632.0,0.5,100,120.0
3481,F#2,632.0,1.0,100,120.0
3482,C#2,632.5,0.5,100,120.0
3483,F#2,632.5,0.5,100,120.0
3484,F#1,633.0,0.5,100,120.0
3485,F#2,633.0,1.0,100,120.0
3486,B1,633.0,0.5,100,120.0
3487,F#2,633.5,1.0,100,120.0
3488,F#2,633.5,0.5,100,120.0
3489,B1,633.5,0.5,100,120.0
3490,F#2,634.0,1.0,100,120.0
3491,C#2,634.5,0.5,100,120.0
3492,F#2,634.5,0.5,100,120.0
3493,C#2,635.0,0.5,100,120.0
3494,F#2,635.0,1.0,100,120.0
3495,F#1,635.5,0.5,100,120.0
3496,A3,635.5,0.5,100,120.0
3497,B-4,635.5,0.5,100,120.0
3498,G#4,635.5,0.5,100,120.0
3499,F#4,635.5,0.5,100,120.0
3500,F#2,635.5,0.5,100,120.0
3501,B1,635.5,0.5,100,120.0
3502,F#1,636.0,0.5,100,120.0
3503,A3,636.0,0.5,100,120.0
3504,B-4,636.0,0.5,100,120.0
3505,G#4,636.0,0.5,100,120.0
3506,F#4,636.0,0.5,100,120.0
3507,F3,638.0,4.0,100,120.0
3508,G#3,638.0,4.0,100,120.0
3509,C#4,638.0,4.0,100,120.0
3510,F3,645.0,3.0,100,120.0
3511,G#3,645.0,3.0,100,120.0
3512,C#4,645.0,3.0,100,120.0
3513,E-3,648.0,1.0,100,120.0
3514,F#3,648.0,1.0,100,120.0
3515,B-3,648.0,1.0,100,120.0
3516,E-3,656.0,4.0,100,120.0
3517,F#3,656.0,4.0,100,120.0
3518,B-3,656.0,4.0,100,120.0
3519,E-3,663.0,3.0,100,120.0
3520,F#3,663.0,3.0,100,120.0
3521,B-3,663.0,3.0,100,120.0
3522,B3,666.0,1.0,100,120.0
3523,F3,666.0,1.0,100,120.0
3524,B3,675.0,4.0,100,120.0
3525,F3,675.0,4.0,100,120.0
3526,B3,683.0,4.0,100,120.0
3527,F3,683.0,4.0,100,120.0
3528,F#4,687.0,4.0,100,120.0
3529,B-3,687.0,4.0,100,120.0
3530,C#4,687.0,4.0,100,120.0
3531,F#4,702.0,4.0,100,120.0
3532,B-3,702.0,4.0,100,120.0
3533,C#4,702.0,4.0,100,120.0
3534,F#4,713.0,4.0,100,120.0
3535,B-3,713.0,4.0,100,120.0
3536,C#4,713.0,4.0,100,120.0
3537,F#4,720.0,3.0,100,120.0
3538,B-3,720.0,3.0,100,120.0
3539,C#4,720.0,3.0,100,120.0
3540,G#3,723.0,1.0,100,120.0
3541,F3,723.0,1.0,100,120.0
3542,C#3,723.0,1.0,100,120.0
3543,G#3,731.0,4.0,100,120.0
3544,F3,731.0,4.0,100,120.0
3545,C#3,731.0,4.0,100,120.0
3546,G#3,738.0,3.0,100,120.0
3547,F3,738.0,3.0,100,120.0
3548,C#3,738.0,3.0,100,120.0
3549,F#3,741.0,1.0,100,120.0
3550,B-3,741.0,1.0,100,120.0
3551,E-3,741.0,1.0,100,120.0
3552,F#3,749.0,4.0,100,120.0
3553,B-3,749.0,4.0,100,120.0
3554,E-3,749.0,4.0,100,120.0
3555,F#3,756.0,3.0,100,120.0
3556,B-3,756.0,3.0,100,120.0
3557,E-3,756.0,3.0,100,120.0
3558,B3,759.0,1.0,100,120.0
3559,F#3,759.0,1.0,100,120.0
3560,E-3,759.0,1.0,100,120.0
3561,B3,767.0,4.0,100,120.0
3562,F#3,767.0,4.0,100,120.0
3563,E-3,767.0,4.0,100,120.0
3564,B3,774.0,3.0,100,120.0
3565,F#3,774.0,3.0,100,120.0
3566,E-3,774.0,3.0,100,120.0
3567,F3,777.0,1.0,100,120.0
3568,G#3,777.0,1.0,100,120.0
3569,C#4,777.0,1.0,100,120.0
3570,F3,785.0,4.0,100,120.0
3571,G#3,785.0,4.0,100,120.0
3572,C#4,785.0,4.0,100,120.0
3573,F3,792.0,3.0,100,120.0
3574,G#3,792.0,3.0,100,120.0
3575,C#4,792.0,3.0,100,120.0
3576,E-3,795.0,1.0,100,120.0
3577,F#3,795.0,1.0,100,120.0
3578,B-3,795.0,1.0,100,120.0
3579,E-3,803.0,4.0,100,120.0
3580,F#3,803.0,4.0,100,120.0
3581,B-3,803.0,4.0,100,120.0
3582,E-3,810.0,3.0,100,120.0
3583,F#3,810.0,3.0,100,120.0
3584,B-3,810.0,3.0,100,120.0
3585,B5,813.0,1.0,60,120.0
3586,B5,814.0,4.0,60,120.0
3587,B5,818.0,3.0,60,120.0
3588,B-5,821.0,1.0,60,120.0
3589,B-3,821.0,1.0,50,120.0
3590,F#3,821.0,1.0,50,120.0
3591,B-5,822.0,4.0,60,120.0
3592,B-3,822.0,4.0,50,120.0
3593,F#3,822.0,4.0,50,120.0
3594,B-5,826.0,4.0,60,120.0
3595,B-3,826.0,4.0,50,120.0
3596,F#3,826.0,4.0,50,120.0
3597,B-5,830.0,4.0,60,120.0
3598,B-3,830.0,4.0,50,120.0
3599,F#3,830.0,4.0,50,120.0
3600,B-5,834.0,4.0,60,120.0
3601,B-3,834.0,4.0,50,120.0
3602,F#3,834.0,4.0,50,120.0
3603,B-5,838.0,4.0,60,120.0
3604,B-3,838.0,4.0,50,120.0
3605,F#3,838.0,4.0,50,120.0
3606,B-5,842.0,4.0,60,120.0
3607,B-3,842.0,4.0,50,120.0
3608,F#3,842.0,4.0,50,120.0
3609,B-3,846.0,4.0,50,120.0
3610,F#3,846.0,4.0,50,120.0
3611,B-3,850.0,4.0,50,120.0
3612,F#3,850.0,4.0,50,120.0
3613,B-3,854.0,4.0,50,120.0
3614,F#3,854.0,4.0,50,120.0
3615,B-3,858.0,4.0,50,120.0
3616,F#3,858.0,4.0,50,120.0
3617,B-3,862.0,4.0,50,120.0
3618,F#3,862.0,4.0,50,120.0
3619,B-3,866.0,4.0,50,120.0
3620,F#3,866.0,4.0,50,120.0
3621,B-3,870.0,4.0,50,120.0
3622,F#3,870.0,4.0,50,120.0
3623,B-3,874.0,4.0,50,120.0
3624,F#3,874.0,4.0,50,120.0
3625,B-3,878.0,4.0,50,120.0
3626,F#3,878.0,4.0,50,120.0
3627,B-3,882.0,4.0,50,120.0
3628,F#3,882.0,4.0,50,120.0
3629,B-3,886.0,4.0,50,120.0
3630,F#3,886.0,4.0,50,120.0
3631,B-3,890.0,4.0,50,120.0
3632,F#3,890.0,4.0,50,120.0
3633,B-3,894.0,4.0,50,120.0
3634,F#3,894.0,4.0,50,120.0
3635,B-3,898.0,4.0,50,120.0
3636,F#3,898.0,4.0,50,120.0
3637,B-3,902.0,4.0,50,120.0
3638,F#3,902.0,4.0,50,120.0
