,note_name,start_time,duration,velocity,tempo
0,E3,0.0,0.5,95,207.0
1,E4,0.0,1.5,95,207.0
2,B3,0.0,1.5,95,207.0
3,E3,0.0,1.5,95,207.0
4,B3,0.5,0.5,95,207.0
5,E4,1.0,0.5,95,207.0
6,F#4,1.5,0.5,95,207.0
7,E4,2.0,0.5,95,207.0
8,B3,2.5,0.5,95,207.0
9,A4,3.0,0.5,95,207.0
10,F#4,3.5,0.5,95,207.0
11,G#4,4.0,0.5,95,207.0
12,F#4,4.5,0.5,95,207.0
13,E4,5.0,0.5,95,207.0
14,B3,5.5,0.5,95,207.0
15,E3,6.0,0.5,95,207.0
16,B3,6.5,0.5,95,207.0
17,E4,7.0,0.5,95,207.0
18,F#4,7.5,0.5,95,207.0
19,E4,8.0,0.5,95,207.0
20,B3,8.5,0.5,95,207.0
21,D4,9.0,0.5,95,207.0
22,C#4,9.5,0.5,95,207.0
23,B3,10.0,0.5,95,207.0
24,A3,10.5,0.5,95,207.0
25,B3,11.0,0.5,95,207.0
26,C#4,11.5,0.5,95,207.0
27,B3,12.0,0.5,95,207.0
28,E4,12.0,1.5,95,207.0
29,B3,12.0,1.5,95,207.0
30,E3,12.0,1.5,95,207.0
31,E3,12.5,0.5,95,207.0
32,B3,13.0,0.5,95,207.0
33,F#4,13.5,0.5,95,207.0
34,E4,14.0,0.5,95,207.0
35,B3,14.5,0.5,95,207.0
36,A4,15.0,0.5,95,207.0
37,F#4,15.5,0.5,95,207.0
38,G#4,16.0,0.5,95,207.0
39,F#4,16.5,0.5,95,207.0
40,E4,17.0,0.5,95,207.0
41,B3,17.5,0.5,95,207.0
42,D5,18.0,0.5,95,207.0
43,B4,18.5,0.5,95,207.0
44,C#5,19.0,0.5,95,207.0
45,D5,19.5,0.25,95,207.0
46,C#5,19.75,0.25,70,207.0
47,B4,20.0,0.5,95,207.0
48,A4,20.5,0.5,95,207.0
49,F#4,21.0,0.5,95,207.0
50,F#3,21.0,1.0,95,207.0
51,A4,21.5,0.5,95,207.0
52,E4,22.0,0.5,95,207.0
53,E3,22.0,1.0,95,207.0
54,A4,22.5,0.5,95,207.0
55,D4,23.0,0.5,95,207.0
56,D3,23.0,1.0,95,207.0
57,A4,23.5,0.5,95,207.0
58,E3,24.0,0.5,95,207.0
59,E4,24.0,6.0,95,207.0
60,B3,24.0,6.0,95,207.0
61,E4,24.0,6.0,95,207.0
62,B3,24.0,6.0,95,207.0
63,E3,24.0,6.0,95,207.0
64,E2,24.0,6.0,95,207.0
65,B3,24.5,0.5,95,207.0
66,E4,25.0,0.5,95,207.0
67,F#4,25.5,0.5,95,207.0
68,E4,26.0,0.5,95,207.0
69,B3,26.5,0.5,95,207.0
70,A4,27.0,0.5,95,207.0
71,F#4,27.5,0.5,95,207.0
72,G#4,28.0,0.5,95,207.0
73,F#4,28.5,0.5,95,207.0
74,E4,29.0,0.5,95,207.0
75,B3,29.5,0.5,95,207.0
76,E3,30.0,0.5,95,207.0
77,B3,30.5,0.5,95,207.0
78,E4,31.0,0.5,95,207.0
79,F#4,31.5,0.5,95,207.0
80,E4,32.0,0.5,95,207.0
81,B3,32.5,0.5,95,207.0
82,D4,33.0,0.5,95,207.0
83,C#4,33.5,0.5,95,207.0
84,B3,34.0,0.5,95,207.0
85,A3,34.5,0.5,95,207.0
86,B3,35.0,0.5,95,207.0
87,E4,35.0,5.0,95,207.0
88,B3,35.0,5.0,95,207.0
89,E4,35.0,5.0,95,207.0
90,B3,35.0,5.0,95,207.0
91,E3,35.0,5.0,95,207.0
92,E2,35.0,5.0,95,207.0
93,C#4,35.5,0.5,95,207.0
94,B3,36.0,0.5,95,207.0
95,E3,36.5,0.5,95,207.0
96,B3,37.0,0.5,95,207.0
97,F#4,37.5,0.5,95,207.0
98,E4,38.0,0.5,95,207.0
99,B3,38.5,0.5,95,207.0
100,A4,39.0,0.5,95,207.0
101,F#4,39.5,0.5,95,207.0
102,G#4,40.0,0.5,95,207.0
103,B2,40.0,0.5,95,207.0
104,F#4,40.5,0.5,95,207.0
105,E3,40.5,0.5,95,207.0
106,E4,41.0,0.5,95,207.0
107,E4,41.0,1.5,95,207.0
108,B3,41.0,1.5,95,207.0
109,E3,41.0,1.5,95,207.0
110,B3,41.5,0.5,95,207.0
111,G2,42.0,0.5,95,207.0
112,D3,42.5,0.5,95,207.0
113,A3,43.0,0.5,95,207.0
114,B3,43.5,0.5,95,207.0
115,D4,44.0,0.5,95,207.0
116,G4,44.5,0.5,95,207.0
117,B4,45.0,0.5,95,207.0
118,D5,45.5,0.5,95,207.0
119,B4,46.0,0.5,95,207.0
120,E5,46.5,0.5,95,207.0
121,C#5,47.0,0.5,95,207.0
122,G4,47.0,0.5,95,207.0
123,D4,47.0,0.5,95,207.0
124,G3,47.0,0.5,95,207.0
125,D3,47.0,0.5,95,207.0
126,A4,47.5,0.5,95,207.0
127,G4,47.5,0.5,95,207.0
128,D4,47.5,0.5,95,207.0
129,G3,47.5,0.5,95,207.0
130,D3,47.5,0.5,95,207.0
131,E4,48.0,0.5,95,207.0
132,G4,48.0,0.5,95,207.0
133,D4,48.0,0.5,95,207.0
134,G3,48.0,0.5,95,207.0
135,D3,48.0,0.5,95,207.0
136,B4,48.5,0.5,95,207.0
137,G4,48.5,0.5,95,207.0
138,D4,48.5,0.5,95,207.0
139,G3,48.5,0.5,95,207.0
140,D3,48.5,0.5,95,207.0
141,E5,49.0,0.5,95,207.0
142,G4,49.0,0.5,95,207.0
143,D4,49.0,0.5,95,207.0
144,G3,49.0,0.5,95,207.0
145,D3,49.0,0.5,95,207.0
146,F#5,49.5,0.5,95,207.0
147,G4,49.5,0.5,95,207.0
148,D4,49.5,0.5,95,207.0
149,G3,49.5,0.5,95,207.0
150,D3,49.5,0.5,95,207.0
151,E5,50.0,0.5,95,207.0
152,A3,50.0,0.5,95,207.0
153,E3,50.0,0.5,95,207.0
154,A2,50.0,0.5,95,207.0
155,B4,50.5,0.5,95,207.0
156,A3,50.5,0.5,95,207.0
157,E3,50.5,0.5,95,207.0
158,A2,50.5,0.5,95,207.0
159,A5,51.0,0.5,95,207.0
160,A3,51.0,0.5,95,207.0
161,E3,51.0,0.5,95,207.0
162,A2,51.0,0.5,95,207.0
163,F#5,51.5,0.5,95,207.0
164,A3,51.5,0.5,95,207.0
165,E3,51.5,0.5,95,207.0
166,A2,51.5,0.5,95,207.0
167,G#5,52.0,0.5,95,207.0
168,A3,52.0,0.5,95,207.0
169,E3,52.0,0.5,95,207.0
170,A2,52.0,0.5,95,207.0
171,F#5,52.5,0.5,95,207.0
172,A3,52.5,0.5,95,207.0
173,E3,52.5,0.5,95,207.0
174,A2,52.5,0.5,95,207.0
175,E5,53.0,0.5,95,207.0
176,E3,53.0,3.0,95,207.0
177,B2,53.0,6.0,95,207.0
178,E2,53.0,6.0,95,207.0
179,B4,53.5,0.5,95,207.0
180,E4,54.0,0.5,95,207.0
181,B4,54.5,0.5,95,207.0
182,E5,55.0,0.5,95,207.0
183,F#5,55.5,0.5,95,207.0
184,E5,56.0,0.5,95,207.0
185,E4,56.0,3.0,95,207.0
186,B3,56.0,3.0,95,207.0
187,E3,56.0,3.0,95,207.0
188,B4,56.5,0.5,95,207.0
189,D5,57.0,0.5,95,207.0
190,C#5,57.5,0.5,95,207.0
191,B4,58.0,0.5,95,207.0
192,A4,58.5,0.5,95,207.0
193,B4,59.0,0.5,95,207.0
194,E3,59.0,3.0,95,207.0
195,B2,59.0,3.0,95,207.0
196,E2,59.0,3.0,95,207.0
197,C#5,59.5,0.5,95,207.0
198,B4,60.0,0.5,95,207.0
199,E4,60.5,0.5,95,207.0
200,B4,61.0,0.5,95,207.0
201,F#5,61.5,0.5,95,207.0
202,E5,62.0,0.5,95,207.0
203,A3,62.0,1.5,95,207.0
204,E3,62.0,1.5,95,207.0
205,A2,62.0,1.5,95,207.0
206,B4,62.5,0.5,95,207.0
207,A5,63.0,0.5,95,207.0
208,F#5,63.5,0.5,95,207.0
209,E3,63.5,0.5,95,207.0
210,A2,63.5,0.5,95,207.0
211,G#5,64.0,0.5,95,207.0
212,E3,64.0,0.5,95,207.0
213,A2,64.0,0.5,95,207.0
214,F#5,64.5,0.5,95,207.0
215,E3,64.5,0.5,95,207.0
216,A2,64.5,0.5,95,207.0
217,E5,65.0,0.5,95,207.0
218,E3,65.0,3.0,95,207.0
219,B2,65.0,6.0,95,207.0
220,E2,65.0,6.0,95,207.0
221,B4,65.5,0.5,95,207.0
222,D6,66.0,0.5,95,207.0
223,B5,66.5,0.5,95,207.0
224,C#6,67.0,0.5,95,207.0
225,D6,67.5,0.25,95,207.0
226,C#6,67.75,0.25,70,207.0
227,B5,68.0,0.5,95,207.0
228,E4,68.0,3.0,95,207.0
229,B3,68.0,3.0,95,207.0
230,E3,68.0,3.0,95,207.0
231,A5,68.5,0.5,95,207.0
232,F#5,69.0,0.5,95,207.0
233,A5,69.5,0.5,95,207.0
234,E5,70.0,0.5,95,207.0
235,A5,70.5,0.5,95,207.0
236,D5,71.0,0.5,95,207.0
237,G4,71.0,3.0,95,207.0
238,D4,71.0,3.0,95,207.0
239,G3,71.0,3.0,95,207.0
240,D3,71.0,3.0,95,207.0
241,A5,71.5,0.5,95,207.0
242,E4,72.0,0.5,95,207.0
243,B4,72.5,0.5,95,207.0
244,E5,73.0,0.5,95,207.0
245,F#5,73.5,0.5,95,207.0
246,E5,74.0,0.5,95,207.0
247,D4,74.0,1.5,95,207.0
248,A3,74.0,1.5,95,207.0
249,D3,74.0,1.5,95,207.0
250,B4,74.5,0.5,95,207.0
251,A5,75.0,0.5,95,207.0
252,F#5,75.5,0.5,95,207.0
253,D4,75.5,0.5,95,207.0
254,A3,75.5,0.5,95,207.0
255,D3,75.5,0.5,95,207.0
256,G#5,76.0,0.5,95,207.0
257,D4,76.0,0.5,95,207.0
258,A3,76.0,0.5,95,207.0
259,D3,76.0,0.5,95,207.0
260,F#5,76.5,0.5,95,207.0
261,D4,76.5,0.5,95,207.0
262,A3,76.5,0.5,95,207.0
263,D3,76.5,0.5,95,207.0
264,E5,77.0,0.5,95,207.0
265,E3,77.0,3.0,95,207.0
266,B2,77.0,6.0,95,207.0
267,E2,77.0,6.0,95,207.0
268,B4,77.5,0.5,95,207.0
269,E4,78.0,0.5,95,207.0
270,B4,78.5,0.5,95,207.0
271,E5,79.0,0.5,95,207.0
272,F#5,79.5,0.5,95,207.0
273,E5,80.0,0.5,95,207.0
274,E4,80.0,3.0,95,207.0
275,B3,80.0,3.0,95,207.0
276,E3,80.0,3.0,95,207.0
277,B4,80.5,0.5,95,207.0
278,D5,81.0,0.5,95,207.0
279,C#5,81.5,0.5,95,207.0
280,B4,82.0,0.5,95,207.0
281,A4,82.5,0.5,95,207.0
282,B4,83.0,0.5,95,207.0
283,E3,83.0,3.0,95,207.0
284,B2,83.0,3.0,95,207.0
285,E2,83.0,3.0,95,207.0
286,C#5,83.5,0.5,95,207.0
287,B4,84.0,0.5,95,207.0
288,E4,84.5,0.5,95,207.0
289,B4,85.0,0.5,95,207.0
290,F#5,85.5,0.5,95,207.0
291,E5,86.0,0.5,95,207.0
292,A3,86.0,1.5,95,207.0
293,E3,86.0,1.5,95,207.0
294,A2,86.0,1.5,95,207.0
295,B4,86.5,0.5,95,207.0
296,A5,87.0,0.5,95,207.0
297,F#5,87.5,0.5,95,207.0
298,E3,87.5,0.5,95,207.0
299,A2,87.5,0.5,95,207.0
300,G#5,88.0,0.5,95,207.0
301,E3,88.0,0.5,95,207.0
302,A2,88.0,0.5,95,207.0
303,F#5,88.5,0.5,95,207.0
304,E3,88.5,0.5,95,207.0
305,A2,88.5,0.5,95,207.0
306,E5,89.0,0.5,95,207.0
307,E3,89.0,3.0,95,207.0
308,B2,89.0,6.0,95,207.0
309,E2,89.0,6.0,95,207.0
310,B4,89.5,0.5,95,207.0
311,G3,90.0,0.5,95,207.0
312,D4,90.5,0.5,95,207.0
313,A4,91.0,0.5,95,207.0
314,B4,91.5,0.5,95,207.0
315,D5,92.0,0.5,95,207.0
316,E4,92.0,3.0,95,207.0
317,B3,92.0,3.0,95,207.0
318,E3,92.0,3.0,95,207.0
319,G5,92.5,0.5,95,207.0
320,B5,93.0,0.5,95,207.0
321,D6,93.5,0.5,95,207.0
322,B5,94.0,0.5,95,207.0
323,E6,94.5,0.5,95,207.0
324,C#6,95.0,0.5,95,207.0
325,G4,95.0,0.5,95,207.0
326,D4,95.0,0.5,95,207.0
327,G3,95.0,0.5,95,207.0
328,D3,95.0,0.5,95,207.0
329,A5,95.5,0.5,95,207.0
330,G4,95.5,0.5,95,207.0
331,D4,95.5,0.5,95,207.0
332,G3,95.5,0.5,95,207.0
333,D3,95.5,0.5,95,207.0
334,G#4,96.0,1.0,95,207.0
335,G4,96.0,0.5,95,207.0
336,D4,96.0,0.5,95,207.0
337,G3,96.0,0.5,95,207.0
338,D3,96.0,0.5,95,207.0
339,E4,96.0,1.0,95,207.0
340,E4,96.0,1.0,95,207.0
341,B3,96.0,1.0,95,207.0
342,E3,96.0,1.0,95,207.0
343,B2,96.0,1.0,95,207.0
344,E2,96.0,1.0,95,207.0
345,G4,96.5,0.5,95,207.0
346,D4,96.5,0.5,95,207.0
347,G3,96.5,0.5,95,207.0
348,D3,96.5,0.5,95,207.0
349,A4,97.0,1.0,95,207.0
350,G4,97.0,0.5,95,207.0
351,D4,97.0,0.5,95,207.0
352,G3,97.0,0.5,95,207.0
353,D3,97.0,0.5,95,207.0
354,E4,97.0,0.5,95,207.0
355,E4,97.0,0.5,95,207.0
356,B3,97.0,0.5,95,207.0
357,E3,97.0,0.5,95,207.0
358,B2,97.0,0.5,95,207.0
359,E2,97.0,0.5,95,207.0
360,G4,97.5,0.5,95,207.0
361,D4,97.5,0.5,95,207.0
362,G3,97.5,0.5,95,207.0
363,D3,97.5,0.5,95,207.0
364,E4,97.5,1.5,95,207.0
365,E4,97.5,1.5,95,207.0
366,B3,97.5,1.5,95,207.0
367,E3,97.5,1.5,95,207.0
368,B2,97.5,1.5,95,207.0
369,E2,97.5,1.5,95,207.0
370,B4,98.0,1.0,95,207.0
371,A3,98.0,0.5,95,207.0
372,E3,98.0,0.5,95,207.0
373,A2,98.0,0.5,95,207.0
374,A3,98.5,0.5,95,207.0
375,E3,98.5,0.5,95,207.0
376,A2,98.5,0.5,95,207.0
377,A4,99.0,3.0,95,207.0
378,A3,99.0,0.5,95,207.0
379,E3,99.0,0.5,95,207.0
380,A2,99.0,0.5,95,207.0
381,E4,99.0,0.5,95,207.0
382,E4,99.0,0.5,95,207.0
383,B3,99.0,0.5,95,207.0
384,E3,99.0,0.5,95,207.0
385,B2,99.0,0.5,95,207.0
386,E2,99.0,0.5,95,207.0
387,A3,99.5,0.5,95,207.0
388,E3,99.5,0.5,95,207.0
389,A2,99.5,0.5,95,207.0
390,E4,99.5,0.5,95,207.0
391,E4,99.5,0.5,95,207.0
392,B3,99.5,0.5,95,207.0
393,E3,99.5,0.5,95,207.0
394,B2,99.5,0.5,95,207.0
395,E2,99.5,0.5,95,207.0
396,A3,100.0,0.5,95,207.0
397,E3,100.0,0.5,95,207.0
398,A2,100.0,0.5,95,207.0
399,E4,100.0,0.5,95,207.0
400,E4,100.0,0.5,95,207.0
401,B3,100.0,0.5,95,207.0
402,E3,100.0,0.5,95,207.0
403,B2,100.0,0.5,95,207.0
404,E2,100.0,0.5,95,207.0
405,A3,100.5,0.5,95,207.0
406,E3,100.5,0.5,95,207.0
407,A2,100.5,0.5,95,207.0
408,E4,100.5,0.5,95,207.0
409,E4,100.5,0.5,95,207.0
410,B3,100.5,0.5,95,207.0
411,E3,100.5,0.5,95,207.0
412,B2,100.5,0.5,95,207.0
413,E2,100.5,0.5,95,207.0
414,E4,101.0,6.0,95,207.0
415,B3,101.0,6.0,95,207.0
416,E4,101.0,6.0,95,207.0
417,B3,101.0,6.0,95,207.0
418,E3,101.0,6.0,95,207.0
419,E2,101.0,6.0,95,207.0
420,E4,101.0,0.5,95,207.0
421,E4,101.0,0.5,95,207.0
422,B3,101.0,0.5,95,207.0
423,E3,101.0,0.5,95,207.0
424,B2,101.0,0.5,95,207.0
425,E2,101.0,0.5,95,207.0
426,E4,101.5,0.5,95,207.0
427,E4,101.5,0.5,95,207.0
428,B3,101.5,0.5,95,207.0
429,E3,101.5,0.5,95,207.0
430,B2,101.5,0.5,95,207.0
431,E2,101.5,0.5,95,207.0
432,A4,102.0,2.0,95,207.0
433,E4,102.0,1.0,95,207.0
434,E4,102.0,1.0,95,207.0
435,B3,102.0,1.0,95,207.0
436,E3,102.0,1.0,95,207.0
437,B2,102.0,1.0,95,207.0
438,E2,102.0,1.0,95,207.0
439,E4,103.0,0.5,95,207.0
440,E4,103.0,0.5,95,207.0
441,B3,103.0,0.5,95,207.0
442,E3,103.0,0.5,95,207.0
443,B2,103.0,0.5,95,207.0
444,E2,103.0,0.5,95,207.0
445,E4,103.5,1.5,95,207.0
446,E4,103.5,1.5,95,207.0
447,B3,103.5,1.5,95,207.0
448,E3,103.5,1.5,95,207.0
449,B2,103.5,1.5,95,207.0
450,E2,103.5,1.5,95,207.0
451,G#4,104.0,0.5,95,207.0
452,A4,104.5,0.5,95,207.0
453,B4,105.0,0.5,95,207.0
454,E4,105.0,0.5,95,207.0
455,E4,105.0,0.5,95,207.0
456,B3,105.0,0.5,95,207.0
457,E3,105.0,0.5,95,207.0
458,B2,105.0,0.5,95,207.0
459,E2,105.0,0.5,95,207.0
460,E4,105.5,0.5,95,207.0
461,E4,105.5,0.5,95,207.0
462,B3,105.5,0.5,95,207.0
463,E3,105.5,0.5,95,207.0
464,B2,105.5,0.5,95,207.0
465,E2,105.5,0.5,95,207.0
466,A4,106.0,0.5,95,207.0
467,E4,106.0,0.5,95,207.0
468,E4,106.0,0.5,95,207.0
469,B3,106.0,0.5,95,207.0
470,E3,106.0,0.5,95,207.0
471,B2,106.0,0.5,95,207.0
472,E2,106.0,0.5,95,207.0
473,E4,106.5,1.5,95,207.0
474,E4,106.5,1.5,95,207.0
475,B3,106.5,1.5,95,207.0
476,E3,106.5,1.5,95,207.0
477,B2,106.5,1.5,95,207.0
478,E2,106.5,1.5,95,207.0
479,G#4,107.0,0.5,95,207.0
480,E4,107.5,0.5,95,207.0
481,F#4,108.0,2.5,95,207.0
482,F#4,108.0,1.0,95,207.0
483,D4,108.0,1.0,95,207.0
484,B3,108.0,1.0,95,207.0
485,F#3,108.0,1.0,95,207.0
486,B2,108.0,1.0,95,207.0
487,F#4,109.0,0.5,95,207.0
488,D4,109.0,0.5,95,207.0
489,B3,109.0,0.5,95,207.0
490,F#3,109.0,0.5,95,207.0
491,B2,109.0,0.5,95,207.0
492,F#4,109.5,1.5,95,207.0
493,D4,109.5,1.5,95,207.0
494,B3,109.5,1.5,95,207.0
495,F#3,109.5,1.5,95,207.0
496,B2,109.5,1.5,95,207.0
497,E4,110.0,3.0,95,207.0
498,B3,110.0,3.0,95,207.0
499,E4,110.0,3.0,95,207.0
500,B3,110.0,3.0,95,207.0
501,E3,110.0,3.0,95,207.0
502,E2,110.0,3.0,95,207.0
503,D4,110.5,0.5,95,207.0
504,D4,111.0,3.0,95,207.0
505,F#4,111.0,0.5,95,207.0
506,D4,111.0,0.5,95,207.0
507,B3,111.0,0.5,95,207.0
508,F#3,111.0,0.5,95,207.0
509,B2,111.0,0.5,95,207.0
510,F#4,111.5,0.5,95,207.0
511,D4,111.5,0.5,95,207.0
512,B3,111.5,0.5,95,207.0
513,F#3,111.5,0.5,95,207.0
514,B2,111.5,0.5,95,207.0
515,F#4,112.0,0.5,95,207.0
516,D4,112.0,0.5,95,207.0
517,B3,112.0,0.5,95,207.0
518,F#3,112.0,0.5,95,207.0
519,B2,112.0,0.5,95,207.0
520,F#4,112.5,0.5,95,207.0
521,D4,112.5,0.5,95,207.0
522,B3,112.5,0.5,95,207.0
523,F#3,112.5,0.5,95,207.0
524,B2,112.5,0.5,95,207.0
525,E4,113.0,3.0,95,207.0
526,B3,113.0,3.0,95,207.0
527,E4,113.0,3.0,95,207.0
528,B3,113.0,3.0,95,207.0
529,E3,113.0,3.0,95,207.0
530,E2,113.0,3.0,95,207.0
531,F#4,113.0,0.5,95,207.0
532,D4,113.0,0.5,95,207.0
533,B3,113.0,0.5,95,207.0
534,F#3,113.0,0.5,95,207.0
535,B2,113.0,0.5,95,207.0
536,F#4,113.5,0.5,95,207.0
537,D4,113.5,0.5,95,207.0
538,B3,113.5,0.5,95,207.0
539,F#3,113.5,0.5,95,207.0
540,B2,113.5,0.5,95,207.0
541,D4,114.0,5.0,95,207.0
542,F#4,114.0,1.0,95,207.0
543,D4,114.0,1.0,95,207.0
544,B3,114.0,1.0,95,207.0
545,F#3,114.0,1.0,95,207.0
546,B2,114.0,1.0,95,207.0
547,F#4,115.0,0.5,95,207.0
548,D4,115.0,0.5,95,207.0
549,B3,115.0,0.5,95,207.0
550,F#3,115.0,0.5,95,207.0
551,B2,115.0,0.5,95,207.0
552,F#4,115.5,1.5,95,207.0
553,D4,115.5,1.5,95,207.0
554,B3,115.5,1.5,95,207.0
555,F#3,115.5,1.5,95,207.0
556,B2,115.5,1.5,95,207.0
557,B3,116.0,6.0,95,207.0
558,F#3,116.0,6.0,95,207.0
559,B2,116.0,6.0,95,207.0
560,F#4,117.0,0.5,95,207.0
561,D4,117.0,0.5,95,207.0
562,B3,117.0,0.5,95,207.0
563,F#3,117.0,0.5,95,207.0
564,B2,117.0,0.5,95,207.0
565,F#4,117.5,0.5,95,207.0
566,D4,117.5,0.5,95,207.0
567,B3,117.5,0.5,95,207.0
568,F#3,117.5,0.5,95,207.0
569,B2,117.5,0.5,95,207.0
570,F#4,118.0,0.5,95,207.0
571,D4,118.0,0.5,95,207.0
572,B3,118.0,0.5,95,207.0
573,F#3,118.0,0.5,95,207.0
574,B2,118.0,0.5,95,207.0
575,F#4,118.5,1.5,95,207.0
576,D4,118.5,1.5,95,207.0
577,B3,118.5,1.5,95,207.0
578,F#3,118.5,1.5,95,207.0
579,B2,118.5,1.5,95,207.0
580,F#4,120.0,1.0,95,207.0
581,D4,120.0,1.0,95,207.0
582,A3,120.0,1.0,95,207.0
583,D3,120.0,1.0,95,207.0
584,G#4,121.0,1.0,95,207.0
585,D4,121.0,0.5,95,207.0
586,A3,121.0,0.5,95,207.0
587,D3,121.0,0.5,95,207.0
588,D4,121.5,1.5,95,207.0
589,A3,121.5,1.5,95,207.0
590,D3,121.5,1.5,95,207.0
591,A4,122.0,1.0,95,207.0
592,G#4,123.0,3.0,95,207.0
593,D4,123.0,0.5,95,207.0
594,A3,123.0,0.5,95,207.0
595,D3,123.0,0.5,95,207.0
596,D4,123.5,0.5,95,207.0
597,A3,123.5,0.5,95,207.0
598,D3,123.5,0.5,95,207.0
599,D4,124.0,0.5,95,207.0
600,A3,124.0,0.5,95,207.0
601,D3,124.0,0.5,95,207.0
602,D4,124.5,0.5,95,207.0
603,A3,124.5,0.5,95,207.0
604,D3,124.5,0.5,95,207.0
605,B3,125.0,3.0,95,207.0
606,F#3,125.0,3.0,95,207.0
607,B2,125.0,3.0,95,207.0
608,D4,125.0,0.5,95,207.0
609,A3,125.0,0.5,95,207.0
610,D3,125.0,0.5,95,207.0
611,D4,125.5,0.5,95,207.0
612,A3,125.5,0.5,95,207.0
613,D3,125.5,0.5,95,207.0
614,G#4,126.0,2.0,95,207.0
615,D4,126.0,1.0,95,207.0
616,A3,126.0,1.0,95,207.0
617,D3,126.0,1.0,95,207.0
618,D4,127.0,0.5,95,207.0
619,A3,127.0,0.5,95,207.0
620,D3,127.0,0.5,95,207.0
621,D4,127.5,1.5,95,207.0
622,A3,127.5,1.5,95,207.0
623,D3,127.5,1.5,95,207.0
624,F#4,128.0,0.5,95,207.0
625,B3,128.0,3.0,95,207.0
626,F#3,128.0,3.0,95,207.0
627,B2,128.0,3.0,95,207.0
628,G#4,128.5,0.5,95,207.0
629,A4,129.0,0.5,95,207.0
630,D4,129.0,0.5,95,207.0
631,A3,129.0,0.5,95,207.0
632,D3,129.0,0.5,95,207.0
633,D4,129.5,0.5,95,207.0
634,A3,129.5,0.5,95,207.0
635,D3,129.5,0.5,95,207.0
636,G#4,130.0,0.5,95,207.0
637,D4,130.0,0.5,95,207.0
638,A3,130.0,0.5,95,207.0
639,D3,130.0,0.5,95,207.0
640,D4,130.5,1.5,95,207.0
641,A3,130.5,1.5,95,207.0
642,D3,130.5,1.5,95,207.0
643,F#4,131.0,0.5,95,207.0
644,D4,131.0,6.0,95,207.0
645,A3,131.0,6.0,95,207.0
646,D3,131.0,6.0,95,207.0
647,D4,131.5,0.5,95,207.0
648,E4,132.0,6.0,95,207.0
649,E4,132.0,1.0,95,207.0
650,E4,132.0,1.0,95,207.0
651,B3,132.0,1.0,95,207.0
652,E3,132.0,1.0,95,207.0
653,B2,132.0,1.0,95,207.0
654,E2,132.0,1.0,95,207.0
655,E4,133.0,0.5,95,207.0
656,E4,133.0,0.5,95,207.0
657,B3,133.0,0.5,95,207.0
658,E3,133.0,0.5,95,207.0
659,B2,133.0,0.5,95,207.0
660,E2,133.0,0.5,95,207.0
661,E4,133.5,1.5,95,207.0
662,E4,133.5,1.5,95,207.0
663,B3,133.5,1.5,95,207.0
664,E3,133.5,1.5,95,207.0
665,B2,133.5,1.5,95,207.0
666,E2,133.5,1.5,95,207.0
667,E4,135.0,0.5,95,207.0
668,E4,135.0,0.5,95,207.0
669,B3,135.0,0.5,95,207.0
670,E3,135.0,0.5,95,207.0
671,B2,135.0,0.5,95,207.0
672,E2,135.0,0.5,95,207.0
673,E4,135.5,0.5,95,207.0
674,E4,135.5,0.5,95,207.0
675,B3,135.5,0.5,95,207.0
676,E3,135.5,0.5,95,207.0
677,B2,135.5,0.5,95,207.0
678,E2,135.5,0.5,95,207.0
679,E4,136.0,0.5,95,207.0
680,E4,136.0,0.5,95,207.0
681,B3,136.0,0.5,95,207.0
682,E3,136.0,0.5,95,207.0
683,B2,136.0,0.5,95,207.0
684,E2,136.0,0.5,95,207.0
685,E4,136.5,0.5,95,207.0
686,E4,136.5,0.5,95,207.0
687,B3,136.5,0.5,95,207.0
688,E3,136.5,0.5,95,207.0
689,B2,136.5,0.5,95,207.0
690,E2,136.5,0.5,95,207.0
691,E4,137.0,0.5,95,207.0
692,E4,137.0,0.5,95,207.0
693,B3,137.0,0.5,95,207.0
694,E3,137.0,0.5,95,207.0
695,B2,137.0,0.5,95,207.0
696,E2,137.0,0.5,95,207.0
697,E4,137.5,0.5,95,207.0
698,E4,137.5,0.5,95,207.0
699,B3,137.5,0.5,95,207.0
700,E3,137.5,0.5,95,207.0
701,B2,137.5,0.5,95,207.0
702,E2,137.5,0.5,95,207.0
703,E4,138.0,6.0,95,207.0
704,E4,138.0,1.0,95,207.0
705,E4,138.0,1.0,95,207.0
706,B3,138.0,1.0,95,207.0
707,E3,138.0,1.0,95,207.0
708,B2,138.0,1.0,95,207.0
709,E2,138.0,1.0,95,207.0
710,E4,139.0,0.5,95,207.0
711,E4,139.0,0.5,95,207.0
712,B3,139.0,0.5,95,207.0
713,E3,139.0,0.5,95,207.0
714,B2,139.0,0.5,95,207.0
715,E2,139.0,0.5,95,207.0
716,E4,139.5,1.5,95,207.0
717,E4,139.5,1.5,95,207.0
718,B3,139.5,1.5,95,207.0
719,E3,139.5,1.5,95,207.0
720,B2,139.5,1.5,95,207.0
721,E2,139.5,1.5,95,207.0
722,D4,140.0,3.0,95,207.0
723,A3,140.0,3.0,95,207.0
724,D3,140.0,3.0,95,207.0
725,E4,141.0,0.5,95,207.0
726,E4,141.0,0.5,95,207.0
727,B3,141.0,0.5,95,207.0
728,E3,141.0,0.5,95,207.0
729,B2,141.0,0.5,95,207.0
730,E2,141.0,0.5,95,207.0
731,E4,141.5,0.5,95,207.0
732,E4,141.5,0.5,95,207.0
733,B3,141.5,0.5,95,207.0
734,E3,141.5,0.5,95,207.0
735,B2,141.5,0.5,95,207.0
736,E2,141.5,0.5,95,207.0
737,E4,142.0,0.5,95,207.0
738,E4,142.0,0.5,95,207.0
739,B3,142.0,0.5,95,207.0
740,E3,142.0,0.5,95,207.0
741,B2,142.0,0.5,95,207.0
742,E2,142.0,0.5,95,207.0
743,E4,142.5,1.5,95,207.0
744,E4,142.5,1.5,95,207.0
745,B3,142.5,1.5,95,207.0
746,E3,142.5,1.5,95,207.0
747,B2,142.5,1.5,95,207.0
748,E2,142.5,1.5,95,207.0
749,D4,143.0,3.0,95,207.0
750,A3,143.0,3.0,95,207.0
751,D3,143.0,3.0,95,207.0
752,G#4,144.0,1.0,95,207.0
753,E4,144.0,1.0,95,207.0
754,E4,144.0,1.0,95,207.0
755,B3,144.0,1.0,95,207.0
756,E3,144.0,1.0,95,207.0
757,B2,144.0,1.0,95,207.0
758,E2,144.0,1.0,95,207.0
759,A4,145.0,1.0,95,207.0
760,E4,145.0,0.5,95,207.0
761,E4,145.0,0.5,95,207.0
762,B3,145.0,0.5,95,207.0
763,E3,145.0,0.5,95,207.0
764,B2,145.0,0.5,95,207.0
765,E2,145.0,0.5,95,207.0
766,E4,145.5,1.5,95,207.0
767,E4,145.5,1.5,95,207.0
768,B3,145.5,1.5,95,207.0
769,E3,145.5,1.5,95,207.0
770,B2,145.5,1.5,95,207.0
771,E2,145.5,1.5,95,207.0
772,B4,146.0,1.0,95,207.0
773,E2,146.0,1.0,95,207.0
774,A4,147.0,3.0,95,207.0
775,E3,147.0,1.0,95,207.0
776,E4,147.0,0.5,95,207.0
777,E4,147.0,0.5,95,207.0
778,B3,147.0,0.5,95,207.0
779,E3,147.0,0.5,95,207.0
780,B2,147.0,0.5,95,207.0
781,E2,147.0,0.5,95,207.0
782,E4,147.5,0.5,95,207.0
783,E4,147.5,0.5,95,207.0
784,B3,147.5,0.5,95,207.0
785,E3,147.5,0.5,95,207.0
786,B2,147.5,0.5,95,207.0
787,E2,147.5,0.5,95,207.0
788,E2,148.0,0.5,95,207.0
789,E4,148.0,0.5,95,207.0
790,E4,148.0,0.5,95,207.0
791,B3,148.0,0.5,95,207.0
792,E3,148.0,0.5,95,207.0
793,B2,148.0,0.5,95,207.0
794,E2,148.0,0.5,95,207.0
795,E2,148.5,0.5,95,207.0
796,E4,148.5,0.5,95,207.0
797,E4,148.5,0.5,95,207.0
798,B3,148.5,0.5,95,207.0
799,E3,148.5,0.5,95,207.0
800,B2,148.5,0.5,95,207.0
801,E2,148.5,0.5,95,207.0
802,D3,149.0,0.5,95,207.0
803,E4,149.0,0.5,95,207.0
804,E4,149.0,0.5,95,207.0
805,B3,149.0,0.5,95,207.0
806,E3,149.0,0.5,95,207.0
807,B2,149.0,0.5,95,207.0
808,E2,149.0,0.5,95,207.0
809,A2,149.5,0.5,95,207.0
810,E4,149.5,0.5,95,207.0
811,E4,149.5,0.5,95,207.0
812,B3,149.5,0.5,95,207.0
813,E3,149.5,0.5,95,207.0
814,B2,149.5,0.5,95,207.0
815,E2,149.5,0.5,95,207.0
816,A4,150.0,2.0,95,207.0
817,C#3,150.0,0.5,95,207.0
818,E4,150.0,1.0,95,207.0
819,E4,150.0,1.0,95,207.0
820,B3,150.0,1.0,95,207.0
821,E3,150.0,1.0,95,207.0
822,B2,150.0,1.0,95,207.0
823,E2,150.0,1.0,95,207.0
824,A2,150.5,0.5,95,207.0
825,B2,151.0,0.5,95,207.0
826,E4,151.0,0.5,95,207.0
827,E4,151.0,0.5,95,207.0
828,B3,151.0,0.5,95,207.0
829,E3,151.0,0.5,95,207.0
830,B2,151.0,0.5,95,207.0
831,E2,151.0,0.5,95,207.0
832,A2,151.5,0.5,95,207.0
833,E4,151.5,1.5,95,207.0
834,E4,151.5,1.5,95,207.0
835,B3,151.5,1.5,95,207.0
836,E3,151.5,1.5,95,207.0
837,B2,151.5,1.5,95,207.0
838,E2,151.5,1.5,95,207.0
839,B4,152.0,0.5,95,207.0
840,E2,152.0,1.0,95,207.0
841,C#5,152.5,0.5,95,207.0
842,D5,153.0,1.0,95,207.0
843,E3,153.0,1.0,95,207.0
844,E4,153.0,0.5,95,207.0
845,E4,153.0,0.5,95,207.0
846,B3,153.0,0.5,95,207.0
847,E3,153.0,0.5,95,207.0
848,B2,153.0,0.5,95,207.0
849,E2,153.0,0.5,95,207.0
850,E4,153.5,0.5,95,207.0
851,E4,153.5,0.5,95,207.0
852,B3,153.5,0.5,95,207.0
853,E3,153.5,0.5,95,207.0
854,B2,153.5,0.5,95,207.0
855,E2,153.5,0.5,95,207.0
856,C#5,154.0,1.0,95,207.0
857,F#3,154.0,0.5,95,207.0
858,E4,154.0,0.5,95,207.0
859,E4,154.0,0.5,95,207.0
860,B3,154.0,0.5,95,207.0
861,E3,154.0,0.5,95,207.0
862,B2,154.0,0.5,95,207.0
863,E2,154.0,0.5,95,207.0
864,G#3,154.5,0.5,95,207.0
865,E4,154.5,1.5,95,207.0
866,E4,154.5,1.5,95,207.0
867,B3,154.5,1.5,95,207.0
868,E3,154.5,1.5,95,207.0
869,B2,154.5,1.5,95,207.0
870,E2,154.5,1.5,95,207.0
871,B4,155.0,0.5,95,207.0
872,A3,155.0,0.5,95,207.0
873,A4,155.5,0.5,95,207.0
874,G#3,155.5,0.5,95,207.0
875,B4,156.0,2.0,95,207.0
876,F#3,156.0,0.5,95,207.0
877,F#4,156.0,1.0,95,207.0
878,D4,156.0,1.0,95,207.0
879,B3,156.0,1.0,95,207.0
880,F#3,156.0,1.0,95,207.0
881,B2,156.0,1.0,95,207.0
882,D3,156.5,0.5,95,207.0
883,E3,157.0,0.5,95,207.0
884,F#4,157.0,0.5,95,207.0
885,D4,157.0,0.5,95,207.0
886,B3,157.0,0.5,95,207.0
887,F#3,157.0,0.5,95,207.0
888,B2,157.0,0.5,95,207.0
889,F#3,157.5,0.5,95,207.0
890,F#4,157.5,1.5,95,207.0
891,D4,157.5,1.5,95,207.0
892,B3,157.5,1.5,95,207.0
893,F#3,157.5,1.5,95,207.0
894,B2,157.5,1.5,95,207.0
895,F#4,158.0,1.0,95,207.0
896,E4,158.0,6.0,95,207.0
897,B3,158.0,6.0,95,207.0
898,E4,158.0,6.0,95,207.0
899,B3,158.0,6.0,95,207.0
900,E3,158.0,6.0,95,207.0
901,E2,158.0,6.0,95,207.0
902,F#4,159.0,3.0,95,207.0
903,F#4,159.0,0.5,95,207.0
904,D4,159.0,0.5,95,207.0
905,B3,159.0,0.5,95,207.0
906,F#3,159.0,0.5,95,207.0
907,B2,159.0,0.5,95,207.0
908,F#4,159.5,0.5,95,207.0
909,D4,159.5,0.5,95,207.0
910,B3,159.5,0.5,95,207.0
911,F#3,159.5,0.5,95,207.0
912,B2,159.5,0.5,95,207.0
913,F#4,160.0,0.5,95,207.0
914,D4,160.0,0.5,95,207.0
915,B3,160.0,0.5,95,207.0
916,F#3,160.0,0.5,95,207.0
917,B2,160.0,0.5,95,207.0
918,F#4,160.5,0.5,95,207.0
919,D4,160.5,0.5,95,207.0
920,B3,160.5,0.5,95,207.0
921,F#3,160.5,0.5,95,207.0
922,B2,160.5,0.5,95,207.0
923,F#4,161.0,0.5,95,207.0
924,D4,161.0,0.5,95,207.0
925,B3,161.0,0.5,95,207.0
926,F#3,161.0,0.5,95,207.0
927,B2,161.0,0.5,95,207.0
928,F#4,161.5,0.5,95,207.0
929,D4,161.5,0.5,95,207.0
930,B3,161.5,0.5,95,207.0
931,F#3,161.5,0.5,95,207.0
932,B2,161.5,0.5,95,207.0
933,F#4,162.0,5.5,95,207.0
934,F#4,162.0,1.0,95,207.0
935,D4,162.0,1.0,95,207.0
936,B3,162.0,1.0,95,207.0
937,F#3,162.0,1.0,95,207.0
938,B2,162.0,1.0,95,207.0
939,F#4,163.0,0.5,95,207.0
940,D4,163.0,0.5,95,207.0
941,B3,163.0,0.5,95,207.0
942,F#3,163.0,0.5,95,207.0
943,B2,163.0,0.5,95,207.0
944,F#4,163.5,1.5,95,207.0
945,D4,163.5,1.5,95,207.0
946,B3,163.5,1.5,95,207.0
947,F#3,163.5,1.5,95,207.0
948,B2,163.5,1.5,95,207.0
949,F#4,165.0,0.5,95,207.0
950,D4,165.0,0.5,95,207.0
951,B3,165.0,0.5,95,207.0
952,F#3,165.0,0.5,95,207.0
953,B2,165.0,0.5,95,207.0
954,F#4,165.5,0.5,95,207.0
955,D4,165.5,0.5,95,207.0
956,B3,165.5,0.5,95,207.0
957,F#3,165.5,0.5,95,207.0
958,B2,165.5,0.5,95,207.0
959,F#4,166.0,0.5,95,207.0
960,D4,166.0,0.5,95,207.0
961,B3,166.0,0.5,95,207.0
962,F#3,166.0,0.5,95,207.0
963,B2,166.0,0.5,95,207.0
964,F#4,166.5,1.5,95,207.0
965,D4,166.5,1.5,95,207.0
966,B3,166.5,1.5,95,207.0
967,F#3,166.5,1.5,95,207.0
968,B2,166.5,1.5,95,207.0
969,E4,167.0,3.0,95,207.0
970,B3,167.0,3.0,95,207.0
971,E4,167.0,3.0,95,207.0
972,B3,167.0,3.0,95,207.0
973,E3,167.0,3.0,95,207.0
974,E2,167.0,3.0,95,207.0
975,A4,168.0,1.0,95,207.0
976,F#4,168.0,1.0,95,207.0
977,C#4,168.0,1.0,95,207.0
978,A3,168.0,1.0,95,207.0
979,F#3,168.0,1.0,95,207.0
980,C#3,168.0,1.0,95,207.0
981,F#2,168.0,1.0,95,207.0
982,B4,169.0,1.0,95,207.0
983,F#4,169.0,0.5,95,207.0
984,C#4,169.0,0.5,95,207.0
985,A3,169.0,0.5,95,207.0
986,F#3,169.0,0.5,95,207.0
987,C#3,169.0,0.5,95,207.0
988,F#2,169.0,0.5,95,207.0
989,F#4,169.5,1.5,95,207.0
990,C#4,169.5,1.5,95,207.0
991,A3,169.5,1.5,95,207.0
992,F#3,169.5,1.5,95,207.0
993,C#3,169.5,1.5,95,207.0
994,F#2,169.5,1.5,95,207.0
995,C#5,170.0,1.0,95,207.0
996,E4,170.0,3.0,95,207.0
997,B3,170.0,3.0,95,207.0
998,E4,170.0,3.0,95,207.0
999,B3,170.0,3.0,95,207.0
1000,E3,170.0,3.0,95,207.0
1001,E2,170.0,3.0,95,207.0
1002,B4,171.0,3.0,95,207.0
1003,F#4,171.0,0.5,95,207.0
1004,C#4,171.0,0.5,95,207.0
1005,A3,171.0,0.5,95,207.0
1006,F#3,171.0,0.5,95,207.0
1007,C#3,171.0,0.5,95,207.0
1008,F#2,171.0,0.5,95,207.0
1009,F#4,171.5,0.5,95,207.0
1010,C#4,171.5,0.5,95,207.0
1011,A3,171.5,0.5,95,207.0
1012,F#3,171.5,0.5,95,207.0
1013,C#3,171.5,0.5,95,207.0
1014,F#2,171.5,0.5,95,207.0
1015,F#4,172.0,0.5,95,207.0
1016,C#4,172.0,0.5,95,207.0
1017,A3,172.0,0.5,95,207.0
1018,F#3,172.0,0.5,95,207.0
1019,C#3,172.0,0.5,95,207.0
1020,F#2,172.0,0.5,95,207.0
1021,F#4,172.5,0.5,95,207.0
1022,C#4,172.5,0.5,95,207.0
1023,A3,172.5,0.5,95,207.0
1024,F#3,172.5,0.5,95,207.0
1025,C#3,172.5,0.5,95,207.0
1026,F#2,172.5,0.5,95,207.0
1027,B3,173.0,6.0,95,207.0
1028,F#3,173.0,6.0,95,207.0
1029,B2,173.0,6.0,95,207.0
1030,F#4,173.0,0.5,95,207.0
1031,C#4,173.0,0.5,95,207.0
1032,A3,173.0,0.5,95,207.0
1033,F#3,173.0,0.5,95,207.0
1034,C#3,173.0,0.5,95,207.0
1035,F#2,173.0,0.5,95,207.0
1036,F#4,173.5,0.5,95,207.0
1037,C#4,173.5,0.5,95,207.0
1038,A3,173.5,0.5,95,207.0
1039,F#3,173.5,0.5,95,207.0
1040,C#3,173.5,0.5,95,207.0
1041,F#2,173.5,0.5,95,207.0
1042,B4,174.0,2.0,95,207.0
1043,F#4,174.0,1.0,95,207.0
1044,C#4,174.0,1.0,95,207.0
1045,A3,174.0,1.0,95,207.0
1046,F#3,174.0,1.0,95,207.0
1047,C#3,174.0,1.0,95,207.0
1048,F#2,174.0,1.0,95,207.0
1049,F#4,175.0,0.5,95,207.0
1050,C#4,175.0,0.5,95,207.0
1051,A3,175.0,0.5,95,207.0
1052,F#3,175.0,0.5,95,207.0
1053,C#3,175.0,0.5,95,207.0
1054,F#2,175.0,0.5,95,207.0
1055,F#4,175.5,1.5,95,207.0
1056,C#4,175.5,1.5,95,207.0
1057,A3,175.5,1.5,95,207.0
1058,F#3,175.5,1.5,95,207.0
1059,C#3,175.5,1.5,95,207.0
1060,F#2,175.5,1.5,95,207.0
1061,A4,176.0,0.5,95,207.0
1062,B4,176.5,0.5,95,207.0
1063,C#5,177.0,0.5,95,207.0
1064,F#4,177.0,0.5,95,207.0
1065,C#4,177.0,0.5,95,207.0
1066,A3,177.0,0.5,95,207.0
1067,F#3,177.0,0.5,95,207.0
1068,C#3,177.0,0.5,95,207.0
1069,F#2,177.0,0.5,95,207.0
1070,F#4,177.5,0.5,95,207.0
1071,C#4,177.5,0.5,95,207.0
1072,A3,177.5,0.5,95,207.0
1073,F#3,177.5,0.5,95,207.0
1074,C#3,177.5,0.5,95,207.0
1075,F#2,177.5,0.5,95,207.0
1076,B4,178.0,0.5,95,207.0
1077,F#4,178.0,0.5,95,207.0
1078,C#4,178.0,0.5,95,207.0
1079,A3,178.0,0.5,95,207.0
1080,F#3,178.0,0.5,95,207.0
1081,C#3,178.0,0.5,95,207.0
1082,F#2,178.0,0.5,95,207.0
1083,F#4,178.5,1.5,95,207.0
1084,C#4,178.5,1.5,95,207.0
1085,A3,178.5,1.5,95,207.0
1086,F#3,178.5,1.5,95,207.0
1087,C#3,178.5,1.5,95,207.0
1088,F#2,178.5,1.5,95,207.0
1089,A4,179.0,0.5,95,207.0
1090,B4,180.0,2.0,95,207.0
1091,G4,180.0,1.0,95,207.0
1092,D4,180.0,1.0,95,207.0
1093,G3,180.0,1.0,95,207.0
1094,D3,180.0,1.0,95,207.0
1095,G2,180.0,1.0,95,207.0
1096,G4,181.0,0.5,95,207.0
1097,D4,181.0,0.5,95,207.0
1098,G3,181.0,0.5,95,207.0
1099,D3,181.0,0.5,95,207.0
1100,G2,181.0,0.5,95,207.0
1101,G4,181.5,1.5,95,207.0
1102,D4,181.5,1.5,95,207.0
1103,G3,181.5,1.5,95,207.0
1104,D3,181.5,1.5,95,207.0
1105,G2,181.5,1.5,95,207.0
1106,G4,182.0,1.0,95,207.0
1107,B3,182.0,3.0,95,207.0
1108,F#3,182.0,3.0,95,207.0
1109,B2,182.0,3.0,95,207.0
1110,G4,183.0,3.0,95,207.0
1111,G4,183.0,0.5,95,207.0
1112,D4,183.0,0.5,95,207.0
1113,G3,183.0,0.5,95,207.0
1114,D3,183.0,0.5,95,207.0
1115,G2,183.0,0.5,95,207.0
1116,G4,183.5,0.5,95,207.0
1117,D4,183.5,0.5,95,207.0
1118,G3,183.5,0.5,95,207.0
1119,D3,183.5,0.5,95,207.0
1120,G2,183.5,0.5,95,207.0
1121,G4,184.0,0.5,95,207.0
1122,D4,184.0,0.5,95,207.0
1123,G3,184.0,0.5,95,207.0
1124,D3,184.0,0.5,95,207.0
1125,G2,184.0,0.5,95,207.0
1126,G4,184.5,0.5,95,207.0
1127,D4,184.5,0.5,95,207.0
1128,G3,184.5,0.5,95,207.0
1129,D3,184.5,0.5,95,207.0
1130,G2,184.5,0.5,95,207.0
1131,B3,185.0,3.0,95,207.0
1132,F#3,185.0,3.0,95,207.0
1133,B2,185.0,3.0,95,207.0
1134,G4,185.0,0.5,95,207.0
1135,D4,185.0,0.5,95,207.0
1136,G3,185.0,0.5,95,207.0
1137,D3,185.0,0.5,95,207.0
1138,G2,185.0,0.5,95,207.0
1139,G4,185.5,0.5,95,207.0
1140,D4,185.5,0.5,95,207.0
1141,G3,185.5,0.5,95,207.0
1142,D3,185.5,0.5,95,207.0
1143,G2,185.5,0.5,95,207.0
1144,G4,186.0,5.5,95,207.0
1145,G4,186.0,1.0,95,207.0
1146,D4,186.0,1.0,95,207.0
1147,G3,186.0,1.0,95,207.0
1148,D3,186.0,1.0,95,207.0
1149,G2,186.0,1.0,95,207.0
1150,G4,187.0,0.5,95,207.0
1151,D4,187.0,0.5,95,207.0
1152,G3,187.0,0.5,95,207.0
1153,D3,187.0,0.5,95,207.0
1154,G2,187.0,0.5,95,207.0
1155,G4,187.5,1.5,95,207.0
1156,D4,187.5,1.5,95,207.0
1157,G3,187.5,1.5,95,207.0
1158,D3,187.5,1.5,95,207.0
1159,G2,187.5,1.5,95,207.0
1160,F#3,188.0,6.0,95,207.0
1161,C#3,188.0,6.0,95,207.0
1162,F#2,188.0,6.0,95,207.0
1163,G4,189.0,0.5,95,207.0
1164,D4,189.0,0.5,95,207.0
1165,G3,189.0,0.5,95,207.0
1166,D3,189.0,0.5,95,207.0
1167,G2,189.0,0.5,95,207.0
1168,G4,189.5,0.5,95,207.0
1169,D4,189.5,0.5,95,207.0
1170,G3,189.5,0.5,95,207.0
1171,D3,189.5,0.5,95,207.0
1172,G2,189.5,0.5,95,207.0
1173,G4,190.0,0.5,95,207.0
1174,D4,190.0,0.5,95,207.0
1175,G3,190.0,0.5,95,207.0
1176,D3,190.0,0.5,95,207.0
1177,G2,190.0,0.5,95,207.0
1178,G4,190.5,1.5,95,207.0
1179,D4,190.5,1.5,95,207.0
1180,G3,190.5,1.5,95,207.0
1181,D3,190.5,1.5,95,207.0
1182,G2,190.5,1.5,95,207.0
1183,F#4,191.0,3.0,95,207.0
1184,F#4,191.5,0.5,95,207.0
1185,B4,192.0,1.0,95,207.0
1186,F#4,192.0,1.0,95,207.0
1187,D4,192.0,1.0,95,207.0
1188,B3,192.0,1.0,95,207.0
1189,F#3,192.0,1.0,95,207.0
1190,B2,192.0,1.0,95,207.0
1191,C#5,193.0,1.0,95,207.0
1192,F#4,193.0,0.5,95,207.0
1193,D4,193.0,0.5,95,207.0
1194,B3,193.0,0.5,95,207.0
1195,F#3,193.0,0.5,95,207.0
1196,B2,193.0,0.5,95,207.0
1197,F#4,193.5,1.5,95,207.0
1198,D4,193.5,1.5,95,207.0
1199,B3,193.5,1.5,95,207.0
1200,F#3,193.5,1.5,95,207.0
1201,B2,193.5,1.5,95,207.0
1202,D5,194.0,1.0,95,207.0
1203,C#5,195.0,3.0,95,207.0
1204,F#4,195.0,0.5,95,207.0
1205,D4,195.0,0.5,95,207.0
1206,B3,195.0,0.5,95,207.0
1207,F#3,195.0,0.5,95,207.0
1208,B2,195.0,0.5,95,207.0
1209,F#4,195.5,0.5,95,207.0
1210,D4,195.5,0.5,95,207.0
1211,B3,195.5,0.5,95,207.0
1212,F#3,195.5,0.5,95,207.0
1213,B2,195.5,0.5,95,207.0
1214,F#4,196.0,0.5,95,207.0
1215,D4,196.0,0.5,95,207.0
1216,B3,196.0,0.5,95,207.0
1217,F#3,196.0,0.5,95,207.0
1218,B2,196.0,0.5,95,207.0
1219,F#4,196.5,0.5,95,207.0
1220,D4,196.5,0.5,95,207.0
1221,B3,196.5,0.5,95,207.0
1222,F#3,196.5,0.5,95,207.0
1223,B2,196.5,0.5,95,207.0
1224,F#4,197.0,0.5,95,207.0
1225,D4,197.0,0.5,95,207.0
1226,B3,197.0,0.5,95,207.0
1227,F#3,197.0,0.5,95,207.0
1228,B2,197.0,0.5,95,207.0
1229,F#4,197.5,0.5,95,207.0
1230,D4,197.5,0.5,95,207.0
1231,B3,197.5,0.5,95,207.0
1232,F#3,197.5,0.5,95,207.0
1233,B2,197.5,0.5,95,207.0
1234,C#5,198.0,2.5,95,207.0
1235,F#4,198.0,1.0,95,207.0
1236,D4,198.0,1.0,95,207.0
1237,B3,198.0,1.0,95,207.0
1238,F#3,198.0,1.0,95,207.0
1239,B2,198.0,1.0,95,207.0
1240,F#4,199.0,0.5,95,207.0
1241,D4,199.0,0.5,95,207.0
1242,B3,199.0,0.5,95,207.0
1243,F#3,199.0,0.5,95,207.0
1244,B2,199.0,0.5,95,207.0
1245,F#4,199.5,1.5,95,207.0
1246,D4,199.5,1.5,95,207.0
1247,B3,199.5,1.5,95,207.0
1248,F#3,199.5,1.5,95,207.0
1249,B2,199.5,1.5,95,207.0
1250,C#4,200.0,6.0,95,207.0
1251,F#3,200.0,3.0,95,207.0
1252,F#4,200.0,6.0,95,207.0
1253,C#3,200.0,6.0,95,207.0
1254,F#2,200.0,6.0,95,207.0
1255,A4,200.5,0.5,95,207.0
1256,D5,201.0,0.5,95,207.0
1257,E4,201.0,0.5,95,207.0
1258,C#4,201.0,0.5,95,207.0
1259,A3,201.0,0.5,95,207.0
1260,E3,201.0,0.5,95,207.0
1261,C#3,201.0,0.5,95,207.0
1262,A4,201.5,0.5,95,207.0
1263,E4,201.5,0.5,95,207.0
1264,C#4,201.5,0.5,95,207.0
1265,A3,201.5,0.5,95,207.0
1266,E3,201.5,0.5,95,207.0
1267,C#3,201.5,0.5,95,207.0
1268,E5,202.0,0.5,95,207.0
1269,E4,202.0,0.5,95,207.0
1270,C#4,202.0,0.5,95,207.0
1271,A3,202.0,0.5,95,207.0
1272,E3,202.0,0.5,95,207.0
1273,C#3,202.0,0.5,95,207.0
1274,A4,202.5,0.5,95,207.0
1275,E4,202.5,1.5,95,207.0
1276,C#4,202.5,1.5,95,207.0
1277,A3,202.5,1.5,95,207.0
1278,E3,202.5,1.5,95,207.0
1279,C#3,202.5,1.5,95,207.0
1280,F#5,203.0,0.5,95,207.0
1281,F#3,203.0,3.0,95,207.0
1282,A4,203.5,0.5,95,207.0
1283,E5,204.0,6.0,95,207.0
1284,D4,204.0,1.0,95,207.0
1285,A3,204.0,1.0,95,207.0
1286,D3,204.0,1.0,95,207.0
1287,D4,205.0,0.5,95,207.0
1288,A3,205.0,0.5,95,207.0
1289,D3,205.0,0.5,95,207.0
1290,D4,205.5,1.5,95,207.0
1291,A3,205.5,1.5,95,207.0
1292,D3,205.5,1.5,95,207.0
1293,G3,206.0,6.0,95,207.0
1294,D3,206.0,6.0,95,207.0
1295,G2,206.0,6.0,95,207.0
1296,D4,207.0,0.5,95,207.0
1297,A3,207.0,0.5,95,207.0
1298,D3,207.0,0.5,95,207.0
1299,D4,207.5,0.5,95,207.0
1300,A3,207.5,0.5,95,207.0
1301,D3,207.5,0.5,95,207.0
1302,D4,208.0,0.5,95,207.0
1303,A3,208.0,0.5,95,207.0
1304,D3,208.0,0.5,95,207.0
1305,D4,208.5,0.5,95,207.0
1306,A3,208.5,0.5,95,207.0
1307,D3,208.5,0.5,95,207.0
1308,G4,209.0,3.0,95,207.0
1309,D4,209.0,0.5,95,207.0
1310,A3,209.0,0.5,95,207.0
1311,D3,209.0,0.5,95,207.0
1312,D4,209.5,0.5,95,207.0
1313,A3,209.5,0.5,95,207.0
1314,D3,209.5,0.5,95,207.0
1315,E5,210.0,2.5,95,207.0
1316,D4,210.0,1.0,95,207.0
1317,A3,210.0,1.0,95,207.0
1318,D3,210.0,1.0,95,207.0
1319,D4,211.0,0.5,95,207.0
1320,A3,211.0,0.5,95,207.0
1321,D3,211.0,0.5,95,207.0
1322,D4,211.5,1.5,95,207.0
1323,A3,211.5,1.5,95,207.0
1324,D3,211.5,1.5,95,207.0
1325,B4,212.5,0.5,95,207.0
1326,E5,213.0,0.5,95,207.0
1327,E4,213.0,0.5,95,207.0
1328,E4,213.0,0.5,95,207.0
1329,B3,213.0,0.5,95,207.0
1330,E3,213.0,0.5,95,207.0
1331,B2,213.0,0.5,95,207.0
1332,E2,213.0,0.5,95,207.0
1333,B4,213.5,0.5,95,207.0
1334,E4,213.5,0.5,95,207.0
1335,E4,213.5,0.5,95,207.0
1336,B3,213.5,0.5,95,207.0
1337,E3,213.5,0.5,95,207.0
1338,B2,213.5,0.5,95,207.0
1339,E2,213.5,0.5,95,207.0
1340,F#5,214.0,0.5,95,207.0
1341,E4,214.0,0.5,95,207.0
1342,E4,214.0,0.5,95,207.0
1343,B3,214.0,0.5,95,207.0
1344,E3,214.0,0.5,95,207.0
1345,B2,214.0,0.5,95,207.0
1346,E2,214.0,0.5,95,207.0
1347,B4,214.5,0.5,95,207.0
1348,E4,214.5,1.5,95,207.0
1349,E4,214.5,1.5,95,207.0
1350,B3,214.5,1.5,95,207.0
1351,E3,214.5,1.5,95,207.0
1352,B2,214.5,1.5,95,207.0
1353,E2,214.5,1.5,95,207.0
1354,G#5,215.0,0.5,95,207.0
1355,B4,215.5,0.5,95,207.0
1356,G#5,216.0,6.0,95,207.0
1357,F#4,216.0,1.0,95,207.0
1358,C#4,216.0,1.0,95,207.0
1359,A3,216.0,1.0,95,207.0
1360,F#3,216.0,1.0,95,207.0
1361,C#3,216.0,1.0,95,207.0
1362,F#2,216.0,1.0,95,207.0
1363,F#4,217.0,0.5,95,207.0
1364,C#4,217.0,0.5,95,207.0
1365,A3,217.0,0.5,95,207.0
1366,F#3,217.0,0.5,95,207.0
1367,C#3,217.0,0.5,95,207.0
1368,F#2,217.0,0.5,95,207.0
1369,F#4,217.5,1.5,95,207.0
1370,C#4,217.5,1.5,95,207.0
1371,A3,217.5,1.5,95,207.0
1372,F#3,217.5,1.5,95,207.0
1373,C#3,217.5,1.5,95,207.0
1374,F#2,217.5,1.5,95,207.0
1375,D4,218.0,6.0,95,207.0
1376,G3,218.0,3.0,95,207.0
1377,G4,218.0,6.0,95,207.0
1378,D3,218.0,6.0,95,207.0
1379,G2,218.0,6.0,95,207.0
1380,F#4,219.0,0.5,95,207.0
1381,C#4,219.0,0.5,95,207.0
1382,A3,219.0,0.5,95,207.0
1383,F#3,219.0,0.5,95,207.0
1384,C#3,219.0,0.5,95,207.0
1385,F#2,219.0,0.5,95,207.0
1386,F#4,219.5,0.5,95,207.0
1387,C#4,219.5,0.5,95,207.0
1388,A3,219.5,0.5,95,207.0
1389,F#3,219.5,0.5,95,207.0
1390,C#3,219.5,0.5,95,207.0
1391,F#2,219.5,0.5,95,207.0
1392,F#4,220.0,0.5,95,207.0
1393,C#4,220.0,0.5,95,207.0
1394,A3,220.0,0.5,95,207.0
1395,F#3,220.0,0.5,95,207.0
1396,C#3,220.0,0.5,95,207.0
1397,F#2,220.0,0.5,95,207.0
1398,F#4,220.5,0.5,95,207.0
1399,C#4,220.5,0.5,95,207.0
1400,A3,220.5,0.5,95,207.0
1401,F#3,220.5,0.5,95,207.0
1402,C#3,220.5,0.5,95,207.0
1403,F#2,220.5,0.5,95,207.0
1404,G3,221.0,3.0,95,207.0
1405,F#4,221.0,0.5,95,207.0
1406,C#4,221.0,0.5,95,207.0
1407,A3,221.0,0.5,95,207.0
1408,F#3,221.0,0.5,95,207.0
1409,C#3,221.0,0.5,95,207.0
1410,F#2,221.0,0.5,95,207.0
1411,F#4,221.5,0.5,95,207.0
1412,C#4,221.5,0.5,95,207.0
1413,A3,221.5,0.5,95,207.0
1414,F#3,221.5,0.5,95,207.0
1415,C#3,221.5,0.5,95,207.0
1416,F#2,221.5,0.5,95,207.0
1417,G#5,222.0,2.0,95,207.0
1418,F#4,222.0,1.0,95,207.0
1419,C#4,222.0,1.0,95,207.0
1420,A3,222.0,1.0,95,207.0
1421,F#3,222.0,1.0,95,207.0
1422,C#3,222.0,1.0,95,207.0
1423,F#2,222.0,1.0,95,207.0
1424,F#4,223.0,0.5,95,207.0
1425,C#4,223.0,0.5,95,207.0
1426,A3,223.0,0.5,95,207.0
1427,F#3,223.0,0.5,95,207.0
1428,C#3,223.0,0.5,95,207.0
1429,F#2,223.0,0.5,95,207.0
1430,F#4,223.5,1.5,95,207.0
1431,C#4,223.5,1.5,95,207.0
1432,A3,223.5,1.5,95,207.0
1433,F#3,223.5,1.5,95,207.0
1434,C#3,223.5,1.5,95,207.0
1435,F#2,223.5,1.5,95,207.0
1436,F#5,224.0,0.5,95,207.0
1437,B3,224.0,6.0,95,207.0
1438,F#3,224.0,6.0,95,207.0
1439,B2,224.0,6.0,95,207.0
1440,G#5,224.5,0.5,95,207.0
1441,A5,225.0,0.5,95,207.0
1442,E4,225.0,0.5,95,207.0
1443,E4,225.0,0.5,95,207.0
1444,B3,225.0,0.5,95,207.0
1445,E3,225.0,0.5,95,207.0
1446,B2,225.0,0.5,95,207.0
1447,E2,225.0,0.5,95,207.0
1448,E4,225.5,0.5,95,207.0
1449,E4,225.5,0.5,95,207.0
1450,B3,225.5,0.5,95,207.0
1451,E3,225.5,0.5,95,207.0
1452,B2,225.5,0.5,95,207.0
1453,E2,225.5,0.5,95,207.0
1454,G#5,226.0,0.5,95,207.0
1455,E4,226.0,0.5,95,207.0
1456,E4,226.0,0.5,95,207.0
1457,B3,226.0,0.5,95,207.0
1458,E3,226.0,0.5,95,207.0
1459,B2,226.0,0.5,95,207.0
1460,E2,226.0,0.5,95,207.0
1461,E4,226.5,1.5,95,207.0
1462,E4,226.5,1.5,95,207.0
1463,B3,226.5,1.5,95,207.0
1464,E3,226.5,1.5,95,207.0
1465,B2,226.5,1.5,95,207.0
1466,E2,226.5,1.5,95,207.0
1467,F#5,227.0,0.5,95,207.0
1468,D4,227.0,3.0,95,207.0
1469,E5,227.5,0.5,95,207.0
1470,F#5,228.0,2.0,95,207.0
1471,F#4,228.0,1.0,95,207.0
1472,D4,228.0,1.0,95,207.0
1473,B3,228.0,1.0,95,207.0
1474,F#3,228.0,1.0,95,207.0
1475,B2,228.0,1.0,95,207.0
1476,F#4,229.0,0.5,95,207.0
1477,D4,229.0,0.5,95,207.0
1478,B3,229.0,0.5,95,207.0
1479,F#3,229.0,0.5,95,207.0
1480,B2,229.0,0.5,95,207.0
1481,F#4,229.5,1.5,95,207.0
1482,D4,229.5,1.5,95,207.0
1483,B3,229.5,1.5,95,207.0
1484,F#3,229.5,1.5,95,207.0
1485,B2,229.5,1.5,95,207.0
1486,B5,230.0,1.0,95,207.0
1487,B5,231.0,3.0,95,207.0
1488,F#4,231.0,0.5,95,207.0
1489,D4,231.0,0.5,95,207.0
1490,B3,231.0,0.5,95,207.0
1491,F#3,231.0,0.5,95,207.0
1492,B2,231.0,0.5,95,207.0
1493,F#4,231.5,0.5,95,207.0
1494,D4,231.5,0.5,95,207.0
1495,B3,231.5,0.5,95,207.0
1496,F#3,231.5,0.5,95,207.0
1497,B2,231.5,0.5,95,207.0
1498,F#4,232.0,0.5,95,207.0
1499,D4,232.0,0.5,95,207.0
1500,B3,232.0,0.5,95,207.0
1501,F#3,232.0,0.5,95,207.0
1502,B2,232.0,0.5,95,207.0
1503,F#4,232.5,0.5,95,207.0
1504,D4,232.5,0.5,95,207.0
1505,B3,232.5,0.5,95,207.0
1506,F#3,232.5,0.5,95,207.0
1507,B2,232.5,0.5,95,207.0
1508,D4,233.0,3.0,95,207.0
1509,B3,233.0,3.0,95,207.0
1510,F#3,233.0,3.0,95,207.0
1511,B2,233.0,3.0,95,207.0
1512,F#4,233.0,0.5,95,207.0
1513,D4,233.0,0.5,95,207.0
1514,B3,233.0,0.5,95,207.0
1515,F#3,233.0,0.5,95,207.0
1516,B2,233.0,0.5,95,207.0
1517,F#4,233.5,0.5,95,207.0
1518,D4,233.5,0.5,95,207.0
1519,B3,233.5,0.5,95,207.0
1520,F#3,233.5,0.5,95,207.0
1521,B2,233.5,0.5,95,207.0
1522,B5,234.0,6.0,95,207.0
1523,F#4,234.0,1.0,95,207.0
1524,D4,234.0,1.0,95,207.0
1525,B3,234.0,1.0,95,207.0
1526,F#3,234.0,1.0,95,207.0
1527,B2,234.0,1.0,95,207.0
1528,F#4,235.0,0.5,95,207.0
1529,D4,235.0,0.5,95,207.0
1530,B3,235.0,0.5,95,207.0
1531,F#3,235.0,0.5,95,207.0
1532,B2,235.0,0.5,95,207.0
1533,F#4,235.5,1.5,95,207.0
1534,D4,235.5,1.5,95,207.0
1535,B3,235.5,1.5,95,207.0
1536,F#3,235.5,1.5,95,207.0
1537,B2,235.5,1.5,95,207.0
1538,A3,236.0,3.0,95,207.0
1539,C#3,236.0,3.0,95,207.0
1540,F#4,237.0,0.5,95,207.0
1541,D4,237.0,0.5,95,207.0
1542,B3,237.0,0.5,95,207.0
1543,F#3,237.0,0.5,95,207.0
1544,B2,237.0,0.5,95,207.0
1545,F#4,237.5,0.5,95,207.0
1546,D4,237.5,0.5,95,207.0
1547,B3,237.5,0.5,95,207.0
1548,F#3,237.5,0.5,95,207.0
1549,B2,237.5,0.5,95,207.0
1550,F#4,238.0,0.5,95,207.0
1551,D4,238.0,0.5,95,207.0
1552,B3,238.0,0.5,95,207.0
1553,F#3,238.0,0.5,95,207.0
1554,B2,238.0,0.5,95,207.0
1555,F#4,238.5,1.5,95,207.0
1556,D4,238.5,1.5,95,207.0
1557,B3,238.5,1.5,95,207.0
1558,F#3,238.5,1.5,95,207.0
1559,B2,238.5,1.5,95,207.0
1560,D4,239.0,6.0,95,207.0
1561,A3,239.0,6.0,95,207.0
1562,D3,239.0,6.0,95,207.0
1563,E3,240.0,3.0,95,207.0
1564,B5,240.0,6.0,95,207.0
1565,B2,240.0,6.0,95,207.0
1566,E2,240.0,6.0,95,207.0
1567,E4,240.0,3.0,95,207.0
1568,E4,240.0,3.0,95,207.0
1569,B3,240.0,3.0,95,207.0
1570,E3,240.0,3.0,95,207.0
1571,B2,240.0,3.0,95,207.0
1572,E2,240.0,3.0,95,207.0
1573,E4,243.0,3.0,95,207.0
1574,B3,243.0,3.0,95,207.0
1575,E3,243.0,3.0,95,207.0
1576,E4,243.0,1.0,95,207.0
1577,E4,243.0,1.0,95,207.0
1578,B3,243.0,1.0,95,207.0
1579,E3,243.0,1.0,95,207.0
1580,B2,243.0,1.0,95,207.0
1581,E2,243.0,1.0,95,207.0
1582,E4,244.0,2.0,95,207.0
1583,E4,244.0,2.0,95,207.0
1584,B3,244.0,2.0,95,207.0
1585,E3,244.0,2.0,95,207.0
1586,B2,244.0,2.0,95,207.0
1587,E2,244.0,2.0,95,207.0
1588,D4,248.0,3.0,95,207.0
1589,A3,248.0,3.0,95,207.0
1590,D3,248.0,3.0,95,207.0
1591,E4,249.0,3.0,95,207.0
1592,E4,249.0,3.0,95,207.0
1593,B3,249.0,3.0,95,207.0
1594,E3,249.0,3.0,95,207.0
1595,B2,249.0,3.0,95,207.0
1596,E2,249.0,3.0,95,207.0
1597,E4,249.0,3.0,95,207.0
1598,E4,249.0,3.0,95,207.0
1599,B3,249.0,3.0,95,207.0
1600,E3,249.0,3.0,95,207.0
1601,B2,249.0,3.0,95,207.0
1602,E2,249.0,3.0,95,207.0
1603,B3,251.0,3.0,95,207.0
1604,E3,251.0,3.0,95,207.0
1605,E2,251.0,3.0,95,207.0
1606,A3,252.0,1.5,95,207.0
1607,E3,252.0,1.5,95,207.0
1608,A2,252.0,1.5,95,207.0
1609,A3,252.0,1.5,95,207.0
1610,E3,252.0,1.5,95,207.0
1611,A2,252.0,1.5,95,207.0
1612,A3,253.5,0.5,95,207.0
1613,E3,253.5,0.5,95,207.0
1614,A2,253.5,0.5,95,207.0
1615,A3,253.5,0.5,95,207.0
1616,E3,253.5,0.5,95,207.0
1617,A2,253.5,0.5,95,207.0
1618,A3,254.0,0.5,95,207.0
1619,E3,254.0,0.5,95,207.0
1620,A2,254.0,0.5,95,207.0
1621,F#3,254.0,6.0,95,207.0
1622,C#3,254.0,6.0,95,207.0
1623,F#2,254.0,6.0,95,207.0
1624,A3,254.0,0.5,95,207.0
1625,E3,254.0,0.5,95,207.0
1626,A2,254.0,0.5,95,207.0
1627,A3,254.5,0.5,95,207.0
1628,E3,254.5,0.5,95,207.0
1629,A2,254.5,0.5,95,207.0
1630,A3,254.5,0.5,95,207.0
1631,E3,254.5,0.5,95,207.0
1632,A2,254.5,0.5,95,207.0
1633,E3,255.0,3.0,95,207.0
1634,B2,255.0,6.0,95,207.0
1635,E2,255.0,6.0,95,207.0
1636,E4,255.0,3.0,95,207.0
1637,E4,255.0,3.0,95,207.0
1638,B3,255.0,3.0,95,207.0
1639,E3,255.0,3.0,95,207.0
1640,B2,255.0,3.0,95,207.0
1641,E2,255.0,3.0,95,207.0
1642,E4,258.0,3.0,95,207.0
1643,E4,258.0,3.0,95,207.0
1644,B3,258.0,3.0,95,207.0
1645,E3,258.0,3.0,95,207.0
1646,E4,258.0,1.0,95,207.0
1647,E4,258.0,1.0,95,207.0
1648,B3,258.0,1.0,95,207.0
1649,E3,258.0,1.0,95,207.0
1650,B2,258.0,1.0,95,207.0
1651,E2,258.0,1.0,95,207.0
1652,E4,259.0,2.0,95,207.0
1653,E4,259.0,2.0,95,207.0
1654,B3,259.0,2.0,95,207.0
1655,E3,259.0,2.0,95,207.0
1656,B2,259.0,2.0,95,207.0
1657,E2,259.0,2.0,95,207.0
1658,G3,261.0,3.0,95,207.0
1659,D3,261.0,3.0,95,207.0
1660,G2,261.0,3.0,95,207.0
1661,G3,261.0,3.0,95,207.0
1662,D3,261.0,3.0,95,207.0
1663,G2,261.0,3.0,95,207.0
1664,F#3,263.0,3.0,95,207.0
1665,C#3,263.0,3.0,95,207.0
1666,F#2,263.0,3.0,95,207.0
1667,D4,264.0,1.5,95,207.0
1668,A3,264.0,1.5,95,207.0
1669,D3,264.0,1.5,95,207.0
1670,D4,264.0,1.5,95,207.0
1671,A3,264.0,1.5,95,207.0
1672,D3,264.0,1.5,95,207.0
1673,D4,265.5,0.5,95,207.0
1674,A3,265.5,0.5,95,207.0
1675,D3,265.5,0.5,95,207.0
1676,D4,265.5,0.5,95,207.0
1677,A3,265.5,0.5,95,207.0
1678,D3,265.5,0.5,95,207.0
1679,D4,266.0,0.5,95,207.0
1680,A3,266.0,0.5,95,207.0
1681,D3,266.0,0.5,95,207.0
1682,E4,266.0,3.0,95,207.0
1683,B3,266.0,3.0,95,207.0
1684,E3,266.0,3.0,95,207.0
1685,B2,266.0,3.0,95,207.0
1686,D4,266.0,0.5,95,207.0
1687,A3,266.0,0.5,95,207.0
1688,D3,266.0,0.5,95,207.0
1689,D4,266.5,0.5,95,207.0
1690,A3,266.5,0.5,95,207.0
1691,D3,266.5,0.5,95,207.0
1692,D4,266.5,0.5,95,207.0
1693,A3,266.5,0.5,95,207.0
1694,D3,266.5,0.5,95,207.0
1695,E3,267.0,3.0,95,207.0
1696,B2,267.0,6.0,95,207.0
1697,E2,267.0,6.0,95,207.0
1698,E4,267.0,3.0,95,207.0
1699,E4,267.0,3.0,95,207.0
1700,B3,267.0,3.0,95,207.0
1701,E3,267.0,3.0,95,207.0
1702,B2,267.0,3.0,95,207.0
1703,E2,267.0,3.0,95,207.0
1704,B3,269.0,6.0,95,207.0
1705,F#3,269.0,6.0,95,207.0
1706,B2,269.0,6.0,95,207.0
1707,E4,270.0,3.0,95,207.0
1708,E4,270.0,3.0,95,207.0
1709,B3,270.0,3.0,95,207.0
1710,E3,270.0,3.0,95,207.0
1711,E4,270.0,1.0,95,207.0
1712,E4,270.0,1.0,95,207.0
1713,B3,270.0,1.0,95,207.0
1714,E3,270.0,1.0,95,207.0
1715,B2,270.0,1.0,95,207.0
1716,E2,270.0,1.0,95,207.0
1717,E4,271.0,2.0,95,207.0
1718,E4,271.0,2.0,95,207.0
1719,B3,271.0,2.0,95,207.0
1720,E3,271.0,2.0,95,207.0
1721,B2,271.0,2.0,95,207.0
1722,E2,271.0,2.0,95,207.0
1723,B3,275.0,6.0,95,207.0
1724,F#3,275.0,6.0,95,207.0
1725,B2,275.0,6.0,95,207.0
1726,E4,276.0,3.0,95,207.0
1727,E4,276.0,3.0,95,207.0
1728,B3,276.0,3.0,95,207.0
1729,E3,276.0,3.0,95,207.0
1730,B2,276.0,3.0,95,207.0
1731,E2,276.0,3.0,95,207.0
1732,E4,276.0,3.0,95,207.0
1733,E4,276.0,3.0,95,207.0
1734,B3,276.0,3.0,95,207.0
1735,E3,276.0,3.0,95,207.0
1736,B2,276.0,3.0,95,207.0
1737,E2,276.0,3.0,95,207.0
1738,A3,279.0,1.5,95,207.0
1739,E3,279.0,1.5,95,207.0
1740,A2,279.0,1.5,95,207.0
1741,A3,279.0,1.5,95,207.0
1742,E3,279.0,1.5,95,207.0
1743,A2,279.0,1.5,95,207.0
1744,A3,280.5,0.5,95,207.0
1745,E3,280.5,0.5,95,207.0
1746,A2,280.5,0.5,95,207.0
1747,A3,280.5,0.5,95,207.0
1748,E3,280.5,0.5,95,207.0
1749,A2,280.5,0.5,95,207.0
1750,E3,281.0,0.5,95,207.0
1751,A3,281.0,0.5,95,207.0
1752,E3,281.0,0.5,95,207.0
1753,A2,281.0,0.5,95,207.0
1754,A3,281.0,0.5,95,207.0
1755,E3,281.0,0.5,95,207.0
1756,A2,281.0,0.5,95,207.0
1757,B3,281.5,0.5,95,207.0
1758,A3,281.5,0.5,95,207.0
1759,E3,281.5,0.5,95,207.0
1760,A2,281.5,0.5,95,207.0
1761,A3,281.5,0.5,95,207.0
1762,E3,281.5,0.5,95,207.0
1763,A2,281.5,0.5,95,207.0
1764,E3,282.0,3.0,95,207.0
1765,E4,282.0,0.5,95,207.0
1766,B2,282.0,6.0,95,207.0
1767,E2,282.0,6.0,95,207.0
1768,E4,282.0,3.0,95,207.0
1769,E4,282.0,3.0,95,207.0
1770,B3,282.0,3.0,95,207.0
1771,E3,282.0,3.0,95,207.0
1772,B2,282.0,3.0,95,207.0
1773,E2,282.0,3.0,95,207.0
1774,F#4,282.5,0.5,95,207.0
1775,E4,283.0,0.5,95,207.0
1776,B3,283.5,0.5,95,207.0
1777,A4,284.0,0.5,95,207.0
1778,F#4,284.5,0.5,95,207.0
1779,G#4,285.0,0.5,95,207.0
1780,E4,285.0,3.0,95,207.0
1781,E4,285.0,3.0,95,207.0
1782,B3,285.0,3.0,95,207.0
1783,E3,285.0,3.0,95,207.0
1784,E4,285.0,1.0,95,207.0
1785,E4,285.0,1.0,95,207.0
1786,B3,285.0,1.0,95,207.0
1787,E3,285.0,1.0,95,207.0
1788,B2,285.0,1.0,95,207.0
1789,E2,285.0,1.0,95,207.0
1790,F#4,285.5,0.5,95,207.0
1791,E4,286.0,0.5,95,207.0
1792,E4,286.0,2.0,95,207.0
1793,E4,286.0,2.0,95,207.0
1794,B3,286.0,2.0,95,207.0
1795,E3,286.0,2.0,95,207.0
1796,B2,286.0,2.0,95,207.0
1797,E2,286.0,2.0,95,207.0
1798,B3,286.5,0.5,95,207.0
1799,E3,287.0,0.5,95,207.0
1800,B3,287.5,0.5,95,207.0
1801,E4,288.0,0.5,95,207.0
1802,G3,288.0,3.0,95,207.0
1803,D3,288.0,3.0,95,207.0
1804,G2,288.0,3.0,95,207.0
1805,G3,288.0,0.5,95,207.0
1806,D3,288.0,0.5,95,207.0
1807,G2,288.0,0.5,95,207.0
1808,F#4,288.5,0.5,95,207.0
1809,G3,288.5,0.5,95,207.0
1810,D3,288.5,0.5,95,207.0
1811,G2,288.5,0.5,95,207.0
1812,E4,289.0,0.5,95,207.0
1813,G3,289.0,0.5,95,207.0
1814,D3,289.0,0.5,95,207.0
1815,G2,289.0,0.5,95,207.0
1816,B3,289.5,0.5,95,207.0
1817,G3,289.5,0.5,95,207.0
1818,D3,289.5,0.5,95,207.0
1819,G2,289.5,0.5,95,207.0
1820,D4,290.0,0.5,95,207.0
1821,G3,290.0,0.5,95,207.0
1822,D3,290.0,0.5,95,207.0
1823,G2,290.0,0.5,95,207.0
1824,C#4,290.5,0.5,95,207.0
1825,G3,290.5,0.5,95,207.0
1826,D3,290.5,0.5,95,207.0
1827,G2,290.5,0.5,95,207.0
1828,B3,291.0,0.5,95,207.0
1829,D4,291.0,3.0,95,207.0
1830,A3,291.0,3.0,95,207.0
1831,D3,291.0,3.0,95,207.0
1832,D4,291.0,0.5,95,207.0
1833,A3,291.0,0.5,95,207.0
1834,D3,291.0,0.5,95,207.0
1835,A3,291.5,0.5,95,207.0
1836,D4,291.5,0.5,95,207.0
1837,A3,291.5,0.5,95,207.0
1838,D3,291.5,0.5,95,207.0
1839,B3,292.0,0.5,95,207.0
1840,D4,292.0,0.5,95,207.0
1841,A3,292.0,0.5,95,207.0
1842,D3,292.0,0.5,95,207.0
1843,C#4,292.5,0.5,95,207.0
1844,D4,292.5,0.5,95,207.0
1845,A3,292.5,0.5,95,207.0
1846,D3,292.5,0.5,95,207.0
1847,B3,293.0,0.5,95,207.0
1848,D4,293.0,0.5,95,207.0
1849,A3,293.0,0.5,95,207.0
1850,D3,293.0,0.5,95,207.0
1851,E3,293.5,0.5,95,207.0
1852,D4,293.5,0.5,95,207.0
1853,A3,293.5,0.5,95,207.0
1854,D3,293.5,0.5,95,207.0
1855,G#5,294.0,1.0,95,207.0
1856,B3,294.0,0.5,95,207.0
1857,E4,294.0,1.0,95,207.0
1858,E4,294.0,1.0,95,207.0
1859,B3,294.0,1.0,95,207.0
1860,E3,294.0,1.0,95,207.0
1861,B2,294.0,1.0,95,207.0
1862,E2,294.0,1.0,95,207.0
1863,F#4,294.5,0.5,95,207.0
1864,A5,295.0,1.0,95,207.0
1865,E4,295.0,0.5,95,207.0
1866,E4,295.0,0.5,95,207.0
1867,E4,295.0,0.5,95,207.0
1868,B3,295.0,0.5,95,207.0
1869,E3,295.0,0.5,95,207.0
1870,B2,295.0,0.5,95,207.0
1871,E2,295.0,0.5,95,207.0
1872,B3,295.5,0.5,95,207.0
1873,E4,295.5,1.5,95,207.0
1874,E4,295.5,1.5,95,207.0
1875,B3,295.5,1.5,95,207.0
1876,E3,295.5,1.5,95,207.0
1877,B2,295.5,1.5,95,207.0
1878,E2,295.5,1.5,95,207.0
1879,B5,296.0,1.0,95,207.0
1880,A4,296.0,0.5,95,207.0
1881,F#4,296.5,0.5,95,207.0
1882,A5,297.0,3.0,95,207.0
1883,G#4,297.0,0.5,95,207.0
1884,E4,297.0,0.5,95,207.0
1885,E4,297.0,0.5,95,207.0
1886,B3,297.0,0.5,95,207.0
1887,E3,297.0,0.5,95,207.0
1888,B2,297.0,0.5,95,207.0
1889,E2,297.0,0.5,95,207.0
1890,F#4,297.5,0.5,95,207.0
1891,E4,297.5,0.5,95,207.0
1892,E4,297.5,0.5,95,207.0
1893,B3,297.5,0.5,95,207.0
1894,E3,297.5,0.5,95,207.0
1895,B2,297.5,0.5,95,207.0
1896,E2,297.5,0.5,95,207.0
1897,E4,298.0,0.5,95,207.0
1898,E4,298.0,0.5,95,207.0
1899,E4,298.0,0.5,95,207.0
1900,B3,298.0,0.5,95,207.0
1901,E3,298.0,0.5,95,207.0
1902,B2,298.0,0.5,95,207.0
1903,E2,298.0,0.5,95,207.0
1904,B3,298.5,0.5,95,207.0
1905,E4,298.5,0.5,95,207.0
1906,E4,298.5,0.5,95,207.0
1907,B3,298.5,0.5,95,207.0
1908,E3,298.5,0.5,95,207.0
1909,B2,298.5,0.5,95,207.0
1910,E2,298.5,0.5,95,207.0
1911,D5,299.0,0.5,95,207.0
1912,E4,299.0,0.5,95,207.0
1913,E4,299.0,0.5,95,207.0
1914,B3,299.0,0.5,95,207.0
1915,E3,299.0,0.5,95,207.0
1916,B2,299.0,0.5,95,207.0
1917,E2,299.0,0.5,95,207.0
1918,B4,299.5,0.5,95,207.0
1919,E4,299.5,0.5,95,207.0
1920,E4,299.5,0.5,95,207.0
1921,B3,299.5,0.5,95,207.0
1922,E3,299.5,0.5,95,207.0
1923,B2,299.5,0.5,95,207.0
1924,E2,299.5,0.5,95,207.0
1925,A5,300.0,2.0,95,207.0
1926,C#5,300.0,0.5,95,207.0
1927,E4,300.0,1.0,95,207.0
1928,E4,300.0,1.0,95,207.0
1929,B3,300.0,1.0,95,207.0
1930,E3,300.0,1.0,95,207.0
1931,B2,300.0,1.0,95,207.0
1932,E2,300.0,1.0,95,207.0
1933,D5,300.5,0.25,95,207.0
1934,C#5,300.75,0.25,70,207.0
1935,B4,301.0,0.5,95,207.0
1936,E4,301.0,0.5,95,207.0
1937,E4,301.0,0.5,95,207.0
1938,B3,301.0,0.5,95,207.0
1939,E3,301.0,0.5,95,207.0
1940,B2,301.0,0.5,95,207.0
1941,E2,301.0,0.5,95,207.0
1942,A4,301.5,0.5,95,207.0
1943,E4,301.5,1.5,95,207.0
1944,E4,301.5,1.5,95,207.0
1945,B3,301.5,1.5,95,207.0
1946,E3,301.5,1.5,95,207.0
1947,B2,301.5,1.5,95,207.0
1948,E2,301.5,1.5,95,207.0
1949,G#5,302.0,0.5,95,207.0
1950,F#4,302.0,0.5,95,207.0
1951,A5,302.5,0.5,95,207.0
1952,A4,302.5,0.5,95,207.0
1953,B5,303.0,0.5,95,207.0
1954,E4,303.0,0.5,95,207.0
1955,E4,303.0,0.5,95,207.0
1956,E4,303.0,0.5,95,207.0
1957,B3,303.0,0.5,95,207.0
1958,E3,303.0,0.5,95,207.0
1959,B2,303.0,0.5,95,207.0
1960,E2,303.0,0.5,95,207.0
1961,A4,303.5,0.5,95,207.0
1962,E4,303.5,0.5,95,207.0
1963,E4,303.5,0.5,95,207.0
1964,B3,303.5,0.5,95,207.0
1965,E3,303.5,0.5,95,207.0
1966,B2,303.5,0.5,95,207.0
1967,E2,303.5,0.5,95,207.0
1968,A5,304.0,0.5,95,207.0
1969,D4,304.0,0.5,95,207.0
1970,E4,304.0,0.5,95,207.0
1971,E4,304.0,0.5,95,207.0
1972,B3,304.0,0.5,95,207.0
1973,E3,304.0,0.5,95,207.0
1974,B2,304.0,0.5,95,207.0
1975,E2,304.0,0.5,95,207.0
1976,A4,304.5,0.5,95,207.0
1977,E4,304.5,1.5,95,207.0
1978,E4,304.5,1.5,95,207.0
1979,B3,304.5,1.5,95,207.0
1980,E3,304.5,1.5,95,207.0
1981,B2,304.5,1.5,95,207.0
1982,E2,304.5,1.5,95,207.0
1983,G#5,305.0,0.5,95,207.0
1984,E3,305.0,0.5,95,207.0
1985,E5,305.5,0.5,95,207.0
1986,B3,305.5,0.5,95,207.0
1987,F#5,306.0,1.5,95,207.0
1988,E4,306.0,0.5,95,207.0
1989,F#4,306.0,1.0,95,207.0
1990,D4,306.0,1.0,95,207.0
1991,B3,306.0,1.0,95,207.0
1992,F#3,306.0,1.0,95,207.0
1993,B2,306.0,1.0,95,207.0
1994,F#4,306.5,0.5,95,207.0
1995,E4,307.0,0.5,95,207.0
1996,F#4,307.0,0.5,95,207.0
1997,D4,307.0,0.5,95,207.0
1998,B3,307.0,0.5,95,207.0
1999,F#3,307.0,0.5,95,207.0
2000,B2,307.0,0.5,95,207.0
2001,F#5,307.5,1.0,95,207.0
2002,B3,307.5,0.5,95,207.0
2003,F#4,307.5,1.5,95,207.0
2004,D4,307.5,1.5,95,207.0
2005,B3,307.5,1.5,95,207.0
2006,F#3,307.5,1.5,95,207.0
2007,B2,307.5,1.5,95,207.0
2008,A4,308.0,0.5,95,207.0
2009,D5,308.5,0.25,95,207.0
2010,F#4,308.5,0.5,95,207.0
2011,D5,308.75,0.25,95,207.0
2012,D5,309.0,0.5,95,207.0
2013,G#4,309.0,0.5,95,207.0
2014,F#4,309.0,0.5,95,207.0
2015,D4,309.0,0.5,95,207.0
2016,B3,309.0,0.5,95,207.0
2017,F#3,309.0,0.5,95,207.0
2018,B2,309.0,0.5,95,207.0
2019,D5,309.5,2.5,95,207.0
2020,F#4,309.5,0.5,95,207.0
2021,F#4,309.5,0.5,95,207.0
2022,D4,309.5,0.5,95,207.0
2023,B3,309.5,0.5,95,207.0
2024,F#3,309.5,0.5,95,207.0
2025,B2,309.5,0.5,95,207.0
2026,E4,310.0,0.5,95,207.0
2027,F#4,310.0,0.5,95,207.0
2028,D4,310.0,0.5,95,207.0
2029,B3,310.0,0.5,95,207.0
2030,F#3,310.0,0.5,95,207.0
2031,B2,310.0,0.5,95,207.0
2032,B3,310.5,0.5,95,207.0
2033,F#4,310.5,0.5,95,207.0
2034,D4,310.5,0.5,95,207.0
2035,B3,310.5,0.5,95,207.0
2036,F#3,310.5,0.5,95,207.0
2037,B2,310.5,0.5,95,207.0
2038,E3,311.0,0.5,95,207.0
2039,F#4,311.0,0.5,95,207.0
2040,D4,311.0,0.5,95,207.0
2041,B3,311.0,0.5,95,207.0
2042,F#3,311.0,0.5,95,207.0
2043,B2,311.0,0.5,95,207.0
2044,B3,311.5,0.5,95,207.0
2045,F#4,311.5,0.5,95,207.0
2046,D4,311.5,0.5,95,207.0
2047,B3,311.5,0.5,95,207.0
2048,F#3,311.5,0.5,95,207.0
2049,B2,311.5,0.5,95,207.0
2050,D5,312.0,6.0,95,207.0
2051,E4,312.0,0.5,95,207.0
2052,F#4,312.0,1.0,95,207.0
2053,D4,312.0,1.0,95,207.0
2054,B3,312.0,1.0,95,207.0
2055,F#3,312.0,1.0,95,207.0
2056,B2,312.0,1.0,95,207.0
2057,F#4,312.5,0.5,95,207.0
2058,E4,313.0,0.5,95,207.0
2059,F#4,313.0,0.5,95,207.0
2060,D4,313.0,0.5,95,207.0
2061,B3,313.0,0.5,95,207.0
2062,F#3,313.0,0.5,95,207.0
2063,B2,313.0,0.5,95,207.0
2064,B3,313.5,0.5,95,207.0
2065,F#4,313.5,1.5,95,207.0
2066,D4,313.5,1.5,95,207.0
2067,B3,313.5,1.5,95,207.0
2068,F#3,313.5,1.5,95,207.0
2069,B2,313.5,1.5,95,207.0
2070,D4,314.0,0.5,95,207.0
2071,C#4,314.5,0.5,95,207.0
2072,B3,315.0,0.5,95,207.0
2073,F#4,315.0,0.5,95,207.0
2074,D4,315.0,0.5,95,207.0
2075,B3,315.0,0.5,95,207.0
2076,F#3,315.0,0.5,95,207.0
2077,B2,315.0,0.5,95,207.0
2078,A3,315.5,0.5,95,207.0
2079,F#4,315.5,0.5,95,207.0
2080,D4,315.5,0.5,95,207.0
2081,B3,315.5,0.5,95,207.0
2082,F#3,315.5,0.5,95,207.0
2083,B2,315.5,0.5,95,207.0
2084,B3,316.0,0.5,95,207.0
2085,F#4,316.0,0.5,95,207.0
2086,D4,316.0,0.5,95,207.0
2087,B3,316.0,0.5,95,207.0
2088,F#3,316.0,0.5,95,207.0
2089,B2,316.0,0.5,95,207.0
2090,C#4,316.5,0.5,95,207.0
2091,F#4,316.5,1.5,95,207.0
2092,D4,316.5,1.5,95,207.0
2093,B3,316.5,1.5,95,207.0
2094,F#3,316.5,1.5,95,207.0
2095,B2,316.5,1.5,95,207.0
2096,B3,317.0,0.5,95,207.0
2097,E3,317.5,0.5,95,207.0
2098,F#5,318.0,1.0,95,207.0
2099,B3,318.0,0.5,95,207.0
2100,D4,318.0,1.0,95,207.0
2101,A3,318.0,1.0,95,207.0
2102,D3,318.0,1.0,95,207.0
2103,F#4,318.5,0.5,95,207.0
2104,G#5,319.0,1.0,95,207.0
2105,E4,319.0,0.5,95,207.0
2106,D4,319.0,0.5,95,207.0
2107,A3,319.0,0.5,95,207.0
2108,D3,319.0,0.5,95,207.0
2109,B3,319.5,0.5,95,207.0
2110,D4,319.5,1.5,95,207.0
2111,A3,319.5,1.5,95,207.0
2112,D3,319.5,1.5,95,207.0
2113,A5,320.0,1.0,95,207.0
2114,A4,320.0,0.5,95,207.0
2115,F#4,320.5,0.5,95,207.0
2116,G#5,321.0,3.0,95,207.0
2117,G#4,321.0,0.5,95,207.0
2118,D4,321.0,0.5,95,207.0
2119,A3,321.0,0.5,95,207.0
2120,D3,321.0,0.5,95,207.0
2121,F#4,321.5,0.5,95,207.0
2122,D4,321.5,0.5,95,207.0
2123,A3,321.5,0.5,95,207.0
2124,D3,321.5,0.5,95,207.0
2125,E4,322.0,0.5,95,207.0
2126,D4,322.0,0.5,95,207.0
2127,A3,322.0,0.5,95,207.0
2128,D3,322.0,0.5,95,207.0
2129,B3,322.5,0.5,95,207.0
2130,D4,322.5,0.5,95,207.0
2131,A3,322.5,0.5,95,207.0
2132,D3,322.5,0.5,95,207.0
2133,G2,323.0,0.5,95,207.0
2134,D4,323.0,0.5,95,207.0
2135,A3,323.0,0.5,95,207.0
2136,D3,323.0,0.5,95,207.0
2137,D3,323.5,0.5,95,207.0
2138,D4,323.5,0.5,95,207.0
2139,A3,323.5,0.5,95,207.0
2140,D3,323.5,0.5,95,207.0
2141,G#5,324.0,2.0,95,207.0
2142,A3,324.0,0.5,95,207.0
2143,D4,324.0,1.0,95,207.0
2144,A3,324.0,1.0,95,207.0
2145,D3,324.0,1.0,95,207.0
2146,B3,324.5,0.5,95,207.0
2147,D4,325.0,0.5,95,207.0
2148,D4,325.0,0.5,95,207.0
2149,A3,325.0,0.5,95,207.0
2150,D3,325.0,0.5,95,207.0
2151,G4,325.5,0.5,95,207.0
2152,D4,325.5,1.5,95,207.0
2153,A3,325.5,1.5,95,207.0
2154,D3,325.5,1.5,95,207.0
2155,F#5,326.0,0.5,95,207.0
2156,B4,326.0,0.5,95,207.0
2157,G#5,326.5,0.5,95,207.0
2158,D5,326.5,0.5,95,207.0
2159,A5,327.0,0.5,95,207.0
2160,B4,327.0,0.5,95,207.0
2161,D4,327.0,0.5,95,207.0
2162,A3,327.0,0.5,95,207.0
2163,D3,327.0,0.5,95,207.0
2164,E4,327.5,0.5,95,207.0
2165,E5,327.5,0.5,95,207.0
2166,D4,327.5,0.5,95,207.0
2167,A3,327.5,0.5,95,207.0
2168,D3,327.5,0.5,95,207.0
2169,G#5,328.0,0.5,95,207.0
2170,C#5,328.0,0.5,95,207.0
2171,D4,328.0,0.5,95,207.0
2172,A3,328.0,0.5,95,207.0
2173,D3,328.0,0.5,95,207.0
2174,E4,328.5,0.5,95,207.0
2175,A4,328.5,0.5,95,207.0
2176,D4,328.5,1.5,95,207.0
2177,A3,328.5,1.5,95,207.0
2178,D3,328.5,1.5,95,207.0
2179,F#5,329.0,0.5,95,207.0
2180,E4,329.0,6.0,95,207.0
2181,B3,329.0,6.0,95,207.0
2182,E4,329.0,6.0,95,207.0
2183,B3,329.0,6.0,95,207.0
2184,E3,329.0,6.0,95,207.0
2185,E2,329.0,6.0,95,207.0
2186,D5,329.5,0.5,95,207.0
2187,E5,330.0,3.0,95,207.0
2188,E4,330.0,1.0,95,207.0
2189,E4,330.0,1.0,95,207.0
2190,B3,330.0,1.0,95,207.0
2191,E3,330.0,1.0,95,207.0
2192,B2,330.0,1.0,95,207.0
2193,E2,330.0,1.0,95,207.0
2194,E4,331.0,0.5,95,207.0
2195,E4,331.0,0.5,95,207.0
2196,B3,331.0,0.5,95,207.0
2197,E3,331.0,0.5,95,207.0
2198,B2,331.0,0.5,95,207.0
2199,E2,331.0,0.5,95,207.0
2200,E4,331.5,1.5,95,207.0
2201,E4,331.5,1.5,95,207.0
2202,B3,331.5,1.5,95,207.0
2203,E3,331.5,1.5,95,207.0
2204,B2,331.5,1.5,95,207.0
2205,E2,331.5,1.5,95,207.0
2206,B4,333.0,0.5,95,207.0
2207,E4,333.0,0.5,95,207.0
2208,E4,333.0,0.5,95,207.0
2209,B3,333.0,0.5,95,207.0
2210,E3,333.0,0.5,95,207.0
2211,B2,333.0,0.5,95,207.0
2212,E2,333.0,0.5,95,207.0
2213,E5,333.5,0.5,95,207.0
2214,E4,333.5,0.5,95,207.0
2215,E4,333.5,0.5,95,207.0
2216,B3,333.5,0.5,95,207.0
2217,E3,333.5,0.5,95,207.0
2218,B2,333.5,0.5,95,207.0
2219,E2,333.5,0.5,95,207.0
2220,B4,334.0,0.5,95,207.0
2221,E4,334.0,0.5,95,207.0
2222,E4,334.0,0.5,95,207.0
2223,B3,334.0,0.5,95,207.0
2224,E3,334.0,0.5,95,207.0
2225,B2,334.0,0.5,95,207.0
2226,E2,334.0,0.5,95,207.0
2227,B5,334.5,0.5,95,207.0
2228,E4,334.5,0.5,95,207.0
2229,E4,334.5,0.5,95,207.0
2230,B3,334.5,0.5,95,207.0
2231,E3,334.5,0.5,95,207.0
2232,B2,334.5,0.5,95,207.0
2233,E2,334.5,0.5,95,207.0
2234,B4,335.0,0.5,95,207.0
2235,E4,335.0,0.5,95,207.0
2236,E4,335.0,0.5,95,207.0
2237,B3,335.0,0.5,95,207.0
2238,E3,335.0,0.5,95,207.0
2239,B2,335.0,0.5,95,207.0
2240,E2,335.0,0.5,95,207.0
2241,A5,335.5,0.5,95,207.0
2242,E4,335.5,0.5,95,207.0
2243,E4,335.5,0.5,95,207.0
2244,B3,335.5,0.5,95,207.0
2245,E3,335.5,0.5,95,207.0
2246,B2,335.5,0.5,95,207.0
2247,E2,335.5,0.5,95,207.0
2248,A5,336.0,0.5,95,207.0
2249,E4,336.0,1.0,95,207.0
2250,E4,336.0,1.0,95,207.0
2251,B3,336.0,1.0,95,207.0
2252,E3,336.0,1.0,95,207.0
2253,B2,336.0,1.0,95,207.0
2254,E2,336.0,1.0,95,207.0
2255,G#5,336.5,0.5,95,207.0
2256,F#5,337.0,0.5,95,207.0
2257,E4,337.0,0.5,95,207.0
2258,E4,337.0,0.5,95,207.0
2259,B3,337.0,0.5,95,207.0
2260,E3,337.0,0.5,95,207.0
2261,B2,337.0,0.5,95,207.0
2262,E2,337.0,0.5,95,207.0
2263,E5,337.5,0.5,95,207.0
2264,E4,337.5,1.5,95,207.0
2265,E4,337.5,1.5,95,207.0
2266,B3,337.5,1.5,95,207.0
2267,E3,337.5,1.5,95,207.0
2268,B2,337.5,1.5,95,207.0
2269,E2,337.5,1.5,95,207.0
2270,F#5,338.0,0.5,95,207.0
2271,E4,338.0,3.0,95,207.0
2272,B3,338.0,3.0,95,207.0
2273,E4,338.0,3.0,95,207.0
2274,B3,338.0,3.0,95,207.0
2275,E3,338.0,3.0,95,207.0
2276,E2,338.0,3.0,95,207.0
2277,G#5,338.5,0.5,95,207.0
2278,E5,339.0,0.5,95,207.0
2279,E4,339.0,0.5,95,207.0
2280,E4,339.0,0.5,95,207.0
2281,B3,339.0,0.5,95,207.0
2282,E3,339.0,0.5,95,207.0
2283,B2,339.0,0.5,95,207.0
2284,E2,339.0,0.5,95,207.0
2285,B4,339.5,0.5,95,207.0
2286,E4,339.5,0.5,95,207.0
2287,E4,339.5,0.5,95,207.0
2288,B3,339.5,0.5,95,207.0
2289,E3,339.5,0.5,95,207.0
2290,B2,339.5,0.5,95,207.0
2291,E2,339.5,0.5,95,207.0
2292,E5,340.0,0.5,95,207.0
2293,E4,340.0,0.5,95,207.0
2294,E4,340.0,0.5,95,207.0
2295,B3,340.0,0.5,95,207.0
2296,E3,340.0,0.5,95,207.0
2297,B2,340.0,0.5,95,207.0
2298,E2,340.0,0.5,95,207.0
2299,B5,340.5,0.5,95,207.0
2300,E4,340.5,1.5,95,207.0
2301,E4,340.5,1.5,95,207.0
2302,B3,340.5,1.5,95,207.0
2303,E3,340.5,1.5,95,207.0
2304,B2,340.5,1.5,95,207.0
2305,E2,340.5,1.5,95,207.0
2306,G#5,341.0,0.5,95,207.0
2307,E4,341.0,3.0,95,207.0
2308,B3,341.0,3.0,95,207.0
2309,E4,341.0,3.0,95,207.0
2310,B3,341.0,3.0,95,207.0
2311,E3,341.0,3.0,95,207.0
2312,E2,341.0,3.0,95,207.0
2313,E5,341.5,0.5,95,207.0
2314,G#5,342.0,1.0,95,207.0
2315,E4,342.0,1.0,95,207.0
2316,E4,342.0,1.0,95,207.0
2317,B3,342.0,1.0,95,207.0
2318,E3,342.0,1.0,95,207.0
2319,B2,342.0,1.0,95,207.0
2320,E2,342.0,1.0,95,207.0
2321,A5,343.0,1.0,95,207.0
2322,E4,343.0,0.5,95,207.0
2323,E4,343.0,0.5,95,207.0
2324,B3,343.0,0.5,95,207.0
2325,E3,343.0,0.5,95,207.0
2326,B2,343.0,0.5,95,207.0
2327,E2,343.0,0.5,95,207.0
2328,E4,343.5,1.5,95,207.0
2329,E4,343.5,1.5,95,207.0
2330,B3,343.5,1.5,95,207.0
2331,E3,343.5,1.5,95,207.0
2332,B2,343.5,1.5,95,207.0
2333,E2,343.5,1.5,95,207.0
2334,B5,344.0,1.0,95,207.0
2335,B3,344.0,6.0,95,207.0
2336,F#3,344.0,6.0,95,207.0
2337,B2,344.0,6.0,95,207.0
2338,A5,345.0,3.0,95,207.0
2339,E4,345.0,0.5,95,207.0
2340,E4,345.0,0.5,95,207.0
2341,B3,345.0,0.5,95,207.0
2342,E3,345.0,0.5,95,207.0
2343,B2,345.0,0.5,95,207.0
2344,E2,345.0,0.5,95,207.0
2345,E4,345.5,0.5,95,207.0
2346,E4,345.5,0.5,95,207.0
2347,B3,345.5,0.5,95,207.0
2348,E3,345.5,0.5,95,207.0
2349,B2,345.5,0.5,95,207.0
2350,E2,345.5,0.5,95,207.0
2351,E4,346.0,0.5,95,207.0
2352,E4,346.0,0.5,95,207.0
2353,B3,346.0,0.5,95,207.0
2354,E3,346.0,0.5,95,207.0
2355,B2,346.0,0.5,95,207.0
2356,E2,346.0,0.5,95,207.0
2357,E4,346.5,0.5,95,207.0
2358,E4,346.5,0.5,95,207.0
2359,B3,346.5,0.5,95,207.0
2360,E3,346.5,0.5,95,207.0
2361,B2,346.5,0.5,95,207.0
2362,E2,346.5,0.5,95,207.0
2363,E4,347.0,0.5,95,207.0
2364,E4,347.0,0.5,95,207.0
2365,B3,347.0,0.5,95,207.0
2366,E3,347.0,0.5,95,207.0
2367,B2,347.0,0.5,95,207.0
2368,E2,347.0,0.5,95,207.0
2369,E4,347.5,0.5,95,207.0
2370,E4,347.5,0.5,95,207.0
2371,B3,347.5,0.5,95,207.0
2372,E3,347.5,0.5,95,207.0
2373,B2,347.5,0.5,95,207.0
2374,E2,347.5,0.5,95,207.0
2375,A5,348.0,2.0,95,207.0
2376,E4,348.0,1.0,95,207.0
2377,E4,348.0,1.0,95,207.0
2378,B3,348.0,1.0,95,207.0
2379,E3,348.0,1.0,95,207.0
2380,B2,348.0,1.0,95,207.0
2381,E2,348.0,1.0,95,207.0
2382,E4,349.0,0.5,95,207.0
2383,E4,349.0,0.5,95,207.0
2384,B3,349.0,0.5,95,207.0
2385,E3,349.0,0.5,95,207.0
2386,B2,349.0,0.5,95,207.0
2387,E2,349.0,0.5,95,207.0
2388,E4,349.5,1.5,95,207.0
2389,E4,349.5,1.5,95,207.0
2390,B3,349.5,1.5,95,207.0
2391,E3,349.5,1.5,95,207.0
2392,B2,349.5,1.5,95,207.0
2393,E2,349.5,1.5,95,207.0
2394,B5,350.0,0.5,95,207.0
2395,C#6,350.5,0.5,95,207.0
2396,D6,351.0,0.5,95,207.0
2397,E4,351.0,0.5,95,207.0
2398,E4,351.0,0.5,95,207.0
2399,B3,351.0,0.5,95,207.0
2400,E3,351.0,0.5,95,207.0
2401,B2,351.0,0.5,95,207.0
2402,E2,351.0,0.5,95,207.0
2403,E4,351.5,0.5,95,207.0
2404,E4,351.5,0.5,95,207.0
2405,B3,351.5,0.5,95,207.0
2406,E3,351.5,0.5,95,207.0
2407,B2,351.5,0.5,95,207.0
2408,E2,351.5,0.5,95,207.0
2409,C#6,352.0,0.5,95,207.0
2410,E4,352.0,0.5,95,207.0
2411,E4,352.0,0.5,95,207.0
2412,B3,352.0,0.5,95,207.0
2413,E3,352.0,0.5,95,207.0
2414,B2,352.0,0.5,95,207.0
2415,E2,352.0,0.5,95,207.0
2416,E4,352.5,1.5,95,207.0
2417,E4,352.5,1.5,95,207.0
2418,B3,352.5,1.5,95,207.0
2419,E3,352.5,1.5,95,207.0
2420,B2,352.5,1.5,95,207.0
2421,E2,352.5,1.5,95,207.0
2422,B5,353.0,0.5,95,207.0
2423,B3,353.0,3.0,95,207.0
2424,F#3,353.0,3.0,95,207.0
2425,B2,353.0,3.0,95,207.0
2426,A5,353.5,0.5,95,207.0
2427,B5,354.0,2.0,95,207.0
2428,F#4,354.0,1.0,95,207.0
2429,D4,354.0,1.0,95,207.0
2430,B3,354.0,1.0,95,207.0
2431,F#3,354.0,1.0,95,207.0
2432,B2,354.0,1.0,95,207.0
2433,F#4,355.0,0.5,95,207.0
2434,D4,355.0,0.5,95,207.0
2435,B3,355.0,0.5,95,207.0
2436,F#3,355.0,0.5,95,207.0
2437,B2,355.0,0.5,95,207.0
2438,F#4,355.5,1.5,95,207.0
2439,D4,355.5,1.5,95,207.0
2440,B3,355.5,1.5,95,207.0
2441,F#3,355.5,1.5,95,207.0
2442,B2,355.5,1.5,95,207.0
2443,F#5,356.0,1.0,95,207.0
2444,B3,356.0,3.0,95,207.0
2445,F#3,356.0,3.0,95,207.0
2446,B2,356.0,3.0,95,207.0
2447,F#5,357.0,3.0,95,207.0
2448,F#4,357.0,0.5,95,207.0
2449,D4,357.0,0.5,95,207.0
2450,B3,357.0,0.5,95,207.0
2451,F#3,357.0,0.5,95,207.0
2452,B2,357.0,0.5,95,207.0
2453,F#4,357.5,0.5,95,207.0
2454,D4,357.5,0.5,95,207.0
2455,B3,357.5,0.5,95,207.0
2456,F#3,357.5,0.5,95,207.0
2457,B2,357.5,0.5,95,207.0
2458,F#4,358.0,0.5,95,207.0
2459,D4,358.0,0.5,95,207.0
2460,B3,358.0,0.5,95,207.0
2461,F#3,358.0,0.5,95,207.0
2462,B2,358.0,0.5,95,207.0
2463,F#4,358.5,0.5,95,207.0
2464,D4,358.5,0.5,95,207.0
2465,B3,358.5,0.5,95,207.0
2466,F#3,358.5,0.5,95,207.0
2467,B2,358.5,0.5,95,207.0
2468,D4,359.0,6.0,95,207.0
2469,A3,359.0,6.0,95,207.0
2470,D3,359.0,6.0,95,207.0
2471,F#4,359.0,0.5,95,207.0
2472,D4,359.0,0.5,95,207.0
2473,B3,359.0,0.5,95,207.0
2474,F#3,359.0,0.5,95,207.0
2475,B2,359.0,0.5,95,207.0
2476,F#4,359.5,0.5,95,207.0
2477,D4,359.5,0.5,95,207.0
2478,B3,359.5,0.5,95,207.0
2479,F#3,359.5,0.5,95,207.0
2480,B2,359.5,0.5,95,207.0
2481,F#5,360.0,4.5,95,207.0
2482,F#4,360.0,1.0,95,207.0
2483,D4,360.0,1.0,95,207.0
2484,B3,360.0,1.0,95,207.0
2485,F#3,360.0,1.0,95,207.0
2486,B2,360.0,1.0,95,207.0
2487,F#4,361.0,0.5,95,207.0
2488,D4,361.0,0.5,95,207.0
2489,B3,361.0,0.5,95,207.0
2490,F#3,361.0,0.5,95,207.0
2491,B2,361.0,0.5,95,207.0
2492,F#4,361.5,1.5,95,207.0
2493,D4,361.5,1.5,95,207.0
2494,B3,361.5,1.5,95,207.0
2495,F#3,361.5,1.5,95,207.0
2496,B2,361.5,1.5,95,207.0
2497,F#4,363.0,0.5,95,207.0
2498,D4,363.0,0.5,95,207.0
2499,B3,363.0,0.5,95,207.0
2500,F#3,363.0,0.5,95,207.0
2501,B2,363.0,0.5,95,207.0
2502,F#4,363.5,0.5,95,207.0
2503,D4,363.5,0.5,95,207.0
2504,B3,363.5,0.5,95,207.0
2505,F#3,363.5,0.5,95,207.0
2506,B2,363.5,0.5,95,207.0
2507,F#4,364.0,0.5,95,207.0
2508,D4,364.0,0.5,95,207.0
2509,B3,364.0,0.5,95,207.0
2510,F#3,364.0,0.5,95,207.0
2511,B2,364.0,0.5,95,207.0
2512,F#4,364.5,1.5,95,207.0
2513,D4,364.5,1.5,95,207.0
2514,B3,364.5,1.5,95,207.0
2515,F#3,364.5,1.5,95,207.0
2516,B2,364.5,1.5,95,207.0
2517,B4,365.0,1.0,95,207.0
2518,A5,366.0,1.0,95,207.0
2519,F#4,366.0,1.0,95,207.0
2520,C#4,366.0,1.0,95,207.0
2521,A3,366.0,1.0,95,207.0
2522,F#3,366.0,1.0,95,207.0
2523,C#3,366.0,1.0,95,207.0
2524,F#2,366.0,1.0,95,207.0
2525,B5,367.0,1.0,95,207.0
2526,F#4,367.0,0.5,95,207.0
2527,C#4,367.0,0.5,95,207.0
2528,A3,367.0,0.5,95,207.0
2529,F#3,367.0,0.5,95,207.0
2530,C#3,367.0,0.5,95,207.0
2531,F#2,367.0,0.5,95,207.0
2532,F#4,367.5,1.5,95,207.0
2533,C#4,367.5,1.5,95,207.0
2534,A3,367.5,1.5,95,207.0
2535,F#3,367.5,1.5,95,207.0
2536,C#3,367.5,1.5,95,207.0
2537,F#2,367.5,1.5,95,207.0
2538,C#6,368.0,1.0,95,207.0
2539,D4,368.0,3.0,95,207.0
2540,A3,368.0,3.0,95,207.0
2541,D3,368.0,3.0,95,207.0
2542,B5,369.0,3.0,95,207.0
2543,F#4,369.0,0.5,95,207.0
2544,C#4,369.0,0.5,95,207.0
2545,A3,369.0,0.5,95,207.0
2546,F#3,369.0,0.5,95,207.0
2547,C#3,369.0,0.5,95,207.0
2548,F#2,369.0,0.5,95,207.0
2549,F#4,369.5,0.5,95,207.0
2550,C#4,369.5,0.5,95,207.0
2551,A3,369.5,0.5,95,207.0
2552,F#3,369.5,0.5,95,207.0
2553,C#3,369.5,0.5,95,207.0
2554,F#2,369.5,0.5,95,207.0
2555,F#4,370.0,0.5,95,207.0
2556,C#4,370.0,0.5,95,207.0
2557,A3,370.0,0.5,95,207.0
2558,F#3,370.0,0.5,95,207.0
2559,C#3,370.0,0.5,95,207.0
2560,F#2,370.0,0.5,95,207.0
2561,F#4,370.5,0.5,95,207.0
2562,C#4,370.5,0.5,95,207.0
2563,A3,370.5,0.5,95,207.0
2564,F#3,370.5,0.5,95,207.0
2565,C#3,370.5,0.5,95,207.0
2566,F#2,370.5,0.5,95,207.0
2567,D4,371.0,3.0,95,207.0
2568,A3,371.0,3.0,95,207.0
2569,D3,371.0,3.0,95,207.0
2570,F#4,371.0,0.5,95,207.0
2571,C#4,371.0,0.5,95,207.0
2572,A3,371.0,0.5,95,207.0
2573,F#3,371.0,0.5,95,207.0
2574,C#3,371.0,0.5,95,207.0
2575,F#2,371.0,0.5,95,207.0
2576,F#4,371.5,0.5,95,207.0
2577,C#4,371.5,0.5,95,207.0
2578,A3,371.5,0.5,95,207.0
2579,F#3,371.5,0.5,95,207.0
2580,C#3,371.5,0.5,95,207.0
2581,F#2,371.5,0.5,95,207.0
2582,B5,372.0,2.0,95,207.0
2583,F#4,372.0,1.0,95,207.0
2584,C#4,372.0,1.0,95,207.0
2585,A3,372.0,1.0,95,207.0
2586,F#3,372.0,1.0,95,207.0
2587,C#3,372.0,1.0,95,207.0
2588,F#2,372.0,1.0,95,207.0
2589,F#4,373.0,0.5,95,207.0
2590,C#4,373.0,0.5,95,207.0
2591,A3,373.0,0.5,95,207.0
2592,F#3,373.0,0.5,95,207.0
2593,C#3,373.0,0.5,95,207.0
2594,F#2,373.0,0.5,95,207.0
2595,F#4,373.5,1.5,95,207.0
2596,C#4,373.5,1.5,95,207.0
2597,A3,373.5,1.5,95,207.0
2598,F#3,373.5,1.5,95,207.0
2599,C#3,373.5,1.5,95,207.0
2600,F#2,373.5,1.5,95,207.0
2601,A5,374.0,0.5,95,207.0
2602,E2,374.0,1.0,95,207.0
2603,B5,374.5,0.5,95,207.0
2604,C#6,375.0,0.5,95,207.0
2605,E3,375.0,1.0,95,207.0
2606,F#4,375.0,0.5,95,207.0
2607,C#4,375.0,0.5,95,207.0
2608,A3,375.0,0.5,95,207.0
2609,F#3,375.0,0.5,95,207.0
2610,C#3,375.0,0.5,95,207.0
2611,F#2,375.0,0.5,95,207.0
2612,F#4,375.5,0.5,95,207.0
2613,C#4,375.5,0.5,95,207.0
2614,A3,375.5,0.5,95,207.0
2615,F#3,375.5,0.5,95,207.0
2616,C#3,375.5,0.5,95,207.0
2617,F#2,375.5,0.5,95,207.0
2618,B5,376.0,0.5,95,207.0
2619,E2,376.0,0.5,95,207.0
2620,F#4,376.0,0.5,95,207.0
2621,C#4,376.0,0.5,95,207.0
2622,A3,376.0,0.5,95,207.0
2623,F#3,376.0,0.5,95,207.0
2624,C#3,376.0,0.5,95,207.0
2625,F#2,376.0,0.5,95,207.0
2626,E2,376.5,0.5,95,207.0
2627,F#4,376.5,1.5,95,207.0
2628,C#4,376.5,1.5,95,207.0
2629,A3,376.5,1.5,95,207.0
2630,F#3,376.5,1.5,95,207.0
2631,C#3,376.5,1.5,95,207.0
2632,F#2,376.5,1.5,95,207.0
2633,A5,377.0,0.5,95,207.0
2634,D3,377.0,0.5,95,207.0
2635,A2,377.5,0.5,95,207.0
2636,B5,378.0,2.0,95,207.0
2637,C#3,378.0,0.5,95,207.0
2638,G4,378.0,1.0,95,207.0
2639,D4,378.0,1.0,95,207.0
2640,G3,378.0,1.0,95,207.0
2641,D3,378.0,1.0,95,207.0
2642,G2,378.0,1.0,95,207.0
2643,A2,378.5,0.5,95,207.0
2644,B2,379.0,0.5,95,207.0
2645,G4,379.0,0.5,95,207.0
2646,D4,379.0,0.5,95,207.0
2647,G3,379.0,0.5,95,207.0
2648,D3,379.0,0.5,95,207.0
2649,G2,379.0,0.5,95,207.0
2650,A2,379.5,0.5,95,207.0
2651,G4,379.5,1.5,95,207.0
2652,D4,379.5,1.5,95,207.0
2653,G3,379.5,1.5,95,207.0
2654,D3,379.5,1.5,95,207.0
2655,G2,379.5,1.5,95,207.0
2656,B5,379.875,0.125,95,207.0
2657,C#6,380.0,1.0,95,207.0
2658,E2,380.0,1.0,95,207.0
2659,B5,381.0,3.0,95,207.0
2660,E3,381.0,1.0,95,207.0
2661,G4,381.0,0.5,95,207.0
2662,D4,381.0,0.5,95,207.0
2663,G3,381.0,0.5,95,207.0
2664,D3,381.0,0.5,95,207.0
2665,G2,381.0,0.5,95,207.0
2666,G4,381.5,0.5,95,207.0
2667,D4,381.5,0.5,95,207.0
2668,G3,381.5,0.5,95,207.0
2669,D3,381.5,0.5,95,207.0
2670,G2,381.5,0.5,95,207.0
2671,F#3,382.0,0.5,95,207.0
2672,G4,382.0,0.5,95,207.0
2673,D4,382.0,0.5,95,207.0
2674,G3,382.0,0.5,95,207.0
2675,D3,382.0,0.5,95,207.0
2676,G2,382.0,0.5,95,207.0
2677,G#3,382.5,0.5,95,207.0
2678,G4,382.5,0.5,95,207.0
2679,D4,382.5,0.5,95,207.0
2680,G3,382.5,0.5,95,207.0
2681,D3,382.5,0.5,95,207.0
2682,G2,382.5,0.5,95,207.0
2683,A3,383.0,0.5,95,207.0
2684,G4,383.0,0.5,95,207.0
2685,D4,383.0,0.5,95,207.0
2686,G3,383.0,0.5,95,207.0
2687,D3,383.0,0.5,95,207.0
2688,G2,383.0,0.5,95,207.0
2689,G#3,383.5,0.5,95,207.0
2690,G4,383.5,0.5,95,207.0
2691,D4,383.5,0.5,95,207.0
2692,G3,383.5,0.5,95,207.0
2693,D3,383.5,0.5,95,207.0
2694,G2,383.5,0.5,95,207.0
2695,B5,384.0,6.0,95,207.0
2696,F#3,384.0,0.5,95,207.0
2697,G4,384.0,1.0,95,207.0
2698,D4,384.0,1.0,95,207.0
2699,G3,384.0,1.0,95,207.0
2700,D3,384.0,1.0,95,207.0
2701,G2,384.0,1.0,95,207.0
2702,D3,384.5,0.5,95,207.0
2703,E3,385.0,0.5,95,207.0
2704,G4,385.0,0.5,95,207.0
2705,D4,385.0,0.5,95,207.0
2706,G3,385.0,0.5,95,207.0
2707,D3,385.0,0.5,95,207.0
2708,G2,385.0,0.5,95,207.0
2709,F#3,385.5,0.5,95,207.0
2710,G4,385.5,1.5,95,207.0
2711,D4,385.5,1.5,95,207.0
2712,G3,385.5,1.5,95,207.0
2713,D3,385.5,1.5,95,207.0
2714,G2,385.5,1.5,95,207.0
2715,E4,386.0,6.0,95,207.0
2716,B3,386.0,6.0,95,207.0
2717,E4,386.0,6.0,95,207.0
2718,B3,386.0,6.0,95,207.0
2719,E3,386.0,6.0,95,207.0
2720,E2,386.0,6.0,95,207.0
2721,G4,387.0,0.5,95,207.0
2722,D4,387.0,0.5,95,207.0
2723,G3,387.0,0.5,95,207.0
2724,D3,387.0,0.5,95,207.0
2725,G2,387.0,0.5,95,207.0
2726,G4,387.5,0.5,95,207.0
2727,D4,387.5,0.5,95,207.0
2728,G3,387.5,0.5,95,207.0
2729,D3,387.5,0.5,95,207.0
2730,G2,387.5,0.5,95,207.0
2731,G4,388.0,0.5,95,207.0
2732,D4,388.0,0.5,95,207.0
2733,G3,388.0,0.5,95,207.0
2734,D3,388.0,0.5,95,207.0
2735,G2,388.0,0.5,95,207.0
2736,G4,388.5,1.5,95,207.0
2737,D4,388.5,1.5,95,207.0
2738,G3,388.5,1.5,95,207.0
2739,D3,388.5,1.5,95,207.0
2740,G2,388.5,1.5,95,207.0
2741,F#4,390.0,0.5,95,207.0
2742,F#4,390.0,1.0,95,207.0
2743,D4,390.0,1.0,95,207.0
2744,B3,390.0,1.0,95,207.0
2745,F#3,390.0,1.0,95,207.0
2746,B2,390.0,1.0,95,207.0
2747,B4,390.5,0.5,95,207.0
2748,F#4,391.0,0.5,95,207.0
2749,F#4,391.0,0.5,95,207.0
2750,D4,391.0,0.5,95,207.0
2751,B3,391.0,0.5,95,207.0
2752,F#3,391.0,0.5,95,207.0
2753,B2,391.0,0.5,95,207.0
2754,F#5,391.5,0.5,95,207.0
2755,F#4,391.5,1.5,95,207.0
2756,D4,391.5,1.5,95,207.0
2757,B3,391.5,1.5,95,207.0
2758,F#3,391.5,1.5,95,207.0
2759,B2,391.5,1.5,95,207.0
2760,F#4,392.0,0.5,95,207.0
2761,E5,392.5,1.0,95,207.0
2762,F#4,393.0,0.5,95,207.0
2763,D4,393.0,0.5,95,207.0
2764,B3,393.0,0.5,95,207.0
2765,F#3,393.0,0.5,95,207.0
2766,B2,393.0,0.5,95,207.0
2767,D5,393.5,0.5,95,207.0
2768,F#4,393.5,0.5,95,207.0
2769,D4,393.5,0.5,95,207.0
2770,B3,393.5,0.5,95,207.0
2771,F#3,393.5,0.5,95,207.0
2772,B2,393.5,0.5,95,207.0
2773,C#5,394.0,0.5,95,207.0
2774,F#4,394.0,0.5,95,207.0
2775,D4,394.0,0.5,95,207.0
2776,B3,394.0,0.5,95,207.0
2777,F#3,394.0,0.5,95,207.0
2778,B2,394.0,0.5,95,207.0
2779,B4,394.5,0.5,95,207.0
2780,F#4,394.5,0.5,95,207.0
2781,D4,394.5,0.5,95,207.0
2782,B3,394.5,0.5,95,207.0
2783,F#3,394.5,0.5,95,207.0
2784,B2,394.5,0.5,95,207.0
2785,C#5,395.0,0.5,95,207.0
2786,E4,395.0,3.0,95,207.0
2787,B3,395.0,3.0,95,207.0
2788,E4,395.0,3.0,95,207.0
2789,B3,395.0,3.0,95,207.0
2790,E3,395.0,3.0,95,207.0
2791,E2,395.0,3.0,95,207.0
2792,F#4,395.0,0.5,95,207.0
2793,D4,395.0,0.5,95,207.0
2794,B3,395.0,0.5,95,207.0
2795,F#3,395.0,0.5,95,207.0
2796,B2,395.0,0.5,95,207.0
2797,D5,395.5,0.5,95,207.0
2798,F#4,395.5,0.5,95,207.0
2799,D4,395.5,0.5,95,207.0
2800,B3,395.5,0.5,95,207.0
2801,F#3,395.5,0.5,95,207.0
2802,B2,395.5,0.5,95,207.0
2803,B4,396.0,0.5,95,207.0
2804,F#4,396.0,1.0,95,207.0
2805,D4,396.0,1.0,95,207.0
2806,B3,396.0,1.0,95,207.0
2807,F#3,396.0,1.0,95,207.0
2808,B2,396.0,1.0,95,207.0
2809,F#4,396.5,0.5,95,207.0
2810,B4,397.0,0.5,95,207.0
2811,F#4,397.0,0.5,95,207.0
2812,D4,397.0,0.5,95,207.0
2813,B3,397.0,0.5,95,207.0
2814,F#3,397.0,0.5,95,207.0
2815,B2,397.0,0.5,95,207.0
2816,F#5,397.5,0.5,95,207.0
2817,F#4,397.5,1.5,95,207.0
2818,D4,397.5,1.5,95,207.0
2819,B3,397.5,1.5,95,207.0
2820,F#3,397.5,1.5,95,207.0
2821,B2,397.5,1.5,95,207.0
2822,D5,398.0,0.5,70,207.0
2823,E4,398.0,3.0,95,207.0
2824,B3,398.0,3.0,95,207.0
2825,E4,398.0,3.0,95,207.0
2826,B3,398.0,3.0,95,207.0
2827,E3,398.0,3.0,95,207.0
2828,E2,398.0,3.0,95,207.0
2829,B4,398.5,0.5,95,207.0
2830,E5,399.0,0.5,95,207.0
2831,E4,399.0,0.5,95,207.0
2832,C#4,399.0,0.5,95,207.0
2833,A3,399.0,0.5,95,207.0
2834,E3,399.0,0.5,95,207.0
2835,C#3,399.0,0.5,95,207.0
2836,C#5,399.5,0.5,70,207.0
2837,E4,399.5,0.5,95,207.0
2838,C#4,399.5,0.5,95,207.0
2839,A3,399.5,0.5,95,207.0
2840,E3,399.5,0.5,95,207.0
2841,C#3,399.5,0.5,95,207.0
2842,A4,400.0,0.5,95,207.0
2843,E4,400.0,0.5,95,207.0
2844,C#4,400.0,0.5,95,207.0
2845,A3,400.0,0.5,95,207.0
2846,E3,400.0,0.5,95,207.0
2847,C#3,400.0,0.5,95,207.0
2848,A5,400.5,0.5,95,207.0
2849,E4,400.5,1.5,95,207.0
2850,C#4,400.5,1.5,95,207.0
2851,A3,400.5,1.5,95,207.0
2852,E3,400.5,1.5,95,207.0
2853,C#3,400.5,1.5,95,207.0
2854,E5,401.0,0.5,95,207.0
2855,B3,401.0,6.0,95,207.0
2856,F#3,401.0,6.0,95,207.0
2857,B2,401.0,6.0,95,207.0
2858,C#5,401.5,0.5,95,207.0
2859,A4,402.0,0.5,95,207.0
2860,D4,402.0,1.0,95,207.0
2861,A3,402.0,1.0,95,207.0
2862,D3,402.0,1.0,95,207.0
2863,D5,402.5,0.5,95,207.0
2864,A4,403.0,0.5,95,207.0
2865,D4,403.0,0.5,95,207.0
2866,A3,403.0,0.5,95,207.0
2867,D3,403.0,0.5,95,207.0
2868,E5,403.5,0.5,95,207.0
2869,D4,403.5,1.5,95,207.0
2870,A3,403.5,1.5,95,207.0
2871,D3,403.5,1.5,95,207.0
2872,A4,404.0,0.5,95,207.0
2873,A5,404.5,1.0,95,207.0
2874,D4,405.0,0.5,95,207.0
2875,A3,405.0,0.5,95,207.0
2876,D3,405.0,0.5,95,207.0
2877,F#5,405.5,0.5,95,207.0
2878,D4,405.5,0.5,95,207.0
2879,A3,405.5,0.5,95,207.0
2880,D3,405.5,0.5,95,207.0
2881,E5,406.0,0.5,95,207.0
2882,D4,406.0,0.5,95,207.0
2883,A3,406.0,0.5,95,207.0
2884,D3,406.0,0.5,95,207.0
2885,D5,406.5,0.5,95,207.0
2886,D4,406.5,0.5,95,207.0
2887,A3,406.5,0.5,95,207.0
2888,D3,406.5,0.5,95,207.0
2889,E5,407.0,0.5,95,207.0
2890,D4,407.0,0.5,95,207.0
2891,A3,407.0,0.5,95,207.0
2892,D3,407.0,0.5,95,207.0
2893,F#5,407.5,0.5,95,207.0
2894,D4,407.5,0.5,95,207.0
2895,A3,407.5,0.5,95,207.0
2896,D3,407.5,0.5,95,207.0
2897,D5,408.0,0.5,95,207.0
2898,D4,408.0,1.0,95,207.0
2899,A3,408.0,1.0,95,207.0
2900,D3,408.0,1.0,95,207.0
2901,A3,408.5,0.5,95,207.0
2902,D5,409.0,0.5,95,207.0
2903,D4,409.0,0.5,95,207.0
2904,A3,409.0,0.5,95,207.0
2905,D3,409.0,0.5,95,207.0
2906,A5,409.5,0.5,95,207.0
2907,D4,409.5,1.5,95,207.0
2908,A3,409.5,1.5,95,207.0
2909,D3,409.5,1.5,95,207.0
2910,F#5,410.0,0.5,70,207.0
2911,B3,410.0,3.0,95,207.0
2912,F#3,410.0,3.0,95,207.0
2913,B2,410.0,3.0,95,207.0
2914,D5,410.5,0.5,95,207.0
2915,G#5,411.0,0.5,95,207.0
2916,E4,411.0,0.5,95,207.0
2917,E4,411.0,0.5,95,207.0
2918,B3,411.0,0.5,95,207.0
2919,E3,411.0,0.5,95,207.0
2920,B2,411.0,0.5,95,207.0
2921,E2,411.0,0.5,95,207.0
2922,E5,411.5,0.5,70,207.0
2923,E4,411.5,0.5,95,207.0
2924,E4,411.5,0.5,95,207.0
2925,B3,411.5,0.5,95,207.0
2926,E3,411.5,0.5,95,207.0
2927,B2,411.5,0.5,95,207.0
2928,E2,411.5,0.5,95,207.0
2929,B4,412.0,0.5,95,207.0
2930,E4,412.0,0.5,95,207.0
2931,E4,412.0,0.5,95,207.0
2932,B3,412.0,0.5,95,207.0
2933,E3,412.0,0.5,95,207.0
2934,B2,412.0,0.5,95,207.0
2935,E2,412.0,0.5,95,207.0
2936,B5,412.5,0.5,95,207.0
2937,E4,412.5,1.5,95,207.0
2938,E4,412.5,1.5,95,207.0
2939,B3,412.5,1.5,95,207.0
2940,E3,412.5,1.5,95,207.0
2941,B2,412.5,1.5,95,207.0
2942,E2,412.5,1.5,95,207.0
2943,G#5,413.0,0.5,95,207.0
2944,B3,413.0,3.0,95,207.0
2945,F#3,413.0,3.0,95,207.0
2946,B2,413.0,3.0,95,207.0
2947,E5,413.5,0.5,95,207.0
2948,C#5,414.0,0.5,95,207.0
2949,F#4,414.0,1.0,95,207.0
2950,C#4,414.0,1.0,95,207.0
2951,A3,414.0,1.0,95,207.0
2952,F#3,414.0,1.0,95,207.0
2953,C#3,414.0,1.0,95,207.0
2954,F#2,414.0,1.0,95,207.0
2955,F#5,414.5,0.5,95,207.0
2956,C#5,415.0,0.5,95,207.0
2957,F#4,415.0,0.5,95,207.0
2958,C#4,415.0,0.5,95,207.0
2959,A3,415.0,0.5,95,207.0
2960,F#3,415.0,0.5,95,207.0
2961,C#3,415.0,0.5,95,207.0
2962,F#2,415.0,0.5,95,207.0
2963,C#6,415.5,0.5,95,207.0
2964,F#4,415.5,1.5,95,207.0
2965,C#4,415.5,1.5,95,207.0
2966,A3,415.5,1.5,95,207.0
2967,F#3,415.5,1.5,95,207.0
2968,C#3,415.5,1.5,95,207.0
2969,F#2,415.5,1.5,95,207.0
2970,C#5,416.0,0.5,95,207.0
2971,F#3,416.0,6.0,95,207.0
2972,C#3,416.0,6.0,95,207.0
2973,F#2,416.0,6.0,95,207.0
2974,B5,416.5,1.0,95,207.0
2975,F#4,417.0,0.5,95,207.0
2976,C#4,417.0,0.5,95,207.0
2977,A3,417.0,0.5,95,207.0
2978,F#3,417.0,0.5,95,207.0
2979,C#3,417.0,0.5,95,207.0
2980,F#2,417.0,0.5,95,207.0
2981,A5,417.5,0.5,95,207.0
2982,F#4,417.5,0.5,95,207.0
2983,C#4,417.5,0.5,95,207.0
2984,A3,417.5,0.5,95,207.0
2985,F#3,417.5,0.5,95,207.0
2986,C#3,417.5,0.5,95,207.0
2987,F#2,417.5,0.5,95,207.0
2988,G#5,418.0,0.5,95,207.0
2989,F#4,418.0,0.5,95,207.0
2990,C#4,418.0,0.5,95,207.0
2991,A3,418.0,0.5,95,207.0
2992,F#3,418.0,0.5,95,207.0
2993,C#3,418.0,0.5,95,207.0
2994,F#2,418.0,0.5,95,207.0
2995,F#5,418.5,0.5,95,207.0
2996,F#4,418.5,0.5,95,207.0
2997,C#4,418.5,0.5,95,207.0
2998,A3,418.5,0.5,95,207.0
2999,F#3,418.5,0.5,95,207.0
3000,C#3,418.5,0.5,95,207.0
3001,F#2,418.5,0.5,95,207.0
3002,G#5,419.0,0.5,95,207.0
3003,F#4,419.0,3.0,95,207.0
3004,F#4,419.0,0.5,95,207.0
3005,C#4,419.0,0.5,95,207.0
3006,A3,419.0,0.5,95,207.0
3007,F#3,419.0,0.5,95,207.0
3008,C#3,419.0,0.5,95,207.0
3009,F#2,419.0,0.5,95,207.0
3010,A5,419.5,0.5,95,207.0
3011,F#4,419.5,0.5,95,207.0
3012,C#4,419.5,0.5,95,207.0
3013,A3,419.5,0.5,95,207.0
3014,F#3,419.5,0.5,95,207.0
3015,C#3,419.5,0.5,95,207.0
3016,F#2,419.5,0.5,95,207.0
3017,F#5,420.0,0.5,95,207.0
3018,F#4,420.0,1.0,95,207.0
3019,C#4,420.0,1.0,95,207.0
3020,A3,420.0,1.0,95,207.0
3021,F#3,420.0,1.0,95,207.0
3022,C#3,420.0,1.0,95,207.0
3023,F#2,420.0,1.0,95,207.0
3024,C#5,420.5,0.5,95,207.0
3025,F#5,421.0,0.5,95,207.0
3026,F#4,421.0,0.5,95,207.0
3027,C#4,421.0,0.5,95,207.0
3028,A3,421.0,0.5,95,207.0
3029,F#3,421.0,0.5,95,207.0
3030,C#3,421.0,0.5,95,207.0
3031,F#2,421.0,0.5,95,207.0
3032,C#6,421.5,0.5,95,207.0
3033,F#4,421.5,1.5,95,207.0
3034,C#4,421.5,1.5,95,207.0
3035,A3,421.5,1.5,95,207.0
3036,F#3,421.5,1.5,95,207.0
3037,C#3,421.5,1.5,95,207.0
3038,F#2,421.5,1.5,95,207.0
3039,A5,422.0,0.5,70,207.0
3040,F#5,422.5,0.5,95,207.0
3041,B5,423.0,0.5,95,207.0
3042,E4,423.0,0.5,95,207.0
3043,E4,423.0,0.5,95,207.0
3044,B3,423.0,0.5,95,207.0
3045,E3,423.0,0.5,95,207.0
3046,B2,423.0,0.5,95,207.0
3047,E2,423.0,0.5,95,207.0
3048,G#5,423.5,0.5,70,207.0
3049,E4,423.5,0.5,95,207.0
3050,E4,423.5,0.5,95,207.0
3051,B3,423.5,0.5,95,207.0
3052,E3,423.5,0.5,95,207.0
3053,B2,423.5,0.5,95,207.0
3054,E2,423.5,0.5,95,207.0
3055,E5,424.0,0.5,95,207.0
3056,E4,424.0,0.5,95,207.0
3057,E4,424.0,0.5,95,207.0
3058,B3,424.0,0.5,95,207.0
3059,E3,424.0,0.5,95,207.0
3060,B2,424.0,0.5,95,207.0
3061,E2,424.0,0.5,95,207.0
3062,B4,424.5,0.125,95,207.0
3063,E4,424.5,1.5,95,207.0
3064,E4,424.5,1.5,95,207.0
3065,B3,424.5,1.5,95,207.0
3066,E3,424.5,1.5,95,207.0
3067,B2,424.5,1.5,95,207.0
3068,E2,424.5,1.5,95,207.0
3069,G#4,424.625,0.125,95,207.0
3070,E4,424.75,0.125,95,207.0
3071,G#4,424.875,0.125,95,207.0
3072,E4,425.0,0.125,95,207.0
3073,G#4,425.125,0.125,95,207.0
3074,B4,425.25,0.125,95,207.0
3075,E5,425.375,0.125,95,207.0
3076,G#5,425.5,0.5,95,207.0
3077,B5,426.0,3.0,95,207.0
3078,F#4,426.0,1.0,95,207.0
3079,D4,426.0,1.0,95,207.0
3080,B3,426.0,1.0,95,207.0
3081,F#3,426.0,1.0,95,207.0
3082,B2,426.0,1.0,95,207.0
3083,F#4,427.0,0.5,95,207.0
3084,D4,427.0,0.5,95,207.0
3085,B3,427.0,0.5,95,207.0
3086,F#3,427.0,0.5,95,207.0
3087,B2,427.0,0.5,95,207.0
3088,F#4,427.5,1.5,95,207.0
3089,D4,427.5,1.5,95,207.0
3090,B3,427.5,1.5,95,207.0
3091,F#3,427.5,1.5,95,207.0
3092,B2,427.5,1.5,95,207.0
3093,C#4,428.0,6.0,95,207.0
3094,F#3,428.0,3.0,95,207.0
3095,F#4,428.0,6.0,95,207.0
3096,C#3,428.0,6.0,95,207.0
3097,F#2,428.0,6.0,95,207.0
3098,E5,429.0,0.5,95,207.0
3099,F#4,429.0,0.5,95,207.0
3100,D4,429.0,0.5,95,207.0
3101,B3,429.0,0.5,95,207.0
3102,F#3,429.0,0.5,95,207.0
3103,B2,429.0,0.5,95,207.0
3104,B3,429.5,0.5,70,207.0
3105,F#4,429.5,0.5,95,207.0
3106,D4,429.5,0.5,95,207.0
3107,B3,429.5,0.5,95,207.0
3108,F#3,429.5,0.5,95,207.0
3109,B2,429.5,0.5,95,207.0
3110,F#5,430.0,0.5,95,207.0
3111,F#4,430.0,0.5,95,207.0
3112,D4,430.0,0.5,95,207.0
3113,B3,430.0,0.5,95,207.0
3114,F#3,430.0,0.5,95,207.0
3115,B2,430.0,0.5,95,207.0
3116,B3,430.5,0.5,70,207.0
3117,F#4,430.5,0.5,95,207.0
3118,D4,430.5,0.5,95,207.0
3119,B3,430.5,0.5,95,207.0
3120,F#3,430.5,0.5,95,207.0
3121,B2,430.5,0.5,95,207.0
3122,E5,431.0,0.5,95,207.0
3123,F#3,431.0,3.0,95,207.0
3124,F#4,431.0,0.5,95,207.0
3125,D4,431.0,0.5,95,207.0
3126,B3,431.0,0.5,95,207.0
3127,F#3,431.0,0.5,95,207.0
3128,B2,431.0,0.5,95,207.0
3129,B3,431.5,0.5,70,207.0
3130,F#4,431.5,0.5,95,207.0
3131,D4,431.5,0.5,95,207.0
3132,B3,431.5,0.5,95,207.0
3133,F#3,431.5,0.5,95,207.0
3134,B2,431.5,0.5,95,207.0
3135,E-5,432.0,0.5,95,207.0
3136,F#4,432.0,1.0,95,207.0
3137,D4,432.0,1.0,95,207.0
3138,B3,432.0,1.0,95,207.0
3139,F#3,432.0,1.0,95,207.0
3140,B2,432.0,1.0,95,207.0
3141,B3,432.5,0.5,70,207.0
3142,C#5,433.0,0.5,95,207.0
3143,F#4,433.0,0.5,95,207.0
3144,D4,433.0,0.5,95,207.0
3145,B3,433.0,0.5,95,207.0
3146,F#3,433.0,0.5,95,207.0
3147,B2,433.0,0.5,95,207.0
3148,B3,433.5,0.5,70,207.0
3149,F#4,433.5,1.5,95,207.0
3150,D4,433.5,1.5,95,207.0
3151,B3,433.5,1.5,95,207.0
3152,F#3,433.5,1.5,95,207.0
3153,B2,433.5,1.5,95,207.0
3154,B4,434.0,0.5,95,207.0
3155,G3,434.0,6.0,95,207.0
3156,D3,434.0,6.0,95,207.0
3157,G2,434.0,6.0,95,207.0
3158,B3,434.5,0.5,70,207.0
3159,A4,435.0,0.5,95,207.0
3160,F#4,435.0,0.5,95,207.0
3161,D4,435.0,0.5,95,207.0
3162,B3,435.0,0.5,95,207.0
3163,F#3,435.0,0.5,95,207.0
3164,B2,435.0,0.5,95,207.0
3165,B3,435.5,0.5,70,207.0
3166,F#4,435.5,0.5,95,207.0
3167,D4,435.5,0.5,95,207.0
3168,B3,435.5,0.5,95,207.0
3169,F#3,435.5,0.5,95,207.0
3170,B2,435.5,0.5,95,207.0
3171,G#4,436.0,0.5,95,207.0
3172,F#4,436.0,0.5,95,207.0
3173,D4,436.0,0.5,95,207.0
3174,B3,436.0,0.5,95,207.0
3175,F#3,436.0,0.5,95,207.0
3176,B2,436.0,0.5,95,207.0
3177,B3,436.5,0.5,70,207.0
3178,F#4,436.5,1.5,95,207.0
3179,D4,436.5,1.5,95,207.0
3180,B3,436.5,1.5,95,207.0
3181,F#3,436.5,1.5,95,207.0
3182,B2,436.5,1.5,95,207.0
3183,F#4,437.0,0.5,95,207.0
3184,G4,437.0,3.0,95,207.0
3185,B3,437.5,0.5,70,207.0
3186,E4,438.0,0.5,95,207.0
3187,E4,438.0,1.0,95,207.0
3188,E4,438.0,1.0,95,207.0
3189,B3,438.0,1.0,95,207.0
3190,E3,438.0,1.0,95,207.0
3191,B2,438.0,1.0,95,207.0
3192,E2,438.0,1.0,95,207.0
3193,B4,438.5,0.5,95,207.0
3194,E5,439.0,0.5,95,207.0
3195,E4,439.0,0.5,95,207.0
3196,E4,439.0,0.5,95,207.0
3197,B3,439.0,0.5,95,207.0
3198,E3,439.0,0.5,95,207.0
3199,B2,439.0,0.5,95,207.0
3200,E2,439.0,0.5,95,207.0
3201,F#5,439.5,0.5,95,207.0
3202,E4,439.5,1.5,95,207.0
3203,E4,439.5,1.5,95,207.0
3204,B3,439.5,1.5,95,207.0
3205,E3,439.5,1.5,95,207.0
3206,B2,439.5,1.5,95,207.0
3207,E2,439.5,1.5,95,207.0
3208,E5,440.0,0.5,95,207.0
3209,B4,440.5,0.5,95,207.0
3210,A5,441.0,0.5,95,207.0
3211,E4,441.0,1.5,95,207.0
3212,E4,441.0,1.5,95,207.0
3213,B3,441.0,1.5,95,207.0
3214,E3,441.0,1.5,95,207.0
3215,B2,441.0,1.5,95,207.0
3216,E2,441.0,1.5,95,207.0
3217,F#5,441.5,0.5,95,207.0
3218,G#5,442.0,0.5,95,207.0
3219,F#5,442.5,0.5,95,207.0
3220,E4,442.5,0.5,95,207.0
3221,E4,442.5,0.5,95,207.0
3222,B3,442.5,0.5,95,207.0
3223,E3,442.5,0.5,95,207.0
3224,B2,442.5,0.5,95,207.0
3225,E2,442.5,0.5,95,207.0
3226,E5,443.0,0.5,95,207.0
3227,E4,443.0,0.5,95,207.0
3228,E4,443.0,0.5,95,207.0
3229,B3,443.0,0.5,95,207.0
3230,E3,443.0,0.5,95,207.0
3231,B2,443.0,0.5,95,207.0
3232,E2,443.0,0.5,95,207.0
3233,B4,443.5,0.5,95,207.0
3234,E4,443.5,0.5,95,207.0
3235,E4,443.5,0.5,95,207.0
3236,B3,443.5,0.5,95,207.0
3237,E3,443.5,0.5,95,207.0
3238,B2,443.5,0.5,95,207.0
3239,E2,443.5,0.5,95,207.0
3240,E4,444.0,0.5,95,207.0
3241,E4,444.0,1.0,95,207.0
3242,E4,444.0,1.0,95,207.0
3243,B3,444.0,1.0,95,207.0
3244,E3,444.0,1.0,95,207.0
3245,B2,444.0,1.0,95,207.0
3246,E2,444.0,1.0,95,207.0
3247,B4,444.5,0.5,95,207.0
3248,E5,445.0,0.5,95,207.0
3249,E4,445.0,0.5,95,207.0
3250,E4,445.0,0.5,95,207.0
3251,B3,445.0,0.5,95,207.0
3252,E3,445.0,0.5,95,207.0
3253,B2,445.0,0.5,95,207.0
3254,E2,445.0,0.5,95,207.0
3255,F#5,445.5,0.5,95,207.0
3256,E4,445.5,1.5,95,207.0
3257,E4,445.5,1.5,95,207.0
3258,B3,445.5,1.5,95,207.0
3259,E3,445.5,1.5,95,207.0
3260,B2,445.5,1.5,95,207.0
3261,E2,445.5,1.5,95,207.0
3262,E5,446.0,0.5,95,207.0
3263,D4,446.0,6.0,95,207.0
3264,G3,446.0,3.0,95,207.0
3265,G4,446.0,6.0,95,207.0
3266,D3,446.0,6.0,95,207.0
3267,G2,446.0,6.0,95,207.0
3268,B4,446.5,0.5,95,207.0
3269,D5,447.0,0.5,95,207.0
3270,A3,447.0,0.5,95,207.0
3271,E3,447.0,0.5,95,207.0
3272,A2,447.0,0.5,95,207.0
3273,C#5,447.5,0.5,95,207.0
3274,A3,447.5,0.5,95,207.0
3275,E3,447.5,0.5,95,207.0
3276,A2,447.5,0.5,95,207.0
3277,B4,448.0,0.5,95,207.0
3278,A3,448.0,0.5,95,207.0
3279,E3,448.0,0.5,95,207.0
3280,A2,448.0,0.5,95,207.0
3281,A4,448.5,0.5,95,207.0
3282,A3,448.5,0.5,95,207.0
3283,E3,448.5,0.5,95,207.0
3284,A2,448.5,0.5,95,207.0
3285,B4,449.0,0.5,95,207.0
3286,G3,449.0,3.0,95,207.0
3287,A3,449.0,0.5,95,207.0
3288,E3,449.0,0.5,95,207.0
3289,A2,449.0,0.5,95,207.0
3290,C#5,449.5,0.5,95,207.0
3291,A3,449.5,0.5,95,207.0
3292,E3,449.5,0.5,95,207.0
3293,A2,449.5,0.5,95,207.0
3294,B4,450.0,0.5,95,207.0
3295,E4,450.0,1.0,95,207.0
3296,E4,450.0,1.0,95,207.0
3297,B3,450.0,1.0,95,207.0
3298,E3,450.0,1.0,95,207.0
3299,B2,450.0,1.0,95,207.0
3300,E2,450.0,1.0,95,207.0
3301,E4,450.5,0.5,95,207.0
3302,B4,451.0,0.5,95,207.0
3303,E4,451.0,0.5,95,207.0
3304,E4,451.0,0.5,95,207.0
3305,B3,451.0,0.5,95,207.0
3306,E3,451.0,0.5,95,207.0
3307,B2,451.0,0.5,95,207.0
3308,E2,451.0,0.5,95,207.0
3309,F#5,451.5,0.5,95,207.0
3310,E4,451.5,1.5,95,207.0
3311,E4,451.5,1.5,95,207.0
3312,B3,451.5,1.5,95,207.0
3313,E3,451.5,1.5,95,207.0
3314,B2,451.5,1.5,95,207.0
3315,E2,451.5,1.5,95,207.0
3316,E5,452.0,0.5,95,207.0
3317,B3,452.0,6.0,95,207.0
3318,F#3,452.0,6.0,95,207.0
3319,B2,452.0,6.0,95,207.0
3320,B4,452.5,0.5,95,207.0
3321,A5,453.0,0.5,95,207.0
3322,E4,453.0,1.5,95,207.0
3323,E4,453.0,1.5,95,207.0
3324,B3,453.0,1.5,95,207.0
3325,E3,453.0,1.5,95,207.0
3326,B2,453.0,1.5,95,207.0
3327,E2,453.0,1.5,95,207.0
3328,F#5,453.5,0.5,95,207.0
3329,G#5,454.0,0.5,95,207.0
3330,F#5,454.5,0.5,95,207.0
3331,E4,454.5,0.5,95,207.0
3332,E4,454.5,0.5,95,207.0
3333,B3,454.5,0.5,95,207.0
3334,E3,454.5,0.5,95,207.0
3335,B2,454.5,0.5,95,207.0
3336,E2,454.5,0.5,95,207.0
3337,E5,455.0,0.5,95,207.0
3338,D4,455.0,3.0,95,207.0
3339,E4,455.0,0.5,95,207.0
3340,E4,455.0,0.5,95,207.0
3341,B3,455.0,0.5,95,207.0
3342,E3,455.0,0.5,95,207.0
3343,B2,455.0,0.5,95,207.0
3344,E2,455.0,0.5,95,207.0
3345,B4,455.5,0.5,95,207.0
3346,E4,455.5,0.5,95,207.0
3347,E4,455.5,0.5,95,207.0
3348,B3,455.5,0.5,95,207.0
3349,E3,455.5,0.5,95,207.0
3350,B2,455.5,0.5,95,207.0
3351,E2,455.5,0.5,95,207.0
3352,D6,456.0,0.5,95,207.0
3353,G3,456.0,0.5,95,207.0
3354,D3,456.0,0.5,95,207.0
3355,G2,456.0,0.5,95,207.0
3356,B5,456.5,0.5,95,207.0
3357,G3,456.5,0.5,95,207.0
3358,D3,456.5,0.5,95,207.0
3359,G2,456.5,0.5,95,207.0
3360,C#6,457.0,0.5,95,207.0
3361,G3,457.0,0.5,95,207.0
3362,D3,457.0,0.5,95,207.0
3363,G2,457.0,0.5,95,207.0
3364,D6,457.5,0.25,95,207.0
3365,G3,457.5,0.5,95,207.0
3366,D3,457.5,0.5,95,207.0
3367,G2,457.5,0.5,95,207.0
3368,C#6,457.75,0.25,70,207.0
3369,B5,458.0,0.5,95,207.0
3370,G3,458.0,0.5,95,207.0
3371,D3,458.0,0.5,95,207.0
3372,G2,458.0,0.5,95,207.0
3373,A5,458.5,0.5,95,207.0
3374,G3,458.5,0.5,95,207.0
3375,D3,458.5,0.5,95,207.0
3376,G2,458.5,0.5,95,207.0
3377,F#5,459.0,0.5,95,207.0
3378,D4,459.0,0.5,95,207.0
3379,A3,459.0,0.5,95,207.0
3380,D3,459.0,0.5,95,207.0
3381,A5,459.5,0.5,95,207.0
3382,D4,459.5,0.5,95,207.0
3383,A3,459.5,0.5,95,207.0
3384,D3,459.5,0.5,95,207.0
3385,E5,460.0,0.5,95,207.0
3386,D4,460.0,0.5,95,207.0
3387,A3,460.0,0.5,95,207.0
3388,D3,460.0,0.5,95,207.0
3389,A5,460.5,0.5,95,207.0
3390,D4,460.5,0.5,95,207.0
3391,A3,460.5,0.5,95,207.0
3392,D3,460.5,0.5,95,207.0
3393,D5,461.0,0.5,95,207.0
3394,D4,461.0,3.0,95,207.0
3395,B3,461.0,3.0,95,207.0
3396,F#3,461.0,3.0,95,207.0
3397,B2,461.0,3.0,95,207.0
3398,D4,461.0,0.5,95,207.0
3399,A3,461.0,0.5,95,207.0
3400,D3,461.0,0.5,95,207.0
3401,A5,461.5,0.5,95,207.0
3402,D4,461.5,0.5,95,207.0
3403,A3,461.5,0.5,95,207.0
3404,D3,461.5,0.5,95,207.0
3405,E4,462.0,0.5,95,207.0
3406,E4,462.0,1.0,95,207.0
3407,E4,462.0,1.0,95,207.0
3408,B3,462.0,1.0,95,207.0
3409,E3,462.0,1.0,95,207.0
3410,B2,462.0,1.0,95,207.0
3411,E2,462.0,1.0,95,207.0
3412,B4,462.5,0.5,95,207.0
3413,E5,463.0,0.5,95,207.0
3414,E4,463.0,0.5,95,207.0
3415,E4,463.0,0.5,95,207.0
3416,B3,463.0,0.5,95,207.0
3417,E3,463.0,0.5,95,207.0
3418,B2,463.0,0.5,95,207.0
3419,E2,463.0,0.5,95,207.0
3420,F#5,463.5,0.5,95,207.0
3421,E4,463.5,1.5,95,207.0
3422,E4,463.5,1.5,95,207.0
3423,B3,463.5,1.5,95,207.0
3424,E3,463.5,1.5,95,207.0
3425,B2,463.5,1.5,95,207.0
3426,E2,463.5,1.5,95,207.0
3427,E5,464.0,0.5,95,207.0
3428,A3,464.0,3.0,95,207.0
3429,C#3,464.0,3.0,95,207.0
3430,B4,464.5,0.5,95,207.0
3431,A5,465.0,0.5,95,207.0
3432,E4,465.0,1.5,95,207.0
3433,E4,465.0,1.5,95,207.0
3434,B3,465.0,1.5,95,207.0
3435,E3,465.0,1.5,95,207.0
3436,B2,465.0,1.5,95,207.0
3437,E2,465.0,1.5,95,207.0
3438,F#5,465.5,0.5,95,207.0
3439,G#5,466.0,0.5,95,207.0
3440,F#5,466.5,0.5,95,207.0
3441,E4,466.5,0.5,95,207.0
3442,E4,466.5,0.5,95,207.0
3443,B3,466.5,0.5,95,207.0
3444,E3,466.5,0.5,95,207.0
3445,B2,466.5,0.5,95,207.0
3446,E2,466.5,0.5,95,207.0
3447,E5,467.0,0.5,95,207.0
3448,D4,467.0,6.0,95,207.0
3449,A3,467.0,6.0,95,207.0
3450,D3,467.0,6.0,95,207.0
3451,E4,467.0,0.5,95,207.0
3452,E4,467.0,0.5,95,207.0
3453,B3,467.0,0.5,95,207.0
3454,E3,467.0,0.5,95,207.0
3455,B2,467.0,0.5,95,207.0
3456,E2,467.0,0.5,95,207.0
3457,B4,467.5,0.5,95,207.0
3458,E4,467.5,0.5,95,207.0
3459,E4,467.5,0.5,95,207.0
3460,B3,467.5,0.5,95,207.0
3461,E3,467.5,0.5,95,207.0
3462,B2,467.5,0.5,95,207.0
3463,E2,467.5,0.5,95,207.0
3464,E4,468.0,0.5,95,207.0
3465,E4,468.0,1.0,95,207.0
3466,E4,468.0,1.0,95,207.0
3467,B3,468.0,1.0,95,207.0
3468,E3,468.0,1.0,95,207.0
3469,B2,468.0,1.0,95,207.0
3470,E2,468.0,1.0,95,207.0
3471,B4,468.5,0.5,95,207.0
3472,E5,469.0,0.5,95,207.0
3473,E4,469.0,0.5,95,207.0
3474,E4,469.0,0.5,95,207.0
3475,B3,469.0,0.5,95,207.0
3476,E3,469.0,0.5,95,207.0
3477,B2,469.0,0.5,95,207.0
3478,E2,469.0,0.5,95,207.0
3479,F#5,469.5,0.5,95,207.0
3480,E4,469.5,1.5,95,207.0
3481,E4,469.5,1.5,95,207.0
3482,B3,469.5,1.5,95,207.0
3483,E3,469.5,1.5,95,207.0
3484,B2,469.5,1.5,95,207.0
3485,E2,469.5,1.5,95,207.0
3486,E5,470.0,0.5,95,207.0
3487,B4,470.5,0.5,95,207.0
3488,D5,471.0,0.5,95,207.0
3489,A3,471.0,0.5,95,207.0
3490,E3,471.0,0.5,95,207.0
3491,A2,471.0,0.5,95,207.0
3492,C#5,471.5,0.5,95,207.0
3493,A3,471.5,0.5,95,207.0
3494,E3,471.5,0.5,95,207.0
3495,A2,471.5,0.5,95,207.0
3496,B4,472.0,0.5,95,207.0
3497,A3,472.0,0.5,95,207.0
3498,E3,472.0,0.5,95,207.0
3499,A2,472.0,0.5,95,207.0
3500,A4,472.5,0.5,95,207.0
3501,A3,472.5,0.5,95,207.0
3502,E3,472.5,0.5,95,207.0
3503,A2,472.5,0.5,95,207.0
3504,B4,473.0,0.5,95,207.0
3505,A3,473.0,0.5,95,207.0
3506,E3,473.0,0.5,95,207.0
3507,A2,473.0,0.5,95,207.0
3508,C#5,473.5,0.5,95,207.0
3509,A3,473.5,0.5,95,207.0
3510,E3,473.5,0.5,95,207.0
3511,A2,473.5,0.5,95,207.0
3512,B4,474.0,0.5,95,207.0
3513,E4,474.0,1.0,95,207.0
3514,E4,474.0,1.0,95,207.0
3515,B3,474.0,1.0,95,207.0
3516,E3,474.0,1.0,95,207.0
3517,B2,474.0,1.0,95,207.0
3518,E2,474.0,1.0,95,207.0
3519,E4,474.5,0.5,95,207.0
3520,B4,475.0,0.5,95,207.0
3521,E4,475.0,0.5,95,207.0
3522,E4,475.0,0.5,95,207.0
3523,B3,475.0,0.5,95,207.0
3524,E3,475.0,0.5,95,207.0
3525,B2,475.0,0.5,95,207.0
3526,E2,475.0,0.5,95,207.0
3527,F#5,475.5,0.5,95,207.0
3528,E4,475.5,1.5,95,207.0
3529,E4,475.5,1.5,95,207.0
3530,B3,475.5,1.5,95,207.0
3531,E3,475.5,1.5,95,207.0
3532,B2,475.5,1.5,95,207.0
3533,E2,475.5,1.5,95,207.0
3534,E5,476.0,0.5,95,207.0
3535,D4,476.0,3.0,95,207.0
3536,A3,476.0,3.0,95,207.0
3537,D3,476.0,3.0,95,207.0
3538,B4,476.5,0.5,95,207.0
3539,A5,477.0,0.5,95,207.0
3540,E4,477.0,1.5,95,207.0
3541,E4,477.0,1.5,95,207.0
3542,B3,477.0,1.5,95,207.0
3543,E3,477.0,1.5,95,207.0
3544,B2,477.0,1.5,95,207.0
3545,E2,477.0,1.5,95,207.0
3546,F#5,477.5,0.5,95,207.0
3547,G#5,478.0,0.5,95,207.0
3548,F#5,478.5,0.5,95,207.0
3549,E4,478.5,0.5,95,207.0
3550,E4,478.5,0.5,95,207.0
3551,B3,478.5,0.5,95,207.0
3552,E3,478.5,0.5,95,207.0
3553,B2,478.5,0.5,95,207.0
3554,E2,478.5,0.5,95,207.0
3555,E5,479.0,0.5,95,207.0
3556,B3,479.0,3.0,95,207.0
3557,E3,479.0,3.0,95,207.0
3558,E2,479.0,3.0,95,207.0
3559,E4,479.0,0.5,95,207.0
3560,E4,479.0,0.5,95,207.0
3561,B3,479.0,0.5,95,207.0
3562,E3,479.0,0.5,95,207.0
3563,B2,479.0,0.5,95,207.0
3564,E2,479.0,0.5,95,207.0
3565,B4,479.5,0.5,95,207.0
3566,E4,479.5,0.5,95,207.0
3567,E4,479.5,0.5,95,207.0
3568,B3,479.5,0.5,95,207.0
3569,E3,479.5,0.5,95,207.0
3570,B2,479.5,0.5,95,207.0
3571,E2,479.5,0.5,95,207.0
3572,G3,480.0,0.5,95,207.0
3573,G3,480.0,0.5,95,207.0
3574,D3,480.0,0.5,95,207.0
3575,G2,480.0,0.5,95,207.0
3576,D4,480.5,0.5,95,207.0
3577,G3,480.5,0.5,95,207.0
3578,D3,480.5,0.5,95,207.0
3579,G2,480.5,0.5,95,207.0
3580,A4,481.0,0.5,95,207.0
3581,G3,481.0,0.5,95,207.0
3582,D3,481.0,0.5,95,207.0
3583,G2,481.0,0.5,95,207.0
3584,B4,481.5,0.5,95,207.0
3585,G3,481.5,0.5,95,207.0
3586,D3,481.5,0.5,95,207.0
3587,G2,481.5,0.5,95,207.0
3588,D5,482.0,0.5,95,207.0
3589,F#3,482.0,6.0,95,207.0
3590,C#3,482.0,6.0,95,207.0
3591,F#2,482.0,6.0,95,207.0
3592,G3,482.0,0.5,95,207.0
3593,D3,482.0,0.5,95,207.0
3594,G2,482.0,0.5,95,207.0
3595,G5,482.5,0.5,95,207.0
3596,G3,482.5,0.5,95,207.0
3597,D3,482.5,0.5,95,207.0
3598,G2,482.5,0.5,95,207.0
3599,B5,483.0,0.5,95,207.0
3600,A3,483.0,0.5,95,207.0
3601,E3,483.0,0.5,95,207.0
3602,A2,483.0,0.5,95,207.0
3603,D6,483.5,0.5,95,207.0
3604,A3,483.5,0.5,95,207.0
3605,E3,483.5,0.5,95,207.0
3606,A2,483.5,0.5,95,207.0
3607,B5,484.0,0.5,95,207.0
3608,A3,484.0,0.5,95,207.0
3609,E3,484.0,0.5,95,207.0
3610,A2,484.0,0.5,95,207.0
3611,E6,484.5,0.5,95,207.0
3612,A3,484.5,0.5,95,207.0
3613,E3,484.5,0.5,95,207.0
3614,A2,484.5,0.5,95,207.0
3615,C#6,485.0,0.5,95,207.0
3616,A3,485.0,0.5,95,207.0
3617,E3,485.0,0.5,95,207.0
3618,A2,485.0,0.5,95,207.0
3619,A5,485.5,0.5,95,207.0
3620,A3,485.5,0.5,95,207.0
3621,E3,485.5,0.5,95,207.0
3622,A2,485.5,0.5,95,207.0
3623,B3,486.0,0.5,95,207.0
3624,B4,486.5,0.5,95,207.0
3625,E4,487.0,0.5,95,207.0
3626,F#4,487.5,0.5,95,207.0
3627,B4,488.0,0.5,95,207.0
3628,C#5,488.5,0.5,95,207.0
3629,A4,489.0,167/1000,95,207.0
3630,B4,489.167,167/1000,70,207.0
3631,A4,489.333,167/1000,70,207.0
3632,G#4,489.5,0.5,95,207.0
3633,F#4,490.0,0.5,95,207.0
3634,B3,490.5,0.5,95,207.0
3635,B4,491.0,0.5,95,207.0
3636,F#3,491.0,3.0,95,207.0
3637,C#3,491.0,3.0,95,207.0
3638,F#2,491.0,3.0,95,207.0
3639,E4,491.5,0.5,95,207.0
3640,F#4,492.0,0.5,95,207.0
3641,E-4,492.5,0.5,95,207.0
3642,E4,493.0,0.5,95,207.0
3643,E-4,493.5,0.25,95,207.0
3644,E4,493.75,0.25,70,207.0
3645,E-4,494.0,0.25,70,207.0
3646,E4,494.0,3.0,95,207.0
3647,B3,494.0,3.0,95,207.0
3648,E3,494.0,3.0,95,207.0
3649,B2,494.0,3.0,95,207.0
3650,C#4,494.25,0.25,95,207.0
3651,A3,494.5,0.5,95,207.0
3652,B3,495.0,0.5,95,207.0
3653,B4,495.5,0.5,95,207.0
3654,E4,496.0,0.5,95,207.0
3655,F#4,496.5,0.5,95,207.0
3656,B4,497.0,0.5,95,207.0
3657,B3,497.0,6.0,95,207.0
3658,F#3,497.0,6.0,95,207.0
3659,B2,497.0,6.0,95,207.0
3660,C#5,497.5,0.5,95,207.0
3661,A4,498.0,167/1000,95,207.0
3662,B4,498.167,167/1000,70,207.0
3663,A4,498.333,167/1000,70,207.0
3664,G#4,498.5,0.5,95,207.0
3665,F#4,499.0,0.5,95,207.0
3666,E4,499.5,0.5,95,207.0
3667,E-4,500.0,0.5,95,207.0
3668,C#4,500.5,0.5,95,207.0
3669,B3,501.0,0.5,95,207.0
3670,A3,501.5,0.5,95,207.0
3671,G#3,502.0,0.5,95,207.0
3672,F#3,502.5,0.5,95,207.0
3673,G#3,503.0,0.5,95,207.0
3674,B3,503.0,6.0,95,207.0
3675,F#3,503.0,6.0,95,207.0
3676,B2,503.0,6.0,95,207.0
3677,A3,503.5,0.5,95,207.0
3678,B3,504.0,0.5,95,207.0
3679,B4,504.5,0.5,95,207.0
3680,E4,505.0,0.5,95,207.0
3681,F#4,505.5,0.5,95,207.0
3682,B4,506.0,0.5,95,207.0
3683,C#5,506.5,0.5,95,207.0
3684,A4,507.0,167/1000,95,207.0
3685,B4,507.167,167/1000,70,207.0
3686,A4,507.333,167/1000,70,207.0
3687,G#4,507.5,0.5,95,207.0
3688,F#4,508.0,0.5,95,207.0
3689,B3,508.5,0.5,95,207.0
3690,B4,509.0,0.5,95,207.0
3691,E2,509.0,1.0,95,207.0
3692,E4,509.5,0.5,95,207.0
3693,F#4,510.0,0.5,95,207.0
3694,E3,510.0,1.0,95,207.0
3695,E-4,510.5,0.5,95,207.0
3696,E4,511.0,0.5,95,207.0
3697,E2,511.0,0.5,95,207.0
3698,E-4,511.5,0.25,95,207.0
3699,E2,511.5,0.5,95,207.0
3700,E4,511.75,0.25,70,207.0
3701,E-4,512.0,0.25,70,207.0
3702,D3,512.0,0.5,95,207.0
3703,C#4,512.25,0.25,95,207.0
3704,A3,512.5,0.5,95,207.0
3705,A2,512.5,0.5,95,207.0
3706,B3,513.0,0.5,95,207.0
3707,C#3,513.0,0.5,95,207.0
3708,B4,513.5,0.5,95,207.0
3709,A2,513.5,0.5,95,207.0
3710,E4,514.0,0.5,95,207.0
3711,B2,514.0,0.5,95,207.0
3712,F#4,514.5,0.5,95,207.0
3713,A2,514.5,0.5,95,207.0
3714,B4,515.0,0.5,95,207.0
3715,E2,515.0,1.0,95,207.0
3716,C#5,515.5,0.5,95,207.0
3717,A4,516.0,167/1000,95,207.0
3718,E3,516.0,1.0,95,207.0
3719,B4,516.167,167/1000,70,207.0
3720,A4,516.333,167/1000,70,207.0
3721,G#4,516.5,0.5,95,207.0
3722,F#4,517.0,0.5,95,207.0
3723,E2,517.0,0.5,95,207.0
3724,B4,517.5,0.5,95,207.0
3725,E2,517.5,0.5,95,207.0
3726,G#4,518.0,0.5,95,207.0
3727,A3,518.0,1.5,95,207.0
3728,E3,518.0,1.5,95,207.0
3729,A2,518.0,1.5,95,207.0
3730,A4,518.5,0.5,95,207.0
3731,G#4,519.0,0.5,95,207.0
3732,F#4,519.5,0.5,95,207.0
3733,A2,519.5,0.5,95,207.0
3734,E4,520.0,0.5,95,207.0
3735,E3,520.0,0.5,95,207.0
3736,E-4,520.5,0.5,95,207.0
3737,A3,520.5,0.5,95,207.0
3738,E4,521.0,0.5,95,207.0
3739,E2,521.0,1.0,95,207.0
3740,F#4,521.5,0.5,95,207.0
3741,B3,522.0,0.5,95,207.0
3742,E3,522.0,1.0,95,207.0
3743,B3,522.0,4.5,95,207.0
3744,F#3,522.0,4.5,95,207.0
3745,B2,522.0,4.5,95,207.0
3746,B4,522.5,0.5,95,207.0
3747,E4,523.0,0.5,95,207.0
3748,E2,523.0,0.5,95,207.0
3749,F#4,523.5,0.5,95,207.0
3750,E2,523.5,0.5,95,207.0
3751,B4,524.0,0.5,95,207.0
3752,D3,524.0,0.5,95,207.0
3753,C#5,524.5,0.5,95,207.0
3754,A2,524.5,0.5,95,207.0
3755,A4,525.0,167/1000,95,207.0
3756,C#3,525.0,0.5,95,207.0
3757,B4,525.167,167/1000,70,207.0
3758,A4,525.333,167/1000,70,207.0
3759,G#4,525.5,0.5,95,207.0
3760,A2,525.5,0.5,95,207.0
3761,F#4,526.0,0.5,95,207.0
3762,B2,526.0,0.5,95,207.0
3763,B3,526.5,0.5,95,207.0
3764,A2,526.5,0.5,95,207.0
3765,B4,527.0,0.5,95,207.0
3766,G3,527.0,1.5,95,207.0
3767,D3,527.0,1.5,95,207.0
3768,G2,527.0,1.5,95,207.0
3769,E4,527.5,0.5,95,207.0
3770,F#4,528.0,0.5,95,207.0
3771,E-4,528.5,0.5,95,207.0
3772,G3,528.5,0.5,95,207.0
3773,D3,528.5,0.5,95,207.0
3774,G2,528.5,0.5,95,207.0
3775,E4,529.0,0.5,95,207.0
3776,G3,529.0,0.5,95,207.0
3777,D3,529.0,0.5,95,207.0
3778,G2,529.0,0.5,95,207.0
3779,E-4,529.5,0.25,95,207.0
3780,G3,529.5,0.5,95,207.0
3781,D3,529.5,0.5,95,207.0
3782,G2,529.5,0.5,95,207.0
3783,E4,529.75,0.25,70,207.0
3784,E-4,530.0,0.25,70,207.0
3785,D4,530.0,1.5,95,207.0
3786,A3,530.0,1.5,95,207.0
3787,D3,530.0,1.5,95,207.0
3788,C#4,530.25,0.25,95,207.0
3789,A3,530.5,0.5,95,207.0
3790,B3,531.0,0.5,95,207.0
3791,B4,531.5,0.5,95,207.0
3792,D4,531.5,0.5,95,207.0
3793,A3,531.5,0.5,95,207.0
3794,D3,531.5,0.5,95,207.0
3795,E4,532.0,0.5,95,207.0
3796,D4,532.0,0.5,95,207.0
3797,A3,532.0,0.5,95,207.0
3798,D3,532.0,0.5,95,207.0
3799,F#4,532.5,0.5,95,207.0
3800,D4,532.5,0.5,95,207.0
3801,A3,532.5,0.5,95,207.0
3802,D3,532.5,0.5,95,207.0
3803,B4,533.0,0.5,95,207.0
3804,E2,533.0,1.0,95,207.0
3805,C#5,533.5,0.5,95,207.0
3806,A4,534.0,167/1000,95,207.0
3807,E3,534.0,1.0,95,207.0
3808,B4,534.167,167/1000,70,207.0
3809,A4,534.333,167/1000,70,207.0
3810,G#4,534.5,0.5,95,207.0
3811,F#4,535.0,0.5,95,207.0
3812,E2,535.0,0.5,95,207.0
3813,E4,535.5,0.5,95,207.0
3814,E2,535.5,0.5,95,207.0
3815,E-4,536.0,0.5,95,207.0
3816,D3,536.0,0.5,95,207.0
3817,C#4,536.5,0.5,95,207.0
3818,A2,536.5,0.5,95,207.0
3819,B3,537.0,0.5,95,207.0
3820,C#3,537.0,0.5,95,207.0
3821,A3,537.5,0.5,95,207.0
3822,A2,537.5,0.5,95,207.0
3823,G#3,538.0,0.5,95,207.0
3824,B2,538.0,0.5,95,207.0
3825,F#3,538.5,0.5,95,207.0
3826,A2,538.5,0.5,95,207.0
3827,G#3,539.0,0.5,95,207.0
3828,E2,539.0,1.0,95,207.0
3829,A3,539.5,0.5,95,207.0
3830,B3,540.0,0.5,95,207.0
3831,E3,540.0,1.0,95,207.0
3832,B3,540.0,4.5,95,207.0
3833,F#3,540.0,4.5,95,207.0
3834,B2,540.0,4.5,95,207.0
3835,B4,540.5,0.5,95,207.0
3836,E4,541.0,0.5,95,207.0
3837,E2,541.0,0.5,95,207.0
3838,F#4,541.5,0.5,95,207.0
3839,E2,541.5,0.5,95,207.0
3840,B4,542.0,0.5,95,207.0
3841,A3,542.0,1.5,95,207.0
3842,E3,542.0,1.5,95,207.0
3843,A2,542.0,1.5,95,207.0
3844,C#5,542.5,0.5,95,207.0
3845,A4,543.0,167/1000,95,207.0
3846,B4,543.167,167/1000,70,207.0
3847,A4,543.333,167/1000,70,207.0
3848,G#4,543.5,0.5,95,207.0
3849,A2,543.5,0.5,95,207.0
3850,F#4,544.0,0.5,95,207.0
3851,E3,544.0,0.5,95,207.0
3852,B3,544.5,0.5,95,207.0
3853,A3,544.5,0.5,95,207.0
3854,B4,545.0,0.5,95,207.0
3855,E2,545.0,1.0,95,207.0
3856,E4,545.5,0.5,95,207.0
3857,F#4,546.0,0.5,95,207.0
3858,E3,546.0,1.0,95,207.0
3859,E-4,546.5,0.5,95,207.0
3860,E4,547.0,0.5,95,207.0
3861,E2,547.0,0.5,95,207.0
3862,E-4,547.5,0.25,95,207.0
3863,E2,547.5,0.5,95,207.0
3864,E4,547.75,0.25,70,207.0
3865,E-4,548.0,0.25,70,207.0
3866,D3,548.0,0.5,95,207.0
3867,C#4,548.25,0.25,95,207.0
3868,A3,548.5,0.5,95,207.0
3869,A2,548.5,0.5,95,207.0
3870,B3,549.0,0.5,95,207.0
3871,C#3,549.0,0.5,95,207.0
3872,B4,549.5,0.5,95,207.0
3873,A2,549.5,0.5,95,207.0
3874,E4,550.0,0.5,95,207.0
3875,B2,550.0,0.5,95,207.0
3876,F#4,550.5,0.5,95,207.0
3877,A2,550.5,0.5,95,207.0
3878,B4,551.0,0.5,95,207.0
3879,G3,551.0,1.5,95,207.0
3880,D3,551.0,1.5,95,207.0
3881,G2,551.0,1.5,95,207.0
3882,C#5,551.5,0.5,95,207.0
3883,A4,552.0,167/1000,95,207.0
3884,B4,552.167,167/1000,70,207.0
3885,A4,552.333,167/1000,70,207.0
3886,G#4,552.5,0.5,95,207.0
3887,G3,552.5,0.5,95,207.0
3888,D3,552.5,0.5,95,207.0
3889,G2,552.5,0.5,95,207.0
3890,F#4,553.0,0.5,95,207.0
3891,G3,553.0,0.5,95,207.0
3892,D3,553.0,0.5,95,207.0
3893,G2,553.0,0.5,95,207.0
3894,B4,553.5,0.5,95,207.0
3895,G3,553.5,0.5,95,207.0
3896,D3,553.5,0.5,95,207.0
3897,G2,553.5,0.5,95,207.0
3898,B3,553.5,4.5,95,207.0
3899,F#3,553.5,4.5,95,207.0
3900,B2,553.5,4.5,95,207.0
3901,G#4,554.0,0.5,95,207.0
3902,A3,554.0,3.0,95,207.0
3903,E3,554.0,3.0,95,207.0
3904,A2,554.0,3.0,95,207.0
3905,A4,554.5,0.5,95,207.0
3906,G#4,555.0,0.5,95,207.0
3907,F#4,555.5,0.5,95,207.0
3908,E4,556.0,0.5,95,207.0
3909,E-4,556.5,0.5,95,207.0
3910,E4,557.0,0.5,95,207.0
3911,B3,557.0,1.0,95,207.0
3912,F#3,557.0,1.0,95,207.0
3913,B2,557.0,1.0,95,207.0
3914,F#4,557.5,0.5,95,207.0
3915,B3,558.0,0.5,95,207.0
3916,B4,558.5,0.5,95,207.0
3917,E4,559.0,0.5,95,207.0
3918,F#4,559.5,0.5,95,207.0
3919,B4,560.0,0.5,95,207.0
3920,C#5,560.5,0.5,95,207.0
3921,A4,561.0,167/1000,95,207.0
3922,B4,561.167,167/1000,70,207.0
3923,A4,561.333,167/1000,70,207.0
3924,G#4,561.5,0.5,95,207.0
3925,B3,561.5,0.5,95,207.0
3926,F#3,561.5,0.5,95,207.0
3927,B2,561.5,0.5,95,207.0
3928,F#4,562.0,0.5,95,207.0
3929,B3,562.0,0.5,95,207.0
3930,F#3,562.0,0.5,95,207.0
3931,B2,562.0,0.5,95,207.0
3932,B3,562.5,0.5,95,207.0
3933,B3,562.5,0.5,95,207.0
3934,F#3,562.5,0.5,95,207.0
3935,B2,562.5,0.5,95,207.0
3936,B3,562.5,4.5,95,207.0
3937,F#3,562.5,4.5,95,207.0
3938,B2,562.5,4.5,95,207.0
3939,B4,563.0,0.5,95,207.0
3940,E4,563.5,0.5,95,207.0
3941,F#4,564.0,0.5,95,207.0
3942,E-4,564.5,0.5,95,207.0
3943,E4,565.0,0.5,95,207.0
3944,E-4,565.5,0.25,95,207.0
3945,E4,565.75,0.25,70,207.0
3946,E-4,566.0,0.25,70,207.0
3947,B3,566.0,1.0,95,207.0
3948,F#3,566.0,1.0,95,207.0
3949,B2,566.0,1.0,95,207.0
3950,C#4,566.25,0.25,95,207.0
3951,A3,566.5,0.5,95,207.0
3952,B3,567.0,0.5,95,207.0
3953,E3,567.0,4.5,95,207.0
3954,B2,567.0,4.5,95,207.0
3955,E2,567.0,4.5,95,207.0
3956,B4,567.5,0.5,95,207.0
3957,E4,568.0,0.5,95,207.0
3958,F#4,568.5,0.5,95,207.0
3959,B4,569.0,0.5,95,207.0
3960,C#5,569.5,0.5,95,207.0
3961,A4,570.0,167/1000,95,207.0
3962,B4,570.167,167/1000,70,207.0
3963,A4,570.333,167/1000,70,207.0
3964,G#4,570.5,0.5,95,207.0
3965,E3,570.5,0.5,95,207.0
3966,F#4,571.0,0.5,95,207.0
3967,E-3,571.0,0.5,95,207.0
3968,E4,571.5,0.5,95,207.0
3969,C#3,571.5,0.5,95,207.0
3970,E-4,572.0,0.5,95,207.0
3971,B2,572.0,0.5,95,207.0
3972,C#4,572.5,0.5,95,207.0
3973,A2,572.5,0.5,95,207.0
3974,B3,573.0,0.5,95,207.0
3975,G#2,573.0,0.5,95,207.0
3976,A3,573.5,0.5,95,207.0
3977,F#2,573.5,0.5,95,207.0
3978,G#3,574.0,0.5,95,207.0
3979,G#2,574.0,0.5,95,207.0
3980,F#3,574.5,0.5,95,207.0
3981,A2,574.5,0.5,95,207.0
3982,G#3,575.0,0.5,95,207.0
3983,B3,575.0,3.0,95,207.0
3984,F#3,575.0,3.0,95,207.0
3985,B2,575.0,3.0,95,207.0
3986,A3,575.5,0.5,95,207.0
3987,B3,576.0,0.5,95,207.0
3988,B4,576.5,0.5,95,207.0
3989,E4,577.0,0.5,95,207.0
3990,F#4,577.5,0.5,95,207.0
3991,B4,578.0,0.5,95,207.0
3992,C#5,578.5,0.5,95,207.0
3993,A4,579.0,167/1000,95,207.0
3994,B4,579.167,167/1000,70,207.0
3995,A4,579.333,167/1000,70,207.0
3996,G#4,579.5,0.5,95,207.0
3997,B3,579.5,0.5,95,207.0
3998,F#3,579.5,0.5,95,207.0
3999,B2,579.5,0.5,95,207.0
4000,F#4,580.0,0.5,95,207.0
4001,B3,580.0,0.5,95,207.0
4002,F#3,580.0,0.5,95,207.0
4003,B2,580.0,0.5,95,207.0
4004,B3,580.5,0.5,95,207.0
4005,B3,580.5,0.5,95,207.0
4006,F#3,580.5,0.5,95,207.0
4007,B2,580.5,0.5,95,207.0
4008,B4,581.0,0.5,95,207.0
4009,E4,581.5,0.5,95,207.0
4010,F#4,582.0,0.5,95,207.0
4011,E-4,582.5,0.5,95,207.0
4012,E4,583.0,0.5,95,207.0
4013,E-4,583.5,0.25,95,207.0
4014,E4,583.75,0.25,70,207.0
4015,E-4,584.0,0.25,70,207.0
4016,B3,584.0,1.0,95,207.0
4017,F#3,584.0,1.0,95,207.0
4018,B2,584.0,1.0,95,207.0
4019,C#4,584.25,0.25,95,207.0
4020,A3,584.5,0.5,95,207.0
4021,B3,585.0,0.5,95,207.0
4022,E3,585.0,4.5,95,207.0
4023,B2,585.0,4.5,95,207.0
4024,E2,585.0,4.5,95,207.0
4025,B4,585.5,0.5,95,207.0
4026,E4,586.0,0.5,95,207.0
4027,F#4,586.5,0.5,95,207.0
4028,B4,587.0,0.5,95,207.0
4029,C#5,587.5,0.5,95,207.0
4030,A4,588.0,167/1000,95,207.0
4031,F#4,588.0,0.5,95,207.0
4032,B4,588.167,167/1000,70,207.0
4033,A4,588.333,167/1000,70,207.0
4034,G#4,588.5,0.5,95,207.0
4035,B3,588.5,0.5,95,207.0
4036,B3,588.5,0.5,70,207.0
4037,F#4,589.0,0.5,95,207.0
4038,G#3,589.0,0.5,95,207.0
4039,F#4,589.0,1.0,95,207.0
4040,B4,589.5,0.5,95,207.0
4041,A3,589.5,0.5,95,207.0
4042,G#4,590.0,0.5,95,207.0
4043,G#3,590.0,0.5,95,207.0
4044,F#4,590.0,0.5,95,207.0
4045,A4,590.5,0.5,95,207.0
4046,F#3,590.5,0.5,95,207.0
4047,G#4,590.5,0.5,70,207.0
4048,G#4,591.0,0.5,95,207.0
4049,E3,591.0,0.5,95,207.0
4050,A4,591.0,0.5,95,207.0
4051,F#4,591.5,0.5,95,207.0
4052,E-3,591.5,0.5,95,207.0
4053,G#4,591.5,0.5,70,207.0
4054,E4,592.0,0.5,95,207.0
4055,E3,592.0,0.5,95,207.0
4056,F#4,592.0,0.5,95,207.0
4057,E-4,592.5,0.5,95,207.0
4058,F#3,592.5,0.5,95,207.0
4059,E4,592.5,0.5,95,207.0
4060,E4,593.0,0.5,95,207.0
4061,F#4,593.0,0.5,95,207.0
4062,F#4,593.0,0.5,95,207.0
4063,F#4,593.5,0.5,95,207.0
4064,F#5,593.5,0.5,95,207.0
4065,G#4,593.5,0.5,95,207.0
4066,B3,594.0,0.5,95,207.0
4067,B4,594.0,0.5,95,207.0
4068,F#4,594.0,1.0,95,207.0
4069,B4,594.5,0.5,95,207.0
4070,C#5,594.5,0.5,95,207.0
4071,E4,595.0,0.5,95,207.0
4072,F#5,595.0,0.5,95,207.0
4073,B3,595.0,1.0,95,207.0
4074,F#4,595.5,0.5,95,207.0
4075,G#5,595.5,0.5,95,207.0
4076,B4,596.0,0.5,95,207.0
4077,E5,596.0,167/1000,95,207.0
4078,C#4,596.0,0.5,95,207.0
4079,F#5,596.167,167/1000,70,207.0
4080,E5,596.333,167/1000,70,207.0
4081,C#5,596.5,0.5,95,207.0
4082,E-5,596.5,0.5,95,207.0
4083,E-4,596.5,0.5,70,207.0
4084,A4,597.0,167/1000,95,207.0
4085,C#5,597.0,0.5,95,207.0
4086,E4,597.0,0.5,95,207.0
4087,B4,597.167,167/1000,70,207.0
4088,A4,597.333,167/1000,70,207.0
4089,G#4,597.5,0.5,95,207.0
4090,F#4,597.5,0.5,95,207.0
4091,E-4,597.5,0.5,70,207.0
4092,F#4,598.0,0.5,95,207.0
4093,F#5,598.0,0.5,95,207.0
4094,C#4,598.0,0.5,70,207.0
4095,B3,598.5,0.5,95,207.0
4096,B4,598.5,0.5,95,207.0
4097,A3,598.5,0.5,95,207.0
4098,E3,598.5,4.5,95,207.0
4099,B2,598.5,4.5,95,207.0
4100,E2,598.5,4.5,95,207.0
4101,B4,599.0,0.5,95,207.0
4102,C#5,599.0,0.5,95,207.0
4103,B3,599.0,0.5,95,207.0
4104,E4,599.5,0.5,95,207.0
4105,G#4,599.5,0.5,95,207.0
4106,C#4,599.5,0.5,95,207.0
4107,F#4,600.0,0.5,95,207.0
4108,A4,600.0,0.5,95,207.0
4109,B3,600.0,1.0,95,207.0
4110,E-4,600.5,0.5,95,207.0
4111,G#4,600.5,0.25,95,207.0
4112,A4,600.75,0.25,70,207.0
4113,E4,601.0,0.5,95,207.0
4114,G#4,601.0,0.25,70,207.0
4115,B3,601.0,0.5,95,207.0
4116,F#4,601.25,0.25,95,207.0
4117,E-4,601.5,0.25,95,207.0
4118,E-4,601.5,0.5,95,207.0
4119,B3,601.5,0.5,95,207.0
4120,E4,601.75,0.25,70,207.0
4121,E-4,602.0,0.25,70,207.0
4122,F#4,602.0,0.5,95,207.0
4123,F#3,602.0,0.5,95,207.0
4124,C#4,602.25,0.25,95,207.0
4125,A3,602.5,0.5,95,207.0
4126,F#5,602.5,0.5,95,207.0
4127,G#3,602.5,0.5,70,207.0
4128,B3,603.0,0.5,95,207.0
4129,B4,603.0,0.5,95,207.0
4130,A3,603.0,0.5,95,207.0
4131,B4,603.5,0.5,95,207.0
4132,C#5,603.5,0.5,95,207.0
4133,G#3,603.5,0.5,70,207.0
4134,E4,604.0,0.5,95,207.0
4135,F#5,604.0,0.5,95,207.0
4136,F#3,604.0,0.5,70,207.0
4137,F#4,604.5,0.5,95,207.0
4138,G#5,604.5,0.5,95,207.0
4139,E3,604.5,0.5,95,207.0
4140,B4,605.0,0.5,95,207.0
4141,E5,605.0,167/1000,95,207.0
4142,F#3,605.0,0.5,95,207.0
4143,F#5,605.167,167/1000,70,207.0
4144,E5,605.333,167/1000,70,207.0
4145,C#5,605.5,0.5,95,207.0
4146,E-5,605.5,0.5,95,207.0
4147,G#3,605.5,0.5,95,207.0
4148,A4,606.0,167/1000,95,207.0
4149,C#5,606.0,0.5,95,207.0
4150,F#3,606.0,1.0,95,207.0
4151,B4,606.167,167/1000,70,207.0
4152,A4,606.333,167/1000,70,207.0
4153,G#4,606.5,0.5,95,207.0
4154,A4,606.5,0.5,95,207.0
4155,F#4,607.0,0.5,95,207.0
4156,G#4,607.0,0.5,95,207.0
4157,B2,607.0,1.0,95,207.0
4158,B3,607.5,0.5,95,207.0
4159,F#4,607.5,0.5,95,207.0
4160,E3,607.5,4.5,95,207.0
4161,B2,607.5,4.5,95,207.0
4162,E2,607.5,4.5,95,207.0
4163,B4,608.0,0.5,95,207.0
4164,E4,608.0,0.5,95,207.0
4165,C#3,608.0,0.5,95,207.0
4166,E4,608.5,0.5,95,207.0
4167,E-4,608.5,0.5,95,207.0
4168,E-3,608.5,0.5,70,207.0
4169,F#4,609.0,0.5,95,207.0
4170,C#4,609.0,0.5,95,207.0
4171,E3,609.0,0.5,95,207.0
4172,E-4,609.5,0.5,95,207.0
4173,B3,609.5,0.5,95,207.0
4174,E-3,609.5,0.5,70,207.0
4175,E4,610.0,0.5,95,207.0
4176,C#4,610.0,0.5,95,207.0
4177,C#3,610.0,0.5,70,207.0
4178,E-4,610.5,0.25,95,207.0
4179,E-4,610.5,0.5,95,207.0
4180,A2,610.5,0.5,95,207.0
4181,E4,610.75,0.25,70,207.0
4182,E-4,611.0,0.25,70,207.0
4183,F#4,611.0,0.5,95,207.0
4184,B2,611.0,0.5,70,207.0
4185,C#4,611.25,0.25,95,207.0
4186,A3,611.5,0.5,95,207.0
4187,F#5,611.5,0.5,95,207.0
4188,C#3,611.5,0.5,70,207.0
4189,B3,612.0,0.5,95,207.0
4190,B4,612.0,0.5,95,207.0
4191,B4,612.0,0.5,95,207.0
4192,B3,612.0,4.5,95,207.0
4193,F#3,612.0,4.5,95,207.0
4194,B2,612.0,4.5,95,207.0
4195,B4,612.5,0.5,95,207.0
4196,C#5,612.5,0.5,95,207.0
4197,B3,612.5,0.5,70,207.0
4198,E4,613.0,0.5,95,207.0
4199,F#5,613.0,0.5,95,207.0
4200,B4,613.0,1.0,95,207.0
4201,F#4,613.5,0.5,95,207.0
4202,G#5,613.5,0.5,95,207.0
4203,B4,614.0,0.5,95,207.0
4204,E5,614.0,167/1000,95,207.0
4205,B4,614.0,0.5,95,207.0
4206,F#5,614.167,167/1000,70,207.0
4207,E5,614.333,167/1000,70,207.0
4208,C#5,614.5,0.5,95,207.0
4209,E-5,614.5,0.5,95,207.0
4210,C#5,614.5,0.5,70,207.0
4211,A4,615.0,167/1000,95,207.0
4212,C#5,615.0,0.5,95,207.0
4213,D5,615.0,0.5,95,207.0
4214,B4,615.167,167/1000,70,207.0
4215,A4,615.333,167/1000,70,207.0
4216,G#4,615.5,0.5,95,207.0
4217,F#4,615.5,0.5,95,207.0
4218,C#5,615.5,0.5,70,207.0
4219,F#4,616.0,0.5,95,207.0
4220,F#5,616.0,0.5,95,207.0
4221,B4,616.0,0.5,70,207.0
4222,E-4,616.5,0.25,95,207.0
4223,B4,616.5,0.5,95,207.0
4224,A4,616.5,0.5,95,207.0
4225,E4,616.75,0.25,70,207.0
4226,E-4,617.0,0.25,70,207.0
4227,C#5,617.0,0.5,95,207.0
4228,B4,617.0,0.5,95,207.0
4229,C#4,617.25,0.25,95,207.0
4230,A3,617.5,0.5,95,207.0
4231,G#4,617.5,0.5,95,207.0
4232,C#5,617.5,0.5,95,207.0
4233,B3,618.0,0.5,95,207.0
4234,A4,618.0,0.5,95,207.0
4235,B4,618.0,1.0,95,207.0
4236,B4,618.5,0.5,95,207.0
4237,G#4,618.5,0.25,95,207.0
4238,A4,618.75,0.25,70,207.0
4239,E4,619.0,0.5,95,207.0
4240,G#4,619.0,0.25,70,207.0
4241,E4,619.0,1.0,95,207.0
4242,F#4,619.25,0.25,95,207.0
4243,F#4,619.5,0.5,95,207.0
4244,E-4,619.5,0.5,95,207.0
4245,B4,620.0,0.5,95,207.0
4246,F#4,620.0,0.5,95,207.0
4247,F#4,620.0,0.5,95,207.0
4248,C#5,620.5,0.5,95,207.0
4249,F#5,620.5,0.5,95,207.0
4250,G#4,620.5,0.5,70,207.0
4251,A4,621.0,167/1000,95,207.0
4252,B4,621.0,0.5,95,207.0
4253,A4,621.0,0.5,95,207.0
4254,B4,621.167,167/1000,70,207.0
4255,A4,621.333,167/1000,70,207.0
4256,G#4,621.5,0.5,95,207.0
4257,C#5,621.5,0.5,95,207.0
4258,G#4,621.5,0.5,70,207.0
4259,F#4,622.0,0.5,95,207.0
4260,F#5,622.0,0.5,95,207.0
4261,F#4,622.0,0.5,70,207.0
4262,B3,622.5,0.5,95,207.0
4263,G#5,622.5,0.5,95,207.0
4264,D4,622.5,0.5,95,207.0
4265,B4,623.0,0.5,95,207.0
4266,E5,623.0,167/1000,95,207.0
4267,E4,623.0,0.5,95,207.0
4268,F#5,623.167,167/1000,70,207.0
4269,E5,623.333,167/1000,70,207.0
4270,E4,623.5,0.5,95,207.0
4271,E-5,623.5,0.5,95,207.0
4272,F#4,623.5,0.5,95,207.0
4273,F#4,624.0,0.5,95,207.0
4274,C#5,624.0,0.5,95,207.0
4275,E4,624.0,1.0,95,207.0
4276,E-4,624.5,0.5,95,207.0
4277,F#5,624.5,0.5,95,207.0
4278,E4,625.0,0.5,95,207.0
4279,E-5,625.0,0.5,95,207.0
4280,E4,625.0,0.5,95,207.0
4281,E-4,625.5,0.25,95,207.0
4282,E5,625.5,0.5,95,207.0
4283,E4,625.5,0.5,95,207.0
4284,E4,625.75,0.25,70,207.0
4285,E-4,626.0,0.25,70,207.0
4286,E-5,626.0,0.5,95,207.0
4287,B3,626.0,0.5,95,207.0
4288,C#4,626.25,0.25,95,207.0
4289,A3,626.5,0.5,95,207.0
4290,C#5,626.5,0.5,95,207.0
4291,C#4,626.5,0.5,70,207.0
4292,B3,627.0,0.5,95,207.0
4293,B4,627.0,0.5,95,207.0
4294,D4,627.0,0.5,95,207.0
4295,B4,627.5,0.5,95,207.0
4296,G#4,627.5,0.5,95,207.0
4297,C#4,627.5,0.5,70,207.0
4298,E4,628.0,0.5,95,207.0
4299,A4,628.0,0.5,95,207.0
4300,B3,628.0,0.5,70,207.0
4301,F#4,628.5,0.5,95,207.0
4302,B4,628.5,0.5,95,207.0
4303,A3,628.5,0.5,95,207.0
4304,B4,629.0,0.5,95,207.0
4305,F#4,629.0,0.5,95,207.0
4306,B3,629.0,0.5,95,207.0
4307,C#5,629.5,0.5,95,207.0
4308,F#5,629.5,0.5,95,207.0
4309,C#4,629.5,0.5,95,207.0
4310,A4,630.0,167/1000,95,207.0
4311,B4,630.0,0.5,95,207.0
4312,B3,630.0,1.0,95,207.0
4313,B3,630.0,4.5,95,207.0
4314,F#3,630.0,4.5,95,207.0
4315,B2,630.0,4.5,95,207.0
4316,B4,630.167,167/1000,70,207.0
4317,A4,630.333,167/1000,70,207.0
4318,G#4,630.5,0.5,95,207.0
4319,C#5,630.5,0.5,95,207.0
4320,F#4,631.0,0.5,95,207.0
4321,F#5,631.0,0.5,95,207.0
4322,E3,631.0,1.0,95,207.0
4323,B3,631.5,0.5,95,207.0
4324,G#5,631.5,0.5,95,207.0
4325,B4,632.0,0.5,95,207.0
4326,E5,632.0,167/1000,95,207.0
4327,F#3,632.0,0.5,95,207.0
4328,F#5,632.167,167/1000,70,207.0
4329,E5,632.333,167/1000,70,207.0
4330,E4,632.5,0.5,95,207.0
4331,E-5,632.5,0.5,95,207.0
4332,G#3,632.5,0.5,95,207.0
4333,F#4,633.0,0.5,95,207.0
4334,C#5,633.0,0.5,95,207.0
4335,A3,633.0,1.0,95,207.0
4336,B4,633.5,0.5,95,207.0
4337,F#4,633.5,0.5,95,207.0
4338,C#5,634.0,0.5,95,207.0
4339,F#5,634.0,0.5,95,207.0
4340,G#3,634.0,1.0,95,207.0
4341,A4,634.5,167/1000,95,207.0
4342,B4,634.5,0.5,95,207.0
4343,B4,634.667,167/1000,70,207.0
4344,A4,634.833,167/1000,70,207.0
4345,G#4,635.0,0.5,95,207.0
4346,C#5,635.0,0.5,95,207.0
4347,F#3,635.0,1.0,95,207.0
4348,F#4,635.5,0.5,95,207.0
4349,G#4,635.5,0.5,95,207.0
4350,B3,636.0,0.5,95,207.0
4351,A4,636.0,0.5,95,207.0
4352,C#4,636.0,4.0,95,207.0
4353,C#3,636.0,0.25,95,207.0
4354,G#3,636.25,0.25,95,207.0
4355,B4,636.5,0.5,95,207.0
4356,G#4,636.5,0.25,95,207.0
4357,C#4,636.5,0.25,95,207.0
4358,A4,636.75,0.25,70,207.0
4359,B3,636.75,0.5,95,207.0
4360,E4,637.0,0.5,95,207.0
4361,G#4,637.0,0.25,70,207.0
4362,F#4,637.25,0.25,95,207.0
4363,C#4,637.25,0.5,95,207.0
4364,F#4,637.5,0.5,95,207.0
4365,E-4,637.5,0.5,95,207.0
4366,E4,637.75,0.5,95,207.0
4367,B4,638.0,0.5,95,207.0
4368,F#4,638.0,0.5,95,207.0
4369,B3,638.25,0.25,95,207.0
4370,C#5,638.5,0.5,95,207.0
4371,F#5,638.5,0.5,95,207.0
4372,C#4,638.5,0.25,95,207.0
4373,G#3,638.75,0.25,95,207.0
4374,A4,639.0,167/1000,95,207.0
4375,B4,639.0,0.5,95,207.0
4376,A2,639.0,0.25,95,207.0
4377,B4,639.167,167/1000,70,207.0
4378,G#3,639.25,0.25,95,207.0
4379,A4,639.333,167/1000,70,207.0
4380,G#4,639.5,0.5,95,207.0
4381,C#5,639.5,0.5,95,207.0
4382,C#4,639.5,0.25,95,207.0
4383,B3,639.75,0.25,95,207.0
4384,F#4,640.0,0.5,95,207.0
4385,F#5,640.0,0.5,95,207.0
4386,E-4,640.0,4.0,95,207.0
4387,B2,640.0,0.25,95,207.0
4388,F#3,640.25,0.25,95,207.0
4389,E-4,640.5,0.25,95,207.0
4390,G#5,640.5,0.5,95,207.0
4391,B3,640.5,0.25,95,207.0
4392,E4,640.75,0.25,70,207.0
4393,B3,640.75,0.5,95,207.0
4394,E-4,641.0,0.25,70,207.0
4395,E5,641.0,167/1000,95,207.0
4396,F#5,641.167,167/1000,70,207.0
4397,C#4,641.25,0.25,95,207.0
4398,B3,641.25,0.5,95,207.0
4399,E5,641.333,167/1000,70,207.0
4400,A3,641.5,0.5,95,207.0
4401,E-5,641.5,0.5,95,207.0
4402,E4,641.75,0.5,95,207.0
4403,C#5,642.0,0.5,95,207.0
4404,B3,642.25,0.25,95,207.0
4405,A4,642.5,0.5,95,207.0
4406,E2,642.5,0.25,95,207.0
4407,B3,642.75,0.75,95,207.0
4408,G#4,643.0,0.5,95,207.0
4409,F#4,643.5,0.5,95,207.0
4410,F#2,643.5,0.25,95,207.0
4411,B3,643.5,4.5,95,207.0
4412,F#3,643.5,4.5,95,207.0
4413,B2,643.5,4.5,95,207.0
4414,G#2,643.75,0.25,95,207.0
4415,E4,644.0,0.5,95,207.0
4416,E-4,644.0,1.0,95,207.0
4417,A2,644.0,0.25,95,207.0
4418,E3,644.25,0.25,95,207.0
4419,E-4,644.5,0.5,95,207.0
4420,A3,644.5,0.25,95,207.0
4421,B3,644.75,0.5,95,207.0
4422,C#4,645.0,0.5,95,207.0
4423,E4,645.0,3.0,70,207.0
4424,A3,645.25,0.25,95,207.0
4425,B3,645.5,0.5,95,207.0
4426,A2,645.5,0.25,95,207.0
4427,E4,645.75,0.5,95,207.0
4428,C#4,646.0,0.5,95,207.0
4429,B3,646.25,0.25,95,207.0
4430,E-4,646.5,0.5,95,207.0
4431,A3,646.5,0.5,95,207.0
4432,F#4,647.0,0.5,95,207.0
4433,C#3,647.0,0.25,95,207.0
4434,E3,647.25,0.25,95,207.0
4435,F#5,647.5,0.5,95,207.0
4436,A3,647.5,0.25,95,207.0
4437,B3,647.75,0.25,95,207.0
4438,B4,648.0,0.5,95,207.0
4439,B3,648.0,3.0,95,207.0
4440,G#2,648.0,0.25,95,207.0
4441,F#3,648.25,0.25,95,207.0
4442,C#5,648.5,0.5,95,207.0
4443,B3,648.5,0.25,95,207.0
4444,B3,648.75,0.5,95,207.0
4445,F#5,649.0,0.5,95,207.0
4446,B3,649.25,0.25,95,207.0
4447,G#5,649.5,0.5,95,207.0
4448,G#2,649.5,0.25,95,207.0
4449,E4,649.75,0.25,95,207.0
4450,E5,650.0,167/1000,95,207.0
4451,B3,650.0,0.25,95,207.0
4452,F#5,650.167,167/1000,70,207.0
4453,B3,650.25,0.25,95,207.0
4454,E5,650.333,167/1000,70,207.0
4455,E-5,650.5,0.5,95,207.0
4456,E3,650.5,0.25,95,207.0
4457,G#3,650.75,0.25,95,207.0
4458,C#5,651.0,0.5,95,207.0
4459,G#3,651.0,1.0,95,207.0
4460,B3,651.0,0.25,95,207.0
4461,E-3,651.25,0.25,95,207.0
4462,F#4,651.5,0.5,95,207.0
4463,F#3,651.5,0.25,95,207.0
4464,B3,651.75,0.25,95,207.0
4465,F#5,652.0,0.5,95,207.0
4466,C#4,652.0,3.0,95,207.0
4467,C#3,652.0,0.25,95,207.0
4468,G#3,652.25,0.25,95,207.0
4469,B4,652.5,0.5,95,207.0
4470,C#4,652.5,0.25,95,207.0
4471,B3,652.5,4.5,95,207.0
4472,F#3,652.5,4.5,95,207.0
4473,B2,652.5,4.5,95,207.0
4474,B3,652.75,0.5,95,207.0
4475,C#5,653.0,0.5,95,207.0
4476,C#4,653.25,0.25,95,207.0
4477,G#4,653.5,0.5,95,207.0
4478,C#3,653.5,0.25,95,207.0
4479,E4,653.75,0.5,95,207.0
4480,A4,654.0,0.5,95,207.0
4481,B3,654.25,0.25,95,207.0
4482,G#4,654.5,0.25,95,207.0
4483,C#4,654.5,0.5,95,207.0
4484,A4,654.75,0.25,70,207.0
4485,G#4,655.0,0.25,70,207.0
4486,B3,655.0,1.0,95,207.0
4487,E-3,655.0,0.25,95,207.0
4488,F#4,655.25,0.25,95,207.0
4489,B3,655.25,0.25,95,207.0
4490,E-4,655.5,0.5,95,207.0
4491,E-4,655.5,0.25,95,207.0
4492,B3,655.75,0.25,95,207.0
4493,F#4,656.0,0.5,95,207.0
4494,E4,656.0,3.0,95,207.0
4495,E3,656.0,0.25,95,207.0
4496,B3,656.25,0.25,95,207.0
4497,F#5,656.5,0.5,95,207.0
4498,E4,656.5,0.25,95,207.0
4499,B3,656.75,0.5,95,207.0
4500,B4,657.0,0.5,95,207.0
4501,E3,657.0,4.5,95,207.0
4502,B2,657.0,4.5,95,207.0
4503,E2,657.0,4.5,95,207.0
4504,E4,657.25,0.25,95,207.0
4505,C#5,657.5,0.5,95,207.0
4506,E3,657.5,0.25,95,207.0
4507,E4,657.75,0.5,95,207.0
4508,F#5,658.0,0.5,95,207.0
4509,B3,658.25,0.25,95,207.0
4510,G#5,658.5,0.5,95,207.0
4511,E4,658.5,0.25,95,207.0
4512,B3,658.75,0.25,95,207.0
4513,E5,659.0,167/1000,95,207.0
4514,G#4,659.0,1.0,95,207.0
4515,G#2,659.0,0.25,95,207.0
4516,F#5,659.167,167/1000,70,207.0
4517,E3,659.25,0.25,95,207.0
4518,E5,659.333,167/1000,70,207.0
4519,E-5,659.5,0.5,95,207.0
4520,B3,659.5,0.25,95,207.0
4521,B3,659.75,0.25,95,207.0
4522,C#5,660.0,0.5,95,207.0
4523,A4,660.0,3.0,95,207.0
4524,A2,660.0,0.25,95,207.0
4525,E3,660.25,0.25,95,207.0
4526,F#5,660.5,0.5,95,207.0
4527,A3,660.5,0.25,95,207.0
4528,B3,660.75,0.5,95,207.0
4529,E-5,661.0,0.5,95,207.0
4530,A3,661.25,0.25,95,207.0
4531,E5,661.5,0.5,95,207.0
4532,A2,661.5,0.25,95,207.0
4533,E4,661.75,0.5,95,207.0
4534,E-5,662.0,0.5,95,207.0
4535,B3,662.25,0.25,95,207.0
4536,C#5,662.5,0.5,95,207.0
4537,A3,662.5,0.5,95,207.0
4538,B4,663.0,0.5,95,207.0
4539,C#5,663.0,1.0,95,207.0
4540,C#3,663.0,0.25,95,207.0
4541,E3,663.25,0.25,95,207.0
4542,G#4,663.5,0.5,95,207.0
4543,A3,663.5,0.25,95,207.0
4544,B3,663.75,0.25,95,207.0
4545,A4,664.0,0.5,95,207.0
4546,E-5,664.0,3.0,95,207.0
4547,B2,664.0,0.25,95,207.0
4548,F#3,664.25,0.25,95,207.0
4549,B4,664.5,0.5,95,207.0
4550,B3,664.5,0.25,95,207.0
4551,B3,664.75,0.5,95,207.0
4552,F#4,665.0,0.5,95,207.0
4553,B3,665.25,0.25,95,207.0
4554,F#5,665.5,0.5,95,207.0
4555,B2,665.5,0.25,95,207.0
4556,E4,665.75,0.5,95,207.0
4557,B4,666.0,0.5,95,207.0
4558,B3,666.25,0.25,95,207.0
4559,C#5,666.5,0.5,95,207.0
4560,F#2,666.5,0.75,95,207.0
4561,F#5,667.0,0.5,95,207.0
4562,B3,667.0,0.25,95,207.0
4563,G#2,667.25,0.75,95,207.0
4564,G#5,667.5,0.5,95,207.0
4565,B4,667.5,0.5,95,207.0
4566,B3,667.75,0.25,95,207.0
4567,E5,668.0,167/1000,95,207.0
4568,C#3,668.0,0.25,95,207.0
4569,F#5,668.167,167/1000,70,207.0
4570,G#3,668.25,0.25,95,207.0
4571,E5,668.333,167/1000,70,207.0
4572,E-5,668.5,0.5,95,207.0
4573,C#4,668.5,0.25,95,207.0
4574,B3,668.75,0.5,95,207.0
4575,C#5,669.0,0.5,95,207.0
4576,C#4,669.25,0.5,95,207.0
4577,F#4,669.5,0.5,95,207.0
4578,E4,669.75,0.5,95,207.0
4579,F#5,670.0,0.5,95,207.0
4580,B3,670.25,0.25,95,207.0
4581,B4,670.5,0.5,95,207.0
4582,C#4,670.5,0.25,95,207.0
4583,G#3,670.75,0.25,95,207.0
4584,C#5,671.0,0.5,95,207.0
4585,A2,671.0,0.25,95,207.0
4586,G#3,671.25,0.25,95,207.0
4587,G#4,671.5,0.5,95,207.0
4588,C#4,671.5,0.25,95,207.0
4589,B3,671.75,0.25,95,207.0
4590,A4,672.0,0.5,95,207.0
4591,B2,672.0,0.25,95,207.0
4592,F#3,672.25,0.25,95,207.0
4593,G#4,672.5,0.25,95,207.0
4594,B3,672.5,0.25,95,207.0
4595,A4,672.75,0.25,70,207.0
4596,B3,672.75,0.5,95,207.0
4597,G#4,673.0,0.25,70,207.0
4598,F#4,673.25,0.25,95,207.0
4599,B3,673.25,0.5,95,207.0
4600,E-4,673.5,0.5,95,207.0
4601,E4,673.75,0.5,95,207.0
4602,E4,674.0,3.0,95,207.0
4603,F#4,674.0,0.5,95,207.0
4604,B3,674.25,0.25,95,207.0
4605,F#5,674.5,0.5,95,207.0
4606,E2,674.5,0.25,95,207.0
4607,B3,674.75,0.75,95,207.0
4608,B4,675.0,0.5,95,207.0
4609,E3,675.0,4.5,95,207.0
4610,B2,675.0,4.5,95,207.0
4611,E2,675.0,4.5,95,207.0
4612,C#5,675.5,0.5,95,207.0
4613,F#2,675.5,0.25,95,207.0
4614,G#2,675.75,0.25,95,207.0
4615,F#5,676.0,0.5,95,207.0
4616,A2,676.0,0.25,95,207.0
4617,E3,676.25,0.25,95,207.0
4618,G#5,676.5,0.5,95,207.0
4619,A3,676.5,0.25,95,207.0
4620,B3,676.75,0.5,95,207.0
4621,E-4,677.0,1.0,95,207.0
4622,E5,677.0,167/1000,95,207.0
4623,F#5,677.167,167/1000,70,207.0
4624,A3,677.25,0.25,95,207.0
4625,E5,677.333,167/1000,70,207.0
4626,E-5,677.5,0.5,95,207.0
4627,A2,677.5,0.25,95,207.0
4628,E4,677.75,0.5,95,207.0
4629,E-4,678.0,2.5,95,207.0
4630,C#5,678.0,0.5,95,207.0
4631,B3,678.25,0.25,95,207.0
4632,F#4,678.5,0.5,95,207.0
4633,A3,678.5,0.5,95,207.0
4634,F#5,679.0,0.5,95,207.0
4635,C#3,679.0,0.25,95,207.0
4636,E3,679.25,0.25,95,207.0
4637,B4,679.5,0.5,95,207.0
4638,A3,679.5,0.25,95,207.0
4639,B3,679.75,0.25,95,207.0
4640,C#5,680.0,0.5,95,207.0
4641,G#2,680.0,0.25,95,207.0
4642,F#3,680.25,0.25,95,207.0
4643,B3,680.5,1.5,95,207.0
4644,G#4,680.5,0.5,95,207.0
4645,B3,680.5,0.25,95,207.0
4646,B3,680.75,0.5,95,207.0
4647,A4,681.0,0.5,95,207.0
4648,B3,681.25,0.25,95,207.0
4649,G#4,681.5,0.25,95,207.0
4650,G#2,681.5,0.25,95,207.0
4651,A4,681.75,0.25,70,207.0
4652,E4,681.75,0.25,95,207.0
4653,C#4,682.0,2.0,95,207.0
4654,G#4,682.0,0.25,70,207.0
4655,B3,682.0,0.25,95,207.0
4656,F#4,682.25,0.25,95,207.0
4657,B3,682.25,0.25,95,207.0
4658,E-4,682.5,0.5,95,207.0
4659,E3,682.5,0.25,95,207.0
4660,G#3,682.75,0.25,95,207.0
4661,F#4,683.0,0.5,95,207.0
4662,B3,683.0,0.25,95,207.0
4663,E-3,683.25,0.25,95,207.0
4664,F#5,683.5,0.5,95,207.0
4665,F#3,683.5,0.25,95,207.0
4666,B3,683.75,0.25,95,207.0
4667,E-4,684.0,1.0,95,207.0
4668,B4,684.0,0.5,95,207.0
4669,C#3,684.0,0.25,95,207.0
4670,G#3,684.25,0.25,95,207.0
4671,C#5,684.5,0.5,95,207.0
4672,C#4,684.5,0.25,95,207.0
4673,B3,684.75,0.5,95,207.0
4674,E4,685.0,1.0,95,207.0
4675,F#5,685.0,0.5,95,207.0
4676,C#4,685.25,0.25,95,207.0
4677,G#5,685.5,0.5,95,207.0
4678,C#3,685.5,0.25,95,207.0
4679,E4,685.75,0.5,95,207.0
4680,B3,686.0,2.5,95,207.0
4681,E5,686.0,167/1000,95,207.0
4682,F#5,686.167,167/1000,70,207.0
4683,B3,686.25,0.25,95,207.0
4684,E5,686.333,167/1000,70,207.0
4685,E-5,686.5,0.5,95,207.0
4686,C#4,686.5,0.5,95,207.0
4687,C#5,687.0,0.5,95,207.0
4688,E-3,687.0,0.25,95,207.0
4689,B3,687.25,0.25,95,207.0
4690,G#4,687.5,0.25,95,207.0
4691,E-4,687.5,0.25,95,207.0
4692,A4,687.75,0.25,70,207.0
4693,B3,687.75,0.25,95,207.0
4694,G#4,688.0,0.25,70,207.0
4695,E3,688.0,0.25,95,207.0
4696,F#4,688.25,0.25,95,207.0
4697,B3,688.25,0.25,95,207.0
4698,B3,688.5,0.375,127,207.0
4699,E-4,688.5,0.5,95,207.0
4700,E4,688.5,0.25,95,207.0
4701,E3,688.5,4.5,95,207.0
4702,B2,688.5,4.5,95,207.0
4703,E2,688.5,4.5,95,207.0
4704,B3,688.75,0.5,95,207.0
4705,F#4,689.0,0.5,95,207.0
4706,E-4,689.25,0.375,127,207.0
4707,E4,689.25,0.25,95,207.0
4708,F#5,689.5,0.5,95,207.0
4709,E3,689.5,0.25,95,207.0
4710,E4,689.75,0.5,95,207.0
4711,E4,690.0,0.75,95,207.0
4712,B4,690.0,0.5,95,207.0
4713,B3,690.25,0.25,95,207.0
4714,C#5,690.5,0.5,95,207.0
4715,E4,690.5,0.25,95,207.0
4716,C#5,690.75,0.25,95,207.0
4717,B3,690.75,0.25,95,207.0
4718,C#5,691.0,1.75,95,207.0
4719,F#5,691.0,0.5,95,207.0
4720,G#2,691.0,0.25,95,207.0
4721,E3,691.25,0.25,95,207.0
4722,G#5,691.5,0.5,95,207.0
4723,B3,691.5,0.25,95,207.0
4724,B3,691.75,0.25,95,207.0
4725,E5,692.0,167/1000,95,207.0
4726,A2,692.0,0.25,95,207.0
4727,F#5,692.167,167/1000,70,207.0
4728,E3,692.25,0.25,95,207.0
4729,E5,692.333,167/1000,70,207.0
4730,E-5,692.5,0.5,95,207.0
4731,A3,692.5,0.25,95,207.0
4732,G#4,692.75,0.25,95,207.0
4733,B3,692.75,0.5,95,207.0
4734,G#4,693.0,0.75,95,207.0
4735,C#5,693.0,0.5,95,207.0
4736,A3,693.25,0.25,95,207.0
4737,F#4,693.5,0.5,95,207.0
4738,A2,693.5,0.25,95,207.0
4739,E-5,693.75,0.25,95,207.0
4740,E4,693.75,0.5,95,207.0
4741,E5,694.0,2.5,95,207.0
4742,F#5,694.0,0.5,95,207.0
4743,B3,694.25,0.25,95,207.0
4744,B4,694.5,0.5,95,207.0
4745,A3,694.5,0.5,95,207.0
4746,C#5,695.0,0.5,95,207.0
4747,C#3,695.0,0.25,95,207.0
4748,E3,695.25,0.25,95,207.0
4749,G#4,695.5,0.5,95,207.0
4750,A3,695.5,0.25,95,207.0
4751,B3,695.75,0.25,95,207.0
4752,A4,696.0,0.5,95,207.0
4753,B2,696.0,0.25,95,207.0
4754,F#3,696.25,0.25,95,207.0
4755,G#5,696.5,1.0,95,207.0
4756,G#4,696.5,0.25,95,207.0
4757,B3,696.5,0.25,95,207.0
4758,A4,696.75,0.25,70,207.0
4759,B3,696.75,0.5,95,207.0
4760,G#4,697.0,0.25,70,207.0
4761,F#4,697.25,0.25,95,207.0
4762,B3,697.25,0.25,95,207.0
4763,C#5,697.5,0.25,95,207.0
4764,E-4,697.5,0.5,95,207.0
4765,B2,697.5,0.25,95,207.0
4766,E3,697.5,4.5,95,207.0
4767,B2,697.5,4.5,95,207.0
4768,E2,697.5,4.5,95,207.0
4769,B4,697.75,0.25,95,207.0
4770,E4,697.75,0.5,95,207.0
4771,C#5,698.0,1.75,95,207.0
4772,F#4,698.0,0.5,95,207.0
4773,B3,698.25,0.25,95,207.0
4774,F#5,698.5,0.5,95,207.0
4775,F#2,698.5,0.75,95,207.0
4776,B4,699.0,0.5,95,207.0
4777,B3,699.0,0.25,95,207.0
4778,G#2,699.25,0.75,95,207.0
4779,C#5,699.5,0.5,95,207.0
4780,E5,699.75,0.75,95,207.0
4781,B3,699.75,0.25,95,207.0
4782,F#5,700.0,0.5,95,207.0
4783,C#3,700.0,0.25,95,207.0
4784,G#3,700.25,0.25,95,207.0
4785,E-5,700.5,0.75,95,207.0
4786,G#5,700.5,0.5,95,207.0
4787,C#4,700.5,0.25,95,207.0
4788,B3,700.75,0.5,95,207.0
4789,E5,701.0,167/1000,95,207.0
4790,F#5,701.167,167/1000,70,207.0
4791,C#5,701.25,0.75,95,207.0
4792,C#4,701.25,0.5,95,207.0
4793,E5,701.333,167/1000,70,207.0
4794,E-5,701.5,0.5,95,207.0
4795,E4,701.75,0.5,95,207.0
4796,E-5,702.0,1.75,95,207.0
4797,C#5,702.0,0.5,95,207.0
4798,B3,702.0,4.5,95,207.0
4799,F#3,702.0,4.5,95,207.0
4800,B2,702.0,4.5,95,207.0
4801,B3,702.25,0.25,95,207.0
4802,F#4,702.5,0.5,95,207.0
4803,C#4,702.5,0.25,95,207.0
4804,G#3,702.75,0.25,95,207.0
4805,F#5,703.0,0.5,95,207.0
4806,A2,703.0,0.25,95,207.0
4807,G#3,703.25,0.25,95,207.0
4808,B4,703.5,0.5,95,207.0
4809,C#4,703.5,0.25,95,207.0
4810,F#5,703.75,0.75,95,207.0
4811,B3,703.75,0.25,95,207.0
4812,C#5,704.0,0.5,95,207.0
4813,B2,704.0,0.25,95,207.0
4814,F#3,704.25,0.25,95,207.0
4815,E5,704.5,0.75,95,207.0
4816,F#5,704.5,0.5,95,207.0
4817,B3,704.5,0.25,95,207.0
4818,B3,704.75,0.5,95,207.0
4819,G#5,705.0,0.5,95,207.0
4820,E-5,705.25,0.75,95,207.0
4821,B3,705.25,0.5,95,207.0
4822,E5,705.5,167/1000,95,207.0
4823,F#5,705.667,167/1000,70,207.0
4824,E4,705.75,0.5,95,207.0
4825,E5,705.833,167/1000,70,207.0
4826,B4,706.0,1.5,95,207.0
4827,E-5,706.0,0.5,95,207.0
4828,B3,706.25,0.25,95,207.0
4829,C#5,706.5,0.5,95,207.0
4830,E2,706.5,0.25,95,207.0
4831,B3,706.75,0.75,95,207.0
4832,F#4,707.0,0.5,95,207.0
4833,C#5,707.5,167/1000,95,207.0
4834,F#5,707.5,0.5,95,207.0
4835,F#2,707.5,0.25,95,207.0
4836,B4,707.667,167/1000,95,207.0
4837,G#2,707.75,0.25,95,207.0
4838,G#4,707.833,167/1000,95,207.0
4839,F#4,708.0,167/1000,95,207.0
4840,B4,708.0,0.5,95,207.0
4841,A2,708.0,0.25,95,207.0
4842,G#4,708.167,167/1000,95,207.0
4843,E3,708.25,0.25,95,207.0
4844,C#5,708.333,167/1000,95,207.0
4845,B4,708.5,0.5,95,207.0
4846,C#5,708.5,0.5,95,207.0
4847,A3,708.5,0.25,95,207.0
4848,B3,708.75,0.5,95,207.0
4849,C#5,709.0,167/1000,95,207.0
4850,F#5,709.0,0.5,95,207.0
4851,B4,709.167,167/1000,95,207.0
4852,A3,709.25,0.25,95,207.0
4853,G#4,709.333,167/1000,95,207.0
4854,E-5,709.5,0.5,95,207.0
4855,G#5,709.5,0.5,95,207.0
4856,A2,709.5,0.25,95,207.0
4857,E4,709.75,0.5,95,207.0
4858,E-5,710.0,1.25,95,207.0
4859,E5,710.0,167/1000,95,207.0
4860,F#5,710.167,167/1000,70,207.0
4861,B3,710.25,0.25,95,207.0
4862,E5,710.333,167/1000,70,207.0
4863,E-5,710.5,0.5,95,207.0
4864,A3,710.5,0.5,95,207.0
4865,C#5,711.0,0.5,95,207.0
4866,C#3,711.0,0.25,95,207.0
4867,B4,711.25,0.125,95,207.0
4868,E3,711.25,0.25,95,207.0
4869,G#4,711.375,0.125,70,207.0
4870,F#4,711.5,0.125,95,207.0
4871,G#4,711.5,0.25,95,207.0
4872,A3,711.5,0.25,95,207.0
4873,E4,711.625,0.125,70,207.0
4874,E-4,711.75,0.125,70,207.0
4875,A4,711.75,0.25,70,207.0
4876,B3,711.75,0.25,95,207.0
4877,E4,711.875,0.125,70,207.0
4878,F#4,712.0,83/1000,70,207.0
4879,G#4,712.0,0.25,70,207.0
4880,G#2,712.0,0.25,95,207.0
4881,E4,712.083,83/1000,70,207.0
4882,E-4,712.167,83/1000,70,207.0
4883,C#4,712.25,83/1000,95,207.0
4884,F#4,712.25,0.25,95,207.0
4885,F#3,712.25,0.25,95,207.0
4886,B3,712.333,83/1000,70,207.0
4887,A3,712.417,83/1000,70,207.0
4888,G#3,712.5,83/1000,95,207.0
4889,E-4,712.5,0.5,95,207.0
4890,B3,712.5,0.25,95,207.0
4891,F#3,712.583,83/1000,70,207.0
4892,E3,712.667,83/1000,70,207.0
4893,C#4,712.75,83/1000,95,207.0
4894,B3,712.75,0.5,95,207.0
4895,B3,712.833,83/1000,70,207.0
4896,A3,712.917,83/1000,70,207.0
4897,G#3,713.0,83/1000,95,207.0
4898,F#3,713.083,83/1000,70,207.0
4899,E3,713.167,83/1000,70,207.0
4900,G#3,713.25,83/1000,95,207.0
4901,B3,713.25,0.25,95,207.0
4902,F#3,713.333,83/1000,70,207.0
4903,E3,713.417,83/1000,70,207.0
4904,B3,713.5,83/1000,95,207.0
4905,G#2,713.5,0.25,95,207.0
4906,A3,713.583,83/1000,70,207.0
4907,G#3,713.667,83/1000,70,207.0
4908,F#3,713.75,83/1000,95,207.0
4909,E4,713.75,0.25,95,207.0
4910,E3,713.833,83/1000,70,207.0
4911,E-3,713.917,83/1000,70,207.0
4912,E3,714.0,1.5,95,207.0
4913,B3,714.0,0.25,95,207.0
4914,B3,714.25,0.25,95,207.0
4915,E3,714.5,0.25,95,207.0
4916,G#3,714.75,0.25,95,207.0
4917,B3,715.0,0.25,95,207.0
4918,E-3,715.25,0.25,95,207.0
4919,F#3,715.5,0.25,95,207.0
4920,C#3,715.75,167/1000,95,207.0
4921,B3,715.75,0.25,95,207.0
4922,E3,715.917,167/1000,95,207.0
4923,C#3,716.0,0.25,95,207.0
4924,G#3,716.083,167/1000,95,207.0
4925,B3,716.25,167/1000,95,207.0
4926,G#3,716.25,0.25,95,207.0
4927,C#4,716.417,167/1000,95,207.0
4928,C#4,716.5,0.25,95,207.0
4929,E4,716.583,167/1000,95,207.0
4930,G#4,716.75,167/1000,95,207.0
4931,B3,716.75,0.5,95,207.0
4932,B4,716.917,167/1000,95,207.0
4933,C#5,717.083,167/1000,95,207.0
4934,G#4,717.25,0.25,95,207.0
4935,C#4,717.25,0.25,95,207.0
4936,E-5,717.5,167/1000,95,207.0
4937,C#3,717.5,0.25,95,207.0
4938,E5,717.667,167/1000,95,207.0
4939,E4,717.75,0.5,95,207.0
4940,F#5,717.833,167/1000,95,207.0
4941,E-5,718.0,1.25,95,207.0
4942,B3,718.25,0.25,95,207.0
4943,C#4,718.5,0.5,95,207.0
4944,E-3,719.0,0.25,95,207.0
4945,C#5,719.25,0.25,95,207.0
4946,B3,719.25,0.25,95,207.0
4947,E-5,719.5,167/1000,95,207.0
4948,E-4,719.5,0.25,95,207.0
4949,E5,719.667,167/1000,95,207.0
4950,B3,719.75,0.25,95,207.0
4951,F#5,719.833,167/1000,95,207.0
4952,G#5,720.0,167/1000,95,207.0
4953,E3,720.0,0.25,95,207.0
4954,A5,720.167,167/1000,95,207.0
4955,B3,720.25,0.25,95,207.0
4956,B5,720.333,167/1000,95,207.0
4957,G#5,720.5,167/1000,95,207.0
4958,E4,720.5,0.25,95,207.0
4959,A5,720.667,167/1000,95,207.0
4960,B3,720.75,0.5,95,207.0
4961,F#5,720.833,167/1000,95,207.0
4962,G#5,721.0,0.125,95,207.0
4963,E4,721.125,0.125,70,207.0
4964,F#5,721.25,0.125,95,207.0
4965,E4,721.25,0.25,95,207.0
4966,E4,721.375,0.125,70,207.0
4967,E5,721.5,0.125,95,207.0
4968,E3,721.5,0.25,95,207.0
4969,E4,721.625,0.125,70,207.0
4970,E-5,721.75,0.125,95,207.0
4971,E4,721.75,0.5,95,207.0
4972,E4,721.875,0.125,70,207.0
4973,C#5,722.0,1.0,95,207.0
4974,B3,722.25,0.25,95,207.0
4975,E4,722.5,0.25,95,207.0
4976,B3,722.75,0.25,95,207.0
4977,G#2,723.0,0.25,95,207.0
4978,C#6,723.25,0.125,95,207.0
4979,E3,723.25,0.25,95,207.0
4980,G#5,723.375,0.125,95,207.0
4981,E5,723.5,0.125,95,207.0
4982,B3,723.5,0.25,95,207.0
4983,E-5,723.625,0.125,70,207.0
4984,C#5,723.75,0.125,95,207.0
4985,B3,723.75,0.25,95,207.0
4986,B4,723.875,0.125,70,207.0
4987,G#5,724.0,0.125,95,207.0
4988,A2,724.0,0.25,95,207.0
4989,E-5,724.125,0.125,95,207.0
4990,C#5,724.25,0.125,95,207.0
4991,E3,724.25,0.25,95,207.0
4992,B4,724.375,0.125,95,207.0
4993,E-5,724.5,0.125,95,207.0
4994,A3,724.5,0.25,95,207.0
4995,B4,724.625,0.125,95,207.0
4996,G#4,724.75,0.125,95,207.0
4997,B3,724.75,0.5,95,207.0
4998,F#4,724.875,0.125,70,207.0
4999,E4,725.0,0.125,95,207.0
5000,E-4,725.125,0.125,70,207.0
5001,F#4,725.25,0.125,95,207.0
5002,A3,725.25,0.25,95,207.0
5003,E-4,725.375,0.125,70,207.0
5004,E4,725.5,0.125,95,207.0
5005,A2,725.5,0.25,95,207.0
5006,E-4,725.625,0.125,70,207.0
5007,C#4,725.75,0.125,95,207.0
5008,E4,725.75,0.5,95,207.0
5009,E-4,725.875,0.125,70,207.0
5010,E4,726.0,1.0,95,207.0
5011,B3,726.0,4.5,95,207.0
5012,F#3,726.0,4.5,95,207.0
5013,B2,726.0,4.5,95,207.0
5014,B3,726.25,0.25,95,207.0
5015,A3,726.5,0.5,95,207.0
5016,E4,727.0,167/1000,95,207.0
5017,C#3,727.0,0.25,95,207.0
5018,B4,727.167,167/1000,95,207.0
5019,E3,727.25,0.25,95,207.0
5020,C#4,727.333,167/1000,95,207.0
5021,G#4,727.5,167/1000,95,207.0
5022,A3,727.5,0.25,95,207.0
5023,G#4,727.667,167/1000,95,207.0
5024,B3,727.75,0.25,95,207.0
5025,E-5,727.833,167/1000,95,207.0
5026,F#4,728.0,167/1000,95,207.0
5027,B2,728.0,0.25,95,207.0
5028,C#5,728.167,167/1000,95,207.0
5029,F#3,728.25,0.25,95,207.0
5030,C#5,728.333,167/1000,95,207.0
5031,F#5,728.5,167/1000,95,207.0
5032,B3,728.5,0.25,95,207.0
5033,B4,728.667,167/1000,95,207.0
5034,B3,728.75,0.5,95,207.0
5035,E5,728.833,167/1000,95,207.0
5036,F#5,729.0,167/1000,95,207.0
5037,C#6,729.167,167/1000,95,207.0
5038,B3,729.25,0.25,95,207.0
5039,E5,729.333,167/1000,95,207.0
5040,B5,729.5,167/1000,95,207.0
5041,B2,729.5,0.25,95,207.0
5042,C#5,729.667,167/1000,95,207.0
5043,E4,729.75,0.5,95,207.0
5044,G#5,729.833,167/1000,95,207.0
5045,G#5,730.0,0.5,95,207.0
5046,B3,730.25,0.25,95,207.0
5047,A5,730.5,0.125,95,207.0
5048,F#2,730.5,0.75,95,207.0
5049,G#5,730.625,0.125,70,207.0
5050,A5,730.75,0.5,95,207.0
5051,B3,731.0,0.25,95,207.0
5052,C#5,731.25,0.125,95,207.0
5053,G#2,731.25,0.75,95,207.0
5054,B4,731.375,0.125,70,207.0
5055,C#5,731.5,0.5,95,207.0
5056,B3,731.75,0.25,95,207.0
5057,G#5,732.0,0.125,95,207.0
5058,A2,732.0,0.25,95,207.0
5059,F#5,732.125,0.125,70,207.0
5060,G#5,732.25,0.5,95,207.0
5061,E3,732.25,0.25,95,207.0
5062,A3,732.5,0.25,95,207.0
5063,B4,732.75,0.125,95,207.0
5064,B3,732.75,0.5,95,207.0
5065,A4,732.875,0.125,70,207.0
5066,B4,733.0,0.5,95,207.0
5067,A3,733.25,0.25,95,207.0
5068,F#5,733.5,0.125,95,207.0
5069,A2,733.5,0.25,95,207.0
5070,E5,733.625,0.125,70,207.0
5071,F#5,733.75,0.25,95,207.0
5072,E4,733.75,0.25,95,207.0
5073,F#5,734.0,0.75,95,207.0
5074,A2,734.0,0.25,95,207.0
5075,B3,734.25,0.25,95,207.0
5076,C#4,734.5,0.25,95,207.0
5077,E-5,734.75,83/1000,95,207.0
5078,A3,734.75,0.5,95,207.0
5079,E5,734.833,83/1000,70,207.0
5080,F#5,734.917,83/1000,70,207.0
5081,G#5,735.0,0.062,95,207.0
5082,F#5,735.062,0.062,70,207.0
5083,E5,735.125,0.062,70,207.0
5084,E-5,735.188,0.062,70,207.0
5085,A5,735.25,0.062,95,207.0
5086,B2,735.25,0.25,95,207.0
5087,F#5,735.312,0.062,70,207.0
5088,E5,735.375,0.062,70,207.0
5089,E-5,735.438,0.062,70,207.0
5090,B5,735.5,0.062,95,207.0
5091,E4,735.5,0.25,95,207.0
5092,F#5,735.562,0.062,70,207.0
5093,E5,735.625,0.062,70,207.0
5094,E-5,735.688,0.062,70,207.0
5095,A5,735.75,0.062,95,207.0
5096,B3,735.75,0.25,95,207.0
5097,F#5,735.812,0.062,70,207.0
5098,E5,735.875,0.062,70,207.0
5099,C#5,735.938,0.062,70,207.0
5100,G#5,736.0,0.062,95,207.0
5101,E2,736.0,0.25,95,207.0
5102,C#5,736.062,0.062,70,207.0
5103,E-5,736.125,0.062,70,207.0
5104,E5,736.188,0.062,70,207.0
5105,E-5,736.25,0.062,95,207.0
5106,B2,736.25,0.25,95,207.0
5107,G#4,736.312,0.062,70,207.0
5108,A4,736.375,0.062,70,207.0
5109,B4,736.438,0.062,70,207.0
5110,B4,736.5,0.062,95,207.0
5111,E3,736.5,0.25,95,207.0
5112,E-4,736.562,0.062,70,207.0
5113,E4,736.625,0.062,70,207.0
5114,F#4,736.688,0.062,70,207.0
5115,F#4,736.75,0.062,95,207.0
5116,B3,736.75,1.0,95,207.0
5117,A3,736.812,0.062,70,207.0
5118,B3,736.875,0.062,70,207.0
5119,C#4,736.938,0.062,70,207.0
5120,C#4,737.0,0.062,95,207.0
5121,E3,737.062,0.062,70,207.0
5122,F#3,737.125,0.062,70,207.0
5123,G#3,737.188,0.062,70,207.0
5124,G#3,737.25,0.062,95,207.0
5125,B2,737.312,0.062,70,207.0
5126,C#3,737.375,0.062,70,207.0
5127,E-3,737.438,0.062,70,207.0
5128,C#4,737.5,0.062,95,207.0
5129,E3,737.562,0.062,70,207.0
5130,F#3,737.625,0.062,70,207.0
5131,G#3,737.688,0.062,70,207.0
5132,F#4,737.75,0.062,95,207.0
5133,E4,737.75,0.25,95,207.0
5134,A3,737.812,0.062,70,207.0
5135,B3,737.875,0.062,70,207.0
5136,C#4,737.938,0.062,70,207.0
5137,A4,738.0,1.0,95,207.0
5138,B3,738.0,0.75,95,207.0
5139,B3,738.75,0.25,95,207.0
5140,A4,739.0,0.25,95,207.0
5141,E3,739.0,1.0,95,207.0
5142,E5,739.25,0.25,95,207.0
5143,A4,739.5,0.25,95,207.0
5144,E-5,739.75,1.0,95,207.0
5145,B2,740.0,0.25,95,207.0
5146,F#3,740.25,0.25,95,207.0
5147,B3,740.5,0.25,95,207.0
5148,C#5,740.75,0.5,95,207.0
5149,B3,740.75,0.5,95,207.0
5150,B4,741.25,0.5,95,207.0
5151,B3,741.25,0.25,95,207.0
5152,B2,741.5,0.25,95,207.0
5153,F#4,741.75,0.25,95,207.0
5154,E4,741.75,0.5,95,207.0
5155,F#4,742.0,1.75,95,207.0
5156,B3,742.25,0.25,95,207.0
5157,B3,742.5,0.5,95,207.0
5158,E4,743.0,0.25,95,207.0
5159,B3,743.0,0.25,95,207.0
5160,F#3,743.0,0.25,95,207.0
5161,B2,743.0,0.25,95,207.0
5162,E4,743.25,0.75,95,207.0
5163,B3,743.25,0.75,95,207.0
5164,F#3,743.25,0.75,95,207.0
5165,B2,743.25,0.75,95,207.0
5166,E4,743.75,0.25,95,207.0
5167,E4,744.0,1.25,95,207.0
5168,E2,744.0,0.25,95,207.0
5169,B2,744.25,0.25,95,207.0
5170,E3,744.5,0.25,95,207.0
5171,B3,744.75,0.5,95,207.0
5172,E4,745.0,3.0,95,207.0
5173,F#4,745.25,0.25,95,207.0
5174,B3,745.25,0.25,95,207.0
5175,G#4,745.5,0.25,95,207.0
5176,E2,745.5,0.25,95,207.0
5177,B3,745.5,4.5,95,207.0
5178,F#3,745.5,4.5,95,207.0
5179,B2,745.5,4.5,95,207.0
5180,F#4,745.75,0.25,95,207.0
5181,E4,745.75,0.5,95,207.0
5182,F#4,746.0,1.0,95,207.0
5183,B3,746.25,0.25,95,207.0
5184,E3,746.5,0.25,95,207.0
5185,G#3,746.75,0.25,95,207.0
5186,B4,747.0,0.25,95,207.0
5187,B3,747.0,0.25,95,207.0
5188,F#5,747.25,0.25,95,207.0
5189,E-3,747.25,0.25,95,207.0
5190,B4,747.5,0.25,95,207.0
5191,F#3,747.5,0.25,95,207.0
5192,F#5,747.75,0.75,95,207.0
5193,B3,747.75,0.25,95,207.0
5194,F#4,748.0,1.0,95,207.0
5195,C#3,748.0,0.25,95,207.0
5196,G#3,748.25,0.25,95,207.0
5197,E5,748.5,0.75,95,207.0
5198,C#4,748.5,0.25,95,207.0
5199,B3,748.75,0.5,95,207.0
5200,F#4,749.0,2.5,95,207.0
5201,E-5,749.25,0.75,95,207.0
5202,C#4,749.25,0.5,95,207.0
5203,E4,749.75,0.5,95,207.0
5204,E5,750.0,0.75,95,207.0
5205,B3,750.25,0.25,95,207.0
5206,C#4,750.5,0.25,95,207.0
5207,B5,750.75,1.0,95,207.0
5208,G#3,750.75,0.25,95,207.0
5209,E2,751.0,0.25,95,207.0
5210,B3,751.25,0.25,95,207.0
5211,E-4,751.5,1.5,95,207.0
5212,C#4,751.5,0.25,95,207.0
5213,A5,751.75,0.25,95,207.0
5214,B3,751.75,0.25,95,207.0
5215,G#5,752.0,0.5,95,207.0
5216,F#2,752.0,0.25,95,207.0
5217,C#3,752.25,0.25,95,207.0
5218,G#5,752.5,0.125,95,207.0
5219,F#3,752.5,0.25,95,207.0
5220,A5,752.625,0.125,70,207.0
5221,B5,752.75,83/1000,70,207.0
5222,B3,752.75,0.5,95,207.0
5223,A5,752.833,83/1000,70,207.0
5224,G#5,752.917,83/1000,70,207.0
5225,F#5,753.0,83/1000,95,207.0
5226,E4,753.0,2.0,95,207.0
5227,E5,753.083,83/1000,70,207.0
5228,E-5,753.167,83/1000,70,207.0
5229,C#5,753.25,83/1000,95,207.0
5230,B-3,753.25,0.25,95,207.0
5231,B4,753.333,83/1000,70,207.0
5232,A4,753.417,21/500,70,207.0
5233,G#4,753.417,21/500,70,207.0
5234,F#4,753.5,0.25,95,207.0
5235,E3,753.5,0.25,95,207.0
5236,E-4,753.75,0.125,70,207.0
5237,E4,753.75,0.5,95,207.0
5238,C#4,753.875,0.125,95,207.0
5239,C#5,754.0,1.0,95,207.0
5240,B3,754.25,0.25,95,207.0
5241,B-3,754.5,0.25,95,207.0
5242,F#3,754.75,0.5,95,207.0
5243,F#4,755.0,1.0,95,207.0
5244,G#4,755.25,0.25,95,207.0
5245,G#2,755.25,0.25,95,207.0
5246,B4,755.5,167/1000,95,207.0
5247,E3,755.5,0.25,95,207.0
5248,C#5,755.667,167/1000,95,207.0
5249,B3,755.75,0.25,95,207.0
5250,E5,755.833,167/1000,95,207.0
5251,F#5,756.0,0.75,95,207.0
5252,G#4,756.0,1.0,95,207.0
5253,A2,756.0,0.25,95,207.0
5254,E3,756.25,0.25,95,207.0
5255,B5,756.5,0.25,95,207.0
5256,A3,756.5,0.25,95,207.0
5257,F#5,756.75,0.75,95,207.0
5258,E4,756.75,0.25,95,207.0
5259,E-4,757.0,2.5,95,207.0
5260,B3,757.0,0.25,95,207.0
5261,A3,757.25,0.25,95,207.0
5262,E5,757.5,0.25,95,207.0
5263,A2,757.5,0.25,95,207.0
5264,F#5,757.75,0.25,95,207.0
5265,E3,757.75,0.25,95,207.0
5266,F#5,758.0,1.0,95,207.0
5267,A2,758.0,0.25,95,207.0
5268,E3,758.25,0.25,95,207.0
5269,A3,758.5,0.25,95,207.0
5270,E4,758.75,0.25,95,207.0
5271,B-4,759.0,0.25,95,207.0
5272,C#3,759.0,0.25,95,207.0
5273,B-4,759.25,0.5,95,207.0
5274,E3,759.25,0.25,95,207.0
5275,G#3,759.5,0.375,127,207.0
5276,A3,759.5,0.25,95,207.0
5277,F#4,759.75,0.25,95,207.0
5278,B3,759.75,0.25,95,207.0
5279,B-4,760.0,0.25,95,207.0
5280,B2,760.0,0.25,95,207.0
5281,B4,760.25,0.25,95,207.0
5282,B3,760.25,0.375,127,207.0
5283,F#3,760.25,0.25,95,207.0
5284,C#5,760.5,0.25,95,207.0
5285,B3,760.5,0.25,95,207.0
5286,B3,760.5,4.5,95,207.0
5287,F#3,760.5,4.5,95,207.0
5288,B2,760.5,4.5,95,207.0
5289,B-5,760.75,0.25,95,207.0
5290,E4,760.75,0.25,95,207.0
5291,C#5,761.0,1.0,95,207.0
5292,G#4,761.0,0.75,95,207.0
5293,B3,761.0,0.25,95,207.0
5294,E-4,761.25,0.5,95,207.0
5295,E5,761.75,0.25,95,207.0
5296,F#3,761.75,0.25,95,207.0
5297,A4,762.0,0.125,95,207.0
5298,E5,762.0,1.75,95,207.0
5299,B2,762.0,0.25,95,207.0
5300,B3,762.125,0.125,70,207.0
5301,G#4,762.25,0.125,95,207.0
5302,F#3,762.25,0.25,95,207.0
5303,A4,762.375,0.125,70,207.0
5304,B4,762.5,0.125,95,207.0
5305,B3,762.5,0.25,95,207.0
5306,B3,762.625,0.125,70,207.0
5307,A4,762.75,0.125,95,207.0
5308,E4,762.75,0.25,95,207.0
5309,B4,762.875,0.125,70,207.0
5310,C#5,763.0,0.125,95,207.0
5311,B3,763.0,0.25,95,207.0
5312,B3,763.125,0.125,70,207.0
5313,B4,763.25,0.125,95,207.0
5314,E-4,763.25,0.5,95,207.0
5315,C#5,763.375,0.125,70,207.0
5316,E-5,763.5,0.125,95,207.0
5317,B3,763.625,0.125,70,207.0
5318,C#5,763.75,0.125,95,207.0
5319,B4,763.75,0.25,95,207.0
5320,F#3,763.75,0.25,95,207.0
5321,E-5,763.875,0.125,70,207.0
5322,E5,764.0,0.125,95,207.0
5323,B4,764.0,0.75,95,207.0
5324,B2,764.0,4.0,95,207.0
5325,F#3,764.062,3.938,95,207.0
5326,B3,764.125,0.125,70,207.0
5327,B3,764.125,3.875,95,207.0
5328,E-4,764.188,3.812,95,207.0
5329,E-5,764.25,0.125,95,207.0
5330,B3,764.25,3.75,95,207.0
5331,E4,764.312,3.688,95,207.0
5332,E5,764.375,0.125,70,207.0
5333,F#5,764.5,0.125,95,207.0
5334,B3,764.625,0.125,70,207.0
5335,E5,764.75,0.125,95,207.0
5336,G#5,764.75,0.25,95,207.0
5337,F#5,764.875,0.125,70,207.0
5338,G#5,765.0,0.125,95,207.0
5339,G#5,765.0,2.5,95,207.0
5340,B3,765.125,0.125,70,207.0
5341,F#5,765.25,0.125,95,207.0
5342,G#5,765.375,0.125,70,207.0
5343,A5,765.5,0.125,95,207.0
5344,B3,765.625,0.125,70,207.0
5345,G#5,765.75,0.125,95,207.0
5346,A5,765.875,0.125,70,207.0
5347,B5,766.0,1.75,95,207.0
5348,B5,767.5,1.0,95,207.0
5349,B4,767.75,0.25,95,207.0
5350,B4,768.0,1.75,95,207.0
5351,A5,768.5,0.25,95,207.0
5352,G#5,768.75,0.25,95,207.0
5353,A5,769.0,1.75,95,207.0
5354,B3,769.75,0.25,95,207.0
5355,B3,770.0,4.0,95,207.0
5356,G#5,770.75,0.75,95,207.0
5357,B3,771.0,6.0,95,207.0
5358,F#3,771.0,6.0,95,207.0
5359,B2,771.0,6.0,95,207.0
5360,F#5,771.5,0.75,95,207.0
5361,E5,772.25,0.75,95,207.0
5362,F#5,773.0,1.75,95,207.0
5363,E3,774.0,0.5,95,207.0
5364,B3,774.5,0.5,95,207.0
5365,E-5,774.75,0.75,95,207.0
5366,E4,775.0,0.5,95,207.0
5367,F#4,775.5,0.5,95,207.0
5368,C#5,775.5,0.75,95,207.0
5369,E4,776.0,0.5,95,207.0
5370,B4,776.25,0.75,95,207.0
5371,B3,776.5,0.5,95,207.0
5372,A4,777.0,0.5,95,207.0
5373,E5,777.0,3.5,95,207.0
5374,C#5,777.0,3.5,95,207.0
5375,E3,777.0,4.5,95,207.0
5376,B2,777.0,4.5,95,207.0
5377,E2,777.0,4.5,95,207.0
5378,F#4,777.5,0.5,95,207.0
5379,G#4,778.0,0.5,95,207.0
5380,F#4,778.5,0.5,95,207.0
5381,E4,779.0,0.5,95,207.0
5382,B3,779.5,0.5,95,207.0
5383,E3,780.0,0.5,95,207.0
5384,B3,780.5,0.5,95,207.0
5385,E4,781.0,0.5,95,207.0
5386,F#4,781.5,0.5,95,207.0
5387,E4,782.0,0.5,95,207.0
5388,B3,782.5,0.5,95,207.0
5389,D4,783.0,0.5,95,207.0
5390,C#4,783.5,0.5,95,207.0
5391,B3,784.0,0.5,95,207.0
5392,A3,784.5,0.5,95,207.0
5393,B3,785.0,0.5,95,207.0
5394,C#4,785.5,0.5,95,207.0
5395,E3,786.0,0.5,95,207.0
5396,B3,786.5,0.5,95,207.0
5397,E4,787.0,0.5,95,207.0
5398,F#4,787.5,0.5,95,207.0
5399,E4,788.0,0.5,95,207.0
5400,B3,788.5,0.5,95,207.0
5401,A4,789.0,0.5,95,207.0
5402,F#4,789.5,0.5,95,207.0
5403,G#4,790.0,0.5,95,207.0
5404,F#4,790.5,0.5,95,207.0
5405,E4,791.0,0.5,95,207.0
5406,B3,791.5,0.5,95,207.0
5407,E3,792.0,0.5,95,207.0
5408,B3,792.5,0.5,95,207.0
5409,E4,793.0,0.5,95,207.0
5410,F#4,793.5,0.5,95,207.0
5411,E4,794.0,0.5,95,207.0
5412,B3,794.5,0.5,95,207.0
5413,D4,795.0,0.5,95,207.0
5414,C#4,795.5,0.5,95,207.0
5415,B3,796.0,0.5,95,207.0
5416,A3,796.5,0.5,95,207.0
5417,B3,797.0,0.5,95,207.0
5418,C#4,797.5,0.5,95,207.0
5419,E3,798.0,0.5,95,207.0
5420,B3,798.5,0.5,95,207.0
5421,E4,799.0,0.5,95,207.0
5422,F#4,799.5,0.5,95,207.0
5423,E4,800.0,0.5,95,207.0
5424,B3,800.5,0.5,95,207.0
5425,A4,801.0,0.5,95,207.0
5426,E3,801.0,4.5,95,207.0
5427,B2,801.0,4.5,95,207.0
5428,E2,801.0,4.5,95,207.0
5429,F#4,801.5,0.5,95,207.0
5430,G#4,802.0,0.5,95,207.0
5431,F#4,802.5,0.5,95,207.0
5432,E4,803.0,0.5,95,207.0
5433,B3,803.5,0.5,95,207.0
5434,E3,804.0,0.5,95,207.0
5435,B3,804.5,0.5,95,207.0
5436,E4,805.0,0.5,95,207.0
5437,F#4,805.5,0.5,95,207.0
5438,E4,806.0,0.5,95,207.0
5439,B3,806.5,0.5,95,207.0
5440,D4,807.0,0.5,95,207.0
5441,C#4,807.5,0.5,95,207.0
5442,B3,808.0,0.5,95,207.0
5443,A3,808.5,0.5,95,207.0
5444,B3,809.0,0.5,95,207.0
5445,C#4,809.5,0.5,95,207.0
5446,E3,810.0,0.5,95,207.0
5447,B3,810.5,0.5,95,207.0
5448,E4,811.0,0.5,95,207.0
5449,F#4,811.5,0.5,95,207.0
5450,E4,812.0,0.5,95,207.0
5451,B3,812.5,0.5,95,207.0
5452,A4,813.0,0.5,95,207.0
5453,F#4,813.5,0.5,95,207.0
5454,G#4,814.0,0.5,95,207.0
5455,F#4,814.5,0.5,95,207.0
5456,E4,815.0,0.5,95,207.0
5457,B3,815.5,0.5,95,207.0
5458,E3,816.0,0.5,95,207.0
5459,B3,816.5,0.5,95,207.0
5460,E4,817.0,0.5,95,207.0
5461,F#4,817.5,0.5,95,207.0
5462,E4,818.0,0.5,95,207.0
5463,B3,818.5,0.5,95,207.0
5464,D4,819.0,0.5,95,207.0
5465,C#4,819.5,0.5,95,207.0
5466,B3,820.0,0.5,95,207.0
5467,A3,820.5,0.5,95,207.0
5468,E3,820.5,4.5,95,207.0
5469,B2,820.5,4.5,95,207.0
5470,E2,820.5,4.5,95,207.0
5471,B3,821.0,0.5,95,207.0
5472,C#4,821.5,0.5,95,207.0
5473,E2,822.0,1.0,95,207.0
5474,E3,823.0,1.0,95,207.0
5475,E2,824.0,0.5,95,207.0
5476,E2,824.5,0.5,95,207.0
5477,D3,825.0,0.5,95,207.0
5478,A2,825.5,0.5,95,207.0
5479,C#3,826.0,0.5,95,207.0
5480,A2,826.5,0.5,95,207.0
5481,B2,827.0,0.5,95,207.0
5482,A2,827.5,0.5,95,207.0
5483,E2,828.0,1.0,95,207.0
5484,E3,829.0,1.5,95,207.0
5485,E2,830.5,0.5,95,207.0
5486,D3,831.0,0.5,95,207.0
5487,C#3,831.5,0.5,70,207.0
5488,B2,832.0,0.5,95,207.0
5489,G#2,832.5,0.5,95,207.0
5490,A2,833.0,0.5,95,207.0
5491,B2,833.5,0.5,95,207.0
5492,E2,834.0,1.0,95,207.0
5493,E3,835.0,1.0,95,207.0
5494,E3,835.5,4.5,95,207.0
5495,B2,835.5,4.5,95,207.0
5496,E2,835.5,4.5,95,207.0
5497,E2,836.0,0.5,95,207.0
5498,E2,836.5,0.5,95,207.0
5499,D3,837.0,0.5,95,207.0
5500,A2,837.5,0.5,95,207.0
5501,C#3,838.0,0.5,95,207.0
5502,A2,838.5,0.5,95,207.0
5503,B2,839.0,0.5,95,207.0
5504,A2,839.5,0.5,95,207.0
5505,E2,840.0,1.0,95,207.0
5506,E3,841.0,1.0,95,207.0
5507,F#3,842.0,0.5,95,207.0
5508,G#3,842.5,0.5,95,207.0
5509,A3,843.0,0.5,95,207.0
5510,G#3,843.5,0.5,95,207.0
5511,F#3,844.0,0.5,95,207.0
5512,D3,844.5,0.5,95,207.0
5513,E3,845.0,0.5,95,207.0
5514,F#3,845.5,0.5,95,207.0
5515,E2,846.0,1.0,95,207.0
5516,E3,846.0,6.0,95,207.0
5517,B2,846.0,6.0,95,207.0
5518,E2,846.0,6.0,95,207.0
5519,E3,847.0,1.0,95,207.0
5520,E2,848.0,0.5,95,207.0
5521,E2,848.5,0.5,95,207.0
5522,D3,849.0,0.5,95,207.0
5523,A2,849.5,0.5,95,207.0
5524,C#3,850.0,0.5,95,207.0
5525,A2,850.5,0.5,95,207.0
5526,B2,851.0,0.5,95,207.0
5527,A2,851.5,0.5,95,207.0
5528,E2,852.0,1.0,95,207.0
5529,E3,853.0,1.5,95,207.0
5530,E2,854.5,0.5,95,207.0
5531,D3,855.0,0.5,95,207.0
5532,C#3,855.5,0.5,70,207.0
5533,B2,856.0,0.5,95,207.0
5534,G#2,856.5,0.5,95,207.0
5535,A2,857.0,0.5,95,207.0
5536,B2,857.5,0.5,95,207.0
5537,E2,858.0,1.0,95,207.0
5538,E3,859.0,1.0,95,207.0
5539,E2,860.0,0.5,95,207.0
5540,E2,860.5,0.5,95,207.0
5541,D3,861.0,0.5,95,207.0
5542,A2,861.5,0.5,95,207.0
5543,C#3,862.0,0.5,95,207.0
5544,A2,862.5,0.5,95,207.0
5545,B2,863.0,0.5,95,207.0
5546,A2,863.5,0.5,95,207.0
5547,E2,864.0,1.0,95,207.0
5548,E3,865.0,1.0,95,207.0
5549,F#3,866.0,0.5,95,207.0
5550,G#3,866.5,0.5,95,207.0
5551,A3,867.0,0.5,95,207.0
5552,G#3,867.5,0.5,95,207.0
5553,F#3,868.0,0.5,95,207.0
5554,D3,868.5,0.5,95,207.0
5555,E3,869.0,0.5,95,207.0
5556,E4,869.0,0.5,95,207.0
5557,F#3,869.5,0.5,95,207.0
5558,B4,869.5,0.5,95,207.0
5559,E3,870.0,1.0,95,207.0
5560,E5,870.0,0.5,95,207.0
5561,F#5,870.5,0.5,95,207.0
5562,E4,871.0,3.5,95,207.0
5563,E5,871.0,0.5,95,207.0
5564,B4,871.5,0.5,95,207.0
5565,A5,872.0,0.5,95,207.0
5566,F#5,872.5,0.5,95,207.0
5567,G#5,873.0,0.5,95,207.0
5568,F#5,873.5,0.5,95,207.0
5569,E5,874.0,0.5,95,207.0
5570,D4,874.5,0.5,95,207.0
5571,B4,874.5,0.5,95,207.0
5572,E4,875.0,0.5,95,207.0
5573,E4,875.0,0.5,95,207.0
5574,F#4,875.5,0.5,95,207.0
5575,B4,875.5,0.5,95,207.0
5576,D4,876.0,0.5,95,207.0
5577,E5,876.0,0.5,95,207.0
5578,F#5,876.5,0.5,95,207.0
5579,D4,877.0,2.75,95,207.0
5580,E5,877.0,0.5,95,207.0
5581,B4,877.5,0.5,95,207.0
5582,D5,878.0,0.5,95,207.0
5583,C#5,878.5,0.5,95,207.0
5584,B4,879.0,0.5,95,207.0
5585,A4,879.5,0.5,95,207.0
5586,C#4,879.75,0.25,95,207.0
5587,B3,880.0,0.25,95,207.0
5588,B4,880.0,0.5,95,207.0
5589,A3,880.25,0.25,70,207.0
5590,G#3,880.5,0.25,70,207.0
5591,C#5,880.5,0.5,95,207.0
5592,A3,880.75,0.25,70,207.0
5593,B3,881.0,0.5,70,207.0
5594,E4,881.0,0.5,95,207.0
5595,C#4,881.5,0.5,95,207.0
5596,B4,881.5,0.5,95,207.0
5597,B3,882.0,0.5,95,207.0
5598,E5,882.0,0.5,95,207.0
5599,F#5,882.5,0.5,95,207.0
5600,B3,883.0,3.0,95,207.0
5601,E5,883.0,0.5,95,207.0
5602,B4,883.5,0.5,95,207.0
5603,A5,884.0,0.5,95,207.0
5604,C#4,884.0,3.0,95,207.0
5605,G#3,884.0,3.0,95,207.0
5606,C#3,884.0,3.0,95,207.0
5607,F#5,884.5,0.5,95,207.0
5608,G#5,885.0,0.5,95,207.0
5609,F#5,885.5,0.5,95,207.0
5610,A3,886.0,0.25,95,207.0
5611,E5,886.0,0.5,95,207.0
5612,G#3,886.25,0.25,70,207.0
5613,F#3,886.5,0.25,95,207.0
5614,B4,886.5,0.5,95,207.0
5615,D3,886.75,0.25,70,207.0
5616,E3,887.0,0.25,70,207.0
5617,E4,887.0,0.5,95,207.0
5618,A3,887.0,1.0,95,207.0
5619,E3,887.0,1.0,95,207.0
5620,A2,887.0,1.0,95,207.0
5621,F#3,887.25,0.25,70,207.0
5622,E3,887.5,0.25,70,207.0
5623,B4,887.5,0.5,95,207.0
5624,D3,887.75,0.25,70,207.0
5625,E3,888.0,0.5,95,207.0
5626,E5,888.0,0.5,95,207.0
5627,B3,888.0,2.5,95,207.0
5628,F#3,888.0,2.5,95,207.0
5629,B2,888.0,2.5,95,207.0
5630,F#5,888.5,0.5,95,207.0
5631,E3,889.0,3.0,95,207.0
5632,E5,889.0,0.5,95,207.0
5633,B4,889.5,0.5,95,207.0
5634,D5,890.0,0.5,95,207.0
5635,C#5,890.5,0.5,95,207.0
5636,E2,890.5,1.0,95,207.0
5637,B4,891.0,0.5,95,207.0
5638,A4,891.5,0.5,95,207.0
5639,E2,891.5,0.25,95,207.0
5640,E2,891.75,0.25,95,207.0
5641,E3,892.0,1.0,95,207.0
5642,B4,892.0,0.5,95,207.0
5643,A3,892.0,3.0,95,207.0
5644,E3,892.0,3.0,95,207.0
5645,A2,892.0,3.0,95,207.0
5646,C#5,892.5,0.5,95,207.0
5647,D4,893.0,1.0,95,207.0
5648,E2,893.0,1.0,95,207.0
5649,E3,894.0,1.0,95,207.0
5650,E3,894.0,1.0,95,207.0
5651,E4,895.0,2.5,95,207.0
5652,E2,895.0,0.5,95,207.0
5653,C#4,895.0,1.0,95,207.0
5654,G#3,895.0,1.0,95,207.0
5655,C#3,895.0,1.0,95,207.0
5656,E2,895.5,0.5,95,207.0
5657,D3,896.0,0.5,95,207.0
5658,G#3,896.0,2.5,95,207.0
5659,E-3,896.0,2.5,95,207.0
5660,G#2,896.0,2.5,95,207.0
5661,A2,896.5,0.5,95,207.0
5662,C#3,897.0,0.5,95,207.0
5663,A2,897.5,0.5,95,207.0
5664,B2,898.0,0.5,95,207.0
5665,E4,898.5,0.5,95,207.0
5666,A2,898.5,0.5,95,207.0
5667,E3,898.5,0.75,95,207.0
5668,F#4,899.0,0.5,95,207.0
5669,E2,899.0,1.0,95,207.0
5670,E-3,899.25,0.75,95,207.0
5671,G#4,899.5,0.5,95,207.0
5672,A4,900.0,0.5,95,207.0
5673,E3,900.0,1.5,95,207.0
5674,C#4,900.0,3.0,95,207.0
5675,G#3,900.0,3.0,95,207.0
5676,C#3,900.0,3.0,95,207.0
5677,G#4,900.5,0.5,70,207.0
5678,F#4,901.0,0.5,95,207.0
5679,E4,901.5,0.5,95,207.0
5680,E2,901.5,0.5,95,207.0
5681,B4,902.0,0.5,95,207.0
5682,D3,902.0,0.5,95,207.0
5683,G#4,902.5,0.5,95,207.0
5684,C#3,902.5,0.5,70,207.0
5685,A4,903.0,0.25,95,207.0
5686,B2,903.0,0.5,95,207.0
5687,B3,903.0,1.0,95,207.0
5688,E-3,903.0,1.0,95,207.0
5689,G#4,903.25,0.25,70,207.0
5690,A4,903.5,0.25,70,207.0
5691,G#2,903.5,0.5,95,207.0
5692,G#4,903.75,0.25,70,207.0
5693,F#4,904.0,0.5,95,207.0
5694,A2,904.0,0.5,95,207.0
5695,E4,904.0,3.0,95,207.0
5696,B3,904.0,3.0,95,207.0
5697,E3,904.0,3.0,95,207.0
5698,E2,904.0,3.0,95,207.0
5699,E4,904.5,0.5,95,207.0
5700,B2,904.5,0.5,95,207.0
5701,C#4,905.0,0.5,95,207.0
5702,E2,905.0,1.0,95,207.0
5703,A3,905.5,0.5,95,207.0
5704,B3,906.0,1.25,95,207.0
5705,E3,906.0,1.0,95,207.0
5706,E2,907.0,0.5,95,207.0
5707,G#2,907.0,1.0,95,207.0
5708,C#4,907.25,0.25,95,207.0
5709,B3,907.5,0.25,70,207.0
5710,E2,907.5,0.5,95,207.0
5711,C#4,907.75,0.25,70,207.0
5712,B3,908.0,0.25,70,207.0
5713,D3,908.0,0.5,95,207.0
5714,A3,908.0,3.0,95,207.0
5715,E3,908.0,3.0,95,207.0
5716,A2,908.0,3.0,95,207.0
5717,C#4,908.25,0.25,70,207.0
5718,B3,908.5,0.25,70,207.0
5719,A2,908.5,0.5,95,207.0
5720,C#4,908.75,0.25,70,207.0
5721,B3,909.0,1.0,70,207.0
5722,C#3,909.0,0.5,95,207.0
5723,A2,909.5,0.5,95,207.0
5724,F#3,910.0,0.5,95,207.0
5725,B2,910.0,0.5,95,207.0
5726,A3,910.5,0.5,95,207.0
5727,A2,910.5,0.5,95,207.0
5728,B3,911.0,0.5,95,207.0
5729,E2,911.0,1.0,95,207.0
5730,C#3,911.0,1.0,95,207.0
5731,C#4,911.5,0.5,95,207.0
5732,D4,912.0,0.25,95,207.0
5733,E3,912.0,1.0,95,207.0
5734,B3,912.0,2.5,95,207.0
5735,F#3,912.0,2.5,95,207.0
5736,B2,912.0,2.5,95,207.0
5737,C#4,912.25,0.25,70,207.0
5738,D4,912.5,0.25,70,207.0
5739,C#4,912.75,0.25,70,207.0
5740,B3,913.0,0.5,95,207.0
5741,F#3,913.0,0.5,95,207.0
5742,A3,913.5,0.5,95,207.0
5743,G#3,913.5,0.5,95,207.0
5744,C#4,914.0,0.5,95,207.0
5745,A3,914.0,0.5,95,207.0
5746,B3,914.5,0.5,70,207.0
5747,G#3,914.5,0.5,95,207.0
5748,F#2,914.5,0.75,95,207.0
5749,A3,915.0,0.5,95,207.0
5750,F#3,915.0,0.5,95,207.0
5751,G#2,915.25,0.75,95,207.0
5752,G#3,915.5,0.5,95,207.0
5753,D3,915.5,0.5,95,207.0
5754,F#3,916.0,0.5,95,207.0
5755,E3,916.0,0.5,95,207.0
5756,C#4,916.0,3.0,95,207.0
5757,G#3,916.0,3.0,95,207.0
5758,C#3,916.0,3.0,95,207.0
5759,G#3,916.5,0.5,95,207.0
5760,F#3,916.5,0.5,95,207.0
5761,E3,917.0,0.5,95,207.0
5762,E2,917.0,1.0,95,207.0
5763,D3,917.5,0.5,95,207.0
5764,E3,918.0,2.0,95,207.0
5765,E3,918.0,1.0,95,207.0
5766,E2,919.0,0.5,95,207.0
5767,A3,919.0,1.0,95,207.0
5768,E3,919.0,1.0,95,207.0
5769,A2,919.0,1.0,95,207.0
5770,E2,919.5,0.5,95,207.0
5771,D3,920.0,0.5,95,207.0
5772,B3,920.0,2.5,95,207.0
5773,F#3,920.0,2.5,95,207.0
5774,B2,920.0,2.5,95,207.0
5775,G#3,920.5,0.5,95,207.0
5776,A2,920.5,0.5,95,207.0
5777,B3,921.0,0.5,95,207.0
5778,C#3,921.0,0.5,95,207.0
5779,A4,921.5,0.5,95,207.0
5780,A2,921.5,0.5,95,207.0
5781,B3,922.0,0.5,95,207.0
5782,B2,922.0,0.5,95,207.0
5783,G#4,922.5,0.5,95,207.0
5784,A2,922.5,0.5,95,207.0
5785,E2,922.5,1.0,95,207.0
5786,B3,923.0,0.5,95,207.0
5787,E2,923.0,1.0,95,207.0
5788,F#4,923.5,0.5,95,207.0
5789,F#2,923.5,0.25,95,207.0
5790,G#2,923.75,0.25,95,207.0
5791,E4,924.0,0.125,95,207.0
5792,E3,924.0,1.5,95,207.0
5793,A3,924.0,3.0,95,207.0
5794,E3,924.0,3.0,95,207.0
5795,A2,924.0,3.0,95,207.0
5796,F4,924.125,0.125,70,207.0
5797,E4,924.25,0.25,70,207.0
5798,D4,924.5,0.5,70,207.0
5799,C#4,925.0,0.5,70,207.0
5800,E4,925.5,0.5,95,207.0
5801,E2,925.5,0.5,95,207.0
5802,D4,926.0,0.5,95,207.0
5803,D3,926.0,0.5,95,207.0
5804,C#4,926.5,0.5,95,207.0
5805,C#3,926.5,0.5,70,207.0
5806,B3,927.0,0.5,95,207.0
5807,B2,927.0,0.5,95,207.0
5808,C#4,927.0,1.0,95,207.0
5809,G#3,927.0,1.0,95,207.0
5810,C#3,927.0,1.0,95,207.0
5811,C#5,927.5,0.5,95,207.0
5812,G#2,927.5,0.5,95,207.0
5813,A4,928.0,0.5,95,207.0
5814,A2,928.0,0.5,95,207.0
5815,G#3,928.0,2.5,95,207.0
5816,E-3,928.0,2.5,95,207.0
5817,G#2,928.0,2.5,95,207.0
5818,B4,928.5,0.5,95,207.0
5819,B2,928.5,0.5,95,207.0
5820,A4,929.0,0.5,70,207.0
5821,E2,929.0,1.0,95,207.0
5822,G#4,929.5,0.5,70,207.0
5823,F#4,930.0,0.5,95,207.0
5824,E3,930.0,1.0,95,207.0
5825,G#4,930.5,0.5,95,207.0
5826,E3,930.5,0.75,95,207.0
5827,A4,931.0,0.5,95,207.0
5828,E2,931.0,0.5,95,207.0
5829,E-3,931.25,0.75,95,207.0
5830,D5,931.5,0.5,95,207.0
5831,E2,931.5,0.5,95,207.0
5832,E5,932.0,0.5,95,207.0
5833,D3,932.0,0.5,95,207.0
5834,C#4,932.0,3.0,95,207.0
5835,G#3,932.0,3.0,95,207.0
5836,C#3,932.0,3.0,95,207.0
5837,F#5,932.5,0.5,95,207.0
5838,A2,932.5,0.5,95,207.0
5839,A4,933.0,0.5,95,207.0
5840,C#3,933.0,0.5,95,207.0
5841,B3,933.5,0.5,70,207.0
5842,A2,933.5,0.5,95,207.0
5843,G#4,934.0,0.5,95,207.0
5844,B2,934.0,0.5,95,207.0
5845,B3,934.5,0.5,70,207.0
5846,A2,934.5,0.5,95,207.0
5847,F#4,935.0,0.5,95,207.0
5848,E2,935.0,1.0,95,207.0
5849,B3,935.0,1.0,95,207.0
5850,E-3,935.0,1.0,95,207.0
5851,B3,935.5,0.5,70,207.0
5852,D4,936.0,0.5,95,207.0
5853,E3,936.0,1.0,95,207.0
5854,E4,936.0,3.0,95,207.0
5855,B3,936.0,3.0,95,207.0
5856,E3,936.0,3.0,95,207.0
5857,E2,936.0,3.0,95,207.0
5858,E4,936.5,0.5,95,207.0
5859,F#4,937.0,0.5,95,207.0
5860,F#3,937.0,0.5,95,207.0
5861,B4,937.5,0.5,95,207.0
5862,G#3,937.5,0.5,95,207.0
5863,C#5,938.0,0.5,95,207.0
5864,A3,938.0,0.5,95,207.0
5865,D5,938.5,0.5,95,207.0
5866,G#3,938.5,0.5,95,207.0
5867,A4,939.0,0.5,95,207.0
5868,F#3,939.0,0.5,95,207.0
5869,G#2,939.0,1.0,95,207.0
5870,B3,939.5,0.5,70,207.0
5871,D3,939.5,0.5,95,207.0
5872,F#4,940.0,0.5,95,207.0
5873,E3,940.0,0.5,95,207.0
5874,A3,940.0,3.0,95,207.0
5875,E3,940.0,3.0,95,207.0
5876,A2,940.0,3.0,95,207.0
5877,G#4,940.5,167/1000,95,207.0
5878,F#3,940.5,0.5,95,207.0
5879,F#4,940.667,167/1000,70,207.0
5880,B3,940.833,167/1000,70,207.0
5881,E4,941.0,0.25,95,207.0
5882,E2,941.0,1.0,95,207.0
5883,F#4,941.25,0.25,70,207.0
5884,E4,941.5,0.25,70,207.0
5885,B3,941.75,0.25,70,207.0
5886,E4,942.0,3.5,95,207.0
5887,E3,942.0,1.0,95,207.0
5888,E2,943.0,0.5,95,207.0
5889,C#3,943.0,1.0,95,207.0
5890,E2,943.5,0.5,95,207.0
5891,D3,944.0,0.5,95,207.0
5892,B3,944.0,2.5,95,207.0
5893,F#3,944.0,2.5,95,207.0
5894,B2,944.0,2.5,95,207.0
5895,A2,944.5,0.5,95,207.0
5896,C#3,945.0,0.5,95,207.0
5897,E5,945.5,0.5,95,207.0
5898,A2,945.5,0.5,95,207.0
5899,C#5,946.0,0.5,95,207.0
5900,B2,946.0,0.5,95,207.0
5901,D5,946.5,0.5,95,207.0
5902,A2,946.5,0.5,95,207.0
5903,F#2,946.5,0.75,95,207.0
5904,C#5,947.0,0.5,70,207.0
5905,E2,947.0,1.0,95,207.0
5906,G#2,947.25,0.75,95,207.0
5907,B4,947.5,0.5,95,207.0
5908,A4,948.0,0.5,95,207.0
5909,E3,948.0,1.5,95,207.0
5910,A4,948.0,3.25,95,207.0
5911,E4,948.0,3.25,95,207.0
5912,A3,948.0,3.25,95,207.0
5913,E3,948.0,3.25,95,207.0
5914,A2,948.0,3.25,95,207.0
5915,G#4,948.5,0.5,95,207.0
5916,F#4,949.0,0.5,95,207.0
5917,G#4,949.5,0.5,95,207.0
5918,E2,949.5,0.5,95,207.0
5919,F#4,950.0,0.5,70,207.0
5920,D3,950.0,0.5,95,207.0
5921,E4,950.5,0.5,70,207.0
5922,C#3,950.5,0.5,70,207.0
5923,C#4,951.0,0.5,95,207.0
5924,B2,951.0,0.5,95,207.0
5925,B3,951.25,0.75,95,207.0
5926,F#3,951.25,0.75,95,207.0
5927,B2,951.25,0.75,95,207.0
5928,E4,951.5,0.5,95,207.0
5929,G#2,951.5,0.5,95,207.0
5930,C#4,952.0,0.5,95,207.0
5931,A2,952.0,0.5,95,207.0
5932,E3,952.0,3.0,95,207.0
5933,B2,952.0,3.0,95,207.0
5934,E2,952.0,3.0,95,207.0
5935,C#4,952.375,0.125,95,207.0
5936,B3,952.5,0.5,95,207.0
5937,B2,952.5,0.5,95,207.0
5938,E3,953.0,0.5,95,207.0
5939,E2,953.0,1.0,95,207.0
5940,F#3,953.5,0.5,95,207.0
5941,A3,954.0,0.5,95,207.0
5942,E3,954.0,1.0,95,207.0
5943,G#3,954.5,0.5,95,207.0
5944,A3,955.0,0.5,70,207.0
5945,E2,955.0,0.5,95,207.0
5946,B3,955.0,1.0,95,207.0
5947,E3,955.0,1.0,95,207.0
5948,B2,955.0,1.0,95,207.0
5949,C#4,955.5,0.5,95,207.0
5950,E2,955.5,0.5,95,207.0
5951,E4,956.0,0.5,95,207.0
5952,D3,956.0,0.5,95,207.0
5953,B3,956.0,3.0,95,207.0
5954,F#3,956.0,3.0,95,207.0
5955,B2,956.0,3.0,95,207.0
5956,C#4,956.5,0.5,95,207.0
5957,A2,956.5,0.5,95,207.0
5958,D4,957.0,0.5,95,207.0
5959,C#3,957.0,0.5,95,207.0
5960,C#4,957.5,0.5,70,207.0
5961,A2,957.5,0.5,95,207.0
5962,B3,958.0,0.5,95,207.0
5963,B2,958.0,0.5,95,207.0
5964,C#4,958.5,0.25,95,207.0
5965,A2,958.5,0.5,95,207.0
5966,D4,958.75,0.25,70,207.0
5967,E4,959.0,0.25,70,207.0
5968,E2,959.0,1.0,95,207.0
5969,B3,959.0,0.25,95,207.0
5970,F#3,959.0,0.25,95,207.0
5971,B2,959.0,0.25,95,207.0
5972,F#4,959.25,0.25,95,207.0
5973,B3,959.25,0.75,95,207.0
5974,F#3,959.25,0.75,95,207.0
5975,B2,959.25,0.75,95,207.0
5976,G#4,959.5,0.25,70,207.0
5977,A4,959.75,0.25,70,207.0
5978,B4,960.0,1/5,95,207.0
5979,E3,960.0,1.0,95,207.0
5980,E3,960.0,2.5,95,207.0
5981,B2,960.0,2.5,95,207.0
5982,E2,960.0,2.5,95,207.0
5983,C#5,960.2,1/5,70,207.0
5984,D5,960.4,1/5,70,207.0
5985,C#5,960.6,1/5,70,207.0
5986,B4,960.8,1/5,70,207.0
5987,A4,961.0,0.25,95,207.0
5988,F#3,961.0,0.5,95,207.0
5989,G#4,961.25,0.25,70,207.0
5990,F#4,961.5,0.25,70,207.0
5991,G#3,961.5,0.5,95,207.0
5992,E4,961.75,0.25,95,207.0
5993,D4,962.0,0.25,70,207.0
5994,A3,962.0,0.5,95,207.0
5995,C#4,962.25,0.25,70,207.0
5996,D4,962.5,0.25,70,207.0
5997,G#3,962.5,0.5,95,207.0
5998,E3,962.5,0.75,95,207.0
5999,E4,962.75,0.25,70,207.0
6000,D4,963.0,167/1000,70,207.0
6001,F#3,963.0,0.5,95,207.0
6002,C#4,963.167,167/1000,70,207.0
6003,E-3,963.25,0.75,95,207.0
6004,B3,963.333,167/1000,95,207.0
6005,A3,963.5,167/1000,70,207.0
6006,D3,963.5,0.5,95,207.0
6007,G#3,963.667,167/1000,70,207.0
6008,F#3,963.833,167/1000,95,207.0
6009,E3,964.0,0.25,70,207.0
6010,E3,964.0,0.5,95,207.0
6011,C#4,964.0,3.0,95,207.0
6012,G#3,964.0,3.0,95,207.0
6013,C#3,964.0,3.0,95,207.0
6014,D3,964.25,0.25,70,207.0
6015,E3,964.5,0.25,95,207.0
6016,F#3,964.5,0.5,95,207.0
6017,F#3,964.75,0.25,70,207.0
6018,E3,965.0,0.25,70,207.0
6019,E2,965.0,1.0,95,207.0
6020,D3,965.25,0.25,95,207.0
6021,C#3,965.5,0.25,95,207.0
6022,B2,965.75,0.25,95,207.0
6023,E2,966.0,1.0,95,207.0
6024,E3,966.0,1.0,95,207.0
6025,C#5,967.0,5.0,95,207.0
6026,E2,967.0,0.5,95,207.0
6027,E2,967.0,1.0,95,207.0
6028,E2,967.5,0.5,95,207.0
6029,D3,968.0,0.5,95,207.0
6030,F#3,968.0,3.25,95,207.0
6031,C#3,968.0,3.25,95,207.0
6032,F#2,968.0,3.25,95,207.0
6033,A2,968.5,0.5,95,207.0
6034,C#3,969.0,0.5,95,207.0
6035,A2,969.5,0.5,95,207.0
6036,B2,970.0,0.5,95,207.0
6037,A2,970.5,0.5,95,207.0
6038,E2,971.0,1.0,95,207.0
6039,G#2,971.25,0.25,95,207.0
6040,E3,971.5,0.25,95,207.0
6041,B3,971.75,0.25,95,207.0
6042,C#5,972.0,0.5,95,207.0
6043,E3,972.0,1.5,95,207.0
6044,A3,972.0,3.0,95,207.0
6045,E3,972.0,3.0,95,207.0
6046,A2,972.0,3.0,95,207.0
6047,D5,972.5,0.5,95,207.0
6048,F#5,972.875,0.125,95,207.0
6049,E4,973.0,0.5,95,207.0
6050,C#5,973.5,0.5,95,207.0
6051,E2,973.5,0.5,95,207.0
6052,E4,974.0,0.5,70,207.0
6053,D3,974.0,0.5,95,207.0
6054,B4,974.5,0.5,95,207.0
6055,C#3,974.5,0.5,70,207.0
6056,E4,975.0,0.5,70,207.0
6057,B2,975.0,0.5,95,207.0
6058,C#3,975.0,1.0,95,207.0
6059,A4,975.5,0.5,95,207.0
6060,G#2,975.5,0.5,95,207.0
6061,B3,976.0,0.5,70,207.0
6062,A2,976.0,0.5,95,207.0
6063,B3,976.0,4.0,95,207.0
6064,F#3,976.0,4.0,95,207.0
6065,B2,976.0,4.0,95,207.0
6066,G#4,976.5,0.5,95,207.0
6067,B2,976.5,0.5,95,207.0
6068,F#4,977.0,0.5,70,207.0
6069,E2,977.0,1.0,95,207.0
6070,D4,977.5,0.5,95,207.0
6071,E4,978.0,2.0,95,207.0
6072,E3,978.0,1.0,95,207.0
6073,E2,979.0,0.5,95,207.0
6074,E2,979.5,0.5,95,207.0
6075,D3,980.0,0.5,95,207.0
6076,E4,980.0,4.0,95,207.0
6077,B3,980.0,4.0,95,207.0
6078,B3,980.0,4.0,95,207.0
6079,F#3,980.0,4.0,95,207.0
6080,B2,980.0,4.0,95,207.0
6081,A2,980.5,0.5,95,207.0
6082,C#4,980.75,0.125,95,207.0
6083,D4,980.875,0.125,70,207.0
6084,E4,981.0,0.5,95,207.0
6085,C#3,981.0,0.5,95,207.0
6086,E5,981.5,0.5,95,207.0
6087,A2,981.5,0.5,95,207.0
6088,A4,982.0,0.5,95,207.0
6089,B2,982.0,0.5,95,207.0
6090,B4,982.5,0.5,95,207.0
6091,A2,982.5,0.5,95,207.0
6092,E5,983.0,0.5,95,207.0
6093,E2,983.0,1.0,95,207.0
6094,F#5,983.5,0.5,95,207.0
6095,D5,984.0,0.25,95,207.0
6096,E3,984.0,1.0,95,207.0
6097,E5,984.25,0.25,70,207.0
6098,D5,984.5,0.25,70,207.0
6099,C#5,984.75,0.25,70,207.0
6100,B4,985.0,0.5,95,207.0
6101,F#3,985.0,0.5,95,207.0
6102,E4,985.5,0.5,95,207.0
6103,G#3,985.5,0.5,95,207.0
6104,E5,986.0,0.5,95,207.0
6105,A3,986.0,0.5,95,207.0
6106,A4,986.5,0.5,95,207.0
6107,G#3,986.5,0.5,95,207.0
6108,B4,987.0,0.5,95,207.0
6109,F#3,987.0,0.5,95,207.0
6110,G#4,987.5,0.5,95,207.0
6111,D3,987.5,0.5,95,207.0
6112,A4,988.0,0.5,95,207.0
6113,E3,988.0,0.5,95,207.0
6114,G#4,988.5,0.25,95,207.0
6115,F#3,988.5,0.5,95,207.0
6116,A4,988.75,0.25,70,207.0
6117,G#4,989.0,0.25,70,207.0
6118,E2,989.0,1.0,95,207.0
6119,F#4,989.25,0.25,70,207.0
6120,D4,989.5,0.5,95,207.0
6121,E4,990.0,1.0,95,207.0
6122,E3,990.0,1.0,95,207.0
6123,C#5,991.0,5.0,95,207.0
6124,E2,991.0,0.5,95,207.0
6125,E2,991.5,0.5,95,207.0
6126,D3,992.0,0.5,95,207.0
6127,A2,992.5,0.5,95,207.0
6128,C#3,993.0,0.5,95,207.0
6129,A2,993.5,0.5,95,207.0
6130,B2,994.0,0.5,95,207.0
6131,A2,994.5,0.5,95,207.0
6132,E2,995.0,1.0,95,207.0
6133,E5,996.0,0.5,95,207.0
6134,E3,996.0,1.5,95,207.0
6135,C#5,996.5,0.5,95,207.0
6136,E4,997.0,0.5,95,207.0
6137,D5,997.5,0.5,95,207.0
6138,E2,997.5,0.5,95,207.0
6139,E4,998.0,0.5,70,207.0
6140,D3,998.0,0.5,95,207.0
6141,E5,998.5,0.5,95,207.0
6142,C#3,998.5,0.5,70,207.0
6143,E4,999.0,0.5,70,207.0
6144,B2,999.0,0.5,95,207.0
6145,F#5,999.5,0.5,95,207.0
6146,G#2,999.5,0.5,95,207.0
6147,E4,1000.0,0.5,70,207.0
6148,A2,1000.0,0.5,95,207.0
6149,G#5,1000.5,0.5,95,207.0
6150,B2,1000.5,0.5,95,207.0
6151,E4,1001.0,0.5,70,207.0
6152,E2,1001.0,1.0,95,207.0
6153,A5,1001.5,0.5,95,207.0
6154,G#5,1002.0,3.5,95,207.0
6155,E3,1002.0,1.0,95,207.0
6156,E2,1003.0,0.5,95,207.0
6157,E2,1003.5,0.5,95,207.0
6158,D3,1004.0,0.5,95,207.0
6159,A2,1004.5,0.5,95,207.0
6160,C#3,1005.0,0.5,95,207.0
6161,E5,1005.5,0.5,95,207.0
6162,A2,1005.5,0.5,95,207.0
6163,B4,1006.0,0.5,95,207.0
6164,B2,1006.0,0.5,95,207.0
6165,A4,1006.5,0.5,95,207.0
6166,A2,1006.5,0.5,95,207.0
6167,G#4,1007.0,0.5,95,207.0
6168,E2,1007.0,1.0,95,207.0
6169,B4,1007.5,0.5,95,207.0
6170,B4,1008.0,0.5,95,207.0
6171,E3,1008.0,1.0,95,207.0
6172,E3,1008.0,0.5,95,207.0
6173,B2,1008.0,0.5,95,207.0
6174,E2,1008.0,0.5,95,207.0
6175,G#4,1008.5,0.5,95,207.0
6176,E3,1008.5,0.5,95,207.0
6177,B2,1008.5,0.5,95,207.0
6178,E2,1008.5,0.5,95,207.0
6179,E4,1009.0,0.5,95,207.0
6180,F#3,1009.0,0.5,95,207.0
6181,E3,1009.0,0.5,95,207.0
6182,B2,1009.0,0.5,95,207.0
6183,E2,1009.0,0.5,95,207.0
6184,C#4,1009.5,0.5,95,207.0
6185,G#3,1009.5,0.5,95,207.0
6186,E3,1009.5,0.5,95,207.0
6187,B2,1009.5,0.5,95,207.0
6188,E2,1009.5,0.5,95,207.0
6189,B3,1010.0,0.5,95,207.0
6190,A3,1010.0,0.5,95,207.0
6191,E3,1010.0,0.5,95,207.0
6192,B2,1010.0,0.5,95,207.0
6193,E2,1010.0,0.5,95,207.0
6194,A3,1010.5,0.5,70,207.0
6195,G#3,1010.5,0.5,95,207.0
6196,E3,1010.5,0.5,95,207.0
6197,B2,1010.5,0.5,95,207.0
6198,E2,1010.5,0.5,95,207.0
6199,B3,1011.0,2.0,95,207.0
6200,F#3,1011.0,0.5,95,207.0
6201,E3,1011.0,0.5,95,207.0
6202,B2,1011.0,0.5,95,207.0
6203,E2,1011.0,0.5,95,207.0
6204,D3,1011.5,0.5,95,207.0
6205,E3,1011.5,0.5,95,207.0
6206,B2,1011.5,0.5,95,207.0
6207,E2,1011.5,0.5,95,207.0
6208,E3,1012.0,0.5,95,207.0
6209,E3,1012.0,0.5,95,207.0
6210,B2,1012.0,0.5,95,207.0
6211,E2,1012.0,0.5,95,207.0
6212,F#3,1012.5,0.5,95,207.0
6213,E3,1012.5,0.5,95,207.0
6214,B2,1012.5,0.5,95,207.0
6215,E2,1012.5,0.5,95,207.0
6216,E2,1013.0,1.0,95,207.0
6217,E3,1013.0,0.5,95,207.0
6218,B2,1013.0,0.5,95,207.0
6219,E2,1013.0,0.5,95,207.0
6220,E3,1013.5,0.5,95,207.0
6221,B2,1013.5,0.5,95,207.0
6222,E2,1013.5,0.5,95,207.0
6223,G#3,1014.0,0.5,95,207.0
6224,E3,1014.0,1.0,95,207.0
6225,E3,1014.0,0.5,95,207.0
6226,B2,1014.0,0.5,95,207.0
6227,E2,1014.0,0.5,95,207.0
6228,A3,1014.5,0.25,95,207.0
6229,E3,1014.5,0.5,95,207.0
6230,B2,1014.5,0.5,95,207.0
6231,E2,1014.5,0.5,95,207.0
6232,B3,1014.75,0.125,95,207.0
6233,C#4,1014.875,0.125,70,207.0
6234,A3,1015.0,0.25,95,207.0
6235,E2,1015.0,0.5,95,207.0
6236,E3,1015.0,0.5,95,207.0
6237,B2,1015.0,0.5,95,207.0
6238,E2,1015.0,0.5,95,207.0
6239,B3,1015.25,0.25,70,207.0
6240,A3,1015.5,0.25,70,207.0
6241,E2,1015.5,0.5,95,207.0
6242,E3,1015.5,0.5,95,207.0
6243,B2,1015.5,0.5,95,207.0
6244,E2,1015.5,0.5,95,207.0
6245,G#3,1015.75,0.25,70,207.0
6246,A3,1016.0,0.25,95,207.0
6247,D3,1016.0,0.5,95,207.0
6248,E3,1016.0,0.5,95,207.0
6249,B2,1016.0,0.5,95,207.0
6250,E2,1016.0,0.5,95,207.0
6251,B3,1016.25,0.25,70,207.0
6252,C#4,1016.5,0.25,95,207.0
6253,A2,1016.5,0.5,95,207.0
6254,E3,1016.5,0.5,95,207.0
6255,B2,1016.5,0.5,95,207.0
6256,E2,1016.5,0.5,95,207.0
6257,D4,1016.75,0.25,70,207.0
6258,E4,1017.0,0.25,95,207.0
6259,C#3,1017.0,0.5,95,207.0
6260,E3,1017.0,0.5,95,207.0
6261,B2,1017.0,0.5,95,207.0
6262,E2,1017.0,0.5,95,207.0
6263,F#4,1017.25,0.25,95,207.0
6264,E4,1017.5,0.125,95,207.0
6265,A2,1017.5,0.5,95,207.0
6266,E3,1017.5,0.5,95,207.0
6267,B2,1017.5,0.5,95,207.0
6268,E2,1017.5,0.5,95,207.0
6269,D4,1017.625,0.125,70,207.0
6270,E4,1017.75,0.25,70,207.0
6271,D4,1018.0,0.25,70,207.0
6272,B2,1018.0,0.5,95,207.0
6273,E3,1018.0,0.5,95,207.0
6274,B2,1018.0,0.5,95,207.0
6275,E2,1018.0,0.5,95,207.0
6276,C#4,1018.25,0.25,95,207.0
6277,C#4,1018.5,0.25,95,207.0
6278,A2,1018.5,0.5,95,207.0
6279,E3,1018.5,0.5,95,207.0
6280,B2,1018.5,0.5,95,207.0
6281,E2,1018.5,0.5,95,207.0
6282,E-4,1018.75,0.25,95,207.0
6283,F#4,1019.0,0.25,95,207.0
6284,E2,1019.0,1.0,95,207.0
6285,E3,1019.0,0.5,95,207.0
6286,B2,1019.0,0.5,95,207.0
6287,E2,1019.0,0.5,95,207.0
6288,G#4,1019.25,0.25,95,207.0
6289,A4,1019.5,0.25,95,207.0
6290,E3,1019.5,0.5,95,207.0
6291,B2,1019.5,0.5,95,207.0
6292,E2,1019.5,0.5,95,207.0
6293,B4,1019.75,0.125,70,207.0
6294,A4,1019.875,0.125,70,207.0
6295,G#4,1020.0,167/1000,70,207.0
6296,E3,1020.0,1.5,95,207.0
6297,E3,1020.0,0.5,95,207.0
6298,B2,1020.0,0.5,95,207.0
6299,E2,1020.0,0.5,95,207.0
6300,A4,1020.167,167/1000,95,207.0
6301,G#4,1020.333,167/1000,70,207.0
6302,F#4,1020.5,0.25,95,207.0
6303,E3,1020.5,0.5,95,207.0
6304,B2,1020.5,0.5,95,207.0
6305,E2,1020.5,0.5,95,207.0
6306,E4,1020.75,0.25,95,207.0
6307,G#4,1021.0,0.25,95,207.0
6308,E3,1021.0,0.5,95,207.0
6309,B2,1021.0,0.5,95,207.0
6310,E2,1021.0,0.5,95,207.0
6311,A4,1021.25,0.25,95,207.0
6312,B4,1021.5,0.25,95,207.0
6313,E2,1021.5,0.5,95,207.0
6314,E3,1021.5,0.5,95,207.0
6315,B2,1021.5,0.5,95,207.0
6316,E2,1021.5,0.5,95,207.0
6317,C#5,1021.75,0.25,95,207.0
6318,A4,1022.0,0.25,95,207.0
6319,D3,1022.0,0.5,95,207.0
6320,E3,1022.0,0.5,95,207.0
6321,B2,1022.0,0.5,95,207.0
6322,E2,1022.0,0.5,95,207.0
6323,B4,1022.25,0.25,95,207.0
6324,G#4,1022.5,0.25,95,207.0
6325,C#3,1022.5,0.5,70,207.0
6326,E3,1022.5,0.5,95,207.0
6327,B2,1022.5,0.5,95,207.0
6328,E2,1022.5,0.5,95,207.0
6329,A4,1022.75,0.25,95,207.0
6330,A4,1023.0,0.125,95,207.0
6331,B2,1023.0,0.5,95,207.0
6332,E3,1023.0,0.5,95,207.0
6333,B2,1023.0,0.5,95,207.0
6334,E2,1023.0,0.5,95,207.0
6335,G#4,1023.125,0.125,70,207.0
6336,G#4,1023.25,0.125,95,207.0
6337,F#4,1023.375,0.125,70,207.0
6338,E4,1023.5,0.5,95,207.0
6339,G#2,1023.5,0.5,95,207.0
6340,E3,1023.5,0.5,95,207.0
6341,B2,1023.5,0.5,95,207.0
6342,E2,1023.5,0.5,95,207.0
6343,G#4,1024.0,167/1000,95,207.0
6344,A2,1024.0,0.5,95,207.0
6345,E3,1024.0,0.5,95,207.0
6346,B2,1024.0,0.5,95,207.0
6347,E2,1024.0,0.5,95,207.0
6348,F#4,1024.167,167/1000,95,207.0
6349,E4,1024.333,167/1000,95,207.0
6350,D4,1024.5,0.25,95,207.0
6351,B2,1024.5,0.5,95,207.0
6352,E3,1024.5,0.5,95,207.0
6353,B2,1024.5,0.5,95,207.0
6354,E2,1024.5,0.5,95,207.0
6355,E4,1024.75,0.25,95,207.0
6356,F#4,1025.0,0.25,95,207.0
6357,E2,1025.0,1.0,95,207.0
6358,E3,1025.0,0.5,95,207.0
6359,B2,1025.0,0.5,95,207.0
6360,E2,1025.0,0.5,95,207.0
6361,A4,1025.25,0.25,95,207.0
6362,E4,1025.5,167/1000,95,207.0
6363,E3,1025.5,0.5,95,207.0
6364,B2,1025.5,0.5,95,207.0
6365,E2,1025.5,0.5,95,207.0
6366,F#4,1025.667,167/1000,95,207.0
6367,F4,1025.833,167/1000,95,207.0
6368,E4,1026.0,0.25,95,207.0
6369,E3,1026.0,1.0,95,207.0
6370,E3,1026.0,0.5,95,207.0
6371,B2,1026.0,0.5,95,207.0
6372,E2,1026.0,0.5,95,207.0
6373,D4,1026.25,0.25,95,207.0
6374,C#4,1026.5,0.25,95,207.0
6375,E3,1026.5,0.5,95,207.0
6376,B2,1026.5,0.5,95,207.0
6377,E2,1026.5,0.5,95,207.0
6378,B3,1026.75,0.25,95,207.0
6379,D4,1027.0,0.25,95,207.0
6380,E2,1027.0,0.5,95,207.0
6381,E3,1027.0,0.5,95,207.0
6382,B2,1027.0,0.5,95,207.0
6383,E2,1027.0,0.5,95,207.0
6384,C#4,1027.25,0.25,95,207.0
6385,B3,1027.5,0.25,95,207.0
6386,E2,1027.5,0.5,95,207.0
6387,E3,1027.5,0.5,95,207.0
6388,B2,1027.5,0.5,95,207.0
6389,E2,1027.5,0.5,95,207.0
6390,A3,1027.75,0.25,95,207.0
6391,C#4,1028.0,0.25,95,207.0
6392,D3,1028.0,0.5,95,207.0
6393,E3,1028.0,0.5,95,207.0
6394,B2,1028.0,0.5,95,207.0
6395,E2,1028.0,0.5,95,207.0
6396,D4,1028.25,0.125,95,207.0
6397,C#4,1028.375,0.125,70,207.0
6398,B3,1028.5,167/1000,95,207.0
6399,A2,1028.5,0.5,95,207.0
6400,E3,1028.5,0.5,95,207.0
6401,B2,1028.5,0.5,95,207.0
6402,E2,1028.5,0.5,95,207.0
6403,D4,1028.667,167/1000,95,207.0
6404,D4,1028.833,167/1000,95,207.0
6405,D4,1029.0,0.25,95,207.0
6406,C#3,1029.0,0.5,95,207.0
6407,E3,1029.0,0.5,95,207.0
6408,B2,1029.0,0.5,95,207.0
6409,E2,1029.0,0.5,95,207.0
6410,C#4,1029.25,0.125,95,207.0
6411,B3,1029.375,0.125,70,207.0
6412,C#4,1029.5,0.25,95,207.0
6413,A2,1029.5,0.5,95,207.0
6414,E3,1029.5,0.5,95,207.0
6415,B2,1029.5,0.5,95,207.0
6416,E2,1029.5,0.5,95,207.0
6417,E4,1029.75,0.25,95,207.0
6418,E4,1030.0,0.25,95,207.0
6419,B2,1030.0,0.5,95,207.0
6420,E3,1030.0,0.5,95,207.0
6421,B2,1030.0,0.5,95,207.0
6422,E2,1030.0,0.5,95,207.0
6423,F#4,1030.25,0.25,95,207.0
6424,G#4,1030.5,0.25,95,207.0
6425,A2,1030.5,0.5,95,207.0
6426,E3,1030.5,0.5,95,207.0
6427,B2,1030.5,0.5,95,207.0
6428,E2,1030.5,0.5,95,207.0
6429,A4,1030.75,0.25,95,207.0
6430,F#4,1031.0,0.25,95,207.0
6431,E2,1031.0,1.0,95,207.0
6432,E3,1031.0,0.5,95,207.0
6433,B2,1031.0,0.5,95,207.0
6434,E2,1031.0,0.5,95,207.0
6435,F#4,1031.25,0.25,95,207.0
6436,F#4,1031.5,0.25,95,207.0
6437,E3,1031.5,0.5,95,207.0
6438,B2,1031.5,0.5,95,207.0
6439,E2,1031.5,0.5,95,207.0
6440,G#4,1031.75,0.125,95,207.0
6441,A4,1031.875,0.125,70,207.0
6442,B4,1032.0,0.25,95,207.0
6443,E3,1032.0,1.0,95,207.0
6444,C#5,1032.25,0.25,95,207.0
6445,D5,1032.5,0.25,95,207.0
6446,C#5,1032.75,0.25,95,207.0
6447,B4,1033.0,167/1000,95,207.0
6448,F#3,1033.0,0.5,95,207.0
6449,A4,1033.167,167/1000,95,207.0
6450,G#4,1033.333,167/1000,95,207.0
6451,B4,1033.5,0.25,95,207.0
6452,G#3,1033.5,0.5,95,207.0
6453,D5,1033.75,0.25,95,207.0
6454,E5,1034.0,0.25,95,207.0
6455,A3,1034.0,0.5,95,207.0
6456,F#5,1034.25,0.25,95,207.0
6457,G#5,1034.5,0.125,70,207.0
6458,G#3,1034.5,0.5,95,207.0
6459,G#5,1034.625,0.125,95,207.0
6460,F#5,1034.75,0.25,70,207.0
6461,E5,1035.0,0.5,95,207.0
6462,F#3,1035.0,0.5,95,207.0
6463,F#5,1035.5,0.25,95,207.0
6464,D3,1035.5,0.5,95,207.0
6465,E5,1035.75,0.25,95,207.0
6466,A5,1036.0,0.25,95,207.0
6467,E3,1036.0,0.5,95,207.0
6468,B5,1036.25,0.25,95,207.0
6469,C#6,1036.5,0.25,95,207.0
6470,F#3,1036.5,0.5,95,207.0
6471,C#6,1036.75,0.125,95,207.0
6472,B5,1036.875,0.125,70,207.0
6473,D6,1037.0,167/1000,95,207.0
6474,E2,1037.0,1.0,95,207.0
6475,A5,1037.167,167/1000,95,207.0
6476,G#5,1037.333,167/1000,95,207.0
6477,F#5,1037.5,167/1000,95,207.0
6478,E5,1037.667,167/1000,95,207.0
6479,E5,1037.833,167/1000,95,207.0
6480,C#6,1038.0,3.0,95,207.0
6481,E3,1038.0,1.0,95,207.0
6482,E2,1039.0,0.5,95,207.0
6483,E2,1039.5,0.5,95,207.0
6484,D3,1040.0,0.5,95,207.0
6485,A2,1040.5,0.5,95,207.0
6486,C#6,1041.0,1.0,95,207.0
6487,C#3,1041.0,0.5,95,207.0
6488,A2,1041.5,0.5,95,207.0
6489,C#6,1042.0,1.5,95,207.0
6490,B2,1042.0,0.5,95,207.0
6491,A2,1042.5,0.5,95,207.0
6492,E2,1043.0,1.0,95,207.0
6493,B5,1043.5,0.5,95,207.0
6494,C#6,1044.0,0.25,95,207.0
6495,E3,1044.0,1.5,95,207.0
6496,B5,1044.25,0.25,70,207.0
6497,C#6,1044.5,0.25,95,207.0
6498,B5,1044.75,0.25,70,207.0
6499,A5,1045.0,0.5,95,207.0
6500,G#5,1045.5,0.5,95,207.0
6501,E2,1045.5,0.5,95,207.0
6502,B5,1046.0,0.5,95,207.0
6503,D3,1046.0,0.5,95,207.0
6504,A5,1046.5,0.5,95,207.0
6505,C#3,1046.5,0.5,70,207.0
6506,G#5,1047.0,0.5,95,207.0
6507,B2,1047.0,0.5,95,207.0
6508,F#5,1047.5,0.5,95,207.0
6509,G#2,1047.5,0.5,95,207.0
6510,A5,1048.0,0.5,95,207.0
6511,A2,1048.0,0.5,95,207.0
6512,G#5,1048.5,0.5,95,207.0
6513,B2,1048.5,0.5,95,207.0
6514,F#5,1049.0,0.5,95,207.0
6515,E2,1049.0,1.0,95,207.0
6516,E5,1049.5,0.5,95,207.0
6517,D5,1050.0,1.0,95,207.0
6518,E3,1050.0,1.0,95,207.0
6519,C#6,1051.0,4.5,95,207.0
6520,E2,1051.0,0.5,95,207.0
6521,E2,1051.5,0.5,95,207.0
6522,D3,1052.0,0.5,95,207.0
6523,A2,1052.5,0.5,95,207.0
6524,C#3,1053.0,0.5,95,207.0
6525,A2,1053.5,0.5,95,207.0
6526,B2,1054.0,0.5,95,207.0
6527,A2,1054.5,0.5,95,207.0
6528,E2,1055.0,1.0,95,207.0
6529,B5,1055.5,0.5,95,207.0
6530,C#6,1056.0,0.25,95,207.0
6531,E3,1056.0,1.0,95,207.0
6532,B5,1056.25,0.25,70,207.0
6533,C#6,1056.5,0.25,95,207.0
6534,B5,1056.75,0.25,70,207.0
6535,A5,1057.0,0.5,95,207.0
6536,F#3,1057.0,0.5,95,207.0
6537,G#5,1057.5,0.5,95,207.0
6538,G#3,1057.5,0.5,95,207.0
6539,B5,1058.0,0.5,95,207.0
6540,A3,1058.0,0.5,95,207.0
6541,A5,1058.5,0.5,95,207.0
6542,G#3,1058.5,0.5,95,207.0
6543,G#5,1059.0,0.5,95,207.0
6544,F#3,1059.0,0.5,95,207.0
6545,F#5,1059.5,0.5,95,207.0
6546,D3,1059.5,0.5,95,207.0
6547,E6,1060.0,0.5,95,207.0
6548,E3,1060.0,0.5,95,207.0
6549,D6,1060.5,0.5,95,207.0
6550,F#3,1060.5,0.5,95,207.0
6551,C#6,1061.0,0.5,95,207.0
6552,E2,1061.0,1.0,95,207.0
6553,B5,1061.5,0.5,95,207.0
6554,E5,1062.0,1.0,95,207.0
6555,E3,1062.0,1.0,95,207.0
6556,E6,1063.0,0.5,95,207.0
6557,E2,1063.0,0.5,95,207.0
6558,E5,1063.5,0.5,95,207.0
6559,E2,1063.5,0.5,95,207.0
6560,E6,1064.0,0.5,95,207.0
6561,D3,1064.0,0.5,95,207.0
6562,E5,1064.5,0.5,95,207.0
6563,A2,1064.5,0.5,95,207.0
6564,D6,1065.0,0.5,95,207.0
6565,C#3,1065.0,0.5,95,207.0
6566,E5,1065.5,0.5,95,207.0
6567,A2,1065.5,0.5,95,207.0
6568,C#6,1066.0,0.5,95,207.0
6569,B2,1066.0,0.5,95,207.0
6570,E5,1066.5,0.5,95,207.0
6571,A2,1066.5,0.5,95,207.0
6572,B5,1067.0,0.5,95,207.0
6573,E2,1067.0,1.0,95,207.0
6574,A5,1067.5,0.5,95,207.0
6575,E5,1068.0,1.0,95,207.0
6576,E3,1068.0,1.5,95,207.0
6577,E6,1069.0,0.5,95,207.0
6578,E5,1069.5,0.5,95,207.0
6579,E2,1069.5,0.5,95,207.0
6580,E6,1070.0,0.5,95,207.0
6581,D3,1070.0,0.5,95,207.0
6582,E5,1070.5,0.5,95,207.0
6583,C#3,1070.5,0.5,70,207.0
6584,D6,1071.0,0.5,95,207.0
6585,B2,1071.0,0.5,95,207.0
6586,E5,1071.5,0.5,95,207.0
6587,G#2,1071.5,0.5,95,207.0
6588,C#6,1072.0,0.5,95,207.0
6589,A2,1072.0,0.5,95,207.0
6590,E5,1072.5,0.5,95,207.0
6591,B2,1072.5,0.5,95,207.0
6592,B5,1073.0,0.5,95,207.0
6593,E2,1073.0,1.0,95,207.0
6594,A5,1073.5,0.5,95,207.0
6595,E5,1074.0,0.5,95,207.0
6596,E3,1074.0,1.0,95,207.0
6597,E6,1074.5,0.5,95,207.0
6598,E5,1075.0,0.5,95,207.0
6599,E2,1075.0,0.5,95,207.0
6600,D6,1075.5,0.5,95,207.0
6601,E2,1075.5,0.5,95,207.0
6602,E5,1076.0,0.5,95,207.0
6603,D3,1076.0,0.5,95,207.0
6604,C#6,1076.5,0.5,95,207.0
6605,A2,1076.5,0.5,95,207.0
6606,E5,1077.0,0.5,95,207.0
6607,C#3,1077.0,0.5,95,207.0
6608,B5,1077.5,0.5,95,207.0
6609,A2,1077.5,0.5,95,207.0
6610,E5,1078.0,0.5,95,207.0
6611,B2,1078.0,0.5,95,207.0
6612,A5,1078.5,0.5,95,207.0
6613,A2,1078.5,0.5,95,207.0
6614,E5,1079.0,0.5,95,207.0
6615,E2,1079.0,1.0,95,207.0
6616,E6,1079.5,0.5,95,207.0
6617,E5,1080.0,0.5,95,207.0
6618,E3,1080.0,1.0,95,207.0
6619,D6,1080.5,0.5,95,207.0
6620,E5,1081.0,0.5,95,207.0
6621,F#3,1081.0,0.5,95,207.0
6622,C#6,1081.5,0.5,95,207.0
6623,G#3,1081.5,0.5,95,207.0
6624,E5,1082.0,0.5,95,207.0
6625,A3,1082.0,0.5,95,207.0
6626,B5,1082.5,0.5,95,207.0
6627,G#3,1082.5,0.5,95,207.0
6628,E5,1083.0,0.5,95,207.0
6629,F#3,1083.0,0.5,95,207.0
6630,A5,1083.5,0.5,95,207.0
6631,D3,1083.5,0.5,95,207.0
6632,E5,1084.0,0.5,95,207.0
6633,E3,1084.0,0.5,95,207.0
6634,B5,1084.5,0.5,95,207.0
6635,F#3,1084.5,0.5,95,207.0
6636,E5,1085.0,0.5,95,207.0
6637,E2,1085.0,1.0,95,207.0
6638,D6,1085.5,0.5,95,207.0
6639,E6,1086.0,0.25,95,207.0
6640,E3,1086.0,1.0,95,207.0
6641,E6,1086.25,0.25,95,207.0
6642,E6,1086.5,0.25,95,207.0
6643,E6,1086.75,0.25,95,207.0
6644,E6,1087.0,0.25,95,207.0
6645,E2,1087.0,0.5,95,207.0
6646,E6,1087.25,0.25,95,207.0
6647,E6,1087.5,0.25,95,207.0
6648,E2,1087.5,0.5,95,207.0
6649,E6,1087.75,0.25,95,207.0
6650,E6,1088.0,0.25,95,207.0
6651,D3,1088.0,0.5,95,207.0
6652,E6,1088.25,0.25,95,207.0
6653,E6,1088.5,0.25,95,207.0
6654,A2,1088.5,0.5,95,207.0
6655,E6,1088.75,0.25,95,207.0
6656,E6,1089.0,0.25,95,207.0
6657,C#3,1089.0,0.5,95,207.0
6658,E6,1089.25,0.25,95,207.0
6659,E6,1089.5,0.25,95,207.0
6660,A2,1089.5,0.5,95,207.0
6661,E6,1089.75,0.25,95,207.0
6662,E6,1090.0,0.25,95,207.0
6663,B2,1090.0,0.5,95,207.0
6664,E6,1090.25,0.25,95,207.0
6665,E6,1090.5,0.25,95,207.0
6666,A2,1090.5,0.5,95,207.0
6667,E6,1090.75,0.25,95,207.0
6668,E6,1091.0,0.25,95,207.0
6669,E2,1091.0,1.0,95,207.0
6670,E6,1091.25,0.25,95,207.0
6671,C#6,1091.5,0.25,70,207.0
6672,D6,1091.75,0.25,95,207.0
6673,D6,1092.0,0.125,95,207.0
6674,E3,1092.0,1.5,95,207.0
6675,E6,1092.125,0.125,70,207.0
6676,D6,1092.25,0.25,95,207.0
6677,C#6,1092.5,0.25,95,207.0
6678,D6,1092.75,0.25,95,207.0
6679,E6,1093.0,0.25,95,207.0
6680,D6,1093.25,0.125,95,207.0
6681,C#6,1093.375,0.125,70,207.0
6682,C#6,1093.5,0.125,95,207.0
6683,E2,1093.5,0.5,95,207.0
6684,D6,1093.625,0.125,70,207.0
6685,E6,1093.75,0.25,95,207.0
6686,D6,1094.0,0.25,95,207.0
6687,D3,1094.0,0.5,95,207.0
6688,C#6,1094.25,0.125,95,207.0
6689,D6,1094.375,0.125,70,207.0
6690,D6,1094.5,0.125,95,207.0
6691,C#3,1094.5,0.5,70,207.0
6692,E6,1094.625,0.125,70,207.0
6693,E6,1094.75,0.125,95,207.0
6694,D6,1094.875,0.125,70,207.0
6695,D6,1095.0,0.125,95,207.0
6696,B2,1095.0,0.5,95,207.0
6697,C#6,1095.125,0.125,70,207.0
6698,C#6,1095.25,0.125,95,207.0
6699,D6,1095.375,0.125,95,207.0
6700,E6,1095.5,0.25,95,207.0
6701,G#2,1095.5,0.5,95,207.0
6702,D6,1095.75,0.25,95,207.0
6703,C#6,1096.0,0.25,95,207.0
6704,A2,1096.0,0.5,95,207.0
6705,D6,1096.25,0.125,95,207.0
6706,E6,1096.375,0.125,70,207.0
6707,E6,1096.5,0.125,95,207.0
6708,B2,1096.5,0.5,95,207.0
6709,D6,1096.625,0.125,70,207.0
6710,C#6,1096.75,0.25,95,207.0
6711,B5,1097.0,0.25,95,207.0
6712,E2,1097.0,1.0,95,207.0
6713,B5,1097.25,0.25,95,207.0
6714,C#6,1097.5,0.25,95,207.0
6715,D6,1097.75,0.25,95,207.0
6716,D6,1098.0,0.25,95,207.0
6717,E3,1098.0,1.0,95,207.0
6718,C#6,1098.25,0.125,95,207.0
6719,B5,1098.375,0.125,95,207.0
6720,C#6,1098.5,0.25,95,207.0
6721,D6,1098.75,0.25,95,207.0
6722,C#6,1099.0,0.25,95,207.0
6723,E2,1099.0,0.5,95,207.0
6724,C#6,1099.25,0.125,95,207.0
6725,B5,1099.375,0.125,95,207.0
6726,B5,1099.5,0.125,95,207.0
6727,E2,1099.5,0.5,95,207.0
6728,A5,1099.625,0.125,95,207.0
6729,B5,1099.75,0.25,95,207.0
6730,C#6,1100.0,0.25,95,207.0
6731,D3,1100.0,0.5,95,207.0
6732,D6,1100.25,0.25,95,207.0
6733,C#6,1100.5,0.125,95,207.0
6734,A2,1100.5,0.5,95,207.0
6735,B5,1100.625,0.125,95,207.0
6736,B-5,1100.75,0.25,95,207.0
6737,B5,1101.0,0.25,95,207.0
6738,C#3,1101.0,0.5,95,207.0
6739,B5,1101.25,0.25,95,207.0
6740,B-5,1101.5,167/1000,95,207.0
6741,A2,1101.5,0.5,95,207.0
6742,B5,1101.667,167/1000,70,207.0
6743,C#6,1101.833,167/1000,70,207.0
6744,B5,1102.0,0.25,95,207.0
6745,B2,1102.0,0.5,95,207.0
6746,A5,1102.25,0.25,95,207.0
6747,A5,1102.5,0.25,95,207.0
6748,A2,1102.5,0.5,95,207.0
6749,A5,1102.75,0.25,95,207.0
6750,B5,1103.0,0.25,95,207.0
6751,E2,1103.0,1.0,95,207.0
6752,C#6,1103.25,0.25,95,207.0
6753,A5,1103.5,0.125,95,207.0
6754,G#5,1103.625,0.125,95,207.0
6755,G#5,1103.75,0.25,95,207.0
6756,A5,1104.0,0.25,95,207.0
6757,E3,1104.0,1.0,95,207.0
6758,B5,1104.25,0.25,95,207.0
6759,B5,1104.5,0.125,95,207.0
6760,A5,1104.625,0.125,95,207.0
6761,A5,1104.75,0.25,95,207.0
6762,B5,1105.0,0.25,95,207.0
6763,F#3,1105.0,0.5,95,207.0
6764,B5,1105.25,0.125,95,207.0
6765,A5,1105.375,0.125,95,207.0
6766,G#5,1105.5,0.25,95,207.0
6767,G#3,1105.5,0.5,95,207.0
6768,G#5,1105.75,0.25,95,207.0
6769,A5,1106.0,0.25,95,207.0
6770,A3,1106.0,0.5,95,207.0
6771,B5,1106.25,0.25,95,207.0
6772,B5,1106.5,0.125,95,207.0
6773,G#3,1106.5,0.5,95,207.0
6774,A5,1106.625,0.125,95,207.0
6775,G#5,1106.75,0.125,95,207.0
6776,G5,1106.875,0.125,95,207.0
6777,F#5,1107.0,0.25,95,207.0
6778,F#3,1107.0,0.5,95,207.0
6779,G#5,1107.25,0.25,95,207.0
6780,G#5,1107.5,0.125,95,207.0
6781,D3,1107.5,0.5,95,207.0
6782,A5,1107.625,0.125,95,207.0
6783,A5,1107.75,0.25,95,207.0
6784,G#5,1108.0,0.125,95,207.0
6785,E3,1108.0,0.5,95,207.0
6786,F#5,1108.125,0.125,95,207.0
6787,F#5,1108.25,0.125,95,207.0
6788,G#5,1108.375,0.125,95,207.0
6789,B-5,1108.5,0.25,95,207.0
6790,F#3,1108.5,0.5,95,207.0
6791,G#5,1108.75,0.25,95,207.0
6792,F#5,1109.0,0.25,95,207.0
6793,E2,1109.0,1.0,95,207.0
6794,F#5,1109.25,0.25,95,207.0
6795,G#5,1109.5,0.25,95,207.0
6796,A5,1109.75,0.25,95,207.0
6797,F#5,1110.0,0.25,95,207.0
6798,E3,1110.0,1.0,95,207.0
6799,F#5,1110.25,0.125,95,207.0
6800,G#5,1110.375,0.125,95,207.0
6801,G#5,1110.5,0.125,95,207.0
6802,F#5,1110.625,0.125,95,207.0
6803,E5,1110.75,0.125,95,207.0
6804,F#5,1110.875,0.125,95,207.0
6805,G#5,1111.0,0.25,95,207.0
6806,E2,1111.0,0.5,95,207.0
6807,F#5,1111.25,0.25,95,207.0
6808,E5,1111.5,0.5,95,207.0
6809,E2,1111.5,0.5,95,207.0
6810,E5,1112.0,0.125,95,207.0
6811,D3,1112.0,0.5,95,207.0
6812,F#5,1112.125,0.125,95,207.0
6813,F#5,1112.25,0.125,95,207.0
6814,G#5,1112.375,0.125,95,207.0
6815,G#5,1112.5,167/1000,95,207.0
6816,A2,1112.5,0.5,95,207.0
6817,F#5,1112.667,167/1000,95,207.0
6818,E5,1112.833,167/1000,95,207.0
6819,E5,1113.0,0.25,95,207.0
6820,C#3,1113.0,0.5,95,207.0
6821,E5,1113.25,0.125,95,207.0
6822,F#5,1113.375,0.125,95,207.0
6823,E5,1113.5,0.25,95,207.0
6824,A2,1113.5,0.5,95,207.0
6825,E5,1113.75,0.25,95,207.0
6826,F#5,1114.0,0.25,95,207.0
6827,B2,1114.0,0.5,95,207.0
6828,E5,1114.25,0.25,95,207.0
6829,D5,1114.5,0.25,95,207.0
6830,A2,1114.5,0.5,95,207.0
6831,B4,1114.75,0.25,95,207.0
6832,D5,1115.0,0.25,95,207.0
6833,E2,1115.0,1.0,95,207.0
6834,E5,1115.25,0.25,95,207.0
6835,E5,1115.5,0.125,95,207.0
6836,F#5,1115.625,0.125,95,207.0
6837,E5,1115.75,0.125,95,207.0
6838,D5,1115.875,0.125,95,207.0
6839,C#5,1116.0,0.125,95,207.0
6840,E3,1116.0,1.5,95,207.0
6841,D5,1116.125,0.375,95,207.0
6842,E5,1116.5,167/1000,95,207.0
6843,D5,1116.667,167/1000,95,207.0
6844,C#5,1116.833,167/1000,95,207.0
6845,D5,1117.0,0.25,95,207.0
6846,E5,1117.25,0.25,95,207.0
6847,D5,1117.5,167/1000,95,207.0
6848,E2,1117.5,0.5,95,207.0
6849,B4,1117.667,167/1000,95,207.0
6850,G#4,1117.833,167/1000,95,207.0
6851,D5,1118.0,0.25,95,207.0
6852,D3,1118.0,0.5,95,207.0
6853,E5,1118.25,0.25,95,207.0
6854,D5,1118.5,0.125,95,207.0
6855,C#3,1118.5,0.5,70,207.0
6856,C#5,1118.625,0.125,95,207.0
6857,C#5,1118.75,0.125,95,207.0
6858,D5,1118.875,0.125,95,207.0
6859,D5,1119.0,0.25,95,207.0
6860,B2,1119.0,0.5,95,207.0
6861,C#5,1119.25,0.125,95,207.0
6862,B4,1119.375,0.125,95,207.0
6863,C#5,1119.5,0.25,95,207.0
6864,G#2,1119.5,0.5,95,207.0
6865,D5,1119.75,0.25,95,207.0
6866,D5,1120.0,0.125,95,207.0
6867,A2,1120.0,0.5,95,207.0
6868,C#5,1120.125,0.125,95,207.0
6869,B4,1120.25,0.25,95,207.0
6870,G#4,1120.5,0.25,95,207.0
6871,B2,1120.5,0.5,95,207.0
6872,E4,1120.75,0.25,95,207.0
6873,F#4,1121.0,0.25,95,207.0
6874,E2,1121.0,1.0,95,207.0
6875,G#4,1121.25,0.25,95,207.0
6876,A4,1121.5,0.25,95,207.0
6877,G#4,1121.75,0.125,95,207.0
6878,F#4,1121.875,0.125,95,207.0
6879,G#4,1122.0,0.25,95,207.0
6880,E3,1122.0,1.0,95,207.0
6881,A4,1122.25,0.125,95,207.0
6882,G#4,1122.375,0.125,95,207.0
6883,F#4,1122.5,0.25,95,207.0
6884,F#4,1122.75,0.125,95,207.0
6885,E4,1122.875,0.125,95,207.0
6886,E-4,1123.0,0.25,95,207.0
6887,E2,1123.0,0.5,95,207.0
6888,C#4,1123.25,0.125,95,207.0
6889,B3,1123.375,0.125,95,207.0
6890,B3,1123.5,0.25,95,207.0
6891,E2,1123.5,0.5,95,207.0
6892,C#4,1123.75,0.25,95,207.0
6893,D4,1124.0,0.25,95,207.0
6894,D3,1124.0,0.5,95,207.0
6895,E4,1124.25,0.25,95,207.0
6896,D4,1124.5,0.125,95,207.0
6897,A2,1124.5,0.5,95,207.0
6898,C#4,1124.625,0.125,95,207.0
6899,C#4,1124.75,0.25,95,207.0
6900,D4,1125.0,0.25,95,207.0
6901,C#3,1125.0,0.5,95,207.0
6902,D4,1125.25,0.125,95,207.0
6903,C#4,1125.375,0.125,95,207.0
6904,C#4,1125.5,0.125,95,207.0
6905,A2,1125.5,0.5,95,207.0
6906,B3,1125.625,0.125,95,207.0
6907,A3,1125.75,0.25,95,207.0
6908,F#3,1126.0,0.25,95,207.0
6909,B2,1126.0,0.5,95,207.0
6910,G#3,1126.25,0.25,95,207.0
6911,A3,1126.5,0.25,95,207.0
6912,A2,1126.5,0.5,95,207.0
6913,B3,1126.75,0.125,95,207.0
6914,A3,1126.875,0.125,95,207.0
6915,G#3,1127.0,0.25,95,207.0
6916,E2,1127.0,1.0,95,207.0
6917,A3,1127.25,0.25,95,207.0
6918,B3,1127.5,0.25,95,207.0
6919,A3,1127.75,0.25,95,207.0
6920,G#3,1128.0,0.25,95,207.0
6921,E3,1128.0,1.0,95,207.0
6922,F#3,1128.25,0.25,95,207.0
6923,E3,1128.5,0.25,95,207.0
6924,D3,1128.75,0.25,95,207.0
6925,C#3,1129.0,0.25,95,207.0
6926,F#3,1129.0,0.5,95,207.0
6927,B2,1129.25,0.25,95,207.0
6928,G#3,1129.5,0.25,95,207.0
6929,G#3,1129.5,0.5,95,207.0
6930,F#3,1129.75,0.25,95,207.0
6931,E3,1130.0,0.25,95,207.0
6932,A3,1130.0,0.5,95,207.0
6933,D3,1130.25,0.25,95,207.0
6934,C#3,1130.5,0.25,95,207.0
6935,G#3,1130.5,0.5,95,207.0
6936,B2,1130.75,0.25,95,207.0
6937,C#3,1131.0,0.25,95,207.0
6938,F#3,1131.0,0.5,95,207.0
6939,B2,1131.25,0.25,95,207.0
6940,A2,1131.5,0.25,95,207.0
6941,D3,1131.5,0.5,95,207.0
6942,C#3,1131.75,0.25,95,207.0
6943,B2,1132.0,0.25,95,207.0
6944,E3,1132.0,0.5,95,207.0
6945,A2,1132.25,0.25,95,207.0
6946,B2,1132.5,0.25,95,207.0
6947,F#3,1132.5,0.5,95,207.0
6948,A2,1132.75,0.25,95,207.0
6949,G#2,1133.0,0.25,95,207.0
6950,E2,1133.0,1.0,95,207.0
6951,B2,1133.25,0.25,95,207.0
6952,A2,1133.5,0.25,95,207.0
6953,G#2,1133.75,0.25,95,207.0
6954,E2,1134.0,1.0,95,207.0
6955,E3,1134.0,1.0,95,207.0
6956,D5,1135.0,3.0,95,207.0
6957,E2,1135.0,0.5,95,207.0
6958,E2,1135.5,0.5,95,207.0
6959,D3,1136.0,0.5,95,207.0
6960,A2,1136.5,0.5,95,207.0
6961,C#3,1137.0,0.5,95,207.0
6962,A2,1137.5,0.5,95,207.0
6963,E5,1138.0,0.5,95,207.0
6964,B2,1138.0,0.5,95,207.0
6965,D5,1138.5,0.5,95,207.0
6966,A2,1138.5,0.5,95,207.0
6967,B4,1139.0,0.5,95,207.0
6968,E2,1139.0,1.0,95,207.0
6969,A4,1139.5,0.5,95,207.0
6970,B4,1140.0,0.5,95,207.0
6971,E3,1140.0,1.5,95,207.0
6972,B-4,1140.5,0.5,95,207.0
6973,A4,1141.0,0.5,95,207.0
6974,G#4,1141.5,0.5,95,207.0
6975,E2,1141.5,0.5,95,207.0
6976,G4,1142.0,0.5,95,207.0
6977,D3,1142.0,0.5,95,207.0
6978,E4,1142.5,0.5,95,207.0
6979,C#3,1142.5,0.5,70,207.0
6980,D4,1143.0,0.5,95,207.0
6981,B2,1143.0,0.5,95,207.0
6982,B3,1143.5,0.5,95,207.0
6983,G#2,1143.5,0.5,95,207.0
6984,B-3,1144.0,0.5,95,207.0
6985,A2,1144.0,0.5,95,207.0
6986,A3,1144.5,0.5,95,207.0
6987,B2,1144.5,0.5,95,207.0
6988,G#3,1145.0,0.5,95,207.0
6989,E2,1145.0,1.0,95,207.0
6990,E4,1145.5,0.5,95,207.0
6991,E3,1146.0,2.5,95,207.0
6992,E3,1146.0,1.0,95,207.0
6993,E2,1147.0,0.5,95,207.0
6994,E2,1147.5,0.5,95,207.0
6995,D3,1148.0,0.5,95,207.0
6996,E3,1148.5,0.5,95,207.0
6997,A2,1148.5,0.5,95,207.0
6998,G3,1149.0,0.5,95,207.0
6999,C#3,1149.0,0.5,95,207.0
7000,A3,1149.5,0.5,95,207.0
7001,A2,1149.5,0.5,95,207.0
7002,B3,1150.0,0.5,95,207.0
7003,B2,1150.0,0.5,95,207.0
7004,D4,1150.5,0.5,95,207.0
7005,A2,1150.5,0.5,95,207.0
7006,E4,1151.0,0.5,95,207.0
7007,E2,1151.0,1.0,95,207.0
7008,G4,1151.5,0.5,95,207.0
7009,A4,1152.0,0.5,95,207.0
7010,E3,1152.0,1.0,95,207.0
7011,G4,1152.5,0.25,95,207.0
7012,G#4,1152.75,0.25,95,207.0
7013,B4,1153.0,0.5,95,207.0
7014,F#3,1153.0,0.5,95,207.0
7015,C#5,1153.5,0.5,95,207.0
7016,G#3,1153.5,0.5,95,207.0
7017,D5,1154.0,0.5,95,207.0
7018,A3,1154.0,0.5,95,207.0
7019,E5,1154.5,0.5,95,207.0
7020,G#3,1154.5,0.5,95,207.0
7021,B4,1155.0,0.5,95,207.0
7022,F#3,1155.0,0.5,95,207.0
7023,F#5,1155.5,0.5,95,207.0
7024,D3,1155.5,0.5,95,207.0
7025,B4,1156.0,0.5,95,207.0
7026,E3,1156.0,0.5,95,207.0
7027,G5,1156.5,0.5,95,207.0
7028,F#3,1156.5,0.5,95,207.0
7029,B4,1157.0,0.5,95,207.0
7030,E2,1157.0,1.0,95,207.0
7031,G#5,1157.5,0.5,95,207.0
7032,B4,1158.0,0.5,95,207.0
7033,E3,1158.0,1.0,95,207.0
7034,A4,1158.5,0.5,95,207.0
7035,F#5,1159.0,0.5,95,207.0
7036,E2,1159.0,0.5,95,207.0
7037,A4,1159.5,0.5,95,207.0
7038,E2,1159.5,0.5,95,207.0
7039,G#4,1160.0,0.5,95,207.0
7040,D3,1160.0,0.5,95,207.0
7041,E5,1160.5,0.5,95,207.0
7042,A2,1160.5,0.5,95,207.0
7043,G#4,1161.0,0.5,95,207.0
7044,C#3,1161.0,0.5,95,207.0
7045,A4,1161.5,0.5,95,207.0
7046,A2,1161.5,0.5,95,207.0
7047,E5,1162.0,0.5,95,207.0
7048,B2,1162.0,0.5,95,207.0
7049,A4,1162.5,0.5,95,207.0
7050,A2,1162.5,0.5,95,207.0
7051,B4,1163.0,0.5,95,207.0
7052,E2,1163.0,1.0,95,207.0
7053,G#5,1163.5,0.5,95,207.0
7054,D5,1164.0,0.5,95,207.0
7055,E3,1164.0,1.5,95,207.0
7056,A5,1164.5,0.5,95,207.0
7057,C#5,1165.0,0.5,95,207.0
7058,B-5,1165.5,0.5,95,207.0
7059,E2,1165.5,0.5,95,207.0
7060,C5,1166.0,0.5,95,207.0
7061,D3,1166.0,0.5,95,207.0
7062,B5,1166.5,2.0,95,207.0
7063,C#3,1166.5,0.5,70,207.0
7064,B2,1167.0,0.5,95,207.0
7065,G#2,1167.5,0.5,95,207.0
7066,A2,1168.0,0.5,95,207.0
7067,B2,1168.5,0.5,95,207.0
7068,E2,1169.0,1.0,95,207.0
7069,E5,1169.5,0.5,95,207.0
7070,B5,1170.0,1.0,95,207.0
7071,E3,1170.0,1.0,95,207.0
7072,C#6,1171.0,1.5,95,207.0
7073,E2,1171.0,0.5,95,207.0
7074,E2,1171.5,0.5,95,207.0
7075,D3,1172.0,0.5,95,207.0
7076,C#6,1172.5,0.5,95,207.0
7077,A2,1172.5,0.5,95,207.0
7078,C#6,1173.0,0.5,95,207.0
7079,C#3,1173.0,0.5,95,207.0
7080,C#6,1173.5,0.5,95,207.0
7081,A2,1173.5,0.5,95,207.0
7082,C#6,1174.0,0.5,95,207.0
7083,B2,1174.0,0.5,95,207.0
7084,C#6,1174.5,0.5,95,207.0
7085,A2,1174.5,0.5,95,207.0
7086,C#6,1175.0,0.5,95,207.0
7087,E2,1175.0,1.0,95,207.0
7088,C#6,1175.5,1.0,95,207.0
7089,E3,1176.0,1.0,95,207.0
7090,C#6,1176.5,1.0,95,207.0
7091,F#3,1177.0,0.5,95,207.0
7092,C#6,1177.5,1.0,95,207.0
7093,G#3,1177.5,0.5,95,207.0
7094,A3,1178.0,0.5,95,207.0
7095,C#6,1178.5,1.0,95,207.0
7096,G#3,1178.5,0.5,95,207.0
7097,F#3,1179.0,0.5,95,207.0
7098,C#6,1179.5,1.0,95,207.0
7099,D3,1179.5,0.5,95,207.0
7100,E3,1180.0,0.5,95,207.0
7101,C#6,1180.5,0.5,95,207.0
7102,F#3,1180.5,0.5,95,207.0
7103,D6,1181.0,2.5,95,207.0
7104,E2,1181.0,1.0,95,207.0
7105,E3,1182.0,1.0,95,207.0
7106,E2,1183.0,0.5,95,207.0
7107,D6,1183.5,0.5,95,207.0
7108,E2,1183.5,0.5,95,207.0
7109,D6,1184.0,3.0,95,207.0
7110,D3,1184.0,0.5,95,207.0
7111,A2,1184.5,0.5,95,207.0
7112,C#3,1185.0,0.5,95,207.0
7113,A2,1185.5,0.5,95,207.0
7114,B2,1186.0,0.5,95,207.0
7115,A2,1186.5,0.5,95,207.0
7116,D6,1187.0,1.0,95,207.0
7117,E2,1187.0,1.0,95,207.0
7118,D6,1188.0,5.0,95,207.0
7119,E3,1188.0,1.5,95,207.0
7120,E2,1189.5,0.5,95,207.0
7121,D3,1190.0,0.5,95,207.0
7122,C#3,1190.5,0.5,70,207.0
7123,B2,1191.0,0.5,95,207.0
7124,G#2,1191.5,0.5,95,207.0
7125,A2,1192.0,0.5,95,207.0
7126,B2,1192.5,0.5,95,207.0
7127,D6,1193.0,1.0,95,207.0
7128,E2,1193.0,1.0,95,207.0
7129,D6,1194.0,4.0,95,207.0
7130,E3,1194.0,1.0,95,207.0
7131,E2,1195.0,0.5,95,207.0
7132,E2,1195.5,0.5,95,207.0
7133,D3,1196.0,0.5,95,207.0
7134,A2,1196.5,0.5,95,207.0
7135,C#3,1197.0,0.5,95,207.0
7136,A2,1197.5,0.5,95,207.0
7137,D6,1198.0,1.0,95,207.0
7138,B2,1198.0,0.5,95,207.0
7139,A2,1198.5,0.5,95,207.0
7140,D6,1199.0,1.0,95,207.0
7141,E2,1199.0,1.0,95,207.0
7142,D6,1200.0,5.0,95,207.0
7143,E3,1200.0,1.0,95,207.0
7144,F#3,1201.0,0.5,95,207.0
7145,G#3,1201.5,0.5,95,207.0
7146,A3,1202.0,0.5,95,207.0
7147,G#3,1202.5,0.5,95,207.0
7148,F#3,1203.0,0.5,95,207.0
7149,D3,1203.5,0.5,95,207.0
7150,E3,1204.0,0.5,95,207.0
7151,F#3,1204.5,0.5,95,207.0
7152,D6,1205.0,2.0,95,207.0
7153,E2,1205.0,1.0,95,207.0
7154,E3,1206.0,1.0,95,207.0
7155,E2,1207.0,0.5,95,207.0
7156,D6,1207.5,2.0,95,207.0
7157,E2,1207.5,0.5,95,207.0
7158,D3,1208.0,0.5,95,207.0
7159,A2,1208.5,0.5,95,207.0
7160,C#3,1209.0,0.5,95,207.0
7161,A2,1209.5,0.5,95,207.0
7162,D6,1210.0,1.0,95,207.0
7163,B2,1210.0,0.5,95,207.0
7164,A2,1210.5,0.5,95,207.0
7165,E2,1211.0,1.0,95,207.0
7166,E3,1212.0,1.5,95,207.0
7167,E2,1213.5,0.5,95,207.0
7168,D3,1214.0,0.5,95,207.0
7169,C#3,1214.5,0.5,70,207.0
7170,B2,1215.0,0.5,95,207.0
7171,G#2,1215.5,0.5,95,207.0
7172,A2,1216.0,0.5,95,207.0
7173,B2,1216.5,0.5,95,207.0
7174,E2,1217.0,1.0,95,207.0
7175,E3,1218.0,1.0,95,207.0
7176,E2,1219.0,0.5,95,207.0
7177,E2,1219.5,0.5,95,207.0
7178,D3,1220.0,0.5,95,207.0
7179,A2,1220.5,0.5,95,207.0
7180,C#3,1221.0,0.5,95,207.0
7181,A2,1221.5,0.5,95,207.0
7182,B2,1222.0,0.5,95,207.0
7183,A2,1222.5,0.5,95,207.0
7184,E2,1223.0,0.5,95,207.0
7185,E3,1223.5,1.0,95,207.0
7186,F#3,1224.5,0.5,95,207.0
7187,G#3,1225.0,0.5,95,207.0
7188,A3,1225.5,0.5,95,207.0
7189,G#3,1226.0,0.5,95,207.0
7190,F#3,1226.5,0.5,95,207.0
7191,D3,1227.0,0.5,95,207.0
7192,E3,1227.5,0.5,95,207.0
7193,F#3,1228.0,0.5,95,207.0
7194,E2,1228.5,1.0,95,207.0
7195,E3,1229.5,1.0,95,207.0
7196,E2,1230.5,0.5,95,207.0
7197,E2,1231.0,0.5,95,207.0
7198,D3,1231.5,0.5,95,207.0
7199,A2,1232.0,0.5,95,207.0
7200,C#3,1232.5,0.5,95,207.0
7201,A2,1233.0,0.5,95,207.0
7202,B2,1233.5,0.5,95,207.0
7203,A2,1234.0,0.5,95,207.0
7204,E2,1234.5,1.0,95,207.0
7205,E3,1235.5,1.5,95,207.0
7206,E2,1237.0,0.5,95,207.0
7207,D3,1237.5,0.5,95,207.0
7208,C#3,1238.0,0.5,70,207.0
7209,B2,1238.5,0.5,95,207.0
7210,G#2,1239.0,0.5,95,207.0
7211,A2,1239.5,0.5,95,207.0
7212,B2,1240.0,0.5,95,207.0
7213,E2,1240.5,1.0,95,207.0
7214,E3,1241.5,1.0,95,207.0
7215,E2,1242.5,0.5,95,207.0
7216,E2,1243.0,0.5,95,207.0
7217,D3,1243.5,0.5,95,207.0
7218,A2,1244.0,0.5,95,207.0
7219,C#3,1244.5,0.5,95,207.0
7220,A2,1245.0,0.5,95,207.0
7221,B2,1245.5,0.5,95,207.0
7222,A2,1246.0,0.5,95,207.0
7223,E2,1246.5,0.5,95,207.0
7224,E3,1247.0,1.0,95,207.0
7225,F#3,1248.0,0.5,95,207.0
7226,G#3,1248.5,0.5,95,207.0
7227,A3,1249.0,0.5,95,207.0
7228,G#3,1249.5,0.5,95,207.0
7229,F#3,1250.0,0.5,95,207.0
7230,D3,1250.5,0.5,95,207.0
7231,E3,1251.0,0.5,95,207.0
7232,F#3,1251.5,0.5,95,207.0
7233,E2,1252.0,1.0,95,207.0
7234,E3,1253.0,1.0,95,207.0
7235,E2,1254.0,0.5,95,207.0
7236,E2,1254.5,0.5,95,207.0
7237,D3,1255.0,0.5,95,207.0
7238,A2,1255.5,0.5,95,207.0
7239,C#3,1256.0,0.5,95,207.0
7240,A2,1256.5,0.5,95,207.0
7241,B2,1257.0,0.5,95,207.0
7242,A2,1257.5,0.5,95,207.0
7243,E2,1258.0,1.0,95,207.0
7244,E3,1259.0,1.5,95,207.0
7245,E2,1260.5,0.5,95,207.0
7246,D3,1261.0,0.5,95,207.0
7247,C#3,1261.5,0.5,70,207.0
7248,B2,1262.0,0.5,95,207.0
7249,G#2,1262.5,0.5,95,207.0
7250,A2,1263.0,0.5,95,207.0
7251,B2,1263.5,0.5,95,207.0
7252,E2,1264.0,1.0,95,207.0
7253,E3,1265.0,1.0,95,207.0
7254,E2,1266.0,0.5,95,207.0
7255,E2,1266.5,0.5,95,207.0
7256,D3,1267.0,0.5,95,207.0
7257,A2,1267.5,0.5,95,207.0
7258,C#3,1268.0,0.5,95,207.0
7259,A2,1268.5,0.5,95,207.0
7260,B2,1269.0,0.5,95,207.0
7261,A2,1269.5,0.5,95,207.0
7262,E2,1270.0,1.0,95,207.0
7263,E3,1271.0,1.0,95,207.0
7264,F#3,1272.0,0.5,95,207.0
7265,G#3,1272.5,0.5,95,207.0
7266,A3,1273.0,0.5,95,207.0
7267,G#3,1273.5,0.5,95,207.0
7268,F#3,1274.0,0.5,95,207.0
7269,D3,1274.5,0.5,95,207.0
7270,E3,1275.0,0.5,95,207.0
7271,F#3,1275.5,0.5,95,207.0
7272,E2,1276.0,1.0,95,207.0
7273,E3,1277.0,1.0,95,207.0
7274,E2,1278.0,0.5,95,207.0
7275,E2,1278.5,0.5,95,207.0
7276,D3,1279.0,0.5,95,207.0
7277,A2,1279.5,0.5,95,207.0
7278,C#3,1280.0,0.5,95,207.0
7279,A2,1280.5,0.5,95,207.0
7280,B2,1281.0,0.5,95,207.0
7281,A2,1281.5,0.5,95,207.0
7282,E2,1282.0,1.0,95,207.0
7283,E3,1283.0,1.5,95,207.0
7284,E2,1284.5,0.5,95,207.0
7285,D3,1285.0,0.5,95,207.0
7286,C#3,1285.5,0.5,70,207.0
7287,B2,1286.0,0.5,95,207.0
7288,G#2,1286.5,0.5,95,207.0
7289,A2,1287.0,0.5,95,207.0
7290,B2,1287.5,0.5,95,207.0
7291,E2,1288.0,1.0,95,207.0
7292,E3,1289.0,1.0,95,207.0
7293,E2,1290.0,0.5,95,207.0
7294,E2,1290.5,0.5,95,207.0
7295,D3,1291.0,0.5,95,207.0
7296,A2,1291.5,0.5,95,207.0
7297,C#3,1292.0,0.5,95,207.0
7298,A2,1292.5,0.5,95,207.0
7299,B2,1293.0,0.5,95,207.0
7300,A2,1293.5,0.5,95,207.0
7301,E2,1294.0,1.0,95,207.0
7302,E3,1295.0,1.0,95,207.0
7303,F#3,1296.0,0.5,95,207.0
7304,G#3,1296.5,0.5,95,207.0
7305,A3,1297.0,0.5,95,207.0
7306,G#3,1297.5,0.5,95,207.0
7307,F#3,1298.0,0.5,95,207.0
7308,D3,1298.5,0.5,95,207.0
7309,E3,1299.0,0.5,95,207.0
7310,F#3,1299.5,0.5,95,207.0
7311,E2,1300.0,1.0,95,207.0
7312,E3,1301.0,1.0,95,207.0
7313,E2,1302.0,0.5,95,207.0
7314,E2,1302.5,0.5,95,207.0
7315,D3,1303.0,0.5,95,207.0
7316,A2,1303.5,0.5,95,207.0
7317,C#3,1304.0,0.5,95,207.0
7318,A2,1304.5,0.5,95,207.0
7319,B2,1305.0,0.5,95,207.0
7320,A2,1305.5,0.5,95,207.0
7321,E2,1306.0,1.0,95,207.0
7322,E3,1307.0,1.5,95,207.0
7323,E2,1308.5,0.5,95,207.0
7324,D3,1309.0,0.5,95,207.0
7325,C#3,1309.5,0.5,70,207.0
7326,B2,1310.0,0.5,95,207.0
7327,G#2,1310.5,0.5,95,207.0
7328,A2,1311.0,0.5,95,207.0
7329,B2,1311.5,0.5,95,207.0
7330,E2,1312.0,1.0,95,207.0
7331,E3,1313.0,1.0,95,207.0
7332,E2,1314.0,0.5,95,207.0
7333,E2,1314.5,0.5,95,207.0
7334,D3,1315.0,0.5,95,207.0
7335,A2,1315.5,0.5,95,207.0
7336,C#3,1316.0,0.5,95,207.0
7337,A2,1316.5,0.5,95,207.0
7338,B2,1317.0,0.5,95,207.0
7339,A2,1317.5,0.5,95,207.0
7340,E2,1318.0,1.0,95,207.0
7341,E3,1319.0,1.0,95,207.0
7342,F#3,1320.0,0.5,95,207.0
7343,G#3,1320.5,0.5,95,207.0
7344,A3,1321.0,0.5,95,207.0
7345,G#3,1321.5,0.5,95,207.0
7346,F#3,1322.0,0.5,95,207.0
7347,D3,1322.5,0.5,95,207.0
7348,E3,1323.0,0.5,95,207.0
7349,F#3,1323.5,0.5,95,207.0
7350,E2,1324.0,1.0,95,207.0
7351,E3,1325.0,1.0,95,207.0
7352,E2,1326.0,0.5,95,207.0
7353,E2,1326.5,0.5,95,207.0
7354,D3,1327.0,0.5,95,207.0
7355,A2,1327.5,0.5,95,207.0
7356,C#3,1328.0,0.5,95,207.0
7357,A2,1328.5,0.5,95,207.0
7358,B2,1329.0,0.5,95,207.0
7359,A2,1329.5,0.5,95,207.0
7360,E2,1330.0,1.0,95,207.0
7361,E3,1331.0,1.5,95,207.0
7362,E2,1332.5,0.5,95,207.0
7363,D3,1333.0,0.5,95,207.0
7364,C#3,1333.5,0.5,70,207.0
7365,B2,1334.0,0.5,95,207.0
7366,G#2,1334.5,0.5,95,207.0
7367,A2,1335.0,0.5,95,207.0
7368,B2,1335.5,0.5,95,207.0
7369,E2,1336.0,1.0,95,207.0
7370,E3,1337.0,1.0,95,207.0
7371,E2,1338.0,0.5,95,207.0
7372,E2,1338.5,0.5,95,207.0
7373,D3,1339.0,0.5,95,207.0
7374,A2,1339.5,0.5,95,207.0
7375,C#3,1340.0,0.5,95,207.0
7376,A2,1340.5,0.5,95,207.0
7377,B2,1341.0,0.5,95,207.0
7378,A2,1341.5,0.5,95,207.0
7379,E2,1342.0,1.0,95,207.0
7380,E3,1343.0,1.0,95,207.0
7381,F#3,1344.0,0.5,95,207.0
7382,G#3,1344.5,0.5,95,207.0
7383,A3,1345.0,0.5,95,207.0
7384,G#3,1345.5,0.5,95,207.0
7385,F#3,1346.0,0.5,95,207.0
7386,D3,1346.5,0.5,95,207.0
7387,E3,1347.0,0.5,95,207.0
7388,F#3,1347.5,0.5,95,207.0
7389,E2,1348.0,1.0,95,207.0
7390,E3,1349.0,1.0,95,207.0
7391,E2,1350.0,0.5,95,207.0
7392,E2,1350.5,0.5,95,207.0
7393,D3,1351.0,0.5,95,207.0
7394,A2,1351.5,0.5,95,207.0
7395,C#3,1352.0,0.5,95,207.0
7396,A2,1352.5,0.5,95,207.0
7397,B2,1353.0,0.5,95,207.0
7398,A2,1353.5,0.5,95,207.0
7399,E2,1354.0,1.0,95,207.0
7400,E3,1355.0,1.5,95,207.0
7401,E2,1356.5,0.5,95,207.0
7402,D3,1357.0,0.5,95,207.0
7403,C#3,1357.5,0.5,70,207.0
7404,B2,1358.0,0.5,95,207.0
7405,G#2,1358.5,0.5,95,207.0
7406,A2,1359.0,0.5,95,207.0
7407,B2,1359.5,0.5,95,207.0
7408,E2,1360.0,1.0,95,207.0
7409,E3,1361.0,1.0,95,207.0
7410,E2,1362.0,0.5,95,207.0
7411,E2,1362.5,0.5,95,207.0
7412,D3,1363.0,0.5,95,207.0
7413,A2,1363.5,0.5,95,207.0
7414,C#3,1364.0,0.5,95,207.0
7415,A2,1364.5,0.5,95,207.0
7416,B2,1365.0,0.5,95,207.0
7417,A2,1365.5,0.5,95,207.0
7418,E2,1366.0,1.0,95,207.0
7419,E3,1367.0,1.0,95,207.0
7420,F#3,1368.0,0.5,95,207.0
7421,G#3,1368.5,0.5,95,207.0
7422,A3,1369.0,0.5,95,207.0
7423,G#3,1369.5,0.5,95,207.0
7424,F#3,1370.0,0.5,95,207.0
7425,D3,1370.5,0.5,95,207.0
7426,E3,1371.0,0.5,95,207.0
7427,F#3,1371.5,0.5,95,207.0
7428,E2,1372.0,1.0,95,207.0
7429,E3,1373.0,1.0,95,207.0
7430,E2,1374.0,0.5,95,207.0
7431,E2,1374.5,0.5,95,207.0
7432,D3,1375.0,0.5,95,207.0
7433,A2,1375.5,0.5,95,207.0
7434,C#3,1376.0,0.5,95,207.0
7435,A2,1376.5,0.5,95,207.0
7436,B2,1377.0,0.5,95,207.0
7437,A2,1377.5,0.5,95,207.0
7438,E2,1378.0,1.0,95,207.0
7439,E3,1379.0,1.5,95,207.0
7440,E2,1380.5,0.5,95,207.0
7441,D3,1381.0,0.5,95,207.0
7442,C#3,1381.5,0.5,70,207.0
7443,B2,1382.0,0.5,95,207.0
7444,G#2,1382.5,0.5,95,207.0
7445,A2,1383.0,0.5,95,207.0
7446,B2,1383.5,0.5,95,207.0
7447,E2,1384.0,1.0,95,207.0
7448,E3,1385.0,1.0,95,207.0
7449,E2,1386.0,0.5,95,207.0
7450,E2,1386.5,0.5,95,207.0
7451,D3,1387.0,0.5,95,207.0
7452,A2,1387.5,0.5,95,207.0
7453,C#3,1388.0,0.5,95,207.0
7454,A2,1388.5,0.5,95,207.0
7455,B2,1389.0,0.5,95,207.0
7456,A2,1389.5,0.5,95,207.0
7457,E2,1390.0,1.0,95,207.0
7458,E3,1391.0,1.0,95,207.0
7459,F#3,1392.0,0.5,95,207.0
7460,G#3,1392.5,0.5,95,207.0
7461,A3,1393.0,0.5,95,207.0
7462,G#3,1393.5,0.5,95,207.0
7463,F#3,1394.0,0.5,95,207.0
7464,D3,1394.5,0.5,95,207.0
7465,E3,1395.0,0.5,95,207.0
7466,F#3,1395.5,0.5,95,207.0
7467,E2,1396.0,1.0,95,207.0
7468,E3,1397.0,1.0,95,207.0
7469,E2,1398.0,0.5,95,207.0
7470,E2,1398.5,0.5,95,207.0
7471,D3,1399.0,0.5,95,207.0
7472,A2,1399.5,0.5,95,207.0
7473,C#3,1400.0,0.5,95,207.0
7474,A2,1400.5,0.5,95,207.0
7475,B2,1401.0,0.5,95,207.0
7476,A2,1401.5,0.5,95,207.0
7477,E2,1402.0,1.0,95,207.0
7478,E3,1403.0,1.5,95,207.0
7479,E2,1404.5,0.5,95,207.0
7480,D3,1405.0,0.5,95,207.0
7481,C#3,1405.5,0.5,70,207.0
7482,B2,1406.0,0.5,95,207.0
7483,G#2,1406.5,0.5,95,207.0
7484,A2,1407.0,0.5,95,207.0
7485,B2,1407.5,0.5,95,207.0
