,note_name,start_time,duration,velocity,tempo
0,C#2,0.0,1.0,84,92.0
1,C#2,2.0,1.0,84,92.0
2,C#2,4.0,1.0,64,92.0
3,C#2,5.0,1.0,84,92.0
4,C#2,6.0,1.0,64,92.0
5,C#2,7.0,1.0,84,92.0
6,E-2,8.0,7/40,90,92.0
7,G3,8.0,103/40,48,92.0
8,E-2,8.0,4.0,71,92.0
9,B1,8.0,0.25,84,92.0
10,F#2,8.0,0.25,84,92.0
11,C#3,8.0,0.25,84,92.0
12,E-4,8.0,0.25,84,92.0
13,B-4,8.0,0.25,84,92.0
14,F4,8.0,1379/500,62,92.0
15,D4,8.0,1379/500,62,92.0
16,F4,8.0,4.0,45,92.0
17,D4,8.0,4.0,45,92.0
18,B-3,8.0,4.0,45,92.0
19,G4,8.0,4.0,45,92.0
20,E-2,8.25,217/1000,94,92.0
21,F#2,8.25,0.25,53,92.0
22,E-4,8.25,0.25,53,92.0
23,B-4,8.25,0.25,53,92.0
24,B-2,8.5,0.25,83,92.0
25,D4,8.5,0.25,83,92.0
26,B-4,8.5,0.25,83,92.0
27,B-4,8.75,0.25,40,92.0
28,F#2,9.0,0.25,85,92.0
29,C#2,9.0,0.25,85,92.0
30,B-4,9.0,0.25,85,92.0
31,A4,9.0,0.25,85,92.0
32,E-2,9.25,3/20,77,92.0
33,F#2,9.25,0.25,64,92.0
34,D4,9.25,0.25,64,92.0
35,B-4,9.25,0.25,64,92.0
36,A4,9.25,0.25,64,92.0
37,E-4,9.3,333/1000,80,92.0
38,F2,9.5,7/40,74,92.0
39,F#2,9.5,0.25,53,92.0
40,E-4,9.5,0.25,53,92.0
41,B-4,9.5,0.25,53,92.0
42,A4,9.5,0.25,53,92.0
43,D4,9.65,73/250,114,92.0
44,G2,9.75,3/20,90,92.0
45,F#2,9.75,0.25,51,92.0
46,E-4,9.75,0.25,51,92.0
47,B-4,9.75,0.25,51,92.0
48,E-4,9.967,179/500,74,92.0
49,F#2,10.0,0.25,80,92.0
50,B-4,10.0,0.25,80,92.0
51,G2,10.25,71/500,71,92.0
52,E-3,10.25,1.75,94,92.0
53,F#2,10.25,0.25,55,92.0
54,B-4,10.25,0.25,55,92.0
55,D4,10.358,333/1000,98,92.0
56,F2,10.5,71/500,84,92.0
57,F#2,10.5,0.25,65,92.0
58,B-4,10.5,0.25,65,92.0
59,E-4,10.625,1/5,88,92.0
60,E-2,10.75,3/20,90,92.0
61,F#2,10.75,0.25,47,92.0
62,E-4,10.75,0.25,47,92.0
63,B-4,10.75,0.25,47,92.0
64,G3,10.758,621/500,85,92.0
65,G4,10.933,171/500,85,92.0
66,D2,11.0,123/250,102,92.0
67,F#2,11.0,0.25,84,92.0
68,C#2,11.0,0.25,84,92.0
69,D4,11.0,0.25,84,92.0
70,B-4,11.0,0.25,84,92.0
71,A4,11.0,0.25,84,92.0
72,D4,11.25,0.75,68,92.0
73,F#2,11.25,0.25,55,92.0
74,D4,11.25,0.25,55,92.0
75,B-4,11.25,0.25,55,92.0
76,A4,11.25,0.25,55,92.0
77,B-4,11.317,73/250,64,92.0
78,E-2,11.5,283/1000,94,92.0
79,F4,11.5,0.5,74,92.0
80,B1,11.5,0.25,66,92.0
81,F#2,11.5,0.25,66,92.0
82,E-4,11.5,0.25,66,92.0
83,B-4,11.5,0.25,66,92.0
84,A4,11.5,0.25,66,92.0
85,D5,11.608,367/1000,85,92.0
86,F#2,11.75,0.25,41,92.0
87,E-4,11.75,0.25,41,92.0
88,B-4,11.75,0.25,41,92.0
89,E-5,11.958,21/500,66,92.0
90,F2,12.0,26/125,105,92.0
91,E-5,12.0,2133/1000,66,92.0
92,B1,12.0,0.25,85,92.0
93,F#2,12.0,0.25,85,92.0
94,E-4,12.0,0.25,85,92.0
95,B-4,12.0,0.25,85,92.0
96,F4,12.0,4.0,45,92.0
97,E-4,12.0,4.0,45,92.0
98,C4,12.0,4.0,45,92.0
99,G#4,12.0,4.0,45,92.0
100,F2,12.25,1/5,90,92.0
101,F2,12.25,3667/1000,68,92.0
102,F#2,12.25,0.25,53,92.0
103,E-4,12.25,0.25,53,92.0
104,B-4,12.25,0.25,53,92.0
105,F3,12.5,1679/500,74,92.0
106,B-2,12.5,0.25,83,92.0
107,D4,12.5,0.25,83,92.0
108,B-4,12.5,0.25,83,92.0
109,B-4,12.75,0.25,40,92.0
110,F4,12.75,3033/1000,62,92.0
111,E-4,12.75,3033/1000,62,92.0
112,G#3,12.75,3033/1000,62,92.0
113,F#2,13.0,0.25,85,92.0
114,C#2,13.0,0.25,85,92.0
115,B-4,13.0,0.25,85,92.0
116,A4,13.0,0.25,85,92.0
117,F#2,13.25,0.25,62,92.0
118,D4,13.25,0.25,62,92.0
119,B-4,13.25,0.25,62,92.0
120,A4,13.25,0.25,62,92.0
121,F#2,13.5,0.25,53,92.0
122,E-4,13.5,0.25,53,92.0
123,B-4,13.5,0.25,53,92.0
124,A4,13.5,0.25,53,92.0
125,F#2,13.75,0.25,51,92.0
126,E-4,13.75,0.25,51,92.0
127,B-4,13.75,0.25,51,92.0
128,F#2,14.0,0.25,82,92.0
129,B-4,14.0,0.25,82,92.0
130,F5,14.233,3/10,88,92.0
131,F#2,14.25,0.25,55,92.0
132,B-4,14.25,0.25,55,92.0
133,E-5,14.483,117/1000,71,92.0
134,F#2,14.5,0.25,89,92.0
135,B-4,14.5,0.25,89,92.0
136,C5,14.742,267/1000,80,92.0
137,F#2,14.75,0.25,47,92.0
138,E-4,14.75,0.25,47,92.0
139,B-4,14.75,0.25,47,92.0
140,B-4,14.992,11/20,56,92.0
141,F#2,15.0,0.25,84,92.0
142,C#2,15.0,0.25,84,92.0
143,D4,15.0,0.25,84,92.0
144,B-4,15.0,0.25,84,92.0
145,A4,15.0,0.25,84,92.0
146,C2,15.25,11/40,60,92.0
147,F#2,15.25,0.25,55,92.0
148,D4,15.25,0.25,55,92.0
149,B-4,15.25,0.25,55,92.0
150,A4,15.25,0.25,55,92.0
151,E-2,15.5,9/40,80,92.0
152,F#2,15.5,0.25,72,92.0
153,E-4,15.5,0.25,72,92.0
154,B-4,15.5,0.25,72,92.0
155,A4,15.5,0.25,72,92.0
156,C5,15.508,233/1000,78,92.0
157,F2,15.75,183/1000,105,92.0
158,B1,15.75,0.25,63,92.0
159,F#2,15.75,0.25,63,92.0
160,E-4,15.75,0.25,63,92.0
161,B-4,15.75,0.25,63,92.0
162,B-4,15.758,121/500,60,92.0
163,G2,16.0,7/40,90,92.0
164,B-3,16.0,103/40,48,92.0
165,G2,16.0,4.0,71,92.0
166,B-4,16.0,3/40,60,92.0
167,B1,16.0,0.25,85,92.0
168,F#2,16.0,0.25,85,92.0
169,E-4,16.0,0.25,85,92.0
170,B-4,16.0,0.25,85,92.0
171,G4,16.0,1379/500,62,92.0
172,F4,16.0,1379/500,62,92.0
173,F4,16.0,4.0,40,92.0
174,D4,16.0,4.0,40,92.0
175,B-3,16.0,4.0,40,92.0
176,G4,16.0,4.0,40,92.0
177,G4,16.05,121/500,74,92.0
178,G2,16.25,217/1000,94,92.0
179,F#2,16.25,0.25,53,92.0
180,E-4,16.25,0.25,53,92.0
181,B-4,16.25,0.25,53,92.0
182,B-4,16.283,49/125,62,92.0
183,B-2,16.5,0.25,83,92.0
184,D4,16.5,0.25,83,92.0
185,B-4,16.5,0.25,83,92.0
186,C5,16.6,121/500,36,92.0
187,B-4,16.75,0.25,40,92.0
188,D5,16.808,11/10,95,92.0
189,F#2,17.0,0.25,85,92.0
190,C#2,17.0,0.25,85,92.0
191,B-4,17.0,0.25,85,92.0
192,A4,17.0,0.25,85,92.0
193,G2,17.25,3/20,77,92.0
194,F#2,17.25,0.25,64,92.0
195,D4,17.25,0.25,64,92.0
196,B-4,17.25,0.25,64,92.0
197,A4,17.25,0.25,64,92.0
198,A2,17.5,7/40,74,92.0
199,F#2,17.5,0.25,53,92.0
200,E-4,17.5,0.25,53,92.0
201,B-4,17.5,0.25,53,92.0
202,A4,17.5,0.25,53,92.0
203,B-2,17.75,3/20,90,92.0
204,F#2,17.75,0.25,51,92.0
205,E-4,17.75,0.25,51,92.0
206,B-4,17.75,0.25,51,92.0
207,B-4,17.808,51/125,50,92.0
208,F#2,18.0,0.25,80,92.0
209,B-4,18.0,0.25,80,92.0
210,G4,18.042,179/500,68,92.0
211,B-2,18.25,71/500,71,92.0
212,G3,18.25,1.75,94,92.0
213,C5,18.25,73/250,66,92.0
214,F#2,18.25,0.25,55,92.0
215,B-4,18.25,0.25,55,92.0
216,D5,18.492,233/1000,78,92.0
217,A2,18.5,71/500,84,92.0
218,F#2,18.5,0.25,65,92.0
219,B-4,18.5,0.25,65,92.0
220,B-4,18.725,433/1000,59,92.0
221,G2,18.75,3/20,90,92.0
222,F#2,18.75,0.25,47,92.0
223,E-4,18.75,0.25,47,92.0
224,B-4,18.75,0.25,47,92.0
225,B-3,18.758,621/500,85,92.0
226,G4,18.992,367/1000,58,92.0
227,F2,19.0,123/250,102,92.0
228,F#2,19.0,0.25,84,92.0
229,C#2,19.0,0.25,84,92.0
230,D4,19.0,0.25,84,92.0
231,B-4,19.0,0.25,84,92.0
232,A4,19.0,0.25,84,92.0
233,F4,19.25,0.75,68,92.0
234,F#2,19.25,0.25,55,92.0
235,D4,19.25,0.25,55,92.0
236,B-4,19.25,0.25,55,92.0
237,A4,19.25,0.25,55,92.0
238,C5,19.267,483/1000,58,92.0
239,G2,19.5,283/1000,94,92.0
240,G4,19.5,0.5,74,92.0
241,B1,19.5,0.25,66,92.0
242,F#2,19.5,0.25,66,92.0
243,E-4,19.5,0.25,66,92.0
244,B-4,19.5,0.25,66,92.0
245,A4,19.5,0.25,66,92.0
246,D5,19.542,26/125,42,92.0
247,B-4,19.742,79/500,56,92.0
248,F#2,19.75,0.25,41,92.0
249,E-4,19.75,0.25,41,92.0
250,B-4,19.75,0.25,41,92.0
251,A1,20.0,183/1000,97,92.0
252,B1,20.0,0.25,85,92.0
253,F#2,20.0,0.25,85,92.0
254,E-4,20.0,0.25,85,92.0
255,B-4,20.0,0.25,85,92.0
256,G4,20.0,2.0,40,92.0
257,E4,20.0,2.0,40,92.0
258,C4,20.0,2.0,40,92.0
259,A4,20.0,2.0,40,92.0
260,G4,20.008,23/40,58,92.0
261,A1,20.25,0.5,97,92.0
262,A2,20.25,1.75,74,92.0
263,F#2,20.25,0.25,52,92.0
264,E-4,20.25,0.25,52,92.0
265,B-4,20.25,0.25,52,92.0
266,A4,20.258,367/1000,62,92.0
267,G3,20.5,1.5,85,92.0
268,F#2,20.5,0.25,80,92.0
269,D4,20.5,0.25,80,92.0
270,B-4,20.5,0.25,80,92.0
271,C5,20.525,73/250,62,92.0
272,F#2,20.75,0.25,40,92.0
273,B-4,20.75,0.25,40,92.0
274,G4,20.75,1.25,72,92.0
275,C4,20.75,1.25,72,92.0
276,E4,20.75,1.25,72,92.0
277,D5,20.775,529/500,91,92.0
278,D2,21.0,0.25,85,92.0
279,E-2,21.0,0.25,85,92.0
280,B-4,21.0,0.25,85,92.0
281,A4,21.0,0.25,85,92.0
282,D2,21.25,0.25,65,92.0
283,D4,21.25,0.25,65,92.0
284,B-4,21.25,0.25,65,92.0
285,A4,21.25,0.25,65,92.0
286,F#2,21.5,0.25,58,92.0
287,E-4,21.5,0.25,58,92.0
288,B-4,21.5,0.25,58,92.0
289,A4,21.5,0.25,58,92.0
290,D2,21.75,0.25,77,92.0
291,E-4,21.75,0.25,77,92.0
292,B-4,21.75,0.25,77,92.0
293,G4,21.783,367/1000,60,92.0
294,D2,22.0,7/40,94,92.0
295,F#2,22.0,0.25,80,92.0
296,B-4,22.0,0.25,80,92.0
297,E4,22.0,7/40,68,92.0
298,C4,22.0,7/40,68,92.0
299,A3,22.0,7/40,68,92.0
300,G4,22.0,7/40,68,92.0
301,E4,22.0,2.0,40,92.0
302,C4,22.0,2.0,40,92.0
303,A3,22.0,2.0,40,92.0
304,G4,22.0,2.0,40,92.0
305,A4,22.05,367/1000,65,92.0
306,D2,22.25,283/1000,94,92.0
307,D2,22.25,0.25,55,92.0
308,B-4,22.25,0.25,55,92.0
309,E4,22.25,0.125,81,92.0
310,C4,22.25,0.125,81,92.0
311,A3,22.25,0.125,81,92.0
312,G4,22.25,0.125,81,92.0
313,C5,22.292,217/1000,66,92.0
314,D2,22.5,0.25,85,92.0
315,B-4,22.5,0.25,85,92.0
316,D5,22.508,73/250,78,92.0
317,C3,22.75,0.25,70,92.0
318,E-4,22.75,0.25,70,92.0
319,B-4,22.75,0.25,70,92.0
320,G4,22.767,367/1000,73,92.0
321,D2,23.0,0.25,84,92.0
322,D4,23.0,0.25,84,92.0
323,E-2,23.0,0.25,84,92.0
324,B-4,23.0,0.25,84,92.0
325,A4,23.0,0.25,84,92.0
326,A4,23.017,171/500,57,92.0
327,D2,23.25,0.25,51,92.0
328,D4,23.25,0.25,51,92.0
329,E-2,23.25,0.25,51,92.0
330,B-4,23.25,0.25,51,92.0
331,A4,23.25,0.25,51,92.0
332,C5,23.283,129/500,66,92.0
333,C3,23.5,0.25,68,92.0
334,E-4,23.5,0.25,68,92.0
335,B-4,23.5,0.25,68,92.0
336,A4,23.5,0.25,68,92.0
337,G4,23.533,17/40,74,92.0
338,A2,23.75,27/250,71,92.0
339,B1,23.75,0.25,60,92.0
340,E-4,23.75,0.25,60,92.0
341,B-4,23.75,0.25,60,92.0
342,A2,23.867,17/1000,63,92.0
343,E-2,24.0,7/40,90,92.0
344,G3,24.0,326/125,63,92.0
345,F4,24.0,3217/1000,81,92.0
346,D4,24.0,2867/1000,77,92.0
347,E-2,24.0,19/5,77,92.0
348,B1,24.0,0.25,84,92.0
349,F#2,24.0,0.25,84,92.0
350,C#3,24.0,0.25,84,92.0
351,E-4,24.0,0.25,84,92.0
352,B-4,24.0,0.25,84,92.0
353,F4,24.0,4.0,45,92.0
354,D4,24.0,4.0,45,92.0
355,B-3,24.0,4.0,45,92.0
356,G4,24.0,4.0,45,92.0
357,E-5,24.033,221/500,64,92.0
358,E-2,24.25,217/1000,94,92.0
359,F#2,24.25,0.25,53,92.0
360,E-4,24.25,0.25,53,92.0
361,B-4,24.25,0.25,53,92.0
362,B-2,24.5,0.25,83,92.0
363,D4,24.5,0.25,83,92.0
364,B-4,24.5,0.25,83,92.0
365,D5,24.508,179/500,80,92.0
366,B-4,24.75,0.25,40,92.0
367,B-4,24.775,267/1000,63,92.0
368,F#2,25.0,0.25,85,92.0
369,C#2,25.0,0.25,85,92.0
370,B-4,25.0,0.25,85,92.0
371,A4,25.0,0.25,85,92.0
372,E-2,25.25,3/20,77,92.0
373,F#2,25.25,0.25,64,92.0
374,D4,25.25,0.25,64,92.0
375,B-4,25.25,0.25,64,92.0
376,A4,25.25,0.25,64,92.0
377,G4,25.275,179/500,78,92.0
378,F2,25.5,7/40,74,92.0
379,F#2,25.5,0.25,53,92.0
380,E-4,25.5,0.25,53,92.0
381,B-4,25.5,0.25,53,92.0
382,A4,25.5,0.25,53,92.0
383,G2,25.75,3/20,90,92.0
384,F#2,25.75,0.25,51,92.0
385,E-4,25.75,0.25,51,92.0
386,B-4,25.75,0.25,51,92.0
387,E-4,25.758,121/500,62,92.0
388,F#2,26.0,0.25,80,92.0
389,B-4,26.0,0.25,80,92.0
390,D4,26.242,19/40,68,92.0
391,G2,26.25,71/500,71,92.0
392,E-3,26.25,1483/1000,77,92.0
393,F#2,26.25,0.25,55,92.0
394,B-4,26.25,0.25,55,92.0
395,F2,26.5,71/500,84,92.0
396,F#2,26.5,0.25,65,92.0
397,B-4,26.5,0.25,65,92.0
398,B-3,26.717,11/20,48,92.0
399,E-2,26.75,3/20,90,92.0
400,G3,26.75,41/40,90,92.0
401,F#2,26.75,0.25,47,92.0
402,E-4,26.75,0.25,47,92.0
403,B-4,26.75,0.25,47,92.0
404,D2,27.0,123/250,102,92.0
405,F#2,27.0,0.25,84,92.0
406,C#2,27.0,0.25,84,92.0
407,D4,27.0,0.25,84,92.0
408,B-4,27.0,0.25,84,92.0
409,A4,27.0,0.25,84,92.0
410,G3,27.233,567/1000,68,92.0
411,D4,27.25,517/1000,60,92.0
412,F#2,27.25,0.25,55,92.0
413,D4,27.25,0.25,55,92.0
414,B-4,27.25,0.25,55,92.0
415,A4,27.25,0.25,55,92.0
416,E-2,27.5,283/1000,94,92.0
417,F4,27.5,267/1000,81,92.0
418,B1,27.5,0.25,66,92.0
419,F#2,27.5,0.25,66,92.0
420,E-4,27.5,0.25,66,92.0
421,B-4,27.5,0.25,66,92.0
422,A4,27.5,0.25,66,92.0
423,F#2,27.75,0.25,41,92.0
424,E-4,27.75,0.25,41,92.0
425,B-4,27.75,0.25,41,92.0
426,F2,28.0,24/125,90,92.0
427,F3,28.0,4.0,81,92.0
428,B1,28.0,0.25,85,92.0
429,F#2,28.0,0.25,85,92.0
430,E-4,28.0,0.25,85,92.0
431,B-4,28.0,0.25,85,92.0
432,F4,28.0,4.0,45,92.0
433,E-4,28.0,4.0,45,92.0
434,C4,28.0,4.0,45,92.0
435,G#4,28.0,4.0,45,92.0
436,F3,28.05,367/1000,65,92.0
437,F2,28.25,217/1000,94,92.0
438,G#3,28.25,3.75,65,92.0
439,F#2,28.25,0.25,53,92.0
440,E-4,28.25,0.25,53,92.0
441,B-4,28.25,0.25,53,92.0
442,G3,28.275,417/1000,78,92.0
443,C4,28.5,223/250,60,92.0
444,B-2,28.5,0.25,83,92.0
445,D4,28.5,0.25,83,92.0
446,B-4,28.5,0.25,83,92.0
447,G#3,28.733,217/1000,67,92.0
448,B-4,28.75,0.25,40,92.0
449,E-4,28.75,27/250,39,92.0
450,F#2,29.0,0.25,85,92.0
451,C#2,29.0,0.25,85,92.0
452,B-4,29.0,0.25,85,92.0
453,A4,29.0,0.25,85,92.0
454,C5,29.0,183/1000,99,92.0
455,G#4,29.0,183/1000,99,92.0
456,E-4,29.0,183/1000,99,92.0
457,B-3,29.008,0.125,124,92.0
458,F#2,29.25,0.25,62,92.0
459,D4,29.25,0.25,62,92.0
460,B-4,29.25,0.25,62,92.0
461,A4,29.25,0.25,62,92.0
462,E-4,29.25,0.25,85,92.0
463,B-4,29.25,0.25,85,92.0
464,G4,29.25,0.25,85,92.0
465,C4,29.267,233/1000,68,92.0
466,C4,29.5,2.5,68,92.0
467,F#2,29.5,0.25,53,92.0
468,E-4,29.5,0.25,53,92.0
469,B-4,29.5,0.25,53,92.0
470,A4,29.5,0.25,53,92.0
471,E-4,29.508,167/1000,124,92.0
472,F#2,29.75,0.25,51,92.0
473,E-4,29.75,0.25,51,92.0
474,B-4,29.75,0.25,51,92.0
475,F4,29.75,79/500,42,92.0
476,G#4,29.75,79/500,42,92.0
477,E-4,29.75,79/500,42,92.0
478,F4,29.792,217/1000,63,92.0
479,F#2,30.0,0.25,80,92.0
480,B-4,30.0,0.25,80,92.0
481,G4,30.042,26/125,88,92.0
482,C2,30.25,17/40,101,92.0
483,F#2,30.25,0.25,55,92.0
484,B-4,30.25,0.25,55,92.0
485,G#4,30.25,171/500,93,92.0
486,C5,30.25,171/500,93,92.0
487,E-4,30.25,171/500,93,92.0
488,G#4,30.3,67/1000,63,92.0
489,F#2,30.5,0.25,65,92.0
490,B-4,30.5,0.25,65,92.0
491,B-4,30.508,71/500,124,92.0
492,E-2,30.75,517/1000,66,92.0
493,F#2,30.75,0.25,47,92.0
494,E-4,30.75,0.25,47,92.0
495,B-4,30.75,0.25,47,92.0
496,B-4,30.75,1.25,58,92.0
497,G4,30.75,1.25,58,92.0
498,E-4,30.75,1.25,58,92.0
499,C5,30.825,71/500,98,92.0
500,F#2,31.0,0.25,84,92.0
501,C#2,31.0,0.25,84,92.0
502,D4,31.0,0.25,84,92.0
503,B-4,31.0,0.25,84,92.0
504,A4,31.0,0.25,84,92.0
505,D5,31.042,3/20,62,92.0
506,C5,31.042,3/20,62,92.0
507,G2,31.25,233/1000,87,92.0
508,F#2,31.25,0.25,55,92.0
509,D4,31.25,0.25,55,92.0
510,B-4,31.25,0.25,55,92.0
511,A4,31.25,0.25,55,92.0
512,E-5,31.292,129/500,78,92.0
513,F2,31.5,11/40,105,92.0
514,F#2,31.5,0.25,60,92.0
515,E-4,31.5,0.25,60,92.0
516,B-4,31.5,0.25,60,92.0
517,A4,31.5,0.25,60,92.0
518,F5,31.508,183/1000,76,92.0
519,G5,31.742,133/1000,85,92.0
520,B1,31.75,0.25,50,92.0
521,F#2,31.75,0.25,50,92.0
522,E-4,31.75,0.25,50,92.0
523,B-4,31.75,0.25,50,92.0
524,G5,31.967,33/1000,71,92.0
525,G2,32.0,183/1000,87,92.0
526,B-3,32.0,326/125,63,92.0
527,G4,32.0,3217/1000,81,92.0
528,F4,32.0,2867/1000,77,92.0
529,G2,32.0,19/5,77,92.0
530,G5,32.0,267/1000,71,92.0
531,B1,32.0,0.25,85,92.0
532,F#2,32.0,0.25,85,92.0
533,E-4,32.0,0.25,85,92.0
534,B-4,32.0,0.25,85,92.0
535,F4,32.0,4.0,45,92.0
536,D4,32.0,4.0,45,92.0
537,B-3,32.0,4.0,45,92.0
538,G4,32.0,4.0,45,92.0
539,G2,32.25,26/125,97,92.0
540,F#2,32.25,0.25,53,92.0
541,E-4,32.25,0.25,53,92.0
542,B-4,32.25,0.25,53,92.0
543,B-5,32.258,171/500,114,92.0
544,B-2,32.5,0.25,83,92.0
545,D4,32.5,0.25,83,92.0
546,B-4,32.5,0.25,83,92.0
547,G5,32.533,23/250,66,92.0
548,B-4,32.75,0.25,40,92.0
549,G5,32.775,129/500,56,92.0
550,F#2,33.0,0.25,85,92.0
551,C#2,33.0,0.25,85,92.0
552,B-4,33.0,0.25,85,92.0
553,A4,33.0,0.25,85,92.0
554,F5,33.033,417/1000,80,92.0
555,D2,33.25,183/1000,63,92.0
556,F#2,33.25,0.25,64,92.0
557,D4,33.25,0.25,64,92.0
558,B-4,33.25,0.25,64,92.0
559,A4,33.25,0.25,64,92.0
560,F2,33.5,79/500,85,92.0
561,F#2,33.5,0.25,53,92.0
562,E-4,33.5,0.25,53,92.0
563,B-4,33.5,0.25,53,92.0
564,A4,33.5,0.25,53,92.0
565,G2,33.75,7/40,65,92.0
566,F#2,33.75,0.25,51,92.0
567,E-4,33.75,0.25,51,92.0
568,B-4,33.75,0.25,51,92.0
569,C5,33.8,1/5,62,92.0
570,D5,33.9,233/1000,73,92.0
571,A2,34.0,7/20,74,92.0
572,F#2,34.0,0.25,80,92.0
573,B-4,34.0,0.25,80,92.0
574,B-2,34.25,0.125,94,92.0
575,G3,34.25,1483/1000,77,92.0
576,F#2,34.25,0.25,55,92.0
577,B-4,34.25,0.25,55,92.0
578,D5,34.292,24/125,91,92.0
579,C3,34.5,1/5,74,92.0
580,F#2,34.5,0.25,65,92.0
581,B-4,34.5,0.25,65,92.0
582,B-4,34.517,0.25,68,92.0
583,B-2,34.75,483/1000,81,92.0
584,B-3,34.75,41/40,90,92.0
585,F#2,34.75,0.25,47,92.0
586,E-4,34.75,0.25,47,92.0
587,B-4,34.75,0.25,47,92.0
588,G4,34.783,21/40,82,92.0
589,F#2,35.0,0.25,84,92.0
590,C#2,35.0,0.25,84,92.0
591,D4,35.0,0.25,84,92.0
592,B-4,35.0,0.25,84,92.0
593,A4,35.0,0.25,84,92.0
594,A2,35.25,233/1000,87,92.0
595,F4,35.25,517/1000,60,92.0
596,F4,35.25,267/1000,64,92.0
597,F#2,35.25,0.25,55,92.0
598,D4,35.25,0.25,55,92.0
599,B-4,35.25,0.25,55,92.0
600,A4,35.25,0.25,55,92.0
601,G2,35.5,77/250,84,92.0
602,G4,35.5,267/1000,81,92.0
603,B1,35.5,0.25,66,92.0
604,F#2,35.5,0.25,66,92.0
605,E-4,35.5,0.25,66,92.0
606,B-4,35.5,0.25,66,92.0
607,A4,35.5,0.25,66,92.0
608,G4,35.508,229/500,88,92.0
609,F#2,35.75,0.25,41,92.0
610,E-4,35.75,0.25,41,92.0
611,B-4,35.75,0.25,41,92.0
612,A1,36.0,7/40,94,92.0
613,B1,36.0,0.25,85,92.0
614,F#2,36.0,0.25,85,92.0
615,E-4,36.0,0.25,85,92.0
616,B-4,36.0,0.25,85,92.0
617,G4,36.0,2.0,45,92.0
618,E4,36.0,2.0,45,92.0
619,C4,36.0,2.0,45,92.0
620,A4,36.0,2.0,45,92.0
621,A4,36.008,333/1000,71,92.0
622,A1,36.25,283/1000,94,92.0
623,A2,36.25,1.75,74,92.0
624,B-2,36.25,0.25,53,92.0
625,E-4,36.25,0.25,53,92.0
626,B-4,36.25,0.25,53,92.0
627,C5,36.258,76/125,62,92.0
628,E3,36.5,1.5,74,92.0
629,F#2,36.5,0.25,80,92.0
630,D4,36.5,0.25,80,92.0
631,B-4,36.5,0.25,80,92.0
632,D5,36.533,23/250,73,92.0
633,F#2,36.75,0.25,50,92.0
634,B-4,36.75,0.25,50,92.0
635,G3,36.75,1.25,56,92.0
636,E4,36.75,1.25,56,92.0
637,C4,36.75,1.25,56,92.0
638,G4,36.8,21/40,76,92.0
639,D2,37.0,0.25,88,92.0
640,B-2,37.0,0.25,88,92.0
641,E-2,37.0,0.25,88,92.0
642,B-4,37.0,0.25,88,92.0
643,A4,37.0,0.25,88,92.0
644,D4,37.25,0.25,60,92.0
645,B-4,37.25,0.25,60,92.0
646,A4,37.25,0.25,60,92.0
647,A4,37.258,3/10,80,92.0
648,E-4,37.5,0.25,51,92.0
649,B-4,37.5,0.25,51,92.0
650,A4,37.5,0.25,51,92.0
651,C5,37.517,267/1000,88,92.0
652,E2,37.75,27/250,71,92.0
653,E-4,37.75,0.25,65,92.0
654,B-4,37.75,0.25,65,92.0
655,D5,37.775,267/1000,76,92.0
656,E2,37.867,17/1000,63,92.0
657,D2,38.0,183/1000,94,92.0
658,C3,38.0,0.25,85,92.0
659,B-4,38.0,0.25,85,92.0
660,G4,38.0,2.0,47,92.0
661,D3,38.0,2.0,47,92.0
662,A4,38.0,2.0,47,92.0
663,C4,38.0,2.0,47,92.0
664,A3,38.0,2.0,47,92.0
665,G4,38.0,2.0,45,92.0
666,E4,38.0,2.0,45,92.0
667,C4,38.0,2.0,45,92.0
668,A4,38.0,2.0,45,92.0
669,G4,38.008,417/1000,73,92.0
670,D2,38.25,217/1000,94,92.0
671,F#2,38.25,0.25,48,92.0
672,B-4,38.25,0.25,48,92.0
673,A4,38.283,333/1000,85,92.0
674,F#2,38.5,0.25,75,92.0
675,B-4,38.5,0.25,75,92.0
676,C5,38.542,11/40,82,92.0
677,A2,38.75,0.25,73,92.0
678,E-4,38.75,0.25,73,92.0
679,B-4,38.75,0.25,73,92.0
680,D5,38.783,121/500,66,92.0
681,D2,39.0,0.25,86,92.0
682,D4,39.0,0.25,86,92.0
683,E-2,39.0,0.25,86,92.0
684,B-4,39.0,0.25,86,92.0
685,A4,39.0,0.25,86,92.0
686,G4,39.042,433/1000,70,92.0
687,D2,39.25,0.25,55,92.0
688,D4,39.25,0.25,55,92.0
689,E-2,39.25,0.25,55,92.0
690,B-4,39.25,0.25,55,92.0
691,A4,39.25,0.25,55,92.0
692,A4,39.292,11/40,58,92.0
693,F#2,39.5,0.25,63,92.0
694,E-4,39.5,0.25,63,92.0
695,B-4,39.5,0.25,63,92.0
696,A4,39.5,0.25,63,92.0
697,C5,39.508,283/1000,82,92.0
698,G4,39.733,267/1000,67,92.0
699,D2,39.75,1/5,90,92.0
700,F#2,39.75,0.25,44,92.0
701,E-4,39.75,0.25,44,92.0
702,B-4,39.75,0.25,44,92.0
703,E-2,40.0,79/500,97,92.0
704,G4,40.0,99/125,67,92.0
705,B1,40.0,0.25,84,92.0
706,F#2,40.0,0.25,84,92.0
707,C#3,40.0,0.25,84,92.0
708,E-4,40.0,0.25,84,92.0
709,B-4,40.0,0.25,84,92.0
710,F4,40.0,4.0,40,92.0
711,D4,40.0,4.0,40,92.0
712,B-3,40.0,4.0,40,92.0
713,G4,40.0,4.0,40,92.0
714,G3,40.033,1633/1000,74,92.0
715,G4,40.033,1633/1000,74,92.0
716,G3,40.033,1633/1000,74,92.0
717,E-2,40.25,3/20,101,92.0
718,E-2,40.25,3667/1000,68,92.0
719,F#2,40.25,0.25,53,92.0
720,E-4,40.25,0.25,53,92.0
721,B-4,40.25,0.25,53,92.0
722,E-3,40.5,1679/500,74,92.0
723,B-2,40.5,0.25,83,92.0
724,D4,40.5,0.25,83,92.0
725,B-4,40.5,0.25,83,92.0
726,B-4,40.75,0.25,40,92.0
727,F4,40.75,3033/1000,62,92.0
728,D4,40.75,3033/1000,62,92.0
729,G3,40.75,3033/1000,62,92.0
730,G5,40.95,817/1000,104,92.0
731,G4,40.95,817/1000,104,92.0
732,G4,41.0,817/1000,104,92.0
733,F#2,41.0,0.25,85,92.0
734,C#2,41.0,0.25,85,92.0
735,B-4,41.0,0.25,85,92.0
736,A4,41.0,0.25,85,92.0
737,E-2,41.25,71/500,97,92.0
738,F#2,41.25,0.25,64,92.0
739,D4,41.25,0.25,64,92.0
740,B-4,41.25,0.25,64,92.0
741,A4,41.25,0.25,64,92.0
742,B-1,41.5,79/500,65,92.0
743,F#2,41.5,0.25,53,92.0
744,E-4,41.5,0.25,53,92.0
745,B-4,41.5,0.25,53,92.0
746,A4,41.5,0.25,53,92.0
747,B-4,41.708,633/1000,109,92.0
748,B-5,41.708,633/1000,109,92.0
749,B-4,41.708,633/1000,109,92.0
750,G1,41.75,233/1000,90,92.0
751,F#2,41.75,0.25,51,92.0
752,E-4,41.75,0.25,51,92.0
753,B-4,41.75,0.25,51,92.0
754,F#2,42.0,0.25,80,92.0
755,B-4,42.0,0.25,80,92.0
756,G1,42.25,217/1000,94,92.0
757,F#2,42.25,0.25,55,92.0
758,B-4,42.25,0.25,55,92.0
759,G#1,42.5,121/500,81,92.0
760,G4,42.5,1/5,107,92.0
761,F#2,42.5,0.25,65,92.0
762,B-4,42.5,0.25,65,92.0
763,G5,42.5,1/5,127,92.0
764,G4,42.5,1/5,127,92.0
765,F4,42.75,1/5,109,92.0
766,F#2,42.75,0.25,47,92.0
767,E-4,42.75,0.25,47,92.0
768,B-4,42.75,0.25,47,92.0
769,F5,42.75,1/5,127,92.0
770,F4,42.75,1/5,127,92.0
771,B-1,43.0,17/40,90,92.0
772,G4,43.0,1.0,127,92.0
773,F#2,43.0,0.25,84,92.0
774,C#2,43.0,0.25,84,92.0
775,D4,43.0,0.25,84,92.0
776,B-4,43.0,0.25,84,92.0
777,A4,43.0,0.25,84,92.0
778,G5,43.0,1.0,127,92.0
779,G4,43.0,1.0,127,92.0
780,F#2,43.25,0.25,55,92.0
781,D4,43.25,0.25,55,92.0
782,B-4,43.25,0.25,55,92.0
783,A4,43.25,0.25,55,92.0
784,D2,43.5,121/500,70,92.0
785,B1,43.5,0.25,66,92.0
786,F#2,43.5,0.25,66,92.0
787,E-4,43.5,0.25,66,92.0
788,B-4,43.5,0.25,66,92.0
789,A4,43.5,0.25,66,92.0
790,E-2,43.75,3/20,101,92.0
791,F#2,43.75,0.25,41,92.0
792,E-4,43.75,0.25,41,92.0
793,B-4,43.75,0.25,41,92.0
794,F2,44.0,7/40,97,92.0
795,G#3,44.0,326/125,63,92.0
796,F4,44.0,3217/1000,81,92.0
797,E-4,44.0,2867/1000,77,92.0
798,F2,44.0,19/5,77,92.0
799,G4,44.0,11/5,127,92.0
800,B1,44.0,0.25,85,92.0
801,F#2,44.0,0.25,85,92.0
802,E-4,44.0,0.25,85,92.0
803,B-4,44.0,0.25,85,92.0
804,F4,44.0,4.0,40,92.0
805,E-4,44.0,4.0,40,92.0
806,C4,44.0,4.0,40,92.0
807,G#4,44.0,4.0,40,92.0
808,G5,44.0,11/5,127,92.0
809,G4,44.0,11/5,127,92.0
810,F2,44.25,483/1000,94,92.0
811,F#2,44.25,0.25,53,92.0
812,E-4,44.25,0.25,53,92.0
813,B-4,44.25,0.25,53,92.0
814,B-2,44.5,0.25,83,92.0
815,D4,44.5,0.25,83,92.0
816,B-4,44.5,0.25,83,92.0
817,B-4,44.75,0.25,40,92.0
818,F#2,45.0,0.25,85,92.0
819,C#2,45.0,0.25,85,92.0
820,B-4,45.0,0.25,85,92.0
821,A4,45.0,0.25,85,92.0
822,F#2,45.25,0.25,62,92.0
823,D4,45.25,0.25,62,92.0
824,B-4,45.25,0.25,62,92.0
825,A4,45.25,0.25,62,92.0
826,F#2,45.5,0.25,53,92.0
827,E-4,45.5,0.25,53,92.0
828,B-4,45.5,0.25,53,92.0
829,A4,45.5,0.25,53,92.0
830,F#2,45.75,0.25,51,92.0
831,E-4,45.75,0.25,51,92.0
832,B-4,45.75,0.25,51,92.0
833,F#2,46.0,0.25,88,92.0
834,D4,46.0,0.25,88,92.0
835,B-4,46.0,0.25,88,92.0
836,F3,46.25,1483/1000,77,92.0
837,F#2,46.25,0.25,55,92.0
838,B-4,46.25,0.25,55,92.0
839,F#2,46.5,0.25,60,92.0
840,B-4,46.5,0.25,60,92.0
841,G#3,46.75,267/1000,102,92.0
842,G#3,46.75,41/40,90,92.0
843,F#2,46.75,0.25,47,92.0
844,E-4,46.75,0.25,47,92.0
845,B-4,46.75,0.25,47,92.0
846,F#2,47.0,0.25,84,92.0
847,C#2,47.0,0.25,84,92.0
848,D4,47.0,0.25,84,92.0
849,B-4,47.0,0.25,84,92.0
850,A4,47.0,0.25,84,92.0
851,G3,47.017,13/40,77,92.0
852,C2,47.25,7/20,94,92.0
853,E-4,47.25,517/1000,60,92.0
854,F#2,47.25,0.25,55,92.0
855,D4,47.25,0.25,55,92.0
856,B-4,47.25,0.25,55,92.0
857,A4,47.25,0.25,55,92.0
858,E-2,47.5,283/1000,96,92.0
859,F4,47.5,267/1000,81,92.0
860,F#2,47.5,0.25,60,92.0
861,E-4,47.5,0.25,60,92.0
862,B-4,47.5,0.25,60,92.0
863,A4,47.5,0.25,60,92.0
864,F2,47.75,7/40,113,92.0
865,B1,47.75,0.25,50,92.0
866,F#2,47.75,0.25,50,92.0
867,E-4,47.75,0.25,50,92.0
868,B-4,47.75,0.25,50,92.0
869,G3,47.967,33/1000,92,92.0
870,G4,47.967,33/1000,92,92.0
871,G4,47.967,33/1000,92,92.0
872,G3,47.967,33/1000,92,92.0
873,G5,47.967,33/1000,92,92.0
874,G4,47.967,33/1000,92,92.0
875,G2,48.0,7/40,90,92.0
876,G2,48.0,4.0,65,92.0
877,B1,48.0,0.25,85,92.0
878,F#2,48.0,0.25,85,92.0
879,E-4,48.0,0.25,85,92.0
880,B-4,48.0,0.25,85,92.0
881,B-3,48.0,283/1000,73,92.0
882,D4,48.0,283/1000,73,92.0
883,F3,48.0,283/1000,73,92.0
884,F4,48.0,4.0,40,92.0
885,D4,48.0,4.0,40,92.0
886,B-3,48.0,4.0,40,92.0
887,G4,48.0,4.0,40,92.0
888,G3,48.0,933/1000,92,92.0
889,G4,48.0,933/1000,92,92.0
890,G4,48.0,933/1000,92,92.0
891,G3,48.0,933/1000,92,92.0
892,G5,48.0,933/1000,92,92.0
893,G4,48.0,933/1000,92,92.0
894,G2,48.25,217/1000,94,92.0
895,F#2,48.25,0.25,53,92.0
896,E-4,48.25,0.25,53,92.0
897,B-4,48.25,0.25,53,92.0
898,D3,48.275,149/40,68,92.0
899,B-2,48.5,0.25,83,92.0
900,D4,48.5,0.25,83,92.0
901,B-4,48.5,0.25,83,92.0
902,B-3,48.5,71/500,38,92.0
903,D4,48.5,71/500,38,92.0
904,F3,48.5,71/500,38,92.0
905,B-4,48.75,0.25,40,92.0
906,C4,48.75,183/1000,84,92.0
907,F3,48.75,71/500,75,92.0
908,A3,48.75,71/500,75,92.0
909,F#2,49.0,0.25,85,92.0
910,C#2,49.0,0.25,85,92.0
911,B-4,49.0,0.25,85,92.0
912,A4,49.0,0.25,85,92.0
913,G4,49.017,733/1000,82,92.0
914,G5,49.017,177/250,75,92.0
915,G4,49.017,177/250,75,92.0
916,G4,49.017,321/500,75,92.0
917,G3,49.017,321/500,75,92.0
918,G3,49.042,321/500,68,92.0
919,G2,49.25,3/20,77,92.0
920,F#2,49.25,0.25,64,92.0
921,D4,49.25,0.25,64,92.0
922,B-4,49.25,0.25,64,92.0
923,A4,49.25,0.25,64,92.0
924,B-3,49.25,2.75,65,92.0
925,F3,49.25,2.75,65,92.0
926,D4,49.25,2.75,65,92.0
927,A2,49.5,7/40,74,92.0
928,F#2,49.5,0.25,53,92.0
929,E-4,49.5,0.25,53,92.0
930,B-4,49.5,0.25,53,92.0
931,A4,49.5,0.25,53,92.0
932,B-4,49.742,7/10,88,92.0
933,B-5,49.742,683/1000,90,92.0
934,B-4,49.742,683/1000,90,92.0
935,B-4,49.742,617/1000,90,92.0
936,B-3,49.742,617/1000,90,92.0
937,B-2,49.75,3/20,90,92.0
938,F#2,49.75,0.25,51,92.0
939,E-4,49.75,0.25,51,92.0
940,B-4,49.75,0.25,51,92.0
941,B-3,49.758,617/1000,91,92.0
942,F#2,50.0,0.25,80,92.0
943,B-4,50.0,0.25,80,92.0
944,B-2,50.25,71/500,71,92.0
945,F#2,50.25,0.25,55,92.0
946,B-4,50.25,0.25,55,92.0
947,G4,50.45,1/5,68,92.0
948,G3,50.45,1/5,68,92.0
949,G5,50.45,1/5,68,92.0
950,G4,50.45,1/5,68,92.0
951,G4,50.45,1/5,68,92.0
952,G3,50.45,1/5,68,92.0
953,A2,50.5,71/500,84,92.0
954,F#2,50.5,0.25,65,92.0
955,B-4,50.5,0.25,65,92.0
956,F4,50.667,3/10,64,92.0
957,F5,50.667,3/10,64,92.0
958,F4,50.667,3/10,64,92.0
959,F3,50.7,333/1000,63,92.0
960,F4,50.7,333/1000,63,92.0
961,F3,50.7,333/1000,63,92.0
962,G2,50.75,3/20,90,92.0
963,F#2,50.75,0.25,47,92.0
964,E-4,50.75,0.25,47,92.0
965,B-4,50.75,0.25,47,92.0
966,G4,50.975,41/40,66,92.0
967,G3,50.975,41/40,66,92.0
968,G5,50.975,41/40,66,92.0
969,G4,50.975,41/40,66,92.0
970,G4,50.975,41/40,66,92.0
971,G3,50.975,41/40,66,92.0
972,F2,51.0,123/250,102,92.0
973,F#2,51.0,0.25,84,92.0
974,C#2,51.0,0.25,84,92.0
975,D4,51.0,0.25,84,92.0
976,B-4,51.0,0.25,84,92.0
977,A4,51.0,0.25,84,92.0
978,F#2,51.25,0.25,55,92.0
979,D4,51.25,0.25,55,92.0
980,B-4,51.25,0.25,55,92.0
981,A4,51.25,0.25,55,92.0
982,G2,51.5,283/1000,94,92.0
983,B1,51.5,0.25,66,92.0
984,F#2,51.5,0.25,66,92.0
985,E-4,51.5,0.25,66,92.0
986,B-4,51.5,0.25,66,92.0
987,A4,51.5,0.25,66,92.0
988,F#2,51.75,0.25,41,92.0
989,E-4,51.75,0.25,41,92.0
990,B-4,51.75,0.25,41,92.0
991,A1,52.0,7/40,94,92.0
992,B1,52.0,0.25,85,92.0
993,D2,52.0,0.25,85,92.0
994,E-4,52.0,0.25,85,92.0
995,B-4,52.0,0.25,85,92.0
996,G4,52.0,2.0,45,92.0
997,E4,52.0,2.0,45,92.0
998,C4,52.0,2.0,45,92.0
999,A4,52.0,2.0,45,92.0
1000,G4,52.0,3617/1000,66,92.0
1001,G3,52.0,3617/1000,66,92.0
1002,G5,52.0,3617/1000,66,92.0
1003,G4,52.0,3617/1000,66,92.0
1004,G4,52.0,3617/1000,66,92.0
1005,G3,52.0,3617/1000,66,92.0
1006,A1,52.25,283/1000,94,92.0
1007,A2,52.25,1.75,74,92.0
1008,D2,52.25,0.25,53,92.0
1009,E-4,52.25,0.25,53,92.0
1010,B-4,52.25,0.25,53,92.0
1011,G3,52.5,1.5,85,92.0
1012,C3,52.5,0.25,83,92.0
1013,D4,52.5,0.25,83,92.0
1014,B-4,52.5,0.25,83,92.0
1015,D2,52.75,0.25,31,92.0
1016,B-4,52.75,0.25,31,92.0
1017,G4,52.75,1.25,72,92.0
1018,C4,52.75,1.25,72,92.0
1019,E4,52.75,1.25,72,92.0
1020,D2,53.0,0.25,65,92.0
1021,E-2,53.0,0.25,65,92.0
1022,B-4,53.0,0.25,65,92.0
1023,A4,53.0,0.25,65,92.0
1024,A2,53.25,0.25,68,92.0
1025,D4,53.25,0.25,68,92.0
1026,B-4,53.25,0.25,68,92.0
1027,A4,53.25,0.25,68,92.0
1028,B1,53.5,0.25,60,92.0
1029,E-4,53.5,0.25,60,92.0
1030,B-4,53.5,0.25,60,92.0
1031,A4,53.5,0.25,60,92.0
1032,E2,53.75,27/250,71,92.0
1033,D2,53.75,0.25,77,92.0
1034,E-4,53.75,0.25,77,92.0
1035,B-4,53.75,0.25,77,92.0
1036,E2,53.867,17/1000,63,92.0
1037,D2,54.0,183/1000,94,92.0
1038,F2,54.0,0.25,80,92.0
1039,B-4,54.0,0.25,80,92.0
1040,G4,54.0,2.0,40,92.0
1041,E4,54.0,2.0,40,92.0
1042,C4,54.0,2.0,40,92.0
1043,A4,54.0,2.0,40,92.0
1044,D2,54.25,217/1000,94,92.0
1045,D3,54.25,1.75,74,92.0
1046,B-2,54.25,0.25,55,92.0
1047,B-4,54.25,0.25,55,92.0
1048,C4,54.5,1.5,85,92.0
1049,D2,54.5,0.25,24,92.0
1050,F#2,54.5,0.25,24,92.0
1051,B-2,54.5,0.25,24,92.0
1052,B-4,54.5,0.25,24,92.0
1053,B1,54.75,0.25,70,92.0
1054,E-4,54.75,0.25,70,92.0
1055,B-4,54.75,0.25,70,92.0
1056,C5,54.75,1.25,72,92.0
1057,G4,54.75,1.25,72,92.0
1058,A4,54.75,1.25,72,92.0
1059,D2,55.0,0.25,86,92.0
1060,D4,55.0,0.25,86,92.0
1061,E-2,55.0,0.25,86,92.0
1062,B-4,55.0,0.25,86,92.0
1063,A4,55.0,0.25,86,92.0
1064,D2,55.25,0.25,55,92.0
1065,D4,55.25,0.25,55,92.0
1066,E-2,55.25,0.25,55,92.0
1067,B-4,55.25,0.25,55,92.0
1068,A4,55.25,0.25,55,92.0
1069,D2,55.5,0.25,54,92.0
1070,E-4,55.5,0.25,54,92.0
1071,B-4,55.5,0.25,54,92.0
1072,A4,55.5,0.25,54,92.0
1073,D2,55.75,1/5,90,92.0
1074,D2,55.75,0.25,67,92.0
1075,E-4,55.75,0.25,67,92.0
1076,B-4,55.75,0.25,67,92.0
1077,G4,55.983,17/1000,102,92.0
1078,G3,55.983,17/1000,102,92.0
1079,G5,55.983,17/1000,102,92.0
1080,G4,55.983,17/1000,102,92.0
1081,G4,55.983,17/1000,102,92.0
1082,G3,55.983,17/1000,102,92.0
1083,E-2,56.0,183/1000,87,92.0
1084,G3,56.0,103/40,48,92.0
1085,E-2,56.0,4.0,71,92.0
1086,B1,56.0,0.25,84,92.0
1087,F#2,56.0,0.25,84,92.0
1088,C#3,56.0,0.25,84,92.0
1089,E-4,56.0,0.25,84,92.0
1090,B-4,56.0,0.25,84,92.0
1091,F4,56.0,1379/500,62,92.0
1092,D4,56.0,1379/500,62,92.0
1093,F4,56.0,4.0,40,92.0
1094,D4,56.0,4.0,40,92.0
1095,B-3,56.0,4.0,40,92.0
1096,G4,56.0,4.0,40,92.0
1097,G4,56.0,17/20,102,92.0
1098,G3,56.0,17/20,102,92.0
1099,G5,56.0,17/20,102,92.0
1100,G4,56.0,17/20,102,92.0
1101,G4,56.0,17/20,102,92.0
1102,G3,56.0,17/20,102,92.0
1103,E-2,56.25,26/125,97,92.0
1104,F#2,56.25,0.25,53,92.0
1105,E-4,56.25,0.25,53,92.0
1106,B-4,56.25,0.25,53,92.0
1107,B-2,56.5,0.25,83,92.0
1108,D4,56.5,0.25,83,92.0
1109,B-4,56.5,0.25,83,92.0
1110,B-4,56.75,0.25,40,92.0
1111,F#2,57.0,0.25,85,92.0
1112,C#2,57.0,0.25,85,92.0
1113,B-4,57.0,0.25,85,92.0
1114,A4,57.0,0.25,85,92.0
1115,G4,57.0,4/5,84,92.0
1116,G3,57.0,4/5,84,92.0
1117,G5,57.0,4/5,84,92.0
1118,G4,57.0,4/5,84,92.0
1119,G4,57.0,4/5,84,92.0
1120,G3,57.0,4/5,84,92.0
1121,B-1,57.25,183/1000,63,92.0
1122,F#2,57.25,0.25,64,92.0
1123,D4,57.25,0.25,64,92.0
1124,B-4,57.25,0.25,64,92.0
1125,A4,57.25,0.25,64,92.0
1126,D2,57.5,79/500,85,92.0
1127,F#2,57.5,0.25,53,92.0
1128,E-4,57.5,0.25,53,92.0
1129,B-4,57.5,0.25,53,92.0
1130,A4,57.5,0.25,53,92.0
1131,B-3,57.733,76/125,78,92.0
1132,B-4,57.733,76/125,78,92.0
1133,B-3,57.733,76/125,78,92.0
1134,E-2,57.75,7/40,65,92.0
1135,B-4,57.75,683/1000,109,92.0
1136,F#2,57.75,0.25,51,92.0
1137,E-4,57.75,0.25,51,92.0
1138,B-4,57.75,0.25,51,92.0
1139,B-5,57.75,683/1000,109,92.0
1140,B-4,57.75,683/1000,109,92.0
1141,F2,58.0,7/20,74,92.0
1142,F#2,58.0,0.25,80,92.0
1143,B-4,58.0,0.25,80,92.0
1144,G2,58.25,0.125,94,92.0
1145,E-3,58.25,1.75,94,92.0
1146,F#2,58.25,0.25,55,92.0
1147,B-4,58.25,0.25,55,92.0
1148,G4,58.45,183/1000,68,92.0
1149,G3,58.45,183/1000,68,92.0
1150,G5,58.45,183/1000,68,92.0
1151,G4,58.45,183/1000,68,92.0
1152,G4,58.45,183/1000,68,92.0
1153,G3,58.45,183/1000,68,92.0
1154,G#2,58.5,1/5,74,92.0
1155,F#2,58.5,0.25,65,92.0
1156,B-4,58.5,0.25,65,92.0
1157,F3,58.642,433/1000,52,92.0
1158,F4,58.642,433/1000,52,92.0
1159,F3,58.642,433/1000,52,92.0
1160,F4,58.725,77/250,63,92.0
1161,F5,58.725,7/20,63,92.0
1162,F4,58.725,7/20,63,92.0
1163,G2,58.75,483/1000,81,92.0
1164,F#2,58.75,0.25,47,92.0
1165,E-4,58.75,0.25,47,92.0
1166,B-4,58.75,0.25,47,92.0
1167,G3,58.758,621/500,85,92.0
1168,G3,58.967,1033/1000,63,92.0
1169,G4,58.967,1033/1000,63,92.0
1170,G3,58.967,1033/1000,63,92.0
1171,G4,59.0,1.0,64,92.0
1172,F#2,59.0,0.25,84,92.0
1173,C#2,59.0,0.25,84,92.0
1174,D4,59.0,0.25,84,92.0
1175,B-4,59.0,0.25,84,92.0
1176,A4,59.0,0.25,84,92.0
1177,G5,59.0,1.0,64,92.0
1178,G4,59.0,1.0,64,92.0
1179,F2,59.25,233/1000,87,92.0
1180,D4,59.25,0.75,68,92.0
1181,F#2,59.25,0.25,55,92.0
1182,D4,59.25,0.25,55,92.0
1183,B-4,59.25,0.25,55,92.0
1184,A4,59.25,0.25,55,92.0
1185,E-2,59.5,77/250,84,92.0
1186,F4,59.5,0.5,74,92.0
1187,B1,59.5,0.25,66,92.0
1188,F#2,59.5,0.25,66,92.0
1189,E-4,59.5,0.25,66,92.0
1190,B-4,59.5,0.25,66,92.0
1191,A4,59.5,0.25,66,92.0
1192,F#2,59.75,0.25,41,92.0
1193,E-4,59.75,0.25,41,92.0
1194,B-4,59.75,0.25,41,92.0
1195,F2,60.0,79/500,97,92.0
1196,G#4,60.0,17/40,66,92.0
1197,G3,60.0,2417/1000,63,92.0
1198,G4,60.0,3433/1000,64,92.0
1199,B1,60.0,0.25,85,92.0
1200,F#2,60.0,0.25,85,92.0
1201,E-4,60.0,0.25,85,92.0
1202,B-4,60.0,0.25,85,92.0
1203,C5,60.0,483/1000,63,92.0
1204,F3,60.0,483/1000,63,92.0
1205,E-4,60.0,483/1000,63,92.0
1206,F4,60.0,4.0,45,92.0
1207,E-4,60.0,4.0,45,92.0
1208,C4,60.0,4.0,45,92.0
1209,G#4,60.0,4.0,45,92.0
1210,G4,60.0,2417/1000,63,92.0
1211,G3,60.0,2417/1000,63,92.0
1212,G5,60.0,3433/1000,64,92.0
1213,G4,60.0,3433/1000,64,92.0
1214,F2,60.25,3/20,101,92.0
1215,F#2,60.25,0.25,53,92.0
1216,E-4,60.25,0.25,53,92.0
1217,B-4,60.25,0.25,53,92.0
1218,B-2,60.5,0.25,83,92.0
1219,D4,60.5,0.25,83,92.0
1220,B-4,60.5,0.25,83,92.0
1221,B-4,60.75,0.25,40,92.0
1222,E-4,60.75,1533/1000,52,92.0
1223,F3,60.75,13/10,84,92.0
1224,C5,60.75,276/125,70,92.0
1225,G#4,60.75,276/125,70,92.0
1226,F#2,61.0,0.25,85,92.0
1227,C#2,61.0,0.25,85,92.0
1228,B-4,61.0,0.25,85,92.0
1229,A4,61.0,0.25,85,92.0
1230,F2,61.25,71/500,97,92.0
1231,F#2,61.25,0.25,62,92.0
1232,D4,61.25,0.25,62,92.0
1233,B-4,61.25,0.25,62,92.0
1234,A4,61.25,0.25,62,92.0
1235,C2,61.5,79/500,65,92.0
1236,F#2,61.5,0.25,53,92.0
1237,E-4,61.5,0.25,53,92.0
1238,B-4,61.5,0.25,53,92.0
1239,A4,61.5,0.25,53,92.0
1240,G#1,61.75,233/1000,90,92.0
1241,F#2,61.75,0.25,51,92.0
1242,E-4,61.75,0.25,51,92.0
1243,B-4,61.75,0.25,51,92.0
1244,F#2,62.0,0.25,80,92.0
1245,B-4,62.0,0.25,80,92.0
1246,G#1,62.25,217/1000,94,92.0
1247,F3,62.25,1.75,81,92.0
1248,F#2,62.25,0.25,55,92.0
1249,B-4,62.25,0.25,55,92.0
1250,B-1,62.5,121/500,81,92.0
1251,C4,62.5,1.5,58,92.0
1252,F#2,62.5,0.25,65,92.0
1253,B-4,62.5,0.25,65,92.0
1254,E-4,62.75,1.25,85,92.0
1255,F#2,62.75,0.25,47,92.0
1256,E-4,62.75,0.25,47,92.0
1257,B-4,62.75,0.25,47,92.0
1258,C2,63.0,17/40,90,92.0
1259,G4,63.0,1.0,81,92.0
1260,F#2,63.0,0.25,84,92.0
1261,C#2,63.0,0.25,84,92.0
1262,D4,63.0,0.25,84,92.0
1263,B-4,63.0,0.25,84,92.0
1264,A4,63.0,0.25,84,92.0
1265,G#4,63.25,171/500,90,92.0
1266,F#2,63.25,0.25,55,92.0
1267,D4,63.25,0.25,55,92.0
1268,B-4,63.25,0.25,55,92.0
1269,A4,63.25,0.25,55,92.0
1270,E-2,63.5,121/500,70,92.0
1271,E-5,63.5,0.375,63,92.0
1272,F#2,63.5,0.25,60,92.0
1273,E-4,63.5,0.25,60,92.0
1274,B-4,63.5,0.25,60,92.0
1275,A4,63.5,0.25,60,92.0
1276,F2,63.75,3/20,101,92.0
1277,C5,63.75,0.25,63,92.0
1278,B1,63.75,0.25,50,92.0
1279,F#2,63.75,0.25,50,92.0
1280,E-4,63.75,0.25,50,92.0
1281,B-4,63.75,0.25,50,92.0
1282,G2,64.0,183/1000,87,92.0
1283,G2,64.0,4.0,65,92.0
1284,B1,64.0,0.25,85,92.0
1285,F#2,64.0,0.25,85,92.0
1286,E-4,64.0,0.25,85,92.0
1287,B-4,64.0,0.25,85,92.0
1288,B-3,64.0,283/1000,73,92.0
1289,D4,64.0,283/1000,73,92.0
1290,F3,64.0,283/1000,73,92.0
1291,F4,64.0,4.0,45,92.0
1292,D4,64.0,4.0,45,92.0
1293,B-3,64.0,4.0,45,92.0
1294,G4,64.0,4.0,45,92.0
1295,G5,64.008,227/250,82,92.0
1296,G4,64.008,227/250,82,92.0
1297,G6,64.008,227/250,82,92.0
1298,G5,64.008,227/250,82,92.0
1299,G5,64.008,227/250,82,92.0
1300,G4,64.008,227/250,82,92.0
1301,G2,64.25,26/125,97,92.0
1302,F#2,64.25,0.25,53,92.0
1303,E-4,64.25,0.25,53,92.0
1304,B-4,64.25,0.25,53,92.0
1305,D3,64.275,149/40,68,92.0
1306,B-2,64.5,0.25,83,92.0
1307,D4,64.5,0.25,83,92.0
1308,B-4,64.5,0.25,83,92.0
1309,B-3,64.5,71/500,38,92.0
1310,D4,64.5,71/500,38,92.0
1311,F3,64.5,71/500,38,92.0
1312,B-4,64.75,0.25,40,92.0
1313,C4,64.75,183/1000,84,92.0
1314,F3,64.75,71/500,75,92.0
1315,A3,64.75,71/500,75,92.0
1316,F#2,65.0,0.25,85,92.0
1317,C#2,65.0,0.25,85,92.0
1318,B-4,65.0,0.25,85,92.0
1319,A4,65.0,0.25,85,92.0
1320,G5,65.008,7/10,76,92.0
1321,G4,65.008,7/10,76,92.0
1322,G6,65.008,7/10,76,92.0
1323,G5,65.008,7/10,76,92.0
1324,G5,65.008,7/10,76,92.0
1325,G4,65.008,7/10,76,92.0
1326,D2,65.25,183/1000,63,92.0
1327,F#2,65.25,0.25,64,92.0
1328,D4,65.25,0.25,64,92.0
1329,B-4,65.25,0.25,64,92.0
1330,A4,65.25,0.25,64,92.0
1331,B-3,65.25,2.75,65,92.0
1332,F3,65.25,2.75,65,92.0
1333,D4,65.25,2.75,65,92.0
1334,F2,65.5,79/500,85,92.0
1335,F#2,65.5,0.25,53,92.0
1336,E-4,65.5,0.25,53,92.0
1337,B-4,65.5,0.25,53,92.0
1338,A4,65.5,0.25,53,92.0
1339,B-4,65.725,31/40,80,92.0
1340,B-5,65.725,31/40,80,92.0
1341,B-5,65.725,31/40,80,92.0
1342,B-4,65.725,31/40,80,92.0
1343,B-6,65.725,31/40,80,92.0
1344,B-5,65.725,31/40,80,92.0
1345,G2,65.75,7/40,65,92.0
1346,F#2,65.75,0.25,51,92.0
1347,E-4,65.75,0.25,51,92.0
1348,B-4,65.75,0.25,51,92.0
1349,A2,66.0,7/20,74,92.0
1350,F#2,66.0,0.25,80,92.0
1351,B-4,66.0,0.25,80,92.0
1352,B-2,66.25,0.125,94,92.0
1353,F#2,66.25,0.25,55,92.0
1354,B-4,66.25,0.25,55,92.0
1355,C3,66.5,1/5,74,92.0
1356,G5,66.5,11/40,74,92.0
1357,F#2,66.5,0.25,65,92.0
1358,B-4,66.5,0.25,65,92.0
1359,G6,66.5,129/500,70,92.0
1360,G5,66.5,129/500,70,92.0
1361,G5,66.5,183/1000,70,92.0
1362,G4,66.5,183/1000,70,92.0
1363,G4,66.517,183/1000,66,92.0
1364,B-2,66.75,483/1000,81,92.0
1365,F#2,66.75,0.25,47,92.0
1366,E-4,66.75,0.25,47,92.0
1367,B-4,66.75,0.25,47,92.0
1368,F5,66.758,11/40,42,92.0
1369,F4,66.758,11/40,42,92.0
1370,F6,66.758,11/40,42,92.0
1371,F5,66.758,11/40,42,92.0
1372,F5,66.758,11/40,42,92.0
1373,F4,66.758,11/40,42,92.0
1374,G4,67.0,1.0,65,92.0
1375,F#2,67.0,0.25,84,92.0
1376,C#2,67.0,0.25,84,92.0
1377,D4,67.0,0.25,84,92.0
1378,B-4,67.0,0.25,84,92.0
1379,A4,67.0,0.25,84,92.0
1380,G5,67.0,1.0,70,92.0
1381,G6,67.0,1.0,70,92.0
1382,G4,67.0,1.0,70,92.0
1383,G5,67.0,1.0,70,92.0
1384,G5,67.025,39/40,74,92.0
1385,A2,67.25,233/1000,87,92.0
1386,F#2,67.25,0.25,55,92.0
1387,D4,67.25,0.25,55,92.0
1388,B-4,67.25,0.25,55,92.0
1389,A4,67.25,0.25,55,92.0
1390,G2,67.5,77/250,84,92.0
1391,B1,67.5,0.25,66,92.0
1392,F#2,67.5,0.25,66,92.0
1393,E-4,67.5,0.25,66,92.0
1394,B-4,67.5,0.25,66,92.0
1395,A4,67.5,0.25,66,92.0
1396,F#2,67.75,0.25,41,92.0
1397,E-4,67.75,0.25,41,92.0
1398,B-4,67.75,0.25,41,92.0
1399,A1,68.0,7/40,94,92.0
1400,G4,68.0,817/1000,65,92.0
1401,G5,68.0,19/40,74,92.0
1402,B1,68.0,0.25,85,92.0
1403,F#2,68.0,0.25,85,92.0
1404,E-4,68.0,0.25,85,92.0
1405,B-4,68.0,0.25,85,92.0
1406,G4,68.0,7/40,68,92.0
1407,E4,68.0,7/40,68,92.0
1408,C4,68.0,7/40,68,92.0
1409,A4,68.0,7/40,68,92.0
1410,G4,68.0,2.0,45,92.0
1411,E4,68.0,2.0,45,92.0
1412,C4,68.0,2.0,45,92.0
1413,A4,68.0,2.0,45,92.0
1414,G5,68.0,9/20,70,92.0
1415,G6,68.0,9/20,70,92.0
1416,G4,68.0,99/125,70,92.0
1417,G5,68.0,99/125,70,92.0
1418,A1,68.25,283/1000,94,92.0
1419,F#2,68.25,0.25,53,92.0
1420,E-4,68.25,0.25,53,92.0
1421,B-4,68.25,0.25,53,92.0
1422,G4,68.25,0.125,81,92.0
1423,E4,68.25,0.125,81,92.0
1424,C4,68.25,0.125,81,92.0
1425,A4,68.25,0.125,81,92.0
1426,B-2,68.5,0.25,83,92.0
1427,D4,68.5,0.25,83,92.0
1428,B-4,68.5,0.25,83,92.0
1429,B-4,68.75,0.25,40,92.0
1430,F#2,69.0,0.25,85,92.0
1431,C#2,69.0,0.25,85,92.0
1432,B-4,69.0,0.25,85,92.0
1433,A4,69.0,0.25,85,92.0
1434,F#2,69.25,0.25,62,92.0
1435,D4,69.25,0.25,62,92.0
1436,B-4,69.25,0.25,62,92.0
1437,A4,69.25,0.25,62,92.0
1438,F#2,69.5,0.25,53,92.0
1439,E-4,69.5,0.25,53,92.0
1440,B-4,69.5,0.25,53,92.0
1441,A4,69.5,0.25,53,92.0
1442,E2,69.75,27/250,71,92.0
1443,B-2,69.75,0.25,67,92.0
1444,E-4,69.75,0.25,67,92.0
1445,B-4,69.75,0.25,67,92.0
1446,E2,69.867,17/1000,63,92.0
1447,D2,70.0,183/1000,94,92.0
1448,F#2,70.0,0.25,88,92.0
1449,D4,70.0,0.25,88,92.0
1450,B-4,70.0,0.25,88,92.0
1451,G4,70.0,7/40,68,92.0
1452,E4,70.0,7/40,68,92.0
1453,C4,70.0,7/40,68,92.0
1454,A4,70.0,7/40,68,92.0
1455,G4,70.0,2.0,45,92.0
1456,E4,70.0,2.0,45,92.0
1457,C4,70.0,2.0,45,92.0
1458,A4,70.0,2.0,45,92.0
1459,D2,70.25,217/1000,94,92.0
1460,F#2,70.25,0.25,55,92.0
1461,B-4,70.25,0.25,55,92.0
1462,G4,70.25,0.125,81,92.0
1463,E4,70.25,0.125,81,92.0
1464,C4,70.25,0.125,81,92.0
1465,A4,70.25,0.125,81,92.0
1466,F#2,70.5,0.25,60,92.0
1467,B-4,70.5,0.25,60,92.0
1468,F#2,70.75,0.25,47,92.0
1469,E-4,70.75,0.25,47,92.0
1470,B-4,70.75,0.25,47,92.0
1471,D4,70.983,171/500,109,92.0
1472,D5,70.983,171/500,109,92.0
1473,D4,70.983,171/500,109,92.0
1474,F#2,71.0,0.25,84,92.0
1475,C#2,71.0,0.25,84,92.0
1476,D4,71.0,0.25,84,92.0
1477,B-4,71.0,0.25,84,92.0
1478,A4,71.0,0.25,84,92.0
1479,F#2,71.25,0.25,55,92.0
1480,D4,71.25,0.25,55,92.0
1481,B-4,71.25,0.25,55,92.0
1482,A4,71.25,0.25,55,92.0
1483,G4,71.325,0.25,95,92.0
1484,G5,71.325,0.25,95,92.0
1485,G4,71.325,0.25,95,92.0
1486,F#2,71.5,0.25,60,92.0
1487,E-4,71.5,0.25,60,92.0
1488,B-4,71.5,0.25,60,92.0
1489,A4,71.5,0.25,60,92.0
1490,A4,71.642,333/1000,104,92.0
1491,A5,71.642,333/1000,104,92.0
1492,A4,71.642,333/1000,104,92.0
1493,D2,71.75,1/5,90,92.0
1494,B1,71.75,0.25,50,92.0
1495,F#2,71.75,0.25,50,92.0
1496,E-4,71.75,0.25,50,92.0
1497,B-4,71.75,0.25,50,92.0
1498,E-2,72.0,24/125,90,92.0
1499,B1,72.0,0.25,85,92.0
1500,F#2,72.0,0.25,85,92.0
1501,E-4,72.0,0.25,85,92.0
1502,B-4,72.0,0.25,85,92.0
1503,F4,72.0,4.0,45,92.0
1504,D4,72.0,4.0,45,92.0
1505,B-3,72.0,4.0,45,92.0
1506,G4,72.0,4.0,45,92.0
1507,B-4,72.025,1217/1000,60,92.0
1508,B-5,72.025,1217/1000,60,92.0
1509,B-4,72.025,1217/1000,60,92.0
1510,E-2,72.25,217/1000,94,92.0
1511,E-2,72.25,3667/1000,68,92.0
1512,F#2,72.25,0.25,53,92.0
1513,E-4,72.25,0.25,53,92.0
1514,B-4,72.25,0.25,53,92.0
1515,E-3,72.5,1679/500,74,92.0
1516,B-2,72.5,0.25,83,92.0
1517,D4,72.5,0.25,83,92.0
1518,B-4,72.5,0.25,83,92.0
1519,B-4,72.75,0.25,40,92.0
1520,F4,72.75,3033/1000,62,92.0
1521,D4,72.75,3033/1000,62,92.0
1522,G3,72.75,3033/1000,62,92.0
1523,F#2,73.0,0.25,85,92.0
1524,C#2,73.0,0.25,85,92.0
1525,B-4,73.0,0.25,85,92.0
1526,A4,73.0,0.25,85,92.0
1527,F#2,73.25,0.25,64,92.0
1528,D4,73.25,0.25,64,92.0
1529,B-4,73.25,0.25,64,92.0
1530,A4,73.25,0.25,64,92.0
1531,B-4,73.467,24/125,104,92.0
1532,B-5,73.467,24/125,104,92.0
1533,B-4,73.467,24/125,104,92.0
1534,F#2,73.5,0.25,53,92.0
1535,E-4,73.5,0.25,53,92.0
1536,B-4,73.5,0.25,53,92.0
1537,A4,73.5,0.25,53,92.0
1538,F#2,73.75,0.25,51,92.0
1539,E-4,73.75,0.25,51,92.0
1540,B-4,73.75,0.25,51,92.0
1541,B-4,73.792,2/5,95,92.0
1542,B-5,73.792,2/5,95,92.0
1543,B-4,73.792,2/5,95,92.0
1544,F#2,74.0,0.25,80,92.0
1545,B-4,74.0,0.25,80,92.0
1546,C5,74.167,51/125,91,92.0
1547,C6,74.167,51/125,91,92.0
1548,C5,74.167,51/125,91,92.0
1549,B-1,74.25,17/40,101,92.0
1550,B-2,74.25,0.25,56,92.0
1551,B-4,74.25,0.25,56,92.0
1552,F#2,74.5,0.25,65,92.0
1553,B-4,74.5,0.25,65,92.0
1554,B-4,74.533,9/20,91,92.0
1555,B-5,74.533,9/20,91,92.0
1556,B-4,74.533,9/20,91,92.0
1557,D2,74.75,517/1000,66,92.0
1558,F#2,74.75,0.25,47,92.0
1559,E-4,74.75,0.25,47,92.0
1560,B-4,74.75,0.25,47,92.0
1561,A4,74.892,27/40,80,92.0
1562,A5,74.892,27/40,80,92.0
1563,A4,74.892,27/40,80,92.0
1564,F#2,75.0,0.25,84,92.0
1565,C#2,75.0,0.25,84,92.0
1566,D4,75.0,0.25,84,92.0
1567,B-4,75.0,0.25,84,92.0
1568,A4,75.0,0.25,84,92.0
1569,F2,75.25,233/1000,87,92.0
1570,F#2,75.25,0.25,55,92.0
1571,D4,75.25,0.25,55,92.0
1572,B-4,75.25,0.25,55,92.0
1573,A4,75.25,0.25,55,92.0
1574,E-2,75.5,11/40,105,92.0
1575,B1,75.5,0.25,66,92.0
1576,F#2,75.5,0.25,66,92.0
1577,E-4,75.5,0.25,66,92.0
1578,B-4,75.5,0.25,66,92.0
1579,A4,75.5,0.25,66,92.0
1580,G4,75.558,267/1000,63,92.0
1581,G5,75.558,267/1000,63,92.0
1582,G4,75.558,267/1000,63,92.0
1583,F#2,75.75,0.25,41,92.0
1584,E-4,75.75,0.25,41,92.0
1585,B-4,75.75,0.25,41,92.0
1586,A4,75.817,183/1000,82,92.0
1587,A5,75.817,183/1000,82,92.0
1588,A4,75.817,183/1000,82,92.0
1589,B-1,76.0,26/125,105,92.0
1590,A4,76.0,29/500,82,92.0
1591,B1,76.0,0.25,85,92.0
1592,F#2,76.0,0.25,85,92.0
1593,E-4,76.0,0.25,85,92.0
1594,B-4,76.0,0.25,85,92.0
1595,D4,76.0,4.0,45,92.0
1596,C4,76.0,4.0,45,92.0
1597,A3,76.0,4.0,45,92.0
1598,F4,76.0,4.0,45,92.0
1599,A5,76.0,29/500,82,92.0
1600,A4,76.0,29/500,82,92.0
1601,B-4,76.075,383/1000,73,92.0
1602,B-5,76.075,383/1000,73,92.0
1603,B-4,76.075,383/1000,73,92.0
1604,B-1,76.25,1/5,90,92.0
1605,B-2,76.25,3667/1000,68,92.0
1606,F#2,76.25,0.25,53,92.0
1607,E-4,76.25,0.25,53,92.0
1608,B-4,76.25,0.25,53,92.0
1609,F3,76.5,1679/500,74,92.0
1610,A4,76.5,217/1000,60,92.0
1611,B-2,76.5,0.25,83,92.0
1612,D4,76.5,0.25,83,92.0
1613,B-4,76.5,0.25,83,92.0
1614,A5,76.5,217/1000,60,92.0
1615,A4,76.5,217/1000,60,92.0
1616,B-4,76.75,0.25,40,92.0
1617,F4,76.75,3033/1000,62,92.0
1618,D4,76.75,3033/1000,62,92.0
1619,A3,76.75,3033/1000,62,92.0
1620,B-4,76.775,1.625,64,92.0
1621,B-5,76.775,1.625,64,92.0
1622,B-4,76.775,1.625,64,92.0
1623,F#2,77.0,0.25,85,92.0
1624,C#2,77.0,0.25,85,92.0
1625,B-4,77.0,0.25,85,92.0
1626,A4,77.0,0.25,85,92.0
1627,F#2,77.25,0.25,62,92.0
1628,D4,77.25,0.25,62,92.0
1629,B-4,77.25,0.25,62,92.0
1630,A4,77.25,0.25,62,92.0
1631,F#2,77.5,0.25,53,92.0
1632,E-4,77.5,0.25,53,92.0
1633,B-4,77.5,0.25,53,92.0
1634,A4,77.5,0.25,53,92.0
1635,F#2,77.75,0.25,51,92.0
1636,E-4,77.75,0.25,51,92.0
1637,B-4,77.75,0.25,51,92.0
1638,F#2,78.0,0.25,82,92.0
1639,B-4,78.0,0.25,82,92.0
1640,F#2,78.25,0.25,55,92.0
1641,B-4,78.25,0.25,55,92.0
1642,F#2,78.5,0.25,60,92.0
1643,B-4,78.5,0.25,60,92.0
1644,F#2,78.75,0.25,47,92.0
1645,E-4,78.75,0.25,47,92.0
1646,B-4,78.75,0.25,47,92.0
1647,F#2,79.0,0.25,84,92.0
1648,C#2,79.0,0.25,84,92.0
1649,D4,79.0,0.25,84,92.0
1650,B-4,79.0,0.25,84,92.0
1651,A4,79.0,0.25,84,92.0
1652,F1,79.25,11/40,60,92.0
1653,F#2,79.25,0.25,55,92.0
1654,D4,79.25,0.25,55,92.0
1655,B-4,79.25,0.25,55,92.0
1656,A4,79.25,0.25,55,92.0
1657,F4,79.492,83/1000,76,92.0
1658,F5,79.492,83/1000,76,92.0
1659,F4,79.492,83/1000,76,92.0
1660,A1,79.5,9/40,80,92.0
1661,F#2,79.5,0.25,60,92.0
1662,E-4,79.5,0.25,60,92.0
1663,B-4,79.5,0.25,60,92.0
1664,A4,79.5,0.25,60,92.0
1665,F4,79.733,267/1000,68,92.0
1666,F5,79.733,267/1000,68,92.0
1667,F4,79.733,267/1000,68,92.0
1668,B-1,79.75,183/1000,105,92.0
1669,B1,79.75,0.25,50,92.0
1670,F#2,79.75,0.25,50,92.0
1671,E-4,79.75,0.25,50,92.0
1672,B-4,79.75,0.25,50,92.0
1673,G#4,79.967,33/1000,114,92.0
1674,G#5,79.967,33/1000,114,92.0
1675,G#4,79.967,33/1000,114,92.0
1676,G#2,80.0,167/1000,81,92.0
1677,F4,80.0,329/500,68,92.0
1678,G#4,80.0,7/10,114,92.0
1679,B1,80.0,0.25,85,92.0
1680,F#2,80.0,0.25,85,92.0
1681,E-4,80.0,0.25,85,92.0
1682,B-4,80.0,0.25,85,92.0
1683,F#4,80.0,7/40,68,92.0
1684,E-4,80.0,7/40,68,92.0
1685,B3,80.0,7/40,68,92.0
1686,G#4,80.0,7/40,68,92.0
1687,F#4,80.0,2.0,40,92.0
1688,E-4,80.0,2.0,40,92.0
1689,B3,80.0,2.0,40,92.0
1690,G#4,80.0,2.0,40,92.0
1691,F5,80.0,329/500,68,92.0
1692,F4,80.0,329/500,68,92.0
1693,G#5,80.0,7/10,114,92.0
1694,G#4,80.0,7/10,114,92.0
1695,G#2,80.25,26/125,90,92.0
1696,F#2,80.25,0.25,53,92.0
1697,E-4,80.25,0.25,53,92.0
1698,B-4,80.25,0.25,53,92.0
1699,F#4,80.25,0.125,81,92.0
1700,E-4,80.25,0.125,81,92.0
1701,B3,80.25,0.125,81,92.0
1702,G#4,80.25,0.125,81,92.0
1703,B-2,80.5,0.25,83,92.0
1704,D4,80.5,0.25,83,92.0
1705,B-4,80.5,0.25,83,92.0
1706,B-4,80.75,0.25,40,92.0
1707,F4,80.775,129/500,63,92.0
1708,F5,80.775,129/500,63,92.0
1709,F4,80.775,129/500,63,92.0
1710,F#2,81.0,0.25,85,92.0
1711,C#2,81.0,0.25,85,92.0
1712,B-4,81.0,0.25,85,92.0
1713,A4,81.0,0.25,85,92.0
1714,G#4,81.033,77/250,104,92.0
1715,G#5,81.033,77/250,104,92.0
1716,G#4,81.033,77/250,104,92.0
1717,E-2,81.25,217/1000,94,92.0
1718,F#2,81.25,0.25,64,92.0
1719,D4,81.25,0.25,64,92.0
1720,B-4,81.25,0.25,64,92.0
1721,A4,81.25,0.25,64,92.0
1722,F4,81.292,1/10,58,92.0
1723,F5,81.292,1/10,58,92.0
1724,F4,81.292,1/10,58,92.0
1725,G#2,81.5,121/500,65,92.0
1726,F4,81.5,99/125,63,92.0
1727,F#2,81.5,0.25,53,92.0
1728,E-4,81.5,0.25,53,92.0
1729,B-4,81.5,0.25,53,92.0
1730,A4,81.5,0.25,53,92.0
1731,F5,81.5,99/125,63,92.0
1732,F4,81.5,99/125,63,92.0
1733,B2,81.75,26/125,105,92.0
1734,F#2,81.75,0.25,51,92.0
1735,E-4,81.75,0.25,51,92.0
1736,B-4,81.75,0.25,51,92.0
1737,B-4,81.767,467/1000,114,92.0
1738,B-5,81.767,467/1000,114,92.0
1739,B-4,81.767,467/1000,114,92.0
1740,C#2,82.0,183/1000,97,92.0
1741,F#2,82.0,0.25,80,92.0
1742,B-4,82.0,0.25,80,92.0
1743,F4,82.0,7/40,68,92.0
1744,E-4,82.0,7/40,68,92.0
1745,B3,82.0,7/40,68,92.0
1746,B-4,82.0,7/40,68,92.0
1747,F4,82.0,2.0,45,92.0
1748,E-4,82.0,2.0,45,92.0
1749,B3,82.0,2.0,45,92.0
1750,B-4,82.0,2.0,45,92.0
1751,C#2,82.25,0.5,97,92.0
1752,F#2,82.25,0.25,55,92.0
1753,B-4,82.25,0.25,55,92.0
1754,F4,82.25,0.125,81,92.0
1755,E-4,82.25,0.125,81,92.0
1756,B3,82.25,0.125,81,92.0
1757,B-4,82.25,0.125,81,92.0
1758,G#4,82.258,49/125,114,92.0
1759,G#5,82.258,49/125,114,92.0
1760,G#4,82.258,49/125,114,92.0
1761,F#2,82.5,0.25,65,92.0
1762,B-4,82.5,0.25,65,92.0
1763,F#2,82.75,0.25,47,92.0
1764,E-4,82.75,0.25,47,92.0
1765,B-4,82.75,0.25,47,92.0
1766,F4,82.758,833/1000,73,92.0
1767,F5,82.758,833/1000,73,92.0
1768,F4,82.758,833/1000,73,92.0
1769,F#2,83.0,0.25,84,92.0
1770,C#2,83.0,0.25,84,92.0
1771,D4,83.0,0.25,84,92.0
1772,B-4,83.0,0.25,84,92.0
1773,A4,83.0,0.25,84,92.0
1774,F#2,83.25,0.25,55,92.0
1775,D4,83.25,0.25,55,92.0
1776,B-4,83.25,0.25,55,92.0
1777,A4,83.25,0.25,55,92.0
1778,B1,83.5,0.25,66,92.0
1779,F#2,83.5,0.25,66,92.0
1780,E-4,83.5,0.25,66,92.0
1781,B-4,83.5,0.25,66,92.0
1782,A4,83.5,0.25,66,92.0
1783,F4,83.75,0.25,64,92.0
1784,F#2,83.75,0.25,41,92.0
1785,E-4,83.75,0.25,41,92.0
1786,B-4,83.75,0.25,41,92.0
1787,F5,83.75,0.25,64,92.0
1788,F4,83.75,0.25,64,92.0
1789,F#2,84.0,7/40,90,92.0
1790,B-3,84.0,103/40,48,92.0
1791,F#2,84.0,4.0,71,92.0
1792,F4,84.0,1/20,64,92.0
1793,B1,84.0,0.25,85,92.0
1794,F#2,84.0,0.25,85,92.0
1795,E-4,84.0,0.25,85,92.0
1796,B-4,84.0,0.25,85,92.0
1797,G#4,84.0,1379/500,62,92.0
1798,F4,84.0,1379/500,62,92.0
1799,B-4,84.0,4.0,40,92.0
1800,G#4,84.0,4.0,40,92.0
1801,F4,84.0,4.0,40,92.0
1802,C#5,84.0,4.0,40,92.0
1803,F5,84.0,1/20,64,92.0
1804,F4,84.0,1/20,64,92.0
1805,G#4,84.025,367/1000,124,92.0
1806,G#5,84.025,367/1000,124,92.0
1807,G#4,84.025,367/1000,124,92.0
1808,F#2,84.25,217/1000,94,92.0
1809,F#2,84.25,0.25,53,92.0
1810,E-4,84.25,0.25,53,92.0
1811,B-4,84.25,0.25,53,92.0
1812,B-2,84.5,0.25,83,92.0
1813,D4,84.5,0.25,83,92.0
1814,B-4,84.5,0.25,83,92.0
1815,F4,84.517,283/1000,43,92.0
1816,F5,84.517,283/1000,43,92.0
1817,F4,84.517,283/1000,43,92.0
1818,B-4,84.75,0.25,40,92.0
1819,G#4,84.75,829/500,64,92.0
1820,G#5,84.75,829/500,64,92.0
1821,G#4,84.75,829/500,64,92.0
1822,F#2,85.0,0.25,85,92.0
1823,C#2,85.0,0.25,85,92.0
1824,B-4,85.0,0.25,85,92.0
1825,A4,85.0,0.25,85,92.0
1826,F#2,85.25,3/20,77,92.0
1827,F#2,85.25,0.25,62,92.0
1828,D4,85.25,0.25,62,92.0
1829,B-4,85.25,0.25,62,92.0
1830,A4,85.25,0.25,62,92.0
1831,G#2,85.5,7/40,74,92.0
1832,F#2,85.5,0.25,53,92.0
1833,E-4,85.5,0.25,53,92.0
1834,B-4,85.5,0.25,53,92.0
1835,A4,85.5,0.25,53,92.0
1836,B-2,85.75,3/20,90,92.0
1837,F#2,85.75,0.25,51,92.0
1838,E-4,85.75,0.25,51,92.0
1839,B-4,85.75,0.25,51,92.0
1840,F#2,86.0,0.25,80,92.0
1841,B-4,86.0,0.25,80,92.0
1842,B-2,86.25,71/500,71,92.0
1843,F#3,86.25,1.75,94,92.0
1844,C#4,86.25,179/500,80,92.0
1845,F#2,86.25,0.25,55,92.0
1846,B-4,86.25,0.25,55,92.0
1847,C#5,86.25,179/500,80,92.0
1848,C#4,86.25,179/500,80,92.0
1849,G#2,86.5,71/500,84,92.0
1850,F#2,86.5,0.25,65,92.0
1851,B-4,86.5,0.25,65,92.0
1852,F#2,86.75,3/20,90,92.0
1853,F#2,86.75,0.25,47,92.0
1854,E-4,86.75,0.25,47,92.0
1855,B-4,86.75,0.25,47,92.0
1856,B-3,86.758,621/500,85,92.0
1857,C#4,86.775,283/1000,68,92.0
1858,C#5,86.775,283/1000,68,92.0
1859,C#4,86.775,283/1000,68,92.0
1860,F2,87.0,123/250,102,92.0
1861,D2,87.0,0.25,84,92.0
1862,D4,87.0,0.25,84,92.0
1863,E-2,87.0,0.25,84,92.0
1864,B-4,87.0,0.25,84,92.0
1865,A4,87.0,0.25,84,92.0
1866,C#4,87.217,167/1000,67,92.0
1867,C#5,87.217,167/1000,67,92.0
1868,C#4,87.217,167/1000,67,92.0
1869,F4,87.25,0.75,68,92.0
1870,D2,87.25,0.25,48,92.0
1871,D4,87.25,0.25,48,92.0
1872,E-2,87.25,0.25,48,92.0
1873,B-4,87.25,0.25,48,92.0
1874,A4,87.25,0.25,48,92.0
1875,F#4,87.475,71/500,78,92.0
1876,F#5,87.475,71/500,78,92.0
1877,F#4,87.475,71/500,78,92.0
1878,F#2,87.5,283/1000,94,92.0
1879,G#4,87.5,0.5,74,92.0
1880,F#2,87.5,0.25,60,92.0
1881,E-4,87.5,0.25,60,92.0
1882,B-4,87.5,0.25,60,92.0
1883,A4,87.5,0.25,60,92.0
1884,B1,87.75,0.25,50,92.0
1885,F#2,87.75,0.25,50,92.0
1886,E-4,87.75,0.25,50,92.0
1887,B-4,87.75,0.25,50,92.0
1888,G#4,87.758,121/500,88,92.0
1889,G#5,87.758,121/500,88,92.0
1890,G#4,87.758,121/500,88,92.0
1891,F#2,88.0,7/40,90,92.0
1892,A3,88.0,326/125,63,92.0
1893,F#4,88.0,3217/1000,81,92.0
1894,E4,88.0,2867/1000,77,92.0
1895,F#2,88.0,19/5,77,92.0
1896,A4,88.0,0.5,120,92.0
1897,G#4,88.0,33/1000,88,92.0
1898,B1,88.0,0.25,85,92.0
1899,F#2,88.0,0.25,85,92.0
1900,E-4,88.0,0.25,85,92.0
1901,B-4,88.0,0.25,85,92.0
1902,F#4,88.0,4.0,45,92.0
1903,E4,88.0,4.0,45,92.0
1904,C#4,88.0,4.0,45,92.0
1905,A4,88.0,4.0,45,92.0
1906,A5,88.0,0.5,120,92.0
1907,A4,88.0,0.5,120,92.0
1908,G#5,88.0,33/1000,88,92.0
1909,G#4,88.0,33/1000,88,92.0
1910,F#2,88.25,217/1000,94,92.0
1911,F#2,88.25,0.25,53,92.0
1912,E-4,88.25,0.25,53,92.0
1913,B-4,88.25,0.25,53,92.0
1914,G#4,88.492,117/1000,62,92.0
1915,G#5,88.492,117/1000,62,92.0
1916,G#4,88.492,117/1000,62,92.0
1917,B-2,88.5,0.25,83,92.0
1918,D4,88.5,0.25,83,92.0
1919,B-4,88.5,0.25,83,92.0
1920,B-4,88.75,0.25,40,92.0
1921,G#4,88.75,121/500,61,92.0
1922,G#5,88.75,121/500,61,92.0
1923,G#4,88.75,121/500,61,92.0
1924,A4,88.992,0.25,120,92.0
1925,A5,88.992,0.25,120,92.0
1926,A4,88.992,0.25,120,92.0
1927,F#2,89.0,0.25,85,92.0
1928,C#2,89.0,0.25,85,92.0
1929,B-4,89.0,0.25,85,92.0
1930,A4,89.0,0.25,85,92.0
1931,F#2,89.25,3/20,77,92.0
1932,G#4,89.25,29/500,53,92.0
1933,F#2,89.25,0.25,64,92.0
1934,D4,89.25,0.25,64,92.0
1935,B-4,89.25,0.25,64,92.0
1936,A4,89.25,0.25,64,92.0
1937,G#5,89.25,29/500,53,92.0
1938,G#4,89.25,29/500,53,92.0
1939,G#4,89.433,229/500,60,92.0
1940,G#5,89.433,229/500,60,92.0
1941,G#4,89.433,229/500,60,92.0
1942,G#2,89.5,7/40,74,92.0
1943,F#2,89.5,0.25,53,92.0
1944,E-4,89.5,0.25,53,92.0
1945,B-4,89.5,0.25,53,92.0
1946,A4,89.5,0.25,53,92.0
1947,A2,89.75,3/20,90,92.0
1948,F#2,89.75,0.25,51,92.0
1949,E-4,89.75,0.25,51,92.0
1950,B-4,89.75,0.25,51,92.0
1951,B4,89.758,371/500,120,92.0
1952,B5,89.758,371/500,120,92.0
1953,B4,89.758,371/500,120,92.0
1954,F#2,90.0,0.25,80,92.0
1955,B-4,90.0,0.25,80,92.0
1956,A2,90.25,71/500,71,92.0
1957,F#3,90.25,1483/1000,77,92.0
1958,F#2,90.25,0.25,55,92.0
1959,B-4,90.25,0.25,55,92.0
1960,G#4,90.283,617/1000,88,92.0
1961,G#5,90.283,617/1000,88,92.0
1962,G#4,90.283,617/1000,88,92.0
1963,G#2,90.5,71/500,84,92.0
1964,F#2,90.5,0.25,65,92.0
1965,B-4,90.5,0.25,65,92.0
1966,F#2,90.75,3/20,90,92.0
1967,A3,90.75,41/40,90,92.0
1968,F#2,90.75,0.25,47,92.0
1969,E-4,90.75,0.25,47,92.0
1970,B-4,90.75,0.25,47,92.0
1971,A4,90.825,883/1000,120,92.0
1972,A5,90.825,883/1000,120,92.0
1973,A4,90.825,883/1000,120,92.0
1974,E2,91.0,123/250,102,92.0
1975,F#2,91.0,0.25,84,92.0
1976,C#2,91.0,0.25,84,92.0
1977,D4,91.0,0.25,84,92.0
1978,B-4,91.0,0.25,84,92.0
1979,A4,91.0,0.25,84,92.0
1980,E4,91.25,517/1000,60,92.0
1981,F#2,91.25,0.25,55,92.0
1982,D4,91.25,0.25,55,92.0
1983,B-4,91.25,0.25,55,92.0
1984,A4,91.25,0.25,55,92.0
1985,F#2,91.5,283/1000,94,92.0
1986,F#4,91.5,267/1000,81,92.0
1987,B1,91.5,0.25,66,92.0
1988,F#2,91.5,0.25,66,92.0
1989,E-4,91.5,0.25,66,92.0
1990,B-4,91.5,0.25,66,92.0
1991,A4,91.5,0.25,66,92.0
1992,F#2,91.75,0.25,41,92.0
1993,E-4,91.75,0.25,41,92.0
1994,B-4,91.75,0.25,41,92.0
1995,F#4,91.792,26/125,60,92.0
1996,F#5,91.792,26/125,60,92.0
1997,F#4,91.792,26/125,60,92.0
1998,B1,92.0,183/1000,94,92.0
1999,F#4,92.0,83/1000,60,92.0
2000,B1,92.0,0.25,85,92.0
2001,F#2,92.0,0.25,85,92.0
2002,E-4,92.0,0.25,85,92.0
2003,B-4,92.0,0.25,85,92.0
2004,E4,92.0,2.0,45,92.0
2005,C#4,92.0,2.0,45,92.0
2006,A3,92.0,2.0,45,92.0
2007,F#4,92.0,2.0,45,92.0
2008,F#5,92.0,83/1000,60,92.0
2009,F#4,92.0,83/1000,60,92.0
2010,G#4,92.033,3/10,74,92.0
2011,G#5,92.033,3/10,74,92.0
2012,G#4,92.033,3/10,74,92.0
2013,B1,92.25,217/1000,94,92.0
2014,B2,92.25,1.75,74,92.0
2015,F#2,92.25,0.25,53,92.0
2016,E-4,92.25,0.25,53,92.0
2017,B-4,92.25,0.25,53,92.0
2018,A4,92.275,79/500,104,92.0
2019,A5,92.275,79/500,104,92.0
2020,A4,92.275,79/500,104,92.0
2021,F#3,92.5,1.5,74,92.0
2022,B-2,92.5,0.25,83,92.0
2023,D4,92.5,0.25,83,92.0
2024,B-4,92.5,0.25,83,92.0
2025,A4,92.525,1/5,109,92.0
2026,A5,92.525,1/5,109,92.0
2027,A4,92.525,1/5,109,92.0
2028,B-4,92.75,0.25,40,92.0
2029,A3,92.75,1.25,56,92.0
2030,F#4,92.75,1.25,56,92.0
2031,E4,92.75,1.25,56,92.0
2032,F#2,93.0,0.25,85,92.0
2033,C#2,93.0,0.25,85,92.0
2034,B-4,93.0,0.25,85,92.0
2035,A4,93.0,0.25,85,92.0
2036,A4,93.042,1733/1000,124,92.0
2037,A5,93.042,1733/1000,124,92.0
2038,A4,93.042,1733/1000,124,92.0
2039,F#2,93.25,0.25,62,92.0
2040,D4,93.25,0.25,62,92.0
2041,B-4,93.25,0.25,62,92.0
2042,A4,93.25,0.25,62,92.0
2043,F#2,93.5,0.25,53,92.0
2044,E-4,93.5,0.25,53,92.0
2045,B-4,93.5,0.25,53,92.0
2046,A4,93.5,0.25,53,92.0
2047,B1,93.75,1/5,90,92.0
2048,F#2,93.75,0.25,51,92.0
2049,E-4,93.75,0.25,51,92.0
2050,B-4,93.75,0.25,51,92.0
2051,B1,94.0,183/1000,94,92.0
2052,F#2,94.0,0.25,82,92.0
2053,B-4,94.0,0.25,82,92.0
2054,E-4,94.0,2.0,40,92.0
2055,B3,94.0,2.0,40,92.0
2056,A3,94.0,2.0,40,92.0
2057,F#4,94.0,2.0,40,92.0
2058,B1,94.25,217/1000,94,92.0
2059,B2,94.25,1.75,74,92.0
2060,F#2,94.25,0.25,55,92.0
2061,B-4,94.25,0.25,55,92.0
2062,F#3,94.5,1.5,74,92.0
2063,F#2,94.5,0.25,60,92.0
2064,B-4,94.5,0.25,60,92.0
2065,F#2,94.75,0.25,47,92.0
2066,E-4,94.75,0.25,47,92.0
2067,B-4,94.75,0.25,47,92.0
2068,A3,94.75,1.25,56,92.0
2069,F#4,94.75,1.25,56,92.0
2070,E-4,94.75,1.25,56,92.0
2071,C#4,94.758,317/1000,91,92.0
2072,C#5,94.758,317/1000,91,92.0
2073,C#4,94.758,317/1000,91,92.0
2074,F#2,95.0,0.25,84,92.0
2075,C#2,95.0,0.25,84,92.0
2076,D4,95.0,0.25,84,92.0
2077,B-4,95.0,0.25,84,92.0
2078,A4,95.0,0.25,84,92.0
2079,C#4,95.233,3/20,74,92.0
2080,C#5,95.233,3/20,74,92.0
2081,C#4,95.233,3/20,74,92.0
2082,F#2,95.25,0.25,55,92.0
2083,D4,95.25,0.25,55,92.0
2084,B-4,95.25,0.25,55,92.0
2085,A4,95.25,0.25,55,92.0
2086,F#2,95.5,0.25,60,92.0
2087,E-4,95.5,0.25,60,92.0
2088,B-4,95.5,0.25,60,92.0
2089,A4,95.5,0.25,60,92.0
2090,G#4,95.742,129/500,78,92.0
2091,G#5,95.742,129/500,78,92.0
2092,G#4,95.742,129/500,78,92.0
2093,B1,95.75,1/5,90,92.0
2094,B1,95.75,0.25,50,92.0
2095,F#2,95.75,0.25,50,92.0
2096,E-4,95.75,0.25,50,92.0
2097,B-4,95.75,0.25,50,92.0
2098,A1,96.0,183/1000,87,92.0
2099,C4,96.0,17/40,66,92.0
2100,G#4,96.0,1/40,78,92.0
2101,B1,96.0,0.25,85,92.0
2102,F#2,96.0,0.25,85,92.0
2103,E-4,96.0,0.25,85,92.0
2104,B-4,96.0,0.25,85,92.0
2105,E4,96.0,483/1000,63,92.0
2106,A2,96.0,483/1000,63,92.0
2107,G3,96.0,483/1000,63,92.0
2108,G4,96.0,4.0,40,92.0
2109,E4,96.0,4.0,40,92.0
2110,C4,96.0,4.0,40,92.0
2111,B4,96.0,4.0,40,92.0
2112,G#5,96.0,1/40,78,92.0
2113,G#4,96.0,1/40,78,92.0
2114,A4,96.008,221/500,124,92.0
2115,A5,96.008,221/500,124,92.0
2116,A4,96.008,221/500,124,92.0
2117,A1,96.25,26/125,97,92.0
2118,F#2,96.25,0.25,53,92.0
2119,E-4,96.25,0.25,53,92.0
2120,B-4,96.25,0.25,53,92.0
2121,B-2,96.5,0.25,83,92.0
2122,D4,96.5,0.25,83,92.0
2123,B-4,96.5,0.25,83,92.0
2124,G#4,96.517,1/20,49,92.0
2125,G#5,96.517,1/20,49,92.0
2126,G#4,96.517,1/20,49,92.0
2127,B-4,96.75,0.25,40,92.0
2128,G3,96.75,1533/1000,52,92.0
2129,A2,96.75,13/10,84,92.0
2130,E4,96.75,276/125,70,92.0
2131,C4,96.75,276/125,70,92.0
2132,F#2,97.0,0.25,85,92.0
2133,C#2,97.0,0.25,85,92.0
2134,B-4,97.0,0.25,85,92.0
2135,A4,97.0,0.25,85,92.0
2136,A4,97.008,9/40,127,92.0
2137,A5,97.008,9/40,127,92.0
2138,A4,97.008,9/40,127,92.0
2139,E1,97.25,183/1000,63,92.0
2140,F#2,97.25,0.25,64,92.0
2141,D4,97.25,0.25,64,92.0
2142,B-4,97.25,0.25,64,92.0
2143,A4,97.25,0.25,64,92.0
2144,G#4,97.258,29/500,46,92.0
2145,G#5,97.258,29/500,46,92.0
2146,G#4,97.258,29/500,46,92.0
2147,G#4,97.433,7/40,54,92.0
2148,G#5,97.433,7/40,54,92.0
2149,G#4,97.433,7/40,54,92.0
2150,G1,97.5,79/500,85,92.0
2151,F#2,97.5,0.25,53,92.0
2152,E-4,97.5,0.25,53,92.0
2153,B-4,97.5,0.25,53,92.0
2154,A4,97.5,0.25,53,92.0
2155,A1,97.75,7/40,65,92.0
2156,F#2,97.75,0.25,51,92.0
2157,E-4,97.75,0.25,51,92.0
2158,B-4,97.75,0.25,51,92.0
2159,B4,97.767,583/1000,124,92.0
2160,B5,97.767,583/1000,124,92.0
2161,B4,97.767,583/1000,124,92.0
2162,B1,98.0,7/20,74,92.0
2163,F#2,98.0,0.25,80,92.0
2164,B-4,98.0,0.25,80,92.0
2165,C2,98.25,0.125,94,92.0
2166,A2,98.25,1.75,81,92.0
2167,B-2,98.25,0.25,56,92.0
2168,B-4,98.25,0.25,56,92.0
2169,A4,98.3,467/1000,91,92.0
2170,A5,98.3,467/1000,91,92.0
2171,A4,98.3,467/1000,91,92.0
2172,D2,98.5,1/5,74,92.0
2173,E3,98.5,1.5,58,92.0
2174,F#2,98.5,0.25,65,92.0
2175,B-4,98.5,0.25,65,92.0
2176,C2,98.75,483/1000,81,92.0
2177,G3,98.75,1.25,85,92.0
2178,F#2,98.75,0.25,47,92.0
2179,E-4,98.75,0.25,47,92.0
2180,B-4,98.75,0.25,47,92.0
2181,G#4,98.8,321/500,91,92.0
2182,G#5,98.8,321/500,91,92.0
2183,G#4,98.8,321/500,91,92.0
2184,B3,99.0,1.0,81,92.0
2185,F#2,99.0,0.25,84,92.0
2186,C#2,99.0,0.25,84,92.0
2187,D4,99.0,0.25,84,92.0
2188,B-4,99.0,0.25,84,92.0
2189,A4,99.0,0.25,84,92.0
2190,B1,99.25,233/1000,87,92.0
2191,C4,99.25,171/500,90,92.0
2192,F#2,99.25,0.25,55,92.0
2193,D4,99.25,0.25,55,92.0
2194,B-4,99.25,0.25,55,92.0
2195,A4,99.25,0.25,55,92.0
2196,A1,99.5,77/250,84,92.0
2197,G4,99.5,0.375,63,92.0
2198,B1,99.5,0.25,66,92.0
2199,F#2,99.5,0.25,66,92.0
2200,E-4,99.5,0.25,66,92.0
2201,B-4,99.5,0.25,66,92.0
2202,A4,99.5,0.25,66,92.0
2203,F#4,99.542,1/5,15,92.0
2204,F#5,99.542,1/5,15,92.0
2205,F#4,99.542,1/5,15,92.0
2206,E4,99.75,0.25,63,92.0
2207,F#2,99.75,0.25,41,92.0
2208,E-4,99.75,0.25,41,92.0
2209,B-4,99.75,0.25,41,92.0
2210,G#4,99.767,9/40,29,92.0
2211,G#5,99.767,9/40,29,92.0
2212,G#4,99.767,9/40,29,92.0
2213,D2,100.0,7/40,90,92.0
2214,D3,100.0,3917/1000,58,92.0
2215,C4,100.0,21/40,45,92.0
2216,B1,100.0,0.25,85,92.0
2217,F#2,100.0,0.25,85,92.0
2218,E-4,100.0,0.25,85,92.0
2219,B-4,100.0,0.25,85,92.0
2220,C5,100.0,673/250,60,92.0
2221,A4,100.0,673/250,60,92.0
2222,E4,100.0,53/20,74,92.0
2223,G4,100.0,53/20,74,92.0
2224,E4,100.0,4.0,45,92.0
2225,C4,100.0,4.0,45,92.0
2226,A3,100.0,4.0,45,92.0
2227,G4,100.0,4.0,45,92.0
2228,A4,100.008,229/500,114,92.0
2229,A5,100.008,229/500,114,92.0
2230,A4,100.008,229/500,114,92.0
2231,D2,100.25,217/1000,94,92.0
2232,F#2,100.25,0.25,52,92.0
2233,E-4,100.25,0.25,52,92.0
2234,B-4,100.25,0.25,52,92.0
2235,A3,100.5,67/40,33,92.0
2236,F#2,100.5,0.25,80,92.0
2237,D4,100.5,0.25,80,92.0
2238,B-4,100.5,0.25,80,92.0
2239,C3,100.75,0.25,68,92.0
2240,B-4,100.75,0.25,68,92.0
2241,A4,100.783,483/1000,120,92.0
2242,A5,100.783,483/1000,120,92.0
2243,A4,100.783,483/1000,120,92.0
2244,F#2,101.0,0.25,85,92.0
2245,E-2,101.0,0.25,85,92.0
2246,B-4,101.0,0.25,85,92.0
2247,A4,101.0,0.25,85,92.0
2248,D2,101.25,3/20,77,92.0
2249,F#2,101.25,0.25,59,92.0
2250,D4,101.25,0.25,59,92.0
2251,B-4,101.25,0.25,59,92.0
2252,A4,101.25,0.25,59,92.0
2253,D4,101.258,2/5,70,92.0
2254,D5,101.258,2/5,70,92.0
2255,D4,101.258,2/5,70,92.0
2256,E2,101.5,7/40,74,92.0
2257,A2,101.5,0.25,60,92.0
2258,E-4,101.5,0.25,60,92.0
2259,B-4,101.5,0.25,60,92.0
2260,A4,101.5,0.25,60,92.0
2261,E-4,101.733,229/500,78,92.0
2262,E-5,101.733,229/500,78,92.0
2263,E-4,101.733,229/500,78,92.0
2264,G2,101.75,3/20,90,92.0
2265,C4,101.75,633/1000,63,92.0
2266,D2,101.75,0.25,67,92.0
2267,E-4,101.75,0.25,67,92.0
2268,B-4,101.75,0.25,67,92.0
2269,D2,102.0,0.25,80,92.0
2270,B-4,102.0,0.25,80,92.0
2271,F4,102.217,321/500,82,92.0
2272,F5,102.217,321/500,82,92.0
2273,F4,102.217,321/500,82,92.0
2274,G2,102.25,71/500,71,92.0
2275,A3,102.25,1667/1000,65,92.0
2276,F#2,102.25,0.25,48,92.0
2277,B-4,102.25,0.25,48,92.0
2278,E2,102.5,71/500,84,92.0
2279,C4,102.5,11/20,80,92.0
2280,D2,102.5,0.25,80,92.0
2281,B-4,102.5,0.25,80,92.0
2282,G#4,102.717,11/40,64,92.0
2283,G#5,102.717,11/40,64,92.0
2284,G#4,102.717,11/40,64,92.0
2285,D2,102.75,3/20,90,92.0
2286,F#2,102.75,0.25,53,92.0
2287,E-4,102.75,0.25,53,92.0
2288,B-4,102.75,0.25,53,92.0
2289,C5,102.75,183/1000,79,92.0
2290,G4,102.75,183/1000,79,92.0
2291,D4,102.75,183/1000,79,92.0
2292,G4,102.992,26/125,109,92.0
2293,G5,102.992,26/125,109,92.0
2294,G4,102.992,26/125,109,92.0
2295,C2,103.0,123/250,102,92.0
2296,D2,103.0,0.25,84,92.0
2297,D4,103.0,0.25,84,92.0
2298,E-2,103.0,0.25,84,92.0
2299,B-4,103.0,0.25,84,92.0
2300,A4,103.0,0.25,84,92.0
2301,C5,103.0,333/1000,92,92.0
2302,G4,103.0,333/1000,92,92.0
2303,D4,103.0,333/1000,92,92.0
2304,C4,103.25,0.75,70,92.0
2305,G#4,103.25,1/5,127,92.0
2306,D2,103.25,0.25,48,92.0
2307,D4,103.25,0.25,48,92.0
2308,E-2,103.25,0.25,48,92.0
2309,B-4,103.25,0.25,48,92.0
2310,A4,103.25,0.25,48,92.0
2311,G#5,103.25,1/5,127,92.0
2312,G#4,103.25,1/5,127,92.0
2313,D2,103.5,283/1000,94,92.0
2314,B-4,103.5,1/5,127,92.0
2315,B1,103.5,0.25,70,92.0
2316,B-2,103.5,0.25,70,92.0
2317,E-4,103.5,0.25,70,92.0
2318,B-4,103.5,0.25,70,92.0
2319,A4,103.5,0.25,70,92.0
2320,A4,103.5,0.5,79,92.0
2321,D5,103.5,0.5,79,92.0
2322,E4,103.5,0.5,79,92.0
2323,B-5,103.5,1/5,127,92.0
2324,B-4,103.5,1/5,127,92.0
2325,C5,103.75,1/5,127,92.0
2326,E-4,103.75,0.25,50,92.0
2327,B-4,103.75,0.25,50,92.0
2328,C6,103.75,1/5,127,92.0
2329,C5,103.75,1/5,127,92.0
2330,G2,104.0,1617/1000,94,92.0
2331,D5,104.0,51/125,127,92.0
2332,B1,104.0,0.25,84,92.0
2333,F#2,104.0,0.25,84,92.0
2334,C#3,104.0,0.25,84,92.0
2335,E-4,104.0,0.25,84,92.0
2336,B-4,104.0,0.25,84,92.0
2337,D4,104.0,71/40,55,92.0
2338,B-3,104.0,71/40,55,92.0
2339,G3,104.0,71/40,55,92.0
2340,D6,104.0,51/125,127,92.0
2341,D5,104.0,51/125,127,92.0
2342,G2,104.25,1.75,74,92.0
2343,F#2,104.25,0.25,50,92.0
2344,E-4,104.25,0.25,50,92.0
2345,B-4,104.25,0.25,50,92.0
2346,B-3,104.5,1.5,74,92.0
2347,F#2,104.5,0.25,80,92.0
2348,D4,104.5,0.25,80,92.0
2349,B-4,104.5,0.25,80,92.0
2350,D5,104.508,26/125,95,92.0
2351,D6,104.508,26/125,95,92.0
2352,D5,104.508,26/125,95,92.0
2353,F#2,104.75,0.25,40,92.0
2354,B-4,104.75,0.25,40,92.0
2355,D4,104.75,1.25,56,92.0
2356,B-4,104.75,1.25,56,92.0
2357,G4,104.75,1.25,56,92.0
2358,D5,104.792,77/250,98,92.0
2359,D6,104.792,77/250,98,92.0
2360,D5,104.792,77/250,98,92.0
2361,D2,105.0,0.25,86,92.0
2362,F#2,105.0,0.25,86,92.0
2363,E-2,105.0,0.25,86,92.0
2364,B-4,105.0,0.25,86,92.0
2365,A4,105.0,0.25,86,92.0
2366,C5,105.183,77/250,65,92.0
2367,C6,105.183,77/250,65,92.0
2368,C5,105.183,77/250,65,92.0
2369,F#2,105.25,0.25,64,92.0
2370,D4,105.25,0.25,64,92.0
2371,B-4,105.25,0.25,64,92.0
2372,A4,105.25,0.25,64,92.0
2373,F#2,105.5,0.25,58,92.0
2374,E-4,105.5,0.25,58,92.0
2375,B-4,105.5,0.25,58,92.0
2376,A4,105.5,0.25,58,92.0
2377,D5,105.508,367/1000,76,92.0
2378,D6,105.508,367/1000,76,92.0
2379,D5,105.508,367/1000,76,92.0
2380,G2,105.75,121/500,87,92.0
2381,B1,105.75,0.25,62,92.0
2382,F#2,105.75,0.25,62,92.0
2383,E-4,105.75,0.25,62,92.0
2384,B-4,105.75,0.25,62,92.0
2385,C5,105.833,229/500,95,92.0
2386,C6,105.833,229/500,95,92.0
2387,C5,105.833,229/500,95,92.0
2388,G2,106.0,779/500,97,92.0
2389,B1,106.0,0.25,83,92.0
2390,F#2,106.0,0.25,83,92.0
2391,B-4,106.0,0.25,83,92.0
2392,F#4,106.0,71/40,55,92.0
2393,D4,106.0,71/40,55,92.0
2394,B-3,106.0,71/40,55,92.0
2395,G4,106.0,71/40,55,92.0
2396,G2,106.25,1.75,74,92.0
2397,F#2,106.25,0.25,55,92.0
2398,B-4,106.25,0.25,55,92.0
2399,B-4,106.3,433/1000,29,92.0
2400,B-5,106.3,433/1000,29,92.0
2401,B-4,106.3,433/1000,29,92.0
2402,G3,106.5,1.5,74,92.0
2403,F#2,106.5,0.25,75,92.0
2404,B-4,106.5,0.25,75,92.0
2405,G4,106.725,51/40,50,92.0
2406,G5,106.725,51/40,50,92.0
2407,G4,106.725,51/40,50,92.0
2408,F#2,106.75,0.25,53,92.0
2409,E-4,106.75,0.25,53,92.0
2410,B-4,106.75,0.25,53,92.0
2411,B-3,106.75,1.25,56,92.0
2412,G4,106.75,1.25,56,92.0
2413,F#4,106.75,1.25,56,92.0
2414,D2,107.0,0.25,85,92.0
2415,F#2,107.0,0.25,85,92.0
2416,D4,107.0,0.25,85,92.0
2417,E-2,107.0,0.25,85,92.0
2418,B-4,107.0,0.25,85,92.0
2419,A4,107.0,0.25,85,92.0
2420,D2,107.25,0.25,50,92.0
2421,F#2,107.25,0.25,50,92.0
2422,D4,107.25,0.25,50,92.0
2423,E-2,107.25,0.25,50,92.0
2424,B-4,107.25,0.25,50,92.0
2425,A4,107.25,0.25,50,92.0
2426,F#2,107.5,0.25,66,92.0
2427,E-4,107.5,0.25,66,92.0
2428,B-4,107.5,0.25,66,92.0
2429,A4,107.5,0.25,66,92.0
2430,G2,107.75,121/500,101,92.0
2431,B1,107.75,0.25,55,92.0
2432,F#2,107.75,0.25,55,92.0
2433,E-4,107.75,0.25,55,92.0
2434,B-4,107.75,0.25,55,92.0
2435,G2,108.0,201/125,90,92.0
2436,G4,108.0,27/250,50,92.0
2437,B1,108.0,0.25,85,92.0
2438,F#2,108.0,0.25,85,92.0
2439,E-4,108.0,0.25,85,92.0
2440,B-4,108.0,0.25,85,92.0
2441,F4,108.0,7/40,68,92.0
2442,D4,108.0,7/40,68,92.0
2443,B-3,108.0,7/40,68,92.0
2444,G4,108.0,7/40,68,92.0
2445,G5,108.0,27/250,50,92.0
2446,G4,108.0,27/250,50,92.0
2447,B-3,108.25,1.75,65,92.0
2448,F#2,108.25,0.25,52,92.0
2449,E-4,108.25,0.25,52,92.0
2450,B-4,108.25,0.25,52,92.0
2451,F4,108.25,0.125,81,92.0
2452,D4,108.25,0.125,81,92.0
2453,B-3,108.25,0.125,81,92.0
2454,G4,108.25,0.125,81,92.0
2455,F4,108.5,1.5,53,92.0
2456,F#2,108.5,0.25,80,92.0
2457,D4,108.5,0.25,80,92.0
2458,B-4,108.5,0.25,80,92.0
2459,D5,108.517,167/1000,94,92.0
2460,G4,108.517,167/1000,94,92.0
2461,D6,108.517,167/1000,94,92.0
2462,D5,108.517,167/1000,94,92.0
2463,G5,108.517,167/1000,94,92.0
2464,G4,108.517,167/1000,94,92.0
2465,G4,108.75,1.25,49,92.0
2466,B1,108.75,0.25,57,92.0
2467,F#2,108.75,0.25,57,92.0
2468,B-4,108.75,0.25,57,92.0
2469,G4,108.783,7/40,73,92.0
2470,D5,108.783,129/500,104,92.0
2471,G5,108.783,7/40,73,92.0
2472,G4,108.783,7/40,73,92.0
2473,D6,108.783,129/500,104,92.0
2474,D5,108.783,129/500,104,92.0
2475,D2,109.0,0.25,86,92.0
2476,F#2,109.0,0.25,86,92.0
2477,E-2,109.0,0.25,86,92.0
2478,B-4,109.0,0.25,86,92.0
2479,A4,109.0,0.25,86,92.0
2480,G4,109.025,24/125,50,92.0
2481,G5,109.025,24/125,50,92.0
2482,G4,109.025,24/125,50,92.0
2483,C5,109.042,17/40,74,92.0
2484,C6,109.042,17/40,74,92.0
2485,C5,109.042,17/40,74,92.0
2486,F#2,109.25,0.25,59,92.0
2487,D4,109.25,0.25,59,92.0
2488,B-4,109.25,0.25,59,92.0
2489,A4,109.25,0.25,59,92.0
2490,G4,109.483,1/5,62,92.0
2491,G5,109.483,1/5,62,92.0
2492,G4,109.483,1/5,62,92.0
2493,D5,109.492,3/10,71,92.0
2494,D6,109.492,3/10,71,92.0
2495,D5,109.492,3/10,71,92.0
2496,F#2,109.5,0.25,58,92.0
2497,E-4,109.5,0.25,58,92.0
2498,B-4,109.5,0.25,58,92.0
2499,A4,109.5,0.25,58,92.0
2500,G2,109.75,0.125,87,92.0
2501,B1,109.75,0.25,65,92.0
2502,F#2,109.75,0.25,65,92.0
2503,E-4,109.75,0.25,65,92.0
2504,B-4,109.75,0.25,65,92.0
2505,C5,109.758,483/1000,80,92.0
2506,C6,109.758,483/1000,80,92.0
2507,C5,109.758,483/1000,80,92.0
2508,G4,109.892,171/500,42,92.0
2509,G5,109.892,171/500,42,92.0
2510,G4,109.892,171/500,42,92.0
2511,G2,110.0,201/125,90,92.0
2512,F#2,110.0,0.25,80,92.0
2513,B-4,110.0,0.25,80,92.0
2514,G2,110.25,1.75,74,92.0
2515,B-3,110.25,1.75,65,92.0
2516,F#2,110.25,0.25,48,92.0
2517,B-4,110.25,0.25,48,92.0
2518,B-4,110.267,0.25,60,92.0
2519,B-5,110.267,0.25,60,92.0
2520,B-4,110.267,0.25,60,92.0
2521,B-3,110.5,1.5,85,92.0
2522,E4,110.5,1.5,53,92.0
2523,F#2,110.5,0.25,75,92.0
2524,B-4,110.5,0.25,75,92.0
2525,G4,110.75,1.25,49,92.0
2526,B1,110.75,0.25,62,92.0
2527,F#2,110.75,0.25,62,92.0
2528,E-4,110.75,0.25,62,92.0
2529,B-4,110.75,0.25,62,92.0
2530,B-4,110.75,1.25,72,92.0
2531,E4,110.75,1.25,72,92.0
2532,G4,110.75,1.25,72,92.0
2533,B-4,110.792,13/40,56,92.0
2534,B-5,110.792,13/40,56,92.0
2535,B-4,110.792,13/40,56,92.0
2536,D2,111.0,0.25,85,92.0
2537,F#2,111.0,0.25,85,92.0
2538,D4,111.0,0.25,85,92.0
2539,E-2,111.0,0.25,85,92.0
2540,B-4,111.0,0.25,85,92.0
2541,A4,111.0,0.25,85,92.0
2542,B-4,111.242,77/250,60,92.0
2543,B-5,111.242,77/250,60,92.0
2544,B-4,111.242,77/250,60,92.0
2545,D2,111.25,0.25,49,92.0
2546,F#2,111.25,0.25,49,92.0
2547,D4,111.25,0.25,49,92.0
2548,E-2,111.25,0.25,49,92.0
2549,B-4,111.25,0.25,49,92.0
2550,A4,111.25,0.25,49,92.0
2551,B1,111.5,0.25,66,92.0
2552,F#2,111.5,0.25,66,92.0
2553,E-4,111.5,0.25,66,92.0
2554,B-4,111.5,0.25,66,92.0
2555,A4,111.5,0.25,66,92.0
2556,C5,111.508,129/500,95,92.0
2557,C6,111.508,129/500,95,92.0
2558,C5,111.508,129/500,95,92.0
2559,G2,111.75,0.125,87,92.0
2560,F#2,111.75,0.25,44,92.0
2561,E-4,111.75,0.25,44,92.0
2562,B-4,111.75,0.25,44,92.0
2563,B-4,111.758,121/500,56,92.0
2564,B-5,111.758,121/500,56,92.0
2565,B-4,111.758,121/500,56,92.0
2566,G#2,112.0,1617/1000,94,92.0
2567,G#2,112.0,4.0,81,92.0
2568,C4,112.0,2583/1000,66,92.0
2569,G4,112.0,3.0,77,92.0
2570,B-4,112.0,3267/1000,74,92.0
2571,C5,112.0,633/1000,120,92.0
2572,B-4,112.0,27/250,56,92.0
2573,B1,112.0,0.25,85,92.0
2574,F#2,112.0,0.25,85,92.0
2575,E-4,112.0,0.25,85,92.0
2576,B-4,112.0,0.25,85,92.0
2577,G4,112.0,4.0,56,92.0
2578,E-4,112.0,4.0,56,92.0
2579,C4,112.0,4.0,56,92.0
2580,B-4,112.0,4.0,56,92.0
2581,C6,112.0,633/1000,120,92.0
2582,C5,112.0,633/1000,120,92.0
2583,B-5,112.0,27/250,56,92.0
2584,B-4,112.0,27/250,56,92.0
2585,B-2,112.25,0.25,51,92.0
2586,E-4,112.25,0.25,51,92.0
2587,B-4,112.25,0.25,51,92.0
2588,B-4,112.467,167/1000,48,92.0
2589,B-5,112.467,167/1000,48,92.0
2590,B-4,112.467,167/1000,48,92.0
2591,G#3,112.5,1633/1000,24,92.0
2592,F#2,112.5,0.25,80,92.0
2593,D4,112.5,0.25,80,92.0
2594,B-4,112.5,0.25,80,92.0
2595,B-4,112.75,3/40,38,92.0
2596,F#2,112.75,0.25,40,92.0
2597,B-4,112.75,0.25,40,92.0
2598,B-5,112.75,3/40,38,92.0
2599,B-4,112.75,3/40,38,92.0
2600,G4,112.992,433/1000,95,92.0
2601,G5,112.992,433/1000,95,92.0
2602,G4,112.992,433/1000,95,92.0
2603,D2,113.0,0.25,86,92.0
2604,F#2,113.0,0.25,86,92.0
2605,E-2,113.0,0.25,86,92.0
2606,B-4,113.0,0.25,86,92.0
2607,A4,113.0,0.25,86,92.0
2608,F#2,113.25,0.25,64,92.0
2609,D4,113.25,0.25,64,92.0
2610,B-4,113.25,0.25,64,92.0
2611,A4,113.25,0.25,64,92.0
2612,F#2,113.5,0.25,58,92.0
2613,E-4,113.5,0.25,58,92.0
2614,B-4,113.5,0.25,58,92.0
2615,A4,113.5,0.25,58,92.0
2616,F4,113.508,11/40,51,92.0
2617,F5,113.508,11/40,51,92.0
2618,F4,113.508,11/40,51,92.0
2619,G4,113.742,29/40,109,92.0
2620,G5,113.742,29/40,109,92.0
2621,G4,113.742,29/40,109,92.0
2622,G#2,113.75,2033/1000,87,92.0
2623,B1,113.75,0.25,62,92.0
2624,F#2,113.75,0.25,62,92.0
2625,E-4,113.75,0.25,62,92.0
2626,B-4,113.75,0.25,62,92.0
2627,B1,114.0,0.25,83,92.0
2628,F#2,114.0,0.25,83,92.0
2629,B-4,114.0,0.25,83,92.0
2630,F4,114.242,17/40,70,92.0
2631,F5,114.242,17/40,70,92.0
2632,F4,114.242,17/40,70,92.0
2633,G#3,114.25,1.75,71,92.0
2634,F#2,114.25,0.25,48,92.0
2635,B-4,114.25,0.25,48,92.0
2636,F#2,114.5,0.25,75,92.0
2637,B-4,114.5,0.25,75,92.0
2638,C4,114.75,1.25,59,92.0
2639,F#2,114.75,0.25,53,92.0
2640,E-4,114.75,0.25,53,92.0
2641,B-4,114.75,0.25,53,92.0
2642,E-4,114.783,483/1000,74,92.0
2643,E-5,114.783,483/1000,74,92.0
2644,E-4,114.783,483/1000,74,92.0
2645,D2,115.0,0.25,85,92.0
2646,F#2,115.0,0.25,85,92.0
2647,D4,115.0,0.25,85,92.0
2648,E-2,115.0,0.25,85,92.0
2649,B-4,115.0,0.25,85,92.0
2650,A4,115.0,0.25,85,92.0
2651,G4,115.25,0.75,63,92.0
2652,D2,115.25,0.25,45,92.0
2653,F#2,115.25,0.25,45,92.0
2654,D4,115.25,0.25,45,92.0
2655,E-2,115.25,0.25,45,92.0
2656,B-4,115.25,0.25,45,92.0
2657,A4,115.25,0.25,45,92.0
2658,F#2,115.5,0.25,66,92.0
2659,E-4,115.5,0.25,66,92.0
2660,B-4,115.5,0.25,66,92.0
2661,A4,115.5,0.25,66,92.0
2662,E-4,115.508,49/125,60,92.0
2663,E-5,115.508,49/125,60,92.0
2664,E-4,115.508,49/125,60,92.0
2665,F4,115.742,233/1000,65,92.0
2666,F5,115.742,233/1000,65,92.0
2667,F4,115.742,233/1000,65,92.0
2668,E-2,115.75,0.25,35,92.0
2669,B-4,115.75,0.25,71,92.0
2670,B1,115.75,0.25,55,92.0
2671,F#2,115.75,0.25,55,92.0
2672,E-4,115.75,0.25,55,92.0
2673,B-4,115.75,0.25,55,92.0
2674,F2,115.783,1/40,16,92.0
2675,G4,115.992,1/125,95,92.0
2676,G5,115.992,1/125,95,92.0
2677,G4,115.992,1/125,95,92.0
2678,G#2,116.0,31/20,101,92.0
2679,G#2,116.0,107/40,81,92.0
2680,C4,116.0,127/40,59,92.0
2681,G4,116.0,823/250,63,92.0
2682,B-4,116.0,33/10,71,92.0
2683,G#3,116.0,723/250,71,92.0
2684,G4,116.0,733/1000,95,92.0
2685,B1,116.0,0.25,85,92.0
2686,F#2,116.0,0.25,85,92.0
2687,E-4,116.0,0.25,85,92.0
2688,B-4,116.0,0.25,85,92.0
2689,G5,116.0,733/1000,95,92.0
2690,G4,116.0,733/1000,95,92.0
2691,F#2,116.25,0.25,52,92.0
2692,E-4,116.25,0.25,52,92.0
2693,B-4,116.25,0.25,52,92.0
2694,F#2,116.5,0.25,80,92.0
2695,D4,116.5,0.25,80,92.0
2696,B-4,116.5,0.25,80,92.0
2697,B1,116.75,0.25,57,92.0
2698,F#2,116.75,0.25,57,92.0
2699,B-4,116.75,0.25,57,92.0
2700,D4,116.775,229/500,74,92.0
2701,D5,116.775,229/500,74,92.0
2702,D4,116.775,229/500,74,92.0
2703,D2,117.0,0.25,86,92.0
2704,F#2,117.0,0.25,86,92.0
2705,E-2,117.0,0.25,86,92.0
2706,B-4,117.0,0.25,86,92.0
2707,A4,117.0,0.25,86,92.0
2708,F#2,117.25,0.25,59,92.0
2709,D4,117.25,0.25,59,92.0
2710,B-4,117.25,0.25,59,92.0
2711,A4,117.25,0.25,59,92.0
2712,E-4,117.267,0.25,73,92.0
2713,E-5,117.267,0.25,73,92.0
2714,E-4,117.267,0.25,73,92.0
2715,F4,117.5,233/1000,76,92.0
2716,F#2,117.5,0.25,58,92.0
2717,E-4,117.5,0.25,58,92.0
2718,B-4,117.5,0.25,58,92.0
2719,A4,117.5,0.25,58,92.0
2720,F5,117.5,233/1000,76,92.0
2721,F4,117.5,233/1000,76,92.0
2722,G#2,117.75,871/500,97,92.0
2723,E-4,117.75,73/250,57,92.0
2724,B1,117.75,0.25,65,92.0
2725,F#2,117.75,0.25,65,92.0
2726,E-4,117.75,0.25,65,92.0
2727,B-4,117.75,0.25,65,92.0
2728,E-5,117.75,73/250,57,92.0
2729,E-4,117.75,73/250,57,92.0
2730,F#2,118.0,0.25,80,92.0
2731,B-4,118.0,0.25,80,92.0
2732,F4,118.008,217/1000,85,92.0
2733,F5,118.008,217/1000,85,92.0
2734,F4,118.008,217/1000,85,92.0
2735,F#2,118.25,0.25,48,92.0
2736,B-4,118.25,0.25,48,92.0
2737,G4,118.267,217/1000,104,92.0
2738,G5,118.267,217/1000,104,92.0
2739,G4,118.267,217/1000,104,92.0
2740,F4,118.5,73/250,80,92.0
2741,F#2,118.5,0.25,75,92.0
2742,B-4,118.5,0.25,75,92.0
2743,F5,118.5,73/250,80,92.0
2744,F4,118.5,73/250,80,92.0
2745,G#2,118.75,49/40,101,92.0
2746,B1,118.75,0.25,62,92.0
2747,F#2,118.75,0.25,62,92.0
2748,E-4,118.75,0.25,62,92.0
2749,B-4,118.75,0.25,62,92.0
2750,G#4,118.767,121/500,55,92.0
2751,G#5,118.767,121/500,55,92.0
2752,G#4,118.767,121/500,55,92.0
2753,G4,118.842,1421/500,56,92.0
2754,E-4,118.842,1421/500,56,92.0
2755,C4,118.842,1421/500,56,92.0
2756,B-4,118.842,1421/500,56,92.0
2757,G#3,119.0,39/40,109,92.0
2758,D2,119.0,0.25,85,92.0
2759,F#2,119.0,0.25,85,92.0
2760,D4,119.0,0.25,85,92.0
2761,E-2,119.0,0.25,85,92.0
2762,B-4,119.0,0.25,85,92.0
2763,A4,119.0,0.25,85,92.0
2764,G4,119.008,9/40,98,92.0
2765,G5,119.008,9/40,98,92.0
2766,G4,119.008,9/40,98,92.0
2767,C4,119.25,29/40,96,92.0
2768,D2,119.25,0.25,49,92.0
2769,F#2,119.25,0.25,49,92.0
2770,D4,119.25,0.25,49,92.0
2771,E-2,119.25,0.25,49,92.0
2772,B-4,119.25,0.25,49,92.0
2773,A4,119.25,0.25,49,92.0
2774,B-4,119.258,11/40,78,92.0
2775,B-5,119.258,11/40,78,92.0
2776,B-4,119.258,11/40,78,92.0
2777,E-2,119.5,3/20,81,92.0
2778,G4,119.5,19/40,60,92.0
2779,B1,119.5,0.25,66,92.0
2780,F#2,119.5,0.25,66,92.0
2781,E-4,119.5,0.25,66,92.0
2782,B-4,119.5,0.25,66,92.0
2783,A4,119.5,0.25,66,92.0
2784,C5,119.517,77/250,104,92.0
2785,C6,119.517,77/250,104,92.0
2786,C5,119.517,77/250,104,92.0
2787,F2,119.75,167/1000,71,92.0
2788,B-4,119.75,9/40,77,92.0
2789,F#2,119.75,0.25,44,92.0
2790,E-4,119.75,0.25,44,92.0
2791,B-4,119.75,0.25,44,92.0
2792,D5,119.767,183/1000,98,92.0
2793,D6,119.767,183/1000,98,92.0
2794,D5,119.767,183/1000,98,92.0
2795,G2,120.0,201/125,90,92.0
2796,B1,120.0,0.25,85,92.0
2797,F#2,120.0,0.25,85,92.0
2798,E-4,120.0,0.25,85,92.0
2799,B-4,120.0,0.25,85,92.0
2800,D4,120.0,7/40,68,92.0
2801,B-3,120.0,7/40,68,92.0
2802,G3,120.0,7/40,68,92.0
2803,D5,120.033,179/500,98,92.0
2804,D6,120.033,179/500,98,92.0
2805,D5,120.033,179/500,98,92.0
2806,F#2,120.25,0.25,50,92.0
2807,E-4,120.25,0.25,50,92.0
2808,B-4,120.25,0.25,50,92.0
2809,D4,120.25,0.125,81,92.0
2810,B-3,120.25,0.125,81,92.0
2811,G3,120.25,0.125,81,92.0
2812,F#2,120.5,0.25,80,92.0
2813,D4,120.5,0.25,80,92.0
2814,B-4,120.5,0.25,80,92.0
2815,D5,120.508,71/500,98,92.0
2816,D6,120.508,71/500,98,92.0
2817,D5,120.508,71/500,98,92.0
2818,F#2,120.75,0.25,40,92.0
2819,B-4,120.75,0.25,40,92.0
2820,D5,120.775,7/40,98,92.0
2821,D6,120.775,7/40,98,92.0
2822,D5,120.775,7/40,98,92.0
2823,D2,121.0,0.25,86,92.0
2824,F#2,121.0,0.25,86,92.0
2825,E-2,121.0,0.25,86,92.0
2826,B-4,121.0,0.25,86,92.0
2827,A4,121.0,0.25,86,92.0
2828,C5,121.067,51/125,95,92.0
2829,C6,121.067,51/125,95,92.0
2830,C5,121.067,51/125,95,92.0
2831,F#2,121.25,0.25,64,92.0
2832,D4,121.25,0.25,64,92.0
2833,B-4,121.25,0.25,64,92.0
2834,A4,121.25,0.25,64,92.0
2835,B-4,121.483,167/1000,58,92.0
2836,B-5,121.483,167/1000,58,92.0
2837,B-4,121.483,167/1000,58,92.0
2838,F#2,121.5,0.25,58,92.0
2839,E-4,121.5,0.25,58,92.0
2840,B-4,121.5,0.25,58,92.0
2841,A4,121.5,0.25,58,92.0
2842,G2,121.75,0.125,87,92.0
2843,D5,121.75,433/1000,73,92.0
2844,B1,121.75,0.25,62,92.0
2845,F#2,121.75,0.25,62,92.0
2846,E-4,121.75,0.25,62,92.0
2847,B-4,121.75,0.25,62,92.0
2848,D6,121.75,433/1000,73,92.0
2849,D5,121.75,433/1000,73,92.0
2850,G4,121.842,1.0,41,92.0
2851,G2,122.0,201/125,90,92.0
2852,B1,122.0,0.25,83,92.0
2853,F#2,122.0,0.25,83,92.0
2854,B-4,122.0,0.25,83,92.0
2855,B-4,122.0,7/40,68,92.0
2856,G4,122.0,7/40,68,92.0
2857,F#4,122.0,7/40,68,92.0
2858,D5,122.0,7/40,68,92.0
2859,C5,122.242,49/125,74,92.0
2860,C6,122.242,49/125,74,92.0
2861,C5,122.242,49/125,74,92.0
2862,F#2,122.25,0.25,48,92.0
2863,B-4,122.25,0.25,48,92.0
2864,B-4,122.25,0.125,81,92.0
2865,G4,122.25,0.125,81,92.0
2866,F#4,122.25,0.125,81,92.0
2867,D5,122.25,0.125,81,92.0
2868,F#2,122.5,0.25,75,92.0
2869,B-4,122.5,0.25,75,92.0
2870,G4,122.717,1283/1000,63,92.0
2871,G5,122.717,1283/1000,63,92.0
2872,G4,122.717,1283/1000,63,92.0
2873,F#2,122.75,0.25,53,92.0
2874,E-4,122.75,0.25,53,92.0
2875,B-4,122.75,0.25,53,92.0
2876,D4,122.842,71/40,55,92.0
2877,B-3,122.842,71/40,55,92.0
2878,G3,122.842,71/40,55,92.0
2879,D2,123.0,0.25,85,92.0
2880,F#2,123.0,0.25,85,92.0
2881,D4,123.0,0.25,85,92.0
2882,E-2,123.0,0.25,85,92.0
2883,B-4,123.0,0.25,85,92.0
2884,A4,123.0,0.25,85,92.0
2885,D2,123.25,0.25,45,92.0
2886,F#2,123.25,0.25,45,92.0
2887,D4,123.25,0.25,45,92.0
2888,E-2,123.25,0.25,45,92.0
2889,B-4,123.25,0.25,45,92.0
2890,A4,123.25,0.25,45,92.0
2891,F#2,123.5,0.25,66,92.0
2892,E-4,123.5,0.25,66,92.0
2893,B-4,123.5,0.25,66,92.0
2894,A4,123.5,0.25,66,92.0
2895,G2,123.75,0.125,87,92.0
2896,B1,123.75,0.25,55,92.0
2897,F#2,123.75,0.25,55,92.0
2898,E-4,123.75,0.25,55,92.0
2899,B-4,123.75,0.25,55,92.0
2900,G2,124.0,779/500,97,92.0
2901,G4,124.0,83/1000,63,92.0
2902,B1,124.0,0.25,85,92.0
2903,F#2,124.0,0.25,85,92.0
2904,E-4,124.0,0.25,85,92.0
2905,B-4,124.0,0.25,85,92.0
2906,G5,124.0,83/1000,63,92.0
2907,G4,124.0,83/1000,63,92.0
2908,G2,124.25,1.75,74,92.0
2909,F#2,124.25,0.25,52,92.0
2910,E-4,124.25,0.25,52,92.0
2911,B-4,124.25,0.25,52,92.0
2912,G4,124.467,79/500,98,92.0
2913,D5,124.467,79/500,98,92.0
2914,G5,124.467,79/500,98,92.0
2915,D6,124.467,79/500,98,92.0
2916,G4,124.467,79/500,98,92.0
2917,D5,124.467,79/500,98,92.0
2918,G3,124.5,1.5,74,92.0
2919,F#2,124.5,0.25,80,92.0
2920,D4,124.5,0.25,80,92.0
2921,B-4,124.5,0.25,80,92.0
2922,D5,124.75,129/500,91,92.0
2923,B1,124.75,0.25,57,92.0
2924,F#2,124.75,0.25,57,92.0
2925,B-4,124.75,0.25,57,92.0
2926,B-3,124.75,1.25,56,92.0
2927,G4,124.75,1.25,56,92.0
2928,F4,124.75,1.25,56,92.0
2929,D6,124.75,129/500,91,92.0
2930,D5,124.75,129/500,91,92.0
2931,G4,124.767,167/1000,76,92.0
2932,G5,124.767,167/1000,76,92.0
2933,G4,124.767,167/1000,76,92.0
2934,F#4,124.842,71/40,55,92.0
2935,D4,124.842,71/40,55,92.0
2936,B-3,124.842,71/40,55,92.0
2937,G4,124.842,71/40,55,92.0
2938,D2,125.0,0.25,86,92.0
2939,F#2,125.0,0.25,86,92.0
2940,E-2,125.0,0.25,86,92.0
2941,B-4,125.0,0.25,86,92.0
2942,A4,125.0,0.25,86,92.0
2943,C5,125.033,383/1000,64,92.0
2944,G4,125.033,383/1000,64,92.0
2945,C6,125.033,383/1000,64,92.0
2946,C5,125.033,383/1000,64,92.0
2947,G5,125.033,383/1000,64,92.0
2948,G4,125.033,383/1000,64,92.0
2949,F#2,125.25,0.25,59,92.0
2950,D4,125.25,0.25,59,92.0
2951,B-4,125.25,0.25,59,92.0
2952,A4,125.25,0.25,59,92.0
2953,F#2,125.5,0.25,58,92.0
2954,E-4,125.5,0.25,58,92.0
2955,B-4,125.5,0.25,58,92.0
2956,A4,125.5,0.25,58,92.0
2957,D5,125.508,283/1000,82,92.0
2958,D6,125.508,283/1000,82,92.0
2959,D5,125.508,283/1000,82,92.0
2960,G4,125.542,0.125,62,92.0
2961,G5,125.542,0.125,62,92.0
2962,G4,125.542,0.125,62,92.0
2963,G2,125.75,121/500,101,92.0
2964,B1,125.75,0.25,65,92.0
2965,F#2,125.75,0.25,65,92.0
2966,E-4,125.75,0.25,65,92.0
2967,B-4,125.75,0.25,65,92.0
2968,G4,125.792,221/500,84,92.0
2969,C5,125.792,221/500,84,92.0
2970,G5,125.792,221/500,84,92.0
2971,G4,125.792,221/500,84,92.0
2972,C6,125.792,221/500,84,92.0
2973,C5,125.792,221/500,84,92.0
2974,G2,126.0,1617/1000,94,92.0
2975,F#2,126.0,0.25,80,92.0
2976,B-4,126.0,0.25,80,92.0
2977,B-4,126.233,3/10,57,92.0
2978,B-5,126.233,3/10,57,92.0
2979,B-4,126.233,3/10,57,92.0
2980,G2,126.25,1.75,74,92.0
2981,F#2,126.25,0.25,48,92.0
2982,B-4,126.25,0.25,48,92.0
2983,B-3,126.5,1.5,85,92.0
2984,F#2,126.5,0.25,75,92.0
2985,B-4,126.5,0.25,75,92.0
2986,B1,126.75,0.25,62,92.0
2987,F#2,126.75,0.25,62,92.0
2988,E-4,126.75,0.25,62,92.0
2989,B-4,126.75,0.25,62,92.0
2990,B-4,126.75,1.25,72,92.0
2991,E4,126.75,1.25,72,92.0
2992,G4,126.75,1.25,72,92.0
2993,B-4,126.792,367/1000,71,92.0
2994,B-5,126.792,367/1000,71,92.0
2995,B-4,126.792,367/1000,71,92.0
2996,F4,126.842,71/40,55,92.0
2997,D4,126.842,71/40,55,92.0
2998,B-3,126.842,71/40,55,92.0
2999,G4,126.842,71/40,55,92.0
3000,D2,127.0,0.25,85,92.0
3001,F#2,127.0,0.25,85,92.0
3002,D4,127.0,0.25,85,92.0
3003,E-2,127.0,0.25,85,92.0
3004,B-4,127.0,0.25,85,92.0
3005,A4,127.0,0.25,85,92.0
3006,D2,127.25,0.25,49,92.0
3007,F#2,127.25,0.25,49,92.0
3008,D4,127.25,0.25,49,92.0
3009,E-2,127.25,0.25,49,92.0
3010,B-4,127.25,0.25,49,92.0
3011,A4,127.25,0.25,49,92.0
3012,B-4,127.292,129/500,62,92.0
3013,B-5,127.292,129/500,62,92.0
3014,B-4,127.292,129/500,62,92.0
3015,B1,127.5,0.25,66,92.0
3016,F#2,127.5,0.25,66,92.0
3017,E-4,127.5,0.25,66,92.0
3018,B-4,127.5,0.25,66,92.0
3019,A4,127.5,0.25,66,92.0
3020,C5,127.533,13/40,88,92.0
3021,G4,127.533,13/40,88,92.0
3022,C6,127.533,13/40,88,92.0
3023,G5,127.533,13/40,88,92.0
3024,C5,127.533,13/40,88,92.0
3025,G4,127.533,13/40,88,92.0
3026,G2,127.75,0.25,87,92.0
3027,F#2,127.75,0.25,44,92.0
3028,E-4,127.75,0.25,44,92.0
3029,B-4,127.75,0.25,44,92.0
3030,B-4,127.758,121/500,68,92.0
3031,B-5,127.758,121/500,68,92.0
3032,B-4,127.758,121/500,68,92.0
3033,G#2,128.0,201/125,90,92.0
3034,G#2,128.0,823/250,87,92.0
3035,B-4,128.0,29/500,68,92.0
3036,B1,128.0,0.25,85,92.0
3037,F#2,128.0,0.25,85,92.0
3038,E-4,128.0,0.25,85,92.0
3039,B-4,128.0,0.25,85,92.0
3040,B-5,128.0,29/500,68,92.0
3041,B-4,128.0,29/500,68,92.0
3042,C5,128.017,517/1000,94,92.0
3043,G4,128.017,517/1000,94,92.0
3044,C6,128.017,517/1000,94,92.0
3045,G5,128.017,517/1000,94,92.0
3046,C5,128.017,517/1000,94,92.0
3047,G4,128.017,517/1000,94,92.0
3048,E-3,128.25,2283/1000,60,92.0
3049,F#2,128.25,0.25,50,92.0
3050,E-4,128.25,0.25,50,92.0
3051,B-4,128.25,0.25,50,92.0
3052,G#3,128.5,12/5,94,92.0
3053,F#2,128.5,0.25,80,92.0
3054,D4,128.5,0.25,80,92.0
3055,B-4,128.5,0.25,80,92.0
3056,B-4,128.508,83/1000,59,92.0
3057,B-5,128.508,83/1000,59,92.0
3058,B-4,128.508,83/1000,59,92.0
3059,E-4,128.75,523/250,87,92.0
3060,F#2,128.75,0.25,40,92.0
3061,B-4,128.75,0.25,40,92.0
3062,G4,128.75,1079/500,78,92.0
3063,B-3,128.75,1079/500,78,92.0
3064,B-4,128.767,3/20,57,92.0
3065,B-5,128.767,3/20,57,92.0
3066,B-4,128.767,3/20,57,92.0
3067,E4,128.842,71/40,55,92.0
3068,D4,128.842,71/40,55,92.0
3069,B-3,128.842,71/40,55,92.0
3070,G4,128.842,71/40,55,92.0
3071,G4,129.0,0.5,114,92.0
3072,D2,129.0,0.25,86,92.0
3073,F#2,129.0,0.25,86,92.0
3074,E-2,129.0,0.25,86,92.0
3075,B-4,129.0,0.25,86,92.0
3076,A4,129.0,0.25,86,92.0
3077,G5,129.0,0.5,114,92.0
3078,G4,129.0,0.5,114,92.0
3079,F#2,129.25,0.25,64,92.0
3080,D4,129.25,0.25,64,92.0
3081,B-4,129.25,0.25,64,92.0
3082,A4,129.25,0.25,64,92.0
3083,F#2,129.5,0.25,58,92.0
3084,E-4,129.5,0.25,58,92.0
3085,B-4,129.5,0.25,58,92.0
3086,A4,129.5,0.25,58,92.0
3087,F4,129.525,77/250,59,92.0
3088,F5,129.525,77/250,59,92.0
3089,F4,129.525,77/250,59,92.0
3090,G#2,129.75,0.125,87,92.0
3091,G4,129.75,124/125,114,92.0
3092,B1,129.75,0.25,62,92.0
3093,F#2,129.75,0.25,62,92.0
3094,E-4,129.75,0.25,62,92.0
3095,B-4,129.75,0.25,62,92.0
3096,G5,129.75,124/125,114,92.0
3097,G4,129.75,124/125,114,92.0
3098,G#2,130.0,1.5,94,92.0
3099,B1,130.0,0.25,83,92.0
3100,F#2,130.0,0.25,83,92.0
3101,B-4,130.0,0.25,83,92.0
3102,F#2,130.25,0.25,55,92.0
3103,B-4,130.25,0.25,55,92.0
3104,F4,130.283,433/1000,65,92.0
3105,F5,130.283,433/1000,65,92.0
3106,F4,130.283,433/1000,65,92.0
3107,F#2,130.5,0.25,75,92.0
3108,B-4,130.5,0.25,75,92.0
3109,E-3,130.75,271/500,81,92.0
3110,F#2,130.75,0.25,53,92.0
3111,E-4,130.75,0.25,53,92.0
3112,B-4,130.75,0.25,53,92.0
3113,E-4,130.783,3/5,63,92.0
3114,E-5,130.783,3/5,63,92.0
3115,E-4,130.783,3/5,63,92.0
3116,D2,131.0,0.25,85,92.0
3117,F#2,131.0,0.25,85,92.0
3118,D4,131.0,0.25,85,92.0
3119,E-2,131.0,0.25,85,92.0
3120,B-4,131.0,0.25,85,92.0
3121,A4,131.0,0.25,85,92.0
3122,G4,131.0,73/250,72,92.0
3123,B-3,131.0,73/250,72,92.0
3124,G#3,131.0,73/250,72,92.0
3125,E-4,131.0,73/250,72,92.0
3126,C4,131.092,3.75,65,92.0
3127,D2,131.25,0.25,50,92.0
3128,F#2,131.25,0.25,50,92.0
3129,D4,131.25,0.25,50,92.0
3130,E-2,131.25,0.25,50,92.0
3131,B-4,131.25,0.25,50,92.0
3132,A4,131.25,0.25,50,92.0
3133,G4,131.342,3.5,65,92.0
3134,E-4,131.492,0.375,50,92.0
3135,E-5,131.492,0.375,50,92.0
3136,E-4,131.492,0.375,50,92.0
3137,E-2,131.5,129/500,56,92.0
3138,G#2,131.5,0.5,74,92.0
3139,G#3,131.5,0.5,71,92.0
3140,F#2,131.5,0.25,66,92.0
3141,E-4,131.5,0.25,66,92.0
3142,B-4,131.5,0.25,66,92.0
3143,A4,131.5,0.25,66,92.0
3144,G#4,131.5,0.5,86,92.0
3145,C4,131.5,0.5,86,92.0
3146,B-4,131.592,3.25,67,92.0
3147,F4,131.75,121/500,63,92.0
3148,B1,131.75,0.25,55,92.0
3149,F#2,131.75,0.25,55,92.0
3150,E-4,131.75,0.25,55,92.0
3151,B-4,131.75,0.25,55,92.0
3152,F5,131.75,121/500,63,92.0
3153,F4,131.75,121/500,63,92.0
3154,F2,131.758,121/500,68,92.0
3155,G#2,132.0,201/125,101,92.0
3156,G#2,132.0,1829/500,74,92.0
3157,G#3,132.0,223/250,71,92.0
3158,G4,132.0,21/40,114,92.0
3159,B1,132.0,0.25,85,92.0
3160,F#2,132.0,0.25,85,92.0
3161,E-4,132.0,0.25,85,92.0
3162,B-4,132.0,0.25,85,92.0
3163,G#4,132.0,1333/1000,86,92.0
3164,C4,132.0,1333/1000,86,92.0
3165,F#2,132.25,0.25,52,92.0
3166,E-4,132.25,0.25,52,92.0
3167,B-4,132.25,0.25,52,92.0
3168,F#2,132.5,0.25,80,92.0
3169,D4,132.5,0.25,80,92.0
3170,B-4,132.5,0.25,80,92.0
3171,E-4,132.517,367/1000,58,92.0
3172,F4,132.733,11/40,62,92.0
3173,E-3,132.75,29/10,84,92.0
3174,B1,132.75,0.25,57,92.0
3175,F#2,132.75,0.25,57,92.0
3176,B-4,132.75,0.25,57,92.0
3177,D2,133.0,0.25,86,92.0
3178,F#2,133.0,0.25,86,92.0
3179,E-2,133.0,0.25,86,92.0
3180,B-4,133.0,0.25,86,92.0
3181,A4,133.0,0.25,86,92.0
3182,G4,133.025,317/1000,109,92.0
3183,G#3,133.25,1417/1000,94,92.0
3184,F#2,133.25,0.25,59,92.0
3185,D4,133.25,0.25,59,92.0
3186,B-4,133.25,0.25,59,92.0
3187,A4,133.25,0.25,59,92.0
3188,E-4,133.317,383/1000,36,92.0
3189,F#2,133.5,0.25,58,92.0
3190,E-4,133.5,0.25,58,92.0
3191,B-4,133.5,0.25,58,92.0
3192,A4,133.5,0.25,58,92.0
3193,F4,133.533,9/40,58,92.0
3194,G#2,133.75,117/1000,84,92.0
3195,C5,133.75,279/500,77,92.0
3196,B1,133.75,0.25,65,92.0
3197,F#2,133.75,0.25,65,92.0
3198,E-4,133.75,0.25,65,92.0
3199,B-4,133.75,0.25,65,92.0
3200,G4,133.767,11/40,114,92.0
3201,G#2,134.0,1817/1000,81,92.0
3202,F#2,134.0,0.25,80,92.0
3203,B-4,134.0,0.25,80,92.0
3204,E-4,134.075,13/40,43,92.0
3205,B-4,134.25,3/10,77,92.0
3206,F4,134.25,73/250,68,92.0
3207,F#2,134.25,0.25,48,92.0
3208,B-4,134.25,0.25,48,92.0
3209,G#4,134.5,533/1000,97,92.0
3210,G4,134.5,11/40,114,92.0
3211,F#2,134.5,0.25,75,92.0
3212,B-4,134.5,0.25,75,92.0
3213,G#3,134.75,9/10,101,92.0
3214,B1,134.75,0.25,62,92.0
3215,F#2,134.75,0.25,62,92.0
3216,E-4,134.75,0.25,62,92.0
3217,B-4,134.75,0.25,62,92.0
3218,E-4,134.783,11/40,56,92.0
3219,C4,134.842,43/20,65,92.0
3220,G4,134.842,2.5,65,92.0
3221,B-4,134.842,2.5,67,92.0
3222,F4,135.0,3/5,97,92.0
3223,D2,135.0,0.25,85,92.0
3224,F#2,135.0,0.25,85,92.0
3225,D4,135.0,0.25,85,92.0
3226,E-2,135.0,0.25,85,92.0
3227,B-4,135.0,0.25,85,92.0
3228,A4,135.0,0.25,85,92.0
3229,F4,135.017,0.25,74,92.0
3230,D2,135.25,0.25,49,92.0
3231,F#2,135.25,0.25,49,92.0
3232,D4,135.25,0.25,49,92.0
3233,E-2,135.25,0.25,49,92.0
3234,B-4,135.25,0.25,49,92.0
3235,A4,135.25,0.25,49,92.0
3236,G4,135.267,9/40,114,92.0
3237,B1,135.5,0.25,66,92.0
3238,F#2,135.5,0.25,66,92.0
3239,E-4,135.5,0.25,66,92.0
3240,B-4,135.5,0.25,66,92.0
3241,A4,135.5,0.25,66,92.0
3242,F4,135.533,26/125,80,92.0
3243,E-2,135.75,167/1000,87,92.0
3244,F#2,135.75,0.25,44,92.0
3245,E-4,135.75,0.25,44,92.0
3246,B-4,135.75,0.25,44,92.0
3247,G4,135.792,167/1000,114,92.0
3248,G2,136.0,1617/1000,94,92.0
3249,B1,136.0,0.25,85,92.0
3250,F#2,136.0,0.25,85,92.0
3251,E-4,136.0,0.25,85,92.0
3252,B-4,136.0,0.25,85,92.0
3253,B4,136.025,617/1000,124,92.0
3254,G2,136.033,3.5,74,92.0
3255,F#2,136.25,0.25,50,92.0
3256,E-4,136.25,0.25,50,92.0
3257,B-4,136.25,0.25,50,92.0
3258,D3,136.283,3717/1000,77,92.0
3259,F#2,136.5,0.25,80,92.0
3260,D4,136.5,0.25,80,92.0
3261,B-4,136.5,0.25,80,92.0
3262,G3,136.525,173/250,87,92.0
3263,F#4,136.525,121/500,78,92.0
3264,F#4,136.542,77/250,87,92.0
3265,B3,136.542,883/1000,84,92.0
3266,F#2,136.75,0.25,40,92.0
3267,B-4,136.75,0.25,40,92.0
3268,G4,136.758,171/500,98,92.0
3269,G4,136.792,833/1000,109,92.0
3270,D2,137.0,0.25,86,92.0
3271,F#2,137.0,0.25,86,92.0
3272,E-2,137.0,0.25,86,92.0
3273,B-4,137.0,0.25,86,92.0
3274,A4,137.0,0.25,86,92.0
3275,F#4,137.033,129/500,61,92.0
3276,E4,137.083,0.5,65,92.0
3277,G#3,137.092,1667/1000,43,92.0
3278,F#2,137.25,0.25,64,92.0
3279,D4,137.25,0.25,64,92.0
3280,B-4,137.25,0.25,64,92.0
3281,A4,137.25,0.25,64,92.0
3282,D4,137.3,23/40,88,92.0
3283,G3,137.308,13/10,97,92.0
3284,C4,137.342,1417/1000,35,92.0
3285,F#2,137.5,0.25,58,92.0
3286,E-4,137.5,0.25,58,92.0
3287,B-4,137.5,0.25,58,92.0
3288,A4,137.5,0.25,58,92.0
3289,B3,137.525,29/20,74,92.0
3290,G4,137.592,1133/1000,56,92.0
3291,F#4,137.733,533/1000,71,92.0
3292,G2,137.75,2033/1000,87,92.0
3293,B1,137.75,0.25,62,92.0
3294,F#2,137.75,0.25,62,92.0
3295,E-4,137.75,0.25,62,92.0
3296,B-4,137.75,0.25,62,92.0
3297,D4,137.783,1017/1000,94,92.0
3298,B1,138.0,0.25,83,92.0
3299,F#2,138.0,0.25,83,92.0
3300,B-4,138.0,0.25,83,92.0
3301,D4,138.233,3/10,76,92.0
3302,F#2,138.25,0.25,55,92.0
3303,B-4,138.25,0.25,55,92.0
3304,F#2,138.5,0.25,75,92.0
3305,B-4,138.5,0.25,75,92.0
3306,F#4,138.517,7/20,61,92.0
3307,D4,138.742,9/40,76,92.0
3308,F#2,138.75,0.25,53,92.0
3309,E-4,138.75,0.25,53,92.0
3310,B-4,138.75,0.25,53,92.0
3311,G3,138.825,221/500,84,92.0
3312,F#4,138.842,4.0,59,92.0
3313,D4,138.842,4.0,59,92.0
3314,B3,138.842,4.0,59,92.0
3315,A4,138.842,4.0,59,92.0
3316,G4,138.967,73/250,82,92.0
3317,D2,139.0,0.25,85,92.0
3318,F#2,139.0,0.25,85,92.0
3319,D4,139.0,0.25,85,92.0
3320,E-2,139.0,0.25,85,92.0
3321,B-4,139.0,0.25,85,92.0
3322,A4,139.0,0.25,85,92.0
3323,C4,139.05,433/1000,105,92.0
3324,B4,139.225,183/1000,98,92.0
3325,D2,139.25,0.25,50,92.0
3326,F#2,139.25,0.25,50,92.0
3327,D4,139.25,0.25,50,92.0
3328,E-2,139.25,0.25,50,92.0
3329,B-4,139.25,0.25,50,92.0
3330,A4,139.25,0.25,50,92.0
3331,B3,139.275,267/1000,87,92.0
3332,D5,139.475,7/40,91,92.0
3333,F#2,139.5,0.25,66,92.0
3334,E-4,139.5,0.25,66,92.0
3335,B-4,139.5,0.25,66,92.0
3336,A4,139.5,0.25,66,92.0
3337,A3,139.533,71/500,87,92.0
3338,D5,139.733,1/5,104,92.0
3339,D2,139.75,0.25,35,92.0
3340,B1,139.75,0.25,55,92.0
3341,F#2,139.75,0.25,55,92.0
3342,E-4,139.75,0.25,55,92.0
3343,B-4,139.75,0.25,55,92.0
3344,E2,139.783,1/40,16,92.0
3345,G3,139.8,117/1000,74,92.0
3346,G2,140.0,31/20,101,92.0
3347,D3,140.0,1/40,77,92.0
3348,B1,140.0,0.25,85,92.0
3349,F#2,140.0,0.25,85,92.0
3350,E-4,140.0,0.25,85,92.0
3351,B-4,140.0,0.25,85,92.0
3352,D5,140.008,17/40,95,92.0
3353,A3,140.033,1771/500,74,92.0
3354,G2,140.042,3933/1000,71,92.0
3355,F#3,140.05,221/500,63,92.0
3356,F#2,140.25,0.25,52,92.0
3357,E-4,140.25,0.25,52,92.0
3358,B-4,140.25,0.25,52,92.0
3359,D3,140.325,101/125,77,92.0
3360,D5,140.483,7/40,78,92.0
3361,F#2,140.5,0.25,80,92.0
3362,D4,140.5,0.25,80,92.0
3363,B-4,140.5,0.25,80,92.0
3364,F#3,140.567,47/20,74,92.0
3365,D5,140.742,221/500,91,92.0
3366,B1,140.75,0.25,57,92.0
3367,F#2,140.75,0.25,57,92.0
3368,B-4,140.75,0.25,57,92.0
3369,D4,140.792,127/40,94,92.0
3370,D2,141.0,0.25,86,92.0
3371,F#2,141.0,0.25,86,92.0
3372,E-2,141.0,0.25,86,92.0
3373,B-4,141.0,0.25,86,92.0
3374,A4,141.0,0.25,86,92.0
3375,F#2,141.25,0.25,59,92.0
3376,D4,141.25,0.25,59,92.0
3377,B-4,141.25,0.25,59,92.0
3378,A4,141.25,0.25,59,92.0
3379,D3,141.267,176/125,90,92.0
3380,D5,141.267,383/1000,88,92.0
3381,F#2,141.5,0.25,58,92.0
3382,E-4,141.5,0.25,58,92.0
3383,B-4,141.5,0.25,58,92.0
3384,A4,141.5,0.25,58,92.0
3385,G2,141.75,871/500,97,92.0
3386,B4,141.75,1/5,127,92.0
3387,B1,141.75,0.25,65,92.0
3388,F#2,141.75,0.25,65,92.0
3389,E-4,141.75,0.25,65,92.0
3390,B-4,141.75,0.25,65,92.0
3391,D5,142.0,1/5,127,92.0
3392,F#2,142.0,0.25,80,92.0
3393,B-4,142.0,0.25,80,92.0
3394,C5,142.25,1/5,127,92.0
3395,F#2,142.25,0.25,48,92.0
3396,B-4,142.25,0.25,48,92.0
3397,B4,142.5,1/5,127,92.0
3398,F#2,142.5,0.25,75,92.0
3399,B-4,142.5,0.25,75,92.0
3400,C5,142.75,0.25,127,92.0
3401,B1,142.75,0.25,62,92.0
3402,F#2,142.75,0.25,62,92.0
3403,E-4,142.75,0.25,62,92.0
3404,B-4,142.75,0.25,62,92.0
3405,D3,142.783,149/125,81,92.0
3406,D2,143.0,0.25,85,92.0
3407,F#2,143.0,0.25,85,92.0
3408,D4,143.0,0.25,85,92.0
3409,E-2,143.0,0.25,85,92.0
3410,B-4,143.0,0.25,85,92.0
3411,A4,143.0,0.25,85,92.0
3412,G3,143.042,227/250,105,92.0
3413,D5,143.058,171/500,76,92.0
3414,D2,143.25,0.25,49,92.0
3415,F#2,143.25,0.25,49,92.0
3416,D4,143.25,0.25,49,92.0
3417,E-2,143.25,0.25,49,92.0
3418,B-4,143.25,0.25,49,92.0
3419,A4,143.25,0.25,49,92.0
3420,C5,143.417,333/1000,61,92.0
3421,D2,143.5,3/20,81,92.0
3422,B1,143.5,0.25,66,92.0
3423,F#2,143.5,0.25,66,92.0
3424,E-4,143.5,0.25,66,92.0
3425,B-4,143.5,0.25,66,92.0
3426,A4,143.5,0.25,66,92.0
3427,B3,143.533,0.375,74,92.0
3428,D5,143.733,0.25,82,92.0
3429,E2,143.75,167/1000,71,92.0
3430,F#2,143.75,0.25,44,92.0
3431,E-4,143.75,0.25,44,92.0
3432,B-4,143.75,0.25,44,92.0
3433,F2,144.0,1633/1000,87,92.0
3434,G#3,144.0,103/40,48,92.0
3435,F2,144.0,4.0,71,92.0
3436,B1,144.0,0.25,85,92.0
3437,F#2,144.0,0.25,85,92.0
3438,E-4,144.0,0.25,85,92.0
3439,B-4,144.0,0.25,85,92.0
3440,F4,144.0,1379/500,62,92.0
3441,E-4,144.0,1379/500,62,92.0
3442,E-5,144.033,221/500,63,92.0
3443,F#2,144.25,0.25,50,92.0
3444,E-4,144.25,0.25,50,92.0
3445,B-4,144.25,0.25,50,92.0
3446,F5,144.475,11/40,80,92.0
3447,F#2,144.5,0.25,80,92.0
3448,D4,144.5,0.25,80,92.0
3449,B-4,144.5,0.25,80,92.0
3450,D5,144.75,9/20,80,92.0
3451,F#2,144.75,0.25,40,92.0
3452,B-4,144.75,0.25,40,92.0
3453,D2,145.0,0.25,86,92.0
3454,F#2,145.0,0.25,86,92.0
3455,E-2,145.0,0.25,86,92.0
3456,B-4,145.0,0.25,86,92.0
3457,A4,145.0,0.25,86,92.0
3458,E-5,145.008,79/500,63,92.0
3459,C5,145.242,129/500,78,92.0
3460,F#2,145.25,0.25,64,92.0
3461,D4,145.25,0.25,64,92.0
3462,B-4,145.25,0.25,64,92.0
3463,A4,145.25,0.25,64,92.0
3464,D5,145.483,11/40,73,92.0
3465,F#2,145.5,0.25,58,92.0
3466,E-4,145.5,0.25,58,92.0
3467,B-4,145.5,0.25,58,92.0
3468,A4,145.5,0.25,58,92.0
3469,F2,145.75,133/1000,97,92.0
3470,B1,145.75,0.25,62,92.0
3471,F#2,145.75,0.25,62,92.0
3472,E-4,145.75,0.25,62,92.0
3473,B-4,145.75,0.25,62,92.0
3474,C5,145.767,24/125,80,92.0
3475,F#4,145.842,3.0,59,92.0
3476,D4,145.842,3.0,59,92.0
3477,B3,145.842,3.0,59,92.0
3478,A4,145.842,3.0,59,92.0
3479,F2,146.0,1617/1000,74,92.0
3480,B1,146.0,0.25,83,92.0
3481,F#2,146.0,0.25,83,92.0
3482,B-4,146.0,0.25,83,92.0
3483,B-4,146.008,17/20,56,92.0
3484,F3,146.25,1.75,94,92.0
3485,C5,146.25,11/40,85,92.0
3486,F#2,146.25,0.25,55,92.0
3487,B-4,146.25,0.25,55,92.0
3488,F#2,146.5,0.25,75,92.0
3489,B-4,146.5,0.25,75,92.0
3490,F#2,146.75,0.25,53,92.0
3491,E-4,146.75,0.25,53,92.0
3492,B-4,146.75,0.25,53,92.0
3493,G#3,146.758,621/500,85,92.0
3494,G4,146.8,129/500,91,92.0
3495,D2,147.0,0.25,85,92.0
3496,F#2,147.0,0.25,85,92.0
3497,D4,147.0,0.25,85,92.0
3498,E-2,147.0,0.25,85,92.0
3499,B-4,147.0,0.25,85,92.0
3500,A4,147.0,0.25,85,92.0
3501,G#4,147.042,13/40,73,92.0
3502,E-4,147.25,0.75,68,92.0
3503,D2,147.25,0.25,50,92.0
3504,F#2,147.25,0.25,50,92.0
3505,D4,147.25,0.25,50,92.0
3506,E-2,147.25,0.25,50,92.0
3507,B-4,147.25,0.25,50,92.0
3508,A4,147.25,0.25,50,92.0
3509,B-4,147.325,24/125,63,92.0
3510,F4,147.5,0.5,74,92.0
3511,F#2,147.5,0.25,66,92.0
3512,E-4,147.5,0.25,66,92.0
3513,B-4,147.5,0.25,66,92.0
3514,A4,147.5,0.25,66,92.0
3515,C5,147.508,233/1000,91,92.0
3516,F2,147.75,79/500,84,92.0
3517,B1,147.75,0.25,55,92.0
3518,F#2,147.75,0.25,55,92.0
3519,E-4,147.75,0.25,55,92.0
3520,B-4,147.75,0.25,55,92.0
3521,D5,147.758,121/500,98,92.0
3522,B-1,148.0,779/500,97,92.0
3523,G#4,148.0,77/40,59,92.0
3524,C4,148.0,99/40,68,92.0
3525,B-2,148.0,3833/1000,60,92.0
3526,G#3,148.0,27/20,52,92.0
3527,B1,148.0,0.25,85,92.0
3528,F#2,148.0,0.25,85,92.0
3529,E-4,148.0,0.25,85,92.0
3530,B-4,148.0,0.25,85,92.0
3531,F4,148.0,2117/1000,74,92.0
3532,E-4,148.0,2117/1000,74,92.0
3533,F#5,148.017,73/250,88,92.0
3534,F#2,148.25,0.25,52,92.0
3535,E-4,148.25,0.25,52,92.0
3536,B-4,148.25,0.25,52,92.0
3537,F5,148.275,24/125,120,92.0
3538,F#2,148.5,0.25,80,92.0
3539,D4,148.5,0.25,80,92.0
3540,B-4,148.5,0.25,80,92.0
3541,F5,148.55,24/125,114,92.0
3542,C3,148.75,0.25,68,92.0
3543,B-4,148.75,0.25,68,92.0
3544,F#5,148.767,0.25,73,92.0
3545,B3,148.842,1.0,44,92.0
3546,F#2,149.0,0.25,85,92.0
3547,E-2,149.0,0.25,85,92.0
3548,B-4,149.0,0.25,85,92.0
3549,A4,149.0,0.25,85,92.0
3550,F5,149.025,26/125,124,92.0
3551,F3,149.25,2.75,90,92.0
3552,F#2,149.25,0.25,59,92.0
3553,D4,149.25,0.25,59,92.0
3554,B-4,149.25,0.25,59,92.0
3555,A4,149.25,0.25,59,92.0
3556,F#5,149.267,133/1000,74,92.0
3557,F#4,149.342,0.5,59,92.0
3558,A2,149.5,0.25,60,92.0
3559,E-4,149.5,0.25,60,92.0
3560,B-4,149.5,0.25,60,92.0
3561,A4,149.5,0.25,60,92.0
3562,F#5,149.525,26/125,124,92.0
3563,B-1,149.75,71/500,90,92.0
3564,G#3,149.75,679/500,75,92.0
3565,D2,149.75,0.25,67,92.0
3566,E-4,149.75,0.25,67,92.0
3567,B-4,149.75,0.25,67,92.0
3568,F5,149.767,1/5,104,92.0
3569,B-1,150.0,1817/1000,90,92.0
3570,G4,150.0,0.25,87,92.0
3571,D2,150.0,0.25,80,92.0
3572,B-4,150.0,0.25,80,92.0
3573,E-5,150.008,1/5,61,92.0
3574,G#4,150.25,129/500,75,92.0
3575,F#2,150.25,0.25,48,92.0
3576,B-4,150.25,0.25,48,92.0
3577,C5,150.258,267/1000,95,92.0
3578,G4,150.5,123/250,84,92.0
3579,D2,150.5,0.25,80,92.0
3580,B-4,150.5,0.25,80,92.0
3581,B-4,150.517,7/40,67,92.0
3582,B-3,150.75,0.5,56,92.0
3583,F#2,150.75,0.25,53,92.0
3584,E-4,150.75,0.25,53,92.0
3585,B-4,150.75,0.25,53,92.0
3586,E-4,150.842,3.0,54,92.0
3587,G#3,150.842,3.0,54,92.0
3588,F4,150.842,3.0,54,92.0
3589,F4,151.0,74/125,101,92.0
3590,C5,151.0,1/5,127,92.0
3591,D2,151.0,0.25,84,92.0
3592,D4,151.0,0.25,84,92.0
3593,E-2,151.0,0.25,84,92.0
3594,B-4,151.0,0.25,84,92.0
3595,A4,151.0,0.25,84,92.0
3596,G#3,151.25,0.75,39,92.0
3597,B-4,151.25,1/5,127,92.0
3598,D2,151.25,0.25,48,92.0
3599,D4,151.25,0.25,48,92.0
3600,E-2,151.25,0.25,48,92.0
3601,B-4,151.25,0.25,48,92.0
3602,A4,151.25,0.25,48,92.0
3603,G#4,151.5,1/5,127,92.0
3604,B1,151.5,0.25,70,92.0
3605,B-2,151.5,0.25,70,92.0
3606,E-4,151.5,0.25,70,92.0
3607,B-4,151.5,0.25,70,92.0
3608,A4,151.5,0.25,70,92.0
3609,B-3,151.5,0.5,70,92.0
3610,E-4,151.5,0.5,70,92.0
3611,F1,151.75,24/125,90,92.0
3612,F4,151.75,1/5,127,92.0
3613,E-4,151.75,0.25,50,92.0
3614,B-4,151.75,0.25,50,92.0
3615,E-2,152.0,7/40,90,92.0
3616,G3,152.0,103/40,48,92.0
3617,E-2,152.0,4.0,71,92.0
3618,B1,152.0,0.25,84,92.0
3619,F#2,152.0,0.25,84,92.0
3620,C#3,152.0,0.25,84,92.0
3621,E-4,152.0,0.25,84,92.0
3622,B-4,152.0,0.25,84,92.0
3623,F4,152.0,1379/500,62,92.0
3624,D4,152.0,1379/500,62,92.0
3625,G4,152.033,33/40,78,92.0
3626,G5,152.033,33/40,78,92.0
3627,G4,152.033,33/40,78,92.0
3628,E-2,152.25,217/1000,94,92.0
3629,F#2,152.25,0.25,53,92.0
3630,E-4,152.25,0.25,53,92.0
3631,B-4,152.25,0.25,53,92.0
3632,B-2,152.5,0.25,83,92.0
3633,D4,152.5,0.25,83,92.0
3634,B-4,152.5,0.25,83,92.0
3635,B-4,152.75,0.25,40,92.0
3636,G4,152.992,29/40,74,92.0
3637,G5,152.992,29/40,74,92.0
3638,G4,152.992,29/40,74,92.0
3639,F#2,153.0,0.25,85,92.0
3640,C#2,153.0,0.25,85,92.0
3641,B-4,153.0,0.25,85,92.0
3642,A4,153.0,0.25,85,92.0
3643,E-2,153.25,3/20,77,92.0
3644,F#2,153.25,0.25,64,92.0
3645,D4,153.25,0.25,64,92.0
3646,B-4,153.25,0.25,64,92.0
3647,A4,153.25,0.25,64,92.0
3648,F2,153.5,7/40,74,92.0
3649,F#2,153.5,0.25,53,92.0
3650,E-4,153.5,0.25,53,92.0
3651,B-4,153.5,0.25,53,92.0
3652,A4,153.5,0.25,53,92.0
3653,B-4,153.742,27/40,109,92.0
3654,B-5,153.742,27/40,109,92.0
3655,B-4,153.742,27/40,109,92.0
3656,G2,153.75,3/20,90,92.0
3657,F#2,153.75,0.25,51,92.0
3658,E-4,153.75,0.25,51,92.0
3659,B-4,153.75,0.25,51,92.0
3660,F#2,154.0,0.25,80,92.0
3661,B-4,154.0,0.25,80,92.0
3662,G#3,154.092,723/250,52,92.0
3663,G2,154.25,71/500,71,92.0
3664,E-3,154.25,1.75,94,92.0
3665,F#2,154.25,0.25,55,92.0
3666,B-4,154.25,0.25,55,92.0
3667,E-4,154.342,107/40,68,92.0
3668,G4,154.492,9/40,56,92.0
3669,G5,154.492,9/40,56,92.0
3670,G4,154.492,9/40,56,92.0
3671,F2,154.5,71/500,84,92.0
3672,F#2,154.5,0.25,65,92.0
3673,B-4,154.5,0.25,65,92.0
3674,F4,154.592,2333/1000,54,92.0
3675,F4,154.717,11/40,63,92.0
3676,F5,154.717,11/40,63,92.0
3677,F4,154.717,11/40,63,92.0
3678,E-2,154.75,3/20,90,92.0
3679,F#2,154.75,0.25,47,92.0
3680,E-4,154.75,0.25,47,92.0
3681,B-4,154.75,0.25,47,92.0
3682,G3,154.758,621/500,85,92.0
3683,G4,154.992,126/125,66,92.0
3684,G5,154.992,126/125,66,92.0
3685,G4,154.992,126/125,66,92.0
3686,D2,155.0,123/250,102,92.0
3687,F#2,155.0,0.25,84,92.0
3688,C#2,155.0,0.25,84,92.0
3689,D4,155.0,0.25,84,92.0
3690,B-4,155.0,0.25,84,92.0
3691,A4,155.0,0.25,84,92.0
3692,D4,155.25,0.75,68,92.0
3693,F#2,155.25,0.25,55,92.0
3694,D4,155.25,0.25,55,92.0
3695,B-4,155.25,0.25,55,92.0
3696,A4,155.25,0.25,55,92.0
3697,E-2,155.5,283/1000,94,92.0
3698,F4,155.5,0.5,74,92.0
3699,B1,155.5,0.25,66,92.0
3700,F#2,155.5,0.25,66,92.0
3701,E-4,155.5,0.25,66,92.0
3702,B-4,155.5,0.25,66,92.0
3703,A4,155.5,0.25,66,92.0
3704,F#2,155.75,0.25,41,92.0
3705,E-4,155.75,0.25,41,92.0
3706,B-4,155.75,0.25,41,92.0
3707,F2,156.0,26/125,105,92.0
3708,G#4,156.0,17/40,66,92.0
3709,G4,156.0,39/10,66,92.0
3710,B1,156.0,0.25,85,92.0
3711,F#2,156.0,0.25,85,92.0
3712,E-4,156.0,0.25,85,92.0
3713,B-4,156.0,0.25,85,92.0
3714,C5,156.0,483/1000,63,92.0
3715,F3,156.0,483/1000,63,92.0
3716,E-4,156.0,483/1000,63,92.0
3717,G5,156.0,39/10,66,92.0
3718,G4,156.0,39/10,66,92.0
3719,F2,156.25,1/5,90,92.0
3720,F#2,156.25,0.25,53,92.0
3721,E-4,156.25,0.25,53,92.0
3722,B-4,156.25,0.25,53,92.0
3723,B-2,156.5,0.25,83,92.0
3724,D4,156.5,0.25,83,92.0
3725,B-4,156.5,0.25,83,92.0
3726,B-4,156.75,0.25,40,92.0
3727,E-4,156.75,1533/1000,52,92.0
3728,F3,156.75,13/10,84,92.0
3729,C5,156.75,276/125,70,92.0
3730,G#4,156.75,276/125,70,92.0
3731,F#2,157.0,0.25,85,92.0
3732,C#2,157.0,0.25,85,92.0
3733,B-4,157.0,0.25,85,92.0
3734,A4,157.0,0.25,85,92.0
3735,F#2,157.25,0.25,62,92.0
3736,D4,157.25,0.25,62,92.0
3737,B-4,157.25,0.25,62,92.0
3738,A4,157.25,0.25,62,92.0
3739,F#2,157.5,0.25,53,92.0
3740,E-4,157.5,0.25,53,92.0
3741,B-4,157.5,0.25,53,92.0
3742,A4,157.5,0.25,53,92.0
3743,F#2,157.75,0.25,51,92.0
3744,E-4,157.75,0.25,51,92.0
3745,B-4,157.75,0.25,51,92.0
3746,F4,157.842,4.0,40,92.0
3747,D4,157.842,4.0,40,92.0
3748,B-3,157.842,4.0,40,92.0
3749,G4,157.842,4.0,40,92.0
3750,F#2,158.0,0.25,80,92.0
3751,B-4,158.0,0.25,80,92.0
3752,F3,158.25,1.75,81,92.0
3753,F#2,158.25,0.25,55,92.0
3754,B-4,158.25,0.25,55,92.0
3755,C4,158.5,1.5,58,92.0
3756,F#2,158.5,0.25,65,92.0
3757,B-4,158.5,0.25,65,92.0
3758,E-4,158.75,1.25,85,92.0
3759,F#2,158.75,0.25,47,92.0
3760,E-4,158.75,0.25,47,92.0
3761,B-4,158.75,0.25,47,92.0
3762,G4,159.0,1.0,81,92.0
3763,F#2,159.0,0.25,84,92.0
3764,C#2,159.0,0.25,84,92.0
3765,D4,159.0,0.25,84,92.0
3766,B-4,159.0,0.25,84,92.0
3767,A4,159.0,0.25,84,92.0
3768,C2,159.25,11/40,60,92.0
3769,G#4,159.25,171/500,90,92.0
3770,F#2,159.25,0.25,55,92.0
3771,D4,159.25,0.25,55,92.0
3772,B-4,159.25,0.25,55,92.0
3773,A4,159.25,0.25,55,92.0
3774,E-2,159.5,9/40,80,92.0
3775,E-5,159.5,0.375,63,92.0
3776,F#2,159.5,0.25,60,92.0
3777,E-4,159.5,0.25,60,92.0
3778,B-4,159.5,0.25,60,92.0
3779,A4,159.5,0.25,60,92.0
3780,F2,159.75,183/1000,105,92.0
3781,C5,159.75,0.25,63,92.0
3782,B1,159.75,0.25,50,92.0
3783,F#2,159.75,0.25,50,92.0
3784,E-4,159.75,0.25,50,92.0
3785,B-4,159.75,0.25,50,92.0
3786,G2,160.0,24/125,90,92.0
3787,B-3,160.0,17/40,66,92.0
3788,B1,160.0,0.25,85,92.0
3789,F#2,160.0,0.25,85,92.0
3790,E-4,160.0,0.25,85,92.0
3791,B-4,160.0,0.25,85,92.0
3792,D4,160.0,483/1000,63,92.0
3793,G2,160.0,483/1000,63,92.0
3794,F3,160.0,483/1000,63,92.0
3795,G3,160.017,227/250,93,92.0
3796,G4,160.017,227/250,93,92.0
3797,G4,160.017,227/250,93,92.0
3798,G3,160.017,227/250,93,92.0
3799,G5,160.017,227/250,93,92.0
3800,G4,160.017,227/250,93,92.0
3801,G2,160.25,217/1000,94,92.0
3802,F#2,160.25,0.25,53,92.0
3803,E-4,160.25,0.25,53,92.0
3804,B-4,160.25,0.25,53,92.0
3805,B-2,160.5,0.25,83,92.0
3806,D4,160.5,0.25,83,92.0
3807,B-4,160.5,0.25,83,92.0
3808,B-4,160.75,0.25,40,92.0
3809,F3,160.75,1533/1000,52,92.0
3810,G2,160.75,13/10,84,92.0
3811,D4,160.75,276/125,70,92.0
3812,B-3,160.75,276/125,70,92.0
3813,F#2,161.0,0.25,85,92.0
3814,C#2,161.0,0.25,85,92.0
3815,B-4,161.0,0.25,85,92.0
3816,A4,161.0,0.25,85,92.0
3817,G4,161.033,683/1000,88,92.0
3818,G5,161.033,683/1000,88,92.0
3819,G4,161.033,683/1000,88,92.0
3820,F#2,161.25,0.25,64,92.0
3821,D4,161.25,0.25,64,92.0
3822,B-4,161.25,0.25,64,92.0
3823,A4,161.25,0.25,64,92.0
3824,F#2,161.5,0.25,53,92.0
3825,E-4,161.5,0.25,53,92.0
3826,B-4,161.5,0.25,53,92.0
3827,A4,161.5,0.25,53,92.0
3828,F#2,161.75,0.25,51,92.0
3829,E-4,161.75,0.25,51,92.0
3830,B-4,161.75,0.25,51,92.0
3831,B-4,161.783,0.375,92,92.0
3832,B-3,161.783,0.375,92,92.0
3833,B-5,161.783,7/40,92,92.0
3834,B-4,161.783,7/40,92,92.0
3835,B-4,161.783,7/40,92,92.0
3836,B-3,161.783,7/40,92,92.0
3837,F4,161.842,4.0,40,92.0
3838,E-4,161.842,4.0,40,92.0
3839,C4,161.842,4.0,40,92.0
3840,G#4,161.842,4.0,40,92.0
3841,F#2,162.0,0.25,80,92.0
3842,B-4,162.0,0.25,80,92.0
3843,D2,162.25,17/40,101,92.0
3844,G2,162.25,1.75,81,92.0
3845,B-2,162.25,0.25,56,92.0
3846,B-4,162.25,0.25,56,92.0
3847,G4,162.492,9/40,74,92.0
3848,G3,162.492,9/40,74,92.0
3849,G5,162.492,9/40,74,92.0
3850,G4,162.492,9/40,74,92.0
3851,G4,162.492,9/40,74,92.0
3852,G3,162.492,9/40,74,92.0
3853,D3,162.5,1.5,58,92.0
3854,F#2,162.5,0.25,65,92.0
3855,B-4,162.5,0.25,65,92.0
3856,F4,162.733,267/1000,62,92.0
3857,F3,162.733,267/1000,62,92.0
3858,F5,162.733,267/1000,62,92.0
3859,F4,162.733,267/1000,62,92.0
3860,F4,162.733,267/1000,62,92.0
3861,F3,162.733,267/1000,62,92.0
3862,F2,162.75,517/1000,66,92.0
3863,F3,162.75,1.25,85,92.0
3864,F#2,162.75,0.25,47,92.0
3865,E-4,162.75,0.25,47,92.0
3866,B-4,162.75,0.25,47,92.0
3867,G3,162.967,1033/1000,59,92.0
3868,G4,162.967,1033/1000,59,92.0
3869,G4,162.967,1033/1000,59,92.0
3870,G3,162.967,1033/1000,59,92.0
3871,G5,162.967,1033/1000,59,92.0
3872,G4,162.967,1033/1000,59,92.0
3873,A3,163.0,1.0,81,92.0
3874,F#2,163.0,0.25,84,92.0
3875,C#2,163.0,0.25,84,92.0
3876,D4,163.0,0.25,84,92.0
3877,B-4,163.0,0.25,84,92.0
3878,A4,163.0,0.25,84,92.0
3879,A2,163.25,233/1000,87,92.0
3880,B-3,163.25,171/500,90,92.0
3881,F#2,163.25,0.25,55,92.0
3882,D4,163.25,0.25,55,92.0
3883,B-4,163.25,0.25,55,92.0
3884,A4,163.25,0.25,55,92.0
3885,G2,163.5,11/40,105,92.0
3886,F4,163.5,0.375,63,92.0
3887,B1,163.5,0.25,66,92.0
3888,F#2,163.5,0.25,66,92.0
3889,E-4,163.5,0.25,66,92.0
3890,B-4,163.5,0.25,66,92.0
3891,A4,163.5,0.25,66,92.0
3892,D4,163.75,0.25,63,92.0
3893,F#2,163.75,0.25,41,92.0
3894,E-4,163.75,0.25,41,92.0
3895,B-4,163.75,0.25,41,92.0
3896,A1,164.0,167/1000,81,92.0
3897,B1,164.0,0.25,85,92.0
3898,F#2,164.0,0.25,85,92.0
3899,E-4,164.0,0.25,85,92.0
3900,B-4,164.0,0.25,85,92.0
3901,C4,164.0,2.0,47,92.0
3902,A2,164.0,2.0,47,92.0
3903,E4,164.0,2.0,47,92.0
3904,G3,164.0,2.0,47,92.0
3905,E3,164.0,2.0,47,92.0
3906,G3,164.0,2567/1000,59,92.0
3907,G4,164.0,2567/1000,59,92.0
3908,G4,164.0,324/125,59,92.0
3909,G3,164.0,324/125,59,92.0
3910,G5,164.0,324/125,59,92.0
3911,G4,164.0,324/125,59,92.0
3912,A1,164.25,26/125,90,92.0
3913,F#2,164.25,0.25,52,92.0
3914,E-4,164.25,0.25,52,92.0
3915,B-4,164.25,0.25,52,92.0
3916,F#2,164.5,0.25,80,92.0
3917,D4,164.5,0.25,80,92.0
3918,B-4,164.5,0.25,80,92.0
3919,C3,164.75,0.25,68,92.0
3920,B-4,164.75,0.25,68,92.0
3921,F#2,165.0,0.25,85,92.0
3922,E-2,165.0,0.25,85,92.0
3923,B-4,165.0,0.25,85,92.0
3924,A4,165.0,0.25,85,92.0
3925,E1,165.25,217/1000,94,92.0
3926,F#2,165.25,0.25,59,92.0
3927,D4,165.25,0.25,59,92.0
3928,B-4,165.25,0.25,59,92.0
3929,A4,165.25,0.25,59,92.0
3930,A1,165.5,121/500,65,92.0
3931,A2,165.5,0.25,60,92.0
3932,E-4,165.5,0.25,60,92.0
3933,B-4,165.5,0.25,60,92.0
3934,A4,165.5,0.25,60,92.0
3935,C2,165.75,26/125,105,92.0
3936,D2,165.75,0.25,67,92.0
3937,E-4,165.75,0.25,67,92.0
3938,B-4,165.75,0.25,67,92.0
3939,F4,165.842,4.0,40,92.0
3940,D4,165.842,4.0,40,92.0
3941,B-3,165.842,4.0,40,92.0
3942,G4,165.842,4.0,40,92.0
3943,D2,166.0,167/1000,81,92.0
3944,D2,166.0,0.25,80,92.0
3945,B-4,166.0,0.25,80,92.0
3946,D2,166.25,26/125,90,92.0
3947,D3,166.25,1.75,74,92.0
3948,F#2,166.25,0.25,48,92.0
3949,B-4,166.25,0.25,48,92.0
3950,C4,166.5,1.5,85,92.0
3951,D2,166.5,0.25,80,92.0
3952,B-4,166.5,0.25,80,92.0
3953,F#2,166.75,0.25,53,92.0
3954,E-4,166.75,0.25,53,92.0
3955,B-4,166.75,0.25,53,92.0
3956,C5,166.75,1.25,72,92.0
3957,G4,166.75,1.25,72,92.0
3958,A4,166.75,1.25,72,92.0
3959,D2,167.0,0.25,84,92.0
3960,D4,167.0,0.25,84,92.0
3961,E-2,167.0,0.25,84,92.0
3962,B-4,167.0,0.25,84,92.0
3963,A4,167.0,0.25,84,92.0
3964,A1,167.25,217/1000,94,92.0
3965,D2,167.25,0.25,48,92.0
3966,D4,167.25,0.25,48,92.0
3967,E-2,167.25,0.25,48,92.0
3968,B-4,167.25,0.25,48,92.0
3969,A4,167.25,0.25,48,92.0
3970,D2,167.5,121/500,65,92.0
3971,B1,167.5,0.25,70,92.0
3972,B-2,167.5,0.25,70,92.0
3973,E-4,167.5,0.25,70,92.0
3974,B-4,167.5,0.25,70,92.0
3975,A4,167.5,0.25,70,92.0
3976,G2,167.75,26/125,105,92.0
3977,E-4,167.75,0.25,50,92.0
3978,B-4,167.75,0.25,50,92.0
3979,E-2,168.0,26/125,105,92.0
3980,G3,168.0,326/125,63,92.0
3981,F4,168.0,3217/1000,81,92.0
3982,D4,168.0,2867/1000,77,92.0
3983,E-2,168.0,19/5,77,92.0
3984,B1,168.0,0.25,84,92.0
3985,F#2,168.0,0.25,84,92.0
3986,C#3,168.0,0.25,84,92.0
3987,E-4,168.0,0.25,84,92.0
3988,B-4,168.0,0.25,84,92.0
3989,G5,168.033,429/500,93,92.0
3990,G4,168.033,429/500,93,92.0
3991,G6,168.033,429/500,93,92.0
3992,G5,168.033,429/500,93,92.0
3993,G5,168.033,429/500,93,92.0
3994,G4,168.033,429/500,93,92.0
3995,E-2,168.25,1/5,90,92.0
3996,F#2,168.25,0.25,53,92.0
3997,E-4,168.25,0.25,53,92.0
3998,B-4,168.25,0.25,53,92.0
3999,B-2,168.5,0.25,83,92.0
4000,D4,168.5,0.25,83,92.0
4001,B-4,168.5,0.25,83,92.0
4002,B-4,168.75,0.25,40,92.0
4003,F#2,169.0,0.25,85,92.0
4004,C#2,169.0,0.25,85,92.0
4005,B-4,169.0,0.25,85,92.0
4006,A4,169.0,0.25,85,92.0
4007,G5,169.033,633/1000,88,92.0
4008,G4,169.033,633/1000,88,92.0
4009,G6,169.033,633/1000,88,92.0
4010,G5,169.033,633/1000,88,92.0
4011,G5,169.033,633/1000,88,92.0
4012,G4,169.033,633/1000,88,92.0
4013,F#2,169.25,0.25,64,92.0
4014,D4,169.25,0.25,64,92.0
4015,B-4,169.25,0.25,64,92.0
4016,A4,169.25,0.25,64,92.0
4017,F#2,169.5,0.25,53,92.0
4018,E-4,169.5,0.25,53,92.0
4019,B-4,169.5,0.25,53,92.0
4020,A4,169.5,0.25,53,92.0
4021,F#2,169.75,0.25,51,92.0
4022,E-4,169.75,0.25,51,92.0
4023,B-4,169.75,0.25,51,92.0
4024,B-5,169.767,27/40,109,92.0
4025,B-4,169.767,27/40,109,92.0
4026,B-6,169.767,27/40,109,92.0
4027,B-5,169.767,27/40,109,92.0
4028,B-5,169.767,27/40,109,92.0
4029,B-4,169.767,27/40,109,92.0
4030,G4,169.842,2.0,45,92.0
4031,E4,169.842,2.0,45,92.0
4032,C4,169.842,2.0,45,92.0
4033,A4,169.842,2.0,45,92.0
4034,F#2,170.0,0.25,80,92.0
4035,B-4,170.0,0.25,80,92.0
4036,E-3,170.25,1483/1000,77,92.0
4037,F#2,170.25,0.25,55,92.0
4038,B-4,170.25,0.25,55,92.0
4039,G5,170.475,71/500,64,92.0
4040,G4,170.475,71/500,64,92.0
4041,G6,170.475,71/500,64,92.0
4042,G5,170.475,71/500,64,92.0
4043,G5,170.475,71/500,64,92.0
4044,G4,170.475,71/500,64,92.0
4045,F#2,170.5,0.25,65,92.0
4046,B-4,170.5,0.25,65,92.0
4047,F4,170.7,3/10,54,92.0
4048,F5,170.7,9/40,60,92.0
4049,F6,170.7,9/40,60,92.0
4050,F4,170.7,73/250,60,92.0
4051,F5,170.7,73/250,60,92.0
4052,F5,170.708,9/40,66,92.0
4053,G3,170.75,41/40,90,92.0
4054,F#2,170.75,0.25,47,92.0
4055,E-4,170.75,0.25,47,92.0
4056,B-4,170.75,0.25,47,92.0
4057,G4,170.933,1067/1000,66,92.0
4058,G5,170.933,1067/1000,67,92.0
4059,G6,170.933,1067/1000,67,92.0
4060,G4,170.933,1067/1000,67,92.0
4061,G5,170.933,1067/1000,67,92.0
4062,G5,170.967,1033/1000,68,92.0
4063,F#2,171.0,0.25,84,92.0
4064,C#2,171.0,0.25,84,92.0
4065,D4,171.0,0.25,84,92.0
4066,B-4,171.0,0.25,84,92.0
4067,A4,171.0,0.25,84,92.0
4068,B-1,171.25,11/40,60,92.0
4069,D4,171.25,517/1000,60,92.0
4070,F#2,171.25,0.25,55,92.0
4071,D4,171.25,0.25,55,92.0
4072,B-4,171.25,0.25,55,92.0
4073,A4,171.25,0.25,55,92.0
4074,D2,171.5,9/40,80,92.0
4075,F4,171.5,267/1000,81,92.0
4076,B1,171.5,0.25,66,92.0
4077,F#2,171.5,0.25,66,92.0
4078,E-4,171.5,0.25,66,92.0
4079,B-4,171.5,0.25,66,92.0
4080,A4,171.5,0.25,66,92.0
4081,E-2,171.75,183/1000,105,92.0
4082,F#2,171.75,0.25,41,92.0
4083,E-4,171.75,0.25,41,92.0
4084,B-4,171.75,0.25,41,92.0
4085,G4,171.842,2.0,40,92.0
4086,E4,171.842,2.0,40,92.0
4087,C4,171.842,2.0,40,92.0
4088,A4,171.842,2.0,40,92.0
4089,F2,172.0,79/500,97,92.0
4090,G#3,172.0,326/125,63,92.0
4091,F4,172.0,3217/1000,81,92.0
4092,E-4,172.0,2867/1000,77,92.0
4093,F2,172.0,19/5,77,92.0
4094,G4,172.0,3017/1000,66,92.0
4095,G5,172.0,727/250,68,92.0
4096,B1,172.0,0.25,85,92.0
4097,F#2,172.0,0.25,85,92.0
4098,E-4,172.0,0.25,85,92.0
4099,B-4,172.0,0.25,85,92.0
4100,G5,172.0,2.875,67,92.0
4101,G6,172.0,2.875,67,92.0
4102,G4,172.0,2983/1000,67,92.0
4103,G5,172.0,2983/1000,67,92.0
4104,F2,172.25,3/20,101,92.0
4105,F#2,172.25,0.25,53,92.0
4106,E-4,172.25,0.25,53,92.0
4107,B-4,172.25,0.25,53,92.0
4108,B-2,172.5,0.25,83,92.0
4109,D4,172.5,0.25,83,92.0
4110,B-4,172.5,0.25,83,92.0
4111,B-4,172.75,0.25,40,92.0
4112,F#2,173.0,0.25,85,92.0
4113,C#2,173.0,0.25,85,92.0
4114,B-4,173.0,0.25,85,92.0
4115,A4,173.0,0.25,85,92.0
4116,F2,173.25,71/500,97,92.0
4117,F#2,173.25,0.25,62,92.0
4118,D4,173.25,0.25,62,92.0
4119,B-4,173.25,0.25,62,92.0
4120,A4,173.25,0.25,62,92.0
4121,C2,173.5,79/500,65,92.0
4122,F#2,173.5,0.25,53,92.0
4123,E-4,173.5,0.25,53,92.0
4124,B-4,173.5,0.25,53,92.0
4125,A4,173.5,0.25,53,92.0
4126,G#1,173.75,233/1000,90,92.0
4127,F#2,173.75,0.25,51,92.0
4128,E-4,173.75,0.25,51,92.0
4129,B-4,173.75,0.25,51,92.0
4130,F4,173.842,4.0,45,92.0
4131,D4,173.842,4.0,45,92.0
4132,B-3,173.842,4.0,45,92.0
4133,G4,173.842,4.0,45,92.0
4134,F#2,174.0,0.25,80,92.0
4135,B-4,174.0,0.25,80,92.0
4136,G#1,174.25,217/1000,94,92.0
4137,F3,174.25,1483/1000,77,92.0
4138,F#2,174.25,0.25,55,92.0
4139,B-4,174.25,0.25,55,92.0
4140,B-1,174.5,121/500,81,92.0
4141,F#2,174.5,0.25,65,92.0
4142,B-4,174.5,0.25,65,92.0
4143,G#3,174.75,41/40,90,92.0
4144,F#2,174.75,0.25,47,92.0
4145,E-4,174.75,0.25,47,92.0
4146,B-4,174.75,0.25,47,92.0
4147,C2,175.0,17/40,90,92.0
4148,F#2,175.0,0.25,84,92.0
4149,C#2,175.0,0.25,84,92.0
4150,D4,175.0,0.25,84,92.0
4151,B-4,175.0,0.25,84,92.0
4152,A4,175.0,0.25,84,92.0
4153,E-4,175.25,517/1000,60,92.0
4154,F#2,175.25,0.25,55,92.0
4155,D4,175.25,0.25,55,92.0
4156,B-4,175.25,0.25,55,92.0
4157,A4,175.25,0.25,55,92.0
4158,E-2,175.5,121/500,70,92.0
4159,F4,175.5,267/1000,81,92.0
4160,F#2,175.5,0.25,60,92.0
4161,E-4,175.5,0.25,60,92.0
4162,B-4,175.5,0.25,60,92.0
4163,A4,175.5,0.25,60,92.0
4164,F2,175.75,3/20,101,92.0
4165,B1,175.75,0.25,50,92.0
4166,F#2,175.75,0.25,50,92.0
4167,E-4,175.75,0.25,50,92.0
4168,B-4,175.75,0.25,50,92.0
4169,G2,176.0,79/500,97,92.0
4170,G2,176.0,4.0,81,92.0
4171,B1,176.0,0.25,85,92.0
4172,F#2,176.0,0.25,85,92.0
4173,E-4,176.0,0.25,85,92.0
4174,B-4,176.0,0.25,85,92.0
4175,G4,176.017,33/40,80,92.0
4176,G3,176.017,33/40,80,92.0
4177,G5,176.017,33/40,80,92.0
4178,G4,176.017,33/40,80,92.0
4179,G4,176.017,33/40,80,92.0
4180,G3,176.017,33/40,80,92.0
4181,G2,176.25,3/20,101,92.0
4182,B-2,176.25,3.75,65,92.0
4183,F#2,176.25,0.25,53,92.0
4184,E-4,176.25,0.25,53,92.0
4185,B-4,176.25,0.25,53,92.0
4186,D3,176.5,223/250,60,92.0
4187,B-2,176.5,0.25,83,92.0
4188,D4,176.5,0.25,83,92.0
4189,B-4,176.5,0.25,83,92.0
4190,B-4,176.75,0.25,40,92.0
4191,F3,176.75,27/250,39,92.0
4192,F#2,177.0,0.25,85,92.0
4193,C#2,177.0,0.25,85,92.0
4194,B-4,177.0,0.25,85,92.0
4195,A4,177.0,0.25,85,92.0
4196,D4,177.0,183/1000,99,92.0
4197,B-3,177.0,183/1000,99,92.0
4198,F3,177.0,183/1000,99,92.0
4199,G3,177.042,683/1000,100,92.0
4200,G4,177.042,683/1000,100,92.0
4201,G4,177.042,173/250,100,92.0
4202,G5,177.042,173/250,100,92.0
4203,G3,177.042,173/250,100,92.0
4204,G4,177.042,173/250,100,92.0
4205,G2,177.25,71/500,97,92.0
4206,F#2,177.25,0.25,64,92.0
4207,D4,177.25,0.25,64,92.0
4208,B-4,177.25,0.25,64,92.0
4209,A4,177.25,0.25,64,92.0
4210,F3,177.25,0.25,85,92.0
4211,C4,177.25,0.25,85,92.0
4212,A3,177.25,0.25,85,92.0
4213,D2,177.5,79/500,65,92.0
4214,D3,177.5,2.5,68,92.0
4215,F#2,177.5,0.25,53,92.0
4216,E-4,177.5,0.25,53,92.0
4217,B-4,177.5,0.25,53,92.0
4218,A4,177.5,0.25,53,92.0
4219,B-1,177.75,233/1000,90,92.0
4220,F#2,177.75,0.25,51,92.0
4221,E-4,177.75,0.25,51,92.0
4222,B-4,177.75,0.25,51,92.0
4223,G3,177.75,79/500,42,92.0
4224,B-3,177.75,79/500,42,92.0
4225,F3,177.75,79/500,42,92.0
4226,B-4,177.792,717/1000,100,92.0
4227,B-3,177.792,717/1000,100,92.0
4228,B-5,177.792,717/1000,100,92.0
4229,B-4,177.792,717/1000,100,92.0
4230,B-4,177.792,717/1000,100,92.0
4231,B-3,177.792,717/1000,100,92.0
4232,F4,177.842,4.0,45,92.0
4233,E-4,177.842,4.0,45,92.0
4234,C4,177.842,4.0,45,92.0
4235,G#4,177.842,4.0,45,92.0
4236,F#2,178.0,0.25,80,92.0
4237,B-4,178.0,0.25,80,92.0
4238,B-1,178.25,217/1000,94,92.0
4239,F#2,178.25,0.25,55,92.0
4240,B-4,178.25,0.25,55,92.0
4241,B-3,178.25,171/500,93,92.0
4242,D4,178.25,171/500,93,92.0
4243,F3,178.25,171/500,93,92.0
4244,C2,178.5,121/500,81,92.0
4245,F#2,178.5,0.25,65,92.0
4246,B-4,178.5,0.25,65,92.0
4247,G4,178.5,27/250,59,92.0
4248,G3,178.5,27/250,59,92.0
4249,G5,178.5,27/250,59,92.0
4250,G4,178.5,27/250,59,92.0
4251,G4,178.5,27/250,59,92.0
4252,G3,178.5,27/250,59,92.0
4253,F#2,178.75,0.25,47,92.0
4254,E-4,178.75,0.25,47,92.0
4255,B-4,178.75,0.25,47,92.0
4256,C4,178.75,1.25,58,92.0
4257,A3,178.75,1.25,58,92.0
4258,F3,178.75,1.25,58,92.0
4259,F3,178.75,9/40,96,92.0
4260,F4,178.75,9/40,96,92.0
4261,F4,178.75,9/40,96,92.0
4262,F3,178.75,9/40,96,92.0
4263,F5,178.75,9/40,96,92.0
4264,F4,178.75,9/40,96,92.0
4265,G3,178.992,126/125,66,92.0
4266,G4,178.992,126/125,66,92.0
4267,G4,178.992,126/125,66,92.0
4268,G3,178.992,126/125,66,92.0
4269,G5,178.992,126/125,66,92.0
4270,G4,178.992,126/125,66,92.0
4271,D2,179.0,17/40,90,92.0
4272,F#2,179.0,0.25,84,92.0
4273,C#2,179.0,0.25,84,92.0
4274,D4,179.0,0.25,84,92.0
4275,B-4,179.0,0.25,84,92.0
4276,A4,179.0,0.25,84,92.0
4277,F#2,179.25,0.25,55,92.0
4278,D4,179.25,0.25,55,92.0
4279,B-4,179.25,0.25,55,92.0
4280,A4,179.25,0.25,55,92.0
4281,F2,179.5,121/500,70,92.0
4282,B1,179.5,0.25,66,92.0
4283,F#2,179.5,0.25,66,92.0
4284,E-4,179.5,0.25,66,92.0
4285,B-4,179.5,0.25,66,92.0
4286,A4,179.5,0.25,66,92.0
4287,G2,179.75,3/20,101,92.0
4288,F#2,179.75,0.25,41,92.0
4289,E-4,179.75,0.25,41,92.0
4290,B-4,179.75,0.25,41,92.0
4291,A1,180.0,167/1000,81,92.0
4292,B1,180.0,0.25,85,92.0
4293,F#2,180.0,0.25,85,92.0
4294,E-4,180.0,0.25,85,92.0
4295,B-4,180.0,0.25,85,92.0
4296,C4,180.0,2.0,47,92.0
4297,A2,180.0,2.0,47,92.0
4298,E4,180.0,2.0,47,92.0
4299,G3,180.0,2.0,47,92.0
4300,E3,180.0,2.0,47,92.0
4301,G3,180.0,679/500,66,92.0
4302,G4,180.0,679/500,66,92.0
4303,G4,180.0,679/500,66,92.0
4304,G3,180.0,679/500,66,92.0
4305,G5,180.0,679/500,66,92.0
4306,G4,180.0,679/500,66,92.0
4307,A1,180.25,26/125,90,92.0
4308,F#2,180.25,0.25,53,92.0
4309,E-4,180.25,0.25,53,92.0
4310,B-4,180.25,0.25,53,92.0
4311,B-2,180.5,0.25,83,92.0
4312,D4,180.5,0.25,83,92.0
4313,B-4,180.5,0.25,83,92.0
4314,B-4,180.75,0.25,40,92.0
4315,F#2,181.0,0.25,85,92.0
4316,C#2,181.0,0.25,85,92.0
4317,B-4,181.0,0.25,85,92.0
4318,A4,181.0,0.25,85,92.0
4319,E1,181.25,217/1000,94,92.0
4320,F#2,181.25,0.25,62,92.0
4321,D4,181.25,0.25,62,92.0
4322,B-4,181.25,0.25,62,92.0
4323,A4,181.25,0.25,62,92.0
4324,A1,181.5,121/500,65,92.0
4325,F#2,181.5,0.25,53,92.0
4326,E-4,181.5,0.25,53,92.0
4327,B-4,181.5,0.25,53,92.0
4328,A4,181.5,0.25,53,92.0
4329,C2,181.75,26/125,105,92.0
4330,F#2,181.75,0.25,51,92.0
4331,E-4,181.75,0.25,51,92.0
4332,B-4,181.75,0.25,51,92.0
4333,F4,181.842,4.0,40,92.0
4334,D4,181.842,4.0,40,92.0
4335,B-3,181.842,4.0,40,92.0
4336,G4,181.842,4.0,40,92.0
4337,D2,182.0,7/40,94,92.0
4338,F#2,182.0,0.25,80,92.0
4339,B-4,182.0,0.25,80,92.0
4340,D2,182.25,283/1000,94,92.0
4341,D3,182.25,1.75,74,92.0
4342,F#2,182.25,0.25,55,92.0
4343,B-4,182.25,0.25,55,92.0
4344,A3,182.5,1.5,74,92.0
4345,F#2,182.5,0.25,65,92.0
4346,B-4,182.5,0.25,65,92.0
4347,F#2,182.75,0.25,47,92.0
4348,E-4,182.75,0.25,47,92.0
4349,B-4,182.75,0.25,47,92.0
4350,C4,182.75,1.25,56,92.0
4351,A4,182.75,1.25,56,92.0
4352,G4,182.75,1.25,56,92.0
4353,F#2,183.0,0.25,84,92.0
4354,C#2,183.0,0.25,84,92.0
4355,D4,183.0,0.25,84,92.0
4356,B-4,183.0,0.25,84,92.0
4357,A4,183.0,0.25,84,92.0
4358,D4,183.008,7/20,120,92.0
4359,D5,183.008,7/20,120,92.0
4360,D4,183.008,7/20,120,92.0
4361,F#2,183.25,0.25,55,92.0
4362,D4,183.25,0.25,55,92.0
4363,B-4,183.25,0.25,55,92.0
4364,A4,183.25,0.25,55,92.0
4365,G4,183.367,121/500,114,92.0
4366,G5,183.367,121/500,114,92.0
4367,G4,183.367,121/500,114,92.0
4368,F#2,183.5,0.25,60,92.0
4369,E-4,183.5,0.25,60,92.0
4370,B-4,183.5,0.25,60,92.0
4371,A4,183.5,0.25,60,92.0
4372,A4,183.692,77/250,114,92.0
4373,A5,183.692,77/250,114,92.0
4374,A4,183.692,77/250,114,92.0
4375,A2,183.75,27/250,71,92.0
4376,B1,183.75,0.25,50,92.0
4377,F#2,183.75,0.25,50,92.0
4378,E-4,183.75,0.25,50,92.0
4379,B-4,183.75,0.25,50,92.0
4380,A2,183.867,17/1000,63,92.0
4381,E-2,184.0,79/500,97,92.0
4382,A4,184.0,17/1000,114,92.0
4383,B1,184.0,0.25,85,92.0
4384,F#2,184.0,0.25,85,92.0
4385,E-4,184.0,0.25,85,92.0
4386,B-4,184.0,0.25,85,92.0
4387,A5,184.0,17/1000,114,92.0
4388,A4,184.0,17/1000,114,92.0
4389,B-4,184.042,679/500,104,92.0
4390,B-5,184.042,679/500,104,92.0
4391,B-4,184.042,679/500,104,92.0
4392,E-2,184.25,3/20,101,92.0
4393,E-2,184.25,3667/1000,68,92.0
4394,F#2,184.25,0.25,53,92.0
4395,E-4,184.25,0.25,53,92.0
4396,B-4,184.25,0.25,53,92.0
4397,E-3,184.5,1679/500,74,92.0
4398,B-2,184.5,0.25,83,92.0
4399,D4,184.5,0.25,83,92.0
4400,B-4,184.5,0.25,83,92.0
4401,B-4,184.75,0.25,40,92.0
4402,F4,184.75,3033/1000,62,92.0
4403,D4,184.75,3033/1000,62,92.0
4404,G3,184.75,3033/1000,62,92.0
4405,F#2,185.0,0.25,85,92.0
4406,C#2,185.0,0.25,85,92.0
4407,B-4,185.0,0.25,85,92.0
4408,A4,185.0,0.25,85,92.0
4409,E-2,185.25,71/500,97,92.0
4410,F#2,185.25,0.25,64,92.0
4411,D4,185.25,0.25,64,92.0
4412,B-4,185.25,0.25,64,92.0
4413,A4,185.25,0.25,64,92.0
4414,B-1,185.5,79/500,65,92.0
4415,F#2,185.5,0.25,53,92.0
4416,E-4,185.5,0.25,53,92.0
4417,B-4,185.5,0.25,53,92.0
4418,A4,185.5,0.25,53,92.0
4419,B-4,185.517,167/1000,88,92.0
4420,B-5,185.517,167/1000,88,92.0
4421,B-4,185.517,167/1000,88,92.0
4422,G1,185.75,233/1000,90,92.0
4423,F#2,185.75,0.25,51,92.0
4424,E-4,185.75,0.25,51,92.0
4425,B-4,185.75,0.25,51,92.0
4426,B-4,185.833,49/125,95,92.0
4427,B-5,185.833,49/125,95,92.0
4428,B-4,185.833,49/125,95,92.0
4429,G4,185.842,2.0,40,92.0
4430,E4,185.842,2.0,40,92.0
4431,C4,185.842,2.0,40,92.0
4432,A4,185.842,2.0,40,92.0
4433,F#2,186.0,0.25,80,92.0
4434,B-4,186.0,0.25,80,92.0
4435,C5,186.233,567/1000,109,92.0
4436,C6,186.233,567/1000,109,92.0
4437,C5,186.233,567/1000,109,92.0
4438,G1,186.25,217/1000,94,92.0
4439,F#2,186.25,0.25,55,92.0
4440,B-4,186.25,0.25,55,92.0
4441,G#1,186.5,121/500,81,92.0
4442,F#2,186.5,0.25,65,92.0
4443,B-4,186.5,0.25,65,92.0
4444,B-4,186.617,49/125,78,92.0
4445,B-5,186.617,49/125,78,92.0
4446,B-4,186.617,49/125,78,92.0
4447,F#2,186.75,0.25,47,92.0
4448,E-4,186.75,0.25,47,92.0
4449,B-4,186.75,0.25,47,92.0
4450,A4,186.958,583/1000,95,92.0
4451,A5,186.958,583/1000,95,92.0
4452,A4,186.958,583/1000,95,92.0
4453,B-1,187.0,17/40,90,92.0
4454,F#2,187.0,0.25,84,92.0
4455,C#2,187.0,0.25,84,92.0
4456,D4,187.0,0.25,84,92.0
4457,B-4,187.0,0.25,84,92.0
4458,A4,187.0,0.25,84,92.0
4459,F#2,187.25,0.25,55,92.0
4460,D4,187.25,0.25,55,92.0
4461,B-4,187.25,0.25,55,92.0
4462,A4,187.25,0.25,55,92.0
4463,D2,187.5,121/500,70,92.0
4464,B1,187.5,0.25,66,92.0
4465,F#2,187.5,0.25,66,92.0
4466,E-4,187.5,0.25,66,92.0
4467,B-4,187.5,0.25,66,92.0
4468,A4,187.5,0.25,66,92.0
4469,G4,187.525,129/500,67,92.0
4470,G5,187.525,129/500,67,92.0
4471,G4,187.525,129/500,67,92.0
4472,E-2,187.75,3/20,101,92.0
4473,F#2,187.75,0.25,41,92.0
4474,E-4,187.75,0.25,41,92.0
4475,B-4,187.75,0.25,41,92.0
4476,A4,187.808,24/125,88,92.0
4477,A5,187.808,24/125,88,92.0
4478,A4,187.808,24/125,88,92.0
4479,G4,187.842,2.0,40,92.0
4480,E4,187.842,2.0,40,92.0
4481,C4,187.842,2.0,40,92.0
4482,A4,187.842,2.0,40,92.0
4483,B-1,188.0,79/500,97,92.0
4484,A3,188.0,326/125,63,92.0
4485,F4,188.0,3217/1000,81,92.0
4486,D4,188.0,2867/1000,77,92.0
4487,B-2,188.0,19/5,77,92.0
4488,A4,188.0,1/125,88,92.0
4489,B1,188.0,0.25,85,92.0
4490,F#2,188.0,0.25,85,92.0
4491,E-4,188.0,0.25,85,92.0
4492,B-4,188.0,0.25,85,92.0
4493,A5,188.0,1/125,88,92.0
4494,A4,188.0,1/125,88,92.0
4495,B-4,188.042,229/500,80,92.0
4496,B-5,188.042,229/500,80,92.0
4497,B-4,188.042,229/500,80,92.0
4498,B-1,188.25,3/20,101,92.0
4499,F#2,188.25,0.25,53,92.0
4500,E-4,188.25,0.25,53,92.0
4501,B-4,188.25,0.25,53,92.0
4502,B-2,188.5,0.25,83,92.0
4503,D4,188.5,0.25,83,92.0
4504,B-4,188.5,0.25,83,92.0
4505,A4,188.567,71/500,70,92.0
4506,A5,188.567,71/500,70,92.0
4507,A4,188.567,71/500,70,92.0
4508,B-4,188.75,0.25,40,92.0
4509,B-4,188.842,673/250,78,92.0
4510,B-5,188.842,673/250,78,92.0
4511,B-4,188.842,673/250,78,92.0
4512,F#2,189.0,0.25,85,92.0
4513,C#2,189.0,0.25,85,92.0
4514,B-4,189.0,0.25,85,92.0
4515,A4,189.0,0.25,85,92.0
4516,B-1,189.25,71/500,97,92.0
4517,F#2,189.25,0.25,62,92.0
4518,D4,189.25,0.25,62,92.0
4519,B-4,189.25,0.25,62,92.0
4520,A4,189.25,0.25,62,92.0
4521,F1,189.5,79/500,65,92.0
4522,F#2,189.5,0.25,53,92.0
4523,E-4,189.5,0.25,53,92.0
4524,B-4,189.5,0.25,53,92.0
4525,A4,189.5,0.25,53,92.0
4526,D1,189.75,233/1000,90,92.0
4527,F#2,189.75,0.25,51,92.0
4528,E-4,189.75,0.25,51,92.0
4529,B-4,189.75,0.25,51,92.0
4530,F4,189.842,4.0,40,92.0
4531,D4,189.842,4.0,40,92.0
4532,B-3,189.842,4.0,40,92.0
4533,G4,189.842,4.0,40,92.0
4534,F#2,190.0,0.25,80,92.0
4535,B-4,190.0,0.25,80,92.0
4536,D1,190.25,217/1000,94,92.0
4537,F3,190.25,1483/1000,77,92.0
4538,F#2,190.25,0.25,55,92.0
4539,B-4,190.25,0.25,55,92.0
4540,E-1,190.5,121/500,81,92.0
4541,F#2,190.5,0.25,65,92.0
4542,B-4,190.5,0.25,65,92.0
4543,A3,190.75,41/40,90,92.0
4544,F#2,190.75,0.25,47,92.0
4545,E-4,190.75,0.25,47,92.0
4546,B-4,190.75,0.25,47,92.0
4547,F1,191.0,17/40,90,92.0
4548,F#2,191.0,0.25,84,92.0
4549,C#2,191.0,0.25,84,92.0
4550,D4,191.0,0.25,84,92.0
4551,B-4,191.0,0.25,84,92.0
4552,A4,191.0,0.25,84,92.0
4553,D4,191.25,517/1000,60,92.0
4554,F#2,191.25,0.25,55,92.0
4555,D4,191.25,0.25,55,92.0
4556,B-4,191.25,0.25,55,92.0
4557,A4,191.25,0.25,55,92.0
4558,A1,191.5,121/500,70,92.0
4559,F4,191.5,267/1000,81,92.0
4560,F#2,191.5,0.25,60,92.0
4561,E-4,191.5,0.25,60,92.0
4562,B-4,191.5,0.25,60,92.0
4563,A4,191.5,0.25,60,92.0
4564,F4,191.508,23/250,91,92.0
4565,F5,191.508,23/250,91,92.0
4566,F4,191.508,23/250,91,92.0
4567,B-1,191.75,3/20,101,92.0
4568,B1,191.75,0.25,50,92.0
4569,F#2,191.75,0.25,50,92.0
4570,E-4,191.75,0.25,50,92.0
4571,B-4,191.75,0.25,50,92.0
4572,F4,191.758,121/500,71,92.0
4573,F5,191.758,121/500,71,92.0
4574,F4,191.758,121/500,71,92.0
4575,G#2,192.0,183/1000,97,92.0
4576,F4,192.0,71/500,71,92.0
4577,B1,192.0,0.25,85,92.0
4578,F#2,192.0,0.25,85,92.0
4579,E-4,192.0,0.25,85,92.0
4580,B-4,192.0,0.25,85,92.0
4581,F5,192.0,71/500,71,92.0
4582,F4,192.0,71/500,71,92.0
4583,G#4,192.033,0.5,127,92.0
4584,G#5,192.033,0.5,127,92.0
4585,G#4,192.033,0.5,127,92.0
4586,G#2,192.25,0.5,97,92.0
4587,G#2,192.25,1.75,74,92.0
4588,F#2,192.25,0.25,53,92.0
4589,E-4,192.25,0.25,53,92.0
4590,B-4,192.25,0.25,53,92.0
4591,B3,192.5,1.5,85,92.0
4592,B-2,192.5,0.25,83,92.0
4593,D4,192.5,0.25,83,92.0
4594,B-4,192.5,0.25,83,92.0
4595,F4,192.567,1/20,49,92.0
4596,F5,192.567,1/20,49,92.0
4597,F4,192.567,1/20,49,92.0
4598,B-4,192.75,0.25,40,92.0
4599,B4,192.75,1.25,72,92.0
4600,F#4,192.75,1.25,72,92.0
4601,G#4,192.75,1.25,72,92.0
4602,F4,192.792,71/500,52,92.0
4603,F5,192.792,71/500,52,92.0
4604,F4,192.792,71/500,52,92.0
4605,F#2,193.0,0.25,85,92.0
4606,C#2,193.0,0.25,85,92.0
4607,B-4,193.0,0.25,85,92.0
4608,A4,193.0,0.25,85,92.0
4609,G#4,193.025,167/1000,127,92.0
4610,G#5,193.025,167/1000,127,92.0
4611,G#4,193.025,167/1000,127,92.0
4612,F#2,193.25,0.25,64,92.0
4613,D4,193.25,0.25,64,92.0
4614,B-4,193.25,0.25,64,92.0
4615,A4,193.25,0.25,64,92.0
4616,F#2,193.5,0.25,53,92.0
4617,E-4,193.5,0.25,53,92.0
4618,B-4,193.5,0.25,53,92.0
4619,A4,193.5,0.25,53,92.0
4620,F#2,193.75,0.25,51,92.0
4621,E-4,193.75,0.25,51,92.0
4622,B-4,193.75,0.25,51,92.0
4623,B-4,193.758,9/20,127,92.0
4624,B-5,193.758,9/20,127,92.0
4625,B-4,193.758,9/20,127,92.0
4626,A4,193.842,4.0,40,92.0
4627,F4,193.842,4.0,40,92.0
4628,D4,193.842,4.0,40,92.0
4629,C5,193.842,4.0,40,92.0
4630,C#2,194.0,183/1000,97,92.0
4631,F#2,194.0,0.25,80,92.0
4632,B-4,194.0,0.25,80,92.0
4633,F4,194.0,7/40,68,92.0
4634,E-4,194.0,7/40,68,92.0
4635,B3,194.0,7/40,68,92.0
4636,B-4,194.0,7/40,68,92.0
4637,C#2,194.25,0.5,97,92.0
4638,B-2,194.25,0.25,56,92.0
4639,B-4,194.25,0.25,56,92.0
4640,F4,194.25,0.125,81,92.0
4641,E-4,194.25,0.125,81,92.0
4642,B3,194.25,0.125,81,92.0
4643,B-4,194.25,0.125,81,92.0
4644,G#4,194.267,2/5,127,92.0
4645,G#5,194.267,2/5,127,92.0
4646,G#4,194.267,2/5,127,92.0
4647,F#2,194.5,0.25,65,92.0
4648,B-4,194.5,0.25,65,92.0
4649,F#2,194.75,0.25,47,92.0
4650,E-4,194.75,0.25,47,92.0
4651,B-4,194.75,0.25,47,92.0
4652,F#4,194.758,67/1000,73,92.0
4653,F#5,194.758,67/1000,73,92.0
4654,F#4,194.758,67/1000,73,92.0
4655,F#2,195.0,0.25,84,92.0
4656,C#2,195.0,0.25,84,92.0
4657,D4,195.0,0.25,84,92.0
4658,B-4,195.0,0.25,84,92.0
4659,A4,195.0,0.25,84,92.0
4660,F#2,195.25,0.25,55,92.0
4661,D4,195.25,0.25,55,92.0
4662,B-4,195.25,0.25,55,92.0
4663,A4,195.25,0.25,55,92.0
4664,F4,195.292,329/500,88,92.0
4665,F5,195.292,329/500,88,92.0
4666,F4,195.292,329/500,88,92.0
4667,B1,195.5,0.25,66,92.0
4668,F#2,195.5,0.25,66,92.0
4669,E-4,195.5,0.25,66,92.0
4670,B-4,195.5,0.25,66,92.0
4671,A4,195.5,0.25,66,92.0
4672,B-2,195.75,0.25,63,92.0
4673,E-4,195.75,0.25,63,92.0
4674,B-4,195.75,0.25,63,92.0
4675,G#4,195.992,1/125,127,92.0
4676,G#5,195.992,1/125,127,92.0
4677,G#4,195.992,1/125,127,92.0
4678,F#2,196.0,7/40,90,92.0
4679,G#4,196.0,283/1000,127,92.0
4680,B1,196.0,0.25,85,92.0
4681,F#2,196.0,0.25,85,92.0
4682,E-4,196.0,0.25,85,92.0
4683,B-4,196.0,0.25,85,92.0
4684,G#5,196.0,283/1000,127,92.0
4685,G#4,196.0,283/1000,127,92.0
4686,F#2,196.25,217/1000,94,92.0
4687,F#2,196.25,3667/1000,68,92.0
4688,F#2,196.25,0.25,53,92.0
4689,E-4,196.25,0.25,53,92.0
4690,B-4,196.25,0.25,53,92.0
4691,F#3,196.5,1679/500,74,92.0
4692,B-2,196.5,0.25,83,92.0
4693,D4,196.5,0.25,83,92.0
4694,B-4,196.5,0.25,83,92.0
4695,F4,196.525,183/1000,41,92.0
4696,F5,196.525,183/1000,41,92.0
4697,F4,196.525,183/1000,41,92.0
4698,B-4,196.75,0.25,40,92.0
4699,G#4,196.75,3033/1000,62,92.0
4700,F4,196.75,3033/1000,62,92.0
4701,B-3,196.75,3033/1000,62,92.0
4702,G#4,196.775,63/40,127,92.0
4703,G#5,196.775,63/40,127,92.0
4704,G#4,196.775,63/40,127,92.0
4705,F#2,197.0,0.25,85,92.0
4706,C#2,197.0,0.25,85,92.0
4707,B-4,197.0,0.25,85,92.0
4708,A4,197.0,0.25,85,92.0
4709,F#2,197.25,3/20,77,92.0
4710,F#2,197.25,0.25,62,92.0
4711,D4,197.25,0.25,62,92.0
4712,B-4,197.25,0.25,62,92.0
4713,A4,197.25,0.25,62,92.0
4714,G#2,197.5,7/40,74,92.0
4715,F#2,197.5,0.25,53,92.0
4716,E-4,197.5,0.25,53,92.0
4717,B-4,197.5,0.25,53,92.0
4718,A4,197.5,0.25,53,92.0
4719,B-2,197.75,3/20,90,92.0
4720,F#2,197.75,0.25,51,92.0
4721,E-4,197.75,0.25,51,92.0
4722,B-4,197.75,0.25,51,92.0
4723,F#4,197.842,2.0,40,92.0
4724,E-4,197.842,2.0,40,92.0
4725,B3,197.842,2.0,40,92.0
4726,G#4,197.842,2.0,40,92.0
4727,F#2,198.0,0.25,82,92.0
4728,B-4,198.0,0.25,82,92.0
4729,B-2,198.25,71/500,71,92.0
4730,F#2,198.25,0.25,55,92.0
4731,B-4,198.25,0.25,55,92.0
4732,C#4,198.333,179/500,74,92.0
4733,C#5,198.333,179/500,74,92.0
4734,C#4,198.333,179/500,74,92.0
4735,G#2,198.5,71/500,84,92.0
4736,F#2,198.5,0.25,60,92.0
4737,B-4,198.5,0.25,60,92.0
4738,F#2,198.75,3/20,90,92.0
4739,F#2,198.75,0.25,47,92.0
4740,E-4,198.75,0.25,47,92.0
4741,B-4,198.75,0.25,47,92.0
4742,C#4,198.783,13/40,82,92.0
4743,C#5,198.783,13/40,82,92.0
4744,C#4,198.783,13/40,82,92.0
4745,F2,199.0,123/250,102,92.0
4746,F#2,199.0,0.25,84,92.0
4747,C#2,199.0,0.25,84,92.0
4748,D4,199.0,0.25,84,92.0
4749,B-4,199.0,0.25,84,92.0
4750,A4,199.0,0.25,84,92.0
4751,C#4,199.242,133/1000,78,92.0
4752,C#5,199.242,133/1000,78,92.0
4753,C#4,199.242,133/1000,78,92.0
4754,F#2,199.25,0.25,55,92.0
4755,D4,199.25,0.25,55,92.0
4756,B-4,199.25,0.25,55,92.0
4757,A4,199.25,0.25,55,92.0
4758,F#2,199.5,283/1000,94,92.0
4759,F#4,199.5,83/1000,71,92.0
4760,F#2,199.5,0.25,60,92.0
4761,E-4,199.5,0.25,60,92.0
4762,B-4,199.5,0.25,60,92.0
4763,A4,199.5,0.25,60,92.0
4764,F#5,199.5,83/1000,71,92.0
4765,F#4,199.5,83/1000,71,92.0
4766,G#4,199.733,267/1000,68,92.0
4767,G#5,199.733,267/1000,68,92.0
4768,G#4,199.733,267/1000,68,92.0
4769,B1,199.75,0.25,50,92.0
4770,F#2,199.75,0.25,50,92.0
4771,E-4,199.75,0.25,50,92.0
4772,B-4,199.75,0.25,50,92.0
4773,F4,199.842,2.0,40,92.0
4774,E-4,199.842,2.0,40,92.0
4775,B3,199.842,2.0,40,92.0
4776,B-4,199.842,2.0,40,92.0
4777,F#2,200.0,79/500,97,92.0
4778,F#2,200.0,4.0,65,92.0
4779,G#4,200.0,29/500,68,92.0
4780,B1,200.0,0.25,85,92.0
4781,F#2,200.0,0.25,85,92.0
4782,E-4,200.0,0.25,85,92.0
4783,B-4,200.0,0.25,85,92.0
4784,A3,200.0,283/1000,73,92.0
4785,C#4,200.0,283/1000,73,92.0
4786,E3,200.0,283/1000,73,92.0
4787,G#5,200.0,29/500,68,92.0
4788,G#4,200.0,29/500,68,92.0
4789,A4,200.008,19/40,127,92.0
4790,A5,200.008,19/40,127,92.0
4791,A4,200.008,19/40,127,92.0
4792,F#2,200.25,3/20,101,92.0
4793,F#2,200.25,0.25,53,92.0
4794,E-4,200.25,0.25,53,92.0
4795,B-4,200.25,0.25,53,92.0
4796,C#3,200.275,149/40,68,92.0
4797,G#4,200.475,23/250,56,92.0
4798,G#5,200.475,23/250,56,92.0
4799,G#4,200.475,23/250,56,92.0
4800,B-2,200.5,0.25,83,92.0
4801,D4,200.5,0.25,83,92.0
4802,B-4,200.5,0.25,83,92.0
4803,A3,200.5,71/500,38,92.0
4804,C#4,200.5,71/500,38,92.0
4805,E3,200.5,71/500,38,92.0
4806,B-4,200.75,0.25,40,92.0
4807,B3,200.75,183/1000,84,92.0
4808,G#4,200.75,3/20,27,92.0
4809,E3,200.75,71/500,75,92.0
4810,G#3,200.75,71/500,75,92.0
4811,G#5,200.75,3/20,27,92.0
4812,G#4,200.75,3/20,27,92.0
4813,F#2,201.0,0.25,85,92.0
4814,C#2,201.0,0.25,85,92.0
4815,B-4,201.0,0.25,85,92.0
4816,A4,201.0,0.25,85,92.0
4817,A4,201.008,26/125,124,92.0
4818,A5,201.008,26/125,124,92.0
4819,A4,201.008,26/125,124,92.0
4820,F#2,201.25,71/500,97,92.0
4821,F#2,201.25,0.25,64,92.0
4822,D4,201.25,0.25,64,92.0
4823,B-4,201.25,0.25,64,92.0
4824,A4,201.25,0.25,64,92.0
4825,A3,201.25,2.75,65,92.0
4826,E3,201.25,2.75,65,92.0
4827,C#4,201.25,2.75,65,92.0
4828,G#4,201.467,24/125,55,92.0
4829,G#5,201.467,24/125,55,92.0
4830,G#4,201.467,24/125,55,92.0
4831,C#2,201.5,79/500,65,92.0
4832,F#2,201.5,0.25,53,92.0
4833,E-4,201.5,0.25,53,92.0
4834,B-4,201.5,0.25,53,92.0
4835,A4,201.5,0.25,53,92.0
4836,A1,201.75,233/1000,90,92.0
4837,B4,201.75,11/20,120,92.0
4838,F#2,201.75,0.25,51,92.0
4839,E-4,201.75,0.25,51,92.0
4840,B-4,201.75,0.25,51,92.0
4841,B5,201.75,11/20,120,92.0
4842,B4,201.75,11/20,120,92.0
4843,F4,201.842,4.0,45,92.0
4844,C#4,201.842,4.0,45,92.0
4845,B-3,201.842,4.0,45,92.0
4846,G#4,201.842,4.0,45,92.0
4847,F#2,202.0,0.25,80,92.0
4848,B-4,202.0,0.25,80,92.0
4849,A1,202.25,217/1000,94,92.0
4850,F#2,202.25,0.25,55,92.0
4851,B-4,202.25,0.25,55,92.0
4852,A4,202.267,229/500,95,92.0
4853,A5,202.267,229/500,95,92.0
4854,A4,202.267,229/500,95,92.0
4855,B1,202.5,121/500,81,92.0
4856,F#2,202.5,0.25,65,92.0
4857,B-4,202.5,0.25,65,92.0
4858,F#2,202.75,0.25,47,92.0
4859,E-4,202.75,0.25,47,92.0
4860,B-4,202.75,0.25,47,92.0
4861,G#4,202.758,371/500,82,92.0
4862,G#5,202.758,371/500,82,92.0
4863,G#4,202.758,371/500,82,92.0
4864,C#2,203.0,17/40,90,92.0
4865,F#2,203.0,0.25,84,92.0
4866,C#2,203.0,0.25,84,92.0
4867,D4,203.0,0.25,84,92.0
4868,B-4,203.0,0.25,84,92.0
4869,A4,203.0,0.25,84,92.0
4870,F#2,203.25,0.25,55,92.0
4871,D4,203.25,0.25,55,92.0
4872,B-4,203.25,0.25,55,92.0
4873,A4,203.25,0.25,55,92.0
4874,E2,203.5,121/500,70,92.0
4875,B1,203.5,0.25,66,92.0
4876,F#2,203.5,0.25,66,92.0
4877,E-4,203.5,0.25,66,92.0
4878,B-4,203.5,0.25,66,92.0
4879,A4,203.5,0.25,66,92.0
4880,F#4,203.542,129/500,2,92.0
4881,F#5,203.542,129/500,2,92.0
4882,F#4,203.542,129/500,2,92.0
4883,G#4,203.742,129/500,56,92.0
4884,G#5,203.742,129/500,56,92.0
4885,G#4,203.742,129/500,56,92.0
4886,F#2,203.75,3/20,101,92.0
4887,F#2,203.75,0.25,41,92.0
4888,E-4,203.75,0.25,41,92.0
4889,B-4,203.75,0.25,41,92.0
4890,B1,204.0,167/1000,81,92.0
4891,G#4,204.0,21/500,56,92.0
4892,B1,204.0,0.25,85,92.0
4893,F#2,204.0,0.25,85,92.0
4894,E-4,204.0,0.25,85,92.0
4895,B-4,204.0,0.25,85,92.0
4896,A4,204.0,7/40,68,92.0
4897,F#4,204.0,7/40,68,92.0
4898,E4,204.0,7/40,68,92.0
4899,C#5,204.0,7/40,68,92.0
4900,G#5,204.0,21/500,56,92.0
4901,G#4,204.0,21/500,56,92.0
4902,A4,204.008,217/1000,124,92.0
4903,A5,204.008,217/1000,124,92.0
4904,A4,204.008,217/1000,124,92.0
4905,B1,204.25,26/125,90,92.0
4906,F#2,204.25,0.25,53,92.0
4907,E-4,204.25,0.25,53,92.0
4908,B-4,204.25,0.25,53,92.0
4909,A4,204.25,0.125,81,92.0
4910,F#4,204.25,0.125,81,92.0
4911,E4,204.25,0.125,81,92.0
4912,C#5,204.25,0.125,81,92.0
4913,F#4,204.292,24/125,18,92.0
4914,F#5,204.292,24/125,18,92.0
4915,F#4,204.292,24/125,18,92.0
4916,G#4,204.433,1.0,1,92.0
4917,G#5,204.433,1.0,1,92.0
4918,G#4,204.433,1.0,1,92.0
4919,B-2,204.5,0.25,83,92.0
4920,D4,204.5,0.25,83,92.0
4921,B-4,204.5,0.25,83,92.0
4922,B-4,204.75,0.25,40,92.0
4923,A4,204.775,729/500,127,92.0
4924,A5,204.775,729/500,127,92.0
4925,A4,204.775,729/500,127,92.0
4926,F#2,205.0,0.25,85,92.0
4927,C#2,205.0,0.25,85,92.0
4928,B-4,205.0,0.25,85,92.0
4929,A4,205.0,0.25,85,92.0
4930,F#1,205.25,217/1000,94,92.0
4931,F#2,205.25,0.25,62,92.0
4932,D4,205.25,0.25,62,92.0
4933,B-4,205.25,0.25,62,92.0
4934,A4,205.25,0.25,62,92.0
4935,B1,205.5,121/500,65,92.0
4936,F#2,205.5,0.25,53,92.0
4937,E-4,205.5,0.25,53,92.0
4938,B-4,205.5,0.25,53,92.0
4939,A4,205.5,0.25,53,92.0
4940,E2,205.75,26/125,105,92.0
4941,B-2,205.75,0.25,67,92.0
4942,E-4,205.75,0.25,67,92.0
4943,B-4,205.75,0.25,67,92.0
4944,A4,205.842,4.0,40,92.0
4945,F#4,205.842,4.0,40,92.0
4946,E4,205.842,4.0,40,92.0
4947,C#5,205.842,4.0,40,92.0
4948,B1,206.0,183/1000,97,92.0
4949,F#2,206.0,0.25,82,92.0
4950,B-4,206.0,0.25,82,92.0
4951,C#4,206.167,49/125,78,92.0
4952,C#5,206.167,49/125,78,92.0
4953,C#4,206.167,49/125,78,92.0
4954,B1,206.25,0.5,97,92.0
4955,B2,206.25,1.75,74,92.0
4956,F#2,206.25,0.25,55,92.0
4957,B-4,206.25,0.25,55,92.0
4958,A3,206.5,1.5,85,92.0
4959,F#2,206.5,0.25,89,92.0
4960,B-4,206.5,0.25,89,92.0
4961,C#4,206.7,417/1000,78,92.0
4962,C#5,206.7,417/1000,78,92.0
4963,C#4,206.7,417/1000,78,92.0
4964,F#2,206.75,0.25,47,92.0
4965,E-4,206.75,0.25,47,92.0
4966,B-4,206.75,0.25,47,92.0
4967,A4,206.75,1.25,72,92.0
4968,E-4,206.75,1.25,72,92.0
4969,F#4,206.75,1.25,72,92.0
4970,F#2,207.0,0.25,84,92.0
4971,C#2,207.0,0.25,84,92.0
4972,D4,207.0,0.25,84,92.0
4973,B-4,207.0,0.25,84,92.0
4974,A4,207.0,0.25,84,92.0
4975,C#4,207.233,167/1000,71,92.0
4976,C#5,207.233,167/1000,71,92.0
4977,C#4,207.233,167/1000,71,92.0
4978,F#2,207.25,0.25,55,92.0
4979,D4,207.25,0.25,55,92.0
4980,B-4,207.25,0.25,55,92.0
4981,A4,207.25,0.25,55,92.0
4982,F#4,207.467,133/1000,59,92.0
4983,F#5,207.467,133/1000,59,92.0
4984,F#4,207.467,133/1000,59,92.0
4985,F#2,207.5,0.25,72,92.0
4986,E-4,207.5,0.25,72,92.0
4987,B-4,207.5,0.25,72,92.0
4988,A4,207.5,0.25,72,92.0
4989,G#4,207.742,129/500,80,92.0
4990,G#5,207.742,129/500,80,92.0
4991,G#4,207.742,129/500,80,92.0
4992,B1,207.75,0.25,63,92.0
4993,F#2,207.75,0.25,63,92.0
4994,E-4,207.75,0.25,63,92.0
4995,B-4,207.75,0.25,63,92.0
4996,A4,207.975,1/40,127,92.0
4997,A5,207.975,1/40,127,92.0
4998,A4,207.975,1/40,127,92.0
4999,A1,208.0,7/40,90,92.0
5000,G3,208.0,326/125,63,92.0
5001,E4,208.0,3217/1000,81,92.0
5002,C4,208.0,2867/1000,77,92.0
5003,A2,208.0,19/5,77,92.0
5004,G#4,208.0,67/1000,80,92.0
5005,A4,208.0,221/500,127,92.0
5006,B1,208.0,0.25,85,92.0
5007,F#2,208.0,0.25,85,92.0
5008,E-4,208.0,0.25,85,92.0
5009,B-4,208.0,0.25,85,92.0
5010,G#5,208.0,67/1000,80,92.0
5011,G#4,208.0,67/1000,80,92.0
5012,A5,208.0,221/500,127,92.0
5013,A4,208.0,221/500,127,92.0
5014,A1,208.25,217/1000,94,92.0
5015,F#2,208.25,0.25,53,92.0
5016,E-4,208.25,0.25,53,92.0
5017,B-4,208.25,0.25,53,92.0
5018,B-2,208.5,0.25,83,92.0
5019,D4,208.5,0.25,83,92.0
5020,B-4,208.5,0.25,83,92.0
5021,G#4,208.508,133/1000,55,92.0
5022,G#5,208.508,133/1000,55,92.0
5023,G#4,208.508,133/1000,55,92.0
5024,B-4,208.75,0.25,40,92.0
5025,G#4,208.767,11/40,63,92.0
5026,G#5,208.767,11/40,63,92.0
5027,G#4,208.767,11/40,63,92.0
5028,A4,209.0,7/20,127,92.0
5029,F#2,209.0,0.25,85,92.0
5030,C#2,209.0,0.25,85,92.0
5031,B-4,209.0,0.25,85,92.0
5032,A4,209.0,0.25,85,92.0
5033,A5,209.0,7/20,127,92.0
5034,A4,209.0,7/20,127,92.0
5035,A1,209.25,3/20,77,92.0
5036,G#4,209.25,883/1000,71,92.0
5037,F#2,209.25,0.25,64,92.0
5038,D4,209.25,0.25,64,92.0
5039,B-4,209.25,0.25,64,92.0
5040,A4,209.25,0.25,64,92.0
5041,G#5,209.25,883/1000,71,92.0
5042,G#4,209.25,883/1000,71,92.0
5043,B1,209.5,7/40,74,92.0
5044,F#2,209.5,0.25,53,92.0
5045,E-4,209.5,0.25,53,92.0
5046,B-4,209.5,0.25,53,92.0
5047,A4,209.5,0.25,53,92.0
5048,C2,209.75,3/20,90,92.0
5049,F#2,209.75,0.25,51,92.0
5050,E-4,209.75,0.25,51,92.0
5051,B-4,209.75,0.25,51,92.0
5052,B4,209.767,533/1000,120,92.0
5053,B5,209.767,533/1000,120,92.0
5054,B4,209.767,533/1000,120,92.0
5055,E4,209.842,2.0,45,92.0
5056,C#4,209.842,2.0,45,92.0
5057,A3,209.842,2.0,45,92.0
5058,F#4,209.842,2.0,45,92.0
5059,F#2,210.0,0.25,80,92.0
5060,B-4,210.0,0.25,80,92.0
5061,C2,210.25,71/500,71,92.0
5062,E3,210.25,1483/1000,77,92.0
5063,A4,210.25,483/1000,98,92.0
5064,B-2,210.25,0.25,56,92.0
5065,B-4,210.25,0.25,56,92.0
5066,A5,210.25,483/1000,98,92.0
5067,A4,210.25,483/1000,98,92.0
5068,B1,210.5,71/500,84,92.0
5069,F#2,210.5,0.25,65,92.0
5070,B-4,210.5,0.25,65,92.0
5071,G#4,210.733,321/500,91,92.0
5072,G#5,210.733,321/500,91,92.0
5073,G#4,210.733,321/500,91,92.0
5074,A1,210.75,3/20,90,92.0
5075,G3,210.75,41/40,90,92.0
5076,F#2,210.75,0.25,47,92.0
5077,E-4,210.75,0.25,47,92.0
5078,B-4,210.75,0.25,47,92.0
5079,G1,211.0,123/250,102,92.0
5080,F#2,211.0,0.25,84,92.0
5081,C#2,211.0,0.25,84,92.0
5082,D4,211.0,0.25,84,92.0
5083,B-4,211.0,0.25,84,92.0
5084,A4,211.0,0.25,84,92.0
5085,C4,211.25,517/1000,60,92.0
5086,F#2,211.25,0.25,55,92.0
5087,D4,211.25,0.25,55,92.0
5088,B-4,211.25,0.25,55,92.0
5089,A4,211.25,0.25,55,92.0
5090,A1,211.5,283/1000,94,92.0
5091,E4,211.5,267/1000,81,92.0
5092,F#4,211.5,221/500,45,92.0
5093,B1,211.5,0.25,66,92.0
5094,F#2,211.5,0.25,66,92.0
5095,E-4,211.5,0.25,66,92.0
5096,B-4,211.5,0.25,66,92.0
5097,A4,211.5,0.25,66,92.0
5098,F#5,211.5,221/500,45,92.0
5099,F#4,211.5,221/500,45,92.0
5100,B-2,211.75,0.25,63,92.0
5101,E-4,211.75,0.25,63,92.0
5102,B-4,211.75,0.25,63,92.0
5103,G#4,211.758,26/125,54,92.0
5104,G#5,211.758,26/125,54,92.0
5105,G#4,211.758,26/125,54,92.0
5106,A4,211.842,2.0,40,92.0
5107,F#4,211.842,2.0,40,92.0
5108,E-4,211.842,2.0,40,92.0
5109,B4,211.842,2.0,40,92.0
5110,D2,212.0,24/125,90,92.0
5111,A4,212.0,19/40,120,92.0
5112,B1,212.0,0.25,85,92.0
5113,F#2,212.0,0.25,85,92.0
5114,E-4,212.0,0.25,85,92.0
5115,B-4,212.0,0.25,85,92.0
5116,A5,212.0,19/40,120,92.0
5117,A4,212.0,19/40,120,92.0
5118,D2,212.25,217/1000,94,92.0
5119,D3,212.25,3667/1000,68,92.0
5120,F#2,212.25,0.25,52,92.0
5121,E-4,212.25,0.25,52,92.0
5122,B-4,212.25,0.25,52,92.0
5123,A3,212.5,1679/500,74,92.0
5124,F#4,212.5,67/1000,33,92.0
5125,B-2,212.5,0.25,83,92.0
5126,D4,212.5,0.25,83,92.0
5127,B-4,212.5,0.25,83,92.0
5128,F#5,212.5,67/1000,33,92.0
5129,F#4,212.5,67/1000,33,92.0
5130,B-4,212.75,0.25,40,92.0
5131,A4,212.75,3033/1000,62,92.0
5132,G4,212.75,3033/1000,62,92.0
5133,C4,212.75,3033/1000,62,92.0
5134,A4,212.783,127/250,124,92.0
5135,A5,212.783,127/250,124,92.0
5136,A4,212.783,127/250,124,92.0
5137,F#2,213.0,0.25,68,92.0
5138,C3,213.0,0.25,68,92.0
5139,E-2,213.0,0.25,68,92.0
5140,B-4,213.0,0.25,68,92.0
5141,A4,213.0,0.25,68,92.0
5142,F#2,213.25,0.25,59,92.0
5143,D4,213.25,0.25,59,92.0
5144,B-4,213.25,0.25,59,92.0
5145,A4,213.25,0.25,59,92.0
5146,D4,213.283,49/125,68,92.0
5147,D5,213.283,49/125,68,92.0
5148,D4,213.283,49/125,68,92.0
5149,F#2,213.5,0.25,58,92.0
5150,E-4,213.5,0.25,58,92.0
5151,B-4,213.5,0.25,58,92.0
5152,A4,213.5,0.25,58,92.0
5153,A2,213.75,0.25,73,92.0
5154,E-4,213.75,0.25,73,92.0
5155,B-4,213.75,0.25,73,92.0
5156,E-4,213.767,517/1000,80,92.0
5157,E-5,213.767,517/1000,80,92.0
5158,E-4,213.767,517/1000,80,92.0
5159,G4,213.842,4.0,45,92.0
5160,E4,213.842,4.0,45,92.0
5161,C4,213.842,4.0,45,92.0
5162,B4,213.842,4.0,45,92.0
5163,F#2,214.0,0.25,80,92.0
5164,B-4,214.0,0.25,80,92.0
5165,A1,214.25,17/40,101,92.0
5166,F#2,214.25,0.25,48,92.0
5167,B-4,214.25,0.25,48,92.0
5168,F4,214.258,123/250,88,92.0
5169,F5,214.258,123/250,88,92.0
5170,F4,214.258,123/250,88,92.0
5171,F#2,214.5,0.25,75,92.0
5172,B-4,214.5,0.25,75,92.0
5173,C2,214.75,517/1000,66,92.0
5174,D2,214.75,0.25,67,92.0
5175,E-4,214.75,0.25,67,92.0
5176,B-4,214.75,0.25,67,92.0
5177,G4,214.758,129/500,104,92.0
5178,G5,214.758,129/500,104,92.0
5179,G4,214.758,129/500,104,92.0
5180,D2,215.0,0.25,86,92.0
5181,D4,215.0,0.25,86,92.0
5182,E-2,215.0,0.25,86,92.0
5183,B-4,215.0,0.25,86,92.0
5184,A4,215.0,0.25,86,92.0
5185,G#4,215.008,483/1000,74,92.0
5186,G#5,215.008,483/1000,74,92.0
5187,G#4,215.008,483/1000,74,92.0
5188,E2,215.25,233/1000,87,92.0
5189,D2,215.25,0.25,48,92.0
5190,D4,215.25,0.25,48,92.0
5191,E-2,215.25,0.25,48,92.0
5192,B-4,215.25,0.25,48,92.0
5193,A4,215.25,0.25,48,92.0
5194,D2,215.5,11/40,105,92.0
5195,F#2,215.5,0.25,63,92.0
5196,E-4,215.5,0.25,63,92.0
5197,B-4,215.5,0.25,63,92.0
5198,A4,215.5,0.25,63,92.0
5199,B-4,215.525,183/1000,78,92.0
5200,B-5,215.525,183/1000,78,92.0
5201,B-4,215.525,183/1000,78,92.0
5202,C5,215.75,1/5,127,92.0
5203,B1,215.75,0.25,68,92.0
5204,B-2,215.75,0.25,68,92.0
5205,E-4,215.75,0.25,68,92.0
5206,B-4,215.75,0.25,68,92.0
5207,C6,215.75,1/5,127,92.0
5208,C5,215.75,1/5,127,92.0
5209,G2,216.0,1633/1000,101,92.0
5210,D5,216.0,26/125,127,92.0
5211,B1,216.0,0.25,84,92.0
5212,F#2,216.0,0.25,84,92.0
5213,C#3,216.0,0.25,84,92.0
5214,E-4,216.0,0.25,84,92.0
5215,B-4,216.0,0.25,84,92.0
5216,G4,216.0,2.0,47,92.0
5217,G2,216.0,2.0,47,92.0
5218,B-4,216.0,2.0,47,92.0
5219,D4,216.0,2.0,47,92.0
5220,B-3,216.0,2.0,47,92.0
5221,D6,216.0,26/125,127,92.0
5222,D5,216.0,26/125,127,92.0
5223,F#2,216.25,0.25,50,92.0
5224,E-4,216.25,0.25,50,92.0
5225,B-4,216.25,0.25,50,92.0
5226,F#2,216.5,0.25,80,92.0
5227,D4,216.5,0.25,80,92.0
5228,B-4,216.5,0.25,80,92.0
5229,D5,216.525,183/1000,124,92.0
5230,D6,216.525,183/1000,124,92.0
5231,D5,216.525,183/1000,124,92.0
5232,D5,216.75,233/1000,127,92.0
5233,F#2,216.75,0.25,40,92.0
5234,B-4,216.75,0.25,40,92.0
5235,D6,216.75,233/1000,127,92.0
5236,D5,216.75,233/1000,127,92.0
5237,D2,217.0,0.25,86,92.0
5238,F#2,217.0,0.25,86,92.0
5239,E-2,217.0,0.25,86,92.0
5240,B-4,217.0,0.25,86,92.0
5241,A4,217.0,0.25,86,92.0
5242,C5,217.042,417/1000,95,92.0
5243,C6,217.042,417/1000,95,92.0
5244,C5,217.042,417/1000,95,92.0
5245,F#2,217.25,0.25,64,92.0
5246,D4,217.25,0.25,64,92.0
5247,B-4,217.25,0.25,64,92.0
5248,A4,217.25,0.25,64,92.0
5249,D5,217.483,77/250,73,92.0
5250,D6,217.483,77/250,73,92.0
5251,D5,217.483,77/250,73,92.0
5252,F#2,217.5,0.25,58,92.0
5253,E-4,217.5,0.25,58,92.0
5254,B-4,217.5,0.25,58,92.0
5255,A4,217.5,0.25,58,92.0
5256,G2,217.75,1/10,77,92.0
5257,B1,217.75,0.25,62,92.0
5258,F#2,217.75,0.25,62,92.0
5259,E-4,217.75,0.25,62,92.0
5260,B-4,217.75,0.25,62,92.0
5261,C5,217.758,29/20,114,92.0
5262,C6,217.758,29/20,114,92.0
5263,C5,217.758,29/20,114,92.0
5264,E4,217.842,4.0,45,92.0
5265,C4,217.842,4.0,45,92.0
5266,A3,217.842,4.0,45,92.0
5267,G4,217.842,4.0,45,92.0
5268,G2,218.0,779/500,97,92.0
5269,B1,218.0,0.25,83,92.0
5270,F#2,218.0,0.25,83,92.0
5271,B-4,218.0,0.25,83,92.0
5272,G2,218.25,1.75,74,92.0
5273,F#2,218.25,0.25,55,92.0
5274,B-4,218.25,0.25,55,92.0
5275,B-3,218.5,1.5,85,92.0
5276,F#2,218.5,0.25,75,92.0
5277,B-4,218.5,0.25,75,92.0
5278,F#2,218.75,0.25,53,92.0
5279,E-4,218.75,0.25,53,92.0
5280,B-4,218.75,0.25,53,92.0
5281,B-4,218.75,1.25,72,92.0
5282,F#4,218.75,1.25,72,92.0
5283,G4,218.75,1.25,72,92.0
5284,B-4,218.8,271/500,95,92.0
5285,B-5,218.8,271/500,95,92.0
5286,B-4,218.8,271/500,95,92.0
5287,D2,219.0,0.25,85,92.0
5288,F#2,219.0,0.25,85,92.0
5289,D4,219.0,0.25,85,92.0
5290,E-2,219.0,0.25,85,92.0
5291,B-4,219.0,0.25,85,92.0
5292,A4,219.0,0.25,85,92.0
5293,D2,219.25,0.25,50,92.0
5294,F#2,219.25,0.25,50,92.0
5295,D4,219.25,0.25,50,92.0
5296,E-2,219.25,0.25,50,92.0
5297,B-4,219.25,0.25,50,92.0
5298,A4,219.25,0.25,50,92.0
5299,G4,219.283,617/1000,88,92.0
5300,G5,219.283,617/1000,88,92.0
5301,G4,219.283,617/1000,88,92.0
5302,F#2,219.5,0.25,66,92.0
5303,E-4,219.5,0.25,66,92.0
5304,B-4,219.5,0.25,66,92.0
5305,A4,219.5,0.25,66,92.0
5306,G2,219.75,121/500,101,92.0
5307,B1,219.75,0.25,55,92.0
5308,F#2,219.75,0.25,55,92.0
5309,E-4,219.75,0.25,55,92.0
5310,B-4,219.75,0.25,55,92.0
5311,B-4,219.767,233/1000,80,92.0
5312,B-5,219.767,233/1000,80,92.0
5313,B-4,219.767,233/1000,80,92.0
5314,G2,220.0,201/125,90,92.0
5315,B-4,220.0,3/40,80,92.0
5316,B1,220.0,0.25,85,92.0
5317,F#2,220.0,0.25,85,92.0
5318,E-4,220.0,0.25,85,92.0
5319,B-4,220.0,0.25,85,92.0
5320,F4,220.0,2.0,47,92.0
5321,G2,220.0,2.0,47,92.0
5322,G4,220.0,2.0,47,92.0
5323,B-3,220.0,2.0,47,92.0
5324,G3,220.0,2.0,47,92.0
5325,B-5,220.0,3/40,80,92.0
5326,B-4,220.0,3/40,80,92.0
5327,D5,220.033,2/5,93,92.0
5328,G4,220.033,2/5,93,92.0
5329,D6,220.033,2/5,93,92.0
5330,D5,220.033,2/5,93,92.0
5331,G5,220.033,2/5,93,92.0
5332,G4,220.033,2/5,93,92.0
5333,F#2,220.25,0.25,52,92.0
5334,E-4,220.25,0.25,52,92.0
5335,B-4,220.25,0.25,52,92.0
5336,F#2,220.5,0.25,80,92.0
5337,D4,220.5,0.25,80,92.0
5338,B-4,220.5,0.25,80,92.0
5339,G4,220.542,0.25,96,92.0
5340,D5,220.542,0.25,96,92.0
5341,G5,220.542,0.25,96,92.0
5342,D6,220.542,0.25,96,92.0
5343,G4,220.542,0.25,96,92.0
5344,D5,220.542,0.25,96,92.0
5345,B1,220.75,0.25,57,92.0
5346,F#2,220.75,0.25,57,92.0
5347,B-4,220.75,0.25,57,92.0
5348,D5,220.858,73/250,78,92.0
5349,G4,220.858,73/250,78,92.0
5350,D6,220.858,73/250,78,92.0
5351,D5,220.858,73/250,78,92.0
5352,G5,220.858,73/250,78,92.0
5353,G4,220.858,73/250,78,92.0
5354,D2,221.0,0.25,86,92.0
5355,F#2,221.0,0.25,86,92.0
5356,E-2,221.0,0.25,86,92.0
5357,B-4,221.0,0.25,86,92.0
5358,A4,221.0,0.25,86,92.0
5359,B-4,221.1,17/40,68,92.0
5360,B-5,221.1,17/40,68,92.0
5361,B-4,221.1,17/40,68,92.0
5362,F#2,221.25,0.25,59,92.0
5363,D4,221.25,0.25,59,92.0
5364,B-4,221.25,0.25,59,92.0
5365,A4,221.25,0.25,59,92.0
5366,F#2,221.5,0.25,58,92.0
5367,E-4,221.5,0.25,58,92.0
5368,B-4,221.5,0.25,58,92.0
5369,A4,221.5,0.25,58,92.0
5370,D5,221.525,333/1000,109,92.0
5371,D6,221.525,333/1000,109,92.0
5372,D5,221.525,333/1000,109,92.0
5373,G4,221.558,177/250,67,92.0
5374,G5,221.558,177/250,67,92.0
5375,G4,221.558,177/250,67,92.0
5376,G2,221.75,0.125,87,92.0
5377,B1,221.75,0.25,65,92.0
5378,F#2,221.75,0.25,65,92.0
5379,E-4,221.75,0.25,65,92.0
5380,B-4,221.75,0.25,65,92.0
5381,C5,221.792,19/40,104,92.0
5382,C6,221.792,19/40,104,92.0
5383,C5,221.792,19/40,104,92.0
5384,D4,221.842,71/40,55,92.0
5385,B-3,221.842,71/40,55,92.0
5386,G3,221.842,71/40,55,92.0
5387,G2,222.0,201/125,90,92.0
5388,F#2,222.0,0.25,80,92.0
5389,B-4,222.0,0.25,80,92.0
5390,E4,222.0,7/40,68,92.0
5391,D4,222.0,7/40,68,92.0
5392,B-3,222.0,7/40,68,92.0
5393,G4,222.0,7/40,68,92.0
5394,F#2,222.25,0.25,48,92.0
5395,B-4,222.25,0.25,48,92.0
5396,E4,222.25,0.125,81,92.0
5397,D4,222.25,0.125,81,92.0
5398,B-3,222.25,0.125,81,92.0
5399,G4,222.25,0.125,81,92.0
5400,B-4,222.267,317/1000,74,92.0
5401,B-5,222.267,317/1000,74,92.0
5402,B-4,222.267,317/1000,74,92.0
5403,F#2,222.5,0.25,75,92.0
5404,B-4,222.5,0.25,75,92.0
5405,B1,222.75,0.25,62,92.0
5406,F#2,222.75,0.25,62,92.0
5407,E-4,222.75,0.25,62,92.0
5408,B-4,222.75,0.25,62,92.0
5409,B-4,222.767,7/20,73,92.0
5410,B-5,222.767,7/20,73,92.0
5411,B-4,222.767,7/20,73,92.0
5412,D2,223.0,0.25,85,92.0
5413,F#2,223.0,0.25,85,92.0
5414,D4,223.0,0.25,85,92.0
5415,E-2,223.0,0.25,85,92.0
5416,B-4,223.0,0.25,85,92.0
5417,A4,223.0,0.25,85,92.0
5418,D2,223.25,0.25,49,92.0
5419,F#2,223.25,0.25,49,92.0
5420,D4,223.25,0.25,49,92.0
5421,E-2,223.25,0.25,49,92.0
5422,B-4,223.25,0.25,49,92.0
5423,A4,223.25,0.25,49,92.0
5424,B-4,223.258,0.25,66,92.0
5425,B-5,223.258,0.25,66,92.0
5426,B-4,223.258,0.25,66,92.0
5427,B1,223.5,0.25,66,92.0
5428,F#2,223.5,0.25,66,92.0
5429,E-4,223.5,0.25,66,92.0
5430,B-4,223.5,0.25,66,92.0
5431,A4,223.5,0.25,66,92.0
5432,C5,223.508,283/1000,91,92.0
5433,G4,223.508,283/1000,91,92.0
5434,C6,223.508,283/1000,91,92.0
5435,C5,223.508,283/1000,91,92.0
5436,G5,223.508,283/1000,91,92.0
5437,G4,223.508,283/1000,91,92.0
5438,B-4,223.742,121/500,61,92.0
5439,B-5,223.742,121/500,61,92.0
5440,B-4,223.742,121/500,61,92.0
5441,G2,223.75,0.125,87,92.0
5442,F#2,223.75,0.25,44,92.0
5443,E-4,223.75,0.25,44,92.0
5444,B-4,223.75,0.25,44,92.0
5445,G#2,224.0,201/125,90,92.0
5446,G#2,224.0,823/250,87,92.0
5447,G4,224.0,667/1000,95,92.0
5448,B1,224.0,0.25,85,92.0
5449,F#2,224.0,0.25,85,92.0
5450,E-4,224.0,0.25,85,92.0
5451,B-4,224.0,0.25,85,92.0
5452,G5,224.0,667/1000,95,92.0
5453,G4,224.0,667/1000,95,92.0
5454,C5,224.008,433/1000,104,92.0
5455,C6,224.008,433/1000,104,92.0
5456,C5,224.008,433/1000,104,92.0
5457,B-3,224.092,1.75,65,92.0
5458,E-3,224.25,2283/1000,60,92.0
5459,F#2,224.25,0.25,50,92.0
5460,E-4,224.25,0.25,50,92.0
5461,B-4,224.25,0.25,50,92.0
5462,F#4,224.342,1.5,53,92.0
5463,G#3,224.5,12/5,94,92.0
5464,F#2,224.5,0.25,80,92.0
5465,D4,224.5,0.25,80,92.0
5466,B-4,224.5,0.25,80,92.0
5467,G4,224.592,1.25,49,92.0
5468,B-4,224.742,26/125,61,92.0
5469,B-5,224.742,26/125,61,92.0
5470,B-4,224.742,26/125,61,92.0
5471,E-4,224.75,523/250,87,92.0
5472,F#2,224.75,0.25,40,92.0
5473,B-4,224.75,0.25,40,92.0
5474,G4,224.75,1079/500,78,92.0
5475,B-3,224.75,1079/500,78,92.0
5476,G4,224.975,21/40,120,92.0
5477,G5,224.975,21/40,120,92.0
5478,G4,224.975,21/40,120,92.0
5479,D2,225.0,0.25,86,92.0
5480,F#2,225.0,0.25,86,92.0
5481,E-2,225.0,0.25,86,92.0
5482,B-4,225.0,0.25,86,92.0
5483,A4,225.0,0.25,86,92.0
5484,F#2,225.25,0.25,64,92.0
5485,D4,225.25,0.25,64,92.0
5486,B-4,225.25,0.25,64,92.0
5487,A4,225.25,0.25,64,92.0
5488,F#2,225.5,0.25,58,92.0
5489,E-4,225.5,0.25,58,92.0
5490,B-4,225.5,0.25,58,92.0
5491,A4,225.5,0.25,58,92.0
5492,F4,225.525,129/500,48,92.0
5493,F5,225.525,129/500,48,92.0
5494,F4,225.525,129/500,48,92.0
5495,G#2,225.75,0.125,87,92.0
5496,B1,225.75,0.25,62,92.0
5497,F#2,225.75,0.25,62,92.0
5498,E-4,225.75,0.25,62,92.0
5499,B-4,225.75,0.25,62,92.0
5500,G4,225.775,567/1000,124,92.0
5501,G5,225.775,567/1000,124,92.0
5502,G4,225.775,567/1000,124,92.0
5503,G#2,226.0,1.5,94,92.0
5504,B1,226.0,0.25,83,92.0
5505,F#2,226.0,0.25,83,92.0
5506,B-4,226.0,0.25,83,92.0
5507,B-3,226.092,1.75,65,92.0
5508,F#2,226.25,0.25,55,92.0
5509,B-4,226.25,0.25,55,92.0
5510,F4,226.258,483/1000,67,92.0
5511,F5,226.258,483/1000,67,92.0
5512,F4,226.258,483/1000,67,92.0
5513,F4,226.342,1.5,53,92.0
5514,F#2,226.5,0.25,75,92.0
5515,B-4,226.5,0.25,75,92.0
5516,G4,226.592,1.25,49,92.0
5517,E-3,226.75,271/500,81,92.0
5518,F#2,226.75,0.25,53,92.0
5519,E-4,226.75,0.25,53,92.0
5520,B-4,226.75,0.25,53,92.0
5521,E-4,226.783,583/1000,67,92.0
5522,E-5,226.783,583/1000,67,92.0
5523,E-4,226.783,583/1000,67,92.0
5524,D2,227.0,0.25,85,92.0
5525,F#2,227.0,0.25,85,92.0
5526,D4,227.0,0.25,85,92.0
5527,E-2,227.0,0.25,85,92.0
5528,B-4,227.0,0.25,85,92.0
5529,A4,227.0,0.25,85,92.0
5530,G4,227.0,73/250,72,92.0
5531,B-3,227.0,73/250,72,92.0
5532,G#3,227.0,73/250,72,92.0
5533,E-4,227.0,73/250,72,92.0
5534,D2,227.25,0.25,50,92.0
5535,F#2,227.25,0.25,50,92.0
5536,D4,227.25,0.25,50,92.0
5537,E-2,227.25,0.25,50,92.0
5538,B-4,227.25,0.25,50,92.0
5539,A4,227.25,0.25,50,92.0
5540,E-2,227.5,129/500,56,92.0
5541,G#2,227.5,0.5,74,92.0
5542,G#3,227.5,0.5,71,92.0
5543,F#2,227.5,0.25,66,92.0
5544,E-4,227.5,0.25,66,92.0
5545,B-4,227.5,0.25,66,92.0
5546,A4,227.5,0.25,66,92.0
5547,G#4,227.5,0.5,86,92.0
5548,C4,227.5,0.5,86,92.0
5549,E-4,227.517,9/20,59,92.0
5550,E-5,227.517,9/20,59,92.0
5551,E-4,227.517,9/20,59,92.0
5552,F4,227.717,183/1000,64,92.0
5553,F5,227.717,183/1000,64,92.0
5554,F4,227.717,183/1000,64,92.0
5555,B1,227.75,0.25,55,92.0
5556,F#2,227.75,0.25,55,92.0
5557,E-4,227.75,0.25,55,92.0
5558,B-4,227.75,0.25,55,92.0
5559,F2,227.758,121/500,68,92.0
5560,E4,227.842,71/40,55,92.0
5561,D4,227.842,71/40,55,92.0
5562,B-3,227.842,71/40,55,92.0
5563,G4,227.842,71/40,55,92.0
5564,G4,227.992,1/125,127,92.0
5565,G5,227.992,1/125,127,92.0
5566,G4,227.992,1/125,127,92.0
5567,G#2,228.0,201/125,101,92.0
5568,G#2,228.0,1829/500,74,92.0
5569,G#3,228.0,223/250,71,92.0
5570,G4,228.0,429/500,127,92.0
5571,B1,228.0,0.25,85,92.0
5572,F#2,228.0,0.25,85,92.0
5573,E-4,228.0,0.25,85,92.0
5574,B-4,228.0,0.25,85,92.0
5575,G#4,228.0,1333/1000,86,92.0
5576,C4,228.0,1333/1000,86,92.0
5577,G5,228.0,429/500,127,92.0
5578,G4,228.0,429/500,127,92.0
5579,F#2,228.25,0.25,52,92.0
5580,E-4,228.25,0.25,52,92.0
5581,B-4,228.25,0.25,52,92.0
5582,F#2,228.5,0.25,80,92.0
5583,D4,228.5,0.25,80,92.0
5584,B-4,228.5,0.25,80,92.0
5585,E-3,228.75,29/10,84,92.0
5586,B1,228.75,0.25,57,92.0
5587,F#2,228.75,0.25,57,92.0
5588,B-4,228.75,0.25,57,92.0
5589,D2,229.0,0.25,86,92.0
5590,F#2,229.0,0.25,86,92.0
5591,E-2,229.0,0.25,86,92.0
5592,B-4,229.0,0.25,86,92.0
5593,A4,229.0,0.25,86,92.0
5594,G#3,229.25,1417/1000,94,92.0
5595,F#2,229.25,0.25,59,92.0
5596,D4,229.25,0.25,59,92.0
5597,B-4,229.25,0.25,59,92.0
5598,A4,229.25,0.25,59,92.0
5599,F#2,229.5,0.25,58,92.0
5600,E-4,229.5,0.25,58,92.0
5601,B-4,229.5,0.25,58,92.0
5602,A4,229.5,0.25,58,92.0
5603,G#2,229.75,117/1000,84,92.0
5604,C5,229.75,279/500,77,92.0
5605,B1,229.75,0.25,65,92.0
5606,F#2,229.75,0.25,65,92.0
5607,E-4,229.75,0.25,65,92.0
5608,B-4,229.75,0.25,65,92.0
5609,G4,229.842,4.0,56,92.0
5610,E-4,229.842,4.0,56,92.0
5611,C4,229.842,4.0,56,92.0
5612,B-4,229.842,4.0,56,92.0
5613,G#2,230.0,1817/1000,81,92.0
5614,F#2,230.0,0.25,80,92.0
5615,B-4,230.0,0.25,80,92.0
5616,B-4,230.25,3/10,77,92.0
5617,F#2,230.25,0.25,48,92.0
5618,B-4,230.25,0.25,48,92.0
5619,D4,230.258,7/40,65,92.0
5620,D5,230.258,7/40,65,92.0
5621,D4,230.258,7/40,65,92.0
5622,G#4,230.5,533/1000,97,92.0
5623,F#2,230.5,0.25,75,92.0
5624,B-4,230.5,0.25,75,92.0
5625,E-4,230.517,3/20,61,92.0
5626,E-5,230.517,3/20,61,92.0
5627,E-4,230.517,3/20,61,92.0
5628,F4,230.725,24/125,78,92.0
5629,F5,230.725,24/125,78,92.0
5630,F4,230.725,24/125,78,92.0
5631,G#3,230.75,9/10,101,92.0
5632,B1,230.75,0.25,62,92.0
5633,F#2,230.75,0.25,62,92.0
5634,E-4,230.75,0.25,62,92.0
5635,B-4,230.75,0.25,62,92.0
5636,G4,230.992,26/125,127,92.0
5637,G5,230.992,26/125,127,92.0
5638,G4,230.992,26/125,127,92.0
5639,F4,231.0,3/5,97,92.0
5640,D2,231.0,0.25,85,92.0
5641,F#2,231.0,0.25,85,92.0
5642,D4,231.0,0.25,85,92.0
5643,E-2,231.0,0.25,85,92.0
5644,B-4,231.0,0.25,85,92.0
5645,A4,231.0,0.25,85,92.0
5646,G#4,231.2,167/1000,71,92.0
5647,G#5,231.2,167/1000,71,92.0
5648,G#4,231.2,167/1000,71,92.0
5649,D2,231.25,0.25,49,92.0
5650,F#2,231.25,0.25,49,92.0
5651,D4,231.25,0.25,49,92.0
5652,E-2,231.25,0.25,49,92.0
5653,B-4,231.25,0.25,49,92.0
5654,A4,231.25,0.25,49,92.0
5655,B-4,231.483,0.25,95,92.0
5656,B-5,231.483,0.25,95,92.0
5657,B-4,231.483,0.25,95,92.0
5658,B1,231.5,0.25,66,92.0
5659,F#2,231.5,0.25,66,92.0
5660,E-4,231.5,0.25,66,92.0
5661,B-4,231.5,0.25,66,92.0
5662,A4,231.5,0.25,66,92.0
5663,C5,231.742,24/125,104,92.0
5664,C6,231.742,24/125,104,92.0
5665,C5,231.742,24/125,104,92.0
5666,E-2,231.75,167/1000,87,92.0
5667,F#2,231.75,0.25,44,92.0
5668,E-4,231.75,0.25,44,92.0
5669,B-4,231.75,0.25,44,92.0
5670,D5,231.967,33/1000,127,92.0
5671,D6,231.967,33/1000,127,92.0
5672,D5,231.967,33/1000,127,92.0
5673,G2,232.0,779/500,97,92.0
5674,D5,232.0,171/500,127,92.0
5675,B1,232.0,0.25,85,92.0
5676,F#2,232.0,0.25,85,92.0
5677,E-4,232.0,0.25,85,92.0
5678,B-4,232.0,0.25,85,92.0
5679,D4,232.0,7/40,68,92.0
5680,B-3,232.0,7/40,68,92.0
5681,G3,232.0,7/40,68,92.0
5682,D6,232.0,171/500,127,92.0
5683,D5,232.0,171/500,127,92.0
5684,B-2,232.25,0.25,51,92.0
5685,E-4,232.25,0.25,51,92.0
5686,B-4,232.25,0.25,51,92.0
5687,D4,232.25,0.125,81,92.0
5688,B-3,232.25,0.125,81,92.0
5689,G3,232.25,0.125,81,92.0
5690,D5,232.483,183/1000,124,92.0
5691,D6,232.483,183/1000,124,92.0
5692,D5,232.483,183/1000,124,92.0
5693,F#2,232.5,0.25,80,92.0
5694,D4,232.5,0.25,80,92.0
5695,B-4,232.5,0.25,80,92.0
5696,F#2,232.75,0.25,40,92.0
5697,B-4,232.75,0.25,40,92.0
5698,D5,232.775,121/500,127,92.0
5699,D6,232.775,121/500,127,92.0
5700,D5,232.775,121/500,127,92.0
5701,D2,233.0,0.25,86,92.0
5702,F#2,233.0,0.25,86,92.0
5703,E-2,233.0,0.25,86,92.0
5704,B-4,233.0,0.25,86,92.0
5705,A4,233.0,0.25,86,92.0
5706,C5,233.125,217/1000,82,92.0
5707,C6,233.125,217/1000,82,92.0
5708,C5,233.125,217/1000,82,92.0
5709,F#2,233.25,0.25,64,92.0
5710,D4,233.25,0.25,64,92.0
5711,B-4,233.25,0.25,64,92.0
5712,A4,233.25,0.25,64,92.0
5713,D5,233.467,73/250,120,92.0
5714,D6,233.467,73/250,120,92.0
5715,D5,233.467,73/250,120,92.0
5716,F#2,233.5,0.25,52,92.0
5717,E-4,233.5,0.25,52,92.0
5718,B-4,233.5,0.25,52,92.0
5719,A4,233.5,0.25,52,92.0
5720,G2,233.75,121/500,101,92.0
5721,B1,233.75,0.25,62,92.0
5722,F#2,233.75,0.25,62,92.0
5723,E-4,233.75,0.25,62,92.0
5724,B-4,233.75,0.25,62,92.0
5725,C5,233.792,0.375,65,92.0
5726,C6,233.792,0.375,65,92.0
5727,C5,233.792,0.375,65,92.0
5728,G2,234.0,201/125,90,92.0
5729,B1,234.0,0.25,83,92.0
5730,F#2,234.0,0.25,83,92.0
5731,B-4,234.0,0.25,83,92.0
5732,F#4,234.0,2.0,47,92.0
5733,G2,234.0,2.0,47,92.0
5734,G4,234.0,2.0,47,92.0
5735,B-3,234.0,2.0,47,92.0
5736,G3,234.0,2.0,47,92.0
5737,F#2,234.25,0.25,48,92.0
5738,B-4,234.25,0.25,48,92.0
5739,B-4,234.275,467/1000,54,92.0
5740,B-5,234.275,467/1000,54,92.0
5741,B-4,234.275,467/1000,54,92.0
5742,F#2,234.5,0.25,75,92.0
5743,B-4,234.5,0.25,75,92.0
5744,F#2,234.75,0.25,53,92.0
5745,E-4,234.75,0.25,53,92.0
5746,B-4,234.75,0.25,53,92.0
5747,G4,234.825,124/125,46,92.0
5748,G5,234.825,124/125,46,92.0
5749,G4,234.825,124/125,46,92.0
5750,D2,235.0,0.25,85,92.0
5751,F#2,235.0,0.25,85,92.0
5752,D4,235.0,0.25,85,92.0
5753,E-2,235.0,0.25,85,92.0
5754,B-4,235.0,0.25,85,92.0
5755,A4,235.0,0.25,85,92.0
5756,D2,235.25,0.25,45,92.0
5757,F#2,235.25,0.25,45,92.0
5758,D4,235.25,0.25,45,92.0
5759,E-2,235.25,0.25,45,92.0
5760,B-4,235.25,0.25,45,92.0
5761,A4,235.25,0.25,45,92.0
5762,F#2,235.5,0.25,66,92.0
5763,E-4,235.5,0.25,66,92.0
5764,B-4,235.5,0.25,66,92.0
5765,A4,235.5,0.25,66,92.0
5766,G2,235.75,0.125,87,92.0
5767,B1,235.75,0.25,55,92.0
5768,F#2,235.75,0.25,55,92.0
5769,E-4,235.75,0.25,55,92.0
5770,B-4,235.75,0.25,55,92.0
5771,G2,236.0,779/500,97,92.0
5772,B1,236.0,0.25,85,92.0
5773,F#2,236.0,0.25,85,92.0
5774,E-4,236.0,0.25,85,92.0
5775,B-4,236.0,0.25,85,92.0
5776,F4,236.0,7/40,68,92.0
5777,D4,236.0,7/40,68,92.0
5778,B-3,236.0,7/40,68,92.0
5779,G4,236.0,7/40,68,92.0
5780,F#2,236.25,0.25,52,92.0
5781,E-4,236.25,0.25,52,92.0
5782,B-4,236.25,0.25,52,92.0
5783,F4,236.25,0.125,81,92.0
5784,D4,236.25,0.125,81,92.0
5785,B-3,236.25,0.125,81,92.0
5786,G4,236.25,0.125,81,92.0
5787,G4,236.483,133/1000,104,92.0
5788,D5,236.483,133/1000,104,92.0
5789,G5,236.483,133/1000,104,92.0
5790,G4,236.483,133/1000,104,92.0
5791,D6,236.483,133/1000,104,92.0
5792,D5,236.483,133/1000,104,92.0
5793,F#2,236.5,0.25,80,92.0
5794,D4,236.5,0.25,80,92.0
5795,B-4,236.5,0.25,80,92.0
5796,G4,236.683,1421/500,56,92.0
5797,E-4,236.683,1421/500,56,92.0
5798,C4,236.683,1421/500,56,92.0
5799,B-4,236.683,1421/500,56,92.0
5800,D5,236.725,167/1000,81,92.0
5801,G4,236.725,167/1000,81,92.0
5802,D6,236.725,167/1000,81,92.0
5803,D5,236.725,167/1000,81,92.0
5804,G5,236.725,167/1000,81,92.0
5805,G4,236.725,167/1000,81,92.0
5806,B1,236.75,0.25,57,92.0
5807,F#2,236.75,0.25,57,92.0
5808,B-4,236.75,0.25,57,92.0
5809,G4,236.983,2/5,60,92.0
5810,G5,236.983,2/5,60,92.0
5811,G4,236.983,2/5,60,92.0
5812,C5,237.0,483/1000,71,92.0
5813,D2,237.0,0.25,86,92.0
5814,F#2,237.0,0.25,86,92.0
5815,E-2,237.0,0.25,86,92.0
5816,B-4,237.0,0.25,86,92.0
5817,A4,237.0,0.25,86,92.0
5818,C6,237.0,483/1000,71,92.0
5819,C5,237.0,483/1000,71,92.0
5820,F#2,237.25,0.25,59,92.0
5821,D4,237.25,0.25,59,92.0
5822,B-4,237.25,0.25,59,92.0
5823,A4,237.25,0.25,59,92.0
5824,B-4,237.433,1/10,1,92.0
5825,B-5,237.433,1/10,1,92.0
5826,B-4,237.433,1/10,1,92.0
5827,F#2,237.5,0.25,58,92.0
5828,E-4,237.5,0.25,58,92.0
5829,B-4,237.5,0.25,58,92.0
5830,A4,237.5,0.25,58,92.0
5831,G4,237.542,0.625,80,92.0
5832,D5,237.542,11/40,78,92.0
5833,G5,237.542,0.625,80,92.0
5834,G4,237.542,0.625,80,92.0
5835,D6,237.542,11/40,78,92.0
5836,D5,237.542,11/40,78,92.0
5837,C5,237.742,2/5,88,92.0
5838,C6,237.742,2/5,88,92.0
5839,C5,237.742,2/5,88,92.0
5840,G2,237.75,121/500,101,92.0
5841,B1,237.75,0.25,78,92.0
5842,B-2,237.75,0.25,78,92.0
5843,E-4,237.75,0.25,78,92.0
5844,B-4,237.75,0.25,78,92.0
5845,G2,238.0,779/500,97,92.0
5846,F#2,238.0,0.25,80,92.0
5847,B-4,238.0,0.25,80,92.0
5848,E4,238.0,2.0,47,92.0
5849,G2,238.0,2.0,47,92.0
5850,G4,238.0,2.0,47,92.0
5851,B-3,238.0,2.0,47,92.0
5852,G3,238.0,2.0,47,92.0
5853,B-4,238.233,11/40,63,92.0
5854,B-5,238.233,11/40,63,92.0
5855,B-4,238.233,11/40,63,92.0
5856,D2,238.25,0.25,56,92.0
5857,B-4,238.25,0.25,56,92.0
5858,F#2,238.5,0.25,75,92.0
5859,B-4,238.5,0.25,75,92.0
5860,B1,238.75,0.25,62,92.0
5861,F#2,238.75,0.25,62,92.0
5862,E-4,238.75,0.25,62,92.0
5863,B-4,238.75,0.25,62,92.0
5864,B-4,238.758,179/500,80,92.0
5865,B-5,238.758,179/500,80,92.0
5866,B-4,238.758,179/500,80,92.0
5867,D2,239.0,0.25,85,92.0
5868,F#2,239.0,0.25,85,92.0
5869,D4,239.0,0.25,85,92.0
5870,E-2,239.0,0.25,85,92.0
5871,B-4,239.0,0.25,85,92.0
5872,A4,239.0,0.25,85,92.0
5873,B-4,239.233,283/1000,64,92.0
5874,B-5,239.233,283/1000,64,92.0
5875,B-4,239.233,283/1000,64,92.0
5876,D2,239.25,0.25,49,92.0
5877,F#2,239.25,0.25,49,92.0
5878,D4,239.25,0.25,49,92.0
5879,E-2,239.25,0.25,49,92.0
5880,B-4,239.25,0.25,49,92.0
5881,A4,239.25,0.25,49,92.0
5882,G4,239.483,267/1000,85,92.0
5883,C5,239.483,267/1000,85,92.0
5884,G5,239.483,267/1000,85,92.0
5885,C6,239.483,267/1000,85,92.0
5886,G4,239.483,267/1000,85,92.0
5887,C5,239.483,267/1000,85,92.0
5888,B1,239.5,0.25,66,92.0
5889,F#2,239.5,0.25,66,92.0
5890,E-4,239.5,0.25,66,92.0
5891,B-4,239.5,0.25,66,92.0
5892,A4,239.5,0.25,66,92.0
5893,G4,239.683,1.0,41,92.0
5894,B-4,239.717,283/1000,62,92.0
5895,B-5,239.717,283/1000,62,92.0
5896,B-4,239.717,283/1000,62,92.0
5897,G2,239.75,0.25,101,92.0
5898,F#2,239.75,0.25,44,92.0
5899,E-4,239.75,0.25,44,92.0
5900,B-4,239.75,0.25,44,92.0
5901,G4,239.975,1/40,104,92.0
5902,G5,239.975,1/40,104,92.0
5903,G4,239.975,1/40,104,92.0
5904,C5,239.983,17/1000,104,92.0
5905,C6,239.983,17/1000,104,92.0
5906,C5,239.983,17/1000,104,92.0
5907,G#2,240.0,1633/1000,101,92.0
5908,G#2,240.0,4.0,81,92.0
5909,C4,240.0,2583/1000,66,92.0
5910,G4,240.0,3.0,77,92.0
5911,B-4,240.0,3267/1000,74,92.0
5912,B-4,240.0,1/125,62,92.0
5913,G4,240.0,633/1000,104,92.0
5914,C5,240.0,9/20,104,92.0
5915,B1,240.0,0.25,85,92.0
5916,F#2,240.0,0.25,85,92.0
5917,E-4,240.0,0.25,85,92.0
5918,B-4,240.0,0.25,85,92.0
5919,B-5,240.0,1/125,62,92.0
5920,B-4,240.0,1/125,62,92.0
5921,G5,240.0,633/1000,104,92.0
5922,G4,240.0,633/1000,104,92.0
5923,C6,240.0,9/20,104,92.0
5924,C5,240.0,9/20,104,92.0
5925,F#2,240.25,0.25,50,92.0
5926,E-4,240.25,0.25,50,92.0
5927,B-4,240.25,0.25,50,92.0
5928,G#3,240.5,1633/1000,24,92.0
5929,F#2,240.5,0.25,80,92.0
5930,D4,240.5,0.25,80,92.0
5931,B-4,240.5,0.25,80,92.0
5932,B-4,240.55,29/500,54,92.0
5933,B-5,240.55,29/500,54,92.0
5934,B-4,240.55,29/500,54,92.0
5935,F#2,240.75,0.25,40,92.0
5936,B-4,240.75,0.25,40,92.0
5937,B-4,240.767,117/1000,60,92.0
5938,B-5,240.767,117/1000,60,92.0
5939,B-4,240.767,117/1000,60,92.0
5940,D4,240.933,1.75,65,92.0
5941,G4,240.975,123/250,124,92.0
5942,G5,240.975,123/250,124,92.0
5943,G4,240.975,123/250,124,92.0
5944,D2,241.0,0.25,86,92.0
5945,F#2,241.0,0.25,86,92.0
5946,E-2,241.0,0.25,86,92.0
5947,B-4,241.0,0.25,86,92.0
5948,A4,241.0,0.25,86,92.0
5949,G4,241.183,1.5,53,92.0
5950,F#2,241.25,0.25,64,92.0
5951,D4,241.25,0.25,64,92.0
5952,B-4,241.25,0.25,64,92.0
5953,A4,241.25,0.25,64,92.0
5954,B-4,241.433,1.25,49,92.0
5955,F#2,241.5,0.25,58,92.0
5956,E-4,241.5,0.25,58,92.0
5957,B-4,241.5,0.25,58,92.0
5958,A4,241.5,0.25,58,92.0
5959,F4,241.517,7/40,40,92.0
5960,F5,241.517,7/40,40,92.0
5961,F4,241.517,7/40,40,92.0
5962,G#2,241.75,1/10,77,92.0
5963,B1,241.75,0.25,62,92.0
5964,F#2,241.75,0.25,62,92.0
5965,E-4,241.75,0.25,62,92.0
5966,B-4,241.75,0.25,62,92.0
5967,G4,241.758,9/10,124,92.0
5968,G5,241.758,9/10,124,92.0
5969,G4,241.758,9/10,124,92.0
5970,G#2,242.0,79/40,81,92.0
5971,B1,242.0,0.25,83,92.0
5972,F#2,242.0,0.25,83,92.0
5973,B-4,242.0,0.25,83,92.0
5974,G#3,242.25,1.75,71,92.0
5975,F4,242.25,433/1000,71,92.0
5976,F#2,242.25,0.25,55,92.0
5977,B-4,242.25,0.25,55,92.0
5978,F5,242.25,433/1000,71,92.0
5979,F4,242.25,433/1000,71,92.0
5980,F#2,242.5,0.25,75,92.0
5981,B-4,242.5,0.25,75,92.0
5982,C4,242.75,1.25,59,92.0
5983,F#2,242.75,0.25,53,92.0
5984,E-4,242.75,0.25,53,92.0
5985,B-4,242.75,0.25,53,92.0
5986,E-4,242.783,517/1000,73,92.0
5987,E-5,242.783,517/1000,73,92.0
5988,E-4,242.783,517/1000,73,92.0
5989,B-3,242.933,1.75,65,92.0
5990,D2,243.0,0.25,85,92.0
5991,F#2,243.0,0.25,85,92.0
5992,D4,243.0,0.25,85,92.0
5993,E-2,243.0,0.25,85,92.0
5994,B-4,243.0,0.25,85,92.0
5995,A4,243.0,0.25,85,92.0
5996,F#4,243.183,1.5,53,92.0
5997,G4,243.25,0.75,63,92.0
5998,D2,243.25,0.25,50,92.0
5999,F#2,243.25,0.25,50,92.0
6000,D4,243.25,0.25,50,92.0
6001,E-2,243.25,0.25,50,92.0
6002,B-4,243.25,0.25,50,92.0
6003,A4,243.25,0.25,50,92.0
6004,G4,243.433,1.25,49,92.0
6005,E-4,243.492,3/10,59,92.0
6006,E-5,243.492,3/10,59,92.0
6007,E-4,243.492,3/10,59,92.0
6008,F#2,243.5,0.25,66,92.0
6009,E-4,243.5,0.25,66,92.0
6010,B-4,243.5,0.25,66,92.0
6011,A4,243.5,0.25,66,92.0
6012,F4,243.733,121/500,61,92.0
6013,F5,243.733,121/500,61,92.0
6014,F4,243.733,121/500,61,92.0
6015,B-4,243.75,0.25,71,92.0
6016,B1,243.75,0.25,55,92.0
6017,F#2,243.75,0.25,55,92.0
6018,E-4,243.75,0.25,55,92.0
6019,B-4,243.75,0.25,55,92.0
6020,G#2,244.0,1617/1000,94,92.0
6021,G#2,244.0,107/40,81,92.0
6022,C4,244.0,127/40,59,92.0
6023,G4,244.0,823/250,63,92.0
6024,B-4,244.0,33/10,71,92.0
6025,G#3,244.0,723/250,71,92.0
6026,B1,244.0,0.25,85,92.0
6027,F#2,244.0,0.25,85,92.0
6028,E-4,244.0,0.25,85,92.0
6029,B-4,244.0,0.25,85,92.0
6030,G4,244.017,233/1000,120,92.0
6031,G5,244.017,233/1000,120,92.0
6032,G4,244.017,233/1000,120,92.0
6033,F#2,244.25,0.25,52,92.0
6034,E-4,244.25,0.25,52,92.0
6035,B-4,244.25,0.25,52,92.0
6036,E-4,244.275,179/500,57,92.0
6037,E-5,244.275,179/500,57,92.0
6038,E-4,244.275,179/500,57,92.0
6039,F4,244.475,121/500,61,92.0
6040,F5,244.475,121/500,61,92.0
6041,F4,244.475,121/500,61,92.0
6042,F#2,244.5,0.25,80,92.0
6043,D4,244.5,0.25,80,92.0
6044,B-4,244.5,0.25,80,92.0
6045,F4,244.683,71/40,55,92.0
6046,D4,244.683,71/40,55,92.0
6047,B-3,244.683,71/40,55,92.0
6048,G4,244.683,71/40,55,92.0
6049,B1,244.75,0.25,57,92.0
6050,F#2,244.75,0.25,57,92.0
6051,B-4,244.75,0.25,57,92.0
6052,G4,244.758,11/40,120,92.0
6053,G5,244.758,11/40,120,92.0
6054,G4,244.758,11/40,120,92.0
6055,D2,245.0,0.25,86,92.0
6056,F#2,245.0,0.25,86,92.0
6057,E-2,245.0,0.25,86,92.0
6058,B-4,245.0,0.25,86,92.0
6059,A4,245.0,0.25,86,92.0
6060,E-4,245.042,73/250,46,92.0
6061,E-5,245.042,73/250,46,92.0
6062,E-4,245.042,73/250,46,92.0
6063,F#2,245.25,0.25,59,92.0
6064,D4,245.25,0.25,59,92.0
6065,B-4,245.25,0.25,59,92.0
6066,A4,245.25,0.25,59,92.0
6067,F4,245.275,24/125,58,92.0
6068,F5,245.275,24/125,58,92.0
6069,F4,245.275,24/125,58,92.0
6070,F#2,245.5,0.25,58,92.0
6071,E-4,245.5,0.25,58,92.0
6072,B-4,245.5,0.25,58,92.0
6073,A4,245.5,0.25,58,92.0
6074,G4,245.508,129/500,114,92.0
6075,G5,245.508,129/500,114,92.0
6076,G4,245.508,129/500,114,92.0
6077,G#2,245.75,83/1000,68,92.0
6078,B1,245.75,0.25,65,92.0
6079,F#2,245.75,0.25,65,92.0
6080,E-4,245.75,0.25,65,92.0
6081,B-4,245.75,0.25,65,92.0
6082,E-4,245.783,317/1000,48,92.0
6083,E-5,245.783,317/1000,48,92.0
6084,E-4,245.783,317/1000,48,92.0
6085,G#2,246.0,249/125,97,92.0
6086,F4,246.0,233/1000,60,92.0
6087,F#2,246.0,0.25,80,92.0
6088,B-4,246.0,0.25,80,92.0
6089,F5,246.0,233/1000,60,92.0
6090,F4,246.0,233/1000,60,92.0
6091,G4,246.25,9/40,120,92.0
6092,F#2,246.25,0.25,48,92.0
6093,B-4,246.25,0.25,48,92.0
6094,G5,246.25,9/40,120,92.0
6095,G4,246.25,9/40,120,92.0
6096,F#2,246.5,0.25,75,92.0
6097,B-4,246.5,0.25,75,92.0
6098,E-4,246.525,267/1000,48,92.0
6099,E-5,246.525,267/1000,48,92.0
6100,E-4,246.525,267/1000,48,92.0
6101,E4,246.683,71/40,55,92.0
6102,D4,246.683,71/40,55,92.0
6103,B-3,246.683,71/40,55,92.0
6104,G4,246.683,71/40,55,92.0
6105,G#2,246.75,49/40,101,92.0
6106,B1,246.75,0.25,62,92.0
6107,F#2,246.75,0.25,62,92.0
6108,E-4,246.75,0.25,62,92.0
6109,B-4,246.75,0.25,62,92.0
6110,F4,246.767,183/1000,73,92.0
6111,F5,246.767,183/1000,73,92.0
6112,F4,246.767,183/1000,73,92.0
6113,G#3,247.0,39/40,109,92.0
6114,D2,247.0,0.25,85,92.0
6115,F#2,247.0,0.25,85,92.0
6116,D4,247.0,0.25,85,92.0
6117,E-2,247.0,0.25,85,92.0
6118,B-4,247.0,0.25,85,92.0
6119,A4,247.0,0.25,85,92.0
6120,G4,247.017,121/500,124,92.0
6121,G5,247.017,121/500,124,92.0
6122,G4,247.017,121/500,124,92.0
6123,C4,247.25,29/40,96,92.0
6124,D2,247.25,0.25,49,92.0
6125,F#2,247.25,0.25,49,92.0
6126,D4,247.25,0.25,49,92.0
6127,E-2,247.25,0.25,49,92.0
6128,B-4,247.25,0.25,49,92.0
6129,A4,247.25,0.25,49,92.0
6130,B4,247.258,217/1000,120,92.0
6131,B5,247.258,217/1000,120,92.0
6132,B4,247.258,217/1000,120,92.0
6133,G4,247.5,19/40,60,92.0
6134,B1,247.5,0.25,66,92.0
6135,F#2,247.5,0.25,66,92.0
6136,E-4,247.5,0.25,66,92.0
6137,B-4,247.5,0.25,66,92.0
6138,A4,247.5,0.25,66,92.0
6139,G4,247.742,7/40,109,92.0
6140,G5,247.742,7/40,109,92.0
6141,G4,247.742,7/40,109,92.0
6142,B-4,247.75,9/40,77,92.0
6143,F#2,247.75,0.25,44,92.0
6144,E-4,247.75,0.25,44,92.0
6145,B-4,247.75,0.25,44,92.0
6146,G2,248.0,1633/1000,101,92.0
6147,G2,248.0,4.0,81,92.0
6148,B3,248.0,2583/1000,66,92.0
6149,F#4,248.0,3.0,77,92.0
6150,A4,248.0,3267/1000,74,92.0
6151,B1,248.0,0.25,85,92.0
6152,F#2,248.0,0.25,85,92.0
6153,E-4,248.0,0.25,85,92.0
6154,B-4,248.0,0.25,85,92.0
6155,C5,248.017,0.125,88,92.0
6156,C6,248.017,0.125,88,92.0
6157,C5,248.017,0.125,88,92.0
6158,F#2,248.25,0.25,50,92.0
6159,E-4,248.25,0.25,50,92.0
6160,B-4,248.25,0.25,50,92.0
6161,D5,248.308,267/1000,104,92.0
6162,D6,248.308,267/1000,104,92.0
6163,D5,248.308,267/1000,104,92.0
6164,G3,248.5,1633/1000,24,92.0
6165,F#2,248.5,0.25,80,92.0
6166,D4,248.5,0.25,80,92.0
6167,B-4,248.5,0.25,80,92.0
6168,G4,248.683,4.0,56,92.0
6169,E-4,248.683,4.0,56,92.0
6170,C4,248.683,4.0,56,92.0
6171,B-4,248.683,4.0,56,92.0
6172,B4,248.7,183/1000,70,92.0
6173,B5,248.7,183/1000,70,92.0
6174,B4,248.7,183/1000,70,92.0
6175,F#2,248.75,0.25,40,92.0
6176,B-4,248.75,0.25,40,92.0
6177,D2,249.0,0.25,86,92.0
6178,F#2,249.0,0.25,86,92.0
6179,E-2,249.0,0.25,86,92.0
6180,B-4,249.0,0.25,86,92.0
6181,A4,249.0,0.25,86,92.0
6182,G4,249.008,517/1000,85,92.0
6183,G5,249.008,517/1000,85,92.0
6184,G4,249.008,517/1000,85,92.0
6185,F#2,249.25,0.25,64,92.0
6186,D4,249.25,0.25,64,92.0
6187,B-4,249.25,0.25,64,92.0
6188,A4,249.25,0.25,64,92.0
6189,F#2,249.5,0.25,58,92.0
6190,E-4,249.5,0.25,58,92.0
6191,B-4,249.5,0.25,58,92.0
6192,A4,249.5,0.25,58,92.0
6193,G2,249.75,1/10,77,92.0
6194,B1,249.75,0.25,62,92.0
6195,F#2,249.75,0.25,62,92.0
6196,E-4,249.75,0.25,62,92.0
6197,B-4,249.75,0.25,62,92.0
6198,F#4,249.758,67/1000,68,92.0
6199,F#5,249.758,67/1000,68,92.0
6200,F#4,249.758,67/1000,68,92.0
6201,G4,249.858,1/10,98,92.0
6202,G5,249.858,1/10,98,92.0
6203,G4,249.858,1/10,98,92.0
6204,F#4,249.958,79/500,74,92.0
6205,F#5,249.958,79/500,74,92.0
6206,F#4,249.958,79/500,74,92.0
6207,G2,250.0,79/40,81,92.0
6208,B1,250.0,0.25,83,92.0
6209,F#2,250.0,0.25,83,92.0
6210,B-4,250.0,0.25,83,92.0
6211,G3,250.25,1.75,71,92.0
6212,G4,250.25,24/125,91,92.0
6213,F#2,250.25,0.25,55,92.0
6214,B-4,250.25,0.25,55,92.0
6215,G5,250.25,24/125,91,92.0
6216,G4,250.25,24/125,91,92.0
6217,D4,250.5,0.25,56,92.0
6218,F#2,250.5,0.25,75,92.0
6219,B-4,250.5,0.25,75,92.0
6220,D5,250.5,0.25,56,92.0
6221,D4,250.5,0.25,56,92.0
6222,B3,250.75,1.25,59,92.0
6223,F#2,250.75,0.25,53,92.0
6224,E-4,250.75,0.25,53,92.0
6225,B-4,250.75,0.25,53,92.0
6226,F#4,250.767,171/500,60,92.0
6227,F#5,250.767,171/500,60,92.0
6228,F#4,250.767,171/500,60,92.0
6229,D2,251.0,0.25,85,92.0
6230,F#2,251.0,0.25,85,92.0
6231,D4,251.0,0.25,85,92.0
6232,E-2,251.0,0.25,85,92.0
6233,B-4,251.0,0.25,85,92.0
6234,A4,251.0,0.25,85,92.0
6235,D4,251.017,233/1000,62,92.0
6236,D5,251.017,233/1000,62,92.0
6237,D4,251.017,233/1000,62,92.0
6238,F#4,251.25,0.75,63,92.0
6239,D2,251.25,0.25,50,92.0
6240,F#2,251.25,0.25,50,92.0
6241,D4,251.25,0.25,50,92.0
6242,E-2,251.25,0.25,50,92.0
6243,B-4,251.25,0.25,50,92.0
6244,A4,251.25,0.25,50,92.0
6245,G4,251.267,11/40,104,92.0
6246,G5,251.267,11/40,104,92.0
6247,G4,251.267,11/40,104,92.0
6248,F#2,251.5,0.25,66,92.0
6249,E-4,251.5,0.25,66,92.0
6250,B-4,251.5,0.25,66,92.0
6251,A4,251.5,0.25,66,92.0
6252,B4,251.533,183/1000,114,92.0
6253,B5,251.533,183/1000,114,92.0
6254,B4,251.533,183/1000,114,92.0
6255,A4,251.75,0.25,71,92.0
6256,B1,251.75,0.25,55,92.0
6257,F#2,251.75,0.25,55,92.0
6258,E-4,251.75,0.25,55,92.0
6259,B-4,251.75,0.25,55,92.0
6260,D5,251.767,7/40,82,92.0
6261,D6,251.767,7/40,82,92.0
6262,D5,251.767,7/40,82,92.0
6263,G2,252.0,1617/1000,94,92.0
6264,G2,252.0,107/40,81,92.0
6265,B3,252.0,127/40,59,92.0
6266,F#4,252.0,823/250,63,92.0
6267,A4,252.0,33/10,71,92.0
6268,G3,252.0,723/250,71,92.0
6269,E5,252.0,1/5,127,92.0
6270,B1,252.0,0.25,85,92.0
6271,F#2,252.0,0.25,85,92.0
6272,E-4,252.0,0.25,85,92.0
6273,B-4,252.0,0.25,85,92.0
6274,E6,252.0,1/5,127,92.0
6275,E5,252.0,1/5,127,92.0
6276,F#5,252.25,1/5,127,92.0
6277,D2,252.25,0.25,51,92.0
6278,E-4,252.25,0.25,51,92.0
6279,B-4,252.25,0.25,51,92.0
6280,F#6,252.25,1/5,127,92.0
6281,F#5,252.25,1/5,127,92.0
6282,G5,252.5,1/5,127,92.0
6283,F#2,252.5,0.25,80,92.0
6284,D4,252.5,0.25,80,92.0
6285,B-4,252.5,0.25,80,92.0
6286,G6,252.5,1/5,127,92.0
6287,G5,252.5,1/5,127,92.0
6288,A5,252.75,1/5,127,92.0
6289,B1,252.75,0.25,57,92.0
6290,F#2,252.75,0.25,57,92.0
6291,B-4,252.75,0.25,57,92.0
6292,A6,252.75,1/5,127,92.0
6293,A5,252.75,1/5,127,92.0
6294,B5,253.0,1/5,127,92.0
6295,D2,253.0,0.25,86,92.0
6296,F#2,253.0,0.25,86,92.0
6297,E-2,253.0,0.25,86,92.0
6298,B-4,253.0,0.25,86,92.0
6299,A4,253.0,0.25,86,92.0
6300,B6,253.0,1/5,127,92.0
6301,B5,253.0,1/5,127,92.0
6302,G5,253.25,1/5,127,92.0
6303,F#2,253.25,0.25,59,92.0
6304,D4,253.25,0.25,59,92.0
6305,B-4,253.25,0.25,59,92.0
6306,A4,253.25,0.25,59,92.0
6307,G6,253.25,1/5,127,92.0
6308,G5,253.25,1/5,127,92.0
6309,F#5,253.5,1/5,127,92.0
6310,F#2,253.5,0.25,58,92.0
6311,E-4,253.5,0.25,58,92.0
6312,B-4,253.5,0.25,58,92.0
6313,A4,253.5,0.25,58,92.0
6314,F#6,253.5,1/5,127,92.0
6315,F#5,253.5,1/5,127,92.0
6316,G2,253.75,83/1000,68,92.0
6317,E5,253.75,1/5,127,92.0
6318,B1,253.75,0.25,65,92.0
6319,F#2,253.75,0.25,65,92.0
6320,E-4,253.75,0.25,65,92.0
6321,B-4,253.75,0.25,65,92.0
6322,E6,253.75,1/5,127,92.0
6323,E5,253.75,1/5,127,92.0
6324,G2,254.0,249/125,97,92.0
6325,D5,254.0,1/5,127,92.0
6326,F#2,254.0,0.25,80,92.0
6327,B-4,254.0,0.25,80,92.0
6328,D6,254.0,1/5,127,92.0
6329,D5,254.0,1/5,127,92.0
6330,C5,254.25,1/5,127,92.0
6331,F#2,254.25,0.25,48,92.0
6332,B-4,254.25,0.25,48,92.0
6333,C6,254.25,1/5,127,92.0
6334,C5,254.25,1/5,127,92.0
6335,B4,254.5,1/5,127,92.0
6336,F#2,254.5,0.25,80,92.0
6337,B-4,254.5,0.25,80,92.0
6338,B5,254.5,1/5,127,92.0
6339,B4,254.5,1/5,127,92.0
6340,G2,254.75,49/40,101,92.0
6341,A4,254.75,1/5,127,92.0
6342,B1,254.75,0.25,62,92.0
6343,F#2,254.75,0.25,62,92.0
6344,E-4,254.75,0.25,62,92.0
6345,B-4,254.75,0.25,62,92.0
6346,A5,254.75,1/5,127,92.0
6347,A4,254.75,1/5,127,92.0
6348,G3,255.0,39/40,109,92.0
6349,G4,255.0,1/5,127,92.0
6350,D2,255.0,0.25,85,92.0
6351,F#2,255.0,0.25,85,92.0
6352,D4,255.0,0.25,85,92.0
6353,E-2,255.0,0.25,85,92.0
6354,B-4,255.0,0.25,85,92.0
6355,A4,255.0,0.25,85,92.0
6356,G5,255.0,1/5,127,92.0
6357,G4,255.0,1/5,127,92.0
6358,B3,255.25,29/40,96,92.0
6359,F#4,255.25,1/5,127,92.0
6360,D2,255.25,0.25,49,92.0
6361,F#2,255.25,0.25,49,92.0
6362,D4,255.25,0.25,49,92.0
6363,E-2,255.25,0.25,49,92.0
6364,B-4,255.25,0.25,49,92.0
6365,A4,255.25,0.25,49,92.0
6366,F#5,255.25,1/5,127,92.0
6367,F#4,255.25,1/5,127,92.0
6368,F#4,255.5,19/40,60,92.0
6369,F4,255.5,1/5,127,92.0
6370,B1,255.5,0.25,66,92.0
6371,F#2,255.5,0.25,66,92.0
6372,E-4,255.5,0.25,66,92.0
6373,B-4,255.5,0.25,66,92.0
6374,A4,255.5,0.25,66,92.0
6375,F5,255.5,1/5,127,92.0
6376,F4,255.5,1/5,127,92.0
6377,G4,255.525,1421/500,56,92.0
6378,E-4,255.525,1421/500,56,92.0
6379,C4,255.525,1421/500,56,92.0
6380,B-4,255.525,1421/500,56,92.0
6381,A4,255.75,9/40,77,92.0
6382,E4,255.75,1/5,127,92.0
6383,F#2,255.75,0.25,44,92.0
6384,E-4,255.75,0.25,44,92.0
6385,B-4,255.75,0.25,44,92.0
6386,E5,255.75,1/5,127,92.0
6387,E4,255.75,1/5,127,92.0
6388,F2,256.0,779/500,97,92.0
6389,G#3,256.0,103/40,48,92.0
6390,F2,256.0,4.0,71,92.0
6391,B1,256.0,0.25,85,92.0
6392,F#2,256.0,0.25,85,92.0
6393,E-4,256.0,0.25,85,92.0
6394,B-4,256.0,0.25,85,92.0
6395,F4,256.0,1379/500,62,92.0
6396,E-4,256.0,1379/500,62,92.0
6397,F#2,256.25,0.25,50,92.0
6398,E-4,256.25,0.25,50,92.0
6399,B-4,256.25,0.25,50,92.0
6400,F4,256.275,13/40,78,92.0
6401,F5,256.275,13/40,78,92.0
6402,F4,256.275,13/40,78,92.0
6403,G#4,256.5,24/125,109,92.0
6404,F#2,256.5,0.25,80,92.0
6405,D4,256.5,0.25,80,92.0
6406,B-4,256.5,0.25,80,92.0
6407,G#5,256.5,24/125,109,92.0
6408,G#4,256.5,24/125,109,92.0
6409,B-4,256.742,167/1000,80,92.0
6410,B-5,256.742,167/1000,80,92.0
6411,B-4,256.742,167/1000,80,92.0
6412,F#2,256.75,0.25,40,92.0
6413,B-4,256.75,0.25,40,92.0
6414,D2,257.0,0.25,86,92.0
6415,F#2,257.0,0.25,86,92.0
6416,E-2,257.0,0.25,86,92.0
6417,B-4,257.0,0.25,86,92.0
6418,A4,257.0,0.25,86,92.0
6419,C5,257.008,24/125,95,92.0
6420,C6,257.008,24/125,95,92.0
6421,C5,257.008,24/125,95,92.0
6422,F4,257.2,433/1000,73,92.0
6423,F5,257.2,433/1000,73,92.0
6424,F4,257.2,433/1000,73,92.0
6425,F#2,257.25,0.25,64,92.0
6426,D4,257.25,0.25,64,92.0
6427,B-4,257.25,0.25,64,92.0
6428,A4,257.25,0.25,64,92.0
6429,G#4,257.483,233/1000,114,92.0
6430,G#5,257.483,233/1000,114,92.0
6431,G#4,257.483,233/1000,114,92.0
6432,F#2,257.5,0.25,58,92.0
6433,E-4,257.5,0.25,58,92.0
6434,B-4,257.5,0.25,58,92.0
6435,A4,257.5,0.25,58,92.0
6436,C5,257.742,129/500,124,92.0
6437,C6,257.742,129/500,124,92.0
6438,C5,257.742,129/500,124,92.0
6439,F2,257.75,71/500,90,92.0
6440,B1,257.75,0.25,62,92.0
6441,F#2,257.75,0.25,62,92.0
6442,E-4,257.75,0.25,62,92.0
6443,B-4,257.75,0.25,62,92.0
6444,F2,258.0,1817/1000,90,92.0
6445,F4,258.0,417/1000,70,92.0
6446,B1,258.0,0.25,83,92.0
6447,F#2,258.0,0.25,83,92.0
6448,B-4,258.0,0.25,83,92.0
6449,F5,258.0,417/1000,70,92.0
6450,F4,258.0,417/1000,70,92.0
6451,F3,258.25,1.75,94,92.0
6452,G#4,258.25,73/250,56,92.0
6453,F#2,258.25,0.25,55,92.0
6454,B-4,258.25,0.25,55,92.0
6455,G#5,258.25,73/250,56,92.0
6456,G#4,258.25,73/250,56,92.0
6457,B-4,258.492,11/40,104,92.0
6458,B-5,258.492,11/40,104,92.0
6459,B-4,258.492,11/40,104,92.0
6460,F#2,258.5,0.25,75,92.0
6461,B-4,258.5,0.25,75,92.0
6462,G4,258.525,1.0,41,92.0
6463,F#2,258.75,0.25,53,92.0
6464,E-4,258.75,0.25,53,92.0
6465,B-4,258.75,0.25,53,92.0
6466,G#3,258.758,621/500,85,92.0
6467,F4,258.767,77/250,76,92.0
6468,F5,258.767,77/250,76,92.0
6469,F4,258.767,77/250,76,92.0
6470,B-4,259.0,267/1000,80,92.0
6471,D2,259.0,0.25,85,92.0
6472,F#2,259.0,0.25,85,92.0
6473,D4,259.0,0.25,85,92.0
6474,E-2,259.0,0.25,85,92.0
6475,B-4,259.0,0.25,85,92.0
6476,A4,259.0,0.25,85,92.0
6477,B-5,259.0,267/1000,80,92.0
6478,B-4,259.0,267/1000,80,92.0
6479,E-4,259.25,0.75,68,92.0
6480,D2,259.25,0.25,50,92.0
6481,F#2,259.25,0.25,50,92.0
6482,D4,259.25,0.25,50,92.0
6483,E-2,259.25,0.25,50,92.0
6484,B-4,259.25,0.25,50,92.0
6485,A4,259.25,0.25,50,92.0
6486,C5,259.283,26/125,68,92.0
6487,C6,259.283,26/125,68,92.0
6488,C5,259.283,26/125,68,92.0
6489,F4,259.5,0.5,74,92.0
6490,F#2,259.5,0.25,66,92.0
6491,E-4,259.5,0.25,66,92.0
6492,B-4,259.5,0.25,66,92.0
6493,A4,259.5,0.25,66,92.0
6494,D5,259.525,23/250,67,92.0
6495,F#4,259.525,4.0,59,92.0
6496,D4,259.525,4.0,59,92.0
6497,B3,259.525,4.0,59,92.0
6498,A4,259.525,4.0,59,92.0
6499,D6,259.525,23/250,67,92.0
6500,D5,259.525,23/250,67,92.0
6501,E-5,259.608,0.375,66,92.0
6502,E-6,259.608,0.375,66,92.0
6503,E-5,259.608,0.375,66,92.0
6504,C2,259.75,24/125,90,92.0
6505,B1,259.75,0.25,55,92.0
6506,F#2,259.75,0.25,55,92.0
6507,E-4,259.75,0.25,55,92.0
6508,B-4,259.75,0.25,55,92.0
6509,B-1,260.0,1717/1000,97,92.0
6510,G#3,260.0,326/125,63,92.0
6511,F4,260.0,3217/1000,81,92.0
6512,E-4,260.0,2867/1000,77,92.0
6513,B-2,260.0,19/5,77,92.0
6514,B1,260.0,0.25,85,92.0
6515,F#2,260.0,0.25,85,92.0
6516,E-4,260.0,0.25,85,92.0
6517,B-4,260.0,0.25,85,92.0
6518,F#2,260.25,0.25,52,92.0
6519,E-4,260.25,0.25,52,92.0
6520,B-4,260.25,0.25,52,92.0
6521,F#5,260.275,3/20,82,92.0
6522,F#6,260.275,3/20,82,92.0
6523,F#5,260.275,3/20,82,92.0
6524,B-2,260.5,0.25,83,92.0
6525,D4,260.5,0.25,83,92.0
6526,B-4,260.5,0.25,83,92.0
6527,F5,260.733,217/1000,98,92.0
6528,F6,260.733,217/1000,98,92.0
6529,F5,260.733,217/1000,98,92.0
6530,B-4,260.75,0.25,40,92.0
6531,F#2,261.0,0.25,68,92.0
6532,C3,261.0,0.25,68,92.0
6533,E-2,261.0,0.25,68,92.0
6534,B-4,261.0,0.25,68,92.0
6535,A4,261.0,0.25,68,92.0
6536,E-5,261.008,179/500,68,92.0
6537,E-6,261.008,179/500,68,92.0
6538,E-5,261.008,179/500,68,92.0
6539,F#2,261.25,0.25,59,92.0
6540,D4,261.25,0.25,59,92.0
6541,B-4,261.25,0.25,59,92.0
6542,A4,261.25,0.25,59,92.0
6543,F#2,261.5,0.25,58,92.0
6544,E-4,261.5,0.25,58,92.0
6545,B-4,261.5,0.25,58,92.0
6546,A4,261.5,0.25,58,92.0
6547,C5,261.55,283/1000,68,92.0
6548,C6,261.55,283/1000,68,92.0
6549,C5,261.55,283/1000,68,92.0
6550,B-1,261.75,71/500,97,92.0
6551,A2,261.75,0.25,73,92.0
6552,E-4,261.75,0.25,73,92.0
6553,B-4,261.75,0.25,73,92.0
6554,B-4,261.808,13/40,66,92.0
6555,B-5,261.808,13/40,66,92.0
6556,B-4,261.808,13/40,66,92.0
6557,B-1,262.0,1517/1000,81,92.0
6558,F#2,262.0,0.25,80,92.0
6559,B-4,262.0,0.25,80,92.0
6560,F3,262.25,1483/1000,77,92.0
6561,F#2,262.25,0.25,48,92.0
6562,B-4,262.25,0.25,48,92.0
6563,G#4,262.325,333/1000,62,92.0
6564,G#5,262.325,333/1000,62,92.0
6565,G#4,262.325,333/1000,62,92.0
6566,F#2,262.5,0.25,75,92.0
6567,B-4,262.5,0.25,75,92.0
6568,G#3,262.75,41/40,90,92.0
6569,D2,262.75,0.25,67,92.0
6570,E-4,262.75,0.25,67,92.0
6571,B-4,262.75,0.25,67,92.0
6572,G4,262.858,73/250,43,92.0
6573,G5,262.858,73/250,43,92.0
6574,G4,262.858,73/250,43,92.0
6575,D2,263.0,0.25,86,92.0
6576,D4,263.0,0.25,86,92.0
6577,E-2,263.0,0.25,86,92.0
6578,B-4,263.0,0.25,86,92.0
6579,A4,263.0,0.25,86,92.0
6580,E-4,263.25,517/1000,60,92.0
6581,D2,263.25,0.25,48,92.0
6582,D4,263.25,0.25,48,92.0
6583,E-2,263.25,0.25,48,92.0
6584,B-4,263.25,0.25,48,92.0
6585,A4,263.25,0.25,48,92.0
6586,F4,263.325,233/1000,60,92.0
6587,F5,263.325,233/1000,60,92.0
6588,F4,263.325,233/1000,60,92.0
6589,F1,263.5,79/500,71,92.0
6590,F4,263.5,267/1000,81,92.0
6591,F#2,263.5,0.25,63,92.0
6592,E-4,263.5,0.25,63,92.0
6593,B-4,263.5,0.25,63,92.0
6594,A4,263.5,0.25,63,92.0
6595,G1,263.75,0.25,60,92.0
6596,B1,263.75,0.25,68,92.0
6597,B-2,263.75,0.25,68,92.0
6598,E-4,263.75,0.25,68,92.0
6599,B-4,263.75,0.25,68,92.0
6600,E-4,263.775,3/20,82,92.0
6601,E-5,263.775,3/20,82,92.0
6602,E-4,263.775,3/20,82,92.0
6603,E-2,264.0,183/1000,87,92.0
6604,B1,264.0,0.25,84,92.0
6605,F#2,264.0,0.25,84,92.0
6606,C#3,264.0,0.25,84,92.0
6607,E-4,264.0,0.25,84,92.0
6608,B-4,264.0,0.25,84,92.0
6609,E-2,264.25,26/125,97,92.0
6610,E-2,264.25,3667/1000,68,92.0
6611,D4,264.25,26/125,67,92.0
6612,F#2,264.25,0.25,53,92.0
6613,E-4,264.25,0.25,53,92.0
6614,B-4,264.25,0.25,53,92.0
6615,E-3,264.5,1679/500,74,92.0
6616,E-4,264.5,217/1000,124,92.0
6617,B-2,264.5,0.25,83,92.0
6618,D4,264.5,0.25,83,92.0
6619,B-4,264.5,0.25,83,92.0
6620,D4,264.733,79/500,60,92.0
6621,B-4,264.75,0.25,40,92.0
6622,F4,264.75,3033/1000,62,92.0
6623,D4,264.75,3033/1000,62,92.0
6624,G3,264.75,3033/1000,62,92.0
6625,F#2,265.0,0.25,85,92.0
6626,C#2,265.0,0.25,85,92.0
6627,B-4,265.0,0.25,85,92.0
6628,A4,265.0,0.25,85,92.0
6629,D4,265.033,129/500,109,92.0
6630,B-1,265.25,183/1000,63,92.0
6631,F#2,265.25,0.25,64,92.0
6632,D4,265.25,0.25,64,92.0
6633,B-4,265.25,0.25,64,92.0
6634,A4,265.25,0.25,64,92.0
6635,B-3,265.258,3/20,73,92.0
6636,D2,265.5,79/500,85,92.0
6637,F#2,265.5,0.25,53,92.0
6638,E-4,265.5,0.25,53,92.0
6639,B-4,265.5,0.25,53,92.0
6640,A4,265.5,0.25,53,92.0
6641,G3,265.725,171/500,71,92.0
6642,E-2,265.75,7/40,65,92.0
6643,F#2,265.75,0.25,51,92.0
6644,E-4,265.75,0.25,51,92.0
6645,B-4,265.75,0.25,51,92.0
6646,F2,266.0,7/20,74,92.0
6647,E-4,266.0,1/5,114,92.0
6648,F#2,266.0,0.25,80,92.0
6649,B-4,266.0,0.25,80,92.0
6650,G2,266.25,0.125,94,92.0
6651,F#2,266.25,0.25,55,92.0
6652,B-4,266.25,0.25,55,92.0
6653,D4,266.275,1/5,104,92.0
6654,G#2,266.5,1/5,74,92.0
6655,F#2,266.5,0.25,65,92.0
6656,B-4,266.5,0.25,65,92.0
6657,F#4,266.525,3.0,59,92.0
6658,D4,266.525,3.0,59,92.0
6659,B3,266.525,3.0,59,92.0
6660,A4,266.525,3.0,59,92.0
6661,B-3,266.533,267/1000,68,92.0
6662,G2,266.75,483/1000,81,92.0
6663,F#2,266.75,0.25,47,92.0
6664,E-4,266.75,0.25,47,92.0
6665,B-4,266.75,0.25,47,92.0
6666,G3,266.783,9/40,71,92.0
6667,E-4,266.983,11/40,124,92.0
6668,F#2,267.0,0.25,84,92.0
6669,C#2,267.0,0.25,84,92.0
6670,D4,267.0,0.25,84,92.0
6671,B-4,267.0,0.25,84,92.0
6672,A4,267.0,0.25,84,92.0
6673,F2,267.25,233/1000,87,92.0
6674,F#2,267.25,0.25,55,92.0
6675,D4,267.25,0.25,55,92.0
6676,B-4,267.25,0.25,55,92.0
6677,A4,267.25,0.25,55,92.0
6678,D4,267.258,167/1000,91,92.0
6679,E-2,267.5,77/250,84,92.0
6680,B1,267.5,0.25,66,92.0
6681,F#2,267.5,0.25,66,92.0
6682,E-4,267.5,0.25,66,92.0
6683,B-4,267.5,0.25,66,92.0
6684,A4,267.5,0.25,66,92.0
6685,B-3,267.517,171/500,22,92.0
6686,F#2,267.75,0.25,41,92.0
6687,E-4,267.75,0.25,41,92.0
6688,B-4,267.75,0.25,41,92.0
6689,D4,267.783,1/5,95,92.0
6690,F2,268.0,7/40,97,92.0
6691,B1,268.0,0.25,85,92.0
6692,F#2,268.0,0.25,85,92.0
6693,E-4,268.0,0.25,85,92.0
6694,B-4,268.0,0.25,85,92.0
6695,F3,268.05,49/125,58,92.0
6696,F2,268.25,483/1000,94,92.0
6697,F2,268.25,3667/1000,68,92.0
6698,F#2,268.25,0.25,53,92.0
6699,E-4,268.25,0.25,53,92.0
6700,B-4,268.25,0.25,53,92.0
6701,F3,268.5,1679/500,74,92.0
6702,B-2,268.5,0.25,83,92.0
6703,D4,268.5,0.25,83,92.0
6704,B-4,268.5,0.25,83,92.0
6705,B-4,268.75,0.25,40,92.0
6706,F4,268.75,3033/1000,62,92.0
6707,E-4,268.75,3033/1000,62,92.0
6708,G#3,268.75,3033/1000,62,92.0
6709,F#2,269.0,0.25,85,92.0
6710,C#2,269.0,0.25,85,92.0
6711,B-4,269.0,0.25,85,92.0
6712,A4,269.0,0.25,85,92.0
6713,F#2,269.25,0.25,62,92.0
6714,D4,269.25,0.25,62,92.0
6715,B-4,269.25,0.25,62,92.0
6716,A4,269.25,0.25,62,92.0
6717,F3,269.275,367/1000,61,92.0
6718,F#2,269.5,0.25,53,92.0
6719,E-4,269.5,0.25,53,92.0
6720,B-4,269.5,0.25,53,92.0
6721,A4,269.5,0.25,53,92.0
6722,B3,269.525,1.0,44,92.0
6723,G#3,269.533,3/10,67,92.0
6724,B-3,269.75,183/1000,68,92.0
6725,F#2,269.75,0.25,51,92.0
6726,E-4,269.75,0.25,51,92.0
6727,B-4,269.75,0.25,51,92.0
6728,C4,269.983,283/1000,82,92.0
6729,F#2,270.0,0.25,82,92.0
6730,B-4,270.0,0.25,82,92.0
6731,F#4,270.025,0.5,59,92.0
6732,F#2,270.25,0.25,55,92.0
6733,B-4,270.25,0.25,55,92.0
6734,E-4,270.258,11/40,82,92.0
6735,F4,270.5,129/500,73,92.0
6736,F#2,270.5,0.25,60,92.0
6737,B-4,270.5,0.25,60,92.0
6738,G#3,270.75,267/1000,102,92.0
6739,F#2,270.75,0.25,47,92.0
6740,E-4,270.75,0.25,47,92.0
6741,B-4,270.75,0.25,47,92.0
6742,G4,270.767,7/40,85,92.0
6743,F#2,271.0,0.25,84,92.0
6744,C#2,271.0,0.25,84,92.0
6745,D4,271.0,0.25,84,92.0
6746,B-4,271.0,0.25,84,92.0
6747,A4,271.0,0.25,84,92.0
6748,G3,271.017,13/40,77,92.0
6749,G#4,271.042,3/10,73,92.0
6750,C2,271.25,7/20,94,92.0
6751,F#2,271.25,0.25,55,92.0
6752,D4,271.25,0.25,55,92.0
6753,B-4,271.25,0.25,55,92.0
6754,A4,271.25,0.25,55,92.0
6755,B-4,271.292,83/1000,64,92.0
6756,E-2,271.5,283/1000,96,92.0
6757,F#2,271.5,0.25,60,92.0
6758,E-4,271.5,0.25,60,92.0
6759,B-4,271.5,0.25,60,92.0
6760,A4,271.5,0.25,60,92.0
6761,E-4,271.525,3.0,54,92.0
6762,G#3,271.525,3.0,54,92.0
6763,F4,271.525,3.0,54,92.0
6764,C5,271.542,0.125,78,92.0
6765,F2,271.75,7/40,113,92.0
6766,B1,271.75,0.25,50,92.0
6767,F#2,271.75,0.25,50,92.0
6768,E-4,271.75,0.25,50,92.0
6769,B-4,271.75,0.25,50,92.0
6770,D5,271.758,26/125,68,92.0
6771,C5,271.775,21/500,71,92.0
6772,F#5,271.992,1/125,78,92.0
6773,G2,272.0,7/40,90,92.0
6774,B-3,272.0,326/125,63,92.0
6775,G4,272.0,3217/1000,81,92.0
6776,F4,272.0,2867/1000,77,92.0
6777,G2,272.0,19/5,77,92.0
6778,F#5,272.0,317/1000,78,92.0
6779,B1,272.0,0.25,85,92.0
6780,F#2,272.0,0.25,85,92.0
6781,E-4,272.0,0.25,85,92.0
6782,B-4,272.0,0.25,85,92.0
6783,G2,272.25,217/1000,94,92.0
6784,F#2,272.25,0.25,53,92.0
6785,E-4,272.25,0.25,53,92.0
6786,B-4,272.25,0.25,53,92.0
6787,G5,272.267,13/40,124,92.0
6788,B-2,272.5,0.25,83,92.0
6789,D4,272.5,0.25,83,92.0
6790,B-4,272.5,0.25,83,92.0
6791,F5,272.508,21/40,98,92.0
6792,B-4,272.75,0.25,40,92.0
6793,D5,273.0,73/250,68,92.0
6794,F#2,273.0,0.25,85,92.0
6795,C#2,273.0,0.25,85,92.0
6796,B-4,273.0,0.25,85,92.0
6797,A4,273.0,0.25,85,92.0
6798,G2,273.25,3/20,77,92.0
6799,F#2,273.25,0.25,64,92.0
6800,D4,273.25,0.25,64,92.0
6801,B-4,273.25,0.25,64,92.0
6802,A4,273.25,0.25,64,92.0
6803,C5,273.3,117/1000,50,92.0
6804,A2,273.5,7/40,74,92.0
6805,F#2,273.5,0.25,53,92.0
6806,E-4,273.5,0.25,53,92.0
6807,B-4,273.5,0.25,53,92.0
6808,A4,273.5,0.25,53,92.0
6809,B-2,273.75,3/20,90,92.0
6810,F#2,273.75,0.25,51,92.0
6811,E-4,273.75,0.25,51,92.0
6812,B-4,273.75,0.25,51,92.0
6813,C5,273.8,283/1000,50,92.0
6814,C#5,273.808,26/125,56,92.0
6815,D5,273.983,171/500,71,92.0
6816,F#2,274.0,0.25,80,92.0
6817,B-4,274.0,0.25,80,92.0
6818,B-2,274.25,71/500,71,92.0
6819,G3,274.25,1483/1000,77,92.0
6820,F#2,274.25,0.25,55,92.0
6821,B-4,274.25,0.25,55,92.0
6822,C#5,274.258,283/1000,82,92.0
6823,C5,274.475,129/500,76,92.0
6824,A2,274.5,71/500,84,92.0
6825,F#2,274.5,0.25,65,92.0
6826,B-4,274.5,0.25,65,92.0
6827,G#4,274.525,57/20,47,92.0
6828,F4,274.525,57/20,47,92.0
6829,E-4,274.525,57/20,47,92.0
6830,C5,274.525,57/20,47,92.0
6831,G2,274.75,3/20,90,92.0
6832,B-3,274.75,41/40,90,92.0
6833,F#2,274.75,0.25,47,92.0
6834,E-4,274.75,0.25,47,92.0
6835,B-4,274.75,0.25,47,92.0
6836,B-4,274.767,183/1000,58,92.0
6837,F2,275.0,123/250,102,92.0
6838,F#2,275.0,0.25,84,92.0
6839,C#2,275.0,0.25,84,92.0
6840,D4,275.0,0.25,84,92.0
6841,B-4,275.0,0.25,84,92.0
6842,A4,275.0,0.25,84,92.0
6843,G4,275.033,383/1000,48,92.0
6844,F4,275.25,517/1000,60,92.0
6845,F#2,275.25,0.25,55,92.0
6846,D4,275.25,0.25,55,92.0
6847,B-4,275.25,0.25,55,92.0
6848,A4,275.25,0.25,55,92.0
6849,G2,275.5,283/1000,94,92.0
6850,G4,275.5,267/1000,81,92.0
6851,B1,275.5,0.25,66,92.0
6852,F#2,275.5,0.25,66,92.0
6853,E-4,275.5,0.25,66,92.0
6854,B-4,275.5,0.25,66,92.0
6855,A4,275.5,0.25,66,92.0
6856,F#2,275.75,0.25,41,92.0
6857,E-4,275.75,0.25,41,92.0
6858,B-4,275.75,0.25,41,92.0
6859,A1,276.0,167/1000,81,92.0
6860,B1,276.0,0.25,85,92.0
6861,F#2,276.0,0.25,85,92.0
6862,E-4,276.0,0.25,85,92.0
6863,B-4,276.0,0.25,85,92.0
6864,G4,276.0,7/40,68,92.0
6865,E4,276.0,7/40,68,92.0
6866,C4,276.0,7/40,68,92.0
6867,A4,276.0,7/40,68,92.0
6868,G4,276.042,3/10,63,92.0
6869,A1,276.25,26/125,90,92.0
6870,F#2,276.25,0.25,52,92.0
6871,E-4,276.25,0.25,52,92.0
6872,B-4,276.25,0.25,52,92.0
6873,G4,276.25,0.125,81,92.0
6874,E4,276.25,0.125,81,92.0
6875,C4,276.25,0.125,81,92.0
6876,A4,276.25,0.125,81,92.0
6877,A4,276.267,171/500,78,92.0
6878,B-2,276.5,0.25,83,92.0
6879,D4,276.5,0.25,83,92.0
6880,B-4,276.5,0.25,83,92.0
6881,D5,276.508,73/250,104,92.0
6882,B-4,276.75,0.25,40,92.0
6883,C5,276.767,0.25,85,92.0
6884,F#2,277.0,0.25,68,92.0
6885,C3,277.0,0.25,68,92.0
6886,E-2,277.0,0.25,68,92.0
6887,B-4,277.0,0.25,68,92.0
6888,A4,277.0,0.25,68,92.0
6889,A4,277.017,7/20,45,92.0
6890,E1,277.25,217/1000,94,92.0
6891,F#2,277.25,0.25,59,92.0
6892,D4,277.25,0.25,59,92.0
6893,B-4,277.25,0.25,59,92.0
6894,A4,277.25,0.25,59,92.0
6895,A1,277.5,121/500,65,92.0
6896,F#2,277.5,0.25,58,92.0
6897,E-4,277.5,0.25,58,92.0
6898,B-4,277.5,0.25,58,92.0
6899,A4,277.5,0.25,58,92.0
6900,E-4,277.525,1.0,50,92.0
6901,C2,277.75,26/125,105,92.0
6902,A2,277.75,0.25,73,92.0
6903,E-4,277.75,0.25,73,92.0
6904,B-4,277.75,0.25,73,92.0
6905,C4,277.792,11/40,63,92.0
6906,D2,278.0,183/1000,94,92.0
6907,D4,278.0,7/20,70,92.0
6908,F#2,278.0,0.25,80,92.0
6909,B-4,278.0,0.25,80,92.0
6910,D2,278.25,217/1000,94,92.0
6911,D3,278.25,1.75,74,92.0
6912,F#2,278.25,0.25,48,92.0
6913,B-4,278.25,0.25,48,92.0
6914,G4,278.292,129/500,82,92.0
6915,A3,278.5,1.5,74,92.0
6916,F#2,278.5,0.25,75,92.0
6917,B-4,278.5,0.25,75,92.0
6918,F4,278.525,4.0,45,92.0
6919,D4,278.525,4.0,45,92.0
6920,B-3,278.525,4.0,45,92.0
6921,G4,278.525,4.0,45,92.0
6922,A4,278.55,11/40,114,92.0
6923,D2,278.75,0.25,67,92.0
6924,E-4,278.75,0.25,67,92.0
6925,B-4,278.75,0.25,67,92.0
6926,C4,278.75,1.25,56,92.0
6927,A4,278.75,1.25,56,92.0
6928,G4,278.75,1.25,56,92.0
6929,G4,278.775,233/1000,88,92.0
6930,D2,279.0,0.25,86,92.0
6931,D4,279.0,0.25,86,92.0
6932,E-2,279.0,0.25,86,92.0
6933,B-4,279.0,0.25,86,92.0
6934,A4,279.0,0.25,86,92.0
6935,C4,279.092,27/250,54,92.0
6936,D2,279.25,0.25,48,92.0
6937,D4,279.25,0.25,48,92.0
6938,E-2,279.25,0.25,48,92.0
6939,B-4,279.25,0.25,48,92.0
6940,A4,279.25,0.25,48,92.0
6941,D4,279.283,267/1000,91,92.0
6942,E4,279.283,27/250,88,92.0
6943,B-3,279.5,1/5,71,92.0
6944,F#2,279.5,0.25,63,92.0
6945,E-4,279.5,0.25,63,92.0
6946,B-4,279.5,0.25,63,92.0
6947,A4,279.5,0.25,63,92.0
6948,D2,279.75,1/5,90,92.0
6949,B1,279.75,0.25,68,92.0
6950,B-2,279.75,0.25,68,92.0
6951,E-4,279.75,0.25,68,92.0
6952,B-4,279.75,0.25,68,92.0
6953,C4,279.767,9/40,67,92.0
6954,E-2,280.0,7/40,90,92.0
6955,G3,280.0,326/125,63,92.0
6956,F4,280.0,3217/1000,81,92.0
6957,D4,280.0,2867/1000,77,92.0
6958,E-2,280.0,19/5,77,92.0
6959,B1,280.0,0.25,84,92.0
6960,F#2,280.0,0.25,84,92.0
6961,C#3,280.0,0.25,84,92.0
6962,E-4,280.0,0.25,84,92.0
6963,B-4,280.0,0.25,84,92.0
6964,E-4,280.033,129/500,127,92.0
6965,E-2,280.25,217/1000,94,92.0
6966,F#2,280.25,0.25,53,92.0
6967,E-4,280.25,0.25,53,92.0
6968,B-4,280.25,0.25,53,92.0
6969,D4,280.267,26/125,95,92.0
6970,B-3,280.492,217/1000,66,92.0
6971,B-2,280.5,0.25,83,92.0
6972,D4,280.5,0.25,83,92.0
6973,B-4,280.5,0.25,83,92.0
6974,B-4,280.75,0.25,40,92.0
6975,G3,280.792,883/1000,80,92.0
6976,F#2,281.0,0.25,85,92.0
6977,C#2,281.0,0.25,85,92.0
6978,B-4,281.0,0.25,85,92.0
6979,A4,281.0,0.25,85,92.0
6980,E-2,281.25,3/20,77,92.0
6981,F#2,281.25,0.25,64,92.0
6982,D4,281.25,0.25,64,92.0
6983,B-4,281.25,0.25,64,92.0
6984,A4,281.25,0.25,64,92.0
6985,F2,281.5,7/40,74,92.0
6986,F#2,281.5,0.25,53,92.0
6987,E-4,281.5,0.25,53,92.0
6988,B-4,281.5,0.25,53,92.0
6989,A4,281.5,0.25,53,92.0
6990,G3,281.717,79/500,53,92.0
6991,G2,281.75,3/20,90,92.0
6992,F#2,281.75,0.25,51,92.0
6993,E-4,281.75,0.25,51,92.0
6994,B-4,281.75,0.25,51,92.0
6995,F#2,282.0,0.25,80,92.0
6996,B-4,282.0,0.25,80,92.0
6997,G3,282.017,9/40,54,92.0
6998,G2,282.25,71/500,71,92.0
6999,E-3,282.25,1483/1000,77,92.0
7000,F#2,282.25,0.25,55,92.0
7001,B-4,282.25,0.25,55,92.0
7002,B-3,282.258,133/1000,15,92.0
7003,D4,282.492,3/40,62,92.0
7004,F2,282.5,71/500,84,92.0
7005,F#2,282.5,0.25,65,92.0
7006,B-4,282.5,0.25,65,92.0
7007,F4,282.525,4.0,40,92.0
7008,E-4,282.525,4.0,40,92.0
7009,C4,282.525,4.0,40,92.0
7010,G#4,282.525,4.0,40,92.0
7011,E-2,282.75,3/20,90,92.0
7012,G3,282.75,41/40,90,92.0
7013,C4,282.75,183/1000,127,92.0
7014,F#2,282.75,0.25,47,92.0
7015,E-4,282.75,0.25,47,92.0
7016,B-4,282.75,0.25,47,92.0
7017,E-4,282.975,9/40,73,92.0
7018,D2,283.0,123/250,102,92.0
7019,F#2,283.0,0.25,84,92.0
7020,C#2,283.0,0.25,84,92.0
7021,D4,283.0,0.25,84,92.0
7022,B-4,283.0,0.25,84,92.0
7023,A4,283.0,0.25,84,92.0
7024,G4,283.233,71/500,68,92.0
7025,D4,283.25,517/1000,60,92.0
7026,F#2,283.25,0.25,55,92.0
7027,D4,283.25,0.25,55,92.0
7028,B-4,283.25,0.25,55,92.0
7029,A4,283.25,0.25,55,92.0
7030,E-2,283.5,283/1000,94,92.0
7031,F4,283.5,267/1000,81,92.0
7032,B1,283.5,0.25,66,92.0
7033,F#2,283.5,0.25,66,92.0
7034,E-4,283.5,0.25,66,92.0
7035,B-4,283.5,0.25,66,92.0
7036,A4,283.5,0.25,66,92.0
7037,A4,283.508,3/20,60,92.0
7038,G#4,283.733,267/1000,74,92.0
7039,F#2,283.75,0.25,41,92.0
7040,E-4,283.75,0.25,41,92.0
7041,B-4,283.75,0.25,41,92.0
7042,F2,284.0,79/500,97,92.0
7043,G#3,284.0,103/40,48,92.0
7044,F2,284.0,4.0,71,92.0
7045,G#4,284.0,33/1000,74,92.0
7046,B1,284.0,0.25,85,92.0
7047,F#2,284.0,0.25,85,92.0
7048,E-4,284.0,0.25,85,92.0
7049,B-4,284.0,0.25,85,92.0
7050,F4,284.0,1379/500,62,92.0
7051,E-4,284.0,1379/500,62,92.0
7052,B-4,284.008,7/40,68,92.0
7053,F2,284.25,3/20,101,92.0
7054,F#2,284.25,0.25,53,92.0
7055,E-4,284.25,0.25,53,92.0
7056,B-4,284.25,0.25,53,92.0
7057,C5,284.258,129/500,80,92.0
7058,B-2,284.5,0.25,83,92.0
7059,D4,284.5,0.25,83,92.0
7060,B-4,284.5,0.25,83,92.0
7061,E-5,284.542,267/1000,88,92.0
7062,F5,284.742,121/500,95,92.0
7063,B-4,284.75,0.25,40,92.0
7064,F#2,285.0,0.25,85,92.0
7065,C#2,285.0,0.25,85,92.0
7066,B-4,285.0,0.25,85,92.0
7067,A4,285.0,0.25,85,92.0
7068,G5,285.042,217/1000,98,92.0
7069,F2,285.25,71/500,97,92.0
7070,F#2,285.25,0.25,62,92.0
7071,D4,285.25,0.25,62,92.0
7072,B-4,285.25,0.25,62,92.0
7073,A4,285.25,0.25,62,92.0
7074,G#5,285.308,183/1000,95,92.0
7075,C2,285.5,79/500,65,92.0
7076,F#2,285.5,0.25,53,92.0
7077,E-4,285.5,0.25,53,92.0
7078,B-4,285.5,0.25,53,92.0
7079,A4,285.5,0.25,53,92.0
7080,B-5,285.683,77/250,124,92.0
7081,G#1,285.75,233/1000,90,92.0
7082,F#2,285.75,0.25,51,92.0
7083,E-4,285.75,0.25,51,92.0
7084,B-4,285.75,0.25,51,92.0
7085,F#2,286.0,0.25,80,92.0
7086,B-4,286.0,0.25,80,92.0
7087,G#5,286.025,233/1000,64,92.0
7088,G#1,286.25,217/1000,94,92.0
7089,F3,286.25,1.75,94,92.0
7090,F#2,286.25,0.25,55,92.0
7091,B-4,286.25,0.25,55,92.0
7092,G5,286.333,333/1000,74,92.0
7093,B-1,286.5,121/500,81,92.0
7094,F#2,286.5,0.25,65,92.0
7095,B-4,286.5,0.25,65,92.0
7096,F4,286.525,4.0,45,92.0
7097,D4,286.525,4.0,45,92.0
7098,B-3,286.525,4.0,45,92.0
7099,G4,286.525,4.0,45,92.0
7100,F5,286.65,3/10,80,92.0
7101,F#2,286.75,0.25,47,92.0
7102,E-4,286.75,0.25,47,92.0
7103,B-4,286.75,0.25,47,92.0
7104,G#3,286.758,621/500,85,92.0
7105,E-5,286.95,267/1000,62,92.0
7106,C2,287.0,17/40,90,92.0
7107,F#2,287.0,0.25,84,92.0
7108,C#2,287.0,0.25,84,92.0
7109,D4,287.0,0.25,84,92.0
7110,B-4,287.0,0.25,84,92.0
7111,A4,287.0,0.25,84,92.0
7112,E-4,287.25,0.75,68,92.0
7113,F#2,287.25,0.25,55,92.0
7114,D4,287.25,0.25,55,92.0
7115,B-4,287.25,0.25,55,92.0
7116,A4,287.25,0.25,55,92.0
7117,C5,287.342,77/250,91,92.0
7118,E-2,287.5,121/500,70,92.0
7119,F4,287.5,0.5,74,92.0
7120,F#2,287.5,0.25,60,92.0
7121,E-4,287.5,0.25,60,92.0
7122,B-4,287.5,0.25,60,92.0
7123,A4,287.5,0.25,60,92.0
7124,B-4,287.658,171/500,56,92.0
7125,F2,287.75,3/20,101,92.0
7126,B1,287.75,0.25,50,92.0
7127,F#2,287.75,0.25,50,92.0
7128,E-4,287.75,0.25,50,92.0
7129,B-4,287.75,0.25,50,92.0
7130,G2,288.0,7/40,97,92.0
7131,G2,288.0,4.0,65,92.0
7132,B-4,288.0,1/40,56,92.0
7133,B1,288.0,0.25,85,92.0
7134,F#2,288.0,0.25,85,92.0
7135,E-4,288.0,0.25,85,92.0
7136,B-4,288.0,0.25,85,92.0
7137,B-3,288.0,283/1000,73,92.0
7138,D4,288.0,283/1000,73,92.0
7139,F3,288.0,283/1000,73,92.0
7140,D5,288.008,517/1000,85,92.0
7141,G2,288.25,483/1000,94,92.0
7142,F#2,288.25,0.25,53,92.0
7143,E-4,288.25,0.25,53,92.0
7144,B-4,288.25,0.25,53,92.0
7145,D3,288.275,149/40,68,92.0
7146,B-2,288.5,0.25,83,92.0
7147,D4,288.5,0.25,83,92.0
7148,B-4,288.5,0.25,83,92.0
7149,B-3,288.5,71/500,38,92.0
7150,D4,288.5,71/500,38,92.0
7151,F3,288.5,71/500,38,92.0
7152,C5,288.525,183/1000,76,92.0
7153,B-4,288.75,0.25,40,92.0
7154,C4,288.75,183/1000,84,92.0
7155,F3,288.75,71/500,75,92.0
7156,A3,288.75,71/500,75,92.0
7157,B-4,288.783,0.25,68,92.0
7158,F#2,289.0,0.25,85,92.0
7159,C#2,289.0,0.25,85,92.0
7160,B-4,289.0,0.25,85,92.0
7161,A4,289.0,0.25,85,92.0
7162,G4,289.042,129/500,76,92.0
7163,F#2,289.25,0.25,64,92.0
7164,D4,289.25,0.25,64,92.0
7165,B-4,289.25,0.25,64,92.0
7166,A4,289.25,0.25,64,92.0
7167,B-3,289.25,2.75,65,92.0
7168,F3,289.25,2.75,65,92.0
7169,D4,289.25,2.75,65,92.0
7170,B-4,289.292,167/1000,68,92.0
7171,C5,289.5,1/5,127,92.0
7172,F#2,289.5,0.25,53,92.0
7173,E-4,289.5,0.25,53,92.0
7174,B-4,289.5,0.25,53,92.0
7175,A4,289.5,0.25,53,92.0
7176,E-5,289.75,1/5,127,92.0
7177,F#2,289.75,0.25,51,92.0
7178,E-4,289.75,0.25,51,92.0
7179,B-4,289.75,0.25,51,92.0
7180,D5,290.0,183/1000,127,92.0
7181,F#2,290.0,0.25,80,92.0
7182,B-4,290.0,0.25,80,92.0
7183,C5,290.25,1/5,127,92.0
7184,F#2,290.25,0.25,55,92.0
7185,B-4,290.25,0.25,55,92.0
7186,B-4,290.5,1/5,127,92.0
7187,F#2,290.5,0.25,65,92.0
7188,B-4,290.5,0.25,65,92.0
7189,G4,290.525,2.0,45,92.0
7190,E4,290.525,2.0,45,92.0
7191,C4,290.525,2.0,45,92.0
7192,A4,290.525,2.0,45,92.0
7193,B-3,290.75,267/1000,102,92.0
7194,A4,290.75,217/1000,127,92.0
7195,F#2,290.75,0.25,47,92.0
7196,E-4,290.75,0.25,47,92.0
7197,B-4,290.75,0.25,47,92.0
7198,F#2,291.0,0.25,84,92.0
7199,C#2,291.0,0.25,84,92.0
7200,D4,291.0,0.25,84,92.0
7201,B-4,291.0,0.25,84,92.0
7202,A4,291.0,0.25,84,92.0
7203,A3,291.017,13/40,77,92.0
7204,G4,291.025,383/1000,91,92.0
7205,D2,291.25,7/20,94,92.0
7206,F#2,291.25,0.25,55,92.0
7207,D4,291.25,0.25,55,92.0
7208,B-4,291.25,0.25,55,92.0
7209,A4,291.25,0.25,55,92.0
7210,E-4,291.275,79/500,71,92.0
7211,F2,291.5,283/1000,96,92.0
7212,B1,291.5,0.25,66,92.0
7213,F#2,291.5,0.25,66,92.0
7214,E-4,291.5,0.25,66,92.0
7215,B-4,291.5,0.25,66,92.0
7216,A4,291.5,0.25,66,92.0
7217,F4,291.533,26/125,68,92.0
7218,G2,291.75,7/40,113,92.0
7219,F#2,291.75,0.25,41,92.0
7220,E-4,291.75,0.25,41,92.0
7221,B-4,291.75,0.25,41,92.0
7222,D4,291.767,233/1000,65,92.0
7223,A1,292.0,183/1000,97,92.0
7224,D4,292.0,233/1000,65,92.0
7225,B1,292.0,0.25,85,92.0
7226,F#2,292.0,0.25,85,92.0
7227,E-4,292.0,0.25,85,92.0
7228,B-4,292.0,0.25,85,92.0
7229,G4,292.0,7/40,68,92.0
7230,E4,292.0,7/40,68,92.0
7231,C4,292.0,7/40,68,92.0
7232,A4,292.0,7/40,68,92.0
7233,A1,292.25,0.5,97,92.0
7234,F#2,292.25,0.25,52,92.0
7235,E-4,292.25,0.25,52,92.0
7236,B-4,292.25,0.25,52,92.0
7237,G4,292.25,0.125,81,92.0
7238,E4,292.25,0.125,81,92.0
7239,C4,292.25,0.125,81,92.0
7240,A4,292.25,0.125,81,92.0
7241,F#2,292.5,0.25,80,92.0
7242,D4,292.5,0.25,80,92.0
7243,B-4,292.5,0.25,80,92.0
7244,D4,292.517,11/40,62,92.0
7245,G4,292.525,2.0,45,92.0
7246,E4,292.525,2.0,45,92.0
7247,C4,292.525,2.0,45,92.0
7248,A4,292.525,2.0,45,92.0
7249,F#2,292.75,0.25,40,92.0
7250,B-4,292.75,0.25,40,92.0
7251,G4,292.792,77/250,62,92.0
7252,D2,293.0,0.25,85,92.0
7253,E-2,293.0,0.25,85,92.0
7254,B-4,293.0,0.25,85,92.0
7255,A4,293.0,0.25,85,92.0
7256,A4,293.042,13/40,70,92.0
7257,D2,293.25,0.25,65,92.0
7258,D4,293.25,0.25,65,92.0
7259,B-4,293.25,0.25,65,92.0
7260,A4,293.25,0.25,65,92.0
7261,C5,293.308,267/1000,91,92.0
7262,F#2,293.5,0.25,58,92.0
7263,E-4,293.5,0.25,58,92.0
7264,B-4,293.5,0.25,58,92.0
7265,A4,293.5,0.25,58,92.0
7266,D5,293.542,1/5,104,92.0
7267,D2,293.75,0.25,77,92.0
7268,E-4,293.75,0.25,77,92.0
7269,B-4,293.75,0.25,77,92.0
7270,D5,293.825,217/1000,91,92.0
7271,D2,294.0,167/1000,81,92.0
7272,F#2,294.0,0.25,80,92.0
7273,B-4,294.0,0.25,80,92.0
7274,G4,294.0,7/40,68,92.0
7275,E4,294.0,7/40,68,92.0
7276,C4,294.0,7/40,68,92.0
7277,A4,294.0,7/40,68,92.0
7278,D2,294.25,26/125,90,92.0
7279,D2,294.25,0.25,55,92.0
7280,B-4,294.25,0.25,55,92.0
7281,G4,294.25,0.125,81,92.0
7282,E4,294.25,0.125,81,92.0
7283,C4,294.25,0.125,81,92.0
7284,A4,294.25,0.125,81,92.0
7285,D5,294.258,171/500,91,92.0
7286,D2,294.5,0.25,85,92.0
7287,B-4,294.5,0.25,85,92.0
7288,F4,294.525,4.0,45,92.0
7289,D4,294.525,4.0,45,92.0
7290,B-3,294.525,4.0,45,92.0
7291,G4,294.525,4.0,45,92.0
7292,C3,294.75,0.25,70,92.0
7293,E-4,294.75,0.25,70,92.0
7294,B-4,294.75,0.25,70,92.0
7295,D4,294.758,123/250,98,92.0
7296,D2,295.0,0.25,84,92.0
7297,D4,295.0,0.25,84,92.0
7298,E-2,295.0,0.25,84,92.0
7299,B-4,295.0,0.25,84,92.0
7300,A4,295.0,0.25,84,92.0
7301,G4,295.208,221/500,82,92.0
7302,A1,295.25,217/1000,94,92.0
7303,D2,295.25,0.25,51,92.0
7304,D4,295.25,0.25,51,92.0
7305,E-2,295.25,0.25,51,92.0
7306,B-4,295.25,0.25,51,92.0
7307,A4,295.25,0.25,51,92.0
7308,D2,295.5,121/500,65,92.0
7309,C3,295.5,0.25,68,92.0
7310,E-4,295.5,0.25,68,92.0
7311,B-4,295.5,0.25,68,92.0
7312,A4,295.5,0.25,68,92.0
7313,A4,295.6,2/5,114,92.0
7314,G2,295.75,26/125,105,92.0
7315,B1,295.75,0.25,60,92.0
7316,E-4,295.75,0.25,60,92.0
7317,B-4,295.75,0.25,60,92.0
7318,E-2,296.0,829/500,90,92.0
7319,G3,296.0,103/40,48,92.0
7320,E-2,296.0,4.0,71,92.0
7321,A4,296.0,1/125,114,92.0
7322,B1,296.0,0.25,84,92.0
7323,F#2,296.0,0.25,84,92.0
7324,C#3,296.0,0.25,84,92.0
7325,E-4,296.0,0.25,84,92.0
7326,B-4,296.0,0.25,84,92.0
7327,F4,296.0,1379/500,62,92.0
7328,D4,296.0,1379/500,62,92.0
7329,B-4,296.042,421/500,71,92.0
7330,B-5,296.042,421/500,71,92.0
7331,B-4,296.042,421/500,71,92.0
7332,F#2,296.25,0.25,50,92.0
7333,E-4,296.25,0.25,50,92.0
7334,B-4,296.25,0.25,50,92.0
7335,F#2,296.5,0.25,80,92.0
7336,D4,296.5,0.25,80,92.0
7337,B-4,296.5,0.25,80,92.0
7338,F#2,296.75,0.25,40,92.0
7339,B-4,296.75,0.25,40,92.0
7340,B-4,296.992,467/1000,64,92.0
7341,B-5,296.992,467/1000,64,92.0
7342,B-4,296.992,467/1000,64,92.0
7343,D2,297.0,0.25,86,92.0
7344,F#2,297.0,0.25,86,92.0
7345,E-2,297.0,0.25,86,92.0
7346,B-4,297.0,0.25,86,92.0
7347,A4,297.0,0.25,86,92.0
7348,F#2,297.25,0.25,64,92.0
7349,D4,297.25,0.25,64,92.0
7350,B-4,297.25,0.25,64,92.0
7351,A4,297.25,0.25,64,92.0
7352,F#2,297.5,0.25,58,92.0
7353,E-4,297.5,0.25,58,92.0
7354,B-4,297.5,0.25,58,92.0
7355,A4,297.5,0.25,58,92.0
7356,B-4,297.525,17/40,57,92.0
7357,B-5,297.525,17/40,57,92.0
7358,B-4,297.525,17/40,57,92.0
7359,E-2,297.75,79/500,81,92.0
7360,B1,297.75,0.25,62,92.0
7361,F#2,297.75,0.25,62,92.0
7362,E-4,297.75,0.25,62,92.0
7363,B-4,297.75,0.25,62,92.0
7364,C5,297.792,783/1000,114,92.0
7365,C6,297.792,783/1000,114,92.0
7366,C5,297.792,783/1000,114,92.0
7367,E-2,298.0,427/250,84,92.0
7368,B1,298.0,0.25,83,92.0
7369,F#2,298.0,0.25,83,92.0
7370,B-4,298.0,0.25,83,92.0
7371,E-3,298.25,1.75,94,92.0
7372,F#2,298.25,0.25,55,92.0
7373,B-4,298.25,0.25,55,92.0
7374,B-4,298.308,221/500,80,92.0
7375,B-5,298.308,221/500,80,92.0
7376,B-4,298.308,221/500,80,92.0
7377,F#2,298.5,0.25,75,92.0
7378,B-4,298.5,0.25,75,92.0
7379,F4,298.525,4.0,40,92.0
7380,E-4,298.525,4.0,40,92.0
7381,C4,298.525,4.0,40,92.0
7382,G#4,298.525,4.0,40,92.0
7383,F#2,298.75,0.25,53,92.0
7384,E-4,298.75,0.25,53,92.0
7385,B-4,298.75,0.25,53,92.0
7386,G3,298.758,621/500,85,92.0
7387,A4,298.767,29/40,120,92.0
7388,A5,298.767,29/40,120,92.0
7389,A4,298.767,29/40,120,92.0
7390,D2,299.0,0.25,85,92.0
7391,F#2,299.0,0.25,85,92.0
7392,D4,299.0,0.25,85,92.0
7393,E-2,299.0,0.25,85,92.0
7394,B-4,299.0,0.25,85,92.0
7395,A4,299.0,0.25,85,92.0
7396,D4,299.25,0.75,68,92.0
7397,D2,299.25,0.25,50,92.0
7398,F#2,299.25,0.25,50,92.0
7399,D4,299.25,0.25,50,92.0
7400,E-2,299.25,0.25,50,92.0
7401,B-4,299.25,0.25,50,92.0
7402,A4,299.25,0.25,50,92.0
7403,F4,299.5,0.5,74,92.0
7404,F#2,299.5,0.25,66,92.0
7405,E-4,299.5,0.25,66,92.0
7406,B-4,299.5,0.25,66,92.0
7407,A4,299.5,0.25,66,92.0
7408,G4,299.533,233/1000,48,92.0
7409,G5,299.533,233/1000,48,92.0
7410,G4,299.533,233/1000,48,92.0
7411,B1,299.75,7/40,52,92.0
7412,B1,299.75,0.25,55,92.0
7413,F#2,299.75,0.25,55,92.0
7414,E-4,299.75,0.25,55,92.0
7415,B-4,299.75,0.25,55,92.0
7416,A4,299.775,26/125,66,92.0
7417,A5,299.775,26/125,66,92.0
7418,A4,299.775,26/125,66,92.0
7419,B-1,300.0,1717/1000,97,92.0
7420,A3,300.0,103/40,48,92.0
7421,B-2,300.0,4.0,71,92.0
7422,B1,300.0,0.25,85,92.0
7423,F#2,300.0,0.25,85,92.0
7424,E-4,300.0,0.25,85,92.0
7425,B-4,300.0,0.25,85,92.0
7426,F4,300.0,1379/500,62,92.0
7427,D4,300.0,1379/500,62,92.0
7428,B-4,300.025,9/20,91,92.0
7429,B-5,300.025,9/20,91,92.0
7430,B-4,300.025,9/20,91,92.0
7431,F#2,300.25,0.25,52,92.0
7432,E-4,300.25,0.25,52,92.0
7433,B-4,300.25,0.25,52,92.0
7434,A4,300.483,167/1000,76,92.0
7435,A5,300.483,167/1000,76,92.0
7436,A4,300.483,167/1000,76,92.0
7437,F#2,300.5,0.25,80,92.0
7438,D4,300.5,0.25,80,92.0
7439,B-4,300.5,0.25,80,92.0
7440,B1,300.75,0.25,57,92.0
7441,F#2,300.75,0.25,57,92.0
7442,B-4,300.75,0.25,57,92.0
7443,B-4,300.758,1421/500,91,92.0
7444,B-5,300.758,1421/500,91,92.0
7445,B-4,300.758,1421/500,91,92.0
7446,D2,301.0,0.25,86,92.0
7447,F#2,301.0,0.25,86,92.0
7448,E-2,301.0,0.25,86,92.0
7449,B-4,301.0,0.25,86,92.0
7450,A4,301.0,0.25,86,92.0
7451,F#2,301.25,0.25,59,92.0
7452,D4,301.25,0.25,59,92.0
7453,B-4,301.25,0.25,59,92.0
7454,A4,301.25,0.25,59,92.0
7455,F#2,301.5,0.25,58,92.0
7456,E-4,301.5,0.25,58,92.0
7457,B-4,301.5,0.25,58,92.0
7458,A4,301.5,0.25,58,92.0
7459,B-1,301.75,71/500,97,92.0
7460,B1,301.75,0.25,65,92.0
7461,F#2,301.75,0.25,65,92.0
7462,E-4,301.75,0.25,65,92.0
7463,B-4,301.75,0.25,65,92.0
7464,B-1,302.0,1517/1000,81,92.0
7465,F#2,302.0,0.25,80,92.0
7466,B-4,302.0,0.25,80,92.0
7467,F3,302.25,1.75,94,92.0
7468,F#2,302.25,0.25,48,92.0
7469,B-4,302.25,0.25,48,92.0
7470,F#2,302.5,0.25,75,92.0
7471,B-4,302.5,0.25,75,92.0
7472,F4,302.525,4.0,40,92.0
7473,D4,302.525,4.0,40,92.0
7474,B-3,302.525,4.0,40,92.0
7475,G4,302.525,4.0,40,92.0
7476,B1,302.75,0.25,62,92.0
7477,F#2,302.75,0.25,62,92.0
7478,E-4,302.75,0.25,62,92.0
7479,B-4,302.75,0.25,62,92.0
7480,A3,302.758,621/500,85,92.0
7481,D2,303.0,0.25,85,92.0
7482,F#2,303.0,0.25,85,92.0
7483,D4,303.0,0.25,85,92.0
7484,E-2,303.0,0.25,85,92.0
7485,B-4,303.0,0.25,85,92.0
7486,A4,303.0,0.25,85,92.0
7487,D4,303.25,0.75,68,92.0
7488,D2,303.25,0.25,49,92.0
7489,F#2,303.25,0.25,49,92.0
7490,D4,303.25,0.25,49,92.0
7491,E-2,303.25,0.25,49,92.0
7492,B-4,303.25,0.25,49,92.0
7493,A4,303.25,0.25,49,92.0
7494,F1,303.5,79/500,71,92.0
7495,F4,303.5,0.5,74,92.0
7496,B1,303.5,0.25,66,92.0
7497,F#2,303.5,0.25,66,92.0
7498,E-4,303.5,0.25,66,92.0
7499,B-4,303.5,0.25,66,92.0
7500,A4,303.5,0.25,66,92.0
7501,G1,303.75,0.25,60,92.0
7502,F#2,303.75,0.25,44,92.0
7503,E-4,303.75,0.25,44,92.0
7504,B-4,303.75,0.25,44,92.0
7505,F4,303.775,9/40,64,92.0
7506,F5,303.775,9/40,64,92.0
7507,F4,303.775,9/40,64,92.0
7508,G#2,304.0,1617/1000,94,92.0
7509,B1,304.0,0.25,85,92.0
7510,F#2,304.0,0.25,85,92.0
7511,E-4,304.0,0.25,85,92.0
7512,B-4,304.0,0.25,85,92.0
7513,F#4,304.0,7/40,68,92.0
7514,E-4,304.0,7/40,68,92.0
7515,B3,304.0,7/40,68,92.0
7516,G#4,304.0,7/40,68,92.0
7517,G#4,304.05,17/40,127,92.0
7518,G#5,304.05,17/40,127,92.0
7519,G#4,304.05,17/40,127,92.0
7520,F#2,304.25,0.25,50,92.0
7521,E-4,304.25,0.25,50,92.0
7522,B-4,304.25,0.25,50,92.0
7523,F#4,304.25,0.125,81,92.0
7524,E-4,304.25,0.125,81,92.0
7525,B3,304.25,0.125,81,92.0
7526,G#4,304.25,0.125,81,92.0
7527,F#2,304.5,0.25,80,92.0
7528,D4,304.5,0.25,80,92.0
7529,B-4,304.5,0.25,80,92.0
7530,F#2,304.75,0.25,40,92.0
7531,B-4,304.75,0.25,40,92.0
7532,F4,304.783,0.125,61,92.0
7533,F5,304.783,0.125,61,92.0
7534,F4,304.783,0.125,61,92.0
7535,D2,305.0,0.25,86,92.0
7536,F#2,305.0,0.25,86,92.0
7537,E-2,305.0,0.25,86,92.0
7538,B-4,305.0,0.25,86,92.0
7539,A4,305.0,0.25,86,92.0
7540,G#4,305.008,217/1000,124,92.0
7541,G#5,305.008,217/1000,124,92.0
7542,G#4,305.008,217/1000,124,92.0
7543,F#2,305.25,0.25,64,92.0
7544,D4,305.25,0.25,64,92.0
7545,B-4,305.25,0.25,64,92.0
7546,A4,305.25,0.25,64,92.0
7547,F#2,305.5,0.25,58,92.0
7548,E-4,305.5,0.25,58,92.0
7549,B-4,305.5,0.25,58,92.0
7550,A4,305.5,0.25,58,92.0
7551,F4,305.508,3/20,48,92.0
7552,F5,305.508,3/20,48,92.0
7553,F4,305.508,3/20,48,92.0
7554,G#2,305.75,0.25,87,92.0
7555,B1,305.75,0.25,62,92.0
7556,F#2,305.75,0.25,62,92.0
7557,E-4,305.75,0.25,62,92.0
7558,B-4,305.75,0.25,62,92.0
7559,B-4,305.783,467/1000,127,92.0
7560,B-5,305.783,467/1000,127,92.0
7561,B-4,305.783,467/1000,127,92.0
7562,C#2,306.0,1617/1000,94,92.0
7563,B1,306.0,0.25,83,92.0
7564,F#2,306.0,0.25,83,92.0
7565,B-4,306.0,0.25,83,92.0
7566,F4,306.0,7/40,68,92.0
7567,E-4,306.0,7/40,68,92.0
7568,B3,306.0,7/40,68,92.0
7569,B-4,306.0,7/40,68,92.0
7570,F#2,306.25,0.25,55,92.0
7571,B-4,306.25,0.25,55,92.0
7572,F4,306.25,0.125,81,92.0
7573,E-4,306.25,0.125,81,92.0
7574,B3,306.25,0.125,81,92.0
7575,B-4,306.25,0.125,81,92.0
7576,G#4,306.275,2/5,95,92.0
7577,G#5,306.275,2/5,95,92.0
7578,G#4,306.275,2/5,95,92.0
7579,F#2,306.5,0.25,75,92.0
7580,B-4,306.5,0.25,75,92.0
7581,G4,306.525,2.0,45,92.0
7582,E4,306.525,2.0,45,92.0
7583,C4,306.525,2.0,45,92.0
7584,A4,306.525,2.0,45,92.0
7585,F#2,306.75,0.25,53,92.0
7586,E-4,306.75,0.25,53,92.0
7587,B-4,306.75,0.25,53,92.0
7588,F#4,306.767,329/500,82,92.0
7589,F#5,306.767,329/500,82,92.0
7590,F#4,306.767,329/500,82,92.0
7591,D2,307.0,0.25,85,92.0
7592,F#2,307.0,0.25,85,92.0
7593,D4,307.0,0.25,85,92.0
7594,E-2,307.0,0.25,85,92.0
7595,B-4,307.0,0.25,85,92.0
7596,A4,307.0,0.25,85,92.0
7597,D2,307.25,0.25,50,92.0
7598,F#2,307.25,0.25,50,92.0
7599,D4,307.25,0.25,50,92.0
7600,E-2,307.25,0.25,50,92.0
7601,B-4,307.25,0.25,50,92.0
7602,A4,307.25,0.25,50,92.0
7603,F4,307.467,3/10,67,92.0
7604,F5,307.467,3/10,67,92.0
7605,F4,307.467,3/10,67,92.0
7606,F#2,307.5,0.25,66,92.0
7607,E-4,307.5,0.25,66,92.0
7608,B-4,307.5,0.25,66,92.0
7609,A4,307.5,0.25,66,92.0
7610,F#4,307.733,217/1000,56,92.0
7611,F#5,307.733,217/1000,56,92.0
7612,F#4,307.733,217/1000,56,92.0
7613,C#2,307.75,0.25,87,92.0
7614,B1,307.75,0.25,55,92.0
7615,F#2,307.75,0.25,55,92.0
7616,E-4,307.75,0.25,55,92.0
7617,B-4,307.75,0.25,55,92.0
7618,F#2,308.0,829/500,90,92.0
7619,B-3,308.0,326/125,63,92.0
7620,G#4,308.0,3217/1000,81,92.0
7621,F4,308.0,2867/1000,77,92.0
7622,F#2,308.0,19/5,77,92.0
7623,B1,308.0,0.25,85,92.0
7624,F#2,308.0,0.25,85,92.0
7625,E-4,308.0,0.25,85,92.0
7626,B-4,308.0,0.25,85,92.0
7627,G#4,308.017,333/1000,127,92.0
7628,G#5,308.017,333/1000,127,92.0
7629,G#4,308.017,333/1000,127,92.0
7630,F#2,308.25,0.25,52,92.0
7631,E-4,308.25,0.25,52,92.0
7632,B-4,308.25,0.25,52,92.0
7633,F#2,308.5,0.25,80,92.0
7634,D4,308.5,0.25,80,92.0
7635,B-4,308.5,0.25,80,92.0
7636,E4,308.525,2.0,40,92.0
7637,C4,308.525,2.0,40,92.0
7638,A3,308.525,2.0,40,92.0
7639,G4,308.525,2.0,40,92.0
7640,B1,308.75,0.25,57,92.0
7641,F#2,308.75,0.25,57,92.0
7642,B-4,308.75,0.25,57,92.0
7643,G#4,308.775,1.875,109,92.0
7644,G#5,308.775,1.875,109,92.0
7645,D2,309.0,0.25,86,92.0
7646,F#2,309.0,0.25,86,92.0
7647,E-2,309.0,0.25,86,92.0
7648,B-4,309.0,0.25,86,92.0
7649,A4,309.0,0.25,86,92.0
7650,F#2,309.25,0.25,59,92.0
7651,D4,309.25,0.25,59,92.0
7652,B-4,309.25,0.25,59,92.0
7653,A4,309.25,0.25,59,92.0
7654,F#2,309.5,0.25,58,92.0
7655,E-4,309.5,0.25,58,92.0
7656,B-4,309.5,0.25,58,92.0
7657,A4,309.5,0.25,58,92.0
7658,F#2,309.75,79/500,81,92.0
7659,B1,309.75,0.25,65,92.0
7660,F#2,309.75,0.25,65,92.0
7661,E-4,309.75,0.25,65,92.0
7662,B-4,309.75,0.25,65,92.0
7663,C#4,309.808,1/10,88,92.0
7664,F#2,310.0,427/250,84,92.0
7665,F#2,310.0,0.25,80,92.0
7666,B-4,310.0,0.25,80,92.0
7667,F#3,310.25,1483/1000,77,92.0
7668,F#2,310.25,0.25,48,92.0
7669,B-4,310.25,0.25,48,92.0
7670,C#4,310.292,0.125,78,92.0
7671,F#2,310.5,0.25,75,92.0
7672,B-4,310.5,0.25,75,92.0
7673,B-3,310.75,41/40,90,92.0
7674,B1,310.75,0.25,62,92.0
7675,F#2,310.75,0.25,62,92.0
7676,E-4,310.75,0.25,62,92.0
7677,B-4,310.75,0.25,62,92.0
7678,C#4,310.8,267/1000,68,92.0
7679,D2,311.0,0.25,85,92.0
7680,F#2,311.0,0.25,85,92.0
7681,D4,311.0,0.25,85,92.0
7682,E-2,311.0,0.25,85,92.0
7683,B-4,311.0,0.25,85,92.0
7684,A4,311.0,0.25,85,92.0
7685,C#4,311.217,83/1000,58,92.0
7686,C#5,311.217,83/1000,58,92.0
7687,C#4,311.217,83/1000,58,92.0
7688,F4,311.25,517/1000,60,92.0
7689,D2,311.25,0.25,49,92.0
7690,F#2,311.25,0.25,49,92.0
7691,D4,311.25,0.25,49,92.0
7692,E-2,311.25,0.25,49,92.0
7693,B-4,311.25,0.25,49,92.0
7694,A4,311.25,0.25,49,92.0
7695,F#4,311.492,27/250,78,92.0
7696,F#5,311.492,27/250,78,92.0
7697,F#4,311.492,27/250,78,92.0
7698,G#4,311.5,267/1000,81,92.0
7699,B1,311.5,0.25,66,92.0
7700,F#2,311.5,0.25,66,92.0
7701,E-4,311.5,0.25,66,92.0
7702,B-4,311.5,0.25,66,92.0
7703,A4,311.5,0.25,66,92.0
7704,D4,311.525,3.0,54,92.0
7705,G3,311.525,3.0,54,92.0
7706,F4,311.525,3.0,54,92.0
7707,G#4,311.733,133/1000,82,92.0
7708,G#5,311.733,133/1000,82,92.0
7709,G#4,311.733,133/1000,82,92.0
7710,G2,311.75,7/40,52,92.0
7711,F#2,311.75,0.25,44,92.0
7712,E-4,311.75,0.25,44,92.0
7713,B-4,311.75,0.25,44,92.0
7714,A4,311.992,1/125,124,92.0
7715,A5,311.992,1/125,124,92.0
7716,A4,311.992,1/125,124,92.0
7717,F#2,312.0,779/500,97,92.0
7718,F#2,312.0,4.0,65,92.0
7719,A4,312.0,533/1000,124,92.0
7720,B1,312.0,0.25,85,92.0
7721,F#2,312.0,0.25,85,92.0
7722,E-4,312.0,0.25,85,92.0
7723,B-4,312.0,0.25,85,92.0
7724,A3,312.0,283/1000,73,92.0
7725,C#4,312.0,283/1000,73,92.0
7726,E3,312.0,283/1000,73,92.0
7727,A5,312.0,533/1000,124,92.0
7728,A4,312.0,533/1000,124,92.0
7729,F#2,312.25,0.25,50,92.0
7730,E-4,312.25,0.25,50,92.0
7731,B-4,312.25,0.25,50,92.0
7732,C#3,312.275,149/40,68,92.0
7733,F#2,312.5,0.25,80,92.0
7734,D4,312.5,0.25,80,92.0
7735,B-4,312.5,0.25,80,92.0
7736,A3,312.5,71/500,38,92.0
7737,C#4,312.5,71/500,38,92.0
7738,E3,312.5,71/500,38,92.0
7739,G#4,312.508,83/1000,67,92.0
7740,G#5,312.508,83/1000,67,92.0
7741,G#4,312.508,83/1000,67,92.0
7742,B3,312.75,183/1000,84,92.0
7743,F#2,312.75,0.25,40,92.0
7744,B-4,312.75,0.25,40,92.0
7745,E3,312.75,71/500,75,92.0
7746,G#3,312.75,71/500,75,92.0
7747,G#4,312.767,23/250,61,92.0
7748,G#5,312.767,23/250,61,92.0
7749,G#4,312.767,23/250,61,92.0
7750,A4,312.992,317/1000,104,92.0
7751,A5,312.992,317/1000,104,92.0
7752,A4,312.992,317/1000,104,92.0
7753,D2,313.0,0.25,86,92.0
7754,F#2,313.0,0.25,86,92.0
7755,E-2,313.0,0.25,86,92.0
7756,B-4,313.0,0.25,86,92.0
7757,A4,313.0,0.25,86,92.0
7758,F#2,313.25,0.25,64,92.0
7759,D4,313.25,0.25,64,92.0
7760,B-4,313.25,0.25,64,92.0
7761,A4,313.25,0.25,64,92.0
7762,A3,313.25,2.75,65,92.0
7763,E3,313.25,2.75,65,92.0
7764,C#4,313.25,2.75,65,92.0
7765,F#2,313.5,0.25,52,92.0
7766,E-4,313.5,0.25,52,92.0
7767,B-4,313.5,0.25,52,92.0
7768,A4,313.5,0.25,52,92.0
7769,B4,313.733,221/500,124,92.0
7770,B5,313.733,221/500,124,92.0
7771,B4,313.733,221/500,124,92.0
7772,F#2,313.75,71/500,90,92.0
7773,B1,313.75,0.25,62,92.0
7774,F#2,313.75,0.25,62,92.0
7775,E-4,313.75,0.25,62,92.0
7776,B-4,313.75,0.25,62,92.0
7777,F#2,314.0,1817/1000,90,92.0
7778,B1,314.0,0.25,83,92.0
7779,F#2,314.0,0.25,83,92.0
7780,B-4,314.0,0.25,83,92.0
7781,F#2,314.25,0.25,48,92.0
7782,B-4,314.25,0.25,48,92.0
7783,A4,314.283,7/40,114,92.0
7784,A5,314.283,7/40,114,92.0
7785,A4,314.283,7/40,114,92.0
7786,F#2,314.5,0.25,75,92.0
7787,B-4,314.5,0.25,75,92.0
7788,F#2,314.75,0.25,53,92.0
7789,E-4,314.75,0.25,53,92.0
7790,B-4,314.75,0.25,53,92.0
7791,A3,314.775,723/250,52,92.0
7792,G#4,314.792,617/1000,95,92.0
7793,G#5,314.792,617/1000,95,92.0
7794,G#4,314.792,617/1000,95,92.0
7795,D2,315.0,0.25,85,92.0
7796,F#2,315.0,0.25,85,92.0
7797,D4,315.0,0.25,85,92.0
7798,E-2,315.0,0.25,85,92.0
7799,B-4,315.0,0.25,85,92.0
7800,A4,315.0,0.25,85,92.0
7801,D4,315.025,107/40,68,92.0
7802,D2,315.25,0.25,45,92.0
7803,F#2,315.25,0.25,45,92.0
7804,D4,315.25,0.25,45,92.0
7805,E-2,315.25,0.25,45,92.0
7806,B-4,315.25,0.25,45,92.0
7807,A4,315.25,0.25,45,92.0
7808,F4,315.275,2333/1000,54,92.0
7809,F#4,315.5,367/1000,52,92.0
7810,F#2,315.5,0.25,66,92.0
7811,E-4,315.5,0.25,66,92.0
7812,B-4,315.5,0.25,66,92.0
7813,A4,315.5,0.25,66,92.0
7814,F#5,315.5,367/1000,52,92.0
7815,F#4,315.5,367/1000,52,92.0
7816,C#2,315.75,24/125,90,92.0
7817,B1,315.75,0.25,55,92.0
7818,F#2,315.75,0.25,55,92.0
7819,E-4,315.75,0.25,55,92.0
7820,B-4,315.75,0.25,55,92.0
7821,B1,316.0,779/500,97,92.0
7822,A4,316.0,0.25,114,92.0
7823,B1,316.0,0.25,85,92.0
7824,F#2,316.0,0.25,85,92.0
7825,E-4,316.0,0.25,85,92.0
7826,B-4,316.0,0.25,85,92.0
7827,A5,316.0,0.25,114,92.0
7828,A4,316.0,0.25,114,92.0
7829,B2,316.25,1.75,74,92.0
7830,F#2,316.25,0.25,52,92.0
7831,E-4,316.25,0.25,52,92.0
7832,B-4,316.25,0.25,52,92.0
7833,G#4,316.3,83/1000,53,92.0
7834,G#5,316.3,83/1000,53,92.0
7835,G#4,316.3,83/1000,53,92.0
7836,A3,316.5,1.5,85,92.0
7837,F#2,316.5,0.25,80,92.0
7838,D4,316.5,0.25,80,92.0
7839,B-4,316.5,0.25,80,92.0
7840,G#4,316.542,1/10,36,92.0
7841,G#5,316.542,1/10,36,92.0
7842,G#4,316.542,1/10,36,92.0
7843,A4,316.75,0.5,120,92.0
7844,B1,316.75,0.25,57,92.0
7845,F#2,316.75,0.25,57,92.0
7846,B-4,316.75,0.25,57,92.0
7847,A4,316.75,1.25,72,92.0
7848,E4,316.75,1.25,72,92.0
7849,F#4,316.75,1.25,72,92.0
7850,A5,316.75,0.5,120,92.0
7851,A4,316.75,0.5,120,92.0
7852,D2,317.0,0.25,86,92.0
7853,F#2,317.0,0.25,86,92.0
7854,E-2,317.0,0.25,86,92.0
7855,B-4,317.0,0.25,86,92.0
7856,A4,317.0,0.25,86,92.0
7857,F#2,317.25,0.25,59,92.0
7858,D4,317.25,0.25,59,92.0
7859,B-4,317.25,0.25,59,92.0
7860,A4,317.25,0.25,59,92.0
7861,G#4,317.283,117/1000,61,92.0
7862,G#5,317.283,117/1000,61,92.0
7863,G#4,317.283,117/1000,61,92.0
7864,F#2,317.5,0.25,58,92.0
7865,E-4,317.5,0.25,58,92.0
7866,B-4,317.5,0.25,58,92.0
7867,A4,317.5,0.25,58,92.0
7868,B1,317.75,121/500,101,92.0
7869,C#4,317.75,24/125,71,92.0
7870,B1,317.75,0.25,65,92.0
7871,F#2,317.75,0.25,65,92.0
7872,E-4,317.75,0.25,65,92.0
7873,B-4,317.75,0.25,65,92.0
7874,B1,318.0,779/500,97,92.0
7875,F#2,318.0,0.25,80,92.0
7876,B-4,318.0,0.25,80,92.0
7877,B2,318.25,1.75,74,92.0
7878,F#2,318.25,0.25,48,92.0
7879,B-4,318.25,0.25,48,92.0
7880,C#4,318.275,1/5,60,92.0
7881,A3,318.5,1.5,85,92.0
7882,F#2,318.5,0.25,75,92.0
7883,B-4,318.5,0.25,75,92.0
7884,B1,318.75,0.25,62,92.0
7885,F#2,318.75,0.25,62,92.0
7886,E-4,318.75,0.25,62,92.0
7887,B-4,318.75,0.25,62,92.0
7888,A4,318.75,1.25,72,92.0
7889,E-4,318.75,1.25,72,92.0
7890,F#4,318.75,1.25,72,92.0
7891,B3,318.775,1.75,65,92.0
7892,C#4,318.775,13/40,82,92.0
7893,D2,319.0,0.25,85,92.0
7894,F#2,319.0,0.25,85,92.0
7895,D4,319.0,0.25,85,92.0
7896,E-2,319.0,0.25,85,92.0
7897,B-4,319.0,0.25,85,92.0
7898,A4,319.0,0.25,85,92.0
7899,F#4,319.025,1.5,53,92.0
7900,D2,319.25,0.25,49,92.0
7901,F#2,319.25,0.25,49,92.0
7902,D4,319.25,0.25,49,92.0
7903,E-2,319.25,0.25,49,92.0
7904,B-4,319.25,0.25,49,92.0
7905,A4,319.25,0.25,49,92.0
7906,C#4,319.258,11/40,80,92.0
7907,C#5,319.258,11/40,80,92.0
7908,C#4,319.258,11/40,80,92.0
7909,G#4,319.275,1.25,49,92.0
7910,B1,319.5,0.25,66,92.0
7911,F#2,319.5,0.25,66,92.0
7912,E-4,319.5,0.25,66,92.0
7913,B-4,319.5,0.25,66,92.0
7914,A4,319.5,0.25,66,92.0
7915,F#4,319.542,26/125,19,92.0
7916,F#5,319.542,26/125,19,92.0
7917,F#4,319.542,26/125,19,92.0
7918,G#4,319.742,26/125,67,92.0
7919,G#5,319.742,26/125,67,92.0
7920,G#4,319.742,26/125,67,92.0
7921,B1,319.75,0.25,101,92.0
7922,F#2,319.75,0.25,44,92.0
7923,E-4,319.75,0.25,44,92.0
7924,B-4,319.75,0.25,44,92.0
7925,A4,319.983,17/1000,114,92.0
7926,A5,319.983,17/1000,114,92.0
7927,A4,319.983,17/1000,114,92.0
7928,A1,320.0,779/500,97,92.0
7929,G3,320.0,103/40,48,92.0
7930,A2,320.0,4.0,71,92.0
7931,A4,320.0,233/1000,114,92.0
7932,B1,320.0,0.25,85,92.0
7933,F#2,320.0,0.25,85,92.0
7934,E-4,320.0,0.25,85,92.0
7935,B-4,320.0,0.25,85,92.0
7936,E4,320.0,1379/500,62,92.0
7937,C4,320.0,1379/500,62,92.0
7938,A5,320.0,233/1000,114,92.0
7939,A4,320.0,233/1000,114,92.0
7940,F#4,320.217,73/250,53,92.0
7941,F#5,320.217,73/250,53,92.0
7942,F#4,320.217,73/250,53,92.0
7943,F#2,320.25,0.25,50,92.0
7944,E-4,320.25,0.25,50,92.0
7945,B-4,320.25,0.25,50,92.0
7946,G#4,320.4,3/10,46,92.0
7947,G#5,320.4,3/10,46,92.0
7948,G#4,320.4,3/10,46,92.0
7949,F#2,320.5,0.25,89,92.0
7950,D4,320.5,0.25,89,92.0
7951,B-4,320.5,0.25,89,92.0
7952,A4,320.708,267/1000,120,92.0
7953,A5,320.708,267/1000,120,92.0
7954,A4,320.708,267/1000,120,92.0
7955,F#2,320.75,0.25,40,92.0
7956,B-4,320.75,0.25,40,92.0
7957,B3,320.775,1.75,65,92.0
7958,D2,321.0,0.25,86,92.0
7959,F#2,321.0,0.25,86,92.0
7960,E-2,321.0,0.25,86,92.0
7961,B-4,321.0,0.25,86,92.0
7962,A4,321.0,0.25,86,92.0
7963,F4,321.025,1.5,53,92.0
7964,F#2,321.25,0.25,64,92.0
7965,D4,321.25,0.25,64,92.0
7966,B-4,321.25,0.25,64,92.0
7967,A4,321.25,0.25,64,92.0
7968,G#4,321.275,1.25,49,92.0
7969,F#2,321.5,0.25,52,92.0
7970,E-4,321.5,0.25,52,92.0
7971,B-4,321.5,0.25,52,92.0
7972,A4,321.5,0.25,52,92.0
7973,A4,321.533,183/1000,91,92.0
7974,A5,321.533,183/1000,91,92.0
7975,A4,321.533,183/1000,91,92.0
7976,A1,321.75,71/500,90,92.0
7977,B1,321.75,0.25,62,92.0
7978,F#2,321.75,0.25,62,92.0
7979,E-4,321.75,0.25,62,92.0
7980,B-4,321.75,0.25,62,92.0
7981,B4,321.767,127/250,104,92.0
7982,B5,321.767,127/250,104,92.0
7983,B4,321.767,127/250,104,92.0
7984,A1,322.0,1817/1000,90,92.0
7985,B1,322.0,0.25,83,92.0
7986,F#2,322.0,0.25,83,92.0
7987,B-4,322.0,0.25,83,92.0
7988,E3,322.25,1.75,94,92.0
7989,F#2,322.25,0.25,48,92.0
7990,B-4,322.25,0.25,48,92.0
7991,A4,322.3,433/1000,120,92.0
7992,A5,322.3,433/1000,120,92.0
7993,A4,322.3,433/1000,120,92.0
7994,F#2,322.5,0.25,75,92.0
7995,B-4,322.5,0.25,75,92.0
7996,F4,322.525,57/20,47,92.0
7997,C#4,322.525,57/20,47,92.0
7998,B-3,322.525,57/20,47,92.0
7999,G#4,322.525,57/20,47,92.0
8000,F#2,322.75,0.25,53,92.0
8001,E-4,322.75,0.25,53,92.0
8002,B-4,322.75,0.25,53,92.0
8003,G3,322.758,621/500,85,92.0
8004,G#4,322.767,127/250,91,92.0
8005,G#5,322.767,127/250,91,92.0
8006,G#4,322.767,127/250,91,92.0
8007,D2,323.0,0.25,85,92.0
8008,F#2,323.0,0.25,85,92.0
8009,D4,323.0,0.25,85,92.0
8010,E-2,323.0,0.25,85,92.0
8011,B-4,323.0,0.25,85,92.0
8012,A4,323.0,0.25,85,92.0
8013,C4,323.25,0.75,68,92.0
8014,D2,323.25,0.25,45,92.0
8015,F#2,323.25,0.25,45,92.0
8016,D4,323.25,0.25,45,92.0
8017,E-2,323.25,0.25,45,92.0
8018,B-4,323.25,0.25,45,92.0
8019,A4,323.25,0.25,45,92.0
8020,E4,323.5,0.5,74,92.0
8021,F#2,323.5,0.25,66,92.0
8022,E-4,323.5,0.25,66,92.0
8023,B-4,323.5,0.25,66,92.0
8024,A4,323.5,0.25,66,92.0
8025,G#4,323.725,3/20,36,92.0
8026,G#5,323.725,3/20,36,92.0
8027,G#4,323.725,3/20,36,92.0
8028,E1,323.75,24/125,90,92.0
8029,B1,323.75,0.25,55,92.0
8030,F#2,323.75,0.25,55,92.0
8031,E-4,323.75,0.25,55,92.0
8032,B-4,323.75,0.25,55,92.0
8033,A4,323.983,17/1000,120,92.0
8034,A5,323.983,17/1000,120,92.0
8035,A4,323.983,17/1000,120,92.0
8036,D2,324.0,201/125,90,92.0
8037,A4,324.0,21/40,120,92.0
8038,B1,324.0,0.25,85,92.0
8039,F#2,324.0,0.25,85,92.0
8040,E-4,324.0,0.25,85,92.0
8041,B-4,324.0,0.25,85,92.0
8042,G4,324.0,2.0,47,92.0
8043,D3,324.0,2.0,47,92.0
8044,A4,324.0,2.0,47,92.0
8045,C4,324.0,2.0,47,92.0
8046,A3,324.0,2.0,47,92.0
8047,A5,324.0,21/40,120,92.0
8048,A4,324.0,21/40,120,92.0
8049,F#2,324.25,0.25,52,92.0
8050,E-4,324.25,0.25,52,92.0
8051,B-4,324.25,0.25,52,92.0
8052,F#2,324.5,0.25,80,92.0
8053,D4,324.5,0.25,80,92.0
8054,B-4,324.5,0.25,80,92.0
8055,B1,324.75,0.25,57,92.0
8056,F#2,324.75,0.25,57,92.0
8057,B-4,324.75,0.25,57,92.0
8058,A4,324.792,517/1000,114,92.0
8059,A5,324.792,517/1000,114,92.0
8060,A4,324.792,517/1000,114,92.0
8061,D2,325.0,0.25,86,92.0
8062,F#2,325.0,0.25,86,92.0
8063,E-2,325.0,0.25,86,92.0
8064,B-4,325.0,0.25,86,92.0
8065,A4,325.0,0.25,86,92.0
8066,F#2,325.25,0.25,59,92.0
8067,D4,325.25,0.25,59,92.0
8068,B-4,325.25,0.25,59,92.0
8069,A4,325.25,0.25,59,92.0
8070,D4,325.3,179/500,76,92.0
8071,D5,325.3,51/125,76,92.0
8072,D4,325.3,51/125,76,92.0
8073,F#2,325.5,0.25,58,92.0
8074,E-4,325.5,0.25,58,92.0
8075,B-4,325.5,0.25,58,92.0
8076,A4,325.5,0.25,58,92.0
8077,F4,325.525,1.0,50,92.0
8078,D2,325.75,0.125,87,92.0
8079,D4,325.75,51/125,127,92.0
8080,B1,325.75,0.25,78,92.0
8081,B-2,325.75,0.25,78,92.0
8082,E-4,325.75,0.25,78,92.0
8083,B-4,325.75,0.25,78,92.0
8084,E-2,326.0,1633/1000,101,92.0
8085,F#2,326.0,0.25,80,92.0
8086,B-4,326.0,0.25,80,92.0
8087,E-2,326.25,1.75,74,92.0
8088,F#2,326.25,0.25,48,92.0
8089,B-4,326.25,0.25,48,92.0
8090,F4,326.258,233/1000,85,92.0
8091,F5,326.258,233/1000,85,92.0
8092,F4,326.258,233/1000,85,92.0
8093,G3,326.5,1.5,85,92.0
8094,F#2,326.5,0.25,80,92.0
8095,B-4,326.5,0.25,80,92.0
8096,F#4,326.525,57/20,47,92.0
8097,E4,326.525,57/20,47,92.0
8098,C#4,326.525,57/20,47,92.0
8099,A4,326.525,57/20,47,92.0
8100,G4,326.533,79/500,109,92.0
8101,G5,326.533,79/500,109,92.0
8102,G4,326.533,79/500,109,92.0
8103,G#4,326.75,1/5,127,92.0
8104,B1,326.75,0.25,62,92.0
8105,F#2,326.75,0.25,62,92.0
8106,E-4,326.75,0.25,62,92.0
8107,B-4,326.75,0.25,62,92.0
8108,G4,326.75,1.25,72,92.0
8109,C#4,326.75,1.25,72,92.0
8110,E4,326.75,1.25,72,92.0
8111,G#5,326.75,1/5,127,92.0
8112,G#4,326.75,1/5,127,92.0
8113,B-4,327.0,417/1000,127,92.0
8114,D2,327.0,0.25,85,92.0
8115,F#2,327.0,0.25,85,92.0
8116,D4,327.0,0.25,85,92.0
8117,E-2,327.0,0.25,85,92.0
8118,B-4,327.0,0.25,85,92.0
8119,A4,327.0,0.25,85,92.0
8120,B-5,327.0,417/1000,127,92.0
8121,B-4,327.0,417/1000,127,92.0
8122,D2,327.25,0.25,49,92.0
8123,F#2,327.25,0.25,49,92.0
8124,D4,327.25,0.25,49,92.0
8125,E-2,327.25,0.25,49,92.0
8126,B-4,327.25,0.25,49,92.0
8127,A4,327.25,0.25,49,92.0
8128,B1,327.5,0.25,66,92.0
8129,F#2,327.5,0.25,66,92.0
8130,E-4,327.5,0.25,66,92.0
8131,B-4,327.5,0.25,66,92.0
8132,A4,327.5,0.25,66,92.0
8133,C5,327.525,121/500,71,92.0
8134,C6,327.525,121/500,71,92.0
8135,C5,327.525,121/500,71,92.0
8136,E-2,327.75,1/10,77,92.0
8137,F#2,327.75,0.25,44,92.0
8138,E-4,327.75,0.25,44,92.0
8139,B-4,327.75,0.25,44,92.0
8140,D5,327.767,233/1000,109,92.0
8141,D6,327.767,233/1000,109,92.0
8142,D5,327.767,233/1000,109,92.0
8143,G#2,328.0,1633/1000,101,92.0
8144,D5,328.0,1/125,109,92.0
8145,B1,328.0,0.25,85,92.0
8146,F#2,328.0,0.25,85,92.0
8147,E-4,328.0,0.25,85,92.0
8148,B-4,328.0,0.25,85,92.0
8149,D6,328.0,1/125,109,92.0
8150,D5,328.0,1/125,109,92.0
8151,E-5,328.017,383/1000,95,92.0
8152,E-6,328.017,383/1000,95,92.0
8153,E-5,328.017,383/1000,95,92.0
8154,G#2,328.25,1.75,74,92.0
8155,F#2,328.25,0.25,50,92.0
8156,E-4,328.25,0.25,50,92.0
8157,B-4,328.25,0.25,50,92.0
8158,E-4,328.5,1.5,85,92.0
8159,F#2,328.5,0.25,80,92.0
8160,D4,328.5,0.25,80,92.0
8161,B-4,328.5,0.25,80,92.0
8162,E-5,328.517,217/1000,88,92.0
8163,E-6,328.517,217/1000,88,92.0
8164,E-5,328.517,217/1000,88,92.0
8165,F#2,328.75,0.25,40,92.0
8166,B-4,328.75,0.25,40,92.0
8167,E-5,328.75,1.25,72,92.0
8168,G#4,328.75,1.25,72,92.0
8169,B4,328.75,1.25,72,92.0
8170,E-5,328.808,7/20,95,92.0
8171,E-6,328.808,7/20,95,92.0
8172,E-5,328.808,7/20,95,92.0
8173,D2,329.0,0.25,86,92.0
8174,F#2,329.0,0.25,86,92.0
8175,E-2,329.0,0.25,86,92.0
8176,B-4,329.0,0.25,86,92.0
8177,A4,329.0,0.25,86,92.0
8178,C#5,329.25,317/1000,127,92.0
8179,F#2,329.25,0.25,64,92.0
8180,D4,329.25,0.25,64,92.0
8181,B-4,329.25,0.25,64,92.0
8182,A4,329.25,0.25,64,92.0
8183,C#6,329.25,317/1000,127,92.0
8184,C#5,329.25,317/1000,127,92.0
8185,F#2,329.5,0.25,58,92.0
8186,E-4,329.5,0.25,58,92.0
8187,B-4,329.5,0.25,58,92.0
8188,A4,329.5,0.25,58,92.0
8189,E4,329.525,1.0,50,92.0
8190,G#2,329.75,1/10,77,92.0
8191,E-5,329.75,0.125,127,92.0
8192,B1,329.75,0.25,62,92.0
8193,F#2,329.75,0.25,62,92.0
8194,E-4,329.75,0.25,62,92.0
8195,B-4,329.75,0.25,62,92.0
8196,E-6,329.75,0.125,127,92.0
8197,E-5,329.75,0.125,127,92.0
8198,G#2,330.0,201/125,90,92.0
8199,B1,330.0,0.25,83,92.0
8200,F#2,330.0,0.25,83,92.0
8201,B-4,330.0,0.25,83,92.0
8202,C#5,330.192,51/125,74,92.0
8203,C#6,330.192,51/125,74,92.0
8204,C#5,330.192,51/125,74,92.0
8205,G#2,330.25,1.75,74,92.0
8206,F#2,330.25,0.25,55,92.0
8207,B-4,330.25,0.25,55,92.0
8208,B3,330.5,1.5,85,92.0
8209,F#2,330.5,0.25,75,92.0
8210,B-4,330.5,0.25,75,92.0
8211,B4,330.583,1417/1000,74,92.0
8212,B5,330.583,1417/1000,74,92.0
8213,B4,330.583,1417/1000,74,92.0
8214,F#2,330.75,0.25,53,92.0
8215,E-4,330.75,0.25,53,92.0
8216,B-4,330.75,0.25,53,92.0
8217,B4,330.75,1.25,72,92.0
8218,G4,330.75,1.25,72,92.0
8219,G#4,330.75,1.25,72,92.0
8220,A3,330.775,1.75,65,92.0
8221,D2,331.0,0.25,85,92.0
8222,F#2,331.0,0.25,85,92.0
8223,D4,331.0,0.25,85,92.0
8224,E-2,331.0,0.25,85,92.0
8225,B-4,331.0,0.25,85,92.0
8226,A4,331.0,0.25,85,92.0
8227,E4,331.025,1.5,53,92.0
8228,D2,331.25,0.25,50,92.0
8229,F#2,331.25,0.25,50,92.0
8230,D4,331.25,0.25,50,92.0
8231,E-2,331.25,0.25,50,92.0
8232,B-4,331.25,0.25,50,92.0
8233,A4,331.25,0.25,50,92.0
8234,F#4,331.275,1.25,49,92.0
8235,F#2,331.5,0.25,66,92.0
8236,E-4,331.5,0.25,66,92.0
8237,B-4,331.5,0.25,66,92.0
8238,A4,331.5,0.25,66,92.0
8239,G#2,331.75,0.125,87,92.0
8240,B1,331.75,0.25,55,92.0
8241,F#2,331.75,0.25,55,92.0
8242,E-4,331.75,0.25,55,92.0
8243,B-4,331.75,0.25,55,92.0
8244,G#2,332.0,1617/1000,94,92.0
8245,B4,332.0,171/500,74,92.0
8246,B1,332.0,0.25,85,92.0
8247,F#2,332.0,0.25,85,92.0
8248,E-4,332.0,0.25,85,92.0
8249,B-4,332.0,0.25,85,92.0
8250,F#4,332.0,2.0,47,92.0
8251,G#2,332.0,2.0,47,92.0
8252,G#4,332.0,2.0,47,92.0
8253,B3,332.0,2.0,47,92.0
8254,G#3,332.0,2.0,47,92.0
8255,B5,332.0,171/500,74,92.0
8256,B4,332.0,171/500,74,92.0
8257,F#2,332.25,0.25,52,92.0
8258,E-4,332.25,0.25,52,92.0
8259,B-4,332.25,0.25,52,92.0
8260,F#2,332.5,0.25,80,92.0
8261,D4,332.5,0.25,80,92.0
8262,B-4,332.5,0.25,80,92.0
8263,E-4,332.525,71/40,55,92.0
8264,B3,332.525,71/40,55,92.0
8265,A3,332.525,71/40,55,92.0
8266,F#4,332.525,71/40,55,92.0
8267,E-5,332.55,79/500,127,92.0
8268,E-6,332.55,79/500,127,92.0
8269,E-5,332.55,79/500,127,92.0
8270,B1,332.75,0.25,57,92.0
8271,F#2,332.75,0.25,57,92.0
8272,B-4,332.75,0.25,57,92.0
8273,E-5,332.817,121/500,124,92.0
8274,E-6,332.817,121/500,124,92.0
8275,E-5,332.817,121/500,124,92.0
8276,D2,333.0,0.25,86,92.0
8277,F#2,333.0,0.25,86,92.0
8278,E-2,333.0,0.25,86,92.0
8279,B-4,333.0,0.25,86,92.0
8280,A4,333.0,0.25,86,92.0
8281,C#5,333.058,17/40,82,92.0
8282,C#6,333.058,17/40,82,92.0
8283,C#5,333.058,17/40,82,92.0
8284,F#2,333.25,0.25,59,92.0
8285,D4,333.25,0.25,59,92.0
8286,B-4,333.25,0.25,59,92.0
8287,A4,333.25,0.25,59,92.0
8288,E-5,333.458,13/40,80,92.0
8289,E-6,333.458,13/40,80,92.0
8290,E-5,333.458,13/40,80,92.0
8291,F#2,333.5,0.25,58,92.0
8292,E-4,333.5,0.25,58,92.0
8293,B-4,333.5,0.25,58,92.0
8294,A4,333.5,0.25,58,92.0
8295,C#5,333.733,9/20,91,92.0
8296,C#6,333.733,9/20,91,92.0
8297,C#5,333.733,9/20,91,92.0
8298,G#2,333.75,121/500,87,92.0
8299,B1,333.75,0.25,65,92.0
8300,F#2,333.75,0.25,65,92.0
8301,E-4,333.75,0.25,65,92.0
8302,B-4,333.75,0.25,65,92.0
8303,G#2,334.0,1617/1000,94,92.0
8304,F#2,334.0,0.25,80,92.0
8305,B-4,334.0,0.25,80,92.0
8306,B4,334.225,19/40,76,92.0
8307,B5,334.225,19/40,76,92.0
8308,B4,334.225,19/40,76,92.0
8309,G#2,334.25,1.75,74,92.0
8310,F#2,334.25,0.25,48,92.0
8311,B-4,334.25,0.25,48,92.0
8312,G#3,334.5,1.5,74,92.0
8313,F#2,334.5,0.25,75,92.0
8314,B-4,334.5,0.25,75,92.0
8315,B1,334.75,0.25,62,92.0
8316,F#2,334.75,0.25,62,92.0
8317,E-4,334.75,0.25,62,92.0
8318,B-4,334.75,0.25,62,92.0
8319,B3,334.75,1.25,56,92.0
8320,G#4,334.75,1.25,56,92.0
8321,F4,334.75,1.25,56,92.0
8322,G3,334.775,723/250,52,92.0
8323,B4,334.775,383/1000,74,92.0
8324,B5,334.775,383/1000,74,92.0
8325,B4,334.775,383/1000,74,92.0
8326,D2,335.0,0.25,85,92.0
8327,F#2,335.0,0.25,85,92.0
8328,D4,335.0,0.25,85,92.0
8329,E-2,335.0,0.25,85,92.0
8330,B-4,335.0,0.25,85,92.0
8331,A4,335.0,0.25,85,92.0
8332,C4,335.025,107/40,68,92.0
8333,D2,335.25,0.25,49,92.0
8334,F#2,335.25,0.25,49,92.0
8335,D4,335.25,0.25,49,92.0
8336,E-2,335.25,0.25,49,92.0
8337,B-4,335.25,0.25,49,92.0
8338,A4,335.25,0.25,49,92.0
8339,E4,335.275,2333/1000,54,92.0
8340,B1,335.5,0.25,66,92.0
8341,F#2,335.5,0.25,66,92.0
8342,E-4,335.5,0.25,66,92.0
8343,B-4,335.5,0.25,66,92.0
8344,A4,335.5,0.25,66,92.0
8345,C#5,335.558,0.375,114,92.0
8346,C#6,335.558,0.375,114,92.0
8347,C#5,335.558,0.375,114,92.0
8348,G#2,335.75,0.25,87,92.0
8349,F#2,335.75,0.25,44,92.0
8350,E-4,335.75,0.25,44,92.0
8351,B-4,335.75,0.25,44,92.0
8352,A1,336.0,1633/1000,90,92.0
8353,B1,336.0,0.25,85,92.0
8354,F#2,336.0,0.25,85,92.0
8355,E-4,336.0,0.25,85,92.0
8356,B-4,336.0,0.25,85,92.0
8357,B4,336.025,74/125,85,92.0
8358,B5,336.025,74/125,85,92.0
8359,B4,336.025,74/125,85,92.0
8360,A2,336.033,3.5,74,92.0
8361,F#2,336.25,0.25,50,92.0
8362,E-4,336.25,0.25,50,92.0
8363,B-4,336.25,0.25,50,92.0
8364,E3,336.283,3717/1000,77,92.0
8365,F#2,336.5,0.25,80,92.0
8366,D4,336.5,0.25,80,92.0
8367,B-4,336.5,0.25,80,92.0
8368,A3,336.525,173/250,87,92.0
8369,G#4,336.542,77/250,87,92.0
8370,C#4,336.542,883/1000,84,92.0
8371,C#5,336.6,317/1000,80,92.0
8372,C#6,336.6,317/1000,80,92.0
8373,C#5,336.6,317/1000,80,92.0
8374,F#2,336.75,0.25,40,92.0
8375,B-4,336.75,0.25,40,92.0
8376,A4,336.792,833/1000,109,92.0
8377,B4,336.892,121/500,78,92.0
8378,B5,336.892,121/500,78,92.0
8379,B4,336.892,121/500,78,92.0
8380,D2,337.0,0.25,86,92.0
8381,F#2,337.0,0.25,86,92.0
8382,E-2,337.0,0.25,86,92.0
8383,B-4,337.0,0.25,86,92.0
8384,A4,337.0,0.25,86,92.0
8385,F#4,337.083,0.5,65,92.0
8386,G#4,337.158,367/1000,59,92.0
8387,G#5,337.158,367/1000,59,92.0
8388,G#4,337.158,367/1000,59,92.0
8389,F#2,337.25,0.25,64,92.0
8390,D4,337.25,0.25,64,92.0
8391,B-4,337.25,0.25,64,92.0
8392,A4,337.25,0.25,64,92.0
8393,A3,337.308,13/10,97,92.0
8394,F#4,337.492,3/20,68,92.0
8395,F#5,337.492,3/20,68,92.0
8396,F#4,337.492,3/20,68,92.0
8397,F#2,337.5,0.25,58,92.0
8398,E-4,337.5,0.25,58,92.0
8399,B-4,337.5,0.25,58,92.0
8400,A4,337.5,0.25,58,92.0
8401,C#4,337.525,29/20,74,92.0
8402,A1,337.75,0.125,90,92.0
8403,G#4,337.75,471/500,82,92.0
8404,B1,337.75,0.25,62,92.0
8405,F#2,337.75,0.25,62,92.0
8406,E-4,337.75,0.25,62,92.0
8407,B-4,337.75,0.25,62,92.0
8408,G#5,337.75,471/500,82,92.0
8409,G#4,337.75,471/500,82,92.0
8410,E4,337.783,1017/1000,94,92.0
8411,A1,338.0,19/10,94,92.0
8412,B1,338.0,0.25,83,92.0
8413,F#2,338.0,0.25,83,92.0
8414,B-4,338.0,0.25,83,92.0
8415,F#2,338.25,0.25,55,92.0
8416,B-4,338.25,0.25,55,92.0
8417,F#4,338.258,121/500,71,92.0
8418,F#5,338.258,121/500,71,92.0
8419,F#4,338.258,121/500,71,92.0
8420,F#2,338.5,0.25,75,92.0
8421,B-4,338.5,0.25,75,92.0
8422,F#4,338.725,11/20,66,92.0
8423,F#5,338.725,11/20,66,92.0
8424,F#4,338.725,11/20,66,92.0
8425,F#2,338.75,0.25,53,92.0
8426,E-4,338.75,0.25,53,92.0
8427,B-4,338.75,0.25,53,92.0
8428,C4,338.775,1.75,65,92.0
8429,A3,338.825,221/500,84,92.0
8430,D2,339.0,0.25,85,92.0
8431,F#2,339.0,0.25,85,92.0
8432,D4,339.0,0.25,85,92.0
8433,E-2,339.0,0.25,85,92.0
8434,B-4,339.0,0.25,85,92.0
8435,A4,339.0,0.25,85,92.0
8436,G4,339.025,1.5,53,92.0
8437,D4,339.05,433/1000,105,92.0
8438,D2,339.25,0.25,50,92.0
8439,F#2,339.25,0.25,50,92.0
8440,D4,339.25,0.25,50,92.0
8441,E-2,339.25,0.25,50,92.0
8442,B-4,339.25,0.25,50,92.0
8443,A4,339.25,0.25,50,92.0
8444,C#4,339.275,267/1000,87,92.0
8445,A4,339.275,1.25,49,92.0
8446,E4,339.317,2/5,60,92.0
8447,E5,339.317,2/5,60,92.0
8448,E4,339.317,2/5,60,92.0
8449,F#2,339.5,0.25,66,92.0
8450,E-4,339.5,0.25,66,92.0
8451,B-4,339.5,0.25,66,92.0
8452,A4,339.5,0.25,66,92.0
8453,B3,339.533,71/500,87,92.0
8454,B1,339.75,0.25,55,92.0
8455,F#2,339.75,0.25,55,92.0
8456,E-4,339.75,0.25,55,92.0
8457,B-4,339.75,0.25,55,92.0
8458,A3,339.8,117/1000,74,92.0
8459,E4,339.817,183/1000,45,92.0
8460,E5,339.817,183/1000,45,92.0
8461,E4,339.817,183/1000,45,92.0
8462,A1,340.0,8/5,74,92.0
8463,E3,340.0,1/40,77,92.0
8464,E4,340.0,1/40,45,92.0
8465,B1,340.0,0.25,85,92.0
8466,F#2,340.0,0.25,85,92.0
8467,E-4,340.0,0.25,85,92.0
8468,B-4,340.0,0.25,85,92.0
8469,E5,340.0,1/40,45,92.0
8470,E4,340.0,1/40,45,92.0
8471,B3,340.033,1771/500,74,92.0
8472,A2,340.042,3933/1000,71,92.0
8473,G#3,340.05,221/500,63,92.0
8474,G#4,340.067,167/1000,76,92.0
8475,F#4,340.067,167/1000,76,92.0
8476,G#5,340.067,167/1000,76,92.0
8477,G#4,340.067,167/1000,76,92.0
8478,F#5,340.067,167/1000,76,92.0
8479,F#4,340.067,167/1000,76,92.0
8480,F#2,340.25,0.25,52,92.0
8481,E-4,340.25,0.25,52,92.0
8482,B-4,340.25,0.25,52,92.0
8483,E3,340.325,101/125,77,92.0
8484,F#2,340.5,0.25,80,92.0
8485,D4,340.5,0.25,80,92.0
8486,B-4,340.5,0.25,80,92.0
8487,G4,340.525,71/40,55,92.0
8488,E4,340.525,71/40,55,92.0
8489,C#4,340.525,71/40,55,92.0
8490,B-4,340.525,71/40,55,92.0
8491,G#3,340.567,47/20,74,92.0
8492,B1,340.75,0.25,55,92.0
8493,F#2,340.75,0.25,55,92.0
8494,E-4,340.75,0.25,55,92.0
8495,B-4,340.75,0.25,55,92.0
8496,E4,340.792,127/40,94,92.0
8497,D2,341.0,0.25,83,92.0
8498,F#2,341.0,0.25,83,92.0
8499,E-4,341.0,0.25,83,92.0
8500,E-2,341.0,0.25,83,92.0
8501,B-4,341.0,0.25,83,92.0
8502,A4,341.0,0.25,83,92.0
8503,F#2,341.25,0.25,59,92.0
8504,D4,341.25,0.25,59,92.0
8505,B-4,341.25,0.25,59,92.0
8506,A4,341.25,0.25,59,92.0
8507,E3,341.267,176/125,90,92.0
8508,F#2,341.5,0.25,58,92.0
8509,E-4,341.5,0.25,58,92.0
8510,B-4,341.5,0.25,58,92.0
8511,A4,341.5,0.25,58,92.0
8512,A1,341.75,117/1000,87,92.0
8513,B1,341.75,0.25,78,92.0
8514,B-2,341.75,0.25,78,92.0
8515,E-4,341.75,0.25,78,92.0
8516,B-4,341.75,0.25,78,92.0
8517,A1,342.0,1783/1000,84,92.0
8518,F#2,342.0,0.25,80,92.0
8519,B-4,342.0,0.25,80,92.0
8520,D2,342.25,0.25,56,92.0
8521,B-4,342.25,0.25,56,92.0
8522,E-4,342.292,3/20,74,92.0
8523,E-5,342.292,3/20,74,92.0
8524,E-4,342.292,3/20,74,92.0
8525,F#2,342.5,0.25,80,92.0
8526,B-4,342.5,0.25,80,92.0
8527,E4,342.508,26/125,78,92.0
8528,E5,342.508,26/125,78,92.0
8529,E4,342.508,26/125,78,92.0
8530,F#4,342.733,0.125,74,92.0
8531,F#5,342.733,0.125,74,92.0
8532,F#4,342.733,0.125,74,92.0
8533,B1,342.75,0.25,62,92.0
8534,F#2,342.75,0.25,62,92.0
8535,E-4,342.75,0.25,62,92.0
8536,B-4,342.75,0.25,62,92.0
8537,E-4,342.775,1.75,65,92.0
8538,E3,342.783,149/125,81,92.0
8539,G#4,343.0,3/20,127,92.0
8540,D2,343.0,0.25,85,92.0
8541,F#2,343.0,0.25,85,92.0
8542,D4,343.0,0.25,85,92.0
8543,E-2,343.0,0.25,85,92.0
8544,B-4,343.0,0.25,85,92.0
8545,A4,343.0,0.25,85,92.0
8546,G#5,343.0,3/20,127,92.0
8547,G#4,343.0,3/20,127,92.0
8548,G#4,343.025,1.5,53,92.0
8549,A3,343.042,227/250,105,92.0
8550,D2,343.25,0.25,49,92.0
8551,F#2,343.25,0.25,49,92.0
8552,D4,343.25,0.25,49,92.0
8553,E-2,343.25,0.25,49,92.0
8554,B-4,343.25,0.25,49,92.0
8555,A4,343.25,0.25,49,92.0
8556,A4,343.267,3/20,109,92.0
8557,A5,343.267,3/20,109,92.0
8558,A4,343.267,3/20,109,92.0
8559,B4,343.275,1.25,49,92.0
8560,B1,343.5,0.25,66,92.0
8561,F#2,343.5,0.25,66,92.0
8562,E-4,343.5,0.25,66,92.0
8563,B-4,343.5,0.25,66,92.0
8564,A4,343.5,0.25,66,92.0
8565,B4,343.517,183/1000,82,92.0
8566,B5,343.517,183/1000,82,92.0
8567,B4,343.517,183/1000,82,92.0
8568,C#4,343.533,0.375,74,92.0
8569,E1,343.75,167/1000,90,92.0
8570,F#2,343.75,0.25,44,92.0
8571,E-4,343.75,0.25,44,92.0
8572,B-4,343.75,0.25,44,92.0
8573,C#5,343.767,3/20,109,92.0
8574,C#6,343.767,3/20,109,92.0
8575,C#5,343.767,3/20,109,92.0
8576,G#2,344.0,779/500,97,92.0
8577,E-5,344.0,2/5,127,92.0
8578,B1,344.0,0.25,85,92.0
8579,F#2,344.0,0.25,85,92.0
8580,E-4,344.0,0.25,85,92.0
8581,B-4,344.0,0.25,85,92.0
8582,E-6,344.0,2/5,127,92.0
8583,E-5,344.0,2/5,127,92.0
8584,G#2,344.25,1.75,74,92.0
8585,F#2,344.25,0.25,50,92.0
8586,E-4,344.25,0.25,50,92.0
8587,B-4,344.25,0.25,50,92.0
8588,E-5,344.492,24/125,124,92.0
8589,E-6,344.492,24/125,124,92.0
8590,E-5,344.492,24/125,124,92.0
8591,B3,344.5,1.5,74,92.0
8592,F#2,344.5,0.25,80,92.0
8593,D4,344.5,0.25,80,92.0
8594,B-4,344.5,0.25,80,92.0
8595,G4,344.525,71/40,55,92.0
8596,E-4,344.525,71/40,55,92.0
8597,B3,344.525,71/40,55,92.0
8598,G#4,344.525,71/40,55,92.0
8599,F#2,344.75,0.25,40,92.0
8600,B-4,344.75,0.25,40,92.0
8601,E-4,344.75,1.25,56,92.0
8602,B4,344.75,1.25,56,92.0
8603,G#4,344.75,1.25,56,92.0
8604,E-5,344.8,0.25,114,92.0
8605,E-6,344.8,0.25,114,92.0
8606,E-5,344.8,0.25,114,92.0
8607,D2,345.0,0.25,86,92.0
8608,F#2,345.0,0.25,86,92.0
8609,E-2,345.0,0.25,86,92.0
8610,B-4,345.0,0.25,86,92.0
8611,A4,345.0,0.25,86,92.0
8612,C#5,345.108,1/40,80,92.0
8613,C#6,345.108,1/40,80,92.0
8614,C#5,345.108,1/40,80,92.0
8615,F#2,345.25,0.25,64,92.0
8616,D4,345.25,0.25,64,92.0
8617,B-4,345.25,0.25,64,92.0
8618,A4,345.25,0.25,64,92.0
8619,E-5,345.483,317/1000,124,92.0
8620,E-6,345.483,317/1000,124,92.0
8621,E-5,345.483,317/1000,124,92.0
8622,F#2,345.5,0.25,58,92.0
8623,E-4,345.5,0.25,58,92.0
8624,B-4,345.5,0.25,58,92.0
8625,A4,345.5,0.25,58,92.0
8626,G#2,345.75,121/500,101,92.0
8627,B1,345.75,0.25,62,92.0
8628,F#2,345.75,0.25,62,92.0
8629,E-4,345.75,0.25,62,92.0
8630,B-4,345.75,0.25,62,92.0
8631,C#5,345.817,433/1000,95,92.0
8632,C#6,345.817,433/1000,95,92.0
8633,C#5,345.817,433/1000,95,92.0
8634,G#2,346.0,779/500,97,92.0
8635,B1,346.0,0.25,83,92.0
8636,F#2,346.0,0.25,83,92.0
8637,B-4,346.0,0.25,83,92.0
8638,G4,346.0,2.0,47,92.0
8639,G#2,346.0,2.0,47,92.0
8640,G#4,346.0,2.0,47,92.0
8641,B3,346.0,2.0,47,92.0
8642,G#3,346.0,2.0,47,92.0
8643,F#2,346.25,0.25,48,92.0
8644,B-4,346.25,0.25,48,92.0
8645,B4,346.3,221/500,91,92.0
8646,B5,346.3,221/500,91,92.0
8647,B4,346.3,221/500,91,92.0
8648,F#2,346.5,0.25,75,92.0
8649,B-4,346.5,0.25,75,92.0
8650,F#2,346.75,0.25,53,92.0
8651,E-4,346.75,0.25,53,92.0
8652,B-4,346.75,0.25,53,92.0
8653,B3,346.775,1.75,65,92.0
8654,G#4,346.775,49/40,80,92.0
8655,G#5,346.775,49/40,80,92.0
8656,G#4,346.775,49/40,80,92.0
8657,D2,347.0,0.25,85,92.0
8658,F#2,347.0,0.25,85,92.0
8659,D4,347.0,0.25,85,92.0
8660,E-2,347.0,0.25,85,92.0
8661,B-4,347.0,0.25,85,92.0
8662,A4,347.0,0.25,85,92.0
8663,F#4,347.025,1.5,53,92.0
8664,D2,347.25,0.25,45,92.0
8665,F#2,347.25,0.25,45,92.0
8666,D4,347.25,0.25,45,92.0
8667,E-2,347.25,0.25,45,92.0
8668,B-4,347.25,0.25,45,92.0
8669,A4,347.25,0.25,45,92.0
8670,G#4,347.275,1.25,49,92.0
8671,F#2,347.5,0.25,66,92.0
8672,E-4,347.5,0.25,66,92.0
8673,B-4,347.5,0.25,66,92.0
8674,A4,347.5,0.25,66,92.0
8675,G#2,347.75,121/500,101,92.0
8676,B1,347.75,0.25,55,92.0
8677,F#2,347.75,0.25,55,92.0
8678,E-4,347.75,0.25,55,92.0
8679,B-4,347.75,0.25,55,92.0
8680,G#2,348.0,1633/1000,101,92.0
8681,G#4,348.0,0.125,80,92.0
8682,B1,348.0,0.25,85,92.0
8683,F#2,348.0,0.25,85,92.0
8684,E-4,348.0,0.25,85,92.0
8685,B-4,348.0,0.25,85,92.0
8686,G#5,348.0,0.125,80,92.0
8687,G#4,348.0,0.125,80,92.0
8688,G#2,348.25,1.75,74,92.0
8689,F#2,348.25,0.25,52,92.0
8690,E-4,348.25,0.25,52,92.0
8691,B-4,348.25,0.25,52,92.0
8692,G#3,348.5,1.5,74,92.0
8693,F#2,348.5,0.25,80,92.0
8694,D4,348.5,0.25,80,92.0
8695,B-4,348.5,0.25,80,92.0
8696,E-5,348.517,23/250,127,92.0
8697,E-6,348.517,23/250,127,92.0
8698,E-5,348.517,23/250,127,92.0
8699,F4,348.525,71/40,55,92.0
8700,E-4,348.525,71/40,55,92.0
8701,B3,348.525,71/40,55,92.0
8702,G#4,348.525,71/40,55,92.0
8703,E-5,348.742,183/1000,114,92.0
8704,E-6,348.742,183/1000,114,92.0
8705,E-5,348.742,183/1000,114,92.0
8706,B1,348.75,0.25,57,92.0
8707,F#2,348.75,0.25,57,92.0
8708,B-4,348.75,0.25,57,92.0
8709,B3,348.75,1.25,56,92.0
8710,G#4,348.75,1.25,56,92.0
8711,F#4,348.75,1.25,56,92.0
8712,D2,349.0,0.25,86,92.0
8713,F#2,349.0,0.25,86,92.0
8714,E-2,349.0,0.25,86,92.0
8715,B-4,349.0,0.25,86,92.0
8716,A4,349.0,0.25,86,92.0
8717,C#5,349.042,13/40,63,92.0
8718,C#6,349.042,13/40,63,92.0
8719,C#5,349.042,13/40,63,92.0
8720,F#2,349.25,0.25,59,92.0
8721,D4,349.25,0.25,59,92.0
8722,B-4,349.25,0.25,59,92.0
8723,A4,349.25,0.25,59,92.0
8724,E-5,349.483,129/500,109,92.0
8725,E-6,349.483,129/500,109,92.0
8726,E-5,349.483,129/500,109,92.0
8727,F#2,349.5,0.25,58,92.0
8728,E-4,349.5,0.25,58,92.0
8729,B-4,349.5,0.25,58,92.0
8730,A4,349.5,0.25,58,92.0
8731,G#2,349.75,1/10,77,92.0
8732,B1,349.75,0.25,65,92.0
8733,F#2,349.75,0.25,65,92.0
8734,E-4,349.75,0.25,65,92.0
8735,B-4,349.75,0.25,65,92.0
8736,C#5,349.783,433/1000,80,92.0
8737,C#6,349.783,433/1000,80,92.0
8738,C#5,349.783,433/1000,80,92.0
8739,G#2,350.0,779/500,97,92.0
8740,F#2,350.0,0.25,80,92.0
8741,B-4,350.0,0.25,80,92.0
8742,G#2,350.25,1.75,74,92.0
8743,F#2,350.25,0.25,48,92.0
8744,B-4,350.25,0.25,48,92.0
8745,B4,350.258,49/125,82,92.0
8746,B5,350.258,49/125,82,92.0
8747,B4,350.258,49/125,82,92.0
8748,G#3,350.5,1.5,74,92.0
8749,F#2,350.5,0.25,75,92.0
8750,B-4,350.5,0.25,75,92.0
8751,G#4,350.525,4.0,59,92.0
8752,E4,350.525,4.0,59,92.0
8753,C#4,350.525,4.0,59,92.0
8754,B4,350.525,4.0,59,92.0
8755,B4,350.725,19/40,82,92.0
8756,B5,350.725,19/40,82,92.0
8757,B4,350.725,19/40,82,92.0
8758,B1,350.75,0.25,62,92.0
8759,F#2,350.75,0.25,62,92.0
8760,E-4,350.75,0.25,62,92.0
8761,B-4,350.75,0.25,62,92.0
8762,B3,350.75,1.25,56,92.0
8763,G#4,350.75,1.25,56,92.0
8764,F4,350.75,1.25,56,92.0
8765,D2,351.0,0.25,85,92.0
8766,F#2,351.0,0.25,85,92.0
8767,D4,351.0,0.25,85,92.0
8768,E-2,351.0,0.25,85,92.0
8769,B-4,351.0,0.25,85,92.0
8770,A4,351.0,0.25,85,92.0
8771,D2,351.25,0.25,49,92.0
8772,F#2,351.25,0.25,49,92.0
8773,D4,351.25,0.25,49,92.0
8774,E-2,351.25,0.25,49,92.0
8775,B-4,351.25,0.25,49,92.0
8776,A4,351.25,0.25,49,92.0
8777,A4,351.275,1/10,43,92.0
8778,A5,351.275,1/10,43,92.0
8779,A4,351.275,1/10,43,92.0
8780,C#5,351.475,317/1000,109,92.0
8781,C#6,351.475,317/1000,109,92.0
8782,C#5,351.475,317/1000,109,92.0
8783,B1,351.5,0.25,66,92.0
8784,F#2,351.5,0.25,66,92.0
8785,E-4,351.5,0.25,66,92.0
8786,B-4,351.5,0.25,66,92.0
8787,A4,351.5,0.25,66,92.0
8788,G#2,351.75,0.25,101,92.0
8789,A4,351.75,167/1000,44,92.0
8790,F#2,351.75,0.25,44,92.0
8791,E-4,351.75,0.25,44,92.0
8792,B-4,351.75,0.25,44,92.0
8793,A5,351.75,167/1000,44,92.0
8794,A4,351.75,167/1000,44,92.0
8795,B4,351.967,33/1000,88,92.0
8796,B5,351.967,33/1000,88,92.0
8797,B4,351.967,33/1000,88,92.0
8798,A1,352.0,1633/1000,90,92.0
8799,A2,352.0,823/250,87,92.0
8800,B4,352.0,49/125,88,92.0
8801,B1,352.0,0.25,85,92.0
8802,F#2,352.0,0.25,85,92.0
8803,E-4,352.0,0.25,85,92.0
8804,B-4,352.0,0.25,85,92.0
8805,B5,352.0,49/125,88,92.0
8806,B4,352.0,49/125,88,92.0
8807,E3,352.25,2283/1000,60,92.0
8808,F#2,352.25,0.25,50,92.0
8809,E-4,352.25,0.25,50,92.0
8810,B-4,352.25,0.25,50,92.0
8811,C#5,352.375,77/250,74,92.0
8812,C#6,352.375,77/250,74,92.0
8813,C#5,352.375,77/250,74,92.0
8814,A3,352.5,12/5,94,92.0
8815,F#2,352.5,0.25,80,92.0
8816,D4,352.5,0.25,80,92.0
8817,B-4,352.5,0.25,80,92.0
8818,B4,352.683,129/500,71,92.0
8819,B5,352.683,129/500,71,92.0
8820,B4,352.683,129/500,71,92.0
8821,E4,352.75,523/250,87,92.0
8822,F#2,352.75,0.25,40,92.0
8823,B-4,352.75,0.25,40,92.0
8824,G#4,352.75,1079/500,78,92.0
8825,B3,352.75,1079/500,78,92.0
8826,D2,353.0,0.25,86,92.0
8827,F#2,353.0,0.25,86,92.0
8828,E-2,353.0,0.25,86,92.0
8829,B-4,353.0,0.25,86,92.0
8830,A4,353.0,0.25,86,92.0
8831,G#4,353.042,283/1000,73,92.0
8832,G#5,353.042,283/1000,73,92.0
8833,G#4,353.042,283/1000,73,92.0
8834,F#2,353.25,0.25,64,92.0
8835,D4,353.25,0.25,64,92.0
8836,B-4,353.25,0.25,64,92.0
8837,A4,353.25,0.25,64,92.0
8838,F#4,353.483,1/5,74,92.0
8839,F#5,353.483,1/5,74,92.0
8840,F#4,353.483,1/5,74,92.0
8841,F#2,353.5,0.25,58,92.0
8842,E-4,353.5,0.25,58,92.0
8843,B-4,353.5,0.25,58,92.0
8844,A4,353.5,0.25,58,92.0
8845,A1,353.75,0.125,90,92.0
8846,B1,353.75,0.25,62,92.0
8847,F#2,353.75,0.25,62,92.0
8848,E-4,353.75,0.25,62,92.0
8849,B-4,353.75,0.25,62,92.0
8850,G#4,353.775,767/1000,114,92.0
8851,G#5,353.775,767/1000,114,92.0
8852,G#4,353.775,767/1000,114,92.0
8853,A1,354.0,19/10,94,92.0
8854,B1,354.0,0.25,83,92.0
8855,F#2,354.0,0.25,83,92.0
8856,B-4,354.0,0.25,83,92.0
8857,F#2,354.25,0.25,55,92.0
8858,B-4,354.25,0.25,55,92.0
8859,F#4,354.267,79/500,74,92.0
8860,F#5,354.267,79/500,74,92.0
8861,F#4,354.267,79/500,74,92.0
8862,F#2,354.5,0.25,75,92.0
8863,B-4,354.5,0.25,75,92.0
8864,E3,354.75,271/500,81,92.0
8865,F#2,354.75,0.25,53,92.0
8866,E-4,354.75,0.25,53,92.0
8867,B-4,354.75,0.25,53,92.0
8868,E4,354.767,567/1000,62,92.0
8869,E5,354.767,567/1000,62,92.0
8870,E4,354.767,567/1000,62,92.0
8871,D2,355.0,0.25,85,92.0
8872,F#2,355.0,0.25,85,92.0
8873,D4,355.0,0.25,85,92.0
8874,E-2,355.0,0.25,85,92.0
8875,B-4,355.0,0.25,85,92.0
8876,A4,355.0,0.25,85,92.0
8877,G#4,355.0,73/250,72,92.0
8878,B3,355.0,73/250,72,92.0
8879,A3,355.0,73/250,72,92.0
8880,E4,355.0,73/250,72,92.0
8881,D2,355.25,0.25,50,92.0
8882,F#2,355.25,0.25,50,92.0
8883,D4,355.25,0.25,50,92.0
8884,E-2,355.25,0.25,50,92.0
8885,B-4,355.25,0.25,50,92.0
8886,A4,355.25,0.25,50,92.0
8887,A2,355.5,0.5,74,92.0
8888,A3,355.5,0.5,71,92.0
8889,E4,355.5,367/1000,52,92.0
8890,F#2,355.5,0.25,66,92.0
8891,E-4,355.5,0.25,66,92.0
8892,B-4,355.5,0.25,66,92.0
8893,A4,355.5,0.25,66,92.0
8894,A4,355.5,0.5,86,92.0
8895,C#4,355.5,0.5,86,92.0
8896,E5,355.5,367/1000,52,92.0
8897,E4,355.5,367/1000,52,92.0
8898,B1,355.75,0.25,55,92.0
8899,F#2,355.75,0.25,55,92.0
8900,E-4,355.75,0.25,55,92.0
8901,B-4,355.75,0.25,55,92.0
8902,F#4,355.8,1/5,49,92.0
8903,F#5,355.8,1/5,49,92.0
8904,F#4,355.8,1/5,49,92.0
8905,A1,356.0,8/5,74,92.0
8906,A2,356.0,1829/500,74,92.0
8907,A3,356.0,223/250,71,92.0
8908,F#4,356.0,83/1000,49,92.0
8909,B1,356.0,0.25,85,92.0
8910,F#2,356.0,0.25,85,92.0
8911,E-4,356.0,0.25,85,92.0
8912,B-4,356.0,0.25,85,92.0
8913,A4,356.0,1333/1000,86,92.0
8914,C#4,356.0,1333/1000,86,92.0
8915,F#5,356.0,83/1000,49,92.0
8916,F#4,356.0,83/1000,49,92.0
8917,G#4,356.033,617/1000,124,92.0
8918,G#5,356.033,617/1000,124,92.0
8919,G#4,356.033,617/1000,124,92.0
8920,F#2,356.25,0.25,52,92.0
8921,E-4,356.25,0.25,52,92.0
8922,B-4,356.25,0.25,52,92.0
8923,F#2,356.5,0.25,80,92.0
8924,D4,356.5,0.25,80,92.0
8925,B-4,356.5,0.25,80,92.0
8926,E3,356.75,29/10,84,92.0
8927,B1,356.75,0.25,57,92.0
8928,F#2,356.75,0.25,57,92.0
8929,B-4,356.75,0.25,57,92.0
8930,D2,357.0,0.25,86,92.0
8931,F#2,357.0,0.25,86,92.0
8932,E-2,357.0,0.25,86,92.0
8933,B-4,357.0,0.25,86,92.0
8934,A4,357.0,0.25,86,92.0
8935,A3,357.25,1417/1000,94,92.0
8936,F#2,357.25,0.25,59,92.0
8937,D4,357.25,0.25,59,92.0
8938,B-4,357.25,0.25,59,92.0
8939,A4,357.25,0.25,59,92.0
8940,F#2,357.5,0.25,58,92.0
8941,E-4,357.5,0.25,58,92.0
8942,B-4,357.5,0.25,58,92.0
8943,A4,357.5,0.25,58,92.0
8944,G#4,357.525,3.0,59,92.0
8945,E4,357.525,3.0,59,92.0
8946,C#4,357.525,3.0,59,92.0
8947,B4,357.525,3.0,59,92.0
8948,A1,357.75,117/1000,87,92.0
8949,C#5,357.75,279/500,77,92.0
8950,B1,357.75,0.25,65,92.0
8951,F#2,357.75,0.25,65,92.0
8952,E-4,357.75,0.25,65,92.0
8953,B-4,357.75,0.25,65,92.0
8954,A1,358.0,1783/1000,84,92.0
8955,F#2,358.0,0.25,80,92.0
8956,B-4,358.0,0.25,80,92.0
8957,B4,358.25,3/10,77,92.0
8958,F#2,358.25,0.25,48,92.0
8959,B-4,358.25,0.25,48,92.0
8960,E4,358.333,79/500,76,92.0
8961,E5,358.333,79/500,76,92.0
8962,E4,358.333,79/500,76,92.0
8963,A4,358.5,533/1000,97,92.0
8964,F#2,358.5,0.25,75,92.0
8965,B-4,358.5,0.25,75,92.0
8966,F4,358.567,233/1000,91,92.0
8967,F5,358.567,233/1000,91,92.0
8968,F4,358.567,233/1000,91,92.0
8969,A3,358.75,9/10,101,92.0
8970,B1,358.75,0.25,62,92.0
8971,F#2,358.75,0.25,62,92.0
8972,E-4,358.75,0.25,62,92.0
8973,B-4,358.75,0.25,62,92.0
8974,G4,358.792,11/40,98,92.0
8975,G5,358.792,11/40,98,92.0
8976,G4,358.792,11/40,98,92.0
8977,F#4,359.0,3/5,97,92.0
8978,D2,359.0,0.25,85,92.0
8979,F#2,359.0,0.25,85,92.0
8980,D4,359.0,0.25,85,92.0
8981,E-2,359.0,0.25,85,92.0
8982,B-4,359.0,0.25,85,92.0
8983,A4,359.0,0.25,85,92.0
8984,A4,359.017,121/500,95,92.0
8985,A5,359.017,121/500,95,92.0
8986,A4,359.017,121/500,95,92.0
8987,D2,359.25,0.25,49,92.0
8988,F#2,359.25,0.25,49,92.0
8989,D4,359.25,0.25,49,92.0
8990,E-2,359.25,0.25,49,92.0
8991,B-4,359.25,0.25,49,92.0
8992,A4,359.25,0.25,49,92.0
8993,B-4,359.325,0.25,104,92.0
8994,B-5,359.325,0.25,104,92.0
8995,B-4,359.325,0.25,104,92.0
8996,B1,359.5,0.25,66,92.0
8997,F#2,359.5,0.25,66,92.0
8998,E-4,359.5,0.25,66,92.0
8999,B-4,359.5,0.25,66,92.0
9000,A4,359.5,0.25,66,92.0
9001,C5,359.55,121/500,109,92.0
9002,C6,359.55,121/500,109,92.0
9003,C5,359.55,121/500,109,92.0
9004,E1,359.75,167/1000,90,92.0
9005,F#2,359.75,0.25,44,92.0
9006,E-4,359.75,0.25,44,92.0
9007,B-4,359.75,0.25,44,92.0
9008,D5,359.767,3/20,95,92.0
9009,D6,359.767,3/20,95,92.0
9010,D5,359.767,3/20,95,92.0
9011,A1,360.0,201/125,90,92.0
9012,B1,360.0,0.25,85,92.0
9013,F#2,360.0,0.25,85,92.0
9014,E-4,360.0,0.25,85,92.0
9015,B-4,360.0,0.25,85,92.0
9016,E5,360.017,417/1000,104,92.0
9017,E6,360.017,417/1000,104,92.0
9018,E5,360.017,417/1000,104,92.0
9019,A2,360.25,1.75,74,92.0
9020,F#2,360.25,0.25,50,92.0
9021,E-4,360.25,0.25,50,92.0
9022,B-4,360.25,0.25,50,92.0
9023,E3,360.5,1.5,74,92.0
9024,F#2,360.5,0.25,80,92.0
9025,D4,360.5,0.25,80,92.0
9026,B-4,360.5,0.25,80,92.0
9027,E5,360.508,1/5,98,92.0
9028,E6,360.508,1/5,98,92.0
9029,E5,360.508,1/5,98,92.0
9030,G#3,360.525,1.0,44,92.0
9031,F#2,360.75,0.25,40,92.0
9032,B-4,360.75,0.25,40,92.0
9033,A3,360.75,1.25,56,92.0
9034,E4,360.75,1.25,56,92.0
9035,C4,360.75,1.25,56,92.0
9036,E5,360.783,3/10,88,92.0
9037,E6,360.783,3/10,88,92.0
9038,E5,360.783,3/10,88,92.0
9039,D2,361.0,0.25,86,92.0
9040,F#2,361.0,0.25,86,92.0
9041,E-2,361.0,0.25,86,92.0
9042,B-4,361.0,0.25,86,92.0
9043,A4,361.0,0.25,86,92.0
9044,C#4,361.025,0.5,59,92.0
9045,D5,361.1,367/1000,85,92.0
9046,D6,361.1,367/1000,85,92.0
9047,D5,361.1,367/1000,85,92.0
9048,F#2,361.25,0.25,64,92.0
9049,D4,361.25,0.25,64,92.0
9050,B-4,361.25,0.25,64,92.0
9051,A4,361.25,0.25,64,92.0
9052,E5,361.492,367/1000,82,92.0
9053,E6,361.492,367/1000,82,92.0
9054,E5,361.492,367/1000,82,92.0
9055,F#2,361.5,0.25,58,92.0
9056,E-4,361.5,0.25,58,92.0
9057,B-4,361.5,0.25,58,92.0
9058,A4,361.5,0.25,58,92.0
9059,A1,361.75,0.125,87,92.0
9060,B1,361.75,0.25,62,92.0
9061,F#2,361.75,0.25,62,92.0
9062,E-4,361.75,0.25,62,92.0
9063,B-4,361.75,0.25,62,92.0
9064,E-4,361.775,1.75,65,92.0
9065,D5,361.792,19/40,74,92.0
9066,D6,361.792,19/40,74,92.0
9067,D5,361.792,19/40,74,92.0
9068,A1,362.0,1617/1000,94,92.0
9069,B1,362.0,0.25,83,92.0
9070,F#2,362.0,0.25,83,92.0
9071,B-4,362.0,0.25,83,92.0
9072,G#4,362.0,7/40,68,92.0
9073,E4,362.0,7/40,68,92.0
9074,C4,362.0,7/40,68,92.0
9075,A4,362.0,7/40,68,92.0
9076,G#4,362.025,1.5,53,92.0
9077,F#2,362.25,0.25,55,92.0
9078,B-4,362.25,0.25,55,92.0
9079,G#4,362.25,0.125,81,92.0
9080,E4,362.25,0.125,81,92.0
9081,C4,362.25,0.125,81,92.0
9082,A4,362.25,0.125,81,92.0
9083,B4,362.275,1.25,49,92.0
9084,C5,362.275,229/500,70,92.0
9085,C6,362.275,229/500,70,92.0
9086,C5,362.275,229/500,70,92.0
9087,F#2,362.5,0.25,75,92.0
9088,B-4,362.5,0.25,75,92.0
9089,A4,362.733,1267/1000,67,92.0
9090,A5,362.733,1267/1000,67,92.0
9091,A4,362.733,1267/1000,67,92.0
9092,F#2,362.75,0.25,53,92.0
9093,E-4,362.75,0.25,53,92.0
9094,B-4,362.75,0.25,53,92.0
9095,D2,363.0,0.25,85,92.0
9096,F#2,363.0,0.25,85,92.0
9097,D4,363.0,0.25,85,92.0
9098,E-2,363.0,0.25,85,92.0
9099,B-4,363.0,0.25,85,92.0
9100,A4,363.0,0.25,85,92.0
9101,D2,363.25,0.25,50,92.0
9102,F#2,363.25,0.25,50,92.0
9103,D4,363.25,0.25,50,92.0
9104,E-2,363.25,0.25,50,92.0
9105,B-4,363.25,0.25,50,92.0
9106,A4,363.25,0.25,50,92.0
9107,F#2,363.5,0.25,66,92.0
9108,E-4,363.5,0.25,66,92.0
9109,B-4,363.5,0.25,66,92.0
9110,A4,363.5,0.25,66,92.0
9111,A1,363.75,121/500,87,92.0
9112,B1,363.75,0.25,55,92.0
9113,F#2,363.75,0.25,55,92.0
9114,E-4,363.75,0.25,55,92.0
9115,B-4,363.75,0.25,55,92.0
9116,B3,363.775,1.75,65,92.0
9117,A1,364.0,779/500,97,92.0
9118,B1,364.0,0.25,85,92.0
9119,F#2,364.0,0.25,85,92.0
9120,E-4,364.0,0.25,85,92.0
9121,B-4,364.0,0.25,85,92.0
9122,G4,364.025,1.5,53,92.0
9123,A2,364.25,1.75,74,92.0
9124,F#2,364.25,0.25,52,92.0
9125,E-4,364.25,0.25,52,92.0
9126,B-4,364.25,0.25,52,92.0
9127,G#4,364.275,1.25,49,92.0
9128,G3,364.5,1.5,85,92.0
9129,F#2,364.5,0.25,80,92.0
9130,D4,364.5,0.25,80,92.0
9131,B-4,364.5,0.25,80,92.0
9132,E5,364.517,283/1000,112,92.0
9133,A4,364.517,283/1000,112,92.0
9134,E6,364.517,283/1000,112,92.0
9135,E5,364.517,283/1000,112,92.0
9136,A5,364.517,283/1000,112,92.0
9137,A4,364.517,283/1000,112,92.0
9138,B1,364.75,0.25,68,92.0
9139,B-2,364.75,0.25,68,92.0
9140,E-4,364.75,0.25,68,92.0
9141,B-4,364.75,0.25,68,92.0
9142,G4,364.75,1.25,72,92.0
9143,C4,364.75,1.25,72,92.0
9144,E4,364.75,1.25,72,92.0
9145,A4,364.9,129/500,96,92.0
9146,E5,364.9,129/500,96,92.0
9147,A5,364.9,129/500,96,92.0
9148,A4,364.9,129/500,96,92.0
9149,E6,364.9,129/500,96,92.0
9150,E5,364.9,129/500,96,92.0
9151,D2,365.0,0.25,86,92.0
9152,F#2,365.0,0.25,86,92.0
9153,E-2,365.0,0.25,86,92.0
9154,B-4,365.0,0.25,86,92.0
9155,A4,365.0,0.25,86,92.0
9156,F#2,365.25,0.25,59,92.0
9157,D4,365.25,0.25,59,92.0
9158,B-4,365.25,0.25,59,92.0
9159,A4,365.25,0.25,59,92.0
9160,D5,365.275,217/1000,68,92.0
9161,A4,365.275,217/1000,68,92.0
9162,D6,365.275,217/1000,68,92.0
9163,D5,365.275,217/1000,68,92.0
9164,A5,365.275,217/1000,68,92.0
9165,A4,365.275,217/1000,68,92.0
9166,F#2,365.5,0.25,58,92.0
9167,E-4,365.5,0.25,58,92.0
9168,B-4,365.5,0.25,58,92.0
9169,A4,365.5,0.25,58,92.0
9170,F#4,365.525,71/40,55,92.0
9171,E-4,365.525,71/40,55,92.0
9172,B3,365.525,71/40,55,92.0
9173,G#4,365.525,71/40,55,92.0
9174,E5,365.642,217/1000,79,92.0
9175,A4,365.642,217/1000,79,92.0
9176,E6,365.642,217/1000,79,92.0
9177,E5,365.642,217/1000,79,92.0
9178,A5,365.642,217/1000,79,92.0
9179,A4,365.642,217/1000,79,92.0
9180,A1,365.75,121/500,101,92.0
9181,B1,365.75,0.25,65,92.0
9182,F#2,365.75,0.25,65,92.0
9183,E-4,365.75,0.25,65,92.0
9184,B-4,365.75,0.25,65,92.0
9185,D5,365.958,267/1000,88,92.0
9186,D6,365.958,267/1000,88,92.0
9187,D5,365.958,267/1000,88,92.0
9188,A4,365.983,7/40,62,92.0
9189,A5,365.983,7/40,62,92.0
9190,A4,365.983,7/40,62,92.0
9191,A1,366.0,779/500,97,92.0
9192,F#2,366.0,0.25,80,92.0
9193,B-4,366.0,0.25,80,92.0
9194,A2,366.25,1.75,74,92.0
9195,F#2,366.25,0.25,48,92.0
9196,B-4,366.25,0.25,48,92.0
9197,C5,366.342,26/125,78,92.0
9198,A4,366.342,26/125,78,92.0
9199,C6,366.342,26/125,78,92.0
9200,C5,366.342,26/125,78,92.0
9201,A5,366.342,26/125,78,92.0
9202,A4,366.342,26/125,78,92.0
9203,E3,366.5,1.5,74,92.0
9204,F#2,366.5,0.25,75,92.0
9205,B-4,366.5,0.25,75,92.0
9206,B1,366.75,0.25,62,92.0
9207,F#2,366.75,0.25,62,92.0
9208,E-4,366.75,0.25,62,92.0
9209,B-4,366.75,0.25,62,92.0
9210,F#3,366.75,1.25,56,92.0
9211,E4,366.75,1.25,56,92.0
9212,C4,366.75,1.25,56,92.0
9213,C5,366.792,73/250,86,92.0
9214,A4,366.792,73/250,86,92.0
9215,C6,366.792,73/250,86,92.0
9216,C5,366.792,73/250,86,92.0
9217,A5,366.792,73/250,86,92.0
9218,A4,366.792,73/250,86,92.0
9219,D2,367.0,0.25,85,92.0
9220,F#2,367.0,0.25,85,92.0
9221,D4,367.0,0.25,85,92.0
9222,E-2,367.0,0.25,85,92.0
9223,B-4,367.0,0.25,85,92.0
9224,A4,367.0,0.25,85,92.0
9225,D2,367.25,0.25,49,92.0
9226,F#2,367.25,0.25,49,92.0
9227,D4,367.25,0.25,49,92.0
9228,E-2,367.25,0.25,49,92.0
9229,B-4,367.25,0.25,49,92.0
9230,A4,367.25,0.25,49,92.0
9231,A4,367.3,11/40,88,92.0
9232,A5,367.3,11/40,88,92.0
9233,A4,367.3,11/40,88,92.0
9234,B1,367.5,0.25,66,92.0
9235,F#2,367.5,0.25,66,92.0
9236,E-4,367.5,0.25,66,92.0
9237,B-4,367.5,0.25,66,92.0
9238,A4,367.5,0.25,66,92.0
9239,C5,367.517,49/125,82,92.0
9240,C6,367.517,49/125,82,92.0
9241,C5,367.517,49/125,82,92.0
9242,F4,367.525,71/40,55,92.0
9243,E-4,367.525,71/40,55,92.0
9244,B3,367.525,71/40,55,92.0
9245,G#4,367.525,71/40,55,92.0
9246,A1,367.75,0.25,101,92.0
9247,B-2,367.75,0.25,63,92.0
9248,E-4,367.75,0.25,63,92.0
9249,B-4,367.75,0.25,63,92.0
9250,D5,367.783,133/1000,82,92.0
9251,D6,367.783,133/1000,82,92.0
9252,D5,367.783,133/1000,82,92.0
9253,B-1,368.0,779/500,97,92.0
9254,B1,368.0,0.25,85,92.0
9255,F#2,368.0,0.25,85,92.0
9256,E-4,368.0,0.25,85,92.0
9257,B-4,368.0,0.25,85,92.0
9258,B-2,368.033,3.5,74,92.0
9259,D5,368.033,683/1000,98,92.0
9260,D6,368.033,683/1000,98,92.0
9261,D5,368.033,683/1000,98,92.0
9262,A4,368.067,77/250,62,92.0
9263,A5,368.067,77/250,62,92.0
9264,A4,368.067,77/250,62,92.0
9265,F#2,368.25,0.25,50,92.0
9266,E-4,368.25,0.25,50,92.0
9267,B-4,368.25,0.25,50,92.0
9268,F3,368.283,3717/1000,77,92.0
9269,F#2,368.5,0.25,80,92.0
9270,D4,368.5,0.25,80,92.0
9271,B-4,368.5,0.25,80,92.0
9272,B-3,368.525,173/250,87,92.0
9273,A4,368.542,77/250,87,92.0
9274,D4,368.542,883/1000,84,92.0
9275,F#2,368.75,0.25,40,92.0
9276,B-4,368.75,0.25,40,92.0
9277,B-4,368.792,833/1000,109,92.0
9278,A4,368.992,17/40,95,92.0
9279,A5,368.992,17/40,95,92.0
9280,A4,368.992,17/40,95,92.0
9281,D2,369.0,0.25,86,92.0
9282,F#2,369.0,0.25,86,92.0
9283,E-2,369.0,0.25,86,92.0
9284,B-4,369.0,0.25,86,92.0
9285,A4,369.0,0.25,86,92.0
9286,G4,369.083,0.5,65,92.0
9287,F#2,369.25,0.25,64,92.0
9288,D4,369.25,0.25,64,92.0
9289,B-4,369.25,0.25,64,92.0
9290,A4,369.25,0.25,64,92.0
9291,B-3,369.308,13/10,97,92.0
9292,G4,369.5,3/20,54,92.0
9293,F#2,369.5,0.25,58,92.0
9294,E-4,369.5,0.25,58,92.0
9295,B-4,369.5,0.25,58,92.0
9296,A4,369.5,0.25,58,92.0
9297,G5,369.5,3/20,54,92.0
9298,G4,369.5,3/20,54,92.0
9299,D4,369.525,29/20,74,92.0
9300,G#4,369.525,4.0,56,92.0
9301,E4,369.525,4.0,56,92.0
9302,C#4,369.525,4.0,56,92.0
9303,B4,369.525,4.0,56,92.0
9304,B-1,369.75,2067/1000,101,92.0
9305,B1,369.75,0.25,62,92.0
9306,F#2,369.75,0.25,62,92.0
9307,E-4,369.75,0.25,62,92.0
9308,B-4,369.75,0.25,62,92.0
9309,A4,369.758,229/500,98,92.0
9310,A5,369.758,229/500,98,92.0
9311,A4,369.758,229/500,98,92.0
9312,F4,369.783,1017/1000,94,92.0
9313,B1,370.0,0.25,83,92.0
9314,F#2,370.0,0.25,83,92.0
9315,B-4,370.0,0.25,83,92.0
9316,F#2,370.25,0.25,55,92.0
9317,B-4,370.25,0.25,55,92.0
9318,G4,370.275,0.375,76,92.0
9319,G5,370.275,0.375,76,92.0
9320,G4,370.275,0.375,76,92.0
9321,F#2,370.5,0.25,75,92.0
9322,B-4,370.5,0.25,75,92.0
9323,F#2,370.75,0.25,53,92.0
9324,E-4,370.75,0.25,53,92.0
9325,B-4,370.75,0.25,53,92.0
9326,F4,370.767,483/1000,78,92.0
9327,F5,370.767,483/1000,78,92.0
9328,F4,370.767,483/1000,78,92.0
9329,B-3,370.825,221/500,84,92.0
9330,D2,371.0,0.25,85,92.0
9331,F#2,371.0,0.25,85,92.0
9332,D4,371.0,0.25,85,92.0
9333,E-2,371.0,0.25,85,92.0
9334,B-4,371.0,0.25,85,92.0
9335,A4,371.0,0.25,85,92.0
9336,E-4,371.05,433/1000,105,92.0
9337,D2,371.25,0.25,50,92.0
9338,F#2,371.25,0.25,50,92.0
9339,D4,371.25,0.25,50,92.0
9340,E-2,371.25,0.25,50,92.0
9341,B-4,371.25,0.25,50,92.0
9342,A4,371.25,0.25,50,92.0
9343,D4,371.275,267/1000,87,92.0
9344,F4,371.483,221/500,58,92.0
9345,F5,371.483,221/500,58,92.0
9346,F4,371.483,221/500,58,92.0
9347,F#2,371.5,0.25,66,92.0
9348,E-4,371.5,0.25,66,92.0
9349,B-4,371.5,0.25,66,92.0
9350,A4,371.5,0.25,66,92.0
9351,C4,371.533,71/500,87,92.0
9352,F1,371.75,0.25,65,92.0
9353,B1,371.75,0.25,55,92.0
9354,F#2,371.75,0.25,55,92.0
9355,E-4,371.75,0.25,55,92.0
9356,B-4,371.75,0.25,55,92.0
9357,G4,371.758,121/500,70,92.0
9358,G5,371.758,121/500,70,92.0
9359,G4,371.758,121/500,70,92.0
9360,B-3,371.8,117/1000,74,92.0
9361,B-1,372.0,63/40,81,92.0
9362,F3,372.0,1/40,77,92.0
9363,G4,372.0,1/125,70,92.0
9364,B1,372.0,0.25,85,92.0
9365,D2,372.0,0.25,85,92.0
9366,E-4,372.0,0.25,85,92.0
9367,B-4,372.0,0.25,85,92.0
9368,G5,372.0,1/125,70,92.0
9369,G4,372.0,1/125,70,92.0
9370,A4,372.025,283/1000,91,92.0
9371,A5,372.025,283/1000,91,92.0
9372,A4,372.025,283/1000,91,92.0
9373,C4,372.033,1771/500,74,92.0
9374,B-2,372.042,3933/1000,71,92.0
9375,A3,372.05,221/500,63,92.0
9376,D2,372.25,0.25,53,92.0
9377,E-4,372.25,0.25,53,92.0
9378,B-4,372.25,0.25,53,92.0
9379,F3,372.325,101/125,77,92.0
9380,C3,372.5,0.25,83,92.0
9381,D4,372.5,0.25,83,92.0
9382,B-4,372.5,0.25,83,92.0
9383,E4,372.517,0.125,58,92.0
9384,E5,372.517,0.125,58,92.0
9385,E4,372.517,0.125,58,92.0
9386,A3,372.567,47/20,74,92.0
9387,D2,372.75,0.25,31,92.0
9388,B-4,372.75,0.25,31,92.0
9389,E4,372.758,3/20,68,92.0
9390,E5,372.758,3/20,68,92.0
9391,E4,372.758,3/20,68,92.0
9392,F4,372.792,127/40,94,92.0
9393,D2,373.0,0.25,65,92.0
9394,E-2,373.0,0.25,65,92.0
9395,B-4,373.0,0.25,65,92.0
9396,A4,373.0,0.25,65,92.0
9397,E4,373.058,121/500,66,92.0
9398,E5,373.058,121/500,66,92.0
9399,E4,373.058,121/500,66,92.0
9400,A2,373.25,0.25,68,92.0
9401,D4,373.25,0.25,68,92.0
9402,B-4,373.25,0.25,68,92.0
9403,A4,373.25,0.25,68,92.0
9404,F3,373.267,176/125,90,92.0
9405,F4,373.275,1/5,73,92.0
9406,F5,373.275,1/5,73,92.0
9407,F4,373.275,1/5,73,92.0
9408,E4,373.5,233/1000,65,92.0
9409,E-4,373.5,0.25,51,92.0
9410,B-4,373.5,0.25,51,92.0
9411,A4,373.5,0.25,51,92.0
9412,E5,373.5,233/1000,65,92.0
9413,E4,373.5,233/1000,65,92.0
9414,B-1,373.75,117/1000,74,92.0
9415,D2,373.75,0.25,77,92.0
9416,E-4,373.75,0.25,77,92.0
9417,B-4,373.75,0.25,77,92.0
9418,F4,373.758,9/40,74,92.0
9419,F5,373.758,9/40,74,92.0
9420,F4,373.758,9/40,74,92.0
9421,B-1,374.0,829/500,94,92.0
9422,F2,374.0,0.25,80,92.0
9423,B-4,374.0,0.25,80,92.0
9424,E4,374.008,233/1000,62,92.0
9425,E5,374.008,233/1000,62,92.0
9426,E4,374.008,233/1000,62,92.0
9427,F4,374.25,0.25,82,92.0
9428,B-2,374.25,0.25,55,92.0
9429,B-4,374.25,0.25,55,92.0
9430,F5,374.25,0.25,82,92.0
9431,F4,374.25,0.25,82,92.0
9432,D2,374.5,0.25,24,92.0
9433,F#2,374.5,0.25,24,92.0
9434,B-2,374.5,0.25,24,92.0
9435,B-4,374.5,0.25,24,92.0
9436,G4,374.508,73/250,95,92.0
9437,G5,374.508,73/250,95,92.0
9438,G4,374.508,73/250,95,92.0
9439,B1,374.75,0.25,70,92.0
9440,E-4,374.75,0.25,70,92.0
9441,B-4,374.75,0.25,70,92.0
9442,A4,374.758,24/125,104,92.0
9443,A5,374.758,24/125,104,92.0
9444,A4,374.758,24/125,104,92.0
9445,F3,374.783,149/125,81,92.0
9446,B-4,375.0,367/1000,82,92.0
9447,D2,375.0,0.25,86,92.0
9448,D4,375.0,0.25,86,92.0
9449,E-2,375.0,0.25,86,92.0
9450,B-4,375.0,0.25,86,92.0
9451,A4,375.0,0.25,86,92.0
9452,B-5,375.0,367/1000,82,92.0
9453,B-4,375.0,367/1000,82,92.0
9454,B-3,375.042,227/250,105,92.0
9455,D2,375.25,0.25,55,92.0
9456,D4,375.25,0.25,55,92.0
9457,E-2,375.25,0.25,55,92.0
9458,B-4,375.25,0.25,55,92.0
9459,A4,375.25,0.25,55,92.0
9460,C5,375.283,317/1000,91,92.0
9461,C6,375.283,317/1000,91,92.0
9462,C5,375.283,317/1000,91,92.0
9463,D2,375.5,0.25,54,92.0
9464,E-4,375.5,0.25,54,92.0
9465,B-4,375.5,0.25,54,92.0
9466,A4,375.5,0.25,54,92.0
9467,D4,375.533,0.375,74,92.0
9468,D5,375.55,217/1000,85,92.0
9469,D6,375.55,217/1000,85,92.0
9470,D5,375.55,217/1000,85,92.0
9471,B-1,375.75,133/1000,90,92.0
9472,E5,375.75,167/1000,104,92.0
9473,D2,375.75,0.25,67,92.0
9474,E-4,375.75,0.25,67,92.0
9475,B-4,375.75,0.25,67,92.0
9476,E6,375.75,167/1000,104,92.0
9477,E5,375.75,167/1000,104,92.0
9478,A1,376.0,167/1000,81,92.0
9479,B1,376.0,0.25,84,92.0
9480,F#2,376.0,0.25,84,92.0
9481,C#3,376.0,0.25,84,92.0
9482,E-4,376.0,0.25,84,92.0
9483,B-4,376.0,0.25,84,92.0
9484,E5,376.017,221/500,95,92.0
9485,E6,376.017,221/500,95,92.0
9486,E5,376.017,221/500,95,92.0
9487,A1,376.25,26/125,90,92.0
9488,A2,376.25,1.75,74,92.0
9489,F#2,376.25,0.25,53,92.0
9490,E-4,376.25,0.25,53,92.0
9491,B-4,376.25,0.25,53,92.0
9492,G#4,376.367,1421/500,56,92.0
9493,E4,376.367,1421/500,56,92.0
9494,C#4,376.367,1421/500,56,92.0
9495,B4,376.367,1421/500,56,92.0
9496,A3,376.5,1.5,85,92.0
9497,B-2,376.5,0.25,83,92.0
9498,D4,376.5,0.25,83,92.0
9499,B-4,376.5,0.25,83,92.0
9500,E5,376.508,1/5,80,92.0
9501,E6,376.508,1/5,80,92.0
9502,E5,376.508,1/5,80,92.0
9503,B-4,376.75,0.25,40,92.0
9504,A4,376.75,1.25,72,92.0
9505,C4,376.75,1.25,72,92.0
9506,E4,376.75,1.25,72,92.0
9507,E5,376.8,267/1000,91,92.0
9508,E6,376.8,267/1000,91,92.0
9509,E5,376.8,267/1000,91,92.0
9510,F#2,377.0,0.25,85,92.0
9511,C#2,377.0,0.25,85,92.0
9512,B-4,377.0,0.25,85,92.0
9513,A4,377.0,0.25,85,92.0
9514,D5,377.133,11/40,71,92.0
9515,D6,377.133,11/40,71,92.0
9516,D5,377.133,11/40,71,92.0
9517,E1,377.25,217/1000,94,92.0
9518,F#2,377.25,0.25,64,92.0
9519,D4,377.25,0.25,64,92.0
9520,B-4,377.25,0.25,64,92.0
9521,A4,377.25,0.25,64,92.0
9522,E5,377.467,3/10,70,92.0
9523,E6,377.467,3/10,70,92.0
9524,E5,377.467,3/10,70,92.0
9525,A1,377.5,121/500,65,92.0
9526,F#2,377.5,0.25,53,92.0
9527,E-4,377.5,0.25,53,92.0
9528,B-4,377.5,0.25,53,92.0
9529,A4,377.5,0.25,53,92.0
9530,C2,377.75,26/125,105,92.0
9531,F#2,377.75,0.25,51,92.0
9532,E-4,377.75,0.25,51,92.0
9533,B-4,377.75,0.25,51,92.0
9534,D5,377.767,433/1000,64,92.0
9535,D6,377.767,433/1000,64,92.0
9536,D5,377.767,433/1000,64,92.0
9537,A1,378.0,167/1000,81,92.0
9538,F#2,378.0,0.25,80,92.0
9539,B-4,378.0,0.25,80,92.0
9540,C4,378.0,2.0,47,92.0
9541,A2,378.0,2.0,47,92.0
9542,E4,378.0,2.0,47,92.0
9543,G#3,378.0,2.0,47,92.0
9544,E3,378.0,2.0,47,92.0
9545,C5,378.192,19/40,62,92.0
9546,C6,378.192,19/40,62,92.0
9547,C5,378.192,19/40,62,92.0
9548,A1,378.25,26/125,90,92.0
9549,F#2,378.25,0.25,55,92.0
9550,B-4,378.25,0.25,55,92.0
9551,F#2,378.5,0.25,65,92.0
9552,B-4,378.5,0.25,65,92.0
9553,A4,378.708,49/40,51,92.0
9554,A5,378.708,49/40,51,92.0
9555,A4,378.708,49/40,51,92.0
9556,F#2,378.75,0.25,47,92.0
9557,E-4,378.75,0.25,47,92.0
9558,B-4,378.75,0.25,47,92.0
9559,F#2,379.0,0.25,84,92.0
9560,C#2,379.0,0.25,84,92.0
9561,D4,379.0,0.25,84,92.0
9562,B-4,379.0,0.25,84,92.0
9563,A4,379.0,0.25,84,92.0
9564,E1,379.25,217/1000,94,92.0
9565,F#2,379.25,0.25,55,92.0
9566,D4,379.25,0.25,55,92.0
9567,B-4,379.25,0.25,55,92.0
9568,A4,379.25,0.25,55,92.0
9569,C#4,379.367,1.0,41,92.0
9570,A1,379.5,121/500,65,92.0
9571,B1,379.5,0.25,66,92.0
9572,F#2,379.5,0.25,66,92.0
9573,E-4,379.5,0.25,66,92.0
9574,B-4,379.5,0.25,66,92.0
9575,A4,379.5,0.25,66,92.0
9576,C2,379.75,26/125,105,92.0
9577,F#2,379.75,0.25,41,92.0
9578,E-4,379.75,0.25,41,92.0
9579,B-4,379.75,0.25,41,92.0
9580,A1,380.0,7/40,94,92.0
9581,B1,380.0,0.25,85,92.0
9582,F#2,380.0,0.25,85,92.0
9583,E-4,380.0,0.25,85,92.0
9584,B-4,380.0,0.25,85,92.0
9585,G4,380.0,7/40,68,92.0
9586,E4,380.0,7/40,68,92.0
9587,C4,380.0,7/40,68,92.0
9588,A4,380.0,7/40,68,92.0
9589,A1,380.25,283/1000,94,92.0
9590,F#2,380.25,0.25,53,92.0
9591,E-4,380.25,0.25,53,92.0
9592,B-4,380.25,0.25,53,92.0
9593,G4,380.25,0.125,81,92.0
9594,E4,380.25,0.125,81,92.0
9595,C4,380.25,0.125,81,92.0
9596,A4,380.25,0.125,81,92.0
9597,B-2,380.5,0.25,83,92.0
9598,D4,380.5,0.25,83,92.0
9599,B-4,380.5,0.25,83,92.0
9600,A4,380.517,1/10,90,92.0
9601,E5,380.517,1/10,90,92.0
9602,A5,380.517,1/10,90,92.0
9603,A4,380.517,1/10,90,92.0
9604,E6,380.517,1/10,90,92.0
9605,E5,380.517,1/10,90,92.0
9606,A3,380.617,1.75,65,92.0
9607,B-4,380.75,0.25,40,92.0
9608,E5,380.792,7/40,90,92.0
9609,A4,380.792,7/40,90,92.0
9610,E6,380.792,7/40,90,92.0
9611,E5,380.792,7/40,90,92.0
9612,A5,380.792,7/40,90,92.0
9613,A4,380.792,7/40,90,92.0
9614,C4,380.867,1.5,53,92.0
9615,F#2,381.0,0.25,85,92.0
9616,C#2,381.0,0.25,85,92.0
9617,B-4,381.0,0.25,85,92.0
9618,A4,381.0,0.25,85,92.0
9619,E4,381.117,1.25,49,92.0
9620,D5,381.217,79/500,80,92.0
9621,A4,381.217,79/500,80,92.0
9622,D6,381.217,79/500,80,92.0
9623,A5,381.217,79/500,80,92.0
9624,D5,381.217,79/500,80,92.0
9625,A4,381.217,79/500,80,92.0
9626,F#2,381.25,0.25,62,92.0
9627,D4,381.25,0.25,62,92.0
9628,B-4,381.25,0.25,62,92.0
9629,A4,381.25,0.25,62,92.0
9630,F#2,381.5,0.25,53,92.0
9631,E-4,381.5,0.25,53,92.0
9632,B-4,381.5,0.25,53,92.0
9633,A4,381.5,0.25,53,92.0
9634,E5,381.567,79/500,85,92.0
9635,A4,381.567,79/500,85,92.0
9636,E6,381.567,79/500,85,92.0
9637,E5,381.567,79/500,85,92.0
9638,A5,381.567,79/500,85,92.0
9639,A4,381.567,79/500,85,92.0
9640,E2,381.75,27/250,71,92.0
9641,F#2,381.75,0.25,51,92.0
9642,E-4,381.75,0.25,51,92.0
9643,B-4,381.75,0.25,51,92.0
9644,E2,381.867,17/1000,63,92.0
9645,D5,381.883,1/5,74,92.0
9646,A4,381.883,1/5,74,92.0
9647,D6,381.883,1/5,74,92.0
9648,D5,381.883,1/5,74,92.0
9649,A5,381.883,1/5,74,92.0
9650,A4,381.883,1/5,74,92.0
9651,A1,382.0,183/1000,94,92.0
9652,F#2,382.0,0.25,82,92.0
9653,B-4,382.0,0.25,82,92.0
9654,A1,382.25,217/1000,94,92.0
9655,A2,382.25,1.75,74,92.0
9656,F#2,382.25,0.25,55,92.0
9657,B-4,382.25,0.25,55,92.0
9658,A4,382.283,79/500,71,92.0
9659,C5,382.283,79/500,71,92.0
9660,A5,382.283,79/500,71,92.0
9661,A4,382.283,79/500,71,92.0
9662,C6,382.283,79/500,71,92.0
9663,C5,382.283,79/500,71,92.0
9664,G#4,382.367,71/40,55,92.0
9665,E4,382.367,71/40,55,92.0
9666,C4,382.367,71/40,55,92.0
9667,A4,382.367,71/40,55,92.0
9668,F#3,382.5,1.5,85,92.0
9669,F#2,382.5,0.25,60,92.0
9670,B-4,382.5,0.25,60,92.0
9671,A4,382.725,26/125,94,92.0
9672,C5,382.725,26/125,94,92.0
9673,A5,382.725,26/125,94,92.0
9674,C6,382.725,26/125,94,92.0
9675,A4,382.725,26/125,94,92.0
9676,C5,382.725,26/125,94,92.0
9677,F#2,382.75,0.25,47,92.0
9678,E-4,382.75,0.25,47,92.0
9679,B-4,382.75,0.25,47,92.0
9680,F#4,382.75,1.25,72,92.0
9681,C4,382.75,1.25,72,92.0
9682,E4,382.75,1.25,72,92.0
9683,F#2,383.0,0.25,84,92.0
9684,C#2,383.0,0.25,84,92.0
9685,D4,383.0,0.25,84,92.0
9686,B-4,383.0,0.25,84,92.0
9687,A4,383.0,0.25,84,92.0
9688,F#2,383.25,0.25,55,92.0
9689,D4,383.25,0.25,55,92.0
9690,B-4,383.25,0.25,55,92.0
9691,A4,383.25,0.25,55,92.0
9692,A4,383.283,0.125,82,92.0
9693,C5,383.283,0.125,82,92.0
9694,A5,383.283,0.125,82,92.0
9695,A4,383.283,0.125,82,92.0
9696,C6,383.283,0.125,82,92.0
9697,C5,383.283,0.125,82,92.0
9698,F#2,383.5,0.25,60,92.0
9699,E-4,383.5,0.25,60,92.0
9700,B-4,383.5,0.25,60,92.0
9701,A4,383.5,0.25,60,92.0
9702,D5,383.525,3/10,85,92.0
9703,D6,383.525,3/10,85,92.0
9704,D5,383.525,3/10,85,92.0
9705,A1,383.75,1/5,90,92.0
9706,B1,383.75,0.25,50,92.0
9707,F#2,383.75,0.25,50,92.0
9708,E-4,383.75,0.25,50,92.0
9709,B-4,383.75,0.25,50,92.0
9710,B-1,384.0,183/1000,87,92.0
9711,B1,384.0,0.25,85,92.0
9712,F#2,384.0,0.25,85,92.0
9713,E-4,384.0,0.25,85,92.0
9714,B-4,384.0,0.25,85,92.0
9715,A4,384.0,29/40,86,92.0
9716,D5,384.0,29/40,86,92.0
9717,A5,384.0,29/40,86,92.0
9718,D6,384.0,29/40,86,92.0
9719,A4,384.0,29/40,86,92.0
9720,D5,384.0,29/40,86,92.0
9721,B-1,384.25,26/125,97,92.0
9722,B-2,384.25,3667/1000,68,92.0
9723,F#2,384.25,0.25,53,92.0
9724,E-4,384.25,0.25,53,92.0
9725,B-4,384.25,0.25,53,92.0
9726,F3,384.5,1679/500,74,92.0
9727,B-2,384.5,0.25,83,92.0
9728,D4,384.5,0.25,83,92.0
9729,B-4,384.5,0.25,83,92.0
9730,G3,384.617,1.75,65,92.0
9731,B-4,384.75,0.25,40,92.0
9732,F4,384.75,3033/1000,62,92.0
9733,D4,384.75,3033/1000,62,92.0
9734,A3,384.75,3033/1000,62,92.0
9735,C4,384.867,1.5,53,92.0
9736,G4,385.0,9/20,91,92.0
9737,F#2,385.0,0.25,85,92.0
9738,C#2,385.0,0.25,85,92.0
9739,B-4,385.0,0.25,85,92.0
9740,A4,385.0,0.25,85,92.0
9741,G5,385.0,9/20,91,92.0
9742,G4,385.0,9/20,91,92.0
9743,E4,385.117,1.25,49,92.0
9744,F1,385.25,183/1000,63,92.0
9745,F#2,385.25,0.25,64,92.0
9746,D4,385.25,0.25,64,92.0
9747,B-4,385.25,0.25,64,92.0
9748,A4,385.25,0.25,64,92.0
9749,A4,385.458,1/5,85,92.0
9750,A5,385.458,1/5,85,92.0
9751,A4,385.458,1/5,85,92.0
9752,A1,385.5,79/500,85,92.0
9753,F#2,385.5,0.25,53,92.0
9754,E-4,385.5,0.25,53,92.0
9755,B-4,385.5,0.25,53,92.0
9756,A4,385.5,0.25,53,92.0
9757,B-1,385.75,7/40,65,92.0
9758,A4,385.75,533/1000,82,92.0
9759,F#2,385.75,0.25,51,92.0
9760,E-4,385.75,0.25,51,92.0
9761,B-4,385.75,0.25,51,92.0
9762,A5,385.75,533/1000,82,92.0
9763,A4,385.75,533/1000,82,92.0
9764,C2,386.0,7/20,74,92.0
9765,F#2,386.0,0.25,80,92.0
9766,B-4,386.0,0.25,80,92.0
9767,D2,386.25,0.125,94,92.0
9768,F#2,386.25,0.25,55,92.0
9769,B-4,386.25,0.25,55,92.0
9770,G4,386.292,467/1000,73,92.0
9771,G5,386.292,467/1000,73,92.0
9772,G4,386.292,467/1000,73,92.0
9773,E-2,386.5,1/5,74,92.0
9774,F#2,386.5,0.25,65,92.0
9775,B-4,386.5,0.25,65,92.0
9776,F#3,386.617,1.75,65,92.0
9777,F4,386.733,529/500,70,92.0
9778,F5,386.733,529/500,70,92.0
9779,F4,386.733,529/500,70,92.0
9780,D2,386.75,483/1000,81,92.0
9781,F#2,386.75,0.25,47,92.0
9782,E-4,386.75,0.25,47,92.0
9783,B-4,386.75,0.25,47,92.0
9784,C4,386.867,1.5,53,92.0
9785,F#2,387.0,0.25,84,92.0
9786,C#2,387.0,0.25,84,92.0
9787,D4,387.0,0.25,84,92.0
9788,B-4,387.0,0.25,84,92.0
9789,A4,387.0,0.25,84,92.0
9790,E4,387.117,1.25,49,92.0
9791,C2,387.25,233/1000,87,92.0
9792,F#2,387.25,0.25,55,92.0
9793,D4,387.25,0.25,55,92.0
9794,B-4,387.25,0.25,55,92.0
9795,A4,387.25,0.25,55,92.0
9796,B-1,387.5,77/250,84,92.0
9797,B1,387.5,0.25,66,92.0
9798,F#2,387.5,0.25,66,92.0
9799,E-4,387.5,0.25,66,92.0
9800,B-4,387.5,0.25,66,92.0
9801,A4,387.5,0.25,66,92.0
9802,F#2,387.75,0.25,41,92.0
9803,E-4,387.75,0.25,41,92.0
9804,B-4,387.75,0.25,41,92.0
9805,G4,387.767,1/5,57,92.0
9806,G5,387.767,1/5,57,92.0
9807,G4,387.767,1/5,57,92.0
9808,E-2,388.0,183/1000,87,92.0
9809,G3,388.0,326/125,63,92.0
9810,F4,388.0,3217/1000,81,92.0
9811,C#4,388.0,2867/1000,77,92.0
9812,E-2,388.0,19/5,77,92.0
9813,B1,388.0,0.25,85,92.0
9814,F#2,388.0,0.25,85,92.0
9815,E-4,388.0,0.25,85,92.0
9816,B-4,388.0,0.25,85,92.0
9817,A4,388.017,1383/1000,104,92.0
9818,A5,388.017,1383/1000,104,92.0
9819,A4,388.017,1383/1000,104,92.0
9820,E-2,388.25,26/125,97,92.0
9821,F#2,388.25,0.25,50,92.0
9822,E-4,388.25,0.25,50,92.0
9823,B-4,388.25,0.25,50,92.0
9824,D2,388.5,0.25,77,92.0
9825,D4,388.5,0.25,77,92.0
9826,B-4,388.5,0.25,77,92.0
9827,A3,388.617,3.75,65,92.0
9828,D2,388.75,0.25,40,92.0
9829,B-4,388.75,0.25,40,92.0
9830,D4,388.867,3.5,65,92.0
9831,D2,389.0,0.25,88,92.0
9832,E-2,389.0,0.25,88,92.0
9833,B-4,389.0,0.25,88,92.0
9834,A4,389.0,0.25,88,92.0
9835,F4,389.117,3.25,67,92.0
9836,B-1,389.25,183/1000,63,92.0
9837,D2,389.25,0.25,58,92.0
9838,D4,389.25,0.25,58,92.0
9839,B-4,389.25,0.25,58,92.0
9840,A4,389.25,0.25,58,92.0
9841,C#2,389.5,79/500,85,92.0
9842,F#2,389.5,0.25,58,92.0
9843,E-4,389.5,0.25,58,92.0
9844,B-4,389.5,0.25,58,92.0
9845,A4,389.5,0.25,58,92.0
9846,E-2,389.75,7/40,65,92.0
9847,F#2,389.75,0.25,57,92.0
9848,E-4,389.75,0.25,57,92.0
9849,B-4,389.75,0.25,57,92.0
9850,F2,390.0,7/20,74,92.0
9851,D2,390.0,0.25,55,92.0
9852,B-4,390.0,0.25,55,92.0
9853,G2,390.25,0.125,94,92.0
9854,E-3,390.25,1483/1000,77,92.0
9855,D2,390.25,0.25,55,92.0
9856,B-4,390.25,0.25,55,92.0
9857,G#2,390.5,1/5,74,92.0
9858,D2,390.5,0.25,85,92.0
9859,B-4,390.5,0.25,85,92.0
9860,G2,390.75,483/1000,81,92.0
9861,G3,390.75,41/40,90,92.0
9862,D2,390.75,0.25,67,92.0
9863,E-4,390.75,0.25,67,92.0
9864,B-4,390.75,0.25,67,92.0
9865,F#2,391.0,0.25,84,92.0
9866,D4,391.0,0.25,84,92.0
9867,E-2,391.0,0.25,84,92.0
9868,B-4,391.0,0.25,84,92.0
9869,A4,391.0,0.25,84,92.0
9870,F2,391.25,233/1000,87,92.0
9871,C#4,391.25,517/1000,60,92.0
9872,F#2,391.25,0.25,50,92.0
9873,D4,391.25,0.25,50,92.0
9874,E-2,391.25,0.25,50,92.0
9875,B-4,391.25,0.25,50,92.0
9876,A4,391.25,0.25,50,92.0
9877,E-2,391.5,77/250,84,92.0
9878,F4,391.5,267/1000,81,92.0
9879,D2,391.5,0.25,70,92.0
9880,E-4,391.5,0.25,70,92.0
9881,B-4,391.5,0.25,70,92.0
9882,A4,391.5,0.25,70,92.0
9883,D2,391.75,0.25,53,92.0
9884,E-4,391.75,0.25,53,92.0
9885,B-4,391.75,0.25,53,92.0
9886,A1,392.0,1717/1000,97,92.0
9887,A2,392.0,4.0,65,92.0
9888,B1,392.0,0.25,84,92.0
9889,F#2,392.0,0.25,84,92.0
9890,C#3,392.0,0.25,84,92.0
9891,E-4,392.0,0.25,84,92.0
9892,B-4,392.0,0.25,84,92.0
9893,C4,392.0,283/1000,73,92.0
9894,E4,392.0,283/1000,73,92.0
9895,G3,392.0,283/1000,73,92.0
9896,F#2,392.25,0.25,50,92.0
9897,E-4,392.25,0.25,50,92.0
9898,B-4,392.25,0.25,50,92.0
9899,E3,392.275,149/40,68,92.0
9900,A3,392.367,43/20,65,92.0
9901,D4,392.367,2.5,65,92.0
9902,F4,392.367,2.5,67,92.0
9903,F#2,392.5,0.25,80,92.0
9904,D4,392.5,0.25,80,92.0
9905,B-4,392.5,0.25,80,92.0
9906,C4,392.5,71/500,38,92.0
9907,E4,392.5,71/500,38,92.0
9908,G3,392.5,71/500,38,92.0
9909,D4,392.75,183/1000,84,92.0
9910,F#2,392.75,0.25,40,92.0
9911,B-4,392.75,0.25,40,92.0
9912,G3,392.75,71/500,75,92.0
9913,B3,392.75,71/500,75,92.0
9914,D2,393.0,0.25,86,92.0
9915,F#2,393.0,0.25,86,92.0
9916,E-2,393.0,0.25,86,92.0
9917,B-4,393.0,0.25,86,92.0
9918,A4,393.0,0.25,86,92.0
9919,F#2,393.25,0.25,64,92.0
9920,D4,393.25,0.25,64,92.0
9921,B-4,393.25,0.25,64,92.0
9922,A4,393.25,0.25,64,92.0
9923,C4,393.25,2.75,65,92.0
9924,G3,393.25,2.75,65,92.0
9925,E4,393.25,2.75,65,92.0
9926,A3,393.308,267/1000,76,92.0
9927,A3,393.308,267/1000,76,92.0
9928,A4,393.308,267/1000,76,92.0
9929,A4,393.308,267/1000,76,92.0
9930,A3,393.308,267/1000,76,92.0
9931,A3,393.308,267/1000,76,92.0
9932,F#2,393.5,0.25,58,92.0
9933,E-4,393.5,0.25,58,92.0
9934,B-4,393.5,0.25,58,92.0
9935,A4,393.5,0.25,58,92.0
9936,B3,393.533,0.25,88,92.0
9937,B3,393.533,0.25,88,92.0
9938,B4,393.533,0.25,88,92.0
9939,B4,393.533,0.25,88,92.0
9940,B3,393.533,0.25,88,92.0
9941,B3,393.533,0.25,88,92.0
9942,A1,393.75,71/500,97,92.0
9943,B1,393.75,0.25,62,92.0
9944,F#2,393.75,0.25,62,92.0
9945,E-4,393.75,0.25,62,92.0
9946,B-4,393.75,0.25,62,92.0
9947,C4,393.758,9/40,74,92.0
9948,C4,393.758,9/40,74,92.0
9949,C5,393.758,9/40,74,92.0
9950,C5,393.758,9/40,74,92.0
9951,C4,393.758,9/40,74,92.0
9952,C4,393.758,9/40,74,92.0
9953,D4,393.983,0.25,70,92.0
9954,D4,393.983,0.25,70,92.0
9955,D5,393.983,0.25,70,92.0
9956,D5,393.983,0.25,70,92.0
9957,D4,393.983,0.25,70,92.0
9958,D4,393.983,0.25,70,92.0
9959,A1,394.0,1517/1000,81,92.0
9960,B1,394.0,0.25,83,92.0
9961,F#2,394.0,0.25,83,92.0
9962,B-4,394.0,0.25,83,92.0
9963,E4,394.192,13/40,100,92.0
9964,E4,394.192,13/40,100,92.0
9965,E5,394.192,13/40,124,92.0
9966,E5,394.192,13/40,124,92.0
9967,E4,394.192,13/40,124,92.0
9968,E4,394.192,13/40,124,92.0
9969,F#2,394.25,0.25,55,92.0
9970,B-4,394.25,0.25,55,92.0
9971,F4,394.467,11/40,74,92.0
9972,F4,394.467,11/40,74,92.0
9973,F5,394.467,11/40,74,92.0
9974,F5,394.467,11/40,74,92.0
9975,F4,394.467,11/40,74,92.0
9976,F4,394.467,11/40,74,92.0
9977,F#2,394.5,0.25,75,92.0
9978,B-4,394.5,0.25,75,92.0
9979,F3,394.617,1667/1000,43,92.0
9980,G4,394.717,233/1000,88,92.0
9981,G4,394.717,233/1000,88,92.0
9982,G5,394.717,233/1000,88,92.0
9983,G5,394.717,233/1000,88,92.0
9984,G4,394.717,233/1000,88,92.0
9985,G4,394.717,233/1000,88,92.0
9986,F#2,394.75,0.25,53,92.0
9987,E-4,394.75,0.25,53,92.0
9988,B-4,394.75,0.25,53,92.0
9989,A3,394.867,1417/1000,35,92.0
9990,A4,394.975,77/250,85,92.0
9991,A4,394.975,77/250,85,92.0
9992,A5,394.975,77/250,85,92.0
9993,A5,394.975,77/250,85,92.0
9994,A4,394.975,77/250,85,92.0
9995,A4,394.975,77/250,85,92.0
9996,D2,395.0,0.25,85,92.0
9997,F#2,395.0,0.25,85,92.0
9998,D4,395.0,0.25,85,92.0
9999,E-2,395.0,0.25,85,92.0
10000,B-4,395.0,0.25,85,92.0
10001,A4,395.0,0.25,85,92.0
10002,D4,395.117,1133/1000,56,92.0
10003,G4,395.217,13/40,66,92.0
10004,G4,395.217,13/40,66,92.0
10005,G5,395.217,13/40,66,92.0
10006,G5,395.217,13/40,66,92.0
10007,G4,395.217,13/40,66,92.0
10008,G4,395.217,13/40,66,92.0
10009,D2,395.25,0.25,50,92.0
10010,F#2,395.25,0.25,50,92.0
10011,D4,395.25,0.25,50,92.0
10012,E-2,395.25,0.25,50,92.0
10013,B-4,395.25,0.25,50,92.0
10014,A4,395.25,0.25,50,92.0
10015,F4,395.483,73/250,114,92.0
10016,F4,395.483,73/250,114,92.0
10017,F5,395.483,73/250,114,92.0
10018,F5,395.483,73/250,114,92.0
10019,F4,395.483,73/250,114,92.0
10020,F4,395.483,73/250,114,92.0
10021,E1,395.5,79/500,71,92.0
10022,F#2,395.5,0.25,66,92.0
10023,E-4,395.5,0.25,66,92.0
10024,B-4,395.5,0.25,66,92.0
10025,A4,395.5,0.25,66,92.0
10026,F#1,395.75,0.25,60,92.0
10027,B1,395.75,0.25,55,92.0
10028,F#2,395.75,0.25,55,92.0
10029,E-4,395.75,0.25,55,92.0
10030,B-4,395.75,0.25,55,92.0
10031,E4,395.75,0.25,109,92.0
10032,E4,395.75,0.25,109,92.0
10033,E5,395.75,0.25,109,92.0
10034,E5,395.75,0.25,109,92.0
10035,E4,395.75,0.25,109,92.0
10036,E4,395.75,0.25,109,92.0
10037,B1,396.0,1617/1000,94,92.0
10038,B1,396.0,0.25,85,92.0
10039,F#2,396.0,0.25,85,92.0
10040,E-4,396.0,0.25,85,92.0
10041,B-4,396.0,0.25,85,92.0
10042,A4,396.0,7/40,68,92.0
10043,F4,396.0,7/40,68,92.0
10044,D4,396.0,7/40,68,92.0
10045,B4,396.0,7/40,68,92.0
10046,E4,396.0,26/125,109,92.0
10047,E4,396.0,26/125,109,92.0
10048,E5,396.0,26/125,109,92.0
10049,E5,396.0,26/125,109,92.0
10050,E4,396.0,26/125,109,92.0
10051,E4,396.0,26/125,109,92.0
10052,B3,396.233,13/40,71,92.0
10053,B3,396.233,13/40,71,92.0
10054,B4,396.233,13/40,71,92.0
10055,B4,396.233,13/40,71,92.0
10056,B3,396.233,13/40,71,92.0
10057,B3,396.233,13/40,71,92.0
10058,F#2,396.25,0.25,52,92.0
10059,E-4,396.25,0.25,52,92.0
10060,B-4,396.25,0.25,52,92.0
10061,A4,396.25,0.125,81,92.0
10062,F4,396.25,0.125,81,92.0
10063,D4,396.25,0.125,81,92.0
10064,B4,396.25,0.125,81,92.0
10065,E4,396.367,2.0,45,92.0
10066,C4,396.367,2.0,45,92.0
10067,A3,396.367,2.0,45,92.0
10068,C4,396.492,13/40,60,92.0
10069,C4,396.492,13/40,60,92.0
10070,C5,396.492,13/40,60,92.0
10071,C5,396.492,13/40,60,92.0
10072,C4,396.492,13/40,60,92.0
10073,C4,396.492,13/40,60,92.0
10074,F#2,396.5,0.25,80,92.0
10075,D4,396.5,0.25,80,92.0
10076,B-4,396.5,0.25,80,92.0
10077,D4,396.725,13/40,76,92.0
10078,D4,396.725,13/40,76,92.0
10079,D5,396.725,13/40,76,92.0
10080,D5,396.725,13/40,76,92.0
10081,D4,396.725,13/40,76,92.0
10082,D4,396.725,13/40,76,92.0
10083,B1,396.75,0.25,57,92.0
10084,F#2,396.75,0.25,57,92.0
10085,B-4,396.75,0.25,57,92.0
10086,E-4,396.992,24/125,109,92.0
10087,E-4,396.992,24/125,109,92.0
10088,E-5,396.992,24/125,109,92.0
10089,E-5,396.992,24/125,109,92.0
10090,E-4,396.992,24/125,109,92.0
10091,E-4,396.992,24/125,109,92.0
10092,D2,397.0,0.25,86,92.0
10093,F#2,397.0,0.25,86,92.0
10094,E-2,397.0,0.25,86,92.0
10095,B-4,397.0,0.25,86,92.0
10096,A4,397.0,0.25,86,92.0
10097,D4,397.225,73/250,63,92.0
10098,D4,397.225,73/250,63,92.0
10099,D5,397.225,73/250,63,92.0
10100,D5,397.225,73/250,63,92.0
10101,D4,397.225,73/250,63,92.0
10102,D4,397.225,73/250,63,92.0
10103,F#2,397.25,0.25,59,92.0
10104,D4,397.25,0.25,59,92.0
10105,B-4,397.25,0.25,59,92.0
10106,A4,397.25,0.25,59,92.0
10107,E-4,397.483,26/125,104,92.0
10108,E-4,397.483,26/125,104,92.0
10109,E-5,397.483,26/125,104,92.0
10110,E-5,397.483,26/125,104,92.0
10111,E-4,397.483,26/125,104,92.0
10112,E-4,397.483,26/125,104,92.0
10113,F#2,397.5,0.25,58,92.0
10114,E-4,397.5,0.25,58,92.0
10115,B-4,397.5,0.25,58,92.0
10116,A4,397.5,0.25,58,92.0
10117,F4,397.717,267/1000,78,92.0
10118,F4,397.717,267/1000,78,92.0
10119,F5,397.717,267/1000,78,92.0
10120,F5,397.717,267/1000,78,92.0
10121,F4,397.717,267/1000,78,92.0
10122,F4,397.717,267/1000,78,92.0
10123,B1,397.75,121/500,87,92.0
10124,B1,397.75,0.25,65,92.0
10125,F#2,397.75,0.25,65,92.0
10126,E-4,397.75,0.25,65,92.0
10127,B-4,397.75,0.25,65,92.0
10128,G4,397.983,129/500,80,92.0
10129,G4,397.983,129/500,80,92.0
10130,G5,397.983,129/500,80,92.0
10131,G5,397.983,129/500,80,92.0
10132,G4,397.983,129/500,80,92.0
10133,G4,397.983,129/500,80,92.0
10134,B1,398.0,1633/1000,101,92.0
10135,F#2,398.0,0.25,80,92.0
10136,B-4,398.0,0.25,80,92.0
10137,A4,398.225,3/10,78,92.0
10138,A4,398.225,3/10,78,92.0
10139,A5,398.225,3/10,78,92.0
10140,A5,398.225,3/10,78,92.0
10141,A4,398.225,3/10,78,92.0
10142,A4,398.225,3/10,78,92.0
10143,B2,398.25,1.75,74,92.0
10144,F#2,398.25,0.25,48,92.0
10145,B-4,398.25,0.25,48,92.0
10146,G#4,398.367,2.0,40,92.0
10147,E4,398.367,2.0,40,92.0
10148,C4,398.367,2.0,40,92.0
10149,A4,398.367,2.0,40,92.0
10150,B4,398.475,9/40,88,92.0
10151,B4,398.475,9/40,88,92.0
10152,B5,398.475,9/40,88,92.0
10153,B5,398.475,9/40,88,92.0
10154,B4,398.475,9/40,88,92.0
10155,B4,398.475,9/40,88,92.0
10156,G3,398.5,1.5,74,92.0
10157,F#2,398.5,0.25,75,92.0
10158,B-4,398.5,0.25,75,92.0
10159,C5,398.708,317/1000,70,92.0
10160,C5,398.708,317/1000,70,92.0
10161,C6,398.708,317/1000,70,92.0
10162,C6,398.708,317/1000,70,92.0
10163,C5,398.708,317/1000,70,92.0
10164,C5,398.708,317/1000,70,92.0
10165,B1,398.75,0.25,62,92.0
10166,F#2,398.75,0.25,62,92.0
10167,E-4,398.75,0.25,62,92.0
10168,B-4,398.75,0.25,62,92.0
10169,A3,398.75,1.25,56,92.0
10170,G4,398.75,1.25,56,92.0
10171,D4,398.75,1.25,56,92.0
10172,D2,399.0,0.25,85,92.0
10173,F#2,399.0,0.25,85,92.0
10174,D4,399.0,0.25,85,92.0
10175,E-2,399.0,0.25,85,92.0
10176,B-4,399.0,0.25,85,92.0
10177,A4,399.0,0.25,85,92.0
10178,D5,399.0,3/10,114,92.0
10179,D5,399.0,3/10,114,92.0
10180,D6,399.0,3/10,114,92.0
10181,D6,399.0,3/10,114,92.0
10182,D5,399.0,3/10,114,92.0
10183,D5,399.0,3/10,114,92.0
10184,D2,399.25,0.25,49,92.0
10185,F#2,399.25,0.25,49,92.0
10186,D4,399.25,0.25,49,92.0
10187,E-2,399.25,0.25,49,92.0
10188,B-4,399.25,0.25,49,92.0
10189,A4,399.25,0.25,49,92.0
10190,E-5,399.25,217/1000,109,92.0
10191,E-5,399.25,217/1000,109,92.0
10192,E-6,399.25,217/1000,109,92.0
10193,E-6,399.25,217/1000,109,92.0
10194,E-5,399.25,217/1000,109,92.0
10195,E-5,399.25,217/1000,109,92.0
10196,B1,399.5,0.25,66,92.0
10197,F#2,399.5,0.25,66,92.0
10198,E-4,399.5,0.25,66,92.0
10199,B-4,399.5,0.25,66,92.0
10200,A4,399.5,0.25,66,92.0
10201,F5,399.517,26/125,74,92.0
10202,F5,399.517,26/125,74,92.0
10203,F6,399.517,26/125,74,92.0
10204,F6,399.517,26/125,74,92.0
10205,F5,399.517,26/125,74,92.0
10206,F5,399.517,26/125,74,92.0
10207,G5,399.725,83/1000,91,92.0
10208,G5,399.725,83/1000,91,92.0
10209,G6,399.725,83/1000,91,92.0
10210,G6,399.725,83/1000,91,92.0
10211,G5,399.725,83/1000,91,92.0
10212,G5,399.725,83/1000,91,92.0
10213,B1,399.75,1/10,77,92.0
10214,F#2,399.75,0.25,44,92.0
10215,E-4,399.75,0.25,44,92.0
10216,B-4,399.75,0.25,44,92.0
10217,E2,400.0,1617/1000,94,92.0
10218,B1,400.0,0.25,85,92.0
10219,F#2,400.0,0.25,85,92.0
10220,E-4,400.0,0.25,85,92.0
10221,B-4,400.0,0.25,85,92.0
10222,E2,400.25,1.75,74,92.0
10223,B-2,400.25,0.25,53,92.0
10224,E-4,400.25,0.25,53,92.0
10225,B-4,400.25,0.25,53,92.0
10226,E4,400.267,3/10,71,92.0
10227,E4,400.267,3/10,71,92.0
10228,E5,400.267,3/10,71,92.0
10229,E5,400.267,3/10,71,92.0
10230,E4,400.267,3/10,71,92.0
10231,E4,400.267,3/10,71,92.0
10232,G4,400.367,2.0,45,92.0
10233,E4,400.367,2.0,45,92.0
10234,C4,400.367,2.0,45,92.0
10235,A4,400.367,2.0,45,92.0
10236,G#3,400.5,1.5,85,92.0
10237,F#2,400.5,0.25,80,92.0
10238,D4,400.5,0.25,80,92.0
10239,B-4,400.5,0.25,80,92.0
10240,F4,400.5,77/250,85,92.0
10241,F4,400.5,77/250,85,92.0
10242,F5,400.5,77/250,85,92.0
10243,F5,400.5,77/250,85,92.0
10244,F4,400.5,77/250,85,92.0
10245,F4,400.5,77/250,85,92.0
10246,F#2,400.75,0.25,50,92.0
10247,B-4,400.75,0.25,50,92.0
10248,G#4,400.75,1.25,72,92.0
10249,D4,400.75,1.25,72,92.0
10250,F4,400.75,1.25,72,92.0
10251,G4,400.767,217/1000,98,92.0
10252,G4,400.767,217/1000,98,92.0
10253,G5,400.767,217/1000,98,92.0
10254,G5,400.767,217/1000,98,92.0
10255,G4,400.767,217/1000,98,92.0
10256,G4,400.767,217/1000,98,92.0
10257,D2,401.0,0.25,88,92.0
10258,B-2,401.0,0.25,88,92.0
10259,E-2,401.0,0.25,88,92.0
10260,B-4,401.0,0.25,88,92.0
10261,A4,401.0,0.25,88,92.0
10262,E4,401.0,9/20,78,92.0
10263,E4,401.0,9/20,78,92.0
10264,E5,401.0,9/20,78,92.0
10265,E5,401.0,9/20,78,92.0
10266,E4,401.0,9/20,78,92.0
10267,E4,401.0,9/20,78,92.0
10268,D4,401.25,0.25,60,92.0
10269,B-4,401.25,0.25,60,92.0
10270,A4,401.25,0.25,60,92.0
10271,F4,401.25,0.25,71,92.0
10272,F4,401.25,0.25,71,92.0
10273,F5,401.25,0.25,71,92.0
10274,F5,401.25,0.25,71,92.0
10275,F4,401.25,0.25,71,92.0
10276,F4,401.25,0.25,71,92.0
10277,E-4,401.5,0.25,51,92.0
10278,B-4,401.5,0.25,51,92.0
10279,A4,401.5,0.25,51,92.0
10280,G4,401.5,283/1000,104,92.0
10281,G4,401.5,283/1000,104,92.0
10282,G5,401.5,283/1000,104,92.0
10283,G5,401.5,283/1000,104,92.0
10284,G4,401.5,283/1000,104,92.0
10285,G4,401.5,283/1000,104,92.0
10286,G#4,401.733,7/40,83,92.0
10287,G#4,401.733,7/40,83,92.0
10288,G#5,401.733,7/40,95,92.0
10289,G#5,401.733,7/40,95,92.0
10290,G#4,401.733,7/40,95,92.0
10291,G#4,401.733,7/40,95,92.0
10292,E2,401.75,121/500,87,92.0
10293,E-4,401.75,0.25,65,92.0
10294,B-4,401.75,0.25,65,92.0
10295,E2,402.0,1633/1000,90,92.0
10296,C3,402.0,0.25,85,92.0
10297,B-4,402.0,0.25,85,92.0
10298,B-4,402.233,79/500,127,92.0
10299,B-4,402.233,79/500,127,92.0
10300,B-5,402.233,79/500,127,92.0
10301,B-5,402.233,79/500,127,92.0
10302,B-4,402.233,79/500,127,92.0
10303,B-4,402.233,79/500,127,92.0
10304,E2,402.25,1.75,74,92.0
10305,F#2,402.25,0.25,48,92.0
10306,B-4,402.25,0.25,48,92.0
10307,F#4,402.367,2.0,45,92.0
10308,E4,402.367,2.0,45,92.0
10309,C4,402.367,2.0,45,92.0
10310,A4,402.367,2.0,45,92.0
10311,E3,402.5,1.5,74,92.0
10312,F#2,402.5,0.25,75,92.0
10313,B-4,402.5,0.25,75,92.0
10314,B4,402.5,1/5,102,92.0
10315,B4,402.5,1/5,102,92.0
10316,B5,402.5,1/5,127,92.0
10317,B5,402.5,1/5,127,92.0
10318,B4,402.5,1/5,127,92.0
10319,B4,402.5,1/5,127,92.0
10320,A2,402.75,0.25,73,92.0
10321,E-4,402.75,0.25,73,92.0
10322,B-4,402.75,0.25,73,92.0
10323,G#3,402.75,1.25,56,92.0
10324,E4,402.75,1.25,56,92.0
10325,D4,402.75,1.25,56,92.0
10326,C5,402.75,417/1000,100,92.0
10327,C5,402.75,417/1000,100,92.0
10328,C6,402.75,417/1000,127,92.0
10329,C6,402.75,417/1000,127,92.0
10330,C5,402.75,417/1000,127,92.0
10331,C5,402.75,417/1000,127,92.0
10332,D2,403.0,0.25,86,92.0
10333,D4,403.0,0.25,86,92.0
10334,E-2,403.0,0.25,86,92.0
10335,B-4,403.0,0.25,86,92.0
10336,A4,403.0,0.25,86,92.0
10337,D2,403.25,0.25,55,92.0
10338,D4,403.25,0.25,55,92.0
10339,E-2,403.25,0.25,55,92.0
10340,B-4,403.25,0.25,55,92.0
10341,A4,403.25,0.25,55,92.0
10342,D5,403.267,183/1000,78,92.0
10343,D5,403.267,183/1000,78,92.0
10344,D6,403.267,183/1000,78,92.0
10345,D6,403.267,183/1000,78,92.0
10346,D5,403.267,183/1000,78,92.0
10347,D5,403.267,183/1000,78,92.0
10348,E5,403.5,1/5,127,92.0
10349,F#2,403.5,0.25,63,92.0
10350,E-4,403.5,0.25,63,92.0
10351,B-4,403.5,0.25,63,92.0
10352,A4,403.5,0.25,63,92.0
10353,E6,403.5,1/5,127,92.0
10354,E5,403.5,1/5,127,92.0
10355,E2,403.75,0.125,90,92.0
10356,C5,403.75,1/5,127,92.0
10357,F#2,403.75,0.25,44,92.0
10358,E-4,403.75,0.25,44,92.0
10359,B-4,403.75,0.25,44,92.0
10360,C6,403.75,1/5,127,92.0
10361,C5,403.75,1/5,127,92.0
10362,A1,404.0,7/40,77,92.0
10363,B1,404.0,0.25,84,92.0
10364,F#2,404.0,0.25,84,92.0
10365,C#3,404.0,0.25,84,92.0
10366,E-4,404.0,0.25,84,92.0
10367,B-4,404.0,0.25,84,92.0
10368,A1,404.25,9/40,60,92.0
10369,F#2,404.25,0.25,53,92.0
10370,E-4,404.25,0.25,53,92.0
10371,B-4,404.25,0.25,53,92.0
10372,A4,404.283,24/125,85,92.0
10373,A4,404.283,24/125,85,92.0
10374,A5,404.283,24/125,85,92.0
10375,A5,404.283,24/125,85,92.0
10376,A4,404.283,24/125,85,92.0
10377,A4,404.283,24/125,85,92.0
10378,A4,404.367,4.0,45,92.0
10379,F4,404.367,4.0,45,92.0
10380,D4,404.367,4.0,45,92.0
10381,C5,404.367,4.0,45,92.0
10382,B4,404.492,121/500,88,92.0
10383,B4,404.492,121/500,88,92.0
10384,B5,404.492,121/500,88,92.0
10385,B5,404.492,121/500,88,92.0
10386,B4,404.492,121/500,88,92.0
10387,B4,404.492,121/500,88,92.0
10388,E1,404.5,11/40,81,92.0
10389,B-2,404.5,0.25,83,92.0
10390,D4,404.5,0.25,83,92.0
10391,B-4,404.5,0.25,83,92.0
10392,C4,404.5,167/1000,70,92.0
10393,F#3,404.5,167/1000,70,92.0
10394,E4,404.5,167/1000,70,92.0
10395,A3,404.5,167/1000,70,92.0
10396,B-4,404.75,0.25,40,92.0
10397,A1,404.775,167/1000,105,92.0
10398,A4,404.775,1/5,88,92.0
10399,A4,404.775,1/5,88,92.0
10400,A5,404.775,1/5,88,92.0
10401,A5,404.775,1/5,88,92.0
10402,A4,404.775,1/5,88,92.0
10403,A4,404.775,1/5,88,92.0
10404,F#2,405.0,0.25,85,92.0
10405,C#2,405.0,0.25,85,92.0
10406,B-4,405.0,0.25,85,92.0
10407,A4,405.0,0.25,85,92.0
10408,F#3,405.0,133/1000,85,92.0
10409,B3,405.0,133/1000,85,92.0
10410,A3,405.0,133/1000,85,92.0
10411,D4,405.0,133/1000,85,92.0
10412,C5,405.017,24/125,88,92.0
10413,C5,405.017,24/125,88,92.0
10414,C6,405.017,24/125,88,92.0
10415,C6,405.017,24/125,88,92.0
10416,C5,405.017,24/125,88,92.0
10417,C5,405.017,24/125,88,92.0
10418,A4,405.242,11/40,58,92.0
10419,A4,405.242,11/40,58,92.0
10420,A5,405.242,11/40,58,92.0
10421,A5,405.242,11/40,58,92.0
10422,A4,405.242,11/40,58,92.0
10423,A4,405.242,11/40,58,92.0
10424,F#2,405.25,0.25,64,92.0
10425,D4,405.25,0.25,64,92.0
10426,B-4,405.25,0.25,64,92.0
10427,A4,405.25,0.25,64,92.0
10428,D5,405.492,217/1000,114,92.0
10429,D5,405.492,217/1000,114,92.0
10430,D6,405.492,217/1000,114,92.0
10431,D6,405.492,217/1000,114,92.0
10432,D5,405.492,217/1000,114,92.0
10433,D5,405.492,217/1000,114,92.0
10434,F#2,405.5,0.25,53,92.0
10435,E-4,405.5,0.25,53,92.0
10436,B-4,405.5,0.25,53,92.0
10437,A4,405.5,0.25,53,92.0
10438,A4,405.725,121/500,82,92.0
10439,A4,405.725,121/500,82,92.0
10440,A5,405.725,121/500,82,92.0
10441,A5,405.725,121/500,82,92.0
10442,A4,405.725,121/500,82,92.0
10443,A4,405.725,121/500,82,92.0
10444,F#2,405.75,0.25,51,92.0
10445,E-4,405.75,0.25,51,92.0
10446,B-4,405.75,0.25,51,92.0
10447,E5,405.967,283/1000,98,92.0
10448,E5,405.967,283/1000,98,92.0
10449,E6,405.967,283/1000,98,92.0
10450,E6,405.967,283/1000,98,92.0
10451,E5,405.967,283/1000,98,92.0
10452,E5,405.967,283/1000,98,92.0
10453,F#2,406.0,0.25,80,92.0
10454,B-4,406.0,0.25,80,92.0
10455,A4,406.242,11/40,80,92.0
10456,A4,406.242,11/40,80,92.0
10457,A5,406.242,11/40,80,92.0
10458,A5,406.242,11/40,80,92.0
10459,A4,406.242,11/40,80,92.0
10460,A4,406.242,11/40,80,92.0
10461,F#2,406.25,0.25,55,92.0
10462,B-4,406.25,0.25,55,92.0
10463,C4,406.25,71/500,72,92.0
10464,F#3,406.25,71/500,72,92.0
10465,E3,406.25,71/500,72,92.0
10466,A3,406.25,71/500,72,92.0
10467,D5,406.475,73/250,104,92.0
10468,D5,406.475,73/250,104,92.0
10469,D6,406.475,73/250,104,92.0
10470,D6,406.475,73/250,104,92.0
10471,D5,406.475,73/250,104,92.0
10472,D5,406.475,73/250,104,92.0
10473,F#2,406.5,0.25,65,92.0
10474,B-4,406.5,0.25,65,92.0
10475,A4,406.742,129/500,63,92.0
10476,A4,406.742,129/500,63,92.0
10477,A5,406.742,129/500,63,92.0
10478,A5,406.742,129/500,63,92.0
10479,A4,406.742,129/500,63,92.0
10480,A4,406.742,129/500,63,92.0
10481,A1,406.75,183/1000,65,92.0
10482,F#2,406.75,0.25,47,92.0
10483,E-4,406.75,0.25,47,92.0
10484,B-4,406.75,0.25,47,92.0
10485,C5,406.983,0.25,82,92.0
10486,C5,406.983,0.25,82,92.0
10487,C6,406.983,0.25,82,92.0
10488,C6,406.983,0.25,82,92.0
10489,C5,406.983,0.25,82,92.0
10490,C5,406.983,0.25,82,92.0
10491,F#2,407.0,0.25,84,92.0
10492,C#2,407.0,0.25,84,92.0
10493,D4,407.0,0.25,84,92.0
10494,B-4,407.0,0.25,84,92.0
10495,A4,407.0,0.25,84,92.0
10496,A1,407.25,0.25,74,92.0
10497,F#2,407.25,0.25,55,92.0
10498,D4,407.25,0.25,55,92.0
10499,B-4,407.25,0.25,55,92.0
10500,A4,407.25,0.25,55,92.0
10501,B3,407.25,117/1000,68,92.0
10502,F#3,407.25,117/1000,68,92.0
10503,A3,407.25,117/1000,68,92.0
10504,E4,407.25,117/1000,68,92.0
10505,B4,407.292,9/40,34,92.0
10506,B4,407.292,9/40,34,92.0
10507,B5,407.292,9/40,34,92.0
10508,B5,407.292,9/40,34,92.0
10509,B4,407.292,9/40,34,92.0
10510,B4,407.292,9/40,34,92.0
10511,A4,407.492,267/1000,91,92.0
10512,A4,407.492,267/1000,91,92.0
10513,A5,407.492,267/1000,91,92.0
10514,A5,407.492,267/1000,91,92.0
10515,A4,407.492,267/1000,91,92.0
10516,A4,407.492,267/1000,91,92.0
10517,B1,407.5,0.25,66,92.0
10518,F#2,407.5,0.25,66,92.0
10519,E-4,407.5,0.25,66,92.0
10520,B-4,407.5,0.25,66,92.0
10521,A4,407.5,0.25,66,92.0
10522,E1,407.75,7/40,77,92.0
10523,F#2,407.75,0.25,41,92.0
10524,E-4,407.75,0.25,41,92.0
10525,B-4,407.75,0.25,41,92.0
10526,A1,408.0,133/1000,97,92.0
10527,A4,408.0,1/5,127,92.0
10528,B1,408.0,0.25,85,92.0
10529,F#2,408.0,0.25,85,92.0
10530,E-4,408.0,0.25,85,92.0
10531,B-4,408.0,0.25,85,92.0
10532,A5,408.0,1/5,127,92.0
10533,A4,408.0,1/5,127,92.0
10534,A1,408.25,79/500,74,92.0
10535,A4,408.25,1/5,127,92.0
10536,F#2,408.25,0.25,53,92.0
10537,E-4,408.25,0.25,53,92.0
10538,B-4,408.25,0.25,53,92.0
10539,A5,408.25,1/5,127,92.0
10540,A4,408.25,1/5,127,92.0
10541,F4,408.367,4.0,40,92.0
10542,C#4,408.367,4.0,40,92.0
10543,C4,408.367,4.0,40,92.0
10544,G4,408.367,4.0,40,92.0
10545,E1,408.5,7/40,90,92.0
10546,A4,408.5,1/5,127,92.0
10547,B-2,408.5,0.25,83,92.0
10548,D4,408.5,0.25,83,92.0
10549,B-4,408.5,0.25,83,92.0
10550,F#3,408.5,0.125,81,92.0
10551,C4,408.5,0.125,81,92.0
10552,A3,408.5,0.125,81,92.0
10553,E4,408.5,0.125,81,92.0
10554,A5,408.5,1/5,127,92.0
10555,A4,408.5,1/5,127,92.0
10556,A1,408.75,3/20,101,92.0
10557,B-4,408.75,0.25,40,92.0
10558,A4,408.75,1/5,127,92.0
10559,A5,408.75,1/5,127,92.0
10560,A4,408.75,1/5,127,92.0
10561,D2,409.0,0.25,83,92.0
10562,B-4,409.0,0.25,83,92.0
10563,A4,409.0,0.25,83,92.0
10564,B3,409.0,167/1000,92,92.0
10565,D4,409.0,167/1000,92,92.0
10566,A3,409.0,167/1000,92,92.0
10567,F#3,409.0,167/1000,92,92.0
10568,A4,409.0,26/125,82,92.0
10569,A4,409.0,26/125,82,92.0
10570,A5,409.0,26/125,82,92.0
10571,A5,409.0,26/125,82,92.0
10572,A4,409.0,26/125,82,92.0
10573,A4,409.0,26/125,82,92.0
10574,G4,409.167,129/500,61,92.0
10575,G4,409.167,129/500,61,92.0
10576,G5,409.167,129/500,61,92.0
10577,G5,409.167,129/500,61,92.0
10578,G4,409.167,129/500,61,92.0
10579,G4,409.167,129/500,61,92.0
10580,E1,409.25,1/10,77,92.0
10581,D2,409.25,0.25,68,92.0
10582,D4,409.25,0.25,68,92.0
10583,B-4,409.25,0.25,68,92.0
10584,A4,409.25,0.25,68,92.0
10585,E1,409.5,167/1000,94,92.0
10586,B1,409.5,0.25,60,92.0
10587,F#2,409.5,0.25,60,92.0
10588,E-4,409.5,0.25,60,92.0
10589,B-4,409.5,0.25,60,92.0
10590,A4,409.5,0.25,60,92.0
10591,E4,409.5,183/1000,73,92.0
10592,E4,409.5,183/1000,73,92.0
10593,E5,409.5,183/1000,73,92.0
10594,E5,409.5,183/1000,73,92.0
10595,E4,409.5,183/1000,73,92.0
10596,E4,409.5,183/1000,73,92.0
10597,A1,409.75,1/5,127,92.0
10598,D2,409.75,0.25,86,92.0
10599,B-2,409.75,0.25,86,92.0
10600,D4,409.75,0.25,86,92.0
10601,B-4,409.75,0.25,86,92.0
10602,A3,409.75,0.125,110,92.0
10603,E4,409.75,0.125,110,92.0
10604,F#3,409.75,0.125,110,92.0
10605,C4,409.75,0.125,110,92.0
10606,A4,409.833,133/1000,127,92.0
10607,A4,409.833,133/1000,127,92.0
10608,A5,409.833,133/1000,127,92.0
10609,A5,409.833,133/1000,127,92.0
10610,A4,409.833,133/1000,127,92.0
10611,A4,409.833,133/1000,127,92.0
10612,F#2,410.0,0.25,1,92.0
10613,B-2,410.0,0.25,1,92.0
10614,C4,413.367,3.0,54,92.0
10615,F#3,413.367,3.0,54,92.0
10616,E4,413.367,3.0,54,92.0
10617,A3,416.7,1.75,65,92.0
10618,D4,416.867,1.5,53,92.0
10619,F4,417.2,1.25,49,92.0
10620,A3,418.7,1667/1000,65,92.0
10621,D4,418.867,1.5,53,92.0
10622,G4,419.2,1167/1000,49,92.0
10623,A3,420.367,83/1000,65,92.0
10624,G4,420.367,83/1000,49,92.0
10625,F4,420.367,71/40,55,92.0
10626,D4,420.367,71/40,55,92.0
10627,C4,420.367,71/40,55,92.0
10628,G#4,420.367,71/40,55,92.0
10629,E4,422.367,71/40,55,92.0
10630,D4,422.367,71/40,55,92.0
10631,B3,422.367,71/40,55,92.0
10632,G#4,422.367,71/40,55,92.0
