,note_name,start_time,duration,velocity,tempo
0,G1,6.5,1.5,110,155.0
1,B3,7.042,0.25,1,155.0
2,E-3,7.292,0.25,1,155.0
3,E-3,7.542,0.25,62,155.0
4,E-3,7.792,26/125,69,155.0
5,G1,8.0,979/500,110,155.0
6,E-3,8.0,21/500,69,155.0
7,A3,8.0,0.25,97,155.0
8,C4,8.0,0.25,97,155.0
9,E4,8.0,0.25,97,155.0
10,A4,8.0,0.25,97,155.0
11,F3,8.042,1979/500,109,155.0
12,A3,8.042,1979/500,109,155.0
13,C4,8.042,1979/500,109,155.0
14,D4,8.042,1979/500,109,155.0
15,E4,8.042,1979/500,109,155.0
16,F#2,8.042,0.25,70,155.0
17,C#3,8.042,0.25,70,155.0
18,E-3,8.042,0.25,70,155.0
19,B3,8.042,0.25,70,155.0
20,B3,9.042,0.25,12,155.0
21,B3,9.542,0.25,95,155.0
22,G2,10.0,729/500,110,155.0
23,B1,10.042,0.25,93,155.0
24,G5,10.5,229/500,97,155.0
25,F#2,11.042,0.25,24,155.0
26,B3,11.042,0.25,24,155.0
27,B4,11.458,271/500,96,155.0
28,G2,11.5,0.5,110,155.0
29,G6,11.5,229/500,97,155.0
30,B1,11.542,0.25,94,155.0
31,B3,11.542,0.25,94,155.0
32,B4,12.0,0.5,96,155.0
33,G2,12.0,1479/500,110,155.0
34,F3,12.0,4.0,109,155.0
35,A3,12.0,4.0,109,155.0
36,C4,12.0,4.0,109,155.0
37,D4,12.0,4.0,109,155.0
38,E4,12.0,4.0,109,155.0
39,F#2,12.042,0.25,52,155.0
40,G4,12.5,667/1000,57,155.0
41,B3,12.542,0.25,1,155.0
42,F#2,13.042,0.25,49,155.0
43,B3,13.042,0.25,49,155.0
44,E4,13.208,0.875,57,155.0
45,B1,13.542,0.25,100,155.0
46,B3,13.542,0.25,100,155.0
47,F#2,14.042,0.25,41,155.0
48,D4,14.083,1.5,50,155.0
49,D2,14.5,479/500,110,155.0
50,B3,14.542,0.25,53,155.0
51,F#2,15.042,0.25,72,155.0
52,B3,15.042,0.25,72,155.0
53,G2,15.5,229/500,110,155.0
54,G5,15.5,0.125,97,155.0
55,F#5,15.667,0.125,97,155.0
56,F5,15.833,0.125,97,155.0
57,C#2,16.0,1229/500,110,155.0
58,E5,16.0,0.25,97,155.0
59,F#2,16.042,0.25,40,155.0
60,C#3,16.042,1979/500,109,155.0
61,F3,16.042,1979/500,109,155.0
62,B3,16.042,1979/500,109,155.0
63,E4,16.042,1979/500,109,155.0
64,E-3,16.542,0.25,49,155.0
65,E-3,16.792,0.25,49,155.0
66,F#2,17.042,0.25,48,155.0
67,E-3,17.042,0.25,48,155.0
68,E-3,17.542,0.25,104,155.0
69,B1,18.042,0.25,62,155.0
70,F#2,18.042,0.25,62,155.0
71,E3,18.5,177/250,110,155.0
72,E-3,18.542,0.25,76,155.0
73,G2,19.0,177/250,110,155.0
74,F#2,19.042,0.25,62,155.0
75,E-3,19.042,0.25,62,155.0
76,C#2,19.5,0.5,110,155.0
77,B3,19.542,0.25,116,155.0
78,C#2,20.0,729/500,110,155.0
79,C#3,20.0,4.0,109,155.0
80,F3,20.0,4.0,109,155.0
81,B3,20.0,4.0,109,155.0
82,E4,20.0,4.0,109,155.0
83,F#2,20.042,0.25,53,155.0
84,E-3,20.542,0.25,63,155.0
85,F#2,21.042,0.25,68,155.0
86,E-3,21.042,0.25,68,155.0
87,E3,21.5,229/500,110,155.0
88,B3,21.542,0.25,115,155.0
89,F4,22.0,229/500,97,155.0
90,G2,22.0,479/500,110,155.0
91,F4,22.0,229/500,97,155.0
92,B1,22.042,0.25,93,155.0
93,A4,22.5,229/500,97,155.0
94,A4,22.542,229/500,97,155.0
95,F#2,22.542,0.25,49,155.0
96,C#2,23.0,479/500,110,155.0
97,B-2,23.042,0.25,77,155.0
98,A4,23.083,26/125,97,155.0
99,A4,23.083,26/125,97,155.0
100,G4,23.25,0.375,97,155.0
101,G4,23.25,0.375,97,155.0
102,E4,23.5,229/500,97,155.0
103,E4,23.5,73/250,97,155.0
104,D4,24.0,1479/500,97,155.0
105,C2,24.0,729/500,110,155.0
106,G3,24.0,0.25,97,155.0
107,B3,24.0,0.25,97,155.0
108,D4,24.0,0.25,97,155.0
109,B3,24.042,1729/500,109,155.0
110,D4,24.042,1729/500,109,155.0
111,E4,24.042,1729/500,109,155.0
112,G4,24.042,1729/500,109,155.0
113,F#2,24.042,0.25,64,155.0
114,C#3,24.042,0.25,64,155.0
115,B3,24.042,0.25,64,155.0
116,E-3,24.542,0.25,49,155.0
117,E-3,24.792,0.25,53,155.0
118,C#3,25.042,0.25,36,155.0
119,E-3,25.042,0.25,36,155.0
120,G2,25.5,229/500,110,155.0
121,B1,25.542,0.25,69,155.0
122,G2,26.0,729/500,110,155.0
123,B1,26.042,0.25,93,155.0
124,G4,26.5,479/500,123,155.0
125,E-3,26.542,0.25,46,155.0
126,E-3,27.042,0.25,52,155.0
127,C3,27.5,0.5,110,155.0
128,D4,27.5,0.5,68,155.0
129,F4,27.5,0.5,68,155.0
130,G#4,27.5,0.5,68,155.0
131,G#3,27.542,229/500,109,155.0
132,C4,27.542,229/500,109,155.0
133,D4,27.542,229/500,109,155.0
134,F4,27.542,229/500,109,155.0
135,E-3,27.542,0.25,70,155.0
136,B3,27.542,0.25,70,155.0
137,C3,28.0,729/500,110,155.0
138,D4,28.0,1729/500,68,155.0
139,F4,28.0,1729/500,68,155.0
140,G#4,28.0,1729/500,68,155.0
141,G#3,28.0,3.5,109,155.0
142,C4,28.0,3.5,109,155.0
143,D4,28.0,3.5,109,155.0
144,F4,28.0,3.5,109,155.0
145,E-3,28.542,0.25,44,155.0
146,C3,29.5,229/500,110,155.0
147,E-3,29.542,0.25,68,155.0
148,C3,30.0,729/500,110,155.0
149,B1,30.042,0.25,93,155.0
150,E-3,30.542,0.25,40,155.0
151,E-3,30.792,0.25,36,155.0
152,E-3,31.042,0.25,30,155.0
153,E-3,31.292,0.25,45,155.0
154,E-3,31.542,0.25,69,155.0
155,C2,32.0,1229/500,110,155.0
156,G3,32.0,1729/500,97,155.0
157,B3,32.0,1729/500,97,155.0
158,D4,32.0,1729/500,97,155.0
159,E4,32.0,1729/500,97,155.0
160,G3,32.042,1729/500,109,155.0
161,B3,32.042,1729/500,109,155.0
162,D4,32.042,1729/500,109,155.0
163,E4,32.042,1729/500,109,155.0
164,C#3,32.042,0.25,48,155.0
165,B3,32.042,0.25,48,155.0
166,B3,33.042,0.25,86,155.0
167,C3,34.0,0.25,110,155.0
168,B1,34.042,0.25,68,155.0
169,E-3,34.042,0.25,68,155.0
170,G3,34.5,99/125,107,155.0
171,C3,34.5,479/500,110,155.0
172,E-3,34.542,0.25,40,155.0
173,E-3,35.042,0.25,53,155.0
174,G4,35.458,271/500,68,155.0
175,C3,35.5,0.5,110,155.0
176,F4,35.5,0.5,97,155.0
177,G#3,35.5,0.5,97,155.0
178,C4,35.5,0.5,97,155.0
179,D4,35.5,0.5,97,155.0
180,G#3,35.542,229/500,109,155.0
181,C4,35.542,229/500,109,155.0
182,D4,35.542,229/500,109,155.0
183,F4,35.542,229/500,109,155.0
184,C#3,35.542,0.25,41,155.0
185,B3,35.542,0.25,41,155.0
186,G4,36.0,833/1000,68,155.0
187,C3,36.0,979/500,110,155.0
188,F4,36.0,1229/500,97,155.0
189,C-1,36.0,123/1000,100,155.0
190,G#3,36.0,1729/500,97,155.0
191,C4,36.0,1729/500,97,155.0
192,D4,36.0,1729/500,97,155.0
193,G#3,36.0,3.5,109,155.0
194,C4,36.0,3.5,109,155.0
195,D4,36.0,3.5,109,155.0
196,F4,36.0,3.5,109,155.0
197,E-3,36.542,0.25,64,155.0
198,C-1,37.0,123/1000,100,155.0
199,E-3,37.042,0.25,58,155.0
200,B-2,37.542,0.25,68,155.0
201,C3,38.0,0.25,110,155.0
202,G#4,38.0,0.75,110,155.0
203,C-1,38.0,123/1000,100,155.0
204,B1,38.042,0.25,59,155.0
205,F#2,38.042,0.25,59,155.0
206,F#2,38.542,0.25,62,155.0
207,E-3,38.542,0.25,62,155.0
208,C5,38.667,667/1000,110,155.0
209,C-1,39.0,123/1000,100,155.0
210,B-2,39.042,0.25,84,155.0
211,E-3,39.042,0.25,84,155.0
212,D5,39.333,0.5,110,155.0
213,C2,40.0,979/500,110,155.0
214,A3,40.0,1729/500,92,155.0
215,E4,40.0,1729/500,92,155.0
216,G4,40.0,1729/500,92,155.0
217,E5,40.0,1729/500,92,155.0
218,C#3,40.042,0.25,33,155.0
219,B3,40.042,1729/500,109,155.0
220,D4,40.042,1729/500,109,155.0
221,E4,40.042,1729/500,109,155.0
222,G4,40.042,1729/500,109,155.0
223,E-3,40.542,0.25,52,155.0
224,G4,40.625,0.75,107,155.0
225,E-3,40.792,0.25,59,155.0
226,E-3,41.042,0.25,39,155.0
227,D4,41.333,177/250,83,155.0
228,E-3,41.542,0.25,110,155.0
229,C3,42.0,229/500,110,155.0
230,B1,42.042,0.25,93,155.0
231,A3,42.167,479/500,59,155.0
232,G2,42.5,479/500,110,155.0
233,E-3,42.542,0.25,46,155.0
234,E-3,43.042,0.25,30,155.0
235,C3,43.5,0.5,110,155.0
236,F4,43.5,0.5,86,155.0
237,G#3,43.5,0.5,94,155.0
238,C4,43.5,0.5,94,155.0
239,D5,43.5,0.5,94,155.0
240,G#3,43.542,229/500,109,155.0
241,C4,43.542,229/500,109,155.0
242,D4,43.542,229/500,109,155.0
243,F4,43.542,229/500,109,155.0
244,E-3,43.542,0.25,90,155.0
245,B3,43.542,0.25,90,155.0
246,C3,44.0,729/500,110,155.0
247,F4,44.0,1229/500,86,155.0
248,G#3,44.0,979/500,94,155.0
249,C4,44.0,979/500,94,155.0
250,D5,44.0,979/500,94,155.0
251,G#3,44.0,3.5,109,155.0
252,C4,44.0,3.5,109,155.0
253,D4,44.0,3.5,109,155.0
254,F4,44.0,3.5,109,155.0
255,A3,44.042,0.25,1,155.0
256,B3,44.542,0.25,111,155.0
257,C#3,45.042,0.25,6,155.0
258,C3,45.5,229/500,110,155.0
259,B3,45.542,0.25,116,155.0
260,C3,46.0,729/500,110,155.0
261,B1,46.042,0.25,93,155.0
262,G5,46.5,729/500,110,155.0
263,B3,46.542,0.25,107,155.0
264,B3,47.042,0.25,100,155.0
265,B3,47.292,0.25,86,155.0
266,B3,47.542,0.25,100,155.0
267,E-3,47.792,26/125,21,155.0
268,C2,48.0,979/500,110,155.0
269,E-3,48.0,21/500,21,155.0
270,A3,48.0,1729/500,87,155.0
271,B3,48.0,1729/500,87,155.0
272,E4,48.0,1729/500,87,155.0
273,E5,48.0,1729/500,87,155.0
274,C#3,48.042,0.25,33,155.0
275,G3,48.042,1729/500,109,155.0
276,B3,48.042,1729/500,109,155.0
277,D4,48.042,1729/500,109,155.0
278,E4,48.042,1729/500,109,155.0
279,E-3,48.542,0.25,46,155.0
280,E4,48.583,26/125,107,155.0
281,D4,48.792,0.25,95,155.0
282,C4,49.0,26/125,86,155.0
283,E-3,49.042,0.25,40,155.0
284,B3,49.208,26/125,97,155.0
285,A3,49.417,26/125,85,155.0
286,F#2,49.542,0.25,104,155.0
287,G#3,49.583,26/125,82,155.0
288,G3,49.833,1917/1000,62,155.0
289,C3,50.0,229/500,110,155.0
290,B1,50.042,0.25,61,155.0
291,E-3,50.042,0.25,61,155.0
292,G2,50.5,1.5,110,155.0
293,F#2,50.542,0.25,86,155.0
294,F#2,51.042,0.25,85,155.0
295,E-3,51.042,0.25,85,155.0
296,F3,51.5,0.5,81,155.0
297,A3,51.5,0.5,81,155.0
298,C4,51.5,0.5,81,155.0
299,F3,51.542,229/500,109,155.0
300,A3,51.542,229/500,109,155.0
301,C4,51.542,229/500,109,155.0
302,D4,51.542,229/500,109,155.0
303,E4,51.542,229/500,109,155.0
304,G4,51.542,229/500,109,155.0
305,B1,51.542,0.25,77,155.0
306,B-2,51.542,0.25,77,155.0
307,C#3,51.542,0.25,77,155.0
308,A3,51.542,0.25,77,155.0
309,A3,51.875,0.125,107,155.0
310,A3,52.0,0.625,107,155.0
311,G2,52.0,1979/500,110,155.0
312,F3,52.0,1979/500,81,155.0
313,A3,52.0,1979/500,81,155.0
314,C4,52.0,1979/500,81,155.0
315,F3,52.0,3.5,109,155.0
316,A3,52.0,3.5,109,155.0
317,C4,52.0,3.5,109,155.0
318,D4,52.0,3.5,109,155.0
319,E4,52.0,3.5,109,155.0
320,G4,52.0,3.5,109,155.0
321,D3,52.542,1333/1000,78,155.0
322,B2,53.542,0.25,123,155.0
323,G3,53.917,917/1000,77,155.0
324,B2,54.042,0.25,127,155.0
325,G3,54.958,229/500,105,155.0
326,G3,55.5,229/500,82,155.0
327,E3,56.0,1521/500,34,155.0
328,C2,56.0,729/500,110,155.0
329,B3,56.0,1729/500,68,155.0
330,E4,56.0,1729/500,68,155.0
331,G4,56.0,1729/500,68,155.0
332,B3,56.042,1729/500,109,155.0
333,D4,56.042,1729/500,109,155.0
334,E4,56.042,1729/500,109,155.0
335,G4,56.042,1729/500,109,155.0
336,B1,56.042,0.25,61,155.0
337,F#2,56.042,0.25,61,155.0
338,A4,56.042,0.25,61,155.0
339,F#2,56.542,0.25,33,155.0
340,C#2,57.042,0.25,100,155.0
341,F#2,57.042,0.25,100,155.0
342,C2,57.5,229/500,110,155.0
343,B1,57.542,0.25,37,155.0
344,F#2,57.542,0.25,37,155.0
345,A4,57.542,0.25,37,155.0
346,C2,58.0,729/500,110,155.0
347,B1,58.042,0.25,63,155.0
348,F#2,58.042,0.25,63,155.0
349,A4,58.042,0.25,63,155.0
350,F#2,58.542,0.25,20,155.0
351,F#2,59.042,0.25,78,155.0
352,C2,59.5,0.25,110,155.0
353,G#3,59.5,0.5,71,155.0
354,C4,59.5,0.5,71,155.0
355,F4,59.5,0.5,71,155.0
356,G#3,59.542,229/500,109,155.0
357,C4,59.542,229/500,109,155.0
358,D4,59.542,229/500,109,155.0
359,F4,59.542,229/500,109,155.0
360,C#2,59.542,0.25,75,155.0
361,F#2,59.542,0.25,75,155.0
362,C2,60.0,729/500,110,155.0
363,G#3,60.0,1729/500,71,155.0
364,C4,60.0,1729/500,71,155.0
365,F4,60.0,1729/500,71,155.0
366,G#3,60.0,3.5,109,155.0
367,C4,60.0,3.5,109,155.0
368,D4,60.0,3.5,109,155.0
369,F4,60.0,3.5,109,155.0
370,B1,60.042,0.25,57,155.0
371,F#2,60.042,0.25,57,155.0
372,A4,60.042,0.25,57,155.0
373,C#2,60.542,0.25,72,155.0
374,F#2,60.542,0.25,72,155.0
375,F#2,61.042,0.25,91,155.0
376,C2,61.5,229/500,110,155.0
377,B1,61.542,0.25,38,155.0
378,F#2,61.542,0.25,38,155.0
379,A4,61.542,0.25,38,155.0
380,C2,62.0,729/500,110,155.0
381,B1,62.042,0.25,78,155.0
382,C#2,62.042,0.25,78,155.0
383,F#2,62.042,0.25,78,155.0
384,A4,62.042,0.25,78,155.0
385,F#2,62.542,0.25,33,155.0
386,A1,63.042,0.25,99,155.0
387,C#2,63.042,0.25,99,155.0
388,B-2,63.042,0.25,99,155.0
389,G2,63.5,229/500,110,155.0
390,C2,64.0,729/500,110,155.0
391,G3,64.0,1729/500,57,155.0
392,B3,64.0,1729/500,57,155.0
393,E4,64.0,1729/500,57,155.0
394,G3,64.042,1729/500,109,155.0
395,B3,64.042,1729/500,109,155.0
396,D4,64.042,1729/500,109,155.0
397,E4,64.042,1729/500,109,155.0
398,B1,64.042,0.25,61,155.0
399,F#2,64.042,0.25,61,155.0
400,A4,64.042,0.25,61,155.0
401,F#2,64.542,0.25,33,155.0
402,C#2,65.042,0.25,100,155.0
403,F#2,65.042,0.25,100,155.0
404,C2,65.5,229/500,110,155.0
405,B1,65.542,0.25,37,155.0
406,F#2,65.542,0.25,37,155.0
407,A4,65.542,0.25,37,155.0
408,C2,66.0,729/500,110,155.0
409,G4,66.0,729/500,127,155.0
410,B1,66.042,0.25,63,155.0
411,F#2,66.042,0.25,63,155.0
412,A4,66.042,0.25,63,155.0
413,F#2,66.542,0.25,20,155.0
414,F#2,67.042,0.25,78,155.0
415,E1,67.5,229/500,110,155.0
416,F4,67.5,0.5,62,155.0
417,G#4,67.5,0.5,107,155.0
418,G#3,67.5,0.5,62,155.0
419,C4,67.5,0.5,62,155.0
420,G#3,67.542,229/500,109,155.0
421,C4,67.542,229/500,109,155.0
422,D4,67.542,229/500,109,155.0
423,F4,67.542,229/500,109,155.0
424,C#2,67.542,0.25,75,155.0
425,F#2,67.542,0.25,75,155.0
426,F1,68.0,729/500,110,155.0
427,F4,68.0,1.5,62,155.0
428,G#4,68.0,979/500,107,155.0
429,G#3,68.0,1229/500,62,155.0
430,C4,68.0,1229/500,62,155.0
431,G#3,68.0,3.5,109,155.0
432,C4,68.0,3.5,109,155.0
433,D4,68.0,3.5,109,155.0
434,F4,68.0,3.5,109,155.0
435,B1,68.042,0.25,57,155.0
436,F#2,68.042,0.25,57,155.0
437,A4,68.042,0.25,57,155.0
438,F4,68.5,1.0,76,155.0
439,C#2,68.542,0.25,72,155.0
440,F#2,68.542,0.25,72,155.0
441,D4,69.0,729/500,76,155.0
442,F#2,69.042,0.25,91,155.0
443,F#1,69.5,229/500,110,155.0
444,B1,69.542,0.25,38,155.0
445,F#2,69.542,0.25,38,155.0
446,A4,69.542,0.25,38,155.0
447,G1,70.0,729/500,110,155.0
448,A1,70.042,0.25,78,155.0
449,B1,70.042,0.25,78,155.0
450,C#2,70.042,0.25,78,155.0
451,B-2,70.042,0.25,78,155.0
452,A4,70.042,0.25,78,155.0
453,D5,70.5,229/500,76,155.0
454,A1,71.0,229/500,110,155.0
455,D5,71.0,229/500,76,155.0
456,C#2,71.042,0.25,104,155.0
457,F#2,71.042,0.25,104,155.0
458,B1,71.5,229/500,110,155.0
459,F#2,71.542,0.25,30,155.0
460,C2,72.0,479/500,110,155.0
461,C5,72.0,1729/500,83,155.0
462,B3,72.042,1729/500,109,155.0
463,D4,72.042,1729/500,109,155.0
464,E4,72.042,1729/500,109,155.0
465,G4,72.042,1729/500,109,155.0
466,B1,72.042,0.25,61,155.0
467,F#2,72.042,0.25,61,155.0
468,A4,72.042,0.25,61,155.0
469,F#2,72.542,0.25,33,155.0
470,C#2,73.042,0.25,100,155.0
471,F#2,73.042,0.25,100,155.0
472,C2,73.5,229/500,110,155.0
473,B1,73.542,0.25,37,155.0
474,F#2,73.542,0.25,37,155.0
475,A4,73.542,0.25,37,155.0
476,C2,74.0,2.0,110,155.0
477,B1,74.042,0.25,63,155.0
478,F#2,74.042,0.25,63,155.0
479,A4,74.042,0.25,63,155.0
480,F#2,74.542,0.25,20,155.0
481,F#2,75.042,0.25,78,155.0
482,G#3,75.5,0.5,85,155.0
483,G#3,75.542,229/500,109,155.0
484,C4,75.542,229/500,109,155.0
485,D4,75.542,229/500,109,155.0
486,F4,75.542,229/500,109,155.0
487,C#2,75.542,0.25,75,155.0
488,F#2,75.542,0.25,75,155.0
489,C2,76.0,479/500,110,155.0
490,G#3,76.0,979/500,85,155.0
491,G#3,76.0,3.5,109,155.0
492,C4,76.0,3.5,109,155.0
493,D4,76.0,3.5,109,155.0
494,F4,76.0,3.5,109,155.0
495,B1,76.042,0.25,57,155.0
496,F#2,76.042,0.25,57,155.0
497,A4,76.042,0.25,57,155.0
498,D3,76.5,229/500,110,155.0
499,D5,76.5,229/500,110,155.0
500,F4,76.5,479/500,107,155.0
501,G#4,76.5,479/500,107,155.0
502,C#2,76.542,0.25,79,155.0
503,F#2,76.542,0.25,79,155.0
504,G#2,76.542,0.25,79,155.0
505,F#2,77.042,0.25,91,155.0
506,C2,77.5,229/500,110,155.0
507,B1,77.542,0.25,38,155.0
508,F#2,77.542,0.25,38,155.0
509,A4,77.542,0.25,38,155.0
510,D2,78.0,479/500,110,155.0
511,F4,78.0,229/500,107,155.0
512,G#4,78.0,479/500,112,155.0
513,C5,78.0,479/500,112,155.0
514,B1,78.042,0.25,66,155.0
515,C#2,78.042,0.25,66,155.0
516,B-2,78.042,0.25,66,155.0
517,A4,78.042,0.25,66,155.0
518,C2,79.0,479/500,110,155.0
519,C#2,79.042,0.25,104,155.0
520,F#2,79.042,0.25,104,155.0
521,F#2,79.542,0.25,30,155.0
522,A1,80.0,1.375,110,155.0
523,F#3,80.0,1479/500,87,155.0
524,A3,80.0,1479/500,87,155.0
525,B3,80.0,1479/500,87,155.0
526,E4,80.0,1479/500,87,155.0
527,A4,80.0,1479/500,87,155.0
528,F#3,80.042,1729/500,109,155.0
529,A3,80.042,1729/500,109,155.0
530,B3,80.042,1729/500,109,155.0
531,D4,80.042,1729/500,109,155.0
532,E4,80.042,1729/500,109,155.0
533,B1,80.042,0.25,61,155.0
534,F#2,80.042,0.25,61,155.0
535,A4,80.042,0.25,61,155.0
536,F#2,80.542,0.25,33,155.0
537,C#2,81.042,0.25,100,155.0
538,F#2,81.042,0.25,100,155.0
539,A1,81.5,229/500,110,155.0
540,B1,81.542,0.25,37,155.0
541,F#2,81.542,0.25,37,155.0
542,A4,81.542,0.25,37,155.0
543,D1,82.0,979/500,110,155.0
544,B1,82.042,0.25,63,155.0
545,F#2,82.042,0.25,63,155.0
546,A4,82.042,0.25,63,155.0
547,F#2,82.542,0.25,20,155.0
548,F#2,83.042,0.25,78,155.0
549,B3,83.5,0.5,87,155.0
550,D4,83.5,0.5,87,155.0
551,F4,83.5,0.5,87,155.0
552,C5,83.542,26/125,87,155.0
553,G#3,83.542,229/500,109,155.0
554,F4,83.542,229/500,109,155.0
555,C4,83.542,229/500,109,155.0
556,D4,83.542,229/500,109,155.0
557,C#2,83.542,0.25,75,155.0
558,F#2,83.542,0.25,75,155.0
559,B4,83.583,417/1000,87,155.0
560,E1,84.0,729/500,110,155.0
561,B4,84.0,2.875,87,155.0
562,B3,84.0,1479/500,87,155.0
563,D4,84.0,1479/500,87,155.0
564,F4,84.0,1479/500,87,155.0
565,G#3,84.0,3.5,109,155.0
566,F4,84.0,3.5,109,155.0
567,C4,84.0,4.0,109,155.0
568,D4,84.0,4.0,109,155.0
569,B1,84.042,0.25,57,155.0
570,F#2,84.042,0.25,57,155.0
571,A4,84.042,0.25,57,155.0
572,C#2,84.542,0.25,72,155.0
573,F#2,84.542,0.25,72,155.0
574,F#2,85.042,0.25,91,155.0
575,E1,85.5,229/500,110,155.0
576,B1,85.542,0.25,38,155.0
577,F#2,85.542,0.25,38,155.0
578,A4,85.542,0.25,38,155.0
579,G#1,86.0,729/500,110,155.0
580,A1,86.042,0.25,78,155.0
581,B1,86.042,0.25,78,155.0
582,C#2,86.042,0.25,78,155.0
583,B-2,86.042,0.25,78,155.0
584,A4,86.042,0.25,78,155.0
585,A1,87.042,0.25,112,155.0
586,C#2,87.042,0.25,112,155.0
587,F#2,87.042,0.25,112,155.0
588,B1,87.5,229/500,110,155.0
589,B1,87.542,0.25,66,155.0
590,F#2,87.542,0.25,66,155.0
591,A1,88.0,729/500,110,155.0
592,A4,88.0,1479/500,72,155.0
593,C5,88.0,1479/500,72,155.0
594,E5,88.0,1479/500,72,155.0
595,G3,88.042,1979/500,109,155.0
596,C4,88.042,1979/500,109,155.0
597,E4,88.042,1979/500,109,155.0
598,B1,88.042,0.25,61,155.0
599,F#2,88.042,0.25,61,155.0
600,A4,88.042,0.25,61,155.0
601,F#2,88.542,0.25,33,155.0
602,C#2,89.042,0.25,100,155.0
603,F#2,89.042,0.25,100,155.0
604,A1,89.5,229/500,110,155.0
605,B1,89.542,0.25,37,155.0
606,F#2,89.542,0.25,37,155.0
607,A4,89.542,0.25,37,155.0
608,A1,90.0,979/500,110,155.0
609,B1,90.042,0.25,63,155.0
610,F#2,90.042,0.25,63,155.0
611,A4,90.042,0.25,63,155.0
612,F#2,90.542,0.25,20,155.0
613,F#2,91.042,0.25,78,155.0
614,D5,91.5,0.5,82,155.0
615,D4,91.5,0.5,82,155.0
616,F4,91.5,0.5,82,155.0
617,G4,91.5,0.5,82,155.0
618,B-4,91.5,0.5,82,155.0
619,C#2,91.542,0.25,75,155.0
620,F#2,91.542,0.25,75,155.0
621,G1,92.0,479/500,110,155.0
622,D5,92.0,979/500,82,155.0
623,D4,92.0,729/500,82,155.0
624,F4,92.0,729/500,82,155.0
625,G4,92.0,729/500,82,155.0
626,B-4,92.0,729/500,82,155.0
627,F3,92.042,1979/500,109,155.0
628,B-3,92.042,1979/500,109,155.0
629,D4,92.042,1979/500,109,155.0
630,B1,92.042,0.25,57,155.0
631,F#2,92.042,0.25,57,155.0
632,A4,92.042,0.25,57,155.0
633,C#2,92.542,0.25,72,155.0
634,F#2,92.542,0.25,72,155.0
635,F#2,93.042,0.25,91,155.0
636,G1,93.5,229/500,110,155.0
637,B1,93.542,0.25,38,155.0
638,F#2,93.542,0.25,38,155.0
639,A4,93.542,0.25,38,155.0
640,C2,94.0,479/500,110,155.0
641,D4,94.0,729/500,82,155.0
642,E4,94.0,729/500,82,155.0
643,G4,94.0,729/500,82,155.0
644,B-4,94.0,729/500,82,155.0
645,C5,94.0,729/500,82,155.0
646,B1,94.042,0.25,66,155.0
647,C#2,94.042,0.25,66,155.0
648,B-2,94.042,0.25,66,155.0
649,A4,94.042,0.25,66,155.0
650,E1,95.0,479/500,110,155.0
651,C#2,95.042,0.25,104,155.0
652,F#2,95.042,0.25,104,155.0
653,F#2,95.542,0.25,30,155.0
654,F1,96.0,479/500,110,155.0
655,F3,96.0,1729/500,78,155.0
656,C4,96.0,1729/500,78,155.0
657,E4,96.0,1979/500,78,155.0
658,A4,96.0,1979/500,78,155.0
659,G3,96.042,1729/500,109,155.0
660,A3,96.042,1729/500,109,155.0
661,C4,96.042,1729/500,109,155.0
662,E4,96.042,1729/500,109,155.0
663,B1,96.042,0.25,61,155.0
664,F#2,96.042,0.25,61,155.0
665,A4,96.042,0.25,61,155.0
666,F#2,96.542,0.25,33,155.0
667,C#2,97.042,0.25,100,155.0
668,F#2,97.042,0.25,100,155.0
669,F1,97.5,229/500,110,155.0
670,B1,97.542,0.25,37,155.0
671,F#2,97.542,0.25,37,155.0
672,A4,97.542,0.25,37,155.0
673,F1,98.0,729/500,110,155.0
674,B1,98.042,0.25,63,155.0
675,F#2,98.042,0.25,63,155.0
676,A4,98.042,0.25,63,155.0
677,F#2,98.542,0.25,20,155.0
678,F#2,99.042,0.25,78,155.0
679,G#3,99.542,229/500,109,155.0
680,C4,99.542,229/500,109,155.0
681,D4,99.542,229/500,109,155.0
682,F4,99.542,229/500,109,155.0
683,C#2,99.542,0.25,75,155.0
684,F#2,99.542,0.25,75,155.0
685,E1,100.0,729/500,110,155.0
686,G#3,100.0,3.5,109,155.0
687,C4,100.0,3.5,109,155.0
688,D4,100.0,3.5,109,155.0
689,F4,100.0,3.5,109,155.0
690,B1,100.042,0.25,57,155.0
691,F#2,100.042,0.25,57,155.0
692,A4,100.042,0.25,57,155.0
693,D3,100.5,229/500,101,155.0
694,C5,100.5,479/500,101,155.0
695,C4,100.5,0.25,101,155.0
696,F4,100.5,0.25,101,155.0
697,G#4,100.5,0.25,101,155.0
698,C#2,100.542,0.25,72,155.0
699,F#2,100.542,0.25,72,155.0
700,F#2,101.042,0.25,91,155.0
701,E1,101.5,0.25,110,155.0
702,B1,101.542,0.25,38,155.0
703,F#2,101.542,0.25,38,155.0
704,A4,101.542,0.25,38,155.0
705,E1,102.0,479/500,110,155.0
706,C5,102.0,729/500,101,155.0
707,D3,102.0,0.25,101,155.0
708,C4,102.0,0.25,101,155.0
709,F4,102.0,229/500,101,155.0
710,G#4,102.0,229/500,101,155.0
711,B1,102.042,0.25,66,155.0
712,C#2,102.042,0.25,66,155.0
713,B-2,102.042,0.25,66,155.0
714,A4,102.042,0.25,66,155.0
715,E2,102.5,229/500,110,155.0
716,B1,103.0,229/500,110,155.0
717,C#2,103.042,0.25,96,155.0
718,F#2,103.042,0.25,96,155.0
719,G#2,103.042,0.25,96,155.0
720,B-1,103.5,229/500,110,155.0
721,F#2,103.542,0.25,30,155.0
722,A1,104.0,479/500,110,155.0
723,A2,104.0,0.25,101,155.0
724,C5,104.0,1479/500,85,155.0
725,E4,104.0,1229/500,85,155.0
726,G4,104.0,1229/500,85,155.0
727,G3,104.042,1729/500,109,155.0
728,B3,104.042,1729/500,109,155.0
729,C4,104.042,1729/500,109,155.0
730,E4,104.042,1729/500,109,155.0
731,B1,104.042,0.25,61,155.0
732,F#2,104.042,0.25,61,155.0
733,A4,104.042,0.25,61,155.0
734,F#2,104.542,0.25,33,155.0
735,C#2,105.042,0.25,100,155.0
736,F#2,105.042,0.25,100,155.0
737,A1,105.5,0.25,110,155.0
738,B1,105.542,0.25,37,155.0
739,F#2,105.542,0.25,37,155.0
740,A4,105.542,0.25,37,155.0
741,A1,106.0,229/500,110,155.0
742,B1,106.042,0.25,63,155.0
743,F#2,106.042,0.25,63,155.0
744,A4,106.042,0.25,63,155.0
745,B1,106.5,229/500,110,155.0
746,F#2,106.542,0.25,20,155.0
747,C2,107.0,229/500,110,155.0
748,F#2,107.042,0.25,78,155.0
749,D2,107.5,229/500,110,155.0
750,D3,107.5,0.25,101,155.0
751,F#4,107.5,0.5,85,155.0
752,A4,107.5,0.5,85,155.0
753,C5,107.5,0.5,85,155.0
754,F#3,107.542,229/500,109,155.0
755,A3,107.542,229/500,109,155.0
756,C4,107.542,229/500,109,155.0
757,B3,107.542,229/500,109,155.0
758,E4,107.542,229/500,109,155.0
759,C#2,107.542,0.25,75,155.0
760,F#2,107.542,0.25,75,155.0
761,D2,108.0,479/500,110,155.0
762,F#4,108.0,1229/500,85,155.0
763,A4,108.0,1229/500,85,155.0
764,C5,108.0,1229/500,85,155.0
765,F#3,108.0,4.0,109,155.0
766,A3,108.0,4.0,109,155.0
767,C4,108.0,4.0,109,155.0
768,B3,108.0,3.5,109,155.0
769,E4,108.0,3.5,109,155.0
770,B1,108.042,0.25,57,155.0
771,F#2,108.042,0.25,57,155.0
772,A4,108.042,0.25,57,155.0
773,C#2,108.542,0.25,72,155.0
774,F#2,108.542,0.25,72,155.0
775,F#2,109.042,0.25,91,155.0
776,D2,109.5,229/500,110,155.0
777,B1,109.542,0.25,38,155.0
778,F#2,109.542,0.25,38,155.0
779,A4,109.542,0.25,38,155.0
780,F#1,110.0,729/500,110,155.0
781,B1,110.042,0.25,66,155.0
782,C#2,110.042,0.25,66,155.0
783,B-2,110.042,0.25,66,155.0
784,A4,110.042,0.25,66,155.0
785,F#3,110.5,479/500,101,155.0
786,F#4,110.5,479/500,101,155.0
787,C5,110.5,479/500,101,155.0
788,E5,110.5,479/500,101,155.0
789,C#2,111.042,0.25,104,155.0
790,F#2,111.042,0.25,104,155.0
791,F#1,111.5,229/500,110,155.0
792,F#2,111.542,0.25,30,155.0
793,G1,112.0,479/500,110,155.0
794,C4,112.0,1979/500,101,155.0
795,E4,112.0,1979/500,101,155.0
796,G4,112.0,1979/500,101,155.0
797,A4,112.0,1979/500,101,155.0
798,A3,112.042,1979/500,109,155.0
799,C4,112.042,1979/500,109,155.0
800,D4,112.042,1979/500,109,155.0
801,G4,112.042,1979/500,109,155.0
802,B1,112.042,0.25,61,155.0
803,F#2,112.042,0.25,61,155.0
804,A4,112.042,0.25,61,155.0
805,F#2,112.542,0.25,33,155.0
806,C#2,113.042,0.25,100,155.0
807,F#2,113.042,0.25,100,155.0
808,G1,113.5,0.25,110,155.0
809,B1,113.542,0.25,37,155.0
810,F#2,113.542,0.25,37,155.0
811,A4,113.542,0.25,37,155.0
812,G1,114.0,729/500,110,155.0
813,B1,114.042,0.25,63,155.0
814,F#2,114.042,0.25,63,155.0
815,A4,114.042,0.25,63,155.0
816,F#2,114.542,0.25,20,155.0
817,F#2,115.042,0.25,78,155.0
818,G1,115.5,229/500,110,155.0
819,B1,115.542,0.25,86,155.0
820,C#2,115.542,0.25,86,155.0
821,F#2,115.542,0.25,86,155.0
822,F1,116.0,0.875,110,155.0
823,A3,116.0,1.0,109,155.0
824,C4,116.0,0.5,109,155.0
825,D4,116.0,0.5,109,155.0
826,G4,116.0,0.5,109,155.0
827,B1,116.042,0.25,57,155.0
828,F#2,116.042,0.25,57,155.0
829,A4,116.042,0.25,57,155.0
830,A3,116.5,521/500,107,155.0
831,A3,116.5,229/500,118,155.0
832,G4,116.5,229/500,118,155.0
833,C5,116.5,229/500,118,155.0
834,F4,116.5,0.25,118,155.0
835,A4,116.5,0.25,118,155.0
836,E4,116.542,479/500,109,155.0
837,F4,116.542,479/500,109,155.0
838,A4,116.542,479/500,109,155.0
839,C5,116.542,479/500,109,155.0
840,B1,116.542,0.25,82,155.0
841,C#2,116.542,0.25,82,155.0
842,F#2,116.542,0.25,82,155.0
843,F#1,117.0,0.875,110,155.0
844,F#2,117.042,0.25,91,155.0
845,A3,117.5,229/500,118,155.0
846,F4,117.5,229/500,118,155.0
847,A4,117.5,229/500,118,155.0
848,D3,117.542,521/500,66,155.0
849,C4,117.542,479/500,109,155.0
850,E4,117.542,479/500,109,155.0
851,G4,117.542,479/500,109,155.0
852,A4,117.542,479/500,109,155.0
853,B1,117.542,0.25,38,155.0
854,F#2,117.542,0.25,38,155.0
855,A4,117.542,0.25,38,155.0
856,G1,118.0,479/500,110,155.0
857,B1,118.042,0.25,66,155.0
858,C#2,118.042,0.25,66,155.0
859,B-2,118.042,0.25,66,155.0
860,A4,118.042,0.25,66,155.0
861,A4,118.5,0.25,118,155.0
862,A3,118.5,229/500,118,155.0
863,F4,118.5,229/500,118,155.0
864,B4,118.5,229/500,118,155.0
865,E5,118.5,229/500,118,155.0
866,A3,118.542,323/250,100,155.0
867,E5,118.542,729/500,109,155.0
868,C4,118.542,479/500,109,155.0
869,F4,118.542,479/500,109,155.0
870,G4,118.542,479/500,109,155.0
871,B4,118.542,479/500,109,155.0
872,B1,119.0,479/500,110,155.0
873,C#2,119.042,0.25,112,155.0
874,F#2,119.042,0.25,112,155.0
875,A2,119.042,0.25,112,155.0
876,F#2,119.542,0.25,30,155.0
877,C2,120.0,479/500,110,155.0
878,G3,120.0,0.25,96,155.0
879,B3,120.0,229/500,88,155.0
880,E4,120.0,229/500,88,155.0
881,G4,120.0,229/500,88,155.0
882,B3,120.042,1729/500,109,155.0
883,D4,120.042,1729/500,109,155.0
884,E4,120.042,1729/500,109,155.0
885,G4,120.042,1729/500,109,155.0
886,B1,120.042,0.25,61,155.0
887,F#2,120.042,0.25,61,155.0
888,A4,120.042,0.25,61,155.0
889,G3,120.083,3667/1000,58,155.0
890,F#2,120.542,0.25,33,155.0
891,C#2,121.042,0.25,100,155.0
892,F#2,121.042,0.25,100,155.0
893,C2,121.5,0.25,110,155.0
894,B1,121.542,0.25,37,155.0
895,F#2,121.542,0.25,37,155.0
896,A4,121.542,0.25,37,155.0
897,C2,122.0,2.0,110,155.0
898,B1,122.042,0.25,63,155.0
899,F#2,122.042,0.25,63,155.0
900,A4,122.042,0.25,63,155.0
901,F#2,122.542,0.25,20,155.0
902,F#2,123.042,0.25,78,155.0
903,G#3,123.5,0.5,88,155.0
904,C4,123.5,0.5,88,155.0
905,F4,123.5,0.5,88,155.0
906,G#3,123.542,229/500,109,155.0
907,C4,123.542,229/500,109,155.0
908,D4,123.542,229/500,109,155.0
909,F4,123.542,229/500,109,155.0
910,C#2,123.542,0.25,75,155.0
911,F#2,123.542,0.25,75,155.0
912,C2,124.0,729/500,110,155.0
913,G#3,124.0,229/500,88,155.0
914,C4,124.0,229/500,88,155.0
915,F4,124.0,229/500,88,155.0
916,G#3,124.0,3.5,109,155.0
917,C4,124.0,3.5,109,155.0
918,D4,124.0,3.5,109,155.0
919,F4,124.0,3.5,109,155.0
920,B1,124.042,0.25,57,155.0
921,F#2,124.042,0.25,57,155.0
922,A4,124.042,0.25,57,155.0
923,C#2,124.542,0.25,72,155.0
924,F#2,124.542,0.25,72,155.0
925,F#2,125.042,0.25,91,155.0
926,C2,125.5,229/500,110,155.0
927,B1,125.542,0.25,38,155.0
928,F#2,125.542,0.25,38,155.0
929,A4,125.542,0.25,38,155.0
930,G2,126.0,729/500,110,155.0
931,B1,126.042,0.25,66,155.0
932,C#2,126.042,0.25,66,155.0
933,B-2,126.042,0.25,66,155.0
934,A4,126.042,0.25,66,155.0
935,F3,126.5,229/500,64,155.0
936,C4,126.5,229/500,64,155.0
937,G#3,126.5,229/500,96,155.0
938,C4,126.5,229/500,96,155.0
939,D4,126.5,229/500,96,155.0
940,F4,126.5,229/500,96,155.0
941,A3,127.0,177/250,83,155.0
942,D4,127.0,177/250,83,155.0
943,C#2,127.042,0.25,104,155.0
944,F#2,127.042,0.25,104,155.0
945,G2,127.5,229/500,110,155.0
946,F#2,127.542,0.25,30,155.0
947,B3,128.0,3.5,54,155.0
948,D4,128.0,4.0,46,155.0
949,C2,128.0,479/500,110,155.0
950,G3,128.0,229/500,96,155.0
951,A3,128.0,229/500,96,155.0
952,B3,128.0,229/500,96,155.0
953,D4,128.0,229/500,96,155.0
954,G3,128.042,1729/500,109,155.0
955,B3,128.042,1729/500,109,155.0
956,D4,128.042,1729/500,109,155.0
957,E4,128.042,1729/500,109,155.0
958,B1,128.042,0.25,61,155.0
959,F#2,128.042,0.25,61,155.0
960,A4,128.042,0.25,61,155.0
961,F#2,128.542,0.25,33,155.0
962,C#2,129.042,0.25,100,155.0
963,F#2,129.042,0.25,100,155.0
964,C2,129.5,0.25,110,155.0
965,B4,129.5,229/500,105,155.0
966,B1,129.542,0.25,37,155.0
967,F#2,129.542,0.25,37,155.0
968,A4,129.542,0.25,37,155.0
969,C2,130.0,229/500,110,155.0
970,B1,130.042,0.25,63,155.0
971,F#2,130.042,0.25,63,155.0
972,A4,130.042,0.25,63,155.0
973,C2,130.5,177/250,110,155.0
974,G5,130.5,479/500,105,155.0
975,F#2,130.542,0.25,20,155.0
976,F#2,131.042,0.25,78,155.0
977,G#3,131.5,0.5,52,155.0
978,C3,131.5,229/500,110,155.0
979,C4,131.5,0.5,105,155.0
980,G#3,131.5,0.5,105,155.0
981,D4,131.5,0.5,105,155.0
982,D5,131.5,0.5,105,155.0
983,G#3,131.542,229/500,109,155.0
984,C4,131.542,229/500,109,155.0
985,D4,131.542,229/500,109,155.0
986,F4,131.542,229/500,109,155.0
987,C#2,131.542,0.25,75,155.0
988,F#2,131.542,0.25,75,155.0
989,G#3,132.0,2833/1000,52,155.0
990,D4,132.0,2.375,46,155.0
991,B-2,132.0,177/250,110,155.0
992,C4,132.0,979/500,105,155.0
993,G#3,132.0,479/500,105,155.0
994,D4,132.0,479/500,105,155.0
995,D5,132.0,479/500,105,155.0
996,G#3,132.0,3.5,109,155.0
997,C4,132.0,3.5,109,155.0
998,D4,132.0,3.5,109,155.0
999,F4,132.0,3.5,109,155.0
1000,B1,132.042,0.25,57,155.0
1001,F#2,132.042,0.25,57,155.0
1002,A4,132.042,0.25,57,155.0
1003,C#2,132.542,0.25,72,155.0
1004,F#2,132.542,0.25,72,155.0
1005,B-2,132.75,229/500,110,155.0
1006,F#2,133.042,0.25,91,155.0
1007,B-2,133.5,229/500,110,155.0
1008,B1,133.542,0.25,38,155.0
1009,F#2,133.542,0.25,38,155.0
1010,A4,133.542,0.25,38,155.0
1011,G#2,134.0,479/500,110,155.0
1012,B1,134.042,0.25,66,155.0
1013,C#2,134.042,0.25,66,155.0
1014,B-2,134.042,0.25,66,155.0
1015,A4,134.042,0.25,66,155.0
1016,G2,135.0,229/500,110,155.0
1017,C6,135.0,0.25,105,155.0
1018,C4,135.0,667/1000,58,155.0
1019,E4,135.0,667/1000,58,155.0
1020,C#2,135.042,0.25,104,155.0
1021,F#2,135.042,0.25,104,155.0
1022,G2,135.5,229/500,110,155.0
1023,F#2,135.542,0.25,30,155.0
1024,C2,136.0,479/500,110,155.0
1025,B3,136.0,2.375,48,155.0
1026,D4,136.0,2.375,48,155.0
1027,D4,136.0,1479/500,86,155.0
1028,E4,136.0,1479/500,86,155.0
1029,G4,136.0,1479/500,86,155.0
1030,B3,136.042,1729/500,109,155.0
1031,D4,136.042,1729/500,109,155.0
1032,E4,136.042,1729/500,109,155.0
1033,G4,136.042,1729/500,109,155.0
1034,B1,136.042,0.25,61,155.0
1035,F#2,136.042,0.25,61,155.0
1036,A4,136.042,0.25,61,155.0
1037,F#2,136.542,0.25,33,155.0
1038,C#2,137.042,0.25,100,155.0
1039,F#2,137.042,0.25,100,155.0
1040,C2,137.5,229/500,110,155.0
1041,B1,137.542,0.25,37,155.0
1042,F#2,137.542,0.25,37,155.0
1043,A4,137.542,0.25,37,155.0
1044,G1,138.0,729/500,110,155.0
1045,B1,138.042,0.25,63,155.0
1046,F#2,138.042,0.25,63,155.0
1047,A4,138.042,0.25,63,155.0
1048,F#2,138.542,0.25,20,155.0
1049,F#2,139.042,0.25,78,155.0
1050,C2,139.5,0.5,110,155.0
1051,D4,139.5,0.5,86,155.0
1052,F4,139.5,0.5,86,155.0
1053,G#4,139.5,0.5,86,155.0
1054,G#3,139.542,229/500,109,155.0
1055,C4,139.542,229/500,109,155.0
1056,D4,139.542,229/500,109,155.0
1057,F4,139.542,229/500,109,155.0
1058,C#2,139.542,0.25,75,155.0
1059,F#2,139.542,0.25,75,155.0
1060,C2,140.0,729/500,110,155.0
1061,D4,140.0,979/500,86,155.0
1062,F4,140.0,979/500,86,155.0
1063,G#4,140.0,979/500,86,155.0
1064,G#3,140.0,3.5,109,155.0
1065,C4,140.0,3.5,109,155.0
1066,D4,140.0,3.5,109,155.0
1067,F4,140.0,3.5,109,155.0
1068,B1,140.042,0.25,57,155.0
1069,F#2,140.042,0.25,57,155.0
1070,A4,140.042,0.25,57,155.0
1071,C#2,140.542,0.25,72,155.0
1072,F#2,140.542,0.25,72,155.0
1073,F#2,141.042,0.25,91,155.0
1074,C2,141.5,229/500,110,155.0
1075,B1,141.542,0.25,38,155.0
1076,F#2,141.542,0.25,38,155.0
1077,A4,141.542,0.25,38,155.0
1078,G2,142.0,479/500,110,155.0
1079,B1,142.042,0.25,66,155.0
1080,C#2,142.042,0.25,66,155.0
1081,B-2,142.042,0.25,66,155.0
1082,A4,142.042,0.25,66,155.0
1083,G4,142.5,229/500,106,155.0
1084,C2,143.0,229/500,110,155.0
1085,C5,143.0,229/500,106,155.0
1086,C#2,143.042,0.25,104,155.0
1087,F#2,143.042,0.25,104,155.0
1088,C2,143.5,229/500,110,155.0
1089,D5,143.5,0.25,106,155.0
1090,F#2,143.542,0.25,30,155.0
1091,A1,144.0,151/125,110,155.0
1092,E5,144.0,0.25,106,155.0
1093,E4,144.0,229/500,91,155.0
1094,F#4,144.0,229/500,91,155.0
1095,A4,144.0,229/500,91,155.0
1096,F#3,144.042,1729/500,109,155.0
1097,A3,144.042,1729/500,109,155.0
1098,B3,144.042,1729/500,109,155.0
1099,D4,144.042,1729/500,109,155.0
1100,E4,144.042,1729/500,109,155.0
1101,B1,144.042,0.25,61,155.0
1102,F#2,144.042,0.25,61,155.0
1103,A4,144.042,0.25,61,155.0
1104,F#2,144.542,0.25,33,155.0
1105,C#2,145.042,0.25,100,155.0
1106,F#2,145.042,0.25,100,155.0
1107,A1,145.5,229/500,110,155.0
1108,B1,145.542,0.25,37,155.0
1109,F#2,145.542,0.25,37,155.0
1110,A4,145.542,0.25,37,155.0
1111,D1,146.0,729/500,110,155.0
1112,B1,146.042,0.25,63,155.0
1113,F#2,146.042,0.25,63,155.0
1114,A4,146.042,0.25,63,155.0
1115,F#2,146.542,0.25,20,155.0
1116,F#2,147.042,0.25,78,155.0
1117,E4,147.5,0.5,81,155.0
1118,E-1,147.5,229/500,110,155.0
1119,A4,147.5,0.5,91,155.0
1120,B4,147.5,0.5,96,155.0
1121,D5,147.5,0.5,96,155.0
1122,F5,147.5,0.5,96,155.0
1123,G#3,147.542,229/500,109,155.0
1124,F4,147.542,229/500,109,155.0
1125,C4,147.542,229/500,109,155.0
1126,D4,147.542,229/500,109,155.0
1127,C#2,147.542,0.25,75,155.0
1128,F#2,147.542,0.25,75,155.0
1129,B4,148.0,583/1000,87,155.0
1130,E4,148.0,167/1000,81,155.0
1131,E1,148.0,151/125,110,155.0
1132,A4,148.0,729/500,91,155.0
1133,B4,148.0,229/500,96,155.0
1134,D5,148.0,229/500,96,155.0
1135,F5,148.0,229/500,96,155.0
1136,G#3,148.0,3.5,109,155.0
1137,F4,148.0,3.5,109,155.0
1138,C4,148.0,4.0,109,155.0
1139,D4,148.0,4.0,109,155.0
1140,B1,148.042,0.25,57,155.0
1141,F#2,148.042,0.25,57,155.0
1142,A4,148.042,0.25,57,155.0
1143,A4,148.5,229/500,107,155.0
1144,C#2,148.542,0.25,72,155.0
1145,F#2,148.542,0.25,72,155.0
1146,F#2,149.042,0.25,91,155.0
1147,G#4,149.5,0.375,76,155.0
1148,E1,149.5,229/500,110,155.0
1149,B1,149.542,0.25,38,155.0
1150,F#2,149.542,0.25,38,155.0
1151,A4,149.542,0.25,38,155.0
1152,G#1,150.0,427/250,110,155.0
1153,B1,150.042,0.25,66,155.0
1154,C#2,150.042,0.25,66,155.0
1155,B-2,150.042,0.25,66,155.0
1156,A4,150.042,0.25,66,155.0
1157,F4,150.5,1.5,74,155.0
1158,D5,151.0,229/500,91,155.0
1159,G#4,151.0,0.25,96,155.0
1160,B4,151.0,0.25,96,155.0
1161,F5,151.0,0.25,96,155.0
1162,C#2,151.042,0.25,104,155.0
1163,F#2,151.042,0.25,104,155.0
1164,G#1,151.5,26/125,110,155.0
1165,F#2,151.542,0.25,30,155.0
1166,E4,152.0,3.25,57,155.0
1167,F4,152.0,21/500,74,155.0
1168,A2,152.0,427/250,110,155.0
1169,A4,152.0,229/500,91,155.0
1170,B4,152.0,229/500,91,155.0
1171,C5,152.0,229/500,91,155.0
1172,E5,152.0,229/500,91,155.0
1173,G3,152.042,1729/500,109,155.0
1174,B3,152.042,1729/500,109,155.0
1175,C4,152.042,1729/500,109,155.0
1176,E4,152.042,1729/500,109,155.0
1177,B1,152.042,0.25,68,155.0
1178,F#2,152.042,0.25,68,155.0
1179,A3,152.042,0.25,68,155.0
1180,A4,152.042,0.25,68,155.0
1181,F#2,152.542,0.25,33,155.0
1182,C#2,153.042,0.25,100,155.0
1183,F#2,153.042,0.25,100,155.0
1184,E2,153.5,229/500,110,155.0
1185,B1,153.542,0.25,37,155.0
1186,F#2,153.542,0.25,37,155.0
1187,A4,153.542,0.25,37,155.0
1188,C2,154.0,729/500,110,155.0
1189,B1,154.042,0.25,63,155.0
1190,F#2,154.042,0.25,63,155.0
1191,A4,154.042,0.25,63,155.0
1192,G3,154.5,0.125,91,155.0
1193,C4,154.5,0.125,91,155.0
1194,E4,154.5,0.125,91,155.0
1195,G4,154.5,0.125,91,155.0
1196,F#2,154.542,0.25,20,155.0
1197,F#2,155.042,0.25,78,155.0
1198,A1,155.5,229/500,110,155.0
1199,F3,155.542,229/500,109,155.0
1200,A3,155.542,229/500,109,155.0
1201,B-3,155.542,229/500,109,155.0
1202,C4,155.542,229/500,109,155.0
1203,D4,155.542,229/500,109,155.0
1204,F4,155.542,229/500,109,155.0
1205,C#2,155.542,0.25,75,155.0
1206,F#2,155.542,0.25,75,155.0
1207,G1,156.0,151/125,110,155.0
1208,F3,156.0,2.0,109,155.0
1209,A3,156.0,2.0,109,155.0
1210,B-3,156.0,2.0,109,155.0
1211,C4,156.0,2.0,109,155.0
1212,D4,156.0,2.0,109,155.0
1213,F4,156.0,2.0,109,155.0
1214,B1,156.042,0.25,57,155.0
1215,F#2,156.042,0.25,57,155.0
1216,A4,156.042,0.25,57,155.0
1217,A3,156.5,0.125,91,155.0
1218,D4,156.5,0.125,91,155.0
1219,F4,156.5,0.125,91,155.0
1220,A4,156.5,0.125,91,155.0
1221,C#2,156.542,0.25,72,155.0
1222,F#2,156.542,0.25,72,155.0
1223,F#2,157.042,0.25,91,155.0
1224,G1,157.5,229/500,110,155.0
1225,B1,157.542,0.25,38,155.0
1226,F#2,157.542,0.25,38,155.0
1227,A4,157.542,0.25,38,155.0
1228,C2,158.0,229/500,110,155.0
1229,E3,158.0,729/500,95,155.0
1230,B-3,158.0,979/500,91,155.0
1231,E4,158.0,979/500,91,155.0
1232,G4,158.0,979/500,91,155.0
1233,C5,158.0,979/500,91,155.0
1234,E3,158.042,729/500,109,155.0
1235,E4,158.042,729/500,109,155.0
1236,B-3,158.042,979/500,109,155.0
1237,C4,158.042,979/500,109,155.0
1238,D4,158.042,979/500,109,155.0
1239,B1,158.042,0.25,66,155.0
1240,C#2,158.042,0.25,66,155.0
1241,B-2,158.042,0.25,66,155.0
1242,A4,158.042,0.25,66,155.0
1243,G1,158.5,177/250,110,155.0
1244,E1,159.0,479/500,110,155.0
1245,C#2,159.042,0.25,104,155.0
1246,F#2,159.042,0.25,104,155.0
1247,F#2,159.542,0.25,30,155.0
1248,F1,160.0,151/125,110,155.0
1249,F3,160.0,1729/500,85,155.0
1250,C4,160.0,1729/500,85,155.0
1251,E4,160.0,1729/500,85,155.0
1252,A4,160.0,1729/500,85,155.0
1253,G3,160.042,1729/500,109,155.0
1254,A3,160.042,1729/500,109,155.0
1255,C4,160.042,1729/500,109,155.0
1256,E4,160.042,1729/500,109,155.0
1257,G4,160.042,1729/500,109,155.0
1258,B1,160.042,0.25,61,155.0
1259,F#2,160.042,0.25,61,155.0
1260,A4,160.042,0.25,61,155.0
1261,F#2,160.542,0.25,33,155.0
1262,C#2,161.042,0.25,100,155.0
1263,F#2,161.042,0.25,100,155.0
1264,F1,161.5,26/125,110,155.0
1265,B1,161.542,0.25,37,155.0
1266,F#2,161.542,0.25,37,155.0
1267,A4,161.542,0.25,37,155.0
1268,F1,162.0,427/250,110,155.0
1269,B1,162.042,0.25,63,155.0
1270,F#2,162.042,0.25,63,155.0
1271,A4,162.042,0.25,63,155.0
1272,F#2,162.542,0.25,20,155.0
1273,F#2,163.042,0.25,78,155.0
1274,E3,163.542,229/500,109,155.0
1275,G#3,163.542,229/500,109,155.0
1276,C4,163.542,229/500,109,155.0
1277,D4,163.542,229/500,109,155.0
1278,F4,163.542,229/500,109,155.0
1279,G4,163.542,229/500,109,155.0
1280,C#2,163.542,0.25,75,155.0
1281,F#2,163.542,0.25,75,155.0
1282,E1,164.0,729/500,110,155.0
1283,E3,164.0,0.5,109,155.0
1284,G#3,164.0,0.5,109,155.0
1285,C4,164.0,0.5,109,155.0
1286,D4,164.0,0.5,109,155.0
1287,F4,164.0,0.5,109,155.0
1288,G4,164.0,0.5,109,155.0
1289,B1,164.042,0.25,57,155.0
1290,F#2,164.042,0.25,57,155.0
1291,A4,164.042,0.25,57,155.0
1292,D4,164.5,0.25,105,155.0
1293,E4,164.5,0.25,105,155.0
1294,G#4,164.5,0.25,105,155.0
1295,C5,164.5,0.25,105,155.0
1296,E3,164.542,729/500,109,155.0
1297,C4,164.542,729/500,109,155.0
1298,D4,164.542,729/500,109,155.0
1299,F4,164.542,729/500,109,155.0
1300,G4,164.542,729/500,109,155.0
1301,C#2,164.542,0.25,72,155.0
1302,F#2,164.542,0.25,72,155.0
1303,F#2,165.042,0.25,91,155.0
1304,B1,165.5,229/500,110,155.0
1305,B1,165.542,0.25,38,155.0
1306,F#2,165.542,0.25,38,155.0
1307,A4,165.542,0.25,38,155.0
1308,E1,166.0,229/500,110,155.0
1309,D4,166.0,0.25,105,155.0
1310,E4,166.0,0.25,105,155.0
1311,G#4,166.0,0.25,105,155.0
1312,C5,166.0,0.25,105,155.0
1313,E3,166.042,729/500,109,155.0
1314,G#3,166.042,729/500,109,155.0
1315,C4,166.042,729/500,109,155.0
1316,D4,166.042,729/500,109,155.0
1317,F4,166.042,729/500,109,155.0
1318,G4,166.042,729/500,109,155.0
1319,B1,166.042,0.25,66,155.0
1320,C#2,166.042,0.25,66,155.0
1321,B-2,166.042,0.25,66,155.0
1322,A4,166.042,0.25,66,155.0
1323,D2,166.5,229/500,110,155.0
1324,B1,167.0,229/500,110,155.0
1325,G#3,167.0,229/500,88,155.0
1326,D4,167.0,229/500,88,155.0
1327,F4,167.0,229/500,88,155.0
1328,G#3,167.042,229/500,109,155.0
1329,C4,167.042,229/500,109,155.0
1330,F4,167.042,229/500,109,155.0
1331,C#2,167.042,0.25,104,155.0
1332,F#2,167.042,0.25,104,155.0
1333,B-1,167.5,229/500,110,155.0
1334,F#2,167.542,0.25,30,155.0
1335,A1,168.0,151/125,110,155.0
1336,G3,168.0,229/500,91,155.0
1337,C4,168.0,229/500,91,155.0
1338,E4,168.0,229/500,91,155.0
1339,G3,168.042,1729/500,109,155.0
1340,B3,168.042,1729/500,109,155.0
1341,C4,168.042,1729/500,109,155.0
1342,E4,168.042,1729/500,109,155.0
1343,B1,168.042,0.25,57,155.0
1344,F#2,168.042,0.25,57,155.0
1345,A3,168.042,0.25,57,155.0
1346,A4,168.042,0.25,57,155.0
1347,F#2,168.542,0.25,33,155.0
1348,C#2,169.042,0.25,100,155.0
1349,F#2,169.042,0.25,100,155.0
1350,A1,169.5,26/125,110,155.0
1351,B1,169.542,0.25,37,155.0
1352,F#2,169.542,0.25,37,155.0
1353,A4,169.542,0.25,37,155.0
1354,A1,170.0,729/500,110,155.0
1355,B1,170.042,0.25,63,155.0
1356,F#2,170.042,0.25,63,155.0
1357,A4,170.042,0.25,63,155.0
1358,A4,170.542,729/500,109,155.0
1359,F#2,170.542,0.25,20,155.0
1360,F#2,171.042,0.25,78,155.0
1361,D2,171.5,229/500,110,155.0
1362,G#3,171.5,0.5,91,155.0
1363,C4,171.5,0.5,91,155.0
1364,E4,171.5,0.5,91,155.0
1365,F#3,171.542,229/500,109,155.0
1366,A3,171.542,229/500,109,155.0
1367,C4,171.542,229/500,109,155.0
1368,B3,171.542,229/500,109,155.0
1369,E4,171.542,229/500,109,155.0
1370,C#2,171.542,0.25,75,155.0
1371,F#2,171.542,0.25,75,155.0
1372,D2,172.0,729/500,110,155.0
1373,G#3,172.0,0.375,91,155.0
1374,C4,172.0,0.375,91,155.0
1375,E4,172.0,0.375,91,155.0
1376,F#3,172.0,4.0,109,155.0
1377,A3,172.0,4.0,109,155.0
1378,C4,172.0,4.0,109,155.0
1379,B3,172.0,3.5,109,155.0
1380,E4,172.0,3.5,109,155.0
1381,G#4,172.042,729/500,109,155.0
1382,B1,172.042,0.25,57,155.0
1383,F#2,172.042,0.25,57,155.0
1384,A4,172.042,0.25,57,155.0
1385,C#2,172.542,0.25,72,155.0
1386,F#2,172.542,0.25,72,155.0
1387,G#4,173.042,229/500,109,155.0
1388,F#2,173.042,0.25,91,155.0
1389,D2,173.5,229/500,110,155.0
1390,E4,173.5,0.25,91,155.0
1391,B1,173.542,0.25,38,155.0
1392,F#2,173.542,0.25,38,155.0
1393,A4,173.542,0.25,38,155.0
1394,F#1,174.0,729/500,110,155.0
1395,F#4,174.0,229/500,91,155.0
1396,F#4,174.042,729/500,109,155.0
1397,B1,174.042,0.25,66,155.0
1398,C#2,174.042,0.25,66,155.0
1399,B-2,174.042,0.25,66,155.0
1400,A4,174.042,0.25,66,155.0
1401,A4,174.5,229/500,91,155.0
1402,C5,175.0,229/500,91,155.0
1403,C#2,175.042,0.25,104,155.0
1404,F#2,175.042,0.25,104,155.0
1405,F#1,175.5,229/500,110,155.0
1406,E4,175.5,229/500,91,155.0
1407,F#2,175.542,0.25,30,155.0
1408,G1,176.0,151/125,110,155.0
1409,F4,176.0,229/500,91,155.0
1410,G3,176.0,0.25,91,155.0
1411,A3,176.0,0.25,91,155.0
1412,C4,176.0,0.25,91,155.0
1413,F3,176.042,1979/500,109,155.0
1414,A3,176.042,1729/500,109,155.0
1415,C4,176.042,729/500,109,155.0
1416,E4,176.042,1979/500,109,155.0
1417,B1,176.042,0.25,61,155.0
1418,F#2,176.042,0.25,61,155.0
1419,A4,176.042,0.25,61,155.0
1420,F#2,176.542,0.25,33,155.0
1421,C#2,177.042,0.25,100,155.0
1422,F#2,177.042,0.25,100,155.0
1423,G1,177.5,229/500,110,155.0
1424,B1,177.542,0.25,37,155.0
1425,F#2,177.542,0.25,37,155.0
1426,A4,177.542,0.25,37,155.0
1427,G1,178.0,729/500,110,155.0
1428,C4,178.042,979/500,109,155.0
1429,B1,178.042,0.25,63,155.0
1430,F#2,178.042,0.25,63,155.0
1431,A4,178.042,0.25,63,155.0
1432,F#2,178.542,0.25,20,155.0
1433,E4,179.0,0.25,91,155.0
1434,F#2,179.042,0.25,78,155.0
1435,G1,179.5,229/500,110,155.0
1436,C#2,179.542,0.25,75,155.0
1437,F#2,179.542,0.25,75,155.0
1438,G1,180.0,729/500,110,155.0
1439,F3,180.0,2.0,109,155.0
1440,C4,180.0,2.5,109,155.0
1441,E4,180.0,2.5,109,155.0
1442,A3,180.042,979/500,109,155.0
1443,B1,180.042,0.25,57,155.0
1444,F#2,180.042,0.25,57,155.0
1445,A4,180.042,0.25,57,155.0
1446,A3,180.5,229/500,110,155.0
1447,F3,180.5,3.375,50,155.0
1448,A3,180.5,3.375,50,155.0
1449,C4,180.5,3.375,50,155.0
1450,E4,180.5,3.375,50,155.0
1451,A4,180.5,3.375,50,155.0
1452,C4,180.5,729/500,110,155.0
1453,E4,180.5,729/500,110,155.0
1454,A4,180.5,729/500,110,155.0
1455,C#2,180.542,0.25,72,155.0
1456,F#2,180.542,0.25,72,155.0
1457,F#2,181.042,0.25,91,155.0
1458,G1,181.5,229/500,110,155.0
1459,B1,181.542,0.25,38,155.0
1460,F#2,181.542,0.25,38,155.0
1461,A4,181.542,0.25,38,155.0
1462,D2,182.0,729/500,110,155.0
1463,B1,182.042,0.25,66,155.0
1464,C#2,182.042,0.25,66,155.0
1465,B-2,182.042,0.25,66,155.0
1466,A4,182.042,0.25,66,155.0
1467,A3,182.5,0.25,110,155.0
1468,C4,182.5,479/500,110,155.0
1469,E4,182.5,479/500,110,155.0
1470,A4,182.5,479/500,110,155.0
1471,A4,182.542,479/500,109,155.0
1472,F3,182.542,729/500,109,155.0
1473,A3,182.542,729/500,109,155.0
1474,C4,182.542,729/500,109,155.0
1475,E4,182.542,729/500,109,155.0
1476,C#2,183.042,0.25,104,155.0
1477,F#2,183.042,0.25,104,155.0
1478,D2,183.5,229/500,110,155.0
1479,B1,183.542,0.25,68,155.0
1480,F#2,183.542,0.25,68,155.0
1481,C2,184.0,729/500,110,155.0
1482,B3,184.0,229/500,100,155.0
1483,D4,184.0,0.25,100,155.0
1484,G4,184.0,0.25,100,155.0
1485,B3,184.042,1729/500,109,155.0
1486,D4,184.042,1729/500,109,155.0
1487,E4,184.042,1729/500,109,155.0
1488,G4,184.042,1729/500,109,155.0
1489,B1,184.042,0.25,66,155.0
1490,F#2,184.042,0.25,66,155.0
1491,A3,184.042,0.25,66,155.0
1492,A4,184.042,0.25,66,155.0
1493,A5,184.042,0.25,66,155.0
1494,F#2,184.542,0.25,33,155.0
1495,C#2,185.042,0.25,100,155.0
1496,F#2,185.042,0.25,100,155.0
1497,G1,185.5,229/500,110,155.0
1498,B1,185.542,0.25,38,155.0
1499,F#2,185.542,0.25,38,155.0
1500,A4,185.542,0.25,38,155.0
1501,G#5,185.542,0.25,38,155.0
1502,G1,186.0,729/500,110,155.0
1503,B1,186.042,0.25,58,155.0
1504,F#2,186.042,0.25,58,155.0
1505,A4,186.042,0.25,58,155.0
1506,A5,186.042,0.25,58,155.0
1507,D4,186.5,0.125,115,155.0
1508,B4,186.5,0.125,115,155.0
1509,E5,186.5,0.125,115,155.0
1510,G5,186.5,0.125,115,155.0
1511,B5,186.5,0.125,115,155.0
1512,F#2,186.542,0.25,20,155.0
1513,F#2,187.042,0.25,78,155.0
1514,C2,187.5,0.25,110,155.0
1515,C4,187.5,0.125,115,155.0
1516,G4,187.5,0.125,115,155.0
1517,C5,187.5,0.125,115,155.0
1518,E5,187.5,0.125,115,155.0
1519,G5,187.5,0.125,115,155.0
1520,G#3,187.542,229/500,109,155.0
1521,C4,187.542,229/500,109,155.0
1522,D4,187.542,229/500,109,155.0
1523,F4,187.542,229/500,109,155.0
1524,C#2,187.542,0.25,60,155.0
1525,F#2,187.542,0.25,60,155.0
1526,G#5,187.542,0.25,60,155.0
1527,C2,188.0,729/500,110,155.0
1528,G#3,188.0,3.5,109,155.0
1529,C4,188.0,3.5,109,155.0
1530,D4,188.0,3.5,109,155.0
1531,F4,188.0,3.5,109,155.0
1532,B1,188.042,0.25,54,155.0
1533,F#2,188.042,0.25,54,155.0
1534,A4,188.042,0.25,54,155.0
1535,A5,188.042,0.25,54,155.0
1536,G#3,188.5,979/500,100,155.0
1537,D4,188.5,979/500,100,155.0
1538,F4,188.5,979/500,100,155.0
1539,C5,188.5,979/500,100,155.0
1540,C#2,188.542,0.25,72,155.0
1541,F#2,188.542,0.25,72,155.0
1542,F#2,189.042,0.25,91,155.0
1543,G1,189.5,229/500,110,155.0
1544,B1,189.542,0.25,36,155.0
1545,F#2,189.542,0.25,36,155.0
1546,A4,189.542,0.25,36,155.0
1547,G#5,189.542,0.25,36,155.0
1548,D2,190.0,979/500,110,155.0
1549,B1,190.042,0.25,62,155.0
1550,C#2,190.042,0.25,62,155.0
1551,B-2,190.042,0.25,62,155.0
1552,A4,190.042,0.25,62,155.0
1553,A5,190.042,0.25,62,155.0
1554,G#3,191.0,229/500,100,155.0
1555,D4,191.0,229/500,100,155.0
1556,F4,191.0,229/500,100,155.0
1557,C5,191.0,229/500,100,155.0
1558,C#2,191.042,0.25,104,155.0
1559,F#2,191.042,0.25,104,155.0
1560,D2,191.5,229/500,110,155.0
1561,F#2,191.542,0.25,30,155.0
1562,G#5,191.542,0.25,30,155.0
1563,C2,192.0,729/500,110,155.0
1564,G3,192.0,0.25,100,155.0
1565,B3,192.0,0.25,100,155.0
1566,E4,192.0,0.25,100,155.0
1567,G3,192.042,1729/500,109,155.0
1568,B3,192.042,1729/500,109,155.0
1569,D4,192.042,1729/500,109,155.0
1570,E4,192.042,1729/500,109,155.0
1571,B1,192.042,0.25,56,155.0
1572,F#2,192.042,0.25,56,155.0
1573,A4,192.042,0.25,56,155.0
1574,A5,192.042,0.25,56,155.0
1575,F#2,192.542,0.25,76,155.0
1576,F#2,192.542,0.25,76,155.0
1577,D4,193.0,229/500,100,155.0
1578,C#2,193.042,0.25,100,155.0
1579,F#2,193.042,0.25,100,155.0
1580,G1,193.5,229/500,110,155.0
1581,B1,193.542,0.25,38,155.0
1582,F#2,193.542,0.25,38,155.0
1583,A4,193.542,0.25,38,155.0
1584,G#5,193.542,0.25,38,155.0
1585,G1,194.0,729/500,110,155.0
1586,G3,194.0,0.25,100,155.0
1587,B1,194.042,0.25,58,155.0
1588,F#2,194.042,0.25,58,155.0
1589,A4,194.042,0.25,58,155.0
1590,A5,194.042,0.25,58,155.0
1591,G3,194.5,229/500,100,155.0
1592,B3,194.5,229/500,100,155.0
1593,E4,194.5,229/500,100,155.0
1594,G4,194.5,229/500,100,155.0
1595,G5,194.5,229/500,100,155.0
1596,F#2,194.542,0.25,20,155.0
1597,F#2,195.042,0.25,78,155.0
1598,C2,195.5,0.5,110,155.0
1599,G#3,195.5,0.5,100,155.0
1600,C4,195.5,0.5,100,155.0
1601,D4,195.5,0.5,100,155.0
1602,D5,195.5,0.25,100,155.0
1603,G#3,195.542,229/500,109,155.0
1604,C4,195.542,229/500,109,155.0
1605,D4,195.542,229/500,109,155.0
1606,F4,195.542,229/500,109,155.0
1607,D2,195.542,0.25,90,155.0
1608,B-2,195.542,0.25,90,155.0
1609,D3,195.542,0.25,90,155.0
1610,G#5,195.542,0.25,90,155.0
1611,C2,196.0,729/500,110,155.0
1612,G#3,196.0,729/500,100,155.0
1613,C4,196.0,479/500,100,155.0
1614,D4,196.0,229/500,100,155.0
1615,G#3,196.0,3.5,109,155.0
1616,C4,196.0,3.5,109,155.0
1617,D4,196.0,3.5,109,155.0
1618,F4,196.0,3.5,109,155.0
1619,G#2,196.042,0.25,43,155.0
1620,A4,196.042,0.25,43,155.0
1621,A5,196.042,0.25,43,155.0
1622,C3,196.542,0.25,127,155.0
1623,G#2,197.042,0.25,58,155.0
1624,G1,197.5,229/500,110,155.0
1625,G#3,197.5,0.25,105,155.0
1626,G#4,197.5,229/500,105,155.0
1627,B2,197.542,0.25,56,155.0
1628,A4,197.542,0.25,56,155.0
1629,G#5,197.542,0.25,56,155.0
1630,D2,198.0,979/500,110,155.0
1631,C4,198.0,229/500,105,155.0
1632,C5,198.0,229/500,105,155.0
1633,G#2,198.042,0.25,70,155.0
1634,A2,198.042,0.25,70,155.0
1635,A4,198.042,0.25,70,155.0
1636,A5,198.042,0.25,70,155.0
1637,D4,199.0,0.25,105,155.0
1638,G5,199.0,0.25,105,155.0
1639,F2,199.042,0.25,112,155.0
1640,G2,199.042,0.25,112,155.0
1641,G#2,199.042,0.25,112,155.0
1642,D2,199.5,229/500,110,155.0
1643,F#2,199.542,0.25,30,155.0
1644,G#5,199.542,0.25,30,155.0
1645,G1,200.0,729/500,110,155.0
1646,A3,200.0,0.25,97,155.0
1647,C4,200.0,0.25,97,155.0
1648,E4,200.0,0.25,97,155.0
1649,A4,200.0,0.25,97,155.0
1650,F3,200.042,1979/500,109,155.0
1651,A3,200.042,1979/500,109,155.0
1652,C4,200.042,1979/500,109,155.0
1653,D4,200.042,1979/500,109,155.0
1654,E4,200.042,1979/500,109,155.0
1655,B1,200.042,0.25,69,155.0
1656,F#2,200.042,0.25,69,155.0
1657,C#3,200.042,0.25,69,155.0
1658,A4,200.042,0.25,69,155.0
1659,A5,200.042,0.25,69,155.0
1660,C5,200.083,167/1000,105,155.0
1661,F#2,200.542,0.25,62,155.0
1662,E-3,200.542,0.25,62,155.0
1663,C#2,201.042,0.25,102,155.0
1664,F#2,201.042,0.25,102,155.0
1665,E-3,201.042,0.25,102,155.0
1666,G1,201.5,229/500,110,155.0
1667,B1,201.542,0.25,45,155.0
1668,F#2,201.542,0.25,45,155.0
1669,E-3,201.542,0.25,45,155.0
1670,A4,201.542,0.25,45,155.0
1671,G#5,201.542,0.25,45,155.0
1672,G1,202.0,729/500,110,155.0
1673,B1,202.042,0.25,81,155.0
1674,C#2,202.042,0.25,81,155.0
1675,F#2,202.042,0.25,81,155.0
1676,A4,202.042,0.25,81,155.0
1677,A5,202.042,0.25,81,155.0
1678,F#2,202.542,0.25,53,155.0
1679,E-3,202.542,0.25,53,155.0
1680,F#2,203.042,0.25,100,155.0
1681,E-3,203.042,0.25,100,155.0
1682,G1,203.5,0.5,110,155.0
1683,F4,203.542,73/250,105,155.0
1684,C#2,203.542,0.25,60,155.0
1685,F#2,203.542,0.25,60,155.0
1686,G#5,203.542,0.25,60,155.0
1687,A4,203.708,73/250,105,155.0
1688,D5,203.917,83/1000,105,155.0
1689,G1,204.0,729/500,110,155.0
1690,D5,204.0,26/125,105,155.0
1691,A4,204.0,21/500,105,155.0
1692,F3,204.0,4.0,109,155.0
1693,A3,204.0,4.0,109,155.0
1694,C4,204.0,4.0,109,155.0
1695,D4,204.0,4.0,109,155.0
1696,E4,204.0,4.0,109,155.0
1697,B1,204.042,0.25,54,155.0
1698,F#2,204.042,0.25,54,155.0
1699,A4,204.042,0.25,54,155.0
1700,A5,204.042,0.25,54,155.0
1701,C#2,204.542,0.25,79,155.0
1702,F#2,204.542,0.25,79,155.0
1703,E-3,204.542,0.25,79,155.0
1704,F#2,205.042,0.25,106,155.0
1705,E-3,205.042,0.25,106,155.0
1706,D4,205.25,1.75,99,155.0
1707,G1,205.5,229/500,110,155.0
1708,B1,205.542,0.25,36,155.0
1709,F#2,205.542,0.25,36,155.0
1710,A4,205.542,0.25,36,155.0
1711,G#5,205.542,0.25,36,155.0
1712,D2,206.0,479/500,110,155.0
1713,B1,206.042,0.25,71,155.0
1714,C#2,206.042,0.25,71,155.0
1715,B-2,206.042,0.25,71,155.0
1716,A4,206.042,0.25,71,155.0
1717,A5,206.042,0.25,71,155.0
1718,E-3,206.542,0.25,93,155.0
1719,F4,207.0,1.0,107,155.0
1720,G2,207.0,479/500,110,155.0
1721,C#2,207.042,0.25,111,155.0
1722,F#2,207.042,0.25,111,155.0
1723,E-3,207.042,0.25,111,155.0
1724,G5,207.5,0.125,97,155.0
1725,F#2,207.542,0.25,30,155.0
1726,G#5,207.542,0.25,30,155.0
1727,F#5,207.667,0.125,97,155.0
1728,F5,207.833,0.125,97,155.0
1729,C#4,208.0,4.0,67,155.0
1730,C#2,208.0,979/500,110,155.0
1731,E5,208.0,0.25,97,155.0
1732,B3,208.0,229/500,100,155.0
1733,C#4,208.0,229/500,100,155.0
1734,E4,208.0,229/500,100,155.0
1735,A4,208.0,229/500,100,155.0
1736,C#3,208.042,1979/500,109,155.0
1737,F3,208.042,1979/500,109,155.0
1738,B3,208.042,1979/500,109,155.0
1739,E4,208.042,1979/500,109,155.0
1740,B1,208.042,0.25,66,155.0
1741,F#2,208.042,0.25,66,155.0
1742,E-3,208.042,0.25,66,155.0
1743,A3,208.042,0.25,66,155.0
1744,A4,208.042,0.25,66,155.0
1745,A5,208.042,0.25,66,155.0
1746,F#2,208.542,0.25,51,155.0
1747,E-3,208.542,0.25,51,155.0
1748,C#2,209.042,0.25,101,155.0
1749,F#2,209.042,0.25,101,155.0
1750,E-3,209.042,0.25,101,155.0
1751,B3,209.042,0.25,101,155.0
1752,F3,209.5,229/500,110,155.0
1753,B1,209.542,0.25,46,155.0
1754,F#2,209.542,0.25,46,155.0
1755,E-3,209.542,0.25,46,155.0
1756,A4,209.542,0.25,46,155.0
1757,G#5,209.542,0.25,46,155.0
1758,C#3,210.0,479/500,110,155.0
1759,B1,210.042,0.25,74,155.0
1760,F#2,210.042,0.25,74,155.0
1761,E-3,210.042,0.25,74,155.0
1762,A4,210.042,0.25,74,155.0
1763,A5,210.042,0.25,74,155.0
1764,G1,210.5,479/500,110,155.0
1765,F#2,210.542,0.25,20,155.0
1766,F#2,211.042,0.25,94,155.0
1767,E-3,211.042,0.25,94,155.0
1768,B3,211.042,0.25,94,155.0
1769,C#2,211.5,0.5,110,155.0
1770,C#2,211.542,0.25,60,155.0
1771,F#2,211.542,0.25,60,155.0
1772,G#5,211.542,0.25,60,155.0
1773,C#4,212.0,979/500,67,155.0
1774,C#2,212.0,729/500,110,155.0
1775,C#3,212.0,4.0,109,155.0
1776,F3,212.0,4.0,109,155.0
1777,B3,212.0,4.0,109,155.0
1778,E4,212.0,4.0,109,155.0
1779,B1,212.042,0.25,60,155.0
1780,F#2,212.042,0.25,60,155.0
1781,E-3,212.042,0.25,60,155.0
1782,A4,212.042,0.25,60,155.0
1783,A5,212.042,0.25,60,155.0
1784,C#2,212.542,0.25,69,155.0
1785,F#2,212.542,0.25,69,155.0
1786,E-3,212.542,0.25,69,155.0
1787,F#2,213.042,0.25,91,155.0
1788,E-3,213.042,0.25,91,155.0
1789,F3,213.5,479/500,110,155.0
1790,B3,213.5,26/125,96,155.0
1791,B3,213.5,26/125,96,155.0
1792,C#4,213.5,26/125,96,155.0
1793,E4,213.5,26/125,96,155.0
1794,A4,213.5,26/125,96,155.0
1795,B1,213.542,0.25,40,155.0
1796,F#2,213.542,0.25,40,155.0
1797,E-3,213.542,0.25,40,155.0
1798,A4,213.542,0.25,40,155.0
1799,G#5,213.542,0.25,40,155.0
1800,C#2,214.0,979/500,110,155.0
1801,B1,214.042,0.25,73,155.0
1802,C#2,214.042,0.25,73,155.0
1803,B-2,214.042,0.25,73,155.0
1804,E-3,214.042,0.25,73,155.0
1805,A4,214.042,0.25,73,155.0
1806,A5,214.042,0.25,73,155.0
1807,E-3,214.542,0.25,54,155.0
1808,G3,214.667,73/250,91,155.0
1809,C4,214.917,229/500,107,155.0
1810,B3,215.0,26/125,96,155.0
1811,B3,215.0,26/125,96,155.0
1812,C#4,215.0,26/125,96,155.0
1813,E4,215.0,26/125,96,155.0
1814,A4,215.0,26/125,96,155.0
1815,A1,215.042,0.25,106,155.0
1816,C#2,215.042,0.25,106,155.0
1817,F#2,215.042,0.25,106,155.0
1818,E-3,215.042,0.25,106,155.0
1819,D4,215.375,73/250,107,155.0
1820,C#2,215.5,229/500,110,155.0
1821,E4,215.5,73/250,97,155.0
1822,F#2,215.542,0.25,32,155.0
1823,E-3,215.542,0.25,32,155.0
1824,G#5,215.542,0.25,32,155.0
1825,C2,216.0,979/500,110,155.0
1826,G3,216.0,0.25,97,155.0
1827,B3,216.0,0.25,97,155.0
1828,D4,216.0,0.25,97,155.0
1829,E4,216.042,521/500,85,155.0
1830,B3,216.042,1729/500,109,155.0
1831,D4,216.042,1729/500,109,155.0
1832,E4,216.042,1729/500,109,155.0
1833,G4,216.042,1729/500,109,155.0
1834,B1,216.042,0.25,70,155.0
1835,F#2,216.042,0.25,70,155.0
1836,A3,216.042,0.25,70,155.0
1837,B3,216.042,0.25,70,155.0
1838,A4,216.042,0.25,70,155.0
1839,A5,216.042,0.25,70,155.0
1840,F#2,216.542,0.25,41,155.0
1841,B3,216.542,0.25,41,155.0
1842,C#2,217.042,0.25,109,155.0
1843,F#2,217.042,0.25,109,155.0
1844,B3,217.042,0.25,109,155.0
1845,D4,217.083,229/500,83,155.0
1846,B1,217.542,0.25,38,155.0
1847,F#2,217.542,0.25,38,155.0
1848,B3,217.542,0.25,38,155.0
1849,A4,217.542,0.25,38,155.0
1850,G#5,217.542,0.25,38,155.0
1851,C4,217.583,229/500,97,155.0
1852,A2,218.0,729/500,110,155.0
1853,B1,218.042,0.25,80,155.0
1854,F#2,218.042,0.25,80,155.0
1855,B3,218.042,0.25,80,155.0
1856,A4,218.042,0.25,80,155.0
1857,A5,218.042,0.25,80,155.0
1858,G4,218.5,479/500,59,155.0
1859,F#2,218.542,0.25,33,155.0
1860,B3,218.542,0.25,33,155.0
1861,F#2,219.042,0.25,98,155.0
1862,B3,219.042,0.25,98,155.0
1863,C3,219.5,0.5,110,155.0
1864,G#3,219.5,0.5,70,155.0
1865,C4,219.5,0.5,70,155.0
1866,F4,219.5,0.5,70,155.0
1867,F4,219.5,0.5,70,155.0
1868,D4,219.5,0.5,68,155.0
1869,G#4,219.5,0.5,68,155.0
1870,G#3,219.542,229/500,109,155.0
1871,C4,219.542,229/500,109,155.0
1872,D4,219.542,229/500,109,155.0
1873,F4,219.542,229/500,109,155.0
1874,C#2,219.542,0.25,66,155.0
1875,F#2,219.542,0.25,66,155.0
1876,A3,219.542,0.25,66,155.0
1877,B3,219.542,0.25,66,155.0
1878,G#5,219.542,0.25,66,155.0
1879,C3,220.0,729/500,110,155.0
1880,G#3,220.0,729/500,70,155.0
1881,C4,220.0,729/500,70,155.0
1882,F4,220.0,729/500,70,155.0
1883,F4,220.0,729/500,70,155.0
1884,D4,220.0,1729/500,68,155.0
1885,G#4,220.0,1729/500,68,155.0
1886,G#3,220.0,3.5,109,155.0
1887,C4,220.0,3.5,109,155.0
1888,D4,220.0,3.5,109,155.0
1889,F4,220.0,3.5,109,155.0
1890,B1,220.042,0.25,67,155.0
1891,F#2,220.042,0.25,67,155.0
1892,B3,220.042,0.25,67,155.0
1893,A4,220.042,0.25,67,155.0
1894,A5,220.042,0.25,67,155.0
1895,C#2,220.542,0.25,66,155.0
1896,F#2,220.542,0.25,66,155.0
1897,B3,220.542,0.25,66,155.0
1898,F#2,221.042,0.25,107,155.0
1899,B3,221.042,0.25,107,155.0
1900,G2,221.5,229/500,110,155.0
1901,B1,221.542,0.25,41,155.0
1902,F#2,221.542,0.25,41,155.0
1903,B3,221.542,0.25,41,155.0
1904,A4,221.542,0.25,41,155.0
1905,G#5,221.542,0.25,41,155.0
1906,C3,222.0,979/500,110,155.0
1907,B1,222.042,0.25,79,155.0
1908,C#2,222.042,0.25,79,155.0
1909,B-2,222.042,0.25,79,155.0
1910,B3,222.042,0.25,79,155.0
1911,A4,222.042,0.25,79,155.0
1912,A5,222.042,0.25,79,155.0
1913,F4,222.5,479/500,118,155.0
1914,G#4,222.5,479/500,118,155.0
1915,D5,222.5,479/500,118,155.0
1916,F5,222.5,479/500,118,155.0
1917,B3,222.542,0.25,57,155.0
1918,C#2,223.042,0.25,108,155.0
1919,F#2,223.042,0.25,108,155.0
1920,B3,223.042,0.25,108,155.0
1921,F#2,223.542,0.25,43,155.0
1922,B3,223.542,0.25,43,155.0
1923,G#5,223.542,0.25,43,155.0
1924,C2,224.0,979/500,110,155.0
1925,G3,224.0,1729/500,97,155.0
1926,E4,224.0,1729/500,97,155.0
1927,B3,224.0,1479/500,97,155.0
1928,D4,224.0,1479/500,97,155.0
1929,G4,224.0,0.25,107,155.0
1930,C5,224.0,0.25,107,155.0
1931,E5,224.0,0.25,107,155.0
1932,G3,224.042,1729/500,109,155.0
1933,B3,224.042,1729/500,109,155.0
1934,D4,224.042,1729/500,109,155.0
1935,E4,224.042,1729/500,109,155.0
1936,B1,224.042,0.25,70,155.0
1937,F#2,224.042,0.25,70,155.0
1938,A3,224.042,0.25,70,155.0
1939,B3,224.042,0.25,70,155.0
1940,A4,224.042,0.25,70,155.0
1941,A5,224.042,0.25,70,155.0
1942,A4,224.5,917/1000,121,155.0
1943,F#2,224.542,0.25,41,155.0
1944,B3,224.542,0.25,41,155.0
1945,C#2,225.042,0.25,106,155.0
1946,F#2,225.042,0.25,106,155.0
1947,G#2,225.042,0.25,106,155.0
1948,B3,225.042,0.25,106,155.0
1949,C5,225.333,0.625,102,155.0
1950,B1,225.542,0.25,38,155.0
1951,F#2,225.542,0.25,38,155.0
1952,B3,225.542,0.25,38,155.0
1953,A4,225.542,0.25,38,155.0
1954,G#5,225.542,0.25,38,155.0
1955,B4,225.958,0.875,81,155.0
1956,G2,226.0,729/500,110,155.0
1957,B1,226.042,0.25,80,155.0
1958,F#2,226.042,0.25,80,155.0
1959,B3,226.042,0.25,80,155.0
1960,A4,226.042,0.25,80,155.0
1961,A5,226.042,0.25,80,155.0
1962,B3,226.5,229/500,116,155.0
1963,D4,226.5,229/500,116,155.0
1964,G4,226.5,229/500,116,155.0
1965,F#2,226.542,0.25,33,155.0
1966,B3,226.542,0.25,33,155.0
1967,G4,226.708,0.625,97,155.0
1968,F#2,227.042,0.25,94,155.0
1969,G#2,227.042,0.25,94,155.0
1970,B3,227.042,0.25,94,155.0
1971,C3,227.5,0.5,110,155.0
1972,G#3,227.5,0.5,97,155.0
1973,D4,227.5,0.5,97,155.0
1974,C4,227.5,0.5,97,155.0
1975,F4,227.5,0.5,97,155.0
1976,G#3,227.542,229/500,109,155.0
1977,C4,227.542,229/500,109,155.0
1978,D4,227.542,229/500,109,155.0
1979,F4,227.542,229/500,109,155.0
1980,B1,227.542,0.25,72,155.0
1981,C#2,227.542,0.25,72,155.0
1982,F#2,227.542,0.25,72,155.0
1983,A3,227.542,0.25,72,155.0
1984,B3,227.542,0.25,72,155.0
1985,G#5,227.542,0.25,72,155.0
1986,C3,228.0,729/500,110,155.0
1987,G#3,228.0,2.75,97,155.0
1988,D4,228.0,1.0,97,155.0
1989,C4,228.0,1229/500,97,155.0
1990,F4,228.0,1229/500,97,155.0
1991,G#3,228.0,3.5,109,155.0
1992,C4,228.0,3.5,109,155.0
1993,D4,228.0,3.5,109,155.0
1994,F4,228.0,3.5,109,155.0
1995,B1,228.042,0.25,67,155.0
1996,F#2,228.042,0.25,67,155.0
1997,B3,228.042,0.25,67,155.0
1998,A4,228.042,0.25,67,155.0
1999,A5,228.042,0.25,67,155.0
2000,B-4,228.542,0.875,115,155.0
2001,B1,228.542,0.25,74,155.0
2002,C#2,228.542,0.25,74,155.0
2003,F#2,228.542,0.25,74,155.0
2004,B3,228.542,0.25,74,155.0
2005,F#2,229.042,0.25,100,155.0
2006,G#2,229.042,0.25,100,155.0
2007,B3,229.042,0.25,100,155.0
2008,G#4,229.333,0.75,68,155.0
2009,C3,229.5,229/500,110,155.0
2010,B1,229.542,0.25,47,155.0
2011,D2,229.542,0.25,47,155.0
2012,F#2,229.542,0.25,47,155.0
2013,B3,229.542,0.25,47,155.0
2014,A4,229.542,0.25,47,155.0
2015,G#5,229.542,0.25,47,155.0
2016,A2,230.0,229/500,110,155.0
2017,G4,230.042,1.125,91,155.0
2018,B1,230.042,0.25,79,155.0
2019,C#2,230.042,0.25,79,155.0
2020,D2,230.042,0.25,79,155.0
2021,B-2,230.042,0.25,79,155.0
2022,B3,230.042,0.25,79,155.0
2023,A4,230.042,0.25,79,155.0
2024,A5,230.042,0.25,79,155.0
2025,G#3,230.5,0.25,101,155.0
2026,C4,230.5,0.25,101,155.0
2027,C4,230.5,0.25,101,155.0
2028,F4,230.5,0.25,101,155.0
2029,C5,230.5,0.25,101,155.0
2030,D2,230.542,0.25,70,155.0
2031,B3,230.542,0.25,70,155.0
2032,F4,230.917,1083/1000,66,155.0
2033,G2,231.0,479/500,110,155.0
2034,C5,231.0,229/500,101,155.0
2035,C#2,231.042,0.25,100,155.0
2036,D2,231.042,0.25,100,155.0
2037,F#2,231.042,0.25,100,155.0
2038,G#2,231.042,0.25,100,155.0
2039,B3,231.042,0.25,100,155.0
2040,D5,231.5,229/500,101,155.0
2041,G#3,231.5,0.25,101,155.0
2042,C4,231.5,0.25,101,155.0
2043,F4,231.5,0.25,101,155.0
2044,D2,231.542,0.25,55,155.0
2045,F#2,231.542,0.25,55,155.0
2046,B3,231.542,0.25,55,155.0
2047,G#5,231.542,0.25,55,155.0
2048,D2,231.792,26/125,86,155.0
2049,E4,232.0,927/250,54,155.0
2050,F4,232.0,0.125,66,155.0
2051,C2,232.0,729/500,110,155.0
2052,E4,232.0,1479/500,86,155.0
2053,D2,232.0,21/500,86,155.0
2054,A3,232.0,1729/500,94,155.0
2055,G4,232.0,1729/500,94,155.0
2056,E5,232.0,1729/500,94,155.0
2057,B3,232.042,1729/500,109,155.0
2058,D4,232.042,1729/500,109,155.0
2059,E4,232.042,1729/500,109,155.0
2060,G4,232.042,1729/500,109,155.0
2061,B1,232.042,0.25,78,155.0
2062,F#2,232.042,0.25,78,155.0
2063,E-3,232.042,0.25,78,155.0
2064,A3,232.042,0.25,78,155.0
2065,B3,232.042,0.25,78,155.0
2066,A4,232.042,0.25,78,155.0
2067,A5,232.042,0.25,78,155.0
2068,F#2,232.542,0.25,41,155.0
2069,B3,232.542,0.25,41,155.0
2070,C#2,233.042,0.25,109,155.0
2071,F#2,233.042,0.25,109,155.0
2072,B3,233.042,0.25,109,155.0
2073,C2,233.5,229/500,110,155.0
2074,B1,233.542,0.25,38,155.0
2075,F#2,233.542,0.25,38,155.0
2076,B3,233.542,0.25,38,155.0
2077,A4,233.542,0.25,38,155.0
2078,G#5,233.542,0.25,38,155.0
2079,G1,234.0,729/500,110,155.0
2080,B1,234.042,0.25,82,155.0
2081,F#2,234.042,0.25,82,155.0
2082,B3,234.042,0.25,82,155.0
2083,A4,234.042,0.25,82,155.0
2084,A5,234.042,0.25,82,155.0
2085,G3,234.5,229/500,101,155.0
2086,B3,234.5,229/500,101,155.0
2087,D4,234.5,229/500,101,155.0
2088,E4,234.5,229/500,101,155.0
2089,F#2,234.542,0.25,33,155.0
2090,B3,234.542,0.25,33,155.0
2091,F#2,235.042,0.25,98,155.0
2092,B3,235.042,0.25,98,155.0
2093,D4,235.458,271/500,93,155.0
2094,C2,235.5,0.5,110,155.0
2095,F4,235.5,0.5,86,155.0
2096,G#3,235.5,0.5,94,155.0
2097,C4,235.5,0.5,94,155.0
2098,D5,235.5,0.5,94,155.0
2099,G#3,235.542,229/500,109,155.0
2100,C4,235.542,229/500,109,155.0
2101,D4,235.542,229/500,109,155.0
2102,F4,235.542,229/500,109,155.0
2103,C#2,235.542,0.25,66,155.0
2104,F#2,235.542,0.25,66,155.0
2105,A3,235.542,0.25,66,155.0
2106,B3,235.542,0.25,66,155.0
2107,G#5,235.542,0.25,66,155.0
2108,D4,236.0,1.5,93,155.0
2109,C2,236.0,729/500,110,155.0
2110,F4,236.0,1229/500,86,155.0
2111,G#3,236.0,979/500,94,155.0
2112,C4,236.0,979/500,94,155.0
2113,D5,236.0,979/500,94,155.0
2114,G#3,236.0,3.5,109,155.0
2115,C4,236.0,3.5,109,155.0
2116,D4,236.0,3.5,109,155.0
2117,F4,236.0,3.5,109,155.0
2118,B1,236.042,0.25,67,155.0
2119,F#2,236.042,0.25,67,155.0
2120,B3,236.042,0.25,67,155.0
2121,A4,236.042,0.25,67,155.0
2122,A5,236.042,0.25,67,155.0
2123,C#2,236.542,0.25,66,155.0
2124,F#2,236.542,0.25,66,155.0
2125,B3,236.542,0.25,66,155.0
2126,F#2,237.042,0.25,107,155.0
2127,B3,237.042,0.25,107,155.0
2128,C2,237.5,229/500,110,155.0
2129,C4,237.542,271/500,102,155.0
2130,B1,237.542,0.25,41,155.0
2131,F#2,237.542,0.25,41,155.0
2132,B3,237.542,0.25,41,155.0
2133,A4,237.542,0.25,41,155.0
2134,G#5,237.542,0.25,41,155.0
2135,G2,238.0,479/500,110,155.0
2136,D4,238.042,521/500,107,155.0
2137,B1,238.042,0.25,79,155.0
2138,C#2,238.042,0.25,79,155.0
2139,B-2,238.042,0.25,79,155.0
2140,B3,238.042,0.25,79,155.0
2141,A4,238.042,0.25,79,155.0
2142,A5,238.042,0.25,79,155.0
2143,G#3,238.5,229/500,101,155.0
2144,G#4,238.5,0.25,101,155.0
2145,B3,238.542,0.25,57,155.0
2146,G4,238.958,99/125,107,155.0
2147,C2,239.0,479/500,110,155.0
2148,C4,239.0,229/500,101,155.0
2149,C5,239.0,0.25,101,155.0
2150,C#2,239.042,0.25,108,155.0
2151,F#2,239.042,0.25,108,155.0
2152,B3,239.042,0.25,108,155.0
2153,D4,239.5,0.25,101,155.0
2154,D5,239.5,0.25,101,155.0
2155,F#2,239.542,0.25,43,155.0
2156,B3,239.542,0.25,43,155.0
2157,G#5,239.542,0.25,43,155.0
2158,E4,240.0,2333/1000,53,155.0
2159,A1,240.0,729/500,110,155.0
2160,D4,240.0,0.25,101,155.0
2161,A3,240.0,229/500,101,155.0
2162,E4,240.0,229/500,101,155.0
2163,A4,240.0,229/500,101,155.0
2164,E5,240.0,229/500,101,155.0
2165,F#3,240.042,1729/500,109,155.0
2166,A3,240.042,1729/500,109,155.0
2167,B3,240.042,1729/500,109,155.0
2168,D4,240.042,1729/500,109,155.0
2169,E4,240.042,1729/500,109,155.0
2170,B1,240.042,0.25,70,155.0
2171,F#2,240.042,0.25,70,155.0
2172,A3,240.042,0.25,70,155.0
2173,B3,240.042,0.25,70,155.0
2174,A4,240.042,0.25,70,155.0
2175,A5,240.042,0.25,70,155.0
2176,F#2,240.542,0.25,41,155.0
2177,B3,240.542,0.25,41,155.0
2178,C#2,241.042,0.25,109,155.0
2179,F#2,241.042,0.25,109,155.0
2180,B3,241.042,0.25,109,155.0
2181,A1,241.5,229/500,110,155.0
2182,B1,241.542,0.25,38,155.0
2183,F#2,241.542,0.25,38,155.0
2184,B3,241.542,0.25,38,155.0
2185,A4,241.542,0.25,38,155.0
2186,G#5,241.542,0.25,38,155.0
2187,D1,242.0,729/500,110,155.0
2188,B1,242.042,0.25,80,155.0
2189,F#2,242.042,0.25,80,155.0
2190,B3,242.042,0.25,80,155.0
2191,A4,242.042,0.25,80,155.0
2192,A5,242.042,0.25,80,155.0
2193,D4,242.5,521/500,107,155.0
2194,D4,242.5,229/500,101,155.0
2195,D5,242.5,229/500,101,155.0
2196,F#2,242.542,0.25,33,155.0
2197,B3,242.542,0.25,33,155.0
2198,F#2,243.042,0.25,98,155.0
2199,B3,243.042,0.25,98,155.0
2200,B-3,243.458,271/500,107,155.0
2201,D1,243.5,229/500,110,155.0
2202,G#3,243.5,0.5,101,155.0
2203,G#4,243.5,0.25,101,155.0
2204,D4,243.5,0.5,101,155.0
2205,F4,243.5,0.5,101,155.0
2206,B4,243.5,0.5,101,155.0
2207,G#3,243.542,229/500,109,155.0
2208,F4,243.542,229/500,109,155.0
2209,C4,243.542,229/500,109,155.0
2210,D4,243.542,229/500,109,155.0
2211,C#2,243.542,0.25,73,155.0
2212,F#2,243.542,0.25,73,155.0
2213,D3,243.542,0.25,73,155.0
2214,A3,243.542,0.25,73,155.0
2215,B3,243.542,0.25,73,155.0
2216,G#5,243.542,0.25,73,155.0
2217,B-3,244.0,0.125,107,155.0
2218,E1,244.0,729/500,110,155.0
2219,G#3,244.0,583/1000,101,155.0
2220,D4,244.0,0.375,101,155.0
2221,F4,244.0,0.375,101,155.0
2222,B4,244.0,0.375,101,155.0
2223,G#3,244.0,3.5,109,155.0
2224,F4,244.0,3.5,109,155.0
2225,C4,244.0,4.0,109,155.0
2226,D4,244.0,4.0,109,155.0
2227,B1,244.042,0.25,67,155.0
2228,F#2,244.042,0.25,67,155.0
2229,B3,244.042,0.25,67,155.0
2230,A4,244.042,0.25,67,155.0
2231,A5,244.042,0.25,67,155.0
2232,B3,244.083,729/500,110,155.0
2233,C#2,244.542,0.25,76,155.0
2234,F#2,244.542,0.25,76,155.0
2235,C3,244.542,0.25,76,155.0
2236,B3,244.542,0.25,76,155.0
2237,F#2,245.042,0.25,107,155.0
2238,B3,245.042,0.25,107,155.0
2239,A3,245.5,271/500,107,155.0
2240,E1,245.5,229/500,110,155.0
2241,B1,245.542,0.25,52,155.0
2242,F#2,245.542,0.25,52,155.0
2243,B2,245.542,0.25,52,155.0
2244,B3,245.542,0.25,52,155.0
2245,A4,245.542,0.25,52,155.0
2246,G#5,245.542,0.25,52,155.0
2247,G#1,246.0,979/500,110,155.0
2248,B1,246.042,0.25,83,155.0
2249,C#2,246.042,0.25,83,155.0
2250,A2,246.042,0.25,83,155.0
2251,B-2,246.042,0.25,83,155.0
2252,B3,246.042,0.25,83,155.0
2253,A4,246.042,0.25,83,155.0
2254,A5,246.042,0.25,83,155.0
2255,G3,246.083,1.375,69,155.0
2256,B3,246.542,0.25,57,155.0
2257,C#2,247.042,0.25,108,155.0
2258,F#2,247.042,0.25,108,155.0
2259,G2,247.042,0.25,108,155.0
2260,B3,247.042,0.25,108,155.0
2261,F3,247.458,271/500,93,155.0
2262,F#1,247.5,229/500,110,155.0
2263,F#2,247.542,0.25,43,155.0
2264,B3,247.542,0.25,43,155.0
2265,G#5,247.542,0.25,43,155.0
2266,F3,248.0,83/1000,93,155.0
2267,E1,248.0,479/500,110,155.0
2268,E3,248.042,2083/1000,52,155.0
2269,F3,248.042,1729/500,109,155.0
2270,A3,248.042,1729/500,109,155.0
2271,C4,248.042,1729/500,109,155.0
2272,E4,248.042,1729/500,109,155.0
2273,B1,248.042,0.25,56,155.0
2274,F#2,248.042,0.25,56,155.0
2275,A4,248.042,0.25,56,155.0
2276,A5,248.042,0.25,56,155.0
2277,F#2,248.542,0.25,33,155.0
2278,A3,249.0,0.125,110,155.0
2279,C4,249.0,0.125,110,155.0
2280,E4,249.0,0.125,110,155.0
2281,G4,249.0,0.125,110,155.0
2282,C5,249.0,0.125,110,155.0
2283,C#2,249.042,0.25,100,155.0
2284,F#2,249.042,0.25,100,155.0
2285,E1,249.5,0.25,110,155.0
2286,B1,249.542,0.25,38,155.0
2287,F#2,249.542,0.25,38,155.0
2288,A4,249.542,0.25,38,155.0
2289,G#5,249.542,0.25,38,155.0
2290,E1,250.0,729/500,110,155.0
2291,B1,250.042,0.25,70,155.0
2292,F#2,250.042,0.25,70,155.0
2293,A4,250.042,0.25,70,155.0
2294,A5,250.042,0.25,70,155.0
2295,A3,250.5,0.875,95,155.0
2296,C4,250.5,0.875,95,155.0
2297,E4,250.5,0.875,95,155.0
2298,G4,250.5,0.875,95,155.0
2299,C5,250.5,0.875,95,155.0
2300,F#2,250.542,0.25,20,155.0
2301,F#2,251.042,0.25,78,155.0
2302,D4,251.5,0.5,91,155.0
2303,F4,251.5,0.5,91,155.0
2304,G#4,251.5,0.5,91,155.0
2305,D5,251.5,0.5,91,155.0
2306,G#3,251.542,229/500,109,155.0
2307,C4,251.542,229/500,109,155.0
2308,D4,251.542,229/500,109,155.0
2309,F4,251.542,229/500,109,155.0
2310,C#2,251.542,0.25,60,155.0
2311,F#2,251.542,0.25,60,155.0
2312,G#5,251.542,0.25,60,155.0
2313,D1,252.0,729/500,110,155.0
2314,D4,252.0,479/500,91,155.0
2315,F4,252.0,479/500,91,155.0
2316,G#4,252.0,479/500,91,155.0
2317,D5,252.0,479/500,91,155.0
2318,G#3,252.0,3.5,109,155.0
2319,C4,252.0,3.5,109,155.0
2320,D4,252.0,3.5,109,155.0
2321,F4,252.0,3.5,109,155.0
2322,B1,252.042,0.25,54,155.0
2323,F#2,252.042,0.25,54,155.0
2324,A4,252.042,0.25,54,155.0
2325,A5,252.042,0.25,54,155.0
2326,C#2,252.542,0.25,72,155.0
2327,F#2,252.542,0.25,72,155.0
2328,F#2,253.042,0.25,91,155.0
2329,D1,253.5,229/500,110,155.0
2330,C4,253.5,0.25,95,155.0
2331,F4,253.5,229/500,91,155.0
2332,G#4,253.5,229/500,91,155.0
2333,D5,253.5,229/500,91,155.0
2334,F5,253.5,229/500,91,155.0
2335,B1,253.542,0.25,36,155.0
2336,F#2,253.542,0.25,36,155.0
2337,A4,253.542,0.25,36,155.0
2338,G#5,253.542,0.25,36,155.0
2339,D1,254.0,479/500,110,155.0
2340,B1,254.042,0.25,71,155.0
2341,C#2,254.042,0.25,71,155.0
2342,B-2,254.042,0.25,71,155.0
2343,A4,254.042,0.25,71,155.0
2344,A5,254.042,0.25,71,155.0
2345,G#1,255.0,479/500,110,155.0
2346,C#2,255.042,0.25,104,155.0
2347,F#2,255.042,0.25,104,155.0
2348,F#2,255.542,0.25,30,155.0
2349,G#5,255.542,0.25,30,155.0
2350,A1,256.0,479/500,110,155.0
2351,G3,256.042,1979/500,109,155.0
2352,B3,256.042,1979/500,109,155.0
2353,C4,256.042,1979/500,109,155.0
2354,E4,256.042,1979/500,109,155.0
2355,B1,256.042,0.25,56,155.0
2356,F#2,256.042,0.25,56,155.0
2357,A4,256.042,0.25,56,155.0
2358,A5,256.042,0.25,56,155.0
2359,F#2,256.542,0.25,33,155.0
2360,C#2,257.042,0.25,100,155.0
2361,F#2,257.042,0.25,100,155.0
2362,A1,257.5,229/500,110,155.0
2363,B1,257.542,0.25,38,155.0
2364,F#2,257.542,0.25,38,155.0
2365,A4,257.542,0.25,38,155.0
2366,G#5,257.542,0.25,38,155.0
2367,A1,258.0,479/500,110,155.0
2368,B1,258.042,0.25,70,155.0
2369,F#2,258.042,0.25,70,155.0
2370,A4,258.042,0.25,70,155.0
2371,A5,258.042,0.25,70,155.0
2372,F#2,258.542,0.25,20,155.0
2373,E3,259.0,0.25,95,155.0
2374,E4,259.0,0.25,95,155.0
2375,B4,259.0,0.25,95,155.0
2376,D5,259.0,0.25,95,155.0
2377,E5,259.0,0.25,95,155.0
2378,F#2,259.042,0.25,78,155.0
2379,A1,259.5,229/500,110,155.0
2380,E3,259.5,229/500,95,155.0
2381,E4,259.5,0.5,95,155.0
2382,D5,259.5,0.5,95,155.0
2383,G4,259.5,0.5,95,155.0
2384,E5,259.5,0.5,95,155.0
2385,C#2,259.542,0.25,60,155.0
2386,F#2,259.542,0.25,60,155.0
2387,G#5,259.542,0.25,60,155.0
2388,A1,260.0,729/500,110,155.0
2389,E4,260.0,479/500,95,155.0
2390,D5,260.0,479/500,95,155.0
2391,G4,260.0,229/500,95,155.0
2392,E5,260.0,229/500,95,155.0
2393,G3,260.0,3.5,109,155.0
2394,B3,260.0,3.5,109,155.0
2395,C4,260.0,3.5,109,155.0
2396,E4,260.0,3.5,109,155.0
2397,B1,260.042,0.25,54,155.0
2398,F#2,260.042,0.25,54,155.0
2399,A4,260.042,0.25,54,155.0
2400,A5,260.042,0.25,54,155.0
2401,C#2,260.542,0.25,72,155.0
2402,F#2,260.542,0.25,72,155.0
2403,F#2,261.042,0.25,91,155.0
2404,B1,261.5,229/500,110,155.0
2405,G3,261.5,0.25,95,155.0
2406,C4,261.5,0.25,95,155.0
2407,E4,261.5,0.25,95,155.0
2408,B1,261.542,0.25,36,155.0
2409,F#2,261.542,0.25,36,155.0
2410,A4,261.542,0.25,36,155.0
2411,G#5,261.542,0.25,36,155.0
2412,C2,262.0,479/500,110,155.0
2413,G4,262.0,0.25,105,155.0
2414,B1,262.042,0.25,71,155.0
2415,C#2,262.042,0.25,71,155.0
2416,B-2,262.042,0.25,71,155.0
2417,A4,262.042,0.25,71,155.0
2418,A5,262.042,0.25,71,155.0
2419,B4,262.5,0.25,105,155.0
2420,C5,262.5,0.25,105,155.0
2421,D5,263.0,229/500,105,155.0
2422,C#2,263.042,0.25,104,155.0
2423,F#2,263.042,0.25,104,155.0
2424,F1,263.5,229/500,110,155.0
2425,E5,263.5,0.25,105,155.0
2426,F#2,263.542,0.25,30,155.0
2427,G#5,263.542,0.25,30,155.0
2428,F1,264.0,729/500,110,155.0
2429,F3,264.0,1479/500,101,155.0
2430,C4,264.0,1729/500,101,155.0
2431,E4,264.0,1729/500,101,155.0
2432,A4,264.0,1729/500,101,155.0
2433,F3,264.042,1979/500,109,155.0
2434,G3,264.042,1979/500,109,155.0
2435,A3,264.042,1979/500,109,155.0
2436,C4,264.042,1979/500,109,155.0
2437,E4,264.042,1979/500,109,155.0
2438,B1,264.042,0.25,56,155.0
2439,F#2,264.042,0.25,56,155.0
2440,A4,264.042,0.25,56,155.0
2441,A5,264.042,0.25,56,155.0
2442,F#2,264.542,0.25,33,155.0
2443,C#2,265.042,0.25,100,155.0
2444,F#2,265.042,0.25,100,155.0
2445,F1,265.5,229/500,110,155.0
2446,B1,265.542,0.25,38,155.0
2447,F#2,265.542,0.25,38,155.0
2448,A4,265.542,0.25,38,155.0
2449,G#5,265.542,0.25,38,155.0
2450,F1,266.0,979/500,110,155.0
2451,B1,266.042,0.25,70,155.0
2452,F#2,266.042,0.25,70,155.0
2453,A4,266.042,0.25,70,155.0
2454,A5,266.042,0.25,70,155.0
2455,F#2,266.542,0.25,20,155.0
2456,F#2,267.042,0.25,78,155.0
2457,D3,267.5,0.25,101,155.0
2458,G#3,267.5,0.5,101,155.0
2459,E4,267.5,0.5,101,155.0
2460,G#4,267.5,0.5,101,155.0
2461,C5,267.5,0.5,101,155.0
2462,C#2,267.542,0.25,60,155.0
2463,F#2,267.542,0.25,60,155.0
2464,G#5,267.542,0.25,60,155.0
2465,E1,268.0,479/500,110,155.0
2466,G#3,268.0,229/500,101,155.0
2467,E4,268.0,229/500,101,155.0
2468,G#4,268.0,229/500,101,155.0
2469,C5,268.0,229/500,101,155.0
2470,G#3,268.042,1729/500,109,155.0
2471,C4,268.042,1729/500,109,155.0
2472,D4,268.042,1729/500,109,155.0
2473,F4,268.042,1729/500,109,155.0
2474,B1,268.042,0.25,54,155.0
2475,F#2,268.042,0.25,54,155.0
2476,A4,268.042,0.25,54,155.0
2477,A5,268.042,0.25,54,155.0
2478,C#2,268.542,0.25,72,155.0
2479,F#2,268.542,0.25,72,155.0
2480,F#2,269.042,0.25,91,155.0
2481,E1,269.5,229/500,110,155.0
2482,D3,269.5,0.25,101,155.0
2483,B1,269.542,0.25,36,155.0
2484,F#2,269.542,0.25,36,155.0
2485,A4,269.542,0.25,36,155.0
2486,G#5,269.542,0.25,36,155.0
2487,G#1,270.0,729/500,110,155.0
2488,D3,270.0,0.25,127,155.0
2489,D4,270.0,229/500,127,155.0
2490,E4,270.0,229/500,127,155.0
2491,G#4,270.0,229/500,127,155.0
2492,C5,270.0,229/500,127,155.0
2493,B1,270.042,0.25,71,155.0
2494,C#2,270.042,0.25,71,155.0
2495,B-2,270.042,0.25,71,155.0
2496,A4,270.042,0.25,71,155.0
2497,A5,270.042,0.25,71,155.0
2498,C#2,271.042,0.25,104,155.0
2499,F#2,271.042,0.25,104,155.0
2500,G#1,271.5,229/500,110,155.0
2501,F#2,271.542,0.25,30,155.0
2502,G#5,271.542,0.25,30,155.0
2503,A1,272.0,479/500,110,155.0
2504,G3,272.0,229/500,101,155.0
2505,C4,272.0,229/500,101,155.0
2506,E4,272.0,229/500,101,155.0
2507,G3,272.042,1979/500,109,155.0
2508,B3,272.042,1979/500,109,155.0
2509,C4,272.042,1979/500,109,155.0
2510,E4,272.042,1979/500,109,155.0
2511,B1,272.042,0.25,56,155.0
2512,F#2,272.042,0.25,56,155.0
2513,A4,272.042,0.25,56,155.0
2514,A5,272.042,0.25,56,155.0
2515,F#2,272.542,0.25,33,155.0
2516,C#2,273.042,0.25,100,155.0
2517,F#2,273.042,0.25,100,155.0
2518,A1,273.5,0.25,110,155.0
2519,B1,273.542,0.25,38,155.0
2520,F#2,273.542,0.25,38,155.0
2521,A4,273.542,0.25,38,155.0
2522,G#5,273.542,0.25,38,155.0
2523,A1,274.0,729/500,110,155.0
2524,B1,274.042,0.25,70,155.0
2525,F#2,274.042,0.25,70,155.0
2526,A4,274.042,0.25,70,155.0
2527,A5,274.042,0.25,70,155.0
2528,F#2,274.542,0.25,20,155.0
2529,F#2,275.042,0.25,78,155.0
2530,A2,275.5,229/500,110,155.0
2531,G5,275.5,229/500,109,155.0
2532,C#2,275.542,0.25,60,155.0
2533,F#2,275.542,0.25,60,155.0
2534,G#5,275.542,0.25,60,155.0
2535,G2,276.0,729/500,110,155.0
2536,G3,276.0,3.5,109,155.0
2537,B3,276.0,3.5,109,155.0
2538,C4,276.0,3.5,109,155.0
2539,E4,276.0,3.5,109,155.0
2540,B1,276.042,0.25,54,155.0
2541,F#2,276.042,0.25,54,155.0
2542,A4,276.042,0.25,54,155.0
2543,A5,276.042,0.25,54,155.0
2544,G5,276.5,229/500,109,155.0
2545,C#2,276.542,0.25,72,155.0
2546,F#2,276.542,0.25,72,155.0
2547,F#2,277.042,0.25,91,155.0
2548,E2,277.5,229/500,110,155.0
2549,C5,277.5,0.125,109,155.0
2550,B1,277.542,0.25,36,155.0
2551,F#2,277.542,0.25,36,155.0
2552,A4,277.542,0.25,36,155.0
2553,G#5,277.542,0.25,36,155.0
2554,D2,278.0,229/500,110,155.0
2555,D5,278.0,26/125,127,155.0
2556,B1,278.042,0.25,71,155.0
2557,C#2,278.042,0.25,71,155.0
2558,B-2,278.042,0.25,71,155.0
2559,A4,278.042,0.25,71,155.0
2560,A5,278.042,0.25,71,155.0
2561,E-5,278.167,333/1000,81,155.0
2562,D5,278.333,0.25,81,155.0
2563,C2,278.5,229/500,110,155.0
2564,C5,278.5,229/500,83,155.0
2565,A1,279.0,229/500,110,155.0
2566,D5,279.0,0.5,118,155.0
2567,C#2,279.042,0.25,104,155.0
2568,F#2,279.042,0.25,104,155.0
2569,G1,279.5,229/500,110,155.0
2570,C5,279.5,73/250,91,155.0
2571,F#2,279.542,0.25,30,155.0
2572,G#5,279.542,0.25,30,155.0
2573,E3,280.0,3583/1000,49,155.0
2574,F1,280.0,479/500,110,155.0
2575,E4,280.0,229/500,109,155.0
2576,C4,280.0,1729/500,50,155.0
2577,E4,280.0,1729/500,50,155.0
2578,A3,280.0,0.25,109,155.0
2579,C4,280.0,0.25,109,155.0
2580,G3,280.042,1729/500,109,155.0
2581,A3,280.042,1729/500,109,155.0
2582,C4,280.042,1729/500,109,155.0
2583,E4,280.042,1729/500,109,155.0
2584,B1,280.042,0.25,56,155.0
2585,F#2,280.042,0.25,56,155.0
2586,A4,280.042,0.25,56,155.0
2587,A5,280.042,0.25,56,155.0
2588,F#2,280.542,0.25,33,155.0
2589,C#2,281.042,0.25,100,155.0
2590,F#2,281.042,0.25,100,155.0
2591,F1,281.5,0.25,110,155.0
2592,E3,281.5,229/500,124,155.0
2593,E4,281.5,0.25,124,155.0
2594,B1,281.542,0.25,38,155.0
2595,F#2,281.542,0.25,38,155.0
2596,A4,281.542,0.25,38,155.0
2597,G#5,281.542,0.25,38,155.0
2598,F1,282.0,979/500,110,155.0
2599,B1,282.042,0.25,70,155.0
2600,F#2,282.042,0.25,70,155.0
2601,A4,282.042,0.25,70,155.0
2602,A5,282.042,0.25,70,155.0
2603,G3,282.5,229/500,124,155.0
2604,G4,282.5,229/500,124,155.0
2605,F#2,282.542,0.25,20,155.0
2606,F#2,283.042,0.25,78,155.0
2607,F3,283.5,0.5,38,155.0
2608,D4,283.5,0.5,53,155.0
2609,F4,283.5,0.5,30,155.0
2610,G#3,283.5,0.5,78,155.0
2611,B3,283.5,0.5,78,155.0
2612,D4,283.5,0.5,78,155.0
2613,G#4,283.5,0.5,78,155.0
2614,G#3,283.542,229/500,109,155.0
2615,C4,283.542,229/500,109,155.0
2616,D4,283.542,229/500,109,155.0
2617,F4,283.542,229/500,109,155.0
2618,C#2,283.542,0.25,60,155.0
2619,F#2,283.542,0.25,60,155.0
2620,G#5,283.542,0.25,60,155.0
2621,F3,284.0,823/250,38,155.0
2622,D4,284.0,3583/1000,53,155.0
2623,F4,284.0,3667/1000,30,155.0
2624,E1,284.0,479/500,110,155.0
2625,G#3,284.0,229/500,78,155.0
2626,B3,284.0,229/500,78,155.0
2627,D4,284.0,229/500,78,155.0
2628,G#4,284.0,229/500,78,155.0
2629,G#3,284.0,3.5,109,155.0
2630,C4,284.0,3.5,109,155.0
2631,D4,284.0,3.5,109,155.0
2632,F4,284.0,3.5,109,155.0
2633,B1,284.042,0.25,54,155.0
2634,F#2,284.042,0.25,54,155.0
2635,A4,284.042,0.25,54,155.0
2636,A5,284.042,0.25,54,155.0
2637,C#2,284.542,0.25,72,155.0
2638,F#2,284.542,0.25,72,155.0
2639,F#2,285.042,0.25,91,155.0
2640,E1,285.5,229/500,110,155.0
2641,B1,285.542,0.25,36,155.0
2642,F#2,285.542,0.25,36,155.0
2643,A4,285.542,0.25,36,155.0
2644,G#5,285.542,0.25,36,155.0
2645,E1,286.0,729/500,110,155.0
2646,B1,286.042,0.25,71,155.0
2647,C#2,286.042,0.25,71,155.0
2648,B-2,286.042,0.25,71,155.0
2649,A4,286.042,0.25,71,155.0
2650,A5,286.042,0.25,71,155.0
2651,G#3,286.5,479/500,109,155.0
2652,D4,286.5,479/500,109,155.0
2653,E4,286.5,479/500,109,155.0
2654,G#4,286.5,479/500,109,155.0
2655,C5,286.5,479/500,109,155.0
2656,C#2,287.042,0.25,104,155.0
2657,F#2,287.042,0.25,104,155.0
2658,E1,287.5,229/500,110,155.0
2659,F#2,287.542,0.25,30,155.0
2660,G#5,287.542,0.25,30,155.0
2661,D2,288.0,729/500,110,155.0
2662,G3,288.0,229/500,109,155.0
2663,C4,288.0,229/500,109,155.0
2664,E4,288.0,229/500,109,155.0
2665,G3,288.042,1729/500,109,155.0
2666,A3,288.042,1979/500,109,155.0
2667,C4,288.042,1979/500,109,155.0
2668,E4,288.042,1979/500,109,155.0
2669,B1,288.042,0.25,56,155.0
2670,F#2,288.042,0.25,56,155.0
2671,A4,288.042,0.25,56,155.0
2672,A5,288.042,0.25,56,155.0
2673,F#2,288.542,0.25,33,155.0
2674,C#2,289.042,0.25,100,155.0
2675,F#2,289.042,0.25,100,155.0
2676,D2,289.5,229/500,110,155.0
2677,B1,289.542,0.25,38,155.0
2678,F#2,289.542,0.25,38,155.0
2679,A4,289.542,0.25,38,155.0
2680,G#5,289.542,0.25,38,155.0
2681,D2,290.0,979/500,110,155.0
2682,B1,290.042,0.25,70,155.0
2683,F#2,290.042,0.25,70,155.0
2684,A4,290.042,0.25,70,155.0
2685,A5,290.042,0.25,70,155.0
2686,F#2,290.542,0.25,20,155.0
2687,F#2,291.042,0.25,78,155.0
2688,C#2,291.542,0.25,60,155.0
2689,F#2,291.542,0.25,60,155.0
2690,G#5,291.542,0.25,60,155.0
2691,G1,292.0,979/500,110,155.0
2692,G3,292.0,229/500,109,155.0
2693,B-3,292.0,229/500,109,155.0
2694,D4,292.0,229/500,109,155.0
2695,G4,292.0,229/500,109,155.0
2696,F3,292.042,979/500,109,155.0
2697,G3,292.042,979/500,109,155.0
2698,D4,292.042,979/500,109,155.0
2699,B-3,292.042,729/500,109,155.0
2700,F4,292.042,729/500,109,155.0
2701,B1,292.042,0.25,54,155.0
2702,F#2,292.042,0.25,54,155.0
2703,A4,292.042,0.25,54,155.0
2704,A5,292.042,0.25,54,155.0
2705,C#2,292.542,0.25,72,155.0
2706,F#2,292.542,0.25,72,155.0
2707,F#2,293.042,0.25,91,155.0
2708,G1,293.5,229/500,110,155.0
2709,B1,293.542,0.25,36,155.0
2710,F#2,293.542,0.25,36,155.0
2711,A4,293.542,0.25,36,155.0
2712,G#5,293.542,0.25,36,155.0
2713,C2,294.0,979/500,110,155.0
2714,G4,294.0,0.25,109,155.0
2715,E3,294.0,229/500,109,155.0
2716,B-3,294.0,229/500,109,155.0
2717,C4,294.0,229/500,109,155.0
2718,E3,294.042,729/500,109,155.0
2719,G3,294.042,729/500,109,155.0
2720,B-3,294.042,729/500,109,155.0
2721,D4,294.042,729/500,109,155.0
2722,E4,294.042,729/500,109,155.0
2723,B1,294.042,0.25,71,155.0
2724,C#2,294.042,0.25,71,155.0
2725,B-2,294.042,0.25,71,155.0
2726,A4,294.042,0.25,71,155.0
2727,A5,294.042,0.25,71,155.0
2728,C#2,295.042,0.25,104,155.0
2729,F#2,295.042,0.25,104,155.0
2730,C2,295.5,229/500,110,155.0
2731,F#2,295.542,0.25,30,155.0
2732,G#5,295.542,0.25,30,155.0
2733,F1,296.0,729/500,110,155.0
2734,C4,296.0,0.25,113,155.0
2735,E4,296.0,0.25,113,155.0
2736,A4,296.0,0.25,113,155.0
2737,F3,296.042,1979/500,109,155.0
2738,G3,296.042,1979/500,109,155.0
2739,A3,296.042,479/500,109,155.0
2740,C4,296.042,1229/500,109,155.0
2741,E4,296.042,1979/500,109,155.0
2742,B1,296.042,0.25,56,155.0
2743,F#2,296.042,0.25,56,155.0
2744,A4,296.042,0.25,56,155.0
2745,A5,296.042,0.25,56,155.0
2746,F#2,296.542,0.25,33,155.0
2747,E4,297.0,0.25,91,155.0
2748,A3,297.042,1479/500,109,155.0
2749,C#2,297.042,0.25,100,155.0
2750,F#2,297.042,0.25,100,155.0
2751,F1,297.5,229/500,110,155.0
2752,B1,297.542,0.25,38,155.0
2753,F#2,297.542,0.25,38,155.0
2754,A4,297.542,0.25,38,155.0
2755,G#5,297.542,0.25,38,155.0
2756,A1,298.0,729/500,110,155.0
2757,B1,298.042,0.25,70,155.0
2758,F#2,298.042,0.25,70,155.0
2759,A4,298.042,0.25,70,155.0
2760,A5,298.042,0.25,70,155.0
2761,A3,298.5,0.25,108,155.0
2762,C4,298.5,0.25,108,155.0
2763,E4,298.5,0.25,108,155.0
2764,A4,298.5,0.25,108,155.0
2765,F#2,298.542,0.25,20,155.0
2766,C4,299.042,479/500,109,155.0
2767,F#2,299.042,0.25,78,155.0
2768,A1,299.5,229/500,110,155.0
2769,C4,299.5,0.25,95,155.0
2770,E4,299.5,0.5,103,155.0
2771,A4,299.5,0.5,103,155.0
2772,C5,299.5,0.5,103,155.0
2773,C#2,299.542,0.25,60,155.0
2774,F#2,299.542,0.25,60,155.0
2775,G#5,299.542,0.25,60,155.0
2776,C2,300.0,729/500,110,155.0
2777,F3,300.0,2.5,109,155.0
2778,G3,300.0,3.5,109,155.0
2779,A3,300.0,4.0,109,155.0
2780,C4,300.0,4.0,109,155.0
2781,E4,300.0,1.0,109,155.0
2782,E4,300.0,229/500,103,155.0
2783,A4,300.0,229/500,103,155.0
2784,C5,300.0,229/500,103,155.0
2785,B1,300.042,0.25,54,155.0
2786,F#2,300.042,0.25,54,155.0
2787,A4,300.042,0.25,54,155.0
2788,A5,300.042,0.25,54,155.0
2789,C4,300.5,479/500,95,155.0
2790,C#2,300.542,0.25,72,155.0
2791,F#2,300.542,0.25,72,155.0
2792,E4,301.042,979/500,109,155.0
2793,F#2,301.042,0.25,91,155.0
2794,C2,301.5,229/500,110,155.0
2795,D5,301.5,229/500,120,155.0
2796,C4,301.5,0.25,95,155.0
2797,E4,301.5,0.25,95,155.0
2798,A4,301.5,0.25,95,155.0
2799,B1,301.542,0.25,36,155.0
2800,F#2,301.542,0.25,36,155.0
2801,A4,301.542,0.25,36,155.0
2802,G#5,301.542,0.25,36,155.0
2803,F2,302.0,729/500,110,155.0
2804,B1,302.042,0.25,71,155.0
2805,C#2,302.042,0.25,71,155.0
2806,B-2,302.042,0.25,71,155.0
2807,A4,302.042,0.25,71,155.0
2808,A5,302.042,0.25,71,155.0
2809,E5,302.5,229/500,127,155.0
2810,C4,302.5,0.25,127,155.0
2811,E4,302.5,0.25,127,155.0
2812,A4,302.5,0.25,127,155.0
2813,C#2,303.042,0.25,104,155.0
2814,F#2,303.042,0.25,104,155.0
2815,F2,303.5,229/500,110,155.0
2816,F#2,303.542,0.25,30,155.0
2817,G#5,303.542,0.25,30,155.0
2818,E2,304.0,729/500,110,155.0
2819,G#3,304.0,0.25,107,155.0
2820,D4,304.0,0.25,107,155.0
2821,G4,304.0,0.25,107,155.0
2822,C5,304.0,0.25,107,155.0
2823,D3,304.042,1979/500,109,155.0
2824,G#3,304.042,1979/500,109,155.0
2825,C4,304.042,1979/500,109,155.0
2826,D4,304.042,1979/500,109,155.0
2827,G4,304.042,1979/500,109,155.0
2828,B1,304.042,0.25,56,155.0
2829,F#2,304.042,0.25,56,155.0
2830,A4,304.042,0.25,56,155.0
2831,A5,304.042,0.25,56,155.0
2832,F#2,304.542,0.25,33,155.0
2833,C#2,305.042,0.25,100,155.0
2834,F#2,305.042,0.25,100,155.0
2835,E2,305.5,229/500,110,155.0
2836,B1,305.542,0.25,38,155.0
2837,F#2,305.542,0.25,38,155.0
2838,A4,305.542,0.25,38,155.0
2839,G#5,305.542,0.25,38,155.0
2840,G#2,306.0,479/500,110,155.0
2841,B1,306.042,0.25,70,155.0
2842,F#2,306.042,0.25,70,155.0
2843,A4,306.042,0.25,70,155.0
2844,A5,306.042,0.25,70,155.0
2845,B1,306.5,479/500,110,155.0
2846,G#3,306.5,0.25,107,155.0
2847,D4,306.5,229/500,107,155.0
2848,G4,306.5,229/500,107,155.0
2849,C5,306.5,229/500,107,155.0
2850,F#2,306.542,0.25,20,155.0
2851,F#2,307.042,0.25,78,155.0
2852,E2,307.5,0.5,110,155.0
2853,G#3,307.5,0.25,107,155.0
2854,D4,307.5,229/500,107,155.0
2855,G4,307.5,0.5,107,155.0
2856,C5,307.5,0.5,107,155.0
2857,C#2,307.542,0.25,60,155.0
2858,F#2,307.542,0.25,60,155.0
2859,G#5,307.542,0.25,60,155.0
2860,E2,308.0,729/500,110,155.0
2861,D3,308.0,4.0,109,155.0
2862,G4,308.0,229/500,107,155.0
2863,C5,308.0,229/500,107,155.0
2864,G#3,308.0,3.5,109,155.0
2865,C4,308.0,3.5,109,155.0
2866,D4,308.0,3.5,109,155.0
2867,G4,308.0,3.5,109,155.0
2868,B1,308.042,0.25,54,155.0
2869,F#2,308.042,0.25,54,155.0
2870,A4,308.042,0.25,54,155.0
2871,A5,308.042,0.25,54,155.0
2872,G#3,308.5,0.25,107,155.0
2873,D4,308.5,229/500,107,155.0
2874,G4,308.5,229/500,107,155.0
2875,D5,308.5,229/500,107,155.0
2876,C#2,308.542,0.25,84,155.0
2877,D2,308.542,0.25,84,155.0
2878,F#2,308.542,0.25,84,155.0
2879,F#2,309.042,0.25,91,155.0
2880,E2,309.5,229/500,110,155.0
2881,G#3,309.5,0.25,107,155.0
2882,D4,309.5,0.25,107,155.0
2883,G4,309.5,479/500,107,155.0
2884,C5,309.5,479/500,107,155.0
2885,B1,309.542,0.25,52,155.0
2886,F#2,309.542,0.25,52,155.0
2887,D3,309.542,0.25,52,155.0
2888,A4,309.542,0.25,52,155.0
2889,G#5,309.542,0.25,52,155.0
2890,E1,310.0,479/500,110,155.0
2891,B1,310.042,0.25,71,155.0
2892,C#2,310.042,0.25,71,155.0
2893,B-2,310.042,0.25,71,155.0
2894,A4,310.042,0.25,71,155.0
2895,A5,310.042,0.25,71,155.0
2896,G5,310.5,479/500,107,155.0
2897,D4,310.5,229/500,107,155.0
2898,G#4,310.5,229/500,107,155.0
2899,D5,310.5,229/500,107,155.0
2900,C3,310.542,0.25,120,155.0
2901,E1,311.0,479/500,110,155.0
2902,C#2,311.042,0.25,106,155.0
2903,F#2,311.042,0.25,106,155.0
2904,G#2,311.042,0.25,106,155.0
2905,B2,311.042,0.25,106,155.0
2906,F#2,311.542,0.25,58,155.0
2907,A2,311.542,0.25,58,155.0
2908,G#5,311.542,0.25,58,155.0
2909,F1,312.0,729/500,110,155.0
2910,A3,312.0,0.25,107,155.0
2911,C4,312.0,0.25,107,155.0
2912,E4,312.0,0.25,107,155.0
2913,A4,312.0,0.25,107,155.0
2914,F3,312.042,1729/500,111,155.0
2915,G3,312.042,1729/500,111,155.0
2916,A3,312.042,1729/500,111,155.0
2917,C4,312.042,1729/500,111,155.0
2918,E4,312.042,1729/500,111,155.0
2919,B1,312.042,0.25,65,155.0
2920,F#2,312.042,0.25,65,155.0
2921,C#3,312.042,0.25,65,155.0
2922,A4,312.042,0.25,65,155.0
2923,A5,312.042,0.25,65,155.0
2924,F#2,312.542,0.25,33,155.0
2925,C#2,313.042,0.25,100,155.0
2926,F#2,313.042,0.25,100,155.0
2927,F1,313.5,229/500,110,155.0
2928,B1,313.542,0.25,38,155.0
2929,F#2,313.542,0.25,38,155.0
2930,A4,313.542,0.25,38,155.0
2931,G#5,313.542,0.25,38,155.0
2932,F2,314.0,979/500,110,155.0
2933,B1,314.042,0.25,70,155.0
2934,F#2,314.042,0.25,70,155.0
2935,A4,314.042,0.25,70,155.0
2936,A5,314.042,0.25,70,155.0
2937,A3,314.5,0.125,123,155.0
2938,C4,314.5,0.125,123,155.0
2939,E4,314.5,0.125,123,155.0
2940,A4,314.5,0.125,123,155.0
2941,F#2,314.542,0.25,20,155.0
2942,F#2,315.042,0.25,78,155.0
2943,B3,315.542,229/500,111,155.0
2944,G#3,315.542,229/500,111,155.0
2945,D4,315.542,229/500,111,155.0
2946,C#2,315.542,0.25,60,155.0
2947,F#2,315.542,0.25,60,155.0
2948,G#5,315.542,0.25,60,155.0
2949,E1,316.0,729/500,110,155.0
2950,B3,316.0,1.5,111,155.0
2951,G#3,316.0,2.0,111,155.0
2952,D4,316.0,2.0,111,155.0
2953,B1,316.042,0.25,54,155.0
2954,F#2,316.042,0.25,54,155.0
2955,A4,316.042,0.25,54,155.0
2956,A5,316.042,0.25,54,155.0
2957,G4,316.5,479/500,123,155.0
2958,G3,316.5,229/500,123,155.0
2959,C4,316.5,229/500,123,155.0
2960,C5,316.5,229/500,123,155.0
2961,D4,316.5,0.25,123,155.0
2962,E4,316.5,0.25,123,155.0
2963,C#2,316.542,0.25,72,155.0
2964,F#2,316.542,0.25,72,155.0
2965,F#2,317.042,0.25,91,155.0
2966,E1,317.5,229/500,110,155.0
2967,B1,317.542,0.25,36,155.0
2968,F#2,317.542,0.25,36,155.0
2969,A4,317.542,0.25,36,155.0
2970,G#5,317.542,0.25,36,155.0
2971,B1,318.0,479/500,110,155.0
2972,F3,318.0,0.25,107,155.0
2973,C4,318.0,0.25,107,155.0
2974,D4,318.0,0.25,107,155.0
2975,F4,318.0,229/500,107,155.0
2976,C5,318.0,229/500,107,155.0
2977,G#3,318.042,729/500,111,155.0
2978,B3,318.042,979/500,111,155.0
2979,F4,318.042,979/500,111,155.0
2980,B1,318.042,0.25,71,155.0
2981,C#2,318.042,0.25,71,155.0
2982,B-2,318.042,0.25,71,155.0
2983,A4,318.042,0.25,71,155.0
2984,A5,318.042,0.25,71,155.0
2985,B-1,319.0,479/500,110,155.0
2986,B3,319.0,0.25,92,155.0
2987,D4,319.0,0.25,92,155.0
2988,F4,319.0,0.25,92,155.0
2989,C#2,319.042,0.25,104,155.0
2990,F#2,319.042,0.25,104,155.0
2991,F#2,319.542,0.25,30,155.0
2992,G#5,319.542,0.25,30,155.0
2993,A1,320.0,479/500,110,155.0
2994,E3,320.0,229/500,92,155.0
2995,G3,320.0,229/500,92,155.0
2996,B3,320.0,229/500,92,155.0
2997,E4,320.0,229/500,92,155.0
2998,G4,320.0,229/500,92,155.0
2999,B3,320.042,1229/500,111,155.0
3000,C4,320.042,1229/500,111,155.0
3001,E4,320.042,1229/500,111,155.0
3002,G4,320.042,1229/500,111,155.0
3003,B4,320.042,1229/500,111,155.0
3004,B1,320.042,0.25,56,155.0
3005,F#2,320.042,0.25,56,155.0
3006,A4,320.042,0.25,56,155.0
3007,A5,320.042,0.25,56,155.0
3008,F#2,320.542,0.25,33,155.0
3009,C#2,321.042,0.25,100,155.0
3010,F#2,321.042,0.25,100,155.0
3011,A1,321.5,0.25,110,155.0
3012,B1,321.542,0.25,38,155.0
3013,F#2,321.542,0.25,38,155.0
3014,A4,321.542,0.25,38,155.0
3015,G#5,321.542,0.25,38,155.0
3016,A1,322.0,479/500,110,155.0
3017,B1,322.042,0.25,70,155.0
3018,F#2,322.042,0.25,70,155.0
3019,A4,322.042,0.25,70,155.0
3020,A5,322.042,0.25,70,155.0
3021,G4,322.542,479/500,111,155.0
3022,F#2,322.542,0.25,20,155.0
3023,F#2,323.042,0.25,78,155.0
3024,E5,323.458,0.125,105,155.0
3025,G3,323.458,0.125,105,155.0
3026,B3,323.458,0.125,105,155.0
3027,C4,323.458,0.125,105,155.0
3028,E4,323.458,0.125,105,155.0
3029,A1,323.5,0.5,110,155.0
3030,E4,323.542,229/500,111,155.0
3031,G3,323.542,229/500,111,155.0
3032,B3,323.542,229/500,111,155.0
3033,C4,323.542,229/500,111,155.0
3034,C#2,323.542,0.25,60,155.0
3035,F#2,323.542,0.25,60,155.0
3036,G#5,323.542,0.25,60,155.0
3037,A1,324.0,229/500,110,155.0
3038,G5,324.0,333/1000,125,155.0
3039,E4,324.0,3.0,111,155.0
3040,G3,324.0,4.0,111,155.0
3041,B3,324.0,4.0,111,155.0
3042,C4,324.0,4.0,111,155.0
3043,B1,324.042,0.25,54,155.0
3044,F#2,324.042,0.25,54,155.0
3045,A4,324.042,0.25,54,155.0
3046,A5,324.042,0.25,54,155.0
3047,A5,324.25,0.75,90,155.0
3048,B1,324.5,479/500,110,155.0
3049,C#2,324.542,0.25,72,155.0
3050,F#2,324.542,0.25,72,155.0
3051,G5,325.0,0.375,127,155.0
3052,F#2,325.042,0.25,91,155.0
3053,C2,325.5,229/500,110,155.0
3054,B1,325.542,0.25,36,155.0
3055,F#2,325.542,0.25,36,155.0
3056,A4,325.542,0.25,36,155.0
3057,G#5,325.542,0.25,36,155.0
3058,A1,326.0,729/500,110,155.0
3059,D5,326.0,0.75,127,155.0
3060,B1,326.042,0.25,71,155.0
3061,C#2,326.042,0.25,71,155.0
3062,B-2,326.042,0.25,71,155.0
3063,A4,326.042,0.25,71,155.0
3064,A5,326.042,0.25,71,155.0
3065,E-5,326.167,177/250,115,155.0
3066,C5,326.5,0.375,107,155.0
3067,D5,327.0,0.5,115,155.0
3068,E4,327.042,229/500,111,155.0
3069,C#2,327.042,0.25,104,155.0
3070,F#2,327.042,0.25,104,155.0
3071,G1,327.5,229/500,110,155.0
3072,C5,327.5,73/250,118,155.0
3073,F#2,327.542,0.25,30,155.0
3074,G#5,327.542,0.25,30,155.0
3075,E3,328.0,3583/1000,49,155.0
3076,F1,328.0,479/500,110,155.0
3077,C4,328.0,1729/500,50,155.0
3078,E4,328.0,1729/500,50,155.0
3079,A3,328.0,0.25,88,155.0
3080,C4,328.0,0.25,88,155.0
3081,E4,328.0,0.25,88,155.0
3082,G3,328.042,1729/500,111,155.0
3083,A3,328.042,1729/500,111,155.0
3084,C4,328.042,1729/500,111,155.0
3085,E4,328.042,1729/500,111,155.0
3086,B1,328.042,0.25,56,155.0
3087,F#2,328.042,0.25,56,155.0
3088,A4,328.042,0.25,56,155.0
3089,A5,328.042,0.25,56,155.0
3090,F#2,328.542,0.25,33,155.0
3091,C#2,329.042,0.25,100,155.0
3092,F#2,329.042,0.25,100,155.0
3093,F1,329.5,0.25,110,155.0
3094,A3,329.5,0.25,88,155.0
3095,C4,329.5,0.25,88,155.0
3096,E4,329.5,0.25,88,155.0
3097,B1,329.542,0.25,38,155.0
3098,F#2,329.542,0.25,38,155.0
3099,A4,329.542,0.25,38,155.0
3100,G#5,329.542,0.25,38,155.0
3101,F1,330.0,479/500,110,155.0
3102,B1,330.042,0.25,70,155.0
3103,F#2,330.042,0.25,70,155.0
3104,A4,330.042,0.25,70,155.0
3105,A5,330.042,0.25,70,155.0
3106,C4,330.5,229/500,88,155.0
3107,E4,330.5,0.25,88,155.0
3108,G4,330.5,0.25,88,155.0
3109,F#2,330.542,0.25,20,155.0
3110,F#2,331.042,0.25,78,155.0
3111,F3,331.5,0.5,38,155.0
3112,D4,331.5,0.5,53,155.0
3113,F4,331.5,0.5,30,155.0
3114,E1,331.5,0.25,110,155.0
3115,G#3,331.5,0.25,88,155.0
3116,A3,331.5,0.5,88,155.0
3117,B3,331.5,0.5,88,155.0
3118,D4,331.5,0.5,88,155.0
3119,G#4,331.5,0.5,88,155.0
3120,G#3,331.542,229/500,111,155.0
3121,C4,331.542,229/500,111,155.0
3122,D4,331.542,229/500,111,155.0
3123,F4,331.542,229/500,111,155.0
3124,C#2,331.542,0.25,60,155.0
3125,F#2,331.542,0.25,60,155.0
3126,G#5,331.542,0.25,60,155.0
3127,F3,332.0,823/250,38,155.0
3128,D4,332.0,3583/1000,53,155.0
3129,F4,332.0,3667/1000,30,155.0
3130,E1,332.0,729/500,110,155.0
3131,A3,332.0,479/500,88,155.0
3132,B3,332.0,479/500,88,155.0
3133,D4,332.0,479/500,88,155.0
3134,G#4,332.0,479/500,88,155.0
3135,G#3,332.0,3.5,111,155.0
3136,C4,332.0,3.5,111,155.0
3137,D4,332.0,3.5,111,155.0
3138,F4,332.0,3.5,111,155.0
3139,B1,332.042,0.25,54,155.0
3140,F#2,332.042,0.25,54,155.0
3141,A4,332.042,0.25,54,155.0
3142,A5,332.042,0.25,54,155.0
3143,C#2,332.542,0.25,72,155.0
3144,F#2,332.542,0.25,72,155.0
3145,F#2,333.042,0.25,91,155.0
3146,E1,333.5,229/500,110,155.0
3147,B1,333.542,0.25,36,155.0
3148,F#2,333.542,0.25,36,155.0
3149,A4,333.542,0.25,36,155.0
3150,G#5,333.542,0.25,36,155.0
3151,B1,334.0,229/500,110,155.0
3152,B1,334.042,0.25,71,155.0
3153,C#2,334.042,0.25,71,155.0
3154,B-2,334.042,0.25,71,155.0
3155,A4,334.042,0.25,71,155.0
3156,A5,334.042,0.25,71,155.0
3157,E2,334.5,229/500,110,155.0
3158,G#3,334.5,0.25,88,155.0
3159,B3,334.5,229/500,88,155.0
3160,D4,334.5,229/500,88,155.0
3161,G#4,334.5,229/500,88,155.0
3162,B1,335.0,229/500,110,155.0
3163,D4,335.0,229/500,95,155.0
3164,C5,335.0,229/500,95,155.0
3165,G4,335.0,0.25,95,155.0
3166,G#4,335.0,0.25,95,155.0
3167,C#2,335.042,0.25,104,155.0
3168,F#2,335.042,0.25,104,155.0
3169,A1,335.5,229/500,110,155.0
3170,F#2,335.542,0.25,30,155.0
3171,G#5,335.542,0.25,30,155.0
3172,A1,336.0,479/500,110,155.0
3173,C4,336.0,0.25,78,155.0
3174,G3,336.0,229/500,78,155.0
3175,E4,336.0,229/500,78,155.0
3176,G3,336.042,1979/500,111,155.0
3177,B3,336.042,1979/500,111,155.0
3178,C4,336.042,1979/500,111,155.0
3179,E4,336.042,1979/500,111,155.0
3180,B1,336.042,0.25,56,155.0
3181,F#2,336.042,0.25,56,155.0
3182,A4,336.042,0.25,56,155.0
3183,A5,336.042,0.25,56,155.0
3184,F#2,336.542,0.25,33,155.0
3185,C#2,337.042,0.25,100,155.0
3186,F#2,337.042,0.25,100,155.0
3187,A1,337.5,229/500,110,155.0
3188,B1,337.542,0.25,38,155.0
3189,F#2,337.542,0.25,38,155.0
3190,A4,337.542,0.25,38,155.0
3191,G#5,337.542,0.25,38,155.0
3192,E1,338.0,729/500,110,155.0
3193,B1,338.042,0.25,70,155.0
3194,F#2,338.042,0.25,70,155.0
3195,A4,338.042,0.25,70,155.0
3196,A5,338.042,0.25,70,155.0
3197,F#2,338.542,0.25,20,155.0
3198,F#2,339.042,0.25,78,155.0
3199,G1,339.5,229/500,110,155.0
3200,C#2,339.542,0.25,60,155.0
3201,F#2,339.542,0.25,60,155.0
3202,G#5,339.542,0.25,60,155.0
3203,A1,340.0,729/500,110,155.0
3204,G3,340.0,3.5,111,155.0
3205,B3,340.0,3.5,111,155.0
3206,C4,340.0,3.5,111,155.0
3207,E4,340.0,3.5,111,155.0
3208,B1,340.042,0.25,54,155.0
3209,F#2,340.042,0.25,54,155.0
3210,A4,340.042,0.25,54,155.0
3211,A5,340.042,0.25,54,155.0
3212,C#2,340.542,0.25,72,155.0
3213,F#2,340.542,0.25,72,155.0
3214,F#2,341.042,0.25,91,155.0
3215,C2,341.5,729/500,110,155.0
3216,B1,341.542,0.25,36,155.0
3217,F#2,341.542,0.25,36,155.0
3218,A4,341.542,0.25,36,155.0
3219,G#5,341.542,0.25,36,155.0
3220,B1,342.042,0.25,71,155.0
3221,C#2,342.042,0.25,71,155.0
3222,B-2,342.042,0.25,71,155.0
3223,A4,342.042,0.25,71,155.0
3224,A5,342.042,0.25,71,155.0
3225,G3,342.5,229/500,101,155.0
3226,C4,342.5,0.25,101,155.0
3227,E4,342.5,0.25,101,155.0
3228,G4,342.5,0.25,101,155.0
3229,A1,343.0,229/500,110,155.0
3230,C#2,343.042,0.25,104,155.0
3231,F#2,343.042,0.25,104,155.0
3232,F#2,343.542,0.25,30,155.0
3233,G#5,343.542,0.25,30,155.0
3234,F1,344.0,479/500,110,155.0
3235,A3,344.0,0.25,101,155.0
3236,C4,344.0,0.25,101,155.0
3237,E4,344.0,0.25,101,155.0
3238,G3,344.042,1729/500,111,155.0
3239,A3,344.042,1729/500,111,155.0
3240,C4,344.042,1729/500,111,155.0
3241,E4,344.042,1729/500,111,155.0
3242,B1,344.042,0.25,56,155.0
3243,F#2,344.042,0.25,56,155.0
3244,A4,344.042,0.25,56,155.0
3245,A5,344.042,0.25,56,155.0
3246,F#2,344.542,0.25,33,155.0
3247,C#2,345.042,0.25,100,155.0
3248,F#2,345.042,0.25,100,155.0
3249,F1,345.5,229/500,110,155.0
3250,B1,345.542,0.25,38,155.0
3251,F#2,345.542,0.25,38,155.0
3252,A4,345.542,0.25,38,155.0
3253,G#5,345.542,0.25,38,155.0
3254,F1,346.0,979/500,110,155.0
3255,B1,346.042,0.25,70,155.0
3256,F#2,346.042,0.25,70,155.0
3257,A4,346.042,0.25,70,155.0
3258,A5,346.042,0.25,70,155.0
3259,C4,346.5,0.25,101,155.0
3260,E4,346.5,0.25,101,155.0
3261,A4,346.5,0.25,101,155.0
3262,F#2,346.542,0.25,20,155.0
3263,F#2,347.042,0.25,78,155.0
3264,A3,347.5,0.5,101,155.0
3265,D4,347.5,0.5,101,155.0
3266,F4,347.5,0.5,101,155.0
3267,F4,347.542,229/500,111,155.0
3268,G#3,347.542,229/500,111,155.0
3269,C4,347.542,229/500,111,155.0
3270,D4,347.542,229/500,111,155.0
3271,C#2,347.542,0.25,60,155.0
3272,F#2,347.542,0.25,60,155.0
3273,G#5,347.542,0.25,60,155.0
3274,E1,348.0,479/500,110,155.0
3275,F4,348.0,3.5,111,155.0
3276,A3,348.0,0.375,101,155.0
3277,D4,348.0,0.375,101,155.0
3278,F4,348.0,0.375,101,155.0
3279,G#3,348.0,4.0,111,155.0
3280,C4,348.0,4.0,111,155.0
3281,D4,348.0,4.0,111,155.0
3282,B1,348.042,0.25,54,155.0
3283,F#2,348.042,0.25,54,155.0
3284,A4,348.042,0.25,54,155.0
3285,A5,348.042,0.25,54,155.0
3286,C#2,348.542,0.25,72,155.0
3287,F#2,348.542,0.25,72,155.0
3288,F#2,349.042,0.25,91,155.0
3289,E1,349.5,0.25,110,155.0
3290,B1,349.542,0.25,36,155.0
3291,F#2,349.542,0.25,36,155.0
3292,A4,349.542,0.25,36,155.0
3293,G#5,349.542,0.25,36,155.0
3294,E1,350.0,479/500,110,155.0
3295,B1,350.042,0.25,71,155.0
3296,C#2,350.042,0.25,71,155.0
3297,B-2,350.042,0.25,71,155.0
3298,A4,350.042,0.25,71,155.0
3299,A5,350.042,0.25,71,155.0
3300,G#3,350.5,0.25,101,155.0
3301,D4,350.5,0.25,101,155.0
3302,F4,350.5,0.25,101,155.0
3303,G#4,350.5,0.25,101,155.0
3304,B1,351.0,229/500,110,155.0
3305,C5,351.0,229/500,101,155.0
3306,D4,351.0,0.25,101,155.0
3307,E4,351.0,0.25,101,155.0
3308,G#4,351.0,0.25,101,155.0
3309,C#2,351.042,0.25,104,155.0
3310,F#2,351.042,0.25,104,155.0
3311,E1,351.5,229/500,110,155.0
3312,F#2,351.542,0.25,30,155.0
3313,G#5,351.542,0.25,30,155.0
3314,A1,352.0,729/500,110,155.0
3315,G3,352.0,0.25,101,155.0
3316,C4,352.0,0.25,101,155.0
3317,E4,352.0,0.25,101,155.0
3318,E4,352.042,1479/500,111,155.0
3319,G3,352.042,1229/500,111,155.0
3320,A3,352.042,1229/500,111,155.0
3321,C4,352.042,1229/500,111,155.0
3322,B1,352.042,0.25,56,155.0
3323,F#2,352.042,0.25,56,155.0
3324,A4,352.042,0.25,56,155.0
3325,A5,352.042,0.25,56,155.0
3326,F#2,352.542,0.25,33,155.0
3327,C#2,353.042,0.25,100,155.0
3328,F#2,353.042,0.25,100,155.0
3329,A1,353.5,229/500,110,155.0
3330,B1,353.542,0.25,38,155.0
3331,F#2,353.542,0.25,38,155.0
3332,A4,353.542,0.25,38,155.0
3333,G#5,353.542,0.25,38,155.0
3334,A1,354.0,479/500,110,155.0
3335,B1,354.042,0.25,70,155.0
3336,F#2,354.042,0.25,70,155.0
3337,A4,354.042,0.25,70,155.0
3338,A5,354.042,0.25,70,155.0
3339,C4,354.5,0.25,101,155.0
3340,E4,354.5,229/500,101,155.0
3341,G4,354.5,229/500,101,155.0
3342,C5,354.5,229/500,101,155.0
3343,E4,354.542,229/500,111,155.0
3344,F#2,354.542,0.25,20,155.0
3345,G3,354.542,729/500,111,155.0
3346,A3,354.542,729/500,111,155.0
3347,G4,354.542,729/500,111,155.0
3348,A1,355.0,229/500,110,155.0
3349,F#2,355.042,0.25,78,155.0
3350,G1,355.5,229/500,110,155.0
3351,C#2,355.542,0.25,60,155.0
3352,F#2,355.542,0.25,60,155.0
3353,G#5,355.542,0.25,60,155.0
3354,F#1,356.0,729/500,110,155.0
3355,E3,356.0,229/500,101,155.0
3356,C#4,356.0,229/500,101,155.0
3357,E4,356.0,229/500,101,155.0
3358,A4,356.0,229/500,101,155.0
3359,A3,356.042,979/500,111,155.0
3360,C#4,356.042,729/500,111,155.0
3361,E4,356.042,1.0,111,155.0
3362,B1,356.042,0.25,54,155.0
3363,F#2,356.042,0.25,54,155.0
3364,A4,356.042,0.25,54,155.0
3365,A5,356.042,0.25,54,155.0
3366,C#2,356.542,0.25,72,155.0
3367,F#2,356.542,0.25,72,155.0
3368,F#2,357.042,0.25,91,155.0
3369,F#1,357.5,229/500,110,155.0
3370,B1,357.542,0.25,36,155.0
3371,F#2,357.542,0.25,36,155.0
3372,A4,357.542,0.25,36,155.0
3373,G#5,357.542,0.25,36,155.0
3374,B1,358.0,479/500,110,155.0
3375,F#3,358.0,0.25,101,155.0
3376,E-4,358.0,0.25,101,155.0
3377,F#4,358.0,0.25,101,155.0
3378,B4,358.0,0.25,101,155.0
3379,A3,358.042,729/500,111,155.0
3380,C#4,358.042,729/500,111,155.0
3381,F#4,358.042,729/500,111,155.0
3382,B1,358.042,0.25,71,155.0
3383,C#2,358.042,0.25,71,155.0
3384,B-2,358.042,0.25,71,155.0
3385,A4,358.042,0.25,71,155.0
3386,A5,358.042,0.25,71,155.0
3387,E-1,359.0,479/500,110,155.0
3388,C#2,359.042,0.25,104,155.0
3389,F#2,359.042,0.25,104,155.0
3390,B1,359.542,0.25,55,155.0
3391,F#2,359.542,0.25,55,155.0
3392,G#5,359.542,0.25,55,155.0
3393,E1,360.0,729/500,110,155.0
3394,B3,360.042,1979/500,111,155.0
3395,C#4,360.042,1979/500,111,155.0
3396,E-4,360.042,1979/500,111,155.0
3397,G#4,360.042,1979/500,111,155.0
3398,B1,360.042,0.25,56,155.0
3399,F#2,360.042,0.25,56,155.0
3400,A4,360.042,0.25,56,155.0
3401,A5,360.042,0.25,56,155.0
3402,E-4,360.5,83/1000,101,155.0
3403,G#4,360.5,83/1000,101,155.0
3404,B4,360.5,83/1000,101,155.0
3405,C#5,360.5,83/1000,101,155.0
3406,E-5,360.5,83/1000,101,155.0
3407,F#2,360.542,0.25,33,155.0
3408,C#2,361.042,0.25,100,155.0
3409,F#2,361.042,0.25,100,155.0
3410,E1,361.5,229/500,110,155.0
3411,E-4,361.5,479/500,101,155.0
3412,G#4,361.5,479/500,101,155.0
3413,B4,361.5,479/500,101,155.0
3414,C#5,361.5,479/500,101,155.0
3415,E-5,361.5,479/500,101,155.0
3416,B1,361.542,0.25,38,155.0
3417,F#2,361.542,0.25,38,155.0
3418,A4,361.542,0.25,38,155.0
3419,G#5,361.542,0.25,38,155.0
3420,E1,362.0,729/500,110,155.0
3421,B1,362.042,0.25,70,155.0
3422,F#2,362.042,0.25,70,155.0
3423,A4,362.042,0.25,70,155.0
3424,A5,362.042,0.25,70,155.0
3425,B3,362.5,729/500,101,155.0
3426,E-4,362.5,729/500,101,155.0
3427,G#4,362.5,729/500,101,155.0
3428,B4,362.5,729/500,101,155.0
3429,F#2,362.542,0.25,74,155.0
3430,G#2,362.542,0.25,74,155.0
3431,F#2,363.042,0.25,78,155.0
3432,E1,363.5,229/500,110,155.0
3433,B3,363.5,229/500,101,155.0
3434,E-4,363.5,229/500,101,155.0
3435,G#4,363.5,229/500,101,155.0
3436,C#2,363.542,0.25,62,155.0
3437,D2,363.542,0.25,62,155.0
3438,F#2,363.542,0.25,62,155.0
3439,G#5,363.542,0.25,62,155.0
3440,D2,363.792,26/125,69,155.0
3441,E1,364.0,0.625,110,155.0
3442,G3,364.0,0.25,101,155.0
3443,D2,364.0,21/500,69,155.0
3444,D4,364.0,479/500,101,155.0
3445,F#4,364.0,479/500,101,155.0
3446,B4,364.0,479/500,101,155.0
3447,G3,364.042,979/500,111,155.0
3448,B3,364.042,979/500,111,155.0
3449,D4,364.042,979/500,111,155.0
3450,F#4,364.042,979/500,111,155.0
3451,B1,364.042,0.25,54,155.0
3452,F#2,364.042,0.25,54,155.0
3453,A4,364.042,0.25,54,155.0
3454,A5,364.042,0.25,54,155.0
3455,C#2,364.542,0.25,72,155.0
3456,D2,364.542,0.25,72,155.0
3457,F#2,364.542,0.25,72,155.0
3458,F#1,364.667,0.625,110,155.0
3459,F#2,365.042,0.25,91,155.0
3460,G1,365.333,271/500,110,155.0
3461,B1,365.542,0.25,36,155.0
3462,F#2,365.542,0.25,36,155.0
3463,A4,365.542,0.25,36,155.0
3464,G#5,365.542,0.25,36,155.0
3465,A1,365.875,667/1000,110,155.0
3466,F#4,366.0,0.25,101,155.0
3467,G3,366.0,229/500,101,155.0
3468,C#4,366.0,229/500,101,155.0
3469,G4,366.0,229/500,101,155.0
3470,F#4,366.042,979/500,111,155.0
3471,F#3,366.042,729/500,111,155.0
3472,B3,366.042,729/500,111,155.0
3473,C#4,366.042,729/500,111,155.0
3474,B1,366.042,0.25,71,155.0
3475,C#2,366.042,0.25,71,155.0
3476,B-2,366.042,0.25,71,155.0
3477,A4,366.042,0.25,71,155.0
3478,A5,366.042,0.25,71,155.0
3479,B1,366.5,73/250,110,155.0
3480,C#2,366.833,479/500,110,155.0
3481,C#2,367.042,0.25,104,155.0
3482,F#2,367.042,0.25,104,155.0
3483,F#2,367.542,0.25,30,155.0
3484,G#5,367.542,0.25,30,155.0
3485,D2,368.0,729/500,110,155.0
3486,F#4,368.0,0.25,101,155.0
3487,A4,368.0,0.25,101,155.0
3488,C#5,368.0,0.25,101,155.0
3489,A3,368.042,1729/500,111,155.0
3490,B3,368.042,1729/500,111,155.0
3491,C#4,368.042,1979/500,111,155.0
3492,E4,368.042,1979/500,111,155.0
3493,B1,368.042,0.25,58,155.0
3494,F#2,368.042,0.25,58,155.0
3495,C#3,368.042,0.25,58,155.0
3496,A4,368.042,0.25,58,155.0
3497,A5,368.042,0.25,58,155.0
3498,E5,368.5,229/500,101,155.0
3499,F#2,368.542,0.25,33,155.0
3500,C#2,369.042,0.25,89,155.0
3501,F#2,369.042,0.25,89,155.0
3502,C#3,369.042,0.25,89,155.0
3503,D2,369.5,229/500,110,155.0
3504,F#4,369.5,0.25,101,155.0
3505,A4,369.5,0.25,101,155.0
3506,C#5,369.5,229/500,101,155.0
3507,F#5,369.5,229/500,101,155.0
3508,B1,369.542,0.25,60,155.0
3509,F#2,369.542,0.25,60,155.0
3510,D3,369.542,0.25,60,155.0
3511,A3,369.542,0.25,60,155.0
3512,A4,369.542,0.25,60,155.0
3513,G#5,369.542,0.25,60,155.0
3514,A2,370.0,729/500,110,155.0
3515,B1,370.042,0.25,70,155.0
3516,F#2,370.042,0.25,70,155.0
3517,A4,370.042,0.25,70,155.0
3518,A5,370.042,0.25,70,155.0
3519,F#4,370.5,0.25,101,155.0
3520,A4,370.5,0.25,101,155.0
3521,D5,370.5,229/500,101,155.0
3522,D6,370.5,229/500,101,155.0
3523,F#2,370.542,0.25,20,155.0
3524,F#2,371.042,0.25,94,155.0
3525,B2,371.042,0.25,94,155.0
3526,C#3,371.042,0.25,94,155.0
3527,D2,371.5,229/500,110,155.0
3528,F#4,371.5,0.25,101,155.0
3529,A4,371.5,0.25,101,155.0
3530,C#5,371.5,0.25,101,155.0
3531,C#6,371.5,0.25,101,155.0
3532,C#2,371.542,0.25,60,155.0
3533,F#2,371.542,0.25,60,155.0
3534,G#5,371.542,0.25,60,155.0
3535,D2,372.0,729/500,110,155.0
3536,A3,372.0,0.25,101,155.0
3537,C#4,372.0,0.25,101,155.0
3538,E4,372.0,0.25,101,155.0
3539,A4,372.0,0.25,101,155.0
3540,E4,372.042,1479/500,111,155.0
3541,A3,372.042,1729/500,111,155.0
3542,B3,372.042,1729/500,111,155.0
3543,C#4,372.042,1729/500,111,155.0
3544,B1,372.042,0.25,54,155.0
3545,F#2,372.042,0.25,54,155.0
3546,A4,372.042,0.25,54,155.0
3547,A5,372.042,0.25,54,155.0
3548,A3,372.5,229/500,101,155.0
3549,C#4,372.5,229/500,101,155.0
3550,A4,372.5,229/500,101,155.0
3551,A5,372.5,229/500,101,155.0
3552,C#2,372.542,0.25,72,155.0
3553,F#2,372.542,0.25,72,155.0
3554,F#2,373.042,0.25,91,155.0
3555,A2,373.5,229/500,110,155.0
3556,A3,373.5,0.25,101,155.0
3557,C#4,373.5,229/500,101,155.0
3558,F#4,373.5,229/500,101,155.0
3559,F#5,373.5,229/500,101,155.0
3560,F#4,373.542,479/500,111,155.0
3561,B1,373.542,0.25,50,155.0
3562,D2,373.542,0.25,50,155.0
3563,F#2,373.542,0.25,50,155.0
3564,A4,373.542,0.25,50,155.0
3565,G#5,373.542,0.25,50,155.0
3566,A2,374.0,479/500,110,155.0
3567,B1,374.042,0.25,71,155.0
3568,C#2,374.042,0.25,71,155.0
3569,B-2,374.042,0.25,71,155.0
3570,A4,374.042,0.25,71,155.0
3571,A5,374.042,0.25,71,155.0
3572,A3,374.5,0.25,101,155.0
3573,B3,374.5,0.25,101,155.0
3574,E4,374.5,229/500,101,155.0
3575,E5,374.5,229/500,101,155.0
3576,E4,374.542,229/500,111,155.0
3577,C3,374.542,0.25,107,155.0
3578,D2,375.0,177/250,110,155.0
3579,F#5,375.0,229/500,101,155.0
3580,A3,375.0,0.25,101,155.0
3581,F#4,375.0,0.25,101,155.0
3582,D4,375.042,479/500,111,155.0
3583,C#2,375.042,0.25,105,155.0
3584,F#2,375.042,0.25,105,155.0
3585,B2,375.042,0.25,105,155.0
3586,F#2,375.542,0.25,58,155.0
3587,A2,375.542,0.25,58,155.0
3588,G#5,375.542,0.25,58,155.0
3589,F2,376.0,677/250,110,155.0
3590,E-4,376.0,229/500,101,155.0
3591,G#4,376.0,0.25,101,155.0
3592,B-4,376.0,0.25,101,155.0
3593,B-4,376.0,0.25,101,155.0
3594,B-5,376.0,0.25,101,155.0
3595,G#3,376.042,1229/500,111,155.0
3596,B-3,376.042,979/500,111,155.0
3597,C4,376.042,979/500,111,155.0
3598,E-4,376.042,979/500,111,155.0
3599,B1,376.042,0.25,66,155.0
3600,F#2,376.042,0.25,66,155.0
3601,A3,376.042,0.25,66,155.0
3602,A4,376.042,0.25,66,155.0
3603,A5,376.042,0.25,66,155.0
3604,F#2,376.542,0.25,33,155.0
3605,C#2,377.042,0.25,102,155.0
3606,D2,377.042,0.25,102,155.0
3607,F#2,377.042,0.25,102,155.0
3608,C#3,377.042,0.25,102,155.0
3609,D3,377.042,0.25,102,155.0
3610,B1,377.542,0.25,38,155.0
3611,F#2,377.542,0.25,38,155.0
3612,A4,377.542,0.25,38,155.0
3613,G#5,377.542,0.25,38,155.0
3614,B1,378.042,0.25,84,155.0
3615,F#2,378.042,0.25,84,155.0
3616,C3,378.042,0.25,84,155.0
3617,C#3,378.042,0.25,84,155.0
3618,A4,378.042,0.25,84,155.0
3619,A5,378.042,0.25,84,155.0
3620,C2,378.5,229/500,110,155.0
3621,E-6,378.5,0.25,101,155.0
3622,G#4,378.5,229/500,101,155.0
3623,B-4,378.5,229/500,101,155.0
3624,E-5,378.5,229/500,101,155.0
3625,G#3,378.542,479/500,111,155.0
3626,F#2,378.542,0.25,20,155.0
3627,B-3,378.542,729/500,111,155.0
3628,C4,378.542,729/500,111,155.0
3629,E-4,378.542,729/500,111,155.0
3630,C2,379.0,229/500,110,155.0
3631,F#2,379.042,0.25,102,155.0
3632,B2,379.042,0.25,102,155.0
3633,C2,379.5,229/500,110,155.0
3634,C6,379.5,229/500,101,155.0
3635,F4,379.5,0.5,101,155.0
3636,G#4,379.5,0.5,101,155.0
3637,B-4,379.5,0.5,101,155.0
3638,C5,379.5,0.5,101,155.0
3639,C4,379.542,229/500,111,155.0
3640,G#3,379.542,229/500,111,155.0
3641,D4,379.542,229/500,111,155.0
3642,F4,379.542,229/500,111,155.0
3643,C#2,379.542,0.25,83,155.0
3644,F#2,379.542,0.25,83,155.0
3645,B2,379.542,0.25,83,155.0
3646,A3,379.542,0.25,83,155.0
3647,G#5,379.542,0.25,83,155.0
3648,B-1,380.0,1479/500,110,155.0
3649,F4,380.0,229/500,101,155.0
3650,G#4,380.0,229/500,101,155.0
3651,B-4,380.0,229/500,101,155.0
3652,C5,380.0,229/500,101,155.0
3653,G#3,380.0,1.5,111,155.0
3654,D4,380.0,1.5,111,155.0
3655,F4,380.0,1.5,111,155.0
3656,B1,380.042,0.25,54,155.0
3657,F#2,380.042,0.25,54,155.0
3658,A4,380.042,0.25,54,155.0
3659,A5,380.042,0.25,54,155.0
3660,C#2,380.542,0.25,91,155.0
3661,F#2,380.542,0.25,91,155.0
3662,G2,380.542,0.25,91,155.0
3663,F#2,381.042,0.25,91,155.0
3664,D4,381.5,229/500,101,155.0
3665,F4,381.5,229/500,101,155.0
3666,G#4,381.5,229/500,101,155.0
3667,G#3,381.542,729/500,111,155.0
3668,C4,381.542,729/500,111,155.0
3669,D4,381.542,729/500,111,155.0
3670,F4,381.542,729/500,111,155.0
3671,B1,381.542,0.25,54,155.0
3672,F#2,381.542,0.25,54,155.0
3673,G2,381.542,0.25,54,155.0
3674,A4,381.542,0.25,54,155.0
3675,G#5,381.542,0.25,54,155.0
3676,B1,382.042,0.25,71,155.0
3677,C#2,382.042,0.25,71,155.0
3678,B-2,382.042,0.25,71,155.0
3679,A4,382.042,0.25,71,155.0
3680,A5,382.042,0.25,71,155.0
3681,E-5,382.5,229/500,101,155.0
3682,G#4,382.5,0.25,101,155.0
3683,B-4,382.5,0.25,101,155.0
3684,C5,382.5,0.25,101,155.0
3685,F2,382.542,0.25,107,155.0
3686,D4,383.0,99/125,110,155.0
3687,G5,383.0,229/500,101,155.0
3688,G#4,383.0,0.25,101,155.0
3689,B-4,383.0,0.25,101,155.0
3690,C5,383.0,0.25,101,155.0
3691,C#2,383.042,0.25,112,155.0
3692,F2,383.042,0.25,112,155.0
3693,F#2,383.042,0.25,112,155.0
3694,B1,383.542,0.25,68,155.0
3695,F#2,383.542,0.25,68,155.0
3696,A3,383.542,0.25,68,155.0
3697,G#5,383.542,0.25,68,155.0
3698,E-1,384.0,729/500,110,155.0
3699,D4,384.0,229/500,88,155.0
3700,G4,384.0,229/500,88,155.0
3701,B-4,384.0,229/500,88,155.0
3702,B-3,384.042,1729/500,111,155.0
3703,D4,384.042,1729/500,111,155.0
3704,F4,384.042,1729/500,111,155.0
3705,G4,384.042,1729/500,111,155.0
3706,B-4,384.042,1729/500,111,155.0
3707,B1,384.042,0.25,68,155.0
3708,C#3,384.042,0.25,68,155.0
3709,B3,384.042,0.25,68,155.0
3710,A4,384.042,0.25,68,155.0
3711,A5,384.042,0.25,68,155.0
3712,C#2,385.042,0.25,110,155.0
3713,B3,385.042,0.25,110,155.0
3714,E-1,385.5,229/500,110,155.0
3715,B1,385.542,0.25,47,155.0
3716,E-3,385.542,0.25,47,155.0
3717,A4,385.542,0.25,47,155.0
3718,G#5,385.542,0.25,47,155.0
3719,B-1,386.0,729/500,110,155.0
3720,B1,386.042,0.25,80,155.0
3721,B3,386.042,0.25,80,155.0
3722,A4,386.042,0.25,80,155.0
3723,A5,386.042,0.25,80,155.0
3724,B-3,386.5,0.25,88,155.0
3725,B-4,386.5,0.125,102,155.0
3726,D5,386.5,0.125,102,155.0
3727,F5,386.5,0.125,102,155.0
3728,B-5,386.5,0.125,102,155.0
3729,B3,387.042,0.25,100,155.0
3730,B-1,387.5,229/500,110,155.0
3731,B3,387.5,0.5,111,155.0
3732,C#2,387.542,0.25,71,155.0
3733,E-3,387.542,0.25,71,155.0
3734,G#5,387.542,0.25,71,155.0
3735,E-4,387.625,0.375,111,155.0
3736,F4,387.75,0.25,111,155.0
3737,G#4,387.875,0.125,111,155.0
3738,E-2,388.0,479/500,110,155.0
3739,B3,388.0,1229/500,111,155.0
3740,E-4,388.0,2583/1000,111,155.0
3741,F4,388.0,3.0,111,155.0
3742,G#4,388.0,2833/1000,111,155.0
3743,B1,388.042,0.25,60,155.0
3744,B3,388.042,0.25,60,155.0
3745,A4,388.042,0.25,60,155.0
3746,A5,388.042,0.25,60,155.0
3747,G#3,388.5,0.25,88,155.0
3748,G#4,388.5,0.125,102,155.0
3749,B4,388.5,0.125,102,155.0
3750,E-5,388.5,0.125,102,155.0
3751,G#5,388.5,0.125,102,155.0
3752,C#2,388.542,0.25,125,155.0
3753,B3,389.042,0.25,97,155.0
3754,E-2,389.5,0.25,110,155.0
3755,B1,389.542,0.25,42,155.0
3756,E-3,389.542,0.25,42,155.0
3757,A4,389.542,0.25,42,155.0
3758,G#5,389.542,0.25,42,155.0
3759,B-1,390.0,729/500,110,155.0
3760,B1,390.042,0.25,76,155.0
3761,C#2,390.042,0.25,76,155.0
3762,B-2,390.042,0.25,76,155.0
3763,B3,390.042,0.25,76,155.0
3764,A4,390.042,0.25,76,155.0
3765,A5,390.042,0.25,76,155.0
3766,G#3,390.5,729/500,88,155.0
3767,G#4,390.5,479/500,88,155.0
3768,B4,390.5,479/500,88,155.0
3769,E-5,390.5,479/500,88,155.0
3770,G#5,390.5,479/500,88,155.0
3771,F4,390.542,229/500,111,155.0
3772,G#4,390.542,73/250,111,155.0
3773,F4,391.042,667/1000,111,155.0
3774,G#4,391.042,479/500,111,155.0
3775,B4,391.042,479/500,111,155.0
3776,C#2,391.042,0.25,121,155.0
3777,B3,391.042,0.25,121,155.0
3778,B-1,391.5,229/500,110,155.0
3779,E-3,391.542,0.25,46,155.0
3780,G#5,391.542,0.25,46,155.0
3781,E-1,392.0,729/500,110,155.0
3782,G4,392.0,229/500,88,155.0
3783,B-3,392.0,0.25,88,155.0
3784,D4,392.0,0.25,88,155.0
3785,G3,392.042,1229/500,111,155.0
3786,B-3,392.042,1229/500,111,155.0
3787,C4,392.042,1229/500,111,155.0
3788,D4,392.042,1229/500,111,155.0
3789,G4,392.042,1229/500,111,155.0
3790,B1,392.042,0.25,63,155.0
3791,B3,392.042,0.25,63,155.0
3792,A4,392.042,0.25,63,155.0
3793,A5,392.042,0.25,63,155.0
3794,C#2,393.042,0.25,110,155.0
3795,B3,393.042,0.25,110,155.0
3796,E-1,393.5,0.25,110,155.0
3797,B-4,393.5,229/500,88,155.0
3798,B-5,393.5,229/500,88,155.0
3799,B1,393.542,0.25,47,155.0
3800,E-3,393.542,0.25,47,155.0
3801,A4,393.542,0.25,47,155.0
3802,G#5,393.542,0.25,47,155.0
3803,E-1,394.0,979/500,110,155.0
3804,G3,394.0,979/500,110,155.0
3805,B1,394.042,0.25,80,155.0
3806,B3,394.042,0.25,80,155.0
3807,A4,394.042,0.25,80,155.0
3808,A5,394.042,0.25,80,155.0
3809,B-4,394.5,73/250,101,155.0
3810,D4,394.5,479/500,97,155.0
3811,B-3,394.5,229/500,91,155.0
3812,G4,394.5,229/500,91,155.0
3813,G5,394.5,229/500,91,155.0
3814,G3,394.542,479/500,111,155.0
3815,B-3,394.542,479/500,111,155.0
3816,C4,394.542,479/500,111,155.0
3817,D4,394.542,479/500,111,155.0
3818,G4,394.542,479/500,111,155.0
3819,B-4,395.0,0.25,101,155.0
3820,B3,395.042,0.25,100,155.0
3821,B-4,395.5,73/250,106,155.0
3822,E-1,395.5,229/500,110,155.0
3823,G#5,395.5,0.5,97,155.0
3824,B3,395.5,0.5,97,155.0
3825,E-4,395.5,0.5,97,155.0
3826,F4,395.5,229/500,97,155.0
3827,G#4,395.5,229/500,97,155.0
3828,B3,395.542,229/500,111,155.0
3829,E-4,395.542,229/500,111,155.0
3830,F4,395.542,229/500,111,155.0
3831,G#4,395.542,229/500,111,155.0
3832,C#2,395.542,0.25,71,155.0
3833,E-3,395.542,0.25,71,155.0
3834,G#5,395.542,0.25,71,155.0
3835,B-4,396.0,667/1000,114,155.0
3836,F3,396.0,979/500,110,155.0
3837,G#5,396.0,229/500,97,155.0
3838,B3,396.0,479/500,97,155.0
3839,E-4,396.0,479/500,97,155.0
3840,B3,396.0,1.5,111,155.0
3841,E-4,396.0,1.5,111,155.0
3842,F4,396.0,1.5,111,155.0
3843,G#4,396.0,1.5,111,155.0
3844,B1,396.042,0.25,60,155.0
3845,B3,396.042,0.25,60,155.0
3846,A4,396.042,0.25,60,155.0
3847,A5,396.042,0.25,60,155.0
3848,B-3,396.5,229/500,93,155.0
3849,C#2,396.542,0.25,125,155.0
3850,B3,397.042,0.25,97,155.0
3851,B-3,397.5,167/1000,97,155.0
3852,E-4,397.5,0.25,97,155.0
3853,B3,397.5,229/500,97,155.0
3854,G#4,397.5,229/500,97,155.0
3855,E-4,397.542,0.25,111,155.0
3856,B3,397.542,229/500,111,155.0
3857,G#4,397.542,229/500,111,155.0
3858,B1,397.542,0.25,42,155.0
3859,E-3,397.542,0.25,42,155.0
3860,A4,397.542,0.25,42,155.0
3861,G#5,397.542,0.25,42,155.0
3862,E-3,398.0,729/500,110,155.0
3863,B4,398.0,229/500,97,155.0
3864,F4,398.042,979/500,111,155.0
3865,B3,398.042,729/500,111,155.0
3866,E-4,398.042,729/500,111,155.0
3867,G#4,398.042,729/500,111,155.0
3868,B1,398.042,0.25,76,155.0
3869,C#2,398.042,0.25,76,155.0
3870,B-2,398.042,0.25,76,155.0
3871,B3,398.042,0.25,76,155.0
3872,A4,398.042,0.25,76,155.0
3873,A5,398.042,0.25,76,155.0
3874,E-5,398.5,0.25,97,155.0
3875,F5,399.0,229/500,97,155.0
3876,C#2,399.042,0.25,121,155.0
3877,B3,399.042,0.25,121,155.0
3878,E-1,399.5,0.25,110,155.0
3879,G5,399.5,0.25,97,155.0
3880,E-3,399.542,0.25,46,155.0
3881,G#5,399.542,0.25,46,155.0
3882,E-1,400.0,729/500,110,155.0
3883,G4,400.0,0.25,97,155.0
3884,B-3,400.0,229/500,97,155.0
3885,D4,400.0,229/500,97,155.0
3886,B-3,400.042,1729/500,111,155.0
3887,D4,400.042,1729/500,111,155.0
3888,F4,400.042,1729/500,111,155.0
3889,G4,400.042,1729/500,111,155.0
3890,B-4,400.042,1729/500,111,155.0
3891,B1,400.042,0.25,63,155.0
3892,B3,400.042,0.25,63,155.0
3893,A4,400.042,0.25,63,155.0
3894,A5,400.042,0.25,63,155.0
3895,D4,401.0,229/500,97,155.0
3896,B-4,401.0,229/500,97,155.0
3897,C#2,401.042,0.25,110,155.0
3898,B3,401.042,0.25,110,155.0
3899,E-1,401.5,229/500,110,155.0
3900,B1,401.542,0.25,47,155.0
3901,E-3,401.542,0.25,47,155.0
3902,A4,401.542,0.25,47,155.0
3903,G#5,401.542,0.25,47,155.0
3904,B-1,402.0,729/500,110,155.0
3905,B1,402.042,0.25,80,155.0
3906,B3,402.042,0.25,80,155.0
3907,A4,402.042,0.25,80,155.0
3908,A5,402.042,0.25,80,155.0
3909,D4,402.5,0.25,97,155.0
3910,D5,402.5,0.25,97,155.0
3911,G4,402.5,229/500,97,155.0
3912,B-4,402.5,229/500,97,155.0
3913,B3,403.042,0.25,100,155.0
3914,B-1,403.5,229/500,110,155.0
3915,E-4,403.5,229/500,97,155.0
3916,G#4,403.5,0.5,97,155.0
3917,G#5,403.5,0.25,97,155.0
3918,B3,403.5,0.5,97,155.0
3919,F4,403.5,0.5,97,155.0
3920,B3,403.542,229/500,111,155.0
3921,E-4,403.542,229/500,111,155.0
3922,F4,403.542,229/500,111,155.0
3923,G#4,403.542,229/500,111,155.0
3924,C#2,403.542,0.25,71,155.0
3925,E-3,403.542,0.25,71,155.0
3926,G#5,403.542,0.25,71,155.0
3927,E-2,404.0,729/500,110,155.0
3928,G#4,404.0,229/500,97,155.0
3929,B3,404.0,479/500,97,155.0
3930,F4,404.0,479/500,97,155.0
3931,B3,404.0,3.5,111,155.0
3932,E-4,404.0,3.5,111,155.0
3933,F4,404.0,3.5,111,155.0
3934,G#4,404.0,3.5,111,155.0
3935,B1,404.042,0.25,60,155.0
3936,B3,404.042,0.25,60,155.0
3937,A4,404.042,0.25,60,155.0
3938,A5,404.042,0.25,60,155.0
3939,C#2,404.542,0.25,125,155.0
3940,B3,405.042,0.25,97,155.0
3941,E-2,405.5,229/500,110,155.0
3942,B1,405.542,0.25,42,155.0
3943,E-3,405.542,0.25,42,155.0
3944,A4,405.542,0.25,42,155.0
3945,G#5,405.542,0.25,42,155.0
3946,B-1,406.0,479/500,110,155.0
3947,B1,406.042,0.25,76,155.0
3948,C#2,406.042,0.25,76,155.0
3949,B-2,406.042,0.25,76,155.0
3950,B3,406.042,0.25,76,155.0
3951,A4,406.042,0.25,76,155.0
3952,A5,406.042,0.25,76,155.0
3953,G#3,406.5,0.25,97,155.0
3954,B3,406.5,229/500,97,155.0
3955,E-4,406.5,229/500,97,155.0
3956,F4,406.5,229/500,97,155.0
3957,E-2,407.0,229/500,110,155.0
3958,F4,407.0,0.25,97,155.0
3959,C#2,407.042,0.25,121,155.0
3960,B3,407.042,0.25,121,155.0
3961,B-1,407.5,229/500,110,155.0
3962,G#5,407.5,229/500,97,155.0
3963,E-3,407.542,0.25,46,155.0
3964,G#5,407.542,0.25,46,155.0
3965,D2,408.0,729/500,110,155.0
3966,A3,408.0,0.25,97,155.0
3967,D4,408.0,0.25,97,155.0
3968,G5,408.0,0.25,97,155.0
3969,C4,408.0,229/500,97,155.0
3970,E4,408.0,229/500,97,155.0
3971,E4,408.042,479/500,111,155.0
3972,G3,408.042,1729/500,111,155.0
3973,A3,408.042,1729/500,111,155.0
3974,C4,408.042,1729/500,111,155.0
3975,B1,408.042,0.25,63,155.0
3976,B3,408.042,0.25,63,155.0
3977,A4,408.042,0.25,63,155.0
3978,A5,408.042,0.25,63,155.0
3979,E4,409.042,479/500,111,155.0
3980,C#2,409.042,0.25,110,155.0
3981,B3,409.042,0.25,110,155.0
3982,D2,409.5,229/500,110,155.0
3983,A3,409.5,0.25,97,155.0
3984,B1,409.542,0.25,47,155.0
3985,E-3,409.542,0.25,47,155.0
3986,A4,409.542,0.25,47,155.0
3987,G#5,409.542,0.25,47,155.0
3988,F#1,410.0,729/500,110,155.0
3989,E4,410.042,729/500,111,155.0
3990,B1,410.042,0.25,80,155.0
3991,B3,410.042,0.25,80,155.0
3992,A4,410.042,0.25,80,155.0
3993,A5,410.042,0.25,80,155.0
3994,C4,410.5,0.25,97,155.0
3995,D4,410.5,0.25,97,155.0
3996,E4,410.5,0.25,97,155.0
3997,A4,410.5,0.25,97,155.0
3998,B3,411.042,0.25,100,155.0
3999,F#1,411.5,229/500,110,155.0
4000,G#3,411.542,229/500,111,155.0
4001,B3,411.542,229/500,111,155.0
4002,C#4,411.542,229/500,111,155.0
4003,C#2,411.542,0.25,71,155.0
4004,E-3,411.542,0.25,71,155.0
4005,G#5,411.542,0.25,71,155.0
4006,G1,412.0,729/500,110,155.0
4007,G#3,412.0,1.0,111,155.0
4008,B3,412.0,1.0,111,155.0
4009,C#4,412.0,1.0,111,155.0
4010,B1,412.042,0.25,60,155.0
4011,B3,412.042,0.25,60,155.0
4012,A4,412.042,0.25,60,155.0
4013,A5,412.042,0.25,60,155.0
4014,B3,412.5,0.125,111,155.0
4015,D4,412.5,0.125,111,155.0
4016,F4,412.5,0.125,111,155.0
4017,B-4,412.5,0.125,111,155.0
4018,C#2,412.542,0.25,125,155.0
4019,B3,413.042,0.25,97,155.0
4020,G#3,413.042,729/500,111,155.0
4021,B3,413.042,729/500,111,155.0
4022,D4,413.042,729/500,111,155.0
4023,F4,413.042,729/500,111,155.0
4024,G1,413.5,229/500,110,155.0
4025,B1,413.542,0.25,42,155.0
4026,E-3,413.542,0.25,42,155.0
4027,A4,413.542,0.25,42,155.0
4028,G#5,413.542,0.25,42,155.0
4029,G1,414.0,479/500,110,155.0
4030,B-4,414.0,0.25,97,155.0
4031,B1,414.042,0.25,76,155.0
4032,C#2,414.042,0.25,76,155.0
4033,B-2,414.042,0.25,76,155.0
4034,B3,414.042,0.25,76,155.0
4035,A4,414.042,0.25,76,155.0
4036,A5,414.042,0.25,76,155.0
4037,D4,414.5,229/500,97,155.0
4038,B3,414.5,0.25,97,155.0
4039,F4,414.5,0.25,97,155.0
4040,G#4,414.5,0.25,97,155.0
4041,D2,414.542,0.25,107,155.0
4042,G#3,414.542,729/500,111,155.0
4043,B3,414.542,729/500,111,155.0
4044,F4,414.542,729/500,111,155.0
4045,G#4,414.542,729/500,111,155.0
4046,B1,415.0,229/500,110,155.0
4047,C#2,415.042,0.25,116,155.0
4048,C3,415.042,0.25,116,155.0
4049,B3,415.042,0.25,116,155.0
4050,G1,415.5,229/500,110,155.0
4051,A2,415.542,0.25,66,155.0
4052,E-3,415.542,0.25,66,155.0
4053,G#5,415.542,0.25,66,155.0
4054,C2,416.0,729/500,110,155.0
4055,C3,416.0,0.25,97,155.0
4056,B-3,416.0,0.25,97,155.0
4057,E-4,416.0,0.25,97,155.0
4058,G4,416.0,0.25,97,155.0
4059,B-3,416.042,1229/500,111,155.0
4060,C4,416.042,1979/500,111,155.0
4061,E-4,416.042,1979/500,111,155.0
4062,G4,416.042,1979/500,111,155.0
4063,B1,416.042,0.25,71,155.0
4064,A3,416.042,0.25,71,155.0
4065,B3,416.042,0.25,71,155.0
4066,A4,416.042,0.25,71,155.0
4067,A5,416.042,0.25,71,155.0
4068,C#2,417.042,0.25,110,155.0
4069,B3,417.042,0.25,110,155.0
4070,G1,417.5,229/500,110,155.0
4071,B1,417.542,0.25,47,155.0
4072,E-3,417.542,0.25,47,155.0
4073,A4,417.542,0.25,47,155.0
4074,G#5,417.542,0.25,47,155.0
4075,C2,418.0,229/500,110,155.0
4076,B1,418.042,0.25,80,155.0
4077,B3,418.042,0.25,80,155.0
4078,A4,418.042,0.25,80,155.0
4079,A5,418.042,0.25,80,155.0
4080,B-1,418.5,729/500,110,155.0
4081,E-4,418.5,0.125,111,155.0
4082,G4,418.5,0.125,111,155.0
4083,B-4,418.5,0.125,111,155.0
4084,F5,418.5,0.125,111,155.0
4085,B-5,418.5,0.125,111,155.0
4086,B-3,418.542,479/500,111,155.0
4087,B3,419.042,0.25,100,155.0
4088,G#3,419.5,229/500,97,155.0
4089,C4,419.5,0.25,97,155.0
4090,B-3,419.5,0.5,97,155.0
4091,C#4,419.5,0.5,97,155.0
4092,F4,419.5,0.5,97,155.0
4093,G#3,419.542,229/500,111,155.0
4094,C#4,419.542,229/500,111,155.0
4095,F4,419.542,229/500,111,155.0
4096,C#2,419.542,0.25,71,155.0
4097,E-3,419.542,0.25,71,155.0
4098,G#5,419.542,0.25,71,155.0
4099,B-1,420.0,729/500,110,155.0
4100,B-3,420.0,729/500,97,155.0
4101,C#4,420.0,729/500,97,155.0
4102,F4,420.0,729/500,97,155.0
4103,G#3,420.0,1.5,111,155.0
4104,C#4,420.0,1.5,111,155.0
4105,F4,420.0,1.5,111,155.0
4106,B1,420.042,0.25,60,155.0
4107,B3,420.042,0.25,60,155.0
4108,A4,420.042,0.25,60,155.0
4109,A5,420.042,0.25,60,155.0
4110,C#2,420.542,0.25,125,155.0
4111,B3,421.042,0.25,97,155.0
4112,B-1,421.5,229/500,110,155.0
4113,B1,421.542,0.25,42,155.0
4114,E-3,421.542,0.25,42,155.0
4115,A4,421.542,0.25,42,155.0
4116,G#5,421.542,0.25,42,155.0
4117,G3,422.0,0.25,97,155.0
4118,C4,422.0,0.25,97,155.0
4119,B-3,422.0,229/500,97,155.0
4120,C#4,422.0,229/500,97,155.0
4121,F4,422.0,229/500,97,155.0
4122,G3,422.042,979/500,111,155.0
4123,C4,422.042,979/500,111,155.0
4124,C#4,422.042,979/500,111,155.0
4125,F4,422.042,979/500,111,155.0
4126,B1,422.042,0.25,76,155.0
4127,C#2,422.042,0.25,76,155.0
4128,B-2,422.042,0.25,76,155.0
4129,B3,422.042,0.25,76,155.0
4130,A4,422.042,0.25,76,155.0
4131,A5,422.042,0.25,76,155.0
4132,B-1,422.5,229/500,110,155.0
4133,E-1,423.0,479/500,110,155.0
4134,C#2,423.042,0.25,121,155.0
4135,B3,423.042,0.25,121,155.0
4136,E-3,423.542,0.25,46,155.0
4137,G#5,423.542,0.25,46,155.0
4138,G#1,424.0,479/500,110,155.0
4139,G3,424.0,229/500,97,155.0
4140,B-3,424.0,0.25,97,155.0
4141,C4,424.0,0.25,97,155.0
4142,E-4,424.0,0.25,97,155.0
4143,G3,424.042,1729/500,111,155.0
4144,B-3,424.042,1729/500,111,155.0
4145,C4,424.042,1729/500,111,155.0
4146,E-4,424.042,1729/500,111,155.0
4147,B1,424.042,0.25,63,155.0
4148,B3,424.042,0.25,63,155.0
4149,A4,424.042,0.25,63,155.0
4150,A5,424.042,0.25,63,155.0
4151,C#2,425.042,0.25,110,155.0
4152,B3,425.042,0.25,110,155.0
4153,G#1,425.5,0.25,110,155.0
4154,B1,425.542,0.25,47,155.0
4155,E-3,425.542,0.25,47,155.0
4156,A4,425.542,0.25,47,155.0
4157,G#5,425.542,0.25,47,155.0
4158,G#1,426.0,729/500,110,155.0
4159,B1,426.042,0.25,80,155.0
4160,B3,426.042,0.25,80,155.0
4161,A4,426.042,0.25,80,155.0
4162,A5,426.042,0.25,80,155.0
4163,G3,426.5,229/500,97,155.0
4164,C4,426.5,229/500,97,155.0
4165,B-3,426.5,0.25,97,155.0
4166,E-4,426.5,0.25,97,155.0
4167,B3,427.042,0.25,100,155.0
4168,E-1,427.5,229/500,110,155.0
4169,B3,427.5,0.5,97,155.0
4170,B-4,427.5,0.5,97,155.0
4171,B-5,427.5,0.5,97,155.0
4172,E-4,427.5,0.5,97,155.0
4173,G4,427.5,0.5,97,155.0
4174,B3,427.542,229/500,111,155.0
4175,E-4,427.542,229/500,111,155.0
4176,F4,427.542,229/500,111,155.0
4177,C#2,427.542,0.25,71,155.0
4178,E-3,427.542,0.25,71,155.0
4179,G#5,427.542,0.25,71,155.0
4180,G4,427.792,26/125,111,155.0
4181,B-4,427.917,83/1000,111,155.0
4182,G1,428.0,729/500,110,155.0
4183,B3,428.0,2.0,111,155.0
4184,G4,428.0,2.75,111,155.0
4185,B-4,428.0,2.875,111,155.0
4186,B3,428.0,229/500,97,155.0
4187,B-4,428.0,229/500,97,155.0
4188,B-5,428.0,229/500,97,155.0
4189,E-4,428.0,479/500,97,155.0
4190,G4,428.0,479/500,97,155.0
4191,E-4,428.0,2.5,111,155.0
4192,F4,428.0,2.5,111,155.0
4193,B1,428.042,0.25,60,155.0
4194,B3,428.042,0.25,60,155.0
4195,A4,428.042,0.25,60,155.0
4196,A5,428.042,0.25,60,155.0
4197,C#2,428.542,0.25,125,155.0
4198,B3,429.042,0.25,97,155.0
4199,G2,429.5,0.25,110,155.0
4200,B1,429.542,0.25,42,155.0
4201,E-3,429.542,0.25,42,155.0
4202,A4,429.542,0.25,42,155.0
4203,G#5,429.542,0.25,42,155.0
4204,B-4,430.0,667/1000,111,155.0
4205,G2,430.0,229/500,110,155.0
4206,B1,430.042,0.25,76,155.0
4207,C#2,430.042,0.25,76,155.0
4208,B-2,430.042,0.25,76,155.0
4209,B3,430.042,0.25,76,155.0
4210,A4,430.042,0.25,76,155.0
4211,A5,430.042,0.25,76,155.0
4212,G#4,430.5,417/1000,86,155.0
4213,F2,430.5,229/500,110,155.0
4214,B3,430.5,229/500,97,155.0
4215,E-4,430.5,229/500,97,155.0
4216,G4,430.5,229/500,97,155.0
4217,G#4,430.5,0.25,97,155.0
4218,G#5,430.5,0.25,97,155.0
4219,G4,430.542,26/125,111,155.0
4220,B3,430.542,229/500,111,155.0
4221,E-4,430.542,229/500,111,155.0
4222,G4,431.0,0.5,96,155.0
4223,E-2,431.0,229/500,110,155.0
4224,B3,431.042,479/500,111,155.0
4225,E-4,431.042,479/500,111,155.0
4226,G4,431.042,479/500,111,155.0
4227,C#2,431.042,0.25,121,155.0
4228,B3,431.042,0.25,121,155.0
4229,F4,431.5,0.5,93,155.0
4230,D2,431.5,229/500,110,155.0
4231,E-3,431.542,0.25,46,155.0
4232,G#5,431.542,0.25,46,155.0
4233,E-4,432.0,224/125,72,155.0
4234,C2,432.0,729/500,110,155.0
4235,B-3,432.0,0.25,101,155.0
4236,D4,432.0,229/500,97,155.0
4237,E-4,432.0,229/500,97,155.0
4238,G4,432.0,229/500,97,155.0
4239,B-3,432.042,1729/500,111,155.0
4240,G4,432.042,1.25,111,155.0
4241,C4,432.042,1479/500,111,155.0
4242,E-4,432.042,1479/500,111,155.0
4243,B1,432.042,0.25,63,155.0
4244,B3,432.042,0.25,63,155.0
4245,A4,432.042,0.25,63,155.0
4246,A5,432.042,0.25,63,155.0
4247,C#2,433.042,0.25,110,155.0
4248,B3,433.042,0.25,110,155.0
4249,C2,433.5,229/500,110,155.0
4250,B1,433.542,0.25,47,155.0
4251,E-3,433.542,0.25,47,155.0
4252,A4,433.542,0.25,47,155.0
4253,G#5,433.542,0.25,47,155.0
4254,G2,434.0,229/500,110,155.0
4255,B1,434.042,0.25,80,155.0
4256,B3,434.042,0.25,80,155.0
4257,A4,434.042,0.25,80,155.0
4258,A5,434.042,0.25,80,155.0
4259,C2,434.5,229/500,110,155.0
4260,F#2,435.0,229/500,110,155.0
4261,B3,435.042,0.25,100,155.0
4262,F2,435.5,0.5,110,155.0
4263,A3,435.5,0.5,101,155.0
4264,D4,435.5,0.5,97,155.0
4265,E-4,435.5,0.5,97,155.0
4266,G4,435.5,0.5,97,155.0
4267,G3,435.542,229/500,111,155.0
4268,A3,435.542,229/500,111,155.0
4269,C4,435.542,229/500,111,155.0
4270,E-4,435.542,229/500,111,155.0
4271,G4,435.542,229/500,111,155.0
4272,C#2,435.542,0.25,71,155.0
4273,E-3,435.542,0.25,71,155.0
4274,G#5,435.542,0.25,71,155.0
4275,F2,436.0,729/500,110,155.0
4276,A3,436.0,1229/500,101,155.0
4277,D4,436.0,0.375,97,155.0
4278,E-4,436.0,0.375,97,155.0
4279,G4,436.0,0.375,97,155.0
4280,A3,436.0,3.5,111,155.0
4281,C4,436.0,3.5,111,155.0
4282,E-4,436.0,3.0,111,155.0
4283,G4,436.0,3.0,111,155.0
4284,B1,436.042,0.25,60,155.0
4285,B3,436.042,0.25,60,155.0
4286,A4,436.042,0.25,60,155.0
4287,A5,436.042,0.25,60,155.0
4288,C#2,436.542,0.25,125,155.0
4289,B3,437.042,0.25,97,155.0
4290,C3,437.5,479/500,110,155.0
4291,B1,437.542,0.25,42,155.0
4292,E-3,437.542,0.25,42,155.0
4293,A4,437.542,0.25,42,155.0
4294,G#5,437.542,0.25,42,155.0
4295,C2,438.0,729/500,110,155.0
4296,B1,438.042,0.25,76,155.0
4297,C#2,438.042,0.25,76,155.0
4298,B-2,438.042,0.25,76,155.0
4299,B3,438.042,0.25,76,155.0
4300,A4,438.042,0.25,76,155.0
4301,A5,438.042,0.25,76,155.0
4302,A3,438.5,0.25,98,155.0
4303,D4,438.5,0.25,98,155.0
4304,E-4,438.5,0.25,98,155.0
4305,G4,438.5,0.25,98,155.0
4306,C#2,439.042,0.25,121,155.0
4307,B3,439.042,0.25,121,155.0
4308,F2,439.5,229/500,110,155.0
4309,E-3,439.542,0.25,46,155.0
4310,G#5,439.542,0.25,46,155.0
4311,B-1,440.0,729/500,110,155.0
4312,B-2,440.0,0.25,101,155.0
4313,G#3,440.0,0.25,101,155.0
4314,C4,440.0,0.25,101,155.0
4315,E-4,440.0,0.25,101,155.0
4316,F4,440.0,0.25,101,155.0
4317,B-3,440.042,1979/500,111,155.0
4318,G#3,440.042,1979/500,111,155.0
4319,C4,440.042,1979/500,111,155.0
4320,E-4,440.042,1979/500,111,155.0
4321,B1,440.042,0.25,63,155.0
4322,B3,440.042,0.25,63,155.0
4323,A4,440.042,0.25,63,155.0
4324,A5,440.042,0.25,63,155.0
4325,C#2,441.042,0.25,110,155.0
4326,B3,441.042,0.25,110,155.0
4327,B-1,441.5,229/500,110,155.0
4328,B1,441.542,0.25,47,155.0
4329,E-3,441.542,0.25,47,155.0
4330,A4,441.542,0.25,47,155.0
4331,G#5,441.542,0.25,47,155.0
4332,F1,442.0,729/500,110,155.0
4333,B1,442.042,0.25,80,155.0
4334,B3,442.042,0.25,80,155.0
4335,A4,442.042,0.25,80,155.0
4336,A5,442.042,0.25,80,155.0
4337,C5,442.5,1083/1000,115,155.0
4338,G#3,442.5,229/500,101,155.0
4339,C4,442.5,0.125,101,155.0
4340,E-4,442.5,0.125,101,155.0
4341,G4,442.5,0.125,101,155.0
4342,D2,443.042,0.25,104,155.0
4343,B3,443.042,0.25,104,155.0
4344,D2,443.167,0.25,68,155.0
4345,D2,443.292,0.25,30,155.0
4346,D2,443.417,0.25,30,155.0
4347,B-4,443.5,0.5,78,155.0
4348,G1,443.5,229/500,110,155.0
4349,G#3,443.5,0.5,101,155.0
4350,C4,443.5,0.5,101,155.0
4351,E-4,443.5,0.5,101,155.0
4352,G4,443.5,0.5,101,155.0
4353,C#2,443.542,0.25,61,155.0
4354,D2,443.542,0.25,61,155.0
4355,E-3,443.542,0.25,61,155.0
4356,G#5,443.542,0.25,61,155.0
4357,D2,443.667,0.25,30,155.0
4358,D2,443.792,26/125,68,155.0
4359,B-4,444.0,1.375,78,155.0
4360,B-1,444.0,729/500,110,155.0
4361,G#3,444.0,479/500,101,155.0
4362,B-3,444.0,1.0,111,155.0
4363,D2,444.0,21/500,68,155.0
4364,C4,444.0,229/500,101,155.0
4365,E-4,444.0,229/500,101,155.0
4366,G4,444.0,229/500,101,155.0
4367,B1,444.042,0.25,70,155.0
4368,D2,444.042,0.25,70,155.0
4369,B3,444.042,0.25,70,155.0
4370,A4,444.042,0.25,70,155.0
4371,A5,444.042,0.25,70,155.0
4372,E-4,444.542,229/500,111,155.0
4373,C#2,444.542,0.25,116,155.0
4374,B2,444.542,0.25,116,155.0
4375,D4,445.042,729/500,111,155.0
4376,B3,445.042,0.25,97,155.0
4377,B-1,445.5,229/500,110,155.0
4378,B1,445.542,0.25,55,155.0
4379,C3,445.542,0.25,55,155.0
4380,E-3,445.542,0.25,55,155.0
4381,A4,445.542,0.25,55,155.0
4382,G#5,445.542,0.25,55,155.0
4383,B1,446.0,729/500,110,155.0
4384,D4,446.042,229/500,111,155.0
4385,B1,446.042,0.25,76,155.0
4386,C#2,446.042,0.25,76,155.0
4387,B-2,446.042,0.25,76,155.0
4388,B3,446.042,0.25,76,155.0
4389,A4,446.042,0.25,76,155.0
4390,A5,446.042,0.25,76,155.0
4391,F5,446.5,0.25,99,155.0
4392,B3,446.5,229/500,118,155.0
4393,D4,446.5,229/500,118,155.0
4394,F4,446.5,229/500,118,155.0
4395,D4,446.542,0.5,111,155.0
4396,D3,446.542,0.25,107,155.0
4397,G#3,446.542,729/500,111,155.0
4398,B3,446.542,729/500,111,155.0
4399,F4,446.542,729/500,111,155.0
4400,C#2,447.042,0.25,116,155.0
4401,D3,447.042,0.25,116,155.0
4402,B3,447.042,0.25,116,155.0
4403,B1,447.5,229/500,110,155.0
4404,B1,447.542,0.25,66,155.0
4405,E-3,447.542,0.25,66,155.0
4406,G#5,447.542,0.25,66,155.0
4407,C2,448.0,479/500,110,155.0
4408,B-3,448.0,229/500,99,155.0
4409,G4,448.0,229/500,99,155.0
4410,D4,448.0,0.25,99,155.0
4411,E-4,448.0,0.25,99,155.0
4412,G5,448.0,0.25,99,155.0
4413,B-3,448.042,1229/500,111,155.0
4414,C4,448.042,1979/500,111,155.0
4415,E-4,448.042,1979/500,111,155.0
4416,G4,448.042,1979/500,111,155.0
4417,B1,448.042,0.25,72,155.0
4418,A3,448.042,0.25,72,155.0
4419,B3,448.042,0.25,72,155.0
4420,A4,448.042,0.25,72,155.0
4421,A5,448.042,0.25,72,155.0
4422,C#2,449.042,0.25,110,155.0
4423,B3,449.042,0.25,110,155.0
4424,C2,449.5,229/500,110,155.0
4425,B1,449.542,0.25,47,155.0
4426,E-3,449.542,0.25,47,155.0
4427,A4,449.542,0.25,47,155.0
4428,G#5,449.542,0.25,47,155.0
4429,G2,450.0,479/500,110,155.0
4430,B1,450.042,0.25,80,155.0
4431,B3,450.042,0.25,80,155.0
4432,A4,450.042,0.25,80,155.0
4433,A5,450.042,0.25,80,155.0
4434,E-2,450.5,229/500,110,155.0
4435,G5,450.5,229/500,99,155.0
4436,B-3,450.5,0.25,99,155.0
4437,D4,450.5,0.25,99,155.0
4438,E-4,450.5,0.25,99,155.0
4439,G4,450.5,0.25,99,155.0
4440,B-3,450.542,479/500,111,155.0
4441,C2,451.0,229/500,110,155.0
4442,B3,451.042,0.25,100,155.0
4443,B-1,451.5,0.5,110,155.0
4444,F5,451.5,0.5,99,155.0
4445,B-3,451.5,0.5,99,155.0
4446,C#4,451.5,0.5,99,155.0
4447,F4,451.5,0.5,99,155.0
4448,G#3,451.542,229/500,111,155.0
4449,C#4,451.542,229/500,111,155.0
4450,F4,451.542,229/500,111,155.0
4451,C#2,451.542,0.25,71,155.0
4452,E-3,451.542,0.25,71,155.0
4453,G#5,451.542,0.25,71,155.0
4454,B-1,452.0,729/500,110,155.0
4455,F5,452.0,583/1000,99,155.0
4456,B-3,452.0,229/500,99,155.0
4457,C#4,452.0,229/500,99,155.0
4458,F4,452.0,229/500,99,155.0
4459,G#3,452.0,1.5,111,155.0
4460,C#4,452.0,1.5,111,155.0
4461,F4,452.0,1.5,111,155.0
4462,B1,452.042,0.25,60,155.0
4463,B3,452.042,0.25,60,155.0
4464,A4,452.042,0.25,60,155.0
4465,A5,452.042,0.25,60,155.0
4466,C#2,452.542,0.25,125,155.0
4467,B3,453.042,0.25,97,155.0
4468,B-1,453.5,229/500,110,155.0
4469,B1,453.542,0.25,42,155.0
4470,E-3,453.542,0.25,42,155.0
4471,A4,453.542,0.25,42,155.0
4472,G#5,453.542,0.25,42,155.0
4473,E-1,454.0,729/500,110,155.0
4474,B-3,454.0,0.25,99,155.0
4475,C#4,454.0,0.25,99,155.0
4476,F4,454.0,0.25,99,155.0
4477,F5,454.0,0.25,99,155.0
4478,G3,454.042,979/500,111,155.0
4479,C4,454.042,979/500,111,155.0
4480,C#4,454.042,979/500,111,155.0
4481,F4,454.042,979/500,111,155.0
4482,B1,454.042,0.25,76,155.0
4483,C#2,454.042,0.25,76,155.0
4484,B-2,454.042,0.25,76,155.0
4485,B3,454.042,0.25,76,155.0
4486,A4,454.042,0.25,76,155.0
4487,A5,454.042,0.25,76,155.0
4488,C#2,455.042,0.25,121,155.0
4489,B3,455.042,0.25,121,155.0
4490,E-1,455.5,229/500,110,155.0
4491,E-3,455.542,0.25,46,155.0
4492,G#5,455.542,0.25,46,155.0
4493,G#1,456.0,1229/500,110,155.0
4494,C4,456.0,229/500,99,155.0
4495,E-4,456.0,229/500,99,155.0
4496,G4,456.0,0.25,99,155.0
4497,C5,456.0,0.25,99,155.0
4498,E-5,456.0,0.25,99,155.0
4499,G3,456.042,1729/500,111,155.0
4500,B-3,456.042,1729/500,111,155.0
4501,C4,456.042,1729/500,111,155.0
4502,E-4,456.042,1729/500,111,155.0
4503,B1,456.042,0.25,63,155.0
4504,B3,456.042,0.25,63,155.0
4505,A4,456.042,0.25,63,155.0
4506,A5,456.042,0.25,63,155.0
4507,C#2,457.042,0.25,110,155.0
4508,B3,457.042,0.25,110,155.0
4509,B1,457.542,0.25,47,155.0
4510,E-3,457.542,0.25,47,155.0
4511,A4,457.542,0.25,47,155.0
4512,G#5,457.542,0.25,47,155.0
4513,B1,458.042,0.25,80,155.0
4514,B3,458.042,0.25,80,155.0
4515,A4,458.042,0.25,80,155.0
4516,A5,458.042,0.25,80,155.0
4517,E-2,458.5,229/500,110,155.0
4518,G4,458.5,229/500,99,155.0
4519,C4,458.5,0.25,99,155.0
4520,E-4,458.5,0.25,99,155.0
4521,C5,458.5,0.25,99,155.0
4522,E-5,458.5,0.25,99,155.0
4523,G#1,459.0,229/500,110,155.0
4524,B3,459.042,0.25,100,155.0
4525,G1,459.5,0.5,110,155.0
4526,B3,459.5,0.5,99,155.0
4527,B-4,459.5,229/500,99,155.0
4528,E-5,459.5,0.5,99,155.0
4529,G5,459.5,0.5,99,155.0
4530,B-5,459.5,0.5,99,155.0
4531,B3,459.542,229/500,111,155.0
4532,E-4,459.542,229/500,111,155.0
4533,F4,459.542,229/500,111,155.0
4534,G4,459.542,229/500,111,155.0
4535,B-4,459.542,229/500,111,155.0
4536,C#2,459.542,0.25,71,155.0
4537,E-3,459.542,0.25,71,155.0
4538,G#5,459.542,0.25,71,155.0
4539,G1,460.0,479/500,110,155.0
4540,B3,460.0,479/500,99,155.0
4541,E-5,460.0,229/500,99,155.0
4542,G5,460.0,229/500,99,155.0
4543,B-5,460.0,229/500,99,155.0
4544,B3,460.0,2.0,111,155.0
4545,E-4,460.0,2.0,111,155.0
4546,F4,460.0,2.0,111,155.0
4547,G4,460.0,2.0,111,155.0
4548,B-4,460.0,2.0,111,155.0
4549,B1,460.042,0.25,60,155.0
4550,B3,460.042,0.25,60,155.0
4551,A4,460.042,0.25,60,155.0
4552,A5,460.042,0.25,60,155.0
4553,C#2,460.542,0.25,125,155.0
4554,B3,461.042,0.25,97,155.0
4555,G1,461.5,0.25,110,155.0
4556,B1,461.542,0.25,42,155.0
4557,E-3,461.542,0.25,42,155.0
4558,A4,461.542,0.25,42,155.0
4559,G#5,461.542,0.25,42,155.0
4560,G1,462.0,729/500,110,155.0
4561,B3,462.0,0.25,99,155.0
4562,G#4,462.0,0.25,99,155.0
4563,B4,462.0,229/500,99,155.0
4564,E-5,462.0,229/500,99,155.0
4565,G#5,462.0,229/500,99,155.0
4566,G#3,462.042,979/500,111,155.0
4567,B3,462.042,979/500,111,155.0
4568,D4,462.042,979/500,111,155.0
4569,F4,462.042,979/500,111,155.0
4570,G#4,462.042,979/500,111,155.0
4571,B1,462.042,0.25,76,155.0
4572,C#2,462.042,0.25,76,155.0
4573,B-2,462.042,0.25,76,155.0
4574,B3,462.042,0.25,76,155.0
4575,A4,462.042,0.25,76,155.0
4576,A5,462.042,0.25,76,155.0
4577,A1,462.5,229/500,110,155.0
4578,B-1,463.0,229/500,110,155.0
4579,C#2,463.042,0.25,121,155.0
4580,B3,463.042,0.25,121,155.0
4581,B1,463.5,229/500,110,155.0
4582,E-3,463.542,0.25,46,155.0
4583,G#5,463.542,0.25,46,155.0
4584,C2,464.0,729/500,110,155.0
4585,B-3,464.0,229/500,99,155.0
4586,G4,464.0,229/500,99,155.0
4587,D4,464.0,0.25,99,155.0
4588,E-4,464.0,0.25,99,155.0
4589,B-4,464.0,0.25,99,155.0
4590,B-3,464.042,1729/500,111,155.0
4591,C4,464.042,1479/500,111,155.0
4592,E-4,464.042,1479/500,111,155.0
4593,G4,464.042,1479/500,111,155.0
4594,B1,464.042,0.25,75,155.0
4595,A3,464.042,0.25,75,155.0
4596,B3,464.042,0.25,75,155.0
4597,B3,464.042,0.25,75,155.0
4598,A4,464.042,0.25,75,155.0
4599,A5,464.042,0.25,75,155.0
4600,B3,464.542,0.25,49,155.0
4601,C4,465.0,667/1000,113,155.0
4602,C#2,465.042,0.25,116,155.0
4603,B3,465.042,0.25,116,155.0
4604,B3,465.042,0.25,116,155.0
4605,D4,465.5,271/500,109,155.0
4606,C2,465.5,229/500,110,155.0
4607,B1,465.542,0.25,45,155.0
4608,E-3,465.542,0.25,45,155.0
4609,B3,465.542,0.25,45,155.0
4610,A4,465.542,0.25,45,155.0
4611,G#5,465.542,0.25,45,155.0
4612,E-4,466.0,583/1000,86,155.0
4613,C2,466.0,729/500,110,155.0
4614,B1,466.042,0.25,88,155.0
4615,B3,466.042,0.25,88,155.0
4616,B3,466.042,0.25,88,155.0
4617,A4,466.042,0.25,88,155.0
4618,A5,466.042,0.25,88,155.0
4619,D4,466.5,1.5,96,155.0
4620,E-4,466.5,0.25,99,155.0
4621,B-3,466.5,229/500,99,155.0
4622,D4,466.5,229/500,99,155.0
4623,G4,466.5,229/500,99,155.0
4624,B-4,466.5,229/500,99,155.0
4625,B3,466.542,0.25,46,155.0
4626,B3,467.042,0.25,109,155.0
4627,B3,467.042,0.25,109,155.0
4628,C2,467.5,229/500,110,155.0
4629,D4,467.5,0.5,99,155.0
4630,A3,467.5,0.5,99,155.0
4631,E-4,467.5,0.5,99,155.0
4632,G4,467.5,0.5,99,155.0
4633,A4,467.5,0.5,99,155.0
4634,G3,467.542,229/500,111,155.0
4635,A3,467.542,229/500,111,155.0
4636,C4,467.542,229/500,111,155.0
4637,E-4,467.542,229/500,111,155.0
4638,G4,467.542,229/500,111,155.0
4639,C#2,467.542,0.25,72,155.0
4640,E-3,467.542,0.25,72,155.0
4641,A3,467.542,0.25,72,155.0
4642,B3,467.542,0.25,72,155.0
4643,G#5,467.542,0.25,72,155.0
4644,D4,468.0,0.625,96,155.0
4645,F2,468.0,224/125,110,155.0
4646,D4,468.0,479/500,99,155.0
4647,A3,468.0,979/500,99,155.0
4648,E-4,468.0,979/500,99,155.0
4649,G4,468.0,979/500,99,155.0
4650,A4,468.0,979/500,99,155.0
4651,A3,468.0,1729/500,111,155.0
4652,C4,468.0,1729/500,111,155.0
4653,E-4,468.0,1479/500,111,155.0
4654,G4,468.0,1479/500,111,155.0
4655,B1,468.042,0.25,72,155.0
4656,B3,468.042,0.25,72,155.0
4657,B3,468.042,0.25,72,155.0
4658,A4,468.042,0.25,72,155.0
4659,A5,468.042,0.25,72,155.0
4660,C#2,468.542,0.25,89,155.0
4661,B3,468.542,0.25,89,155.0
4662,B3,469.042,0.25,110,155.0
4663,B3,469.042,0.25,110,155.0
4664,F1,469.5,229/500,110,155.0
4665,B1,469.542,0.25,46,155.0
4666,E-3,469.542,0.25,46,155.0
4667,B3,469.542,0.25,46,155.0
4668,A4,469.542,0.25,46,155.0
4669,G#5,469.542,0.25,46,155.0
4670,F1,470.0,979/500,110,155.0
4671,B1,470.042,0.25,82,155.0
4672,C#2,470.042,0.25,82,155.0
4673,B-2,470.042,0.25,82,155.0
4674,B3,470.042,0.25,82,155.0
4675,B3,470.042,0.25,82,155.0
4676,A4,470.042,0.25,82,155.0
4677,A5,470.042,0.25,82,155.0
4678,B-4,470.5,229/500,99,155.0
4679,A3,470.5,229/500,99,155.0
4680,E-4,470.5,229/500,99,155.0
4681,G4,470.5,229/500,99,155.0
4682,D4,470.5,0.25,99,155.0
4683,A4,470.5,0.25,99,155.0
4684,B3,470.542,0.25,57,155.0
4685,G5,471.0,229/500,99,155.0
4686,C#2,471.042,0.25,119,155.0
4687,B3,471.042,0.25,119,155.0
4688,B3,471.042,0.25,119,155.0
4689,E-3,471.542,0.25,54,155.0
4690,B3,471.542,0.25,54,155.0
4691,G#5,471.542,0.25,54,155.0
4692,B-1,472.0,729/500,110,155.0
4693,G3,472.0,417/1000,99,155.0
4694,G4,472.0,229/500,99,155.0
4695,C5,472.0,229/500,99,155.0
4696,E-5,472.0,229/500,99,155.0
4697,B-3,472.042,1979/500,111,155.0
4698,G#3,472.042,1979/500,111,155.0
4699,C4,472.042,1979/500,111,155.0
4700,E-4,472.042,1979/500,111,155.0
4701,B1,472.042,0.25,63,155.0
4702,B3,472.042,0.25,63,155.0
4703,A4,472.042,0.25,63,155.0
4704,A5,472.042,0.25,63,155.0
4705,C4,472.083,0.25,99,155.0
4706,E-4,472.167,26/125,99,155.0
4707,F4,472.167,26/125,99,155.0
4708,C#2,473.042,0.25,110,155.0
4709,B3,473.042,0.25,110,155.0
4710,B-2,473.5,229/500,110,155.0
4711,G#3,473.5,229/500,118,155.0
4712,G4,473.5,229/500,118,155.0
4713,G#4,473.5,229/500,118,155.0
4714,E-4,473.5,0.25,118,155.0
4715,F4,473.5,0.25,118,155.0
4716,B1,473.542,0.25,47,155.0
4717,E-3,473.542,0.25,47,155.0
4718,A4,473.542,0.25,47,155.0
4719,G#5,473.542,0.25,47,155.0
4720,B-1,474.0,729/500,110,155.0
4721,B1,474.042,0.25,80,155.0
4722,B3,474.042,0.25,80,155.0
4723,A4,474.042,0.25,80,155.0
4724,A5,474.042,0.25,80,155.0
4725,G#4,474.5,0.25,118,155.0
4726,C4,474.5,229/500,118,155.0
4727,C5,474.5,229/500,118,155.0
4728,E-4,474.5,479/500,118,155.0
4729,G4,474.5,479/500,118,155.0
4730,B3,475.042,0.25,100,155.0
4731,B-2,475.5,0.5,110,155.0
4732,G5,475.5,0.5,118,155.0
4733,G4,475.5,0.25,118,155.0
4734,G#4,475.5,0.25,118,155.0
4735,B-4,475.5,0.5,118,155.0
4736,C5,475.5,0.5,118,155.0
4737,D5,475.5,0.5,118,155.0
4738,C#2,475.542,0.25,71,155.0
4739,E-3,475.542,0.25,71,155.0
4740,G#5,475.542,0.25,71,155.0
4741,B-2,476.0,229/500,110,155.0
4742,G5,476.0,0.375,118,155.0
4743,B-3,476.0,1.0,111,155.0
4744,B-4,476.0,229/500,118,155.0
4745,C5,476.0,229/500,118,155.0
4746,D5,476.0,229/500,118,155.0
4747,B-4,476.042,1021/500,111,155.0
4748,B1,476.042,0.25,60,155.0
4749,B3,476.042,0.25,60,155.0
4750,A4,476.042,0.25,60,155.0
4751,A5,476.042,0.25,60,155.0
4752,B-2,476.5,479/500,110,155.0
4753,E-4,476.5,0.25,118,155.0
4754,G#4,476.5,729/500,118,155.0
4755,B-4,476.5,479/500,118,155.0
4756,E-5,476.5,979/500,118,155.0
4757,E-4,476.542,229/500,111,155.0
4758,C#2,476.542,0.25,125,155.0
4759,D4,477.042,729/500,111,155.0
4760,B3,477.042,0.25,97,155.0
4761,B-1,477.5,229/500,110,155.0
4762,B1,477.542,0.25,56,155.0
4763,D2,477.542,0.25,56,155.0
4764,E-3,477.542,0.25,56,155.0
4765,A4,477.542,0.25,56,155.0
4766,G#5,477.542,0.25,56,155.0
4767,B1,478.0,479/500,110,155.0
4768,D4,478.042,229/500,111,155.0
4769,B1,478.042,0.25,80,155.0
4770,C#2,478.042,0.25,80,155.0
4771,B-2,478.042,0.25,80,155.0
4772,C3,478.042,0.25,80,155.0
4773,B3,478.042,0.25,80,155.0
4774,A4,478.042,0.25,80,155.0
4775,A5,478.042,0.25,80,155.0
4776,G4,478.083,479/500,110,155.0
4777,B2,478.5,729/500,110,155.0
4778,D5,478.5,479/500,118,155.0
4779,D4,478.5,229/500,118,155.0
4780,F4,478.5,229/500,118,155.0
4781,B4,478.5,229/500,118,155.0
4782,D4,478.542,0.5,111,155.0
4783,A2,478.542,0.25,107,155.0
4784,G#3,478.542,729/500,111,155.0
4785,B3,478.542,729/500,111,155.0
4786,F4,478.542,729/500,111,155.0
4787,C#2,479.042,0.25,116,155.0
4788,F2,479.042,0.25,116,155.0
4789,B3,479.042,0.25,116,155.0
4790,F4,479.083,177/250,111,155.0
4791,B1,479.5,229/500,110,155.0
4792,E-3,479.542,0.25,46,155.0
4793,G#5,479.542,0.25,46,155.0
4794,C2,480.0,729/500,110,155.0
4795,B-4,480.042,1729/500,111,155.0
4796,B-3,480.042,1229/500,111,155.0
4797,G4,480.042,1229/500,111,155.0
4798,G4,480.042,1229/500,111,155.0
4799,C4,480.042,1979/500,111,155.0
4800,E-4,480.042,1979/500,111,155.0
4801,B1,480.042,0.25,75,155.0
4802,C#3,480.042,0.25,75,155.0
4803,B3,480.042,0.25,75,155.0
4804,A4,480.042,0.25,75,155.0
4805,A5,480.042,0.25,75,155.0
4806,G3,481.0,0.125,113,155.0
4807,D4,481.0,0.125,113,155.0
4808,D4,481.0,0.125,113,155.0
4809,G4,481.0,0.125,113,155.0
4810,B-4,481.0,0.125,113,155.0
4811,D5,481.0,0.125,113,155.0
4812,B-5,481.0,0.125,113,155.0
4813,C#2,481.042,0.25,110,155.0
4814,B3,481.042,0.25,110,155.0
4815,C2,481.5,229/500,110,155.0
4816,B1,481.542,0.25,47,155.0
4817,E-3,481.542,0.25,47,155.0
4818,A4,481.542,0.25,47,155.0
4819,G#5,481.542,0.25,47,155.0
4820,C2,482.0,729/500,110,155.0
4821,B1,482.042,0.25,80,155.0
4822,B3,482.042,0.25,80,155.0
4823,A4,482.042,0.25,80,155.0
4824,A5,482.042,0.25,80,155.0
4825,G3,482.5,0.125,113,155.0
4826,D4,482.5,0.125,113,155.0
4827,E-4,482.5,0.125,113,155.0
4828,G4,482.5,0.125,113,155.0
4829,B-4,482.5,0.125,113,155.0
4830,E-5,482.5,0.125,113,155.0
4831,B-5,482.5,0.125,113,155.0
4832,B-3,482.542,479/500,111,155.0
4833,B3,483.042,0.25,100,155.0
4834,C2,483.5,229/500,110,155.0
4835,F3,483.5,83/1000,99,155.0
4836,C#4,483.5,83/1000,99,155.0
4837,F4,483.5,83/1000,99,155.0
4838,G#4,483.5,83/1000,99,155.0
4839,F5,483.5,83/1000,99,155.0
4840,G#5,483.5,83/1000,99,155.0
4841,G#3,483.542,229/500,111,155.0
4842,C#4,483.542,229/500,111,155.0
4843,F4,483.542,229/500,111,155.0
4844,G#4,483.542,229/500,111,155.0
4845,C#2,483.542,0.25,71,155.0
4846,E-3,483.542,0.25,71,155.0
4847,G#5,483.542,0.25,71,155.0
4848,B-1,484.0,729/500,110,155.0
4849,G#3,484.0,1.5,111,155.0
4850,C#4,484.0,1.5,111,155.0
4851,F4,484.0,1.5,111,155.0
4852,G#4,484.0,1.5,111,155.0
4853,B1,484.042,0.25,60,155.0
4854,B3,484.042,0.25,60,155.0
4855,A4,484.042,0.25,60,155.0
4856,A5,484.042,0.25,60,155.0
4857,F3,484.5,479/500,113,155.0
4858,C#4,484.5,479/500,113,155.0
4859,F4,484.5,479/500,113,155.0
4860,G#4,484.5,479/500,113,155.0
4861,F5,484.5,479/500,113,155.0
4862,G#5,484.5,479/500,113,155.0
4863,C#2,484.542,0.25,125,155.0
4864,B3,485.042,0.25,97,155.0
4865,B-1,485.5,229/500,110,155.0
4866,B1,485.542,0.25,42,155.0
4867,E-3,485.542,0.25,42,155.0
4868,A4,485.542,0.25,42,155.0
4869,G#5,485.542,0.25,42,155.0
4870,E-1,486.0,729/500,110,155.0
4871,F3,486.0,229/500,102,155.0
4872,C4,486.0,229/500,102,155.0
4873,F4,486.0,229/500,102,155.0
4874,G#4,486.0,229/500,102,155.0
4875,F5,486.0,229/500,102,155.0
4876,G#5,486.0,229/500,102,155.0
4877,G#4,486.042,729/500,111,155.0
4878,G3,486.042,979/500,111,155.0
4879,C4,486.042,979/500,111,155.0
4880,C#4,486.042,979/500,111,155.0
4881,F4,486.042,979/500,111,155.0
4882,B1,486.042,0.25,76,155.0
4883,C#2,486.042,0.25,76,155.0
4884,B-2,486.042,0.25,76,155.0
4885,B3,486.042,0.25,76,155.0
4886,A4,486.042,0.25,76,155.0
4887,A5,486.042,0.25,76,155.0
4888,B-1,487.0,229/500,110,155.0
4889,F3,487.0,229/500,102,155.0
4890,C4,487.0,229/500,102,155.0
4891,F4,487.0,229/500,102,155.0
4892,G4,487.0,229/500,102,155.0
4893,F5,487.0,229/500,102,155.0
4894,G5,487.0,229/500,102,155.0
4895,C#2,487.042,0.25,121,155.0
4896,B3,487.042,0.25,121,155.0
4897,E-1,487.5,229/500,110,155.0
4898,E-3,487.542,0.25,46,155.0
4899,G#5,487.542,0.25,46,155.0
4900,G#1,488.0,729/500,110,155.0
4901,C4,488.0,229/500,102,155.0
4902,E-4,488.0,0.25,102,155.0
4903,G4,488.0,0.25,102,155.0
4904,B-4,488.0,0.25,102,155.0
4905,E-5,488.0,0.25,102,155.0
4906,G3,488.042,1729/500,111,155.0
4907,B-3,488.042,1729/500,111,155.0
4908,C4,488.042,1729/500,111,155.0
4909,E-4,488.042,1729/500,111,155.0
4910,G4,488.042,1479/500,111,155.0
4911,B-4,488.042,1479/500,111,155.0
4912,B1,488.042,0.25,63,155.0
4913,B3,488.042,0.25,63,155.0
4914,A4,488.042,0.25,63,155.0
4915,A5,488.042,0.25,63,155.0
4916,B-4,488.583,833/1000,118,155.0
4917,C#2,489.042,0.25,110,155.0
4918,B3,489.042,0.25,110,155.0
4919,G4,489.5,833/1000,105,155.0
4920,G#1,489.5,229/500,110,155.0
4921,B1,489.542,0.25,47,155.0
4922,E-3,489.542,0.25,47,155.0
4923,A4,489.542,0.25,47,155.0
4924,G#5,489.542,0.25,47,155.0
4925,G#1,490.0,729/500,110,155.0
4926,B1,490.042,0.25,80,155.0
4927,B3,490.042,0.25,80,155.0
4928,A4,490.042,0.25,80,155.0
4929,A5,490.042,0.25,80,155.0
4930,E-4,490.458,1.5,105,155.0
4931,C4,490.5,229/500,102,155.0
4932,E-4,490.5,229/500,102,155.0
4933,G4,490.5,229/500,102,155.0
4934,B-4,490.5,229/500,102,155.0
4935,E-5,490.5,229/500,102,155.0
4936,B3,491.042,0.25,100,155.0
4937,B3,491.5,0.5,73,155.0
4938,G1,491.5,0.25,110,155.0
4939,B3,491.5,0.5,102,155.0
4940,E4,491.5,0.5,102,155.0
4941,B-5,491.5,0.5,102,155.0
4942,G#4,491.5,0.5,102,155.0
4943,G#4,491.5,0.5,102,155.0
4944,B3,491.542,229/500,111,155.0
4945,E-4,491.542,229/500,111,155.0
4946,F4,491.542,229/500,111,155.0
4947,G4,491.542,229/500,111,155.0
4948,B-4,491.542,229/500,111,155.0
4949,C#2,491.542,0.25,71,155.0
4950,E-3,491.542,0.25,71,155.0
4951,G#5,491.542,0.25,71,155.0
4952,B3,492.0,1729/500,73,155.0
4953,G1,492.0,729/500,110,155.0
4954,B3,492.0,479/500,102,155.0
4955,E4,492.0,229/500,102,155.0
4956,B-5,492.0,0.375,102,155.0
4957,G#4,492.0,729/500,102,155.0
4958,G#4,492.0,729/500,102,155.0
4959,B3,492.0,2.0,111,155.0
4960,E-4,492.0,2.0,111,155.0
4961,F4,492.0,2.0,111,155.0
4962,G4,492.0,2.0,111,155.0
4963,B-4,492.0,2.0,111,155.0
4964,B1,492.042,0.25,60,155.0
4965,B3,492.042,0.25,60,155.0
4966,A4,492.042,0.25,60,155.0
4967,A5,492.042,0.25,60,155.0
4968,C#2,492.542,0.25,125,155.0
4969,B3,493.042,0.25,97,155.0
4970,B1,493.5,229/500,110,155.0
4971,B1,493.542,0.25,42,155.0
4972,E-3,493.542,0.25,42,155.0
4973,A4,493.542,0.25,42,155.0
4974,G#5,493.542,0.25,42,155.0
4975,B1,494.0,479/500,110,155.0
4976,E-4,494.0,0.25,102,155.0
4977,B3,494.0,229/500,102,155.0
4978,F4,494.0,229/500,102,155.0
4979,G#4,494.0,229/500,102,155.0
4980,G#5,494.0,229/500,102,155.0
4981,G#3,494.042,979/500,111,155.0
4982,B3,494.042,979/500,111,155.0
4983,D4,494.042,979/500,111,155.0
4984,F4,494.042,979/500,111,155.0
4985,G#4,494.042,979/500,111,155.0
4986,B1,494.042,0.25,76,155.0
4987,C#2,494.042,0.25,76,155.0
4988,B-2,494.042,0.25,76,155.0
4989,B3,494.042,0.25,76,155.0
4990,A4,494.042,0.25,76,155.0
4991,A5,494.042,0.25,76,155.0
4992,E-2,495.0,229/500,110,155.0
4993,B-5,495.0,229/500,102,155.0
4994,B3,495.0,0.25,102,155.0
4995,E-4,495.0,0.25,102,155.0
4996,F4,495.0,0.25,102,155.0
4997,G#4,495.0,0.25,102,155.0
4998,C#2,495.042,0.25,121,155.0
4999,B3,495.042,0.25,121,155.0
5000,B1,495.5,229/500,110,155.0
5001,E-3,495.542,0.25,46,155.0
5002,G#5,495.542,0.25,46,155.0
5003,C2,496.0,729/500,110,155.0
5004,B-3,496.0,229/500,102,155.0
5005,E-4,496.0,229/500,102,155.0
5006,B-4,496.0,0.25,102,155.0
5007,E-5,496.0,0.25,102,155.0
5008,G5,496.0,0.25,102,155.0
5009,B-3,496.042,1729/500,111,155.0
5010,C4,496.042,1479/500,111,155.0
5011,E-4,496.042,1479/500,111,155.0
5012,G4,496.042,1479/500,111,155.0
5013,B1,496.042,0.25,63,155.0
5014,B3,496.042,0.25,63,155.0
5015,A4,496.042,0.25,63,155.0
5016,A5,496.042,0.25,63,155.0
5017,C#2,497.042,0.25,110,155.0
5018,B3,497.042,0.25,110,155.0
5019,C2,497.5,229/500,110,155.0
5020,G3,497.5,229/500,102,155.0
5021,E-4,497.5,229/500,102,155.0
5022,G4,497.5,229/500,102,155.0
5023,B1,497.542,0.25,47,155.0
5024,E-3,497.542,0.25,47,155.0
5025,A4,497.542,0.25,47,155.0
5026,G#5,497.542,0.25,47,155.0
5027,C2,498.0,729/500,110,155.0
5028,B1,498.042,0.25,80,155.0
5029,B3,498.042,0.25,80,155.0
5030,A4,498.042,0.25,80,155.0
5031,A5,498.042,0.25,80,155.0
5032,B-3,498.5,0.25,102,155.0
5033,E-4,498.5,229/500,102,155.0
5034,G4,498.5,229/500,102,155.0
5035,B-4,498.5,229/500,102,155.0
5036,B3,499.042,0.25,100,155.0
5037,F2,499.5,0.5,110,155.0
5038,E-4,499.5,0.5,102,155.0
5039,A3,499.5,0.5,102,155.0
5040,G4,499.5,0.5,102,155.0
5041,A4,499.5,0.5,102,155.0
5042,G3,499.542,229/500,111,155.0
5043,E-4,499.542,229/500,111,155.0
5044,G4,499.542,229/500,111,155.0
5045,A3,499.542,229/500,111,155.0
5046,C4,499.542,229/500,111,155.0
5047,C#2,499.542,0.25,78,155.0
5048,D3,499.542,0.25,78,155.0
5049,E-3,499.542,0.25,78,155.0
5050,G#5,499.542,0.25,78,155.0
5051,F2,500.0,229/500,110,155.0
5052,E-4,500.0,479/500,102,155.0
5053,E-4,500.0,3.0,111,155.0
5054,G4,500.0,2.0,111,155.0
5055,A3,500.0,229/500,102,155.0
5056,G4,500.0,229/500,102,155.0
5057,A4,500.0,229/500,102,155.0
5058,A3,500.0,3.5,111,155.0
5059,C4,500.0,3.5,111,155.0
5060,B1,500.042,0.25,60,155.0
5061,B3,500.042,0.25,60,155.0
5062,A4,500.042,0.25,60,155.0
5063,A5,500.042,0.25,60,155.0
5064,E-2,500.5,229/500,110,155.0
5065,C#2,500.542,0.25,114,155.0
5066,C3,500.542,0.25,114,155.0
5067,C2,501.0,479/500,110,155.0
5068,B3,501.042,0.25,97,155.0
5069,F1,501.5,229/500,110,155.0
5070,G3,501.5,0.25,102,155.0
5071,E-4,501.5,0.25,102,155.0
5072,G4,501.542,229/500,111,155.0
5073,B1,501.542,0.25,54,155.0
5074,B2,501.542,0.25,54,155.0
5075,E-3,501.542,0.25,54,155.0
5076,A4,501.542,0.25,54,155.0
5077,G#5,501.542,0.25,54,155.0
5078,F1,502.0,479/500,110,155.0
5079,E-4,502.0,0.25,102,155.0
5080,A3,502.0,229/500,102,155.0
5081,A4,502.0,229/500,102,155.0
5082,A4,502.042,729/500,111,155.0
5083,B1,502.042,0.25,80,155.0
5084,C#2,502.042,0.25,80,155.0
5085,A2,502.042,0.25,80,155.0
5086,B-2,502.042,0.25,80,155.0
5087,B3,502.042,0.25,80,155.0
5088,A4,502.042,0.25,80,155.0
5089,A5,502.042,0.25,80,155.0
5090,C2,503.0,229/500,110,155.0
5091,C4,503.0,0.25,102,155.0
5092,E-4,503.0,0.25,102,155.0
5093,C#2,503.042,0.25,121,155.0
5094,B3,503.042,0.25,121,155.0
5095,F1,503.5,229/500,110,155.0
5096,C4,503.5,0.25,102,155.0
5097,E-3,503.542,0.25,46,155.0
5098,G#5,503.542,0.25,46,155.0
5099,B-1,504.0,729/500,110,155.0
5100,F3,504.0,0.25,102,155.0
5101,C4,504.0,0.25,102,155.0
5102,E-4,504.0,0.25,102,155.0
5103,E-4,504.0,0.25,102,155.0
5104,F4,504.0,0.25,102,155.0
5105,G#3,504.042,1979/500,111,155.0
5106,B-3,504.042,1979/500,111,155.0
5107,C4,504.042,3.0,111,155.0
5108,E-4,504.042,3.0,111,155.0
5109,B1,504.042,0.25,63,155.0
5110,B3,504.042,0.25,63,155.0
5111,A4,504.042,0.25,63,155.0
5112,A5,504.042,0.25,63,155.0
5113,G#2,504.542,0.25,85,155.0
5114,C#2,505.042,0.25,110,155.0
5115,B3,505.042,0.25,110,155.0
5116,B-1,505.5,229/500,110,155.0
5117,F3,505.5,0.25,102,155.0
5118,E-4,505.5,0.25,102,155.0
5119,F4,505.5,0.25,102,155.0
5120,C4,505.5,229/500,102,155.0
5121,G4,505.5,229/500,102,155.0
5122,G4,505.542,1229/500,111,155.0
5123,C4,505.542,1.5,111,155.0
5124,E-4,505.542,1.5,111,155.0
5125,B1,505.542,0.25,56,155.0
5126,G#2,505.542,0.25,56,155.0
5127,E-3,505.542,0.25,56,155.0
5128,A4,505.542,0.25,56,155.0
5129,G#5,505.542,0.25,56,155.0
5130,F2,506.0,729/500,110,155.0
5131,B1,506.042,0.25,80,155.0
5132,B3,506.042,0.25,80,155.0
5133,A4,506.042,0.25,80,155.0
5134,A5,506.042,0.25,80,155.0
5135,F3,506.5,229/500,102,155.0
5136,C4,506.5,229/500,102,155.0
5137,C5,506.5,229/500,102,155.0
5138,E-4,506.5,0.25,102,155.0
5139,F4,506.5,0.25,102,155.0
5140,G#2,506.542,0.25,115,155.0
5141,B3,507.042,0.25,100,155.0
5142,F2,507.5,229/500,110,155.0
5143,D4,507.5,0.5,102,155.0
5144,F4,507.5,0.5,102,155.0
5145,G#4,507.5,0.5,102,155.0
5146,D5,507.5,0.5,102,155.0
5147,C#2,507.542,0.25,85,155.0
5148,G#2,507.542,0.25,85,155.0
5149,E-3,507.542,0.25,85,155.0
5150,G#5,507.542,0.25,85,155.0
5151,B-2,508.0,229/500,110,155.0
5152,B-3,508.0,1.0,111,155.0
5153,G4,508.0,1.0,111,155.0
5154,D4,508.0,229/500,102,155.0
5155,F4,508.0,229/500,102,155.0
5156,G#4,508.0,229/500,102,155.0
5157,D5,508.0,229/500,102,155.0
5158,B1,508.042,0.25,70,155.0
5159,B2,508.042,0.25,70,155.0
5160,B3,508.042,0.25,70,155.0
5161,A4,508.042,0.25,70,155.0
5162,A5,508.042,0.25,70,155.0
5163,B-2,508.5,479/500,110,155.0
5164,B-3,508.5,0.25,102,155.0
5165,D4,508.5,0.25,102,155.0
5166,F4,508.5,0.25,102,155.0
5167,E-4,508.542,229/500,111,155.0
5168,C#2,508.542,0.25,116,155.0
5169,B2,508.542,0.25,116,155.0
5170,D4,509.042,729/500,111,155.0
5171,B3,509.042,0.25,97,155.0
5172,B-2,509.5,229/500,110,155.0
5173,B3,509.5,0.25,102,155.0
5174,D4,509.5,0.25,102,155.0
5175,F4,509.5,0.25,102,155.0
5176,B1,509.542,0.25,59,155.0
5177,B2,509.542,0.25,59,155.0
5178,E-3,509.542,0.25,59,155.0
5179,A4,509.542,0.25,59,155.0
5180,G#5,509.542,0.25,59,155.0
5181,B2,510.0,729/500,110,155.0
5182,D4,510.042,229/500,111,155.0
5183,B1,510.042,0.25,83,155.0
5184,C#2,510.042,0.25,83,155.0
5185,A2,510.042,0.25,83,155.0
5186,B-2,510.042,0.25,83,155.0
5187,B3,510.042,0.25,83,155.0
5188,A4,510.042,0.25,83,155.0
5189,A5,510.042,0.25,83,155.0
5190,B3,510.5,0.25,102,155.0
5191,D4,510.5,229/500,102,155.0
5192,F4,510.5,229/500,102,155.0
5193,D4,510.542,0.5,111,155.0
5194,A2,510.542,0.25,127,155.0
5195,G#3,510.542,729/500,111,155.0
5196,B3,510.542,729/500,111,155.0
5197,F4,510.542,729/500,111,155.0
5198,C#2,511.042,0.25,123,155.0
5199,G2,511.042,0.25,123,155.0
5200,B3,511.042,0.25,123,155.0
5201,B2,511.5,229/500,110,155.0
5202,B1,511.542,0.25,66,155.0
5203,E-3,511.542,0.25,66,155.0
5204,G#5,511.542,0.25,66,155.0
5205,C3,512.0,729/500,110,155.0
5206,F5,512.0,229/500,127,155.0
5207,G4,512.0,0.25,86,155.0
5208,B-4,512.0,0.25,86,155.0
5209,B-3,512.042,1229/500,111,155.0
5210,C4,512.042,1979/500,111,155.0
5211,E-4,512.042,1979/500,111,155.0
5212,G4,512.042,1979/500,111,155.0
5213,B1,512.042,0.25,71,155.0
5214,C#3,512.042,0.25,71,155.0
5215,A3,512.042,0.25,71,155.0
5216,B3,512.042,0.25,71,155.0
5217,A4,512.042,0.25,71,155.0
5218,A5,512.042,0.25,71,155.0
5219,F5,513.0,229/500,127,155.0
5220,G4,513.0,0.25,86,155.0
5221,B-4,513.0,0.25,86,155.0
5222,C#2,513.042,0.25,110,155.0
5223,B3,513.042,0.25,110,155.0
5224,C3,513.5,229/500,110,155.0
5225,G4,513.5,0.25,86,155.0
5226,E-5,513.5,229/500,127,155.0
5227,B1,513.542,0.25,47,155.0
5228,E-3,513.542,0.25,47,155.0
5229,A4,513.542,0.25,47,155.0
5230,G#5,513.542,0.25,47,155.0
5231,C3,514.0,729/500,110,155.0
5232,B1,514.042,0.25,80,155.0
5233,B3,514.042,0.25,80,155.0
5234,A4,514.042,0.25,80,155.0
5235,A5,514.042,0.25,80,155.0
5236,G4,514.5,0.25,86,155.0
5237,C5,514.5,229/500,127,155.0
5238,B-3,514.542,479/500,111,155.0
5239,B3,515.042,0.25,100,155.0
5240,C3,515.5,229/500,110,155.0
5241,B-3,515.5,0.25,69,155.0
5242,E-4,515.5,0.5,86,155.0
5243,C4,515.5,0.5,86,155.0
5244,F4,515.5,0.5,86,155.0
5245,G#3,515.542,229/500,111,155.0
5246,C#4,515.542,229/500,111,155.0
5247,F4,515.542,229/500,111,155.0
5248,C#2,515.542,0.25,71,155.0
5249,E-3,515.542,0.25,71,155.0
5250,G#5,515.542,0.25,71,155.0
5251,B-2,516.0,729/500,110,155.0
5252,E-4,516.0,0.375,86,155.0
5253,C4,516.0,583/1000,86,155.0
5254,F4,516.0,583/1000,86,155.0
5255,G#3,516.0,1.5,111,155.0
5256,C#4,516.0,1.5,111,155.0
5257,F4,516.0,1.5,111,155.0
5258,B1,516.042,0.25,60,155.0
5259,B3,516.042,0.25,60,155.0
5260,A4,516.042,0.25,60,155.0
5261,A5,516.042,0.25,60,155.0
5262,C5,516.5,26/125,127,155.0
5263,B-3,516.5,229/500,69,155.0
5264,E-4,516.5,229/500,69,155.0
5265,C4,516.5,83/1000,69,155.0
5266,F4,516.5,83/1000,69,155.0
5267,C#2,516.542,0.25,125,155.0
5268,E-5,517.0,26/125,127,155.0
5269,B3,517.042,0.25,97,155.0
5270,G5,517.25,26/125,104,155.0
5271,B-2,517.5,229/500,110,155.0
5272,C6,517.5,26/125,76,155.0
5273,B1,517.542,0.25,42,155.0
5274,E-3,517.542,0.25,42,155.0
5275,A4,517.542,0.25,42,155.0
5276,G#5,517.542,0.25,42,155.0
5277,E-2,518.0,479/500,110,155.0
5278,B-3,518.0,26/125,91,155.0
5279,C6,518.0,26/125,91,155.0
5280,C4,518.0,229/500,76,155.0
5281,E-4,518.0,229/500,76,155.0
5282,F4,518.0,229/500,76,155.0
5283,G3,518.042,479/500,111,155.0
5284,C4,518.042,479/500,111,155.0
5285,C#4,518.042,479/500,111,155.0
5286,F4,518.042,479/500,111,155.0
5287,B1,518.042,0.25,76,155.0
5288,C#2,518.042,0.25,76,155.0
5289,B-2,518.042,0.25,76,155.0
5290,B3,518.042,0.25,76,155.0
5291,A4,518.042,0.25,76,155.0
5292,A5,518.042,0.25,76,155.0
5293,C#6,518.5,26/125,93,155.0
5294,B-2,519.0,229/500,110,155.0
5295,B-3,519.0,0.25,100,155.0
5296,C4,519.0,229/500,106,155.0
5297,E-4,519.0,229/500,106,155.0
5298,F4,519.0,229/500,106,155.0
5299,C6,519.0,229/500,106,155.0
5300,G3,519.042,479/500,111,155.0
5301,C4,519.042,479/500,111,155.0
5302,C#4,519.042,479/500,111,155.0
5303,F4,519.042,479/500,111,155.0
5304,C#2,519.042,0.25,121,155.0
5305,B3,519.042,0.25,121,155.0
5306,E-2,519.5,229/500,110,155.0
5307,C#2,519.542,0.25,73,155.0
5308,E-3,519.542,0.25,73,155.0
5309,G#5,519.542,0.25,73,155.0
5310,G#2,520.0,729/500,110,155.0
5311,G#5,520.0,0.125,113,155.0
5312,G3,520.0,26/125,97,155.0
5313,C4,520.0,26/125,97,155.0
5314,E-4,520.0,26/125,97,155.0
5315,G3,520.042,1729/500,111,155.0
5316,B-3,520.042,1729/500,111,155.0
5317,C4,520.042,1729/500,111,155.0
5318,E-4,520.042,1729/500,111,155.0
5319,B1,520.042,0.25,63,155.0
5320,B3,520.042,0.25,63,155.0
5321,A4,520.042,0.25,63,155.0
5322,A5,520.042,0.25,63,155.0
5323,B-5,520.25,26/125,125,155.0
5324,C#2,521.042,0.25,110,155.0
5325,B3,521.042,0.25,110,155.0
5326,G#1,521.5,229/500,110,155.0
5327,G3,521.5,26/125,104,155.0
5328,C4,521.5,26/125,104,155.0
5329,E-4,521.5,26/125,104,155.0
5330,G5,521.5,26/125,104,155.0
5331,B1,521.542,0.25,47,155.0
5332,E-3,521.542,0.25,47,155.0
5333,A4,521.542,0.25,47,155.0
5334,G#5,521.542,0.25,47,155.0
5335,G#1,522.0,729/500,110,155.0
5336,B1,522.042,0.25,80,155.0
5337,B3,522.042,0.25,80,155.0
5338,A4,522.042,0.25,80,155.0
5339,A5,522.042,0.25,80,155.0
5340,G3,522.5,26/125,104,155.0
5341,C4,522.5,26/125,104,155.0
5342,E-4,522.5,26/125,104,155.0
5343,E-5,522.5,26/125,104,155.0
5344,B3,523.042,0.25,100,155.0
5345,F3,523.5,0.5,97,155.0
5346,G#3,523.5,0.5,104,155.0
5347,B3,523.5,0.5,104,155.0
5348,E-4,523.5,0.5,104,155.0
5349,G#5,523.5,0.5,104,155.0
5350,B3,523.542,229/500,111,155.0
5351,E-4,523.542,229/500,111,155.0
5352,F4,523.542,229/500,111,155.0
5353,C#2,523.542,0.25,71,155.0
5354,E-3,523.542,0.25,71,155.0
5355,G#5,523.542,0.25,71,155.0
5356,G1,524.0,729/500,110,155.0
5357,F3,524.0,479/500,97,155.0
5358,G#3,524.0,229/500,104,155.0
5359,B3,524.0,229/500,104,155.0
5360,E-4,524.0,229/500,104,155.0
5361,G#5,524.0,229/500,104,155.0
5362,B3,524.0,2.0,111,155.0
5363,E-4,524.0,2.0,111,155.0
5364,F4,524.0,2.0,111,155.0
5365,B1,524.042,0.25,60,155.0
5366,B3,524.042,0.25,60,155.0
5367,A4,524.042,0.25,60,155.0
5368,A5,524.042,0.25,60,155.0
5369,E5,524.5,177/250,125,155.0
5370,C#2,524.542,0.25,125,155.0
5371,B3,525.042,0.25,97,155.0
5372,G1,525.5,229/500,110,155.0
5373,B4,525.5,229/500,125,155.0
5374,B1,525.542,0.25,42,155.0
5375,E-3,525.542,0.25,42,155.0
5376,A4,525.542,0.25,42,155.0
5377,G#5,525.542,0.25,42,155.0
5378,B2,526.0,229/500,110,155.0
5379,G#3,526.042,979/500,111,155.0
5380,B3,526.042,979/500,111,155.0
5381,D4,526.042,979/500,111,155.0
5382,F4,526.042,979/500,111,155.0
5383,B1,526.042,0.25,76,155.0
5384,C#2,526.042,0.25,76,155.0
5385,B-2,526.042,0.25,76,155.0
5386,B3,526.042,0.25,76,155.0
5387,A4,526.042,0.25,76,155.0
5388,A5,526.042,0.25,76,155.0
5389,G2,526.5,229/500,110,155.0
5390,F3,526.5,229/500,97,155.0
5391,G#3,526.5,229/500,97,155.0
5392,B3,526.5,229/500,97,155.0
5393,E4,526.5,229/500,97,155.0
5394,D2,527.0,229/500,110,155.0
5395,E5,527.0,229/500,106,155.0
5396,C#2,527.042,0.25,121,155.0
5397,B3,527.042,0.25,121,155.0
5398,C#2,527.5,229/500,110,155.0
5399,G#5,527.5,26/125,106,155.0
5400,C#2,527.542,0.25,63,155.0
5401,E-3,527.542,0.25,63,155.0
5402,G#5,527.542,0.25,63,155.0
5403,C2,528.0,729/500,110,155.0
5404,D4,528.0,26/125,107,155.0
5405,B-3,528.0,177/250,107,155.0
5406,E-4,528.0,177/250,107,155.0
5407,G4,528.0,177/250,107,155.0
5408,B-3,528.042,1729/500,111,155.0
5409,C4,528.042,1479/500,111,155.0
5410,E-4,528.042,1479/500,111,155.0
5411,G4,528.042,1479/500,111,155.0
5412,B1,528.042,0.25,63,155.0
5413,B3,528.042,0.25,63,155.0
5414,A4,528.042,0.25,63,155.0
5415,A5,528.042,0.25,63,155.0
5416,C#2,529.042,0.25,110,155.0
5417,B3,529.042,0.25,110,155.0
5418,C2,529.5,229/500,110,155.0
5419,B1,529.542,0.25,47,155.0
5420,E-3,529.542,0.25,47,155.0
5421,A4,529.542,0.25,47,155.0
5422,G#5,529.542,0.25,47,155.0
5423,G2,530.0,229/500,110,155.0
5424,B1,530.042,0.25,80,155.0
5425,B3,530.042,0.25,80,155.0
5426,A4,530.042,0.25,80,155.0
5427,A5,530.042,0.25,80,155.0
5428,C3,530.5,229/500,110,155.0
5429,B-4,530.5,229/500,127,155.0
5430,B-3,530.5,26/125,107,155.0
5431,D4,530.5,26/125,107,155.0
5432,E-4,530.5,26/125,107,155.0
5433,G4,530.5,26/125,107,155.0
5434,B-5,530.5,26/125,107,155.0
5435,G2,531.0,229/500,110,155.0
5436,B3,531.042,0.25,100,155.0
5437,F2,531.5,0.5,110,155.0
5438,A5,531.5,26/125,105,155.0
5439,A3,531.5,0.5,107,155.0
5440,E-4,531.5,0.5,107,155.0
5441,G4,531.5,0.5,107,155.0
5442,D4,531.5,0.5,117,155.0
5443,A4,531.5,0.5,117,155.0
5444,G3,531.542,229/500,111,155.0
5445,A3,531.542,229/500,111,155.0
5446,C4,531.542,229/500,111,155.0
5447,E-4,531.542,229/500,111,155.0
5448,G4,531.542,229/500,111,155.0
5449,C#2,531.542,0.25,71,155.0
5450,E-3,531.542,0.25,71,155.0
5451,G#5,531.542,0.25,71,155.0
5452,F2,532.0,729/500,110,155.0
5453,A3,532.0,177/250,107,155.0
5454,E-4,532.0,177/250,107,155.0
5455,G4,532.0,177/250,107,155.0
5456,D4,532.0,479/500,117,155.0
5457,A4,532.0,479/500,117,155.0
5458,A3,532.0,3.5,111,155.0
5459,C4,532.0,3.5,111,155.0
5460,E-4,532.0,3.0,111,155.0
5461,G4,532.0,3.0,111,155.0
5462,B1,532.042,0.25,60,155.0
5463,B3,532.042,0.25,60,155.0
5464,A4,532.042,0.25,60,155.0
5465,A5,532.042,0.25,60,155.0
5466,C#2,532.542,0.25,125,155.0
5467,B3,533.042,0.25,97,155.0
5468,F2,533.5,229/500,110,155.0
5469,A3,533.5,229/500,107,155.0
5470,D4,533.5,26/125,107,155.0
5471,E-4,533.5,0.125,107,155.0
5472,A4,533.5,479/500,127,155.0
5473,A5,533.5,177/250,105,155.0
5474,B1,533.542,0.25,42,155.0
5475,E-3,533.542,0.25,42,155.0
5476,A4,533.542,0.25,42,155.0
5477,G#5,533.542,0.25,42,155.0
5478,C3,534.0,229/500,110,155.0
5479,B1,534.042,0.25,76,155.0
5480,C#2,534.042,0.25,76,155.0
5481,B-2,534.042,0.25,76,155.0
5482,B3,534.042,0.25,76,155.0
5483,A4,534.042,0.25,76,155.0
5484,A5,534.042,0.25,76,155.0
5485,F2,534.5,229/500,110,155.0
5486,G4,534.5,229/500,127,155.0
5487,G3,534.5,26/125,106,155.0
5488,D4,534.5,26/125,106,155.0
5489,E-4,534.5,26/125,106,155.0
5490,G5,534.5,26/125,106,155.0
5491,B-2,535.0,479/500,110,155.0
5492,C#2,535.042,0.25,121,155.0
5493,B3,535.042,0.25,121,155.0
5494,E-3,535.542,0.25,46,155.0
5495,G#5,535.542,0.25,46,155.0
5496,B-2,536.0,729/500,110,155.0
5497,B-3,536.042,1979/500,111,155.0
5498,G#3,536.042,1979/500,111,155.0
5499,C4,536.042,1979/500,111,155.0
5500,E-4,536.042,1979/500,111,155.0
5501,B1,536.042,0.25,63,155.0
5502,B3,536.042,0.25,63,155.0
5503,A4,536.042,0.25,63,155.0
5504,A5,536.042,0.25,63,155.0
5505,C4,536.5,917/1000,115,155.0
5506,E-4,536.5,917/1000,115,155.0
5507,G4,536.5,917/1000,115,155.0
5508,B-4,536.5,917/1000,115,155.0
5509,G5,536.5,917/1000,115,155.0
5510,B-5,536.5,917/1000,115,155.0
5511,C#2,537.042,0.25,110,155.0
5512,B3,537.042,0.25,110,155.0
5513,B-2,537.5,229/500,110,155.0
5514,C4,537.5,229/500,115,155.0
5515,E-4,537.5,229/500,115,155.0
5516,G4,537.5,229/500,115,155.0
5517,B-4,537.5,229/500,115,155.0
5518,G5,537.5,229/500,115,155.0
5519,B-5,537.5,229/500,115,155.0
5520,B1,537.542,0.25,47,155.0
5521,E-3,537.542,0.25,47,155.0
5522,A4,537.542,0.25,47,155.0
5523,G#5,537.542,0.25,47,155.0
5524,B-2,538.0,229/500,110,155.0
5525,B1,538.042,0.25,80,155.0
5526,B3,538.042,0.25,80,155.0
5527,A4,538.042,0.25,80,155.0
5528,A5,538.042,0.25,80,155.0
5529,B-2,538.5,479/500,110,155.0
5530,C4,538.5,0.5,115,155.0
5531,E-4,538.5,0.5,115,155.0
5532,G4,538.5,0.5,115,155.0
5533,B-4,538.5,0.5,115,155.0
5534,G5,538.5,0.5,115,155.0
5535,C6,538.5,0.5,115,155.0
5536,B3,539.042,0.25,100,155.0
5537,B-2,539.5,0.5,110,155.0
5538,C4,539.5,0.5,115,155.0
5539,E-4,539.5,0.5,115,155.0
5540,G4,539.5,0.5,115,155.0
5541,B-4,539.5,0.5,115,155.0
5542,G5,539.5,0.5,115,155.0
5543,C6,539.5,0.5,115,155.0
5544,C#2,539.542,0.25,71,155.0
5545,E-3,539.542,0.25,71,155.0
5546,G#5,539.542,0.25,71,155.0
5547,B-2,540.0,229/500,110,155.0
5548,B-3,540.0,1.0,111,155.0
5549,C4,540.0,83/1000,115,155.0
5550,E-4,540.0,83/1000,115,155.0
5551,G4,540.0,83/1000,115,155.0
5552,B-4,540.0,83/1000,115,155.0
5553,G5,540.0,83/1000,115,155.0
5554,C6,540.0,83/1000,115,155.0
5555,B1,540.042,0.25,60,155.0
5556,B3,540.042,0.25,60,155.0
5557,A4,540.042,0.25,60,155.0
5558,A5,540.042,0.25,60,155.0
5559,B-2,540.5,479/500,110,155.0
5560,E-4,540.5,479/500,115,155.0
5561,G#4,540.5,479/500,115,155.0
5562,B-4,540.5,479/500,115,155.0
5563,C5,540.5,479/500,115,155.0
5564,B-5,540.5,479/500,115,155.0
5565,C6,540.5,479/500,115,155.0
5566,E-4,540.542,229/500,111,155.0
5567,C#2,540.542,0.25,125,155.0
5568,D4,541.042,729/500,111,155.0
5569,B3,541.042,0.25,97,155.0
5570,B1,541.5,229/500,110,155.0
5571,E-4,541.5,479/500,115,155.0
5572,G4,541.5,479/500,115,155.0
5573,B-4,541.5,479/500,115,155.0
5574,C5,541.5,479/500,115,155.0
5575,B-5,541.5,479/500,115,155.0
5576,B1,541.542,0.25,59,155.0
5577,F2,541.542,0.25,59,155.0
5578,E-3,541.542,0.25,59,155.0
5579,A4,541.542,0.25,59,155.0
5580,G#5,541.542,0.25,59,155.0
5581,B2,542.0,229/500,110,155.0
5582,D4,542.042,229/500,111,155.0
5583,B1,542.042,0.25,82,155.0
5584,C#2,542.042,0.25,82,155.0
5585,B-2,542.042,0.25,82,155.0
5586,C3,542.042,0.25,82,155.0
5587,B3,542.042,0.25,82,155.0
5588,A4,542.042,0.25,82,155.0
5589,A5,542.042,0.25,82,155.0
5590,B2,542.5,229/500,110,155.0
5591,D4,542.5,151/125,115,155.0
5592,F4,542.5,151/125,115,155.0
5593,B-4,542.5,151/125,115,155.0
5594,C5,542.5,151/125,115,155.0
5595,D6,542.5,151/125,115,155.0
5596,D4,542.542,0.5,111,155.0
5597,G2,542.542,0.25,127,155.0
5598,G#3,542.542,729/500,111,155.0
5599,B3,542.542,729/500,111,155.0
5600,F4,542.542,729/500,111,155.0
5601,B2,543.0,229/500,110,155.0
5602,C#2,543.042,0.25,123,155.0
5603,A2,543.042,0.25,123,155.0
5604,B3,543.042,0.25,123,155.0
5605,B2,543.5,229/500,110,155.0
5606,E-3,543.542,0.25,46,155.0
5607,G#5,543.542,0.25,46,155.0
5608,C3,544.0,729/500,110,155.0
5609,E-4,544.0,26/125,115,155.0
5610,G4,544.0,26/125,115,155.0
5611,B-4,544.0,26/125,115,155.0
5612,B-5,544.0,26/125,115,155.0
5613,B-3,544.042,1229/500,111,155.0
5614,C4,544.042,1979/500,111,155.0
5615,E-4,544.042,1979/500,111,155.0
5616,G4,544.042,1979/500,111,155.0
5617,B1,544.042,0.25,69,155.0
5618,A3,544.042,0.25,69,155.0
5619,B3,544.042,0.25,69,155.0
5620,A4,544.042,0.25,69,155.0
5621,A5,544.042,0.25,69,155.0
5622,E-4,545.0,26/125,115,155.0
5623,G4,545.0,26/125,115,155.0
5624,B-4,545.0,26/125,115,155.0
5625,B-5,545.0,26/125,115,155.0
5626,C#2,545.042,0.25,104,155.0
5627,C#3,545.042,0.25,104,155.0
5628,B3,545.042,0.25,104,155.0
5629,C3,545.5,229/500,110,155.0
5630,B1,545.542,0.25,47,155.0
5631,E-3,545.542,0.25,47,155.0
5632,A4,545.542,0.25,47,155.0
5633,G#5,545.542,0.25,47,155.0
5634,D3,546.0,729/500,110,155.0
5635,B1,546.042,0.25,80,155.0
5636,B3,546.042,0.25,80,155.0
5637,A4,546.042,0.25,80,155.0
5638,A5,546.042,0.25,80,155.0
5639,E-4,546.5,26/125,115,155.0
5640,G4,546.5,26/125,115,155.0
5641,B-4,546.5,26/125,115,155.0
5642,B-5,546.5,26/125,115,155.0
5643,B-3,546.542,479/500,111,155.0
5644,B3,547.042,0.25,100,155.0
5645,D3,547.5,229/500,110,155.0
5646,G#3,547.5,0.5,115,155.0
5647,C#4,547.5,0.5,115,155.0
5648,C#4,547.5,0.5,115,155.0
5649,F4,547.5,0.5,115,155.0
5650,G#4,547.5,0.5,115,155.0
5651,G#5,547.5,0.5,115,155.0
5652,G#3,547.542,229/500,111,155.0
5653,C#4,547.542,229/500,111,155.0
5654,F4,547.542,229/500,111,155.0
5655,C#2,547.542,0.25,71,155.0
5656,E-3,547.542,0.25,71,155.0
5657,G#5,547.542,0.25,71,155.0
5658,E-3,548.0,729/500,110,155.0
5659,G#3,548.0,229/500,115,155.0
5660,C#4,548.0,229/500,115,155.0
5661,C#4,548.0,229/500,115,155.0
5662,F4,548.0,229/500,115,155.0
5663,G#4,548.0,229/500,115,155.0
5664,G#5,548.0,229/500,115,155.0
5665,G#3,548.0,1.5,111,155.0
5666,C#4,548.0,1.5,111,155.0
5667,F4,548.0,1.5,111,155.0
5668,B1,548.042,0.25,60,155.0
5669,B3,548.042,0.25,60,155.0
5670,A4,548.042,0.25,60,155.0
5671,A5,548.042,0.25,60,155.0
5672,G#3,548.5,26/125,115,155.0
5673,F4,548.5,151/125,115,155.0
5674,G#4,548.5,479/500,115,155.0
5675,G#5,548.5,479/500,115,155.0
5676,C5,548.5,729/500,115,155.0
5677,C6,548.5,729/500,115,155.0
5678,C#2,548.542,0.25,125,155.0
5679,B3,549.042,0.25,97,155.0
5680,E-3,549.5,229/500,110,155.0
5681,B-4,549.5,229/500,115,155.0
5682,B1,549.542,0.25,42,155.0
5683,E-3,549.542,0.25,42,155.0
5684,A4,549.542,0.25,42,155.0
5685,G#5,549.542,0.25,42,155.0
5686,E-2,550.0,479/500,110,155.0
5687,G#4,550.0,229/500,115,155.0
5688,G3,550.042,979/500,111,155.0
5689,C4,550.042,979/500,111,155.0
5690,C#4,550.042,979/500,111,155.0
5691,F4,550.042,979/500,111,155.0
5692,B1,550.042,0.25,76,155.0
5693,C#2,550.042,0.25,76,155.0
5694,B-2,550.042,0.25,76,155.0
5695,B3,550.042,0.25,76,155.0
5696,A4,550.042,0.25,76,155.0
5697,A5,550.042,0.25,76,155.0
5698,G4,550.5,229/500,115,155.0
5699,G3,550.5,26/125,105,155.0
5700,G3,550.5,26/125,105,155.0
5701,C4,550.5,26/125,105,155.0
5702,E-4,550.5,26/125,105,155.0
5703,B-2,551.0,229/500,110,155.0
5704,C#2,551.042,0.25,121,155.0
5705,B3,551.042,0.25,121,155.0
5706,C5,551.25,229/500,115,155.0
5707,E-2,551.5,229/500,110,155.0
5708,E-3,551.542,0.25,46,155.0
5709,G#5,551.542,0.25,46,155.0
5710,G#2,552.0,479/500,110,155.0
5711,G3,552.0,26/125,102,155.0
5712,C4,552.0,26/125,102,155.0
5713,E-4,552.0,26/125,102,155.0
5714,G3,552.042,1729/500,111,155.0
5715,B-3,552.042,1729/500,111,155.0
5716,C4,552.042,1729/500,111,155.0
5717,E-4,552.042,1729/500,111,155.0
5718,B1,552.042,0.25,63,155.0
5719,B3,552.042,0.25,63,155.0
5720,A4,552.042,0.25,63,155.0
5721,A5,552.042,0.25,63,155.0
5722,G#1,553.0,229/500,110,155.0
5723,C#2,553.042,0.25,110,155.0
5724,B3,553.042,0.25,110,155.0
5725,G3,553.5,26/125,102,155.0
5726,C4,553.5,26/125,102,155.0
5727,E-4,553.5,26/125,102,155.0
5728,B1,553.542,0.25,47,155.0
5729,E-3,553.542,0.25,47,155.0
5730,A4,553.542,0.25,47,155.0
5731,G#5,553.542,0.25,47,155.0
5732,G#1,554.0,729/500,110,155.0
5733,B1,554.042,0.25,80,155.0
5734,B3,554.042,0.25,80,155.0
5735,A4,554.042,0.25,80,155.0
5736,A5,554.042,0.25,80,155.0
5737,E-4,554.5,26/125,102,155.0
5738,G4,554.5,26/125,102,155.0
5739,C5,554.5,26/125,102,155.0
5740,B3,555.042,0.25,100,155.0
5741,F3,555.5,26/125,102,155.0
5742,E-4,555.5,229/500,102,155.0
5743,B3,555.5,0.5,102,155.0
5744,F4,555.5,0.5,102,155.0
5745,B4,555.5,0.5,102,155.0
5746,B3,555.542,229/500,111,155.0
5747,E-4,555.542,229/500,111,155.0
5748,F4,555.542,229/500,111,155.0
5749,G4,555.542,229/500,111,155.0
5750,G#4,555.542,229/500,111,155.0
5751,C#2,555.542,0.25,71,155.0
5752,E-3,555.542,0.25,71,155.0
5753,G#5,555.542,0.25,71,155.0
5754,G1,556.0,729/500,110,155.0
5755,B3,556.0,229/500,102,155.0
5756,F4,556.0,229/500,102,155.0
5757,B4,556.0,229/500,102,155.0
5758,B3,556.0,2.0,111,155.0
5759,E-4,556.0,2.0,111,155.0
5760,F4,556.0,2.0,111,155.0
5761,G4,556.0,2.0,111,155.0
5762,G#4,556.0,2.0,111,155.0
5763,B1,556.042,0.25,60,155.0
5764,B3,556.042,0.25,60,155.0
5765,A4,556.042,0.25,60,155.0
5766,A5,556.042,0.25,60,155.0
5767,F5,556.5,229/500,77,155.0
5768,F3,556.5,26/125,102,155.0
5769,B3,556.5,26/125,102,155.0
5770,E-4,556.5,26/125,102,155.0
5771,G#4,556.5,26/125,102,155.0
5772,C#2,556.542,0.25,125,155.0
5773,B3,557.042,0.25,97,155.0
5774,G1,557.5,229/500,110,155.0
5775,F3,557.5,26/125,97,155.0
5776,B3,557.5,26/125,97,155.0
5777,D4,557.5,26/125,97,155.0
5778,G4,557.5,26/125,97,155.0
5779,E5,557.5,26/125,97,155.0
5780,B1,557.542,0.25,42,155.0
5781,E-3,557.542,0.25,42,155.0
5782,A4,557.542,0.25,42,155.0
5783,G#5,557.542,0.25,42,155.0
5784,B1,558.0,229/500,110,155.0
5785,G#3,558.042,979/500,111,155.0
5786,B3,558.042,979/500,111,155.0
5787,D4,558.042,979/500,111,155.0
5788,F4,558.042,979/500,111,155.0
5789,G4,558.042,979/500,111,155.0
5790,B1,558.042,0.25,76,155.0
5791,C#2,558.042,0.25,76,155.0
5792,B-2,558.042,0.25,76,155.0
5793,B3,558.042,0.25,76,155.0
5794,A4,558.042,0.25,76,155.0
5795,A5,558.042,0.25,76,155.0
5796,D2,558.5,229/500,110,155.0
5797,G2,559.0,479/500,110,155.0
5798,B3,559.0,26/125,92,155.0
5799,D4,559.0,26/125,92,155.0
5800,F4,559.0,26/125,92,155.0
5801,B4,559.0,26/125,92,155.0
5802,G#5,559.0,26/125,92,155.0
5803,C#2,559.042,0.25,121,155.0
5804,B3,559.042,0.25,121,155.0
5805,E-3,559.542,0.25,46,155.0
5806,G#5,559.542,0.25,46,155.0
5807,C2,560.0,729/500,110,155.0
5808,B-3,560.0,427/250,102,155.0
5809,D4,560.0,427/250,102,155.0
5810,E-4,560.0,427/250,102,155.0
5811,G4,560.0,427/250,102,155.0
5812,B-3,560.042,1729/500,111,155.0
5813,C4,560.042,1479/500,111,155.0
5814,E-4,560.042,1479/500,111,155.0
5815,G4,560.042,1479/500,111,155.0
5816,B1,560.042,0.25,63,155.0
5817,B3,560.042,0.25,63,155.0
5818,A4,560.042,0.25,63,155.0
5819,A5,560.042,0.25,63,155.0
5820,D5,560.5,26/125,102,155.0
5821,E-5,560.792,0.125,78,155.0
5822,C#2,561.042,0.25,110,155.0
5823,B3,561.042,0.25,110,155.0
5824,F5,561.083,0.125,78,155.0
5825,G5,561.292,26/125,78,155.0
5826,C3,561.5,0.25,110,155.0
5827,B-5,561.5,229/500,87,155.0
5828,B1,561.542,0.25,47,155.0
5829,E-3,561.542,0.25,47,155.0
5830,A4,561.542,0.25,47,155.0
5831,G#5,561.542,0.25,47,155.0
5832,C3,562.0,729/500,110,155.0
5833,D6,562.0,26/125,102,155.0
5834,B-3,562.0,729/500,102,155.0
5835,D4,562.0,729/500,102,155.0
5836,E-4,562.0,729/500,102,155.0
5837,G4,562.0,729/500,102,155.0
5838,B1,562.042,0.25,80,155.0
5839,B3,562.042,0.25,80,155.0
5840,A4,562.042,0.25,80,155.0
5841,A5,562.042,0.25,80,155.0
5842,E-6,562.5,229/500,102,155.0
5843,D6,563.0,26/125,102,155.0
5844,B3,563.042,0.25,100,155.0
5845,C2,563.5,0.25,110,155.0
5846,G3,563.542,229/500,111,155.0
5847,A3,563.542,229/500,111,155.0
5848,C4,563.542,229/500,111,155.0
5849,E-4,563.542,229/500,111,155.0
5850,G4,563.542,229/500,111,155.0
5851,C#2,563.542,0.25,71,155.0
5852,E-3,563.542,0.25,71,155.0
5853,G#5,563.542,0.25,71,155.0
5854,C2,564.0,479/500,110,155.0
5855,A3,564.0,3.5,111,155.0
5856,C4,564.0,3.5,111,155.0
5857,E-4,564.0,3.0,111,155.0
5858,G4,564.0,3.0,111,155.0
5859,B1,564.042,0.25,60,155.0
5860,B3,564.042,0.25,60,155.0
5861,A4,564.042,0.25,60,155.0
5862,A5,564.042,0.25,60,155.0
5863,G4,564.5,229/500,99,155.0
5864,A3,564.5,26/125,98,155.0
5865,C4,564.5,26/125,98,155.0
5866,E-4,564.5,26/125,98,155.0
5867,C6,564.5,26/125,98,155.0
5868,C#2,564.542,0.25,125,155.0
5869,A1,565.0,479/500,110,155.0
5870,B3,565.042,0.25,97,155.0
5871,G4,565.5,229/500,99,155.0
5872,A3,565.5,26/125,98,155.0
5873,C4,565.5,26/125,98,155.0
5874,E-4,565.5,26/125,98,155.0
5875,C6,565.5,26/125,98,155.0
5876,B1,565.542,0.25,42,155.0
5877,E-3,565.542,0.25,42,155.0
5878,A4,565.542,0.25,42,155.0
5879,G#5,565.542,0.25,42,155.0
5880,F1,566.0,729/500,110,155.0
5881,B1,566.042,0.25,76,155.0
5882,C#2,566.042,0.25,76,155.0
5883,B-2,566.042,0.25,76,155.0
5884,B3,566.042,0.25,76,155.0
5885,A4,566.042,0.25,76,155.0
5886,A5,566.042,0.25,76,155.0
5887,A3,566.5,26/125,98,155.0
5888,C4,566.5,26/125,98,155.0
5889,E-4,566.5,26/125,98,155.0
5890,G4,566.5,26/125,98,155.0
5891,C6,566.5,26/125,98,155.0
5892,C6,567.0,26/125,95,155.0
5893,C#2,567.042,0.25,121,155.0
5894,B3,567.042,0.25,121,155.0
5895,C2,567.5,229/500,110,155.0
5896,E-3,567.542,0.25,46,155.0
5897,G#5,567.542,0.25,46,155.0
5898,B-1,568.0,729/500,110,155.0
5899,G#4,568.0,26/125,95,155.0
5900,C5,568.0,26/125,95,155.0
5901,E-5,568.0,26/125,95,155.0
5902,G#5,568.0,26/125,95,155.0
5903,B-3,568.042,1979/500,111,155.0
5904,G#3,568.042,1979/500,111,155.0
5905,C4,568.042,1979/500,111,155.0
5906,E-4,568.042,1979/500,111,155.0
5907,B1,568.042,0.25,63,155.0
5908,B3,568.042,0.25,63,155.0
5909,A4,568.042,0.25,63,155.0
5910,A5,568.042,0.25,63,155.0
5911,C#2,569.042,0.25,110,155.0
5912,B3,569.042,0.25,110,155.0
5913,B-1,569.5,229/500,110,155.0
5914,B1,569.542,0.25,47,155.0
5915,E-3,569.542,0.25,47,155.0
5916,A4,569.542,0.25,47,155.0
5917,G#5,569.542,0.25,47,155.0
5918,D2,570.0,229/500,110,155.0
5919,B1,570.042,0.25,80,155.0
5920,B3,570.042,0.25,80,155.0
5921,A4,570.042,0.25,80,155.0
5922,A5,570.042,0.25,80,155.0
5923,G2,570.5,229/500,110,155.0
5924,G#4,570.5,26/125,95,155.0
5925,C5,570.5,26/125,95,155.0
5926,E-5,570.5,26/125,95,155.0
5927,G#5,570.5,26/125,95,155.0
5928,F#2,571.0,229/500,110,155.0
5929,B3,571.042,0.25,100,155.0
5930,F2,571.5,0.5,110,155.0
5931,G4,571.5,229/500,95,155.0
5932,C5,571.5,229/500,95,155.0
5933,E-5,571.5,0.5,95,155.0
5934,G5,571.5,0.5,95,155.0
5935,B1,571.542,0.25,84,155.0
5936,C#2,571.542,0.25,84,155.0
5937,B-2,571.542,0.25,84,155.0
5938,E-3,571.542,0.25,84,155.0
5939,G#5,571.542,0.25,84,155.0
5940,F2,572.0,229/500,110,155.0
5941,B-3,572.0,1.0,111,155.0
5942,E-5,572.0,26/125,95,155.0
5943,G5,572.0,26/125,95,155.0
5944,B1,572.042,0.25,60,155.0
5945,B3,572.042,0.25,60,155.0
5946,A4,572.042,0.25,60,155.0
5947,A5,572.042,0.25,60,155.0
5948,G2,572.5,229/500,110,155.0
5949,C5,572.5,26/125,95,155.0
5950,G#4,572.5,229/500,95,155.0
5951,E-5,572.5,229/500,95,155.0
5952,G#5,572.5,229/500,95,155.0
5953,E-4,572.542,229/500,111,155.0
5954,C#2,572.542,0.25,125,155.0
5955,G#2,572.542,0.25,125,155.0
5956,G#2,573.0,229/500,110,155.0
5957,D4,573.042,729/500,111,155.0
5958,B3,573.042,0.25,97,155.0
5959,B-2,573.5,229/500,110,155.0
5960,G4,573.5,26/125,95,155.0
5961,C5,573.5,26/125,95,155.0
5962,E-5,573.5,26/125,95,155.0
5963,G5,573.5,26/125,95,155.0
5964,B1,573.542,0.25,59,155.0
5965,G#2,573.542,0.25,59,155.0
5966,E-3,573.542,0.25,59,155.0
5967,A4,573.542,0.25,59,155.0
5968,G#5,573.542,0.25,59,155.0
5969,B-2,574.0,229/500,110,155.0
5970,D4,574.042,229/500,111,155.0
5971,B1,574.042,0.25,82,155.0
5972,C#2,574.042,0.25,82,155.0
5973,B-2,574.042,0.25,82,155.0
5974,C3,574.042,0.25,82,155.0
5975,B3,574.042,0.25,82,155.0
5976,A4,574.042,0.25,82,155.0
5977,A5,574.042,0.25,82,155.0
5978,B2,574.5,229/500,110,155.0
5979,D4,574.5,26/125,96,155.0
5980,F4,574.5,26/125,96,155.0
5981,B4,574.5,26/125,96,155.0
5982,C5,574.5,26/125,96,155.0
5983,G#5,574.5,177/250,95,155.0
5984,B5,574.5,177/250,95,155.0
5985,D4,574.542,0.5,111,155.0
5986,B2,574.542,0.25,107,155.0
5987,G#3,574.542,729/500,111,155.0
5988,B3,574.542,729/500,111,155.0
5989,F4,574.542,729/500,111,155.0
5990,B2,575.0,479/500,110,155.0
5991,C#2,575.042,0.25,119,155.0
5992,B2,575.042,0.25,119,155.0
5993,B3,575.042,0.25,119,155.0
5994,C2,575.5,229/500,110,155.0
5995,G2,575.542,0.25,70,155.0
5996,E-3,575.542,0.25,70,155.0
5997,G#5,575.542,0.25,70,155.0
5998,C2,576.0,479/500,110,155.0
5999,B-3,576.042,1229/500,111,155.0
6000,C4,576.042,1979/500,111,155.0
6001,E-4,576.042,1979/500,111,155.0
6002,G4,576.042,1979/500,111,155.0
6003,B1,576.042,0.25,69,155.0
6004,C#3,576.042,0.25,69,155.0
6005,B3,576.042,0.25,69,155.0
6006,A4,576.042,0.25,69,155.0
6007,A5,576.042,0.25,69,155.0
6008,D4,576.5,26/125,97,155.0
6009,E-4,576.5,26/125,97,155.0
6010,G4,576.5,26/125,97,155.0
6011,B-4,576.5,26/125,97,155.0
6012,B-5,576.5,26/125,97,155.0
6013,C#2,577.042,0.25,110,155.0
6014,B3,577.042,0.25,110,155.0
6015,C2,577.5,229/500,110,155.0
6016,D4,577.5,26/125,97,155.0
6017,E-4,577.5,26/125,97,155.0
6018,G4,577.5,26/125,97,155.0
6019,B-4,577.5,26/125,97,155.0
6020,B-5,577.5,26/125,97,155.0
6021,B1,577.542,0.25,47,155.0
6022,E-3,577.542,0.25,47,155.0
6023,A4,577.542,0.25,47,155.0
6024,G#5,577.542,0.25,47,155.0
6025,C2,578.0,729/500,110,155.0
6026,B1,578.042,0.25,80,155.0
6027,B3,578.042,0.25,80,155.0
6028,A4,578.042,0.25,80,155.0
6029,A5,578.042,0.25,80,155.0
6030,D4,578.5,26/125,97,155.0
6031,E-4,578.5,26/125,97,155.0
6032,G4,578.5,26/125,97,155.0
6033,B-4,578.5,26/125,97,155.0
6034,B-5,578.5,26/125,97,155.0
6035,B-3,578.542,479/500,111,155.0
6036,B3,579.042,0.25,100,155.0
6037,E-2,579.5,0.5,110,155.0
6038,C#4,579.5,0.5,97,155.0
6039,F4,579.5,0.5,97,155.0
6040,G#4,579.5,0.5,97,155.0
6041,G#5,579.5,0.5,97,155.0
6042,G#3,579.542,229/500,111,155.0
6043,C#4,579.542,229/500,111,155.0
6044,F4,579.542,229/500,111,155.0
6045,C#2,579.542,0.25,71,155.0
6046,E-3,579.542,0.25,71,155.0
6047,G#5,579.542,0.25,71,155.0
6048,E-2,580.0,229/500,110,155.0
6049,C#4,580.0,229/500,97,155.0
6050,F4,580.0,229/500,97,155.0
6051,G#4,580.0,229/500,97,155.0
6052,G#5,580.0,229/500,97,155.0
6053,G#3,580.0,1.5,111,155.0
6054,C#4,580.0,1.5,111,155.0
6055,F4,580.0,1.5,111,155.0
6056,B1,580.042,0.25,60,155.0
6057,B3,580.042,0.25,60,155.0
6058,A4,580.042,0.25,60,155.0
6059,A5,580.042,0.25,60,155.0
6060,B-2,580.5,479/500,110,155.0
6061,C#4,580.5,26/125,97,155.0
6062,F4,580.5,26/125,97,155.0
6063,G#4,580.5,26/125,97,155.0
6064,G#5,580.5,26/125,97,155.0
6065,C#2,580.542,0.25,125,155.0
6066,B3,581.042,0.25,97,155.0
6067,E-2,581.5,479/500,110,155.0
6068,B-3,581.5,26/125,97,155.0
6069,C#4,581.5,26/125,97,155.0
6070,F4,581.5,26/125,97,155.0
6071,B1,581.542,0.25,42,155.0
6072,E-3,581.542,0.25,42,155.0
6073,A4,581.542,0.25,42,155.0
6074,G#5,581.542,0.25,42,155.0
6075,F4,582.0,26/125,97,155.0
6076,G4,582.0,26/125,97,155.0
6077,C5,582.0,26/125,97,155.0
6078,E-5,582.0,26/125,97,155.0
6079,G5,582.0,26/125,97,155.0
6080,G3,582.042,479/500,111,155.0
6081,C4,582.042,479/500,111,155.0
6082,C#4,582.042,479/500,111,155.0
6083,F4,582.042,479/500,111,155.0
6084,B1,582.042,0.25,76,155.0
6085,C#2,582.042,0.25,76,155.0
6086,B-2,582.042,0.25,76,155.0
6087,B3,582.042,0.25,76,155.0
6088,A4,582.042,0.25,76,155.0
6089,A5,582.042,0.25,76,155.0
6090,B-1,582.5,229/500,110,155.0
6091,E-1,583.0,479/500,110,155.0
6092,F4,583.0,26/125,97,155.0
6093,G4,583.0,26/125,97,155.0
6094,C5,583.0,26/125,97,155.0
6095,E-5,583.0,26/125,97,155.0
6096,G5,583.0,26/125,97,155.0
6097,G3,583.042,479/500,111,155.0
6098,C4,583.042,479/500,111,155.0
6099,C#4,583.042,479/500,111,155.0
6100,F4,583.042,479/500,111,155.0
6101,C#2,583.042,0.25,121,155.0
6102,B3,583.042,0.25,121,155.0
6103,E-3,583.542,0.25,46,155.0
6104,G#5,583.542,0.25,46,155.0
6105,G#1,584.0,729/500,110,155.0
6106,G3,584.0,26/125,97,155.0
6107,C4,584.0,26/125,97,155.0
6108,E-4,584.0,26/125,97,155.0
6109,G3,584.042,1729/500,111,155.0
6110,B-3,584.042,1729/500,111,155.0
6111,C4,584.042,1729/500,111,155.0
6112,E-4,584.042,1729/500,111,155.0
6113,B1,584.042,0.25,63,155.0
6114,B3,584.042,0.25,63,155.0
6115,A4,584.042,0.25,63,155.0
6116,A5,584.042,0.25,63,155.0
6117,C#2,585.042,0.25,110,155.0
6118,B3,585.042,0.25,110,155.0
6119,G#1,585.5,229/500,110,155.0
6120,G3,585.5,26/125,97,155.0
6121,C4,585.5,26/125,97,155.0
6122,E-4,585.5,26/125,97,155.0
6123,B1,585.542,0.25,47,155.0
6124,E-3,585.542,0.25,47,155.0
6125,A4,585.542,0.25,47,155.0
6126,G#5,585.542,0.25,47,155.0
6127,G#1,586.0,729/500,110,155.0
6128,B1,586.042,0.25,80,155.0
6129,B3,586.042,0.25,80,155.0
6130,A4,586.042,0.25,80,155.0
6131,A5,586.042,0.25,80,155.0
6132,E-4,586.5,177/250,97,155.0
6133,C5,586.5,229/500,97,155.0
6134,C4,586.5,26/125,97,155.0
6135,G4,586.5,26/125,97,155.0
6136,B3,587.042,0.25,100,155.0
6137,G1,587.5,0.25,110,155.0
6138,E-4,587.5,229/500,97,155.0
6139,F4,587.5,0.5,97,155.0
6140,B3,587.5,0.5,97,155.0
6141,G#4,587.5,0.5,97,155.0
6142,B3,587.542,229/500,111,155.0
6143,E-4,587.542,229/500,111,155.0
6144,F4,587.542,229/500,111,155.0
6145,G4,587.542,229/500,111,155.0
6146,B-4,587.542,229/500,111,155.0
6147,C#2,587.542,0.25,71,155.0
6148,E-3,587.542,0.25,71,155.0
6149,G#5,587.542,0.25,71,155.0
6150,G1,588.0,729/500,110,155.0
6151,F4,588.0,177/250,97,155.0
6152,B3,588.0,229/500,97,155.0
6153,G#4,588.0,229/500,97,155.0
6154,B3,588.0,2.0,111,155.0
6155,E-4,588.0,2.0,111,155.0
6156,F4,588.0,2.0,111,155.0
6157,G4,588.0,2.0,111,155.0
6158,B-4,588.0,2.0,111,155.0
6159,B1,588.042,0.25,60,155.0
6160,B3,588.042,0.25,60,155.0
6161,A4,588.042,0.25,60,155.0
6162,A5,588.042,0.25,60,155.0
6163,C#2,588.542,0.25,125,155.0
6164,B3,589.042,0.25,97,155.0
6165,G3,589.5,333/1000,87,155.0
6166,G1,589.5,229/500,110,155.0
6167,G2,589.5,26/125,97,155.0
6168,E-4,589.5,26/125,97,155.0
6169,B-4,589.5,26/125,97,155.0
6170,E-5,589.5,26/125,97,155.0
6171,B-5,589.5,26/125,97,155.0
6172,B3,589.5,177/250,97,155.0
6173,F4,589.5,177/250,97,155.0
6174,B1,589.542,0.25,42,155.0
6175,E-3,589.542,0.25,42,155.0
6176,A4,589.542,0.25,42,155.0
6177,G#5,589.542,0.25,42,155.0
6178,G1,590.0,729/500,110,155.0
6179,G#3,590.042,979/500,111,155.0
6180,B3,590.042,979/500,111,155.0
6181,D4,590.042,979/500,111,155.0
6182,F4,590.042,979/500,111,155.0
6183,G4,590.042,979/500,111,155.0
6184,B1,590.042,0.25,76,155.0
6185,C#2,590.042,0.25,76,155.0
6186,B-2,590.042,0.25,76,155.0
6187,B3,590.042,0.25,76,155.0
6188,A4,590.042,0.25,76,155.0
6189,A5,590.042,0.25,76,155.0
6190,E-3,590.5,1.375,87,155.0
6191,G2,591.0,26/125,97,155.0
6192,E-4,591.0,26/125,97,155.0
6193,F4,591.0,26/125,97,155.0
6194,G4,591.0,26/125,97,155.0
6195,G4,591.0,26/125,97,155.0
6196,G5,591.0,26/125,97,155.0
6197,C#2,591.042,0.25,121,155.0
6198,B3,591.042,0.25,121,155.0
6199,B1,591.5,229/500,110,155.0
6200,E-3,591.542,0.25,46,155.0
6201,G#5,591.542,0.25,46,155.0
6202,C3,592.0,1.5,87,155.0
6203,C2,592.0,729/500,110,155.0
6204,B-3,592.0,26/125,97,155.0
6205,E-4,592.0,26/125,97,155.0
6206,G4,592.0,26/125,97,155.0
6207,B-3,592.042,1729/500,111,155.0
6208,C4,592.042,1479/500,111,155.0
6209,E-4,592.042,1479/500,111,155.0
6210,G4,592.042,1479/500,111,155.0
6211,B1,592.042,0.25,63,155.0
6212,B3,592.042,0.25,63,155.0
6213,A4,592.042,0.25,63,155.0
6214,A5,592.042,0.25,63,155.0
6215,C#2,593.042,0.25,110,155.0
6216,B3,593.042,0.25,110,155.0
6217,B1,593.5,229/500,110,155.0
6218,B1,593.542,0.25,47,155.0
6219,E-3,593.542,0.25,47,155.0
6220,A4,593.542,0.25,47,155.0
6221,G#5,593.542,0.25,47,155.0
6222,C2,594.0,479/500,110,155.0
6223,B1,594.042,0.25,80,155.0
6224,B3,594.042,0.25,80,155.0
6225,A4,594.042,0.25,80,155.0
6226,A5,594.042,0.25,80,155.0
6227,B-3,594.5,26/125,97,155.0
6228,E-4,594.5,26/125,97,155.0
6229,G4,594.5,26/125,97,155.0
6230,B-4,594.5,26/125,97,155.0
6231,G4,594.542,229/500,111,155.0
6232,D4,594.542,479/500,111,155.0
6233,B-4,594.542,479/500,111,155.0
6234,E-2,595.0,229/500,110,155.0
6235,B3,595.042,0.25,100,155.0
6236,B-2,595.5,229/500,110,155.0
6237,A3,595.5,26/125,97,155.0
6238,E-4,595.5,0.5,97,155.0
6239,G4,595.5,0.5,97,155.0
6240,B4,595.5,0.5,97,155.0
6241,G3,595.542,229/500,111,155.0
6242,G4,595.542,229/500,111,155.0
6243,A3,595.542,229/500,111,155.0
6244,C4,595.542,229/500,111,155.0
6245,E-4,595.542,229/500,111,155.0
6246,B4,595.542,229/500,111,155.0
6247,C#2,595.542,0.25,71,155.0
6248,E-3,595.542,0.25,71,155.0
6249,G#5,595.542,0.25,71,155.0
6250,A2,596.0,729/500,110,155.0
6251,G4,596.0,521/500,111,155.0
6252,E-4,596.0,26/125,97,155.0
6253,G4,596.0,26/125,97,155.0
6254,B4,596.0,26/125,97,155.0
6255,A3,596.0,3.5,111,155.0
6256,C4,596.0,3.5,111,155.0
6257,E-4,596.0,3.0,111,155.0
6258,B4,596.0,3.0,111,155.0
6259,B1,596.042,0.25,60,155.0
6260,B3,596.042,0.25,60,155.0
6261,A4,596.042,0.25,60,155.0
6262,A5,596.042,0.25,60,155.0
6263,C#2,596.542,0.25,125,155.0
6264,B3,597.042,0.25,97,155.0
6265,F2,597.5,229/500,110,155.0
6266,G3,597.5,26/125,97,155.0
6267,D4,597.5,26/125,97,155.0
6268,G4,597.5,26/125,97,155.0
6269,B1,597.542,0.25,42,155.0
6270,E-3,597.542,0.25,42,155.0
6271,A4,597.542,0.25,42,155.0
6272,G#5,597.542,0.25,42,155.0
6273,F1,598.0,729/500,110,155.0
6274,G4,598.042,479/500,111,155.0
6275,B3,598.042,979/500,111,155.0
6276,D4,598.042,979/500,111,155.0
6277,B1,598.042,0.25,76,155.0
6278,C#2,598.042,0.25,76,155.0
6279,B-2,598.042,0.25,76,155.0
6280,B3,598.042,0.25,76,155.0
6281,A4,598.042,0.25,76,155.0
6282,A5,598.042,0.25,76,155.0
6283,G3,598.5,26/125,97,155.0
6284,D4,598.5,26/125,97,155.0
6285,G4,598.5,26/125,97,155.0
6286,D4,599.0,26/125,97,155.0
6287,D5,599.0,26/125,97,155.0
6288,C#2,599.042,0.25,121,155.0
6289,B3,599.042,0.25,121,155.0
6290,F1,599.5,229/500,110,155.0
6291,E-3,599.542,0.25,46,155.0
6292,G#5,599.542,0.25,46,155.0
6293,B-1,600.0,729/500,110,155.0
6294,E-4,600.0,26/125,97,155.0
6295,G#4,600.0,26/125,97,155.0
6296,C5,600.0,26/125,97,155.0
6297,B-3,600.042,1979/500,111,155.0
6298,G4,600.042,0.5,111,155.0
6299,G#3,600.042,1979/500,111,155.0
6300,C4,600.042,1979/500,111,155.0
6301,E-4,600.042,1979/500,111,155.0
6302,C5,600.042,1979/500,111,155.0
6303,B1,600.042,0.25,63,155.0
6304,B3,600.042,0.25,63,155.0
6305,A4,600.042,0.25,63,155.0
6306,A5,600.042,0.25,63,155.0
6307,B-2,600.542,0.25,104,155.0
6308,C#2,601.042,0.25,110,155.0
6309,B3,601.042,0.25,110,155.0
6310,B-1,601.5,229/500,110,155.0
6311,E-4,601.5,26/125,97,155.0
6312,G#4,601.5,26/125,97,155.0
6313,C5,601.5,26/125,97,155.0
6314,B1,601.542,0.25,59,155.0
6315,E-3,601.542,0.25,59,155.0
6316,A3,601.542,0.25,59,155.0
6317,A4,601.542,0.25,59,155.0
6318,G#5,601.542,0.25,59,155.0
6319,G#1,602.0,229/500,110,155.0
6320,B1,602.042,0.25,80,155.0
6321,B3,602.042,0.25,80,155.0
6322,A4,602.042,0.25,80,155.0
6323,A5,602.042,0.25,80,155.0
6324,B-1,602.5,229/500,110,155.0
6325,C4,602.5,26/125,97,155.0
6326,E-4,602.5,26/125,97,155.0
6327,G#4,602.5,26/125,97,155.0
6328,B2,602.542,0.25,107,155.0
6329,G#1,603.0,229/500,110,155.0
6330,B2,603.042,0.25,98,155.0
6331,B3,603.042,0.25,98,155.0
6332,G1,603.5,229/500,110,155.0
6333,B-3,603.5,26/125,97,155.0
6334,G#4,603.5,26/125,97,155.0
6335,G4,603.5,0.5,97,155.0
6336,B-4,603.5,0.5,97,155.0
6337,E-5,603.5,0.5,97,155.0
6338,C#2,603.542,0.25,80,155.0
6339,D2,603.542,0.25,80,155.0
6340,E-3,603.542,0.25,80,155.0
6341,G#5,603.542,0.25,80,155.0
6342,F1,604.0,229/500,110,155.0
6343,B-3,604.0,1.0,111,155.0
6344,G4,604.0,26/125,97,155.0
6345,B-4,604.0,26/125,97,155.0
6346,E-5,604.0,26/125,97,155.0
6347,B-3,604.042,479/500,111,155.0
6348,C4,604.042,979/500,111,155.0
6349,E-4,604.042,979/500,111,155.0
6350,G4,604.042,979/500,111,155.0
6351,G4,604.042,979/500,111,155.0
6352,C5,604.042,979/500,111,155.0
6353,B1,604.042,0.25,60,155.0
6354,B3,604.042,0.25,60,155.0
6355,A4,604.042,0.25,60,155.0
6356,A5,604.042,0.25,60,155.0
6357,G1,604.5,229/500,110,155.0
6358,B-3,604.5,26/125,97,155.0
6359,G4,604.5,26/125,97,155.0
6360,G#4,604.5,26/125,97,155.0
6361,B-4,604.5,26/125,97,155.0
6362,E-5,604.5,26/125,97,155.0
6363,C#2,604.542,0.25,119,155.0
6364,D3,604.542,0.25,119,155.0
6365,G#1,605.0,229/500,110,155.0
6366,B-4,605.0,177/250,97,155.0
6367,B-3,605.0,26/125,97,155.0
6368,G#4,605.0,26/125,97,155.0
6369,G4,605.0,229/500,97,155.0
6370,E-5,605.0,229/500,97,155.0
6371,B3,605.042,0.25,97,155.0
6372,B-1,605.5,229/500,110,155.0
6373,B1,605.542,0.25,54,155.0
6374,D2,605.542,0.25,54,155.0
6375,E-3,605.542,0.25,54,155.0
6376,A4,605.542,0.25,54,155.0
6377,G#5,605.542,0.25,54,155.0
6378,D2,605.708,0.25,63,155.0
6379,D2,605.875,0.25,62,155.0
6380,B1,606.0,479/500,110,155.0
6381,B3,606.0,26/125,97,155.0
6382,F4,606.0,26/125,97,155.0
6383,B-4,606.0,229/500,97,155.0
6384,D5,606.0,229/500,97,155.0
6385,G#3,606.042,979/500,111,155.0
6386,B3,606.042,979/500,111,155.0
6387,D4,606.042,979/500,111,155.0
6388,F4,606.042,979/500,111,155.0
6389,G4,606.042,729/500,111,155.0
6390,B4,606.042,729/500,111,155.0
6391,B1,606.042,0.25,79,155.0
6392,C#2,606.042,0.25,79,155.0
6393,D2,606.042,0.25,79,155.0
6394,B-2,606.042,0.25,79,155.0
6395,B3,606.042,0.25,79,155.0
6396,A4,606.042,0.25,79,155.0
6397,A5,606.042,0.25,79,155.0
6398,D2,606.542,0.25,107,155.0
6399,D2,607.0,229/500,110,155.0
6400,B3,607.0,26/125,97,155.0
6401,F4,607.0,26/125,97,155.0
6402,B-4,607.0,26/125,97,155.0
6403,D5,607.0,26/125,97,155.0
6404,C#2,607.042,0.25,116,155.0
6405,D2,607.042,0.25,116,155.0
6406,B3,607.042,0.25,116,155.0
6407,B1,607.5,229/500,110,155.0
6408,B1,607.542,0.25,72,155.0
6409,C#3,607.542,0.25,72,155.0
6410,E-3,607.542,0.25,72,155.0
6411,G#5,607.542,0.25,72,155.0
6412,C2,608.0,479/500,110,155.0
6413,E-4,608.0,26/125,85,155.0
6414,G4,608.0,26/125,85,155.0
6415,B-4,608.0,26/125,85,155.0
6416,B-3,608.042,1229/500,111,155.0
6417,C4,608.042,1979/500,111,155.0
6418,E-4,608.042,1979/500,111,155.0
6419,G4,608.042,1979/500,111,155.0
6420,B1,608.042,0.25,73,155.0
6421,C#3,608.042,0.25,73,155.0
6422,A3,608.042,0.25,73,155.0
6423,B3,608.042,0.25,73,155.0
6424,A4,608.042,0.25,73,155.0
6425,A5,608.042,0.25,73,155.0
6426,F5,608.5,26/125,109,155.0
6427,F#5,608.75,26/125,109,155.0
6428,F5,609.0,26/125,109,155.0
6429,C#2,609.042,0.25,110,155.0
6430,B3,609.042,0.25,110,155.0
6431,E-5,609.25,26/125,109,155.0
6432,C2,609.5,0.25,110,155.0
6433,C5,609.5,26/125,109,155.0
6434,B1,609.542,0.25,47,155.0
6435,E-3,609.542,0.25,47,155.0
6436,A4,609.542,0.25,47,155.0
6437,G#5,609.542,0.25,47,155.0
6438,C2,610.0,479/500,110,155.0
6439,E-4,610.0,26/125,91,155.0
6440,G4,610.0,26/125,91,155.0
6441,B-4,610.0,26/125,91,155.0
6442,E-5,610.0,26/125,91,155.0
6443,B1,610.042,0.25,80,155.0
6444,B3,610.042,0.25,80,155.0
6445,A4,610.042,0.25,80,155.0
6446,A5,610.042,0.25,80,155.0
6447,B-3,610.542,479/500,111,155.0
6448,F5,611.0,26/125,109,155.0
6449,B3,611.042,0.25,100,155.0
6450,C2,611.5,0.25,110,155.0
6451,C5,611.542,229/500,111,155.0
6452,G#3,611.542,229/500,111,155.0
6453,C#4,611.542,229/500,111,155.0
6454,F4,611.542,229/500,111,155.0
6455,C#2,611.542,0.25,71,155.0
6456,E-3,611.542,0.25,71,155.0
6457,G#5,611.542,0.25,71,155.0
6458,B-1,612.0,0.25,110,155.0
6459,E-4,612.0,26/125,109,155.0
6460,F4,612.0,26/125,109,155.0
6461,G4,612.0,26/125,109,155.0
6462,C5,612.0,26/125,109,155.0
6463,E-5,612.0,26/125,109,155.0
6464,G#3,612.0,1.5,111,155.0
6465,C#4,612.0,1.5,111,155.0
6466,F4,612.0,1.5,111,155.0
6467,C5,612.042,979/500,111,155.0
6468,B1,612.042,0.25,60,155.0
6469,B3,612.042,0.25,60,155.0
6470,A4,612.042,0.25,60,155.0
6471,A5,612.042,0.25,60,155.0
6472,B-1,612.5,229/500,110,155.0
6473,C#2,612.542,0.25,125,155.0
6474,E-1,613.0,229/500,110,155.0
6475,B3,613.042,0.25,97,155.0
6476,F1,613.5,229/500,110,155.0
6477,A4,613.542,229/500,111,155.0
6478,B1,613.542,0.25,42,155.0
6479,E-3,613.542,0.25,42,155.0
6480,A4,613.542,0.25,42,155.0
6481,G#5,613.542,0.25,42,155.0
6482,F1,614.0,229/500,110,155.0
6483,G3,614.042,979/500,111,155.0
6484,C4,614.042,979/500,111,155.0
6485,C#4,614.042,979/500,111,155.0
6486,F4,614.042,979/500,111,155.0
6487,A4,614.042,979/500,111,155.0
6488,B1,614.042,0.25,76,155.0
6489,C#2,614.042,0.25,76,155.0
6490,B-2,614.042,0.25,76,155.0
6491,B3,614.042,0.25,76,155.0
6492,A4,614.042,0.25,76,155.0
6493,A5,614.042,0.25,76,155.0
6494,B-1,614.5,229/500,110,155.0
6495,E-4,614.5,26/125,109,155.0
6496,G4,614.5,26/125,109,155.0
6497,C5,614.5,26/125,109,155.0
6498,E-5,614.5,26/125,109,155.0
6499,E-2,615.0,479/500,110,155.0
6500,C#2,615.042,0.25,121,155.0
6501,B3,615.042,0.25,121,155.0
6502,E-4,615.5,26/125,109,155.0
6503,F4,615.5,26/125,109,155.0
6504,G4,615.5,26/125,109,155.0
6505,C5,615.5,26/125,109,155.0
6506,E-5,615.5,26/125,109,155.0
6507,E-3,615.542,0.25,46,155.0
6508,G#5,615.542,0.25,46,155.0
6509,C5,616.0,177/250,121,155.0
6510,G#1,616.0,0.25,110,155.0
6511,G3,616.042,1729/500,111,155.0
6512,B-3,616.042,1729/500,111,155.0
6513,C4,616.042,1729/500,111,155.0
6514,E-4,616.042,1729/500,111,155.0
6515,G4,616.042,1729/500,111,155.0
6516,B-4,616.042,1729/500,111,155.0
6517,B1,616.042,0.25,63,155.0
6518,B3,616.042,0.25,63,155.0
6519,A4,616.042,0.25,63,155.0
6520,A5,616.042,0.25,63,155.0
6521,G#1,616.5,0.25,110,155.0
6522,G#1,617.0,479/500,110,155.0
6523,B-3,617.0,229/500,109,155.0
6524,F4,617.0,229/500,109,155.0
6525,G4,617.0,229/500,109,155.0
6526,C5,617.0,229/500,109,155.0
6527,E-5,617.0,229/500,109,155.0
6528,C#2,617.042,0.25,110,155.0
6529,B3,617.042,0.25,110,155.0
6530,B1,617.542,0.25,47,155.0
6531,E-3,617.542,0.25,47,155.0
6532,A4,617.542,0.25,47,155.0
6533,G#5,617.542,0.25,47,155.0
6534,G#1,618.0,479/500,110,155.0
6535,B-3,618.0,229/500,109,155.0
6536,F4,618.0,229/500,109,155.0
6537,G4,618.0,229/500,109,155.0
6538,C5,618.0,229/500,109,155.0
6539,E-5,618.0,229/500,109,155.0
6540,B1,618.042,0.25,80,155.0
6541,B3,618.042,0.25,80,155.0
6542,A4,618.042,0.25,80,155.0
6543,A5,618.042,0.25,80,155.0
6544,G1,619.0,229/500,110,155.0
6545,B-3,619.0,229/500,109,155.0
6546,F4,619.0,229/500,109,155.0
6547,G4,619.0,229/500,109,155.0
6548,C5,619.0,229/500,109,155.0
6549,E-5,619.0,229/500,109,155.0
6550,B-4,619.042,479/500,127,155.0
6551,B3,619.042,0.25,100,155.0
6552,G1,619.5,0.5,110,155.0
6553,B3,619.542,229/500,111,155.0
6554,E-4,619.542,229/500,111,155.0
6555,F4,619.542,229/500,111,155.0
6556,G4,619.542,229/500,111,155.0
6557,B4,619.542,229/500,111,155.0
6558,C#2,619.542,0.25,71,155.0
6559,E-3,619.542,0.25,71,155.0
6560,G#5,619.542,0.25,71,155.0
6561,B-4,620.0,333/1000,127,155.0
6562,G1,620.0,479/500,110,155.0
6563,B3,620.0,4.0,111,155.0
6564,E-4,620.0,4.0,111,155.0
6565,F4,620.0,4.0,111,155.0
6566,G4,620.0,4.0,111,155.0
6567,B4,620.0,4.0,111,155.0
6568,B1,620.042,0.25,60,155.0
6569,B3,620.042,0.25,60,155.0
6570,A4,620.042,0.25,60,155.0
6571,A5,620.042,0.25,60,155.0
6572,F4,620.5,0.125,109,155.0
6573,E4,620.5,26/125,109,155.0
6574,B-4,620.5,26/125,109,155.0
6575,E-5,620.5,26/125,109,155.0
6576,B-5,620.5,26/125,109,155.0
6577,C#2,620.542,0.25,125,155.0
6578,B3,621.042,0.25,97,155.0
6579,G1,621.5,229/500,110,155.0
6580,E-4,621.5,151/125,109,155.0
6581,F4,621.5,151/125,109,155.0
6582,E-5,621.5,151/125,109,155.0
6583,B-4,621.5,479/500,109,155.0
6584,B-5,621.5,479/500,109,155.0
6585,B1,621.542,0.25,42,155.0
6586,E-3,621.542,0.25,42,155.0
6587,A4,621.542,0.25,42,155.0
6588,G#5,621.542,0.25,42,155.0
6589,B1,622.0,229/500,110,155.0
6590,B1,622.042,0.25,76,155.0
6591,C#2,622.042,0.25,76,155.0
6592,B-2,622.042,0.25,76,155.0
6593,B3,622.042,0.25,76,155.0
6594,A4,622.042,0.25,76,155.0
6595,A5,622.042,0.25,76,155.0
6596,D2,622.5,229/500,110,155.0
6597,F4,622.542,0.5,81,155.0
6598,E-4,622.958,271/500,81,155.0
6599,G2,623.0,479/500,110,155.0
6600,E-5,623.0,229/500,109,155.0
6601,E-4,623.0,26/125,109,155.0
6602,F4,623.0,26/125,109,155.0
6603,G#4,623.0,26/125,109,155.0
6604,G#5,623.0,26/125,109,155.0
6605,C#2,623.042,0.25,121,155.0
6606,B3,623.042,0.25,121,155.0
6607,E-3,623.542,0.25,46,155.0
6608,G#5,623.542,0.25,46,155.0
6609,C2,624.0,729/500,110,155.0
6610,B-3,624.0,26/125,109,155.0
6611,E-4,624.0,26/125,109,155.0
6612,G4,624.0,26/125,109,155.0
6613,G5,624.0,26/125,109,155.0
6614,F4,624.042,1167/1000,81,155.0
6615,B-3,624.042,1729/500,111,155.0
6616,C4,624.042,1479/500,111,155.0
6617,E-4,624.042,1479/500,111,155.0
6618,G4,624.042,1479/500,111,155.0
6619,B-4,624.042,1479/500,111,155.0
6620,B1,624.042,0.25,63,155.0
6621,B3,624.042,0.25,63,155.0
6622,A4,624.042,0.25,63,155.0
6623,A5,624.042,0.25,63,155.0
6624,C#2,625.042,0.25,110,155.0
6625,B3,625.042,0.25,110,155.0
6626,C3,625.5,979/500,110,155.0
6627,G3,625.5,26/125,109,155.0
6628,B-3,625.5,26/125,109,155.0
6629,E-4,625.5,26/125,109,155.0
6630,E-5,625.5,26/125,109,155.0
6631,B1,625.542,0.25,47,155.0
6632,E-3,625.542,0.25,47,155.0
6633,A4,625.542,0.25,47,155.0
6634,G#5,625.542,0.25,47,155.0
6635,B1,626.042,0.25,80,155.0
6636,B3,626.042,0.25,80,155.0
6637,A4,626.042,0.25,80,155.0
6638,A5,626.042,0.25,80,155.0
6639,E-4,626.125,479/500,81,155.0
6640,G4,626.5,26/125,109,155.0
6641,C5,626.5,26/125,109,155.0
6642,E-5,626.583,26/125,109,155.0
6643,B-5,626.667,26/125,109,155.0
6644,B3,627.042,0.25,100,155.0
6645,F2,627.5,0.5,110,155.0
6646,G3,627.542,229/500,111,155.0
6647,A3,627.542,229/500,111,155.0
6648,C4,627.542,229/500,111,155.0
6649,E-4,627.542,229/500,111,155.0
6650,G4,627.542,229/500,111,155.0
6651,B4,627.542,229/500,111,155.0
6652,C#2,627.542,0.25,71,155.0
6653,E-3,627.542,0.25,71,155.0
6654,G#5,627.542,0.25,71,155.0
6655,C4,627.667,333/1000,72,155.0
6656,C4,628.0,167/1000,72,155.0
6657,F2,628.0,729/500,110,155.0
6658,A3,628.0,3.5,111,155.0
6659,C4,628.0,3.5,111,155.0
6660,E-4,628.0,3.0,111,155.0
6661,G4,628.0,3.0,111,155.0
6662,B4,628.0,3.0,111,155.0
6663,B1,628.042,0.25,60,155.0
6664,B3,628.042,0.25,60,155.0
6665,A4,628.042,0.25,60,155.0
6666,A5,628.042,0.25,60,155.0
6667,B-3,628.083,271/500,72,155.0
6668,D4,628.5,26/125,121,155.0
6669,G4,628.5,26/125,121,155.0
6670,B4,628.5,26/125,121,155.0
6671,C#2,628.542,0.25,125,155.0
6672,C4,628.542,21/500,86,155.0
6673,C4,628.542,21/500,86,155.0
6674,B3,629.042,0.25,97,155.0
6675,E-4,629.083,0.5,100,155.0
6676,F2,629.5,229/500,110,155.0
6677,C4,629.542,583/1000,100,155.0
6678,B1,629.542,0.25,42,155.0
6679,E-3,629.542,0.25,42,155.0
6680,A4,629.542,0.25,42,155.0
6681,G#5,629.542,0.25,42,155.0
6682,F2,630.0,729/500,110,155.0
6683,E-4,630.042,521/500,100,155.0
6684,B1,630.042,0.25,76,155.0
6685,C#2,630.042,0.25,76,155.0
6686,B-2,630.042,0.25,76,155.0
6687,B3,630.042,0.25,76,155.0
6688,A4,630.042,0.25,76,155.0
6689,A5,630.042,0.25,76,155.0
6690,B3,630.5,26/125,121,155.0
6691,D4,630.5,26/125,121,155.0
6692,G4,630.5,26/125,121,155.0
6693,F4,630.667,583/1000,100,155.0
6694,C#2,631.042,0.25,121,155.0
6695,B3,631.042,0.25,121,155.0
6696,G4,631.417,271/500,125,155.0
6697,C2,631.5,229/500,110,155.0
6698,E-3,631.542,0.25,46,155.0
6699,G#5,631.542,0.25,46,155.0
6700,B-1,632.0,729/500,110,155.0
6701,G4,632.0,26/125,109,155.0
6702,C5,632.0,26/125,109,155.0
6703,E-5,632.0,26/125,109,155.0
6704,F4,632.042,729/500,111,155.0
6705,G4,632.042,729/500,111,155.0
6706,G#4,632.042,729/500,111,155.0
6707,C5,632.042,729/500,111,155.0
6708,E-5,632.042,729/500,111,155.0
6709,B1,632.042,0.25,71,155.0
6710,A3,632.042,0.25,71,155.0
6711,B3,632.042,0.25,71,155.0
6712,A4,632.042,0.25,71,155.0
6713,A5,632.042,0.25,71,155.0
6714,G#4,632.25,1583/1000,127,155.0
6715,C#2,633.042,0.25,110,155.0
6716,B3,633.042,0.25,110,155.0
6717,B-1,633.5,229/500,110,155.0
6718,E-4,633.5,26/125,109,155.0
6719,G4,633.5,26/125,109,155.0
6720,C5,633.5,26/125,109,155.0
6721,F4,633.542,479/500,111,155.0
6722,E-4,633.542,729/500,111,155.0
6723,G4,633.542,729/500,111,155.0
6724,C5,633.542,729/500,111,155.0
6725,B1,633.542,0.25,54,155.0
6726,B-2,633.542,0.25,54,155.0
6727,E-3,633.542,0.25,54,155.0
6728,A4,633.542,0.25,54,155.0
6729,G#5,633.542,0.25,54,155.0
6730,B-1,634.0,979/500,110,155.0
6731,B1,634.042,0.25,80,155.0
6732,B3,634.042,0.25,80,155.0
6733,A4,634.042,0.25,80,155.0
6734,A5,634.042,0.25,80,155.0
6735,G#3,635.0,1.0,109,155.0
6736,E-4,635.0,1.0,109,155.0
6737,G4,635.0,1.0,109,155.0
6738,G#4,635.0,1.0,109,155.0
6739,C4,635.042,479/500,111,155.0
6740,E-4,635.042,479/500,111,155.0
6741,G4,635.042,479/500,111,155.0
6742,C5,635.042,479/500,111,155.0
6743,A3,635.042,0.25,96,155.0
6744,B3,635.042,0.25,96,155.0
6745,C#2,635.542,0.25,71,155.0
6746,E-3,635.542,0.25,71,155.0
6747,G#5,635.542,0.25,71,155.0
6748,B-1,636.0,229/500,110,155.0
6749,G#3,636.0,21/500,109,155.0
6750,E-4,636.0,21/500,109,155.0
6751,G4,636.0,21/500,109,155.0
6752,G#4,636.0,21/500,109,155.0
6753,C4,636.0,0.5,111,155.0
6754,E-4,636.0,0.5,111,155.0
6755,G4,636.0,0.5,111,155.0
6756,C5,636.0,0.5,111,155.0
6757,B1,636.042,0.25,60,155.0
6758,B3,636.042,0.25,60,155.0
6759,A4,636.042,0.25,60,155.0
6760,A5,636.042,0.25,60,155.0
6761,B-1,636.5,479/500,110,155.0
6762,G3,636.5,26/125,109,155.0
6763,C4,636.5,26/125,109,155.0
6764,E-4,636.5,26/125,109,155.0
6765,G4,636.5,26/125,109,155.0
6766,C5,636.5,26/125,109,155.0
6767,E-5,636.5,26/125,109,155.0
6768,B-3,636.542,729/500,111,155.0
6769,C4,636.542,729/500,111,155.0
6770,E-4,636.542,729/500,111,155.0
6771,C#2,636.542,0.25,116,155.0
6772,D2,636.542,0.25,116,155.0
6773,B3,637.042,0.25,97,155.0
6774,B1,637.5,979/500,110,155.0
6775,B1,637.542,0.25,55,155.0
6776,D3,637.542,0.25,55,155.0
6777,E-3,637.542,0.25,55,155.0
6778,A4,637.542,0.25,55,155.0
6779,G#5,637.542,0.25,55,155.0
6780,F5,638.0,229/500,109,155.0
6781,G3,638.0,26/125,109,155.0
6782,C4,638.0,26/125,109,155.0
6783,F4,638.0,26/125,109,155.0
6784,G4,638.0,26/125,109,155.0
6785,D5,638.0,26/125,109,155.0
6786,G#3,638.042,479/500,111,155.0
6787,B3,638.042,479/500,111,155.0
6788,F4,638.042,479/500,111,155.0
6789,B1,638.042,0.25,80,155.0
6790,C#2,638.042,0.25,80,155.0
6791,B-2,638.042,0.25,80,155.0
6792,C3,638.042,0.25,80,155.0
6793,B3,638.042,0.25,80,155.0
6794,A4,638.042,0.25,80,155.0
6795,A5,638.042,0.25,80,155.0
6796,B2,638.542,0.25,107,155.0
6797,C4,639.0,26/125,109,155.0
6798,G4,639.0,26/125,109,155.0
6799,D5,639.0,26/125,109,155.0
6800,G5,639.0,26/125,109,155.0
6801,G#3,639.042,479/500,111,155.0
6802,B3,639.042,479/500,111,155.0
6803,G4,639.042,479/500,111,155.0
6804,C#2,639.042,0.25,119,155.0
6805,A2,639.042,0.25,119,155.0
6806,B2,639.042,0.25,119,155.0
6807,B3,639.042,0.25,119,155.0
6808,B1,639.5,229/500,110,155.0
6809,E-3,639.542,0.25,46,155.0
6810,G#5,639.542,0.25,46,155.0
6811,E-4,640.0,0.375,127,155.0
6812,C2,640.0,729/500,110,155.0
6813,B-3,640.042,1229/500,111,155.0
6814,C4,640.042,1979/500,111,155.0
6815,E-4,640.042,1979/500,111,155.0
6816,G4,640.042,1979/500,111,155.0
6817,B1,640.042,0.25,68,155.0
6818,C#3,640.042,0.25,68,155.0
6819,B3,640.042,0.25,68,155.0
6820,A4,640.042,0.25,68,155.0
6821,A5,640.042,0.25,68,155.0
6822,F4,640.5,271/500,125,155.0
6823,B-3,640.5,229/500,109,155.0
6824,D4,640.5,26/125,109,155.0
6825,G4,640.5,26/125,109,155.0
6826,B-4,640.5,26/125,109,155.0
6827,E-4,641.0,26/125,87,155.0
6828,B-3,641.0,229/500,87,155.0
6829,G4,641.0,229/500,87,155.0
6830,C#2,641.042,0.25,110,155.0
6831,B3,641.042,0.25,110,155.0
6832,G4,641.5,73/250,110,155.0
6833,C2,641.5,229/500,110,155.0
6834,B-3,641.5,26/125,109,155.0
6835,D4,641.5,229/500,109,155.0
6836,G4,641.5,229/500,109,155.0
6837,B-4,641.5,229/500,109,155.0
6838,B1,641.542,0.25,47,155.0
6839,E-3,641.542,0.25,47,155.0
6840,A4,641.542,0.25,47,155.0
6841,G#5,641.542,0.25,47,155.0
6842,C2,642.0,229/500,110,155.0
6843,B1,642.042,0.25,80,155.0
6844,B3,642.042,0.25,80,155.0
6845,A4,642.042,0.25,80,155.0
6846,A5,642.042,0.25,80,155.0
6847,C2,642.5,229/500,110,155.0
6848,B-3,642.5,26/125,109,155.0
6849,D4,642.5,229/500,109,155.0
6850,G4,642.5,229/500,109,155.0
6851,B-4,642.5,229/500,109,155.0
6852,G#4,642.542,333/1000,120,155.0
6853,B-3,642.542,479/500,111,155.0
6854,B1,643.0,229/500,110,155.0
6855,B3,643.042,0.25,100,155.0
6856,B-1,643.5,0.5,110,155.0
6857,F3,643.5,0.5,101,155.0
6858,F4,643.5,26/125,101,155.0
6859,G#3,643.5,229/500,101,155.0
6860,B-3,643.5,229/500,101,155.0
6861,C#4,643.5,229/500,101,155.0
6862,B-4,643.542,0.375,123,155.0
6863,G#3,643.542,229/500,111,155.0
6864,C#4,643.542,229/500,111,155.0
6865,F4,643.542,229/500,111,155.0
6866,C#2,643.542,0.25,71,155.0
6867,E-3,643.542,0.25,71,155.0
6868,G#5,643.542,0.25,71,155.0
6869,B-1,644.0,729/500,110,155.0
6870,F3,644.0,26/125,101,155.0
6871,G#3,644.0,1.5,111,155.0
6872,C#4,644.0,1.5,111,155.0
6873,F4,644.0,1.5,111,155.0
6874,B1,644.042,0.25,60,155.0
6875,B3,644.042,0.25,60,155.0
6876,A4,644.042,0.25,60,155.0
6877,A5,644.042,0.25,60,155.0
6878,C#4,644.5,177/250,101,155.0
6879,F4,644.5,26/125,101,155.0
6880,G#3,644.5,479/500,101,155.0
6881,B-3,644.5,479/500,101,155.0
6882,C#2,644.542,0.25,125,155.0
6883,F4,645.0,229/500,101,155.0
6884,B3,645.042,0.25,97,155.0
6885,B-1,645.5,229/500,110,155.0
6886,B-3,645.5,26/125,101,155.0
6887,C#4,645.5,26/125,101,155.0
6888,B1,645.542,0.25,42,155.0
6889,E-3,645.542,0.25,42,155.0
6890,A4,645.542,0.25,42,155.0
6891,G#5,645.542,0.25,42,155.0
6892,E-1,646.0,229/500,110,155.0
6893,G3,646.0,229/500,101,155.0
6894,B-3,646.0,229/500,101,155.0
6895,C#4,646.0,229/500,101,155.0
6896,F4,646.0,229/500,101,155.0
6897,G3,646.042,979/500,111,155.0
6898,C4,646.042,979/500,111,155.0
6899,C#4,646.042,979/500,111,155.0
6900,F4,646.042,979/500,111,155.0
6901,B1,646.042,0.25,76,155.0
6902,C#2,646.042,0.25,76,155.0
6903,B-2,646.042,0.25,76,155.0
6904,B3,646.042,0.25,76,155.0
6905,A4,646.042,0.25,76,155.0
6906,A5,646.042,0.25,76,155.0
6907,E-1,646.5,229/500,110,155.0
6908,F1,647.0,229/500,110,155.0
6909,F4,647.0,229/500,101,155.0
6910,G3,647.0,26/125,101,155.0
6911,B-3,647.0,26/125,101,155.0
6912,C#4,647.0,26/125,101,155.0
6913,C#2,647.042,0.25,121,155.0
6914,B3,647.042,0.25,121,155.0
6915,G1,647.5,229/500,110,155.0
6916,E-3,647.542,0.25,46,155.0
6917,G#5,647.542,0.25,46,155.0
6918,G#1,648.0,729/500,110,155.0
6919,E-4,648.0,26/125,101,155.0
6920,G4,648.0,26/125,101,155.0
6921,B-4,648.0,26/125,101,155.0
6922,B-5,648.0,26/125,101,155.0
6923,E-4,648.042,583/1000,127,155.0
6924,G3,648.042,1729/500,111,155.0
6925,B-3,648.042,1729/500,111,155.0
6926,C4,648.042,1729/500,111,155.0
6927,E-4,648.042,1729/500,111,155.0
6928,B1,648.042,0.25,63,155.0
6929,B3,648.042,0.25,63,155.0
6930,A4,648.042,0.25,63,155.0
6931,A5,648.042,0.25,63,155.0
6932,F4,648.583,229/500,105,155.0
6933,C#2,649.042,0.25,110,155.0
6934,B3,649.042,0.25,110,155.0
6935,G#1,649.5,229/500,110,155.0
6936,E-4,649.5,229/500,101,155.0
6937,C4,649.5,26/125,101,155.0
6938,G4,649.5,26/125,101,155.0
6939,G5,649.5,26/125,101,155.0
6940,G4,649.542,0.375,115,155.0
6941,B1,649.542,0.25,47,155.0
6942,E-3,649.542,0.25,47,155.0
6943,A4,649.542,0.25,47,155.0
6944,G#5,649.542,0.25,47,155.0
6945,E-2,650.0,729/500,110,155.0
6946,B1,650.042,0.25,80,155.0
6947,B3,650.042,0.25,80,155.0
6948,A4,650.042,0.25,80,155.0
6949,A5,650.042,0.25,80,155.0
6950,G#3,650.5,26/125,101,155.0
6951,C4,650.5,26/125,101,155.0
6952,E-4,650.5,26/125,101,155.0
6953,E-5,650.5,26/125,101,155.0
6954,G#4,650.542,0.375,118,155.0
6955,B3,651.042,0.25,100,155.0
6956,B-4,651.458,417/1000,120,155.0
6957,G#1,651.5,229/500,110,155.0
6958,B-5,651.5,26/125,101,155.0
6959,E-4,651.5,0.5,101,155.0
6960,F4,651.5,0.5,101,155.0
6961,B-4,651.5,0.5,101,155.0
6962,B-4,651.5,0.5,101,155.0
6963,B3,651.542,229/500,111,155.0
6964,E-4,651.542,229/500,111,155.0
6965,F4,651.542,229/500,111,155.0
6966,G4,651.542,229/500,111,155.0
6967,C#2,651.542,0.25,71,155.0
6968,E-3,651.542,0.25,71,155.0
6969,G#5,651.542,0.25,71,155.0
6970,G1,652.0,729/500,110,155.0
6971,E-4,652.0,229/500,101,155.0
6972,F4,652.0,229/500,101,155.0
6973,B-4,652.0,229/500,101,155.0
6974,B-4,652.0,229/500,101,155.0
6975,B3,652.0,2.0,111,155.0
6976,E-4,652.0,2.0,111,155.0
6977,F4,652.0,2.0,111,155.0
6978,G4,652.0,2.0,111,155.0
6979,B1,652.042,0.25,60,155.0
6980,B3,652.042,0.25,60,155.0
6981,A4,652.042,0.25,60,155.0
6982,A5,652.042,0.25,60,155.0
6983,G4,652.5,26/125,101,155.0
6984,G3,652.5,229/500,101,155.0
6985,C4,652.5,229/500,101,155.0
6986,C#2,652.542,0.25,125,155.0
6987,B3,653.042,0.25,97,155.0
6988,G1,653.5,229/500,110,155.0
6989,F4,653.5,229/500,101,155.0
6990,B3,653.5,26/125,101,155.0
6991,E-4,653.5,26/125,101,155.0
6992,B1,653.542,0.25,42,155.0
6993,E-3,653.542,0.25,42,155.0
6994,A4,653.542,0.25,42,155.0
6995,G#5,653.542,0.25,42,155.0
6996,F3,653.75,26/125,101,155.0
6997,B1,654.0,729/500,110,155.0
6998,G#3,654.042,979/500,111,155.0
6999,B3,654.042,979/500,111,155.0
7000,D4,654.042,979/500,111,155.0
7001,F4,654.042,979/500,111,155.0
7002,B1,654.042,0.25,76,155.0
7003,C#2,654.042,0.25,76,155.0
7004,B-2,654.042,0.25,76,155.0
7005,B3,654.042,0.25,76,155.0
7006,A4,654.042,0.25,76,155.0
7007,A5,654.042,0.25,76,155.0
7008,B-5,655.0,229/500,101,155.0
7009,C#2,655.042,0.25,116,155.0
7010,A3,655.042,0.25,116,155.0
7011,B3,655.042,0.25,116,155.0
7012,B1,655.5,229/500,110,155.0
7013,E-3,655.542,0.25,46,155.0
7014,G#5,655.542,0.25,46,155.0
7015,E-4,656.0,229/500,120,155.0
7016,C2,656.0,729/500,110,155.0
7017,B-3,656.0,229/500,113,155.0
7018,E-4,656.0,729/500,113,155.0
7019,G4,656.0,0.25,113,155.0
7020,B-3,656.042,1729/500,111,155.0
7021,C4,656.042,1479/500,111,155.0
7022,E-4,656.042,1479/500,111,155.0
7023,G4,656.042,1479/500,111,155.0
7024,B1,656.042,0.25,63,155.0
7025,B3,656.042,0.25,63,155.0
7026,A4,656.042,0.25,63,155.0
7027,A5,656.042,0.25,63,155.0
7028,F4,656.5,583/1000,105,155.0
7029,C#2,657.042,0.25,110,155.0
7030,B3,657.042,0.25,110,155.0
7031,C2,657.5,229/500,110,155.0
7032,C4,657.5,479/500,113,155.0
7033,B-3,657.5,0.25,113,155.0
7034,G4,657.5,0.25,113,155.0
7035,G4,657.542,417/1000,107,155.0
7036,B1,657.542,0.25,47,155.0
7037,E-3,657.542,0.25,47,155.0
7038,A4,657.542,0.25,47,155.0
7039,G#5,657.542,0.25,47,155.0
7040,C2,658.0,729/500,110,155.0
7041,B1,658.042,0.25,80,155.0
7042,B3,658.042,0.25,80,155.0
7043,A4,658.042,0.25,80,155.0
7044,A5,658.042,0.25,80,155.0
7045,E-4,658.5,177/250,113,155.0
7046,E-5,658.5,229/500,113,155.0
7047,B-3,658.5,0.25,113,155.0
7048,G4,658.5,0.25,113,155.0
7049,B-4,658.542,583/1000,115,155.0
7050,G5,659.0,229/500,113,155.0
7051,B3,659.042,0.25,100,155.0
7052,C2,659.5,229/500,110,155.0
7053,D4,659.5,0.5,113,155.0
7054,F4,659.5,0.5,113,155.0
7055,B4,659.5,0.5,113,155.0
7056,D5,659.5,0.5,113,155.0
7057,B4,659.542,73/250,105,155.0
7058,G3,659.542,229/500,111,155.0
7059,A3,659.542,229/500,111,155.0
7060,C4,659.542,229/500,111,155.0
7061,E-4,659.542,229/500,111,155.0
7062,G4,659.542,229/500,111,155.0
7063,C#2,659.542,0.25,71,155.0
7064,E-3,659.542,0.25,71,155.0
7065,G#5,659.542,0.25,71,155.0
7066,C5,659.667,333/1000,127,155.0
7067,C5,660.0,3.625,127,155.0
7068,F2,660.0,479/500,110,155.0
7069,D4,660.0,479/500,113,155.0
7070,F4,660.0,479/500,113,155.0
7071,B4,660.0,479/500,113,155.0
7072,D5,660.0,479/500,113,155.0
7073,A3,660.0,3.5,111,155.0
7074,C4,660.0,3.5,111,155.0
7075,E-4,660.0,3.0,111,155.0
7076,G4,660.0,3.0,111,155.0
7077,B1,660.042,0.25,60,155.0
7078,B3,660.042,0.25,60,155.0
7079,A4,660.042,0.25,60,155.0
7080,A5,660.042,0.25,60,155.0
7081,C#2,660.542,0.25,125,155.0
7082,E-2,661.0,229/500,110,155.0
7083,B3,661.042,0.25,97,155.0
7084,C2,661.5,229/500,110,155.0
7085,G4,661.5,0.25,113,155.0
7086,B5,661.5,229/500,113,155.0
7087,B1,661.542,0.25,42,155.0
7088,E-3,661.542,0.25,42,155.0
7089,A4,661.542,0.25,42,155.0
7090,G#5,661.542,0.25,42,155.0
7091,F1,662.0,979/500,110,155.0
7092,B1,662.042,0.25,76,155.0
7093,C#2,662.042,0.25,76,155.0
7094,B-2,662.042,0.25,76,155.0
7095,B3,662.042,0.25,76,155.0
7096,A4,662.042,0.25,76,155.0
7097,A5,662.042,0.25,76,155.0
7098,G4,662.5,0.25,113,155.0
7099,F4,662.5,229/500,113,155.0
7100,B4,662.5,229/500,113,155.0
7101,G5,662.5,229/500,113,155.0
7102,C#2,663.042,0.25,121,155.0
7103,B3,663.042,0.25,121,155.0
7104,G4,663.458,167/1000,105,155.0
7105,E-3,663.542,0.25,46,155.0
7106,G#5,663.542,0.25,46,155.0
7107,F4,663.667,73/250,105,155.0
7108,E-4,664.0,1.5,92,155.0
7109,B-1,664.0,729/500,110,155.0
7110,B-3,664.042,1979/500,111,155.0
7111,G#3,664.042,1979/500,111,155.0
7112,C4,664.042,1979/500,111,155.0
7113,E-4,664.042,1979/500,111,155.0
7114,B1,664.042,0.25,63,155.0
7115,B3,664.042,0.25,63,155.0
7116,A4,664.042,0.25,63,155.0
7117,A5,664.042,0.25,63,155.0
7118,C4,664.5,229/500,113,155.0
7119,E-4,664.5,229/500,113,155.0
7120,G4,664.5,229/500,113,155.0
7121,E-5,664.5,229/500,113,155.0
7122,E-6,664.5,229/500,113,155.0
7123,C#2,665.042,0.25,110,155.0
7124,B3,665.042,0.25,110,155.0
7125,B-2,665.5,229/500,110,155.0
7126,E-6,665.5,0.25,113,155.0
7127,C4,665.5,229/500,113,155.0
7128,E-4,665.5,229/500,113,155.0
7129,G4,665.5,229/500,113,155.0
7130,E-5,665.5,229/500,113,155.0
7131,F4,665.542,0.5,105,155.0
7132,B1,665.542,0.25,47,155.0
7133,E-3,665.542,0.25,47,155.0
7134,A4,665.542,0.25,47,155.0
7135,G#5,665.542,0.25,47,155.0
7136,B-2,666.0,729/500,110,155.0
7137,B1,666.042,0.25,80,155.0
7138,B3,666.042,0.25,80,155.0
7139,A4,666.042,0.25,80,155.0
7140,A5,666.042,0.25,80,155.0
7141,E-5,666.5,0.25,113,155.0
7142,C4,666.5,229/500,113,155.0
7143,E-4,666.5,229/500,113,155.0
7144,G4,666.5,229/500,113,155.0
7145,E-6,666.5,229/500,113,155.0
7146,B3,667.042,0.25,100,155.0
7147,B-1,667.5,0.25,110,155.0
7148,E-5,667.5,229/500,113,155.0
7149,E-6,667.5,0.25,113,155.0
7150,C4,667.5,0.5,113,155.0
7151,E-4,667.5,0.5,113,155.0
7152,G4,667.5,0.5,113,155.0
7153,C#2,667.542,0.25,71,155.0
7154,E-3,667.542,0.25,71,155.0
7155,G#5,667.542,0.25,71,155.0
7156,B-1,668.0,229/500,110,155.0
7157,B-3,668.0,1.0,111,155.0
7158,C4,668.0,0.375,113,155.0
7159,E-4,668.0,0.375,113,155.0
7160,G4,668.0,0.375,113,155.0
7161,B1,668.042,0.25,60,155.0
7162,B3,668.042,0.25,60,155.0
7163,A4,668.042,0.25,60,155.0
7164,A5,668.042,0.25,60,155.0
7165,F4,668.5,0.5,120,155.0
7166,B-2,668.5,729/500,110,155.0
7167,C4,668.5,229/500,113,155.0
7168,E-4,668.5,229/500,113,155.0
7169,G4,668.5,229/500,113,155.0
7170,E-5,668.5,0.25,113,155.0
7171,E-6,668.5,0.25,113,155.0
7172,E-4,668.542,229/500,111,155.0
7173,C#2,668.542,0.25,116,155.0
7174,D2,668.542,0.25,116,155.0
7175,C4,669.0,229/500,113,155.0
7176,E-4,669.0,229/500,113,155.0
7177,G4,669.0,229/500,113,155.0
7178,E-5,669.0,0.25,113,155.0
7179,E-6,669.0,0.25,113,155.0
7180,D4,669.042,729/500,111,155.0
7181,B3,669.042,0.25,97,155.0
7182,E-4,669.5,0.625,120,155.0
7183,C4,669.5,0.25,113,155.0
7184,E-4,669.5,0.25,113,155.0
7185,G4,669.5,0.25,113,155.0
7186,E-5,669.5,0.25,113,155.0
7187,E-6,669.5,0.25,113,155.0
7188,B1,669.542,0.25,56,155.0
7189,C3,669.542,0.25,56,155.0
7190,E-3,669.542,0.25,56,155.0
7191,A4,669.542,0.25,56,155.0
7192,G#5,669.542,0.25,56,155.0
7193,B1,670.0,229/500,110,155.0
7194,E-4,670.0,0.25,113,155.0
7195,C4,670.0,229/500,113,155.0
7196,G4,670.0,229/500,113,155.0
7197,E-6,670.0,229/500,113,155.0
7198,D4,670.042,229/500,111,155.0
7199,B1,670.042,0.25,76,155.0
7200,C#2,670.042,0.25,76,155.0
7201,B-2,670.042,0.25,76,155.0
7202,B3,670.042,0.25,76,155.0
7203,A4,670.042,0.25,76,155.0
7204,A5,670.042,0.25,76,155.0
7205,D4,670.458,0.875,120,155.0
7206,B2,670.5,229/500,110,155.0
7207,D4,670.542,0.5,111,155.0
7208,B2,670.542,0.25,124,155.0
7209,G#3,670.542,729/500,111,155.0
7210,B3,670.542,729/500,111,155.0
7211,F4,670.542,729/500,111,155.0
7212,B2,671.0,229/500,110,155.0
7213,G#4,671.0,0.25,113,155.0
7214,D4,671.0,229/500,113,155.0
7215,F4,671.0,229/500,113,155.0
7216,F6,671.0,229/500,113,155.0
7217,C#2,671.042,0.25,123,155.0
7218,A2,671.042,0.25,123,155.0
7219,B3,671.042,0.25,123,155.0
7220,B3,671.458,271/500,105,155.0
7221,B1,671.5,229/500,110,155.0
7222,E-3,671.542,0.25,46,155.0
7223,G#5,671.542,0.25,46,155.0
7224,B-3,671.958,21/500,105,155.0
7225,B3,672.0,83/1000,105,155.0
7226,B-3,672.0,1.0,105,155.0
7227,C3,672.0,229/500,110,155.0
7228,B-3,672.0,229/500,112,155.0
7229,E-5,672.0,229/500,112,155.0
7230,E-6,672.0,229/500,112,155.0
7231,E-4,672.0,479/500,110,155.0
7232,G4,672.0,479/500,110,155.0
7233,B-3,672.042,1229/500,111,155.0
7234,C4,672.042,1979/500,111,155.0
7235,E-4,672.042,1979/500,111,155.0
7236,G4,672.042,1979/500,111,155.0
7237,B1,672.042,0.25,73,155.0
7238,C#3,672.042,0.25,73,155.0
7239,A3,672.042,0.25,73,155.0
7240,B3,672.042,0.25,73,155.0
7241,A4,672.042,0.25,73,155.0
7242,A5,672.042,0.25,73,155.0
7243,G2,672.5,229/500,110,155.0
7244,C2,673.0,229/500,110,155.0
7245,B-3,673.0,229/500,112,155.0
7246,E-5,673.0,229/500,112,155.0
7247,E-6,673.0,229/500,112,155.0
7248,E-4,673.0,479/500,110,155.0
7249,G4,673.0,479/500,110,155.0
7250,C#2,673.042,0.25,110,155.0
7251,B3,673.042,0.25,110,155.0
7252,G#3,673.083,0.625,105,155.0
7253,B1,673.542,0.25,47,155.0
7254,E-3,673.542,0.25,47,155.0
7255,A4,673.542,0.25,47,155.0
7256,G#5,673.542,0.25,47,155.0
7257,G3,674.0,1417/1000,74,155.0
7258,C2,674.0,729/500,110,155.0
7259,B1,674.042,0.25,84,155.0
7260,C#3,674.042,0.25,84,155.0
7261,A3,674.042,0.25,84,155.0
7262,B3,674.042,0.25,84,155.0
7263,A4,674.042,0.25,84,155.0
7264,A5,674.042,0.25,84,155.0
7265,B-3,674.5,0.125,111,155.0
7266,E-4,674.5,0.125,111,155.0
7267,G4,674.5,0.125,111,155.0
7268,E-5,674.5,0.125,111,155.0
7269,E-6,674.5,0.125,111,155.0
7270,B-3,674.542,479/500,111,155.0
7271,B3,675.042,0.25,100,155.0
7272,B-2,675.5,229/500,110,155.0
7273,B-3,675.5,0.125,111,155.0
7274,C#4,675.5,0.125,111,155.0
7275,F4,675.5,0.125,111,155.0
7276,C#5,675.5,0.125,111,155.0
7277,C#6,675.5,0.125,111,155.0
7278,G#3,675.542,229/500,111,155.0
7279,C#4,675.542,229/500,111,155.0
7280,F4,675.542,229/500,111,155.0
7281,C#2,675.542,0.25,71,155.0
7282,E-3,675.542,0.25,71,155.0
7283,G#5,675.542,0.25,71,155.0
7284,B-2,676.0,229/500,110,155.0
7285,G#3,676.0,1.5,111,155.0
7286,C#4,676.0,1.5,111,155.0
7287,F4,676.0,1.5,111,155.0
7288,B1,676.042,0.25,60,155.0
7289,B3,676.042,0.25,60,155.0
7290,A4,676.042,0.25,60,155.0
7291,A5,676.042,0.25,60,155.0
7292,C3,676.5,229/500,110,155.0
7293,B-3,676.5,229/500,110,155.0
7294,C#4,676.5,229/500,110,155.0
7295,F4,676.5,229/500,110,155.0
7296,C#5,676.5,479/500,113,155.0
7297,C#6,676.5,479/500,113,155.0
7298,C#2,676.542,0.25,125,155.0
7299,B-2,677.0,229/500,110,155.0
7300,B3,677.042,0.25,97,155.0
7301,G#2,677.5,229/500,110,155.0
7302,B-3,677.5,479/500,110,155.0
7303,C#4,677.5,479/500,110,155.0
7304,F4,677.5,479/500,110,155.0
7305,C#5,677.5,0.25,113,155.0
7306,C#6,677.5,0.25,113,155.0
7307,G4,677.542,0.875,127,155.0
7308,B1,677.542,0.25,42,155.0
7309,E-3,677.542,0.25,42,155.0
7310,A4,677.542,0.25,42,155.0
7311,G#5,677.542,0.25,42,155.0
7312,G2,678.0,229/500,110,155.0
7313,C#5,678.0,229/500,113,155.0
7314,C#6,678.0,229/500,113,155.0
7315,G3,678.042,979/500,111,155.0
7316,C4,678.042,979/500,111,155.0
7317,C#4,678.042,979/500,111,155.0
7318,F4,678.042,979/500,111,155.0
7319,B1,678.042,0.25,76,155.0
7320,C#2,678.042,0.25,76,155.0
7321,B-2,678.042,0.25,76,155.0
7322,B3,678.042,0.25,76,155.0
7323,A4,678.042,0.25,76,155.0
7324,A5,678.042,0.25,76,155.0
7325,E-2,678.5,229/500,110,155.0
7326,B-3,678.5,0.25,110,155.0
7327,C#4,678.5,0.25,110,155.0
7328,F4,678.5,229/500,91,155.0
7329,E-5,678.5,229/500,91,155.0
7330,C#6,678.5,229/500,91,155.0
7331,E-4,678.583,229/500,105,155.0
7332,B-1,679.0,229/500,110,155.0
7333,C6,679.0,479/500,113,155.0
7334,B-3,679.0,229/500,111,155.0
7335,C#4,679.0,229/500,111,155.0
7336,F4,679.0,229/500,111,155.0
7337,C#5,679.0,229/500,111,155.0
7338,C#2,679.042,0.25,121,155.0
7339,B3,679.042,0.25,121,155.0
7340,C4,679.125,0.875,90,155.0
7341,A1,679.5,229/500,110,155.0
7342,E-3,679.542,0.25,46,155.0
7343,G#5,679.542,0.25,46,155.0
7344,C4,680.0,0.125,90,155.0
7345,G#1,680.0,729/500,110,155.0
7346,G#3,680.0,0.25,110,155.0
7347,C4,680.0,0.25,110,155.0
7348,E-4,680.0,0.25,110,155.0
7349,E-4,680.0,0.25,110,155.0
7350,G3,680.042,1729/500,111,155.0
7351,B-3,680.042,1729/500,111,155.0
7352,C4,680.042,1729/500,111,155.0
7353,E-4,680.042,1729/500,111,155.0
7354,B1,680.042,0.25,63,155.0
7355,B3,680.042,0.25,63,155.0
7356,A4,680.042,0.25,63,155.0
7357,A5,680.042,0.25,63,155.0
7358,G3,680.208,479/500,72,155.0
7359,C4,681.0,0.25,110,155.0
7360,C#2,681.042,0.25,110,155.0
7361,B3,681.042,0.25,110,155.0
7362,E-4,681.125,99/125,101,155.0
7363,C#3,681.5,229/500,110,155.0
7364,B-4,681.5,229/500,110,155.0
7365,B1,681.542,0.25,47,155.0
7366,E-3,681.542,0.25,47,155.0
7367,A4,681.542,0.25,47,155.0
7368,G#5,681.542,0.25,47,155.0
7369,C4,681.708,583/1000,72,155.0
7370,E-4,682.0,479/500,101,155.0
7371,C3,682.0,729/500,110,155.0
7372,B1,682.042,0.25,80,155.0
7373,B3,682.042,0.25,80,155.0
7374,A4,682.042,0.25,80,155.0
7375,A5,682.042,0.25,80,155.0
7376,G4,682.5,229/500,110,155.0
7377,G5,682.5,0.25,110,155.0
7378,F4,683.0,26/125,72,155.0
7379,B3,683.042,0.25,100,155.0
7380,G#1,683.5,229/500,110,155.0
7381,G#4,683.5,229/500,110,155.0
7382,E3,683.5,0.25,110,155.0
7383,B-5,683.5,0.25,110,155.0
7384,E4,683.5,0.5,110,155.0
7385,B-4,683.5,0.5,110,155.0
7386,B3,683.542,229/500,111,155.0
7387,E-4,683.542,229/500,111,155.0
7388,F4,683.542,229/500,111,155.0
7389,G4,683.542,229/500,111,155.0
7390,B-4,683.542,229/500,111,155.0
7391,C#2,683.542,0.25,71,155.0
7392,E-3,683.542,0.25,71,155.0
7393,G#5,683.542,0.25,71,155.0
7394,G1,684.0,979/500,110,155.0
7395,E4,684.0,479/500,110,155.0
7396,B-4,684.0,479/500,110,155.0
7397,B3,684.0,2.0,111,155.0
7398,E-4,684.0,2.0,111,155.0
7399,F4,684.0,2.0,111,155.0
7400,G4,684.0,2.0,111,155.0
7401,B-4,684.0,2.0,111,155.0
7402,B1,684.042,0.25,60,155.0
7403,B3,684.042,0.25,60,155.0
7404,A4,684.042,0.25,60,155.0
7405,A5,684.042,0.25,60,155.0
7406,E4,684.5,229/500,110,155.0
7407,G4,684.5,0.25,110,155.0
7408,G#4,684.5,0.25,110,155.0
7409,C#2,684.542,0.25,125,155.0
7410,B3,685.042,0.25,97,155.0
7411,C3,685.5,229/500,110,155.0
7412,E-3,685.5,0.25,110,155.0
7413,E4,685.5,229/500,110,155.0
7414,G#4,685.5,229/500,110,155.0
7415,G#5,685.5,229/500,110,155.0
7416,B1,685.542,0.25,42,155.0
7417,E-3,685.542,0.25,42,155.0
7418,A4,685.542,0.25,42,155.0
7419,G#5,685.542,0.25,42,155.0
7420,B2,686.0,729/500,110,155.0
7421,G#3,686.042,979/500,111,155.0
7422,B3,686.042,979/500,111,155.0
7423,D4,686.042,979/500,111,155.0
7424,F4,686.042,979/500,111,155.0
7425,G#4,686.042,979/500,111,155.0
7426,B1,686.042,0.25,76,155.0
7427,C#2,686.042,0.25,76,155.0
7428,B-2,686.042,0.25,76,155.0
7429,B3,686.042,0.25,76,155.0
7430,A4,686.042,0.25,76,155.0
7431,A5,686.042,0.25,76,155.0
7432,B-4,687.0,229/500,110,155.0
7433,E-3,687.0,0.25,110,155.0
7434,E-4,687.0,0.25,110,155.0
7435,B-5,687.0,0.25,110,155.0
7436,C#2,687.042,0.25,121,155.0
7437,B3,687.042,0.25,121,155.0
7438,G2,687.5,229/500,110,155.0
7439,E-3,687.542,0.25,46,155.0
7440,G#5,687.542,0.25,46,155.0
7441,C2,688.0,729/500,110,155.0
7442,B-3,688.0,0.25,100,155.0
7443,D4,688.0,229/500,100,155.0
7444,E-4,688.0,229/500,100,155.0
7445,G4,688.0,229/500,100,155.0
7446,B-3,688.042,1729/500,111,155.0
7447,C4,688.042,1479/500,111,155.0
7448,E-4,688.042,1479/500,111,155.0
7449,G4,688.042,1479/500,111,155.0
7450,B1,688.042,0.25,63,155.0
7451,B3,688.042,0.25,63,155.0
7452,A4,688.042,0.25,63,155.0
7453,A5,688.042,0.25,63,155.0
7454,B-4,688.5,229/500,100,155.0
7455,F4,688.583,917/1000,124,155.0
7456,E-5,689.0,229/500,102,155.0
7457,C#2,689.042,0.25,110,155.0
7458,B3,689.042,0.25,110,155.0
7459,B-4,689.417,271/500,113,155.0
7460,G2,689.5,479/500,110,155.0
7461,B-5,689.5,229/500,102,155.0
7462,B1,689.542,0.25,47,155.0
7463,E-3,689.542,0.25,47,155.0
7464,A4,689.542,0.25,47,155.0
7465,G#5,689.542,0.25,47,155.0
7466,G4,690.0,229/500,100,155.0
7467,B1,690.042,0.25,80,155.0
7468,B3,690.042,0.25,80,155.0
7469,A4,690.042,0.25,80,155.0
7470,A5,690.042,0.25,80,155.0
7471,C5,690.208,229/500,100,155.0
7472,C3,690.5,229/500,110,155.0
7473,F4,690.5,229/500,100,155.0
7474,F4,690.667,177/250,93,155.0
7475,G2,691.0,229/500,110,155.0
7476,E-4,691.0,229/500,100,155.0
7477,B3,691.042,0.25,100,155.0
7478,E-4,691.5,417/1000,86,155.0
7479,F2,691.5,0.5,110,155.0
7480,D4,691.5,0.5,100,155.0
7481,C4,691.5,0.5,100,155.0
7482,C5,691.5,0.5,100,155.0
7483,E-4,691.5,0.5,100,155.0
7484,G4,691.5,0.5,100,155.0
7485,G3,691.542,229/500,111,155.0
7486,A3,691.542,229/500,111,155.0
7487,C4,691.542,229/500,111,155.0
7488,E-4,691.542,229/500,111,155.0
7489,G4,691.542,229/500,111,155.0
7490,B1,691.542,0.25,84,155.0
7491,C#2,691.542,0.25,84,155.0
7492,E-3,691.542,0.25,84,155.0
7493,A3,691.542,0.25,84,155.0
7494,G#5,691.542,0.25,84,155.0
7495,F2,692.0,729/500,110,155.0
7496,D4,692.0,729/500,100,155.0
7497,C4,692.0,229/500,100,155.0
7498,C5,692.0,229/500,100,155.0
7499,E-4,692.0,479/500,100,155.0
7500,G4,692.0,479/500,100,155.0
7501,A3,692.0,3.5,111,155.0
7502,C4,692.0,3.5,111,155.0
7503,E-4,692.0,3.0,111,155.0
7504,G4,692.0,3.0,111,155.0
7505,B1,692.042,0.25,60,155.0
7506,B3,692.042,0.25,60,155.0
7507,A4,692.042,0.25,60,155.0
7508,A5,692.042,0.25,60,155.0
7509,C5,692.083,667/1000,115,155.0
7510,C#2,692.542,0.25,102,155.0
7511,B-2,692.542,0.25,102,155.0
7512,G#4,692.75,0.5,125,155.0
7513,B3,693.042,0.25,97,155.0
7514,B-4,693.458,0.375,127,155.0
7515,F2,693.5,0.25,110,155.0
7516,D4,693.5,0.25,100,155.0
7517,B1,693.542,0.25,55,155.0
7518,G2,693.542,0.25,55,155.0
7519,E-3,693.542,0.25,55,155.0
7520,A4,693.542,0.25,55,155.0
7521,G#5,693.542,0.25,55,155.0
7522,E-2,693.75,229/500,110,155.0
7523,G2,693.792,0.25,107,155.0
7524,C2,694.0,479/500,110,155.0
7525,B1,694.042,0.25,80,155.0
7526,C#2,694.042,0.25,80,155.0
7527,A2,694.042,0.25,80,155.0
7528,B-2,694.042,0.25,80,155.0
7529,B3,694.042,0.25,80,155.0
7530,A4,694.042,0.25,80,155.0
7531,A5,694.042,0.25,80,155.0
7532,C5,694.125,1417/1000,96,155.0
7533,C4,694.5,229/500,100,155.0
7534,G3,694.5,479/500,100,155.0
7535,D4,694.5,479/500,100,155.0
7536,G4,694.5,479/500,100,155.0
7537,G5,694.5,479/500,100,155.0
7538,C#2,694.542,0.25,120,155.0
7539,F2,695.0,479/500,110,155.0
7540,C#2,695.042,0.25,121,155.0
7541,B3,695.042,0.25,121,155.0
7542,F2,695.5,229/500,110,155.0
7543,E-3,695.542,0.25,46,155.0
7544,G#5,695.542,0.25,46,155.0
7545,B-4,695.583,417/1000,111,155.0
7546,B-4,696.0,21/500,111,155.0
7547,B-1,696.0,729/500,110,155.0
7548,F#5,696.0,0.25,100,155.0
7549,G5,696.0,479/500,100,155.0
7550,G3,696.0,1229/500,100,155.0
7551,C4,696.0,1229/500,100,155.0
7552,E-4,696.0,1229/500,100,155.0
7553,B-3,696.042,1979/500,111,155.0
7554,G#3,696.042,1979/500,111,155.0
7555,C4,696.042,1979/500,111,155.0
7556,E-4,696.042,1979/500,111,155.0
7557,B1,696.042,0.25,63,155.0
7558,B3,696.042,0.25,63,155.0
7559,A4,696.042,0.25,63,155.0
7560,A5,696.042,0.25,63,155.0
7561,G#4,696.125,0.625,104,155.0
7562,G4,696.833,417/1000,104,155.0
7563,G#5,697.0,229/500,100,155.0
7564,C#2,697.042,0.25,110,155.0
7565,B3,697.042,0.25,110,155.0
7566,B-2,697.5,229/500,110,155.0
7567,A5,697.5,229/500,100,155.0
7568,F4,697.542,667/1000,104,155.0
7569,B1,697.542,0.25,47,155.0
7570,E-3,697.542,0.25,47,155.0
7571,A4,697.542,0.25,47,155.0
7572,G#5,697.542,0.25,47,155.0
7573,B-2,698.0,729/500,110,155.0
7574,B-5,698.0,229/500,100,155.0
7575,B1,698.042,0.25,80,155.0
7576,B3,698.042,0.25,80,155.0
7577,A4,698.042,0.25,80,155.0
7578,A5,698.042,0.25,80,155.0
7579,E-4,698.375,229/500,104,155.0
7580,G5,698.5,0.25,100,155.0
7581,G3,698.5,729/500,100,155.0
7582,C4,698.5,729/500,100,155.0
7583,E-4,698.5,729/500,100,155.0
7584,A3,698.542,0.25,96,155.0
7585,G#5,699.0,0.25,100,155.0
7586,B3,699.042,0.25,100,155.0
7587,B-2,699.5,229/500,110,155.0
7588,A5,699.5,229/500,100,155.0
7589,B1,699.542,0.25,85,155.0
7590,C#2,699.542,0.25,85,155.0
7591,E-3,699.542,0.25,85,155.0
7592,A3,699.542,0.25,85,155.0
7593,G#5,699.542,0.25,85,155.0
7594,B-2,700.0,479/500,110,155.0
7595,B-3,700.0,1.0,111,155.0
7596,B-3,700.0,229/500,100,155.0
7597,C4,700.0,229/500,100,155.0
7598,E-4,700.0,229/500,100,155.0
7599,G4,700.0,229/500,100,155.0
7600,C5,700.0,229/500,100,155.0
7601,B-5,700.0,229/500,100,155.0
7602,B1,700.042,0.25,60,155.0
7603,B3,700.042,0.25,60,155.0
7604,A4,700.042,0.25,60,155.0
7605,A5,700.042,0.25,60,155.0
7606,G5,700.5,229/500,100,155.0
7607,E-4,700.542,229/500,111,155.0
7608,C#2,700.542,0.25,125,155.0
7609,B-2,701.0,229/500,110,155.0
7610,G#5,701.0,229/500,100,155.0
7611,D4,701.042,729/500,111,155.0
7612,A2,701.042,0.25,102,155.0
7613,B3,701.042,0.25,102,155.0
7614,E-4,701.458,229/500,127,155.0
7615,B-2,701.5,229/500,110,155.0
7616,A5,701.5,229/500,100,155.0
7617,B1,701.542,0.25,55,155.0
7618,C3,701.542,0.25,55,155.0
7619,E-3,701.542,0.25,55,155.0
7620,A4,701.542,0.25,55,155.0
7621,G#5,701.542,0.25,55,155.0
7622,B2,702.0,479/500,110,155.0
7623,B-3,702.0,229/500,100,155.0
7624,C4,702.0,479/500,100,155.0
7625,E-4,702.0,479/500,100,155.0
7626,G4,702.0,479/500,100,155.0
7627,B4,702.0,479/500,100,155.0
7628,B-5,702.0,479/500,100,155.0
7629,D4,702.042,229/500,111,155.0
7630,B1,702.042,0.25,80,155.0
7631,C#2,702.042,0.25,80,155.0
7632,B-2,702.042,0.25,80,155.0
7633,C3,702.042,0.25,80,155.0
7634,B3,702.042,0.25,80,155.0
7635,A4,702.042,0.25,80,155.0
7636,A5,702.042,0.25,80,155.0
7637,E-4,702.125,229/500,111,155.0
7638,B1,702.5,229/500,110,155.0
7639,D4,702.542,0.5,111,155.0
7640,C3,702.542,0.25,107,155.0
7641,G#3,702.542,729/500,111,155.0
7642,B3,702.542,729/500,111,155.0
7643,F4,702.542,729/500,111,155.0
7644,F4,702.75,667/1000,111,155.0
7645,B1,703.0,229/500,110,155.0
7646,B-3,703.0,229/500,100,155.0
7647,C4,703.0,229/500,100,155.0
7648,E-4,703.0,229/500,100,155.0
7649,G4,703.0,229/500,100,155.0
7650,B4,703.0,229/500,100,155.0
7651,B-5,703.0,229/500,100,155.0
7652,C#2,703.042,0.25,118,155.0
7653,B2,703.042,0.25,118,155.0
7654,B3,703.042,0.25,118,155.0
7655,F4,703.5,229/500,111,155.0
7656,B1,703.5,229/500,110,155.0
7657,B2,703.542,0.25,66,155.0
7658,E-3,703.542,0.25,66,155.0
7659,G#5,703.542,0.25,66,155.0
7660,D4,704.0,1167/1000,127,155.0
7661,C2,704.0,229/500,110,155.0
7662,B-3,704.0,479/500,109,155.0
7663,D4,704.0,479/500,109,155.0
7664,E-4,704.0,479/500,109,155.0
7665,G4,704.0,479/500,109,155.0
7666,D5,704.0,229/500,109,155.0
7667,D6,704.0,229/500,109,155.0
7668,B-3,704.042,1229/500,111,155.0
7669,C4,704.042,1979/500,111,155.0
7670,E-4,704.042,1979/500,111,155.0
7671,G4,704.042,1979/500,111,155.0
7672,B1,704.042,0.25,71,155.0
7673,C#3,704.042,0.25,71,155.0
7674,A3,704.042,0.25,71,155.0
7675,B3,704.042,0.25,71,155.0
7676,A4,704.042,0.25,71,155.0
7677,A5,704.042,0.25,71,155.0
7678,D2,704.5,229/500,110,155.0
7679,E-2,705.0,479/500,110,155.0
7680,B-3,705.0,0.25,109,155.0
7681,E-4,705.0,0.25,109,155.0
7682,G4,705.0,0.25,109,155.0
7683,C#2,705.042,0.25,110,155.0
7684,B3,705.042,0.25,110,155.0
7685,B-3,705.083,0.875,119,155.0
7686,C6,705.5,73/250,125,155.0
7687,B-3,705.5,177/250,109,155.0
7688,D4,705.5,177/250,109,155.0
7689,E-4,705.5,177/250,109,155.0
7690,G4,705.5,177/250,109,155.0
7691,C5,705.5,177/250,109,155.0
7692,B1,705.542,0.25,47,155.0
7693,E-3,705.542,0.25,47,155.0
7694,A4,705.542,0.25,47,155.0
7695,G#5,705.542,0.25,47,155.0
7696,E-3,705.958,583/1000,81,155.0
7697,E-2,706.0,229/500,110,155.0
7698,B1,706.042,0.25,80,155.0
7699,B3,706.042,0.25,80,155.0
7700,A4,706.042,0.25,80,155.0
7701,A5,706.042,0.25,80,155.0
7702,C2,706.5,479/500,110,155.0
7703,B-3,706.5,0.125,109,155.0
7704,D4,706.5,0.125,109,155.0
7705,E-4,706.5,0.125,109,155.0
7706,G4,706.5,0.125,109,155.0
7707,B-3,706.542,479/500,111,155.0
7708,C3,706.583,667/1000,81,155.0
7709,B3,707.042,0.25,100,155.0
7710,B-1,707.5,229/500,110,155.0
7711,C6,707.5,229/500,109,155.0
7712,E-4,707.5,0.5,109,155.0
7713,F4,707.5,0.5,109,155.0
7714,G#4,707.5,0.5,109,155.0
7715,C5,707.5,0.5,109,155.0
7716,C5,707.5,0.5,109,155.0
7717,G#3,707.542,229/500,111,155.0
7718,C#4,707.542,229/500,111,155.0
7719,F4,707.542,229/500,111,155.0
7720,C#2,707.542,0.25,71,155.0
7721,E-3,707.542,0.25,71,155.0
7722,G#5,707.542,0.25,71,155.0
7723,B-1,708.0,229/500,110,155.0
7724,E-4,708.0,417/1000,109,155.0
7725,F4,708.0,417/1000,109,155.0
7726,G#4,708.0,417/1000,109,155.0
7727,C5,708.0,417/1000,109,155.0
7728,C5,708.0,417/1000,109,155.0
7729,G#3,708.0,1.5,111,155.0
7730,C#4,708.0,1.5,111,155.0
7731,F4,708.0,1.5,111,155.0
7732,B1,708.042,0.25,60,155.0
7733,B3,708.042,0.25,60,155.0
7734,A4,708.042,0.25,60,155.0
7735,A5,708.042,0.25,60,155.0
7736,E-1,708.5,479/500,110,155.0
7737,C6,708.5,229/500,109,155.0
7738,E-4,708.5,479/500,109,155.0
7739,F4,708.5,479/500,109,155.0
7740,G#4,708.5,479/500,109,155.0
7741,C5,708.5,479/500,109,155.0
7742,C5,708.5,479/500,109,155.0
7743,C#2,708.542,0.25,125,155.0
7744,B3,709.042,0.25,97,155.0
7745,E-1,709.5,229/500,110,155.0
7746,C6,709.5,229/500,109,155.0
7747,E-4,709.5,0.125,109,155.0
7748,F4,709.5,0.125,109,155.0
7749,G#4,709.5,0.125,109,155.0
7750,C5,709.5,0.125,109,155.0
7751,C5,709.5,0.125,109,155.0
7752,B1,709.542,0.25,42,155.0
7753,E-3,709.542,0.25,42,155.0
7754,A4,709.542,0.25,42,155.0
7755,G#5,709.542,0.25,42,155.0
7756,G1,710.0,479/500,110,155.0
7757,B-4,710.0,0.125,109,155.0
7758,B-5,710.0,229/500,109,155.0
7759,G3,710.042,979/500,111,155.0
7760,C4,710.042,979/500,111,155.0
7761,C#4,710.042,979/500,111,155.0
7762,F4,710.042,979/500,111,155.0
7763,B1,710.042,0.25,76,155.0
7764,C#2,710.042,0.25,76,155.0
7765,B-2,710.042,0.25,76,155.0
7766,B3,710.042,0.25,76,155.0
7767,A4,710.042,0.25,76,155.0
7768,A5,710.042,0.25,76,155.0
7769,C5,710.5,0.25,109,155.0
7770,E-4,710.5,0.125,109,155.0
7771,F4,710.5,0.125,109,155.0
7772,G#4,710.5,0.125,109,155.0
7773,B-1,711.0,229/500,110,155.0
7774,E-4,711.0,0.125,109,155.0
7775,F4,711.0,0.125,109,155.0
7776,G#4,711.0,0.125,109,155.0
7777,C5,711.0,229/500,109,155.0
7778,C6,711.0,229/500,109,155.0
7779,E-3,711.042,0.375,115,155.0
7780,C#2,711.042,0.25,121,155.0
7781,B3,711.042,0.25,121,155.0
7782,F3,711.5,229/500,120,155.0
7783,E-3,711.542,0.25,46,155.0
7784,G#5,711.542,0.25,46,155.0
7785,G3,712.0,521/500,123,155.0
7786,G#1,712.0,729/500,110,155.0
7787,G4,712.0,229/500,109,155.0
7788,C4,712.0,0.25,109,155.0
7789,E-4,712.0,0.25,109,155.0
7790,G3,712.042,1729/500,111,155.0
7791,B-3,712.042,1729/500,111,155.0
7792,C4,712.042,1729/500,111,155.0
7793,E-4,712.042,1729/500,111,155.0
7794,B1,712.042,0.25,63,155.0
7795,B3,712.042,0.25,63,155.0
7796,A4,712.042,0.25,63,155.0
7797,A5,712.042,0.25,63,155.0
7798,E-4,712.5,0.25,109,155.0
7799,C4,712.5,229/500,109,155.0
7800,B-4,712.5,229/500,109,155.0
7801,B-3,712.958,917/1000,107,155.0
7802,C#2,713.042,0.25,110,155.0
7803,B3,713.042,0.25,110,155.0
7804,G#1,713.5,229/500,110,155.0
7805,E-4,713.5,0.25,109,155.0
7806,C4,713.5,229/500,109,155.0
7807,F4,713.5,229/500,109,155.0
7808,G4,713.5,229/500,109,155.0
7809,B1,713.542,0.25,47,155.0
7810,E-3,713.542,0.25,47,155.0
7811,A4,713.542,0.25,47,155.0
7812,G#5,713.542,0.25,47,155.0
7813,G#1,714.0,979/500,110,155.0
7814,C4,714.042,229/500,101,155.0
7815,B1,714.042,0.25,80,155.0
7816,B3,714.042,0.25,80,155.0
7817,A4,714.042,0.25,80,155.0
7818,A5,714.042,0.25,80,155.0
7819,C4,714.5,229/500,109,155.0
7820,E-4,714.5,0.25,109,155.0
7821,B3,715.042,0.25,100,155.0
7822,F3,715.5,0.5,109,155.0
7823,G#3,715.5,0.5,109,155.0
7824,E-4,715.5,0.5,109,155.0
7825,F4,715.5,0.5,109,155.0
7826,B-4,715.5,0.5,109,155.0
7827,B3,715.542,229/500,111,155.0
7828,E-4,715.542,229/500,111,155.0
7829,F4,715.542,229/500,111,155.0
7830,G4,715.542,229/500,111,155.0
7831,B-4,715.542,229/500,111,155.0
7832,C#2,715.542,0.25,71,155.0
7833,E-3,715.542,0.25,71,155.0
7834,G#5,715.542,0.25,71,155.0
7835,G1,716.0,479/500,110,155.0
7836,F3,716.0,479/500,109,155.0
7837,G#3,716.0,479/500,109,155.0
7838,E-4,716.0,0.375,109,155.0
7839,F4,716.0,0.375,109,155.0
7840,B-4,716.0,0.375,109,155.0
7841,B3,716.0,2.0,111,155.0
7842,E-4,716.0,2.0,111,155.0
7843,F4,716.0,2.0,111,155.0
7844,G4,716.0,2.0,111,155.0
7845,B-4,716.0,2.0,111,155.0
7846,B1,716.042,0.25,60,155.0
7847,B3,716.042,0.25,60,155.0
7848,A4,716.042,0.25,60,155.0
7849,A5,716.042,0.25,60,155.0
7850,E5,716.5,479/500,95,155.0
7851,E6,716.5,479/500,95,155.0
7852,C#2,716.542,0.25,125,155.0
7853,B3,717.042,0.25,97,155.0
7854,G1,717.5,229/500,110,155.0
7855,E4,717.5,229/500,100,155.0
7856,B-4,717.5,229/500,100,155.0
7857,E-5,717.5,229/500,100,155.0
7858,B-5,717.5,229/500,100,155.0
7859,C6,717.5,229/500,100,155.0
7860,B1,717.542,0.25,42,155.0
7861,E-3,717.542,0.25,42,155.0
7862,A4,717.542,0.25,42,155.0
7863,G#5,717.542,0.25,42,155.0
7864,B1,718.0,729/500,110,155.0
7865,G#3,718.042,979/500,111,155.0
7866,B3,718.042,979/500,111,155.0
7867,D4,718.042,979/500,111,155.0
7868,F4,718.042,979/500,111,155.0
7869,G#4,718.042,979/500,111,155.0
7870,B1,718.042,0.25,76,155.0
7871,C#2,718.042,0.25,76,155.0
7872,B-2,718.042,0.25,76,155.0
7873,B3,718.042,0.25,76,155.0
7874,A4,718.042,0.25,76,155.0
7875,A5,718.042,0.25,76,155.0
7876,E4,719.0,229/500,100,155.0
7877,G#4,719.0,229/500,100,155.0
7878,D5,719.0,229/500,100,155.0
7879,G#5,719.0,229/500,100,155.0
7880,C#2,719.042,0.25,121,155.0
7881,B3,719.042,0.25,121,155.0
7882,B1,719.5,229/500,110,155.0
7883,E-3,719.542,0.25,46,155.0
7884,G#5,719.542,0.25,46,155.0
7885,C4,720.0,0.625,127,155.0
7886,C2,720.0,729/500,110,155.0
7887,B-5,720.0,229/500,100,155.0
7888,B-4,720.0,0.25,100,155.0
7889,C5,720.0,0.25,100,155.0
7890,E-5,720.0,0.25,100,155.0
7891,B-3,720.042,1729/500,111,155.0
7892,C4,720.042,1479/500,111,155.0
7893,E-4,720.042,1479/500,111,155.0
7894,G4,720.042,1479/500,111,155.0
7895,B1,720.042,0.25,63,155.0
7896,B3,720.042,0.25,63,155.0
7897,A4,720.042,0.25,63,155.0
7898,A5,720.042,0.25,63,155.0
7899,C4,720.792,229/500,119,155.0
7900,G4,721.0,0.25,100,155.0
7901,G5,721.0,229/500,100,155.0
7902,C#2,721.042,0.25,110,155.0
7903,B3,721.042,0.25,110,155.0
7904,D4,721.458,0.625,119,155.0
7905,B-1,721.5,229/500,110,155.0
7906,B1,721.542,0.25,47,155.0
7907,E-3,721.542,0.25,47,155.0
7908,A4,721.542,0.25,47,155.0
7909,G#5,721.542,0.25,47,155.0
7910,C2,722.0,229/500,110,155.0
7911,B1,722.042,0.25,80,155.0
7912,B3,722.042,0.25,80,155.0
7913,A4,722.042,0.25,80,155.0
7914,A5,722.042,0.25,80,155.0
7915,E-4,722.125,229/500,127,155.0
7916,B-1,722.5,229/500,110,155.0
7917,C5,722.5,229/500,100,155.0
7918,G4,722.5,0.25,100,155.0
7919,B-4,722.5,0.25,100,155.0
7920,E-5,722.5,0.25,100,155.0
7921,G5,722.5,0.25,100,155.0
7922,E-4,722.875,229/500,119,155.0
7923,G1,723.0,229/500,110,155.0
7924,B3,723.042,0.25,100,155.0
7925,F1,723.5,229/500,110,155.0
7926,D4,723.5,0.5,100,155.0
7927,G4,723.5,0.5,100,155.0
7928,B4,723.5,0.5,100,155.0
7929,D5,723.5,0.5,100,155.0
7930,F4,723.542,229/500,119,155.0
7931,G3,723.542,229/500,111,155.0
7932,A3,723.542,229/500,111,155.0
7933,C4,723.542,229/500,111,155.0
7934,E-4,723.542,229/500,111,155.0
7935,G4,723.542,229/500,111,155.0
7936,C#2,723.542,0.25,71,155.0
7937,E-3,723.542,0.25,71,155.0
7938,G#5,723.542,0.25,71,155.0
7939,F4,724.0,167/1000,119,155.0
7940,F1,724.0,729/500,110,155.0
7941,D4,724.0,729/500,100,155.0
7942,G4,724.0,479/500,100,155.0
7943,B4,724.0,479/500,100,155.0
7944,D5,724.0,479/500,100,155.0
7945,A3,724.0,3.5,111,155.0
7946,C4,724.0,3.5,111,155.0
7947,E-4,724.0,3.0,111,155.0
7948,G4,724.0,3.0,111,155.0
7949,B1,724.042,0.25,60,155.0
7950,B3,724.042,0.25,60,155.0
7951,A4,724.042,0.25,60,155.0
7952,A5,724.042,0.25,60,155.0
7953,F#4,724.125,667/1000,120,155.0
7954,B3,724.5,229/500,100,155.0
7955,G4,724.5,229/500,100,155.0
7956,B4,724.5,229/500,100,155.0
7957,B5,724.5,229/500,100,155.0
7958,C#2,724.542,0.25,125,155.0
7959,F#4,724.917,229/500,88,155.0
7960,B3,725.042,0.25,97,155.0
7961,F1,725.5,229/500,110,155.0
7962,D4,725.5,229/500,100,155.0
7963,D4,725.5,229/500,100,155.0
7964,G4,725.5,229/500,100,155.0
7965,B4,725.5,229/500,100,155.0
7966,D6,725.5,229/500,100,155.0
7967,B1,725.542,0.25,42,155.0
7968,E-3,725.542,0.25,42,155.0
7969,A4,725.542,0.25,42,155.0
7970,G#5,725.542,0.25,42,155.0
7971,F#4,725.625,229/500,88,155.0
7972,A1,726.0,729/500,110,155.0
7973,B1,726.042,0.25,76,155.0
7974,C#2,726.042,0.25,76,155.0
7975,B-2,726.042,0.25,76,155.0
7976,B3,726.042,0.25,76,155.0
7977,A4,726.042,0.25,76,155.0
7978,A5,726.042,0.25,76,155.0
7979,F4,726.292,0.875,91,155.0
7980,D4,726.5,0.25,100,155.0
7981,G4,726.5,0.25,100,155.0
7982,B4,726.5,229/500,100,155.0
7983,G5,726.5,229/500,100,155.0
7984,G5,726.5,229/500,100,155.0
7985,D6,726.5,229/500,100,155.0
7986,D4,727.0,229/500,100,155.0
7987,C#2,727.042,0.25,121,155.0
7988,B3,727.042,0.25,121,155.0
7989,E-4,727.417,229/500,119,155.0
7990,A1,727.5,229/500,110,155.0
7991,E-3,727.542,0.25,46,155.0
7992,G#5,727.542,0.25,46,155.0
7993,B-1,728.0,479/500,110,155.0
7994,B-3,728.042,1979/500,111,155.0
7995,G#3,728.042,1979/500,111,155.0
7996,C4,728.042,1979/500,111,155.0
7997,E-4,728.042,1979/500,111,155.0
7998,B1,728.042,0.25,63,155.0
7999,B3,728.042,0.25,63,155.0
8000,A4,728.042,0.25,63,155.0
8001,A5,728.042,0.25,63,155.0
8002,F4,728.125,99/125,119,155.0
8003,G#3,728.5,229/500,100,155.0
8004,C4,728.5,229/500,100,155.0
8005,E-4,728.5,229/500,100,155.0
8006,G4,728.5,229/500,100,155.0
8007,E-5,728.5,229/500,100,155.0
8008,E-6,728.5,229/500,100,155.0
8009,B-2,728.542,0.25,86,155.0
8010,C4,728.958,1.25,81,155.0
8011,G#1,729.0,229/500,110,155.0
8012,C#2,729.042,0.25,110,155.0
8013,B3,729.042,0.25,110,155.0
8014,G#1,729.5,229/500,110,155.0
8015,G#3,729.5,229/500,100,155.0
8016,C4,729.5,229/500,100,155.0
8017,E-4,729.5,229/500,100,155.0
8018,G4,729.5,229/500,100,155.0
8019,D5,729.5,229/500,100,155.0
8020,D6,729.5,229/500,100,155.0
8021,B1,729.542,0.25,56,155.0
8022,B-2,729.542,0.25,56,155.0
8023,E-3,729.542,0.25,56,155.0
8024,A4,729.542,0.25,56,155.0
8025,G#5,729.542,0.25,56,155.0
8026,G1,730.0,229/500,110,155.0
8027,B1,730.042,0.25,80,155.0
8028,B3,730.042,0.25,80,155.0
8029,A4,730.042,0.25,80,155.0
8030,A5,730.042,0.25,80,155.0
8031,G1,730.5,479/500,110,155.0
8032,G#3,730.5,229/500,100,155.0
8033,C4,730.5,229/500,100,155.0
8034,E-4,730.5,229/500,100,155.0
8035,G4,730.5,229/500,100,155.0
8036,C5,730.5,229/500,100,155.0
8037,C6,730.5,229/500,100,155.0
8038,B-4,730.542,583/1000,127,155.0
8039,B-2,730.542,0.25,99,155.0
8040,F4,731.0,479/500,81,155.0
8041,F1,731.0,229/500,110,155.0
8042,B3,731.042,0.25,100,155.0
8043,F1,731.5,229/500,110,155.0
8044,G#3,731.5,0.5,100,155.0
8045,C4,731.5,0.5,100,155.0
8046,E-4,731.5,0.5,100,155.0
8047,G4,731.5,0.5,100,155.0
8048,E-5,731.5,0.5,100,155.0
8049,E-6,731.5,0.5,100,155.0
8050,C#2,731.542,0.25,82,155.0
8051,B-2,731.542,0.25,82,155.0
8052,E-3,731.542,0.25,82,155.0
8053,G#5,731.542,0.25,82,155.0
8054,F1,732.0,229/500,110,155.0
8055,B-3,732.0,1.0,111,155.0
8056,G#3,732.0,229/500,100,155.0
8057,C4,732.0,229/500,100,155.0
8058,E-4,732.0,229/500,100,155.0
8059,G4,732.0,229/500,100,155.0
8060,E-5,732.0,229/500,100,155.0
8061,E-6,732.0,229/500,100,155.0
8062,B1,732.042,0.25,60,155.0
8063,B3,732.042,0.25,60,155.0
8064,A4,732.042,0.25,60,155.0
8065,A5,732.042,0.25,60,155.0
8066,B-1,732.5,479/500,110,155.0
8067,G#3,732.5,229/500,100,155.0
8068,C4,732.5,229/500,100,155.0
8069,E-4,732.5,229/500,100,155.0
8070,G4,732.5,229/500,100,155.0
8071,D5,732.5,229/500,100,155.0
8072,D6,732.5,229/500,100,155.0
8073,E-4,732.542,229/500,111,155.0
8074,C#2,732.542,0.25,113,155.0
8075,B2,732.542,0.25,113,155.0
8076,A3,732.542,0.25,113,155.0
8077,D4,733.042,729/500,111,155.0
8078,B3,733.042,0.25,97,155.0
8079,F1,733.5,229/500,110,155.0
8080,G#3,733.5,229/500,100,155.0
8081,C4,733.5,229/500,100,155.0
8082,E-4,733.5,229/500,100,155.0
8083,G4,733.5,229/500,100,155.0
8084,C5,733.5,229/500,100,155.0
8085,C6,733.5,229/500,100,155.0
8086,B1,733.542,0.25,42,155.0
8087,E-3,733.542,0.25,42,155.0
8088,A4,733.542,0.25,42,155.0
8089,G#5,733.542,0.25,42,155.0
8090,B1,734.0,479/500,110,155.0
8091,D4,734.042,229/500,111,155.0
8092,B1,734.042,0.25,83,155.0
8093,C#2,734.042,0.25,83,155.0
8094,B-2,734.042,0.25,83,155.0
8095,B2,734.042,0.25,83,155.0
8096,B3,734.042,0.25,83,155.0
8097,A4,734.042,0.25,83,155.0
8098,A5,734.042,0.25,83,155.0
8099,E-5,734.5,0.25,100,155.0
8100,G#3,734.5,229/500,100,155.0
8101,C4,734.5,229/500,100,155.0
8102,E-4,734.5,229/500,100,155.0
8103,G4,734.5,229/500,100,155.0
8104,G#4,734.5,229/500,100,155.0
8105,E-6,734.5,229/500,100,155.0
8106,D4,734.542,0.5,111,155.0
8107,A2,734.542,0.25,107,155.0
8108,G#3,734.542,729/500,111,155.0
8109,B3,734.542,729/500,111,155.0
8110,F4,734.542,729/500,111,155.0
8111,C5,735.0,0.875,127,155.0
8112,D2,735.0,229/500,110,155.0
8113,C#2,735.042,0.25,121,155.0
8114,G2,735.042,0.25,121,155.0
8115,B3,735.042,0.25,121,155.0
8116,B1,735.5,229/500,110,155.0
8117,E-3,735.542,0.25,46,155.0
8118,G#5,735.542,0.25,46,155.0
8119,C2,736.0,479/500,110,155.0
8120,G3,736.0,229/500,100,155.0
8121,G4,736.0,229/500,100,155.0
8122,E-5,736.0,229/500,100,155.0
8123,E-6,736.0,229/500,100,155.0
8124,B-3,736.042,1229/500,111,155.0
8125,C4,736.042,1979/500,111,155.0
8126,E-4,736.042,1979/500,111,155.0
8127,G4,736.042,1979/500,111,155.0
8128,B1,736.042,0.25,74,155.0
8129,C#3,736.042,0.25,74,155.0
8130,A3,736.042,0.25,74,155.0
8131,B3,736.042,0.25,74,155.0
8132,A4,736.042,0.25,74,155.0
8133,A5,736.042,0.25,74,155.0
8134,E-5,736.083,99/125,86,155.0
8135,E-5,737.0,229/500,119,155.0
8136,G3,737.0,229/500,100,155.0
8137,G4,737.0,229/500,100,155.0
8138,E-5,737.0,229/500,100,155.0
8139,E-6,737.0,229/500,100,155.0
8140,C#2,737.042,0.25,110,155.0
8141,B3,737.042,0.25,110,155.0
8142,C2,737.5,0.25,110,155.0
8143,B1,737.542,0.25,47,155.0
8144,E-3,737.542,0.25,47,155.0
8145,A4,737.542,0.25,47,155.0
8146,G#5,737.542,0.25,47,155.0
8147,C2,738.0,479/500,110,155.0
8148,B1,738.042,0.25,80,155.0
8149,B3,738.042,0.25,80,155.0
8150,A4,738.042,0.25,80,155.0
8151,A5,738.042,0.25,80,155.0
8152,G3,738.5,229/500,100,155.0
8153,G4,738.5,229/500,100,155.0
8154,E-5,738.5,229/500,100,155.0
8155,E-6,738.5,229/500,100,155.0
8156,B-3,738.542,479/500,111,155.0
8157,C5,738.583,229/500,119,155.0
8158,B3,739.042,0.25,100,155.0
8159,E-5,739.5,0.5,119,155.0
8160,A1,739.5,229/500,110,155.0
8161,C4,739.5,229/500,100,155.0
8162,C5,739.5,229/500,100,155.0
8163,F4,739.5,0.5,100,155.0
8164,G#4,739.5,0.5,100,155.0
8165,G#3,739.542,229/500,111,155.0
8166,C#4,739.542,229/500,111,155.0
8167,F4,739.542,229/500,111,155.0
8168,C#2,739.542,0.25,71,155.0
8169,E-3,739.542,0.25,71,155.0
8170,G#5,739.542,0.25,71,155.0
8171,E-5,740.0,73/250,119,155.0
8172,B-1,740.0,229/500,110,155.0
8173,F4,740.0,229/500,100,155.0
8174,G#4,740.0,229/500,100,155.0
8175,G#3,740.0,1.5,111,155.0
8176,C#4,740.0,1.5,111,155.0
8177,F4,740.0,1.5,111,155.0
8178,B1,740.042,0.25,60,155.0
8179,B3,740.042,0.25,60,155.0
8180,A4,740.042,0.25,60,155.0
8181,A5,740.042,0.25,60,155.0
8182,C2,740.5,229/500,110,155.0
8183,C4,740.5,73/250,100,155.0
8184,F4,740.5,73/250,100,155.0
8185,G#4,740.5,73/250,100,155.0
8186,C5,740.5,73/250,100,155.0
8187,C#2,740.542,0.25,125,155.0
8188,C#2,741.0,229/500,110,155.0
8189,B3,741.042,0.25,97,155.0
8190,D2,741.5,229/500,110,155.0
8191,B-3,741.5,73/250,100,155.0
8192,F4,741.5,99/125,100,155.0
8193,G#4,741.5,99/125,100,155.0
8194,B-4,741.5,99/125,100,155.0
8195,B1,741.542,0.25,42,155.0
8196,E-3,741.542,0.25,42,155.0
8197,A4,741.542,0.25,42,155.0
8198,G#5,741.542,0.25,42,155.0
8199,C4,742.0,0.875,104,155.0
8200,E-2,742.0,229/500,110,155.0
8201,G3,742.042,979/500,111,155.0
8202,C4,742.042,979/500,111,155.0
8203,C#4,742.042,979/500,111,155.0
8204,F4,742.042,979/500,111,155.0
8205,B1,742.042,0.25,76,155.0
8206,C#2,742.042,0.25,76,155.0
8207,B-2,742.042,0.25,76,155.0
8208,B3,742.042,0.25,76,155.0
8209,A4,742.042,0.25,76,155.0
8210,A5,742.042,0.25,76,155.0
8211,F2,742.5,229/500,110,155.0
8212,B-3,742.5,73/250,100,155.0
8213,F4,742.5,73/250,100,155.0
8214,F4,742.5,73/250,100,155.0
8215,G#4,742.5,73/250,100,155.0
8216,B-4,742.5,73/250,100,155.0
8217,F5,742.5,73/250,100,155.0
8218,E-4,742.917,1.0,104,155.0
8219,F#2,743.0,229/500,110,155.0
8220,F4,743.0,73/250,100,155.0
8221,G4,743.0,73/250,100,155.0
8222,G#4,743.0,73/250,100,155.0
8223,C5,743.0,73/250,100,155.0
8224,G5,743.0,73/250,100,155.0
8225,C#2,743.042,0.25,121,155.0
8226,B3,743.042,0.25,121,155.0
8227,G2,743.5,229/500,110,155.0
8228,E-3,743.542,0.25,46,155.0
8229,G#5,743.542,0.25,46,155.0
8230,E-4,744.0,151/125,104,155.0
8231,G#2,744.0,729/500,110,155.0
8232,G3,744.0,229/500,100,155.0
8233,C4,744.0,229/500,100,155.0
8234,E-4,744.0,229/500,100,155.0
8235,E-5,744.0,229/500,100,155.0
8236,G3,744.042,1729/500,111,155.0
8237,B-3,744.042,1729/500,111,155.0
8238,C4,744.042,1729/500,111,155.0
8239,E-4,744.042,1729/500,111,155.0
8240,B1,744.042,0.25,63,155.0
8241,B3,744.042,0.25,63,155.0
8242,A4,744.042,0.25,63,155.0
8243,A5,744.042,0.25,63,155.0
8244,E-5,745.0,229/500,100,155.0
8245,C#2,745.042,0.25,110,155.0
8246,B3,745.042,0.25,110,155.0
8247,G#2,745.5,229/500,110,155.0
8248,B-4,745.5,229/500,100,155.0
8249,E-4,745.542,229/500,104,155.0
8250,B1,745.542,0.25,47,155.0
8251,E-3,745.542,0.25,47,155.0
8252,A4,745.542,0.25,47,155.0
8253,G#5,745.542,0.25,47,155.0
8254,G#2,746.0,479/500,110,155.0
8255,B1,746.042,0.25,80,155.0
8256,B3,746.042,0.25,80,155.0
8257,A4,746.042,0.25,80,155.0
8258,A5,746.042,0.25,80,155.0
8259,C5,746.5,229/500,100,155.0
8260,C5,746.542,271/500,119,155.0
8261,B3,747.042,0.25,100,155.0
8262,F4,747.5,229/500,73,155.0
8263,G#2,747.5,229/500,110,155.0
8264,G#4,747.5,0.5,100,155.0
8265,F3,747.5,0.5,100,155.0
8266,F4,747.5,0.5,100,155.0
8267,B3,747.5,0.5,100,155.0
8268,D4,747.5,0.5,100,155.0
8269,B3,747.542,229/500,111,155.0
8270,E-4,747.542,229/500,111,155.0
8271,F4,747.542,229/500,111,155.0
8272,G4,747.542,229/500,111,155.0
8273,B-4,747.542,229/500,111,155.0
8274,C#2,747.542,0.25,71,155.0
8275,E-3,747.542,0.25,71,155.0
8276,G#5,747.542,0.25,71,155.0
8277,G2,748.0,729/500,110,155.0
8278,G#4,748.0,479/500,100,155.0
8279,F3,748.0,729/500,100,155.0
8280,F4,748.0,729/500,100,155.0
8281,B3,748.0,229/500,100,155.0
8282,D4,748.0,229/500,100,155.0
8283,B3,748.0,2.0,111,155.0
8284,E-4,748.0,2.0,111,155.0
8285,F4,748.0,2.0,111,155.0
8286,G4,748.0,2.0,111,155.0
8287,B-4,748.0,2.0,111,155.0
8288,B1,748.042,0.25,60,155.0
8289,B3,748.042,0.25,60,155.0
8290,A4,748.042,0.25,60,155.0
8291,A5,748.042,0.25,60,155.0
8292,F5,748.542,1583/1000,107,155.0
8293,C#2,748.542,0.25,125,155.0
8294,B3,749.042,0.25,97,155.0
8295,G2,749.5,229/500,110,155.0
8296,G#4,749.5,229/500,100,155.0
8297,B3,749.5,0.25,100,155.0
8298,D4,749.5,0.25,100,155.0
8299,F4,749.5,0.25,100,155.0
8300,B1,749.542,0.25,42,155.0
8301,E-3,749.542,0.25,42,155.0
8302,A4,749.542,0.25,42,155.0
8303,G#5,749.542,0.25,42,155.0
8304,G2,750.0,479/500,110,155.0
8305,G4,750.0,479/500,100,155.0
8306,G#3,750.042,979/500,111,155.0
8307,B3,750.042,979/500,111,155.0
8308,D4,750.042,979/500,111,155.0
8309,F4,750.042,979/500,111,155.0
8310,G#4,750.042,979/500,111,155.0
8311,B1,750.042,0.25,76,155.0
8312,C#2,750.042,0.25,76,155.0
8313,B-2,750.042,0.25,76,155.0
8314,B3,750.042,0.25,76,155.0
8315,A4,750.042,0.25,76,155.0
8316,A5,750.042,0.25,76,155.0
8317,F5,750.458,1.5,107,155.0
8318,G#4,751.0,0.25,100,155.0
8319,B4,751.0,229/500,100,155.0
8320,C#2,751.042,0.25,121,155.0
8321,B3,751.042,0.25,121,155.0
8322,D2,751.5,229/500,110,155.0
8323,E-4,751.5,0.25,91,155.0
8324,E-3,751.542,0.25,46,155.0
8325,G#5,751.542,0.25,46,155.0
8326,C2,752.0,479/500,110,155.0
8327,D4,752.0,0.25,91,155.0
8328,B-3,752.0,229/500,91,155.0
8329,E-4,752.0,229/500,91,155.0
8330,G4,752.0,229/500,91,155.0
8331,B-4,752.0,229/500,91,155.0
8332,B-3,752.042,1729/500,111,155.0
8333,C4,752.042,1479/500,111,155.0
8334,E-4,752.042,1479/500,111,155.0
8335,G4,752.042,1479/500,111,155.0
8336,B1,752.042,0.25,63,155.0
8337,B3,752.042,0.25,63,155.0
8338,A4,752.042,0.25,63,155.0
8339,A5,752.042,0.25,63,155.0
8340,E-5,752.083,271/500,119,155.0
8341,C5,752.833,583/1000,119,155.0
8342,C#2,753.042,0.25,110,155.0
8343,B3,753.042,0.25,110,155.0
8344,C2,753.5,0.25,110,155.0
8345,B-4,753.542,583/1000,119,155.0
8346,B1,753.542,0.25,47,155.0
8347,E-3,753.542,0.25,47,155.0
8348,A4,753.542,0.25,47,155.0
8349,G#5,753.542,0.25,47,155.0
8350,C2,754.0,729/500,110,155.0
8351,B1,754.042,0.25,80,155.0
8352,B3,754.042,0.25,80,155.0
8353,A4,754.042,0.25,80,155.0
8354,A5,754.042,0.25,80,155.0
8355,E-4,754.125,0.875,119,155.0
8356,B-3,754.5,0.25,91,155.0
8357,D4,754.5,0.25,91,155.0
8358,E-4,754.5,0.25,91,155.0
8359,G4,754.5,0.25,91,155.0
8360,B-4,754.5,0.25,91,155.0
8361,B3,755.042,0.25,100,155.0
8362,C4,755.083,99/125,88,155.0
8363,C2,755.5,229/500,110,155.0
8364,D4,755.5,0.5,91,155.0
8365,B3,755.5,0.5,91,155.0
8366,F#4,755.5,0.5,91,155.0
8367,A4,755.5,0.5,91,155.0
8368,G3,755.542,229/500,111,155.0
8369,A3,755.542,229/500,111,155.0
8370,C4,755.542,229/500,111,155.0
8371,E-4,755.542,229/500,111,155.0
8372,G4,755.542,229/500,111,155.0
8373,C#2,755.542,0.25,71,155.0
8374,E-3,755.542,0.25,71,155.0
8375,G#5,755.542,0.25,71,155.0
8376,F2,756.0,729/500,110,155.0
8377,D4,756.0,0.5,91,155.0
8378,B3,756.0,479/500,91,155.0
8379,F#4,756.0,479/500,91,155.0
8380,A4,756.0,479/500,91,155.0
8381,A3,756.0,3.5,111,155.0
8382,C4,756.0,3.5,111,155.0
8383,E-4,756.0,3.0,111,155.0
8384,G4,756.0,3.0,111,155.0
8385,B1,756.042,0.25,60,155.0
8386,B3,756.042,0.25,60,155.0
8387,A4,756.042,0.25,60,155.0
8388,A5,756.042,0.25,60,155.0
8389,A3,756.5,229/500,91,155.0
8390,D4,756.5,229/500,91,155.0
8391,D4,756.5,229/500,91,155.0
8392,F#4,756.5,229/500,91,155.0
8393,C#2,756.542,0.25,125,155.0
8394,B-4,756.708,0.5,119,155.0
8395,B3,757.042,0.25,97,155.0
8396,B-4,757.458,229/500,119,155.0
8397,F1,757.5,229/500,110,155.0
8398,A4,757.5,479/500,91,155.0
8399,D4,757.5,229/500,91,155.0
8400,F#4,757.5,229/500,91,155.0
8401,B1,757.542,0.25,42,155.0
8402,E-3,757.542,0.25,42,155.0
8403,A4,757.542,0.25,42,155.0
8404,G#5,757.542,0.25,42,155.0
8405,G4,758.0,1.25,119,155.0
8406,F1,758.0,729/500,110,155.0
8407,B1,758.042,0.25,76,155.0
8408,C#2,758.042,0.25,76,155.0
8409,B-2,758.042,0.25,76,155.0
8410,B3,758.042,0.25,76,155.0
8411,A4,758.042,0.25,76,155.0
8412,A5,758.042,0.25,76,155.0
8413,F#4,758.5,0.25,91,155.0
8414,A4,758.5,229/500,91,155.0
8415,D5,758.5,229/500,91,155.0
8416,C#2,759.042,0.25,121,155.0
8417,B3,759.042,0.25,121,155.0
8418,F4,759.417,333/1000,119,155.0
8419,E-3,759.542,0.25,46,155.0
8420,G#5,759.542,0.25,46,155.0
8421,E-4,759.667,333/1000,119,155.0
8422,C5,760.0,2.625,104,155.0
8423,E-4,760.0,0.125,119,155.0
8424,B-1,760.0,1979/500,110,155.0
8425,B-2,760.0,1229/500,91,155.0
8426,G#3,760.0,1229/500,91,155.0
8427,E-4,760.0,1479/500,91,155.0
8428,G#4,760.0,1479/500,91,155.0
8429,B-4,760.0,1479/500,91,155.0
8430,B-3,760.042,1979/500,111,155.0
8431,G#3,760.042,1979/500,111,155.0
8432,C4,760.042,1979/500,111,155.0
8433,E-4,760.042,1979/500,111,155.0
8434,B1,760.042,0.25,63,155.0
8435,B3,760.042,0.25,63,155.0
8436,A4,760.042,0.25,63,155.0
8437,A5,760.042,0.25,63,155.0
8438,D3,760.542,0.25,107,155.0
8439,C#2,761.042,0.25,109,155.0
8440,C3,761.042,0.25,109,155.0
8441,B3,761.042,0.25,109,155.0
8442,B1,761.542,0.25,59,155.0
8443,B2,761.542,0.25,59,155.0
8444,E-3,761.542,0.25,59,155.0
8445,A4,761.542,0.25,59,155.0
8446,G#5,761.542,0.25,59,155.0
8447,B1,762.042,0.25,82,155.0
8448,A2,762.042,0.25,82,155.0
8449,B3,762.042,0.25,82,155.0
8450,A4,762.042,0.25,82,155.0
8451,A5,762.042,0.25,82,155.0
8452,E-3,762.5,229/500,121,155.0
8453,E-5,762.542,667/1000,127,155.0
8454,G2,762.542,0.25,107,155.0
8455,F2,763.042,0.25,104,155.0
8456,B3,763.042,0.25,104,155.0
8457,G5,763.417,583/1000,119,155.0
8458,G3,763.5,0.5,121,155.0
8459,D2,763.542,0.25,127,155.0
8460,D2,763.625,0.25,107,155.0
8461,G5,764.0,0.125,119,155.0
8462,G3,764.0,26/125,121,155.0
8463,B-3,764.0,1.0,111,155.0
8464,A4,764.042,0.25,34,155.0
8465,E-5,764.5,229/500,91,155.0
8466,E-4,764.542,229/500,111,155.0
8467,D5,765.0,229/500,91,155.0
8468,D4,765.042,729/500,111,155.0
8469,C5,765.5,229/500,91,155.0
8470,A4,765.542,0.25,13,155.0
8471,D5,766.0,0.25,91,155.0
8472,D4,766.042,229/500,111,155.0
8473,A4,766.042,0.25,53,155.0
8474,B-1,766.5,177/250,121,155.0
8475,F5,766.5,729/500,91,155.0
8476,G5,766.5,729/500,91,155.0
8477,B-5,766.5,729/500,91,155.0
8478,D4,766.542,0.5,111,155.0
8479,G#3,766.542,729/500,111,155.0
8480,B3,766.542,729/500,111,155.0
8481,F4,766.542,729/500,111,155.0
8482,B1,766.542,0.25,92,155.0
8483,C#3,766.542,0.25,92,155.0
8484,E-3,766.542,0.25,92,155.0
8485,F2,766.75,0.25,127,155.0
8486,F2,766.875,0.25,79,155.0
8487,F2,767.0,0.25,120,155.0
8488,F2,767.125,0.25,67,155.0
8489,F2,767.25,0.25,36,155.0
8490,F2,767.375,0.25,25,155.0
8491,F2,767.5,0.25,20,155.0
8492,F2,767.625,0.25,15,155.0
8493,F2,767.75,0.25,12,155.0
8494,F2,767.875,0.125,10,155.0
8495,F2,768.0,0.25,10,155.0
8496,F2,768.0,0.125,10,155.0
8497,F2,768.125,0.25,10,155.0
8498,F2,768.25,0.25,10,155.0
8499,F2,768.375,0.25,7,155.0
8500,F2,768.5,0.25,7,155.0
8501,F2,768.625,0.25,5,155.0
8502,F2,768.75,0.25,5,155.0
8503,F2,768.875,0.25,1,155.0
8504,F2,769.0,0.25,1,155.0
8505,F2,769.125,0.25,2,155.0
8506,F2,769.25,0.25,12,155.0
8507,F2,769.375,0.25,7,155.0
8508,F2,769.5,0.25,30,155.0
8509,F2,769.625,0.25,57,155.0
8510,F2,769.75,0.25,83,155.0
8511,F2,769.875,0.25,93,155.0
8512,C3,770.0,2.0,121,155.0
8513,B-3,770.0,229/500,91,155.0
8514,B-4,770.0,229/500,91,155.0
8515,E-5,770.0,229/500,91,155.0
8516,G5,770.0,229/500,91,155.0
8517,B-3,770.042,979/500,111,155.0
8518,C4,770.042,979/500,111,155.0
8519,E-4,770.042,979/500,111,155.0
8520,G4,770.042,979/500,111,155.0
8521,B1,770.042,0.25,94,155.0
8522,E-3,770.042,0.25,94,155.0
8523,F3,770.042,0.25,94,155.0
8524,A3,770.042,0.25,94,155.0
8525,A4,770.042,0.25,94,155.0
8526,C2,771.25,0.75,121,155.0
8527,C5,771.708,73/250,67,155.0
8528,B-4,771.917,83/1000,67,155.0
8529,B-4,772.0,73/250,67,155.0
8530,C3,772.0,4.0,121,155.0
8531,C2,772.0,4.0,121,155.0
8532,B-3,772.0,0.5,111,155.0
8533,C4,772.0,2.0,111,155.0
8534,E-4,772.0,2.0,111,155.0
8535,G4,772.0,2.0,111,155.0
8536,G4,772.083,417/1000,67,155.0
8537,F4,772.417,2917/1000,34,155.0
8538,E-4,775.333,73/250,67,155.0
8539,D4,775.458,73/250,67,155.0
8540,C4,775.75,0.25,67,155.0
8541,C3,776.0,4.0,121,155.0
8542,C2,776.0,4.0,121,155.0
8543,B-3,776.042,1979/500,19,155.0
8544,B3,777.75,0.25,1,155.0
8545,B3,778.333,0.25,21,155.0
8546,B3,778.917,0.25,43,155.0
8547,B3,779.5,0.25,64,155.0
8548,B-3,780.0,1917/1000,19,155.0
8549,C3,780.0,26/125,121,155.0
8550,C2,780.0,26/125,121,155.0
8551,B3,780.083,0.25,86,155.0
8552,B3,780.708,0.25,109,155.0
8553,B3,781.375,0.25,127,155.0
8554,B3,782.125,0.25,127,155.0
8555,F2,785.042,0.25,67,155.0
8556,F2,785.167,0.25,78,155.0
8557,F2,785.292,0.25,104,155.0
