,note_name,start_time,duration,velocity,tempo
0,B-2,4.0,0.0,78,215.0
1,F#2,5.0,0.0,70,215.0
2,F#2,5.5,0.0,70,215.0
3,B-2,6.0,0.0,78,215.0
4,F#2,7.0,0.0,70,215.0
5,F#2,7.5,0.0,70,215.0
6,B-2,8.0,0.0,78,215.0
7,F#2,9.0,0.0,70,215.0
8,F#2,9.5,0.0,70,215.0
9,B-2,10.0,0.0,78,215.0
10,F#2,11.0,0.0,70,215.0
11,F#2,11.5,0.0,70,215.0
12,A4,11.5,333/1000,112,215.0
13,A3,11.5,333/1000,112,215.0
14,B1,12.0,0.0,92,215.0
15,A4,12.0,0.0,92,215.0
16,B-2,12.0,0.0,92,215.0
17,D2,12.0,1333/1000,120,215.0
18,F4,12.0,333/1000,112,215.0
19,D4,12.0,333/1000,112,215.0
20,A4,12.5,0.0,78,215.0
21,D4,12.5,333/1000,112,215.0
22,F4,12.5,333/1000,112,215.0
23,F#2,13.0,0.0,64,215.0
24,D4,13.0,333/1000,112,215.0
25,D4,13.0,333/1000,112,215.0
26,B1,13.5,0.0,92,215.0
27,E2,13.5,0.0,92,215.0
28,A4,13.5,0.0,92,215.0
29,F#2,13.5,0.0,92,215.0
30,B1,14.0,0.0,99,215.0
31,E4,14.0,0.0,99,215.0
32,B-2,14.0,0.0,99,215.0
33,A4,14.0,0.0,99,215.0
34,A2,14.0,1333/1000,120,215.0
35,A3,14.0,333/1000,112,215.0
36,D4,14.0,333/1000,112,215.0
37,A4,14.5,0.0,78,215.0
38,E4,15.0,0.0,92,215.0
39,F#2,15.0,0.0,92,215.0
40,A4,15.5,0.0,87,215.0
41,B1,15.5,0.0,87,215.0
42,F#2,15.5,0.0,87,215.0
43,B-2,16.0,0.0,99,215.0
44,B1,16.0,0.0,99,215.0
45,E4,16.0,0.0,99,215.0
46,A4,16.0,0.0,99,215.0
47,D3,16.0,333/1000,96,215.0
48,D3,16.0,1.0,120,215.0
49,A4,16.5,0.0,78,215.0
50,F#2,17.0,0.0,64,215.0
51,A4,17.5,0.0,96,215.0
52,B1,17.5,0.0,96,215.0
53,F#2,17.5,0.0,96,215.0
54,E4,17.5,0.0,96,215.0
55,A2,17.5,1.0,120,215.0
56,A3,17.75,167/1000,96,215.0
57,E4,18.0,0.0,99,215.0
58,A4,18.0,0.0,99,215.0
59,B-2,18.0,0.0,99,215.0
60,B1,18.0,0.0,99,215.0
61,F4,18.0,333/1000,127,215.0
62,A4,18.5,0.0,99,215.0
63,E4,18.5,0.0,99,215.0
64,A3,18.5,333/1000,112,215.0
65,G4,18.5,333/1000,112,215.0
66,F#2,19.0,0.0,64,215.0
67,D2,19.0,667/1000,120,215.0
68,F4,19.0,333/1000,112,215.0
69,D4,19.0,333/1000,112,215.0
70,F#2,19.5,0.0,96,215.0
71,B1,19.5,0.0,96,215.0
72,A4,19.5,0.0,96,215.0
73,E4,19.5,0.0,96,215.0
74,D4,19.5,333/1000,112,215.0
75,E4,19.5,333/1000,112,215.0
76,A4,20.0,0.0,92,215.0
77,B1,20.0,0.0,92,215.0
78,B-2,20.0,0.0,92,215.0
79,E2,20.0,1333/1000,120,215.0
80,A4,20.5,0.0,78,215.0
81,G#3,20.5,333/1000,112,215.0
82,B3,20.5,333/1000,112,215.0
83,F#2,21.0,0.0,64,215.0
84,A4,21.5,0.0,92,215.0
85,E2,21.5,0.0,92,215.0
86,B1,21.5,0.0,92,215.0
87,F#2,21.5,0.0,92,215.0
88,E3,21.5,333/1000,112,215.0
89,G#3,21.5,333/1000,112,215.0
90,E4,22.0,0.0,99,215.0
91,A4,22.0,0.0,99,215.0
92,B-2,22.0,0.0,99,215.0
93,B1,22.0,0.0,99,215.0
94,B3,22.0,667/1000,127,215.0
95,E3,22.0,1333/1000,108,215.0
96,B2,22.0,1333/1000,108,215.0
97,A4,22.5,0.0,78,215.0
98,E4,23.0,0.0,92,215.0
99,F#2,23.0,0.0,92,215.0
100,D4,23.0,667/1000,127,215.0
101,F#2,23.5,0.0,87,215.0
102,B1,23.5,0.0,87,215.0
103,A4,23.5,0.0,87,215.0
104,E4,24.0,0.0,99,215.0
105,B1,24.0,0.0,99,215.0
106,B-2,24.0,0.0,99,215.0
107,A4,24.0,0.0,99,215.0
108,D3,24.0,1333/1000,120,215.0
109,B2,24.0,333/1000,96,215.0
110,D3,24.0,333/1000,96,215.0
111,A4,24.5,0.0,78,215.0
112,F#2,25.0,0.0,64,215.0
113,B1,25.5,0.0,96,215.0
114,F#2,25.5,0.0,96,215.0
115,A4,25.5,0.0,96,215.0
116,E4,25.5,0.0,96,215.0
117,E3,25.5,333/1000,96,215.0
118,B-2,26.0,0.0,99,215.0
119,E4,26.0,0.0,99,215.0
120,A4,26.0,0.0,99,215.0
121,B1,26.0,0.0,99,215.0
122,E2,26.0,1333/1000,120,215.0
123,A4,26.5,0.0,99,215.0
124,E4,26.5,0.0,99,215.0
125,F#2,27.0,0.0,64,215.0
126,E4,27.5,0.0,96,215.0
127,F#2,27.5,0.0,96,215.0
128,B1,27.5,0.0,96,215.0
129,A4,27.5,0.0,96,215.0
130,B1,28.0,0.0,92,215.0
131,B-2,28.0,0.0,92,215.0
132,A4,28.0,0.0,92,215.0
133,G2,28.0,1333/1000,120,215.0
134,A4,28.5,0.0,78,215.0
135,F#2,29.0,0.0,64,215.0
136,F#2,29.5,0.0,92,215.0
137,E2,29.5,0.0,92,215.0
138,B1,29.5,0.0,92,215.0
139,A4,29.5,0.0,92,215.0
140,E4,30.0,0.0,99,215.0
141,A4,30.0,0.0,99,215.0
142,B1,30.0,0.0,99,215.0
143,B-2,30.0,0.0,99,215.0
144,D3,30.0,1333/1000,120,215.0
145,A4,30.0,333/1000,112,215.0
146,A3,30.0,333/1000,112,215.0
147,A4,30.5,0.0,78,215.0
148,G#4,30.5,333/1000,112,215.0
149,B-3,30.5,333/1000,112,215.0
150,E4,31.0,0.0,92,215.0
151,F#2,31.0,0.0,92,215.0
152,G4,31.0,333/1000,112,215.0
153,D4,31.0,333/1000,112,215.0
154,A4,31.5,0.0,87,215.0
155,F#2,31.5,0.0,87,215.0
156,B1,31.5,0.0,87,215.0
157,A4,31.5,333/1000,112,215.0
158,F#4,31.5,333/1000,112,215.0
159,B-2,32.0,0.0,99,215.0
160,B1,32.0,0.0,99,215.0
161,A4,32.0,0.0,99,215.0
162,E4,32.0,0.0,99,215.0
163,G4,32.0,333/1000,127,215.0
164,A2,32.0,1333/1000,120,215.0
165,A4,32.5,0.0,78,215.0
166,F4,32.5,333/1000,127,215.0
167,F#2,33.0,0.0,64,215.0
168,E4,33.0,333/1000,127,215.0
169,E4,33.5,0.0,96,215.0
170,A4,33.5,0.0,96,215.0
171,B1,33.5,0.0,96,215.0
172,F#2,33.5,0.0,96,215.0
173,G3,33.5,333/1000,106,215.0
174,E4,33.5,333/1000,106,215.0
175,C4,33.5,333/1000,106,215.0
176,E4,34.0,0.0,99,215.0
177,B1,34.0,0.0,99,215.0
178,A4,34.0,0.0,99,215.0
179,B-2,34.0,0.0,99,215.0
180,E3,34.0,1333/1000,120,215.0
181,E4,34.5,0.0,99,215.0
182,A4,34.5,0.0,99,215.0
183,E4,34.5,333/1000,112,215.0
184,C4,34.5,333/1000,112,215.0
185,F#2,35.0,0.0,64,215.0
186,G3,35.0,333/1000,96,215.0
187,F#2,35.5,0.0,96,215.0
188,A4,35.5,0.0,96,215.0
189,B1,35.5,0.0,96,215.0
190,E4,35.5,0.0,96,215.0
191,G4,35.5,333/1000,127,215.0
192,B-2,36.0,0.0,92,215.0
193,B1,36.0,0.0,92,215.0
194,A4,36.0,0.0,92,215.0
195,D3,36.0,1.0,120,215.0
196,F4,36.0,333/1000,112,215.0
197,D4,36.0,333/1000,112,215.0
198,A4,36.5,0.0,78,215.0
199,F#2,37.0,0.0,64,215.0
200,A3,37.0,333/1000,96,215.0
201,A4,37.5,0.0,92,215.0
202,F#2,37.5,0.0,92,215.0
203,E2,37.5,0.0,92,215.0
204,B1,37.5,0.0,92,215.0
205,A2,37.5,1.0,120,215.0
206,B-2,38.0,0.0,99,215.0
207,E4,38.0,0.0,99,215.0
208,B1,38.0,0.0,99,215.0
209,A4,38.0,0.0,99,215.0
210,F3,38.0,333/1000,112,215.0
211,D4,38.0,333/1000,112,215.0
212,A4,38.5,0.0,78,215.0
213,E4,39.0,0.0,92,215.0
214,F#2,39.0,0.0,92,215.0
215,D3,39.0,333/1000,96,215.0
216,D3,39.0,667/1000,120,215.0
217,A4,39.5,0.0,87,215.0
218,B1,39.5,0.0,87,215.0
219,F#2,39.5,0.0,87,215.0
220,E4,40.0,0.0,99,215.0
221,B-2,40.0,0.0,99,215.0
222,B1,40.0,0.0,99,215.0
223,A4,40.0,0.0,99,215.0
224,D2,40.0,1.0,120,215.0
225,A4,40.5,0.0,78,215.0
226,F#2,41.0,0.0,64,215.0
227,E4,41.5,0.0,96,215.0
228,F#2,41.5,0.0,96,215.0
229,B1,41.5,0.0,96,215.0
230,A4,41.5,0.0,96,215.0
231,F3,41.5,333/1000,96,215.0
232,A2,41.5,1.0,120,215.0
233,B-2,42.0,0.0,99,215.0
234,B1,42.0,0.0,99,215.0
235,A4,42.0,0.0,99,215.0
236,E4,42.0,0.0,99,215.0
237,A3,42.0,333/1000,96,215.0
238,A4,42.5,0.0,99,215.0
239,E4,42.5,0.0,99,215.0
240,F#4,42.5,333/1000,112,215.0
241,C4,42.5,333/1000,112,215.0
242,F#2,43.0,0.0,64,215.0
243,D2,43.0,667/1000,120,215.0
244,E4,43.5,0.0,96,215.0
245,B1,43.5,0.0,96,215.0
246,A4,43.5,0.0,96,215.0
247,F#2,43.5,0.0,96,215.0
248,A3,43.5,333/1000,112,215.0
249,A4,43.5,333/1000,112,215.0
250,B-2,44.0,0.0,92,215.0
251,A4,44.0,0.0,92,215.0
252,B1,44.0,0.0,92,215.0
253,B3,44.0,333/1000,96,215.0
254,G2,44.0,1333/1000,120,215.0
255,A4,44.5,0.0,78,215.0
256,G4,44.5,333/1000,127,215.0
257,F#2,45.0,0.0,64,215.0
258,D4,45.0,333/1000,96,215.0
259,F#2,45.5,0.0,92,215.0
260,E2,45.5,0.0,92,215.0
261,A4,45.5,0.0,92,215.0
262,B1,45.5,0.0,92,215.0
263,B1,46.0,0.0,99,215.0
264,E4,46.0,0.0,99,215.0
265,A4,46.0,0.0,99,215.0
266,B-2,46.0,0.0,99,215.0
267,D3,46.0,1333/1000,120,215.0
268,A4,46.5,0.0,78,215.0
269,E4,47.0,0.0,92,215.0
270,F#2,47.0,0.0,92,215.0
271,G3,47.0,333/1000,127,215.0
272,B1,47.5,0.0,87,215.0
273,A4,47.5,0.0,87,215.0
274,F#2,47.5,0.0,87,215.0
275,G3,47.5,333/1000,127,215.0
276,E4,48.0,0.0,99,215.0
277,A4,48.0,0.0,99,215.0
278,B1,48.0,0.0,99,215.0
279,B-2,48.0,0.0,99,215.0
280,E3,48.0,333/1000,96,215.0
281,E3,48.0,1.0,120,215.0
282,A4,48.5,0.0,78,215.0
283,G#3,48.5,333/1000,127,215.0
284,F#2,49.0,0.0,64,215.0
285,B3,49.0,333/1000,127,215.0
286,E4,49.5,0.0,96,215.0
287,F#2,49.5,0.0,96,215.0
288,B1,49.5,0.0,96,215.0
289,A4,49.5,0.0,96,215.0
290,D4,49.5,333/1000,127,215.0
291,B2,49.5,1.0,120,215.0
292,A4,50.0,0.0,99,215.0
293,B-2,50.0,0.0,99,215.0
294,E4,50.0,0.0,99,215.0
295,B1,50.0,0.0,99,215.0
296,D4,50.0,333/1000,127,215.0
297,A4,50.5,0.0,99,215.0
298,E4,50.5,0.0,99,215.0
299,F4,50.5,333/1000,127,215.0
300,F#2,51.0,0.0,64,215.0
301,E4,51.0,333/1000,127,215.0
302,E2,51.0,667/1000,120,215.0
303,B1,51.5,0.0,96,215.0
304,E4,51.5,0.0,96,215.0
305,A4,51.5,0.0,96,215.0
306,F#2,51.5,0.0,96,215.0
307,D4,51.5,333/1000,127,215.0
308,B-2,52.0,0.0,92,215.0
309,A4,52.0,0.0,92,215.0
310,B1,52.0,0.0,92,215.0
311,A2,52.0,1333/1000,120,215.0
312,E4,52.0,333/1000,112,215.0
313,C4,52.0,333/1000,112,215.0
314,A4,52.5,0.0,78,215.0
315,E4,52.5,333/1000,127,215.0
316,F#2,53.0,0.0,64,215.0
317,C4,53.0,333/1000,96,215.0
318,A4,53.5,0.0,92,215.0
319,F#2,53.5,0.0,92,215.0
320,E2,53.5,0.0,92,215.0
321,B1,53.5,0.0,92,215.0
322,A4,53.5,333/1000,127,215.0
323,E4,54.0,0.0,99,215.0
324,A4,54.0,0.0,99,215.0
325,B-2,54.0,0.0,99,215.0
326,B1,54.0,0.0,99,215.0
327,B3,54.0,667/1000,96,215.0
328,A4,54.0,333/1000,127,215.0
329,E3,54.0,1333/1000,120,215.0
330,A4,54.5,0.0,78,215.0
331,E4,55.0,0.0,92,215.0
332,F#2,55.0,0.0,92,215.0
333,C4,55.0,333/1000,96,215.0
334,F#2,55.5,0.0,87,215.0
335,A4,55.5,0.0,87,215.0
336,B1,55.5,0.0,87,215.0
337,B3,55.5,333/1000,96,215.0
338,E4,56.0,0.0,99,215.0
339,B1,56.0,0.0,99,215.0
340,A4,56.0,0.0,99,215.0
341,B-2,56.0,0.0,99,215.0
342,A2,56.0,1333/1000,120,215.0
343,A4,56.5,0.0,78,215.0
344,F#2,57.0,0.0,64,215.0
345,E4,57.5,0.0,96,215.0
346,F#2,57.5,0.0,96,215.0
347,B1,57.5,0.0,96,215.0
348,A4,57.5,0.0,96,215.0
349,E3,57.5,333/1000,96,215.0
350,E4,58.0,0.0,99,215.0
351,A4,58.0,0.0,99,215.0
352,B1,58.0,0.0,99,215.0
353,B-2,58.0,0.0,99,215.0
354,G2,58.0,1333/1000,120,215.0
355,E4,58.5,0.0,99,215.0
356,A4,58.5,0.0,99,215.0
357,F#2,59.0,0.0,64,215.0
358,A3,59.0,333/1000,96,215.0
359,E3,59.0,333/1000,96,215.0
360,F#2,59.5,0.0,96,215.0
361,B1,59.5,0.0,96,215.0
362,A4,59.5,0.0,96,215.0
363,E4,59.5,0.0,96,215.0
364,B1,60.0,0.0,92,215.0
365,B-2,60.0,0.0,92,215.0
366,A4,60.0,0.0,92,215.0
367,E-3,60.0,333/1000,96,215.0
368,F2,60.0,1333/1000,120,215.0
369,A4,60.5,0.0,78,215.0
370,F#2,61.0,0.0,64,215.0
371,C4,61.0,333/1000,96,215.0
372,B1,61.5,0.0,92,215.0
373,F#2,61.5,0.0,92,215.0
374,E2,61.5,0.0,92,215.0
375,A4,61.5,0.0,92,215.0
376,C5,61.95,127/250,117,215.0
377,A4,62.0,0.0,99,215.0
378,B1,62.0,0.0,99,215.0
379,B-2,62.0,0.0,99,215.0
380,E4,62.0,0.0,99,215.0
381,C3,62.0,1333/1000,120,215.0
382,E-4,62.0,333/1000,112,215.0
383,C5,62.0,333/1000,112,215.0
384,A4,62.375,229/500,88,215.0
385,A4,62.5,0.0,78,215.0
386,D4,62.5,333/1000,112,215.0
387,A4,62.5,333/1000,112,215.0
388,E-4,62.975,333/1000,108,215.0
389,C4,62.975,333/1000,108,215.0
390,E-4,62.975,333/1000,108,215.0
391,E4,63.0,0.0,92,215.0
392,F#2,63.0,0.0,92,215.0
393,D4,63.492,17/40,127,215.0
394,F#2,63.5,0.0,87,215.0
395,A4,63.5,0.0,87,215.0
396,B1,63.5,0.0,87,215.0
397,A3,63.5,333/1000,112,215.0
398,D4,63.5,333/1000,112,215.0
399,B-2,64.0,0.0,99,215.0
400,A4,64.0,0.0,99,215.0
401,B1,64.0,0.0,99,215.0
402,E4,64.0,0.0,99,215.0
403,F3,64.0,333/1000,96,215.0
404,F3,64.0,1.0,120,215.0
405,A4,64.5,0.0,78,215.0
406,D4,64.5,333/1000,112,215.0
407,A3,64.5,333/1000,112,215.0
408,D4,64.558,2/5,127,215.0
409,F#2,65.0,0.0,64,215.0
410,F#2,65.5,0.0,96,215.0
411,A4,65.5,0.0,96,215.0
412,B1,65.5,0.0,96,215.0
413,E4,65.5,0.0,96,215.0
414,C4,65.5,333/1000,127,215.0
415,F2,65.5,1.0,120,215.0
416,A4,66.0,0.0,99,215.0
417,B-2,66.0,0.0,99,215.0
418,E4,66.0,0.0,99,215.0
419,B1,66.0,0.0,99,215.0
420,E4,66.5,0.0,99,215.0
421,A4,66.5,0.0,99,215.0
422,D4,66.5,333/1000,127,215.0
423,F#2,67.0,0.0,64,215.0
424,C3,67.0,667/1000,120,215.0
425,E4,67.5,0.0,96,215.0
426,F#2,67.5,0.0,96,215.0
427,B1,67.5,0.0,96,215.0
428,A4,67.5,0.0,96,215.0
429,E4,67.5,333/1000,127,215.0
430,B-2,68.0,0.0,92,215.0
431,B1,68.0,0.0,92,215.0
432,A4,68.0,0.0,92,215.0
433,E2,68.0,1333/1000,120,215.0
434,A4,68.5,0.0,78,215.0
435,F#2,69.0,0.0,64,215.0
436,A4,69.5,0.0,92,215.0
437,F#2,69.5,0.0,92,215.0
438,E2,69.5,0.0,92,215.0
439,B1,69.5,0.0,92,215.0
440,B1,70.0,0.0,99,215.0
441,A4,70.0,0.0,99,215.0
442,E4,70.0,0.0,99,215.0
443,B-2,70.0,0.0,99,215.0
444,B2,70.0,1333/1000,120,215.0
445,A4,70.5,0.0,78,215.0
446,F#2,71.0,0.0,92,215.0
447,E4,71.0,0.0,92,215.0
448,F#2,71.5,0.0,87,215.0
449,A4,71.5,0.0,87,215.0
450,B1,71.5,0.0,87,215.0
451,B-2,72.0,0.0,99,215.0
452,B1,72.0,0.0,99,215.0
453,A4,72.0,0.0,99,215.0
454,E4,72.0,0.0,99,215.0
455,E2,72.0,1.0,120,215.0
456,A4,72.5,0.0,78,215.0
457,F#2,73.0,0.0,64,215.0
458,B1,73.5,0.0,96,215.0
459,A4,73.5,0.0,96,215.0
460,F#2,73.5,0.0,96,215.0
461,E4,73.5,0.0,96,215.0
462,E3,73.5,2.0,120,215.0
463,B1,74.0,0.0,99,215.0
464,E4,74.0,0.0,99,215.0
465,A4,74.0,0.0,99,215.0
466,B-2,74.0,0.0,99,215.0
467,E4,74.5,0.0,99,215.0
468,A4,74.5,0.0,99,215.0
469,C5,74.5,167/1000,100,215.0
470,C5,74.525,129/500,108,215.0
471,D5,74.542,333/1000,127,215.0
472,D5,74.65,221/500,113,215.0
473,F#2,75.0,0.0,64,215.0
474,F#2,75.5,0.0,96,215.0
475,E4,75.5,0.0,96,215.0
476,B1,75.5,0.0,96,215.0
477,A4,75.5,0.0,96,215.0
478,C5,75.5,333/1000,127,215.0
479,C5,75.592,333/1000,113,215.0
480,B-2,76.0,0.0,92,215.0
481,A4,76.0,0.0,92,215.0
482,B1,76.0,0.0,92,215.0
483,A2,76.0,1333/1000,120,215.0
484,A4,76.5,0.0,78,215.0
485,C5,76.5,333/1000,100,215.0
486,C5,76.5,2/5,117,215.0
487,F#2,77.0,0.0,64,215.0
488,E4,77.0,333/1000,127,215.0
489,E4,77.1,383/1000,97,215.0
490,F4,77.125,21/500,77,215.0
491,F#2,77.5,0.0,92,215.0
492,A4,77.5,0.0,92,215.0
493,E2,77.5,0.0,92,215.0
494,B1,77.5,0.0,92,215.0
495,B1,78.0,0.0,99,215.0
496,B-2,78.0,0.0,99,215.0
497,E4,78.0,0.0,99,215.0
498,A4,78.0,0.0,99,215.0
499,E4,78.0,667/1000,127,215.0
500,E3,78.0,1333/1000,120,215.0
501,E4,78.017,483/1000,108,215.0
502,A4,78.5,0.0,78,215.0
503,F#2,79.0,0.0,92,215.0
504,E4,79.0,0.0,92,215.0
505,A3,79.0,333/1000,127,215.0
506,A4,79.5,0.0,87,215.0
507,B1,79.5,0.0,87,215.0
508,F#2,79.5,0.0,87,215.0
509,E4,80.0,0.0,99,215.0
510,B-2,80.0,0.0,99,215.0
511,B1,80.0,0.0,99,215.0
512,A4,80.0,0.0,99,215.0
513,A2,80.0,1333/1000,120,215.0
514,A4,80.5,0.0,78,215.0
515,F#2,81.0,0.0,64,215.0
516,A4,81.5,0.0,96,215.0
517,E4,81.5,0.0,96,215.0
518,B1,81.5,0.0,96,215.0
519,F#2,81.5,0.0,96,215.0
520,A4,82.0,0.0,99,215.0
521,B1,82.0,0.0,99,215.0
522,E4,82.0,0.0,99,215.0
523,B-2,82.0,0.0,99,215.0
524,E2,82.0,1333/1000,120,215.0
525,E4,82.5,0.0,99,215.0
526,A4,82.5,0.0,99,215.0
527,F#2,83.0,0.0,64,215.0
528,B1,83.5,0.0,96,215.0
529,F#2,83.5,0.0,96,215.0
530,A4,83.5,0.0,96,215.0
531,E4,83.5,0.0,96,215.0
532,B-2,84.0,0.0,92,215.0
533,A4,84.0,0.0,92,215.0
534,B1,84.0,0.0,92,215.0
535,B2,84.0,1333/1000,120,215.0
536,A4,84.5,0.0,78,215.0
537,E-4,84.958,333/1000,127,215.0
538,F#2,85.0,0.0,64,215.0
539,A4,85.5,0.0,92,215.0
540,E2,85.5,0.0,92,215.0
541,F#2,85.5,0.0,92,215.0
542,B1,85.5,0.0,92,215.0
543,F#4,85.958,333/1000,127,215.0
544,B-2,86.0,0.0,99,215.0
545,B1,86.0,0.0,99,215.0
546,A4,86.0,0.0,99,215.0
547,E4,86.0,0.0,99,215.0
548,F#2,86.0,1333/1000,120,215.0
549,A4,86.5,0.0,78,215.0
550,A4,86.625,333/1000,127,215.0
551,F#2,87.0,0.0,92,215.0
552,E4,87.0,0.0,92,215.0
553,C5,87.292,333/1000,127,215.0
554,F#2,87.5,0.0,87,215.0
555,B1,87.5,0.0,87,215.0
556,A4,87.5,0.0,87,215.0
557,C5,87.958,21/500,127,215.0
558,B-2,88.0,0.0,99,215.0
559,B1,88.0,0.0,99,215.0
560,E4,88.0,0.0,99,215.0
561,A4,88.0,0.0,99,215.0
562,B2,88.0,1.0,120,215.0
563,C5,88.0,73/250,127,215.0
564,D5,88.458,333/1000,127,215.0
565,A4,88.5,0.0,78,215.0
566,F#2,89.0,0.0,64,215.0
567,C5,89.458,333/1000,127,215.0
568,F#2,89.5,0.0,96,215.0
569,B1,89.5,0.0,96,215.0
570,A4,89.5,0.0,96,215.0
571,E4,89.5,0.0,96,215.0
572,F#2,89.5,1.0,120,215.0
573,A4,90.0,0.0,99,215.0
574,B1,90.0,0.0,99,215.0
575,E4,90.0,0.0,99,215.0
576,B-2,90.0,0.0,99,215.0
577,B4,90.458,333/1000,127,215.0
578,E4,90.5,0.0,99,215.0
579,A4,90.5,0.0,99,215.0
580,F#2,91.0,0.0,64,215.0
581,B2,91.0,667/1000,120,215.0
582,A4,91.458,333/1000,127,215.0
583,B1,91.5,0.0,96,215.0
584,E4,91.5,0.0,96,215.0
585,F#2,91.5,0.0,96,215.0
586,A4,91.5,0.0,96,215.0
587,B-2,92.0,0.0,92,215.0
588,B1,92.0,0.0,92,215.0
589,A4,92.0,0.0,92,215.0
590,D2,92.0,1.0,120,215.0
591,A4,92.5,0.0,78,215.0
592,F#2,93.0,0.0,64,215.0
593,B1,93.5,0.0,92,215.0
594,E2,93.5,0.0,92,215.0
595,A4,93.5,0.0,92,215.0
596,F#2,93.5,0.0,92,215.0
597,A2,93.5,1.0,120,215.0
598,B1,94.0,0.0,99,215.0
599,B-2,94.0,0.0,99,215.0
600,E4,94.0,0.0,99,215.0
601,A4,94.0,0.0,99,215.0
602,E4,94.458,333/1000,127,215.0
603,A4,94.5,0.0,78,215.0
604,F4,94.958,333/1000,127,215.0
605,F#2,95.0,0.0,92,215.0
606,E4,95.0,0.0,92,215.0
607,A4,95.458,333/1000,124,215.0
608,A2,95.458,333/1000,124,215.0
609,B1,95.5,0.0,87,215.0
610,F#2,95.5,0.0,87,215.0
611,A4,95.5,0.0,87,215.0
612,G#4,95.958,21/500,127,215.0
613,B1,96.0,0.0,99,215.0
614,B-2,96.0,0.0,99,215.0
615,E4,96.0,0.0,99,215.0
616,A4,96.0,0.0,99,215.0
617,E2,96.0,1.0,120,215.0
618,G#4,96.0,73/250,127,215.0
619,F4,96.458,333/1000,127,215.0
620,A4,96.5,0.0,78,215.0
621,E4,96.958,333/1000,127,215.0
622,F#2,97.0,0.0,64,215.0
623,D4,97.458,333/1000,127,215.0
624,A4,97.5,0.0,96,215.0
625,E4,97.5,0.0,96,215.0
626,B1,97.5,0.0,96,215.0
627,F#2,97.5,0.0,96,215.0
628,B2,97.5,1.0,120,215.0
629,B1,98.0,0.0,99,215.0
630,A4,98.0,0.0,99,215.0
631,B-2,98.0,0.0,99,215.0
632,E4,98.0,0.0,99,215.0
633,B3,98.458,333/1000,127,215.0
634,A4,98.5,0.0,99,215.0
635,E4,98.5,0.0,99,215.0
636,F#2,99.0,0.0,64,215.0
637,E3,99.0,667/1000,120,215.0
638,D4,99.458,333/1000,127,215.0
639,F#2,99.5,0.0,96,215.0
640,B1,99.5,0.0,96,215.0
641,A4,99.5,0.0,96,215.0
642,E4,99.5,0.0,96,215.0
643,C4,99.958,21/500,127,215.0
644,B1,100.0,0.0,92,215.0
645,A4,100.0,0.0,92,215.0
646,B-2,100.0,0.0,92,215.0
647,A2,100.0,1.0,120,215.0
648,C4,100.0,73/250,127,215.0
649,A4,100.5,0.0,78,215.0
650,E4,100.958,333/1000,127,215.0
651,F#2,101.0,0.0,64,215.0
652,A4,101.458,333/1000,127,215.0
653,B1,101.5,0.0,92,215.0
654,E2,101.5,0.0,92,215.0
655,A4,101.5,0.0,92,215.0
656,F#2,101.5,0.0,92,215.0
657,E3,101.5,1333/1000,120,215.0
658,B-2,102.0,0.0,99,215.0
659,A4,102.0,0.0,99,215.0
660,B1,102.0,0.0,99,215.0
661,E4,102.0,0.0,99,215.0
662,A4,102.5,0.0,78,215.0
663,F#2,103.0,0.0,92,215.0
664,E4,103.0,0.0,92,215.0
665,A4,103.5,0.0,87,215.0
666,F#2,103.5,0.0,87,215.0
667,B1,103.5,0.0,87,215.0
668,B-2,104.0,0.0,99,215.0
669,B1,104.0,0.0,99,215.0
670,A4,104.0,0.0,99,215.0
671,E4,104.0,0.0,99,215.0
672,A2,104.0,1.0,120,215.0
673,A4,104.5,0.0,78,215.0
674,B-4,104.5,333/1000,127,215.0
675,F#2,105.0,0.0,64,215.0
676,F#2,105.5,0.0,96,215.0
677,A4,105.5,0.0,96,215.0
678,E4,105.5,0.0,96,215.0
679,B1,105.5,0.0,96,215.0
680,A4,105.5,333/1000,127,215.0
681,E3,105.5,1333/1000,120,215.0
682,E4,106.0,0.0,99,215.0
683,B-2,106.0,0.0,99,215.0
684,B1,106.0,0.0,99,215.0
685,A4,106.0,0.0,99,215.0
686,E4,106.5,0.0,99,215.0
687,A4,106.5,0.0,99,215.0
688,E4,106.5,333/1000,127,215.0
689,F#2,107.0,0.0,64,215.0
690,E4,107.5,0.0,96,215.0
691,B1,107.5,0.0,96,215.0
692,A4,107.5,0.0,96,215.0
693,F#2,107.5,0.0,96,215.0
694,G4,107.5,333/1000,127,215.0
695,B1,108.0,0.0,92,215.0
696,B-2,108.0,0.0,92,215.0
697,A4,108.0,0.0,92,215.0
698,E4,108.0,1.0,127,215.0
699,F1,108.0,107/40,120,215.0
700,F3,108.0,4.0,75,215.0
701,A3,108.0,4.0,75,215.0
702,E4,108.0,4.0,75,215.0
703,C4,108.083,3917/1000,100,215.0
704,E4,108.167,3833/1000,100,215.0
705,A4,108.25,3.75,100,215.0
706,A4,108.5,0.0,78,215.0
707,F#2,109.0,0.0,64,215.0
708,A4,109.458,1.0,127,215.0
709,E2,109.5,0.0,92,215.0
710,A4,109.5,0.0,92,215.0
711,F#2,109.5,0.0,92,215.0
712,B1,109.5,0.0,92,215.0
713,E4,110.0,0.0,99,215.0
714,B1,110.0,0.0,99,215.0
715,B-2,110.0,0.0,99,215.0
716,A4,110.0,0.0,99,215.0
717,A4,110.5,0.0,78,215.0
718,E4,111.0,0.0,92,215.0
719,F#2,111.0,0.0,92,215.0
720,F#2,111.5,0.0,87,215.0
721,A4,111.5,0.0,87,215.0
722,B1,111.5,0.0,87,215.0
723,E-4,111.958,21/500,127,215.0
724,B1,112.0,0.0,99,215.0
725,B-2,112.0,0.0,99,215.0
726,E4,112.0,0.0,99,215.0
727,A4,112.0,0.0,99,215.0
728,B1,112.0,107/40,120,215.0
729,E-4,112.0,479/500,127,215.0
730,C4,112.0,21/500,100,215.0
731,E4,112.0,0.125,100,215.0
732,A4,112.0,26/125,100,215.0
733,B2,112.0,4.0,75,215.0
734,A3,112.0,4.0,75,215.0
735,E-4,112.0,4.0,75,215.0
736,A3,112.083,3917/1000,100,215.0
737,E-4,112.167,3833/1000,100,215.0
738,G4,112.25,3.75,100,215.0
739,A4,112.5,0.0,78,215.0
740,F#2,113.0,0.0,64,215.0
741,B4,113.458,1.0,127,215.0
742,A4,113.5,0.0,96,215.0
743,B1,113.5,0.0,96,215.0
744,F#2,113.5,0.0,96,215.0
745,E4,113.5,0.0,96,215.0
746,E4,114.0,0.0,99,215.0
747,B-2,114.0,0.0,99,215.0
748,B1,114.0,0.0,99,215.0
749,A4,114.0,0.0,99,215.0
750,A4,114.5,0.0,99,215.0
751,E4,114.5,0.0,99,215.0
752,F#2,115.0,0.0,64,215.0
753,A4,115.5,0.0,96,215.0
754,B1,115.5,0.0,96,215.0
755,E4,115.5,0.0,96,215.0
756,F#2,115.5,0.0,96,215.0
757,A4,116.0,0.0,92,215.0
758,B-2,116.0,0.0,92,215.0
759,B1,116.0,0.0,92,215.0
760,B-1,116.0,107/40,120,215.0
761,A3,116.0,21/500,100,215.0
762,E-4,116.0,0.125,100,215.0
763,G4,116.0,26/125,100,215.0
764,B-2,116.0,4.0,75,215.0
765,A3,116.0,4.0,75,215.0
766,D4,116.0,4.0,75,215.0
767,A3,116.083,3917/1000,100,215.0
768,D4,116.167,3833/1000,100,215.0
769,G4,116.25,3.75,100,215.0
770,A4,116.5,0.0,78,215.0
771,E4,116.5,333/1000,127,215.0
772,F#2,117.0,0.0,64,215.0
773,B1,117.5,0.0,92,215.0
774,A4,117.5,0.0,92,215.0
775,E2,117.5,0.0,92,215.0
776,F#2,117.5,0.0,92,215.0
777,A4,117.5,333/1000,127,215.0
778,A4,118.0,0.0,99,215.0
779,B1,118.0,0.0,99,215.0
780,E4,118.0,0.0,99,215.0
781,B-2,118.0,0.0,99,215.0
782,G4,118.458,333/1000,127,215.0
783,A4,118.5,0.0,78,215.0
784,E4,119.0,0.0,92,215.0
785,F#2,119.0,0.0,92,215.0
786,F4,119.458,333/1000,127,215.0
787,F#2,119.5,0.0,87,215.0
788,B1,119.5,0.0,87,215.0
789,A4,119.5,0.0,87,215.0
790,E4,119.958,21/500,127,215.0
791,B1,120.0,0.0,99,215.0
792,B-2,120.0,0.0,99,215.0
793,A4,120.0,0.0,99,215.0
794,E4,120.0,0.0,99,215.0
795,A1,120.0,107/40,120,215.0
796,E4,120.0,0.625,127,215.0
797,A3,120.0,21/500,100,215.0
798,D4,120.0,0.125,100,215.0
799,G4,120.0,26/125,100,215.0
800,A2,120.0,4.0,75,215.0
801,C#4,120.0,4.0,75,215.0
802,G3,120.0,4.0,75,215.0
803,G3,120.083,3917/1000,100,215.0
804,C#4,120.167,3833/1000,100,215.0
805,F4,120.25,3.75,100,215.0
806,A4,120.5,0.0,78,215.0
807,B-4,120.958,667/1000,127,215.0
808,F#2,121.0,0.0,64,215.0
809,F#2,121.5,0.0,96,215.0
810,B1,121.5,0.0,96,215.0
811,A4,121.5,0.0,96,215.0
812,E4,121.5,0.0,96,215.0
813,A4,121.958,667/1000,127,215.0
814,E4,122.0,0.0,99,215.0
815,B1,122.0,0.0,99,215.0
816,A4,122.0,0.0,99,215.0
817,B-2,122.0,0.0,99,215.0
818,A4,122.5,0.0,99,215.0
819,E4,122.5,0.0,99,215.0
820,G4,122.958,667/1000,127,215.0
821,F#2,123.0,0.0,64,215.0
822,B1,123.5,0.0,96,215.0
823,F#2,123.5,0.0,96,215.0
824,A4,123.5,0.0,96,215.0
825,E4,123.5,0.0,96,215.0
826,F4,123.958,21/500,116,215.0
827,A4,123.958,21/500,116,215.0
828,E4,123.958,21/500,116,215.0
829,A4,123.958,21/500,116,215.0
830,A4,123.958,21/500,116,215.0
831,B-2,124.0,0.0,92,215.0
832,B1,124.0,0.0,92,215.0
833,A4,124.0,0.0,92,215.0
834,D2,124.0,3333/1000,100,215.0
835,D2,124.0,107/40,120,215.0
836,G3,124.0,21/500,100,215.0
837,C#4,124.0,0.125,100,215.0
838,F4,124.0,26/125,100,215.0
839,F4,124.0,3.75,62,215.0
840,E4,124.0,3.75,62,215.0
841,F4,124.0,979/500,116,215.0
842,A4,124.0,979/500,116,215.0
843,E4,124.0,979/500,116,215.0
844,A4,124.0,979/500,116,215.0
845,A4,124.0,979/500,116,215.0
846,A3,124.083,3333/1000,100,215.0
847,C4,124.167,3333/1000,100,215.0
848,F4,124.25,3333/1000,100,215.0
849,A4,124.5,0.0,78,215.0
850,F#2,125.0,0.0,64,215.0
851,B1,125.5,0.0,92,215.0
852,A4,125.5,0.0,92,215.0
853,E2,125.5,0.0,92,215.0
854,F#2,125.5,0.0,92,215.0
855,E4,126.0,0.0,99,215.0
856,A4,126.0,0.0,99,215.0
857,B-2,126.0,0.0,99,215.0
858,B1,126.0,0.0,99,215.0
859,A4,126.5,0.0,78,215.0
860,E4,127.0,0.0,92,215.0
861,F#2,127.0,0.0,92,215.0
862,F#2,127.5,0.0,87,215.0
863,A4,127.5,0.0,87,215.0
864,B1,127.5,0.0,87,215.0
865,G1,127.5,0.5,120,215.0
866,G2,127.75,0.25,72,215.0
867,A3,127.75,0.25,72,215.0
868,C4,127.75,0.25,72,215.0
869,F3,127.75,0.25,72,215.0
870,F3,127.808,24/125,100,215.0
871,A3,127.875,0.125,100,215.0
872,C4,127.933,67/1000,100,215.0
873,B1,132.0,0.0,99,215.0
874,B-2,132.0,0.0,99,215.0
875,A4,132.0,0.0,99,215.0
876,E4,132.0,0.0,99,215.0
877,G1,132.0,87/40,120,215.0
878,F3,132.0,4.0,100,215.0
879,A3,132.0,4.0,100,215.0
880,C4,132.0,4.0,100,215.0
881,G2,132.0,4.0,72,215.0
882,A3,132.0,4.0,72,215.0
883,C4,132.0,4.0,72,215.0
884,F3,132.0,4.0,72,215.0
885,A4,132.5,0.0,78,215.0
886,F#2,133.0,0.0,64,215.0
887,E4,133.5,0.0,96,215.0
888,B1,133.5,0.0,96,215.0
889,A4,133.5,0.0,96,215.0
890,F#2,133.5,0.0,96,215.0
891,E4,134.0,0.0,99,215.0
892,B-2,134.0,0.0,99,215.0
893,B1,134.0,0.0,99,215.0
894,A4,134.0,0.0,99,215.0
895,A4,134.5,0.0,99,215.0
896,E4,134.5,0.0,99,215.0
897,F#2,135.0,0.0,64,215.0
898,B1,135.5,0.0,96,215.0
899,A4,135.5,0.0,96,215.0
900,F#2,135.5,0.0,96,215.0
901,E4,135.5,0.0,96,215.0
902,A4,136.0,0.0,101,215.0
903,B1,136.0,0.0,101,215.0
904,C#3,136.0,0.0,101,215.0
905,E1,136.0,107/40,120,215.0
906,F3,136.0,33/1000,100,215.0
907,A3,136.0,0.125,100,215.0
908,C4,136.0,1/5,100,215.0
909,A4,136.5,0.0,78,215.0
910,F#2,137.0,0.0,64,215.0
911,A4,137.5,0.0,92,215.0
912,F#2,137.5,0.0,92,215.0
913,B1,137.5,0.0,92,215.0
914,E2,137.5,0.0,92,215.0
915,G4,137.5,333/1000,127,215.0
916,E4,137.5,333/1000,127,215.0
917,G4,137.5,26/125,90,215.0
918,E4,137.5,26/125,90,215.0
919,B-2,138.0,0.0,99,215.0
920,A4,138.0,0.0,99,215.0
921,B1,138.0,0.0,99,215.0
922,E4,138.0,0.0,99,215.0
923,G4,138.0,333/1000,127,215.0
924,E4,138.0,333/1000,127,215.0
925,E3,138.0,229/500,80,215.0
926,B-3,138.0,229/500,80,215.0
927,G4,138.0,26/125,90,215.0
928,E4,138.0,26/125,90,215.0
929,D4,138.083,229/500,80,215.0
930,E4,138.083,229/500,80,215.0
931,A4,138.5,0.0,78,215.0
932,A4,138.5,333/1000,127,215.0
933,F4,138.5,333/1000,127,215.0
934,E3,138.5,229/500,80,215.0
935,B-3,138.5,229/500,80,215.0
936,A4,138.5,26/125,90,215.0
937,F4,138.5,26/125,90,215.0
938,D4,138.583,229/500,80,215.0
939,E4,138.583,229/500,80,215.0
940,E4,139.0,0.0,92,215.0
941,F#2,139.0,0.0,92,215.0
942,F#2,139.5,0.0,87,215.0
943,A4,139.5,0.0,87,215.0
944,B1,139.5,0.0,87,215.0
945,B-4,139.5,333/1000,127,215.0
946,G4,139.5,333/1000,127,215.0
947,G4,139.5,26/125,90,215.0
948,B-4,139.5,26/125,90,215.0
949,B-2,140.0,0.0,99,215.0
950,E4,140.0,0.0,99,215.0
951,B1,140.0,0.0,99,215.0
952,A4,140.0,0.0,99,215.0
953,A1,140.0,107/40,120,215.0
954,A4,140.5,0.0,78,215.0
955,B-4,140.5,333/1000,127,215.0
956,G4,140.5,333/1000,127,215.0
957,B-4,140.5,26/125,90,215.0
958,G4,140.5,26/125,90,215.0
959,F#2,141.0,0.0,64,215.0
960,A4,141.5,0.0,96,215.0
961,B1,141.5,0.0,96,215.0
962,E4,141.5,0.0,96,215.0
963,F#2,141.5,0.0,96,215.0
964,G4,141.5,333/1000,127,215.0
965,B-4,141.5,333/1000,127,215.0
966,G4,141.5,26/125,90,215.0
967,B-4,141.5,26/125,90,215.0
968,B1,142.0,0.0,99,215.0
969,A4,142.0,0.0,99,215.0
970,B-2,142.0,0.0,99,215.0
971,E4,142.0,0.0,99,215.0
972,F4,142.0,333/1000,127,215.0
973,A4,142.0,333/1000,127,215.0
974,E3,142.0,229/500,80,215.0
975,B-3,142.0,229/500,80,215.0
976,A4,142.0,26/125,90,215.0
977,F4,142.0,26/125,90,215.0
978,D4,142.083,229/500,80,215.0
979,E4,142.083,229/500,80,215.0
980,A4,142.5,0.0,99,215.0
981,E4,142.5,0.0,99,215.0
982,E3,142.5,229/500,80,215.0
983,B-3,142.5,229/500,80,215.0
984,D4,142.583,229/500,80,215.0
985,E4,142.583,229/500,80,215.0
986,F#2,143.0,0.0,64,215.0
987,G4,143.0,333/1000,127,215.0
988,E4,143.0,333/1000,127,215.0
989,E4,143.0,26/125,90,215.0
990,G4,143.0,26/125,90,215.0
991,A4,143.5,0.0,96,215.0
992,F#2,143.5,0.0,96,215.0
993,B1,143.5,0.0,96,215.0
994,E4,143.5,0.0,96,215.0
995,B-2,144.0,0.0,92,215.0
996,B1,144.0,0.0,92,215.0
997,A4,144.0,0.0,92,215.0
998,D2,144.0,3333/1000,100,215.0
999,D2,144.0,107/40,120,215.0
1000,A3,144.0,2.0,127,215.0
1001,D4,144.0,2.0,127,215.0
1002,C4,144.0,2.0,127,215.0
1003,G4,144.0,2.0,127,215.0
1004,C4,144.0,3.75,78,215.0
1005,D4,144.0,3.75,78,215.0
1006,A3,144.0,3.75,78,215.0
1007,A3,144.083,3333/1000,100,215.0
1008,C4,144.167,3333/1000,100,215.0
1009,F4,144.25,3333/1000,100,215.0
1010,A4,144.5,0.0,78,215.0
1011,F#2,145.0,0.0,64,215.0
1012,F#2,145.5,0.0,92,215.0
1013,A4,145.5,0.0,92,215.0
1014,E2,145.5,0.0,92,215.0
1015,B1,145.5,0.0,92,215.0
1016,B-2,146.0,0.0,99,215.0
1017,B1,146.0,0.0,99,215.0
1018,E4,146.0,0.0,99,215.0
1019,A4,146.0,0.0,99,215.0
1020,A4,146.5,0.0,78,215.0
1021,E4,147.0,0.0,92,215.0
1022,F#2,147.0,0.0,92,215.0
1023,A4,147.5,0.0,87,215.0
1024,F#2,147.5,0.0,87,215.0
1025,B1,147.5,0.0,87,215.0
1026,G1,147.5,0.5,120,215.0
1027,A3,147.75,0.25,127,215.0
1028,F3,147.75,0.25,127,215.0
1029,C4,147.75,0.25,127,215.0
1030,G2,147.75,0.25,84,215.0
1031,C4,147.75,0.25,84,215.0
1032,F3,147.75,0.25,84,215.0
1033,A3,147.75,0.25,84,215.0
1034,F3,147.808,24/125,100,215.0
1035,A3,147.875,0.125,100,215.0
1036,C4,147.933,67/1000,100,215.0
1037,B1,152.0,0.0,99,215.0
1038,B-2,152.0,0.0,99,215.0
1039,A4,152.0,0.0,99,215.0
1040,E4,152.0,0.0,99,215.0
1041,G1,152.0,1979/500,120,215.0
1042,F3,152.0,4.0,100,215.0
1043,A3,152.0,4.0,100,215.0
1044,C4,152.0,4.0,100,215.0
1045,A3,152.0,67/40,127,215.0
1046,F3,152.0,67/40,127,215.0
1047,C4,152.0,67/40,127,215.0
1048,G2,152.0,4.0,84,215.0
1049,C4,152.0,4.0,84,215.0
1050,F3,152.0,4.0,84,215.0
1051,A3,152.0,4.0,84,215.0
1052,A4,152.5,0.0,78,215.0
1053,F#2,153.0,0.0,64,215.0
1054,B1,153.5,0.0,96,215.0
1055,E4,153.5,0.0,96,215.0
1056,F#2,153.5,0.0,96,215.0
1057,A4,153.5,0.0,96,215.0
1058,B1,154.0,0.0,99,215.0
1059,A4,154.0,0.0,99,215.0
1060,E4,154.0,0.0,99,215.0
1061,B-2,154.0,0.0,99,215.0
1062,E4,154.5,0.0,99,215.0
1063,A4,154.5,0.0,99,215.0
1064,F#2,155.0,0.0,64,215.0
1065,F#2,155.5,0.0,96,215.0
1066,A4,155.5,0.0,96,215.0
1067,B1,155.5,0.0,96,215.0
1068,E4,155.5,0.0,96,215.0
1069,B-2,156.0,0.0,92,215.0
1070,B1,156.0,0.0,92,215.0
1071,A4,156.0,0.0,92,215.0
1072,B3,156.0,667/1000,100,215.0
1073,B3,156.0,1.0,78,215.0
1074,C2,156.0,933/1000,120,215.0
1075,F3,156.0,33/1000,100,215.0
1076,A3,156.0,0.125,100,215.0
1077,C4,156.0,1/5,100,215.0
1078,A4,156.5,0.0,78,215.0
1079,F#2,157.0,0.0,64,215.0
1080,E4,157.0,333/1000,100,215.0
1081,E4,157.0,0.5,78,215.0
1082,A4,157.5,0.0,92,215.0
1083,F#2,157.5,0.0,92,215.0
1084,B1,157.5,0.0,92,215.0
1085,E2,157.5,0.0,92,215.0
1086,A3,157.5,2.0,100,215.0
1087,A3,157.5,2.5,78,215.0
1088,C2,157.5,26/125,120,215.0
1089,E4,158.0,0.0,99,215.0
1090,A4,158.0,0.0,99,215.0
1091,B-2,158.0,0.0,99,215.0
1092,B1,158.0,0.0,99,215.0
1093,E4,158.0,229/500,100,215.0
1094,G1,158.0,933/1000,120,215.0
1095,A4,158.5,0.0,78,215.0
1096,D4,158.5,933/1000,100,215.0
1097,E4,159.0,0.0,92,215.0
1098,F#2,159.0,0.0,92,215.0
1099,A4,159.5,0.0,87,215.0
1100,F#2,159.5,0.0,87,215.0
1101,B1,159.5,0.0,87,215.0
1102,G3,159.5,0.5,100,215.0
1103,G1,159.5,26/125,120,215.0
1104,B-2,160.0,0.0,99,215.0
1105,A4,160.0,0.0,99,215.0
1106,B1,160.0,0.0,99,215.0
1107,E4,160.0,0.0,99,215.0
1108,B3,160.0,667/1000,100,215.0
1109,B3,160.0,1.0,78,215.0
1110,C2,160.0,933/1000,120,215.0
1111,G3,160.0,1979/500,100,215.0
1112,A4,160.5,0.0,78,215.0
1113,F#2,161.0,0.0,64,215.0
1114,E4,161.0,333/1000,100,215.0
1115,E4,161.0,0.5,78,215.0
1116,E4,161.5,0.0,96,215.0
1117,A4,161.5,0.0,96,215.0
1118,B1,161.5,0.0,96,215.0
1119,F#2,161.5,0.0,96,215.0
1120,A3,161.5,2.0,100,215.0
1121,A3,161.5,2.5,78,215.0
1122,C2,161.5,26/125,120,215.0
1123,E4,162.0,0.0,99,215.0
1124,B-2,162.0,0.0,99,215.0
1125,B1,162.0,0.0,99,215.0
1126,A4,162.0,0.0,99,215.0
1127,G1,162.0,933/1000,120,215.0
1128,A4,162.5,0.0,99,215.0
1129,E4,162.5,0.0,99,215.0
1130,F#2,163.0,0.0,64,215.0
1131,C2,163.0,1.0,120,215.0
1132,A4,163.5,0.0,96,215.0
1133,F#2,163.5,0.0,96,215.0
1134,E4,163.5,0.0,96,215.0
1135,B1,163.5,0.0,96,215.0
1136,A4,164.0,0.0,92,215.0
1137,B1,164.0,0.0,92,215.0
1138,B-2,164.0,0.0,92,215.0
1139,B3,164.0,667/1000,100,215.0
1140,C3,164.0,933/1000,100,215.0
1141,B3,164.0,1.0,78,215.0
1142,C2,164.0,933/1000,120,215.0
1143,A4,164.5,0.0,78,215.0
1144,F#2,165.0,0.0,64,215.0
1145,E4,165.0,333/1000,100,215.0
1146,E3,165.0,0.5,89,215.0
1147,E4,165.0,0.5,89,215.0
1148,E2,165.5,0.0,92,215.0
1149,A4,165.5,0.0,92,215.0
1150,F#2,165.5,0.0,92,215.0
1151,B1,165.5,0.0,92,215.0
1152,A3,165.5,2.0,100,215.0
1153,E4,165.5,229/500,100,215.0
1154,A3,165.5,2.5,78,215.0
1155,C2,165.5,26/125,120,215.0
1156,B1,166.0,0.0,99,215.0
1157,E4,166.0,0.0,99,215.0
1158,B-2,166.0,0.0,99,215.0
1159,A4,166.0,0.0,99,215.0
1160,E4,166.0,229/500,100,215.0
1161,G1,166.0,933/1000,120,215.0
1162,A4,166.5,0.0,78,215.0
1163,D4,166.5,933/1000,100,215.0
1164,E4,167.0,0.0,92,215.0
1165,F#2,167.0,0.0,92,215.0
1166,B1,167.5,0.0,87,215.0
1167,A4,167.5,0.0,87,215.0
1168,F#2,167.5,0.0,87,215.0
1169,G3,167.5,0.5,100,215.0
1170,G1,167.5,26/125,120,215.0
1171,B1,168.0,0.0,99,215.0
1172,A4,168.0,0.0,99,215.0
1173,B-2,168.0,0.0,99,215.0
1174,E4,168.0,0.0,99,215.0
1175,B3,168.0,667/1000,100,215.0
1176,B3,168.0,1.0,78,215.0
1177,C2,168.0,933/1000,120,215.0
1178,G3,168.0,1979/500,100,215.0
1179,A4,168.5,0.0,78,215.0
1180,F#2,169.0,0.0,64,215.0
1181,E4,169.0,333/1000,100,215.0
1182,E4,169.0,0.5,78,215.0
1183,B1,169.5,0.0,96,215.0
1184,F#2,169.5,0.0,96,215.0
1185,A4,169.5,0.0,96,215.0
1186,E4,169.5,0.0,96,215.0
1187,A3,169.5,2.0,100,215.0
1188,A3,169.5,2.5,78,215.0
1189,C2,169.5,26/125,120,215.0
1190,B-2,170.0,0.0,99,215.0
1191,E4,170.0,0.0,99,215.0
1192,A4,170.0,0.0,99,215.0
1193,B1,170.0,0.0,99,215.0
1194,G1,170.0,933/1000,120,215.0
1195,A4,170.5,0.0,99,215.0
1196,E4,170.5,0.0,99,215.0
1197,F#2,171.0,0.0,64,215.0
1198,C2,171.0,1.0,120,215.0
1199,E4,171.5,0.0,96,215.0
1200,A4,171.5,0.0,96,215.0
1201,B1,171.5,0.0,96,215.0
1202,F#2,171.5,0.0,96,215.0
1203,B-2,172.0,0.0,92,215.0
1204,B1,172.0,0.0,92,215.0
1205,A4,172.0,0.0,92,215.0
1206,B3,172.0,667/1000,100,215.0
1207,B3,172.0,1.0,78,215.0
1208,C2,172.0,933/1000,120,215.0
1209,A4,172.5,0.0,78,215.0
1210,F#2,173.0,0.0,64,215.0
1211,E4,173.0,333/1000,100,215.0
1212,E4,173.0,0.5,78,215.0
1213,A4,173.5,0.0,92,215.0
1214,E2,173.5,0.0,92,215.0
1215,B1,173.5,0.0,92,215.0
1216,F#2,173.5,0.0,92,215.0
1217,A3,173.5,2.0,100,215.0
1218,A3,173.5,2.5,78,215.0
1219,C2,173.5,26/125,120,215.0
1220,B1,174.0,0.0,99,215.0
1221,B-2,174.0,0.0,99,215.0
1222,A4,174.0,0.0,99,215.0
1223,E4,174.0,0.0,99,215.0
1224,E4,174.0,229/500,100,215.0
1225,G1,174.0,933/1000,120,215.0
1226,A4,174.5,0.0,78,215.0
1227,D4,174.5,933/1000,100,215.0
1228,E4,175.0,0.0,92,215.0
1229,F#2,175.0,0.0,92,215.0
1230,A4,175.5,0.0,87,215.0
1231,B1,175.5,0.0,87,215.0
1232,F#2,175.5,0.0,87,215.0
1233,G3,175.5,0.5,100,215.0
1234,G1,175.5,26/125,120,215.0
1235,B1,176.0,0.0,99,215.0
1236,A4,176.0,0.0,99,215.0
1237,E4,176.0,0.0,99,215.0
1238,B-2,176.0,0.0,99,215.0
1239,B3,176.0,667/1000,100,215.0
1240,B3,176.0,1.0,78,215.0
1241,C2,176.0,933/1000,120,215.0
1242,G3,176.0,1979/500,100,215.0
1243,A4,176.5,0.0,78,215.0
1244,F#2,177.0,0.0,64,215.0
1245,E4,177.0,333/1000,100,215.0
1246,E4,177.0,0.5,78,215.0
1247,F#2,177.5,0.0,96,215.0
1248,E4,177.5,0.0,96,215.0
1249,A4,177.5,0.0,96,215.0
1250,B1,177.5,0.0,96,215.0
1251,A3,177.5,2.0,100,215.0
1252,A3,177.5,2.5,78,215.0
1253,C2,177.5,26/125,120,215.0
1254,E4,178.0,0.0,99,215.0
1255,B1,178.0,0.0,99,215.0
1256,B-2,178.0,0.0,99,215.0
1257,A4,178.0,0.0,99,215.0
1258,G1,178.0,933/1000,120,215.0
1259,A4,178.5,0.0,99,215.0
1260,E4,178.5,0.0,99,215.0
1261,F#2,179.0,0.0,64,215.0
1262,C2,179.0,1.0,120,215.0
1263,B1,179.5,0.0,96,215.0
1264,F#2,179.5,0.0,96,215.0
1265,E4,179.5,0.0,96,215.0
1266,A4,179.5,0.0,96,215.0
1267,A4,180.0,0.0,92,215.0
1268,B1,180.0,0.0,92,215.0
1269,B-2,180.0,0.0,92,215.0
1270,B3,180.0,667/1000,100,215.0
1271,C3,180.0,933/1000,100,215.0
1272,B3,180.0,1.0,78,215.0
1273,C2,180.0,933/1000,120,215.0
1274,A4,180.5,0.0,78,215.0
1275,F#2,181.0,0.0,64,215.0
1276,E4,181.0,333/1000,100,215.0
1277,E3,181.0,0.5,89,215.0
1278,E4,181.0,0.5,89,215.0
1279,B1,181.5,0.0,92,215.0
1280,A4,181.5,0.0,92,215.0
1281,E2,181.5,0.0,92,215.0
1282,F#2,181.5,0.0,92,215.0
1283,A3,181.5,2.0,100,215.0
1284,E4,181.5,229/500,100,215.0
1285,A3,181.5,2.5,78,215.0
1286,C2,181.5,26/125,120,215.0
1287,B-2,182.0,0.0,99,215.0
1288,B1,182.0,0.0,99,215.0
1289,A4,182.0,0.0,99,215.0
1290,E4,182.0,0.0,99,215.0
1291,E4,182.0,229/500,100,215.0
1292,G1,182.0,933/1000,120,215.0
1293,A4,182.5,0.0,78,215.0
1294,D4,182.5,933/1000,100,215.0
1295,E4,183.0,0.0,92,215.0
1296,F#2,183.0,0.0,92,215.0
1297,B1,183.5,0.0,87,215.0
1298,A4,183.5,0.0,87,215.0
1299,F#2,183.5,0.0,87,215.0
1300,G3,183.5,0.5,100,215.0
1301,G1,183.5,26/125,120,215.0
1302,B-2,184.0,0.0,99,215.0
1303,A4,184.0,0.0,99,215.0
1304,B1,184.0,0.0,99,215.0
1305,E4,184.0,0.0,99,215.0
1306,B3,184.0,667/1000,100,215.0
1307,B3,184.0,1.0,78,215.0
1308,C2,184.0,933/1000,120,215.0
1309,G3,184.0,1979/500,100,215.0
1310,A4,184.5,0.0,78,215.0
1311,F#2,185.0,0.0,64,215.0
1312,E4,185.0,333/1000,100,215.0
1313,E4,185.0,0.5,78,215.0
1314,B1,185.5,0.0,96,215.0
1315,A4,185.5,0.0,96,215.0
1316,F#2,185.5,0.0,96,215.0
1317,E4,185.5,0.0,96,215.0
1318,A3,185.5,2.0,100,215.0
1319,A3,185.5,2.5,78,215.0
1320,C2,185.5,26/125,120,215.0
1321,E4,186.0,0.0,99,215.0
1322,B1,186.0,0.0,99,215.0
1323,B-2,186.0,0.0,99,215.0
1324,A4,186.0,0.0,99,215.0
1325,G1,186.0,933/1000,120,215.0
1326,E4,186.5,0.0,99,215.0
1327,A4,186.5,0.0,99,215.0
1328,F#2,187.0,0.0,64,215.0
1329,C2,187.0,1.0,120,215.0
1330,E4,187.5,0.0,96,215.0
1331,F#2,187.5,0.0,96,215.0
1332,A4,187.5,0.0,96,215.0
1333,B1,187.5,0.0,96,215.0
1334,B-2,188.0,0.0,92,215.0
1335,B1,188.0,0.0,92,215.0
1336,A4,188.0,0.0,92,215.0
1337,B3,188.0,1979/500,94,215.0
1338,E4,188.0,1979/500,94,215.0
1339,C4,188.0,1979/500,94,215.0
1340,A2,188.0,1979/500,94,215.0
1341,B3,188.0,1979/500,94,215.0
1342,E4,188.0,1979/500,94,215.0
1343,C4,188.0,1979/500,94,215.0
1344,A1,188.0,1979/500,94,215.0
1345,G3,188.083,3917/1000,100,215.0
1346,C4,188.167,3833/1000,100,215.0
1347,D4,188.25,3.75,100,215.0
1348,A4,188.5,0.0,78,215.0
1349,F#2,189.0,0.0,64,215.0
1350,E2,189.5,0.0,92,215.0
1351,F#2,189.5,0.0,92,215.0
1352,A4,189.5,0.0,92,215.0
1353,B1,189.5,0.0,92,215.0
1354,B1,190.0,0.0,99,215.0
1355,A4,190.0,0.0,99,215.0
1356,E4,190.0,0.0,99,215.0
1357,B-2,190.0,0.0,99,215.0
1358,A4,190.5,0.0,78,215.0
1359,F#2,191.0,0.0,92,215.0
1360,E4,191.0,0.0,92,215.0
1361,A4,191.5,0.0,87,215.0
1362,B1,191.5,0.0,87,215.0
1363,F#2,191.5,0.0,87,215.0
1364,E4,192.0,0.0,99,215.0
1365,B1,192.0,0.0,99,215.0
1366,A4,192.0,0.0,99,215.0
1367,B-2,192.0,0.0,99,215.0
1368,G3,192.0,21/500,100,215.0
1369,C4,192.0,0.125,100,215.0
1370,D4,192.0,26/125,100,215.0
1371,G#3,192.0,1979/500,94,215.0
1372,E4,192.0,1979/500,94,215.0
1373,B3,192.0,1979/500,94,215.0
1374,C3,192.0,1979/500,94,215.0
1375,E4,192.0,1979/500,94,215.0
1376,G#3,192.0,1979/500,94,215.0
1377,B3,192.0,1979/500,94,215.0
1378,C2,192.0,1979/500,94,215.0
1379,G#3,192.083,3917/1000,100,215.0
1380,B3,192.167,3833/1000,100,215.0
1381,E4,192.25,3.75,100,215.0
1382,A4,192.5,0.0,78,215.0
1383,F#2,193.0,0.0,64,215.0
1384,F#2,193.5,0.0,96,215.0
1385,B1,193.5,0.0,96,215.0
1386,E4,193.5,0.0,96,215.0
1387,A4,193.5,0.0,96,215.0
1388,E4,194.0,0.0,99,215.0
1389,B-2,194.0,0.0,99,215.0
1390,B1,194.0,0.0,99,215.0
1391,A4,194.0,0.0,99,215.0
1392,A4,194.5,0.0,99,215.0
1393,E4,194.5,0.0,99,215.0
1394,F#2,195.0,0.0,64,215.0
1395,A4,195.5,0.0,96,215.0
1396,E4,195.5,0.0,96,215.0
1397,F#2,195.5,0.0,96,215.0
1398,B1,195.5,0.0,96,215.0
1399,A4,196.0,0.0,92,215.0
1400,B1,196.0,0.0,92,215.0
1401,B-2,196.0,0.0,92,215.0
1402,G#3,196.0,21/500,100,215.0
1403,B3,196.0,0.125,100,215.0
1404,E4,196.0,26/125,100,215.0
1405,B3,196.0,1979/500,94,215.0
1406,G3,196.0,1979/500,94,215.0
1407,D4,196.0,1979/500,94,215.0
1408,A2,196.0,1979/500,94,215.0
1409,B3,196.0,1979/500,94,215.0
1410,D4,196.0,1979/500,94,215.0
1411,G3,196.0,1979/500,94,215.0
1412,A1,196.0,1979/500,94,215.0
1413,G3,196.083,3917/1000,100,215.0
1414,B3,196.167,3833/1000,100,215.0
1415,D4,196.25,3.75,100,215.0
1416,A4,196.5,0.0,78,215.0
1417,F#2,197.0,0.0,64,215.0
1418,B1,197.5,0.0,92,215.0
1419,E2,197.5,0.0,92,215.0
1420,F#2,197.5,0.0,92,215.0
1421,A4,197.5,0.0,92,215.0
1422,B-2,198.0,0.0,99,215.0
1423,E4,198.0,0.0,99,215.0
1424,A4,198.0,0.0,99,215.0
1425,B1,198.0,0.0,99,215.0
1426,A4,198.5,0.0,78,215.0
1427,F#2,199.0,0.0,92,215.0
1428,E4,199.0,0.0,92,215.0
1429,B1,199.5,0.0,87,215.0
1430,A4,199.5,0.0,87,215.0
1431,F#2,199.5,0.0,87,215.0
1432,B1,200.0,0.0,99,215.0
1433,E4,200.0,0.0,99,215.0
1434,A4,200.0,0.0,99,215.0
1435,B-2,200.0,0.0,99,215.0
1436,G3,200.0,21/500,100,215.0
1437,B3,200.0,0.125,100,215.0
1438,D4,200.0,26/125,100,215.0
1439,A3,200.0,1979/500,94,215.0
1440,D4,200.0,1979/500,94,215.0
1441,C4,200.0,1979/500,94,215.0
1442,F2,200.0,1979/500,94,215.0
1443,C4,200.0,1979/500,94,215.0
1444,D4,200.0,1979/500,94,215.0
1445,A3,200.0,1979/500,94,215.0
1446,F1,200.0,1979/500,94,215.0
1447,A3,200.083,3917/1000,100,215.0
1448,C4,200.167,3833/1000,100,215.0
1449,E4,200.25,3.75,100,215.0
1450,A4,200.5,0.0,78,215.0
1451,F#2,201.0,0.0,64,215.0
1452,E4,201.5,0.0,96,215.0
1453,F#2,201.5,0.0,96,215.0
1454,A4,201.5,0.0,96,215.0
1455,B1,201.5,0.0,96,215.0
1456,B1,202.0,0.0,99,215.0
1457,A4,202.0,0.0,99,215.0
1458,B-2,202.0,0.0,99,215.0
1459,E4,202.0,0.0,99,215.0
1460,E4,202.5,0.0,99,215.0
1461,A4,202.5,0.0,99,215.0
1462,F#2,203.0,0.0,64,215.0
1463,E4,203.5,0.0,96,215.0
1464,F#2,203.5,0.0,96,215.0
1465,A4,203.5,0.0,96,215.0
1466,B1,203.5,0.0,96,215.0
1467,B1,204.0,0.0,92,215.0
1468,A4,204.0,0.0,92,215.0
1469,B-2,204.0,0.0,92,215.0
1470,C2,204.0,1917/1000,120,215.0
1471,A3,204.0,21/500,100,215.0
1472,C4,204.0,0.125,100,215.0
1473,E4,204.0,26/125,100,215.0
1474,A4,204.5,0.0,78,215.0
1475,F#2,205.0,0.0,64,215.0
1476,B1,205.5,0.0,92,215.0
1477,E2,205.5,0.0,92,215.0
1478,A4,205.5,0.0,92,215.0
1479,F#2,205.5,0.0,92,215.0
1480,B-2,206.0,0.0,99,215.0
1481,A4,206.0,0.0,99,215.0
1482,E4,206.0,0.0,99,215.0
1483,B1,206.0,0.0,99,215.0
1484,C3,206.0,1917/1000,120,215.0
1485,B4,206.0,2.0,90,215.0
1486,F#4,206.0,2.0,90,215.0
1487,E-4,206.0,2.0,90,215.0
1488,B3,206.0,2.0,90,215.0
1489,F#4,206.0,2.0,90,215.0
1490,E-4,206.0,2.0,90,215.0
1491,B3,206.0,2.0,90,215.0
1492,F#4,206.0,2.0,90,215.0
1493,B4,206.0,2.0,90,215.0
1494,E4,206.083,1917/1000,100,215.0
1495,E-4,206.167,1833/1000,100,215.0
1496,B3,206.25,1.75,100,215.0
1497,A4,206.5,0.0,78,215.0
1498,E4,207.0,0.0,92,215.0
1499,F#2,207.0,0.0,92,215.0
1500,A4,207.5,0.0,87,215.0
1501,F#2,207.5,0.0,87,215.0
1502,B1,207.5,0.0,87,215.0
1503,B1,208.0,0.0,99,215.0
1504,E4,208.0,0.0,99,215.0
1505,B-2,208.0,0.0,99,215.0
1506,A4,208.0,0.0,99,215.0
1507,E4,208.0,83/1000,100,215.0
1508,E-4,208.0,167/1000,100,215.0
1509,B3,208.0,0.25,100,215.0
1510,B4,208.0,1979/500,92,215.0
1511,D4,208.0,1979/500,92,215.0
1512,E4,208.0,1979/500,92,215.0
1513,G4,208.0,1979/500,92,215.0
1514,B3,208.0,1979/500,92,215.0
1515,G4,208.0,1979/500,92,215.0
1516,G4,208.0,1979/500,92,215.0
1517,B3,208.0,1979/500,92,215.0
1518,E4,208.0,1979/500,92,215.0
1519,B4,208.0,1979/500,92,215.0
1520,D4,208.0,1979/500,92,215.0
1521,C2,208.0,1979/500,92,215.0
1522,E4,208.083,3917/1000,100,215.0
1523,B3,208.25,3.75,100,215.0
1524,A4,208.5,0.0,78,215.0
1525,F#2,209.0,0.0,64,215.0
1526,E4,209.5,0.0,96,215.0
1527,F#2,209.5,0.0,96,215.0
1528,B1,209.5,0.0,96,215.0
1529,A4,209.5,0.0,96,215.0
1530,B1,210.0,0.0,99,215.0
1531,E4,210.0,0.0,99,215.0
1532,B-2,210.0,0.0,99,215.0
1533,A4,210.0,0.0,99,215.0
1534,E4,210.5,0.0,99,215.0
1535,A4,210.5,0.0,99,215.0
1536,F#2,211.0,0.0,64,215.0
1537,F#2,211.5,0.0,96,215.0
1538,A4,211.5,0.0,96,215.0
1539,E4,211.5,0.0,96,215.0
1540,B1,211.5,0.0,96,215.0
1541,A4,212.0,0.0,92,215.0
1542,B-2,212.0,0.0,92,215.0
1543,B1,212.0,0.0,92,215.0
1544,F1,212.0,4.0,120,215.0
1545,E4,212.0,0.125,100,215.0
1546,B3,212.0,26/125,100,215.0
1547,A3,212.0,4.0,93,215.0
1548,A3,212.0,4.0,93,215.0
1549,A3,212.0,4.0,93,215.0
1550,A4,212.5,0.0,78,215.0
1551,F#2,213.0,0.0,64,215.0
1552,E2,213.5,0.0,92,215.0
1553,B1,213.5,0.0,92,215.0
1554,F#2,213.5,0.0,92,215.0
1555,A4,213.5,0.0,92,215.0
1556,B1,214.0,0.0,99,215.0
1557,A4,214.0,0.0,99,215.0
1558,B-2,214.0,0.0,99,215.0
1559,E4,214.0,0.0,99,215.0
1560,A4,214.5,0.0,78,215.0
1561,F#2,215.0,0.0,92,215.0
1562,E4,215.0,0.0,92,215.0
1563,B1,215.5,0.0,87,215.0
1564,A4,215.5,0.0,87,215.0
1565,F#2,215.5,0.0,87,215.0
1566,B-2,219.958,0.0,99,215.0
1567,E4,219.958,0.0,99,215.0
1568,A4,219.958,0.0,99,215.0
1569,B1,219.958,0.0,99,215.0
1570,F1,219.958,124/125,120,215.0
1571,A3,219.958,1979/500,93,215.0
1572,A3,219.958,1979/500,93,215.0
1573,A3,219.958,1979/500,93,215.0
1574,A4,220.458,0.0,78,215.0
1575,F#2,220.958,0.0,64,215.0
1576,F2,220.958,229/500,120,215.0
1577,A4,221.458,0.0,96,215.0
1578,F#2,221.458,0.0,96,215.0
1579,E4,221.458,0.0,96,215.0
1580,B1,221.458,0.0,96,215.0
1581,C2,221.458,229/500,120,215.0
1582,B1,221.958,0.0,99,215.0
1583,B-2,221.958,0.0,99,215.0
1584,A4,221.958,0.0,99,215.0
1585,E4,221.958,0.0,99,215.0
1586,E4,222.458,0.0,99,215.0
1587,A4,222.458,0.0,99,215.0
1588,A1,222.458,933/1000,120,215.0
1589,F#2,222.958,0.0,64,215.0
1590,A4,223.458,0.0,96,215.0
1591,B1,223.458,0.0,96,215.0
1592,F#2,223.458,0.0,96,215.0
1593,E4,223.458,0.0,96,215.0
1594,E1,223.458,229/500,120,215.0
1595,A4,223.958,0.0,92,215.0
1596,B1,223.958,0.0,92,215.0
1597,B-2,223.958,0.0,92,215.0
1598,B-2,223.958,229/500,99,215.0
1599,E1,223.958,229/500,99,215.0
1600,A4,224.458,0.0,78,215.0
1601,F#2,224.958,0.0,64,215.0
1602,E2,225.458,0.0,92,215.0
1603,B1,225.458,0.0,92,215.0
1604,F#2,225.458,0.0,92,215.0
1605,A4,225.458,0.0,92,215.0
1606,E4,225.458,26/125,89,215.0
1607,D4,225.458,26/125,89,215.0
1608,B-3,225.458,26/125,89,215.0
1609,G4,225.458,26/125,89,215.0
1610,D4,225.458,26/125,89,215.0
1611,B-3,225.458,26/125,89,215.0
1612,E4,225.458,26/125,89,215.0
1613,G4,225.458,26/125,89,215.0
1614,B-2,225.458,229/500,97,215.0
1615,E1,225.458,229/500,97,215.0
1616,E4,225.958,0.0,99,215.0
1617,B1,225.958,0.0,99,215.0
1618,B-2,225.958,0.0,99,215.0
1619,A4,225.958,0.0,99,215.0
1620,B-2,225.958,229/500,76,215.0
1621,B-1,225.958,917/1000,120,215.0
1622,E4,225.958,26/125,89,215.0
1623,G4,225.958,26/125,89,215.0
1624,D4,225.958,26/125,89,215.0
1625,B-3,225.958,26/125,89,215.0
1626,E4,225.958,26/125,89,215.0
1627,B-3,225.958,26/125,89,215.0
1628,G4,225.958,26/125,89,215.0
1629,D4,225.958,26/125,89,215.0
1630,A4,226.458,0.0,78,215.0
1631,B-2,226.458,229/500,77,215.0
1632,D4,226.458,0.625,89,215.0
1633,B-3,226.458,0.625,89,215.0
1634,E4,226.458,0.625,89,215.0
1635,G4,226.458,0.625,89,215.0
1636,E4,226.458,0.625,89,215.0
1637,G4,226.458,0.625,89,215.0
1638,B-3,226.458,0.625,89,215.0
1639,D4,226.458,0.625,89,215.0
1640,F#2,226.958,0.0,92,215.0
1641,E4,226.958,0.0,92,215.0
1642,B-1,226.958,917/1000,120,215.0
1643,B1,227.458,0.0,87,215.0
1644,F#2,227.458,0.0,87,215.0
1645,A4,227.458,0.0,87,215.0
1646,B-2,227.458,229/500,77,215.0
1647,A4,227.958,0.0,99,215.0
1648,B-2,227.958,0.0,99,215.0
1649,E4,227.958,0.0,99,215.0
1650,B1,227.958,0.0,99,215.0
1651,G3,227.958,4.0,89,215.0
1652,A3,227.958,4.0,89,215.0
1653,F4,227.958,4.0,89,215.0
1654,C#4,227.958,4.0,89,215.0
1655,C#4,227.958,4.0,89,215.0
1656,A3,227.958,4.0,89,215.0
1657,G3,227.958,4.0,89,215.0
1658,F4,227.958,4.0,89,215.0
1659,F3,227.958,229/500,98,215.0
1660,A1,227.958,229/500,98,215.0
1661,A4,228.458,0.0,78,215.0
1662,F#2,228.958,0.0,64,215.0
1663,F#2,229.458,0.0,96,215.0
1664,B1,229.458,0.0,96,215.0
1665,E4,229.458,0.0,96,215.0
1666,A4,229.458,0.0,96,215.0
1667,F3,229.458,229/500,98,215.0
1668,A1,229.458,229/500,98,215.0
1669,B1,229.958,0.0,99,215.0
1670,B-2,229.958,0.0,99,215.0
1671,A4,229.958,0.0,99,215.0
1672,E4,229.958,0.0,99,215.0
1673,F3,229.958,229/500,77,215.0
1674,A1,229.958,917/1000,120,215.0
1675,E4,230.458,0.0,99,215.0
1676,A4,230.458,0.0,99,215.0
1677,F3,230.458,229/500,77,215.0
1678,F#2,230.958,0.0,64,215.0
1679,E1,230.958,917/1000,120,215.0
1680,B1,231.458,0.0,96,215.0
1681,F#2,231.458,0.0,96,215.0
1682,A4,231.458,0.0,96,215.0
1683,E4,231.458,0.0,96,215.0
1684,F3,231.458,229/500,77,215.0
1685,A4,231.958,0.0,92,215.0
1686,B1,231.958,0.0,92,215.0
1687,B-2,231.958,0.0,92,215.0
1688,A3,231.958,229/500,98,215.0
1689,F1,231.958,229/500,98,215.0
1690,A4,232.458,0.0,78,215.0
1691,F#2,232.958,0.0,64,215.0
1692,B1,233.458,0.0,92,215.0
1693,E2,233.458,0.0,92,215.0
1694,F#2,233.458,0.0,92,215.0
1695,A4,233.458,0.0,92,215.0
1696,A3,233.458,229/500,100,215.0
1697,F1,233.458,229/500,100,215.0
1698,B-2,233.958,0.0,99,215.0
1699,B1,233.958,0.0,99,215.0
1700,A4,233.958,0.0,99,215.0
1701,E4,233.958,0.0,99,215.0
1702,A3,233.958,229/500,80,215.0
1703,F1,233.958,917/1000,120,215.0
1704,E4,233.958,2.0,89,215.0
1705,C#4,233.958,2.0,89,215.0
1706,A3,233.958,2.0,89,215.0
1707,E4,233.958,2.0,89,215.0
1708,A3,233.958,2.0,89,215.0
1709,C#4,233.958,2.0,89,215.0
1710,A4,234.458,0.0,78,215.0
1711,A3,234.458,229/500,80,215.0
1712,F#2,234.958,0.0,92,215.0
1713,E4,234.958,0.0,92,215.0
1714,A4,235.458,0.0,87,215.0
1715,B1,235.458,0.0,87,215.0
1716,F#2,235.458,0.0,87,215.0
1717,A3,235.458,229/500,77,215.0
1718,A4,235.958,0.0,99,215.0
1719,B-2,235.958,0.0,99,215.0
1720,E4,235.958,0.0,99,215.0
1721,B1,235.958,0.0,99,215.0
1722,E4,235.958,4.0,89,215.0
1723,D4,235.958,4.0,89,215.0
1724,A3,235.958,4.0,89,215.0
1725,F4,235.958,4.0,89,215.0
1726,D4,235.958,4.0,89,215.0
1727,A3,235.958,4.0,89,215.0
1728,A3,235.958,229/500,98,215.0
1729,F1,235.958,229/500,98,215.0
1730,A4,236.458,0.0,78,215.0
1731,F#2,236.958,0.0,64,215.0
1732,A4,237.458,0.0,96,215.0
1733,F#2,237.458,0.0,96,215.0
1734,E4,237.458,0.0,96,215.0
1735,B1,237.458,0.0,96,215.0
1736,A3,237.458,229/500,100,215.0
1737,F1,237.458,229/500,100,215.0
1738,B-2,237.958,0.0,99,215.0
1739,B1,237.958,0.0,99,215.0
1740,A4,237.958,0.0,99,215.0
1741,E4,237.958,0.0,99,215.0
1742,A3,237.958,229/500,79,215.0
1743,F1,237.958,917/1000,120,215.0
1744,A4,238.458,0.0,99,215.0
1745,E4,238.458,0.0,99,215.0
1746,A3,238.458,229/500,79,215.0
1747,F#2,238.958,0.0,64,215.0
1748,E4,239.458,0.0,96,215.0
1749,A4,239.458,0.0,96,215.0
1750,B1,239.458,0.0,96,215.0
1751,F#2,239.458,0.0,96,215.0
1752,A3,239.458,229/500,79,215.0
1753,E1,239.958,0.0,99,215.0
1754,A4,239.958,0.0,99,215.0
1755,B-2,239.958,0.0,99,215.0
1756,B1,239.958,0.0,99,215.0
1757,G#3,239.958,229/500,79,215.0
1758,D4,239.958,4.0,89,215.0
1759,G#3,239.958,4.0,89,215.0
1760,E4,239.958,4.0,89,215.0
1761,E4,239.958,4.0,89,215.0
1762,G#3,239.958,4.0,89,215.0
1763,D4,239.958,4.0,89,215.0
1764,A4,240.458,0.0,78,215.0
1765,F#2,240.958,0.0,64,215.0
1766,E2,241.458,0.0,92,215.0
1767,A4,241.458,0.0,92,215.0
1768,B1,241.458,0.0,92,215.0
1769,F#2,241.458,0.0,92,215.0
1770,G#3,241.458,229/500,100,215.0
1771,E1,241.458,229/500,100,215.0
1772,B1,241.958,0.0,99,215.0
1773,B-2,241.958,0.0,99,215.0
1774,E4,241.958,0.0,99,215.0
1775,A4,241.958,0.0,99,215.0
1776,G#3,241.958,229/500,100,215.0
1777,E1,241.958,229/500,100,215.0
1778,A4,242.458,0.0,78,215.0
1779,G#3,242.458,229/500,100,215.0
1780,E1,242.458,229/500,100,215.0
1781,F#2,242.958,0.0,92,215.0
1782,E4,242.958,0.0,92,215.0
1783,F#2,243.458,0.0,87,215.0
1784,A4,243.458,0.0,87,215.0
1785,B1,243.458,0.0,87,215.0
1786,G#3,243.458,229/500,100,215.0
1787,E1,243.458,229/500,100,215.0
1788,C2,243.958,0.0,103,215.0
1789,E4,243.958,0.0,103,215.0
1790,B-2,243.958,0.0,103,215.0
1791,B1,243.958,0.0,103,215.0
1792,A4,243.958,0.0,103,215.0
1793,G3,243.958,229/500,79,215.0
1794,G#3,243.958,4.0,89,215.0
1795,A3,243.958,4.0,89,215.0
1796,E4,243.958,4.0,89,215.0
1797,B3,243.958,4.0,89,215.0
1798,A3,243.958,4.0,89,215.0
1799,G#3,243.958,4.0,89,215.0
1800,E4,243.958,4.0,89,215.0
1801,B3,243.958,4.0,89,215.0
1802,A4,244.458,0.0,78,215.0
1803,F#2,244.958,0.0,64,215.0
1804,F#2,245.458,0.0,96,215.0
1805,A4,245.458,0.0,96,215.0
1806,E4,245.458,0.0,96,215.0
1807,B1,245.458,0.0,96,215.0
1808,G3,245.458,229/500,110,215.0
1809,C2,245.458,229/500,110,215.0
1810,B1,245.958,0.0,99,215.0
1811,A4,245.958,0.0,99,215.0
1812,E4,245.958,0.0,99,215.0
1813,B-2,245.958,0.0,99,215.0
1814,G3,245.958,229/500,101,215.0
1815,C2,245.958,229/500,101,215.0
1816,E4,246.458,0.0,99,215.0
1817,A4,246.458,0.0,99,215.0
1818,G3,246.458,229/500,104,215.0
1819,C2,246.458,229/500,104,215.0
1820,F#2,246.958,0.0,64,215.0
1821,B1,247.458,0.0,96,215.0
1822,E4,247.458,0.0,96,215.0
1823,A4,247.458,0.0,96,215.0
1824,F#2,247.458,0.0,96,215.0
1825,G3,247.458,229/500,102,215.0
1826,C2,247.458,229/500,102,215.0
1827,F1,247.958,0.0,99,215.0
1828,A4,247.958,0.0,99,215.0
1829,B1,247.958,0.0,99,215.0
1830,B-2,247.958,0.0,99,215.0
1831,F3,247.958,229/500,84,215.0
1832,A3,247.958,1979/500,89,215.0
1833,E4,247.958,1979/500,89,215.0
1834,G4,247.958,1979/500,89,215.0
1835,D4,247.958,1979/500,89,215.0
1836,D4,247.958,1979/500,89,215.0
1837,G4,247.958,1979/500,89,215.0
1838,E4,247.958,1979/500,89,215.0
1839,A3,247.958,1979/500,89,215.0
1840,A4,248.458,0.0,78,215.0
1841,F#2,248.958,0.0,64,215.0
1842,B1,249.458,0.0,92,215.0
1843,F#2,249.458,0.0,92,215.0
1844,E2,249.458,0.0,92,215.0
1845,A4,249.458,0.0,92,215.0
1846,F3,249.458,229/500,104,215.0
1847,F1,249.458,229/500,104,215.0
1848,B-2,249.958,0.0,99,215.0
1849,E4,249.958,0.0,99,215.0
1850,A4,249.958,0.0,99,215.0
1851,B1,249.958,0.0,99,215.0
1852,F3,249.958,229/500,105,215.0
1853,F1,249.958,229/500,105,215.0
1854,A4,250.458,0.0,78,215.0
1855,F3,250.458,229/500,105,215.0
1856,F1,250.458,229/500,105,215.0
1857,E4,250.958,0.0,92,215.0
1858,F#2,250.958,0.0,92,215.0
1859,A4,251.458,0.0,87,215.0
1860,B1,251.458,0.0,87,215.0
1861,F#2,251.458,0.0,87,215.0
1862,F3,251.458,229/500,108,215.0
1863,A1,251.458,229/500,108,215.0
1864,E4,251.958,0.0,99,215.0
1865,B-2,251.958,0.0,99,215.0
1866,B1,251.958,0.0,99,215.0
1867,A4,251.958,0.0,99,215.0
1868,D4,251.958,229/500,113,215.0
1869,E3,251.958,229/500,113,215.0
1870,B1,251.958,229/500,113,215.0
1871,B3,251.958,1417/1000,78,215.0
1872,D4,251.958,1417/1000,78,215.0
1873,A3,251.958,1417/1000,78,215.0
1874,A4,252.458,0.0,78,215.0
1875,E4,252.458,229/500,113,215.0
1876,E3,252.458,229/500,113,215.0
1877,C2,252.458,229/500,113,215.0
1878,F#2,252.958,0.0,64,215.0
1879,F4,252.958,229/500,113,215.0
1880,E3,252.958,229/500,113,215.0
1881,D2,252.958,229/500,113,215.0
1882,B1,253.458,0.0,96,215.0
1883,F#2,253.458,0.0,96,215.0
1884,A4,253.458,0.0,96,215.0
1885,E4,253.458,0.0,96,215.0
1886,G4,253.458,229/500,110,215.0
1887,E3,253.458,229/500,110,215.0
1888,G4,253.458,479/500,99,215.0
1889,E2,253.458,479/500,99,215.0
1890,G#3,253.458,2.5,78,215.0
1891,D4,253.458,2.5,78,215.0
1892,B1,253.958,0.0,99,215.0
1893,E4,253.958,0.0,99,215.0
1894,B-2,253.958,0.0,99,215.0
1895,A4,253.958,0.0,99,215.0
1896,E3,253.958,229/500,100,215.0
1897,E4,254.458,0.0,99,215.0
1898,A4,254.458,0.0,99,215.0
1899,F4,254.458,229/500,120,215.0
1900,F4,254.458,917/1000,99,215.0
1901,E1,254.458,917/1000,99,215.0
1902,F#2,254.958,0.0,64,215.0
1903,E3,254.958,229/500,100,215.0
1904,F#2,255.458,0.0,96,215.0
1905,E4,255.458,0.0,96,215.0
1906,B1,255.458,0.0,96,215.0
1907,A4,255.458,0.0,96,215.0
1908,E4,255.458,229/500,104,215.0
1909,E3,255.458,229/500,104,215.0
1910,E4,255.458,229/500,104,215.0
1911,A1,255.458,229/500,104,215.0
1912,B1,255.958,0.0,92,215.0
1913,A4,255.958,0.0,92,215.0
1914,B-2,255.958,0.0,92,215.0
1915,B3,255.958,1979/500,94,215.0
1916,C4,255.958,1979/500,94,215.0
1917,E4,255.958,1979/500,94,215.0
1918,A2,255.958,1979/500,94,215.0
1919,C4,255.958,1979/500,94,215.0
1920,E4,255.958,1979/500,94,215.0
1921,B3,255.958,1979/500,94,215.0
1922,A1,255.958,1979/500,94,215.0
1923,G3,256.042,3917/1000,100,215.0
1924,C4,256.125,3833/1000,100,215.0
1925,D4,256.208,3.75,100,215.0
1926,A4,256.458,0.0,78,215.0
1927,F#2,256.958,0.0,64,215.0
1928,E2,257.458,0.0,92,215.0
1929,B1,257.458,0.0,92,215.0
1930,F#2,257.458,0.0,92,215.0
1931,A4,257.458,0.0,92,215.0
1932,A4,257.958,0.0,99,215.0
1933,E4,257.958,0.0,99,215.0
1934,B1,257.958,0.0,99,215.0
1935,B-2,257.958,0.0,99,215.0
1936,A4,258.458,0.0,78,215.0
1937,F#2,258.958,0.0,92,215.0
1938,E4,258.958,0.0,92,215.0
1939,B1,259.458,0.0,87,215.0
1940,F#2,259.458,0.0,87,215.0
1941,A4,259.458,0.0,87,215.0
1942,B1,259.958,0.0,99,215.0
1943,E4,259.958,0.0,99,215.0
1944,B-2,259.958,0.0,99,215.0
1945,A4,259.958,0.0,99,215.0
1946,G3,259.958,21/500,100,215.0
1947,C4,259.958,0.125,100,215.0
1948,D4,259.958,26/125,100,215.0
1949,E4,259.958,1979/500,94,215.0
1950,B3,259.958,1979/500,94,215.0
1951,G#3,259.958,1979/500,94,215.0
1952,C3,259.958,1979/500,94,215.0
1953,E4,259.958,1979/500,94,215.0
1954,B3,259.958,1979/500,94,215.0
1955,G#3,259.958,1979/500,94,215.0
1956,C2,259.958,1979/500,94,215.0
1957,G#3,260.042,3917/1000,100,215.0
1958,B3,260.125,3833/1000,100,215.0
1959,E4,260.208,3.75,100,215.0
1960,A4,260.458,0.0,78,215.0
1961,F#2,260.958,0.0,64,215.0
1962,B1,261.458,0.0,96,215.0
1963,A4,261.458,0.0,96,215.0
1964,E4,261.458,0.0,96,215.0
1965,F#2,261.458,0.0,96,215.0
1966,B-2,261.958,0.0,99,215.0
1967,B1,261.958,0.0,99,215.0
1968,A4,261.958,0.0,99,215.0
1969,E4,261.958,0.0,99,215.0
1970,A4,262.458,0.0,99,215.0
1971,E4,262.458,0.0,99,215.0
1972,F#2,262.958,0.0,64,215.0
1973,E4,263.458,0.0,96,215.0
1974,A4,263.458,0.0,96,215.0
1975,F#2,263.458,0.0,96,215.0
1976,B1,263.458,0.0,96,215.0
1977,B-2,263.958,0.0,92,215.0
1978,A4,263.958,0.0,92,215.0
1979,B1,263.958,0.0,92,215.0
1980,G#3,263.958,21/500,100,215.0
1981,B3,263.958,0.125,100,215.0
1982,E4,263.958,26/125,100,215.0
1983,B3,263.958,1979/500,94,215.0
1984,D4,263.958,1979/500,94,215.0
1985,G3,263.958,1979/500,94,215.0
1986,A2,263.958,1979/500,94,215.0
1987,B3,263.958,1979/500,94,215.0
1988,D4,263.958,1979/500,94,215.0
1989,G3,263.958,1979/500,94,215.0
1990,A1,263.958,1979/500,94,215.0
1991,G3,264.042,3917/1000,100,215.0
1992,B3,264.125,3833/1000,100,215.0
1993,D4,264.208,3.75,100,215.0
1994,A4,264.458,0.0,78,215.0
1995,F#2,264.958,0.0,64,215.0
1996,B1,265.458,0.0,92,215.0
1997,E2,265.458,0.0,92,215.0
1998,F#2,265.458,0.0,92,215.0
1999,A4,265.458,0.0,92,215.0
2000,B-2,265.958,0.0,99,215.0
2001,A4,265.958,0.0,99,215.0
2002,B1,265.958,0.0,99,215.0
2003,E4,265.958,0.0,99,215.0
2004,A4,266.458,0.0,78,215.0
2005,F#2,266.958,0.0,92,215.0
2006,E4,266.958,0.0,92,215.0
2007,B1,267.458,0.0,87,215.0
2008,F#2,267.458,0.0,87,215.0
2009,A4,267.458,0.0,87,215.0
2010,A4,267.958,0.0,99,215.0
2011,B1,267.958,0.0,99,215.0
2012,E4,267.958,0.0,99,215.0
2013,B-2,267.958,0.0,99,215.0
2014,G3,267.958,21/500,100,215.0
2015,B3,267.958,0.125,100,215.0
2016,D4,267.958,26/125,100,215.0
2017,D4,267.958,1979/500,94,215.0
2018,C4,267.958,1979/500,94,215.0
2019,A3,267.958,1979/500,94,215.0
2020,F2,267.958,1979/500,94,215.0
2021,C4,267.958,1979/500,94,215.0
2022,D4,267.958,1979/500,94,215.0
2023,A3,267.958,1979/500,94,215.0
2024,F1,267.958,1979/500,94,215.0
2025,A3,268.042,3917/1000,100,215.0
2026,C4,268.125,3833/1000,100,215.0
2027,E4,268.208,3.75,100,215.0
2028,A4,268.458,0.0,78,215.0
2029,F#2,268.958,0.0,64,215.0
2030,E4,269.458,0.0,96,215.0
2031,F#2,269.458,0.0,96,215.0
2032,B1,269.458,0.0,96,215.0
2033,A4,269.458,0.0,96,215.0
2034,A4,269.958,0.0,99,215.0
2035,B-2,269.958,0.0,99,215.0
2036,B1,269.958,0.0,99,215.0
2037,E4,269.958,0.0,99,215.0
2038,A4,270.458,0.0,99,215.0
2039,E4,270.458,0.0,99,215.0
2040,F#2,270.958,0.0,64,215.0
2041,A4,271.458,0.0,96,215.0
2042,F#2,271.458,0.0,96,215.0
2043,E4,271.458,0.0,96,215.0
2044,B1,271.458,0.0,96,215.0
2045,B-2,271.958,0.0,92,215.0
2046,B1,271.958,0.0,92,215.0
2047,A4,271.958,0.0,92,215.0
2048,C2,271.958,1917/1000,120,215.0
2049,A3,271.958,21/500,100,215.0
2050,C4,271.958,0.125,100,215.0
2051,E4,271.958,26/125,100,215.0
2052,A4,272.458,0.0,78,215.0
2053,F#2,272.958,0.0,64,215.0
2054,F#2,273.458,0.0,92,215.0
2055,B1,273.458,0.0,92,215.0
2056,A4,273.458,0.0,92,215.0
2057,E2,273.458,0.0,92,215.0
2058,E4,273.958,0.0,99,215.0
2059,B-2,273.958,0.0,99,215.0
2060,A4,273.958,0.0,99,215.0
2061,B1,273.958,0.0,99,215.0
2062,C3,273.958,1917/1000,120,215.0
2063,B3,273.958,2.0,90,215.0
2064,B4,273.958,2.0,90,215.0
2065,E-4,273.958,2.0,90,215.0
2066,F#4,273.958,2.0,90,215.0
2067,F#4,273.958,2.0,90,215.0
2068,F#4,273.958,2.0,90,215.0
2069,B3,273.958,2.0,90,215.0
2070,B4,273.958,2.0,90,215.0
2071,E-4,273.958,2.0,90,215.0
2072,E4,274.042,1917/1000,100,215.0
2073,E-4,274.125,1833/1000,100,215.0
2074,B3,274.208,1.75,100,215.0
2075,A4,274.458,0.0,78,215.0
2076,F#2,274.958,0.0,92,215.0
2077,E4,274.958,0.0,92,215.0
2078,F#2,275.458,0.0,87,215.0
2079,B1,275.458,0.0,87,215.0
2080,A4,275.458,0.0,87,215.0
2081,E4,275.958,0.0,99,215.0
2082,B1,275.958,0.0,99,215.0
2083,B-2,275.958,0.0,99,215.0
2084,A4,275.958,0.0,99,215.0
2085,E4,275.958,83/1000,100,215.0
2086,E-4,275.958,167/1000,100,215.0
2087,B3,275.958,0.25,100,215.0
2088,G4,275.958,1979/500,92,215.0
2089,E4,275.958,1979/500,92,215.0
2090,B4,275.958,1979/500,92,215.0
2091,B3,275.958,1979/500,92,215.0
2092,D4,275.958,1979/500,92,215.0
2093,G4,275.958,1979/500,92,215.0
2094,D4,275.958,1979/500,92,215.0
2095,E4,275.958,1979/500,92,215.0
2096,B4,275.958,1979/500,92,215.0
2097,B3,275.958,1979/500,92,215.0
2098,G4,275.958,1979/500,92,215.0
2099,C2,275.958,1979/500,92,215.0
2100,E4,276.042,3917/1000,100,215.0
2101,B3,276.208,3.75,100,215.0
2102,A4,276.458,0.0,78,215.0
2103,F#2,276.958,0.0,64,215.0
2104,F#2,277.458,0.0,96,215.0
2105,A4,277.458,0.0,96,215.0
2106,B1,277.458,0.0,96,215.0
2107,E4,277.458,0.0,96,215.0
2108,A4,277.958,0.0,99,215.0
2109,E4,277.958,0.0,99,215.0
2110,B-2,277.958,0.0,99,215.0
2111,B1,277.958,0.0,99,215.0
2112,E4,278.458,0.0,99,215.0
2113,A4,278.458,0.0,99,215.0
2114,F#2,278.958,0.0,64,215.0
2115,A4,279.458,0.0,96,215.0
2116,B1,279.458,0.0,96,215.0
2117,E4,279.458,0.0,96,215.0
2118,F#2,279.458,0.0,96,215.0
2119,A4,279.958,0.0,92,215.0
2120,B-2,279.958,0.0,92,215.0
2121,B1,279.958,0.0,92,215.0
2122,F1,279.958,4.0,120,215.0
2123,E4,279.958,0.125,100,215.0
2124,B3,279.958,26/125,100,215.0
2125,A3,279.958,4.0,93,215.0
2126,A3,279.958,4.0,93,215.0
2127,A3,279.958,4.0,93,215.0
2128,A4,280.458,0.0,78,215.0
2129,F#2,280.958,0.0,64,215.0
2130,B1,281.458,0.0,92,215.0
2131,A4,281.458,0.0,92,215.0
2132,F#2,281.458,0.0,92,215.0
2133,E2,281.458,0.0,92,215.0
2134,A4,281.958,0.0,99,215.0
2135,E4,281.958,0.0,99,215.0
2136,B-2,281.958,0.0,99,215.0
2137,B1,281.958,0.0,99,215.0
2138,A4,282.458,0.0,78,215.0
2139,F#2,282.958,0.0,92,215.0
2140,E4,282.958,0.0,92,215.0
2141,B1,283.458,0.0,87,215.0
2142,F#2,283.458,0.0,87,215.0
2143,A4,283.458,0.0,87,215.0
2144,B1,287.917,0.0,99,215.0
2145,B-2,287.917,0.0,99,215.0
2146,E4,287.917,0.0,99,215.0
2147,A4,287.917,0.0,99,215.0
2148,F1,287.917,124/125,120,215.0
2149,A3,287.917,1979/500,93,215.0
2150,A3,287.917,1979/500,93,215.0
2151,A3,287.917,1979/500,93,215.0
2152,A4,288.417,0.0,78,215.0
2153,F#2,288.917,0.0,64,215.0
2154,F2,288.917,229/500,120,215.0
2155,E4,289.417,0.0,96,215.0
2156,F#2,289.417,0.0,96,215.0
2157,A4,289.417,0.0,96,215.0
2158,B1,289.417,0.0,96,215.0
2159,C2,289.417,229/500,120,215.0
2160,E4,289.917,0.0,99,215.0
2161,B-2,289.917,0.0,99,215.0
2162,A4,289.917,0.0,99,215.0
2163,B1,289.917,0.0,99,215.0
2164,A4,290.417,0.0,99,215.0
2165,E4,290.417,0.0,99,215.0
2166,A1,290.417,933/1000,120,215.0
2167,F#2,290.917,0.0,64,215.0
2168,A4,291.417,0.0,96,215.0
2169,E4,291.417,0.0,96,215.0
2170,B1,291.417,0.0,96,215.0
2171,F#2,291.417,0.0,96,215.0
2172,F1,291.417,229/500,120,215.0
2173,B1,291.917,0.0,92,215.0
2174,A4,291.917,0.0,92,215.0
2175,B-2,291.917,0.0,92,215.0
2176,B-3,291.917,229/500,110,215.0
2177,E1,291.917,229/500,110,215.0
2178,A4,292.417,0.0,78,215.0
2179,F#2,292.917,0.0,64,215.0
2180,E2,293.417,0.0,92,215.0
2181,F#2,293.417,0.0,92,215.0
2182,B1,293.417,0.0,92,215.0
2183,A4,293.417,0.0,92,215.0
2184,G4,293.417,229/500,84,215.0
2185,E4,293.417,229/500,84,215.0
2186,B3,293.417,229/500,84,215.0
2187,D4,293.417,229/500,84,215.0
2188,B-3,293.417,229/500,84,215.0
2189,B3,293.417,229/500,84,215.0
2190,G4,293.417,229/500,84,215.0
2191,E4,293.417,229/500,84,215.0
2192,D4,293.417,229/500,84,215.0
2193,E1,293.417,229/500,84,215.0
2194,A4,293.917,0.0,99,215.0
2195,B-2,293.917,0.0,99,215.0
2196,E4,293.917,0.0,99,215.0
2197,B1,293.917,0.0,99,215.0
2198,B-3,293.917,229/500,100,215.0
2199,B-1,293.917,933/1000,120,215.0
2200,A4,294.417,0.0,78,215.0
2201,F#2,294.917,0.0,92,215.0
2202,E4,294.917,0.0,92,215.0
2203,B-3,294.917,229/500,90,215.0
2204,B-1,294.917,933/1000,120,215.0
2205,F#2,295.417,0.0,87,215.0
2206,B1,295.417,0.0,87,215.0
2207,A4,295.417,0.0,87,215.0
2208,B-3,295.417,229/500,90,215.0
2209,E4,295.917,0.0,99,215.0
2210,B-2,295.917,0.0,99,215.0
2211,A4,295.917,0.0,99,215.0
2212,B1,295.917,0.0,99,215.0
2213,F4,295.917,4.0,78,215.0
2214,A3,295.917,4.0,78,215.0
2215,C#4,295.917,4.0,78,215.0
2216,G3,295.917,4.0,78,215.0
2217,G3,295.917,4.0,78,215.0
2218,A3,295.917,4.0,78,215.0
2219,F4,295.917,4.0,78,215.0
2220,C#4,295.917,4.0,78,215.0
2221,A3,295.917,229/500,105,215.0
2222,A1,295.917,229/500,105,215.0
2223,A4,296.417,0.0,78,215.0
2224,A3,296.417,229/500,89,215.0
2225,F#2,296.917,0.0,64,215.0
2226,E4,297.417,0.0,96,215.0
2227,B1,297.417,0.0,96,215.0
2228,F#2,297.417,0.0,96,215.0
2229,A4,297.417,0.0,96,215.0
2230,A3,297.417,229/500,104,215.0
2231,A1,297.417,229/500,104,215.0
2232,B1,297.917,0.0,99,215.0
2233,B-2,297.917,0.0,99,215.0
2234,A4,297.917,0.0,99,215.0
2235,E4,297.917,0.0,99,215.0
2236,A3,297.917,229/500,104,215.0
2237,A1,297.917,229/500,104,215.0
2238,A4,298.417,0.0,99,215.0
2239,E4,298.417,0.0,99,215.0
2240,F#2,298.917,0.0,64,215.0
2241,B1,299.417,0.0,96,215.0
2242,A4,299.417,0.0,96,215.0
2243,F#2,299.417,0.0,96,215.0
2244,E4,299.417,0.0,96,215.0
2245,A3,299.417,229/500,104,215.0
2246,A1,299.417,229/500,104,215.0
2247,A4,299.917,0.0,92,215.0
2248,B-2,299.917,0.0,92,215.0
2249,B1,299.917,0.0,92,215.0
2250,C4,299.917,3.0,78,215.0
2251,F3,299.917,3.0,78,215.0
2252,A3,299.917,3.0,78,215.0
2253,E4,299.917,3.0,78,215.0
2254,F3,299.917,3.0,78,215.0
2255,A3,299.917,3.0,78,215.0
2256,C4,299.917,3.0,78,215.0
2257,E4,299.917,3.0,78,215.0
2258,A3,299.917,229/500,104,215.0
2259,D2,299.917,229/500,104,215.0
2260,A4,300.417,0.0,78,215.0
2261,F#2,300.917,0.0,64,215.0
2262,A4,301.417,0.0,92,215.0
2263,E2,301.417,0.0,92,215.0
2264,B1,301.417,0.0,92,215.0
2265,F#2,301.417,0.0,92,215.0
2266,A3,301.417,229/500,104,215.0
2267,D2,301.417,229/500,104,215.0
2268,B-2,301.917,0.0,99,215.0
2269,B1,301.917,0.0,99,215.0
2270,A4,301.917,0.0,99,215.0
2271,E4,301.917,0.0,99,215.0
2272,A3,301.917,229/500,89,215.0
2273,C2,301.917,933/1000,120,215.0
2274,A4,302.417,0.0,78,215.0
2275,F#2,302.917,0.0,92,215.0
2276,E4,302.917,0.0,92,215.0
2277,A3,302.917,229/500,89,215.0
2278,E1,302.917,933/1000,120,215.0
2279,D4,302.917,1.0,78,215.0
2280,D4,302.917,1.0,78,215.0
2281,A4,303.417,0.0,87,215.0
2282,F#2,303.417,0.0,87,215.0
2283,B1,303.417,0.0,87,215.0
2284,B-2,303.917,0.0,99,215.0
2285,E4,303.917,0.0,99,215.0
2286,A4,303.917,0.0,99,215.0
2287,B1,303.917,0.0,99,215.0
2288,F3,303.917,4.0,78,215.0
2289,D4,303.917,4.0,78,215.0
2290,C4,303.917,4.0,78,215.0
2291,G#3,303.917,4.0,78,215.0
2292,D4,303.917,4.0,78,215.0
2293,G#3,303.917,4.0,78,215.0
2294,C4,303.917,4.0,78,215.0
2295,F3,303.917,4.0,78,215.0
2296,G#3,303.917,229/500,105,215.0
2297,F1,303.917,229/500,105,215.0
2298,A4,304.417,0.0,78,215.0
2299,G#3,304.417,229/500,90,215.0
2300,F#2,304.917,0.0,64,215.0
2301,E4,305.417,0.0,96,215.0
2302,B1,305.417,0.0,96,215.0
2303,F#2,305.417,0.0,96,215.0
2304,A4,305.417,0.0,96,215.0
2305,G#3,305.417,229/500,102,215.0
2306,F1,305.417,229/500,102,215.0
2307,A4,305.917,0.0,99,215.0
2308,E4,305.917,0.0,99,215.0
2309,B1,305.917,0.0,99,215.0
2310,B-2,305.917,0.0,99,215.0
2311,F1,305.917,229/500,120,215.0
2312,E4,306.417,0.0,99,215.0
2313,A4,306.417,0.0,99,215.0
2314,F#2,306.917,0.0,64,215.0
2315,G#3,306.917,229/500,91,215.0
2316,B1,307.417,0.0,96,215.0
2317,A4,307.417,0.0,96,215.0
2318,E4,307.417,0.0,96,215.0
2319,F#2,307.417,0.0,96,215.0
2320,F1,307.417,229/500,120,215.0
2321,A4,307.917,0.0,92,215.0
2322,B1,307.917,0.0,92,215.0
2323,B-2,307.917,0.0,92,215.0
2324,E4,307.917,229/500,97,215.0
2325,C4,307.917,229/500,97,215.0
2326,E1,307.917,229/500,97,215.0
2327,A4,308.417,0.0,78,215.0
2328,C4,308.417,229/500,74,215.0
2329,F#2,308.917,0.0,64,215.0
2330,G4,308.917,229/500,78,215.0
2331,B1,309.417,0.0,92,215.0
2332,A4,309.417,0.0,92,215.0
2333,E2,309.417,0.0,92,215.0
2334,F#2,309.417,0.0,92,215.0
2335,F4,309.417,229/500,90,215.0
2336,C4,309.417,229/500,90,215.0
2337,E1,309.417,229/500,90,215.0
2338,A4,309.917,0.0,99,215.0
2339,B1,309.917,0.0,99,215.0
2340,B-2,309.917,0.0,99,215.0
2341,E4,309.917,0.0,99,215.0
2342,C4,309.917,229/500,94,215.0
2343,F1,309.917,229/500,94,215.0
2344,A4,310.417,0.0,78,215.0
2345,C#4,310.417,229/500,78,215.0
2346,E4,310.917,0.0,92,215.0
2347,F#2,310.917,0.0,92,215.0
2348,C4,310.917,229/500,66,215.0
2349,F#2,311.417,0.0,87,215.0
2350,A4,311.417,0.0,87,215.0
2351,B1,311.417,0.0,87,215.0
2352,E4,311.417,229/500,88,215.0
2353,C4,311.417,229/500,88,215.0
2354,F1,311.417,229/500,88,215.0
2355,B1,311.917,0.0,99,215.0
2356,A4,311.917,0.0,99,215.0
2357,B-2,311.917,0.0,99,215.0
2358,E4,311.917,0.0,99,215.0
2359,C4,311.917,229/500,94,215.0
2360,D2,311.917,229/500,94,215.0
2361,A4,312.417,0.0,78,215.0
2362,D4,312.417,229/500,72,215.0
2363,C4,312.417,229/500,72,215.0
2364,F#2,312.917,0.0,64,215.0
2365,E4,313.417,0.0,96,215.0
2366,F#2,313.417,0.0,96,215.0
2367,A4,313.417,0.0,96,215.0
2368,B1,313.417,0.0,96,215.0
2369,C4,313.417,229/500,88,215.0
2370,C4,313.417,229/500,88,215.0
2371,D2,313.417,229/500,88,215.0
2372,A4,313.917,0.0,99,215.0
2373,B1,313.917,0.0,99,215.0
2374,B-2,313.917,0.0,99,215.0
2375,E4,313.917,0.0,99,215.0
2376,C4,313.917,229/500,67,215.0
2377,G1,313.917,933/1000,120,215.0
2378,E4,314.417,0.0,99,215.0
2379,A4,314.417,0.0,99,215.0
2380,A3,314.417,229/500,78,215.0
2381,F#2,314.917,0.0,64,215.0
2382,C4,314.917,229/500,67,215.0
2383,G1,314.917,933/1000,120,215.0
2384,F#2,315.417,0.0,96,215.0
2385,E4,315.417,0.0,96,215.0
2386,A4,315.417,0.0,96,215.0
2387,B1,315.417,0.0,96,215.0
2388,C4,315.417,229/500,72,215.0
2389,C4,315.417,229/500,72,215.0
2390,A4,315.917,0.0,92,215.0
2391,B-2,315.917,0.0,92,215.0
2392,B1,315.917,0.0,92,215.0
2393,C4,315.917,229/500,98,215.0
2394,C2,315.917,229/500,98,215.0
2395,A4,316.417,0.0,78,215.0
2396,C4,316.417,229/500,76,215.0
2397,F#2,316.917,0.0,64,215.0
2398,A4,317.417,0.0,92,215.0
2399,F#2,317.417,0.0,92,215.0
2400,B1,317.417,0.0,92,215.0
2401,E2,317.417,0.0,92,215.0
2402,C4,317.417,229/500,98,215.0
2403,C3,317.417,229/500,98,215.0
2404,A4,317.917,0.0,99,215.0
2405,B1,317.917,0.0,99,215.0
2406,E4,317.917,0.0,99,215.0
2407,B-2,317.917,0.0,99,215.0
2408,C4,317.917,229/500,98,215.0
2409,G1,317.917,229/500,98,215.0
2410,A4,318.417,0.0,78,215.0
2411,E4,318.917,0.0,92,215.0
2412,F#2,318.917,0.0,92,215.0
2413,C4,318.917,229/500,80,215.0
2414,A4,319.417,0.0,87,215.0
2415,B1,319.417,0.0,87,215.0
2416,F#2,319.417,0.0,87,215.0
2417,C4,319.417,229/500,100,215.0
2418,C2,319.417,229/500,100,215.0
2419,A4,319.917,0.0,99,215.0
2420,B-2,319.917,0.0,99,215.0
2421,E4,319.917,0.0,99,215.0
2422,B1,319.917,0.0,99,215.0
2423,C2,319.917,229/500,120,215.0
2424,A4,320.417,0.0,78,215.0
2425,C4,320.417,229/500,86,215.0
2426,F#2,320.917,0.0,64,215.0
2427,C4,320.917,229/500,87,215.0
2428,A4,321.417,0.0,96,215.0
2429,F#2,321.417,0.0,96,215.0
2430,E4,321.417,0.0,96,215.0
2431,B1,321.417,0.0,96,215.0
2432,C4,321.417,229/500,106,215.0
2433,C2,321.417,229/500,106,215.0
2434,E4,321.917,0.0,99,215.0
2435,B1,321.917,0.0,99,215.0
2436,B-2,321.917,0.0,99,215.0
2437,A4,321.917,0.0,99,215.0
2438,C4,321.917,229/500,106,215.0
2439,G1,321.917,229/500,106,215.0
2440,E4,322.417,0.0,99,215.0
2441,A4,322.417,0.0,99,215.0
2442,F#2,322.917,0.0,64,215.0
2443,C2,322.917,933/1000,120,215.0
2444,A4,323.417,0.0,96,215.0
2445,E4,323.417,0.0,96,215.0
2446,F#2,323.417,0.0,96,215.0
2447,B1,323.417,0.0,96,215.0
2448,C#3,323.917,0.0,101,215.0
2449,B1,323.917,0.0,101,215.0
2450,A4,323.917,0.0,101,215.0
2451,A3,323.917,833/1000,100,215.0
2452,F1,323.917,229/500,120,215.0
2453,C4,324.0,833/1000,100,215.0
2454,F4,324.083,833/1000,100,215.0
2455,A4,324.417,0.0,78,215.0
2456,F#2,324.917,0.0,64,215.0
2457,F#2,325.417,0.0,92,215.0
2458,A4,325.417,0.0,92,215.0
2459,B1,325.417,0.0,92,215.0
2460,E2,325.417,0.0,92,215.0
2461,A4,325.417,229/500,92,215.0
2462,A4,325.417,229/500,92,215.0
2463,F1,325.417,229/500,92,215.0
2464,D4,325.417,1417/1000,100,215.0
2465,B4,325.417,1417/1000,100,215.0
2466,B-2,325.917,0.0,99,215.0
2467,E4,325.917,0.0,99,215.0
2468,A4,325.917,0.0,99,215.0
2469,B1,325.917,0.0,99,215.0
2470,F1,325.917,229/500,120,215.0
2471,G4,325.917,1.0,78,215.0
2472,B4,325.917,1.0,78,215.0
2473,D4,325.917,1.0,78,215.0
2474,G4,325.917,1.0,78,215.0
2475,B4,325.917,1.0,78,215.0
2476,D4,325.917,1.0,78,215.0
2477,A4,326.417,0.0,78,215.0
2478,E4,326.917,0.0,92,215.0
2479,F#2,326.917,0.0,92,215.0
2480,F4,326.917,229/500,84,215.0
2481,A4,326.917,229/500,84,215.0
2482,C4,326.917,229/500,84,215.0
2483,A4,326.917,229/500,84,215.0
2484,C4,326.917,229/500,84,215.0
2485,A4,326.917,229/500,84,215.0
2486,F4,326.917,229/500,84,215.0
2487,C4,326.917,229/500,84,215.0
2488,A4,327.417,0.0,87,215.0
2489,B1,327.417,0.0,87,215.0
2490,F#2,327.417,0.0,87,215.0
2491,A1,327.417,229/500,120,215.0
2492,G4,327.417,0.5,78,215.0
2493,B3,327.417,0.5,78,215.0
2494,E4,327.417,0.5,78,215.0
2495,G4,327.417,0.5,78,215.0
2496,E4,327.417,0.5,78,215.0
2497,B3,327.417,0.5,78,215.0
2498,G4,327.417,0.5,100,215.0
2499,E4,327.417,0.5,100,215.0
2500,B3,327.417,0.5,100,215.0
2501,B-2,327.917,0.0,99,215.0
2502,E4,327.917,0.0,99,215.0
2503,A4,327.917,0.0,99,215.0
2504,B1,327.917,0.0,99,215.0
2505,C2,327.917,229/500,120,215.0
2506,G4,327.917,1.0,78,215.0
2507,B3,327.917,1.0,78,215.0
2508,E4,327.917,1.0,78,215.0
2509,G4,327.917,1.0,78,215.0
2510,E4,327.917,1.0,78,215.0
2511,B3,327.917,1.0,78,215.0
2512,G4,327.917,417/1000,100,215.0
2513,E4,327.917,417/1000,100,215.0
2514,B3,327.917,417/1000,100,215.0
2515,A4,328.417,0.0,78,215.0
2516,F#2,328.917,0.0,64,215.0
2517,F#2,329.417,0.0,96,215.0
2518,E4,329.417,0.0,96,215.0
2519,B1,329.417,0.0,96,215.0
2520,A4,329.417,0.0,96,215.0
2521,C4,329.417,229/500,107,215.0
2522,F4,329.417,229/500,107,215.0
2523,C2,329.417,229/500,107,215.0
2524,E4,329.917,0.0,99,215.0
2525,A4,329.917,0.0,99,215.0
2526,B1,329.917,0.0,99,215.0
2527,B-2,329.917,0.0,99,215.0
2528,B3,329.917,933/1000,110,215.0
2529,C2,329.917,933/1000,110,215.0
2530,E4,330.417,0.0,99,215.0
2531,A4,330.417,0.0,99,215.0
2532,F#2,330.917,0.0,64,215.0
2533,B3,330.917,229/500,100,215.0
2534,E1,330.917,933/1000,120,215.0
2535,B1,331.417,0.0,96,215.0
2536,F#2,331.417,0.0,96,215.0
2537,E4,331.417,0.0,96,215.0
2538,A4,331.417,0.0,96,215.0
2539,B3,331.417,229/500,100,215.0
2540,B1,331.917,0.0,92,215.0
2541,A4,331.917,0.0,92,215.0
2542,B-2,331.917,0.0,92,215.0
2543,A3,331.917,833/1000,100,215.0
2544,F1,331.917,229/500,120,215.0
2545,C4,332.0,833/1000,100,215.0
2546,F4,332.083,833/1000,100,215.0
2547,A4,332.417,0.0,78,215.0
2548,F#2,332.917,0.0,64,215.0
2549,E2,333.417,0.0,92,215.0
2550,F#2,333.417,0.0,92,215.0
2551,A4,333.417,0.0,92,215.0
2552,B1,333.417,0.0,92,215.0
2553,A4,333.417,229/500,92,215.0
2554,A4,333.417,229/500,92,215.0
2555,F1,333.417,229/500,92,215.0
2556,B4,333.417,1417/1000,100,215.0
2557,D4,333.417,1417/1000,100,215.0
2558,A4,333.917,0.0,99,215.0
2559,E4,333.917,0.0,99,215.0
2560,B-2,333.917,0.0,99,215.0
2561,B1,333.917,0.0,99,215.0
2562,F1,333.917,229/500,120,215.0
2563,D4,333.917,1.0,78,215.0
2564,G4,333.917,1.0,78,215.0
2565,B4,333.917,1.0,78,215.0
2566,B4,333.917,1.0,78,215.0
2567,G4,333.917,1.0,78,215.0
2568,D4,333.917,1.0,78,215.0
2569,A4,334.417,0.0,78,215.0
2570,E4,334.917,0.0,92,215.0
2571,F#2,334.917,0.0,92,215.0
2572,C4,334.917,229/500,84,215.0
2573,F4,334.917,229/500,84,215.0
2574,A4,334.917,229/500,84,215.0
2575,A4,334.917,229/500,84,215.0
2576,F4,334.917,229/500,84,215.0
2577,C4,334.917,229/500,84,215.0
2578,A4,334.917,229/500,84,215.0
2579,C4,334.917,229/500,84,215.0
2580,B1,335.417,0.0,87,215.0
2581,F#2,335.417,0.0,87,215.0
2582,A4,335.417,0.0,87,215.0
2583,A1,335.417,229/500,120,215.0
2584,G4,335.417,0.5,78,215.0
2585,B3,335.417,0.5,78,215.0
2586,E4,335.417,0.5,78,215.0
2587,G4,335.417,0.5,78,215.0
2588,E4,335.417,0.5,78,215.0
2589,B3,335.417,0.5,78,215.0
2590,G4,335.417,0.5,100,215.0
2591,E4,335.417,0.5,100,215.0
2592,B3,335.417,0.5,100,215.0
2593,A4,335.917,0.0,99,215.0
2594,B1,335.917,0.0,99,215.0
2595,B-2,335.917,0.0,99,215.0
2596,E4,335.917,0.0,99,215.0
2597,C2,335.917,229/500,120,215.0
2598,G4,335.917,1.0,78,215.0
2599,B3,335.917,1.0,78,215.0
2600,E4,335.917,1.0,78,215.0
2601,G4,335.917,1.0,78,215.0
2602,E4,335.917,1.0,78,215.0
2603,B3,335.917,1.0,78,215.0
2604,G4,335.917,417/1000,100,215.0
2605,E4,335.917,417/1000,100,215.0
2606,B3,335.917,417/1000,100,215.0
2607,A4,336.417,0.0,78,215.0
2608,F#2,336.917,0.0,64,215.0
2609,F#2,337.417,0.0,96,215.0
2610,B1,337.417,0.0,96,215.0
2611,E4,337.417,0.0,96,215.0
2612,A4,337.417,0.0,96,215.0
2613,F4,337.417,229/500,107,215.0
2614,C4,337.417,229/500,107,215.0
2615,C2,337.417,229/500,107,215.0
2616,B-2,337.917,0.0,99,215.0
2617,E4,337.917,0.0,99,215.0
2618,A4,337.917,0.0,99,215.0
2619,B1,337.917,0.0,99,215.0
2620,B3,337.917,933/1000,100,215.0
2621,C2,337.917,229/500,120,215.0
2622,A4,338.417,0.0,99,215.0
2623,E4,338.417,0.0,99,215.0
2624,F#2,338.917,0.0,64,215.0
2625,B3,338.917,229/500,100,215.0
2626,F#2,339.417,0.0,96,215.0
2627,E4,339.417,0.0,96,215.0
2628,A4,339.417,0.0,96,215.0
2629,B1,339.417,0.0,96,215.0
2630,B3,339.417,229/500,110,215.0
2631,C2,339.417,229/500,110,215.0
2632,B1,339.917,0.0,92,215.0
2633,B-2,339.917,0.0,92,215.0
2634,A4,339.917,0.0,92,215.0
2635,B1,339.917,229/500,120,215.0
2636,A3,339.917,1479/500,78,215.0
2637,A3,339.917,1479/500,78,215.0
2638,A4,340.417,0.0,78,215.0
2639,F#2,340.917,0.0,64,215.0
2640,E2,341.417,0.0,92,215.0
2641,F#2,341.417,0.0,92,215.0
2642,A4,341.417,0.0,92,215.0
2643,B1,341.417,0.0,92,215.0
2644,F#3,341.417,229/500,125,215.0
2645,B1,341.417,229/500,125,215.0
2646,A3,341.417,229/500,125,215.0
2647,E-4,341.5,229/500,127,215.0
2648,F#4,341.5,229/500,127,215.0
2649,A4,341.917,0.0,99,215.0
2650,B-2,341.917,0.0,99,215.0
2651,B1,341.917,0.0,99,215.0
2652,E4,341.917,0.0,99,215.0
2653,B1,341.917,1917/1000,120,215.0
2654,B4,341.917,0.5,78,215.0
2655,E-4,341.917,0.5,78,215.0
2656,G4,341.917,0.5,78,215.0
2657,G4,341.917,0.5,78,215.0
2658,B4,341.917,0.5,78,215.0
2659,E-4,341.917,0.5,78,215.0
2660,F#3,341.917,833/1000,127,215.0
2661,A3,341.917,833/1000,127,215.0
2662,E-4,342.0,833/1000,127,215.0
2663,F#4,342.0,833/1000,127,215.0
2664,A4,342.417,0.0,78,215.0
2665,A4,342.417,0.5,78,215.0
2666,A4,342.417,0.5,78,215.0
2667,E4,342.917,0.0,92,215.0
2668,F#2,342.917,0.0,92,215.0
2669,B1,343.417,0.0,87,215.0
2670,A4,343.417,0.0,87,215.0
2671,F#2,343.417,0.0,87,215.0
2672,G4,343.417,0.5,78,215.0
2673,G4,343.417,0.5,78,215.0
2674,A4,343.917,0.0,99,215.0
2675,B1,343.917,0.0,99,215.0
2676,B-2,343.917,0.0,99,215.0
2677,E4,343.917,0.0,99,215.0
2678,E2,343.917,229/500,120,215.0
2679,B3,343.917,1917/1000,127,215.0
2680,E4,343.917,1917/1000,127,215.0
2681,G4,344.0,1917/1000,127,215.0
2682,A4,344.417,0.0,78,215.0
2683,E1,344.417,229/500,120,215.0
2684,F#2,344.917,0.0,64,215.0
2685,E2,344.917,729/500,120,215.0
2686,E4,344.917,0.5,78,215.0
2687,G4,344.917,0.5,78,215.0
2688,B3,344.917,0.5,78,215.0
2689,E4,344.917,0.5,78,215.0
2690,B3,344.917,0.5,78,215.0
2691,G4,344.917,0.5,78,215.0
2692,E4,345.417,0.0,96,215.0
2693,A4,345.417,0.0,96,215.0
2694,F#2,345.417,0.0,96,215.0
2695,B1,345.417,0.0,96,215.0
2696,E4,345.917,0.0,99,215.0
2697,A4,345.917,0.0,99,215.0
2698,B1,345.917,0.0,99,215.0
2699,B-2,345.917,0.0,99,215.0
2700,E3,345.917,1917/1000,127,215.0
2701,G3,345.917,1917/1000,127,215.0
2702,C#4,346.0,1917/1000,127,215.0
2703,E4,346.0,1917/1000,127,215.0
2704,A4,346.417,0.0,99,215.0
2705,E4,346.417,0.0,99,215.0
2706,A1,346.417,1417/1000,120,215.0
2707,G3,346.417,1.5,78,215.0
2708,E4,346.417,1.5,78,215.0
2709,C#4,346.417,1.5,78,215.0
2710,C#4,346.417,1.5,78,215.0
2711,G3,346.417,1.5,78,215.0
2712,E4,346.417,1.5,78,215.0
2713,F#2,346.917,0.0,64,215.0
2714,B1,347.417,0.0,96,215.0
2715,F#2,347.417,0.0,96,215.0
2716,E4,347.417,0.0,96,215.0
2717,A4,347.417,0.0,96,215.0
2718,A4,347.917,0.0,92,215.0
2719,B-2,347.917,0.0,92,215.0
2720,B1,347.917,0.0,92,215.0
2721,F4,347.917,1917/1000,85,215.0
2722,C4,347.917,1917/1000,85,215.0
2723,A4,347.917,1917/1000,85,215.0
2724,F4,347.917,1917/1000,85,215.0
2725,C4,347.917,1917/1000,85,215.0
2726,A4,347.917,1917/1000,85,215.0
2727,A3,347.917,1917/1000,85,215.0
2728,F3,347.917,1917/1000,125,215.0
2729,D2,347.917,1917/1000,125,215.0
2730,A3,347.917,1917/1000,125,215.0
2731,C4,348.0,1917/1000,127,215.0
2732,F4,348.0,1917/1000,127,215.0
2733,A4,348.417,0.0,78,215.0
2734,F#2,348.917,0.0,64,215.0
2735,F#2,349.417,0.0,92,215.0
2736,E2,349.417,0.0,92,215.0
2737,B1,349.417,0.0,92,215.0
2738,A4,349.417,0.0,92,215.0
2739,E4,349.917,0.0,99,215.0
2740,A4,349.917,0.0,99,215.0
2741,B-2,349.917,0.0,99,215.0
2742,B1,349.917,0.0,99,215.0
2743,G1,349.917,1417/1000,120,215.0
2744,B3,349.917,1917/1000,85,215.0
2745,G4,349.917,1917/1000,85,215.0
2746,E4,349.917,1917/1000,85,215.0
2747,G4,349.917,1917/1000,85,215.0
2748,E4,349.917,1917/1000,85,215.0
2749,B3,349.917,1917/1000,85,215.0
2750,B3,349.917,1917/1000,85,215.0
2751,F3,349.917,1917/1000,127,215.0
2752,B3,349.917,1917/1000,127,215.0
2753,D4,350.0,1917/1000,127,215.0
2754,A4,350.417,0.0,78,215.0
2755,F#2,350.917,0.0,92,215.0
2756,E4,350.917,0.0,92,215.0
2757,B1,351.417,0.0,87,215.0
2758,A4,351.417,0.0,87,215.0
2759,F#2,351.417,0.0,87,215.0
2760,G1,351.417,229/500,120,215.0
2761,E4,351.917,0.0,99,215.0
2762,B1,351.917,0.0,99,215.0
2763,A4,351.917,0.0,99,215.0
2764,B-2,351.917,0.0,99,215.0
2765,F1,351.917,1417/1000,120,215.0
2766,E4,351.917,1917/1000,102,215.0
2767,F3,351.917,1917/1000,102,215.0
2768,E4,351.917,1917/1000,102,215.0
2769,A3,351.917,1917/1000,102,215.0
2770,A3,351.917,1917/1000,85,215.0
2771,D4,351.917,1917/1000,85,215.0
2772,C4,351.917,1917/1000,85,215.0
2773,C4,351.917,1917/1000,85,215.0
2774,D4,351.917,1917/1000,85,215.0
2775,A3,351.917,1917/1000,85,215.0
2776,A3,351.917,1917/1000,85,215.0
2777,C4,352.0,1917/1000,127,215.0
2778,A4,352.417,0.0,78,215.0
2779,F#2,352.917,0.0,64,215.0
2780,A4,353.417,0.0,96,215.0
2781,E4,353.417,0.0,96,215.0
2782,F#2,353.417,0.0,96,215.0
2783,B1,353.417,0.0,96,215.0
2784,F1,353.417,229/500,120,215.0
2785,B1,353.917,0.0,99,215.0
2786,A4,353.917,0.0,99,215.0
2787,E4,353.917,0.0,99,215.0
2788,B-2,353.917,0.0,99,215.0
2789,E1,353.917,1417/1000,120,215.0
2790,E4,353.917,1917/1000,85,215.0
2791,D4,353.917,1917/1000,85,215.0
2792,G#3,353.917,1917/1000,85,215.0
2793,D4,353.917,1917/1000,85,215.0
2794,G#3,353.917,1917/1000,85,215.0
2795,E4,353.917,1917/1000,85,215.0
2796,G#3,353.917,1917/1000,85,215.0
2797,E3,353.917,1917/1000,127,215.0
2798,G#3,353.917,1917/1000,127,215.0
2799,D4,354.0,1917/1000,127,215.0
2800,E4,354.417,0.0,99,215.0
2801,A4,354.417,0.0,99,215.0
2802,F#2,354.917,0.0,64,215.0
2803,B1,355.417,0.0,96,215.0
2804,F#2,355.417,0.0,96,215.0
2805,E4,355.417,0.0,96,215.0
2806,A4,355.417,0.0,96,215.0
2807,E1,355.417,229/500,120,215.0
2808,B1,355.917,0.0,101,215.0
2809,C#3,355.917,0.0,101,215.0
2810,A4,355.917,0.0,101,215.0
2811,C4,355.917,1979/500,94,215.0
2812,E4,355.917,1979/500,94,215.0
2813,B3,355.917,1979/500,94,215.0
2814,A2,355.917,1979/500,94,215.0
2815,E4,355.917,1979/500,94,215.0
2816,B3,355.917,1979/500,94,215.0
2817,C4,355.917,1979/500,94,215.0
2818,A1,355.917,1979/500,94,215.0
2819,G3,356.0,3917/1000,100,215.0
2820,C4,356.083,3833/1000,100,215.0
2821,D4,356.167,3.75,100,215.0
2822,A4,356.417,0.0,78,215.0
2823,F#2,356.917,0.0,64,215.0
2824,F#2,357.417,0.0,92,215.0
2825,B1,357.417,0.0,92,215.0
2826,A4,357.417,0.0,92,215.0
2827,E2,357.417,0.0,92,215.0
2828,B1,357.917,0.0,99,215.0
2829,E4,357.917,0.0,99,215.0
2830,A4,357.917,0.0,99,215.0
2831,B-2,357.917,0.0,99,215.0
2832,A4,358.417,0.0,78,215.0
2833,E4,358.917,0.0,92,215.0
2834,F#2,358.917,0.0,92,215.0
2835,B1,359.417,0.0,87,215.0
2836,A4,359.417,0.0,87,215.0
2837,F#2,359.417,0.0,87,215.0
2838,A4,359.917,0.0,99,215.0
2839,B1,359.917,0.0,99,215.0
2840,B-2,359.917,0.0,99,215.0
2841,E4,359.917,0.0,99,215.0
2842,G3,359.917,21/500,100,215.0
2843,C4,359.917,0.125,100,215.0
2844,D4,359.917,26/125,100,215.0
2845,E4,359.917,1979/500,94,215.0
2846,G#3,359.917,1979/500,94,215.0
2847,B3,359.917,1979/500,94,215.0
2848,C3,359.917,1979/500,94,215.0
2849,G#3,359.917,1979/500,94,215.0
2850,E4,359.917,1979/500,94,215.0
2851,B3,359.917,1979/500,94,215.0
2852,C2,359.917,1979/500,94,215.0
2853,G#3,360.0,3917/1000,100,215.0
2854,B3,360.083,3833/1000,100,215.0
2855,E4,360.167,3.75,100,215.0
2856,A4,360.417,0.0,78,215.0
2857,F#2,360.917,0.0,64,215.0
2858,A4,361.417,0.0,96,215.0
2859,F#2,361.417,0.0,96,215.0
2860,B1,361.417,0.0,96,215.0
2861,E4,361.417,0.0,96,215.0
2862,A4,361.917,0.0,99,215.0
2863,E4,361.917,0.0,99,215.0
2864,B1,361.917,0.0,99,215.0
2865,B-2,361.917,0.0,99,215.0
2866,A4,362.417,0.0,99,215.0
2867,E4,362.417,0.0,99,215.0
2868,F#2,362.917,0.0,64,215.0
2869,A4,363.417,0.0,96,215.0
2870,E4,363.417,0.0,96,215.0
2871,F#2,363.417,0.0,96,215.0
2872,B1,363.417,0.0,96,215.0
2873,B1,363.917,0.0,92,215.0
2874,B-2,363.917,0.0,92,215.0
2875,A4,363.917,0.0,92,215.0
2876,G#3,363.917,21/500,100,215.0
2877,B3,363.917,0.125,100,215.0
2878,E4,363.917,26/125,100,215.0
2879,G3,363.917,1979/500,94,215.0
2880,B3,363.917,1979/500,94,215.0
2881,D4,363.917,1979/500,94,215.0
2882,A2,363.917,1979/500,94,215.0
2883,B3,363.917,1979/500,94,215.0
2884,G3,363.917,1979/500,94,215.0
2885,D4,363.917,1979/500,94,215.0
2886,A1,363.917,1979/500,94,215.0
2887,G3,364.0,3917/1000,100,215.0
2888,B3,364.083,3833/1000,100,215.0
2889,D4,364.167,3.75,100,215.0
2890,A4,364.417,0.0,78,215.0
2891,F#2,364.917,0.0,64,215.0
2892,F#2,365.417,0.0,92,215.0
2893,E2,365.417,0.0,92,215.0
2894,B1,365.417,0.0,92,215.0
2895,A4,365.417,0.0,92,215.0
2896,E4,365.917,0.0,99,215.0
2897,B-2,365.917,0.0,99,215.0
2898,B1,365.917,0.0,99,215.0
2899,A4,365.917,0.0,99,215.0
2900,A4,366.417,0.0,78,215.0
2901,F#2,366.917,0.0,92,215.0
2902,E4,366.917,0.0,92,215.0
2903,F#2,367.417,0.0,87,215.0
2904,B1,367.417,0.0,87,215.0
2905,A4,367.417,0.0,87,215.0
2906,E4,367.917,0.0,99,215.0
2907,B1,367.917,0.0,99,215.0
2908,B-2,367.917,0.0,99,215.0
2909,A4,367.917,0.0,99,215.0
2910,G3,367.917,21/500,100,215.0
2911,B3,367.917,0.125,100,215.0
2912,D4,367.917,26/125,100,215.0
2913,C4,367.917,1979/500,94,215.0
2914,D4,367.917,1979/500,94,215.0
2915,A3,367.917,1979/500,94,215.0
2916,F2,367.917,1979/500,94,215.0
2917,A3,367.917,1979/500,94,215.0
2918,D4,367.917,1979/500,94,215.0
2919,C4,367.917,1979/500,94,215.0
2920,F1,367.917,1979/500,94,215.0
2921,A3,368.0,3917/1000,100,215.0
2922,C4,368.083,3833/1000,100,215.0
2923,E4,368.167,3.75,100,215.0
2924,A4,368.417,0.0,78,215.0
2925,F#2,368.917,0.0,64,215.0
2926,B1,369.417,0.0,96,215.0
2927,F#2,369.417,0.0,96,215.0
2928,A4,369.417,0.0,96,215.0
2929,E4,369.417,0.0,96,215.0
2930,B-2,369.917,0.0,99,215.0
2931,E4,369.917,0.0,99,215.0
2932,B1,369.917,0.0,99,215.0
2933,A4,369.917,0.0,99,215.0
2934,E4,370.417,0.0,99,215.0
2935,A4,370.417,0.0,99,215.0
2936,F#2,370.917,0.0,64,215.0
2937,E4,371.417,0.0,96,215.0
2938,F#2,371.417,0.0,96,215.0
2939,A4,371.417,0.0,96,215.0
2940,B1,371.417,0.0,96,215.0
2941,B1,371.917,0.0,92,215.0
2942,B-2,371.917,0.0,92,215.0
2943,A4,371.917,0.0,92,215.0
2944,C2,371.917,1917/1000,120,215.0
2945,A3,371.917,21/500,100,215.0
2946,C4,371.917,0.125,100,215.0
2947,E4,371.917,26/125,100,215.0
2948,A4,372.417,0.0,78,215.0
2949,F#2,372.917,0.0,64,215.0
2950,A4,373.417,0.0,92,215.0
2951,E2,373.417,0.0,92,215.0
2952,B1,373.417,0.0,92,215.0
2953,F#2,373.417,0.0,92,215.0
2954,B1,373.917,0.0,99,215.0
2955,E4,373.917,0.0,99,215.0
2956,B-2,373.917,0.0,99,215.0
2957,A4,373.917,0.0,99,215.0
2958,C3,373.917,1917/1000,120,215.0
2959,B3,373.917,2.0,90,215.0
2960,E-4,373.917,2.0,90,215.0
2961,F#4,373.917,2.0,90,215.0
2962,B4,373.917,2.0,90,215.0
2963,F#4,373.917,2.0,90,215.0
2964,B4,373.917,2.0,90,215.0
2965,F#4,373.917,2.0,90,215.0
2966,E-4,373.917,2.0,90,215.0
2967,B3,373.917,2.0,90,215.0
2968,E4,374.0,1917/1000,100,215.0
2969,E-4,374.083,1833/1000,100,215.0
2970,B3,374.167,1.75,100,215.0
2971,A4,374.417,0.0,78,215.0
2972,F#2,374.917,0.0,92,215.0
2973,E4,374.917,0.0,92,215.0
2974,F#2,375.417,0.0,87,215.0
2975,B1,375.417,0.0,87,215.0
2976,A4,375.417,0.0,87,215.0
2977,E4,375.917,0.0,99,215.0
2978,B1,375.917,0.0,99,215.0
2979,A4,375.917,0.0,99,215.0
2980,B-2,375.917,0.0,99,215.0
2981,E4,375.917,83/1000,100,215.0
2982,E-4,375.917,167/1000,100,215.0
2983,B3,375.917,0.25,100,215.0
2984,D4,375.917,1979/500,92,215.0
2985,G4,375.917,1979/500,92,215.0
2986,E4,375.917,1979/500,92,215.0
2987,B4,375.917,1979/500,92,215.0
2988,B3,375.917,1979/500,92,215.0
2989,G4,375.917,1979/500,92,215.0
2990,D4,375.917,1979/500,92,215.0
2991,B4,375.917,1979/500,92,215.0
2992,B3,375.917,1979/500,92,215.0
2993,E4,375.917,1979/500,92,215.0
2994,G4,375.917,1979/500,92,215.0
2995,C2,375.917,1979/500,92,215.0
2996,E4,376.0,3917/1000,100,215.0
2997,B3,376.167,3.75,100,215.0
2998,A4,376.417,0.0,78,215.0
2999,F#2,376.917,0.0,64,215.0
3000,B1,377.417,0.0,96,215.0
3001,E4,377.417,0.0,96,215.0
3002,A4,377.417,0.0,96,215.0
3003,F#2,377.417,0.0,96,215.0
3004,B1,377.917,0.0,99,215.0
3005,E4,377.917,0.0,99,215.0
3006,A4,377.917,0.0,99,215.0
3007,B-2,377.917,0.0,99,215.0
3008,A4,378.417,0.0,99,215.0
3009,E4,378.417,0.0,99,215.0
3010,F#2,378.917,0.0,64,215.0
3011,E4,379.417,0.0,96,215.0
3012,A4,379.417,0.0,96,215.0
3013,B1,379.417,0.0,96,215.0
3014,F#2,379.417,0.0,96,215.0
3015,B1,379.917,0.0,92,215.0
3016,A4,379.917,0.0,92,215.0
3017,B-2,379.917,0.0,92,215.0
3018,A3,379.917,4.0,100,215.0
3019,F1,379.917,4.0,120,215.0
3020,E4,379.917,0.125,100,215.0
3021,B3,379.917,26/125,100,215.0
3022,A3,379.917,4.0,89,215.0
3023,A3,379.917,4.0,89,215.0
3024,A4,380.417,0.0,78,215.0
3025,F#2,380.917,0.0,64,215.0
3026,B1,381.417,0.0,92,215.0
3027,A4,381.417,0.0,92,215.0
3028,E2,381.417,0.0,92,215.0
3029,F#2,381.417,0.0,92,215.0
3030,E4,381.917,0.0,99,215.0
3031,B-2,381.917,0.0,99,215.0
3032,A4,381.917,0.0,99,215.0
3033,B1,381.917,0.0,99,215.0
3034,A4,382.417,0.0,78,215.0
3035,E4,382.917,0.0,92,215.0
3036,F#2,382.917,0.0,92,215.0
3037,B1,383.417,0.0,87,215.0
3038,A4,383.417,0.0,87,215.0
3039,F#2,383.417,0.0,87,215.0
3040,A4,386.875,0.0,99,215.0
3041,E4,386.875,0.0,99,215.0
3042,B-2,386.875,0.0,99,215.0
3043,B1,386.875,0.0,99,215.0
3044,A3,386.875,4.0,100,215.0
3045,F1,386.875,933/1000,120,215.0
3046,A3,386.875,1479/500,89,215.0
3047,A3,386.875,1479/500,89,215.0
3048,A4,387.375,0.0,78,215.0
3049,F#2,387.875,0.0,64,215.0
3050,F2,387.875,229/500,120,215.0
3051,E4,388.375,0.0,96,215.0
3052,A4,388.375,0.0,96,215.0
3053,B1,388.375,0.0,96,215.0
3054,F#2,388.375,0.0,96,215.0
3055,C2,388.375,229/500,120,215.0
3056,E4,388.875,0.0,99,215.0
3057,A4,388.875,0.0,99,215.0
3058,B1,388.875,0.0,99,215.0
3059,B-2,388.875,0.0,99,215.0
3060,E4,389.375,0.0,99,215.0
3061,A4,389.375,0.0,99,215.0
3062,A1,389.375,933/1000,120,215.0
3063,F#2,389.875,0.0,64,215.0
3064,C4,389.875,229/500,89,215.0
3065,C4,389.875,229/500,89,215.0
3066,F#2,390.375,0.0,96,215.0
3067,A4,390.375,0.0,96,215.0
3068,B1,390.375,0.0,96,215.0
3069,E4,390.375,0.0,96,215.0
3070,G4,390.375,229/500,99,215.0
3071,G4,390.375,229/500,99,215.0
3072,F1,390.375,229/500,99,215.0
3073,B-2,390.875,0.0,92,215.0
3074,A4,390.875,0.0,92,215.0
3075,B1,390.875,0.0,92,215.0
3076,E1,390.875,229/500,120,215.0
3077,A4,391.375,0.0,78,215.0
3078,F#2,391.875,0.0,64,215.0
3079,E2,392.375,0.0,92,215.0
3080,A4,392.375,0.0,92,215.0
3081,B1,392.375,0.0,92,215.0
3082,F#2,392.375,0.0,92,215.0
3083,B-3,392.375,229/500,107,215.0
3084,B-3,392.375,229/500,107,215.0
3085,E1,392.375,229/500,107,215.0
3086,E4,392.875,0.0,99,215.0
3087,B1,392.875,0.0,99,215.0
3088,A4,392.875,0.0,99,215.0
3089,B-2,392.875,0.0,99,215.0
3090,B-3,392.875,933/1000,110,215.0
3091,B-1,392.875,933/1000,110,215.0
3092,A4,393.375,0.0,78,215.0
3093,F#2,393.875,0.0,92,215.0
3094,E4,393.875,0.0,92,215.0
3095,B-3,393.875,229/500,100,215.0
3096,D4,393.875,933/1000,110,215.0
3097,B-1,393.875,933/1000,110,215.0
3098,F#2,394.375,0.0,87,215.0
3099,A4,394.375,0.0,87,215.0
3100,B1,394.375,0.0,87,215.0
3101,A4,394.875,0.0,99,215.0
3102,B1,394.875,0.0,99,215.0
3103,B-2,394.875,0.0,99,215.0
3104,E4,394.875,0.0,99,215.0
3105,C#4,394.875,1479/500,100,215.0
3106,A3,394.875,229/500,110,215.0
3107,A1,394.875,229/500,110,215.0
3108,A4,395.375,0.0,78,215.0
3109,F#2,395.875,0.0,64,215.0
3110,E4,396.375,0.0,96,215.0
3111,F#2,396.375,0.0,96,215.0
3112,A4,396.375,0.0,96,215.0
3113,B1,396.375,0.0,96,215.0
3114,A3,396.375,229/500,110,215.0
3115,A1,396.375,229/500,110,215.0
3116,E4,396.875,0.0,99,215.0
3117,B1,396.875,0.0,99,215.0
3118,A4,396.875,0.0,99,215.0
3119,B-2,396.875,0.0,99,215.0
3120,A3,396.875,229/500,110,215.0
3121,A1,396.875,229/500,110,215.0
3122,A4,397.375,0.0,99,215.0
3123,E4,397.375,0.0,99,215.0
3124,A3,397.375,229/500,100,215.0
3125,F#2,397.875,0.0,64,215.0
3126,C#4,397.875,229/500,100,215.0
3127,A3,397.875,229/500,100,215.0
3128,F#2,398.375,0.0,96,215.0
3129,B1,398.375,0.0,96,215.0
3130,A4,398.375,0.0,96,215.0
3131,E4,398.375,0.0,96,215.0
3132,A3,398.375,229/500,107,215.0
3133,A3,398.375,229/500,107,215.0
3134,A1,398.375,229/500,107,215.0
3135,A4,398.875,0.0,92,215.0
3136,B1,398.875,0.0,92,215.0
3137,B-2,398.875,0.0,92,215.0
3138,G3,398.875,1917/1000,100,215.0
3139,A3,398.875,229/500,110,215.0
3140,D2,398.875,229/500,110,215.0
3141,A4,399.375,0.0,78,215.0
3142,A3,399.375,229/500,100,215.0
3143,F#2,399.875,0.0,64,215.0
3144,E2,400.375,0.0,92,215.0
3145,A4,400.375,0.0,92,215.0
3146,F#2,400.375,0.0,92,215.0
3147,B1,400.375,0.0,92,215.0
3148,A3,400.375,229/500,110,215.0
3149,D2,400.375,229/500,110,215.0
3150,A4,400.875,0.0,99,215.0
3151,B1,400.875,0.0,99,215.0
3152,B-2,400.875,0.0,99,215.0
3153,E4,400.875,0.0,99,215.0
3154,F3,400.875,1917/1000,100,215.0
3155,A3,400.875,229/500,100,215.0
3156,D2,400.875,933/1000,120,215.0
3157,A4,401.375,0.0,78,215.0
3158,E4,401.875,0.0,92,215.0
3159,F#2,401.875,0.0,92,215.0
3160,A3,401.875,229/500,100,215.0
3161,E1,401.875,933/1000,120,215.0
3162,B1,402.375,0.0,87,215.0
3163,F#2,402.375,0.0,87,215.0
3164,A4,402.375,0.0,87,215.0
3165,A4,402.875,0.0,99,215.0
3166,B1,402.875,0.0,99,215.0
3167,E4,402.875,0.0,99,215.0
3168,B-2,402.875,0.0,99,215.0
3169,G#3,402.875,1417/1000,100,215.0
3170,G#3,402.875,229/500,110,215.0
3171,A1,402.875,229/500,110,215.0
3172,A4,403.375,0.0,78,215.0
3173,G#3,403.375,229/500,100,215.0
3174,F#2,403.875,0.0,64,215.0
3175,G#3,403.875,229/500,100,215.0
3176,F#2,404.375,0.0,96,215.0
3177,A4,404.375,0.0,96,215.0
3178,E4,404.375,0.0,96,215.0
3179,B1,404.375,0.0,96,215.0
3180,D4,404.375,1433/1000,100,215.0
3181,G#3,404.375,229/500,110,215.0
3182,A1,404.375,229/500,110,215.0
3183,B-2,404.875,0.0,99,215.0
3184,A4,404.875,0.0,99,215.0
3185,B1,404.875,0.0,99,215.0
3186,E4,404.875,0.0,99,215.0
3187,A1,404.875,229/500,120,215.0
3188,E4,405.375,0.0,99,215.0
3189,A4,405.375,0.0,99,215.0
3190,F#2,405.875,0.0,64,215.0
3191,C4,405.875,933/1000,100,215.0
3192,G#3,405.875,229/500,100,215.0
3193,E4,406.375,0.0,96,215.0
3194,B1,406.375,0.0,96,215.0
3195,A4,406.375,0.0,96,215.0
3196,F#2,406.375,0.0,96,215.0
3197,A1,406.375,229/500,120,215.0
3198,A4,406.875,0.0,92,215.0
3199,B1,406.875,0.0,92,215.0
3200,B-2,406.875,0.0,92,215.0
3201,G3,406.875,1917/1000,100,215.0
3202,G3,406.875,229/500,110,215.0
3203,E1,406.875,229/500,110,215.0
3204,A4,407.375,0.0,78,215.0
3205,F#2,407.875,0.0,64,215.0
3206,B1,408.375,0.0,92,215.0
3207,A4,408.375,0.0,92,215.0
3208,F#2,408.375,0.0,92,215.0
3209,E2,408.375,0.0,92,215.0
3210,C4,408.375,229/500,110,215.0
3211,E1,408.375,229/500,110,215.0
3212,A4,408.875,0.0,99,215.0
3213,B1,408.875,0.0,99,215.0
3214,B-2,408.875,0.0,99,215.0
3215,E4,408.875,0.0,99,215.0
3216,E4,408.875,229/500,100,215.0
3217,C4,408.875,229/500,100,215.0
3218,E4,408.875,933/1000,99,215.0
3219,A1,408.875,933/1000,99,215.0
3220,F4,409.208,229/500,100,215.0
3221,A4,409.375,0.0,78,215.0
3222,E4,409.542,229/500,100,215.0
3223,E4,409.875,0.0,92,215.0
3224,F#2,409.875,0.0,92,215.0
3225,A1,409.875,933/1000,120,215.0
3226,E-4,409.875,229/500,93,215.0
3227,C4,409.875,229/500,93,215.0
3228,E-4,409.875,229/500,93,215.0
3229,F#2,410.375,0.0,87,215.0
3230,A4,410.375,0.0,87,215.0
3231,B1,410.375,0.0,87,215.0
3232,E4,410.375,229/500,93,215.0
3233,C4,410.375,229/500,93,215.0
3234,E4,410.375,229/500,93,215.0
3235,B-2,410.875,0.0,99,215.0
3236,B1,410.875,0.0,99,215.0
3237,A4,410.875,0.0,99,215.0
3238,E4,410.875,0.0,99,215.0
3239,F4,410.875,229/500,100,215.0
3240,C4,410.875,229/500,100,215.0
3241,F4,410.875,229/500,100,215.0
3242,D2,410.875,229/500,100,215.0
3243,A4,411.375,0.0,78,215.0
3244,D4,411.375,229/500,89,215.0
3245,D4,411.375,229/500,89,215.0
3246,F#2,411.875,0.0,64,215.0
3247,C4,411.875,229/500,100,215.0
3248,B1,412.375,0.0,96,215.0
3249,A4,412.375,0.0,96,215.0
3250,F#2,412.375,0.0,96,215.0
3251,E4,412.375,0.0,96,215.0
3252,A3,412.375,229/500,100,215.0
3253,C4,412.375,229/500,100,215.0
3254,A3,412.375,229/500,100,215.0
3255,D2,412.375,229/500,100,215.0
3256,B-2,412.875,0.0,99,215.0
3257,B1,412.875,0.0,99,215.0
3258,E4,412.875,0.0,99,215.0
3259,A4,412.875,0.0,99,215.0
3260,G1,412.875,933/1000,120,215.0
3261,E4,413.375,0.0,99,215.0
3262,A4,413.375,0.0,99,215.0
3263,C4,413.375,229/500,100,215.0
3264,C#3,413.875,0.0,64,215.0
3265,C4,413.875,229/500,100,215.0
3266,C4,413.875,933/1000,99,215.0
3267,C4,413.875,933/1000,99,215.0
3268,G1,413.875,933/1000,99,215.0
3269,B1,414.375,0.0,106,215.0
3270,A4,414.375,0.0,106,215.0
3271,E4,414.375,0.0,106,215.0
3272,B1,414.875,0.0,92,215.0
3273,B-2,414.875,0.0,92,215.0
3274,A4,414.875,0.0,92,215.0
3275,C2,414.875,1417/1000,120,215.0
3276,C4,414.875,229/500,100,215.0
3277,C4,414.875,229/500,100,215.0
3278,A4,415.375,0.0,78,215.0
3279,F#2,415.875,0.0,64,215.0
3280,C4,415.875,229/500,100,215.0
3281,C4,415.875,229/500,100,215.0
3282,A4,416.375,0.0,92,215.0
3283,B1,416.375,0.0,92,215.0
3284,F#2,416.375,0.0,92,215.0
3285,E2,416.375,0.0,92,215.0
3286,C4,416.375,229/500,107,215.0
3287,C4,416.375,229/500,107,215.0
3288,C2,416.375,229/500,107,215.0
3289,B1,416.875,0.0,99,215.0
3290,E4,416.875,0.0,99,215.0
3291,A4,416.875,0.0,99,215.0
3292,B-2,416.875,0.0,99,215.0
3293,G1,416.875,1417/1000,120,215.0
3294,C4,416.875,229/500,100,215.0
3295,C4,416.875,229/500,100,215.0
3296,A4,417.375,0.0,78,215.0
3297,C4,417.375,229/500,100,215.0
3298,F#2,417.875,0.0,92,215.0
3299,E4,417.875,0.0,92,215.0
3300,C4,417.875,229/500,100,215.0
3301,B1,418.375,0.0,87,215.0
3302,A4,418.375,0.0,87,215.0
3303,F#2,418.375,0.0,87,215.0
3304,C4,418.375,229/500,110,215.0
3305,G1,418.375,229/500,110,215.0
3306,E4,418.875,0.0,99,215.0
3307,A4,418.875,0.0,99,215.0
3308,B1,418.875,0.0,99,215.0
3309,B-2,418.875,0.0,99,215.0
3310,C2,418.875,933/1000,120,215.0
3311,C4,418.875,229/500,100,215.0
3312,C4,418.875,229/500,100,215.0
3313,A4,419.375,0.0,78,215.0
3314,C4,419.375,229/500,100,215.0
3315,C4,419.375,229/500,100,215.0
3316,F#2,419.875,0.0,64,215.0
3317,C4,419.875,229/500,100,215.0
3318,E4,420.375,0.0,96,215.0
3319,F#2,420.375,0.0,96,215.0
3320,A4,420.375,0.0,96,215.0
3321,B1,420.375,0.0,96,215.0
3322,C4,420.375,229/500,107,215.0
3323,C4,420.375,229/500,107,215.0
3324,C2,420.375,229/500,107,215.0
3325,A4,420.875,0.0,99,215.0
3326,B-2,420.875,0.0,99,215.0
3327,E4,420.875,0.0,99,215.0
3328,B1,420.875,0.0,99,215.0
3329,C4,420.875,933/1000,110,215.0
3330,G1,420.875,933/1000,110,215.0
3331,E4,421.375,0.0,99,215.0
3332,A4,421.375,0.0,99,215.0
3333,C4,421.375,229/500,100,215.0
3334,F#2,421.875,0.0,64,215.0
3335,C4,421.875,229/500,100,215.0
3336,C4,421.875,933/1000,110,215.0
3337,C1,421.875,933/1000,110,215.0
3338,A4,422.375,0.0,96,215.0
3339,F#2,422.375,0.0,96,215.0
3340,E4,422.375,0.0,96,215.0
3341,B1,422.375,0.0,96,215.0
3342,C#3,422.875,0.0,101,215.0
3343,A4,422.875,0.0,101,215.0
3344,B1,422.875,0.0,101,215.0
3345,F1,422.875,1417/1000,120,215.0
3346,E4,422.875,4.0,90,215.0
3347,G4,422.875,4.0,90,215.0
3348,C4,422.875,4.0,90,215.0
3349,A3,422.875,4.0,90,215.0
3350,F3,422.875,4.0,90,215.0
3351,C4,422.875,4.0,90,215.0
3352,A3,422.875,4.0,90,215.0
3353,E4,422.875,4.0,90,215.0
3354,G4,422.875,4.0,90,215.0
3355,C4,422.958,3917/1000,100,215.0
3356,E4,423.042,3833/1000,100,215.0
3357,G4,423.125,3.75,100,215.0
3358,A4,423.375,0.0,78,215.0
3359,F#2,423.875,0.0,64,215.0
3360,A4,424.375,0.0,92,215.0
3361,F#2,424.375,0.0,92,215.0
3362,B1,424.375,0.0,92,215.0
3363,E2,424.375,0.0,92,215.0
3364,F1,424.375,229/500,120,215.0
3365,E4,424.875,0.0,99,215.0
3366,B-2,424.875,0.0,99,215.0
3367,B1,424.875,0.0,99,215.0
3368,A4,424.875,0.0,99,215.0
3369,F1,424.875,933/1000,120,215.0
3370,A4,425.375,0.0,78,215.0
3371,E4,425.875,0.0,92,215.0
3372,F#2,425.875,0.0,92,215.0
3373,F1,425.875,933/1000,120,215.0
3374,F#2,426.375,0.0,87,215.0
3375,A4,426.375,0.0,87,215.0
3376,B1,426.375,0.0,87,215.0
3377,E4,426.875,0.0,99,215.0
3378,B-2,426.875,0.0,99,215.0
3379,B1,426.875,0.0,99,215.0
3380,A4,426.875,0.0,99,215.0
3381,B1,426.875,1417/1000,120,215.0
3382,C4,426.875,21/500,100,215.0
3383,E4,426.875,0.125,100,215.0
3384,G4,426.875,26/125,100,215.0
3385,E-4,426.875,4.0,90,215.0
3386,G4,426.875,4.0,90,215.0
3387,A3,426.875,4.0,90,215.0
3388,D4,426.875,4.0,90,215.0
3389,B2,426.875,4.0,90,215.0
3390,A3,426.875,4.0,90,215.0
3391,D4,426.875,4.0,90,215.0
3392,E-4,426.875,4.0,90,215.0
3393,G4,426.875,4.0,90,215.0
3394,A3,426.958,3917/1000,100,215.0
3395,E-4,427.042,3833/1000,100,215.0
3396,G4,427.125,3.75,100,215.0
3397,A4,427.375,0.0,78,215.0
3398,F#2,427.875,0.0,64,215.0
3399,E4,428.375,0.0,96,215.0
3400,B1,428.375,0.0,96,215.0
3401,F#2,428.375,0.0,96,215.0
3402,A4,428.375,0.0,96,215.0
3403,B1,428.375,229/500,120,215.0
3404,B-2,428.875,0.0,99,215.0
3405,A4,428.875,0.0,99,215.0
3406,E4,428.875,0.0,99,215.0
3407,B1,428.875,0.0,99,215.0
3408,B1,428.875,933/1000,120,215.0
3409,E4,429.375,0.0,99,215.0
3410,A4,429.375,0.0,99,215.0
3411,F#2,429.875,0.0,64,215.0
3412,B1,429.875,933/1000,120,215.0
3413,E4,430.375,0.0,96,215.0
3414,B1,430.375,0.0,96,215.0
3415,A4,430.375,0.0,96,215.0
3416,F#2,430.375,0.0,96,215.0
3417,B-2,430.875,0.0,92,215.0
3418,B1,430.875,0.0,92,215.0
3419,A4,430.875,0.0,92,215.0
3420,B-1,430.875,1417/1000,120,215.0
3421,A3,430.875,21/500,100,215.0
3422,E-4,430.875,0.125,100,215.0
3423,G4,430.875,26/125,100,215.0
3424,G4,430.875,4.0,90,215.0
3425,C4,430.875,4.0,90,215.0
3426,A3,430.875,4.0,90,215.0
3427,D4,430.875,4.0,90,215.0
3428,B-2,430.875,4.0,90,215.0
3429,G4,430.875,4.0,90,215.0
3430,A3,430.875,4.0,90,215.0
3431,C4,430.875,4.0,90,215.0
3432,D4,430.875,4.0,90,215.0
3433,A3,430.958,3917/1000,100,215.0
3434,D4,431.042,3833/1000,100,215.0
3435,G4,431.125,3.75,100,215.0
3436,A4,431.375,0.0,78,215.0
3437,F#2,431.875,0.0,64,215.0
3438,E2,432.375,0.0,92,215.0
3439,F#2,432.375,0.0,92,215.0
3440,A4,432.375,0.0,92,215.0
3441,B1,432.375,0.0,92,215.0
3442,B-1,432.375,229/500,120,215.0
3443,A4,432.875,0.0,99,215.0
3444,B1,432.875,0.0,99,215.0
3445,B-2,432.875,0.0,99,215.0
3446,E4,432.875,0.0,99,215.0
3447,B-1,432.875,933/1000,120,215.0
3448,A4,433.375,0.0,78,215.0
3449,F#2,433.875,0.0,92,215.0
3450,E4,433.875,0.0,92,215.0
3451,B-1,433.875,933/1000,120,215.0
3452,F#2,434.375,0.0,87,215.0
3453,B1,434.375,0.0,87,215.0
3454,A4,434.375,0.0,87,215.0
3455,A4,434.875,0.0,99,215.0
3456,E4,434.875,0.0,99,215.0
3457,B1,434.875,0.0,99,215.0
3458,B-2,434.875,0.0,99,215.0
3459,A1,434.875,1417/1000,120,215.0
3460,A3,434.875,21/500,100,215.0
3461,D4,434.875,0.125,100,215.0
3462,G4,434.875,26/125,100,215.0
3463,C#4,434.875,4.0,90,215.0
3464,A3,434.875,4.0,90,215.0
3465,G4,434.875,4.0,90,215.0
3466,G3,434.875,4.0,90,215.0
3467,A2,434.875,4.0,90,215.0
3468,G4,434.875,4.0,90,215.0
3469,C#4,434.875,4.0,90,215.0
3470,A3,434.875,4.0,90,215.0
3471,G3,434.875,4.0,90,215.0
3472,G3,434.958,3917/1000,100,215.0
3473,C#4,435.042,3833/1000,100,215.0
3474,G4,435.125,3.75,100,215.0
3475,A4,435.375,0.0,78,215.0
3476,F#2,435.875,0.0,64,215.0
3477,E4,436.375,0.0,96,215.0
3478,F#2,436.375,0.0,96,215.0
3479,B1,436.375,0.0,96,215.0
3480,A4,436.375,0.0,96,215.0
3481,A1,436.375,229/500,120,215.0
3482,B1,436.875,0.0,99,215.0
3483,E4,436.875,0.0,99,215.0
3484,B-2,436.875,0.0,99,215.0
3485,A4,436.875,0.0,99,215.0
3486,A1,436.875,933/1000,120,215.0
3487,A4,437.375,0.0,99,215.0
3488,E4,437.375,0.0,99,215.0
3489,F#2,437.875,0.0,64,215.0
3490,A1,437.875,933/1000,120,215.0
3491,F#2,438.375,0.0,96,215.0
3492,B1,438.375,0.0,96,215.0
3493,E4,438.375,0.0,96,215.0
3494,A4,438.375,0.0,96,215.0
3495,B1,438.875,0.0,92,215.0
3496,B-2,438.875,0.0,92,215.0
3497,A4,438.875,0.0,92,215.0
3498,D3,438.875,3.5,100,215.0
3499,D2,438.875,1417/1000,120,215.0
3500,G3,438.875,21/500,100,215.0
3501,C#4,438.875,0.125,100,215.0
3502,G4,438.875,26/125,100,215.0
3503,F3,438.875,3.75,89,215.0
3504,E4,438.875,3.75,89,215.0
3505,C4,438.875,3.75,89,215.0
3506,A3,438.875,3.75,89,215.0
3507,E4,438.875,3.75,89,215.0
3508,A3,438.875,3.75,89,215.0
3509,F3,438.875,3.75,89,215.0
3510,C4,438.875,3.75,89,215.0
3511,C4,438.958,3.5,100,215.0
3512,E4,439.042,3.5,100,215.0
3513,G4,439.125,3.5,100,215.0
3514,A4,439.375,0.0,78,215.0
3515,F#2,439.875,0.0,64,215.0
3516,B1,440.375,0.0,92,215.0
3517,A4,440.375,0.0,92,215.0
3518,E2,440.375,0.0,92,215.0
3519,F#2,440.375,0.0,92,215.0
3520,D2,440.375,229/500,120,215.0
3521,A4,440.875,0.0,99,215.0
3522,B1,440.875,0.0,99,215.0
3523,B-2,440.875,0.0,99,215.0
3524,E4,440.875,0.0,99,215.0
3525,D2,440.875,933/1000,120,215.0
3526,A4,441.375,0.0,78,215.0
3527,F#2,441.875,0.0,92,215.0
3528,E4,441.875,0.0,92,215.0
3529,D2,441.875,933/1000,120,215.0
3530,B1,442.375,0.0,87,215.0
3531,F#2,442.375,0.0,87,215.0
3532,A4,442.375,0.0,87,215.0
3533,A3,442.625,0.25,91,215.0
3534,F3,442.625,0.25,91,215.0
3535,C4,442.625,0.25,91,215.0
3536,D4,442.625,0.25,91,215.0
3537,G2,442.625,0.25,91,215.0
3538,F3,442.625,0.25,91,215.0
3539,C4,442.625,0.25,91,215.0
3540,D4,442.625,0.25,91,215.0
3541,A3,442.625,0.25,91,215.0
3542,F3,442.625,0.25,91,215.0
3543,A3,442.75,0.125,100,215.0
3544,C4,442.75,0.125,100,215.0
3545,B1,446.808,0.0,99,215.0
3546,A4,446.808,0.0,99,215.0
3547,E4,446.808,0.0,99,215.0
3548,B-2,446.808,0.0,99,215.0
3549,G1,446.808,1417/1000,120,215.0
3550,A3,446.808,3933/1000,91,215.0
3551,F3,446.808,3933/1000,91,215.0
3552,C4,446.808,3933/1000,91,215.0
3553,D4,446.808,3933/1000,91,215.0
3554,G2,446.808,3933/1000,91,215.0
3555,F3,446.808,3933/1000,91,215.0
3556,C4,446.808,3933/1000,91,215.0
3557,D4,446.808,3933/1000,91,215.0
3558,A3,446.808,3933/1000,91,215.0
3559,F3,446.808,3933/1000,91,215.0
3560,A3,446.808,3933/1000,100,215.0
3561,C4,446.808,3933/1000,100,215.0
3562,A4,447.308,0.0,78,215.0
3563,F#2,447.808,0.0,64,215.0
3564,B1,448.308,0.0,96,215.0
3565,E4,448.308,0.0,96,215.0
3566,F#2,448.308,0.0,96,215.0
3567,A4,448.308,0.0,96,215.0
3568,G1,448.308,229/500,120,215.0
3569,E4,448.808,0.0,99,215.0
3570,A4,448.808,0.0,99,215.0
3571,B1,448.808,0.0,99,215.0
3572,B-2,448.808,0.0,99,215.0
3573,G1,448.808,933/1000,120,215.0
3574,E4,449.308,0.0,99,215.0
3575,A4,449.308,0.0,99,215.0
3576,F#2,449.808,0.0,64,215.0
3577,B1,450.308,0.0,96,215.0
3578,F#2,450.308,0.0,96,215.0
3579,A4,450.308,0.0,96,215.0
3580,E4,450.308,0.0,96,215.0
3581,B1,450.808,0.0,101,215.0
3582,C#3,450.808,0.0,101,215.0
3583,A4,450.808,0.0,101,215.0
3584,E1,450.808,1417/1000,120,215.0
3585,A4,451.308,0.0,78,215.0
3586,F#2,451.808,0.0,64,215.0
3587,E4,451.808,0.375,89,215.0
3588,G4,451.808,0.375,89,215.0
3589,G4,451.808,0.375,89,215.0
3590,E4,451.808,0.375,89,215.0
3591,F#2,452.308,0.0,92,215.0
3592,B1,452.308,0.0,92,215.0
3593,A4,452.308,0.0,92,215.0
3594,E2,452.308,0.0,92,215.0
3595,G4,452.308,0.375,84,215.0
3596,E4,452.308,0.375,84,215.0
3597,E3,452.308,0.375,84,215.0
3598,G4,452.308,0.375,84,215.0
3599,E4,452.308,0.375,84,215.0
3600,B-3,452.308,0.375,84,215.0
3601,E1,452.308,0.375,98,215.0
3602,B-3,452.308,0.375,98,215.0
3603,D4,452.392,0.375,75,215.0
3604,G4,452.392,0.375,75,215.0
3605,B1,452.808,0.0,99,215.0
3606,E4,452.808,0.0,99,215.0
3607,A4,452.808,0.0,99,215.0
3608,B-2,452.808,0.0,99,215.0
3609,E1,452.808,933/1000,120,215.0
3610,G4,452.808,0.375,84,215.0
3611,E4,452.808,0.375,84,215.0
3612,E3,452.808,0.375,84,215.0
3613,G4,452.808,0.375,84,215.0
3614,E4,452.808,0.375,84,215.0
3615,B-3,452.808,0.375,84,215.0
3616,D4,452.892,0.375,75,215.0
3617,G4,452.892,0.375,75,215.0
3618,A4,453.308,0.0,78,215.0
3619,F4,453.308,0.375,84,215.0
3620,A4,453.308,0.375,84,215.0
3621,E3,453.308,0.375,84,215.0
3622,A4,453.308,0.375,84,215.0
3623,F4,453.308,0.375,84,215.0
3624,B-3,453.308,0.375,84,215.0
3625,D4,453.392,0.375,75,215.0
3626,G4,453.392,0.375,75,215.0
3627,E4,453.808,0.0,92,215.0
3628,F#2,453.808,0.0,92,215.0
3629,B-1,453.808,933/1000,120,215.0
3630,B1,454.308,0.0,87,215.0
3631,A4,454.308,0.0,87,215.0
3632,F#2,454.308,0.0,87,215.0
3633,B-4,454.308,0.375,89,215.0
3634,G4,454.308,0.375,89,215.0
3635,B-4,454.308,0.375,89,215.0
3636,G4,454.308,0.375,89,215.0
3637,A4,454.808,0.0,99,215.0
3638,B1,454.808,0.0,99,215.0
3639,B-2,454.808,0.0,99,215.0
3640,E4,454.808,0.0,99,215.0
3641,A1,454.808,1417/1000,120,215.0
3642,E3,454.808,0.375,75,215.0
3643,G3,454.808,0.375,75,215.0
3644,C#4,454.892,0.375,75,215.0
3645,E4,454.892,0.375,75,215.0
3646,A4,455.308,0.0,78,215.0
3647,B-4,455.308,0.375,89,215.0
3648,G4,455.308,0.375,89,215.0
3649,G4,455.308,0.375,89,215.0
3650,B-4,455.308,0.375,89,215.0
3651,F#2,455.808,0.0,64,215.0
3652,E3,455.808,0.375,75,215.0
3653,G3,455.808,0.375,75,215.0
3654,C#4,455.892,0.375,75,215.0
3655,E4,455.892,0.375,75,215.0
3656,E4,456.308,0.0,96,215.0
3657,F#2,456.308,0.0,96,215.0
3658,A4,456.308,0.0,96,215.0
3659,B1,456.308,0.0,96,215.0
3660,G4,456.308,0.375,84,215.0
3661,B-4,456.308,0.375,84,215.0
3662,E3,456.308,0.375,84,215.0
3663,B-4,456.308,0.375,84,215.0
3664,G4,456.308,0.375,84,215.0
3665,G3,456.308,0.375,84,215.0
3666,A1,456.308,0.375,98,215.0
3667,G3,456.308,0.375,98,215.0
3668,C#4,456.392,0.375,75,215.0
3669,E4,456.392,0.375,75,215.0
3670,B1,456.808,0.0,99,215.0
3671,B-2,456.808,0.0,99,215.0
3672,E4,456.808,0.0,99,215.0
3673,A4,456.808,0.0,99,215.0
3674,A1,456.808,1417/1000,120,215.0
3675,A4,456.808,933/1000,89,215.0
3676,F4,456.808,933/1000,89,215.0
3677,A4,456.808,933/1000,89,215.0
3678,F4,456.808,933/1000,89,215.0
3679,E3,456.808,0.375,75,215.0
3680,G3,456.808,0.375,75,215.0
3681,C#4,456.892,0.375,75,215.0
3682,E4,456.892,0.375,75,215.0
3683,A4,457.308,0.0,99,215.0
3684,E4,457.308,0.0,99,215.0
3685,F#2,457.808,0.0,64,215.0
3686,G4,457.808,933/1000,89,215.0
3687,E4,457.808,933/1000,89,215.0
3688,E4,457.808,933/1000,89,215.0
3689,G4,457.808,933/1000,89,215.0
3690,E3,457.808,0.375,75,215.0
3691,G3,457.808,0.375,75,215.0
3692,C#4,457.892,0.375,75,215.0
3693,E4,457.892,0.375,75,215.0
3694,E4,458.308,0.0,96,215.0
3695,F#2,458.308,0.0,96,215.0
3696,B1,458.308,0.0,96,215.0
3697,A4,458.308,0.0,96,215.0
3698,A1,458.308,229/500,120,215.0
3699,A4,458.808,0.0,92,215.0
3700,B-2,458.808,0.0,92,215.0
3701,B1,458.808,0.0,92,215.0
3702,A3,458.808,1979/500,75,215.0
3703,D2,458.808,1417/1000,120,215.0
3704,F4,458.808,3.75,89,215.0
3705,C4,458.808,3.75,89,215.0
3706,A3,458.808,3.75,89,215.0
3707,D4,458.808,3.75,89,215.0
3708,G4,458.808,3.75,89,215.0
3709,D4,458.808,3.75,89,215.0
3710,C4,458.808,3.75,89,215.0
3711,F4,458.808,3.75,89,215.0
3712,G4,458.808,3.75,89,215.0
3713,A3,458.808,3.75,89,215.0
3714,C4,458.892,3917/1000,75,215.0
3715,G4,458.975,3833/1000,75,215.0
3716,A4,459.308,0.0,78,215.0
3717,F#2,459.808,0.0,64,215.0
3718,A4,460.308,0.0,92,215.0
3719,B1,460.308,0.0,92,215.0
3720,E2,460.308,0.0,92,215.0
3721,F#2,460.308,0.0,92,215.0
3722,D2,460.308,229/500,120,215.0
3723,A4,460.808,0.0,99,215.0
3724,B1,460.808,0.0,99,215.0
3725,E4,460.808,0.0,99,215.0
3726,B-2,460.808,0.0,99,215.0
3727,D2,460.808,1417/1000,120,215.0
3728,A4,461.308,0.0,78,215.0
3729,E4,461.808,0.0,92,215.0
3730,F#2,461.808,0.0,92,215.0
3731,B1,462.308,0.0,87,215.0
3732,A4,462.308,0.0,87,215.0
3733,F#2,462.308,0.0,87,215.0
3734,D2,462.308,229/500,120,215.0
3735,A3,462.558,0.25,89,215.0
3736,A3,462.558,0.25,89,215.0
3737,D4,462.558,0.25,89,215.0
3738,B3,462.558,0.25,89,215.0
3739,D4,462.558,0.25,89,215.0
3740,B3,462.558,0.25,89,215.0
3741,A4,464.725,0.0,99,215.0
3742,B-2,464.725,0.0,99,215.0
3743,E4,464.725,0.0,99,215.0
3744,B1,464.725,0.0,99,215.0
3745,B1,464.725,1417/1000,120,215.0
3746,C4,464.725,21/500,75,215.0
3747,G4,464.725,0.125,75,215.0
3748,A3,464.725,1917/1000,89,215.0
3749,A3,464.725,1917/1000,89,215.0
3750,D4,464.725,4.0,89,215.0
3751,B3,464.725,4.0,89,215.0
3752,D4,464.725,4.0,89,215.0
3753,B3,464.725,4.0,89,215.0
3754,A4,465.225,0.0,78,215.0
3755,B2,465.225,229/500,75,215.0
3756,F3,465.225,229/500,75,215.0
3757,A3,465.308,229/500,75,215.0
3758,D4,465.308,229/500,75,215.0
3759,F#2,465.725,0.0,64,215.0
3760,A4,466.225,0.0,96,215.0
3761,E4,466.225,0.0,96,215.0
3762,F#2,466.225,0.0,96,215.0
3763,B1,466.225,0.0,96,215.0
3764,B1,466.225,229/500,120,215.0
3765,B1,466.725,0.0,99,215.0
3766,E4,466.725,0.0,99,215.0
3767,B-2,466.725,0.0,99,215.0
3768,A4,466.725,0.0,99,215.0
3769,E2,466.725,1417/1000,120,215.0
3770,G#3,466.725,1917/1000,89,215.0
3771,G#3,466.725,1917/1000,89,215.0
3772,E3,466.725,833/1000,75,215.0
3773,G#3,466.725,833/1000,75,215.0
3774,D4,466.808,833/1000,75,215.0
3775,A4,467.225,0.0,99,215.0
3776,E4,467.225,0.0,99,215.0
3777,F#2,467.725,0.0,64,215.0
3778,E3,467.725,417/1000,75,215.0
3779,G#3,467.725,417/1000,75,215.0
3780,D4,467.808,417/1000,75,215.0
3781,A4,468.225,0.0,96,215.0
3782,E4,468.225,0.0,96,215.0
3783,F#2,468.225,0.0,96,215.0
3784,B1,468.225,0.0,96,215.0
3785,E2,468.225,333/1000,120,215.0
3786,B1,468.725,0.0,101,215.0
3787,C#3,468.725,0.0,101,215.0
3788,A4,468.725,0.0,101,215.0
3789,E1,468.725,1417/1000,120,215.0
3790,A4,469.225,0.0,78,215.0
3791,F#2,469.725,0.0,64,215.0
3792,G4,469.725,0.375,86,215.0
3793,E4,469.725,0.375,86,215.0
3794,E3,469.725,0.375,86,215.0
3795,E4,469.725,0.375,86,215.0
3796,G4,469.725,0.375,86,215.0
3797,B-3,469.767,417/1000,75,215.0
3798,D4,469.767,417/1000,75,215.0
3799,G4,469.85,417/1000,75,215.0
3800,E2,470.225,0.0,92,215.0
3801,A4,470.225,0.0,92,215.0
3802,B1,470.225,0.0,92,215.0
3803,F#2,470.225,0.0,92,215.0
3804,G4,470.225,0.375,84,215.0
3805,E4,470.225,0.375,84,215.0
3806,E3,470.225,0.375,84,215.0
3807,G4,470.225,0.375,84,215.0
3808,E4,470.225,0.375,84,215.0
3809,B-3,470.225,0.375,84,215.0
3810,E1,470.225,0.375,98,215.0
3811,B-3,470.225,0.375,98,215.0
3812,D4,470.308,0.375,75,215.0
3813,G4,470.308,0.375,75,215.0
3814,B1,470.725,0.0,99,215.0
3815,E4,470.725,0.0,99,215.0
3816,A4,470.725,0.0,99,215.0
3817,B-2,470.725,0.0,99,215.0
3818,B-1,470.725,933/1000,120,215.0
3819,G4,470.725,0.375,89,215.0
3820,E4,470.725,0.375,89,215.0
3821,E4,470.725,0.375,89,215.0
3822,G4,470.725,0.375,89,215.0
3823,E3,470.725,1667/1000,75,215.0
3824,B-3,470.725,1667/1000,75,215.0
3825,D4,470.808,1667/1000,75,215.0
3826,G4,470.808,1667/1000,75,215.0
3827,A4,471.225,0.0,78,215.0
3828,A4,471.225,0.375,89,215.0
3829,F4,471.225,0.375,89,215.0
3830,F4,471.225,0.375,89,215.0
3831,A4,471.225,0.375,89,215.0
3832,F#2,471.725,0.0,92,215.0
3833,E4,471.725,0.0,92,215.0
3834,B-1,471.725,933/1000,120,215.0
3835,B1,472.225,0.0,87,215.0
3836,A4,472.225,0.0,87,215.0
3837,F#2,472.225,0.0,87,215.0
3838,B-4,472.225,0.375,89,215.0
3839,G4,472.225,0.375,89,215.0
3840,B-4,472.225,0.375,89,215.0
3841,G4,472.225,0.375,89,215.0
3842,E4,472.725,0.0,99,215.0
3843,B-2,472.725,0.0,99,215.0
3844,A4,472.725,0.0,99,215.0
3845,B1,472.725,0.0,99,215.0
3846,A1,472.725,1417/1000,120,215.0
3847,E3,472.725,833/1000,75,215.0
3848,G3,472.725,833/1000,75,215.0
3849,C#4,472.808,833/1000,75,215.0
3850,E4,472.808,833/1000,75,215.0
3851,A4,473.225,0.0,78,215.0
3852,B-4,473.225,0.375,89,215.0
3853,G4,473.225,0.375,89,215.0
3854,B-4,473.225,0.375,89,215.0
3855,G4,473.225,0.375,89,215.0
3856,F#2,473.725,0.0,64,215.0
3857,B1,474.225,0.0,96,215.0
3858,F#2,474.225,0.0,96,215.0
3859,E4,474.225,0.0,96,215.0
3860,A4,474.225,0.0,96,215.0
3861,G4,474.225,0.375,84,215.0
3862,B-4,474.225,0.375,84,215.0
3863,E3,474.225,0.375,84,215.0
3864,G4,474.225,0.375,84,215.0
3865,B-4,474.225,0.375,84,215.0
3866,G3,474.225,0.375,84,215.0
3867,A1,474.225,0.375,98,215.0
3868,G3,474.225,0.375,98,215.0
3869,C#4,474.308,0.375,75,215.0
3870,E4,474.308,0.375,75,215.0
3871,A4,474.725,0.0,99,215.0
3872,B1,474.725,0.0,99,215.0
3873,E4,474.725,0.0,99,215.0
3874,B-2,474.725,0.0,99,215.0
3875,A4,474.725,833/1000,92,215.0
3876,F4,474.725,833/1000,92,215.0
3877,F4,474.725,833/1000,92,215.0
3878,A4,474.725,833/1000,92,215.0
3879,G1,474.725,833/1000,92,215.0
3880,G3,474.725,833/1000,92,215.0
3881,E3,474.725,833/1000,75,215.0
3882,G3,474.725,833/1000,75,215.0
3883,C#4,474.808,833/1000,75,215.0
3884,E4,474.808,833/1000,75,215.0
3885,A4,475.225,0.0,99,215.0
3886,E4,475.225,0.0,99,215.0
3887,F#2,475.725,0.0,64,215.0
3888,G4,475.725,933/1000,95,215.0
3889,E4,475.725,933/1000,95,215.0
3890,E4,475.725,933/1000,95,215.0
3891,G4,475.725,933/1000,95,215.0
3892,G1,475.725,933/1000,95,215.0
3893,E3,475.725,0.375,75,215.0
3894,G3,475.725,0.375,75,215.0
3895,C#4,475.808,0.375,75,215.0
3896,E4,475.808,0.375,75,215.0
3897,F#2,476.225,0.0,96,215.0
3898,A4,476.225,0.0,96,215.0
3899,E4,476.225,0.0,96,215.0
3900,B1,476.225,0.0,96,215.0
3901,B-2,476.725,0.0,92,215.0
3902,B1,476.725,0.0,92,215.0
3903,A4,476.725,0.0,92,215.0
3904,F1,476.725,1417/1000,120,215.0
3905,F3,476.725,4.0,77,215.0
3906,A3,476.725,4.0,77,215.0
3907,E4,476.725,4.0,77,215.0
3908,A3,476.808,3917/1000,75,215.0
3909,C4,476.892,3833/1000,75,215.0
3910,E4,476.975,3.75,75,215.0
3911,A4,477.225,0.0,78,215.0
3912,F#2,477.725,0.0,64,215.0
3913,A4,478.225,0.0,92,215.0
3914,B1,478.225,0.0,92,215.0
3915,E2,478.225,0.0,92,215.0
3916,F#2,478.225,0.0,92,215.0
3917,F1,478.225,229/500,120,215.0
3918,A4,478.725,0.0,99,215.0
3919,B1,478.725,0.0,99,215.0
3920,B-2,478.725,0.0,99,215.0
3921,E4,478.725,0.0,99,215.0
3922,F1,478.725,1417/1000,120,215.0
3923,A4,479.225,0.0,78,215.0
3924,F#2,479.725,0.0,92,215.0
3925,E4,479.725,0.0,92,215.0
3926,F#2,480.225,0.0,87,215.0
3927,B1,480.225,0.0,87,215.0
3928,A4,480.225,0.0,87,215.0
3929,F1,480.225,229/500,120,215.0
3930,B-2,480.725,0.0,99,215.0
3931,E4,480.725,0.0,99,215.0
3932,A4,480.725,0.0,99,215.0
3933,B1,480.725,0.0,99,215.0
3934,B1,480.725,1417/1000,120,215.0
3935,A3,480.725,21/500,75,215.0
3936,C4,480.725,0.125,75,215.0
3937,E4,480.725,26/125,75,215.0
3938,B2,480.725,4.0,77,215.0
3939,A3,480.725,4.0,77,215.0
3940,E-4,480.725,4.0,77,215.0
3941,A3,480.808,3917/1000,75,215.0
3942,E-4,480.892,3833/1000,75,215.0
3943,G4,480.975,3.75,75,215.0
3944,A4,481.225,0.0,78,215.0
3945,F#2,481.725,0.0,64,215.0
3946,F#2,482.225,0.0,96,215.0
3947,B1,482.225,0.0,96,215.0
3948,E4,482.225,0.0,96,215.0
3949,A4,482.225,0.0,96,215.0
3950,B1,482.225,229/500,120,215.0
3951,B1,482.725,0.0,99,215.0
3952,B-2,482.725,0.0,99,215.0
3953,E4,482.725,0.0,99,215.0
3954,A4,482.725,0.0,99,215.0
3955,B1,482.725,1417/1000,120,215.0
3956,E4,483.225,0.0,99,215.0
3957,A4,483.225,0.0,99,215.0
3958,F#2,483.725,0.0,64,215.0
3959,B1,484.225,0.0,96,215.0
3960,E4,484.225,0.0,96,215.0
3961,F#2,484.225,0.0,96,215.0
3962,A4,484.225,0.0,96,215.0
3963,F#2,484.225,229/500,120,215.0
3964,B1,484.725,0.0,92,215.0
3965,A4,484.725,0.0,92,215.0
3966,B-2,484.725,0.0,92,215.0
3967,B-1,484.725,1417/1000,120,215.0
3968,A3,484.725,21/500,75,215.0
3969,E-4,484.725,0.125,75,215.0
3970,G4,484.725,26/125,75,215.0
3971,B-2,484.725,4.0,77,215.0
3972,A3,484.725,4.0,77,215.0
3973,D4,484.725,4.0,77,215.0
3974,A3,484.808,3917/1000,75,215.0
3975,D4,484.892,3833/1000,75,215.0
3976,G4,484.975,3.75,75,215.0
3977,A4,485.225,0.0,78,215.0
3978,F#2,485.725,0.0,64,215.0
3979,E2,486.225,0.0,92,215.0
3980,A4,486.225,0.0,92,215.0
3981,F#2,486.225,0.0,92,215.0
3982,B1,486.225,0.0,92,215.0
3983,B-1,486.225,229/500,120,215.0
3984,B1,486.725,0.0,99,215.0
3985,A4,486.725,0.0,99,215.0
3986,B-2,486.725,0.0,99,215.0
3987,E4,486.725,0.0,99,215.0
3988,B-1,486.725,229/500,120,215.0
3989,A4,487.225,0.0,78,215.0
3990,F2,487.225,933/1000,120,215.0
3991,F#2,487.725,0.0,92,215.0
3992,E4,487.725,0.0,92,215.0
3993,A4,488.225,0.0,87,215.0
3994,B1,488.225,0.0,87,215.0
3995,F#2,488.225,0.0,87,215.0
3996,B-1,488.225,229/500,120,215.0
3997,A4,488.725,0.0,99,215.0
3998,B-2,488.725,0.0,99,215.0
3999,E4,488.725,0.0,99,215.0
4000,B1,488.725,0.0,99,215.0
4001,A2,488.725,3333/1000,75,215.0
4002,A1,488.725,933/1000,120,215.0
4003,A3,488.725,21/500,75,215.0
4004,D4,488.725,0.125,75,215.0
4005,G4,488.725,26/125,75,215.0
4006,C#4,488.725,4.0,78,215.0
4007,G3,488.725,4.0,78,215.0
4008,G3,488.808,3333/1000,75,215.0
4009,C#4,488.892,3333/1000,75,215.0
4010,G4,488.975,3333/1000,75,215.0
4011,A4,489.225,0.0,78,215.0
4012,F#2,489.725,0.0,64,215.0
4013,A2,489.725,229/500,120,215.0
4014,E4,490.225,0.0,96,215.0
4015,B1,490.225,0.0,96,215.0
4016,A4,490.225,0.0,96,215.0
4017,F#2,490.225,0.0,96,215.0
4018,E2,490.225,479/500,120,215.0
4019,E4,490.725,0.0,99,215.0
4020,B1,490.725,0.0,99,215.0
4021,A4,490.725,0.0,99,215.0
4022,B-2,490.725,0.0,99,215.0
4023,A4,491.225,0.0,99,215.0
4024,E4,491.225,0.0,99,215.0
4025,C#2,491.225,933/1000,120,215.0
4026,F#2,491.725,0.0,64,215.0
4027,A4,492.225,0.0,96,215.0
4028,F#2,492.225,0.0,96,215.0
4029,B1,492.225,0.0,96,215.0
4030,E4,492.225,0.0,96,215.0
4031,A1,492.225,229/500,120,215.0
4032,D3,492.475,0.25,75,215.0
4033,A3,492.475,0.25,75,215.0
4034,C#4,492.6,0.125,75,215.0
4035,G4,492.658,67/1000,75,215.0
4036,A4,492.725,0.0,92,215.0
4037,B-2,492.725,0.0,92,215.0
4038,B1,492.725,0.0,92,215.0
4039,C4,492.725,3.75,75,215.0
4040,D2,492.725,1417/1000,120,215.0
4041,C#4,492.725,0.125,75,215.0
4042,G4,492.725,1871/500,75,215.0
4043,F3,492.725,4.0,78,215.0
4044,C4,492.725,4.0,78,215.0
4045,D3,492.725,3683/1000,75,215.0
4046,A3,492.725,3683/1000,75,215.0
4047,A4,493.225,0.0,78,215.0
4048,F#2,493.725,0.0,64,215.0
4049,A4,494.225,0.0,92,215.0
4050,E2,494.225,0.0,92,215.0
4051,F#2,494.225,0.0,92,215.0
4052,B1,494.225,0.0,92,215.0
4053,D2,494.225,229/500,120,215.0
4054,B-2,494.725,0.0,99,215.0
4055,A4,494.725,0.0,99,215.0
4056,B1,494.725,0.0,99,215.0
4057,E4,494.725,0.0,99,215.0
4058,D2,494.725,933/1000,120,215.0
4059,A4,495.225,0.0,78,215.0
4060,E4,495.725,0.0,92,215.0
4061,F#2,495.725,0.0,92,215.0
4062,D2,495.725,933/1000,120,215.0
4063,A4,496.225,0.0,87,215.0
4064,B1,496.225,0.0,87,215.0
4065,F#2,496.225,0.0,87,215.0
4066,G2,496.475,0.25,75,215.0
4067,F3,496.475,0.25,75,215.0
4068,A3,496.6,0.125,75,215.0
4069,C4,496.6,0.125,75,215.0
4070,A4,500.617,0.0,99,215.0
4071,B1,500.617,0.0,99,215.0
4072,B-2,500.617,0.0,99,215.0
4073,E4,500.617,0.0,99,215.0
4074,G1,500.617,1417/1000,120,215.0
4075,C4,500.617,4.0,78,215.0
4076,A3,500.617,4.0,78,215.0
4077,F4,500.617,4.0,78,215.0
4078,G2,500.617,973/250,75,215.0
4079,F3,500.617,973/250,75,215.0
4080,A3,500.617,973/250,75,215.0
4081,C4,500.617,973/250,75,215.0
4082,A4,501.117,0.0,78,215.0
4083,F#2,501.617,0.0,64,215.0
4084,A4,502.117,0.0,96,215.0
4085,B1,502.117,0.0,96,215.0
4086,E4,502.117,0.0,96,215.0
4087,F#2,502.117,0.0,96,215.0
4088,G1,502.117,229/500,120,215.0
4089,B-2,502.617,0.0,99,215.0
4090,B1,502.617,0.0,99,215.0
4091,E4,502.617,0.0,99,215.0
4092,A4,502.617,0.0,99,215.0
4093,G1,502.617,933/1000,120,215.0
4094,A4,503.117,0.0,99,215.0
4095,E4,503.117,0.0,99,215.0
4096,F#2,503.617,0.0,64,215.0
4097,E1,503.617,933/1000,120,215.0
4098,F#2,504.117,0.0,96,215.0
4099,E4,504.117,0.0,96,215.0
4100,B1,504.117,0.0,96,215.0
4101,A4,504.117,0.0,96,215.0
4102,B1,504.617,0.0,92,215.0
4103,B-2,504.617,0.0,92,215.0
4104,A4,504.617,0.0,92,215.0
4105,A3,504.617,1979/500,84,215.0
4106,G3,504.617,1979/500,84,215.0
4107,C4,504.617,1979/500,84,215.0
4108,D3,504.617,1979/500,84,215.0
4109,E4,504.617,1979/500,84,215.0
4110,A1,504.617,1979/500,84,215.0
4111,C4,504.75,3867/1000,75,215.0
4112,E4,504.883,3733/1000,75,215.0
4113,A4,505.117,0.0,78,215.0
4114,F#2,505.617,0.0,64,215.0
4115,F#2,506.117,0.0,92,215.0
4116,A4,506.117,0.0,92,215.0
4117,E2,506.117,0.0,92,215.0
4118,B1,506.117,0.0,92,215.0
4119,A4,506.617,0.0,99,215.0
4120,E4,506.617,0.0,99,215.0
4121,B1,506.617,0.0,99,215.0
4122,B-2,506.617,0.0,99,215.0
4123,A4,507.117,0.0,78,215.0
4124,E4,507.617,0.0,92,215.0
4125,F#2,507.617,0.0,92,215.0
4126,F#2,508.117,0.0,87,215.0
4127,A4,508.117,0.0,87,215.0
4128,B1,508.117,0.0,87,215.0
4129,B1,508.617,0.0,99,215.0
4130,A4,508.617,0.0,99,215.0
4131,B-2,508.617,0.0,99,215.0
4132,E4,508.617,0.0,99,215.0
4133,C4,508.617,23/250,75,215.0
4134,E4,508.617,9/40,75,215.0
4135,A3,508.617,1979/500,84,215.0
4136,D4,508.617,1979/500,84,215.0
4137,B3,508.617,1979/500,84,215.0
4138,A3,508.617,1979/500,84,215.0
4139,F#4,508.617,1979/500,84,215.0
4140,G1,508.617,1979/500,84,215.0
4141,D4,508.75,3867/1000,75,215.0
4142,F#4,508.883,3733/1000,75,215.0
4143,A4,509.117,0.0,78,215.0
4144,F#2,509.617,0.0,64,215.0
4145,F#2,510.117,0.0,96,215.0
4146,B1,510.117,0.0,96,215.0
4147,E4,510.117,0.0,96,215.0
4148,A4,510.117,0.0,96,215.0
4149,A4,510.617,0.0,99,215.0
4150,B-2,510.617,0.0,99,215.0
4151,B1,510.617,0.0,99,215.0
4152,E4,510.617,0.0,99,215.0
4153,E4,511.117,0.0,99,215.0
4154,A4,511.117,0.0,99,215.0
4155,F#2,511.617,0.0,64,215.0
4156,B1,512.117,0.0,96,215.0
4157,E4,512.117,0.0,96,215.0
4158,A4,512.117,0.0,96,215.0
4159,F#2,512.117,0.0,96,215.0
4160,B-2,512.617,0.0,92,215.0
4161,B1,512.617,0.0,92,215.0
4162,A4,512.617,0.0,92,215.0
4163,D4,512.617,23/250,75,215.0
4164,F#4,512.617,9/40,75,215.0
4165,F3,512.617,1979/500,82,215.0
4166,D4,512.617,1979/500,82,215.0
4167,A3,512.617,1979/500,82,215.0
4168,C4,512.617,1979/500,82,215.0
4169,G4,512.617,1979/500,82,215.0
4170,E4,512.617,1979/500,82,215.0
4171,F1,512.617,1979/500,82,215.0
4172,A3,512.617,1979/500,82,215.0
4173,C4,512.742,3.875,75,215.0
4174,G4,512.742,3.875,75,215.0
4175,A4,513.117,0.0,78,215.0
4176,F#2,513.617,0.0,64,215.0
4177,B1,514.117,0.0,92,215.0
4178,E2,514.117,0.0,92,215.0
4179,A4,514.117,0.0,92,215.0
4180,F#2,514.117,0.0,92,215.0
4181,A4,514.617,0.0,99,215.0
4182,B1,514.617,0.0,99,215.0
4183,E4,514.617,0.0,99,215.0
4184,B-2,514.617,0.0,99,215.0
4185,A4,515.117,0.0,78,215.0
4186,E4,515.617,0.0,92,215.0
4187,F#2,515.617,0.0,92,215.0
4188,B1,516.117,0.0,87,215.0
4189,F#2,516.117,0.0,87,215.0
4190,A4,516.117,0.0,87,215.0
4191,B1,516.617,0.0,99,215.0
4192,B-2,516.617,0.0,99,215.0
4193,E4,516.617,0.0,99,215.0
4194,A4,516.617,0.0,99,215.0
4195,E3,516.617,1979/500,83,215.0
4196,E4,516.617,1979/500,83,215.0
4197,A4,516.617,1979/500,83,215.0
4198,D4,516.617,1979/500,83,215.0
4199,B-3,516.617,1979/500,83,215.0
4200,C2,516.617,1979/500,83,215.0
4201,B-3,516.617,1979/500,83,215.0
4202,C4,516.617,83/1000,75,215.0
4203,G4,516.617,83/1000,75,215.0
4204,D4,516.742,3.875,75,215.0
4205,A4,516.742,3.875,75,215.0
4206,A4,517.117,0.0,78,215.0
4207,F#2,517.617,0.0,64,215.0
4208,E4,518.117,0.0,96,215.0
4209,F#2,518.117,0.0,96,215.0
4210,A4,518.117,0.0,96,215.0
4211,B1,518.117,0.0,96,215.0
4212,B1,518.617,0.0,99,215.0
4213,E4,518.617,0.0,99,215.0
4214,A4,518.617,0.0,99,215.0
4215,B-2,518.617,0.0,99,215.0
4216,E4,519.117,0.0,99,215.0
4217,A4,519.117,0.0,99,215.0
4218,F#2,519.617,0.0,64,215.0
4219,B1,520.117,0.0,96,215.0
4220,F#2,520.117,0.0,96,215.0
4221,E4,520.117,0.0,96,215.0
4222,A4,520.117,0.0,96,215.0
4223,A4,520.617,0.0,92,215.0
4224,B-2,520.617,0.0,92,215.0
4225,B1,520.617,0.0,92,215.0
4226,F3,520.617,1979/500,83,215.0
4227,G4,520.617,1979/500,83,215.0
4228,D4,520.617,1979/500,83,215.0
4229,A3,520.617,1979/500,83,215.0
4230,C4,520.617,1979/500,83,215.0
4231,F1,520.617,1979/500,83,215.0
4232,A3,520.617,1979/500,83,215.0
4233,D4,520.617,83/1000,75,215.0
4234,A4,520.617,83/1000,75,215.0
4235,C4,520.742,3.875,75,215.0
4236,G4,520.742,3.875,75,215.0
4237,A4,521.117,0.0,78,215.0
4238,F#2,521.617,0.0,64,215.0
4239,A4,522.117,0.0,92,215.0
4240,B1,522.117,0.0,92,215.0
4241,E2,522.117,0.0,92,215.0
4242,F#2,522.117,0.0,92,215.0
4243,B-2,522.617,0.0,99,215.0
4244,B1,522.617,0.0,99,215.0
4245,E4,522.617,0.0,99,215.0
4246,A4,522.617,0.0,99,215.0
4247,A4,523.117,0.0,78,215.0
4248,F#2,523.617,0.0,92,215.0
4249,E4,523.617,0.0,92,215.0
4250,A4,524.117,0.0,87,215.0
4251,F#2,524.117,0.0,87,215.0
4252,B1,524.117,0.0,87,215.0
4253,B1,524.617,0.0,99,215.0
4254,B-2,524.617,0.0,99,215.0
4255,A4,524.617,0.0,99,215.0
4256,E4,524.617,0.0,99,215.0
4257,F1,524.617,1729/500,120,215.0
4258,F3,524.617,1979/500,77,215.0
4259,G#3,524.617,1979/500,77,215.0
4260,C4,524.617,1979/500,77,215.0
4261,D4,524.617,1979/500,77,215.0
4262,E4,524.617,1979/500,77,215.0
4263,G#3,524.617,1979/500,77,215.0
4264,C4,524.617,83/1000,75,215.0
4265,G4,524.617,83/1000,75,215.0
4266,D4,524.742,3.875,75,215.0
4267,E4,524.742,3.875,75,215.0
4268,A4,525.117,0.0,78,215.0
4269,F#2,525.617,0.0,64,215.0
4270,A4,526.117,0.0,96,215.0
4271,B1,526.117,0.0,96,215.0
4272,E4,526.117,0.0,96,215.0
4273,F#2,526.117,0.0,96,215.0
4274,E4,526.617,0.0,99,215.0
4275,B-2,526.617,0.0,99,215.0
4276,B1,526.617,0.0,99,215.0
4277,A4,526.617,0.0,99,215.0
4278,E4,527.117,0.0,99,215.0
4279,A4,527.117,0.0,99,215.0
4280,F#2,527.617,0.0,64,215.0
4281,B1,528.117,0.0,96,215.0
4282,F#2,528.117,0.0,96,215.0
4283,A4,528.117,0.0,96,215.0
4284,E4,528.117,0.0,96,215.0
4285,F2,528.117,229/500,120,215.0
4286,A4,528.617,0.0,101,215.0
4287,C#3,528.617,0.0,101,215.0
4288,B1,528.617,0.0,101,215.0
4289,C2,528.617,1417/1000,120,215.0
4290,B3,528.617,1.0,89,215.0
4291,B3,528.617,1.0,89,215.0
4292,B3,528.617,0.25,100,215.0
4293,E4,528.617,0.25,100,215.0
4294,D4,528.617,83/1000,75,215.0
4295,E4,528.617,83/1000,75,215.0
4296,A4,529.117,0.0,78,215.0
4297,F#2,529.617,0.0,64,215.0
4298,E4,529.617,229/500,89,215.0
4299,E4,529.617,229/500,89,215.0
4300,B3,529.617,0.25,100,215.0
4301,E4,529.617,0.25,100,215.0
4302,A4,530.117,0.0,92,215.0
4303,B1,530.117,0.0,92,215.0
4304,F#2,530.117,0.0,92,215.0
4305,E2,530.117,0.0,92,215.0
4306,C2,530.117,229/500,120,215.0
4307,A3,530.117,2417/1000,89,215.0
4308,A3,530.117,2417/1000,89,215.0
4309,B-2,530.617,0.0,99,215.0
4310,E4,530.617,0.0,99,215.0
4311,B1,530.617,0.0,99,215.0
4312,A4,530.617,0.0,99,215.0
4313,G1,530.617,933/1000,120,215.0
4314,A4,531.117,0.0,78,215.0
4315,D4,531.117,0.25,100,215.0
4316,E4,531.117,0.25,100,215.0
4317,F#2,531.617,0.0,92,215.0
4318,E4,531.617,0.0,92,215.0
4319,G1,531.617,933/1000,120,215.0
4320,A4,532.117,0.0,87,215.0
4321,B1,532.117,0.0,87,215.0
4322,F#2,532.117,0.0,87,215.0
4323,B3,532.117,0.25,100,215.0
4324,E4,532.117,0.25,100,215.0
4325,B-2,532.617,0.0,99,215.0
4326,A4,532.617,0.0,99,215.0
4327,B1,532.617,0.0,99,215.0
4328,E4,532.617,0.0,99,215.0
4329,C2,532.617,1417/1000,120,215.0
4330,B3,532.617,1.0,89,215.0
4331,B3,532.617,1.0,89,215.0
4332,A4,533.117,0.0,78,215.0
4333,B3,533.117,0.25,100,215.0
4334,E4,533.117,0.25,100,215.0
4335,F#2,533.617,0.0,64,215.0
4336,E4,533.617,229/500,89,215.0
4337,E4,533.617,229/500,89,215.0
4338,F#2,534.117,0.0,96,215.0
4339,E4,534.117,0.0,96,215.0
4340,B1,534.117,0.0,96,215.0
4341,A4,534.117,0.0,96,215.0
4342,C2,534.117,229/500,120,215.0
4343,A3,534.117,2417/1000,89,215.0
4344,A3,534.117,2417/1000,89,215.0
4345,B3,534.117,0.25,100,215.0
4346,E4,534.117,0.25,100,215.0
4347,B1,534.617,0.0,99,215.0
4348,B-2,534.617,0.0,99,215.0
4349,E4,534.617,0.0,99,215.0
4350,A4,534.617,0.0,99,215.0
4351,G1,534.617,933/1000,120,215.0
4352,E4,535.117,0.0,99,215.0
4353,A4,535.117,0.0,99,215.0
4354,F#2,535.617,0.0,64,215.0
4355,C2,535.617,933/1000,120,215.0
4356,D4,535.617,0.625,127,215.0
4357,G4,535.658,667/1000,127,215.0
4358,A4,536.117,0.0,96,215.0
4359,F#2,536.117,0.0,96,215.0
4360,B1,536.117,0.0,96,215.0
4361,E4,536.117,0.0,96,215.0
4362,B-2,536.617,0.0,92,215.0
4363,A4,536.617,0.0,92,215.0
4364,B1,536.617,0.0,92,215.0
4365,C2,536.617,1417/1000,120,215.0
4366,B3,536.617,1.0,89,215.0
4367,B3,536.617,1.0,89,215.0
4368,B3,536.617,0.25,100,215.0
4369,E4,536.617,0.25,100,215.0
4370,A4,537.117,0.0,78,215.0
4371,F#2,537.617,0.0,64,215.0
4372,E4,537.617,229/500,89,215.0
4373,E4,537.617,229/500,89,215.0
4374,B3,537.617,0.25,100,215.0
4375,E4,537.617,0.25,100,215.0
4376,E2,538.117,0.0,92,215.0
4377,B1,538.117,0.0,92,215.0
4378,F#2,538.117,0.0,92,215.0
4379,A4,538.117,0.0,92,215.0
4380,C2,538.117,229/500,120,215.0
4381,A3,538.117,2417/1000,89,215.0
4382,A3,538.117,2417/1000,89,215.0
4383,A4,538.617,0.0,99,215.0
4384,B1,538.617,0.0,99,215.0
4385,B-2,538.617,0.0,99,215.0
4386,E4,538.617,0.0,99,215.0
4387,G1,538.617,933/1000,120,215.0
4388,A4,539.117,0.0,78,215.0
4389,D4,539.117,0.25,100,215.0
4390,E4,539.117,0.25,100,215.0
4391,F#2,539.617,0.0,92,215.0
4392,E4,539.617,0.0,92,215.0
4393,G1,539.617,933/1000,120,215.0
4394,F#2,540.117,0.0,87,215.0
4395,B1,540.117,0.0,87,215.0
4396,A4,540.117,0.0,87,215.0
4397,B3,540.117,0.25,100,215.0
4398,E4,540.117,0.25,100,215.0
4399,B-2,540.617,0.0,99,215.0
4400,A4,540.617,0.0,99,215.0
4401,E4,540.617,0.0,99,215.0
4402,B1,540.617,0.0,99,215.0
4403,C2,540.617,1417/1000,120,215.0
4404,B3,540.617,1.0,89,215.0
4405,B3,540.617,1.0,89,215.0
4406,A4,541.117,0.0,78,215.0
4407,F#2,541.617,0.0,64,215.0
4408,E4,541.617,229/500,89,215.0
4409,E4,541.617,229/500,89,215.0
4410,B1,542.117,0.0,96,215.0
4411,F#2,542.117,0.0,96,215.0
4412,A4,542.117,0.0,96,215.0
4413,E4,542.117,0.0,96,215.0
4414,C2,542.117,229/500,120,215.0
4415,A3,542.117,2417/1000,89,215.0
4416,A3,542.117,2417/1000,89,215.0
4417,B3,542.117,0.25,100,215.0
4418,E4,542.117,0.25,100,215.0
4419,B-2,542.617,0.0,99,215.0
4420,E4,542.617,0.0,99,215.0
4421,A4,542.617,0.0,99,215.0
4422,B1,542.617,0.0,99,215.0
4423,G1,542.617,933/1000,120,215.0
4424,E4,543.117,0.0,99,215.0
4425,A4,543.117,0.0,99,215.0
4426,F#2,543.617,0.0,64,215.0
4427,C2,543.617,933/1000,120,215.0
4428,D4,543.617,0.625,127,215.0
4429,G3,543.658,667/1000,127,215.0
4430,E4,544.117,0.0,96,215.0
4431,B1,544.117,0.0,96,215.0
4432,A4,544.117,0.0,96,215.0
4433,F#2,544.117,0.0,96,215.0
4434,C#3,544.617,0.0,101,215.0
4435,A4,544.617,0.0,101,215.0
4436,B1,544.617,0.0,101,215.0
4437,C2,544.617,1417/1000,120,215.0
4438,B3,544.617,1.0,89,215.0
4439,B3,544.617,1.0,89,215.0
4440,B3,544.617,0.25,100,215.0
4441,E4,544.617,0.25,100,215.0
4442,A4,545.117,0.0,78,215.0
4443,F#2,545.617,0.0,64,215.0
4444,E4,545.617,229/500,89,215.0
4445,E4,545.617,229/500,89,215.0
4446,B3,545.617,0.25,100,215.0
4447,E4,545.617,0.25,100,215.0
4448,A4,546.117,0.0,92,215.0
4449,F#2,546.117,0.0,92,215.0
4450,B1,546.117,0.0,92,215.0
4451,E2,546.117,0.0,92,215.0
4452,C2,546.117,229/500,120,215.0
4453,A3,546.117,2417/1000,89,215.0
4454,A3,546.117,2417/1000,89,215.0
4455,B-2,546.617,0.0,99,215.0
4456,E4,546.617,0.0,99,215.0
4457,B1,546.617,0.0,99,215.0
4458,A4,546.617,0.0,99,215.0
4459,G1,546.617,933/1000,120,215.0
4460,A4,547.117,0.0,78,215.0
4461,D4,547.117,0.25,100,215.0
4462,E4,547.117,0.25,100,215.0
4463,F#2,547.617,0.0,92,215.0
4464,E4,547.617,0.0,92,215.0
4465,G1,547.617,933/1000,120,215.0
4466,A4,548.117,0.0,87,215.0
4467,B1,548.117,0.0,87,215.0
4468,F#2,548.117,0.0,87,215.0
4469,B3,548.117,0.25,100,215.0
4470,E4,548.117,0.25,100,215.0
4471,A4,548.617,0.0,99,215.0
4472,E4,548.617,0.0,99,215.0
4473,B1,548.617,0.0,99,215.0
4474,B-2,548.617,0.0,99,215.0
4475,C2,548.617,1417/1000,120,215.0
4476,B3,548.617,1.0,89,215.0
4477,B3,548.617,1.0,89,215.0
4478,A4,549.117,0.0,78,215.0
4479,B3,549.117,0.25,100,215.0
4480,E4,549.117,0.25,100,215.0
4481,F#2,549.617,0.0,64,215.0
4482,E4,549.617,229/500,89,215.0
4483,E4,549.617,229/500,89,215.0
4484,E4,550.117,0.0,96,215.0
4485,F#2,550.117,0.0,96,215.0
4486,B1,550.117,0.0,96,215.0
4487,A4,550.117,0.0,96,215.0
4488,C2,550.117,229/500,120,215.0
4489,A3,550.117,2417/1000,89,215.0
4490,A3,550.117,2417/1000,89,215.0
4491,B3,550.117,0.25,100,215.0
4492,E4,550.117,0.25,100,215.0
4493,B1,550.617,0.0,99,215.0
4494,E4,550.617,0.0,99,215.0
4495,B-2,550.617,0.0,99,215.0
4496,A4,550.617,0.0,99,215.0
4497,G1,550.617,933/1000,120,215.0
4498,E4,551.117,0.0,99,215.0
4499,A4,551.117,0.0,99,215.0
4500,F#2,551.617,0.0,64,215.0
4501,C2,551.617,933/1000,120,215.0
4502,D4,551.617,0.625,127,215.0
4503,G4,551.658,667/1000,127,215.0
4504,E4,552.117,0.0,96,215.0
4505,B1,552.117,0.0,96,215.0
4506,A4,552.117,0.0,96,215.0
4507,F#2,552.117,0.0,96,215.0
4508,A4,552.617,0.0,92,215.0
4509,B1,552.617,0.0,92,215.0
4510,B-2,552.617,0.0,92,215.0
4511,C2,552.617,1417/1000,120,215.0
4512,B3,552.617,1.0,89,215.0
4513,B3,552.617,1.0,89,215.0
4514,B3,552.617,0.25,100,215.0
4515,E4,552.617,0.25,100,215.0
4516,A4,553.117,0.0,78,215.0
4517,F#2,553.617,0.0,64,215.0
4518,E4,553.617,229/500,89,215.0
4519,E4,553.617,229/500,89,215.0
4520,B3,553.617,0.25,100,215.0
4521,E4,553.617,0.25,100,215.0
4522,F#2,554.117,0.0,92,215.0
4523,E2,554.117,0.0,92,215.0
4524,A4,554.117,0.0,92,215.0
4525,B1,554.117,0.0,92,215.0
4526,C2,554.117,229/500,120,215.0
4527,A3,554.117,2417/1000,89,215.0
4528,A3,554.117,2417/1000,89,215.0
4529,A4,554.617,0.0,99,215.0
4530,E4,554.617,0.0,99,215.0
4531,B-2,554.617,0.0,99,215.0
4532,B1,554.617,0.0,99,215.0
4533,G1,554.617,933/1000,120,215.0
4534,A4,555.117,0.0,78,215.0
4535,D4,555.117,0.25,100,215.0
4536,E4,555.117,0.25,100,215.0
4537,F#2,555.617,0.0,92,215.0
4538,E4,555.617,0.0,92,215.0
4539,G1,555.617,933/1000,120,215.0
4540,F#2,556.117,0.0,87,215.0
4541,B1,556.117,0.0,87,215.0
4542,A4,556.117,0.0,87,215.0
4543,B3,556.117,0.25,100,215.0
4544,E4,556.117,0.25,100,215.0
4545,E4,556.617,0.0,99,215.0
4546,B1,556.617,0.0,99,215.0
4547,A4,556.617,0.0,99,215.0
4548,B-2,556.617,0.0,99,215.0
4549,C2,556.617,1417/1000,120,215.0
4550,B3,556.617,1.0,89,215.0
4551,B3,556.617,1.0,89,215.0
4552,A4,557.117,0.0,78,215.0
4553,B3,557.117,0.25,100,215.0
4554,E4,557.117,0.25,100,215.0
4555,F#2,557.617,0.0,64,215.0
4556,E4,557.617,229/500,89,215.0
4557,E4,557.617,229/500,89,215.0
4558,B1,558.117,0.0,96,215.0
4559,E4,558.117,0.0,96,215.0
4560,F#2,558.117,0.0,96,215.0
4561,A4,558.117,0.0,96,215.0
4562,D4,558.117,0.625,127,215.0
4563,A3,558.117,2417/1000,89,215.0
4564,A3,558.117,2417/1000,89,215.0
4565,C2,558.117,229/500,124,215.0
4566,G3,558.117,229/500,124,215.0
4567,E4,558.617,0.0,99,215.0
4568,B-2,558.617,0.0,99,215.0
4569,B1,558.617,0.0,99,215.0
4570,A4,558.617,0.0,99,215.0
4571,G1,558.617,933/1000,120,215.0
4572,G3,558.617,979/500,127,215.0
4573,C4,558.617,979/500,127,215.0
4574,E4,559.117,0.0,99,215.0
4575,A4,559.117,0.0,99,215.0
4576,F#2,559.617,0.0,64,215.0
4577,C2,559.617,933/1000,120,215.0
4578,F#2,560.117,0.0,96,215.0
4579,B1,560.117,0.0,96,215.0
4580,A4,560.117,0.0,96,215.0
4581,E4,560.117,0.0,96,215.0
4582,C#3,560.617,0.0,101,215.0
4583,B1,560.617,0.0,101,215.0
4584,A4,560.617,0.0,101,215.0
4585,A4,561.117,0.0,78,215.0
4586,F#2,561.617,0.0,64,215.0
4587,A3,561.617,0.375,92,215.0
4588,C4,561.617,0.375,92,215.0
4589,E3,561.617,0.375,92,215.0
4590,C4,561.617,0.375,92,215.0
4591,E3,561.617,0.375,92,215.0
4592,A3,561.617,0.375,92,215.0
4593,C5,561.617,0.375,92,215.0
4594,F#2,562.117,0.0,92,215.0
4595,E2,562.117,0.0,92,215.0
4596,B1,562.117,0.0,92,215.0
4597,A4,562.117,0.0,92,215.0
4598,C2,562.117,229/500,120,215.0
4599,E3,562.117,0.375,92,215.0
4600,A3,562.117,0.375,92,215.0
4601,C4,562.117,0.375,92,215.0
4602,E3,562.117,0.375,92,215.0
4603,C4,562.117,0.375,92,215.0
4604,A3,562.117,0.375,92,215.0
4605,C5,562.117,0.375,92,215.0
4606,B1,562.617,0.0,99,215.0
4607,A4,562.617,0.0,99,215.0
4608,E4,562.617,0.0,99,215.0
4609,B-2,562.617,0.0,99,215.0
4610,G1,562.617,229/500,120,215.0
4611,G3,562.617,0.375,92,215.0
4612,D3,562.617,0.375,92,215.0
4613,B3,562.617,0.375,92,215.0
4614,G3,562.617,0.375,92,215.0
4615,D3,562.617,0.375,92,215.0
4616,B3,562.617,0.375,92,215.0
4617,B4,562.617,0.375,92,215.0
4618,A4,563.117,0.0,78,215.0
4619,G3,563.117,0.375,92,215.0
4620,D3,563.117,0.375,92,215.0
4621,B3,563.117,0.375,92,215.0
4622,B3,563.117,0.375,92,215.0
4623,D3,563.117,0.375,92,215.0
4624,G3,563.117,0.375,92,215.0
4625,B4,563.117,0.375,92,215.0
4626,E4,563.617,0.0,92,215.0
4627,F#2,563.617,0.0,92,215.0
4628,F#2,564.117,0.0,87,215.0
4629,A4,564.117,0.0,87,215.0
4630,B1,564.117,0.0,87,215.0
4631,G1,564.117,229/500,120,215.0
4632,A3,564.117,0.375,92,215.0
4633,F3,564.117,0.375,92,215.0
4634,C3,564.117,0.375,92,215.0
4635,C3,564.117,0.375,92,215.0
4636,A3,564.117,0.375,92,215.0
4637,F3,564.117,0.375,92,215.0
4638,A4,564.117,0.375,92,215.0
4639,E4,564.617,0.0,99,215.0
4640,B1,564.617,0.0,99,215.0
4641,B-2,564.617,0.0,99,215.0
4642,A4,564.617,0.0,99,215.0
4643,C2,564.617,229/500,120,215.0
4644,A4,565.117,0.0,78,215.0
4645,A3,565.117,0.375,92,215.0
4646,C3,565.117,0.375,92,215.0
4647,F3,565.117,0.375,92,215.0
4648,C3,565.117,0.375,92,215.0
4649,A3,565.117,0.375,92,215.0
4650,F3,565.117,0.375,92,215.0
4651,A4,565.117,0.375,92,215.0
4652,F#2,565.617,0.0,64,215.0
4653,A4,566.117,0.0,96,215.0
4654,B1,566.117,0.0,96,215.0
4655,E4,566.117,0.0,96,215.0
4656,F#2,566.117,0.0,96,215.0
4657,C2,566.117,229/500,120,215.0
4658,C3,566.117,0.375,92,215.0
4659,A3,566.117,0.375,92,215.0
4660,F3,566.117,0.375,92,215.0
4661,C3,566.117,0.375,92,215.0
4662,A3,566.117,0.375,92,215.0
4663,F3,566.117,0.375,92,215.0
4664,A4,566.117,0.375,92,215.0
4665,E4,566.617,0.0,99,215.0
4666,B-2,566.617,0.0,99,215.0
4667,B1,566.617,0.0,99,215.0
4668,A4,566.617,0.0,99,215.0
4669,G1,566.617,933/1000,120,215.0
4670,B2,566.617,0.375,92,215.0
4671,G3,566.617,0.375,92,215.0
4672,E3,566.617,0.375,92,215.0
4673,G3,566.617,0.375,92,215.0
4674,E3,566.617,0.375,92,215.0
4675,B2,566.617,0.375,92,215.0
4676,G4,566.617,0.375,92,215.0
4677,E4,567.117,0.0,99,215.0
4678,A4,567.117,0.0,99,215.0
4679,F#2,567.617,0.0,64,215.0
4680,C2,567.617,933/1000,120,215.0
4681,G3,567.617,0.375,92,215.0
4682,B2,567.617,0.375,92,215.0
4683,E3,567.617,0.375,92,215.0
4684,B2,567.617,0.375,92,215.0
4685,G3,567.617,0.375,92,215.0
4686,E3,567.617,0.375,92,215.0
4687,G4,567.617,0.375,92,215.0
4688,A4,568.117,0.0,96,215.0
4689,F#2,568.117,0.0,96,215.0
4690,B1,568.117,0.0,96,215.0
4691,E4,568.117,0.0,96,215.0
4692,A4,568.617,0.0,92,215.0
4693,B-2,568.617,0.0,92,215.0
4694,B1,568.617,0.0,92,215.0
4695,G1,568.617,229/500,120,215.0
4696,A4,568.617,3.5,110,215.0
4697,C3,568.617,4.0,89,215.0
4698,F3,568.617,4.0,89,215.0
4699,A3,568.617,4.0,89,215.0
4700,D3,568.617,4.0,89,215.0
4701,C3,568.617,4.0,89,215.0
4702,D3,568.617,4.0,89,215.0
4703,A3,568.617,4.0,89,215.0
4704,F3,568.617,4.0,89,215.0
4705,A4,569.117,0.0,78,215.0
4706,F#2,569.617,0.0,64,215.0
4707,B1,570.117,0.0,92,215.0
4708,A4,570.117,0.0,92,215.0
4709,E2,570.117,0.0,92,215.0
4710,F#2,570.117,0.0,92,215.0
4711,G1,570.117,229/500,120,215.0
4712,B-2,570.617,0.0,99,215.0
4713,A4,570.617,0.0,99,215.0
4714,B1,570.617,0.0,99,215.0
4715,E4,570.617,0.0,99,215.0
4716,G1,570.617,229/500,120,215.0
4717,A4,571.117,0.0,78,215.0
4718,E4,571.617,0.0,92,215.0
4719,F#2,571.617,0.0,92,215.0
4720,F#2,572.117,0.0,87,215.0
4721,B1,572.117,0.0,87,215.0
4722,A4,572.117,0.0,87,215.0
4723,G2,572.117,229/500,120,215.0
4724,A4,572.117,0.5,110,215.0
4725,B1,576.575,0.0,99,215.0
4726,B-2,576.575,0.0,99,215.0
4727,E4,576.575,0.0,99,215.0
4728,A4,576.575,0.0,99,215.0
4729,G1,576.575,229/500,120,215.0
4730,A4,576.575,933/1000,110,215.0
4731,C3,576.575,1979/500,89,215.0
4732,F3,576.575,1979/500,89,215.0
4733,A3,576.575,1979/500,89,215.0
4734,D3,576.575,1979/500,89,215.0
4735,C3,576.575,1979/500,89,215.0
4736,D3,576.575,1979/500,89,215.0
4737,A3,576.575,1979/500,89,215.0
4738,F3,576.575,1979/500,89,215.0
4739,A4,577.075,0.0,78,215.0
4740,G4,577.075,933/1000,110,215.0
4741,F#2,577.575,0.0,64,215.0
4742,E4,578.075,0.0,96,215.0
4743,F#2,578.075,0.0,96,215.0
4744,A4,578.075,0.0,96,215.0
4745,B1,578.075,0.0,96,215.0
4746,G1,578.075,229/500,120,215.0
4747,C4,578.075,933/1000,110,215.0
4748,A4,578.575,0.0,99,215.0
4749,E4,578.575,0.0,99,215.0
4750,B1,578.575,0.0,99,215.0
4751,B-2,578.575,0.0,99,215.0
4752,G1,578.575,229/500,120,215.0
4753,A3,578.575,1917/1000,110,215.0
4754,E4,579.075,0.0,99,215.0
4755,A4,579.075,0.0,99,215.0
4756,F#2,579.575,0.0,64,215.0
4757,B1,580.075,0.0,96,215.0
4758,F#2,580.075,0.0,96,215.0
4759,E4,580.075,0.0,96,215.0
4760,A4,580.075,0.0,96,215.0
4761,G1,580.075,229/500,120,215.0
4762,A4,580.575,0.0,92,215.0
4763,B1,580.575,0.0,92,215.0
4764,B-2,580.575,0.0,92,215.0
4765,C2,580.575,229/500,120,215.0
4766,A4,581.075,0.0,78,215.0
4767,F#2,581.575,0.0,64,215.0
4768,C5,581.575,229/500,110,215.0
4769,A3,581.575,0.375,89,215.0
4770,E3,581.575,0.375,89,215.0
4771,C4,581.575,0.375,89,215.0
4772,C4,581.575,0.375,89,215.0
4773,E3,581.575,0.375,89,215.0
4774,A3,581.575,0.375,89,215.0
4775,F#2,582.075,0.0,92,215.0
4776,E2,582.075,0.0,92,215.0
4777,A4,582.075,0.0,92,215.0
4778,B1,582.075,0.0,92,215.0
4779,C4,582.075,0.375,89,215.0
4780,E3,582.075,0.375,89,215.0
4781,A3,582.075,0.375,89,215.0
4782,A3,582.075,0.375,89,215.0
4783,C4,582.075,0.375,89,215.0
4784,E3,582.075,0.375,89,215.0
4785,C2,582.075,229/500,115,215.0
4786,C5,582.075,229/500,115,215.0
4787,E4,582.575,0.0,99,215.0
4788,B1,582.575,0.0,99,215.0
4789,B-2,582.575,0.0,99,215.0
4790,A4,582.575,0.0,99,215.0
4791,B3,582.575,0.375,89,215.0
4792,D3,582.575,0.375,89,215.0
4793,G3,582.575,0.375,89,215.0
4794,G3,582.575,0.375,89,215.0
4795,D3,582.575,0.375,89,215.0
4796,B3,582.575,0.375,89,215.0
4797,G1,582.575,229/500,115,215.0
4798,B4,582.575,229/500,115,215.0
4799,A4,583.075,0.0,78,215.0
4800,B4,583.075,229/500,110,215.0
4801,B3,583.075,0.375,89,215.0
4802,G3,583.075,0.375,89,215.0
4803,D3,583.075,0.375,89,215.0
4804,D3,583.075,0.375,89,215.0
4805,B3,583.075,0.375,89,215.0
4806,G3,583.075,0.375,89,215.0
4807,F#2,583.575,0.0,92,215.0
4808,E4,583.575,0.0,92,215.0
4809,B1,584.075,0.0,87,215.0
4810,F#2,584.075,0.0,87,215.0
4811,A4,584.075,0.0,87,215.0
4812,A3,584.075,0.375,89,215.0
4813,F3,584.075,0.375,89,215.0
4814,C3,584.075,0.375,89,215.0
4815,C3,584.075,0.375,89,215.0
4816,F3,584.075,0.375,89,215.0
4817,A3,584.075,0.375,89,215.0
4818,G1,584.075,229/500,115,215.0
4819,A4,584.075,229/500,115,215.0
4820,B1,584.575,0.0,99,215.0
4821,A4,584.575,0.0,99,215.0
4822,E4,584.575,0.0,99,215.0
4823,B-2,584.575,0.0,99,215.0
4824,C2,584.575,229/500,120,215.0
4825,A4,585.075,0.0,78,215.0
4826,F3,585.075,0.375,92,215.0
4827,A3,585.075,0.375,92,215.0
4828,C3,585.075,0.375,92,215.0
4829,C3,585.075,0.375,92,215.0
4830,A3,585.075,0.375,92,215.0
4831,F3,585.075,0.375,92,215.0
4832,A4,585.075,0.375,92,215.0
4833,F#2,585.575,0.0,64,215.0
4834,F#2,586.075,0.0,96,215.0
4835,E4,586.075,0.0,96,215.0
4836,A4,586.075,0.0,96,215.0
4837,B1,586.075,0.0,96,215.0
4838,C2,586.075,229/500,120,215.0
4839,F3,586.075,0.375,92,215.0
4840,C3,586.075,0.375,92,215.0
4841,A3,586.075,0.375,92,215.0
4842,A3,586.075,0.375,92,215.0
4843,C3,586.075,0.375,92,215.0
4844,F3,586.075,0.375,92,215.0
4845,A4,586.075,0.375,92,215.0
4846,A4,586.575,0.0,99,215.0
4847,B-2,586.575,0.0,99,215.0
4848,B1,586.575,0.0,99,215.0
4849,E4,586.575,0.0,99,215.0
4850,G3,586.575,0.375,96,215.0
4851,E3,586.575,0.375,96,215.0
4852,B2,586.575,0.375,96,215.0
4853,G3,586.575,0.375,96,215.0
4854,E3,586.575,0.375,96,215.0
4855,B2,586.575,0.375,96,215.0
4856,G1,586.575,0.375,96,215.0
4857,G4,586.575,0.375,96,215.0
4858,E4,587.075,0.0,99,215.0
4859,A4,587.075,0.0,99,215.0
4860,F#2,587.575,0.0,64,215.0
4861,E3,587.575,0.375,92,215.0
4862,B2,587.575,0.375,92,215.0
4863,G3,587.575,0.375,92,215.0
4864,E3,587.575,0.375,92,215.0
4865,G3,587.575,0.375,92,215.0
4866,B2,587.575,0.375,92,215.0
4867,G4,587.575,0.375,92,215.0
4868,F#2,588.075,0.0,96,215.0
4869,B1,588.075,0.0,96,215.0
4870,E4,588.075,0.0,96,215.0
4871,A4,588.075,0.0,96,215.0
4872,G1,588.075,229/500,120,215.0
4873,B-2,588.575,0.0,92,215.0
4874,B1,588.575,0.0,92,215.0
4875,A4,588.575,0.0,92,215.0
4876,A1,588.575,229/500,120,215.0
4877,B2,588.575,4.0,91,215.0
4878,C#3,588.575,4.0,91,215.0
4879,F3,588.575,4.0,91,215.0
4880,A3,588.575,4.0,91,215.0
4881,C#3,588.575,4.0,91,215.0
4882,B2,588.575,4.0,91,215.0
4883,A3,588.575,4.0,91,215.0
4884,F3,588.575,4.0,91,215.0
4885,A4,588.575,4.0,91,215.0
4886,A4,589.075,0.0,78,215.0
4887,F#2,589.575,0.0,64,215.0
4888,A4,590.075,0.0,92,215.0
4889,E2,590.075,0.0,92,215.0
4890,F#2,590.075,0.0,92,215.0
4891,B1,590.075,0.0,92,215.0
4892,A1,590.075,229/500,120,215.0
4893,B1,590.575,0.0,99,215.0
4894,E4,590.575,0.0,99,215.0
4895,A4,590.575,0.0,99,215.0
4896,B-2,590.575,0.0,99,215.0
4897,A1,590.575,229/500,120,215.0
4898,A4,591.075,0.0,78,215.0
4899,F#2,591.575,0.0,92,215.0
4900,E4,591.575,0.0,92,215.0
4901,A4,592.075,0.0,87,215.0
4902,F#2,592.075,0.0,87,215.0
4903,B1,592.075,0.0,87,215.0
4904,A1,592.075,229/500,120,215.0
4905,A4,596.533,0.0,99,215.0
4906,E4,596.533,0.0,99,215.0
4907,B1,596.533,0.0,99,215.0
4908,B-2,596.533,0.0,99,215.0
4909,A1,596.533,229/500,120,215.0
4910,B2,596.533,1979/500,91,215.0
4911,C#3,596.533,1979/500,91,215.0
4912,F3,596.533,1979/500,91,215.0
4913,A3,596.533,1979/500,91,215.0
4914,C#3,596.533,1979/500,91,215.0
4915,B2,596.533,1979/500,91,215.0
4916,A3,596.533,1979/500,91,215.0
4917,F3,596.533,1979/500,91,215.0
4918,A4,596.533,1979/500,91,215.0
4919,A4,597.033,0.0,78,215.0
4920,F#2,597.533,0.0,64,215.0
4921,E4,598.033,0.0,96,215.0
4922,B1,598.033,0.0,96,215.0
4923,F#2,598.033,0.0,96,215.0
4924,A4,598.033,0.0,96,215.0
4925,A1,598.033,229/500,120,215.0
4926,B-2,598.533,0.0,99,215.0
4927,B1,598.533,0.0,99,215.0
4928,E4,598.533,0.0,99,215.0
4929,A4,598.533,0.0,99,215.0
4930,A1,598.533,229/500,120,215.0
4931,A4,599.033,0.0,99,215.0
4932,E4,599.033,0.0,99,215.0
4933,C#2,599.033,933/1000,120,215.0
4934,F4,599.033,229/500,120,215.0
4935,F#2,599.533,0.0,64,215.0
4936,A4,600.033,0.0,96,215.0
4937,F#2,600.033,0.0,96,215.0
4938,B1,600.033,0.0,96,215.0
4939,E4,600.033,0.0,96,215.0
4940,A1,600.033,229/500,120,215.0
4941,B1,600.533,0.0,92,215.0
4942,B-2,600.533,0.0,92,215.0
4943,A4,600.533,0.0,92,215.0
4944,E4,600.533,1.0,120,215.0
4945,F2,600.533,933/1000,99,215.0
4946,F2,600.533,933/1000,99,215.0
4947,D2,600.533,933/1000,99,215.0
4948,A4,601.033,0.0,78,215.0
4949,F#2,601.533,0.0,64,215.0
4950,D2,601.533,933/1000,120,215.0
4951,C3,601.533,229/500,89,215.0
4952,C3,601.533,229/500,89,215.0
4953,B1,602.033,0.0,92,215.0
4954,F#2,602.033,0.0,92,215.0
4955,E2,602.033,0.0,92,215.0
4956,A4,602.033,0.0,92,215.0
4957,C3,602.033,2.5,89,215.0
4958,E3,602.033,2.5,89,215.0
4959,A2,602.033,2.5,89,215.0
4960,A2,602.033,2.5,89,215.0
4961,C3,602.033,2.5,89,215.0
4962,E3,602.033,2.5,89,215.0
4963,E4,602.533,0.0,99,215.0
4964,B-2,602.533,0.0,99,215.0
4965,A4,602.533,0.0,99,215.0
4966,B1,602.533,0.0,99,215.0
4967,D2,602.533,1417/1000,120,215.0
4968,C4,602.533,229/500,120,215.0
4969,F2,602.533,2.0,89,215.0
4970,F2,602.533,2.0,89,215.0
4971,A4,603.033,0.0,78,215.0
4972,F#2,603.533,0.0,92,215.0
4973,E4,603.533,0.0,92,215.0
4974,A3,603.533,229/500,120,215.0
4975,F#2,604.033,0.0,87,215.0
4976,B1,604.033,0.0,87,215.0
4977,A4,604.033,0.0,87,215.0
4978,D2,604.033,229/500,120,215.0
4979,D4,604.033,0.5,120,215.0
4980,B-2,604.533,0.0,99,215.0
4981,B1,604.533,0.0,99,215.0
4982,E4,604.533,0.0,99,215.0
4983,A4,604.533,0.0,99,215.0
4984,D4,604.533,479/500,120,215.0
4985,C3,604.533,677/250,89,215.0
4986,E3,604.533,677/250,89,215.0
4987,A2,604.533,677/250,89,215.0
4988,A2,604.533,677/250,89,215.0
4989,C3,604.533,677/250,89,215.0
4990,E3,604.533,677/250,89,215.0
4991,F2,604.533,677/250,89,215.0
4992,F2,604.533,677/250,89,215.0
4993,A4,605.033,0.0,78,215.0
4994,D2,605.033,933/1000,120,215.0
4995,F#2,605.533,0.0,64,215.0
4996,E4,605.533,933/1000,120,215.0
4997,F#2,606.033,0.0,96,215.0
4998,A4,606.033,0.0,96,215.0
4999,E4,606.033,0.0,96,215.0
5000,B1,606.033,0.0,96,215.0
5001,D2,606.033,229/500,120,215.0
5002,B-2,606.533,0.0,99,215.0
5003,A4,606.533,0.0,99,215.0
5004,B1,606.533,0.0,99,215.0
5005,E4,606.533,0.0,99,215.0
5006,E1,606.533,933/1000,120,215.0
5007,D4,606.533,0.5,120,215.0
5008,E4,607.033,0.0,99,215.0
5009,A4,607.033,0.0,99,215.0
5010,C4,607.033,229/500,120,215.0
5011,F#2,607.533,0.0,64,215.0
5012,E1,607.533,933/1000,120,215.0
5013,D3,607.533,0.5,99,215.0
5014,D3,607.533,0.5,99,215.0
5015,A3,607.533,0.5,99,215.0
5016,F#2,608.033,0.0,96,215.0
5017,B1,608.033,0.0,96,215.0
5018,E4,608.033,0.0,96,215.0
5019,A4,608.033,0.0,96,215.0
5020,C3,608.033,229/500,99,215.0
5021,C3,608.033,229/500,99,215.0
5022,C4,608.033,229/500,99,215.0
5023,B-2,608.533,0.0,92,215.0
5024,A4,608.533,0.0,92,215.0
5025,B1,608.533,0.0,92,215.0
5026,F1,608.533,229/500,120,215.0
5027,G#2,608.533,933/1000,89,215.0
5028,G#2,608.533,933/1000,89,215.0
5029,A4,609.033,0.0,78,215.0
5030,G3,609.033,1.0,120,215.0
5031,F#2,609.533,0.0,64,215.0
5032,C3,609.533,229/500,89,215.0
5033,C3,609.533,229/500,89,215.0
5034,B1,610.033,0.0,92,215.0
5035,E2,610.033,0.0,92,215.0
5036,F#2,610.033,0.0,92,215.0
5037,A4,610.033,0.0,92,215.0
5038,D3,610.033,2.5,89,215.0
5039,A2,610.033,2.5,89,215.0
5040,G3,610.033,2.5,89,215.0
5041,D3,610.033,2.5,89,215.0
5042,G3,610.033,2.5,89,215.0
5043,A2,610.033,2.5,89,215.0
5044,C3,610.033,229/500,106,215.0
5045,C3,610.033,229/500,106,215.0
5046,F1,610.033,229/500,106,215.0
5047,F3,610.033,229/500,106,215.0
5048,E4,610.533,0.0,99,215.0
5049,B-2,610.533,0.0,99,215.0
5050,A4,610.533,0.0,99,215.0
5051,B1,610.533,0.0,99,215.0
5052,C2,610.533,933/1000,120,215.0
5053,G3,610.533,0.5,127,215.0
5054,C3,610.533,2.0,89,215.0
5055,C3,610.533,2.0,89,215.0
5056,A4,611.033,0.0,78,215.0
5057,F3,611.033,0.5,127,215.0
5058,F#2,611.533,0.0,92,215.0
5059,E4,611.533,0.0,92,215.0
5060,C2,611.533,933/1000,120,215.0
5061,D3,611.533,0.5,127,215.0
5062,B1,612.033,0.0,87,215.0
5063,F#2,612.033,0.0,87,215.0
5064,A4,612.033,0.0,87,215.0
5065,B-2,612.033,0.5,127,215.0
5066,B1,612.533,0.0,99,215.0
5067,A4,612.533,0.0,99,215.0
5068,E4,612.533,0.0,99,215.0
5069,B-2,612.533,0.0,99,215.0
5070,F2,612.533,229/500,120,215.0
5071,D3,612.533,1979/500,89,215.0
5072,A2,612.533,1979/500,89,215.0
5073,G3,612.533,1979/500,89,215.0
5074,D3,612.533,1979/500,89,215.0
5075,G3,612.533,1979/500,89,215.0
5076,A2,612.533,1979/500,89,215.0
5077,C3,612.533,1979/500,89,215.0
5078,C3,612.533,1979/500,89,215.0
5079,A4,613.033,0.0,78,215.0
5080,G#2,613.033,933/1000,120,215.0
5081,G#2,613.033,3417/1000,120,215.0
5082,F#2,613.533,0.0,64,215.0
5083,F#2,614.033,0.0,96,215.0
5084,A4,614.033,0.0,96,215.0
5085,B1,614.033,0.0,96,215.0
5086,E4,614.033,0.0,96,215.0
5087,F2,614.033,229/500,120,215.0
5088,B-2,614.533,0.0,99,215.0
5089,A4,614.533,0.0,99,215.0
5090,B1,614.533,0.0,99,215.0
5091,E4,614.533,0.0,99,215.0
5092,F1,614.533,933/1000,120,215.0
5093,E4,615.033,0.0,99,215.0
5094,A4,615.033,0.0,99,215.0
5095,F#2,615.533,0.0,64,215.0
5096,F1,615.533,933/1000,120,215.0
5097,A4,616.033,0.0,96,215.0
5098,E4,616.033,0.0,96,215.0
5099,F#2,616.033,0.0,96,215.0
5100,B1,616.033,0.0,96,215.0
5101,A4,616.533,0.0,92,215.0
5102,B1,616.533,0.0,92,215.0
5103,B-2,616.533,0.0,92,215.0
5104,E2,616.533,229/500,120,215.0
5105,G3,616.533,1979/500,89,215.0
5106,B2,616.533,1979/500,89,215.0
5107,D3,616.533,1979/500,89,215.0
5108,B2,616.533,1979/500,89,215.0
5109,D3,616.533,1979/500,89,215.0
5110,G3,616.533,1979/500,89,215.0
5111,A4,617.033,0.0,78,215.0
5112,F#2,617.533,0.0,64,215.0
5113,B1,618.033,0.0,92,215.0
5114,F#2,618.033,0.0,92,215.0
5115,A4,618.033,0.0,92,215.0
5116,E2,618.033,0.0,92,215.0
5117,E2,618.033,229/500,120,215.0
5118,A4,618.533,0.0,99,215.0
5119,B-2,618.533,0.0,99,215.0
5120,B1,618.533,0.0,99,215.0
5121,E4,618.533,0.0,99,215.0
5122,E2,618.533,229/500,120,215.0
5123,F#4,618.533,1.0,120,215.0
5124,A4,619.033,0.0,78,215.0
5125,F#2,619.533,0.0,92,215.0
5126,E4,619.533,0.0,92,215.0
5127,A4,619.533,229/500,120,215.0
5128,F#2,620.033,0.0,87,215.0
5129,B1,620.033,0.0,87,215.0
5130,A4,620.033,0.0,87,215.0
5131,E2,620.033,229/500,120,215.0
5132,F#4,620.033,229/500,120,215.0
5133,B-2,620.533,0.0,99,215.0
5134,A4,620.533,0.0,99,215.0
5135,B1,620.533,0.0,99,215.0
5136,E4,620.533,0.0,99,215.0
5137,E-2,620.533,229/500,120,215.0
5138,C#2,620.533,1979/500,89,215.0
5139,F#3,620.533,1979/500,89,215.0
5140,C#2,620.533,1979/500,89,215.0
5141,F#3,620.533,1979/500,89,215.0
5142,D3,620.533,1917/1000,89,215.0
5143,D3,620.533,1917/1000,89,215.0
5144,A4,621.033,0.0,78,215.0
5145,F#2,621.533,0.0,64,215.0
5146,F5,621.533,26/125,120,215.0
5147,F#2,622.033,0.0,96,215.0
5148,E4,622.033,0.0,96,215.0
5149,A4,622.033,0.0,96,215.0
5150,B1,622.033,0.0,96,215.0
5151,E2,622.033,229/500,120,215.0
5152,A4,622.533,0.0,99,215.0
5153,E4,622.533,0.0,99,215.0
5154,B-2,622.533,0.0,99,215.0
5155,B1,622.533,0.0,99,215.0
5156,C3,622.533,1917/1000,89,215.0
5157,C3,622.533,1917/1000,89,215.0
5158,G#1,622.533,0.5,120,215.0
5159,E-5,622.533,0.5,120,215.0
5160,A4,623.033,0.0,99,215.0
5161,E4,623.033,0.0,99,215.0
5162,C5,623.033,0.5,120,215.0
5163,F#2,623.533,0.0,64,215.0
5164,B-4,623.533,0.5,120,215.0
5165,A4,624.033,0.0,96,215.0
5166,F#2,624.033,0.0,96,215.0
5167,E4,624.033,0.0,96,215.0
5168,B1,624.033,0.0,96,215.0
5169,G#1,624.033,229/500,120,215.0
5170,E-5,624.533,0.0,99,215.0
5171,B-2,624.533,0.0,99,215.0
5172,A4,624.533,0.0,99,215.0
5173,B1,624.533,0.0,99,215.0
5174,C#2,624.533,229/500,120,215.0
5175,F3,624.533,1979/500,89,215.0
5176,G#2,624.533,1979/500,89,215.0
5177,G#2,624.533,1979/500,89,215.0
5178,F3,624.533,1979/500,89,215.0
5179,C3,624.533,1917/1000,89,215.0
5180,C3,624.533,1917/1000,89,215.0
5181,A4,625.033,0.0,78,215.0
5182,F#2,625.533,0.0,64,215.0
5183,B1,626.033,0.0,92,215.0
5184,A4,626.033,0.0,92,215.0
5185,E2,626.033,0.0,92,215.0
5186,F#2,626.033,0.0,92,215.0
5187,D2,626.033,0.5,120,215.0
5188,C#5,626.033,0.5,120,215.0
5189,B1,626.533,0.0,99,215.0
5190,B-2,626.533,0.0,99,215.0
5191,A4,626.533,0.0,99,215.0
5192,E4,626.533,0.0,99,215.0
5193,F#1,626.533,229/500,120,215.0
5194,C5,626.533,933/1000,120,215.0
5195,B-2,626.533,1917/1000,89,215.0
5196,B-2,626.533,1917/1000,89,215.0
5197,A4,627.033,0.0,78,215.0
5198,F#2,627.533,0.0,92,215.0
5199,E4,627.533,0.0,92,215.0
5200,F#2,628.033,0.0,87,215.0
5201,B1,628.033,0.0,87,215.0
5202,A4,628.033,0.0,87,215.0
5203,F#1,628.033,229/500,120,215.0
5204,A4,628.533,0.0,99,215.0
5205,E4,628.533,0.0,99,215.0
5206,B1,628.533,0.0,99,215.0
5207,B-2,628.533,0.0,99,215.0
5208,C2,628.533,1917/1000,120,215.0
5209,B4,628.533,229/500,120,215.0
5210,G2,628.533,1979/500,89,215.0
5211,G3,628.533,1979/500,89,215.0
5212,B2,628.533,1979/500,89,215.0
5213,G2,628.533,1979/500,89,215.0
5214,B2,628.533,1979/500,89,215.0
5215,G3,628.533,1979/500,89,215.0
5216,A4,629.033,0.0,78,215.0
5217,F#2,629.533,0.0,64,215.0
5218,B1,630.033,0.0,96,215.0
5219,A4,630.033,0.0,96,215.0
5220,F#2,630.033,0.0,96,215.0
5221,E4,630.033,0.0,96,215.0
5222,B4,630.033,229/500,120,215.0
5223,B-2,630.533,0.0,99,215.0
5224,B1,630.533,0.0,99,215.0
5225,A4,630.533,0.0,99,215.0
5226,E4,630.533,0.0,99,215.0
5227,C2,630.533,933/1000,120,215.0
5228,G4,630.533,229/500,120,215.0
5229,E4,631.033,0.0,99,215.0
5230,A4,631.033,0.0,99,215.0
5231,E4,631.033,229/500,120,215.0
5232,F#2,631.533,0.0,64,215.0
5233,C3,631.533,229/500,120,215.0
5234,D4,631.533,229/500,120,215.0
5235,A4,632.033,0.0,96,215.0
5236,E4,632.033,0.0,96,215.0
5237,B1,632.033,0.0,96,215.0
5238,F#2,632.033,0.0,96,215.0
5239,C2,632.033,229/500,120,215.0
5240,C4,632.033,229/500,120,215.0
5241,B1,632.533,0.0,101,215.0
5242,C#3,632.533,0.0,101,215.0
5243,A4,632.533,0.0,101,215.0
5244,A4,633.033,0.0,78,215.0
5245,F#2,633.533,0.0,64,215.0
5246,C4,633.533,0.375,89,215.0
5247,A3,633.533,0.375,89,215.0
5248,E3,633.533,0.375,89,215.0
5249,E3,633.533,0.375,89,215.0
5250,C4,633.533,0.375,89,215.0
5251,A3,633.533,0.375,89,215.0
5252,B1,634.033,0.0,92,215.0
5253,E2,634.033,0.0,92,215.0
5254,A4,634.033,0.0,92,215.0
5255,F#2,634.033,0.0,92,215.0
5256,C2,634.033,229/500,120,215.0
5257,E3,634.033,0.375,89,215.0
5258,C4,634.033,0.375,89,215.0
5259,A3,634.033,0.375,89,215.0
5260,C4,634.033,0.375,89,215.0
5261,A3,634.033,0.375,89,215.0
5262,E3,634.033,0.375,89,215.0
5263,A4,634.533,0.0,99,215.0
5264,B-2,634.533,0.0,99,215.0
5265,B1,634.533,0.0,99,215.0
5266,E4,634.533,0.0,99,215.0
5267,G1,634.533,229/500,120,215.0
5268,D3,634.533,0.375,89,215.0
5269,G3,634.533,0.375,89,215.0
5270,B3,634.533,0.375,89,215.0
5271,G3,634.533,0.375,89,215.0
5272,D3,634.533,0.375,89,215.0
5273,B3,634.533,0.375,89,215.0
5274,A4,635.033,0.0,78,215.0
5275,G3,635.033,0.375,89,215.0
5276,B3,635.033,0.375,89,215.0
5277,D3,635.033,0.375,89,215.0
5278,G3,635.033,0.375,89,215.0
5279,B3,635.033,0.375,89,215.0
5280,D3,635.033,0.375,89,215.0
5281,E4,635.533,0.0,92,215.0
5282,F#2,635.533,0.0,92,215.0
5283,A4,636.033,0.0,87,215.0
5284,B1,636.033,0.0,87,215.0
5285,F#2,636.033,0.0,87,215.0
5286,G1,636.033,229/500,120,215.0
5287,F3,636.033,0.375,89,215.0
5288,C3,636.033,0.375,89,215.0
5289,A3,636.033,0.375,89,215.0
5290,F3,636.033,0.375,89,215.0
5291,C3,636.033,0.375,89,215.0
5292,A3,636.033,0.375,89,215.0
5293,B-2,636.533,0.0,99,215.0
5294,A4,636.533,0.0,99,215.0
5295,B1,636.533,0.0,99,215.0
5296,E4,636.533,0.0,99,215.0
5297,C2,636.533,229/500,120,215.0
5298,A4,637.033,0.0,78,215.0
5299,C3,637.033,0.375,89,215.0
5300,A3,637.033,0.375,89,215.0
5301,F3,637.033,0.375,89,215.0
5302,F3,637.033,0.375,89,215.0
5303,A3,637.033,0.375,89,215.0
5304,C3,637.033,0.375,89,215.0
5305,F#2,637.533,0.0,64,215.0
5306,F#2,638.033,0.0,96,215.0
5307,B1,638.033,0.0,96,215.0
5308,A4,638.033,0.0,96,215.0
5309,E4,638.033,0.0,96,215.0
5310,C2,638.033,229/500,120,215.0
5311,C3,638.033,0.375,89,215.0
5312,A3,638.033,0.375,89,215.0
5313,F3,638.033,0.375,89,215.0
5314,F3,638.033,0.375,89,215.0
5315,A3,638.033,0.375,89,215.0
5316,C3,638.033,0.375,89,215.0
5317,E4,638.533,0.0,99,215.0
5318,A4,638.533,0.0,99,215.0
5319,B1,638.533,0.0,99,215.0
5320,B-2,638.533,0.0,99,215.0
5321,G1,638.533,933/1000,120,215.0
5322,B2,638.533,417/1000,89,215.0
5323,E3,638.533,417/1000,89,215.0
5324,G3,638.533,417/1000,89,215.0
5325,B2,638.533,417/1000,89,215.0
5326,E3,638.533,417/1000,89,215.0
5327,G3,638.533,417/1000,89,215.0
5328,A4,639.033,0.0,99,215.0
5329,E4,639.033,0.0,99,215.0
5330,F#2,639.533,0.0,64,215.0
5331,C2,639.533,933/1000,120,215.0
5332,B2,639.533,417/1000,89,215.0
5333,G3,639.533,417/1000,89,215.0
5334,E3,639.533,417/1000,89,215.0
5335,E3,639.533,417/1000,89,215.0
5336,B2,639.533,417/1000,89,215.0
5337,G3,639.533,417/1000,89,215.0
5338,F#2,640.033,0.0,96,215.0
5339,E4,640.033,0.0,96,215.0
5340,A4,640.033,0.0,96,215.0
5341,B1,640.033,0.0,96,215.0
5342,A4,640.533,0.0,92,215.0
5343,B1,640.533,0.0,92,215.0
5344,B-2,640.533,0.0,92,215.0
5345,G1,640.533,229/500,120,215.0
5346,A3,640.533,4.0,80,215.0
5347,F3,640.533,4.0,80,215.0
5348,D3,640.533,4.0,80,215.0
5349,C3,640.533,4.0,80,215.0
5350,A3,640.533,4.0,80,215.0
5351,C3,640.533,4.0,80,215.0
5352,F3,640.533,4.0,80,215.0
5353,D3,640.533,4.0,80,215.0
5354,A4,641.033,0.0,78,215.0
5355,F#2,641.533,0.0,64,215.0
5356,E2,642.033,0.0,92,215.0
5357,B1,642.033,0.0,92,215.0
5358,F#2,642.033,0.0,92,215.0
5359,A4,642.033,0.0,92,215.0
5360,G1,642.033,229/500,120,215.0
5361,B-2,642.533,0.0,99,215.0
5362,E4,642.533,0.0,99,215.0
5363,A4,642.533,0.0,99,215.0
5364,B1,642.533,0.0,99,215.0
5365,G1,642.533,229/500,120,215.0
5366,A4,643.033,0.0,78,215.0
5367,F#2,643.533,0.0,92,215.0
5368,E4,643.533,0.0,92,215.0
5369,F#2,644.033,0.0,87,215.0
5370,B1,644.033,0.0,87,215.0
5371,A4,644.033,0.0,87,215.0
5372,G2,644.033,229/500,120,215.0
5373,E4,648.492,0.0,99,215.0
5374,A4,648.492,0.0,99,215.0
5375,B-2,648.492,0.0,99,215.0
5376,B1,648.492,0.0,99,215.0
5377,G1,648.492,229/500,120,215.0
5378,A3,648.492,1979/500,80,215.0
5379,F3,648.492,1979/500,80,215.0
5380,D3,648.492,1979/500,80,215.0
5381,C3,648.492,1979/500,80,215.0
5382,A3,648.492,1979/500,80,215.0
5383,C3,648.492,1979/500,80,215.0
5384,F3,648.492,1979/500,80,215.0
5385,D3,648.492,1979/500,80,215.0
5386,A4,648.992,0.0,78,215.0
5387,G2,648.992,229/500,120,215.0
5388,F#2,649.492,0.0,64,215.0
5389,E4,649.992,0.0,96,215.0
5390,A4,649.992,0.0,96,215.0
5391,B1,649.992,0.0,96,215.0
5392,F#2,649.992,0.0,96,215.0
5393,D2,649.992,229/500,120,215.0
5394,A4,650.492,0.0,99,215.0
5395,E4,650.492,0.0,99,215.0
5396,B-2,650.492,0.0,99,215.0
5397,B1,650.492,0.0,99,215.0
5398,A2,650.492,229/500,120,215.0
5399,A4,650.992,0.0,99,215.0
5400,E4,650.992,0.0,99,215.0
5401,F#2,651.492,0.0,64,215.0
5402,G2,651.492,229/500,120,215.0
5403,B1,651.992,0.0,96,215.0
5404,A4,651.992,0.0,96,215.0
5405,E4,651.992,0.0,96,215.0
5406,F#2,651.992,0.0,96,215.0
5407,G1,651.992,229/500,120,215.0
5408,A4,652.492,0.0,92,215.0
5409,B-2,652.492,0.0,92,215.0
5410,B1,652.492,0.0,92,215.0
5411,C2,652.492,229/500,120,215.0
5412,A4,652.992,0.0,78,215.0
5413,F#2,653.492,0.0,64,215.0
5414,E3,653.492,0.375,89,215.0
5415,C4,653.492,0.375,89,215.0
5416,A3,653.492,0.375,89,215.0
5417,E3,653.492,0.375,89,215.0
5418,A3,653.492,0.375,89,215.0
5419,C4,653.492,0.375,89,215.0
5420,E2,653.992,0.0,92,215.0
5421,A4,653.992,0.0,92,215.0
5422,F#2,653.992,0.0,92,215.0
5423,B1,653.992,0.0,92,215.0
5424,C2,653.992,229/500,120,215.0
5425,C4,653.992,0.375,89,215.0
5426,E3,653.992,0.375,89,215.0
5427,A3,653.992,0.375,89,215.0
5428,E3,653.992,0.375,89,215.0
5429,C4,653.992,0.375,89,215.0
5430,A3,653.992,0.375,89,215.0
5431,E4,654.492,0.0,99,215.0
5432,B1,654.492,0.0,99,215.0
5433,A4,654.492,0.0,99,215.0
5434,B-2,654.492,0.0,99,215.0
5435,G1,654.492,229/500,120,215.0
5436,B3,654.492,0.375,89,215.0
5437,G3,654.492,0.375,89,215.0
5438,D3,654.492,0.375,89,215.0
5439,D3,654.492,0.375,89,215.0
5440,G3,654.492,0.375,89,215.0
5441,B3,654.492,0.375,89,215.0
5442,A4,654.992,0.0,78,215.0
5443,G3,654.992,0.375,89,215.0
5444,B3,654.992,0.375,89,215.0
5445,D3,654.992,0.375,89,215.0
5446,G3,654.992,0.375,89,215.0
5447,D3,654.992,0.375,89,215.0
5448,B3,654.992,0.375,89,215.0
5449,E4,655.492,0.0,92,215.0
5450,F#2,655.492,0.0,92,215.0
5451,B1,655.992,0.0,87,215.0
5452,F#2,655.992,0.0,87,215.0
5453,A4,655.992,0.0,87,215.0
5454,G1,655.992,229/500,120,215.0
5455,A3,655.992,0.375,89,215.0
5456,C3,655.992,0.375,89,215.0
5457,F3,655.992,0.375,89,215.0
5458,A3,655.992,0.375,89,215.0
5459,F3,655.992,0.375,89,215.0
5460,C3,655.992,0.375,89,215.0
5461,B-2,656.492,0.0,99,215.0
5462,E4,656.492,0.0,99,215.0
5463,A4,656.492,0.0,99,215.0
5464,B1,656.492,0.0,99,215.0
5465,C2,656.492,229/500,120,215.0
5466,A4,656.992,0.0,78,215.0
5467,A3,656.992,0.375,89,215.0
5468,C3,656.992,0.375,89,215.0
5469,F3,656.992,0.375,89,215.0
5470,F3,656.992,0.375,89,215.0
5471,C3,656.992,0.375,89,215.0
5472,A3,656.992,0.375,89,215.0
5473,F#2,657.492,0.0,64,215.0
5474,A4,657.992,0.0,96,215.0
5475,B1,657.992,0.0,96,215.0
5476,E4,657.992,0.0,96,215.0
5477,F#2,657.992,0.0,96,215.0
5478,C2,657.992,229/500,120,215.0
5479,C3,657.992,0.375,89,215.0
5480,A3,657.992,0.375,89,215.0
5481,F3,657.992,0.375,89,215.0
5482,F3,657.992,0.375,89,215.0
5483,A3,657.992,0.375,89,215.0
5484,C3,657.992,0.375,89,215.0
5485,B1,658.492,0.0,99,215.0
5486,E4,658.492,0.0,99,215.0
5487,B-2,658.492,0.0,99,215.0
5488,A4,658.492,0.0,99,215.0
5489,G3,658.492,229/500,93,215.0
5490,E3,658.492,229/500,93,215.0
5491,B2,658.492,229/500,93,215.0
5492,G3,658.492,229/500,93,215.0
5493,B2,658.492,229/500,93,215.0
5494,E3,658.492,229/500,93,215.0
5495,G1,658.492,229/500,93,215.0
5496,E4,658.992,0.0,99,215.0
5497,A4,658.992,0.0,99,215.0
5498,F#2,659.492,0.0,64,215.0
5499,G3,659.492,417/1000,89,215.0
5500,B2,659.492,417/1000,89,215.0
5501,E3,659.492,417/1000,89,215.0
5502,B2,659.492,417/1000,89,215.0
5503,G3,659.492,417/1000,89,215.0
5504,E3,659.492,417/1000,89,215.0
5505,F#2,659.992,0.0,96,215.0
5506,E4,659.992,0.0,96,215.0
5507,A4,659.992,0.0,96,215.0
5508,B1,659.992,0.0,96,215.0
5509,G1,659.992,229/500,120,215.0
5510,A4,660.492,0.0,92,215.0
5511,B1,660.492,0.0,92,215.0
5512,B-2,660.492,0.0,92,215.0
5513,A1,660.492,933/1000,120,215.0
5514,A4,660.492,4.0,120,215.0
5515,A3,660.492,4.0,80,215.0
5516,C#3,660.492,4.0,80,215.0
5517,E3,660.492,4.0,80,215.0
5518,B2,660.492,4.0,80,215.0
5519,C#3,660.492,4.0,80,215.0
5520,B2,660.492,4.0,80,215.0
5521,A3,660.492,4.0,80,215.0
5522,E3,660.492,4.0,80,215.0
5523,A4,660.992,0.0,78,215.0
5524,F#2,661.492,0.0,64,215.0
5525,A4,661.992,0.0,92,215.0
5526,F#2,661.992,0.0,92,215.0
5527,B1,661.992,0.0,92,215.0
5528,E2,661.992,0.0,92,215.0
5529,A3,661.992,933/1000,120,215.0
5530,A4,662.492,0.0,99,215.0
5531,B1,662.492,0.0,99,215.0
5532,B-2,662.492,0.0,99,215.0
5533,E4,662.492,0.0,99,215.0
5534,A4,662.992,0.0,78,215.0
5535,E3,662.992,933/1000,120,215.0
5536,F#2,663.492,0.0,92,215.0
5537,E4,663.492,0.0,92,215.0
5538,B1,663.992,0.0,87,215.0
5539,A4,663.992,0.0,87,215.0
5540,F#2,663.992,0.0,87,215.0
5541,C#3,663.992,0.5,120,215.0
5542,E4,668.492,0.0,99,215.0
5543,B1,668.492,0.0,99,215.0
5544,B-2,668.492,0.0,99,215.0
5545,A4,668.492,0.0,99,215.0
5546,A4,668.492,229/500,120,215.0
5547,C#3,668.492,229/500,120,215.0
5548,A3,668.492,4.0,80,215.0
5549,C#3,668.492,4.0,80,215.0
5550,E3,668.492,4.0,80,215.0
5551,B2,668.492,4.0,80,215.0
5552,C#3,668.492,4.0,80,215.0
5553,B2,668.492,4.0,80,215.0
5554,A3,668.492,4.0,80,215.0
5555,E3,668.492,4.0,80,215.0
5556,A4,668.992,0.0,78,215.0
5557,A2,668.992,933/1000,120,215.0
5558,F#2,669.492,0.0,64,215.0
5559,F4,669.492,229/500,120,215.0
5560,F#2,669.992,0.0,96,215.0
5561,A4,669.992,0.0,96,215.0
5562,B1,669.992,0.0,96,215.0
5563,E4,669.992,0.0,96,215.0
5564,E2,669.992,933/1000,120,215.0
5565,B1,670.492,0.0,99,215.0
5566,E4,670.492,0.0,99,215.0
5567,A4,670.492,0.0,99,215.0
5568,B-2,670.492,0.0,99,215.0
5569,G4,670.492,229/500,120,215.0
5570,A4,670.992,0.0,99,215.0
5571,E4,670.992,0.0,99,215.0
5572,C#2,670.992,933/1000,120,215.0
5573,F#2,671.492,0.0,64,215.0
5574,A4,671.492,229/500,120,215.0
5575,B1,671.992,0.0,96,215.0
5576,A4,671.992,0.0,96,215.0
5577,F#2,671.992,0.0,96,215.0
5578,E4,671.992,0.0,96,215.0
5579,A1,671.992,229/500,120,215.0
5580,F4,671.992,229/500,120,215.0
5581,A4,672.492,0.0,101,215.0
5582,C#3,672.492,0.0,101,215.0
5583,B1,672.492,0.0,101,215.0
5584,D2,672.492,933/1000,120,215.0
5585,E3,672.492,4.0,80,215.0
5586,A2,672.492,4.0,80,215.0
5587,F2,672.492,4.0,80,215.0
5588,C3,672.492,4.0,80,215.0
5589,A2,672.492,4.0,80,215.0
5590,E3,672.492,4.0,80,215.0
5591,F2,672.492,4.0,80,215.0
5592,C3,672.492,4.0,80,215.0
5593,A4,672.992,0.0,78,215.0
5594,E4,672.992,229/500,120,215.0
5595,F#2,673.492,0.0,64,215.0
5596,E2,673.992,0.0,92,215.0
5597,B1,673.992,0.0,92,215.0
5598,F#2,673.992,0.0,92,215.0
5599,A4,673.992,0.0,92,215.0
5600,D2,673.992,229/500,120,215.0
5601,E4,673.992,1.5,120,215.0
5602,B1,674.492,0.0,99,215.0
5603,E4,674.492,0.0,99,215.0
5604,A4,674.492,0.0,99,215.0
5605,B-2,674.492,0.0,99,215.0
5606,D2,674.492,933/1000,120,215.0
5607,A4,674.992,0.0,78,215.0
5608,E4,675.492,0.0,92,215.0
5609,F#2,675.492,0.0,92,215.0
5610,C4,675.492,229/500,120,215.0
5611,A4,675.992,0.0,87,215.0
5612,F#2,675.992,0.0,87,215.0
5613,B1,675.992,0.0,87,215.0
5614,D2,675.992,229/500,120,215.0
5615,A3,675.992,229/500,120,215.0
5616,A4,680.492,0.0,99,215.0
5617,B1,680.492,0.0,99,215.0
5618,E4,680.492,0.0,99,215.0
5619,B-2,680.492,0.0,99,215.0
5620,D4,680.492,229/500,120,215.0
5621,E3,680.492,4.0,80,215.0
5622,A2,680.492,4.0,80,215.0
5623,F2,680.492,4.0,80,215.0
5624,C3,680.492,4.0,80,215.0
5625,A2,680.492,4.0,80,215.0
5626,E3,680.492,4.0,80,215.0
5627,F2,680.492,4.0,80,215.0
5628,C3,680.492,4.0,80,215.0
5629,A4,680.992,0.0,78,215.0
5630,D2,680.992,933/1000,120,215.0
5631,A3,680.992,0.5,120,215.0
5632,F#2,681.492,0.0,64,215.0
5633,D4,681.492,1479/500,120,215.0
5634,E4,681.992,0.0,96,215.0
5635,A4,681.992,0.0,96,215.0
5636,B1,681.992,0.0,96,215.0
5637,F#2,681.992,0.0,96,215.0
5638,D2,681.992,229/500,120,215.0
5639,B-2,682.492,0.0,99,215.0
5640,E4,682.492,0.0,99,215.0
5641,B1,682.492,0.0,99,215.0
5642,A4,682.492,0.0,99,215.0
5643,E1,682.492,933/1000,120,215.0
5644,E4,682.992,0.0,99,215.0
5645,A4,682.992,0.0,99,215.0
5646,F#2,683.492,0.0,64,215.0
5647,E1,683.492,933/1000,120,215.0
5648,E4,683.992,0.0,96,215.0
5649,F#2,683.992,0.0,96,215.0
5650,B1,683.992,0.0,96,215.0
5651,A4,683.992,0.0,96,215.0
5652,A4,684.492,0.0,92,215.0
5653,B1,684.492,0.0,92,215.0
5654,B-2,684.492,0.0,92,215.0
5655,F1,684.492,1.875,120,215.0
5656,G#4,684.492,2.0,120,215.0
5657,C3,684.492,4.0,80,215.0
5658,D3,684.492,4.0,80,215.0
5659,G#2,684.492,4.0,80,215.0
5660,F2,684.492,4.0,80,215.0
5661,F2,684.492,4.0,80,215.0
5662,C3,684.492,4.0,80,215.0
5663,D3,684.492,4.0,80,215.0
5664,G#2,684.492,4.0,80,215.0
5665,A4,684.992,0.0,78,215.0
5666,F#2,685.492,0.0,64,215.0
5667,F#2,685.992,0.0,92,215.0
5668,A4,685.992,0.0,92,215.0
5669,B1,685.992,0.0,92,215.0
5670,E2,685.992,0.0,92,215.0
5671,B-2,686.492,0.0,99,215.0
5672,B1,686.492,0.0,99,215.0
5673,E4,686.492,0.0,99,215.0
5674,A4,686.492,0.0,99,215.0
5675,C2,686.492,933/1000,120,215.0
5676,G4,686.492,933/1000,120,215.0
5677,A4,686.992,0.0,78,215.0
5678,F4,687.158,933/1000,120,215.0
5679,F#2,687.492,0.0,92,215.0
5680,E4,687.492,0.0,92,215.0
5681,C2,687.492,933/1000,120,215.0
5682,E-4,687.825,667/1000,120,215.0
5683,F#2,687.992,0.0,87,215.0
5684,A4,687.992,0.0,87,215.0
5685,B1,687.992,0.0,87,215.0
5686,A4,692.492,0.0,99,215.0
5687,B1,692.492,0.0,99,215.0
5688,E4,692.492,0.0,99,215.0
5689,B-2,692.492,0.0,99,215.0
5690,F2,692.492,933/1000,120,215.0
5691,E-4,692.492,933/1000,120,215.0
5692,C3,692.492,4.0,80,215.0
5693,D3,692.492,4.0,80,215.0
5694,G#2,692.492,4.0,80,215.0
5695,F2,692.492,4.0,80,215.0
5696,F2,692.492,4.0,80,215.0
5697,C3,692.492,4.0,80,215.0
5698,D3,692.492,4.0,80,215.0
5699,G#2,692.492,4.0,80,215.0
5700,A4,692.992,0.0,78,215.0
5701,F#2,693.492,0.0,64,215.0
5702,D4,693.492,1479/500,120,215.0
5703,B1,693.992,0.0,96,215.0
5704,F#2,693.992,0.0,96,215.0
5705,A4,693.992,0.0,96,215.0
5706,E4,693.992,0.0,96,215.0
5707,F2,693.992,229/500,120,215.0
5708,A4,694.492,0.0,99,215.0
5709,E4,694.492,0.0,99,215.0
5710,B-2,694.492,0.0,99,215.0
5711,B1,694.492,0.0,99,215.0
5712,C2,694.492,933/1000,120,215.0
5713,E4,694.992,0.0,99,215.0
5714,A4,694.992,0.0,99,215.0
5715,F#2,695.492,0.0,64,215.0
5716,F2,695.492,933/1000,120,215.0
5717,B1,695.992,0.0,96,215.0
5718,A4,695.992,0.0,96,215.0
5719,F#2,695.992,0.0,96,215.0
5720,E4,695.992,0.0,96,215.0
5721,B1,696.492,0.0,92,215.0
5722,A4,696.492,0.0,92,215.0
5723,B-2,696.492,0.0,92,215.0
5724,E2,696.492,933/1000,120,215.0
5725,A4,696.992,0.0,78,215.0
5726,F#2,697.492,0.0,64,215.0
5727,F4,697.492,26/125,120,215.0
5728,A4,697.992,0.0,92,215.0
5729,F#2,697.992,0.0,92,215.0
5730,B1,697.992,0.0,92,215.0
5731,E2,697.992,0.0,92,215.0
5732,E2,697.992,229/500,120,215.0
5733,E4,698.492,0.0,99,215.0
5734,B1,698.492,0.0,99,215.0
5735,B-2,698.492,0.0,99,215.0
5736,A4,698.492,0.0,99,215.0
5737,A1,698.492,933/1000,120,215.0
5738,E4,698.492,26/125,120,215.0
5739,A4,698.992,0.0,78,215.0
5740,F#2,699.492,0.0,92,215.0
5741,E4,699.492,0.0,92,215.0
5742,C4,699.492,26/125,120,215.0
5743,F#2,699.992,0.0,87,215.0
5744,B1,699.992,0.0,87,215.0
5745,A4,699.992,0.0,87,215.0
5746,A1,699.992,229/500,120,215.0
5747,E4,700.492,0.0,99,215.0
5748,B1,700.492,0.0,99,215.0
5749,B-2,700.492,0.0,99,215.0
5750,A4,700.492,0.0,99,215.0
5751,D2,700.492,933/1000,120,215.0
5752,D4,700.492,26/125,120,215.0
5753,A4,700.992,0.0,78,215.0
5754,F#2,701.492,0.0,64,215.0
5755,A3,701.492,26/125,120,215.0
5756,F#2,701.992,0.0,96,215.0
5757,B1,701.992,0.0,96,215.0
5758,A4,701.992,0.0,96,215.0
5759,E4,701.992,0.0,96,215.0
5760,D2,701.992,229/500,120,215.0
5761,B-2,702.492,0.0,99,215.0
5762,E4,702.492,0.0,99,215.0
5763,A4,702.492,0.0,99,215.0
5764,B1,702.492,0.0,99,215.0
5765,G1,702.492,933/1000,120,215.0
5766,C4,702.492,26/125,120,215.0
5767,E4,702.992,0.0,99,215.0
5768,A4,702.992,0.0,99,215.0
5769,F#2,703.492,0.0,64,215.0
5770,E4,703.492,26/125,120,215.0
5771,A4,703.992,0.0,96,215.0
5772,E4,703.992,0.0,96,215.0
5773,F#2,703.992,0.0,96,215.0
5774,B1,703.992,0.0,96,215.0
5775,G4,703.992,26/125,120,215.0
5776,A4,704.492,0.0,92,215.0
5777,B-2,704.492,0.0,92,215.0
5778,B1,704.492,0.0,92,215.0
5779,C2,704.492,933/1000,120,215.0
5780,A4,704.992,0.0,78,215.0
5781,C5,704.992,26/125,120,215.0
5782,F#2,705.492,0.0,64,215.0
5783,A4,705.992,0.0,92,215.0
5784,B1,705.992,0.0,92,215.0
5785,F#2,705.992,0.0,92,215.0
5786,E2,705.992,0.0,92,215.0
5787,C2,705.992,229/500,120,215.0
5788,E5,705.992,26/125,120,215.0
5789,B-2,706.492,0.0,99,215.0
5790,B1,706.492,0.0,99,215.0
5791,E4,706.492,0.0,99,215.0
5792,A4,706.492,0.0,99,215.0
5793,G1,706.492,933/1000,120,215.0
5794,A4,706.992,0.0,78,215.0
5795,G5,706.992,26/125,120,215.0
5796,F#2,707.492,0.0,92,215.0
5797,E4,707.492,0.0,92,215.0
5798,F#2,707.992,0.0,87,215.0
5799,B1,707.992,0.0,87,215.0
5800,A4,707.992,0.0,87,215.0
5801,G1,707.992,229/500,120,215.0
5802,E5,707.992,26/125,120,215.0
5803,E4,708.492,0.0,99,215.0
5804,B1,708.492,0.0,99,215.0
5805,B-2,708.492,0.0,99,215.0
5806,A4,708.492,0.0,99,215.0
5807,C2,708.492,933/1000,120,215.0
5808,F5,708.492,26/125,120,215.0
5809,A4,708.992,0.0,78,215.0
5810,G5,708.992,26/125,120,215.0
5811,F5,709.242,26/125,120,215.0
5812,F#2,709.492,0.0,64,215.0
5813,E5,709.492,0.5,120,215.0
5814,F#2,709.992,0.0,96,215.0
5815,B1,709.992,0.0,96,215.0
5816,A4,709.992,0.0,96,215.0
5817,E4,709.992,0.0,96,215.0
5818,C2,709.992,0.5,120,215.0
5819,D5,709.992,0.5,120,215.0
5820,E4,710.492,0.0,99,215.0
5821,A4,710.492,0.0,99,215.0
5822,B1,710.492,0.0,99,215.0
5823,B-2,710.492,0.0,99,215.0
5824,G1,710.492,933/1000,120,215.0
5825,C5,710.492,0.5,120,215.0
5826,E4,710.992,0.0,99,215.0
5827,A4,710.992,0.0,99,215.0
5828,B4,710.992,0.5,120,215.0
5829,F#2,711.492,0.0,64,215.0
5830,C2,711.492,933/1000,120,215.0
5831,A4,711.492,0.5,120,215.0
5832,F#2,711.992,0.0,96,215.0
5833,E4,711.992,0.0,96,215.0
5834,A4,711.992,0.0,96,215.0
5835,B1,711.992,0.0,96,215.0
5836,G4,711.992,0.5,120,215.0
5837,A4,712.492,0.0,101,215.0
5838,B1,712.492,0.0,101,215.0
5839,C#3,712.492,0.0,101,215.0
5840,A3,712.492,833/1000,100,215.0
5841,F1,712.492,229/500,120,215.0
5842,C4,712.575,833/1000,100,215.0
5843,F4,712.658,833/1000,100,215.0
5844,A4,712.992,0.0,78,215.0
5845,F#2,713.492,0.0,64,215.0
5846,E2,713.992,0.0,92,215.0
5847,B1,713.992,0.0,92,215.0
5848,A4,713.992,0.0,92,215.0
5849,F#2,713.992,0.0,92,215.0
5850,A4,713.992,229/500,92,215.0
5851,A4,713.992,229/500,92,215.0
5852,F1,713.992,229/500,92,215.0
5853,D4,713.992,1417/1000,100,215.0
5854,B4,713.992,1417/1000,100,215.0
5855,B-2,714.492,0.0,99,215.0
5856,B1,714.492,0.0,99,215.0
5857,A4,714.492,0.0,99,215.0
5858,E4,714.492,0.0,99,215.0
5859,F1,714.492,229/500,120,215.0
5860,D4,714.492,1.0,78,215.0
5861,B4,714.492,1.0,78,215.0
5862,G4,714.492,1.0,78,215.0
5863,D4,714.492,1.0,78,215.0
5864,B4,714.492,1.0,78,215.0
5865,G4,714.492,1.0,78,215.0
5866,A4,714.992,0.0,78,215.0
5867,F#2,715.492,0.0,92,215.0
5868,E4,715.492,0.0,92,215.0
5869,F4,715.492,229/500,84,215.0
5870,C4,715.492,229/500,84,215.0
5871,A4,715.492,229/500,84,215.0
5872,A4,715.492,229/500,84,215.0
5873,F4,715.492,229/500,84,215.0
5874,C4,715.492,229/500,84,215.0
5875,A4,715.492,229/500,84,215.0
5876,C4,715.492,229/500,84,215.0
5877,F#2,715.992,0.0,87,215.0
5878,B1,715.992,0.0,87,215.0
5879,A4,715.992,0.0,87,215.0
5880,A1,715.992,229/500,120,215.0
5881,B3,715.992,0.5,78,215.0
5882,G4,715.992,0.5,78,215.0
5883,E4,715.992,0.5,78,215.0
5884,B3,715.992,0.5,78,215.0
5885,E4,715.992,0.5,78,215.0
5886,G4,715.992,0.5,78,215.0
5887,G4,715.992,0.5,100,215.0
5888,E4,715.992,0.5,100,215.0
5889,B3,715.992,0.5,100,215.0
5890,A4,716.492,0.0,99,215.0
5891,E4,716.492,0.0,99,215.0
5892,B1,716.492,0.0,99,215.0
5893,B-2,716.492,0.0,99,215.0
5894,C2,716.492,229/500,120,215.0
5895,B3,716.492,1.0,78,215.0
5896,G4,716.492,1.0,78,215.0
5897,E4,716.492,1.0,78,215.0
5898,B3,716.492,1.0,78,215.0
5899,E4,716.492,1.0,78,215.0
5900,G4,716.492,1.0,78,215.0
5901,G4,716.492,417/1000,100,215.0
5902,E4,716.492,417/1000,100,215.0
5903,B3,716.492,417/1000,100,215.0
5904,A4,716.992,0.0,78,215.0
5905,F#2,717.492,0.0,64,215.0
5906,A4,717.992,0.0,96,215.0
5907,F#2,717.992,0.0,96,215.0
5908,B1,717.992,0.0,96,215.0
5909,E4,717.992,0.0,96,215.0
5910,F4,717.992,229/500,107,215.0
5911,C4,717.992,229/500,107,215.0
5912,C2,717.992,229/500,107,215.0
5913,B1,718.492,0.0,99,215.0
5914,B-2,718.492,0.0,99,215.0
5915,E4,718.492,0.0,99,215.0
5916,A4,718.492,0.0,99,215.0
5917,B3,718.492,933/1000,110,215.0
5918,C2,718.492,933/1000,110,215.0
5919,A4,718.992,0.0,99,215.0
5920,E4,718.992,0.0,99,215.0
5921,F#2,719.492,0.0,64,215.0
5922,B3,719.492,229/500,100,215.0
5923,E1,719.492,933/1000,120,215.0
5924,B1,719.992,0.0,96,215.0
5925,F#2,719.992,0.0,96,215.0
5926,A4,719.992,0.0,96,215.0
5927,E4,719.992,0.0,96,215.0
5928,B3,719.992,229/500,100,215.0
5929,B1,720.492,0.0,92,215.0
5930,B-2,720.492,0.0,92,215.0
5931,A4,720.492,0.0,92,215.0
5932,A3,720.492,833/1000,100,215.0
5933,A1,720.492,229/500,120,215.0
5934,C4,720.575,833/1000,100,215.0
5935,F4,720.658,833/1000,100,215.0
5936,A4,720.992,0.0,78,215.0
5937,F#2,721.492,0.0,64,215.0
5938,A4,721.992,0.0,92,215.0
5939,B1,721.992,0.0,92,215.0
5940,F#2,721.992,0.0,92,215.0
5941,E2,721.992,0.0,92,215.0
5942,A4,721.992,229/500,92,215.0
5943,A4,721.992,229/500,92,215.0
5944,A1,721.992,229/500,92,215.0
5945,D4,721.992,1417/1000,100,215.0
5946,B4,721.992,1417/1000,100,215.0
5947,B-2,722.492,0.0,99,215.0
5948,B1,722.492,0.0,99,215.0
5949,A4,722.492,0.0,99,215.0
5950,E4,722.492,0.0,99,215.0
5951,A1,722.492,229/500,120,215.0
5952,G4,722.492,1.0,78,215.0
5953,D4,722.492,1.0,78,215.0
5954,B4,722.492,1.0,78,215.0
5955,D4,722.492,1.0,78,215.0
5956,B4,722.492,1.0,78,215.0
5957,G4,722.492,1.0,78,215.0
5958,A4,722.992,0.0,78,215.0
5959,E4,723.492,0.0,92,215.0
5960,F#2,723.492,0.0,92,215.0
5961,A4,723.492,229/500,84,215.0
5962,F4,723.492,229/500,84,215.0
5963,C4,723.492,229/500,84,215.0
5964,A4,723.492,229/500,84,215.0
5965,F4,723.492,229/500,84,215.0
5966,C4,723.492,229/500,84,215.0
5967,A4,723.492,229/500,84,215.0
5968,C4,723.492,229/500,84,215.0
5969,F#2,723.992,0.0,87,215.0
5970,B1,723.992,0.0,87,215.0
5971,A4,723.992,0.0,87,215.0
5972,A1,723.992,229/500,120,215.0
5973,B3,723.992,0.5,78,215.0
5974,E4,723.992,0.5,78,215.0
5975,G4,723.992,0.5,78,215.0
5976,B3,723.992,0.5,78,215.0
5977,G4,723.992,0.5,78,215.0
5978,E4,723.992,0.5,78,215.0
5979,G4,723.992,0.5,100,215.0
5980,E4,723.992,0.5,100,215.0
5981,B3,723.992,0.5,100,215.0
5982,A4,724.492,0.0,99,215.0
5983,B1,724.492,0.0,99,215.0
5984,B-2,724.492,0.0,99,215.0
5985,E4,724.492,0.0,99,215.0
5986,C2,724.492,229/500,120,215.0
5987,B3,724.492,1.0,78,215.0
5988,E4,724.492,1.0,78,215.0
5989,G4,724.492,1.0,78,215.0
5990,B3,724.492,1.0,78,215.0
5991,G4,724.492,1.0,78,215.0
5992,E4,724.492,1.0,78,215.0
5993,G4,724.492,417/1000,100,215.0
5994,E4,724.492,417/1000,100,215.0
5995,B3,724.492,417/1000,100,215.0
5996,A4,724.992,0.0,78,215.0
5997,F#2,725.492,0.0,64,215.0
5998,B1,725.992,0.0,96,215.0
5999,F#2,725.992,0.0,96,215.0
6000,E4,725.992,0.0,96,215.0
6001,A4,725.992,0.0,96,215.0
6002,C4,725.992,229/500,107,215.0
6003,F4,725.992,229/500,107,215.0
6004,C2,725.992,229/500,107,215.0
6005,B1,726.492,0.0,99,215.0
6006,B-2,726.492,0.0,99,215.0
6007,E4,726.492,0.0,99,215.0
6008,A4,726.492,0.0,99,215.0
6009,B3,726.492,933/1000,100,215.0
6010,C2,726.492,229/500,120,215.0
6011,E4,726.992,0.0,99,215.0
6012,A4,726.992,0.0,99,215.0
6013,F#2,727.492,0.0,64,215.0
6014,B3,727.492,229/500,100,215.0
6015,E4,727.992,0.0,96,215.0
6016,F#2,727.992,0.0,96,215.0
6017,B1,727.992,0.0,96,215.0
6018,A4,727.992,0.0,96,215.0
6019,B3,727.992,229/500,110,215.0
6020,C2,727.992,229/500,110,215.0
6021,B-2,728.492,0.0,92,215.0
6022,B1,728.492,0.0,92,215.0
6023,A4,728.492,0.0,92,215.0
6024,B1,728.492,229/500,120,215.0
6025,A3,728.492,1479/500,78,215.0
6026,A3,728.492,1479/500,78,215.0
6027,A4,728.992,0.0,78,215.0
6028,F#2,729.492,0.0,64,215.0
6029,E2,729.992,0.0,92,215.0
6030,B1,729.992,0.0,92,215.0
6031,A4,729.992,0.0,92,215.0
6032,F#2,729.992,0.0,92,215.0
6033,F#3,729.992,229/500,125,215.0
6034,B1,729.992,229/500,125,215.0
6035,A3,729.992,229/500,125,215.0
6036,E-4,730.075,229/500,127,215.0
6037,F#4,730.075,229/500,127,215.0
6038,A4,730.492,0.0,99,215.0
6039,B-2,730.492,0.0,99,215.0
6040,E4,730.492,0.0,99,215.0
6041,B1,730.492,0.0,99,215.0
6042,B1,730.492,1917/1000,120,215.0
6043,G4,730.492,0.5,78,215.0
6044,E-4,730.492,0.5,78,215.0
6045,B4,730.492,0.5,78,215.0
6046,E-4,730.492,0.5,78,215.0
6047,B4,730.492,0.5,78,215.0
6048,G4,730.492,0.5,78,215.0
6049,F#3,730.492,833/1000,127,215.0
6050,A3,730.492,833/1000,127,215.0
6051,E-4,730.575,833/1000,127,215.0
6052,F#4,730.575,833/1000,127,215.0
6053,A4,730.992,0.0,78,215.0
6054,A4,730.992,0.5,78,215.0
6055,A4,730.992,0.5,78,215.0
6056,F#2,731.492,0.0,92,215.0
6057,E4,731.492,0.0,92,215.0
6058,F#2,731.992,0.0,87,215.0
6059,B1,731.992,0.0,87,215.0
6060,A4,731.992,0.0,87,215.0
6061,G4,731.992,0.5,78,215.0
6062,G4,731.992,0.5,78,215.0
6063,B1,732.492,0.0,99,215.0
6064,A4,732.492,0.0,99,215.0
6065,E4,732.492,0.0,99,215.0
6066,B-2,732.492,0.0,99,215.0
6067,E2,732.492,229/500,120,215.0
6068,B3,732.492,1917/1000,127,215.0
6069,E4,732.492,1917/1000,127,215.0
6070,G4,732.575,1917/1000,127,215.0
6071,A4,732.992,0.0,78,215.0
6072,E1,732.992,229/500,120,215.0
6073,F#2,733.492,0.0,64,215.0
6074,E2,733.492,729/500,120,215.0
6075,E4,733.492,0.5,78,215.0
6076,G4,733.492,0.5,78,215.0
6077,B3,733.492,0.5,78,215.0
6078,B3,733.492,0.5,78,215.0
6079,G4,733.492,0.5,78,215.0
6080,E4,733.492,0.5,78,215.0
6081,B1,733.992,0.0,96,215.0
6082,F#2,733.992,0.0,96,215.0
6083,A4,733.992,0.0,96,215.0
6084,E4,733.992,0.0,96,215.0
6085,B-2,734.492,0.0,99,215.0
6086,A4,734.492,0.0,99,215.0
6087,B1,734.492,0.0,99,215.0
6088,E4,734.492,0.0,99,215.0
6089,E3,734.492,1917/1000,127,215.0
6090,G3,734.492,1917/1000,127,215.0
6091,C#4,734.575,1917/1000,127,215.0
6092,E4,734.575,1917/1000,127,215.0
6093,E4,734.992,0.0,99,215.0
6094,A4,734.992,0.0,99,215.0
6095,A1,734.992,1417/1000,120,215.0
6096,E4,734.992,1.5,78,215.0
6097,C#4,734.992,1.5,78,215.0
6098,G3,734.992,1.5,78,215.0
6099,G3,734.992,1.5,78,215.0
6100,C#4,734.992,1.5,78,215.0
6101,E4,734.992,1.5,78,215.0
6102,F#2,735.492,0.0,64,215.0
6103,B1,735.992,0.0,96,215.0
6104,E4,735.992,0.0,96,215.0
6105,F#2,735.992,0.0,96,215.0
6106,A4,735.992,0.0,96,215.0
6107,A4,736.492,0.0,92,215.0
6108,B-2,736.492,0.0,92,215.0
6109,B1,736.492,0.0,92,215.0
6110,C4,736.492,1917/1000,85,215.0
6111,F4,736.492,1917/1000,85,215.0
6112,A4,736.492,1917/1000,85,215.0
6113,F4,736.492,1917/1000,85,215.0
6114,A4,736.492,1917/1000,85,215.0
6115,C4,736.492,1917/1000,85,215.0
6116,A3,736.492,1917/1000,85,215.0
6117,F3,736.492,1917/1000,125,215.0
6118,D2,736.492,1917/1000,125,215.0
6119,A3,736.492,1917/1000,125,215.0
6120,C4,736.575,1917/1000,127,215.0
6121,F4,736.575,1917/1000,127,215.0
6122,A4,736.992,0.0,78,215.0
6123,F#2,737.492,0.0,64,215.0
6124,A4,737.992,0.0,92,215.0
6125,B1,737.992,0.0,92,215.0
6126,E2,737.992,0.0,92,215.0
6127,F#2,737.992,0.0,92,215.0
6128,B1,738.492,0.0,99,215.0
6129,A4,738.492,0.0,99,215.0
6130,B-2,738.492,0.0,99,215.0
6131,E4,738.492,0.0,99,215.0
6132,G1,738.492,1417/1000,120,215.0
6133,G4,738.492,1917/1000,85,215.0
6134,B3,738.492,1917/1000,85,215.0
6135,E4,738.492,1917/1000,85,215.0
6136,E4,738.492,1917/1000,85,215.0
6137,B3,738.492,1917/1000,85,215.0
6138,G4,738.492,1917/1000,85,215.0
6139,B3,738.492,1917/1000,85,215.0
6140,F3,738.492,1917/1000,127,215.0
6141,B3,738.492,1917/1000,127,215.0
6142,D4,738.575,1917/1000,127,215.0
6143,A4,738.992,0.0,78,215.0
6144,F#2,739.492,0.0,92,215.0
6145,E4,739.492,0.0,92,215.0
6146,A4,739.992,0.0,87,215.0
6147,F#2,739.992,0.0,87,215.0
6148,B1,739.992,0.0,87,215.0
6149,G1,739.992,229/500,120,215.0
6150,E4,740.492,0.0,99,215.0
6151,A4,740.492,0.0,99,215.0
6152,B1,740.492,0.0,99,215.0
6153,B-2,740.492,0.0,99,215.0
6154,F1,740.492,1417/1000,120,215.0
6155,D4,740.492,1917/1000,85,215.0
6156,C4,740.492,1917/1000,85,215.0
6157,A3,740.492,1917/1000,85,215.0
6158,A3,740.492,1917/1000,85,215.0
6159,D4,740.492,1917/1000,85,215.0
6160,C4,740.492,1917/1000,85,215.0
6161,A3,740.492,1917/1000,85,215.0
6162,E4,740.492,1917/1000,102,215.0
6163,F3,740.492,1917/1000,102,215.0
6164,E4,740.492,1917/1000,102,215.0
6165,A3,740.492,1917/1000,102,215.0
6166,C4,740.575,1917/1000,127,215.0
6167,A4,740.992,0.0,78,215.0
6168,F#2,741.492,0.0,64,215.0
6169,A4,741.992,0.0,96,215.0
6170,B1,741.992,0.0,96,215.0
6171,F#2,741.992,0.0,96,215.0
6172,E4,741.992,0.0,96,215.0
6173,F1,741.992,229/500,120,215.0
6174,B1,742.492,0.0,99,215.0
6175,A4,742.492,0.0,99,215.0
6176,E4,742.492,0.0,99,215.0
6177,B-2,742.492,0.0,99,215.0
6178,E1,742.492,1417/1000,120,215.0
6179,E4,742.492,1917/1000,85,215.0
6180,G#3,742.492,1917/1000,85,215.0
6181,D4,742.492,1917/1000,85,215.0
6182,G#3,742.492,1917/1000,85,215.0
6183,E4,742.492,1917/1000,85,215.0
6184,D4,742.492,1917/1000,85,215.0
6185,G#3,742.492,1917/1000,85,215.0
6186,E3,742.492,1917/1000,127,215.0
6187,G#3,742.492,1917/1000,127,215.0
6188,D4,742.575,1917/1000,127,215.0
6189,E4,742.992,0.0,99,215.0
6190,A4,742.992,0.0,99,215.0
6191,F#2,743.492,0.0,64,215.0
6192,B1,743.992,0.0,96,215.0
6193,F#2,743.992,0.0,96,215.0
6194,E4,743.992,0.0,96,215.0
6195,A4,743.992,0.0,96,215.0
6196,E1,743.992,229/500,120,215.0
6197,C#3,744.492,0.0,101,215.0
6198,A4,744.492,0.0,101,215.0
6199,B1,744.492,0.0,101,215.0
6200,E4,744.492,1979/500,94,215.0
6201,B3,744.492,1979/500,94,215.0
6202,C4,744.492,1979/500,94,215.0
6203,A2,744.492,1979/500,94,215.0
6204,E4,744.492,1979/500,94,215.0
6205,C4,744.492,1979/500,94,215.0
6206,B3,744.492,1979/500,94,215.0
6207,A1,744.492,1979/500,94,215.0
6208,G3,744.575,3917/1000,100,215.0
6209,C4,744.658,3833/1000,100,215.0
6210,D4,744.742,3.75,100,215.0
6211,A4,744.992,0.0,78,215.0
6212,F#2,745.492,0.0,64,215.0
6213,B1,745.992,0.0,92,215.0
6214,E2,745.992,0.0,92,215.0
6215,F#2,745.992,0.0,92,215.0
6216,A4,745.992,0.0,92,215.0
6217,B-2,746.492,0.0,99,215.0
6218,B1,746.492,0.0,99,215.0
6219,E4,746.492,0.0,99,215.0
6220,A4,746.492,0.0,99,215.0
6221,A4,746.992,0.0,78,215.0
6222,F#2,747.492,0.0,92,215.0
6223,E4,747.492,0.0,92,215.0
6224,B1,747.992,0.0,87,215.0
6225,F#2,747.992,0.0,87,215.0
6226,A4,747.992,0.0,87,215.0
6227,A4,748.492,0.0,99,215.0
6228,E4,748.492,0.0,99,215.0
6229,B-2,748.492,0.0,99,215.0
6230,B1,748.492,0.0,99,215.0
6231,G3,748.492,21/500,100,215.0
6232,C4,748.492,0.125,100,215.0
6233,D4,748.492,26/125,100,215.0
6234,G#3,748.492,1979/500,94,215.0
6235,E4,748.492,1979/500,94,215.0
6236,B3,748.492,1979/500,94,215.0
6237,C3,748.492,1979/500,94,215.0
6238,E4,748.492,1979/500,94,215.0
6239,G#3,748.492,1979/500,94,215.0
6240,B3,748.492,1979/500,94,215.0
6241,C2,748.492,1979/500,94,215.0
6242,G#3,748.575,3917/1000,100,215.0
6243,B3,748.658,3833/1000,100,215.0
6244,E4,748.742,3.75,100,215.0
6245,A4,748.992,0.0,78,215.0
6246,F#2,749.492,0.0,64,215.0
6247,E4,749.992,0.0,96,215.0
6248,A4,749.992,0.0,96,215.0
6249,F#2,749.992,0.0,96,215.0
6250,B1,749.992,0.0,96,215.0
6251,A4,750.492,0.0,99,215.0
6252,B1,750.492,0.0,99,215.0
6253,B-2,750.492,0.0,99,215.0
6254,E4,750.492,0.0,99,215.0
6255,E4,750.992,0.0,99,215.0
6256,A4,750.992,0.0,99,215.0
6257,F#2,751.492,0.0,64,215.0
6258,A4,751.992,0.0,96,215.0
6259,E4,751.992,0.0,96,215.0
6260,B1,751.992,0.0,96,215.0
6261,F#2,751.992,0.0,96,215.0
6262,B-2,752.492,0.0,92,215.0
6263,B1,752.492,0.0,92,215.0
6264,A4,752.492,0.0,92,215.0
6265,G#3,752.492,21/500,100,215.0
6266,B3,752.492,0.125,100,215.0
6267,E4,752.492,26/125,100,215.0
6268,D4,752.492,1979/500,94,215.0
6269,B3,752.492,1979/500,94,215.0
6270,G3,752.492,1979/500,94,215.0
6271,A2,752.492,1979/500,94,215.0
6272,D4,752.492,1979/500,94,215.0
6273,B3,752.492,1979/500,94,215.0
6274,G3,752.492,1979/500,94,215.0
6275,A1,752.492,1979/500,94,215.0
6276,G3,752.575,3917/1000,100,215.0
6277,B3,752.658,3833/1000,100,215.0
6278,D4,752.742,3.75,100,215.0
6279,A4,752.992,0.0,78,215.0
6280,F#2,753.492,0.0,64,215.0
6281,F#2,753.992,0.0,92,215.0
6282,A4,753.992,0.0,92,215.0
6283,B1,753.992,0.0,92,215.0
6284,E2,753.992,0.0,92,215.0
6285,B1,754.492,0.0,99,215.0
6286,E4,754.492,0.0,99,215.0
6287,A4,754.492,0.0,99,215.0
6288,B-2,754.492,0.0,99,215.0
6289,A4,754.992,0.0,78,215.0
6290,F#2,755.492,0.0,92,215.0
6291,E4,755.492,0.0,92,215.0
6292,B1,755.992,0.0,87,215.0
6293,F#2,755.992,0.0,87,215.0
6294,A4,755.992,0.0,87,215.0
6295,B-2,756.492,0.0,99,215.0
6296,E4,756.492,0.0,99,215.0
6297,B1,756.492,0.0,99,215.0
6298,A4,756.492,0.0,99,215.0
6299,G3,756.492,21/500,100,215.0
6300,B3,756.492,0.125,100,215.0
6301,D4,756.492,26/125,100,215.0
6302,D4,756.492,1979/500,94,215.0
6303,C4,756.492,1979/500,94,215.0
6304,A3,756.492,1979/500,94,215.0
6305,F2,756.492,1979/500,94,215.0
6306,D4,756.492,1979/500,94,215.0
6307,A3,756.492,1979/500,94,215.0
6308,C4,756.492,1979/500,94,215.0
6309,F1,756.492,1979/500,94,215.0
6310,A3,756.575,3917/1000,100,215.0
6311,C4,756.658,3833/1000,100,215.0
6312,E4,756.742,3.75,100,215.0
6313,A4,756.992,0.0,78,215.0
6314,F#2,757.492,0.0,64,215.0
6315,B1,757.992,0.0,96,215.0
6316,A4,757.992,0.0,96,215.0
6317,F#2,757.992,0.0,96,215.0
6318,E4,757.992,0.0,96,215.0
6319,A4,758.492,0.0,99,215.0
6320,B-2,758.492,0.0,99,215.0
6321,E4,758.492,0.0,99,215.0
6322,B1,758.492,0.0,99,215.0
6323,A4,758.992,0.0,99,215.0
6324,E4,758.992,0.0,99,215.0
6325,F#2,759.492,0.0,64,215.0
6326,F#2,759.992,0.0,96,215.0
6327,B1,759.992,0.0,96,215.0
6328,A4,759.992,0.0,96,215.0
6329,E4,759.992,0.0,96,215.0
6330,B1,760.492,0.0,92,215.0
6331,B-2,760.492,0.0,92,215.0
6332,A4,760.492,0.0,92,215.0
6333,C2,760.492,1917/1000,120,215.0
6334,A3,760.492,21/500,100,215.0
6335,C4,760.492,0.125,100,215.0
6336,E4,760.492,26/125,100,215.0
6337,A4,760.992,0.0,78,215.0
6338,F#2,761.492,0.0,64,215.0
6339,F#2,761.992,0.0,92,215.0
6340,A4,761.992,0.0,92,215.0
6341,E2,761.992,0.0,92,215.0
6342,B1,761.992,0.0,92,215.0
6343,E4,762.492,0.0,99,215.0
6344,B-2,762.492,0.0,99,215.0
6345,B1,762.492,0.0,99,215.0
6346,A4,762.492,0.0,99,215.0
6347,C3,762.492,1917/1000,120,215.0
6348,F#4,762.492,2.0,90,215.0
6349,E-4,762.492,2.0,90,215.0
6350,B4,762.492,2.0,90,215.0
6351,B3,762.492,2.0,90,215.0
6352,F#4,762.492,2.0,90,215.0
6353,B4,762.492,2.0,90,215.0
6354,F#4,762.492,2.0,90,215.0
6355,E-4,762.492,2.0,90,215.0
6356,B3,762.492,2.0,90,215.0
6357,E4,762.575,1917/1000,100,215.0
6358,E-4,762.658,1833/1000,100,215.0
6359,B3,762.742,1.75,100,215.0
6360,A4,762.992,0.0,78,215.0
6361,E4,763.492,0.0,92,215.0
6362,F#2,763.492,0.0,92,215.0
6363,F#2,763.992,0.0,87,215.0
6364,B1,763.992,0.0,87,215.0
6365,A4,763.992,0.0,87,215.0
6366,B1,764.492,0.0,99,215.0
6367,E4,764.492,0.0,99,215.0
6368,A4,764.492,0.0,99,215.0
6369,B-2,764.492,0.0,99,215.0
6370,E4,764.492,83/1000,100,215.0
6371,E-4,764.492,167/1000,100,215.0
6372,B3,764.492,0.25,100,215.0
6373,B4,764.492,1979/500,92,215.0
6374,E4,764.492,1979/500,92,215.0
6375,B3,764.492,1979/500,92,215.0
6376,D4,764.492,1979/500,92,215.0
6377,G4,764.492,1979/500,92,215.0
6378,G4,764.492,1979/500,92,215.0
6379,B4,764.492,1979/500,92,215.0
6380,B3,764.492,1979/500,92,215.0
6381,E4,764.492,1979/500,92,215.0
6382,D4,764.492,1979/500,92,215.0
6383,G4,764.492,1979/500,92,215.0
6384,C2,764.492,1979/500,92,215.0
6385,E4,764.575,3917/1000,100,215.0
6386,B3,764.742,3.75,100,215.0
6387,A4,764.992,0.0,78,215.0
6388,F#2,765.492,0.0,64,215.0
6389,B1,765.992,0.0,96,215.0
6390,E4,765.992,0.0,96,215.0
6391,A4,765.992,0.0,96,215.0
6392,F#2,765.992,0.0,96,215.0
6393,B1,766.492,0.0,99,215.0
6394,B-2,766.492,0.0,99,215.0
6395,A4,766.492,0.0,99,215.0
6396,E4,766.492,0.0,99,215.0
6397,A4,766.992,0.0,99,215.0
6398,E4,766.992,0.0,99,215.0
6399,F#2,767.492,0.0,64,215.0
6400,F#2,767.992,0.0,96,215.0
6401,B1,767.992,0.0,96,215.0
6402,A4,767.992,0.0,96,215.0
6403,E4,767.992,0.0,96,215.0
6404,B1,768.492,0.0,92,215.0
6405,B-2,768.492,0.0,92,215.0
6406,A4,768.492,0.0,92,215.0
6407,A3,768.492,4.0,100,215.0
6408,F1,768.492,4.0,120,215.0
6409,E4,768.492,0.125,100,215.0
6410,B3,768.492,26/125,100,215.0
6411,A3,768.492,4.0,89,215.0
6412,A3,768.492,4.0,89,215.0
6413,A4,768.992,0.0,78,215.0
6414,F#2,769.492,0.0,64,215.0
6415,A4,769.992,0.0,92,215.0
6416,B1,769.992,0.0,92,215.0
6417,F#2,769.992,0.0,92,215.0
6418,E2,769.992,0.0,92,215.0
6419,E4,770.492,0.0,99,215.0
6420,B1,770.492,0.0,99,215.0
6421,B-2,770.492,0.0,99,215.0
6422,A4,770.492,0.0,99,215.0
6423,A4,770.992,0.0,78,215.0
6424,F#2,771.492,0.0,92,215.0
6425,E4,771.492,0.0,92,215.0
6426,F#2,771.992,0.0,87,215.0
6427,A4,771.992,0.0,87,215.0
6428,B1,771.992,0.0,87,215.0
6429,B1,775.45,0.0,99,215.0
6430,B-2,775.45,0.0,99,215.0
6431,E4,775.45,0.0,99,215.0
6432,A4,775.45,0.0,99,215.0
6433,A3,775.45,4.0,100,215.0
6434,F1,775.45,933/1000,120,215.0
6435,A3,775.45,1479/500,89,215.0
6436,A3,775.45,1479/500,89,215.0
6437,A4,775.95,0.0,78,215.0
6438,F#2,776.45,0.0,64,215.0
6439,F2,776.45,229/500,120,215.0
6440,B1,776.95,0.0,96,215.0
6441,F#2,776.95,0.0,96,215.0
6442,A4,776.95,0.0,96,215.0
6443,E4,776.95,0.0,96,215.0
6444,C2,776.95,229/500,120,215.0
6445,E4,777.45,0.0,99,215.0
6446,A4,777.45,0.0,99,215.0
6447,B1,777.45,0.0,99,215.0
6448,B-2,777.45,0.0,99,215.0
6449,A4,777.95,0.0,99,215.0
6450,E4,777.95,0.0,99,215.0
6451,A1,777.95,933/1000,120,215.0
6452,F#2,778.45,0.0,64,215.0
6453,C4,778.45,229/500,89,215.0
6454,C4,778.45,229/500,89,215.0
6455,F#2,778.95,0.0,96,215.0
6456,A4,778.95,0.0,96,215.0
6457,B1,778.95,0.0,96,215.0
6458,E4,778.95,0.0,96,215.0
6459,G4,778.95,229/500,99,215.0
6460,G4,778.95,229/500,99,215.0
6461,F1,778.95,229/500,99,215.0
6462,B-2,779.45,0.0,92,215.0
6463,B1,779.45,0.0,92,215.0
6464,A4,779.45,0.0,92,215.0
6465,E1,779.45,229/500,120,215.0
6466,A4,779.95,0.0,78,215.0
6467,F#2,780.45,0.0,64,215.0
6468,B1,780.95,0.0,92,215.0
6469,F#2,780.95,0.0,92,215.0
6470,E2,780.95,0.0,92,215.0
6471,A4,780.95,0.0,92,215.0
6472,B-3,780.95,229/500,107,215.0
6473,B-3,780.95,229/500,107,215.0
6474,E1,780.95,229/500,107,215.0
6475,B1,781.45,0.0,99,215.0
6476,E4,781.45,0.0,99,215.0
6477,B-2,781.45,0.0,99,215.0
6478,A4,781.45,0.0,99,215.0
6479,B-3,781.45,933/1000,110,215.0
6480,B-1,781.45,933/1000,110,215.0
6481,A4,781.95,0.0,78,215.0
6482,E4,782.45,0.0,92,215.0
6483,F#2,782.45,0.0,92,215.0
6484,B-3,782.45,229/500,100,215.0
6485,D4,782.45,933/1000,110,215.0
6486,B-1,782.45,933/1000,110,215.0
6487,B1,782.95,0.0,87,215.0
6488,F#2,782.95,0.0,87,215.0
6489,A4,782.95,0.0,87,215.0
6490,E4,783.45,0.0,99,215.0
6491,B1,783.45,0.0,99,215.0
6492,B-2,783.45,0.0,99,215.0
6493,A4,783.45,0.0,99,215.0
6494,C#4,783.45,1479/500,100,215.0
6495,A3,783.45,229/500,110,215.0
6496,A1,783.45,229/500,110,215.0
6497,A4,783.95,0.0,78,215.0
6498,F#2,784.45,0.0,64,215.0
6499,A4,784.95,0.0,96,215.0
6500,F#2,784.95,0.0,96,215.0
6501,B1,784.95,0.0,96,215.0
6502,E4,784.95,0.0,96,215.0
6503,A3,784.95,229/500,110,215.0
6504,A1,784.95,229/500,110,215.0
6505,B1,785.45,0.0,99,215.0
6506,E4,785.45,0.0,99,215.0
6507,B-2,785.45,0.0,99,215.0
6508,A4,785.45,0.0,99,215.0
6509,A3,785.45,229/500,110,215.0
6510,A1,785.45,229/500,110,215.0
6511,E4,785.95,0.0,99,215.0
6512,A4,785.95,0.0,99,215.0
6513,A3,785.95,229/500,100,215.0
6514,F#2,786.45,0.0,64,215.0
6515,C#4,786.45,229/500,100,215.0
6516,A3,786.45,229/500,100,215.0
6517,F#2,786.95,0.0,96,215.0
6518,A4,786.95,0.0,96,215.0
6519,E4,786.95,0.0,96,215.0
6520,B1,786.95,0.0,96,215.0
6521,A3,786.95,229/500,107,215.0
6522,A3,786.95,229/500,107,215.0
6523,A1,786.95,229/500,107,215.0
6524,B-2,787.45,0.0,92,215.0
6525,B1,787.45,0.0,92,215.0
6526,A4,787.45,0.0,92,215.0
6527,G3,787.45,1917/1000,100,215.0
6528,A3,787.45,229/500,110,215.0
6529,D2,787.45,229/500,110,215.0
6530,A4,787.95,0.0,78,215.0
6531,A3,787.95,229/500,100,215.0
6532,F#2,788.45,0.0,64,215.0
6533,A4,788.95,0.0,92,215.0
6534,B1,788.95,0.0,92,215.0
6535,F#2,788.95,0.0,92,215.0
6536,E2,788.95,0.0,92,215.0
6537,A3,788.95,229/500,110,215.0
6538,D2,788.95,229/500,110,215.0
6539,B1,789.45,0.0,99,215.0
6540,A4,789.45,0.0,99,215.0
6541,B-2,789.45,0.0,99,215.0
6542,E4,789.45,0.0,99,215.0
6543,F3,789.45,1917/1000,100,215.0
6544,A3,789.45,229/500,100,215.0
6545,D2,789.45,933/1000,120,215.0
6546,A4,789.95,0.0,78,215.0
6547,E4,790.45,0.0,92,215.0
6548,F#2,790.45,0.0,92,215.0
6549,A3,790.45,229/500,100,215.0
6550,E1,790.45,933/1000,120,215.0
6551,B1,790.95,0.0,87,215.0
6552,F#2,790.95,0.0,87,215.0
6553,A4,790.95,0.0,87,215.0
6554,E4,791.45,0.0,99,215.0
6555,B-2,791.45,0.0,99,215.0
6556,A4,791.45,0.0,99,215.0
6557,B1,791.45,0.0,99,215.0
6558,G#3,791.45,1417/1000,100,215.0
6559,G#3,791.45,229/500,110,215.0
6560,F1,791.45,229/500,110,215.0
6561,A4,791.95,0.0,78,215.0
6562,G#3,791.95,229/500,100,215.0
6563,F#2,792.45,0.0,64,215.0
6564,G#3,792.45,229/500,100,215.0
6565,B1,792.95,0.0,96,215.0
6566,F#2,792.95,0.0,96,215.0
6567,A4,792.95,0.0,96,215.0
6568,E4,792.95,0.0,96,215.0
6569,D4,792.95,1433/1000,100,215.0
6570,G#3,792.95,229/500,110,215.0
6571,F1,792.95,229/500,110,215.0
6572,B-2,793.45,0.0,99,215.0
6573,E4,793.45,0.0,99,215.0
6574,A4,793.45,0.0,99,215.0
6575,B1,793.45,0.0,99,215.0
6576,F1,793.45,229/500,120,215.0
6577,A4,793.95,0.0,99,215.0
6578,E4,793.95,0.0,99,215.0
6579,F#2,794.45,0.0,64,215.0
6580,C4,794.45,933/1000,100,215.0
6581,G#3,794.45,229/500,100,215.0
6582,F#2,794.95,0.0,96,215.0
6583,B1,794.95,0.0,96,215.0
6584,E4,794.95,0.0,96,215.0
6585,A4,794.95,0.0,96,215.0
6586,A1,794.95,229/500,120,215.0
6587,A4,795.45,0.0,92,215.0
6588,B1,795.45,0.0,92,215.0
6589,B-2,795.45,0.0,92,215.0
6590,G3,795.45,1917/1000,100,215.0
6591,G3,795.45,229/500,110,215.0
6592,E1,795.45,229/500,110,215.0
6593,A4,795.95,0.0,78,215.0
6594,F#2,796.45,0.0,64,215.0
6595,B1,796.95,0.0,92,215.0
6596,A4,796.95,0.0,92,215.0
6597,F#2,796.95,0.0,92,215.0
6598,E2,796.95,0.0,92,215.0
6599,C4,796.95,229/500,110,215.0
6600,E1,796.95,229/500,110,215.0
6601,B-2,797.45,0.0,99,215.0
6602,A4,797.45,0.0,99,215.0
6603,B1,797.45,0.0,99,215.0
6604,E4,797.45,0.0,99,215.0
6605,E4,797.45,229/500,100,215.0
6606,C4,797.45,229/500,100,215.0
6607,E4,797.45,933/1000,99,215.0
6608,A1,797.45,933/1000,99,215.0
6609,F4,797.783,229/500,100,215.0
6610,A4,797.95,0.0,78,215.0
6611,E4,798.117,229/500,100,215.0
6612,E4,798.45,0.0,92,215.0
6613,F#2,798.45,0.0,92,215.0
6614,A1,798.45,933/1000,120,215.0
6615,E-4,798.45,229/500,93,215.0
6616,C4,798.45,229/500,93,215.0
6617,E-4,798.45,229/500,93,215.0
6618,A4,798.95,0.0,87,215.0
6619,B1,798.95,0.0,87,215.0
6620,F#2,798.95,0.0,87,215.0
6621,E4,798.95,229/500,93,215.0
6622,C4,798.95,229/500,93,215.0
6623,E4,798.95,229/500,93,215.0
6624,E4,799.45,0.0,99,215.0
6625,A4,799.45,0.0,99,215.0
6626,B1,799.45,0.0,99,215.0
6627,B-2,799.45,0.0,99,215.0
6628,F4,799.45,229/500,100,215.0
6629,C4,799.45,229/500,100,215.0
6630,F4,799.45,229/500,100,215.0
6631,D2,799.45,229/500,100,215.0
6632,A4,799.95,0.0,78,215.0
6633,D4,799.95,229/500,89,215.0
6634,D4,799.95,229/500,89,215.0
6635,F#2,800.45,0.0,64,215.0
6636,C4,800.45,229/500,100,215.0
6637,E4,800.95,0.0,96,215.0
6638,A4,800.95,0.0,96,215.0
6639,F#2,800.95,0.0,96,215.0
6640,B1,800.95,0.0,96,215.0
6641,A3,800.95,229/500,100,215.0
6642,C4,800.95,229/500,100,215.0
6643,A3,800.95,229/500,100,215.0
6644,D2,800.95,229/500,100,215.0
6645,A4,801.45,0.0,99,215.0
6646,B1,801.45,0.0,99,215.0
6647,B-2,801.45,0.0,99,215.0
6648,E4,801.45,0.0,99,215.0
6649,G1,801.45,933/1000,120,215.0
6650,A4,801.95,0.0,99,215.0
6651,E4,801.95,0.0,99,215.0
6652,C4,801.95,229/500,100,215.0
6653,C#3,802.45,0.0,64,215.0
6654,C4,802.45,229/500,100,215.0
6655,C4,802.45,933/1000,99,215.0
6656,C4,802.45,933/1000,99,215.0
6657,G1,802.45,933/1000,99,215.0
6658,B1,802.95,0.0,106,215.0
6659,E4,802.95,0.0,106,215.0
6660,A4,802.95,0.0,106,215.0
6661,B1,803.45,0.0,92,215.0
6662,B-2,803.45,0.0,92,215.0
6663,A4,803.45,0.0,92,215.0
6664,C2,803.45,1417/1000,120,215.0
6665,C4,803.45,229/500,100,215.0
6666,C4,803.45,229/500,100,215.0
6667,A4,803.95,0.0,78,215.0
6668,F#2,804.45,0.0,64,215.0
6669,C4,804.45,229/500,100,215.0
6670,C4,804.45,229/500,100,215.0
6671,A4,804.95,0.0,92,215.0
6672,F#2,804.95,0.0,92,215.0
6673,E2,804.95,0.0,92,215.0
6674,B1,804.95,0.0,92,215.0
6675,C4,804.95,229/500,107,215.0
6676,C4,804.95,229/500,107,215.0
6677,C2,804.95,229/500,107,215.0
6678,B1,805.45,0.0,99,215.0
6679,A4,805.45,0.0,99,215.0
6680,B-2,805.45,0.0,99,215.0
6681,E4,805.45,0.0,99,215.0
6682,G1,805.45,1417/1000,120,215.0
6683,C4,805.45,229/500,100,215.0
6684,C4,805.45,229/500,100,215.0
6685,A4,805.95,0.0,78,215.0
6686,C4,805.95,229/500,100,215.0
6687,E4,806.45,0.0,92,215.0
6688,F#2,806.45,0.0,92,215.0
6689,C4,806.45,229/500,100,215.0
6690,A4,806.95,0.0,87,215.0
6691,B1,806.95,0.0,87,215.0
6692,F#2,806.95,0.0,87,215.0
6693,C4,806.95,229/500,110,215.0
6694,G1,806.95,229/500,110,215.0
6695,A4,807.45,0.0,99,215.0
6696,B-2,807.45,0.0,99,215.0
6697,E4,807.45,0.0,99,215.0
6698,B1,807.45,0.0,99,215.0
6699,C2,807.45,933/1000,120,215.0
6700,C4,807.45,229/500,100,215.0
6701,C4,807.45,229/500,100,215.0
6702,A4,807.95,0.0,78,215.0
6703,C4,807.95,229/500,100,215.0
6704,C4,807.95,229/500,100,215.0
6705,F#2,808.45,0.0,64,215.0
6706,C4,808.45,229/500,100,215.0
6707,A4,808.95,0.0,96,215.0
6708,E4,808.95,0.0,96,215.0
6709,B1,808.95,0.0,96,215.0
6710,F#2,808.95,0.0,96,215.0
6711,C4,808.95,229/500,107,215.0
6712,C4,808.95,229/500,107,215.0
6713,C2,808.95,229/500,107,215.0
6714,B1,809.45,0.0,99,215.0
6715,A4,809.45,0.0,99,215.0
6716,B-2,809.45,0.0,99,215.0
6717,E4,809.45,0.0,99,215.0
6718,C4,809.45,933/1000,110,215.0
6719,G1,809.45,933/1000,110,215.0
6720,A4,809.95,0.0,99,215.0
6721,E4,809.95,0.0,99,215.0
6722,C4,809.95,229/500,100,215.0
6723,F#2,810.45,0.0,64,215.0
6724,C4,810.45,229/500,100,215.0
6725,C4,810.45,933/1000,110,215.0
6726,C1,810.45,933/1000,110,215.0
6727,B1,810.95,0.0,96,215.0
6728,F#2,810.95,0.0,96,215.0
6729,A4,810.95,0.0,96,215.0
6730,E4,810.95,0.0,96,215.0
6731,B1,811.45,0.0,92,215.0
6732,B-2,811.45,0.0,92,215.0
6733,A4,811.45,0.0,92,215.0
6734,F1,811.45,1417/1000,120,215.0
6735,C4,811.45,4.0,90,215.0
6736,G4,811.45,4.0,90,215.0
6737,A3,811.45,4.0,90,215.0
6738,E4,811.45,4.0,90,215.0
6739,F3,811.45,4.0,90,215.0
6740,E4,811.45,4.0,90,215.0
6741,G4,811.45,4.0,90,215.0
6742,C4,811.45,4.0,90,215.0
6743,A3,811.45,4.0,90,215.0
6744,C4,811.533,3917/1000,100,215.0
6745,E4,811.617,3833/1000,100,215.0
6746,G4,811.7,3.75,100,215.0
6747,A4,811.95,0.0,78,215.0
6748,F#2,812.45,0.0,64,215.0
6749,A4,812.95,0.0,92,215.0
6750,B1,812.95,0.0,92,215.0
6751,E2,812.95,0.0,92,215.0
6752,F#2,812.95,0.0,92,215.0
6753,F1,812.95,229/500,120,215.0
6754,A4,813.45,0.0,99,215.0
6755,E4,813.45,0.0,99,215.0
6756,B-2,813.45,0.0,99,215.0
6757,B1,813.45,0.0,99,215.0
6758,F1,813.45,933/1000,120,215.0
6759,A4,813.95,0.0,78,215.0
6760,F#2,814.45,0.0,92,215.0
6761,E4,814.45,0.0,92,215.0
6762,F1,814.45,933/1000,120,215.0
6763,B1,814.95,0.0,87,215.0
6764,A4,814.95,0.0,87,215.0
6765,F#2,814.95,0.0,87,215.0
6766,B-2,815.45,0.0,99,215.0
6767,A4,815.45,0.0,99,215.0
6768,E4,815.45,0.0,99,215.0
6769,B1,815.45,0.0,99,215.0
6770,B1,815.45,1417/1000,120,215.0
6771,C4,815.45,21/500,100,215.0
6772,E4,815.45,0.125,100,215.0
6773,G4,815.45,26/125,100,215.0
6774,A3,815.45,4.0,90,215.0
6775,G4,815.45,4.0,90,215.0
6776,D4,815.45,4.0,90,215.0
6777,E-4,815.45,4.0,90,215.0
6778,B2,815.45,4.0,90,215.0
6779,E-4,815.45,4.0,90,215.0
6780,A3,815.45,4.0,90,215.0
6781,G4,815.45,4.0,90,215.0
6782,D4,815.45,4.0,90,215.0
6783,A3,815.533,3917/1000,100,215.0
6784,E-4,815.617,3833/1000,100,215.0
6785,G4,815.7,3.75,100,215.0
6786,A4,815.95,0.0,78,215.0
6787,F#2,816.45,0.0,64,215.0
6788,E4,816.95,0.0,96,215.0
6789,A4,816.95,0.0,96,215.0
6790,F#2,816.95,0.0,96,215.0
6791,B1,816.95,0.0,96,215.0
6792,B1,816.95,229/500,120,215.0
6793,B-2,817.45,0.0,99,215.0
6794,B1,817.45,0.0,99,215.0
6795,A4,817.45,0.0,99,215.0
6796,E4,817.45,0.0,99,215.0
6797,B1,817.45,933/1000,120,215.0
6798,E4,817.95,0.0,99,215.0
6799,A4,817.95,0.0,99,215.0
6800,F#2,818.45,0.0,64,215.0
6801,B1,818.45,933/1000,120,215.0
6802,B1,818.95,0.0,96,215.0
6803,A4,818.95,0.0,96,215.0
6804,F#2,818.95,0.0,96,215.0
6805,E4,818.95,0.0,96,215.0
6806,A4,819.45,0.0,92,215.0
6807,B1,819.45,0.0,92,215.0
6808,B-2,819.45,0.0,92,215.0
6809,B-1,819.45,1417/1000,120,215.0
6810,A3,819.45,21/500,100,215.0
6811,E-4,819.45,0.125,100,215.0
6812,G4,819.45,26/125,100,215.0
6813,A3,819.45,4.0,90,215.0
6814,D4,819.45,4.0,90,215.0
6815,G4,819.45,4.0,90,215.0
6816,C4,819.45,4.0,90,215.0
6817,B-2,819.45,4.0,90,215.0
6818,D4,819.45,4.0,90,215.0
6819,C4,819.45,4.0,90,215.0
6820,G4,819.45,4.0,90,215.0
6821,A3,819.45,4.0,90,215.0
6822,A3,819.533,3917/1000,100,215.0
6823,D4,819.617,3833/1000,100,215.0
6824,G4,819.7,3.75,100,215.0
6825,A4,819.95,0.0,78,215.0
6826,F#2,820.45,0.0,64,215.0
6827,F#2,820.95,0.0,92,215.0
6828,E2,820.95,0.0,92,215.0
6829,B1,820.95,0.0,92,215.0
6830,A4,820.95,0.0,92,215.0
6831,B-1,820.95,229/500,120,215.0
6832,E4,821.45,0.0,99,215.0
6833,A4,821.45,0.0,99,215.0
6834,B1,821.45,0.0,99,215.0
6835,B-2,821.45,0.0,99,215.0
6836,B-1,821.45,933/1000,120,215.0
6837,A4,821.95,0.0,78,215.0
6838,F#2,822.45,0.0,92,215.0
6839,E4,822.45,0.0,92,215.0
6840,B-1,822.45,933/1000,120,215.0
6841,F#2,822.95,0.0,87,215.0
6842,B1,822.95,0.0,87,215.0
6843,A4,822.95,0.0,87,215.0
6844,E4,823.45,0.0,99,215.0
6845,B1,823.45,0.0,99,215.0
6846,B-2,823.45,0.0,99,215.0
6847,A4,823.45,0.0,99,215.0
6848,A1,823.45,1417/1000,120,215.0
6849,A3,823.45,21/500,100,215.0
6850,D4,823.45,0.125,100,215.0
6851,G4,823.45,26/125,100,215.0
6852,C#4,823.45,4.0,90,215.0
6853,A3,823.45,4.0,90,215.0
6854,G4,823.45,4.0,90,215.0
6855,G3,823.45,4.0,90,215.0
6856,A2,823.45,4.0,90,215.0
6857,G4,823.45,4.0,90,215.0
6858,G3,823.45,4.0,90,215.0
6859,C#4,823.45,4.0,90,215.0
6860,A3,823.45,4.0,90,215.0
6861,G3,823.533,3917/1000,100,215.0
6862,C#4,823.617,3833/1000,100,215.0
6863,G4,823.7,3.75,100,215.0
6864,A4,823.95,0.0,78,215.0
6865,F#2,824.45,0.0,64,215.0
6866,B1,824.95,0.0,96,215.0
6867,A4,824.95,0.0,96,215.0
6868,E4,824.95,0.0,96,215.0
6869,F#2,824.95,0.0,96,215.0
6870,A1,824.95,229/500,120,215.0
6871,A4,825.45,0.0,99,215.0
6872,B1,825.45,0.0,99,215.0
6873,B-2,825.45,0.0,99,215.0
6874,E4,825.45,0.0,99,215.0
6875,A1,825.45,933/1000,120,215.0
6876,A4,825.95,0.0,99,215.0
6877,E4,825.95,0.0,99,215.0
6878,F#2,826.45,0.0,64,215.0
6879,A1,826.45,933/1000,120,215.0
6880,F#2,826.95,0.0,96,215.0
6881,B1,826.95,0.0,96,215.0
6882,A4,826.95,0.0,96,215.0
6883,E4,826.95,0.0,96,215.0
6884,A4,827.45,0.0,92,215.0
6885,B1,827.45,0.0,92,215.0
6886,B-2,827.45,0.0,92,215.0
6887,D3,827.45,3.5,100,215.0
6888,D2,827.45,1417/1000,120,215.0
6889,G3,827.45,21/500,100,215.0
6890,C#4,827.45,0.125,100,215.0
6891,G4,827.45,26/125,100,215.0
6892,C4,827.45,3.75,89,215.0
6893,A3,827.45,3.75,89,215.0
6894,E4,827.45,3.75,89,215.0
6895,F3,827.45,3.75,89,215.0
6896,F3,827.45,3.75,89,215.0
6897,A3,827.45,3.75,89,215.0
6898,E4,827.45,3.75,89,215.0
6899,C4,827.45,3.75,89,215.0
6900,C4,827.533,3.5,100,215.0
6901,E4,827.617,3.5,100,215.0
6902,G4,827.7,3.5,100,215.0
6903,A4,827.95,0.0,78,215.0
6904,F#2,828.45,0.0,64,215.0
6905,B1,828.95,0.0,92,215.0
6906,F#2,828.95,0.0,92,215.0
6907,E2,828.95,0.0,92,215.0
6908,A4,828.95,0.0,92,215.0
6909,D2,828.95,229/500,120,215.0
6910,E4,829.45,0.0,99,215.0
6911,A4,829.45,0.0,99,215.0
6912,B1,829.45,0.0,99,215.0
6913,B-2,829.45,0.0,99,215.0
6914,D2,829.45,933/1000,120,215.0
6915,A4,829.95,0.0,78,215.0
6916,F#2,830.45,0.0,92,215.0
6917,E4,830.45,0.0,92,215.0
6918,D2,830.45,933/1000,120,215.0
6919,A4,830.95,0.0,87,215.0
6920,B1,830.95,0.0,87,215.0
6921,F#2,830.95,0.0,87,215.0
6922,D4,831.2,0.25,91,215.0
6923,F3,831.2,0.25,91,215.0
6924,C4,831.2,0.25,91,215.0
6925,A3,831.2,0.25,91,215.0
6926,G2,831.2,0.25,91,215.0
6927,D4,831.2,0.25,91,215.0
6928,A3,831.2,0.25,91,215.0
6929,C4,831.2,0.25,91,215.0
6930,F3,831.2,0.25,91,215.0
6931,F3,831.2,0.25,91,215.0
6932,A3,831.325,0.125,100,215.0
6933,C4,831.325,0.125,100,215.0
6934,E4,835.383,0.0,99,215.0
6935,B1,835.383,0.0,99,215.0
6936,A4,835.383,0.0,99,215.0
6937,B-2,835.383,0.0,99,215.0
6938,G1,835.383,1417/1000,120,215.0
6939,D4,835.383,3933/1000,91,215.0
6940,F3,835.383,3933/1000,91,215.0
6941,C4,835.383,3933/1000,91,215.0
6942,A3,835.383,3933/1000,91,215.0
6943,G2,835.383,3933/1000,91,215.0
6944,D4,835.383,3933/1000,91,215.0
6945,A3,835.383,3933/1000,91,215.0
6946,C4,835.383,3933/1000,91,215.0
6947,F3,835.383,3933/1000,91,215.0
6948,F3,835.383,3933/1000,91,215.0
6949,A3,835.383,3933/1000,100,215.0
6950,C4,835.383,3933/1000,100,215.0
6951,A4,835.883,0.0,78,215.0
6952,F#2,836.383,0.0,64,215.0
6953,A4,836.883,0.0,96,215.0
6954,F#2,836.883,0.0,96,215.0
6955,E4,836.883,0.0,96,215.0
6956,B1,836.883,0.0,96,215.0
6957,G1,836.883,229/500,120,215.0
6958,E4,837.383,0.0,99,215.0
6959,A4,837.383,0.0,99,215.0
6960,B1,837.383,0.0,99,215.0
6961,B-2,837.383,0.0,99,215.0
6962,G1,837.383,933/1000,120,215.0
6963,E4,837.883,0.0,99,215.0
6964,A4,837.883,0.0,99,215.0
6965,F#2,838.383,0.0,64,215.0
6966,E4,838.883,0.0,96,215.0
6967,A4,838.883,0.0,96,215.0
6968,F#2,838.883,0.0,96,215.0
6969,B1,838.883,0.0,96,215.0
6970,A4,839.383,0.0,92,215.0
6971,B-2,839.383,0.0,92,215.0
6972,B1,839.383,0.0,92,215.0
6973,E1,839.383,1417/1000,120,215.0
6974,A4,839.883,0.0,78,215.0
6975,F#2,840.383,0.0,64,215.0
6976,G4,840.383,0.375,89,215.0
6977,E4,840.383,0.375,89,215.0
6978,G4,840.383,0.375,89,215.0
6979,E4,840.383,0.375,89,215.0
6980,F#2,840.883,0.0,92,215.0
6981,E2,840.883,0.0,92,215.0
6982,A4,840.883,0.0,92,215.0
6983,B1,840.883,0.0,92,215.0
6984,E4,840.883,0.375,84,215.0
6985,G4,840.883,0.375,84,215.0
6986,E3,840.883,0.375,84,215.0
6987,G4,840.883,0.375,84,215.0
6988,E4,840.883,0.375,84,215.0
6989,B-3,840.883,0.375,84,215.0
6990,E1,840.883,0.375,98,215.0
6991,B-3,840.883,0.375,98,215.0
6992,D4,840.967,0.375,75,215.0
6993,G4,840.967,0.375,75,215.0
6994,B1,841.383,0.0,99,215.0
6995,E4,841.383,0.0,99,215.0
6996,B-2,841.383,0.0,99,215.0
6997,A4,841.383,0.0,99,215.0
6998,E1,841.383,933/1000,120,215.0
6999,E4,841.383,0.375,84,215.0
7000,G4,841.383,0.375,84,215.0
7001,E3,841.383,0.375,84,215.0
7002,G4,841.383,0.375,84,215.0
7003,E4,841.383,0.375,84,215.0
7004,B-3,841.383,0.375,84,215.0
7005,D4,841.467,0.375,75,215.0
7006,G4,841.467,0.375,75,215.0
7007,A4,841.883,0.0,78,215.0
7008,F4,841.883,0.375,84,215.0
7009,A4,841.883,0.375,84,215.0
7010,E3,841.883,0.375,84,215.0
7011,F4,841.883,0.375,84,215.0
7012,A4,841.883,0.375,84,215.0
7013,B-3,841.883,0.375,84,215.0
7014,D4,841.967,0.375,75,215.0
7015,G4,841.967,0.375,75,215.0
7016,E4,842.383,0.0,92,215.0
7017,F#2,842.383,0.0,92,215.0
7018,B-1,842.383,933/1000,120,215.0
7019,F#2,842.883,0.0,87,215.0
7020,A4,842.883,0.0,87,215.0
7021,B1,842.883,0.0,87,215.0
7022,B-4,842.883,0.375,89,215.0
7023,G4,842.883,0.375,89,215.0
7024,B-4,842.883,0.375,89,215.0
7025,G4,842.883,0.375,89,215.0
7026,B1,843.383,0.0,99,215.0
7027,E4,843.383,0.0,99,215.0
7028,A4,843.383,0.0,99,215.0
7029,B-2,843.383,0.0,99,215.0
7030,A1,843.383,1417/1000,120,215.0
7031,E3,843.383,0.375,75,215.0
7032,G3,843.383,0.375,75,215.0
7033,C#4,843.467,0.375,75,215.0
7034,E4,843.467,0.375,75,215.0
7035,A4,843.883,0.0,78,215.0
7036,G4,843.883,0.375,89,215.0
7037,B-4,843.883,0.375,89,215.0
7038,B-4,843.883,0.375,89,215.0
7039,G4,843.883,0.375,89,215.0
7040,F#2,844.383,0.0,64,215.0
7041,E3,844.383,0.375,75,215.0
7042,G3,844.383,0.375,75,215.0
7043,C#4,844.467,0.375,75,215.0
7044,E4,844.467,0.375,75,215.0
7045,F#2,844.883,0.0,96,215.0
7046,E4,844.883,0.0,96,215.0
7047,B1,844.883,0.0,96,215.0
7048,A4,844.883,0.0,96,215.0
7049,B-4,844.883,0.375,84,215.0
7050,G4,844.883,0.375,84,215.0
7051,E3,844.883,0.375,84,215.0
7052,B-4,844.883,0.375,84,215.0
7053,G4,844.883,0.375,84,215.0
7054,G3,844.883,0.375,84,215.0
7055,A1,844.883,0.375,98,215.0
7056,G3,844.883,0.375,98,215.0
7057,C#4,844.967,0.375,75,215.0
7058,E4,844.967,0.375,75,215.0
7059,E4,845.383,0.0,99,215.0
7060,B-2,845.383,0.0,99,215.0
7061,A4,845.383,0.0,99,215.0
7062,B1,845.383,0.0,99,215.0
7063,A1,845.383,1417/1000,120,215.0
7064,A4,845.383,933/1000,89,215.0
7065,F4,845.383,933/1000,89,215.0
7066,A4,845.383,933/1000,89,215.0
7067,F4,845.383,933/1000,89,215.0
7068,E3,845.383,0.375,75,215.0
7069,G3,845.383,0.375,75,215.0
7070,C#4,845.467,0.375,75,215.0
7071,E4,845.467,0.375,75,215.0
7072,E4,845.883,0.0,99,215.0
7073,A4,845.883,0.0,99,215.0
7074,F#2,846.383,0.0,64,215.0
7075,G4,846.383,933/1000,89,215.0
7076,E4,846.383,933/1000,89,215.0
7077,E4,846.383,933/1000,89,215.0
7078,G4,846.383,933/1000,89,215.0
7079,E3,846.383,0.375,75,215.0
7080,G3,846.383,0.375,75,215.0
7081,C#4,846.467,0.375,75,215.0
7082,E4,846.467,0.375,75,215.0
7083,B1,846.883,0.0,96,215.0
7084,A4,846.883,0.0,96,215.0
7085,E4,846.883,0.0,96,215.0
7086,F#2,846.883,0.0,96,215.0
7087,A1,846.883,229/500,120,215.0
7088,B-2,847.383,0.0,92,215.0
7089,A4,847.383,0.0,92,215.0
7090,B1,847.383,0.0,92,215.0
7091,A3,847.383,1979/500,75,215.0
7092,D2,847.383,1417/1000,120,215.0
7093,G4,847.383,3.75,89,215.0
7094,C4,847.383,3.75,89,215.0
7095,F4,847.383,3.75,89,215.0
7096,D4,847.383,3.75,89,215.0
7097,A3,847.383,3.75,89,215.0
7098,C4,847.383,3.75,89,215.0
7099,A3,847.383,3.75,89,215.0
7100,G4,847.383,3.75,89,215.0
7101,D4,847.383,3.75,89,215.0
7102,F4,847.383,3.75,89,215.0
7103,C4,847.467,3917/1000,75,215.0
7104,G4,847.55,3833/1000,75,215.0
7105,A4,847.883,0.0,78,215.0
7106,F#2,848.383,0.0,64,215.0
7107,B1,848.883,0.0,92,215.0
7108,E2,848.883,0.0,92,215.0
7109,F#2,848.883,0.0,92,215.0
7110,A4,848.883,0.0,92,215.0
7111,D2,848.883,229/500,120,215.0
7112,A4,849.383,0.0,99,215.0
7113,E4,849.383,0.0,99,215.0
7114,B1,849.383,0.0,99,215.0
7115,B-2,849.383,0.0,99,215.0
7116,D2,849.383,1417/1000,120,215.0
7117,A4,849.883,0.0,78,215.0
7118,F#2,850.383,0.0,92,215.0
7119,E4,850.383,0.0,92,215.0
7120,B1,850.883,0.0,87,215.0
7121,A4,850.883,0.0,87,215.0
7122,F#2,850.883,0.0,87,215.0
7123,D2,850.883,229/500,120,215.0
7124,B3,851.133,0.25,89,215.0
7125,D4,851.133,0.25,89,215.0
7126,D4,851.133,0.25,89,215.0
7127,B3,851.133,0.25,89,215.0
7128,A3,851.133,0.25,89,215.0
7129,A3,851.133,0.25,89,215.0
7130,B-2,855.383,0.0,99,215.0
7131,E4,855.383,0.0,99,215.0
7132,B1,855.383,0.0,99,215.0
7133,A4,855.383,0.0,99,215.0
7134,B1,855.383,1417/1000,120,215.0
7135,C4,855.383,21/500,75,215.0
7136,G4,855.383,0.125,75,215.0
7137,B3,855.383,4.0,89,215.0
7138,D4,855.383,4.0,89,215.0
7139,D4,855.383,4.0,89,215.0
7140,B3,855.383,4.0,89,215.0
7141,A3,855.383,1917/1000,89,215.0
7142,A3,855.383,1917/1000,89,215.0
7143,A4,855.883,0.0,78,215.0
7144,B2,855.883,229/500,75,215.0
7145,F3,855.883,229/500,75,215.0
7146,A3,855.967,229/500,75,215.0
7147,D4,855.967,229/500,75,215.0
7148,F#2,856.383,0.0,64,215.0
7149,B1,856.883,0.0,96,215.0
7150,E4,856.883,0.0,96,215.0
7151,A4,856.883,0.0,96,215.0
7152,F#2,856.883,0.0,96,215.0
7153,B1,856.883,229/500,120,215.0
7154,E4,857.383,0.0,99,215.0
7155,A4,857.383,0.0,99,215.0
7156,B1,857.383,0.0,99,215.0
7157,B-2,857.383,0.0,99,215.0
7158,E2,857.383,1417/1000,120,215.0
7159,G#3,857.383,1917/1000,89,215.0
7160,G#3,857.383,1917/1000,89,215.0
7161,E3,857.383,833/1000,75,215.0
7162,G#3,857.383,833/1000,75,215.0
7163,D4,857.467,833/1000,75,215.0
7164,E4,857.883,0.0,99,215.0
7165,A4,857.883,0.0,99,215.0
7166,F#2,858.383,0.0,64,215.0
7167,E3,858.383,417/1000,75,215.0
7168,G#3,858.383,417/1000,75,215.0
7169,D4,858.467,417/1000,75,215.0
7170,E4,858.883,0.0,96,215.0
7171,A4,858.883,0.0,96,215.0
7172,F#2,858.883,0.0,96,215.0
7173,B1,858.883,0.0,96,215.0
7174,E2,858.883,333/1000,120,215.0
7175,B1,859.383,0.0,92,215.0
7176,A4,859.383,0.0,92,215.0
7177,B-2,859.383,0.0,92,215.0
7178,E1,859.383,1417/1000,120,215.0
7179,A4,859.883,0.0,78,215.0
7180,F#2,860.383,0.0,64,215.0
7181,G4,860.383,0.375,86,215.0
7182,E4,860.383,0.375,86,215.0
7183,E3,860.383,0.375,86,215.0
7184,E4,860.383,0.375,86,215.0
7185,G4,860.383,0.375,86,215.0
7186,B-3,860.425,417/1000,75,215.0
7187,D4,860.425,417/1000,75,215.0
7188,G4,860.508,417/1000,75,215.0
7189,F#2,860.883,0.0,92,215.0
7190,A4,860.883,0.0,92,215.0
7191,B1,860.883,0.0,92,215.0
7192,E2,860.883,0.0,92,215.0
7193,G4,860.883,0.375,84,215.0
7194,E4,860.883,0.375,84,215.0
7195,E3,860.883,0.375,84,215.0
7196,E4,860.883,0.375,84,215.0
7197,G4,860.883,0.375,84,215.0
7198,B-3,860.883,0.375,84,215.0
7199,E1,860.883,0.375,98,215.0
7200,B-3,860.883,0.375,98,215.0
7201,D4,860.967,0.375,75,215.0
7202,G4,860.967,0.375,75,215.0
7203,B-2,861.383,0.0,99,215.0
7204,A4,861.383,0.0,99,215.0
7205,E4,861.383,0.0,99,215.0
7206,B1,861.383,0.0,99,215.0
7207,B-1,861.383,933/1000,120,215.0
7208,G4,861.383,0.375,89,215.0
7209,E4,861.383,0.375,89,215.0
7210,E4,861.383,0.375,89,215.0
7211,G4,861.383,0.375,89,215.0
7212,E3,861.383,1667/1000,75,215.0
7213,B-3,861.383,1667/1000,75,215.0
7214,D4,861.467,1667/1000,75,215.0
7215,G4,861.467,1667/1000,75,215.0
7216,A4,861.883,0.0,78,215.0
7217,A4,861.883,0.375,89,215.0
7218,F4,861.883,0.375,89,215.0
7219,A4,861.883,0.375,89,215.0
7220,F4,861.883,0.375,89,215.0
7221,F#2,862.383,0.0,92,215.0
7222,E4,862.383,0.0,92,215.0
7223,B-1,862.383,933/1000,120,215.0
7224,F#2,862.883,0.0,87,215.0
7225,B1,862.883,0.0,87,215.0
7226,A4,862.883,0.0,87,215.0
7227,B-4,862.883,0.375,89,215.0
7228,G4,862.883,0.375,89,215.0
7229,G4,862.883,0.375,89,215.0
7230,B-4,862.883,0.375,89,215.0
7231,A4,863.383,0.0,99,215.0
7232,B1,863.383,0.0,99,215.0
7233,B-2,863.383,0.0,99,215.0
7234,E4,863.383,0.0,99,215.0
7235,A1,863.383,1417/1000,120,215.0
7236,E3,863.383,833/1000,75,215.0
7237,G3,863.383,833/1000,75,215.0
7238,C#4,863.467,833/1000,75,215.0
7239,E4,863.467,833/1000,75,215.0
7240,A4,863.883,0.0,78,215.0
7241,B-4,863.883,0.375,89,215.0
7242,G4,863.883,0.375,89,215.0
7243,B-4,863.883,0.375,89,215.0
7244,G4,863.883,0.375,89,215.0
7245,F#2,864.383,0.0,64,215.0
7246,E4,864.883,0.0,96,215.0
7247,A4,864.883,0.0,96,215.0
7248,B1,864.883,0.0,96,215.0
7249,F#2,864.883,0.0,96,215.0
7250,B-4,864.883,0.375,84,215.0
7251,G4,864.883,0.375,84,215.0
7252,E3,864.883,0.375,84,215.0
7253,G4,864.883,0.375,84,215.0
7254,B-4,864.883,0.375,84,215.0
7255,G3,864.883,0.375,84,215.0
7256,A1,864.883,0.375,98,215.0
7257,G3,864.883,0.375,98,215.0
7258,C#4,864.967,0.375,75,215.0
7259,E4,864.967,0.375,75,215.0
7260,B1,865.383,0.0,99,215.0
7261,A4,865.383,0.0,99,215.0
7262,E4,865.383,0.0,99,215.0
7263,B-2,865.383,0.0,99,215.0
7264,F4,865.383,833/1000,92,215.0
7265,A4,865.383,833/1000,92,215.0
7266,F4,865.383,833/1000,92,215.0
7267,A4,865.383,833/1000,92,215.0
7268,G1,865.383,833/1000,92,215.0
7269,G3,865.383,833/1000,92,215.0
7270,E3,865.383,833/1000,75,215.0
7271,G3,865.383,833/1000,75,215.0
7272,C#4,865.467,833/1000,75,215.0
7273,E4,865.467,833/1000,75,215.0
7274,A4,865.883,0.0,99,215.0
7275,E4,865.883,0.0,99,215.0
7276,F#2,866.383,0.0,64,215.0
7277,G4,866.383,933/1000,95,215.0
7278,E4,866.383,933/1000,95,215.0
7279,E4,866.383,933/1000,95,215.0
7280,G4,866.383,933/1000,95,215.0
7281,G1,866.383,933/1000,95,215.0
7282,E3,866.383,0.375,75,215.0
7283,G3,866.383,0.375,75,215.0
7284,C#4,866.467,0.375,75,215.0
7285,E4,866.467,0.375,75,215.0
7286,A4,866.883,0.0,96,215.0
7287,F#2,866.883,0.0,96,215.0
7288,E4,866.883,0.0,96,215.0
7289,B1,866.883,0.0,96,215.0
7290,B-2,867.383,0.0,92,215.0
7291,A4,867.383,0.0,92,215.0
7292,B1,867.383,0.0,92,215.0
7293,F1,867.383,1417/1000,120,215.0
7294,F3,867.383,4.0,77,215.0
7295,A3,867.383,4.0,77,215.0
7296,E4,867.383,4.0,77,215.0
7297,A3,867.467,3917/1000,75,215.0
7298,C4,867.55,3833/1000,75,215.0
7299,E4,867.633,3.75,75,215.0
7300,A4,867.883,0.0,78,215.0
7301,F#2,868.383,0.0,64,215.0
7302,E2,868.883,0.0,92,215.0
7303,F#2,868.883,0.0,92,215.0
7304,B1,868.883,0.0,92,215.0
7305,A4,868.883,0.0,92,215.0
7306,F1,868.883,229/500,120,215.0
7307,E4,869.383,0.0,99,215.0
7308,A4,869.383,0.0,99,215.0
7309,B-2,869.383,0.0,99,215.0
7310,B1,869.383,0.0,99,215.0
7311,F1,869.383,1417/1000,120,215.0
7312,A4,869.883,0.0,78,215.0
7313,E4,870.383,0.0,92,215.0
7314,F#2,870.383,0.0,92,215.0
7315,A4,870.883,0.0,87,215.0
7316,B1,870.883,0.0,87,215.0
7317,F#2,870.883,0.0,87,215.0
7318,F1,870.883,229/500,120,215.0
7319,E4,871.383,0.0,99,215.0
7320,A4,871.383,0.0,99,215.0
7321,B1,871.383,0.0,99,215.0
7322,B-2,871.383,0.0,99,215.0
7323,B1,871.383,1417/1000,120,215.0
7324,A3,871.383,21/500,75,215.0
7325,C4,871.383,0.125,75,215.0
7326,E4,871.383,26/125,75,215.0
7327,B2,871.383,4.0,77,215.0
7328,A3,871.383,4.0,77,215.0
7329,E-4,871.383,4.0,77,215.0
7330,A3,871.467,3917/1000,75,215.0
7331,E-4,871.55,3833/1000,75,215.0
7332,G4,871.633,3.75,75,215.0
7333,A4,871.883,0.0,78,215.0
7334,F#2,872.383,0.0,64,215.0
7335,A4,872.883,0.0,96,215.0
7336,E4,872.883,0.0,96,215.0
7337,B1,872.883,0.0,96,215.0
7338,F#2,872.883,0.0,96,215.0
7339,B1,872.883,229/500,120,215.0
7340,A4,873.383,0.0,99,215.0
7341,E4,873.383,0.0,99,215.0
7342,B-2,873.383,0.0,99,215.0
7343,B1,873.383,0.0,99,215.0
7344,B1,873.383,1417/1000,120,215.0
7345,A4,873.883,0.0,99,215.0
7346,E4,873.883,0.0,99,215.0
7347,F#2,874.383,0.0,64,215.0
7348,F#2,874.883,0.0,96,215.0
7349,E4,874.883,0.0,96,215.0
7350,B1,874.883,0.0,96,215.0
7351,A4,874.883,0.0,96,215.0
7352,F#2,874.883,229/500,120,215.0
7353,B1,875.383,0.0,92,215.0
7354,B-2,875.383,0.0,92,215.0
7355,A4,875.383,0.0,92,215.0
7356,B-1,875.383,1417/1000,120,215.0
7357,A3,875.383,21/500,75,215.0
7358,E-4,875.383,0.125,75,215.0
7359,G4,875.383,26/125,75,215.0
7360,B-2,875.383,4.0,77,215.0
7361,A3,875.383,4.0,77,215.0
7362,D4,875.383,4.0,77,215.0
7363,A3,875.467,3917/1000,75,215.0
7364,D4,875.55,3833/1000,75,215.0
7365,G4,875.633,3.75,75,215.0
7366,A4,875.883,0.0,78,215.0
7367,F#2,876.383,0.0,64,215.0
7368,B1,876.883,0.0,92,215.0
7369,E2,876.883,0.0,92,215.0
7370,A4,876.883,0.0,92,215.0
7371,F#2,876.883,0.0,92,215.0
7372,B-1,876.883,229/500,120,215.0
7373,E4,877.383,0.0,99,215.0
7374,B-2,877.383,0.0,99,215.0
7375,B1,877.383,0.0,99,215.0
7376,A4,877.383,0.0,99,215.0
7377,B-1,877.383,229/500,120,215.0
7378,A4,877.883,0.0,78,215.0
7379,F2,877.883,933/1000,120,215.0
7380,E4,878.383,0.0,92,215.0
7381,F#2,878.383,0.0,92,215.0
7382,F#2,878.883,0.0,87,215.0
7383,B1,878.883,0.0,87,215.0
7384,A4,878.883,0.0,87,215.0
7385,B-1,878.883,229/500,120,215.0
7386,A4,879.383,0.0,99,215.0
7387,E4,879.383,0.0,99,215.0
7388,B1,879.383,0.0,99,215.0
7389,B-2,879.383,0.0,99,215.0
7390,A2,879.383,3.25,75,215.0
7391,A1,879.383,933/1000,120,215.0
7392,A3,879.383,21/500,75,215.0
7393,D4,879.383,0.125,75,215.0
7394,G4,879.383,26/125,75,215.0
7395,G3,879.383,4.0,78,215.0
7396,C#4,879.383,4.0,78,215.0
7397,G3,879.467,3.25,75,215.0
7398,C#4,879.55,3.25,75,215.0
7399,G4,879.633,3.25,75,215.0
7400,A4,879.883,0.0,78,215.0
7401,F#2,880.383,0.0,64,215.0
7402,A2,880.383,229/500,120,215.0
7403,E4,880.883,0.0,96,215.0
7404,A4,880.883,0.0,96,215.0
7405,F#2,880.883,0.0,96,215.0
7406,B1,880.883,0.0,96,215.0
7407,E2,880.883,479/500,120,215.0
7408,B1,881.383,0.0,99,215.0
7409,B-2,881.383,0.0,99,215.0
7410,A4,881.383,0.0,99,215.0
7411,E4,881.383,0.0,99,215.0
7412,E4,881.883,0.0,99,215.0
7413,A4,881.883,0.0,99,215.0
7414,C#2,881.883,933/1000,120,215.0
7415,F#2,882.383,0.0,64,215.0
7416,B1,882.883,0.0,96,215.0
7417,A4,882.883,0.0,96,215.0
7418,F#2,882.883,0.0,96,215.0
7419,E4,882.883,0.0,96,215.0
7420,D3,882.883,0.5,75,215.0
7421,A1,882.883,229/500,120,215.0
7422,A3,882.967,417/1000,75,215.0
7423,C4,883.05,333/1000,75,215.0
7424,G4,883.133,0.25,75,215.0
7425,A4,883.383,0.0,92,215.0
7426,B-2,883.383,0.0,92,215.0
7427,B1,883.383,0.0,92,215.0
7428,D2,883.383,933/1000,120,215.0
7429,D3,883.383,3.25,75,215.0
7430,A3,883.383,3.25,75,215.0
7431,C4,883.383,3.25,75,215.0
7432,G4,883.383,3.25,75,215.0
7433,C4,883.383,4.0,78,215.0
7434,F3,883.383,4.0,78,215.0
7435,A4,883.883,0.0,78,215.0
7436,F#2,884.383,0.0,64,215.0
7437,E2,884.883,0.0,92,215.0
7438,B1,884.883,0.0,92,215.0
7439,F#2,884.883,0.0,92,215.0
7440,A4,884.883,0.0,92,215.0
7441,D2,884.883,229/500,120,215.0
7442,E4,885.383,0.0,99,215.0
7443,B-2,885.383,0.0,99,215.0
7444,B1,885.383,0.0,99,215.0
7445,A4,885.383,0.0,99,215.0
7446,D2,885.383,933/1000,120,215.0
7447,A4,885.883,0.0,78,215.0
7448,F#2,886.383,0.0,92,215.0
7449,E4,886.383,0.0,92,215.0
7450,D2,886.383,933/1000,120,215.0
7451,G2,886.633,0.75,75,215.0
7452,F3,886.717,667/1000,75,215.0
7453,A3,886.8,583/1000,75,215.0
7454,B1,886.883,0.0,87,215.0
7455,A4,886.883,0.0,87,215.0
7456,F#2,886.883,0.0,87,215.0
7457,C4,886.883,0.5,75,215.0
7458,E4,887.383,0.0,99,215.0
7459,B1,887.383,0.0,99,215.0
7460,A4,887.383,0.0,99,215.0
7461,B-2,887.383,0.0,99,215.0
7462,G1,887.383,933/1000,120,215.0
7463,G2,887.383,3.75,75,215.0
7464,F3,887.383,3.75,75,215.0
7465,A3,887.383,3.75,75,215.0
7466,C4,887.383,3.75,75,215.0
7467,C4,887.383,4.0,78,215.0
7468,A3,887.383,4.0,78,215.0
7469,F3,887.383,4.0,78,215.0
7470,A4,887.883,0.0,78,215.0
7471,F#2,888.383,0.0,64,215.0
7472,A4,888.883,0.0,96,215.0
7473,B1,888.883,0.0,96,215.0
7474,F#2,888.883,0.0,96,215.0
7475,E4,888.883,0.0,96,215.0
7476,G1,888.883,229/500,120,215.0
7477,B1,889.383,0.0,99,215.0
7478,B-2,889.383,0.0,99,215.0
7479,A4,889.383,0.0,99,215.0
7480,E4,889.383,0.0,99,215.0
7481,G1,889.383,933/1000,120,215.0
7482,E4,889.883,0.0,99,215.0
7483,A4,889.883,0.0,99,215.0
7484,F#2,890.383,0.0,64,215.0
7485,E1,890.383,933/1000,120,215.0
7486,A4,890.883,0.0,96,215.0
7487,F#2,890.883,0.0,96,215.0
7488,B1,890.883,0.0,96,215.0
7489,E4,890.883,0.0,96,215.0
7490,A3,891.133,0.25,75,215.0
7491,C4,891.217,167/1000,75,215.0
7492,E4,891.3,83/1000,75,215.0
7493,B1,891.383,0.0,92,215.0
7494,B-2,891.383,0.0,92,215.0
7495,A4,891.383,0.0,92,215.0
7496,A3,891.383,927/250,75,215.0
7497,C4,891.383,474/125,75,215.0
7498,E4,891.383,3.875,75,215.0
7499,B3,891.383,1979/500,83,215.0
7500,E4,891.383,1979/500,83,215.0
7501,G3,891.383,1979/500,83,215.0
7502,C4,891.383,1979/500,83,215.0
7503,B3,891.383,1979/500,83,215.0
7504,G3,891.383,1979/500,83,215.0
7505,E4,891.383,1979/500,83,215.0
7506,C4,891.383,1979/500,83,215.0
7507,A1,891.383,1979/500,83,215.0
7508,A4,891.883,0.0,78,215.0
7509,F#2,892.383,0.0,64,215.0
7510,F#2,892.883,0.0,92,215.0
7511,B1,892.883,0.0,92,215.0
7512,E2,892.883,0.0,92,215.0
7513,A4,892.883,0.0,92,215.0
7514,A4,893.383,0.0,99,215.0
7515,E4,893.383,0.0,99,215.0
7516,B-2,893.383,0.0,99,215.0
7517,B1,893.383,0.0,99,215.0
7518,A4,893.883,0.0,78,215.0
7519,F#2,894.383,0.0,92,215.0
7520,E4,894.383,0.0,92,215.0
7521,F#2,894.883,0.0,87,215.0
7522,A4,894.883,0.0,87,215.0
7523,B1,894.883,0.0,87,215.0
7524,A3,895.133,0.25,75,215.0
7525,D4,895.217,167/1000,75,215.0
7526,F#4,895.3,83/1000,75,215.0
7527,B-2,895.383,0.0,99,215.0
7528,B1,895.383,0.0,99,215.0
7529,A4,895.383,0.0,99,215.0
7530,E4,895.383,0.0,99,215.0
7531,A3,895.383,927/250,75,215.0
7532,D4,895.383,474/125,75,215.0
7533,F#4,895.383,3.875,75,215.0
7534,F#4,895.383,1979/500,83,215.0
7535,D4,895.383,1979/500,83,215.0
7536,B3,895.383,1979/500,83,215.0
7537,A3,895.383,1979/500,83,215.0
7538,A3,895.383,1979/500,83,215.0
7539,D4,895.383,1979/500,83,215.0
7540,F#4,895.383,1979/500,83,215.0
7541,B3,895.383,1979/500,83,215.0
7542,G1,895.383,1979/500,83,215.0
7543,A4,895.883,0.0,78,215.0
7544,F#2,896.383,0.0,64,215.0
7545,E4,896.883,0.0,96,215.0
7546,B1,896.883,0.0,96,215.0
7547,F#2,896.883,0.0,96,215.0
7548,A4,896.883,0.0,96,215.0
7549,B1,897.383,0.0,99,215.0
7550,E4,897.383,0.0,99,215.0
7551,B-2,897.383,0.0,99,215.0
7552,A4,897.383,0.0,99,215.0
7553,E4,897.883,0.0,99,215.0
7554,A4,897.883,0.0,99,215.0
7555,F#2,898.383,0.0,64,215.0
7556,E4,898.883,0.0,96,215.0
7557,B1,898.883,0.0,96,215.0
7558,F#2,898.883,0.0,96,215.0
7559,A4,898.883,0.0,96,215.0
7560,F3,899.133,0.25,75,215.0
7561,A3,899.217,167/1000,75,215.0
7562,C4,899.3,83/1000,75,215.0
7563,B-2,899.383,0.0,92,215.0
7564,B1,899.383,0.0,92,215.0
7565,A4,899.383,0.0,92,215.0
7566,F3,899.383,927/250,75,215.0
7567,A3,899.383,474/125,75,215.0
7568,C4,899.383,3.875,75,215.0
7569,C4,899.383,1979/500,81,215.0
7570,A3,899.383,1979/500,81,215.0
7571,D4,899.383,1979/500,81,215.0
7572,E4,899.383,1979/500,81,215.0
7573,G4,899.383,1979/500,81,215.0
7574,G4,899.383,1979/500,81,215.0
7575,G4,899.383,1979/500,81,215.0
7576,E4,899.383,1979/500,81,215.0
7577,A3,899.383,1979/500,81,215.0
7578,C4,899.383,1979/500,81,215.0
7579,D4,899.383,1979/500,81,215.0
7580,F1,899.383,1979/500,81,215.0
7581,A4,899.883,0.0,78,215.0
7582,F#2,900.383,0.0,64,215.0
7583,F#2,900.883,0.0,92,215.0
7584,A4,900.883,0.0,92,215.0
7585,B1,900.883,0.0,92,215.0
7586,E2,900.883,0.0,92,215.0
7587,A4,901.383,0.0,99,215.0
7588,B-2,901.383,0.0,99,215.0
7589,B1,901.383,0.0,99,215.0
7590,E4,901.383,0.0,99,215.0
7591,A4,901.883,0.0,78,215.0
7592,F#2,902.383,0.0,92,215.0
7593,E4,902.383,0.0,92,215.0
7594,B1,902.883,0.0,87,215.0
7595,A4,902.883,0.0,87,215.0
7596,F#2,902.883,0.0,87,215.0
7597,E3,903.133,0.25,75,215.0
7598,B-3,903.217,167/1000,75,215.0
7599,D4,903.3,83/1000,75,215.0
7600,B1,903.383,0.0,99,215.0
7601,B-2,903.383,0.0,99,215.0
7602,A4,903.383,0.0,99,215.0
7603,E4,903.383,0.0,99,215.0
7604,E3,903.383,927/250,75,215.0
7605,B-3,903.383,474/125,75,215.0
7606,D4,903.383,3.875,75,215.0
7607,D4,903.383,1979/500,82,215.0
7608,B-3,903.383,1979/500,82,215.0
7609,E4,903.383,1979/500,82,215.0
7610,A4,903.383,1979/500,82,215.0
7611,A4,903.383,1979/500,82,215.0
7612,E4,903.383,1979/500,82,215.0
7613,B-3,903.383,1979/500,82,215.0
7614,A4,903.383,1979/500,82,215.0
7615,D4,903.383,1979/500,82,215.0
7616,C2,903.383,1979/500,82,215.0
7617,A4,903.883,0.0,78,215.0
7618,F#2,904.383,0.0,64,215.0
7619,A4,904.883,0.0,96,215.0
7620,E4,904.883,0.0,96,215.0
7621,F#2,904.883,0.0,96,215.0
7622,B1,904.883,0.0,96,215.0
7623,E4,905.383,0.0,99,215.0
7624,A4,905.383,0.0,99,215.0
7625,B-2,905.383,0.0,99,215.0
7626,B1,905.383,0.0,99,215.0
7627,E4,905.883,0.0,99,215.0
7628,A4,905.883,0.0,99,215.0
7629,F#2,906.383,0.0,64,215.0
7630,E4,906.883,0.0,96,215.0
7631,A4,906.883,0.0,96,215.0
7632,B1,906.883,0.0,96,215.0
7633,F#2,906.883,0.0,96,215.0
7634,F3,907.133,0.25,75,215.0
7635,A3,907.217,167/1000,75,215.0
7636,C4,907.3,83/1000,75,215.0
7637,A4,907.383,0.0,92,215.0
7638,B-2,907.383,0.0,92,215.0
7639,B1,907.383,0.0,92,215.0
7640,F3,907.383,927/250,75,215.0
7641,A3,907.383,474/125,75,215.0
7642,C4,907.383,3.875,75,215.0
7643,A3,907.383,1979/500,82,215.0
7644,G4,907.383,1979/500,82,215.0
7645,C4,907.383,1979/500,82,215.0
7646,D4,907.383,1979/500,82,215.0
7647,G4,907.383,1979/500,82,215.0
7648,D4,907.383,1979/500,82,215.0
7649,A3,907.383,1979/500,82,215.0
7650,G4,907.383,1979/500,82,215.0
7651,C4,907.383,1979/500,82,215.0
7652,F1,907.383,1979/500,82,215.0
7653,A4,907.883,0.0,78,215.0
7654,F#2,908.383,0.0,64,215.0
7655,A4,908.883,0.0,92,215.0
7656,F#2,908.883,0.0,92,215.0
7657,B1,908.883,0.0,92,215.0
7658,E2,908.883,0.0,92,215.0
7659,B1,909.383,0.0,99,215.0
7660,E4,909.383,0.0,99,215.0
7661,B-2,909.383,0.0,99,215.0
7662,A4,909.383,0.0,99,215.0
7663,A4,909.883,0.0,78,215.0
7664,E4,910.383,0.0,92,215.0
7665,F#2,910.383,0.0,92,215.0
7666,A4,910.883,0.0,87,215.0
7667,F#2,910.883,0.0,87,215.0
7668,B1,910.883,0.0,87,215.0
7669,F3,911.133,0.25,75,215.0
7670,G#3,911.217,167/1000,75,215.0
7671,D4,911.3,83/1000,75,215.0
7672,C#3,911.383,0.0,99,215.0
7673,A4,911.383,0.0,99,215.0
7674,B1,911.383,0.0,99,215.0
7675,E4,911.383,0.0,99,215.0
7676,F1,911.383,1729/500,120,215.0
7677,F3,911.383,927/250,75,215.0
7678,G#3,911.383,474/125,75,215.0
7679,D4,911.383,3.875,75,215.0
7680,D4,911.383,4.0,78,215.0
7681,C4,911.383,4.0,78,215.0
7682,E4,911.383,4.0,78,215.0
7683,G#3,911.383,4.0,78,215.0
7684,E4,911.383,4.0,78,215.0
7685,D4,911.383,4.0,78,215.0
7686,E4,911.383,4.0,78,215.0
7687,G#3,911.383,4.0,78,215.0
7688,C4,911.383,4.0,78,215.0
7689,A4,911.883,0.0,78,215.0
7690,A4,912.883,0.0,96,215.0
7691,E4,912.883,0.0,96,215.0
7692,B1,912.883,0.0,96,215.0
7693,C#3,912.883,0.0,96,215.0
7694,A4,913.383,0.0,99,215.0
7695,E4,913.383,0.0,99,215.0
7696,B1,913.383,0.0,99,215.0
7697,C#3,913.383,0.0,99,215.0
7698,E4,913.883,0.0,99,215.0
7699,A4,913.883,0.0,99,215.0
7700,C#3,914.383,0.0,64,215.0
7701,A4,914.883,0.0,96,215.0
7702,B1,914.883,0.0,96,215.0
7703,F#2,914.883,0.0,96,215.0
7704,E4,914.883,0.0,96,215.0
7705,F2,914.883,229/500,120,215.0
7706,A4,915.383,0.0,101,215.0
7707,C#3,915.383,0.0,101,215.0
7708,B1,915.383,0.0,101,215.0
7709,C2,915.383,229/500,120,215.0
7710,A4,915.883,0.0,78,215.0
7711,F#2,916.383,0.0,64,215.0
7712,E2,916.883,0.0,92,215.0
7713,B1,916.883,0.0,92,215.0
7714,F#2,916.883,0.0,92,215.0
7715,A4,916.883,0.0,92,215.0
7716,B1,917.383,0.0,99,215.0
7717,B-2,917.383,0.0,99,215.0
7718,A4,917.383,0.0,99,215.0
7719,E4,917.383,0.0,99,215.0
7720,G3,917.383,1/10,100,215.0
7721,E2,917.383,229/500,120,215.0
7722,G3,917.508,1/10,80,215.0
7723,G3,917.633,1/10,90,215.0
7724,G3,917.758,1/10,80,215.0
7725,A4,917.883,0.0,78,215.0
7726,G3,917.883,1/10,90,215.0
7727,G3,918.008,1/10,110,215.0
7728,G3,918.133,1/10,80,215.0
7729,G3,918.258,1/10,70,215.0
7730,E4,918.383,0.0,92,215.0
7731,F#2,918.383,0.0,92,215.0
7732,G3,918.383,1/10,90,215.0
7733,G3,918.508,1/10,100,215.0
7734,G3,918.633,1/10,80,215.0
7735,G3,918.758,1/10,90,215.0
7736,A4,918.883,0.0,87,215.0
7737,F#2,918.883,0.0,87,215.0
7738,B1,918.883,0.0,87,215.0
7739,G3,918.883,1/10,80,215.0
7740,G3,919.008,1/10,80,215.0
7741,G3,919.133,1/10,90,215.0
7742,G3,919.258,1/10,100,215.0
7743,B-2,919.383,0.0,99,215.0
7744,A4,919.383,0.0,99,215.0
7745,B1,919.383,0.0,99,215.0
7746,E4,919.383,0.0,99,215.0
7747,G3,919.383,1/10,100,215.0
7748,F2,919.383,229/500,120,215.0
7749,G3,919.508,1/10,80,215.0
7750,G3,919.633,1/10,90,215.0
7751,G3,919.758,1/10,80,215.0
7752,A4,919.883,0.0,78,215.0
7753,G3,919.883,1/10,90,215.0
7754,G3,920.008,1/10,110,215.0
7755,G3,920.133,1/10,80,215.0
7756,G3,920.258,1/10,70,215.0
7757,F#2,920.383,0.0,64,215.0
7758,G3,920.383,1/10,90,215.0
7759,G3,920.508,1/10,100,215.0
7760,G3,920.633,1/10,80,215.0
7761,E3,920.633,1917/1000,75,215.0
7762,A3,920.717,1917/1000,75,215.0
7763,G3,920.758,1/10,90,215.0
7764,C4,920.8,1917/1000,75,215.0
7765,F#2,920.883,0.0,96,215.0
7766,B1,920.883,0.0,96,215.0
7767,E4,920.883,0.0,96,215.0
7768,A4,920.883,0.0,96,215.0
7769,G3,920.883,1/10,80,215.0
7770,A3,920.883,1433/1000,88,215.0
7771,E3,920.883,1433/1000,88,215.0
7772,C4,920.883,1433/1000,88,215.0
7773,A2,920.883,1433/1000,88,215.0
7774,G3,921.008,1/10,80,215.0
7775,G3,921.133,1/10,90,215.0
7776,G3,921.258,1/10,100,215.0
7777,B1,921.383,0.0,99,215.0
7778,A4,921.383,0.0,99,215.0
7779,E4,921.383,0.0,99,215.0
7780,B-2,921.383,0.0,99,215.0
7781,G3,921.383,1/10,100,215.0
7782,G3,921.508,1/10,80,215.0
7783,G3,921.633,1/10,90,215.0
7784,G3,921.758,1/10,80,215.0
7785,A4,921.883,0.0,99,215.0
7786,E4,921.883,0.0,99,215.0
7787,G3,921.883,1/10,90,215.0
7788,G3,922.008,1/10,110,215.0
7789,G3,922.133,1/10,80,215.0
7790,G3,922.258,1/10,70,215.0
7791,F#2,922.383,0.0,64,215.0
7792,G3,922.383,1/10,90,215.0
7793,D3,922.383,933/1000,88,215.0
7794,B3,922.383,933/1000,88,215.0
7795,G3,922.383,933/1000,88,215.0
7796,G2,922.383,933/1000,88,215.0
7797,G3,922.508,1/10,100,215.0
7798,G3,922.633,1/10,80,215.0
7799,G3,922.758,1/10,90,215.0
7800,B1,922.883,0.0,96,215.0
7801,A4,922.883,0.0,96,215.0
7802,E4,922.883,0.0,96,215.0
7803,F#2,922.883,0.0,96,215.0
7804,G3,922.883,1/10,80,215.0
7805,G3,923.008,1/10,80,215.0
7806,G3,923.133,1/10,90,215.0
7807,G3,923.258,1/10,100,215.0
7808,B1,923.383,0.0,92,215.0
7809,B-2,923.383,0.0,92,215.0
7810,A4,923.383,0.0,92,215.0
7811,G3,923.383,1/10,100,215.0
7812,E2,923.383,229/500,120,215.0
7813,G3,923.508,1/10,80,215.0
7814,G3,923.633,1/10,90,215.0
7815,G3,923.758,1/10,80,215.0
7816,A4,923.883,0.0,78,215.0
7817,G3,923.883,1/10,90,215.0
7818,G3,924.008,1/10,110,215.0
7819,G3,924.133,1/10,80,215.0
7820,G3,924.258,1/10,70,215.0
7821,F#2,924.383,0.0,64,215.0
7822,G3,924.383,1/10,90,215.0
7823,G3,924.508,1/10,100,215.0
7824,G3,924.633,1/10,80,215.0
7825,G3,924.758,1/10,90,215.0
7826,F#2,924.883,0.0,92,215.0
7827,A4,924.883,0.0,92,215.0
7828,B1,924.883,0.0,92,215.0
7829,E2,924.883,0.0,92,215.0
7830,G3,924.883,1/10,80,215.0
7831,G3,925.008,1/10,80,215.0
7832,G3,925.133,1/10,90,215.0
7833,G3,925.258,1/10,100,215.0
7834,E4,925.383,0.0,99,215.0
7835,B-2,925.383,0.0,99,215.0
7836,B1,925.383,0.0,99,215.0
7837,A4,925.383,0.0,99,215.0
7838,G3,925.383,933/1000,100,215.0
7839,F2,925.383,229/500,120,215.0
7840,A4,925.883,0.0,78,215.0
7841,A3,926.05,933/1000,100,215.0
7842,F#2,926.383,0.0,92,215.0
7843,E4,926.383,0.0,92,215.0
7844,B3,926.717,667/1000,100,215.0
7845,F#2,926.883,0.0,87,215.0
7846,B1,926.883,0.0,87,215.0
7847,A4,926.883,0.0,87,215.0
7848,G2,926.883,0.5,120,215.0
7849,E4,927.383,0.0,99,215.0
7850,A4,927.383,0.0,99,215.0
7851,B1,927.383,0.0,99,215.0
7852,B-2,927.383,0.0,99,215.0
7853,C4,927.383,933/1000,100,215.0
7854,B3,927.383,267/1000,100,215.0
7855,A4,927.883,0.0,78,215.0
7856,B3,928.05,933/1000,100,215.0
7857,F#2,928.383,0.0,64,215.0
7858,A3,928.633,1917/1000,75,215.0
7859,C4,928.717,1917/1000,75,215.0
7860,E4,928.8,1917/1000,75,215.0
7861,E4,928.883,0.0,96,215.0
7862,A4,928.883,0.0,96,215.0
7863,F#2,928.883,0.0,96,215.0
7864,B1,928.883,0.0,96,215.0
7865,E3,928.883,1433/1000,88,215.0
7866,C3,928.883,1433/1000,88,215.0
7867,G3,928.883,1433/1000,88,215.0
7868,A2,928.883,1433/1000,88,215.0
7869,B1,929.383,0.0,99,215.0
7870,A4,929.383,0.0,99,215.0
7871,E4,929.383,0.0,99,215.0
7872,B-2,929.383,0.0,99,215.0
7873,B3,929.383,229/500,100,215.0
7874,E4,929.883,0.0,99,215.0
7875,A4,929.883,0.0,99,215.0
7876,F#2,930.383,0.0,64,215.0
7877,C4,930.383,229/500,100,215.0
7878,B2,930.383,933/1000,88,215.0
7879,F3,930.383,933/1000,88,215.0
7880,D3,930.383,933/1000,88,215.0
7881,G2,930.383,933/1000,88,215.0
7882,A4,930.883,0.0,96,215.0
7883,E4,930.883,0.0,96,215.0
7884,F#2,930.883,0.0,96,215.0
7885,B1,930.883,0.0,96,215.0
7886,G3,930.883,229/500,100,215.0
7887,A4,931.383,0.0,101,215.0
7888,B1,931.383,0.0,101,215.0
7889,C#3,931.383,0.0,101,215.0
7890,C3,931.383,229/500,110,215.0
7891,C2,931.383,229/500,110,215.0
7892,A4,931.883,0.0,78,215.0
7893,G3,931.883,229/500,100,215.0
7894,F#2,932.383,0.0,64,215.0
7895,E2,932.883,0.0,92,215.0
7896,B1,932.883,0.0,92,215.0
7897,F#2,932.883,0.0,92,215.0
7898,A4,932.883,0.0,92,215.0
7899,G3,932.883,229/500,100,215.0
7900,E4,933.383,0.0,99,215.0
7901,A4,933.383,0.0,99,215.0
7902,B1,933.383,0.0,99,215.0
7903,B-2,933.383,0.0,99,215.0
7904,E3,933.383,229/500,110,215.0
7905,E2,933.383,229/500,110,215.0
7906,A4,933.883,0.0,78,215.0
7907,F#2,934.383,0.0,92,215.0
7908,E4,934.383,0.0,92,215.0
7909,B1,934.883,0.0,87,215.0
7910,F#2,934.883,0.0,87,215.0
7911,A4,934.883,0.0,87,215.0
7912,G3,934.883,229/500,100,215.0
7913,B1,935.383,0.0,99,215.0
7914,A4,935.383,0.0,99,215.0
7915,B-2,935.383,0.0,99,215.0
7916,E4,935.383,0.0,99,215.0
7917,G4,935.383,229/500,110,215.0
7918,F2,935.383,229/500,110,215.0
7919,A4,935.883,0.0,78,215.0
7920,F#2,936.383,0.0,64,215.0
7921,E3,936.633,1917/1000,75,215.0
7922,A3,936.717,1917/1000,75,215.0
7923,C4,936.8,1917/1000,75,215.0
7924,A4,936.883,0.0,96,215.0
7925,F#2,936.883,0.0,96,215.0
7926,E4,936.883,0.0,96,215.0
7927,B1,936.883,0.0,96,215.0
7928,C4,936.883,1433/1000,88,215.0
7929,E3,936.883,1433/1000,88,215.0
7930,A3,936.883,1433/1000,88,215.0
7931,A2,936.883,1433/1000,88,215.0
7932,B1,937.383,0.0,99,215.0
7933,E4,937.383,0.0,99,215.0
7934,A4,937.383,0.0,99,215.0
7935,B-2,937.383,0.0,99,215.0
7936,E4,937.883,0.0,99,215.0
7937,A4,937.883,0.0,99,215.0
7938,G4,937.883,26/125,100,215.0
7939,G4,938.133,26/125,100,215.0
7940,F#2,938.383,0.0,64,215.0
7941,G4,938.383,229/500,100,215.0
7942,B3,938.383,933/1000,88,215.0
7943,G3,938.383,933/1000,88,215.0
7944,D3,938.383,933/1000,88,215.0
7945,G2,938.383,933/1000,88,215.0
7946,A4,938.883,0.0,96,215.0
7947,B1,938.883,0.0,96,215.0
7948,E4,938.883,0.0,96,215.0
7949,F#2,938.883,0.0,96,215.0
7950,G4,938.883,229/500,100,215.0
7951,B-2,939.383,0.0,92,215.0
7952,A4,939.383,0.0,92,215.0
7953,B1,939.383,0.0,92,215.0
7954,E2,939.383,229/500,120,215.0
7955,A4,939.883,0.0,78,215.0
7956,F#2,940.383,0.0,64,215.0
7957,E2,940.883,0.0,92,215.0
7958,B1,940.883,0.0,92,215.0
7959,A4,940.883,0.0,92,215.0
7960,F#2,940.883,0.0,92,215.0
7961,A4,941.383,0.0,99,215.0
7962,B-2,941.383,0.0,99,215.0
7963,E4,941.383,0.0,99,215.0
7964,B1,941.383,0.0,99,215.0
7965,F2,941.383,229/500,120,215.0
7966,A4,941.883,0.0,78,215.0
7967,E4,941.883,229/500,100,215.0
7968,E4,942.383,0.0,92,215.0
7969,F#2,942.383,0.0,92,215.0
7970,G4,942.383,229/500,100,215.0
7971,A4,942.883,0.0,87,215.0
7972,F#2,942.883,0.0,87,215.0
7973,B1,942.883,0.0,87,215.0
7974,D5,942.883,0.5,110,215.0
7975,G2,942.883,0.5,110,215.0
7976,E4,943.383,0.0,99,215.0
7977,B-2,943.383,0.0,99,215.0
7978,A4,943.383,0.0,99,215.0
7979,B1,943.383,0.0,99,215.0
7980,C5,943.383,229/500,100,215.0
7981,A4,943.883,0.0,78,215.0
7982,F#2,944.383,0.0,64,215.0
7983,D5,944.383,229/500,100,215.0
7984,C4,944.633,1917/1000,75,215.0
7985,E4,944.717,1917/1000,75,215.0
7986,A4,944.8,1917/1000,75,215.0
7987,B1,944.883,0.0,96,215.0
7988,E4,944.883,0.0,96,215.0
7989,F#2,944.883,0.0,96,215.0
7990,A4,944.883,0.0,96,215.0
7991,G3,944.883,1433/1000,88,215.0
7992,E3,944.883,1433/1000,88,215.0
7993,C3,944.883,1433/1000,88,215.0
7994,A2,944.883,1433/1000,88,215.0
7995,E4,945.383,0.0,99,215.0
7996,B-2,945.383,0.0,99,215.0
7997,A4,945.383,0.0,99,215.0
7998,B1,945.383,0.0,99,215.0
7999,B4,945.383,229/500,100,215.0
8000,E4,945.883,0.0,99,215.0
8001,A4,945.883,0.0,99,215.0
8002,F#2,946.383,0.0,64,215.0
8003,G4,946.383,229/500,100,215.0
8004,F3,946.383,933/1000,88,215.0
8005,D3,946.383,933/1000,88,215.0
8006,B2,946.383,933/1000,88,215.0
8007,G2,946.383,933/1000,88,215.0
8008,F#2,946.883,0.0,96,215.0
8009,B1,946.883,0.0,96,215.0
8010,E4,946.883,0.0,96,215.0
8011,A4,946.883,0.0,96,215.0
8012,A4,946.883,229/500,100,215.0
8013,A4,947.383,0.0,101,215.0
8014,B1,947.383,0.0,101,215.0
8015,C#3,947.383,0.0,101,215.0
8016,D4,947.383,229/500,110,215.0
8017,C2,947.383,229/500,110,215.0
8018,A4,947.883,0.0,78,215.0
8019,F#2,948.383,0.0,64,215.0
8020,D4,948.383,229/500,100,215.0
8021,F#2,948.883,0.0,92,215.0
8022,A4,948.883,0.0,92,215.0
8023,B1,948.883,0.0,92,215.0
8024,E2,948.883,0.0,92,215.0
8025,B-2,949.383,0.0,99,215.0
8026,B1,949.383,0.0,99,215.0
8027,E4,949.383,0.0,99,215.0
8028,A4,949.383,0.0,99,215.0
8029,D4,949.383,229/500,110,215.0
8030,E2,949.383,229/500,110,215.0
8031,A4,949.883,0.0,78,215.0
8032,E4,950.383,0.0,92,215.0
8033,F#2,950.383,0.0,92,215.0
8034,F#2,950.883,0.0,87,215.0
8035,A4,950.883,0.0,87,215.0
8036,B1,950.883,0.0,87,215.0
8037,B1,951.383,0.0,99,215.0
8038,B-2,951.383,0.0,99,215.0
8039,A4,951.383,0.0,99,215.0
8040,E4,951.383,0.0,99,215.0
8041,F2,951.383,229/500,120,215.0
8042,A4,951.883,0.0,78,215.0
8043,D4,951.883,229/500,100,215.0
8044,F#2,952.383,0.0,64,215.0
8045,E4,952.383,229/500,100,215.0
8046,A3,952.633,1917/1000,75,215.0
8047,C4,952.717,1917/1000,75,215.0
8048,E4,952.8,1917/1000,75,215.0
8049,A4,952.883,0.0,96,215.0
8050,B1,952.883,0.0,96,215.0
8051,F#2,952.883,0.0,96,215.0
8052,E4,952.883,0.0,96,215.0
8053,F4,952.883,229/500,100,215.0
8054,E3,952.883,1433/1000,88,215.0
8055,C4,952.883,1433/1000,88,215.0
8056,A3,952.883,1433/1000,88,215.0
8057,A2,952.883,1433/1000,88,215.0
8058,B1,953.383,0.0,99,215.0
8059,B-2,953.383,0.0,99,215.0
8060,A4,953.383,0.0,99,215.0
8061,E4,953.383,0.0,99,215.0
8062,B3,953.383,229/500,100,215.0
8063,A4,953.883,0.0,99,215.0
8064,E4,953.883,0.0,99,215.0
8065,C4,953.883,229/500,100,215.0
8066,F#2,954.383,0.0,64,215.0
8067,D4,954.383,229/500,100,215.0
8068,B3,954.383,933/1000,88,215.0
8069,G3,954.383,933/1000,88,215.0
8070,D3,954.383,933/1000,88,215.0
8071,G2,954.383,933/1000,88,215.0
8072,A4,954.883,0.0,96,215.0
8073,F#2,954.883,0.0,96,215.0
8074,E4,954.883,0.0,96,215.0
8075,B1,954.883,0.0,96,215.0
8076,A3,954.883,229/500,100,215.0
8077,B-2,955.383,0.0,92,215.0
8078,B1,955.383,0.0,92,215.0
8079,A4,955.383,0.0,92,215.0
8080,D4,955.383,229/500,110,215.0
8081,E2,955.383,229/500,110,215.0
8082,A4,955.883,0.0,78,215.0
8083,F#2,956.383,0.0,64,215.0
8084,G4,956.383,333/1000,100,215.0
8085,A4,956.883,0.0,92,215.0
8086,E2,956.883,0.0,92,215.0
8087,B1,956.883,0.0,92,215.0
8088,F#2,956.883,0.0,92,215.0
8089,F4,956.883,333/1000,100,215.0
8090,E4,957.383,0.0,99,215.0
8091,B1,957.383,0.0,99,215.0
8092,A4,957.383,0.0,99,215.0
8093,B-2,957.383,0.0,99,215.0
8094,E4,957.383,333/1000,100,215.0
8095,F2,957.383,229/500,120,215.0
8096,A4,957.883,0.0,78,215.0
8097,F#2,958.383,0.0,92,215.0
8098,E4,958.383,0.0,92,215.0
8099,F4,958.383,229/500,100,215.0
8100,F#2,958.883,0.0,87,215.0
8101,A4,958.883,0.0,87,215.0
8102,B1,958.883,0.0,87,215.0
8103,D4,958.883,0.5,110,215.0
8104,G2,958.883,0.5,110,215.0
8105,E4,959.383,0.0,99,215.0
8106,A4,959.383,0.0,99,215.0
8107,B-2,959.383,0.0,99,215.0
8108,B1,959.383,0.0,99,215.0
8109,A4,959.883,0.0,78,215.0
8110,F#2,960.383,0.0,64,215.0
8111,E3,960.633,1917/1000,75,215.0
8112,A3,960.717,1917/1000,75,215.0
8113,C4,960.8,1917/1000,75,215.0
8114,B1,960.883,0.0,96,215.0
8115,A4,960.883,0.0,96,215.0
8116,F#2,960.883,0.0,96,215.0
8117,E4,960.883,0.0,96,215.0
8118,C3,960.883,1433/1000,88,215.0
8119,G3,960.883,1433/1000,88,215.0
8120,E3,960.883,1433/1000,88,215.0
8121,A2,960.883,1433/1000,88,215.0
8122,E4,961.383,0.0,99,215.0
8123,A4,961.383,0.0,99,215.0
8124,B-2,961.383,0.0,99,215.0
8125,B1,961.383,0.0,99,215.0
8126,E4,961.883,0.0,99,215.0
8127,A4,961.883,0.0,99,215.0
8128,D4,961.883,229/500,100,215.0
8129,F#2,962.383,0.0,64,215.0
8130,A4,962.383,229/500,100,215.0
8131,F3,962.383,933/1000,88,215.0
8132,B2,962.383,933/1000,88,215.0
8133,D3,962.383,933/1000,88,215.0
8134,G2,962.383,933/1000,88,215.0
8135,A4,962.883,0.0,96,215.0
8136,F#2,962.883,0.0,96,215.0
8137,B1,962.883,0.0,96,215.0
8138,E4,962.883,0.0,96,215.0
8139,B4,962.883,229/500,100,215.0
8140,C#3,963.383,0.0,101,215.0
8141,B1,963.383,0.0,101,215.0
8142,A4,963.383,0.0,101,215.0
8143,B4,963.383,1/10,100,215.0
8144,C2,963.383,229/500,120,215.0
8145,C5,963.508,933/1000,100,215.0
8146,A4,963.883,0.0,78,215.0
8147,F#2,964.383,0.0,64,215.0
8148,B4,964.383,229/500,100,215.0
8149,F#2,964.883,0.0,92,215.0
8150,B1,964.883,0.0,92,215.0
8151,A4,964.883,0.0,92,215.0
8152,E2,964.883,0.0,92,215.0
8153,C5,964.883,229/500,100,215.0
8154,A4,965.383,0.0,99,215.0
8155,B-2,965.383,0.0,99,215.0
8156,B1,965.383,0.0,99,215.0
8157,E4,965.383,0.0,99,215.0
8158,B4,965.383,1/10,100,215.0
8159,E2,965.383,229/500,120,215.0
8160,C5,965.508,933/1000,100,215.0
8161,A4,965.883,0.0,78,215.0
8162,E4,966.383,0.0,92,215.0
8163,F#2,966.383,0.0,92,215.0
8164,B4,966.383,229/500,100,215.0
8165,F#2,966.883,0.0,87,215.0
8166,B1,966.883,0.0,87,215.0
8167,A4,966.883,0.0,87,215.0
8168,C5,966.883,229/500,100,215.0
8169,A4,967.383,0.0,99,215.0
8170,E4,967.383,0.0,99,215.0
8171,B-2,967.383,0.0,99,215.0
8172,B1,967.383,0.0,99,215.0
8173,B4,967.383,1/10,100,215.0
8174,F2,967.383,229/500,120,215.0
8175,C5,967.508,933/1000,100,215.0
8176,A4,967.883,0.0,78,215.0
8177,F#2,968.383,0.0,64,215.0
8178,B4,968.383,229/500,100,215.0
8179,C4,968.633,1917/1000,75,215.0
8180,E4,968.717,1917/1000,75,215.0
8181,A4,968.8,1917/1000,75,215.0
8182,E4,968.883,0.0,96,215.0
8183,A4,968.883,0.0,96,215.0
8184,B1,968.883,0.0,96,215.0
8185,F#2,968.883,0.0,96,215.0
8186,C5,968.883,229/500,100,215.0
8187,E3,968.883,1433/1000,88,215.0
8188,A3,968.883,1433/1000,88,215.0
8189,C4,968.883,1433/1000,88,215.0
8190,A2,968.883,1433/1000,88,215.0
8191,A4,969.383,0.0,99,215.0
8192,B1,969.383,0.0,99,215.0
8193,B-2,969.383,0.0,99,215.0
8194,E4,969.383,0.0,99,215.0
8195,B4,969.383,1/10,100,215.0
8196,C5,969.508,933/1000,100,215.0
8197,A4,969.883,0.0,99,215.0
8198,E4,969.883,0.0,99,215.0
8199,B4,970.133,229/500,100,215.0
8200,F#2,970.383,0.0,64,215.0
8201,G3,970.383,933/1000,88,215.0
8202,B3,970.383,933/1000,88,215.0
8203,D3,970.383,933/1000,88,215.0
8204,G2,970.383,933/1000,88,215.0
8205,C5,970.758,229/500,100,215.0
8206,B1,970.883,0.0,96,215.0
8207,F#2,970.883,0.0,96,215.0
8208,E4,970.883,0.0,96,215.0
8209,A4,970.883,0.0,96,215.0
8210,B1,971.383,0.0,92,215.0
8211,B-2,971.383,0.0,92,215.0
8212,A4,971.383,0.0,92,215.0
8213,B4,971.383,1/10,100,215.0
8214,E2,971.383,229/500,120,215.0
8215,C5,971.508,933/1000,100,215.0
8216,A4,971.883,0.0,78,215.0
8217,B4,972.283,229/500,100,215.0
8218,F#2,972.383,0.0,64,215.0
8219,A4,972.883,0.0,92,215.0
8220,B1,972.883,0.0,92,215.0
8221,E2,972.883,0.0,92,215.0
8222,F#2,972.883,0.0,92,215.0
8223,C5,973.058,229/500,100,215.0
8224,B1,973.383,0.0,99,215.0
8225,E4,973.383,0.0,99,215.0
8226,A4,973.383,0.0,99,215.0
8227,B-2,973.383,0.0,99,215.0
8228,F2,973.383,229/500,120,215.0
8229,B4,973.833,933/1000,100,215.0
8230,A4,973.883,0.0,78,215.0
8231,E4,974.383,0.0,92,215.0
8232,F#2,974.383,0.0,92,215.0
8233,C5,974.608,667/1000,100,215.0
8234,F#2,974.883,0.0,87,215.0
8235,B1,974.883,0.0,87,215.0
8236,A4,974.883,0.0,87,215.0
8237,G2,974.883,0.5,120,215.0
8238,A4,975.383,0.0,99,215.0
8239,E4,975.383,0.0,99,215.0
8240,B1,975.383,0.0,99,215.0
8241,B-2,975.383,0.0,99,215.0
8242,C5,975.383,1/10,100,215.0
8243,D5,975.508,933/1000,100,215.0
8244,A4,975.883,0.0,78,215.0
8245,B4,976.133,933/1000,100,215.0
8246,F#2,976.383,0.0,64,215.0
8247,E3,976.633,1917/1000,75,215.0
8248,A3,976.717,1917/1000,75,215.0
8249,G4,976.758,933/1000,100,215.0
8250,C4,976.8,1917/1000,75,215.0
8251,F#2,976.883,0.0,96,215.0
8252,E4,976.883,0.0,96,215.0
8253,A4,976.883,0.0,96,215.0
8254,B1,976.883,0.0,96,215.0
8255,E3,976.883,1433/1000,88,215.0
8256,G3,976.883,1433/1000,88,215.0
8257,C3,976.883,1433/1000,88,215.0
8258,A2,976.883,1433/1000,88,215.0
8259,B1,977.383,0.0,99,215.0
8260,E4,977.383,0.0,99,215.0
8261,B-2,977.383,0.0,99,215.0
8262,A4,977.383,0.0,99,215.0
8263,E4,977.883,0.0,99,215.0
8264,A4,977.883,0.0,99,215.0
8265,F#2,978.383,0.0,64,215.0
8266,G4,978.383,229/500,100,215.0
8267,F3,978.383,933/1000,88,215.0
8268,D3,978.383,933/1000,88,215.0
8269,B2,978.383,933/1000,88,215.0
8270,G2,978.383,933/1000,88,215.0
8271,A4,978.883,0.0,96,215.0
8272,B1,978.883,0.0,96,215.0
8273,E4,978.883,0.0,96,215.0
8274,F#2,978.883,0.0,96,215.0
8275,A4,979.383,0.0,101,215.0
8276,C#3,979.383,0.0,101,215.0
8277,B1,979.383,0.0,101,215.0
8278,E5,979.383,229/500,110,215.0
8279,C2,979.383,229/500,110,215.0
8280,A4,979.883,0.0,78,215.0
8281,E5,979.883,229/500,100,215.0
8282,F#2,980.383,0.0,64,215.0
8283,A4,980.883,0.0,92,215.0
8284,B1,980.883,0.0,92,215.0
8285,E2,980.883,0.0,92,215.0
8286,F#2,980.883,0.0,92,215.0
8287,D5,980.883,229/500,100,215.0
8288,B1,981.383,0.0,99,215.0
8289,B-2,981.383,0.0,99,215.0
8290,A4,981.383,0.0,99,215.0
8291,E4,981.383,0.0,99,215.0
8292,D5,981.383,229/500,110,215.0
8293,E2,981.383,229/500,110,215.0
8294,A4,981.883,0.0,78,215.0
8295,F#2,982.383,0.0,92,215.0
8296,E4,982.383,0.0,92,215.0
8297,A4,982.383,229/500,100,215.0
8298,F#2,982.883,0.0,87,215.0
8299,A4,982.883,0.0,87,215.0
8300,B1,982.883,0.0,87,215.0
8301,E4,983.383,0.0,99,215.0
8302,A4,983.383,0.0,99,215.0
8303,B1,983.383,0.0,99,215.0
8304,B-2,983.383,0.0,99,215.0
8305,A4,983.383,229/500,110,215.0
8306,F2,983.383,229/500,110,215.0
8307,A4,983.883,0.0,78,215.0
8308,F#2,984.383,0.0,64,215.0
8309,D5,984.383,229/500,100,215.0
8310,A3,984.633,1917/1000,75,215.0
8311,C4,984.717,1917/1000,75,215.0
8312,E4,984.8,1917/1000,75,215.0
8313,B1,984.883,0.0,96,215.0
8314,A4,984.883,0.0,96,215.0
8315,E4,984.883,0.0,96,215.0
8316,F#2,984.883,0.0,96,215.0
8317,A3,984.883,1433/1000,88,215.0
8318,E3,984.883,1433/1000,88,215.0
8319,C4,984.883,1433/1000,88,215.0
8320,A2,984.883,1433/1000,88,215.0
8321,A4,985.383,0.0,99,215.0
8322,E4,985.383,0.0,99,215.0
8323,B-2,985.383,0.0,99,215.0
8324,B1,985.383,0.0,99,215.0
8325,G4,985.383,229/500,100,215.0
8326,E4,985.883,0.0,99,215.0
8327,A4,985.883,0.0,99,215.0
8328,F#2,986.383,0.0,64,215.0
8329,D5,986.383,229/500,100,215.0
8330,G3,986.383,933/1000,88,215.0
8331,D3,986.383,933/1000,88,215.0
8332,B3,986.383,933/1000,88,215.0
8333,G2,986.383,933/1000,88,215.0
8334,E4,986.883,0.0,96,215.0
8335,F#2,986.883,0.0,96,215.0
8336,B1,986.883,0.0,96,215.0
8337,A4,986.883,0.0,96,215.0
8338,C5,986.883,417/1000,100,215.0
8339,B-2,987.383,0.0,92,215.0
8340,B1,987.383,0.0,92,215.0
8341,A4,987.383,0.0,92,215.0
8342,E2,987.383,229/500,120,215.0
8343,A4,987.883,0.0,78,215.0
8344,F#2,988.383,0.0,64,215.0
8345,A4,988.883,0.0,92,215.0
8346,F#2,988.883,0.0,92,215.0
8347,B1,988.883,0.0,92,215.0
8348,E2,988.883,0.0,92,215.0
8349,B-2,989.383,0.0,99,215.0
8350,B1,989.383,0.0,99,215.0
8351,E4,989.383,0.0,99,215.0
8352,A4,989.383,0.0,99,215.0
8353,F2,989.383,229/500,120,215.0
8354,A4,989.883,0.0,78,215.0
8355,G4,989.883,417/1000,100,215.0
8356,F#2,990.383,0.0,92,215.0
8357,E4,990.383,0.0,92,215.0
8358,G5,990.383,417/1000,100,215.0
8359,B1,990.883,0.0,87,215.0
8360,F#2,990.883,0.0,87,215.0
8361,A4,990.883,0.0,87,215.0
8362,G2,990.883,0.5,120,215.0
8363,B-2,991.383,0.0,99,215.0
8364,E4,991.383,0.0,99,215.0
8365,B1,991.383,0.0,99,215.0
8366,A4,991.383,0.0,99,215.0
8367,F5,991.383,417/1000,100,215.0
8368,A4,991.883,0.0,78,215.0
8369,E5,991.883,417/1000,100,215.0
8370,F#2,992.383,0.0,64,215.0
8371,D5,992.383,417/1000,100,215.0
8372,B1,992.883,0.0,96,215.0
8373,E4,992.883,0.0,96,215.0
8374,A4,992.883,0.0,96,215.0
8375,F#2,992.883,0.0,96,215.0
8376,E3,992.883,1433/1000,88,215.0
8377,C3,992.883,1433/1000,88,215.0
8378,G3,992.883,1433/1000,88,215.0
8379,A2,992.883,1433/1000,88,215.0
8380,E4,993.383,0.0,99,215.0
8381,B1,993.383,0.0,99,215.0
8382,B-2,993.383,0.0,99,215.0
8383,A4,993.383,0.0,99,215.0
8384,A4,993.383,417/1000,100,215.0
8385,A4,993.883,0.0,99,215.0
8386,E4,993.883,0.0,99,215.0
8387,F#2,994.383,0.0,64,215.0
8388,D5,994.383,417/1000,100,215.0
8389,F3,994.383,933/1000,88,215.0
8390,D3,994.383,933/1000,88,215.0
8391,B2,994.383,933/1000,88,215.0
8392,G2,994.383,933/1000,88,215.0
8393,F#2,994.883,0.0,96,215.0
8394,A4,994.883,0.0,96,215.0
8395,B1,994.883,0.0,96,215.0
8396,E4,994.883,0.0,96,215.0
8397,C5,994.883,417/1000,100,215.0
8398,E4,995.883,417/1000,100,215.0
