,note_name,start_time,duration,velocity,tempo
0,E2,2.0,0.25,85,118.0
1,C2,2.25,0.5,99,118.0
2,C2,2.75,0.25,66,118.0
3,E2,3.0,0.25,113,118.0
4,E2,3.0,0.5,104,118.0
5,A2,3.25,0.25,85,118.0
6,C2,3.5,0.25,82,118.0
7,G2,3.5,0.25,82,118.0
8,E2,3.75,0.25,99,118.0
9,B1,4.0,11/40,127,118.0
10,B1,4.0,11/40,127,118.0
11,B1,4.0,1.0,99,118.0
12,B2,4.0,0.25,106,118.0
13,C2,4.0,0.5,106,118.0
14,B-2,4.0,0.5,106,118.0
15,E-4,4.0,0.75,101,118.0
16,B3,4.0,0.75,101,118.0
17,F#3,4.0,0.75,101,118.0
18,F#3,4.0,2.875,110,118.0
19,F#3,4.0,2.875,110,118.0
20,B2,4.0,3083/1000,110,118.0
21,B3,4.0,3083/1000,110,118.0
22,B2,4.0,3083/1000,110,118.0
23,B3,4.0,3083/1000,110,118.0
24,C#4,4.0,1667/1000,127,118.0
25,C#4,4.0,1667/1000,127,118.0
26,B1,4.5,133/1000,110,118.0
27,G#2,4.5,0.25,60,118.0
28,B1,4.5,133/1000,110,118.0
29,B2,4.5,0.75,96,118.0
30,B1,4.75,117/1000,110,118.0
31,F#2,4.75,0.25,104,118.0
32,B1,4.75,117/1000,110,118.0
33,B1,5.0,0.25,127,118.0
34,B1,5.0,0.25,127,118.0
35,E2,5.0,0.5,113,118.0
36,B-2,5.0,0.5,113,118.0
37,B3,5.0,0.5,105,118.0
38,F#3,5.0,0.5,105,118.0
39,E-4,5.0,0.5,105,118.0
40,B1,5.5,71/500,110,118.0
41,G#2,5.5,0.25,64,118.0
42,B1,5.5,71/500,110,118.0
43,B2,5.5,0.25,121,118.0
44,E-4,5.5,2033/1000,127,118.0
45,E-4,5.5,2033/1000,127,118.0
46,B1,5.75,0.125,110,118.0
47,F#2,5.75,0.25,104,118.0
48,B1,5.75,0.125,110,118.0
49,B3,5.75,0.25,99,118.0
50,E-4,5.75,0.25,99,118.0
51,F#3,5.75,0.25,99,118.0
52,B1,6.0,283/1000,127,118.0
53,C2,6.0,0.75,53,118.0
54,B-2,6.0,0.5,104,118.0
55,B1,6.0,283/1000,127,118.0
56,B-3,6.25,0.25,105,118.0
57,E-4,6.25,0.25,105,118.0
58,B3,6.25,0.25,105,118.0
59,F#3,6.25,0.25,105,118.0
60,B1,6.5,0.125,110,118.0
61,G#2,6.5,0.25,79,118.0
62,B1,6.5,0.125,110,118.0
63,B2,6.5,0.25,100,118.0
64,B1,6.75,117/1000,110,118.0
65,F#2,6.75,0.25,104,118.0
66,B1,6.75,117/1000,110,118.0
67,F#2,6.75,0.25,112,118.0
68,B1,7.0,0.25,127,118.0
69,B1,7.0,0.25,127,118.0
70,B3,7.0,0.25,110,118.0
71,E2,7.0,0.5,116,118.0
72,B-2,7.0,0.5,116,118.0
73,B1,7.0,0.5,111,118.0
74,C#4,7.0,0.5,111,118.0
75,F#3,7.0,0.5,111,118.0
76,B1,7.5,71/500,110,118.0
77,B1,7.5,71/500,110,118.0
78,C2,7.5,0.25,82,118.0
79,G#2,7.5,0.25,82,118.0
80,B2,7.5,0.25,91,118.0
81,E-4,7.5,0.25,91,118.0
82,F#3,7.5,0.25,91,118.0
83,C#4,7.5,0.5,110,118.0
84,G#3,7.5,0.5,110,118.0
85,E3,7.5,0.5,110,118.0
86,C#4,7.5,0.5,110,118.0
87,G#3,7.5,0.5,110,118.0
88,E3,7.5,0.5,110,118.0
89,E4,7.5,0.5,127,118.0
90,E4,7.5,0.5,127,118.0
91,B1,7.75,7/40,110,118.0
92,F#2,7.75,0.25,100,118.0
93,B1,7.75,7/40,110,118.0
94,F#2,7.75,0.25,116,118.0
95,A1,8.0,11/40,127,118.0
96,A1,8.0,11/40,127,118.0
97,A2,8.0,0.25,103,118.0
98,C2,8.0,0.5,118,118.0
99,B-2,8.0,0.5,118,118.0
100,C#4,8.0,0.75,105,118.0
101,A3,8.0,0.75,105,118.0
102,B3,8.0,0.75,105,118.0
103,A1,8.0,0.75,105,118.0
104,E4,8.0,0.75,105,118.0
105,C#4,8.0,51/20,110,118.0
106,G#3,8.0,51/20,110,118.0
107,E3,8.0,51/20,110,118.0
108,C#4,8.0,51/20,110,118.0
109,G#3,8.0,51/20,110,118.0
110,E3,8.0,51/20,110,118.0
111,E4,8.0,111/40,127,118.0
112,E4,8.0,111/40,127,118.0
113,A1,8.5,0.125,110,118.0
114,G#2,8.5,0.25,75,118.0
115,A1,8.5,0.125,110,118.0
116,A2,8.5,0.25,114,118.0
117,A1,8.75,117/1000,110,118.0
118,F#2,8.75,0.25,110,118.0
119,A1,8.75,117/1000,110,118.0
120,E2,8.75,0.25,110,118.0
121,A1,9.0,267/1000,127,118.0
122,E2,9.0,0.5,110,118.0
123,A1,9.0,267/1000,127,118.0
124,F#2,9.0,0.25,96,118.0
125,B-2,9.0,0.25,96,118.0
126,A3,9.0,0.5,111,118.0
127,C#4,9.0,0.5,111,118.0
128,E4,9.0,0.5,111,118.0
129,B3,9.0,0.5,111,118.0
130,A1,9.5,117/1000,110,118.0
131,G#2,9.5,0.25,81,118.0
132,A1,9.5,117/1000,110,118.0
133,A2,9.5,0.25,90,118.0
134,A1,9.75,23/250,110,118.0
135,F#2,9.75,0.25,96,118.0
136,A1,9.75,23/250,110,118.0
137,E4,9.75,0.25,96,118.0
138,C#4,9.75,0.25,96,118.0
139,A3,9.75,0.25,96,118.0
140,B3,9.75,0.25,96,118.0
141,A1,10.0,3/10,127,118.0
142,C2,10.0,0.75,113,118.0
143,B-2,10.0,0.25,100,118.0
144,A1,10.0,3/10,127,118.0
145,E4,10.25,0.25,108,118.0
146,C#4,10.25,0.25,108,118.0
147,A3,10.25,0.25,108,118.0
148,B3,10.25,0.25,108,118.0
149,A1,10.5,1/10,110,118.0
150,G#2,10.5,0.25,89,118.0
151,A1,10.5,1/10,110,118.0
152,A2,10.5,0.25,105,118.0
153,A1,10.75,0.125,110,118.0
154,F#2,10.75,0.25,92,118.0
155,A1,10.75,0.125,110,118.0
156,E2,10.75,0.25,92,118.0
157,A1,11.0,0.25,127,118.0
158,E2,11.0,0.5,110,118.0
159,B-2,11.0,0.25,109,118.0
160,A1,11.0,0.25,127,118.0
161,E-4,11.0,0.5,99,118.0
162,B3,11.0,0.75,109,118.0
163,A3,11.0,0.75,109,118.0
164,A1,11.0,0.75,109,118.0
165,E4,11.0,1.0,127,118.0
166,E4,11.0,1.0,127,118.0
167,A1,11.5,0.125,110,118.0
168,A1,11.5,0.125,110,118.0
169,C2,11.5,0.25,82,118.0
170,G#2,11.5,0.25,82,118.0
171,E4,11.5,0.25,105,118.0
172,A2,11.5,0.25,105,118.0
173,A1,11.75,71/500,110,118.0
174,F#2,11.75,0.25,92,118.0
175,A1,11.75,71/500,110,118.0
176,E2,11.75,0.25,112,118.0
177,G#1,12.0,183/1000,127,118.0
178,C2,12.0,0.5,110,118.0
179,B-2,12.0,0.25,114,118.0
180,G#1,12.0,183/1000,127,118.0
181,G#2,12.0,0.25,93,118.0
182,E-4,12.0,0.75,91,118.0
183,B3,12.0,0.75,91,118.0
184,G#3,12.0,0.75,91,118.0
185,G#1,12.0,0.75,91,118.0
186,F#3,12.0,121/40,110,118.0
187,E-3,12.0,121/40,110,118.0
188,F#3,12.0,121/40,110,118.0
189,E-3,12.0,121/40,110,118.0
190,E-4,12.0,1033/1000,127,118.0
191,E-4,12.0,1033/1000,127,118.0
192,E4,12.0,33/1000,127,118.0
193,E4,12.0,33/1000,127,118.0
194,G#1,12.5,71/500,110,118.0
195,G#2,12.5,0.25,77,118.0
196,G#1,12.5,71/500,110,118.0
197,G#2,12.5,0.5,127,118.0
198,G#1,12.75,133/1000,110,118.0
199,F#2,12.75,0.25,96,118.0
200,G#1,12.75,133/1000,110,118.0
201,E-2,12.75,0.25,61,118.0
202,G#1,13.0,9/40,127,118.0
203,E2,13.0,0.75,110,118.0
204,G#1,13.0,9/40,127,118.0
205,F#2,13.0,0.25,74,118.0
206,B-2,13.0,0.25,74,118.0
207,E-4,13.0,0.5,113,118.0
208,G#3,13.0,0.5,113,118.0
209,B3,13.0,0.5,113,118.0
210,C#4,13.0,1133/1000,127,118.0
211,C#4,13.0,1133/1000,127,118.0
212,G#1,13.5,117/1000,110,118.0
213,G#2,13.5,0.25,86,118.0
214,G#1,13.5,117/1000,110,118.0
215,G#2,13.5,0.25,127,118.0
216,G#1,13.75,0.125,110,118.0
217,F#2,13.75,0.25,100,118.0
218,G#1,13.75,0.125,110,118.0
219,E-4,13.75,0.25,91,118.0
220,B3,13.75,0.25,91,118.0
221,G#3,13.75,0.25,91,118.0
222,G#1,14.0,79/500,127,118.0
223,C2,14.0,0.75,110,118.0
224,B-2,14.0,0.25,109,118.0
225,G#1,14.0,79/500,127,118.0
226,B3,14.0,43/40,127,118.0
227,B3,14.0,43/40,127,118.0
228,E-4,14.25,0.25,106,118.0
229,B3,14.25,0.25,106,118.0
230,G#3,14.25,0.25,106,118.0
231,G#1,14.5,0.125,110,118.0
232,G#2,14.5,0.25,92,118.0
233,G#1,14.5,0.125,110,118.0
234,G#2,14.5,0.25,127,118.0
235,G#1,14.75,117/1000,110,118.0
236,F#2,14.75,0.25,100,118.0
237,G#1,14.75,117/1000,110,118.0
238,E-2,14.75,0.25,106,118.0
239,G#1,15.0,7/40,127,118.0
240,E2,15.0,0.5,110,118.0
241,B-2,15.0,0.25,114,118.0
242,G#1,15.0,7/40,127,118.0
243,B-1,15.0,0.25,71,118.0
244,C#4,15.0,0.5,108,118.0
245,B3,15.0,0.5,108,118.0
246,G#3,15.0,0.75,110,118.0
247,G#1,15.0,0.75,110,118.0
248,B-3,15.0,1.0,127,118.0
249,B-3,15.0,1.0,127,118.0
250,G#1,15.5,117/1000,110,118.0
251,G#1,15.5,117/1000,110,118.0
252,E-4,15.5,0.25,74,118.0
253,G#2,15.5,0.5,127,118.0
254,C2,15.5,0.25,77,118.0
255,G#2,15.5,0.25,77,118.0
256,G#1,15.75,183/1000,110,118.0
257,F#2,15.75,0.25,100,118.0
258,G#1,15.75,183/1000,110,118.0
259,E-2,15.75,0.25,116,118.0
260,C#2,16.0,217/1000,127,118.0
261,C2,16.0,0.75,120,118.0
262,B-2,16.0,0.25,109,118.0
263,C#2,16.0,217/1000,127,118.0
264,C#2,16.0,0.5,99,118.0
265,C#4,16.0,0.75,93,118.0
266,F3,16.0,0.75,93,118.0
267,G#3,16.0,0.75,93,118.0
268,C#4,16.0,1471/500,110,118.0
269,C#4,16.0,1471/500,110,118.0
270,C#3,16.0,3033/1000,110,118.0
271,C#3,16.0,3033/1000,110,118.0
272,G#3,16.0,1071/500,127,118.0
273,G#3,16.0,1071/500,127,118.0
274,C#2,16.5,117/1000,110,118.0
275,G#2,16.5,0.25,84,118.0
276,C#2,16.5,117/1000,110,118.0
277,C#3,16.5,0.25,124,118.0
278,C#2,16.75,117/1000,110,118.0
279,F#2,16.75,0.25,89,118.0
280,C#2,16.75,117/1000,110,118.0
281,G#2,16.75,0.25,109,118.0
282,C#2,17.0,1/5,127,118.0
283,E2,17.0,0.75,113,118.0
284,B-2,17.0,0.25,114,118.0
285,C#2,17.0,1/5,127,118.0
286,C#4,17.0,0.5,102,118.0
287,G#3,17.0,0.5,102,118.0
288,F3,17.0,0.5,102,118.0
289,C#2,17.5,117/1000,110,118.0
290,G#2,17.5,0.25,92,118.0
291,C#2,17.5,117/1000,110,118.0
292,C#3,17.5,0.25,112,118.0
293,C#2,17.75,117/1000,110,118.0
294,F#2,17.75,0.25,96,118.0
295,C#2,17.75,117/1000,110,118.0
296,C#4,17.75,0.25,92,118.0
297,G#3,17.75,0.25,92,118.0
298,F3,17.75,0.25,92,118.0
299,C#2,18.0,233/1000,127,118.0
300,C2,18.0,0.75,113,118.0
301,B-2,18.0,0.25,114,118.0
302,C#2,18.0,233/1000,127,118.0
303,F#3,18.0,1067/1000,127,118.0
304,F#3,18.0,1067/1000,127,118.0
305,F3,18.25,0.25,104,118.0
306,C#4,18.25,0.25,104,118.0
307,G#3,18.25,0.25,104,118.0
308,C#2,18.5,133/1000,110,118.0
309,G#2,18.5,0.25,100,118.0
310,C#2,18.5,133/1000,110,118.0
311,C#3,18.5,0.25,120,118.0
312,C#2,18.75,133/1000,110,118.0
313,F#2,18.75,0.25,100,118.0
314,C#2,18.75,133/1000,110,118.0
315,G#2,18.75,0.25,106,118.0
316,C#2,19.0,233/1000,127,118.0
317,E2,19.0,0.5,110,118.0
318,B-2,19.0,0.25,114,118.0
319,C#2,19.0,233/1000,127,118.0
320,B3,19.0,0.25,92,118.0
321,F3,19.0,0.75,91,118.0
322,C#2,19.0,0.5,116,118.0
323,G#3,19.0,0.5,116,118.0
324,G#3,19.0,33/40,127,118.0
325,G#3,19.0,33/40,127,118.0
326,C#2,19.5,183/1000,110,118.0
327,C#2,19.5,183/1000,110,118.0
328,C2,19.5,0.25,87,118.0
329,G#2,19.5,0.25,87,118.0
330,C#3,19.5,0.25,108,118.0
331,C#4,19.5,0.25,108,118.0
332,F1,19.75,217/1000,110,118.0
333,F#2,19.75,0.25,109,118.0
334,F1,19.75,217/1000,110,118.0
335,G#2,19.75,0.25,116,118.0
336,F#1,20.0,233/1000,127,118.0
337,C2,20.0,0.5,113,118.0
338,B-2,20.0,0.25,109,118.0
339,F#1,20.0,233/1000,127,118.0
340,B-3,20.0,0.75,102,118.0
341,F#3,20.0,0.75,102,118.0
342,C#3,20.0,0.75,102,118.0
343,F#2,20.0,0.25,100,118.0
344,F#1,20.0,0.25,100,118.0
345,F2,20.0,0.25,100,118.0
346,E2,20.0,0.25,100,118.0
347,C#3,20.0,627/250,110,118.0
348,C#4,20.0,627/250,110,118.0
349,F#3,20.0,627/250,110,118.0
350,C#3,20.0,627/250,110,118.0
351,C#4,20.0,627/250,110,118.0
352,F#3,20.0,627/250,110,118.0
353,G#3,20.0,199/125,127,118.0
354,G#3,20.0,199/125,127,118.0
355,F#1,20.5,117/1000,110,118.0
356,G#2,20.5,0.25,96,118.0
357,F#1,20.5,117/1000,110,118.0
358,F#2,20.5,0.5,124,118.0
359,F#1,20.75,27/250,110,118.0
360,F#2,20.75,0.25,100,118.0
361,F#1,20.75,27/250,110,118.0
362,F#1,21.0,233/1000,127,118.0
363,E2,21.0,0.75,110,118.0
364,B-2,21.0,0.25,114,118.0
365,F#1,21.0,233/1000,127,118.0
366,C#2,21.0,0.25,41,118.0
367,C#3,21.0,0.5,106,118.0
368,F#3,21.0,0.5,106,118.0
369,B-3,21.0,0.5,106,118.0
370,F#1,21.5,117/1000,110,118.0
371,G#2,21.5,0.25,92,118.0
372,F#1,21.5,117/1000,110,118.0
373,F#2,21.5,0.25,106,118.0
374,B-3,21.5,2083/1000,127,118.0
375,B-3,21.5,2083/1000,127,118.0
376,F#1,21.75,27/250,110,118.0
377,F#2,21.75,0.25,100,118.0
378,F#1,21.75,27/250,110,118.0
379,B-3,21.75,0.25,96,118.0
380,F#3,21.75,0.25,96,118.0
381,C#3,21.75,0.25,96,118.0
382,F#1,22.0,1/5,127,118.0
383,C2,22.0,0.75,120,118.0
384,B-2,22.0,0.25,114,118.0
385,F#1,22.0,1/5,127,118.0
386,B-3,22.25,0.25,103,118.0
387,F#3,22.25,0.25,103,118.0
388,C#3,22.25,0.25,103,118.0
389,F#1,22.5,0.125,110,118.0
390,G#2,22.5,0.25,96,118.0
391,F#1,22.5,0.125,110,118.0
392,F#2,22.5,0.25,124,118.0
393,F#1,22.75,117/1000,110,118.0
394,F#2,22.75,0.25,100,118.0
395,F#1,22.75,117/1000,110,118.0
396,C#2,22.75,0.25,120,118.0
397,F#1,23.0,26/125,127,118.0
398,E2,23.0,0.5,117,118.0
399,B-2,23.0,0.25,100,118.0
400,F#1,23.0,26/125,127,118.0
401,G#1,23.0,0.25,79,118.0
402,C#3,23.0,0.75,79,118.0
403,F#1,23.0,0.5,115,118.0
404,F#3,23.0,0.5,115,118.0
405,G#3,23.0,0.5,115,118.0
406,F#1,23.5,133/1000,110,118.0
407,F#1,23.5,133/1000,110,118.0
408,F#2,23.5,0.5,124,118.0
409,B-3,23.5,0.25,83,118.0
410,C2,23.5,0.25,90,118.0
411,G#2,23.5,0.25,90,118.0
412,E-3,23.5,0.5,110,118.0
413,B2,23.5,0.5,110,118.0
414,E-3,23.5,0.5,110,118.0
415,B2,23.5,0.5,110,118.0
416,B3,23.5,0.5,127,118.0
417,B3,23.5,0.5,127,118.0
418,F#1,23.75,183/1000,110,118.0
419,F#2,23.75,0.25,92,118.0
420,F#1,23.75,183/1000,110,118.0
421,C#2,23.75,0.25,112,118.0
422,G#1,24.0,26/125,127,118.0
423,C2,24.0,0.5,110,118.0
424,B-2,24.0,0.25,104,118.0
425,G#1,24.0,26/125,127,118.0
426,G#1,24.0,0.5,127,118.0
427,B-1,24.0,0.25,101,118.0
428,G#3,24.0,0.75,101,118.0
429,B3,24.0,0.75,101,118.0
430,E-3,24.0,0.75,101,118.0
431,E-3,24.0,2833/1000,110,118.0
432,B2,24.0,2833/1000,110,118.0
433,E-3,24.0,2833/1000,110,118.0
434,B2,24.0,2833/1000,110,118.0
435,B3,24.0,1779/500,127,118.0
436,B3,24.0,1779/500,127,118.0
437,G#1,24.5,27/250,110,118.0
438,G#2,24.5,0.25,81,118.0
439,G#1,24.5,27/250,110,118.0
440,G#2,24.5,0.25,116,118.0
441,G#1,24.75,0.125,110,118.0
442,F#2,24.75,0.25,96,118.0
443,G#1,24.75,0.125,110,118.0
444,E-2,24.75,0.25,120,118.0
445,G#1,25.0,233/1000,127,118.0
446,E2,25.0,0.5,110,118.0
447,B-2,25.0,0.25,109,118.0
448,G#1,25.0,233/1000,127,118.0
449,G#3,25.0,0.5,105,118.0
450,E-3,25.0,0.5,105,118.0
451,B3,25.0,0.5,105,118.0
452,G#1,25.5,27/250,110,118.0
453,G#2,25.5,0.25,81,118.0
454,G#1,25.5,27/250,110,118.0
455,G#2,25.5,0.25,116,118.0
456,G#1,25.75,117/1000,110,118.0
457,F#2,25.75,0.25,96,118.0
458,G#1,25.75,117/1000,110,118.0
459,E-3,25.75,0.25,92,118.0
460,G#3,25.75,0.25,92,118.0
461,B3,25.75,0.25,92,118.0
462,G#1,26.0,121/500,127,118.0
463,C2,26.0,0.5,120,118.0
464,B-2,26.0,0.25,109,118.0
465,G#1,26.0,121/500,127,118.0
466,G#3,26.25,0.25,103,118.0
467,E-3,26.25,0.25,103,118.0
468,B3,26.25,0.25,103,118.0
469,G#1,26.5,117/1000,110,118.0
470,G#2,26.5,0.25,92,118.0
471,G#1,26.5,117/1000,110,118.0
472,G#2,26.5,0.25,116,118.0
473,F#3,26.583,379/500,120,118.0
474,F#3,26.583,379/500,120,118.0
475,G#1,26.75,27/250,110,118.0
476,F#2,26.75,0.25,86,118.0
477,G#1,26.75,27/250,110,118.0
478,E-2,26.75,0.25,95,118.0
479,G#1,27.0,267/1000,127,118.0
480,E2,27.0,0.5,120,118.0
481,B-2,27.0,0.25,109,118.0
482,G#1,27.0,267/1000,127,118.0
483,G#1,27.0,0.75,116,118.0
484,B-3,27.0,0.5,111,118.0
485,G#3,27.0,0.5,111,118.0
486,E-3,27.0,0.5,111,118.0
487,B3,27.375,0.625,120,118.0
488,B3,27.375,0.625,120,118.0
489,G#1,27.5,117/1000,110,118.0
490,G#1,27.5,117/1000,110,118.0
491,G#2,27.5,0.5,127,118.0
492,B3,27.5,0.25,82,118.0
493,C2,27.5,0.25,76,118.0
494,G#2,27.5,0.25,76,118.0
495,G#1,27.75,9/40,110,118.0
496,F#2,27.75,0.25,104,118.0
497,G#1,27.75,9/40,110,118.0
498,E-2,27.75,0.25,109,118.0
499,C#2,28.0,0.25,127,118.0
500,C2,28.0,0.5,113,118.0
501,B-2,28.0,0.25,114,118.0
502,C#2,28.0,0.25,127,118.0
503,C#2,28.0,0.5,120,118.0
504,G#3,28.0,0.75,95,118.0
505,C#4,28.0,0.75,95,118.0
506,F3,28.0,0.75,95,118.0
507,C#3,28.0,31/10,116,118.0
508,G#3,28.0,31/10,116,118.0
509,C#4,28.0,31/10,116,118.0
510,C#3,28.0,31/10,116,118.0
511,G#3,28.0,31/10,116,118.0
512,C#4,28.0,31/10,116,118.0
513,B3,28.0,283/1000,120,118.0
514,B3,28.0,283/1000,120,118.0
515,C#3,28.092,79/500,126,118.0
516,C#2,28.5,0.125,110,118.0
517,G#2,28.5,0.25,92,118.0
518,C#2,28.5,0.125,110,118.0
519,C#3,28.5,0.25,120,118.0
520,C#2,28.75,0.125,110,118.0
521,F#2,28.75,0.25,96,118.0
522,C#2,28.75,0.125,110,118.0
523,G#2,28.75,0.25,89,118.0
524,C#2,29.0,217/1000,127,118.0
525,E2,29.0,0.75,110,118.0
526,B-2,29.0,0.25,104,118.0
527,C#2,29.0,217/1000,127,118.0
528,C#4,29.0,0.5,103,118.0
529,G#3,29.0,0.5,103,118.0
530,F3,29.0,0.5,103,118.0
531,C#2,29.5,117/1000,110,118.0
532,G#2,29.5,0.25,92,118.0
533,C#2,29.5,117/1000,110,118.0
534,C#3,29.5,0.25,109,118.0
535,C#2,29.75,117/1000,110,118.0
536,F#2,29.75,0.25,104,118.0
537,C#2,29.75,117/1000,110,118.0
538,C#4,29.75,0.25,89,118.0
539,G#3,29.75,0.25,89,118.0
540,F3,29.75,0.25,89,118.0
541,C#2,30.0,0.25,127,118.0
542,C2,30.0,0.75,110,118.0
543,B-2,30.0,0.25,109,118.0
544,C#2,30.0,0.25,127,118.0
545,F3,30.25,0.25,98,118.0
546,G#3,30.25,0.25,98,118.0
547,C#4,30.25,0.25,98,118.0
548,C#2,30.5,133/1000,110,118.0
549,G#2,30.5,0.25,104,118.0
550,C#2,30.5,133/1000,110,118.0
551,C#3,30.5,0.25,104,118.0
552,E-4,30.5,521/500,127,118.0
553,E-4,30.5,521/500,127,118.0
554,C#2,30.75,133/1000,110,118.0
555,F#2,30.75,0.25,104,118.0
556,C#2,30.75,133/1000,110,118.0
557,G#2,30.75,0.25,104,118.0
558,C#2,31.0,233/1000,127,118.0
559,C#2,31.0,233/1000,127,118.0
560,C#2,31.0,0.25,124,118.0
561,E2,31.0,0.25,111,118.0
562,B-2,31.0,0.25,111,118.0
563,F#3,31.25,0.25,110,118.0
564,E-3,31.25,0.25,110,118.0
565,B3,31.25,0.25,110,118.0
566,C#2,31.5,121/500,110,118.0
567,C#2,31.5,121/500,110,118.0
568,C#3,31.5,0.25,124,118.0
569,C2,31.5,0.25,97,118.0
570,G#2,31.5,0.25,97,118.0
571,F4,31.5,0.5,127,118.0
572,F4,31.5,0.5,127,118.0
573,B1,31.75,217/1000,110,118.0
574,F#2,31.75,0.25,96,118.0
575,B1,31.75,217/1000,110,118.0
576,G#2,31.75,0.25,109,118.0
577,C#2,32.0,129/500,127,118.0
578,C2,32.0,0.5,117,118.0
579,B-2,32.0,0.25,109,118.0
580,C#2,32.0,129/500,127,118.0
581,C#2,32.0,0.5,124,118.0
582,F3,32.0,0.75,105,118.0
583,C#4,32.0,0.75,105,118.0
584,G#3,32.0,0.75,105,118.0
585,G#3,32.0,1579/500,110,118.0
586,C#3,32.0,1579/500,110,118.0
587,C#4,32.0,1579/500,110,118.0
588,G#3,32.0,1579/500,110,118.0
589,C#3,32.0,1579/500,110,118.0
590,C#4,32.0,1579/500,110,118.0
591,F4,32.0,16/5,127,118.0
592,F4,32.0,16/5,127,118.0
593,C#2,32.5,0.125,110,118.0
594,G#2,32.5,0.25,104,118.0
595,C#2,32.5,0.125,110,118.0
596,C#3,32.5,0.25,120,118.0
597,C#2,32.75,117/1000,110,118.0
598,F#2,32.75,0.25,92,118.0
599,C#2,32.75,117/1000,110,118.0
600,G#2,32.75,0.25,120,118.0
601,C#2,33.0,217/1000,127,118.0
602,E2,33.0,0.5,104,118.0
603,C#2,33.0,217/1000,127,118.0
604,E2,33.0,0.25,108,118.0
605,B-2,33.0,0.25,108,118.0
606,F3,33.0,0.5,106,118.0
607,G#3,33.0,0.5,106,118.0
608,C#4,33.0,0.5,106,118.0
609,E2,33.25,0.25,92,118.0
610,C#2,33.5,0.125,110,118.0
611,G#2,33.5,0.25,96,118.0
612,C#2,33.5,0.125,110,118.0
613,C#3,33.5,0.25,120,118.0
614,C#2,33.75,0.125,110,118.0
615,C#2,33.75,0.125,110,118.0
616,F#2,33.75,0.25,92,118.0
617,C2,33.75,0.25,92,118.0
618,C#4,33.75,0.25,91,118.0
619,G#3,33.75,0.25,91,118.0
620,F3,33.75,0.25,91,118.0
621,C#2,34.0,24/125,127,118.0
622,C2,34.0,0.75,120,118.0
623,C#2,34.0,24/125,127,118.0
624,B-2,34.0,0.25,111,118.0
625,E2,34.0,0.25,111,118.0
626,E2,34.25,0.25,107,118.0
627,F3,34.25,0.25,111,118.0
628,C#4,34.25,0.25,111,118.0
629,G#3,34.25,0.25,111,118.0
630,C#2,34.5,27/250,110,118.0
631,G#2,34.5,0.25,96,118.0
632,C#2,34.5,27/250,110,118.0
633,C#3,34.5,0.25,116,118.0
634,C#2,34.75,117/1000,110,118.0
635,C#2,34.75,117/1000,110,118.0
636,G#2,34.75,0.25,109,118.0
637,F#2,34.75,0.25,106,118.0
638,G2,34.75,0.25,106,118.0
639,C#2,35.0,233/1000,127,118.0
640,E2,35.0,0.5,113,118.0
641,B-2,35.0,0.25,114,118.0
642,C#2,35.0,233/1000,127,118.0
643,F3,35.0,0.75,93,118.0
644,C#2,35.0,0.5,109,118.0
645,C#4,35.0,0.5,109,118.0
646,G#3,35.0,0.5,109,118.0
647,A2,35.25,0.25,120,118.0
648,C#2,35.5,117/1000,110,118.0
649,C#2,35.5,117/1000,110,118.0
650,C#3,35.5,0.25,112,118.0
651,C2,35.5,0.25,92,118.0
652,G#2,35.5,0.25,92,118.0
653,E2,35.5,0.25,92,118.0
654,G3,35.525,71/500,120,118.0
655,C#2,35.75,167/1000,110,118.0
656,C#2,35.75,167/1000,110,118.0
657,F#2,35.75,0.25,76,118.0
658,G2,35.75,0.25,76,118.0
659,A3,35.983,17/1000,117,118.0
660,B1,36.0,333/1000,127,118.0
661,B-2,36.0,0.25,71,118.0
662,A3,36.0,117/1000,117,118.0
663,B1,36.0,333/1000,127,118.0
664,B1,36.0,1.0,99,118.0
665,B2,36.0,0.25,106,118.0
666,F#4,36.0,373/250,117,118.0
667,C2,36.0,0.5,106,118.0
668,B-2,36.0,0.5,106,118.0
669,E-4,36.0,0.75,101,118.0
670,B3,36.0,0.75,101,118.0
671,F#3,36.0,0.75,101,118.0
672,F#3,36.0,2.875,110,118.0
673,F#3,36.0,2.875,110,118.0
674,B2,36.0,3083/1000,110,118.0
675,B3,36.0,3083/1000,110,118.0
676,B2,36.0,3083/1000,110,118.0
677,B3,36.0,3083/1000,110,118.0
678,C#4,36.0,1667/1000,127,118.0
679,C#4,36.0,1667/1000,127,118.0
680,B1,36.5,117/1000,110,118.0
681,G#2,36.5,0.25,60,118.0
682,B1,36.5,117/1000,110,118.0
683,B2,36.5,0.75,96,118.0
684,B1,36.75,117/1000,110,118.0
685,F#2,36.75,0.25,104,118.0
686,B1,36.75,117/1000,110,118.0
687,B1,37.0,7/40,127,118.0
688,B1,37.0,7/40,127,118.0
689,E2,37.0,0.5,113,118.0
690,B-2,37.0,0.5,113,118.0
691,B3,37.0,0.5,105,118.0
692,F#3,37.0,0.5,105,118.0
693,E-4,37.0,0.5,105,118.0
694,B1,37.5,117/1000,110,118.0
695,G#2,37.5,0.25,64,118.0
696,B1,37.5,117/1000,110,118.0
697,B2,37.5,0.25,121,118.0
698,B4,37.5,251/125,117,118.0
699,E-4,37.5,2033/1000,127,118.0
700,E-4,37.5,2033/1000,127,118.0
701,B1,37.75,133/1000,110,118.0
702,F#2,37.75,0.25,104,118.0
703,B1,37.75,133/1000,110,118.0
704,B3,37.75,0.25,99,118.0
705,E-4,37.75,0.25,99,118.0
706,F#3,37.75,0.25,99,118.0
707,B1,38.0,217/1000,127,118.0
708,C2,38.0,0.75,53,118.0
709,B-2,38.0,0.5,104,118.0
710,B1,38.0,217/1000,127,118.0
711,B-3,38.25,0.25,105,118.0
712,E-4,38.25,0.25,105,118.0
713,B3,38.25,0.25,105,118.0
714,F#3,38.25,0.25,105,118.0
715,B1,38.5,117/1000,110,118.0
716,G#2,38.5,0.25,79,118.0
717,B1,38.5,117/1000,110,118.0
718,B2,38.5,0.25,100,118.0
719,B1,38.75,117/1000,110,118.0
720,F#2,38.75,0.25,104,118.0
721,B1,38.75,117/1000,110,118.0
722,F#2,38.75,0.25,112,118.0
723,B1,39.0,183/1000,127,118.0
724,B1,39.0,183/1000,127,118.0
725,B3,39.0,0.25,110,118.0
726,E2,39.0,0.5,116,118.0
727,B-2,39.0,0.5,116,118.0
728,B1,39.0,0.5,111,118.0
729,C#4,39.0,0.5,111,118.0
730,F#3,39.0,0.5,111,118.0
731,B1,39.5,117/1000,110,118.0
732,B1,39.5,117/1000,110,118.0
733,C2,39.5,0.25,82,118.0
734,G#2,39.5,0.25,82,118.0
735,B2,39.5,0.25,91,118.0
736,E-4,39.5,0.25,91,118.0
737,F#3,39.5,0.25,91,118.0
738,C#4,39.5,0.5,110,118.0
739,G#3,39.5,0.5,110,118.0
740,E3,39.5,0.5,110,118.0
741,C#4,39.5,0.5,110,118.0
742,G#3,39.5,0.5,110,118.0
743,E3,39.5,0.5,110,118.0
744,E4,39.5,0.5,127,118.0
745,E4,39.5,0.5,127,118.0
746,A4,39.5,0.5,110,118.0
747,C#5,39.5,0.5,110,118.0
748,B1,39.75,217/1000,110,118.0
749,F#2,39.75,0.25,100,118.0
750,B1,39.75,217/1000,110,118.0
751,F#2,39.75,0.25,116,118.0
752,A1,40.0,129/500,127,118.0
753,A1,40.0,129/500,127,118.0
754,A2,40.0,0.25,103,118.0
755,C2,40.0,0.5,118,118.0
756,B-2,40.0,0.5,118,118.0
757,C#4,40.0,0.75,105,118.0
758,A3,40.0,0.75,105,118.0
759,B3,40.0,0.75,105,118.0
760,A1,40.0,0.75,105,118.0
761,E4,40.0,0.75,105,118.0
762,C#4,40.0,51/20,110,118.0
763,G#3,40.0,51/20,110,118.0
764,E3,40.0,51/20,110,118.0
765,C#4,40.0,51/20,110,118.0
766,G#3,40.0,51/20,110,118.0
767,E3,40.0,51/20,110,118.0
768,E4,40.0,111/40,127,118.0
769,E4,40.0,111/40,127,118.0
770,A4,40.0,2767/1000,110,118.0
771,C#5,40.0,2767/1000,110,118.0
772,A1,40.5,1/10,110,118.0
773,A1,40.5,1/10,110,118.0
774,A2,40.5,0.25,114,118.0
775,A1,40.75,0.125,110,118.0
776,G#2,40.75,0.25,75,118.0
777,A1,40.75,0.125,110,118.0
778,E2,40.75,0.25,110,118.0
779,A1,41.0,24/125,127,118.0
780,E2,41.0,0.5,110,118.0
781,A1,41.0,24/125,127,118.0
782,F#2,41.0,0.25,96,118.0
783,B-2,41.0,0.25,96,118.0
784,A3,41.0,0.5,111,118.0
785,C#4,41.0,0.5,111,118.0
786,E4,41.0,0.5,111,118.0
787,B3,41.0,0.5,111,118.0
788,A1,41.5,27/250,110,118.0
789,G#2,41.5,0.25,81,118.0
790,A1,41.5,27/250,110,118.0
791,A2,41.5,0.25,90,118.0
792,A1,41.75,3/20,110,118.0
793,F#2,41.75,0.25,96,118.0
794,A1,41.75,3/20,110,118.0
795,E4,41.75,0.25,96,118.0
796,C#4,41.75,0.25,96,118.0
797,A3,41.75,0.25,96,118.0
798,B3,41.75,0.25,96,118.0
799,A1,42.0,9/40,127,118.0
800,C2,42.0,0.75,113,118.0
801,B-2,42.0,0.25,100,118.0
802,A1,42.0,9/40,127,118.0
803,E4,42.25,0.25,108,118.0
804,C#4,42.25,0.25,108,118.0
805,A3,42.25,0.25,108,118.0
806,B3,42.25,0.25,108,118.0
807,A1,42.5,27/250,110,118.0
808,G#2,42.5,0.25,89,118.0
809,A1,42.5,27/250,110,118.0
810,A2,42.5,0.25,105,118.0
811,A1,42.75,27/250,110,118.0
812,F#2,42.75,0.25,92,118.0
813,A1,42.75,27/250,110,118.0
814,E2,42.75,0.25,92,118.0
815,A1,43.0,129/500,127,118.0
816,E2,43.0,0.5,110,118.0
817,B-2,43.0,0.25,109,118.0
818,A1,43.0,129/500,127,118.0
819,E-4,43.0,0.5,99,118.0
820,B3,43.0,0.75,109,118.0
821,A3,43.0,0.75,109,118.0
822,A1,43.0,0.75,109,118.0
823,E4,43.0,1.0,127,118.0
824,E4,43.0,1.0,127,118.0
825,A4,43.0,19/20,115,118.0
826,C#5,43.0,19/20,115,118.0
827,A1,43.5,1/10,110,118.0
828,A1,43.5,1/10,110,118.0
829,C2,43.5,0.25,82,118.0
830,G#2,43.5,0.25,82,118.0
831,E4,43.5,0.25,105,118.0
832,A2,43.5,0.25,105,118.0
833,A1,43.75,79/500,110,118.0
834,F#2,43.75,0.25,92,118.0
835,A1,43.75,79/500,110,118.0
836,E2,43.75,0.25,112,118.0
837,G#1,44.0,121/500,127,118.0
838,C2,44.0,0.5,110,118.0
839,B-2,44.0,0.25,114,118.0
840,G#1,44.0,121/500,127,118.0
841,G#2,44.0,0.25,93,118.0
842,E-4,44.0,0.75,91,118.0
843,B3,44.0,0.75,91,118.0
844,G#3,44.0,0.75,91,118.0
845,G#1,44.0,0.75,91,118.0
846,F#3,44.0,121/40,110,118.0
847,E-3,44.0,121/40,110,118.0
848,F#3,44.0,121/40,110,118.0
849,E-3,44.0,121/40,110,118.0
850,E-4,44.0,1033/1000,127,118.0
851,E-4,44.0,1033/1000,127,118.0
852,E4,44.0,33/1000,127,118.0
853,E4,44.0,33/1000,127,118.0
854,G#4,44.0,11/10,111,118.0
855,B4,44.0,11/10,111,118.0
856,G#1,44.5,0.125,110,118.0
857,G#2,44.5,0.25,77,118.0
858,G#1,44.5,0.125,110,118.0
859,G#2,44.5,0.5,127,118.0
860,G#1,44.75,27/250,110,118.0
861,F#2,44.75,0.25,96,118.0
862,G#1,44.75,27/250,110,118.0
863,E-2,44.75,0.25,61,118.0
864,G#1,45.0,9/40,127,118.0
865,E2,45.0,0.75,110,118.0
866,G#1,45.0,9/40,127,118.0
867,B-4,45.0,43/40,117,118.0
868,F#2,45.0,0.25,74,118.0
869,B-2,45.0,0.25,74,118.0
870,E-4,45.0,0.5,113,118.0
871,G#3,45.0,0.5,113,118.0
872,B3,45.0,0.5,113,118.0
873,C#4,45.0,1133/1000,127,118.0
874,C#4,45.0,1133/1000,127,118.0
875,G#1,45.5,0.125,110,118.0
876,G#2,45.5,0.25,86,118.0
877,G#1,45.5,0.125,110,118.0
878,G#2,45.5,0.25,127,118.0
879,G#1,45.75,27/250,110,118.0
880,F#2,45.75,0.25,100,118.0
881,G#1,45.75,27/250,110,118.0
882,E-4,45.75,0.25,91,118.0
883,B3,45.75,0.25,91,118.0
884,G#3,45.75,0.25,91,118.0
885,G#1,46.0,9/40,127,118.0
886,C2,46.0,0.75,110,118.0
887,B-2,46.0,0.25,109,118.0
888,G#1,46.0,9/40,127,118.0
889,G#4,46.0,41/40,117,118.0
890,B3,46.0,43/40,127,118.0
891,B3,46.0,43/40,127,118.0
892,E-4,46.25,0.25,106,118.0
893,B3,46.25,0.25,106,118.0
894,G#3,46.25,0.25,106,118.0
895,G#1,46.5,27/250,110,118.0
896,G#2,46.5,0.25,92,118.0
897,G#1,46.5,27/250,110,118.0
898,G#2,46.5,0.25,127,118.0
899,G#1,46.75,117/1000,110,118.0
900,F#2,46.75,0.25,100,118.0
901,G#1,46.75,117/1000,110,118.0
902,E-2,46.75,0.25,106,118.0
903,G#1,47.0,233/1000,127,118.0
904,E2,47.0,0.5,110,118.0
905,B-2,47.0,0.25,114,118.0
906,G#1,47.0,233/1000,127,118.0
907,B-1,47.0,0.25,71,118.0
908,F#4,47.0,1.0,115,118.0
909,C#4,47.0,0.5,108,118.0
910,B3,47.0,0.5,108,118.0
911,G#3,47.0,0.75,110,118.0
912,G#1,47.0,0.75,110,118.0
913,B-3,47.0,1.0,127,118.0
914,B-3,47.0,1.0,127,118.0
915,G#1,47.5,1/5,110,118.0
916,G#1,47.5,1/5,110,118.0
917,E-4,47.5,0.25,74,118.0
918,G#2,47.5,0.5,127,118.0
919,C2,47.5,0.25,77,118.0
920,G#2,47.5,0.25,77,118.0
921,B1,47.75,0.25,110,118.0
922,F#2,47.75,0.25,100,118.0
923,B1,47.75,0.25,110,118.0
924,E-2,47.75,0.25,116,118.0
925,C#2,48.0,3/10,127,118.0
926,B1,48.0,1/40,110,118.0
927,C2,48.0,0.75,120,118.0
928,B-2,48.0,0.25,109,118.0
929,C#2,48.0,3/10,127,118.0
930,B1,48.0,1/40,110,118.0
931,C#2,48.0,0.5,99,118.0
932,F#4,48.0,83/1000,115,118.0
933,C#4,48.0,0.75,93,118.0
934,F3,48.0,0.75,93,118.0
935,G#3,48.0,0.75,93,118.0
936,C#4,48.0,1471/500,110,118.0
937,C#4,48.0,1471/500,110,118.0
938,C#3,48.0,3033/1000,110,118.0
939,C#3,48.0,3033/1000,110,118.0
940,G#3,48.0,1071/500,127,118.0
941,G#3,48.0,1071/500,127,118.0
942,C#4,48.0,37/20,118,118.0
943,F4,48.0,37/20,118,118.0
944,C#2,48.5,27/250,110,118.0
945,G#2,48.5,0.25,84,118.0
946,C#2,48.5,27/250,110,118.0
947,C#3,48.5,0.25,124,118.0
948,C#2,48.75,117/1000,110,118.0
949,F#2,48.75,0.25,89,118.0
950,C#2,48.75,117/1000,110,118.0
951,G#2,48.75,0.25,109,118.0
952,C#2,49.0,0.25,127,118.0
953,E2,49.0,0.75,113,118.0
954,B-2,49.0,0.25,114,118.0
955,C#2,49.0,0.25,127,118.0
956,C#4,49.0,0.5,102,118.0
957,G#3,49.0,0.5,102,118.0
958,F3,49.0,0.5,102,118.0
959,C#2,49.5,117/1000,110,118.0
960,G#2,49.5,0.25,92,118.0
961,C#2,49.5,117/1000,110,118.0
962,C#3,49.5,0.25,112,118.0
963,C#2,49.75,27/250,110,118.0
964,F#2,49.75,0.25,96,118.0
965,C#2,49.75,27/250,110,118.0
966,C#4,49.75,0.25,92,118.0
967,G#3,49.75,0.25,92,118.0
968,F3,49.75,0.25,92,118.0
969,C#2,50.0,121/500,127,118.0
970,C2,50.0,0.75,113,118.0
971,B-2,50.0,0.25,114,118.0
972,C#2,50.0,121/500,127,118.0
973,E-4,50.0,479/500,120,118.0
974,E-4,50.0,479/500,120,118.0
975,F#3,50.0,1067/1000,127,118.0
976,F#3,50.0,1067/1000,127,118.0
977,B3,50.0,1067/1000,118,118.0
978,E-4,50.0,1067/1000,118,118.0
979,F3,50.25,0.25,104,118.0
980,C#4,50.25,0.25,104,118.0
981,G#3,50.25,0.25,104,118.0
982,C#2,50.5,0.125,110,118.0
983,G#2,50.5,0.25,100,118.0
984,C#2,50.5,0.125,110,118.0
985,C#3,50.5,0.25,120,118.0
986,C#2,50.75,1/5,110,118.0
987,F#2,50.75,0.25,100,118.0
988,C#2,50.75,1/5,110,118.0
989,G#2,50.75,0.25,106,118.0
990,F1,51.0,233/1000,127,118.0
991,E2,51.0,0.5,110,118.0
992,B-2,51.0,0.25,114,118.0
993,F1,51.0,233/1000,127,118.0
994,B3,51.0,0.25,92,118.0
995,F3,51.0,0.75,91,118.0
996,C#2,51.0,0.5,116,118.0
997,G#3,51.0,0.5,116,118.0
998,F4,51.0,33/40,124,118.0
999,G#3,51.0,33/40,124,118.0
1000,F4,51.0,33/40,124,118.0
1001,G#3,51.0,33/40,124,118.0
1002,C#4,51.0,17/20,106,118.0
1003,F4,51.0,17/20,106,118.0
1004,F1,51.5,27/250,110,118.0
1005,F1,51.5,27/250,110,118.0
1006,C2,51.5,0.25,87,118.0
1007,G#2,51.5,0.25,87,118.0
1008,C#3,51.5,0.25,108,118.0
1009,C#4,51.5,0.25,108,118.0
1010,F1,51.75,26/125,110,118.0
1011,F#2,51.75,0.25,109,118.0
1012,F1,51.75,26/125,110,118.0
1013,G#2,51.75,0.25,116,118.0
1014,F#1,52.0,267/1000,127,118.0
1015,C2,52.0,0.5,113,118.0
1016,B-2,52.0,0.25,109,118.0
1017,F#1,52.0,267/1000,127,118.0
1018,B-3,52.0,0.75,102,118.0
1019,F#3,52.0,0.75,102,118.0
1020,C#3,52.0,0.75,102,118.0
1021,F#2,52.0,0.25,100,118.0
1022,F#1,52.0,0.25,100,118.0
1023,F2,52.0,0.25,100,118.0
1024,E2,52.0,0.25,100,118.0
1025,F4,52.0,199/125,124,118.0
1026,G#3,52.0,199/125,124,118.0
1027,F4,52.0,199/125,124,118.0
1028,G#3,52.0,199/125,124,118.0
1029,C#3,52.0,627/250,110,118.0
1030,C#4,52.0,627/250,110,118.0
1031,F#3,52.0,627/250,110,118.0
1032,C#3,52.0,627/250,110,118.0
1033,C#4,52.0,627/250,110,118.0
1034,F#3,52.0,627/250,110,118.0
1035,F4,52.0,1483/1000,116,118.0
1036,C#4,52.0,1483/1000,116,118.0
1037,G3,52.075,1/10,78,118.0
1038,A3,52.075,1/10,78,118.0
1039,F#1,52.5,0.125,110,118.0
1040,G#2,52.5,0.25,96,118.0
1041,F#1,52.5,0.125,110,118.0
1042,F#2,52.5,0.5,124,118.0
1043,F#1,52.75,117/1000,110,118.0
1044,F#2,52.75,0.25,100,118.0
1045,F#1,52.75,117/1000,110,118.0
1046,F#1,53.0,217/1000,127,118.0
1047,E2,53.0,0.75,110,118.0
1048,B-2,53.0,0.25,114,118.0
1049,F#1,53.0,217/1000,127,118.0
1050,C#2,53.0,0.25,41,118.0
1051,C#3,53.0,0.5,106,118.0
1052,F#3,53.0,0.5,106,118.0
1053,B-3,53.0,0.5,106,118.0
1054,F#1,53.5,117/1000,110,118.0
1055,G#2,53.5,0.25,92,118.0
1056,F#1,53.5,117/1000,110,118.0
1057,F#2,53.5,0.25,106,118.0
1058,B-3,53.5,1867/1000,115,118.0
1059,F#4,53.5,59/40,115,118.0
1060,F#4,53.5,1883/1000,120,118.0
1061,F#4,53.5,1883/1000,120,118.0
1062,B-3,53.5,2083/1000,127,118.0
1063,B-3,53.5,2083/1000,127,118.0
1064,F#1,53.75,117/1000,110,118.0
1065,F#2,53.75,0.25,100,118.0
1066,F#1,53.75,117/1000,110,118.0
1067,B-3,53.75,0.25,96,118.0
1068,F#3,53.75,0.25,96,118.0
1069,C#3,53.75,0.25,96,118.0
1070,F#1,54.0,217/1000,127,118.0
1071,C2,54.0,0.75,120,118.0
1072,B-2,54.0,0.25,114,118.0
1073,F#1,54.0,217/1000,127,118.0
1074,B-3,54.25,0.25,103,118.0
1075,F#3,54.25,0.25,103,118.0
1076,C#3,54.25,0.25,103,118.0
1077,F#1,54.5,1/10,110,118.0
1078,G#2,54.5,0.25,96,118.0
1079,F#1,54.5,1/10,110,118.0
1080,F#2,54.5,0.25,124,118.0
1081,F#1,54.75,27/250,110,118.0
1082,F#2,54.75,0.25,100,118.0
1083,F#1,54.75,27/250,110,118.0
1084,C#2,54.75,0.25,120,118.0
1085,F#1,55.0,1/5,127,118.0
1086,E2,55.0,0.5,117,118.0
1087,B-2,55.0,0.25,100,118.0
1088,F#1,55.0,1/5,127,118.0
1089,G#1,55.0,0.25,79,118.0
1090,C#3,55.0,0.75,79,118.0
1091,C#4,55.0,517/1000,115,118.0
1092,F#1,55.0,0.5,115,118.0
1093,F#3,55.0,0.5,115,118.0
1094,G#3,55.0,0.5,115,118.0
1095,F#1,55.5,133/1000,110,118.0
1096,F#1,55.5,133/1000,110,118.0
1097,F#2,55.5,0.5,124,118.0
1098,B-3,55.5,0.25,83,118.0
1099,C2,55.5,0.25,90,118.0
1100,G#2,55.5,0.25,90,118.0
1101,G#4,55.5,0.5,120,118.0
1102,G#4,55.5,0.5,120,118.0
1103,E-3,55.5,0.5,110,118.0
1104,B2,55.5,0.5,110,118.0
1105,E-3,55.5,0.5,110,118.0
1106,B2,55.5,0.5,110,118.0
1107,B3,55.5,0.5,127,118.0
1108,B3,55.5,0.5,127,118.0
1109,B3,55.5,0.5,112,118.0
1110,E-4,55.5,0.5,112,118.0
1111,F#1,55.75,0.25,110,118.0
1112,F#2,55.75,0.25,92,118.0
1113,F#1,55.75,0.25,110,118.0
1114,C#2,55.75,0.25,112,118.0
1115,G#1,56.0,0.25,127,118.0
1116,F#1,56.0,21/500,110,118.0
1117,C2,56.0,0.5,110,118.0
1118,B-2,56.0,0.25,104,118.0
1119,G#1,56.0,0.25,127,118.0
1120,F#1,56.0,21/500,110,118.0
1121,G#1,56.0,0.5,127,118.0
1122,B-1,56.0,0.25,101,118.0
1123,G#3,56.0,0.75,101,118.0
1124,B3,56.0,0.75,101,118.0
1125,E-3,56.0,0.75,101,118.0
1126,G#4,56.0,2483/1000,120,118.0
1127,G#4,56.0,2483/1000,120,118.0
1128,E-3,56.0,2833/1000,110,118.0
1129,B2,56.0,2833/1000,110,118.0
1130,E-3,56.0,2833/1000,110,118.0
1131,B2,56.0,2833/1000,110,118.0
1132,B3,56.0,1779/500,127,118.0
1133,B3,56.0,1779/500,127,118.0
1134,B3,56.0,1083/1000,112,118.0
1135,E-4,56.0,1083/1000,112,118.0
1136,G#1,56.5,117/1000,110,118.0
1137,G#2,56.5,0.25,81,118.0
1138,G#1,56.5,117/1000,110,118.0
1139,G#2,56.5,0.25,116,118.0
1140,G#1,56.75,27/250,110,118.0
1141,F#2,56.75,0.25,96,118.0
1142,G#1,56.75,27/250,110,118.0
1143,E-2,56.75,0.25,120,118.0
1144,G#1,57.0,7/40,127,118.0
1145,E2,57.0,0.5,110,118.0
1146,B-2,57.0,0.25,109,118.0
1147,G#1,57.0,7/40,127,118.0
1148,G#3,57.0,0.5,105,118.0
1149,E-3,57.0,0.5,105,118.0
1150,B3,57.0,0.5,105,118.0
1151,B-3,57.0,0.5,112,118.0
1152,C#4,57.0,0.5,112,118.0
1153,G#1,57.5,0.125,110,118.0
1154,G#2,57.5,0.25,81,118.0
1155,G#1,57.5,0.125,110,118.0
1156,G#2,57.5,0.25,116,118.0
1157,B3,57.5,126/125,110,118.0
1158,G#3,57.5,1117/1000,102,118.0
1159,G#1,57.75,0.125,110,118.0
1160,F#2,57.75,0.25,96,118.0
1161,G#1,57.75,0.125,110,118.0
1162,E-3,57.75,0.25,92,118.0
1163,G#3,57.75,0.25,92,118.0
1164,B3,57.75,0.25,92,118.0
1165,G#1,58.0,1/5,127,118.0
1166,C2,58.0,0.5,120,118.0
1167,B-2,58.0,0.25,109,118.0
1168,G#1,58.0,1/5,127,118.0
1169,G#3,58.25,0.25,103,118.0
1170,E-3,58.25,0.25,103,118.0
1171,B3,58.25,0.25,103,118.0
1172,G#1,58.5,0.125,110,118.0
1173,G#2,58.5,0.25,92,118.0
1174,G#1,58.5,0.125,110,118.0
1175,G#2,58.5,0.25,116,118.0
1176,E-4,58.5,1117/1000,110,118.0
1177,F#4,58.5,1117/1000,110,118.0
1178,F#3,58.583,379/500,120,118.0
1179,F#3,58.583,379/500,120,118.0
1180,G#1,58.75,133/1000,110,118.0
1181,F#2,58.75,0.25,86,118.0
1182,G#1,58.75,133/1000,110,118.0
1183,E-2,58.75,0.25,95,118.0
1184,G#1,59.0,1/5,127,118.0
1185,E2,59.0,0.5,120,118.0
1186,B-2,59.0,0.25,109,118.0
1187,G#1,59.0,1/5,127,118.0
1188,G#1,59.0,0.75,116,118.0
1189,B-3,59.0,0.5,111,118.0
1190,G#3,59.0,0.5,111,118.0
1191,E-3,59.0,0.5,111,118.0
1192,B3,59.375,0.625,120,118.0
1193,B3,59.375,0.625,120,118.0
1194,G#1,59.5,27/250,110,118.0
1195,G#1,59.5,27/250,110,118.0
1196,G#2,59.5,0.5,127,118.0
1197,B3,59.5,0.25,82,118.0
1198,C2,59.5,0.25,76,118.0
1199,G#2,59.5,0.25,76,118.0
1200,C#4,59.5,0.5,115,118.0
1201,F4,59.5,0.5,115,118.0
1202,G#1,59.75,26/125,110,118.0
1203,F#2,59.75,0.25,104,118.0
1204,G#1,59.75,26/125,110,118.0
1205,E-2,59.75,0.25,109,118.0
1206,C#2,60.0,233/1000,127,118.0
1207,C2,60.0,0.5,113,118.0
1208,B-2,60.0,0.25,114,118.0
1209,C#2,60.0,233/1000,127,118.0
1210,C#2,60.0,0.5,120,118.0
1211,G#3,60.0,0.75,95,118.0
1212,C#4,60.0,0.75,95,118.0
1213,F3,60.0,0.75,95,118.0
1214,F4,60.0,47/20,120,118.0
1215,F4,60.0,47/20,120,118.0
1216,C#3,60.0,31/10,116,118.0
1217,G#3,60.0,31/10,116,118.0
1218,C#4,60.0,31/10,116,118.0
1219,C#3,60.0,31/10,116,118.0
1220,G#3,60.0,31/10,116,118.0
1221,C#4,60.0,31/10,116,118.0
1222,B3,60.0,283/1000,120,118.0
1223,B3,60.0,283/1000,120,118.0
1224,C#4,60.0,1229/500,115,118.0
1225,F4,60.0,1229/500,115,118.0
1226,C#3,60.05,17/1000,71,118.0
1227,C#2,60.5,117/1000,110,118.0
1228,G#2,60.5,0.25,92,118.0
1229,C#2,60.5,117/1000,110,118.0
1230,C#3,60.5,0.25,120,118.0
1231,C#2,60.75,133/1000,110,118.0
1232,F#2,60.75,0.25,96,118.0
1233,C#2,60.75,133/1000,110,118.0
1234,G#2,60.75,0.25,89,118.0
1235,C#2,61.0,24/125,127,118.0
1236,E2,61.0,0.75,110,118.0
1237,B-2,61.0,0.25,104,118.0
1238,C#2,61.0,24/125,127,118.0
1239,C#4,61.0,0.5,103,118.0
1240,G#3,61.0,0.5,103,118.0
1241,F3,61.0,0.5,103,118.0
1242,C#2,61.5,0.125,110,118.0
1243,G#2,61.5,0.25,92,118.0
1244,C#2,61.5,0.125,110,118.0
1245,C#3,61.5,0.25,109,118.0
1246,C#2,61.75,71/500,110,118.0
1247,F#2,61.75,0.25,104,118.0
1248,C#2,61.75,71/500,110,118.0
1249,C#4,61.75,0.25,89,118.0
1250,G#3,61.75,0.25,89,118.0
1251,F3,61.75,0.25,89,118.0
1252,C#2,62.0,233/1000,127,118.0
1253,C2,62.0,0.75,110,118.0
1254,B-2,62.0,0.25,109,118.0
1255,C#2,62.0,233/1000,127,118.0
1256,F3,62.25,0.25,98,118.0
1257,G#3,62.25,0.25,98,118.0
1258,C#4,62.25,0.25,98,118.0
1259,C#2,62.5,79/500,110,118.0
1260,G#2,62.5,0.25,104,118.0
1261,C#2,62.5,79/500,110,118.0
1262,C#3,62.5,0.25,104,118.0
1263,E-4,62.5,1083/1000,102,118.0
1264,F#4,62.5,33/40,120,118.0
1265,F#4,62.5,33/40,120,118.0
1266,E-4,62.5,521/500,127,118.0
1267,E-4,62.5,521/500,127,118.0
1268,C#2,62.75,7/40,110,118.0
1269,F#2,62.75,0.25,104,118.0
1270,C#2,62.75,7/40,110,118.0
1271,G#2,62.75,0.25,104,118.0
1272,C#2,63.0,24/125,127,118.0
1273,C#2,63.0,24/125,127,118.0
1274,C#2,63.0,0.25,124,118.0
1275,E2,63.0,0.25,111,118.0
1276,B-2,63.0,0.25,111,118.0
1277,F#3,63.25,0.25,110,118.0
1278,E-3,63.25,0.25,110,118.0
1279,B3,63.25,0.25,110,118.0
1280,G#1,63.5,9/40,110,118.0
1281,G#1,63.5,9/40,110,118.0
1282,C#3,63.5,0.25,124,118.0
1283,C2,63.5,0.25,97,118.0
1284,G#2,63.5,0.25,97,118.0
1285,G#4,63.5,0.5,120,118.0
1286,G#4,63.5,0.5,120,118.0
1287,F4,63.5,0.5,127,118.0
1288,F4,63.5,0.5,127,118.0
1289,C#4,63.5,0.5,100,118.0
1290,F4,63.5,0.5,100,118.0
1291,B1,63.75,0.25,110,118.0
1292,F#2,63.75,0.25,96,118.0
1293,B1,63.75,0.25,110,118.0
1294,G#2,63.75,0.25,109,118.0
1295,C#2,64.0,283/1000,127,118.0
1296,B1,64.0,67/1000,110,118.0
1297,C2,64.0,0.5,117,118.0
1298,B-2,64.0,0.25,109,118.0
1299,C#2,64.0,283/1000,127,118.0
1300,B1,64.0,67/1000,110,118.0
1301,C#2,64.0,0.5,124,118.0
1302,F3,64.0,0.75,105,118.0
1303,C#4,64.0,0.75,105,118.0
1304,G#3,64.0,0.75,105,118.0
1305,G#3,64.0,1579/500,110,118.0
1306,C#3,64.0,1579/500,110,118.0
1307,C#4,64.0,1579/500,110,118.0
1308,G#3,64.0,1579/500,110,118.0
1309,C#3,64.0,1579/500,110,118.0
1310,C#4,64.0,1579/500,110,118.0
1311,G#4,64.0,779/500,120,118.0
1312,G#4,64.0,779/500,120,118.0
1313,F4,64.0,16/5,127,118.0
1314,F4,64.0,16/5,127,118.0
1315,C#4,64.0,1167/1000,100,118.0
1316,F4,64.0,1167/1000,100,118.0
1317,C#2,64.5,0.125,110,118.0
1318,G#2,64.5,0.25,104,118.0
1319,C#2,64.5,0.125,110,118.0
1320,C#3,64.5,0.25,120,118.0
1321,C#2,64.75,0.125,110,118.0
1322,F#2,64.75,0.25,92,118.0
1323,C#2,64.75,0.125,110,118.0
1324,G#2,64.75,0.25,120,118.0
1325,C#2,65.0,3/10,127,118.0
1326,E2,65.0,0.5,113,118.0
1327,B-2,65.0,0.25,104,118.0
1328,C#2,65.0,3/10,127,118.0
1329,F3,65.0,0.5,106,118.0
1330,G#3,65.0,0.5,106,118.0
1331,C#4,65.0,0.5,106,118.0
1332,C#2,65.5,0.125,110,118.0
1333,G#2,65.5,0.25,96,118.0
1334,C#2,65.5,0.125,110,118.0
1335,C#3,65.5,0.25,120,118.0
1336,C#2,65.75,217/1000,110,118.0
1337,F#2,65.75,0.25,96,118.0
1338,C#2,65.75,217/1000,110,118.0
1339,C#4,65.75,0.25,91,118.0
1340,G#3,65.75,0.25,91,118.0
1341,E3,65.75,0.25,91,118.0
1342,G3,65.992,183/1000,117,118.0
1343,B1,66.0,2/5,127,118.0
1344,C2,66.0,0.75,120,118.0
1345,B1,66.0,2/5,127,118.0
1346,B-2,66.0,0.25,106,118.0
1347,E2,66.0,0.25,106,118.0
1348,B2,66.0,0.25,101,118.0
1349,B3,66.0,0.25,101,118.0
1350,F#3,66.0,0.25,101,118.0
1351,B1,66.5,317/1000,110,118.0
1352,B1,66.5,317/1000,110,118.0
1353,G#2,66.5,0.25,98,118.0
1354,E2,66.5,0.25,98,118.0
1355,B2,66.5,0.5,93,118.0
1356,B3,66.5,0.5,93,118.0
1357,F#3,66.5,0.5,93,118.0
1358,F#2,66.75,0.25,100,118.0
1359,E2,67.0,0.5,113,118.0
1360,B-2,67.0,0.25,94,118.0
1361,C2,67.0,0.25,94,118.0
1362,E2,67.25,0.25,110,118.0
1363,C#2,67.5,0.5,110,118.0
1364,C#2,67.5,0.5,110,118.0
1365,C#3,67.5,0.5,89,118.0
1366,C2,67.5,0.25,88,118.0
1367,G#2,67.5,0.25,88,118.0
1368,G#3,67.5,0.5,88,118.0
1369,C#4,67.5,0.5,88,118.0
1370,A3,67.508,71/500,109,118.0
1371,C#3,67.508,71/500,109,118.0
1372,F#2,67.75,0.25,54,118.0
1373,C#2,68.0,1/40,110,118.0
1374,B-2,68.0,0.25,71,118.0
1375,C4,68.0,417/1000,80,118.0
1376,C#2,68.0,1/40,110,118.0
1377,C#3,68.0,4.0,89,118.0
1378,C2,68.0,0.5,106,118.0
1379,B-2,68.0,0.5,106,118.0
1380,G#3,68.0,3.75,88,118.0
1381,C#4,68.0,3.75,88,118.0
1382,C4,68.25,417/1000,80,118.0
1383,C#2,68.5,117/1000,110,118.0
1384,G#2,68.5,0.25,60,118.0
1385,C#2,68.5,117/1000,110,118.0
1386,C#2,68.75,71/500,110,118.0
1387,F#2,68.75,0.25,104,118.0
1388,C4,68.75,417/1000,80,118.0
1389,C#2,68.75,71/500,110,118.0
1390,C#2,69.0,0.25,127,118.0
1391,C#4,69.0,417/1000,80,118.0
1392,C#2,69.0,0.25,127,118.0
1393,C#4,69.0,833/1000,113,118.0
1394,E2,69.0,0.5,113,118.0
1395,B-2,69.0,0.5,113,118.0
1396,C#2,69.5,117/1000,110,118.0
1397,G#2,69.5,0.25,64,118.0
1398,C#4,69.5,417/1000,80,118.0
1399,E4,69.5,529/500,80,118.0
1400,C#2,69.5,117/1000,110,118.0
1401,C#2,69.75,117/1000,110,118.0
1402,F#2,69.75,0.25,104,118.0
1403,E4,69.75,529/500,80,118.0
1404,C#2,69.75,117/1000,110,118.0
1405,C#2,70.0,3/10,127,118.0
1406,C2,70.0,0.75,53,118.0
1407,B-2,70.0,0.5,104,118.0
1408,C4,70.0,417/1000,80,118.0
1409,C#2,70.0,3/10,127,118.0
1410,B3,70.0,429/500,123,118.0
1411,C#4,70.25,417/1000,80,118.0
1412,C#2,70.5,27/250,110,118.0
1413,G#2,70.5,0.25,79,118.0
1414,C#2,70.5,27/250,110,118.0
1415,C#2,70.75,0.125,110,118.0
1416,F#2,70.75,0.25,104,118.0
1417,C#2,70.75,0.125,110,118.0
1418,C#2,71.0,73/250,127,118.0
1419,C#2,71.0,73/250,127,118.0
1420,G#3,71.0,833/1000,115,118.0
1421,E2,71.0,0.5,116,118.0
1422,B-2,71.0,0.5,116,118.0
1423,C#2,71.5,117/1000,110,118.0
1424,C#2,71.5,117/1000,110,118.0
1425,C2,71.5,0.25,82,118.0
1426,G#2,71.5,0.25,82,118.0
1427,C#2,71.75,27/250,110,118.0
1428,F#2,71.75,0.25,100,118.0
1429,C#4,71.75,0.25,80,118.0
1430,C#2,71.75,27/250,110,118.0
1431,C#2,72.0,73/250,127,118.0
1432,C4,72.0,417/1000,80,118.0
1433,C#4,72.0,167/1000,80,118.0
1434,C#2,72.0,73/250,127,118.0
1435,B3,72.0,171/500,120,118.0
1436,C2,72.0,0.5,118,118.0
1437,B-2,72.0,0.5,118,118.0
1438,C4,72.25,417/1000,80,118.0
1439,C#2,72.5,133/1000,110,118.0
1440,C#2,72.5,133/1000,110,118.0
1441,B3,72.5,417/1000,120,118.0
1442,C#2,72.75,0.125,110,118.0
1443,G#2,72.75,0.25,75,118.0
1444,C4,72.75,417/1000,80,118.0
1445,C#2,72.75,0.125,110,118.0
1446,C#2,73.0,233/1000,127,118.0
1447,E2,73.0,0.5,110,118.0
1448,C#4,73.0,417/1000,80,118.0
1449,C#2,73.0,233/1000,127,118.0
1450,F#2,73.0,0.25,96,118.0
1451,B-2,73.0,0.25,96,118.0
1452,C#2,73.5,117/1000,110,118.0
1453,G#2,73.5,0.25,81,118.0
1454,C#4,73.5,417/1000,80,118.0
1455,E4,73.5,529/500,80,118.0
1456,C#2,73.5,117/1000,110,118.0
1457,B3,73.5,983/1000,125,118.0
1458,C#2,73.75,183/1000,110,118.0
1459,F#2,73.75,0.25,96,118.0
1460,E4,73.75,529/500,80,118.0
1461,C#2,73.75,183/1000,110,118.0
1462,B1,74.0,13/40,127,118.0
1463,C2,74.0,0.75,113,118.0
1464,B-2,74.0,0.25,100,118.0
1465,C4,74.0,417/1000,80,118.0
1466,B1,74.0,13/40,127,118.0
1467,B2,74.0,0.25,96,118.0
1468,B3,74.0,0.25,96,118.0
1469,F#3,74.0,0.25,96,118.0
1470,C#4,74.25,417/1000,80,118.0
1471,B1,74.5,13/40,110,118.0
1472,G#2,74.5,0.25,89,118.0
1473,B1,74.5,13/40,110,118.0
1474,G#3,74.5,7/10,118,118.0
1475,B2,74.5,0.25,87,118.0
1476,F#3,74.5,0.25,87,118.0
1477,B3,74.5,0.25,87,118.0
1478,F#2,74.75,0.25,92,118.0
1479,E2,75.0,0.5,110,118.0
1480,B-2,75.0,0.25,109,118.0
1481,C#2,75.5,0.5,110,118.0
1482,C#2,75.5,0.5,110,118.0
1483,C2,75.5,0.25,82,118.0
1484,G#2,75.5,0.25,82,118.0
1485,C#4,75.5,0.5,93,118.0
1486,G#3,75.5,0.5,93,118.0
1487,C#3,75.5,0.5,93,118.0
1488,F#2,75.75,0.25,92,118.0
1489,C#4,75.75,0.25,80,118.0
1490,C#2,76.0,73/250,110,118.0
1491,C2,76.0,0.5,110,118.0
1492,B-2,76.0,0.25,114,118.0
1493,C4,76.0,417/1000,80,118.0
1494,C#4,76.0,167/1000,80,118.0
1495,C#2,76.0,73/250,110,118.0
1496,C#4,76.0,4.0,93,118.0
1497,G#3,76.0,4.0,93,118.0
1498,C#3,76.0,4.0,93,118.0
1499,C4,76.25,417/1000,80,118.0
1500,C#2,76.5,1/10,110,118.0
1501,G#2,76.5,0.25,77,118.0
1502,C#2,76.5,1/10,110,118.0
1503,C#2,76.75,23/250,110,118.0
1504,F#2,76.75,0.25,96,118.0
1505,C4,76.75,417/1000,80,118.0
1506,C#2,76.75,23/250,110,118.0
1507,C#2,77.0,77/250,127,118.0
1508,E2,77.0,0.75,110,118.0
1509,C#4,77.0,417/1000,80,118.0
1510,C#2,77.0,77/250,127,118.0
1511,C#4,77.0,883/1000,117,118.0
1512,F#2,77.0,0.25,74,118.0
1513,B-2,77.0,0.25,74,118.0
1514,C#2,77.5,1/10,110,118.0
1515,G#2,77.5,0.25,86,118.0
1516,C#4,77.5,417/1000,80,118.0
1517,E4,77.5,529/500,80,118.0
1518,C#2,77.5,1/10,110,118.0
1519,C#2,77.75,23/250,110,118.0
1520,F#2,77.75,0.25,100,118.0
1521,E4,77.75,529/500,80,118.0
1522,C#2,77.75,23/250,110,118.0
1523,C#2,78.0,3/10,127,118.0
1524,C2,78.0,0.75,110,118.0
1525,B-2,78.0,0.25,109,118.0
1526,C4,78.0,417/1000,80,118.0
1527,C#2,78.0,3/10,127,118.0
1528,B3,78.0,33/40,120,118.0
1529,C#4,78.25,417/1000,80,118.0
1530,C#2,78.5,27/250,110,118.0
1531,G#2,78.5,0.25,92,118.0
1532,C#2,78.5,27/250,110,118.0
1533,C#2,78.75,27/250,110,118.0
1534,F#2,78.75,0.25,100,118.0
1535,C#2,78.75,27/250,110,118.0
1536,C#2,79.0,13/40,127,118.0
1537,E2,79.0,0.5,110,118.0
1538,B-2,79.0,0.25,114,118.0
1539,C#2,79.0,13/40,127,118.0
1540,G#3,79.0,17/20,117,118.0
1541,C#2,79.5,0.125,110,118.0
1542,C#2,79.5,0.125,110,118.0
1543,C2,79.5,0.25,77,118.0
1544,G#2,79.5,0.25,77,118.0
1545,C#2,79.75,117/1000,110,118.0
1546,F#2,79.75,0.25,100,118.0
1547,C#4,79.75,0.25,80,118.0
1548,C#2,79.75,117/1000,110,118.0
1549,C#2,80.0,77/250,127,118.0
1550,C2,80.0,0.75,120,118.0
1551,B-2,80.0,0.25,109,118.0
1552,C4,80.0,417/1000,80,118.0
1553,C#4,80.0,167/1000,80,118.0
1554,C#2,80.0,77/250,127,118.0
1555,B3,80.0,101/125,120,118.0
1556,C4,80.25,417/1000,80,118.0
1557,C#2,80.5,0.125,110,118.0
1558,G#2,80.5,0.25,84,118.0
1559,C#2,80.5,0.125,110,118.0
1560,C#4,80.5,0.5,93,118.0
1561,G#3,80.5,0.5,93,118.0
1562,C#3,80.5,0.5,93,118.0
1563,C#2,80.75,0.125,110,118.0
1564,F#2,80.75,0.25,89,118.0
1565,C4,80.75,417/1000,80,118.0
1566,C#2,80.75,0.125,110,118.0
1567,C#2,81.0,317/1000,127,118.0
1568,E2,81.0,0.75,113,118.0
1569,B-2,81.0,0.25,114,118.0
1570,C#4,81.0,417/1000,80,118.0
1571,C#2,81.0,317/1000,127,118.0
1572,B3,81.0,483/1000,120,118.0
1573,C#2,81.5,117/1000,110,118.0
1574,G#2,81.5,0.25,92,118.0
1575,C#4,81.5,417/1000,80,118.0
1576,E4,81.5,529/500,80,118.0
1577,C#2,81.5,117/1000,110,118.0
1578,C#4,81.5,1217/1000,115,118.0
1579,C#2,81.75,79/500,110,118.0
1580,F#2,81.75,0.25,96,118.0
1581,E4,81.75,529/500,80,118.0
1582,C#2,81.75,79/500,110,118.0
1583,B1,82.0,13/40,127,118.0
1584,C2,82.0,0.75,113,118.0
1585,B-2,82.0,0.25,114,118.0
1586,C4,82.0,417/1000,80,118.0
1587,B1,82.0,13/40,127,118.0
1588,C#4,82.25,417/1000,80,118.0
1589,B1,82.5,467/1000,110,118.0
1590,G#2,82.5,0.25,100,118.0
1591,B1,82.5,467/1000,110,118.0
1592,B2,82.5,0.25,86,118.0
1593,B3,82.5,0.5,94,118.0
1594,F#3,82.5,0.5,94,118.0
1595,F#2,82.75,0.25,100,118.0
1596,E2,83.0,0.5,110,118.0
1597,B-2,83.0,0.25,114,118.0
1598,B3,83.0,0.25,82,118.0
1599,B3,83.0,517/1000,120,118.0
1600,B2,83.0,0.5,87,118.0
1601,F#3,83.0,0.5,87,118.0
1602,B1,83.5,417/1000,110,118.0
1603,B1,83.5,417/1000,110,118.0
1604,B-3,83.5,0.5,126,118.0
1605,C2,83.5,0.25,87,118.0
1606,G#2,83.5,0.25,87,118.0
1607,F#2,83.75,0.25,109,118.0
1608,C#4,83.75,0.25,80,118.0
1609,F#1,84.0,171/500,127,118.0
1610,C2,84.0,0.5,113,118.0
1611,B-2,84.0,0.25,109,118.0
1612,C4,84.0,417/1000,80,118.0
1613,C#4,84.0,167/1000,80,118.0
1614,F#1,84.0,171/500,127,118.0
1615,F#2,84.0,0.5,96,118.0
1616,F#3,84.0,0.5,104,118.0
1617,C#3,84.0,0.25,80,118.0
1618,B-3,84.0,683/1000,126,118.0
1619,C4,84.25,417/1000,80,118.0
1620,F#1,84.5,117/1000,110,118.0
1621,G#2,84.5,0.25,96,118.0
1622,F#1,84.5,117/1000,110,118.0
1623,C#3,84.5,4.0,75,118.0
1624,F#2,84.5,4.0,96,118.0
1625,F#3,84.5,4.0,104,118.0
1626,F#1,84.75,117/1000,110,118.0
1627,F#2,84.75,0.25,100,118.0
1628,C4,84.75,417/1000,80,118.0
1629,F#1,84.75,117/1000,110,118.0
1630,F#1,85.0,3/10,127,118.0
1631,E2,85.0,0.75,110,118.0
1632,B-2,85.0,0.25,114,118.0
1633,C#4,85.0,417/1000,80,118.0
1634,F#1,85.0,3/10,127,118.0
1635,B-3,85.0,177/250,123,118.0
1636,F#1,85.5,0.125,110,118.0
1637,G#2,85.5,0.25,92,118.0
1638,C#4,85.5,417/1000,80,118.0
1639,E4,85.5,529/500,80,118.0
1640,F#1,85.5,0.125,110,118.0
1641,F#1,85.75,133/1000,110,118.0
1642,F#2,85.75,0.25,100,118.0
1643,E4,85.75,529/500,80,118.0
1644,F#1,85.75,133/1000,110,118.0
1645,F#1,86.0,317/1000,127,118.0
1646,C2,86.0,0.75,120,118.0
1647,B-2,86.0,0.25,114,118.0
1648,C4,86.0,417/1000,80,118.0
1649,F#1,86.0,317/1000,127,118.0
1650,B-3,86.0,783/1000,126,118.0
1651,C#4,86.25,417/1000,80,118.0
1652,F#1,86.5,27/250,110,118.0
1653,G#2,86.5,0.25,96,118.0
1654,F#1,86.5,27/250,110,118.0
1655,F#1,86.75,27/250,110,118.0
1656,F#2,86.75,0.25,100,118.0
1657,F#1,86.75,27/250,110,118.0
1658,F#1,87.0,333/1000,127,118.0
1659,E2,87.0,0.5,117,118.0
1660,B-2,87.0,0.25,100,118.0
1661,F#1,87.0,333/1000,127,118.0
1662,B-3,87.0,177/250,125,118.0
1663,F#1,87.5,117/1000,110,118.0
1664,F#1,87.5,117/1000,110,118.0
1665,C2,87.5,0.25,90,118.0
1666,G#2,87.5,0.25,90,118.0
1667,F#1,87.75,117/1000,110,118.0
1668,F#2,87.75,0.25,92,118.0
1669,C#4,87.75,0.25,80,118.0
1670,F#1,87.75,117/1000,110,118.0
1671,F#1,88.0,3/10,127,118.0
1672,C2,88.0,0.5,110,118.0
1673,B-2,88.0,0.25,104,118.0
1674,C4,88.0,417/1000,80,118.0
1675,C#4,88.0,167/1000,80,118.0
1676,F#1,88.0,3/10,127,118.0
1677,B-3,88.0,283/1000,117,118.0
1678,C4,88.25,417/1000,80,118.0
1679,F#1,88.5,71/500,110,118.0
1680,G#2,88.5,0.25,81,118.0
1681,F#1,88.5,71/500,110,118.0
1682,C#3,88.5,0.25,75,118.0
1683,F#2,88.5,0.25,96,118.0
1684,B-3,88.5,0.75,118,118.0
1685,F#1,88.75,0.125,110,118.0
1686,F#2,88.75,0.25,96,118.0
1687,C4,88.75,417/1000,80,118.0
1688,F#1,88.75,0.125,110,118.0
1689,F#1,89.0,383/1000,127,118.0
1690,E2,89.0,0.5,110,118.0
1691,B-2,89.0,0.25,109,118.0
1692,C#4,89.0,417/1000,80,118.0
1693,F#1,89.0,383/1000,127,118.0
1694,F#1,89.5,71/500,110,118.0
1695,G#2,89.5,0.25,81,118.0
1696,C#4,89.5,417/1000,80,118.0
1697,E4,89.5,529/500,80,118.0
1698,F#1,89.5,71/500,110,118.0
1699,B-3,89.5,126/125,120,118.0
1700,F#1,89.75,71/500,110,118.0
1701,F#2,89.75,0.25,96,118.0
1702,E4,89.75,529/500,80,118.0
1703,F#1,89.75,71/500,110,118.0
1704,B1,90.0,171/500,127,118.0
1705,C2,90.0,0.5,120,118.0
1706,B-2,90.0,0.25,109,118.0
1707,C4,90.0,417/1000,80,118.0
1708,B1,90.0,171/500,127,118.0
1709,C#4,90.25,417/1000,80,118.0
1710,B1,90.5,283/1000,110,118.0
1711,G#2,90.5,0.25,92,118.0
1712,B1,90.5,283/1000,110,118.0
1713,G#3,90.5,1.5,120,118.0
1714,E-2,90.5,0.5,94,118.0
1715,E-3,90.5,0.5,94,118.0
1716,F#2,90.75,0.25,86,118.0
1717,E2,91.0,0.5,120,118.0
1718,B-2,91.0,0.25,109,118.0
1719,E-2,91.0,0.25,84,118.0
1720,E-3,91.0,0.25,84,118.0
1721,E1,91.5,0.5,110,118.0
1722,E1,91.5,0.5,110,118.0
1723,C2,91.5,0.25,76,118.0
1724,G#2,91.5,0.25,76,118.0
1725,F#2,91.75,0.25,104,118.0
1726,C#4,91.75,0.25,80,118.0
1727,E1,92.0,233/1000,110,118.0
1728,C2,92.0,0.5,113,118.0
1729,B-2,92.0,0.25,114,118.0
1730,C4,92.0,417/1000,80,118.0
1731,C#4,92.0,167/1000,80,118.0
1732,E1,92.0,233/1000,110,118.0
1733,E2,92.0,0.5,99,118.0
1734,G#3,92.0,1/10,120,118.0
1735,E3,92.0,0.5,106,118.0
1736,B2,92.0,0.5,106,118.0
1737,C4,92.25,417/1000,80,118.0
1738,E1,92.5,27/250,110,118.0
1739,G#2,92.5,0.25,92,118.0
1740,E1,92.5,27/250,110,118.0
1741,E2,92.5,2.5,99,118.0
1742,E3,92.5,2.75,106,118.0
1743,B2,92.5,2.75,106,118.0
1744,E1,92.75,27/250,110,118.0
1745,F#2,92.75,0.25,96,118.0
1746,C4,92.75,417/1000,80,118.0
1747,E1,92.75,27/250,110,118.0
1748,E1,93.0,129/500,127,118.0
1749,E2,93.0,0.75,110,118.0
1750,B-2,93.0,0.25,104,118.0
1751,C#4,93.0,417/1000,80,118.0
1752,E1,93.0,129/500,127,118.0
1753,G#3,93.0,371/500,123,118.0
1754,E1,93.5,117/1000,110,118.0
1755,G#2,93.5,0.25,92,118.0
1756,C#4,93.5,417/1000,80,118.0
1757,E4,93.5,529/500,80,118.0
1758,E1,93.5,117/1000,110,118.0
1759,E1,93.75,117/1000,110,118.0
1760,F#2,93.75,0.25,104,118.0
1761,E4,93.75,529/500,80,118.0
1762,E1,93.75,117/1000,110,118.0
1763,E1,94.0,283/1000,127,118.0
1764,C2,94.0,0.75,110,118.0
1765,B-2,94.0,0.25,109,118.0
1766,C4,94.0,417/1000,80,118.0
1767,E1,94.0,283/1000,127,118.0
1768,B3,94.0,429/500,125,118.0
1769,C#4,94.25,417/1000,80,118.0
1770,E1,94.5,117/1000,110,118.0
1771,G#2,94.5,0.25,104,118.0
1772,E1,94.5,117/1000,110,118.0
1773,E1,94.75,27/250,110,118.0
1774,F#2,94.75,0.25,104,118.0
1775,E1,94.75,27/250,110,118.0
1776,E1,95.0,77/250,127,118.0
1777,E1,95.0,77/250,127,118.0
1778,C#4,95.0,371/500,118,118.0
1779,E2,95.0,0.25,111,118.0
1780,B-2,95.0,0.25,111,118.0
1781,E1,95.5,117/1000,110,118.0
1782,E1,95.5,117/1000,110,118.0
1783,C2,95.5,0.25,97,118.0
1784,G#2,95.5,0.25,97,118.0
1785,E1,95.75,0.125,110,118.0
1786,F#2,95.75,0.25,96,118.0
1787,C#4,95.75,0.25,80,118.0
1788,E1,95.75,0.125,110,118.0
1789,E1,96.0,13/40,127,118.0
1790,C2,96.0,0.5,117,118.0
1791,B-2,96.0,0.25,109,118.0
1792,C4,96.0,417/1000,80,118.0
1793,C#4,96.0,167/1000,80,118.0
1794,E1,96.0,13/40,127,118.0
1795,C#4,96.0,271/500,118,118.0
1796,C4,96.25,417/1000,80,118.0
1797,E1,96.5,117/1000,110,118.0
1798,G#2,96.5,0.25,104,118.0
1799,E1,96.5,117/1000,110,118.0
1800,G#3,96.5,1.0,115,118.0
1801,E1,96.75,133/1000,110,118.0
1802,F#2,96.75,0.25,92,118.0
1803,C4,96.75,417/1000,80,118.0
1804,E1,96.75,133/1000,110,118.0
1805,E1,97.0,77/250,127,118.0
1806,E2,97.0,0.5,113,118.0
1807,B-2,97.0,0.25,104,118.0
1808,C#4,97.0,417/1000,80,118.0
1809,E1,97.0,77/250,127,118.0
1810,E1,97.5,117/1000,110,118.0
1811,G#2,97.5,0.25,96,118.0
1812,C#4,97.5,417/1000,80,118.0
1813,E4,97.5,529/500,80,118.0
1814,E1,97.5,117/1000,110,118.0
1815,B3,97.5,1567/1000,125,118.0
1816,E1,97.75,129/500,110,118.0
1817,F#2,97.75,0.25,96,118.0
1818,E4,97.75,529/500,80,118.0
1819,E1,97.75,129/500,110,118.0
1820,B1,98.0,317/1000,127,118.0
1821,C2,98.0,0.75,120,118.0
1822,B-2,98.0,0.25,109,118.0
1823,C4,98.0,417/1000,80,118.0
1824,B1,98.0,317/1000,127,118.0
1825,C#4,98.25,417/1000,80,118.0
1826,B1,98.5,267/1000,110,118.0
1827,G#2,98.5,0.25,96,118.0
1828,B1,98.5,267/1000,110,118.0
1829,B2,98.5,0.25,97,118.0
1830,B3,98.5,0.25,97,118.0
1831,F#3,98.5,0.25,97,118.0
1832,F#2,98.75,0.25,100,118.0
1833,E2,99.0,0.5,113,118.0
1834,B-2,99.0,0.25,114,118.0
1835,F#3,99.0,0.25,83,118.0
1836,B2,99.0,0.25,83,118.0
1837,B3,99.0,0.25,83,118.0
1838,C#2,99.5,0.5,110,118.0
1839,C#2,99.5,0.5,110,118.0
1840,C2,99.5,0.25,88,118.0
1841,G#2,99.5,0.25,88,118.0
1842,F#2,99.75,0.25,54,118.0
1843,C#4,99.75,0.25,80,118.0
1844,C#2,100.0,77/250,110,118.0
1845,B-2,100.0,0.25,71,118.0
1846,C4,100.0,417/1000,80,118.0
1847,C#4,100.0,167/1000,80,118.0
1848,C#2,100.0,77/250,110,118.0
1849,C#3,100.0,0.5,84,118.0
1850,C2,100.0,0.5,106,118.0
1851,B-2,100.0,0.5,106,118.0
1852,C#4,100.0,0.5,92,118.0
1853,G#3,100.0,0.5,92,118.0
1854,C4,100.25,417/1000,80,118.0
1855,C#2,100.5,27/250,110,118.0
1856,G#2,100.5,0.25,60,118.0
1857,C#2,100.5,27/250,110,118.0
1858,C#3,100.5,3.75,84,118.0
1859,C#4,100.5,3.5,92,118.0
1860,G#3,100.5,3.5,92,118.0
1861,C#2,100.75,117/1000,110,118.0
1862,F#2,100.75,0.25,104,118.0
1863,C4,100.75,417/1000,80,118.0
1864,C#2,100.75,117/1000,110,118.0
1865,C#2,101.0,317/1000,127,118.0
1866,C#4,101.0,417/1000,80,118.0
1867,C#2,101.0,317/1000,127,118.0
1868,C#4,101.0,227/250,118,118.0
1869,E2,101.0,0.5,113,118.0
1870,B-2,101.0,0.5,113,118.0
1871,C#2,101.5,117/1000,110,118.0
1872,G#2,101.5,0.25,64,118.0
1873,C#4,101.5,417/1000,80,118.0
1874,E4,101.5,529/500,80,118.0
1875,C#2,101.5,117/1000,110,118.0
1876,C#2,101.75,133/1000,110,118.0
1877,F#2,101.75,0.25,104,118.0
1878,E4,101.75,529/500,80,118.0
1879,C#2,101.75,133/1000,110,118.0
1880,C#2,102.0,179/500,127,118.0
1881,C2,102.0,0.75,53,118.0
1882,B-2,102.0,0.5,104,118.0
1883,C4,102.0,417/1000,80,118.0
1884,C#2,102.0,179/500,127,118.0
1885,B3,102.0,329/500,120,118.0
1886,C#4,102.25,417/1000,80,118.0
1887,C#2,102.5,3/20,110,118.0
1888,G#2,102.5,0.25,79,118.0
1889,C#2,102.5,3/20,110,118.0
1890,C#2,102.75,117/1000,110,118.0
1891,F#2,102.75,0.25,104,118.0
1892,C#2,102.75,117/1000,110,118.0
1893,C#2,103.0,3/10,127,118.0
1894,C#2,103.0,3/10,127,118.0
1895,E2,103.0,0.5,116,118.0
1896,B-2,103.0,0.5,116,118.0
1897,C#2,103.5,0.125,110,118.0
1898,C#2,103.5,0.125,110,118.0
1899,C2,103.5,0.25,82,118.0
1900,G#2,103.5,0.25,82,118.0
1901,C#2,103.75,117/1000,110,118.0
1902,F#2,103.75,0.25,100,118.0
1903,C#4,103.75,0.25,80,118.0
1904,C#2,103.75,117/1000,110,118.0
1905,C#2,104.0,13/40,127,118.0
1906,C4,104.0,417/1000,80,118.0
1907,C#4,104.0,167/1000,80,118.0
1908,C#2,104.0,13/40,127,118.0
1909,B3,104.0,77/250,126,118.0
1910,C2,104.0,0.5,118,118.0
1911,B-2,104.0,0.5,118,118.0
1912,C4,104.25,417/1000,80,118.0
1913,C#2,104.5,133/1000,110,118.0
1914,C#2,104.5,133/1000,110,118.0
1915,B3,104.5,329/500,115,118.0
1916,C#2,104.75,71/500,110,118.0
1917,G#2,104.75,0.25,75,118.0
1918,C4,104.75,417/1000,80,118.0
1919,C#2,104.75,71/500,110,118.0
1920,C#2,105.0,317/1000,127,118.0
1921,E2,105.0,0.5,110,118.0
1922,C#4,105.0,417/1000,80,118.0
1923,C#2,105.0,317/1000,127,118.0
1924,F#2,105.0,0.25,96,118.0
1925,B-2,105.0,0.25,96,118.0
1926,C#2,105.5,117/1000,110,118.0
1927,G#2,105.5,0.25,81,118.0
1928,C#4,105.5,417/1000,80,118.0
1929,E4,105.5,529/500,80,118.0
1930,C#2,105.5,117/1000,110,118.0
1931,B3,105.5,126/125,120,118.0
1932,C#2,105.75,183/1000,110,118.0
1933,F#2,105.75,0.25,96,118.0
1934,E4,105.75,529/500,80,118.0
1935,C#2,105.75,183/1000,110,118.0
1936,B1,106.0,221/500,127,118.0
1937,C2,106.0,0.75,113,118.0
1938,B-2,106.0,0.25,100,118.0
1939,C4,106.0,417/1000,80,118.0
1940,B1,106.0,221/500,127,118.0
1941,C#4,106.25,417/1000,80,118.0
1942,B1,106.5,179/500,110,118.0
1943,G#2,106.5,0.25,89,118.0
1944,B1,106.5,179/500,110,118.0
1945,G#3,106.5,1.5,117,118.0
1946,B2,106.5,0.25,93,118.0
1947,B3,106.5,0.25,93,118.0
1948,F#3,106.5,0.25,93,118.0
1949,F#2,106.75,0.25,92,118.0
1950,E2,107.0,0.5,110,118.0
1951,B-2,107.0,0.25,109,118.0
1952,B3,107.0,0.25,87,118.0
1953,F#3,107.0,0.25,87,118.0
1954,B2,107.0,0.25,87,118.0
1955,C#2,107.5,0.5,110,118.0
1956,C#2,107.5,0.5,110,118.0
1957,C2,107.5,0.25,82,118.0
1958,G#2,107.5,0.25,82,118.0
1959,F#2,107.75,0.25,92,118.0
1960,C#4,107.75,0.25,80,118.0
1961,C#2,108.0,77/250,110,118.0
1962,C2,108.0,0.5,110,118.0
1963,B-2,108.0,0.25,114,118.0
1964,C4,108.0,417/1000,80,118.0
1965,C#4,108.0,167/1000,80,118.0
1966,C#2,108.0,77/250,110,118.0
1967,G#3,108.0,1/40,117,118.0
1968,C#4,108.0,0.5,85,118.0
1969,C#3,108.0,0.5,85,118.0
1970,G#3,108.0,0.5,85,118.0
1971,C4,108.25,417/1000,80,118.0
1972,C#2,108.5,133/1000,110,118.0
1973,G#2,108.5,0.25,77,118.0
1974,C#2,108.5,133/1000,110,118.0
1975,G#3,108.5,19/40,118,118.0
1976,C#4,108.5,4.0,85,118.0
1977,C#3,108.5,4.0,85,118.0
1978,G#3,108.5,4.0,85,118.0
1979,C#2,108.75,0.125,110,118.0
1980,F#2,108.75,0.25,96,118.0
1981,C4,108.75,417/1000,80,118.0
1982,C#2,108.75,0.125,110,118.0
1983,C#2,109.0,317/1000,127,118.0
1984,E2,109.0,0.75,110,118.0
1985,C#4,109.0,417/1000,80,118.0
1986,C#2,109.0,317/1000,127,118.0
1987,C#4,109.0,1067/1000,118,118.0
1988,F#2,109.0,0.25,74,118.0
1989,B-2,109.0,0.25,74,118.0
1990,C#2,109.5,117/1000,110,118.0
1991,G#2,109.5,0.25,86,118.0
1992,C#4,109.5,417/1000,80,118.0
1993,E4,109.5,529/500,80,118.0
1994,C#2,109.5,117/1000,110,118.0
1995,C#2,109.75,133/1000,110,118.0
1996,F#2,109.75,0.25,100,118.0
1997,E4,109.75,529/500,80,118.0
1998,C#2,109.75,133/1000,110,118.0
1999,C#2,110.0,77/250,127,118.0
2000,C2,110.0,0.75,110,118.0
2001,B-2,110.0,0.25,109,118.0
2002,C4,110.0,417/1000,80,118.0
2003,C#2,110.0,77/250,127,118.0
2004,B3,110.0,667/1000,120,118.0
2005,C#4,110.25,417/1000,80,118.0
2006,C#2,110.5,133/1000,110,118.0
2007,G#2,110.5,0.25,92,118.0
2008,C#2,110.5,133/1000,110,118.0
2009,C#2,110.75,0.125,110,118.0
2010,F#2,110.75,0.25,100,118.0
2011,C#2,110.75,0.125,110,118.0
2012,C#2,111.0,283/1000,127,118.0
2013,E2,111.0,0.5,110,118.0
2014,B-2,111.0,0.25,114,118.0
2015,C#2,111.0,283/1000,127,118.0
2016,C#2,111.5,133/1000,110,118.0
2017,C#2,111.5,133/1000,110,118.0
2018,G#3,111.5,0.5,115,118.0
2019,C2,111.5,0.25,77,118.0
2020,G#2,111.5,0.25,77,118.0
2021,C#2,111.75,0.125,110,118.0
2022,F#2,111.75,0.25,100,118.0
2023,C#4,111.75,0.25,80,118.0
2024,C#2,111.75,0.125,110,118.0
2025,C#2,112.0,73/250,127,118.0
2026,C2,112.0,0.75,120,118.0
2027,B-2,112.0,0.25,109,118.0
2028,C4,112.0,417/1000,80,118.0
2029,C#4,112.0,167/1000,80,118.0
2030,C#2,112.0,73/250,127,118.0
2031,B3,112.0,29/40,123,118.0
2032,G#3,112.0,23/250,115,118.0
2033,C4,112.25,417/1000,80,118.0
2034,C#2,112.5,117/1000,110,118.0
2035,G#2,112.5,0.25,84,118.0
2036,C#2,112.5,117/1000,110,118.0
2037,C#2,112.75,27/250,110,118.0
2038,F#2,112.75,0.25,89,118.0
2039,C4,112.75,417/1000,80,118.0
2040,C#2,112.75,27/250,110,118.0
2041,C#4,112.75,0.25,85,118.0
2042,C#3,112.75,0.25,85,118.0
2043,G#3,112.75,0.25,85,118.0
2044,C#2,113.0,77/250,127,118.0
2045,E2,113.0,0.75,113,118.0
2046,B-2,113.0,0.25,114,118.0
2047,C#4,113.0,417/1000,80,118.0
2048,C#2,113.0,77/250,127,118.0
2049,B3,113.0,279/500,123,118.0
2050,C#2,113.5,27/250,110,118.0
2051,G#2,113.5,0.25,92,118.0
2052,C#4,113.5,417/1000,80,118.0
2053,E4,113.5,529/500,80,118.0
2054,C#2,113.5,27/250,110,118.0
2055,C#4,113.5,327/250,117,118.0
2056,C#2,113.75,117/1000,110,118.0
2057,F#2,113.75,0.25,96,118.0
2058,E4,113.75,529/500,80,118.0
2059,C#2,113.75,117/1000,110,118.0
2060,B1,114.0,51/125,127,118.0
2061,C2,114.0,0.75,113,118.0
2062,B-2,114.0,0.25,114,118.0
2063,C4,114.0,417/1000,80,118.0
2064,B1,114.0,51/125,127,118.0
2065,C#4,114.25,417/1000,80,118.0
2066,B1,114.5,467/1000,110,118.0
2067,G#2,114.5,0.25,100,118.0
2068,B1,114.5,467/1000,110,118.0
2069,F#2,114.75,0.25,100,118.0
2070,B2,114.75,0.25,94,118.0
2071,F#3,114.75,0.25,94,118.0
2072,B3,114.75,0.25,94,118.0
2073,E2,115.0,0.5,110,118.0
2074,B-2,115.0,0.25,114,118.0
2075,B3,115.0,517/1000,125,118.0
2076,B2,115.25,0.5,97,118.0
2077,B3,115.25,0.25,92,118.0
2078,F#3,115.25,0.25,92,118.0
2079,F#1,115.5,9/20,110,118.0
2080,F#1,115.5,9/20,110,118.0
2081,B-3,115.5,0.5,126,118.0
2082,C2,115.5,0.25,87,118.0
2083,G#2,115.5,0.25,87,118.0
2084,F#2,115.75,0.25,109,118.0
2085,C#4,115.75,0.25,80,118.0
2086,F#1,116.0,417/1000,127,118.0
2087,C2,116.0,0.5,113,118.0
2088,B-2,116.0,0.25,109,118.0
2089,C4,116.0,417/1000,80,118.0
2090,C#4,116.0,167/1000,80,118.0
2091,F#1,116.0,417/1000,127,118.0
2092,B-3,116.0,1017/1000,126,118.0
2093,C4,116.25,417/1000,80,118.0
2094,F#2,116.25,0.5,77,118.0
2095,F#3,116.25,0.5,96,118.0
2096,F#1,116.5,27/250,110,118.0
2097,G#2,116.5,0.25,96,118.0
2098,F#1,116.5,27/250,110,118.0
2099,F#1,116.75,117/1000,110,118.0
2100,F#2,116.75,0.25,100,118.0
2101,C4,116.75,417/1000,80,118.0
2102,F#1,116.75,117/1000,110,118.0
2103,F#2,116.75,4.0,77,118.0
2104,F#3,116.75,4.0,96,118.0
2105,F#1,117.0,317/1000,127,118.0
2106,E2,117.0,0.75,110,118.0
2107,B-2,117.0,0.25,114,118.0
2108,C#4,117.0,417/1000,80,118.0
2109,F#1,117.0,317/1000,127,118.0
2110,G#3,117.0,0.5,117,118.0
2111,F#1,117.5,0.125,110,118.0
2112,G#2,117.5,0.25,92,118.0
2113,C#4,117.5,417/1000,80,118.0
2114,E4,117.5,529/500,80,118.0
2115,F#1,117.5,0.125,110,118.0
2116,F#3,117.5,1533/1000,126,118.0
2117,F#1,117.75,0.125,110,118.0
2118,F#2,117.75,0.25,100,118.0
2119,E4,117.75,529/500,80,118.0
2120,F#1,117.75,0.125,110,118.0
2121,F#1,118.0,317/1000,127,118.0
2122,C2,118.0,0.75,120,118.0
2123,B-2,118.0,0.25,114,118.0
2124,C4,118.0,417/1000,80,118.0
2125,F#1,118.0,317/1000,127,118.0
2126,C#4,118.25,417/1000,80,118.0
2127,F#1,118.5,133/1000,110,118.0
2128,G#2,118.5,0.25,96,118.0
2129,F#1,118.5,133/1000,110,118.0
2130,F#1,118.75,117/1000,110,118.0
2131,F#2,118.75,0.25,100,118.0
2132,F#1,118.75,117/1000,110,118.0
2133,F#1,119.0,317/1000,127,118.0
2134,E2,119.0,0.5,117,118.0
2135,B-2,119.0,0.25,100,118.0
2136,F#1,119.0,317/1000,127,118.0
2137,F#1,119.5,0.125,110,118.0
2138,F#1,119.5,0.125,110,118.0
2139,C2,119.5,0.25,90,118.0
2140,G#2,119.5,0.25,90,118.0
2141,F#1,119.75,117/1000,110,118.0
2142,F#2,119.75,0.25,92,118.0
2143,C#4,119.75,0.25,80,118.0
2144,F#1,119.75,117/1000,110,118.0
2145,F#1,120.0,13/40,127,118.0
2146,C2,120.0,0.5,110,118.0
2147,B-2,120.0,0.25,104,118.0
2148,C4,120.0,417/1000,80,118.0
2149,C#4,120.0,167/1000,80,118.0
2150,F#1,120.0,13/40,127,118.0
2151,B-3,120.0,567/1000,125,118.0
2152,C4,120.25,417/1000,80,118.0
2153,F#1,120.5,133/1000,110,118.0
2154,G#2,120.5,0.25,81,118.0
2155,F#1,120.5,133/1000,110,118.0
2156,B3,120.5,279/500,125,118.0
2157,F#1,120.75,3/20,110,118.0
2158,F#2,120.75,0.25,96,118.0
2159,C4,120.75,417/1000,80,118.0
2160,F#1,120.75,3/20,110,118.0
2161,F#2,120.75,0.25,77,118.0
2162,F#1,121.0,11/40,127,118.0
2163,E2,121.0,0.5,110,118.0
2164,B-2,121.0,0.25,109,118.0
2165,C#4,121.0,417/1000,80,118.0
2166,F#1,121.0,11/40,127,118.0
2167,C#4,121.0,11/20,118,118.0
2168,F#1,121.5,23/250,110,118.0
2169,G#2,121.5,0.25,81,118.0
2170,C#4,121.5,417/1000,80,118.0
2171,E4,121.5,529/500,80,118.0
2172,F#1,121.5,23/250,110,118.0
2173,E-4,121.5,39/40,110,118.0
2174,F#1,121.75,73/250,110,118.0
2175,F#2,121.75,0.25,96,118.0
2176,E4,121.75,529/500,80,118.0
2177,F#1,121.75,73/250,110,118.0
2178,B1,122.0,171/500,127,118.0
2179,C2,122.0,0.5,120,118.0
2180,B-2,122.0,0.25,109,118.0
2181,C4,122.0,417/1000,80,118.0
2182,B1,122.0,171/500,127,118.0
2183,C#4,122.25,417/1000,80,118.0
2184,B1,122.5,417/1000,110,118.0
2185,G#2,122.5,0.25,92,118.0
2186,B1,122.5,417/1000,110,118.0
2187,C#4,122.5,3/5,117,118.0
2188,F#2,122.75,0.25,86,118.0
2189,E-2,122.75,0.25,82,118.0
2190,E-3,122.75,0.25,82,118.0
2191,E2,123.0,0.5,120,118.0
2192,B-2,123.0,0.25,109,118.0
2193,B3,123.0,11/20,118,118.0
2194,E-2,123.25,0.25,86,118.0
2195,E-3,123.25,0.5,71,118.0
2196,E1,123.5,0.5,110,118.0
2197,E1,123.5,0.5,110,118.0
2198,C#4,123.5,0.5,117,118.0
2199,C2,123.5,0.25,76,118.0
2200,G#2,123.5,0.25,76,118.0
2201,F#2,123.75,0.25,104,118.0
2202,C#4,123.75,0.25,80,118.0
2203,E1,124.0,233/1000,110,118.0
2204,C2,124.0,0.5,113,118.0
2205,B-2,124.0,0.25,114,118.0
2206,C4,124.0,417/1000,80,118.0
2207,C#4,124.0,167/1000,80,118.0
2208,E1,124.0,233/1000,110,118.0
2209,C#4,124.0,279/500,117,118.0
2210,C4,124.25,417/1000,80,118.0
2211,B2,124.25,0.5,109,118.0
2212,E2,124.25,0.5,96,118.0
2213,E3,124.25,0.5,96,118.0
2214,E1,124.5,117/1000,110,118.0
2215,G#2,124.5,0.25,92,118.0
2216,E1,124.5,117/1000,110,118.0
2217,B3,124.5,127/250,118,118.0
2218,E1,124.75,1/10,110,118.0
2219,F#2,124.75,0.25,96,118.0
2220,C4,124.75,417/1000,80,118.0
2221,E1,124.75,1/10,110,118.0
2222,B2,124.75,0.75,109,118.0
2223,E2,124.75,3.25,96,118.0
2224,E3,124.75,3.25,96,118.0
2225,E1,125.0,13/40,127,118.0
2226,E2,125.0,0.75,110,118.0
2227,B-2,125.0,0.25,104,118.0
2228,C#4,125.0,417/1000,80,118.0
2229,E1,125.0,13/40,127,118.0
2230,G#3,125.0,427/250,118,118.0
2231,E1,125.5,117/1000,110,118.0
2232,G#2,125.5,0.25,92,118.0
2233,C#4,125.5,417/1000,80,118.0
2234,E4,125.5,529/500,80,118.0
2235,E1,125.5,117/1000,110,118.0
2236,E1,125.75,1/10,110,118.0
2237,F#2,125.75,0.25,104,118.0
2238,E4,125.75,529/500,80,118.0
2239,E1,125.75,1/10,110,118.0
2240,E1,126.0,179/500,127,118.0
2241,C2,126.0,0.75,110,118.0
2242,B-2,126.0,0.25,109,118.0
2243,C4,126.0,417/1000,80,118.0
2244,E1,126.0,179/500,127,118.0
2245,C#4,126.25,417/1000,80,118.0
2246,E1,126.5,27/250,110,118.0
2247,G#2,126.5,0.25,104,118.0
2248,E1,126.5,27/250,110,118.0
2249,E1,126.75,0.125,110,118.0
2250,F#2,126.75,0.25,104,118.0
2251,E1,126.75,0.125,110,118.0
2252,E1,127.0,51/125,127,118.0
2253,E1,127.0,51/125,127,118.0
2254,G#3,127.0,717/1000,127,118.0
2255,E2,127.0,0.25,111,118.0
2256,B-2,127.0,0.25,111,118.0
2257,E1,127.5,27/250,110,118.0
2258,E1,127.5,27/250,110,118.0
2259,C2,127.5,0.25,97,118.0
2260,G#2,127.5,0.25,97,118.0
2261,E1,127.75,117/1000,110,118.0
2262,F#2,127.75,0.25,96,118.0
2263,C#4,127.75,0.25,80,118.0
2264,E1,127.75,117/1000,110,118.0
2265,E1,128.0,17/40,127,118.0
2266,C2,128.0,0.5,117,118.0
2267,B-2,128.0,0.25,109,118.0
2268,C4,128.0,417/1000,80,118.0
2269,C#4,128.0,167/1000,80,118.0
2270,E1,128.0,17/40,127,118.0
2271,G#3,128.0,567/1000,127,118.0
2272,C4,128.25,417/1000,80,118.0
2273,F#1,128.5,17/40,110,118.0
2274,G#2,128.5,0.25,104,118.0
2275,F#1,128.5,17/40,110,118.0
2276,B-3,128.5,76/125,120,118.0
2277,F#2,128.75,0.25,92,118.0
2278,C4,128.75,417/1000,80,118.0
2279,E2,128.75,0.25,96,118.0
2280,B2,128.75,0.25,96,118.0
2281,E3,128.75,0.25,96,118.0
2282,E2,129.0,0.5,113,118.0
2283,B-2,129.0,0.25,104,118.0
2284,C#4,129.0,417/1000,80,118.0
2285,F#3,129.25,0.5,102,118.0
2286,C#3,129.25,0.5,102,118.0
2287,F#2,129.25,0.5,102,118.0
2288,F#1,129.5,1917/1000,110,118.0
2289,G#2,129.5,0.25,96,118.0
2290,C#4,129.5,417/1000,80,118.0
2291,E4,129.5,529/500,80,118.0
2292,F#1,129.5,1917/1000,110,118.0
2293,B-3,129.5,567/1000,126,118.0
2294,F#2,129.75,0.25,96,118.0
2295,E4,129.75,529/500,80,118.0
2296,C2,130.0,0.75,120,118.0
2297,B-2,130.0,0.25,109,118.0
2298,C4,130.0,417/1000,80,118.0
2299,C#4,130.25,417/1000,80,118.0
2300,F#3,130.25,1.5,111,118.0
2301,C#3,130.25,1.5,111,118.0
2302,F#2,130.25,1.5,111,118.0
2303,G#2,130.5,0.25,96,118.0
2304,F#2,130.75,0.25,100,118.0
2305,E2,131.0,0.5,113,118.0
2306,B-2,131.0,0.25,114,118.0
2307,F#1,131.5,117/1000,110,118.0
2308,F#1,131.5,117/1000,110,118.0
2309,C2,131.5,0.25,88,118.0
2310,G#2,131.5,0.25,88,118.0
2311,F#1,131.75,0.25,110,118.0
2312,F#2,131.75,0.25,54,118.0
2313,C#4,131.75,0.25,80,118.0
2314,F#1,131.75,0.25,110,118.0
2315,B1,132.0,11/40,127,118.0
2316,B-2,132.0,0.25,71,118.0
2317,C#4,132.0,167/1000,80,118.0
2318,B1,132.0,11/40,127,118.0
2319,B1,132.0,1.0,99,118.0
2320,B2,132.0,0.25,106,118.0
2321,C2,132.0,0.5,106,118.0
2322,B-2,132.0,0.5,106,118.0
2323,E-4,132.0,0.75,101,118.0
2324,B3,132.0,0.75,101,118.0
2325,F#3,132.0,0.75,101,118.0
2326,F#3,132.0,2.875,110,118.0
2327,F#3,132.0,2.875,110,118.0
2328,B2,132.0,3083/1000,110,118.0
2329,B3,132.0,3083/1000,110,118.0
2330,B2,132.0,3083/1000,110,118.0
2331,B3,132.0,3083/1000,110,118.0
2332,C#4,132.0,1667/1000,127,118.0
2333,C#4,132.0,1667/1000,127,118.0
2334,B-3,132.0,1.5,120,118.0
2335,C#4,132.0,1.5,120,118.0
2336,B1,132.5,133/1000,110,118.0
2337,G#2,132.5,0.25,60,118.0
2338,B1,132.5,133/1000,110,118.0
2339,B2,132.5,0.75,96,118.0
2340,B1,132.75,117/1000,110,118.0
2341,F#2,132.75,0.25,104,118.0
2342,B1,132.75,117/1000,110,118.0
2343,B-2,132.75,1.25,71,118.0
2344,B-3,132.75,1.25,71,118.0
2345,F3,132.75,1.25,71,118.0
2346,B1,133.0,13/40,127,118.0
2347,B1,133.0,13/40,127,118.0
2348,E2,133.0,0.5,113,118.0
2349,B-2,133.0,0.5,113,118.0
2350,B3,133.0,0.5,105,118.0
2351,F#3,133.0,0.5,105,118.0
2352,E-4,133.0,0.5,105,118.0
2353,B1,133.5,0.125,110,118.0
2354,G#2,133.5,0.25,64,118.0
2355,B1,133.5,0.125,110,118.0
2356,B2,133.5,0.25,121,118.0
2357,E-4,133.5,1029/500,113,118.0
2358,B3,133.5,249/125,120,118.0
2359,E-4,133.5,2033/1000,127,118.0
2360,E-4,133.5,2033/1000,127,118.0
2361,B1,133.75,133/1000,110,118.0
2362,F#2,133.75,0.25,104,118.0
2363,B1,133.75,133/1000,110,118.0
2364,B3,133.75,0.25,99,118.0
2365,E-4,133.75,0.25,99,118.0
2366,F#3,133.75,0.25,99,118.0
2367,B1,134.0,283/1000,127,118.0
2368,C2,134.0,0.75,53,118.0
2369,B-2,134.0,0.5,104,118.0
2370,B1,134.0,283/1000,127,118.0
2371,E-3,134.25,0.25,81,118.0
2372,B-3,134.25,0.25,105,118.0
2373,E-4,134.25,0.25,105,118.0
2374,B3,134.25,0.25,105,118.0
2375,F#3,134.25,0.25,105,118.0
2376,B3,134.25,1.75,98,118.0
2377,B2,134.25,1.75,98,118.0
2378,F#3,134.25,1.75,98,118.0
2379,B1,134.5,0.125,110,118.0
2380,G#2,134.5,0.25,79,118.0
2381,B1,134.5,0.125,110,118.0
2382,B2,134.5,0.25,100,118.0
2383,B1,134.75,133/1000,110,118.0
2384,F#2,134.75,0.25,104,118.0
2385,B1,134.75,133/1000,110,118.0
2386,F#2,134.75,0.25,112,118.0
2387,B1,135.0,11/40,127,118.0
2388,B1,135.0,11/40,127,118.0
2389,B3,135.0,0.25,110,118.0
2390,E2,135.0,0.5,116,118.0
2391,B-2,135.0,0.5,116,118.0
2392,B1,135.0,0.5,111,118.0
2393,C#4,135.0,0.5,111,118.0
2394,F#3,135.0,0.5,111,118.0
2395,B1,135.5,117/1000,110,118.0
2396,B1,135.5,117/1000,110,118.0
2397,C2,135.5,0.25,82,118.0
2398,G#2,135.5,0.25,82,118.0
2399,B2,135.5,0.25,91,118.0
2400,E-4,135.5,0.25,91,118.0
2401,F#3,135.5,0.25,91,118.0
2402,C#4,135.5,0.5,110,118.0
2403,G#3,135.5,0.5,110,118.0
2404,E3,135.5,0.5,110,118.0
2405,C#4,135.5,0.5,110,118.0
2406,G#3,135.5,0.5,110,118.0
2407,E3,135.5,0.5,110,118.0
2408,E4,135.5,0.5,127,118.0
2409,E4,135.5,0.5,127,118.0
2410,E4,135.5,0.5,120,118.0
2411,C#4,135.5,0.5,120,118.0
2412,B1,135.75,233/1000,110,118.0
2413,F#2,135.75,0.25,100,118.0
2414,B1,135.75,233/1000,110,118.0
2415,F#2,135.75,0.25,116,118.0
2416,A1,136.0,0.25,127,118.0
2417,A1,136.0,0.25,127,118.0
2418,A2,136.0,0.25,103,118.0
2419,C2,136.0,0.5,118,118.0
2420,B-2,136.0,0.5,118,118.0
2421,C#4,136.0,0.75,105,118.0
2422,A3,136.0,0.75,105,118.0
2423,B3,136.0,0.75,105,118.0
2424,A1,136.0,0.75,105,118.0
2425,E4,136.0,0.75,105,118.0
2426,C#4,136.0,51/20,110,118.0
2427,G#3,136.0,51/20,110,118.0
2428,E3,136.0,51/20,110,118.0
2429,C#4,136.0,51/20,110,118.0
2430,G#3,136.0,51/20,110,118.0
2431,E3,136.0,51/20,110,118.0
2432,E4,136.0,111/40,127,118.0
2433,E4,136.0,111/40,127,118.0
2434,E4,136.0,103/40,120,118.0
2435,C#4,136.0,103/40,120,118.0
2436,A2,136.25,0.5,89,118.0
2437,A3,136.25,0.5,89,118.0
2438,E3,136.25,0.5,89,118.0
2439,A1,136.5,27/250,110,118.0
2440,A1,136.5,27/250,110,118.0
2441,A2,136.5,0.25,114,118.0
2442,A1,136.75,117/1000,110,118.0
2443,G#2,136.75,0.25,75,118.0
2444,A1,136.75,117/1000,110,118.0
2445,E2,136.75,0.25,110,118.0
2446,A2,136.75,2.75,89,118.0
2447,A3,136.75,2.75,89,118.0
2448,E3,136.75,2.75,89,118.0
2449,A1,137.0,9/40,127,118.0
2450,E2,137.0,0.5,110,118.0
2451,A1,137.0,9/40,127,118.0
2452,F#2,137.0,0.25,96,118.0
2453,B-2,137.0,0.25,96,118.0
2454,A3,137.0,0.5,111,118.0
2455,C#4,137.0,0.5,111,118.0
2456,E4,137.0,0.5,111,118.0
2457,B3,137.0,0.5,111,118.0
2458,A1,137.5,0.125,110,118.0
2459,G#2,137.5,0.25,81,118.0
2460,A1,137.5,0.125,110,118.0
2461,A2,137.5,0.25,90,118.0
2462,A1,137.75,0.125,110,118.0
2463,F#2,137.75,0.25,96,118.0
2464,A1,137.75,0.125,110,118.0
2465,E4,137.75,0.25,96,118.0
2466,C#4,137.75,0.25,96,118.0
2467,A3,137.75,0.25,96,118.0
2468,B3,137.75,0.25,96,118.0
2469,A1,138.0,183/1000,127,118.0
2470,C2,138.0,0.75,113,118.0
2471,B-2,138.0,0.25,100,118.0
2472,A1,138.0,183/1000,127,118.0
2473,E4,138.25,0.25,108,118.0
2474,C#4,138.25,0.25,108,118.0
2475,A3,138.25,0.25,108,118.0
2476,B3,138.25,0.25,108,118.0
2477,A1,138.5,71/500,110,118.0
2478,G#2,138.5,0.25,89,118.0
2479,A1,138.5,71/500,110,118.0
2480,A2,138.5,0.25,105,118.0
2481,A1,138.75,0.125,110,118.0
2482,F#2,138.75,0.25,92,118.0
2483,A1,138.75,0.125,110,118.0
2484,E2,138.75,0.25,92,118.0
2485,A1,139.0,0.25,127,118.0
2486,E2,139.0,0.5,110,118.0
2487,B-2,139.0,0.25,109,118.0
2488,A1,139.0,0.25,127,118.0
2489,E-4,139.0,0.5,99,118.0
2490,B3,139.0,0.75,109,118.0
2491,A3,139.0,0.75,109,118.0
2492,A1,139.0,0.75,109,118.0
2493,E4,139.0,1.0,127,118.0
2494,E4,139.0,1.0,127,118.0
2495,E4,139.0,124/125,116,118.0
2496,C#4,139.0,124/125,116,118.0
2497,A1,139.5,27/250,110,118.0
2498,A1,139.5,27/250,110,118.0
2499,C2,139.5,0.25,82,118.0
2500,G#2,139.5,0.25,82,118.0
2501,E4,139.5,0.25,105,118.0
2502,A2,139.5,0.25,105,118.0
2503,A1,139.75,9/40,110,118.0
2504,F#2,139.75,0.25,92,118.0
2505,A1,139.75,9/40,110,118.0
2506,E2,139.75,0.25,112,118.0
2507,A3,139.75,0.25,84,118.0
2508,A2,139.75,0.25,84,118.0
2509,E3,139.75,0.25,84,118.0
2510,G#1,140.0,9/40,127,118.0
2511,C2,140.0,0.5,110,118.0
2512,B-2,140.0,0.25,114,118.0
2513,G#1,140.0,9/40,127,118.0
2514,G#2,140.0,0.25,93,118.0
2515,E-4,140.0,1083/1000,110,118.0
2516,B3,140.0,1017/1000,110,118.0
2517,E-4,140.0,0.75,91,118.0
2518,B3,140.0,0.75,91,118.0
2519,G#3,140.0,0.75,91,118.0
2520,G#1,140.0,0.75,91,118.0
2521,F#3,140.0,121/40,110,118.0
2522,E-3,140.0,121/40,110,118.0
2523,F#3,140.0,121/40,110,118.0
2524,E-3,140.0,121/40,110,118.0
2525,E-4,140.0,1033/1000,127,118.0
2526,E-4,140.0,1033/1000,127,118.0
2527,E4,140.0,33/1000,127,118.0
2528,E4,140.0,33/1000,127,118.0
2529,G#1,140.5,117/1000,110,118.0
2530,G#2,140.5,0.25,77,118.0
2531,G#1,140.5,117/1000,110,118.0
2532,G#2,140.5,0.5,127,118.0
2533,G#1,140.75,233/1000,110,118.0
2534,F#2,140.75,0.25,96,118.0
2535,G#1,140.75,233/1000,110,118.0
2536,E-2,140.75,0.25,61,118.0
2537,G#3,140.75,2.75,89,118.0
2538,G#2,140.75,2.5,90,118.0
2539,E-3,140.75,2.5,90,118.0
2540,B1,141.0,121/500,127,118.0
2541,E2,141.0,0.75,110,118.0
2542,B1,141.0,121/500,127,118.0
2543,C#4,141.0,1033/1000,123,118.0
2544,F#2,141.0,0.25,74,118.0
2545,B-2,141.0,0.25,74,118.0
2546,E-4,141.0,0.5,113,118.0
2547,G#3,141.0,0.5,113,118.0
2548,B3,141.0,0.5,113,118.0
2549,C#4,141.0,1133/1000,127,118.0
2550,C#4,141.0,1133/1000,127,118.0
2551,B1,141.5,27/250,110,118.0
2552,G#2,141.5,0.25,86,118.0
2553,B1,141.5,27/250,110,118.0
2554,G#2,141.5,0.25,127,118.0
2555,B1,141.75,317/1000,110,118.0
2556,F#2,141.75,0.25,100,118.0
2557,B1,141.75,317/1000,110,118.0
2558,E-4,141.75,0.25,91,118.0
2559,B3,141.75,0.25,91,118.0
2560,G#3,141.75,0.25,91,118.0
2561,E-2,142.0,267/1000,127,118.0
2562,C2,142.0,0.75,110,118.0
2563,B-2,142.0,0.25,109,118.0
2564,E-2,142.0,267/1000,127,118.0
2565,B3,142.0,521/500,117,118.0
2566,B3,142.0,43/40,127,118.0
2567,B3,142.0,43/40,127,118.0
2568,E-4,142.25,0.25,106,118.0
2569,B3,142.25,0.25,106,118.0
2570,G#3,142.25,0.25,106,118.0
2571,E-2,142.5,133/1000,110,118.0
2572,G#2,142.5,0.25,92,118.0
2573,E-2,142.5,133/1000,110,118.0
2574,G#2,142.5,0.25,127,118.0
2575,E-2,142.75,73/250,110,118.0
2576,F#2,142.75,0.25,100,118.0
2577,E-2,142.75,73/250,110,118.0
2578,E-2,142.75,0.25,106,118.0
2579,B1,143.0,9/40,127,118.0
2580,E2,143.0,0.5,110,118.0
2581,B-2,143.0,0.25,114,118.0
2582,B1,143.0,9/40,127,118.0
2583,B-1,143.0,0.25,71,118.0
2584,B-3,143.0,1.0,118,118.0
2585,C#4,143.0,0.5,108,118.0
2586,B3,143.0,0.5,108,118.0
2587,G#3,143.0,0.75,110,118.0
2588,G#1,143.0,0.75,110,118.0
2589,B-3,143.0,1.0,127,118.0
2590,B-3,143.0,1.0,127,118.0
2591,B1,143.5,0.125,110,118.0
2592,B1,143.5,0.125,110,118.0
2593,E-4,143.5,0.25,74,118.0
2594,G#2,143.5,0.5,127,118.0
2595,C2,143.5,0.25,77,118.0
2596,G#2,143.5,0.25,77,118.0
2597,B1,143.75,0.25,110,118.0
2598,F#2,143.75,0.25,100,118.0
2599,B1,143.75,0.25,110,118.0
2600,E-2,143.75,0.25,116,118.0
2601,E-3,143.75,0.5,95,118.0
2602,G#2,143.75,0.5,95,118.0
2603,G#3,143.75,0.5,95,118.0
2604,C#2,144.0,317/1000,127,118.0
2605,B1,144.0,33/1000,110,118.0
2606,C2,144.0,0.75,120,118.0
2607,B-2,144.0,0.25,109,118.0
2608,C#2,144.0,317/1000,127,118.0
2609,B1,144.0,33/1000,110,118.0
2610,C#2,144.0,0.5,99,118.0
2611,C#3,144.0,249/125,115,118.0
2612,G#3,144.0,1583/1000,115,118.0
2613,B-3,144.0,1/10,118,118.0
2614,C#4,144.0,0.75,93,118.0
2615,F3,144.0,0.75,93,118.0
2616,G#3,144.0,0.75,93,118.0
2617,C#4,144.0,1471/500,110,118.0
2618,C#4,144.0,1471/500,110,118.0
2619,C#3,144.0,3033/1000,110,118.0
2620,C#3,144.0,3033/1000,110,118.0
2621,G#3,144.0,1071/500,127,118.0
2622,G#3,144.0,1071/500,127,118.0
2623,C#2,144.5,0.125,110,118.0
2624,G#2,144.5,0.25,84,118.0
2625,C#2,144.5,0.125,110,118.0
2626,C#3,144.5,0.25,124,118.0
2627,C#2,144.75,71/500,110,118.0
2628,F#2,144.75,0.25,89,118.0
2629,C#2,144.75,71/500,110,118.0
2630,G#2,144.75,0.25,109,118.0
2631,C#3,144.75,3.0,91,118.0
2632,C#4,144.75,3.0,91,118.0
2633,G#3,144.75,3.0,91,118.0
2634,C#2,145.0,283/1000,127,118.0
2635,E2,145.0,0.75,113,118.0
2636,B-2,145.0,0.25,114,118.0
2637,C#2,145.0,283/1000,127,118.0
2638,C#4,145.0,0.5,102,118.0
2639,G#3,145.0,0.5,102,118.0
2640,F3,145.0,0.5,102,118.0
2641,C#2,145.5,133/1000,110,118.0
2642,G#2,145.5,0.25,92,118.0
2643,C#2,145.5,133/1000,110,118.0
2644,C#3,145.5,0.25,112,118.0
2645,C#2,145.75,26/125,110,118.0
2646,F#2,145.75,0.25,96,118.0
2647,C#2,145.75,26/125,110,118.0
2648,C#4,145.75,0.25,92,118.0
2649,G#3,145.75,0.25,92,118.0
2650,F3,145.75,0.25,92,118.0
2651,F1,146.0,121/500,127,118.0
2652,C2,146.0,0.75,113,118.0
2653,B-2,146.0,0.25,114,118.0
2654,F1,146.0,121/500,127,118.0
2655,F#3,146.0,11/10,125,118.0
2656,F#3,146.0,1067/1000,127,118.0
2657,F#3,146.0,1067/1000,127,118.0
2658,F3,146.25,0.25,104,118.0
2659,C#4,146.25,0.25,104,118.0
2660,G#3,146.25,0.25,104,118.0
2661,F1,146.5,117/1000,110,118.0
2662,G#2,146.5,0.25,100,118.0
2663,F1,146.5,117/1000,110,118.0
2664,C#3,146.5,0.25,120,118.0
2665,F1,146.75,1/10,110,118.0
2666,F#2,146.75,0.25,100,118.0
2667,F1,146.75,1/10,110,118.0
2668,G#2,146.75,0.25,106,118.0
2669,F1,147.0,267/1000,127,118.0
2670,E2,147.0,0.5,110,118.0
2671,B-2,147.0,0.25,114,118.0
2672,F1,147.0,267/1000,127,118.0
2673,B3,147.0,0.25,92,118.0
2674,F3,147.0,0.75,91,118.0
2675,G#3,147.0,4/5,118,118.0
2676,C#2,147.0,0.5,116,118.0
2677,G#3,147.0,0.5,116,118.0
2678,G#3,147.0,33/40,127,118.0
2679,G#3,147.0,33/40,127,118.0
2680,F1,147.5,233/1000,110,118.0
2681,F1,147.5,233/1000,110,118.0
2682,C2,147.5,0.25,87,118.0
2683,G#2,147.5,0.25,87,118.0
2684,C#3,147.5,0.25,108,118.0
2685,C#4,147.5,0.25,108,118.0
2686,G#1,147.75,26/125,110,118.0
2687,F#2,147.75,0.25,109,118.0
2688,G#1,147.75,26/125,110,118.0
2689,G#2,147.75,0.25,116,118.0
2690,C#3,147.75,0.25,84,118.0
2691,G#3,147.75,0.25,84,118.0
2692,C#4,147.75,0.25,84,118.0
2693,F#1,148.0,283/1000,127,118.0
2694,C2,148.0,0.5,113,118.0
2695,B-2,148.0,0.25,109,118.0
2696,F#1,148.0,283/1000,127,118.0
2697,B-3,148.0,0.75,102,118.0
2698,F#3,148.0,0.75,102,118.0
2699,C#3,148.0,0.75,102,118.0
2700,F#2,148.0,0.25,100,118.0
2701,F#1,148.0,0.25,100,118.0
2702,F2,148.0,0.25,100,118.0
2703,E2,148.0,0.25,100,118.0
2704,C#3,148.0,627/250,110,118.0
2705,C#4,148.0,627/250,110,118.0
2706,F#3,148.0,627/250,110,118.0
2707,C#3,148.0,627/250,110,118.0
2708,C#4,148.0,627/250,110,118.0
2709,F#3,148.0,627/250,110,118.0
2710,G#3,148.0,199/125,127,118.0
2711,G#3,148.0,199/125,127,118.0
2712,G#3,148.0,1533/1000,122,118.0
2713,F3,148.0,1533/1000,122,118.0
2714,F#1,148.5,0.125,110,118.0
2715,G#2,148.5,0.25,96,118.0
2716,F#1,148.5,0.125,110,118.0
2717,F#2,148.5,0.5,124,118.0
2718,F#1,148.75,27/250,110,118.0
2719,F#2,148.75,0.25,100,118.0
2720,F#1,148.75,27/250,110,118.0
2721,F#2,148.75,2.75,93,118.0
2722,F#3,148.75,2.75,93,118.0
2723,F#1,149.0,11/40,127,118.0
2724,E2,149.0,0.75,110,118.0
2725,B-2,149.0,0.25,114,118.0
2726,F#1,149.0,11/40,127,118.0
2727,C#2,149.0,0.25,41,118.0
2728,C#3,149.0,0.5,106,118.0
2729,F#3,149.0,0.5,106,118.0
2730,B-3,149.0,0.5,106,118.0
2731,C#3,149.25,2.25,57,118.0
2732,F#1,149.5,1/10,110,118.0
2733,G#2,149.5,0.25,92,118.0
2734,F#1,149.5,1/10,110,118.0
2735,F#2,149.5,0.25,106,118.0
2736,B-3,149.5,2083/1000,127,118.0
2737,B-3,149.5,2083/1000,127,118.0
2738,B-3,149.5,373/250,118,118.0
2739,F#3,149.5,373/250,118,118.0
2740,F#1,149.75,133/1000,110,118.0
2741,F#2,149.75,0.25,100,118.0
2742,F#1,149.75,133/1000,110,118.0
2743,B-3,149.75,0.25,96,118.0
2744,F#3,149.75,0.25,96,118.0
2745,C#3,149.75,0.25,96,118.0
2746,F#1,150.0,129/500,127,118.0
2747,C2,150.0,0.75,120,118.0
2748,B-2,150.0,0.25,114,118.0
2749,F#1,150.0,129/500,127,118.0
2750,B-3,150.25,0.25,103,118.0
2751,F#3,150.25,0.25,103,118.0
2752,C#3,150.25,0.25,103,118.0
2753,F#1,150.5,117/1000,110,118.0
2754,G#2,150.5,0.25,96,118.0
2755,F#1,150.5,117/1000,110,118.0
2756,F#2,150.5,0.25,124,118.0
2757,F#1,150.75,0.125,110,118.0
2758,F#2,150.75,0.25,100,118.0
2759,F#1,150.75,0.125,110,118.0
2760,C#2,150.75,0.25,120,118.0
2761,F#1,151.0,3/10,127,118.0
2762,E2,151.0,0.5,117,118.0
2763,B-2,151.0,0.25,100,118.0
2764,F#1,151.0,3/10,127,118.0
2765,G#1,151.0,0.25,79,118.0
2766,C#3,151.0,0.75,79,118.0
2767,C#4,151.0,583/1000,117,118.0
2768,F#1,151.0,0.5,115,118.0
2769,F#3,151.0,0.5,115,118.0
2770,G#3,151.0,0.5,115,118.0
2771,F#1,151.5,117/1000,110,118.0
2772,F#1,151.5,117/1000,110,118.0
2773,F#2,151.5,0.5,124,118.0
2774,B-3,151.5,0.25,83,118.0
2775,B3,151.5,0.5,120,118.0
2776,G#3,151.5,0.5,115,118.0
2777,C2,151.5,0.25,90,118.0
2778,G#2,151.5,0.25,90,118.0
2779,E-3,151.5,0.5,110,118.0
2780,B2,151.5,0.5,110,118.0
2781,E-3,151.5,0.5,110,118.0
2782,B2,151.5,0.5,110,118.0
2783,B3,151.5,0.5,127,118.0
2784,B3,151.5,0.5,127,118.0
2785,F#1,151.75,1/5,110,118.0
2786,F#2,151.75,0.25,92,118.0
2787,F#1,151.75,1/5,110,118.0
2788,C#2,151.75,0.25,112,118.0
2789,F#2,151.75,0.25,85,118.0
2790,C#3,151.75,0.25,85,118.0
2791,F#3,151.75,0.25,85,118.0
2792,G#1,152.0,0.25,127,118.0
2793,C2,152.0,0.5,110,118.0
2794,B-2,152.0,0.25,104,118.0
2795,G#1,152.0,0.25,127,118.0
2796,G#1,152.0,0.5,127,118.0
2797,B-1,152.0,0.25,101,118.0
2798,B3,152.0,41/40,120,118.0
2799,G#3,152.0,19/20,115,118.0
2800,G#3,152.0,0.75,101,118.0
2801,B3,152.0,0.75,101,118.0
2802,E-3,152.0,0.75,101,118.0
2803,E-3,152.0,2833/1000,110,118.0
2804,B2,152.0,2833/1000,110,118.0
2805,E-3,152.0,2833/1000,110,118.0
2806,B2,152.0,2833/1000,110,118.0
2807,B3,152.0,1779/500,127,118.0
2808,B3,152.0,1779/500,127,118.0
2809,G#1,152.5,0.125,110,118.0
2810,G#2,152.5,0.25,81,118.0
2811,G#1,152.5,0.125,110,118.0
2812,G#2,152.5,0.25,116,118.0
2813,G#1,152.75,133/1000,110,118.0
2814,F#2,152.75,0.25,96,118.0
2815,G#1,152.75,133/1000,110,118.0
2816,E-2,152.75,0.25,120,118.0
2817,G#2,152.75,2.5,94,118.0
2818,G#3,152.75,2.5,94,118.0
2819,E-3,152.75,2.5,94,118.0
2820,G#1,153.0,121/500,127,118.0
2821,E2,153.0,0.5,110,118.0
2822,B-2,153.0,0.25,109,118.0
2823,G#1,153.0,121/500,127,118.0
2824,B-3,153.0,271/500,118,118.0
2825,G#3,153.0,0.5,105,118.0
2826,E-3,153.0,0.5,105,118.0
2827,B3,153.0,0.5,105,118.0
2828,G#1,153.5,1/10,110,118.0
2829,G#2,153.5,0.25,81,118.0
2830,G#1,153.5,1/10,110,118.0
2831,G#2,153.5,0.25,116,118.0
2832,G#3,153.5,1117/1000,118,118.0
2833,G#1,153.75,23/250,110,118.0
2834,F#2,153.75,0.25,96,118.0
2835,G#1,153.75,23/250,110,118.0
2836,E-3,153.75,0.25,92,118.0
2837,G#3,153.75,0.25,92,118.0
2838,B3,153.75,0.25,92,118.0
2839,G#1,154.0,26/125,127,118.0
2840,C2,154.0,0.5,120,118.0
2841,B-2,154.0,0.25,109,118.0
2842,G#1,154.0,26/125,127,118.0
2843,G#3,154.25,0.25,103,118.0
2844,E-3,154.25,0.25,103,118.0
2845,B3,154.25,0.25,103,118.0
2846,G#1,154.5,27/250,110,118.0
2847,G#2,154.5,0.25,92,118.0
2848,G#1,154.5,27/250,110,118.0
2849,G#2,154.5,0.25,116,118.0
2850,F#3,154.5,983/1000,126,118.0
2851,F#3,154.583,379/500,120,118.0
2852,F#3,154.583,379/500,120,118.0
2853,G#1,154.75,27/250,110,118.0
2854,F#2,154.75,0.25,86,118.0
2855,G#1,154.75,27/250,110,118.0
2856,E-2,154.75,0.25,95,118.0
2857,G#1,155.0,1/5,127,118.0
2858,E2,155.0,0.5,120,118.0
2859,B-2,155.0,0.25,109,118.0
2860,G#1,155.0,1/5,127,118.0
2861,G#1,155.0,0.75,116,118.0
2862,B-3,155.0,0.5,111,118.0
2863,G#3,155.0,0.5,111,118.0
2864,E-3,155.0,0.5,111,118.0
2865,B3,155.375,0.625,120,118.0
2866,B3,155.375,0.625,120,118.0
2867,G#1,155.5,9/40,110,118.0
2868,G#1,155.5,9/40,110,118.0
2869,G#2,155.5,0.5,127,118.0
2870,B3,155.5,0.25,82,118.0
2871,G#3,155.5,0.5,120,118.0
2872,C2,155.5,0.25,76,118.0
2873,G#2,155.5,0.25,76,118.0
2874,B1,155.75,0.25,110,118.0
2875,F#2,155.75,0.25,104,118.0
2876,B1,155.75,0.25,110,118.0
2877,E-2,155.75,0.25,109,118.0
2878,G#2,155.75,0.25,81,118.0
2879,E-3,155.75,0.25,81,118.0
2880,G#3,155.75,0.25,81,118.0
2881,C#2,156.0,333/1000,127,118.0
2882,B1,156.0,1/40,110,118.0
2883,C2,156.0,0.5,113,118.0
2884,B-2,156.0,0.25,114,118.0
2885,C#2,156.0,333/1000,127,118.0
2886,B1,156.0,1/40,110,118.0
2887,C#2,156.0,0.5,120,118.0
2888,C#3,156.0,13/10,117,118.0
2889,G#3,156.0,53/40,120,118.0
2890,G#3,156.0,0.75,95,118.0
2891,C#4,156.0,0.75,95,118.0
2892,F3,156.0,0.75,95,118.0
2893,C#3,156.0,31/10,116,118.0
2894,G#3,156.0,31/10,116,118.0
2895,C#4,156.0,31/10,116,118.0
2896,C#3,156.0,31/10,116,118.0
2897,G#3,156.0,31/10,116,118.0
2898,C#4,156.0,31/10,116,118.0
2899,B3,156.0,283/1000,120,118.0
2900,B3,156.0,283/1000,120,118.0
2901,C#2,156.5,1/10,110,118.0
2902,G#2,156.5,0.25,92,118.0
2903,C#2,156.5,1/10,110,118.0
2904,C#3,156.5,0.25,120,118.0
2905,C#2,156.75,117/1000,110,118.0
2906,F#2,156.75,0.25,96,118.0
2907,C#2,156.75,117/1000,110,118.0
2908,G#2,156.75,0.25,89,118.0
2909,C#3,156.75,2.25,77,118.0
2910,C#4,156.75,2.0,94,118.0
2911,G#3,156.75,2.0,94,118.0
2912,C#2,157.0,73/250,127,118.0
2913,E2,157.0,0.75,110,118.0
2914,B-2,157.0,0.25,104,118.0
2915,C#2,157.0,73/250,127,118.0
2916,C#4,157.0,0.5,103,118.0
2917,G#3,157.0,0.5,103,118.0
2918,F3,157.0,0.5,103,118.0
2919,C#2,157.5,71/500,110,118.0
2920,G#2,157.5,0.25,92,118.0
2921,C#2,157.5,71/500,110,118.0
2922,C#3,157.5,0.25,109,118.0
2923,C#2,157.75,0.125,110,118.0
2924,F#2,157.75,0.25,104,118.0
2925,C#2,157.75,0.125,110,118.0
2926,C#4,157.75,0.25,89,118.0
2927,G#3,157.75,0.25,89,118.0
2928,F3,157.75,0.25,89,118.0
2929,C#2,158.0,217/1000,127,118.0
2930,C2,158.0,0.75,110,118.0
2931,B-2,158.0,0.25,109,118.0
2932,C#2,158.0,217/1000,127,118.0
2933,F3,158.25,0.25,98,118.0
2934,G#3,158.25,0.25,98,118.0
2935,C#4,158.25,0.25,98,118.0
2936,C#2,158.5,133/1000,110,118.0
2937,G#2,158.5,0.25,104,118.0
2938,C#2,158.5,133/1000,110,118.0
2939,C#3,158.5,0.25,104,118.0
2940,E-4,158.5,521/500,127,118.0
2941,E-4,158.5,521/500,127,118.0
2942,C#2,158.75,117/1000,110,118.0
2943,F#2,158.75,0.25,104,118.0
2944,C#2,158.75,117/1000,110,118.0
2945,G#2,158.75,0.25,104,118.0
2946,C#2,159.0,167/1000,127,118.0
2947,C#2,159.0,167/1000,127,118.0
2948,C#2,159.0,0.25,124,118.0
2949,E2,159.0,0.25,111,118.0
2950,B-2,159.0,0.25,111,118.0
2951,F#3,159.25,0.25,110,118.0
2952,E-3,159.25,0.25,110,118.0
2953,B3,159.25,0.25,110,118.0
2954,F#3,159.25,0.5,94,118.0
2955,B2,159.25,0.5,94,118.0
2956,B3,159.25,0.5,94,118.0
2957,C#2,159.5,283/1000,110,118.0
2958,C#2,159.5,283/1000,110,118.0
2959,C#3,159.5,0.25,124,118.0
2960,C2,159.5,0.25,97,118.0
2961,G#2,159.5,0.25,97,118.0
2962,F4,159.5,0.5,127,118.0
2963,F4,159.5,0.5,127,118.0
2964,B1,159.75,0.25,110,118.0
2965,F#2,159.75,0.25,96,118.0
2966,B1,159.75,0.25,110,118.0
2967,G#2,159.75,0.25,109,118.0
2968,C#2,160.0,3/10,127,118.0
2969,B1,160.0,1/20,110,118.0
2970,C2,160.0,0.5,117,118.0
2971,B-2,160.0,0.25,109,118.0
2972,C#2,160.0,3/10,127,118.0
2973,B1,160.0,1/20,110,118.0
2974,C#2,160.0,0.5,124,118.0
2975,F3,160.0,0.75,105,118.0
2976,C#4,160.0,0.75,105,118.0
2977,G#3,160.0,0.75,105,118.0
2978,G#3,160.0,1579/500,110,118.0
2979,C#3,160.0,1579/500,110,118.0
2980,C#4,160.0,1579/500,110,118.0
2981,G#3,160.0,1579/500,110,118.0
2982,C#3,160.0,1579/500,110,118.0
2983,C#4,160.0,1579/500,110,118.0
2984,F4,160.0,16/5,127,118.0
2985,F4,160.0,16/5,127,118.0
2986,G#3,160.25,0.5,76,118.0
2987,C#4,160.25,0.25,72,118.0
2988,C#3,160.25,0.25,72,118.0
2989,C#2,160.5,117/1000,110,118.0
2990,G#2,160.5,0.25,104,118.0
2991,C#2,160.5,117/1000,110,118.0
2992,C#3,160.5,0.25,120,118.0
2993,C#2,160.75,27/250,110,118.0
2994,F#2,160.75,0.25,92,118.0
2995,C#2,160.75,27/250,110,118.0
2996,G#2,160.75,0.25,120,118.0
2997,C#2,161.0,233/1000,127,118.0
2998,E2,161.0,0.5,113,118.0
2999,B-2,161.0,0.25,104,118.0
3000,C#2,161.0,233/1000,127,118.0
3001,F3,161.0,0.5,106,118.0
3002,G#3,161.0,0.5,106,118.0
3003,C#4,161.0,0.5,106,118.0
3004,C#3,161.0,2.25,56,118.0
3005,C#4,161.0,2.25,56,118.0
3006,G#3,161.0,2.25,56,118.0
3007,C#2,161.5,133/1000,110,118.0
3008,G#2,161.5,0.25,96,118.0
3009,C#2,161.5,133/1000,110,118.0
3010,C#3,161.5,0.25,120,118.0
3011,C#2,161.75,117/1000,110,118.0
3012,F#2,161.75,0.25,96,118.0
3013,C#2,161.75,117/1000,110,118.0
3014,C#4,161.75,0.25,91,118.0
3015,G#3,161.75,0.25,91,118.0
3016,F3,161.75,0.25,91,118.0
3017,C#2,162.0,317/1000,127,118.0
3018,C2,162.0,0.5,120,118.0
3019,C#2,162.0,317/1000,127,118.0
3020,B2,162.0,0.25,118,118.0
3021,B-2,162.0,0.25,118,118.0
3022,C2,162.25,0.5,125,118.0
3023,F3,162.25,0.25,111,118.0
3024,C#4,162.25,0.25,111,118.0
3025,G#3,162.25,0.25,111,118.0
3026,C#2,162.5,133/1000,110,118.0
3027,G#2,162.5,0.25,96,118.0
3028,C#2,162.5,133/1000,110,118.0
3029,C#3,162.5,0.25,116,118.0
3030,C#2,162.75,27/250,110,118.0
3031,C#2,162.75,27/250,110,118.0
3032,G#2,162.75,0.25,109,118.0
3033,F#2,162.75,0.25,104,118.0
3034,C2,162.75,0.25,104,118.0
3035,C#2,163.0,3/10,127,118.0
3036,E2,163.0,0.5,113,118.0
3037,C#2,163.0,3/10,127,118.0
3038,F3,163.0,0.75,93,118.0
3039,B-2,163.0,0.25,118,118.0
3040,A2,163.0,0.25,118,118.0
3041,C#2,163.0,0.5,109,118.0
3042,C#4,163.0,0.5,109,118.0
3043,G#3,163.0,0.5,109,118.0
3044,C2,163.25,0.25,117,118.0
3045,G#1,163.5,26/125,110,118.0
3046,G#1,163.5,26/125,110,118.0
3047,C#3,163.5,0.25,112,118.0
3048,C2,163.5,0.25,89,118.0
3049,G#2,163.5,0.25,89,118.0
3050,G2,163.5,0.25,89,118.0
3051,B-1,163.75,0.25,110,118.0
3052,B-1,163.75,0.25,110,118.0
3053,G2,163.75,0.25,88,118.0
3054,F#2,163.75,0.25,88,118.0
3055,F2,163.75,0.25,88,118.0
3056,C#3,163.75,0.25,81,118.0
3057,C#4,163.75,0.25,81,118.0
3058,G#3,163.75,0.25,81,118.0
3059,B1,164.0,267/1000,127,118.0
3060,B-1,164.0,83/1000,110,118.0
3061,B1,164.0,267/1000,127,118.0
3062,B-1,164.0,83/1000,110,118.0
3063,B1,164.0,1.0,99,118.0
3064,B2,164.0,0.25,106,118.0
3065,E3,164.0,0.25,96,118.0
3066,C#3,164.0,0.25,96,118.0
3067,F3,164.0,0.25,96,118.0
3068,E-3,164.0,0.25,96,118.0
3069,B-2,164.0,0.25,96,118.0
3070,C2,164.0,0.5,106,118.0
3071,B-2,164.0,0.5,106,118.0
3072,E-4,164.0,0.75,101,118.0
3073,B3,164.0,0.75,101,118.0
3074,F#3,164.0,0.75,101,118.0
3075,F#3,164.0,2.875,110,118.0
3076,F#3,164.0,2.875,110,118.0
3077,B2,164.0,3083/1000,110,118.0
3078,B3,164.0,3083/1000,110,118.0
3079,B2,164.0,3083/1000,110,118.0
3080,B3,164.0,3083/1000,110,118.0
3081,C#4,164.0,1667/1000,127,118.0
3082,C#4,164.0,1667/1000,127,118.0
3083,B-3,164.0,377/250,115,118.0
3084,C#4,164.0,377/250,115,118.0
3085,B1,164.5,133/1000,110,118.0
3086,G#2,164.5,0.25,60,118.0
3087,B1,164.5,133/1000,110,118.0
3088,B2,164.5,0.75,96,118.0
3089,B1,164.75,3/20,110,118.0
3090,F#2,164.75,0.25,104,118.0
3091,B1,164.75,3/20,110,118.0
3092,B3,164.75,2.75,99,118.0
3093,B2,164.75,2.75,99,118.0
3094,F#3,164.75,2.75,99,118.0
3095,B1,165.0,9/40,127,118.0
3096,B1,165.0,9/40,127,118.0
3097,E2,165.0,0.5,113,118.0
3098,B-2,165.0,0.5,113,118.0
3099,B3,165.0,0.5,105,118.0
3100,F#3,165.0,0.5,105,118.0
3101,E-4,165.0,0.5,105,118.0
3102,B1,165.5,0.125,110,118.0
3103,G#2,165.5,0.25,64,118.0
3104,B1,165.5,0.125,110,118.0
3105,B2,165.5,0.25,121,118.0
3106,E-4,165.5,2033/1000,127,118.0
3107,E-4,165.5,2033/1000,127,118.0
3108,E-4,165.5,929/500,112,118.0
3109,B3,165.5,929/500,112,118.0
3110,B1,165.75,0.125,110,118.0
3111,F#2,165.75,0.25,104,118.0
3112,B1,165.75,0.125,110,118.0
3113,B3,165.75,0.25,99,118.0
3114,E-4,165.75,0.25,99,118.0
3115,F#3,165.75,0.25,99,118.0
3116,B1,166.0,13/40,127,118.0
3117,C2,166.0,0.75,53,118.0
3118,B-2,166.0,0.5,104,118.0
3119,B1,166.0,13/40,127,118.0
3120,B-3,166.25,0.25,105,118.0
3121,E-4,166.25,0.25,105,118.0
3122,B3,166.25,0.25,105,118.0
3123,F#3,166.25,0.25,105,118.0
3124,B1,166.5,133/1000,110,118.0
3125,G#2,166.5,0.25,79,118.0
3126,B1,166.5,133/1000,110,118.0
3127,B2,166.5,0.25,100,118.0
3128,B1,166.75,0.125,110,118.0
3129,F#2,166.75,0.25,104,118.0
3130,B1,166.75,0.125,110,118.0
3131,F#2,166.75,0.25,112,118.0
3132,B1,167.0,129/500,127,118.0
3133,B1,167.0,129/500,127,118.0
3134,B3,167.0,0.25,110,118.0
3135,E2,167.0,0.5,116,118.0
3136,B-2,167.0,0.5,116,118.0
3137,B1,167.0,0.5,111,118.0
3138,C#4,167.0,0.5,111,118.0
3139,F#3,167.0,0.5,111,118.0
3140,B1,167.5,0.125,110,118.0
3141,B1,167.5,0.125,110,118.0
3142,C2,167.5,0.25,82,118.0
3143,G#2,167.5,0.25,82,118.0
3144,B2,167.5,0.25,91,118.0
3145,E-4,167.5,0.25,91,118.0
3146,F#3,167.5,0.25,91,118.0
3147,C#4,167.5,0.5,110,118.0
3148,G#3,167.5,0.5,110,118.0
3149,E3,167.5,0.5,110,118.0
3150,C#4,167.5,0.5,110,118.0
3151,G#3,167.5,0.5,110,118.0
3152,E3,167.5,0.5,110,118.0
3153,E4,167.5,0.5,127,118.0
3154,E4,167.5,0.5,127,118.0
3155,E4,167.5,0.5,118,118.0
3156,C#4,167.5,0.5,118,118.0
3157,B1,167.75,0.25,110,118.0
3158,F#2,167.75,0.25,100,118.0
3159,B1,167.75,0.25,110,118.0
3160,F#2,167.75,0.25,116,118.0
3161,A1,168.0,233/1000,127,118.0
3162,A1,168.0,233/1000,127,118.0
3163,A2,168.0,0.25,103,118.0
3164,C2,168.0,0.5,118,118.0
3165,B-2,168.0,0.5,118,118.0
3166,C#4,168.0,0.75,105,118.0
3167,A3,168.0,0.75,105,118.0
3168,B3,168.0,0.75,105,118.0
3169,A1,168.0,0.75,105,118.0
3170,E4,168.0,0.75,105,118.0
3171,C#4,168.0,51/20,110,118.0
3172,G#3,168.0,51/20,110,118.0
3173,E3,168.0,51/20,110,118.0
3174,C#4,168.0,51/20,110,118.0
3175,G#3,168.0,51/20,110,118.0
3176,E3,168.0,51/20,110,118.0
3177,E4,168.0,111/40,127,118.0
3178,E4,168.0,111/40,127,118.0
3179,E4,168.0,326/125,118,118.0
3180,C#4,168.0,326/125,118,118.0
3181,E3,168.25,0.5,101,118.0
3182,A2,168.25,0.5,94,118.0
3183,A3,168.25,0.5,94,118.0
3184,A1,168.5,1/10,110,118.0
3185,A1,168.5,1/10,110,118.0
3186,A2,168.5,0.25,114,118.0
3187,A1,168.75,23/250,110,118.0
3188,G#2,168.75,0.25,75,118.0
3189,A1,168.75,23/250,110,118.0
3190,E2,168.75,0.25,110,118.0
3191,E3,168.75,2.25,101,118.0
3192,A2,168.75,2.5,94,118.0
3193,A3,168.75,2.5,94,118.0
3194,A1,169.0,0.25,127,118.0
3195,E2,169.0,0.5,110,118.0
3196,A1,169.0,0.25,127,118.0
3197,F#2,169.0,0.25,96,118.0
3198,B-2,169.0,0.25,96,118.0
3199,A3,169.0,0.5,111,118.0
3200,C#4,169.0,0.5,111,118.0
3201,E4,169.0,0.5,111,118.0
3202,B3,169.0,0.5,111,118.0
3203,A1,169.5,27/250,110,118.0
3204,G#2,169.5,0.25,81,118.0
3205,A1,169.5,27/250,110,118.0
3206,A2,169.5,0.25,90,118.0
3207,A1,169.75,0.125,110,118.0
3208,F#2,169.75,0.25,96,118.0
3209,A1,169.75,0.125,110,118.0
3210,E4,169.75,0.25,96,118.0
3211,C#4,169.75,0.25,96,118.0
3212,A3,169.75,0.25,96,118.0
3213,B3,169.75,0.25,96,118.0
3214,A1,170.0,0.25,127,118.0
3215,C2,170.0,0.75,113,118.0
3216,B-2,170.0,0.25,100,118.0
3217,A1,170.0,0.25,127,118.0
3218,E4,170.25,0.25,108,118.0
3219,C#4,170.25,0.25,108,118.0
3220,A3,170.25,0.25,108,118.0
3221,B3,170.25,0.25,108,118.0
3222,A1,170.5,133/1000,110,118.0
3223,G#2,170.5,0.25,89,118.0
3224,A1,170.5,133/1000,110,118.0
3225,A2,170.5,0.25,105,118.0
3226,A1,170.75,71/500,110,118.0
3227,F#2,170.75,0.25,92,118.0
3228,A1,170.75,71/500,110,118.0
3229,E2,170.75,0.25,92,118.0
3230,A1,171.0,129/500,127,118.0
3231,E2,171.0,0.5,110,118.0
3232,B-2,171.0,0.25,109,118.0
3233,A1,171.0,129/500,127,118.0
3234,E-4,171.0,0.5,99,118.0
3235,B3,171.0,0.75,109,118.0
3236,A3,171.0,0.75,109,118.0
3237,A1,171.0,0.75,109,118.0
3238,E4,171.0,1.0,127,118.0
3239,E4,171.0,1.0,127,118.0
3240,C#4,171.0,1.0,118,118.0
3241,E4,171.0,1.0,118,118.0
3242,A1,171.5,133/1000,110,118.0
3243,A1,171.5,133/1000,110,118.0
3244,C2,171.5,0.25,82,118.0
3245,G#2,171.5,0.25,82,118.0
3246,E4,171.5,0.25,105,118.0
3247,A2,171.5,0.25,105,118.0
3248,A1,171.75,24/125,110,118.0
3249,F#2,171.75,0.25,92,118.0
3250,A1,171.75,24/125,110,118.0
3251,E2,171.75,0.25,112,118.0
3252,E3,171.75,0.25,93,118.0
3253,A3,171.75,0.25,93,118.0
3254,A2,171.75,0.25,93,118.0
3255,G#1,172.0,183/1000,127,118.0
3256,C2,172.0,0.5,110,118.0
3257,B-2,172.0,0.25,114,118.0
3258,G#1,172.0,183/1000,127,118.0
3259,G#2,172.0,0.25,93,118.0
3260,E-4,172.0,0.75,91,118.0
3261,B3,172.0,0.75,91,118.0
3262,G#3,172.0,0.75,91,118.0
3263,G#1,172.0,0.75,91,118.0
3264,B4,172.0,967/1000,120,118.0
3265,B4,172.0,967/1000,120,118.0
3266,F#3,172.0,121/40,110,118.0
3267,E-3,172.0,121/40,110,118.0
3268,F#3,172.0,121/40,110,118.0
3269,E-3,172.0,121/40,110,118.0
3270,E-4,172.0,1033/1000,127,118.0
3271,E-4,172.0,1033/1000,127,118.0
3272,E4,172.0,33/1000,127,118.0
3273,E4,172.0,33/1000,127,118.0
3274,E-4,172.0,41/40,112,118.0
3275,B3,172.0,41/40,112,118.0
3276,C#4,172.0,3/40,118,118.0
3277,E4,172.0,3/40,118,118.0
3278,G#1,172.5,0.125,110,118.0
3279,G#2,172.5,0.25,77,118.0
3280,G#1,172.5,0.125,110,118.0
3281,G#2,172.5,0.5,127,118.0
3282,G#1,172.75,121/500,110,118.0
3283,F#2,172.75,0.25,96,118.0
3284,G#1,172.75,121/500,110,118.0
3285,E-2,172.75,0.25,61,118.0
3286,G#3,172.75,2.25,89,118.0
3287,G#2,172.75,2.25,89,118.0
3288,E-3,172.75,2.25,89,118.0
3289,B1,173.0,0.25,127,118.0
3290,E2,173.0,0.75,110,118.0
3291,B1,173.0,0.25,127,118.0
3292,C#4,173.0,1017/1000,120,118.0
3293,F#2,173.0,0.25,74,118.0
3294,B-2,173.0,0.25,74,118.0
3295,E-4,173.0,0.5,113,118.0
3296,G#3,173.0,0.5,113,118.0
3297,B3,173.0,0.5,113,118.0
3298,B-4,173.0,1017/1000,120,118.0
3299,B-4,173.0,1017/1000,120,118.0
3300,C#4,173.0,1133/1000,127,118.0
3301,C#4,173.0,1133/1000,127,118.0
3302,B1,173.5,71/500,110,118.0
3303,G#2,173.5,0.25,86,118.0
3304,B1,173.5,71/500,110,118.0
3305,G#2,173.5,0.25,127,118.0
3306,B1,173.75,73/250,110,118.0
3307,F#2,173.75,0.25,100,118.0
3308,B1,173.75,73/250,110,118.0
3309,E-4,173.75,0.25,91,118.0
3310,B3,173.75,0.25,91,118.0
3311,G#3,173.75,0.25,91,118.0
3312,E-2,174.0,1/5,127,118.0
3313,C2,174.0,0.75,110,118.0
3314,B-2,174.0,0.25,109,118.0
3315,E-2,174.0,1/5,127,118.0
3316,B3,174.0,1067/1000,118,118.0
3317,G#4,174.0,579/500,120,118.0
3318,G#4,174.0,579/500,120,118.0
3319,B3,174.0,43/40,127,118.0
3320,B3,174.0,43/40,127,118.0
3321,E-4,174.25,0.25,106,118.0
3322,B3,174.25,0.25,106,118.0
3323,G#3,174.25,0.25,106,118.0
3324,E-2,174.5,133/1000,110,118.0
3325,G#2,174.5,0.25,92,118.0
3326,E-2,174.5,133/1000,110,118.0
3327,G#2,174.5,0.25,127,118.0
3328,E-2,174.75,3/10,110,118.0
3329,F#2,174.75,0.25,100,118.0
3330,E-2,174.75,3/10,110,118.0
3331,E-2,174.75,0.25,106,118.0
3332,B1,175.0,24/125,127,118.0
3333,E2,175.0,0.5,110,118.0
3334,B-2,175.0,0.25,114,118.0
3335,B1,175.0,24/125,127,118.0
3336,B-1,175.0,0.25,71,118.0
3337,B-3,175.0,1.0,125,118.0
3338,C#4,175.0,0.5,108,118.0
3339,B3,175.0,0.5,108,118.0
3340,G#3,175.0,0.75,110,118.0
3341,G#1,175.0,0.75,110,118.0
3342,F#4,175.0,1.0,120,118.0
3343,F#4,175.0,1.0,120,118.0
3344,B-3,175.0,1.0,127,118.0
3345,B-3,175.0,1.0,127,118.0
3346,B1,175.5,117/1000,110,118.0
3347,B1,175.5,117/1000,110,118.0
3348,E-4,175.5,0.25,74,118.0
3349,G#2,175.5,0.5,127,118.0
3350,C2,175.5,0.25,77,118.0
3351,G#2,175.5,0.25,77,118.0
3352,B1,175.75,0.25,110,118.0
3353,F#2,175.75,0.25,100,118.0
3354,B1,175.75,0.25,110,118.0
3355,E-2,175.75,0.25,116,118.0
3356,G#2,175.75,0.25,87,118.0
3357,G#3,175.75,0.25,87,118.0
3358,E-3,175.75,0.25,87,118.0
3359,C#2,176.0,233/1000,127,118.0
3360,B1,176.0,21/500,110,118.0
3361,C2,176.0,0.75,120,118.0
3362,B-2,176.0,0.25,109,118.0
3363,C#2,176.0,233/1000,127,118.0
3364,B1,176.0,21/500,110,118.0
3365,C#2,176.0,0.5,99,118.0
3366,B-3,176.0,83/1000,125,118.0
3367,C#4,176.0,0.75,93,118.0
3368,F3,176.0,0.75,93,118.0
3369,G#3,176.0,0.75,93,118.0
3370,F4,176.0,821/500,120,118.0
3371,F4,176.0,821/500,120,118.0
3372,C#4,176.0,1471/500,110,118.0
3373,C#4,176.0,1471/500,110,118.0
3374,C#3,176.0,3033/1000,110,118.0
3375,C#3,176.0,3033/1000,110,118.0
3376,G#3,176.0,1071/500,127,118.0
3377,G#3,176.0,1071/500,127,118.0
3378,F#4,176.0,71/500,120,118.0
3379,F#4,176.0,71/500,120,118.0
3380,C#3,176.0,83/40,120,118.0
3381,G#3,176.0,83/40,120,118.0
3382,C#2,176.5,133/1000,110,118.0
3383,G#2,176.5,0.25,84,118.0
3384,C#2,176.5,133/1000,110,118.0
3385,C#3,176.5,0.25,124,118.0
3386,C#2,176.75,0.125,110,118.0
3387,F#2,176.75,0.25,89,118.0
3388,C#2,176.75,0.125,110,118.0
3389,G#2,176.75,0.25,109,118.0
3390,C#3,176.75,2.75,84,118.0
3391,C#4,176.75,3.0,100,118.0
3392,G#3,176.75,3.0,100,118.0
3393,C#2,177.0,3/10,127,118.0
3394,E2,177.0,0.75,113,118.0
3395,B-2,177.0,0.25,114,118.0
3396,C#2,177.0,3/10,127,118.0
3397,C#4,177.0,0.5,102,118.0
3398,G#3,177.0,0.5,102,118.0
3399,F3,177.0,0.5,102,118.0
3400,C#2,177.5,133/1000,110,118.0
3401,G#2,177.5,0.25,92,118.0
3402,C#2,177.5,133/1000,110,118.0
3403,C#3,177.5,0.25,112,118.0
3404,C#2,177.75,26/125,110,118.0
3405,F#2,177.75,0.25,96,118.0
3406,C#2,177.75,26/125,110,118.0
3407,C#4,177.75,0.25,92,118.0
3408,G#3,177.75,0.25,92,118.0
3409,F3,177.75,0.25,92,118.0
3410,F1,178.0,73/250,127,118.0
3411,C2,178.0,0.75,113,118.0
3412,B-2,178.0,0.25,114,118.0
3413,F1,178.0,73/250,127,118.0
3414,F#3,178.0,529/500,126,118.0
3415,E-4,178.0,479/500,120,118.0
3416,E-4,178.0,479/500,120,118.0
3417,F#3,178.0,1067/1000,127,118.0
3418,F#3,178.0,1067/1000,127,118.0
3419,F3,178.25,0.25,104,118.0
3420,C#4,178.25,0.25,104,118.0
3421,G#3,178.25,0.25,104,118.0
3422,F1,178.5,117/1000,110,118.0
3423,G#2,178.5,0.25,100,118.0
3424,F1,178.5,117/1000,110,118.0
3425,C#3,178.5,0.25,120,118.0
3426,F1,178.75,1/10,110,118.0
3427,F#2,178.75,0.25,100,118.0
3428,F1,178.75,1/10,110,118.0
3429,G#2,178.75,0.25,106,118.0
3430,F1,179.0,283/1000,127,118.0
3431,E2,179.0,0.5,110,118.0
3432,B-2,179.0,0.25,114,118.0
3433,F1,179.0,283/1000,127,118.0
3434,B3,179.0,0.25,92,118.0
3435,F3,179.0,0.75,91,118.0
3436,C#2,179.0,0.5,116,118.0
3437,G#3,179.0,0.5,116,118.0
3438,F4,179.0,33/40,124,118.0
3439,G#3,179.0,33/40,124,118.0
3440,F4,179.0,33/40,124,118.0
3441,G#3,179.0,33/40,124,118.0
3442,G#3,179.0,177/250,119,118.0
3443,F3,179.0,177/250,119,118.0
3444,F1,179.5,121/500,110,118.0
3445,F1,179.5,121/500,110,118.0
3446,C2,179.5,0.25,87,118.0
3447,G#2,179.5,0.25,87,118.0
3448,G3,179.5,0.25,87,118.0
3449,C#3,179.5,0.25,108,118.0
3450,C#4,179.5,0.25,108,118.0
3451,G#1,179.75,0.25,110,118.0
3452,F#2,179.75,0.25,109,118.0
3453,G#1,179.75,0.25,110,118.0
3454,G#2,179.75,0.25,116,118.0
3455,C#4,179.75,0.25,85,118.0
3456,C#3,179.75,0.25,85,118.0
3457,G#3,179.75,0.25,85,118.0
3458,F#1,180.0,73/250,127,118.0
3459,G#1,180.0,1/40,110,118.0
3460,C2,180.0,0.5,113,118.0
3461,F#1,180.0,73/250,127,118.0
3462,G#1,180.0,1/40,110,118.0
3463,B-2,180.0,0.25,116,118.0
3464,A3,180.0,0.25,116,118.0
3465,B-3,180.0,0.75,102,118.0
3466,F#3,180.0,0.75,102,118.0
3467,C#3,180.0,0.75,102,118.0
3468,F#2,180.0,0.25,100,118.0
3469,F#1,180.0,0.25,100,118.0
3470,F2,180.0,0.25,100,118.0
3471,E2,180.0,0.25,100,118.0
3472,F4,180.0,199/125,124,118.0
3473,G#3,180.0,199/125,124,118.0
3474,F4,180.0,199/125,124,118.0
3475,G#3,180.0,199/125,124,118.0
3476,C#3,180.0,627/250,110,118.0
3477,C#4,180.0,627/250,110,118.0
3478,F#3,180.0,627/250,110,118.0
3479,C#3,180.0,627/250,110,118.0
3480,C#4,180.0,627/250,110,118.0
3481,F#3,180.0,627/250,110,118.0
3482,G#3,180.0,61/40,122,118.0
3483,F3,180.0,61/40,122,118.0
3484,F#1,180.5,0.125,110,118.0
3485,G#2,180.5,0.25,96,118.0
3486,F#1,180.5,0.125,110,118.0
3487,F#2,180.5,0.5,124,118.0
3488,F#1,180.75,27/250,110,118.0
3489,F#2,180.75,0.25,100,118.0
3490,F#1,180.75,27/250,110,118.0
3491,F#2,180.75,2.75,91,118.0
3492,C#3,180.75,2.75,91,118.0
3493,F#3,180.75,2.75,91,118.0
3494,F#1,181.0,9/40,127,118.0
3495,E2,181.0,0.75,110,118.0
3496,B-2,181.0,0.25,114,118.0
3497,F#1,181.0,9/40,127,118.0
3498,C#2,181.0,0.25,41,118.0
3499,C#3,181.0,0.5,106,118.0
3500,F#3,181.0,0.5,106,118.0
3501,B-3,181.0,0.5,106,118.0
3502,F#1,181.5,27/250,110,118.0
3503,G#2,181.5,0.25,92,118.0
3504,F#1,181.5,27/250,110,118.0
3505,F#2,181.5,0.25,106,118.0
3506,F#4,181.5,1883/1000,120,118.0
3507,F#4,181.5,1883/1000,120,118.0
3508,B-3,181.5,2083/1000,127,118.0
3509,B-3,181.5,2083/1000,127,118.0
3510,F#3,181.5,59/40,119,118.0
3511,B-3,181.5,59/40,119,118.0
3512,F#1,181.75,27/250,110,118.0
3513,F#2,181.75,0.25,100,118.0
3514,F#1,181.75,27/250,110,118.0
3515,B-3,181.75,0.25,96,118.0
3516,F#3,181.75,0.25,96,118.0
3517,C#3,181.75,0.25,96,118.0
3518,F#1,182.0,9/40,127,118.0
3519,C2,182.0,0.75,120,118.0
3520,B-2,182.0,0.25,114,118.0
3521,F#1,182.0,9/40,127,118.0
3522,B-3,182.25,0.25,103,118.0
3523,F#3,182.25,0.25,103,118.0
3524,C#3,182.25,0.25,103,118.0
3525,F#1,182.5,117/1000,110,118.0
3526,G#2,182.5,0.25,96,118.0
3527,F#1,182.5,117/1000,110,118.0
3528,F#2,182.5,0.25,124,118.0
3529,F#1,182.75,117/1000,110,118.0
3530,F#2,182.75,0.25,100,118.0
3531,F#1,182.75,117/1000,110,118.0
3532,C#2,182.75,0.25,120,118.0
3533,F#1,183.0,129/500,127,118.0
3534,E2,183.0,0.5,117,118.0
3535,B-2,183.0,0.25,100,118.0
3536,F#1,183.0,129/500,127,118.0
3537,G#1,183.0,0.25,79,118.0
3538,C#3,183.0,0.75,79,118.0
3539,C#4,183.0,74/125,117,118.0
3540,F#1,183.0,0.5,115,118.0
3541,F#3,183.0,0.5,115,118.0
3542,G#3,183.0,0.5,115,118.0
3543,F#1,183.5,117/1000,110,118.0
3544,F#1,183.5,117/1000,110,118.0
3545,F#2,183.5,0.5,124,118.0
3546,B-3,183.5,0.25,83,118.0
3547,C2,183.5,0.25,90,118.0
3548,G#2,183.5,0.25,90,118.0
3549,F#4,183.5,0.5,127,118.0
3550,F#4,183.5,0.5,127,118.0
3551,G#4,183.5,0.5,120,118.0
3552,G#4,183.5,0.5,120,118.0
3553,E-3,183.5,0.5,110,118.0
3554,B2,183.5,0.5,110,118.0
3555,E-3,183.5,0.5,110,118.0
3556,B2,183.5,0.5,110,118.0
3557,B3,183.5,0.5,127,118.0
3558,B3,183.5,0.5,127,118.0
3559,B3,183.5,0.5,121,118.0
3560,G#3,183.5,0.5,121,118.0
3561,F#1,183.75,71/500,110,118.0
3562,F#2,183.75,0.25,92,118.0
3563,F#1,183.75,71/500,110,118.0
3564,C#2,183.75,0.25,112,118.0
3565,F#2,183.75,0.25,87,118.0
3566,F#3,183.75,0.25,87,118.0
3567,C#3,183.75,0.25,87,118.0
3568,G#1,184.0,0.25,127,118.0
3569,C2,184.0,0.5,110,118.0
3570,B-2,184.0,0.25,104,118.0
3571,G#1,184.0,0.25,127,118.0
3572,G#1,184.0,0.5,127,118.0
3573,B-1,184.0,0.25,101,118.0
3574,G#3,184.0,0.75,101,118.0
3575,B3,184.0,0.75,101,118.0
3576,E-3,184.0,0.75,101,118.0
3577,F#4,184.0,51/20,127,118.0
3578,F#4,184.0,51/20,127,118.0
3579,G#4,184.0,2483/1000,120,118.0
3580,G#4,184.0,2483/1000,120,118.0
3581,E-3,184.0,2833/1000,110,118.0
3582,B2,184.0,2833/1000,110,118.0
3583,E-3,184.0,2833/1000,110,118.0
3584,B2,184.0,2833/1000,110,118.0
3585,B3,184.0,1779/500,127,118.0
3586,B3,184.0,1779/500,127,118.0
3587,B3,184.0,227/250,121,118.0
3588,G#3,184.0,227/250,121,118.0
3589,G#1,184.5,0.125,110,118.0
3590,G#2,184.5,0.25,81,118.0
3591,G#1,184.5,0.125,110,118.0
3592,G#2,184.5,0.25,116,118.0
3593,G#1,184.75,233/1000,110,118.0
3594,F#2,184.75,0.25,96,118.0
3595,G#1,184.75,233/1000,110,118.0
3596,E-2,184.75,0.25,120,118.0
3597,G#3,184.75,2.5,86,118.0
3598,G#2,184.75,2.5,86,118.0
3599,B1,185.0,129/500,127,118.0
3600,E2,185.0,0.5,110,118.0
3601,B-2,185.0,0.25,109,118.0
3602,B1,185.0,129/500,127,118.0
3603,B-3,185.0,11/20,120,118.0
3604,G#3,185.0,0.5,105,118.0
3605,E-3,185.0,0.5,105,118.0
3606,B3,185.0,0.5,105,118.0
3607,B1,185.5,0.125,110,118.0
3608,G#2,185.5,0.25,81,118.0
3609,B1,185.5,0.125,110,118.0
3610,G#2,185.5,0.25,116,118.0
3611,G#3,185.5,11/10,118,118.0
3612,B1,185.75,283/1000,110,118.0
3613,F#2,185.75,0.25,96,118.0
3614,B1,185.75,283/1000,110,118.0
3615,E-3,185.75,0.25,92,118.0
3616,G#3,185.75,0.25,92,118.0
3617,B3,185.75,0.25,92,118.0
3618,E-2,186.0,0.25,127,118.0
3619,C2,186.0,0.5,120,118.0
3620,B-2,186.0,0.25,109,118.0
3621,E-2,186.0,0.25,127,118.0
3622,G#3,186.25,0.25,103,118.0
3623,E-3,186.25,0.25,103,118.0
3624,B3,186.25,0.25,103,118.0
3625,E-2,186.5,133/1000,110,118.0
3626,G#2,186.5,0.25,92,118.0
3627,E-2,186.5,133/1000,110,118.0
3628,G#2,186.5,0.25,116,118.0
3629,F#3,186.5,21/20,126,118.0
3630,F#3,186.583,379/500,120,118.0
3631,F#3,186.583,379/500,120,118.0
3632,E-2,186.75,267/1000,110,118.0
3633,F#2,186.75,0.25,86,118.0
3634,E-2,186.75,267/1000,110,118.0
3635,E-2,186.75,0.25,95,118.0
3636,B1,187.0,233/1000,127,118.0
3637,E2,187.0,0.5,120,118.0
3638,B-2,187.0,0.25,109,118.0
3639,B1,187.0,233/1000,127,118.0
3640,G#1,187.0,0.75,116,118.0
3641,B-3,187.0,0.5,111,118.0
3642,G#3,187.0,0.5,111,118.0
3643,E-3,187.0,0.5,111,118.0
3644,B3,187.375,0.625,120,118.0
3645,B3,187.375,0.625,120,118.0
3646,B1,187.5,0.125,110,118.0
3647,B1,187.5,0.125,110,118.0
3648,G#2,187.5,0.5,127,118.0
3649,B3,187.5,0.25,82,118.0
3650,G#3,187.5,0.5,118,118.0
3651,C2,187.5,0.25,76,118.0
3652,G#2,187.5,0.25,76,118.0
3653,B1,187.75,0.25,110,118.0
3654,F#2,187.75,0.25,104,118.0
3655,B1,187.75,0.25,110,118.0
3656,E-2,187.75,0.25,109,118.0
3657,C#2,188.0,367/1000,127,118.0
3658,B1,188.0,29/500,110,118.0
3659,C2,188.0,0.5,113,118.0
3660,B-2,188.0,0.25,114,118.0
3661,C#2,188.0,367/1000,127,118.0
3662,B1,188.0,29/500,110,118.0
3663,C#2,188.0,0.5,120,118.0
3664,C#3,188.0,63/40,118,118.0
3665,G#3,188.0,729/500,118,118.0
3666,G#3,188.0,0.75,95,118.0
3667,C#4,188.0,0.75,95,118.0
3668,F3,188.0,0.75,95,118.0
3669,F4,188.0,47/20,120,118.0
3670,F4,188.0,47/20,120,118.0
3671,C#3,188.0,31/10,116,118.0
3672,G#3,188.0,31/10,116,118.0
3673,C#4,188.0,31/10,116,118.0
3674,C#3,188.0,31/10,116,118.0
3675,G#3,188.0,31/10,116,118.0
3676,C#4,188.0,31/10,116,118.0
3677,B3,188.0,283/1000,120,118.0
3678,B3,188.0,283/1000,120,118.0
3679,C#2,188.5,0.125,110,118.0
3680,G#2,188.5,0.25,92,118.0
3681,C#2,188.5,0.125,110,118.0
3682,C#3,188.5,0.25,120,118.0
3683,C#2,188.75,133/1000,110,118.0
3684,F#2,188.75,0.25,96,118.0
3685,C#2,188.75,133/1000,110,118.0
3686,G#2,188.75,0.25,89,118.0
3687,G#3,188.75,1.25,100,118.0
3688,C#3,188.75,1.5,88,118.0
3689,C#4,188.75,1.5,88,118.0
3690,C#2,189.0,13/40,127,118.0
3691,E2,189.0,0.75,110,118.0
3692,B-2,189.0,0.25,104,118.0
3693,C#2,189.0,13/40,127,118.0
3694,C#4,189.0,0.5,103,118.0
3695,G#3,189.0,0.5,103,118.0
3696,F3,189.0,0.5,103,118.0
3697,C#2,189.5,0.125,110,118.0
3698,G#2,189.5,0.25,92,118.0
3699,C#2,189.5,0.125,110,118.0
3700,C#3,189.5,0.25,109,118.0
3701,C#2,189.75,71/500,110,118.0
3702,F#2,189.75,0.25,104,118.0
3703,C#2,189.75,71/500,110,118.0
3704,C#4,189.75,0.25,89,118.0
3705,G#3,189.75,0.25,89,118.0
3706,F3,189.75,0.25,89,118.0
3707,C#2,190.0,267/1000,127,118.0
3708,C2,190.0,0.75,110,118.0
3709,B-2,190.0,0.25,109,118.0
3710,C#2,190.0,267/1000,127,118.0
3711,F3,190.25,0.25,98,118.0
3712,G#3,190.25,0.25,98,118.0
3713,C#4,190.25,0.25,98,118.0
3714,C#2,190.5,0.125,110,118.0
3715,G#2,190.5,0.25,104,118.0
3716,C#2,190.5,0.125,110,118.0
3717,C#3,190.5,0.25,104,118.0
3718,F#4,190.5,33/40,120,118.0
3719,F#4,190.5,33/40,120,118.0
3720,E-4,190.5,521/500,127,118.0
3721,E-4,190.5,521/500,127,118.0
3722,C#2,190.75,0.125,110,118.0
3723,F#2,190.75,0.25,104,118.0
3724,C#2,190.75,0.125,110,118.0
3725,G#2,190.75,0.25,104,118.0
3726,C#2,191.0,233/1000,127,118.0
3727,C#2,191.0,233/1000,127,118.0
3728,C#2,191.0,0.25,124,118.0
3729,E2,191.0,0.25,111,118.0
3730,B-2,191.0,0.25,111,118.0
3731,F#3,191.25,0.25,110,118.0
3732,E-3,191.25,0.25,110,118.0
3733,B3,191.25,0.25,110,118.0
3734,B2,191.25,0.5,97,118.0
3735,B3,191.25,0.5,97,118.0
3736,F#3,191.25,0.5,97,118.0
3737,C#2,191.5,0.25,110,118.0
3738,C#2,191.5,0.25,110,118.0
3739,C#3,191.5,0.25,124,118.0
3740,C2,191.5,0.25,97,118.0
3741,G#2,191.5,0.25,97,118.0
3742,G#4,191.5,0.5,120,118.0
3743,G#4,191.5,0.5,120,118.0
3744,F4,191.5,0.5,127,118.0
3745,F4,191.5,0.5,127,118.0
3746,B1,191.75,0.25,110,118.0
3747,F#2,191.75,0.25,96,118.0
3748,B1,191.75,0.25,110,118.0
3749,G#2,191.75,0.25,109,118.0
3750,C#2,192.0,283/1000,127,118.0
3751,B1,192.0,1/10,110,118.0
3752,C2,192.0,0.5,117,118.0
3753,B-2,192.0,0.25,109,118.0
3754,C#2,192.0,283/1000,127,118.0
3755,B1,192.0,1/10,110,118.0
3756,C#2,192.0,0.5,124,118.0
3757,F3,192.0,0.75,105,118.0
3758,C#4,192.0,0.75,105,118.0
3759,G#3,192.0,0.75,105,118.0
3760,G#3,192.0,1579/500,110,118.0
3761,C#3,192.0,1579/500,110,118.0
3762,C#4,192.0,1579/500,110,118.0
3763,G#3,192.0,1579/500,110,118.0
3764,C#3,192.0,1579/500,110,118.0
3765,C#4,192.0,1579/500,110,118.0
3766,G#4,192.0,779/500,120,118.0
3767,G#4,192.0,779/500,120,118.0
3768,F4,192.0,16/5,127,118.0
3769,F4,192.0,16/5,127,118.0
3770,G#3,192.25,0.5,100,118.0
3771,E-3,192.25,0.25,81,118.0
3772,C#4,192.25,0.5,90,118.0
3773,C#3,192.25,0.5,90,118.0
3774,C#2,192.5,117/1000,110,118.0
3775,G#2,192.5,0.25,104,118.0
3776,C#2,192.5,117/1000,110,118.0
3777,C#3,192.5,0.25,120,118.0
3778,C#2,192.75,79/500,110,118.0
3779,F#2,192.75,0.25,92,118.0
3780,C#2,192.75,79/500,110,118.0
3781,G#2,192.75,0.25,120,118.0
3782,G#3,192.75,1.0,100,118.0
3783,C#4,192.75,1.25,90,118.0
3784,C#3,192.75,1.25,90,118.0
3785,C#2,193.0,171/500,127,118.0
3786,E2,193.0,0.5,113,118.0
3787,B-2,193.0,0.25,104,118.0
3788,C#2,193.0,171/500,127,118.0
3789,F3,193.0,0.5,106,118.0
3790,G#3,193.0,0.5,106,118.0
3791,C#4,193.0,0.5,106,118.0
3792,C#2,193.5,0.125,110,118.0
3793,G#2,193.5,0.25,96,118.0
3794,C#2,193.5,0.125,110,118.0
3795,C#3,193.5,0.25,120,118.0
3796,C#2,193.75,283/1000,110,118.0
3797,F#2,193.75,0.25,96,118.0
3798,C#2,193.75,283/1000,110,118.0
3799,C#4,193.75,0.25,91,118.0
3800,G#3,193.75,0.25,91,118.0
3801,F3,193.75,0.25,91,118.0
3802,B1,194.0,7/20,127,118.0
3803,C2,194.0,0.75,120,118.0
3804,B-2,194.0,0.25,109,118.0
3805,B1,194.0,7/20,127,118.0
3806,F3,194.25,0.25,111,118.0
3807,C#4,194.25,0.25,111,118.0
3808,G#3,194.25,0.25,111,118.0
3809,B1,194.5,317/1000,110,118.0
3810,G#2,194.5,0.25,96,118.0
3811,B1,194.5,317/1000,110,118.0
3812,C#3,194.5,0.25,116,118.0
3813,F#2,194.75,0.25,100,118.0
3814,G#2,194.75,0.25,109,118.0
3815,B2,194.75,0.5,99,118.0
3816,B3,194.75,0.5,99,118.0
3817,F#3,194.75,0.5,99,118.0
3818,E2,195.0,0.5,113,118.0
3819,F3,195.0,0.75,93,118.0
3820,B-2,195.0,0.25,120,118.0
3821,D2,195.0,0.25,120,118.0
3822,C#2,195.0,0.5,109,118.0
3823,C#4,195.0,0.5,109,118.0
3824,G#3,195.0,0.5,109,118.0
3825,B3,195.25,0.5,94,118.0
3826,B2,195.25,0.5,94,118.0
3827,F#3,195.25,0.5,94,118.0
3828,C#2,195.5,0.5,110,118.0
3829,C#2,195.5,0.5,110,118.0
3830,C#3,195.5,0.25,112,118.0
3831,E-3,195.5,0.25,64,118.0
3832,C2,195.5,0.25,95,118.0
3833,G#2,195.5,0.25,95,118.0
3834,C2,195.5,0.25,95,118.0
3835,F#2,195.75,0.25,54,118.0
3836,C#2,196.0,1/10,110,118.0
3837,C4,196.0,417/1000,80,118.0
3838,C#2,196.0,1/10,110,118.0
3839,E3,196.0,0.25,97,118.0
3840,B-2,196.0,0.25,97,118.0
3841,C#3,196.0,0.25,97,118.0
3842,C2,196.0,0.5,106,118.0
3843,B-2,196.0,0.5,106,118.0
3844,C4,196.25,417/1000,80,118.0
3845,G#3,196.25,0.5,86,118.0
3846,C#3,196.25,0.5,92,118.0
3847,C#4,196.25,0.5,92,118.0
3848,C#2,196.5,117/1000,110,118.0
3849,G#2,196.5,0.25,60,118.0
3850,C#2,196.5,117/1000,110,118.0
3851,C#2,196.75,71/500,110,118.0
3852,F#2,196.75,0.25,104,118.0
3853,C4,196.75,417/1000,80,118.0
3854,C#2,196.75,71/500,110,118.0
3855,G#3,196.75,4.0,86,118.0
3856,C#3,196.75,4.0,92,118.0
3857,C#4,196.75,4.0,92,118.0
3858,C#2,197.0,0.25,127,118.0
3859,C#4,197.0,417/1000,80,118.0
3860,C#2,197.0,0.25,127,118.0
3861,C#4,197.0,983/1000,123,118.0
3862,E2,197.0,0.5,113,118.0
3863,B-2,197.0,0.5,113,118.0
3864,C#2,197.5,117/1000,110,118.0
3865,G#2,197.5,0.25,64,118.0
3866,C#4,197.5,417/1000,80,118.0
3867,E4,197.5,529/500,80,118.0
3868,C#2,197.5,117/1000,110,118.0
3869,C#2,197.75,117/1000,110,118.0
3870,F#2,197.75,0.25,104,118.0
3871,E4,197.75,529/500,80,118.0
3872,C#2,197.75,117/1000,110,118.0
3873,C#2,198.0,3/10,127,118.0
3874,C2,198.0,0.75,53,118.0
3875,B-2,198.0,0.5,104,118.0
3876,C4,198.0,417/1000,80,118.0
3877,C#2,198.0,3/10,127,118.0
3878,B3,198.0,521/500,123,118.0
3879,C#4,198.25,417/1000,80,118.0
3880,C#2,198.5,27/250,110,118.0
3881,G#2,198.5,0.25,79,118.0
3882,C#2,198.5,27/250,110,118.0
3883,C#2,198.75,0.125,110,118.0
3884,F#2,198.75,0.25,104,118.0
3885,C#2,198.75,0.125,110,118.0
3886,C#2,199.0,73/250,127,118.0
3887,C#2,199.0,73/250,127,118.0
3888,E2,199.0,0.5,116,118.0
3889,B-2,199.0,0.5,116,118.0
3890,C#2,199.5,117/1000,110,118.0
3891,C#2,199.5,117/1000,110,118.0
3892,G#3,199.5,0.5,113,118.0
3893,C2,199.5,0.25,82,118.0
3894,G#2,199.5,0.25,82,118.0
3895,C#2,199.75,27/250,110,118.0
3896,F#2,199.75,0.25,100,118.0
3897,C#4,199.75,0.25,80,118.0
3898,C#2,199.75,27/250,110,118.0
3899,C#2,200.0,73/250,127,118.0
3900,C4,200.0,417/1000,80,118.0
3901,C#4,200.0,167/1000,80,118.0
3902,C#2,200.0,73/250,127,118.0
3903,B3,200.0,7/20,125,118.0
3904,G#3,200.0,1/40,113,118.0
3905,C2,200.0,0.5,118,118.0
3906,B-2,200.0,0.5,118,118.0
3907,C4,200.25,417/1000,80,118.0
3908,C#2,200.5,133/1000,110,118.0
3909,C#2,200.5,133/1000,110,118.0
3910,B3,200.5,683/1000,118,118.0
3911,C#2,200.75,0.125,110,118.0
3912,G#2,200.75,0.25,75,118.0
3913,C4,200.75,417/1000,80,118.0
3914,C#2,200.75,0.125,110,118.0
3915,G#3,200.75,1.0,86,118.0
3916,C#3,200.75,1.25,92,118.0
3917,C#4,200.75,1.25,92,118.0
3918,C#2,201.0,233/1000,127,118.0
3919,E2,201.0,0.5,110,118.0
3920,C#4,201.0,417/1000,80,118.0
3921,C#2,201.0,233/1000,127,118.0
3922,F#2,201.0,0.25,96,118.0
3923,B-2,201.0,0.25,96,118.0
3924,C#2,201.5,117/1000,110,118.0
3925,G#2,201.5,0.25,81,118.0
3926,C#4,201.5,417/1000,80,118.0
3927,E4,201.5,529/500,80,118.0
3928,C#2,201.5,117/1000,110,118.0
3929,B3,201.5,983/1000,126,118.0
3930,C#2,201.75,183/1000,110,118.0
3931,F#2,201.75,0.25,96,118.0
3932,E4,201.75,529/500,80,118.0
3933,C#2,201.75,183/1000,110,118.0
3934,B1,202.0,13/40,127,118.0
3935,C2,202.0,0.75,113,118.0
3936,B-2,202.0,0.25,100,118.0
3937,C4,202.0,417/1000,80,118.0
3938,B1,202.0,13/40,127,118.0
3939,C#4,202.25,417/1000,80,118.0
3940,B1,202.5,13/40,110,118.0
3941,G#2,202.5,0.25,89,118.0
3942,B1,202.5,13/40,110,118.0
3943,G#3,202.5,533/1000,117,118.0
3944,E-4,202.5,483/1000,127,118.0
3945,F#2,202.75,0.25,92,118.0
3946,B3,202.75,0.25,97,118.0
3947,B2,202.75,0.25,97,118.0
3948,F#3,202.75,0.25,97,118.0
3949,E2,203.0,0.5,110,118.0
3950,B-2,203.0,0.25,109,118.0
3951,E4,203.0,279/500,127,118.0
3952,B3,203.25,0.25,89,118.0
3953,B2,203.25,0.25,89,118.0
3954,F#3,203.25,0.25,89,118.0
3955,C#2,203.5,0.5,110,118.0
3956,C#2,203.5,0.5,110,118.0
3957,F#4,203.5,0.5,127,118.0
3958,C2,203.5,0.25,82,118.0
3959,G#2,203.5,0.25,82,118.0
3960,F#2,203.75,0.25,92,118.0
3961,C#4,203.75,0.25,80,118.0
3962,C#2,204.0,73/250,110,118.0
3963,C2,204.0,0.5,110,118.0
3964,B-2,204.0,0.25,114,118.0
3965,C4,204.0,417/1000,80,118.0
3966,C#4,204.0,167/1000,80,118.0
3967,C#2,204.0,73/250,110,118.0
3968,F#4,204.0,121/500,127,118.0
3969,C4,204.25,417/1000,80,118.0
3970,G#3,204.25,0.5,85,118.0
3971,C#4,204.25,0.5,85,118.0
3972,C#3,204.25,0.5,85,118.0
3973,C#2,204.5,1/10,110,118.0
3974,G#2,204.5,0.25,77,118.0
3975,C#2,204.5,1/10,110,118.0
3976,G#3,204.5,127/250,127,118.0
3977,C#2,204.75,23/250,110,118.0
3978,F#2,204.75,0.25,96,118.0
3979,C4,204.75,417/1000,80,118.0
3980,C#2,204.75,23/250,110,118.0
3981,G#3,204.75,4.0,85,118.0
3982,C#4,204.75,4.0,85,118.0
3983,C#3,204.75,4.0,85,118.0
3984,C#2,205.0,77/250,127,118.0
3985,E2,205.0,0.75,110,118.0
3986,C#4,205.0,417/1000,80,118.0
3987,C#2,205.0,77/250,127,118.0
3988,C#4,205.0,223/250,118,118.0
3989,F#2,205.0,0.25,74,118.0
3990,B-2,205.0,0.25,74,118.0
3991,C#2,205.5,1/10,110,118.0
3992,G#2,205.5,0.25,86,118.0
3993,C#4,205.5,417/1000,80,118.0
3994,E4,205.5,529/500,80,118.0
3995,C#2,205.5,1/10,110,118.0
3996,C#2,205.75,23/250,110,118.0
3997,F#2,205.75,0.25,100,118.0
3998,E4,205.75,529/500,80,118.0
3999,C#2,205.75,23/250,110,118.0
4000,C#2,206.0,3/10,127,118.0
4001,C2,206.0,0.75,110,118.0
4002,B-2,206.0,0.25,109,118.0
4003,C4,206.0,417/1000,80,118.0
4004,C#2,206.0,3/10,127,118.0
4005,B3,206.0,1.0,125,118.0
4006,C#4,206.25,417/1000,80,118.0
4007,C#2,206.5,27/250,110,118.0
4008,G#2,206.5,0.25,92,118.0
4009,C#2,206.5,27/250,110,118.0
4010,C#2,206.75,27/250,110,118.0
4011,F#2,206.75,0.25,100,118.0
4012,C#2,206.75,27/250,110,118.0
4013,C#2,207.0,13/40,127,118.0
4014,E2,207.0,0.5,110,118.0
4015,B-2,207.0,0.25,114,118.0
4016,C#2,207.0,13/40,127,118.0
4017,C#2,207.5,0.125,110,118.0
4018,C#2,207.5,0.125,110,118.0
4019,G#3,207.5,0.5,118,118.0
4020,C2,207.5,0.25,77,118.0
4021,G#2,207.5,0.25,77,118.0
4022,C#2,207.75,117/1000,110,118.0
4023,F#2,207.75,0.25,100,118.0
4024,C#4,207.75,0.25,80,118.0
4025,C#2,207.75,117/1000,110,118.0
4026,C#2,208.0,77/250,127,118.0
4027,C2,208.0,0.75,120,118.0
4028,B-2,208.0,0.25,109,118.0
4029,C4,208.0,417/1000,80,118.0
4030,C#4,208.0,167/1000,80,118.0
4031,C#2,208.0,77/250,127,118.0
4032,B3,208.0,317/1000,126,118.0
4033,G#3,208.0,17/1000,118,118.0
4034,C4,208.25,417/1000,80,118.0
4035,C#2,208.5,0.125,110,118.0
4036,G#2,208.5,0.25,84,118.0
4037,C#2,208.5,0.125,110,118.0
4038,B3,208.5,227/250,125,118.0
4039,C#2,208.75,0.125,110,118.0
4040,F#2,208.75,0.25,89,118.0
4041,C4,208.75,417/1000,80,118.0
4042,C#2,208.75,0.125,110,118.0
4043,G#3,208.75,0.25,85,118.0
4044,C#4,208.75,0.25,85,118.0
4045,C#3,208.75,0.25,85,118.0
4046,C#2,209.0,317/1000,127,118.0
4047,E2,209.0,0.75,113,118.0
4048,B-2,209.0,0.25,114,118.0
4049,C#4,209.0,417/1000,80,118.0
4050,C#2,209.0,317/1000,127,118.0
4051,C#2,209.5,117/1000,110,118.0
4052,G#2,209.5,0.25,92,118.0
4053,C#4,209.5,417/1000,80,118.0
4054,E4,209.5,529/500,80,118.0
4055,C#2,209.5,117/1000,110,118.0
4056,C#4,209.5,373/250,120,118.0
4057,C#2,209.75,79/500,110,118.0
4058,F#2,209.75,0.25,96,118.0
4059,E4,209.75,529/500,80,118.0
4060,C#2,209.75,79/500,110,118.0
4061,B1,210.0,13/40,127,118.0
4062,C2,210.0,0.75,113,118.0
4063,B-2,210.0,0.25,114,118.0
4064,C4,210.0,417/1000,80,118.0
4065,B1,210.0,13/40,127,118.0
4066,C#4,210.25,417/1000,80,118.0
4067,B1,210.5,467/1000,110,118.0
4068,G#2,210.5,0.25,100,118.0
4069,B1,210.5,467/1000,110,118.0
4070,E4,210.5,11/20,127,118.0
4071,F#2,210.75,0.25,100,118.0
4072,B3,210.75,0.25,95,118.0
4073,B2,210.75,0.25,95,118.0
4074,F#3,210.75,0.25,95,118.0
4075,E2,211.0,0.5,110,118.0
4076,B-2,211.0,0.25,114,118.0
4077,B3,211.0,21/40,115,118.0
4078,E-4,211.0,0.5,127,118.0
4079,B3,211.25,0.25,93,118.0
4080,B2,211.25,0.25,93,118.0
4081,F#3,211.25,0.25,93,118.0
4082,B1,211.5,417/1000,110,118.0
4083,B1,211.5,417/1000,110,118.0
4084,B-3,211.5,0.5,118,118.0
4085,C#4,211.5,0.5,127,118.0
4086,C2,211.5,0.25,87,118.0
4087,G#2,211.5,0.25,87,118.0
4088,F#2,211.75,0.25,109,118.0
4089,C#4,211.75,0.25,80,118.0
4090,F#1,212.0,171/500,127,118.0
4091,C2,212.0,0.5,113,118.0
4092,B-2,212.0,0.25,109,118.0
4093,C4,212.0,417/1000,80,118.0
4094,C#4,212.0,167/1000,80,118.0
4095,F#1,212.0,171/500,127,118.0
4096,B-3,212.0,0.875,118,118.0
4097,C#4,212.0,273/250,127,118.0
4098,C4,212.25,417/1000,80,118.0
4099,F#2,212.25,0.5,100,118.0
4100,C#3,212.25,0.5,100,118.0
4101,F#3,212.25,0.5,100,118.0
4102,F#1,212.5,117/1000,110,118.0
4103,G#2,212.5,0.25,96,118.0
4104,F#1,212.5,117/1000,110,118.0
4105,F#1,212.75,117/1000,110,118.0
4106,F#2,212.75,0.25,100,118.0
4107,C4,212.75,417/1000,80,118.0
4108,F#1,212.75,117/1000,110,118.0
4109,F#2,212.75,4.0,100,118.0
4110,C#3,212.75,4.0,100,118.0
4111,F#3,212.75,4.0,100,118.0
4112,F#1,213.0,3/10,127,118.0
4113,E2,213.0,0.75,110,118.0
4114,B-2,213.0,0.25,114,118.0
4115,C#4,213.0,417/1000,80,118.0
4116,F#1,213.0,3/10,127,118.0
4117,B-3,213.0,429/500,115,118.0
4118,F#1,213.5,0.125,110,118.0
4119,G#2,213.5,0.25,92,118.0
4120,C#4,213.5,417/1000,80,118.0
4121,E4,213.5,529/500,80,118.0
4122,F#1,213.5,0.125,110,118.0
4123,F#1,213.75,133/1000,110,118.0
4124,F#2,213.75,0.25,100,118.0
4125,E4,213.75,529/500,80,118.0
4126,F#1,213.75,133/1000,110,118.0
4127,F#1,214.0,317/1000,127,118.0
4128,C2,214.0,0.75,120,118.0
4129,B-2,214.0,0.25,114,118.0
4130,C4,214.0,417/1000,80,118.0
4131,F#1,214.0,317/1000,127,118.0
4132,B-3,214.0,4/5,123,118.0
4133,C#4,214.25,417/1000,80,118.0
4134,F#1,214.5,27/250,110,118.0
4135,G#2,214.5,0.25,96,118.0
4136,F#1,214.5,27/250,110,118.0
4137,F#1,214.75,27/250,110,118.0
4138,F#2,214.75,0.25,100,118.0
4139,F#1,214.75,27/250,110,118.0
4140,F#1,215.0,333/1000,127,118.0
4141,E2,215.0,0.5,117,118.0
4142,B-2,215.0,0.25,100,118.0
4143,F#1,215.0,333/1000,127,118.0
4144,B-3,215.0,733/1000,125,118.0
4145,F#1,215.5,117/1000,110,118.0
4146,F#1,215.5,117/1000,110,118.0
4147,C2,215.5,0.25,90,118.0
4148,G#2,215.5,0.25,90,118.0
4149,F#1,215.75,117/1000,110,118.0
4150,F#2,215.75,0.25,92,118.0
4151,C#4,215.75,0.25,80,118.0
4152,F#1,215.75,117/1000,110,118.0
4153,F#1,216.0,3/10,127,118.0
4154,C2,216.0,0.5,110,118.0
4155,B-2,216.0,0.25,104,118.0
4156,C4,216.0,417/1000,80,118.0
4157,C#4,216.0,167/1000,80,118.0
4158,F#1,216.0,3/10,127,118.0
4159,B-3,216.0,383/1000,118,118.0
4160,C4,216.25,417/1000,80,118.0
4161,F#1,216.5,71/500,110,118.0
4162,G#2,216.5,0.25,81,118.0
4163,F#1,216.5,71/500,110,118.0
4164,B-3,216.5,717/1000,125,118.0
4165,F#1,216.75,0.125,110,118.0
4166,F#2,216.75,0.25,96,118.0
4167,C4,216.75,417/1000,80,118.0
4168,F#1,216.75,0.125,110,118.0
4169,F#2,216.75,0.75,100,118.0
4170,C#3,216.75,0.75,100,118.0
4171,F#3,216.75,0.75,100,118.0
4172,F#1,217.0,383/1000,127,118.0
4173,E2,217.0,0.5,110,118.0
4174,B-2,217.0,0.25,109,118.0
4175,C#4,217.0,417/1000,80,118.0
4176,F#1,217.0,383/1000,127,118.0
4177,F#1,217.5,71/500,110,118.0
4178,G#2,217.5,0.25,81,118.0
4179,C#4,217.5,417/1000,80,118.0
4180,E4,217.5,529/500,80,118.0
4181,F#1,217.5,71/500,110,118.0
4182,B-3,217.5,1033/1000,120,118.0
4183,C#4,217.5,567/1000,127,118.0
4184,F#1,217.75,71/500,110,118.0
4185,F#2,217.75,0.25,96,118.0
4186,E4,217.75,529/500,80,118.0
4187,F#1,217.75,71/500,110,118.0
4188,B1,218.0,171/500,127,118.0
4189,C2,218.0,0.5,120,118.0
4190,B-2,218.0,0.25,109,118.0
4191,C4,218.0,417/1000,80,118.0
4192,B1,218.0,171/500,127,118.0
4193,E-4,218.0,41/40,127,118.0
4194,C#4,218.25,417/1000,80,118.0
4195,B1,218.5,283/1000,110,118.0
4196,G#2,218.5,0.25,92,118.0
4197,B1,218.5,283/1000,110,118.0
4198,G#3,218.5,173/250,118,118.0
4199,F#2,218.75,0.25,86,118.0
4200,E-3,218.75,0.5,101,118.0
4201,E-2,218.75,0.5,101,118.0
4202,B-2,218.75,0.5,101,118.0
4203,E2,219.0,0.5,120,118.0
4204,B-2,219.0,0.25,109,118.0
4205,B3,219.0,13/40,127,118.0
4206,B-2,219.25,0.25,92,118.0
4207,E-2,219.25,0.5,84,118.0
4208,E-3,219.25,0.5,84,118.0
4209,E1,219.5,0.5,110,118.0
4210,E1,219.5,0.5,110,118.0
4211,B3,219.5,0.5,127,118.0
4212,C2,219.5,0.25,76,118.0
4213,G#2,219.5,0.25,76,118.0
4214,F#2,219.75,0.25,104,118.0
4215,C#4,219.75,0.25,80,118.0
4216,E1,220.0,233/1000,110,118.0
4217,C2,220.0,0.5,113,118.0
4218,B-2,220.0,0.25,114,118.0
4219,C4,220.0,417/1000,80,118.0
4220,C#4,220.0,167/1000,80,118.0
4221,E1,220.0,233/1000,110,118.0
4222,B3,220.0,967/1000,127,118.0
4223,C4,220.25,417/1000,80,118.0
4224,E2,220.25,0.5,99,118.0
4225,E3,220.25,0.5,112,118.0
4226,B2,220.25,0.5,112,118.0
4227,E1,220.5,27/250,110,118.0
4228,G#2,220.5,0.25,92,118.0
4229,E1,220.5,27/250,110,118.0
4230,E1,220.75,27/250,110,118.0
4231,F#2,220.75,0.25,96,118.0
4232,C4,220.75,417/1000,80,118.0
4233,E1,220.75,27/250,110,118.0
4234,E2,220.75,2.75,99,118.0
4235,E3,220.75,3.0,112,118.0
4236,B2,220.75,3.0,112,118.0
4237,E1,221.0,129/500,127,118.0
4238,E2,221.0,0.75,110,118.0
4239,B-2,221.0,0.25,104,118.0
4240,C#4,221.0,417/1000,80,118.0
4241,E1,221.0,129/500,127,118.0
4242,G#3,221.0,421/500,123,118.0
4243,E1,221.5,117/1000,110,118.0
4244,G#2,221.5,0.25,92,118.0
4245,C#4,221.5,417/1000,80,118.0
4246,E4,221.5,529/500,80,118.0
4247,E1,221.5,117/1000,110,118.0
4248,E1,221.75,117/1000,110,118.0
4249,F#2,221.75,0.25,104,118.0
4250,E4,221.75,529/500,80,118.0
4251,E1,221.75,117/1000,110,118.0
4252,E1,222.0,283/1000,127,118.0
4253,C2,222.0,0.75,110,118.0
4254,B-2,222.0,0.25,109,118.0
4255,C4,222.0,417/1000,80,118.0
4256,E1,222.0,283/1000,127,118.0
4257,B3,222.0,1067/1000,126,118.0
4258,C#4,222.25,417/1000,80,118.0
4259,E1,222.5,117/1000,110,118.0
4260,G#2,222.5,0.25,104,118.0
4261,E1,222.5,117/1000,110,118.0
4262,E1,222.75,27/250,110,118.0
4263,F#2,222.75,0.25,104,118.0
4264,E1,222.75,27/250,110,118.0
4265,E1,223.0,77/250,127,118.0
4266,E1,223.0,77/250,127,118.0
4267,C#4,223.0,99/125,117,118.0
4268,E2,223.0,0.25,111,118.0
4269,B-2,223.0,0.25,111,118.0
4270,E1,223.5,117/1000,110,118.0
4271,E1,223.5,117/1000,110,118.0
4272,C2,223.5,0.25,97,118.0
4273,G#2,223.5,0.25,97,118.0
4274,E1,223.75,0.125,110,118.0
4275,F#2,223.75,0.25,96,118.0
4276,C#4,223.75,0.25,80,118.0
4277,E1,223.75,0.125,110,118.0
4278,E1,224.0,13/40,127,118.0
4279,C2,224.0,0.5,117,118.0
4280,B-2,224.0,0.25,109,118.0
4281,C4,224.0,417/1000,80,118.0
4282,C#4,224.0,167/1000,80,118.0
4283,E1,224.0,13/40,127,118.0
4284,C#4,224.0,21/40,118,118.0
4285,C4,224.25,417/1000,80,118.0
4286,E1,224.5,117/1000,110,118.0
4287,G#2,224.5,0.25,104,118.0
4288,E1,224.5,117/1000,110,118.0
4289,G#3,224.5,39/40,120,118.0
4290,E1,224.75,133/1000,110,118.0
4291,F#2,224.75,0.25,92,118.0
4292,C4,224.75,417/1000,80,118.0
4293,E1,224.75,133/1000,110,118.0
4294,E1,225.0,77/250,127,118.0
4295,E2,225.0,0.5,113,118.0
4296,B-2,225.0,0.25,104,118.0
4297,C#4,225.0,417/1000,80,118.0
4298,E1,225.0,77/250,127,118.0
4299,E1,225.5,117/1000,110,118.0
4300,G#2,225.5,0.25,96,118.0
4301,C#4,225.5,417/1000,80,118.0
4302,E4,225.5,529/500,80,118.0
4303,E1,225.5,117/1000,110,118.0
4304,B3,225.5,667/1000,125,118.0
4305,E1,225.75,129/500,110,118.0
4306,F#2,225.75,0.25,96,118.0
4307,E4,225.75,529/500,80,118.0
4308,E1,225.75,129/500,110,118.0
4309,B1,226.0,317/1000,127,118.0
4310,C2,226.0,0.75,120,118.0
4311,B-2,226.0,0.25,109,118.0
4312,C4,226.0,417/1000,80,118.0
4313,B1,226.0,317/1000,127,118.0
4314,C#4,226.25,417/1000,80,118.0
4315,B1,226.5,267/1000,110,118.0
4316,G#2,226.5,0.25,96,118.0
4317,B1,226.5,267/1000,110,118.0
4318,F#2,226.75,0.25,100,118.0
4319,B2,226.75,0.25,98,118.0
4320,B3,226.75,0.25,98,118.0
4321,F#3,226.75,0.25,98,118.0
4322,E2,227.0,0.5,113,118.0
4323,B-2,227.0,0.25,114,118.0
4324,B3,227.25,0.25,90,118.0
4325,F#3,227.25,0.25,90,118.0
4326,B2,227.25,0.25,90,118.0
4327,C#2,227.5,0.5,110,118.0
4328,C#2,227.5,0.5,110,118.0
4329,D2,227.5,0.25,87,118.0
4330,C2,227.5,0.25,87,118.0
4331,G#2,227.5,0.25,87,118.0
4332,F#2,227.75,0.25,54,118.0
4333,C#4,227.75,0.25,80,118.0
4334,C#2,228.0,77/250,110,118.0
4335,C4,228.0,417/1000,80,118.0
4336,C#4,228.0,167/1000,80,118.0
4337,C#2,228.0,77/250,110,118.0
4338,C2,228.0,0.25,98,118.0
4339,B-2,228.0,0.25,98,118.0
4340,A3,228.0,0.25,98,118.0
4341,C#3,228.0,0.25,98,118.0
4342,B-2,228.0,0.5,110,118.0
4343,C2,228.0,0.5,110,118.0
4344,C4,228.25,417/1000,80,118.0
4345,C#3,228.25,0.5,84,118.0
4346,G#3,228.25,0.5,92,118.0
4347,C#4,228.25,0.5,92,118.0
4348,C#2,228.5,27/250,110,118.0
4349,G#2,228.5,0.25,60,118.0
4350,C#2,228.5,27/250,110,118.0
4351,C#2,228.75,117/1000,110,118.0
4352,F#2,228.75,0.25,104,118.0
4353,C4,228.75,417/1000,80,118.0
4354,C#2,228.75,117/1000,110,118.0
4355,C#3,228.75,4.0,84,118.0
4356,G#3,228.75,4.0,92,118.0
4357,C#4,228.75,4.0,92,118.0
4358,C#2,229.0,317/1000,127,118.0
4359,C#4,229.0,417/1000,80,118.0
4360,C#2,229.0,317/1000,127,118.0
4361,C#4,229.0,1017/1000,120,118.0
4362,E2,229.0,0.5,113,118.0
4363,B-2,229.0,0.5,113,118.0
4364,C#2,229.5,117/1000,110,118.0
4365,G#2,229.5,0.25,64,118.0
4366,C#4,229.5,417/1000,80,118.0
4367,E4,229.5,529/500,80,118.0
4368,C#2,229.5,117/1000,110,118.0
4369,C#2,229.75,133/1000,110,118.0
4370,F#2,229.75,0.25,104,118.0
4371,E4,229.75,529/500,80,118.0
4372,C#2,229.75,133/1000,110,118.0
4373,C#2,230.0,179/500,127,118.0
4374,C2,230.0,0.75,53,118.0
4375,B-2,230.0,0.5,104,118.0
4376,C4,230.0,417/1000,80,118.0
4377,C#2,230.0,179/500,127,118.0
4378,B3,230.0,471/500,123,118.0
4379,C#4,230.25,417/1000,80,118.0
4380,C#2,230.5,3/20,110,118.0
4381,G#2,230.5,0.25,79,118.0
4382,C#2,230.5,3/20,110,118.0
4383,C#2,230.75,117/1000,110,118.0
4384,F#2,230.75,0.25,104,118.0
4385,C#2,230.75,117/1000,110,118.0
4386,C#2,231.0,3/10,127,118.0
4387,C#2,231.0,3/10,127,118.0
4388,E2,231.0,0.5,116,118.0
4389,B-2,231.0,0.5,116,118.0
4390,C#2,231.5,0.125,110,118.0
4391,C#2,231.5,0.125,110,118.0
4392,C2,231.5,0.25,82,118.0
4393,G#2,231.5,0.25,82,118.0
4394,C#2,231.75,117/1000,110,118.0
4395,F#2,231.75,0.25,100,118.0
4396,C#4,231.75,0.25,80,118.0
4397,C#2,231.75,117/1000,110,118.0
4398,C#2,232.0,13/40,127,118.0
4399,C4,232.0,417/1000,80,118.0
4400,C#4,232.0,167/1000,80,118.0
4401,C#2,232.0,13/40,127,118.0
4402,B3,232.0,0.375,126,118.0
4403,C2,232.0,0.5,118,118.0
4404,B-2,232.0,0.5,118,118.0
4405,C4,232.25,417/1000,80,118.0
4406,C#2,232.5,133/1000,110,118.0
4407,C#2,232.5,133/1000,110,118.0
4408,B3,232.5,633/1000,123,118.0
4409,C#2,232.75,71/500,110,118.0
4410,G#2,232.75,0.25,75,118.0
4411,C4,232.75,417/1000,80,118.0
4412,C#2,232.75,71/500,110,118.0
4413,C#3,232.75,0.75,84,118.0
4414,G#3,232.75,0.5,92,118.0
4415,C#4,232.75,0.5,92,118.0
4416,C#2,233.0,317/1000,127,118.0
4417,E2,233.0,0.5,110,118.0
4418,C#4,233.0,417/1000,80,118.0
4419,C#2,233.0,317/1000,127,118.0
4420,F#2,233.0,0.25,96,118.0
4421,B-2,233.0,0.25,96,118.0
4422,C#2,233.5,117/1000,110,118.0
4423,G#2,233.5,0.25,81,118.0
4424,C#4,233.5,417/1000,80,118.0
4425,E4,233.5,529/500,80,118.0
4426,C#2,233.5,117/1000,110,118.0
4427,B3,233.5,1.0,123,118.0
4428,C#2,233.75,183/1000,110,118.0
4429,F#2,233.75,0.25,96,118.0
4430,E4,233.75,529/500,80,118.0
4431,C#2,233.75,183/1000,110,118.0
4432,B1,234.0,221/500,127,118.0
4433,C2,234.0,0.75,113,118.0
4434,B-2,234.0,0.25,100,118.0
4435,C4,234.0,417/1000,80,118.0
4436,B1,234.0,221/500,127,118.0
4437,C#4,234.25,417/1000,80,118.0
4438,B1,234.5,179/500,110,118.0
4439,G#2,234.5,0.25,89,118.0
4440,B1,234.5,179/500,110,118.0
4441,G#3,234.5,371/500,125,118.0
4442,F#4,234.5,123/250,127,118.0
4443,E-4,234.5,123/250,127,118.0
4444,F#2,234.75,0.25,92,118.0
4445,B3,234.75,0.5,104,118.0
4446,B2,234.75,0.5,104,118.0
4447,F#3,234.75,0.5,104,118.0
4448,E2,235.0,0.5,110,118.0
4449,B-2,235.0,0.25,109,118.0
4450,E4,235.0,127/250,127,118.0
4451,G#4,235.0,127/250,127,118.0
4452,B2,235.25,0.25,90,118.0
4453,B3,235.25,0.25,90,118.0
4454,F#3,235.25,0.25,90,118.0
4455,C#2,235.5,0.5,110,118.0
4456,C#2,235.5,0.5,110,118.0
4457,C2,235.5,0.25,82,118.0
4458,G#2,235.5,0.25,82,118.0
4459,B4,235.5,0.5,127,118.0
4460,F#4,235.5,0.5,127,118.0
4461,F#2,235.75,0.25,92,118.0
4462,C#4,235.75,0.25,80,118.0
4463,C#2,236.0,77/250,110,118.0
4464,C2,236.0,0.5,110,118.0
4465,B-2,236.0,0.25,114,118.0
4466,C4,236.0,417/1000,80,118.0
4467,C#4,236.0,167/1000,80,118.0
4468,C#2,236.0,77/250,110,118.0
4469,B4,236.0,933/1000,127,118.0
4470,F#4,236.0,933/1000,127,118.0
4471,C4,236.25,417/1000,80,118.0
4472,G#3,236.25,0.5,100,118.0
4473,C#4,236.25,0.5,89,118.0
4474,C#3,236.25,0.5,89,118.0
4475,C#2,236.5,133/1000,110,118.0
4476,G#2,236.5,0.25,77,118.0
4477,C#2,236.5,133/1000,110,118.0
4478,G#3,236.5,533/1000,123,118.0
4479,C#2,236.75,0.125,110,118.0
4480,F#2,236.75,0.25,96,118.0
4481,C4,236.75,417/1000,80,118.0
4482,C#2,236.75,0.125,110,118.0
4483,G#3,236.75,4.0,100,118.0
4484,C#4,236.75,4.0,89,118.0
4485,C#3,236.75,4.0,89,118.0
4486,C#2,237.0,317/1000,127,118.0
4487,E2,237.0,0.75,110,118.0
4488,C#4,237.0,417/1000,80,118.0
4489,C#2,237.0,317/1000,127,118.0
4490,C#4,237.0,933/1000,117,118.0
4491,F#2,237.0,0.25,74,118.0
4492,B-2,237.0,0.25,74,118.0
4493,C#2,237.5,117/1000,110,118.0
4494,G#2,237.5,0.25,86,118.0
4495,C#4,237.5,417/1000,80,118.0
4496,E4,237.5,529/500,80,118.0
4497,C#2,237.5,117/1000,110,118.0
4498,C#2,237.75,133/1000,110,118.0
4499,F#2,237.75,0.25,100,118.0
4500,E4,237.75,529/500,80,118.0
4501,C#2,237.75,133/1000,110,118.0
4502,C#2,238.0,77/250,127,118.0
4503,C2,238.0,0.75,110,118.0
4504,B-2,238.0,0.25,109,118.0
4505,C4,238.0,417/1000,80,118.0
4506,C#2,238.0,77/250,127,118.0
4507,B3,238.0,1167/1000,123,118.0
4508,C#4,238.25,417/1000,80,118.0
4509,C#2,238.5,133/1000,110,118.0
4510,G#2,238.5,0.25,92,118.0
4511,C#2,238.5,133/1000,110,118.0
4512,C#2,238.75,0.125,110,118.0
4513,F#2,238.75,0.25,100,118.0
4514,C#2,238.75,0.125,110,118.0
4515,C#2,239.0,283/1000,127,118.0
4516,E2,239.0,0.5,110,118.0
4517,B-2,239.0,0.25,114,118.0
4518,C#2,239.0,283/1000,127,118.0
4519,C#2,239.5,133/1000,110,118.0
4520,C#2,239.5,133/1000,110,118.0
4521,G#3,239.5,0.5,115,118.0
4522,C2,239.5,0.25,77,118.0
4523,G#2,239.5,0.25,77,118.0
4524,C#2,239.75,0.125,110,118.0
4525,F#2,239.75,0.25,100,118.0
4526,C#4,239.75,0.25,80,118.0
4527,C#2,239.75,0.125,110,118.0
4528,C#2,240.0,73/250,127,118.0
4529,C2,240.0,0.75,120,118.0
4530,B-2,240.0,0.25,109,118.0
4531,C4,240.0,417/1000,80,118.0
4532,C#4,240.0,167/1000,80,118.0
4533,C#2,240.0,73/250,127,118.0
4534,B3,240.0,833/1000,125,118.0
4535,G#3,240.0,1/125,115,118.0
4536,C4,240.25,417/1000,80,118.0
4537,C#2,240.5,117/1000,110,118.0
4538,G#2,240.5,0.25,84,118.0
4539,C#2,240.5,117/1000,110,118.0
4540,C#2,240.75,27/250,110,118.0
4541,F#2,240.75,0.25,89,118.0
4542,C4,240.75,417/1000,80,118.0
4543,C#2,240.75,27/250,110,118.0
4544,G#3,240.75,0.5,100,118.0
4545,C#4,240.75,0.75,89,118.0
4546,C#3,240.75,0.75,89,118.0
4547,C#2,241.0,77/250,127,118.0
4548,E2,241.0,0.75,113,118.0
4549,B-2,241.0,0.25,114,118.0
4550,C#4,241.0,417/1000,80,118.0
4551,C#2,241.0,77/250,127,118.0
4552,B3,241.0,517/1000,120,118.0
4553,C#2,241.5,27/250,110,118.0
4554,G#2,241.5,0.25,92,118.0
4555,C#4,241.5,417/1000,80,118.0
4556,E4,241.5,529/500,80,118.0
4557,C#2,241.5,27/250,110,118.0
4558,C#4,241.5,779/500,117,118.0
4559,C#2,241.75,117/1000,110,118.0
4560,F#2,241.75,0.25,96,118.0
4561,E4,241.75,529/500,80,118.0
4562,C#2,241.75,117/1000,110,118.0
4563,B1,242.0,51/125,127,118.0
4564,C2,242.0,0.75,113,118.0
4565,B-2,242.0,0.25,114,118.0
4566,C4,242.0,417/1000,80,118.0
4567,B1,242.0,51/125,127,118.0
4568,C#4,242.25,417/1000,80,118.0
4569,B1,242.5,467/1000,110,118.0
4570,G#2,242.5,0.25,100,118.0
4571,B1,242.5,467/1000,110,118.0
4572,B-4,242.5,279/500,100,118.0
4573,F#4,242.5,483/1000,127,118.0
4574,F#2,242.75,0.25,100,118.0
4575,B2,242.75,0.5,91,118.0
4576,B3,242.75,0.5,91,118.0
4577,F#3,242.75,0.5,91,118.0
4578,E2,243.0,0.5,110,118.0
4579,B-2,243.0,0.25,114,118.0
4580,B3,243.0,567/1000,117,118.0
4581,E4,243.0,271/500,114,118.0
4582,G#4,243.0,271/500,114,118.0
4583,B3,243.25,0.25,87,118.0
4584,B2,243.25,0.25,87,118.0
4585,F#3,243.25,0.25,87,118.0
4586,F#1,243.5,9/20,110,118.0
4587,F#1,243.5,9/20,110,118.0
4588,B-3,243.5,0.5,123,118.0
4589,C2,243.5,0.25,97,118.0
4590,G#2,243.5,0.25,97,118.0
4591,G3,243.5,0.25,97,118.0
4592,C#4,243.5,0.5,114,118.0
4593,F#4,243.5,0.5,114,118.0
4594,F#2,243.75,0.25,109,118.0
4595,C#4,243.75,0.25,80,118.0
4596,F#1,244.0,417/1000,127,118.0
4597,C2,244.0,0.5,113,118.0
4598,C4,244.0,417/1000,80,118.0
4599,C#4,244.0,167/1000,80,118.0
4600,F#1,244.0,417/1000,127,118.0
4601,B-3,244.0,21/20,123,118.0
4602,B-2,244.0,0.25,110,118.0
4603,A3,244.0,0.25,110,118.0
4604,C#4,244.0,783/1000,114,118.0
4605,F#4,244.0,783/1000,114,118.0
4606,C4,244.25,417/1000,80,118.0
4607,F#2,244.25,0.5,84,118.0
4608,C#3,244.25,0.5,106,118.0
4609,F#3,244.25,0.5,106,118.0
4610,F#1,244.5,27/250,110,118.0
4611,G#2,244.5,0.25,96,118.0
4612,F#1,244.5,27/250,110,118.0
4613,F#1,244.75,117/1000,110,118.0
4614,F#2,244.75,0.25,100,118.0
4615,C4,244.75,417/1000,80,118.0
4616,F#1,244.75,117/1000,110,118.0
4617,F#2,244.75,4.0,84,118.0
4618,C#3,244.75,4.0,106,118.0
4619,F#3,244.75,4.0,106,118.0
4620,F#1,245.0,317/1000,127,118.0
4621,E2,245.0,0.75,110,118.0
4622,B-2,245.0,0.25,114,118.0
4623,C#4,245.0,417/1000,80,118.0
4624,F#1,245.0,317/1000,127,118.0
4625,G#3,245.0,21/40,113,118.0
4626,F#3,245.0,183/1000,113,118.0
4627,F#1,245.5,0.125,110,118.0
4628,G#2,245.5,0.25,92,118.0
4629,C#4,245.5,417/1000,80,118.0
4630,E4,245.5,529/500,80,118.0
4631,F#1,245.5,0.125,110,118.0
4632,F#3,245.5,1367/1000,117,118.0
4633,F#1,245.75,0.125,110,118.0
4634,F#2,245.75,0.25,100,118.0
4635,E4,245.75,529/500,80,118.0
4636,F#1,245.75,0.125,110,118.0
4637,F#1,246.0,317/1000,127,118.0
4638,C2,246.0,0.75,120,118.0
4639,B-2,246.0,0.25,114,118.0
4640,C4,246.0,417/1000,80,118.0
4641,F#1,246.0,317/1000,127,118.0
4642,C#4,246.25,417/1000,80,118.0
4643,F#1,246.5,133/1000,110,118.0
4644,G#2,246.5,0.25,96,118.0
4645,F#1,246.5,133/1000,110,118.0
4646,F#1,246.75,117/1000,110,118.0
4647,F#2,246.75,0.25,100,118.0
4648,F#1,246.75,117/1000,110,118.0
4649,F#1,247.0,317/1000,127,118.0
4650,E2,247.0,0.5,117,118.0
4651,B-2,247.0,0.25,100,118.0
4652,F#1,247.0,317/1000,127,118.0
4653,F#1,247.5,0.125,110,118.0
4654,F#1,247.5,0.125,110,118.0
4655,F#3,247.5,0.5,120,118.0
4656,C2,247.5,0.25,90,118.0
4657,G#2,247.5,0.25,90,118.0
4658,F#1,247.75,117/1000,110,118.0
4659,F#2,247.75,0.25,92,118.0
4660,C#4,247.75,0.25,80,118.0
4661,F#1,247.75,117/1000,110,118.0
4662,F#1,248.0,13/40,127,118.0
4663,C2,248.0,0.5,110,118.0
4664,B-2,248.0,0.25,104,118.0
4665,C4,248.0,417/1000,80,118.0
4666,C#4,248.0,167/1000,80,118.0
4667,F#1,248.0,13/40,127,118.0
4668,B-3,248.0,0.5,118,118.0
4669,F#3,248.0,29/500,120,118.0
4670,C4,248.25,417/1000,80,118.0
4671,F#1,248.5,133/1000,110,118.0
4672,G#2,248.5,0.25,81,118.0
4673,F#1,248.5,133/1000,110,118.0
4674,B3,248.5,279/500,103,118.0
4675,F#1,248.75,3/20,110,118.0
4676,F#2,248.75,0.25,96,118.0
4677,C4,248.75,417/1000,80,118.0
4678,F#1,248.75,3/20,110,118.0
4679,F#2,248.75,0.75,84,118.0
4680,C#3,248.75,0.5,106,118.0
4681,F#3,248.75,0.5,106,118.0
4682,F#1,249.0,11/40,127,118.0
4683,E2,249.0,0.5,110,118.0
4684,B-2,249.0,0.25,109,118.0
4685,C#4,249.0,417/1000,80,118.0
4686,F#1,249.0,11/40,127,118.0
4687,C#4,249.0,0.625,113,118.0
4688,F#1,249.5,23/250,110,118.0
4689,G#2,249.5,0.25,81,118.0
4690,C#4,249.5,417/1000,80,118.0
4691,E4,249.5,529/500,80,118.0
4692,F#1,249.5,23/250,110,118.0
4693,E-4,249.5,529/500,118,118.0
4694,F#1,249.75,73/250,110,118.0
4695,F#2,249.75,0.25,96,118.0
4696,E4,249.75,529/500,80,118.0
4697,F#1,249.75,73/250,110,118.0
4698,B1,250.0,171/500,127,118.0
4699,C2,250.0,0.5,120,118.0
4700,B-2,250.0,0.25,109,118.0
4701,C4,250.0,417/1000,80,118.0
4702,B1,250.0,171/500,127,118.0
4703,F#4,250.0,7/10,127,118.0
4704,E-4,250.0,7/10,127,118.0
4705,C#4,250.25,417/1000,80,118.0
4706,B1,250.5,417/1000,110,118.0
4707,G#2,250.5,0.25,92,118.0
4708,B1,250.5,417/1000,110,118.0
4709,C#4,250.5,0.5,115,118.0
4710,F#2,250.75,0.25,86,118.0
4711,E-2,250.75,0.5,95,118.0
4712,E-3,250.75,0.5,95,118.0
4713,B-2,250.75,0.5,95,118.0
4714,E2,251.0,0.5,120,118.0
4715,B-2,251.0,0.25,109,118.0
4716,B3,251.0,567/1000,117,118.0
4717,E-4,251.0,21/40,127,118.0
4718,F#4,251.0,21/40,127,118.0
4719,B-2,251.25,0.25,85,118.0
4720,E-3,251.25,0.25,85,118.0
4721,E-2,251.25,0.25,85,118.0
4722,E1,251.5,0.5,110,118.0
4723,E1,251.5,0.5,110,118.0
4724,C#4,251.5,0.5,108,118.0
4725,C2,251.5,0.25,90,118.0
4726,G#2,251.5,0.25,90,118.0
4727,G3,251.5,0.25,90,118.0
4728,G#4,251.5,0.5,127,118.0
4729,E4,251.5,0.5,127,118.0
4730,F#2,251.75,0.25,104,118.0
4731,C#4,251.75,0.25,80,118.0
4732,E1,252.0,233/1000,110,118.0
4733,C2,252.0,0.5,113,118.0
4734,B-2,252.0,0.25,114,118.0
4735,C4,252.0,417/1000,80,118.0
4736,C#4,252.0,167/1000,80,118.0
4737,E1,252.0,233/1000,110,118.0
4738,C#4,252.0,533/1000,108,118.0
4739,G#4,252.0,583/1000,127,118.0
4740,E4,252.0,583/1000,127,118.0
4741,C4,252.25,417/1000,80,118.0
4742,B2,252.25,0.5,110,118.0
4743,E2,252.25,0.5,100,118.0
4744,E3,252.25,0.5,100,118.0
4745,E1,252.5,117/1000,110,118.0
4746,G#2,252.5,0.25,92,118.0
4747,E1,252.5,117/1000,110,118.0
4748,B3,252.5,567/1000,118,118.0
4749,E1,252.75,1/10,110,118.0
4750,F#2,252.75,0.25,96,118.0
4751,C4,252.75,417/1000,80,118.0
4752,E1,252.75,1/10,110,118.0
4753,B2,252.75,2.5,110,118.0
4754,E2,252.75,2.75,100,118.0
4755,E3,252.75,2.75,100,118.0
4756,E1,253.0,13/40,127,118.0
4757,E2,253.0,0.75,110,118.0
4758,B-2,253.0,0.25,104,118.0
4759,C#4,253.0,417/1000,80,118.0
4760,E1,253.0,13/40,127,118.0
4761,G#3,253.0,423/250,113,118.0
4762,E1,253.5,117/1000,110,118.0
4763,G#2,253.5,0.25,92,118.0
4764,C#4,253.5,417/1000,80,118.0
4765,E4,253.5,529/500,80,118.0
4766,E1,253.5,117/1000,110,118.0
4767,E1,253.75,1/10,110,118.0
4768,F#2,253.75,0.25,104,118.0
4769,E4,253.75,529/500,80,118.0
4770,E1,253.75,1/10,110,118.0
4771,E1,254.0,179/500,127,118.0
4772,C2,254.0,0.75,110,118.0
4773,B-2,254.0,0.25,109,118.0
4774,C4,254.0,417/1000,80,118.0
4775,E1,254.0,179/500,127,118.0
4776,C#4,254.25,417/1000,80,118.0
4777,E1,254.5,27/250,110,118.0
4778,G#2,254.5,0.25,104,118.0
4779,E1,254.5,27/250,110,118.0
4780,E1,254.75,0.125,110,118.0
4781,F#2,254.75,0.25,104,118.0
4782,E1,254.75,0.125,110,118.0
4783,E1,255.0,51/125,127,118.0
4784,E1,255.0,51/125,127,118.0
4785,G#3,255.0,173/250,127,118.0
4786,E2,255.0,0.25,111,118.0
4787,B-2,255.0,0.25,111,118.0
4788,E1,255.5,27/250,110,118.0
4789,E1,255.5,27/250,110,118.0
4790,C2,255.5,0.25,97,118.0
4791,G#2,255.5,0.25,97,118.0
4792,E1,255.75,117/1000,110,118.0
4793,F#2,255.75,0.25,96,118.0
4794,C#4,255.75,0.25,80,118.0
4795,E1,255.75,117/1000,110,118.0
4796,E1,256.0,17/40,127,118.0
4797,C2,256.0,0.5,127,118.0
4798,C4,256.0,417/1000,80,118.0
4799,C#4,256.0,167/1000,80,118.0
4800,E1,256.0,17/40,127,118.0
4801,G#3,256.0,74/125,127,118.0
4802,C2,256.0,0.25,110,118.0
4803,B-2,256.0,0.25,110,118.0
4804,C#3,256.0,0.25,110,118.0
4805,E4,256.0,271/500,127,118.0
4806,G#4,256.0,271/500,127,118.0
4807,C4,256.25,417/1000,80,118.0
4808,F#1,256.5,17/40,110,118.0
4809,F#1,256.5,17/40,110,118.0
4810,B-3,256.5,173/250,125,118.0
4811,A3,256.5,0.25,96,118.0
4812,G#2,256.5,0.25,96,118.0
4813,C2,256.5,0.25,96,118.0
4814,B-4,256.5,11/20,127,118.0
4815,F#4,256.5,11/20,127,118.0
4816,F#2,256.75,0.25,92,118.0
4817,C4,256.75,417/1000,80,118.0
4818,E3,256.75,0.25,87,118.0
4819,E2,256.75,0.25,87,118.0
4820,B2,256.75,0.25,87,118.0
4821,E2,257.0,0.5,113,118.0
4822,B-2,257.0,0.25,104,118.0
4823,C#4,257.0,417/1000,80,118.0
4824,F#2,257.25,0.5,87,118.0
4825,C#3,257.25,0.5,87,118.0
4826,F#3,257.25,0.5,87,118.0
4827,F#1,257.5,1917/1000,110,118.0
4828,C#4,257.5,417/1000,80,118.0
4829,E4,257.5,529/500,80,118.0
4830,F#1,257.5,1917/1000,110,118.0
4831,B-3,257.5,473/250,123,118.0
4832,G#2,257.5,0.25,108,118.0
4833,E-3,257.5,0.25,108,118.0
4834,C2,257.5,0.25,108,118.0
4835,B-4,257.5,21/20,127,118.0
4836,F#4,257.5,21/20,127,118.0
4837,F#2,257.75,0.25,96,118.0
4838,E4,257.75,529/500,80,118.0
4839,C2,258.0,0.75,120,118.0
4840,B-2,258.0,0.25,109,118.0
4841,C4,258.0,417/1000,80,118.0
4842,C#4,258.25,417/1000,80,118.0
4843,F#3,258.25,1.25,96,118.0
4844,C#3,258.25,1.25,96,118.0
4845,F#2,258.25,1.25,96,118.0
4846,G#2,258.5,0.25,106,118.0
4847,C2,258.5,0.25,106,118.0
4848,F#2,258.75,0.25,100,118.0
4849,E2,259.0,0.5,113,118.0
4850,B-2,259.0,0.25,120,118.0
4851,C3,259.0,0.25,120,118.0
4852,C3,259.25,0.25,107,118.0
4853,F#1,259.5,117/1000,110,118.0
4854,F#1,259.5,117/1000,110,118.0
4855,C2,259.5,0.25,98,118.0
4856,G#2,259.5,0.25,98,118.0
4857,G2,259.5,0.25,98,118.0
4858,F#1,259.75,0.25,110,118.0
4859,C#4,259.75,0.25,80,118.0
4860,F#1,259.75,0.25,110,118.0
4861,G2,259.75,0.25,84,118.0
4862,F#2,259.75,0.25,84,118.0
4863,B1,260.0,11/40,127,118.0
4864,C#4,260.0,167/1000,80,118.0
4865,B1,260.0,11/40,127,118.0
4866,B1,260.0,1.0,99,118.0
4867,B2,260.0,0.25,106,118.0
4868,F#4,260.0,53/40,127,118.0
4869,C2,260.0,0.25,104,118.0
4870,E3,260.0,0.25,104,118.0
4871,B-2,260.0,0.25,104,118.0
4872,C#3,260.0,0.25,104,118.0
4873,C2,260.0,0.5,106,118.0
4874,B-2,260.0,0.5,106,118.0
4875,E-4,260.0,0.75,101,118.0
4876,B3,260.0,0.75,101,118.0
4877,F#3,260.0,0.75,101,118.0
4878,F#3,260.0,2.875,110,118.0
4879,F#3,260.0,2.875,110,118.0
4880,B2,260.0,3083/1000,110,118.0
4881,B3,260.0,3083/1000,110,118.0
4882,B2,260.0,3083/1000,110,118.0
4883,B3,260.0,3083/1000,110,118.0
4884,C#4,260.0,1667/1000,127,118.0
4885,C#4,260.0,1667/1000,127,118.0
4886,B-3,260.0,1517/1000,121,118.0
4887,C#4,260.0,1517/1000,121,118.0
4888,B1,260.5,133/1000,110,118.0
4889,G#2,260.5,0.25,60,118.0
4890,B1,260.5,133/1000,110,118.0
4891,B2,260.5,0.75,96,118.0
4892,B1,260.75,117/1000,110,118.0
4893,F#2,260.75,0.25,104,118.0
4894,B1,260.75,117/1000,110,118.0
4895,B2,260.75,2.75,102,118.0
4896,B3,260.75,2.75,102,118.0
4897,F#3,260.75,2.75,102,118.0
4898,B1,261.0,13/40,127,118.0
4899,B1,261.0,13/40,127,118.0
4900,E2,261.0,0.5,113,118.0
4901,B-2,261.0,0.5,113,118.0
4902,B3,261.0,0.5,105,118.0
4903,F#3,261.0,0.5,105,118.0
4904,E-4,261.0,0.5,105,118.0
4905,B1,261.5,0.125,110,118.0
4906,G#2,261.5,0.25,64,118.0
4907,B1,261.5,0.125,110,118.0
4908,B2,261.5,0.25,121,118.0
4909,B4,261.5,423/250,127,118.0
4910,E-4,261.5,2033/1000,127,118.0
4911,E-4,261.5,2033/1000,127,118.0
4912,E-4,261.5,1.75,120,118.0
4913,B3,261.5,1.75,120,118.0
4914,B1,261.75,133/1000,110,118.0
4915,F#2,261.75,0.25,104,118.0
4916,B1,261.75,133/1000,110,118.0
4917,B3,261.75,0.25,99,118.0
4918,E-4,261.75,0.25,99,118.0
4919,F#3,261.75,0.25,99,118.0
4920,B1,262.0,283/1000,127,118.0
4921,C2,262.0,0.75,53,118.0
4922,B-2,262.0,0.5,104,118.0
4923,B1,262.0,283/1000,127,118.0
4924,B-3,262.25,0.25,105,118.0
4925,E-4,262.25,0.25,105,118.0
4926,B3,262.25,0.25,105,118.0
4927,F#3,262.25,0.25,105,118.0
4928,B1,262.5,0.125,110,118.0
4929,G#2,262.5,0.25,79,118.0
4930,B1,262.5,0.125,110,118.0
4931,B2,262.5,0.25,100,118.0
4932,B1,262.75,133/1000,110,118.0
4933,F#2,262.75,0.25,104,118.0
4934,B1,262.75,133/1000,110,118.0
4935,F#2,262.75,0.25,112,118.0
4936,B1,263.0,11/40,127,118.0
4937,B1,263.0,11/40,127,118.0
4938,B3,263.0,0.25,110,118.0
4939,E2,263.0,0.5,116,118.0
4940,B-2,263.0,0.5,116,118.0
4941,B1,263.0,0.5,111,118.0
4942,C#4,263.0,0.5,111,118.0
4943,F#3,263.0,0.5,111,118.0
4944,B1,263.5,117/1000,110,118.0
4945,B1,263.5,117/1000,110,118.0
4946,C#5,263.5,0.5,127,118.0
4947,C2,263.5,0.25,82,118.0
4948,G#2,263.5,0.25,82,118.0
4949,B2,263.5,0.25,91,118.0
4950,E-4,263.5,0.25,91,118.0
4951,F#3,263.5,0.25,91,118.0
4952,C#4,263.5,0.5,110,118.0
4953,G#3,263.5,0.5,110,118.0
4954,E3,263.5,0.5,110,118.0
4955,C#4,263.5,0.5,110,118.0
4956,G#3,263.5,0.5,110,118.0
4957,E3,263.5,0.5,110,118.0
4958,E4,263.5,0.5,127,118.0
4959,E4,263.5,0.5,127,118.0
4960,E4,263.5,0.5,113,118.0
4961,C#4,263.5,0.5,113,118.0
4962,B1,263.75,233/1000,110,118.0
4963,F#2,263.75,0.25,100,118.0
4964,B1,263.75,233/1000,110,118.0
4965,F#2,263.75,0.25,116,118.0
4966,A1,264.0,0.25,127,118.0
4967,A1,264.0,0.25,127,118.0
4968,A2,264.0,0.25,103,118.0
4969,C#5,264.0,567/1000,127,118.0
4970,C2,264.0,0.5,118,118.0
4971,B-2,264.0,0.5,118,118.0
4972,C#4,264.0,0.75,105,118.0
4973,A3,264.0,0.75,105,118.0
4974,B3,264.0,0.75,105,118.0
4975,A1,264.0,0.75,105,118.0
4976,E4,264.0,0.75,105,118.0
4977,C#4,264.0,51/20,110,118.0
4978,G#3,264.0,51/20,110,118.0
4979,E3,264.0,51/20,110,118.0
4980,C#4,264.0,51/20,110,118.0
4981,G#3,264.0,51/20,110,118.0
4982,E3,264.0,51/20,110,118.0
4983,E4,264.0,111/40,127,118.0
4984,E4,264.0,111/40,127,118.0
4985,E4,264.0,2667/1000,113,118.0
4986,C#4,264.0,2667/1000,113,118.0
4987,A2,264.25,0.5,88,118.0
4988,A3,264.25,0.5,94,118.0
4989,E3,264.25,0.5,94,118.0
4990,A1,264.5,27/250,110,118.0
4991,A1,264.5,27/250,110,118.0
4992,A2,264.5,0.25,114,118.0
4993,A1,264.75,117/1000,110,118.0
4994,G#2,264.75,0.25,75,118.0
4995,A1,264.75,117/1000,110,118.0
4996,E2,264.75,0.25,110,118.0
4997,A2,264.75,2.5,88,118.0
4998,A3,264.75,2.75,94,118.0
4999,E3,264.75,2.75,94,118.0
5000,A1,265.0,9/40,127,118.0
5001,E2,265.0,0.5,110,118.0
5002,A1,265.0,9/40,127,118.0
5003,F#2,265.0,0.25,96,118.0
5004,B-2,265.0,0.25,96,118.0
5005,A3,265.0,0.5,111,118.0
5006,C#4,265.0,0.5,111,118.0
5007,E4,265.0,0.5,111,118.0
5008,B3,265.0,0.5,111,118.0
5009,A1,265.5,0.125,110,118.0
5010,G#2,265.5,0.25,81,118.0
5011,A1,265.5,0.125,110,118.0
5012,A2,265.5,0.25,90,118.0
5013,A1,265.75,0.125,110,118.0
5014,F#2,265.75,0.25,96,118.0
5015,A1,265.75,0.125,110,118.0
5016,E4,265.75,0.25,96,118.0
5017,C#4,265.75,0.25,96,118.0
5018,A3,265.75,0.25,96,118.0
5019,B3,265.75,0.25,96,118.0
5020,A1,266.0,183/1000,127,118.0
5021,C2,266.0,0.75,113,118.0
5022,B-2,266.0,0.25,100,118.0
5023,A1,266.0,183/1000,127,118.0
5024,E4,266.25,0.25,108,118.0
5025,C#4,266.25,0.25,108,118.0
5026,A3,266.25,0.25,108,118.0
5027,B3,266.25,0.25,108,118.0
5028,A1,266.5,71/500,110,118.0
5029,G#2,266.5,0.25,89,118.0
5030,A1,266.5,71/500,110,118.0
5031,A2,266.5,0.25,105,118.0
5032,A1,266.75,0.125,110,118.0
5033,F#2,266.75,0.25,92,118.0
5034,A1,266.75,0.125,110,118.0
5035,E2,266.75,0.25,92,118.0
5036,A1,267.0,0.25,127,118.0
5037,E2,267.0,0.5,110,118.0
5038,B-2,267.0,0.25,109,118.0
5039,A1,267.0,0.25,127,118.0
5040,E-4,267.0,0.5,99,118.0
5041,C#5,267.0,124/125,127,118.0
5042,B3,267.0,0.75,109,118.0
5043,A3,267.0,0.75,109,118.0
5044,A1,267.0,0.75,109,118.0
5045,E4,267.0,1.0,127,118.0
5046,E4,267.0,1.0,127,118.0
5047,E4,267.0,1.0,116,118.0
5048,C#4,267.0,1.0,116,118.0
5049,A1,267.5,27/250,110,118.0
5050,A1,267.5,27/250,110,118.0
5051,C2,267.5,0.25,82,118.0
5052,G#2,267.5,0.25,82,118.0
5053,E4,267.5,0.25,105,118.0
5054,A2,267.5,0.25,105,118.0
5055,A1,267.75,9/40,110,118.0
5056,F#2,267.75,0.25,92,118.0
5057,A1,267.75,9/40,110,118.0
5058,E2,267.75,0.25,112,118.0
5059,E3,267.75,0.25,79,118.0
5060,A3,267.75,0.25,79,118.0
5061,A2,267.75,0.25,79,118.0
5062,G#1,268.0,9/40,127,118.0
5063,C2,268.0,0.5,110,118.0
5064,B-2,268.0,0.25,114,118.0
5065,G#1,268.0,9/40,127,118.0
5066,G#2,268.0,0.25,93,118.0
5067,E-4,268.0,1067/1000,117,118.0
5068,B3,268.0,39/40,115,118.0
5069,B4,268.0,124/125,127,118.0
5070,E-4,268.0,0.75,91,118.0
5071,B3,268.0,0.75,91,118.0
5072,G#3,268.0,0.75,91,118.0
5073,G#1,268.0,0.75,91,118.0
5074,F#3,268.0,121/40,110,118.0
5075,E-3,268.0,121/40,110,118.0
5076,F#3,268.0,121/40,110,118.0
5077,E-3,268.0,121/40,110,118.0
5078,E-4,268.0,1033/1000,127,118.0
5079,E-4,268.0,1033/1000,127,118.0
5080,E4,268.0,33/1000,127,118.0
5081,E4,268.0,33/1000,127,118.0
5082,E4,268.0,17/1000,116,118.0
5083,C#4,268.0,17/1000,116,118.0
5084,F3,268.25,0.25,62,118.0
5085,G#1,268.5,117/1000,110,118.0
5086,G#2,268.5,0.25,77,118.0
5087,G#1,268.5,117/1000,110,118.0
5088,G#2,268.5,0.5,127,118.0
5089,G#1,268.75,233/1000,110,118.0
5090,F#2,268.75,0.25,96,118.0
5091,G#1,268.75,233/1000,110,118.0
5092,E-2,268.75,0.25,61,118.0
5093,G#3,268.75,2.5,79,118.0
5094,G#2,268.75,2.25,84,118.0
5095,E-3,268.75,2.25,84,118.0
5096,B1,269.0,121/500,127,118.0
5097,E2,269.0,0.75,110,118.0
5098,B1,269.0,121/500,127,118.0
5099,B-4,269.0,833/1000,127,118.0
5100,F#2,269.0,0.25,74,118.0
5101,B-2,269.0,0.25,74,118.0
5102,E-4,269.0,0.5,113,118.0
5103,G#3,269.0,0.5,113,118.0
5104,B3,269.0,0.5,113,118.0
5105,C#4,269.0,1133/1000,127,118.0
5106,C#4,269.0,1133/1000,127,118.0
5107,B-3,269.0,1083/1000,122,118.0
5108,C#4,269.0,1083/1000,122,118.0
5109,B1,269.5,27/250,110,118.0
5110,G#2,269.5,0.25,86,118.0
5111,B1,269.5,27/250,110,118.0
5112,G#2,269.5,0.25,127,118.0
5113,B1,269.75,317/1000,110,118.0
5114,F#2,269.75,0.25,100,118.0
5115,B1,269.75,317/1000,110,118.0
5116,E-4,269.75,0.25,91,118.0
5117,B3,269.75,0.25,91,118.0
5118,G#3,269.75,0.25,91,118.0
5119,E-2,270.0,267/1000,127,118.0
5120,C2,270.0,0.75,110,118.0
5121,B-2,270.0,0.25,109,118.0
5122,E-2,270.0,267/1000,127,118.0
5123,G#4,270.0,39/40,127,118.0
5124,B3,270.0,43/40,127,118.0
5125,B3,270.0,43/40,127,118.0
5126,G#3,270.0,529/500,116,118.0
5127,B3,270.0,529/500,116,118.0
5128,E-4,270.25,0.25,106,118.0
5129,B3,270.25,0.25,106,118.0
5130,G#3,270.25,0.25,106,118.0
5131,E-2,270.5,133/1000,110,118.0
5132,G#2,270.5,0.25,92,118.0
5133,E-2,270.5,133/1000,110,118.0
5134,G#2,270.5,0.25,127,118.0
5135,E-2,270.75,73/250,110,118.0
5136,F#2,270.75,0.25,100,118.0
5137,E-2,270.75,73/250,110,118.0
5138,E-2,270.75,0.25,106,118.0
5139,B1,271.0,9/40,127,118.0
5140,E2,271.0,0.5,110,118.0
5141,B-2,271.0,0.25,114,118.0
5142,B1,271.0,9/40,127,118.0
5143,B-1,271.0,0.25,71,118.0
5144,F#4,271.0,227/250,127,118.0
5145,C#4,271.0,0.5,108,118.0
5146,B3,271.0,0.5,108,118.0
5147,G#3,271.0,0.75,110,118.0
5148,G#1,271.0,0.75,110,118.0
5149,B-3,271.0,1.0,127,118.0
5150,B-3,271.0,1.0,127,118.0
5151,F#3,271.0,1.0,119,118.0
5152,B-3,271.0,1.0,119,118.0
5153,B1,271.5,0.125,110,118.0
5154,B1,271.5,0.125,110,118.0
5155,E-4,271.5,0.25,74,118.0
5156,G#2,271.5,0.5,127,118.0
5157,C2,271.5,0.25,77,118.0
5158,G#2,271.5,0.25,77,118.0
5159,B1,271.75,0.25,110,118.0
5160,F#2,271.75,0.25,100,118.0
5161,B1,271.75,0.25,110,118.0
5162,E-2,271.75,0.25,116,118.0
5163,G#2,271.75,0.25,91,118.0
5164,E-3,271.75,0.25,91,118.0
5165,G#3,271.75,0.25,91,118.0
5166,C#2,272.0,317/1000,127,118.0
5167,B1,272.0,33/1000,110,118.0
5168,C2,272.0,0.75,120,118.0
5169,B-2,272.0,0.25,109,118.0
5170,C#2,272.0,317/1000,127,118.0
5171,B1,272.0,33/1000,110,118.0
5172,C#2,272.0,0.5,99,118.0
5173,F4,272.0,1.75,127,118.0
5174,C#4,272.0,0.75,93,118.0
5175,F3,272.0,0.75,93,118.0
5176,G#3,272.0,0.75,93,118.0
5177,C#4,272.0,1471/500,110,118.0
5178,C#4,272.0,1471/500,110,118.0
5179,C#3,272.0,3033/1000,110,118.0
5180,C#3,272.0,3033/1000,110,118.0
5181,G#3,272.0,1071/500,127,118.0
5182,G#3,272.0,1071/500,127,118.0
5183,G#3,272.0,81/40,116,118.0
5184,C#3,272.0,81/40,116,118.0
5185,F#3,272.0,33/1000,119,118.0
5186,B-3,272.0,33/1000,119,118.0
5187,C#2,272.5,0.125,110,118.0
5188,G#2,272.5,0.25,84,118.0
5189,C#2,272.5,0.125,110,118.0
5190,C#3,272.5,0.25,124,118.0
5191,C#2,272.75,71/500,110,118.0
5192,F#2,272.75,0.25,89,118.0
5193,C#2,272.75,71/500,110,118.0
5194,G#2,272.75,0.25,109,118.0
5195,G#3,272.75,2.25,100,118.0
5196,C#3,272.75,2.5,88,118.0
5197,C#4,272.75,2.5,88,118.0
5198,C#2,273.0,283/1000,127,118.0
5199,E2,273.0,0.75,113,118.0
5200,B-2,273.0,0.25,114,118.0
5201,C#2,273.0,283/1000,127,118.0
5202,C#4,273.0,0.5,102,118.0
5203,G#3,273.0,0.5,102,118.0
5204,F3,273.0,0.5,102,118.0
5205,C#2,273.5,133/1000,110,118.0
5206,G#2,273.5,0.25,92,118.0
5207,C#2,273.5,133/1000,110,118.0
5208,C#3,273.5,0.25,112,118.0
5209,C#2,273.75,26/125,110,118.0
5210,F#2,273.75,0.25,96,118.0
5211,C#2,273.75,26/125,110,118.0
5212,C#4,273.75,0.25,92,118.0
5213,G#3,273.75,0.25,92,118.0
5214,F3,273.75,0.25,92,118.0
5215,F1,274.0,121/500,127,118.0
5216,C2,274.0,0.75,113,118.0
5217,B-2,274.0,0.25,114,118.0
5218,F1,274.0,121/500,127,118.0
5219,F#3,274.0,1017/1000,118,118.0
5220,E-4,274.0,1.0,127,118.0
5221,F#3,274.0,1067/1000,127,118.0
5222,F#3,274.0,1067/1000,127,118.0
5223,F3,274.25,0.25,104,118.0
5224,C#4,274.25,0.25,104,118.0
5225,G#3,274.25,0.25,104,118.0
5226,F1,274.5,117/1000,110,118.0
5227,G#2,274.5,0.25,100,118.0
5228,F1,274.5,117/1000,110,118.0
5229,C#3,274.5,0.25,120,118.0
5230,F1,274.75,1/10,110,118.0
5231,F#2,274.75,0.25,100,118.0
5232,F1,274.75,1/10,110,118.0
5233,G#2,274.75,0.25,106,118.0
5234,F1,275.0,267/1000,127,118.0
5235,E2,275.0,0.5,110,118.0
5236,B-2,275.0,0.25,114,118.0
5237,F1,275.0,267/1000,127,118.0
5238,B3,275.0,0.25,92,118.0
5239,F3,275.0,0.75,91,118.0
5240,F4,275.0,329/500,127,118.0
5241,C#2,275.0,0.5,116,118.0
5242,G#3,275.0,0.5,116,118.0
5243,G#3,275.0,33/40,127,118.0
5244,G#3,275.0,33/40,127,118.0
5245,F3,275.0,767/1000,122,118.0
5246,G#3,275.0,767/1000,122,118.0
5247,F1,275.5,233/1000,110,118.0
5248,F1,275.5,233/1000,110,118.0
5249,C2,275.5,0.25,87,118.0
5250,G#2,275.5,0.25,87,118.0
5251,C#3,275.5,0.25,108,118.0
5252,C#4,275.5,0.25,108,118.0
5253,G#1,275.75,26/125,110,118.0
5254,F#2,275.75,0.25,109,118.0
5255,G#1,275.75,26/125,110,118.0
5256,G#2,275.75,0.25,116,118.0
5257,C#3,275.75,0.25,84,118.0
5258,C#4,275.75,0.25,84,118.0
5259,G#3,275.75,0.25,84,118.0
5260,F#1,276.0,283/1000,127,118.0
5261,C2,276.0,0.5,113,118.0
5262,F#1,276.0,283/1000,127,118.0
5263,F4,276.0,721/500,127,118.0
5264,B-2,276.0,0.25,114,118.0
5265,C#3,276.0,0.25,114,118.0
5266,B-3,276.0,0.75,102,118.0
5267,F#3,276.0,0.75,102,118.0
5268,C#3,276.0,0.75,102,118.0
5269,F#2,276.0,0.25,100,118.0
5270,F#1,276.0,0.25,100,118.0
5271,F2,276.0,0.25,100,118.0
5272,E2,276.0,0.25,100,118.0
5273,C#3,276.0,627/250,110,118.0
5274,C#4,276.0,627/250,110,118.0
5275,F#3,276.0,627/250,110,118.0
5276,C#3,276.0,627/250,110,118.0
5277,C#4,276.0,627/250,110,118.0
5278,F#3,276.0,627/250,110,118.0
5279,G#3,276.0,199/125,127,118.0
5280,G#3,276.0,199/125,127,118.0
5281,G#3,276.0,1533/1000,120,118.0
5282,F3,276.0,1533/1000,120,118.0
5283,F#1,276.5,0.125,110,118.0
5284,G#2,276.5,0.25,96,118.0
5285,F#1,276.5,0.125,110,118.0
5286,F#2,276.5,0.5,124,118.0
5287,F#1,276.75,27/250,110,118.0
5288,F#2,276.75,0.25,100,118.0
5289,F#1,276.75,27/250,110,118.0
5290,F#2,276.75,2.75,90,118.0
5291,C#3,276.75,2.75,90,118.0
5292,F#3,276.75,2.75,90,118.0
5293,F#1,277.0,11/40,127,118.0
5294,E2,277.0,0.75,110,118.0
5295,B-2,277.0,0.25,114,118.0
5296,F#1,277.0,11/40,127,118.0
5297,C#2,277.0,0.25,41,118.0
5298,C#3,277.0,0.5,106,118.0
5299,F#3,277.0,0.5,106,118.0
5300,B-3,277.0,0.5,106,118.0
5301,F#1,277.5,1/10,110,118.0
5302,G#2,277.5,0.25,92,118.0
5303,F#1,277.5,1/10,110,118.0
5304,F#2,277.5,0.25,106,118.0
5305,F#4,277.5,1267/1000,127,118.0
5306,B-3,277.5,2083/1000,127,118.0
5307,B-3,277.5,2083/1000,127,118.0
5308,B-3,277.5,721/500,124,118.0
5309,F#3,277.5,721/500,124,118.0
5310,F#1,277.75,133/1000,110,118.0
5311,F#2,277.75,0.25,100,118.0
5312,F#1,277.75,133/1000,110,118.0
5313,B-3,277.75,0.25,96,118.0
5314,F#3,277.75,0.25,96,118.0
5315,C#3,277.75,0.25,96,118.0
5316,F#1,278.0,129/500,127,118.0
5317,C2,278.0,0.75,120,118.0
5318,B-2,278.0,0.25,114,118.0
5319,F#1,278.0,129/500,127,118.0
5320,B-3,278.25,0.25,103,118.0
5321,F#3,278.25,0.25,103,118.0
5322,C#3,278.25,0.25,103,118.0
5323,F#1,278.5,117/1000,110,118.0
5324,G#2,278.5,0.25,96,118.0
5325,F#1,278.5,117/1000,110,118.0
5326,F#2,278.5,0.25,124,118.0
5327,F#1,278.75,0.125,110,118.0
5328,F#2,278.75,0.25,100,118.0
5329,F#1,278.75,0.125,110,118.0
5330,C#2,278.75,0.25,120,118.0
5331,F#1,279.0,3/10,127,118.0
5332,E2,279.0,0.5,117,118.0
5333,B-2,279.0,0.25,100,118.0
5334,F#1,279.0,3/10,127,118.0
5335,G#1,279.0,0.25,79,118.0
5336,C#3,279.0,0.75,79,118.0
5337,C#4,279.0,633/1000,117,118.0
5338,C#4,279.0,433/1000,127,118.0
5339,F#1,279.0,0.5,115,118.0
5340,F#3,279.0,0.5,115,118.0
5341,G#3,279.0,0.5,115,118.0
5342,F#1,279.5,117/1000,110,118.0
5343,F#1,279.5,117/1000,110,118.0
5344,F#2,279.5,0.5,124,118.0
5345,B-3,279.5,0.25,83,118.0
5346,G#3,279.5,0.5,118,118.0
5347,B3,279.5,0.5,126,118.0
5348,E-4,279.5,0.5,127,118.0
5349,C2,279.5,0.25,90,118.0
5350,G#2,279.5,0.25,90,118.0
5351,E-3,279.5,0.5,110,118.0
5352,B2,279.5,0.5,110,118.0
5353,E-3,279.5,0.5,110,118.0
5354,B2,279.5,0.5,110,118.0
5355,B3,279.5,0.5,127,118.0
5356,B3,279.5,0.5,127,118.0
5357,F#1,279.75,1/5,110,118.0
5358,F#2,279.75,0.25,92,118.0
5359,F#1,279.75,1/5,110,118.0
5360,C#2,279.75,0.25,112,118.0
5361,F#2,279.75,0.25,91,118.0
5362,F#3,279.75,0.25,91,118.0
5363,C#3,279.75,0.25,91,118.0
5364,G#1,280.0,0.25,127,118.0
5365,C2,280.0,0.5,110,118.0
5366,B-2,280.0,0.25,104,118.0
5367,G#1,280.0,0.25,127,118.0
5368,G#1,280.0,0.5,127,118.0
5369,B-1,280.0,0.25,101,118.0
5370,G#3,280.0,471/500,118,118.0
5371,B3,280.0,1017/1000,126,118.0
5372,E-4,280.0,11/5,127,118.0
5373,G#3,280.0,0.75,101,118.0
5374,B3,280.0,0.75,101,118.0
5375,E-3,280.0,0.75,101,118.0
5376,E-3,280.0,2833/1000,110,118.0
5377,B2,280.0,2833/1000,110,118.0
5378,E-3,280.0,2833/1000,110,118.0
5379,B2,280.0,2833/1000,110,118.0
5380,B3,280.0,1779/500,127,118.0
5381,B3,280.0,1779/500,127,118.0
5382,G#1,280.5,0.125,110,118.0
5383,G#2,280.5,0.25,81,118.0
5384,G#1,280.5,0.125,110,118.0
5385,G#2,280.5,0.25,116,118.0
5386,G#1,280.75,133/1000,110,118.0
5387,F#2,280.75,0.25,96,118.0
5388,G#1,280.75,133/1000,110,118.0
5389,E-2,280.75,0.25,120,118.0
5390,G#2,280.75,2.0,89,118.0
5391,G#3,280.75,2.25,96,118.0
5392,E-3,280.75,2.25,96,118.0
5393,G#1,281.0,121/500,127,118.0
5394,E2,281.0,0.5,110,118.0
5395,B-2,281.0,0.25,109,118.0
5396,G#1,281.0,121/500,127,118.0
5397,B-3,281.0,271/500,118,118.0
5398,G#3,281.0,0.5,105,118.0
5399,E-3,281.0,0.5,105,118.0
5400,B3,281.0,0.5,105,118.0
5401,G#1,281.5,1/10,110,118.0
5402,G#2,281.5,0.25,81,118.0
5403,G#1,281.5,1/10,110,118.0
5404,G#2,281.5,0.25,116,118.0
5405,G#3,281.5,1033/1000,115,118.0
5406,G#1,281.75,23/250,110,118.0
5407,F#2,281.75,0.25,96,118.0
5408,G#1,281.75,23/250,110,118.0
5409,E-3,281.75,0.25,92,118.0
5410,G#3,281.75,0.25,92,118.0
5411,B3,281.75,0.25,92,118.0
5412,G#1,282.0,26/125,127,118.0
5413,C2,282.0,0.5,120,118.0
5414,B-2,282.0,0.25,109,118.0
5415,G#1,282.0,26/125,127,118.0
5416,G#3,282.25,0.25,103,118.0
5417,E-3,282.25,0.25,103,118.0
5418,B3,282.25,0.25,103,118.0
5419,G#1,282.5,27/250,110,118.0
5420,G#2,282.5,0.25,92,118.0
5421,G#1,282.5,27/250,110,118.0
5422,G#2,282.5,0.25,116,118.0
5423,F#3,282.5,1117/1000,125,118.0
5424,F#4,282.5,767/1000,127,118.0
5425,F#3,282.583,379/500,120,118.0
5426,F#3,282.583,379/500,120,118.0
5427,G#1,282.75,27/250,110,118.0
5428,F#2,282.75,0.25,86,118.0
5429,G#1,282.75,27/250,110,118.0
5430,E-2,282.75,0.25,95,118.0
5431,G#1,283.0,1/5,127,118.0
5432,E2,283.0,0.5,120,118.0
5433,B-2,283.0,0.25,109,118.0
5434,G#1,283.0,1/5,127,118.0
5435,G#1,283.0,0.75,116,118.0
5436,B-3,283.0,0.5,111,118.0
5437,G#3,283.0,0.5,111,118.0
5438,E-3,283.0,0.5,111,118.0
5439,B3,283.375,0.625,120,118.0
5440,B3,283.375,0.625,120,118.0
5441,G#1,283.5,9/40,110,118.0
5442,G#1,283.5,9/40,110,118.0
5443,G#2,283.5,0.5,127,118.0
5444,B3,283.5,0.25,82,118.0
5445,G#3,283.5,0.5,115,118.0
5446,C#3,283.5,0.5,118,118.0
5447,F4,283.5,0.5,127,118.0
5448,C2,283.5,0.25,76,118.0
5449,G#2,283.5,0.25,76,118.0
5450,B1,283.75,0.25,110,118.0
5451,F#2,283.75,0.25,104,118.0
5452,B1,283.75,0.25,110,118.0
5453,E-2,283.75,0.25,109,118.0
5454,G#2,283.75,0.25,82,118.0
5455,G#3,283.75,0.25,82,118.0
5456,E-3,283.75,0.25,82,118.0
5457,C#2,284.0,333/1000,127,118.0
5458,B1,284.0,1/40,110,118.0
5459,C2,284.0,0.5,113,118.0
5460,C#2,284.0,333/1000,127,118.0
5461,B1,284.0,1/40,110,118.0
5462,C#2,284.0,0.5,120,118.0
5463,G#3,284.0,173/250,115,118.0
5464,C#3,284.0,617/1000,118,118.0
5465,F4,284.0,69/40,127,118.0
5466,A3,284.0,0.25,120,118.0
5467,B-2,284.0,0.25,120,118.0
5468,G#3,284.0,0.75,95,118.0
5469,C#4,284.0,0.75,95,118.0
5470,F3,284.0,0.75,95,118.0
5471,C#3,284.0,31/10,116,118.0
5472,G#3,284.0,31/10,116,118.0
5473,C#4,284.0,31/10,116,118.0
5474,C#3,284.0,31/10,116,118.0
5475,G#3,284.0,31/10,116,118.0
5476,C#4,284.0,31/10,116,118.0
5477,B3,284.0,283/1000,120,118.0
5478,B3,284.0,283/1000,120,118.0
5479,C#2,284.5,1/10,110,118.0
5480,G#2,284.5,0.25,92,118.0
5481,C#2,284.5,1/10,110,118.0
5482,C#3,284.5,0.25,120,118.0
5483,C#2,284.75,117/1000,110,118.0
5484,F#2,284.75,0.25,96,118.0
5485,C#2,284.75,117/1000,110,118.0
5486,G#2,284.75,0.25,89,118.0
5487,C#3,284.75,2.0,92,118.0
5488,C#4,284.75,1.75,98,118.0
5489,G#3,284.75,1.75,98,118.0
5490,C#2,285.0,73/250,127,118.0
5491,E2,285.0,0.75,110,118.0
5492,B-2,285.0,0.25,104,118.0
5493,C#2,285.0,73/250,127,118.0
5494,C#4,285.0,0.5,103,118.0
5495,G#3,285.0,0.5,103,118.0
5496,F3,285.0,0.5,103,118.0
5497,C#2,285.5,71/500,110,118.0
5498,G#2,285.5,0.25,92,118.0
5499,C#2,285.5,71/500,110,118.0
5500,C#3,285.5,0.25,109,118.0
5501,C#2,285.75,0.125,110,118.0
5502,F#2,285.75,0.25,104,118.0
5503,C#2,285.75,0.125,110,118.0
5504,C#4,285.75,0.25,89,118.0
5505,G#3,285.75,0.25,89,118.0
5506,F3,285.75,0.25,89,118.0
5507,C#2,286.0,217/1000,127,118.0
5508,C2,286.0,0.75,110,118.0
5509,B-2,286.0,0.25,109,118.0
5510,C#2,286.0,217/1000,127,118.0
5511,F3,286.25,0.25,98,118.0
5512,G#3,286.25,0.25,98,118.0
5513,C#4,286.25,0.25,98,118.0
5514,C#2,286.5,133/1000,110,118.0
5515,G#2,286.5,0.25,104,118.0
5516,C#2,286.5,133/1000,110,118.0
5517,C#3,286.5,0.25,104,118.0
5518,E-4,286.5,521/500,127,118.0
5519,E-4,286.5,521/500,127,118.0
5520,C#2,286.75,117/1000,110,118.0
5521,F#2,286.75,0.25,104,118.0
5522,C#2,286.75,117/1000,110,118.0
5523,G#2,286.75,0.25,104,118.0
5524,C#2,287.0,167/1000,127,118.0
5525,C#2,287.0,167/1000,127,118.0
5526,C#2,287.0,0.25,124,118.0
5527,E2,287.0,0.25,111,118.0
5528,B-2,287.0,0.25,111,118.0
5529,F#3,287.25,0.25,110,118.0
5530,E-3,287.25,0.25,110,118.0
5531,B3,287.25,0.25,110,118.0
5532,B2,287.25,0.5,93,118.0
5533,F#3,287.25,0.5,93,118.0
5534,B3,287.25,0.5,93,118.0
5535,C#2,287.5,283/1000,110,118.0
5536,C#2,287.5,283/1000,110,118.0
5537,C#3,287.5,0.25,124,118.0
5538,C2,287.5,0.25,97,118.0
5539,G#2,287.5,0.25,97,118.0
5540,F4,287.5,0.5,127,118.0
5541,F4,287.5,0.5,127,118.0
5542,B1,287.75,0.25,110,118.0
5543,F#2,287.75,0.25,96,118.0
5544,B1,287.75,0.25,110,118.0
5545,G#2,287.75,0.25,109,118.0
5546,C#2,288.0,3/10,127,118.0
5547,B1,288.0,1/20,110,118.0
5548,C2,288.0,0.5,117,118.0
5549,B-2,288.0,0.25,109,118.0
5550,C#2,288.0,3/10,127,118.0
5551,B1,288.0,1/20,110,118.0
5552,C#2,288.0,0.5,124,118.0
5553,F3,288.0,0.75,105,118.0
5554,C#4,288.0,0.75,105,118.0
5555,G#3,288.0,0.75,105,118.0
5556,G#3,288.0,1579/500,110,118.0
5557,C#3,288.0,1579/500,110,118.0
5558,C#4,288.0,1579/500,110,118.0
5559,G#3,288.0,1579/500,110,118.0
5560,C#3,288.0,1579/500,110,118.0
5561,C#4,288.0,1579/500,110,118.0
5562,F4,288.0,16/5,127,118.0
5563,F4,288.0,16/5,127,118.0
5564,C#4,288.25,0.5,96,118.0
5565,C#3,288.25,0.5,94,118.0
5566,G#3,288.25,0.5,94,118.0
5567,C#2,288.5,117/1000,110,118.0
5568,G#2,288.5,0.25,104,118.0
5569,C#2,288.5,117/1000,110,118.0
5570,C#3,288.5,0.25,120,118.0
5571,C3,288.5,0.25,61,118.0
5572,G3,288.5,0.25,61,118.0
5573,C4,288.5,0.25,61,118.0
5574,B3,288.5,0.25,61,118.0
5575,C#2,288.75,27/250,110,118.0
5576,F#2,288.75,0.25,92,118.0
5577,C#2,288.75,27/250,110,118.0
5578,G#2,288.75,0.25,120,118.0
5579,C#3,288.75,2.0,94,118.0
5580,G#3,288.75,2.0,94,118.0
5581,C#2,289.0,233/1000,127,118.0
5582,E2,289.0,0.5,113,118.0
5583,B-2,289.0,0.25,104,118.0
5584,C#2,289.0,233/1000,127,118.0
5585,C#4,289.0,2.0,51,118.0
5586,F3,289.0,0.5,106,118.0
5587,G#3,289.0,0.5,106,118.0
5588,C#4,289.0,0.5,106,118.0
5589,C#2,289.5,133/1000,110,118.0
5590,G#2,289.5,0.25,96,118.0
5591,C#2,289.5,133/1000,110,118.0
5592,C#3,289.5,0.25,120,118.0
5593,C#2,289.75,117/1000,110,118.0
5594,F#2,289.75,0.25,96,118.0
5595,C#2,289.75,117/1000,110,118.0
5596,C#4,289.75,0.25,91,118.0
5597,G#3,289.75,0.25,91,118.0
5598,F3,289.75,0.25,91,118.0
5599,C#2,290.0,317/1000,127,118.0
5600,C2,290.0,0.5,120,118.0
5601,C#2,290.0,317/1000,127,118.0
5602,D3,290.0,0.25,117,118.0
5603,B-2,290.0,0.25,117,118.0
5604,C2,290.25,0.5,107,118.0
5605,F3,290.25,0.25,111,118.0
5606,C#4,290.25,0.25,111,118.0
5607,G#3,290.25,0.25,111,118.0
5608,C#2,290.5,133/1000,110,118.0
5609,G#2,290.5,0.25,96,118.0
5610,C#2,290.5,133/1000,110,118.0
5611,C#3,290.5,0.25,116,118.0
5612,C#2,290.75,27/250,110,118.0
5613,C#2,290.75,27/250,110,118.0
5614,G#2,290.75,0.25,109,118.0
5615,F#2,290.75,0.25,106,118.0
5616,C2,290.75,0.25,106,118.0
5617,C#2,291.0,3/10,127,118.0
5618,E2,291.0,0.5,113,118.0
5619,C#2,291.0,3/10,127,118.0
5620,F3,291.0,0.75,93,118.0
5621,B-2,291.0,0.25,117,118.0
5622,B2,291.0,0.25,117,118.0
5623,C#2,291.0,0.5,109,118.0
5624,C#4,291.0,0.5,109,118.0
5625,G#3,291.0,0.5,109,118.0
5626,G2,291.25,0.25,120,118.0
5627,G#1,291.5,26/125,110,118.0
5628,G#1,291.5,26/125,110,118.0
5629,C#3,291.5,0.25,112,118.0
5630,G2,291.5,0.25,98,118.0
5631,C2,291.5,0.25,98,118.0
5632,G#2,291.5,0.25,98,118.0
5633,B-1,291.75,0.25,110,118.0
5634,F#2,291.75,0.25,54,118.0
5635,B-1,291.75,0.25,110,118.0
5636,C#3,291.75,0.25,86,118.0
5637,C#4,291.75,0.25,86,118.0
5638,G#3,291.75,0.25,86,118.0
5639,B1,292.0,267/1000,127,118.0
5640,B-1,292.0,83/1000,110,118.0
5641,B1,292.0,267/1000,127,118.0
5642,B-1,292.0,83/1000,110,118.0
5643,B1,292.0,1.0,99,118.0
5644,B2,292.0,0.25,106,118.0
5645,F#4,292.0,176/125,127,118.0
5646,E3,292.0,0.25,100,118.0
5647,B-2,292.0,0.25,100,118.0
5648,C#3,292.0,0.25,100,118.0
5649,C2,292.0,0.5,106,118.0
5650,B-2,292.0,0.5,106,118.0
5651,E-4,292.0,0.75,101,118.0
5652,B3,292.0,0.75,101,118.0
5653,F#3,292.0,0.75,101,118.0
5654,F#3,292.0,2.875,110,118.0
5655,F#3,292.0,2.875,110,118.0
5656,B2,292.0,3083/1000,110,118.0
5657,B3,292.0,3083/1000,110,118.0
5658,B2,292.0,3083/1000,110,118.0
5659,B3,292.0,3083/1000,110,118.0
5660,C#4,292.0,1667/1000,127,118.0
5661,C#4,292.0,1667/1000,127,118.0
5662,C#4,292.0,7/5,116,118.0
5663,B-3,292.0,7/5,116,118.0
5664,B1,292.5,133/1000,110,118.0
5665,G#2,292.5,0.25,60,118.0
5666,B1,292.5,133/1000,110,118.0
5667,B2,292.5,0.75,96,118.0
5668,B1,292.75,3/20,110,118.0
5669,F#2,292.75,0.25,104,118.0
5670,B1,292.75,3/20,110,118.0
5671,B2,292.75,3.0,94,118.0
5672,B3,292.75,3.0,94,118.0
5673,F#3,292.75,3.0,94,118.0
5674,B1,293.0,9/40,127,118.0
5675,B1,293.0,9/40,127,118.0
5676,E2,293.0,0.5,113,118.0
5677,B-2,293.0,0.5,113,118.0
5678,B3,293.0,0.5,105,118.0
5679,F#3,293.0,0.5,105,118.0
5680,E-4,293.0,0.5,105,118.0
5681,B1,293.5,0.125,110,118.0
5682,G#2,293.5,0.25,64,118.0
5683,B1,293.5,0.125,110,118.0
5684,B2,293.5,0.25,121,118.0
5685,B4,293.5,226/125,127,118.0
5686,E-4,293.5,2033/1000,127,118.0
5687,E-4,293.5,2033/1000,127,118.0
5688,B3,293.5,67/40,119,118.0
5689,E-4,293.5,67/40,119,118.0
5690,B1,293.75,0.125,110,118.0
5691,F#2,293.75,0.25,104,118.0
5692,B1,293.75,0.125,110,118.0
5693,B3,293.75,0.25,99,118.0
5694,E-4,293.75,0.25,99,118.0
5695,F#3,293.75,0.25,99,118.0
5696,B1,294.0,13/40,127,118.0
5697,C2,294.0,0.75,53,118.0
5698,B-2,294.0,0.5,104,118.0
5699,B1,294.0,13/40,127,118.0
5700,B-3,294.25,0.25,105,118.0
5701,E-4,294.25,0.25,105,118.0
5702,B3,294.25,0.25,105,118.0
5703,F#3,294.25,0.25,105,118.0
5704,B1,294.5,133/1000,110,118.0
5705,G#2,294.5,0.25,79,118.0
5706,B1,294.5,133/1000,110,118.0
5707,B2,294.5,0.25,100,118.0
5708,B1,294.75,0.125,110,118.0
5709,F#2,294.75,0.25,104,118.0
5710,B1,294.75,0.125,110,118.0
5711,F#2,294.75,0.25,112,118.0
5712,B1,295.0,129/500,127,118.0
5713,B1,295.0,129/500,127,118.0
5714,B3,295.0,0.25,110,118.0
5715,E2,295.0,0.5,116,118.0
5716,B-2,295.0,0.5,116,118.0
5717,B1,295.0,0.5,111,118.0
5718,C#4,295.0,0.5,111,118.0
5719,F#3,295.0,0.5,111,118.0
5720,B1,295.5,0.125,110,118.0
5721,B1,295.5,0.125,110,118.0
5722,C#5,295.5,0.5,127,118.0
5723,C2,295.5,0.25,82,118.0
5724,G#2,295.5,0.25,82,118.0
5725,B2,295.5,0.25,91,118.0
5726,E-4,295.5,0.25,91,118.0
5727,F#3,295.5,0.25,91,118.0
5728,C#4,295.5,0.5,110,118.0
5729,G#3,295.5,0.5,110,118.0
5730,E3,295.5,0.5,110,118.0
5731,C#4,295.5,0.5,110,118.0
5732,G#3,295.5,0.5,110,118.0
5733,E3,295.5,0.5,110,118.0
5734,E4,295.5,0.5,127,118.0
5735,E4,295.5,0.5,127,118.0
5736,E4,295.5,0.5,119,118.0
5737,C#4,295.5,0.5,119,118.0
5738,B1,295.75,0.25,110,118.0
5739,F#2,295.75,0.25,100,118.0
5740,B1,295.75,0.25,110,118.0
5741,F#2,295.75,0.25,116,118.0
5742,A1,296.0,233/1000,127,118.0
5743,A1,296.0,233/1000,127,118.0
5744,A2,296.0,0.25,103,118.0
5745,C#5,296.0,767/1000,127,118.0
5746,C2,296.0,0.5,118,118.0
5747,B-2,296.0,0.5,118,118.0
5748,C#4,296.0,0.75,105,118.0
5749,A3,296.0,0.75,105,118.0
5750,B3,296.0,0.75,105,118.0
5751,A1,296.0,0.75,105,118.0
5752,E4,296.0,0.75,105,118.0
5753,C#4,296.0,51/20,110,118.0
5754,G#3,296.0,51/20,110,118.0
5755,E3,296.0,51/20,110,118.0
5756,C#4,296.0,51/20,110,118.0
5757,G#3,296.0,51/20,110,118.0
5758,E3,296.0,51/20,110,118.0
5759,E4,296.0,111/40,127,118.0
5760,E4,296.0,111/40,127,118.0
5761,E4,296.0,1371/500,119,118.0
5762,C#4,296.0,1371/500,119,118.0
5763,A1,296.5,1/10,110,118.0
5764,A1,296.5,1/10,110,118.0
5765,A2,296.5,0.25,114,118.0
5766,A1,296.75,23/250,110,118.0
5767,G#2,296.75,0.25,75,118.0
5768,A1,296.75,23/250,110,118.0
5769,E2,296.75,0.25,110,118.0
5770,A2,296.75,2.25,101,118.0
5771,A3,296.75,2.25,101,118.0
5772,E3,296.75,2.25,101,118.0
5773,A1,297.0,0.25,127,118.0
5774,E2,297.0,0.5,110,118.0
5775,A1,297.0,0.25,127,118.0
5776,F#2,297.0,0.25,96,118.0
5777,B-2,297.0,0.25,96,118.0
5778,A3,297.0,0.5,111,118.0
5779,C#4,297.0,0.5,111,118.0
5780,E4,297.0,0.5,111,118.0
5781,B3,297.0,0.5,111,118.0
5782,A1,297.5,27/250,110,118.0
5783,G#2,297.5,0.25,81,118.0
5784,A1,297.5,27/250,110,118.0
5785,A2,297.5,0.25,90,118.0
5786,A1,297.75,0.125,110,118.0
5787,F#2,297.75,0.25,96,118.0
5788,A1,297.75,0.125,110,118.0
5789,E4,297.75,0.25,96,118.0
5790,C#4,297.75,0.25,96,118.0
5791,A3,297.75,0.25,96,118.0
5792,B3,297.75,0.25,96,118.0
5793,A1,298.0,0.25,127,118.0
5794,C2,298.0,0.75,113,118.0
5795,B-2,298.0,0.25,100,118.0
5796,A1,298.0,0.25,127,118.0
5797,E4,298.25,0.25,108,118.0
5798,C#4,298.25,0.25,108,118.0
5799,A3,298.25,0.25,108,118.0
5800,B3,298.25,0.25,108,118.0
5801,A1,298.5,133/1000,110,118.0
5802,G#2,298.5,0.25,89,118.0
5803,A1,298.5,133/1000,110,118.0
5804,A2,298.5,0.25,105,118.0
5805,A1,298.75,71/500,110,118.0
5806,F#2,298.75,0.25,92,118.0
5807,A1,298.75,71/500,110,118.0
5808,E2,298.75,0.25,92,118.0
5809,A1,299.0,129/500,127,118.0
5810,E2,299.0,0.5,110,118.0
5811,B-2,299.0,0.25,109,118.0
5812,A1,299.0,129/500,127,118.0
5813,E-4,299.0,0.5,99,118.0
5814,C#5,299.0,933/1000,127,118.0
5815,B3,299.0,0.75,109,118.0
5816,A3,299.0,0.75,109,118.0
5817,A1,299.0,0.75,109,118.0
5818,E4,299.0,1.0,127,118.0
5819,E4,299.0,1.0,127,118.0
5820,C#4,299.0,471/500,113,118.0
5821,E4,299.0,471/500,113,118.0
5822,A1,299.5,133/1000,110,118.0
5823,A1,299.5,133/1000,110,118.0
5824,C2,299.5,0.25,82,118.0
5825,G#2,299.5,0.25,82,118.0
5826,E4,299.5,0.25,105,118.0
5827,A2,299.5,0.25,105,118.0
5828,A1,299.75,24/125,110,118.0
5829,F#2,299.75,0.25,92,118.0
5830,A1,299.75,24/125,110,118.0
5831,E2,299.75,0.25,112,118.0
5832,A2,299.75,0.25,82,118.0
5833,A3,299.75,0.25,82,118.0
5834,E3,299.75,0.25,82,118.0
5835,G#1,300.0,183/1000,127,118.0
5836,C2,300.0,0.5,110,118.0
5837,B-2,300.0,0.25,114,118.0
5838,G#1,300.0,183/1000,127,118.0
5839,G#2,300.0,0.25,93,118.0
5840,E-4,300.0,273/250,125,118.0
5841,B3,300.0,1017/1000,115,118.0
5842,B4,300.0,223/250,127,118.0
5843,E-4,300.0,0.75,91,118.0
5844,B3,300.0,0.75,91,118.0
5845,G#3,300.0,0.75,91,118.0
5846,G#1,300.0,0.75,91,118.0
5847,B4,300.0,967/1000,120,118.0
5848,B4,300.0,967/1000,120,118.0
5849,F#3,300.0,121/40,110,118.0
5850,E-3,300.0,121/40,110,118.0
5851,F#3,300.0,121/40,110,118.0
5852,E-3,300.0,121/40,110,118.0
5853,E-4,300.0,1033/1000,127,118.0
5854,E-4,300.0,1033/1000,127,118.0
5855,E4,300.0,33/1000,127,118.0
5856,E4,300.0,33/1000,127,118.0
5857,G#1,300.5,0.125,110,118.0
5858,G#2,300.5,0.25,77,118.0
5859,G#1,300.5,0.125,110,118.0
5860,G#2,300.5,0.5,127,118.0
5861,G#1,300.75,121/500,110,118.0
5862,F#2,300.75,0.25,96,118.0
5863,G#1,300.75,121/500,110,118.0
5864,E-2,300.75,0.25,61,118.0
5865,G#3,300.75,2.75,81,118.0
5866,E-3,300.75,2.5,88,118.0
5867,G#2,300.75,2.5,88,118.0
5868,B1,301.0,0.25,127,118.0
5869,E2,301.0,0.75,110,118.0
5870,B1,301.0,0.25,127,118.0
5871,B-4,301.0,39/40,127,118.0
5872,F#2,301.0,0.25,74,118.0
5873,B-2,301.0,0.25,74,118.0
5874,E-4,301.0,0.5,113,118.0
5875,G#3,301.0,0.5,113,118.0
5876,B3,301.0,0.5,113,118.0
5877,B-4,301.0,1017/1000,120,118.0
5878,B-4,301.0,1017/1000,120,118.0
5879,C#4,301.0,1133/1000,127,118.0
5880,C#4,301.0,1133/1000,127,118.0
5881,B-3,301.0,126/125,112,118.0
5882,C#4,301.0,126/125,112,118.0
5883,B1,301.5,71/500,110,118.0
5884,G#2,301.5,0.25,86,118.0
5885,B1,301.5,71/500,110,118.0
5886,G#2,301.5,0.25,127,118.0
5887,B1,301.75,73/250,110,118.0
5888,F#2,301.75,0.25,100,118.0
5889,B1,301.75,73/250,110,118.0
5890,E-4,301.75,0.25,91,118.0
5891,B3,301.75,0.25,91,118.0
5892,G#3,301.75,0.25,91,118.0
5893,E-2,302.0,1/5,127,118.0
5894,C2,302.0,0.75,110,118.0
5895,B-2,302.0,0.25,109,118.0
5896,E-2,302.0,1/5,127,118.0
5897,G#4,302.0,471/500,127,118.0
5898,G#4,302.0,579/500,120,118.0
5899,G#4,302.0,579/500,120,118.0
5900,B3,302.0,43/40,127,118.0
5901,B3,302.0,43/40,127,118.0
5902,G#3,302.0,529/500,112,118.0
5903,B3,302.0,529/500,112,118.0
5904,E-4,302.25,0.25,106,118.0
5905,B3,302.25,0.25,106,118.0
5906,G#3,302.25,0.25,106,118.0
5907,E-2,302.5,133/1000,110,118.0
5908,G#2,302.5,0.25,92,118.0
5909,E-2,302.5,133/1000,110,118.0
5910,G#2,302.5,0.25,127,118.0
5911,E-2,302.75,3/10,110,118.0
5912,F#2,302.75,0.25,100,118.0
5913,E-2,302.75,3/10,110,118.0
5914,E-2,302.75,0.25,106,118.0
5915,B1,303.0,24/125,127,118.0
5916,E2,303.0,0.5,110,118.0
5917,B-2,303.0,0.25,114,118.0
5918,B1,303.0,24/125,127,118.0
5919,B-1,303.0,0.25,71,118.0
5920,F#4,303.0,9/10,127,118.0
5921,C#4,303.0,0.5,108,118.0
5922,B3,303.0,0.5,108,118.0
5923,G#3,303.0,0.75,110,118.0
5924,G#1,303.0,0.75,110,118.0
5925,F#4,303.0,1.0,120,118.0
5926,F#4,303.0,1.0,120,118.0
5927,B-3,303.0,1.0,127,118.0
5928,B-3,303.0,1.0,127,118.0
5929,F#3,303.0,1.0,116,118.0
5930,B-3,303.0,1.0,116,118.0
5931,B1,303.5,117/1000,110,118.0
5932,B1,303.5,117/1000,110,118.0
5933,E-4,303.5,0.25,74,118.0
5934,G#2,303.5,0.5,127,118.0
5935,C2,303.5,0.25,77,118.0
5936,G#2,303.5,0.25,77,118.0
5937,B1,303.75,0.25,110,118.0
5938,F#2,303.75,0.25,100,118.0
5939,B1,303.75,0.25,110,118.0
5940,E-2,303.75,0.25,116,118.0
5941,E-3,303.75,0.25,86,118.0
5942,G#2,303.75,0.25,86,118.0
5943,G#3,303.75,0.25,86,118.0
5944,C#2,304.0,233/1000,127,118.0
5945,B1,304.0,21/500,110,118.0
5946,C2,304.0,0.75,120,118.0
5947,B-2,304.0,0.25,109,118.0
5948,C#2,304.0,233/1000,127,118.0
5949,B1,304.0,21/500,110,118.0
5950,C#2,304.0,0.5,99,118.0
5951,F4,304.0,1633/1000,127,118.0
5952,C#4,304.0,0.75,93,118.0
5953,F3,304.0,0.75,93,118.0
5954,G#3,304.0,0.75,93,118.0
5955,F4,304.0,821/500,120,118.0
5956,F4,304.0,821/500,120,118.0
5957,C#4,304.0,1471/500,110,118.0
5958,C#4,304.0,1471/500,110,118.0
5959,C#3,304.0,3033/1000,110,118.0
5960,C#3,304.0,3033/1000,110,118.0
5961,G#3,304.0,1071/500,127,118.0
5962,G#3,304.0,1071/500,127,118.0
5963,F#4,304.0,71/500,120,118.0
5964,F#4,304.0,71/500,120,118.0
5965,G#3,304.0,527/250,120,118.0
5966,C#3,304.0,527/250,120,118.0
5967,F#3,304.0,117/1000,116,118.0
5968,B-3,304.0,117/1000,116,118.0
5969,C#2,304.5,133/1000,110,118.0
5970,G#2,304.5,0.25,84,118.0
5971,C#2,304.5,133/1000,110,118.0
5972,C#3,304.5,0.25,124,118.0
5973,C#2,304.75,0.125,110,118.0
5974,F#2,304.75,0.25,89,118.0
5975,C#2,304.75,0.125,110,118.0
5976,G#2,304.75,0.25,109,118.0
5977,C#3,304.75,2.5,86,118.0
5978,G#3,304.75,2.5,86,118.0
5979,C#4,304.75,2.5,86,118.0
5980,C#2,305.0,3/10,127,118.0
5981,E2,305.0,0.75,113,118.0
5982,B-2,305.0,0.25,114,118.0
5983,C#2,305.0,3/10,127,118.0
5984,C#4,305.0,0.5,102,118.0
5985,G#3,305.0,0.5,102,118.0
5986,F3,305.0,0.5,102,118.0
5987,C#2,305.5,133/1000,110,118.0
5988,G#2,305.5,0.25,92,118.0
5989,C#2,305.5,133/1000,110,118.0
5990,C#3,305.5,0.25,112,118.0
5991,C#2,305.75,26/125,110,118.0
5992,F#2,305.75,0.25,96,118.0
5993,C#2,305.75,26/125,110,118.0
5994,C#4,305.75,0.25,92,118.0
5995,G#3,305.75,0.25,92,118.0
5996,F3,305.75,0.25,92,118.0
5997,F1,306.0,73/250,127,118.0
5998,C2,306.0,0.75,113,118.0
5999,B-2,306.0,0.25,114,118.0
6000,F1,306.0,73/250,127,118.0
6001,F#3,306.0,43/40,126,118.0
6002,E-4,306.0,983/1000,127,118.0
6003,E-4,306.0,479/500,120,118.0
6004,E-4,306.0,479/500,120,118.0
6005,F#3,306.0,1067/1000,127,118.0
6006,F#3,306.0,1067/1000,127,118.0
6007,F3,306.25,0.25,104,118.0
6008,C#4,306.25,0.25,104,118.0
6009,G#3,306.25,0.25,104,118.0
6010,F1,306.5,117/1000,110,118.0
6011,G#2,306.5,0.25,100,118.0
6012,F1,306.5,117/1000,110,118.0
6013,C#3,306.5,0.25,120,118.0
6014,F1,306.75,1/10,110,118.0
6015,F#2,306.75,0.25,100,118.0
6016,F1,306.75,1/10,110,118.0
6017,G#2,306.75,0.25,106,118.0
6018,F1,307.0,283/1000,127,118.0
6019,E2,307.0,0.5,110,118.0
6020,B-2,307.0,0.25,114,118.0
6021,F1,307.0,283/1000,127,118.0
6022,B3,307.0,0.25,92,118.0
6023,F3,307.0,0.75,91,118.0
6024,F4,307.0,177/250,127,118.0
6025,C#2,307.0,0.5,116,118.0
6026,G#3,307.0,0.5,116,118.0
6027,F4,307.0,33/40,124,118.0
6028,G#3,307.0,33/40,124,118.0
6029,F4,307.0,33/40,124,118.0
6030,G#3,307.0,33/40,124,118.0
6031,G#3,307.0,0.75,125,118.0
6032,F3,307.0,0.75,125,118.0
6033,F1,307.5,121/500,110,118.0
6034,F1,307.5,121/500,110,118.0
6035,C2,307.5,0.25,87,118.0
6036,G#2,307.5,0.25,87,118.0
6037,C#3,307.5,0.25,108,118.0
6038,C#4,307.5,0.25,108,118.0
6039,G#1,307.75,0.25,110,118.0
6040,F#2,307.75,0.25,109,118.0
6041,G#1,307.75,0.25,110,118.0
6042,G#2,307.75,0.25,116,118.0
6043,C#3,307.75,0.25,76,118.0
6044,G#3,307.75,0.25,76,118.0
6045,C#4,307.75,0.25,76,118.0
6046,F#1,308.0,73/250,127,118.0
6047,G#1,308.0,1/40,110,118.0
6048,C2,308.0,0.5,113,118.0
6049,F#1,308.0,73/250,127,118.0
6050,G#1,308.0,1/40,110,118.0
6051,G#3,308.0,1617/1000,123,118.0
6052,F3,308.0,771/500,123,118.0
6053,F4,308.0,1383/1000,127,118.0
6054,B-2,308.0,0.25,102,118.0
6055,C#3,308.0,0.25,102,118.0
6056,B-3,308.0,0.75,102,118.0
6057,F#3,308.0,0.75,102,118.0
6058,C#3,308.0,0.75,102,118.0
6059,F#2,308.0,0.25,100,118.0
6060,F#1,308.0,0.25,100,118.0
6061,F2,308.0,0.25,100,118.0
6062,E2,308.0,0.25,100,118.0
6063,F4,308.0,199/125,124,118.0
6064,G#3,308.0,199/125,124,118.0
6065,F4,308.0,199/125,124,118.0
6066,G#3,308.0,199/125,124,118.0
6067,C#3,308.0,627/250,110,118.0
6068,C#4,308.0,627/250,110,118.0
6069,F#3,308.0,627/250,110,118.0
6070,C#3,308.0,627/250,110,118.0
6071,C#4,308.0,627/250,110,118.0
6072,F#3,308.0,627/250,110,118.0
6073,F#1,308.5,0.125,110,118.0
6074,G#2,308.5,0.25,96,118.0
6075,F#1,308.5,0.125,110,118.0
6076,F#2,308.5,0.5,124,118.0
6077,F#1,308.75,27/250,110,118.0
6078,F#2,308.75,0.25,100,118.0
6079,F#1,308.75,27/250,110,118.0
6080,C#3,308.75,1.25,99,118.0
6081,F#2,308.75,1.5,76,118.0
6082,F#3,308.75,1.5,76,118.0
6083,F#1,309.0,9/40,127,118.0
6084,E2,309.0,0.75,110,118.0
6085,B-2,309.0,0.25,114,118.0
6086,F#1,309.0,9/40,127,118.0
6087,C#2,309.0,0.25,41,118.0
6088,C#3,309.0,0.5,106,118.0
6089,F#3,309.0,0.5,106,118.0
6090,B-3,309.0,0.5,106,118.0
6091,F#1,309.5,27/250,110,118.0
6092,G#2,309.5,0.25,92,118.0
6093,F#1,309.5,27/250,110,118.0
6094,F#2,309.5,0.25,106,118.0
6095,F#3,309.5,57/40,120,118.0
6096,B-3,309.5,27/20,123,118.0
6097,F#4,309.5,1267/1000,127,118.0
6098,F#4,309.5,1883/1000,120,118.0
6099,F#4,309.5,1883/1000,120,118.0
6100,B-3,309.5,2083/1000,127,118.0
6101,B-3,309.5,2083/1000,127,118.0
6102,F#1,309.75,27/250,110,118.0
6103,F#2,309.75,0.25,100,118.0
6104,F#1,309.75,27/250,110,118.0
6105,B-3,309.75,0.25,96,118.0
6106,F#3,309.75,0.25,96,118.0
6107,C#3,309.75,0.25,96,118.0
6108,F#1,310.0,9/40,127,118.0
6109,C2,310.0,0.75,120,118.0
6110,B-2,310.0,0.25,114,118.0
6111,F#1,310.0,9/40,127,118.0
6112,B-3,310.25,0.25,103,118.0
6113,F#3,310.25,0.25,103,118.0
6114,C#3,310.25,0.25,103,118.0
6115,F#1,310.5,117/1000,110,118.0
6116,G#2,310.5,0.25,96,118.0
6117,F#1,310.5,117/1000,110,118.0
6118,F#2,310.5,0.25,124,118.0
6119,F#1,310.75,117/1000,110,118.0
6120,F#2,310.75,0.25,100,118.0
6121,F#1,310.75,117/1000,110,118.0
6122,C#2,310.75,0.25,120,118.0
6123,F#2,310.75,1.25,86,118.0
6124,F#3,310.75,1.25,86,118.0
6125,C#3,310.75,1.25,86,118.0
6126,F#1,311.0,129/500,127,118.0
6127,E2,311.0,0.5,117,118.0
6128,B-2,311.0,0.25,100,118.0
6129,F#1,311.0,129/500,127,118.0
6130,G#1,311.0,0.25,79,118.0
6131,C#3,311.0,0.75,79,118.0
6132,C#4,311.0,7/10,115,118.0
6133,C#4,311.0,483/1000,127,118.0
6134,F#1,311.0,0.5,115,118.0
6135,F#3,311.0,0.5,115,118.0
6136,G#3,311.0,0.5,115,118.0
6137,F#1,311.5,117/1000,110,118.0
6138,F#1,311.5,117/1000,110,118.0
6139,F#2,311.5,0.5,124,118.0
6140,B-3,311.5,0.25,83,118.0
6141,E-4,311.5,0.5,127,118.0
6142,C2,311.5,0.25,90,118.0
6143,G#2,311.5,0.25,90,118.0
6144,F#4,311.5,0.5,127,118.0
6145,F#4,311.5,0.5,127,118.0
6146,G#4,311.5,0.5,120,118.0
6147,G#4,311.5,0.5,120,118.0
6148,E-3,311.5,0.5,110,118.0
6149,B2,311.5,0.5,110,118.0
6150,E-3,311.5,0.5,110,118.0
6151,B2,311.5,0.5,110,118.0
6152,B3,311.5,0.5,127,118.0
6153,B3,311.5,0.5,127,118.0
6154,B3,311.5,0.5,123,118.0
6155,G#3,311.5,0.5,123,118.0
6156,F#1,311.75,71/500,110,118.0
6157,F#2,311.75,0.25,92,118.0
6158,F#1,311.75,71/500,110,118.0
6159,C#2,311.75,0.25,112,118.0
6160,G#1,312.0,0.25,127,118.0
6161,C2,312.0,0.5,110,118.0
6162,B-2,312.0,0.25,104,118.0
6163,G#1,312.0,0.25,127,118.0
6164,G#1,312.0,0.5,127,118.0
6165,B-1,312.0,0.25,101,118.0
6166,E-4,312.0,2367/1000,127,118.0
6167,G#3,312.0,0.75,101,118.0
6168,B3,312.0,0.75,101,118.0
6169,E-3,312.0,0.75,101,118.0
6170,F#4,312.0,51/20,127,118.0
6171,F#4,312.0,51/20,127,118.0
6172,G#4,312.0,2483/1000,120,118.0
6173,G#4,312.0,2483/1000,120,118.0
6174,E-3,312.0,2833/1000,110,118.0
6175,B2,312.0,2833/1000,110,118.0
6176,E-3,312.0,2833/1000,110,118.0
6177,B2,312.0,2833/1000,110,118.0
6178,B3,312.0,1779/500,127,118.0
6179,B3,312.0,1779/500,127,118.0
6180,B3,312.0,124/125,123,118.0
6181,G#3,312.0,124/125,123,118.0
6182,G#1,312.5,0.125,110,118.0
6183,G#2,312.5,0.25,81,118.0
6184,G#1,312.5,0.125,110,118.0
6185,G#2,312.5,0.25,116,118.0
6186,G#1,312.75,233/1000,110,118.0
6187,F#2,312.75,0.25,96,118.0
6188,G#1,312.75,233/1000,110,118.0
6189,E-2,312.75,0.25,120,118.0
6190,G#2,312.75,2.5,75,118.0
6191,G#3,312.75,2.75,100,118.0
6192,E-3,312.75,2.75,100,118.0
6193,B1,313.0,129/500,127,118.0
6194,E2,313.0,0.5,110,118.0
6195,B-2,313.0,0.25,109,118.0
6196,B1,313.0,129/500,127,118.0
6197,B-3,313.0,11/20,120,118.0
6198,G#3,313.0,0.5,105,118.0
6199,E-3,313.0,0.5,105,118.0
6200,B3,313.0,0.5,105,118.0
6201,B1,313.5,0.125,110,118.0
6202,G#2,313.5,0.25,81,118.0
6203,B1,313.5,0.125,110,118.0
6204,G#2,313.5,0.25,116,118.0
6205,G#3,313.5,21/20,126,118.0
6206,B1,313.75,283/1000,110,118.0
6207,F#2,313.75,0.25,96,118.0
6208,B1,313.75,283/1000,110,118.0
6209,E-3,313.75,0.25,92,118.0
6210,G#3,313.75,0.25,92,118.0
6211,B3,313.75,0.25,92,118.0
6212,E-2,314.0,0.25,127,118.0
6213,C2,314.0,0.5,120,118.0
6214,B-2,314.0,0.25,109,118.0
6215,E-2,314.0,0.25,127,118.0
6216,G#3,314.25,0.25,103,118.0
6217,E-3,314.25,0.25,103,118.0
6218,B3,314.25,0.25,103,118.0
6219,E-2,314.5,133/1000,110,118.0
6220,G#2,314.5,0.25,92,118.0
6221,E-2,314.5,133/1000,110,118.0
6222,G#2,314.5,0.25,116,118.0
6223,F#3,314.5,1.125,126,118.0
6224,F#4,314.5,421/500,127,118.0
6225,F#3,314.583,379/500,120,118.0
6226,F#3,314.583,379/500,120,118.0
6227,E-2,314.75,267/1000,110,118.0
6228,F#2,314.75,0.25,86,118.0
6229,E-2,314.75,267/1000,110,118.0
6230,E-2,314.75,0.25,95,118.0
6231,B1,315.0,233/1000,127,118.0
6232,E2,315.0,0.5,120,118.0
6233,B-2,315.0,0.25,109,118.0
6234,B1,315.0,233/1000,127,118.0
6235,G#1,315.0,0.75,116,118.0
6236,B-3,315.0,0.5,111,118.0
6237,G#3,315.0,0.5,111,118.0
6238,E-3,315.0,0.5,111,118.0
6239,B3,315.375,0.625,120,118.0
6240,B3,315.375,0.625,120,118.0
6241,B1,315.5,0.125,110,118.0
6242,B1,315.5,0.125,110,118.0
6243,G#2,315.5,0.5,127,118.0
6244,B3,315.5,0.25,82,118.0
6245,G#3,315.5,0.5,118,118.0
6246,C#3,315.5,0.5,118,118.0
6247,F4,315.5,0.5,127,118.0
6248,C2,315.5,0.25,76,118.0
6249,G#2,315.5,0.25,76,118.0
6250,B1,315.75,0.25,110,118.0
6251,F#2,315.75,0.25,104,118.0
6252,B1,315.75,0.25,110,118.0
6253,E-2,315.75,0.25,109,118.0
6254,G#2,315.75,0.25,86,118.0
6255,E-3,315.75,0.25,86,118.0
6256,G#3,315.75,0.25,86,118.0
6257,C#2,316.0,367/1000,127,118.0
6258,B1,316.0,29/500,110,118.0
6259,C2,316.0,0.5,113,118.0
6260,C#2,316.0,367/1000,127,118.0
6261,B1,316.0,29/500,110,118.0
6262,C#2,316.0,0.5,120,118.0
6263,G#3,316.0,524/125,118,118.0
6264,C#3,316.0,623/250,118,118.0
6265,F4,316.0,47/20,127,118.0
6266,B-2,316.0,0.25,120,118.0
6267,A3,316.0,0.25,120,118.0
6268,G#3,316.0,0.75,95,118.0
6269,C#4,316.0,0.75,95,118.0
6270,F3,316.0,0.75,95,118.0
6271,F4,316.0,47/20,120,118.0
6272,F4,316.0,47/20,120,118.0
6273,C#3,316.0,31/10,116,118.0
6274,G#3,316.0,31/10,116,118.0
6275,C#4,316.0,31/10,116,118.0
6276,C#3,316.0,31/10,116,118.0
6277,G#3,316.0,31/10,116,118.0
6278,C#4,316.0,31/10,116,118.0
6279,B3,316.0,283/1000,120,118.0
6280,B3,316.0,283/1000,120,118.0
6281,C#2,316.5,0.125,110,118.0
6282,G#2,316.5,0.25,92,118.0
6283,C#2,316.5,0.125,110,118.0
6284,C#3,316.5,0.25,120,118.0
6285,C#2,316.75,133/1000,110,118.0
6286,F#2,316.75,0.25,96,118.0
6287,C#2,316.75,133/1000,110,118.0
6288,G#2,316.75,0.25,89,118.0
6289,C#3,316.75,1.75,79,118.0
6290,C#4,316.75,1.5,94,118.0
6291,G#3,316.75,1.5,94,118.0
6292,C#2,317.0,13/40,127,118.0
6293,E2,317.0,0.75,110,118.0
6294,B-2,317.0,0.25,104,118.0
6295,C#2,317.0,13/40,127,118.0
6296,C#4,317.0,0.5,103,118.0
6297,G#3,317.0,0.5,103,118.0
6298,F3,317.0,0.5,103,118.0
6299,C#2,317.5,0.125,110,118.0
6300,G#2,317.5,0.25,92,118.0
6301,C#2,317.5,0.125,110,118.0
6302,C#3,317.5,0.25,109,118.0
6303,C#2,317.75,71/500,110,118.0
6304,F#2,317.75,0.25,104,118.0
6305,C#2,317.75,71/500,110,118.0
6306,C#4,317.75,0.25,89,118.0
6307,G#3,317.75,0.25,89,118.0
6308,F3,317.75,0.25,89,118.0
6309,C#2,318.0,267/1000,127,118.0
6310,C2,318.0,0.75,110,118.0
6311,B-2,318.0,0.25,109,118.0
6312,C#2,318.0,267/1000,127,118.0
6313,F3,318.25,0.25,98,118.0
6314,G#3,318.25,0.25,98,118.0
6315,C#4,318.25,0.25,98,118.0
6316,C#2,318.5,0.125,110,118.0
6317,G#2,318.5,0.25,104,118.0
6318,C#2,318.5,0.125,110,118.0
6319,C#3,318.5,0.25,104,118.0
6320,B2,318.5,127/250,110,118.0
6321,E-4,318.5,33/40,127,118.0
6322,F#4,318.5,33/40,120,118.0
6323,F#4,318.5,33/40,120,118.0
6324,E-4,318.5,521/500,127,118.0
6325,E-4,318.5,521/500,127,118.0
6326,C#2,318.75,0.125,110,118.0
6327,F#2,318.75,0.25,104,118.0
6328,C#2,318.75,0.125,110,118.0
6329,G#2,318.75,0.25,104,118.0
6330,C#2,319.0,233/1000,127,118.0
6331,C#2,319.0,233/1000,127,118.0
6332,C#2,319.0,0.25,124,118.0
6333,E-3,319.0,0.5,105,118.0
6334,E2,319.0,0.25,111,118.0
6335,B-2,319.0,0.25,111,118.0
6336,F#3,319.25,0.25,110,118.0
6337,E-3,319.25,0.25,110,118.0
6338,B3,319.25,0.25,110,118.0
6339,B2,319.25,0.5,91,118.0
6340,B3,319.25,0.5,91,118.0
6341,F#3,319.25,0.5,91,118.0
6342,C#2,319.5,0.25,110,118.0
6343,C#2,319.5,0.25,110,118.0
6344,C#3,319.5,0.25,124,118.0
6345,C#3,319.5,0.5,117,118.0
6346,C#4,319.5,0.5,127,118.0
6347,C2,319.5,0.25,97,118.0
6348,G#2,319.5,0.25,97,118.0
6349,G#4,319.5,0.5,120,118.0
6350,G#4,319.5,0.5,120,118.0
6351,F4,319.5,0.5,127,118.0
6352,F4,319.5,0.5,127,118.0
6353,B1,319.75,0.25,110,118.0
6354,F#2,319.75,0.25,96,118.0
6355,B1,319.75,0.25,110,118.0
6356,G#2,319.75,0.25,109,118.0
6357,C#2,320.0,283/1000,127,118.0
6358,B1,320.0,1/10,110,118.0
6359,C2,320.0,0.5,117,118.0
6360,B-2,320.0,0.25,109,118.0
6361,C#2,320.0,283/1000,127,118.0
6362,B1,320.0,1/10,110,118.0
6363,C#2,320.0,0.5,124,118.0
6364,C#4,320.0,271/500,127,118.0
6365,F3,320.0,0.75,105,118.0
6366,C#4,320.0,0.75,105,118.0
6367,G#3,320.0,0.75,105,118.0
6368,G#3,320.0,1579/500,110,118.0
6369,C#3,320.0,1579/500,110,118.0
6370,C#4,320.0,1579/500,110,118.0
6371,G#3,320.0,1579/500,110,118.0
6372,C#3,320.0,1579/500,110,118.0
6373,C#4,320.0,1579/500,110,118.0
6374,G#4,320.0,779/500,120,118.0
6375,G#4,320.0,779/500,120,118.0
6376,F4,320.0,16/5,127,118.0
6377,F4,320.0,16/5,127,118.0
6378,C#3,320.192,121/500,117,118.0
6379,C#4,320.25,0.5,93,118.0
6380,G#3,320.25,0.5,93,118.0
6381,C#3,320.25,0.5,93,118.0
6382,C#2,320.5,117/1000,110,118.0
6383,G#2,320.5,0.25,104,118.0
6384,C#2,320.5,117/1000,110,118.0
6385,C#3,320.5,0.25,120,118.0
6386,E-3,320.5,0.25,64,118.0
6387,C#2,320.75,79/500,110,118.0
6388,F#2,320.75,0.25,92,118.0
6389,C#2,320.75,79/500,110,118.0
6390,G#2,320.75,0.25,120,118.0
6391,C#4,320.75,2.5,93,118.0
6392,G#3,320.75,2.5,93,118.0
6393,C#3,320.75,2.5,93,118.0
6394,C#2,321.0,171/500,127,118.0
6395,E2,321.0,0.5,113,118.0
6396,B-2,321.0,0.25,104,118.0
6397,C#2,321.0,171/500,127,118.0
6398,F3,321.0,0.5,106,118.0
6399,G#3,321.0,0.5,106,118.0
6400,C#4,321.0,0.5,106,118.0
6401,C#2,321.5,0.125,110,118.0
6402,G#2,321.5,0.25,96,118.0
6403,C#2,321.5,0.125,110,118.0
6404,C#3,321.5,0.25,120,118.0
6405,C#2,321.75,0.125,110,118.0
6406,F#2,321.75,0.25,96,118.0
6407,C#2,321.75,0.125,110,118.0
6408,C#4,321.75,0.25,91,118.0
6409,G#3,321.75,0.25,91,118.0
6410,F3,321.75,0.25,91,118.0
6411,C#2,322.0,7/20,127,118.0
6412,C2,322.0,0.75,120,118.0
6413,B-2,322.0,0.25,109,118.0
6414,C#2,322.0,7/20,127,118.0
6415,E-2,322.25,7/20,110,118.0
6416,E-2,322.25,7/20,110,118.0
6417,F3,322.25,0.25,111,118.0
6418,C#4,322.25,0.25,111,118.0
6419,G#3,322.25,0.25,111,118.0
6420,C#2,322.5,0.125,110,118.0
6421,G#2,322.5,0.25,96,118.0
6422,C#2,322.5,0.125,110,118.0
6423,C#3,322.5,0.25,116,118.0
6424,G#2,322.75,133/1000,110,118.0
6425,F#2,322.75,0.25,100,118.0
6426,G#2,322.75,133/1000,110,118.0
6427,G#2,322.75,0.25,109,118.0
6428,C#3,323.0,0.375,127,118.0
6429,E2,323.0,0.5,113,118.0
6430,C#3,323.0,0.375,127,118.0
6431,F3,323.0,0.75,93,118.0
6432,B-2,323.0,0.25,115,118.0
6433,B2,323.0,0.25,115,118.0
6434,G2,323.0,0.25,115,118.0
6435,C#2,323.0,0.5,109,118.0
6436,C#4,323.0,0.5,109,118.0
6437,G#3,323.0,0.5,109,118.0
6438,E-3,323.25,0.125,110,118.0
6439,E-3,323.25,0.125,110,118.0
6440,C#3,323.5,0.125,110,118.0
6441,C#3,323.5,0.125,110,118.0
6442,C#3,323.5,0.25,112,118.0
6443,C2,323.5,0.25,83,118.0
6444,G#2,323.5,0.25,83,118.0
6445,B2,323.5,0.25,83,118.0
6446,C#2,323.75,133/1000,110,118.0
6447,C#2,323.75,133/1000,110,118.0
6448,F#2,323.75,0.25,62,118.0
6449,G2,323.75,0.25,62,118.0
6450,B-1,324.0,267/1000,127,118.0
6451,B-2,324.0,0.25,71,118.0
6452,B-1,324.0,267/1000,127,118.0
6453,C#5,324.0,129/500,127,118.0
6454,C2,324.0,529/500,127,118.0
6455,G#2,324.0,529/500,127,118.0
6456,C#3,324.0,529/500,127,118.0
6457,C#3,324.0,529/500,127,118.0
6458,B-5,324.0,3933/1000,127,118.0
6459,B-3,324.0,3933/1000,127,118.0
6460,C5,324.25,73/250,127,118.0
6461,B-1,324.5,27/250,110,118.0
6462,G#2,324.5,529/500,127,118.0
6463,B-1,324.5,27/250,110,118.0
6464,C#5,324.5,27/250,127,118.0
6465,B-1,324.75,0.125,110,118.0
6466,B-1,324.75,0.125,110,118.0
6467,B-1,325.0,283/1000,127,118.0
6468,B-1,325.0,283/1000,127,118.0
6469,C#5,325.0,3/10,127,118.0
6470,G#4,325.0,833/1000,127,118.0
6471,D2,325.0,529/500,127,118.0
6472,G#2,325.0,529/500,127,118.0
6473,C5,325.25,11/40,127,118.0
6474,B-1,325.5,27/250,110,118.0
6475,G#2,325.5,529/500,127,118.0
6476,B-1,325.5,27/250,110,118.0
6477,C#5,325.5,1/10,127,118.0
6478,B-1,325.75,117/1000,110,118.0
6479,B-1,325.75,117/1000,110,118.0
6480,B-1,326.0,121/500,127,118.0
6481,B-1,326.0,121/500,127,118.0
6482,C#5,326.0,283/1000,127,118.0
6483,G#4,326.0,0.75,127,118.0
6484,C2,326.0,529/500,127,118.0
6485,G#2,326.0,529/500,127,118.0
6486,C5,326.25,11/40,127,118.0
6487,B-1,326.5,117/1000,110,118.0
6488,G#2,326.5,529/500,127,118.0
6489,B-1,326.5,117/1000,110,118.0
6490,C#5,326.5,283/1000,127,118.0
6491,B-1,326.75,27/250,110,118.0
6492,B-1,326.75,27/250,110,118.0
6493,C5,326.75,129/500,127,118.0
6494,B-1,327.0,217/1000,127,118.0
6495,B-1,327.0,217/1000,127,118.0
6496,C#5,327.0,27/250,127,118.0
6497,G#4,327.0,0.75,127,118.0
6498,D2,327.0,1.0,127,118.0
6499,G#2,327.0,1.0,127,118.0
6500,B-1,327.5,27/250,110,118.0
6501,G#2,327.5,0.5,127,118.0
6502,B-1,327.5,27/250,110,118.0
6503,B-1,327.75,233/1000,110,118.0
6504,B-1,327.75,233/1000,110,118.0
6505,C#5,327.75,0.25,127,118.0
6506,F1,328.0,267/1000,127,118.0
6507,G#2,328.0,279/500,127,118.0
6508,F1,328.0,267/1000,127,118.0
6509,G#5,328.0,267/1000,127,118.0
6510,C#5,328.0,17/1000,127,118.0
6511,G#4,328.0,667/1000,127,118.0
6512,C2,328.0,529/500,127,118.0
6513,G#2,328.0,529/500,127,118.0
6514,D2,328.0,29/500,127,118.0
6515,G#2,328.0,29/500,127,118.0
6516,F5,328.0,3867/1000,127,118.0
6517,F3,328.0,3867/1000,127,118.0
6518,G5,328.25,283/1000,127,118.0
6519,F1,328.5,27/250,110,118.0
6520,G#2,328.5,529/500,127,118.0
6521,F1,328.5,27/250,110,118.0
6522,F5,328.5,283/1000,127,118.0
6523,E-4,328.5,583/1000,127,118.0
6524,F1,328.75,117/1000,110,118.0
6525,F1,328.75,117/1000,110,118.0
6526,E-5,328.75,283/1000,127,118.0
6527,F1,329.0,121/500,127,118.0
6528,F1,329.0,121/500,127,118.0
6529,C#5,329.0,267/1000,127,118.0
6530,D2,329.0,529/500,127,118.0
6531,G#2,329.0,529/500,127,118.0
6532,C5,329.25,129/500,127,118.0
6533,F1,329.5,1/5,110,118.0
6534,G#2,329.5,529/500,127,118.0
6535,F1,329.5,1/5,110,118.0
6536,B-4,329.5,13/40,127,118.0
6537,E-4,329.5,329/500,127,118.0
6538,E-1,329.75,283/1000,110,118.0
6539,E-1,329.75,283/1000,110,118.0
6540,G#4,329.75,283/1000,127,118.0
6541,F1,330.0,267/1000,127,118.0
6542,F1,330.0,267/1000,127,118.0
6543,B-4,330.0,73/250,127,118.0
6544,C2,330.0,529/500,127,118.0
6545,G#2,330.0,529/500,127,118.0
6546,E-3,330.192,967/1000,127,118.0
6547,C5,330.25,283/1000,127,118.0
6548,F1,330.5,1/10,110,118.0
6549,G#2,330.5,529/500,127,118.0
6550,F1,330.5,1/10,110,118.0
6551,G#4,330.5,267/1000,127,118.0
6552,F1,330.75,27/250,110,118.0
6553,F1,330.75,27/250,110,118.0
6554,C5,330.75,283/1000,127,118.0
6555,F1,331.0,317/1000,127,118.0
6556,F1,331.0,317/1000,127,118.0
6557,E-5,331.0,71/500,127,118.0
6558,D2,331.0,1.0,127,118.0
6559,G#2,331.0,1.0,127,118.0
6560,G#3,331.192,23/40,120,118.0
6561,E-1,331.5,11/40,110,118.0
6562,G#2,331.5,0.5,127,118.0
6563,E-1,331.5,11/40,110,118.0
6564,B-3,331.692,0.5,118,118.0
6565,F1,331.75,0.25,110,118.0
6566,F1,331.75,0.25,110,118.0
6567,F#1,332.0,73/250,127,118.0
6568,F1,332.0,1/40,110,118.0
6569,G#2,332.0,279/500,127,118.0
6570,F#1,332.0,73/250,127,118.0
6571,F1,332.0,1/40,110,118.0
6572,F#4,332.0,11/40,127,118.0
6573,C2,332.0,529/500,127,118.0
6574,G#2,332.0,529/500,127,118.0
6575,D2,332.0,29/500,127,118.0
6576,G#2,332.0,29/500,127,118.0
6577,F#5,332.0,474/125,127,118.0
6578,F#3,332.0,474/125,127,118.0
6579,B-3,332.192,43/40,118,118.0
6580,B-4,332.25,283/1000,127,118.0
6581,F#1,332.5,27/250,110,118.0
6582,G#2,332.5,529/500,127,118.0
6583,F#1,332.5,27/250,110,118.0
6584,C#5,332.5,77/250,127,118.0
6585,F#1,332.75,0.125,110,118.0
6586,F#1,332.75,0.125,110,118.0
6587,F#4,332.75,283/1000,127,118.0
6588,F#1,333.0,77/250,127,118.0
6589,F#1,333.0,77/250,127,118.0
6590,G#4,333.0,129/500,127,118.0
6591,G#4,333.0,833/1000,127,118.0
6592,D2,333.0,529/500,127,118.0
6593,G#2,333.0,529/500,127,118.0
6594,B-4,333.25,317/1000,127,118.0
6595,F#1,333.5,0.125,110,118.0
6596,G#2,333.5,529/500,127,118.0
6597,F#1,333.5,0.125,110,118.0
6598,C#5,333.5,129/500,127,118.0
6599,F#1,333.75,71/500,110,118.0
6600,F#1,333.75,71/500,110,118.0
6601,F#5,333.75,283/1000,127,118.0
6602,F#1,334.0,283/1000,127,118.0
6603,F#1,334.0,283/1000,127,118.0
6604,B-5,334.0,24/125,127,118.0
6605,G#4,334.0,0.75,127,118.0
6606,C2,334.0,529/500,127,118.0
6607,G#2,334.0,529/500,127,118.0
6608,F#1,334.5,117/1000,110,118.0
6609,G#2,334.5,529/500,127,118.0
6610,F#1,334.5,117/1000,110,118.0
6611,F#1,334.75,133/1000,110,118.0
6612,F#1,334.75,133/1000,110,118.0
6613,F#1,335.0,73/250,127,118.0
6614,F#1,335.0,73/250,127,118.0
6615,B-4,335.0,0.75,127,118.0
6616,D2,335.0,1.0,127,118.0
6617,G#2,335.0,1.0,127,118.0
6618,F#1,335.5,117/1000,110,118.0
6619,G#2,335.5,0.5,127,118.0
6620,F#1,335.5,117/1000,110,118.0
6621,F#1,335.75,0.25,110,118.0
6622,F#1,335.75,0.25,110,118.0
6623,G#1,336.0,333/1000,127,118.0
6624,F#1,336.0,67/1000,110,118.0
6625,G#2,336.0,279/500,127,118.0
6626,G#1,336.0,333/1000,127,118.0
6627,F#1,336.0,67/1000,110,118.0
6628,G#4,336.0,11/40,127,118.0
6629,G#4,336.0,667/1000,127,118.0
6630,C2,336.0,529/500,127,118.0
6631,G#2,336.0,529/500,127,118.0
6632,D2,336.0,29/500,127,118.0
6633,G#2,336.0,29/500,127,118.0
6634,G#5,336.0,476/125,127,118.0
6635,G#3,336.0,476/125,127,118.0
6636,C5,336.25,267/1000,127,118.0
6637,G#1,336.5,0.125,110,118.0
6638,G#2,336.5,529/500,127,118.0
6639,G#1,336.5,0.125,110,118.0
6640,E-5,336.5,3/10,127,118.0
6641,F#4,336.5,229/500,127,118.0
6642,G#1,336.75,0.125,110,118.0
6643,G#1,336.75,0.125,110,118.0
6644,G#4,336.75,73/250,127,118.0
6645,G#1,337.0,77/250,127,118.0
6646,G#1,337.0,77/250,127,118.0
6647,B-4,337.0,73/250,127,118.0
6648,F4,337.0,467/1000,127,118.0
6649,D2,337.0,529/500,127,118.0
6650,G#2,337.0,529/500,127,118.0
6651,C5,337.25,73/250,127,118.0
6652,G#1,337.5,71/500,110,118.0
6653,G#2,337.5,529/500,127,118.0
6654,G#1,337.5,71/500,110,118.0
6655,E-5,337.5,3/10,127,118.0
6656,E-4,337.5,149/125,127,118.0
6657,G#1,337.75,0.125,110,118.0
6658,G#1,337.75,0.125,110,118.0
6659,G#5,337.75,129/500,127,118.0
6660,G#1,338.0,233/1000,127,118.0
6661,G#1,338.0,233/1000,127,118.0
6662,C6,338.0,217/1000,127,118.0
6663,C2,338.0,529/500,127,118.0
6664,G#2,338.0,529/500,127,118.0
6665,G#3,338.192,521/500,127,118.0
6666,G#1,338.5,0.125,110,118.0
6667,G#2,338.5,529/500,127,118.0
6668,G#1,338.5,0.125,110,118.0
6669,G#1,338.75,133/1000,110,118.0
6670,G#1,338.75,133/1000,110,118.0
6671,G#1,339.0,121/500,127,118.0
6672,G#1,339.0,121/500,127,118.0
6673,D2,339.0,1.0,127,118.0
6674,G#2,339.0,1.0,127,118.0
6675,C#4,339.192,533/1000,118,118.0
6676,G#1,339.5,1/10,110,118.0
6677,G#2,339.5,0.5,127,118.0
6678,G#1,339.5,1/10,110,118.0
6679,E-4,339.692,0.5,118,118.0
6680,G#1,339.75,0.25,110,118.0
6681,G#1,339.75,0.25,110,118.0
6682,B1,340.0,179/500,127,118.0
6683,G#1,340.0,1/40,110,118.0
6684,G#2,340.0,279/500,127,118.0
6685,B1,340.0,179/500,127,118.0
6686,G#1,340.0,1/40,110,118.0
6687,F#5,340.0,11/40,127,118.0
6688,C2,340.0,529/500,127,118.0
6689,G#2,340.0,529/500,127,118.0
6690,D2,340.0,29/500,127,118.0
6691,G#2,340.0,29/500,127,118.0
6692,B5,340.0,3.875,127,118.0
6693,B3,340.0,3.875,127,118.0
6694,E-4,340.192,49/125,118,118.0
6695,F5,340.25,283/1000,127,118.0
6696,B1,340.5,27/250,110,118.0
6697,G#2,340.5,529/500,127,118.0
6698,B1,340.5,27/250,110,118.0
6699,E-5,340.5,79/500,127,118.0
6700,B1,340.75,27/250,110,118.0
6701,B1,340.75,27/250,110,118.0
6702,B1,341.0,129/500,127,118.0
6703,B1,341.0,129/500,127,118.0
6704,E-5,341.0,267/1000,127,118.0
6705,F#4,341.0,833/1000,127,118.0
6706,D2,341.0,529/500,127,118.0
6707,G#2,341.0,529/500,127,118.0
6708,C#5,341.25,11/40,127,118.0
6709,B1,341.5,27/250,110,118.0
6710,G#2,341.5,529/500,127,118.0
6711,B1,341.5,27/250,110,118.0
6712,B4,341.5,167/1000,127,118.0
6713,B1,341.75,117/1000,110,118.0
6714,B1,341.75,117/1000,110,118.0
6715,B1,342.0,179/500,127,118.0
6716,B1,342.0,179/500,127,118.0
6717,B4,342.0,129/500,127,118.0
6718,F#4,342.0,126/125,127,118.0
6719,C2,342.0,529/500,127,118.0
6720,G#2,342.0,529/500,127,118.0
6721,B-4,342.25,0.25,127,118.0
6722,B1,342.5,71/500,110,118.0
6723,G#2,342.5,529/500,127,118.0
6724,B1,342.5,71/500,110,118.0
6725,G#4,342.5,3/20,127,118.0
6726,B1,342.75,117/1000,110,118.0
6727,B1,342.75,117/1000,110,118.0
6728,B1,343.0,383/1000,127,118.0
6729,B1,343.0,383/1000,127,118.0
6730,G#4,343.0,883/1000,127,118.0
6731,D2,343.0,1.0,127,118.0
6732,G#2,343.0,1.0,127,118.0
6733,B1,343.5,117/1000,110,118.0
6734,G#2,343.5,0.5,127,118.0
6735,B1,343.5,117/1000,110,118.0
6736,B4,343.5,129/500,127,118.0
6737,F4,343.5,0.5,127,118.0
6738,B1,343.75,0.25,110,118.0
6739,B1,343.75,0.25,110,118.0
6740,E-5,343.75,24/125,127,118.0
6741,B-1,344.0,0.375,127,118.0
6742,B1,344.0,33/1000,110,118.0
6743,G#2,344.0,279/500,127,118.0
6744,B-1,344.0,0.375,127,118.0
6745,B1,344.0,33/1000,110,118.0
6746,F5,344.0,267/1000,127,118.0
6747,F4,344.0,667/1000,127,118.0
6748,C2,344.0,529/500,127,118.0
6749,G#2,344.0,529/500,127,118.0
6750,D2,344.0,29/500,127,118.0
6751,G#2,344.0,29/500,127,118.0
6752,B-5,344.0,39/10,127,118.0
6753,B-3,344.0,39/10,127,118.0
6754,C#4,344.192,929/500,118,118.0
6755,E-5,344.25,121/500,127,118.0
6756,B-1,344.5,117/1000,110,118.0
6757,G#2,344.5,529/500,127,118.0
6758,B-1,344.5,117/1000,110,118.0
6759,C#5,344.5,1/10,127,118.0
6760,B-1,344.75,27/250,110,118.0
6761,B-1,344.75,27/250,110,118.0
6762,B-1,345.0,73/250,127,118.0
6763,B-1,345.0,73/250,127,118.0
6764,C#5,345.0,283/1000,127,118.0
6765,E-4,345.0,1.0,127,118.0
6766,D2,345.0,529/500,127,118.0
6767,G#2,345.0,529/500,127,118.0
6768,C5,345.25,267/1000,127,118.0
6769,B-1,345.5,0.125,110,118.0
6770,G#2,345.5,529/500,127,118.0
6771,B-1,345.5,0.125,110,118.0
6772,B-4,345.5,117/1000,127,118.0
6773,B-1,345.75,71/500,110,118.0
6774,B-1,345.75,71/500,110,118.0
6775,B-1,346.0,7/20,127,118.0
6776,B-1,346.0,7/20,127,118.0
6777,B-4,346.0,11/40,127,118.0
6778,C#4,346.0,833/1000,127,118.0
6779,C2,346.0,529/500,127,118.0
6780,G#2,346.0,529/500,127,118.0
6781,G#3,346.192,19/10,118,118.0
6782,G#4,346.25,121/500,127,118.0
6783,B-1,346.5,27/250,110,118.0
6784,G#2,346.5,529/500,127,118.0
6785,B-1,346.5,27/250,110,118.0
6786,F4,346.5,117/1000,127,118.0
6787,B-1,346.75,3/20,110,118.0
6788,B-1,346.75,3/20,110,118.0
6789,B-1,347.0,73/250,127,118.0
6790,B-1,347.0,73/250,127,118.0
6791,F4,347.0,1.0,127,118.0
6792,D2,347.0,1.0,127,118.0
6793,G#2,347.0,1.0,127,118.0
6794,B-1,347.5,117/1000,110,118.0
6795,G#2,347.5,0.5,127,118.0
6796,B-1,347.5,117/1000,110,118.0
6797,E-4,347.5,0.5,127,118.0
6798,B-1,347.75,26/125,110,118.0
6799,B-1,347.75,26/125,110,118.0
6800,E-1,348.0,49/125,127,118.0
6801,G#2,348.0,279/500,127,118.0
6802,E-1,348.0,49/125,127,118.0
6803,E-5,348.0,0.25,127,118.0
6804,F4,348.0,83/1000,127,118.0
6805,E-4,348.0,517/1000,127,118.0
6806,C2,348.0,529/500,127,118.0
6807,G#2,348.0,529/500,127,118.0
6808,D2,348.0,29/500,127,118.0
6809,G#2,348.0,29/500,127,118.0
6810,E-6,348.0,4.0,127,118.0
6811,E-4,348.0,4.0,127,118.0
6812,G3,348.192,1017/1000,118,118.0
6813,C#5,348.25,121/500,127,118.0
6814,E-1,348.5,117/1000,110,118.0
6815,G#2,348.5,529/500,127,118.0
6816,E-1,348.5,117/1000,110,118.0
6817,C5,348.5,3/10,127,118.0
6818,C#4,348.5,0.5,127,118.0
6819,E-1,348.75,133/1000,110,118.0
6820,E-1,348.75,133/1000,110,118.0
6821,B-4,348.75,267/1000,127,118.0
6822,E-1,349.0,77/250,127,118.0
6823,E-1,349.0,77/250,127,118.0
6824,G#4,349.0,317/1000,127,118.0
6825,B-3,349.0,1417/1000,127,118.0
6826,D2,349.0,529/500,127,118.0
6827,G#2,349.0,529/500,127,118.0
6828,G#3,349.192,127/250,113,118.0
6829,G4,349.25,77/250,127,118.0
6830,E-1,349.5,117/1000,110,118.0
6831,G#2,349.5,529/500,127,118.0
6832,E-1,349.5,117/1000,110,118.0
6833,F4,349.5,11/40,127,118.0
6834,B-3,349.692,2.5,115,118.0
6835,E-1,349.75,133/1000,110,118.0
6836,E-1,349.75,133/1000,110,118.0
6837,E-4,349.75,183/1000,127,118.0
6838,E-1,350.0,317/1000,127,118.0
6839,E-1,350.0,317/1000,127,118.0
6840,C2,350.0,529/500,127,118.0
6841,G#2,350.0,529/500,127,118.0
6842,E-1,350.5,117/1000,110,118.0
6843,G#2,350.5,529/500,127,118.0
6844,E-1,350.5,117/1000,110,118.0
6845,E-1,350.75,0.125,110,118.0
6846,E-1,350.75,0.125,110,118.0
6847,E-1,351.0,129/500,127,118.0
6848,E-1,351.0,129/500,127,118.0
6849,D2,351.0,1.0,127,118.0
6850,G#2,351.0,1.0,127,118.0
6851,E-1,351.5,26/125,110,118.0
6852,G#2,351.5,0.5,127,118.0
6853,E-1,351.5,26/125,110,118.0
6854,C#1,351.75,0.25,110,118.0
6855,C#1,351.75,0.25,110,118.0
6856,E-1,352.0,283/1000,127,118.0
6857,C#1,352.0,1/40,110,118.0
6858,G#2,352.0,279/500,127,118.0
6859,E-1,352.0,283/1000,127,118.0
6860,C#1,352.0,1/40,110,118.0
6861,G5,352.0,0.25,127,118.0
6862,C2,352.0,529/500,127,118.0
6863,G#2,352.0,529/500,127,118.0
6864,D2,352.0,29/500,127,118.0
6865,G#2,352.0,29/500,127,118.0
6866,B-3,352.192,71/500,115,118.0
6867,F5,352.25,283/1000,127,118.0
6868,E-1,352.5,0.125,110,118.0
6869,G#2,352.5,529/500,127,118.0
6870,E-1,352.5,0.125,110,118.0
6871,E-5,352.5,13/40,127,118.0
6872,E-1,352.75,0.125,110,118.0
6873,E-1,352.75,0.125,110,118.0
6874,B-4,352.75,267/1000,127,118.0
6875,E-1,353.0,267/1000,127,118.0
6876,E-1,353.0,267/1000,127,118.0
6877,G5,353.0,283/1000,127,118.0
6878,D2,353.0,529/500,127,118.0
6879,G#2,353.0,529/500,127,118.0
6880,E-6,353.192,149/125,127,118.0
6881,E-4,353.192,149/125,127,118.0
6882,E-5,353.25,3/10,127,118.0
6883,E-1,353.5,0.125,110,118.0
6884,G#2,353.5,529/500,127,118.0
6885,E-1,353.5,0.125,110,118.0
6886,B-4,353.5,73/250,127,118.0
6887,E-1,353.75,0.125,110,118.0
6888,E-1,353.75,0.125,110,118.0
6889,G4,353.75,217/1000,127,118.0
6890,E-1,354.0,0.25,127,118.0
6891,E-1,354.0,0.25,127,118.0
6892,E-4,354.0,367/1000,127,118.0
6893,C2,354.0,529/500,127,118.0
6894,G#2,354.0,529/500,127,118.0
6895,G#3,354.192,583/1000,120,118.0
6896,E-1,354.5,27/250,110,118.0
6897,G#2,354.5,529/500,127,118.0
6898,E-1,354.5,27/250,110,118.0
6899,B-3,354.692,279/500,110,118.0
6900,E-1,354.75,0.125,110,118.0
6901,E-1,354.75,0.125,110,118.0
6902,E-1,355.0,0.25,127,118.0
6903,A2,355.0,417/1000,127,118.0
6904,E-1,355.0,0.25,127,118.0
6905,D2,355.0,1.0,127,118.0
6906,G#2,355.0,1.0,127,118.0
6907,G#3,355.192,517/1000,118,118.0
6908,G2,355.25,417/1000,127,118.0
6909,E-1,355.5,117/1000,110,118.0
6910,G#2,355.5,0.5,127,118.0
6911,F2,355.5,417/1000,127,118.0
6912,E-1,355.5,117/1000,110,118.0
6913,E-3,355.692,0.5,127,118.0
6914,E-1,355.75,233/1000,110,118.0
6915,F2,355.75,0.25,127,118.0
6916,E-1,355.75,233/1000,110,118.0
6917,B-1,356.0,333/1000,127,118.0
6918,F2,356.0,167/1000,127,118.0
6919,G#2,356.0,279/500,127,118.0
6920,B-1,356.0,333/1000,127,118.0
6921,C#5,356.0,129/500,127,118.0
6922,C2,356.0,529/500,127,118.0
6923,G#2,356.0,529/500,127,118.0
6924,C#3,356.0,529/500,127,118.0
6925,C#3,356.0,529/500,127,118.0
6926,D2,356.0,29/500,127,118.0
6927,G#2,356.0,29/500,127,118.0
6928,C#3,356.192,63/40,126,118.0
6929,E-3,356.192,33/1000,127,118.0
6930,C5,356.25,73/250,127,118.0
6931,B-1,356.5,0.125,110,118.0
6932,G#2,356.5,529/500,127,118.0
6933,B-1,356.5,0.125,110,118.0
6934,C#5,356.5,27/250,127,118.0
6935,B-1,356.75,117/1000,110,118.0
6936,B-1,356.75,117/1000,110,118.0
6937,B-1,357.0,283/1000,127,118.0
6938,B-1,357.0,283/1000,127,118.0
6939,C#5,357.0,3/10,127,118.0
6940,G#4,357.0,0.75,127,118.0
6941,D2,357.0,529/500,127,118.0
6942,G#2,357.0,529/500,127,118.0
6943,B-5,357.192,151/40,127,118.0
6944,B-3,357.192,151/40,127,118.0
6945,C5,357.25,11/40,127,118.0
6946,B-1,357.5,0.125,110,118.0
6947,G#2,357.5,529/500,127,118.0
6948,B-1,357.5,0.125,110,118.0
6949,C#5,357.5,1/10,127,118.0
6950,B-1,357.75,0.125,110,118.0
6951,B-1,357.75,0.125,110,118.0
6952,B-1,358.0,121/500,127,118.0
6953,B-1,358.0,121/500,127,118.0
6954,C#5,358.0,283/1000,127,118.0
6955,G#4,358.0,417/1000,127,118.0
6956,C2,358.0,529/500,127,118.0
6957,G#2,358.0,529/500,127,118.0
6958,C5,358.25,11/40,127,118.0
6959,B-1,358.5,117/1000,110,118.0
6960,G#2,358.5,529/500,127,118.0
6961,B-1,358.5,117/1000,110,118.0
6962,C#5,358.5,283/1000,127,118.0
6963,G#4,358.5,329/500,127,118.0
6964,B-1,358.75,0.125,110,118.0
6965,B-1,358.75,0.125,110,118.0
6966,C5,358.75,129/500,127,118.0
6967,B-1,359.0,0.25,127,118.0
6968,B-1,359.0,0.25,127,118.0
6969,C#5,359.0,27/250,127,118.0
6970,D2,359.0,1.0,127,118.0
6971,G#2,359.0,1.0,127,118.0
6972,B-1,359.5,1/10,110,118.0
6973,G#2,359.5,0.5,127,118.0
6974,B-1,359.5,1/10,110,118.0
6975,G#4,359.5,0.5,127,118.0
6976,B-1,359.75,0.25,110,118.0
6977,B-1,359.75,0.25,110,118.0
6978,C#5,359.75,0.25,127,118.0
6979,F1,360.0,333/1000,127,118.0
6980,G#2,360.0,279/500,127,118.0
6981,F1,360.0,333/1000,127,118.0
6982,G#5,360.0,267/1000,127,118.0
6983,C#5,360.0,17/1000,127,118.0
6984,G#4,360.0,417/1000,127,118.0
6985,C2,360.0,529/500,127,118.0
6986,G#2,360.0,529/500,127,118.0
6987,D2,360.0,29/500,127,118.0
6988,G#2,360.0,29/500,127,118.0
6989,G5,360.25,283/1000,127,118.0
6990,F1,360.5,0.25,110,118.0
6991,G#2,360.5,529/500,127,118.0
6992,F1,360.5,0.25,110,118.0
6993,F5,360.5,283/1000,127,118.0
6994,E-4,360.5,917/1000,127,118.0
6995,E-1,360.75,121/500,110,118.0
6996,E-1,360.75,121/500,110,118.0
6997,E-5,360.75,283/1000,127,118.0
6998,F1,361.0,267/1000,127,118.0
6999,F1,361.0,267/1000,127,118.0
7000,C#5,361.0,267/1000,127,118.0
7001,D2,361.0,529/500,127,118.0
7002,G#2,361.0,529/500,127,118.0
7003,F5,361.192,153/40,127,118.0
7004,F3,361.192,153/40,127,118.0
7005,C5,361.25,129/500,127,118.0
7006,F1,361.5,117/1000,110,118.0
7007,G#2,361.5,529/500,127,118.0
7008,F1,361.5,117/1000,110,118.0
7009,B-4,361.5,13/40,127,118.0
7010,E-4,361.5,11/10,127,118.0
7011,F1,361.75,117/1000,110,118.0
7012,F1,361.75,117/1000,110,118.0
7013,G#4,361.75,283/1000,127,118.0
7014,F1,362.0,121/500,127,118.0
7015,F1,362.0,121/500,127,118.0
7016,B-4,362.0,73/250,127,118.0
7017,C2,362.0,529/500,127,118.0
7018,G#2,362.0,529/500,127,118.0
7019,E-3,362.192,471/500,127,118.0
7020,C5,362.25,283/1000,127,118.0
7021,F1,362.5,3/10,110,118.0
7022,G#2,362.5,529/500,127,118.0
7023,F1,362.5,3/10,110,118.0
7024,G#4,362.5,267/1000,127,118.0
7025,E-1,362.75,283/1000,110,118.0
7026,E-1,362.75,283/1000,110,118.0
7027,C5,362.75,283/1000,127,118.0
7028,F1,363.0,417/1000,127,118.0
7029,F1,363.0,417/1000,127,118.0
7030,E-5,363.0,71/500,127,118.0
7031,D2,363.0,1.0,127,118.0
7032,G#2,363.0,1.0,127,118.0
7033,G#3,363.192,567/1000,123,118.0
7034,E-1,363.5,129/500,110,118.0
7035,E-1,363.5,129/500,110,118.0
7036,G#2,363.5,0.5,127,118.0
7037,B-2,363.5,0.5,127,118.0
7038,B-3,363.692,0.5,117,118.0
7039,F1,363.75,0.25,110,118.0
7040,F1,363.75,0.25,110,118.0
7041,F#1,364.0,317/1000,127,118.0
7042,F1,364.0,17/1000,110,118.0
7043,F#1,364.0,317/1000,127,118.0
7044,F1,364.0,17/1000,110,118.0
7045,F#4,364.0,11/40,127,118.0
7046,C2,364.0,529/500,127,118.0
7047,G#2,364.0,529/500,127,118.0
7048,D2,364.0,29/500,127,118.0
7049,G#2,364.0,29/500,127,118.0
7050,G#2,364.0,279/500,127,118.0
7051,B-2,364.0,279/500,127,118.0
7052,B-3,364.192,176/125,117,118.0
7053,B-4,364.25,283/1000,127,118.0
7054,F#1,364.5,27/250,110,118.0
7055,G#2,364.5,529/500,127,118.0
7056,F#1,364.5,27/250,110,118.0
7057,C#5,364.5,77/250,127,118.0
7058,F#1,364.75,0.125,110,118.0
7059,F#1,364.75,0.125,110,118.0
7060,F#4,364.75,283/1000,127,118.0
7061,F#1,365.0,3/10,127,118.0
7062,F#1,365.0,3/10,127,118.0
7063,G#4,365.0,129/500,127,118.0
7064,G#4,365.0,7/10,127,118.0
7065,D2,365.0,529/500,127,118.0
7066,G#2,365.0,529/500,127,118.0
7067,F#5,365.192,1921/500,127,118.0
7068,F#3,365.192,1921/500,127,118.0
7069,B-4,365.25,317/1000,127,118.0
7070,F#1,365.5,117/1000,110,118.0
7071,G#2,365.5,529/500,127,118.0
7072,F#1,365.5,117/1000,110,118.0
7073,C#5,365.5,129/500,127,118.0
7074,F#1,365.75,27/250,110,118.0
7075,F#1,365.75,27/250,110,118.0
7076,F#5,365.75,283/1000,127,118.0
7077,F#1,366.0,77/250,127,118.0
7078,F#1,366.0,77/250,127,118.0
7079,B-5,366.0,24/125,127,118.0
7080,G#4,366.0,17/20,127,118.0
7081,C2,366.0,529/500,127,118.0
7082,G#2,366.0,529/500,127,118.0
7083,F#1,366.5,0.125,110,118.0
7084,G#2,366.5,529/500,127,118.0
7085,F#1,366.5,0.125,110,118.0
7086,F#1,366.75,71/500,110,118.0
7087,F#1,366.75,71/500,110,118.0
7088,F#1,367.0,233/1000,127,118.0
7089,F#1,367.0,233/1000,127,118.0
7090,B-4,367.0,1.0,127,118.0
7091,D2,367.0,1.0,127,118.0
7092,G#2,367.0,1.0,127,118.0
7093,F#1,367.5,0.125,110,118.0
7094,G#2,367.5,0.5,127,118.0
7095,F#1,367.5,0.125,110,118.0
7096,F#1,367.75,0.25,110,118.0
7097,F#1,367.75,0.25,110,118.0
7098,G#1,368.0,179/500,127,118.0
7099,F#1,368.0,21/500,110,118.0
7100,G#2,368.0,279/500,127,118.0
7101,G#1,368.0,179/500,127,118.0
7102,F#1,368.0,21/500,110,118.0
7103,G#4,368.0,11/40,127,118.0
7104,G#4,368.0,19/40,127,118.0
7105,B-4,368.0,1/40,127,118.0
7106,C2,368.0,529/500,127,118.0
7107,G#2,368.0,529/500,127,118.0
7108,D2,368.0,29/500,127,118.0
7109,G#2,368.0,29/500,127,118.0
7110,C5,368.25,267/1000,127,118.0
7111,G#1,368.5,117/1000,110,118.0
7112,G#2,368.5,529/500,127,118.0
7113,G#1,368.5,117/1000,110,118.0
7114,E-5,368.5,3/10,127,118.0
7115,F#4,368.5,321/500,127,118.0
7116,G#1,368.75,27/250,110,118.0
7117,G#1,368.75,27/250,110,118.0
7118,G#4,368.75,73/250,127,118.0
7119,G#1,369.0,3/10,127,118.0
7120,G#1,369.0,3/10,127,118.0
7121,B-4,369.0,73/250,127,118.0
7122,F4,369.0,0.5,127,118.0
7123,D2,369.0,529/500,127,118.0
7124,G#2,369.0,529/500,127,118.0
7125,G#5,369.192,3833/1000,127,118.0
7126,G#3,369.192,3833/1000,127,118.0
7127,C5,369.25,73/250,127,118.0
7128,G#1,369.5,27/250,110,118.0
7129,G#2,369.5,529/500,127,118.0
7130,G#1,369.5,27/250,110,118.0
7131,E-5,369.5,3/10,127,118.0
7132,E-4,369.5,377/250,127,118.0
7133,G#1,369.75,0.125,110,118.0
7134,G#1,369.75,0.125,110,118.0
7135,G#5,369.75,129/500,127,118.0
7136,G#1,370.0,267/1000,127,118.0
7137,G#1,370.0,267/1000,127,118.0
7138,C6,370.0,217/1000,127,118.0
7139,C2,370.0,529/500,127,118.0
7140,G#2,370.0,529/500,127,118.0
7141,G#3,370.192,1033/1000,123,118.0
7142,G#1,370.5,1/10,110,118.0
7143,G#2,370.5,529/500,127,118.0
7144,G#1,370.5,1/10,110,118.0
7145,G#1,370.75,117/1000,110,118.0
7146,G#1,370.75,117/1000,110,118.0
7147,G#1,371.0,233/1000,127,118.0
7148,G#1,371.0,233/1000,127,118.0
7149,D2,371.0,1.0,127,118.0
7150,G#2,371.0,1.0,127,118.0
7151,E-4,371.192,74/125,115,118.0
7152,G#1,371.5,27/250,110,118.0
7153,G#2,371.5,0.5,127,118.0
7154,G#1,371.5,27/250,110,118.0
7155,E4,371.692,0.5,118,118.0
7156,G#1,371.75,0.25,110,118.0
7157,G#1,371.75,0.25,110,118.0
7158,A1,372.0,367/1000,127,118.0
7159,G#1,372.0,21/500,110,118.0
7160,G#2,372.0,279/500,127,118.0
7161,A1,372.0,367/1000,127,118.0
7162,G#1,372.0,21/500,110,118.0
7163,E5,372.0,129/500,127,118.0
7164,C2,372.0,529/500,127,118.0
7165,G#2,372.0,529/500,127,118.0
7166,D2,372.0,29/500,127,118.0
7167,G#2,372.0,29/500,127,118.0
7168,E4,372.192,367/1000,118,118.0
7169,E-5,372.25,11/40,127,118.0
7170,A1,372.5,27/250,110,118.0
7171,G#2,372.5,529/500,127,118.0
7172,A1,372.5,27/250,110,118.0
7173,C#5,372.5,267/1000,127,118.0
7174,A1,372.75,117/1000,110,118.0
7175,A1,372.75,117/1000,110,118.0
7176,B4,372.75,77/250,127,118.0
7177,A1,373.0,129/500,127,118.0
7178,A1,373.0,129/500,127,118.0
7179,A4,373.0,73/250,127,118.0
7180,E4,373.0,0.75,127,118.0
7181,D2,373.0,529/500,127,118.0
7182,G#2,373.0,529/500,127,118.0
7183,A3,373.192,3833/1000,127,118.0
7184,A5,373.192,3833/1000,127,118.0
7185,G#4,373.25,283/1000,127,118.0
7186,A1,373.5,0.125,110,118.0
7187,G#2,373.5,529/500,127,118.0
7188,A1,373.5,0.125,110,118.0
7189,F#4,373.5,73/250,127,118.0
7190,A1,373.75,0.125,110,118.0
7191,A1,373.75,0.125,110,118.0
7192,E4,373.75,73/250,127,118.0
7193,A1,374.0,73/250,127,118.0
7194,A1,374.0,73/250,127,118.0
7195,A4,374.0,11/40,127,118.0
7196,E4,374.0,39/40,127,118.0
7197,C2,374.0,529/500,127,118.0
7198,G#2,374.0,529/500,127,118.0
7199,C#4,374.192,2.0,123,118.0
7200,G#4,374.25,267/1000,127,118.0
7201,A1,374.5,117/1000,110,118.0
7202,G#2,374.5,529/500,127,118.0
7203,A1,374.5,117/1000,110,118.0
7204,F#4,374.5,3/10,127,118.0
7205,A1,374.75,133/1000,110,118.0
7206,A1,374.75,133/1000,110,118.0
7207,E4,374.75,11/40,127,118.0
7208,A1,375.0,121/500,127,118.0
7209,A1,375.0,121/500,127,118.0
7210,F#4,375.0,283/1000,127,118.0
7211,G#4,375.0,51/125,127,118.0
7212,D2,375.0,1.0,127,118.0
7213,G#2,375.0,1.0,127,118.0
7214,G#4,375.25,283/1000,127,118.0
7215,A1,375.5,117/1000,110,118.0
7216,G#2,375.5,0.5,127,118.0
7217,A1,375.5,117/1000,110,118.0
7218,A4,375.5,73/250,127,118.0
7219,F#4,375.5,0.5,127,118.0
7220,A1,375.75,0.25,110,118.0
7221,A1,375.75,0.25,110,118.0
7222,C#5,375.75,26/125,127,118.0
7223,G#1,376.0,367/1000,127,118.0
7224,A1,376.0,33/1000,110,118.0
7225,G#2,376.0,279/500,127,118.0
7226,G#1,376.0,367/1000,127,118.0
7227,A1,376.0,33/1000,110,118.0
7228,E-5,376.0,0.25,127,118.0
7229,F#4,376.0,867/1000,127,118.0
7230,C2,376.0,529/500,127,118.0
7231,G#2,376.0,529/500,127,118.0
7232,D2,376.0,29/500,127,118.0
7233,G#2,376.0,29/500,127,118.0
7234,B3,376.192,1967/1000,120,118.0
7235,C#4,376.192,83/1000,123,118.0
7236,C#5,376.25,283/1000,127,118.0
7237,G#1,376.5,0.125,110,118.0
7238,G#2,376.5,529/500,127,118.0
7239,G#1,376.5,0.125,110,118.0
7240,B4,376.5,11/40,127,118.0
7241,G#1,376.75,117/1000,110,118.0
7242,G#1,376.75,117/1000,110,118.0
7243,B-4,376.75,77/250,127,118.0
7244,G#1,377.0,73/250,127,118.0
7245,G#1,377.0,73/250,127,118.0
7246,G#4,377.0,77/250,127,118.0
7247,E-4,377.0,983/1000,127,118.0
7248,D2,377.0,529/500,127,118.0
7249,G#2,377.0,529/500,127,118.0
7250,G#3,377.192,3833/1000,127,118.0
7251,G#5,377.192,3833/1000,127,118.0
7252,F#4,377.25,283/1000,127,118.0
7253,G#1,377.5,27/250,110,118.0
7254,G#2,377.5,529/500,127,118.0
7255,G#1,377.5,27/250,110,118.0
7256,E4,377.5,3/10,127,118.0
7257,G#1,377.75,117/1000,110,118.0
7258,G#1,377.75,117/1000,110,118.0
7259,E-4,377.75,11/40,127,118.0
7260,G#1,378.0,317/1000,127,118.0
7261,G#1,378.0,317/1000,127,118.0
7262,G#4,378.0,11/40,127,118.0
7263,B3,378.0,11/10,127,118.0
7264,C2,378.0,529/500,127,118.0
7265,G#2,378.0,529/500,127,118.0
7266,F#3,378.192,2.0,123,118.0
7267,F#4,378.25,283/1000,127,118.0
7268,G#1,378.5,0.125,110,118.0
7269,G#2,378.5,529/500,127,118.0
7270,G#1,378.5,0.125,110,118.0
7271,E4,378.5,77/250,127,118.0
7272,G#1,378.75,117/1000,110,118.0
7273,G#1,378.75,117/1000,110,118.0
7274,E-4,378.75,317/1000,127,118.0
7275,G#1,379.0,121/500,127,118.0
7276,G#1,379.0,121/500,127,118.0
7277,E4,379.0,283/1000,127,118.0
7278,E-4,379.0,517/1000,127,118.0
7279,D2,379.0,1.0,127,118.0
7280,G#2,379.0,1.0,127,118.0
7281,F#4,379.25,283/1000,127,118.0
7282,G#1,379.5,27/250,110,118.0
7283,G#2,379.5,0.5,127,118.0
7284,G#1,379.5,27/250,110,118.0
7285,G#4,379.5,283/1000,127,118.0
7286,C#4,379.5,0.5,127,118.0
7287,G#1,379.75,0.25,110,118.0
7288,G#1,379.75,0.25,110,118.0
7289,C5,379.75,1/5,127,118.0
7290,C#2,380.0,333/1000,127,118.0
7291,G#1,380.0,29/500,110,118.0
7292,G#2,380.0,279/500,127,118.0
7293,C#2,380.0,333/1000,127,118.0
7294,G#1,380.0,29/500,110,118.0
7295,F5,380.0,129/500,127,118.0
7296,C#4,380.0,433/1000,127,118.0
7297,C#3,380.0,27/250,114,118.0
7298,E3,380.0,27/250,114,118.0
7299,C2,380.0,27/250,116,118.0
7300,E3,380.0,27/250,116,118.0
7301,C2,380.0,0.25,115,118.0
7302,C#3,380.0,0.25,115,118.0
7303,D2,380.0,29/500,127,118.0
7304,G#2,380.0,29/500,127,118.0
7305,F3,380.192,933/1000,123,118.0
7306,F#3,380.192,17/1000,123,118.0
7307,E-5,380.25,0.25,127,118.0
7308,C#2,380.5,1/10,110,118.0
7309,C#2,380.5,1/10,110,118.0
7310,C#5,380.5,7/20,127,118.0
7311,C#2,380.75,27/250,110,118.0
7312,C#2,380.75,27/250,110,118.0
7313,C#2,381.0,333/1000,127,118.0
7314,E-3,381.0,0.5,119,118.0
7315,C#2,381.0,333/1000,127,118.0
7316,C#6,381.192,3917/1000,127,118.0
7317,C#4,381.192,3917/1000,127,118.0
7318,C#2,381.5,27/250,110,118.0
7319,C#2,381.5,27/250,110,118.0
7320,C#2,381.75,133/1000,110,118.0
7321,C#2,381.75,133/1000,110,118.0
7322,C#2,382.0,317/1000,127,118.0
7323,E-3,382.0,0.5,119,118.0
7324,C#2,382.0,317/1000,127,118.0
7325,C#2,382.5,117/1000,110,118.0
7326,C#2,382.5,117/1000,110,118.0
7327,C#2,382.75,0.125,110,118.0
7328,C#2,382.75,0.125,110,118.0
7329,C#2,383.0,367/1000,127,118.0
7330,C#2,383.0,367/1000,127,118.0
7331,E3,383.0,27/250,115,118.0
7332,A2,383.0,27/250,115,118.0
7333,E-3,383.0,0.25,123,118.0
7334,E2,383.0,0.25,123,118.0
7335,C#2,383.5,2/5,110,118.0
7336,E3,383.5,3/40,110,118.0
7337,C#2,383.5,2/5,110,118.0
7338,A3,383.5,1/10,125,118.0
7339,C2,383.5,1/10,125,118.0
7340,F3,383.5,1/10,125,118.0
7341,A3,383.5,0.25,120,118.0
7342,G3,383.5,0.25,120,118.0
7343,C2,383.5,0.25,120,118.0
7344,B-1,384.0,4.0,127,118.0
7345,B-1,384.0,4.0,127,118.0
7346,E-3,385.0,0.25,114,118.0
7347,B-5,385.192,13/20,127,118.0
7348,B-3,385.192,13/20,127,118.0
7349,F#4,385.5,529/500,127,118.0
7350,E-3,386.0,0.5,114,118.0
7351,G#4,386.333,529/500,127,118.0
7352,C2,386.5,0.5,126,118.0
7353,E-3,387.0,0.5,114,118.0
7354,C#5,387.167,833/1000,127,118.0
7355,C3,387.75,1/20,85,118.0
7356,C3,387.75,0.25,110,118.0
7357,B-1,388.0,1267/1000,127,118.0
7358,C3,388.0,1/10,125,118.0
7359,C2,388.0,0.5,126,118.0
7360,B-1,388.0,1267/1000,127,118.0
7361,F#5,388.0,529/500,127,118.0
7362,C#5,388.0,9/40,127,118.0
7363,B2,388.0,0.25,115,118.0
7364,A2,388.0,0.25,115,118.0
7365,B2,388.5,3/20,126,118.0
7366,B2,388.5,0.5,126,118.0
7367,C3,388.5,0.25,127,118.0
7368,G#5,388.833,529/500,127,118.0
7369,A2,389.25,71/500,127,118.0
7370,B2,389.25,0.5,126,118.0
7371,C2,389.25,0.5,126,118.0
7372,C#6,389.667,529/500,127,118.0
7373,G2,390.0,13/40,127,118.0
7374,B2,390.0,0.5,126,118.0
7375,C2,390.0,0.5,126,118.0
7376,F2,390.75,3/40,104,118.0
7377,A2,390.75,0.25,125,118.0
7378,F2,391.0,133/1000,126,118.0
7379,A2,391.0,0.25,122,118.0
7380,C2,391.0,0.25,122,118.0
7381,G2,391.5,0.25,119,118.0
7382,C2,391.5,0.25,119,118.0
7383,A2,391.5,1/40,106,118.0
7384,B2,391.5,1/40,106,118.0
7385,F2,391.75,23/250,123,118.0
7386,G2,391.75,0.25,115,118.0
7387,C2,391.75,0.25,115,118.0
7388,B1,392.0,11/40,127,118.0
7389,B1,392.0,11/40,127,118.0
7390,B1,392.0,1.0,99,118.0
7391,B2,392.0,0.25,106,118.0
7392,F#5,392.0,529/500,127,118.0
7393,F#4,392.0,53/40,127,118.0
7394,C2,392.0,0.25,108,118.0
7395,E3,392.0,0.25,108,118.0
7396,C#3,392.0,0.25,108,118.0
7397,E-3,392.0,0.25,108,118.0
7398,B-2,392.0,0.5,116,118.0
7399,C2,392.0,0.5,116,118.0
7400,F2,392.0,67/1000,122,118.0
7401,G2,392.0,67/1000,122,118.0
7402,E-4,392.0,0.75,101,118.0
7403,B3,392.0,0.75,101,118.0
7404,F#3,392.0,0.75,101,118.0
7405,F#3,392.0,2.875,110,118.0
7406,F#3,392.0,2.875,110,118.0
7407,B2,392.0,3083/1000,110,118.0
7408,B3,392.0,3083/1000,110,118.0
7409,B2,392.0,3083/1000,110,118.0
7410,B3,392.0,3083/1000,110,118.0
7411,C#4,392.0,1667/1000,127,118.0
7412,C#4,392.0,1667/1000,127,118.0
7413,B-3,392.192,1517/1000,121,118.0
7414,C#4,392.192,1517/1000,121,118.0
7415,B2,392.367,3/20,60,118.0
7416,B1,392.5,133/1000,110,118.0
7417,G#2,392.5,0.25,60,118.0
7418,B1,392.5,133/1000,110,118.0
7419,B2,392.5,0.75,96,118.0
7420,B1,392.75,117/1000,110,118.0
7421,F#2,392.75,0.25,104,118.0
7422,B1,392.75,117/1000,110,118.0
7423,B1,393.0,13/40,127,118.0
7424,B1,393.0,13/40,127,118.0
7425,E2,393.0,0.5,113,118.0
7426,B-2,393.0,0.5,113,118.0
7427,B3,393.0,0.5,105,118.0
7428,F#3,393.0,0.5,105,118.0
7429,E-4,393.0,0.5,105,118.0
7430,B1,393.5,0.125,110,118.0
7431,G#2,393.5,0.25,64,118.0
7432,B1,393.5,0.125,110,118.0
7433,B2,393.5,0.25,121,118.0
7434,B5,393.5,226/125,127,118.0
7435,B4,393.5,423/250,127,118.0
7436,E-4,393.5,2033/1000,127,118.0
7437,E-4,393.5,2033/1000,127,118.0
7438,E-4,393.692,1.75,120,118.0
7439,B3,393.692,1.75,120,118.0
7440,B1,393.75,133/1000,110,118.0
7441,F#2,393.75,0.25,104,118.0
7442,B1,393.75,133/1000,110,118.0
7443,B3,393.75,0.25,99,118.0
7444,E-4,393.75,0.25,99,118.0
7445,F#3,393.75,0.25,99,118.0
7446,B1,394.0,283/1000,127,118.0
7447,C2,394.0,0.75,53,118.0
7448,B-2,394.0,0.5,104,118.0
7449,B1,394.0,283/1000,127,118.0
7450,B-3,394.25,0.25,105,118.0
7451,E-4,394.25,0.25,105,118.0
7452,B3,394.25,0.25,105,118.0
7453,F#3,394.25,0.25,105,118.0
7454,B1,394.5,0.125,110,118.0
7455,G#2,394.5,0.25,79,118.0
7456,B1,394.5,0.125,110,118.0
7457,B2,394.5,0.25,100,118.0
7458,B1,394.75,133/1000,110,118.0
7459,F#2,394.75,0.25,104,118.0
7460,B1,394.75,133/1000,110,118.0
7461,F#2,394.75,0.25,112,118.0
7462,B1,395.0,11/40,127,118.0
7463,B1,395.0,11/40,127,118.0
7464,B3,395.0,0.25,110,118.0
7465,E2,395.0,0.5,116,118.0
7466,B-2,395.0,0.5,116,118.0
7467,B1,395.0,0.5,111,118.0
7468,C#4,395.0,0.5,111,118.0
7469,F#3,395.0,0.5,111,118.0
7470,B1,395.5,117/1000,110,118.0
7471,B1,395.5,117/1000,110,118.0
7472,C#6,395.5,0.5,127,118.0
7473,C#5,395.5,0.5,127,118.0
7474,C2,395.5,0.25,82,118.0
7475,G#2,395.5,0.25,82,118.0
7476,B2,395.5,0.25,91,118.0
7477,E-4,395.5,0.25,91,118.0
7478,F#3,395.5,0.25,91,118.0
7479,C#4,395.5,0.5,110,118.0
7480,G#3,395.5,0.5,110,118.0
7481,E3,395.5,0.5,110,118.0
7482,C#4,395.5,0.5,110,118.0
7483,G#3,395.5,0.5,110,118.0
7484,E3,395.5,0.5,110,118.0
7485,E4,395.5,0.5,127,118.0
7486,E4,395.5,0.5,127,118.0
7487,E4,395.692,0.5,113,118.0
7488,C#4,395.692,0.5,113,118.0
7489,B1,395.75,233/1000,110,118.0
7490,F#2,395.75,0.25,100,118.0
7491,B1,395.75,233/1000,110,118.0
7492,F#2,395.75,0.25,116,118.0
7493,A1,396.0,0.25,127,118.0
7494,A1,396.0,0.25,127,118.0
7495,A2,396.0,0.25,103,118.0
7496,C#6,396.0,279/500,127,118.0
7497,C#5,396.0,567/1000,127,118.0
7498,C2,396.0,0.5,118,118.0
7499,B-2,396.0,0.5,118,118.0
7500,C#4,396.0,0.75,105,118.0
7501,A3,396.0,0.75,105,118.0
7502,B3,396.0,0.75,105,118.0
7503,A1,396.0,0.75,105,118.0
7504,E4,396.0,0.75,105,118.0
7505,C#4,396.0,51/20,110,118.0
7506,G#3,396.0,51/20,110,118.0
7507,E3,396.0,51/20,110,118.0
7508,C#4,396.0,51/20,110,118.0
7509,G#3,396.0,51/20,110,118.0
7510,E3,396.0,51/20,110,118.0
7511,E4,396.0,111/40,127,118.0
7512,E4,396.0,111/40,127,118.0
7513,E4,396.192,2667/1000,113,118.0
7514,C#4,396.192,2667/1000,113,118.0
7515,A1,396.5,27/250,110,118.0
7516,A1,396.5,27/250,110,118.0
7517,A2,396.5,0.25,114,118.0
7518,A1,396.75,117/1000,110,118.0
7519,G#2,396.75,0.25,75,118.0
7520,A1,396.75,117/1000,110,118.0
7521,E2,396.75,0.25,110,118.0
7522,A1,397.0,9/40,127,118.0
7523,E2,397.0,0.5,110,118.0
7524,A1,397.0,9/40,127,118.0
7525,F#2,397.0,0.25,96,118.0
7526,B-2,397.0,0.25,96,118.0
7527,A3,397.0,0.5,111,118.0
7528,C#4,397.0,0.5,111,118.0
7529,E4,397.0,0.5,111,118.0
7530,B3,397.0,0.5,111,118.0
7531,A1,397.5,0.125,110,118.0
7532,G#2,397.5,0.25,81,118.0
7533,A1,397.5,0.125,110,118.0
7534,A2,397.5,0.25,90,118.0
7535,A1,397.75,0.125,110,118.0
7536,F#2,397.75,0.25,96,118.0
7537,A1,397.75,0.125,110,118.0
7538,E4,397.75,0.25,96,118.0
7539,C#4,397.75,0.25,96,118.0
7540,A3,397.75,0.25,96,118.0
7541,B3,397.75,0.25,96,118.0
7542,A1,398.0,183/1000,127,118.0
7543,C2,398.0,0.75,113,118.0
7544,B-2,398.0,0.25,100,118.0
7545,A1,398.0,183/1000,127,118.0
7546,E4,398.25,0.25,108,118.0
7547,C#4,398.25,0.25,108,118.0
7548,A3,398.25,0.25,108,118.0
7549,B3,398.25,0.25,108,118.0
7550,A1,398.5,71/500,110,118.0
7551,G#2,398.5,0.25,89,118.0
7552,A1,398.5,71/500,110,118.0
7553,A2,398.5,0.25,105,118.0
7554,A1,398.75,0.125,110,118.0
7555,F#2,398.75,0.25,92,118.0
7556,A1,398.75,0.125,110,118.0
7557,E2,398.75,0.25,92,118.0
7558,A1,399.0,0.25,127,118.0
7559,E2,399.0,0.5,110,118.0
7560,B-2,399.0,0.25,109,118.0
7561,A1,399.0,0.25,127,118.0
7562,E-4,399.0,0.5,99,118.0
7563,C#6,399.0,1.0,127,118.0
7564,C#5,399.0,124/125,127,118.0
7565,B3,399.0,0.75,109,118.0
7566,A3,399.0,0.75,109,118.0
7567,A1,399.0,0.75,109,118.0
7568,E4,399.0,1.0,127,118.0
7569,E4,399.0,1.0,127,118.0
7570,E4,399.192,1.0,116,118.0
7571,C#4,399.192,1.0,116,118.0
7572,A1,399.5,27/250,110,118.0
7573,A1,399.5,27/250,110,118.0
7574,C2,399.5,0.25,82,118.0
7575,G#2,399.5,0.25,82,118.0
7576,E4,399.5,0.25,105,118.0
7577,A2,399.5,0.25,105,118.0
7578,A1,399.75,9/40,110,118.0
7579,F#2,399.75,0.25,92,118.0
7580,A1,399.75,9/40,110,118.0
7581,E2,399.75,0.25,112,118.0
7582,G#1,400.0,9/40,127,118.0
7583,C2,400.0,0.5,110,118.0
7584,B-2,400.0,0.25,114,118.0
7585,G#1,400.0,9/40,127,118.0
7586,G#2,400.0,0.25,93,118.0
7587,B5,400.0,529/500,127,118.0
7588,C#6,400.0,29/500,127,118.0
7589,B4,400.0,124/125,127,118.0
7590,E-4,400.0,0.75,91,118.0
7591,B3,400.0,0.75,91,118.0
7592,G#3,400.0,0.75,91,118.0
7593,G#1,400.0,0.75,91,118.0
7594,F#3,400.0,121/40,110,118.0
7595,E-3,400.0,121/40,110,118.0
7596,F#3,400.0,121/40,110,118.0
7597,E-3,400.0,121/40,110,118.0
7598,E-4,400.0,1033/1000,127,118.0
7599,E-4,400.0,1033/1000,127,118.0
7600,E4,400.0,33/1000,127,118.0
7601,E4,400.0,33/1000,127,118.0
7602,E-4,400.192,1067/1000,117,118.0
7603,B3,400.192,39/40,115,118.0
7604,E4,400.192,17/1000,116,118.0
7605,C#4,400.192,17/1000,116,118.0
7606,G#1,400.5,117/1000,110,118.0
7607,G#2,400.5,0.25,77,118.0
7608,G#1,400.5,117/1000,110,118.0
7609,G#2,400.5,0.5,127,118.0
7610,G#1,400.75,233/1000,110,118.0
7611,F#2,400.75,0.25,96,118.0
7612,G#1,400.75,233/1000,110,118.0
7613,E-2,400.75,0.25,61,118.0
7614,B1,401.0,121/500,127,118.0
7615,E2,401.0,0.75,110,118.0
7616,B1,401.0,121/500,127,118.0
7617,B-5,401.0,529/500,127,118.0
7618,B-4,401.0,833/1000,127,118.0
7619,F#2,401.0,0.25,74,118.0
7620,B-2,401.0,0.25,74,118.0
7621,E-4,401.0,0.5,113,118.0
7622,G#3,401.0,0.5,113,118.0
7623,B3,401.0,0.5,113,118.0
7624,C#4,401.0,1133/1000,127,118.0
7625,C#4,401.0,1133/1000,127,118.0
7626,B-3,401.192,1083/1000,122,118.0
7627,C#4,401.192,1083/1000,122,118.0
7628,B1,401.5,27/250,110,118.0
7629,G#2,401.5,0.25,86,118.0
7630,B1,401.5,27/250,110,118.0
7631,G#2,401.5,0.25,127,118.0
7632,B1,401.75,317/1000,110,118.0
7633,F#2,401.75,0.25,100,118.0
7634,B1,401.75,317/1000,110,118.0
7635,E-4,401.75,0.25,91,118.0
7636,B3,401.75,0.25,91,118.0
7637,G#3,401.75,0.25,91,118.0
7638,E-2,402.0,267/1000,127,118.0
7639,C2,402.0,0.75,110,118.0
7640,B-2,402.0,0.25,109,118.0
7641,E-2,402.0,267/1000,127,118.0
7642,G#5,402.0,529/500,127,118.0
7643,G#4,402.0,39/40,127,118.0
7644,B3,402.0,43/40,127,118.0
7645,B3,402.0,43/40,127,118.0
7646,G#3,402.192,529/500,116,118.0
7647,B3,402.192,529/500,116,118.0
7648,E-4,402.25,0.25,106,118.0
7649,B3,402.25,0.25,106,118.0
7650,G#3,402.25,0.25,106,118.0
7651,E-2,402.5,133/1000,110,118.0
7652,G#2,402.5,0.25,92,118.0
7653,E-2,402.5,133/1000,110,118.0
7654,G#2,402.5,0.25,127,118.0
7655,E-2,402.75,73/250,110,118.0
7656,F#2,402.75,0.25,100,118.0
7657,E-2,402.75,73/250,110,118.0
7658,E-2,402.75,0.25,106,118.0
7659,B1,403.0,9/40,127,118.0
7660,E2,403.0,0.5,110,118.0
7661,B-2,403.0,0.25,114,118.0
7662,B1,403.0,9/40,127,118.0
7663,B-1,403.0,0.25,71,118.0
7664,F#5,403.0,1.0,127,118.0
7665,F#4,403.0,227/250,127,118.0
7666,C#4,403.0,0.5,108,118.0
7667,B3,403.0,0.5,108,118.0
7668,G#3,403.0,0.75,110,118.0
7669,G#1,403.0,0.75,110,118.0
7670,B-3,403.0,1.0,127,118.0
7671,B-3,403.0,1.0,127,118.0
7672,F#3,403.192,1.0,119,118.0
7673,B-3,403.192,1.0,119,118.0
7674,B1,403.5,0.125,110,118.0
7675,B1,403.5,0.125,110,118.0
7676,E-4,403.5,0.25,74,118.0
7677,G#2,403.5,0.5,127,118.0
7678,C2,403.5,0.25,77,118.0
7679,G#2,403.5,0.25,77,118.0
7680,B1,403.75,0.25,110,118.0
7681,F#2,403.75,0.25,100,118.0
7682,B1,403.75,0.25,110,118.0
7683,E-2,403.75,0.25,116,118.0
7684,C#2,404.0,317/1000,127,118.0
7685,B1,404.0,33/1000,110,118.0
7686,C2,404.0,0.75,120,118.0
7687,B-2,404.0,0.25,109,118.0
7688,C#2,404.0,317/1000,127,118.0
7689,B1,404.0,33/1000,110,118.0
7690,C#2,404.0,0.5,99,118.0
7691,F5,404.0,529/500,127,118.0
7692,F#5,404.0,29/500,127,118.0
7693,F4,404.0,1.75,127,118.0
7694,C#4,404.0,0.75,93,118.0
7695,F3,404.0,0.75,93,118.0
7696,G#3,404.0,0.75,93,118.0
7697,C#4,404.0,1471/500,110,118.0
7698,C#4,404.0,1471/500,110,118.0
7699,C#3,404.0,3033/1000,110,118.0
7700,C#3,404.0,3033/1000,110,118.0
7701,G#3,404.0,1071/500,127,118.0
7702,G#3,404.0,1071/500,127,118.0
7703,G#3,404.192,81/40,116,118.0
7704,C#3,404.192,81/40,116,118.0
7705,F#3,404.192,33/1000,119,118.0
7706,B-3,404.192,33/1000,119,118.0
7707,C#2,404.5,0.125,110,118.0
7708,G#2,404.5,0.25,84,118.0
7709,C#2,404.5,0.125,110,118.0
7710,C#3,404.5,0.25,124,118.0
7711,C#2,404.75,71/500,110,118.0
7712,F#2,404.75,0.25,89,118.0
7713,C#2,404.75,71/500,110,118.0
7714,G#2,404.75,0.25,109,118.0
7715,C#2,405.0,283/1000,127,118.0
7716,E2,405.0,0.75,113,118.0
7717,B-2,405.0,0.25,114,118.0
7718,C#2,405.0,283/1000,127,118.0
7719,C#4,405.0,0.5,102,118.0
7720,G#3,405.0,0.5,102,118.0
7721,F3,405.0,0.5,102,118.0
7722,C#2,405.5,133/1000,110,118.0
7723,G#2,405.5,0.25,92,118.0
7724,C#2,405.5,133/1000,110,118.0
7725,C#3,405.5,0.25,112,118.0
7726,C#2,405.75,26/125,110,118.0
7727,F#2,405.75,0.25,96,118.0
7728,C#2,405.75,26/125,110,118.0
7729,C#4,405.75,0.25,92,118.0
7730,G#3,405.75,0.25,92,118.0
7731,F3,405.75,0.25,92,118.0
7732,F1,406.0,121/500,127,118.0
7733,C2,406.0,0.75,113,118.0
7734,B-2,406.0,0.25,114,118.0
7735,F1,406.0,121/500,127,118.0
7736,E-5,406.0,529/500,127,118.0
7737,E-4,406.0,1.0,127,118.0
7738,F#3,406.0,1067/1000,127,118.0
7739,F#3,406.0,1067/1000,127,118.0
7740,F#3,406.192,1017/1000,118,118.0
7741,F3,406.25,0.25,104,118.0
7742,C#4,406.25,0.25,104,118.0
7743,G#3,406.25,0.25,104,118.0
7744,F1,406.5,117/1000,110,118.0
7745,G#2,406.5,0.25,100,118.0
7746,F1,406.5,117/1000,110,118.0
7747,C#3,406.5,0.25,120,118.0
7748,F1,406.75,1/10,110,118.0
7749,F#2,406.75,0.25,100,118.0
7750,F1,406.75,1/10,110,118.0
7751,G#2,406.75,0.25,106,118.0
7752,F1,407.0,267/1000,127,118.0
7753,E2,407.0,0.5,110,118.0
7754,B-2,407.0,0.25,114,118.0
7755,F1,407.0,267/1000,127,118.0
7756,B3,407.0,0.25,92,118.0
7757,F3,407.0,0.75,91,118.0
7758,F5,407.0,1.0,127,118.0
7759,F4,407.0,329/500,127,118.0
7760,C#2,407.0,0.5,116,118.0
7761,G#3,407.0,0.5,116,118.0
7762,G#3,407.0,33/40,127,118.0
7763,G#3,407.0,33/40,127,118.0
7764,F3,407.192,767/1000,122,118.0
7765,G#3,407.192,767/1000,122,118.0
7766,F1,407.5,233/1000,110,118.0
7767,F1,407.5,233/1000,110,118.0
7768,C2,407.5,0.25,87,118.0
7769,G#2,407.5,0.25,87,118.0
7770,C#3,407.5,0.25,108,118.0
7771,C#4,407.5,0.25,108,118.0
7772,G#1,407.75,26/125,110,118.0
7773,F#2,407.75,0.25,109,118.0
7774,G#1,407.75,26/125,110,118.0
7775,G#2,407.75,0.25,116,118.0
7776,F#1,408.0,283/1000,127,118.0
7777,A3,408.0,0.125,123,118.0
7778,C2,408.0,0.5,113,118.0
7779,B-2,408.0,0.25,109,118.0
7780,F#1,408.0,283/1000,127,118.0
7781,F5,408.0,529/500,127,118.0
7782,F5,408.0,29/500,127,118.0
7783,F4,408.0,721/500,127,118.0
7784,B-3,408.0,0.75,102,118.0
7785,F#3,408.0,0.75,102,118.0
7786,C#3,408.0,0.75,102,118.0
7787,F#2,408.0,0.25,100,118.0
7788,F#1,408.0,0.25,100,118.0
7789,F2,408.0,0.25,100,118.0
7790,E2,408.0,0.25,100,118.0
7791,C#3,408.0,627/250,110,118.0
7792,C#4,408.0,627/250,110,118.0
7793,F#3,408.0,627/250,110,118.0
7794,C#3,408.0,627/250,110,118.0
7795,C#4,408.0,627/250,110,118.0
7796,F#3,408.0,627/250,110,118.0
7797,G#3,408.0,199/125,127,118.0
7798,G#3,408.0,199/125,127,118.0
7799,G#3,408.192,1533/1000,120,118.0
7800,F3,408.192,1533/1000,120,118.0
7801,F#1,408.5,0.125,110,118.0
7802,G#2,408.5,0.25,96,118.0
7803,F#1,408.5,0.125,110,118.0
7804,F#2,408.5,0.5,124,118.0
7805,F#1,408.75,27/250,110,118.0
7806,F#2,408.75,0.25,100,118.0
7807,F#1,408.75,27/250,110,118.0
7808,F#1,409.0,11/40,127,118.0
7809,E2,409.0,0.75,110,118.0
7810,B-2,409.0,0.25,114,118.0
7811,F#1,409.0,11/40,127,118.0
7812,C#2,409.0,0.25,41,118.0
7813,C#3,409.0,0.5,106,118.0
7814,F#3,409.0,0.5,106,118.0
7815,B-3,409.0,0.5,106,118.0
7816,F#1,409.5,1/10,110,118.0
7817,G#2,409.5,0.25,92,118.0
7818,F#1,409.5,1/10,110,118.0
7819,F#2,409.5,0.25,106,118.0
7820,F#5,409.5,529/500,127,118.0
7821,F#4,409.5,1267/1000,127,118.0
7822,B-3,409.5,2083/1000,127,118.0
7823,B-3,409.5,2083/1000,127,118.0
7824,B-3,409.692,721/500,124,118.0
7825,F#3,409.692,721/500,124,118.0
7826,F#1,409.75,133/1000,110,118.0
7827,F#2,409.75,0.25,100,118.0
7828,F#1,409.75,133/1000,110,118.0
7829,B-3,409.75,0.25,96,118.0
7830,F#3,409.75,0.25,96,118.0
7831,C#3,409.75,0.25,96,118.0
7832,F#1,410.0,129/500,127,118.0
7833,C2,410.0,0.75,120,118.0
7834,B-2,410.0,0.25,114,118.0
7835,F#1,410.0,129/500,127,118.0
7836,B-3,410.25,0.25,103,118.0
7837,F#3,410.25,0.25,103,118.0
7838,C#3,410.25,0.25,103,118.0
7839,F#1,410.5,117/1000,110,118.0
7840,G#2,410.5,0.25,96,118.0
7841,F#1,410.5,117/1000,110,118.0
7842,F#2,410.5,0.25,124,118.0
7843,F#1,410.75,0.125,110,118.0
7844,F#2,410.75,0.25,100,118.0
7845,F#1,410.75,0.125,110,118.0
7846,C#2,410.75,0.25,120,118.0
7847,F#1,411.0,3/10,127,118.0
7848,E2,411.0,0.5,117,118.0
7849,B-2,411.0,0.25,100,118.0
7850,F#1,411.0,3/10,127,118.0
7851,G#1,411.0,0.25,79,118.0
7852,C#3,411.0,0.75,79,118.0
7853,C#5,411.0,1.0,127,118.0
7854,C#4,411.0,433/1000,127,118.0
7855,F#1,411.0,0.5,115,118.0
7856,F#3,411.0,0.5,115,118.0
7857,G#3,411.0,0.5,115,118.0
7858,C#4,411.192,633/1000,117,118.0
7859,F#1,411.5,117/1000,110,118.0
7860,F#1,411.5,117/1000,110,118.0
7861,F#2,411.5,0.5,124,118.0
7862,B-3,411.5,0.25,83,118.0
7863,E-5,411.5,0.5,127,118.0
7864,E-4,411.5,0.5,127,118.0
7865,C2,411.5,0.25,90,118.0
7866,G#2,411.5,0.25,90,118.0
7867,E-3,411.5,0.5,110,118.0
7868,B2,411.5,0.5,110,118.0
7869,E-3,411.5,0.5,110,118.0
7870,B2,411.5,0.5,110,118.0
7871,B3,411.5,0.5,127,118.0
7872,B3,411.5,0.5,127,118.0
7873,G#3,411.692,0.5,118,118.0
7874,B3,411.692,0.5,126,118.0
7875,F#1,411.75,1/5,110,118.0
7876,F#2,411.75,0.25,92,118.0
7877,F#1,411.75,1/5,110,118.0
7878,C#2,411.75,0.25,112,118.0
7879,G#1,412.0,0.25,127,118.0
7880,C2,412.0,0.5,110,118.0
7881,B-2,412.0,0.25,104,118.0
7882,G#1,412.0,0.25,127,118.0
7883,G#1,412.0,0.5,127,118.0
7884,B-1,412.0,0.25,101,118.0
7885,C#5,412.0,29/500,127,118.0
7886,E-5,412.0,279/500,127,118.0
7887,E-4,412.0,11/5,127,118.0
7888,G#3,412.0,0.75,101,118.0
7889,B3,412.0,0.75,101,118.0
7890,E-3,412.0,0.75,101,118.0
7891,E-3,412.0,2833/1000,110,118.0
7892,B2,412.0,2833/1000,110,118.0
7893,E-3,412.0,2833/1000,110,118.0
7894,B2,412.0,2833/1000,110,118.0
7895,B3,412.0,1779/500,127,118.0
7896,B3,412.0,1779/500,127,118.0
7897,G#3,412.192,471/500,118,118.0
7898,B3,412.192,1017/1000,126,118.0
7899,G#1,412.5,0.125,110,118.0
7900,G#2,412.5,0.25,81,118.0
7901,G#1,412.5,0.125,110,118.0
7902,G#2,412.5,0.25,116,118.0
7903,G#1,412.75,133/1000,110,118.0
7904,F#2,412.75,0.25,96,118.0
7905,G#1,412.75,133/1000,110,118.0
7906,E-2,412.75,0.25,120,118.0
7907,G#1,413.0,121/500,127,118.0
7908,E2,413.0,0.5,110,118.0
7909,B-2,413.0,0.25,109,118.0
7910,G#1,413.0,121/500,127,118.0
7911,G#3,413.0,0.5,105,118.0
7912,E-3,413.0,0.5,105,118.0
7913,B3,413.0,0.5,105,118.0
7914,B-3,413.192,271/500,118,118.0
7915,G#1,413.5,1/10,110,118.0
7916,G#2,413.5,0.25,81,118.0
7917,G#1,413.5,1/10,110,118.0
7918,G#2,413.5,0.25,116,118.0
7919,G#3,413.692,1033/1000,115,118.0
7920,G#1,413.75,23/250,110,118.0
7921,F#2,413.75,0.25,96,118.0
7922,G#1,413.75,23/250,110,118.0
7923,E-3,413.75,0.25,92,118.0
7924,G#3,413.75,0.25,92,118.0
7925,B3,413.75,0.25,92,118.0
7926,G#1,414.0,26/125,127,118.0
7927,C2,414.0,0.5,120,118.0
7928,B-2,414.0,0.25,109,118.0
7929,G#1,414.0,26/125,127,118.0
7930,G#3,414.25,0.25,103,118.0
7931,E-3,414.25,0.25,103,118.0
7932,B3,414.25,0.25,103,118.0
7933,G#1,414.5,27/250,110,118.0
7934,G#2,414.5,0.25,92,118.0
7935,G#1,414.5,27/250,110,118.0
7936,G#2,414.5,0.25,116,118.0
7937,F#5,414.5,529/500,127,118.0
7938,F#4,414.5,767/1000,127,118.0
7939,F#3,414.583,379/500,120,118.0
7940,F#3,414.583,379/500,120,118.0
7941,F#3,414.692,1117/1000,125,118.0
7942,G#1,414.75,27/250,110,118.0
7943,F#2,414.75,0.25,86,118.0
7944,G#1,414.75,27/250,110,118.0
7945,E-2,414.75,0.25,95,118.0
7946,G#1,415.0,1/5,127,118.0
7947,E2,415.0,0.5,120,118.0
7948,B-2,415.0,0.25,109,118.0
7949,G#1,415.0,1/5,127,118.0
7950,G#1,415.0,0.75,116,118.0
7951,B-3,415.0,0.5,111,118.0
7952,G#3,415.0,0.5,111,118.0
7953,E-3,415.0,0.5,111,118.0
7954,B3,415.375,0.625,120,118.0
7955,B3,415.375,0.625,120,118.0
7956,G#1,415.5,9/40,110,118.0
7957,G#1,415.5,9/40,110,118.0
7958,G#2,415.5,0.5,127,118.0
7959,B3,415.5,0.25,82,118.0
7960,F5,415.5,0.5,127,118.0
7961,F4,415.5,0.5,127,118.0
7962,C2,415.5,0.25,76,118.0
7963,G#2,415.5,0.25,76,118.0
7964,G#3,415.692,0.5,115,118.0
7965,C#3,415.692,0.5,118,118.0
7966,B1,415.75,0.25,110,118.0
7967,F#2,415.75,0.25,104,118.0
7968,B1,415.75,0.25,110,118.0
7969,E-2,415.75,0.25,109,118.0
7970,C#2,416.0,333/1000,127,118.0
7971,B1,416.0,1/40,110,118.0
7972,C2,416.0,0.5,113,118.0
7973,B-2,416.0,0.25,114,118.0
7974,C#2,416.0,333/1000,127,118.0
7975,B1,416.0,1/40,110,118.0
7976,C#2,416.0,0.5,120,118.0
7977,F5,416.0,279/500,127,118.0
7978,F4,416.0,69/40,127,118.0
7979,G#3,416.0,0.75,95,118.0
7980,C#4,416.0,0.75,95,118.0
7981,F3,416.0,0.75,95,118.0
7982,C#3,416.0,31/10,116,118.0
7983,G#3,416.0,31/10,116,118.0
7984,C#4,416.0,31/10,116,118.0
7985,C#3,416.0,31/10,116,118.0
7986,G#3,416.0,31/10,116,118.0
7987,C#4,416.0,31/10,116,118.0
7988,B3,416.0,283/1000,120,118.0
7989,B3,416.0,283/1000,120,118.0
7990,G#3,416.192,173/250,115,118.0
7991,C#3,416.192,617/1000,118,118.0
7992,C#2,416.5,1/10,110,118.0
7993,G#2,416.5,0.25,92,118.0
7994,C#2,416.5,1/10,110,118.0
7995,C#3,416.5,0.25,120,118.0
7996,C#2,416.75,117/1000,110,118.0
7997,F#2,416.75,0.25,96,118.0
7998,C#2,416.75,117/1000,110,118.0
7999,G#2,416.75,0.25,89,118.0
8000,C#2,417.0,73/250,127,118.0
8001,E2,417.0,0.75,110,118.0
8002,B-2,417.0,0.25,104,118.0
8003,C#2,417.0,73/250,127,118.0
8004,C#4,417.0,0.5,103,118.0
8005,G#3,417.0,0.5,103,118.0
8006,F3,417.0,0.5,103,118.0
8007,C#2,417.5,71/500,110,118.0
8008,G#2,417.5,0.25,92,118.0
8009,C#2,417.5,71/500,110,118.0
8010,C#3,417.5,0.25,109,118.0
8011,C#2,417.75,0.125,110,118.0
8012,F#2,417.75,0.25,104,118.0
8013,C#2,417.75,0.125,110,118.0
8014,C#4,417.75,0.25,89,118.0
8015,G#3,417.75,0.25,89,118.0
8016,F3,417.75,0.25,89,118.0
8017,C#2,418.0,217/1000,127,118.0
8018,C2,418.0,0.75,110,118.0
8019,B-2,418.0,0.25,109,118.0
8020,C#2,418.0,217/1000,127,118.0
8021,F3,418.25,0.25,98,118.0
8022,G#3,418.25,0.25,98,118.0
8023,C#4,418.25,0.25,98,118.0
8024,C#2,418.5,133/1000,110,118.0
8025,G#2,418.5,0.25,104,118.0
8026,C#2,418.5,133/1000,110,118.0
8027,C#3,418.5,0.25,104,118.0
8028,E-5,418.5,529/500,127,118.0
8029,E-4,418.5,521/500,127,118.0
8030,E-4,418.5,521/500,127,118.0
8031,C#2,418.75,117/1000,110,118.0
8032,F#2,418.75,0.25,104,118.0
8033,C#2,418.75,117/1000,110,118.0
8034,G#2,418.75,0.25,104,118.0
8035,C#2,419.0,167/1000,127,118.0
8036,C#2,419.0,167/1000,127,118.0
8037,C#2,419.0,0.25,124,118.0
8038,E2,419.0,0.25,111,118.0
8039,B-2,419.0,0.25,111,118.0
8040,F#3,419.25,0.25,110,118.0
8041,E-3,419.25,0.25,110,118.0
8042,B3,419.25,0.25,110,118.0
8043,C#2,419.5,283/1000,110,118.0
8044,C#2,419.5,283/1000,110,118.0
8045,C#3,419.5,0.25,124,118.0
8046,F5,419.5,0.5,127,118.0
8047,C2,419.5,0.25,97,118.0
8048,G#2,419.5,0.25,97,118.0
8049,F4,419.5,0.5,127,118.0
8050,F4,419.5,0.5,127,118.0
8051,B1,419.75,0.25,110,118.0
8052,F#2,419.75,0.25,96,118.0
8053,B1,419.75,0.25,110,118.0
8054,G#2,419.75,0.25,109,118.0
8055,C#2,420.0,3/10,127,118.0
8056,B1,420.0,1/20,110,118.0
8057,C2,420.0,0.5,117,118.0
8058,B-2,420.0,0.25,109,118.0
8059,C#2,420.0,3/10,127,118.0
8060,B1,420.0,1/20,110,118.0
8061,C#2,420.0,0.5,124,118.0
8062,F5,420.0,279/500,127,118.0
8063,F3,420.0,0.75,105,118.0
8064,C#4,420.0,0.75,105,118.0
8065,G#3,420.0,0.75,105,118.0
8066,G#3,420.0,1579/500,110,118.0
8067,C#3,420.0,1579/500,110,118.0
8068,C#4,420.0,1579/500,110,118.0
8069,G#3,420.0,1579/500,110,118.0
8070,C#3,420.0,1579/500,110,118.0
8071,C#4,420.0,1579/500,110,118.0
8072,F4,420.0,16/5,127,118.0
8073,F4,420.0,16/5,127,118.0
8074,C#2,420.5,117/1000,110,118.0
8075,G#2,420.5,0.25,104,118.0
8076,C#2,420.5,117/1000,110,118.0
8077,C#3,420.5,0.25,120,118.0
8078,C#2,420.75,27/250,110,118.0
8079,F#2,420.75,0.25,92,118.0
8080,C#2,420.75,27/250,110,118.0
8081,G#2,420.75,0.25,120,118.0
8082,C#2,421.0,233/1000,127,118.0
8083,E2,421.0,0.5,104,118.0
8084,C#2,421.0,233/1000,127,118.0
8085,E2,421.0,0.25,108,118.0
8086,B-2,421.0,0.25,108,118.0
8087,F3,421.0,0.5,106,118.0
8088,G#3,421.0,0.5,106,118.0
8089,C#4,421.0,0.5,106,118.0
8090,E2,421.25,0.25,92,118.0
8091,C#2,421.5,133/1000,110,118.0
8092,G#2,421.5,0.25,96,118.0
8093,C#2,421.5,133/1000,110,118.0
8094,C#3,421.5,0.25,120,118.0
8095,C#2,421.75,117/1000,110,118.0
8096,C#2,421.75,117/1000,110,118.0
8097,F#2,421.75,0.25,92,118.0
8098,C2,421.75,0.25,92,118.0
8099,C#4,421.75,0.25,91,118.0
8100,G#3,421.75,0.25,91,118.0
8101,F3,421.75,0.25,91,118.0
8102,C#2,422.0,317/1000,127,118.0
8103,C2,422.0,0.75,120,118.0
8104,C#2,422.0,317/1000,127,118.0
8105,B-2,422.0,0.25,111,118.0
8106,E2,422.0,0.25,111,118.0
8107,E2,422.25,0.25,107,118.0
8108,F3,422.25,0.25,111,118.0
8109,C#4,422.25,0.25,111,118.0
8110,G#3,422.25,0.25,111,118.0
8111,C#2,422.5,133/1000,110,118.0
8112,G#2,422.5,0.25,96,118.0
8113,C#2,422.5,133/1000,110,118.0
8114,C#3,422.5,0.25,116,118.0
8115,C#2,422.75,27/250,110,118.0
8116,C#2,422.75,27/250,110,118.0
8117,G#2,422.75,0.25,109,118.0
8118,F#2,422.75,0.25,106,118.0
8119,G2,422.75,0.25,106,118.0
8120,C#2,423.0,3/10,127,118.0
8121,E2,423.0,0.5,113,118.0
8122,B-2,423.0,0.25,114,118.0
8123,C#2,423.0,3/10,127,118.0
8124,F3,423.0,0.75,93,118.0
8125,C#2,423.0,0.5,109,118.0
8126,C#4,423.0,0.5,109,118.0
8127,G#3,423.0,0.5,109,118.0
8128,A2,423.25,0.25,120,118.0
8129,G#1,423.5,26/125,110,118.0
8130,G#1,423.5,26/125,110,118.0
8131,C#3,423.5,0.25,112,118.0
8132,C2,423.5,0.25,92,118.0
8133,G#2,423.5,0.25,92,118.0
8134,E2,423.5,0.25,92,118.0
8135,B-1,423.75,0.25,110,118.0
8136,B-1,423.75,0.25,110,118.0
8137,F#2,423.75,0.25,76,118.0
8138,G2,423.75,0.25,76,118.0
8139,B1,424.0,267/1000,127,118.0
8140,B-1,424.0,83/1000,110,118.0
8141,B-2,424.0,0.25,71,118.0
8142,C#3,424.0,27/250,126,118.0
8143,B1,424.0,267/1000,127,118.0
8144,B-1,424.0,83/1000,110,118.0
8145,B1,424.0,1.0,99,118.0
8146,B2,424.0,0.25,106,118.0
8147,F#5,424.0,529/500,127,118.0
8148,F#4,424.0,176/125,127,118.0
8149,C2,424.0,0.5,106,118.0
8150,B-2,424.0,0.5,106,118.0
8151,E-4,424.0,0.75,101,118.0
8152,B3,424.0,0.75,101,118.0
8153,F#3,424.0,0.75,101,118.0
8154,F#3,424.0,2.875,110,118.0
8155,F#3,424.0,2.875,110,118.0
8156,B2,424.0,3083/1000,110,118.0
8157,B3,424.0,3083/1000,110,118.0
8158,B2,424.0,3083/1000,110,118.0
8159,B3,424.0,3083/1000,110,118.0
8160,C#4,424.0,1667/1000,127,118.0
8161,C#4,424.0,1667/1000,127,118.0
8162,C#4,424.192,7/5,116,118.0
8163,B-3,424.192,7/5,116,118.0
8164,B1,424.5,133/1000,110,118.0
8165,G#2,424.5,0.25,60,118.0
8166,B1,424.5,133/1000,110,118.0
8167,B2,424.5,0.75,96,118.0
8168,B1,424.75,3/20,110,118.0
8169,F#2,424.75,0.25,104,118.0
8170,B1,424.75,3/20,110,118.0
8171,B1,425.0,9/40,127,118.0
8172,B1,425.0,9/40,127,118.0
8173,E2,425.0,0.5,113,118.0
8174,B-2,425.0,0.5,113,118.0
8175,B3,425.0,0.5,105,118.0
8176,F#3,425.0,0.5,105,118.0
8177,E-4,425.0,0.5,105,118.0
8178,B1,425.5,0.125,110,118.0
8179,G#2,425.5,0.25,64,118.0
8180,B1,425.5,0.125,110,118.0
8181,B2,425.5,0.25,121,118.0
8182,B5,425.5,529/500,127,118.0
8183,B4,425.5,226/125,127,118.0
8184,E-4,425.5,2033/1000,127,118.0
8185,E-4,425.5,2033/1000,127,118.0
8186,B3,425.692,67/40,119,118.0
8187,E-4,425.692,67/40,119,118.0
8188,B1,425.75,0.125,110,118.0
8189,F#2,425.75,0.25,104,118.0
8190,B1,425.75,0.125,110,118.0
8191,B3,425.75,0.25,99,118.0
8192,E-4,425.75,0.25,99,118.0
8193,F#3,425.75,0.25,99,118.0
8194,B1,426.0,13/40,127,118.0
8195,C2,426.0,0.75,53,118.0
8196,B-2,426.0,0.5,104,118.0
8197,B1,426.0,13/40,127,118.0
8198,B-3,426.25,0.25,105,118.0
8199,E-4,426.25,0.25,105,118.0
8200,B3,426.25,0.25,105,118.0
8201,F#3,426.25,0.25,105,118.0
8202,B1,426.5,133/1000,110,118.0
8203,G#2,426.5,0.25,79,118.0
8204,B1,426.5,133/1000,110,118.0
8205,B2,426.5,0.25,100,118.0
8206,B1,426.75,0.125,110,118.0
8207,F#2,426.75,0.25,104,118.0
8208,B1,426.75,0.125,110,118.0
8209,F#2,426.75,0.25,112,118.0
8210,B1,427.0,129/500,127,118.0
8211,B1,427.0,129/500,127,118.0
8212,B3,427.0,0.25,110,118.0
8213,E2,427.0,0.5,116,118.0
8214,B-2,427.0,0.5,116,118.0
8215,B1,427.0,0.5,111,118.0
8216,C#4,427.0,0.5,111,118.0
8217,F#3,427.0,0.5,111,118.0
8218,B1,427.5,0.125,110,118.0
8219,B1,427.5,0.125,110,118.0
8220,C#6,427.5,0.5,127,118.0
8221,C#5,427.5,0.5,127,118.0
8222,C2,427.5,0.25,82,118.0
8223,G#2,427.5,0.25,82,118.0
8224,B2,427.5,0.25,91,118.0
8225,E-4,427.5,0.25,91,118.0
8226,F#3,427.5,0.25,91,118.0
8227,C#4,427.5,0.5,110,118.0
8228,G#3,427.5,0.5,110,118.0
8229,E3,427.5,0.5,110,118.0
8230,C#4,427.5,0.5,110,118.0
8231,G#3,427.5,0.5,110,118.0
8232,E3,427.5,0.5,110,118.0
8233,E4,427.5,0.5,127,118.0
8234,E4,427.5,0.5,127,118.0
8235,E4,427.692,0.5,119,118.0
8236,C#4,427.692,0.5,119,118.0
8237,B1,427.75,0.25,110,118.0
8238,F#2,427.75,0.25,100,118.0
8239,B1,427.75,0.25,110,118.0
8240,F#2,427.75,0.25,116,118.0
8241,A1,428.0,233/1000,127,118.0
8242,A1,428.0,233/1000,127,118.0
8243,A2,428.0,0.25,103,118.0
8244,C#6,428.0,279/500,127,118.0
8245,C#5,428.0,767/1000,127,118.0
8246,C2,428.0,0.5,118,118.0
8247,B-2,428.0,0.5,118,118.0
8248,C#4,428.0,0.75,105,118.0
8249,A3,428.0,0.75,105,118.0
8250,B3,428.0,0.75,105,118.0
8251,A1,428.0,0.75,105,118.0
8252,E4,428.0,0.75,105,118.0
8253,C#4,428.0,51/20,110,118.0
8254,G#3,428.0,51/20,110,118.0
8255,E3,428.0,51/20,110,118.0
8256,C#4,428.0,51/20,110,118.0
8257,G#3,428.0,51/20,110,118.0
8258,E3,428.0,51/20,110,118.0
8259,E4,428.0,111/40,127,118.0
8260,E4,428.0,111/40,127,118.0
8261,E4,428.192,1371/500,119,118.0
8262,C#4,428.192,1371/500,119,118.0
8263,A1,428.5,1/10,110,118.0
8264,A1,428.5,1/10,110,118.0
8265,A2,428.5,0.25,114,118.0
8266,A1,428.75,23/250,110,118.0
8267,G#2,428.75,0.25,75,118.0
8268,A1,428.75,23/250,110,118.0
8269,E2,428.75,0.25,110,118.0
8270,A1,429.0,0.25,127,118.0
8271,E2,429.0,0.5,110,118.0
8272,A1,429.0,0.25,127,118.0
8273,F#2,429.0,0.25,96,118.0
8274,B-2,429.0,0.25,96,118.0
8275,A3,429.0,0.5,111,118.0
8276,C#4,429.0,0.5,111,118.0
8277,E4,429.0,0.5,111,118.0
8278,B3,429.0,0.5,111,118.0
8279,A1,429.5,27/250,110,118.0
8280,G#2,429.5,0.25,81,118.0
8281,A1,429.5,27/250,110,118.0
8282,A2,429.5,0.25,90,118.0
8283,A1,429.75,0.125,110,118.0
8284,F#2,429.75,0.25,96,118.0
8285,A1,429.75,0.125,110,118.0
8286,E4,429.75,0.25,96,118.0
8287,C#4,429.75,0.25,96,118.0
8288,A3,429.75,0.25,96,118.0
8289,B3,429.75,0.25,96,118.0
8290,A1,430.0,0.25,127,118.0
8291,C2,430.0,0.75,113,118.0
8292,B-2,430.0,0.25,100,118.0
8293,A1,430.0,0.25,127,118.0
8294,E4,430.25,0.25,108,118.0
8295,C#4,430.25,0.25,108,118.0
8296,A3,430.25,0.25,108,118.0
8297,B3,430.25,0.25,108,118.0
8298,A1,430.5,133/1000,110,118.0
8299,G#2,430.5,0.25,89,118.0
8300,A1,430.5,133/1000,110,118.0
8301,A2,430.5,0.25,105,118.0
8302,A1,430.75,71/500,110,118.0
8303,F#2,430.75,0.25,92,118.0
8304,A1,430.75,71/500,110,118.0
8305,E2,430.75,0.25,92,118.0
8306,A1,431.0,129/500,127,118.0
8307,E2,431.0,0.5,110,118.0
8308,B-2,431.0,0.25,109,118.0
8309,A1,431.0,129/500,127,118.0
8310,E-4,431.0,0.5,99,118.0
8311,C#6,431.0,1.0,127,118.0
8312,C#5,431.0,933/1000,127,118.0
8313,B3,431.0,0.75,109,118.0
8314,A3,431.0,0.75,109,118.0
8315,A1,431.0,0.75,109,118.0
8316,E4,431.0,1.0,127,118.0
8317,E4,431.0,1.0,127,118.0
8318,C#4,431.192,471/500,113,118.0
8319,E4,431.192,471/500,113,118.0
8320,A1,431.5,133/1000,110,118.0
8321,A1,431.5,133/1000,110,118.0
8322,C2,431.5,0.25,82,118.0
8323,G#2,431.5,0.25,82,118.0
8324,E4,431.5,0.25,105,118.0
8325,A2,431.5,0.25,105,118.0
8326,A1,431.75,24/125,110,118.0
8327,F#2,431.75,0.25,92,118.0
8328,A1,431.75,24/125,110,118.0
8329,E2,431.75,0.25,112,118.0
8330,G#1,432.0,183/1000,127,118.0
8331,C2,432.0,0.5,110,118.0
8332,B-2,432.0,0.25,114,118.0
8333,G#1,432.0,183/1000,127,118.0
8334,G#2,432.0,0.25,93,118.0
8335,B5,432.0,529/500,127,118.0
8336,C#6,432.0,29/500,127,118.0
8337,B4,432.0,223/250,127,118.0
8338,E-4,432.0,0.75,91,118.0
8339,B3,432.0,0.75,91,118.0
8340,G#3,432.0,0.75,91,118.0
8341,G#1,432.0,0.75,91,118.0
8342,B4,432.0,967/1000,120,118.0
8343,B4,432.0,967/1000,120,118.0
8344,F#3,432.0,121/40,110,118.0
8345,E-3,432.0,121/40,110,118.0
8346,F#3,432.0,121/40,110,118.0
8347,E-3,432.0,121/40,110,118.0
8348,E-4,432.0,1033/1000,127,118.0
8349,E-4,432.0,1033/1000,127,118.0
8350,E4,432.0,33/1000,127,118.0
8351,E4,432.0,33/1000,127,118.0
8352,E-4,432.192,273/250,125,118.0
8353,B3,432.192,1017/1000,115,118.0
8354,G#1,432.5,0.125,110,118.0
8355,G#2,432.5,0.25,77,118.0
8356,G#1,432.5,0.125,110,118.0
8357,G#2,432.5,0.5,127,118.0
8358,G#1,432.75,121/500,110,118.0
8359,F#2,432.75,0.25,96,118.0
8360,G#1,432.75,121/500,110,118.0
8361,E-2,432.75,0.25,61,118.0
8362,B1,433.0,0.25,127,118.0
8363,E2,433.0,0.75,110,118.0
8364,B1,433.0,0.25,127,118.0
8365,B-5,433.0,529/500,127,118.0
8366,B-4,433.0,39/40,127,118.0
8367,F#2,433.0,0.25,74,118.0
8368,B-2,433.0,0.25,74,118.0
8369,E-4,433.0,0.5,113,118.0
8370,G#3,433.0,0.5,113,118.0
8371,B3,433.0,0.5,113,118.0
8372,B-4,433.0,1017/1000,120,118.0
8373,B-4,433.0,1017/1000,120,118.0
8374,C#4,433.0,1133/1000,127,118.0
8375,C#4,433.0,1133/1000,127,118.0
8376,B-3,433.192,126/125,112,118.0
8377,C#4,433.192,126/125,112,118.0
8378,B1,433.5,71/500,110,118.0
8379,G#2,433.5,0.25,86,118.0
8380,B1,433.5,71/500,110,118.0
8381,G#2,433.5,0.25,127,118.0
8382,B1,433.75,73/250,110,118.0
8383,F#2,433.75,0.25,100,118.0
8384,B1,433.75,73/250,110,118.0
8385,E-4,433.75,0.25,91,118.0
8386,B3,433.75,0.25,91,118.0
8387,G#3,433.75,0.25,91,118.0
8388,E-2,434.0,1/5,127,118.0
8389,C2,434.0,0.75,110,118.0
8390,B-2,434.0,0.25,109,118.0
8391,E-2,434.0,1/5,127,118.0
8392,G#5,434.0,529/500,127,118.0
8393,G#4,434.0,471/500,127,118.0
8394,G#4,434.0,579/500,120,118.0
8395,G#4,434.0,579/500,120,118.0
8396,B3,434.0,43/40,127,118.0
8397,B3,434.0,43/40,127,118.0
8398,G#3,434.192,529/500,112,118.0
8399,B3,434.192,529/500,112,118.0
8400,E-4,434.25,0.25,106,118.0
8401,B3,434.25,0.25,106,118.0
8402,G#3,434.25,0.25,106,118.0
8403,E-2,434.5,133/1000,110,118.0
8404,G#2,434.5,0.25,92,118.0
8405,E-2,434.5,133/1000,110,118.0
8406,G#2,434.5,0.25,127,118.0
8407,E-2,434.75,3/10,110,118.0
8408,F#2,434.75,0.25,100,118.0
8409,E-2,434.75,3/10,110,118.0
8410,E-2,434.75,0.25,106,118.0
8411,B1,435.0,24/125,127,118.0
8412,E2,435.0,0.5,110,118.0
8413,B-2,435.0,0.25,114,118.0
8414,B1,435.0,24/125,127,118.0
8415,B-1,435.0,0.25,71,118.0
8416,F#5,435.0,1.0,127,118.0
8417,F#4,435.0,9/10,127,118.0
8418,C#4,435.0,0.5,108,118.0
8419,B3,435.0,0.5,108,118.0
8420,G#3,435.0,0.75,110,118.0
8421,G#1,435.0,0.75,110,118.0
8422,F#4,435.0,1.0,120,118.0
8423,F#4,435.0,1.0,120,118.0
8424,B-3,435.0,1.0,127,118.0
8425,B-3,435.0,1.0,127,118.0
8426,F#3,435.192,1.0,116,118.0
8427,B-3,435.192,1.0,116,118.0
8428,B1,435.5,117/1000,110,118.0
8429,B1,435.5,117/1000,110,118.0
8430,E-4,435.5,0.25,74,118.0
8431,G#2,435.5,0.5,127,118.0
8432,C2,435.5,0.25,77,118.0
8433,G#2,435.5,0.25,77,118.0
8434,B1,435.75,0.25,110,118.0
8435,F#2,435.75,0.25,100,118.0
8436,B1,435.75,0.25,110,118.0
8437,E-2,435.75,0.25,116,118.0
8438,C#2,436.0,233/1000,127,118.0
8439,B1,436.0,21/500,110,118.0
8440,C2,436.0,0.75,120,118.0
8441,B-2,436.0,0.25,109,118.0
8442,C#2,436.0,233/1000,127,118.0
8443,B1,436.0,21/500,110,118.0
8444,C#2,436.0,0.5,99,118.0
8445,F5,436.0,529/500,127,118.0
8446,F#5,436.0,29/500,127,118.0
8447,F4,436.0,1633/1000,127,118.0
8448,C#4,436.0,0.75,93,118.0
8449,F3,436.0,0.75,93,118.0
8450,G#3,436.0,0.75,93,118.0
8451,F4,436.0,821/500,120,118.0
8452,F4,436.0,821/500,120,118.0
8453,C#4,436.0,1471/500,110,118.0
8454,C#4,436.0,1471/500,110,118.0
8455,C#3,436.0,3033/1000,110,118.0
8456,C#3,436.0,3033/1000,110,118.0
8457,G#3,436.0,1071/500,127,118.0
8458,G#3,436.0,1071/500,127,118.0
8459,F#4,436.0,71/500,120,118.0
8460,F#4,436.0,71/500,120,118.0
8461,G#3,436.192,527/250,120,118.0
8462,C#3,436.192,527/250,120,118.0
8463,F#3,436.192,117/1000,116,118.0
8464,B-3,436.192,117/1000,116,118.0
8465,C#2,436.5,133/1000,110,118.0
8466,G#2,436.5,0.25,84,118.0
8467,C#2,436.5,133/1000,110,118.0
8468,C#3,436.5,0.25,124,118.0
8469,C#2,436.75,0.125,110,118.0
8470,F#2,436.75,0.25,89,118.0
8471,C#2,436.75,0.125,110,118.0
8472,G#2,436.75,0.25,109,118.0
8473,C#2,437.0,3/10,127,118.0
8474,E2,437.0,0.75,113,118.0
8475,B-2,437.0,0.25,114,118.0
8476,C#2,437.0,3/10,127,118.0
8477,C#4,437.0,0.5,102,118.0
8478,G#3,437.0,0.5,102,118.0
8479,F3,437.0,0.5,102,118.0
8480,C#2,437.5,133/1000,110,118.0
8481,G#2,437.5,0.25,92,118.0
8482,C#2,437.5,133/1000,110,118.0
8483,C#3,437.5,0.25,112,118.0
8484,C#2,437.75,26/125,110,118.0
8485,F#2,437.75,0.25,96,118.0
8486,C#2,437.75,26/125,110,118.0
8487,C#4,437.75,0.25,92,118.0
8488,G#3,437.75,0.25,92,118.0
8489,F3,437.75,0.25,92,118.0
8490,F1,438.0,73/250,127,118.0
8491,C2,438.0,0.75,113,118.0
8492,B-2,438.0,0.25,114,118.0
8493,F1,438.0,73/250,127,118.0
8494,E-5,438.0,529/500,127,118.0
8495,E-4,438.0,983/1000,127,118.0
8496,E-4,438.0,479/500,120,118.0
8497,E-4,438.0,479/500,120,118.0
8498,F#3,438.0,1067/1000,127,118.0
8499,F#3,438.0,1067/1000,127,118.0
8500,F#3,438.192,43/40,126,118.0
8501,F3,438.25,0.25,104,118.0
8502,C#4,438.25,0.25,104,118.0
8503,G#3,438.25,0.25,104,118.0
8504,F1,438.5,117/1000,110,118.0
8505,G#2,438.5,0.25,100,118.0
8506,F1,438.5,117/1000,110,118.0
8507,C#3,438.5,0.25,120,118.0
8508,F1,438.75,1/10,110,118.0
8509,F#2,438.75,0.25,100,118.0
8510,F1,438.75,1/10,110,118.0
8511,G#2,438.75,0.25,106,118.0
8512,F1,439.0,283/1000,127,118.0
8513,E2,439.0,0.5,110,118.0
8514,B-2,439.0,0.25,114,118.0
8515,F1,439.0,283/1000,127,118.0
8516,B3,439.0,0.25,92,118.0
8517,F3,439.0,0.75,91,118.0
8518,F5,439.0,1.0,127,118.0
8519,F4,439.0,177/250,127,118.0
8520,C#2,439.0,0.5,116,118.0
8521,G#3,439.0,0.5,116,118.0
8522,F4,439.0,33/40,124,118.0
8523,G#3,439.0,33/40,124,118.0
8524,F4,439.0,33/40,124,118.0
8525,G#3,439.0,33/40,124,118.0
8526,G#3,439.192,0.75,125,118.0
8527,F3,439.192,0.75,125,118.0
8528,F1,439.5,121/500,110,118.0
8529,F1,439.5,121/500,110,118.0
8530,C2,439.5,0.25,87,118.0
8531,G#2,439.5,0.25,87,118.0
8532,C#3,439.5,0.25,108,118.0
8533,C#4,439.5,0.25,108,118.0
8534,G#1,439.75,0.25,110,118.0
8535,F#2,439.75,0.25,109,118.0
8536,G#1,439.75,0.25,110,118.0
8537,G#2,439.75,0.25,116,118.0
8538,F#1,440.0,73/250,127,118.0
8539,G#1,440.0,1/40,110,118.0
8540,C2,440.0,0.5,113,118.0
8541,B-2,440.0,0.25,109,118.0
8542,F#1,440.0,73/250,127,118.0
8543,G#1,440.0,1/40,110,118.0
8544,F5,440.0,529/500,127,118.0
8545,F5,440.0,29/500,127,118.0
8546,F4,440.0,1383/1000,127,118.0
8547,B-3,440.0,0.75,102,118.0
8548,F#3,440.0,0.75,102,118.0
8549,C#3,440.0,0.75,102,118.0
8550,F#2,440.0,0.25,100,118.0
8551,F#1,440.0,0.25,100,118.0
8552,F2,440.0,0.25,100,118.0
8553,E2,440.0,0.25,100,118.0
8554,F4,440.0,199/125,124,118.0
8555,G#3,440.0,199/125,124,118.0
8556,F4,440.0,199/125,124,118.0
8557,G#3,440.0,199/125,124,118.0
8558,C#3,440.0,627/250,110,118.0
8559,C#4,440.0,627/250,110,118.0
8560,F#3,440.0,627/250,110,118.0
8561,C#3,440.0,627/250,110,118.0
8562,C#4,440.0,627/250,110,118.0
8563,F#3,440.0,627/250,110,118.0
8564,G#3,440.192,1617/1000,123,118.0
8565,F3,440.192,771/500,123,118.0
8566,F#1,440.5,0.125,110,118.0
8567,G#2,440.5,0.25,96,118.0
8568,F#1,440.5,0.125,110,118.0
8569,F#2,440.5,0.5,124,118.0
8570,F#1,440.75,27/250,110,118.0
8571,F#2,440.75,0.25,100,118.0
8572,F#1,440.75,27/250,110,118.0
8573,F#1,441.0,9/40,127,118.0
8574,E2,441.0,0.75,110,118.0
8575,B-2,441.0,0.25,114,118.0
8576,F#1,441.0,9/40,127,118.0
8577,C#2,441.0,0.25,41,118.0
8578,C#3,441.0,0.5,106,118.0
8579,F#3,441.0,0.5,106,118.0
8580,B-3,441.0,0.5,106,118.0
8581,F#1,441.5,27/250,110,118.0
8582,G#2,441.5,0.25,92,118.0
8583,F#1,441.5,27/250,110,118.0
8584,F#2,441.5,0.25,106,118.0
8585,F#5,441.5,529/500,127,118.0
8586,F#4,441.5,1267/1000,127,118.0
8587,F#4,441.5,1883/1000,120,118.0
8588,F#4,441.5,1883/1000,120,118.0
8589,B-3,441.5,2083/1000,127,118.0
8590,B-3,441.5,2083/1000,127,118.0
8591,F#3,441.692,57/40,120,118.0
8592,B-3,441.692,27/20,123,118.0
8593,F#1,441.75,27/250,110,118.0
8594,F#2,441.75,0.25,100,118.0
8595,F#1,441.75,27/250,110,118.0
8596,B-3,441.75,0.25,96,118.0
8597,F#3,441.75,0.25,96,118.0
8598,C#3,441.75,0.25,96,118.0
8599,F#1,442.0,9/40,127,118.0
8600,C2,442.0,0.75,120,118.0
8601,B-2,442.0,0.25,114,118.0
8602,F#1,442.0,9/40,127,118.0
8603,B-3,442.25,0.25,103,118.0
8604,F#3,442.25,0.25,103,118.0
8605,C#3,442.25,0.25,103,118.0
8606,F#1,442.5,117/1000,110,118.0
8607,G#2,442.5,0.25,96,118.0
8608,F#1,442.5,117/1000,110,118.0
8609,F#2,442.5,0.25,124,118.0
8610,F#1,442.75,117/1000,110,118.0
8611,F#2,442.75,0.25,100,118.0
8612,F#1,442.75,117/1000,110,118.0
8613,C#2,442.75,0.25,120,118.0
8614,F#1,443.0,129/500,127,118.0
8615,E2,443.0,0.5,117,118.0
8616,B-2,443.0,0.25,100,118.0
8617,F#1,443.0,129/500,127,118.0
8618,G#1,443.0,0.25,79,118.0
8619,C#3,443.0,0.75,79,118.0
8620,C#5,443.0,1.0,127,118.0
8621,C#4,443.0,483/1000,127,118.0
8622,F#1,443.0,0.5,115,118.0
8623,F#3,443.0,0.5,115,118.0
8624,G#3,443.0,0.5,115,118.0
8625,C#4,443.192,7/10,115,118.0
8626,F#1,443.5,117/1000,110,118.0
8627,F#1,443.5,117/1000,110,118.0
8628,F#2,443.5,0.5,124,118.0
8629,B-3,443.5,0.25,83,118.0
8630,E-5,443.5,0.5,127,118.0
8631,E-4,443.5,0.5,127,118.0
8632,C2,443.5,0.25,90,118.0
8633,G#2,443.5,0.25,90,118.0
8634,F#4,443.5,0.5,127,118.0
8635,F#4,443.5,0.5,127,118.0
8636,G#4,443.5,0.5,120,118.0
8637,G#4,443.5,0.5,120,118.0
8638,E-3,443.5,0.5,110,118.0
8639,B2,443.5,0.5,110,118.0
8640,E-3,443.5,0.5,110,118.0
8641,B2,443.5,0.5,110,118.0
8642,B3,443.5,0.5,127,118.0
8643,B3,443.5,0.5,127,118.0
8644,B3,443.692,0.5,123,118.0
8645,G#3,443.692,0.5,123,118.0
8646,F#1,443.75,71/500,110,118.0
8647,F#2,443.75,0.25,92,118.0
8648,F#1,443.75,71/500,110,118.0
8649,C#2,443.75,0.25,112,118.0
8650,G#1,444.0,0.25,127,118.0
8651,C2,444.0,0.5,110,118.0
8652,B-2,444.0,0.25,104,118.0
8653,G#1,444.0,0.25,127,118.0
8654,G#1,444.0,0.5,127,118.0
8655,B-1,444.0,0.25,101,118.0
8656,C#5,444.0,29/500,127,118.0
8657,E-5,444.0,279/500,127,118.0
8658,E-4,444.0,2367/1000,127,118.0
8659,G#3,444.0,0.75,101,118.0
8660,B3,444.0,0.75,101,118.0
8661,E-3,444.0,0.75,101,118.0
8662,F#4,444.0,51/20,127,118.0
8663,F#4,444.0,51/20,127,118.0
8664,G#4,444.0,2483/1000,120,118.0
8665,G#4,444.0,2483/1000,120,118.0
8666,E-3,444.0,2833/1000,110,118.0
8667,B2,444.0,2833/1000,110,118.0
8668,E-3,444.0,2833/1000,110,118.0
8669,B2,444.0,2833/1000,110,118.0
8670,B3,444.0,1779/500,127,118.0
8671,B3,444.0,1779/500,127,118.0
8672,B3,444.192,124/125,123,118.0
8673,G#3,444.192,124/125,123,118.0
8674,G#1,444.5,0.125,110,118.0
8675,G#2,444.5,0.25,81,118.0
8676,G#1,444.5,0.125,110,118.0
8677,G#2,444.5,0.25,116,118.0
8678,G#1,444.75,233/1000,110,118.0
8679,F#2,444.75,0.25,96,118.0
8680,G#1,444.75,233/1000,110,118.0
8681,E-2,444.75,0.25,120,118.0
8682,B1,445.0,129/500,127,118.0
8683,E2,445.0,0.5,110,118.0
8684,B-2,445.0,0.25,109,118.0
8685,B1,445.0,129/500,127,118.0
8686,G#3,445.0,0.5,105,118.0
8687,E-3,445.0,0.5,105,118.0
8688,B3,445.0,0.5,105,118.0
8689,B-3,445.192,11/20,120,118.0
8690,B1,445.5,0.125,110,118.0
8691,G#2,445.5,0.25,81,118.0
8692,B1,445.5,0.125,110,118.0
8693,G#2,445.5,0.25,116,118.0
8694,G#3,445.692,21/20,126,118.0
8695,B1,445.75,283/1000,110,118.0
8696,F#2,445.75,0.25,96,118.0
8697,B1,445.75,283/1000,110,118.0
8698,E-3,445.75,0.25,92,118.0
8699,G#3,445.75,0.25,92,118.0
8700,B3,445.75,0.25,92,118.0
8701,E-2,446.0,0.25,127,118.0
8702,C2,446.0,0.5,120,118.0
8703,B-2,446.0,0.25,109,118.0
8704,E-2,446.0,0.25,127,118.0
8705,G#3,446.25,0.25,103,118.0
8706,E-3,446.25,0.25,103,118.0
8707,B3,446.25,0.25,103,118.0
8708,E-2,446.5,133/1000,110,118.0
8709,G#2,446.5,0.25,92,118.0
8710,E-2,446.5,133/1000,110,118.0
8711,G#2,446.5,0.25,116,118.0
8712,F#5,446.5,529/500,127,118.0
8713,F#4,446.5,421/500,127,118.0
8714,F#3,446.583,379/500,120,118.0
8715,F#3,446.583,379/500,120,118.0
8716,F#3,446.692,1.125,126,118.0
8717,E-2,446.75,267/1000,110,118.0
8718,F#2,446.75,0.25,86,118.0
8719,E-2,446.75,267/1000,110,118.0
8720,E-2,446.75,0.25,95,118.0
8721,B1,447.0,233/1000,127,118.0
8722,E2,447.0,0.5,120,118.0
8723,B-2,447.0,0.25,109,118.0
8724,B1,447.0,233/1000,127,118.0
8725,G#1,447.0,0.75,116,118.0
8726,B-3,447.0,0.5,111,118.0
8727,G#3,447.0,0.5,111,118.0
8728,E-3,447.0,0.5,111,118.0
8729,B3,447.375,0.625,120,118.0
8730,B3,447.375,0.625,120,118.0
8731,B1,447.5,0.125,110,118.0
8732,B1,447.5,0.125,110,118.0
8733,G#2,447.5,0.5,127,118.0
8734,B3,447.5,0.25,82,118.0
8735,F5,447.5,0.5,127,118.0
8736,F4,447.5,0.5,127,118.0
8737,C2,447.5,0.25,76,118.0
8738,G#2,447.5,0.25,76,118.0
8739,G#3,447.692,0.5,118,118.0
8740,C#3,447.692,0.5,118,118.0
8741,B1,447.75,0.25,110,118.0
8742,F#2,447.75,0.25,104,118.0
8743,B1,447.75,0.25,110,118.0
8744,E-2,447.75,0.25,109,118.0
8745,C#2,448.0,367/1000,127,118.0
8746,B1,448.0,29/500,110,118.0
8747,C2,448.0,0.5,113,118.0
8748,B-2,448.0,0.25,114,118.0
8749,C#2,448.0,367/1000,127,118.0
8750,B1,448.0,29/500,110,118.0
8751,C#2,448.0,0.5,120,118.0
8752,F5,448.0,279/500,127,118.0
8753,F4,448.0,47/20,127,118.0
8754,G#3,448.0,0.75,95,118.0
8755,C#4,448.0,0.75,95,118.0
8756,F3,448.0,0.75,95,118.0
8757,F4,448.0,47/20,120,118.0
8758,F4,448.0,47/20,120,118.0
8759,C#3,448.0,31/10,116,118.0
8760,G#3,448.0,31/10,116,118.0
8761,C#4,448.0,31/10,116,118.0
8762,C#3,448.0,31/10,116,118.0
8763,G#3,448.0,31/10,116,118.0
8764,C#4,448.0,31/10,116,118.0
8765,B3,448.0,283/1000,120,118.0
8766,B3,448.0,283/1000,120,118.0
8767,G#3,448.192,524/125,118,118.0
8768,C#3,448.192,623/250,118,118.0
8769,C#2,448.5,0.125,110,118.0
8770,G#2,448.5,0.25,92,118.0
8771,C#2,448.5,0.125,110,118.0
8772,C#3,448.5,0.25,120,118.0
8773,C#2,448.75,133/1000,110,118.0
8774,F#2,448.75,0.25,96,118.0
8775,C#2,448.75,133/1000,110,118.0
8776,G#2,448.75,0.25,89,118.0
8777,C#2,449.0,13/40,127,118.0
8778,E2,449.0,0.75,110,118.0
8779,B-2,449.0,0.25,104,118.0
8780,C#2,449.0,13/40,127,118.0
8781,C#4,449.0,0.5,103,118.0
8782,G#3,449.0,0.5,103,118.0
8783,F3,449.0,0.5,103,118.0
8784,C#2,449.5,0.125,110,118.0
8785,G#2,449.5,0.25,92,118.0
8786,C#2,449.5,0.125,110,118.0
8787,C#3,449.5,0.25,109,118.0
8788,C#2,449.75,71/500,110,118.0
8789,F#2,449.75,0.25,104,118.0
8790,C#2,449.75,71/500,110,118.0
8791,C#4,449.75,0.25,89,118.0
8792,G#3,449.75,0.25,89,118.0
8793,F3,449.75,0.25,89,118.0
8794,C#2,450.0,267/1000,127,118.0
8795,C2,450.0,0.75,110,118.0
8796,B-2,450.0,0.25,109,118.0
8797,C#2,450.0,267/1000,127,118.0
8798,F3,450.25,0.25,98,118.0
8799,G#3,450.25,0.25,98,118.0
8800,C#4,450.25,0.25,98,118.0
8801,C#2,450.5,0.125,110,118.0
8802,G#2,450.5,0.25,104,118.0
8803,C#2,450.5,0.125,110,118.0
8804,C#3,450.5,0.25,104,118.0
8805,E-5,450.5,529/500,127,118.0
8806,E-4,450.5,33/40,127,118.0
8807,F#4,450.5,33/40,120,118.0
8808,F#4,450.5,33/40,120,118.0
8809,E-4,450.5,521/500,127,118.0
8810,E-4,450.5,521/500,127,118.0
8811,B2,450.692,127/250,110,118.0
8812,C#2,450.75,0.125,110,118.0
8813,F#2,450.75,0.25,104,118.0
8814,C#2,450.75,0.125,110,118.0
8815,G#2,450.75,0.25,104,118.0
8816,C#2,451.0,233/1000,127,118.0
8817,C#2,451.0,233/1000,127,118.0
8818,C#2,451.0,0.25,124,118.0
8819,E2,451.0,0.25,111,118.0
8820,B-2,451.0,0.25,111,118.0
8821,E-3,451.192,0.5,105,118.0
8822,F#3,451.25,0.25,110,118.0
8823,E-3,451.25,0.25,110,118.0
8824,B3,451.25,0.25,110,118.0
8825,C#2,451.5,0.25,110,118.0
8826,C#2,451.5,0.25,110,118.0
8827,C#3,451.5,0.25,124,118.0
8828,F5,451.5,0.5,127,118.0
8829,C#4,451.5,0.5,127,118.0
8830,C2,451.5,0.25,97,118.0
8831,G#2,451.5,0.25,97,118.0
8832,G#4,451.5,0.5,120,118.0
8833,G#4,451.5,0.5,120,118.0
8834,F4,451.5,0.5,127,118.0
8835,F4,451.5,0.5,127,118.0
8836,C#3,451.692,0.5,117,118.0
8837,B1,451.75,0.25,110,118.0
8838,F#2,451.75,0.25,96,118.0
8839,B1,451.75,0.25,110,118.0
8840,G#2,451.75,0.25,109,118.0
8841,C#2,452.0,0.375,127,118.0
8842,B1,452.0,1/10,110,118.0
8843,C2,452.0,0.5,117,118.0
8844,B-2,452.0,0.25,109,118.0
8845,C#2,452.0,0.375,127,118.0
8846,B1,452.0,1/10,110,118.0
8847,C#2,452.0,0.5,124,118.0
8848,F5,452.0,279/500,127,118.0
8849,C#4,452.0,271/500,127,118.0
8850,F3,452.0,0.75,105,118.0
8851,C#4,452.0,0.75,105,118.0
8852,G#3,452.0,0.75,105,118.0
8853,G#3,452.0,1579/500,110,118.0
8854,C#3,452.0,1579/500,110,118.0
8855,C#4,452.0,1579/500,110,118.0
8856,G#3,452.0,1579/500,110,118.0
8857,C#3,452.0,1579/500,110,118.0
8858,C#4,452.0,1579/500,110,118.0
8859,G#4,452.0,779/500,120,118.0
8860,G#4,452.0,779/500,120,118.0
8861,F4,452.0,16/5,127,118.0
8862,F4,452.0,16/5,127,118.0
8863,C#3,452.383,121/500,117,118.0
8864,C#2,452.5,117/1000,110,118.0
8865,G#2,452.5,0.25,104,118.0
8866,C#2,452.5,117/1000,110,118.0
8867,C#3,452.5,0.25,120,118.0
8868,C#2,452.75,79/500,110,118.0
8869,F#2,452.75,0.25,92,118.0
8870,C#2,452.75,79/500,110,118.0
8871,G#2,452.75,0.25,120,118.0
8872,C#2,453.0,171/500,127,118.0
8873,E2,453.0,0.5,113,118.0
8874,B-2,453.0,0.25,104,118.0
8875,C#2,453.0,171/500,127,118.0
8876,F3,453.0,0.5,106,118.0
8877,G#3,453.0,0.5,106,118.0
8878,C#4,453.0,0.5,106,118.0
8879,C#2,453.5,0.125,110,118.0
8880,G#2,453.5,0.25,96,118.0
8881,C#2,453.5,0.125,110,118.0
8882,C#3,453.5,0.25,120,118.0
8883,C#2,453.75,133/1000,110,118.0
8884,F#2,453.75,0.25,96,118.0
8885,C#2,453.75,133/1000,110,118.0
8886,C#4,453.75,0.25,91,118.0
8887,G#3,453.75,0.25,91,118.0
8888,E3,453.75,0.25,91,118.0
8889,C#2,454.0,7/20,127,118.0
8890,C2,454.0,0.75,120,118.0
8891,C#2,454.0,7/20,127,118.0
8892,B-2,454.0,0.25,106,118.0
8893,E2,454.0,0.25,106,118.0
8894,E-2,454.25,7/20,110,118.0
8895,E-2,454.25,7/20,110,118.0
8896,C#2,454.5,0.125,110,118.0
8897,C#2,454.5,0.125,110,118.0
8898,G#2,454.5,0.25,98,118.0
8899,E2,454.5,0.25,98,118.0
8900,G#2,454.75,133/1000,110,118.0
8901,F#2,454.75,0.25,100,118.0
8902,G#2,454.75,133/1000,110,118.0
8903,C#3,455.0,0.375,127,118.0
8904,E2,455.0,0.5,113,118.0
8905,C#3,455.0,0.375,127,118.0
8906,B-2,455.0,0.25,94,118.0
8907,C2,455.0,0.25,94,118.0
8908,E-3,455.25,0.125,110,118.0
8909,E2,455.25,0.25,110,118.0
8910,E-3,455.25,0.125,110,118.0
8911,C#3,455.5,0.125,110,118.0
8912,C#3,455.5,0.125,110,118.0
8913,C2,455.5,0.25,88,118.0
8914,G#2,455.5,0.25,88,118.0
8915,C#2,455.75,133/1000,110,118.0
8916,F#2,455.75,0.25,54,118.0
8917,C#2,455.75,133/1000,110,118.0
8918,B1,456.0,11/40,127,118.0
8919,A3,456.0,79/500,120,118.0
8920,B-2,456.0,0.25,71,118.0
8921,B1,456.0,11/40,127,118.0
8922,B1,456.0,1.0,99,118.0
8923,B2,456.0,0.25,106,118.0
8924,F#5,456.0,529/500,127,118.0
8925,F#4,456.0,53/40,127,118.0
8926,C2,456.0,0.5,106,118.0
8927,B-2,456.0,0.5,106,118.0
8928,E-4,456.0,0.75,101,118.0
8929,B3,456.0,0.75,101,118.0
8930,F#3,456.0,0.75,101,118.0
8931,F#3,456.0,2.875,110,118.0
8932,F#3,456.0,2.875,110,118.0
8933,B2,456.0,3083/1000,110,118.0
8934,B3,456.0,3083/1000,110,118.0
8935,B2,456.0,3083/1000,110,118.0
8936,B3,456.0,3083/1000,110,118.0
8937,C#4,456.0,1667/1000,127,118.0
8938,C#4,456.0,1667/1000,127,118.0
8939,B-3,456.383,1517/1000,121,118.0
8940,C#4,456.383,1517/1000,121,118.0
8941,B1,456.5,133/1000,110,118.0
8942,G#2,456.5,0.25,60,118.0
8943,B1,456.5,133/1000,110,118.0
8944,B2,456.5,0.75,96,118.0
8945,B1,456.75,117/1000,110,118.0
8946,F#2,456.75,0.25,104,118.0
8947,B1,456.75,117/1000,110,118.0
8948,B1,457.0,13/40,127,118.0
8949,B1,457.0,13/40,127,118.0
8950,E2,457.0,0.5,113,118.0
8951,B-2,457.0,0.5,113,118.0
8952,B3,457.0,0.5,105,118.0
8953,F#3,457.0,0.5,105,118.0
8954,E-4,457.0,0.5,105,118.0
8955,B1,457.5,0.125,110,118.0
8956,G#2,457.5,0.25,64,118.0
8957,B1,457.5,0.125,110,118.0
8958,B2,457.5,0.25,121,118.0
8959,B5,457.5,529/500,127,118.0
8960,B4,457.5,423/250,127,118.0
8961,E-4,457.5,2033/1000,127,118.0
8962,E-4,457.5,2033/1000,127,118.0
8963,B1,457.75,133/1000,110,118.0
8964,F#2,457.75,0.25,104,118.0
8965,B1,457.75,133/1000,110,118.0
8966,B3,457.75,0.25,99,118.0
8967,E-4,457.75,0.25,99,118.0
8968,F#3,457.75,0.25,99,118.0
8969,E-4,457.883,1.75,120,118.0
8970,B3,457.883,1.75,120,118.0
8971,B1,458.0,283/1000,127,118.0
8972,C2,458.0,0.75,53,118.0
8973,B-2,458.0,0.5,104,118.0
8974,B1,458.0,283/1000,127,118.0
8975,B-3,458.25,0.25,105,118.0
8976,E-4,458.25,0.25,105,118.0
8977,B3,458.25,0.25,105,118.0
8978,F#3,458.25,0.25,105,118.0
8979,B1,458.5,0.125,110,118.0
8980,G#2,458.5,0.25,79,118.0
8981,B1,458.5,0.125,110,118.0
8982,B2,458.5,0.25,100,118.0
8983,B1,458.75,133/1000,110,118.0
8984,F#2,458.75,0.25,104,118.0
8985,B1,458.75,133/1000,110,118.0
8986,F#2,458.75,0.25,112,118.0
8987,B1,459.0,11/40,127,118.0
8988,B1,459.0,11/40,127,118.0
8989,B3,459.0,0.25,110,118.0
8990,E2,459.0,0.5,116,118.0
8991,B-2,459.0,0.5,116,118.0
8992,B1,459.0,0.5,111,118.0
8993,C#4,459.0,0.5,111,118.0
8994,F#3,459.0,0.5,111,118.0
8995,B1,459.5,117/1000,110,118.0
8996,B1,459.5,117/1000,110,118.0
8997,C#6,459.5,0.5,127,118.0
8998,C#5,459.5,0.5,127,118.0
8999,C2,459.5,0.25,82,118.0
9000,G#2,459.5,0.25,82,118.0
9001,B2,459.5,0.25,91,118.0
9002,E-4,459.5,0.25,91,118.0
9003,F#3,459.5,0.25,91,118.0
9004,C#4,459.5,0.5,110,118.0
9005,G#3,459.5,0.5,110,118.0
9006,E3,459.5,0.5,110,118.0
9007,C#4,459.5,0.5,110,118.0
9008,G#3,459.5,0.5,110,118.0
9009,E3,459.5,0.5,110,118.0
9010,E4,459.5,0.5,127,118.0
9011,E4,459.5,0.5,127,118.0
9012,B1,459.75,233/1000,110,118.0
9013,F#2,459.75,0.25,100,118.0
9014,B1,459.75,233/1000,110,118.0
9015,F#2,459.75,0.25,116,118.0
9016,E4,459.883,0.5,113,118.0
9017,C#4,459.883,0.5,113,118.0
9018,A1,460.0,0.25,127,118.0
9019,A1,460.0,0.25,127,118.0
9020,A2,460.0,0.25,103,118.0
9021,C#6,460.0,279/500,127,118.0
9022,C#5,460.0,567/1000,127,118.0
9023,C2,460.0,0.5,118,118.0
9024,B-2,460.0,0.5,118,118.0
9025,C#4,460.0,0.75,105,118.0
9026,A3,460.0,0.75,105,118.0
9027,B3,460.0,0.75,105,118.0
9028,A1,460.0,0.75,105,118.0
9029,E4,460.0,0.75,105,118.0
9030,C#4,460.0,51/20,110,118.0
9031,G#3,460.0,51/20,110,118.0
9032,E3,460.0,51/20,110,118.0
9033,C#4,460.0,51/20,110,118.0
9034,G#3,460.0,51/20,110,118.0
9035,E3,460.0,51/20,110,118.0
9036,E4,460.0,111/40,127,118.0
9037,E4,460.0,111/40,127,118.0
9038,E4,460.383,2667/1000,113,118.0
9039,C#4,460.383,2667/1000,113,118.0
9040,A1,460.5,27/250,110,118.0
9041,A1,460.5,27/250,110,118.0
9042,A2,460.5,0.25,114,118.0
9043,A1,460.75,117/1000,110,118.0
9044,G#2,460.75,0.25,75,118.0
9045,A1,460.75,117/1000,110,118.0
9046,E2,460.75,0.25,110,118.0
9047,A1,461.0,9/40,127,118.0
9048,E2,461.0,0.5,110,118.0
9049,A1,461.0,9/40,127,118.0
9050,F#2,461.0,0.25,96,118.0
9051,B-2,461.0,0.25,96,118.0
9052,A3,461.0,0.5,111,118.0
9053,C#4,461.0,0.5,111,118.0
9054,E4,461.0,0.5,111,118.0
9055,B3,461.0,0.5,111,118.0
9056,A1,461.5,0.125,110,118.0
9057,G#2,461.5,0.25,81,118.0
9058,A1,461.5,0.125,110,118.0
9059,A2,461.5,0.25,90,118.0
9060,A1,461.75,0.125,110,118.0
9061,F#2,461.75,0.25,96,118.0
9062,A1,461.75,0.125,110,118.0
9063,E4,461.75,0.25,96,118.0
9064,C#4,461.75,0.25,96,118.0
9065,A3,461.75,0.25,96,118.0
9066,B3,461.75,0.25,96,118.0
9067,A1,462.0,183/1000,127,118.0
9068,C2,462.0,0.75,113,118.0
9069,B-2,462.0,0.25,100,118.0
9070,A1,462.0,183/1000,127,118.0
9071,E4,462.25,0.25,108,118.0
9072,C#4,462.25,0.25,108,118.0
9073,A3,462.25,0.25,108,118.0
9074,B3,462.25,0.25,108,118.0
9075,A1,462.5,71/500,110,118.0
9076,G#2,462.5,0.25,89,118.0
9077,A1,462.5,71/500,110,118.0
9078,A2,462.5,0.25,105,118.0
9079,A1,462.75,0.125,110,118.0
9080,F#2,462.75,0.25,92,118.0
9081,A1,462.75,0.125,110,118.0
9082,E2,462.75,0.25,92,118.0
9083,A1,463.0,0.25,127,118.0
9084,E2,463.0,0.5,110,118.0
9085,B-2,463.0,0.25,109,118.0
9086,A1,463.0,0.25,127,118.0
9087,E-4,463.0,0.5,99,118.0
9088,C#6,463.0,1.0,127,118.0
9089,C#5,463.0,124/125,127,118.0
9090,B3,463.0,0.75,109,118.0
9091,A3,463.0,0.75,109,118.0
9092,A1,463.0,0.75,109,118.0
9093,E4,463.0,1.0,127,118.0
9094,E4,463.0,1.0,127,118.0
9095,E4,463.383,1.0,116,118.0
9096,C#4,463.383,1.0,116,118.0
9097,A1,463.5,27/250,110,118.0
9098,A1,463.5,27/250,110,118.0
9099,C2,463.5,0.25,82,118.0
9100,G#2,463.5,0.25,82,118.0
9101,E4,463.5,0.25,105,118.0
9102,A2,463.5,0.25,105,118.0
9103,A1,463.75,9/40,110,118.0
9104,F#2,463.75,0.25,92,118.0
9105,A1,463.75,9/40,110,118.0
9106,E2,463.75,0.25,112,118.0
9107,G#1,464.0,9/40,127,118.0
9108,C2,464.0,0.5,110,118.0
9109,B-2,464.0,0.25,114,118.0
9110,G#1,464.0,9/40,127,118.0
9111,G#2,464.0,0.25,93,118.0
9112,B5,464.0,529/500,127,118.0
9113,C#6,464.0,29/500,127,118.0
9114,B4,464.0,124/125,127,118.0
9115,E-4,464.0,0.75,91,118.0
9116,B3,464.0,0.75,91,118.0
9117,G#3,464.0,0.75,91,118.0
9118,G#1,464.0,0.75,91,118.0
9119,F#3,464.0,121/40,110,118.0
9120,E-3,464.0,121/40,110,118.0
9121,F#3,464.0,121/40,110,118.0
9122,E-3,464.0,121/40,110,118.0
9123,E-4,464.0,1033/1000,127,118.0
9124,E-4,464.0,1033/1000,127,118.0
9125,E4,464.0,33/1000,127,118.0
9126,E4,464.0,33/1000,127,118.0
9127,E-4,464.383,1067/1000,117,118.0
9128,B3,464.383,39/40,115,118.0
9129,E4,464.383,17/1000,116,118.0
9130,C#4,464.383,17/1000,116,118.0
9131,G#1,464.5,117/1000,110,118.0
9132,G#2,464.5,0.25,77,118.0
9133,G#1,464.5,117/1000,110,118.0
9134,G#2,464.5,0.5,127,118.0
9135,G#1,464.75,233/1000,110,118.0
9136,F#2,464.75,0.25,96,118.0
9137,G#1,464.75,233/1000,110,118.0
9138,E-2,464.75,0.25,61,118.0
9139,B1,465.0,121/500,127,118.0
9140,E2,465.0,0.75,110,118.0
9141,B1,465.0,121/500,127,118.0
9142,B-5,465.0,529/500,127,118.0
9143,B-4,465.0,833/1000,127,118.0
9144,F#2,465.0,0.25,74,118.0
9145,B-2,465.0,0.25,74,118.0
9146,E-4,465.0,0.5,113,118.0
9147,G#3,465.0,0.5,113,118.0
9148,B3,465.0,0.5,113,118.0
9149,C#4,465.0,1133/1000,127,118.0
9150,C#4,465.0,1133/1000,127,118.0
9151,B-3,465.383,1083/1000,122,118.0
9152,C#4,465.383,1083/1000,122,118.0
9153,B1,465.5,27/250,110,118.0
9154,G#2,465.5,0.25,86,118.0
9155,B1,465.5,27/250,110,118.0
9156,G#2,465.5,0.25,127,118.0
9157,B1,465.75,317/1000,110,118.0
9158,F#2,465.75,0.25,100,118.0
9159,B1,465.75,317/1000,110,118.0
9160,E-4,465.75,0.25,91,118.0
9161,B3,465.75,0.25,91,118.0
9162,G#3,465.75,0.25,91,118.0
9163,E-2,466.0,267/1000,127,118.0
9164,C2,466.0,0.75,110,118.0
9165,B-2,466.0,0.25,109,118.0
9166,E-2,466.0,267/1000,127,118.0
9167,G#5,466.0,529/500,127,118.0
9168,G#4,466.0,39/40,127,118.0
9169,B3,466.0,43/40,127,118.0
9170,B3,466.0,43/40,127,118.0
9171,E-4,466.25,0.25,106,118.0
9172,B3,466.25,0.25,106,118.0
9173,G#3,466.25,0.25,106,118.0
9174,G#3,466.383,529/500,116,118.0
9175,B3,466.383,529/500,116,118.0
9176,E-2,466.5,133/1000,110,118.0
9177,G#2,466.5,0.25,92,118.0
9178,E-2,466.5,133/1000,110,118.0
9179,G#2,466.5,0.25,127,118.0
9180,E-2,466.75,73/250,110,118.0
9181,F#2,466.75,0.25,100,118.0
9182,E-2,466.75,73/250,110,118.0
9183,E-2,466.75,0.25,106,118.0
9184,B1,467.0,9/40,127,118.0
9185,E2,467.0,0.5,110,118.0
9186,B-2,467.0,0.25,114,118.0
9187,B1,467.0,9/40,127,118.0
9188,B-1,467.0,0.25,71,118.0
9189,F#5,467.0,1.0,127,118.0
9190,F#4,467.0,227/250,127,118.0
9191,C#4,467.0,0.5,108,118.0
9192,B3,467.0,0.5,108,118.0
9193,G#3,467.0,0.75,110,118.0
9194,G#1,467.0,0.75,110,118.0
9195,B-3,467.0,1.0,127,118.0
9196,B-3,467.0,1.0,127,118.0
9197,F#3,467.383,1.0,119,118.0
9198,B-3,467.383,1.0,119,118.0
9199,B1,467.5,0.125,110,118.0
9200,B1,467.5,0.125,110,118.0
9201,E-4,467.5,0.25,74,118.0
9202,G#2,467.5,0.5,127,118.0
9203,C2,467.5,0.25,77,118.0
9204,G#2,467.5,0.25,77,118.0
9205,B1,467.75,0.25,110,118.0
9206,F#2,467.75,0.25,100,118.0
9207,B1,467.75,0.25,110,118.0
9208,E-2,467.75,0.25,116,118.0
9209,C#2,468.0,317/1000,127,118.0
9210,B1,468.0,33/1000,110,118.0
9211,C2,468.0,0.75,120,118.0
9212,B-2,468.0,0.25,109,118.0
9213,C#2,468.0,317/1000,127,118.0
9214,B1,468.0,33/1000,110,118.0
9215,C#2,468.0,0.5,99,118.0
9216,F5,468.0,529/500,127,118.0
9217,F#5,468.0,29/500,127,118.0
9218,F4,468.0,1.75,127,118.0
9219,C#4,468.0,0.75,93,118.0
9220,F3,468.0,0.75,93,118.0
9221,G#3,468.0,0.75,93,118.0
9222,C#4,468.0,1471/500,110,118.0
9223,C#4,468.0,1471/500,110,118.0
9224,C#3,468.0,3033/1000,110,118.0
9225,C#3,468.0,3033/1000,110,118.0
9226,G#3,468.0,1071/500,127,118.0
9227,G#3,468.0,1071/500,127,118.0
9228,G#3,468.383,81/40,116,118.0
9229,C#3,468.383,81/40,116,118.0
9230,F#3,468.383,33/1000,119,118.0
9231,B-3,468.383,33/1000,119,118.0
9232,C#2,468.5,0.125,110,118.0
9233,G#2,468.5,0.25,84,118.0
9234,C#2,468.5,0.125,110,118.0
9235,C#3,468.5,0.25,124,118.0
9236,C#2,468.75,71/500,110,118.0
9237,F#2,468.75,0.25,89,118.0
9238,C#2,468.75,71/500,110,118.0
9239,G#2,468.75,0.25,109,118.0
9240,C#2,469.0,283/1000,127,118.0
9241,E2,469.0,0.75,113,118.0
9242,B-2,469.0,0.25,114,118.0
9243,C#2,469.0,283/1000,127,118.0
9244,C#4,469.0,0.5,102,118.0
9245,G#3,469.0,0.5,102,118.0
9246,F3,469.0,0.5,102,118.0
9247,C#2,469.5,133/1000,110,118.0
9248,G#2,469.5,0.25,92,118.0
9249,C#2,469.5,133/1000,110,118.0
9250,C#3,469.5,0.25,112,118.0
9251,C#2,469.75,26/125,110,118.0
9252,F#2,469.75,0.25,96,118.0
9253,C#2,469.75,26/125,110,118.0
9254,C#4,469.75,0.25,92,118.0
9255,G#3,469.75,0.25,92,118.0
9256,F3,469.75,0.25,92,118.0
9257,F1,470.0,121/500,127,118.0
9258,C2,470.0,0.75,113,118.0
9259,B-2,470.0,0.25,114,118.0
9260,F1,470.0,121/500,127,118.0
9261,E-5,470.0,529/500,127,118.0
9262,E-4,470.0,1.0,127,118.0
9263,F#3,470.0,1067/1000,127,118.0
9264,F#3,470.0,1067/1000,127,118.0
9265,F3,470.25,0.25,104,118.0
9266,C#4,470.25,0.25,104,118.0
9267,G#3,470.25,0.25,104,118.0
9268,F#3,470.383,1017/1000,118,118.0
9269,F1,470.5,117/1000,110,118.0
9270,G#2,470.5,0.25,100,118.0
9271,F1,470.5,117/1000,110,118.0
9272,C#3,470.5,0.25,120,118.0
9273,F1,470.75,1/10,110,118.0
9274,F#2,470.75,0.25,100,118.0
9275,F1,470.75,1/10,110,118.0
9276,G#2,470.75,0.25,106,118.0
9277,F1,471.0,267/1000,127,118.0
9278,E2,471.0,0.5,110,118.0
9279,B-2,471.0,0.25,114,118.0
9280,F1,471.0,267/1000,127,118.0
9281,B3,471.0,0.25,92,118.0
9282,F3,471.0,0.75,91,118.0
9283,F5,471.0,1.0,127,118.0
9284,F4,471.0,329/500,127,118.0
9285,C#2,471.0,0.5,116,118.0
9286,G#3,471.0,0.5,116,118.0
9287,G#3,471.0,33/40,127,118.0
9288,G#3,471.0,33/40,127,118.0
9289,F3,471.383,767/1000,122,118.0
9290,G#3,471.383,767/1000,122,118.0
9291,F1,471.5,233/1000,110,118.0
9292,F1,471.5,233/1000,110,118.0
9293,C2,471.5,0.25,87,118.0
9294,G#2,471.5,0.25,87,118.0
9295,C#3,471.5,0.25,108,118.0
9296,C#4,471.5,0.25,108,118.0
9297,G#1,471.75,26/125,110,118.0
9298,F#2,471.75,0.25,109,118.0
9299,G#1,471.75,26/125,110,118.0
9300,G#2,471.75,0.25,116,118.0
9301,F#1,472.0,283/1000,127,118.0
9302,C2,472.0,0.5,113,118.0
9303,B-2,472.0,0.25,109,118.0
9304,F#1,472.0,283/1000,127,118.0
9305,F5,472.0,529/500,127,118.0
9306,F5,472.0,29/500,127,118.0
9307,F4,472.0,721/500,127,118.0
9308,B-3,472.0,0.75,102,118.0
9309,F#3,472.0,0.75,102,118.0
9310,C#3,472.0,0.75,102,118.0
9311,F#2,472.0,0.25,100,118.0
9312,F#1,472.0,0.25,100,118.0
9313,F2,472.0,0.25,100,118.0
9314,E2,472.0,0.25,100,118.0
9315,C#3,472.0,627/250,110,118.0
9316,C#4,472.0,627/250,110,118.0
9317,F#3,472.0,627/250,110,118.0
9318,C#3,472.0,627/250,110,118.0
9319,C#4,472.0,627/250,110,118.0
9320,F#3,472.0,627/250,110,118.0
9321,G#3,472.0,199/125,127,118.0
9322,G#3,472.0,199/125,127,118.0
9323,G#3,472.383,1533/1000,120,118.0
9324,F3,472.383,1533/1000,120,118.0
9325,F#1,472.5,0.125,110,118.0
9326,G#2,472.5,0.25,96,118.0
9327,F#1,472.5,0.125,110,118.0
9328,F#2,472.5,0.5,124,118.0
9329,F#1,472.75,27/250,110,118.0
9330,F#2,472.75,0.25,100,118.0
9331,F#1,472.75,27/250,110,118.0
9332,F#1,473.0,11/40,127,118.0
9333,E2,473.0,0.75,110,118.0
9334,B-2,473.0,0.25,114,118.0
9335,F#1,473.0,11/40,127,118.0
9336,C#2,473.0,0.25,41,118.0
9337,C#3,473.0,0.5,106,118.0
9338,F#3,473.0,0.5,106,118.0
9339,B-3,473.0,0.5,106,118.0
9340,F#1,473.5,1/10,110,118.0
9341,G#2,473.5,0.25,92,118.0
9342,F#1,473.5,1/10,110,118.0
9343,F#2,473.5,0.25,106,118.0
9344,F#5,473.5,529/500,127,118.0
9345,F#4,473.5,1267/1000,127,118.0
9346,B-3,473.5,2083/1000,127,118.0
9347,B-3,473.5,2083/1000,127,118.0
9348,F#1,473.75,133/1000,110,118.0
9349,F#2,473.75,0.25,100,118.0
9350,F#1,473.75,133/1000,110,118.0
9351,B-3,473.75,0.25,96,118.0
9352,F#3,473.75,0.25,96,118.0
9353,C#3,473.75,0.25,96,118.0
9354,B-3,473.883,721/500,124,118.0
9355,F#3,473.883,721/500,124,118.0
9356,F#1,474.0,129/500,127,118.0
9357,C2,474.0,0.75,120,118.0
9358,B-2,474.0,0.25,114,118.0
9359,F#1,474.0,129/500,127,118.0
9360,B-3,474.25,0.25,103,118.0
9361,F#3,474.25,0.25,103,118.0
9362,C#3,474.25,0.25,103,118.0
9363,F#1,474.5,117/1000,110,118.0
9364,G#2,474.5,0.25,96,118.0
9365,F#1,474.5,117/1000,110,118.0
9366,F#2,474.5,0.25,124,118.0
9367,F#1,474.75,0.125,110,118.0
9368,F#2,474.75,0.25,100,118.0
9369,F#1,474.75,0.125,110,118.0
9370,C#2,474.75,0.25,120,118.0
9371,F#1,475.0,3/10,127,118.0
9372,E2,475.0,0.5,117,118.0
9373,B-2,475.0,0.25,100,118.0
9374,F#1,475.0,3/10,127,118.0
9375,G#1,475.0,0.25,79,118.0
9376,C#3,475.0,0.75,79,118.0
9377,C#5,475.0,1.0,127,118.0
9378,C#4,475.0,433/1000,127,118.0
9379,F#1,475.0,0.5,115,118.0
9380,F#3,475.0,0.5,115,118.0
9381,G#3,475.0,0.5,115,118.0
9382,C#4,475.383,633/1000,117,118.0
9383,F#1,475.5,117/1000,110,118.0
9384,F#1,475.5,117/1000,110,118.0
9385,F#2,475.5,0.5,124,118.0
9386,B-3,475.5,0.25,83,118.0
9387,E-5,475.5,0.5,127,118.0
9388,E-4,475.5,0.5,127,118.0
9389,C2,475.5,0.25,90,118.0
9390,G#2,475.5,0.25,90,118.0
9391,E-3,475.5,0.5,110,118.0
9392,B2,475.5,0.5,110,118.0
9393,E-3,475.5,0.5,110,118.0
9394,B2,475.5,0.5,110,118.0
9395,B3,475.5,0.5,127,118.0
9396,B3,475.5,0.5,127,118.0
9397,F#1,475.75,1/5,110,118.0
9398,F#2,475.75,0.25,92,118.0
9399,F#1,475.75,1/5,110,118.0
9400,C#2,475.75,0.25,112,118.0
9401,G#3,475.883,0.5,118,118.0
9402,B3,475.883,0.5,126,118.0
9403,G#1,476.0,0.25,127,118.0
9404,C2,476.0,0.5,110,118.0
9405,B-2,476.0,0.25,104,118.0
9406,G#1,476.0,0.25,127,118.0
9407,G#1,476.0,0.5,127,118.0
9408,B-1,476.0,0.25,101,118.0
9409,C#5,476.0,29/500,127,118.0
9410,E-5,476.0,279/500,127,118.0
9411,E-4,476.0,11/5,127,118.0
9412,G#3,476.0,0.75,101,118.0
9413,B3,476.0,0.75,101,118.0
9414,E-3,476.0,0.75,101,118.0
9415,E-3,476.0,2833/1000,110,118.0
9416,B2,476.0,2833/1000,110,118.0
9417,E-3,476.0,2833/1000,110,118.0
9418,B2,476.0,2833/1000,110,118.0
9419,B3,476.0,1779/500,127,118.0
9420,B3,476.0,1779/500,127,118.0
9421,G#3,476.383,471/500,118,118.0
9422,B3,476.383,1017/1000,126,118.0
9423,G#1,476.5,0.125,110,118.0
9424,G#2,476.5,0.25,81,118.0
9425,G#1,476.5,0.125,110,118.0
9426,G#2,476.5,0.25,116,118.0
9427,G#1,476.75,133/1000,110,118.0
9428,F#2,476.75,0.25,96,118.0
9429,G#1,476.75,133/1000,110,118.0
9430,E-2,476.75,0.25,120,118.0
9431,G#1,477.0,121/500,127,118.0
9432,E2,477.0,0.5,110,118.0
9433,B-2,477.0,0.25,109,118.0
9434,G#1,477.0,121/500,127,118.0
9435,G#3,477.0,0.5,105,118.0
9436,E-3,477.0,0.5,105,118.0
9437,B3,477.0,0.5,105,118.0
9438,B-3,477.383,271/500,118,118.0
9439,G#1,477.5,1/10,110,118.0
9440,G#2,477.5,0.25,81,118.0
9441,G#1,477.5,1/10,110,118.0
9442,G#2,477.5,0.25,116,118.0
9443,G#1,477.75,23/250,110,118.0
9444,F#2,477.75,0.25,96,118.0
9445,G#1,477.75,23/250,110,118.0
9446,E-3,477.75,0.25,92,118.0
9447,G#3,477.75,0.25,92,118.0
9448,B3,477.75,0.25,92,118.0
9449,G#3,477.883,1033/1000,115,118.0
9450,G#1,478.0,26/125,127,118.0
9451,C2,478.0,0.5,120,118.0
9452,B-2,478.0,0.25,109,118.0
9453,G#1,478.0,26/125,127,118.0
9454,G#3,478.25,0.25,103,118.0
9455,E-3,478.25,0.25,103,118.0
9456,B3,478.25,0.25,103,118.0
9457,G#1,478.5,27/250,110,118.0
9458,G#2,478.5,0.25,92,118.0
9459,G#1,478.5,27/250,110,118.0
9460,G#2,478.5,0.25,116,118.0
9461,F#5,478.5,529/500,127,118.0
9462,F#4,478.5,767/1000,127,118.0
9463,F#3,478.583,379/500,120,118.0
9464,F#3,478.583,379/500,120,118.0
9465,G#1,478.75,27/250,110,118.0
9466,F#2,478.75,0.25,86,118.0
9467,G#1,478.75,27/250,110,118.0
9468,E-2,478.75,0.25,95,118.0
9469,F#3,478.883,1117/1000,125,118.0
9470,G#1,479.0,1/5,127,118.0
9471,E2,479.0,0.5,120,118.0
9472,B-2,479.0,0.25,109,118.0
9473,G#1,479.0,1/5,127,118.0
9474,G#1,479.0,0.75,116,118.0
9475,B-3,479.0,0.5,111,118.0
9476,G#3,479.0,0.5,111,118.0
9477,E-3,479.0,0.5,111,118.0
9478,B3,479.375,0.625,120,118.0
9479,B3,479.375,0.625,120,118.0
9480,G#1,479.5,9/40,110,118.0
9481,G#1,479.5,9/40,110,118.0
9482,G#2,479.5,0.5,127,118.0
9483,B3,479.5,0.25,82,118.0
9484,F5,479.5,0.5,127,118.0
9485,F4,479.5,0.5,127,118.0
9486,C2,479.5,0.25,76,118.0
9487,G#2,479.5,0.25,76,118.0
9488,B1,479.75,0.25,110,118.0
9489,F#2,479.75,0.25,104,118.0
9490,B1,479.75,0.25,110,118.0
9491,E-2,479.75,0.25,109,118.0
9492,G#3,479.883,0.5,115,118.0
9493,C#3,479.883,0.5,118,118.0
9494,C#2,480.0,333/1000,127,118.0
9495,B1,480.0,1/40,110,118.0
9496,C2,480.0,0.5,113,118.0
9497,B-2,480.0,0.25,114,118.0
9498,C#2,480.0,333/1000,127,118.0
9499,B1,480.0,1/40,110,118.0
9500,C#2,480.0,0.5,120,118.0
9501,F5,480.0,279/500,127,118.0
9502,F4,480.0,69/40,127,118.0
9503,G#3,480.0,0.75,95,118.0
9504,C#4,480.0,0.75,95,118.0
9505,F3,480.0,0.75,95,118.0
9506,C#3,480.0,31/10,116,118.0
9507,G#3,480.0,31/10,116,118.0
9508,C#4,480.0,31/10,116,118.0
9509,C#3,480.0,31/10,116,118.0
9510,G#3,480.0,31/10,116,118.0
9511,C#4,480.0,31/10,116,118.0
9512,B3,480.0,283/1000,120,118.0
9513,B3,480.0,283/1000,120,118.0
9514,G#3,480.383,173/250,115,118.0
9515,C#3,480.383,617/1000,118,118.0
9516,C#2,480.5,1/10,110,118.0
9517,G#2,480.5,0.25,92,118.0
9518,C#2,480.5,1/10,110,118.0
9519,C#3,480.5,0.25,120,118.0
9520,C#2,480.75,117/1000,110,118.0
9521,F#2,480.75,0.25,96,118.0
9522,C#2,480.75,117/1000,110,118.0
9523,G#2,480.75,0.25,89,118.0
9524,C#2,481.0,73/250,127,118.0
9525,E2,481.0,0.75,110,118.0
9526,B-2,481.0,0.25,104,118.0
9527,C#2,481.0,73/250,127,118.0
9528,C#4,481.0,0.5,103,118.0
9529,G#3,481.0,0.5,103,118.0
9530,F3,481.0,0.5,103,118.0
9531,C#2,481.5,71/500,110,118.0
9532,G#2,481.5,0.25,92,118.0
9533,C#2,481.5,71/500,110,118.0
9534,C#3,481.5,0.25,109,118.0
9535,C#2,481.75,0.125,110,118.0
9536,F#2,481.75,0.25,104,118.0
9537,C#2,481.75,0.125,110,118.0
9538,C#4,481.75,0.25,89,118.0
9539,G#3,481.75,0.25,89,118.0
9540,F3,481.75,0.25,89,118.0
9541,C#2,482.0,217/1000,127,118.0
9542,C2,482.0,0.75,110,118.0
9543,B-2,482.0,0.25,109,118.0
9544,C#2,482.0,217/1000,127,118.0
9545,F3,482.25,0.25,98,118.0
9546,G#3,482.25,0.25,98,118.0
9547,C#4,482.25,0.25,98,118.0
9548,C#2,482.5,133/1000,110,118.0
9549,G#2,482.5,0.25,104,118.0
9550,C#2,482.5,133/1000,110,118.0
9551,C#3,482.5,0.25,104,118.0
9552,E-5,482.5,529/500,127,118.0
9553,E-4,482.5,521/500,127,118.0
9554,E-4,482.5,521/500,127,118.0
9555,C#2,482.75,117/1000,110,118.0
9556,F#2,482.75,0.25,104,118.0
9557,C#2,482.75,117/1000,110,118.0
9558,G#2,482.75,0.25,104,118.0
9559,C#2,483.0,167/1000,127,118.0
9560,C#2,483.0,167/1000,127,118.0
9561,C#2,483.0,0.25,124,118.0
9562,E2,483.0,0.25,111,118.0
9563,B-2,483.0,0.25,111,118.0
9564,F#3,483.25,0.25,110,118.0
9565,E-3,483.25,0.25,110,118.0
9566,B3,483.25,0.25,110,118.0
9567,C#2,483.5,283/1000,110,118.0
9568,C#2,483.5,283/1000,110,118.0
9569,C#3,483.5,0.25,124,118.0
9570,F5,483.5,0.5,127,118.0
9571,C2,483.5,0.25,97,118.0
9572,G#2,483.5,0.25,97,118.0
9573,F4,483.5,0.5,127,118.0
9574,F4,483.5,0.5,127,118.0
9575,B1,483.75,0.25,110,118.0
9576,F#2,483.75,0.25,96,118.0
9577,B1,483.75,0.25,110,118.0
9578,G#2,483.75,0.25,109,118.0
9579,C#2,484.0,3/10,127,118.0
9580,B1,484.0,1/20,110,118.0
9581,C2,484.0,0.5,117,118.0
9582,B-2,484.0,0.25,109,118.0
9583,C#2,484.0,3/10,127,118.0
9584,B1,484.0,1/20,110,118.0
9585,C#2,484.0,0.5,124,118.0
9586,F5,484.0,279/500,127,118.0
9587,F3,484.0,0.75,105,118.0
9588,C#4,484.0,0.75,105,118.0
9589,G#3,484.0,0.75,105,118.0
9590,G#3,484.0,1579/500,110,118.0
9591,C#3,484.0,1579/500,110,118.0
9592,C#4,484.0,1579/500,110,118.0
9593,G#3,484.0,1579/500,110,118.0
9594,C#3,484.0,1579/500,110,118.0
9595,C#4,484.0,1579/500,110,118.0
9596,F4,484.0,16/5,127,118.0
9597,F4,484.0,16/5,127,118.0
9598,C#2,484.5,117/1000,110,118.0
9599,G#2,484.5,0.25,104,118.0
9600,C#2,484.5,117/1000,110,118.0
9601,C#3,484.5,0.25,120,118.0
9602,C#2,484.75,27/250,110,118.0
9603,F#2,484.75,0.25,92,118.0
9604,C#2,484.75,27/250,110,118.0
9605,G#2,484.75,0.25,120,118.0
9606,C#2,485.0,233/1000,127,118.0
9607,E2,485.0,0.5,113,118.0
9608,B-2,485.0,0.25,104,118.0
9609,C#2,485.0,233/1000,127,118.0
9610,F3,485.0,0.5,106,118.0
9611,G#3,485.0,0.5,106,118.0
9612,C#4,485.0,0.5,106,118.0
9613,C#2,485.5,133/1000,110,118.0
9614,G#2,485.5,0.25,96,118.0
9615,C#2,485.5,133/1000,110,118.0
9616,C#3,485.5,0.25,120,118.0
9617,C#2,485.75,117/1000,110,118.0
9618,F#2,485.75,0.25,96,118.0
9619,C#2,485.75,117/1000,110,118.0
9620,C#4,485.75,0.25,91,118.0
9621,G#3,485.75,0.25,91,118.0
9622,F3,485.75,0.25,91,118.0
9623,C#2,486.0,317/1000,127,118.0
9624,C2,486.0,0.75,120,118.0
9625,B-2,486.0,0.25,109,118.0
9626,C#2,486.0,317/1000,127,118.0
9627,F3,486.25,0.25,111,118.0
9628,C#4,486.25,0.25,111,118.0
9629,G#3,486.25,0.25,111,118.0
9630,C#2,486.5,133/1000,110,118.0
9631,G#2,486.5,0.25,96,118.0
9632,C#2,486.5,133/1000,110,118.0
9633,C#3,486.5,0.25,116,118.0
9634,C#2,486.75,27/250,110,118.0
9635,F#2,486.75,0.25,100,118.0
9636,C#2,486.75,27/250,110,118.0
9637,G#2,486.75,0.25,109,118.0
9638,C#2,487.0,3/10,127,118.0
9639,E2,487.0,0.5,113,118.0
9640,B-2,487.0,0.25,114,118.0
9641,C#2,487.0,3/10,127,118.0
9642,F3,487.0,0.75,93,118.0
9643,C#2,487.0,0.5,109,118.0
9644,C#4,487.0,0.5,109,118.0
9645,G#3,487.0,0.5,109,118.0
9646,G#1,487.5,26/125,110,118.0
9647,G3,487.5,71/500,110,118.0
9648,G#1,487.5,26/125,110,118.0
9649,C#3,487.5,0.25,112,118.0
9650,C2,487.5,0.25,88,118.0
9651,G#2,487.5,0.25,88,118.0
9652,B-1,487.75,0.25,110,118.0
9653,F#2,487.75,0.25,54,118.0
9654,B-1,487.75,0.25,110,118.0
9655,B1,488.0,267/1000,127,118.0
9656,B-1,488.0,83/1000,110,118.0
9657,A3,488.0,1/10,126,118.0
9658,B-2,488.0,0.25,71,118.0
9659,B1,488.0,267/1000,127,118.0
9660,B-1,488.0,83/1000,110,118.0
9661,B1,488.0,1.0,99,118.0
9662,B2,488.0,0.25,106,118.0
9663,F#5,488.0,529/500,127,118.0
9664,F#4,488.0,176/125,127,118.0
9665,C2,488.0,0.5,106,118.0
9666,B-2,488.0,0.5,106,118.0
9667,E-4,488.0,0.75,101,118.0
9668,B3,488.0,0.75,101,118.0
9669,F#3,488.0,0.75,101,118.0
9670,F#3,488.0,2.875,110,118.0
9671,F#3,488.0,2.875,110,118.0
9672,B2,488.0,3083/1000,110,118.0
9673,B3,488.0,3083/1000,110,118.0
9674,B2,488.0,3083/1000,110,118.0
9675,B3,488.0,3083/1000,110,118.0
9676,C#4,488.0,1667/1000,127,118.0
9677,C#4,488.0,1667/1000,127,118.0
9678,C#4,488.383,7/5,116,118.0
9679,B-3,488.383,7/5,116,118.0
9680,B1,488.5,133/1000,110,118.0
9681,G#2,488.5,0.25,60,118.0
9682,B1,488.5,133/1000,110,118.0
9683,B2,488.5,0.75,96,118.0
9684,B1,488.75,3/20,110,118.0
9685,F#2,488.75,0.25,104,118.0
9686,B1,488.75,3/20,110,118.0
9687,B1,489.0,9/40,127,118.0
9688,B1,489.0,9/40,127,118.0
9689,E2,489.0,0.5,113,118.0
9690,B-2,489.0,0.5,113,118.0
9691,B3,489.0,0.5,105,118.0
9692,F#3,489.0,0.5,105,118.0
9693,E-4,489.0,0.5,105,118.0
9694,B1,489.5,0.125,110,118.0
9695,G#2,489.5,0.25,64,118.0
9696,B1,489.5,0.125,110,118.0
9697,B2,489.5,0.25,121,118.0
9698,B5,489.5,529/500,127,118.0
9699,B4,489.5,226/125,127,118.0
9700,E-4,489.5,2033/1000,127,118.0
9701,E-4,489.5,2033/1000,127,118.0
9702,B1,489.75,0.125,110,118.0
9703,F#2,489.75,0.25,104,118.0
9704,B1,489.75,0.125,110,118.0
9705,B3,489.75,0.25,99,118.0
9706,E-4,489.75,0.25,99,118.0
9707,F#3,489.75,0.25,99,118.0
9708,B3,489.883,67/40,119,118.0
9709,E-4,489.883,67/40,119,118.0
9710,B1,490.0,13/40,127,118.0
9711,C2,490.0,0.75,53,118.0
9712,B-2,490.0,0.5,104,118.0
9713,B1,490.0,13/40,127,118.0
9714,B-3,490.25,0.25,105,118.0
9715,E-4,490.25,0.25,105,118.0
9716,B3,490.25,0.25,105,118.0
9717,F#3,490.25,0.25,105,118.0
9718,B1,490.5,133/1000,110,118.0
9719,G#2,490.5,0.25,79,118.0
9720,B1,490.5,133/1000,110,118.0
9721,B2,490.5,0.25,100,118.0
9722,B1,490.75,0.125,110,118.0
9723,F#2,490.75,0.25,104,118.0
9724,B1,490.75,0.125,110,118.0
9725,F#2,490.75,0.25,112,118.0
9726,B1,491.0,129/500,127,118.0
9727,B1,491.0,129/500,127,118.0
9728,B3,491.0,0.25,110,118.0
9729,E2,491.0,0.5,116,118.0
9730,B-2,491.0,0.5,116,118.0
9731,B1,491.0,0.5,111,118.0
9732,C#4,491.0,0.5,111,118.0
9733,F#3,491.0,0.5,111,118.0
9734,B1,491.5,0.125,110,118.0
9735,B1,491.5,0.125,110,118.0
9736,C#6,491.5,0.5,127,118.0
9737,C#5,491.5,0.5,127,118.0
9738,C2,491.5,0.25,82,118.0
9739,G#2,491.5,0.25,82,118.0
9740,B2,491.5,0.25,91,118.0
9741,E-4,491.5,0.25,91,118.0
9742,F#3,491.5,0.25,91,118.0
9743,C#4,491.5,0.5,110,118.0
9744,G#3,491.5,0.5,110,118.0
9745,E3,491.5,0.5,110,118.0
9746,C#4,491.5,0.5,110,118.0
9747,G#3,491.5,0.5,110,118.0
9748,E3,491.5,0.5,110,118.0
9749,E4,491.5,0.5,127,118.0
9750,E4,491.5,0.5,127,118.0
9751,B1,491.75,0.25,110,118.0
9752,F#2,491.75,0.25,100,118.0
9753,B1,491.75,0.25,110,118.0
9754,F#2,491.75,0.25,116,118.0
9755,E4,491.883,0.5,119,118.0
9756,C#4,491.883,0.5,119,118.0
9757,A1,492.0,233/1000,127,118.0
9758,A1,492.0,233/1000,127,118.0
9759,A2,492.0,0.25,103,118.0
9760,C#6,492.0,279/500,127,118.0
9761,C#5,492.0,767/1000,127,118.0
9762,C2,492.0,0.5,118,118.0
9763,B-2,492.0,0.5,118,118.0
9764,C#4,492.0,0.75,105,118.0
9765,A3,492.0,0.75,105,118.0
9766,B3,492.0,0.75,105,118.0
9767,A1,492.0,0.75,105,118.0
9768,E4,492.0,0.75,105,118.0
9769,C#4,492.0,51/20,110,118.0
9770,G#3,492.0,51/20,110,118.0
9771,E3,492.0,51/20,110,118.0
9772,C#4,492.0,51/20,110,118.0
9773,G#3,492.0,51/20,110,118.0
9774,E3,492.0,51/20,110,118.0
9775,E4,492.0,111/40,127,118.0
9776,E4,492.0,111/40,127,118.0
9777,E4,492.383,1371/500,119,118.0
9778,C#4,492.383,1371/500,119,118.0
9779,A1,492.5,1/10,110,118.0
9780,A1,492.5,1/10,110,118.0
9781,A2,492.5,0.25,114,118.0
9782,A1,492.75,23/250,110,118.0
9783,G#2,492.75,0.25,75,118.0
9784,A1,492.75,23/250,110,118.0
9785,E2,492.75,0.25,110,118.0
9786,A1,493.0,0.25,127,118.0
9787,E2,493.0,0.5,110,118.0
9788,A1,493.0,0.25,127,118.0
9789,F#2,493.0,0.25,96,118.0
9790,B-2,493.0,0.25,96,118.0
9791,A3,493.0,0.5,111,118.0
9792,C#4,493.0,0.5,111,118.0
9793,E4,493.0,0.5,111,118.0
9794,B3,493.0,0.5,111,118.0
9795,A1,493.5,27/250,110,118.0
9796,G#2,493.5,0.25,81,118.0
9797,A1,493.5,27/250,110,118.0
9798,A2,493.5,0.25,90,118.0
9799,A1,493.75,0.125,110,118.0
9800,F#2,493.75,0.25,96,118.0
9801,A1,493.75,0.125,110,118.0
9802,E4,493.75,0.25,96,118.0
9803,C#4,493.75,0.25,96,118.0
9804,A3,493.75,0.25,96,118.0
9805,B3,493.75,0.25,96,118.0
9806,A1,494.0,0.25,127,118.0
9807,C2,494.0,0.75,113,118.0
9808,B-2,494.0,0.25,100,118.0
9809,A1,494.0,0.25,127,118.0
9810,E4,494.25,0.25,108,118.0
9811,C#4,494.25,0.25,108,118.0
9812,A3,494.25,0.25,108,118.0
9813,B3,494.25,0.25,108,118.0
9814,A1,494.5,133/1000,110,118.0
9815,G#2,494.5,0.25,89,118.0
9816,A1,494.5,133/1000,110,118.0
9817,A2,494.5,0.25,105,118.0
9818,A1,494.75,71/500,110,118.0
9819,F#2,494.75,0.25,92,118.0
9820,A1,494.75,71/500,110,118.0
9821,E2,494.75,0.25,92,118.0
9822,A1,495.0,129/500,127,118.0
9823,E2,495.0,0.5,110,118.0
9824,B-2,495.0,0.25,109,118.0
9825,A1,495.0,129/500,127,118.0
9826,E-4,495.0,0.5,99,118.0
9827,C#6,495.0,1.0,127,118.0
9828,C#5,495.0,933/1000,127,118.0
9829,B3,495.0,0.75,109,118.0
9830,A3,495.0,0.75,109,118.0
9831,A1,495.0,0.75,109,118.0
9832,E4,495.0,1.0,127,118.0
9833,E4,495.0,1.0,127,118.0
9834,C#4,495.383,471/500,113,118.0
9835,E4,495.383,471/500,113,118.0
9836,A1,495.5,133/1000,110,118.0
9837,A1,495.5,133/1000,110,118.0
9838,C2,495.5,0.25,82,118.0
9839,G#2,495.5,0.25,82,118.0
9840,E4,495.5,0.25,105,118.0
9841,A2,495.5,0.25,105,118.0
9842,A1,495.75,24/125,110,118.0
9843,F#2,495.75,0.25,92,118.0
9844,A1,495.75,24/125,110,118.0
9845,E2,495.75,0.25,112,118.0
9846,G#1,496.0,183/1000,127,118.0
9847,C2,496.0,0.5,110,118.0
9848,B-2,496.0,0.25,114,118.0
9849,F3,496.0,27/250,73,118.0
9850,G#1,496.0,183/1000,127,118.0
9851,G#2,496.0,0.25,93,118.0
9852,B5,496.0,529/500,127,118.0
9853,C#6,496.0,29/500,127,118.0
9854,B4,496.0,223/250,127,118.0
9855,E-4,496.0,0.75,91,118.0
9856,B3,496.0,0.75,91,118.0
9857,G#3,496.0,0.75,91,118.0
9858,G#1,496.0,0.75,91,118.0
9859,B4,496.0,967/1000,120,118.0
9860,B4,496.0,967/1000,120,118.0
9861,F#3,496.0,121/40,110,118.0
9862,E-3,496.0,121/40,110,118.0
9863,F#3,496.0,121/40,110,118.0
9864,E-3,496.0,121/40,110,118.0
9865,E-4,496.0,1033/1000,127,118.0
9866,E-4,496.0,1033/1000,127,118.0
9867,E4,496.0,33/1000,127,118.0
9868,E4,496.0,33/1000,127,118.0
9869,E-4,496.383,273/250,125,118.0
9870,B3,496.383,1017/1000,115,118.0
9871,G#1,496.5,0.125,110,118.0
9872,G#2,496.5,0.25,77,118.0
9873,G#1,496.5,0.125,110,118.0
9874,G#2,496.5,0.5,127,118.0
9875,G#1,496.75,121/500,110,118.0
9876,F#2,496.75,0.25,96,118.0
9877,G#1,496.75,121/500,110,118.0
9878,E-2,496.75,0.25,61,118.0
9879,B1,497.0,0.25,127,118.0
9880,E2,497.0,0.75,110,118.0
9881,F3,497.0,133/1000,92,118.0
9882,B1,497.0,0.25,127,118.0
9883,B-5,497.0,529/500,127,118.0
9884,B-4,497.0,39/40,127,118.0
9885,F#2,497.0,0.25,74,118.0
9886,B-2,497.0,0.25,74,118.0
9887,E-4,497.0,0.5,113,118.0
9888,G#3,497.0,0.5,113,118.0
9889,B3,497.0,0.5,113,118.0
9890,B-4,497.0,1017/1000,120,118.0
9891,B-4,497.0,1017/1000,120,118.0
9892,C#4,497.0,1133/1000,127,118.0
9893,C#4,497.0,1133/1000,127,118.0
9894,B-3,497.383,126/125,112,118.0
9895,C#4,497.383,126/125,112,118.0
9896,B1,497.5,71/500,110,118.0
9897,G#2,497.5,0.25,86,118.0
9898,B1,497.5,71/500,110,118.0
9899,G#2,497.5,0.25,127,118.0
9900,B1,497.75,73/250,110,118.0
9901,F#2,497.75,0.25,100,118.0
9902,B1,497.75,73/250,110,118.0
9903,E-4,497.75,0.25,91,118.0
9904,B3,497.75,0.25,91,118.0
9905,G#3,497.75,0.25,91,118.0
9906,E-2,498.0,1/5,127,118.0
9907,C2,498.0,0.75,110,118.0
9908,B-2,498.0,0.25,109,118.0
9909,F3,498.0,0.125,74,118.0
9910,E-2,498.0,1/5,127,118.0
9911,G#5,498.0,529/500,127,118.0
9912,G#4,498.0,471/500,127,118.0
9913,G#4,498.0,579/500,120,118.0
9914,G#4,498.0,579/500,120,118.0
9915,B3,498.0,43/40,127,118.0
9916,B3,498.0,43/40,127,118.0
9917,E-4,498.25,0.25,106,118.0
9918,B3,498.25,0.25,106,118.0
9919,G#3,498.25,0.25,106,118.0
9920,G#3,498.383,529/500,112,118.0
9921,B3,498.383,529/500,112,118.0
9922,E-2,498.5,133/1000,110,118.0
9923,G#2,498.5,0.25,92,118.0
9924,E-2,498.5,133/1000,110,118.0
9925,G#2,498.5,0.25,127,118.0
9926,E-2,498.75,3/10,110,118.0
9927,F#2,498.75,0.25,100,118.0
9928,E-2,498.75,3/10,110,118.0
9929,E-2,498.75,0.25,106,118.0
9930,B1,499.0,24/125,127,118.0
9931,E2,499.0,0.5,110,118.0
9932,B1,499.0,24/125,127,118.0
9933,B-1,499.0,0.25,71,118.0
9934,F#5,499.0,1.0,127,118.0
9935,F#4,499.0,9/10,127,118.0
9936,B-2,499.0,217/1000,78,118.0
9937,F3,499.0,217/1000,78,118.0
9938,C#4,499.0,0.5,108,118.0
9939,B3,499.0,0.5,108,118.0
9940,G#3,499.0,0.75,110,118.0
9941,G#1,499.0,0.75,110,118.0
9942,F#4,499.0,1.0,120,118.0
9943,F#4,499.0,1.0,120,118.0
9944,B-3,499.0,1.0,127,118.0
9945,B-3,499.0,1.0,127,118.0
9946,F#3,499.383,1.0,116,118.0
9947,B-3,499.383,1.0,116,118.0
9948,B1,499.5,117/1000,110,118.0
9949,B1,499.5,117/1000,110,118.0
9950,E-4,499.5,0.25,74,118.0
9951,G#2,499.5,0.5,127,118.0
9952,C2,499.5,0.25,77,118.0
9953,G#2,499.5,0.25,77,118.0
9954,B1,499.75,0.25,110,118.0
9955,F#2,499.75,0.25,100,118.0
9956,B1,499.75,0.25,110,118.0
9957,E-2,499.75,0.25,116,118.0
9958,C#2,500.0,233/1000,127,118.0
9959,B1,500.0,21/500,110,118.0
9960,C2,500.0,0.75,120,118.0
9961,B-2,500.0,0.25,109,118.0
9962,E-3,500.0,27/250,86,118.0
9963,C#2,500.0,233/1000,127,118.0
9964,B1,500.0,21/500,110,118.0
9965,C#2,500.0,0.5,99,118.0
9966,F5,500.0,529/500,127,118.0
9967,F#5,500.0,29/500,127,118.0
9968,F4,500.0,1633/1000,127,118.0
9969,C#4,500.0,0.75,93,118.0
9970,F3,500.0,0.75,93,118.0
9971,G#3,500.0,0.75,93,118.0
9972,F4,500.0,821/500,120,118.0
9973,F4,500.0,821/500,120,118.0
9974,C#4,500.0,1471/500,110,118.0
9975,C#4,500.0,1471/500,110,118.0
9976,C#3,500.0,3033/1000,110,118.0
9977,C#3,500.0,3033/1000,110,118.0
9978,G#3,500.0,1071/500,127,118.0
9979,G#3,500.0,1071/500,127,118.0
9980,F#4,500.0,71/500,120,118.0
9981,F#4,500.0,71/500,120,118.0
9982,G#3,500.383,527/250,120,118.0
9983,C#3,500.383,527/250,120,118.0
9984,F#3,500.383,117/1000,116,118.0
9985,B-3,500.383,117/1000,116,118.0
9986,C#2,500.5,133/1000,110,118.0
9987,G#2,500.5,0.25,84,118.0
9988,C#2,500.5,133/1000,110,118.0
9989,C#3,500.5,0.25,124,118.0
9990,C#2,500.75,0.125,110,118.0
9991,F#2,500.75,0.25,89,118.0
9992,C#2,500.75,0.125,110,118.0
9993,G#2,500.75,0.25,109,118.0
9994,C#2,501.0,3/10,127,118.0
9995,E2,501.0,0.75,113,118.0
9996,B-2,501.0,0.25,114,118.0
9997,E-3,501.0,117/1000,86,118.0
9998,C#2,501.0,3/10,127,118.0
9999,C#4,501.0,0.5,102,118.0
10000,G#3,501.0,0.5,102,118.0
10001,F3,501.0,0.5,102,118.0
10002,C#2,501.5,133/1000,110,118.0
10003,G#2,501.5,0.25,92,118.0
10004,C#2,501.5,133/1000,110,118.0
10005,C#3,501.5,0.25,112,118.0
10006,C#2,501.75,26/125,110,118.0
10007,F#2,501.75,0.25,96,118.0
10008,C#2,501.75,26/125,110,118.0
10009,C#4,501.75,0.25,92,118.0
10010,G#3,501.75,0.25,92,118.0
10011,F3,501.75,0.25,92,118.0
10012,F1,502.0,73/250,127,118.0
10013,C2,502.0,0.75,113,118.0
10014,B-2,502.0,0.25,114,118.0
10015,E-3,502.0,183/1000,81,118.0
10016,F1,502.0,73/250,127,118.0
10017,E-5,502.0,529/500,127,118.0
10018,E-4,502.0,983/1000,127,118.0
10019,E-4,502.0,479/500,120,118.0
10020,E-4,502.0,479/500,120,118.0
10021,F#3,502.0,1067/1000,127,118.0
10022,F#3,502.0,1067/1000,127,118.0
10023,F3,502.25,0.25,104,118.0
10024,C#4,502.25,0.25,104,118.0
10025,G#3,502.25,0.25,104,118.0
10026,F#3,502.383,43/40,126,118.0
10027,F1,502.5,117/1000,110,118.0
10028,G#2,502.5,0.25,100,118.0
10029,F1,502.5,117/1000,110,118.0
10030,C#3,502.5,0.25,120,118.0
10031,F1,502.75,1/10,110,118.0
10032,F#2,502.75,0.25,100,118.0
10033,F1,502.75,1/10,110,118.0
10034,G#2,502.75,0.25,106,118.0
10035,F1,503.0,283/1000,127,118.0
10036,E2,503.0,0.5,110,118.0
10037,B-2,503.0,0.25,114,118.0
10038,E-3,503.0,667/1000,89,118.0
10039,F1,503.0,283/1000,127,118.0
10040,B3,503.0,0.25,92,118.0
10041,F3,503.0,0.75,91,118.0
10042,F5,503.0,1.0,127,118.0
10043,F4,503.0,177/250,127,118.0
10044,C#2,503.0,0.5,116,118.0
10045,G#3,503.0,0.5,116,118.0
10046,F4,503.0,33/40,124,118.0
10047,G#3,503.0,33/40,124,118.0
10048,F4,503.0,33/40,124,118.0
10049,G#3,503.0,33/40,124,118.0
10050,G#3,503.383,0.75,125,118.0
10051,F3,503.383,0.75,125,118.0
10052,F1,503.5,121/500,110,118.0
10053,F1,503.5,121/500,110,118.0
10054,C2,503.5,0.25,87,118.0
10055,G#2,503.5,0.25,87,118.0
10056,C#3,503.5,0.25,108,118.0
10057,C#4,503.5,0.25,108,118.0
10058,G#1,503.75,0.25,110,118.0
10059,F#2,503.75,0.25,109,118.0
10060,G#1,503.75,0.25,110,118.0
10061,G#2,503.75,0.25,116,118.0
10062,F#1,504.0,73/250,127,118.0
10063,G#1,504.0,1/40,110,118.0
10064,C2,504.0,0.5,113,118.0
10065,F#1,504.0,73/250,127,118.0
10066,G#1,504.0,1/40,110,118.0
10067,F5,504.0,529/500,127,118.0
10068,F5,504.0,29/500,127,118.0
10069,F4,504.0,1383/1000,127,118.0
10070,B-2,504.0,24/125,98,118.0
10071,E-3,504.0,24/125,98,118.0
10072,B-3,504.0,0.75,102,118.0
10073,F#3,504.0,0.75,102,118.0
10074,C#3,504.0,0.75,102,118.0
10075,F#2,504.0,0.25,100,118.0
10076,F#1,504.0,0.25,100,118.0
10077,F2,504.0,0.25,100,118.0
10078,E2,504.0,0.25,100,118.0
10079,F4,504.0,199/125,124,118.0
10080,G#3,504.0,199/125,124,118.0
10081,F4,504.0,199/125,124,118.0
10082,G#3,504.0,199/125,124,118.0
10083,C#3,504.0,627/250,110,118.0
10084,C#4,504.0,627/250,110,118.0
10085,F#3,504.0,627/250,110,118.0
10086,C#3,504.0,627/250,110,118.0
10087,C#4,504.0,627/250,110,118.0
10088,F#3,504.0,627/250,110,118.0
10089,G#3,504.383,1617/1000,123,118.0
10090,F3,504.383,771/500,123,118.0
10091,F#1,504.5,0.125,110,118.0
10092,G#2,504.5,0.25,96,118.0
10093,F#1,504.5,0.125,110,118.0
10094,F#2,504.5,0.5,124,118.0
10095,F#1,504.75,27/250,110,118.0
10096,F#2,504.75,0.25,100,118.0
10097,F#1,504.75,27/250,110,118.0
10098,F#1,505.0,9/40,127,118.0
10099,E2,505.0,0.75,110,118.0
10100,B-2,505.0,0.25,114,118.0
10101,E-3,505.0,617/1000,81,118.0
10102,F#1,505.0,9/40,127,118.0
10103,C#2,505.0,0.25,41,118.0
10104,C#3,505.0,0.5,106,118.0
10105,F#3,505.0,0.5,106,118.0
10106,B-3,505.0,0.5,106,118.0
10107,F#1,505.5,27/250,110,118.0
10108,G#2,505.5,0.25,92,118.0
10109,F#1,505.5,27/250,110,118.0
10110,F#2,505.5,0.25,106,118.0
10111,F#5,505.5,529/500,127,118.0
10112,F#4,505.5,1267/1000,127,118.0
10113,F#4,505.5,1883/1000,120,118.0
10114,F#4,505.5,1883/1000,120,118.0
10115,B-3,505.5,2083/1000,127,118.0
10116,B-3,505.5,2083/1000,127,118.0
10117,F#1,505.75,27/250,110,118.0
10118,F#2,505.75,0.25,100,118.0
10119,F#1,505.75,27/250,110,118.0
10120,B-3,505.75,0.25,96,118.0
10121,F#3,505.75,0.25,96,118.0
10122,C#3,505.75,0.25,96,118.0
10123,F#3,505.883,57/40,120,118.0
10124,B-3,505.883,27/20,123,118.0
10125,F#1,506.0,9/40,127,118.0
10126,C2,506.0,0.75,120,118.0
10127,B-2,506.0,0.25,114,118.0
10128,E-3,506.0,76/125,77,118.0
10129,F#1,506.0,9/40,127,118.0
10130,B-3,506.25,0.25,103,118.0
10131,F#3,506.25,0.25,103,118.0
10132,C#3,506.25,0.25,103,118.0
10133,F#1,506.5,117/1000,110,118.0
10134,G#2,506.5,0.25,96,118.0
10135,F#1,506.5,117/1000,110,118.0
10136,F#2,506.5,0.25,124,118.0
10137,F#1,506.75,117/1000,110,118.0
10138,F#2,506.75,0.25,100,118.0
10139,F#1,506.75,117/1000,110,118.0
10140,C#2,506.75,0.25,120,118.0
10141,F#1,507.0,129/500,127,118.0
10142,E2,507.0,0.5,117,118.0
10143,B-2,507.0,0.25,100,118.0
10144,E-3,507.0,79/500,84,118.0
10145,F#1,507.0,129/500,127,118.0
10146,G#1,507.0,0.25,79,118.0
10147,C#3,507.0,0.75,79,118.0
10148,C#5,507.0,1.0,127,118.0
10149,C#4,507.0,483/1000,127,118.0
10150,F#1,507.0,0.5,115,118.0
10151,F#3,507.0,0.5,115,118.0
10152,G#3,507.0,0.5,115,118.0
10153,C#4,507.383,7/10,115,118.0
10154,F#1,507.5,117/1000,110,118.0
10155,F#1,507.5,117/1000,110,118.0
10156,F#2,507.5,0.5,124,118.0
10157,B-3,507.5,0.25,83,118.0
10158,E-5,507.5,0.5,127,118.0
10159,E-4,507.5,0.5,127,118.0
10160,C2,507.5,0.25,90,118.0
10161,G#2,507.5,0.25,90,118.0
10162,F#4,507.5,0.5,127,118.0
10163,F#4,507.5,0.5,127,118.0
10164,G#4,507.5,0.5,120,118.0
10165,G#4,507.5,0.5,120,118.0
10166,E-3,507.5,0.5,110,118.0
10167,B2,507.5,0.5,110,118.0
10168,E-3,507.5,0.5,110,118.0
10169,B2,507.5,0.5,110,118.0
10170,B3,507.5,0.5,127,118.0
10171,B3,507.5,0.5,127,118.0
10172,F#1,507.75,71/500,110,118.0
10173,F#2,507.75,0.25,92,118.0
10174,F#1,507.75,71/500,110,118.0
10175,C#2,507.75,0.25,112,118.0
10176,B3,507.883,0.5,123,118.0
10177,G#3,507.883,0.5,123,118.0
10178,G#1,508.0,0.25,127,118.0
10179,C2,508.0,0.5,110,118.0
10180,B-2,508.0,0.25,104,118.0
10181,E-3,508.0,67/1000,71,118.0
10182,G#1,508.0,0.25,127,118.0
10183,G#1,508.0,0.5,127,118.0
10184,B-1,508.0,0.25,101,118.0
10185,C#5,508.0,29/500,127,118.0
10186,E-5,508.0,279/500,127,118.0
10187,E-4,508.0,2367/1000,127,118.0
10188,G#3,508.0,0.75,101,118.0
10189,B3,508.0,0.75,101,118.0
10190,E-3,508.0,0.75,101,118.0
10191,F#4,508.0,51/20,127,118.0
10192,F#4,508.0,51/20,127,118.0
10193,G#4,508.0,2483/1000,120,118.0
10194,G#4,508.0,2483/1000,120,118.0
10195,E-3,508.0,2833/1000,110,118.0
10196,B2,508.0,2833/1000,110,118.0
10197,E-3,508.0,2833/1000,110,118.0
10198,B2,508.0,2833/1000,110,118.0
10199,B3,508.0,1779/500,127,118.0
10200,B3,508.0,1779/500,127,118.0
10201,B3,508.383,124/125,123,118.0
10202,G#3,508.383,124/125,123,118.0
10203,G#1,508.5,0.125,110,118.0
10204,G#2,508.5,0.25,81,118.0
10205,G#1,508.5,0.125,110,118.0
10206,G#2,508.5,0.25,116,118.0
10207,G#1,508.75,233/1000,110,118.0
10208,F#2,508.75,0.25,96,118.0
10209,G#1,508.75,233/1000,110,118.0
10210,E-2,508.75,0.25,120,118.0
10211,B1,509.0,129/500,127,118.0
10212,E2,509.0,0.5,110,118.0
10213,B-2,509.0,0.25,109,118.0
10214,E-3,509.0,0.125,81,118.0
10215,B1,509.0,129/500,127,118.0
10216,G#3,509.0,0.5,105,118.0
10217,E-3,509.0,0.5,105,118.0
10218,B3,509.0,0.5,105,118.0
10219,B-3,509.383,11/20,120,118.0
10220,B1,509.5,0.125,110,118.0
10221,G#2,509.5,0.25,81,118.0
10222,B1,509.5,0.125,110,118.0
10223,G#2,509.5,0.25,116,118.0
10224,B1,509.75,283/1000,110,118.0
10225,F#2,509.75,0.25,96,118.0
10226,B1,509.75,283/1000,110,118.0
10227,E-3,509.75,0.25,92,118.0
10228,G#3,509.75,0.25,92,118.0
10229,B3,509.75,0.25,92,118.0
10230,G#3,509.883,21/20,126,118.0
10231,E-2,510.0,0.25,127,118.0
10232,E-3,510.0,567/1000,86,118.0
10233,C2,510.0,0.5,120,118.0
10234,B-2,510.0,0.25,109,118.0
10235,E-2,510.0,0.25,127,118.0
10236,G#3,510.25,0.25,103,118.0
10237,E-3,510.25,0.25,103,118.0
10238,B3,510.25,0.25,103,118.0
10239,E-2,510.5,133/1000,110,118.0
10240,G#2,510.5,0.25,92,118.0
10241,E-2,510.5,133/1000,110,118.0
10242,G#2,510.5,0.25,116,118.0
10243,F#5,510.5,529/500,127,118.0
10244,F#4,510.5,421/500,127,118.0
10245,F#3,510.583,379/500,120,118.0
10246,F#3,510.583,379/500,120,118.0
10247,E-2,510.75,267/1000,110,118.0
10248,F#2,510.75,0.25,86,118.0
10249,E-2,510.75,267/1000,110,118.0
10250,E-2,510.75,0.25,95,118.0
10251,F#3,510.883,1.125,126,118.0
10252,B1,511.0,233/1000,127,118.0
10253,E2,511.0,0.5,120,118.0
10254,B-2,511.0,0.25,109,118.0
10255,E-3,511.0,7/40,100,118.0
10256,B1,511.0,233/1000,127,118.0
10257,G#1,511.0,0.75,116,118.0
10258,B-3,511.0,0.5,111,118.0
10259,G#3,511.0,0.5,111,118.0
10260,E-3,511.0,0.5,111,118.0
10261,B3,511.375,0.625,120,118.0
10262,B3,511.375,0.625,120,118.0
10263,B1,511.5,0.125,110,118.0
10264,B1,511.5,0.125,110,118.0
10265,G#2,511.5,0.5,127,118.0
10266,B3,511.5,0.25,82,118.0
10267,F5,511.5,0.5,127,118.0
10268,F4,511.5,0.5,127,118.0
10269,C2,511.5,0.25,76,118.0
10270,G#2,511.5,0.25,76,118.0
10271,B1,511.75,0.25,110,118.0
10272,F#2,511.75,0.25,104,118.0
10273,B1,511.75,0.25,110,118.0
10274,E-2,511.75,0.25,109,118.0
10275,G#3,511.883,0.5,118,118.0
10276,C#3,511.883,0.5,118,118.0
10277,C#2,512.0,367/1000,127,118.0
10278,B1,512.0,29/500,110,118.0
10279,C#3,512.0,0.125,114,118.0
10280,C2,512.0,0.5,113,118.0
10281,B-2,512.0,0.25,114,118.0
10282,C#2,512.0,367/1000,127,118.0
10283,B1,512.0,29/500,110,118.0
10284,C#2,512.0,0.5,120,118.0
10285,F5,512.0,279/500,127,118.0
10286,F4,512.0,47/20,127,118.0
10287,G#3,512.0,0.75,95,118.0
10288,C#4,512.0,0.75,95,118.0
10289,F3,512.0,0.75,95,118.0
10290,F4,512.0,47/20,120,118.0
10291,F4,512.0,47/20,120,118.0
10292,C#3,512.0,31/10,116,118.0
10293,G#3,512.0,31/10,116,118.0
10294,C#4,512.0,31/10,116,118.0
10295,C#3,512.0,31/10,116,118.0
10296,G#3,512.0,31/10,116,118.0
10297,C#4,512.0,31/10,116,118.0
10298,B3,512.0,283/1000,120,118.0
10299,B3,512.0,283/1000,120,118.0
10300,G#3,512.383,524/125,118,118.0
10301,C#3,512.383,623/250,118,118.0
10302,C#2,512.5,0.125,110,118.0
10303,G#2,512.5,0.25,92,118.0
10304,C#2,512.5,0.125,110,118.0
10305,C#3,512.5,0.25,120,118.0
10306,C#2,512.75,133/1000,110,118.0
10307,F#2,512.75,0.25,96,118.0
10308,C#2,512.75,133/1000,110,118.0
10309,G#2,512.75,0.25,89,118.0
10310,C#2,513.0,13/40,127,118.0
10311,E2,513.0,0.75,110,118.0
10312,B-2,513.0,0.25,104,118.0
10313,E-3,513.0,67/1000,86,118.0
10314,C#2,513.0,13/40,127,118.0
10315,C#4,513.0,0.5,103,118.0
10316,G#3,513.0,0.5,103,118.0
10317,F3,513.0,0.5,103,118.0
10318,C#2,513.5,0.125,110,118.0
10319,G#2,513.5,0.25,92,118.0
10320,C#2,513.5,0.125,110,118.0
10321,C#3,513.5,0.25,109,118.0
10322,C#2,513.75,71/500,110,118.0
10323,F#2,513.75,0.25,104,118.0
10324,C#2,513.75,71/500,110,118.0
10325,C#4,513.75,0.25,89,118.0
10326,G#3,513.75,0.25,89,118.0
10327,F3,513.75,0.25,89,118.0
10328,C#2,514.0,267/1000,127,118.0
10329,E-3,514.0,29/500,84,118.0
10330,C2,514.0,0.75,110,118.0
10331,B-2,514.0,0.25,109,118.0
10332,C#2,514.0,267/1000,127,118.0
10333,F3,514.25,0.25,98,118.0
10334,G#3,514.25,0.25,98,118.0
10335,C#4,514.25,0.25,98,118.0
10336,C#2,514.5,0.125,110,118.0
10337,G#2,514.5,0.25,104,118.0
10338,C#2,514.5,0.125,110,118.0
10339,C#3,514.5,0.25,104,118.0
10340,E-5,514.5,529/500,127,118.0
10341,E-4,514.5,33/40,127,118.0
10342,F#4,514.5,33/40,120,118.0
10343,F#4,514.5,33/40,120,118.0
10344,E-4,514.5,521/500,127,118.0
10345,E-4,514.5,521/500,127,118.0
10346,C#2,514.75,0.125,110,118.0
10347,F#2,514.75,0.25,104,118.0
10348,C#2,514.75,0.125,110,118.0
10349,G#2,514.75,0.25,104,118.0
10350,B2,514.883,127/250,110,118.0
10351,C#2,515.0,233/1000,127,118.0
10352,E-3,515.0,1/20,96,118.0
10353,C#2,515.0,233/1000,127,118.0
10354,C#2,515.0,0.25,124,118.0
10355,E2,515.0,0.25,111,118.0
10356,B-2,515.0,0.25,111,118.0
10357,F#3,515.25,0.25,110,118.0
10358,E-3,515.25,0.25,110,118.0
10359,B3,515.25,0.25,110,118.0
10360,E-3,515.383,0.5,105,118.0
10361,C#2,515.5,0.25,110,118.0
10362,C#2,515.5,0.25,110,118.0
10363,C#3,515.5,0.25,124,118.0
10364,F5,515.5,0.5,127,118.0
10365,C#4,515.5,0.5,127,118.0
10366,C2,515.5,0.25,97,118.0
10367,G#2,515.5,0.25,97,118.0
10368,G#4,515.5,0.5,120,118.0
10369,G#4,515.5,0.5,120,118.0
10370,F4,515.5,0.5,127,118.0
10371,F4,515.5,0.5,127,118.0
10372,B1,515.75,0.25,110,118.0
10373,F#2,515.75,0.25,96,118.0
10374,B1,515.75,0.25,110,118.0
10375,G#2,515.75,0.25,109,118.0
10376,C#3,515.883,0.5,117,118.0
10377,C#2,516.0,0.375,127,118.0
10378,B1,516.0,1/10,110,118.0
10379,C2,516.0,0.5,117,118.0
10380,B-2,516.0,0.25,109,118.0
10381,E-3,516.0,117/1000,92,118.0
10382,C#2,516.0,0.375,127,118.0
10383,B1,516.0,1/10,110,118.0
10384,C#2,516.0,0.5,124,118.0
10385,F5,516.0,279/500,127,118.0
10386,C#4,516.0,271/500,127,118.0
10387,F3,516.0,0.75,105,118.0
10388,C#4,516.0,0.75,105,118.0
10389,G#3,516.0,0.75,105,118.0
10390,G#3,516.0,1579/500,110,118.0
10391,C#3,516.0,1579/500,110,118.0
10392,C#4,516.0,1579/500,110,118.0
10393,G#3,516.0,1579/500,110,118.0
10394,C#3,516.0,1579/500,110,118.0
10395,C#4,516.0,1579/500,110,118.0
10396,G#4,516.0,779/500,120,118.0
10397,G#4,516.0,779/500,120,118.0
10398,F4,516.0,16/5,127,118.0
10399,F4,516.0,16/5,127,118.0
10400,C#2,516.5,117/1000,110,118.0
10401,G#2,516.5,0.25,104,118.0
10402,C#2,516.5,117/1000,110,118.0
10403,C#3,516.5,0.25,120,118.0
10404,C#3,516.575,121/500,117,118.0
10405,C#2,516.75,79/500,110,118.0
10406,F#2,516.75,0.25,92,118.0
10407,C#2,516.75,79/500,110,118.0
10408,G#2,516.75,0.25,120,118.0
10409,C#2,517.0,171/500,127,118.0
10410,E2,517.0,0.5,113,118.0
10411,C#2,517.0,171/500,127,118.0
10412,B-2,517.0,24/125,104,118.0
10413,E-3,517.0,24/125,104,118.0
10414,F3,517.0,0.5,106,118.0
10415,G#3,517.0,0.5,106,118.0
10416,C#4,517.0,0.5,106,118.0
10417,C#2,517.5,0.125,110,118.0
10418,G#2,517.5,0.25,96,118.0
10419,C#2,517.5,0.125,110,118.0
10420,C#3,517.5,0.25,120,118.0
10421,C#2,517.75,133/1000,110,118.0
10422,F#2,517.75,0.25,96,118.0
10423,C#2,517.75,133/1000,110,118.0
10424,C#4,517.75,0.25,91,118.0
10425,G#3,517.75,0.25,91,118.0
10426,E3,517.75,0.25,91,118.0
10427,C#2,518.0,7/20,127,118.0
10428,E-3,518.0,183/1000,100,118.0
10429,C2,518.0,0.75,120,118.0
10430,B-2,518.0,0.25,109,118.0
10431,C#2,518.0,7/20,127,118.0
10432,E-2,518.25,7/20,110,118.0
10433,E-2,518.25,7/20,110,118.0
10434,C#2,518.5,0.125,110,118.0
10435,G#2,518.5,0.25,96,118.0
10436,C#2,518.5,0.125,110,118.0
10437,G#2,518.75,133/1000,110,118.0
10438,F#2,518.75,0.25,100,118.0
10439,G#2,518.75,133/1000,110,118.0
10440,C#3,519.0,0.375,127,118.0
10441,E2,519.0,0.5,113,118.0
10442,C#3,519.0,0.375,127,118.0
10443,B-2,519.0,1/5,112,118.0
10444,E-3,519.0,1/5,112,118.0
10445,E-3,519.25,0.125,110,118.0
10446,E-3,519.25,0.125,110,118.0
10447,C#3,519.5,0.125,110,118.0
10448,G3,519.5,133/1000,97,118.0
10449,C#3,519.5,0.125,110,118.0
10450,C2,519.5,0.25,88,118.0
10451,G#2,519.5,0.25,88,118.0
10452,C#2,519.75,133/1000,110,118.0
10453,F#2,519.75,0.25,54,118.0
10454,C#2,519.75,133/1000,110,118.0
10455,B1,520.0,11/40,127,118.0
10456,B1,520.0,11/40,127,118.0
10457,B1,520.0,1.0,99,118.0
10458,B2,520.0,0.25,106,118.0
10459,F#4,520.0,373/250,117,118.0
10460,F#5,520.0,529/500,127,118.0
10461,A3,520.0,0.25,94,118.0
10462,B-2,520.0,0.25,94,118.0
10463,C2,520.0,0.5,106,118.0
10464,B-2,520.0,0.5,106,118.0
10465,E-4,520.0,0.75,101,118.0
10466,B3,520.0,0.75,101,118.0
10467,F#3,520.0,0.75,101,118.0
10468,F#3,520.0,2.875,110,118.0
10469,F#3,520.0,2.875,110,118.0
10470,B2,520.0,3083/1000,110,118.0
10471,B3,520.0,3083/1000,110,118.0
10472,B2,520.0,3083/1000,110,118.0
10473,B3,520.0,3083/1000,110,118.0
10474,C#4,520.0,1667/1000,127,118.0
10475,C#4,520.0,1667/1000,127,118.0
10476,B1,520.5,133/1000,110,118.0
10477,G#2,520.5,0.25,60,118.0
10478,B1,520.5,133/1000,110,118.0
10479,B2,520.5,0.75,96,118.0
10480,B-3,520.575,174/125,110,118.0
10481,C#4,520.575,174/125,110,118.0
10482,B1,520.75,117/1000,110,118.0
10483,F#2,520.75,0.25,104,118.0
10484,B1,520.75,117/1000,110,118.0
10485,B1,521.0,13/40,127,118.0
10486,E-3,521.0,3/40,84,118.0
10487,B1,521.0,13/40,127,118.0
10488,E2,521.0,0.5,113,118.0
10489,B-2,521.0,0.5,113,118.0
10490,B3,521.0,0.5,105,118.0
10491,F#3,521.0,0.5,105,118.0
10492,E-4,521.0,0.5,105,118.0
10493,B1,521.5,0.125,110,118.0
10494,G#2,521.5,0.25,64,118.0
10495,B1,521.5,0.125,110,118.0
10496,B2,521.5,0.25,121,118.0
10497,B4,521.5,251/125,117,118.0
10498,B5,521.5,529/500,127,118.0
10499,E-4,521.5,2033/1000,127,118.0
10500,E-4,521.5,2033/1000,127,118.0
10501,B1,521.75,133/1000,110,118.0
10502,F#2,521.75,0.25,104,118.0
10503,B1,521.75,133/1000,110,118.0
10504,B3,521.75,0.25,99,118.0
10505,E-4,521.75,0.25,99,118.0
10506,F#3,521.75,0.25,99,118.0
10507,B1,522.0,283/1000,127,118.0
10508,C2,522.0,0.75,53,118.0
10509,B-2,522.0,0.5,104,118.0
10510,E-3,522.0,21/500,96,118.0
10511,B1,522.0,283/1000,127,118.0
10512,B3,522.075,1967/1000,115,118.0
10513,E-4,522.075,1967/1000,115,118.0
10514,B-3,522.25,0.25,105,118.0
10515,E-4,522.25,0.25,105,118.0
10516,B3,522.25,0.25,105,118.0
10517,F#3,522.25,0.25,105,118.0
10518,B1,522.5,0.125,110,118.0
10519,G#2,522.5,0.25,79,118.0
10520,B1,522.5,0.125,110,118.0
10521,B2,522.5,0.25,100,118.0
10522,B1,522.75,133/1000,110,118.0
10523,F#2,522.75,0.25,104,118.0
10524,B1,522.75,133/1000,110,118.0
10525,F#2,522.75,0.25,112,118.0
10526,B1,523.0,11/40,127,118.0
10527,E-3,523.0,1/20,86,118.0
10528,B1,523.0,11/40,127,118.0
10529,B3,523.0,0.25,110,118.0
10530,E2,523.0,0.5,116,118.0
10531,B-2,523.0,0.5,116,118.0
10532,B1,523.0,0.5,111,118.0
10533,C#4,523.0,0.5,111,118.0
10534,F#3,523.0,0.5,111,118.0
10535,B1,523.5,117/1000,110,118.0
10536,B1,523.5,117/1000,110,118.0
10537,C#6,523.5,0.5,127,118.0
10538,C2,523.5,0.25,82,118.0
10539,G#2,523.5,0.25,82,118.0
10540,B2,523.5,0.25,91,118.0
10541,E-4,523.5,0.25,91,118.0
10542,F#3,523.5,0.25,91,118.0
10543,C#4,523.5,0.5,110,118.0
10544,G#3,523.5,0.5,110,118.0
10545,E3,523.5,0.5,110,118.0
10546,C#4,523.5,0.5,110,118.0
10547,G#3,523.5,0.5,110,118.0
10548,E3,523.5,0.5,110,118.0
10549,E4,523.5,0.5,127,118.0
10550,E4,523.5,0.5,127,118.0
10551,A4,523.5,0.5,110,118.0
10552,C#5,523.5,0.5,110,118.0
10553,B1,523.75,233/1000,110,118.0
10554,F#2,523.75,0.25,100,118.0
10555,B1,523.75,233/1000,110,118.0
10556,F#2,523.75,0.25,116,118.0
10557,A1,524.0,0.25,127,118.0
10558,E-3,524.0,23/250,86,118.0
10559,A1,524.0,0.25,127,118.0
10560,A2,524.0,0.25,103,118.0
10561,C#6,524.0,279/500,127,118.0
10562,C2,524.0,0.5,118,118.0
10563,B-2,524.0,0.5,118,118.0
10564,C#4,524.0,0.75,105,118.0
10565,A3,524.0,0.75,105,118.0
10566,B3,524.0,0.75,105,118.0
10567,A1,524.0,0.75,105,118.0
10568,E4,524.0,0.75,105,118.0
10569,C#4,524.0,51/20,110,118.0
10570,G#3,524.0,51/20,110,118.0
10571,E3,524.0,51/20,110,118.0
10572,C#4,524.0,51/20,110,118.0
10573,G#3,524.0,51/20,110,118.0
10574,E3,524.0,51/20,110,118.0
10575,E4,524.0,111/40,127,118.0
10576,E4,524.0,111/40,127,118.0
10577,A4,524.0,2767/1000,110,118.0
10578,C#5,524.0,2767/1000,110,118.0
10579,E4,524.075,0.5,112,118.0
10580,C#4,524.075,0.5,112,118.0
10581,A1,524.5,27/250,110,118.0
10582,A1,524.5,27/250,110,118.0
10583,A2,524.5,0.25,114,118.0
10584,E4,524.575,2917/1000,112,118.0
10585,C#4,524.575,2917/1000,112,118.0
10586,A1,524.75,117/1000,110,118.0
10587,G#2,524.75,0.25,75,118.0
10588,A1,524.75,117/1000,110,118.0
10589,E2,524.75,0.25,110,118.0
10590,A1,525.0,9/40,127,118.0
10591,E2,525.0,0.5,110,118.0
10592,E-3,525.0,29/500,96,118.0
10593,A1,525.0,9/40,127,118.0
10594,F#2,525.0,0.25,96,118.0
10595,B-2,525.0,0.25,96,118.0
10596,A3,525.0,0.5,111,118.0
10597,C#4,525.0,0.5,111,118.0
10598,E4,525.0,0.5,111,118.0
10599,B3,525.0,0.5,111,118.0
10600,A1,525.5,0.125,110,118.0
10601,G#2,525.5,0.25,81,118.0
10602,A1,525.5,0.125,110,118.0
10603,A2,525.5,0.25,90,118.0
10604,A1,525.75,0.125,110,118.0
10605,F#2,525.75,0.25,96,118.0
10606,A1,525.75,0.125,110,118.0
10607,E4,525.75,0.25,96,118.0
10608,C#4,525.75,0.25,96,118.0
10609,A3,525.75,0.25,96,118.0
10610,B3,525.75,0.25,96,118.0
10611,A1,526.0,183/1000,127,118.0
10612,E-3,526.0,83/1000,96,118.0
10613,C2,526.0,0.75,113,118.0
10614,B-2,526.0,0.25,100,118.0
10615,A1,526.0,183/1000,127,118.0
10616,E4,526.25,0.25,108,118.0
10617,C#4,526.25,0.25,108,118.0
10618,A3,526.25,0.25,108,118.0
10619,B3,526.25,0.25,108,118.0
10620,A1,526.5,71/500,110,118.0
10621,G#2,526.5,0.25,89,118.0
10622,A1,526.5,71/500,110,118.0
10623,A2,526.5,0.25,105,118.0
10624,A1,526.75,0.125,110,118.0
10625,F#2,526.75,0.25,92,118.0
10626,A1,526.75,0.125,110,118.0
10627,E2,526.75,0.25,92,118.0
10628,A1,527.0,0.25,127,118.0
10629,E-3,527.0,79/500,96,118.0
10630,E2,527.0,0.5,110,118.0
10631,B-2,527.0,0.25,109,118.0
10632,A1,527.0,0.25,127,118.0
10633,E-4,527.0,0.5,99,118.0
10634,C#6,527.0,1.0,127,118.0
10635,B3,527.0,0.75,109,118.0
10636,A3,527.0,0.75,109,118.0
10637,A1,527.0,0.75,109,118.0
10638,E4,527.0,1.0,127,118.0
10639,E4,527.0,1.0,127,118.0
10640,A4,527.0,19/20,115,118.0
10641,C#5,527.0,19/20,115,118.0
10642,A1,527.5,27/250,110,118.0
10643,A1,527.5,27/250,110,118.0
10644,C2,527.5,0.25,82,118.0
10645,G#2,527.5,0.25,82,118.0
10646,E4,527.5,0.25,105,118.0
10647,A2,527.5,0.25,105,118.0
10648,E4,527.575,124/125,108,118.0
10649,C#4,527.575,124/125,108,118.0
10650,A1,527.75,9/40,110,118.0
10651,F#2,527.75,0.25,92,118.0
10652,A1,527.75,9/40,110,118.0
10653,E2,527.75,0.25,112,118.0
10654,G#1,528.0,9/40,127,118.0
10655,E-3,528.0,3/20,109,118.0
10656,C2,528.0,0.5,110,118.0
10657,B-2,528.0,0.25,114,118.0
10658,G#1,528.0,9/40,127,118.0
10659,G#2,528.0,0.25,93,118.0
10660,B5,528.0,529/500,127,118.0
10661,C#6,528.0,29/500,127,118.0
10662,E-4,528.0,0.75,91,118.0
10663,B3,528.0,0.75,91,118.0
10664,G#3,528.0,0.75,91,118.0
10665,G#1,528.0,0.75,91,118.0
10666,F#3,528.0,121/40,110,118.0
10667,E-3,528.0,121/40,110,118.0
10668,F#3,528.0,121/40,110,118.0
10669,E-3,528.0,121/40,110,118.0
10670,E-4,528.0,1033/1000,127,118.0
10671,E-4,528.0,1033/1000,127,118.0
10672,E4,528.0,33/1000,127,118.0
10673,E4,528.0,33/1000,127,118.0
10674,G#4,528.0,11/10,111,118.0
10675,B4,528.0,11/10,111,118.0
10676,G#1,528.5,117/1000,110,118.0
10677,G#2,528.5,0.25,77,118.0
10678,G#1,528.5,117/1000,110,118.0
10679,G#2,528.5,0.5,127,118.0
10680,E-4,528.575,583/1000,114,118.0
10681,B3,528.575,583/1000,114,118.0
10682,G#1,528.75,233/1000,110,118.0
10683,F#2,528.75,0.25,96,118.0
10684,G#1,528.75,233/1000,110,118.0
10685,E-2,528.75,0.25,61,118.0
10686,B1,529.0,121/500,127,118.0
10687,E2,529.0,0.75,110,118.0
10688,E-3,529.0,133/1000,104,118.0
10689,B1,529.0,121/500,127,118.0
10690,B-4,529.0,43/40,117,118.0
10691,B-5,529.0,529/500,127,118.0
10692,F#2,529.0,0.25,74,118.0
10693,B-2,529.0,0.25,74,118.0
10694,E-4,529.0,0.5,113,118.0
10695,G#3,529.0,0.5,113,118.0
10696,B3,529.0,0.5,113,118.0
10697,C#4,529.0,1133/1000,127,118.0
10698,C#4,529.0,1133/1000,127,118.0
10699,B1,529.5,27/250,110,118.0
10700,G#2,529.5,0.25,86,118.0
10701,B1,529.5,27/250,110,118.0
10702,G#2,529.5,0.25,127,118.0
10703,B1,529.75,317/1000,110,118.0
10704,F#2,529.75,0.25,100,118.0
10705,B1,529.75,317/1000,110,118.0
10706,E-4,529.75,0.25,91,118.0
10707,B3,529.75,0.25,91,118.0
10708,G#3,529.75,0.25,91,118.0
10709,E-2,530.0,267/1000,127,118.0
10710,C2,530.0,0.75,110,118.0
10711,B-2,530.0,0.25,109,118.0
10712,E-3,530.0,71/500,100,118.0
10713,E-2,530.0,267/1000,127,118.0
10714,G#4,530.0,41/40,117,118.0
10715,G#5,530.0,529/500,127,118.0
10716,B3,530.0,43/40,127,118.0
10717,B3,530.0,43/40,127,118.0
10718,E-4,530.25,0.25,106,118.0
10719,B3,530.25,0.25,106,118.0
10720,G#3,530.25,0.25,106,118.0
10721,E-2,530.5,133/1000,110,118.0
10722,G#2,530.5,0.25,92,118.0
10723,E-2,530.5,133/1000,110,118.0
10724,G#2,530.5,0.25,127,118.0
10725,E-2,530.75,73/250,110,118.0
10726,F#2,530.75,0.25,100,118.0
10727,E-2,530.75,73/250,110,118.0
10728,E-2,530.75,0.25,106,118.0
10729,B1,531.0,9/40,127,118.0
10730,E2,531.0,0.5,110,118.0
10731,B-2,531.0,0.25,114,118.0
10732,E-3,531.0,0.125,109,118.0
10733,B1,531.0,9/40,127,118.0
10734,B-1,531.0,0.25,71,118.0
10735,F#4,531.0,1.0,115,118.0
10736,F#5,531.0,1.0,127,118.0
10737,C#4,531.0,0.5,108,118.0
10738,B3,531.0,0.5,108,118.0
10739,G#3,531.0,0.75,110,118.0
10740,G#1,531.0,0.75,110,118.0
10741,B-3,531.0,1.0,127,118.0
10742,B-3,531.0,1.0,127,118.0
10743,B1,531.5,0.125,110,118.0
10744,B1,531.5,0.125,110,118.0
10745,E-4,531.5,0.25,74,118.0
10746,G#2,531.5,0.5,127,118.0
10747,C2,531.5,0.25,77,118.0
10748,G#2,531.5,0.25,77,118.0
10749,B1,531.75,0.25,110,118.0
10750,F#2,531.75,0.25,100,118.0
10751,B1,531.75,0.25,110,118.0
10752,E-2,531.75,0.25,116,118.0
10753,C#2,532.0,317/1000,127,118.0
10754,B1,532.0,33/1000,110,118.0
10755,C2,532.0,0.75,120,118.0
10756,E-3,532.0,71/500,96,118.0
10757,C#2,532.0,317/1000,127,118.0
10758,B1,532.0,33/1000,110,118.0
10759,C#2,532.0,0.5,99,118.0
10760,F#4,532.0,83/1000,115,118.0
10761,F5,532.0,529/500,127,118.0
10762,F#5,532.0,29/500,127,118.0
10763,B-2,532.0,217/1000,98,118.0
10764,G3,532.0,217/1000,98,118.0
10765,C#4,532.0,0.75,93,118.0
10766,F3,532.0,0.75,93,118.0
10767,G#3,532.0,0.75,93,118.0
10768,C#4,532.0,1471/500,110,118.0
10769,C#4,532.0,1471/500,110,118.0
10770,C#3,532.0,3033/1000,110,118.0
10771,C#3,532.0,3033/1000,110,118.0
10772,G#3,532.0,1071/500,127,118.0
10773,G#3,532.0,1071/500,127,118.0
10774,C#4,532.0,37/20,118,118.0
10775,F4,532.0,37/20,118,118.0
10776,C#2,532.5,0.125,110,118.0
10777,G#2,532.5,0.25,84,118.0
10778,C#2,532.5,0.125,110,118.0
10779,C#3,532.5,0.25,124,118.0
10780,C#2,532.75,71/500,110,118.0
10781,F#2,532.75,0.25,89,118.0
10782,C#2,532.75,71/500,110,118.0
10783,G#2,532.75,0.25,109,118.0
10784,C#2,533.0,283/1000,127,118.0
10785,E2,533.0,0.75,113,118.0
10786,B-2,533.0,0.25,114,118.0
10787,E-3,533.0,0.125,96,118.0
10788,C#2,533.0,283/1000,127,118.0
10789,C#4,533.0,0.5,102,118.0
10790,G#3,533.0,0.5,102,118.0
10791,F3,533.0,0.5,102,118.0
10792,C#2,533.5,133/1000,110,118.0
10793,G#2,533.5,0.25,92,118.0
10794,C#2,533.5,133/1000,110,118.0
10795,C#3,533.5,0.25,112,118.0
10796,C#2,533.75,26/125,110,118.0
10797,F#2,533.75,0.25,96,118.0
10798,C#2,533.75,26/125,110,118.0
10799,C#4,533.75,0.25,92,118.0
10800,G#3,533.75,0.25,92,118.0
10801,F3,533.75,0.25,92,118.0
10802,F1,534.0,121/500,127,118.0
10803,E-3,534.0,183/1000,89,118.0
10804,C2,534.0,0.75,113,118.0
10805,B-2,534.0,0.25,114,118.0
10806,F1,534.0,121/500,127,118.0
10807,E-5,534.0,529/500,127,118.0
10808,F#3,534.0,1067/1000,127,118.0
10809,F#3,534.0,1067/1000,127,118.0
10810,B3,534.0,1067/1000,118,118.0
10811,E-4,534.0,1067/1000,118,118.0
10812,F3,534.25,0.25,104,118.0
10813,C#4,534.25,0.25,104,118.0
10814,G#3,534.25,0.25,104,118.0
10815,F1,534.5,117/1000,110,118.0
10816,G#2,534.5,0.25,100,118.0
10817,F1,534.5,117/1000,110,118.0
10818,C#3,534.5,0.25,120,118.0
10819,F1,534.75,1/10,110,118.0
10820,F#2,534.75,0.25,100,118.0
10821,F1,534.75,1/10,110,118.0
10822,G#2,534.75,0.25,106,118.0
10823,F1,535.0,267/1000,127,118.0
10824,E2,535.0,0.5,110,118.0
10825,B-2,535.0,0.25,114,118.0
10826,E-3,535.0,0.625,100,118.0
10827,F1,535.0,267/1000,127,118.0
10828,B3,535.0,0.25,92,118.0
10829,F3,535.0,0.75,91,118.0
10830,F5,535.0,1.0,127,118.0
10831,C#2,535.0,0.5,116,118.0
10832,G#3,535.0,0.5,116,118.0
10833,G#3,535.0,33/40,127,118.0
10834,G#3,535.0,33/40,127,118.0
10835,C#4,535.0,17/20,106,118.0
10836,F4,535.0,17/20,106,118.0
10837,F1,535.5,233/1000,110,118.0
10838,F1,535.5,233/1000,110,118.0
10839,C2,535.5,0.25,87,118.0
10840,G#2,535.5,0.25,87,118.0
10841,C#3,535.5,0.25,108,118.0
10842,C#4,535.5,0.25,108,118.0
10843,G#1,535.75,26/125,110,118.0
10844,F#2,535.75,0.25,109,118.0
10845,G#1,535.75,26/125,110,118.0
10846,G#2,535.75,0.25,116,118.0
10847,F#1,536.0,283/1000,127,118.0
10848,C2,536.0,0.5,113,118.0
10849,E-3,536.0,7/40,119,118.0
10850,F#1,536.0,283/1000,127,118.0
10851,F5,536.0,529/500,127,118.0
10852,F5,536.0,29/500,127,118.0
10853,B-2,536.0,233/1000,111,118.0
10854,G3,536.0,233/1000,111,118.0
10855,B-3,536.0,0.75,102,118.0
10856,F#3,536.0,0.75,102,118.0
10857,C#3,536.0,0.75,102,118.0
10858,F#2,536.0,0.25,100,118.0
10859,F#1,536.0,0.25,100,118.0
10860,F2,536.0,0.25,100,118.0
10861,E2,536.0,0.25,100,118.0
10862,C#3,536.0,627/250,110,118.0
10863,C#4,536.0,627/250,110,118.0
10864,F#3,536.0,627/250,110,118.0
10865,C#3,536.0,627/250,110,118.0
10866,C#4,536.0,627/250,110,118.0
10867,F#3,536.0,627/250,110,118.0
10868,G#3,536.0,199/125,127,118.0
10869,G#3,536.0,199/125,127,118.0
10870,F4,536.0,1483/1000,116,118.0
10871,C#4,536.0,1483/1000,116,118.0
10872,F#1,536.5,0.125,110,118.0
10873,G#2,536.5,0.25,96,118.0
10874,F#1,536.5,0.125,110,118.0
10875,F#2,536.5,0.5,124,118.0
10876,F#1,536.75,27/250,110,118.0
10877,F#2,536.75,0.25,100,118.0
10878,F#1,536.75,27/250,110,118.0
10879,F#1,537.0,11/40,127,118.0
10880,E2,537.0,0.75,110,118.0
10881,B-2,537.0,0.25,114,118.0
10882,E-3,537.0,71/500,104,118.0
10883,F#1,537.0,11/40,127,118.0
10884,C#2,537.0,0.25,41,118.0
10885,C#3,537.0,0.5,106,118.0
10886,F#3,537.0,0.5,106,118.0
10887,B-3,537.0,0.5,106,118.0
10888,F#1,537.5,1/10,110,118.0
10889,G#2,537.5,0.25,92,118.0
10890,F#1,537.5,1/10,110,118.0
10891,F#2,537.5,0.25,106,118.0
10892,B-3,537.5,1867/1000,115,118.0
10893,F#4,537.5,59/40,115,118.0
10894,F#5,537.5,529/500,127,118.0
10895,B-3,537.5,2083/1000,127,118.0
10896,B-3,537.5,2083/1000,127,118.0
10897,F#1,537.75,133/1000,110,118.0
10898,F#2,537.75,0.25,100,118.0
10899,F#1,537.75,133/1000,110,118.0
10900,B-3,537.75,0.25,96,118.0
10901,F#3,537.75,0.25,96,118.0
10902,C#3,537.75,0.25,96,118.0
10903,F#1,538.0,129/500,127,118.0
10904,C2,538.0,0.75,120,118.0
10905,F#1,538.0,129/500,127,118.0
10906,B-2,538.0,11/40,107,118.0
10907,E-3,538.0,11/40,107,118.0
10908,B-3,538.25,0.25,103,118.0
10909,F#3,538.25,0.25,103,118.0
10910,C#3,538.25,0.25,103,118.0
10911,F#1,538.5,117/1000,110,118.0
10912,G#2,538.5,0.25,96,118.0
10913,F#1,538.5,117/1000,110,118.0
10914,F#2,538.5,0.25,124,118.0
10915,F#1,538.75,0.125,110,118.0
10916,F#2,538.75,0.25,100,118.0
10917,F#1,538.75,0.125,110,118.0
10918,C#2,538.75,0.25,120,118.0
10919,F#1,539.0,3/10,127,118.0
10920,E2,539.0,0.5,117,118.0
10921,B-2,539.0,0.25,100,118.0
10922,E-3,539.0,23/40,109,118.0
10923,F#1,539.0,3/10,127,118.0
10924,G#1,539.0,0.25,79,118.0
10925,C#3,539.0,0.75,79,118.0
10926,C#4,539.0,517/1000,115,118.0
10927,C#5,539.0,1.0,127,118.0
10928,F#1,539.0,0.5,115,118.0
10929,F#3,539.0,0.5,115,118.0
10930,G#3,539.0,0.5,115,118.0
10931,F#1,539.5,117/1000,110,118.0
10932,F#1,539.5,117/1000,110,118.0
10933,F#2,539.5,0.5,124,118.0
10934,B-3,539.5,0.25,83,118.0
10935,E-5,539.5,0.5,127,118.0
10936,C2,539.5,0.25,90,118.0
10937,G#2,539.5,0.25,90,118.0
10938,E-3,539.5,0.5,110,118.0
10939,B2,539.5,0.5,110,118.0
10940,E-3,539.5,0.5,110,118.0
10941,B2,539.5,0.5,110,118.0
10942,B3,539.5,0.5,127,118.0
10943,B3,539.5,0.5,127,118.0
10944,B3,539.5,0.5,112,118.0
10945,E-4,539.5,0.5,112,118.0
10946,F#1,539.75,1/5,110,118.0
10947,F#2,539.75,0.25,92,118.0
10948,F#1,539.75,1/5,110,118.0
10949,C#2,539.75,0.25,112,118.0
10950,G#1,540.0,0.25,127,118.0
10951,C2,540.0,0.5,110,118.0
10952,B-2,540.0,0.25,104,118.0
10953,E-3,540.0,133/1000,100,118.0
10954,G#1,540.0,0.25,127,118.0
10955,G#1,540.0,0.5,127,118.0
10956,B-1,540.0,0.25,101,118.0
10957,C#5,540.0,29/500,127,118.0
10958,E-5,540.0,279/500,127,118.0
10959,G#3,540.0,0.75,101,118.0
10960,B3,540.0,0.75,101,118.0
10961,E-3,540.0,0.75,101,118.0
10962,E-3,540.0,2833/1000,110,118.0
10963,B2,540.0,2833/1000,110,118.0
10964,E-3,540.0,2833/1000,110,118.0
10965,B2,540.0,2833/1000,110,118.0
10966,B3,540.0,1779/500,127,118.0
10967,B3,540.0,1779/500,127,118.0
10968,B3,540.0,1083/1000,112,118.0
10969,E-4,540.0,1083/1000,112,118.0
10970,G#1,540.5,0.125,110,118.0
10971,G#2,540.5,0.25,81,118.0
10972,G#1,540.5,0.125,110,118.0
10973,G#2,540.5,0.25,116,118.0
10974,G#1,540.75,133/1000,110,118.0
10975,F#2,540.75,0.25,96,118.0
10976,G#1,540.75,133/1000,110,118.0
10977,E-2,540.75,0.25,120,118.0
10978,G#1,541.0,121/500,127,118.0
10979,E2,541.0,0.5,110,118.0
10980,G#1,541.0,121/500,127,118.0
10981,B-2,541.0,26/125,112,118.0
10982,E-3,541.0,26/125,112,118.0
10983,G#3,541.0,0.5,105,118.0
10984,E-3,541.0,0.5,105,118.0
10985,B3,541.0,0.5,105,118.0
10986,B-3,541.0,0.5,112,118.0
10987,C#4,541.0,0.5,112,118.0
10988,G#1,541.5,1/10,110,118.0
10989,G#2,541.5,0.25,81,118.0
10990,G#1,541.5,1/10,110,118.0
10991,G#2,541.5,0.25,116,118.0
10992,B3,541.5,126/125,110,118.0
10993,G#3,541.5,1117/1000,102,118.0
10994,G#1,541.75,23/250,110,118.0
10995,F#2,541.75,0.25,96,118.0
10996,G#1,541.75,23/250,110,118.0
10997,E-3,541.75,0.25,92,118.0
10998,G#3,541.75,0.25,92,118.0
10999,B3,541.75,0.25,92,118.0
11000,G#1,542.0,26/125,127,118.0
11001,C2,542.0,0.5,120,118.0
11002,B-2,542.0,0.25,109,118.0
11003,E-3,542.0,74/125,96,118.0
11004,G#1,542.0,26/125,127,118.0
11005,G#3,542.25,0.25,103,118.0
11006,E-3,542.25,0.25,103,118.0
11007,B3,542.25,0.25,103,118.0
11008,G#1,542.5,27/250,110,118.0
11009,G#2,542.5,0.25,92,118.0
11010,G#1,542.5,27/250,110,118.0
11011,G#2,542.5,0.25,116,118.0
11012,F#5,542.5,529/500,127,118.0
11013,E-4,542.5,1117/1000,110,118.0
11014,F#4,542.5,1117/1000,110,118.0
11015,F#3,542.583,379/500,120,118.0
11016,F#3,542.583,379/500,120,118.0
11017,G#1,542.75,27/250,110,118.0
11018,F#2,542.75,0.25,86,118.0
11019,G#1,542.75,27/250,110,118.0
11020,E-2,542.75,0.25,95,118.0
11021,G#1,543.0,1/5,127,118.0
11022,E2,543.0,0.5,120,118.0
11023,G#1,543.0,1/5,127,118.0
11024,G#1,543.0,0.75,116,118.0
11025,B-2,543.0,233/1000,100,118.0
11026,E-3,543.0,233/1000,100,118.0
11027,B-3,543.0,0.5,111,118.0
11028,G#3,543.0,0.5,111,118.0
11029,E-3,543.0,0.5,111,118.0
11030,B3,543.375,0.625,120,118.0
11031,B3,543.375,0.625,120,118.0
11032,G#1,543.5,9/40,110,118.0
11033,G3,543.5,79/500,101,118.0
11034,G#1,543.5,9/40,110,118.0
11035,G#2,543.5,0.5,127,118.0
11036,B3,543.5,0.25,82,118.0
11037,F5,543.5,0.5,127,118.0
11038,C2,543.5,0.25,76,118.0
11039,G#2,543.5,0.25,76,118.0
11040,C#4,543.5,0.5,115,118.0
11041,F4,543.5,0.5,115,118.0
11042,B1,543.75,0.25,110,118.0
11043,F#2,543.75,0.25,104,118.0
11044,B1,543.75,0.25,110,118.0
11045,E-2,543.75,0.25,109,118.0
11046,C#2,544.0,333/1000,127,118.0
11047,B1,544.0,1/40,110,118.0
11048,C2,544.0,0.5,113,118.0
11049,C#2,544.0,333/1000,127,118.0
11050,B1,544.0,1/40,110,118.0
11051,C#2,544.0,0.5,120,118.0
11052,F5,544.0,279/500,127,118.0
11053,B-2,544.0,9/40,110,118.0
11054,A3,544.0,9/40,110,118.0
11055,G#3,544.0,0.75,95,118.0
11056,C#4,544.0,0.75,95,118.0
11057,F3,544.0,0.75,95,118.0
11058,C#3,544.0,31/10,116,118.0
11059,G#3,544.0,31/10,116,118.0
11060,C#4,544.0,31/10,116,118.0
11061,C#3,544.0,31/10,116,118.0
11062,G#3,544.0,31/10,116,118.0
11063,C#4,544.0,31/10,116,118.0
11064,B3,544.0,283/1000,120,118.0
11065,B3,544.0,283/1000,120,118.0
11066,C#4,544.0,1229/500,115,118.0
11067,F4,544.0,1229/500,115,118.0
11068,C#2,544.5,1/10,110,118.0
11069,G#2,544.5,0.25,92,118.0
11070,C#2,544.5,1/10,110,118.0
11071,C#3,544.5,0.25,120,118.0
11072,C#2,544.75,117/1000,110,118.0
11073,F#2,544.75,0.25,96,118.0
11074,C#2,544.75,117/1000,110,118.0
11075,G#2,544.75,0.25,89,118.0
11076,C#2,545.0,73/250,127,118.0
11077,E2,545.0,0.75,110,118.0
11078,B-2,545.0,0.25,104,118.0
11079,E-3,545.0,167/1000,86,118.0
11080,C#2,545.0,73/250,127,118.0
11081,C#4,545.0,0.5,103,118.0
11082,G#3,545.0,0.5,103,118.0
11083,F3,545.0,0.5,103,118.0
11084,C#2,545.5,71/500,110,118.0
11085,G#2,545.5,0.25,92,118.0
11086,C#2,545.5,71/500,110,118.0
11087,C#3,545.5,0.25,109,118.0
11088,C#2,545.75,0.125,110,118.0
11089,F#2,545.75,0.25,104,118.0
11090,C#2,545.75,0.125,110,118.0
11091,C#4,545.75,0.25,89,118.0
11092,G#3,545.75,0.25,89,118.0
11093,F3,545.75,0.25,89,118.0
11094,C#2,546.0,217/1000,127,118.0
11095,C2,546.0,0.75,110,118.0
11096,B-2,546.0,0.25,109,118.0
11097,E-3,546.0,133/1000,79,118.0
11098,C#2,546.0,217/1000,127,118.0
11099,F3,546.25,0.25,98,118.0
11100,G#3,546.25,0.25,98,118.0
11101,C#4,546.25,0.25,98,118.0
11102,C#2,546.5,133/1000,110,118.0
11103,G#2,546.5,0.25,104,118.0
11104,C#2,546.5,133/1000,110,118.0
11105,C#3,546.5,0.25,104,118.0
11106,E-4,546.5,1083/1000,102,118.0
11107,E-5,546.5,529/500,127,118.0
11108,E-4,546.5,521/500,127,118.0
11109,E-4,546.5,521/500,127,118.0
11110,C#2,546.75,117/1000,110,118.0
11111,F#2,546.75,0.25,104,118.0
11112,C#2,546.75,117/1000,110,118.0
11113,G#2,546.75,0.25,104,118.0
11114,C#2,547.0,167/1000,127,118.0
11115,E-3,547.0,117/1000,84,118.0
11116,C#2,547.0,167/1000,127,118.0
11117,C#2,547.0,0.25,124,118.0
11118,E2,547.0,0.25,111,118.0
11119,B-2,547.0,0.25,111,118.0
11120,F#3,547.25,0.25,110,118.0
11121,E-3,547.25,0.25,110,118.0
11122,B3,547.25,0.25,110,118.0
11123,C#2,547.5,283/1000,110,118.0
11124,C#2,547.5,283/1000,110,118.0
11125,C#3,547.5,0.25,124,118.0
11126,F5,547.5,0.5,127,118.0
11127,C2,547.5,0.25,97,118.0
11128,G#2,547.5,0.25,97,118.0
11129,F4,547.5,0.5,127,118.0
11130,F4,547.5,0.5,127,118.0
11131,C#4,547.5,0.5,100,118.0
11132,F4,547.5,0.5,100,118.0
11133,B1,547.75,0.25,110,118.0
11134,F#2,547.75,0.25,96,118.0
11135,B1,547.75,0.25,110,118.0
11136,G#2,547.75,0.25,109,118.0
11137,C#2,548.0,3/10,127,118.0
11138,B1,548.0,1/20,110,118.0
11139,C2,548.0,0.5,117,118.0
11140,B-2,548.0,0.25,109,118.0
11141,E-3,548.0,71/500,86,118.0
11142,C#2,548.0,3/10,127,118.0
11143,B1,548.0,1/20,110,118.0
11144,C#2,548.0,0.5,124,118.0
11145,F5,548.0,279/500,127,118.0
11146,F3,548.0,0.75,105,118.0
11147,C#4,548.0,0.75,105,118.0
11148,G#3,548.0,0.75,105,118.0
11149,G#3,548.0,1579/500,110,118.0
11150,C#3,548.0,1579/500,110,118.0
11151,C#4,548.0,1579/500,110,118.0
11152,G#3,548.0,1579/500,110,118.0
11153,C#3,548.0,1579/500,110,118.0
11154,C#4,548.0,1579/500,110,118.0
11155,F4,548.0,16/5,127,118.0
11156,F4,548.0,16/5,127,118.0
11157,C#4,548.0,1167/1000,100,118.0
11158,F4,548.0,1167/1000,100,118.0
11159,C#2,548.5,117/1000,110,118.0
11160,G#2,548.5,0.25,104,118.0
11161,C#2,548.5,117/1000,110,118.0
11162,C#3,548.5,0.25,120,118.0
11163,C#2,548.75,27/250,110,118.0
11164,F#2,548.75,0.25,92,118.0
11165,C#2,548.75,27/250,110,118.0
11166,G#2,548.75,0.25,120,118.0
11167,C#2,549.0,233/1000,127,118.0
11168,E2,549.0,0.5,113,118.0
11169,B-2,549.0,0.25,104,118.0
11170,E-3,549.0,79/500,86,118.0
11171,C#2,549.0,233/1000,127,118.0
11172,F3,549.0,0.5,106,118.0
11173,G#3,549.0,0.5,106,118.0
11174,C#4,549.0,0.5,106,118.0
11175,C#2,549.5,133/1000,110,118.0
11176,G#2,549.5,0.25,96,118.0
11177,C#2,549.5,133/1000,110,118.0
11178,C#3,549.5,0.25,120,118.0
11179,C#2,549.75,117/1000,110,118.0
11180,F#2,549.75,0.25,96,118.0
11181,C#2,549.75,117/1000,110,118.0
11182,C#4,549.75,0.25,91,118.0
11183,G#3,549.75,0.25,91,118.0
11184,F3,549.75,0.25,91,118.0
11185,C#2,550.0,317/1000,127,118.0
11186,C2,550.0,229/500,120,118.0
11187,C#2,550.0,317/1000,127,118.0
11188,B2,550.0,1/5,109,118.0
11189,B-2,550.0,1/5,109,118.0
11190,E-3,550.0,1/5,109,118.0
11191,C2,550.25,0.5,125,118.0
11192,F3,550.25,0.25,111,118.0
11193,C#4,550.25,0.25,111,118.0
11194,G#3,550.25,0.25,111,118.0
11195,C#2,550.5,133/1000,110,118.0
11196,G#2,550.5,0.25,96,118.0
11197,C#2,550.5,133/1000,110,118.0
11198,C#3,550.5,0.25,116,118.0
11199,C#2,550.75,27/250,110,118.0
11200,F#2,550.75,0.25,100,118.0
11201,C2,550.75,79/500,107,118.0
11202,C#2,550.75,27/250,110,118.0
11203,G#2,550.75,0.25,109,118.0
11204,C#2,551.0,3/10,127,118.0
11205,E2,551.0,0.5,113,118.0
11206,B-2,551.0,0.25,114,118.0
11207,C#2,551.0,3/10,127,118.0
11208,F3,551.0,0.75,93,118.0
11209,E-3,551.0,79/500,112,118.0
11210,A2,551.0,79/500,112,118.0
11211,C#2,551.0,0.5,109,118.0
11212,C#4,551.0,0.5,109,118.0
11213,G#3,551.0,0.5,109,118.0
11214,C2,551.25,1/10,117,118.0
11215,G#1,551.5,26/125,110,118.0
11216,G2,551.5,1/10,92,118.0
11217,G#1,551.5,26/125,110,118.0
11218,C#3,551.5,0.25,112,118.0
11219,C2,551.5,0.25,88,118.0
11220,G#2,551.5,0.25,88,118.0
11221,B-1,551.75,0.25,110,118.0
11222,G2,551.75,83/1000,113,118.0
11223,F#2,551.75,0.25,54,118.0
11224,F2,551.75,17/1000,97,118.0
11225,B-1,551.75,0.25,110,118.0
11226,B1,552.0,267/1000,127,118.0
11227,B-1,552.0,83/1000,110,118.0
11228,E-3,552.0,1/40,86,118.0
11229,B1,552.0,267/1000,127,118.0
11230,B-1,552.0,83/1000,110,118.0
11231,B1,552.0,1.0,99,118.0
11232,B2,552.0,0.25,106,118.0
11233,F#4,552.0,373/250,110,118.0
11234,F#5,552.0,529/500,127,118.0
11235,E3,552.0,0.25,97,118.0
11236,C#3,552.0,0.25,97,118.0
11237,B-2,552.0,0.25,97,118.0
11238,C#3,552.0,7/40,107,118.0
11239,F3,552.0,7/40,107,118.0
11240,C#3,552.0,7/40,107,118.0
11241,C2,552.0,0.5,106,118.0
11242,B-2,552.0,0.5,106,118.0
11243,E-4,552.0,0.75,101,118.0
11244,B3,552.0,0.75,101,118.0
11245,F#3,552.0,0.75,101,118.0
11246,F#3,552.0,2.875,120,118.0
11247,F#3,552.0,2.875,120,118.0
11248,B2,552.0,3083/1000,120,118.0
11249,B3,552.0,3083/1000,120,118.0
11250,B2,552.0,3083/1000,120,118.0
11251,B3,552.0,3083/1000,120,118.0
11252,C#4,552.0,1667/1000,120,118.0
11253,C#4,552.0,1667/1000,120,118.0
11254,B1,552.5,133/1000,126,118.0
11255,G#2,552.5,0.25,60,118.0
11256,B1,552.5,133/1000,126,118.0
11257,B2,552.5,0.75,96,118.0
11258,B1,552.75,3/20,125,118.0
11259,F#2,552.75,0.25,104,118.0
11260,B1,552.75,3/20,125,118.0
11261,B1,553.0,9/40,124,118.0
11262,E-3,553.0,133/1000,100,118.0
11263,B1,553.0,9/40,124,118.0
11264,E2,553.0,0.5,113,118.0
11265,B-2,553.0,0.5,113,118.0
11266,B3,553.0,0.5,105,118.0
11267,F#3,553.0,0.5,105,118.0
11268,E-4,553.0,0.5,105,118.0
11269,B1,553.5,0.125,122,118.0
11270,G#2,553.5,0.25,64,118.0
11271,B1,553.5,0.125,122,118.0
11272,B2,553.5,0.25,121,118.0
11273,B4,553.5,251/125,106,118.0
11274,B5,553.5,529/500,122,118.0
11275,E-4,553.5,2033/1000,115,118.0
11276,E-4,553.5,2033/1000,115,118.0
11277,B1,553.75,0.125,121,118.0
11278,F#2,553.75,0.25,104,118.0
11279,B1,553.75,0.125,121,118.0
11280,B3,553.75,0.25,99,118.0
11281,E-4,553.75,0.25,99,118.0
11282,F#3,553.75,0.25,99,118.0
11283,B1,554.0,13/40,120,118.0
11284,C2,554.0,0.75,53,118.0
11285,B-2,554.0,0.5,104,118.0
11286,E-3,554.0,117/1000,104,118.0
11287,B1,554.0,13/40,120,118.0
11288,B-3,554.25,0.25,105,118.0
11289,E-4,554.25,0.25,105,118.0
11290,B3,554.25,0.25,105,118.0
11291,F#3,554.25,0.25,105,118.0
11292,B1,554.5,133/1000,118,118.0
11293,G#2,554.5,0.25,79,118.0
11294,B1,554.5,133/1000,118,118.0
11295,B2,554.5,0.25,100,118.0
11296,B1,554.75,0.125,117,118.0
11297,F#2,554.75,0.25,104,118.0
11298,B1,554.75,0.125,117,118.0
11299,F#2,554.75,0.25,112,118.0
11300,B1,555.0,129/500,116,118.0
11301,E-3,555.0,71/500,96,118.0
11302,B1,555.0,129/500,116,118.0
11303,B3,555.0,0.25,110,118.0
11304,E2,555.0,0.5,116,118.0
11305,B-2,555.0,0.5,116,118.0
11306,B1,555.0,0.5,111,118.0
11307,C#4,555.0,0.5,111,118.0
11308,F#3,555.0,0.5,111,118.0
11309,B1,555.5,0.125,114,118.0
11310,B1,555.5,0.125,114,118.0
11311,C#6,555.5,0.5,114,118.0
11312,C2,555.5,0.25,82,118.0
11313,G#2,555.5,0.25,82,118.0
11314,B2,555.5,0.25,91,118.0
11315,E-4,555.5,0.25,91,118.0
11316,F#3,555.5,0.25,91,118.0
11317,C#4,555.5,0.5,108,118.0
11318,G#3,555.5,0.5,108,118.0
11319,E3,555.5,0.5,108,118.0
11320,C#4,555.5,0.5,108,118.0
11321,G#3,555.5,0.5,108,118.0
11322,E3,555.5,0.5,108,118.0
11323,E4,555.5,0.5,108,118.0
11324,E4,555.5,0.5,108,118.0
11325,A4,555.5,0.5,99,118.0
11326,C#5,555.5,0.5,99,118.0
11327,B1,555.75,0.25,113,118.0
11328,F#2,555.75,0.25,100,118.0
11329,B1,555.75,0.25,113,118.0
11330,F#2,555.75,0.25,116,118.0
11331,A1,556.0,233/1000,112,118.0
11332,E-3,556.0,71/500,100,118.0
11333,A1,556.0,233/1000,112,118.0
11334,A2,556.0,0.25,103,118.0
11335,C#6,556.0,279/500,114,118.0
11336,C2,556.0,0.5,118,118.0
11337,B-2,556.0,0.5,118,118.0
11338,C#4,556.0,0.75,105,118.0
11339,A3,556.0,0.75,105,118.0
11340,B3,556.0,0.75,105,118.0
11341,A1,556.0,0.75,105,118.0
11342,E4,556.0,0.75,105,118.0
11343,C#4,556.0,51/20,108,118.0
11344,G#3,556.0,51/20,108,118.0
11345,E3,556.0,51/20,108,118.0
11346,C#4,556.0,51/20,108,118.0
11347,G#3,556.0,51/20,108,118.0
11348,E3,556.0,51/20,108,118.0
11349,E4,556.0,111/40,108,118.0
11350,E4,556.0,111/40,108,118.0
11351,A4,556.0,2767/1000,99,118.0
11352,C#5,556.0,2767/1000,99,118.0
11353,A1,556.5,1/10,110,118.0
11354,A1,556.5,1/10,110,118.0
11355,A2,556.5,0.25,114,118.0
11356,A1,556.75,23/250,109,118.0
11357,G#2,556.75,0.25,75,118.0
11358,A1,556.75,23/250,109,118.0
11359,E2,556.75,0.25,110,118.0
11360,A1,557.0,0.25,108,118.0
11361,E2,557.0,0.5,110,118.0
11362,E-3,557.0,3/20,100,118.0
11363,A1,557.0,0.25,108,118.0
11364,F#2,557.0,0.25,96,118.0
11365,B-2,557.0,0.25,96,118.0
11366,A3,557.0,0.5,111,118.0
11367,C#4,557.0,0.5,111,118.0
11368,E4,557.0,0.5,111,118.0
11369,B3,557.0,0.5,111,118.0
11370,A1,557.5,27/250,106,118.0
11371,G#2,557.5,0.25,81,118.0
11372,A1,557.5,27/250,106,118.0
11373,A2,557.5,0.25,90,118.0
11374,A1,557.75,0.125,105,118.0
11375,F#2,557.75,0.25,96,118.0
11376,A1,557.75,0.125,105,118.0
11377,E4,557.75,0.25,96,118.0
11378,C#4,557.75,0.25,96,118.0
11379,A3,557.75,0.25,96,118.0
11380,B3,557.75,0.25,96,118.0
11381,A1,558.0,0.25,104,118.0
11382,C2,558.0,0.75,113,118.0
11383,B-2,558.0,0.25,100,118.0
11384,E-3,558.0,167/1000,96,118.0
11385,A1,558.0,0.25,104,118.0
11386,E4,558.25,0.25,108,118.0
11387,C#4,558.25,0.25,108,118.0
11388,A3,558.25,0.25,108,118.0
11389,B3,558.25,0.25,108,118.0
11390,A1,558.5,133/1000,102,118.0
11391,G#2,558.5,0.25,89,118.0
11392,A1,558.5,133/1000,102,118.0
11393,A2,558.5,0.25,105,118.0
11394,A1,558.75,71/500,101,118.0
11395,F#2,558.75,0.25,92,118.0
11396,A1,558.75,71/500,101,118.0
11397,E2,558.75,0.25,92,118.0
11398,A1,559.0,129/500,100,118.0
11399,E2,559.0,0.5,110,118.0
11400,B-2,559.0,0.25,109,118.0
11401,E-3,559.0,133/1000,84,118.0
11402,A1,559.0,129/500,100,118.0
11403,E-4,559.0,0.5,99,118.0
11404,C#6,559.0,1.0,101,118.0
11405,B3,559.0,0.75,109,118.0
11406,A3,559.0,0.75,109,118.0
11407,A1,559.0,0.75,109,118.0
11408,E4,559.0,1.0,96,118.0
11409,E4,559.0,1.0,96,118.0
11410,A4,559.0,19/20,88,118.0
11411,C#5,559.0,19/20,88,118.0
11412,A1,559.5,133/1000,98,118.0
11413,A1,559.5,133/1000,98,118.0
11414,C2,559.5,0.25,82,118.0
11415,G#2,559.5,0.25,82,118.0
11416,E4,559.5,0.25,105,118.0
11417,A2,559.5,0.25,105,118.0
11418,A1,559.75,24/125,97,118.0
11419,F#2,559.75,0.25,92,118.0
11420,A1,559.75,24/125,97,118.0
11421,E2,559.75,0.25,112,118.0
11422,G#1,560.0,183/1000,96,118.0
11423,C2,560.0,0.5,110,118.0
11424,G#1,560.0,183/1000,96,118.0
11425,G#2,560.0,0.25,93,118.0
11426,B5,560.0,529/500,98,118.0
11427,C#6,560.0,29/500,101,118.0
11428,B-2,560.0,1/5,103,118.0
11429,E-3,560.0,1/5,103,118.0
11430,E-4,560.0,0.75,91,118.0
11431,B3,560.0,0.75,91,118.0
11432,G#3,560.0,0.75,91,118.0
11433,G#1,560.0,0.75,91,118.0
11434,B4,560.0,967/1000,92,118.0
11435,B4,560.0,967/1000,92,118.0
11436,F#3,560.0,121/40,92,118.0
11437,E-3,560.0,121/40,92,118.0
11438,F#3,560.0,121/40,92,118.0
11439,E-3,560.0,121/40,92,118.0
11440,E-4,560.0,1033/1000,92,118.0
11441,E-4,560.0,1033/1000,92,118.0
11442,E4,560.0,33/1000,96,118.0
11443,E4,560.0,33/1000,96,118.0
11444,G#4,560.0,11/10,85,118.0
11445,B4,560.0,11/10,85,118.0
11446,G#1,560.5,0.125,94,118.0
11447,G#2,560.5,0.25,77,118.0
11448,G#1,560.5,0.125,94,118.0
11449,G#2,560.5,0.5,127,118.0
11450,G#1,560.75,121/500,93,118.0
11451,F#2,560.75,0.25,96,118.0
11452,G#1,560.75,121/500,93,118.0
11453,E-2,560.75,0.25,61,118.0
11454,B1,561.0,0.25,92,118.0
11455,E2,561.0,0.75,110,118.0
11456,E-3,561.0,29/500,86,118.0
11457,B1,561.0,0.25,92,118.0
11458,B-4,561.0,43/40,81,118.0
11459,B-5,561.0,529/500,94,118.0
11460,F#2,561.0,0.25,74,118.0
11461,B-2,561.0,0.25,74,118.0
11462,E-4,561.0,0.5,113,118.0
11463,G#3,561.0,0.5,113,118.0
11464,B3,561.0,0.5,113,118.0
11465,B-4,561.0,1017/1000,89,118.0
11466,B-4,561.0,1017/1000,89,118.0
11467,C#4,561.0,1133/1000,89,118.0
11468,C#4,561.0,1133/1000,89,118.0
11469,B1,561.5,71/500,90,118.0
11470,G#2,561.5,0.25,86,118.0
11471,B1,561.5,71/500,90,118.0
11472,G#2,561.5,0.25,127,118.0
11473,B1,561.75,73/250,89,118.0
11474,F#2,561.75,0.25,100,118.0
11475,B1,561.75,73/250,89,118.0
11476,E-4,561.75,0.25,91,118.0
11477,B3,561.75,0.25,91,118.0
11478,G#3,561.75,0.25,91,118.0
11479,E-2,562.0,1/5,88,118.0
11480,C2,562.0,0.75,110,118.0
11481,B-2,562.0,0.25,109,118.0
11482,E-3,562.0,83/1000,86,118.0
11483,E-2,562.0,1/5,88,118.0
11484,G#4,562.0,41/40,78,118.0
11485,G#5,562.0,529/500,90,118.0
11486,G#4,562.0,579/500,85,118.0
11487,G#4,562.0,579/500,85,118.0
11488,B3,562.0,43/40,85,118.0
11489,B3,562.0,43/40,85,118.0
11490,E-4,562.25,0.25,106,118.0
11491,B3,562.25,0.25,106,118.0
11492,G#3,562.25,0.25,106,118.0
11493,E-2,562.5,133/1000,86,118.0
11494,G#2,562.5,0.25,92,118.0
11495,E-2,562.5,133/1000,86,118.0
11496,G#2,562.5,0.25,127,118.0
11497,E-2,562.75,3/10,85,118.0
11498,F#2,562.75,0.25,100,118.0
11499,E-2,562.75,3/10,85,118.0
11500,E-2,562.75,0.25,106,118.0
11501,B1,563.0,24/125,84,118.0
11502,E2,563.0,0.5,110,118.0
11503,B-2,563.0,0.25,114,118.0
11504,E-3,563.0,117/1000,92,118.0
11505,B1,563.0,24/125,84,118.0
11506,B-1,563.0,0.25,71,118.0
11507,F#4,563.0,1.0,75,118.0
11508,F#5,563.0,1.0,86,118.0
11509,C#4,563.0,0.5,108,118.0
11510,B3,563.0,0.5,108,118.0
11511,G#3,563.0,0.75,110,118.0
11512,G#1,563.0,0.75,110,118.0
11513,F#4,563.0,1.0,82,118.0
11514,F#4,563.0,1.0,82,118.0
11515,B-3,563.0,1.0,82,118.0
11516,B-3,563.0,1.0,82,118.0
11517,B1,563.5,117/1000,82,118.0
11518,B1,563.5,117/1000,82,118.0
11519,E-4,563.5,0.25,74,118.0
11520,G#2,563.5,0.5,127,118.0
11521,C2,563.5,0.25,77,118.0
11522,G#2,563.5,0.25,77,118.0
11523,B1,563.75,0.25,81,118.0
11524,F#2,563.75,0.25,100,118.0
11525,B1,563.75,0.25,81,118.0
11526,E-2,563.75,0.25,116,118.0
11527,C#2,564.0,233/1000,80,118.0
11528,B1,564.0,21/500,81,118.0
11529,C2,564.0,0.75,120,118.0
11530,C#2,564.0,233/1000,80,118.0
11531,B1,564.0,21/500,81,118.0
11532,C#2,564.0,0.5,99,118.0
11533,F#4,564.0,83/1000,75,118.0
11534,F5,564.0,529/500,83,118.0
11535,F#5,564.0,29/500,86,118.0
11536,G3,564.0,0.25,96,118.0
11537,E-3,564.0,0.25,96,118.0
11538,B-2,564.0,0.25,96,118.0
11539,C#4,564.0,0.75,93,118.0
11540,F3,564.0,0.75,93,118.0
11541,G#3,564.0,0.75,93,118.0
11542,F4,564.0,821/500,78,118.0
11543,F4,564.0,821/500,78,118.0
11544,C#4,564.0,1471/500,78,118.0
11545,C#4,564.0,1471/500,78,118.0
11546,C#3,564.0,3033/1000,78,118.0
11547,C#3,564.0,3033/1000,78,118.0
11548,G#3,564.0,1071/500,78,118.0
11549,G#3,564.0,1071/500,78,118.0
11550,F#4,564.0,71/500,82,118.0
11551,F#4,564.0,71/500,82,118.0
11552,C#4,564.0,37/20,72,118.0
11553,F4,564.0,37/20,72,118.0
11554,C#2,564.5,133/1000,78,118.0
11555,G#2,564.5,0.25,84,118.0
11556,C#2,564.5,133/1000,78,118.0
11557,C#3,564.5,0.25,124,118.0
11558,C#2,564.75,0.125,77,118.0
11559,F#2,564.75,0.25,89,118.0
11560,C#2,564.75,0.125,77,118.0
11561,G#2,564.75,0.25,109,118.0
11562,C#2,565.0,3/10,76,118.0
11563,E2,565.0,0.75,113,118.0
11564,B-2,565.0,0.25,114,118.0
11565,E-3,565.0,0.125,81,118.0
11566,C#2,565.0,3/10,76,118.0
11567,C#4,565.0,0.5,102,118.0
11568,G#3,565.0,0.5,102,118.0
11569,F3,565.0,0.5,102,118.0
11570,C#2,565.5,133/1000,74,118.0
11571,G#2,565.5,0.25,92,118.0
11572,C#2,565.5,133/1000,74,118.0
11573,C#3,565.5,0.25,112,118.0
11574,C#2,565.75,26/125,73,118.0
11575,F#2,565.75,0.25,96,118.0
11576,C#2,565.75,26/125,73,118.0
11577,C#4,565.75,0.25,92,118.0
11578,G#3,565.75,0.25,92,118.0
11579,F3,565.75,0.25,92,118.0
11580,F1,566.0,73/250,72,118.0
11581,C2,566.0,0.75,113,118.0
11582,B-2,566.0,0.25,114,118.0
11583,E-3,566.0,3/20,86,118.0
11584,F1,566.0,73/250,72,118.0
11585,E-5,566.0,529/500,75,118.0
11586,E-4,566.0,479/500,71,118.0
11587,E-4,566.0,479/500,71,118.0
11588,F#3,566.0,1067/1000,71,118.0
11589,F#3,566.0,1067/1000,71,118.0
11590,B3,566.0,1067/1000,65,118.0
11591,E-4,566.0,1067/1000,65,118.0
11592,F3,566.25,0.25,104,118.0
11593,C#4,566.25,0.25,104,118.0
11594,G#3,566.25,0.25,104,118.0
11595,F1,566.5,117/1000,70,118.0
11596,G#2,566.5,0.25,100,118.0
11597,F1,566.5,117/1000,70,118.0
11598,C#3,566.5,0.25,120,118.0
11599,F1,566.75,1/10,69,118.0
11600,F#2,566.75,0.25,100,118.0
11601,F1,566.75,1/10,69,118.0
11602,G#2,566.75,0.25,106,118.0
11603,F1,567.0,283/1000,68,118.0
11604,E2,567.0,0.5,110,118.0
11605,B-2,567.0,0.25,114,118.0
11606,E-3,567.0,71/500,86,118.0
11607,F1,567.0,283/1000,68,118.0
11608,B3,567.0,0.25,92,118.0
11609,F3,567.0,0.75,91,118.0
11610,F5,567.0,1.0,71,118.0
11611,C#2,567.0,0.5,116,118.0
11612,G#3,567.0,0.5,116,118.0
11613,F4,567.0,33/40,68,118.0
11614,G#3,567.0,33/40,68,118.0
11615,F4,567.0,33/40,68,118.0
11616,G#3,567.0,33/40,68,118.0
11617,C#4,567.0,17/20,62,118.0
11618,F4,567.0,17/20,62,118.0
11619,F1,567.5,121/500,66,118.0
11620,G3,567.5,1/10,86,118.0
11621,F1,567.5,121/500,66,118.0
11622,C2,567.5,0.25,87,118.0
11623,G#2,567.5,0.25,87,118.0
11624,C#3,567.5,0.25,108,118.0
11625,C#4,567.5,0.25,108,118.0
11626,G#1,567.75,0.25,65,118.0
11627,F#2,567.75,0.25,109,118.0
11628,G#1,567.75,0.25,65,118.0
11629,G#2,567.75,0.25,116,118.0
11630,F#1,568.0,73/250,64,118.0
11631,G#1,568.0,1/40,65,118.0
11632,C2,568.0,0.5,113,118.0
11633,B-2,568.0,0.25,109,118.0
11634,F#1,568.0,73/250,64,118.0
11635,G#1,568.0,1/40,65,118.0
11636,F5,568.0,529/500,68,118.0
11637,F5,568.0,29/500,71,118.0
11638,A3,568.0,71/500,102,118.0
11639,E-3,568.0,71/500,102,118.0
11640,B-3,568.0,0.75,102,118.0
11641,F#3,568.0,0.75,102,118.0
11642,C#3,568.0,0.75,102,118.0
11643,F#2,568.0,0.25,100,118.0
11644,F#1,568.0,0.25,100,118.0
11645,F2,568.0,0.25,100,118.0
11646,E2,568.0,0.25,100,118.0
11647,F4,568.0,199/125,64,118.0
11648,G#3,568.0,199/125,64,118.0
11649,F4,568.0,199/125,64,118.0
11650,G#3,568.0,199/125,64,118.0
11651,C#3,568.0,627/250,64,118.0
11652,C#4,568.0,627/250,64,118.0
11653,F#3,568.0,627/250,64,118.0
11654,C#3,568.0,627/250,64,118.0
11655,C#4,568.0,627/250,64,118.0
11656,F#3,568.0,627/250,64,118.0
11657,F4,568.0,1483/1000,59,118.0
11658,C#4,568.0,1483/1000,59,118.0
11659,F#1,568.5,0.125,62,118.0
11660,G#2,568.5,0.25,96,118.0
11661,F#1,568.5,0.125,62,118.0
11662,F#2,568.5,0.5,124,118.0
11663,F#1,568.75,27/250,61,118.0
11664,F#2,568.75,0.25,100,118.0
11665,F#1,568.75,27/250,61,118.0
11666,F#1,569.0,9/40,60,118.0
11667,E2,569.0,0.75,110,118.0
11668,B-2,569.0,0.25,114,118.0
11669,E-3,569.0,0.125,86,118.0
11670,F#1,569.0,9/40,60,118.0
11671,C#2,569.0,0.25,41,118.0
11672,C#3,569.0,0.5,106,118.0
11673,F#3,569.0,0.5,106,118.0
11674,B-3,569.0,0.5,106,118.0
11675,F#1,569.5,27/250,58,118.0
11676,G#2,569.5,0.25,92,118.0
11677,F#1,569.5,27/250,58,118.0
11678,F#2,569.5,0.25,106,118.0
11679,B-3,569.5,1867/1000,54,118.0
11680,F#4,569.5,59/40,54,118.0
11681,F#5,569.5,529/500,62,118.0
11682,F#4,569.5,1883/1000,59,118.0
11683,F#4,569.5,1883/1000,59,118.0
11684,B-3,569.5,2083/1000,59,118.0
11685,B-3,569.5,2083/1000,59,118.0
11686,F#1,569.75,27/250,57,118.0
11687,F#2,569.75,0.25,100,118.0
11688,F#1,569.75,27/250,57,118.0
11689,B-3,569.75,0.25,96,118.0
11690,F#3,569.75,0.25,96,118.0
11691,C#3,569.75,0.25,96,118.0
11692,F#1,570.0,9/40,56,118.0
11693,C2,570.0,0.75,120,118.0
11694,B-2,570.0,0.25,114,118.0
11695,E-3,570.0,0.125,86,118.0
11696,F#1,570.0,9/40,56,118.0
11697,B-3,570.25,0.25,103,118.0
11698,F#3,570.25,0.25,103,118.0
11699,C#3,570.25,0.25,103,118.0
11700,F#1,570.5,117/1000,54,118.0
11701,G#2,570.5,0.25,96,118.0
11702,F#1,570.5,117/1000,54,118.0
11703,F#2,570.5,0.25,124,118.0
11704,F#1,570.75,117/1000,53,118.0
11705,F#2,570.75,0.25,100,118.0
11706,F#1,570.75,117/1000,53,118.0
11707,C#2,570.75,0.25,120,118.0
11708,F#1,571.0,129/500,52,118.0
11709,E-3,571.0,0.125,84,118.0
11710,E2,571.0,0.5,117,118.0
11711,B-2,571.0,0.25,100,118.0
11712,F#1,571.0,129/500,52,118.0
11713,G#1,571.0,0.25,79,118.0
11714,C#3,571.0,0.75,79,118.0
11715,C#4,571.0,517/1000,49,118.0
11716,C#5,571.0,1.0,57,118.0
11717,F#1,571.0,0.5,115,118.0
11718,F#3,571.0,0.5,115,118.0
11719,G#3,571.0,0.5,115,118.0
11720,F#1,571.5,117/1000,50,118.0
11721,F#1,571.5,117/1000,50,118.0
11722,F#2,571.5,0.5,124,118.0
11723,B-3,571.5,0.25,83,118.0
11724,E-5,571.5,0.5,55,118.0
11725,C2,571.5,0.25,90,118.0
11726,G#2,571.5,0.25,90,118.0
11727,F#4,571.5,0.5,52,118.0
11728,F#4,571.5,0.5,52,118.0
11729,G#4,571.5,0.5,52,118.0
11730,G#4,571.5,0.5,52,118.0
11731,E-3,571.5,0.5,52,118.0
11732,B2,571.5,0.5,52,118.0
11733,E-3,571.5,0.5,52,118.0
11734,B2,571.5,0.5,52,118.0
11735,B3,571.5,0.5,52,118.0
11736,B3,571.5,0.5,52,118.0
11737,B3,571.5,0.5,47,118.0
11738,E-4,571.5,0.5,47,118.0
11739,F#1,571.75,71/500,49,118.0
11740,F#2,571.75,0.25,92,118.0
11741,F#1,571.75,71/500,49,118.0
11742,C#2,571.75,0.25,112,118.0
11743,G#1,572.0,0.25,48,118.0
11744,C2,572.0,0.5,110,118.0
11745,B-2,572.0,0.25,104,118.0
11746,E-3,572.0,1/20,86,118.0
11747,G#1,572.0,0.25,48,118.0
11748,G#1,572.0,0.5,127,118.0
11749,B-1,572.0,0.25,101,118.0
11750,C#5,572.0,29/500,57,118.0
11751,E-5,572.0,279/500,55,118.0
11752,G#3,572.0,0.75,101,118.0
11753,B3,572.0,0.75,101,118.0
11754,E-3,572.0,0.75,101,118.0
11755,F#4,572.0,51/20,52,118.0
11756,F#4,572.0,51/20,52,118.0
11757,G#4,572.0,2483/1000,52,118.0
11758,G#4,572.0,2483/1000,52,118.0
11759,E-3,572.0,2833/1000,52,118.0
11760,B2,572.0,2833/1000,52,118.0
11761,E-3,572.0,2833/1000,52,118.0
11762,B2,572.0,2833/1000,52,118.0
11763,B3,572.0,1779/500,52,118.0
11764,B3,572.0,1779/500,52,118.0
11765,B3,572.0,1083/1000,47,118.0
11766,E-4,572.0,1083/1000,47,118.0
11767,G#1,572.5,0.125,46,118.0
11768,G#2,572.5,0.25,81,118.0
11769,G#1,572.5,0.125,46,118.0
11770,G#2,572.5,0.25,116,118.0
11771,G#1,572.75,233/1000,45,118.0
11772,F#2,572.75,0.25,96,118.0
11773,G#1,572.75,233/1000,45,118.0
11774,E-2,572.75,0.25,120,118.0
11775,B1,573.0,129/500,44,118.0
11776,E2,573.0,0.5,110,118.0
11777,B-2,573.0,0.25,109,118.0
11778,E-3,573.0,21/500,79,118.0
11779,B1,573.0,129/500,44,118.0
11780,G#3,573.0,0.5,105,118.0
11781,E-3,573.0,0.5,105,118.0
11782,B3,573.0,0.5,105,118.0
11783,B-3,573.0,0.5,43,118.0
11784,C#4,573.0,0.5,43,118.0
11785,B1,573.5,0.125,42,118.0
11786,G#2,573.5,0.25,81,118.0
11787,B1,573.5,0.125,42,118.0
11788,G#2,573.5,0.25,116,118.0
11789,B3,573.5,126/125,41,118.0
11790,G#3,573.5,1117/1000,41,118.0
11791,B1,573.75,283/1000,41,118.0
11792,F#2,573.75,0.25,96,118.0
11793,B1,573.75,283/1000,41,118.0
11794,E-3,573.75,0.25,92,118.0
11795,G#3,573.75,0.25,92,118.0
11796,B3,573.75,0.25,92,118.0
11797,E-2,574.0,0.25,40,118.0
11798,C2,574.0,0.5,120,118.0
11799,B-2,574.0,0.25,109,118.0
11800,E-3,574.0,1/20,81,118.0
11801,E-2,574.0,0.25,40,118.0
11802,G#3,574.25,0.25,103,118.0
11803,E-3,574.25,0.25,103,118.0
11804,B3,574.25,0.25,103,118.0
11805,E-2,574.5,133/1000,38,118.0
11806,G#2,574.5,0.25,92,118.0
11807,E-2,574.5,133/1000,38,118.0
11808,G#2,574.5,0.25,116,118.0
11809,F#5,574.5,529/500,43,118.0
11810,E-4,574.5,1117/1000,38,118.0
11811,F#4,574.5,1117/1000,38,118.0
11812,F#3,574.583,379/500,41,118.0
11813,F#3,574.583,379/500,41,118.0
11814,E-2,574.75,267/1000,37,118.0
11815,F#2,574.75,0.25,86,118.0
11816,E-2,574.75,267/1000,37,118.0
11817,E-2,574.75,0.25,95,118.0
11818,B1,575.0,233/1000,36,118.0
11819,E2,575.0,0.5,120,118.0
11820,B-2,575.0,0.25,109,118.0
11821,E-3,575.0,167/1000,77,118.0
11822,B1,575.0,233/1000,36,118.0
11823,G#1,575.0,0.75,116,118.0
11824,B-3,575.0,0.5,111,118.0
11825,G#3,575.0,0.5,111,118.0
11826,E-3,575.0,0.5,111,118.0
11827,B3,575.375,0.625,38,118.0
11828,B3,575.375,0.625,38,118.0
11829,B1,575.5,0.125,34,118.0
11830,B1,575.5,0.125,34,118.0
11831,G#2,575.5,0.5,127,118.0
11832,B3,575.5,0.25,82,118.0
11833,F5,575.5,0.5,40,118.0
11834,C2,575.5,0.25,76,118.0
11835,G#2,575.5,0.25,76,118.0
11836,C#4,575.5,0.5,34,118.0
11837,F4,575.5,0.5,34,118.0
11838,B1,575.75,0.25,33,118.0
11839,F#2,575.75,0.25,104,118.0
11840,B1,575.75,0.25,33,118.0
11841,E-2,575.75,0.25,109,118.0
11842,C#2,576.0,367/1000,32,118.0
11843,B1,576.0,29/500,33,118.0
11844,C2,576.0,0.5,113,118.0
11845,C#2,576.0,367/1000,32,118.0
11846,B1,576.0,29/500,33,118.0
11847,C#2,576.0,0.5,120,118.0
11848,F5,576.0,279/500,40,118.0
11849,A3,576.0,0.25,101,118.0
11850,E-3,576.0,0.25,101,118.0
11851,B-2,576.0,0.25,101,118.0
11852,G#3,576.0,0.75,95,118.0
11853,C#4,576.0,0.75,95,118.0
11854,F3,576.0,0.75,95,118.0
11855,F4,576.0,47/20,36,118.0
11856,F4,576.0,47/20,36,118.0
11857,C#3,576.0,31/10,36,118.0
11858,G#3,576.0,31/10,36,118.0
11859,C#4,576.0,31/10,36,118.0
11860,C#3,576.0,31/10,36,118.0
11861,G#3,576.0,31/10,36,118.0
11862,C#4,576.0,31/10,36,118.0
11863,B3,576.0,283/1000,38,118.0
11864,B3,576.0,283/1000,38,118.0
11865,C#4,576.0,1229/500,34,118.0
11866,F4,576.0,1229/500,34,118.0
11867,C#2,576.5,0.125,30,118.0
11868,G#2,576.5,0.25,92,118.0
11869,C#2,576.5,0.125,30,118.0
11870,C#3,576.5,0.25,120,118.0
11871,C#2,576.75,133/1000,29,118.0
11872,F#2,576.75,0.25,96,118.0
11873,C#2,576.75,133/1000,29,118.0
11874,G#2,576.75,0.25,89,118.0
11875,C#2,577.0,13/40,28,118.0
11876,E2,577.0,0.75,110,118.0
11877,B-2,577.0,0.25,104,118.0
11878,E-3,577.0,71/500,66,118.0
11879,C#2,577.0,13/40,28,118.0
11880,C#4,577.0,0.5,103,118.0
11881,G#3,577.0,0.5,103,118.0
11882,F3,577.0,0.5,103,118.0
11883,C#2,577.5,0.125,26,118.0
11884,G#2,577.5,0.25,92,118.0
11885,C#2,577.5,0.125,26,118.0
11886,C#3,577.5,0.25,109,118.0
11887,C#2,577.75,71/500,25,118.0
11888,F#2,577.75,0.25,104,118.0
11889,C#2,577.75,71/500,25,118.0
11890,C#4,577.75,0.25,89,118.0
11891,G#3,577.75,0.25,89,118.0
11892,F3,577.75,0.25,89,118.0
11893,C#2,578.0,267/1000,24,118.0
11894,C2,578.0,0.75,110,118.0
11895,B-2,578.0,0.25,109,118.0
11896,E-3,578.0,67/1000,66,118.0
11897,C#2,578.0,267/1000,24,118.0
11898,F3,578.25,0.25,98,118.0
11899,G#3,578.25,0.25,98,118.0
11900,C#4,578.25,0.25,98,118.0
11901,C#2,578.5,0.125,22,118.0
11902,G#2,578.5,0.25,104,118.0
11903,C#2,578.5,0.125,22,118.0
11904,C#3,578.5,0.25,104,118.0
11905,E-4,578.5,1083/1000,25,118.0
11906,E-5,578.5,529/500,29,118.0
11907,F#4,578.5,33/40,27,118.0
11908,F#4,578.5,33/40,27,118.0
11909,E-4,578.5,521/500,27,118.0
11910,E-4,578.5,521/500,27,118.0
11911,C#2,578.75,0.125,21,118.0
11912,F#2,578.75,0.25,104,118.0
11913,C#2,578.75,0.125,21,118.0
11914,G#2,578.75,0.25,104,118.0
11915,C#2,579.0,233/1000,20,118.0
11916,C#2,579.0,233/1000,20,118.0
11917,C#2,579.0,0.25,124,118.0
11918,E2,579.0,0.25,111,118.0
11919,B-2,579.0,0.25,111,118.0
11920,F#3,579.25,0.25,110,118.0
11921,E-3,579.25,0.25,110,118.0
11922,B3,579.25,0.25,110,118.0
11923,C#2,579.5,0.25,18,118.0
11924,C#2,579.5,0.25,18,118.0
11925,C#3,579.5,0.25,124,118.0
11926,F5,579.5,0.5,25,118.0
11927,C2,579.5,0.25,97,118.0
11928,G#2,579.5,0.25,97,118.0
11929,G#4,579.5,0.5,23,118.0
11930,G#4,579.5,0.5,23,118.0
11931,F4,579.5,0.5,23,118.0
11932,F4,579.5,0.5,23,118.0
11933,C#4,579.5,0.5,22,118.0
11934,F4,579.5,0.5,22,118.0
11935,B1,579.75,0.25,17,118.0
11936,F#2,579.75,0.25,96,118.0
11937,B1,579.75,0.25,17,118.0
11938,G#2,579.75,0.25,109,118.0
11939,C#2,580.0,0.375,16,118.0
11940,B1,580.0,1/10,17,118.0
11941,C2,580.0,0.5,117,118.0
11942,B-2,580.0,0.25,109,118.0
11943,C#2,580.0,0.375,16,118.0
11944,B1,580.0,1/10,17,118.0
11945,C#2,580.0,0.5,124,118.0
11946,F5,580.0,279/500,25,118.0
11947,F3,580.0,0.75,105,118.0
11948,C#4,580.0,0.75,105,118.0
11949,G#3,580.0,0.75,105,118.0
11950,G#3,580.0,1579/500,22,118.0
11951,C#3,580.0,1579/500,22,118.0
11952,C#4,580.0,1579/500,22,118.0
11953,G#3,580.0,1579/500,22,118.0
11954,C#3,580.0,1579/500,22,118.0
11955,C#4,580.0,1579/500,22,118.0
11956,G#4,580.0,779/500,23,118.0
11957,G#4,580.0,779/500,23,118.0
11958,F4,580.0,16/5,23,118.0
11959,F4,580.0,16/5,23,118.0
11960,C#4,580.0,1167/1000,22,118.0
11961,F4,580.0,1167/1000,22,118.0
11962,C#2,580.5,117/1000,14,118.0
11963,G#2,580.5,0.25,104,118.0
11964,C#2,580.5,117/1000,14,118.0
11965,C#3,580.5,0.25,120,118.0
11966,C#2,580.75,79/500,13,118.0
11967,F#2,580.75,0.25,92,118.0
11968,C#2,580.75,79/500,13,118.0
11969,G#2,580.75,0.25,120,118.0
11970,C#2,581.0,171/500,12,118.0
11971,E2,581.0,0.5,113,118.0
11972,B-2,581.0,0.25,104,118.0
11973,C#2,581.0,171/500,12,118.0
11974,F3,581.0,0.5,106,118.0
11975,G#3,581.0,0.5,106,118.0
11976,C#4,581.0,0.5,106,118.0
11977,C#2,581.5,0.125,10,118.0
11978,G#2,581.5,0.25,96,118.0
11979,C#2,581.5,0.125,10,118.0
11980,C#3,581.5,0.25,120,118.0
11981,C#2,581.75,133/1000,9,118.0
11982,F#2,581.75,0.25,96,118.0
11983,C#2,581.75,133/1000,9,118.0
11984,C#4,581.75,0.25,91,118.0
11985,G#3,581.75,0.25,91,118.0
11986,F3,581.75,0.25,91,118.0
11987,C#2,582.0,7/20,8,118.0
11988,C2,582.0,0.75,120,118.0
11989,B-2,582.0,0.25,109,118.0
11990,C#2,582.0,7/20,8,118.0
11991,F3,582.25,0.25,111,118.0
11992,C#4,582.25,0.25,111,118.0
11993,G#3,582.25,0.25,111,118.0
11994,C#2,582.5,0.125,6,118.0
11995,G#2,582.5,0.25,96,118.0
11996,C#2,582.5,0.125,6,118.0
11997,C#3,582.5,0.25,116,118.0
11998,C#2,582.75,133/1000,5,118.0
11999,F#2,582.75,0.25,100,118.0
12000,C#2,582.75,133/1000,5,118.0
12001,G#2,582.75,0.25,109,118.0
12002,C#2,583.0,0.375,4,118.0
12003,E2,583.0,0.5,113,118.0
12004,C#2,583.0,0.375,4,118.0
12005,F3,583.0,0.75,93,118.0
12006,B-2,583.0,24/125,120,118.0
12007,D2,583.0,24/125,120,118.0
12008,C#2,583.0,0.5,109,118.0
12009,C#4,583.0,0.5,109,118.0
12010,G#3,583.0,0.5,109,118.0
12011,C#2,583.5,0.125,2,118.0
12012,C2,583.5,117/1000,80,118.0
12013,C#2,583.5,0.125,2,118.0
12014,C#3,583.5,0.25,112,118.0
12015,G#2,583.5,0.25,103,118.0
12016,C2,583.5,0.25,103,118.0
12017,C#2,583.75,133/1000,1,118.0
12018,F#2,583.75,0.25,54,118.0
12019,C#2,583.75,133/1000,1,118.0
12020,E3,584.0,26/125,107,118.0
