,note_name,start_time,duration,velocity,tempo
0,D5,0.0,4.0,111,136.0
1,A4,0.0,4.0,111,136.0
2,G4,0.0,4.0,111,136.0
3,D4,0.0,4.0,111,136.0
4,G3,0.0,4.0,111,136.0
5,D2,4.0,1.5,79,136.0
6,D3,4.0,1.5,79,136.0
7,F5,4.0,1.5,87,136.0
8,C5,4.0,1.5,87,136.0
9,C5,4.0,1.5,57,136.0
10,G4,4.0,1.5,57,136.0
11,F4,4.0,1.5,57,136.0
12,C4,4.0,1.5,57,136.0
13,F3,4.0,1.5,57,136.0
14,E2,5.5,1.5,79,136.0
15,E3,5.5,1.5,79,136.0
16,E5,5.5,1.5,87,136.0
17,B4,5.5,1.5,87,136.0
18,B4,5.5,1.5,60,136.0
19,F#4,5.5,1.5,60,136.0
20,E4,5.5,1.5,60,136.0
21,B3,5.5,1.5,60,136.0
22,E3,5.5,1.5,60,136.0
23,B2,7.0,1.0,79,136.0
24,B3,7.0,1.0,63,136.0
25,D5,7.0,1.0,87,136.0
26,A4,7.0,1.0,87,136.0
27,A4,7.0,1.0,50,136.0
28,E4,7.0,1.0,50,136.0
29,D4,7.0,1.0,50,136.0
30,A3,7.0,1.0,50,136.0
31,D3,7.0,1.0,50,136.0
32,B2,8.0,0.5,79,136.0
33,B3,8.0,0.5,63,136.0
34,A2,8.5,1.5,79,136.0
35,A3,8.5,1.5,79,136.0
36,D5,8.5,0.5,87,136.0
37,A4,8.5,0.5,87,136.0
38,A4,8.5,0.5,50,136.0
39,E4,8.5,0.5,50,136.0
40,D4,8.5,0.5,50,136.0
41,A3,8.5,0.5,50,136.0
42,D3,8.5,0.5,50,136.0
43,C#5,9.0,1.5,87,136.0
44,G#4,9.0,1.5,87,136.0
45,G#4,9.0,1.5,53,136.0
46,E-4,9.0,1.5,53,136.0
47,C#4,9.0,1.5,53,136.0
48,G#3,9.0,1.5,53,136.0
49,C#3,9.0,1.5,53,136.0
50,G#2,10.0,1.0,79,136.0
51,G#3,10.0,1.0,79,136.0
52,B4,10.5,1.0,79,136.0
53,F#4,10.5,1.0,79,136.0
54,F#4,10.5,1.0,47,136.0
55,C#4,10.5,1.0,47,136.0
56,B3,10.5,1.0,47,136.0
57,F#3,10.5,1.0,47,136.0
58,B2,10.5,1.0,47,136.0
59,F#2,11.0,1.0,79,136.0
60,F#3,11.0,1.0,63,136.0
61,E5,11.5,1.0,79,136.0
62,B4,11.5,1.0,79,136.0
63,B4,11.5,1.0,47,136.0
64,F#4,11.5,1.0,47,136.0
65,E4,11.5,1.0,47,136.0
66,B3,11.5,1.0,47,136.0
67,E3,11.5,1.0,47,136.0
68,E2,12.0,1.5,63,136.0
69,E3,12.0,1.5,63,136.0
70,C#5,12.5,1.5,79,136.0
71,G#4,12.5,1.5,79,136.0
72,G#4,12.5,1.5,47,136.0
73,E-4,12.5,1.5,47,136.0
74,C#4,12.5,1.5,47,136.0
75,G#3,12.5,1.5,47,136.0
76,C#3,12.5,1.5,47,136.0
77,G#2,13.5,2.0,63,136.0
78,G#3,13.5,2.0,79,136.0
79,B4,14.0,2.0,79,136.0
80,F#4,14.0,2.0,79,136.0
81,F#4,14.0,2.0,47,136.0
82,C#4,14.0,2.0,47,136.0
83,B3,14.0,2.0,47,136.0
84,F#3,14.0,2.0,47,136.0
85,B2,14.0,2.0,47,136.0
86,C#2,15.5,0.5,79,136.0
87,C#3,15.5,0.5,63,136.0
88,C#2,16.0,2.0,79,136.0
89,B3,16.0,0.5,47,136.0
90,C#3,16.0,2.0,63,136.0
91,E4,16.0,0.5,79,136.0
92,B3,16.0,0.5,79,136.0
93,B3,16.5,2.0,47,136.0
94,B1,18.0,2.0,79,136.0
95,B2,18.0,2.0,79,136.0
96,E4,18.0,1.5,79,136.0
97,B3,18.0,1.5,79,136.0
98,E4,18.5,1.0,47,136.0
99,B3,18.5,1.0,47,136.0
100,A3,18.5,1.0,47,136.0
101,E3,18.5,1.0,47,136.0
102,A2,18.5,1.0,47,136.0
103,C#4,19.5,0.25,79,136.0
104,B3,19.5,1.0,58,136.0
105,F#3,19.5,1.0,58,136.0
106,B2,19.5,1.0,58,136.0
107,E-4,19.75,0.25,95,136.0
108,A1,20.0,1.5,79,136.0
109,A2,20.0,1.5,79,136.0
110,A4,20.0,1.0,79,136.0
111,E4,20.0,1.0,79,136.0
112,F#4,20.5,1.5,47,136.0
113,C#4,20.5,1.5,47,136.0
114,B3,20.5,1.5,47,136.0
115,F#3,20.5,1.5,47,136.0
116,B2,20.5,1.5,47,136.0
117,E4,21.0,1.0,71,136.0
118,B3,21.0,1.0,71,136.0
119,B1,21.5,1.5,79,136.0
120,B2,21.5,1.5,79,136.0
121,B4,22.0,1.5,79,136.0
122,F#4,22.0,1.5,79,136.0
123,G#4,22.0,1.5,50,136.0
124,E-4,22.0,1.5,50,136.0
125,C#4,22.0,1.5,50,136.0
126,G#3,22.0,1.5,50,136.0
127,C#3,22.0,1.5,50,136.0
128,F#1,23.0,4.0,63,136.0
129,F#1,23.0,4.0,111,136.0
130,B1,23.0,0.25,95,136.0
131,E-3,23.0,0.25,95,136.0
132,E-3,23.5,0.25,79,136.0
133,C#5,23.5,1.5,79,136.0
134,G#4,23.5,1.5,79,136.0
135,E4,23.5,4.0,50,136.0
136,B3,23.5,4.0,50,136.0
137,A3,23.5,4.0,50,136.0
138,E3,23.5,4.0,50,136.0
139,A2,23.5,4.0,50,136.0
140,B1,24.0,0.25,87,136.0
141,E-3,24.0,0.25,87,136.0
142,B3,24.25,0.25,79,136.0
143,E-3,24.5,0.25,63,136.0
144,E2,25.0,0.25,79,136.0
145,E-3,25.0,0.25,79,136.0
146,A4,25.0,4.0,87,136.0
147,E4,25.0,4.0,87,136.0
148,B3,25.25,0.25,63,136.0
149,E-3,25.5,0.25,63,136.0
150,B1,26.0,0.25,87,136.0
151,E-3,26.0,0.25,87,136.0
152,E-3,26.5,0.25,79,136.0
153,B3,26.75,0.25,79,136.0
154,F#1,27.0,4.0,63,136.0
155,F#1,27.0,4.0,111,136.0
156,B1,27.0,0.25,79,136.0
157,E-3,27.0,0.25,79,136.0
158,B1,27.5,0.25,87,136.0
159,E-3,27.5,0.25,87,136.0
160,B1,27.75,0.25,95,136.0
161,E2,28.0,0.25,71,136.0
162,E-3,28.0,0.25,71,136.0
163,B1,28.25,0.25,87,136.0
164,B3,28.25,0.25,87,136.0
165,B3,28.75,0.25,79,136.0
166,B1,29.0,0.25,87,136.0
167,E-3,29.0,0.25,87,136.0
168,G#5,29.5,1.5,79,136.0
169,E-3,29.5,0.25,63,136.0
170,B1,29.75,0.25,95,136.0
171,E2,30.0,0.25,79,136.0
172,E-3,30.0,0.25,79,136.0
173,B1,30.25,0.25,79,136.0
174,B3,30.25,0.25,79,136.0
175,E-3,30.5,0.25,63,136.0
176,G#5,31.0,4.0,79,136.0
177,F#1,31.0,2.5,63,136.0
178,E-3,31.0,0.25,79,136.0
179,F#1,31.0,2.5,111,136.0
180,E-3,31.5,0.25,79,136.0
181,B1,31.75,0.25,87,136.0
182,B3,31.75,0.25,87,136.0
183,E2,32.0,0.25,79,136.0
184,E2,32.25,0.25,71,136.0
185,B3,32.25,0.25,71,136.0
186,B1,32.75,0.25,87,136.0
187,B3,32.75,0.25,87,136.0
188,B3,33.25,0.25,79,136.0
189,G#1,33.5,1.5,79,136.0
190,G#2,33.5,1.5,79,136.0
191,B1,33.5,0.25,79,136.0
192,E-3,33.5,0.25,79,136.0
193,B3,33.75,0.25,79,136.0
194,E-3,34.0,0.25,63,136.0
195,E4,34.0,4.0,50,136.0
196,B3,34.0,4.0,50,136.0
197,A3,34.0,4.0,50,136.0
198,E3,34.0,4.0,50,136.0
199,A2,34.0,4.0,50,136.0
200,E2,34.25,0.25,79,136.0
201,E-3,34.5,0.25,63,136.0
202,B1,34.75,0.25,95,136.0
203,G#5,35.0,3.0,79,136.0
204,G#1,35.0,1.5,79,136.0
205,G#2,35.0,1.5,79,136.0
206,B1,35.0,0.25,87,136.0
207,E-3,35.0,0.25,87,136.0
208,B3,35.25,0.25,79,136.0
209,E2,35.5,0.25,79,136.0
210,A4,35.5,4.0,87,136.0
211,E4,35.5,4.0,87,136.0
212,B3,35.75,0.25,63,136.0
213,B1,36.0,0.25,95,136.0
214,B3,36.25,0.25,63,136.0
215,B1,36.5,1.5,79,136.0
216,B2,36.5,1.5,79,136.0
217,B1,36.5,0.25,87,136.0
218,E-3,36.5,0.25,87,136.0
219,E-3,37.0,0.25,79,136.0
220,E2,37.25,0.25,79,136.0
221,B3,37.25,0.25,79,136.0
222,E2,37.5,0.25,79,136.0
223,E-3,37.5,0.25,79,136.0
224,B1,37.75,0.25,79,136.0
225,G#5,38.0,4.0,79,136.0
226,F#1,38.0,4.0,63,136.0
227,F#1,38.0,4.0,111,136.0
228,B1,38.0,0.25,95,136.0
229,E-3,38.0,0.25,95,136.0
230,E-3,38.5,0.25,79,136.0
231,B1,39.0,0.25,87,136.0
232,E-3,39.0,0.25,87,136.0
233,B3,39.25,0.25,79,136.0
234,E-3,39.5,0.25,63,136.0
235,E2,40.0,0.25,79,136.0
236,E-3,40.0,0.25,79,136.0
237,B3,40.25,0.25,63,136.0
238,E-3,40.5,0.25,63,136.0
239,E4,40.5,2.5,50,136.0
240,B3,40.5,2.5,50,136.0
241,A3,40.5,2.5,50,136.0
242,E3,40.5,2.5,50,136.0
243,A2,40.5,2.5,50,136.0
244,B1,41.0,0.25,87,136.0
245,E-3,41.0,0.25,87,136.0
246,E-3,41.5,0.25,79,136.0
247,B3,41.75,0.25,79,136.0
248,G#5,42.0,4.0,79,136.0
249,F#1,42.0,4.0,63,136.0
250,F#1,42.0,4.0,111,136.0
251,B1,42.0,0.25,79,136.0
252,E-3,42.0,0.25,79,136.0
253,A4,42.0,2.5,87,136.0
254,E4,42.0,2.5,87,136.0
255,B1,42.5,0.25,87,136.0
256,E-3,42.5,0.25,87,136.0
257,B1,42.75,0.25,95,136.0
258,E2,43.0,0.25,71,136.0
259,E-3,43.0,0.25,71,136.0
260,B4,43.0,1.5,60,136.0
261,F#4,43.0,1.5,60,136.0
262,E4,43.0,1.5,60,136.0
263,B3,43.0,1.5,60,136.0
264,E3,43.0,1.5,60,136.0
265,B1,43.25,0.25,87,136.0
266,B3,43.25,0.25,87,136.0
267,B3,43.75,0.25,79,136.0
268,B1,44.0,0.25,87,136.0
269,E-3,44.0,0.25,87,136.0
270,E-3,44.5,0.25,63,136.0
271,E5,44.5,1.5,87,136.0
272,B4,44.5,1.5,87,136.0
273,F#4,44.5,1.5,60,136.0
274,C#4,44.5,1.5,60,136.0
275,B3,44.5,1.5,60,136.0
276,F#3,44.5,1.5,60,136.0
277,B2,44.5,1.5,60,136.0
278,B1,44.75,0.25,95,136.0
279,E2,45.0,0.25,79,136.0
280,E-3,45.0,0.25,79,136.0
281,B1,45.25,0.25,79,136.0
282,B3,45.25,0.25,79,136.0
283,E-3,45.5,0.25,63,136.0
284,G#5,46.0,2.0,79,136.0
285,F#1,46.0,2.5,63,136.0
286,E-3,46.0,0.25,79,136.0
287,F#1,46.0,2.5,111,136.0
288,B4,46.0,1.5,95,136.0
289,F#4,46.0,1.5,95,136.0
290,G#4,46.0,1.5,60,136.0
291,E-4,46.0,1.5,60,136.0
292,C#4,46.0,1.5,60,136.0
293,G#3,46.0,1.5,60,136.0
294,C#3,46.0,1.5,60,136.0
295,E-3,46.5,0.25,79,136.0
296,B1,46.75,0.25,87,136.0
297,B3,46.75,0.25,87,136.0
298,E2,47.0,0.25,79,136.0
299,E2,47.25,0.25,71,136.0
300,B3,47.25,0.25,71,136.0
301,C#5,47.5,1.5,87,136.0
302,G#4,47.5,1.5,87,136.0
303,E4,47.5,4.0,57,136.0
304,B3,47.5,4.0,57,136.0
305,A3,47.5,4.0,57,136.0
306,E3,47.5,4.0,57,136.0
307,A2,47.5,4.0,57,136.0
308,B1,47.75,0.25,87,136.0
309,B3,47.75,0.25,87,136.0
310,B3,48.25,0.25,79,136.0
311,G#1,48.5,1.5,79,136.0
312,G#2,48.5,1.5,79,136.0
313,B1,48.5,0.25,79,136.0
314,E-3,48.5,0.25,79,136.0
315,B3,48.75,0.25,79,136.0
316,E-3,49.0,0.25,63,136.0
317,A4,49.0,4.0,87,136.0
318,E4,49.0,4.0,87,136.0
319,E2,49.25,0.25,79,136.0
320,E-3,49.5,0.25,63,136.0
321,B1,49.75,0.25,95,136.0
322,G#1,50.0,1.5,79,136.0
323,G#2,50.0,1.5,79,136.0
324,B1,50.0,0.25,87,136.0
325,E-3,50.0,0.25,87,136.0
326,B3,50.25,0.25,79,136.0
327,E2,50.5,0.25,79,136.0
328,B3,50.75,0.25,63,136.0
329,B1,51.0,0.25,95,136.0
330,B3,51.25,0.25,63,136.0
331,B1,51.5,1.5,79,136.0
332,B2,51.5,1.5,79,136.0
333,B1,51.5,0.25,87,136.0
334,E-3,51.5,0.25,87,136.0
335,E-3,52.0,0.25,79,136.0
336,E2,52.25,0.25,79,136.0
337,B3,52.25,0.25,79,136.0
338,E2,52.5,0.25,79,136.0
339,E-3,52.5,0.25,79,136.0
340,B1,52.75,0.25,79,136.0
341,F#1,53.0,4.0,63,136.0
342,F#1,53.0,4.0,111,136.0
343,B1,53.0,0.25,95,136.0
344,E-3,53.0,0.25,95,136.0
345,E-3,53.5,0.25,79,136.0
346,B1,54.0,0.25,87,136.0
347,E-3,54.0,0.25,87,136.0
348,B3,54.25,0.25,79,136.0
349,E-3,54.5,0.25,63,136.0
350,E2,55.0,0.25,79,136.0
351,E-3,55.0,0.25,79,136.0
352,E2,55.25,0.25,71,136.0
353,B3,55.25,0.25,71,136.0
354,E-3,55.5,0.25,63,136.0
355,B1,56.0,0.25,87,136.0
356,E-3,56.0,0.25,87,136.0
357,E-6,56.5,0.5,79,136.0
358,E-3,56.5,0.25,79,136.0
359,B3,56.75,0.25,79,136.0
360,E-6,57.0,4.0,79,136.0
361,F#1,57.0,4.0,63,136.0
362,F#1,57.0,4.0,111,136.0
363,B1,57.0,0.25,79,136.0
364,E-3,57.0,0.25,79,136.0
365,B1,57.5,0.25,87,136.0
366,E-3,57.5,0.25,87,136.0
367,B1,57.75,0.25,95,136.0
368,E2,58.0,0.25,71,136.0
369,E-3,58.0,0.25,71,136.0
370,E4,58.0,4.0,57,136.0
371,B3,58.0,4.0,57,136.0
372,A3,58.0,4.0,57,136.0
373,E3,58.0,4.0,57,136.0
374,A2,58.0,4.0,57,136.0
375,B1,58.25,0.25,87,136.0
376,B3,58.25,0.25,87,136.0
377,B3,58.75,0.25,79,136.0
378,B1,59.0,0.25,87,136.0
379,E-3,59.0,0.25,87,136.0
380,E-3,59.5,0.25,63,136.0
381,A4,59.5,4.0,87,136.0
382,E4,59.5,4.0,87,136.0
383,B1,59.75,0.25,95,136.0
384,E2,60.0,0.25,79,136.0
385,E-3,60.0,0.25,79,136.0
386,B3,60.25,0.25,63,136.0
387,E-3,60.5,0.25,63,136.0
388,E2,60.75,0.25,79,136.0
389,E-6,61.0,4.0,79,136.0
390,F#1,61.0,2.5,63,136.0
391,F#1,61.0,2.5,111,136.0
392,B1,61.0,0.25,87,136.0
393,E-3,61.0,0.25,87,136.0
394,E-3,61.5,0.25,79,136.0
395,B1,61.75,0.25,87,136.0
396,B3,61.75,0.25,87,136.0
397,E2,62.0,0.25,79,136.0
398,B1,62.25,0.25,87,136.0
399,B3,62.25,0.25,87,136.0
400,B3,62.75,0.25,79,136.0
401,B3,63.25,0.25,79,136.0
402,G#1,63.5,1.5,79,136.0
403,G#2,63.5,1.5,79,136.0
404,B1,63.5,0.25,79,136.0
405,E-3,63.5,0.25,79,136.0
406,B3,63.75,0.25,79,136.0
407,E2,64.0,0.25,71,136.0
408,E-3,64.0,0.25,71,136.0
409,E-3,64.5,0.25,63,136.0
410,E4,64.5,2.5,57,136.0
411,B3,64.5,2.5,57,136.0
412,A3,64.5,2.5,57,136.0
413,E3,64.5,2.5,57,136.0
414,A2,64.5,2.5,57,136.0
415,B1,64.75,0.25,95,136.0
416,E-6,65.0,2.0,79,136.0
417,A1,65.0,1.5,79,136.0
418,A2,65.0,1.5,79,136.0
419,B1,65.0,0.25,87,136.0
420,E-3,65.0,0.25,87,136.0
421,E-3,65.5,0.25,79,136.0
422,E2,66.0,0.25,79,136.0
423,E-3,66.0,0.25,79,136.0
424,A4,66.0,2.5,87,136.0
425,E4,66.0,2.5,87,136.0
426,E2,66.25,0.25,79,136.0
427,B3,66.25,0.25,79,136.0
428,B1,66.5,1.5,79,136.0
429,B1,66.5,0.25,95,136.0
430,B2,66.5,1.5,79,136.0
431,E-3,66.75,0.25,79,136.0
432,B4,67.0,1.5,60,136.0
433,F#4,67.0,1.5,60,136.0
434,E4,67.0,1.5,60,136.0
435,B3,67.0,1.5,60,136.0
436,E3,67.0,1.5,60,136.0
437,B3,67.25,0.25,79,136.0
438,E-3,67.5,0.25,63,136.0
439,E2,67.75,0.25,79,136.0
440,B3,67.75,0.25,79,136.0
441,E2,68.0,1.0,63,136.0
442,E3,68.0,1.0,63,136.0
443,B1,68.0,0.25,79,136.0
444,E-3,68.0,0.25,79,136.0
445,E-3,68.5,0.25,63,136.0
446,E5,68.5,1.5,87,136.0
447,B4,68.5,1.5,87,136.0
448,F#4,68.5,1.5,60,136.0
449,C#4,68.5,1.5,60,136.0
450,B3,68.5,1.5,60,136.0
451,F#3,68.5,1.5,60,136.0
452,B2,68.5,1.5,60,136.0
453,E2,69.0,0.5,63,136.0
454,E-3,69.0,0.25,79,136.0
455,E3,69.0,0.5,63,136.0
456,B3,69.25,0.25,79,136.0
457,D2,69.5,1.5,79,136.0
458,B1,69.5,0.25,95,136.0
459,D3,69.5,1.5,79,136.0
460,B3,69.75,0.25,79,136.0
461,E2,70.0,0.25,79,136.0
462,B4,70.0,1.5,95,136.0
463,F#4,70.0,1.5,95,136.0
464,G#4,70.0,1.5,60,136.0
465,E-4,70.0,1.5,60,136.0
466,C#4,70.0,1.5,60,136.0
467,G#3,70.0,1.5,60,136.0
468,C#3,70.0,1.5,60,136.0
469,B3,70.25,0.25,63,136.0
470,E-3,70.5,0.25,79,136.0
471,C#2,71.0,1.0,79,136.0
472,C#3,71.0,1.0,79,136.0
473,B1,71.0,0.25,87,136.0
474,E-3,71.0,0.25,87,136.0
475,E2,71.25,0.25,79,136.0
476,B3,71.25,0.25,79,136.0
477,E2,71.5,0.25,79,136.0
478,E-3,71.5,0.25,79,136.0
479,C#5,71.5,1.5,95,136.0
480,G#4,71.5,1.5,95,136.0
481,E4,71.5,4.0,57,136.0
482,B3,71.5,4.0,57,136.0
483,A3,71.5,4.0,57,136.0
484,E3,71.5,4.0,57,136.0
485,A2,71.5,4.0,57,136.0
486,G#1,72.0,1.0,79,136.0
487,G#2,72.0,1.0,79,136.0
488,B1,72.0,0.25,87,136.0
489,E-3,72.0,0.25,87,136.0
490,E-3,72.5,0.125,63,136.0
491,A1,73.0,1.5,79,136.0
492,A2,73.0,1.5,79,136.0
493,C#3,73.0,0.375,73,136.0
494,A3,73.0,0.375,73,136.0
495,E2,73.0,0.375,73,136.0
496,B1,73.0,0.375,73,136.0
497,A2,73.0,0.375,73,136.0
498,A4,73.0,4.0,87,136.0
499,E4,73.0,4.0,87,136.0
500,B1,74.5,1.5,79,136.0
501,B2,74.5,1.5,79,136.0
502,C#3,74.5,0.375,82,136.0
503,A3,74.5,0.375,82,136.0
504,E2,74.5,0.375,82,136.0
505,B1,74.5,0.375,82,136.0
506,A2,74.5,0.375,82,136.0
507,E-6,76.0,4.0,95,136.0
508,D2,76.0,4.0,63,136.0
509,D2,76.0,4.0,111,136.0
510,C#3,76.0,0.375,79,136.0
511,A3,76.0,0.375,79,136.0
512,E2,76.0,0.375,79,136.0
513,B1,76.0,0.375,79,136.0
514,A2,76.0,0.375,79,136.0
515,E-6,80.0,4.0,95,136.0
516,D2,80.0,4.0,63,136.0
517,D2,80.0,4.0,111,136.0
518,E4,82.0,4.0,57,136.0
519,B3,82.0,4.0,57,136.0
520,A3,82.0,4.0,57,136.0
521,E3,82.0,4.0,57,136.0
522,A2,82.0,4.0,57,136.0
523,A4,83.5,4.0,87,136.0
524,E4,83.5,4.0,87,136.0
525,E-6,84.0,4.0,95,136.0
526,D2,84.0,4.0,63,136.0
527,E-3,84.0,0.25,79,136.0
528,D2,84.0,4.0,111,136.0
529,E-3,84.5,0.25,63,136.0
530,E-3,85.0,0.25,79,136.0
531,B3,85.25,0.25,63,136.0
532,E-3,85.5,0.25,63,136.0
533,E-3,86.0,0.25,79,136.0
534,B3,86.25,0.25,63,136.0
535,E-3,86.5,0.25,47,136.0
536,E-3,87.0,0.25,63,136.0
537,E-3,87.5,0.25,63,136.0
538,B3,87.75,0.25,63,136.0
539,E-6,88.0,3.5,95,136.0
540,E-3,88.0,0.25,47,136.0
541,E-3,88.5,0.25,79,136.0
542,E4,88.5,2.5,57,136.0
543,B3,88.5,2.5,57,136.0
544,A3,88.5,2.5,57,136.0
545,E3,88.5,2.5,57,136.0
546,A2,88.5,2.5,57,136.0
547,E-3,89.0,0.25,63,136.0
548,B3,89.25,0.25,63,136.0
549,B3,89.75,0.25,63,136.0
550,E-3,90.0,0.25,63,136.0
551,A4,90.0,2.5,87,136.0
552,E4,90.0,2.5,87,136.0
553,E-3,90.5,0.25,63,136.0
554,E2,91.0,0.25,71,136.0
555,E-3,91.0,0.25,71,136.0
556,B4,91.0,1.5,60,136.0
557,F#4,91.0,1.5,60,136.0
558,E4,91.0,1.5,60,136.0
559,B3,91.0,1.5,60,136.0
560,E3,91.0,1.5,60,136.0
561,B3,91.25,0.25,47,136.0
562,E-3,91.5,0.25,63,136.0
563,E3,92.0,4.0,79,136.0
564,E-5,92.0,4.0,47,136.0
565,E2,92.0,0.75,95,136.0
566,E-5,92.0,4.0,87,136.0
567,B-4,92.0,4.0,87,136.0
568,F#4,92.0,4.0,87,136.0
569,E-4,92.0,4.0,87,136.0
570,B1,92.0,0.25,79,136.0
571,E-3,92.0,0.25,79,136.0
572,E-3,92.5,0.25,79,136.0
573,E5,92.5,1.5,87,136.0
574,B4,92.5,1.5,87,136.0
575,F#4,92.5,1.5,60,136.0
576,C#4,92.5,1.5,60,136.0
577,B3,92.5,1.5,60,136.0
578,F#3,92.5,1.5,60,136.0
579,B2,92.5,1.5,60,136.0
580,B2,92.75,0.75,95,136.0
581,E-3,93.0,0.25,79,136.0
582,B3,93.25,0.25,79,136.0
583,B4,93.375,2.25,111,136.0
584,E2,93.5,0.25,95,136.0
585,E-3,93.5,0.25,63,136.0
586,B1,93.75,0.5,95,136.0
587,E-3,94.0,0.25,79,136.0
588,B4,94.0,1.5,87,136.0
589,F#4,94.0,1.5,87,136.0
590,G#4,94.0,1.5,60,136.0
591,E-4,94.0,1.5,60,136.0
592,C#4,94.0,1.5,60,136.0
593,G#3,94.0,1.5,60,136.0
594,C#3,94.0,1.5,60,136.0
595,C#2,94.25,0.25,79,136.0
596,B3,94.25,0.25,63,136.0
597,F#2,94.5,0.25,95,136.0
598,E-3,94.5,0.25,63,136.0
599,C#2,94.75,0.25,63,136.0
600,E2,95.0,1.0,79,136.0
601,E-3,95.0,0.25,63,136.0
602,E-3,95.5,0.25,63,136.0
603,C#5,95.5,1.5,87,136.0
604,G#4,95.5,1.5,87,136.0
605,A4,95.5,1.0,60,136.0
606,E4,95.5,1.0,60,136.0
607,D4,95.5,1.0,60,136.0
608,A3,95.5,1.0,60,136.0
609,D3,95.5,1.0,60,136.0
610,B1,95.75,0.25,71,136.0
611,B3,95.75,0.25,71,136.0
612,E-5,96.0,3.5,47,136.0
613,E2,96.0,0.5,79,136.0
614,B1,96.0,0.25,63,136.0
615,E-3,96.0,0.25,63,136.0
616,E-3,96.5,0.25,95,136.0
617,E-3,96.5,0.25,79,136.0
618,D3,96.75,0.25,79,136.0
619,E2,97.0,0.25,63,136.0
620,E-3,97.0,0.25,63,136.0
621,D5,97.0,1.0,87,136.0
622,A4,97.0,1.0,87,136.0
623,A4,97.0,0.5,60,136.0
624,E4,97.0,0.5,60,136.0
625,D4,97.0,0.5,60,136.0
626,A3,97.0,0.5,60,136.0
627,D3,97.0,0.5,60,136.0
628,C#3,97.25,0.25,95,136.0
629,B3,97.25,0.25,79,136.0
630,B4,97.5,1.5,60,136.0
631,F#4,97.5,1.5,60,136.0
632,E4,97.5,1.5,60,136.0
633,B3,97.5,1.5,60,136.0
634,E3,97.5,1.5,60,136.0
635,A2,97.75,0.25,79,136.0
636,B3,97.75,0.25,63,136.0
637,B2,98.0,0.25,95,136.0
638,E-3,98.0,0.25,63,136.0
639,B2,98.25,0.25,79,136.0
640,F#2,98.5,0.25,95,136.0
641,E-3,98.5,0.25,63,136.0
642,D5,98.5,0.5,87,136.0
643,A4,98.5,0.5,87,136.0
644,B1,98.75,0.25,95,136.0
645,B4,99.0,0.25,111,136.0
646,C#2,99.0,0.25,95,136.0
647,E2,99.0,0.25,63,136.0
648,E-3,99.0,0.25,63,136.0
649,E5,99.0,1.5,87,136.0
650,B4,99.0,1.5,87,136.0
651,E5,99.0,1.0,63,136.0
652,B4,99.0,1.0,63,136.0
653,A4,99.0,1.0,63,136.0
654,E4,99.0,1.0,63,136.0
655,A3,99.0,1.0,63,136.0
656,A4,99.25,0.25,95,136.0
657,C#2,99.25,0.25,79,136.0
658,B1,99.25,0.25,63,136.0
659,B3,99.25,0.25,63,136.0
660,G4,99.5,0.125,95,136.0
661,E2,99.5,0.5,95,136.0
662,E-3,99.5,0.25,63,136.0
663,E3,99.75,3.875,79,136.0
664,E-5,99.75,3.75,87,136.0
665,B-4,99.75,3.75,87,136.0
666,F#4,99.75,3.75,87,136.0
667,E-4,99.75,3.75,87,136.0
668,F#4,100.0,1.5,95,136.0
669,D5,100.0,4.0,63,136.0
670,D2,100.0,0.5,79,136.0
671,B1,100.0,0.25,79,136.0
672,E-3,100.0,0.25,79,136.0
673,B5,100.0,1.0,63,136.0
674,F#5,100.0,1.0,63,136.0
675,E5,100.0,1.0,63,136.0
676,B4,100.0,1.0,63,136.0
677,E4,100.0,1.0,63,136.0
678,A2,100.5,0.25,95,136.0
679,E-3,100.5,0.25,63,136.0
680,A5,100.5,1.0,87,136.0
681,E5,100.5,1.0,87,136.0
682,C2,100.75,1.25,95,136.0
683,E2,100.75,0.25,63,136.0
684,E2,101.0,0.25,71,136.0
685,E-3,101.0,0.25,71,136.0
686,F#5,101.0,1.5,60,136.0
687,C#5,101.0,1.5,60,136.0
688,B4,101.0,1.5,60,136.0
689,F#4,101.0,1.5,60,136.0
690,B3,101.0,1.5,60,136.0
691,B3,101.25,0.25,63,136.0
692,E4,101.5,0.25,79,136.0
693,E6,101.5,1.0,95,136.0
694,B5,101.5,1.0,95,136.0
695,F#4,101.75,0.25,111,136.0
696,B3,101.75,0.25,63,136.0
697,E4,102.0,0.25,95,136.0
698,G2,102.0,0.25,95,136.0
699,D4,102.25,0.25,79,136.0
700,G2,102.25,0.25,63,136.0
701,B3,102.25,0.25,63,136.0
702,B3,102.5,0.125,79,136.0
703,D2,102.5,0.25,95,136.0
704,E-3,102.5,0.25,63,136.0
705,B5,102.5,1.5,87,136.0
706,F#5,102.5,1.5,87,136.0
707,G#5,102.5,1.5,60,136.0
708,E-5,102.5,1.5,60,136.0
709,C#5,102.5,1.5,60,136.0
710,G#4,102.5,1.5,60,136.0
711,C#4,102.5,1.5,60,136.0
712,G1,102.75,0.5,95,136.0
713,B3,102.75,0.25,63,136.0
714,D4,103.0,0.5,111,136.0
715,E-3,103.0,0.25,47,136.0
716,A1,103.25,0.25,95,136.0
717,B3,103.5,0.125,79,136.0
718,D2,103.5,0.25,95,136.0
719,E-3,103.5,0.25,63,136.0
720,A3,103.75,0.25,95,136.0
721,C3,103.75,4.0,63,136.0
722,A1,103.75,0.25,79,136.0
723,D5,103.75,4.0,75,136.0
724,B4,103.75,4.0,75,136.0
725,G4,103.75,4.0,75,136.0
726,E4,103.75,4.0,75,136.0
727,B3,104.0,1.625,95,136.0
728,D5,104.0,3.5,63,136.0
729,C2,104.0,1.0,95,136.0
730,E-3,104.0,0.25,63,136.0
731,C#6,104.0,1.5,87,136.0
732,G#5,104.0,1.5,87,136.0
733,E5,104.0,4.0,60,136.0
734,B4,104.0,4.0,60,136.0
735,A4,104.0,4.0,60,136.0
736,E4,104.0,4.0,60,136.0
737,A3,104.0,4.0,60,136.0
738,B3,104.25,0.25,63,136.0
739,B1,104.75,0.25,71,136.0
740,B3,104.75,0.25,71,136.0
741,B2,105.0,0.5,95,136.0
742,E2,105.0,0.25,63,136.0
743,B3,105.25,0.25,47,136.0
744,B2,105.5,0.25,79,136.0
745,E-3,105.5,0.25,79,136.0
746,A5,105.5,4.0,87,136.0
747,E5,105.5,4.0,87,136.0
748,A2,105.75,0.375,95,136.0
749,E2,105.75,0.25,63,136.0
750,E2,106.0,0.25,79,136.0
751,E-3,106.0,0.25,79,136.0
752,A2,106.25,0.25,79,136.0
753,B3,106.25,0.25,63,136.0
754,D2,106.5,0.25,79,136.0
755,E-3,106.5,0.25,63,136.0
756,C2,106.75,0.75,95,136.0
757,B1,107.0,0.25,71,136.0
758,E-3,107.0,0.25,71,136.0
759,E2,107.5,0.25,95,136.0
760,E-3,107.5,0.125,63,136.0
761,A1,107.75,0.25,79,136.0
762,E2,107.75,0.25,63,136.0
763,B-4,108.0,4.0,79,136.0
764,B1,108.0,1.0,95,136.0
765,B1,108.0,0.25,79,136.0
766,E-3,108.0,0.25,79,136.0
767,E-3,108.5,0.25,79,136.0
768,F#2,109.0,0.25,95,136.0
769,E-3,109.0,0.25,79,136.0
770,F#2,109.25,0.25,79,136.0
771,B3,109.25,0.25,79,136.0
772,C#2,109.5,0.25,95,136.0
773,E-3,109.5,0.25,63,136.0
774,F#1,109.75,1.5,95,136.0
775,B-4,110.0,1.375,127,136.0
776,E-3,110.0,0.25,79,136.0
777,B3,110.25,0.25,63,136.0
778,E-3,110.5,0.25,63,136.0
779,E-3,111.0,0.25,63,136.0
780,C3,111.5,3.875,63,136.0
781,E-3,111.5,0.25,63,136.0
782,D5,111.5,3.75,75,136.0
783,B4,111.5,3.75,75,136.0
784,G4,111.5,3.75,75,136.0
785,E4,111.5,3.75,75,136.0
786,G#4,111.75,0.25,127,136.0
787,F#1,111.75,0.25,79,136.0
788,B1,111.75,0.25,71,136.0
789,B3,111.75,0.25,71,136.0
790,B4,112.0,0.625,127,136.0
791,B-4,112.0,4.0,79,136.0
792,G#1,112.0,0.25,95,136.0
793,B1,112.0,0.25,63,136.0
794,E-3,112.0,0.25,63,136.0
795,G#1,112.25,0.25,79,136.0
796,C#2,112.5,0.25,95,136.0
797,E-3,112.5,0.25,79,136.0
798,B-4,112.75,0.125,95,136.0
799,G#1,112.75,0.25,79,136.0
800,G#4,113.0,0.25,95,136.0
801,B1,113.0,1.0,95,136.0
802,E2,113.0,0.25,63,136.0
803,E-3,113.0,0.25,63,136.0
804,B-4,113.25,0.25,111,136.0
805,B3,113.25,0.25,79,136.0
806,G#4,113.5,0.25,95,136.0
807,B3,113.75,0.25,63,136.0
808,F#4,114.0,0.25,95,136.0
809,F#2,114.0,0.25,95,136.0
810,E-3,114.0,0.25,63,136.0
811,G#4,114.25,0.25,95,136.0
812,F#2,114.25,0.25,63,136.0
813,F#4,114.5,0.125,95,136.0
814,C#2,114.5,0.25,95,136.0
815,E-3,114.5,0.25,63,136.0
816,F#1,114.75,0.5,95,136.0
817,E-4,115.0,0.25,79,136.0
818,E2,115.0,0.25,63,136.0
819,E-3,115.0,0.25,63,136.0
820,F#4,115.25,0.25,79,136.0
821,G#1,115.25,0.25,79,136.0
822,B1,115.25,0.25,63,136.0
823,B3,115.25,0.25,63,136.0
824,E-4,115.5,0.25,79,136.0
825,C#2,115.5,0.25,95,136.0
826,E-3,115.5,0.25,63,136.0
827,B-4,115.5,4.0,87,136.0
828,F#4,115.5,4.0,87,136.0
829,C#4,115.5,4.0,87,136.0
830,B2,115.5,4.0,87,136.0
831,G#1,115.75,0.25,63,136.0
832,B3,116.0,0.25,95,136.0
833,A4,116.0,4.0,63,136.0
834,G1,116.0,0.5,111,136.0
835,B1,116.0,0.25,79,136.0
836,E-3,116.0,0.25,79,136.0
837,E5,116.0,4.0,60,136.0
838,B4,116.0,4.0,60,136.0
839,A4,116.0,4.0,60,136.0
840,E4,116.0,4.0,60,136.0
841,A3,116.0,4.0,60,136.0
842,D4,116.25,0.25,95,136.0
843,B3,116.5,1.5,111,136.0
844,D2,116.5,0.25,79,136.0
845,E-3,116.5,0.25,63,136.0
846,D2,116.75,0.5,95,136.0
847,E2,116.75,0.25,63,136.0
848,E2,117.0,0.25,71,136.0
849,E-3,117.0,0.25,71,136.0
850,A1,117.25,0.25,79,136.0
851,B3,117.25,0.25,63,136.0
852,A1,117.5,0.5,111,136.0
853,A5,117.5,4.0,87,136.0
854,E5,117.5,4.0,87,136.0
855,B3,117.75,0.25,63,136.0
856,D2,118.0,0.25,79,136.0
857,D2,118.25,0.5,111,136.0
858,B3,118.25,0.25,63,136.0
859,E-3,118.5,0.25,63,136.0
860,G1,118.75,1.25,95,136.0
861,B3,118.75,0.25,63,136.0
862,D4,119.0,0.125,79,136.0
863,E-3,119.0,0.25,47,136.0
864,E4,119.25,0.25,79,136.0
865,F#4,119.5,0.25,95,136.0
866,E-3,119.5,0.25,63,136.0
867,G4,119.75,0.25,111,136.0
868,A4,120.0,0.25,95,136.0
869,A4,120.0,1.625,63,136.0
870,G1,120.0,1.5,95,136.0
871,E-3,120.0,0.25,63,136.0
872,B4,120.25,0.25,95,136.0
873,B3,120.25,0.25,63,136.0
874,C#5,120.5,0.25,95,136.0
875,D5,120.75,0.25,111,136.0
876,B1,120.75,0.25,71,136.0
877,B3,120.75,0.25,71,136.0
878,E5,121.0,0.25,111,136.0
879,E2,121.0,0.25,63,136.0
880,F#5,121.25,0.25,95,136.0
881,B3,121.25,0.25,47,136.0
882,G5,121.5,0.25,111,136.0
883,E-3,121.5,0.25,79,136.0
884,A5,121.75,0.25,95,136.0
885,E2,121.75,0.25,63,136.0
886,B5,122.0,0.25,95,136.0
887,G2,122.0,0.25,111,136.0
888,E2,122.0,0.25,79,136.0
889,E-3,122.0,0.25,79,136.0
890,C#6,122.25,0.125,95,136.0
891,G2,122.25,0.25,111,136.0
892,B3,122.25,0.25,63,136.0
893,D6,122.5,0.25,111,136.0
894,F#5,122.5,0.625,63,136.0
895,E-3,122.5,0.25,63,136.0
896,E6,122.75,0.25,111,136.0
897,G1,122.75,0.25,79,136.0
898,F#6,123.0,0.25,111,136.0
899,G1,123.0,0.5,111,136.0
900,B1,123.0,0.25,71,136.0
901,E-3,123.0,0.25,71,136.0
902,E6,123.25,0.125,95,136.0
903,F#5,123.375,333/1000,63,136.0
904,D6,123.5,0.25,95,136.0
905,A1,123.5,0.25,95,136.0
906,E-3,123.5,0.125,63,136.0
907,B-4,123.5,4.0,87,136.0
908,F#4,123.5,4.0,87,136.0
909,C#4,123.5,4.0,87,136.0
910,B2,123.5,4.0,87,136.0
911,A5,123.708,73/250,63,136.0
912,D2,123.75,0.25,79,136.0
913,E2,123.75,0.25,63,136.0
914,A5,124.0,21/500,63,136.0
915,E1,124.0,0.75,111,136.0
916,B1,124.0,0.25,79,136.0
917,E-3,124.0,0.25,79,136.0
918,E5,124.0,4.0,60,136.0
919,B4,124.0,4.0,60,136.0
920,A4,124.0,4.0,60,136.0
921,E4,124.0,4.0,60,136.0
922,A3,124.0,4.0,60,136.0
923,F#5,124.042,3.125,63,136.0
924,E-3,124.5,0.25,79,136.0
925,E2,124.75,0.25,95,136.0
926,E1,125.0,0.75,95,136.0
927,E-3,125.0,0.25,79,136.0
928,B3,125.25,0.25,79,136.0
929,E-3,125.5,0.25,63,136.0
930,A5,125.5,4.0,87,136.0
931,E5,125.5,4.0,87,136.0
932,F#6,125.625,0.25,111,136.0
933,E2,125.75,0.25,95,136.0
934,E1,126.0,0.75,111,136.0
935,E-3,126.0,0.25,79,136.0
936,B-6,126.125,0.125,111,136.0
937,B3,126.25,0.25,63,136.0
938,F#6,126.375,1.375,127,136.0
939,E-3,126.5,0.25,63,136.0
940,E2,126.75,1.0,95,136.0
941,E-3,127.0,0.25,63,136.0
942,D5,127.292,333/1000,63,136.0
943,E-3,127.5,0.25,63,136.0
944,A4,127.5,4.0,79,136.0
945,F#4,127.5,4.0,79,136.0
946,D4,127.5,4.0,79,136.0
947,B3,127.5,4.0,79,136.0
948,G2,127.5,4.0,79,136.0
949,F#5,127.625,333/1000,63,136.0
950,E2,127.75,0.25,79,136.0
951,B1,127.75,0.25,71,136.0
952,B3,127.75,0.25,71,136.0
953,E-5,127.958,21/500,63,136.0
954,E-5,128.0,3.75,63,136.0
955,E1,128.0,0.75,95,136.0
956,B1,128.0,0.25,63,136.0
957,E-3,128.0,0.25,63,136.0
958,E-3,128.5,0.25,79,136.0
959,E2,128.75,1.0,95,136.0
960,E2,129.0,0.25,63,136.0
961,E-3,129.0,0.25,63,136.0
962,B3,129.25,0.25,79,136.0
963,E-6,129.75,0.25,111,136.0
964,E1,129.75,1.0,111,136.0
965,B3,129.75,0.25,63,136.0
966,F#6,130.0,0.25,111,136.0
967,E-3,130.0,0.25,63,136.0
968,E-6,130.25,1.625,111,136.0
969,E-3,130.5,0.25,63,136.0
970,E1,130.75,0.25,79,136.0
971,B1,131.0,0.25,111,136.0
972,E2,131.0,0.25,63,136.0
973,E-3,131.0,0.25,63,136.0
974,B1,131.25,0.75,95,136.0
975,B1,131.25,0.25,63,136.0
976,B3,131.25,0.25,63,136.0
977,E-3,131.5,0.25,63,136.0
978,B5,132.0,1.625,111,136.0
979,D5,132.0,3.75,63,136.0
980,C2,132.0,0.75,111,136.0
981,B1,132.0,0.25,79,136.0
982,E-3,132.0,0.25,79,136.0
983,E-3,132.5,0.25,63,136.0
984,G2,132.75,0.75,95,136.0
985,E2,132.75,0.25,63,136.0
986,E2,133.0,0.25,71,136.0
987,E-3,133.0,0.25,71,136.0
988,B3,133.25,0.25,63,136.0
989,C2,133.5,0.25,95,136.0
990,E-5,133.5,4.0,31,136.0
991,A5,133.75,0.125,111,136.0
992,G1,133.75,0.5,111,136.0
993,B3,133.75,0.25,63,136.0
994,G5,134.0,0.625,111,136.0
995,A1,134.25,0.25,95,136.0
996,B3,134.25,0.25,63,136.0
997,D2,134.5,0.25,95,136.0
998,E-3,134.5,0.25,63,136.0
999,F#5,134.75,0.25,79,136.0
1000,A1,134.75,0.25,79,136.0
1001,B3,134.75,0.25,63,136.0
1002,G5,135.0,0.25,95,136.0
1003,C2,135.0,1.0,95,136.0
1004,E-3,135.0,0.25,47,136.0
1005,A5,135.25,0.25,111,136.0
1006,E-3,135.5,0.25,63,136.0
1007,A4,135.5,4.0,79,136.0
1008,F#4,135.5,4.0,79,136.0
1009,D4,135.5,4.0,79,136.0
1010,B3,135.5,4.0,79,136.0
1011,G2,135.5,4.0,79,136.0
1012,F#5,135.75,0.25,111,136.0
1013,D5,136.0,1.25,111,136.0
1014,B4,136.0,1729/500,63,136.0
1015,C2,136.0,0.5,95,136.0
1016,E-3,136.0,0.25,63,136.0
1017,B3,136.25,0.25,63,136.0
1018,B2,136.5,0.25,95,136.0
1019,B2,136.75,0.25,79,136.0
1020,B1,136.75,0.25,71,136.0
1021,B3,136.75,0.25,71,136.0
1022,E2,137.0,0.25,63,136.0
1023,A2,137.25,0.25,95,136.0
1024,B3,137.25,0.25,47,136.0
1025,E-3,137.5,0.25,79,136.0
1026,E-5,137.5,4.0,31,136.0
1027,F2,137.75,0.25,63,136.0
1028,E2,137.75,0.25,63,136.0
1029,G2,138.0,0.25,95,136.0
1030,E2,138.0,0.25,79,136.0
1031,E-3,138.0,0.25,79,136.0
1032,G2,138.25,0.25,79,136.0
1033,B3,138.25,0.25,63,136.0
1034,D2,138.5,0.25,95,136.0
1035,E-3,138.5,0.25,63,136.0
1036,G1,138.75,0.25,95,136.0
1037,A1,139.0,0.25,95,136.0
1038,B1,139.0,0.25,71,136.0
1039,E-3,139.0,0.25,71,136.0
1040,A1,139.25,0.25,79,136.0
1041,E5,139.5,0.25,127,136.0
1042,C2,139.5,0.5,95,136.0
1043,E-3,139.5,0.125,63,136.0
1044,B4,139.5,4.0,83,136.0
1045,F#4,139.5,4.0,83,136.0
1046,D4,139.5,4.0,83,136.0
1047,E3,139.5,4.0,83,136.0
1048,E-5,139.75,0.25,95,136.0
1049,E2,139.75,0.25,63,136.0
1050,B-4,139.958,21/500,79,136.0
1051,B4,140.0,0.25,95,136.0
1052,B-4,140.0,979/500,79,136.0
1053,B1,140.0,1.0,95,136.0
1054,B1,140.0,0.25,87,136.0
1055,E-3,140.0,0.25,87,136.0
1056,C#5,140.25,0.25,95,136.0
1057,B4,140.5,0.25,95,136.0
1058,E-3,140.5,0.25,79,136.0
1059,B-4,140.75,0.25,95,136.0
1060,G#4,141.0,0.75,95,136.0
1061,F#2,141.0,0.25,95,136.0
1062,E2,141.0,0.25,79,136.0
1063,E-3,141.0,0.25,79,136.0
1064,F#2,141.25,0.25,79,136.0
1065,B3,141.25,0.25,79,136.0
1066,C#2,141.5,0.25,79,136.0
1067,E-3,141.5,0.25,63,136.0
1068,D5,141.5,4.0,47,136.0
1069,B-4,141.75,0.25,127,136.0
1070,F#1,141.75,1.5,95,136.0
1071,B1,141.75,0.25,95,136.0
1072,F5,141.958,1.5,63,136.0
1073,F#4,142.0,0.75,95,136.0
1074,B1,142.0,0.25,87,136.0
1075,E-3,142.0,0.25,87,136.0
1076,B3,142.25,0.25,63,136.0
1077,E2,142.5,0.25,71,136.0
1078,E-3,142.5,0.25,71,136.0
1079,E-3,143.0,0.25,79,136.0
1080,C#5,143.458,271/500,63,136.0
1081,B-4,143.5,3.625,90,136.0
1082,F#4,143.5,3.625,90,136.0
1083,E-4,143.5,3.625,90,136.0
1084,B1,143.5,0.25,79,136.0
1085,E-3,143.5,0.25,79,136.0
1086,F#1,143.75,0.25,79,136.0
1087,B3,143.75,0.25,79,136.0
1088,B-4,144.0,0.25,127,136.0
1089,C#5,144.0,979/500,63,136.0
1090,G#1,144.0,0.25,95,136.0
1091,E-3,144.0,0.25,63,136.0
1092,F#4,144.25,0.25,95,136.0
1093,G#1,144.25,0.25,79,136.0
1094,E4,144.5,0.25,95,136.0
1095,C#2,144.5,0.25,95,136.0
1096,B1,144.5,0.25,87,136.0
1097,E-3,144.5,0.25,87,136.0
1098,G#4,144.75,0.25,95,136.0
1099,G#1,144.75,0.25,79,136.0
1100,B1,144.75,0.25,95,136.0
1101,E4,145.0,0.25,95,136.0
1102,B1,145.0,1.0,95,136.0
1103,E2,145.0,0.25,71,136.0
1104,E-3,145.0,0.25,71,136.0
1105,E-4,145.25,0.25,95,136.0
1106,B3,145.25,0.25,79,136.0
1107,D4,145.5,0.25,95,136.0
1108,D5,145.5,4.0,47,136.0
1109,C#4,145.75,0.5,95,136.0
1110,B3,145.75,0.25,79,136.0
1111,G#5,145.958,1.875,79,136.0
1112,F#2,146.0,0.25,95,136.0
1113,B1,146.0,0.25,79,136.0
1114,E-3,146.0,0.25,79,136.0
1115,C4,146.25,0.25,79,136.0
1116,F#2,146.25,0.25,79,136.0
1117,B3,146.5,0.25,79,136.0
1118,C#2,146.5,0.25,95,136.0
1119,E-3,146.5,0.25,63,136.0
1120,B-3,146.75,0.25,95,136.0
1121,F#1,146.75,0.5,95,136.0
1122,G#3,147.0,0.25,95,136.0
1123,E2,147.0,0.25,79,136.0
1124,E-3,147.0,0.25,79,136.0
1125,B-3,147.25,0.25,79,136.0
1126,G#1,147.25,0.25,79,136.0
1127,B3,147.25,0.25,95,136.0
1128,C#2,147.5,0.25,95,136.0
1129,B4,147.5,4.0,75,136.0
1130,G4,147.5,4.0,75,136.0
1131,D4,147.5,4.0,75,136.0
1132,C3,147.5,4.0,75,136.0
1133,B3,147.75,0.25,111,136.0
1134,G#1,147.75,0.25,79,136.0
1135,C#3,147.75,0.25,79,136.0
1136,B1,147.75,0.25,79,136.0
1137,A5,147.958,21/500,79,136.0
1138,B3,148.0,1.375,111,136.0
1139,A5,148.0,4.0,79,136.0
1140,G1,148.0,1.75,111,136.0
1141,E-3,148.5,0.25,79,136.0
1142,B1,148.75,0.25,95,136.0
1143,E2,149.0,0.25,79,136.0
1144,E-3,149.0,0.25,79,136.0
1145,E2,149.25,0.25,71,136.0
1146,B3,149.25,0.25,71,136.0
1147,D4,149.5,0.25,111,136.0
1148,B-4,149.5,4.0,47,136.0
1149,B3,149.75,0.25,95,136.0
1150,G1,149.75,0.25,79,136.0
1151,B3,149.75,0.25,79,136.0
1152,E4,150.0,0.25,111,136.0
1153,A1,150.0,0.25,111,136.0
1154,B1,150.0,0.25,95,136.0
1155,D4,150.25,0.25,95,136.0
1156,A1,150.25,0.75,95,136.0
1157,B3,150.25,0.25,63,136.0
1158,F#4,150.5,0.125,95,136.0
1159,E-3,150.5,0.25,63,136.0
1160,E4,150.75,0.125,95,136.0
1161,E2,150.75,0.25,79,136.0
1162,B3,150.75,0.25,79,136.0
1163,F#4,151.0,0.25,95,136.0
1164,A1,151.0,0.25,95,136.0
1165,E2,151.0,0.25,71,136.0
1166,E-3,151.0,0.25,71,136.0
1167,A4,151.25,0.25,95,136.0
1168,B1,151.25,0.75,95,136.0
1169,E4,151.5,0.25,95,136.0
1170,B4,151.5,3.625,74,136.0
1171,G4,151.5,3.625,74,136.0
1172,E4,151.5,3.625,74,136.0
1173,B1,151.5,0.25,79,136.0
1174,E-3,151.5,0.25,79,136.0
1175,F#4,151.75,0.25,111,136.0
1176,A4,152.0,0.25,95,136.0
1177,A5,152.0,3.75,79,136.0
1178,B1,152.0,0.25,95,136.0
1179,E-3,152.0,0.25,79,136.0
1180,B4,152.25,0.25,111,136.0
1181,B1,152.25,0.25,79,136.0
1182,B3,152.25,0.25,79,136.0
1183,C#5,152.5,0.25,111,136.0
1184,D2,152.5,1.0,95,136.0
1185,E5,152.75,0.25,111,136.0
1186,B1,152.75,0.25,79,136.0
1187,B3,152.75,0.25,79,136.0
1188,F5,153.0,0.25,95,136.0
1189,E2,153.0,0.25,95,136.0
1190,F#5,153.25,0.25,111,136.0
1191,B3,153.25,0.25,47,136.0
1192,A5,153.5,0.125,95,136.0
1193,E-3,153.5,0.25,79,136.0
1194,B-4,153.5,4.0,47,136.0
1195,B5,153.75,0.25,95,136.0
1196,B1,153.75,0.25,95,136.0
1197,C#6,154.0,0.25,111,136.0
1198,D2,154.0,0.5,127,136.0
1199,E-3,154.0,0.25,79,136.0
1200,E6,154.25,0.25,111,136.0
1201,B3,154.25,0.25,63,136.0
1202,C#6,154.5,0.25,95,136.0
1203,G2,154.5,0.25,111,136.0
1204,E-3,154.5,0.25,63,136.0
1205,B5,154.75,0.25,95,136.0
1206,E2,154.75,0.5,111,136.0
1207,A5,155.0,0.25,95,136.0
1208,E2,155.0,0.75,95,136.0
1209,B1,155.0,0.75,95,136.0
1210,E2,155.0,0.75,95,136.0
1211,G5,155.25,0.125,111,136.0
1212,B1,155.25,0.25,95,136.0
1213,G#1,155.5,0.25,95,136.0
1214,B-4,155.5,2.0,79,136.0
1215,F#4,155.5,2.0,79,136.0
1216,E-4,155.5,2.0,79,136.0
1217,B2,155.5,2.0,79,136.0
1218,F1,155.75,0.25,95,136.0
1219,B3,155.75,0.25,79,136.0
1220,A4,156.0,0.75,79,136.0
1221,A1,156.0,0.75,111,136.0
1222,A6,156.0,0.625,119,136.0
1223,A5,156.0,0.625,119,136.0
1224,B1,156.0,0.25,103,136.0
1225,C#3,156.0,0.25,103,136.0
1226,B5,156.75,3.25,127,136.0
1227,B4,156.75,3.25,79,136.0
1228,B1,156.75,1.0,111,136.0
1229,B1,156.75,0.25,95,136.0
1230,A3,156.75,0.25,95,136.0
1231,E-3,157.5,0.25,63,136.0
1232,A4,157.5,4.0,63,136.0
1233,F5,157.5,1.375,79,136.0
1234,C#5,157.5,1.375,79,136.0
1235,B-4,157.5,1.375,79,136.0
1236,E-3,158.0,0.25,79,136.0
1237,B3,158.25,0.25,63,136.0
1238,E-3,158.5,0.25,63,136.0
1239,B1,159.0,1.0,95,136.0
1240,C#5,159.0,0.5,90,136.0
1241,B-4,159.0,0.5,90,136.0
1242,F#4,159.0,0.5,90,136.0
1243,E2,159.0,0.25,87,136.0
1244,E-3,159.0,0.25,87,136.0
1245,E-3,159.5,0.25,63,136.0
1246,C#5,159.5,1.75,90,136.0
1247,B-4,159.5,1.75,90,136.0
1248,F#4,159.5,1.75,90,136.0
1249,B3,159.75,0.25,79,136.0
1250,B5,160.0,0.25,127,136.0
1251,B4,160.0,3.0,79,136.0
1252,B1,160.0,0.75,95,136.0
1253,B1,160.0,0.25,79,136.0
1254,E-3,160.0,0.25,79,136.0
1255,D6,160.25,0.25,95,136.0
1256,E-3,160.5,0.25,79,136.0
1257,D6,160.75,0.25,111,136.0
1258,B1,160.75,0.25,95,136.0
1259,E2,161.0,0.25,71,136.0
1260,E-3,161.0,0.25,71,136.0
1261,D6,161.25,0.25,111,136.0
1262,E2,161.25,0.25,79,136.0
1263,B3,161.25,0.25,79,136.0
1264,B5,161.5,1.0,111,136.0
1265,A4,161.5,2.5,63,136.0
1266,G#5,161.5,1.625,90,136.0
1267,F5,161.5,1.625,90,136.0
1268,C#5,161.5,1.625,90,136.0
1269,B3,161.75,0.25,79,136.0
1270,B1,162.0,1.75,95,136.0
1271,B1,162.0,0.25,79,136.0
1272,E-3,162.0,0.25,79,136.0
1273,E-3,162.5,0.25,63,136.0
1274,E2,162.75,0.25,79,136.0
1275,E2,163.0,0.25,79,136.0
1276,E-3,163.0,0.25,79,136.0
1277,B3,163.25,0.25,63,136.0
1278,A5,163.25,0.25,95,136.0
1279,F#5,163.25,0.25,95,136.0
1280,D5,163.25,0.25,95,136.0
1281,G2,163.25,0.25,95,136.0
1282,E-3,163.5,0.25,79,136.0
1283,A5,163.5,4.0,95,136.0
1284,F#5,163.5,4.0,95,136.0
1285,D5,163.5,4.0,95,136.0
1286,G2,163.5,4.0,95,136.0
1287,A4,164.0,0.75,79,136.0
1288,A1,164.0,0.75,111,136.0
1289,F#5,164.0,0.625,47,136.0
1290,A5,164.0,0.625,123,136.0
1291,E5,164.0,0.625,123,136.0
1292,D5,164.0,0.625,123,136.0
1293,A4,164.0,0.625,123,136.0
1294,B1,164.0,0.25,111,136.0
1295,A3,164.0,0.25,111,136.0
1296,B4,164.75,3.25,79,136.0
1297,B1,164.75,1.0,111,136.0
1298,B5,164.75,2.75,111,136.0
1299,F#5,164.75,2.75,111,136.0
1300,E5,164.75,2.75,111,136.0
1301,B4,164.75,2.75,111,136.0
1302,B1,164.75,0.25,103,136.0
1303,C#3,164.75,0.25,103,136.0
1304,F#5,164.875,333/1000,47,136.0
1305,A5,165.208,73/250,47,136.0
1306,B3,165.25,0.25,63,136.0
1307,A5,165.5,21/500,47,136.0
1308,F#5,165.542,3.25,47,136.0
1309,B2,165.75,1.25,111,136.0
1310,B3,165.75,0.25,79,136.0
1311,B1,166.0,0.25,95,136.0
1312,B3,166.25,0.25,63,136.0
1313,B1,166.5,0.25,79,136.0
1314,E-3,166.5,0.25,79,136.0
1315,B1,166.75,0.25,87,136.0
1316,B3,166.75,0.25,87,136.0
1317,A2,167.0,0.75,111,136.0
1318,E2,167.0,0.25,79,136.0
1319,E-3,167.0,0.25,79,136.0
1320,B5,167.5,0.25,95,136.0
1321,E-3,167.5,0.25,63,136.0
1322,F#6,167.75,0.25,111,136.0
1323,B2,167.75,0.25,79,136.0
1324,B5,168.0,0.25,111,136.0
1325,B4,168.0,3.0,79,136.0
1326,B2,168.0,0.25,79,136.0
1327,E-3,168.0,0.25,79,136.0
1328,B2,168.25,0.25,95,136.0
1329,B3,168.25,0.25,79,136.0
1330,B5,168.5,1.25,111,136.0
1331,B2,168.5,0.25,79,136.0
1332,B1,168.75,0.75,111,136.0
1333,B1,168.75,0.25,79,136.0
1334,B3,168.75,0.25,79,136.0
1335,D5,168.792,333/1000,47,136.0
1336,E2,169.0,0.25,95,136.0
1337,F#5,169.125,333/1000,47,136.0
1338,B1,169.25,0.25,71,136.0
1339,B3,169.25,0.25,71,136.0
1340,E-5,169.458,21/500,47,136.0
1341,B2,169.5,0.25,95,136.0
1342,E-3,169.5,0.25,79,136.0
1343,E-5,169.5,4.0,47,136.0
1344,F#2,169.75,0.25,79,136.0
1345,B5,170.0,0.25,111,136.0
1346,A2,170.0,0.75,111,136.0
1347,E-3,170.0,0.25,79,136.0
1348,B3,170.25,0.25,63,136.0
1349,E-3,170.5,0.25,79,136.0
1350,B2,170.75,0.5,95,136.0
1351,E2,171.0,0.25,95,136.0
1352,B2,171.25,0.25,79,136.0
1353,E2,171.25,0.25,95,136.0
1354,E2,171.5,0.25,95,136.0
1355,E-3,171.5,0.25,63,136.0
1356,A5,171.5,4.0,95,136.0
1357,F#5,171.5,4.0,95,136.0
1358,D5,171.5,4.0,95,136.0
1359,G2,171.5,4.0,95,136.0
1360,F#2,171.75,0.25,95,136.0
1361,A4,172.0,0.75,95,136.0
1362,A1,172.0,0.75,111,136.0
1363,A5,172.0,0.75,119,136.0
1364,E5,172.0,0.75,119,136.0
1365,D5,172.0,0.75,119,136.0
1366,A4,172.0,0.75,119,136.0
1367,B1,172.0,0.25,111,136.0
1368,C#3,172.0,0.25,111,136.0
1369,B4,172.75,2.75,79,136.0
1370,B1,172.75,1.0,111,136.0
1371,B5,172.75,3.25,119,136.0
1372,F#5,172.75,3.25,119,136.0
1373,E5,172.75,3.25,119,136.0
1374,B4,172.75,3.25,119,136.0
1375,B1,172.75,0.25,111,136.0
1376,A3,172.75,0.25,111,136.0
1377,E-3,173.5,0.25,63,136.0
1378,D5,173.5,4.0,47,136.0
1379,B2,173.75,2.0,111,136.0
1380,E-3,174.0,0.25,79,136.0
1381,B3,174.25,0.25,63,136.0
1382,E-3,174.5,0.25,63,136.0
1383,E2,174.875,0.125,95,136.0
1384,E2,175.0,0.25,87,136.0
1385,E-3,175.0,0.25,87,136.0
1386,B1,175.25,0.25,95,136.0
1387,E-3,175.5,0.25,63,136.0
1388,A4,175.5,0.625,87,136.0
1389,E4,175.5,0.625,87,136.0
1390,D4,175.5,0.625,87,136.0
1391,A2,175.5,0.625,87,136.0
1392,G3,175.75,0.25,79,136.0
1393,B3,176.0,0.25,79,136.0
1394,B1,176.0,0.25,95,136.0
1395,C#3,176.0,0.25,95,136.0
1396,E4,176.25,0.25,79,136.0
1397,E2,176.25,0.25,95,136.0
1398,B4,176.25,3.25,87,136.0
1399,F#4,176.25,3.25,87,136.0
1400,E4,176.25,3.25,87,136.0
1401,B2,176.25,3.25,87,136.0
1402,F#4,176.5,0.25,79,136.0
1403,F#2,176.5,0.25,95,136.0
1404,E-3,176.5,0.25,63,136.0
1405,B4,176.75,0.25,79,136.0
1406,B2,176.75,0.25,95,136.0
1407,C5,177.0,0.25,79,136.0
1408,C3,177.0,0.25,95,136.0
1409,E-3,177.0,0.25,47,136.0
1410,E5,177.25,0.25,79,136.0
1411,E3,177.25,0.25,95,136.0
1412,B3,177.25,0.25,63,136.0
1413,F#5,177.5,0.25,79,136.0
1414,F#3,177.5,0.25,111,136.0
1415,B4,177.5,4.0,47,136.0
1416,A5,177.75,0.25,79,136.0
1417,A3,177.75,0.25,95,136.0
1418,B3,177.75,0.25,63,136.0
1419,D6,178.0,0.25,79,136.0
1420,D4,178.0,0.25,111,136.0
1421,E-3,178.0,0.25,63,136.0
1422,A5,178.25,0.25,79,136.0
1423,A3,178.25,0.25,95,136.0
1424,F#5,178.5,0.25,79,136.0
1425,F#3,178.5,0.25,111,136.0
1426,E-3,178.5,0.25,63,136.0
1427,E5,178.75,0.25,79,136.0
1428,E3,178.75,0.25,111,136.0
1429,C5,179.0,0.25,79,136.0
1430,C3,179.0,0.25,95,136.0
1431,E-3,179.0,0.25,79,136.0
1432,B4,179.25,0.25,79,136.0
1433,B2,179.25,0.25,95,136.0
1434,B3,179.25,0.25,63,136.0
1435,F#4,179.5,0.25,79,136.0
1436,F#2,179.5,0.25,95,136.0
1437,E-3,179.5,0.25,63,136.0
1438,B4,179.5,4.0,87,136.0
1439,F#4,179.5,4.0,87,136.0
1440,E4,179.5,4.0,87,136.0
1441,B2,179.5,4.0,87,136.0
1442,E4,179.75,0.25,79,136.0
1443,B1,179.75,0.25,79,136.0
1444,E-5,180.0,0.875,127,136.0
1445,E-5,180.0,4.0,47,136.0
1446,E2,180.0,0.75,95,136.0
1447,B1,180.0,0.25,79,136.0
1448,E-3,180.0,0.25,79,136.0
1449,E-3,180.5,0.25,63,136.0
1450,B2,180.75,0.75,95,136.0
1451,E-3,181.0,0.25,79,136.0
1452,B3,181.25,0.25,63,136.0
1453,E2,181.5,0.25,95,136.0
1454,E-3,181.5,0.25,63,136.0
1455,B-4,181.5,979/500,63,136.0
1456,E-5,181.75,0.25,111,136.0
1457,B1,181.75,0.5,95,136.0
1458,B4,182.0,1.5,111,136.0
1459,E-3,182.0,0.25,79,136.0
1460,C#2,182.25,0.25,79,136.0
1461,B3,182.25,0.25,63,136.0
1462,F#2,182.5,0.25,95,136.0
1463,E-3,182.5,0.25,47,136.0
1464,C#2,182.75,0.25,63,136.0
1465,E2,183.0,1.0,79,136.0
1466,E-3,183.0,0.25,63,136.0
1467,F5,183.458,1.5,63,136.0
1468,E-3,183.5,0.25,63,136.0
1469,A4,183.5,0.625,95,136.0
1470,E4,183.5,0.625,95,136.0
1471,D4,183.5,0.625,95,136.0
1472,A2,183.5,0.625,95,136.0
1473,G#4,183.75,0.25,127,136.0
1474,B1,183.75,0.25,71,136.0
1475,B3,183.75,0.25,71,136.0
1476,E-5,184.0,1729/500,47,136.0
1477,E2,184.0,0.5,79,136.0
1478,B1,184.0,0.25,63,136.0
1479,E-3,184.0,0.25,63,136.0
1480,B4,184.25,3.25,83,136.0
1481,F#4,184.25,3.25,83,136.0
1482,E4,184.25,3.25,83,136.0
1483,B2,184.25,3.25,83,136.0
1484,B4,184.5,0.25,111,136.0
1485,E-3,184.5,0.25,95,136.0
1486,E-3,184.5,0.25,63,136.0
1487,G#4,184.75,0.25,95,136.0
1488,D3,184.75,0.25,79,136.0
1489,C#5,184.958,271/500,63,136.0
1490,E2,185.0,0.25,63,136.0
1491,E-3,185.0,0.25,63,136.0
1492,F#4,185.25,0.125,79,136.0
1493,C#3,185.25,0.25,95,136.0
1494,B3,185.25,0.25,63,136.0
1495,C#5,185.5,979/500,63,136.0
1496,E4,185.75,0.25,79,136.0
1497,A2,185.75,0.25,79,136.0
1498,B3,185.75,0.25,63,136.0
1499,G#4,186.0,0.25,127,136.0
1500,B2,186.0,0.25,95,136.0
1501,E-3,186.0,0.25,63,136.0
1502,B2,186.25,0.25,79,136.0
1503,F#4,186.5,0.25,79,136.0
1504,F#2,186.5,0.25,95,136.0
1505,E-3,186.5,0.25,63,136.0
1506,E4,186.75,0.25,79,136.0
1507,B1,186.75,0.25,95,136.0
1508,E-4,187.0,0.5,111,136.0
1509,C#2,187.0,0.25,95,136.0
1510,E2,187.0,0.25,63,136.0
1511,E-3,187.0,0.25,63,136.0
1512,C#2,187.25,0.25,79,136.0
1513,B1,187.25,0.25,63,136.0
1514,B3,187.25,0.25,63,136.0
1515,G#5,187.458,2.0,63,136.0
1516,E2,187.5,0.5,95,136.0
1517,E-3,187.5,0.25,63,136.0
1518,B4,187.5,4.0,83,136.0
1519,F#4,187.5,4.0,83,136.0
1520,E4,187.5,4.0,83,136.0
1521,B2,187.5,4.0,83,136.0
1522,E4,187.75,0.25,95,136.0
1523,D5,187.958,21/500,63,136.0
1524,D4,188.0,1.25,111,136.0
1525,D5,188.0,4.0,63,136.0
1526,D2,188.0,0.5,79,136.0
1527,B1,188.0,0.25,79,136.0
1528,E-3,188.0,0.25,79,136.0
1529,A2,188.5,0.25,95,136.0
1530,E-3,188.5,0.25,63,136.0
1531,C2,188.75,1.25,95,136.0
1532,E2,188.75,0.25,63,136.0
1533,E2,189.0,0.25,63,136.0
1534,E-3,189.0,0.25,63,136.0
1535,B3,189.25,0.25,63,136.0
1536,A5,189.458,21/500,63,136.0
1537,D4,189.5,0.25,111,136.0
1538,A5,189.5,4.0,63,136.0
1539,D4,189.75,0.25,111,136.0
1540,B3,189.75,0.25,63,136.0
1541,B3,190.0,0.5,95,136.0
1542,G2,190.0,0.25,95,136.0
1543,G2,190.25,0.25,63,136.0
1544,B3,190.25,0.25,63,136.0
1545,D4,190.5,0.25,95,136.0
1546,D2,190.5,0.25,95,136.0
1547,E-3,190.5,0.25,63,136.0
1548,B3,190.75,0.25,95,136.0
1549,G1,190.75,0.5,95,136.0
1550,B3,190.75,0.25,63,136.0
1551,A3,191.0,0.25,95,136.0
1552,E-3,191.0,0.25,47,136.0
1553,G#3,191.25,0.25,79,136.0
1554,A1,191.25,0.25,95,136.0
1555,G3,191.5,0.25,95,136.0
1556,D2,191.5,0.25,95,136.0
1557,E-3,191.5,0.25,63,136.0
1558,A4,191.5,0.75,95,136.0
1559,E4,191.5,0.75,95,136.0
1560,D4,191.5,0.75,95,136.0
1561,A2,191.5,0.75,95,136.0
1562,F#3,191.75,0.25,63,136.0
1563,A1,191.75,0.25,79,136.0
1564,E3,192.0,0.25,95,136.0
1565,D5,192.0,1729/500,63,136.0
1566,C2,192.0,1.0,95,136.0
1567,E-3,192.0,0.25,63,136.0
1568,F#3,192.25,0.25,63,136.0
1569,B3,192.25,0.25,63,136.0
1570,B4,192.25,3.25,87,136.0
1571,F#4,192.25,3.25,87,136.0
1572,E4,192.25,3.25,87,136.0
1573,B2,192.25,3.25,87,136.0
1574,G3,192.5,0.25,79,136.0
1575,G#3,192.75,0.25,79,136.0
1576,B1,192.75,0.25,71,136.0
1577,B3,192.75,0.25,71,136.0
1578,A3,193.0,0.25,95,136.0
1579,B2,193.0,0.5,95,136.0
1580,E2,193.0,0.25,63,136.0
1581,B3,193.25,0.25,95,136.0
1582,B3,193.25,0.25,47,136.0
1583,C4,193.5,0.25,95,136.0
1584,B2,193.5,0.25,79,136.0
1585,E-3,193.5,0.25,79,136.0
1586,A5,193.5,4.0,63,136.0
1587,D4,193.75,0.125,95,136.0
1588,A2,193.75,0.375,95,136.0
1589,E2,193.75,0.25,63,136.0
1590,E4,194.0,0.25,111,136.0
1591,E2,194.0,0.25,79,136.0
1592,E-3,194.0,0.25,79,136.0
1593,F#4,194.25,0.25,95,136.0
1594,A2,194.25,0.25,79,136.0
1595,B3,194.25,0.25,63,136.0
1596,G4,194.5,0.25,79,136.0
1597,D2,194.5,0.25,79,136.0
1598,E-3,194.5,0.25,63,136.0
1599,A4,194.75,0.25,95,136.0
1600,C2,194.75,0.75,95,136.0
1601,B4,195.0,0.25,95,136.0
1602,B1,195.0,0.25,71,136.0
1603,E-3,195.0,0.25,71,136.0
1604,C5,195.25,0.25,79,136.0
1605,D5,195.5,0.25,95,136.0
1606,B3,195.5,0.25,111,136.0
1607,E2,195.5,0.25,95,136.0
1608,E-3,195.5,0.125,63,136.0
1609,E5,195.75,0.25,95,136.0
1610,E4,195.75,0.25,111,136.0
1611,A1,195.75,0.25,79,136.0
1612,E2,195.75,0.25,63,136.0
1613,B-4,195.958,21/500,79,136.0
1614,E-5,196.0,0.25,111,136.0
1615,F#4,196.0,0.25,111,136.0
1616,B-4,196.0,4.0,79,136.0
1617,B1,196.0,1.0,95,136.0
1618,B1,196.0,0.25,79,136.0
1619,E-3,196.0,0.25,79,136.0
1620,F#5,196.25,0.25,95,136.0
1621,B4,196.25,0.25,111,136.0
1622,E-5,196.5,0.75,95,136.0
1623,C5,196.5,0.25,111,136.0
1624,E-3,196.5,0.25,63,136.0
1625,E5,196.75,0.25,111,136.0
1626,F#5,197.0,0.25,111,136.0
1627,F#2,197.0,0.25,95,136.0
1628,E-3,197.0,0.25,79,136.0
1629,A5,197.25,0.25,111,136.0
1630,F#2,197.25,0.25,79,136.0
1631,B3,197.25,0.25,63,136.0
1632,F#5,197.5,0.25,127,136.0
1633,D6,197.5,0.25,127,136.0
1634,C#2,197.5,0.25,95,136.0
1635,E-3,197.5,0.25,63,136.0
1636,A4,197.5,0.75,63,136.0
1637,A5,197.75,0.25,111,136.0
1638,F#1,197.75,1.5,95,136.0
1639,F#5,197.875,0.125,111,136.0
1640,F#5,198.0,0.25,111,136.0
1641,E-3,198.0,0.25,79,136.0
1642,E5,198.25,0.25,111,136.0
1643,B3,198.25,0.25,63,136.0
1644,B4,198.25,3.25,63,136.0
1645,F#5,198.375,0.25,111,136.0
1646,C5,198.5,0.25,111,136.0
1647,E-3,198.5,0.25,47,136.0
1648,E-5,198.75,0.125,111,136.0
1649,B4,198.75,0.25,111,136.0
1650,F#4,199.0,0.25,111,136.0
1651,E-3,199.0,0.25,63,136.0
1652,F#5,199.125,0.25,111,136.0
1653,E4,199.25,0.25,111,136.0
1654,E-5,199.375,0.375,95,136.0
1655,E3,199.5,4.0,79,136.0
1656,E-3,199.5,0.25,63,136.0
1657,E-5,199.5,4.0,71,136.0
1658,B-4,199.5,4.0,71,136.0
1659,F#4,199.5,4.0,71,136.0
1660,E-4,199.5,4.0,71,136.0
1661,F#1,199.75,0.25,79,136.0
1662,B1,199.75,0.25,71,136.0
1663,B3,199.75,0.25,71,136.0
1664,B-4,199.875,0.125,95,136.0
1665,B-4,200.0,0.125,95,136.0
1666,B-4,200.0,4.0,79,136.0
1667,G#1,200.0,0.25,95,136.0
1668,B1,200.0,0.25,63,136.0
1669,E-3,200.0,0.25,63,136.0
1670,E-5,200.125,0.25,111,136.0
1671,G#1,200.25,0.25,79,136.0
1672,B-4,200.375,0.625,111,136.0
1673,C#2,200.5,0.25,95,136.0
1674,E-3,200.5,0.25,63,136.0
1675,G#1,200.75,0.25,79,136.0
1676,B1,201.0,1.0,95,136.0
1677,E2,201.0,0.25,63,136.0
1678,E-3,201.0,0.25,63,136.0
1679,B3,201.25,0.25,63,136.0
1680,B4,201.5,4.0,63,136.0
1681,B3,201.75,0.25,63,136.0
1682,F#2,202.0,0.25,95,136.0
1683,E-3,202.0,0.25,63,136.0
1684,F#2,202.25,0.25,63,136.0
1685,C#2,202.5,0.25,95,136.0
1686,E-3,202.5,0.25,63,136.0
1687,F#1,202.75,0.5,95,136.0
1688,E2,203.0,0.25,63,136.0
1689,E-3,203.0,0.25,63,136.0
1690,G#1,203.25,0.25,79,136.0
1691,B1,203.25,0.25,63,136.0
1692,B3,203.25,0.25,63,136.0
1693,C#2,203.5,0.25,95,136.0
1694,E-3,203.5,0.25,63,136.0
1695,G#1,203.75,0.25,63,136.0
1696,A4,204.0,1.5,127,136.0
1697,A4,204.0,4.0,63,136.0
1698,G1,204.0,0.5,111,136.0
1699,B1,204.0,0.25,79,136.0
1700,E-3,204.0,0.25,79,136.0
1701,D2,204.5,0.25,79,136.0
1702,E-3,204.5,0.25,63,136.0
1703,D2,204.75,0.5,95,136.0
1704,E2,204.75,0.25,63,136.0
1705,E2,205.0,0.25,63,136.0
1706,E-3,205.0,0.25,63,136.0
1707,A1,205.25,0.25,79,136.0
1708,B3,205.25,0.25,63,136.0
1709,G4,205.5,0.25,111,136.0
1710,A1,205.5,0.5,111,136.0
1711,A4,205.5,0.75,63,136.0
1712,A4,205.75,0.25,79,136.0
1713,B3,205.75,0.25,63,136.0
1714,F#4,206.0,0.5,95,136.0
1715,D2,206.0,0.25,79,136.0
1716,D2,206.25,0.5,111,136.0
1717,B3,206.25,0.25,63,136.0
1718,B4,206.25,3.25,63,136.0
1719,E-3,206.5,0.25,63,136.0
1720,G1,206.75,1.25,95,136.0
1721,B3,206.75,0.25,63,136.0
1722,E-3,207.0,0.25,47,136.0
1723,E3,207.25,3.875,79,136.0
1724,E-5,207.25,3.75,71,136.0
1725,B-4,207.25,3.75,71,136.0
1726,F#4,207.25,3.75,71,136.0
1727,E-4,207.25,3.75,71,136.0
1728,E-3,207.5,0.25,63,136.0
1729,A4,208.0,0.25,111,136.0
1730,A4,208.0,1583/1000,63,136.0
1731,G1,208.0,1.5,95,136.0
1732,E-3,208.0,0.25,63,136.0
1733,B4,208.25,0.25,95,136.0
1734,B3,208.25,0.25,63,136.0
1735,D5,208.5,0.25,95,136.0
1736,E5,208.75,0.25,111,136.0
1737,B1,208.75,0.25,71,136.0
1738,B3,208.75,0.25,71,136.0
1739,F#5,209.0,0.25,95,136.0
1740,E2,209.0,0.25,63,136.0
1741,A5,209.25,0.25,95,136.0
1742,B3,209.25,0.25,47,136.0
1743,B5,209.5,0.25,95,136.0
1744,E-3,209.5,0.25,79,136.0
1745,B4,209.5,4.0,63,136.0
1746,C#6,209.75,0.25,95,136.0
1747,E2,209.75,0.25,63,136.0
1748,E6,210.0,0.25,95,136.0
1749,G2,210.0,0.25,111,136.0
1750,E2,210.0,0.25,79,136.0
1751,E-3,210.0,0.25,79,136.0
1752,C#6,210.25,0.25,79,136.0
1753,G2,210.25,0.25,111,136.0
1754,B3,210.25,0.25,63,136.0
1755,F#5,210.458,0.625,63,136.0
1756,B5,210.5,0.25,79,136.0
1757,E-3,210.5,0.25,63,136.0
1758,A5,210.75,0.25,95,136.0
1759,G1,210.75,0.25,79,136.0
1760,C#6,211.0,0.25,127,136.0
1761,G1,211.0,0.5,111,136.0
1762,B1,211.0,0.25,71,136.0
1763,E-3,211.0,0.25,71,136.0
1764,B5,211.25,0.25,95,136.0
1765,C3,211.25,4.0,63,136.0
1766,D5,211.25,4.0,75,136.0
1767,B4,211.25,4.0,75,136.0
1768,G4,211.25,4.0,75,136.0
1769,E4,211.25,4.0,75,136.0
1770,F#5,211.333,333/1000,63,136.0
1771,A5,211.5,0.25,95,136.0
1772,A1,211.5,0.25,95,136.0
1773,E-3,211.5,0.125,63,136.0
1774,A5,211.667,333/1000,63,136.0
1775,F#5,211.75,0.25,95,136.0
1776,D2,211.75,0.25,79,136.0
1777,E2,211.75,0.25,63,136.0
1778,E5,212.0,0.5,95,136.0
1779,F#5,212.0,3.125,63,136.0
1780,E1,212.0,0.75,111,136.0
1781,B1,212.0,0.25,79,136.0
1782,E-3,212.0,0.25,79,136.0
1783,E-3,212.5,0.25,63,136.0
1784,E2,212.75,0.25,95,136.0
1785,E1,213.0,0.75,95,136.0
1786,E-3,213.0,0.25,79,136.0
1787,F#5,213.25,0.25,111,136.0
1788,B3,213.25,0.25,63,136.0
1789,E-3,213.5,0.25,63,136.0
1790,A4,213.5,0.75,79,136.0
1791,F#5,213.625,0.25,95,136.0
1792,E2,213.75,0.25,95,136.0
1793,F#5,214.0,0.25,111,136.0
1794,E1,214.0,0.75,111,136.0
1795,E-3,214.0,0.25,79,136.0
1796,B3,214.25,0.25,63,136.0
1797,B4,214.25,3.25,63,136.0
1798,F#5,214.375,0.125,95,136.0
1799,E-3,214.5,0.25,47,136.0
1800,E5,214.75,0.125,95,136.0
1801,E2,214.75,1.0,95,136.0
1802,F#5,215.0,0.25,127,136.0
1803,E-3,215.0,0.25,63,136.0
1804,E5,215.25,0.125,95,136.0
1805,D5,215.375,333/1000,63,136.0
1806,D5,215.5,0.125,95,136.0
1807,E-3,215.5,0.25,63,136.0
1808,F#5,215.708,73/250,63,136.0
1809,E2,215.75,0.25,79,136.0
1810,B1,215.75,0.25,71,136.0
1811,B3,215.75,0.25,71,136.0
1812,F#5,216.0,21/500,63,136.0
1813,E1,216.0,0.75,95,136.0
1814,B1,216.0,0.25,63,136.0
1815,E-3,216.0,0.25,63,136.0
1816,E-5,216.042,3.75,63,136.0
1817,E-5,216.25,0.25,111,136.0
1818,F#5,216.5,0.25,111,136.0
1819,E-3,216.5,0.25,63,136.0
1820,E-5,216.75,0.75,95,136.0
1821,E2,216.75,1.0,95,136.0
1822,E2,217.0,0.25,63,136.0
1823,E-3,217.0,0.25,63,136.0
1824,B3,217.25,0.25,63,136.0
1825,B4,217.5,0.25,95,136.0
1826,B3,217.5,0.25,31,136.0
1827,E-5,217.75,0.25,111,136.0
1828,E1,217.75,1.0,111,136.0
1829,B3,217.75,0.25,63,136.0
1830,E4,217.75,0.25,31,136.0
1831,B4,218.0,1.0,95,136.0
1832,E-3,218.0,0.25,63,136.0
1833,F#4,218.0,0.25,31,136.0
1834,B4,218.25,0.25,31,136.0
1835,E-3,218.5,0.25,63,136.0
1836,C5,218.5,0.25,31,136.0
1837,E1,218.75,0.25,79,136.0
1838,E5,218.75,0.25,31,136.0
1839,C3,219.0,3.875,63,136.0
1840,B1,219.0,0.25,111,136.0
1841,F#5,219.0,0.25,31,136.0
1842,D5,219.0,3.75,75,136.0
1843,B4,219.0,3.75,75,136.0
1844,G4,219.0,3.75,75,136.0
1845,E4,219.0,3.75,75,136.0
1846,E2,219.0,0.25,63,136.0
1847,E-3,219.0,0.25,63,136.0
1848,B1,219.25,0.75,95,136.0
1849,A5,219.25,0.25,31,136.0
1850,B1,219.25,0.25,63,136.0
1851,B3,219.25,0.25,63,136.0
1852,E-3,219.5,0.25,63,136.0
1853,D6,219.5,0.25,31,136.0
1854,A5,219.75,0.25,31,136.0
1855,C2,220.0,0.75,111,136.0
1856,F#5,220.0,0.25,31,136.0
1857,B1,220.0,0.25,79,136.0
1858,E-3,220.0,0.25,79,136.0
1859,D5,220.042,3.75,63,136.0
1860,E5,220.25,0.25,31,136.0
1861,E-3,220.5,0.25,63,136.0
1862,C5,220.5,0.25,31,136.0
1863,G2,220.75,0.75,95,136.0
1864,E2,220.75,0.25,63,136.0
1865,B4,220.75,0.25,31,136.0
1866,F#4,221.0,0.25,31,136.0
1867,E2,221.0,0.25,63,136.0
1868,E-3,221.0,0.25,63,136.0
1869,B3,221.25,0.25,63,136.0
1870,E4,221.25,0.25,31,136.0
1871,B4,221.5,0.25,95,136.0
1872,C2,221.5,0.25,95,136.0
1873,E-5,221.5,4.0,31,136.0
1874,G1,221.75,0.5,111,136.0
1875,B3,221.75,0.25,63,136.0
1876,A4,222.0,0.5,127,136.0
1877,A1,222.25,0.25,95,136.0
1878,B3,222.25,0.25,63,136.0
1879,G4,222.5,0.125,79,136.0
1880,D2,222.5,0.25,95,136.0
1881,E-3,222.5,0.25,63,136.0
1882,F#4,222.75,0.25,111,136.0
1883,A1,222.75,0.25,79,136.0
1884,B3,222.75,0.25,63,136.0
1885,C2,223.0,1.0,95,136.0
1886,E-3,223.0,0.25,47,136.0
1887,B-4,223.0,4.0,87,136.0
1888,F#4,223.0,4.0,87,136.0
1889,C#4,223.0,4.0,87,136.0
1890,B2,223.0,4.0,87,136.0
1891,E4,223.25,0.25,79,136.0
1892,E-3,223.5,0.25,63,136.0
1893,F#4,223.75,0.25,111,136.0
1894,D4,224.0,0.5,111,136.0
1895,C2,224.0,0.5,95,136.0
1896,E-3,224.0,0.25,63,136.0
1897,B4,224.042,3.5,63,136.0
1898,B3,224.25,0.25,63,136.0
1899,E4,224.5,0.125,95,136.0
1900,B2,224.5,0.25,95,136.0
1901,B3,224.75,0.125,95,136.0
1902,B2,224.75,0.25,79,136.0
1903,B1,224.75,0.25,71,136.0
1904,B3,224.75,0.25,71,136.0
1905,E2,225.0,0.25,63,136.0
1906,E4,225.0,0.375,95,136.0
1907,D4,225.0,0.375,95,136.0
1908,A2,225.25,0.25,95,136.0
1909,B3,225.25,0.25,47,136.0
1910,B3,225.375,0.125,79,136.0
1911,E-3,225.5,0.25,79,136.0
1912,E-5,225.5,4.0,31,136.0
1913,D4,225.75,0.125,95,136.0
1914,F2,225.75,0.25,63,136.0
1915,E2,225.75,0.25,63,136.0
1916,G2,226.0,0.25,95,136.0
1917,E2,226.0,0.25,79,136.0
1918,E-3,226.0,0.25,79,136.0
1919,G2,226.25,0.25,79,136.0
1920,B3,226.25,0.25,63,136.0
1921,D2,226.5,0.25,95,136.0
1922,E-3,226.5,0.25,63,136.0
1923,G1,226.75,0.25,95,136.0
1924,A1,227.0,0.25,95,136.0
1925,B1,227.0,0.25,71,136.0
1926,E-3,227.0,0.25,71,136.0
1927,A1,227.25,0.25,79,136.0
1928,C2,227.5,0.5,95,136.0
1929,E-3,227.5,0.125,63,136.0
1930,E2,227.75,0.25,63,136.0
1931,B1,228.0,1.0,95,136.0
1932,B1,228.0,0.25,87,136.0
1933,E-3,228.0,0.25,87,136.0
1934,B-4,228.042,2.0,79,136.0
1935,E-3,228.5,0.25,79,136.0
1936,F#2,229.0,0.25,95,136.0
1937,E2,229.0,0.25,79,136.0
1938,E-3,229.0,0.25,79,136.0
1939,F#2,229.25,0.25,79,136.0
1940,B3,229.25,0.25,79,136.0
1941,C#2,229.5,0.25,79,136.0
1942,E-3,229.5,0.25,63,136.0
1943,D5,229.5,4.0,47,136.0
1944,F#1,229.75,1.5,95,136.0
1945,B1,229.75,0.25,95,136.0
1946,B1,230.0,0.25,87,136.0
1947,E-3,230.0,0.25,87,136.0
1948,F5,230.042,1.5,63,136.0
1949,B3,230.25,0.25,63,136.0
1950,B-5,230.375,0.25,127,136.0
1951,B-4,230.375,0.25,127,136.0
1952,E2,230.5,0.25,71,136.0
1953,E-3,230.5,0.25,71,136.0
1954,B-5,230.75,0.25,103,136.0
1955,B-4,230.75,0.25,103,136.0
1956,E-3,231.0,0.25,79,136.0
1957,B-4,231.0,4.0,87,136.0
1958,F#4,231.0,4.0,87,136.0
1959,C#4,231.0,4.0,87,136.0
1960,B2,231.0,4.0,87,136.0
1961,B-5,231.125,0.25,87,136.0
1962,B-4,231.125,0.25,87,136.0
1963,G#5,231.5,0.25,103,136.0
1964,G#4,231.5,0.25,103,136.0
1965,B1,231.5,0.25,79,136.0
1966,E-3,231.5,0.25,79,136.0
1967,C#5,231.542,229/500,63,136.0
1968,F#1,231.75,0.25,79,136.0
1969,B3,231.75,0.25,79,136.0
1970,C#5,232.0,1021/500,63,136.0
1971,G#1,232.0,0.25,95,136.0
1972,E-3,232.0,0.25,63,136.0
1973,C#6,232.0,3.625,119,136.0
1974,C#5,232.0,3.625,119,136.0
1975,G#1,232.25,0.25,79,136.0
1976,C#2,232.5,0.25,95,136.0
1977,B1,232.5,0.25,87,136.0
1978,E-3,232.5,0.25,87,136.0
1979,G#1,232.75,0.25,79,136.0
1980,B1,232.75,0.25,95,136.0
1981,B1,233.0,1.0,95,136.0
1982,E2,233.0,0.25,71,136.0
1983,E-3,233.0,0.25,71,136.0
1984,B3,233.25,0.25,79,136.0
1985,D5,233.5,4.0,47,136.0
1986,B3,233.75,0.25,79,136.0
1987,F#2,234.0,0.25,95,136.0
1988,B1,234.0,0.25,79,136.0
1989,E-3,234.0,0.25,79,136.0
1990,G#5,234.042,1.875,79,136.0
1991,F#2,234.25,0.25,79,136.0
1992,C#2,234.5,0.25,95,136.0
1993,E-3,234.5,0.25,63,136.0
1994,F#1,234.75,0.5,95,136.0
1995,A4,235.0,4.0,79,136.0
1996,F#4,235.0,4.0,79,136.0
1997,D4,235.0,4.0,79,136.0
1998,B3,235.0,4.0,79,136.0
1999,G2,235.0,4.0,79,136.0
2000,E2,235.0,0.25,79,136.0
2001,E-3,235.0,0.25,79,136.0
2002,G#1,235.25,0.25,79,136.0
2003,B3,235.25,0.25,95,136.0
2004,C#2,235.5,0.25,95,136.0
2005,G#1,235.75,0.25,79,136.0
2006,D6,235.75,0.25,119,136.0
2007,D5,235.75,0.25,119,136.0
2008,C#3,235.75,0.25,79,136.0
2009,B1,235.75,0.25,79,136.0
2010,A5,235.917,83/1000,79,136.0
2011,A5,236.0,4.0,79,136.0
2012,G1,236.0,1.75,111,136.0
2013,D6,236.0,1.375,119,136.0
2014,D5,236.0,1.375,119,136.0
2015,E-3,236.5,0.25,79,136.0
2016,B1,236.75,0.25,95,136.0
2017,E2,237.0,0.25,79,136.0
2018,E-3,237.0,0.25,79,136.0
2019,E2,237.25,0.25,71,136.0
2020,B3,237.25,0.25,71,136.0
2021,B-4,237.5,4.0,47,136.0
2022,G1,237.75,0.25,79,136.0
2023,B3,237.75,0.25,79,136.0
2024,A1,238.0,0.25,111,136.0
2025,B1,238.0,0.25,95,136.0
2026,F#6,238.0,0.25,111,136.0
2027,F#5,238.0,0.25,111,136.0
2028,A1,238.25,0.75,95,136.0
2029,B3,238.25,0.25,63,136.0
2030,G6,238.25,0.25,103,136.0
2031,G5,238.25,0.25,103,136.0
2032,E-3,238.5,0.25,63,136.0
2033,F#6,238.5,0.25,95,136.0
2034,F#5,238.5,0.25,95,136.0
2035,D6,238.75,1.25,103,136.0
2036,D5,238.75,1.25,103,136.0
2037,E2,238.75,0.25,79,136.0
2038,B3,238.75,0.25,79,136.0
2039,A1,239.0,0.25,95,136.0
2040,E2,239.0,0.25,71,136.0
2041,E-3,239.0,0.25,71,136.0
2042,B1,239.25,0.75,95,136.0
2043,B1,239.5,0.25,79,136.0
2044,E-3,239.5,0.25,79,136.0
2045,A5,240.0,3333/1000,79,136.0
2046,B1,240.0,0.25,95,136.0
2047,E-3,240.0,0.25,79,136.0
2048,D6,240.0,0.125,103,136.0
2049,D5,240.0,0.125,103,136.0
2050,B1,240.25,0.25,79,136.0
2051,B3,240.25,0.25,79,136.0
2052,D2,240.5,1.0,95,136.0
2053,G6,240.5,0.25,127,136.0
2054,G5,240.5,0.25,127,136.0
2055,B1,240.75,0.25,79,136.0
2056,B3,240.75,0.25,79,136.0
2057,E2,241.0,0.25,95,136.0
2058,F#6,241.0,0.25,103,136.0
2059,F#5,241.0,0.25,103,136.0
2060,B3,241.25,0.25,47,136.0
2061,E-3,241.5,0.25,79,136.0
2062,B-4,241.5,4.0,47,136.0
2063,D6,241.5,0.25,103,136.0
2064,D5,241.5,0.25,103,136.0
2065,B1,241.75,0.25,95,136.0
2066,D2,242.0,0.5,127,136.0
2067,E-3,242.0,0.25,79,136.0
2068,C#6,242.0,0.25,111,136.0
2069,C#5,242.0,0.25,111,136.0
2070,B3,242.25,0.25,63,136.0
2071,G2,242.5,0.25,111,136.0
2072,E-3,242.5,0.25,63,136.0
2073,A5,242.5,0.25,111,136.0
2074,A4,242.5,0.25,111,136.0
2075,E2,242.75,0.5,111,136.0
2076,F#5,243.0,0.25,111,136.0
2077,F#4,243.0,0.25,111,136.0
2078,A4,243.0,4.0,79,136.0
2079,F#4,243.0,4.0,79,136.0
2080,D4,243.0,4.0,79,136.0
2081,B3,243.0,4.0,79,136.0
2082,G2,243.0,4.0,79,136.0
2083,E2,243.0,0.75,95,136.0
2084,B1,243.0,0.75,95,136.0
2085,E2,243.0,0.75,95,136.0
2086,B1,243.25,0.25,95,136.0
2087,G#1,243.5,0.25,95,136.0
2088,F1,243.75,0.25,95,136.0
2089,B3,243.75,0.25,79,136.0
2090,A1,244.0,0.75,111,136.0
2091,A5,244.0,0.625,123,136.0
2092,A4,244.0,0.625,123,136.0
2093,A2,244.0,0.625,123,136.0
2094,A3,244.0,0.625,123,136.0
2095,B1,244.0,0.25,103,136.0
2096,C#3,244.0,0.25,103,136.0
2097,A4,244.042,0.75,79,136.0
2098,B1,244.75,1.0,111,136.0
2099,B5,244.75,3.0,119,136.0
2100,B4,244.75,3.0,119,136.0
2101,B3,244.75,3.0,119,136.0
2102,B2,244.75,3.0,119,136.0
2103,B1,244.75,0.25,95,136.0
2104,A3,244.75,0.25,95,136.0
2105,B4,244.792,401/125,79,136.0
2106,E-3,245.5,0.25,63,136.0
2107,A4,245.5,4.0,63,136.0
2108,E-3,246.0,0.25,79,136.0
2109,B3,246.25,0.25,63,136.0
2110,E-3,246.5,0.25,63,136.0
2111,B1,247.0,1.0,95,136.0
2112,B4,247.0,4.0,83,136.0
2113,F#4,247.0,4.0,83,136.0
2114,D4,247.0,4.0,83,136.0
2115,E3,247.0,4.0,83,136.0
2116,E2,247.0,0.25,87,136.0
2117,E-3,247.0,0.25,87,136.0
2118,E-3,247.5,0.25,63,136.0
2119,B3,247.75,0.25,111,136.0
2120,B3,247.75,0.25,79,136.0
2121,B4,248.0,3.0,79,136.0
2122,B1,248.0,0.75,95,136.0
2123,B5,248.0,0.375,100,136.0
2124,E5,248.0,0.375,100,136.0
2125,B4,248.0,0.375,100,136.0
2126,B1,248.0,0.25,79,136.0
2127,E-3,248.0,0.25,79,136.0
2128,E-3,248.5,0.25,79,136.0
2129,B5,248.5,0.375,116,136.0
2130,E5,248.5,0.375,116,136.0
2131,B4,248.5,0.375,116,136.0
2132,B1,248.75,0.25,95,136.0
2133,B5,249.0,0.25,103,136.0
2134,B4,249.0,0.25,103,136.0
2135,E2,249.0,0.25,71,136.0
2136,E-3,249.0,0.25,71,136.0
2137,F#5,249.25,0.25,95,136.0
2138,E2,249.25,0.25,79,136.0
2139,B3,249.25,0.25,79,136.0
2140,E5,249.5,0.25,95,136.0
2141,A4,249.5,1229/500,63,136.0
2142,B4,249.75,0.25,95,136.0
2143,B3,249.75,0.25,79,136.0
2144,F#4,250.0,0.25,111,136.0
2145,B1,250.0,1.75,95,136.0
2146,B1,250.0,0.25,79,136.0
2147,E-3,250.0,0.25,79,136.0
2148,E4,250.25,0.25,95,136.0
2149,B3,250.5,0.25,95,136.0
2150,E-3,250.5,0.25,63,136.0
2151,E4,250.75,0.25,79,136.0
2152,E2,250.75,0.25,79,136.0
2153,F#4,251.0,0.25,111,136.0
2154,B-4,251.0,3.625,90,136.0
2155,F#4,251.0,3.625,90,136.0
2156,E-4,251.0,3.625,90,136.0
2157,E2,251.0,0.25,79,136.0
2158,E-3,251.0,0.25,79,136.0
2159,B4,251.25,0.25,95,136.0
2160,B3,251.25,0.25,63,136.0
2161,E5,251.5,0.25,95,136.0
2162,E-3,251.5,0.25,79,136.0
2163,F#5,251.958,0.625,47,136.0
2164,A1,252.0,0.75,111,136.0
2165,A5,252.0,0.75,127,136.0
2166,A4,252.0,0.75,127,136.0
2167,A2,252.0,0.75,127,136.0
2168,A3,252.0,0.75,127,136.0
2169,B1,252.0,0.25,111,136.0
2170,A3,252.0,0.25,111,136.0
2171,A4,252.042,0.75,79,136.0
2172,B1,252.75,1.0,111,136.0
2173,B5,252.75,0.125,111,136.0
2174,B4,252.75,0.125,111,136.0
2175,B2,252.75,0.125,111,136.0
2176,B1,252.75,0.25,103,136.0
2177,C#3,252.75,0.25,103,136.0
2178,B4,252.792,401/125,79,136.0
2179,F#5,252.833,333/1000,47,136.0
2180,B3,252.875,3.125,111,136.0
2181,A5,253.167,333/1000,47,136.0
2182,B3,253.25,0.25,63,136.0
2183,F#5,253.5,3.375,47,136.0
2184,B2,253.75,1.25,111,136.0
2185,B3,253.75,0.25,79,136.0
2186,B1,254.0,0.25,95,136.0
2187,B3,254.25,0.25,63,136.0
2188,B1,254.5,0.25,79,136.0
2189,E-3,254.5,0.25,79,136.0
2190,B1,254.75,0.25,87,136.0
2191,B3,254.75,0.25,87,136.0
2192,A2,255.0,0.75,111,136.0
2193,B4,255.0,4.0,75,136.0
2194,G4,255.0,4.0,75,136.0
2195,D4,255.0,4.0,75,136.0
2196,C3,255.0,4.0,75,136.0
2197,E2,255.0,0.25,79,136.0
2198,E-3,255.0,0.25,79,136.0
2199,E-3,255.5,0.25,63,136.0
2200,B2,255.75,0.25,79,136.0
2201,B4,256.0,3.0,79,136.0
2202,B2,256.0,0.25,79,136.0
2203,E-3,256.0,0.25,79,136.0
2204,E6,256.0,0.125,103,136.0
2205,D6,256.0,0.125,103,136.0
2206,B2,256.25,0.25,95,136.0
2207,B3,256.25,0.25,79,136.0
2208,B2,256.5,0.25,79,136.0
2209,B1,256.75,0.75,111,136.0
2210,B1,256.75,0.25,79,136.0
2211,B3,256.75,0.25,79,136.0
2212,D5,256.875,333/1000,47,136.0
2213,B5,257.0,0.25,111,136.0
2214,E2,257.0,0.25,95,136.0
2215,F#5,257.208,73/250,47,136.0
2216,C#6,257.25,0.25,111,136.0
2217,B1,257.25,0.25,71,136.0
2218,B3,257.25,0.25,71,136.0
2219,E6,257.5,0.25,111,136.0
2220,B2,257.5,0.25,95,136.0
2221,E-3,257.5,0.25,79,136.0
2222,F#5,257.5,21/500,47,136.0
2223,E-5,257.542,1979/500,47,136.0
2224,C#6,257.75,0.25,95,136.0
2225,F#2,257.75,0.25,79,136.0
2226,B5,258.0,0.25,95,136.0
2227,A2,258.0,0.75,111,136.0
2228,E-3,258.0,0.25,79,136.0
2229,A5,258.25,0.25,95,136.0
2230,B3,258.25,0.25,63,136.0
2231,F#5,258.5,0.25,95,136.0
2232,E-3,258.5,0.25,79,136.0
2233,E5,258.75,0.25,79,136.0
2234,B2,258.75,0.5,95,136.0
2235,D5,259.0,0.125,79,136.0
2236,E2,259.0,0.25,95,136.0
2237,B4,259.0,3.625,74,136.0
2238,G4,259.0,3.625,74,136.0
2239,E4,259.0,3.625,74,136.0
2240,B4,259.25,0.25,95,136.0
2241,B2,259.25,0.25,79,136.0
2242,E2,259.25,0.25,95,136.0
2243,A4,259.5,0.25,95,136.0
2244,E2,259.5,0.25,95,136.0
2245,E-3,259.5,0.25,63,136.0
2246,F#2,259.75,0.25,95,136.0
2247,A1,260.0,0.75,111,136.0
2248,A5,260.0,0.75,111,136.0
2249,A4,260.0,0.75,111,136.0
2250,A2,260.0,0.75,111,136.0
2251,A3,260.0,0.75,111,136.0
2252,B1,260.0,0.25,111,136.0
2253,C#3,260.0,0.25,111,136.0
2254,A4,260.042,0.75,95,136.0
2255,B4,260.75,3.0,111,136.0
2256,B1,260.75,1.0,111,136.0
2257,B5,260.75,3.125,122,136.0
2258,B3,260.75,3.125,122,136.0
2259,B2,260.75,3.125,122,136.0
2260,B1,260.75,0.25,111,136.0
2261,A3,260.75,0.25,111,136.0
2262,B4,260.792,2.75,79,136.0
2263,E-3,261.5,0.25,63,136.0
2264,E-5,261.5,21/500,47,136.0
2265,D5,261.542,1979/500,47,136.0
2266,B2,261.75,2.0,111,136.0
2267,E-3,262.0,0.25,79,136.0
2268,B3,262.25,0.25,63,136.0
2269,E-3,262.5,0.25,63,136.0
2270,E2,262.875,0.125,95,136.0
2271,B-4,263.0,2.0,79,136.0
2272,F#4,263.0,2.0,79,136.0
2273,E-4,263.0,2.0,79,136.0
2274,B2,263.0,2.0,79,136.0
2275,E2,263.0,0.25,87,136.0
2276,E-3,263.0,0.25,87,136.0
2277,B1,263.25,0.25,95,136.0
2278,E-3,263.5,0.25,63,136.0
2279,G3,263.75,0.25,79,136.0
2280,B1,264.0,0.25,95,136.0
2281,C#3,264.0,0.25,95,136.0
2282,B3,264.042,0.25,79,136.0
2283,E2,264.25,0.25,95,136.0
2284,E4,264.292,0.25,79,136.0
2285,F#2,264.5,0.25,95,136.0
2286,E-3,264.5,0.25,63,136.0
2287,F#4,264.542,0.25,79,136.0
2288,B2,264.75,0.25,95,136.0
2289,B4,264.792,0.25,79,136.0
2290,C3,265.0,0.25,95,136.0
2291,E-3,265.0,0.25,47,136.0
2292,F5,265.0,1.375,79,136.0
2293,C#5,265.0,1.375,79,136.0
2294,B-4,265.0,1.375,79,136.0
2295,C5,265.042,0.25,79,136.0
2296,E3,265.25,0.25,95,136.0
2297,B3,265.25,0.25,63,136.0
2298,E5,265.292,0.25,79,136.0
2299,F#3,265.5,0.25,111,136.0
2300,D5,265.5,21/500,47,136.0
2301,F#5,265.542,0.25,79,136.0
2302,B4,265.542,1979/500,47,136.0
2303,A3,265.75,0.25,95,136.0
2304,B3,265.75,0.25,63,136.0
2305,A5,265.792,0.25,79,136.0
2306,D4,266.0,0.25,111,136.0
2307,E-3,266.0,0.25,63,136.0
2308,D6,266.042,0.25,79,136.0
2309,A3,266.25,0.25,95,136.0
2310,A5,266.292,0.25,79,136.0
2311,F#3,266.5,0.25,111,136.0
2312,E-3,266.5,0.25,63,136.0
2313,C#5,266.5,0.5,90,136.0
2314,B-4,266.5,0.5,90,136.0
2315,F#4,266.5,0.5,90,136.0
2316,F#5,266.542,0.25,79,136.0
2317,E3,266.75,0.25,111,136.0
2318,E5,266.792,0.25,79,136.0
2319,C3,267.0,0.25,95,136.0
2320,E-3,267.0,0.25,79,136.0
2321,C#5,267.0,1.75,90,136.0
2322,B-4,267.0,1.75,90,136.0
2323,F#4,267.0,1.75,90,136.0
2324,C5,267.042,0.25,79,136.0
2325,B2,267.25,0.25,95,136.0
2326,B3,267.25,0.25,63,136.0
2327,B4,267.292,0.25,79,136.0
2328,F#2,267.5,0.25,95,136.0
2329,E-3,267.5,0.25,63,136.0
2330,F#4,267.542,0.25,79,136.0
2331,B1,267.75,0.25,79,136.0
2332,E4,267.792,26/125,79,136.0
2333,B5,268.0,1.0,111,136.0
2334,E4,268.0,21/500,79,136.0
2335,E2,268.0,0.75,95,136.0
2336,B1,268.0,0.25,79,136.0
2337,E-3,268.0,0.25,79,136.0
2338,E-5,268.042,1979/500,47,136.0
2339,E-3,268.5,0.25,79,136.0
2340,B2,268.75,0.75,95,136.0
2341,E-3,269.0,0.25,79,136.0
2342,G#5,269.0,1.625,90,136.0
2343,F5,269.0,1.625,90,136.0
2344,C#5,269.0,1.625,90,136.0
2345,F#5,269.25,2.625,111,136.0
2346,B3,269.25,0.25,79,136.0
2347,E2,269.5,0.25,95,136.0
2348,E-3,269.5,0.25,63,136.0
2349,B4,269.5,21/500,47,136.0
2350,B-4,269.542,2.0,63,136.0
2351,B1,269.75,0.5,95,136.0
2352,E-3,270.0,0.25,79,136.0
2353,C#2,270.25,0.25,79,136.0
2354,B3,270.25,0.25,63,136.0
2355,F#2,270.5,0.25,95,136.0
2356,E-3,270.5,0.25,63,136.0
2357,C#2,270.75,0.25,63,136.0
2358,A5,270.75,0.25,95,136.0
2359,F#5,270.75,0.25,95,136.0
2360,D5,270.75,0.25,95,136.0
2361,G2,270.75,0.25,95,136.0
2362,E2,271.0,1.0,79,136.0
2363,E-3,271.0,0.25,63,136.0
2364,A5,271.0,4.0,95,136.0
2365,F#5,271.0,4.0,95,136.0
2366,D5,271.0,4.0,95,136.0
2367,G2,271.0,4.0,95,136.0
2368,E-3,271.5,0.25,63,136.0
2369,F5,271.542,1.5,63,136.0
2370,B1,271.75,0.25,71,136.0
2371,B3,271.75,0.25,71,136.0
2372,E-5,272.0,3.5,47,136.0
2373,E2,272.0,0.5,79,136.0
2374,B1,272.0,0.25,63,136.0
2375,E-3,272.0,0.25,63,136.0
2376,E-3,272.5,0.25,95,136.0
2377,E-3,272.5,0.25,79,136.0
2378,D3,272.75,0.25,79,136.0
2379,E2,273.0,0.25,63,136.0
2380,E-3,273.0,0.25,63,136.0
2381,C#5,273.042,229/500,63,136.0
2382,C#3,273.25,0.25,95,136.0
2383,B3,273.25,0.25,79,136.0
2384,C#5,273.5,1021/500,63,136.0
2385,A2,273.75,0.25,79,136.0
2386,B3,273.75,0.25,63,136.0
2387,B2,274.0,0.25,95,136.0
2388,E-3,274.0,0.25,63,136.0
2389,B2,274.25,0.25,63,136.0
2390,F#2,274.5,0.25,79,136.0
2391,E-3,274.5,0.25,63,136.0
2392,F#5,274.5,0.25,119,136.0
2393,F#3,274.5,0.25,119,136.0
2394,B1,274.75,0.25,95,136.0
2395,E5,274.75,0.25,95,136.0
2396,E3,274.75,0.25,95,136.0
2397,F#5,275.0,1.0,95,136.0
2398,F#3,275.0,1.0,79,136.0
2399,C#2,275.0,0.25,95,136.0
2400,E2,275.0,0.25,63,136.0
2401,E-3,275.0,0.25,63,136.0
2402,C#2,275.25,0.25,63,136.0
2403,B1,275.25,0.25,63,136.0
2404,B3,275.25,0.25,63,136.0
2405,E2,275.5,0.5,95,136.0
2406,E-3,275.5,0.25,63,136.0
2407,G#5,275.542,979/500,63,136.0
2408,F#5,276.0,2.0,95,136.0
2409,F#3,276.0,2.125,79,136.0
2410,D2,276.0,0.5,79,136.0
2411,B1,276.0,0.25,79,136.0
2412,E-3,276.0,0.25,79,136.0
2413,D5,276.042,1979/500,63,136.0
2414,A2,276.5,0.25,95,136.0
2415,E-3,276.5,0.25,63,136.0
2416,C2,276.75,1.25,95,136.0
2417,E2,276.75,0.25,63,136.0
2418,E2,277.0,0.25,71,136.0
2419,E-3,277.0,0.25,71,136.0
2420,B3,277.25,0.25,63,136.0
2421,G#5,277.5,21/500,63,136.0
2422,A5,277.542,1979/500,63,136.0
2423,B3,277.75,0.25,63,136.0
2424,G2,278.0,0.25,95,136.0
2425,G2,278.25,0.25,63,136.0
2426,B3,278.25,0.25,63,136.0
2427,D2,278.5,0.25,95,136.0
2428,E-3,278.5,0.25,63,136.0
2429,G1,278.75,0.5,95,136.0
2430,B3,278.75,0.25,63,136.0
2431,E-3,279.0,0.25,47,136.0
2432,A5,279.0,4.0,95,136.0
2433,F#5,279.0,4.0,95,136.0
2434,D5,279.0,4.0,95,136.0
2435,G2,279.0,4.0,95,136.0
2436,A1,279.25,0.25,79,136.0
2437,D2,279.5,0.25,95,136.0
2438,E-3,279.5,0.25,63,136.0
2439,A1,279.75,0.25,79,136.0
2440,D5,280.0,3.5,63,136.0
2441,C2,280.0,1.0,95,136.0
2442,E-3,280.0,0.25,63,136.0
2443,B3,280.25,0.25,63,136.0
2444,B1,280.75,0.25,71,136.0
2445,B3,280.75,0.25,71,136.0
2446,B2,281.0,0.5,95,136.0
2447,E2,281.0,0.25,63,136.0
2448,B3,281.25,0.25,47,136.0
2449,B2,281.5,0.25,79,136.0
2450,E-3,281.5,0.25,79,136.0
2451,A5,281.5,4.0,63,136.0
2452,A2,281.75,0.375,95,136.0
2453,E2,281.75,0.25,63,136.0
2454,E2,282.0,0.25,79,136.0
2455,E-3,282.0,0.25,79,136.0
2456,A2,282.25,0.25,79,136.0
2457,B3,282.25,0.25,63,136.0
2458,D2,282.5,0.25,79,136.0
2459,E-3,282.5,0.25,63,136.0
2460,C2,282.75,0.75,95,136.0
2461,A4,283.0,0.625,87,136.0
2462,E4,283.0,0.625,87,136.0
2463,D4,283.0,0.625,87,136.0
2464,A2,283.0,0.625,87,136.0
2465,B1,283.0,0.25,71,136.0
2466,E-3,283.0,0.25,71,136.0
2467,E2,283.5,0.25,79,136.0
2468,E-3,283.5,0.125,63,136.0
2469,A1,283.75,0.25,79,136.0
2470,E2,283.75,0.25,63,136.0
2471,B4,283.75,3.25,87,136.0
2472,F#4,283.75,3.25,87,136.0
2473,E4,283.75,3.25,87,136.0
2474,B2,283.75,3.25,87,136.0
2475,B1,284.0,1.0,95,136.0
2476,E-5,284.0,1.5,103,136.0
2477,E-3,284.0,1.5,103,136.0
2478,B1,284.0,0.25,79,136.0
2479,E-3,284.0,0.25,79,136.0
2480,B-4,284.042,1979/500,79,136.0
2481,E-3,284.5,0.25,79,136.0
2482,F#2,285.0,0.25,95,136.0
2483,E-3,285.0,0.25,79,136.0
2484,F#2,285.25,0.25,79,136.0
2485,B3,285.25,0.25,79,136.0
2486,C#2,285.5,0.25,95,136.0
2487,E-3,285.5,0.25,63,136.0
2488,C#5,285.5,0.25,103,136.0
2489,C#3,285.5,0.25,103,136.0
2490,A4,285.542,0.75,63,136.0
2491,F#1,285.75,1.5,95,136.0
2492,E-5,285.75,0.25,103,136.0
2493,E-3,285.75,0.25,103,136.0
2494,E-3,286.0,0.25,79,136.0
2495,C#5,286.0,1.25,87,136.0
2496,C#3,286.0,1.25,87,136.0
2497,B3,286.25,0.25,63,136.0
2498,B4,286.292,401/125,63,136.0
2499,E-3,286.5,0.25,63,136.0
2500,E-3,287.0,0.25,63,136.0
2501,B4,287.0,4.0,87,136.0
2502,F#4,287.0,4.0,87,136.0
2503,E4,287.0,4.0,87,136.0
2504,B2,287.0,4.0,87,136.0
2505,E-3,287.5,0.25,63,136.0
2506,B-4,287.5,0.25,87,136.0
2507,B-2,287.5,0.25,87,136.0
2508,F#1,287.75,0.25,79,136.0
2509,C#5,287.75,0.25,103,136.0
2510,C#3,287.75,0.25,103,136.0
2511,B1,287.75,0.25,71,136.0
2512,B3,287.75,0.25,71,136.0
2513,B-4,288.0,4.0,79,136.0
2514,G#1,288.0,0.25,95,136.0
2515,B-4,288.0,0.5,111,136.0
2516,B-2,288.0,0.5,111,136.0
2517,B1,288.0,0.25,63,136.0
2518,E-3,288.0,0.25,63,136.0
2519,G#1,288.25,0.25,63,136.0
2520,C#2,288.5,0.25,95,136.0
2521,E-3,288.5,0.25,79,136.0
2522,G#4,288.5,0.25,103,136.0
2523,G#2,288.5,0.25,103,136.0
2524,G#1,288.75,0.25,79,136.0
2525,B-4,288.75,0.25,87,136.0
2526,B-2,288.75,0.25,87,136.0
2527,B1,289.0,1.0,95,136.0
2528,G#4,289.0,0.375,111,136.0
2529,G#2,289.0,0.375,111,136.0
2530,E2,289.0,0.25,63,136.0
2531,E-3,289.0,0.25,63,136.0
2532,B3,289.25,0.25,79,136.0
2533,B4,289.5,4.0,63,136.0
2534,F#4,289.5,0.25,95,136.0
2535,F#2,289.5,0.25,95,136.0
2536,B3,289.75,0.25,63,136.0
2537,G#4,289.75,0.25,95,136.0
2538,G#2,289.75,0.25,95,136.0
2539,F#2,290.0,0.25,95,136.0
2540,E-3,290.0,0.25,63,136.0
2541,F#4,290.0,1.625,103,136.0
2542,F#2,290.0,1.625,103,136.0
2543,F#2,290.25,0.25,63,136.0
2544,C#2,290.5,0.25,95,136.0
2545,E-3,290.5,0.25,63,136.0
2546,F#1,290.75,0.5,95,136.0
2547,A4,291.0,0.625,95,136.0
2548,E4,291.0,0.625,95,136.0
2549,D4,291.0,0.625,95,136.0
2550,A2,291.0,0.625,95,136.0
2551,E2,291.0,0.25,63,136.0
2552,E-3,291.0,0.25,63,136.0
2553,G#1,291.25,0.25,79,136.0
2554,B1,291.25,0.25,63,136.0
2555,B3,291.25,0.25,63,136.0
2556,C#2,291.5,0.25,95,136.0
2557,E-3,291.5,0.25,63,136.0
2558,G#1,291.75,0.25,63,136.0
2559,B4,291.75,3.25,83,136.0
2560,F#4,291.75,3.25,83,136.0
2561,E4,291.75,3.25,83,136.0
2562,B2,291.75,3.25,83,136.0
2563,G1,292.0,0.5,111,136.0
2564,B1,292.0,0.25,79,136.0
2565,E-3,292.0,0.25,79,136.0
2566,A4,292.042,1979/500,63,136.0
2567,D2,292.5,0.25,79,136.0
2568,E-3,292.5,0.25,63,136.0
2569,D2,292.75,0.5,95,136.0
2570,E2,292.75,0.25,63,136.0
2571,E2,293.0,0.25,71,136.0
2572,E-3,293.0,0.25,71,136.0
2573,A1,293.25,0.25,79,136.0
2574,B3,293.25,0.25,63,136.0
2575,A4,293.25,0.25,119,136.0
2576,A2,293.25,0.25,119,136.0
2577,A1,293.5,0.5,111,136.0
2578,A4,293.542,0.75,63,136.0
2579,B4,293.625,0.125,111,136.0
2580,B2,293.75,0.25,95,136.0
2581,B3,293.75,0.25,63,136.0
2582,D2,294.0,0.25,79,136.0
2583,B4,294.0,0.5,119,136.0
2584,B2,294.0,0.5,119,136.0
2585,D2,294.25,0.5,95,136.0
2586,B3,294.25,0.25,63,136.0
2587,B4,294.292,401/125,63,136.0
2588,E-3,294.5,0.25,63,136.0
2589,D5,294.5,0.25,103,136.0
2590,D3,294.5,0.25,103,136.0
2591,G1,294.75,1.25,95,136.0
2592,B3,294.75,0.25,63,136.0
2593,E5,294.75,1.25,119,136.0
2594,E3,294.75,1.25,119,136.0
2595,E-3,295.0,0.25,47,136.0
2596,B4,295.0,4.0,83,136.0
2597,F#4,295.0,4.0,83,136.0
2598,E4,295.0,4.0,83,136.0
2599,B2,295.0,4.0,83,136.0
2600,E-3,295.5,0.25,63,136.0
2601,A4,296.0,1667/1000,63,136.0
2602,G1,296.0,1.5,95,136.0
2603,E-3,296.0,0.25,63,136.0
2604,E5,296.0,0.25,119,136.0
2605,E3,296.0,0.25,119,136.0
2606,B3,296.25,0.25,63,136.0
2607,B1,296.75,0.25,71,136.0
2608,B3,296.75,0.25,71,136.0
2609,E2,297.0,0.25,63,136.0
2610,B3,297.25,0.25,47,136.0
2611,E-3,297.5,0.25,79,136.0
2612,B4,297.5,4.0,63,136.0
2613,E2,297.75,0.25,63,136.0
2614,G2,298.0,0.25,111,136.0
2615,A5,298.0,0.25,119,136.0
2616,A3,298.0,0.25,119,136.0
2617,E2,298.0,0.25,79,136.0
2618,E-3,298.0,0.25,79,136.0
2619,G2,298.25,0.25,111,136.0
2620,B3,298.25,0.25,63,136.0
2621,B5,298.25,0.25,95,136.0
2622,B3,298.25,0.25,95,136.0
2623,E-3,298.5,0.25,63,136.0
2624,C#6,298.5,0.25,103,136.0
2625,C#4,298.5,0.25,103,136.0
2626,F#5,298.542,0.625,63,136.0
2627,G1,298.75,0.25,79,136.0
2628,E6,298.75,0.25,119,136.0
2629,E4,298.75,0.25,119,136.0
2630,G1,299.0,0.5,111,136.0
2631,C#6,299.0,0.25,87,136.0
2632,C#4,299.0,0.25,87,136.0
2633,A4,299.0,0.75,95,136.0
2634,E4,299.0,0.75,95,136.0
2635,D4,299.0,0.75,95,136.0
2636,A2,299.0,0.75,95,136.0
2637,B1,299.0,0.25,71,136.0
2638,E-3,299.0,0.25,71,136.0
2639,B5,299.25,0.25,95,136.0
2640,B3,299.25,0.25,95,136.0
2641,F#5,299.292,333/1000,63,136.0
2642,A1,299.5,0.25,95,136.0
2643,E-3,299.5,0.125,63,136.0
2644,A5,299.5,0.25,87,136.0
2645,A3,299.5,0.25,87,136.0
2646,A5,299.625,333/1000,63,136.0
2647,D2,299.75,0.25,79,136.0
2648,E2,299.75,0.25,63,136.0
2649,B4,299.75,3.25,87,136.0
2650,F#4,299.75,3.25,87,136.0
2651,E4,299.75,3.25,87,136.0
2652,B2,299.75,3.25,87,136.0
2653,F#5,299.958,21/500,63,136.0
2654,F#6,300.0,2.5,127,136.0
2655,F#4,300.0,2.625,127,136.0
2656,F#5,300.0,3083/1000,63,136.0
2657,E1,300.0,0.75,111,136.0
2658,B1,300.0,0.25,79,136.0
2659,E-3,300.0,0.25,79,136.0
2660,E-3,300.5,0.25,79,136.0
2661,E2,300.75,0.25,95,136.0
2662,E1,301.0,0.75,95,136.0
2663,E-3,301.0,0.25,79,136.0
2664,B3,301.25,0.25,79,136.0
2665,E-3,301.5,0.25,63,136.0
2666,A4,301.542,0.75,79,136.0
2667,E2,301.75,0.25,95,136.0
2668,E1,302.0,0.75,95,136.0
2669,E-3,302.0,0.25,79,136.0
2670,B3,302.25,0.25,63,136.0
2671,B4,302.292,401/125,63,136.0
2672,E-3,302.5,0.25,63,136.0
2673,E2,302.75,1.0,95,136.0
2674,B3,303.0,0.25,111,136.0
2675,E-3,303.0,0.25,63,136.0
2676,E4,303.25,0.25,111,136.0
2677,D5,303.333,333/1000,63,136.0
2678,A6,303.375,0.25,127,136.0
2679,A4,303.375,0.25,127,136.0
2680,F#4,303.5,0.25,111,136.0
2681,E-3,303.5,0.25,63,136.0
2682,F#6,303.625,0.25,95,136.0
2683,F#4,303.625,0.25,95,136.0
2684,F#5,303.667,333/1000,63,136.0
2685,B4,303.75,0.25,111,136.0
2686,E2,303.75,0.25,79,136.0
2687,B1,303.75,0.25,71,136.0
2688,B3,303.75,0.25,71,136.0
2689,C5,304.0,0.25,111,136.0
2690,E-5,304.0,3.75,63,136.0
2691,E1,304.0,0.75,95,136.0
2692,B-6,304.0,1.5,127,136.0
2693,B-4,304.0,1.5,127,136.0
2694,B1,304.0,0.25,63,136.0
2695,E-3,304.0,0.25,63,136.0
2696,E5,304.25,0.25,111,136.0
2697,F#5,304.5,0.25,111,136.0
2698,E-3,304.5,0.25,79,136.0
2699,A5,304.75,0.25,111,136.0
2700,E2,304.75,1.0,95,136.0
2701,D6,305.0,0.25,127,136.0
2702,E2,305.0,0.25,63,136.0
2703,E-3,305.0,0.25,63,136.0
2704,A5,305.25,0.25,111,136.0
2705,B3,305.25,0.25,79,136.0
2706,F#5,305.5,0.25,111,136.0
2707,B4,305.5,21/500,63,136.0
2708,F#6,305.5,0.25,95,136.0
2709,F#4,305.5,0.25,95,136.0
2710,B3,305.542,0.25,31,136.0
2711,E5,305.75,0.25,111,136.0
2712,E1,305.75,1.0,95,136.0
2713,B3,305.75,0.25,63,136.0
2714,B-6,305.75,0.25,95,136.0
2715,B-4,305.75,0.25,95,136.0
2716,E4,305.792,0.25,31,136.0
2717,C5,306.0,0.25,111,136.0
2718,E-3,306.0,0.25,63,136.0
2719,F#6,306.0,0.5,79,136.0
2720,F#4,306.0,0.5,79,136.0
2721,F#4,306.042,0.25,31,136.0
2722,B4,306.25,0.25,111,136.0
2723,B4,306.292,0.25,31,136.0
2724,F#4,306.5,0.25,111,136.0
2725,E-3,306.5,0.25,63,136.0
2726,E-6,306.5,0.25,103,136.0
2727,E-4,306.5,0.25,103,136.0
2728,C5,306.542,0.25,31,136.0
2729,E4,306.75,0.25,111,136.0
2730,E1,306.75,0.25,79,136.0
2731,F#6,306.75,0.25,95,136.0
2732,F#4,306.75,0.25,95,136.0
2733,E5,306.792,0.25,31,136.0
2734,E3,307.0,4.0,79,136.0
2735,B1,307.0,0.25,95,136.0
2736,E-6,307.0,1.0,103,136.0
2737,E-4,307.0,1.0,103,136.0
2738,E-5,307.0,4.0,71,136.0
2739,B-4,307.0,4.0,71,136.0
2740,F#4,307.0,4.0,71,136.0
2741,E-4,307.0,4.0,71,136.0
2742,E2,307.0,0.25,63,136.0
2743,E-3,307.0,0.25,63,136.0
2744,F#5,307.042,0.25,31,136.0
2745,B1,307.25,0.75,79,136.0
2746,B1,307.25,0.25,63,136.0
2747,B3,307.25,0.25,63,136.0
2748,A5,307.292,0.25,31,136.0
2749,E-3,307.5,0.25,63,136.0
2750,D6,307.542,0.25,31,136.0
2751,A5,307.792,0.25,31,136.0
2752,D5,308.0,3.75,63,136.0
2753,C2,308.0,0.75,95,136.0
2754,B1,308.0,0.25,79,136.0
2755,E-3,308.0,0.25,79,136.0
2756,F#5,308.042,0.25,31,136.0
2757,E5,308.292,0.25,31,136.0
2758,E-3,308.5,0.25,63,136.0
2759,E-6,308.5,0.5,103,136.0
2760,E-4,308.5,0.5,103,136.0
2761,C5,308.542,0.25,31,136.0
2762,G2,308.75,0.75,95,136.0
2763,E2,308.75,0.25,63,136.0
2764,B4,308.792,0.25,31,136.0
2765,E2,309.0,0.25,71,136.0
2766,E-3,309.0,0.25,71,136.0
2767,F#4,309.042,0.25,31,136.0
2768,B3,309.25,0.25,63,136.0
2769,E4,309.292,26/125,31,136.0
2770,C2,309.5,0.25,95,136.0
2771,E4,309.5,21/500,31,136.0
2772,E-5,309.542,1979/500,31,136.0
2773,G1,309.75,0.5,111,136.0
2774,B3,309.75,0.25,63,136.0
2775,E6,309.75,0.25,111,136.0
2776,E4,309.75,0.25,111,136.0
2777,A1,310.25,0.25,95,136.0
2778,B3,310.25,0.25,63,136.0
2779,E6,310.25,0.25,87,136.0
2780,E4,310.25,0.25,87,136.0
2781,D2,310.5,0.25,95,136.0
2782,E-3,310.5,0.25,63,136.0
2783,F#6,310.5,0.375,119,136.0
2784,F#4,310.5,0.375,119,136.0
2785,A1,310.75,0.25,63,136.0
2786,B3,310.75,0.25,63,136.0
2787,C2,311.0,1.0,95,136.0
2788,E-3,311.0,0.25,47,136.0
2789,E6,311.0,0.25,87,136.0
2790,E4,311.0,0.25,87,136.0
2791,F#6,311.25,0.25,103,136.0
2792,F#4,311.25,0.25,103,136.0
2793,E-3,311.5,0.25,63,136.0
2794,G6,311.5,0.5,111,136.0
2795,G4,311.5,0.5,111,136.0
2796,B4,312.0,3.5,63,136.0
2797,C2,312.0,0.5,95,136.0
2798,E-3,312.0,0.25,63,136.0
2799,F#6,312.0,0.25,79,136.0
2800,F#4,312.0,0.25,79,136.0
2801,B3,312.25,0.25,63,136.0
2802,G6,312.25,0.25,95,136.0
2803,G4,312.25,0.25,95,136.0
2804,B2,312.5,0.25,95,136.0
2805,A6,312.5,0.5,119,136.0
2806,A4,312.5,0.5,119,136.0
2807,B2,312.75,0.25,79,136.0
2808,B1,312.75,0.25,71,136.0
2809,B3,312.75,0.25,71,136.0
2810,E2,313.0,0.25,63,136.0
2811,G6,313.0,0.25,79,136.0
2812,G4,313.0,0.25,79,136.0
2813,A4,313.25,21/500,79,136.0
2814,A2,313.25,0.25,95,136.0
2815,B3,313.25,0.25,47,136.0
2816,A6,313.292,0.125,95,136.0
2817,E-3,313.5,0.25,79,136.0
2818,E-5,313.5,4.0,31,136.0
2819,B4,313.542,0.375,111,136.0
2820,F2,313.75,0.25,63,136.0
2821,E2,313.75,0.25,63,136.0
2822,A6,313.917,0.125,95,136.0
2823,G2,314.0,0.25,95,136.0
2824,E2,314.0,0.25,79,136.0
2825,E-3,314.0,0.25,79,136.0
2826,A4,314.042,0.25,63,136.0
2827,G2,314.25,0.25,63,136.0
2828,B3,314.25,0.25,63,136.0
2829,B4,314.292,0.125,79,136.0
2830,B4,314.292,0.125,79,136.0
2831,D5,314.417,0.625,127,136.0
2832,D2,314.5,0.25,95,136.0
2833,E-3,314.5,0.25,63,136.0
2834,E3,314.75,3.875,79,136.0
2835,G1,314.75,0.25,79,136.0
2836,E-5,314.75,3.75,71,136.0
2837,B-4,314.75,3.75,71,136.0
2838,F#4,314.75,3.75,71,136.0
2839,E-4,314.75,3.75,71,136.0
2840,A1,315.0,0.25,95,136.0
2841,B1,315.0,0.25,71,136.0
2842,E-3,315.0,0.25,71,136.0
2843,B4,315.042,0.125,63,136.0
2844,A1,315.25,0.25,79,136.0
2845,D5,315.292,0.25,79,136.0
2846,C2,315.5,0.5,95,136.0
2847,E-3,315.5,0.125,63,136.0
2848,E5,315.542,0.5,127,136.0
2849,E2,315.75,0.25,63,136.0
2850,B-4,316.0,2.0,63,136.0
2851,B1,316.0,1.0,95,136.0
2852,B1,316.0,0.25,87,136.0
2853,E-3,316.0,0.25,87,136.0
2854,D5,316.042,0.25,79,136.0
2855,E5,316.292,26/125,111,136.0
2856,E5,316.5,21/500,111,136.0
2857,E-3,316.5,0.25,79,136.0
2858,C#5,316.542,1.5,95,136.0
2859,F#2,317.0,0.25,95,136.0
2860,E2,317.0,0.25,79,136.0
2861,E-3,317.0,0.25,79,136.0
2862,F#2,317.25,0.25,63,136.0
2863,B3,317.25,0.25,79,136.0
2864,C#2,317.5,0.25,79,136.0
2865,E-3,317.5,0.25,63,136.0
2866,D5,317.542,1979/500,47,136.0
2867,F#1,317.75,1.5,95,136.0
2868,B1,317.75,0.25,95,136.0
2869,F5,318.0,1.5,63,136.0
2870,B1,318.0,0.25,87,136.0
2871,E-3,318.0,0.25,87,136.0
2872,B3,318.25,0.25,63,136.0
2873,E2,318.5,0.25,71,136.0
2874,E-3,318.5,0.25,71,136.0
2875,C3,318.75,4.0,63,136.0
2876,D5,318.75,4.0,75,136.0
2877,B4,318.75,4.0,75,136.0
2878,G4,318.75,4.0,75,136.0
2879,E4,318.75,4.0,75,136.0
2880,E-3,319.0,0.25,79,136.0
2881,C#5,319.5,0.5,63,136.0
2882,B1,319.5,0.25,79,136.0
2883,E-3,319.5,0.25,79,136.0
2884,F#1,319.75,0.25,79,136.0
2885,B3,319.75,0.25,79,136.0
2886,C#5,320.0,2.0,63,136.0
2887,G#1,320.0,0.25,95,136.0
2888,E-3,320.0,0.25,63,136.0
2889,B-6,320.042,0.25,119,136.0
2890,B-4,320.042,0.25,119,136.0
2891,G#1,320.25,0.25,79,136.0
2892,C#2,320.5,0.25,95,136.0
2893,B1,320.5,0.25,87,136.0
2894,E-3,320.5,0.25,87,136.0
2895,B-6,320.542,0.5,127,136.0
2896,B-4,320.542,0.5,127,136.0
2897,G#1,320.75,0.25,79,136.0
2898,B1,320.75,0.25,95,136.0
2899,B1,321.0,1.0,95,136.0
2900,E2,321.0,0.25,71,136.0
2901,E-3,321.0,0.25,71,136.0
2902,G#6,321.042,0.25,95,136.0
2903,G#4,321.042,0.25,95,136.0
2904,B3,321.25,0.25,79,136.0
2905,F#6,321.292,0.25,103,136.0
2906,F#4,321.292,0.25,103,136.0
2907,D5,321.5,4.0,47,136.0
2908,B3,321.75,0.25,79,136.0
2909,F6,321.792,0.25,103,136.0
2910,F4,321.792,0.25,103,136.0
2911,G#5,322.0,1.875,63,136.0
2912,F#2,322.0,0.25,95,136.0
2913,B1,322.0,0.25,79,136.0
2914,E-3,322.0,0.25,79,136.0
2915,E-6,322.042,0.25,103,136.0
2916,E-4,322.042,0.25,103,136.0
2917,F#2,322.25,0.25,79,136.0
2918,C6,322.417,0.25,111,136.0
2919,C#4,322.417,0.25,111,136.0
2920,C#2,322.5,0.25,95,136.0
2921,E-3,322.5,0.25,63,136.0
2922,F#1,322.75,0.5,95,136.0
2923,B3,322.792,0.125,95,136.0
2924,B5,322.917,0.25,111,136.0
2925,E2,323.0,0.25,79,136.0
2926,E-3,323.0,0.25,79,136.0
2927,B-5,323.167,0.25,95,136.0
2928,B-3,323.167,0.25,95,136.0
2929,G#1,323.25,0.25,79,136.0
2930,B3,323.25,0.25,95,136.0
2931,C#2,323.5,0.25,95,136.0
2932,G#5,323.542,0.25,111,136.0
2933,G#3,323.542,0.25,111,136.0
2934,G#1,323.75,0.25,79,136.0
2935,C#3,323.75,0.25,79,136.0
2936,B1,323.75,0.25,79,136.0
2937,A5,323.875,0.125,63,136.0
2938,F#5,323.917,0.25,95,136.0
2939,F#3,323.917,0.25,95,136.0
2940,A5,324.0,4.0,63,136.0
2941,G1,324.0,1.75,111,136.0
2942,F5,324.167,0.125,95,136.0
2943,F3,324.292,0.125,95,136.0
2944,E-3,324.5,0.25,79,136.0
2945,D5,324.542,1.375,111,136.0
2946,D3,324.542,1.375,111,136.0
2947,B1,324.75,0.25,95,136.0
2948,E2,325.0,0.25,79,136.0
2949,E-3,325.0,0.25,79,136.0
2950,E2,325.25,0.25,71,136.0
2951,B3,325.25,0.25,71,136.0
2952,B-4,325.542,1979/500,47,136.0
2953,G1,325.75,0.25,79,136.0
2954,B3,325.75,0.25,79,136.0
2955,A1,326.0,0.25,95,136.0
2956,B1,326.0,0.25,95,136.0
2957,A1,326.25,0.75,95,136.0
2958,B3,326.25,0.25,63,136.0
2959,C3,326.5,3.875,63,136.0
2960,E-3,326.5,0.25,63,136.0
2961,D5,326.5,3.75,75,136.0
2962,B4,326.5,3.75,75,136.0
2963,G4,326.5,3.75,75,136.0
2964,E4,326.5,3.75,75,136.0
2965,E2,326.75,0.25,79,136.0
2966,B3,326.75,0.25,79,136.0
2967,A1,327.0,0.25,95,136.0
2968,E2,327.0,0.25,71,136.0
2969,E-3,327.0,0.25,71,136.0
2970,B1,327.25,0.75,95,136.0
2971,B1,327.5,0.25,79,136.0
2972,E-3,327.5,0.25,79,136.0
2973,D5,327.542,0.25,119,136.0
2974,D3,327.542,0.25,119,136.0
2975,E5,327.792,0.25,103,136.0
2976,E3,327.792,0.25,103,136.0
2977,A5,328.0,3.625,63,136.0
2978,B1,328.0,0.25,95,136.0
2979,E-3,328.0,0.25,79,136.0
2980,G5,328.042,0.25,95,136.0
2981,G3,328.042,0.25,95,136.0
2982,B1,328.25,0.25,79,136.0
2983,B3,328.25,0.25,79,136.0
2984,A5,328.292,26/125,127,136.0
2985,A3,328.292,26/125,127,136.0
2986,D2,328.5,1.0,95,136.0
2987,A5,328.5,21/500,127,136.0
2988,A3,328.5,21/500,127,136.0
2989,G5,328.542,0.25,103,136.0
2990,G3,328.542,0.25,103,136.0
2991,B1,328.75,0.25,79,136.0
2992,B3,328.75,0.25,79,136.0
2993,E5,328.792,0.25,95,136.0
2994,E3,328.792,0.25,95,136.0
2995,E2,329.0,0.25,95,136.0
2996,D5,329.042,0.25,95,136.0
2997,D3,329.042,0.25,95,136.0
2998,B3,329.25,0.25,47,136.0
2999,B4,329.292,0.25,95,136.0
3000,B2,329.292,0.25,95,136.0
3001,E-3,329.5,0.25,79,136.0
3002,B-4,329.5,4.0,47,136.0
3003,B4,329.542,0.25,87,136.0
3004,B2,329.542,0.25,87,136.0
3005,B1,329.75,0.25,79,136.0
3006,B-4,329.792,0.25,95,136.0
3007,B-2,329.792,0.25,95,136.0
3008,D2,330.0,0.5,111,136.0
3009,E-3,330.0,0.25,79,136.0
3010,A4,330.042,0.25,95,136.0
3011,A2,330.042,0.25,95,136.0
3012,B3,330.25,0.25,63,136.0
3013,G#4,330.292,0.25,103,136.0
3014,G#2,330.292,0.25,103,136.0
3015,G2,330.5,0.25,111,136.0
3016,E-3,330.5,0.25,63,136.0
3017,B-4,330.5,4.0,87,136.0
3018,F#4,330.5,4.0,87,136.0
3019,C#4,330.5,4.0,87,136.0
3020,B2,330.5,4.0,87,136.0
3021,G4,330.542,0.25,103,136.0
3022,G2,330.542,0.25,103,136.0
3023,E2,330.75,0.5,111,136.0
3024,E4,330.792,0.25,103,136.0
3025,E2,330.792,0.25,103,136.0
3026,E2,331.0,0.75,95,136.0
3027,B1,331.0,0.75,95,136.0
3028,E2,331.0,0.75,95,136.0
3029,D4,331.042,0.25,95,136.0
3030,B1,331.25,0.25,95,136.0
3031,E4,331.292,0.25,111,136.0
3032,G#1,331.5,0.25,95,136.0
3033,G4,331.542,0.125,111,136.0
3034,F1,331.75,0.25,79,136.0
3035,B3,331.75,0.25,79,136.0
3036,A4,332.0,0.75,79,136.0
3037,A1,332.0,0.75,111,136.0
3038,B1,332.0,0.25,103,136.0
3039,C#3,332.0,0.25,103,136.0
3040,A4,332.417,83/1000,111,136.0
3041,A4,332.5,21/500,111,136.0
3042,A2,332.542,0.5,127,136.0
3043,A5,332.542,0.625,119,136.0
3044,A3,332.542,0.625,119,136.0
3045,B4,332.75,3.25,63,136.0
3046,B1,332.75,1.0,111,136.0
3047,B1,332.75,0.25,95,136.0
3048,A3,332.75,0.25,95,136.0
3049,B5,333.167,3.0,119,136.0
3050,B4,333.167,3.0,119,136.0
3051,B3,333.167,3333/1000,119,136.0
3052,B2,333.167,3333/1000,119,136.0
3053,E-3,333.5,0.25,63,136.0
3054,A4,333.542,1979/500,63,136.0
3055,E-3,334.0,0.25,79,136.0
3056,B3,334.25,0.25,63,136.0
3057,E-3,334.5,0.25,63,136.0
3058,B1,335.0,1.0,95,136.0
3059,E2,335.0,0.25,87,136.0
3060,E-3,335.0,0.25,87,136.0
3061,E-3,335.5,0.25,63,136.0
3062,B3,335.75,0.25,79,136.0
3063,B4,336.0,3.0,63,136.0
3064,B1,336.0,0.75,95,136.0
3065,B1,336.0,0.25,79,136.0
3066,E-3,336.0,0.25,79,136.0
3067,E-3,336.5,0.25,79,136.0
3068,B3,336.5,21/500,119,136.0
3069,B2,336.5,21/500,119,136.0
3070,B5,336.542,0.25,111,136.0
3071,B1,336.75,0.25,95,136.0
3072,F#6,336.792,0.25,95,136.0
3073,E2,337.0,0.25,71,136.0
3074,E-3,337.0,0.25,71,136.0
3075,E6,337.042,0.25,95,136.0
3076,E2,337.25,0.25,79,136.0
3077,B3,337.25,0.25,79,136.0
3078,B5,337.292,0.25,95,136.0
3079,A4,337.5,2.5,63,136.0
3080,F#5,337.542,0.25,111,136.0
3081,B3,337.75,0.25,79,136.0
3082,E5,337.792,0.25,95,136.0
3083,B1,338.0,1.75,95,136.0
3084,B1,338.0,0.25,79,136.0
3085,E-3,338.0,0.25,79,136.0
3086,B4,338.042,0.25,111,136.0
3087,B5,338.292,0.25,127,136.0
3088,E-3,338.5,0.25,63,136.0
3089,B-4,338.5,4.0,87,136.0
3090,F#4,338.5,4.0,87,136.0
3091,C#4,338.5,4.0,87,136.0
3092,B2,338.5,4.0,87,136.0
3093,F#5,338.542,0.25,111,136.0
3094,E2,338.75,0.25,79,136.0
3095,E5,338.792,0.25,95,136.0
3096,E2,339.0,0.25,79,136.0
3097,E-3,339.0,0.25,79,136.0
3098,B4,339.042,0.25,95,136.0
3099,B3,339.25,0.25,63,136.0
3100,F#4,339.292,0.25,95,136.0
3101,E-3,339.5,0.25,79,136.0
3102,E4,339.542,0.25,111,136.0
3103,B3,339.792,0.125,111,136.0
3104,A4,340.0,0.75,79,136.0
3105,A1,340.0,0.75,111,136.0
3106,B1,340.0,0.25,111,136.0
3107,A3,340.0,0.25,111,136.0
3108,F#3,340.042,0.125,111,136.0
3109,F#5,340.042,0.625,47,136.0
3110,A5,340.542,0.625,123,136.0
3111,A4,340.542,0.625,123,136.0
3112,A2,340.542,0.625,123,136.0
3113,A3,340.542,0.625,123,136.0
3114,B4,340.75,3.25,79,136.0
3115,B1,340.75,1.0,111,136.0
3116,B1,340.75,0.25,103,136.0
3117,C#3,340.75,0.25,103,136.0
3118,F#5,340.792,333/1000,47,136.0
3119,A5,341.125,333/1000,47,136.0
3120,B5,341.167,0.125,119,136.0
3121,B4,341.167,0.125,119,136.0
3122,B3,341.25,0.25,63,136.0
3123,B3,341.292,401/125,103,136.0
3124,B2,341.292,401/125,103,136.0
3125,F#5,341.458,21/500,47,136.0
3126,F#5,341.5,3333/1000,47,136.0
3127,B2,341.75,1.25,95,136.0
3128,B3,341.75,0.25,79,136.0
3129,B1,342.0,0.25,95,136.0
3130,B3,342.25,0.25,63,136.0
3131,A4,342.5,4.0,79,136.0
3132,F#4,342.5,4.0,79,136.0
3133,D4,342.5,4.0,79,136.0
3134,B3,342.5,4.0,79,136.0
3135,G2,342.5,4.0,79,136.0
3136,B1,342.5,0.25,79,136.0
3137,E-3,342.5,0.25,79,136.0
3138,B1,342.75,0.25,87,136.0
3139,B3,342.75,0.25,87,136.0
3140,A2,343.0,0.75,111,136.0
3141,E2,343.0,0.25,79,136.0
3142,E-3,343.0,0.25,79,136.0
3143,E-3,343.5,0.25,63,136.0
3144,B2,343.75,0.25,79,136.0
3145,B4,344.0,3.0,79,136.0
3146,B2,344.0,0.25,63,136.0
3147,E-3,344.0,0.25,79,136.0
3148,B2,344.25,0.25,79,136.0
3149,B3,344.25,0.25,79,136.0
3150,B2,344.5,0.25,79,136.0
3151,B3,344.5,1.375,103,136.0
3152,B2,344.5,1.375,103,136.0
3153,B1,344.75,0.75,95,136.0
3154,B1,344.75,0.25,79,136.0
3155,B3,344.75,0.25,79,136.0
3156,D5,344.833,333/1000,47,136.0
3157,E2,345.0,0.25,95,136.0
3158,F#5,345.167,333/1000,47,136.0
3159,B1,345.25,0.25,71,136.0
3160,B3,345.25,0.25,71,136.0
3161,B2,345.5,0.25,95,136.0
3162,E-3,345.5,0.25,79,136.0
3163,E-5,345.5,4.0,47,136.0
3164,F#2,345.75,0.25,79,136.0
3165,A2,346.0,0.75,111,136.0
3166,E-3,346.0,0.25,79,136.0
3167,B3,346.25,0.25,63,136.0
3168,E-3,346.5,0.25,79,136.0
3169,E5,346.542,0.25,111,136.0
3170,B2,346.75,0.5,95,136.0
3171,F#5,346.792,0.25,111,136.0
3172,E2,347.0,0.25,95,136.0
3173,E5,347.042,0.25,79,136.0
3174,B2,347.25,0.25,79,136.0
3175,E2,347.25,0.25,95,136.0
3176,B4,347.292,0.25,95,136.0
3177,E2,347.5,0.25,95,136.0
3178,E-3,347.5,0.25,63,136.0
3179,F#5,347.542,0.25,127,136.0
3180,F#2,347.75,0.25,95,136.0
3181,E5,347.792,0.25,95,136.0
3182,A4,348.0,0.75,79,136.0
3183,A1,348.0,0.75,111,136.0
3184,B1,348.0,0.25,111,136.0
3185,C#3,348.0,0.25,111,136.0
3186,B4,348.042,229/500,95,136.0
3187,B4,348.5,21/500,95,136.0
3188,A2,348.542,0.5,111,136.0
3189,A5,348.542,0.625,122,136.0
3190,A4,348.542,0.625,122,136.0
3191,A3,348.542,0.625,122,136.0
3192,B4,348.75,2.75,79,136.0
3193,B1,348.75,1.0,111,136.0
3194,B1,348.75,0.25,111,136.0
3195,A3,348.75,0.25,111,136.0
3196,B4,349.292,401/125,127,136.0
3197,B5,349.292,401/125,122,136.0
3198,B3,349.292,401/125,122,136.0
3199,B2,349.292,401/125,122,136.0
3200,E-3,349.5,0.25,63,136.0
3201,D5,349.5,4.0,47,136.0
3202,B2,349.75,2.0,95,136.0
3203,E-3,350.0,0.25,79,136.0
3204,B3,350.25,0.25,63,136.0
3205,E-3,350.5,0.25,63,136.0
3206,A4,350.5,4.0,79,136.0
3207,F#4,350.5,4.0,79,136.0
3208,D4,350.5,4.0,79,136.0
3209,B3,350.5,4.0,79,136.0
3210,G2,350.5,4.0,79,136.0
3211,E2,350.875,0.125,95,136.0
3212,E2,351.0,0.25,87,136.0
3213,E-3,351.0,0.25,87,136.0
3214,B1,351.25,0.25,95,136.0
3215,E-3,351.5,0.25,63,136.0
3216,G3,351.75,0.25,79,136.0
3217,B3,352.0,0.25,79,136.0
3218,B1,352.0,0.25,95,136.0
3219,C#3,352.0,0.25,95,136.0
3220,E4,352.25,0.25,79,136.0
3221,E2,352.25,0.25,95,136.0
3222,B4,352.5,21/500,127,136.0
3223,F#4,352.5,0.25,79,136.0
3224,F#2,352.5,0.25,95,136.0
3225,E-3,352.5,0.25,63,136.0
3226,B5,352.5,0.25,122,136.0
3227,B3,352.5,0.25,122,136.0
3228,B2,352.5,0.25,122,136.0
3229,B4,352.75,0.25,79,136.0
3230,B2,352.75,0.25,95,136.0
3231,C5,353.0,0.25,79,136.0
3232,C3,353.0,0.25,95,136.0
3233,E-3,353.0,0.25,47,136.0
3234,E5,353.25,0.25,79,136.0
3235,E3,353.25,0.25,95,136.0
3236,B3,353.25,0.25,63,136.0
3237,F#5,353.5,0.25,79,136.0
3238,F#3,353.5,0.25,111,136.0
3239,B4,353.5,4.0,47,136.0
3240,A5,353.75,0.25,79,136.0
3241,A3,353.75,0.25,95,136.0
3242,B3,353.75,0.25,63,136.0
3243,D6,354.0,0.25,79,136.0
3244,D4,354.0,0.25,111,136.0
3245,E-3,354.0,0.25,63,136.0
3246,A5,354.25,0.25,79,136.0
3247,A3,354.25,0.25,95,136.0
3248,F#5,354.5,0.25,79,136.0
3249,F#3,354.5,0.25,111,136.0
3250,E-3,354.5,0.25,63,136.0
3251,B4,354.5,4.0,83,136.0
3252,F#4,354.5,4.0,83,136.0
3253,D4,354.5,4.0,83,136.0
3254,E3,354.5,4.0,83,136.0
3255,F#5,354.542,0.25,127,136.0
3256,E5,354.75,0.25,79,136.0
3257,E3,354.75,0.25,95,136.0
3258,A5,354.792,0.25,111,136.0
3259,C5,355.0,0.25,79,136.0
3260,C3,355.0,0.25,95,136.0
3261,E-3,355.0,0.25,79,136.0
3262,D5,355.042,0.25,111,136.0
3263,B4,355.25,0.25,79,136.0
3264,B2,355.25,0.25,95,136.0
3265,B3,355.25,0.25,63,136.0
3266,E5,355.292,0.25,111,136.0
3267,F#4,355.5,0.25,79,136.0
3268,F#2,355.5,0.25,95,136.0
3269,E-3,355.5,0.25,63,136.0
3270,G#4,355.542,0.25,111,136.0
3271,E4,355.75,0.25,79,136.0
3272,B1,355.75,0.25,79,136.0
3273,B4,355.792,0.25,111,136.0
3274,E-5,356.0,4.0,47,136.0
3275,E2,356.0,0.75,95,136.0
3276,B1,356.0,0.25,79,136.0
3277,E-3,356.0,0.25,79,136.0
3278,F#4,356.042,0.25,111,136.0
3279,E4,356.292,26/125,111,136.0
3280,E4,356.5,21/500,111,136.0
3281,E-3,356.5,0.25,79,136.0
3282,G#4,356.542,1.375,111,136.0
3283,B2,356.75,0.75,95,136.0
3284,E-3,357.0,0.25,79,136.0
3285,B3,357.25,0.25,79,136.0
3286,E2,357.5,0.25,95,136.0
3287,E-3,357.5,0.25,63,136.0
3288,B-4,357.5,2.0,63,136.0
3289,B1,357.75,0.5,95,136.0
3290,E-3,358.0,0.25,79,136.0
3291,F#4,358.042,1.0,111,136.0
3292,C#2,358.25,0.25,79,136.0
3293,B3,358.25,0.25,63,136.0
3294,F#2,358.5,0.25,95,136.0
3295,E-3,358.5,0.25,63,136.0
3296,B-4,358.5,3.625,90,136.0
3297,F#4,358.5,3.625,90,136.0
3298,E-4,358.5,3.625,90,136.0
3299,C#2,358.75,0.25,63,136.0
3300,E2,359.0,1.0,79,136.0
3301,E-3,359.0,0.25,63,136.0
3302,E-3,359.5,0.25,63,136.0
3303,F5,359.5,1.5,63,136.0
3304,B1,359.75,0.25,71,136.0
3305,B3,359.75,0.25,71,136.0
3306,E-5,360.0,3.5,47,136.0
3307,E2,360.0,0.5,79,136.0
3308,B1,360.0,0.25,63,136.0
3309,E-3,360.0,0.25,63,136.0
3310,E4,360.042,0.125,95,136.0
3311,E-3,360.5,0.25,95,136.0
3312,E-3,360.5,0.25,79,136.0
3313,F#4,360.542,0.25,111,136.0
3314,D3,360.75,0.25,79,136.0
3315,E4,360.792,0.125,79,136.0
3316,C#5,361.0,0.5,63,136.0
3317,E2,361.0,0.25,63,136.0
3318,E-3,361.0,0.25,63,136.0
3319,F#4,361.167,0.25,111,136.0
3320,C#3,361.25,0.25,95,136.0
3321,B3,361.25,0.25,79,136.0
3322,C#5,361.5,2.0,63,136.0
3323,A2,361.75,0.25,79,136.0
3324,B3,361.75,0.25,63,136.0
3325,G#4,361.792,0.25,111,136.0
3326,B2,362.0,0.25,95,136.0
3327,E-3,362.0,0.25,63,136.0
3328,A4,362.167,0.125,95,136.0
3329,B2,362.25,0.25,63,136.0
3330,F#2,362.5,0.25,79,136.0
3331,E-3,362.5,0.25,63,136.0
3332,B4,362.5,4.0,75,136.0
3333,G4,362.5,4.0,75,136.0
3334,D4,362.5,4.0,75,136.0
3335,C3,362.5,4.0,75,136.0
3336,B4,362.542,0.25,111,136.0
3337,B1,362.75,0.25,95,136.0
3338,B4,362.917,0.25,95,136.0
3339,C#2,363.0,0.25,95,136.0
3340,E2,363.0,0.25,63,136.0
3341,E-3,363.0,0.25,63,136.0
3342,C#2,363.25,0.25,63,136.0
3343,B1,363.25,0.25,63,136.0
3344,B3,363.25,0.25,63,136.0
3345,E-5,363.292,0.25,111,136.0
3346,E2,363.5,0.5,95,136.0
3347,E-3,363.5,0.25,63,136.0
3348,G#5,363.5,2.0,63,136.0
3349,E5,363.542,0.5,127,136.0
3350,D5,364.0,4.0,63,136.0
3351,D2,364.0,0.5,79,136.0
3352,B1,364.0,0.25,79,136.0
3353,E-3,364.0,0.25,79,136.0
3354,F#5,364.042,0.25,95,136.0
3355,G#5,364.292,26/125,111,136.0
3356,G#5,364.5,167/1000,111,136.0
3357,A2,364.5,0.25,95,136.0
3358,E-3,364.5,0.25,63,136.0
3359,C2,364.75,1.25,95,136.0
3360,E2,364.75,0.25,63,136.0
3361,E2,365.0,0.25,71,136.0
3362,E-3,365.0,0.25,71,136.0
3363,B3,365.25,0.25,63,136.0
3364,A5,365.5,4.0,63,136.0
3365,B3,365.75,0.25,63,136.0
3366,G2,366.0,0.25,95,136.0
3367,F#5,366.042,0.25,111,136.0
3368,G2,366.25,0.25,63,136.0
3369,B3,366.25,0.25,63,136.0
3370,G5,366.292,0.25,111,136.0
3371,D2,366.5,0.25,95,136.0
3372,E-3,366.5,0.25,63,136.0
3373,B4,366.5,3.625,74,136.0
3374,G4,366.5,3.625,74,136.0
3375,E4,366.5,3.625,74,136.0
3376,F#5,366.542,0.25,95,136.0
3377,G1,366.75,0.5,95,136.0
3378,B3,366.75,0.25,63,136.0
3379,E5,366.792,0.25,95,136.0
3380,E-3,367.0,0.25,47,136.0
3381,G5,367.042,0.25,111,136.0
3382,A1,367.25,0.25,79,136.0
3383,F#5,367.292,0.25,95,136.0
3384,D2,367.5,0.25,95,136.0
3385,E-3,367.5,0.25,63,136.0
3386,E5,367.542,0.25,95,136.0
3387,A1,367.75,0.25,79,136.0
3388,D5,367.792,0.25,95,136.0
3389,D5,368.0,3.5,63,136.0
3390,C2,368.0,1.0,95,136.0
3391,E-3,368.0,0.25,63,136.0
3392,B4,368.042,0.25,79,136.0
3393,B3,368.25,0.25,63,136.0
3394,E5,368.292,26/125,111,136.0
3395,E5,368.5,21/500,111,136.0
3396,D5,368.542,1.5,111,136.0
3397,B1,368.75,0.25,71,136.0
3398,B3,368.75,0.25,71,136.0
3399,B2,369.0,0.5,95,136.0
3400,E2,369.0,0.25,63,136.0
3401,B3,369.25,0.25,47,136.0
3402,B2,369.5,0.25,79,136.0
3403,E-3,369.5,0.25,79,136.0
3404,A5,369.5,4.0,63,136.0
3405,A2,369.75,0.375,95,136.0
3406,E2,369.75,0.25,63,136.0
3407,E2,370.0,0.25,79,136.0
3408,E-3,370.0,0.25,79,136.0
3409,B4,370.042,0.25,95,136.0
3410,A2,370.25,0.25,79,136.0
3411,B3,370.25,0.25,63,136.0
3412,D5,370.292,0.25,95,136.0
3413,D2,370.5,0.25,79,136.0
3414,E-3,370.5,0.25,63,136.0
3415,B-4,370.5,2.0,79,136.0
3416,F#4,370.5,2.0,79,136.0
3417,E-4,370.5,2.0,79,136.0
3418,B2,370.5,2.0,79,136.0
3419,B4,370.542,0.375,95,136.0
3420,C2,370.75,0.75,95,136.0
3421,B1,371.0,0.25,71,136.0
3422,E-3,371.0,0.25,71,136.0
3423,G4,371.042,0.125,79,136.0
3424,A4,371.167,0.125,95,136.0
3425,B4,371.292,0.125,79,136.0
3426,E2,371.5,0.25,79,136.0
3427,E-3,371.5,0.125,63,136.0
3428,G4,371.542,0.5,95,136.0
3429,A1,371.75,0.25,79,136.0
3430,E2,371.75,0.25,63,136.0
3431,B-4,372.0,4.0,79,136.0
3432,B1,372.0,1.0,95,136.0
3433,B1,372.0,0.25,79,136.0
3434,E-3,372.0,0.25,79,136.0
3435,E-3,372.5,0.25,79,136.0
3436,F5,372.5,1.375,79,136.0
3437,C#5,372.5,1.375,79,136.0
3438,B-4,372.5,1.375,79,136.0
3439,F#4,372.542,1.0,111,136.0
3440,F#2,373.0,0.25,95,136.0
3441,E-3,373.0,0.25,79,136.0
3442,F#2,373.25,0.25,79,136.0
3443,B3,373.25,0.25,79,136.0
3444,C#2,373.5,0.25,95,136.0
3445,E-3,373.5,0.25,63,136.0
3446,A4,373.5,0.75,63,136.0
3447,F#1,373.75,1.5,95,136.0
3448,E-3,374.0,0.25,79,136.0
3449,C#5,374.0,0.5,90,136.0
3450,B-4,374.0,0.5,90,136.0
3451,F#4,374.0,0.5,90,136.0
3452,F#4,374.042,0.25,127,136.0
3453,B3,374.25,0.25,63,136.0
3454,B4,374.25,3.25,63,136.0
3455,E-4,374.292,0.25,95,136.0
3456,E-3,374.5,0.25,63,136.0
3457,C#5,374.5,1.75,90,136.0
3458,B-4,374.5,1.75,90,136.0
3459,F#4,374.5,1.75,90,136.0
3460,F#4,374.542,0.5,111,136.0
3461,E-3,375.0,0.25,63,136.0
3462,E-4,375.042,0.25,95,136.0
3463,B-3,375.292,0.25,95,136.0
3464,E-3,375.5,0.25,63,136.0
3465,E-4,375.542,0.25,95,136.0
3466,F#1,375.75,0.25,79,136.0
3467,B1,375.75,0.25,71,136.0
3468,B3,375.75,0.25,71,136.0
3469,B-3,375.792,0.25,95,136.0
3470,B-4,376.0,4.0,79,136.0
3471,G#1,376.0,0.25,95,136.0
3472,B1,376.0,0.25,63,136.0
3473,E-3,376.0,0.25,63,136.0
3474,G#3,376.042,0.125,95,136.0
3475,G#1,376.25,0.25,63,136.0
3476,C#2,376.5,0.25,95,136.0
3477,E-3,376.5,0.25,79,136.0
3478,G#5,376.5,1.625,90,136.0
3479,F5,376.5,1.625,90,136.0
3480,C#5,376.5,1.625,90,136.0
3481,F#3,376.542,0.375,95,136.0
3482,G#1,376.75,0.25,79,136.0
3483,B1,377.0,1.0,95,136.0
3484,E2,377.0,0.25,63,136.0
3485,E-3,377.0,0.25,63,136.0
3486,B3,377.25,0.25,79,136.0
3487,B4,377.5,4.0,63,136.0
3488,B3,377.75,0.25,63,136.0
3489,G#3,377.792,0.25,95,136.0
3490,F#2,378.0,0.25,95,136.0
3491,E-3,378.0,0.25,63,136.0
3492,F3,378.042,0.25,111,136.0
3493,F#2,378.25,0.25,63,136.0
3494,A5,378.25,0.25,95,136.0
3495,F#5,378.25,0.25,95,136.0
3496,D5,378.25,0.25,95,136.0
3497,G2,378.25,0.25,95,136.0
3498,F#3,378.292,0.25,95,136.0
3499,C#2,378.5,0.25,95,136.0
3500,E-3,378.5,0.25,63,136.0
3501,A5,378.5,4.0,95,136.0
3502,F#5,378.5,4.0,95,136.0
3503,D5,378.5,4.0,95,136.0
3504,G2,378.5,4.0,95,136.0
3505,G#3,378.542,0.375,111,136.0
3506,F#1,378.75,0.5,95,136.0
3507,E2,379.0,0.25,63,136.0
3508,E-3,379.0,0.25,63,136.0
3509,B-3,379.042,0.25,111,136.0
3510,G#1,379.25,0.25,79,136.0
3511,B1,379.25,0.25,63,136.0
3512,B3,379.25,0.25,63,136.0
3513,B3,379.292,0.25,111,136.0
3514,C#2,379.5,0.25,95,136.0
3515,E-3,379.5,0.25,63,136.0
3516,C#4,379.542,0.375,127,136.0
3517,G#1,379.75,0.25,63,136.0
3518,A4,380.0,4.0,63,136.0
3519,G1,380.0,0.5,111,136.0
3520,B1,380.0,0.25,79,136.0
3521,E-3,380.0,0.25,79,136.0
3522,G#3,380.042,0.375,111,136.0
3523,D2,380.5,0.25,79,136.0
3524,E-3,380.5,0.25,63,136.0
3525,D2,380.75,0.5,95,136.0
3526,E2,380.75,0.25,63,136.0
3527,E2,381.0,0.25,71,136.0
3528,E-3,381.0,0.25,71,136.0
3529,A1,381.25,0.25,79,136.0
3530,B3,381.25,0.25,63,136.0
3531,A1,381.5,0.5,111,136.0
3532,A4,381.5,0.75,63,136.0
3533,B3,381.75,0.25,63,136.0
3534,E4,381.917,0.25,95,136.0
3535,D2,382.0,0.25,79,136.0
3536,D2,382.25,0.5,95,136.0
3537,B3,382.25,0.25,63,136.0
3538,B4,382.25,3.25,63,136.0
3539,F#4,382.292,0.25,111,136.0
3540,E-3,382.5,0.25,63,136.0
3541,G4,382.542,0.25,95,136.0
3542,G1,382.75,1.25,95,136.0
3543,B3,382.75,0.25,63,136.0
3544,A4,382.792,0.125,111,136.0
3545,B4,382.917,0.375,95,136.0
3546,E-3,383.0,0.25,47,136.0
3547,C#5,383.292,0.125,95,136.0
3548,D5,383.417,0.25,111,136.0
3549,E-3,383.5,0.25,63,136.0
3550,E5,383.667,0.375,111,136.0
3551,A4,384.0,1.625,63,136.0
3552,G1,384.0,1.5,95,136.0
3553,E-3,384.0,0.25,63,136.0
3554,F#5,384.042,0.125,111,136.0
3555,G5,384.167,0.25,127,136.0
3556,B3,384.25,0.25,63,136.0
3557,A5,384.542,0.25,111,136.0
3558,B1,384.75,0.25,71,136.0
3559,B3,384.75,0.25,71,136.0
3560,B5,384.792,0.25,95,136.0
3561,E2,385.0,0.25,63,136.0
3562,C#6,385.042,0.125,95,136.0
3563,B3,385.25,0.25,47,136.0
3564,D6,385.292,0.125,127,136.0
3565,E6,385.417,0.25,111,136.0
3566,E-3,385.5,0.25,79,136.0
3567,B4,385.5,4.0,63,136.0
3568,F#6,385.667,0.25,95,136.0
3569,E2,385.75,0.25,63,136.0
3570,G6,385.917,0.25,111,136.0
3571,G2,386.0,0.25,111,136.0
3572,E2,386.0,0.25,79,136.0
3573,E-3,386.0,0.25,79,136.0
3574,A6,386.167,0.25,95,136.0
3575,G2,386.25,0.25,111,136.0
3576,B3,386.25,0.25,63,136.0
3577,F#5,386.5,0.625,63,136.0
3578,E-3,386.5,0.25,63,136.0
3579,A5,386.5,4.0,95,136.0
3580,F#5,386.5,4.0,95,136.0
3581,D5,386.5,4.0,95,136.0
3582,G2,386.5,4.0,95,136.0
3583,G1,386.75,0.25,79,136.0
3584,G1,387.0,0.5,111,136.0
3585,B1,387.0,0.25,71,136.0
3586,E-3,387.0,0.25,71,136.0
3587,F#5,387.375,333/1000,63,136.0
3588,A1,387.5,0.25,95,136.0
3589,E-3,387.5,0.125,63,136.0
3590,A5,387.708,73/250,63,136.0
3591,D2,387.75,0.25,79,136.0
3592,E2,387.75,0.25,63,136.0
3593,D6,387.917,0.25,95,136.0
3594,A5,388.0,21/500,63,136.0
3595,E1,388.0,0.75,111,136.0
3596,B1,388.0,0.25,79,136.0
3597,E-3,388.0,0.25,79,136.0
3598,F#5,388.042,3.125,63,136.0
3599,E6,388.167,0.125,95,136.0
3600,F#6,388.292,26/125,111,136.0
3601,F#6,388.5,21/500,111,136.0
3602,E-3,388.5,0.25,79,136.0
3603,D6,388.542,1.5,111,136.0
3604,E2,388.75,0.25,95,136.0
3605,E1,389.0,0.75,95,136.0
3606,E-3,389.0,0.25,79,136.0
3607,B3,389.25,0.25,79,136.0
3608,E-3,389.5,0.25,63,136.0
3609,A4,389.5,0.75,79,136.0
3610,E2,389.75,0.25,95,136.0
3611,E1,390.0,0.75,95,136.0
3612,E-3,390.0,0.25,79,136.0
3613,B3,390.25,0.25,63,136.0
3614,B4,390.25,3.25,63,136.0
3615,E-3,390.5,0.25,63,136.0
3616,A4,390.5,0.625,87,136.0
3617,E4,390.5,0.625,87,136.0
3618,D4,390.5,0.625,87,136.0
3619,A2,390.5,0.625,87,136.0
3620,E2,390.75,1.0,95,136.0
3621,E-3,391.0,0.25,63,136.0
3622,B4,391.25,3.25,87,136.0
3623,F#4,391.25,3.25,87,136.0
3624,E4,391.25,3.25,87,136.0
3625,B2,391.25,3.25,87,136.0
3626,D5,391.292,333/1000,63,136.0
3627,E-3,391.5,0.25,63,136.0
3628,F#5,391.625,333/1000,63,136.0
3629,E2,391.75,0.25,79,136.0
3630,B1,391.75,0.25,71,136.0
3631,B3,391.75,0.25,71,136.0
3632,E-5,391.958,21/500,63,136.0
3633,E-5,392.0,3.75,63,136.0
3634,E1,392.0,0.75,95,136.0
3635,B1,392.0,0.25,63,136.0
3636,E-3,392.0,0.25,63,136.0
3637,D6,392.042,0.25,127,136.0
3638,F#6,392.292,26/125,111,136.0
3639,F#6,392.5,21/500,111,136.0
3640,E-3,392.5,0.25,79,136.0
3641,E-6,392.542,1.75,127,136.0
3642,E2,392.75,1.0,95,136.0
3643,E2,393.0,0.25,63,136.0
3644,E-3,393.0,0.25,63,136.0
3645,B3,393.25,0.25,79,136.0
3646,B3,393.5,0.25,31,136.0
3647,E1,393.75,1.0,95,136.0
3648,B3,393.75,0.25,63,136.0
3649,E4,393.75,0.25,31,136.0
3650,E-3,394.0,0.25,63,136.0
3651,F#4,394.0,0.25,31,136.0
3652,B4,394.25,0.25,31,136.0
3653,E-3,394.5,0.25,63,136.0
3654,C5,394.5,0.25,31,136.0
3655,B4,394.5,4.0,87,136.0
3656,F#4,394.5,4.0,87,136.0
3657,E4,394.5,4.0,87,136.0
3658,B2,394.5,4.0,87,136.0
3659,E1,394.75,0.25,79,136.0
3660,E5,394.75,0.25,31,136.0
3661,B1,395.0,0.25,95,136.0
3662,F#5,395.0,0.25,31,136.0
3663,E2,395.0,0.25,63,136.0
3664,E-3,395.0,0.25,63,136.0
3665,B1,395.25,0.75,79,136.0
3666,A5,395.25,0.25,31,136.0
3667,B1,395.25,0.25,63,136.0
3668,B3,395.25,0.25,63,136.0
3669,E-3,395.5,0.25,63,136.0
3670,D6,395.5,0.25,31,136.0
3671,A5,395.75,0.25,31,136.0
3672,D5,396.0,3.75,63,136.0
3673,C2,396.0,0.75,95,136.0
3674,F#5,396.0,0.25,31,136.0
3675,B1,396.0,0.25,79,136.0
3676,E-3,396.0,0.25,79,136.0
3677,E5,396.25,0.25,31,136.0
3678,E-3,396.5,0.25,63,136.0
3679,C5,396.5,0.25,31,136.0
3680,D6,396.542,0.25,127,136.0
3681,G2,396.75,0.75,95,136.0
3682,E2,396.75,0.25,63,136.0
3683,B4,396.75,0.25,31,136.0
3684,A5,396.792,0.25,111,136.0
3685,F#4,397.0,0.25,31,136.0
3686,E2,397.0,0.25,71,136.0
3687,E-3,397.0,0.25,71,136.0
3688,B3,397.25,0.25,63,136.0
3689,E4,397.25,0.25,31,136.0
3690,D6,397.292,0.25,127,136.0
3691,C2,397.5,0.25,95,136.0
3692,E-5,397.5,4.0,31,136.0
3693,A5,397.542,0.25,111,136.0
3694,G1,397.75,0.5,111,136.0
3695,B3,397.75,0.25,63,136.0
3696,F#5,398.042,0.25,95,136.0
3697,A1,398.25,0.25,95,136.0
3698,B3,398.25,0.25,63,136.0
3699,G#5,398.292,0.25,111,136.0
3700,D2,398.5,0.25,95,136.0
3701,E-3,398.5,0.25,63,136.0
3702,A4,398.5,0.625,95,136.0
3703,E4,398.5,0.625,95,136.0
3704,D4,398.5,0.625,95,136.0
3705,A2,398.5,0.625,95,136.0
3706,F#5,398.542,0.25,111,136.0
3707,A1,398.75,0.25,63,136.0
3708,B3,398.75,0.25,63,136.0
3709,C2,399.0,1.0,95,136.0
3710,E-3,399.0,0.25,47,136.0
3711,D5,399.042,0.25,95,136.0
3712,B4,399.25,3.25,83,136.0
3713,F#4,399.25,3.25,83,136.0
3714,E4,399.25,3.25,83,136.0
3715,B2,399.25,3.25,83,136.0
3716,F#5,399.292,0.25,111,136.0
3717,E-3,399.5,0.25,63,136.0
3718,A5,399.542,0.375,111,136.0
3719,B4,400.0,1729/500,63,136.0
3720,C2,400.0,0.5,95,136.0
3721,E-3,400.0,0.25,63,136.0
3722,F#5,400.042,0.25,95,136.0
3723,B3,400.25,0.25,63,136.0
3724,D5,400.292,26/125,95,136.0
3725,D5,400.5,21/500,95,136.0
3726,B2,400.5,0.25,95,136.0
3727,F#5,400.542,0.25,111,136.0
3728,B2,400.75,0.25,79,136.0
3729,B1,400.75,0.25,71,136.0
3730,B3,400.75,0.25,71,136.0
3731,D5,400.792,0.25,95,136.0
3732,E2,401.0,0.25,63,136.0
3733,A4,401.042,0.125,95,136.0
3734,A2,401.25,0.25,95,136.0
3735,B3,401.25,0.25,47,136.0
3736,E-3,401.5,0.25,79,136.0
3737,E-5,401.5,4.0,31,136.0
3738,D5,401.542,0.25,95,136.0
3739,F2,401.75,0.25,63,136.0
3740,E2,401.75,0.25,63,136.0
3741,A4,401.792,0.25,95,136.0
3742,G2,402.0,0.25,95,136.0
3743,E2,402.0,0.25,79,136.0
3744,E-3,402.0,0.25,79,136.0
3745,F#4,402.042,0.25,95,136.0
3746,G2,402.25,0.25,63,136.0
3747,B3,402.25,0.25,63,136.0
3748,D4,402.292,0.125,111,136.0
3749,A4,402.417,0.25,127,136.0
3750,D2,402.5,0.25,95,136.0
3751,E-3,402.5,0.25,63,136.0
3752,B4,402.5,4.0,83,136.0
3753,F#4,402.5,4.0,83,136.0
3754,E4,402.5,4.0,83,136.0
3755,B2,402.5,4.0,83,136.0
3756,F#4,402.667,0.25,95,136.0
3757,G1,402.75,0.25,79,136.0
3758,D4,402.917,0.25,95,136.0
3759,A1,403.0,0.25,95,136.0
3760,B1,403.0,0.25,71,136.0
3761,E-3,403.0,0.25,71,136.0
3762,A1,403.25,0.25,79,136.0
3763,D4,403.292,0.25,95,136.0
3764,C2,403.5,0.5,95,136.0
3765,E-3,403.5,0.125,63,136.0
3766,B3,403.542,0.25,111,136.0
3767,E2,403.75,0.25,63,136.0
3768,E4,403.792,0.25,95,136.0
3769,B-4,403.958,21/500,79,136.0
3770,B-4,404.0,979/500,79,136.0
3771,B1,404.0,1.0,95,136.0
3772,B1,404.0,0.25,87,136.0
3773,E-3,404.0,0.25,87,136.0
3774,D4,404.042,0.25,95,136.0
3775,B3,404.292,0.125,111,136.0
3776,E-3,404.5,0.25,79,136.0
3777,F#2,405.0,0.25,95,136.0
3778,E2,405.0,0.25,79,136.0
3779,E-3,405.0,0.25,79,136.0
3780,F#2,405.25,0.25,63,136.0
3781,B3,405.25,0.25,79,136.0
3782,C#2,405.5,0.25,79,136.0
3783,E-3,405.5,0.25,63,136.0
3784,D5,405.5,4.0,47,136.0
3785,F#1,405.75,1.5,95,136.0
3786,B1,405.75,0.25,95,136.0
3787,B-4,405.792,0.125,127,136.0
3788,F5,405.958,1.5,63,136.0
3789,B1,406.0,0.25,87,136.0
3790,E-3,406.0,0.25,87,136.0
3791,B-4,406.167,0.25,111,136.0
3792,B3,406.25,0.25,63,136.0
3793,A4,406.5,0.75,95,136.0
3794,E4,406.5,0.75,95,136.0
3795,D4,406.5,0.75,95,136.0
3796,A2,406.5,0.75,95,136.0
3797,E2,406.5,0.25,71,136.0
3798,E-3,406.5,0.25,71,136.0
3799,B-4,406.542,0.375,127,136.0
3800,G#4,406.917,0.125,95,136.0
3801,E-3,407.0,0.25,79,136.0
3802,G#4,407.167,0.125,79,136.0
3803,B4,407.25,3.25,87,136.0
3804,F#4,407.25,3.25,87,136.0
3805,E4,407.25,3.25,87,136.0
3806,B2,407.25,3.25,87,136.0
3807,C#5,407.458,271/500,63,136.0
3808,B1,407.5,0.25,79,136.0
3809,E-3,407.5,0.25,79,136.0
3810,G#4,407.542,0.25,127,136.0
3811,F#1,407.75,0.25,79,136.0
3812,B3,407.75,0.25,79,136.0
3813,C#5,408.0,979/500,63,136.0
3814,G#1,408.0,0.25,95,136.0
3815,E-3,408.0,0.25,63,136.0
3816,F#4,408.042,0.125,79,136.0
3817,G#1,408.25,0.25,79,136.0
3818,F#4,408.292,0.125,95,136.0
3819,C#2,408.5,0.25,95,136.0
3820,B1,408.5,0.25,87,136.0
3821,E-3,408.5,0.25,87,136.0
3822,F#4,408.542,0.375,127,136.0
3823,G#1,408.75,0.25,79,136.0
3824,B1,408.75,0.25,95,136.0
3825,F4,408.917,0.125,95,136.0
3826,B1,409.0,1.0,95,136.0
3827,E2,409.0,0.25,71,136.0
3828,E-3,409.0,0.25,71,136.0
3829,B3,409.25,0.25,79,136.0
3830,F4,409.292,0.125,95,136.0
3831,D5,409.5,4.0,47,136.0
3832,F4,409.542,0.5,127,136.0
3833,B3,409.75,0.25,79,136.0
3834,G#5,409.958,1.875,79,136.0
3835,F#2,410.0,0.25,95,136.0
3836,B1,410.0,0.25,79,136.0
3837,E-3,410.0,0.25,79,136.0
3838,E-4,410.042,0.125,79,136.0
3839,F#2,410.25,0.25,79,136.0
3840,E-4,410.292,0.125,95,136.0
3841,B3,410.5,0.25,111,136.0
3842,C#2,410.5,0.25,95,136.0
3843,E-3,410.5,0.25,63,136.0
3844,E-4,410.542,0.375,127,136.0
3845,E4,410.75,0.25,111,136.0
3846,F#1,410.75,0.5,95,136.0
3847,F#4,411.0,0.25,111,136.0
3848,E2,411.0,0.25,79,136.0
3849,E-3,411.0,0.25,79,136.0
3850,E-4,411.042,0.25,79,136.0
3851,B4,411.25,0.25,111,136.0
3852,G#1,411.25,0.25,79,136.0
3853,B3,411.25,0.25,95,136.0
3854,E-4,411.292,0.25,95,136.0
3855,C5,411.5,0.25,111,136.0
3856,C#2,411.5,0.25,95,136.0
3857,C#4,411.542,0.25,111,136.0
3858,E5,411.75,0.25,111,136.0
3859,G#1,411.75,0.25,79,136.0
3860,C#3,411.75,0.25,79,136.0
3861,B1,411.75,0.25,79,136.0
3862,A5,411.958,21/500,79,136.0
3863,F#5,412.0,0.25,111,136.0
3864,A5,412.0,4.0,79,136.0
3865,G1,412.0,1.75,111,136.0
3866,C#4,412.042,0.125,79,136.0
3867,C#4,412.167,0.25,127,136.0
3868,A5,412.25,0.25,111,136.0
3869,D6,412.5,0.25,127,136.0
3870,E-3,412.5,0.25,79,136.0
3871,B3,412.542,0.5,127,136.0
3872,A5,412.75,0.25,111,136.0
3873,B1,412.75,0.25,95,136.0
3874,F#5,413.0,0.25,111,136.0
3875,E2,413.0,0.25,79,136.0
3876,E-3,413.0,0.25,79,136.0
3877,B3,413.042,0.25,95,136.0
3878,E5,413.25,0.25,111,136.0
3879,E2,413.25,0.25,71,136.0
3880,B3,413.25,0.25,71,136.0
3881,A3,413.292,0.875,111,136.0
3882,C5,413.5,0.25,111,136.0
3883,B-4,413.5,4.0,47,136.0
3884,B4,413.75,0.25,111,136.0
3885,G1,413.75,0.25,79,136.0
3886,B3,413.75,0.25,79,136.0
3887,F#4,414.0,0.25,111,136.0
3888,A1,414.0,0.25,95,136.0
3889,B1,414.0,0.25,95,136.0
3890,E4,414.25,0.25,111,136.0
3891,A1,414.25,0.75,95,136.0
3892,B3,414.25,0.25,63,136.0
3893,A3,414.292,0.25,95,136.0
3894,E3,414.5,4.0,79,136.0
3895,E-3,414.5,0.25,63,136.0
3896,E-5,414.5,4.0,71,136.0
3897,B-4,414.5,4.0,71,136.0
3898,F#4,414.5,4.0,71,136.0
3899,E-4,414.5,4.0,71,136.0
3900,G3,414.542,0.5,111,136.0
3901,E2,414.75,0.25,79,136.0
3902,B3,414.75,0.25,79,136.0
3903,A1,415.0,0.25,95,136.0
3904,E2,415.0,0.25,71,136.0
3905,E-3,415.0,0.25,71,136.0
3906,G3,415.042,0.125,95,136.0
3907,B1,415.25,0.75,95,136.0
3908,G3,415.292,0.125,95,136.0
3909,B1,415.5,0.25,79,136.0
3910,E-3,415.5,0.25,79,136.0
3911,F#3,415.542,0.625,127,136.0
3912,A5,416.0,3.75,79,136.0
3913,B1,416.0,0.25,95,136.0
3914,E-3,416.0,0.25,79,136.0
3915,B1,416.25,0.25,79,136.0
3916,B3,416.25,0.25,79,136.0
3917,F#3,416.292,26/125,127,136.0
3918,F#3,416.5,21/500,127,136.0
3919,D2,416.5,1.0,95,136.0
3920,E3,416.542,0.5,111,136.0
3921,B1,416.75,0.25,79,136.0
3922,B3,416.75,0.25,79,136.0
3923,E2,417.0,0.25,95,136.0
3924,E3,417.042,0.25,95,136.0
3925,B3,417.25,0.25,47,136.0
3926,D3,417.292,0.125,111,136.0
3927,E-3,417.5,0.25,79,136.0
3928,B-4,417.5,4.0,47,136.0
3929,D3,417.542,1.0,127,136.0
3930,B1,417.75,0.25,79,136.0
3931,D2,418.0,0.5,111,136.0
3932,E-3,418.0,0.25,79,136.0
3933,B3,418.25,0.25,63,136.0
3934,G2,418.5,0.25,111,136.0
3935,E-3,418.5,0.25,63,136.0
3936,E2,418.75,0.5,111,136.0
3937,E2,419.0,0.75,95,136.0
3938,B1,419.0,0.75,95,136.0
3939,E2,419.0,0.75,95,136.0
3940,B1,419.25,0.25,95,136.0
3941,G#1,419.5,0.25,95,136.0
3942,F#5,419.542,0.875,119,136.0
3943,F#4,419.542,0.875,119,136.0
3944,F#3,419.542,0.875,119,136.0
3945,F#2,419.542,0.875,119,136.0
3946,F1,419.75,0.25,79,136.0
3947,B3,419.75,0.25,79,136.0
3948,A4,420.0,0.75,79,136.0
3949,A1,420.0,0.75,111,136.0
3950,B1,420.0,0.25,103,136.0
3951,C#3,420.0,0.25,103,136.0
3952,A2,420.542,0.5,127,136.0
3953,A5,420.542,0.625,127,136.0
3954,A4,420.542,0.625,127,136.0
3955,A3,420.542,0.625,127,136.0
3956,B4,420.75,3.25,79,136.0
3957,B1,420.75,1.0,111,136.0
3958,B1,420.75,0.25,95,136.0
3959,A3,420.75,0.25,95,136.0
3960,B5,421.167,3333/1000,127,136.0
3961,B3,421.167,3333/1000,127,136.0
3962,B4,421.167,3333/1000,127,136.0
3963,B2,421.167,3333/1000,127,136.0
3964,E-3,421.5,0.25,63,136.0
3965,A4,421.5,4.0,63,136.0
3966,E-3,422.0,0.25,79,136.0
3967,E3,422.25,3.875,79,136.0
3968,B3,422.25,0.25,63,136.0
3969,E-5,422.25,3.75,71,136.0
3970,B-4,422.25,3.75,71,136.0
3971,F#4,422.25,3.75,71,136.0
3972,E-4,422.25,3.75,71,136.0
3973,E-3,422.5,0.25,63,136.0
3974,B1,423.0,1.0,95,136.0
3975,E2,423.0,0.25,87,136.0
3976,E-3,423.0,0.25,87,136.0
3977,E-3,423.5,0.25,63,136.0
3978,B3,423.75,0.25,79,136.0
3979,B4,424.0,3.0,79,136.0
3980,B1,424.0,0.75,95,136.0
3981,B1,424.0,0.25,79,136.0
3982,E-3,424.0,0.25,79,136.0
3983,E-3,424.5,0.25,79,136.0
3984,B5,424.5,917/1000,127,136.0
3985,B3,424.5,917/1000,127,136.0
3986,B4,424.5,917/1000,127,136.0
3987,B2,424.5,917/1000,127,136.0
3988,B1,424.75,0.25,95,136.0
3989,E2,425.0,0.25,71,136.0
3990,E-3,425.0,0.25,71,136.0
3991,E2,425.25,0.25,79,136.0
3992,B3,425.25,0.25,79,136.0
3993,A4,425.5,2.5,63,136.0
3994,B3,425.75,0.25,79,136.0
3995,B1,426.0,1.75,95,136.0
3996,B1,426.0,0.25,79,136.0
3997,E-3,426.0,0.25,79,136.0
3998,C3,426.25,4.0,63,136.0
3999,D5,426.25,4.0,75,136.0
4000,B4,426.25,4.0,75,136.0
4001,G4,426.25,4.0,75,136.0
4002,E4,426.25,4.0,75,136.0
4003,E-3,426.5,0.25,63,136.0
4004,E2,426.75,0.25,79,136.0
4005,E2,427.0,0.25,79,136.0
4006,E-3,427.0,0.25,79,136.0
4007,B3,427.25,0.25,63,136.0
4008,E-3,427.5,0.25,79,136.0
4009,A4,428.0,0.75,79,136.0
4010,A1,428.0,0.75,111,136.0
4011,F#5,428.0,0.625,47,136.0
4012,B1,428.0,0.25,111,136.0
4013,A3,428.0,0.25,111,136.0
4014,A5,428.542,0.625,127,136.0
4015,A4,428.542,0.625,127,136.0
4016,A2,428.542,0.625,127,136.0
4017,A3,428.542,0.625,127,136.0
4018,B4,428.75,3.25,79,136.0
4019,B1,428.75,1.0,111,136.0
4020,B1,428.75,0.25,103,136.0
4021,C#3,428.75,0.25,103,136.0
4022,F#5,428.875,333/1000,47,136.0
4023,A5,429.208,73/250,47,136.0
4024,B3,429.25,0.25,63,136.0
4025,B5,429.292,401/125,123,136.0
4026,B3,429.292,401/125,123,136.0
4027,B4,429.292,401/125,123,136.0
4028,B2,429.292,401/125,123,136.0
4029,A5,429.5,21/500,47,136.0
4030,F#5,429.542,3.25,47,136.0
4031,B2,429.75,1.25,95,136.0
4032,B3,429.75,0.25,79,136.0
4033,B1,430.0,0.25,95,136.0
4034,B3,430.25,0.25,63,136.0
4035,B1,430.5,0.25,79,136.0
4036,E-3,430.5,0.25,79,136.0
4037,B1,430.75,0.25,87,136.0
4038,B3,430.75,0.25,87,136.0
4039,A2,431.0,0.75,111,136.0
4040,E2,431.0,0.25,79,136.0
4041,E-3,431.0,0.25,79,136.0
4042,E-3,431.5,0.25,63,136.0
4043,B2,431.75,0.25,79,136.0
4044,B4,432.0,3.0,79,136.0
4045,B2,432.0,0.25,63,136.0
4046,E-3,432.0,0.25,79,136.0
4047,B2,432.25,0.25,79,136.0
4048,B3,432.25,0.25,79,136.0
4049,B2,432.5,0.25,79,136.0
4050,B5,432.5,1.5,123,136.0
4051,B3,432.5,1.5,123,136.0
4052,B4,432.5,1.5,123,136.0
4053,B2,432.5,1.5,123,136.0
4054,B1,432.75,0.75,95,136.0
4055,B1,432.75,0.25,79,136.0
4056,B3,432.75,0.25,79,136.0
4057,D5,432.792,333/1000,47,136.0
4058,E2,433.0,0.25,95,136.0
4059,F#5,433.125,333/1000,47,136.0
4060,B1,433.25,0.25,71,136.0
4061,B3,433.25,0.25,71,136.0
4062,E-5,433.458,21/500,47,136.0
4063,B2,433.5,0.25,95,136.0
4064,E-3,433.5,0.25,79,136.0
4065,E-5,433.5,4.0,47,136.0
4066,F#2,433.75,0.25,79,136.0
4067,C3,434.0,3.875,63,136.0
4068,A2,434.0,0.75,111,136.0
4069,E-3,434.0,0.25,79,136.0
4070,D5,434.0,3.75,75,136.0
4071,B4,434.0,3.75,75,136.0
4072,G4,434.0,3.75,75,136.0
4073,E4,434.0,3.75,75,136.0
4074,B3,434.25,0.25,63,136.0
4075,E-3,434.5,0.25,79,136.0
4076,B2,434.75,0.5,95,136.0
4077,E2,435.0,0.25,95,136.0
4078,F#5,435.167,0.375,111,136.0
4079,B2,435.25,0.25,79,136.0
4080,E2,435.25,0.25,95,136.0
4081,E2,435.5,0.25,95,136.0
4082,E-3,435.5,0.25,63,136.0
4083,F#4,435.542,0.625,127,136.0
4084,F#2,435.75,0.25,95,136.0
4085,A4,436.0,0.75,95,136.0
4086,A1,436.0,0.75,111,136.0
4087,B1,436.0,0.25,111,136.0
4088,C#3,436.0,0.25,111,136.0
4089,A2,436.542,0.5,127,136.0
4090,A5,436.542,0.625,127,136.0
4091,A4,436.542,0.625,127,136.0
4092,A3,436.542,0.625,127,136.0
4093,B4,436.75,2.75,79,136.0
4094,B1,436.75,1.0,111,136.0
4095,B1,436.75,0.25,111,136.0
4096,A3,436.75,0.25,111,136.0
4097,B4,437.167,0.125,127,136.0
4098,B5,437.292,1.5,127,136.0
4099,B3,437.292,1.625,111,136.0
4100,B2,437.292,1.625,111,136.0
4101,E-3,437.5,0.25,63,136.0
4102,D5,437.5,4.0,47,136.0
4103,B2,437.75,2.0,95,136.0
4104,E-3,438.0,0.25,79,136.0
4105,B-4,438.0,4.0,87,136.0
4106,F#4,438.0,4.0,87,136.0
4107,C#4,438.0,4.0,87,136.0
4108,B2,438.0,4.0,87,136.0
4109,B3,438.25,0.25,63,136.0
4110,E-3,438.5,0.25,63,136.0
4111,E2,438.875,0.125,95,136.0
4112,E2,439.0,0.25,87,136.0
4113,E-3,439.0,0.25,87,136.0
4114,B1,439.25,0.25,95,136.0
4115,E-3,439.5,0.25,63,136.0
4116,G3,439.75,0.25,79,136.0
4117,B3,440.0,0.25,79,136.0
4118,B1,440.0,0.25,95,136.0
4119,C#3,440.0,0.25,95,136.0
4120,E4,440.25,0.25,79,136.0
4121,E2,440.25,0.25,95,136.0
4122,F#4,440.5,0.25,79,136.0
4123,F#2,440.5,0.25,95,136.0
4124,E-3,440.5,0.25,63,136.0
4125,B4,440.542,0.25,111,136.0
4126,B4,440.75,0.25,79,136.0
4127,B2,440.75,0.25,95,136.0
4128,E5,440.792,0.25,111,136.0
4129,C5,441.0,0.25,79,136.0
4130,C3,441.0,0.25,95,136.0
4131,E-3,441.0,0.25,47,136.0
4132,F#5,441.042,0.25,111,136.0
4133,E5,441.25,0.25,79,136.0
4134,E3,441.25,0.25,95,136.0
4135,B3,441.25,0.25,63,136.0
4136,B5,441.292,0.25,111,136.0
4137,F#5,441.5,0.25,79,136.0
4138,F#3,441.5,0.25,111,136.0
4139,B4,441.5,4.0,47,136.0
4140,C6,441.542,0.25,111,136.0
4141,A5,441.75,0.25,79,136.0
4142,A3,441.75,0.25,95,136.0
4143,B3,441.75,0.25,63,136.0
4144,E6,441.792,0.25,111,136.0
4145,D6,442.0,0.25,79,136.0
4146,D4,442.0,0.25,111,136.0
4147,E-3,442.0,0.25,63,136.0
4148,F#6,442.042,0.25,111,136.0
4149,A5,442.25,0.25,79,136.0
4150,A3,442.25,0.25,95,136.0
4151,A6,442.292,0.25,111,136.0
4152,F#5,442.5,0.25,79,136.0
4153,F#3,442.5,0.25,111,136.0
4154,E-3,442.5,0.25,63,136.0
4155,E5,442.75,0.25,79,136.0
4156,E3,442.75,0.25,95,136.0
4157,A6,442.792,0.25,111,136.0
4158,C5,443.0,0.25,79,136.0
4159,C3,443.0,0.25,95,136.0
4160,E-3,443.0,0.25,79,136.0
4161,F#6,443.042,0.25,111,136.0
4162,B4,443.25,0.25,79,136.0
4163,B2,443.25,0.25,95,136.0
4164,B3,443.25,0.25,63,136.0
4165,E6,443.292,0.25,111,136.0
4166,F#4,443.5,0.25,79,136.0
4167,F#2,443.5,0.25,95,136.0
4168,E-3,443.5,0.25,63,136.0
4169,C6,443.542,0.25,111,136.0
4170,E4,443.75,0.25,79,136.0
4171,B1,443.75,0.25,79,136.0
4172,B5,443.792,0.25,111,136.0
4173,E3,444.0,4.0,47,136.0
4174,E-5,444.0,4.0,39,136.0
4175,B-4,444.0,4.0,39,136.0
4176,F#4,444.0,4.0,39,136.0
4177,E-4,444.0,4.0,39,136.0
4178,B1,444.0,0.25,71,136.0
4179,E-3,444.0,0.25,71,136.0
4180,F#5,444.042,0.25,111,136.0
4181,E5,444.292,26/125,111,136.0
4182,E5,444.5,21/500,111,136.0
4183,E-3,444.5,0.25,63,136.0
4184,E-3,445.0,0.25,63,136.0
4185,B3,445.25,0.25,63,136.0
4186,B2,445.5,0.5,111,136.0
4187,E-3,445.5,0.25,47,136.0
4188,B-4,445.5,979/500,63,136.0
4189,F#3,446.0,0.5,111,136.0
4190,E-3,446.0,0.25,63,136.0
4191,B-4,446.0,4.0,87,136.0
4192,F#4,446.0,4.0,87,136.0
4193,C#4,446.0,4.0,87,136.0
4194,B2,446.0,4.0,87,136.0
4195,B3,446.25,0.25,63,136.0
4196,G#3,446.5,0.25,111,136.0
4197,E-3,446.5,0.25,47,136.0
4198,B2,446.75,1.25,111,136.0
4199,E-3,447.0,0.25,63,136.0
4200,F5,447.458,1.5,63,136.0
4201,E-3,447.5,0.25,63,136.0
4202,B1,447.75,0.25,71,136.0
4203,B3,447.75,0.25,71,136.0
4204,B2,448.0,3.875,111,136.0
4205,B1,448.0,0.25,63,136.0
4206,E-3,448.0,0.25,63,136.0
4207,E-3,448.5,0.25,63,136.0
4208,C#5,448.958,271/500,63,136.0
4209,E2,449.0,0.25,55,136.0
4210,E-3,449.0,0.25,55,136.0
4211,B3,449.25,0.25,63,136.0
4212,C#5,449.5,979/500,63,136.0
4213,B3,449.75,0.25,63,136.0
4214,E-3,450.0,0.25,63,136.0
4215,A4,450.0,4.0,79,136.0
4216,F#4,450.0,4.0,79,136.0
4217,D4,450.0,4.0,79,136.0
4218,B3,450.0,4.0,79,136.0
4219,G2,450.0,4.0,79,136.0
4220,E-3,450.5,0.25,63,136.0
4221,E2,451.0,0.25,63,136.0
4222,E-3,451.0,0.25,63,136.0
4223,B1,451.25,0.25,55,136.0
4224,B3,451.25,0.25,55,136.0
4225,G#5,451.458,2.0,63,136.0
4226,E-3,451.5,0.25,63,136.0
4227,E3,451.75,3.875,47,136.0
4228,E-5,451.75,3.75,39,136.0
4229,B-4,451.75,3.75,39,136.0
4230,F#4,451.75,3.75,39,136.0
4231,E-4,451.75,3.75,39,136.0
4232,B1,452.0,0.25,71,136.0
4233,E-3,452.0,0.25,71,136.0
4234,E-3,452.5,0.25,63,136.0
4235,E2,452.75,0.25,63,136.0
4236,E2,453.0,0.25,63,136.0
4237,E-3,453.0,0.25,63,136.0
4238,B3,453.25,0.25,63,136.0
4239,A5,453.458,21/500,63,136.0
4240,C3,453.5,0.5,111,136.0
4241,A5,453.5,4.0,63,136.0
4242,B3,453.75,0.25,63,136.0
4243,F#3,454.0,0.5,127,136.0
4244,B3,454.25,0.25,63,136.0
4245,G3,454.5,0.25,111,136.0
4246,E-3,454.5,0.25,47,136.0
4247,B3,454.75,0.25,63,136.0
4248,G3,454.875,1.125,111,136.0
4249,E-3,455.0,0.25,47,136.0
4250,E-3,455.5,0.25,63,136.0
4251,C3,455.75,4.0,31,136.0
4252,D5,455.75,4.0,43,136.0
4253,B4,455.75,4.0,43,136.0
4254,G4,455.75,4.0,43,136.0
4255,E4,455.75,4.0,43,136.0
4256,G3,456.0,4.0,111,136.0
4257,E-3,456.0,0.25,63,136.0
4258,B3,456.25,0.25,63,136.0
4259,B1,456.75,0.25,71,136.0
4260,B3,456.75,0.25,71,136.0
4261,E2,457.0,0.25,63,136.0
4262,B3,457.25,0.25,47,136.0
4263,E-3,457.5,0.25,79,136.0
4264,A5,457.5,4.0,63,136.0
4265,E2,457.75,0.25,63,136.0
4266,A4,458.0,4.0,79,136.0
4267,F#4,458.0,4.0,79,136.0
4268,D4,458.0,4.0,79,136.0
4269,B3,458.0,4.0,79,136.0
4270,G2,458.0,4.0,79,136.0
4271,E2,458.0,0.25,63,136.0
4272,E-3,458.0,0.25,63,136.0
4273,B3,458.25,0.25,63,136.0
4274,E-3,458.5,0.25,63,136.0
4275,B1,459.0,0.25,63,136.0
4276,E-3,459.0,0.25,63,136.0
4277,E-3,459.5,0.125,63,136.0
4278,E2,459.75,0.25,63,136.0
4279,B1,460.0,0.25,71,136.0
4280,E-3,460.0,0.25,71,136.0
4281,E-3,460.5,0.25,63,136.0
4282,E-3,461.0,0.25,63,136.0
4283,B3,461.25,0.25,63,136.0
4284,E-3,461.5,0.25,47,136.0
4285,A4,461.5,0.75,63,136.0
4286,E-3,462.0,0.25,63,136.0
4287,B4,462.0,4.0,83,136.0
4288,F#4,462.0,4.0,83,136.0
4289,D4,462.0,4.0,83,136.0
4290,E3,462.0,4.0,83,136.0
4291,B3,462.25,0.25,63,136.0
4292,B4,462.25,3.25,63,136.0
4293,B3,462.375,0.5,127,136.0
4294,E-3,462.5,0.25,47,136.0
4295,E-3,463.0,0.25,63,136.0
4296,B-3,463.042,333/1000,111,136.0
4297,F#3,463.375,333/1000,95,136.0
4298,C3,463.5,3.875,31,136.0
4299,E-3,463.5,0.25,63,136.0
4300,D5,463.5,3.75,43,136.0
4301,B4,463.5,3.75,43,136.0
4302,G4,463.5,3.75,43,136.0
4303,E4,463.5,3.75,43,136.0
4304,E-3,463.708,0.25,95,136.0
4305,B1,463.75,0.25,71,136.0
4306,B3,463.75,0.25,71,136.0
4307,B1,464.0,0.25,63,136.0
4308,E-3,464.0,0.25,63,136.0
4309,B-3,464.042,333/1000,95,136.0
4310,G#3,464.375,2.75,95,136.0
4311,E-3,464.5,0.25,63,136.0
4312,E2,465.0,0.25,55,136.0
4313,E-3,465.0,0.25,55,136.0
4314,B3,465.25,0.25,63,136.0
4315,B4,465.5,4.0,63,136.0
4316,B3,465.75,0.25,63,136.0
4317,E-3,466.0,0.25,63,136.0
4318,B-4,466.0,3.625,90,136.0
4319,F#4,466.0,3.625,90,136.0
4320,E-4,466.0,3.625,90,136.0
4321,E-3,466.5,0.25,63,136.0
4322,E2,467.0,0.25,63,136.0
4323,E-3,467.0,0.25,63,136.0
4324,B1,467.25,0.25,55,136.0
4325,B3,467.25,0.25,55,136.0
4326,F#3,467.375,333/1000,111,136.0
4327,E-3,467.5,0.25,63,136.0
4328,B-4,467.5,4.0,43,136.0
4329,F#4,467.5,4.0,43,136.0
4330,C#4,467.5,4.0,43,136.0
4331,B2,467.5,4.0,43,136.0
4332,G#3,467.708,0.25,95,136.0
4333,B1,468.0,0.25,71,136.0
4334,E-3,468.0,0.25,71,136.0
4335,A3,468.042,0.375,111,136.0
4336,E-3,468.5,0.25,63,136.0
4337,E2,468.75,0.25,63,136.0
4338,D4,468.792,0.25,111,136.0
4339,E2,469.0,0.25,63,136.0
4340,E-3,469.0,0.25,63,136.0
4341,B3,469.25,0.25,63,136.0
4342,A4,469.5,0.75,63,136.0
4343,E3,469.542,1229/500,111,136.0
4344,B3,469.75,0.25,63,136.0
4345,B4,470.0,4.0,75,136.0
4346,G4,470.0,4.0,75,136.0
4347,D4,470.0,4.0,75,136.0
4348,C3,470.0,4.0,75,136.0
4349,B3,470.25,0.25,63,136.0
4350,B4,470.25,3.25,63,136.0
4351,E-3,470.5,0.25,47,136.0
4352,B3,470.75,0.25,63,136.0
4353,E-3,471.0,0.25,47,136.0
4354,E-3,471.5,0.25,63,136.0
4355,E3,472.0,1021/500,111,136.0
4356,E-3,472.0,0.25,63,136.0
4357,B3,472.25,0.25,63,136.0
4358,B1,472.75,0.25,71,136.0
4359,B3,472.75,0.25,71,136.0
4360,E2,473.0,0.25,63,136.0
4361,B3,473.25,0.25,47,136.0
4362,E-3,473.5,0.25,79,136.0
4363,B4,473.5,4.0,63,136.0
4364,E2,473.75,0.25,63,136.0
4365,B4,474.0,3.625,74,136.0
4366,G4,474.0,3.625,74,136.0
4367,E4,474.0,3.625,74,136.0
4368,E2,474.0,0.25,63,136.0
4369,E-3,474.0,0.25,63,136.0
4370,B3,474.25,0.25,63,136.0
4371,E-3,474.5,0.25,63,136.0
4372,F#3,474.667,0.375,111,136.0
4373,B1,475.0,0.25,63,136.0
4374,E-3,475.0,0.25,63,136.0
4375,F#3,475.167,0.375,111,136.0
4376,E-3,475.5,0.125,63,136.0
4377,B-4,475.5,4.0,43,136.0
4378,F#4,475.5,4.0,43,136.0
4379,C#4,475.5,4.0,43,136.0
4380,B2,475.5,4.0,43,136.0
4381,A3,475.667,333/1000,95,136.0
4382,E2,475.75,0.25,63,136.0
4383,A3,476.0,21/500,95,136.0
4384,B1,476.0,0.25,71,136.0
4385,E-3,476.0,0.25,71,136.0
4386,F#3,476.042,1.875,111,136.0
4387,E-3,476.5,0.25,63,136.0
4388,E-3,477.0,0.25,63,136.0
4389,B3,477.25,0.25,63,136.0
4390,E-3,477.5,0.25,47,136.0
4391,A4,477.5,0.75,79,136.0
4392,E-3,478.0,0.25,63,136.0
4393,B-4,478.0,2.0,79,136.0
4394,F#4,478.0,2.0,79,136.0
4395,E-4,478.0,2.0,79,136.0
4396,B2,478.0,2.0,79,136.0
4397,G2,478.042,0.25,79,136.0
4398,B3,478.25,0.25,63,136.0
4399,B4,478.25,3.25,63,136.0
4400,A3,478.292,0.25,111,136.0
4401,E-3,478.5,0.25,47,136.0
4402,F#3,478.542,0.25,47,136.0
4403,D3,478.792,0.25,63,136.0
4404,E-3,479.0,0.25,63,136.0
4405,F3,479.042,0.25,111,136.0
4406,C#3,479.292,0.25,95,136.0
4407,E-3,479.5,0.25,63,136.0
4408,A4,479.5,4.0,44,136.0
4409,F#4,479.5,4.0,44,136.0
4410,D4,479.5,4.0,44,136.0
4411,B3,479.5,4.0,44,136.0
4412,G2,479.5,4.0,44,136.0
4413,E3,479.542,0.25,95,136.0
4414,B1,479.75,0.25,71,136.0
4415,B3,479.75,0.25,71,136.0
4416,C3,479.792,26/125,95,136.0
4417,C3,480.0,21/500,95,136.0
4418,F5,480.0,1.375,79,136.0
4419,C#5,480.0,1.375,79,136.0
4420,B-4,480.0,1.375,79,136.0
4421,B1,480.0,0.25,63,136.0
4422,E-3,480.0,0.25,63,136.0
4423,E-3,480.042,0.25,111,136.0
4424,B2,480.292,0.25,79,136.0
4425,E-3,480.5,0.25,63,136.0
4426,B-2,480.542,0.25,95,136.0
4427,F#2,480.792,0.25,63,136.0
4428,E2,481.0,0.25,55,136.0
4429,E-3,481.0,0.25,55,136.0
4430,G#2,481.042,0.25,111,136.0
4431,B3,481.25,0.25,63,136.0
4432,E-3,481.292,0.25,79,136.0
4433,B3,481.5,0.25,31,136.0
4434,C#5,481.5,0.5,90,136.0
4435,B-4,481.5,0.5,90,136.0
4436,F#4,481.5,0.5,90,136.0
4437,C#3,481.542,1229/500,111,136.0
4438,B3,481.75,0.25,63,136.0
4439,E4,481.75,0.25,31,136.0
4440,E-3,482.0,0.25,63,136.0
4441,F#4,482.0,0.25,31,136.0
4442,C#5,482.0,1.75,90,136.0
4443,B-4,482.0,1.75,90,136.0
4444,F#4,482.0,1.75,90,136.0
4445,B4,482.25,0.25,31,136.0
4446,E-3,482.5,0.25,63,136.0
4447,C5,482.5,0.25,31,136.0
4448,E5,482.75,0.25,31,136.0
4449,F#5,483.0,0.25,31,136.0
4450,E2,483.0,0.25,63,136.0
4451,E-3,483.0,0.25,63,136.0
4452,A5,483.25,0.25,31,136.0
4453,B1,483.25,0.25,55,136.0
4454,B3,483.25,0.25,55,136.0
4455,E-3,483.5,0.25,63,136.0
4456,D6,483.5,0.25,31,136.0
4457,A5,483.75,0.25,31,136.0
4458,C#3,484.0,21/500,111,136.0
4459,F#5,484.0,0.25,31,136.0
4460,G#5,484.0,1.625,90,136.0
4461,F5,484.0,1.625,90,136.0
4462,C#5,484.0,1.625,90,136.0
4463,B1,484.0,0.25,71,136.0
4464,E-3,484.0,0.25,71,136.0
4465,E5,484.25,0.25,31,136.0
4466,E-3,484.5,0.25,63,136.0
4467,C5,484.5,0.25,31,136.0
4468,E2,484.75,0.25,63,136.0
4469,B4,484.75,0.25,31,136.0
4470,F#4,485.0,0.25,31,136.0
4471,E2,485.0,0.25,63,136.0
4472,E-3,485.0,0.25,63,136.0
4473,A2,485.042,0.25,111,136.0
4474,B3,485.25,0.25,63,136.0
4475,E4,485.25,0.25,31,136.0
4476,B2,485.292,0.25,95,136.0
4477,C3,485.542,0.25,111,136.0
4478,B3,485.75,0.25,63,136.0
4479,A5,485.75,0.25,95,136.0
4480,F#5,485.75,0.25,95,136.0
4481,D5,485.75,0.25,95,136.0
4482,G2,485.75,0.25,95,136.0
4483,D3,485.792,0.25,95,136.0
4484,A5,486.0,4.0,95,136.0
4485,F#5,486.0,4.0,95,136.0
4486,D5,486.0,4.0,95,136.0
4487,G2,486.0,4.0,95,136.0
4488,E3,486.042,0.25,111,136.0
4489,B3,486.25,0.25,63,136.0
4490,D3,486.292,0.25,63,136.0
4491,E-3,486.5,0.25,47,136.0
4492,E3,486.542,0.25,111,136.0
4493,B3,486.75,0.25,63,136.0
4494,G3,486.792,0.25,111,136.0
4495,E-3,487.0,0.25,47,136.0
4496,B2,487.042,0.625,111,136.0
4497,E-3,487.5,0.25,63,136.0
4498,A4,487.5,4.0,44,136.0
4499,F#4,487.5,4.0,44,136.0
4500,D4,487.5,4.0,44,136.0
4501,B3,487.5,4.0,44,136.0
4502,G2,487.5,4.0,44,136.0
4503,A2,487.667,333/1000,79,136.0
4504,A2,488.0,521/500,79,136.0
4505,E-3,488.0,0.25,63,136.0
4506,B3,488.25,0.25,63,136.0
4507,B1,488.75,0.25,71,136.0
4508,B3,488.75,0.25,71,136.0
4509,E2,489.0,0.25,63,136.0
4510,B3,489.25,0.25,47,136.0
4511,E-3,489.5,0.25,79,136.0
4512,E2,489.75,0.25,63,136.0
4513,A3,489.792,0.25,127,136.0
4514,E2,490.0,0.25,63,136.0
4515,E-3,490.0,0.25,63,136.0
4516,B3,490.25,0.25,63,136.0
4517,F#3,490.292,0.25,95,136.0
4518,E-3,490.5,0.25,63,136.0
4519,E3,490.542,0.25,79,136.0
4520,D3,490.792,0.25,95,136.0
4521,B1,491.0,0.25,63,136.0
4522,E-3,491.0,0.25,63,136.0
4523,G3,491.042,0.25,111,136.0
4524,E3,491.292,0.25,79,136.0
4525,E-3,491.5,0.125,63,136.0
4526,B4,491.5,4.0,47,136.0
4527,F#4,491.5,4.0,47,136.0
4528,D4,491.5,4.0,47,136.0
4529,E3,491.5,4.0,47,136.0
4530,D3,491.542,0.25,79,136.0
4531,E2,491.75,0.25,63,136.0
4532,C3,491.792,26/125,79,136.0
4533,B-4,492.0,979/500,63,136.0
4534,C3,492.0,21/500,79,136.0
4535,B1,492.0,0.25,79,136.0
4536,E-3,492.0,0.25,79,136.0
4537,G#3,492.042,0.25,127,136.0
4538,F3,492.292,0.25,95,136.0
4539,E-3,492.5,0.25,63,136.0
4540,E-3,492.542,0.25,79,136.0
4541,C#3,492.792,0.25,95,136.0
4542,E2,493.0,0.25,79,136.0
4543,E-3,493.0,0.25,79,136.0
4544,F#3,493.042,0.25,111,136.0
4545,B3,493.25,0.25,63,136.0
4546,E-3,493.292,0.25,79,136.0
4547,E-3,493.5,0.25,63,136.0
4548,C#3,493.542,0.25,79,136.0
4549,B1,493.75,0.25,95,136.0
4550,B2,493.792,0.25,79,136.0
4551,F5,493.958,1.25,63,136.0
4552,A5,494.0,4.0,95,136.0
4553,F#5,494.0,4.0,95,136.0
4554,D5,494.0,4.0,95,136.0
4555,G2,494.0,4.0,95,136.0
4556,B1,494.0,0.25,87,136.0
4557,E-3,494.0,0.25,87,136.0
4558,B-2,494.042,0.25,63,136.0
4559,B3,494.25,0.25,63,136.0
4560,E-3,494.292,0.25,111,136.0
4561,E2,494.5,0.25,63,136.0
4562,E-3,494.5,0.25,63,136.0
4563,C#3,494.542,0.25,111,136.0
4564,B-2,494.792,0.25,95,136.0
4565,E-3,495.0,0.25,63,136.0
4566,G#2,495.042,479/500,79,136.0
4567,C#5,495.458,271/500,63,136.0
4568,B-4,495.5,3.625,47,136.0
4569,F#4,495.5,3.625,47,136.0
4570,E-4,495.5,3.625,47,136.0
4571,B1,495.5,0.25,79,136.0
4572,E-3,495.5,0.25,79,136.0
4573,B3,495.75,0.25,63,136.0
4574,C#5,496.0,979/500,63,136.0
4575,G#2,496.0,1.0,79,136.0
4576,E-3,496.0,0.25,47,136.0
4577,B1,496.5,0.25,71,136.0
4578,E-3,496.5,0.25,71,136.0
4579,B1,496.75,0.25,79,136.0
4580,E2,497.0,0.25,71,136.0
4581,E-3,497.0,0.25,71,136.0
4582,B3,497.25,0.25,63,136.0
4583,B3,497.75,0.25,63,136.0
4584,G#5,497.958,1.875,63,136.0
4585,A4,498.0,0.625,87,136.0
4586,E4,498.0,0.625,87,136.0
4587,D4,498.0,0.625,87,136.0
4588,A2,498.0,0.625,87,136.0
4589,B1,498.0,0.25,79,136.0
4590,E-3,498.0,0.25,79,136.0
4591,E-3,498.5,0.25,63,136.0
4592,B4,498.75,3.25,87,136.0
4593,F#4,498.75,3.25,87,136.0
4594,E4,498.75,3.25,87,136.0
4595,B2,498.75,3.25,87,136.0
4596,G#3,498.792,0.25,127,136.0
4597,E2,499.0,0.25,71,136.0
4598,E-3,499.0,0.25,71,136.0
4599,F3,499.042,0.25,95,136.0
4600,B3,499.25,0.25,79,136.0
4601,C#3,499.292,0.25,95,136.0
4602,B4,499.5,4.0,43,136.0
4603,G4,499.5,4.0,43,136.0
4604,D4,499.5,4.0,43,136.0
4605,C3,499.5,4.0,43,136.0
4606,E-3,499.542,0.25,63,136.0
4607,C#3,499.75,0.25,79,136.0
4608,B1,499.75,0.25,79,136.0
4609,F3,499.792,26/125,111,136.0
4610,A5,499.958,21/500,47,136.0
4611,A5,500.0,4.0,47,136.0
4612,F3,500.0,21/500,111,136.0
4613,F#3,500.042,0.25,111,136.0
4614,B3,500.292,0.25,127,136.0
4615,E-3,500.5,0.25,63,136.0
4616,A3,500.542,0.25,111,136.0
4617,B1,500.75,0.25,95,136.0
4618,F#3,500.792,0.25,95,136.0
4619,E2,501.0,0.25,71,136.0
4620,E-3,501.0,0.25,71,136.0
4621,E3,501.042,0.5,111,136.0
4622,E2,501.25,0.25,71,136.0
4623,B3,501.25,0.25,71,136.0
4624,F#3,501.542,0.25,95,136.0
4625,B3,501.75,0.25,63,136.0
4626,D3,501.792,0.25,111,136.0
4627,B1,502.0,0.25,95,136.0
4628,B4,502.0,4.0,87,136.0
4629,F#4,502.0,4.0,87,136.0
4630,E4,502.0,4.0,87,136.0
4631,B2,502.0,4.0,87,136.0
4632,B3,502.25,0.25,63,136.0
4633,E3,502.292,0.25,111,136.0
4634,E-3,502.5,0.25,63,136.0
4635,A2,502.542,729/500,95,136.0
4636,E2,502.75,0.25,71,136.0
4637,B3,502.75,0.25,71,136.0
4638,E2,503.0,0.25,63,136.0
4639,E-3,503.0,0.25,63,136.0
4640,B4,503.5,3.625,42,136.0
4641,G4,503.5,3.625,42,136.0
4642,E4,503.5,3.625,42,136.0
4643,B1,503.5,0.25,79,136.0
4644,E-3,503.5,0.25,79,136.0
4645,A5,504.0,1.0,47,136.0
4646,A2,504.0,521/500,95,136.0
4647,E-3,504.0,0.25,63,136.0
4648,B3,504.25,0.25,63,136.0
4649,B1,504.75,0.25,79,136.0
4650,B3,504.75,0.25,79,136.0
4651,E2,505.0,0.25,79,136.0
4652,B3,505.25,0.25,47,136.0
4653,E-3,505.5,0.25,79,136.0
4654,E-3,506.0,0.25,79,136.0
4655,A4,506.0,0.625,95,136.0
4656,E4,506.0,0.625,95,136.0
4657,D4,506.0,0.625,95,136.0
4658,A2,506.0,0.625,95,136.0
4659,E3,506.042,0.25,127,136.0
4660,B3,506.25,0.25,63,136.0
4661,F#3,506.292,0.25,111,136.0
4662,E-3,506.5,0.25,63,136.0
4663,D3,506.542,0.25,111,136.0
4664,B4,506.75,3.25,83,136.0
4665,F#4,506.75,3.25,83,136.0
4666,E4,506.75,3.25,83,136.0
4667,B2,506.75,3.25,83,136.0
4668,E3,506.792,0.25,111,136.0
4669,E2,507.0,0.75,79,136.0
4670,B1,507.0,0.75,79,136.0
4671,E2,507.0,0.75,79,136.0
4672,B2,507.042,0.25,127,136.0
4673,D3,507.292,0.25,95,136.0
4674,B-4,507.5,2.0,47,136.0
4675,F#4,507.5,2.0,47,136.0
4676,E-4,507.5,2.0,47,136.0
4677,B2,507.5,2.0,47,136.0
4678,A2,507.542,0.25,95,136.0
4679,B3,507.75,0.25,79,136.0
4680,B2,507.792,26/125,79,136.0
4681,A5,508.0,21/500,95,136.0
4682,B5,508.0,0.75,95,136.0
4683,B2,508.0,21/500,79,136.0
4684,B1,508.0,0.25,95,136.0
4685,C#3,508.0,0.25,95,136.0
4686,A1,508.042,0.75,127,136.0
4687,B4,508.75,1.375,79,136.0
4688,B1,508.75,0.25,95,136.0
4689,A3,508.75,0.25,95,136.0
4690,B1,508.792,0.75,111,136.0
4691,E-3,509.5,0.25,63,136.0
4692,F5,509.5,1.375,42,136.0
4693,C#5,509.5,1.375,42,136.0
4694,B-4,509.5,1.375,42,136.0
4695,B2,509.542,1.5,127,136.0
4696,E-3,510.0,0.25,79,136.0
4697,B4,510.0,4.0,83,136.0
4698,F#4,510.0,4.0,83,136.0
4699,E4,510.0,4.0,83,136.0
4700,B2,510.0,4.0,83,136.0
4701,B3,510.25,0.25,63,136.0
4702,E-3,510.5,0.25,47,136.0
4703,C#5,511.0,0.5,52,136.0
4704,B-4,511.0,0.5,52,136.0
4705,F#4,511.0,0.5,52,136.0
4706,E2,511.0,0.25,71,136.0
4707,E-3,511.0,0.25,71,136.0
4708,A2,511.042,0.25,127,136.0
4709,B2,511.292,0.25,111,136.0
4710,E-3,511.5,0.25,63,136.0
4711,C#5,511.5,1.75,52,136.0
4712,B-4,511.5,1.75,52,136.0
4713,F#4,511.5,1.75,52,136.0
4714,F#2,511.542,0.25,111,136.0
4715,B3,511.75,0.25,63,136.0
4716,A2,511.792,26/125,111,136.0
4717,A2,512.0,21/500,111,136.0
4718,B1,512.0,0.25,71,136.0
4719,E-3,512.0,0.25,71,136.0
4720,E2,512.042,0.25,127,136.0
4721,F#2,512.292,0.25,95,136.0
4722,E-3,512.5,0.25,63,136.0
4723,D2,512.542,0.25,111,136.0
4724,B1,512.75,0.25,95,136.0
4725,E2,513.0,0.25,71,136.0
4726,E-3,513.0,0.25,71,136.0
4727,E2,513.25,0.25,71,136.0
4728,B3,513.25,0.25,71,136.0
4729,G#5,513.5,1.625,58,136.0
4730,F5,513.5,1.625,58,136.0
4731,C#5,513.5,1.625,58,136.0
4732,B3,513.75,0.25,63,136.0
4733,A4,514.0,0.75,95,136.0
4734,E4,514.0,0.75,95,136.0
4735,D4,514.0,0.75,95,136.0
4736,A2,514.0,0.75,95,136.0
4737,B1,514.0,0.25,79,136.0
4738,E-3,514.0,0.25,79,136.0
4739,E-3,514.5,0.25,63,136.0
4740,E2,514.75,0.25,79,136.0
4741,B4,514.75,3.25,87,136.0
4742,F#4,514.75,3.25,87,136.0
4743,E4,514.75,3.25,87,136.0
4744,B2,514.75,3.25,87,136.0
4745,E2,515.0,0.25,71,136.0
4746,E-3,515.0,0.25,71,136.0
4747,B3,515.25,0.25,47,136.0
4748,A5,515.25,0.25,55,136.0
4749,F#5,515.25,0.25,55,136.0
4750,D5,515.25,0.25,55,136.0
4751,G2,515.25,0.25,55,136.0
4752,E-3,515.5,0.25,79,136.0
4753,A5,515.5,4.0,55,136.0
4754,F#5,515.5,4.0,55,136.0
4755,D5,515.5,4.0,55,136.0
4756,G2,515.5,4.0,55,136.0
4757,A5,516.0,21/500,95,136.0
4758,B1,516.0,0.25,103,136.0
4759,A3,516.0,0.25,103,136.0
4760,B5,516.042,0.75,95,136.0
4761,B1,516.75,0.25,95,136.0
4762,C#3,516.75,0.25,95,136.0
4763,B4,516.792,1.375,79,136.0
4764,B3,517.25,0.25,63,136.0
4765,B3,517.75,0.25,63,136.0
4766,B3,518.0,0.25,111,136.0
4767,B1,518.0,0.25,95,136.0
4768,E4,518.25,0.25,111,136.0
4769,B3,518.25,0.25,63,136.0
4770,F#4,518.5,0.25,111,136.0
4771,B1,518.5,0.25,79,136.0
4772,E-3,518.5,0.25,79,136.0
4773,B4,518.75,0.25,111,136.0
4774,B1,518.75,0.25,79,136.0
4775,B3,518.75,0.25,79,136.0
4776,C5,519.0,0.25,111,136.0
4777,E2,519.0,0.25,63,136.0
4778,E-3,519.0,0.25,63,136.0
4779,E5,519.25,0.25,111,136.0
4780,F#5,519.5,0.25,111,136.0
4781,E-3,519.5,0.25,63,136.0
4782,A5,519.75,0.25,111,136.0
4783,D6,520.0,0.25,127,136.0
4784,E-3,520.0,0.25,63,136.0
4785,A5,520.25,0.25,111,136.0
4786,B3,520.25,0.25,63,136.0
4787,F#3,520.292,0.25,111,136.0
4788,F#5,520.5,0.25,111,136.0
4789,E5,520.75,0.25,111,136.0
4790,B1,520.75,0.25,79,136.0
4791,B3,520.75,0.25,79,136.0
4792,E3,520.792,0.25,111,136.0
4793,C5,521.0,0.25,111,136.0
4794,E2,521.0,0.25,79,136.0
4795,B4,521.25,0.25,111,136.0
4796,B1,521.25,0.25,71,136.0
4797,B3,521.25,0.25,71,136.0
4798,D3,521.292,0.25,111,136.0
4799,F#4,521.5,0.25,111,136.0
4800,E-3,521.5,0.25,79,136.0
4801,B2,521.542,0.25,95,136.0
4802,E4,521.75,0.25,111,136.0
4803,E3,521.792,0.25,111,136.0
4804,E3,522.0,4.0,63,136.0
4805,E-3,522.0,0.25,79,136.0
4806,E-5,522.0,4.0,87,136.0
4807,B-4,522.0,4.0,87,136.0
4808,F#4,522.0,4.0,87,136.0
4809,E-4,522.0,4.0,87,136.0
4810,D3,522.042,0.25,111,136.0
4811,B3,522.25,0.25,63,136.0
4812,B2,522.292,0.25,95,136.0
4813,E-3,522.5,0.25,79,136.0
4814,A2,522.542,0.25,111,136.0
4815,D3,522.792,0.25,95,136.0
4816,E2,523.0,0.25,79,136.0
4817,B2,523.042,0.25,111,136.0
4818,E2,523.25,0.25,79,136.0
4819,A2,523.292,0.25,111,136.0
4820,E-3,523.5,0.25,63,136.0
4821,A5,523.5,4.0,55,136.0
4822,F#5,523.5,4.0,55,136.0
4823,D5,523.5,4.0,55,136.0
4824,G2,523.5,4.0,55,136.0
4825,F#2,523.542,0.25,111,136.0
4826,E2,523.792,26/125,95,136.0
4827,A5,523.917,21/500,95,136.0
4828,B5,523.958,21/500,95,136.0
4829,B5,524.0,0.75,95,136.0
4830,E2,524.0,21/500,95,136.0
4831,B1,524.0,0.25,111,136.0
4832,C#3,524.0,0.25,111,136.0
4833,D2,524.042,0.25,111,136.0
4834,E2,524.292,0.25,95,136.0
4835,F#2,524.542,0.25,111,136.0
4836,B4,524.75,1.375,79,136.0
4837,B1,524.75,0.25,95,136.0
4838,A3,524.75,0.25,95,136.0
4839,D2,524.792,0.25,95,136.0
4840,B1,525.042,0.25,95,136.0
4841,B1,525.292,0.25,63,136.0
4842,E-3,525.5,0.25,63,136.0
4843,A1,525.542,0.375,111,136.0
4844,E-3,526.0,0.25,79,136.0
4845,B3,526.25,0.25,63,136.0
4846,E-3,526.5,0.25,47,136.0
4847,E2,526.875,0.125,95,136.0
4848,E2,527.0,0.25,79,136.0
4849,E-3,527.0,0.25,79,136.0
4850,B1,527.25,0.25,95,136.0
4851,E-3,527.5,0.25,63,136.0
4852,A4,527.5,0.625,51,136.0
4853,E4,527.5,0.625,51,136.0
4854,D4,527.5,0.625,51,136.0
4855,A2,527.5,0.625,51,136.0
4856,G3,527.75,0.25,63,136.0
4857,C#3,528.0,0.25,95,136.0
4858,B4,528.25,3.25,51,136.0
4859,F#4,528.25,3.25,51,136.0
4860,E4,528.25,3.25,51,136.0
4861,B2,528.25,3.25,51,136.0
4862,E-3,528.5,0.25,47,136.0
4863,E-3,529.0,0.25,47,136.0
4864,B3,529.25,0.25,63,136.0
4865,E3,529.75,3.875,63,136.0
4866,B3,529.75,0.25,63,136.0
4867,E-5,529.75,3.75,87,136.0
4868,B-4,529.75,3.75,87,136.0
4869,F#4,529.75,3.75,87,136.0
4870,E-4,529.75,3.75,87,136.0
4871,E-3,530.0,0.25,63,136.0
4872,E-3,530.5,0.25,63,136.0
4873,E-3,531.0,0.25,63,136.0
4874,B3,531.25,0.25,47,136.0
4875,E-3,531.5,0.25,63,136.0
4876,B4,531.5,4.0,51,136.0
4877,F#4,531.5,4.0,51,136.0
4878,E4,531.5,4.0,51,136.0
4879,B2,531.5,4.0,51,136.0
4880,B1,532.0,0.25,79,136.0
4881,E-3,532.0,0.25,79,136.0
4882,E-3,532.5,0.25,63,136.0
4883,E-3,533.0,0.25,79,136.0
4884,B3,533.25,0.25,63,136.0
4885,E-3,533.5,0.25,63,136.0
4886,E3,533.542,0.375,127,136.0
4887,C3,533.75,4.0,63,136.0
4888,D5,533.75,4.0,75,136.0
4889,B4,533.75,4.0,75,136.0
4890,G4,533.75,4.0,75,136.0
4891,E4,533.75,4.0,75,136.0
4892,E-3,534.0,0.25,79,136.0
4893,E-3,534.042,0.5,127,136.0
4894,B3,534.25,0.25,63,136.0
4895,E-3,534.5,0.25,47,136.0
4896,E-3,534.542,0.5,111,136.0
4897,E-3,535.0,0.25,63,136.0
4898,B2,535.042,0.5,111,136.0
4899,E-3,535.5,0.25,63,136.0
4900,A4,535.5,0.625,55,136.0
4901,E4,535.5,0.625,55,136.0
4902,D4,535.5,0.625,55,136.0
4903,A2,535.5,0.625,55,136.0
4904,C#3,535.542,0.25,127,136.0
4905,B1,535.75,0.25,71,136.0
4906,B3,535.75,0.25,71,136.0
4907,B1,536.0,0.25,63,136.0
4908,E-3,536.0,0.25,63,136.0
4909,B2,536.042,333/1000,127,136.0
4910,B4,536.25,3.25,47,136.0
4911,F#4,536.25,3.25,47,136.0
4912,E4,536.25,3.25,47,136.0
4913,B2,536.25,3.25,47,136.0
4914,G#2,536.375,333/1000,111,136.0
4915,E-3,536.5,0.25,63,136.0
4916,F#2,536.708,1.625,111,136.0
4917,E2,537.0,0.25,63,136.0
4918,E-3,537.0,0.25,63,136.0
4919,B3,537.25,0.25,63,136.0
4920,B3,537.75,0.25,63,136.0
4921,E-3,538.0,0.25,63,136.0
4922,F#3,538.458,0.25,119,136.0
4923,F#3,538.458,0.25,119,136.0
4924,E-3,538.5,0.25,63,136.0
4925,E-3,538.708,0.25,111,136.0
4926,C#3,538.958,0.25,111,136.0
4927,E2,539.0,0.25,63,136.0
4928,E-3,539.0,0.25,63,136.0
4929,B2,539.208,0.25,111,136.0
4930,B1,539.25,0.25,63,136.0
4931,B3,539.25,0.25,63,136.0
4932,G#2,539.458,0.25,111,136.0
4933,E-3,539.5,0.25,63,136.0
4934,B4,539.5,4.0,47,136.0
4935,F#4,539.5,4.0,47,136.0
4936,E4,539.5,4.0,47,136.0
4937,B2,539.5,4.0,47,136.0
4938,F#2,539.708,0.25,95,136.0
4939,A1,539.958,21/500,95,136.0
4940,A1,540.0,0.25,95,136.0
4941,B1,540.0,0.25,79,136.0
4942,E-3,540.0,0.25,79,136.0
4943,B1,540.25,0.5,95,136.0
4944,E-3,540.5,0.25,63,136.0
4945,A2,540.75,0.25,127,136.0
4946,E2,540.75,0.25,63,136.0
4947,F#2,541.0,0.25,111,136.0
4948,E2,541.0,0.25,63,136.0
4949,E-3,541.0,0.25,63,136.0
4950,G2,541.25,0.25,95,136.0
4951,B3,541.25,0.25,63,136.0
4952,C3,541.5,3.875,63,136.0
4953,D3,541.5,0.25,127,136.0
4954,D5,541.5,3.75,75,136.0
4955,B4,541.5,3.75,75,136.0
4956,G4,541.5,3.75,75,136.0
4957,E4,541.5,3.75,75,136.0
4958,B2,541.75,0.25,95,136.0
4959,B3,541.75,0.25,63,136.0
4960,C3,542.0,0.25,111,136.0
4961,E2,542.25,0.25,95,136.0
4962,B3,542.25,0.25,63,136.0
4963,B2,542.5,1.5,127,136.0
4964,E-3,542.5,0.25,47,136.0
4965,B3,542.75,0.25,63,136.0
4966,E-3,543.0,0.25,47,136.0
4967,E-3,543.5,0.25,63,136.0
4968,A4,543.5,0.75,55,136.0
4969,E4,543.5,0.75,55,136.0
4970,D4,543.5,0.75,55,136.0
4971,A2,543.5,0.75,55,136.0
4972,B2,544.0,1.0,127,136.0
4973,E-3,544.0,0.25,63,136.0
4974,B3,544.25,0.25,63,136.0
4975,B4,544.25,3.25,51,136.0
4976,F#4,544.25,3.25,51,136.0
4977,E4,544.25,3.25,51,136.0
4978,B2,544.25,3.25,51,136.0
4979,B1,544.75,0.25,71,136.0
4980,B3,544.75,0.25,71,136.0
4981,E2,545.0,0.25,63,136.0
4982,B3,545.25,0.25,47,136.0
4983,E-3,545.5,0.25,79,136.0
4984,B-4,545.5,4.0,75,136.0
4985,F#4,545.5,4.0,75,136.0
4986,C#4,545.5,4.0,75,136.0
4987,B2,545.5,4.0,75,136.0
4988,B2,545.75,0.25,95,136.0
4989,E2,545.75,0.25,63,136.0
4990,E2,546.0,0.25,71,136.0
4991,E-3,546.0,0.25,71,136.0
4992,C3,546.25,0.25,95,136.0
4993,B3,546.25,0.25,63,136.0
4994,E-3,546.5,0.25,63,136.0
4995,D3,546.75,0.25,111,136.0
4996,E3,547.0,0.375,127,136.0
4997,B1,547.0,0.25,71,136.0
4998,E-3,547.0,0.25,71,136.0
4999,B3,547.5,0.25,63,136.0
5000,D3,547.5,0.25,111,136.0
5001,E-3,547.5,0.125,63,136.0
5002,E4,547.75,0.25,63,136.0
5003,C3,547.75,0.25,95,136.0
5004,E2,547.75,0.25,63,136.0
5005,G#4,548.0,4.0,47,136.0
5006,F#4,548.0,0.25,63,136.0
5007,E-3,548.0,333/1000,111,136.0
5008,B1,548.0,0.25,79,136.0
5009,E-3,548.0,0.25,79,136.0
5010,B4,548.25,0.25,63,136.0
5011,G#3,548.458,0.25,111,136.0
5012,C5,548.5,0.25,63,136.0
5013,E-3,548.5,0.25,63,136.0
5014,E-3,548.708,0.25,95,136.0
5015,E5,548.75,0.25,63,136.0
5016,C#3,548.958,0.375,95,136.0
5017,F#5,549.0,0.25,63,136.0
5018,E-3,549.0,0.25,79,136.0
5019,A5,549.25,0.25,63,136.0
5020,B3,549.25,0.25,63,136.0
5021,E-3,549.458,0.25,95,136.0
5022,D6,549.5,0.25,79,136.0
5023,E-3,549.5,0.25,63,136.0
5024,B2,549.708,0.375,95,136.0
5025,A5,549.75,0.25,63,136.0
5026,F#5,550.0,0.25,63,136.0
5027,E-3,550.0,0.25,79,136.0
5028,E-3,550.208,0.25,95,136.0
5029,E5,550.25,0.25,63,136.0
5030,B3,550.25,0.25,63,136.0
5031,B-2,550.458,0.5,127,136.0
5032,C5,550.5,0.25,63,136.0
5033,E-3,550.5,0.25,47,136.0
5034,B4,550.75,0.25,63,136.0
5035,G#2,550.958,521/500,79,136.0
5036,F#4,551.0,0.25,63,136.0
5037,E-3,551.0,0.25,63,136.0
5038,E4,551.25,0.25,63,136.0
5039,E3,551.5,4.0,47,136.0
5040,E-3,551.5,0.25,63,136.0
5041,E-5,551.5,4.0,39,136.0
5042,B-4,551.5,4.0,39,136.0
5043,F#4,551.5,4.0,39,136.0
5044,E-4,551.5,4.0,39,136.0
5045,B1,551.75,0.25,71,136.0
5046,B3,551.75,0.25,71,136.0
5047,G#2,552.0,1.0,79,136.0
5048,B1,552.0,0.25,63,136.0
5049,E-3,552.0,0.25,63,136.0
5050,E-3,552.5,0.25,63,136.0
5051,E2,553.0,0.25,63,136.0
5052,E-3,553.0,0.25,63,136.0
5053,F3,553.25,0.25,111,136.0
5054,B3,553.25,0.25,63,136.0
5055,B-4,553.5,4.0,75,136.0
5056,F#4,553.5,4.0,75,136.0
5057,C#4,553.5,4.0,75,136.0
5058,B2,553.5,4.0,75,136.0
5059,G#3,553.75,0.25,127,136.0
5060,B3,553.75,0.25,63,136.0
5061,F#3,554.0,0.25,95,136.0
5062,E-3,554.0,0.25,63,136.0
5063,C#3,554.25,0.25,95,136.0
5064,B2,554.5,0.25,95,136.0
5065,E-3,554.5,0.25,63,136.0
5066,F#3,554.75,0.25,127,136.0
5067,E-3,555.0,0.25,95,136.0
5068,E2,555.0,0.25,63,136.0
5069,E-3,555.0,0.25,63,136.0
5070,B2,555.25,0.25,95,136.0
5071,B1,555.25,0.25,63,136.0
5072,B3,555.25,0.25,63,136.0
5073,B-2,555.5,0.25,95,136.0
5074,E-3,555.5,0.25,63,136.0
5075,G#2,555.75,0.25,95,136.0
5076,D5,556.0,4.0,47,136.0
5077,G2,556.0,0.25,79,136.0
5078,B1,556.0,0.25,79,136.0
5079,E-3,556.0,0.25,79,136.0
5080,E3,556.25,0.25,127,136.0
5081,D3,556.5,0.25,79,136.0
5082,E-3,556.5,0.25,63,136.0
5083,B2,556.75,0.25,79,136.0
5084,E2,556.75,0.25,63,136.0
5085,F#3,557.0,0.25,127,136.0
5086,E2,557.0,0.25,63,136.0
5087,E-3,557.0,0.25,63,136.0
5088,E3,557.25,0.25,79,136.0
5089,B3,557.25,0.25,63,136.0
5090,D3,557.5,0.25,79,136.0
5091,A4,557.5,4.0,66,136.0
5092,F#4,557.5,4.0,66,136.0
5093,D4,557.5,4.0,66,136.0
5094,B3,557.5,4.0,66,136.0
5095,G2,557.5,4.0,66,136.0
5096,B2,557.75,0.25,79,136.0
5097,B3,557.75,0.25,63,136.0
5098,A2,558.0,0.25,127,136.0
5099,D3,558.25,0.25,111,136.0
5100,B3,558.25,0.25,63,136.0
5101,B2,558.5,1.5,79,136.0
5102,E-3,558.5,0.25,47,136.0
5103,B3,558.75,0.25,63,136.0
5104,E-3,559.0,0.25,47,136.0
5105,E3,559.25,3.875,47,136.0
5106,E-5,559.25,3.75,39,136.0
5107,B-4,559.25,3.75,39,136.0
5108,F#4,559.25,3.75,39,136.0
5109,E-4,559.25,3.75,39,136.0
5110,E-3,559.5,0.25,63,136.0
5111,B2,560.0,1.0,79,136.0
5112,E-3,560.0,0.25,63,136.0
5113,B3,560.25,0.25,63,136.0
5114,B1,560.75,0.25,71,136.0
5115,B3,560.75,0.25,71,136.0
5116,E2,561.0,0.25,63,136.0
5117,B3,561.25,0.25,47,136.0
5118,E-3,561.5,0.25,79,136.0
5119,E2,561.75,0.25,63,136.0
5120,E2,562.0,0.25,71,136.0
5121,E-3,562.0,0.25,71,136.0
5122,B3,562.25,0.25,63,136.0
5123,E-3,562.5,0.25,63,136.0
5124,B1,563.0,0.25,71,136.0
5125,E-3,563.0,0.25,71,136.0
5126,C3,563.25,4.0,31,136.0
5127,D5,563.25,4.0,43,136.0
5128,B4,563.25,4.0,43,136.0
5129,G4,563.25,4.0,43,136.0
5130,E4,563.25,4.0,43,136.0
5131,E1,563.5,0.25,127,136.0
5132,E-3,563.5,0.125,63,136.0
5133,E1,563.75,0.25,111,136.0
5134,E2,563.75,0.25,63,136.0
5135,G1,564.0,0.25,111,136.0
5136,B1,564.0,0.25,79,136.0
5137,E-3,564.0,0.25,79,136.0
5138,A1,564.25,0.25,111,136.0
5139,E-3,564.5,0.25,63,136.0
5140,D2,564.75,0.25,95,136.0
5141,E2,565.0,0.25,63,136.0
5142,E-3,565.0,0.25,79,136.0
5143,G2,565.25,0.25,95,136.0
5144,B3,565.25,0.25,63,136.0
5145,A2,565.5,0.25,95,136.0
5146,E-3,565.5,0.25,63,136.0
5147,A4,565.5,4.0,66,136.0
5148,F#4,565.5,4.0,66,136.0
5149,D4,565.5,4.0,66,136.0
5150,B3,565.5,4.0,66,136.0
5151,G2,565.5,4.0,66,136.0
5152,B2,565.75,0.25,95,136.0
5153,C#3,566.0,0.25,111,136.0
5154,E-3,566.0,0.25,79,136.0
5155,E3,566.25,0.25,95,136.0
5156,B3,566.25,0.25,63,136.0
5157,F#3,566.5,0.25,111,136.0
5158,E-3,566.5,0.25,47,136.0
5159,G#3,566.75,0.25,95,136.0
5160,A3,567.0,0.25,127,136.0
5161,E-3,567.0,0.25,63,136.0
5162,F#3,567.25,0.25,95,136.0
5163,E3,567.5,0.25,111,136.0
5164,E-3,567.5,0.25,63,136.0
5165,D3,567.75,0.25,95,136.0
5166,B1,567.75,0.25,71,136.0
5167,B3,567.75,0.25,71,136.0
5168,C#3,568.0,0.25,111,136.0
5169,B1,568.0,0.25,63,136.0
5170,E-3,568.0,0.25,63,136.0
5171,E-3,568.25,0.25,47,136.0
5172,F#3,568.5,0.25,111,136.0
5173,E-3,568.5,0.25,63,136.0
5174,E-3,568.75,0.25,95,136.0
5175,E-4,569.0,2.0,63,136.0
5176,C#3,569.0,0.25,95,136.0
5177,E2,569.0,0.25,63,136.0
5178,E-3,569.0,0.25,63,136.0
5179,B2,569.25,0.25,95,136.0
5180,B3,569.25,0.25,63,136.0
5181,G#2,569.5,0.25,95,136.0
5182,B4,569.5,4.0,71,136.0
5183,F#4,569.5,4.0,71,136.0
5184,D4,569.5,4.0,71,136.0
5185,E3,569.5,4.0,71,136.0
5186,C#3,569.75,0.25,111,136.0
5187,B3,569.75,0.25,63,136.0
5188,B-2,570.0,0.25,79,136.0
5189,E-3,570.0,0.25,63,136.0
5190,F#2,570.25,0.25,63,136.0
5191,E-2,570.5,0.5,79,136.0
5192,E-3,570.5,0.25,63,136.0
5193,C3,571.0,3.875,31,136.0
5194,G#2,571.0,0.25,47,136.0
5195,D5,571.0,3.75,43,136.0
5196,B4,571.0,3.75,43,136.0
5197,G4,571.0,3.75,43,136.0
5198,E4,571.0,3.75,43,136.0
5199,E2,571.0,0.25,63,136.0
5200,E-3,571.0,0.25,63,136.0
5201,B2,571.25,0.25,79,136.0
5202,B1,571.25,0.25,63,136.0
5203,B3,571.25,0.25,63,136.0
5204,C#3,571.5,0.25,95,136.0
5205,E-3,571.5,0.25,63,136.0
5206,E-3,571.75,0.25,79,136.0
5207,A4,572.0,3.0,63,136.0
5208,E3,572.0,0.25,79,136.0
5209,B1,572.0,0.25,79,136.0
5210,E-3,572.0,0.25,79,136.0
5211,F#3,572.25,0.25,95,136.0
5212,G3,572.5,0.25,127,136.0
5213,E-3,572.5,0.25,63,136.0
5214,D3,572.75,0.25,79,136.0
5215,E2,572.75,0.25,63,136.0
5216,B2,573.0,0.25,63,136.0
5217,E2,573.0,0.25,63,136.0
5218,E-3,573.0,0.25,63,136.0
5219,G3,573.25,0.25,127,136.0
5220,B3,573.25,0.25,63,136.0
5221,E3,573.5,0.25,79,136.0
5222,B-4,573.5,3.625,79,136.0
5223,F#4,573.5,3.625,79,136.0
5224,E-4,573.5,3.625,79,136.0
5225,C3,573.75,0.25,63,136.0
5226,B3,573.75,0.25,63,136.0
5227,B2,574.0,0.25,63,136.0
5228,E3,574.25,0.25,111,136.0
5229,B3,574.25,0.25,63,136.0
5230,D3,574.5,0.25,95,136.0
5231,E-3,574.5,0.25,47,136.0
5232,B2,574.75,0.25,79,136.0
5233,B3,574.75,0.25,63,136.0
5234,A2,575.0,1.0,95,136.0
5235,E-3,575.0,0.25,47,136.0
5236,B-4,575.0,4.0,43,136.0
5237,F#4,575.0,4.0,43,136.0
5238,C#4,575.0,4.0,43,136.0
5239,B2,575.0,4.0,43,136.0
5240,E-3,575.5,0.25,63,136.0
5241,E4,576.0,3.0,63,136.0
5242,A2,576.0,1.0,95,136.0
5243,E-3,576.0,0.25,63,136.0
5244,B3,576.25,0.25,63,136.0
5245,B1,576.75,0.25,71,136.0
5246,B3,576.75,0.25,71,136.0
5247,E2,577.0,0.25,63,136.0
5248,B3,577.25,0.25,47,136.0
5249,G2,577.5,0.25,79,136.0
5250,E-3,577.5,0.25,79,136.0
5251,B4,577.5,4.0,63,136.0
5252,G4,577.5,4.0,63,136.0
5253,D4,577.5,4.0,63,136.0
5254,C3,577.5,4.0,63,136.0
5255,E3,577.75,0.25,111,136.0
5256,E2,577.75,0.25,63,136.0
5257,D3,578.0,0.25,111,136.0
5258,E2,578.0,0.25,71,136.0
5259,E-3,578.0,0.25,71,136.0
5260,B2,578.25,0.25,79,136.0
5261,B3,578.25,0.25,63,136.0
5262,A2,578.5,0.25,111,136.0
5263,E-3,578.5,0.25,63,136.0
5264,G2,578.75,0.25,79,136.0
5265,D2,579.0,0.25,79,136.0
5266,B1,579.0,0.25,71,136.0
5267,E-3,579.0,0.25,71,136.0
5268,C2,579.25,0.25,79,136.0
5269,B1,579.5,0.25,95,136.0
5270,E-3,579.5,0.125,63,136.0
5271,A1,579.75,0.25,79,136.0
5272,E2,579.75,0.25,63,136.0
5273,G#4,580.0,729/500,95,136.0
5274,G#1,580.0,0.25,127,136.0
5275,B1,580.0,0.25,87,136.0
5276,E-3,580.0,0.25,87,136.0
5277,E-2,580.25,0.25,79,136.0
5278,C#2,580.5,0.25,111,136.0
5279,E-3,580.5,0.25,79,136.0
5280,G#2,580.75,0.25,95,136.0
5281,F#2,581.0,0.25,127,136.0
5282,E2,581.0,0.25,79,136.0
5283,E-3,581.0,0.25,79,136.0
5284,C#3,581.25,0.25,95,136.0
5285,B3,581.25,0.25,79,136.0
5286,B2,581.5,0.25,111,136.0
5287,E-3,581.5,0.25,63,136.0
5288,B4,581.5,3.625,68,136.0
5289,G4,581.5,3.625,68,136.0
5290,E4,581.5,3.625,68,136.0
5291,F#2,581.75,0.25,95,136.0
5292,B1,581.75,0.25,95,136.0
5293,F4,581.958,1.25,95,136.0
5294,B-2,582.0,0.25,111,136.0
5295,B1,582.0,0.25,87,136.0
5296,E-3,582.0,0.25,87,136.0
5297,G#2,582.25,0.25,79,136.0
5298,B3,582.25,0.25,63,136.0
5299,F#2,582.5,0.25,95,136.0
5300,E2,582.5,0.25,71,136.0
5301,E-3,582.5,0.25,71,136.0
5302,E-2,582.75,0.25,79,136.0
5303,C#2,583.0,0.25,95,136.0
5304,E-3,583.0,0.25,63,136.0
5305,B-4,583.0,4.0,43,136.0
5306,F#4,583.0,4.0,43,136.0
5307,C#4,583.0,4.0,43,136.0
5308,B2,583.0,4.0,43,136.0
5309,G#4,583.208,99/125,95,136.0
5310,F2,583.25,0.25,79,136.0
5311,E-2,583.5,0.25,95,136.0
5312,B1,583.5,0.25,79,136.0
5313,E-3,583.5,0.25,79,136.0
5314,F2,583.75,0.25,79,136.0
5315,B3,583.75,0.25,63,136.0
5316,G#4,584.0,229/500,95,136.0
5317,F#2,584.0,0.25,95,136.0
5318,E-3,584.0,0.25,47,136.0
5319,G#2,584.25,0.25,79,136.0
5320,B-2,584.5,0.25,95,136.0
5321,B1,584.5,0.25,87,136.0
5322,E-3,584.5,0.25,87,136.0
5323,C#3,584.75,0.25,79,136.0
5324,B1,584.75,0.25,95,136.0
5325,C#2,585.0,0.25,79,136.0
5326,E2,585.0,0.25,71,136.0
5327,E-3,585.0,0.25,71,136.0
5328,F2,585.25,0.25,63,136.0
5329,B3,585.25,0.25,79,136.0
5330,G#2,585.5,0.25,111,136.0
5331,B-4,585.5,2.0,67,136.0
5332,F#4,585.5,2.0,67,136.0
5333,E-4,585.5,2.0,67,136.0
5334,B2,585.5,2.0,67,136.0
5335,G2,585.75,0.25,95,136.0
5336,B3,585.75,0.25,63,136.0
5337,C4,585.958,0.625,95,136.0
5338,F#2,586.0,333/1000,111,136.0
5339,B1,586.0,0.25,79,136.0
5340,E-3,586.0,0.25,79,136.0
5341,G#2,586.333,333/1000,95,136.0
5342,E-3,586.5,0.25,63,136.0
5343,F4,586.583,0.625,95,136.0
5344,B-2,586.667,333/1000,95,136.0
5345,B-2,587.0,333/1000,111,136.0
5346,A4,587.0,4.0,44,136.0
5347,F#4,587.0,4.0,44,136.0
5348,D4,587.0,4.0,44,136.0
5349,B3,587.0,4.0,44,136.0
5350,G2,587.0,4.0,44,136.0
5351,E2,587.0,0.25,71,136.0
5352,E-3,587.0,0.25,71,136.0
5353,G#4,587.208,0.5,95,136.0
5354,B3,587.25,0.25,95,136.0
5355,C#3,587.333,333/1000,95,136.0
5356,F5,587.5,1.375,68,136.0
5357,C#5,587.5,1.375,68,136.0
5358,B-4,587.5,1.375,68,136.0
5359,E-3,587.667,333/1000,95,136.0
5360,A4,587.708,73/250,79,136.0
5361,C#3,587.75,0.25,79,136.0
5362,B1,587.75,0.25,79,136.0
5363,A4,588.0,4.0,79,136.0
5364,E3,588.0,0.25,111,136.0
5365,A2,588.292,333/1000,95,136.0
5366,E-3,588.5,0.25,63,136.0
5367,G2,588.625,333/1000,95,136.0
5368,B1,588.75,0.25,95,136.0
5369,F#3,588.958,333/1000,111,136.0
5370,C#5,589.0,0.5,79,136.0
5371,B-4,589.0,0.5,79,136.0
5372,F#4,589.0,0.5,79,136.0
5373,E2,589.0,0.25,79,136.0
5374,E-3,589.0,0.25,79,136.0
5375,E2,589.25,0.25,71,136.0
5376,B3,589.25,0.25,71,136.0
5377,B2,589.292,333/1000,95,136.0
5378,C#5,589.5,1.75,79,136.0
5379,B-4,589.5,1.75,79,136.0
5380,F#4,589.5,1.75,79,136.0
5381,G2,589.625,333/1000,95,136.0
5382,B3,589.75,0.25,79,136.0
5383,A3,589.958,333/1000,111,136.0
5384,B1,590.0,0.25,95,136.0
5385,B3,590.25,0.25,63,136.0
5386,D3,590.292,333/1000,95,136.0
5387,E-3,590.5,0.25,63,136.0
5388,G2,590.625,333/1000,95,136.0
5389,E2,590.75,0.25,79,136.0
5390,B3,590.75,0.25,79,136.0
5391,B3,590.958,333/1000,111,136.0
5392,E2,591.0,0.25,63,136.0
5393,E-3,591.0,0.25,63,136.0
5394,E3,591.292,333/1000,95,136.0
5395,G#5,591.5,1.625,74,136.0
5396,F5,591.5,1.625,74,136.0
5397,C#5,591.5,1.625,74,136.0
5398,B1,591.5,0.25,79,136.0
5399,E-3,591.5,0.25,79,136.0
5400,G2,591.625,333/1000,95,136.0
5401,D4,591.958,21/500,111,136.0
5402,D4,592.0,0.25,111,136.0
5403,E-3,592.0,0.25,63,136.0
5404,B3,592.25,0.25,63,136.0
5405,G3,592.292,333/1000,95,136.0
5406,G2,592.625,333/1000,95,136.0
5407,B1,592.75,0.25,79,136.0
5408,B3,592.75,0.25,79,136.0
5409,B3,592.958,333/1000,111,136.0
5410,E2,593.0,0.25,95,136.0
5411,B3,593.25,0.25,47,136.0
5412,A5,593.25,0.25,79,136.0
5413,F#5,593.25,0.25,79,136.0
5414,D5,593.25,0.25,79,136.0
5415,G2,593.25,0.25,79,136.0
5416,E3,593.292,333/1000,95,136.0
5417,E-3,593.5,0.25,79,136.0
5418,A5,593.5,4.0,79,136.0
5419,F#5,593.5,4.0,79,136.0
5420,D5,593.5,4.0,79,136.0
5421,G2,593.5,4.0,79,136.0
5422,G2,593.625,333/1000,95,136.0
5423,C#4,593.958,333/1000,111,136.0
5424,E-3,594.0,0.25,79,136.0
5425,B3,594.25,0.25,63,136.0
5426,F#3,594.292,333/1000,95,136.0
5427,E-3,594.5,0.25,63,136.0
5428,G2,594.625,333/1000,95,136.0
5429,A3,594.958,333/1000,111,136.0
5430,A4,595.0,4.0,44,136.0
5431,F#4,595.0,4.0,44,136.0
5432,D4,595.0,4.0,44,136.0
5433,B3,595.0,4.0,44,136.0
5434,G2,595.0,4.0,44,136.0
5435,E2,595.0,0.75,90,136.0
5436,B1,595.0,0.75,90,136.0
5437,E2,595.0,0.75,90,136.0
5438,D3,595.292,333/1000,95,136.0
5439,G2,595.625,333/1000,79,136.0
5440,B3,595.75,0.25,79,136.0
5441,E3,595.958,21/500,95,136.0
5442,A2,595.958,21/500,95,136.0
5443,A4,596.0,0.75,111,136.0
5444,E3,596.0,0.75,95,136.0
5445,A2,596.0,0.75,95,136.0
5446,B1,596.0,0.25,103,136.0
5447,C#3,596.0,0.25,103,136.0
5448,B4,596.75,3.25,95,136.0
5449,F#3,596.75,3.25,95,136.0
5450,B2,596.75,3.25,95,136.0
5451,B1,596.75,0.25,95,136.0
5452,A3,596.75,0.25,95,136.0
5453,E-3,597.5,0.25,63,136.0
5454,E-3,598.0,0.25,79,136.0
5455,B3,598.25,0.25,63,136.0
5456,E-3,598.5,0.25,63,136.0
5457,B4,599.0,4.0,47,136.0
5458,F#4,599.0,4.0,47,136.0
5459,D4,599.0,4.0,47,136.0
5460,E3,599.0,4.0,47,136.0
5461,E2,599.0,0.25,79,136.0
5462,E-3,599.0,0.25,79,136.0
5463,E-3,599.5,0.25,63,136.0
5464,B3,599.75,0.25,63,136.0
5465,B4,600.0,979/500,95,136.0
5466,B1,600.0,0.25,71,136.0
5467,E-3,600.0,0.25,71,136.0
5468,E-3,600.5,0.25,79,136.0
5469,B1,600.75,0.25,95,136.0
5470,E2,601.0,0.25,71,136.0
5471,E-3,601.0,0.25,71,136.0
5472,E2,601.25,0.25,79,136.0
5473,B3,601.25,0.25,79,136.0
5474,A5,601.5,4.0,79,136.0
5475,F#5,601.5,4.0,79,136.0
5476,D5,601.5,4.0,79,136.0
5477,G2,601.5,4.0,79,136.0
5478,B3,601.75,0.25,63,136.0
5479,B1,602.0,0.25,79,136.0
5480,E-3,602.0,0.25,79,136.0
5481,E-3,602.5,0.25,63,136.0
5482,E2,602.75,0.25,79,136.0
5483,B-4,603.0,3.625,47,136.0
5484,F#4,603.0,3.625,47,136.0
5485,E-4,603.0,3.625,47,136.0
5486,E2,603.0,0.25,71,136.0
5487,E-3,603.0,0.25,71,136.0
5488,B3,603.25,0.25,63,136.0
5489,E-3,603.5,0.25,79,136.0
5490,D5,603.958,21/500,111,136.0
5491,D5,604.0,0.75,111,136.0
5492,F#3,604.0,4.0,95,136.0
5493,B2,604.0,4.0,95,136.0
5494,B1,604.0,0.25,111,136.0
5495,A3,604.0,0.25,111,136.0
5496,E5,604.75,3.25,95,136.0
5497,B1,604.75,0.25,103,136.0
5498,C#3,604.75,0.25,103,136.0
5499,B3,605.25,0.25,63,136.0
5500,A4,605.5,0.625,83,136.0
5501,E4,605.5,0.625,83,136.0
5502,D4,605.5,0.625,83,136.0
5503,A2,605.5,0.625,83,136.0
5504,B3,605.75,0.25,79,136.0
5505,B1,606.0,0.25,95,136.0
5506,B3,606.25,0.25,63,136.0
5507,B4,606.25,3.25,75,136.0
5508,F#4,606.25,3.25,75,136.0
5509,E4,606.25,3.25,75,136.0
5510,B2,606.25,3.25,75,136.0
5511,B1,606.5,0.25,79,136.0
5512,E-3,606.5,0.25,79,136.0
5513,B1,606.75,0.25,87,136.0
5514,B3,606.75,0.25,87,136.0
5515,B4,607.0,4.0,43,136.0
5516,G4,607.0,4.0,43,136.0
5517,D4,607.0,4.0,43,136.0
5518,C3,607.0,4.0,43,136.0
5519,E2,607.0,0.25,71,136.0
5520,E-3,607.0,0.25,71,136.0
5521,E-3,607.5,0.25,63,136.0
5522,E5,608.0,1.0,95,136.0
5523,D3,608.0,0.75,111,136.0
5524,E-3,608.0,0.25,63,136.0
5525,B3,608.25,0.25,63,136.0
5526,E3,608.75,1.25,87,136.0
5527,E2,608.75,1.25,87,136.0
5528,B1,608.75,0.25,79,136.0
5529,B3,608.75,0.25,79,136.0
5530,E2,609.0,0.25,79,136.0
5531,B1,609.25,0.25,71,136.0
5532,B3,609.25,0.25,71,136.0
5533,E-3,609.5,0.25,79,136.0
5534,B4,609.5,4.0,75,136.0
5535,F#4,609.5,4.0,75,136.0
5536,E4,609.5,4.0,75,136.0
5537,B2,609.5,4.0,75,136.0
5538,E2,610.0,2.0,127,136.0
5539,E-3,610.0,0.25,79,136.0
5540,B3,610.25,0.25,63,136.0
5541,E-3,610.5,0.25,79,136.0
5542,E2,611.0,0.25,79,136.0
5543,B4,611.0,3.625,42,136.0
5544,G4,611.0,3.625,42,136.0
5545,E4,611.0,3.625,42,136.0
5546,E2,611.25,0.25,79,136.0
5547,E-3,611.5,0.25,63,136.0
5548,E5,612.0,0.75,111,136.0
5549,E2,612.0,4.0,127,136.0
5550,B1,612.0,0.25,111,136.0
5551,C#3,612.0,0.25,111,136.0
5552,F#5,612.75,3.25,111,136.0
5553,B1,612.75,0.25,103,136.0
5554,A3,612.75,0.25,103,136.0
5555,E-3,613.5,0.25,63,136.0
5556,A4,613.5,0.625,87,136.0
5557,E4,613.5,0.625,87,136.0
5558,D4,613.5,0.625,87,136.0
5559,A2,613.5,0.625,87,136.0
5560,E-3,614.0,0.25,79,136.0
5561,B3,614.25,0.25,63,136.0
5562,B4,614.25,3.25,75,136.0
5563,F#4,614.25,3.25,75,136.0
5564,E4,614.25,3.25,75,136.0
5565,B2,614.25,3.25,75,136.0
5566,E-3,614.5,0.25,63,136.0
5567,E2,614.875,0.125,95,136.0
5568,B-4,615.0,2.0,47,136.0
5569,F#4,615.0,2.0,47,136.0
5570,E-4,615.0,2.0,47,136.0
5571,B2,615.0,2.0,47,136.0
5572,E2,615.0,0.25,79,136.0
5573,E-3,615.0,0.25,79,136.0
5574,B1,615.25,0.25,95,136.0
5575,E-3,615.5,0.25,63,136.0
5576,G3,615.75,0.25,63,136.0
5577,A2,616.0,0.75,111,136.0
5578,C#3,616.0,0.25,95,136.0
5579,E-3,616.5,0.25,47,136.0
5580,B2,616.75,0.75,111,136.0
5581,E-3,617.0,0.25,47,136.0
5582,F5,617.0,1.375,42,136.0
5583,C#5,617.0,1.375,42,136.0
5584,B-4,617.0,1.375,42,136.0
5585,B3,617.25,0.25,63,136.0
5586,B3,617.5,2.5,95,136.0
5587,B4,617.5,4.0,75,136.0
5588,F#4,617.5,4.0,75,136.0
5589,E4,617.5,4.0,75,136.0
5590,B2,617.5,4.0,75,136.0
5591,B3,617.75,0.25,63,136.0
5592,E-3,618.0,0.25,63,136.0
5593,E-3,618.5,0.25,63,136.0
5594,C#5,618.5,0.5,52,136.0
5595,B-4,618.5,0.5,52,136.0
5596,F#4,618.5,0.5,52,136.0
5597,E-3,619.0,0.25,63,136.0
5598,C#5,619.0,1.75,52,136.0
5599,B-4,619.0,1.75,52,136.0
5600,F#4,619.0,1.75,52,136.0
5601,B3,619.25,0.25,63,136.0
5602,E-3,619.5,0.25,63,136.0
5603,E-5,620.0,4.0,79,136.0
5604,B2,620.0,0.25,111,136.0
5605,B1,620.0,0.25,71,136.0
5606,E-3,620.0,0.25,71,136.0
5607,E3,620.25,0.25,111,136.0
5608,F#3,620.5,0.25,111,136.0
5609,E-3,620.5,0.25,63,136.0
5610,E-6,620.542,1979/500,69,136.0
5611,E-5,620.542,1979/500,69,136.0
5612,B-4,620.542,1979/500,69,136.0
5613,F#4,620.542,1979/500,69,136.0
5614,E-4,620.542,1979/500,69,136.0
5615,B3,620.75,0.25,111,136.0
5616,C4,621.0,0.25,111,136.0
5617,E-3,621.0,0.25,63,136.0
5618,G#5,621.0,1.625,58,136.0
5619,F5,621.0,1.625,58,136.0
5620,C#5,621.0,1.625,58,136.0
5621,E4,621.25,0.25,111,136.0
5622,B3,621.25,0.25,63,136.0
5623,F#4,621.5,0.25,127,136.0
5624,E-3,621.5,0.25,47,136.0
5625,A4,621.5,0.75,87,136.0
5626,E4,621.5,0.75,87,136.0
5627,D4,621.5,0.75,87,136.0
5628,A2,621.5,0.75,87,136.0
5629,A4,621.75,0.25,111,136.0
5630,E-3,622.0,0.25,79,136.0
5631,A4,622.25,0.25,111,136.0
5632,B3,622.25,0.25,63,136.0
5633,B4,622.25,3.25,79,136.0
5634,F#4,622.25,3.25,79,136.0
5635,E4,622.25,3.25,79,136.0
5636,B2,622.25,3.25,79,136.0
5637,F#4,622.5,0.25,127,136.0
5638,E-3,622.5,0.25,47,136.0
5639,E4,622.75,0.25,111,136.0
5640,A5,622.75,0.25,55,136.0
5641,F#5,622.75,0.25,55,136.0
5642,D5,622.75,0.25,55,136.0
5643,G2,622.75,0.25,55,136.0
5644,C4,623.0,0.25,111,136.0
5645,E-3,623.0,0.25,63,136.0
5646,A5,623.0,4.0,55,136.0
5647,F#5,623.0,4.0,55,136.0
5648,D5,623.0,4.0,55,136.0
5649,G2,623.0,4.0,55,136.0
5650,B3,623.25,0.25,111,136.0
5651,F#3,623.5,0.25,111,136.0
5652,E-3,623.5,0.25,63,136.0
5653,B2,623.75,0.25,95,136.0
5654,B1,623.75,0.25,71,136.0
5655,B3,623.75,0.25,71,136.0
5656,E-5,624.0,1.25,79,136.0
5657,E2,624.0,4.0,111,136.0
5658,B1,624.0,0.25,63,136.0
5659,E-3,624.0,0.25,63,136.0
5660,E-3,624.5,0.25,63,136.0
5661,E-6,624.5,3667/1000,69,136.0
5662,E-5,624.5,3667/1000,69,136.0
5663,B-4,624.5,3667/1000,69,136.0
5664,F#4,624.5,3667/1000,69,136.0
5665,E-4,624.5,3667/1000,69,136.0
5666,E2,625.0,0.25,55,136.0
5667,E-3,625.0,0.25,55,136.0
5668,E5,625.25,0.125,31,136.0
5669,B3,625.25,0.25,63,136.0
5670,F5,625.375,0.125,31,136.0
5671,B3,625.5,0.25,95,136.0
5672,F#5,625.5,0.125,31,136.0
5673,G5,625.625,0.125,31,136.0
5674,E4,625.75,0.25,95,136.0
5675,G#5,625.75,0.125,47,136.0
5676,B3,625.75,0.25,63,136.0
5677,A5,625.875,0.125,47,136.0
5678,F#4,626.0,0.25,95,136.0
5679,B-5,626.0,0.875,79,136.0
5680,E-3,626.0,0.25,63,136.0
5681,B4,626.25,0.25,95,136.0
5682,C5,626.5,0.25,95,136.0
5683,E-3,626.5,0.25,63,136.0
5684,E5,626.75,0.25,95,136.0
5685,F#5,627.0,0.25,95,136.0
5686,E2,627.0,0.25,63,136.0
5687,E-3,627.0,0.25,63,136.0
5688,A5,627.25,0.25,95,136.0
5689,B1,627.25,0.25,55,136.0
5690,B3,627.25,0.25,55,136.0
5691,D6,627.5,0.25,111,136.0
5692,E-3,627.5,0.25,63,136.0
5693,A5,627.75,0.25,95,136.0
5694,F#5,628.0,0.25,95,136.0
5695,D5,628.0,1.75,79,136.0
5696,E2,628.0,979/500,111,136.0
5697,B1,628.0,0.25,71,136.0
5698,E-3,628.0,0.25,71,136.0
5699,E5,628.25,0.25,95,136.0
5700,G6,628.417,83/1000,95,136.0
5701,C5,628.5,0.25,95,136.0
5702,E-3,628.5,0.25,63,136.0
5703,E4,628.5,4.0,63,136.0
5704,D5,628.5,4.0,63,136.0
5705,B4,628.5,4.0,63,136.0
5706,G4,628.5,4.0,63,136.0
5707,B4,628.75,0.25,95,136.0
5708,E2,628.75,0.25,63,136.0
5709,F#4,629.0,0.25,95,136.0
5710,E2,629.0,0.25,63,136.0
5711,E-3,629.0,0.25,63,136.0
5712,E4,629.25,0.25,95,136.0
5713,B3,629.25,0.25,63,136.0
5714,E3,629.5,4.0,63,136.0
5715,E-5,629.5,4.0,87,136.0
5716,B-4,629.5,4.0,87,136.0
5717,F#4,629.5,4.0,87,136.0
5718,E-4,629.5,4.0,87,136.0
5719,D5,629.75,0.125,79,136.0
5720,B3,629.75,0.25,63,136.0
5721,D2,629.958,2.0,111,136.0
5722,D5,630.0,0.125,95,136.0
5723,D5,630.25,0.125,79,136.0
5724,B3,630.25,0.25,63,136.0
5725,D5,630.375,167/1000,95,136.0
5726,E-3,630.5,0.25,47,136.0
5727,D5,630.542,0.125,79,136.0
5728,D5,630.667,0.25,63,136.0
5729,B3,630.75,0.25,63,136.0
5730,D5,630.917,0.125,79,136.0
5731,E-3,631.0,0.25,47,136.0
5732,A5,631.0,4.0,55,136.0
5733,F#5,631.0,4.0,55,136.0
5734,D5,631.0,4.0,55,136.0
5735,G2,631.0,4.0,55,136.0
5736,E-5,631.042,0.125,63,136.0
5737,E5,631.167,0.125,63,136.0
5738,F5,631.292,0.125,63,136.0
5739,F#5,631.417,0.125,63,136.0
5740,E-3,631.5,0.25,63,136.0
5741,G5,631.542,0.125,63,136.0
5742,G#5,631.667,0.125,79,136.0
5743,A5,631.792,0.125,79,136.0
5744,B-5,631.917,83/1000,79,136.0
5745,C2,631.958,21/500,111,136.0
5746,B5,632.0,0.75,95,136.0
5747,B-5,632.0,21/500,79,136.0
5748,C2,632.0,3.75,111,136.0
5749,E-3,632.0,0.25,63,136.0
5750,B3,632.25,0.25,63,136.0
5751,B1,632.75,0.25,71,136.0
5752,B3,632.75,0.25,71,136.0
5753,B5,633.0,0.125,95,136.0
5754,E2,633.0,0.25,63,136.0
5755,B5,633.125,0.25,79,136.0
5756,B3,633.25,0.25,47,136.0
5757,B5,633.375,167/1000,95,136.0
5758,E-3,633.5,0.25,79,136.0
5759,B5,633.542,0.125,95,136.0
5760,B5,633.667,0.125,79,136.0
5761,E2,633.75,0.25,63,136.0
5762,B5,633.792,167/1000,95,136.0
5763,B5,633.958,0.125,95,136.0
5764,E2,634.0,0.25,63,136.0
5765,E-3,634.0,0.25,63,136.0
5766,B5,634.208,0.125,79,136.0
5767,B3,634.25,0.25,63,136.0
5768,B5,634.333,167/1000,95,136.0
5769,B5,634.5,0.125,95,136.0
5770,E-3,634.5,0.25,63,136.0
5771,B5,634.625,0.25,79,136.0
5772,B5,634.875,167/1000,95,136.0
5773,A4,635.0,0.625,51,136.0
5774,E4,635.0,0.625,51,136.0
5775,D4,635.0,0.625,51,136.0
5776,A2,635.0,0.625,51,136.0
5777,B1,635.0,0.25,63,136.0
5778,E-3,635.0,0.25,63,136.0
5779,B5,635.042,0.125,79,136.0
5780,B5,635.167,0.125,79,136.0
5781,B5,635.292,167/1000,79,136.0
5782,B5,635.458,0.125,79,136.0
5783,E-3,635.5,0.125,63,136.0
5784,B5,635.708,0.125,79,136.0
5785,E2,635.75,0.25,63,136.0
5786,B4,635.75,3.25,51,136.0
5787,F#4,635.75,3.25,51,136.0
5788,E4,635.75,3.25,51,136.0
5789,B2,635.75,3.25,51,136.0
5790,C4,635.75,0.25,55,136.0
5791,G3,635.75,0.25,55,136.0
5792,B5,635.833,167/1000,79,136.0
5793,B-5,636.0,0.125,95,136.0
5794,E4,636.0,3.5,63,136.0
5795,D5,636.0,3.5,63,136.0
5796,B4,636.0,3.5,63,136.0
5797,G4,636.0,3.5,63,136.0
5798,B1,636.0,0.25,71,136.0
5799,E-3,636.0,0.25,71,136.0
5800,B-5,636.125,0.25,95,136.0
5801,B-5,636.375,167/1000,95,136.0
5802,E-3,636.5,0.25,63,136.0
5803,B-5,636.542,0.125,95,136.0
5804,B-5,636.667,0.125,95,136.0
5805,B-5,636.792,167/1000,95,136.0
5806,B-5,636.958,0.125,95,136.0
5807,E-3,637.0,0.25,63,136.0
5808,B-5,637.208,0.125,95,136.0
5809,E3,637.25,3.875,63,136.0
5810,B3,637.25,0.25,63,136.0
5811,E-5,637.25,3.75,87,136.0
5812,B-4,637.25,3.75,87,136.0
5813,F#4,637.25,3.75,87,136.0
5814,E-4,637.25,3.75,87,136.0
5815,B-5,637.333,167/1000,95,136.0
5816,B-5,637.5,0.125,95,136.0
5817,E-3,637.5,0.25,47,136.0
5818,B-5,637.625,0.25,95,136.0
5819,B-5,637.875,167/1000,95,136.0
5820,E-3,638.0,0.25,79,136.0
5821,B-5,638.042,0.125,95,136.0
5822,B-5,638.167,0.125,79,136.0
5823,B3,638.25,0.25,63,136.0
5824,B-5,638.292,167/1000,95,136.0
5825,B-5,638.458,0.125,95,136.0
5826,E-3,638.5,0.25,47,136.0
5827,B-5,638.708,0.125,79,136.0
5828,B-5,638.833,0.125,95,136.0
5829,F#5,638.958,521/500,95,136.0
5830,E-3,639.0,0.25,63,136.0
5831,B4,639.0,4.0,51,136.0
5832,F#4,639.0,4.0,51,136.0
5833,E4,639.0,4.0,51,136.0
5834,B2,639.0,4.0,51,136.0
5835,E-3,639.5,0.25,63,136.0
5836,C4,639.75,3.75,55,136.0
5837,G3,639.75,3.75,55,136.0
5838,B1,639.75,0.25,71,136.0
5839,B3,639.75,0.25,71,136.0
5840,F#5,640.0,1.75,95,136.0
5841,B-4,640.0,4.0,68,136.0
5842,F#4,640.0,4.0,68,136.0
5843,C#4,640.0,4.0,68,136.0
5844,B1,640.0,0.25,63,136.0
5845,E-3,640.0,0.25,63,136.0
5846,E-3,640.5,0.25,63,136.0
5847,E2,641.0,0.25,55,136.0
5848,E-3,641.0,0.25,55,136.0
5849,C3,641.25,4.0,63,136.0
5850,B3,641.25,0.25,63,136.0
5851,D5,641.25,4.0,75,136.0
5852,B4,641.25,4.0,75,136.0
5853,G4,641.25,4.0,75,136.0
5854,E4,641.25,4.0,75,136.0
5855,E-5,641.75,1.0,79,136.0
5856,B3,641.75,0.25,63,136.0
5857,E-3,642.0,0.25,63,136.0
5858,E-3,642.5,0.25,63,136.0
5859,B-4,642.75,0.875,95,136.0
5860,A4,643.0,0.625,55,136.0
5861,E4,643.0,0.625,55,136.0
5862,D4,643.0,0.625,55,136.0
5863,A2,643.0,0.625,55,136.0
5864,E2,643.0,0.25,63,136.0
5865,E-3,643.0,0.25,63,136.0
5866,B1,643.25,0.25,55,136.0
5867,B3,643.25,0.25,55,136.0
5868,C2,643.5,0.25,111,136.0
5869,E-3,643.5,0.25,63,136.0
5870,B1,643.75,4.0,111,136.0
5871,B4,643.75,3.25,47,136.0
5872,F#4,643.75,3.25,47,136.0
5873,E4,643.75,3.25,47,136.0
5874,B2,643.75,3.25,47,136.0
5875,A4,644.0,2833/1000,79,136.0
5876,B1,644.0,0.25,71,136.0
5877,E-3,644.0,0.25,71,136.0
5878,E-3,644.5,0.25,63,136.0
5879,E2,644.75,0.25,63,136.0
5880,E2,645.0,0.25,63,136.0
5881,E-3,645.0,0.25,63,136.0
5882,B3,645.25,0.25,63,136.0
5883,B3,645.75,0.25,63,136.0
5884,B3,646.25,0.25,63,136.0
5885,E-3,646.5,0.25,47,136.0
5886,B3,646.75,0.25,63,136.0
5887,E-3,647.0,0.25,47,136.0
5888,B4,647.0,4.0,47,136.0
5889,F#4,647.0,4.0,47,136.0
5890,E4,647.0,4.0,47,136.0
5891,B2,647.0,4.0,47,136.0
5892,E4,647.208,99/125,79,136.0
5893,E-3,647.5,0.25,63,136.0
5894,B1,647.75,1729/500,111,136.0
5895,E4,648.0,0.25,79,136.0
5896,E-3,648.0,0.25,63,136.0
5897,B-4,648.0,4.0,68,136.0
5898,F#4,648.0,4.0,68,136.0
5899,C#4,648.0,4.0,68,136.0
5900,F#4,648.25,0.25,79,136.0
5901,B3,648.25,0.25,63,136.0
5902,G4,648.5,0.25,79,136.0
5903,A4,648.75,0.25,95,136.0
5904,B1,648.75,0.25,71,136.0
5905,B3,648.75,0.25,71,136.0
5906,C3,649.0,3.875,63,136.0
5907,B4,649.0,1.25,95,136.0
5908,E2,649.0,0.25,63,136.0
5909,D5,649.0,3.75,75,136.0
5910,B4,649.0,3.75,75,136.0
5911,G4,649.0,3.75,75,136.0
5912,E4,649.0,3.75,75,136.0
5913,B3,649.25,0.25,47,136.0
5914,E-3,649.5,0.25,79,136.0
5915,E2,649.75,0.25,63,136.0
5916,E2,650.0,0.25,63,136.0
5917,E-3,650.0,0.25,63,136.0
5918,B3,650.25,0.25,63,136.0
5919,F#4,650.5,0.625,111,136.0
5920,E-3,650.5,0.25,63,136.0
5921,A4,651.0,0.75,55,136.0
5922,E4,651.0,0.75,55,136.0
5923,D4,651.0,0.75,55,136.0
5924,A2,651.0,0.75,55,136.0
5925,B1,651.0,0.25,63,136.0
5926,E-3,651.0,0.25,63,136.0
5927,F#1,651.208,0.5,95,136.0
5928,F#4,651.375,333/1000,111,136.0
5929,E-3,651.5,0.125,63,136.0
5930,A4,651.708,73/250,111,136.0
5931,G1,651.708,21/500,111,136.0
5932,G1,651.75,1.25,111,136.0
5933,E2,651.75,0.25,63,136.0
5934,B4,651.75,3.25,51,136.0
5935,F#4,651.75,3.25,51,136.0
5936,E4,651.75,3.25,51,136.0
5937,B2,651.75,3.25,51,136.0
5938,A4,652.0,21/500,111,136.0
5939,B3,652.0,0.125,63,136.0
5940,A4,652.0,0.125,63,136.0
5941,F#4,652.0,0.125,63,136.0
5942,D4,652.0,0.125,63,136.0
5943,B1,652.0,0.25,71,136.0
5944,E-3,652.0,0.25,71,136.0
5945,F#4,652.042,3.125,111,136.0
5946,A6,652.125,0.125,95,136.0
5947,E-3,652.5,0.25,63,136.0
5948,E-3,653.0,0.25,63,136.0
5949,B-4,653.0,4.0,75,136.0
5950,F#4,653.0,4.0,75,136.0
5951,C#4,653.0,4.0,75,136.0
5952,B2,653.0,4.0,75,136.0
5953,B4,653.0,2.75,71,136.0
5954,F#4,653.0,2.75,71,136.0
5955,B3,653.25,0.25,63,136.0
5956,E-3,653.5,0.25,47,136.0
5957,E-3,654.0,0.25,79,136.0
5958,B3,654.25,0.25,63,136.0
5959,E-3,654.5,0.25,47,136.0
5960,B3,655.0,0.25,63,136.0
5961,E-3,655.0,0.25,63,136.0
5962,E4,655.25,0.25,63,136.0
5963,D4,655.292,333/1000,111,136.0
5964,F#4,655.5,0.25,63,136.0
5965,E-3,655.5,0.25,63,136.0
5966,F#4,655.625,0.375,111,136.0
5967,B4,655.75,0.25,63,136.0
5968,B1,655.75,0.25,71,136.0
5969,B3,655.75,0.25,71,136.0
5970,E-4,656.0,3.625,111,136.0
5971,C5,656.0,0.25,63,136.0
5972,B1,656.0,0.25,63,136.0
5973,E-3,656.0,0.25,63,136.0
5974,E5,656.25,0.25,63,136.0
5975,F#5,656.5,0.25,63,136.0
5976,E-3,656.5,0.25,63,136.0
5977,A5,656.75,0.25,63,136.0
5978,D6,657.0,0.25,79,136.0
5979,E2,657.0,0.25,55,136.0
5980,E-3,657.0,0.25,55,136.0
5981,A5,657.25,0.25,63,136.0
5982,B3,657.25,0.25,63,136.0
5983,F#5,657.5,0.25,63,136.0
5984,E5,657.75,0.25,63,136.0
5985,B3,657.75,0.25,63,136.0
5986,C5,658.0,0.25,63,136.0
5987,E-3,658.0,0.25,63,136.0
5988,B4,658.208,1229/500,71,136.0
5989,F#4,658.208,1229/500,71,136.0
5990,B4,658.25,0.25,63,136.0
5991,F#4,658.5,0.25,63,136.0
5992,E-3,658.5,0.25,63,136.0
5993,E4,658.75,0.25,63,136.0
5994,E2,659.0,0.25,63,136.0
5995,E-3,659.0,0.25,63,136.0
5996,F#6,659.25,0.375,63,136.0
5997,B1,659.25,0.25,55,136.0
5998,B3,659.25,0.25,55,136.0
5999,E-3,659.5,0.25,63,136.0
6000,A6,659.625,0.375,63,136.0
6001,D4,660.0,3.75,95,136.0
6002,F#6,660.0,3.25,67,136.0
6003,B4,660.0,3.25,67,136.0
6004,F#4,660.0,3.25,67,136.0
6005,D4,660.0,3.25,67,136.0
6006,B1,660.0,0.25,71,136.0
6007,E-3,660.0,0.25,71,136.0
6008,E-3,660.5,0.25,63,136.0
6009,F#3,660.667,0.625,111,136.0
6010,E2,660.75,0.25,63,136.0
6011,B-4,661.0,4.0,75,136.0
6012,F#4,661.0,4.0,75,136.0
6013,C#4,661.0,4.0,75,136.0
6014,B2,661.0,4.0,75,136.0
6015,E2,661.0,0.25,63,136.0
6016,E-3,661.0,0.25,63,136.0
6017,B3,661.25,0.25,63,136.0
6018,E-5,661.5,4.0,35,136.0
6019,B-4,661.5,4.0,35,136.0
6020,F#4,661.5,4.0,35,136.0
6021,E-4,661.5,4.0,35,136.0
6022,F#3,661.542,0.375,111,136.0
6023,B3,661.75,0.25,63,136.0
6024,A3,661.917,0.25,95,136.0
6025,F#3,662.167,21/500,95,136.0
6026,F#3,662.208,0.75,95,136.0
6027,B3,662.25,0.25,63,136.0
6028,E-3,662.5,0.25,47,136.0
6029,B3,662.75,0.25,63,136.0
6030,E1,662.958,2.5,95,136.0
6031,E-3,663.0,0.25,47,136.0
6032,D6,663.25,0.375,63,136.0
6033,E-3,663.5,0.25,63,136.0
6034,F#6,663.625,0.375,63,136.0
6035,B3,664.0,3.5,95,136.0
6036,E-3,664.0,0.25,63,136.0
6037,E-6,664.0,3.75,71,136.0
6038,B-4,664.0,3.75,71,136.0
6039,F#4,664.0,3.75,71,136.0
6040,E-4,664.0,3.75,71,136.0
6041,B3,664.25,0.25,63,136.0
6042,B1,664.75,0.25,71,136.0
6043,B3,664.75,0.25,71,136.0
6044,E2,665.0,0.25,63,136.0
6045,A4,665.0,4.0,66,136.0
6046,F#4,665.0,4.0,66,136.0
6047,D4,665.0,4.0,66,136.0
6048,B3,665.0,4.0,66,136.0
6049,G2,665.0,4.0,66,136.0
6050,B3,665.25,0.25,47,136.0
6051,E-3,665.5,0.25,79,136.0
6052,D3,665.583,0.375,111,136.0
6053,E2,665.75,0.25,63,136.0
6054,F#3,665.958,0.25,95,136.0
6055,E2,666.0,0.25,63,136.0
6056,E-3,666.0,0.25,63,136.0
6057,E-3,666.208,0.75,111,136.0
6058,B3,666.25,0.25,63,136.0
6059,E-3,666.5,0.25,63,136.0
6060,E1,666.958,3.0,95,136.0
6061,B1,667.0,0.25,63,136.0
6062,E-3,667.0,0.25,63,136.0
6063,E-3,667.5,0.125,63,136.0
6064,E2,667.75,0.25,63,136.0
6065,B-3,668.0,1.875,111,136.0
6066,D6,668.0,3.75,63,136.0
6067,B4,668.0,3.75,63,136.0
6068,G4,668.0,3.75,63,136.0
6069,D4,668.0,3.75,63,136.0
6070,B1,668.0,0.25,79,136.0
6071,E-3,668.0,0.25,79,136.0
6072,E-3,668.5,0.25,79,136.0
6073,E2,669.0,0.25,79,136.0
6074,E-3,669.0,0.25,79,136.0
6075,B3,669.25,0.25,79,136.0
6076,E-3,669.5,0.25,63,136.0
6077,E-5,669.5,4.0,35,136.0
6078,B-4,669.5,4.0,35,136.0
6079,F#4,669.5,4.0,35,136.0
6080,E-4,669.5,4.0,35,136.0
6081,B1,669.75,0.25,95,136.0
6082,F4,670.0,1.375,111,136.0
6083,B1,670.0,0.25,87,136.0
6084,E-3,670.0,0.25,87,136.0
6085,C3,670.208,1.75,95,136.0
6086,B3,670.25,0.25,63,136.0
6087,E2,670.5,0.25,71,136.0
6088,E-3,670.5,0.25,71,136.0
6089,E-3,671.0,0.25,63,136.0
6090,C#4,671.5,0.5,95,136.0
6091,B1,671.5,0.25,79,136.0
6092,E-3,671.5,0.25,79,136.0
6093,B3,671.75,0.25,63,136.0
6094,C2,671.958,1.0,111,136.0
6095,B5,672.0,3.5,63,136.0
6096,C#4,672.0,1.875,95,136.0
6097,E-3,672.0,0.25,47,136.0
6098,B4,672.0,3.625,63,136.0
6099,G4,672.0,3.625,63,136.0
6100,E4,672.0,3.625,63,136.0
6101,B1,672.5,0.25,87,136.0
6102,E-3,672.5,0.25,87,136.0
6103,B1,672.75,0.25,95,136.0
6104,C3,672.958,1.25,79,136.0
6105,A4,673.0,4.0,66,136.0
6106,F#4,673.0,4.0,66,136.0
6107,D4,673.0,4.0,66,136.0
6108,B3,673.0,4.0,66,136.0
6109,G2,673.0,4.0,66,136.0
6110,E2,673.0,0.25,71,136.0
6111,E-3,673.0,0.25,71,136.0
6112,B3,673.25,0.25,79,136.0
6113,E4,673.5,4.0,35,136.0
6114,D5,673.5,4.0,35,136.0
6115,B4,673.5,4.0,35,136.0
6116,G4,673.5,4.0,35,136.0
6117,B3,673.75,0.25,63,136.0
6118,G#4,674.0,1.75,111,136.0
6119,B1,674.0,0.25,79,136.0
6120,E-3,674.0,0.25,79,136.0
6121,G2,674.208,229/500,95,136.0
6122,E-3,674.5,0.25,63,136.0
6123,C2,674.667,1.0,95,136.0
6124,E2,675.0,0.25,71,136.0
6125,E-3,675.0,0.25,71,136.0
6126,B3,675.25,0.25,79,136.0
6127,C2,675.667,0.5,111,136.0
6128,A4,675.75,0.25,111,136.0
6129,C#3,675.75,0.25,79,136.0
6130,B1,675.75,0.25,79,136.0
6131,A4,676.0,3.875,111,136.0
6132,B-6,676.0,1.875,73,136.0
6133,B-5,676.0,1.875,73,136.0
6134,B-4,676.0,1.875,73,136.0
6135,F#4,676.0,1.875,73,136.0
6136,E-4,676.0,1.875,73,136.0
6137,G2,676.167,0.75,95,136.0
6138,E-3,676.5,0.25,63,136.0
6139,B1,676.75,0.25,95,136.0
6140,B4,677.0,4.0,71,136.0
6141,F#4,677.0,4.0,71,136.0
6142,D4,677.0,4.0,71,136.0
6143,E3,677.0,4.0,71,136.0
6144,E2,677.0,0.25,79,136.0
6145,E-3,677.0,0.25,79,136.0
6146,G2,677.042,0.625,111,136.0
6147,E2,677.25,0.25,71,136.0
6148,B3,677.25,0.25,71,136.0
6149,G2,677.667,0.25,95,136.0
6150,B3,677.75,0.25,63,136.0
6151,C2,677.917,0.25,95,136.0
6152,B1,678.0,0.25,95,136.0
6153,F6,678.0,1.375,67,136.0
6154,F5,678.0,1.375,67,136.0
6155,C#5,678.0,1.375,67,136.0
6156,B-4,678.0,1.375,67,136.0
6157,B1,678.167,21/500,95,136.0
6158,B1,678.208,0.75,95,136.0
6159,B3,678.25,0.25,63,136.0
6160,E-3,678.5,0.25,63,136.0
6161,E2,678.75,0.25,71,136.0
6162,B3,678.75,0.25,71,136.0
6163,F#2,678.958,0.25,95,136.0
6164,E2,679.0,0.25,63,136.0
6165,E-3,679.0,0.25,63,136.0
6166,B1,679.208,3.0,95,136.0
6167,C#6,679.5,0.5,75,136.0
6168,C#5,679.5,0.5,75,136.0
6169,B-4,679.5,0.5,75,136.0
6170,F#4,679.5,0.5,75,136.0
6171,B1,679.5,0.25,79,136.0
6172,E-3,679.5,0.25,79,136.0
6173,E-3,680.0,0.25,63,136.0
6174,C#6,680.0,1.75,75,136.0
6175,C#5,680.0,1.75,75,136.0
6176,B-4,680.0,1.75,75,136.0
6177,F#4,680.0,1.75,75,136.0
6178,B3,680.25,0.25,63,136.0
6179,B1,680.75,0.25,79,136.0
6180,B3,680.75,0.25,79,136.0
6181,A5,681.0,0.25,111,136.0
6182,E2,681.0,0.25,95,136.0
6183,B-4,681.0,3.625,79,136.0
6184,F#4,681.0,3.625,79,136.0
6185,E-4,681.0,3.625,79,136.0
6186,B5,681.25,0.25,111,136.0
6187,B3,681.25,0.25,47,136.0
6188,E4,681.333,3833/1000,35,136.0
6189,D5,681.333,3833/1000,35,136.0
6190,B4,681.333,3833/1000,35,136.0
6191,G4,681.333,3833/1000,35,136.0
6192,E-3,681.5,0.25,79,136.0
6193,B5,682.0,0.5,111,136.0
6194,E-3,682.0,0.25,79,136.0
6195,G#6,682.0,1.625,79,136.0
6196,G#5,682.0,1.625,79,136.0
6197,F5,682.0,1.625,79,136.0
6198,C#5,682.0,1.625,79,136.0
6199,B2,682.208,979/500,95,136.0
6200,B3,682.25,0.25,63,136.0
6201,A5,682.5,0.5,111,136.0
6202,E-3,682.5,0.25,63,136.0
6203,F#5,683.0,0.5,111,136.0
6204,E2,683.0,0.75,90,136.0
6205,B1,683.0,0.75,90,136.0
6206,E2,683.0,0.75,90,136.0
6207,E5,683.5,0.5,111,136.0
6208,B3,683.75,0.25,79,136.0
6209,A6,683.75,0.25,83,136.0
6210,A5,683.75,0.25,83,136.0
6211,F#5,683.75,0.25,83,136.0
6212,D5,683.75,0.25,83,136.0
6213,D5,684.0,1.5,111,136.0
6214,A6,684.0,4.0,83,136.0
6215,A5,684.0,4.0,83,136.0
6216,F#5,684.0,4.0,83,136.0
6217,D5,684.0,4.0,83,136.0
6218,B1,684.0,0.25,103,136.0
6219,C#3,684.0,0.25,103,136.0
6220,B1,684.167,0.75,95,136.0
6221,B1,684.75,0.25,95,136.0
6222,A3,684.75,0.25,95,136.0
6223,F#2,684.917,0.625,95,136.0
6224,B4,685.0,4.0,63,136.0
6225,G4,685.0,4.0,63,136.0
6226,D4,685.0,4.0,63,136.0
6227,C3,685.0,4.0,63,136.0
6228,B-4,685.292,21/500,42,136.0
6229,F#4,685.292,21/500,42,136.0
6230,C#4,685.292,21/500,42,136.0
6231,B-4,685.333,4.0,42,136.0
6232,F#4,685.333,4.0,42,136.0
6233,C#4,685.333,4.0,42,136.0
6234,E-3,685.5,0.25,63,136.0
6235,B1,685.542,0.625,95,136.0
6236,B4,685.75,1.0,111,136.0
6237,E-3,686.0,0.25,79,136.0
6238,G1,686.167,21/500,127,136.0
6239,G1,686.208,1833/1000,127,136.0
6240,B3,686.25,0.25,63,136.0
6241,E-3,686.5,0.25,63,136.0
6242,A4,687.0,1.0,79,136.0
6243,E2,687.0,0.25,71,136.0
6244,E-3,687.0,0.25,71,136.0
6245,E-3,687.5,0.25,63,136.0
6246,B3,687.75,0.25,63,136.0
6247,A4,688.0,0.625,79,136.0
6248,B1,688.0,0.25,71,136.0
6249,E-3,688.0,0.25,71,136.0
6250,G2,688.042,2167/1000,95,136.0
6251,E-3,688.5,0.25,79,136.0
6252,B1,688.75,0.25,95,136.0
6253,A5,689.0,0.25,111,136.0
6254,B4,689.0,3.625,68,136.0
6255,G4,689.0,3.625,68,136.0
6256,E4,689.0,3.625,68,136.0
6257,E2,689.0,0.25,71,136.0
6258,E-3,689.0,0.25,71,136.0
6259,B5,689.25,0.25,95,136.0
6260,E2,689.25,0.25,79,136.0
6261,B3,689.25,0.25,79,136.0
6262,B3,689.75,0.25,63,136.0
6263,A5,689.875,0.125,95,136.0
6264,B5,690.0,0.5,111,136.0
6265,B1,690.0,0.25,79,136.0
6266,E-3,690.0,0.25,79,136.0
6267,G2,690.208,229/500,95,136.0
6268,A5,690.5,0.5,95,136.0
6269,E-3,690.5,0.25,63,136.0
6270,E2,690.75,0.25,79,136.0
6271,B1,690.917,0.625,111,136.0
6272,F#5,691.0,0.25,111,136.0
6273,E2,691.0,0.25,71,136.0
6274,E-3,691.0,0.25,71,136.0
6275,E5,691.25,0.25,95,136.0
6276,B3,691.25,0.25,47,136.0
6277,E-3,691.5,0.25,79,136.0
6278,A1,691.667,0.5,111,136.0
6279,B4,691.75,0.25,95,136.0
6280,A4,692.0,0.75,111,136.0
6281,A6,692.0,4.0,83,136.0
6282,A5,692.0,4.0,83,136.0
6283,F#5,692.0,4.0,83,136.0
6284,D5,692.0,4.0,83,136.0
6285,B1,692.0,0.25,111,136.0
6286,A3,692.0,0.25,111,136.0
6287,G1,692.167,1.0,111,136.0
6288,B4,692.75,1.25,111,136.0
6289,B1,692.75,0.25,103,136.0
6290,C#3,692.75,0.25,103,136.0
6291,B-4,693.0,2.0,67,136.0
6292,F#4,693.0,2.0,67,136.0
6293,E-4,693.0,2.0,67,136.0
6294,B2,693.0,2.0,67,136.0
6295,D2,693.167,1.0,111,136.0
6296,B3,693.25,0.25,63,136.0
6297,B-4,693.333,4.0,42,136.0
6298,F#4,693.333,4.0,42,136.0
6299,C#4,693.333,4.0,42,136.0
6300,B3,693.75,0.25,63,136.0
6301,B1,694.0,0.25,95,136.0
6302,A1,694.167,21/500,127,136.0
6303,A1,694.208,0.75,127,136.0
6304,B3,694.25,0.25,63,136.0
6305,B1,694.5,0.25,79,136.0
6306,E-3,694.5,0.25,79,136.0
6307,B5,694.75,0.25,47,136.0
6308,B1,694.75,0.25,79,136.0
6309,B3,694.75,0.25,79,136.0
6310,B1,694.958,2.25,127,136.0
6311,F5,695.0,1.375,68,136.0
6312,C#5,695.0,1.375,68,136.0
6313,B-4,695.0,1.375,68,136.0
6314,E2,695.0,0.25,63,136.0
6315,E-3,695.0,0.25,63,136.0
6316,B5,695.125,0.25,79,136.0
6317,B5,695.375,0.125,63,136.0
6318,E-3,695.5,0.25,63,136.0
6319,B5,695.625,0.125,79,136.0
6320,B5,695.875,0.125,63,136.0
6321,E-3,696.0,0.25,63,136.0
6322,A4,696.0,0.625,83,136.0
6323,E4,696.0,0.625,83,136.0
6324,D4,696.0,0.625,83,136.0
6325,A2,696.0,0.625,83,136.0
6326,B5,696.125,0.125,95,136.0
6327,B3,696.25,0.25,63,136.0
6328,B5,696.375,0.125,79,136.0
6329,C#5,696.5,0.5,79,136.0
6330,B-4,696.5,0.5,79,136.0
6331,F#4,696.5,0.5,79,136.0
6332,B5,696.625,0.125,79,136.0
6333,B4,696.75,3.25,83,136.0
6334,F#4,696.75,3.25,83,136.0
6335,E4,696.75,3.25,83,136.0
6336,B2,696.75,3.25,83,136.0
6337,B1,696.75,0.25,79,136.0
6338,B3,696.75,0.25,79,136.0
6339,B5,696.875,0.25,79,136.0
6340,E2,697.0,0.25,79,136.0
6341,C#5,697.0,1.75,79,136.0
6342,B-4,697.0,1.75,79,136.0
6343,F#4,697.0,1.75,79,136.0
6344,B5,697.125,0.125,79,136.0
6345,B1,697.208,1.0,111,136.0
6346,B5,697.25,0.125,95,136.0
6347,B1,697.25,0.25,71,136.0
6348,B3,697.25,0.25,71,136.0
6349,B3,697.333,4.0,31,136.0
6350,A4,697.333,4.0,31,136.0
6351,F#4,697.333,4.0,31,136.0
6352,D4,697.333,4.0,31,136.0
6353,B5,697.5,0.125,79,136.0
6354,E-3,697.5,0.25,79,136.0
6355,B5,697.75,0.125,95,136.0
6356,B5,698.0,0.25,79,136.0
6357,E-3,698.0,0.25,79,136.0
6358,B1,698.208,0.75,111,136.0
6359,B5,698.25,0.125,95,136.0
6360,B3,698.25,0.25,63,136.0
6361,B5,698.5,0.125,79,136.0
6362,E-3,698.5,0.25,79,136.0
6363,B5,698.625,0.125,95,136.0
6364,B5,698.875,0.25,79,136.0
6365,E2,699.0,0.25,79,136.0
6366,G#5,699.0,1.625,74,136.0
6367,F5,699.0,1.625,74,136.0
6368,C#5,699.0,1.625,74,136.0
6369,B5,699.125,0.25,79,136.0
6370,E2,699.25,0.25,79,136.0
6371,B5,699.375,0.25,79,136.0
6372,E-3,699.5,0.25,63,136.0
6373,B5,699.75,0.125,79,136.0
6374,A3,700.0,0.75,127,136.0
6375,B4,700.0,4.0,83,136.0
6376,F#4,700.0,4.0,83,136.0
6377,E4,700.0,4.0,83,136.0
6378,B2,700.0,4.0,83,136.0
6379,B1,700.0,0.25,103,136.0
6380,B-2,700.0,0.25,103,136.0
6381,B1,700.208,1.75,111,136.0
6382,E-3,700.5,0.25,79,136.0
6383,B3,700.75,2.0,127,136.0
6384,B-2,700.75,0.25,111,136.0
6385,A5,700.75,0.25,79,136.0
6386,F#5,700.75,0.25,79,136.0
6387,D5,700.75,0.25,79,136.0
6388,G2,700.75,0.25,79,136.0
6389,E-3,701.0,0.25,79,136.0
6390,A5,701.0,4.0,79,136.0
6391,F#5,701.0,4.0,79,136.0
6392,D5,701.0,4.0,79,136.0
6393,G2,701.0,4.0,79,136.0
6394,B3,701.25,0.25,79,136.0
6395,E-3,701.5,0.25,63,136.0
6396,E2,701.75,0.25,79,136.0
6397,B-2,702.0,0.25,95,136.0
6398,A1,702.208,0.75,127,136.0
6399,B3,702.25,0.25,63,136.0
6400,E-3,702.5,0.25,63,136.0
6401,B1,702.958,1.0,127,136.0
6402,B-2,703.0,0.25,95,136.0
6403,D4,703.25,0.5,111,136.0
6404,E-3,703.5,0.25,63,136.0
6405,B1,703.75,0.25,79,136.0
6406,B3,703.75,0.25,79,136.0
6407,E4,704.0,0.25,111,136.0
6408,A4,704.0,0.625,87,136.0
6409,E4,704.0,0.625,87,136.0
6410,D4,704.0,0.625,87,136.0
6411,A2,704.0,0.625,87,136.0
6412,B1,704.0,0.25,87,136.0
6413,B-2,704.0,0.25,87,136.0
6414,B2,704.083,1.125,127,136.0
6415,B3,704.25,0.25,95,136.0
6416,E-3,704.5,0.25,79,136.0
6417,F#3,704.75,0.25,95,136.0
6418,B4,704.75,3.25,79,136.0
6419,F#4,704.75,3.25,79,136.0
6420,E4,704.75,3.25,79,136.0
6421,B2,704.75,3.25,79,136.0
6422,A3,705.0,0.75,95,136.0
6423,E2,705.0,0.25,79,136.0
6424,B-2,705.0,0.25,79,136.0
6425,A2,705.208,0.75,127,136.0
6426,B3,705.25,0.25,79,136.0
6427,B3,705.271,3.938,31,136.0
6428,A4,705.271,3.938,31,136.0
6429,F#4,705.271,3.938,31,136.0
6430,D4,705.271,3.938,31,136.0
6431,B3,705.75,1.5,111,136.0
6432,B3,705.75,0.25,63,136.0
6433,B-2,706.0,0.25,95,136.0
6434,B2,706.083,0.125,95,136.0
6435,B2,706.208,333/1000,95,136.0
6436,E-3,706.5,0.25,63,136.0
6437,B2,706.542,0.125,95,136.0
6438,B2,706.667,0.25,95,136.0
6439,E2,707.0,0.25,87,136.0
6440,B-2,707.0,0.25,87,136.0
6441,B1,707.042,0.625,127,136.0
6442,B1,707.25,0.25,79,136.0
6443,A3,707.25,0.25,79,136.0
6444,E-3,707.5,0.25,63,136.0
6445,B2,707.667,0.25,111,136.0
6446,A3,708.0,0.75,127,136.0
6447,B4,708.0,4.0,79,136.0
6448,F#4,708.0,4.0,79,136.0
6449,E4,708.0,4.0,79,136.0
6450,B2,708.0,4.0,79,136.0
6451,B1,708.0,0.25,95,136.0
6452,B-2,708.0,0.25,95,136.0
6453,F#2,708.042,0.125,79,136.0
6454,A2,708.167,0.75,127,136.0
6455,E-3,708.5,0.25,63,136.0
6456,B3,708.75,1.75,127,136.0
6457,E2,708.75,0.25,79,136.0
6458,A5,709.0,4.0,79,136.0
6459,F#5,709.0,4.0,79,136.0
6460,D5,709.0,4.0,79,136.0
6461,G2,709.0,4.0,79,136.0
6462,E2,709.0,0.25,87,136.0
6463,B-2,709.0,0.25,87,136.0
6464,B2,709.042,0.5,111,136.0
6465,B3,709.25,0.25,63,136.0
6466,B4,709.271,3.938,42,136.0
6467,F#4,709.271,3.938,42,136.0
6468,D4,709.271,3.938,42,136.0
6469,B2,709.542,0.125,95,136.0
6470,E2,709.667,0.25,95,136.0
6471,B3,709.75,0.25,63,136.0
6472,B-2,710.0,0.25,79,136.0
6473,F#2,710.042,0.125,111,136.0
6474,A1,710.167,21/500,127,136.0
6475,A1,710.208,0.75,127,136.0
6476,E-3,710.5,0.25,63,136.0
6477,C4,710.625,0.125,47,136.0
6478,C#4,710.75,0.125,47,136.0
6479,B3,710.75,0.25,63,136.0
6480,D4,710.875,0.125,47,136.0
6481,E-4,711.0,0.125,63,136.0
6482,E2,711.0,0.25,79,136.0
6483,B-2,711.0,0.25,79,136.0
6484,B1,711.083,0.75,127,136.0
6485,E4,711.125,0.125,63,136.0
6486,F4,711.25,0.125,63,136.0
6487,F#4,711.375,0.125,63,136.0
6488,G4,711.5,0.125,63,136.0
6489,E-3,711.5,0.25,63,136.0
6490,G#4,711.625,0.125,79,136.0
6491,A4,711.75,0.125,79,136.0
6492,B2,711.833,0.625,111,136.0
6493,B-4,711.875,0.125,79,136.0
6494,B4,712.0,0.75,95,136.0
6495,B-2,712.0,0.25,95,136.0
6496,A4,712.0,0.75,103,136.0
6497,E4,712.0,0.75,103,136.0
6498,D4,712.0,0.75,103,136.0
6499,A2,712.0,0.75,103,136.0
6500,B3,712.25,0.25,63,136.0
6501,B2,712.458,0.25,95,136.0
6502,B2,712.708,0.25,111,136.0
6503,B4,712.75,1.75,95,136.0
6504,F#4,712.75,1.75,95,136.0
6505,E4,712.75,1.75,95,136.0
6506,B2,712.75,1.75,95,136.0
6507,B1,712.75,0.25,79,136.0
6508,B3,712.75,0.25,79,136.0
6509,B2,712.958,0.25,95,136.0
6510,B4,713.0,333/1000,47,136.0
6511,A4,713.0,0.625,83,136.0
6512,E4,713.0,0.625,83,136.0
6513,D4,713.0,0.625,83,136.0
6514,A2,713.0,0.625,83,136.0
6515,E2,713.0,0.25,79,136.0
6516,B-2,713.0,0.25,79,136.0
6517,B2,713.208,0.25,111,136.0
6518,B-4,713.271,4.0,47,136.0
6519,F#4,713.271,4.0,47,136.0
6520,E-4,713.271,4.0,47,136.0
6521,B4,713.333,0.25,79,136.0
6522,B2,713.458,0.25,95,136.0
6523,E-3,713.5,0.25,79,136.0
6524,B4,713.708,0.125,63,136.0
6525,B2,713.708,0.25,111,136.0
6526,E2,713.75,0.25,79,136.0
6527,B4,713.75,3.25,75,136.0
6528,F#4,713.75,3.25,75,136.0
6529,E4,713.75,3.25,75,136.0
6530,B2,713.75,3.25,75,136.0
6531,B4,713.833,0.125,79,136.0
6532,B2,713.958,0.25,95,136.0
6533,E2,714.0,0.25,87,136.0
6534,B-2,714.0,0.25,87,136.0
6535,B4,714.208,0.125,63,136.0
6536,B2,714.208,0.25,111,136.0
6537,B3,714.25,0.25,63,136.0
6538,B4,714.333,0.125,95,136.0
6539,B2,714.458,0.25,95,136.0
6540,B3,714.5,0.25,95,136.0
6541,E-3,714.5,0.25,63,136.0
6542,B4,714.583,0.125,79,136.0
6543,B2,714.708,0.25,111,136.0
6544,B3,714.75,0.25,95,136.0
6545,B-2,714.75,0.25,79,136.0
6546,B4,714.833,0.125,79,136.0
6547,B2,714.958,0.25,95,136.0
6548,B3,715.0,0.25,111,136.0
6549,B1,715.0,0.25,95,136.0
6550,G3,715.0,0.25,95,136.0
6551,B4,715.083,0.25,79,136.0
6552,B2,715.208,0.25,111,136.0
6553,B3,715.25,0.25,79,136.0
6554,B4,715.333,0.125,79,136.0
6555,B2,715.458,0.25,79,136.0
6556,B3,715.5,0.25,111,136.0
6557,E-3,715.5,0.125,63,136.0
6558,B4,715.583,0.125,95,136.0
6559,B2,715.708,0.25,111,136.0
6560,B3,715.75,0.25,79,136.0
6561,E2,715.75,0.25,79,136.0
6562,A4,715.958,21/500,95,136.0
6563,B2,715.958,0.25,79,136.0
6564,B3,716.0,0.25,95,136.0
6565,A4,716.0,0.75,95,136.0
6566,B1,716.0,0.25,103,136.0
6567,B-2,716.0,0.25,103,136.0
6568,B2,716.208,0.25,95,136.0
6569,B3,716.25,0.25,79,136.0
6570,B2,716.458,0.25,95,136.0
6571,B3,716.5,0.25,111,136.0
6572,E-3,716.5,0.25,79,136.0
6573,B2,716.708,0.25,111,136.0
6574,B3,716.75,0.25,79,136.0
6575,B4,716.75,3.25,95,136.0
6576,B-2,716.75,0.25,111,136.0
6577,B2,716.958,0.25,95,136.0
6578,B3,717.0,0.25,95,136.0
6579,E-3,717.0,0.25,79,136.0
6580,B4,717.0,4.0,75,136.0
6581,F#4,717.0,4.0,75,136.0
6582,E4,717.0,4.0,75,136.0
6583,B2,717.0,4.0,75,136.0
6584,B2,717.208,0.25,111,136.0
6585,B3,717.25,0.25,63,136.0
6586,B3,717.25,0.25,79,136.0
6587,B4,717.271,83/1000,31,136.0
6588,D4,717.271,83/1000,31,136.0
6589,G4,717.354,3.875,31,136.0
6590,B2,717.458,0.75,111,136.0
6591,B3,717.5,0.25,95,136.0
6592,E-3,717.5,0.25,63,136.0
6593,B3,717.75,0.25,79,136.0
6594,E2,717.75,0.25,79,136.0
6595,B3,718.0,0.25,95,136.0
6596,B-2,718.0,0.25,95,136.0
6597,A1,718.208,0.75,127,136.0
6598,B3,718.25,0.25,79,136.0
6599,B3,718.25,0.25,63,136.0
6600,B3,718.5,0.25,95,136.0
6601,E-3,718.5,0.25,63,136.0
6602,B3,718.75,0.25,95,136.0
6603,B3,719.0,0.25,95,136.0
6604,B-2,719.0,0.25,95,136.0
6605,B1,719.083,0.75,127,136.0
6606,B3,719.25,0.25,95,136.0
6607,B3,719.5,0.25,95,136.0
6608,E-3,719.5,0.25,63,136.0
6609,B3,719.75,0.25,79,136.0
6610,B1,719.75,0.25,79,136.0
6611,B3,719.75,0.25,79,136.0
6612,B2,719.833,0.625,111,136.0
6613,B4,720.0,3.0,95,136.0
6614,A4,720.0,0.75,103,136.0
6615,E4,720.0,0.75,103,136.0
6616,D4,720.0,0.75,103,136.0
6617,A2,720.0,0.75,103,136.0
6618,B1,720.0,0.25,87,136.0
6619,B-2,720.0,0.25,87,136.0
6620,B2,720.458,0.25,95,136.0
6621,E-3,720.5,0.25,79,136.0
6622,B2,720.708,0.25,111,136.0
6623,B4,720.75,1.75,95,136.0
6624,F#4,720.75,1.75,95,136.0
6625,E4,720.75,1.75,95,136.0
6626,B2,720.75,1.75,95,136.0
6627,B2,720.958,0.25,95,136.0
6628,A4,721.0,0.625,87,136.0
6629,E4,721.0,0.625,87,136.0
6630,D4,721.0,0.625,87,136.0
6631,A2,721.0,0.625,87,136.0
6632,E2,721.0,0.25,79,136.0
6633,B-2,721.0,0.25,79,136.0
6634,B2,721.208,0.25,111,136.0
6635,B4,721.229,21/500,36,136.0
6636,G4,721.229,21/500,36,136.0
6637,E4,721.229,21/500,36,136.0
6638,B3,721.25,0.25,79,136.0
6639,B2,721.458,0.25,95,136.0
6640,B2,721.708,0.25,111,136.0
6641,B3,721.75,0.25,63,136.0
6642,B4,721.75,3.25,75,136.0
6643,F#4,721.75,3.25,75,136.0
6644,E4,721.75,3.25,75,136.0
6645,B2,721.75,3.25,75,136.0
6646,B2,721.958,0.25,95,136.0
6647,B-2,722.0,0.25,95,136.0
6648,B2,722.208,0.25,111,136.0
6649,B2,722.458,0.25,95,136.0
6650,B3,722.5,0.25,95,136.0
6651,E-3,722.5,0.25,63,136.0
6652,B2,722.708,0.25,111,136.0
6653,B3,722.75,0.25,95,136.0
6654,B2,722.958,0.25,95,136.0
6655,B3,723.0,0.25,111,136.0
6656,E2,723.0,0.25,87,136.0
6657,B-2,723.0,0.25,87,136.0
6658,B2,723.208,0.25,111,136.0
6659,B3,723.25,0.25,79,136.0
6660,B1,723.25,0.25,79,136.0
6661,A3,723.25,0.25,79,136.0
6662,B2,723.458,0.25,79,136.0
6663,B3,723.5,0.25,111,136.0
6664,E-3,723.5,0.25,63,136.0
6665,B2,723.708,0.25,111,136.0
6666,B3,723.75,0.25,79,136.0
6667,B2,723.958,0.25,79,136.0
6668,B3,724.0,0.25,95,136.0
6669,C#5,724.0,0.75,111,136.0
6670,B1,724.0,0.25,95,136.0
6671,B-2,724.0,0.25,95,136.0
6672,B2,724.208,0.25,95,136.0
6673,B3,724.25,0.25,79,136.0
6674,B2,724.458,0.25,95,136.0
6675,B3,724.5,0.25,111,136.0
6676,E-3,724.5,0.25,63,136.0
6677,B2,724.708,0.25,111,136.0
6678,B3,724.75,0.25,79,136.0
6679,D5,724.75,3.25,111,136.0
6680,E2,724.75,0.25,79,136.0
6681,B2,724.958,0.25,95,136.0
6682,B3,725.0,0.25,95,136.0
6683,B4,725.0,4.0,75,136.0
6684,F#4,725.0,4.0,75,136.0
6685,E4,725.0,4.0,75,136.0
6686,B2,725.0,4.0,75,136.0
6687,E2,725.0,0.25,87,136.0
6688,B-2,725.0,0.25,87,136.0
6689,B2,725.208,0.25,111,136.0
6690,B3,725.25,0.25,63,136.0
6691,B3,725.25,0.25,63,136.0
6692,B4,725.271,4.0,36,136.0
6693,G4,725.271,4.0,36,136.0
6694,E4,725.271,4.0,36,136.0
6695,B2,725.458,0.75,111,136.0
6696,B3,725.5,0.25,95,136.0
6697,B3,725.75,0.25,79,136.0
6698,B3,725.75,0.25,63,136.0
6699,B3,726.0,0.25,95,136.0
6700,B-2,726.0,0.25,79,136.0
6701,A1,726.208,0.75,127,136.0
6702,B3,726.25,0.25,79,136.0
6703,B3,726.5,0.25,95,136.0
6704,E-3,726.5,0.25,63,136.0
6705,B3,726.75,0.25,95,136.0
6706,B3,726.75,0.25,63,136.0
6707,B3,727.0,0.25,95,136.0
6708,E2,727.0,0.25,79,136.0
6709,B-2,727.0,0.25,79,136.0
6710,B1,727.083,0.75,127,136.0
6711,B3,727.25,0.25,95,136.0
6712,B3,727.5,0.25,95,136.0
6713,E-3,727.5,0.25,63,136.0
6714,B3,727.75,0.25,79,136.0
6715,B2,727.833,0.625,111,136.0
6716,D5,728.0,3.0,111,136.0
6717,B-2,728.0,0.25,95,136.0
6718,A4,728.0,0.75,103,136.0
6719,E4,728.0,0.75,103,136.0
6720,D4,728.0,0.75,103,136.0
6721,A2,728.0,0.75,103,136.0
6722,B3,728.25,0.25,63,136.0
6723,B2,728.458,0.25,95,136.0
6724,B2,728.708,0.25,111,136.0
6725,B4,728.75,1.75,99,136.0
6726,F#4,728.75,1.75,99,136.0
6727,E4,728.75,1.75,99,136.0
6728,B2,728.75,1.75,99,136.0
6729,B1,728.75,0.25,79,136.0
6730,B3,728.75,0.25,79,136.0
6731,B2,728.958,0.25,95,136.0
6732,A4,729.0,0.75,87,136.0
6733,E4,729.0,0.75,87,136.0
6734,D4,729.0,0.75,87,136.0
6735,A2,729.0,0.75,87,136.0
6736,E2,729.0,0.25,79,136.0
6737,B-2,729.0,0.25,79,136.0
6738,B2,729.208,0.25,111,136.0
6739,B-4,729.271,979/500,31,136.0
6740,F#4,729.271,979/500,31,136.0
6741,E-4,729.271,979/500,31,136.0
6742,B2,729.458,0.25,95,136.0
6743,E-3,729.5,0.25,79,136.0
6744,B2,729.708,0.25,111,136.0
6745,E2,729.75,0.25,79,136.0
6746,B4,729.75,3.25,79,136.0
6747,F#4,729.75,3.25,79,136.0
6748,E4,729.75,3.25,79,136.0
6749,B2,729.75,3.25,79,136.0
6750,B2,729.958,0.25,95,136.0
6751,E2,730.0,0.25,87,136.0
6752,B-2,730.0,0.25,87,136.0
6753,B2,730.208,0.25,111,136.0
6754,B3,730.25,0.25,63,136.0
6755,B2,730.458,0.25,95,136.0
6756,D4,730.5,0.25,111,136.0
6757,E-3,730.5,0.25,63,136.0
6758,B2,730.708,0.25,111,136.0
6759,D4,730.75,0.25,79,136.0
6760,B-2,730.75,0.25,79,136.0
6761,B2,730.958,0.25,95,136.0
6762,D4,731.0,0.25,111,136.0
6763,B1,731.0,0.25,95,136.0
6764,G3,731.0,0.25,95,136.0
6765,B2,731.208,0.25,111,136.0
6766,F5,731.229,1.5,31,136.0
6767,C#5,731.229,1.5,31,136.0
6768,B-4,731.229,1.5,31,136.0
6769,D4,731.25,0.25,95,136.0
6770,B2,731.458,0.25,79,136.0
6771,D4,731.5,0.25,111,136.0
6772,E-3,731.5,0.125,63,136.0
6773,B2,731.708,0.25,111,136.0
6774,D4,731.75,0.25,79,136.0
6775,E2,731.75,0.25,79,136.0
6776,B2,731.958,0.25,79,136.0
6777,D4,732.0,0.25,111,136.0
6778,B1,732.0,0.25,103,136.0
6779,B-2,732.0,0.25,103,136.0
6780,B2,732.208,0.25,95,136.0
6781,D4,732.25,0.25,95,136.0
6782,B2,732.458,0.25,95,136.0
6783,D4,732.5,0.25,95,136.0
6784,E-3,732.5,0.25,79,136.0
6785,B2,732.708,0.25,111,136.0
6786,C#5,732.729,271/500,47,136.0
6787,B-4,732.729,271/500,47,136.0
6788,F#4,732.729,271/500,47,136.0
6789,D4,732.75,0.25,79,136.0
6790,B-2,732.75,0.25,111,136.0
6791,B2,732.958,0.25,95,136.0
6792,D4,733.0,0.25,95,136.0
6793,B3,733.0,0.25,95,136.0
6794,E-3,733.0,0.25,79,136.0
6795,B2,733.208,0.25,111,136.0
6796,D4,733.25,0.25,79,136.0
6797,E4,733.25,0.25,95,136.0
6798,B3,733.25,0.25,79,136.0
6799,B2,733.458,0.75,111,136.0
6800,D4,733.5,0.25,111,136.0
6801,F#4,733.5,0.25,95,136.0
6802,E-3,733.5,0.25,63,136.0
6803,D4,733.75,0.25,79,136.0
6804,B4,733.75,0.25,95,136.0
6805,E2,733.75,0.25,79,136.0
6806,D4,734.0,0.25,111,136.0
6807,C5,734.0,0.25,95,136.0
6808,B-2,734.0,0.25,95,136.0
6809,A1,734.208,0.75,127,136.0
6810,D4,734.25,0.25,95,136.0
6811,E5,734.25,0.25,95,136.0
6812,B3,734.25,0.25,63,136.0
6813,D4,734.5,0.25,111,136.0
6814,F#5,734.5,0.25,95,136.0
6815,E-3,734.5,0.25,63,136.0
6816,D4,734.75,0.25,95,136.0
6817,A5,734.75,0.25,95,136.0
6818,D4,735.0,0.25,111,136.0
6819,D6,735.0,0.25,111,136.0
6820,B-2,735.0,0.25,95,136.0
6821,B1,735.083,0.75,127,136.0
6822,C#5,735.229,979/500,47,136.0
6823,B-4,735.229,979/500,47,136.0
6824,F#4,735.229,979/500,47,136.0
6825,D4,735.25,0.25,79,136.0
6826,A5,735.25,0.25,95,136.0
6827,D4,735.5,0.25,95,136.0
6828,F#5,735.5,0.25,95,136.0
6829,E-3,735.5,0.25,63,136.0
6830,B4,735.583,0.25,47,136.0
6831,D4,735.75,0.25,79,136.0
6832,E5,735.75,0.25,95,136.0
6833,B1,735.75,0.25,79,136.0
6834,B3,735.75,0.25,79,136.0
6835,B2,735.833,0.625,111,136.0
6836,B4,735.958,21/500,79,136.0
6837,C5,736.0,0.25,95,136.0
6838,B4,736.0,0.25,79,136.0
6839,A4,736.0,0.75,103,136.0
6840,E4,736.0,0.75,103,136.0
6841,D4,736.0,0.75,103,136.0
6842,A2,736.0,0.75,103,136.0
6843,B1,736.0,0.25,87,136.0
6844,B-2,736.0,0.25,87,136.0
6845,B4,736.25,0.25,95,136.0
6846,B4,736.375,0.125,63,136.0
6847,B2,736.458,0.25,95,136.0
6848,F#4,736.5,0.25,95,136.0
6849,B4,736.5,0.125,79,136.0
6850,E-3,736.5,0.25,79,136.0
6851,B2,736.708,0.25,111,136.0
6852,E4,736.75,0.25,95,136.0
6853,B4,736.75,1.75,99,136.0
6854,F#4,736.75,1.75,99,136.0
6855,E4,736.75,1.75,99,136.0
6856,B2,736.75,1.75,99,136.0
6857,B4,736.875,0.125,63,136.0
6858,B2,736.958,0.25,95,136.0
6859,B4,737.0,0.125,95,136.0
6860,E2,737.0,0.25,79,136.0
6861,B-2,737.0,0.25,79,136.0
6862,G#5,737.188,1.75,42,136.0
6863,F5,737.188,1.75,42,136.0
6864,C#5,737.188,1.75,42,136.0
6865,B2,737.208,0.25,111,136.0
6866,B4,737.25,0.125,79,136.0
6867,B3,737.25,0.25,79,136.0
6868,B2,737.458,0.25,95,136.0
6869,B4,737.5,0.125,79,136.0
6870,B2,737.708,0.25,111,136.0
6871,B4,737.75,0.25,79,136.0
6872,B3,737.75,0.25,63,136.0
6873,B2,737.958,0.25,95,136.0
6874,B4,738.0,0.125,79,136.0
6875,B-2,738.0,0.25,95,136.0
6876,B2,738.208,0.25,111,136.0
6877,B4,738.25,0.125,95,136.0
6878,B4,738.375,0.125,79,136.0
6879,B2,738.458,0.25,95,136.0
6880,D4,738.5,0.25,111,136.0
6881,E-3,738.5,0.25,63,136.0
6882,B4,738.625,0.125,95,136.0
6883,B2,738.708,0.25,111,136.0
6884,D4,738.75,0.25,79,136.0
6885,B4,738.875,0.25,79,136.0
6886,A5,738.938,73/250,47,136.0
6887,F#5,738.938,73/250,47,136.0
6888,D5,738.938,73/250,47,136.0
6889,B2,738.958,0.25,95,136.0
6890,D4,739.0,0.25,111,136.0
6891,E2,739.0,0.25,87,136.0
6892,B-2,739.0,0.25,87,136.0
6893,B4,739.125,0.125,95,136.0
6894,B2,739.208,0.25,111,136.0
6895,D4,739.25,0.25,95,136.0
6896,B4,739.25,0.25,79,136.0
6897,B1,739.25,0.25,79,136.0
6898,A3,739.25,0.25,79,136.0
6899,B2,739.458,0.25,79,136.0
6900,D4,739.5,0.25,111,136.0
6901,B4,739.5,0.125,95,136.0
6902,E-3,739.5,0.25,63,136.0
6903,B2,739.708,0.25,111,136.0
6904,D4,739.75,0.25,79,136.0
6905,B4,739.75,0.125,79,136.0
6906,B4,739.875,0.125,95,136.0
6907,B2,739.958,0.25,79,136.0
6908,D4,740.0,0.25,111,136.0
6909,B4,740.0,21/500,95,136.0
6910,B1,740.0,0.25,95,136.0
6911,B-2,740.0,0.25,95,136.0
6912,B4,740.083,0.125,79,136.0
6913,B2,740.208,0.25,95,136.0
6914,D4,740.25,0.25,95,136.0
6915,B4,740.333,0.125,95,136.0
6916,B4,740.458,0.125,95,136.0
6917,B2,740.458,0.25,95,136.0
6918,D4,740.5,0.25,95,136.0
6919,E-3,740.5,0.25,63,136.0
6920,B4,740.708,0.125,95,136.0
6921,B2,740.708,0.25,111,136.0
6922,D4,740.75,0.25,79,136.0
6923,E2,740.75,0.25,79,136.0
6924,B4,740.958,0.125,79,136.0
6925,B2,740.958,0.25,95,136.0
6926,D4,741.0,0.25,95,136.0
6927,E2,741.0,0.25,87,136.0
6928,B-2,741.0,0.25,87,136.0
6929,B4,741.208,0.125,95,136.0
6930,B2,741.208,0.25,111,136.0
6931,D4,741.25,0.25,79,136.0
6932,B3,741.25,0.25,63,136.0
6933,B4,741.333,0.125,79,136.0
6934,B2,741.458,0.75,111,136.0
6935,D4,741.5,0.25,111,136.0
6936,B4,741.583,0.125,95,136.0
6937,D4,741.75,0.25,79,136.0
6938,B3,741.75,0.25,63,136.0
6939,B4,741.833,0.125,79,136.0
6940,B4,741.958,0.125,79,136.0
6941,D4,742.0,0.25,111,136.0
6942,B-2,742.0,0.25,79,136.0
6943,B4,742.208,0.125,79,136.0
6944,D4,742.25,0.25,95,136.0
6945,B4,742.458,0.125,79,136.0
6946,D4,742.5,0.25,111,136.0
6947,E-3,742.5,0.25,63,136.0
6948,B4,742.708,0.125,63,136.0
6949,D4,742.75,0.25,95,136.0
6950,B3,742.75,0.25,63,136.0
6951,B4,742.833,0.25,79,136.0
6952,D4,743.0,0.25,111,136.0
6953,E2,743.0,0.25,79,136.0
6954,B-2,743.0,0.25,79,136.0
6955,B4,743.083,0.125,63,136.0
6956,D4,743.25,0.25,79,136.0
6957,B4,743.333,0.125,63,136.0
6958,D4,743.5,0.25,95,136.0
6959,E-3,743.5,0.25,63,136.0
6960,B4,743.583,0.25,63,136.0
6961,D4,743.75,0.25,79,136.0
6962,B4,743.833,0.125,79,136.0
6963,B-2,744.0,0.25,95,136.0
6964,B4,744.0,3.0,103,136.0
6965,F#4,744.0,3.0,103,136.0
6966,E4,744.0,3.0,103,136.0
6967,B2,744.0,3.0,103,136.0
6968,B4,744.083,0.25,63,136.0
6969,B3,744.25,0.25,63,136.0
6970,B4,744.333,0.125,79,136.0
6971,B4,744.583,0.125,63,136.0
6972,B4,744.708,0.25,63,136.0
6973,B1,744.75,0.25,79,136.0
6974,B3,744.75,0.25,79,136.0
6975,B4,744.958,0.25,63,136.0
6976,E2,745.0,0.25,79,136.0
6977,B-2,745.0,0.25,79,136.0
6978,B4,745.333,0.125,63,136.0
6979,E-3,745.5,0.25,79,136.0
6980,B4,745.583,0.25,47,136.0
6981,E2,745.75,0.25,79,136.0
6982,B4,745.833,0.125,63,136.0
6983,E2,746.0,0.25,87,136.0
6984,B-2,746.0,0.25,87,136.0
6985,D3,746.208,729/500,111,136.0
6986,B3,746.25,0.25,63,136.0
6987,E-3,746.5,0.25,63,136.0
6988,B-2,746.75,0.25,79,136.0
6989,D5,747.0,1.0,122,136.0
6990,A4,747.0,1.0,122,136.0
6991,G4,747.0,1.0,122,136.0
6992,B1,747.0,0.25,95,136.0
6993,G3,747.0,0.25,95,136.0
6994,A5,747.062,4.0,47,136.0
6995,F#5,747.062,4.0,47,136.0
6996,D5,747.062,4.0,47,136.0
6997,E-3,747.5,0.125,63,136.0
6998,E3,747.667,1.5,111,136.0
6999,E2,747.75,0.25,79,136.0
7000,C5,748.0,1.5,107,136.0
7001,G4,748.0,1.5,107,136.0
7002,F4,748.0,1.5,107,136.0
7003,D3,748.0,1.5,107,136.0
7004,B1,748.0,0.25,103,136.0
7005,B-2,748.0,0.25,103,136.0
7006,E-3,748.5,0.25,79,136.0
7007,B-2,748.75,0.25,111,136.0
7008,B4,749.0,0.125,79,136.0
7009,E-3,749.0,0.25,79,136.0
7010,B2,749.167,521/500,111,136.0
7011,B4,749.25,0.125,79,136.0
7012,B3,749.25,0.25,79,136.0
7013,B4,749.5,0.25,79,136.0
7014,E-3,749.5,0.25,63,136.0
7015,B4,749.5,1.5,111,136.0
7016,F#4,749.5,1.5,111,136.0
7017,E4,749.5,1.5,111,136.0
7018,E3,749.5,1.5,111,136.0
7019,B4,749.75,0.125,95,136.0
7020,E2,749.75,0.25,79,136.0
7021,B4,749.875,0.125,79,136.0
7022,B-2,750.0,0.25,95,136.0
7023,B4,750.125,0.125,79,136.0
7024,B2,750.208,229/500,111,136.0
7025,B3,750.25,0.25,63,136.0
7026,B4,750.375,0.125,79,136.0
7027,E-3,750.5,0.25,63,136.0
7028,B4,750.625,0.125,79,136.0
7029,A2,750.667,1.5,111,136.0
7030,B4,750.875,0.125,63,136.0
7031,B-2,751.0,0.25,95,136.0
7032,A4,751.0,1.0,103,136.0
7033,E4,751.0,1.0,103,136.0
7034,D4,751.0,1.0,103,136.0
7035,B2,751.0,1.0,103,136.0
7036,E-3,751.5,0.25,63,136.0
7037,B4,751.625,0.125,95,136.0
7038,B1,751.75,0.25,79,136.0
7039,B3,751.75,0.25,79,136.0
7040,B4,751.875,0.125,95,136.0
7041,C#3,752.0,0.875,79,136.0
7042,E3,752.0,0.875,79,136.0
7043,E2,752.0,0.75,84,136.0
7044,B1,752.0,0.75,84,136.0
7045,A2,752.0,0.75,84,136.0
7046,B4,752.083,0.25,79,136.0
7047,G#2,752.167,1.0,111,136.0
7048,B4,752.333,1/5,79,136.0
7049,A4,752.5,0.5,103,136.0
7050,E4,752.5,0.5,103,136.0
7051,D4,752.5,0.5,103,136.0
7052,B2,752.5,0.5,103,136.0
7053,B4,752.533,0.25,63,136.0
7054,B4,752.783,0.125,79,136.0
7055,G#4,753.0,1.5,107,136.0
7056,E-4,753.0,1.5,107,136.0
7057,C#4,753.0,1.5,107,136.0
7058,A2,753.0,1.5,107,136.0
7059,B4,753.033,0.25,63,136.0
7060,F#2,753.167,1.0,111,136.0
7061,B4,753.283,0.125,79,136.0
7062,E3,753.5,0.875,95,136.0
7063,G3,753.5,0.875,95,136.0
7064,E2,753.5,0.75,90,136.0
7065,B1,753.5,0.75,90,136.0
7066,A2,753.5,0.75,90,136.0
7067,B4,753.658,0.125,63,136.0
7068,B4,753.783,0.25,79,136.0
7069,E2,754.167,21/500,111,136.0
7070,E2,754.208,729/500,111,136.0
7071,F#4,754.5,1.0,99,136.0
7072,C#4,754.5,1.0,99,136.0
7073,B3,754.5,1.0,99,136.0
7074,G#2,754.5,1.0,99,136.0
7075,A5,754.896,3833/1000,47,136.0
7076,F#5,754.896,3833/1000,47,136.0
7077,D5,754.896,3833/1000,47,136.0
7078,B4,754.908,0.125,79,136.0
7079,C#3,755.0,0.875,95,136.0
7080,A3,755.0,0.875,95,136.0
7081,E2,755.0,0.75,90,136.0
7082,B1,755.0,0.75,90,136.0
7083,A2,755.0,0.75,90,136.0
7084,B4,755.158,1/5,79,136.0
7085,B4,755.358,0.25,79,136.0
7086,B4,755.5,1.0,99,136.0
7087,F#4,755.5,1.0,99,136.0
7088,E4,755.5,1.0,99,136.0
7089,F#2,755.5,1.0,99,136.0
7090,B4,755.608,0.125,63,136.0
7091,G#2,755.667,2.0,111,136.0
7092,B4,755.733,0.125,95,136.0
7093,B4,755.983,17/1000,79,136.0
7094,B4,756.0,0.094,79,136.0
7095,B4,756.281,0.125,95,136.0
7096,G#4,756.5,1.5,103,136.0
7097,E-4,756.5,1.5,103,136.0
7098,C#4,756.5,1.5,103,136.0
7099,E2,756.5,1.5,103,136.0
7100,B4,756.531,0.125,95,136.0
7101,B4,756.656,0.125,79,136.0
7102,B4,756.906,0.125,79,136.0
7103,B4,757.156,0.125,79,136.0
7104,B4,757.281,0.125,95,136.0
7105,B4,757.531,0.125,79,136.0
7106,C#3,757.667,271/500,111,136.0
7107,B4,757.781,0.125,79,136.0
7108,F#4,758.0,2.0,99,136.0
7109,C#4,758.0,2.0,99,136.0
7110,B3,758.0,2.0,99,136.0
7111,G#2,758.0,2.0,99,136.0
7112,B4,758.031,0.125,79,136.0
7113,B4,758.156,0.25,79,136.0
7114,C#3,758.208,979/500,111,136.0
7115,B4,758.406,0.125,63,136.0
7116,B4,758.656,0.125,63,136.0
7117,A4,758.854,21/500,55,136.0
7118,E4,758.854,21/500,55,136.0
7119,D4,758.854,21/500,55,136.0
7120,A2,758.854,21/500,55,136.0
7121,A4,758.896,0.75,55,136.0
7122,E4,758.896,0.75,55,136.0
7123,D4,758.896,0.75,55,136.0
7124,A2,758.896,0.75,55,136.0
7125,B4,758.906,0.25,63,136.0
7126,B4,759.156,0.125,63,136.0
7127,B4,759.406,0.25,63,136.0
7128,B4,759.646,3.25,51,136.0
7129,F#4,759.646,3.25,51,136.0
7130,E4,759.646,3.25,51,136.0
7131,B2,759.646,3.25,51,136.0
7132,B4,759.656,0.25,63,136.0
7133,B4,759.906,0.094,47,136.0
7134,B4,760.0,0.031,47,136.0
7135,B3,760.0,0.5,99,136.0
7136,F#3,760.0,0.5,99,136.0
7137,E3,760.0,0.5,99,136.0
7138,C#3,760.0,0.5,99,136.0
7139,B4,760.156,0.25,63,136.0
7140,B2,760.167,2.0,111,136.0
7141,B4,760.406,0.25,63,136.0
7142,B4,760.781,0.25,63,136.0
7143,B4,761.031,0.25,47,136.0
7144,B4,761.281,0.25,47,136.0
7145,B4,761.531,0.25,47,136.0
7146,B4,761.906,0.25,63,136.0
7147,B3,762.0,1.5,99,136.0
7148,F#3,762.0,1.5,99,136.0
7149,E3,762.0,1.5,99,136.0
7150,C#3,762.0,1.5,99,136.0
7151,B4,762.156,0.25,47,136.0
7152,A2,762.167,21/500,127,136.0
7153,A2,762.208,729/500,127,136.0
7154,B4,762.406,0.25,31,136.0
7155,B4,762.781,0.25,47,136.0
7156,B4,763.156,0.25,31,136.0
7157,B4,763.406,0.25,47,136.0
7158,C#4,763.5,0.25,111,136.0
7159,F#3,763.5,0.25,111,136.0
7160,B2,763.667,1.5,127,136.0
7161,E-4,763.75,0.25,111,136.0
7162,G#3,763.75,0.25,111,136.0
7163,B4,763.906,0.094,31,136.0
7164,B4,764.0,0.094,31,136.0
7165,E4,764.0,1.0,99,136.0
7166,B3,764.0,1.0,99,136.0
7167,A3,764.0,1.0,99,136.0
7168,B2,764.0,1.0,99,136.0
7169,B4,764.281,0.25,31,136.0
7170,B4,764.656,0.25,31,136.0
7171,B3,765.0,1.0,119,136.0
7172,F#3,765.0,1.0,119,136.0
7173,B4,765.156,0.375,31,136.0
7174,F#2,765.167,521/500,127,136.0
7175,B4,765.656,0.25,31,136.0
7176,F#4,766.0,1.5,103,136.0
7177,C#4,766.0,1.5,103,136.0
7178,B3,766.0,1.5,103,136.0
7179,A2,766.0,1.5,103,136.0
7180,F#2,766.208,4.0,127,136.0
7181,B4,766.281,1.719,15,136.0
7182,B4,766.729,3833/1000,51,136.0
7183,F#4,766.729,3833/1000,51,136.0
7184,E4,766.729,3833/1000,51,136.0
7185,B2,766.729,3833/1000,51,136.0
7186,G#4,767.5,1.5,103,136.0
7187,E-4,767.5,1.5,103,136.0
7188,C#4,767.5,1.5,103,136.0
7189,B2,767.5,1.5,103,136.0
7190,B4,768.0,2.094,15,136.0
7191,E4,769.0,1.0,103,136.0
7192,B3,769.0,1.0,103,136.0
7193,A3,769.0,1.0,103,136.0
7194,F#2,769.0,1.0,103,136.0
7195,F#2,770.208,4.0,127,136.0
7196,A4,770.688,21/500,55,136.0
7197,A2,770.688,21/500,55,136.0
7198,A4,770.729,83/1000,55,136.0
7199,A2,770.729,83/1000,55,136.0
7200,E4,770.812,0.625,63,136.0
7201,D4,770.812,0.625,63,136.0
7202,B4,771.438,823/250,51,136.0
7203,F#4,771.438,823/250,51,136.0
7204,E4,771.438,823/250,51,136.0
7205,B2,771.438,823/250,51,136.0
7206,F#2,774.208,4.0,127,136.0
7207,F#2,778.208,4.0,127,136.0
7208,B4,778.562,3833/1000,51,136.0
7209,F#4,778.562,3833/1000,51,136.0
7210,E4,778.562,3833/1000,51,136.0
7211,B2,778.562,3833/1000,51,136.0
7212,A4,782.521,21/500,63,136.0
7213,E4,782.521,21/500,63,136.0
7214,D4,782.521,21/500,63,136.0
7215,A2,782.521,21/500,63,136.0
7216,A4,782.562,0.75,63,136.0
7217,E4,782.562,0.75,63,136.0
7218,D4,782.562,0.75,63,136.0
7219,A2,782.562,0.75,63,136.0
7220,B4,783.312,3.25,59,136.0
7221,F#4,783.312,3.25,59,136.0
7222,E4,783.312,3.25,59,136.0
7223,B2,783.312,3.25,59,136.0
7224,E4,786.0,4.0,103,136.0
7225,B3,786.0,4.0,103,136.0
7226,A3,786.0,4.0,103,136.0
7227,F#2,786.0,4.0,103,136.0
7228,B4,790.562,4.0,59,136.0
7229,F#4,790.562,4.0,59,136.0
7230,E4,790.562,4.0,59,136.0
7231,B2,790.562,4.0,59,136.0
7232,A4,794.562,0.75,63,136.0
7233,E4,794.562,0.75,63,136.0
7234,D4,794.562,0.75,63,136.0
7235,A2,794.562,0.75,63,136.0
7236,B4,795.312,3.25,59,136.0
7237,F#4,795.312,3.25,59,136.0
7238,E4,795.312,3.25,59,136.0
7239,B2,795.312,3.25,59,136.0
7240,E4,802.0,4.0,103,136.0
7241,B3,802.0,4.0,103,136.0
7242,A3,802.0,4.0,103,136.0
7243,F#2,802.0,4.0,103,136.0
7244,B4,802.562,4.0,59,136.0
7245,F#4,802.562,4.0,59,136.0
7246,E4,802.562,4.0,59,136.0
7247,B2,802.562,4.0,59,136.0
7248,A4,806.562,0.75,71,136.0
7249,E4,806.562,0.75,71,136.0
7250,C4,806.562,0.75,71,136.0
7251,C3,806.562,0.75,71,136.0
7252,B4,807.312,3.25,67,136.0
7253,F#4,807.312,3.25,67,136.0
7254,D4,807.312,3.25,67,136.0
7255,D3,807.312,3.25,67,136.0
7256,E4,814.0,4.0,103,136.0
7257,B3,814.0,4.0,103,136.0
7258,A3,814.0,4.0,103,136.0
7259,F#2,814.0,4.0,103,136.0
7260,B4,814.562,4.0,67,136.0
7261,F#4,814.562,4.0,67,136.0
7262,D4,814.562,4.0,67,136.0
7263,D3,814.562,4.0,67,136.0
7264,A4,818.562,0.75,71,136.0
7265,E4,818.562,0.75,71,136.0
7266,C4,818.562,0.75,71,136.0
7267,C3,818.562,0.75,71,136.0
7268,B4,819.312,3.25,67,136.0
7269,F#4,819.312,3.25,67,136.0
7270,D4,819.312,3.25,67,136.0
7271,D3,819.312,3.25,67,136.0
7272,E4,822.0,4.0,103,136.0
7273,B3,822.0,4.0,103,136.0
7274,A3,822.0,4.0,103,136.0
7275,F#2,822.0,4.0,103,136.0
7276,B4,826.562,4.0,67,136.0
7277,F#4,826.562,4.0,67,136.0
7278,D4,826.562,4.0,67,136.0
7279,D3,826.562,4.0,67,136.0
7280,B4,830.562,3.0,47,136.0
7281,F#4,830.562,3.0,47,136.0
7282,E4,830.562,3.0,47,136.0
7283,B2,830.562,3.0,47,136.0
7284,D5,833.562,1.0,58,136.0
7285,A4,833.562,1.0,58,136.0
7286,G4,833.562,1.0,58,136.0
7287,C5,834.562,729/500,55,136.0
7288,G4,834.562,729/500,55,136.0
7289,F4,834.562,729/500,55,136.0
7290,D3,834.562,729/500,55,136.0
7291,B4,836.021,1.5,59,136.0
7292,F#4,836.021,1.5,59,136.0
7293,E4,836.021,1.5,59,136.0
7294,E3,836.021,1.5,59,136.0
7295,A4,837.521,521/500,51,136.0
7296,E4,837.521,521/500,51,136.0
7297,D4,837.521,521/500,51,136.0
7298,B2,837.521,521/500,51,136.0
7299,A4,839.021,229/500,51,136.0
7300,E4,839.021,229/500,51,136.0
7301,D4,839.021,229/500,51,136.0
7302,B2,839.021,229/500,51,136.0
7303,G#4,839.479,1.5,55,136.0
7304,E-4,839.479,1.5,55,136.0
7305,C#4,839.479,1.5,55,136.0
7306,A2,839.479,1.5,55,136.0
7307,F#4,840.979,1.0,43,136.0
7308,C#4,840.979,1.0,43,136.0
7309,B3,840.979,1.0,43,136.0
7310,G#2,840.979,1.0,43,136.0
7311,B4,841.979,1.0,47,136.0
7312,F#4,841.979,1.0,47,136.0
7313,E4,841.979,1.0,47,136.0
7314,F#2,841.979,1.0,47,136.0
7315,G#4,842.979,21/500,47,136.0
7316,E-4,842.979,21/500,47,136.0
7317,C#4,842.979,21/500,47,136.0
7318,E2,842.979,21/500,47,136.0
7319,G#4,844.479,729/500,47,136.0
7320,E-4,844.479,729/500,47,136.0
7321,C#4,844.479,729/500,47,136.0
7322,E2,844.479,729/500,47,136.0
7323,F#4,845.938,2.0,47,136.0
7324,C#4,845.938,2.0,47,136.0
7325,B3,845.938,2.0,47,136.0
7326,G#2,845.938,2.0,47,136.0
7327,B3,847.938,271/500,43,136.0
7328,F#3,847.938,271/500,43,136.0
7329,E3,847.938,271/500,43,136.0
7330,C#3,847.938,271/500,43,136.0
7331,B3,849.938,729/500,43,136.0
7332,F#3,849.938,729/500,43,136.0
7333,E3,849.938,729/500,43,136.0
7334,C#3,849.938,729/500,43,136.0
7335,C#4,851.396,0.25,47,136.0
7336,F#3,851.396,0.25,47,136.0
7337,E-4,851.646,0.25,47,136.0
7338,G#3,851.646,0.25,47,136.0
7339,E4,851.896,1.0,43,136.0
7340,B3,851.896,1.0,43,136.0
7341,A3,851.896,1.0,43,136.0
7342,B2,851.896,1.0,43,136.0
7343,B3,852.896,1.0,55,136.0
7344,F#3,852.896,1.0,55,136.0
7345,F#4,853.896,21/500,47,136.0
7346,C#4,853.896,21/500,47,136.0
7347,B3,853.896,21/500,47,136.0
7348,A2,853.896,21/500,47,136.0
7349,F#4,855.396,729/500,47,136.0
7350,C#4,855.396,729/500,47,136.0
7351,B3,855.396,729/500,47,136.0
7352,A2,855.396,729/500,47,136.0
7353,G#4,856.854,1.5,47,136.0
7354,E-4,856.854,1.5,47,136.0
7355,C#4,856.854,1.5,47,136.0
7356,B2,856.854,1.5,47,136.0
7357,E4,858.354,521/500,51,136.0
7358,B3,858.354,521/500,51,136.0
7359,A3,858.354,521/500,51,136.0
7360,F#2,858.354,521/500,51,136.0
7361,E4,871.396,4.0,51,136.0
7362,B3,871.396,4.0,51,136.0
7363,A3,871.396,4.0,51,136.0
7364,F#2,871.396,4.0,51,136.0
7365,E4,883.396,4.0,51,136.0
7366,B3,883.396,4.0,51,136.0
7367,A3,883.396,4.0,51,136.0
7368,F#2,883.396,4.0,51,136.0
7369,E4,891.396,4.0,51,136.0
7370,B3,891.396,4.0,51,136.0
7371,A3,891.396,4.0,51,136.0
7372,F#2,891.396,4.0,51,136.0
