,note_name,start_time,duration,velocity,tempo
0,B1,0.0,0.5,95,120.0
1,B1,1.0,0.5,95,120.0
2,B1,2.0,0.5,95,120.0
3,B1,3.0,0.5,95,120.0
4,B1,4.0,0.5,95,120.0
5,F#2,4.0,1.0,95,120.0
6,B1,5.0,0.5,95,120.0
7,F#2,5.0,1.0,95,120.0
8,B1,6.0,0.5,95,120.0
9,F#2,6.0,1.0,95,120.0
10,B1,7.0,0.5,95,120.0
11,F#2,7.0,1.0,95,120.0
12,B1,8.0,0.5,95,120.0
13,F#2,8.0,1.0,95,120.0
14,B1,9.0,0.5,95,120.0
15,F#2,9.0,1.0,95,120.0
16,B1,10.0,0.5,95,120.0
17,F#2,10.0,1.0,95,120.0
18,B1,11.0,0.5,95,120.0
19,F#2,11.0,1.0,95,120.0
20,B1,12.0,0.5,95,120.0
21,F#2,12.0,1.0,95,120.0
22,B1,13.0,0.5,95,120.0
23,F#2,13.0,1.0,95,120.0
24,B1,14.0,0.5,95,120.0
25,F#2,14.0,1.0,95,120.0
26,E2,14.5,0.062,95,120.0
27,B3,14.75,0.062,95,120.0
28,B3,15.0,1.0,95,120.0
29,B1,15.0,0.5,95,120.0
30,F#2,15.0,1.0,95,120.0
31,B2,16.0,0.25,95,120.0
32,B1,16.0,0.5,95,120.0
33,F#2,16.0,1.0,95,120.0
34,B2,16.25,0.25,95,120.0
35,B2,16.5,0.25,95,120.0
36,B2,16.75,0.25,95,120.0
37,B1,17.0,0.5,95,120.0
38,F#2,17.0,1.0,95,120.0
39,D4,17.0,0.25,95,120.0
40,A3,17.0,0.25,95,120.0
41,E4,17.25,0.25,95,120.0
42,B3,17.25,0.25,95,120.0
43,D4,17.5,1.0,95,120.0
44,A3,17.5,1.0,95,120.0
45,B1,18.0,0.5,95,120.0
46,F#2,18.0,1.0,95,120.0
47,D4,18.5,1.0,95,120.0
48,A3,18.5,1.0,95,120.0
49,B1,19.0,0.5,95,120.0
50,F#2,19.0,1.0,95,120.0
51,D3,19.5,0.062,95,120.0
52,D3,19.75,0.062,95,120.0
53,B1,20.0,0.5,95,120.0
54,F#2,20.0,1.0,95,120.0
55,A3,20.0,1.5,95,120.0
56,E3,20.0,1.5,95,120.0
57,A2,20.0,1.5,95,120.0
58,B1,21.0,0.5,95,120.0
59,F#2,21.0,1.0,95,120.0
60,G3,21.5,1.0,95,120.0
61,D3,21.5,1.0,95,120.0
62,G2,21.5,1.0,95,120.0
63,B1,22.0,0.5,95,120.0
64,F#2,22.0,1.0,95,120.0
65,E3,22.5,0.25,95,120.0
66,D3,22.75,0.25,95,120.0
67,F#3,23.0,0.25,95,120.0
68,B1,23.0,0.5,95,120.0
69,F#2,23.0,1.0,95,120.0
70,E3,23.25,0.25,95,120.0
71,D3,23.5,0.25,95,120.0
72,C#3,23.75,0.25,95,120.0
73,B2,24.0,0.25,95,120.0
74,B1,24.0,0.5,95,120.0
75,F#2,24.0,1.0,95,120.0
76,B2,24.25,0.25,95,120.0
77,B2,24.5,0.25,95,120.0
78,B2,24.75,0.25,95,120.0
79,B1,25.0,0.5,95,120.0
80,F#2,25.0,1.0,95,120.0
81,D4,25.0,0.25,95,120.0
82,A3,25.0,0.25,95,120.0
83,E4,25.25,0.25,95,120.0
84,B3,25.25,0.25,95,120.0
85,D4,25.5,1.0,95,120.0
86,A3,25.5,1.0,95,120.0
87,B1,26.0,0.5,95,120.0
88,F#2,26.0,1.0,95,120.0
89,D4,26.5,1.0,95,120.0
90,A3,26.5,1.0,95,120.0
91,B1,27.0,0.5,95,120.0
92,F#2,27.0,1.0,95,120.0
93,D3,27.5,0.062,95,120.0
94,D3,27.75,0.062,95,120.0
95,G3,28.0,0.5,95,120.0
96,G1,28.0,0.5,95,120.0
97,F#2,28.0,1.0,95,120.0
98,D4,28.5,0.5,95,120.0
99,D2,28.5,0.5,95,120.0
100,B3,29.0,0.5,95,120.0
101,B1,29.0,0.5,95,120.0
102,F#2,29.0,1.0,95,120.0
103,G3,29.5,0.5,95,120.0
104,G1,29.5,0.5,95,120.0
105,E4,30.0,0.5,95,120.0
106,E1,30.0,0.5,95,120.0
107,F#2,30.0,1.0,95,120.0
108,C#4,30.5,0.5,95,120.0
109,C#2,30.5,0.5,95,120.0
110,A3,31.0,1.0,95,120.0
111,A2,31.0,1.0,95,120.0
112,F#2,31.0,1.0,95,120.0
113,B2,32.0,0.25,95,120.0
114,B1,32.0,0.5,95,120.0
115,F#2,32.0,1.0,95,120.0
116,B2,32.25,0.25,95,120.0
117,B2,32.5,0.25,95,120.0
118,B2,32.75,0.25,95,120.0
119,B1,33.0,0.5,95,120.0
120,F#2,33.0,1.0,95,120.0
121,D4,33.0,0.25,95,120.0
122,A3,33.0,0.25,95,120.0
123,E4,33.25,0.25,95,120.0
124,B3,33.25,0.25,95,120.0
125,D4,33.5,1.0,95,120.0
126,A3,33.5,1.0,95,120.0
127,B1,34.0,0.5,95,120.0
128,F#2,34.0,1.0,95,120.0
129,D4,34.5,1.0,95,120.0
130,A3,34.5,1.0,95,120.0
131,B1,35.0,0.5,95,120.0
132,F#2,35.0,1.0,95,120.0
133,D3,35.5,0.062,95,120.0
134,D3,35.75,0.062,95,120.0
135,B1,36.0,0.5,95,120.0
136,F#2,36.0,1.0,95,120.0
137,A3,36.0,1.5,95,120.0
138,E3,36.0,1.5,95,120.0
139,A2,36.0,1.5,95,120.0
140,B1,37.0,0.5,95,120.0
141,F#2,37.0,1.0,95,120.0
142,G3,37.5,1.0,95,120.0
143,D3,37.5,1.0,95,120.0
144,G2,37.5,1.0,95,120.0
145,B1,38.0,0.5,95,120.0
146,F#2,38.0,1.0,95,120.0
147,E3,38.5,0.25,95,120.0
148,D3,38.75,0.25,95,120.0
149,F#3,39.0,0.25,95,120.0
150,B1,39.0,0.5,95,120.0
151,F#2,39.0,1.0,95,120.0
152,E3,39.25,0.25,95,120.0
153,D3,39.5,0.25,95,120.0
154,C#3,39.75,0.25,95,120.0
155,B2,40.0,0.25,95,120.0
156,B1,40.0,0.5,95,120.0
157,F#2,40.0,1.0,95,120.0
158,B2,40.25,0.25,95,120.0
159,B2,40.5,0.25,95,120.0
160,B2,40.75,0.25,95,120.0
161,B1,41.0,0.5,95,120.0
162,F#2,41.0,1.0,95,120.0
163,D4,41.0,0.25,95,120.0
164,A3,41.0,0.25,95,120.0
165,E4,41.25,0.25,95,120.0
166,B3,41.25,0.25,95,120.0
167,D4,41.5,1.0,95,120.0
168,A3,41.5,1.0,95,120.0
169,B1,42.0,0.5,95,120.0
170,F#2,42.0,1.0,95,120.0
171,D4,42.5,1.0,95,120.0
172,A3,42.5,1.0,95,120.0
173,B1,43.0,0.5,95,120.0
174,F#2,43.0,1.0,95,120.0
175,D3,43.5,0.062,95,120.0
176,D3,43.75,0.062,95,120.0
177,G3,44.0,0.5,95,120.0
178,G1,44.0,0.5,95,120.0
179,B-2,44.0,1.0,95,120.0
180,D4,44.5,0.5,95,120.0
181,D2,44.5,0.5,95,120.0
182,B3,45.0,0.5,95,120.0
183,B1,45.0,0.5,95,120.0
184,B-2,45.0,1.0,95,120.0
185,G3,45.5,0.5,95,120.0
186,G1,45.5,0.5,95,120.0
187,E4,46.0,0.5,95,120.0
188,E1,46.0,0.5,95,120.0
189,B-2,46.0,1.0,95,120.0
190,C#4,46.5,0.5,95,120.0
191,C#2,46.5,0.5,95,120.0
192,A3,47.0,1.0,95,120.0
193,A2,47.0,1.0,95,120.0
194,B-2,47.0,1.0,95,120.0
195,B2,48.0,0.25,95,120.0
196,B1,48.0,0.5,95,120.0
197,C#3,48.0,1.0,95,120.0
198,C2,48.0,1.0,95,120.0
199,B2,48.25,0.25,95,120.0
200,B2,48.5,0.25,95,120.0
201,B2,48.75,0.25,95,120.0
202,B1,49.0,0.5,95,120.0
203,D4,49.0,0.25,95,120.0
204,A3,49.0,0.25,95,120.0
205,B-2,49.0,1.0,95,120.0
206,D2,49.0,1.0,95,120.0
207,E4,49.25,0.25,95,120.0
208,B3,49.25,0.25,95,120.0
209,D4,49.5,1.0,95,120.0
210,A3,49.5,1.0,95,120.0
211,B1,50.0,0.5,95,120.0
212,B-2,50.0,1.0,95,120.0
213,C2,50.0,1.0,95,120.0
214,D4,50.5,1.0,95,120.0
215,A3,50.5,1.0,95,120.0
216,B1,51.0,0.5,95,120.0
217,B-2,51.0,1.0,95,120.0
218,D2,51.0,1.0,95,120.0
219,D3,51.5,0.062,95,120.0
220,D3,51.75,0.062,95,120.0
221,B1,52.0,0.5,95,120.0
222,A3,52.0,1.5,95,120.0
223,E3,52.0,1.5,95,120.0
224,A2,52.0,1.5,95,120.0
225,B-2,52.0,1.0,95,120.0
226,C2,52.0,1.0,95,120.0
227,B1,53.0,0.5,95,120.0
228,B-2,53.0,1.0,95,120.0
229,D2,53.0,1.0,95,120.0
230,G3,53.5,1.0,95,120.0
231,D3,53.5,1.0,95,120.0
232,G2,53.5,1.0,95,120.0
233,B1,54.0,0.5,95,120.0
234,B-2,54.0,1.0,95,120.0
235,C2,54.0,1.0,95,120.0
236,E3,54.5,0.25,95,120.0
237,D3,54.75,0.25,95,120.0
238,F#3,55.0,0.25,95,120.0
239,B1,55.0,0.5,95,120.0
240,B-2,55.0,1.0,95,120.0
241,D2,55.0,1.0,95,120.0
242,E3,55.25,0.25,95,120.0
243,D3,55.5,0.25,95,120.0
244,C#3,55.75,0.25,95,120.0
245,B2,56.0,0.25,95,120.0
246,B1,56.0,0.5,95,120.0
247,B-2,56.0,1.0,95,120.0
248,C2,56.0,1.0,95,120.0
249,B2,56.25,0.25,95,120.0
250,B2,56.5,0.25,95,120.0
251,B2,56.75,0.25,95,120.0
252,B1,57.0,0.5,95,120.0
253,D4,57.0,0.25,95,120.0
254,A3,57.0,0.25,95,120.0
255,B-2,57.0,1.0,95,120.0
256,D2,57.0,1.0,95,120.0
257,E4,57.25,0.25,95,120.0
258,B3,57.25,0.25,95,120.0
259,D4,57.5,1.0,95,120.0
260,A3,57.5,1.0,95,120.0
261,B1,58.0,0.5,95,120.0
262,B-2,58.0,1.0,95,120.0
263,C2,58.0,1.0,95,120.0
264,D4,58.5,1.0,95,120.0
265,A3,58.5,1.0,95,120.0
266,B1,59.0,0.5,95,120.0
267,B-2,59.0,1.0,95,120.0
268,D2,59.0,1.0,95,120.0
269,D3,59.5,0.062,95,120.0
270,D3,59.75,0.062,95,120.0
271,G3,60.0,0.5,95,120.0
272,G1,60.0,0.5,95,120.0
273,B-2,60.0,1.0,95,120.0
274,C2,60.0,1.0,95,120.0
275,D4,60.5,0.5,95,120.0
276,D2,60.5,0.5,95,120.0
277,B3,61.0,0.5,95,120.0
278,B1,61.0,0.5,95,120.0
279,B-2,61.0,1.0,95,120.0
280,D2,61.0,1.0,95,120.0
281,G3,61.5,0.5,95,120.0
282,G1,61.5,0.5,95,120.0
283,E4,62.0,0.5,95,120.0
284,E1,62.0,0.5,95,120.0
285,B-2,62.0,1.0,95,120.0
286,C2,62.0,1.0,95,120.0
287,C#4,62.5,0.5,95,120.0
288,C#2,62.5,0.5,95,120.0
289,A3,63.0,1.0,95,120.0
290,A2,63.0,1.0,95,120.0
291,B-2,63.0,1.0,95,120.0
292,D2,63.0,1.0,95,120.0
293,B2,64.0,0.25,95,120.0
294,B1,64.0,0.5,95,120.0
295,C#3,64.0,1.0,95,120.0
296,C2,64.0,1.0,95,120.0
297,B2,64.25,0.25,95,120.0
298,B2,64.5,0.25,95,120.0
299,B2,64.75,0.25,95,120.0
300,B1,65.0,0.5,95,120.0
301,D4,65.0,0.25,95,120.0
302,A3,65.0,0.25,95,120.0
303,B-2,65.0,1.0,95,120.0
304,D2,65.0,1.0,95,120.0
305,E4,65.25,0.25,95,120.0
306,B3,65.25,0.25,95,120.0
307,D4,65.5,1.0,95,120.0
308,A3,65.5,1.0,95,120.0
309,B1,66.0,0.5,95,120.0
310,B-2,66.0,1.0,95,120.0
311,C2,66.0,1.0,95,120.0
312,D4,66.5,1.0,95,120.0
313,A3,66.5,1.0,95,120.0
314,B1,67.0,0.5,95,120.0
315,B-2,67.0,1.0,95,120.0
316,D2,67.0,1.0,95,120.0
317,D3,67.5,0.062,95,120.0
318,D3,67.75,0.062,95,120.0
319,B1,68.0,0.5,95,120.0
320,A3,68.0,1.5,95,120.0
321,E3,68.0,1.5,95,120.0
322,A2,68.0,1.5,95,120.0
323,B-2,68.0,1.0,95,120.0
324,C2,68.0,1.0,95,120.0
325,B1,69.0,0.5,95,120.0
326,B-2,69.0,1.0,95,120.0
327,D2,69.0,1.0,95,120.0
328,G3,69.5,1.0,95,120.0
329,D3,69.5,1.0,95,120.0
330,G2,69.5,1.0,95,120.0
331,B1,70.0,0.5,95,120.0
332,B-2,70.0,1.0,95,120.0
333,C2,70.0,1.0,95,120.0
334,E3,70.5,0.25,95,120.0
335,D3,70.75,0.25,95,120.0
336,F#3,71.0,0.25,95,120.0
337,B1,71.0,0.5,95,120.0
338,B-2,71.0,1.0,95,120.0
339,D2,71.0,1.0,95,120.0
340,E3,71.25,0.25,95,120.0
341,D3,71.5,0.25,95,120.0
342,C#3,71.75,0.25,95,120.0
343,B2,72.0,0.25,95,120.0
344,B1,72.0,0.5,95,120.0
345,B-2,72.0,1.0,95,120.0
346,C2,72.0,1.0,95,120.0
347,B2,72.25,0.25,95,120.0
348,B2,72.5,0.25,95,120.0
349,B2,72.75,0.25,95,120.0
350,B1,73.0,0.5,95,120.0
351,D4,73.0,0.25,95,120.0
352,A3,73.0,0.25,95,120.0
353,B-2,73.0,1.0,95,120.0
354,D2,73.0,1.0,95,120.0
355,E4,73.25,0.25,95,120.0
356,B3,73.25,0.25,95,120.0
357,D4,73.5,1.0,95,120.0
358,A3,73.5,1.0,95,120.0
359,B1,74.0,0.5,95,120.0
360,B-2,74.0,1.0,95,120.0
361,C2,74.0,1.0,95,120.0
362,D4,74.5,1.0,95,120.0
363,A3,74.5,1.0,95,120.0
364,B1,75.0,0.5,95,120.0
365,B-2,75.0,1.0,95,120.0
366,D2,75.0,1.0,95,120.0
367,D3,75.5,0.062,95,120.0
368,D3,75.75,0.062,95,120.0
369,G3,76.0,0.5,95,120.0
370,G1,76.0,0.5,95,120.0
371,B-2,76.0,1.0,95,120.0
372,C2,76.0,1.0,95,120.0
373,D4,76.5,0.5,95,120.0
374,D2,76.5,0.5,95,120.0
375,B3,77.0,0.5,95,120.0
376,B1,77.0,0.5,95,120.0
377,B-2,77.0,1.0,95,120.0
378,D2,77.0,1.0,95,120.0
379,G3,77.5,0.5,95,120.0
380,G1,77.5,0.5,95,120.0
381,E4,78.0,0.5,95,120.0
382,E1,78.0,0.5,95,120.0
383,B-2,78.0,1.0,95,120.0
384,C2,78.0,1.0,95,120.0
385,C#4,78.5,0.5,95,120.0
386,C#2,78.5,0.5,95,120.0
387,A3,79.0,1.0,95,120.0
388,A2,79.0,1.0,95,120.0
389,B-2,79.0,1.0,95,120.0
390,D2,79.0,1.0,95,120.0
391,B2,80.0,0.25,95,120.0
392,B1,80.0,0.5,95,120.0
393,C#3,80.0,1.0,95,120.0
394,C2,80.0,1.0,95,120.0
395,B2,80.25,0.25,95,120.0
396,B2,80.5,0.25,95,120.0
397,B2,80.75,0.25,95,120.0
398,B1,81.0,0.5,95,120.0
399,D4,81.0,0.25,95,120.0
400,A3,81.0,0.25,95,120.0
401,F#2,81.0,1.0,95,120.0
402,D2,81.0,1.0,95,120.0
403,E4,81.25,0.25,95,120.0
404,B3,81.25,0.25,95,120.0
405,D4,81.5,1.0,95,120.0
406,A3,81.5,1.0,95,120.0
407,B1,82.0,0.5,95,120.0
408,F#2,82.0,1.0,95,120.0
409,C2,82.0,1.0,95,120.0
410,D4,82.5,1.0,95,120.0
411,A3,82.5,1.0,95,120.0
412,B1,83.0,0.5,95,120.0
413,F#2,83.0,1.0,95,120.0
414,D2,83.0,1.0,95,120.0
415,D3,83.5,0.062,95,120.0
416,D3,83.75,0.062,95,120.0
417,B1,84.0,0.5,95,120.0
418,A3,84.0,1.5,95,120.0
419,E3,84.0,1.5,95,120.0
420,A2,84.0,1.5,95,120.0
421,F#2,84.0,1.0,95,120.0
422,C2,84.0,1.0,95,120.0
423,B1,85.0,0.5,95,120.0
424,F#2,85.0,1.0,95,120.0
425,D2,85.0,1.0,95,120.0
426,G3,85.5,1.0,95,120.0
427,D3,85.5,1.0,95,120.0
428,G2,85.5,1.0,95,120.0
429,B1,86.0,0.5,95,120.0
430,F#2,86.0,1.0,95,120.0
431,C2,86.0,1.0,95,120.0
432,E3,86.5,0.25,95,120.0
433,D3,86.75,0.25,95,120.0
434,F#3,87.0,0.25,95,120.0
435,B1,87.0,0.5,95,120.0
436,F#2,87.0,1.0,95,120.0
437,D2,87.0,1.0,95,120.0
438,E3,87.25,0.25,95,120.0
439,D3,87.5,0.25,95,120.0
440,C#3,87.75,0.25,95,120.0
441,B2,88.0,0.25,95,120.0
442,B1,88.0,0.5,95,120.0
443,F#2,88.0,1.0,95,120.0
444,C2,88.0,1.0,95,120.0
445,B2,88.25,0.25,95,120.0
446,B2,88.5,0.25,95,120.0
447,B2,88.75,0.25,95,120.0
448,B1,89.0,0.5,95,120.0
449,D4,89.0,0.25,95,120.0
450,A3,89.0,0.25,95,120.0
451,F#2,89.0,1.0,95,120.0
452,D2,89.0,1.0,95,120.0
453,E4,89.25,0.25,95,120.0
454,B3,89.25,0.25,95,120.0
455,D4,89.5,1.0,95,120.0
456,A3,89.5,1.0,95,120.0
457,B1,90.0,0.5,95,120.0
458,F#2,90.0,1.0,95,120.0
459,C2,90.0,1.0,95,120.0
460,D4,90.5,1.0,95,120.0
461,A3,90.5,1.0,95,120.0
462,B1,91.0,0.5,95,120.0
463,F#2,91.0,1.0,95,120.0
464,D2,91.0,1.0,95,120.0
465,D3,91.5,0.062,95,120.0
466,D3,91.75,0.062,95,120.0
467,B1,92.0,0.5,95,120.0
468,A3,92.0,1.5,95,120.0
469,E3,92.0,1.5,95,120.0
470,A2,92.0,1.5,95,120.0
471,F#2,92.0,1.0,95,120.0
472,C2,92.0,1.0,95,120.0
473,B1,93.0,0.5,95,120.0
474,F#2,93.0,1.0,95,120.0
475,D2,93.0,1.0,95,120.0
476,G3,93.5,1.0,95,120.0
477,D3,93.5,1.0,95,120.0
478,G2,93.5,1.0,95,120.0
479,B1,94.0,0.5,95,120.0
480,F#2,94.0,1.0,95,120.0
481,C2,94.0,1.0,95,120.0
482,E3,94.5,0.25,95,120.0
483,D3,94.75,0.25,95,120.0
484,F#3,95.0,0.25,95,120.0
485,B1,95.0,0.5,95,120.0
486,F#2,95.0,1.0,95,120.0
487,D2,95.0,1.0,95,120.0
488,E3,95.25,0.25,95,120.0
489,D3,95.5,0.25,95,120.0
490,C#3,95.75,0.25,95,120.0
491,B2,96.0,0.25,95,120.0
492,B1,96.0,0.5,95,120.0
493,C#3,96.0,1.0,95,120.0
494,C2,96.0,1.0,95,120.0
495,B2,96.25,0.25,95,120.0
496,B2,96.5,0.25,95,120.0
497,B2,96.75,0.25,95,120.0
498,B1,97.0,0.5,95,120.0
499,D4,97.0,0.25,95,120.0
500,A3,97.0,0.25,95,120.0
501,F#2,97.0,1.0,95,120.0
502,D2,97.0,1.0,95,120.0
503,E4,97.25,0.25,95,120.0
504,B3,97.25,0.25,95,120.0
505,D4,97.5,1.0,95,120.0
506,A3,97.5,1.0,95,120.0
507,B1,98.0,0.5,95,120.0
508,F#2,98.0,1.0,95,120.0
509,C2,98.0,1.0,95,120.0
510,D4,98.5,1.0,95,120.0
511,A3,98.5,1.0,95,120.0
512,B1,99.0,0.5,95,120.0
513,F#2,99.0,1.0,95,120.0
514,D2,99.0,1.0,95,120.0
515,D3,99.5,0.062,95,120.0
516,D3,99.75,0.062,95,120.0
517,B1,100.0,0.5,95,120.0
518,A3,100.0,1.5,95,120.0
519,E3,100.0,1.5,95,120.0
520,A2,100.0,1.5,95,120.0
521,F#2,100.0,1.0,95,120.0
522,C2,100.0,1.0,95,120.0
523,B1,101.0,0.5,95,120.0
524,F#2,101.0,1.0,95,120.0
525,D2,101.0,1.0,95,120.0
526,G3,101.5,1.0,95,120.0
527,D3,101.5,1.0,95,120.0
528,G2,101.5,1.0,95,120.0
529,B1,102.0,0.5,95,120.0
530,F#2,102.0,1.0,95,120.0
531,C2,102.0,1.0,95,120.0
532,E3,102.5,0.25,95,120.0
533,D3,102.75,0.25,95,120.0
534,F#3,103.0,0.25,95,120.0
535,B1,103.0,0.5,95,120.0
536,F#2,103.0,1.0,95,120.0
537,D2,103.0,1.0,95,120.0
538,E3,103.25,0.25,95,120.0
539,D3,103.5,0.25,95,120.0
540,C#3,103.75,0.25,95,120.0
541,B2,104.0,0.25,95,120.0
542,B1,104.0,0.5,95,120.0
543,F#2,104.0,1.0,95,120.0
544,C2,104.0,1.0,95,120.0
545,B2,104.25,0.25,95,120.0
546,B2,104.5,0.25,95,120.0
547,B2,104.75,0.25,95,120.0
548,B1,105.0,0.5,95,120.0
549,D4,105.0,0.25,95,120.0
550,A3,105.0,0.25,95,120.0
551,F#2,105.0,1.0,95,120.0
552,D2,105.0,1.0,95,120.0
553,E4,105.25,0.25,95,120.0
554,B3,105.25,0.25,95,120.0
555,D4,105.5,1.0,95,120.0
556,A3,105.5,1.0,95,120.0
557,B1,106.0,0.5,95,120.0
558,F#2,106.0,1.0,95,120.0
559,C2,106.0,1.0,95,120.0
560,D4,106.5,1.0,95,120.0
561,A3,106.5,1.0,95,120.0
562,B1,107.0,0.5,95,120.0
563,F#2,107.0,1.0,95,120.0
564,D2,107.0,1.0,95,120.0
565,D3,107.5,0.062,95,120.0
566,D3,107.75,0.062,95,120.0
567,B1,108.0,0.5,95,120.0
568,A3,108.0,1.5,95,120.0
569,E3,108.0,1.5,95,120.0
570,A2,108.0,1.5,95,120.0
571,B-2,108.0,1.0,95,120.0
572,C2,108.0,1.0,95,120.0
573,B1,109.0,0.5,95,120.0
574,B-2,109.0,1.0,95,120.0
575,D2,109.0,1.0,95,120.0
576,G3,109.5,1.0,95,120.0
577,D3,109.5,1.0,95,120.0
578,G2,109.5,1.0,95,120.0
579,B1,110.0,0.5,95,120.0
580,B-2,110.0,1.0,95,120.0
581,C2,110.0,1.0,95,120.0
582,E3,110.5,0.25,95,120.0
583,D3,110.75,0.25,95,120.0
584,F#3,111.0,0.25,95,120.0
585,B1,111.0,0.5,95,120.0
586,B-2,111.0,1.0,95,120.0
587,D2,111.0,1.0,95,120.0
588,E3,111.25,0.25,95,120.0
589,D3,111.5,0.25,95,120.0
590,C#3,111.75,0.25,95,120.0
591,D3,112.0,0.25,95,120.0
592,D2,112.0,0.25,95,120.0
593,F#2,112.0,0.25,95,120.0
594,C2,112.0,0.25,95,120.0
595,C#3,112.0,0.25,95,120.0
596,B-2,112.0,0.25,95,120.0
597,D3,112.25,0.25,95,120.0
598,G1,112.25,0.25,95,120.0
599,F#2,112.25,0.25,95,120.0
600,D3,112.5,0.25,95,120.0
601,G1,112.5,0.25,95,120.0
602,F#2,112.5,0.25,95,120.0
603,D3,112.75,0.25,95,120.0
604,G1,112.75,0.25,95,120.0
605,F#2,112.75,0.25,95,120.0
606,D2,113.0,0.25,95,120.0
607,C4,113.0,0.25,95,120.0
608,G3,113.0,0.25,95,120.0
609,F#2,113.0,0.25,95,120.0
610,D2,113.0,0.25,95,120.0
611,B-2,113.0,0.25,95,120.0
612,G1,113.25,0.25,95,120.0
613,F#2,113.25,0.25,95,120.0
614,D4,113.25,0.25,95,120.0
615,A3,113.25,0.25,95,120.0
616,G1,113.5,0.25,95,120.0
617,F#2,113.5,0.25,95,120.0
618,C4,113.5,1.0,95,120.0
619,G3,113.5,1.0,95,120.0
620,G1,113.75,0.25,95,120.0
621,F#2,113.75,0.25,95,120.0
622,D2,114.0,0.25,95,120.0
623,F#2,114.0,0.25,95,120.0
624,C2,114.0,0.25,95,120.0
625,B-2,114.0,0.25,95,120.0
626,G1,114.25,0.25,95,120.0
627,F#2,114.25,0.25,95,120.0
628,G1,114.5,0.25,95,120.0
629,F#2,114.5,0.25,95,120.0
630,C4,114.5,1.0,95,120.0
631,G3,114.5,1.0,95,120.0
632,G1,114.75,0.25,95,120.0
633,F#2,114.75,0.25,95,120.0
634,D2,115.0,0.25,95,120.0
635,F#2,115.0,0.25,95,120.0
636,D2,115.0,0.25,95,120.0
637,B-2,115.0,0.25,95,120.0
638,G1,115.25,0.25,95,120.0
639,F#2,115.25,0.25,95,120.0
640,D3,115.5,0.062,95,120.0
641,G1,115.5,0.25,95,120.0
642,F#2,115.5,0.25,95,120.0
643,D3,115.75,0.062,95,120.0
644,G1,115.75,0.25,95,120.0
645,F#2,115.75,0.25,95,120.0
646,D2,116.0,0.25,95,120.0
647,C4,116.0,1.5,95,120.0
648,G3,116.0,1.5,95,120.0
649,C3,116.0,1.5,95,120.0
650,F#2,116.0,0.25,95,120.0
651,C2,116.0,0.25,95,120.0
652,C#3,116.0,0.25,95,120.0
653,B-2,116.0,0.25,95,120.0
654,G1,116.25,0.25,95,120.0
655,F#2,116.25,0.25,95,120.0
656,G1,116.5,0.25,95,120.0
657,F#2,116.5,0.25,95,120.0
658,G1,116.75,0.25,95,120.0
659,F#2,116.75,0.25,95,120.0
660,D2,117.0,0.25,95,120.0
661,F#2,117.0,0.25,95,120.0
662,D2,117.0,0.25,95,120.0
663,B-2,117.0,0.25,95,120.0
664,G1,117.25,0.25,95,120.0
665,F#2,117.25,0.25,95,120.0
666,G1,117.5,0.25,95,120.0
667,F#2,117.5,0.25,95,120.0
668,G3,117.5,2.5,95,120.0
669,D3,117.5,2.5,95,120.0
670,G2,117.5,2.5,95,120.0
671,G1,117.75,0.25,95,120.0
672,F#2,117.75,0.25,95,120.0
673,D2,118.0,0.25,95,120.0
674,F#2,118.0,0.25,95,120.0
675,C2,118.0,0.25,95,120.0
676,B-2,118.0,0.25,95,120.0
677,G1,118.25,0.25,95,120.0
678,F#2,118.25,0.25,95,120.0
679,G1,118.5,0.25,95,120.0
680,F#2,118.5,0.25,95,120.0
681,G1,118.75,0.25,95,120.0
682,F#2,118.75,0.25,95,120.0
683,D2,119.0,0.25,95,120.0
684,F#2,119.0,0.25,95,120.0
685,D2,119.0,0.25,95,120.0
686,B-2,119.0,0.25,95,120.0
687,G1,119.25,0.25,95,120.0
688,F#2,119.25,0.25,95,120.0
689,G1,119.5,0.25,95,120.0
690,F#2,119.5,0.25,95,120.0
691,G1,119.75,0.25,95,120.0
692,F#2,119.75,0.25,95,120.0
693,D3,120.0,0.25,95,120.0
694,D2,120.0,0.25,95,120.0
695,F#2,120.0,0.25,95,120.0
696,C2,120.0,0.25,95,120.0
697,C#3,120.0,0.25,95,120.0
698,B-2,120.0,0.25,95,120.0
699,D3,120.25,0.25,95,120.0
700,G1,120.25,0.25,95,120.0
701,F#2,120.25,0.25,95,120.0
702,D3,120.5,0.25,95,120.0
703,G1,120.5,0.25,95,120.0
704,F#2,120.5,0.25,95,120.0
705,D3,120.75,0.25,95,120.0
706,G1,120.75,0.25,95,120.0
707,F#2,120.75,0.25,95,120.0
708,D2,121.0,0.25,95,120.0
709,C4,121.0,0.25,95,120.0
710,G3,121.0,0.25,95,120.0
711,F#2,121.0,0.25,95,120.0
712,D2,121.0,0.25,95,120.0
713,B-2,121.0,0.25,95,120.0
714,G1,121.25,0.25,95,120.0
715,F#2,121.25,0.25,95,120.0
716,D4,121.25,0.25,95,120.0
717,A3,121.25,0.25,95,120.0
718,G1,121.5,0.25,95,120.0
719,F#2,121.5,0.25,95,120.0
720,C4,121.5,1.0,95,120.0
721,G3,121.5,1.0,95,120.0
722,G1,121.75,0.25,95,120.0
723,F#2,121.75,0.25,95,120.0
724,D2,122.0,0.25,95,120.0
725,F#2,122.0,0.25,95,120.0
726,C2,122.0,0.25,95,120.0
727,B-2,122.0,0.25,95,120.0
728,G1,122.25,0.25,95,120.0
729,F#2,122.25,0.25,95,120.0
730,G1,122.5,0.25,95,120.0
731,F#2,122.5,0.25,95,120.0
732,C4,122.5,1.0,95,120.0
733,G3,122.5,1.0,95,120.0
734,G1,122.75,0.25,95,120.0
735,F#2,122.75,0.25,95,120.0
736,D2,123.0,0.25,95,120.0
737,F#2,123.0,0.25,95,120.0
738,D2,123.0,0.25,95,120.0
739,B-2,123.0,0.25,95,120.0
740,G1,123.25,0.25,95,120.0
741,F#2,123.25,0.25,95,120.0
742,D3,123.5,0.062,95,120.0
743,G1,123.5,0.25,95,120.0
744,F#2,123.5,0.25,95,120.0
745,D3,123.75,0.062,95,120.0
746,G1,123.75,0.25,95,120.0
747,F#2,123.75,0.25,95,120.0
748,D2,124.0,0.25,95,120.0
749,C4,124.0,1.5,95,120.0
750,G3,124.0,1.5,95,120.0
751,C3,124.0,1.5,95,120.0
752,F#2,124.0,0.25,95,120.0
753,C2,124.0,0.25,95,120.0
754,C#3,124.0,0.25,95,120.0
755,B-2,124.0,0.25,95,120.0
756,G1,124.25,0.25,95,120.0
757,F#2,124.25,0.25,95,120.0
758,G1,124.5,0.25,95,120.0
759,F#2,124.5,0.25,95,120.0
760,G1,124.75,0.25,95,120.0
761,F#2,124.75,0.25,95,120.0
762,D2,125.0,0.25,95,120.0
763,F#2,125.0,0.25,95,120.0
764,D2,125.0,0.25,95,120.0
765,B-2,125.0,0.25,95,120.0
766,G1,125.25,0.25,95,120.0
767,F#2,125.25,0.25,95,120.0
768,G1,125.5,0.25,95,120.0
769,F#2,125.5,0.25,95,120.0
770,G3,125.5,2.5,95,120.0
771,D3,125.5,2.5,95,120.0
772,G2,125.5,2.5,95,120.0
773,G1,125.75,0.25,95,120.0
774,F#2,125.75,0.25,95,120.0
775,D2,126.0,0.25,95,120.0
776,F#2,126.0,0.25,95,120.0
777,C2,126.0,0.25,95,120.0
778,B-2,126.0,0.25,95,120.0
779,G1,126.25,0.25,95,120.0
780,F#2,126.25,0.25,95,120.0
781,G1,126.5,0.25,95,120.0
782,F#2,126.5,0.25,95,120.0
783,G1,126.75,0.25,95,120.0
784,F#2,126.75,0.25,95,120.0
785,D2,127.0,0.25,95,120.0
786,F#2,127.0,0.25,95,120.0
787,D2,127.0,0.25,95,120.0
788,B-2,127.0,0.25,95,120.0
789,G1,127.25,0.25,95,120.0
790,F#2,127.25,0.25,95,120.0
791,G1,127.5,0.25,95,120.0
792,F#2,127.5,0.25,95,120.0
793,G1,127.75,0.25,95,120.0
794,F#2,127.75,0.25,95,120.0
795,E3,128.0,0.25,95,120.0
796,E2,128.0,0.25,95,120.0
797,F#2,128.0,0.25,95,120.0
798,C2,128.0,0.25,95,120.0
799,C#3,128.0,0.25,95,120.0
800,B-2,128.0,0.25,95,120.0
801,E3,128.25,0.25,95,120.0
802,A1,128.25,0.25,95,120.0
803,F#2,128.25,0.25,95,120.0
804,E3,128.5,0.25,95,120.0
805,A1,128.5,0.25,95,120.0
806,F#2,128.5,0.25,95,120.0
807,E3,128.75,0.25,95,120.0
808,A1,128.75,0.25,95,120.0
809,F#2,128.75,0.25,95,120.0
810,E2,129.0,0.25,95,120.0
811,D4,129.0,0.25,95,120.0
812,A3,129.0,0.25,95,120.0
813,F#2,129.0,0.25,95,120.0
814,D2,129.0,0.25,95,120.0
815,B-2,129.0,0.25,95,120.0
816,A1,129.25,0.25,95,120.0
817,F#2,129.25,0.25,95,120.0
818,E4,129.25,0.25,95,120.0
819,B3,129.25,0.25,95,120.0
820,A1,129.5,0.25,95,120.0
821,F#2,129.5,0.25,95,120.0
822,D4,129.5,1.0,95,120.0
823,A3,129.5,1.0,95,120.0
824,A1,129.75,0.25,95,120.0
825,F#2,129.75,0.25,95,120.0
826,E2,130.0,0.25,95,120.0
827,F#2,130.0,0.25,95,120.0
828,C2,130.0,0.25,95,120.0
829,B-2,130.0,0.25,95,120.0
830,A1,130.25,0.25,95,120.0
831,F#2,130.25,0.25,95,120.0
832,A1,130.5,0.25,95,120.0
833,F#2,130.5,0.25,95,120.0
834,D4,130.5,1.0,95,120.0
835,A3,130.5,1.0,95,120.0
836,A1,130.75,0.25,95,120.0
837,F#2,130.75,0.25,95,120.0
838,E2,131.0,0.25,95,120.0
839,F#2,131.0,0.25,95,120.0
840,D2,131.0,0.25,95,120.0
841,B-2,131.0,0.25,95,120.0
842,A1,131.25,0.25,95,120.0
843,F#2,131.25,0.25,95,120.0
844,D3,131.5,0.062,95,120.0
845,A1,131.5,0.25,95,120.0
846,F#2,131.5,0.25,95,120.0
847,D3,131.75,0.062,95,120.0
848,A1,131.75,0.25,95,120.0
849,F#2,131.75,0.25,95,120.0
850,E2,132.0,0.25,95,120.0
851,D4,132.0,1.5,95,120.0
852,A3,132.0,1.5,95,120.0
853,D3,132.0,1.5,95,120.0
854,F#2,132.0,0.25,95,120.0
855,C2,132.0,0.25,95,120.0
856,C#3,132.0,0.25,95,120.0
857,B-2,132.0,0.25,95,120.0
858,A1,132.25,0.25,95,120.0
859,F#2,132.25,0.25,95,120.0
860,A1,132.5,0.25,95,120.0
861,F#2,132.5,0.25,95,120.0
862,A1,132.75,0.25,95,120.0
863,F#2,132.75,0.25,95,120.0
864,E2,133.0,0.25,95,120.0
865,F#2,133.0,0.25,95,120.0
866,D2,133.0,0.25,95,120.0
867,B-2,133.0,0.25,95,120.0
868,A1,133.25,0.25,95,120.0
869,F#2,133.25,0.25,95,120.0
870,A1,133.5,0.25,95,120.0
871,F#2,133.5,0.25,95,120.0
872,A3,133.5,2.5,95,120.0
873,E3,133.5,2.5,95,120.0
874,A2,133.5,2.5,95,120.0
875,A1,133.75,0.25,95,120.0
876,F#2,133.75,0.25,95,120.0
877,E2,134.0,0.25,95,120.0
878,F#2,134.0,0.25,95,120.0
879,C2,134.0,0.25,95,120.0
880,B-2,134.0,0.25,95,120.0
881,A1,134.25,0.25,95,120.0
882,F#2,134.25,0.25,95,120.0
883,A1,134.5,0.25,95,120.0
884,F#2,134.5,0.25,95,120.0
885,A1,134.75,0.25,95,120.0
886,F#2,134.75,0.25,95,120.0
887,E2,135.0,0.25,95,120.0
888,F#2,135.0,0.25,95,120.0
889,D2,135.0,0.25,95,120.0
890,B-2,135.0,0.25,95,120.0
891,A1,135.25,0.25,95,120.0
892,F#2,135.25,0.25,95,120.0
893,A1,135.5,0.25,95,120.0
894,F#2,135.5,0.25,95,120.0
895,A1,135.75,0.25,95,120.0
896,F#2,135.75,0.25,95,120.0
897,E3,136.0,0.25,95,120.0
898,E2,136.0,0.25,95,120.0
899,F#2,136.0,0.25,95,120.0
900,C2,136.0,0.25,95,120.0
901,C#3,136.0,0.25,95,120.0
902,B-2,136.0,0.25,95,120.0
903,E3,136.25,0.25,95,120.0
904,A1,136.25,0.25,95,120.0
905,F#2,136.25,0.25,95,120.0
906,E3,136.5,0.25,95,120.0
907,A1,136.5,0.25,95,120.0
908,F#2,136.5,0.25,95,120.0
909,E3,136.75,0.25,95,120.0
910,A1,136.75,0.25,95,120.0
911,F#2,136.75,0.25,95,120.0
912,E2,137.0,0.25,95,120.0
913,D4,137.0,0.25,95,120.0
914,A3,137.0,0.25,95,120.0
915,F#2,137.0,0.25,95,120.0
916,D2,137.0,0.25,95,120.0
917,B-2,137.0,0.25,95,120.0
918,A1,137.25,0.25,95,120.0
919,F#2,137.25,0.25,95,120.0
920,E4,137.25,0.25,95,120.0
921,B3,137.25,0.25,95,120.0
922,A1,137.5,0.25,95,120.0
923,F#2,137.5,0.25,95,120.0
924,D4,137.5,1.0,95,120.0
925,A3,137.5,1.0,95,120.0
926,A1,137.75,0.25,95,120.0
927,F#2,137.75,0.25,95,120.0
928,E2,138.0,0.25,95,120.0
929,F#2,138.0,0.25,95,120.0
930,C2,138.0,0.25,95,120.0
931,B-2,138.0,0.25,95,120.0
932,A1,138.25,0.25,95,120.0
933,F#2,138.25,0.25,95,120.0
934,A1,138.5,0.25,95,120.0
935,F#2,138.5,0.25,95,120.0
936,D4,138.5,1.0,95,120.0
937,A3,138.5,1.0,95,120.0
938,A1,138.75,0.25,95,120.0
939,F#2,138.75,0.25,95,120.0
940,E2,139.0,0.25,95,120.0
941,F#2,139.0,0.25,95,120.0
942,D2,139.0,0.25,95,120.0
943,B-2,139.0,0.25,95,120.0
944,A1,139.25,0.25,95,120.0
945,F#2,139.25,0.25,95,120.0
946,D3,139.5,0.062,95,120.0
947,A1,139.5,0.25,95,120.0
948,F#2,139.5,0.25,95,120.0
949,D3,139.75,0.062,95,120.0
950,A1,139.75,0.25,95,120.0
951,F#2,139.75,0.25,95,120.0
952,E2,140.0,0.25,95,120.0
953,D4,140.0,1.5,95,120.0
954,A3,140.0,1.5,95,120.0
955,D3,140.0,1.5,95,120.0
956,F#2,140.0,0.25,95,120.0
957,D2,140.0,0.25,95,120.0
958,C#3,140.0,0.25,95,120.0
959,B-2,140.0,0.25,95,120.0
960,A1,140.25,0.25,95,120.0
961,A1,140.5,0.25,95,120.0
962,A1,140.75,0.25,95,120.0
963,E2,141.0,0.25,95,120.0
964,F#2,141.0,0.25,95,120.0
965,D2,141.0,0.25,95,120.0
966,C#3,141.0,0.25,95,120.0
967,B-2,141.0,0.25,95,120.0
968,A1,141.25,0.25,95,120.0
969,A1,141.5,0.25,95,120.0
970,A3,141.5,2.5,95,120.0
971,E3,141.5,2.5,95,120.0
972,A2,141.5,2.5,95,120.0
973,A1,141.75,0.25,95,120.0
974,E2,142.0,0.25,95,120.0
975,F#2,142.0,0.25,95,120.0
976,D2,142.0,0.25,95,120.0
977,C#3,142.0,0.25,95,120.0
978,B-2,142.0,0.25,95,120.0
979,A1,142.25,0.25,95,120.0
980,A1,142.5,0.25,95,120.0
981,A1,142.75,0.25,95,120.0
982,E2,143.0,0.25,95,120.0
983,F#2,143.0,0.25,95,120.0
984,D2,143.0,0.25,95,120.0
985,C#3,143.0,0.25,95,120.0
986,B-2,143.0,0.25,95,120.0
987,A1,143.25,0.75,95,120.0
988,B2,144.0,0.25,95,120.0
989,B1,144.0,0.5,95,120.0
990,C#3,144.0,1.0,95,120.0
991,C2,144.0,1.0,95,120.0
992,B2,144.25,0.25,95,120.0
993,B2,144.5,0.25,95,120.0
994,B2,144.75,0.25,95,120.0
995,B1,145.0,0.5,95,120.0
996,D4,145.0,0.25,95,120.0
997,A3,145.0,0.25,95,120.0
998,B-2,145.0,1.0,95,120.0
999,D2,145.0,1.0,95,120.0
1000,E4,145.25,0.25,95,120.0
1001,B3,145.25,0.25,95,120.0
1002,D4,145.5,1.0,95,120.0
1003,A3,145.5,1.0,95,120.0
1004,B1,146.0,0.5,95,120.0
1005,B-2,146.0,1.0,95,120.0
1006,C2,146.0,1.0,95,120.0
1007,D4,146.5,1.0,95,120.0
1008,A3,146.5,1.0,95,120.0
1009,B1,147.0,0.5,95,120.0
1010,B-2,147.0,1.0,95,120.0
1011,D2,147.0,1.0,95,120.0
1012,D3,147.5,0.062,95,120.0
1013,D3,147.75,0.062,95,120.0
1014,B1,148.0,0.5,95,120.0
1015,A3,148.0,1.5,95,120.0
1016,E3,148.0,1.5,95,120.0
1017,A2,148.0,1.5,95,120.0
1018,B-2,148.0,1.0,95,120.0
1019,C2,148.0,1.0,95,120.0
1020,B1,149.0,0.5,95,120.0
1021,B-2,149.0,1.0,95,120.0
1022,D2,149.0,1.0,95,120.0
1023,G3,149.5,1.0,95,120.0
1024,D3,149.5,1.0,95,120.0
1025,G2,149.5,1.0,95,120.0
1026,B1,150.0,0.5,95,120.0
1027,B-2,150.0,1.0,95,120.0
1028,C2,150.0,1.0,95,120.0
1029,E3,150.5,0.25,95,120.0
1030,D3,150.75,0.25,95,120.0
1031,F#3,151.0,0.25,95,120.0
1032,B1,151.0,0.5,95,120.0
1033,B-2,151.0,1.0,95,120.0
1034,D2,151.0,1.0,95,120.0
1035,E3,151.25,0.25,95,120.0
1036,D3,151.5,0.25,95,120.0
1037,C#3,151.75,0.25,95,120.0
1038,B2,152.0,0.25,95,120.0
1039,B1,152.0,0.5,95,120.0
1040,B-2,152.0,1.0,95,120.0
1041,C2,152.0,1.0,95,120.0
1042,B2,152.25,0.25,95,120.0
1043,B2,152.5,0.25,95,120.0
1044,B2,152.75,0.25,95,120.0
1045,B1,153.0,0.5,95,120.0
1046,D4,153.0,0.25,95,120.0
1047,A3,153.0,0.25,95,120.0
1048,B-2,153.0,1.0,95,120.0
1049,D2,153.0,1.0,95,120.0
1050,E4,153.25,0.25,95,120.0
1051,B3,153.25,0.25,95,120.0
1052,D4,153.5,1.0,95,120.0
1053,A3,153.5,1.0,95,120.0
1054,B1,154.0,0.5,95,120.0
1055,B-2,154.0,1.0,95,120.0
1056,C2,154.0,1.0,95,120.0
1057,D4,154.5,1.0,95,120.0
1058,A3,154.5,1.0,95,120.0
1059,B1,155.0,0.5,95,120.0
1060,B-2,155.0,1.0,95,120.0
1061,D2,155.0,1.0,95,120.0
1062,D3,155.5,0.062,95,120.0
1063,D3,155.75,0.062,95,120.0
1064,G3,156.0,0.5,95,120.0
1065,G1,156.0,0.5,95,120.0
1066,B-2,156.0,1.0,95,120.0
1067,C2,156.0,1.0,95,120.0
1068,D4,156.5,0.5,95,120.0
1069,D2,156.5,0.5,95,120.0
1070,B3,157.0,0.5,95,120.0
1071,B1,157.0,0.5,95,120.0
1072,B-2,157.0,1.0,95,120.0
1073,D2,157.0,1.0,95,120.0
1074,G3,157.5,0.5,95,120.0
1075,G1,157.5,0.5,95,120.0
1076,E4,158.0,0.5,95,120.0
1077,E1,158.0,0.5,95,120.0
1078,B-2,158.0,1.0,95,120.0
1079,C2,158.0,1.0,95,120.0
1080,C#4,158.5,0.5,95,120.0
1081,C#2,158.5,0.5,95,120.0
1082,A3,159.0,1.0,95,120.0
1083,A2,159.0,1.0,95,120.0
1084,B-2,159.0,1.0,95,120.0
1085,D2,159.0,1.0,95,120.0
1086,B2,160.0,0.25,95,120.0
1087,B1,160.0,0.5,95,120.0
1088,C#3,160.0,1.0,95,120.0
1089,C2,160.0,1.0,95,120.0
1090,B2,160.25,0.25,95,120.0
1091,B2,160.5,0.25,95,120.0
1092,B2,160.75,0.25,95,120.0
1093,B1,161.0,0.5,95,120.0
1094,D4,161.0,0.25,95,120.0
1095,A3,161.0,0.25,95,120.0
1096,B-2,161.0,1.0,95,120.0
1097,D2,161.0,1.0,95,120.0
1098,E4,161.25,0.25,95,120.0
1099,B3,161.25,0.25,95,120.0
1100,D4,161.5,1.0,95,120.0
1101,A3,161.5,1.0,95,120.0
1102,B1,162.0,0.5,95,120.0
1103,B-2,162.0,1.0,95,120.0
1104,C2,162.0,1.0,95,120.0
1105,D4,162.5,1.0,95,120.0
1106,A3,162.5,1.0,95,120.0
1107,B1,163.0,0.5,95,120.0
1108,B-2,163.0,1.0,95,120.0
1109,D2,163.0,1.0,95,120.0
1110,D3,163.5,0.062,95,120.0
1111,D3,163.75,0.062,95,120.0
1112,B1,164.0,0.5,95,120.0
1113,A3,164.0,1.5,95,120.0
1114,E3,164.0,1.5,95,120.0
1115,A2,164.0,1.5,95,120.0
1116,B-2,164.0,1.0,95,120.0
1117,C2,164.0,1.0,95,120.0
1118,B1,165.0,0.5,95,120.0
1119,B-2,165.0,1.0,95,120.0
1120,D2,165.0,1.0,95,120.0
1121,G3,165.5,1.0,95,120.0
1122,D3,165.5,1.0,95,120.0
1123,G2,165.5,1.0,95,120.0
1124,B1,166.0,0.5,95,120.0
1125,B-2,166.0,1.0,95,120.0
1126,C2,166.0,1.0,95,120.0
1127,E3,166.5,0.25,95,120.0
1128,D3,166.75,0.25,95,120.0
1129,F#3,167.0,0.25,95,120.0
1130,B1,167.0,0.5,95,120.0
1131,B-2,167.0,1.0,95,120.0
1132,D2,167.0,1.0,95,120.0
1133,E3,167.25,0.25,95,120.0
1134,D3,167.5,0.25,95,120.0
1135,C#3,167.75,0.25,95,120.0
1136,B2,168.0,0.25,95,120.0
1137,B1,168.0,0.5,95,120.0
1138,B-2,168.0,1.0,95,120.0
1139,C2,168.0,1.0,95,120.0
1140,B2,168.25,0.25,95,120.0
1141,B2,168.5,0.25,95,120.0
1142,B2,168.75,0.25,95,120.0
1143,B1,169.0,0.5,95,120.0
1144,D4,169.0,0.25,95,120.0
1145,A3,169.0,0.25,95,120.0
1146,B-2,169.0,1.0,95,120.0
1147,D2,169.0,1.0,95,120.0
1148,E4,169.25,0.25,95,120.0
1149,B3,169.25,0.25,95,120.0
1150,D4,169.5,1.0,95,120.0
1151,A3,169.5,1.0,95,120.0
1152,B1,170.0,0.5,95,120.0
1153,B-2,170.0,1.0,95,120.0
1154,C2,170.0,1.0,95,120.0
1155,D4,170.5,1.0,95,120.0
1156,A3,170.5,1.0,95,120.0
1157,B1,171.0,0.5,95,120.0
1158,B-2,171.0,1.0,95,120.0
1159,D2,171.0,1.0,95,120.0
1160,D3,171.5,0.062,95,120.0
1161,D3,171.75,0.062,95,120.0
1162,G3,172.0,0.5,95,120.0
1163,G1,172.0,0.5,95,120.0
1164,B-2,172.0,1.0,95,120.0
1165,C2,172.0,1.0,95,120.0
1166,D4,172.5,0.5,95,120.0
1167,D2,172.5,0.5,95,120.0
1168,B3,173.0,0.5,95,120.0
1169,B1,173.0,0.5,95,120.0
1170,B-2,173.0,1.0,95,120.0
1171,D2,173.0,1.0,95,120.0
1172,G3,173.5,0.5,95,120.0
1173,G1,173.5,0.5,95,120.0
1174,E4,174.0,0.5,95,120.0
1175,E1,174.0,0.5,95,120.0
1176,B-2,174.0,1.0,95,120.0
1177,C2,174.0,1.0,95,120.0
1178,C#4,174.5,0.5,95,120.0
1179,C#2,174.5,0.5,95,120.0
1180,A3,175.0,1.0,95,120.0
1181,A2,175.0,1.0,95,120.0
1182,B-2,175.0,1.0,95,120.0
1183,D2,175.0,1.0,95,120.0
1184,F1,176.0,0.5,95,120.0
1185,C3,176.0,4.0,95,120.0
1186,F2,176.0,4.0,95,120.0
1187,F#2,176.0,0.25,95,120.0
1188,C2,176.0,0.25,95,120.0
1189,C#3,176.0,0.25,95,120.0
1190,F#2,176.25,0.25,95,120.0
1191,F#2,176.5,0.25,95,120.0
1192,F#2,176.75,0.25,95,120.0
1193,F1,177.0,0.5,95,120.0
1194,F#2,177.0,0.25,95,120.0
1195,D2,177.0,0.25,95,120.0
1196,F#2,177.25,0.25,95,120.0
1197,F#2,177.5,0.25,95,120.0
1198,F#2,177.75,0.25,95,120.0
1199,F1,178.0,0.5,95,120.0
1200,F#2,178.0,0.25,95,120.0
1201,C2,178.0,0.25,95,120.0
1202,F#2,178.25,0.25,95,120.0
1203,F#2,178.5,0.25,95,120.0
1204,F#2,178.75,0.25,95,120.0
1205,F1,179.0,0.5,95,120.0
1206,F#2,179.0,0.25,95,120.0
1207,D2,179.0,0.25,95,120.0
1208,F#2,179.25,0.25,95,120.0
1209,F#2,179.5,0.25,95,120.0
1210,F#2,179.75,0.25,95,120.0
1211,A1,180.0,0.5,95,120.0
1212,E3,180.0,4.0,95,120.0
1213,A2,180.0,4.0,95,120.0
1214,F#2,180.0,0.25,95,120.0
1215,C2,180.0,0.25,95,120.0
1216,C#3,180.0,0.25,95,120.0
1217,F#2,180.25,0.25,95,120.0
1218,F#2,180.5,0.25,95,120.0
1219,F#2,180.75,0.25,95,120.0
1220,A1,181.0,0.5,95,120.0
1221,F#2,181.0,0.25,95,120.0
1222,D2,181.0,0.25,95,120.0
1223,F#2,181.25,0.25,95,120.0
1224,F#2,181.5,0.25,95,120.0
1225,F#2,181.75,0.25,95,120.0
1226,A1,182.0,0.5,95,120.0
1227,F#2,182.0,0.25,95,120.0
1228,C2,182.0,0.25,95,120.0
1229,F#2,182.25,0.25,95,120.0
1230,F#2,182.5,0.25,95,120.0
1231,F#2,182.75,0.25,95,120.0
1232,A1,183.0,0.5,95,120.0
1233,F#2,183.0,0.25,95,120.0
1234,D2,183.0,0.25,95,120.0
1235,F#2,183.25,0.25,95,120.0
1236,F#2,183.5,0.25,95,120.0
1237,F#2,183.75,0.25,95,120.0
1238,B-1,184.0,0.5,95,120.0
1239,F3,184.0,4.0,95,120.0
1240,B-2,184.0,4.0,95,120.0
1241,F#2,184.0,0.25,95,120.0
1242,C2,184.0,0.25,95,120.0
1243,C#3,184.0,0.25,95,120.0
1244,F#2,184.25,0.25,95,120.0
1245,F#2,184.5,0.25,95,120.0
1246,F#2,184.75,0.25,95,120.0
1247,B-1,185.0,0.5,95,120.0
1248,F#2,185.0,0.25,95,120.0
1249,D2,185.0,0.25,95,120.0
1250,F#2,185.25,0.25,95,120.0
1251,F#2,185.5,0.25,95,120.0
1252,F#2,185.75,0.25,95,120.0
1253,B-1,186.0,0.5,95,120.0
1254,F#2,186.0,0.25,95,120.0
1255,C2,186.0,0.25,95,120.0
1256,F#2,186.25,0.25,95,120.0
1257,F#2,186.5,0.25,95,120.0
1258,F#2,186.75,0.25,95,120.0
1259,B-1,187.0,0.5,95,120.0
1260,F#2,187.0,0.25,95,120.0
1261,D2,187.0,0.25,95,120.0
1262,F#2,187.25,0.25,95,120.0
1263,F#2,187.5,0.25,95,120.0
1264,F#2,187.75,0.25,95,120.0
1265,C2,188.0,0.5,95,120.0
1266,G3,188.0,4.0,95,120.0
1267,C3,188.0,4.0,95,120.0
1268,F#2,188.0,0.25,95,120.0
1269,C2,188.0,0.25,95,120.0
1270,C#3,188.0,0.25,95,120.0
1271,F#2,188.25,0.25,95,120.0
1272,F#2,188.5,0.25,95,120.0
1273,F#2,188.75,0.25,95,120.0
1274,C2,189.0,0.5,95,120.0
1275,F#2,189.0,0.25,95,120.0
1276,D2,189.0,0.25,95,120.0
1277,F#2,189.25,0.25,95,120.0
1278,F#2,189.5,0.25,95,120.0
1279,F#2,189.75,0.25,95,120.0
1280,C2,190.0,0.5,95,120.0
1281,F#2,190.0,0.25,95,120.0
1282,D2,190.0,0.25,95,120.0
1283,F#2,190.25,0.25,95,120.0
1284,F#2,190.5,0.25,95,120.0
1285,F#2,190.75,0.25,95,120.0
1286,C2,191.0,0.5,95,120.0
1287,F#2,191.0,0.25,95,120.0
1288,D2,191.0,0.25,95,120.0
1289,F#2,191.25,0.25,95,120.0
1290,F#2,191.5,0.25,95,120.0
1291,F#2,191.75,0.25,95,120.0
1292,B2,192.0,0.25,95,120.0
1293,B1,192.0,0.5,95,120.0
1294,C#3,192.0,1.0,95,120.0
1295,C2,192.0,1.0,95,120.0
1296,B2,192.25,0.25,95,120.0
1297,B2,192.5,0.25,95,120.0
1298,B2,192.75,0.25,95,120.0
1299,B1,193.0,0.5,95,120.0
1300,D4,193.0,0.25,95,120.0
1301,A3,193.0,0.25,95,120.0
1302,F#2,193.0,1.0,95,120.0
1303,D2,193.0,1.0,95,120.0
1304,E4,193.25,0.25,95,120.0
1305,B3,193.25,0.25,95,120.0
1306,D4,193.5,1.0,95,120.0
1307,A3,193.5,1.0,95,120.0
1308,B1,194.0,0.5,95,120.0
1309,F#2,194.0,1.0,95,120.0
1310,C2,194.0,1.0,95,120.0
1311,D4,194.5,1.0,95,120.0
1312,A3,194.5,1.0,95,120.0
1313,B1,195.0,0.5,95,120.0
1314,F#2,195.0,1.0,95,120.0
1315,D2,195.0,1.0,95,120.0
1316,D3,195.5,0.062,95,120.0
1317,D3,195.75,0.062,95,120.0
1318,B1,196.0,0.5,95,120.0
1319,A3,196.0,1.5,95,120.0
1320,E3,196.0,1.5,95,120.0
1321,A2,196.0,1.5,95,120.0
1322,F#2,196.0,1.0,95,120.0
1323,C2,196.0,1.0,95,120.0
1324,B1,197.0,0.5,95,120.0
1325,F#2,197.0,1.0,95,120.0
1326,D2,197.0,1.0,95,120.0
1327,G3,197.5,1.0,95,120.0
1328,D3,197.5,1.0,95,120.0
1329,G2,197.5,1.0,95,120.0
1330,B1,198.0,0.5,95,120.0
1331,F#2,198.0,1.0,95,120.0
1332,C2,198.0,1.0,95,120.0
1333,E3,198.5,0.25,95,120.0
1334,D3,198.75,0.25,95,120.0
1335,F#3,199.0,0.25,95,120.0
1336,B1,199.0,0.5,95,120.0
1337,F#2,199.0,1.0,95,120.0
1338,D2,199.0,1.0,95,120.0
1339,E3,199.25,0.25,95,120.0
1340,D3,199.5,0.25,95,120.0
1341,C#3,199.75,0.25,95,120.0
1342,B2,200.0,0.25,95,120.0
1343,B1,200.0,0.5,95,120.0
1344,F#2,200.0,1.0,95,120.0
1345,C2,200.0,1.0,95,120.0
1346,B2,200.25,0.25,95,120.0
1347,B2,200.5,0.25,95,120.0
1348,B2,200.75,0.25,95,120.0
1349,B1,201.0,0.5,95,120.0
1350,D4,201.0,0.25,95,120.0
1351,A3,201.0,0.25,95,120.0
1352,F#2,201.0,1.0,95,120.0
1353,D2,201.0,1.0,95,120.0
1354,E4,201.25,0.25,95,120.0
1355,B3,201.25,0.25,95,120.0
1356,D4,201.5,1.0,95,120.0
1357,A3,201.5,1.0,95,120.0
1358,B1,202.0,0.5,95,120.0
1359,F#2,202.0,1.0,95,120.0
1360,C2,202.0,1.0,95,120.0
1361,D4,202.5,1.0,95,120.0
1362,A3,202.5,1.0,95,120.0
1363,B1,203.0,0.5,95,120.0
1364,F#2,203.0,1.0,95,120.0
1365,D2,203.0,1.0,95,120.0
1366,D3,203.5,0.062,95,120.0
1367,D3,203.75,0.062,95,120.0
1368,B1,204.0,0.5,95,120.0
1369,A3,204.0,1.5,95,120.0
1370,E3,204.0,1.5,95,120.0
1371,A2,204.0,1.5,95,120.0
1372,F#2,204.0,1.0,95,120.0
1373,C2,204.0,1.0,95,120.0
1374,B1,205.0,0.5,95,120.0
1375,F#2,205.0,1.0,95,120.0
1376,D2,205.0,1.0,95,120.0
1377,G3,205.5,1.0,95,120.0
1378,D3,205.5,1.0,95,120.0
1379,G2,205.5,1.0,95,120.0
1380,B1,206.0,0.5,95,120.0
1381,F#2,206.0,1.0,95,120.0
1382,C2,206.0,1.0,95,120.0
1383,E3,206.5,0.25,95,120.0
1384,D3,206.75,0.25,95,120.0
1385,F#3,207.0,0.25,95,120.0
1386,B1,207.0,0.5,95,120.0
1387,F#2,207.0,1.0,95,120.0
1388,D2,207.0,1.0,95,120.0
1389,E3,207.25,0.25,95,120.0
1390,D3,207.5,0.25,95,120.0
1391,C#3,207.75,0.25,95,120.0
1392,B2,208.0,0.25,95,120.0
1393,B1,208.0,0.5,95,120.0
1394,C#3,208.0,1.0,95,120.0
1395,C2,208.0,1.0,95,120.0
1396,B2,208.25,0.25,95,120.0
1397,B2,208.5,0.25,95,120.0
1398,B2,208.75,0.25,95,120.0
1399,B1,209.0,0.5,95,120.0
1400,D4,209.0,0.25,95,120.0
1401,A3,209.0,0.25,95,120.0
1402,F#2,209.0,1.0,95,120.0
1403,D2,209.0,1.0,95,120.0
1404,E4,209.25,0.25,95,120.0
1405,B3,209.25,0.25,95,120.0
1406,D4,209.5,1.0,95,120.0
1407,A3,209.5,1.0,95,120.0
1408,B1,210.0,0.5,95,120.0
1409,F#2,210.0,1.0,95,120.0
1410,C2,210.0,1.0,95,120.0
1411,D4,210.5,1.0,95,120.0
1412,A3,210.5,1.0,95,120.0
1413,B1,211.0,0.5,95,120.0
1414,F#2,211.0,1.0,95,120.0
1415,D2,211.0,1.0,95,120.0
1416,D3,211.5,0.062,95,120.0
1417,D3,211.75,0.062,95,120.0
1418,B1,212.0,0.5,95,120.0
1419,A3,212.0,1.5,95,120.0
1420,E3,212.0,1.5,95,120.0
1421,A2,212.0,1.5,95,120.0
1422,F#2,212.0,1.0,95,120.0
1423,C2,212.0,1.0,95,120.0
1424,B1,213.0,0.5,95,120.0
1425,F#2,213.0,1.0,95,120.0
1426,D2,213.0,1.0,95,120.0
1427,G3,213.5,1.0,95,120.0
1428,D3,213.5,1.0,95,120.0
1429,G2,213.5,1.0,95,120.0
1430,B1,214.0,0.5,95,120.0
1431,F#2,214.0,1.0,95,120.0
1432,C2,214.0,1.0,95,120.0
1433,E3,214.5,0.25,95,120.0
1434,D3,214.75,0.25,95,120.0
1435,F#3,215.0,0.25,95,120.0
1436,B1,215.0,0.5,95,120.0
1437,F#2,215.0,1.0,95,120.0
1438,D2,215.0,1.0,95,120.0
1439,E3,215.25,0.25,95,120.0
1440,D3,215.5,0.25,95,120.0
1441,C#3,215.75,0.25,95,120.0
1442,B2,216.0,0.25,95,120.0
1443,B1,216.0,0.5,95,120.0
1444,F#2,216.0,1.0,95,120.0
1445,C2,216.0,1.0,95,120.0
1446,B2,216.25,0.25,95,120.0
1447,B2,216.5,0.25,95,120.0
1448,B2,216.75,0.25,95,120.0
1449,B1,217.0,0.5,95,120.0
1450,D4,217.0,0.25,95,120.0
1451,A3,217.0,0.25,95,120.0
1452,F#2,217.0,1.0,95,120.0
1453,D2,217.0,1.0,95,120.0
1454,E4,217.25,0.25,95,120.0
1455,B3,217.25,0.25,95,120.0
1456,D4,217.5,1.0,95,120.0
1457,A3,217.5,1.0,95,120.0
1458,B1,218.0,0.5,95,120.0
1459,F#2,218.0,1.0,95,120.0
1460,C2,218.0,1.0,95,120.0
1461,D4,218.5,1.0,95,120.0
1462,A3,218.5,1.0,95,120.0
1463,B1,219.0,0.5,95,120.0
1464,F#2,219.0,1.0,95,120.0
1465,D2,219.0,1.0,95,120.0
1466,D3,219.5,0.062,95,120.0
1467,D3,219.75,0.062,95,120.0
1468,B1,220.0,0.5,95,120.0
1469,A3,220.0,1.5,95,120.0
1470,E3,220.0,1.5,95,120.0
1471,A2,220.0,1.5,95,120.0
1472,B-2,220.0,1.0,95,120.0
1473,C2,220.0,1.0,95,120.0
1474,B1,221.0,0.5,95,120.0
1475,B-2,221.0,1.0,95,120.0
1476,D2,221.0,1.0,95,120.0
1477,G3,221.5,1.0,95,120.0
1478,D3,221.5,1.0,95,120.0
1479,G2,221.5,1.0,95,120.0
1480,B1,222.0,0.5,95,120.0
1481,B-2,222.0,1.0,95,120.0
1482,C2,222.0,1.0,95,120.0
1483,E3,222.5,0.25,95,120.0
1484,D3,222.75,0.25,95,120.0
1485,F#3,223.0,0.25,95,120.0
1486,B1,223.0,0.5,95,120.0
1487,B-2,223.0,1.0,95,120.0
1488,D2,223.0,1.0,95,120.0
1489,E3,223.25,0.25,95,120.0
1490,D3,223.5,0.25,95,120.0
1491,C#3,223.75,0.25,95,120.0
1492,D3,224.0,0.25,95,120.0
1493,D2,224.0,0.25,95,120.0
1494,F#2,224.0,0.25,95,120.0
1495,C2,224.0,0.25,95,120.0
1496,C#3,224.0,0.25,95,120.0
1497,B-2,224.0,0.25,95,120.0
1498,D3,224.25,0.25,95,120.0
1499,G1,224.25,0.25,95,120.0
1500,F#2,224.25,0.25,95,120.0
1501,D3,224.5,0.25,95,120.0
1502,G1,224.5,0.25,95,120.0
1503,F#2,224.5,0.25,95,120.0
1504,D3,224.75,0.25,95,120.0
1505,G1,224.75,0.25,95,120.0
1506,F#2,224.75,0.25,95,120.0
1507,D2,225.0,0.25,95,120.0
1508,C4,225.0,0.25,95,120.0
1509,G3,225.0,0.25,95,120.0
1510,F#2,225.0,0.25,95,120.0
1511,D2,225.0,0.25,95,120.0
1512,B-2,225.0,0.25,95,120.0
1513,G1,225.25,0.25,95,120.0
1514,F#2,225.25,0.25,95,120.0
1515,D4,225.25,0.25,95,120.0
1516,A3,225.25,0.25,95,120.0
1517,G1,225.5,0.25,95,120.0
1518,F#2,225.5,0.25,95,120.0
1519,C4,225.5,1.0,95,120.0
1520,G3,225.5,1.0,95,120.0
1521,G1,225.75,0.25,95,120.0
1522,F#2,225.75,0.25,95,120.0
1523,D2,226.0,0.25,95,120.0
1524,F#2,226.0,0.25,95,120.0
1525,C2,226.0,0.25,95,120.0
1526,B-2,226.0,0.25,95,120.0
1527,G1,226.25,0.25,95,120.0
1528,F#2,226.25,0.25,95,120.0
1529,G1,226.5,0.25,95,120.0
1530,F#2,226.5,0.25,95,120.0
1531,C4,226.5,1.0,95,120.0
1532,G3,226.5,1.0,95,120.0
1533,G1,226.75,0.25,95,120.0
1534,F#2,226.75,0.25,95,120.0
1535,D2,227.0,0.25,95,120.0
1536,F#2,227.0,0.25,95,120.0
1537,D2,227.0,0.25,95,120.0
1538,B-2,227.0,0.25,95,120.0
1539,G1,227.25,0.25,95,120.0
1540,F#2,227.25,0.25,95,120.0
1541,D3,227.5,0.062,95,120.0
1542,G1,227.5,0.25,95,120.0
1543,F#2,227.5,0.25,95,120.0
1544,D3,227.75,0.062,95,120.0
1545,G1,227.75,0.25,95,120.0
1546,F#2,227.75,0.25,95,120.0
1547,D2,228.0,0.25,95,120.0
1548,C4,228.0,1.5,95,120.0
1549,G3,228.0,1.5,95,120.0
1550,C3,228.0,1.5,95,120.0
1551,F#2,228.0,0.25,95,120.0
1552,C2,228.0,0.25,95,120.0
1553,C#3,228.0,0.25,95,120.0
1554,B-2,228.0,0.25,95,120.0
1555,G1,228.25,0.25,95,120.0
1556,F#2,228.25,0.25,95,120.0
1557,G1,228.5,0.25,95,120.0
1558,F#2,228.5,0.25,95,120.0
1559,G1,228.75,0.25,95,120.0
1560,F#2,228.75,0.25,95,120.0
1561,D2,229.0,0.25,95,120.0
1562,F#2,229.0,0.25,95,120.0
1563,D2,229.0,0.25,95,120.0
1564,B-2,229.0,0.25,95,120.0
1565,G1,229.25,0.25,95,120.0
1566,F#2,229.25,0.25,95,120.0
1567,G1,229.5,0.25,95,120.0
1568,F#2,229.5,0.25,95,120.0
1569,G3,229.5,2.5,95,120.0
1570,D3,229.5,2.5,95,120.0
1571,G2,229.5,2.5,95,120.0
1572,G1,229.75,0.25,95,120.0
1573,F#2,229.75,0.25,95,120.0
1574,D2,230.0,0.25,95,120.0
1575,F#2,230.0,0.25,95,120.0
1576,C2,230.0,0.25,95,120.0
1577,B-2,230.0,0.25,95,120.0
1578,G1,230.25,0.25,95,120.0
1579,F#2,230.25,0.25,95,120.0
1580,G1,230.5,0.25,95,120.0
1581,F#2,230.5,0.25,95,120.0
1582,G1,230.75,0.25,95,120.0
1583,F#2,230.75,0.25,95,120.0
1584,D2,231.0,0.25,95,120.0
1585,F#2,231.0,0.25,95,120.0
1586,D2,231.0,0.25,95,120.0
1587,B-2,231.0,0.25,95,120.0
1588,G1,231.25,0.25,95,120.0
1589,F#2,231.25,0.25,95,120.0
1590,G1,231.5,0.25,95,120.0
1591,F#2,231.5,0.25,95,120.0
1592,G1,231.75,0.25,95,120.0
1593,F#2,231.75,0.25,95,120.0
1594,D3,232.0,0.25,95,120.0
1595,D2,232.0,0.25,95,120.0
1596,F#2,232.0,0.25,95,120.0
1597,C2,232.0,0.25,95,120.0
1598,C#3,232.0,0.25,95,120.0
1599,B-2,232.0,0.25,95,120.0
1600,D3,232.25,0.25,95,120.0
1601,G1,232.25,0.25,95,120.0
1602,F#2,232.25,0.25,95,120.0
1603,D3,232.5,0.25,95,120.0
1604,G1,232.5,0.25,95,120.0
1605,F#2,232.5,0.25,95,120.0
1606,D3,232.75,0.25,95,120.0
1607,G1,232.75,0.25,95,120.0
1608,F#2,232.75,0.25,95,120.0
1609,D2,233.0,0.25,95,120.0
1610,C4,233.0,0.25,95,120.0
1611,G3,233.0,0.25,95,120.0
1612,F#2,233.0,0.25,95,120.0
1613,D2,233.0,0.25,95,120.0
1614,B-2,233.0,0.25,95,120.0
1615,G1,233.25,0.25,95,120.0
1616,F#2,233.25,0.25,95,120.0
1617,D4,233.25,0.25,95,120.0
1618,A3,233.25,0.25,95,120.0
1619,G1,233.5,0.25,95,120.0
1620,F#2,233.5,0.25,95,120.0
1621,C4,233.5,1.0,95,120.0
1622,G3,233.5,1.0,95,120.0
1623,G1,233.75,0.25,95,120.0
1624,F#2,233.75,0.25,95,120.0
1625,D2,234.0,0.25,95,120.0
1626,F#2,234.0,0.25,95,120.0
1627,C2,234.0,0.25,95,120.0
1628,B-2,234.0,0.25,95,120.0
1629,G1,234.25,0.25,95,120.0
1630,F#2,234.25,0.25,95,120.0
1631,G1,234.5,0.25,95,120.0
1632,F#2,234.5,0.25,95,120.0
1633,C4,234.5,1.0,95,120.0
1634,G3,234.5,1.0,95,120.0
1635,G1,234.75,0.25,95,120.0
1636,F#2,234.75,0.25,95,120.0
1637,D2,235.0,0.25,95,120.0
1638,F#2,235.0,0.25,95,120.0
1639,D2,235.0,0.25,95,120.0
1640,B-2,235.0,0.25,95,120.0
1641,G1,235.25,0.25,95,120.0
1642,F#2,235.25,0.25,95,120.0
1643,D3,235.5,0.062,95,120.0
1644,G1,235.5,0.25,95,120.0
1645,F#2,235.5,0.25,95,120.0
1646,D3,235.75,0.062,95,120.0
1647,G1,235.75,0.25,95,120.0
1648,F#2,235.75,0.25,95,120.0
1649,D2,236.0,0.25,95,120.0
1650,C4,236.0,1.5,95,120.0
1651,G3,236.0,1.5,95,120.0
1652,C3,236.0,1.5,95,120.0
1653,F#2,236.0,0.25,95,120.0
1654,C2,236.0,0.25,95,120.0
1655,C#3,236.0,0.25,95,120.0
1656,B-2,236.0,0.25,95,120.0
1657,G1,236.25,0.25,95,120.0
1658,F#2,236.25,0.25,95,120.0
1659,G1,236.5,0.25,95,120.0
1660,F#2,236.5,0.25,95,120.0
1661,G1,236.75,0.25,95,120.0
1662,F#2,236.75,0.25,95,120.0
1663,D2,237.0,0.25,95,120.0
1664,F#2,237.0,0.25,95,120.0
1665,D2,237.0,0.25,95,120.0
1666,B-2,237.0,0.25,95,120.0
1667,G1,237.25,0.25,95,120.0
1668,F#2,237.25,0.25,95,120.0
1669,G1,237.5,0.25,95,120.0
1670,F#2,237.5,0.25,95,120.0
1671,G3,237.5,2.5,95,120.0
1672,D3,237.5,2.5,95,120.0
1673,G2,237.5,2.5,95,120.0
1674,G1,237.75,0.25,95,120.0
1675,F#2,237.75,0.25,95,120.0
1676,D2,238.0,0.25,95,120.0
1677,F#2,238.0,0.25,95,120.0
1678,C2,238.0,0.25,95,120.0
1679,B-2,238.0,0.25,95,120.0
1680,G1,238.25,0.25,95,120.0
1681,F#2,238.25,0.25,95,120.0
1682,G1,238.5,0.25,95,120.0
1683,F#2,238.5,0.25,95,120.0
1684,G1,238.75,0.25,95,120.0
1685,F#2,238.75,0.25,95,120.0
1686,D2,239.0,0.25,95,120.0
1687,F#2,239.0,0.25,95,120.0
1688,D2,239.0,0.25,95,120.0
1689,B-2,239.0,0.25,95,120.0
1690,G1,239.25,0.25,95,120.0
1691,F#2,239.25,0.25,95,120.0
1692,G1,239.5,0.25,95,120.0
1693,F#2,239.5,0.25,95,120.0
1694,G1,239.75,0.25,95,120.0
1695,F#2,239.75,0.25,95,120.0
1696,E3,240.0,0.25,95,120.0
1697,E2,240.0,0.25,95,120.0
1698,F#2,240.0,0.25,95,120.0
1699,C2,240.0,0.25,95,120.0
1700,C#3,240.0,0.25,95,120.0
1701,B-2,240.0,0.25,95,120.0
1702,E3,240.25,0.25,95,120.0
1703,A1,240.25,0.25,95,120.0
1704,F#2,240.25,0.25,95,120.0
1705,E3,240.5,0.25,95,120.0
1706,A1,240.5,0.25,95,120.0
1707,F#2,240.5,0.25,95,120.0
1708,E3,240.75,0.25,95,120.0
1709,A1,240.75,0.25,95,120.0
1710,F#2,240.75,0.25,95,120.0
1711,E2,241.0,0.25,95,120.0
1712,D4,241.0,0.25,95,120.0
1713,A3,241.0,0.25,95,120.0
1714,F#2,241.0,0.25,95,120.0
1715,D2,241.0,0.25,95,120.0
1716,B-2,241.0,0.25,95,120.0
1717,A1,241.25,0.25,95,120.0
1718,F#2,241.25,0.25,95,120.0
1719,E4,241.25,0.25,95,120.0
1720,B3,241.25,0.25,95,120.0
1721,A1,241.5,0.25,95,120.0
1722,F#2,241.5,0.25,95,120.0
1723,D4,241.5,1.0,95,120.0
1724,A3,241.5,1.0,95,120.0
1725,A1,241.75,0.25,95,120.0
1726,F#2,241.75,0.25,95,120.0
1727,E2,242.0,0.25,95,120.0
1728,F#2,242.0,0.25,95,120.0
1729,C2,242.0,0.25,95,120.0
1730,B-2,242.0,0.25,95,120.0
1731,A1,242.25,0.25,95,120.0
1732,F#2,242.25,0.25,95,120.0
1733,A1,242.5,0.25,95,120.0
1734,F#2,242.5,0.25,95,120.0
1735,D4,242.5,1.0,95,120.0
1736,A3,242.5,1.0,95,120.0
1737,A1,242.75,0.25,95,120.0
1738,F#2,242.75,0.25,95,120.0
1739,E2,243.0,0.25,95,120.0
1740,F#2,243.0,0.25,95,120.0
1741,D2,243.0,0.25,95,120.0
1742,B-2,243.0,0.25,95,120.0
1743,A1,243.25,0.25,95,120.0
1744,F#2,243.25,0.25,95,120.0
1745,D3,243.5,0.062,95,120.0
1746,A1,243.5,0.25,95,120.0
1747,F#2,243.5,0.25,95,120.0
1748,D3,243.75,0.062,95,120.0
1749,A1,243.75,0.25,95,120.0
1750,F#2,243.75,0.25,95,120.0
1751,E2,244.0,0.25,95,120.0
1752,D4,244.0,1.5,95,120.0
1753,A3,244.0,1.5,95,120.0
1754,D3,244.0,1.5,95,120.0
1755,F#2,244.0,0.25,95,120.0
1756,C2,244.0,0.25,95,120.0
1757,C#3,244.0,0.25,95,120.0
1758,B-2,244.0,0.25,95,120.0
1759,A1,244.25,0.25,95,120.0
1760,F#2,244.25,0.25,95,120.0
1761,A1,244.5,0.25,95,120.0
1762,F#2,244.5,0.25,95,120.0
1763,A1,244.75,0.25,95,120.0
1764,F#2,244.75,0.25,95,120.0
1765,E2,245.0,0.25,95,120.0
1766,F#2,245.0,0.25,95,120.0
1767,D2,245.0,0.25,95,120.0
1768,B-2,245.0,0.25,95,120.0
1769,A1,245.25,0.25,95,120.0
1770,F#2,245.25,0.25,95,120.0
1771,A1,245.5,0.25,95,120.0
1772,F#2,245.5,0.25,95,120.0
1773,A3,245.5,2.5,95,120.0
1774,E3,245.5,2.5,95,120.0
1775,A2,245.5,2.5,95,120.0
1776,A1,245.75,0.25,95,120.0
1777,F#2,245.75,0.25,95,120.0
1778,E2,246.0,0.25,95,120.0
1779,F#2,246.0,0.25,95,120.0
1780,C2,246.0,0.25,95,120.0
1781,B-2,246.0,0.25,95,120.0
1782,A1,246.25,0.25,95,120.0
1783,F#2,246.25,0.25,95,120.0
1784,A1,246.5,0.25,95,120.0
1785,F#2,246.5,0.25,95,120.0
1786,A1,246.75,0.25,95,120.0
1787,F#2,246.75,0.25,95,120.0
1788,E2,247.0,0.25,95,120.0
1789,F#2,247.0,0.25,95,120.0
1790,D2,247.0,0.25,95,120.0
1791,B-2,247.0,0.25,95,120.0
1792,A1,247.25,0.25,95,120.0
1793,F#2,247.25,0.25,95,120.0
1794,A1,247.5,0.25,95,120.0
1795,F#2,247.5,0.25,95,120.0
1796,A1,247.75,0.25,95,120.0
1797,F#2,247.75,0.25,95,120.0
1798,E3,248.0,0.25,95,120.0
1799,E2,248.0,0.25,95,120.0
1800,F#2,248.0,0.25,95,120.0
1801,C2,248.0,0.25,95,120.0
1802,C#3,248.0,0.25,95,120.0
1803,B-2,248.0,0.25,95,120.0
1804,E3,248.25,0.25,95,120.0
1805,A1,248.25,0.25,95,120.0
1806,F#2,248.25,0.25,95,120.0
1807,E3,248.5,0.25,95,120.0
1808,A1,248.5,0.25,95,120.0
1809,F#2,248.5,0.25,95,120.0
1810,E3,248.75,0.25,95,120.0
1811,A1,248.75,0.25,95,120.0
1812,F#2,248.75,0.25,95,120.0
1813,E2,249.0,0.25,95,120.0
1814,D4,249.0,0.25,95,120.0
1815,A3,249.0,0.25,95,120.0
1816,F#2,249.0,0.25,95,120.0
1817,D2,249.0,0.25,95,120.0
1818,B-2,249.0,0.25,95,120.0
1819,A1,249.25,0.25,95,120.0
1820,F#2,249.25,0.25,95,120.0
1821,E4,249.25,0.25,95,120.0
1822,B3,249.25,0.25,95,120.0
1823,A1,249.5,0.25,95,120.0
1824,F#2,249.5,0.25,95,120.0
1825,D4,249.5,1.0,95,120.0
1826,A3,249.5,1.0,95,120.0
1827,A1,249.75,0.25,95,120.0
1828,F#2,249.75,0.25,95,120.0
1829,E2,250.0,0.25,95,120.0
1830,F#2,250.0,0.25,95,120.0
1831,C2,250.0,0.25,95,120.0
1832,B-2,250.0,0.25,95,120.0
1833,A1,250.25,0.25,95,120.0
1834,F#2,250.25,0.25,95,120.0
1835,A1,250.5,0.25,95,120.0
1836,F#2,250.5,0.25,95,120.0
1837,D4,250.5,1.0,95,120.0
1838,A3,250.5,1.0,95,120.0
1839,A1,250.75,0.25,95,120.0
1840,F#2,250.75,0.25,95,120.0
1841,E2,251.0,0.25,95,120.0
1842,F#2,251.0,0.25,95,120.0
1843,D2,251.0,0.25,95,120.0
1844,B-2,251.0,0.25,95,120.0
1845,A1,251.25,0.25,95,120.0
1846,F#2,251.25,0.25,95,120.0
1847,D3,251.5,0.062,95,120.0
1848,A1,251.5,0.25,95,120.0
1849,F#2,251.5,0.25,95,120.0
1850,D3,251.75,0.062,95,120.0
1851,A1,251.75,0.25,95,120.0
1852,F#2,251.75,0.25,95,120.0
1853,E2,252.0,0.25,95,120.0
1854,D4,252.0,1.5,95,120.0
1855,A3,252.0,1.5,95,120.0
1856,D3,252.0,1.5,95,120.0
1857,F#2,252.0,0.25,95,120.0
1858,D2,252.0,0.25,95,120.0
1859,C#3,252.0,0.25,95,120.0
1860,B-2,252.0,0.25,95,120.0
1861,A1,252.25,0.25,95,120.0
1862,A1,252.5,0.25,95,120.0
1863,A1,252.75,0.25,95,120.0
1864,E2,253.0,0.25,95,120.0
1865,F#2,253.0,0.25,95,120.0
1866,D2,253.0,0.25,95,120.0
1867,C#3,253.0,0.25,95,120.0
1868,B-2,253.0,0.25,95,120.0
1869,A1,253.25,0.25,95,120.0
1870,A1,253.5,0.25,95,120.0
1871,A3,253.5,2.5,95,120.0
1872,E3,253.5,2.5,95,120.0
1873,A2,253.5,2.5,95,120.0
1874,A1,253.75,0.25,95,120.0
1875,E2,254.0,0.25,95,120.0
1876,F#2,254.0,0.25,95,120.0
1877,D2,254.0,0.25,95,120.0
1878,C#3,254.0,0.25,95,120.0
1879,B-2,254.0,0.25,95,120.0
1880,A1,254.25,0.25,95,120.0
1881,A1,254.5,0.25,95,120.0
1882,A1,254.75,0.25,95,120.0
1883,E2,255.0,0.25,95,120.0
1884,F#2,255.0,0.25,95,120.0
1885,D2,255.0,0.25,95,120.0
1886,C#3,255.0,0.25,95,120.0
1887,B-2,255.0,0.25,95,120.0
1888,A1,255.25,0.75,95,120.0
1889,B2,256.0,0.25,95,120.0
1890,B1,256.0,0.5,95,120.0
1891,C#3,256.0,1.0,95,120.0
1892,C2,256.0,1.0,95,120.0
1893,B2,256.25,0.25,95,120.0
1894,B2,256.5,0.25,95,120.0
1895,B2,256.75,0.25,95,120.0
1896,B1,257.0,0.5,95,120.0
1897,D4,257.0,0.25,95,120.0
1898,A3,257.0,0.25,95,120.0
1899,B-2,257.0,1.0,95,120.0
1900,D2,257.0,1.0,95,120.0
1901,E4,257.25,0.25,95,120.0
1902,B3,257.25,0.25,95,120.0
1903,D4,257.5,1.0,95,120.0
1904,A3,257.5,1.0,95,120.0
1905,B1,258.0,0.5,95,120.0
1906,B-2,258.0,1.0,95,120.0
1907,C2,258.0,1.0,95,120.0
1908,D4,258.5,1.0,95,120.0
1909,A3,258.5,1.0,95,120.0
1910,B1,259.0,0.5,95,120.0
1911,B-2,259.0,1.0,95,120.0
1912,D2,259.0,1.0,95,120.0
1913,D3,259.5,0.062,95,120.0
1914,D3,259.75,0.062,95,120.0
1915,B1,260.0,0.5,95,120.0
1916,A3,260.0,1.5,95,120.0
1917,E3,260.0,1.5,95,120.0
1918,A2,260.0,1.5,95,120.0
1919,B-2,260.0,1.0,95,120.0
1920,C2,260.0,1.0,95,120.0
1921,B1,261.0,0.5,95,120.0
1922,B-2,261.0,1.0,95,120.0
1923,D2,261.0,1.0,95,120.0
1924,G3,261.5,1.0,95,120.0
1925,D3,261.5,1.0,95,120.0
1926,G2,261.5,1.0,95,120.0
1927,B1,262.0,0.5,95,120.0
1928,B-2,262.0,1.0,95,120.0
1929,C2,262.0,1.0,95,120.0
1930,E3,262.5,0.25,95,120.0
1931,D3,262.75,0.25,95,120.0
1932,F#3,263.0,0.25,95,120.0
1933,B1,263.0,0.5,95,120.0
1934,B-2,263.0,1.0,95,120.0
1935,D2,263.0,1.0,95,120.0
1936,E3,263.25,0.25,95,120.0
1937,D3,263.5,0.25,95,120.0
1938,C#3,263.75,0.25,95,120.0
1939,B2,264.0,0.25,95,120.0
1940,B1,264.0,0.5,95,120.0
1941,B-2,264.0,1.0,95,120.0
1942,C2,264.0,1.0,95,120.0
1943,B2,264.25,0.25,95,120.0
1944,B2,264.5,0.25,95,120.0
1945,B2,264.75,0.25,95,120.0
1946,B1,265.0,0.5,95,120.0
1947,D4,265.0,0.25,95,120.0
1948,A3,265.0,0.25,95,120.0
1949,B-2,265.0,1.0,95,120.0
1950,D2,265.0,1.0,95,120.0
1951,E4,265.25,0.25,95,120.0
1952,B3,265.25,0.25,95,120.0
1953,D4,265.5,1.0,95,120.0
1954,A3,265.5,1.0,95,120.0
1955,B1,266.0,0.5,95,120.0
1956,B-2,266.0,1.0,95,120.0
1957,C2,266.0,1.0,95,120.0
1958,D4,266.5,1.0,95,120.0
1959,A3,266.5,1.0,95,120.0
1960,B1,267.0,0.5,95,120.0
1961,B-2,267.0,1.0,95,120.0
1962,D2,267.0,1.0,95,120.0
1963,D3,267.5,0.062,95,120.0
1964,D3,267.75,0.062,95,120.0
1965,G3,268.0,0.5,95,120.0
1966,G1,268.0,0.5,95,120.0
1967,B-2,268.0,1.0,95,120.0
1968,C2,268.0,1.0,95,120.0
1969,D4,268.5,0.5,95,120.0
1970,D2,268.5,0.5,95,120.0
1971,B3,269.0,0.5,95,120.0
1972,B1,269.0,0.5,95,120.0
1973,B-2,269.0,1.0,95,120.0
1974,D2,269.0,1.0,95,120.0
1975,G3,269.5,0.5,95,120.0
1976,G1,269.5,0.5,95,120.0
1977,E4,270.0,0.5,95,120.0
1978,E1,270.0,0.5,95,120.0
1979,B-2,270.0,1.0,95,120.0
1980,C2,270.0,1.0,95,120.0
1981,C#4,270.5,0.5,95,120.0
1982,C#2,270.5,0.5,95,120.0
1983,A3,271.0,1.0,95,120.0
1984,A2,271.0,1.0,95,120.0
1985,B-2,271.0,1.0,95,120.0
1986,D2,271.0,1.0,95,120.0
1987,B2,272.0,0.25,95,120.0
1988,B1,272.0,0.5,95,120.0
1989,C#3,272.0,1.0,95,120.0
1990,C2,272.0,1.0,95,120.0
1991,B2,272.25,0.25,95,120.0
1992,B2,272.5,0.25,95,120.0
1993,B2,272.75,0.25,95,120.0
1994,B1,273.0,0.5,95,120.0
1995,D4,273.0,0.25,95,120.0
1996,A3,273.0,0.25,95,120.0
1997,B-2,273.0,1.0,95,120.0
1998,D2,273.0,1.0,95,120.0
1999,E4,273.25,0.25,95,120.0
2000,B3,273.25,0.25,95,120.0
2001,D4,273.5,1.0,95,120.0
2002,A3,273.5,1.0,95,120.0
2003,B1,274.0,0.5,95,120.0
2004,B-2,274.0,1.0,95,120.0
2005,C2,274.0,1.0,95,120.0
2006,D4,274.5,1.0,95,120.0
2007,A3,274.5,1.0,95,120.0
2008,B1,275.0,0.5,95,120.0
2009,B-2,275.0,1.0,95,120.0
2010,D2,275.0,1.0,95,120.0
2011,D3,275.5,0.062,95,120.0
2012,D3,275.75,0.062,95,120.0
2013,B1,276.0,0.5,95,120.0
2014,A3,276.0,1.5,95,120.0
2015,E3,276.0,1.5,95,120.0
2016,A2,276.0,1.5,95,120.0
2017,B-2,276.0,1.0,95,120.0
2018,C2,276.0,1.0,95,120.0
2019,B1,277.0,0.5,95,120.0
2020,B-2,277.0,1.0,95,120.0
2021,D2,277.0,1.0,95,120.0
2022,G3,277.5,1.0,95,120.0
2023,D3,277.5,1.0,95,120.0
2024,G2,277.5,1.0,95,120.0
2025,B1,278.0,0.5,95,120.0
2026,B-2,278.0,1.0,95,120.0
2027,C2,278.0,1.0,95,120.0
2028,E3,278.5,0.25,95,120.0
2029,D3,278.75,0.25,95,120.0
2030,F#3,279.0,0.25,95,120.0
2031,B1,279.0,0.5,95,120.0
2032,B-2,279.0,1.0,95,120.0
2033,D2,279.0,1.0,95,120.0
2034,E3,279.25,0.25,95,120.0
2035,D3,279.5,0.25,95,120.0
2036,C#3,279.75,0.25,95,120.0
2037,B2,280.0,0.25,95,120.0
2038,B1,280.0,0.5,95,120.0
2039,B-2,280.0,1.0,95,120.0
2040,C2,280.0,1.0,95,120.0
2041,B2,280.25,0.25,95,120.0
2042,B2,280.5,0.25,95,120.0
2043,B2,280.75,0.25,95,120.0
2044,B1,281.0,0.5,95,120.0
2045,D4,281.0,0.25,95,120.0
2046,A3,281.0,0.25,95,120.0
2047,B-2,281.0,1.0,95,120.0
2048,D2,281.0,1.0,95,120.0
2049,E4,281.25,0.25,95,120.0
2050,B3,281.25,0.25,95,120.0
2051,D4,281.5,1.0,95,120.0
2052,A3,281.5,1.0,95,120.0
2053,B1,282.0,0.5,95,120.0
2054,B-2,282.0,1.0,95,120.0
2055,C2,282.0,1.0,95,120.0
2056,D4,282.5,1.0,95,120.0
2057,A3,282.5,1.0,95,120.0
2058,B1,283.0,0.5,95,120.0
2059,B-2,283.0,1.0,95,120.0
2060,D2,283.0,1.0,95,120.0
2061,D3,283.5,0.062,95,120.0
2062,D3,283.75,0.062,95,120.0
2063,G3,284.0,0.5,95,120.0
2064,G1,284.0,0.5,95,120.0
2065,B-2,284.0,1.0,95,120.0
2066,C2,284.0,1.0,95,120.0
2067,D4,284.5,0.5,95,120.0
2068,D2,284.5,0.5,95,120.0
2069,B3,285.0,0.5,95,120.0
2070,B1,285.0,0.5,95,120.0
2071,B-2,285.0,1.0,95,120.0
2072,D2,285.0,1.0,95,120.0
2073,G3,285.5,0.5,95,120.0
2074,G1,285.5,0.5,95,120.0
2075,E4,286.0,0.5,95,120.0
2076,E1,286.0,0.5,95,120.0
2077,B-2,286.0,1.0,95,120.0
2078,C2,286.0,1.0,95,120.0
2079,C#4,286.5,0.5,95,120.0
2080,C#2,286.5,0.5,95,120.0
2081,A3,287.0,1.0,95,120.0
2082,A2,287.0,1.0,95,120.0
2083,B-2,287.0,1.0,95,120.0
2084,D2,287.0,1.0,95,120.0
2085,F1,288.0,0.5,95,120.0
2086,C3,288.0,4.0,95,120.0
2087,F2,288.0,4.0,95,120.0
2088,F#2,288.0,0.25,95,120.0
2089,C2,288.0,0.25,95,120.0
2090,C#3,288.0,0.25,95,120.0
2091,F#2,288.25,0.25,95,120.0
2092,F#2,288.5,0.25,95,120.0
2093,F#2,288.75,0.25,95,120.0
2094,F1,289.0,0.5,95,120.0
2095,F#2,289.0,0.25,95,120.0
2096,D2,289.0,0.25,95,120.0
2097,F#2,289.25,0.25,95,120.0
2098,F#2,289.5,0.25,95,120.0
2099,F#2,289.75,0.25,95,120.0
2100,F1,290.0,0.5,95,120.0
2101,F#2,290.0,0.25,95,120.0
2102,C2,290.0,0.25,95,120.0
2103,C#3,290.0,0.25,95,120.0
2104,F#2,290.25,0.25,95,120.0
2105,F#2,290.5,0.25,95,120.0
2106,F#2,290.75,0.25,95,120.0
2107,F1,291.0,0.5,95,120.0
2108,F#2,291.0,0.25,95,120.0
2109,D2,291.0,0.25,95,120.0
2110,F#2,291.25,0.25,95,120.0
2111,F#2,291.5,0.25,95,120.0
2112,F#2,291.75,0.25,95,120.0
2113,A1,292.0,0.5,95,120.0
2114,E3,292.0,4.0,95,120.0
2115,A2,292.0,4.0,95,120.0
2116,F#2,292.0,0.25,95,120.0
2117,C2,292.0,0.25,95,120.0
2118,C#3,292.0,0.25,95,120.0
2119,F#2,292.25,0.25,95,120.0
2120,F#2,292.5,0.25,95,120.0
2121,F#2,292.75,0.25,95,120.0
2122,A1,293.0,0.5,95,120.0
2123,F#2,293.0,0.25,95,120.0
2124,D2,293.0,0.25,95,120.0
2125,F#2,293.25,0.25,95,120.0
2126,F#2,293.5,0.25,95,120.0
2127,F#2,293.75,0.25,95,120.0
2128,A1,294.0,0.5,95,120.0
2129,F#2,294.0,0.25,95,120.0
2130,C2,294.0,0.25,95,120.0
2131,C#3,294.0,0.25,95,120.0
2132,F#2,294.25,0.25,95,120.0
2133,F#2,294.5,0.25,95,120.0
2134,F#2,294.75,0.25,95,120.0
2135,A1,295.0,0.5,95,120.0
2136,F#2,295.0,0.25,95,120.0
2137,D2,295.0,0.25,95,120.0
2138,F#2,295.25,0.25,95,120.0
2139,F#2,295.5,0.25,95,120.0
2140,F#2,295.75,0.25,95,120.0
2141,B-1,296.0,0.5,95,120.0
2142,F3,296.0,4.0,95,120.0
2143,B-2,296.0,4.0,95,120.0
2144,F#2,296.0,0.25,95,120.0
2145,C2,296.0,0.25,95,120.0
2146,C#3,296.0,0.25,95,120.0
2147,F#2,296.25,0.25,95,120.0
2148,F#2,296.5,0.25,95,120.0
2149,F#2,296.75,0.25,95,120.0
2150,B-1,297.0,0.5,95,120.0
2151,F#2,297.0,0.25,95,120.0
2152,D2,297.0,0.25,95,120.0
2153,F#2,297.25,0.25,95,120.0
2154,F#2,297.5,0.25,95,120.0
2155,F#2,297.75,0.25,95,120.0
2156,B-1,298.0,0.5,95,120.0
2157,F#2,298.0,0.25,95,120.0
2158,C2,298.0,0.25,95,120.0
2159,C#3,298.0,0.25,95,120.0
2160,F#2,298.25,0.25,95,120.0
2161,F#2,298.5,0.25,95,120.0
2162,F#2,298.75,0.25,95,120.0
2163,B-1,299.0,0.5,95,120.0
2164,F#2,299.0,0.25,95,120.0
2165,D2,299.0,0.25,95,120.0
2166,F#2,299.25,0.25,95,120.0
2167,F#2,299.5,0.25,95,120.0
2168,F#2,299.75,0.25,95,120.0
2169,C2,300.0,0.5,95,120.0
2170,G3,300.0,4.0,95,120.0
2171,C3,300.0,4.0,95,120.0
2172,F#2,300.0,0.25,95,120.0
2173,C2,300.0,0.25,95,120.0
2174,C#3,300.0,0.25,95,120.0
2175,F#2,300.25,0.25,95,120.0
2176,F#2,300.5,0.25,95,120.0
2177,F#2,300.75,0.25,95,120.0
2178,C2,301.0,0.5,95,120.0
2179,F#2,301.0,0.25,95,120.0
2180,D2,301.0,0.25,95,120.0
2181,F#2,301.25,0.25,95,120.0
2182,F#2,301.5,0.25,95,120.0
2183,F#2,301.75,0.25,95,120.0
2184,C2,302.0,0.5,95,120.0
2185,F#2,302.0,0.25,95,120.0
2186,C2,302.0,0.25,95,120.0
2187,C#3,302.0,0.25,95,120.0
2188,F#2,302.25,0.25,95,120.0
2189,F#2,302.5,0.25,95,120.0
2190,F#2,302.75,0.25,95,120.0
2191,C2,303.0,0.5,95,120.0
2192,F#2,303.0,0.25,95,120.0
2193,D2,303.0,0.25,95,120.0
2194,F#2,303.25,0.25,95,120.0
2195,F#2,303.5,0.25,95,120.0
2196,F#2,303.75,0.25,95,120.0
2197,A4,304.0,0.5,95,120.0
2198,B1,304.0,0.5,95,120.0
2199,C#3,304.0,1.0,95,120.0
2200,C2,304.0,1.0,95,120.0
2201,B4,304.5,0.5,95,120.0
2202,A4,305.0,0.25,95,120.0
2203,B1,305.0,0.5,95,120.0
2204,B-2,305.0,1.0,95,120.0
2205,D2,305.0,1.0,95,120.0
2206,F#4,305.25,0.25,95,120.0
2207,B4,305.5,0.25,95,120.0
2208,A4,305.75,0.25,95,120.0
2209,F#4,306.0,0.25,95,120.0
2210,B1,306.0,0.5,95,120.0
2211,B-2,306.0,1.0,95,120.0
2212,C2,306.0,1.0,95,120.0
2213,B4,306.25,0.25,95,120.0
2214,A4,306.5,0.25,95,120.0
2215,B4,306.75,0.25,95,120.0
2216,A4,307.0,0.25,95,120.0
2217,B1,307.0,0.5,95,120.0
2218,B-2,307.0,1.0,95,120.0
2219,D2,307.0,1.0,95,120.0
2220,B4,307.25,0.25,95,120.0
2221,A4,307.5,0.25,95,120.0
2222,B4,307.75,0.25,95,120.0
2223,B4,308.0,167/1000,95,120.0
2224,B1,308.0,0.5,95,120.0
2225,B-2,308.0,1.0,95,120.0
2226,C2,308.0,1.0,95,120.0
2227,D5,308.167,167/1000,95,120.0
2228,C#5,308.333,167/1000,95,120.0
2229,B4,308.5,167/1000,95,120.0
2230,D5,308.667,167/1000,95,120.0
2231,C#5,308.833,167/1000,95,120.0
2232,B4,309.0,167/1000,95,120.0
2233,B1,309.0,0.5,95,120.0
2234,B-2,309.0,1.0,95,120.0
2235,D2,309.0,1.0,95,120.0
2236,D5,309.167,167/1000,95,120.0
2237,C#5,309.333,167/1000,95,120.0
2238,B4,309.5,167/1000,95,120.0
2239,D5,309.667,167/1000,95,120.0
2240,C#5,309.833,167/1000,95,120.0
2241,B4,310.0,167/1000,95,120.0
2242,B1,310.0,0.5,95,120.0
2243,B-2,310.0,1.0,95,120.0
2244,C2,310.0,1.0,95,120.0
2245,D5,310.167,167/1000,95,120.0
2246,C#5,310.333,167/1000,95,120.0
2247,B4,310.5,167/1000,95,120.0
2248,D5,310.667,167/1000,95,120.0
2249,C#5,310.833,167/1000,95,120.0
2250,B4,311.0,167/1000,95,120.0
2251,B1,311.0,0.5,95,120.0
2252,B-2,311.0,1.0,95,120.0
2253,D2,311.0,1.0,95,120.0
2254,D5,311.167,167/1000,95,120.0
2255,C#5,311.333,167/1000,95,120.0
2256,B4,311.5,167/1000,95,120.0
2257,D5,311.667,167/1000,95,120.0
2258,C#5,311.833,167/1000,95,120.0
2259,A3,312.0,1.0,95,120.0
2260,B1,312.0,0.5,95,120.0
2261,B-2,312.0,1.0,95,120.0
2262,C2,312.0,1.0,95,120.0
2263,B1,313.0,0.5,95,120.0
2264,A3,313.0,1.0,63,120.0
2265,A4,313.0,1.0,63,120.0
2266,B-2,313.0,1.0,95,120.0
2267,D2,313.0,1.0,95,120.0
2268,A3,314.0,167/1000,95,120.0
2269,B1,314.0,0.5,95,120.0
2270,B-2,314.0,1.0,95,120.0
2271,C2,314.0,1.0,95,120.0
2272,B3,314.167,167/1000,95,120.0
2273,B3,314.333,167/1000,95,120.0
2274,A3,314.5,167/1000,95,120.0
2275,B3,314.667,167/1000,95,120.0
2276,B3,314.833,167/1000,95,120.0
2277,A3,315.0,167/1000,95,120.0
2278,B1,315.0,0.5,95,120.0
2279,B-2,315.0,1.0,95,120.0
2280,D2,315.0,1.0,95,120.0
2281,B3,315.167,167/1000,95,120.0
2282,B3,315.333,167/1000,95,120.0
2283,A3,315.5,167/1000,95,120.0
2284,B3,315.667,167/1000,95,120.0
2285,B3,315.833,167/1000,95,120.0
2286,G4,316.0,167/1000,95,120.0
2287,G1,316.0,0.5,95,120.0
2288,B-2,316.0,1.0,95,120.0
2289,C2,316.0,1.0,95,120.0
2290,A4,316.167,167/1000,95,120.0
2291,B4,316.333,167/1000,95,120.0
2292,G4,316.5,167/1000,95,120.0
2293,D2,316.5,0.5,95,120.0
2294,A4,316.667,167/1000,95,120.0
2295,B4,316.833,167/1000,95,120.0
2296,G4,317.0,167/1000,95,120.0
2297,B1,317.0,0.5,95,120.0
2298,B-2,317.0,1.0,95,120.0
2299,D2,317.0,1.0,95,120.0
2300,A4,317.167,167/1000,95,120.0
2301,B4,317.333,167/1000,95,120.0
2302,G4,317.5,167/1000,95,120.0
2303,G1,317.5,0.5,95,120.0
2304,A4,317.667,167/1000,95,120.0
2305,B4,317.833,167/1000,95,120.0
2306,G4,318.0,167/1000,95,120.0
2307,E1,318.0,0.5,95,120.0
2308,B-2,318.0,1.0,95,120.0
2309,C2,318.0,1.0,95,120.0
2310,A4,318.167,167/1000,95,120.0
2311,A4,318.333,167/1000,95,120.0
2312,G4,318.5,167/1000,95,120.0
2313,C#2,318.5,0.5,95,120.0
2314,A4,318.667,167/1000,95,120.0
2315,A4,318.833,167/1000,95,120.0
2316,G4,319.0,167/1000,95,120.0
2317,A2,319.0,1.0,95,120.0
2318,B-2,319.0,1.0,95,120.0
2319,D2,319.0,1.0,95,120.0
2320,A4,319.167,167/1000,95,120.0
2321,B-4,319.333,167/1000,95,120.0
2322,G4,319.5,167/1000,95,120.0
2323,A4,319.667,167/1000,95,120.0
2324,B-4,319.833,167/1000,95,120.0
2325,E5,320.0,167/1000,95,120.0
2326,B1,320.0,0.5,95,120.0
2327,C#3,320.0,1.0,95,120.0
2328,C2,320.0,1.0,95,120.0
2329,D5,320.167,167/1000,95,120.0
2330,B4,320.333,167/1000,95,120.0
2331,E5,320.5,167/1000,95,120.0
2332,D5,320.667,167/1000,95,120.0
2333,B4,320.833,167/1000,95,120.0
2334,B4,321.0,167/1000,95,120.0
2335,B1,321.0,0.5,95,120.0
2336,B-2,321.0,1.0,95,120.0
2337,D2,321.0,1.0,95,120.0
2338,A4,321.167,167/1000,95,120.0
2339,F#4,321.333,167/1000,95,120.0
2340,B4,321.5,167/1000,95,120.0
2341,A4,321.667,167/1000,95,120.0
2342,F#4,321.833,167/1000,95,120.0
2343,G4,322.0,167/1000,95,120.0
2344,B1,322.0,0.5,95,120.0
2345,B-2,322.0,1.0,95,120.0
2346,C2,322.0,1.0,95,120.0
2347,E4,322.167,167/1000,95,120.0
2348,D4,322.333,167/1000,95,120.0
2349,G4,322.5,167/1000,95,120.0
2350,E4,322.667,167/1000,95,120.0
2351,D4,322.833,167/1000,95,120.0
2352,D4,323.0,167/1000,95,120.0
2353,B1,323.0,0.5,95,120.0
2354,B-2,323.0,1.0,95,120.0
2355,D2,323.0,1.0,95,120.0
2356,B3,323.167,167/1000,95,120.0
2357,A3,323.333,167/1000,95,120.0
2358,D4,323.5,167/1000,95,120.0
2359,B3,323.667,167/1000,95,120.0
2360,A3,323.833,167/1000,95,120.0
2361,A3,324.0,167/1000,95,120.0
2362,B1,324.0,0.5,95,120.0
2363,B-2,324.0,1.0,95,120.0
2364,C2,324.0,1.0,95,120.0
2365,F#3,324.167,167/1000,95,120.0
2366,E3,324.333,167/1000,95,120.0
2367,A3,324.5,167/1000,95,120.0
2368,F#3,324.667,167/1000,95,120.0
2369,E3,324.833,167/1000,95,120.0
2370,A3,325.0,167/1000,95,120.0
2371,B1,325.0,0.5,95,120.0
2372,B-2,325.0,1.0,95,120.0
2373,D2,325.0,1.0,95,120.0
2374,F#3,325.167,167/1000,95,120.0
2375,E3,325.333,167/1000,95,120.0
2376,A3,325.5,167/1000,95,120.0
2377,F#3,325.667,167/1000,95,120.0
2378,E3,325.833,167/1000,95,120.0
2379,F#3,326.0,167/1000,95,120.0
2380,B1,326.0,0.5,95,120.0
2381,B-2,326.0,1.0,95,120.0
2382,C2,326.0,1.0,95,120.0
2383,F#3,326.167,167/1000,95,120.0
2384,E3,326.333,167/1000,95,120.0
2385,F#3,326.5,167/1000,95,120.0
2386,F#3,326.667,167/1000,95,120.0
2387,E3,326.833,167/1000,95,120.0
2388,F#3,327.0,167/1000,95,120.0
2389,B1,327.0,0.5,95,120.0
2390,B-2,327.0,1.0,95,120.0
2391,D2,327.0,1.0,95,120.0
2392,F#3,327.167,167/1000,95,120.0
2393,E3,327.333,167/1000,95,120.0
2394,F#3,327.5,167/1000,95,120.0
2395,F#3,327.667,167/1000,95,120.0
2396,E3,327.833,167/1000,95,120.0
2397,B3,328.0,4.0,95,120.0
2398,B1,328.0,0.5,95,120.0
2399,B-2,328.0,1.0,95,120.0
2400,C2,328.0,1.0,95,120.0
2401,B1,329.0,0.5,95,120.0
2402,B-2,329.0,1.0,95,120.0
2403,D2,329.0,1.0,95,120.0
2404,B1,330.0,0.5,95,120.0
2405,B-2,330.0,1.0,95,120.0
2406,C2,330.0,1.0,95,120.0
2407,B1,331.0,0.5,95,120.0
2408,B-2,331.0,1.0,95,120.0
2409,D2,331.0,1.0,95,120.0
2410,G3,332.0,0.5,95,120.0
2411,G1,332.0,0.5,95,120.0
2412,B-2,332.0,1.0,95,120.0
2413,C2,332.0,1.0,95,120.0
2414,C#3,332.0,1.0,95,120.0
2415,D4,332.5,0.5,95,120.0
2416,D2,332.5,0.5,95,120.0
2417,B3,333.0,0.5,95,120.0
2418,B1,333.0,0.5,95,120.0
2419,B-2,333.0,1.0,95,120.0
2420,D2,333.0,1.0,95,120.0
2421,C#3,333.0,1.0,95,120.0
2422,G3,333.5,0.5,95,120.0
2423,G1,333.5,0.5,95,120.0
2424,E4,334.0,0.5,95,120.0
2425,E1,334.0,0.5,95,120.0
2426,B-2,334.0,1.0,95,120.0
2427,C2,334.0,1.0,95,120.0
2428,C#3,334.0,1.0,95,120.0
2429,C#4,334.5,0.5,95,120.0
2430,C#2,334.5,0.5,95,120.0
2431,A3,335.0,1.0,95,120.0
2432,A2,335.0,1.0,95,120.0
2433,B-2,335.0,1.0,95,120.0
2434,D2,335.0,1.0,95,120.0
2435,C#3,335.0,1.0,95,120.0
2436,D3,336.0,0.25,95,120.0
2437,D2,336.0,0.25,95,120.0
2438,F#2,336.0,0.25,95,120.0
2439,C2,336.0,0.25,95,120.0
2440,C#3,336.0,0.25,95,120.0
2441,B-2,336.0,0.25,95,120.0
2442,D3,336.25,0.25,95,120.0
2443,G1,336.25,0.25,95,120.0
2444,F#2,336.25,0.25,95,120.0
2445,D3,336.5,0.25,95,120.0
2446,G1,336.5,0.25,95,120.0
2447,F#2,336.5,0.25,95,120.0
2448,D3,336.75,0.25,95,120.0
2449,G1,336.75,0.25,95,120.0
2450,F#2,336.75,0.25,95,120.0
2451,D2,337.0,0.25,95,120.0
2452,C4,337.0,0.25,95,120.0
2453,G3,337.0,0.25,95,120.0
2454,F#2,337.0,0.25,95,120.0
2455,D2,337.0,0.25,95,120.0
2456,B-2,337.0,0.25,95,120.0
2457,G1,337.25,0.25,95,120.0
2458,F#2,337.25,0.25,95,120.0
2459,D4,337.25,0.25,95,120.0
2460,A3,337.25,0.25,95,120.0
2461,G1,337.5,0.25,95,120.0
2462,F#2,337.5,0.25,95,120.0
2463,C4,337.5,1.0,95,120.0
2464,G3,337.5,1.0,95,120.0
2465,G1,337.75,0.25,95,120.0
2466,F#2,337.75,0.25,95,120.0
2467,D2,338.0,0.25,95,120.0
2468,F#2,338.0,0.25,95,120.0
2469,C2,338.0,0.25,95,120.0
2470,B-2,338.0,0.25,95,120.0
2471,G1,338.25,0.25,95,120.0
2472,F#2,338.25,0.25,95,120.0
2473,G1,338.5,0.25,95,120.0
2474,F#2,338.5,0.25,95,120.0
2475,C4,338.5,1.0,95,120.0
2476,G3,338.5,1.0,95,120.0
2477,G1,338.75,0.25,95,120.0
2478,F#2,338.75,0.25,95,120.0
2479,D2,339.0,0.25,95,120.0
2480,F#2,339.0,0.25,95,120.0
2481,D2,339.0,0.25,95,120.0
2482,B-2,339.0,0.25,95,120.0
2483,G1,339.25,0.25,95,120.0
2484,F#2,339.25,0.25,95,120.0
2485,D3,339.5,0.062,95,120.0
2486,G1,339.5,0.25,95,120.0
2487,F#2,339.5,0.25,95,120.0
2488,D3,339.75,0.062,95,120.0
2489,G1,339.75,0.25,95,120.0
2490,F#2,339.75,0.25,95,120.0
2491,D2,340.0,0.25,95,120.0
2492,C4,340.0,1.5,95,120.0
2493,G3,340.0,1.5,95,120.0
2494,C3,340.0,1.5,95,120.0
2495,F#2,340.0,0.25,95,120.0
2496,C2,340.0,0.25,95,120.0
2497,C#3,340.0,0.25,95,120.0
2498,B-2,340.0,0.25,95,120.0
2499,G1,340.25,0.25,95,120.0
2500,F#2,340.25,0.25,95,120.0
2501,G1,340.5,0.25,95,120.0
2502,F#2,340.5,0.25,95,120.0
2503,G1,340.75,0.25,95,120.0
2504,F#2,340.75,0.25,95,120.0
2505,D2,341.0,0.25,95,120.0
2506,F#2,341.0,0.25,95,120.0
2507,D2,341.0,0.25,95,120.0
2508,B-2,341.0,0.25,95,120.0
2509,G1,341.25,0.25,95,120.0
2510,F#2,341.25,0.25,95,120.0
2511,G1,341.5,0.25,95,120.0
2512,F#2,341.5,0.25,95,120.0
2513,G3,341.5,2.5,95,120.0
2514,D3,341.5,2.5,95,120.0
2515,G2,341.5,2.5,95,120.0
2516,G1,341.75,0.25,95,120.0
2517,F#2,341.75,0.25,95,120.0
2518,D2,342.0,0.25,95,120.0
2519,F#2,342.0,0.25,95,120.0
2520,C2,342.0,0.25,95,120.0
2521,B-2,342.0,0.25,95,120.0
2522,G1,342.25,0.25,95,120.0
2523,F#2,342.25,0.25,95,120.0
2524,G1,342.5,0.25,95,120.0
2525,F#2,342.5,0.25,95,120.0
2526,G1,342.75,0.25,95,120.0
2527,F#2,342.75,0.25,95,120.0
2528,D2,343.0,0.25,95,120.0
2529,F#2,343.0,0.25,95,120.0
2530,D2,343.0,0.25,95,120.0
2531,B-2,343.0,0.25,95,120.0
2532,G1,343.25,0.25,95,120.0
2533,F#2,343.25,0.25,95,120.0
2534,G1,343.5,0.25,95,120.0
2535,F#2,343.5,0.25,95,120.0
2536,G1,343.75,0.25,95,120.0
2537,F#2,343.75,0.25,95,120.0
2538,D3,344.0,0.25,95,120.0
2539,D2,344.0,0.25,95,120.0
2540,F#2,344.0,0.25,95,120.0
2541,C2,344.0,0.25,95,120.0
2542,C#3,344.0,0.25,95,120.0
2543,B-2,344.0,0.25,95,120.0
2544,D3,344.25,0.25,95,120.0
2545,G1,344.25,0.25,95,120.0
2546,F#2,344.25,0.25,95,120.0
2547,D3,344.5,0.25,95,120.0
2548,G1,344.5,0.25,95,120.0
2549,F#2,344.5,0.25,95,120.0
2550,D3,344.75,0.25,95,120.0
2551,G1,344.75,0.25,95,120.0
2552,F#2,344.75,0.25,95,120.0
2553,D2,345.0,0.25,95,120.0
2554,C4,345.0,0.25,95,120.0
2555,G3,345.0,0.25,95,120.0
2556,F#2,345.0,0.25,95,120.0
2557,D2,345.0,0.25,95,120.0
2558,B-2,345.0,0.25,95,120.0
2559,G1,345.25,0.25,95,120.0
2560,F#2,345.25,0.25,95,120.0
2561,D4,345.25,0.25,95,120.0
2562,A3,345.25,0.25,95,120.0
2563,G1,345.5,0.25,95,120.0
2564,F#2,345.5,0.25,95,120.0
2565,C4,345.5,1.0,95,120.0
2566,G3,345.5,1.0,95,120.0
2567,G1,345.75,0.25,95,120.0
2568,F#2,345.75,0.25,95,120.0
2569,D2,346.0,0.25,95,120.0
2570,F#2,346.0,0.25,95,120.0
2571,C2,346.0,0.25,95,120.0
2572,B-2,346.0,0.25,95,120.0
2573,G1,346.25,0.25,95,120.0
2574,F#2,346.25,0.25,95,120.0
2575,G1,346.5,0.25,95,120.0
2576,F#2,346.5,0.25,95,120.0
2577,C4,346.5,1.0,95,120.0
2578,G3,346.5,1.0,95,120.0
2579,G1,346.75,0.25,95,120.0
2580,F#2,346.75,0.25,95,120.0
2581,D2,347.0,0.25,95,120.0
2582,F#2,347.0,0.25,95,120.0
2583,D2,347.0,0.25,95,120.0
2584,B-2,347.0,0.25,95,120.0
2585,G1,347.25,0.25,95,120.0
2586,F#2,347.25,0.25,95,120.0
2587,D3,347.5,0.062,95,120.0
2588,G1,347.5,0.25,95,120.0
2589,F#2,347.5,0.25,95,120.0
2590,D3,347.75,0.062,95,120.0
2591,G1,347.75,0.25,95,120.0
2592,F#2,347.75,0.25,95,120.0
2593,D2,348.0,0.25,95,120.0
2594,C4,348.0,1.5,95,120.0
2595,G3,348.0,1.5,95,120.0
2596,C3,348.0,1.5,95,120.0
2597,F#2,348.0,0.25,95,120.0
2598,C2,348.0,0.25,95,120.0
2599,C#3,348.0,0.25,95,120.0
2600,B-2,348.0,0.25,95,120.0
2601,G1,348.25,0.25,95,120.0
2602,F#2,348.25,0.25,95,120.0
2603,G1,348.5,0.25,95,120.0
2604,F#2,348.5,0.25,95,120.0
2605,G1,348.75,0.25,95,120.0
2606,F#2,348.75,0.25,95,120.0
2607,D2,349.0,0.25,95,120.0
2608,F#2,349.0,0.25,95,120.0
2609,D2,349.0,0.25,95,120.0
2610,B-2,349.0,0.25,95,120.0
2611,G1,349.25,0.25,95,120.0
2612,F#2,349.25,0.25,95,120.0
2613,G1,349.5,0.25,95,120.0
2614,F#2,349.5,0.25,95,120.0
2615,G3,349.5,2.5,95,120.0
2616,D3,349.5,2.5,95,120.0
2617,G2,349.5,2.5,95,120.0
2618,G1,349.75,0.25,95,120.0
2619,F#2,349.75,0.25,95,120.0
2620,D2,350.0,0.25,95,120.0
2621,F#2,350.0,0.25,95,120.0
2622,C2,350.0,0.25,95,120.0
2623,B-2,350.0,0.25,95,120.0
2624,G1,350.25,0.25,95,120.0
2625,F#2,350.25,0.25,95,120.0
2626,G1,350.5,0.25,95,120.0
2627,F#2,350.5,0.25,95,120.0
2628,G1,350.75,0.25,95,120.0
2629,F#2,350.75,0.25,95,120.0
2630,D2,351.0,0.25,95,120.0
2631,F#2,351.0,0.25,95,120.0
2632,D2,351.0,0.25,95,120.0
2633,B-2,351.0,0.25,95,120.0
2634,G1,351.25,0.25,95,120.0
2635,F#2,351.25,0.25,95,120.0
2636,G1,351.5,0.25,95,120.0
2637,F#2,351.5,0.25,95,120.0
2638,G1,351.75,0.25,95,120.0
2639,F#2,351.75,0.25,95,120.0
2640,E3,352.0,0.25,95,120.0
2641,E2,352.0,0.25,95,120.0
2642,F#2,352.0,0.25,95,120.0
2643,C2,352.0,0.25,95,120.0
2644,C#3,352.0,0.25,95,120.0
2645,B-2,352.0,0.25,95,120.0
2646,E3,352.25,0.25,95,120.0
2647,A1,352.25,0.25,95,120.0
2648,F#2,352.25,0.25,95,120.0
2649,E3,352.5,0.25,95,120.0
2650,A1,352.5,0.25,95,120.0
2651,F#2,352.5,0.25,95,120.0
2652,E3,352.75,0.25,95,120.0
2653,A1,352.75,0.25,95,120.0
2654,F#2,352.75,0.25,95,120.0
2655,E2,353.0,0.25,95,120.0
2656,D4,353.0,0.25,95,120.0
2657,A3,353.0,0.25,95,120.0
2658,F#2,353.0,0.25,95,120.0
2659,D2,353.0,0.25,95,120.0
2660,B-2,353.0,0.25,95,120.0
2661,A1,353.25,0.25,95,120.0
2662,F#2,353.25,0.25,95,120.0
2663,E4,353.25,0.25,95,120.0
2664,B3,353.25,0.25,95,120.0
2665,A1,353.5,0.25,95,120.0
2666,F#2,353.5,0.25,95,120.0
2667,D4,353.5,1.0,95,120.0
2668,A3,353.5,1.0,95,120.0
2669,A1,353.75,0.25,95,120.0
2670,F#2,353.75,0.25,95,120.0
2671,E2,354.0,0.25,95,120.0
2672,F#2,354.0,0.25,95,120.0
2673,C2,354.0,0.25,95,120.0
2674,B-2,354.0,0.25,95,120.0
2675,A1,354.25,0.25,95,120.0
2676,F#2,354.25,0.25,95,120.0
2677,A1,354.5,0.25,95,120.0
2678,F#2,354.5,0.25,95,120.0
2679,D4,354.5,1.0,95,120.0
2680,A3,354.5,1.0,95,120.0
2681,A1,354.75,0.25,95,120.0
2682,F#2,354.75,0.25,95,120.0
2683,E2,355.0,0.25,95,120.0
2684,F#2,355.0,0.25,95,120.0
2685,D2,355.0,0.25,95,120.0
2686,B-2,355.0,0.25,95,120.0
2687,A1,355.25,0.25,95,120.0
2688,F#2,355.25,0.25,95,120.0
2689,D3,355.5,0.062,95,120.0
2690,A1,355.5,0.25,95,120.0
2691,F#2,355.5,0.25,95,120.0
2692,D3,355.75,0.062,95,120.0
2693,A1,355.75,0.25,95,120.0
2694,F#2,355.75,0.25,95,120.0
2695,E2,356.0,0.25,95,120.0
2696,D4,356.0,1.5,95,120.0
2697,A3,356.0,1.5,95,120.0
2698,D3,356.0,1.5,95,120.0
2699,F#2,356.0,0.25,95,120.0
2700,C2,356.0,0.25,95,120.0
2701,C#3,356.0,0.25,95,120.0
2702,B-2,356.0,0.25,95,120.0
2703,A1,356.25,0.25,95,120.0
2704,F#2,356.25,0.25,95,120.0
2705,A1,356.5,0.25,95,120.0
2706,F#2,356.5,0.25,95,120.0
2707,A1,356.75,0.25,95,120.0
2708,F#2,356.75,0.25,95,120.0
2709,E2,357.0,0.25,95,120.0
2710,F#2,357.0,0.25,95,120.0
2711,D2,357.0,0.25,95,120.0
2712,B-2,357.0,0.25,95,120.0
2713,A1,357.25,0.25,95,120.0
2714,F#2,357.25,0.25,95,120.0
2715,A1,357.5,0.25,95,120.0
2716,F#2,357.5,0.25,95,120.0
2717,A3,357.5,2.5,95,120.0
2718,E3,357.5,2.5,95,120.0
2719,A2,357.5,2.5,95,120.0
2720,A1,357.75,0.25,95,120.0
2721,F#2,357.75,0.25,95,120.0
2722,E2,358.0,0.25,95,120.0
2723,F#2,358.0,0.25,95,120.0
2724,C2,358.0,0.25,95,120.0
2725,B-2,358.0,0.25,95,120.0
2726,A1,358.25,0.25,95,120.0
2727,F#2,358.25,0.25,95,120.0
2728,A1,358.5,0.25,95,120.0
2729,F#2,358.5,0.25,95,120.0
2730,A1,358.75,0.25,95,120.0
2731,F#2,358.75,0.25,95,120.0
2732,E2,359.0,0.25,95,120.0
2733,F#2,359.0,0.25,95,120.0
2734,D2,359.0,0.25,95,120.0
2735,B-2,359.0,0.25,95,120.0
2736,A1,359.25,0.25,95,120.0
2737,F#2,359.25,0.25,95,120.0
2738,A1,359.5,0.25,95,120.0
2739,F#2,359.5,0.25,95,120.0
2740,A1,359.75,0.25,95,120.0
2741,F#2,359.75,0.25,95,120.0
2742,E3,360.0,0.25,95,120.0
2743,E2,360.0,0.25,95,120.0
2744,F#2,360.0,0.25,95,120.0
2745,C2,360.0,0.25,95,120.0
2746,C#3,360.0,0.25,95,120.0
2747,B-2,360.0,0.25,95,120.0
2748,E3,360.25,0.25,95,120.0
2749,A1,360.25,0.25,95,120.0
2750,F#2,360.25,0.25,95,120.0
2751,E3,360.5,0.25,95,120.0
2752,A1,360.5,0.25,95,120.0
2753,F#2,360.5,0.25,95,120.0
2754,E3,360.75,0.25,95,120.0
2755,A1,360.75,0.25,95,120.0
2756,F#2,360.75,0.25,95,120.0
2757,E2,361.0,0.25,95,120.0
2758,D4,361.0,0.25,95,120.0
2759,A3,361.0,0.25,95,120.0
2760,F#2,361.0,0.25,95,120.0
2761,D2,361.0,0.25,95,120.0
2762,B-2,361.0,0.25,95,120.0
2763,A1,361.25,0.25,95,120.0
2764,F#2,361.25,0.25,95,120.0
2765,E4,361.25,0.25,95,120.0
2766,B3,361.25,0.25,95,120.0
2767,A1,361.5,0.25,95,120.0
2768,F#2,361.5,0.25,95,120.0
2769,D4,361.5,1.0,95,120.0
2770,A3,361.5,1.0,95,120.0
2771,A1,361.75,0.25,95,120.0
2772,F#2,361.75,0.25,95,120.0
2773,E2,362.0,0.25,95,120.0
2774,F#2,362.0,0.25,95,120.0
2775,C2,362.0,0.25,95,120.0
2776,B-2,362.0,0.25,95,120.0
2777,A1,362.25,0.25,95,120.0
2778,F#2,362.25,0.25,95,120.0
2779,A1,362.5,0.25,95,120.0
2780,F#2,362.5,0.25,95,120.0
2781,D4,362.5,1.0,95,120.0
2782,A3,362.5,1.0,95,120.0
2783,A1,362.75,0.25,95,120.0
2784,F#2,362.75,0.25,95,120.0
2785,E2,363.0,0.25,95,120.0
2786,F#2,363.0,0.25,95,120.0
2787,D2,363.0,0.25,95,120.0
2788,B-2,363.0,0.25,95,120.0
2789,A1,363.25,0.25,95,120.0
2790,F#2,363.25,0.25,95,120.0
2791,D3,363.5,0.062,95,120.0
2792,A1,363.5,0.25,95,120.0
2793,F#2,363.5,0.25,95,120.0
2794,D3,363.75,0.062,95,120.0
2795,A1,363.75,0.25,95,120.0
2796,F#2,363.75,0.25,95,120.0
2797,E2,364.0,0.25,95,120.0
2798,D4,364.0,1.5,95,120.0
2799,A3,364.0,1.5,95,120.0
2800,D3,364.0,1.5,95,120.0
2801,F#2,364.0,0.25,95,120.0
2802,D2,364.0,0.25,95,120.0
2803,C#3,364.0,0.25,95,120.0
2804,B-2,364.0,0.25,95,120.0
2805,A1,364.25,0.25,95,120.0
2806,A1,364.5,0.25,95,120.0
2807,A1,364.75,0.25,95,120.0
2808,E2,365.0,0.25,95,120.0
2809,F#2,365.0,0.25,95,120.0
2810,D2,365.0,0.25,95,120.0
2811,C#3,365.0,0.25,95,120.0
2812,B-2,365.0,0.25,95,120.0
2813,A1,365.25,0.25,95,120.0
2814,A1,365.5,0.25,95,120.0
2815,A3,365.5,2.5,95,120.0
2816,E3,365.5,2.5,95,120.0
2817,A2,365.5,2.5,95,120.0
2818,A1,365.75,0.25,95,120.0
2819,E2,366.0,0.25,95,120.0
2820,F#2,366.0,0.25,95,120.0
2821,D2,366.0,0.25,95,120.0
2822,C#3,366.0,0.25,95,120.0
2823,B-2,366.0,0.25,95,120.0
2824,A1,366.25,0.25,95,120.0
2825,A1,366.5,0.25,95,120.0
2826,A1,366.75,0.25,95,120.0
2827,E2,367.0,0.25,95,120.0
2828,F#2,367.0,0.25,95,120.0
2829,D2,367.0,0.25,95,120.0
2830,C#3,367.0,0.25,95,120.0
2831,B-2,367.0,0.25,95,120.0
2832,A1,367.25,0.75,95,120.0
2833,B2,368.0,0.25,95,120.0
2834,B1,368.0,0.5,95,120.0
2835,C#3,368.0,1.0,95,120.0
2836,C2,368.0,1.0,95,120.0
2837,B2,368.25,0.25,95,120.0
2838,B2,368.5,0.25,95,120.0
2839,B2,368.75,0.25,95,120.0
2840,B1,369.0,0.5,95,120.0
2841,D4,369.0,0.25,95,120.0
2842,A3,369.0,0.25,95,120.0
2843,B-2,369.0,1.0,95,120.0
2844,D2,369.0,1.0,95,120.0
2845,E4,369.25,0.25,95,120.0
2846,B3,369.25,0.25,95,120.0
2847,D4,369.5,1.0,95,120.0
2848,A3,369.5,1.0,95,120.0
2849,B1,370.0,0.5,95,120.0
2850,B-2,370.0,1.0,95,120.0
2851,C2,370.0,1.0,95,120.0
2852,D4,370.5,1.0,95,120.0
2853,A3,370.5,1.0,95,120.0
2854,B1,371.0,0.5,95,120.0
2855,B-2,371.0,1.0,95,120.0
2856,D2,371.0,1.0,95,120.0
2857,D3,371.5,0.062,95,120.0
2858,D3,371.75,0.062,95,120.0
2859,B1,372.0,0.5,95,120.0
2860,A3,372.0,1.5,95,120.0
2861,E3,372.0,1.5,95,120.0
2862,A2,372.0,1.5,95,120.0
2863,B-2,372.0,1.0,95,120.0
2864,C2,372.0,1.0,95,120.0
2865,B1,373.0,0.5,95,120.0
2866,B-2,373.0,1.0,95,120.0
2867,D2,373.0,1.0,95,120.0
2868,G3,373.5,1.0,95,120.0
2869,D3,373.5,1.0,95,120.0
2870,G2,373.5,1.0,95,120.0
2871,B1,374.0,0.5,95,120.0
2872,B-2,374.0,1.0,95,120.0
2873,C2,374.0,1.0,95,120.0
2874,E3,374.5,0.25,95,120.0
2875,D3,374.75,0.25,95,120.0
2876,F#3,375.0,0.25,95,120.0
2877,B1,375.0,0.5,95,120.0
2878,B-2,375.0,1.0,95,120.0
2879,D2,375.0,1.0,95,120.0
2880,E3,375.25,0.25,95,120.0
2881,D3,375.5,0.25,95,120.0
2882,C#3,375.75,0.25,95,120.0
2883,B2,376.0,0.25,95,120.0
2884,B1,376.0,0.5,95,120.0
2885,B-2,376.0,1.0,95,120.0
2886,C2,376.0,1.0,95,120.0
2887,B2,376.25,0.25,95,120.0
2888,B2,376.5,0.25,95,120.0
2889,B2,376.75,0.25,95,120.0
2890,B1,377.0,0.5,95,120.0
2891,D4,377.0,0.25,95,120.0
2892,A3,377.0,0.25,95,120.0
2893,B-2,377.0,1.0,95,120.0
2894,D2,377.0,1.0,95,120.0
2895,E4,377.25,0.25,95,120.0
2896,B3,377.25,0.25,95,120.0
2897,D4,377.5,1.0,95,120.0
2898,A3,377.5,1.0,95,120.0
2899,B1,378.0,0.5,95,120.0
2900,B-2,378.0,1.0,95,120.0
2901,C2,378.0,1.0,95,120.0
2902,D4,378.5,1.0,95,120.0
2903,A3,378.5,1.0,95,120.0
2904,B1,379.0,0.5,95,120.0
2905,B-2,379.0,1.0,95,120.0
2906,D2,379.0,1.0,95,120.0
2907,D3,379.5,0.062,95,120.0
2908,D3,379.75,0.062,95,120.0
2909,G3,380.0,0.5,95,120.0
2910,G1,380.0,0.5,95,120.0
2911,B-2,380.0,1.0,95,120.0
2912,C2,380.0,1.0,95,120.0
2913,D4,380.5,0.5,95,120.0
2914,D2,380.5,0.5,95,120.0
2915,B3,381.0,0.5,95,120.0
2916,B1,381.0,0.5,95,120.0
2917,B-2,381.0,1.0,95,120.0
2918,D2,381.0,1.0,95,120.0
2919,G3,381.5,0.5,95,120.0
2920,G1,381.5,0.5,95,120.0
2921,E4,382.0,0.5,95,120.0
2922,E1,382.0,0.5,95,120.0
2923,B-2,382.0,1.0,95,120.0
2924,C2,382.0,1.0,95,120.0
2925,C#4,382.5,0.5,95,120.0
2926,C#2,382.5,0.5,95,120.0
2927,A3,383.0,1.0,95,120.0
2928,A2,383.0,1.0,95,120.0
2929,B-2,383.0,1.0,95,120.0
2930,D2,383.0,1.0,95,120.0
2931,B2,384.0,0.25,95,120.0
2932,B1,384.0,0.5,95,120.0
2933,C#3,384.0,1.0,95,120.0
2934,C2,384.0,1.0,95,120.0
2935,B2,384.25,0.25,95,120.0
2936,B2,384.5,0.25,95,120.0
2937,B2,384.75,0.25,95,120.0
2938,B1,385.0,0.5,95,120.0
2939,D4,385.0,0.25,95,120.0
2940,A3,385.0,0.25,95,120.0
2941,B-2,385.0,1.0,95,120.0
2942,D2,385.0,1.0,95,120.0
2943,E4,385.25,0.25,95,120.0
2944,B3,385.25,0.25,95,120.0
2945,D4,385.5,1.0,95,120.0
2946,A3,385.5,1.0,95,120.0
2947,B1,386.0,0.5,95,120.0
2948,B-2,386.0,1.0,95,120.0
2949,C2,386.0,1.0,95,120.0
2950,D4,386.5,1.0,95,120.0
2951,A3,386.5,1.0,95,120.0
2952,B1,387.0,0.5,95,120.0
2953,B-2,387.0,1.0,95,120.0
2954,D2,387.0,1.0,95,120.0
2955,D3,387.5,0.062,95,120.0
2956,D3,387.75,0.062,95,120.0
2957,B1,388.0,0.5,95,120.0
2958,A3,388.0,1.5,95,120.0
2959,E3,388.0,1.5,95,120.0
2960,A2,388.0,1.5,95,120.0
2961,B-2,388.0,1.0,95,120.0
2962,C2,388.0,1.0,95,120.0
2963,B1,389.0,0.5,95,120.0
2964,B-2,389.0,1.0,95,120.0
2965,D2,389.0,1.0,95,120.0
2966,G3,389.5,1.0,95,120.0
2967,D3,389.5,1.0,95,120.0
2968,G2,389.5,1.0,95,120.0
2969,B1,390.0,0.5,95,120.0
2970,B-2,390.0,1.0,95,120.0
2971,C2,390.0,1.0,95,120.0
2972,E3,390.5,0.25,95,120.0
2973,E2,390.5,0.25,95,120.0
2974,D3,390.75,0.25,95,120.0
2975,D2,390.75,0.25,95,120.0
2976,F#3,391.0,0.25,95,120.0
2977,F#2,391.0,0.25,95,120.0
2978,B-2,391.0,1.0,95,120.0
2979,D2,391.0,1.0,95,120.0
2980,E3,391.25,0.25,95,120.0
2981,E2,391.25,0.25,95,120.0
2982,D3,391.5,0.25,95,120.0
2983,D2,391.5,0.25,95,120.0
2984,C#3,391.75,0.25,95,120.0
2985,C#2,391.75,0.25,95,120.0
2986,B2,392.0,0.25,95,120.0
2987,B1,392.0,0.5,95,120.0
2988,B-2,392.0,1.0,95,120.0
2989,C2,392.0,1.0,95,120.0
2990,B2,392.25,0.25,95,120.0
2991,B2,392.5,0.25,95,120.0
2992,B2,392.75,0.25,95,120.0
2993,B1,393.0,0.5,95,120.0
2994,D4,393.0,0.25,95,120.0
2995,A3,393.0,0.25,95,120.0
2996,B-2,393.0,1.0,95,120.0
2997,D2,393.0,1.0,95,120.0
2998,E4,393.25,0.25,95,120.0
2999,B3,393.25,0.25,95,120.0
3000,D4,393.5,1.0,95,120.0
3001,A3,393.5,1.0,95,120.0
3002,B1,394.0,0.5,95,120.0
3003,B-2,394.0,1.0,95,120.0
3004,C2,394.0,1.0,95,120.0
3005,D4,394.5,1.0,95,120.0
3006,A3,394.5,1.0,95,120.0
3007,B1,395.0,0.5,95,120.0
3008,B-2,395.0,1.0,95,120.0
3009,D2,395.0,1.0,95,120.0
3010,D3,395.5,0.062,95,120.0
3011,D3,395.75,0.062,95,120.0
3012,G3,396.0,0.5,95,120.0
3013,G1,396.0,0.5,95,120.0
3014,B-2,396.0,1.0,95,120.0
3015,C2,396.0,1.0,95,120.0
3016,D4,396.5,0.5,95,120.0
3017,D2,396.5,0.5,95,120.0
3018,B3,397.0,0.5,95,120.0
3019,B1,397.0,0.5,95,120.0
3020,B-2,397.0,1.0,95,120.0
3021,D2,397.0,1.0,95,120.0
3022,G3,397.5,0.5,95,120.0
3023,G1,397.5,0.5,95,120.0
3024,E4,398.0,0.5,95,120.0
3025,E1,398.0,0.5,95,120.0
3026,B-2,398.0,1.0,95,120.0
3027,C2,398.0,1.0,95,120.0
3028,C#4,398.5,0.5,95,120.0
3029,C#2,398.5,0.5,95,120.0
3030,A3,399.0,1.0,95,120.0
3031,A2,399.0,1.0,95,120.0
3032,B-2,399.0,1.0,95,120.0
3033,D2,399.0,1.0,95,120.0
3034,B2,400.0,0.25,95,120.0
3035,B1,400.0,0.5,95,120.0
3036,D2,400.0,1.0,95,120.0
3037,D2,400.0,1.0,95,120.0
3038,B2,400.25,0.25,95,120.0
3039,B2,400.5,0.25,95,120.0
3040,B2,400.75,0.25,95,120.0
3041,B1,401.0,0.5,95,120.0
3042,D4,401.0,0.25,95,120.0
3043,A3,401.0,0.25,95,120.0
3044,D2,401.0,1.0,95,120.0
3045,D2,401.0,1.0,95,120.0
3046,E4,401.25,0.25,95,120.0
3047,B3,401.25,0.25,95,120.0
3048,D4,401.5,1.0,95,120.0
3049,A3,401.5,1.0,95,120.0
3050,B1,402.0,0.5,95,120.0
3051,D2,402.0,1.0,95,120.0
3052,D2,402.0,1.0,95,120.0
3053,D4,402.5,1.0,95,120.0
3054,A3,402.5,1.0,95,120.0
3055,B1,403.0,0.5,95,120.0
3056,D2,403.0,1.0,95,120.0
3057,D2,403.0,1.0,95,120.0
3058,D3,403.5,0.062,95,120.0
3059,D3,403.75,0.062,95,120.0
3060,B1,404.0,0.5,95,120.0
3061,A3,404.0,1.5,95,120.0
3062,E3,404.0,1.5,95,120.0
3063,A2,404.0,1.5,95,120.0
3064,D2,404.0,1.0,95,120.0
3065,D2,404.0,1.0,95,120.0
3066,B1,405.0,0.5,95,120.0
3067,D2,405.0,1.0,95,120.0
3068,D2,405.0,1.0,95,120.0
3069,G3,405.5,1.0,95,120.0
3070,D3,405.5,1.0,95,120.0
3071,G2,405.5,1.0,95,120.0
3072,B1,406.0,0.5,95,120.0
3073,D2,406.0,1.0,95,120.0
3074,D2,406.0,1.0,95,120.0
3075,E3,406.5,0.25,95,120.0
3076,D3,406.75,0.25,95,120.0
3077,F#3,407.0,0.25,95,120.0
3078,B1,407.0,0.5,95,120.0
3079,D2,407.0,1.0,95,120.0
3080,D2,407.0,1.0,95,120.0
3081,E3,407.25,0.25,95,120.0
3082,D3,407.5,0.25,95,120.0
3083,C#3,407.75,0.25,95,120.0
3084,B2,408.0,0.25,95,120.0
3085,B1,408.0,0.5,95,120.0
3086,D2,408.0,1.0,95,120.0
3087,D2,408.0,1.0,95,120.0
3088,B2,408.25,0.25,95,120.0
3089,B2,408.5,0.25,95,120.0
3090,B2,408.75,0.25,95,120.0
3091,B1,409.0,0.5,95,120.0
3092,D4,409.0,0.25,95,120.0
3093,A3,409.0,0.25,95,120.0
3094,D2,409.0,1.0,95,120.0
3095,D2,409.0,1.0,95,120.0
3096,E4,409.25,0.25,95,120.0
3097,B3,409.25,0.25,95,120.0
3098,D4,409.5,1.0,95,120.0
3099,A3,409.5,1.0,95,120.0
3100,B1,410.0,0.5,95,120.0
3101,D2,410.0,1.0,95,120.0
3102,D2,410.0,1.0,95,120.0
3103,D4,410.5,1.0,95,120.0
3104,A3,410.5,1.0,95,120.0
3105,B1,411.0,0.5,95,120.0
3106,D2,411.0,1.0,95,120.0
3107,D2,411.0,1.0,95,120.0
3108,D3,411.5,0.062,95,120.0
3109,D3,411.75,0.062,95,120.0
3110,G3,412.0,0.5,95,120.0
3111,G1,412.0,0.5,95,120.0
3112,D2,412.0,1.0,95,120.0
3113,D2,412.0,1.0,95,120.0
3114,D4,412.5,0.5,95,120.0
3115,D2,412.5,0.5,95,120.0
3116,B3,413.0,0.5,95,120.0
3117,B1,413.0,0.5,95,120.0
3118,D2,413.0,1.0,95,120.0
3119,D2,413.0,1.0,95,120.0
3120,G3,413.5,0.5,95,120.0
3121,G1,413.5,0.5,95,120.0
3122,E4,414.0,0.5,95,120.0
3123,E1,414.0,0.5,95,120.0
3124,D2,414.0,1.0,95,120.0
3125,D2,414.0,1.0,95,120.0
3126,C#4,414.5,0.5,95,120.0
3127,C#2,414.5,0.5,95,120.0
3128,A3,415.0,1.0,95,120.0
3129,A2,415.0,1.0,95,120.0
3130,D2,415.0,1.0,95,120.0
3131,D2,415.0,1.0,95,120.0
3132,B2,416.0,0.25,95,120.0
3133,B1,416.0,0.5,95,120.0
3134,C#3,416.0,1.0,95,120.0
3135,D2,416.0,1.0,95,120.0
3136,B2,416.25,0.25,95,120.0
3137,B2,416.5,0.25,95,120.0
3138,B2,416.75,0.25,95,120.0
3139,B1,417.0,0.5,95,120.0
3140,D4,417.0,0.25,95,120.0
3141,A3,417.0,0.25,95,120.0
3142,C#3,417.0,1.0,95,120.0
3143,D2,417.0,1.0,95,120.0
3144,E4,417.25,0.25,95,120.0
3145,B3,417.25,0.25,95,120.0
3146,D4,417.5,1.0,95,120.0
3147,A3,417.5,1.0,95,120.0
3148,B1,418.0,0.5,95,120.0
3149,C#3,418.0,1.0,95,120.0
3150,D2,418.0,1.0,95,120.0
3151,D4,418.5,1.0,95,120.0
3152,A3,418.5,1.0,95,120.0
3153,B1,419.0,0.5,95,120.0
3154,C#3,419.0,1.0,95,120.0
3155,D2,419.0,1.0,95,120.0
3156,D3,419.5,0.062,95,120.0
3157,D3,419.75,0.062,95,120.0
3158,B1,420.0,0.5,95,120.0
3159,A3,420.0,1.5,95,120.0
3160,E3,420.0,1.5,95,120.0
3161,A2,420.0,1.5,95,120.0
3162,C#3,420.0,1.0,95,120.0
3163,D2,420.0,1.0,95,120.0
3164,B1,421.0,0.5,95,120.0
3165,C#3,421.0,1.0,95,120.0
3166,D2,421.0,1.0,95,120.0
3167,G3,421.5,1.0,95,120.0
3168,D3,421.5,1.0,95,120.0
3169,G2,421.5,1.0,95,120.0
3170,B1,422.0,0.5,95,120.0
3171,C#3,422.0,1.0,95,120.0
3172,D2,422.0,1.0,95,120.0
3173,E3,422.5,0.25,95,120.0
3174,D3,422.75,0.25,95,120.0
3175,F#3,423.0,0.25,95,120.0
3176,B1,423.0,0.5,95,120.0
3177,C#3,423.0,1.0,95,120.0
3178,D2,423.0,1.0,95,120.0
3179,E3,423.25,0.25,95,120.0
3180,D3,423.5,0.25,95,120.0
3181,C#3,423.75,0.25,95,120.0
3182,B2,424.0,0.25,95,120.0
3183,B1,424.0,0.5,95,120.0
3184,C#3,424.0,1.0,95,120.0
3185,D2,424.0,1.0,95,120.0
3186,B2,424.25,0.25,95,120.0
3187,B2,424.5,0.25,95,120.0
3188,B2,424.75,0.25,95,120.0
3189,B1,425.0,0.5,95,120.0
3190,D4,425.0,0.25,95,120.0
3191,A3,425.0,0.25,95,120.0
3192,C#3,425.0,1.0,95,120.0
3193,D2,425.0,1.0,95,120.0
3194,E4,425.25,0.25,95,120.0
3195,B3,425.25,0.25,95,120.0
3196,D4,425.5,1.0,95,120.0
3197,A3,425.5,1.0,95,120.0
3198,B1,426.0,0.5,95,120.0
3199,C#3,426.0,1.0,95,120.0
3200,D2,426.0,1.0,95,120.0
3201,D4,426.5,1.0,95,120.0
3202,A3,426.5,1.0,95,120.0
3203,B1,427.0,0.5,95,120.0
3204,C#3,427.0,1.0,95,120.0
3205,D2,427.0,1.0,95,120.0
3206,D3,427.5,0.062,95,120.0
3207,D3,427.75,0.062,95,120.0
3208,G3,428.0,0.5,95,120.0
3209,G1,428.0,0.5,95,120.0
3210,C#3,428.0,1.0,95,120.0
3211,D2,428.0,1.0,95,120.0
3212,D4,428.5,0.5,95,120.0
3213,D2,428.5,0.5,95,120.0
3214,B3,429.0,0.5,95,120.0
3215,B1,429.0,0.5,95,120.0
3216,C#3,429.0,1.0,95,120.0
3217,D2,429.0,1.0,95,120.0
3218,G3,429.5,0.5,95,120.0
3219,G1,429.5,0.5,95,120.0
3220,E4,430.0,0.5,95,120.0
3221,E1,430.0,0.5,95,120.0
3222,C#3,430.0,1.0,95,120.0
3223,D2,430.0,1.0,95,120.0
3224,C#4,430.5,0.5,95,120.0
3225,C#2,430.5,0.5,95,120.0
3226,A3,431.0,1.0,95,120.0
3227,A2,431.0,1.0,95,120.0
3228,C#3,431.0,1.0,95,120.0
3229,D2,431.0,1.0,95,120.0
3230,B1,432.0,4.0,95,120.0
3231,F#3,432.0,4.0,95,120.0
3232,B2,432.0,4.0,95,120.0
3233,C2,432.0,1.0,95,120.0
3234,D2,432.0,1.0,95,120.0
3235,B-2,432.0,1.0,95,120.0
3236,F#2,432.0,1.0,95,120.0
3237,C#3,432.0,1.0,95,120.0
3238,C#3,433.0,0.25,95,120.0
3239,A3,433.25,0.25,95,120.0
3240,G3,433.5,0.25,95,120.0
3241,A3,433.75,0.25,95,120.0
3242,C#3,434.0,0.25,95,120.0
3243,A3,434.25,0.25,95,120.0
3244,G3,434.5,0.25,95,120.0
3245,C#3,434.75,0.25,95,120.0
3246,C#3,435.0,1.0,95,120.0
3247,A3,435.0,1.0,95,120.0
