,note_name,start_time,duration,velocity,tempo
0,F#2,0.0,0.75,95,80.0
1,B-3,0.0,0.75,63,80.0
2,B-4,0.0,0.75,63,80.0
3,F#3,0.0,0.75,63,80.0
4,F#4,0.0,0.75,63,80.0
5,C#3,0.0,0.75,63,80.0
6,C#4,0.0,0.75,63,80.0
7,F#1,0.0,1.0,63,80.0
8,F#2,0.0,1.0,63,80.0
9,G#2,0.5,0.5,95,80.0
10,F#2,0.75,0.25,95,80.0
11,B-3,0.75,0.25,63,80.0
12,B-4,0.75,0.25,63,80.0
13,F#3,0.75,0.25,63,80.0
14,F#4,0.75,0.25,63,80.0
15,C#3,0.75,0.25,63,80.0
16,C#4,0.75,0.25,63,80.0
17,F#2,1.0,0.5,95,80.0
18,B-3,1.0,0.5,63,80.0
19,B-4,1.0,0.5,63,80.0
20,F#3,1.0,0.5,63,80.0
21,F#4,1.0,0.5,63,80.0
22,C#3,1.0,0.5,63,80.0
23,C#4,1.0,0.5,63,80.0
24,F#1,1.0,1.0,63,80.0
25,F#2,1.0,1.0,63,80.0
26,G#2,1.0,0.5,95,80.0
27,E2,1.0,0.5,95,80.0
28,C2,1.0,0.5,95,80.0
29,G#2,1.5,0.25,95,80.0
30,F#2,1.5,0.25,95,80.0
31,B-3,1.5,0.25,63,80.0
32,B-4,1.5,0.25,63,80.0
33,F#3,1.5,0.25,63,80.0
34,F#4,1.5,0.25,63,80.0
35,C#3,1.5,0.25,63,80.0
36,C#4,1.5,0.25,63,80.0
37,F#2,1.75,1.0,95,80.0
38,B-3,1.75,1.75,63,80.0
39,B-4,1.75,1.75,63,80.0
40,E3,1.75,1.75,63,80.0
41,E4,1.75,1.75,63,80.0
42,C#3,1.75,1.75,63,80.0
43,C#4,1.75,1.75,63,80.0
44,G#2,1.75,0.25,95,80.0
45,C2,1.75,0.25,95,80.0
46,G#2,2.0,0.25,95,80.0
47,F#1,2.0,1.0,63,80.0
48,F#2,2.0,1.0,63,80.0
49,G#2,2.25,0.25,95,80.0
50,C2,2.25,0.25,95,80.0
51,G#2,2.5,0.25,95,80.0
52,F#2,2.75,0.25,95,80.0
53,G#2,2.75,0.25,95,80.0
54,C2,2.75,0.25,95,80.0
55,F#2,3.0,1.0,95,80.0
56,F#1,3.0,1.0,63,80.0
57,F#2,3.0,1.0,63,80.0
58,G#2,3.0,0.25,95,80.0
59,E2,3.0,0.25,95,80.0
60,G#2,3.25,0.25,95,80.0
61,G#2,3.5,0.25,95,80.0
62,B-3,3.5,0.5,63,80.0
63,B-4,3.5,0.5,63,80.0
64,E3,3.5,0.5,63,80.0
65,E4,3.5,0.5,63,80.0
66,C#3,3.5,0.5,63,80.0
67,C#4,3.5,0.5,63,80.0
68,G#2,3.75,0.25,95,80.0
69,C2,3.75,0.25,95,80.0
70,F#2,4.0,0.75,95,80.0
71,B-3,4.0,0.75,63,80.0
72,B-4,4.0,0.75,63,80.0
73,E-3,4.0,0.75,63,80.0
74,E-4,4.0,0.75,63,80.0
75,C#3,4.0,0.75,63,80.0
76,C#4,4.0,0.75,63,80.0
77,F#1,4.0,1.0,63,80.0
78,F#2,4.0,1.0,63,80.0
79,G#2,4.0,0.25,95,80.0
80,C2,4.0,0.25,95,80.0
81,G#2,4.25,0.25,95,80.0
82,G#2,4.5,0.25,95,80.0
83,G#2,4.75,0.25,95,80.0
84,F#2,4.75,0.25,95,80.0
85,B-3,4.75,0.5,63,80.0
86,B-4,4.75,0.5,63,80.0
87,E-3,4.75,0.5,63,80.0
88,E-4,4.75,0.5,63,80.0
89,C#3,4.75,0.5,63,80.0
90,C#4,4.75,0.5,63,80.0
91,F#2,5.0,0.5,95,80.0
92,F#1,5.0,1.0,63,80.0
93,F#2,5.0,1.0,63,80.0
94,G#2,5.0,0.25,95,80.0
95,E2,5.0,0.25,95,80.0
96,G#2,5.25,0.25,95,80.0
97,B3,5.25,0.25,63,80.0
98,B4,5.25,0.25,63,80.0
99,G#2,5.5,0.25,95,80.0
100,F#2,5.5,0.25,95,80.0
101,C#4,5.5,0.25,63,80.0
102,C#5,5.5,0.25,63,80.0
103,E-3,5.5,0.25,63,80.0
104,E-4,5.5,0.25,63,80.0
105,C#3,5.5,0.25,63,80.0
106,C#4,5.5,0.25,63,80.0
107,F#2,5.75,1.0,95,80.0
108,D4,5.75,0.25,63,80.0
109,D5,5.75,0.25,63,80.0
110,F#3,5.75,0.5,63,80.0
111,F#4,5.75,0.5,63,80.0
112,D3,5.75,0.5,63,80.0
113,D4,5.75,0.5,63,80.0
114,B2,5.75,0.5,63,80.0
115,B3,5.75,0.5,63,80.0
116,G#2,5.75,0.25,95,80.0
117,C2,5.75,0.25,95,80.0
118,G#2,6.0,0.25,95,80.0
119,F#1,6.0,1.0,63,80.0
120,F#2,6.0,1.0,63,80.0
121,G#3,6.25,0.5,63,80.0
122,G#4,6.25,0.5,63,80.0
123,G#2,6.25,0.25,95,80.0
124,C2,6.25,0.25,95,80.0
125,G#2,6.5,0.25,95,80.0
126,F#2,6.75,0.25,95,80.0
127,F#3,6.75,0.5,63,80.0
128,F#4,6.75,0.5,63,80.0
129,G#2,6.75,0.25,95,80.0
130,C2,6.75,0.25,95,80.0
131,F#2,7.0,1.0,95,80.0
132,F#1,7.0,1.0,63,80.0
133,F#2,7.0,1.0,63,80.0
134,G#2,7.0,0.25,95,80.0
135,E2,7.0,0.25,95,80.0
136,G#2,7.25,0.25,95,80.0
137,B2,7.25,0.25,63,80.0
138,B3,7.25,0.25,63,80.0
139,G#2,7.5,0.25,95,80.0
140,G#3,7.5,0.5,63,80.0
141,G#4,7.5,0.5,63,80.0
142,F#3,7.5,0.5,63,80.0
143,F#4,7.5,0.5,63,80.0
144,E-3,7.5,0.5,63,80.0
145,E-4,7.5,0.5,63,80.0
146,G#2,7.75,0.25,95,80.0
147,C2,7.75,0.25,95,80.0
148,F#2,8.0,0.75,95,80.0
149,B-3,8.0,1.25,63,80.0
150,B-4,8.0,1.25,63,80.0
151,F#3,8.0,1.25,63,80.0
152,F#4,8.0,1.25,63,80.0
153,C#3,8.0,1.25,63,80.0
154,C#4,8.0,1.25,63,80.0
155,F#1,8.0,1.0,63,80.0
156,F#2,8.0,1.0,63,80.0
157,G#2,8.0,0.25,95,80.0
158,C2,8.0,0.25,95,80.0
159,G#2,8.25,0.25,95,80.0
160,G#2,8.5,0.25,95,80.0
161,G#2,8.75,0.25,95,80.0
162,F#2,8.75,0.25,95,80.0
163,F#2,9.0,0.5,95,80.0
164,F#1,9.0,1.0,63,80.0
165,F#2,9.0,1.0,63,80.0
166,G#2,9.0,0.25,95,80.0
167,E2,9.0,0.25,95,80.0
168,G#2,9.25,0.25,95,80.0
169,C#3,9.25,0.25,63,80.0
170,C#4,9.25,0.25,63,80.0
171,G#2,9.5,0.25,95,80.0
172,F#2,9.5,0.25,95,80.0
173,B-3,9.5,0.25,63,80.0
174,B-4,9.5,0.25,63,80.0
175,F#3,9.5,0.25,63,80.0
176,F#4,9.5,0.25,63,80.0
177,C#2,9.75,1.0,95,80.0
178,G#3,9.75,1.5,63,80.0
179,G#4,9.75,1.5,63,80.0
180,F3,9.75,1.5,63,80.0
181,F4,9.75,1.5,63,80.0
182,C#3,9.75,1.5,63,80.0
183,C#4,9.75,1.5,63,80.0
184,G#2,9.75,0.25,95,80.0
185,C2,9.75,0.25,95,80.0
186,G#2,10.0,0.25,95,80.0
187,C#1,10.0,1.0,63,80.0
188,C#2,10.0,1.0,63,80.0
189,G#2,10.25,0.25,95,80.0
190,C2,10.25,0.25,95,80.0
191,G#2,10.5,0.25,95,80.0
192,C#2,10.75,0.25,95,80.0
193,G#2,10.75,0.25,95,80.0
194,C2,10.75,0.25,95,80.0
195,C#2,11.0,1.0,95,80.0
196,C#1,11.0,1.0,63,80.0
197,C#2,11.0,1.0,63,80.0
198,G#2,11.0,0.25,95,80.0
199,E2,11.0,0.25,95,80.0
200,G#2,11.25,0.25,95,80.0
201,C#3,11.25,0.25,63,80.0
202,C#4,11.25,0.25,63,80.0
203,G#2,11.5,0.25,95,80.0
204,G#3,11.5,0.25,63,80.0
205,G#4,11.5,0.25,63,80.0
206,F3,11.5,0.25,63,80.0
207,F4,11.5,0.25,63,80.0
208,B3,11.75,0.25,63,80.0
209,B4,11.75,0.25,63,80.0
210,F#3,11.75,0.25,63,80.0
211,F#4,11.75,0.25,63,80.0
212,E-3,11.75,0.25,63,80.0
213,E-4,11.75,0.25,63,80.0
214,G#2,11.75,0.25,95,80.0
215,C2,11.75,0.25,95,80.0
216,F#2,12.0,0.75,95,80.0
217,F#1,12.0,1.0,63,80.0
218,F#2,12.0,1.0,63,80.0
219,G#2,12.0,0.25,95,80.0
220,C2,12.0,0.25,95,80.0
221,G#2,12.25,0.25,95,80.0
222,G#2,12.5,0.25,95,80.0
223,G#2,12.75,0.25,95,80.0
224,F#2,12.75,0.25,95,80.0
225,F#2,13.0,0.5,95,80.0
226,F#1,13.0,1.0,63,80.0
227,F#2,13.0,1.0,63,80.0
228,G#2,13.0,0.25,95,80.0
229,E2,13.0,0.25,95,80.0
230,G#2,13.25,0.25,95,80.0
231,B3,13.25,1.25,63,80.0
232,B4,13.25,1.25,63,80.0
233,F#3,13.25,1.25,63,80.0
234,F#4,13.25,1.25,63,80.0
235,E-3,13.25,1.25,63,80.0
236,E-4,13.25,1.25,63,80.0
237,G#2,13.5,0.25,95,80.0
238,F#2,13.5,0.5,95,80.0
239,G#2,13.75,0.25,95,80.0
240,C2,13.75,0.25,95,80.0
241,F#2,14.0,0.75,95,80.0
242,F#1,14.0,1.0,63,80.0
243,F#2,14.0,1.0,63,80.0
244,G#2,14.0,0.25,95,80.0
245,C2,14.0,0.25,95,80.0
246,B-4,14.0,4.0,95,80.0
247,F#4,14.0,4.0,95,80.0
248,G#2,14.25,0.25,95,80.0
249,G#2,14.5,0.25,95,80.0
250,E-3,14.5,0.25,63,80.0
251,E-4,14.5,0.25,63,80.0
252,G#2,14.75,0.25,95,80.0
253,F#2,14.75,0.25,95,80.0
254,B3,14.75,0.25,63,80.0
255,B4,14.75,0.25,63,80.0
256,F#3,14.75,0.25,63,80.0
257,F#4,14.75,0.25,63,80.0
258,F#2,15.0,0.5,95,80.0
259,B-3,15.0,0.25,63,80.0
260,B-4,15.0,0.25,63,80.0
261,F#3,15.0,0.25,63,80.0
262,F#4,15.0,0.25,63,80.0
263,C#3,15.0,0.25,63,80.0
264,C#4,15.0,0.25,63,80.0
265,F#1,15.0,1.0,63,80.0
266,F#2,15.0,1.0,63,80.0
267,G#2,15.0,0.25,95,80.0
268,E2,15.0,0.25,95,80.0
269,G#2,15.25,0.25,95,80.0
270,G#2,15.5,0.25,95,80.0
271,F#2,15.5,0.25,95,80.0
272,F#2,15.75,1.0,95,80.0
273,G#2,15.75,0.25,95,80.0
274,C2,15.75,0.25,95,80.0
275,G#2,16.0,0.25,95,80.0
276,F#1,16.0,1.0,63,80.0
277,F#2,16.0,1.0,63,80.0
278,G#2,16.25,0.25,95,80.0
279,C2,16.25,0.25,95,80.0
280,G#2,16.5,0.25,95,80.0
281,B-3,16.5,1.25,63,80.0
282,B-4,16.5,1.25,63,80.0
283,F#3,16.5,1.25,63,80.0
284,F#4,16.5,1.25,63,80.0
285,C#3,16.5,1.25,63,80.0
286,C#4,16.5,1.25,63,80.0
287,F#2,16.75,0.25,95,80.0
288,G#2,16.75,0.25,95,80.0
289,C2,16.75,0.25,95,80.0
290,F#2,17.0,1.0,95,80.0
291,F#1,17.0,1.0,63,80.0
292,F#2,17.0,1.0,63,80.0
293,G#2,17.0,0.25,95,80.0
294,E2,17.0,0.25,95,80.0
295,G#2,17.25,0.25,95,80.0
296,G#2,17.5,0.25,95,80.0
297,C#3,17.75,0.25,63,80.0
298,C#4,17.75,0.25,63,80.0
299,G#2,17.75,0.25,95,80.0
300,C2,17.75,0.25,95,80.0
301,F#2,18.0,0.75,95,80.0
302,G#3,18.0,0.25,63,80.0
303,G#4,18.0,0.25,63,80.0
304,F#1,18.0,0.75,63,80.0
305,F#2,18.0,0.75,63,80.0
306,C#3,18.0,0.5,95,80.0
307,C2,18.0,0.5,95,80.0
308,B-4,18.0,2.0,95,80.0
309,F#4,18.0,2.0,95,80.0
310,B-3,18.25,1.5,63,80.0
311,B-4,18.25,1.5,63,80.0
312,F#3,18.25,1.5,63,80.0
313,F#4,18.25,1.5,63,80.0
314,C#3,18.25,1.5,63,80.0
315,C#4,18.25,1.5,63,80.0
316,G#2,18.5,0.25,95,80.0
317,G#2,18.75,0.25,95,80.0
318,F#2,18.75,0.25,95,80.0
319,F#1,18.75,0.25,63,80.0
320,F#2,18.75,0.25,63,80.0
321,F#2,19.0,0.5,95,80.0
322,F#1,19.0,1.0,63,80.0
323,F#2,19.0,1.0,63,80.0
324,G#2,19.0,0.25,95,80.0
325,E2,19.0,0.25,95,80.0
326,G#2,19.25,0.25,95,80.0
327,G#2,19.5,0.25,95,80.0
328,F#2,19.5,0.25,95,80.0
329,F#2,19.75,1.0,95,80.0
330,C#4,19.75,0.25,79,80.0
331,C#5,19.75,0.25,79,80.0
332,G#2,19.75,0.25,95,80.0
333,C2,19.75,0.25,95,80.0
334,G#2,20.0,0.25,95,80.0
335,B3,20.0,0.25,79,80.0
336,B4,20.0,0.25,79,80.0
337,F#1,20.0,0.75,63,80.0
338,F#2,20.0,0.75,63,80.0
339,B-4,20.0,2.0,95,80.0
340,F#4,20.0,2.0,95,80.0
341,B-3,20.25,0.25,68,80.0
342,B-4,20.25,0.25,68,80.0
343,F#3,20.25,0.25,68,80.0
344,F#4,20.25,0.25,68,80.0
345,C#3,20.25,0.25,68,80.0
346,C#4,20.25,0.25,68,80.0
347,G#2,20.25,0.25,95,80.0
348,C2,20.25,0.25,95,80.0
349,G#2,20.5,0.25,95,80.0
350,F#3,20.5,0.5,79,80.0
351,F#4,20.5,0.5,79,80.0
352,F#2,20.75,0.25,95,80.0
353,F#1,20.75,0.25,63,80.0
354,F#2,20.75,0.25,63,80.0
355,G#2,20.75,0.25,95,80.0
356,C2,20.75,0.25,95,80.0
357,F#2,21.0,1.0,95,80.0
358,C#3,21.0,0.25,79,80.0
359,C#4,21.0,0.25,79,80.0
360,F#1,21.0,1.0,63,80.0
361,F#2,21.0,1.0,63,80.0
362,G#2,21.0,0.25,95,80.0
363,E2,21.0,0.25,95,80.0
364,G#2,21.25,0.25,95,80.0
365,F#3,21.25,0.5,79,80.0
366,F#4,21.25,0.5,79,80.0
367,G#2,21.5,0.25,95,80.0
368,C#4,21.75,0.25,63,80.0
369,C#5,21.75,0.25,63,80.0
370,C#3,21.75,0.25,63,80.0
371,C#4,21.75,0.25,63,80.0
372,G#2,21.75,0.25,95,80.0
373,C2,21.75,0.25,95,80.0
374,F#2,22.0,0.75,95,80.0
375,B3,22.0,0.25,63,80.0
376,B4,22.0,0.25,63,80.0
377,F#3,22.0,0.25,63,80.0
378,F#4,22.0,0.25,63,80.0
379,C#3,22.0,0.25,63,80.0
380,C#4,22.0,0.25,63,80.0
381,F#1,22.0,0.75,63,80.0
382,F#2,22.0,0.75,63,80.0
383,G#2,22.0,0.25,95,80.0
384,C2,22.0,0.25,95,80.0
385,B-4,22.0,0.5,95,80.0
386,F#4,22.0,0.5,95,80.0
387,G#2,22.25,0.25,95,80.0
388,B-3,22.25,1.5,63,80.0
389,B-4,22.25,1.5,63,80.0
390,E3,22.25,1.5,63,80.0
391,E4,22.25,1.5,63,80.0
392,C#3,22.25,1.5,63,80.0
393,C#4,22.25,1.5,63,80.0
394,G#2,22.5,0.25,95,80.0
395,B-4,22.5,0.25,95,80.0
396,F#4,22.5,0.25,95,80.0
397,G#2,22.75,0.25,95,80.0
398,F#2,22.75,0.25,95,80.0
399,F#1,22.75,0.25,63,80.0
400,F#2,22.75,0.25,63,80.0
401,B-4,22.75,0.5,95,80.0
402,F#4,22.75,0.5,95,80.0
403,F#2,23.0,0.5,95,80.0
404,F#1,23.0,1.0,63,80.0
405,F#2,23.0,1.0,63,80.0
406,G#2,23.0,0.25,95,80.0
407,E2,23.0,0.25,95,80.0
408,G#2,23.25,0.25,95,80.0
409,B4,23.25,0.25,95,80.0
410,G#4,23.25,0.25,95,80.0
411,G#2,23.5,0.25,95,80.0
412,F#2,23.5,0.25,95,80.0
413,C#5,23.5,0.25,95,80.0
414,G#4,23.5,0.25,95,80.0
415,F#2,23.75,1.0,95,80.0
416,C#4,23.75,0.25,63,80.0
417,C#5,23.75,0.25,63,80.0
418,G#2,23.75,0.25,95,80.0
419,C2,23.75,0.25,95,80.0
420,D5,23.75,0.5,95,80.0
421,B4,23.75,0.5,95,80.0
422,G#2,24.0,0.25,95,80.0
423,B3,24.0,0.25,63,80.0
424,B4,24.0,0.25,63,80.0
425,E3,24.0,0.25,63,80.0
426,E4,24.0,0.25,63,80.0
427,C#3,24.0,0.25,63,80.0
428,C#4,24.0,0.25,63,80.0
429,F#1,24.0,0.75,63,80.0
430,F#2,24.0,0.75,63,80.0
431,B-3,24.25,0.25,63,80.0
432,B-4,24.25,0.25,63,80.0
433,E-3,24.25,0.25,63,80.0
434,E-4,24.25,0.25,63,80.0
435,C#3,24.25,0.25,63,80.0
436,C#4,24.25,0.25,63,80.0
437,G#2,24.25,0.25,95,80.0
438,C2,24.25,0.25,95,80.0
439,B-4,24.25,0.5,95,80.0
440,F#4,24.25,0.5,95,80.0
441,G#2,24.5,0.25,95,80.0
442,F#2,24.75,0.25,95,80.0
443,F#1,24.75,0.25,63,80.0
444,F#2,24.75,0.25,63,80.0
445,G#2,24.75,0.25,95,80.0
446,C2,24.75,0.25,95,80.0
447,G#4,24.75,0.5,95,80.0
448,F#4,24.75,0.5,95,80.0
449,F#2,25.0,1.0,95,80.0
450,B-3,25.0,0.5,63,80.0
451,B-4,25.0,0.5,63,80.0
452,E-3,25.0,0.5,63,80.0
453,E-4,25.0,0.5,63,80.0
454,C#3,25.0,0.5,63,80.0
455,C#4,25.0,0.5,63,80.0
456,F#1,25.0,1.0,63,80.0
457,F#2,25.0,1.0,63,80.0
458,G#2,25.0,0.25,95,80.0
459,E2,25.0,0.25,95,80.0
460,G#2,25.25,0.25,95,80.0
461,G#4,25.25,0.5,95,80.0
462,F#4,25.25,0.5,95,80.0
463,G#2,25.5,0.25,95,80.0
464,B-3,25.5,0.25,63,80.0
465,B-4,25.5,0.25,63,80.0
466,B-3,25.75,0.5,63,80.0
467,B-4,25.75,0.5,63,80.0
468,G#2,25.75,0.25,95,80.0
469,C2,25.75,0.25,95,80.0
470,G#4,25.75,0.25,95,80.0
471,F#4,25.75,0.25,95,80.0
472,F#2,26.0,0.75,95,80.0
473,F#1,26.0,0.75,63,80.0
474,F#2,26.0,0.75,63,80.0
475,G#2,26.0,0.25,95,80.0
476,C2,26.0,0.25,95,80.0
477,B-4,26.0,2.0,95,80.0
478,F#4,26.0,2.0,95,80.0
479,G#2,26.25,0.25,95,80.0
480,B3,26.25,0.25,63,80.0
481,B4,26.25,0.25,63,80.0
482,G#2,26.5,0.25,95,80.0
483,C#4,26.5,0.25,63,80.0
484,C#5,26.5,0.25,63,80.0
485,E-3,26.5,0.25,63,80.0
486,E-4,26.5,0.25,63,80.0
487,C#3,26.5,0.25,63,80.0
488,C#4,26.5,0.25,63,80.0
489,G#2,26.75,0.25,95,80.0
490,F#2,26.75,0.25,95,80.0
491,D4,26.75,0.5,63,80.0
492,D5,26.75,0.5,63,80.0
493,F#3,26.75,0.5,63,80.0
494,F#4,26.75,0.5,63,80.0
495,D3,26.75,0.5,63,80.0
496,D4,26.75,0.5,63,80.0
497,B2,26.75,0.5,63,80.0
498,B3,26.75,0.5,63,80.0
499,F#1,26.75,0.25,63,80.0
500,F#2,26.75,0.25,63,80.0
501,F#2,27.0,0.5,95,80.0
502,F#1,27.0,1.0,63,80.0
503,F#2,27.0,1.0,63,80.0
504,G#2,27.0,0.25,95,80.0
505,E2,27.0,0.25,95,80.0
506,G#2,27.25,0.25,95,80.0
507,B-3,27.25,0.5,63,80.0
508,B-4,27.25,0.5,63,80.0
509,F#3,27.25,0.5,63,80.0
510,F#4,27.25,0.5,63,80.0
511,D3,27.25,0.5,63,80.0
512,D4,27.25,0.5,63,80.0
513,B2,27.25,0.5,63,80.0
514,B3,27.25,0.5,63,80.0
515,G#2,27.5,0.25,95,80.0
516,F#2,27.5,0.25,95,80.0
517,C#2,27.75,1.0,95,80.0
518,G#3,27.75,0.5,63,80.0
519,G#4,27.75,0.5,63,80.0
520,G#2,27.75,0.25,95,80.0
521,C2,27.75,0.25,95,80.0
522,G#2,28.0,0.25,95,80.0
523,C#1,28.0,0.75,63,80.0
524,C#2,28.0,0.75,63,80.0
525,G#4,28.0,1.0,95,80.0
526,C#4,28.0,1.0,95,80.0
527,B2,28.25,0.25,63,80.0
528,B3,28.25,0.25,63,80.0
529,G#2,28.25,0.25,95,80.0
530,C2,28.25,0.25,95,80.0
531,G#2,28.5,0.25,95,80.0
532,G#3,28.5,0.5,63,80.0
533,G#4,28.5,0.5,63,80.0
534,F#3,28.5,0.5,63,80.0
535,F#4,28.5,0.5,63,80.0
536,E-3,28.5,0.5,63,80.0
537,E-4,28.5,0.5,63,80.0
538,C#2,28.75,0.25,95,80.0
539,C#1,28.75,0.25,63,80.0
540,C#2,28.75,0.25,63,80.0
541,G#2,28.75,0.25,95,80.0
542,C2,28.75,0.25,95,80.0
543,C#2,29.0,1.0,95,80.0
544,B-3,29.0,1.25,63,80.0
545,B-4,29.0,1.25,63,80.0
546,F#3,29.0,1.25,63,80.0
547,F#4,29.0,1.25,63,80.0
548,C#3,29.0,1.25,63,80.0
549,C#4,29.0,1.25,63,80.0
550,C#1,29.0,1.0,63,80.0
551,C#2,29.0,1.0,63,80.0
552,G#2,29.0,0.25,95,80.0
553,E2,29.0,0.25,95,80.0
554,C#5,29.0,1.0,95,80.0
555,C#4,29.0,1.0,95,80.0
556,G#2,29.25,0.25,95,80.0
557,G#2,29.5,0.25,95,80.0
558,G#2,29.75,0.25,95,80.0
559,C2,29.75,0.25,95,80.0
560,F#2,30.0,0.75,95,80.0
561,B0,30.0,0.75,63,80.0
562,B1,30.0,0.75,63,80.0
563,G#2,30.0,0.25,95,80.0
564,C2,30.0,0.25,95,80.0
565,E-5,30.0,1.75,95,80.0
566,B4,30.0,1.75,95,80.0
567,G#2,30.25,0.25,95,80.0
568,C#3,30.25,0.25,63,80.0
569,C#4,30.25,0.25,63,80.0
570,G#2,30.5,0.25,95,80.0
571,B-3,30.5,0.25,63,80.0
572,B-4,30.5,0.25,63,80.0
573,F#3,30.5,0.25,63,80.0
574,F#4,30.5,0.25,63,80.0
575,G#2,30.75,0.25,95,80.0
576,F#2,30.75,0.25,95,80.0
577,G#3,30.75,1.5,63,80.0
578,G#4,30.75,1.5,63,80.0
579,F3,30.75,1.5,63,80.0
580,F4,30.75,1.5,63,80.0
581,C#3,30.75,1.5,63,80.0
582,C#4,30.75,1.5,63,80.0
583,B0,30.75,0.25,63,80.0
584,B1,30.75,0.25,63,80.0
585,F#2,31.0,0.5,95,80.0
586,B0,31.0,1.0,63,80.0
587,B1,31.0,1.0,63,80.0
588,G#2,31.0,0.25,95,80.0
589,E2,31.0,0.25,95,80.0
590,G#2,31.25,0.25,95,80.0
591,G#2,31.5,0.25,95,80.0
592,F#2,31.5,0.5,95,80.0
593,G#2,31.75,0.25,95,80.0
594,C2,31.75,0.25,95,80.0
595,B-4,31.75,0.25,95,80.0
596,F#4,31.75,0.25,95,80.0
597,F#2,32.0,0.75,95,80.0
598,F#1,32.0,0.75,63,80.0
599,F#2,32.0,0.75,63,80.0
600,G#2,32.0,0.25,95,80.0
601,C2,32.0,0.25,95,80.0
602,G#2,32.25,0.25,95,80.0
603,C#3,32.25,0.25,63,80.0
604,C#4,32.25,0.25,63,80.0
605,G#2,32.5,0.25,95,80.0
606,G#3,32.5,0.25,63,80.0
607,G#4,32.5,0.25,63,80.0
608,F3,32.5,0.25,63,80.0
609,F4,32.5,0.25,63,80.0
610,G#2,32.75,0.25,95,80.0
611,F#2,32.75,0.25,95,80.0
612,B3,32.75,0.25,63,80.0
613,B4,32.75,0.25,63,80.0
614,F#3,32.75,0.25,63,80.0
615,F#4,32.75,0.25,63,80.0
616,E-3,32.75,0.25,63,80.0
617,E-4,32.75,0.25,63,80.0
618,F#1,32.75,0.25,63,80.0
619,F#2,32.75,0.25,63,80.0
620,F#2,33.0,0.5,95,80.0
621,F#1,33.0,1.0,63,80.0
622,F#2,33.0,1.0,63,80.0
623,G#2,33.0,0.25,95,80.0
624,E2,33.0,0.25,95,80.0
625,G#2,33.25,0.25,95,80.0
626,G#2,33.5,0.25,95,80.0
627,F#2,33.5,0.25,95,80.0
628,F#2,33.75,1.0,95,80.0
629,G#2,33.75,0.25,95,80.0
630,C2,33.75,0.25,95,80.0
631,G#2,34.0,0.25,95,80.0
632,F#1,34.0,0.75,63,80.0
633,F#2,34.0,0.75,63,80.0
634,B3,34.25,1.25,63,80.0
635,B4,34.25,1.25,63,80.0
636,F#3,34.25,1.25,63,80.0
637,F#4,34.25,1.25,63,80.0
638,E-3,34.25,1.25,63,80.0
639,E-4,34.25,1.25,63,80.0
640,G#2,34.25,0.25,95,80.0
641,C2,34.25,0.25,95,80.0
642,G#2,34.5,0.25,95,80.0
643,F#2,34.75,0.25,95,80.0
644,F#1,34.75,0.25,63,80.0
645,F#2,34.75,0.25,63,80.0
646,G#2,34.75,0.25,95,80.0
647,C2,34.75,0.25,95,80.0
648,F#2,35.0,1.0,95,80.0
649,F#1,35.0,1.0,63,80.0
650,F#2,35.0,1.0,63,80.0
651,G#2,35.0,0.25,95,80.0
652,E2,35.0,0.25,95,80.0
653,C#4,35.25,0.25,95,80.0
654,G#2,35.25,0.25,95,80.0
655,B3,35.5,0.25,95,80.0
656,G#2,35.5,0.25,95,80.0
657,E-3,35.5,0.25,63,80.0
658,E-4,35.5,0.25,63,80.0
659,B-3,35.75,0.25,95,80.0
660,B3,35.75,0.25,63,80.0
661,B4,35.75,0.25,63,80.0
662,F#3,35.75,0.25,63,80.0
663,F#4,35.75,0.25,63,80.0
664,G#2,35.75,0.25,95,80.0
665,C2,35.75,0.25,95,80.0
666,B-3,36.0,0.25,95,80.0
667,F#2,36.0,0.75,95,80.0
668,B-3,36.0,0.25,63,80.0
669,B-4,36.0,0.25,63,80.0
670,F#3,36.0,0.25,63,80.0
671,F#4,36.0,0.25,63,80.0
672,C#3,36.0,0.25,63,80.0
673,C#4,36.0,0.25,63,80.0
674,F#1,36.0,0.75,63,80.0
675,F#2,36.0,0.75,63,80.0
676,C#3,36.0,0.5,95,80.0
677,C2,36.0,0.5,95,80.0
678,B-4,36.0,4.0,95,80.0
679,F#4,36.0,4.0,95,80.0
680,G#2,36.5,0.25,95,80.0
681,G#2,36.75,0.25,95,80.0
682,F#2,36.75,0.25,95,80.0
683,F#1,36.75,0.25,63,80.0
684,F#2,36.75,0.25,63,80.0
685,F#2,37.0,0.5,95,80.0
686,F#1,37.0,1.0,63,80.0
687,F#2,37.0,1.0,63,80.0
688,G#2,37.0,0.25,95,80.0
689,E2,37.0,0.25,95,80.0
690,C#4,37.25,0.25,95,80.0
691,G#2,37.25,0.25,95,80.0
692,B3,37.5,0.25,95,80.0
693,G#2,37.5,0.25,95,80.0
694,F#2,37.5,0.25,95,80.0
695,B-3,37.5,1.25,63,80.0
696,B-4,37.5,1.25,63,80.0
697,F#3,37.5,1.25,63,80.0
698,F#4,37.5,1.25,63,80.0
699,C#3,37.5,1.25,63,80.0
700,C#4,37.5,1.25,63,80.0
701,B-3,37.75,0.5,95,80.0
702,F#2,37.75,1.0,95,80.0
703,G#2,37.75,0.25,95,80.0
704,C2,37.75,0.25,95,80.0
705,G#2,38.0,0.25,95,80.0
706,F#1,38.0,0.75,63,80.0
707,F#2,38.0,0.75,63,80.0
708,G#2,38.25,0.25,95,80.0
709,C2,38.25,0.25,95,80.0
710,G#2,38.5,0.25,95,80.0
711,F#2,38.75,0.25,95,80.0
712,C#3,38.75,0.25,63,80.0
713,C#4,38.75,0.25,63,80.0
714,F#1,38.75,0.25,63,80.0
715,F#2,38.75,0.25,63,80.0
716,G#2,38.75,0.25,95,80.0
717,C2,38.75,0.25,95,80.0
718,F#2,39.0,1.0,95,80.0
719,G#3,39.0,0.25,63,80.0
720,G#4,39.0,0.25,63,80.0
721,F#1,39.0,1.0,63,80.0
722,F#2,39.0,1.0,63,80.0
723,G#2,39.0,0.25,95,80.0
724,E2,39.0,0.25,95,80.0
725,C#4,39.25,0.25,95,80.0
726,G#2,39.25,0.25,95,80.0
727,B-3,39.25,1.5,63,80.0
728,B-4,39.25,1.5,63,80.0
729,F#3,39.25,1.5,63,80.0
730,F#4,39.25,1.5,63,80.0
731,C#3,39.25,1.5,63,80.0
732,C#4,39.25,1.5,63,80.0
733,B3,39.5,0.25,95,80.0
734,G#2,39.5,0.25,95,80.0
735,B-3,39.75,0.25,95,80.0
736,G#2,39.75,0.25,95,80.0
737,C2,39.75,0.25,95,80.0
738,B-3,40.0,0.25,95,80.0
739,F#2,40.0,0.75,95,80.0
740,F#1,40.0,0.75,63,80.0
741,F#2,40.0,0.75,63,80.0
742,G#2,40.0,0.25,95,80.0
743,C2,40.0,0.25,95,80.0
744,B-4,40.0,2.0,95,80.0
745,F#4,40.0,2.0,95,80.0
746,B-3,40.25,0.5,95,80.0
747,G#2,40.25,0.25,95,80.0
748,G#2,40.5,0.25,95,80.0
749,B-3,40.75,0.5,95,80.0
750,G#2,40.75,0.25,95,80.0
751,F#2,40.75,0.25,95,80.0
752,C#4,40.75,0.25,63,80.0
753,C#5,40.75,0.25,63,80.0
754,F#1,40.75,0.25,63,80.0
755,F#2,40.75,0.25,63,80.0
756,F#2,41.0,0.5,95,80.0
757,B3,41.0,0.25,63,80.0
758,B4,41.0,0.25,63,80.0
759,F#1,41.0,1.0,63,80.0
760,F#2,41.0,1.0,63,80.0
761,G#2,41.0,0.25,95,80.0
762,E2,41.0,0.25,95,80.0
763,B3,41.25,0.25,95,80.0
764,G#2,41.25,0.25,95,80.0
765,B-3,41.25,0.25,63,80.0
766,B-4,41.25,0.25,63,80.0
767,F#3,41.25,0.25,63,80.0
768,F#4,41.25,0.25,63,80.0
769,C#3,41.25,0.25,63,80.0
770,C#4,41.25,0.25,63,80.0
771,C#4,41.5,0.25,95,80.0
772,G#2,41.5,0.25,95,80.0
773,F#2,41.5,0.25,95,80.0
774,F#3,41.5,0.5,63,80.0
775,F#4,41.5,0.5,63,80.0
776,C4,41.75,0.5,95,80.0
777,F#2,41.75,1.0,95,80.0
778,G#2,41.75,0.25,95,80.0
779,C2,41.75,0.25,95,80.0
780,G#2,42.0,0.25,95,80.0
781,B-2,42.0,0.25,63,80.0
782,B-3,42.0,0.25,63,80.0
783,F#1,42.0,0.75,63,80.0
784,F#2,42.0,0.75,63,80.0
785,B-4,42.0,2.0,95,80.0
786,F#4,42.0,2.0,95,80.0
787,B-3,42.25,0.5,95,80.0
788,F#3,42.25,0.5,63,80.0
789,F#4,42.25,0.5,63,80.0
790,G#2,42.25,0.25,95,80.0
791,C2,42.25,0.25,95,80.0
792,G#2,42.5,0.25,95,80.0
793,F#3,42.75,0.75,95,80.0
794,F#2,42.75,0.25,95,80.0
795,C#4,42.75,0.25,63,80.0
796,C#5,42.75,0.25,63,80.0
797,C#3,42.75,0.25,63,80.0
798,C#4,42.75,0.25,63,80.0
799,F#1,42.75,0.25,63,80.0
800,F#2,42.75,0.25,63,80.0
801,G#2,42.75,0.25,95,80.0
802,C2,42.75,0.25,95,80.0
803,F#2,43.0,1.0,95,80.0
804,B3,43.0,0.25,63,80.0
805,B4,43.0,0.25,63,80.0
806,F#3,43.0,0.25,63,80.0
807,F#4,43.0,0.25,63,80.0
808,C#3,43.0,0.25,63,80.0
809,C#4,43.0,0.25,63,80.0
810,F#1,43.0,1.0,63,80.0
811,F#2,43.0,1.0,63,80.0
812,G#2,43.0,0.25,95,80.0
813,E2,43.0,0.25,95,80.0
814,G#2,43.25,0.25,95,80.0
815,B-3,43.25,1.5,63,80.0
816,B-4,43.25,1.5,63,80.0
817,E3,43.25,1.5,63,80.0
818,E4,43.25,1.5,63,80.0
819,C#3,43.25,1.5,63,80.0
820,C#4,43.25,1.5,63,80.0
821,G#2,43.5,0.25,95,80.0
822,G#2,43.75,0.25,95,80.0
823,C2,43.75,0.25,95,80.0
824,G#3,44.0,2.0,95,80.0
825,F#2,44.0,0.75,95,80.0
826,F#1,44.0,0.75,63,80.0
827,F#2,44.0,0.75,63,80.0
828,G#2,44.0,0.25,95,80.0
829,C2,44.0,0.25,95,80.0
830,B-4,44.0,0.5,95,80.0
831,F#4,44.0,0.5,95,80.0
832,G#2,44.25,0.25,95,80.0
833,G#2,44.5,0.25,95,80.0
834,B-4,44.5,0.25,95,80.0
835,F#4,44.5,0.25,95,80.0
836,G#2,44.75,0.25,95,80.0
837,F#2,44.75,0.25,95,80.0
838,C#4,44.75,0.25,63,80.0
839,C#5,44.75,0.25,63,80.0
840,F#1,44.75,0.25,63,80.0
841,F#2,44.75,0.25,63,80.0
842,B-4,44.75,0.5,95,80.0
843,F#4,44.75,0.5,95,80.0
844,F#2,45.0,0.5,95,80.0
845,B3,45.0,0.25,63,80.0
846,B4,45.0,0.25,63,80.0
847,E3,45.0,0.25,63,80.0
848,E4,45.0,0.25,63,80.0
849,C#3,45.0,0.25,63,80.0
850,C#4,45.0,0.25,63,80.0
851,F#1,45.0,1.0,63,80.0
852,F#2,45.0,1.0,63,80.0
853,G#2,45.0,0.25,95,80.0
854,E2,45.0,0.25,95,80.0
855,G#2,45.25,0.25,95,80.0
856,B-3,45.25,0.25,63,80.0
857,B-4,45.25,0.25,63,80.0
858,E-3,45.25,0.25,63,80.0
859,E-4,45.25,0.25,63,80.0
860,C#3,45.25,0.25,63,80.0
861,C#4,45.25,0.25,63,80.0
862,B4,45.25,0.25,95,80.0
863,G#4,45.25,0.25,95,80.0
864,G#2,45.5,0.25,95,80.0
865,F#2,45.5,0.25,95,80.0
866,C#5,45.5,0.25,95,80.0
867,G#4,45.5,0.25,95,80.0
868,C#2,45.75,1.0,95,80.0
869,G#2,45.75,0.25,95,80.0
870,C2,45.75,0.25,95,80.0
871,D5,45.75,0.5,95,80.0
872,B4,45.75,0.5,95,80.0
873,G#3,46.0,1.0,95,80.0
874,G#2,46.0,0.25,95,80.0
875,B-3,46.0,0.5,63,80.0
876,B-4,46.0,0.5,63,80.0
877,E-3,46.0,0.5,63,80.0
878,E-4,46.0,0.5,63,80.0
879,C#3,46.0,0.5,63,80.0
880,C#4,46.0,0.5,63,80.0
881,C#1,46.0,0.75,63,80.0
882,C#2,46.0,0.75,63,80.0
883,G#2,46.25,0.25,95,80.0
884,C2,46.25,0.25,95,80.0
885,B-4,46.25,0.5,95,80.0
886,F#4,46.25,0.5,95,80.0
887,G#2,46.5,0.25,95,80.0
888,B-3,46.5,0.25,63,80.0
889,B-4,46.5,0.25,63,80.0
890,C#2,46.75,0.25,95,80.0
891,B-3,46.75,0.5,63,80.0
892,B-4,46.75,0.5,63,80.0
893,C#1,46.75,0.25,63,80.0
894,C#2,46.75,0.25,63,80.0
895,G#2,46.75,0.25,95,80.0
896,C2,46.75,0.25,95,80.0
897,G#4,46.75,0.5,95,80.0
898,F#4,46.75,0.5,95,80.0
899,G#3,47.0,1.0,95,80.0
900,C#2,47.0,1.0,95,80.0
901,C#1,47.0,1.0,63,80.0
902,C#2,47.0,1.0,63,80.0
903,G#2,47.0,0.25,95,80.0
904,E2,47.0,0.25,95,80.0
905,G#2,47.25,0.25,95,80.0
906,B3,47.25,0.25,63,80.0
907,B4,47.25,0.25,63,80.0
908,G#4,47.25,0.5,95,80.0
909,F#4,47.25,0.5,95,80.0
910,G#2,47.5,0.25,95,80.0
911,C#4,47.5,0.25,63,80.0
912,C#5,47.5,0.25,63,80.0
913,E-3,47.5,0.25,63,80.0
914,E-4,47.5,0.25,63,80.0
915,C#3,47.5,0.25,63,80.0
916,C#4,47.5,0.25,63,80.0
917,D4,47.75,0.5,63,80.0
918,D5,47.75,0.5,63,80.0
919,F#3,47.75,0.5,63,80.0
920,F#4,47.75,0.5,63,80.0
921,D3,47.75,0.5,63,80.0
922,D4,47.75,0.5,63,80.0
923,B2,47.75,0.5,63,80.0
924,B3,47.75,0.5,63,80.0
925,G#2,47.75,0.25,95,80.0
926,C2,47.75,0.25,95,80.0
927,G#4,47.75,0.25,95,80.0
928,F#4,47.75,0.25,95,80.0
929,A3,48.0,1.25,95,80.0
930,F#2,48.0,0.75,95,80.0
931,B0,48.0,0.75,63,80.0
932,B1,48.0,0.75,63,80.0
933,G#2,48.0,0.25,95,80.0
934,C2,48.0,0.25,95,80.0
935,B-4,48.0,2.0,95,80.0
936,F#4,48.0,2.0,95,80.0
937,G#2,48.25,0.25,95,80.0
938,B-3,48.25,0.5,63,80.0
939,B-4,48.25,0.5,63,80.0
940,F#3,48.25,0.5,63,80.0
941,F#4,48.25,0.5,63,80.0
942,D3,48.25,0.5,63,80.0
943,D4,48.25,0.5,63,80.0
944,B2,48.25,0.5,63,80.0
945,B3,48.25,0.5,63,80.0
946,G#2,48.5,0.25,95,80.0
947,G#2,48.75,0.25,95,80.0
948,F#2,48.75,0.25,95,80.0
949,G#3,48.75,0.5,63,80.0
950,G#4,48.75,0.5,63,80.0
951,B0,48.75,0.25,63,80.0
952,B1,48.75,0.25,63,80.0
953,F#2,49.0,0.5,95,80.0
954,B0,49.0,1.0,63,80.0
955,B1,49.0,1.0,63,80.0
956,G#2,49.0,0.25,95,80.0
957,E2,49.0,0.25,95,80.0
958,C#4,49.25,0.25,95,80.0
959,G#2,49.25,0.25,95,80.0
960,B2,49.25,0.25,63,80.0
961,B3,49.25,0.25,63,80.0
962,B3,49.5,0.25,95,80.0
963,G#2,49.5,0.25,95,80.0
964,F#2,49.5,0.5,95,80.0
965,G#3,49.5,0.5,63,80.0
966,G#4,49.5,0.5,63,80.0
967,F#3,49.5,0.5,63,80.0
968,F#4,49.5,0.5,63,80.0
969,E-3,49.5,0.5,63,80.0
970,E-4,49.5,0.5,63,80.0
971,B-3,49.75,0.25,95,80.0
972,G#2,49.75,0.25,95,80.0
973,C2,49.75,0.25,95,80.0
974,B-3,50.0,0.5,95,80.0
975,F#2,50.0,0.75,95,80.0
976,B-3,50.0,1.25,63,80.0
977,B-4,50.0,1.25,63,80.0
978,F#3,50.0,1.25,63,80.0
979,F#4,50.0,1.25,63,80.0
980,C#3,50.0,1.25,63,80.0
981,C#4,50.0,1.25,63,80.0
982,F#1,50.0,0.75,63,80.0
983,F#2,50.0,0.75,63,80.0
984,G#2,50.0,0.25,95,80.0
985,C2,50.0,0.25,95,80.0
986,G#4,50.0,1.0,95,80.0
987,C#4,50.0,1.0,95,80.0
988,G#2,50.25,0.25,95,80.0
989,G#2,50.5,0.25,95,80.0
990,G#2,50.75,0.25,95,80.0
991,F#2,50.75,0.25,95,80.0
992,F#1,50.75,0.25,63,80.0
993,F#2,50.75,0.25,63,80.0
994,F#2,51.0,0.5,95,80.0
995,F#1,51.0,1.0,63,80.0
996,F#2,51.0,1.0,63,80.0
997,G#2,51.0,0.25,95,80.0
998,E2,51.0,0.25,95,80.0
999,C#5,51.0,1.0,95,80.0
1000,C#4,51.0,1.0,95,80.0
1001,G#2,51.25,0.25,95,80.0
1002,C#3,51.25,0.25,63,80.0
1003,C#4,51.25,0.25,63,80.0
1004,G#2,51.5,0.25,95,80.0
1005,F#2,51.5,0.25,95,80.0
1006,B-3,51.5,0.25,63,80.0
1007,B-4,51.5,0.25,63,80.0
1008,F#3,51.5,0.25,63,80.0
1009,F#4,51.5,0.25,63,80.0
1010,F#2,51.75,1.0,95,80.0
1011,G#3,51.75,1.5,63,80.0
1012,G#4,51.75,1.5,63,80.0
1013,F3,51.75,1.5,63,80.0
1014,F4,51.75,1.5,63,80.0
1015,C#3,51.75,1.5,63,80.0
1016,C#4,51.75,1.5,63,80.0
1017,G#2,51.75,0.25,95,80.0
1018,C2,51.75,0.25,95,80.0
1019,G#2,52.0,0.25,95,80.0
1020,F#1,52.0,0.75,63,80.0
1021,F#2,52.0,0.75,63,80.0
1022,E-5,52.0,1.75,95,80.0
1023,B4,52.0,1.75,95,80.0
1024,G#2,52.25,0.25,95,80.0
1025,C2,52.25,0.25,95,80.0
1026,G#2,52.5,0.25,95,80.0
1027,F#2,52.75,0.25,95,80.0
1028,F#1,52.75,0.25,63,80.0
1029,F#2,52.75,0.25,63,80.0
1030,G#2,52.75,0.25,95,80.0
1031,C2,52.75,0.25,95,80.0
1032,F#2,53.0,1.0,95,80.0
1033,F#1,53.0,1.0,63,80.0
1034,F#2,53.0,1.0,63,80.0
1035,G#2,53.0,0.25,95,80.0
1036,E2,53.0,0.25,95,80.0
1037,C#4,53.25,0.25,95,80.0
1038,G#2,53.25,0.25,95,80.0
1039,C#3,53.25,0.25,63,80.0
1040,C#4,53.25,0.25,63,80.0
1041,B3,53.5,0.25,95,80.0
1042,G#2,53.5,0.25,95,80.0
1043,G#3,53.5,0.25,63,80.0
1044,G#4,53.5,0.25,63,80.0
1045,F3,53.5,0.25,63,80.0
1046,F4,53.5,0.25,63,80.0
1047,B-3,53.75,0.25,95,80.0
1048,B3,53.75,0.25,63,80.0
1049,B4,53.75,0.25,63,80.0
1050,F#3,53.75,0.25,63,80.0
1051,F#4,53.75,0.25,63,80.0
1052,E-3,53.75,0.25,63,80.0
1053,E-4,53.75,0.25,63,80.0
1054,G#2,53.75,0.25,95,80.0
1055,C2,53.75,0.25,95,80.0
1056,B-4,53.75,0.25,95,80.0
1057,F#4,53.75,0.25,95,80.0
1058,B-3,54.0,0.25,95,80.0
1059,F#2,54.0,0.75,95,80.0
1060,F#1,54.0,0.75,63,80.0
1061,F#2,54.0,0.75,63,80.0
1062,C#3,54.0,0.5,95,80.0
1063,C2,54.0,0.5,95,80.0
1064,G#2,54.5,0.25,95,80.0
1065,G#2,54.75,0.25,95,80.0
1066,F#2,54.75,0.25,95,80.0
1067,F#1,54.75,0.25,63,80.0
1068,F#2,54.75,0.25,63,80.0
1069,F#2,55.0,0.5,95,80.0
1070,F#1,55.0,1.0,63,80.0
1071,F#2,55.0,1.0,63,80.0
1072,G#2,55.0,0.25,95,80.0
1073,E2,55.0,0.25,95,80.0
1074,C#4,55.25,0.25,95,80.0
1075,G#2,55.25,0.25,95,80.0
1076,B3,55.25,1.25,63,80.0
1077,B4,55.25,1.25,63,80.0
1078,F#3,55.25,1.25,63,80.0
1079,F#4,55.25,1.25,63,80.0
1080,E-3,55.25,1.25,63,80.0
1081,E-4,55.25,1.25,63,80.0
1082,B3,55.5,0.25,95,80.0
1083,G#2,55.5,0.25,95,80.0
1084,F#2,55.5,0.25,95,80.0
1085,B-3,55.75,0.5,95,80.0
1086,F#2,55.75,1.0,95,80.0
1087,G#2,55.75,0.25,95,80.0
1088,C2,55.75,0.25,95,80.0
1089,G#2,56.0,0.25,95,80.0
1090,F#1,56.0,0.75,63,80.0
1091,F#2,56.0,0.75,63,80.0
1092,G#2,56.25,0.25,95,80.0
1093,C2,56.25,0.25,95,80.0
1094,G#2,56.5,0.25,95,80.0
1095,E-3,56.5,0.25,63,80.0
1096,E-4,56.5,0.25,63,80.0
1097,F#2,56.75,0.25,95,80.0
1098,B3,56.75,0.25,63,80.0
1099,B4,56.75,0.25,63,80.0
1100,F#3,56.75,0.25,63,80.0
1101,F#4,56.75,0.25,63,80.0
1102,F#1,56.75,0.25,63,80.0
1103,F#2,56.75,0.25,63,80.0
1104,G#2,56.75,0.25,95,80.0
1105,C2,56.75,0.25,95,80.0
1106,F#2,57.0,1.0,95,80.0
1107,B-3,57.0,0.25,63,80.0
1108,B-4,57.0,0.25,63,80.0
1109,F#3,57.0,0.25,63,80.0
1110,F#4,57.0,0.25,63,80.0
1111,C#3,57.0,0.25,63,80.0
1112,C#4,57.0,0.25,63,80.0
1113,F#1,57.0,1.0,63,80.0
1114,F#2,57.0,1.0,63,80.0
1115,G#2,57.0,0.25,95,80.0
1116,E2,57.0,0.25,95,80.0
1117,C#4,57.25,0.25,95,80.0
1118,G#2,57.25,0.25,95,80.0
1119,B3,57.5,0.25,95,80.0
1120,G#2,57.5,0.25,95,80.0
1121,B-3,57.75,0.25,95,80.0
1122,G#2,57.75,0.25,95,80.0
1123,C2,57.75,0.25,95,80.0
1124,B-3,58.0,0.25,95,80.0
1125,F#2,58.0,0.75,95,80.0
1126,F#1,58.0,0.75,63,80.0
1127,F#2,58.0,0.75,63,80.0
1128,G#2,58.0,0.25,95,80.0
1129,C2,58.0,0.25,95,80.0
1130,B-4,58.0,4.0,95,80.0
1131,F#4,58.0,4.0,95,80.0
1132,B-3,58.25,0.5,95,80.0
1133,G#2,58.25,0.25,95,80.0
1134,G#2,58.5,0.25,95,80.0
1135,B-3,58.5,1.25,63,80.0
1136,B-4,58.5,1.25,63,80.0
1137,F#3,58.5,1.25,63,80.0
1138,F#4,58.5,1.25,63,80.0
1139,C#3,58.5,1.25,63,80.0
1140,C#4,58.5,1.25,63,80.0
1141,B-3,58.75,0.5,95,80.0
1142,G#2,58.75,0.25,95,80.0
1143,F#2,58.75,0.25,95,80.0
1144,F#1,58.75,0.25,63,80.0
1145,F#2,58.75,0.25,63,80.0
1146,F#2,59.0,0.5,95,80.0
1147,F#1,59.0,1.0,63,80.0
1148,F#2,59.0,1.0,63,80.0
1149,G#2,59.0,0.25,95,80.0
1150,E2,59.0,0.25,95,80.0
1151,B3,59.25,0.25,95,80.0
1152,G#2,59.25,0.25,95,80.0
1153,C#4,59.5,0.25,95,80.0
1154,G#2,59.5,0.25,95,80.0
1155,F#2,59.5,0.25,95,80.0
1156,C4,59.75,0.5,95,80.0
1157,F#2,59.75,1.0,95,80.0
1158,C#3,59.75,0.25,63,80.0
1159,C#4,59.75,0.25,63,80.0
1160,G#2,59.75,0.25,95,80.0
1161,C2,59.75,0.25,95,80.0
1162,G#2,60.0,0.25,95,80.0
1163,G#3,60.0,0.25,63,80.0
1164,G#4,60.0,0.25,63,80.0
1165,F#1,60.0,0.75,63,80.0
1166,F#2,60.0,0.75,63,80.0
1167,B-3,60.25,0.5,95,80.0
1168,B-3,60.25,1.5,63,80.0
1169,B-4,60.25,1.5,63,80.0
1170,F#3,60.25,1.5,63,80.0
1171,F#4,60.25,1.5,63,80.0
1172,C#3,60.25,1.5,63,80.0
1173,C#4,60.25,1.5,63,80.0
1174,G#2,60.25,0.25,95,80.0
1175,C2,60.25,0.25,95,80.0
1176,G#2,60.5,0.25,95,80.0
1177,F#3,60.75,0.75,95,80.0
1178,F#2,60.75,0.25,95,80.0
1179,F#1,60.75,0.25,63,80.0
1180,F#2,60.75,0.25,63,80.0
1181,G#2,60.75,0.25,95,80.0
1182,C2,60.75,0.25,95,80.0
1183,F#2,61.0,1.0,95,80.0
1184,F#1,61.0,1.0,63,80.0
1185,F#2,61.0,1.0,63,80.0
1186,G#2,61.0,0.25,95,80.0
1187,E2,61.0,0.25,95,80.0
1188,G#2,61.25,0.25,95,80.0
1189,G#2,61.5,0.25,95,80.0
1190,C#3,61.75,0.25,63,80.0
1191,C#4,61.75,0.25,63,80.0
1192,G#2,61.75,0.25,95,80.0
1193,C2,61.75,0.25,95,80.0
1194,G#3,62.0,2.0,95,80.0
1195,F#2,62.0,0.75,95,80.0
1196,B-3,62.0,0.5,63,80.0
1197,B-4,62.0,0.5,63,80.0
1198,F#3,62.0,0.5,63,80.0
1199,F#4,62.0,0.5,63,80.0
1200,F#1,62.0,0.75,63,80.0
1201,F#2,62.0,0.75,63,80.0
1202,G#2,62.0,0.25,95,80.0
1203,C2,62.0,0.25,95,80.0
1204,B-4,62.0,2.0,95,80.0
1205,F#4,62.0,2.0,95,80.0
1206,G#2,62.25,0.25,95,80.0
1207,G#2,62.5,0.25,95,80.0
1208,F#3,62.5,0.5,63,80.0
1209,F#4,62.5,0.5,63,80.0
1210,G#2,62.75,0.25,95,80.0
1211,F#2,62.75,0.25,95,80.0
1212,F#1,62.75,0.25,63,80.0
1213,F#2,62.75,0.25,63,80.0
1214,F#2,63.0,0.5,95,80.0
1215,B-2,63.0,0.25,63,80.0
1216,B-3,63.0,0.25,63,80.0
1217,F#1,63.0,1.0,63,80.0
1218,F#2,63.0,1.0,63,80.0
1219,G#2,63.0,0.25,95,80.0
1220,E2,63.0,0.25,95,80.0
1221,G#2,63.25,0.25,95,80.0
1222,F#3,63.25,0.5,63,80.0
1223,F#4,63.25,0.5,63,80.0
1224,G#2,63.5,0.25,95,80.0
1225,F#2,63.5,0.25,95,80.0
1226,C#2,63.75,1.0,95,80.0
1227,C#4,63.75,0.25,63,80.0
1228,C#5,63.75,0.25,63,80.0
1229,C#3,63.75,0.25,63,80.0
1230,C#4,63.75,0.25,63,80.0
1231,G#2,63.75,0.25,95,80.0
1232,C2,63.75,0.25,95,80.0
1233,G#3,64.0,1.0,95,80.0
1234,G#2,64.0,0.25,95,80.0
1235,B3,64.0,0.25,63,80.0
1236,B4,64.0,0.25,63,80.0
1237,F#3,64.0,0.25,63,80.0
1238,F#4,64.0,0.25,63,80.0
1239,C#3,64.0,0.25,63,80.0
1240,C#4,64.0,0.25,63,80.0
1241,C#1,64.0,0.75,63,80.0
1242,C#2,64.0,0.75,63,80.0
1243,B-4,64.0,2.0,95,80.0
1244,F#4,64.0,2.0,95,80.0
1245,B-3,64.25,1.5,63,80.0
1246,B-4,64.25,1.5,63,80.0
1247,E3,64.25,1.5,63,80.0
1248,E4,64.25,1.5,63,80.0
1249,C#3,64.25,1.5,63,80.0
1250,C#4,64.25,1.5,63,80.0
1251,G#2,64.25,0.25,95,80.0
1252,C2,64.25,0.25,95,80.0
1253,G#2,64.5,0.25,95,80.0
1254,C#2,64.75,0.25,95,80.0
1255,C#1,64.75,0.25,63,80.0
1256,C#2,64.75,0.25,63,80.0
1257,G#2,64.75,0.25,95,80.0
1258,C2,64.75,0.25,95,80.0
1259,G#3,65.0,1.0,95,80.0
1260,C#2,65.0,1.0,95,80.0
1261,C#1,65.0,1.0,63,80.0
1262,C#2,65.0,1.0,63,80.0
1263,G#2,65.0,0.25,95,80.0
1264,E2,65.0,0.25,95,80.0
1265,G#2,65.25,0.25,95,80.0
1266,G#2,65.5,0.25,95,80.0
1267,C#4,65.75,0.25,63,80.0
1268,C#5,65.75,0.25,63,80.0
1269,G#2,65.75,0.25,95,80.0
1270,C2,65.75,0.25,95,80.0
1271,A3,66.0,1.25,95,80.0
1272,F#2,66.0,0.75,95,80.0
1273,B3,66.0,0.25,63,80.0
1274,B4,66.0,0.25,63,80.0
1275,E3,66.0,0.25,63,80.0
1276,E4,66.0,0.25,63,80.0
1277,C#3,66.0,0.25,63,80.0
1278,C#4,66.0,0.25,63,80.0
1279,B0,66.0,0.75,63,80.0
1280,B1,66.0,0.75,63,80.0
1281,G#2,66.0,0.25,95,80.0
1282,C2,66.0,0.25,95,80.0
1283,B-4,66.0,0.5,95,80.0
1284,F#4,66.0,0.5,95,80.0
1285,G#2,66.25,0.25,95,80.0
1286,B-3,66.25,0.25,63,80.0
1287,B-4,66.25,0.25,63,80.0
1288,E-3,66.25,0.25,63,80.0
1289,E-4,66.25,0.25,63,80.0
1290,C#3,66.25,0.25,63,80.0
1291,C#4,66.25,0.25,63,80.0
1292,G#2,66.5,0.25,95,80.0
1293,B-4,66.5,0.25,95,80.0
1294,F#4,66.5,0.25,95,80.0
1295,G#2,66.75,0.25,95,80.0
1296,F#2,66.75,0.25,95,80.0
1297,B0,66.75,0.25,63,80.0
1298,B1,66.75,0.25,63,80.0
1299,B-4,66.75,0.5,95,80.0
1300,F#4,66.75,0.5,95,80.0
1301,F#2,67.0,0.5,95,80.0
1302,B-3,67.0,0.5,63,80.0
1303,B-4,67.0,0.5,63,80.0
1304,E-3,67.0,0.5,63,80.0
1305,E-4,67.0,0.5,63,80.0
1306,C#3,67.0,0.5,63,80.0
1307,C#4,67.0,0.5,63,80.0
1308,B0,67.0,1.0,63,80.0
1309,B1,67.0,1.0,63,80.0
1310,G#2,67.0,0.25,95,80.0
1311,E2,67.0,0.25,95,80.0
1312,C#4,67.25,0.25,95,80.0
1313,G#2,67.25,0.25,95,80.0
1314,B4,67.25,0.25,95,80.0
1315,G#4,67.25,0.25,95,80.0
1316,B3,67.5,0.25,95,80.0
1317,G#2,67.5,0.25,95,80.0
1318,F#2,67.5,0.5,95,80.0
1319,B-3,67.5,0.25,63,80.0
1320,B-4,67.5,0.25,63,80.0
1321,C#5,67.5,0.25,95,80.0
1322,G#4,67.5,0.25,95,80.0
1323,B-3,67.75,0.25,95,80.0
1324,B-3,67.75,0.5,63,80.0
1325,B-4,67.75,0.5,63,80.0
1326,G#2,67.75,0.25,95,80.0
1327,C2,67.75,0.25,95,80.0
1328,D5,67.75,0.5,95,80.0
1329,B4,67.75,0.5,95,80.0
1330,B-3,68.0,0.5,95,80.0
1331,F#2,68.0,0.75,95,80.0
1332,F#1,68.0,0.75,63,80.0
1333,F#2,68.0,0.75,63,80.0
1334,G#2,68.0,0.25,95,80.0
1335,C2,68.0,0.25,95,80.0
1336,G#2,68.25,0.25,95,80.0
1337,B3,68.25,0.25,63,80.0
1338,B4,68.25,0.25,63,80.0
1339,B-4,68.25,0.5,95,80.0
1340,F#4,68.25,0.5,95,80.0
1341,G#2,68.5,0.25,95,80.0
1342,C#4,68.5,0.25,63,80.0
1343,C#5,68.5,0.25,63,80.0
1344,E-3,68.5,0.25,63,80.0
1345,E-4,68.5,0.25,63,80.0
1346,C#3,68.5,0.25,63,80.0
1347,C#4,68.5,0.25,63,80.0
1348,G#2,68.75,0.25,95,80.0
1349,F#2,68.75,0.25,95,80.0
1350,D4,68.75,0.5,63,80.0
1351,D5,68.75,0.5,63,80.0
1352,F#3,68.75,0.5,63,80.0
1353,F#4,68.75,0.5,63,80.0
1354,D3,68.75,0.5,63,80.0
1355,D4,68.75,0.5,63,80.0
1356,B2,68.75,0.5,63,80.0
1357,B3,68.75,0.5,63,80.0
1358,F#1,68.75,0.25,63,80.0
1359,F#2,68.75,0.25,63,80.0
1360,G#4,68.75,0.5,95,80.0
1361,F#4,68.75,0.5,95,80.0
1362,F#2,69.0,0.5,95,80.0
1363,F#1,69.0,1.0,63,80.0
1364,F#2,69.0,1.0,63,80.0
1365,G#2,69.0,0.25,95,80.0
1366,E2,69.0,0.25,95,80.0
1367,G#2,69.25,0.25,95,80.0
1368,B-3,69.25,0.5,63,80.0
1369,B-4,69.25,0.5,63,80.0
1370,F#3,69.25,0.5,63,80.0
1371,F#4,69.25,0.5,63,80.0
1372,D3,69.25,0.5,63,80.0
1373,D4,69.25,0.5,63,80.0
1374,B2,69.25,0.5,63,80.0
1375,B3,69.25,0.5,63,80.0
1376,G#4,69.25,0.5,95,80.0
1377,F#4,69.25,0.5,95,80.0
1378,G#2,69.5,0.25,95,80.0
1379,F#2,69.5,0.25,95,80.0
1380,F#2,69.75,1.0,95,80.0
1381,G#3,69.75,0.5,63,80.0
1382,G#4,69.75,0.5,63,80.0
1383,G#2,69.75,0.25,95,80.0
1384,C2,69.75,0.25,95,80.0
1385,G#4,69.75,0.25,95,80.0
1386,F#4,69.75,0.25,95,80.0
1387,G#2,70.0,0.25,95,80.0
1388,F#1,70.0,0.75,63,80.0
1389,F#2,70.0,0.75,63,80.0
1390,B-4,70.0,2.0,95,80.0
1391,F#4,70.0,2.0,95,80.0
1392,B2,70.25,0.25,63,80.0
1393,B3,70.25,0.25,63,80.0
1394,G#2,70.25,0.25,95,80.0
1395,C2,70.25,0.25,95,80.0
1396,G#2,70.5,0.25,95,80.0
1397,G#3,70.5,0.5,63,80.0
1398,G#4,70.5,0.5,63,80.0
1399,F#3,70.5,0.5,63,80.0
1400,F#4,70.5,0.5,63,80.0
1401,E-3,70.5,0.5,63,80.0
1402,E-4,70.5,0.5,63,80.0
1403,F#2,70.75,0.25,95,80.0
1404,F#1,70.75,0.25,63,80.0
1405,F#2,70.75,0.25,63,80.0
1406,G#2,70.75,0.25,95,80.0
1407,C2,70.75,0.25,95,80.0
1408,F#2,71.0,1.0,95,80.0
1409,B-3,71.0,1.25,63,80.0
1410,B-4,71.0,1.25,63,80.0
1411,F#3,71.0,1.25,63,80.0
1412,F#4,71.0,1.25,63,80.0
1413,C#3,71.0,1.25,63,80.0
1414,C#4,71.0,1.25,63,80.0
1415,F#1,71.0,1.0,63,80.0
1416,F#2,71.0,1.0,63,80.0
1417,G#2,71.0,0.25,95,80.0
1418,E2,71.0,0.25,95,80.0
1419,C#4,71.25,0.25,95,80.0
1420,G#2,71.25,0.25,95,80.0
1421,B3,71.5,0.25,95,80.0
1422,G#2,71.5,0.25,95,80.0
1423,B-3,71.75,0.25,95,80.0
1424,G#2,71.75,0.25,95,80.0
1425,C2,71.75,0.25,95,80.0
1426,B-3,72.0,0.25,95,80.0
1427,F#2,72.0,0.75,95,80.0
1428,F#3,72.0,61/250,95,80.0
1429,C#4,72.0,61/250,95,80.0
1430,F#4,72.0,61/250,95,80.0
1431,B-4,72.0,61/250,95,80.0
1432,F#1,72.0,0.75,63,80.0
1433,F#2,72.0,0.75,63,80.0
1434,C#3,72.0,0.5,95,80.0
1435,C2,72.0,0.5,95,80.0
1436,G#4,72.0,1.0,95,80.0
1437,C#4,72.0,1.0,95,80.0
1438,B-4,72.25,123/500,63,80.0
1439,F#4,72.25,123/500,63,80.0
1440,C#4,72.25,123/500,63,80.0
1441,C#3,72.25,0.25,63,80.0
1442,C#4,72.25,0.25,63,80.0
1443,G#2,72.5,0.25,95,80.0
1444,C#4,72.5,123/500,63,80.0
1445,F#4,72.5,123/500,63,80.0
1446,B-4,72.5,123/500,63,80.0
1447,B-3,72.5,0.25,63,80.0
1448,B-4,72.5,0.25,63,80.0
1449,F#3,72.5,0.25,63,80.0
1450,F#4,72.5,0.25,63,80.0
1451,G#2,72.75,0.25,95,80.0
1452,F#2,72.75,0.25,95,80.0
1453,B-4,72.75,123/500,63,80.0
1454,F#4,72.75,123/500,63,80.0
1455,C#4,72.75,123/500,63,80.0
1456,G#3,72.75,1.5,63,80.0
1457,G#4,72.75,1.5,63,80.0
1458,F3,72.75,1.5,63,80.0
1459,F4,72.75,1.5,63,80.0
1460,C#3,72.75,1.5,63,80.0
1461,C#4,72.75,1.5,63,80.0
1462,F#1,72.75,0.25,63,80.0
1463,F#2,72.75,0.25,63,80.0
1464,F#2,73.0,0.5,95,80.0
1465,C#4,73.0,123/500,63,80.0
1466,F#4,73.0,123/500,63,80.0
1467,B-4,73.0,123/500,63,80.0
1468,F#1,73.0,1.0,63,80.0
1469,F#2,73.0,1.0,63,80.0
1470,G#2,73.0,0.25,95,80.0
1471,E2,73.0,0.25,95,80.0
1472,C#5,73.0,1.0,95,80.0
1473,C#4,73.0,1.0,95,80.0
1474,C#4,73.25,0.25,95,80.0
1475,G#2,73.25,0.25,95,80.0
1476,B-4,73.25,123/500,63,80.0
1477,F#4,73.25,123/500,63,80.0
1478,C#4,73.25,123/500,63,80.0
1479,B3,73.5,0.25,95,80.0
1480,G#2,73.5,0.25,95,80.0
1481,F#2,73.5,0.25,95,80.0
1482,C#4,73.5,123/500,63,80.0
1483,F#4,73.5,123/500,63,80.0
1484,B-4,73.5,123/500,63,80.0
1485,B-3,73.75,0.5,95,80.0
1486,F#2,73.75,1.0,95,80.0
1487,B-4,73.75,123/500,95,80.0
1488,E4,73.75,123/500,95,80.0
1489,C#4,73.75,123/500,95,80.0
1490,G#2,73.75,0.25,95,80.0
1491,C2,73.75,0.25,95,80.0
1492,G#2,74.0,0.25,95,80.0
1493,F#1,74.0,0.75,63,80.0
1494,F#2,74.0,0.75,63,80.0
1495,E-5,74.0,1.75,95,80.0
1496,B4,74.0,1.75,95,80.0
1497,B-4,74.25,123/500,95,80.0
1498,E4,74.25,123/500,95,80.0
1499,C#4,74.25,123/500,95,80.0
1500,C#3,74.25,0.25,63,80.0
1501,C#4,74.25,0.25,63,80.0
1502,G#2,74.25,0.25,95,80.0
1503,C2,74.25,0.25,95,80.0
1504,G#2,74.5,0.25,95,80.0
1505,G#3,74.5,0.25,63,80.0
1506,G#4,74.5,0.25,63,80.0
1507,F3,74.5,0.25,63,80.0
1508,F4,74.5,0.25,63,80.0
1509,F#2,74.75,0.25,95,80.0
1510,B-4,74.75,123/500,95,80.0
1511,E4,74.75,123/500,95,80.0
1512,C#4,74.75,123/500,95,80.0
1513,B3,74.75,0.25,63,80.0
1514,B4,74.75,0.25,63,80.0
1515,F#3,74.75,0.25,63,80.0
1516,F#4,74.75,0.25,63,80.0
1517,E-3,74.75,0.25,63,80.0
1518,E-4,74.75,0.25,63,80.0
1519,F#1,74.75,0.25,63,80.0
1520,F#2,74.75,0.25,63,80.0
1521,G#2,74.75,0.25,95,80.0
1522,C2,74.75,0.25,95,80.0
1523,F#2,75.0,1.0,95,80.0
1524,C#4,75.0,123/500,95,80.0
1525,E4,75.0,123/500,95,80.0
1526,B-4,75.0,123/500,95,80.0
1527,F#1,75.0,1.0,63,80.0
1528,F#2,75.0,1.0,63,80.0
1529,G#2,75.0,0.25,95,80.0
1530,E2,75.0,0.25,95,80.0
1531,C#4,75.25,0.25,95,80.0
1532,G#2,75.25,0.25,95,80.0
1533,B-4,75.25,123/500,63,80.0
1534,E4,75.25,123/500,63,80.0
1535,C#4,75.25,123/500,63,80.0
1536,B3,75.5,0.25,95,80.0
1537,G#2,75.5,0.25,95,80.0
1538,C#4,75.5,123/500,63,80.0
1539,E4,75.5,123/500,63,80.0
1540,B-4,75.5,123/500,63,80.0
1541,B-3,75.75,0.25,95,80.0
1542,B-4,75.75,123/500,63,80.0
1543,E4,75.75,123/500,63,80.0
1544,C#4,75.75,123/500,63,80.0
1545,G#2,75.75,0.25,95,80.0
1546,C2,75.75,0.25,95,80.0
1547,B-4,75.75,0.25,95,80.0
1548,F#4,75.75,0.25,95,80.0
1549,B-3,76.0,0.25,95,80.0
1550,F#2,76.0,0.75,95,80.0
1551,F#3,76.0,61/250,95,80.0
1552,C#4,76.0,61/250,95,80.0
1553,E-4,76.0,61/250,95,80.0
1554,B-4,76.0,61/250,95,80.0
1555,F#1,76.0,0.75,63,80.0
1556,F#2,76.0,0.75,63,80.0
1557,G#2,76.0,0.25,95,80.0
1558,C2,76.0,0.25,95,80.0
1559,B-3,76.25,0.5,95,80.0
1560,G#2,76.25,0.25,95,80.0
1561,B-4,76.25,123/500,63,80.0
1562,E-4,76.25,123/500,63,80.0
1563,C#4,76.25,123/500,63,80.0
1564,B3,76.25,1.25,63,80.0
1565,B4,76.25,1.25,63,80.0
1566,F#3,76.25,1.25,63,80.0
1567,F#4,76.25,1.25,63,80.0
1568,E-3,76.25,1.25,63,80.0
1569,E-4,76.25,1.25,63,80.0
1570,G#2,76.5,0.25,95,80.0
1571,C#4,76.5,123/500,63,80.0
1572,E-4,76.5,123/500,63,80.0
1573,B-4,76.5,123/500,63,80.0
1574,B-3,76.75,0.5,95,80.0
1575,G#2,76.75,0.25,95,80.0
1576,F#2,76.75,0.25,95,80.0
1577,B-4,76.75,123/500,63,80.0
1578,E-4,76.75,123/500,63,80.0
1579,C#4,76.75,123/500,63,80.0
1580,F#1,76.75,0.25,63,80.0
1581,F#2,76.75,0.25,63,80.0
1582,F#2,77.0,0.5,95,80.0
1583,C#4,77.0,123/500,63,80.0
1584,E-4,77.0,123/500,63,80.0
1585,B-4,77.0,123/500,63,80.0
1586,F#1,77.0,1.0,63,80.0
1587,F#2,77.0,1.0,63,80.0
1588,G#2,77.0,0.25,95,80.0
1589,E2,77.0,0.25,95,80.0
1590,B3,77.25,0.25,95,80.0
1591,G#2,77.25,0.25,95,80.0
1592,B-4,77.25,123/500,63,80.0
1593,E-4,77.25,123/500,63,80.0
1594,C#4,77.25,123/500,63,80.0
1595,C#4,77.5,0.25,95,80.0
1596,G#2,77.5,0.25,95,80.0
1597,F#2,77.5,0.25,95,80.0
1598,C#4,77.5,123/500,63,80.0
1599,E-4,77.5,123/500,63,80.0
1600,B-4,77.5,123/500,63,80.0
1601,E-3,77.5,0.25,63,80.0
1602,E-4,77.5,0.25,63,80.0
1603,C4,77.75,0.5,95,80.0
1604,F#2,77.75,1.0,95,80.0
1605,B4,77.75,61/250,95,80.0
1606,G#4,77.75,61/250,95,80.0
1607,D4,77.75,61/250,95,80.0
1608,F#3,77.75,61/250,95,80.0
1609,B3,77.75,0.25,63,80.0
1610,B4,77.75,0.25,63,80.0
1611,F#3,77.75,0.25,63,80.0
1612,F#4,77.75,0.25,63,80.0
1613,G#2,77.75,0.25,95,80.0
1614,C2,77.75,0.25,95,80.0
1615,G#2,78.0,0.25,95,80.0
1616,B-3,78.0,0.25,63,80.0
1617,B-4,78.0,0.25,63,80.0
1618,F#3,78.0,0.25,63,80.0
1619,F#4,78.0,0.25,63,80.0
1620,C#3,78.0,0.25,63,80.0
1621,C#4,78.0,0.25,63,80.0
1622,F#1,78.0,0.75,63,80.0
1623,F#2,78.0,0.75,63,80.0
1624,B-3,78.25,0.5,95,80.0
1625,B4,78.25,123/500,95,80.0
1626,G#4,78.25,123/500,95,80.0
1627,D4,78.25,123/500,95,80.0
1628,G#2,78.25,0.25,95,80.0
1629,C2,78.25,0.25,95,80.0
1630,G#2,78.5,0.25,95,80.0
1631,F#3,78.75,0.75,95,80.0
1632,F#2,78.75,0.25,95,80.0
1633,B4,78.75,123/500,95,80.0
1634,G#4,78.75,123/500,95,80.0
1635,D4,78.75,123/500,95,80.0
1636,F#1,78.75,0.25,63,80.0
1637,F#2,78.75,0.25,63,80.0
1638,G#2,78.75,0.25,95,80.0
1639,C2,78.75,0.25,95,80.0
1640,F#2,79.0,1.0,95,80.0
1641,D4,79.0,123/500,95,80.0
1642,G#4,79.0,123/500,95,80.0
1643,B4,79.0,123/500,95,80.0
1644,F#1,79.0,1.0,63,80.0
1645,F#2,79.0,1.0,63,80.0
1646,G#2,79.0,0.25,95,80.0
1647,E2,79.0,0.25,95,80.0
1648,G#2,79.25,0.25,95,80.0
1649,B4,79.25,123/500,63,80.0
1650,G#4,79.25,123/500,63,80.0
1651,D4,79.25,123/500,63,80.0
1652,G#2,79.5,0.25,95,80.0
1653,D4,79.5,123/500,63,80.0
1654,G#4,79.5,123/500,63,80.0
1655,B4,79.5,123/500,63,80.0
1656,B-3,79.5,1.25,63,80.0
1657,B-4,79.5,1.25,63,80.0
1658,F#3,79.5,1.25,63,80.0
1659,F#4,79.5,1.25,63,80.0
1660,C#3,79.5,1.25,63,80.0
1661,C#4,79.5,1.25,63,80.0
1662,B4,79.75,123/500,63,80.0
1663,G#4,79.75,123/500,63,80.0
1664,D4,79.75,123/500,63,80.0
1665,G#2,79.75,0.25,95,80.0
1666,C2,79.75,0.25,95,80.0
1667,G#3,80.0,2.0,95,80.0
1668,B3,80.0,2.0,95,80.0
1669,F#2,80.0,0.75,95,80.0
1670,F#3,80.0,61/250,95,80.0
1671,C#4,80.0,61/250,95,80.0
1672,F#4,80.0,61/250,95,80.0
1673,B-4,80.0,61/250,95,80.0
1674,F#1,80.0,0.75,63,80.0
1675,F#2,80.0,0.75,63,80.0
1676,G#2,80.0,0.25,95,80.0
1677,C2,80.0,0.25,95,80.0
1678,B-4,80.0,4.0,95,80.0
1679,F#4,80.0,4.0,95,80.0
1680,G#2,80.25,0.25,95,80.0
1681,B-4,80.25,123/500,63,80.0
1682,F#4,80.25,123/500,63,80.0
1683,C#4,80.25,123/500,63,80.0
1684,G#2,80.5,0.25,95,80.0
1685,C#4,80.5,123/500,63,80.0
1686,F#4,80.5,123/500,63,80.0
1687,B-4,80.5,123/500,63,80.0
1688,G#2,80.75,0.25,95,80.0
1689,F#2,80.75,0.25,95,80.0
1690,B-4,80.75,123/500,63,80.0
1691,F#4,80.75,123/500,63,80.0
1692,C#4,80.75,123/500,63,80.0
1693,C#3,80.75,0.25,63,80.0
1694,C#4,80.75,0.25,63,80.0
1695,F#1,80.75,0.25,63,80.0
1696,F#2,80.75,0.25,63,80.0
1697,F#2,81.0,0.5,95,80.0
1698,C#4,81.0,123/500,63,80.0
1699,F#4,81.0,123/500,63,80.0
1700,B-4,81.0,123/500,63,80.0
1701,G#3,81.0,0.25,63,80.0
1702,G#4,81.0,0.25,63,80.0
1703,F#1,81.0,1.0,63,80.0
1704,F#2,81.0,1.0,63,80.0
1705,G#2,81.0,0.25,95,80.0
1706,E2,81.0,0.25,95,80.0
1707,G#2,81.25,0.25,95,80.0
1708,B-4,81.25,123/500,63,80.0
1709,F#4,81.25,123/500,63,80.0
1710,C#4,81.25,123/500,63,80.0
1711,B-3,81.25,1.5,63,80.0
1712,B-4,81.25,1.5,63,80.0
1713,F#3,81.25,1.5,63,80.0
1714,F#4,81.25,1.5,63,80.0
1715,C#3,81.25,1.5,63,80.0
1716,C#4,81.25,1.5,63,80.0
1717,G#2,81.5,0.25,95,80.0
1718,F#2,81.5,0.25,95,80.0
1719,C#4,81.5,123/500,63,80.0
1720,F#4,81.5,123/500,63,80.0
1721,B-4,81.5,123/500,63,80.0
1722,C#2,81.75,1.0,95,80.0
1723,G#4,81.75,121/500,95,80.0
1724,F4,81.75,121/500,95,80.0
1725,C#4,81.75,121/500,95,80.0
1726,G#3,81.75,121/500,95,80.0
1727,C#3,81.75,121/500,95,80.0
1728,G#2,81.75,0.25,95,80.0
1729,C2,81.75,0.25,95,80.0
1730,G#3,82.0,1.0,95,80.0
1731,C#4,82.0,1.0,95,80.0
1732,G#2,82.0,0.25,95,80.0
1733,C#1,82.0,0.75,63,80.0
1734,C#2,82.0,0.75,63,80.0
1735,G#4,82.25,61/250,95,80.0
1736,F4,82.25,61/250,95,80.0
1737,C#4,82.25,61/250,95,80.0
1738,G#3,82.25,61/250,95,80.0
1739,G#2,82.25,0.25,95,80.0
1740,C2,82.25,0.25,95,80.0
1741,G#2,82.5,0.25,95,80.0
1742,C#2,82.75,0.25,95,80.0
1743,G#4,82.75,61/250,95,80.0
1744,F4,82.75,61/250,95,80.0
1745,C#4,82.75,61/250,95,80.0
1746,G#3,82.75,61/250,95,80.0
1747,C#3,82.75,0.25,63,80.0
1748,C#4,82.75,0.25,63,80.0
1749,C#1,82.75,0.25,63,80.0
1750,C#2,82.75,0.25,63,80.0
1751,G#2,82.75,0.25,95,80.0
1752,C2,82.75,0.25,95,80.0
1753,G#3,83.0,1.0,95,80.0
1754,C#4,83.0,1.0,95,80.0
1755,C#2,83.0,1.0,95,80.0
1756,G#3,83.0,61/250,95,80.0
1757,C#4,83.0,61/250,95,80.0
1758,F4,83.0,61/250,95,80.0
1759,G#4,83.0,61/250,95,80.0
1760,B-3,83.0,0.5,63,80.0
1761,B-4,83.0,0.5,63,80.0
1762,F#3,83.0,0.5,63,80.0
1763,F#4,83.0,0.5,63,80.0
1764,C#1,83.0,1.0,63,80.0
1765,C#2,83.0,1.0,63,80.0
1766,G#2,83.0,0.25,95,80.0
1767,E2,83.0,0.25,95,80.0
1768,G#2,83.25,0.25,95,80.0
1769,G#4,83.25,61/250,63,80.0
1770,F4,83.25,61/250,63,80.0
1771,C#4,83.25,61/250,63,80.0
1772,G#3,83.25,61/250,63,80.0
1773,G#2,83.5,0.25,95,80.0
1774,G#3,83.5,61/250,63,80.0
1775,C#4,83.5,61/250,63,80.0
1776,F4,83.5,61/250,63,80.0
1777,G#4,83.5,61/250,63,80.0
1778,F#3,83.5,0.5,63,80.0
1779,F#4,83.5,0.5,63,80.0
1780,G#4,83.75,61/250,63,80.0
1781,F4,83.75,61/250,63,80.0
1782,C#4,83.75,61/250,63,80.0
1783,G#3,83.75,61/250,63,80.0
1784,G#2,83.75,0.25,95,80.0
1785,C2,83.75,0.25,95,80.0
1786,A3,84.0,1.25,95,80.0
1787,C#4,84.0,1.25,95,80.0
1788,F#2,84.0,0.75,95,80.0
1789,F#3,84.0,61/250,95,80.0
1790,B3,84.0,61/250,95,80.0
1791,F#4,84.0,61/250,95,80.0
1792,B4,84.0,61/250,95,80.0
1793,B-2,84.0,0.25,63,80.0
1794,B-3,84.0,0.25,63,80.0
1795,B0,84.0,0.75,63,80.0
1796,B1,84.0,0.75,63,80.0
1797,G#2,84.0,0.25,95,80.0
1798,C2,84.0,0.25,95,80.0
1799,B-4,84.0,2.0,95,80.0
1800,F#4,84.0,2.0,95,80.0
1801,G#2,84.25,0.25,95,80.0
1802,B4,84.25,61/250,63,80.0
1803,F#4,84.25,61/250,63,80.0
1804,B3,84.25,61/250,63,80.0
1805,F#3,84.25,61/250,63,80.0
1806,F#3,84.25,0.5,63,80.0
1807,F#4,84.25,0.5,63,80.0
1808,G#2,84.5,0.25,95,80.0
1809,F#3,84.5,61/250,63,80.0
1810,B3,84.5,61/250,63,80.0
1811,F#4,84.5,61/250,63,80.0
1812,B4,84.5,61/250,63,80.0
1813,G#2,84.75,0.25,95,80.0
1814,F#2,84.75,0.25,95,80.0
1815,B4,84.75,61/250,63,80.0
1816,F#4,84.75,61/250,63,80.0
1817,B3,84.75,61/250,63,80.0
1818,F#3,84.75,61/250,63,80.0
1819,C#4,84.75,0.25,63,80.0
1820,C#5,84.75,0.25,63,80.0
1821,C#3,84.75,0.25,63,80.0
1822,C#4,84.75,0.25,63,80.0
1823,B0,84.75,0.25,63,80.0
1824,B1,84.75,0.25,63,80.0
1825,F#2,85.0,0.5,95,80.0
1826,F#3,85.0,61/250,63,80.0
1827,B3,85.0,61/250,63,80.0
1828,F#4,85.0,61/250,63,80.0
1829,B4,85.0,61/250,63,80.0
1830,B3,85.0,0.25,63,80.0
1831,B4,85.0,0.25,63,80.0
1832,F#3,85.0,0.25,63,80.0
1833,F#4,85.0,0.25,63,80.0
1834,C#3,85.0,0.25,63,80.0
1835,C#4,85.0,0.25,63,80.0
1836,B0,85.0,1.0,63,80.0
1837,B1,85.0,1.0,63,80.0
1838,G#2,85.0,0.25,95,80.0
1839,E2,85.0,0.25,95,80.0
1840,C#4,85.25,0.25,95,80.0
1841,F4,85.25,0.25,95,80.0
1842,G#2,85.25,0.25,95,80.0
1843,B4,85.25,61/250,63,80.0
1844,F#4,85.25,61/250,63,80.0
1845,B3,85.25,61/250,63,80.0
1846,F#3,85.25,61/250,63,80.0
1847,B-3,85.25,1.5,63,80.0
1848,B-4,85.25,1.5,63,80.0
1849,E3,85.25,1.5,63,80.0
1850,E4,85.25,1.5,63,80.0
1851,C#3,85.25,1.5,63,80.0
1852,C#4,85.25,1.5,63,80.0
1853,B3,85.5,0.25,95,80.0
1854,E-4,85.5,0.25,95,80.0
1855,G#2,85.5,0.25,95,80.0
1856,F#2,85.5,0.5,95,80.0
1857,F#3,85.5,61/250,63,80.0
1858,B3,85.5,61/250,63,80.0
1859,F#4,85.5,61/250,63,80.0
1860,B4,85.5,61/250,63,80.0
1861,B-3,85.75,0.25,95,80.0
1862,C#4,85.75,0.25,95,80.0
1863,B4,85.75,61/250,63,80.0
1864,F#4,85.75,61/250,63,80.0
1865,B3,85.75,61/250,63,80.0
1866,F#3,85.75,61/250,63,80.0
1867,G#2,85.75,0.25,95,80.0
1868,C2,85.75,0.25,95,80.0
1869,B-3,86.0,0.5,95,80.0
1870,C#4,86.0,0.5,95,80.0
1871,F#2,86.0,0.75,95,80.0
1872,F#1,86.0,0.75,63,80.0
1873,F#2,86.0,0.75,63,80.0
1874,G#2,86.0,0.25,95,80.0
1875,C2,86.0,0.25,95,80.0
1876,B-4,86.0,2.0,95,80.0
1877,F#4,86.0,2.0,95,80.0
1878,G#2,86.25,0.25,95,80.0
1879,B-4,86.25,123/500,95,80.0
1880,F#4,86.25,123/500,95,80.0
1881,C#4,86.25,123/500,95,80.0
1882,G#2,86.5,0.25,95,80.0
1883,G#2,86.75,0.25,95,80.0
1884,F#2,86.75,0.25,95,80.0
1885,B-4,86.75,123/500,63,80.0
1886,F#4,86.75,123/500,63,80.0
1887,C#4,86.75,123/500,63,80.0
1888,C#4,86.75,0.25,63,80.0
1889,C#5,86.75,0.25,63,80.0
1890,F#1,86.75,0.25,63,80.0
1891,F#2,86.75,0.25,63,80.0
1892,F#2,87.0,0.5,95,80.0
1893,C#4,87.0,123/500,63,80.0
1894,F#4,87.0,123/500,63,80.0
1895,B-4,87.0,123/500,63,80.0
1896,B3,87.0,0.25,63,80.0
1897,B4,87.0,0.25,63,80.0
1898,E3,87.0,0.25,63,80.0
1899,E4,87.0,0.25,63,80.0
1900,C#3,87.0,0.25,63,80.0
1901,C#4,87.0,0.25,63,80.0
1902,F#1,87.0,1.0,63,80.0
1903,F#2,87.0,1.0,63,80.0
1904,G#2,87.0,0.25,95,80.0
1905,E2,87.0,0.25,95,80.0
1906,G#2,87.25,0.25,95,80.0
1907,B-4,87.25,123/500,63,80.0
1908,F#4,87.25,123/500,63,80.0
1909,C#4,87.25,123/500,63,80.0
1910,B-3,87.25,0.25,63,80.0
1911,B-4,87.25,0.25,63,80.0
1912,E-3,87.25,0.25,63,80.0
1913,E-4,87.25,0.25,63,80.0
1914,C#3,87.25,0.25,63,80.0
1915,C#4,87.25,0.25,63,80.0
1916,G#2,87.5,0.25,95,80.0
1917,F#2,87.5,0.25,95,80.0
1918,C#4,87.5,123/500,63,80.0
1919,F#4,87.5,123/500,63,80.0
1920,B-4,87.5,123/500,63,80.0
1921,F#2,87.75,1.0,95,80.0
1922,B-4,87.75,123/500,63,80.0
1923,F#4,87.75,123/500,63,80.0
1924,C#4,87.75,123/500,63,80.0
1925,G#2,87.75,0.25,95,80.0
1926,C2,87.75,0.25,95,80.0
1927,G#2,88.0,0.25,95,80.0
1928,B-4,88.0,0.25,95,80.0
1929,F#4,88.0,0.25,95,80.0
1930,C#4,88.0,0.25,95,80.0
1931,F#3,88.0,0.25,95,80.0
1932,B-3,88.0,0.5,63,80.0
1933,B-4,88.0,0.5,63,80.0
1934,E-3,88.0,0.5,63,80.0
1935,E-4,88.0,0.5,63,80.0
1936,C#3,88.0,0.5,63,80.0
1937,C#4,88.0,0.5,63,80.0
1938,F#1,88.0,0.75,63,80.0
1939,F#2,88.0,0.75,63,80.0
1940,B-4,88.0,0.5,95,80.0
1941,F#4,88.0,0.5,95,80.0
1942,B-4,88.25,123/500,63,80.0
1943,F#4,88.25,123/500,63,80.0
1944,C#4,88.25,123/500,63,80.0
1945,G#2,88.25,0.25,95,80.0
1946,C2,88.25,0.25,95,80.0
1947,G#2,88.5,0.25,95,80.0
1948,B-4,88.5,0.25,63,80.0
1949,F#4,88.5,0.25,63,80.0
1950,C#4,88.5,0.25,63,80.0
1951,B-3,88.5,0.25,63,80.0
1952,B-4,88.5,0.25,63,80.0
1953,B-4,88.5,0.25,95,80.0
1954,F#4,88.5,0.25,95,80.0
1955,F#2,88.75,0.25,95,80.0
1956,B-4,88.75,123/500,63,80.0
1957,F#4,88.75,123/500,63,80.0
1958,C#4,88.75,123/500,63,80.0
1959,B-3,88.75,0.5,63,80.0
1960,B-4,88.75,0.5,63,80.0
1961,F#1,88.75,0.25,63,80.0
1962,F#2,88.75,0.25,63,80.0
1963,G#2,88.75,0.25,95,80.0
1964,C2,88.75,0.25,95,80.0
1965,B-4,88.75,0.5,95,80.0
1966,F#4,88.75,0.5,95,80.0
1967,F#2,89.0,1.0,95,80.0
1968,C#4,89.0,123/500,63,80.0
1969,F#4,89.0,123/500,63,80.0
1970,B-4,89.0,123/500,63,80.0
1971,F#1,89.0,1.0,63,80.0
1972,F#2,89.0,1.0,63,80.0
1973,G#2,89.0,0.25,95,80.0
1974,E2,89.0,0.25,95,80.0
1975,C#4,89.25,0.25,95,80.0
1976,G#2,89.25,0.25,95,80.0
1977,B-4,89.25,123/500,63,80.0
1978,F#4,89.25,123/500,63,80.0
1979,C#4,89.25,123/500,63,80.0
1980,B3,89.25,0.25,63,80.0
1981,B4,89.25,0.25,63,80.0
1982,B4,89.25,0.25,95,80.0
1983,G#4,89.25,0.25,95,80.0
1984,B3,89.5,0.25,95,80.0
1985,G#2,89.5,0.25,95,80.0
1986,C#4,89.5,123/500,63,80.0
1987,F#4,89.5,123/500,63,80.0
1988,B-4,89.5,123/500,63,80.0
1989,C#4,89.5,0.25,63,80.0
1990,C#5,89.5,0.25,63,80.0
1991,E-3,89.5,0.25,63,80.0
1992,E-4,89.5,0.25,63,80.0
1993,C#3,89.5,0.25,63,80.0
1994,C#4,89.5,0.25,63,80.0
1995,C#5,89.5,0.25,95,80.0
1996,G#4,89.5,0.25,95,80.0
1997,B-3,89.75,0.25,95,80.0
1998,B-4,89.75,123/500,63,80.0
1999,F#4,89.75,123/500,63,80.0
2000,C#4,89.75,123/500,63,80.0
2001,D4,89.75,0.5,63,80.0
2002,D5,89.75,0.5,63,80.0
2003,F#3,89.75,0.5,63,80.0
2004,F#4,89.75,0.5,63,80.0
2005,D3,89.75,0.5,63,80.0
2006,D4,89.75,0.5,63,80.0
2007,B2,89.75,0.5,63,80.0
2008,B3,89.75,0.5,63,80.0
2009,G#2,89.75,0.25,95,80.0
2010,C2,89.75,0.25,95,80.0
2011,D5,89.75,0.5,95,80.0
2012,B4,89.75,0.5,95,80.0
2013,B-3,90.0,0.25,95,80.0
2014,F#2,90.0,0.75,95,80.0
2015,F#3,90.0,61/250,95,80.0
2016,C#4,90.0,61/250,95,80.0
2017,F#4,90.0,61/250,95,80.0
2018,B-4,90.0,61/250,95,80.0
2019,F#1,90.0,0.75,63,80.0
2020,F#2,90.0,0.75,63,80.0
2021,C#3,90.0,0.5,95,80.0
2022,C2,90.0,0.5,95,80.0
2023,B-4,90.25,123/500,63,80.0
2024,F#4,90.25,123/500,63,80.0
2025,C#4,90.25,123/500,63,80.0
2026,B-3,90.25,0.5,63,80.0
2027,B-4,90.25,0.5,63,80.0
2028,F#3,90.25,0.5,63,80.0
2029,F#4,90.25,0.5,63,80.0
2030,D3,90.25,0.5,63,80.0
2031,D4,90.25,0.5,63,80.0
2032,B2,90.25,0.5,63,80.0
2033,B3,90.25,0.5,63,80.0
2034,B-4,90.25,0.5,95,80.0
2035,F#4,90.25,0.5,95,80.0
2036,G#2,90.5,0.25,95,80.0
2037,C#4,90.5,123/500,63,80.0
2038,F#4,90.5,123/500,63,80.0
2039,B-4,90.5,123/500,63,80.0
2040,G#2,90.75,0.25,95,80.0
2041,F#2,90.75,0.25,95,80.0
2042,B-4,90.75,123/500,63,80.0
2043,F#4,90.75,123/500,63,80.0
2044,C#4,90.75,123/500,63,80.0
2045,G#3,90.75,0.5,63,80.0
2046,G#4,90.75,0.5,63,80.0
2047,F#1,90.75,0.25,63,80.0
2048,F#2,90.75,0.25,63,80.0
2049,G#4,90.75,0.5,95,80.0
2050,F#4,90.75,0.5,95,80.0
2051,F#2,91.0,0.5,95,80.0
2052,C#4,91.0,123/500,63,80.0
2053,F#4,91.0,123/500,63,80.0
2054,B-4,91.0,123/500,63,80.0
2055,F#1,91.0,1.0,63,80.0
2056,F#2,91.0,1.0,63,80.0
2057,G#2,91.0,0.25,95,80.0
2058,E2,91.0,0.25,95,80.0
2059,C#4,91.25,0.25,95,80.0
2060,G#2,91.25,0.25,95,80.0
2061,B-4,91.25,123/500,63,80.0
2062,F#4,91.25,123/500,63,80.0
2063,C#4,91.25,123/500,63,80.0
2064,B2,91.25,0.25,63,80.0
2065,B3,91.25,0.25,63,80.0
2066,G#4,91.25,0.5,95,80.0
2067,F#4,91.25,0.5,95,80.0
2068,B3,91.5,0.25,95,80.0
2069,G#2,91.5,0.25,95,80.0
2070,F#2,91.5,0.25,95,80.0
2071,C#4,91.5,123/500,63,80.0
2072,F#4,91.5,123/500,63,80.0
2073,B-4,91.5,123/500,63,80.0
2074,G#3,91.5,0.5,63,80.0
2075,G#4,91.5,0.5,63,80.0
2076,F#3,91.5,0.5,63,80.0
2077,F#4,91.5,0.5,63,80.0
2078,E-3,91.5,0.5,63,80.0
2079,E-4,91.5,0.5,63,80.0
2080,B-3,91.75,0.5,95,80.0
2081,F#2,91.75,1.0,95,80.0
2082,B-4,91.75,123/500,95,80.0
2083,E4,91.75,123/500,95,80.0
2084,C#4,91.75,123/500,95,80.0
2085,G#2,91.75,0.25,95,80.0
2086,C2,91.75,0.25,95,80.0
2087,G#4,91.75,0.25,95,80.0
2088,F#4,91.75,0.25,95,80.0
2089,G#2,92.0,0.25,95,80.0
2090,B-3,92.0,1.25,63,80.0
2091,B-4,92.0,1.25,63,80.0
2092,F#3,92.0,1.25,63,80.0
2093,F#4,92.0,1.25,63,80.0
2094,C#3,92.0,1.25,63,80.0
2095,C#4,92.0,1.25,63,80.0
2096,F#1,92.0,0.75,63,80.0
2097,F#2,92.0,0.75,63,80.0
2098,B-4,92.0,2.0,95,80.0
2099,F#4,92.0,2.0,95,80.0
2100,B-4,92.25,123/500,95,80.0
2101,E4,92.25,123/500,95,80.0
2102,C#4,92.25,123/500,95,80.0
2103,G#2,92.25,0.25,95,80.0
2104,C2,92.25,0.25,95,80.0
2105,G#2,92.5,0.25,95,80.0
2106,F#2,92.75,0.25,95,80.0
2107,B-4,92.75,123/500,95,80.0
2108,E4,92.75,123/500,95,80.0
2109,C#4,92.75,123/500,95,80.0
2110,F#1,92.75,0.25,63,80.0
2111,F#2,92.75,0.25,63,80.0
2112,G#2,92.75,0.25,95,80.0
2113,C2,92.75,0.25,95,80.0
2114,F#2,93.0,1.0,95,80.0
2115,C#4,93.0,123/500,95,80.0
2116,E4,93.0,123/500,95,80.0
2117,B-4,93.0,123/500,95,80.0
2118,F#1,93.0,1.0,63,80.0
2119,F#2,93.0,1.0,63,80.0
2120,G#2,93.0,0.25,95,80.0
2121,E2,93.0,0.25,95,80.0
2122,C#4,93.25,0.25,95,80.0
2123,G#2,93.25,0.25,95,80.0
2124,B-4,93.25,123/500,63,80.0
2125,E4,93.25,123/500,63,80.0
2126,C#4,93.25,123/500,63,80.0
2127,C#3,93.25,0.25,63,80.0
2128,C#4,93.25,0.25,63,80.0
2129,B3,93.5,0.25,95,80.0
2130,G#2,93.5,0.25,95,80.0
2131,C#4,93.5,123/500,63,80.0
2132,E4,93.5,123/500,63,80.0
2133,B-4,93.5,123/500,63,80.0
2134,B-3,93.5,0.25,63,80.0
2135,B-4,93.5,0.25,63,80.0
2136,F#3,93.5,0.25,63,80.0
2137,F#4,93.5,0.25,63,80.0
2138,B-3,93.75,0.25,95,80.0
2139,B-4,93.75,123/500,63,80.0
2140,E4,93.75,123/500,63,80.0
2141,C#4,93.75,123/500,63,80.0
2142,G#3,93.75,1.5,63,80.0
2143,G#4,93.75,1.5,63,80.0
2144,F3,93.75,1.5,63,80.0
2145,F4,93.75,1.5,63,80.0
2146,C#3,93.75,1.5,63,80.0
2147,C#4,93.75,1.5,63,80.0
2148,G#2,93.75,0.25,95,80.0
2149,C2,93.75,0.25,95,80.0
2150,B-3,94.0,0.25,95,80.0
2151,F#2,94.0,0.75,95,80.0
2152,F#3,94.0,61/250,95,80.0
2153,C#4,94.0,61/250,95,80.0
2154,E-4,94.0,61/250,95,80.0
2155,B-4,94.0,61/250,95,80.0
2156,F#1,94.0,0.75,63,80.0
2157,F#2,94.0,0.75,63,80.0
2158,G#2,94.0,0.25,95,80.0
2159,C2,94.0,0.25,95,80.0
2160,G#4,94.0,1.0,95,80.0
2161,C#4,94.0,1.0,95,80.0
2162,B-3,94.25,0.5,95,80.0
2163,G#2,94.25,0.25,95,80.0
2164,B-4,94.25,123/500,63,80.0
2165,E-4,94.25,123/500,63,80.0
2166,C#4,94.25,123/500,63,80.0
2167,G#2,94.5,0.25,95,80.0
2168,C#4,94.5,123/500,63,80.0
2169,E-4,94.5,123/500,63,80.0
2170,B-4,94.5,123/500,63,80.0
2171,B-3,94.75,0.5,95,80.0
2172,G#2,94.75,0.25,95,80.0
2173,F#2,94.75,0.25,95,80.0
2174,B-4,94.75,123/500,63,80.0
2175,E-4,94.75,123/500,63,80.0
2176,C#4,94.75,123/500,63,80.0
2177,F#1,94.75,0.25,63,80.0
2178,F#2,94.75,0.25,63,80.0
2179,F#2,95.0,0.5,95,80.0
2180,C#4,95.0,123/500,63,80.0
2181,E-4,95.0,123/500,63,80.0
2182,B-4,95.0,123/500,63,80.0
2183,F#1,95.0,1.0,63,80.0
2184,F#2,95.0,1.0,63,80.0
2185,G#2,95.0,0.25,95,80.0
2186,E2,95.0,0.25,95,80.0
2187,C#5,95.0,1.0,95,80.0
2188,C#4,95.0,1.0,95,80.0
2189,B3,95.25,0.25,95,80.0
2190,G#2,95.25,0.25,95,80.0
2191,B-4,95.25,123/500,63,80.0
2192,E-4,95.25,123/500,63,80.0
2193,C#4,95.25,123/500,63,80.0
2194,C#3,95.25,0.25,63,80.0
2195,C#4,95.25,0.25,63,80.0
2196,C#4,95.5,0.25,95,80.0
2197,G#2,95.5,0.25,95,80.0
2198,F#2,95.5,0.25,95,80.0
2199,C#4,95.5,123/500,63,80.0
2200,E-4,95.5,123/500,63,80.0
2201,B-4,95.5,123/500,63,80.0
2202,G#3,95.5,0.25,63,80.0
2203,G#4,95.5,0.25,63,80.0
2204,F3,95.5,0.25,63,80.0
2205,F4,95.5,0.25,63,80.0
2206,C4,95.75,0.5,95,80.0
2207,F#2,95.75,1.0,95,80.0
2208,B4,95.75,61/250,95,80.0
2209,G#4,95.75,61/250,95,80.0
2210,D4,95.75,61/250,95,80.0
2211,F#3,95.75,61/250,95,80.0
2212,B3,95.75,0.25,63,80.0
2213,B4,95.75,0.25,63,80.0
2214,F#3,95.75,0.25,63,80.0
2215,F#4,95.75,0.25,63,80.0
2216,E-3,95.75,0.25,63,80.0
2217,E-4,95.75,0.25,63,80.0
2218,G#2,95.75,0.25,95,80.0
2219,C2,95.75,0.25,95,80.0
2220,G#2,96.0,0.25,95,80.0
2221,F#1,96.0,0.75,63,80.0
2222,F#2,96.0,0.75,63,80.0
2223,E-5,96.0,1.75,95,80.0
2224,B4,96.0,1.75,95,80.0
2225,B-3,96.25,0.5,95,80.0
2226,B4,96.25,123/500,95,80.0
2227,G#4,96.25,123/500,95,80.0
2228,D4,96.25,123/500,95,80.0
2229,G#2,96.25,0.25,95,80.0
2230,C2,96.25,0.25,95,80.0
2231,G#2,96.5,0.25,95,80.0
2232,F#3,96.75,0.75,95,80.0
2233,F#2,96.75,0.25,95,80.0
2234,B4,96.75,123/500,95,80.0
2235,G#4,96.75,123/500,95,80.0
2236,D4,96.75,123/500,95,80.0
2237,F#1,96.75,0.25,63,80.0
2238,F#2,96.75,0.25,63,80.0
2239,G#2,96.75,0.25,95,80.0
2240,C2,96.75,0.25,95,80.0
2241,F#2,97.0,1.0,95,80.0
2242,D4,97.0,123/500,95,80.0
2243,G#4,97.0,123/500,95,80.0
2244,B4,97.0,123/500,95,80.0
2245,F#1,97.0,1.0,63,80.0
2246,F#2,97.0,1.0,63,80.0
2247,G#2,97.0,0.25,95,80.0
2248,E2,97.0,0.25,95,80.0
2249,G#2,97.25,0.25,95,80.0
2250,B4,97.25,123/500,63,80.0
2251,G#4,97.25,123/500,63,80.0
2252,D4,97.25,123/500,63,80.0
2253,B3,97.25,1.25,63,80.0
2254,B4,97.25,1.25,63,80.0
2255,F#3,97.25,1.25,63,80.0
2256,F#4,97.25,1.25,63,80.0
2257,E-3,97.25,1.25,63,80.0
2258,E-4,97.25,1.25,63,80.0
2259,G#2,97.5,0.25,95,80.0
2260,D4,97.5,123/500,63,80.0
2261,G#4,97.5,123/500,63,80.0
2262,B4,97.5,123/500,63,80.0
2263,B4,97.75,123/500,63,80.0
2264,G#4,97.75,123/500,63,80.0
2265,D4,97.75,123/500,63,80.0
2266,G#2,97.75,0.25,95,80.0
2267,C2,97.75,0.25,95,80.0
2268,B-4,97.75,0.25,95,80.0
2269,F#4,97.75,0.25,95,80.0
2270,G#3,98.0,2.0,95,80.0
2271,B3,98.0,2.0,95,80.0
2272,F#2,98.0,0.75,95,80.0
2273,F#3,98.0,61/250,95,80.0
2274,C#4,98.0,61/250,95,80.0
2275,F#4,98.0,61/250,95,80.0
2276,B-4,98.0,61/250,95,80.0
2277,F#1,98.0,0.75,63,80.0
2278,F#2,98.0,0.75,63,80.0
2279,G#2,98.0,0.25,95,80.0
2280,C2,98.0,0.25,95,80.0
2281,G#2,98.25,0.25,95,80.0
2282,B-4,98.25,123/500,63,80.0
2283,F#4,98.25,123/500,63,80.0
2284,C#4,98.25,123/500,63,80.0
2285,G#2,98.5,0.25,95,80.0
2286,C#4,98.5,123/500,63,80.0
2287,F#4,98.5,123/500,63,80.0
2288,B-4,98.5,123/500,63,80.0
2289,E-3,98.5,0.25,63,80.0
2290,E-4,98.5,0.25,63,80.0
2291,G#2,98.75,0.25,95,80.0
2292,F#2,98.75,0.25,95,80.0
2293,B-4,98.75,123/500,63,80.0
2294,F#4,98.75,123/500,63,80.0
2295,C#4,98.75,123/500,63,80.0
2296,B3,98.75,0.25,63,80.0
2297,B4,98.75,0.25,63,80.0
2298,F#3,98.75,0.25,63,80.0
2299,F#4,98.75,0.25,63,80.0
2300,F#1,98.75,0.25,63,80.0
2301,F#2,98.75,0.25,63,80.0
2302,F#2,99.0,0.5,95,80.0
2303,C#4,99.0,123/500,63,80.0
2304,F#4,99.0,123/500,63,80.0
2305,B-4,99.0,123/500,63,80.0
2306,B-3,99.0,0.25,63,80.0
2307,B-4,99.0,0.25,63,80.0
2308,F#3,99.0,0.25,63,80.0
2309,F#4,99.0,0.25,63,80.0
2310,C#3,99.0,0.25,63,80.0
2311,C#4,99.0,0.25,63,80.0
2312,F#1,99.0,1.0,63,80.0
2313,F#2,99.0,1.0,63,80.0
2314,G#2,99.0,0.25,95,80.0
2315,E2,99.0,0.25,95,80.0
2316,G#2,99.25,0.25,95,80.0
2317,B-4,99.25,123/500,63,80.0
2318,F#4,99.25,123/500,63,80.0
2319,C#4,99.25,123/500,63,80.0
2320,G#2,99.5,0.25,95,80.0
2321,F#2,99.5,0.25,95,80.0
2322,C#4,99.5,123/500,63,80.0
2323,F#4,99.5,123/500,63,80.0
2324,B-4,99.5,123/500,63,80.0
2325,C#2,99.75,1.0,95,80.0
2326,G#4,99.75,121/500,95,80.0
2327,F4,99.75,121/500,95,80.0
2328,C#4,99.75,121/500,95,80.0
2329,G#3,99.75,121/500,95,80.0
2330,C#3,99.75,121/500,95,80.0
2331,G#2,99.75,0.25,95,80.0
2332,C2,99.75,0.25,95,80.0
2333,G#3,100.0,1.0,95,80.0
2334,C#4,100.0,1.0,95,80.0
2335,G#2,100.0,0.25,95,80.0
2336,C#1,100.0,0.75,63,80.0
2337,C#2,100.0,0.75,63,80.0
2338,G#4,100.25,61/250,95,80.0
2339,F4,100.25,61/250,95,80.0
2340,C#4,100.25,61/250,95,80.0
2341,G#3,100.25,61/250,95,80.0
2342,G#2,100.25,0.25,95,80.0
2343,C2,100.25,0.25,95,80.0
2344,G#2,100.5,0.25,95,80.0
2345,B-3,100.5,1.25,63,80.0
2346,B-4,100.5,1.25,63,80.0
2347,F#3,100.5,1.25,63,80.0
2348,F#4,100.5,1.25,63,80.0
2349,C#3,100.5,1.25,63,80.0
2350,C#4,100.5,1.25,63,80.0
2351,C#2,100.75,0.25,95,80.0
2352,G#4,100.75,61/250,95,80.0
2353,F4,100.75,61/250,95,80.0
2354,C#4,100.75,61/250,95,80.0
2355,G#3,100.75,61/250,95,80.0
2356,C#1,100.75,0.25,63,80.0
2357,C#2,100.75,0.25,63,80.0
2358,G#2,100.75,0.25,95,80.0
2359,C2,100.75,0.25,95,80.0
2360,G#3,101.0,1.0,95,80.0
2361,C#4,101.0,1.0,95,80.0
2362,C#2,101.0,1.0,95,80.0
2363,G#3,101.0,61/250,95,80.0
2364,C#4,101.0,61/250,95,80.0
2365,F4,101.0,61/250,95,80.0
2366,G#4,101.0,61/250,95,80.0
2367,C#1,101.0,1.0,63,80.0
2368,C#2,101.0,1.0,63,80.0
2369,G#2,101.0,0.25,95,80.0
2370,E2,101.0,0.25,95,80.0
2371,G#2,101.25,0.25,95,80.0
2372,G#4,101.25,61/250,63,80.0
2373,F4,101.25,61/250,63,80.0
2374,C#4,101.25,61/250,63,80.0
2375,G#3,101.25,61/250,63,80.0
2376,G#2,101.5,0.25,95,80.0
2377,G#3,101.5,61/250,63,80.0
2378,C#4,101.5,61/250,63,80.0
2379,F4,101.5,61/250,63,80.0
2380,G#4,101.5,61/250,63,80.0
2381,G#4,101.75,61/250,63,80.0
2382,F4,101.75,61/250,63,80.0
2383,C#4,101.75,61/250,63,80.0
2384,G#3,101.75,61/250,63,80.0
2385,C#3,101.75,0.25,63,80.0
2386,C#4,101.75,0.25,63,80.0
2387,G#2,101.75,0.25,95,80.0
2388,C2,101.75,0.25,95,80.0
2389,A3,102.0,1.25,95,80.0
2390,C#4,102.0,1.25,95,80.0
2391,F#2,102.0,0.75,95,80.0
2392,F#3,102.0,61/250,95,80.0
2393,B3,102.0,61/250,95,80.0
2394,F#4,102.0,61/250,95,80.0
2395,B4,102.0,61/250,95,80.0
2396,G#3,102.0,0.25,63,80.0
2397,G#4,102.0,0.25,63,80.0
2398,B0,102.0,0.75,63,80.0
2399,B1,102.0,0.75,63,80.0
2400,G#2,102.0,0.25,95,80.0
2401,C2,102.0,0.25,95,80.0
2402,B-4,102.0,4.0,95,80.0
2403,F#4,102.0,4.0,95,80.0
2404,G#2,102.25,0.25,95,80.0
2405,B4,102.25,61/250,63,80.0
2406,F#4,102.25,61/250,63,80.0
2407,B3,102.25,61/250,63,80.0
2408,F#3,102.25,61/250,63,80.0
2409,B-3,102.25,1.5,63,80.0
2410,B-4,102.25,1.5,63,80.0
2411,F#3,102.25,1.5,63,80.0
2412,F#4,102.25,1.5,63,80.0
2413,C#3,102.25,1.5,63,80.0
2414,C#4,102.25,1.5,63,80.0
2415,G#2,102.5,0.25,95,80.0
2416,F#3,102.5,61/250,63,80.0
2417,B3,102.5,61/250,63,80.0
2418,F#4,102.5,61/250,63,80.0
2419,B4,102.5,61/250,63,80.0
2420,G#2,102.75,0.25,95,80.0
2421,F#2,102.75,0.25,95,80.0
2422,B4,102.75,61/250,63,80.0
2423,F#4,102.75,61/250,63,80.0
2424,B3,102.75,61/250,63,80.0
2425,F#3,102.75,61/250,63,80.0
2426,B0,102.75,0.25,63,80.0
2427,B1,102.75,0.25,63,80.0
2428,F#2,103.0,0.5,95,80.0
2429,F#3,103.0,61/250,63,80.0
2430,B3,103.0,61/250,63,80.0
2431,F#4,103.0,61/250,63,80.0
2432,B4,103.0,61/250,63,80.0
2433,B0,103.0,1.0,63,80.0
2434,B1,103.0,1.0,63,80.0
2435,G#2,103.0,0.25,95,80.0
2436,E2,103.0,0.25,95,80.0
2437,C#4,103.25,0.25,95,80.0
2438,F4,103.25,0.25,95,80.0
2439,G#2,103.25,0.25,95,80.0
2440,B4,103.25,61/250,63,80.0
2441,F#4,103.25,61/250,63,80.0
2442,B3,103.25,61/250,63,80.0
2443,F#3,103.25,61/250,63,80.0
2444,B3,103.5,0.25,95,80.0
2445,E-4,103.5,0.25,95,80.0
2446,G#2,103.5,0.25,95,80.0
2447,F#2,103.5,0.5,95,80.0
2448,F#3,103.5,61/250,63,80.0
2449,B3,103.5,61/250,63,80.0
2450,F#4,103.5,61/250,63,80.0
2451,B4,103.5,61/250,63,80.0
2452,B-3,103.75,0.25,95,80.0
2453,C#4,103.75,0.25,95,80.0
2454,B4,103.75,61/250,63,80.0
2455,F#4,103.75,61/250,63,80.0
2456,B3,103.75,61/250,63,80.0
2457,F#3,103.75,61/250,63,80.0
2458,C#3,103.75,0.25,63,80.0
2459,C#4,103.75,0.25,63,80.0
2460,G#2,103.75,0.25,95,80.0
2461,C2,103.75,0.25,95,80.0
2462,B-3,104.0,0.5,95,80.0
2463,C#4,104.0,0.5,95,80.0
2464,F#2,104.0,0.75,95,80.0
2465,B-3,104.0,0.5,63,80.0
2466,B-4,104.0,0.5,63,80.0
2467,F#3,104.0,0.5,63,80.0
2468,F#4,104.0,0.5,63,80.0
2469,F#1,104.0,0.75,63,80.0
2470,F#2,104.0,0.75,63,80.0
2471,G#2,104.0,0.25,95,80.0
2472,C2,104.0,0.25,95,80.0
2473,G#2,104.25,0.25,95,80.0
2474,B-4,104.25,123/500,95,80.0
2475,F#4,104.25,123/500,95,80.0
2476,C#4,104.25,123/500,95,80.0
2477,G#2,104.5,0.25,95,80.0
2478,F#3,104.5,0.5,63,80.0
2479,F#4,104.5,0.5,63,80.0
2480,G#2,104.75,0.25,95,80.0
2481,F#2,104.75,0.25,95,80.0
2482,B-4,104.75,123/500,63,80.0
2483,F#4,104.75,123/500,63,80.0
2484,C#4,104.75,123/500,63,80.0
2485,F#1,104.75,0.25,63,80.0
2486,F#2,104.75,0.25,63,80.0
2487,F#2,105.0,0.5,95,80.0
2488,C#4,105.0,123/500,63,80.0
2489,F#4,105.0,123/500,63,80.0
2490,B-4,105.0,123/500,63,80.0
2491,B-2,105.0,0.25,63,80.0
2492,B-3,105.0,0.25,63,80.0
2493,F#1,105.0,1.0,63,80.0
2494,F#2,105.0,1.0,63,80.0
2495,G#2,105.0,0.25,95,80.0
2496,E2,105.0,0.25,95,80.0
2497,G#2,105.25,0.25,95,80.0
2498,B-4,105.25,123/500,63,80.0
2499,F#4,105.25,123/500,63,80.0
2500,C#4,105.25,123/500,63,80.0
2501,F#3,105.25,0.5,63,80.0
2502,F#4,105.25,0.5,63,80.0
2503,G#2,105.5,0.25,95,80.0
2504,F#2,105.5,0.25,95,80.0
2505,C#4,105.5,123/500,63,80.0
2506,F#4,105.5,123/500,63,80.0
2507,B-4,105.5,123/500,63,80.0
2508,F#2,105.75,1.0,95,80.0
2509,B-4,105.75,123/500,63,80.0
2510,F#4,105.75,123/500,63,80.0
2511,C#4,105.75,123/500,63,80.0
2512,C#4,105.75,0.25,63,80.0
2513,C#5,105.75,0.25,63,80.0
2514,C#3,105.75,0.25,63,80.0
2515,C#4,105.75,0.25,63,80.0
2516,G#2,105.75,0.25,95,80.0
2517,C2,105.75,0.25,95,80.0
2518,G#2,106.0,0.25,95,80.0
2519,B-4,106.0,0.25,95,80.0
2520,F#4,106.0,0.25,95,80.0
2521,C#4,106.0,0.25,95,80.0
2522,F#3,106.0,0.25,95,80.0
2523,B3,106.0,0.25,63,80.0
2524,B4,106.0,0.25,63,80.0
2525,F#3,106.0,0.25,63,80.0
2526,F#4,106.0,0.25,63,80.0
2527,C#3,106.0,0.25,63,80.0
2528,C#4,106.0,0.25,63,80.0
2529,F#1,106.0,0.75,63,80.0
2530,F#2,106.0,0.75,63,80.0
2531,B-4,106.0,2.0,95,80.0
2532,F#4,106.0,2.0,95,80.0
2533,B-4,106.25,123/500,63,80.0
2534,F#4,106.25,123/500,63,80.0
2535,C#4,106.25,123/500,63,80.0
2536,B-3,106.25,1.5,63,80.0
2537,B-4,106.25,1.5,63,80.0
2538,E3,106.25,1.5,63,80.0
2539,E4,106.25,1.5,63,80.0
2540,C#3,106.25,1.5,63,80.0
2541,C#4,106.25,1.5,63,80.0
2542,G#2,106.25,0.25,95,80.0
2543,C2,106.25,0.25,95,80.0
2544,G#2,106.5,0.25,95,80.0
2545,B-4,106.5,0.25,63,80.0
2546,F#4,106.5,0.25,63,80.0
2547,C#4,106.5,0.25,63,80.0
2548,F#2,106.75,0.25,95,80.0
2549,B-4,106.75,123/500,63,80.0
2550,F#4,106.75,123/500,63,80.0
2551,C#4,106.75,123/500,63,80.0
2552,F#1,106.75,0.25,63,80.0
2553,F#2,106.75,0.25,63,80.0
2554,G#2,106.75,0.25,95,80.0
2555,C2,106.75,0.25,95,80.0
2556,F#2,107.0,1.0,95,80.0
2557,C#4,107.0,123/500,63,80.0
2558,F#4,107.0,123/500,63,80.0
2559,B-4,107.0,123/500,63,80.0
2560,F#1,107.0,1.0,63,80.0
2561,F#2,107.0,1.0,63,80.0
2562,G#2,107.0,0.25,95,80.0
2563,E2,107.0,0.25,95,80.0
2564,G#2,107.25,0.25,95,80.0
2565,B-4,107.25,123/500,63,80.0
2566,F#4,107.25,123/500,63,80.0
2567,C#4,107.25,123/500,63,80.0
2568,G#2,107.5,0.25,95,80.0
2569,C#4,107.5,123/500,63,80.0
2570,F#4,107.5,123/500,63,80.0
2571,B-4,107.5,123/500,63,80.0
2572,B-4,107.75,123/500,63,80.0
2573,F#4,107.75,123/500,63,80.0
2574,C#4,107.75,123/500,63,80.0
2575,C#4,107.75,0.25,63,80.0
2576,C#5,107.75,0.25,63,80.0
2577,G#2,107.75,0.25,95,80.0
2578,C2,107.75,0.25,95,80.0
2579,B3,108.0,0.5,95,80.0
2580,G#1,108.0,0.75,95,80.0
2581,G#2,108.0,6/25,95,80.0
2582,E-3,108.0,6/25,95,80.0
2583,G#3,108.0,6/25,95,80.0
2584,B3,108.0,6/25,95,80.0
2585,E-4,108.0,6/25,95,80.0
2586,G#4,108.0,6/25,95,80.0
2587,B3,108.0,0.25,63,80.0
2588,B4,108.0,0.25,63,80.0
2589,E3,108.0,0.25,63,80.0
2590,E4,108.0,0.25,63,80.0
2591,C#3,108.0,0.25,63,80.0
2592,C#4,108.0,0.25,63,80.0
2593,G#1,108.0,0.75,63,80.0
2594,G#2,108.0,0.75,63,80.0
2595,C#3,108.0,0.5,95,80.0
2596,C2,108.0,0.5,95,80.0
2597,B-4,108.0,2.0,95,80.0
2598,F#4,108.0,2.0,95,80.0
2599,G#4,108.25,121/500,63,80.0
2600,E-4,108.25,121/500,63,80.0
2601,B3,108.25,121/500,63,80.0
2602,G#3,108.25,121/500,63,80.0
2603,E-3,108.25,121/500,63,80.0
2604,B-3,108.25,0.25,63,80.0
2605,B-4,108.25,0.25,63,80.0
2606,E-3,108.25,0.25,63,80.0
2607,E-4,108.25,0.25,63,80.0
2608,C#3,108.25,0.25,63,80.0
2609,C#4,108.25,0.25,63,80.0
2610,C#4,108.5,0.25,95,80.0
2611,G#2,108.5,0.25,95,80.0
2612,E-3,108.5,121/500,63,80.0
2613,G#3,108.5,121/500,63,80.0
2614,B3,108.5,121/500,63,80.0
2615,E-4,108.5,121/500,63,80.0
2616,G#4,108.5,121/500,63,80.0
2617,C#4,108.75,0.5,95,80.0
2618,G#2,108.75,0.25,95,80.0
2619,G#1,108.75,0.25,95,80.0
2620,G#4,108.75,121/500,63,80.0
2621,E-4,108.75,121/500,63,80.0
2622,B3,108.75,121/500,63,80.0
2623,G#3,108.75,121/500,63,80.0
2624,E-3,108.75,121/500,63,80.0
2625,G#1,108.75,0.25,63,80.0
2626,G#2,108.75,0.25,63,80.0
2627,G#1,109.0,1.0,95,80.0
2628,E-3,109.0,121/500,63,80.0
2629,G#3,109.0,121/500,63,80.0
2630,B3,109.0,121/500,63,80.0
2631,E-4,109.0,121/500,63,80.0
2632,G#4,109.0,121/500,63,80.0
2633,B-3,109.0,0.5,63,80.0
2634,B-4,109.0,0.5,63,80.0
2635,E-3,109.0,0.5,63,80.0
2636,E-4,109.0,0.5,63,80.0
2637,C#3,109.0,0.5,63,80.0
2638,C#4,109.0,0.5,63,80.0
2639,G#1,109.0,1.0,63,80.0
2640,G#2,109.0,1.0,63,80.0
2641,G#2,109.0,0.25,95,80.0
2642,E2,109.0,0.25,95,80.0
2643,C#4,109.25,0.25,95,80.0
2644,G#2,109.25,0.25,95,80.0
2645,G#4,109.25,121/500,63,80.0
2646,E-4,109.25,121/500,63,80.0
2647,B3,109.25,121/500,63,80.0
2648,G#3,109.25,121/500,63,80.0
2649,E-3,109.25,121/500,63,80.0
2650,C#4,109.5,0.5,95,80.0
2651,G#2,109.5,0.25,95,80.0
2652,E-3,109.5,121/500,63,80.0
2653,G#3,109.5,121/500,63,80.0
2654,B3,109.5,121/500,63,80.0
2655,E-4,109.5,121/500,63,80.0
2656,G#4,109.5,121/500,63,80.0
2657,B-3,109.5,0.25,63,80.0
2658,B-4,109.5,0.25,63,80.0
2659,B-4,109.75,6/25,95,80.0
2660,F4,109.75,6/25,95,80.0
2661,C#4,109.75,6/25,95,80.0
2662,B-3,109.75,6/25,95,80.0
2663,F3,109.75,6/25,95,80.0
2664,B-2,109.75,6/25,95,80.0
2665,B-3,109.75,0.5,63,80.0
2666,B-4,109.75,0.5,63,80.0
2667,G#2,109.75,0.25,95,80.0
2668,C2,109.75,0.25,95,80.0
2669,C#4,110.0,0.25,95,80.0
2670,G#2,110.0,0.25,95,80.0
2671,B-1,110.0,0.75,95,80.0
2672,B-1,110.0,0.75,63,80.0
2673,B-2,110.0,0.75,63,80.0
2674,B-4,110.0,0.5,95,80.0
2675,F#4,110.0,0.5,95,80.0
2676,C#4,110.25,0.5,95,80.0
2677,B-4,110.25,121/500,95,80.0
2678,F4,110.25,121/500,95,80.0
2679,C#4,110.25,121/500,95,80.0
2680,B-3,110.25,121/500,95,80.0
2681,F3,110.25,121/500,95,80.0
2682,B3,110.25,0.25,63,80.0
2683,B4,110.25,0.25,63,80.0
2684,G#2,110.25,0.25,95,80.0
2685,C2,110.25,0.25,95,80.0
2686,G#2,110.5,0.25,95,80.0
2687,C#4,110.5,0.25,63,80.0
2688,C#5,110.5,0.25,63,80.0
2689,E-3,110.5,0.25,63,80.0
2690,E-4,110.5,0.25,63,80.0
2691,C#3,110.5,0.25,63,80.0
2692,C#4,110.5,0.25,63,80.0
2693,B-4,110.5,0.25,95,80.0
2694,F#4,110.5,0.25,95,80.0
2695,B-3,110.75,0.75,95,80.0
2696,B-1,110.75,0.25,95,80.0
2697,B-4,110.75,121/500,95,80.0
2698,F4,110.75,121/500,95,80.0
2699,C#4,110.75,121/500,95,80.0
2700,B-3,110.75,121/500,95,80.0
2701,F3,110.75,121/500,95,80.0
2702,D4,110.75,0.5,63,80.0
2703,D5,110.75,0.5,63,80.0
2704,F#3,110.75,0.5,63,80.0
2705,F#4,110.75,0.5,63,80.0
2706,D3,110.75,0.5,63,80.0
2707,D4,110.75,0.5,63,80.0
2708,B2,110.75,0.5,63,80.0
2709,B3,110.75,0.5,63,80.0
2710,B-1,110.75,0.25,63,80.0
2711,B-2,110.75,0.25,63,80.0
2712,G#2,110.75,0.25,95,80.0
2713,C2,110.75,0.25,95,80.0
2714,B-4,110.75,0.5,95,80.0
2715,F#4,110.75,0.5,95,80.0
2716,B-1,111.0,1.0,95,80.0
2717,F3,111.0,121/500,95,80.0
2718,B-3,111.0,121/500,95,80.0
2719,C#4,111.0,121/500,95,80.0
2720,F4,111.0,121/500,95,80.0
2721,B-4,111.0,121/500,95,80.0
2722,B-1,111.0,1.0,63,80.0
2723,B-2,111.0,1.0,63,80.0
2724,G#2,111.0,0.5,95,80.0
2725,E2,111.0,0.5,95,80.0
2726,B-4,111.25,121/500,63,80.0
2727,F4,111.25,121/500,63,80.0
2728,C#4,111.25,121/500,63,80.0
2729,B-3,111.25,121/500,63,80.0
2730,F3,111.25,121/500,63,80.0
2731,B-3,111.25,0.5,63,80.0
2732,B-4,111.25,0.5,63,80.0
2733,F#3,111.25,0.5,63,80.0
2734,F#4,111.25,0.5,63,80.0
2735,D3,111.25,0.5,63,80.0
2736,D4,111.25,0.5,63,80.0
2737,B2,111.25,0.5,63,80.0
2738,B3,111.25,0.5,63,80.0
2739,B4,111.25,0.25,95,80.0
2740,G#4,111.25,0.25,95,80.0
2741,F3,111.5,121/500,63,80.0
2742,B-3,111.5,121/500,63,80.0
2743,C#4,111.5,121/500,63,80.0
2744,F4,111.5,121/500,63,80.0
2745,B-4,111.5,121/500,63,80.0
2746,B-2,111.5,0.5,95,80.0
2747,C2,111.5,0.5,95,80.0
2748,C#5,111.5,0.25,95,80.0
2749,G#4,111.5,0.25,95,80.0
2750,B-4,111.75,121/500,63,80.0
2751,F4,111.75,121/500,63,80.0
2752,C#4,111.75,121/500,63,80.0
2753,B-3,111.75,121/500,63,80.0
2754,F3,111.75,121/500,63,80.0
2755,G#3,111.75,0.5,63,80.0
2756,G#4,111.75,0.5,63,80.0
2757,D5,111.75,0.5,95,80.0
2758,B4,111.75,0.5,95,80.0
2759,B3,112.0,0.5,95,80.0
2760,B1,112.0,0.75,95,80.0
2761,B2,112.0,6/25,95,80.0
2762,E-3,112.0,6/25,95,80.0
2763,F#3,112.0,6/25,95,80.0
2764,B3,112.0,6/25,95,80.0
2765,F#4,112.0,6/25,95,80.0
2766,B4,112.0,6/25,95,80.0
2767,B1,112.0,0.75,63,80.0
2768,B2,112.0,0.75,63,80.0
2769,G#2,112.0,0.25,95,80.0
2770,C2,112.0,0.25,95,80.0
2771,G#2,112.25,0.25,95,80.0
2772,B4,112.25,121/500,63,80.0
2773,F#4,112.25,121/500,63,80.0
2774,B3,112.25,121/500,63,80.0
2775,F#3,112.25,121/500,63,80.0
2776,E-3,112.25,121/500,63,80.0
2777,B2,112.25,0.25,63,80.0
2778,B3,112.25,0.25,63,80.0
2779,B-4,112.25,0.5,95,80.0
2780,F#4,112.25,0.5,95,80.0
2781,C#4,112.5,0.25,95,80.0
2782,G#2,112.5,0.25,95,80.0
2783,E-3,112.5,121/500,63,80.0
2784,F#3,112.5,121/500,63,80.0
2785,B3,112.5,121/500,63,80.0
2786,F#4,112.5,121/500,63,80.0
2787,B4,112.5,121/500,63,80.0
2788,G#3,112.5,0.5,63,80.0
2789,G#4,112.5,0.5,63,80.0
2790,F#3,112.5,0.5,63,80.0
2791,F#4,112.5,0.5,63,80.0
2792,E-3,112.5,0.5,63,80.0
2793,E-4,112.5,0.5,63,80.0
2794,C#4,112.75,0.5,95,80.0
2795,G#2,112.75,0.25,95,80.0
2796,B1,112.75,0.25,95,80.0
2797,B4,112.75,121/500,63,80.0
2798,F#4,112.75,121/500,63,80.0
2799,B3,112.75,121/500,63,80.0
2800,F#3,112.75,121/500,63,80.0
2801,E-3,112.75,121/500,63,80.0
2802,B1,112.75,0.25,63,80.0
2803,B2,112.75,0.25,63,80.0
2804,G#4,112.75,0.5,95,80.0
2805,F#4,112.75,0.5,95,80.0
2806,B1,113.0,1.0,95,80.0
2807,E-3,113.0,121/500,63,80.0
2808,F#3,113.0,121/500,63,80.0
2809,B3,113.0,121/500,63,80.0
2810,F#4,113.0,121/500,63,80.0
2811,B4,113.0,121/500,63,80.0
2812,B-3,113.0,1.25,63,80.0
2813,B-4,113.0,1.25,63,80.0
2814,F#3,113.0,1.25,63,80.0
2815,F#4,113.0,1.25,63,80.0
2816,C#3,113.0,1.25,63,80.0
2817,C#4,113.0,1.25,63,80.0
2818,B1,113.0,1.0,63,80.0
2819,B2,113.0,1.0,63,80.0
2820,G#2,113.0,0.25,95,80.0
2821,E2,113.0,0.25,95,80.0
2822,C#4,113.25,0.5,95,80.0
2823,G#2,113.25,0.25,95,80.0
2824,B4,113.25,121/500,63,80.0
2825,F#4,113.25,121/500,63,80.0
2826,B3,113.25,121/500,63,80.0
2827,F#3,113.25,121/500,63,80.0
2828,E-3,113.25,121/500,63,80.0
2829,G#4,113.25,0.5,95,80.0
2830,F#4,113.25,0.5,95,80.0
2831,G#2,113.5,0.25,95,80.0
2832,E-3,113.5,121/500,63,80.0
2833,F#3,113.5,121/500,63,80.0
2834,B3,113.5,121/500,63,80.0
2835,F#4,113.5,121/500,63,80.0
2836,B4,113.5,121/500,63,80.0
2837,C#4,113.75,0.5,95,80.0
2838,G#4,113.75,121/500,95,80.0
2839,F4,113.75,121/500,95,80.0
2840,C#4,113.75,121/500,95,80.0
2841,G#3,113.75,121/500,95,80.0
2842,C#3,113.75,121/500,95,80.0
2843,G#2,113.75,0.25,95,80.0
2844,C2,113.75,0.25,95,80.0
2845,G#4,113.75,0.25,95,80.0
2846,F#4,113.75,0.25,95,80.0
2847,G#2,114.0,0.25,95,80.0
2848,C#2,114.0,0.75,95,80.0
2849,C#2,114.0,0.75,63,80.0
2850,C#3,114.0,0.75,63,80.0
2851,B-4,114.0,2.0,95,80.0
2852,F#4,114.0,2.0,95,80.0
2853,C#4,114.25,0.5,95,80.0
2854,G#4,114.25,61/250,95,80.0
2855,F4,114.25,61/250,95,80.0
2856,C#4,114.25,61/250,95,80.0
2857,G#3,114.25,61/250,95,80.0
2858,C#3,114.25,0.25,63,80.0
2859,C#4,114.25,0.25,63,80.0
2860,G#2,114.25,0.25,95,80.0
2861,C2,114.25,0.25,95,80.0
2862,G#2,114.5,0.25,95,80.0
2863,B-3,114.5,0.25,63,80.0
2864,B-4,114.5,0.25,63,80.0
2865,F#3,114.5,0.25,63,80.0
2866,F#4,114.5,0.25,63,80.0
2867,B-3,114.75,0.75,95,80.0
2868,C#2,114.75,0.25,95,80.0
2869,G#4,114.75,61/250,95,80.0
2870,F4,114.75,61/250,95,80.0
2871,C#4,114.75,61/250,95,80.0
2872,G#3,114.75,61/250,95,80.0
2873,G#3,114.75,1.5,63,80.0
2874,G#4,114.75,1.5,63,80.0
2875,F3,114.75,1.5,63,80.0
2876,F4,114.75,1.5,63,80.0
2877,C#3,114.75,1.5,63,80.0
2878,C#4,114.75,1.5,63,80.0
2879,C#2,114.75,0.25,63,80.0
2880,C#3,114.75,0.25,63,80.0
2881,G#2,114.75,0.25,95,80.0
2882,C2,114.75,0.25,95,80.0
2883,C#2,115.0,1.0,95,80.0
2884,G#3,115.0,61/250,95,80.0
2885,C#4,115.0,61/250,95,80.0
2886,F4,115.0,61/250,95,80.0
2887,G#4,115.0,61/250,95,80.0
2888,C#2,115.0,1.0,63,80.0
2889,C#3,115.0,1.0,63,80.0
2890,G#2,115.0,0.5,95,80.0
2891,E2,115.0,0.5,95,80.0
2892,G#4,115.25,61/250,63,80.0
2893,F4,115.25,61/250,63,80.0
2894,C#4,115.25,61/250,63,80.0
2895,G#3,115.25,61/250,63,80.0
2896,G#3,115.5,61/250,63,80.0
2897,C#4,115.5,61/250,63,80.0
2898,F4,115.5,61/250,63,80.0
2899,G#4,115.5,61/250,63,80.0
2900,B-2,115.5,0.5,95,80.0
2901,C2,115.5,0.5,95,80.0
2902,G#4,115.75,61/250,63,80.0
2903,F4,115.75,61/250,63,80.0
2904,C#4,115.75,61/250,63,80.0
2905,G#3,115.75,61/250,63,80.0
2906,B3,116.0,0.5,95,80.0
2907,E-2,116.0,0.75,95,80.0
2908,E-3,116.0,121/500,95,80.0
2909,G#3,116.0,121/500,95,80.0
2910,B3,116.0,121/500,95,80.0
2911,E-4,116.0,121/500,95,80.0
2912,G#4,116.0,121/500,95,80.0
2913,E-2,116.0,0.75,63,80.0
2914,E-3,116.0,0.75,63,80.0
2915,G#2,116.0,0.25,95,80.0
2916,C2,116.0,0.25,95,80.0
2917,G#4,116.0,1.0,95,80.0
2918,C#4,116.0,1.0,95,80.0
2919,G#2,116.25,0.25,95,80.0
2920,G#4,116.25,121/500,63,80.0
2921,E-4,116.25,121/500,63,80.0
2922,B3,116.25,121/500,63,80.0
2923,G#3,116.25,121/500,63,80.0
2924,E-3,116.25,121/500,63,80.0
2925,C#3,116.25,0.25,63,80.0
2926,C#4,116.25,0.25,63,80.0
2927,C#4,116.5,0.25,95,80.0
2928,G#2,116.5,0.25,95,80.0
2929,E-3,116.5,121/500,63,80.0
2930,G#3,116.5,121/500,63,80.0
2931,B3,116.5,121/500,63,80.0
2932,E-4,116.5,121/500,63,80.0
2933,G#4,116.5,121/500,63,80.0
2934,G#3,116.5,0.25,63,80.0
2935,G#4,116.5,0.25,63,80.0
2936,F3,116.5,0.25,63,80.0
2937,F4,116.5,0.25,63,80.0
2938,C#4,116.75,0.5,95,80.0
2939,G#2,116.75,0.25,95,80.0
2940,E-2,116.75,0.25,95,80.0
2941,G#4,116.75,121/500,63,80.0
2942,E-4,116.75,121/500,63,80.0
2943,B3,116.75,121/500,63,80.0
2944,G#3,116.75,121/500,63,80.0
2945,E-3,116.75,121/500,63,80.0
2946,B3,116.75,0.25,63,80.0
2947,B4,116.75,0.25,63,80.0
2948,F#3,116.75,0.25,63,80.0
2949,F#4,116.75,0.25,63,80.0
2950,E-3,116.75,0.25,63,80.0
2951,E-4,116.75,0.25,63,80.0
2952,E-2,116.75,0.25,63,80.0
2953,E-3,116.75,0.25,63,80.0
2954,E-2,117.0,1.0,95,80.0
2955,E-3,117.0,121/500,63,80.0
2956,G#3,117.0,121/500,63,80.0
2957,B3,117.0,121/500,63,80.0
2958,E-4,117.0,121/500,63,80.0
2959,G#4,117.0,121/500,63,80.0
2960,E-2,117.0,1.0,63,80.0
2961,E-3,117.0,1.0,63,80.0
2962,G#2,117.0,0.25,95,80.0
2963,E2,117.0,0.25,95,80.0
2964,C#5,117.0,1.0,95,80.0
2965,C#4,117.0,1.0,95,80.0
2966,C#4,117.25,0.5,95,80.0
2967,G#2,117.25,0.25,95,80.0
2968,G#4,117.25,121/500,63,80.0
2969,E-4,117.25,121/500,63,80.0
2970,B3,117.25,121/500,63,80.0
2971,G#3,117.25,121/500,63,80.0
2972,E-3,117.25,121/500,63,80.0
2973,G#2,117.5,0.25,95,80.0
2974,E-3,117.5,121/500,63,80.0
2975,G#3,117.5,121/500,63,80.0
2976,B3,117.5,121/500,63,80.0
2977,E-4,117.5,121/500,63,80.0
2978,G#4,117.5,121/500,63,80.0
2979,C#4,117.75,0.5,95,80.0
2980,B-4,117.75,121/500,95,80.0
2981,F4,117.75,121/500,95,80.0
2982,C#4,117.75,121/500,95,80.0
2983,B-3,117.75,121/500,95,80.0
2984,F3,117.75,121/500,95,80.0
2985,G#2,117.75,0.25,95,80.0
2986,C2,117.75,0.25,95,80.0
2987,G#2,118.0,0.25,95,80.0
2988,F2,118.0,0.75,95,80.0
2989,F2,118.0,0.75,63,80.0
2990,F3,118.0,0.75,63,80.0
2991,E-5,118.0,1.75,95,80.0
2992,B4,118.0,1.75,95,80.0
2993,C#4,118.25,0.5,95,80.0
2994,B-4,118.25,121/500,95,80.0
2995,F4,118.25,121/500,95,80.0
2996,C#4,118.25,121/500,95,80.0
2997,B-3,118.25,121/500,95,80.0
2998,F3,118.25,121/500,95,80.0
2999,B3,118.25,1.25,63,80.0
3000,B4,118.25,1.25,63,80.0
3001,F#3,118.25,1.25,63,80.0
3002,F#4,118.25,1.25,63,80.0
3003,E-3,118.25,1.25,63,80.0
3004,E-4,118.25,1.25,63,80.0
3005,G#2,118.25,0.25,95,80.0
3006,C2,118.25,0.25,95,80.0
3007,G#2,118.5,0.25,95,80.0
3008,E-4,118.75,0.5,95,80.0
3009,F2,118.75,0.25,95,80.0
3010,B-4,118.75,121/500,95,80.0
3011,F4,118.75,121/500,95,80.0
3012,C#4,118.75,121/500,95,80.0
3013,B-3,118.75,121/500,95,80.0
3014,F3,118.75,121/500,95,80.0
3015,F2,118.75,0.25,63,80.0
3016,F3,118.75,0.25,63,80.0
3017,G#2,118.75,0.25,95,80.0
3018,C2,118.75,0.25,95,80.0
3019,F2,119.0,1.0,95,80.0
3020,F3,119.0,121/500,95,80.0
3021,B-3,119.0,121/500,95,80.0
3022,C#4,119.0,121/500,95,80.0
3023,F4,119.0,121/500,95,80.0
3024,B-4,119.0,121/500,95,80.0
3025,F2,119.0,1.0,63,80.0
3026,F3,119.0,1.0,63,80.0
3027,G#2,119.0,0.5,95,80.0
3028,E2,119.0,0.5,95,80.0
3029,B-3,119.25,0.5,95,80.0
3030,B-4,119.25,121/500,63,80.0
3031,F4,119.25,121/500,63,80.0
3032,C#4,119.25,121/500,63,80.0
3033,B-3,119.25,121/500,63,80.0
3034,F3,119.25,121/500,63,80.0
3035,F3,119.5,121/500,63,80.0
3036,B-3,119.5,121/500,63,80.0
3037,C#4,119.5,121/500,63,80.0
3038,F4,119.5,121/500,63,80.0
3039,B-4,119.5,121/500,63,80.0
3040,E-3,119.5,0.25,63,80.0
3041,E-4,119.5,0.25,63,80.0
3042,B-2,119.5,0.5,95,80.0
3043,C2,119.5,0.5,95,80.0
3044,B3,119.75,0.25,95,80.0
3045,B-4,119.75,121/500,63,80.0
3046,F4,119.75,121/500,63,80.0
3047,C#4,119.75,121/500,63,80.0
3048,B-3,119.75,121/500,63,80.0
3049,F3,119.75,121/500,63,80.0
3050,B3,119.75,0.25,63,80.0
3051,B4,119.75,0.25,63,80.0
3052,F#3,119.75,0.25,63,80.0
3053,F#4,119.75,0.25,63,80.0
3054,B-4,119.75,0.25,95,80.0
3055,F#4,119.75,0.25,95,80.0
3056,B3,120.0,0.25,95,80.0
3057,F#2,120.0,0.75,95,80.0
3058,F#3,120.0,61/250,95,80.0
3059,B3,120.0,61/250,95,80.0
3060,E-4,120.0,61/250,95,80.0
3061,B4,120.0,61/250,95,80.0
3062,B-3,120.0,0.25,63,80.0
3063,B-4,120.0,0.25,63,80.0
3064,F#3,120.0,0.25,63,80.0
3065,F#4,120.0,0.25,63,80.0
3066,C#3,120.0,0.25,63,80.0
3067,C#4,120.0,0.25,63,80.0
3068,F#2,120.0,0.75,63,80.0
3069,F#3,120.0,0.75,63,80.0
3070,G#2,120.0,0.25,95,80.0
3071,C2,120.0,0.25,95,80.0
3072,C#4,120.25,0.5,95,80.0
3073,G#2,120.25,0.25,95,80.0
3074,B4,120.25,61/250,63,80.0
3075,E-4,120.25,61/250,63,80.0
3076,B3,120.25,61/250,63,80.0
3077,F#3,120.25,61/250,63,80.0
3078,G#2,120.5,0.25,95,80.0
3079,F#3,120.5,61/250,63,80.0
3080,B3,120.5,61/250,63,80.0
3081,E-4,120.5,61/250,63,80.0
3082,B4,120.5,61/250,63,80.0
3083,C#4,120.75,0.5,95,80.0
3084,G#2,120.75,0.25,95,80.0
3085,F#2,120.75,0.25,95,80.0
3086,B4,120.75,61/250,63,80.0
3087,E-4,120.75,61/250,63,80.0
3088,B3,120.75,61/250,63,80.0
3089,F#3,120.75,61/250,63,80.0
3090,F#2,120.75,0.25,63,80.0
3091,F#3,120.75,0.25,63,80.0
3092,F#2,121.0,1.0,95,80.0
3093,F#3,121.0,61/250,63,80.0
3094,B3,121.0,61/250,63,80.0
3095,E-4,121.0,61/250,63,80.0
3096,B4,121.0,61/250,63,80.0
3097,F#2,121.0,1.0,63,80.0
3098,F#3,121.0,1.0,63,80.0
3099,G#2,121.0,0.25,95,80.0
3100,E2,121.0,0.25,95,80.0
3101,C#4,121.25,0.5,95,80.0
3102,G#2,121.25,0.25,95,80.0
3103,B4,121.25,61/250,63,80.0
3104,E-4,121.25,61/250,63,80.0
3105,B3,121.25,61/250,63,80.0
3106,F#3,121.25,61/250,63,80.0
3107,G#2,121.5,0.25,95,80.0
3108,F#3,121.5,61/250,63,80.0
3109,B3,121.5,61/250,63,80.0
3110,E-4,121.5,61/250,63,80.0
3111,B4,121.5,61/250,63,80.0
3112,B-3,121.5,1.25,63,80.0
3113,B-4,121.5,1.25,63,80.0
3114,F#3,121.5,1.25,63,80.0
3115,F#4,121.5,1.25,63,80.0
3116,C#3,121.5,1.25,63,80.0
3117,C#4,121.5,1.25,63,80.0
3118,C#4,121.75,0.5,95,80.0
3119,G#4,121.75,61/250,95,80.0
3120,F4,121.75,61/250,95,80.0
3121,C#4,121.75,61/250,95,80.0
3122,G#3,121.75,61/250,95,80.0
3123,G#2,121.75,0.25,95,80.0
3124,C2,121.75,0.25,95,80.0
3125,G#2,122.0,0.25,95,80.0
3126,G#2,122.0,0.75,95,80.0
3127,F#1,122.0,0.75,63,80.0
3128,F#2,122.0,0.75,63,80.0
3129,C#4,122.25,0.25,95,80.0
3130,G#4,122.25,61/250,95,80.0
3131,F4,122.25,61/250,95,80.0
3132,C#4,122.25,61/250,95,80.0
3133,G#3,122.25,61/250,95,80.0
3134,G#2,122.25,0.25,95,80.0
3135,C2,122.25,0.25,95,80.0
3136,E-4,122.5,0.5,95,80.0
3137,G#2,122.5,0.25,95,80.0
3138,G#2,122.75,0.25,95,80.0
3139,G#4,122.75,61/250,95,80.0
3140,F4,122.75,61/250,95,80.0
3141,C#4,122.75,61/250,95,80.0
3142,G#3,122.75,61/250,95,80.0
3143,C#3,122.75,0.25,63,80.0
3144,C#4,122.75,0.25,63,80.0
3145,F#1,122.75,0.25,63,80.0
3146,F#2,122.75,0.25,63,80.0
3147,G#2,122.75,0.25,95,80.0
3148,C2,122.75,0.25,95,80.0
3149,G#3,123.0,0.5,95,80.0
3150,E2,123.0,0.25,95,80.0
3151,G#2,123.0,1.0,95,80.0
3152,G#3,123.0,61/250,95,80.0
3153,C#4,123.0,61/250,95,80.0
3154,F4,123.0,61/250,95,80.0
3155,G#4,123.0,61/250,95,80.0
3156,G#3,123.0,0.25,63,80.0
3157,G#4,123.0,0.25,63,80.0
3158,G#1,123.0,1.0,63,80.0
3159,G#2,123.0,1.0,63,80.0
3160,E2,123.25,0.125,95,80.0
3161,G#4,123.25,61/250,63,80.0
3162,F4,123.25,61/250,63,80.0
3163,C#4,123.25,61/250,63,80.0
3164,G#3,123.25,61/250,63,80.0
3165,B-3,123.25,1.5,63,80.0
3166,B-4,123.25,1.5,63,80.0
3167,F#3,123.25,1.5,63,80.0
3168,F#4,123.25,1.5,63,80.0
3169,C#3,123.25,1.5,63,80.0
3170,C#4,123.25,1.5,63,80.0
3171,E2,123.375,31/250,95,80.0
3172,E2,123.5,0.25,95,80.0
3173,G#3,123.5,61/250,63,80.0
3174,C#4,123.5,61/250,63,80.0
3175,F4,123.5,61/250,63,80.0
3176,G#4,123.5,61/250,63,80.0
3177,E2,123.75,0.25,95,80.0
3178,G#4,123.75,61/250,63,80.0
3179,F4,123.75,61/250,63,80.0
3180,C#4,123.75,61/250,63,80.0
3181,G#3,123.75,61/250,63,80.0
3182,B3,124.0,2.0,95,80.0
3183,G#4,124.0,2.0,95,80.0
3184,C#2,124.0,0.75,95,80.0
3185,F#3,124.0,61/250,95,80.0
3186,C#4,124.0,61/250,95,80.0
3187,F#4,124.0,61/250,95,80.0
3188,C#5,124.0,61/250,95,80.0
3189,F#1,124.0,0.75,63,80.0
3190,F#2,124.0,0.75,63,80.0
3191,G#2,124.0,0.25,95,80.0
3192,C2,124.0,0.25,95,80.0
3193,B-4,124.0,4.0,95,80.0
3194,F#4,124.0,4.0,95,80.0
3195,G#2,124.25,0.25,95,80.0
3196,C#5,124.25,123/500,63,80.0
3197,F#4,124.25,123/500,63,80.0
3198,C#4,124.25,123/500,63,80.0
3199,G#2,124.5,0.25,95,80.0
3200,C#4,124.5,123/500,63,80.0
3201,F#4,124.5,123/500,63,80.0
3202,C#5,124.5,123/500,63,80.0
3203,G#2,124.75,0.25,95,80.0
3204,C#2,124.75,0.25,95,80.0
3205,C#5,124.75,123/500,63,80.0
3206,F#4,124.75,123/500,63,80.0
3207,C#4,124.75,123/500,63,80.0
3208,C#3,124.75,0.25,63,80.0
3209,C#4,124.75,0.25,63,80.0
3210,F#1,124.75,0.25,63,80.0
3211,F#2,124.75,0.25,63,80.0
3212,C#2,125.0,1.0,95,80.0
3213,C#4,125.0,123/500,63,80.0
3214,F#4,125.0,123/500,63,80.0
3215,C#5,125.0,123/500,63,80.0
3216,B-3,125.0,0.5,63,80.0
3217,B-4,125.0,0.5,63,80.0
3218,F#3,125.0,0.5,63,80.0
3219,F#4,125.0,0.5,63,80.0
3220,F#1,125.0,1.0,63,80.0
3221,F#2,125.0,1.0,63,80.0
3222,G#2,125.0,0.25,95,80.0
3223,E2,125.0,0.25,95,80.0
3224,G#2,125.25,0.25,95,80.0
3225,C#5,125.25,123/500,63,80.0
3226,F#4,125.25,123/500,63,80.0
3227,C#4,125.25,123/500,63,80.0
3228,G#2,125.5,0.25,95,80.0
3229,C#4,125.5,123/500,63,80.0
3230,F#4,125.5,123/500,63,80.0
3231,C#5,125.5,123/500,63,80.0
3232,G#3,125.5,1.25,63,80.0
3233,G#4,125.5,1.25,63,80.0
3234,E-3,125.5,1.25,63,80.0
3235,E-4,125.5,1.25,63,80.0
3236,B2,125.5,1.25,63,80.0
3237,B3,125.5,1.25,63,80.0
3238,C5,125.75,6/25,95,80.0
3239,F#4,125.75,6/25,95,80.0
3240,C4,125.75,6/25,95,80.0
3241,G#3,125.75,6/25,95,80.0
3242,E-3,125.75,6/25,95,80.0
3243,G#2,125.75,6/25,95,80.0
3244,G#2,125.75,0.25,95,80.0
3245,C2,125.75,0.25,95,80.0
3246,B-3,126.0,1.0,95,80.0
3247,F#4,126.0,2.0,95,80.0
3248,G#2,126.0,0.25,95,80.0
3249,G#1,126.0,0.75,95,80.0
3250,G#1,126.0,0.75,63,80.0
3251,G#2,126.0,0.75,63,80.0
3252,C5,126.25,121/500,95,80.0
3253,F#4,126.25,121/500,95,80.0
3254,C4,126.25,121/500,95,80.0
3255,G#3,126.25,121/500,95,80.0
3256,E-3,126.25,121/500,95,80.0
3257,G#2,126.25,0.25,95,80.0
3258,C2,126.25,0.25,95,80.0
3259,G#2,126.5,0.25,95,80.0
3260,G#1,126.75,0.25,95,80.0
3261,C5,126.75,121/500,95,80.0
3262,F#4,126.75,121/500,95,80.0
3263,C4,126.75,121/500,95,80.0
3264,G#3,126.75,121/500,95,80.0
3265,E-3,126.75,121/500,95,80.0
3266,B2,126.75,0.25,63,80.0
3267,B3,126.75,0.25,63,80.0
3268,G#1,126.75,0.25,63,80.0
3269,G#2,126.75,0.25,63,80.0
3270,G#2,126.75,0.25,95,80.0
3271,C2,126.75,0.25,95,80.0
3272,F#3,127.0,1.0,95,80.0
3273,G#1,127.0,1.0,95,80.0
3274,E-3,127.0,121/500,95,80.0
3275,G#3,127.0,121/500,95,80.0
3276,C4,127.0,121/500,95,80.0
3277,F#4,127.0,121/500,95,80.0
3278,C5,127.0,121/500,95,80.0
3279,G#3,127.0,0.25,63,80.0
3280,G#4,127.0,0.25,63,80.0
3281,E-3,127.0,0.25,63,80.0
3282,E-4,127.0,0.25,63,80.0
3283,G#1,127.0,1.0,63,80.0
3284,G#2,127.0,1.0,63,80.0
3285,G#2,127.0,0.5,95,80.0
3286,E2,127.0,0.5,95,80.0
3287,C5,127.25,121/500,63,80.0
3288,F#4,127.25,121/500,63,80.0
3289,C4,127.25,121/500,63,80.0
3290,G#3,127.25,121/500,63,80.0
3291,E-3,127.25,121/500,63,80.0
3292,B-3,127.25,1.5,63,80.0
3293,B-4,127.25,1.5,63,80.0
3294,F#3,127.25,1.5,63,80.0
3295,F#4,127.25,1.5,63,80.0
3296,C#3,127.25,1.5,63,80.0
3297,C#4,127.25,1.5,63,80.0
3298,E-3,127.5,121/500,63,80.0
3299,G#3,127.5,121/500,63,80.0
3300,C4,127.5,121/500,63,80.0
3301,F#4,127.5,121/500,63,80.0
3302,C5,127.5,121/500,63,80.0
3303,B-2,127.5,0.5,95,80.0
3304,C2,127.5,0.5,95,80.0
3305,C5,127.75,121/500,63,80.0
3306,F#4,127.75,121/500,63,80.0
3307,C4,127.75,121/500,63,80.0
3308,G#3,127.75,121/500,63,80.0
3309,E-3,127.75,121/500,63,80.0
3310,A3,128.0,2.0,95,80.0
3311,F#4,128.0,2.0,95,80.0
3312,C#2,128.0,0.75,95,80.0
3313,F#4,128.0,2.0,95,80.0
3314,F#3,128.0,61/250,95,80.0
3315,B3,128.0,61/250,95,80.0
3316,E-4,128.0,61/250,95,80.0
3317,B4,128.0,61/250,95,80.0
3318,C#1,128.0,0.75,63,80.0
3319,C#2,128.0,0.75,63,80.0
3320,G#2,128.0,0.25,95,80.0
3321,C2,128.0,0.25,95,80.0
3322,G#2,128.25,0.25,95,80.0
3323,B4,128.25,61/250,63,80.0
3324,E-4,128.25,61/250,63,80.0
3325,B3,128.25,61/250,63,80.0
3326,F#3,128.25,61/250,63,80.0
3327,G#2,128.5,0.25,95,80.0
3328,F#3,128.5,61/250,63,80.0
3329,B3,128.5,61/250,63,80.0
3330,E-4,128.5,61/250,63,80.0
3331,B4,128.5,61/250,63,80.0
3332,G#2,128.75,0.25,95,80.0
3333,C#2,128.75,0.25,95,80.0
3334,B4,128.75,61/250,63,80.0
3335,E-4,128.75,61/250,63,80.0
3336,B3,128.75,61/250,63,80.0
3337,F#3,128.75,61/250,63,80.0
3338,C#3,128.75,0.25,63,80.0
3339,C#4,128.75,0.25,63,80.0
3340,C#1,128.75,0.25,63,80.0
3341,C#2,128.75,0.25,63,80.0
3342,C#2,129.0,1.0,95,80.0
3343,F#3,129.0,61/250,63,80.0
3344,B3,129.0,61/250,63,80.0
3345,E-4,129.0,61/250,63,80.0
3346,B4,129.0,61/250,63,80.0
3347,B-3,129.0,0.25,63,80.0
3348,B-4,129.0,0.25,63,80.0
3349,F#3,129.0,0.25,63,80.0
3350,F#4,129.0,0.25,63,80.0
3351,C#1,129.0,1.0,63,80.0
3352,C#2,129.0,1.0,63,80.0
3353,G#2,129.0,0.25,95,80.0
3354,E2,129.0,0.25,95,80.0
3355,G#2,129.25,0.25,95,80.0
3356,B4,129.25,61/250,63,80.0
3357,E-4,129.25,61/250,63,80.0
3358,B3,129.25,61/250,63,80.0
3359,F#3,129.25,61/250,63,80.0
3360,B3,129.25,0.25,63,80.0
3361,B4,129.25,0.25,63,80.0
3362,F#3,129.25,0.25,63,80.0
3363,F#4,129.25,0.25,63,80.0
3364,E-3,129.25,0.25,63,80.0
3365,E-4,129.25,0.25,63,80.0
3366,G#2,129.5,0.25,95,80.0
3367,F#3,129.5,61/250,63,80.0
3368,B3,129.5,61/250,63,80.0
3369,E-4,129.5,61/250,63,80.0
3370,B4,129.5,61/250,63,80.0
3371,B4,129.75,61/250,63,80.0
3372,E-4,129.75,61/250,63,80.0
3373,B3,129.75,61/250,63,80.0
3374,F#3,129.75,61/250,63,80.0
3375,G#2,129.75,0.25,95,80.0
3376,C2,129.75,0.25,95,80.0
3377,B3,130.0,1.0,95,80.0
3378,F#4,130.0,1.0,95,80.0
3379,C#3,130.0,2.0,95,80.0
3380,C#2,130.0,4.0,95,80.0
3381,G#4,130.0,2.0,95,80.0
3382,C#3,130.0,3.969,95,80.0
3383,G#3,130.0,3.969,95,80.0
3384,C#1,130.0,2.0,63,80.0
3385,C#2,130.0,2.0,63,80.0
3386,B3,130.062,3.906,95,80.0
3387,F4,130.062,3.906,95,80.0
3388,B4,130.125,3.875,95,80.0
3389,B3,130.75,1.25,63,80.0
3390,B4,130.75,1.25,63,80.0
3391,F#3,130.75,1.25,63,80.0
3392,F#4,130.75,1.25,63,80.0
3393,E-3,130.75,1.25,63,80.0
3394,E-4,130.75,1.25,63,80.0
3395,C#3,132.0,0.25,95,80.0
3396,A4,132.0,2.0,95,80.0
3397,E-3,132.0,0.25,63,80.0
3398,E-4,132.0,0.25,63,80.0
3399,A2,132.25,0.5,95,80.0
3400,B3,132.25,0.25,63,80.0
3401,B4,132.25,0.25,63,80.0
3402,F#3,132.25,0.25,63,80.0
3403,F#4,132.25,0.25,63,80.0
3404,C#4,132.5,1.5,63,80.0
3405,C#5,132.5,1.5,63,80.0
3406,G#3,132.5,1.5,63,80.0
3407,G#4,132.5,1.5,63,80.0
3408,F3,132.5,1.5,63,80.0
3409,F4,132.5,1.5,63,80.0
3410,A2,132.75,0.5,95,80.0
3411,C#4,133.25,0.25,95,80.0
3412,A2,133.25,0.25,95,80.0
3413,B3,133.5,0.25,95,80.0
3414,G2,133.5,0.25,95,80.0
3415,B-3,133.75,0.25,95,80.0
3416,G2,133.75,0.25,95,80.0
3417,B-3,134.0,1.0,95,80.0
3418,F#2,134.0,0.75,95,80.0
3419,B4,134.0,2.0,95,80.0
3420,F#3,134.0,61/250,95,80.0
3421,C#4,134.0,61/250,95,80.0
3422,F#4,134.0,61/250,95,80.0
3423,B-4,134.0,61/250,95,80.0
3424,F3,134.0,0.25,63,80.0
3425,F4,134.0,0.25,63,80.0
3426,F#1,134.0,0.75,63,80.0
3427,F#2,134.0,0.75,63,80.0
3428,C#3,134.0,0.5,95,80.0
3429,C2,134.0,0.5,95,80.0
3430,B-4,134.25,123/500,63,80.0
3431,F#4,134.25,123/500,63,80.0
3432,C#4,134.25,123/500,63,80.0
3433,C#4,134.25,0.5,63,80.0
3434,C#5,134.25,0.5,63,80.0
3435,G#3,134.25,0.5,63,80.0
3436,G#4,134.25,0.5,63,80.0
3437,G#2,134.5,0.25,95,80.0
3438,C#4,134.5,123/500,63,80.0
3439,F#4,134.5,123/500,63,80.0
3440,B-4,134.5,123/500,63,80.0
3441,G#2,134.75,0.25,95,80.0
3442,F#2,134.75,0.25,95,80.0
3443,B-4,134.75,123/500,63,80.0
3444,F#4,134.75,123/500,63,80.0
3445,C#4,134.75,123/500,63,80.0
3446,G#3,134.75,1.25,63,80.0
3447,G#4,134.75,1.25,63,80.0
3448,E-3,134.75,1.25,63,80.0
3449,E-4,134.75,1.25,63,80.0
3450,B2,134.75,1.25,63,80.0
3451,B3,134.75,1.25,63,80.0
3452,F#1,134.75,0.25,63,80.0
3453,F#2,134.75,0.25,63,80.0
3454,F#2,135.0,0.5,95,80.0
3455,C#4,135.0,123/500,63,80.0
3456,F#4,135.0,123/500,63,80.0
3457,B-4,135.0,123/500,63,80.0
3458,F#1,135.0,1.0,63,80.0
3459,F#2,135.0,1.0,63,80.0
3460,G#2,135.0,0.25,95,80.0
3461,E2,135.0,0.25,95,80.0
3462,C#4,135.25,0.25,95,80.0
3463,G#2,135.25,0.25,95,80.0
3464,B-4,135.25,123/500,63,80.0
3465,F#4,135.25,123/500,63,80.0
3466,C#4,135.25,123/500,63,80.0
3467,B3,135.5,0.25,95,80.0
3468,G#2,135.5,0.25,95,80.0
3469,F#2,135.5,0.25,95,80.0
3470,C#4,135.5,123/500,63,80.0
3471,F#4,135.5,123/500,63,80.0
3472,B-4,135.5,123/500,63,80.0
3473,B-3,135.75,0.5,95,80.0
3474,F#2,135.75,1.0,95,80.0
3475,B-4,135.75,123/500,95,80.0
3476,E4,135.75,123/500,95,80.0
3477,C#4,135.75,123/500,95,80.0
3478,G#2,135.75,0.25,95,80.0
3479,C2,135.75,0.25,95,80.0
3480,G#2,136.0,0.25,95,80.0
3481,C#5,136.0,2.0,95,80.0
3482,B2,136.0,0.25,63,80.0
3483,B3,136.0,0.25,63,80.0
3484,F#1,136.0,0.75,63,80.0
3485,F#2,136.0,0.75,63,80.0
3486,B-4,136.25,123/500,95,80.0
3487,E4,136.25,123/500,95,80.0
3488,C#4,136.25,123/500,95,80.0
3489,G#3,136.25,0.25,63,80.0
3490,G#4,136.25,0.25,63,80.0
3491,E-3,136.25,0.25,63,80.0
3492,E-4,136.25,0.25,63,80.0
3493,G#2,136.25,0.25,95,80.0
3494,C2,136.25,0.25,95,80.0
3495,G#2,136.5,0.25,95,80.0
3496,B-3,136.5,1.5,63,80.0
3497,B-4,136.5,1.5,63,80.0
3498,F#3,136.5,1.5,63,80.0
3499,F#4,136.5,1.5,63,80.0
3500,C#3,136.5,1.5,63,80.0
3501,C#4,136.5,1.5,63,80.0
3502,F#2,136.75,0.25,95,80.0
3503,B-4,136.75,123/500,95,80.0
3504,E4,136.75,123/500,95,80.0
3505,C#4,136.75,123/500,95,80.0
3506,F#1,136.75,0.25,63,80.0
3507,F#2,136.75,0.25,63,80.0
3508,G#2,136.75,0.25,95,80.0
3509,C2,136.75,0.25,95,80.0
3510,F#2,137.0,1.0,95,80.0
3511,C#4,137.0,123/500,95,80.0
3512,E4,137.0,123/500,95,80.0
3513,B-4,137.0,123/500,95,80.0
3514,F#1,137.0,1.0,63,80.0
3515,F#2,137.0,1.0,63,80.0
3516,G#2,137.0,0.25,95,80.0
3517,E2,137.0,0.25,95,80.0
3518,C#4,137.25,0.25,95,80.0
3519,G#2,137.25,0.25,95,80.0
3520,B-4,137.25,123/500,63,80.0
3521,E4,137.25,123/500,63,80.0
3522,C#4,137.25,123/500,63,80.0
3523,B3,137.5,0.25,95,80.0
3524,G#2,137.5,0.25,95,80.0
3525,C#4,137.5,123/500,63,80.0
3526,E4,137.5,123/500,63,80.0
3527,B-4,137.5,123/500,63,80.0
3528,B-3,137.75,0.25,95,80.0
3529,B-4,137.75,123/500,63,80.0
3530,E4,137.75,123/500,63,80.0
3531,C#4,137.75,123/500,63,80.0
3532,G#2,137.75,0.25,95,80.0
3533,C2,137.75,0.25,95,80.0
3534,B-3,138.0,0.25,95,80.0
3535,F#2,138.0,0.75,95,80.0
3536,E-5,138.0,2.0,95,80.0
3537,F#3,138.0,61/250,95,80.0
3538,C#4,138.0,61/250,95,80.0
3539,E-4,138.0,61/250,95,80.0
3540,B-4,138.0,61/250,95,80.0
3541,C#3,138.0,0.25,63,80.0
3542,C#4,138.0,0.25,63,80.0
3543,F#1,138.0,0.75,63,80.0
3544,F#2,138.0,0.75,63,80.0
3545,G#2,138.0,0.25,95,80.0
3546,C2,138.0,0.25,95,80.0
3547,B-3,138.25,0.25,95,80.0
3548,G#2,138.25,0.25,95,80.0
3549,B-4,138.25,123/500,63,80.0
3550,E-4,138.25,123/500,63,80.0
3551,C#4,138.25,123/500,63,80.0
3552,B-3,138.25,0.25,63,80.0
3553,B-4,138.25,0.25,63,80.0
3554,F#3,138.25,0.25,63,80.0
3555,F#4,138.25,0.25,63,80.0
3556,B-3,138.5,0.25,95,80.0
3557,G#2,138.5,0.25,95,80.0
3558,C#4,138.5,123/500,63,80.0
3559,E-4,138.5,123/500,63,80.0
3560,B-4,138.5,123/500,63,80.0
3561,B3,138.5,0.25,63,80.0
3562,B4,138.5,0.25,63,80.0
3563,F#3,138.5,0.25,63,80.0
3564,F#4,138.5,0.25,63,80.0
3565,E-3,138.5,0.25,63,80.0
3566,E-4,138.5,0.25,63,80.0
3567,B-3,138.75,0.5,95,80.0
3568,G#2,138.75,0.25,95,80.0
3569,F#2,138.75,0.25,95,80.0
3570,B-4,138.75,123/500,63,80.0
3571,E-4,138.75,123/500,63,80.0
3572,C#4,138.75,123/500,63,80.0
3573,F#1,138.75,0.25,63,80.0
3574,F#2,138.75,0.25,63,80.0
3575,F#2,139.0,0.5,95,80.0
3576,C#4,139.0,123/500,63,80.0
3577,E-4,139.0,123/500,63,80.0
3578,B-4,139.0,123/500,63,80.0
3579,F#1,139.0,1.0,63,80.0
3580,F#2,139.0,1.0,63,80.0
3581,G#2,139.0,0.25,95,80.0
3582,E2,139.0,0.25,95,80.0
3583,B3,139.25,0.25,95,80.0
3584,G#2,139.25,0.25,95,80.0
3585,B-4,139.25,123/500,63,80.0
3586,E-4,139.25,123/500,63,80.0
3587,C#4,139.25,123/500,63,80.0
3588,C#4,139.5,0.25,95,80.0
3589,G#2,139.5,0.25,95,80.0
3590,F#2,139.5,0.25,95,80.0
3591,C#4,139.5,123/500,63,80.0
3592,E-4,139.5,123/500,63,80.0
3593,B-4,139.5,123/500,63,80.0
3594,C4,139.75,0.5,95,80.0
3595,F#2,139.75,1.0,95,80.0
3596,B4,139.75,61/250,95,80.0
3597,G#4,139.75,61/250,95,80.0
3598,D4,139.75,61/250,95,80.0
3599,F#3,139.75,61/250,95,80.0
3600,G#2,139.75,0.25,95,80.0
3601,C2,139.75,0.25,95,80.0
3602,G#2,140.0,0.25,95,80.0
3603,E5,140.0,2.0,95,80.0
3604,B3,140.0,1.25,63,80.0
3605,B4,140.0,1.25,63,80.0
3606,F#3,140.0,1.25,63,80.0
3607,F#4,140.0,1.25,63,80.0
3608,E-3,140.0,1.25,63,80.0
3609,E-4,140.0,1.25,63,80.0
3610,F#1,140.0,0.75,63,80.0
3611,F#2,140.0,0.75,63,80.0
3612,B-3,140.25,0.5,95,80.0
3613,B4,140.25,123/500,95,80.0
3614,G#4,140.25,123/500,95,80.0
3615,D4,140.25,123/500,95,80.0
3616,G#2,140.25,0.25,95,80.0
3617,C2,140.25,0.25,95,80.0
3618,G#2,140.5,0.25,95,80.0
3619,F#3,140.75,0.75,95,80.0
3620,F#2,140.75,0.25,95,80.0
3621,B4,140.75,123/500,95,80.0
3622,G#4,140.75,123/500,95,80.0
3623,D4,140.75,123/500,95,80.0
3624,F#1,140.75,0.25,63,80.0
3625,F#2,140.75,0.25,63,80.0
3626,G#2,140.75,0.25,95,80.0
3627,C2,140.75,0.25,95,80.0
3628,F#2,141.0,1.0,95,80.0
3629,D4,141.0,123/500,95,80.0
3630,G#4,141.0,123/500,95,80.0
3631,B4,141.0,123/500,95,80.0
3632,F#1,141.0,1.0,63,80.0
3633,F#2,141.0,1.0,63,80.0
3634,G#2,141.0,0.25,95,80.0
3635,E2,141.0,0.25,95,80.0
3636,G#2,141.25,0.25,95,80.0
3637,B4,141.25,123/500,63,80.0
3638,G#4,141.25,123/500,63,80.0
3639,D4,141.25,123/500,63,80.0
3640,E-3,141.25,0.25,63,80.0
3641,E-4,141.25,0.25,63,80.0
3642,G#2,141.5,0.25,95,80.0
3643,D4,141.5,123/500,63,80.0
3644,G#4,141.5,123/500,63,80.0
3645,B4,141.5,123/500,63,80.0
3646,B3,141.5,0.25,63,80.0
3647,B4,141.5,0.25,63,80.0
3648,F#3,141.5,0.25,63,80.0
3649,F#4,141.5,0.25,63,80.0
3650,B4,141.75,123/500,63,80.0
3651,G#4,141.75,123/500,63,80.0
3652,D4,141.75,123/500,63,80.0
3653,C#4,141.75,1.5,63,80.0
3654,C#5,141.75,1.5,63,80.0
3655,G#3,141.75,1.5,63,80.0
3656,G#4,141.75,1.5,63,80.0
3657,F3,141.75,1.5,63,80.0
3658,F4,141.75,1.5,63,80.0
3659,G#2,141.75,0.25,95,80.0
3660,C2,141.75,0.25,95,80.0
3661,G#3,142.0,2.0,95,80.0
3662,B3,142.0,2.0,95,80.0
3663,F#2,142.0,0.75,95,80.0
3664,F#5,142.0,2.0,95,80.0
3665,F#3,142.0,61/250,95,80.0
3666,C#4,142.0,61/250,95,80.0
3667,F#4,142.0,61/250,95,80.0
3668,B-4,142.0,61/250,95,80.0
3669,F#1,142.0,0.75,63,80.0
3670,F#2,142.0,0.75,63,80.0
3671,G#2,142.0,0.25,95,80.0
3672,C2,142.0,0.25,95,80.0
3673,G#2,142.25,0.25,95,80.0
3674,B-4,142.25,123/500,63,80.0
3675,F#4,142.25,123/500,63,80.0
3676,C#4,142.25,123/500,63,80.0
3677,G#2,142.5,0.25,95,80.0
3678,C#4,142.5,123/500,63,80.0
3679,F#4,142.5,123/500,63,80.0
3680,B-4,142.5,123/500,63,80.0
3681,G#2,142.75,0.25,95,80.0
3682,F#2,142.75,0.25,95,80.0
3683,B-4,142.75,123/500,63,80.0
3684,F#4,142.75,123/500,63,80.0
3685,C#4,142.75,123/500,63,80.0
3686,F#1,142.75,0.25,63,80.0
3687,F#2,142.75,0.25,63,80.0
3688,F#2,143.0,0.5,95,80.0
3689,C#4,143.0,123/500,63,80.0
3690,F#4,143.0,123/500,63,80.0
3691,B-4,143.0,123/500,63,80.0
3692,F#1,143.0,1.0,63,80.0
3693,F#2,143.0,1.0,63,80.0
3694,G#2,143.0,0.25,95,80.0
3695,E2,143.0,0.25,95,80.0
3696,G#2,143.25,0.25,95,80.0
3697,B-4,143.25,123/500,63,80.0
3698,F#4,143.25,123/500,63,80.0
3699,C#4,143.25,123/500,63,80.0
3700,F3,143.25,0.25,63,80.0
3701,F4,143.25,0.25,63,80.0
3702,G#2,143.5,0.25,95,80.0
3703,F#2,143.5,0.25,95,80.0
3704,C#4,143.5,123/500,63,80.0
3705,F#4,143.5,123/500,63,80.0
3706,B-4,143.5,123/500,63,80.0
3707,C#4,143.5,0.5,63,80.0
3708,C#5,143.5,0.5,63,80.0
3709,G#3,143.5,0.5,63,80.0
3710,G#4,143.5,0.5,63,80.0
3711,C#2,143.75,1.0,95,80.0
3712,G#4,143.75,121/500,95,80.0
3713,F4,143.75,121/500,95,80.0
3714,C#4,143.75,121/500,95,80.0
3715,G#3,143.75,121/500,95,80.0
3716,C#3,143.75,121/500,95,80.0
3717,G#2,143.75,0.25,95,80.0
3718,C2,143.75,0.25,95,80.0
3719,G#3,144.0,1.0,95,80.0
3720,C#4,144.0,1.0,95,80.0
3721,G#2,144.0,0.25,95,80.0
3722,E5,144.0,2.0,95,80.0
3723,C#3,144.0,1.219,63,80.0
3724,C#4,144.0,1.219,63,80.0
3725,F#3,144.0,1.219,63,80.0
3726,F#4,144.0,1.219,63,80.0
3727,C#1,144.0,0.75,63,80.0
3728,C#2,144.0,0.75,63,80.0
3729,B-3,144.062,1.156,63,80.0
3730,B-4,144.062,1.156,63,80.0
3731,C#4,144.062,1.156,63,80.0
3732,C#5,144.062,1.156,63,80.0
3733,G#4,144.25,61/250,95,80.0
3734,F4,144.25,61/250,95,80.0
3735,C#4,144.25,61/250,95,80.0
3736,G#3,144.25,61/250,95,80.0
3737,G#2,144.25,0.25,95,80.0
3738,C2,144.25,0.25,95,80.0
3739,G#2,144.5,0.25,95,80.0
3740,C#2,144.75,0.25,95,80.0
3741,G#4,144.75,61/250,95,80.0
3742,F4,144.75,61/250,95,80.0
3743,C#4,144.75,61/250,95,80.0
3744,G#3,144.75,61/250,95,80.0
3745,C#1,144.75,0.25,63,80.0
3746,C#2,144.75,0.25,63,80.0
3747,G#2,144.75,0.25,95,80.0
3748,C2,144.75,0.25,95,80.0
3749,G#3,145.0,1.0,95,80.0
3750,C#4,145.0,1.0,95,80.0
3751,C#2,145.0,1.0,95,80.0
3752,G#3,145.0,61/250,95,80.0
3753,C#4,145.0,61/250,95,80.0
3754,F4,145.0,61/250,95,80.0
3755,G#4,145.0,61/250,95,80.0
3756,C#1,145.0,1.0,63,80.0
3757,C#2,145.0,1.0,63,80.0
3758,G#2,145.0,0.25,95,80.0
3759,E2,145.0,0.25,95,80.0
3760,G#2,145.25,0.25,95,80.0
3761,G#4,145.25,61/250,63,80.0
3762,F4,145.25,61/250,63,80.0
3763,C#4,145.25,61/250,63,80.0
3764,G#3,145.25,61/250,63,80.0
3765,C#3,145.25,0.25,63,80.0
3766,C#4,145.25,0.25,63,80.0
3767,G#2,145.5,0.25,95,80.0
3768,G#3,145.5,61/250,63,80.0
3769,C#4,145.5,61/250,63,80.0
3770,F4,145.5,61/250,63,80.0
3771,G#4,145.5,61/250,63,80.0
3772,F#3,145.5,0.469,63,80.0
3773,F#4,145.5,0.469,63,80.0
3774,B-3,145.5,0.469,63,80.0
3775,B-4,145.5,0.469,63,80.0
3776,C#4,145.5,0.469,63,80.0
3777,C#5,145.5,0.469,63,80.0
3778,G#4,145.75,61/250,63,80.0
3779,F4,145.75,61/250,63,80.0
3780,C#4,145.75,61/250,63,80.0
3781,G#3,145.75,61/250,63,80.0
3782,G#2,145.75,0.25,95,80.0
3783,C2,145.75,0.25,95,80.0
3784,A3,146.0,1.25,95,80.0
3785,C#4,146.0,1.25,95,80.0
3786,F#2,146.0,0.75,95,80.0
3787,C#5,146.0,2.0,95,80.0
3788,F#3,146.0,61/250,95,80.0
3789,B3,146.0,61/250,95,80.0
3790,F#4,146.0,61/250,95,80.0
3791,B4,146.0,61/250,95,80.0
3792,C4,146.0,1.0,63,80.0
3793,C5,146.0,1.0,63,80.0
3794,G#3,146.0,1.0,63,80.0
3795,G#4,146.0,1.0,63,80.0
3796,F#3,146.0,1.0,63,80.0
3797,F#4,146.0,1.0,63,80.0
3798,E-3,146.0,1.0,63,80.0
3799,E-4,146.0,1.0,63,80.0
3800,B0,146.0,0.75,63,80.0
3801,B1,146.0,0.75,63,80.0
3802,G#2,146.0,0.25,95,80.0
3803,C2,146.0,0.25,95,80.0
3804,G#2,146.25,0.25,95,80.0
3805,B4,146.25,61/250,63,80.0
3806,F#4,146.25,61/250,63,80.0
3807,B3,146.25,61/250,63,80.0
3808,F#3,146.25,61/250,63,80.0
3809,G#2,146.5,0.25,95,80.0
3810,F#3,146.5,61/250,63,80.0
3811,B3,146.5,61/250,63,80.0
3812,F#4,146.5,61/250,63,80.0
3813,B4,146.5,61/250,63,80.0
3814,G#2,146.75,0.25,95,80.0
3815,F#2,146.75,0.25,95,80.0
3816,B4,146.75,61/250,63,80.0
3817,F#4,146.75,61/250,63,80.0
3818,B3,146.75,61/250,63,80.0
3819,F#3,146.75,61/250,63,80.0
3820,B0,146.75,0.25,63,80.0
3821,B1,146.75,0.25,63,80.0
3822,F#2,147.0,0.5,95,80.0
3823,F#3,147.0,61/250,63,80.0
3824,B3,147.0,61/250,63,80.0
3825,F#4,147.0,61/250,63,80.0
3826,B4,147.0,61/250,63,80.0
3827,G#3,147.0,1.0,63,80.0
3828,G#4,147.0,1.0,63,80.0
3829,B0,147.0,1.0,63,80.0
3830,B1,147.0,1.0,63,80.0
3831,G#2,147.0,0.25,95,80.0
3832,E2,147.0,0.25,95,80.0
3833,C#4,147.25,0.25,95,80.0
3834,F4,147.25,0.25,95,80.0
3835,G#2,147.25,0.25,95,80.0
3836,B4,147.25,61/250,63,80.0
3837,F#4,147.25,61/250,63,80.0
3838,B3,147.25,61/250,63,80.0
3839,F#3,147.25,61/250,63,80.0
3840,B3,147.5,0.25,95,80.0
3841,E-4,147.5,0.25,95,80.0
3842,G#2,147.5,0.25,95,80.0
3843,F#2,147.5,0.5,95,80.0
3844,F#3,147.5,61/250,63,80.0
3845,B3,147.5,61/250,63,80.0
3846,F#4,147.5,61/250,63,80.0
3847,B4,147.5,61/250,63,80.0
3848,B-3,147.75,0.25,95,80.0
3849,C#4,147.75,0.25,95,80.0
3850,B4,147.75,61/250,63,80.0
3851,F#4,147.75,61/250,63,80.0
3852,B3,147.75,61/250,63,80.0
3853,F#3,147.75,61/250,63,80.0
3854,G#2,147.75,0.25,95,80.0
3855,C2,147.75,0.25,95,80.0
3856,B-3,148.0,0.5,95,80.0
3857,C#4,148.0,0.5,95,80.0
3858,F#2,148.0,0.75,95,80.0
3859,B4,148.0,2.0,95,80.0
3860,E-3,148.0,1.969,63,80.0
3861,E-4,148.0,1.969,63,80.0
3862,F#3,148.0,1.969,63,80.0
3863,F#4,148.0,1.969,63,80.0
3864,F#1,148.0,0.75,63,80.0
3865,F#2,148.0,0.75,63,80.0
3866,G#2,148.0,0.25,95,80.0
3867,C2,148.0,0.25,95,80.0
3868,B3,148.062,1.938,63,80.0
3869,B4,148.062,1.938,63,80.0
3870,G#2,148.25,0.25,95,80.0
3871,B-4,148.25,123/500,95,80.0
3872,F#4,148.25,123/500,95,80.0
3873,C#4,148.25,123/500,95,80.0
3874,G#2,148.5,0.25,95,80.0
3875,G#2,148.75,0.25,95,80.0
3876,F#2,148.75,0.25,95,80.0
3877,B-4,148.75,123/500,63,80.0
3878,F#4,148.75,123/500,63,80.0
3879,C#4,148.75,123/500,63,80.0
3880,F#1,148.75,0.25,63,80.0
3881,F#2,148.75,0.25,63,80.0
3882,F#2,149.0,0.5,95,80.0
3883,C#4,149.0,123/500,63,80.0
3884,F#4,149.0,123/500,63,80.0
3885,B-4,149.0,123/500,63,80.0
3886,F#1,149.0,1.0,63,80.0
3887,F#2,149.0,1.0,63,80.0
3888,G#2,149.0,0.25,95,80.0
3889,E2,149.0,0.25,95,80.0
3890,G#2,149.25,0.25,95,80.0
3891,B-4,149.25,123/500,63,80.0
3892,F#4,149.25,123/500,63,80.0
3893,C#4,149.25,123/500,63,80.0
3894,G#2,149.5,0.25,95,80.0
3895,F#2,149.5,0.25,95,80.0
3896,C#4,149.5,123/500,63,80.0
3897,F#4,149.5,123/500,63,80.0
3898,B-4,149.5,123/500,63,80.0
3899,F#2,149.75,1.0,95,80.0
3900,B-4,149.75,123/500,63,80.0
3901,F#4,149.75,123/500,63,80.0
3902,C#4,149.75,123/500,63,80.0
3903,G#2,149.75,0.25,95,80.0
3904,C2,149.75,0.25,95,80.0
3905,G#2,150.0,0.25,95,80.0
3906,B4,150.0,1.0,95,80.0
3907,B-4,150.0,0.25,95,80.0
3908,F#4,150.0,0.25,95,80.0
3909,C#4,150.0,0.25,95,80.0
3910,F#3,150.0,0.25,95,80.0
3911,C#3,150.0,1.969,63,80.0
3912,C#4,150.0,1.969,63,80.0
3913,F3,150.0,1.969,63,80.0
3914,F4,150.0,1.969,63,80.0
3915,F#1,150.0,0.75,63,80.0
3916,F#2,150.0,0.75,63,80.0
3917,G#3,150.062,1.906,63,80.0
3918,G#4,150.062,1.906,63,80.0
3919,C#4,150.062,1.906,63,80.0
3920,C#5,150.062,1.906,63,80.0
3921,B-4,150.25,123/500,63,80.0
3922,F#4,150.25,123/500,63,80.0
3923,C#4,150.25,123/500,63,80.0
3924,G#2,150.25,0.25,95,80.0
3925,C2,150.25,0.25,95,80.0
3926,G#2,150.5,0.25,95,80.0
3927,B-4,150.5,0.25,63,80.0
3928,F#4,150.5,0.25,63,80.0
3929,C#4,150.5,0.25,63,80.0
3930,F#2,150.75,0.25,95,80.0
3931,B-4,150.75,123/500,63,80.0
3932,F#4,150.75,123/500,63,80.0
3933,C#4,150.75,123/500,63,80.0
3934,F#1,150.75,0.25,63,80.0
3935,F#2,150.75,0.25,63,80.0
3936,G#2,150.75,0.25,95,80.0
3937,C2,150.75,0.25,95,80.0
3938,F#2,151.0,1.0,95,80.0
3939,C#4,151.0,123/500,63,80.0
3940,F#4,151.0,123/500,63,80.0
3941,B-4,151.0,123/500,63,80.0
3942,F#1,151.0,1.0,63,80.0
3943,F#2,151.0,1.0,63,80.0
3944,G#2,151.0,0.25,95,80.0
3945,E2,151.0,0.25,95,80.0
3946,C#4,151.25,0.25,95,80.0
3947,G#2,151.25,0.25,95,80.0
3948,B-4,151.25,123/500,63,80.0
3949,F#4,151.25,123/500,63,80.0
3950,C#4,151.25,123/500,63,80.0
3951,B3,151.5,0.25,95,80.0
3952,G#2,151.5,0.25,95,80.0
3953,C#4,151.5,123/500,63,80.0
3954,F#4,151.5,123/500,63,80.0
3955,B-4,151.5,123/500,63,80.0
3956,B-3,151.75,0.25,95,80.0
3957,B-4,151.75,123/500,63,80.0
3958,F#4,151.75,123/500,63,80.0
3959,C#4,151.75,123/500,63,80.0
3960,G#2,151.75,0.25,95,80.0
3961,C2,151.75,0.25,95,80.0
3962,B-3,152.0,0.25,95,80.0
3963,F#2,152.0,0.75,95,80.0
3964,F#3,152.0,61/250,95,80.0
3965,C#4,152.0,61/250,95,80.0
3966,F#4,152.0,61/250,95,80.0
3967,B-4,152.0,61/250,95,80.0
3968,F#1,152.0,0.75,63,80.0
3969,F#2,152.0,0.75,63,80.0
3970,C#3,152.0,0.5,95,80.0
3971,C2,152.0,0.5,95,80.0
3972,B-4,152.25,123/500,63,80.0
3973,F#4,152.25,123/500,63,80.0
3974,C#4,152.25,123/500,63,80.0
3975,G#2,152.5,0.25,95,80.0
3976,C#4,152.5,123/500,63,80.0
3977,F#4,152.5,123/500,63,80.0
3978,B-4,152.5,123/500,63,80.0
3979,G#2,152.75,0.25,95,80.0
3980,F#2,152.75,0.25,95,80.0
3981,B-4,152.75,123/500,63,80.0
3982,F#4,152.75,123/500,63,80.0
3983,C#4,152.75,123/500,63,80.0
3984,F#1,152.75,0.25,63,80.0
3985,F#2,152.75,0.25,63,80.0
3986,F#2,153.0,0.5,95,80.0
3987,C#4,153.0,123/500,63,80.0
3988,F#4,153.0,123/500,63,80.0
3989,B-4,153.0,123/500,63,80.0
3990,F#1,153.0,1.0,63,80.0
3991,F#2,153.0,1.0,63,80.0
3992,G#2,153.0,0.25,95,80.0
3993,E2,153.0,0.25,95,80.0
3994,C#4,153.25,0.25,95,80.0
3995,G#2,153.25,0.25,95,80.0
3996,B-4,153.25,123/500,63,80.0
3997,F#4,153.25,123/500,63,80.0
3998,C#4,153.25,123/500,63,80.0
3999,C#4,153.25,0.25,63,80.0
4000,C#5,153.25,0.25,63,80.0
4001,B3,153.5,0.25,95,80.0
4002,G#2,153.5,0.25,95,80.0
4003,F#2,153.5,0.25,95,80.0
4004,C#4,153.5,123/500,63,80.0
4005,F#4,153.5,123/500,63,80.0
4006,B-4,153.5,123/500,63,80.0
4007,B3,153.5,0.25,63,80.0
4008,B4,153.5,0.25,63,80.0
4009,B-3,153.75,0.5,95,80.0
4010,F#2,153.75,1.0,95,80.0
4011,B-4,153.75,123/500,95,80.0
4012,E4,153.75,123/500,95,80.0
4013,C#4,153.75,123/500,95,80.0
4014,B-3,153.75,0.25,63,80.0
4015,B-4,153.75,0.25,63,80.0
4016,F#3,153.75,0.25,63,80.0
4017,F#4,153.75,0.25,63,80.0
4018,C#3,153.75,0.25,63,80.0
4019,C#4,153.75,0.25,63,80.0
4020,G#2,153.75,0.25,95,80.0
4021,C2,153.75,0.25,95,80.0
4022,G#2,154.0,0.25,95,80.0
4023,F#3,154.0,0.5,63,80.0
4024,F#4,154.0,0.5,63,80.0
4025,F#1,154.0,0.75,63,80.0
4026,F#2,154.0,0.75,63,80.0
4027,B-4,154.0,2.0,95,80.0
4028,F#4,154.0,2.0,95,80.0
4029,B-4,154.25,123/500,95,80.0
4030,E4,154.25,123/500,95,80.0
4031,C#4,154.25,123/500,95,80.0
4032,G#2,154.25,0.25,95,80.0
4033,C2,154.25,0.25,95,80.0
4034,G#2,154.5,0.25,95,80.0
4035,B-2,154.5,0.25,63,80.0
4036,B-3,154.5,0.25,63,80.0
4037,F#2,154.75,0.25,95,80.0
4038,B-4,154.75,123/500,95,80.0
4039,E4,154.75,123/500,95,80.0
4040,C#4,154.75,123/500,95,80.0
4041,F#3,154.75,0.5,63,80.0
4042,F#4,154.75,0.5,63,80.0
4043,F#1,154.75,0.25,63,80.0
4044,F#2,154.75,0.25,63,80.0
4045,G#2,154.75,0.25,95,80.0
4046,C2,154.75,0.25,95,80.0
4047,F#2,155.0,1.0,95,80.0
4048,C#4,155.0,123/500,95,80.0
4049,E4,155.0,123/500,95,80.0
4050,B-4,155.0,123/500,95,80.0
4051,F#1,155.0,1.0,63,80.0
4052,F#2,155.0,1.0,63,80.0
4053,G#2,155.0,0.25,95,80.0
4054,E2,155.0,0.25,95,80.0
4055,C#4,155.25,0.25,95,80.0
4056,G#2,155.25,0.25,95,80.0
4057,B-4,155.25,123/500,63,80.0
4058,E4,155.25,123/500,63,80.0
4059,C#4,155.25,123/500,63,80.0
4060,C#4,155.25,0.25,63,80.0
4061,C#5,155.25,0.25,63,80.0
4062,C#3,155.25,0.25,63,80.0
4063,C#4,155.25,0.25,63,80.0
4064,B3,155.5,0.25,95,80.0
4065,G#2,155.5,0.25,95,80.0
4066,C#4,155.5,123/500,63,80.0
4067,E4,155.5,123/500,63,80.0
4068,B-4,155.5,123/500,63,80.0
4069,B3,155.5,0.25,63,80.0
4070,B4,155.5,0.25,63,80.0
4071,F#3,155.5,0.25,63,80.0
4072,F#4,155.5,0.25,63,80.0
4073,C#3,155.5,0.25,63,80.0
4074,C#4,155.5,0.25,63,80.0
4075,B-3,155.75,0.25,95,80.0
4076,B-4,155.75,123/500,63,80.0
4077,E4,155.75,123/500,63,80.0
4078,C#4,155.75,123/500,63,80.0
4079,B-3,155.75,1.5,63,80.0
4080,B-4,155.75,1.5,63,80.0
4081,E3,155.75,1.5,63,80.0
4082,E4,155.75,1.5,63,80.0
4083,C#3,155.75,1.5,63,80.0
4084,C#4,155.75,1.5,63,80.0
4085,G#2,155.75,0.25,95,80.0
4086,C2,155.75,0.25,95,80.0
4087,B-3,156.0,0.25,95,80.0
4088,F#2,156.0,0.75,95,80.0
4089,F#3,156.0,61/250,95,80.0
4090,C#4,156.0,61/250,95,80.0
4091,E-4,156.0,61/250,95,80.0
4092,B-4,156.0,61/250,95,80.0
4093,F#1,156.0,0.75,63,80.0
4094,F#2,156.0,0.75,63,80.0
4095,G#2,156.0,0.25,95,80.0
4096,C2,156.0,0.25,95,80.0
4097,B-4,156.0,2.0,95,80.0
4098,F#4,156.0,2.0,95,80.0
4099,B-3,156.25,0.5,95,80.0
4100,G#2,156.25,0.25,95,80.0
4101,B-4,156.25,123/500,63,80.0
4102,E-4,156.25,123/500,63,80.0
4103,C#4,156.25,123/500,63,80.0
4104,G#2,156.5,0.25,95,80.0
4105,C#4,156.5,123/500,63,80.0
4106,E-4,156.5,123/500,63,80.0
4107,B-4,156.5,123/500,63,80.0
4108,B-3,156.75,0.5,95,80.0
4109,G#2,156.75,0.25,95,80.0
4110,F#2,156.75,0.25,95,80.0
4111,B-4,156.75,123/500,63,80.0
4112,E-4,156.75,123/500,63,80.0
4113,C#4,156.75,123/500,63,80.0
4114,F#1,156.75,0.25,63,80.0
4115,F#2,156.75,0.25,63,80.0
4116,F#2,157.0,0.5,95,80.0
4117,C#4,157.0,123/500,63,80.0
4118,E-4,157.0,123/500,63,80.0
4119,B-4,157.0,123/500,63,80.0
4120,F#1,157.0,1.0,63,80.0
4121,F#2,157.0,1.0,63,80.0
4122,G#2,157.0,0.25,95,80.0
4123,E2,157.0,0.25,95,80.0
4124,B3,157.25,0.25,95,80.0
4125,G#2,157.25,0.25,95,80.0
4126,B-4,157.25,123/500,63,80.0
4127,E-4,157.25,123/500,63,80.0
4128,C#4,157.25,123/500,63,80.0
4129,C#4,157.25,0.25,63,80.0
4130,C#5,157.25,0.25,63,80.0
4131,C#4,157.5,0.25,95,80.0
4132,G#2,157.5,0.25,95,80.0
4133,F#2,157.5,0.25,95,80.0
4134,C#4,157.5,123/500,63,80.0
4135,E-4,157.5,123/500,63,80.0
4136,B-4,157.5,123/500,63,80.0
4137,B3,157.5,0.25,63,80.0
4138,B4,157.5,0.25,63,80.0
4139,E3,157.5,0.25,63,80.0
4140,E4,157.5,0.25,63,80.0
4141,C#3,157.5,0.25,63,80.0
4142,C#4,157.5,0.25,63,80.0
4143,C4,157.75,0.75,95,80.0
4144,F#2,157.75,1.0,95,80.0
4145,B4,157.75,61/250,95,80.0
4146,G#4,157.75,61/250,95,80.0
4147,D4,157.75,61/250,95,80.0
4148,F#3,157.75,61/250,95,80.0
4149,B-3,157.75,0.25,63,80.0
4150,B-4,157.75,0.25,63,80.0
4151,E-3,157.75,0.25,63,80.0
4152,E-4,157.75,0.25,63,80.0
4153,C#3,157.75,0.25,63,80.0
4154,C#4,157.75,0.25,63,80.0
4155,G#2,157.75,0.25,95,80.0
4156,C2,157.75,0.25,95,80.0
4157,G#2,158.0,0.25,95,80.0
4158,F#1,158.0,0.75,63,80.0
4159,F#2,158.0,0.75,63,80.0
4160,B-4,158.0,0.5,95,80.0
4161,F#4,158.0,0.5,95,80.0
4162,B4,158.25,123/500,95,80.0
4163,G#4,158.25,123/500,95,80.0
4164,D4,158.25,123/500,95,80.0
4165,G#2,158.25,0.25,95,80.0
4166,C2,158.25,0.25,95,80.0
4167,B-3,158.5,0.25,95,80.0
4168,G#2,158.5,0.25,95,80.0
4169,B-3,158.5,0.5,63,80.0
4170,B-4,158.5,0.5,63,80.0
4171,E-3,158.5,0.5,63,80.0
4172,E-4,158.5,0.5,63,80.0
4173,C#3,158.5,0.5,63,80.0
4174,C#4,158.5,0.5,63,80.0
4175,B-4,158.5,0.25,95,80.0
4176,F#4,158.5,0.25,95,80.0
4177,F#3,158.75,0.75,95,80.0
4178,F#2,158.75,0.25,95,80.0
4179,B4,158.75,123/500,95,80.0
4180,G#4,158.75,123/500,95,80.0
4181,D4,158.75,123/500,95,80.0
4182,F#1,158.75,0.25,63,80.0
4183,F#2,158.75,0.25,63,80.0
4184,G#2,158.75,0.25,95,80.0
4185,C2,158.75,0.25,95,80.0
4186,B-4,158.75,0.5,95,80.0
4187,F#4,158.75,0.5,95,80.0
4188,F#2,159.0,1.0,95,80.0
4189,D4,159.0,123/500,95,80.0
4190,G#4,159.0,123/500,95,80.0
4191,B4,159.0,123/500,95,80.0
4192,B-3,159.0,0.25,63,80.0
4193,B-4,159.0,0.25,63,80.0
4194,F#1,159.0,1.0,63,80.0
4195,F#2,159.0,1.0,63,80.0
4196,G#2,159.0,0.25,95,80.0
4197,E2,159.0,0.25,95,80.0
4198,G#2,159.25,0.25,95,80.0
4199,B4,159.25,123/500,63,80.0
4200,G#4,159.25,123/500,63,80.0
4201,D4,159.25,123/500,63,80.0
4202,B-3,159.25,0.5,63,80.0
4203,B-4,159.25,0.5,63,80.0
4204,B4,159.25,0.25,95,80.0
4205,G#4,159.25,0.25,95,80.0
4206,G#2,159.5,0.25,95,80.0
4207,D4,159.5,123/500,63,80.0
4208,G#4,159.5,123/500,63,80.0
4209,B4,159.5,123/500,63,80.0
4210,C#5,159.5,0.25,95,80.0
4211,G#4,159.5,0.25,95,80.0
4212,B4,159.75,123/500,63,80.0
4213,G#4,159.75,123/500,63,80.0
4214,D4,159.75,123/500,63,80.0
4215,B3,159.75,0.25,63,80.0
4216,B4,159.75,0.25,63,80.0
4217,G#2,159.75,0.25,95,80.0
4218,C2,159.75,0.25,95,80.0
4219,D5,159.75,0.5,95,80.0
4220,B4,159.75,0.5,95,80.0
4221,G#3,160.0,2.0,95,80.0
4222,B3,160.0,2.0,95,80.0
4223,F#2,160.0,0.75,95,80.0
4224,F#3,160.0,61/250,95,80.0
4225,C#4,160.0,61/250,95,80.0
4226,F#4,160.0,61/250,95,80.0
4227,B-4,160.0,61/250,95,80.0
4228,C#4,160.0,0.25,63,80.0
4229,C#5,160.0,0.25,63,80.0
4230,E-3,160.0,0.25,63,80.0
4231,E-4,160.0,0.25,63,80.0
4232,C#3,160.0,0.25,63,80.0
4233,C#4,160.0,0.25,63,80.0
4234,F#1,160.0,0.75,63,80.0
4235,F#2,160.0,0.75,63,80.0
4236,G#2,160.0,0.25,95,80.0
4237,C2,160.0,0.25,95,80.0
4238,G#2,160.25,0.25,95,80.0
4239,B-4,160.25,123/500,63,80.0
4240,F#4,160.25,123/500,63,80.0
4241,C#4,160.25,123/500,63,80.0
4242,D4,160.25,0.5,63,80.0
4243,D5,160.25,0.5,63,80.0
4244,F#3,160.25,0.5,63,80.0
4245,F#4,160.25,0.5,63,80.0
4246,D3,160.25,0.5,63,80.0
4247,D4,160.25,0.5,63,80.0
4248,B2,160.25,0.5,63,80.0
4249,B3,160.25,0.5,63,80.0
4250,B-4,160.25,0.5,95,80.0
4251,F#4,160.25,0.5,95,80.0
4252,G#2,160.5,0.25,95,80.0
4253,C#4,160.5,123/500,63,80.0
4254,F#4,160.5,123/500,63,80.0
4255,B-4,160.5,123/500,63,80.0
4256,G#2,160.75,0.25,95,80.0
4257,F#2,160.75,0.25,95,80.0
4258,B-4,160.75,123/500,63,80.0
4259,F#4,160.75,123/500,63,80.0
4260,C#4,160.75,123/500,63,80.0
4261,B-3,160.75,0.5,63,80.0
4262,B-4,160.75,0.5,63,80.0
4263,F#3,160.75,0.5,63,80.0
4264,F#4,160.75,0.5,63,80.0
4265,D3,160.75,0.5,63,80.0
4266,D4,160.75,0.5,63,80.0
4267,B2,160.75,0.5,63,80.0
4268,B3,160.75,0.5,63,80.0
4269,F#1,160.75,0.25,63,80.0
4270,F#2,160.75,0.25,63,80.0
4271,G#4,160.75,0.5,95,80.0
4272,F#4,160.75,0.5,95,80.0
4273,F#2,161.0,0.5,95,80.0
4274,C#4,161.0,123/500,63,80.0
4275,F#4,161.0,123/500,63,80.0
4276,B-4,161.0,123/500,63,80.0
4277,F#1,161.0,1.0,63,80.0
4278,F#2,161.0,1.0,63,80.0
4279,G#2,161.0,0.25,95,80.0
4280,E2,161.0,0.25,95,80.0
4281,G#2,161.25,0.25,95,80.0
4282,B-4,161.25,123/500,63,80.0
4283,F#4,161.25,123/500,63,80.0
4284,C#4,161.25,123/500,63,80.0
4285,G#3,161.25,0.5,63,80.0
4286,G#4,161.25,0.5,63,80.0
4287,G#4,161.25,0.5,95,80.0
4288,F#4,161.25,0.5,95,80.0
4289,G#2,161.5,0.25,95,80.0
4290,F#2,161.5,0.25,95,80.0
4291,C#4,161.5,123/500,63,80.0
4292,F#4,161.5,123/500,63,80.0
4293,B-4,161.5,123/500,63,80.0
4294,C#2,161.75,1.0,95,80.0
4295,G#4,161.75,121/500,95,80.0
4296,F4,161.75,121/500,95,80.0
4297,C#4,161.75,121/500,95,80.0
4298,G#3,161.75,121/500,95,80.0
4299,C#3,161.75,121/500,95,80.0
4300,B2,161.75,0.25,63,80.0
4301,B3,161.75,0.25,63,80.0
4302,G#2,161.75,0.25,95,80.0
4303,C2,161.75,0.25,95,80.0
4304,G#4,161.75,0.25,95,80.0
4305,F#4,161.75,0.25,95,80.0
4306,G#3,162.0,1.0,95,80.0
4307,C#4,162.0,1.0,95,80.0
4308,G#2,162.0,0.25,95,80.0
4309,G#3,162.0,0.5,63,80.0
4310,G#4,162.0,0.5,63,80.0
4311,F#3,162.0,0.5,63,80.0
4312,F#4,162.0,0.5,63,80.0
4313,E-3,162.0,0.5,63,80.0
4314,E-4,162.0,0.5,63,80.0
4315,C#1,162.0,0.75,63,80.0
4316,C#2,162.0,0.75,63,80.0
4317,B-4,162.0,2.0,95,80.0
4318,F#4,162.0,2.0,95,80.0
4319,G#4,162.25,61/250,95,80.0
4320,F4,162.25,61/250,95,80.0
4321,C#4,162.25,61/250,95,80.0
4322,G#3,162.25,61/250,95,80.0
4323,G#2,162.25,0.25,95,80.0
4324,C2,162.25,0.25,95,80.0
4325,G#2,162.5,0.25,95,80.0
4326,B-3,162.5,1.25,63,80.0
4327,B-4,162.5,1.25,63,80.0
4328,F#3,162.5,1.25,63,80.0
4329,F#4,162.5,1.25,63,80.0
4330,C#3,162.5,1.25,63,80.0
4331,C#4,162.5,1.25,63,80.0
4332,C#2,162.75,0.25,95,80.0
4333,G#4,162.75,61/250,95,80.0
4334,F4,162.75,61/250,95,80.0
4335,C#4,162.75,61/250,95,80.0
4336,G#3,162.75,61/250,95,80.0
4337,C#1,162.75,0.25,63,80.0
4338,C#2,162.75,0.25,63,80.0
4339,G#2,162.75,0.25,95,80.0
4340,C2,162.75,0.25,95,80.0
4341,G#3,163.0,1.0,95,80.0
4342,C#4,163.0,1.0,95,80.0
4343,C#2,163.0,1.0,95,80.0
4344,G#3,163.0,61/250,95,80.0
4345,C#4,163.0,61/250,95,80.0
4346,F4,163.0,61/250,95,80.0
4347,G#4,163.0,61/250,95,80.0
4348,C#1,163.0,1.0,63,80.0
4349,C#2,163.0,1.0,63,80.0
4350,G#2,163.0,0.25,95,80.0
4351,E2,163.0,0.25,95,80.0
4352,G#2,163.25,0.25,95,80.0
4353,G#4,163.25,61/250,63,80.0
4354,F4,163.25,61/250,63,80.0
4355,C#4,163.25,61/250,63,80.0
4356,G#3,163.25,61/250,63,80.0
4357,G#2,163.5,0.25,95,80.0
4358,G#3,163.5,61/250,63,80.0
4359,C#4,163.5,61/250,63,80.0
4360,F4,163.5,61/250,63,80.0
4361,G#4,163.5,61/250,63,80.0
4362,G#4,163.75,61/250,63,80.0
4363,F4,163.75,61/250,63,80.0
4364,C#4,163.75,61/250,63,80.0
4365,G#3,163.75,61/250,63,80.0
4366,C#3,163.75,0.25,63,80.0
4367,C#4,163.75,0.25,63,80.0
4368,G#2,163.75,0.25,95,80.0
4369,C2,163.75,0.25,95,80.0
4370,A3,164.0,1.25,95,80.0
4371,C#4,164.0,1.25,95,80.0
4372,F#2,164.0,0.75,95,80.0
4373,F#3,164.0,61/250,95,80.0
4374,B3,164.0,61/250,95,80.0
4375,F#4,164.0,61/250,95,80.0
4376,B4,164.0,61/250,95,80.0
4377,B-3,164.0,0.25,63,80.0
4378,B-4,164.0,0.25,63,80.0
4379,F#3,164.0,0.25,63,80.0
4380,F#4,164.0,0.25,63,80.0
4381,B0,164.0,0.75,63,80.0
4382,B1,164.0,0.75,63,80.0
4383,G#2,164.0,0.25,95,80.0
4384,C2,164.0,0.25,95,80.0
4385,G#4,164.0,1.0,95,80.0
4386,C#4,164.0,1.0,95,80.0
4387,G#2,164.25,0.25,95,80.0
4388,B4,164.25,61/250,63,80.0
4389,F#4,164.25,61/250,63,80.0
4390,B3,164.25,61/250,63,80.0
4391,F#3,164.25,61/250,63,80.0
4392,G#3,164.25,1.5,63,80.0
4393,G#4,164.25,1.5,63,80.0
4394,F3,164.25,1.5,63,80.0
4395,F4,164.25,1.5,63,80.0
4396,C#3,164.25,1.5,63,80.0
4397,C#4,164.25,1.5,63,80.0
4398,G#2,164.5,0.25,95,80.0
4399,F#3,164.5,61/250,63,80.0
4400,B3,164.5,61/250,63,80.0
4401,F#4,164.5,61/250,63,80.0
4402,B4,164.5,61/250,63,80.0
4403,G#2,164.75,0.25,95,80.0
4404,F#2,164.75,0.25,95,80.0
4405,B4,164.75,61/250,63,80.0
4406,F#4,164.75,61/250,63,80.0
4407,B3,164.75,61/250,63,80.0
4408,F#3,164.75,61/250,63,80.0
4409,B0,164.75,0.25,63,80.0
4410,B1,164.75,0.25,63,80.0
4411,F#2,165.0,0.5,95,80.0
4412,F#3,165.0,61/250,63,80.0
4413,B3,165.0,61/250,63,80.0
4414,F#4,165.0,61/250,63,80.0
4415,B4,165.0,61/250,63,80.0
4416,B0,165.0,1.0,63,80.0
4417,B1,165.0,1.0,63,80.0
4418,G#2,165.0,0.25,95,80.0
4419,E2,165.0,0.25,95,80.0
4420,C#5,165.0,1.0,95,80.0
4421,C#4,165.0,1.0,95,80.0
4422,C#4,165.25,0.25,95,80.0
4423,F4,165.25,0.25,95,80.0
4424,G#2,165.25,0.25,95,80.0
4425,B4,165.25,61/250,63,80.0
4426,F#4,165.25,61/250,63,80.0
4427,B3,165.25,61/250,63,80.0
4428,F#3,165.25,61/250,63,80.0
4429,B3,165.5,0.25,95,80.0
4430,E-4,165.5,0.25,95,80.0
4431,G#2,165.5,0.25,95,80.0
4432,F#2,165.5,0.5,95,80.0
4433,F#3,165.5,61/250,63,80.0
4434,B3,165.5,61/250,63,80.0
4435,F#4,165.5,61/250,63,80.0
4436,B4,165.5,61/250,63,80.0
4437,B-3,165.75,0.25,95,80.0
4438,C#4,165.75,0.25,95,80.0
4439,B4,165.75,61/250,63,80.0
4440,F#4,165.75,61/250,63,80.0
4441,B3,165.75,61/250,63,80.0
4442,F#3,165.75,61/250,63,80.0
4443,C#3,165.75,0.25,63,80.0
4444,C#4,165.75,0.25,63,80.0
4445,G#2,165.75,0.25,95,80.0
4446,C2,165.75,0.25,95,80.0
4447,B-3,166.0,0.5,95,80.0
4448,C#4,166.0,0.5,95,80.0
4449,F#2,166.0,0.75,95,80.0
4450,G#3,166.0,0.25,63,80.0
4451,G#4,166.0,0.25,63,80.0
4452,F3,166.0,0.25,63,80.0
4453,F4,166.0,0.25,63,80.0
4454,F#1,166.0,0.75,63,80.0
4455,F#2,166.0,0.75,63,80.0
4456,G#2,166.0,0.25,95,80.0
4457,C2,166.0,0.25,95,80.0
4458,E-5,166.0,1.75,95,80.0
4459,B4,166.0,1.75,95,80.0
4460,G#2,166.25,0.25,95,80.0
4461,B-4,166.25,123/500,95,80.0
4462,F#4,166.25,123/500,95,80.0
4463,C#4,166.25,123/500,95,80.0
4464,B3,166.25,0.25,63,80.0
4465,B4,166.25,0.25,63,80.0
4466,F#3,166.25,0.25,63,80.0
4467,F#4,166.25,0.25,63,80.0
4468,E-3,166.25,0.25,63,80.0
4469,E-4,166.25,0.25,63,80.0
4470,G#2,166.5,0.25,95,80.0
4471,G#2,166.75,0.25,95,80.0
4472,F#2,166.75,0.25,95,80.0
4473,B-4,166.75,123/500,63,80.0
4474,F#4,166.75,123/500,63,80.0
4475,C#4,166.75,123/500,63,80.0
4476,F#1,166.75,0.25,63,80.0
4477,F#2,166.75,0.25,63,80.0
4478,F#2,167.0,0.5,95,80.0
4479,C#4,167.0,123/500,63,80.0
4480,F#4,167.0,123/500,63,80.0
4481,B-4,167.0,123/500,63,80.0
4482,F#1,167.0,1.0,63,80.0
4483,F#2,167.0,1.0,63,80.0
4484,G#2,167.0,0.25,95,80.0
4485,E2,167.0,0.25,95,80.0
4486,G#2,167.25,0.25,95,80.0
4487,B-4,167.25,123/500,63,80.0
4488,F#4,167.25,123/500,63,80.0
4489,C#4,167.25,123/500,63,80.0
4490,G#2,167.5,0.25,95,80.0
4491,F#2,167.5,0.25,95,80.0
4492,C#4,167.5,123/500,63,80.0
4493,F#4,167.5,123/500,63,80.0
4494,B-4,167.5,123/500,63,80.0
4495,F#2,167.75,1.0,95,80.0
4496,B-4,167.75,123/500,63,80.0
4497,F#4,167.75,123/500,63,80.0
4498,C#4,167.75,123/500,63,80.0
4499,B3,167.75,1.25,63,80.0
4500,B4,167.75,1.25,63,80.0
4501,F#3,167.75,1.25,63,80.0
4502,F#4,167.75,1.25,63,80.0
4503,E-3,167.75,1.25,63,80.0
4504,E-4,167.75,1.25,63,80.0
4505,G#2,167.75,0.25,95,80.0
4506,C2,167.75,0.25,95,80.0
4507,B-4,167.75,0.25,95,80.0
4508,F#4,167.75,0.25,95,80.0
4509,G#2,168.0,0.25,95,80.0
4510,B-4,168.0,0.25,95,80.0
4511,F#4,168.0,0.25,95,80.0
4512,C#4,168.0,0.25,95,80.0
4513,F#3,168.0,0.25,95,80.0
4514,F#1,168.0,0.75,63,80.0
4515,F#2,168.0,0.75,63,80.0
4516,B-4,168.25,123/500,63,80.0
4517,F#4,168.25,123/500,63,80.0
4518,C#4,168.25,123/500,63,80.0
4519,G#2,168.25,0.25,95,80.0
4520,C2,168.25,0.25,95,80.0
4521,G#2,168.5,0.25,95,80.0
4522,B-4,168.5,0.25,63,80.0
4523,F#4,168.5,0.25,63,80.0
4524,C#4,168.5,0.25,63,80.0
4525,F#2,168.75,0.25,95,80.0
4526,B-4,168.75,123/500,63,80.0
4527,F#4,168.75,123/500,63,80.0
4528,C#4,168.75,123/500,63,80.0
4529,F#1,168.75,0.25,63,80.0
4530,F#2,168.75,0.25,63,80.0
4531,G#2,168.75,0.25,95,80.0
4532,C2,168.75,0.25,95,80.0
4533,F#2,169.0,1.0,95,80.0
4534,C#4,169.0,123/500,63,80.0
4535,F#4,169.0,123/500,63,80.0
4536,B-4,169.0,123/500,63,80.0
4537,E-3,169.0,0.25,63,80.0
4538,E-4,169.0,0.25,63,80.0
4539,F#1,169.0,1.0,63,80.0
4540,F#2,169.0,1.0,63,80.0
4541,G#2,169.0,0.25,95,80.0
4542,E2,169.0,0.25,95,80.0
4543,G#2,169.25,0.25,95,80.0
4544,B-4,169.25,123/500,63,80.0
4545,F#4,169.25,123/500,63,80.0
4546,C#4,169.25,123/500,63,80.0
4547,B3,169.25,0.25,63,80.0
4548,B4,169.25,0.25,63,80.0
4549,F#3,169.25,0.25,63,80.0
4550,F#4,169.25,0.25,63,80.0
4551,G#2,169.5,0.25,95,80.0
4552,C#4,169.5,123/500,63,80.0
4553,F#4,169.5,123/500,63,80.0
4554,B-4,169.5,123/500,63,80.0
4555,B-3,169.5,0.25,63,80.0
4556,B-4,169.5,0.25,63,80.0
4557,F#3,169.5,0.25,63,80.0
4558,F#4,169.5,0.25,63,80.0
4559,C#3,169.5,0.25,63,80.0
4560,C#4,169.5,0.25,63,80.0
4561,B-4,169.75,123/500,63,80.0
4562,F#4,169.75,123/500,63,80.0
4563,C#4,169.75,123/500,63,80.0
4564,G#2,169.75,0.25,95,80.0
4565,C2,169.75,0.25,95,80.0
4566,F#2,170.0,0.75,95,80.0
4567,F#1,170.0,0.75,63,80.0
4568,F#2,170.0,0.75,63,80.0
4569,G#2,170.0,0.25,95,80.0
4570,C2,170.0,0.25,95,80.0
4571,G#2,170.25,0.25,95,80.0
4572,B-4,170.25,123/500,95,80.0
4573,F#4,170.25,123/500,95,80.0
4574,C#4,170.25,123/500,95,80.0
4575,G#2,170.5,0.25,95,80.0
4576,G#2,170.75,0.25,95,80.0
4577,F#2,170.75,0.25,95,80.0
4578,B-4,170.75,123/500,63,80.0
4579,F#4,170.75,123/500,63,80.0
4580,C#4,170.75,123/500,63,80.0
4581,F#1,170.75,0.25,63,80.0
4582,F#2,170.75,0.25,63,80.0
4583,F#2,171.0,0.5,95,80.0
4584,C#4,171.0,123/500,63,80.0
4585,F#4,171.0,123/500,63,80.0
4586,B-4,171.0,123/500,63,80.0
4587,B-3,171.0,1.25,63,80.0
4588,B-4,171.0,1.25,63,80.0
4589,F#3,171.0,1.25,63,80.0
4590,F#4,171.0,1.25,63,80.0
4591,C#3,171.0,1.25,63,80.0
4592,C#4,171.0,1.25,63,80.0
4593,F#1,171.0,1.0,63,80.0
4594,F#2,171.0,1.0,63,80.0
4595,G#2,171.0,0.25,95,80.0
4596,E2,171.0,0.25,95,80.0
4597,G#2,171.25,0.25,95,80.0
4598,B-4,171.25,123/500,63,80.0
4599,F#4,171.25,123/500,63,80.0
4600,C#4,171.25,123/500,63,80.0
4601,G#2,171.5,0.25,95,80.0
4602,F#2,171.5,0.25,95,80.0
4603,C#4,171.5,123/500,63,80.0
4604,F#4,171.5,123/500,63,80.0
4605,B-4,171.5,123/500,63,80.0
4606,F#2,171.75,1.0,95,80.0
4607,B-4,171.75,123/500,63,80.0
4608,F#4,171.75,123/500,63,80.0
4609,C#4,171.75,123/500,63,80.0
4610,G#2,171.75,0.25,95,80.0
4611,C2,171.75,0.25,95,80.0
4612,G#2,172.0,0.25,95,80.0
4613,B-4,172.0,0.25,95,80.0
4614,F#4,172.0,0.25,95,80.0
4615,C#4,172.0,0.25,95,80.0
4616,F#3,172.0,0.25,95,80.0
4617,F#1,172.0,0.75,63,80.0
4618,F#2,172.0,0.75,63,80.0
4619,B-4,172.0,4.0,95,80.0
4620,F#4,172.0,4.0,95,80.0
4621,B-4,172.25,123/500,63,80.0
4622,F#4,172.25,123/500,63,80.0
4623,C#4,172.25,123/500,63,80.0
4624,C#3,172.25,0.25,63,80.0
4625,C#4,172.25,0.25,63,80.0
4626,G#2,172.25,0.25,95,80.0
4627,C2,172.25,0.25,95,80.0
4628,G#2,172.5,0.25,95,80.0
4629,B-4,172.5,0.25,63,80.0
4630,F#4,172.5,0.25,63,80.0
4631,C#4,172.5,0.25,63,80.0
4632,G#3,172.5,0.25,63,80.0
4633,G#4,172.5,0.25,63,80.0
4634,F#2,172.75,0.25,95,80.0
4635,B-4,172.75,123/500,63,80.0
4636,F#4,172.75,123/500,63,80.0
4637,C#4,172.75,123/500,63,80.0
4638,B-3,172.75,1.5,63,80.0
4639,B-4,172.75,1.5,63,80.0
4640,F#3,172.75,1.5,63,80.0
4641,F#4,172.75,1.5,63,80.0
4642,C#3,172.75,1.5,63,80.0
4643,C#4,172.75,1.5,63,80.0
4644,F#1,172.75,0.25,63,80.0
4645,F#2,172.75,0.25,63,80.0
4646,G#2,172.75,0.25,95,80.0
4647,C2,172.75,0.25,95,80.0
4648,F#2,173.0,1.0,95,80.0
4649,C#4,173.0,123/500,63,80.0
4650,F#4,173.0,123/500,63,80.0
4651,B-4,173.0,123/500,63,80.0
4652,F#1,173.0,1.0,63,80.0
4653,F#2,173.0,1.0,63,80.0
4654,G#2,173.0,0.25,95,80.0
4655,E2,173.0,0.25,95,80.0
4656,G#2,173.25,0.25,95,80.0
4657,B-4,173.25,123/500,63,80.0
4658,F#4,173.25,123/500,63,80.0
4659,C#4,173.25,123/500,63,80.0
4660,G#2,173.5,0.25,95,80.0
4661,C#4,173.5,123/500,63,80.0
4662,F#4,173.5,123/500,63,80.0
4663,B-4,173.5,123/500,63,80.0
4664,B-4,173.75,123/500,63,80.0
4665,F#4,173.75,123/500,63,80.0
4666,C#4,173.75,123/500,63,80.0
4667,G#2,173.75,0.25,95,80.0
4668,C2,173.75,0.25,95,80.0
4669,B3,174.0,0.5,95,80.0
4670,G#1,174.0,0.75,95,80.0
4671,G#2,174.0,6/25,95,80.0
4672,E-3,174.0,6/25,95,80.0
4673,G#3,174.0,6/25,95,80.0
4674,B3,174.0,6/25,95,80.0
4675,E-4,174.0,6/25,95,80.0
4676,G#4,174.0,6/25,95,80.0
4677,G#1,174.0,0.75,63,80.0
4678,G#2,174.0,0.75,63,80.0
4679,C#3,174.0,0.5,95,80.0
4680,C2,174.0,0.5,95,80.0
4681,G#4,174.25,121/500,63,80.0
4682,E-4,174.25,121/500,63,80.0
4683,B3,174.25,121/500,63,80.0
4684,G#3,174.25,121/500,63,80.0
4685,E-3,174.25,121/500,63,80.0
4686,C#3,174.25,0.25,63,80.0
4687,C#4,174.25,0.25,63,80.0
4688,C#4,174.5,0.25,95,80.0
4689,G#2,174.5,0.25,95,80.0
4690,E-3,174.5,121/500,63,80.0
4691,G#3,174.5,121/500,63,80.0
4692,B3,174.5,121/500,63,80.0
4693,E-4,174.5,121/500,63,80.0
4694,G#4,174.5,121/500,63,80.0
4695,B-3,174.5,0.5,63,80.0
4696,B-4,174.5,0.5,63,80.0
4697,F#3,174.5,0.5,63,80.0
4698,F#4,174.5,0.5,63,80.0
4699,C#4,174.75,0.5,95,80.0
4700,G#2,174.75,0.25,95,80.0
4701,G#1,174.75,0.25,95,80.0
4702,G#4,174.75,121/500,63,80.0
4703,E-4,174.75,121/500,63,80.0
4704,B3,174.75,121/500,63,80.0
4705,G#3,174.75,121/500,63,80.0
4706,E-3,174.75,121/500,63,80.0
4707,G#1,174.75,0.25,63,80.0
4708,G#2,174.75,0.25,63,80.0
4709,G#1,175.0,1.0,95,80.0
4710,E-3,175.0,121/500,63,80.0
4711,G#3,175.0,121/500,63,80.0
4712,B3,175.0,121/500,63,80.0
4713,E-4,175.0,121/500,63,80.0
4714,G#4,175.0,121/500,63,80.0
4715,F#3,175.0,0.5,63,80.0
4716,F#4,175.0,0.5,63,80.0
4717,G#1,175.0,1.0,63,80.0
4718,G#2,175.0,1.0,63,80.0
4719,G#2,175.0,0.25,95,80.0
4720,E2,175.0,0.25,95,80.0
4721,C#4,175.25,0.25,95,80.0
4722,G#2,175.25,0.25,95,80.0
4723,G#4,175.25,121/500,63,80.0
4724,E-4,175.25,121/500,63,80.0
4725,B3,175.25,121/500,63,80.0
4726,G#3,175.25,121/500,63,80.0
4727,E-3,175.25,121/500,63,80.0
4728,C#4,175.5,0.5,95,80.0
4729,G#2,175.5,0.25,95,80.0
4730,E-3,175.5,121/500,63,80.0
4731,G#3,175.5,121/500,63,80.0
4732,B3,175.5,121/500,63,80.0
4733,E-4,175.5,121/500,63,80.0
4734,G#4,175.5,121/500,63,80.0
4735,B-2,175.5,0.25,63,80.0
4736,B-3,175.5,0.25,63,80.0
4737,B-4,175.75,6/25,95,80.0
4738,F4,175.75,6/25,95,80.0
4739,C#4,175.75,6/25,95,80.0
4740,B-3,175.75,6/25,95,80.0
4741,F3,175.75,6/25,95,80.0
4742,B-2,175.75,6/25,95,80.0
4743,F#3,175.75,0.5,63,80.0
4744,F#4,175.75,0.5,63,80.0
4745,G#2,175.75,0.25,95,80.0
4746,C2,175.75,0.25,95,80.0
4747,C#4,176.0,0.25,95,80.0
4748,G#2,176.0,0.25,95,80.0
4749,B-1,176.0,0.75,95,80.0
4750,B-1,176.0,0.75,63,80.0
4751,B-2,176.0,0.75,63,80.0
4752,B-4,176.0,2.0,95,80.0
4753,F#4,176.0,2.0,95,80.0
4754,C#4,176.25,0.5,95,80.0
4755,B-4,176.25,121/500,95,80.0
4756,F4,176.25,121/500,95,80.0
4757,C#4,176.25,121/500,95,80.0
4758,B-3,176.25,121/500,95,80.0
4759,F3,176.25,121/500,95,80.0
4760,C#4,176.25,0.25,63,80.0
4761,C#5,176.25,0.25,63,80.0
4762,C#3,176.25,0.25,63,80.0
4763,C#4,176.25,0.25,63,80.0
4764,G#2,176.25,0.25,95,80.0
4765,C2,176.25,0.25,95,80.0
4766,G#2,176.5,0.25,95,80.0
4767,B3,176.5,0.25,63,80.0
4768,B4,176.5,0.25,63,80.0
4769,F#3,176.5,0.25,63,80.0
4770,F#4,176.5,0.25,63,80.0
4771,C#3,176.5,0.25,63,80.0
4772,C#4,176.5,0.25,63,80.0
4773,B-3,176.75,0.5,95,80.0
4774,B-1,176.75,0.25,95,80.0
4775,B-4,176.75,121/500,95,80.0
4776,F4,176.75,121/500,95,80.0
4777,C#4,176.75,121/500,95,80.0
4778,B-3,176.75,121/500,95,80.0
4779,F3,176.75,121/500,95,80.0
4780,B-3,176.75,1.5,63,80.0
4781,B-4,176.75,1.5,63,80.0
4782,E3,176.75,1.5,63,80.0
4783,E4,176.75,1.5,63,80.0
4784,C#3,176.75,1.5,63,80.0
4785,C#4,176.75,1.5,63,80.0
4786,B-1,176.75,0.25,63,80.0
4787,B-2,176.75,0.25,63,80.0
4788,G#2,176.75,0.25,95,80.0
4789,C2,176.75,0.25,95,80.0
4790,E4,177.0,1.0,111,80.0
4791,B-1,177.0,1.0,95,80.0
4792,F3,177.0,121/500,95,80.0
4793,B-3,177.0,121/500,95,80.0
4794,C#4,177.0,121/500,95,80.0
4795,F4,177.0,121/500,95,80.0
4796,B-4,177.0,121/500,95,80.0
4797,B-1,177.0,1.0,63,80.0
4798,B-2,177.0,1.0,63,80.0
4799,G#2,177.0,0.5,95,80.0
4800,E2,177.0,0.5,95,80.0
4801,B-4,177.25,121/500,63,80.0
4802,F4,177.25,121/500,63,80.0
4803,C#4,177.25,121/500,63,80.0
4804,B-3,177.25,121/500,63,80.0
4805,F3,177.25,121/500,63,80.0
4806,B-3,177.5,0.5,95,80.0
4807,F3,177.5,121/500,63,80.0
4808,B-3,177.5,121/500,63,80.0
4809,C#4,177.5,121/500,63,80.0
4810,F4,177.5,121/500,63,80.0
4811,B-4,177.5,121/500,63,80.0
4812,B-2,177.5,0.5,95,80.0
4813,C2,177.5,0.5,95,80.0
4814,B-4,177.75,121/500,63,80.0
4815,F4,177.75,121/500,63,80.0
4816,C#4,177.75,121/500,63,80.0
4817,B-3,177.75,121/500,63,80.0
4818,F3,177.75,121/500,63,80.0
4819,B3,178.0,0.25,95,80.0
4820,B1,178.0,0.75,95,80.0
4821,B2,178.0,6/25,95,80.0
4822,E-3,178.0,6/25,95,80.0
4823,F#3,178.0,6/25,95,80.0
4824,B3,178.0,6/25,95,80.0
4825,F#4,178.0,6/25,95,80.0
4826,B4,178.0,6/25,95,80.0
4827,B1,178.0,0.75,63,80.0
4828,B2,178.0,0.75,63,80.0
4829,G#2,178.0,0.25,95,80.0
4830,C2,178.0,0.25,95,80.0
4831,B-4,178.0,2.0,95,80.0
4832,F#4,178.0,2.0,95,80.0
4833,C#4,178.25,0.25,95,80.0
4834,G#2,178.25,0.25,95,80.0
4835,B4,178.25,121/500,63,80.0
4836,F#4,178.25,121/500,63,80.0
4837,B3,178.25,121/500,63,80.0
4838,F#3,178.25,121/500,63,80.0
4839,E-3,178.25,121/500,63,80.0
4840,C#4,178.25,0.25,63,80.0
4841,C#5,178.25,0.25,63,80.0
4842,C#4,178.5,0.25,95,80.0
4843,G#2,178.5,0.25,95,80.0
4844,E-3,178.5,121/500,63,80.0
4845,F#3,178.5,121/500,63,80.0
4846,B3,178.5,121/500,63,80.0
4847,F#4,178.5,121/500,63,80.0
4848,B4,178.5,121/500,63,80.0
4849,B3,178.5,0.25,63,80.0
4850,B4,178.5,0.25,63,80.0
4851,E3,178.5,0.25,63,80.0
4852,E4,178.5,0.25,63,80.0
4853,C#3,178.5,0.25,63,80.0
4854,C#4,178.5,0.25,63,80.0
4855,C#4,178.75,0.5,95,80.0
4856,G#2,178.75,0.25,95,80.0
4857,B1,178.75,0.25,95,80.0
4858,B4,178.75,121/500,63,80.0
4859,F#4,178.75,121/500,63,80.0
4860,B3,178.75,121/500,63,80.0
4861,F#3,178.75,121/500,63,80.0
4862,E-3,178.75,121/500,63,80.0
4863,B-3,178.75,0.25,63,80.0
4864,B-4,178.75,0.25,63,80.0
4865,E-3,178.75,0.25,63,80.0
4866,E-4,178.75,0.25,63,80.0
4867,C#3,178.75,0.25,63,80.0
4868,C#4,178.75,0.25,63,80.0
4869,B1,178.75,0.25,63,80.0
4870,B2,178.75,0.25,63,80.0
4871,E4,179.0,1.0,111,80.0
4872,B1,179.0,1.0,95,80.0
4873,E-3,179.0,121/500,63,80.0
4874,F#3,179.0,121/500,63,80.0
4875,B3,179.0,121/500,63,80.0
4876,F#4,179.0,121/500,63,80.0
4877,B4,179.0,121/500,63,80.0
4878,B1,179.0,1.0,63,80.0
4879,B2,179.0,1.0,63,80.0
4880,G#2,179.0,0.25,95,80.0
4881,E2,179.0,0.25,95,80.0
4882,C#4,179.25,0.5,95,80.0
4883,G#2,179.25,0.25,95,80.0
4884,B4,179.25,121/500,63,80.0
4885,F#4,179.25,121/500,63,80.0
4886,B3,179.25,121/500,63,80.0
4887,F#3,179.25,121/500,63,80.0
4888,E-3,179.25,121/500,63,80.0
4889,G#2,179.5,0.25,95,80.0
4890,E-3,179.5,121/500,63,80.0
4891,F#3,179.5,121/500,63,80.0
4892,B3,179.5,121/500,63,80.0
4893,F#4,179.5,121/500,63,80.0
4894,B4,179.5,121/500,63,80.0
4895,B-3,179.5,0.5,63,80.0
4896,B-4,179.5,0.5,63,80.0
4897,E-3,179.5,0.5,63,80.0
4898,E-4,179.5,0.5,63,80.0
4899,C#3,179.5,0.5,63,80.0
4900,C#4,179.5,0.5,63,80.0
4901,C#4,179.75,0.5,95,80.0
4902,G#4,179.75,121/500,95,80.0
4903,F4,179.75,121/500,95,80.0
4904,C#4,179.75,121/500,95,80.0
4905,G#3,179.75,121/500,95,80.0
4906,C#3,179.75,121/500,95,80.0
4907,G#2,179.75,0.25,95,80.0
4908,C2,179.75,0.25,95,80.0
4909,G#2,180.0,0.25,95,80.0
4910,C#2,180.0,0.75,95,80.0
4911,B-3,180.0,0.25,63,80.0
4912,B-4,180.0,0.25,63,80.0
4913,C#2,180.0,0.75,63,80.0
4914,C#3,180.0,0.75,63,80.0
4915,B-4,180.0,0.5,95,80.0
4916,F#4,180.0,0.5,95,80.0
4917,C#4,180.25,0.5,95,80.0
4918,G#4,180.25,61/250,95,80.0
4919,F4,180.25,61/250,95,80.0
4920,C#4,180.25,61/250,95,80.0
4921,G#3,180.25,61/250,95,80.0
4922,B-3,180.25,0.5,63,80.0
4923,B-4,180.25,0.5,63,80.0
4924,G#2,180.25,0.25,95,80.0
4925,C2,180.25,0.25,95,80.0
4926,G#2,180.5,0.25,95,80.0
4927,B-4,180.5,0.25,95,80.0
4928,F#4,180.5,0.25,95,80.0
4929,B-3,180.75,0.5,95,80.0
4930,C#2,180.75,0.25,95,80.0
4931,G#4,180.75,61/250,95,80.0
4932,F4,180.75,61/250,95,80.0
4933,C#4,180.75,61/250,95,80.0
4934,G#3,180.75,61/250,95,80.0
4935,B3,180.75,0.25,63,80.0
4936,B4,180.75,0.25,63,80.0
4937,C#2,180.75,0.25,63,80.0
4938,C#3,180.75,0.25,63,80.0
4939,G#2,180.75,0.25,95,80.0
4940,C2,180.75,0.25,95,80.0
4941,B-4,180.75,0.5,95,80.0
4942,F#4,180.75,0.5,95,80.0
4943,E4,181.0,1.0,111,80.0
4944,C#2,181.0,1.0,95,80.0
4945,G#3,181.0,61/250,95,80.0
4946,C#4,181.0,61/250,95,80.0
4947,F4,181.0,61/250,95,80.0
4948,G#4,181.0,61/250,95,80.0
4949,C#4,181.0,0.25,63,80.0
4950,C#5,181.0,0.25,63,80.0
4951,E-3,181.0,0.25,63,80.0
4952,E-4,181.0,0.25,63,80.0
4953,C#3,181.0,0.25,63,80.0
4954,C#4,181.0,0.25,63,80.0
4955,C#2,181.0,1.0,63,80.0
4956,C#3,181.0,1.0,63,80.0
4957,G#2,181.0,0.5,95,80.0
4958,E2,181.0,0.5,95,80.0
4959,G#4,181.25,61/250,63,80.0
4960,F4,181.25,61/250,63,80.0
4961,C#4,181.25,61/250,63,80.0
4962,G#3,181.25,61/250,63,80.0
4963,D4,181.25,0.5,63,80.0
4964,D5,181.25,0.5,63,80.0
4965,F#3,181.25,0.5,63,80.0
4966,F#4,181.25,0.5,63,80.0
4967,D3,181.25,0.5,63,80.0
4968,D4,181.25,0.5,63,80.0
4969,B2,181.25,0.5,63,80.0
4970,B3,181.25,0.5,63,80.0
4971,B4,181.25,0.25,95,80.0
4972,G#4,181.25,0.25,95,80.0
4973,G#3,181.5,61/250,63,80.0
4974,C#4,181.5,61/250,63,80.0
4975,F4,181.5,61/250,63,80.0
4976,G#4,181.5,61/250,63,80.0
4977,B-2,181.5,0.5,95,80.0
4978,C2,181.5,0.5,95,80.0
4979,C#5,181.5,0.25,95,80.0
4980,G#4,181.5,0.25,95,80.0
4981,B-3,181.75,0.25,95,80.0
4982,G#4,181.75,61/250,63,80.0
4983,F4,181.75,61/250,63,80.0
4984,C#4,181.75,61/250,63,80.0
4985,G#3,181.75,61/250,63,80.0
4986,B-3,181.75,0.5,63,80.0
4987,B-4,181.75,0.5,63,80.0
4988,F#3,181.75,0.5,63,80.0
4989,F#4,181.75,0.5,63,80.0
4990,D3,181.75,0.5,63,80.0
4991,D4,181.75,0.5,63,80.0
4992,B2,181.75,0.5,63,80.0
4993,B3,181.75,0.5,63,80.0
4994,D5,181.75,0.5,95,80.0
4995,B4,181.75,0.5,95,80.0
4996,B3,182.0,0.5,95,80.0
4997,E-2,182.0,0.75,95,80.0
4998,E-3,182.0,121/500,95,80.0
4999,G#3,182.0,121/500,95,80.0
5000,B3,182.0,121/500,95,80.0
5001,E-4,182.0,121/500,95,80.0
5002,G#4,182.0,121/500,95,80.0
5003,E-2,182.0,0.75,63,80.0
5004,E-3,182.0,0.75,63,80.0
5005,G#2,182.0,0.25,95,80.0
5006,C2,182.0,0.25,95,80.0
5007,G#2,182.25,0.25,95,80.0
5008,G#4,182.25,121/500,63,80.0
5009,E-4,182.25,121/500,63,80.0
5010,B3,182.25,121/500,63,80.0
5011,G#3,182.25,121/500,63,80.0
5012,E-3,182.25,121/500,63,80.0
5013,G#3,182.25,0.5,63,80.0
5014,G#4,182.25,0.5,63,80.0
5015,B-4,182.25,0.5,95,80.0
5016,F#4,182.25,0.5,95,80.0
5017,C#4,182.5,0.25,95,80.0
5018,G#2,182.5,0.25,95,80.0
5019,E-3,182.5,121/500,63,80.0
5020,G#3,182.5,121/500,63,80.0
5021,B3,182.5,121/500,63,80.0
5022,E-4,182.5,121/500,63,80.0
5023,G#4,182.5,121/500,63,80.0
5024,C#4,182.75,0.5,95,80.0
5025,G#2,182.75,0.25,95,80.0
5026,E-2,182.75,0.25,95,80.0
5027,G#4,182.75,121/500,63,80.0
5028,E-4,182.75,121/500,63,80.0
5029,B3,182.75,121/500,63,80.0
5030,G#3,182.75,121/500,63,80.0
5031,E-3,182.75,121/500,63,80.0
5032,B2,182.75,0.25,63,80.0
5033,B3,182.75,0.25,63,80.0
5034,E-2,182.75,0.25,63,80.0
5035,E-3,182.75,0.25,63,80.0
5036,G#4,182.75,0.5,95,80.0
5037,F#4,182.75,0.5,95,80.0
5038,E4,183.0,1.0,111,80.0
5039,E-2,183.0,1.0,95,80.0
5040,E-3,183.0,121/500,63,80.0
5041,G#3,183.0,121/500,63,80.0
5042,B3,183.0,121/500,63,80.0
5043,E-4,183.0,121/500,63,80.0
5044,G#4,183.0,121/500,63,80.0
5045,G#3,183.0,0.5,63,80.0
5046,G#4,183.0,0.5,63,80.0
5047,F#3,183.0,0.5,63,80.0
5048,F#4,183.0,0.5,63,80.0
5049,E-3,183.0,0.5,63,80.0
5050,E-4,183.0,0.5,63,80.0
5051,E-2,183.0,1.0,63,80.0
5052,E-3,183.0,1.0,63,80.0
5053,G#2,183.0,0.25,95,80.0
5054,E2,183.0,0.25,95,80.0
5055,C#4,183.25,0.5,95,80.0
5056,G#2,183.25,0.25,95,80.0
5057,G#4,183.25,121/500,63,80.0
5058,E-4,183.25,121/500,63,80.0
5059,B3,183.25,121/500,63,80.0
5060,G#3,183.25,121/500,63,80.0
5061,E-3,183.25,121/500,63,80.0
5062,G#4,183.25,0.5,95,80.0
5063,F#4,183.25,0.5,95,80.0
5064,G#2,183.5,0.25,95,80.0
5065,E-3,183.5,121/500,63,80.0
5066,G#3,183.5,121/500,63,80.0
5067,B3,183.5,121/500,63,80.0
5068,E-4,183.5,121/500,63,80.0
5069,G#4,183.5,121/500,63,80.0
5070,B-3,183.5,1.25,63,80.0
5071,B-4,183.5,1.25,63,80.0
5072,F#3,183.5,1.25,63,80.0
5073,F#4,183.5,1.25,63,80.0
5074,C#3,183.5,1.25,63,80.0
5075,C#4,183.5,1.25,63,80.0
5076,C#4,183.75,0.5,95,80.0
5077,B-4,183.75,121/500,95,80.0
5078,F4,183.75,121/500,95,80.0
5079,C#4,183.75,121/500,95,80.0
5080,B-3,183.75,121/500,95,80.0
5081,F3,183.75,121/500,95,80.0
5082,G#2,183.75,0.25,95,80.0
5083,C2,183.75,0.25,95,80.0
5084,G#4,183.75,0.25,95,80.0
5085,F#4,183.75,0.25,95,80.0
5086,G#2,184.0,0.25,95,80.0
5087,F2,184.0,0.75,95,80.0
5088,F2,184.0,0.75,63,80.0
5089,F3,184.0,0.75,63,80.0
5090,B-4,184.0,2.0,95,80.0
5091,F#4,184.0,2.0,95,80.0
5092,C#4,184.25,0.5,95,80.0
5093,B-4,184.25,121/500,95,80.0
5094,F4,184.25,121/500,95,80.0
5095,C#4,184.25,121/500,95,80.0
5096,B-3,184.25,121/500,95,80.0
5097,F3,184.25,121/500,95,80.0
5098,G#2,184.25,0.25,95,80.0
5099,C2,184.25,0.25,95,80.0
5100,G#2,184.5,0.25,95,80.0
5101,E-4,184.75,0.5,95,80.0
5102,F2,184.75,0.25,95,80.0
5103,B-4,184.75,121/500,95,80.0
5104,F4,184.75,121/500,95,80.0
5105,C#4,184.75,121/500,95,80.0
5106,B-3,184.75,121/500,95,80.0
5107,F3,184.75,121/500,95,80.0
5108,C#3,184.75,0.25,63,80.0
5109,C#4,184.75,0.25,63,80.0
5110,F2,184.75,0.25,63,80.0
5111,F3,184.75,0.25,63,80.0
5112,G#2,184.75,0.25,95,80.0
5113,C2,184.75,0.25,95,80.0
5114,E4,185.0,1.0,111,80.0
5115,F2,185.0,1.0,95,80.0
5116,F3,185.0,121/500,95,80.0
5117,B-3,185.0,121/500,95,80.0
5118,C#4,185.0,121/500,95,80.0
5119,F4,185.0,121/500,95,80.0
5120,B-4,185.0,121/500,95,80.0
5121,B-3,185.0,0.25,63,80.0
5122,B-4,185.0,0.25,63,80.0
5123,F#3,185.0,0.25,63,80.0
5124,F#4,185.0,0.25,63,80.0
5125,F2,185.0,1.0,63,80.0
5126,F3,185.0,1.0,63,80.0
5127,G#2,185.0,0.5,95,80.0
5128,E2,185.0,0.5,95,80.0
5129,B-3,185.25,0.25,95,80.0
5130,B-4,185.25,121/500,63,80.0
5131,F4,185.25,121/500,63,80.0
5132,C#4,185.25,121/500,63,80.0
5133,B-3,185.25,121/500,63,80.0
5134,F3,185.25,121/500,63,80.0
5135,G#3,185.25,1.5,63,80.0
5136,G#4,185.25,1.5,63,80.0
5137,F3,185.25,1.5,63,80.0
5138,F4,185.25,1.5,63,80.0
5139,C#3,185.25,1.5,63,80.0
5140,C#4,185.25,1.5,63,80.0
5141,B-3,185.5,0.25,95,80.0
5142,F3,185.5,121/500,63,80.0
5143,B-3,185.5,121/500,63,80.0
5144,C#4,185.5,121/500,63,80.0
5145,F4,185.5,121/500,63,80.0
5146,B-4,185.5,121/500,63,80.0
5147,B-2,185.5,0.5,95,80.0
5148,C2,185.5,0.5,95,80.0
5149,B3,185.75,0.25,95,80.0
5150,B-4,185.75,121/500,63,80.0
5151,F4,185.75,121/500,63,80.0
5152,C#4,185.75,121/500,63,80.0
5153,B-3,185.75,121/500,63,80.0
5154,F3,185.75,121/500,63,80.0
5155,B3,186.0,0.25,95,80.0
5156,F#2,186.0,0.75,95,80.0
5157,F#3,186.0,61/250,95,80.0
5158,B3,186.0,61/250,95,80.0
5159,E-4,186.0,61/250,95,80.0
5160,B4,186.0,61/250,95,80.0
5161,F#2,186.0,0.75,63,80.0
5162,F#3,186.0,0.75,63,80.0
5163,G#2,186.0,0.25,95,80.0
5164,C2,186.0,0.25,95,80.0
5165,G#4,186.0,1.0,95,80.0
5166,C#4,186.0,1.0,95,80.0
5167,C#4,186.25,0.5,95,80.0
5168,G#2,186.25,0.25,95,80.0
5169,B4,186.25,61/250,63,80.0
5170,E-4,186.25,61/250,63,80.0
5171,B3,186.25,61/250,63,80.0
5172,F#3,186.25,61/250,63,80.0
5173,G#2,186.5,0.25,95,80.0
5174,F#3,186.5,61/250,63,80.0
5175,B3,186.5,61/250,63,80.0
5176,E-4,186.5,61/250,63,80.0
5177,B4,186.5,61/250,63,80.0
5178,C#4,186.75,0.5,95,80.0
5179,G#2,186.75,0.25,95,80.0
5180,F#2,186.75,0.25,95,80.0
5181,B4,186.75,61/250,63,80.0
5182,E-4,186.75,61/250,63,80.0
5183,B3,186.75,61/250,63,80.0
5184,F#3,186.75,61/250,63,80.0
5185,C#3,186.75,0.25,63,80.0
5186,C#4,186.75,0.25,63,80.0
5187,F#2,186.75,0.25,63,80.0
5188,F#3,186.75,0.25,63,80.0
5189,E4,187.0,1.0,111,80.0
5190,F#2,187.0,1.0,95,80.0
5191,F#3,187.0,61/250,63,80.0
5192,B3,187.0,61/250,63,80.0
5193,E-4,187.0,61/250,63,80.0
5194,B4,187.0,61/250,63,80.0
5195,G#3,187.0,0.25,63,80.0
5196,G#4,187.0,0.25,63,80.0
5197,F3,187.0,0.25,63,80.0
5198,F4,187.0,0.25,63,80.0
5199,F#2,187.0,1.0,63,80.0
5200,F#3,187.0,1.0,63,80.0
5201,G#2,187.0,0.25,95,80.0
5202,E2,187.0,0.25,95,80.0
5203,C#5,187.0,1.0,95,80.0
5204,C#4,187.0,1.0,95,80.0
5205,C#4,187.25,0.25,95,80.0
5206,G#2,187.25,0.25,95,80.0
5207,B4,187.25,61/250,63,80.0
5208,E-4,187.25,61/250,63,80.0
5209,B3,187.25,61/250,63,80.0
5210,F#3,187.25,61/250,63,80.0
5211,B3,187.25,0.25,63,80.0
5212,B4,187.25,0.25,63,80.0
5213,F#3,187.25,0.25,63,80.0
5214,F#4,187.25,0.25,63,80.0
5215,E-3,187.25,0.25,63,80.0
5216,E-4,187.25,0.25,63,80.0
5217,C#4,187.5,0.25,95,80.0
5218,G#2,187.5,0.25,95,80.0
5219,F#3,187.5,61/250,63,80.0
5220,B3,187.5,61/250,63,80.0
5221,E-4,187.5,61/250,63,80.0
5222,B4,187.5,61/250,63,80.0
5223,C#4,187.75,0.5,95,80.0
5224,G#4,187.75,61/250,95,80.0
5225,F4,187.75,61/250,95,80.0
5226,C#4,187.75,61/250,95,80.0
5227,G#3,187.75,61/250,95,80.0
5228,G#2,187.75,0.25,95,80.0
5229,C2,187.75,0.25,95,80.0
5230,G#2,188.0,0.25,95,80.0
5231,G#2,188.0,0.75,95,80.0
5232,F#1,188.0,0.75,63,80.0
5233,F#2,188.0,0.75,63,80.0
5234,E-5,188.0,1.75,95,80.0
5235,B4,188.0,1.75,95,80.0
5236,C#4,188.25,0.5,95,80.0
5237,G#4,188.25,61/250,95,80.0
5238,F4,188.25,61/250,95,80.0
5239,C#4,188.25,61/250,95,80.0
5240,G#3,188.25,61/250,95,80.0
5241,G#2,188.25,0.25,95,80.0
5242,C2,188.25,0.25,95,80.0
5243,G#2,188.5,0.25,95,80.0
5244,B-3,188.75,0.75,95,80.0
5245,G#2,188.75,0.25,95,80.0
5246,G#4,188.75,61/250,95,80.0
5247,F4,188.75,61/250,95,80.0
5248,C#4,188.75,61/250,95,80.0
5249,G#3,188.75,61/250,95,80.0
5250,B3,188.75,1.25,63,80.0
5251,B4,188.75,1.25,63,80.0
5252,F#3,188.75,1.25,63,80.0
5253,F#4,188.75,1.25,63,80.0
5254,E-3,188.75,1.25,63,80.0
5255,E-4,188.75,1.25,63,80.0
5256,F#1,188.75,0.25,63,80.0
5257,F#2,188.75,0.25,63,80.0
5258,G#2,188.75,0.25,95,80.0
5259,C2,188.75,0.25,95,80.0
5260,E4,189.0,1.0,111,80.0
5261,E2,189.0,0.25,95,80.0
5262,G#2,189.0,1.0,95,80.0
5263,G#3,189.0,61/250,95,80.0
5264,C#4,189.0,61/250,95,80.0
5265,F4,189.0,61/250,95,80.0
5266,G#4,189.0,61/250,95,80.0
5267,G#1,189.0,1.0,63,80.0
5268,G#2,189.0,1.0,63,80.0
5269,E2,189.25,0.125,95,80.0
5270,G#4,189.25,61/250,63,80.0
5271,F4,189.25,61/250,63,80.0
5272,C#4,189.25,61/250,63,80.0
5273,G#3,189.25,61/250,63,80.0
5274,E2,189.375,31/250,95,80.0
5275,F#4,189.5,0.125,95,80.0
5276,E2,189.5,0.25,95,80.0
5277,G#3,189.5,61/250,63,80.0
5278,C#4,189.5,61/250,63,80.0
5279,F4,189.5,61/250,63,80.0
5280,G#4,189.5,61/250,63,80.0
5281,E-4,189.625,0.125,95,80.0
5282,B-3,189.75,0.25,95,80.0
5283,E2,189.75,0.25,95,80.0
5284,G#4,189.75,61/250,63,80.0
5285,F4,189.75,61/250,63,80.0
5286,C#4,189.75,61/250,63,80.0
5287,G#3,189.75,61/250,63,80.0
5288,B-4,189.75,0.25,95,80.0
5289,F#4,189.75,0.25,95,80.0
5290,B3,190.0,2.0,95,80.0
5291,C#2,190.0,0.75,95,80.0
5292,G#4,190.0,2.0,95,80.0
5293,E-4,190.0,2.0,95,80.0
5294,F#3,190.0,61/250,95,80.0
5295,C#4,190.0,61/250,95,80.0
5296,F#4,190.0,61/250,95,80.0
5297,C#5,190.0,61/250,95,80.0
5298,E-3,190.0,0.25,63,80.0
5299,E-4,190.0,0.25,63,80.0
5300,F#1,190.0,0.75,63,80.0
5301,F#2,190.0,0.75,63,80.0
5302,G#2,190.0,0.25,95,80.0
5303,C2,190.0,0.25,95,80.0
5304,G#2,190.25,0.25,95,80.0
5305,C#5,190.25,123/500,63,80.0
5306,F#4,190.25,123/500,63,80.0
5307,C#4,190.25,123/500,63,80.0
5308,B3,190.25,0.25,63,80.0
5309,B4,190.25,0.25,63,80.0
5310,F#3,190.25,0.25,63,80.0
5311,F#4,190.25,0.25,63,80.0
5312,G#2,190.5,0.25,95,80.0
5313,C#4,190.5,123/500,63,80.0
5314,F#4,190.5,123/500,63,80.0
5315,C#5,190.5,123/500,63,80.0
5316,B-3,190.5,0.25,63,80.0
5317,B-4,190.5,0.25,63,80.0
5318,F#3,190.5,0.25,63,80.0
5319,F#4,190.5,0.25,63,80.0
5320,C#3,190.5,0.25,63,80.0
5321,C#4,190.5,0.25,63,80.0
5322,G#2,190.75,0.25,95,80.0
5323,C#2,190.75,0.25,95,80.0
5324,C#5,190.75,123/500,63,80.0
5325,F#4,190.75,123/500,63,80.0
5326,C#4,190.75,123/500,63,80.0
5327,F#1,190.75,0.25,63,80.0
5328,F#2,190.75,0.25,63,80.0
5329,C#2,191.0,1.0,95,80.0
5330,C#4,191.0,123/500,63,80.0
5331,F#4,191.0,123/500,63,80.0
5332,C#5,191.0,123/500,63,80.0
5333,F#1,191.0,1.0,63,80.0
5334,F#2,191.0,1.0,63,80.0
5335,G#2,191.0,0.25,95,80.0
5336,E2,191.0,0.25,95,80.0
5337,G#2,191.25,0.25,95,80.0
5338,C#5,191.25,123/500,63,80.0
5339,F#4,191.25,123/500,63,80.0
5340,C#4,191.25,123/500,63,80.0
5341,G#2,191.5,0.25,95,80.0
5342,C#4,191.5,123/500,63,80.0
5343,F#4,191.5,123/500,63,80.0
5344,C#5,191.5,123/500,63,80.0
5345,C5,191.75,6/25,95,80.0
5346,F#4,191.75,6/25,95,80.0
5347,C4,191.75,6/25,95,80.0
5348,G#3,191.75,6/25,95,80.0
5349,E-3,191.75,6/25,95,80.0
5350,G#2,191.75,6/25,95,80.0
5351,G#2,191.75,0.25,95,80.0
5352,C2,191.75,0.25,95,80.0
5353,B-3,192.0,1.0,95,80.0
5354,G#2,192.0,0.25,95,80.0
5355,G#1,192.0,0.75,95,80.0
5356,F#4,192.0,2.0,95,80.0
5357,C#4,192.0,2.0,95,80.0
5358,B-3,192.0,1.25,63,80.0
5359,B-4,192.0,1.25,63,80.0
5360,F#3,192.0,1.25,63,80.0
5361,F#4,192.0,1.25,63,80.0
5362,C#3,192.0,1.25,63,80.0
5363,C#4,192.0,1.25,63,80.0
5364,G#1,192.0,0.75,63,80.0
5365,G#2,192.0,0.75,63,80.0
5366,C5,192.25,121/500,95,80.0
5367,F#4,192.25,121/500,95,80.0
5368,C4,192.25,121/500,95,80.0
5369,G#3,192.25,121/500,95,80.0
5370,E-3,192.25,121/500,95,80.0
5371,G#2,192.25,0.25,95,80.0
5372,C2,192.25,0.25,95,80.0
5373,G#2,192.5,0.25,95,80.0
5374,G#1,192.75,0.25,95,80.0
5375,C5,192.75,121/500,95,80.0
5376,F#4,192.75,121/500,95,80.0
5377,C4,192.75,121/500,95,80.0
5378,G#3,192.75,121/500,95,80.0
5379,E-3,192.75,121/500,95,80.0
5380,G#1,192.75,0.25,63,80.0
5381,G#2,192.75,0.25,63,80.0
5382,G#2,192.75,0.25,95,80.0
5383,C2,192.75,0.25,95,80.0
5384,G#1,193.0,1.0,95,80.0
5385,E-3,193.0,121/500,95,80.0
5386,G#3,193.0,121/500,95,80.0
5387,C4,193.0,121/500,95,80.0
5388,F#4,193.0,121/500,95,80.0
5389,C5,193.0,121/500,95,80.0
5390,G#1,193.0,1.0,63,80.0
5391,G#2,193.0,1.0,63,80.0
5392,G#2,193.0,0.5,95,80.0
5393,E2,193.0,0.5,95,80.0
5394,C5,193.25,121/500,63,80.0
5395,F#4,193.25,121/500,63,80.0
5396,C4,193.25,121/500,63,80.0
5397,G#3,193.25,121/500,63,80.0
5398,E-3,193.25,121/500,63,80.0
5399,C#3,193.25,0.25,63,80.0
5400,C#4,193.25,0.25,63,80.0
5401,F#3,193.5,0.5,95,80.0
5402,E-3,193.5,121/500,63,80.0
5403,G#3,193.5,121/500,63,80.0
5404,C4,193.5,121/500,63,80.0
5405,F#4,193.5,121/500,63,80.0
5406,C5,193.5,121/500,63,80.0
5407,G#3,193.5,0.25,63,80.0
5408,G#4,193.5,0.25,63,80.0
5409,B-2,193.5,0.5,95,80.0
5410,C2,193.5,0.5,95,80.0
5411,C5,193.75,121/500,63,80.0
5412,F#4,193.75,121/500,63,80.0
5413,C4,193.75,121/500,63,80.0
5414,G#3,193.75,121/500,63,80.0
5415,E-3,193.75,121/500,63,80.0
5416,B-3,193.75,1.5,63,80.0
5417,B-4,193.75,1.5,63,80.0
5418,F#3,193.75,1.5,63,80.0
5419,F#4,193.75,1.5,63,80.0
5420,C#3,193.75,1.5,63,80.0
5421,C#4,193.75,1.5,63,80.0
5422,E-4,194.0,0.125,95,80.0
5423,F#4,194.0,2.0,95,80.0
5424,C#2,194.0,0.75,95,80.0
5425,F#3,194.0,61/250,95,80.0
5426,B3,194.0,61/250,95,80.0
5427,E-4,194.0,61/250,95,80.0
5428,B4,194.0,61/250,95,80.0
5429,C#1,194.0,0.75,63,80.0
5430,C#2,194.0,0.75,63,80.0
5431,G#2,194.0,0.25,95,80.0
5432,C2,194.0,0.25,95,80.0
5433,F4,194.125,0.25,95,80.0
5434,G#2,194.25,0.25,95,80.0
5435,B4,194.25,61/250,63,80.0
5436,E-4,194.25,61/250,63,80.0
5437,B3,194.25,61/250,63,80.0
5438,F#3,194.25,61/250,63,80.0
5439,E-4,194.375,1.25,95,80.0
5440,G#2,194.5,0.25,95,80.0
5441,F#3,194.5,61/250,63,80.0
5442,B3,194.5,61/250,63,80.0
5443,E-4,194.5,61/250,63,80.0
5444,B4,194.5,61/250,63,80.0
5445,G#2,194.75,0.25,95,80.0
5446,C#2,194.75,0.25,95,80.0
5447,B4,194.75,61/250,63,80.0
5448,E-4,194.75,61/250,63,80.0
5449,B3,194.75,61/250,63,80.0
5450,F#3,194.75,61/250,63,80.0
5451,C#1,194.75,0.25,63,80.0
5452,C#2,194.75,0.25,63,80.0
5453,C#2,195.0,1.0,95,80.0
5454,F#3,195.0,61/250,63,80.0
5455,B3,195.0,61/250,63,80.0
5456,E-4,195.0,61/250,63,80.0
5457,B4,195.0,61/250,63,80.0
5458,C#1,195.0,1.0,63,80.0
5459,C#2,195.0,1.0,63,80.0
5460,G#2,195.0,0.25,95,80.0
5461,E2,195.0,0.25,95,80.0
5462,G#2,195.25,0.25,95,80.0
5463,B4,195.25,61/250,63,80.0
5464,E-4,195.25,61/250,63,80.0
5465,B3,195.25,61/250,63,80.0
5466,F#3,195.25,61/250,63,80.0
5467,C#3,195.25,0.75,63,80.0
5468,C#4,195.25,0.75,63,80.0
5469,G#2,195.5,0.25,95,80.0
5470,F#3,195.5,61/250,63,80.0
5471,B3,195.5,61/250,63,80.0
5472,E-4,195.5,61/250,63,80.0
5473,B4,195.5,61/250,63,80.0
5474,B-3,195.5,0.5,63,80.0
5475,B-4,195.5,0.5,63,80.0
5476,F#3,195.5,0.5,63,80.0
5477,F#4,195.5,0.5,63,80.0
5478,C#4,195.625,0.125,95,80.0
5479,B3,195.75,0.25,95,80.0
5480,B4,195.75,61/250,63,80.0
5481,E-4,195.75,61/250,63,80.0
5482,B3,195.75,61/250,63,80.0
5483,F#3,195.75,61/250,63,80.0
5484,G#2,195.75,0.25,95,80.0
5485,C2,195.75,0.25,95,80.0
5486,C#4,196.0,1.0,95,80.0
5487,F#4,196.0,1.0,95,80.0
5488,C#3,196.0,2.0,95,80.0
5489,C#2,196.0,4.0,95,80.0
5490,C#3,196.0,3.969,95,80.0
5491,G#3,196.0,3.969,95,80.0
5492,C#3,196.0,1.25,63,80.0
5493,C#4,196.0,1.25,63,80.0
5494,B-3,196.0,1.25,63,80.0
5495,B-4,196.0,1.25,63,80.0
5496,F#3,196.0,1.25,63,80.0
5497,F#4,196.0,1.25,63,80.0
5498,C#1,196.0,2.0,63,80.0
5499,C#2,196.0,2.0,63,80.0
5500,B3,196.062,3.906,95,80.0
5501,F4,196.062,3.906,95,80.0
5502,B4,196.125,3.875,95,80.0
5503,C#3,197.25,0.25,63,80.0
5504,C#4,197.25,0.25,63,80.0
5505,G#3,197.5,0.25,63,80.0
5506,G#4,197.5,0.25,63,80.0
5507,B-3,197.75,1.5,63,80.0
5508,B-4,197.75,1.5,63,80.0
5509,F#3,197.75,1.5,63,80.0
5510,F#4,197.75,1.5,63,80.0
5511,C#3,197.75,1.5,63,80.0
5512,C#4,197.75,1.5,63,80.0
5513,C#3,198.0,0.25,95,80.0
5514,B-4,198.0,4.0,95,80.0
5515,F#4,198.0,4.0,95,80.0
5516,A2,198.25,0.5,95,80.0
5517,A2,198.75,0.5,95,80.0
5518,G#4,199.25,0.5,95,80.0
5519,A2,199.25,0.25,95,80.0
5520,C#3,199.25,0.25,63,80.0
5521,C#4,199.25,0.25,63,80.0
5522,G2,199.5,0.25,95,80.0
5523,B-3,199.5,0.5,63,80.0
5524,B-4,199.5,0.5,63,80.0
5525,F#3,199.5,0.5,63,80.0
5526,F#4,199.5,0.5,63,80.0
5527,F#4,199.75,0.25,95,80.0
5528,G2,199.75,0.25,95,80.0
5529,F#4,200.0,0.25,95,80.0
5530,F#2,200.0,0.75,95,80.0
5531,F#3,200.0,61/250,95,80.0
5532,C#4,200.0,61/250,95,80.0
5533,F#4,200.0,61/250,95,80.0
5534,B-4,200.0,61/250,95,80.0
5535,G#3,200.0,1.25,63,80.0
5536,G#4,200.0,1.25,63,80.0
5537,E-3,200.0,1.25,63,80.0
5538,E-4,200.0,1.25,63,80.0
5539,B2,200.0,1.25,63,80.0
5540,B3,200.0,1.25,63,80.0
5541,F#1,200.0,0.75,63,80.0
5542,F#2,200.0,0.75,63,80.0
5543,C#3,200.0,0.5,95,80.0
5544,C2,200.0,0.5,95,80.0
5545,B-4,200.25,123/500,63,80.0
5546,F#4,200.25,123/500,63,80.0
5547,C#4,200.25,123/500,63,80.0
5548,G#2,200.5,0.25,95,80.0
5549,C#4,200.5,123/500,63,80.0
5550,F#4,200.5,123/500,63,80.0
5551,B-4,200.5,123/500,63,80.0
5552,G#2,200.75,0.25,95,80.0
5553,F#2,200.75,0.25,95,80.0
5554,B-4,200.75,123/500,63,80.0
5555,F#4,200.75,123/500,63,80.0
5556,C#4,200.75,123/500,63,80.0
5557,F#1,200.75,0.25,63,80.0
5558,F#2,200.75,0.25,63,80.0
5559,F#2,201.0,0.5,95,80.0
5560,C#4,201.0,123/500,63,80.0
5561,F#4,201.0,123/500,63,80.0
5562,B-4,201.0,123/500,63,80.0
5563,F#1,201.0,1.0,63,80.0
5564,F#2,201.0,1.0,63,80.0
5565,G#2,201.0,0.25,95,80.0
5566,E2,201.0,0.25,95,80.0
5567,F#4,201.25,0.25,95,80.0
5568,G#2,201.25,0.25,95,80.0
5569,B-4,201.25,123/500,63,80.0
5570,F#4,201.25,123/500,63,80.0
5571,C#4,201.25,123/500,63,80.0
5572,B2,201.25,0.25,63,80.0
5573,B3,201.25,0.25,63,80.0
5574,F#4,201.5,0.25,95,80.0
5575,G#2,201.5,0.25,95,80.0
5576,F#2,201.5,0.25,95,80.0
5577,C#4,201.5,123/500,63,80.0
5578,F#4,201.5,123/500,63,80.0
5579,B-4,201.5,123/500,63,80.0
5580,G#3,201.5,0.25,63,80.0
5581,G#4,201.5,0.25,63,80.0
5582,E-3,201.5,0.25,63,80.0
5583,E-4,201.5,0.25,63,80.0
5584,E-4,201.75,1.0,95,80.0
5585,F#2,201.75,1.0,95,80.0
5586,B-4,201.75,123/500,95,80.0
5587,E4,201.75,123/500,95,80.0
5588,C#4,201.75,123/500,95,80.0
5589,B-3,201.75,1.5,63,80.0
5590,B-4,201.75,1.5,63,80.0
5591,F#3,201.75,1.5,63,80.0
5592,F#4,201.75,1.5,63,80.0
5593,C#3,201.75,1.5,63,80.0
5594,C#4,201.75,1.5,63,80.0
5595,G#2,201.75,0.25,95,80.0
5596,C2,201.75,0.25,95,80.0
5597,G#2,202.0,0.25,95,80.0
5598,F#1,202.0,0.75,63,80.0
5599,F#2,202.0,0.75,63,80.0
5600,B-4,202.25,123/500,95,80.0
5601,E4,202.25,123/500,95,80.0
5602,C#4,202.25,123/500,95,80.0
5603,G#2,202.25,0.25,95,80.0
5604,C2,202.25,0.25,95,80.0
5605,G#2,202.5,0.25,95,80.0
5606,F#2,202.75,0.25,95,80.0
5607,B-4,202.75,123/500,95,80.0
5608,E4,202.75,123/500,95,80.0
5609,C#4,202.75,123/500,95,80.0
5610,F#1,202.75,0.25,63,80.0
5611,F#2,202.75,0.25,63,80.0
5612,G#2,202.75,0.25,95,80.0
5613,C2,202.75,0.25,95,80.0
5614,F#4,203.0,0.25,95,80.0
5615,F#2,203.0,1.0,95,80.0
5616,C#4,203.0,123/500,95,80.0
5617,E4,203.0,123/500,95,80.0
5618,B-4,203.0,123/500,95,80.0
5619,F#1,203.0,1.0,63,80.0
5620,F#2,203.0,1.0,63,80.0
5621,G#2,203.0,0.25,95,80.0
5622,E2,203.0,0.25,95,80.0
5623,G#2,203.25,0.25,95,80.0
5624,B-4,203.25,123/500,63,80.0
5625,E4,203.25,123/500,63,80.0
5626,C#4,203.25,123/500,63,80.0
5627,C#3,203.25,0.25,63,80.0
5628,C#4,203.25,0.25,63,80.0
5629,G#2,203.5,0.25,95,80.0
5630,C#4,203.5,123/500,63,80.0
5631,E4,203.5,123/500,63,80.0
5632,B-4,203.5,123/500,63,80.0
5633,B-3,203.5,0.25,63,80.0
5634,B-4,203.5,0.25,63,80.0
5635,F#3,203.5,0.25,63,80.0
5636,F#4,203.5,0.25,63,80.0
5637,C#4,203.75,0.25,95,80.0
5638,B-4,203.75,123/500,63,80.0
5639,E4,203.75,123/500,63,80.0
5640,C#4,203.75,123/500,63,80.0
5641,B3,203.75,0.25,63,80.0
5642,B4,203.75,0.25,63,80.0
5643,F#3,203.75,0.25,63,80.0
5644,F#4,203.75,0.25,63,80.0
5645,E-3,203.75,0.25,63,80.0
5646,E-4,203.75,0.25,63,80.0
5647,G#2,203.75,0.25,95,80.0
5648,C2,203.75,0.25,95,80.0
5649,B3,204.0,0.25,95,80.0
5650,F#2,204.0,0.75,95,80.0
5651,F#3,204.0,61/250,95,80.0
5652,C#4,204.0,61/250,95,80.0
5653,E-4,204.0,61/250,95,80.0
5654,B-4,204.0,61/250,95,80.0
5655,F#1,204.0,0.75,63,80.0
5656,F#2,204.0,0.75,63,80.0
5657,G#2,204.0,0.25,95,80.0
5658,C2,204.0,0.25,95,80.0
5659,B3,204.25,0.5,95,80.0
5660,G#2,204.25,0.25,95,80.0
5661,B-4,204.25,123/500,63,80.0
5662,E-4,204.25,123/500,63,80.0
5663,C#4,204.25,123/500,63,80.0
5664,G#2,204.5,0.25,95,80.0
5665,C#4,204.5,123/500,63,80.0
5666,E-4,204.5,123/500,63,80.0
5667,B-4,204.5,123/500,63,80.0
5668,B3,204.75,0.5,95,80.0
5669,G#2,204.75,0.25,95,80.0
5670,F#2,204.75,0.25,95,80.0
5671,B-4,204.75,123/500,63,80.0
5672,E-4,204.75,123/500,63,80.0
5673,C#4,204.75,123/500,63,80.0
5674,F#1,204.75,0.25,63,80.0
5675,F#2,204.75,0.25,63,80.0
5676,F#2,205.0,0.5,95,80.0
5677,C#4,205.0,123/500,63,80.0
5678,E-4,205.0,123/500,63,80.0
5679,B-4,205.0,123/500,63,80.0
5680,F#1,205.0,1.0,63,80.0
5681,F#2,205.0,1.0,63,80.0
5682,G#2,205.0,0.25,95,80.0
5683,E2,205.0,0.25,95,80.0
5684,C#4,205.25,0.25,95,80.0
5685,G#2,205.25,0.25,95,80.0
5686,B-4,205.25,123/500,63,80.0
5687,E-4,205.25,123/500,63,80.0
5688,C#4,205.25,123/500,63,80.0
5689,B3,205.25,1.25,63,80.0
5690,B4,205.25,1.25,63,80.0
5691,F#3,205.25,1.25,63,80.0
5692,F#4,205.25,1.25,63,80.0
5693,E-3,205.25,1.25,63,80.0
5694,E-4,205.25,1.25,63,80.0
5695,D4,205.5,0.25,95,80.0
5696,G#2,205.5,0.25,95,80.0
5697,F#2,205.5,0.25,95,80.0
5698,C#4,205.5,123/500,63,80.0
5699,E-4,205.5,123/500,63,80.0
5700,B-4,205.5,123/500,63,80.0
5701,D4,205.75,0.5,95,80.0
5702,F#2,205.75,1.0,95,80.0
5703,B4,205.75,61/250,95,80.0
5704,G#4,205.75,61/250,95,80.0
5705,D4,205.75,61/250,95,80.0
5706,F#3,205.75,61/250,95,80.0
5707,G#2,205.75,0.25,95,80.0
5708,C2,205.75,0.25,95,80.0
5709,G#2,206.0,0.25,95,80.0
5710,F#1,206.0,0.75,63,80.0
5711,F#2,206.0,0.75,63,80.0
5712,B-4,206.0,4.0,95,80.0
5713,F#4,206.0,4.0,95,80.0
5714,B3,206.25,0.125,95,80.0
5715,B4,206.25,123/500,95,80.0
5716,G#4,206.25,123/500,95,80.0
5717,D4,206.25,123/500,95,80.0
5718,G#2,206.25,0.25,95,80.0
5719,C2,206.25,0.25,95,80.0
5720,C#4,206.375,0.125,95,80.0
5721,D4,206.5,0.125,95,80.0
5722,G#2,206.5,0.25,95,80.0
5723,E-3,206.5,0.25,63,80.0
5724,E-4,206.5,0.25,63,80.0
5725,B3,206.625,0.125,95,80.0
5726,E4,206.75,0.75,95,80.0
5727,F#2,206.75,0.25,95,80.0
5728,B4,206.75,123/500,95,80.0
5729,G#4,206.75,123/500,95,80.0
5730,D4,206.75,123/500,95,80.0
5731,B3,206.75,0.25,63,80.0
5732,B4,206.75,0.25,63,80.0
5733,F#3,206.75,0.25,63,80.0
5734,F#4,206.75,0.25,63,80.0
5735,F#1,206.75,0.25,63,80.0
5736,F#2,206.75,0.25,63,80.0
5737,G#2,206.75,0.25,95,80.0
5738,C2,206.75,0.25,95,80.0
5739,F#2,207.0,1.0,95,80.0
5740,D4,207.0,123/500,95,80.0
5741,G#4,207.0,123/500,95,80.0
5742,B4,207.0,123/500,95,80.0
5743,C#4,207.0,1.5,63,80.0
5744,C#5,207.0,1.5,63,80.0
5745,G#3,207.0,1.5,63,80.0
5746,G#4,207.0,1.5,63,80.0
5747,F3,207.0,1.5,63,80.0
5748,F4,207.0,1.5,63,80.0
5749,F#1,207.0,1.0,63,80.0
5750,F#2,207.0,1.0,63,80.0
5751,G#2,207.0,0.25,95,80.0
5752,E2,207.0,0.25,95,80.0
5753,G#2,207.25,0.25,95,80.0
5754,B4,207.25,123/500,63,80.0
5755,G#4,207.25,123/500,63,80.0
5756,D4,207.25,123/500,63,80.0
5757,G#2,207.5,0.25,95,80.0
5758,D4,207.5,123/500,63,80.0
5759,G#4,207.5,123/500,63,80.0
5760,B4,207.5,123/500,63,80.0
5761,B4,207.75,123/500,63,80.0
5762,G#4,207.75,123/500,63,80.0
5763,D4,207.75,123/500,63,80.0
5764,G#2,207.75,0.25,95,80.0
5765,C2,207.75,0.25,95,80.0
5766,G#3,208.0,2.0,95,80.0
5767,F#2,208.0,0.75,95,80.0
5768,F#3,208.0,61/250,95,80.0
5769,C#4,208.0,61/250,95,80.0
5770,F#4,208.0,61/250,95,80.0
5771,B-4,208.0,61/250,95,80.0
5772,F#1,208.0,0.75,63,80.0
5773,F#2,208.0,0.75,63,80.0
5774,G#2,208.0,0.25,95,80.0
5775,C2,208.0,0.25,95,80.0
5776,G#2,208.25,0.25,95,80.0
5777,B-4,208.25,123/500,63,80.0
5778,F#4,208.25,123/500,63,80.0
5779,C#4,208.25,123/500,63,80.0
5780,G#2,208.5,0.25,95,80.0
5781,C#4,208.5,123/500,63,80.0
5782,F#4,208.5,123/500,63,80.0
5783,B-4,208.5,123/500,63,80.0
5784,F3,208.5,0.25,63,80.0
5785,F4,208.5,0.25,63,80.0
5786,G#2,208.75,0.25,95,80.0
5787,F#2,208.75,0.25,95,80.0
5788,B-4,208.75,123/500,63,80.0
5789,F#4,208.75,123/500,63,80.0
5790,C#4,208.75,123/500,63,80.0
5791,C#4,208.75,0.5,63,80.0
5792,C#5,208.75,0.5,63,80.0
5793,G#3,208.75,0.5,63,80.0
5794,G#4,208.75,0.5,63,80.0
5795,F#1,208.75,0.25,63,80.0
5796,F#2,208.75,0.25,63,80.0
5797,F#2,209.0,0.5,95,80.0
5798,C#4,209.0,123/500,63,80.0
5799,F#4,209.0,123/500,63,80.0
5800,B-4,209.0,123/500,63,80.0
5801,F#1,209.0,1.0,63,80.0
5802,F#2,209.0,1.0,63,80.0
5803,G#2,209.0,0.25,95,80.0
5804,E2,209.0,0.25,95,80.0
5805,G#2,209.25,0.25,95,80.0
5806,B-4,209.25,123/500,63,80.0
5807,F#4,209.25,123/500,63,80.0
5808,C#4,209.25,123/500,63,80.0
5809,G#3,209.25,1.25,63,80.0
5810,G#4,209.25,1.25,63,80.0
5811,E-3,209.25,1.25,63,80.0
5812,E-4,209.25,1.25,63,80.0
5813,B2,209.25,1.25,63,80.0
5814,B3,209.25,1.25,63,80.0
5815,G#2,209.5,0.25,95,80.0
5816,F#2,209.5,0.25,95,80.0
5817,C#4,209.5,123/500,63,80.0
5818,F#4,209.5,123/500,63,80.0
5819,B-4,209.5,123/500,63,80.0
5820,C#2,209.75,1.0,95,80.0
5821,G#4,209.75,121/500,95,80.0
5822,F4,209.75,121/500,95,80.0
5823,C#4,209.75,121/500,95,80.0
5824,G#3,209.75,121/500,95,80.0
5825,C#3,209.75,121/500,95,80.0
5826,G#2,209.75,0.25,95,80.0
5827,C2,209.75,0.25,95,80.0
5828,G#3,210.0,1.0,95,80.0
5829,G#2,210.0,0.25,95,80.0
5830,F#4,210.0,2.0,95,80.0
5831,C#1,210.0,0.75,63,80.0
5832,C#2,210.0,0.75,63,80.0
5833,G#4,210.25,61/250,95,80.0
5834,F4,210.25,61/250,95,80.0
5835,C#4,210.25,61/250,95,80.0
5836,G#3,210.25,61/250,95,80.0
5837,G#2,210.25,0.25,95,80.0
5838,C2,210.25,0.25,95,80.0
5839,G#2,210.5,0.25,95,80.0
5840,B2,210.5,0.25,63,80.0
5841,B3,210.5,0.25,63,80.0
5842,C#2,210.75,0.25,95,80.0
5843,G#4,210.75,61/250,95,80.0
5844,F4,210.75,61/250,95,80.0
5845,C#4,210.75,61/250,95,80.0
5846,G#3,210.75,61/250,95,80.0
5847,G#3,210.75,0.25,63,80.0
5848,G#4,210.75,0.25,63,80.0
5849,E-3,210.75,0.25,63,80.0
5850,E-4,210.75,0.25,63,80.0
5851,C#1,210.75,0.25,63,80.0
5852,C#2,210.75,0.25,63,80.0
5853,G#2,210.75,0.25,95,80.0
5854,C2,210.75,0.25,95,80.0
5855,G#3,211.0,1.0,95,80.0
5856,C#2,211.0,1.0,95,80.0
5857,G#3,211.0,61/250,95,80.0
5858,C#4,211.0,61/250,95,80.0
5859,F4,211.0,61/250,95,80.0
5860,G#4,211.0,61/250,95,80.0
5861,B-3,211.0,1.5,63,80.0
5862,B-4,211.0,1.5,63,80.0
5863,F#3,211.0,1.5,63,80.0
5864,F#4,211.0,1.5,63,80.0
5865,C#3,211.0,1.5,63,80.0
5866,C#4,211.0,1.5,63,80.0
5867,C#1,211.0,1.0,63,80.0
5868,C#2,211.0,1.0,63,80.0
5869,G#2,211.0,0.25,95,80.0
5870,E2,211.0,0.25,95,80.0
5871,G#2,211.25,0.25,95,80.0
5872,G#4,211.25,61/250,63,80.0
5873,F4,211.25,61/250,63,80.0
5874,C#4,211.25,61/250,63,80.0
5875,G#3,211.25,61/250,63,80.0
5876,G#2,211.5,0.25,95,80.0
5877,G#3,211.5,61/250,63,80.0
5878,C#4,211.5,61/250,63,80.0
5879,F4,211.5,61/250,63,80.0
5880,G#4,211.5,61/250,63,80.0
5881,G#4,211.75,61/250,63,80.0
5882,F4,211.75,61/250,63,80.0
5883,C#4,211.75,61/250,63,80.0
5884,G#3,211.75,61/250,63,80.0
5885,G#2,211.75,0.25,95,80.0
5886,C2,211.75,0.25,95,80.0
5887,A3,212.0,1.25,95,80.0
5888,F#2,212.0,0.75,95,80.0
5889,G#4,212.0,2.0,95,80.0
5890,F#3,212.0,61/250,95,80.0
5891,B3,212.0,61/250,95,80.0
5892,F#4,212.0,61/250,95,80.0
5893,B4,212.0,61/250,95,80.0
5894,B0,212.0,0.75,63,80.0
5895,B1,212.0,0.75,63,80.0
5896,G#2,212.0,0.25,95,80.0
5897,C2,212.0,0.25,95,80.0
5898,G#2,212.25,0.25,95,80.0
5899,B4,212.25,61/250,63,80.0
5900,F#4,212.25,61/250,63,80.0
5901,B3,212.25,61/250,63,80.0
5902,F#3,212.25,61/250,63,80.0
5903,G#2,212.5,0.25,95,80.0
5904,F#3,212.5,61/250,63,80.0
5905,B3,212.5,61/250,63,80.0
5906,F#4,212.5,61/250,63,80.0
5907,B4,212.5,61/250,63,80.0
5908,C#3,212.5,0.25,63,80.0
5909,C#4,212.5,0.25,63,80.0
5910,G#2,212.75,0.25,95,80.0
5911,F#2,212.75,0.25,95,80.0
5912,B4,212.75,61/250,63,80.0
5913,F#4,212.75,61/250,63,80.0
5914,B3,212.75,61/250,63,80.0
5915,F#3,212.75,61/250,63,80.0
5916,B-3,212.75,0.25,63,80.0
5917,B-4,212.75,0.25,63,80.0
5918,F#3,212.75,0.25,63,80.0
5919,F#4,212.75,0.25,63,80.0
5920,B0,212.75,0.25,63,80.0
5921,B1,212.75,0.25,63,80.0
5922,F#2,213.0,0.5,95,80.0
5923,F#3,213.0,61/250,63,80.0
5924,B3,213.0,61/250,63,80.0
5925,F#4,213.0,61/250,63,80.0
5926,B4,213.0,61/250,63,80.0
5927,B3,213.0,0.25,63,80.0
5928,B4,213.0,0.25,63,80.0
5929,F#3,213.0,0.25,63,80.0
5930,F#4,213.0,0.25,63,80.0
5931,E-3,213.0,0.25,63,80.0
5932,E-4,213.0,0.25,63,80.0
5933,B0,213.0,1.0,63,80.0
5934,B1,213.0,1.0,63,80.0
5935,G#2,213.0,0.25,95,80.0
5936,E2,213.0,0.25,95,80.0
5937,C#4,213.25,0.25,95,80.0
5938,G#2,213.25,0.25,95,80.0
5939,B4,213.25,61/250,63,80.0
5940,F#4,213.25,61/250,63,80.0
5941,B3,213.25,61/250,63,80.0
5942,F#3,213.25,61/250,63,80.0
5943,B3,213.5,0.25,95,80.0
5944,G#2,213.5,0.25,95,80.0
5945,F#2,213.5,0.5,95,80.0
5946,F#3,213.5,61/250,63,80.0
5947,B3,213.5,61/250,63,80.0
5948,F#4,213.5,61/250,63,80.0
5949,B4,213.5,61/250,63,80.0
5950,B-3,213.75,0.25,95,80.0
5951,B4,213.75,61/250,63,80.0
5952,F#4,213.75,61/250,63,80.0
5953,B3,213.75,61/250,63,80.0
5954,F#3,213.75,61/250,63,80.0
5955,G#2,213.75,0.25,95,80.0
5956,C2,213.75,0.25,95,80.0
5957,B-3,214.0,0.5,95,80.0
5958,F#2,214.0,0.75,95,80.0
5959,A4,214.0,2.0,95,80.0
5960,F#1,214.0,0.75,63,80.0
5961,F#2,214.0,0.75,63,80.0
5962,G#2,214.0,0.25,95,80.0
5963,C2,214.0,0.25,95,80.0
5964,G#2,214.25,0.25,95,80.0
5965,B-4,214.25,123/500,95,80.0
5966,F#4,214.25,123/500,95,80.0
5967,C#4,214.25,123/500,95,80.0
5968,G#2,214.5,0.25,95,80.0
5969,B3,214.5,1.25,63,80.0
5970,B4,214.5,1.25,63,80.0
5971,F#3,214.5,1.25,63,80.0
5972,F#4,214.5,1.25,63,80.0
5973,E-3,214.5,1.25,63,80.0
5974,E-4,214.5,1.25,63,80.0
5975,G#2,214.75,0.25,95,80.0
5976,F#2,214.75,0.25,95,80.0
5977,B-4,214.75,123/500,63,80.0
5978,F#4,214.75,123/500,63,80.0
5979,C#4,214.75,123/500,63,80.0
5980,F#1,214.75,0.25,63,80.0
5981,F#2,214.75,0.25,63,80.0
5982,F#2,215.0,0.5,95,80.0
5983,C#4,215.0,123/500,63,80.0
5984,F#4,215.0,123/500,63,80.0
5985,B-4,215.0,123/500,63,80.0
5986,F#1,215.0,1.0,63,80.0
5987,F#2,215.0,1.0,63,80.0
5988,G#2,215.0,0.25,95,80.0
5989,E2,215.0,0.25,95,80.0
5990,G#2,215.25,0.25,95,80.0
5991,B-4,215.25,123/500,63,80.0
5992,F#4,215.25,123/500,63,80.0
5993,C#4,215.25,123/500,63,80.0
5994,G#2,215.5,0.25,95,80.0
5995,F#2,215.5,0.25,95,80.0
5996,C#4,215.5,123/500,63,80.0
5997,F#4,215.5,123/500,63,80.0
5998,B-4,215.5,123/500,63,80.0
5999,F#2,215.75,1.0,95,80.0
6000,B-4,215.75,123/500,63,80.0
6001,F#4,215.75,123/500,63,80.0
6002,C#4,215.75,123/500,63,80.0
6003,E-3,215.75,0.25,63,80.0
6004,E-4,215.75,0.25,63,80.0
6005,G#2,215.75,0.25,95,80.0
6006,C2,215.75,0.25,95,80.0
6007,G#2,216.0,0.25,95,80.0
6008,B4,216.0,2.0,95,80.0
6009,B-4,216.0,0.25,95,80.0
6010,F#4,216.0,0.25,95,80.0
6011,C#4,216.0,0.25,95,80.0
6012,F#3,216.0,0.25,95,80.0
6013,B3,216.0,0.25,63,80.0
6014,B4,216.0,0.25,63,80.0
6015,F#3,216.0,0.25,63,80.0
6016,F#4,216.0,0.25,63,80.0
6017,F#1,216.0,0.75,63,80.0
6018,F#2,216.0,0.75,63,80.0
6019,B-4,216.25,123/500,63,80.0
6020,F#4,216.25,123/500,63,80.0
6021,C#4,216.25,123/500,63,80.0
6022,C#4,216.25,1.5,63,80.0
6023,C#5,216.25,1.5,63,80.0
6024,G#3,216.25,1.5,63,80.0
6025,G#4,216.25,1.5,63,80.0
6026,F3,216.25,1.5,63,80.0
6027,F4,216.25,1.5,63,80.0
6028,G#2,216.25,0.25,95,80.0
6029,C2,216.25,0.25,95,80.0
6030,G#2,216.5,0.25,95,80.0
6031,B-4,216.5,0.25,63,80.0
6032,F#4,216.5,0.25,63,80.0
6033,C#4,216.5,0.25,63,80.0
6034,F#2,216.75,0.25,95,80.0
6035,B-4,216.75,123/500,63,80.0
6036,F#4,216.75,123/500,63,80.0
6037,C#4,216.75,123/500,63,80.0
6038,F#1,216.75,0.25,63,80.0
6039,F#2,216.75,0.25,63,80.0
6040,G#2,216.75,0.25,95,80.0
6041,C2,216.75,0.25,95,80.0
6042,F#2,217.0,1.0,95,80.0
6043,C#4,217.0,123/500,63,80.0
6044,F#4,217.0,123/500,63,80.0
6045,B-4,217.0,123/500,63,80.0
6046,F#1,217.0,1.0,63,80.0
6047,F#2,217.0,1.0,63,80.0
6048,G#2,217.0,0.25,95,80.0
6049,E2,217.0,0.25,95,80.0
6050,C#4,217.25,0.25,95,80.0
6051,G#2,217.25,0.25,95,80.0
6052,B-4,217.25,123/500,63,80.0
6053,F#4,217.25,123/500,63,80.0
6054,C#4,217.25,123/500,63,80.0
6055,B3,217.5,0.25,95,80.0
6056,G#2,217.5,0.25,95,80.0
6057,C#4,217.5,123/500,63,80.0
6058,F#4,217.5,123/500,63,80.0
6059,B-4,217.5,123/500,63,80.0
6060,B-3,217.75,0.25,95,80.0
6061,B-4,217.75,123/500,63,80.0
6062,F#4,217.75,123/500,63,80.0
6063,C#4,217.75,123/500,63,80.0
6064,F3,217.75,0.25,63,80.0
6065,F4,217.75,0.25,63,80.0
6066,G#2,217.75,0.25,95,80.0
6067,C2,217.75,0.25,95,80.0
6068,B-3,218.0,0.25,95,80.0
6069,F#2,218.0,0.75,95,80.0
6070,C#5,218.0,2.0,95,80.0
6071,F#3,218.0,61/250,95,80.0
6072,C#4,218.0,61/250,95,80.0
6073,F#4,218.0,61/250,95,80.0
6074,B-4,218.0,61/250,95,80.0
6075,C#4,218.0,0.5,63,80.0
6076,C#5,218.0,0.5,63,80.0
6077,G#3,218.0,0.5,63,80.0
6078,G#4,218.0,0.5,63,80.0
6079,F#1,218.0,0.75,63,80.0
6080,F#2,218.0,0.75,63,80.0
6081,C#3,218.0,0.5,95,80.0
6082,C2,218.0,0.5,95,80.0
6083,B-4,218.25,123/500,63,80.0
6084,F#4,218.25,123/500,63,80.0
6085,C#4,218.25,123/500,63,80.0
6086,G#2,218.5,0.25,95,80.0
6087,C#4,218.5,123/500,63,80.0
6088,F#4,218.5,123/500,63,80.0
6089,B-4,218.5,123/500,63,80.0
6090,C#3,218.5,1.219,63,80.0
6091,C#4,218.5,1.219,63,80.0
6092,F#3,218.5,1.219,63,80.0
6093,F#4,218.5,1.219,63,80.0
6094,B-3,218.562,1.156,63,80.0
6095,B-4,218.562,1.156,63,80.0
6096,C#4,218.562,1.156,63,80.0
6097,C#5,218.562,1.156,63,80.0
6098,G#2,218.75,0.25,95,80.0
6099,F#2,218.75,0.25,95,80.0
6100,B-4,218.75,123/500,63,80.0
6101,F#4,218.75,123/500,63,80.0
6102,C#4,218.75,123/500,63,80.0
6103,F#1,218.75,0.25,63,80.0
6104,F#2,218.75,0.25,63,80.0
6105,F#2,219.0,0.5,95,80.0
6106,C#4,219.0,123/500,63,80.0
6107,F#4,219.0,123/500,63,80.0
6108,B-4,219.0,123/500,63,80.0
6109,F#1,219.0,1.0,63,80.0
6110,F#2,219.0,1.0,63,80.0
6111,G#2,219.0,0.25,95,80.0
6112,E2,219.0,0.25,95,80.0
6113,C#4,219.25,0.25,95,80.0
6114,G#2,219.25,0.25,95,80.0
6115,B-4,219.25,123/500,63,80.0
6116,F#4,219.25,123/500,63,80.0
6117,C#4,219.25,123/500,63,80.0
6118,B3,219.5,0.25,95,80.0
6119,G#2,219.5,0.25,95,80.0
6120,F#2,219.5,0.25,95,80.0
6121,C#4,219.5,123/500,63,80.0
6122,F#4,219.5,123/500,63,80.0
6123,B-4,219.5,123/500,63,80.0
6124,B-3,219.75,0.5,95,80.0
6125,F#2,219.75,1.0,95,80.0
6126,B-4,219.75,123/500,95,80.0
6127,E4,219.75,123/500,95,80.0
6128,C#4,219.75,123/500,95,80.0
6129,C#3,219.75,0.25,63,80.0
6130,C#4,219.75,0.25,63,80.0
6131,G#2,219.75,0.25,95,80.0
6132,C2,219.75,0.25,95,80.0
6133,G#2,220.0,0.25,95,80.0
6134,E-5,220.0,2.0,95,80.0
6135,F#3,220.0,0.469,63,80.0
6136,F#4,220.0,0.469,63,80.0
6137,B-3,220.0,0.469,63,80.0
6138,B-4,220.0,0.469,63,80.0
6139,C#4,220.0,0.469,63,80.0
6140,C#5,220.0,0.469,63,80.0
6141,F#1,220.0,0.75,63,80.0
6142,F#2,220.0,0.75,63,80.0
6143,B-4,220.25,123/500,95,80.0
6144,E4,220.25,123/500,95,80.0
6145,C#4,220.25,123/500,95,80.0
6146,G#2,220.25,0.25,95,80.0
6147,C2,220.25,0.25,95,80.0
6148,G#2,220.5,0.25,95,80.0
6149,C4,220.5,1.0,63,80.0
6150,C5,220.5,1.0,63,80.0
6151,G#3,220.5,1.0,63,80.0
6152,G#4,220.5,1.0,63,80.0
6153,F#3,220.5,1.0,63,80.0
6154,F#4,220.5,1.0,63,80.0
6155,E-3,220.5,1.0,63,80.0
6156,E-4,220.5,1.0,63,80.0
6157,F#2,220.75,0.25,95,80.0
6158,B-4,220.75,123/500,95,80.0
6159,E4,220.75,123/500,95,80.0
6160,C#4,220.75,123/500,95,80.0
6161,F#1,220.75,0.25,63,80.0
6162,F#2,220.75,0.25,63,80.0
6163,G#2,220.75,0.25,95,80.0
6164,C2,220.75,0.25,95,80.0
6165,F#2,221.0,1.0,95,80.0
6166,C#4,221.0,123/500,95,80.0
6167,E4,221.0,123/500,95,80.0
6168,B-4,221.0,123/500,95,80.0
6169,F#1,221.0,1.0,63,80.0
6170,F#2,221.0,1.0,63,80.0
6171,G#2,221.0,0.25,95,80.0
6172,E2,221.0,0.25,95,80.0
6173,C#4,221.25,0.25,95,80.0
6174,G#2,221.25,0.25,95,80.0
6175,B-4,221.25,123/500,63,80.0
6176,E4,221.25,123/500,63,80.0
6177,C#4,221.25,123/500,63,80.0
6178,B3,221.5,0.25,95,80.0
6179,G#2,221.5,0.25,95,80.0
6180,C#4,221.5,123/500,63,80.0
6181,E4,221.5,123/500,63,80.0
6182,B-4,221.5,123/500,63,80.0
6183,G#3,221.5,1.0,63,80.0
6184,G#4,221.5,1.0,63,80.0
6185,B-3,221.75,0.25,95,80.0
6186,B-4,221.75,123/500,63,80.0
6187,E4,221.75,123/500,63,80.0
6188,C#4,221.75,123/500,63,80.0
6189,G#2,221.75,0.25,95,80.0
6190,C2,221.75,0.25,95,80.0
6191,B-3,222.0,0.25,95,80.0
6192,F#2,222.0,0.75,95,80.0
6193,E5,222.0,2.0,95,80.0
6194,F#3,222.0,61/250,95,80.0
6195,C#4,222.0,61/250,95,80.0
6196,E-4,222.0,61/250,95,80.0
6197,B-4,222.0,61/250,95,80.0
6198,F#1,222.0,0.75,63,80.0
6199,F#2,222.0,0.75,63,80.0
6200,G#2,222.0,0.25,95,80.0
6201,C2,222.0,0.25,95,80.0
6202,B-3,222.25,0.5,95,80.0
6203,G#2,222.25,0.25,95,80.0
6204,B-4,222.25,123/500,63,80.0
6205,E-4,222.25,123/500,63,80.0
6206,C#4,222.25,123/500,63,80.0
6207,G#2,222.5,0.25,95,80.0
6208,C#4,222.5,123/500,63,80.0
6209,E-4,222.5,123/500,63,80.0
6210,B-4,222.5,123/500,63,80.0
6211,E-3,222.5,1.969,63,80.0
6212,E-4,222.5,1.969,63,80.0
6213,F#3,222.5,1.969,63,80.0
6214,F#4,222.5,1.969,63,80.0
6215,B3,222.562,1.938,63,80.0
6216,B4,222.562,1.938,63,80.0
6217,B-3,222.75,0.5,95,80.0
6218,G#2,222.75,0.25,95,80.0
6219,F#2,222.75,0.25,95,80.0
6220,B-4,222.75,123/500,63,80.0
6221,E-4,222.75,123/500,63,80.0
6222,C#4,222.75,123/500,63,80.0
6223,F#1,222.75,0.25,63,80.0
6224,F#2,222.75,0.25,63,80.0
6225,F#2,223.0,0.5,95,80.0
6226,C#4,223.0,123/500,63,80.0
6227,E-4,223.0,123/500,63,80.0
6228,B-4,223.0,123/500,63,80.0
6229,F#1,223.0,1.0,63,80.0
6230,F#2,223.0,1.0,63,80.0
6231,G#2,223.0,0.25,95,80.0
6232,E2,223.0,0.25,95,80.0
6233,B3,223.25,0.25,95,80.0
6234,G#2,223.25,0.25,95,80.0
6235,B-4,223.25,123/500,63,80.0
6236,E-4,223.25,123/500,63,80.0
6237,C#4,223.25,123/500,63,80.0
6238,C#4,223.5,0.25,95,80.0
6239,G#2,223.5,0.25,95,80.0
6240,F#2,223.5,0.25,95,80.0
6241,C#4,223.5,123/500,63,80.0
6242,E-4,223.5,123/500,63,80.0
6243,B-4,223.5,123/500,63,80.0
6244,C4,223.75,0.5,95,80.0
6245,F#2,223.75,1.0,95,80.0
6246,B4,223.75,61/250,95,80.0
6247,G#4,223.75,61/250,95,80.0
6248,D4,223.75,61/250,95,80.0
6249,F#3,223.75,61/250,95,80.0
6250,G#2,223.75,0.25,95,80.0
6251,C2,223.75,0.25,95,80.0
6252,G#2,224.0,0.25,95,80.0
6253,F#5,224.0,2.0,95,80.0
6254,F#1,224.0,0.75,63,80.0
6255,F#2,224.0,0.75,63,80.0
6256,B-3,224.25,0.25,95,80.0
6257,B4,224.25,123/500,95,80.0
6258,G#4,224.25,123/500,95,80.0
6259,D4,224.25,123/500,95,80.0
6260,G#2,224.25,0.25,95,80.0
6261,C2,224.25,0.25,95,80.0
6262,F#3,224.5,1.0,95,80.0
6263,G#2,224.5,0.25,95,80.0
6264,C#3,224.5,1.969,63,80.0
6265,C#4,224.5,1.969,63,80.0
6266,F3,224.5,1.969,63,80.0
6267,F4,224.5,1.969,63,80.0
6268,G#3,224.562,1.906,63,80.0
6269,G#4,224.562,1.906,63,80.0
6270,C#4,224.562,1.906,63,80.0
6271,C#5,224.562,1.906,63,80.0
6272,F#2,224.75,0.25,95,80.0
6273,B4,224.75,123/500,95,80.0
6274,G#4,224.75,123/500,95,80.0
6275,D4,224.75,123/500,95,80.0
6276,F#1,224.75,0.25,63,80.0
6277,F#2,224.75,0.25,63,80.0
6278,G#2,224.75,0.25,95,80.0
6279,C2,224.75,0.25,95,80.0
6280,F#2,225.0,1.0,95,80.0
6281,D4,225.0,123/500,95,80.0
6282,G#4,225.0,123/500,95,80.0
6283,B4,225.0,123/500,95,80.0
6284,F#1,225.0,1.0,63,80.0
6285,F#2,225.0,1.0,63,80.0
6286,G#2,225.0,0.25,95,80.0
6287,E2,225.0,0.25,95,80.0
6288,G#2,225.25,0.25,95,80.0
6289,B4,225.25,123/500,63,80.0
6290,G#4,225.25,123/500,63,80.0
6291,D4,225.25,123/500,63,80.0
6292,B-3,225.5,0.25,95,80.0
6293,G#2,225.5,0.25,95,80.0
6294,D4,225.5,123/500,63,80.0
6295,G#4,225.5,123/500,63,80.0
6296,B4,225.5,123/500,63,80.0
6297,B4,225.75,123/500,63,80.0
6298,G#4,225.75,123/500,63,80.0
6299,D4,225.75,123/500,63,80.0
6300,G#2,225.75,0.25,95,80.0
6301,C2,225.75,0.25,95,80.0
6302,G#3,226.0,2.0,95,80.0
6303,B3,226.0,2.0,95,80.0
6304,F#2,226.0,0.75,95,80.0
6305,E5,226.0,2.0,95,80.0
6306,F#3,226.0,61/250,95,80.0
6307,C#4,226.0,61/250,95,80.0
6308,F#4,226.0,61/250,95,80.0
6309,B-4,226.0,61/250,95,80.0
6310,F#1,226.0,0.75,63,80.0
6311,F#2,226.0,0.75,63,80.0
6312,G#2,226.0,0.25,95,80.0
6313,C2,226.0,0.25,95,80.0
6314,G#2,226.25,0.25,95,80.0
6315,B-4,226.25,123/500,63,80.0
6316,F#4,226.25,123/500,63,80.0
6317,C#4,226.25,123/500,63,80.0
6318,G#2,226.5,0.25,95,80.0
6319,C#4,226.5,123/500,63,80.0
6320,F#4,226.5,123/500,63,80.0
6321,B-4,226.5,123/500,63,80.0
6322,G#2,226.75,0.25,95,80.0
6323,F#2,226.75,0.25,95,80.0
6324,B-4,226.75,123/500,63,80.0
6325,F#4,226.75,123/500,63,80.0
6326,C#4,226.75,123/500,63,80.0
6327,F#1,226.75,0.25,63,80.0
6328,F#2,226.75,0.25,63,80.0
6329,F#2,227.0,0.5,95,80.0
6330,C#4,227.0,123/500,63,80.0
6331,F#4,227.0,123/500,63,80.0
6332,B-4,227.0,123/500,63,80.0
6333,F#1,227.0,1.0,63,80.0
6334,F#2,227.0,1.0,63,80.0
6335,G#2,227.0,0.25,95,80.0
6336,E2,227.0,0.25,95,80.0
6337,G#2,227.25,0.25,95,80.0
6338,B-4,227.25,123/500,63,80.0
6339,F#4,227.25,123/500,63,80.0
6340,C#4,227.25,123/500,63,80.0
6341,G#2,227.5,0.25,95,80.0
6342,F#2,227.5,0.25,95,80.0
6343,C#4,227.5,123/500,63,80.0
6344,F#4,227.5,123/500,63,80.0
6345,B-4,227.5,123/500,63,80.0
6346,C#2,227.75,1.0,95,80.0
6347,G#4,227.75,121/500,95,80.0
6348,F4,227.75,121/500,95,80.0
6349,C#4,227.75,121/500,95,80.0
6350,G#3,227.75,121/500,95,80.0
6351,C#3,227.75,121/500,95,80.0
6352,C#4,227.75,0.25,63,80.0
6353,C#5,227.75,0.25,63,80.0
6354,G#2,227.75,0.25,95,80.0
6355,C2,227.75,0.25,95,80.0
6356,G#3,228.0,1.0,95,80.0
6357,C#4,228.0,1.0,95,80.0
6358,G#2,228.0,0.25,95,80.0
6359,C#5,228.0,2.0,95,80.0
6360,B3,228.0,0.25,63,80.0
6361,B4,228.0,0.25,63,80.0
6362,C#1,228.0,0.75,63,80.0
6363,C#2,228.0,0.75,63,80.0
6364,G#4,228.25,61/250,95,80.0
6365,F4,228.25,61/250,95,80.0
6366,C#4,228.25,61/250,95,80.0
6367,G#3,228.25,61/250,95,80.0
6368,B-3,228.25,0.25,63,80.0
6369,B-4,228.25,0.25,63,80.0
6370,F#3,228.25,0.25,63,80.0
6371,F#4,228.25,0.25,63,80.0
6372,C#3,228.25,0.25,63,80.0
6373,C#4,228.25,0.25,63,80.0
6374,G#2,228.25,0.25,95,80.0
6375,C2,228.25,0.25,95,80.0
6376,G#2,228.5,0.25,95,80.0
6377,F#3,228.5,0.5,63,80.0
6378,F#4,228.5,0.5,63,80.0
6379,C#2,228.75,0.25,95,80.0
6380,G#4,228.75,61/250,95,80.0
6381,F4,228.75,61/250,95,80.0
6382,C#4,228.75,61/250,95,80.0
6383,G#3,228.75,61/250,95,80.0
6384,C#1,228.75,0.25,63,80.0
6385,C#2,228.75,0.25,63,80.0
6386,G#2,228.75,0.25,95,80.0
6387,C2,228.75,0.25,95,80.0
6388,G#3,229.0,1.0,95,80.0
6389,C#4,229.0,1.0,95,80.0
6390,C#2,229.0,1.0,95,80.0
6391,G#3,229.0,61/250,95,80.0
6392,C#4,229.0,61/250,95,80.0
6393,F4,229.0,61/250,95,80.0
6394,G#4,229.0,61/250,95,80.0
6395,B-2,229.0,0.25,63,80.0
6396,B-3,229.0,0.25,63,80.0
6397,C#1,229.0,1.0,63,80.0
6398,C#2,229.0,1.0,63,80.0
6399,G#2,229.0,0.25,95,80.0
6400,E2,229.0,0.25,95,80.0
6401,G#2,229.25,0.25,95,80.0
6402,G#4,229.25,61/250,63,80.0
6403,F4,229.25,61/250,63,80.0
6404,C#4,229.25,61/250,63,80.0
6405,G#3,229.25,61/250,63,80.0
6406,F#3,229.25,0.5,63,80.0
6407,F#4,229.25,0.5,63,80.0
6408,G#2,229.5,0.25,95,80.0
6409,G#3,229.5,61/250,63,80.0
6410,C#4,229.5,61/250,63,80.0
6411,F4,229.5,61/250,63,80.0
6412,G#4,229.5,61/250,63,80.0
6413,G#4,229.75,61/250,63,80.0
6414,F4,229.75,61/250,63,80.0
6415,C#4,229.75,61/250,63,80.0
6416,G#3,229.75,61/250,63,80.0
6417,C#4,229.75,0.25,63,80.0
6418,C#5,229.75,0.25,63,80.0
6419,C#3,229.75,0.25,63,80.0
6420,C#4,229.75,0.25,63,80.0
6421,G#2,229.75,0.25,95,80.0
6422,C2,229.75,0.25,95,80.0
6423,A3,230.0,1.25,95,80.0
6424,C#4,230.0,1.25,95,80.0
6425,F#2,230.0,0.75,95,80.0
6426,B4,230.0,2.0,95,80.0
6427,F#3,230.0,61/250,95,80.0
6428,B3,230.0,61/250,95,80.0
6429,F#4,230.0,61/250,95,80.0
6430,B4,230.0,61/250,95,80.0
6431,B3,230.0,0.25,63,80.0
6432,B4,230.0,0.25,63,80.0
6433,F#3,230.0,0.25,63,80.0
6434,F#4,230.0,0.25,63,80.0
6435,C#3,230.0,0.25,63,80.0
6436,C#4,230.0,0.25,63,80.0
6437,B0,230.0,0.75,63,80.0
6438,B1,230.0,0.75,63,80.0
6439,G#2,230.0,0.25,95,80.0
6440,C2,230.0,0.25,95,80.0
6441,G#2,230.25,0.25,95,80.0
6442,B4,230.25,61/250,63,80.0
6443,F#4,230.25,61/250,63,80.0
6444,B3,230.25,61/250,63,80.0
6445,F#3,230.25,61/250,63,80.0
6446,B-3,230.25,1.5,63,80.0
6447,B-4,230.25,1.5,63,80.0
6448,E3,230.25,1.5,63,80.0
6449,E4,230.25,1.5,63,80.0
6450,C#3,230.25,1.5,63,80.0
6451,C#4,230.25,1.5,63,80.0
6452,G#2,230.5,0.25,95,80.0
6453,F#3,230.5,61/250,63,80.0
6454,B3,230.5,61/250,63,80.0
6455,F#4,230.5,61/250,63,80.0
6456,B4,230.5,61/250,63,80.0
6457,G#2,230.75,0.25,95,80.0
6458,F#2,230.75,0.25,95,80.0
6459,B4,230.75,61/250,63,80.0
6460,F#4,230.75,61/250,63,80.0
6461,B3,230.75,61/250,63,80.0
6462,F#3,230.75,61/250,63,80.0
6463,B0,230.75,0.25,63,80.0
6464,B1,230.75,0.25,63,80.0
6465,F#2,231.0,0.5,95,80.0
6466,F#3,231.0,61/250,63,80.0
6467,B3,231.0,61/250,63,80.0
6468,F#4,231.0,61/250,63,80.0
6469,B4,231.0,61/250,63,80.0
6470,B0,231.0,1.0,63,80.0
6471,B1,231.0,1.0,63,80.0
6472,G#2,231.0,0.25,95,80.0
6473,E2,231.0,0.25,95,80.0
6474,C#4,231.25,0.25,95,80.0
6475,F4,231.25,0.25,95,80.0
6476,G#2,231.25,0.25,95,80.0
6477,B4,231.25,61/250,63,80.0
6478,F#4,231.25,61/250,63,80.0
6479,B3,231.25,61/250,63,80.0
6480,F#3,231.25,61/250,63,80.0
6481,B3,231.5,0.25,95,80.0
6482,E-4,231.5,0.25,95,80.0
6483,G#2,231.5,0.25,95,80.0
6484,F#2,231.5,0.5,95,80.0
6485,F#3,231.5,61/250,63,80.0
6486,B3,231.5,61/250,63,80.0
6487,F#4,231.5,61/250,63,80.0
6488,B4,231.5,61/250,63,80.0
6489,B-3,231.75,0.25,95,80.0
6490,C#4,231.75,0.25,95,80.0
6491,B4,231.75,61/250,63,80.0
6492,F#4,231.75,61/250,63,80.0
6493,B3,231.75,61/250,63,80.0
6494,F#3,231.75,61/250,63,80.0
6495,C#4,231.75,0.25,63,80.0
6496,C#5,231.75,0.25,63,80.0
6497,G#2,231.75,0.25,95,80.0
6498,C2,231.75,0.25,95,80.0
6499,B-3,232.0,0.5,95,80.0
6500,C#4,232.0,0.5,95,80.0
6501,F#2,232.0,0.75,95,80.0
6502,B4,232.0,1.0,95,80.0
6503,B3,232.0,0.25,63,80.0
6504,B4,232.0,0.25,63,80.0
6505,E3,232.0,0.25,63,80.0
6506,E4,232.0,0.25,63,80.0
6507,C#3,232.0,0.25,63,80.0
6508,C#4,232.0,0.25,63,80.0
6509,F#1,232.0,0.75,63,80.0
6510,F#2,232.0,0.75,63,80.0
6511,G#2,232.0,0.25,95,80.0
6512,C2,232.0,0.25,95,80.0
6513,G#2,232.25,0.25,95,80.0
6514,B-4,232.25,123/500,95,80.0
6515,F#4,232.25,123/500,95,80.0
6516,C#4,232.25,123/500,95,80.0
6517,B-3,232.25,0.25,63,80.0
6518,B-4,232.25,0.25,63,80.0
6519,E-3,232.25,0.25,63,80.0
6520,E-4,232.25,0.25,63,80.0
6521,C#3,232.25,0.25,63,80.0
6522,C#4,232.25,0.25,63,80.0
6523,G#2,232.5,0.25,95,80.0
6524,G#2,232.75,0.25,95,80.0
6525,F#2,232.75,0.25,95,80.0
6526,B-4,232.75,123/500,63,80.0
6527,F#4,232.75,123/500,63,80.0
6528,C#4,232.75,123/500,63,80.0
6529,F#1,232.75,0.25,63,80.0
6530,F#2,232.75,0.25,63,80.0
6531,F#2,233.0,0.5,95,80.0
6532,C#4,233.0,123/500,63,80.0
6533,F#4,233.0,123/500,63,80.0
6534,B-4,233.0,123/500,63,80.0
6535,B-3,233.0,0.5,63,80.0
6536,B-4,233.0,0.5,63,80.0
6537,E-3,233.0,0.5,63,80.0
6538,E-4,233.0,0.5,63,80.0
6539,C#3,233.0,0.5,63,80.0
6540,C#4,233.0,0.5,63,80.0
6541,F#1,233.0,1.0,63,80.0
6542,F#2,233.0,1.0,63,80.0
6543,G#2,233.0,0.25,95,80.0
6544,E2,233.0,0.25,95,80.0
6545,G#2,233.25,0.25,95,80.0
6546,B-4,233.25,123/500,63,80.0
6547,F#4,233.25,123/500,63,80.0
6548,C#4,233.25,123/500,63,80.0
6549,G#2,233.5,0.25,95,80.0
6550,F#2,233.5,0.25,95,80.0
6551,C#4,233.5,123/500,63,80.0
6552,F#4,233.5,123/500,63,80.0
6553,B-4,233.5,123/500,63,80.0
6554,B-3,233.5,0.25,63,80.0
6555,B-4,233.5,0.25,63,80.0
6556,F#2,233.75,1.0,95,80.0
6557,B-4,233.75,123/500,63,80.0
6558,F#4,233.75,123/500,63,80.0
6559,C#4,233.75,123/500,63,80.0
6560,B-3,233.75,0.5,63,80.0
6561,B-4,233.75,0.5,63,80.0
6562,G#2,233.75,0.25,95,80.0
6563,C2,233.75,0.25,95,80.0
6564,G#2,234.0,0.25,95,80.0
6565,B-4,234.0,0.25,95,80.0
6566,F#4,234.0,0.25,95,80.0
6567,C#4,234.0,0.25,95,80.0
6568,F#3,234.0,0.25,95,80.0
6569,F#1,234.0,0.75,63,80.0
6570,F#2,234.0,0.75,63,80.0
6571,B-4,234.25,123/500,63,80.0
6572,F#4,234.25,123/500,63,80.0
6573,C#4,234.25,123/500,63,80.0
6574,B3,234.25,0.25,63,80.0
6575,B4,234.25,0.25,63,80.0
6576,G#2,234.25,0.25,95,80.0
6577,C2,234.25,0.25,95,80.0
6578,G#2,234.5,0.25,95,80.0
6579,B-4,234.5,0.25,63,80.0
6580,F#4,234.5,0.25,63,80.0
6581,C#4,234.5,0.25,63,80.0
6582,C#4,234.5,0.25,63,80.0
6583,C#5,234.5,0.25,63,80.0
6584,E-3,234.5,0.25,63,80.0
6585,E-4,234.5,0.25,63,80.0
6586,C#3,234.5,0.25,63,80.0
6587,C#4,234.5,0.25,63,80.0
6588,F#2,234.75,0.25,95,80.0
6589,B-4,234.75,123/500,63,80.0
6590,F#4,234.75,123/500,63,80.0
6591,C#4,234.75,123/500,63,80.0
6592,D4,234.75,0.5,63,80.0
6593,D5,234.75,0.5,63,80.0
6594,F#3,234.75,0.5,63,80.0
6595,F#4,234.75,0.5,63,80.0
6596,D3,234.75,0.5,63,80.0
6597,D4,234.75,0.5,63,80.0
6598,B2,234.75,0.5,63,80.0
6599,B3,234.75,0.5,63,80.0
6600,F#1,234.75,0.25,63,80.0
6601,F#2,234.75,0.25,63,80.0
6602,G#2,234.75,0.25,95,80.0
6603,C2,234.75,0.25,95,80.0
6604,F#2,235.0,1.0,95,80.0
6605,C#4,235.0,123/500,63,80.0
6606,F#4,235.0,123/500,63,80.0
6607,B-4,235.0,123/500,63,80.0
6608,F#1,235.0,1.0,63,80.0
6609,F#2,235.0,1.0,63,80.0
6610,G#2,235.0,0.25,95,80.0
6611,E2,235.0,0.25,95,80.0
6612,G#2,235.25,0.25,95,80.0
6613,B-4,235.25,123/500,63,80.0
6614,F#4,235.25,123/500,63,80.0
6615,C#4,235.25,123/500,63,80.0
6616,B-3,235.25,0.5,63,80.0
6617,B-4,235.25,0.5,63,80.0
6618,F#3,235.25,0.5,63,80.0
6619,F#4,235.25,0.5,63,80.0
6620,D3,235.25,0.5,63,80.0
6621,D4,235.25,0.5,63,80.0
6622,B2,235.25,0.5,63,80.0
6623,B3,235.25,0.5,63,80.0
6624,G#2,235.5,0.25,95,80.0
6625,C#4,235.5,123/500,63,80.0
6626,F#4,235.5,123/500,63,80.0
6627,B-4,235.5,123/500,63,80.0
6628,B-4,235.75,123/500,63,80.0
6629,F#4,235.75,123/500,63,80.0
6630,C#4,235.75,123/500,63,80.0
6631,G#3,235.75,0.5,63,80.0
6632,G#4,235.75,0.5,63,80.0
6633,G#2,235.75,0.25,95,80.0
6634,C2,235.75,0.25,95,80.0
6635,C#3,236.0,2.0,95,80.0
6636,F#2,236.0,2.0,95,80.0
6637,F#3,236.0,1.953,95,80.0
6638,C#4,236.0,1.953,95,80.0
6639,F#4,236.0,1.953,95,80.0
6640,B-4,236.0,1.953,95,80.0
6641,B-4,236.0,2.0,95,80.0
6642,F#4,236.0,2.0,95,80.0
6643,B2,236.25,0.25,63,80.0
6644,B3,236.25,0.25,63,80.0
6645,F#4,236.5,0.5,95,80.0
6646,G#3,236.5,0.5,63,80.0
6647,G#4,236.5,0.5,63,80.0
6648,F#3,236.5,0.5,63,80.0
6649,F#4,236.5,0.5,63,80.0
6650,E-3,236.5,0.5,63,80.0
6651,E-4,236.5,0.5,63,80.0
6652,G#4,237.0,0.5,95,80.0
6653,B-3,237.0,1.25,63,80.0
6654,B-4,237.0,1.25,63,80.0
6655,F#3,237.0,1.25,63,80.0
6656,F#4,237.0,1.25,63,80.0
6657,C#3,237.0,1.25,63,80.0
6658,C#4,237.0,1.25,63,80.0
6659,G#4,237.5,0.25,95,80.0
6660,F#4,237.75,0.25,95,80.0
6661,E4,238.0,0.5,95,80.0
6662,F#2,238.0,0.75,95,80.0
6663,F#3,238.0,61/250,95,80.0
6664,C#4,238.0,61/250,95,80.0
6665,F#4,238.0,61/250,95,80.0
6666,B-4,238.0,61/250,95,80.0
6667,F#1,238.0,1.0,63,80.0
6668,F#2,238.0,1.0,63,80.0
6669,C#3,238.0,0.5,95,80.0
6670,C2,238.0,0.5,95,80.0
6671,B-4,238.0,2.0,95,80.0
6672,F#4,238.0,2.0,95,80.0
6673,B-4,238.25,123/500,63,80.0
6674,F#4,238.25,123/500,63,80.0
6675,C#4,238.25,123/500,63,80.0
6676,C#3,238.25,0.25,63,80.0
6677,C#4,238.25,0.25,63,80.0
6678,C#4,238.5,0.25,95,80.0
6679,G#2,238.5,0.25,95,80.0
6680,C#4,238.5,123/500,63,80.0
6681,F#4,238.5,123/500,63,80.0
6682,B-4,238.5,123/500,63,80.0
6683,B-3,238.5,0.25,63,80.0
6684,B-4,238.5,0.25,63,80.0
6685,F#3,238.5,0.25,63,80.0
6686,F#4,238.5,0.25,63,80.0
6687,G#2,238.75,0.25,95,80.0
6688,F#2,238.75,0.25,95,80.0
6689,B-4,238.75,123/500,63,80.0
6690,F#4,238.75,123/500,63,80.0
6691,C#4,238.75,123/500,63,80.0
6692,G#3,238.75,1.5,63,80.0
6693,G#4,238.75,1.5,63,80.0
6694,F3,238.75,1.5,63,80.0
6695,F4,238.75,1.5,63,80.0
6696,C#3,238.75,1.5,63,80.0
6697,C#4,238.75,1.5,63,80.0
6698,F#2,239.0,0.5,95,80.0
6699,C#4,239.0,123/500,63,80.0
6700,F#4,239.0,123/500,63,80.0
6701,B-4,239.0,123/500,63,80.0
6702,F#1,239.0,1.0,63,80.0
6703,F#2,239.0,1.0,63,80.0
6704,E1,239.0,0.25,106,80.0
6705,G#2,239.0,0.25,106,80.0
6706,E2,239.0,0.25,106,80.0
6707,G#2,239.25,0.25,95,80.0
6708,B-4,239.25,123/500,63,80.0
6709,F#4,239.25,123/500,63,80.0
6710,C#4,239.25,123/500,63,80.0
6711,F#2,239.5,0.25,95,80.0
6712,C#4,239.5,123/500,63,80.0
6713,F#4,239.5,123/500,63,80.0
6714,B-4,239.5,123/500,63,80.0
6715,E1,239.5,0.25,111,80.0
6716,G#2,239.5,0.25,111,80.0
6717,F#2,239.75,1.0,95,80.0
6718,B-4,239.75,123/500,95,80.0
6719,E4,239.75,123/500,95,80.0
6720,C#4,239.75,123/500,95,80.0
6721,E1,239.75,0.25,106,80.0
6722,G#2,239.75,0.25,106,80.0
6723,C2,239.75,0.25,106,80.0
6724,G#2,240.0,0.25,95,80.0
6725,F#1,240.0,1.0,63,80.0
6726,F#2,240.0,1.0,63,80.0
6727,B-4,240.0,0.5,95,80.0
6728,F#4,240.0,0.5,95,80.0
6729,B-4,240.25,123/500,95,80.0
6730,E4,240.25,123/500,95,80.0
6731,C#4,240.25,123/500,95,80.0
6732,C#3,240.25,0.25,63,80.0
6733,C#4,240.25,0.25,63,80.0
6734,G#2,240.25,0.25,95,80.0
6735,C2,240.25,0.25,95,80.0
6736,F#4,240.5,0.5,95,80.0
6737,G#3,240.5,0.25,63,80.0
6738,G#4,240.5,0.25,63,80.0
6739,F3,240.5,0.25,63,80.0
6740,F4,240.5,0.25,63,80.0
6741,E1,240.5,0.25,111,80.0
6742,G#2,240.5,0.25,111,80.0
6743,B-4,240.5,0.25,95,80.0
6744,F#4,240.5,0.25,95,80.0
6745,F#2,240.75,0.25,95,80.0
6746,B-4,240.75,123/500,95,80.0
6747,E4,240.75,123/500,95,80.0
6748,C#4,240.75,123/500,95,80.0
6749,B3,240.75,0.25,63,80.0
6750,B4,240.75,0.25,63,80.0
6751,F#3,240.75,0.25,63,80.0
6752,F#4,240.75,0.25,63,80.0
6753,E-3,240.75,0.25,63,80.0
6754,E-4,240.75,0.25,63,80.0
6755,E1,240.75,0.25,106,80.0
6756,G#2,240.75,0.25,106,80.0
6757,C2,240.75,0.25,106,80.0
6758,B-4,240.75,0.5,95,80.0
6759,F#4,240.75,0.5,95,80.0
6760,G#4,241.0,0.5,95,80.0
6761,F#2,241.0,1.0,95,80.0
6762,C#4,241.0,123/500,95,80.0
6763,E4,241.0,123/500,95,80.0
6764,B-4,241.0,123/500,95,80.0
6765,F#1,241.0,1.0,63,80.0
6766,F#2,241.0,1.0,63,80.0
6767,G#2,241.0,0.25,95,80.0
6768,E2,241.0,0.25,95,80.0
6769,B-4,241.25,123/500,63,80.0
6770,E4,241.25,123/500,63,80.0
6771,C#4,241.25,123/500,63,80.0
6772,E1,241.25,0.25,111,80.0
6773,G#2,241.25,0.25,111,80.0
6774,B4,241.25,0.25,95,80.0
6775,G#4,241.25,0.25,95,80.0
6776,G#4,241.5,0.25,95,80.0
6777,C#4,241.5,123/500,63,80.0
6778,E4,241.5,123/500,63,80.0
6779,B-4,241.5,123/500,63,80.0
6780,E1,241.5,0.25,111,80.0
6781,G#2,241.5,0.25,111,80.0
6782,C#5,241.5,0.25,95,80.0
6783,G#4,241.5,0.25,95,80.0
6784,F#4,241.75,0.25,95,80.0
6785,B-4,241.75,123/500,63,80.0
6786,E4,241.75,123/500,63,80.0
6787,C#4,241.75,123/500,63,80.0
6788,G#2,241.75,0.25,95,80.0
6789,C2,241.75,0.25,95,80.0
6790,D5,241.75,0.5,95,80.0
6791,B4,241.75,0.5,95,80.0
6792,F#4,242.0,0.25,95,80.0
6793,F#2,242.0,0.75,95,80.0
6794,F#3,242.0,61/250,95,80.0
6795,C#4,242.0,61/250,95,80.0
6796,E-4,242.0,61/250,95,80.0
6797,B-4,242.0,61/250,95,80.0
6798,F#1,242.0,1.0,63,80.0
6799,F#2,242.0,1.0,63,80.0
6800,G#2,242.0,0.25,95,80.0
6801,C2,242.0,0.25,95,80.0
6802,E-4,242.25,0.5,95,80.0
6803,G#2,242.25,0.25,95,80.0
6804,B-4,242.25,123/500,63,80.0
6805,E-4,242.25,123/500,63,80.0
6806,C#4,242.25,123/500,63,80.0
6807,B3,242.25,1.25,63,80.0
6808,B4,242.25,1.25,63,80.0
6809,F#3,242.25,1.25,63,80.0
6810,F#4,242.25,1.25,63,80.0
6811,E-3,242.25,1.25,63,80.0
6812,E-4,242.25,1.25,63,80.0
6813,B-4,242.25,0.5,95,80.0
6814,F#4,242.25,0.5,95,80.0
6815,G#2,242.5,0.25,95,80.0
6816,C#4,242.5,123/500,63,80.0
6817,E-4,242.5,123/500,63,80.0
6818,B-4,242.5,123/500,63,80.0
6819,F#4,242.75,0.5,95,80.0
6820,G#2,242.75,0.25,95,80.0
6821,F#2,242.75,0.25,95,80.0
6822,B-4,242.75,123/500,63,80.0
6823,E-4,242.75,123/500,63,80.0
6824,C#4,242.75,123/500,63,80.0
6825,G#4,242.75,0.5,95,80.0
6826,F#4,242.75,0.5,95,80.0
6827,F#2,243.0,0.5,95,80.0
6828,C#4,243.0,123/500,63,80.0
6829,E-4,243.0,123/500,63,80.0
6830,B-4,243.0,123/500,63,80.0
6831,F#1,243.0,1.0,63,80.0
6832,F#2,243.0,1.0,63,80.0
6833,E1,243.0,0.25,106,80.0
6834,G#2,243.0,0.25,106,80.0
6835,E2,243.0,0.25,106,80.0
6836,F#4,243.25,0.5,95,80.0
6837,G#2,243.25,0.25,95,80.0
6838,B-4,243.25,123/500,63,80.0
6839,E-4,243.25,123/500,63,80.0
6840,C#4,243.25,123/500,63,80.0
6841,G#4,243.25,0.5,95,80.0
6842,F#4,243.25,0.5,95,80.0
6843,F#2,243.5,0.25,95,80.0
6844,C#4,243.5,123/500,63,80.0
6845,E-4,243.5,123/500,63,80.0
6846,B-4,243.5,123/500,63,80.0
6847,E-3,243.5,0.25,63,80.0
6848,E-4,243.5,0.25,63,80.0
6849,E1,243.5,0.25,111,80.0
6850,G#2,243.5,0.25,111,80.0
6851,F#4,243.75,1.0,95,80.0
6852,F#2,243.75,1.0,95,80.0
6853,B4,243.75,61/250,95,80.0
6854,G#4,243.75,61/250,95,80.0
6855,D4,243.75,61/250,95,80.0
6856,F#3,243.75,61/250,95,80.0
6857,B3,243.75,0.25,63,80.0
6858,B4,243.75,0.25,63,80.0
6859,F#3,243.75,0.25,63,80.0
6860,F#4,243.75,0.25,63,80.0
6861,E1,243.75,0.25,106,80.0
6862,G#2,243.75,0.25,106,80.0
6863,C2,243.75,0.25,106,80.0
6864,G#4,243.75,0.25,95,80.0
6865,F#4,243.75,0.25,95,80.0
6866,G#2,244.0,0.25,95,80.0
6867,B-3,244.0,0.25,63,80.0
6868,B-4,244.0,0.25,63,80.0
6869,F#3,244.0,0.25,63,80.0
6870,F#4,244.0,0.25,63,80.0
6871,C#3,244.0,0.25,63,80.0
6872,C#4,244.0,0.25,63,80.0
6873,F#1,244.0,1.0,63,80.0
6874,F#2,244.0,1.0,63,80.0
6875,B-4,244.0,2.0,95,80.0
6876,F#4,244.0,2.0,95,80.0
6877,B4,244.25,123/500,95,80.0
6878,G#4,244.25,123/500,95,80.0
6879,D4,244.25,123/500,95,80.0
6880,G#2,244.25,0.25,95,80.0
6881,C2,244.25,0.25,95,80.0
6882,E1,244.5,0.25,111,80.0
6883,G#2,244.5,0.25,111,80.0
6884,B-4,244.75,0.25,95,80.0
6885,F#2,244.75,0.25,95,80.0
6886,B4,244.75,123/500,95,80.0
6887,G#4,244.75,123/500,95,80.0
6888,D4,244.75,123/500,95,80.0
6889,E1,244.75,0.25,106,80.0
6890,G#2,244.75,0.25,106,80.0
6891,C2,244.75,0.25,106,80.0
6892,F#4,245.0,1.0,95,80.0
6893,F#2,245.0,1.0,95,80.0
6894,D4,245.0,123/500,95,80.0
6895,G#4,245.0,123/500,95,80.0
6896,B4,245.0,123/500,95,80.0
6897,F#1,245.0,1.0,63,80.0
6898,F#2,245.0,1.0,63,80.0
6899,G#2,245.0,0.25,95,80.0
6900,E2,245.0,0.25,95,80.0
6901,B4,245.25,123/500,63,80.0
6902,G#4,245.25,123/500,63,80.0
6903,D4,245.25,123/500,63,80.0
6904,E1,245.25,0.25,111,80.0
6905,G#2,245.25,0.25,111,80.0
6906,D4,245.5,123/500,63,80.0
6907,G#4,245.5,123/500,63,80.0
6908,B4,245.5,123/500,63,80.0
6909,B-3,245.5,1.25,63,80.0
6910,B-4,245.5,1.25,63,80.0
6911,F#3,245.5,1.25,63,80.0
6912,F#4,245.5,1.25,63,80.0
6913,C#3,245.5,1.25,63,80.0
6914,C#4,245.5,1.25,63,80.0
6915,E1,245.5,0.25,111,80.0
6916,G#2,245.5,0.25,111,80.0
6917,B4,245.75,123/500,63,80.0
6918,G#4,245.75,123/500,63,80.0
6919,D4,245.75,123/500,63,80.0
6920,G#2,245.75,0.25,95,80.0
6921,C2,245.75,0.25,95,80.0
6922,B3,246.0,2.0,95,80.0
6923,F#2,246.0,0.75,95,80.0
6924,F#3,246.0,61/250,95,80.0
6925,C#4,246.0,61/250,95,80.0
6926,F#4,246.0,61/250,95,80.0
6927,B-4,246.0,61/250,95,80.0
6928,F#1,246.0,0.75,63,80.0
6929,F#2,246.0,0.75,63,80.0
6930,G#2,246.0,0.25,95,80.0
6931,C2,246.0,0.25,95,80.0
6932,G#4,246.0,1.0,95,80.0
6933,C#4,246.0,1.0,95,80.0
6934,G#2,246.25,0.25,95,80.0
6935,B-4,246.25,123/500,63,80.0
6936,F#4,246.25,123/500,63,80.0
6937,C#4,246.25,123/500,63,80.0
6938,G#2,246.5,0.25,95,80.0
6939,C#4,246.5,123/500,63,80.0
6940,F#4,246.5,123/500,63,80.0
6941,B-4,246.5,123/500,63,80.0
6942,G#2,246.75,0.25,95,80.0
6943,F#2,246.75,0.25,95,80.0
6944,B-4,246.75,123/500,63,80.0
6945,F#4,246.75,123/500,63,80.0
6946,C#4,246.75,123/500,63,80.0
6947,C#3,246.75,0.25,63,80.0
6948,C#4,246.75,0.25,63,80.0
6949,F#1,246.75,0.25,63,80.0
6950,F#2,246.75,0.25,63,80.0
6951,F#2,247.0,0.5,95,80.0
6952,C#4,247.0,123/500,63,80.0
6953,F#4,247.0,123/500,63,80.0
6954,B-4,247.0,123/500,63,80.0
6955,G#3,247.0,0.25,63,80.0
6956,G#4,247.0,0.25,63,80.0
6957,F#1,247.0,1.0,63,80.0
6958,F#2,247.0,1.0,63,80.0
6959,E1,247.0,0.25,106,80.0
6960,G#2,247.0,0.25,106,80.0
6961,E2,247.0,0.25,106,80.0
6962,C#5,247.0,1.0,95,80.0
6963,C#4,247.0,1.0,95,80.0
6964,G#2,247.25,0.25,95,80.0
6965,B-4,247.25,123/500,63,80.0
6966,F#4,247.25,123/500,63,80.0
6967,C#4,247.25,123/500,63,80.0
6968,B-3,247.25,1.5,63,80.0
6969,B-4,247.25,1.5,63,80.0
6970,F#3,247.25,1.5,63,80.0
6971,F#4,247.25,1.5,63,80.0
6972,C#3,247.25,1.5,63,80.0
6973,C#4,247.25,1.5,63,80.0
6974,E4,247.5,0.5,95,80.0
6975,F#2,247.5,0.25,95,80.0
6976,C#4,247.5,123/500,63,80.0
6977,F#4,247.5,123/500,63,80.0
6978,B-4,247.5,123/500,63,80.0
6979,E1,247.5,0.25,111,80.0
6980,G#2,247.5,0.25,111,80.0
6981,C#2,247.75,1.0,95,80.0
6982,G#4,247.75,121/500,95,80.0
6983,F4,247.75,121/500,95,80.0
6984,C#4,247.75,121/500,95,80.0
6985,G#3,247.75,121/500,95,80.0
6986,C#3,247.75,121/500,95,80.0
6987,E1,247.75,0.25,106,80.0
6988,G#2,247.75,0.25,106,80.0
6989,C2,247.75,0.25,106,80.0
6990,C#4,248.0,1.0,95,80.0
6991,G#2,248.0,0.25,95,80.0
6992,C#1,248.0,0.75,63,80.0
6993,C#2,248.0,0.75,63,80.0
6994,E-5,248.0,1.75,95,80.0
6995,B4,248.0,1.75,95,80.0
6996,G#4,248.25,61/250,95,80.0
6997,F4,248.25,61/250,95,80.0
6998,C#4,248.25,61/250,95,80.0
6999,G#3,248.25,61/250,95,80.0
7000,G#2,248.25,0.25,95,80.0
7001,C2,248.25,0.25,95,80.0
7002,E1,248.5,0.25,111,80.0
7003,G#2,248.5,0.25,111,80.0
7004,C#2,248.75,0.25,95,80.0
7005,G#4,248.75,61/250,95,80.0
7006,F4,248.75,61/250,95,80.0
7007,C#4,248.75,61/250,95,80.0
7008,G#3,248.75,61/250,95,80.0
7009,C#3,248.75,0.25,63,80.0
7010,C#4,248.75,0.25,63,80.0
7011,C#1,248.75,0.25,63,80.0
7012,C#2,248.75,0.25,63,80.0
7013,E1,248.75,0.25,106,80.0
7014,G#2,248.75,0.25,106,80.0
7015,C2,248.75,0.25,106,80.0
7016,C#4,249.0,1.0,95,80.0
7017,C#2,249.0,1.0,95,80.0
7018,G#3,249.0,61/250,95,80.0
7019,C#4,249.0,61/250,95,80.0
7020,F4,249.0,61/250,95,80.0
7021,G#4,249.0,61/250,95,80.0
7022,B-3,249.0,0.5,63,80.0
7023,B-4,249.0,0.5,63,80.0
7024,F#3,249.0,0.5,63,80.0
7025,F#4,249.0,0.5,63,80.0
7026,C#1,249.0,1.0,63,80.0
7027,C#2,249.0,1.0,63,80.0
7028,G#2,249.0,0.25,95,80.0
7029,E2,249.0,0.25,95,80.0
7030,F#4,249.25,0.5,95,80.0
7031,G#4,249.25,61/250,63,80.0
7032,F4,249.25,61/250,63,80.0
7033,C#4,249.25,61/250,63,80.0
7034,G#3,249.25,61/250,63,80.0
7035,E1,249.25,0.25,111,80.0
7036,G#2,249.25,0.25,111,80.0
7037,G#3,249.5,61/250,63,80.0
7038,C#4,249.5,61/250,63,80.0
7039,F4,249.5,61/250,63,80.0
7040,G#4,249.5,61/250,63,80.0
7041,F#3,249.5,0.5,63,80.0
7042,F#4,249.5,0.5,63,80.0
7043,E1,249.5,0.25,111,80.0
7044,G#2,249.5,0.25,111,80.0
7045,C#4,249.75,0.25,95,80.0
7046,G#4,249.75,61/250,63,80.0
7047,F4,249.75,61/250,63,80.0
7048,C#4,249.75,61/250,63,80.0
7049,G#3,249.75,61/250,63,80.0
7050,G#2,249.75,0.25,95,80.0
7051,C2,249.75,0.25,95,80.0
7052,B-4,249.75,0.25,95,80.0
7053,F#4,249.75,0.25,95,80.0
7054,F#4,250.0,1.5,95,80.0
7055,C#4,250.0,1.25,95,80.0
7056,F#2,250.0,0.75,95,80.0
7057,F#3,250.0,61/250,95,80.0
7058,B3,250.0,61/250,95,80.0
7059,F#4,250.0,61/250,95,80.0
7060,B4,250.0,61/250,95,80.0
7061,B-2,250.0,0.25,63,80.0
7062,B-3,250.0,0.25,63,80.0
7063,F#1,250.0,0.75,63,80.0
7064,F#2,250.0,0.75,63,80.0
7065,G#2,250.0,0.25,95,80.0
7066,C2,250.0,0.25,95,80.0
7067,G#2,250.25,0.25,95,80.0
7068,B4,250.25,61/250,63,80.0
7069,F#4,250.25,61/250,63,80.0
7070,B3,250.25,61/250,63,80.0
7071,F#3,250.25,61/250,63,80.0
7072,F#3,250.25,0.5,63,80.0
7073,F#4,250.25,0.5,63,80.0
7074,G#2,250.5,0.25,95,80.0
7075,F#3,250.5,61/250,63,80.0
7076,B3,250.5,61/250,63,80.0
7077,F#4,250.5,61/250,63,80.0
7078,B4,250.5,61/250,63,80.0
7079,G#2,250.75,0.25,95,80.0
7080,F#2,250.75,0.25,95,80.0
7081,B4,250.75,61/250,63,80.0
7082,F#4,250.75,61/250,63,80.0
7083,B3,250.75,61/250,63,80.0
7084,F#3,250.75,61/250,63,80.0
7085,C#4,250.75,0.25,63,80.0
7086,C#5,250.75,0.25,63,80.0
7087,C#3,250.75,0.25,63,80.0
7088,C#4,250.75,0.25,63,80.0
7089,F#1,250.75,0.25,63,80.0
7090,F#2,250.75,0.25,63,80.0
7091,F#2,251.0,0.5,95,80.0
7092,F#3,251.0,61/250,63,80.0
7093,B3,251.0,61/250,63,80.0
7094,F#4,251.0,61/250,63,80.0
7095,B4,251.0,61/250,63,80.0
7096,B3,251.0,0.25,63,80.0
7097,B4,251.0,0.25,63,80.0
7098,F#3,251.0,0.25,63,80.0
7099,F#4,251.0,0.25,63,80.0
7100,C#3,251.0,0.25,63,80.0
7101,C#4,251.0,0.25,63,80.0
7102,F#1,251.0,1.0,63,80.0
7103,F#2,251.0,1.0,63,80.0
7104,E1,251.0,0.25,106,80.0
7105,G#2,251.0,0.25,106,80.0
7106,E2,251.0,0.25,106,80.0
7107,F4,251.25,0.25,95,80.0
7108,G#2,251.25,0.25,95,80.0
7109,B4,251.25,61/250,63,80.0
7110,F#4,251.25,61/250,63,80.0
7111,B3,251.25,61/250,63,80.0
7112,F#3,251.25,61/250,63,80.0
7113,B-3,251.25,1.5,63,80.0
7114,B-4,251.25,1.5,63,80.0
7115,E3,251.25,1.5,63,80.0
7116,E4,251.25,1.5,63,80.0
7117,C#3,251.25,1.5,63,80.0
7118,C#4,251.25,1.5,63,80.0
7119,F#4,251.5,0.25,95,80.0
7120,E-4,251.5,0.25,95,80.0
7121,F#2,251.5,0.25,95,80.0
7122,F#3,251.5,61/250,63,80.0
7123,B3,251.5,61/250,63,80.0
7124,F#4,251.5,61/250,63,80.0
7125,B4,251.5,61/250,63,80.0
7126,E1,251.5,0.25,111,80.0
7127,G#2,251.5,0.25,111,80.0
7128,F#4,251.75,1.0,95,80.0
7129,C#4,251.75,1.5,95,80.0
7130,F#2,251.75,1.0,95,80.0
7131,B-4,251.75,61/250,95,80.0
7132,F#4,251.75,61/250,95,80.0
7133,C#4,251.75,61/250,95,80.0
7134,F#3,251.75,61/250,95,80.0
7135,E1,251.75,0.25,106,80.0
7136,G#2,251.75,0.25,106,80.0
7137,C2,251.75,0.25,106,80.0
7138,G#2,252.0,0.25,95,80.0
7139,F#1,252.0,0.75,63,80.0
7140,F#2,252.0,0.75,63,80.0
7141,B-4,252.25,123/500,95,80.0
7142,F#4,252.25,123/500,95,80.0
7143,C#4,252.25,123/500,95,80.0
7144,G#2,252.25,0.25,95,80.0
7145,C2,252.25,0.25,95,80.0
7146,E1,252.5,0.25,111,80.0
7147,G#2,252.5,0.25,111,80.0
7148,F#2,252.75,0.25,95,80.0
7149,B-4,252.75,123/500,95,80.0
7150,F#4,252.75,123/500,95,80.0
7151,C#4,252.75,123/500,95,80.0
7152,C#4,252.75,0.25,63,80.0
7153,C#5,252.75,0.25,63,80.0
7154,F#1,252.75,0.25,63,80.0
7155,F#2,252.75,0.25,63,80.0
7156,E1,252.75,0.25,106,80.0
7157,G#2,252.75,0.25,106,80.0
7158,C2,252.75,0.25,106,80.0
7159,F#2,253.0,1.0,95,80.0
7160,C#4,253.0,123/500,95,80.0
7161,F#4,253.0,123/500,95,80.0
7162,B-4,253.0,123/500,95,80.0
7163,B3,253.0,0.25,63,80.0
7164,B4,253.0,0.25,63,80.0
7165,E3,253.0,0.25,63,80.0
7166,E4,253.0,0.25,63,80.0
7167,C#3,253.0,0.25,63,80.0
7168,C#4,253.0,0.25,63,80.0
7169,F#1,253.0,0.25,63,80.0
7170,F#2,253.0,0.25,63,80.0
7171,G#2,253.0,0.25,95,80.0
7172,E2,253.0,0.25,95,80.0
7173,B-4,253.25,123/500,63,80.0
7174,F#4,253.25,123/500,63,80.0
7175,C#4,253.25,123/500,63,80.0
7176,B-3,253.25,0.25,63,80.0
7177,B-4,253.25,0.25,63,80.0
7178,E-3,253.25,0.25,63,80.0
7179,E-4,253.25,0.25,63,80.0
7180,C#3,253.25,0.25,63,80.0
7181,C#4,253.25,0.25,63,80.0
7182,F#1,253.25,0.5,63,80.0
7183,F#2,253.25,0.5,63,80.0
7184,E1,253.25,0.25,111,80.0
7185,G#2,253.25,0.25,111,80.0
7186,E-4,253.5,0.25,95,80.0
7187,C#4,253.5,123/500,63,80.0
7188,F#4,253.5,123/500,63,80.0
7189,B-4,253.5,123/500,63,80.0
7190,E1,253.5,0.25,111,80.0
7191,G#2,253.5,0.25,111,80.0
7192,F#4,253.75,0.25,95,80.0
7193,B-4,253.75,123/500,63,80.0
7194,F#4,253.75,123/500,63,80.0
7195,C#4,253.75,123/500,63,80.0
7196,F#1,253.75,0.25,63,80.0
7197,F#2,253.75,0.25,63,80.0
7198,G#2,253.75,0.25,95,80.0
7199,C2,253.75,0.25,95,80.0
7200,G#4,254.0,0.5,95,80.0
7201,F#2,254.0,0.75,95,80.0
7202,F#3,254.0,61/250,95,80.0
7203,C#4,254.0,61/250,95,80.0
7204,F#4,254.0,61/250,95,80.0
7205,B-4,254.0,61/250,95,80.0
7206,B-3,254.0,0.5,63,80.0
7207,B-4,254.0,0.5,63,80.0
7208,E-3,254.0,0.5,63,80.0
7209,E-4,254.0,0.5,63,80.0
7210,C#3,254.0,0.5,63,80.0
7211,C#4,254.0,0.5,63,80.0
7212,F#1,254.0,1.0,63,80.0
7213,F#2,254.0,1.0,63,80.0
7214,C#3,254.0,0.5,95,80.0
7215,C2,254.0,0.5,95,80.0
7216,B-4,254.0,4.0,95,80.0
7217,F#4,254.0,4.0,95,80.0
7218,B-4,254.25,123/500,63,80.0
7219,F#4,254.25,123/500,63,80.0
7220,C#4,254.25,123/500,63,80.0
7221,G#4,254.5,0.25,95,80.0
7222,G#2,254.5,0.25,95,80.0
7223,C#4,254.5,123/500,63,80.0
7224,F#4,254.5,123/500,63,80.0
7225,B-4,254.5,123/500,63,80.0
7226,B-3,254.5,0.25,63,80.0
7227,B-4,254.5,0.25,63,80.0
7228,F#4,254.75,0.25,95,80.0
7229,G#2,254.75,0.25,95,80.0
7230,F#2,254.75,0.25,95,80.0
7231,B-4,254.75,123/500,63,80.0
7232,F#4,254.75,123/500,63,80.0
7233,C#4,254.75,123/500,63,80.0
7234,B-3,254.75,0.5,63,80.0
7235,B-4,254.75,0.5,63,80.0
7236,F#4,255.0,0.5,95,80.0
7237,F#2,255.0,0.5,95,80.0
7238,C#4,255.0,123/500,63,80.0
7239,F#4,255.0,123/500,63,80.0
7240,B-4,255.0,123/500,63,80.0
7241,F#1,255.0,1.0,63,80.0
7242,F#2,255.0,1.0,63,80.0
7243,E1,255.0,0.25,106,80.0
7244,G#2,255.0,0.25,106,80.0
7245,E2,255.0,0.25,106,80.0
7246,G#2,255.25,0.25,95,80.0
7247,B-4,255.25,123/500,63,80.0
7248,F#4,255.25,123/500,63,80.0
7249,C#4,255.25,123/500,63,80.0
7250,B3,255.25,0.25,63,80.0
7251,B4,255.25,0.25,63,80.0
7252,F#2,255.5,0.25,95,80.0
7253,C#4,255.5,123/500,63,80.0
7254,F#4,255.5,123/500,63,80.0
7255,B-4,255.5,123/500,63,80.0
7256,C#4,255.5,0.25,63,80.0
7257,C#5,255.5,0.25,63,80.0
7258,E-3,255.5,0.25,63,80.0
7259,E-4,255.5,0.25,63,80.0
7260,C#3,255.5,0.25,63,80.0
7261,C#4,255.5,0.25,63,80.0
7262,E1,255.5,0.25,111,80.0
7263,G#2,255.5,0.25,111,80.0
7264,F#2,255.75,1.0,95,80.0
7265,B-4,255.75,123/500,95,80.0
7266,E4,255.75,123/500,95,80.0
7267,C#4,255.75,123/500,95,80.0
7268,D4,255.75,0.5,63,80.0
7269,D5,255.75,0.5,63,80.0
7270,F#3,255.75,0.5,63,80.0
7271,F#4,255.75,0.5,63,80.0
7272,D3,255.75,0.5,63,80.0
7273,D4,255.75,0.5,63,80.0
7274,B2,255.75,0.5,63,80.0
7275,B3,255.75,0.5,63,80.0
7276,E1,255.75,0.25,106,80.0
7277,G#2,255.75,0.25,106,80.0
7278,C2,255.75,0.25,106,80.0
7279,G#2,256.0,0.25,95,80.0
7280,F#1,256.0,1.0,63,80.0
7281,F#2,256.0,1.0,63,80.0
7282,B-4,256.25,123/500,95,80.0
7283,E4,256.25,123/500,95,80.0
7284,C#4,256.25,123/500,95,80.0
7285,B-3,256.25,0.5,63,80.0
7286,B-4,256.25,0.5,63,80.0
7287,F#3,256.25,0.5,63,80.0
7288,F#4,256.25,0.5,63,80.0
7289,D3,256.25,0.5,63,80.0
7290,D4,256.25,0.5,63,80.0
7291,B2,256.25,0.5,63,80.0
7292,B3,256.25,0.5,63,80.0
7293,G#2,256.25,0.25,95,80.0
7294,C2,256.25,0.25,95,80.0
7295,E-4,256.5,0.25,95,80.0
7296,E1,256.5,0.25,111,80.0
7297,G#2,256.5,0.25,111,80.0
7298,F#4,256.75,0.25,95,80.0
7299,F#2,256.75,0.25,95,80.0
7300,B-4,256.75,123/500,95,80.0
7301,E4,256.75,123/500,95,80.0
7302,C#4,256.75,123/500,95,80.0
7303,G#3,256.75,0.5,63,80.0
7304,G#4,256.75,0.5,63,80.0
7305,E1,256.75,0.25,106,80.0
7306,G#2,256.75,0.25,106,80.0
7307,C2,256.75,0.25,106,80.0
7308,B-4,257.0,0.25,95,80.0
7309,F#2,257.0,1.0,95,80.0
7310,C#4,257.0,123/500,95,80.0
7311,E4,257.0,123/500,95,80.0
7312,B-4,257.0,123/500,95,80.0
7313,F#1,257.0,1.0,63,80.0
7314,F#2,257.0,1.0,63,80.0
7315,G#2,257.0,0.25,95,80.0
7316,E2,257.0,0.25,95,80.0
7317,G#4,257.25,0.25,95,80.0
7318,B-4,257.25,123/500,63,80.0
7319,E4,257.25,123/500,63,80.0
7320,C#4,257.25,123/500,63,80.0
7321,B2,257.25,0.25,63,80.0
7322,B3,257.25,0.25,63,80.0
7323,E1,257.25,0.25,111,80.0
7324,G#2,257.25,0.25,111,80.0
7325,C#4,257.5,123/500,63,80.0
7326,E4,257.5,123/500,63,80.0
7327,B-4,257.5,123/500,63,80.0
7328,G#3,257.5,0.5,63,80.0
7329,G#4,257.5,0.5,63,80.0
7330,F#3,257.5,0.5,63,80.0
7331,F#4,257.5,0.5,63,80.0
7332,E-3,257.5,0.5,63,80.0
7333,E-4,257.5,0.5,63,80.0
7334,E1,257.5,0.25,111,80.0
7335,G#2,257.5,0.25,111,80.0
7336,G#4,257.75,0.25,95,80.0
7337,B-4,257.75,123/500,63,80.0
7338,E4,257.75,123/500,63,80.0
7339,C#4,257.75,123/500,63,80.0
7340,G#2,257.75,0.25,95,80.0
7341,C2,257.75,0.25,95,80.0
7342,F#2,258.0,0.75,95,80.0
7343,F#3,258.0,61/250,95,80.0
7344,C#4,258.0,61/250,95,80.0
7345,E-4,258.0,61/250,95,80.0
7346,B-4,258.0,61/250,95,80.0
7347,B-3,258.0,1.25,63,80.0
7348,B-4,258.0,1.25,63,80.0
7349,F#3,258.0,1.25,63,80.0
7350,F#4,258.0,1.25,63,80.0
7351,C#3,258.0,1.25,63,80.0
7352,C#4,258.0,1.25,63,80.0
7353,F#1,258.0,1.0,63,80.0
7354,F#2,258.0,1.0,63,80.0
7355,G#2,258.0,0.25,95,80.0
7356,C2,258.0,0.25,95,80.0
7357,B-4,258.0,2.0,95,80.0
7358,F#4,258.0,2.0,95,80.0
7359,F#4,258.25,0.25,95,80.0
7360,G#2,258.25,0.25,95,80.0
7361,B-4,258.25,123/500,63,80.0
7362,E-4,258.25,123/500,63,80.0
7363,C#4,258.25,123/500,63,80.0
7364,G#2,258.5,0.25,95,80.0
7365,C#4,258.5,123/500,63,80.0
7366,E-4,258.5,123/500,63,80.0
7367,B-4,258.5,123/500,63,80.0
7368,F#4,258.75,0.25,95,80.0
7369,G#2,258.75,0.25,95,80.0
7370,F#2,258.75,0.25,95,80.0
7371,B-4,258.75,123/500,63,80.0
7372,E-4,258.75,123/500,63,80.0
7373,C#4,258.75,123/500,63,80.0
7374,F#2,259.0,0.5,95,80.0
7375,C#4,259.0,123/500,63,80.0
7376,E-4,259.0,123/500,63,80.0
7377,B-4,259.0,123/500,63,80.0
7378,F#1,259.0,1.0,63,80.0
7379,F#2,259.0,1.0,63,80.0
7380,E1,259.0,0.25,106,80.0
7381,G#2,259.0,0.25,106,80.0
7382,E2,259.0,0.25,106,80.0
7383,E-4,259.25,0.25,95,80.0
7384,G#2,259.25,0.25,95,80.0
7385,B-4,259.25,123/500,63,80.0
7386,E-4,259.25,123/500,63,80.0
7387,C#4,259.25,123/500,63,80.0
7388,C#3,259.25,0.25,63,80.0
7389,C#4,259.25,0.25,63,80.0
7390,F#2,259.5,0.25,95,80.0
7391,C#4,259.5,123/500,63,80.0
7392,E-4,259.5,123/500,63,80.0
7393,B-4,259.5,123/500,63,80.0
7394,B-3,259.5,0.25,63,80.0
7395,B-4,259.5,0.25,63,80.0
7396,F#3,259.5,0.25,63,80.0
7397,F#4,259.5,0.25,63,80.0
7398,E1,259.5,0.25,111,80.0
7399,G#2,259.5,0.25,111,80.0
7400,F#4,259.75,1.0,95,80.0
7401,F#2,259.75,1.0,95,80.0
7402,B4,259.75,61/250,95,80.0
7403,G#4,259.75,61/250,95,80.0
7404,D4,259.75,61/250,95,80.0
7405,F#3,259.75,61/250,95,80.0
7406,G#3,259.75,1.5,63,80.0
7407,G#4,259.75,1.5,63,80.0
7408,F3,259.75,1.5,63,80.0
7409,F4,259.75,1.5,63,80.0
7410,C#3,259.75,1.5,63,80.0
7411,C#4,259.75,1.5,63,80.0
7412,E1,259.75,0.25,106,80.0
7413,G#2,259.75,0.25,106,80.0
7414,C2,259.75,0.25,106,80.0
7415,G#2,260.0,0.25,95,80.0
7416,F#1,260.0,1.0,63,80.0
7417,F#2,260.0,1.0,63,80.0
7418,B-4,260.0,2.0,95,80.0
7419,F#4,260.0,2.0,95,80.0
7420,B4,260.25,123/500,95,80.0
7421,G#4,260.25,123/500,95,80.0
7422,D4,260.25,123/500,95,80.0
7423,G#2,260.25,0.25,95,80.0
7424,C2,260.25,0.25,95,80.0
7425,E1,260.5,0.25,111,80.0
7426,G#2,260.5,0.25,111,80.0
7427,B-4,260.75,0.25,95,80.0
7428,F#2,260.75,0.25,95,80.0
7429,B4,260.75,123/500,95,80.0
7430,G#4,260.75,123/500,95,80.0
7431,D4,260.75,123/500,95,80.0
7432,E1,260.75,0.25,106,80.0
7433,G#2,260.75,0.25,106,80.0
7434,C2,260.75,0.25,106,80.0
7435,F#4,261.0,0.5,95,80.0
7436,F#2,261.0,1.0,95,80.0
7437,D4,261.0,123/500,95,80.0
7438,G#4,261.0,123/500,95,80.0
7439,B4,261.0,123/500,95,80.0
7440,F#1,261.0,1.0,63,80.0
7441,F#2,261.0,1.0,63,80.0
7442,G#2,261.0,0.25,95,80.0
7443,E2,261.0,0.25,95,80.0
7444,B4,261.25,123/500,63,80.0
7445,G#4,261.25,123/500,63,80.0
7446,D4,261.25,123/500,63,80.0
7447,C#3,261.25,0.25,63,80.0
7448,C#4,261.25,0.25,63,80.0
7449,E1,261.25,0.25,111,80.0
7450,G#2,261.25,0.25,111,80.0
7451,D4,261.5,123/500,63,80.0
7452,G#4,261.5,123/500,63,80.0
7453,B4,261.5,123/500,63,80.0
7454,G#3,261.5,0.25,63,80.0
7455,G#4,261.5,0.25,63,80.0
7456,F3,261.5,0.25,63,80.0
7457,F4,261.5,0.25,63,80.0
7458,E1,261.5,0.25,111,80.0
7459,G#2,261.5,0.25,111,80.0
7460,B4,261.75,123/500,63,80.0
7461,G#4,261.75,123/500,63,80.0
7462,D4,261.75,123/500,63,80.0
7463,B3,261.75,0.25,63,80.0
7464,B4,261.75,0.25,63,80.0
7465,F#3,261.75,0.25,63,80.0
7466,F#4,261.75,0.25,63,80.0
7467,E-3,261.75,0.25,63,80.0
7468,E-4,261.75,0.25,63,80.0
7469,G#2,261.75,0.25,95,80.0
7470,C2,261.75,0.25,95,80.0
7471,G#3,262.0,2.0,95,80.0
7472,B3,262.0,2.0,95,80.0
7473,F#2,262.0,0.75,95,80.0
7474,F#3,262.0,61/250,95,80.0
7475,C#4,262.0,61/250,95,80.0
7476,F#4,262.0,61/250,95,80.0
7477,B-4,262.0,61/250,95,80.0
7478,F#1,262.0,0.75,63,80.0
7479,F#2,262.0,0.75,63,80.0
7480,G#2,262.0,0.25,95,80.0
7481,C2,262.0,0.25,95,80.0
7482,B-4,262.0,0.5,95,80.0
7483,F#4,262.0,0.5,95,80.0
7484,G#2,262.25,0.25,95,80.0
7485,B-4,262.25,123/500,63,80.0
7486,F#4,262.25,123/500,63,80.0
7487,C#4,262.25,123/500,63,80.0
7488,G#2,262.5,0.25,95,80.0
7489,C#4,262.5,123/500,63,80.0
7490,F#4,262.5,123/500,63,80.0
7491,B-4,262.5,123/500,63,80.0
7492,B-4,262.5,0.25,95,80.0
7493,F#4,262.5,0.25,95,80.0
7494,G#2,262.75,0.25,95,80.0
7495,F#2,262.75,0.25,95,80.0
7496,B-4,262.75,123/500,63,80.0
7497,F#4,262.75,123/500,63,80.0
7498,C#4,262.75,123/500,63,80.0
7499,F#1,262.75,0.25,63,80.0
7500,F#2,262.75,0.25,63,80.0
7501,B-4,262.75,0.5,95,80.0
7502,F#4,262.75,0.5,95,80.0
7503,F#2,263.0,0.5,95,80.0
7504,C#4,263.0,123/500,63,80.0
7505,F#4,263.0,123/500,63,80.0
7506,B-4,263.0,123/500,63,80.0
7507,F#1,263.0,1.0,63,80.0
7508,F#2,263.0,1.0,63,80.0
7509,E1,263.0,0.25,106,80.0
7510,G#2,263.0,0.25,106,80.0
7511,E2,263.0,0.25,106,80.0
7512,G#2,263.25,0.25,95,80.0
7513,B-4,263.25,123/500,63,80.0
7514,F#4,263.25,123/500,63,80.0
7515,C#4,263.25,123/500,63,80.0
7516,B3,263.25,1.25,63,80.0
7517,B4,263.25,1.25,63,80.0
7518,F#3,263.25,1.25,63,80.0
7519,F#4,263.25,1.25,63,80.0
7520,E-3,263.25,1.25,63,80.0
7521,E-4,263.25,1.25,63,80.0
7522,B4,263.25,0.25,95,80.0
7523,G#4,263.25,0.25,95,80.0
7524,F#2,263.5,0.25,95,80.0
7525,C#4,263.5,123/500,63,80.0
7526,F#4,263.5,123/500,63,80.0
7527,B-4,263.5,123/500,63,80.0
7528,E1,263.5,0.25,111,80.0
7529,G#2,263.5,0.25,111,80.0
7530,C#5,263.5,0.25,95,80.0
7531,G#4,263.5,0.25,95,80.0
7532,C#2,263.75,1.0,95,80.0
7533,G#4,263.75,121/500,95,80.0
7534,F4,263.75,121/500,95,80.0
7535,C#4,263.75,121/500,95,80.0
7536,G#3,263.75,121/500,95,80.0
7537,C#3,263.75,121/500,95,80.0
7538,E1,263.75,0.25,106,80.0
7539,G#2,263.75,0.25,106,80.0
7540,C2,263.75,0.25,106,80.0
7541,D5,263.75,0.5,95,80.0
7542,B4,263.75,0.5,95,80.0
7543,G#3,264.0,1.0,95,80.0
7544,C#4,264.0,1.0,95,80.0
7545,G#2,264.0,0.25,95,80.0
7546,C#1,264.0,0.75,63,80.0
7547,C#2,264.0,0.75,63,80.0
7548,G#4,264.25,61/250,95,80.0
7549,F4,264.25,61/250,95,80.0
7550,C#4,264.25,61/250,95,80.0
7551,G#3,264.25,61/250,95,80.0
7552,G#2,264.25,0.25,95,80.0
7553,C2,264.25,0.25,95,80.0
7554,B-4,264.25,0.5,95,80.0
7555,F#4,264.25,0.5,95,80.0
7556,E-3,264.5,0.25,63,80.0
7557,E-4,264.5,0.25,63,80.0
7558,E1,264.5,0.25,111,80.0
7559,G#2,264.5,0.25,111,80.0
7560,C#2,264.75,0.25,95,80.0
7561,G#4,264.75,61/250,95,80.0
7562,F4,264.75,61/250,95,80.0
7563,C#4,264.75,61/250,95,80.0
7564,G#3,264.75,61/250,95,80.0
7565,B3,264.75,0.25,63,80.0
7566,B4,264.75,0.25,63,80.0
7567,F#3,264.75,0.25,63,80.0
7568,F#4,264.75,0.25,63,80.0
7569,C#1,264.75,0.25,63,80.0
7570,C#2,264.75,0.25,63,80.0
7571,E1,264.75,0.25,106,80.0
7572,G#2,264.75,0.25,106,80.0
7573,C2,264.75,0.25,106,80.0
7574,G#4,264.75,0.5,95,80.0
7575,F#4,264.75,0.5,95,80.0
7576,G#3,265.0,1.0,95,80.0
7577,C#4,265.0,1.0,95,80.0
7578,C#2,265.0,1.0,95,80.0
7579,G#3,265.0,61/250,95,80.0
7580,C#4,265.0,61/250,95,80.0
7581,F4,265.0,61/250,95,80.0
7582,G#4,265.0,61/250,95,80.0
7583,B-3,265.0,0.25,63,80.0
7584,B-4,265.0,0.25,63,80.0
7585,F#3,265.0,0.25,63,80.0
7586,F#4,265.0,0.25,63,80.0
7587,C#3,265.0,0.25,63,80.0
7588,C#4,265.0,0.25,63,80.0
7589,C#1,265.0,1.0,63,80.0
7590,C#2,265.0,1.0,63,80.0
7591,G#2,265.0,0.25,95,80.0
7592,E2,265.0,0.25,95,80.0
7593,G#4,265.25,61/250,63,80.0
7594,F4,265.25,61/250,63,80.0
7595,C#4,265.25,61/250,63,80.0
7596,G#3,265.25,61/250,63,80.0
7597,E1,265.25,0.25,111,80.0
7598,G#2,265.25,0.25,111,80.0
7599,G#4,265.25,0.5,95,80.0
7600,F#4,265.25,0.5,95,80.0
7601,G#3,265.5,61/250,63,80.0
7602,C#4,265.5,61/250,63,80.0
7603,F4,265.5,61/250,63,80.0
7604,G#4,265.5,61/250,63,80.0
7605,E1,265.5,0.25,111,80.0
7606,G#2,265.5,0.25,111,80.0
7607,G#4,265.75,61/250,63,80.0
7608,F4,265.75,61/250,63,80.0
7609,C#4,265.75,61/250,63,80.0
7610,G#3,265.75,61/250,63,80.0
7611,G#2,265.75,0.25,95,80.0
7612,C2,265.75,0.25,95,80.0
7613,G#4,265.75,0.25,95,80.0
7614,F#4,265.75,0.25,95,80.0
7615,A3,266.0,1.25,95,80.0
7616,C#4,266.0,1.25,95,80.0
7617,F#2,266.0,0.75,95,80.0
7618,F#3,266.0,61/250,95,80.0
7619,B3,266.0,61/250,95,80.0
7620,F#4,266.0,61/250,95,80.0
7621,B4,266.0,61/250,95,80.0
7622,F#1,266.0,0.75,63,80.0
7623,F#2,266.0,0.75,63,80.0
7624,G#2,266.0,0.25,95,80.0
7625,C2,266.0,0.25,95,80.0
7626,B-4,266.0,2.0,95,80.0
7627,F#4,266.0,2.0,95,80.0
7628,G#2,266.25,0.25,95,80.0
7629,B4,266.25,61/250,63,80.0
7630,F#4,266.25,61/250,63,80.0
7631,B3,266.25,61/250,63,80.0
7632,F#3,266.25,61/250,63,80.0
7633,G#2,266.5,0.25,95,80.0
7634,F#3,266.5,61/250,63,80.0
7635,B3,266.5,61/250,63,80.0
7636,F#4,266.5,61/250,63,80.0
7637,B4,266.5,61/250,63,80.0
7638,B-3,266.5,1.25,63,80.0
7639,B-4,266.5,1.25,63,80.0
7640,F#3,266.5,1.25,63,80.0
7641,F#4,266.5,1.25,63,80.0
7642,C#3,266.5,1.25,63,80.0
7643,C#4,266.5,1.25,63,80.0
7644,G#2,266.75,0.25,95,80.0
7645,F#2,266.75,0.25,95,80.0
7646,B4,266.75,61/250,63,80.0
7647,F#4,266.75,61/250,63,80.0
7648,B3,266.75,61/250,63,80.0
7649,F#3,266.75,61/250,63,80.0
7650,F#1,266.75,0.25,63,80.0
7651,F#2,266.75,0.25,63,80.0
7652,F#2,267.0,0.5,95,80.0
7653,F#3,267.0,61/250,63,80.0
7654,B3,267.0,61/250,63,80.0
7655,F#4,267.0,61/250,63,80.0
7656,B4,267.0,61/250,63,80.0
7657,F#1,267.0,1.0,63,80.0
7658,F#2,267.0,1.0,63,80.0
7659,E1,267.0,0.25,106,80.0
7660,G#2,267.0,0.25,106,80.0
7661,E2,267.0,0.25,106,80.0
7662,C#4,267.25,0.25,95,80.0
7663,F4,267.25,0.25,95,80.0
7664,G#2,267.25,0.25,95,80.0
7665,B4,267.25,61/250,63,80.0
7666,F#4,267.25,61/250,63,80.0
7667,B3,267.25,61/250,63,80.0
7668,F#3,267.25,61/250,63,80.0
7669,B3,267.5,0.25,95,80.0
7670,E-4,267.5,0.25,95,80.0
7671,F#2,267.5,0.25,95,80.0
7672,F#3,267.5,61/250,63,80.0
7673,B3,267.5,61/250,63,80.0
7674,F#4,267.5,61/250,63,80.0
7675,B4,267.5,61/250,63,80.0
7676,E1,267.5,0.25,111,80.0
7677,G#2,267.5,0.25,111,80.0
7678,B-3,267.75,1.25,95,80.0
7679,C#4,267.75,1.5,95,80.0
7680,F#2,267.75,1.0,95,80.0
7681,B-4,267.75,61/250,95,80.0
7682,F#4,267.75,61/250,95,80.0
7683,C#4,267.75,61/250,95,80.0
7684,F#3,267.75,61/250,95,80.0
7685,C#3,267.75,0.25,63,80.0
7686,C#4,267.75,0.25,63,80.0
7687,E1,267.75,0.25,106,80.0
7688,G#2,267.75,0.25,106,80.0
7689,C2,267.75,0.25,106,80.0
7690,G#2,268.0,0.25,95,80.0
7691,G#3,268.0,0.25,63,80.0
7692,G#4,268.0,0.25,63,80.0
7693,F#1,268.0,0.75,63,80.0
7694,F#2,268.0,0.75,63,80.0
7695,G#4,268.0,1.0,95,80.0
7696,C#4,268.0,1.0,95,80.0
7697,B-4,268.25,123/500,95,80.0
7698,F#4,268.25,123/500,95,80.0
7699,C#4,268.25,123/500,95,80.0
7700,B-3,268.25,1.25,63,80.0
7701,B-4,268.25,1.25,63,80.0
7702,F#3,268.25,1.25,63,80.0
7703,F#4,268.25,1.25,63,80.0
7704,C#3,268.25,1.25,63,80.0
7705,C#4,268.25,1.25,63,80.0
7706,G#2,268.25,0.25,95,80.0
7707,C2,268.25,0.25,95,80.0
7708,E1,268.5,0.25,111,80.0
7709,G#2,268.5,0.25,111,80.0
7710,F#2,268.75,0.25,95,80.0
7711,B-4,268.75,123/500,95,80.0
7712,F#4,268.75,123/500,95,80.0
7713,C#4,268.75,123/500,95,80.0
7714,F#1,268.75,0.25,63,80.0
7715,F#2,268.75,0.25,63,80.0
7716,E1,268.75,0.25,106,80.0
7717,G#2,268.75,0.25,106,80.0
7718,C2,268.75,0.25,106,80.0
7719,F#2,269.0,1.0,95,80.0
7720,C#4,269.0,123/500,95,80.0
7721,F#4,269.0,123/500,95,80.0
7722,B-4,269.0,123/500,95,80.0
7723,F#1,269.0,0.25,63,80.0
7724,F#2,269.0,0.25,63,80.0
7725,G#2,269.0,0.25,95,80.0
7726,E2,269.0,0.25,95,80.0
7727,C#5,269.0,1.0,95,80.0
7728,C#4,269.0,1.0,95,80.0
7729,B-4,269.25,123/500,63,80.0
7730,F#4,269.25,123/500,63,80.0
7731,C#4,269.25,123/500,63,80.0
7732,F#1,269.25,0.5,63,80.0
7733,F#2,269.25,0.5,63,80.0
7734,E1,269.25,0.25,111,80.0
7735,G#2,269.25,0.25,111,80.0
7736,E-4,269.5,0.25,95,80.0
7737,C#4,269.5,123/500,63,80.0
7738,F#4,269.5,123/500,63,80.0
7739,B-4,269.5,123/500,63,80.0
7740,E1,269.5,0.25,111,80.0
7741,G#2,269.5,0.25,111,80.0
7742,F#4,269.75,0.25,95,80.0
7743,B-4,269.75,123/500,63,80.0
7744,F#4,269.75,123/500,63,80.0
7745,C#4,269.75,123/500,63,80.0
7746,F#1,269.75,0.25,63,80.0
7747,F#2,269.75,0.25,63,80.0
7748,G#2,269.75,0.25,95,80.0
7749,C2,269.75,0.25,95,80.0
7750,G#4,270.0,0.5,95,80.0
7751,F#2,270.0,0.75,95,80.0
7752,F#3,270.0,61/250,95,80.0
7753,C#4,270.0,61/250,95,80.0
7754,F#4,270.0,61/250,95,80.0
7755,B-4,270.0,61/250,95,80.0
7756,F#1,270.0,1.0,63,80.0
7757,F#2,270.0,1.0,63,80.0
7758,C#3,270.0,0.5,95,80.0
7759,C2,270.0,0.5,95,80.0
7760,E-5,270.0,1.75,95,80.0
7761,B4,270.0,1.75,95,80.0
7762,B-4,270.25,123/500,63,80.0
7763,F#4,270.25,123/500,63,80.0
7764,C#4,270.25,123/500,63,80.0
7765,G#4,270.5,0.25,95,80.0
7766,G#2,270.5,0.25,95,80.0
7767,C#4,270.5,123/500,63,80.0
7768,F#4,270.5,123/500,63,80.0
7769,B-4,270.5,123/500,63,80.0
7770,F#4,270.75,0.25,95,80.0
7771,G#2,270.75,0.25,95,80.0
7772,F#2,270.75,0.25,95,80.0
7773,B-4,270.75,123/500,63,80.0
7774,F#4,270.75,123/500,63,80.0
7775,C#4,270.75,123/500,63,80.0
7776,F#4,271.0,0.5,95,80.0
7777,F#2,271.0,0.5,95,80.0
7778,C#4,271.0,123/500,63,80.0
7779,F#4,271.0,123/500,63,80.0
7780,B-4,271.0,123/500,63,80.0
7781,F#1,271.0,1.0,63,80.0
7782,F#2,271.0,1.0,63,80.0
7783,E1,271.0,0.25,106,80.0
7784,G#2,271.0,0.25,106,80.0
7785,E2,271.0,0.25,106,80.0
7786,G#2,271.25,0.25,95,80.0
7787,B-4,271.25,123/500,63,80.0
7788,F#4,271.25,123/500,63,80.0
7789,C#4,271.25,123/500,63,80.0
7790,F#2,271.5,0.25,95,80.0
7791,C#4,271.5,123/500,63,80.0
7792,F#4,271.5,123/500,63,80.0
7793,B-4,271.5,123/500,63,80.0
7794,E1,271.5,0.25,111,80.0
7795,G#2,271.5,0.25,111,80.0
7796,F#2,271.75,1.0,95,80.0
7797,B-4,271.75,123/500,95,80.0
7798,E4,271.75,123/500,95,80.0
7799,C#4,271.75,123/500,95,80.0
7800,E1,271.75,0.25,106,80.0
7801,G#2,271.75,0.25,106,80.0
7802,C2,271.75,0.25,106,80.0
7803,B-4,271.75,0.25,95,80.0
7804,F#4,271.75,0.25,95,80.0
7805,G#2,272.0,0.25,95,80.0
7806,F#1,272.0,1.0,63,80.0
7807,F#2,272.0,1.0,63,80.0
7808,B-4,272.25,123/500,95,80.0
7809,E4,272.25,123/500,95,80.0
7810,C#4,272.25,123/500,95,80.0
7811,G#2,272.25,0.25,95,80.0
7812,C2,272.25,0.25,95,80.0
7813,E-4,272.5,0.25,95,80.0
7814,B-3,272.5,1.5,63,80.0
7815,B-4,272.5,1.5,63,80.0
7816,F#3,272.5,1.5,63,80.0
7817,F#4,272.5,1.5,63,80.0
7818,C#3,272.5,1.5,63,80.0
7819,C#4,272.5,1.5,63,80.0
7820,E1,272.5,0.25,111,80.0
7821,G#2,272.5,0.25,111,80.0
7822,F#4,272.75,0.25,95,80.0
7823,F#2,272.75,0.25,95,80.0
7824,B-4,272.75,123/500,95,80.0
7825,E4,272.75,123/500,95,80.0
7826,C#4,272.75,123/500,95,80.0
7827,E1,272.75,0.25,106,80.0
7828,G#2,272.75,0.25,106,80.0
7829,C2,272.75,0.25,106,80.0
7830,B-4,273.0,0.5,95,80.0
7831,F#2,273.0,1.0,95,80.0
7832,C#4,273.0,123/500,95,80.0
7833,E4,273.0,123/500,95,80.0
7834,B-4,273.0,123/500,95,80.0
7835,F#1,273.0,1.0,63,80.0
7836,F#2,273.0,1.0,63,80.0
7837,G#2,273.0,0.25,95,80.0
7838,E2,273.0,0.25,95,80.0
7839,B-4,273.25,123/500,63,80.0
7840,E4,273.25,123/500,63,80.0
7841,C#4,273.25,123/500,63,80.0
7842,E1,273.25,0.25,111,80.0
7843,G#2,273.25,0.25,111,80.0
7844,G#4,273.5,0.5,95,80.0
7845,C#4,273.5,123/500,63,80.0
7846,E4,273.5,123/500,63,80.0
7847,B-4,273.5,123/500,63,80.0
7848,E1,273.5,0.25,111,80.0
7849,G#2,273.5,0.25,111,80.0
7850,B-4,273.75,123/500,63,80.0
7851,E4,273.75,123/500,63,80.0
7852,C#4,273.75,123/500,63,80.0
7853,G#2,273.75,0.25,95,80.0
7854,C2,273.75,0.25,95,80.0
7855,G#4,274.0,0.25,95,80.0
7856,F#2,274.0,0.75,95,80.0
7857,F#3,274.0,61/250,95,80.0
7858,C#4,274.0,61/250,95,80.0
7859,E-4,274.0,61/250,95,80.0
7860,B-4,274.0,61/250,95,80.0
7861,B-3,274.0,0.25,63,80.0
7862,B-4,274.0,0.25,63,80.0
7863,F#3,274.0,0.25,63,80.0
7864,F#4,274.0,0.25,63,80.0
7865,C#3,274.0,0.25,63,80.0
7866,C#4,274.0,0.25,63,80.0
7867,F#1,274.0,1.0,63,80.0
7868,F#2,274.0,1.0,63,80.0
7869,G#2,274.0,0.25,95,80.0
7870,C2,274.0,0.25,95,80.0
7871,F#4,274.25,0.5,95,80.0
7872,G#2,274.25,0.25,95,80.0
7873,B-4,274.25,123/500,63,80.0
7874,E-4,274.25,123/500,63,80.0
7875,C#4,274.25,123/500,63,80.0
7876,B-3,274.25,1.75,63,80.0
7877,B-4,274.25,1.75,63,80.0
7878,E3,274.25,1.75,63,80.0
7879,E4,274.25,1.75,63,80.0
7880,C#3,274.25,1.75,63,80.0
7881,C#4,274.25,1.75,63,80.0
7882,G#2,274.5,0.25,95,80.0
7883,C#4,274.5,123/500,63,80.0
7884,E-4,274.5,123/500,63,80.0
7885,B-4,274.5,123/500,63,80.0
7886,F#4,274.75,0.5,95,80.0
7887,G#2,274.75,0.25,95,80.0
7888,F#2,274.75,0.25,95,80.0
7889,B-4,274.75,123/500,63,80.0
7890,E-4,274.75,123/500,63,80.0
7891,C#4,274.75,123/500,63,80.0
7892,F#2,275.0,0.5,95,80.0
7893,C#4,275.0,123/500,63,80.0
7894,E-4,275.0,123/500,63,80.0
7895,B-4,275.0,123/500,63,80.0
7896,F#1,275.0,1.0,63,80.0
7897,F#2,275.0,1.0,63,80.0
7898,E1,275.0,0.25,106,80.0
7899,G#2,275.0,0.25,106,80.0
7900,E2,275.0,0.25,106,80.0
7901,E-4,275.25,0.25,95,80.0
7902,G#2,275.25,0.25,95,80.0
7903,B-4,275.25,123/500,63,80.0
7904,E-4,275.25,123/500,63,80.0
7905,C#4,275.25,123/500,63,80.0
7906,F#2,275.5,0.25,95,80.0
7907,C#4,275.5,123/500,63,80.0
7908,E-4,275.5,123/500,63,80.0
7909,B-4,275.5,123/500,63,80.0
7910,E1,275.5,0.25,111,80.0
7911,G#2,275.5,0.25,111,80.0
7912,F#4,275.75,1.0,95,80.0
7913,F#2,275.75,1.0,95,80.0
7914,B4,275.75,61/250,95,80.0
7915,G#4,275.75,61/250,95,80.0
7916,D4,275.75,61/250,95,80.0
7917,F#3,275.75,61/250,95,80.0
7918,E1,275.75,0.25,106,80.0
7919,G#2,275.75,0.25,106,80.0
7920,C2,275.75,0.25,106,80.0
7921,G#2,276.0,0.25,95,80.0
7922,B-3,276.0,0.25,63,80.0
7923,B-4,276.0,0.25,63,80.0
7924,E3,276.0,0.25,63,80.0
7925,E4,276.0,0.25,63,80.0
7926,C#3,276.0,0.25,63,80.0
7927,C#4,276.0,0.25,63,80.0
7928,F#1,276.0,1.0,63,80.0
7929,F#2,276.0,1.0,63,80.0
7930,B-4,276.0,4.0,95,80.0
7931,F#4,276.0,4.0,95,80.0
7932,B4,276.25,123/500,95,80.0
7933,G#4,276.25,123/500,95,80.0
7934,D4,276.25,123/500,95,80.0
7935,B-3,276.25,0.25,63,80.0
7936,B-4,276.25,0.25,63,80.0
7937,E-3,276.25,0.25,63,80.0
7938,E-4,276.25,0.25,63,80.0
7939,C#3,276.25,0.25,63,80.0
7940,C#4,276.25,0.25,63,80.0
7941,G#2,276.25,0.25,95,80.0
7942,C2,276.25,0.25,95,80.0
7943,E1,276.5,0.25,111,80.0
7944,G#2,276.5,0.25,111,80.0
7945,B-4,276.75,0.25,95,80.0
7946,F#2,276.75,0.25,95,80.0
7947,B4,276.75,123/500,95,80.0
7948,G#4,276.75,123/500,95,80.0
7949,D4,276.75,123/500,95,80.0
7950,E1,276.75,0.25,106,80.0
7951,G#2,276.75,0.25,106,80.0
7952,C2,276.75,0.25,106,80.0
7953,F#4,277.0,0.5,95,80.0
7954,F#2,277.0,1.0,95,80.0
7955,D4,277.0,123/500,95,80.0
7956,G#4,277.0,123/500,95,80.0
7957,B4,277.0,123/500,95,80.0
7958,F#1,277.0,1.0,63,80.0
7959,F#2,277.0,1.0,63,80.0
7960,G#2,277.0,0.25,95,80.0
7961,E2,277.0,0.25,95,80.0
7962,B4,277.25,123/500,63,80.0
7963,G#4,277.25,123/500,63,80.0
7964,D4,277.25,123/500,63,80.0
7965,E1,277.25,0.25,111,80.0
7966,G#2,277.25,0.25,111,80.0
7967,D4,277.5,123/500,63,80.0
7968,G#4,277.5,123/500,63,80.0
7969,B4,277.5,123/500,63,80.0
7970,E1,277.5,0.25,111,80.0
7971,G#2,277.5,0.25,111,80.0
7972,B4,277.75,123/500,63,80.0
7973,G#4,277.75,123/500,63,80.0
7974,D4,277.75,123/500,63,80.0
7975,G#2,277.75,0.25,95,80.0
7976,C2,277.75,0.25,95,80.0
7977,G#3,278.0,2.0,95,80.0
7978,B3,278.0,2.0,95,80.0
7979,F#2,278.0,0.75,95,80.0
7980,F#3,278.0,61/250,95,80.0
7981,C#4,278.0,61/250,95,80.0
7982,F#4,278.0,61/250,95,80.0
7983,B-4,278.0,61/250,95,80.0
7984,B-3,278.0,1.5,63,80.0
7985,B-4,278.0,1.5,63,80.0
7986,E-3,278.0,1.5,63,80.0
7987,E-4,278.0,1.5,63,80.0
7988,C#3,278.0,1.5,63,80.0
7989,C#4,278.0,1.5,63,80.0
7990,F#1,278.0,0.75,63,80.0
7991,F#2,278.0,0.75,63,80.0
7992,G#2,278.0,0.25,95,80.0
7993,C2,278.0,0.25,95,80.0
7994,G#2,278.25,0.25,95,80.0
7995,B-4,278.25,123/500,63,80.0
7996,F#4,278.25,123/500,63,80.0
7997,C#4,278.25,123/500,63,80.0
7998,G#2,278.5,0.25,95,80.0
7999,C#4,278.5,123/500,63,80.0
8000,F#4,278.5,123/500,63,80.0
8001,B-4,278.5,123/500,63,80.0
8002,G#2,278.75,0.25,95,80.0
8003,F#2,278.75,0.25,95,80.0
8004,B-4,278.75,123/500,63,80.0
8005,F#4,278.75,123/500,63,80.0
8006,C#4,278.75,123/500,63,80.0
8007,F#1,278.75,0.25,63,80.0
8008,F#2,278.75,0.25,63,80.0
8009,F#2,279.0,0.5,95,80.0
8010,C#4,279.0,123/500,63,80.0
8011,F#4,279.0,123/500,63,80.0
8012,B-4,279.0,123/500,63,80.0
8013,F#1,279.0,1.0,63,80.0
8014,F#2,279.0,1.0,63,80.0
8015,E1,279.0,0.25,106,80.0
8016,G#2,279.0,0.25,106,80.0
8017,E2,279.0,0.25,106,80.0
8018,G#2,279.25,0.25,95,80.0
8019,B-4,279.25,123/500,63,80.0
8020,F#4,279.25,123/500,63,80.0
8021,C#4,279.25,123/500,63,80.0
8022,F#2,279.5,0.25,95,80.0
8023,C#4,279.5,123/500,63,80.0
8024,F#4,279.5,123/500,63,80.0
8025,B-4,279.5,123/500,63,80.0
8026,B-3,279.5,0.25,63,80.0
8027,B-4,279.5,0.25,63,80.0
8028,E-3,279.5,0.25,63,80.0
8029,E-4,279.5,0.25,63,80.0
8030,C#3,279.5,0.25,63,80.0
8031,C#4,279.5,0.25,63,80.0
8032,E1,279.5,0.25,111,80.0
8033,G#2,279.5,0.25,111,80.0
8034,C#2,279.75,1.0,95,80.0
8035,G#4,279.75,121/500,95,80.0
8036,F4,279.75,121/500,95,80.0
8037,C#4,279.75,121/500,95,80.0
8038,G#3,279.75,121/500,95,80.0
8039,C#3,279.75,121/500,95,80.0
8040,B-3,279.75,1.75,63,80.0
8041,B-4,279.75,1.75,63,80.0
8042,D3,279.75,1.75,63,80.0
8043,D4,279.75,1.75,63,80.0
8044,B2,279.75,1.75,63,80.0
8045,B3,279.75,1.75,63,80.0
8046,E1,279.75,0.25,106,80.0
8047,G#2,279.75,0.25,106,80.0
8048,C2,279.75,0.25,106,80.0
8049,G#3,280.0,1.0,95,80.0
8050,C#4,280.0,1.0,95,80.0
8051,G#2,280.0,0.25,95,80.0
8052,C#1,280.0,0.75,63,80.0
8053,C#2,280.0,0.75,63,80.0
8054,G#4,280.25,61/250,95,80.0
8055,F4,280.25,61/250,95,80.0
8056,C#4,280.25,61/250,95,80.0
8057,G#3,280.25,61/250,95,80.0
8058,G#2,280.25,0.25,95,80.0
8059,C2,280.25,0.25,95,80.0
8060,E1,280.5,0.25,111,80.0
8061,G#2,280.5,0.25,111,80.0
8062,C#2,280.75,0.25,95,80.0
8063,G#4,280.75,61/250,95,80.0
8064,F4,280.75,61/250,95,80.0
8065,C#4,280.75,61/250,95,80.0
8066,G#3,280.75,61/250,95,80.0
8067,C#1,280.75,0.25,63,80.0
8068,C#2,280.75,0.25,63,80.0
8069,E1,280.75,0.25,106,80.0
8070,G#2,280.75,0.25,106,80.0
8071,C2,280.75,0.25,106,80.0
8072,G#3,281.0,1.0,95,80.0
8073,C#4,281.0,1.0,95,80.0
8074,C#2,281.0,1.0,95,80.0
8075,G#3,281.0,61/250,95,80.0
8076,C#4,281.0,61/250,95,80.0
8077,F4,281.0,61/250,95,80.0
8078,G#4,281.0,61/250,95,80.0
8079,C#1,281.0,1.0,63,80.0
8080,C#2,281.0,1.0,63,80.0
8081,G#2,281.0,0.25,95,80.0
8082,E2,281.0,0.25,95,80.0
8083,G#4,281.25,61/250,63,80.0
8084,F4,281.25,61/250,63,80.0
8085,C#4,281.25,61/250,63,80.0
8086,G#3,281.25,61/250,63,80.0
8087,E1,281.25,0.25,111,80.0
8088,G#2,281.25,0.25,111,80.0
8089,G#3,281.5,61/250,63,80.0
8090,C#4,281.5,61/250,63,80.0
8091,F4,281.5,61/250,63,80.0
8092,G#4,281.5,61/250,63,80.0
8093,B2,281.5,0.25,63,80.0
8094,B3,281.5,0.25,63,80.0
8095,E1,281.5,0.25,111,80.0
8096,G#2,281.5,0.25,111,80.0
8097,G#4,281.75,61/250,63,80.0
8098,F4,281.75,61/250,63,80.0
8099,C#4,281.75,61/250,63,80.0
8100,G#3,281.75,61/250,63,80.0
8101,G#3,281.75,0.25,63,80.0
8102,G#4,281.75,0.25,63,80.0
8103,F#3,281.75,0.25,63,80.0
8104,F#4,281.75,0.25,63,80.0
8105,E-3,281.75,0.25,63,80.0
8106,E-4,281.75,0.25,63,80.0
8107,G#2,281.75,0.25,95,80.0
8108,C2,281.75,0.25,95,80.0
8109,A3,282.0,1.25,95,80.0
8110,C#4,282.0,1.25,95,80.0
8111,F#2,282.0,0.75,95,80.0
8112,F#3,282.0,61/250,95,80.0
8113,B3,282.0,61/250,95,80.0
8114,F#4,282.0,61/250,95,80.0
8115,B4,282.0,61/250,95,80.0
8116,B-3,282.0,1.25,63,80.0
8117,B-4,282.0,1.25,63,80.0
8118,F#3,282.0,1.25,63,80.0
8119,F#4,282.0,1.25,63,80.0
8120,C#3,282.0,1.25,63,80.0
8121,C#4,282.0,1.25,63,80.0
8122,F#1,282.0,0.75,63,80.0
8123,F#2,282.0,0.75,63,80.0
8124,G#2,282.0,0.25,95,80.0
8125,C2,282.0,0.25,95,80.0
8126,G#2,282.25,0.25,95,80.0
8127,B4,282.25,61/250,63,80.0
8128,F#4,282.25,61/250,63,80.0
8129,B3,282.25,61/250,63,80.0
8130,F#3,282.25,61/250,63,80.0
8131,G#2,282.5,0.25,95,80.0
8132,F#3,282.5,61/250,63,80.0
8133,B3,282.5,61/250,63,80.0
8134,F#4,282.5,61/250,63,80.0
8135,B4,282.5,61/250,63,80.0
8136,G#2,282.75,0.25,95,80.0
8137,F#2,282.75,0.25,95,80.0
8138,B4,282.75,61/250,63,80.0
8139,F#4,282.75,61/250,63,80.0
8140,B3,282.75,61/250,63,80.0
8141,F#3,282.75,61/250,63,80.0
8142,F#1,282.75,0.25,63,80.0
8143,F#2,282.75,0.25,63,80.0
8144,F#2,283.0,0.5,95,80.0
8145,F#3,283.0,61/250,63,80.0
8146,B3,283.0,61/250,63,80.0
8147,F#4,283.0,61/250,63,80.0
8148,B4,283.0,61/250,63,80.0
8149,F#1,283.0,1.0,63,80.0
8150,F#2,283.0,1.0,63,80.0
8151,E1,283.0,0.25,106,80.0
8152,G#2,283.0,0.25,106,80.0
8153,E2,283.0,0.25,106,80.0
8154,C#4,283.25,0.25,95,80.0
8155,F4,283.25,0.25,95,80.0
8156,G#2,283.25,0.25,95,80.0
8157,B4,283.25,61/250,63,80.0
8158,F#4,283.25,61/250,63,80.0
8159,B3,283.25,61/250,63,80.0
8160,F#3,283.25,61/250,63,80.0
8161,C#3,283.25,0.25,63,80.0
8162,C#4,283.25,0.25,63,80.0
8163,B3,283.5,0.25,95,80.0
8164,E-4,283.5,0.25,95,80.0
8165,F#2,283.5,0.25,95,80.0
8166,F#3,283.5,61/250,63,80.0
8167,B3,283.5,61/250,63,80.0
8168,F#4,283.5,61/250,63,80.0
8169,B4,283.5,61/250,63,80.0
8170,B-3,283.5,0.25,63,80.0
8171,B-4,283.5,0.25,63,80.0
8172,F#3,283.5,0.25,63,80.0
8173,F#4,283.5,0.25,63,80.0
8174,E1,283.5,0.25,111,80.0
8175,G#2,283.5,0.25,111,80.0
8176,B-3,283.75,1.25,95,80.0
8177,C#4,283.75,1.5,95,80.0
8178,F#2,283.75,1.0,95,80.0
8179,B-4,283.75,61/250,95,80.0
8180,F#4,283.75,61/250,95,80.0
8181,C#4,283.75,61/250,95,80.0
8182,F#3,283.75,61/250,95,80.0
8183,G#3,283.75,1.5,63,80.0
8184,G#4,283.75,1.5,63,80.0
8185,F3,283.75,1.5,63,80.0
8186,F4,283.75,1.5,63,80.0
8187,C#3,283.75,1.5,63,80.0
8188,C#4,283.75,1.5,63,80.0
8189,E1,283.75,0.25,106,80.0
8190,G#2,283.75,0.25,106,80.0
8191,C2,283.75,0.25,106,80.0
8192,G#2,284.0,0.25,95,80.0
8193,F#1,284.0,0.75,63,80.0
8194,F#2,284.0,0.75,63,80.0
8195,B-4,284.25,123/500,95,80.0
8196,F#4,284.25,123/500,95,80.0
8197,C#4,284.25,123/500,95,80.0
8198,G#2,284.25,0.25,95,80.0
8199,C2,284.25,0.25,95,80.0
8200,E1,284.5,0.25,111,80.0
8201,G#2,284.5,0.25,111,80.0
8202,F#2,284.75,0.25,95,80.0
8203,B-4,284.75,123/500,95,80.0
8204,F#4,284.75,123/500,95,80.0
8205,C#4,284.75,123/500,95,80.0
8206,F#1,284.75,0.25,63,80.0
8207,F#2,284.75,0.25,63,80.0
8208,E1,284.75,0.25,106,80.0
8209,G#2,284.75,0.25,106,80.0
8210,C2,284.75,0.25,106,80.0
8211,F#2,285.0,1.0,95,80.0
8212,C#4,285.0,123/500,95,80.0
8213,F#4,285.0,123/500,95,80.0
8214,B-4,285.0,123/500,95,80.0
8215,F#1,285.0,0.25,63,80.0
8216,F#2,285.0,0.25,63,80.0
8217,G#2,285.0,0.25,95,80.0
8218,E2,285.0,0.25,95,80.0
8219,B-4,285.25,123/500,63,80.0
8220,F#4,285.25,123/500,63,80.0
8221,C#4,285.25,123/500,63,80.0
8222,C#3,285.25,0.25,63,80.0
8223,C#4,285.25,0.25,63,80.0
8224,F#1,285.25,0.5,63,80.0
8225,F#2,285.25,0.5,63,80.0
8226,E1,285.25,0.25,111,80.0
8227,G#2,285.25,0.25,111,80.0
8228,C#4,285.5,123/500,63,80.0
8229,F#4,285.5,123/500,63,80.0
8230,B-4,285.5,123/500,63,80.0
8231,G#3,285.5,0.25,63,80.0
8232,G#4,285.5,0.25,63,80.0
8233,F3,285.5,0.25,63,80.0
8234,F4,285.5,0.25,63,80.0
8235,E1,285.5,0.25,111,80.0
8236,G#2,285.5,0.25,111,80.0
8237,B-4,285.75,123/500,63,80.0
8238,F#4,285.75,123/500,63,80.0
8239,C#4,285.75,123/500,63,80.0
8240,B3,285.75,0.25,63,80.0
8241,B4,285.75,0.25,63,80.0
8242,F#3,285.75,0.25,63,80.0
8243,F#4,285.75,0.25,63,80.0
8244,E-3,285.75,0.25,63,80.0
8245,E-4,285.75,0.25,63,80.0
8246,F#1,285.75,0.25,63,80.0
8247,F#2,285.75,0.25,63,80.0
8248,G#2,285.75,0.25,95,80.0
8249,C2,285.75,0.25,95,80.0
8250,B3,287.25,1.25,63,80.0
8251,B4,287.25,1.25,63,80.0
8252,F#3,287.25,1.25,63,80.0
8253,F#4,287.25,1.25,63,80.0
8254,E-3,287.25,1.25,63,80.0
8255,E-4,287.25,1.25,63,80.0
8256,E-3,288.5,0.25,63,80.0
8257,E-4,288.5,0.25,63,80.0
8258,B3,288.75,0.25,63,80.0
8259,B4,288.75,0.25,63,80.0
8260,F#3,288.75,0.25,63,80.0
8261,F#4,288.75,0.25,63,80.0
8262,B-3,289.0,1.75,63,80.0
8263,B-4,289.0,1.75,63,80.0
8264,F#3,289.0,1.75,63,80.0
8265,F#4,289.0,1.75,63,80.0
8266,C#3,289.0,1.75,63,80.0
8267,C#4,289.0,1.75,63,80.0
8268,B-3,290.75,0.25,63,80.0
8269,B-4,290.75,0.25,63,80.0
8270,F#3,290.75,0.25,63,80.0
8271,F#4,290.75,0.25,63,80.0
8272,C#3,290.75,0.25,63,80.0
8273,C#4,290.75,0.25,63,80.0
8274,B-3,291.0,0.25,63,80.0
8275,B-4,291.0,0.25,63,80.0
8276,F#3,291.0,0.25,63,80.0
8277,F#4,291.0,0.25,63,80.0
8278,C#3,291.0,0.25,63,80.0
8279,C#4,291.0,0.25,63,80.0
8280,B-3,291.25,1.5,63,80.0
8281,B-4,291.25,1.5,63,80.0
8282,F#3,291.25,1.5,63,80.0
8283,F#4,291.25,1.5,63,80.0
8284,C#3,291.25,1.5,63,80.0
8285,C#4,291.25,1.5,63,80.0
8286,B-3,292.75,0.25,63,80.0
8287,B-4,292.75,0.25,63,80.0
8288,F#3,292.75,0.25,63,80.0
8289,F#4,292.75,0.25,63,80.0
8290,C#3,292.75,0.25,63,80.0
8291,C#4,292.75,0.25,63,80.0
8292,B-3,293.0,1.75,63,80.0
8293,B-4,293.0,1.75,63,80.0
8294,E3,293.0,1.75,63,80.0
8295,E4,293.0,1.75,63,80.0
8296,C#3,293.0,1.75,63,80.0
8297,C#4,293.0,1.75,63,80.0
8298,B-3,294.75,0.25,63,80.0
8299,B-4,294.75,0.25,63,80.0
8300,E3,294.75,0.25,63,80.0
8301,E4,294.75,0.25,63,80.0
8302,C#3,294.75,0.25,63,80.0
8303,C#4,294.75,0.25,63,80.0
8304,B-3,295.0,0.25,63,80.0
8305,B-4,295.0,0.25,63,80.0
8306,E-3,295.0,0.25,63,80.0
8307,E-4,295.0,0.25,63,80.0
8308,C#3,295.0,0.25,63,80.0
8309,C#4,295.0,0.25,63,80.0
8310,B-3,296.75,1.5,63,80.0
8311,B-4,296.75,1.5,63,80.0
8312,E-3,296.75,1.5,63,80.0
8313,E-4,296.75,1.5,63,80.0
8314,C#3,296.75,1.5,63,80.0
8315,C#4,296.75,1.5,63,80.0
8316,B-3,298.25,0.25,63,80.0
8317,B-4,298.25,0.25,63,80.0
8318,E-3,298.25,0.25,63,80.0
8319,E-4,298.25,0.25,63,80.0
8320,C#3,298.25,0.25,63,80.0
8321,C#4,298.25,0.25,63,80.0
8322,B-3,298.5,1.75,63,80.0
8323,B-4,298.5,1.75,63,80.0
8324,D3,298.5,1.75,63,80.0
8325,D4,298.5,1.75,63,80.0
8326,B2,298.5,1.75,63,80.0
8327,B3,298.5,1.75,63,80.0
8328,B2,300.25,0.25,63,80.0
8329,B3,300.25,0.25,63,80.0
8330,G#3,300.5,0.25,63,80.0
8331,G#4,300.5,0.25,63,80.0
8332,F#3,300.5,0.25,63,80.0
8333,F#4,300.5,0.25,63,80.0
8334,E-3,300.5,0.25,63,80.0
8335,E-4,300.5,0.25,63,80.0
8336,B-3,300.75,1.25,63,80.0
8337,B-4,300.75,1.25,63,80.0
8338,F#3,300.75,1.25,63,80.0
8339,F#4,300.75,1.25,63,80.0
8340,C#3,300.75,1.25,63,80.0
8341,C#4,300.75,1.25,63,80.0
8342,C#3,302.0,0.25,63,80.0
8343,C#4,302.0,0.25,63,80.0
8344,B-3,302.25,0.25,63,80.0
8345,B-4,302.25,0.25,63,80.0
8346,F#3,302.25,0.25,63,80.0
8347,F#4,302.25,0.25,63,80.0
8348,G#3,302.5,1.5,63,80.0
8349,G#4,302.5,1.5,63,80.0
8350,F3,302.5,1.5,63,80.0
8351,F4,302.5,1.5,63,80.0
8352,C#3,302.5,1.5,63,80.0
8353,C#4,302.5,1.5,63,80.0
8354,C#3,304.0,0.25,63,80.0
8355,C#4,304.0,0.25,63,80.0
8356,G#3,304.25,0.25,63,80.0
8357,G#4,304.25,0.25,63,80.0
8358,F3,304.25,0.25,63,80.0
8359,F4,304.25,0.25,63,80.0
8360,B3,304.5,0.25,63,80.0
8361,B4,304.5,0.25,63,80.0
8362,F#3,304.5,0.25,63,80.0
8363,F#4,304.5,0.25,63,80.0
8364,E-3,304.5,0.25,63,80.0
8365,E-4,304.5,0.25,63,80.0
8366,B3,306.0,1.25,63,80.0
8367,B4,306.0,1.25,63,80.0
8368,F#3,306.0,1.25,63,80.0
8369,F#4,306.0,1.25,63,80.0
8370,E-3,306.0,1.25,63,80.0
8371,E-4,306.0,1.25,63,80.0
8372,E-3,307.25,0.25,63,80.0
8373,E-4,307.25,0.25,63,80.0
8374,B3,307.5,0.25,63,80.0
8375,B4,307.5,0.25,63,80.0
8376,F#3,307.5,0.25,63,80.0
8377,F#4,307.5,0.25,63,80.0
8378,B-3,307.75,1.75,63,80.0
8379,B-4,307.75,1.75,63,80.0
8380,F#3,307.75,1.75,63,80.0
8381,F#4,307.75,1.75,63,80.0
8382,C#3,307.75,1.75,63,80.0
8383,C#4,307.75,1.75,63,80.0
8384,B-3,309.5,0.25,63,80.0
8385,B-4,309.5,0.25,63,80.0
8386,F#3,309.5,0.25,63,80.0
8387,F#4,309.5,0.25,63,80.0
8388,C#3,309.5,0.25,63,80.0
8389,C#4,309.5,0.25,63,80.0
8390,B-3,309.75,0.25,63,80.0
8391,B-4,309.75,0.25,63,80.0
8392,F#3,309.75,0.25,63,80.0
8393,F#4,309.75,0.25,63,80.0
8394,C#3,309.75,0.25,63,80.0
8395,C#4,309.75,0.25,63,80.0
8396,B-3,310.0,1.5,63,80.0
8397,B-4,310.0,1.5,63,80.0
8398,F#3,310.0,1.5,63,80.0
8399,F#4,310.0,1.5,63,80.0
8400,C#3,310.0,1.5,63,80.0
8401,C#4,310.0,1.5,63,80.0
8402,B-3,311.5,0.25,63,80.0
8403,B-4,311.5,0.25,63,80.0
8404,F#3,311.5,0.25,63,80.0
8405,F#4,311.5,0.25,63,80.0
8406,C#3,311.5,0.25,63,80.0
8407,C#4,311.5,0.25,63,80.0
8408,B-3,311.75,1.75,63,80.0
8409,B-4,311.75,1.75,63,80.0
8410,E3,311.75,1.75,63,80.0
8411,E4,311.75,1.75,63,80.0
8412,C#3,311.75,1.75,63,80.0
8413,C#4,311.75,1.75,63,80.0
8414,B-3,313.5,0.25,63,80.0
8415,B-4,313.5,0.25,63,80.0
8416,E3,313.5,0.25,63,80.0
8417,E4,313.5,0.25,63,80.0
8418,C#3,313.5,0.25,63,80.0
8419,C#4,313.5,0.25,63,80.0
8420,B-3,313.75,0.25,63,80.0
8421,B-4,313.75,0.25,63,80.0
8422,E-3,313.75,0.25,63,80.0
8423,E-4,313.75,0.25,63,80.0
8424,C#3,313.75,0.25,63,80.0
8425,C#4,313.75,0.25,63,80.0
8426,B-3,315.5,1.5,63,80.0
8427,B-4,315.5,1.5,63,80.0
8428,E-3,315.5,1.5,63,80.0
8429,E-4,315.5,1.5,63,80.0
8430,C#3,315.5,1.5,63,80.0
8431,C#4,315.5,1.5,63,80.0
8432,B-3,317.0,0.25,63,80.0
8433,B-4,317.0,0.25,63,80.0
8434,E-3,317.0,0.25,63,80.0
8435,E-4,317.0,0.25,63,80.0
8436,C#3,317.0,0.25,63,80.0
8437,C#4,317.0,0.25,63,80.0
8438,B-3,317.25,1.75,63,80.0
8439,B-4,317.25,1.75,63,80.0
8440,D3,317.25,1.75,63,80.0
8441,D4,317.25,1.75,63,80.0
8442,B2,317.25,1.75,63,80.0
8443,B3,317.25,1.75,63,80.0
8444,B2,319.0,0.25,63,80.0
8445,B3,319.0,0.25,63,80.0
8446,G#3,319.25,0.25,63,80.0
8447,G#4,319.25,0.25,63,80.0
8448,F#3,319.25,0.25,63,80.0
8449,F#4,319.25,0.25,63,80.0
8450,E-3,319.25,0.25,63,80.0
8451,E-4,319.25,0.25,63,80.0
8452,B-3,319.5,1.25,63,80.0
8453,B-4,319.5,1.25,63,80.0
8454,F#3,319.5,1.25,63,80.0
8455,F#4,319.5,1.25,63,80.0
8456,C#3,319.5,1.25,63,80.0
8457,C#4,319.5,1.25,63,80.0
8458,C#3,320.75,0.25,63,80.0
8459,C#4,320.75,0.25,63,80.0
8460,B-3,321.0,0.25,63,80.0
8461,B-4,321.0,0.25,63,80.0
8462,F#3,321.0,0.25,63,80.0
8463,F#4,321.0,0.25,63,80.0
8464,G#3,321.25,1.5,63,80.0
8465,G#4,321.25,1.5,63,80.0
8466,F3,321.25,1.5,63,80.0
8467,F4,321.25,1.5,63,80.0
8468,C#3,321.25,1.5,63,80.0
8469,C#4,321.25,1.5,63,80.0
8470,C#3,322.75,0.25,63,80.0
8471,C#4,322.75,0.25,63,80.0
8472,G#3,323.0,0.25,63,80.0
8473,G#4,323.0,0.25,63,80.0
8474,F3,323.0,0.25,63,80.0
8475,F4,323.0,0.25,63,80.0
8476,B3,323.25,0.25,63,80.0
8477,B4,323.25,0.25,63,80.0
8478,F#3,323.25,0.25,63,80.0
8479,F#4,323.25,0.25,63,80.0
8480,E-3,323.25,0.25,63,80.0
8481,E-4,323.25,0.25,63,80.0
8482,B3,324.75,1.25,63,80.0
8483,B4,324.75,1.25,63,80.0
8484,F#3,324.75,1.25,63,80.0
8485,F#4,324.75,1.25,63,80.0
8486,E-3,324.75,1.25,63,80.0
8487,E-4,324.75,1.25,63,80.0
8488,E-3,326.0,0.25,63,80.0
8489,E-4,326.0,0.25,63,80.0
8490,B3,326.25,0.25,63,80.0
8491,B4,326.25,0.25,63,80.0
8492,F#3,326.25,0.25,63,80.0
8493,F#4,326.25,0.25,63,80.0
8494,B-3,326.5,1.75,63,80.0
8495,B-4,326.5,1.75,63,80.0
8496,F#3,326.5,1.75,63,80.0
8497,F#4,326.5,1.75,63,80.0
8498,C#3,326.5,1.75,63,80.0
8499,C#4,326.5,1.75,63,80.0
8500,B-3,328.25,0.25,63,80.0
8501,B-4,328.25,0.25,63,80.0
8502,F#3,328.25,0.25,63,80.0
8503,F#4,328.25,0.25,63,80.0
8504,C#3,328.25,0.25,63,80.0
8505,C#4,328.25,0.25,63,80.0
8506,B-3,328.5,0.25,63,80.0
8507,B-4,328.5,0.25,63,80.0
8508,F#3,328.5,0.25,63,80.0
8509,F#4,328.5,0.25,63,80.0
8510,C#3,328.5,0.25,63,80.0
8511,C#4,328.5,0.25,63,80.0
