,note_name,start_time,duration,velocity,tempo
0,C2,7.992,1/125,85,124.0
1,C2,8.0,679/500,85,124.0
2,C2,8.0,1.0,78,124.0
3,E-3,8.0,0.25,89,124.0
4,B-4,8.0,0.25,67,124.0
5,A4,8.0,0.25,67,124.0
6,E-3,8.5,0.25,74,124.0
7,B-4,8.5,0.25,43,124.0
8,A4,8.5,0.25,43,124.0
9,C#2,9.0,1.0,84,124.0
10,E-3,9.0,0.25,89,124.0
11,B-4,9.0,0.25,72,124.0
12,A4,9.0,0.25,72,124.0
13,E1,9.367,3/40,50,124.0
14,G2,9.492,367/1000,60,124.0
15,C2,9.5,0.25,78,124.0
16,E-3,9.5,0.25,74,124.0
17,B-4,9.5,0.25,36,124.0
18,A4,9.5,0.25,36,124.0
19,G2,9.992,1367/1000,85,124.0
20,C2,10.0,0.25,78,124.0
21,E-3,10.0,0.25,89,124.0
22,B-4,10.0,0.25,67,124.0
23,A4,10.0,0.25,67,124.0
24,C#2,10.5,1.0,84,124.0
25,E-3,10.5,0.25,74,124.0
26,B-4,10.5,0.25,43,124.0
27,A4,10.5,0.25,43,124.0
28,E-3,11.0,0.25,89,124.0
29,B-4,11.0,0.25,72,124.0
30,A4,11.0,0.25,72,124.0
31,E1,11.367,3/40,50,124.0
32,C2,11.492,367/1000,60,124.0
33,C2,11.5,0.25,78,124.0
34,E-3,11.5,0.25,74,124.0
35,B-4,11.5,0.25,36,124.0
36,A4,11.5,0.25,36,124.0
37,C2,11.992,1/125,85,124.0
38,C2,12.0,1367/1000,85,124.0
39,C2,12.0,0.25,78,124.0
40,E-3,12.0,0.25,89,124.0
41,B-4,12.0,0.25,67,124.0
42,A4,12.0,0.25,67,124.0
43,E-3,12.5,0.25,74,124.0
44,B-4,12.5,0.25,43,124.0
45,A4,12.5,0.25,43,124.0
46,E-3,13.0,0.25,89,124.0
47,B-4,13.0,0.25,72,124.0
48,A4,13.0,0.25,72,124.0
49,E1,13.367,3/40,50,124.0
50,F2,13.492,367/1000,60,124.0
51,C2,13.5,0.25,78,124.0
52,C#2,13.5,1.0,84,124.0
53,E-3,13.5,0.25,74,124.0
54,B-4,13.5,0.25,36,124.0
55,A4,13.5,0.25,36,124.0
56,F2,13.992,1.375,85,124.0
57,C2,14.0,0.75,78,124.0
58,E-3,14.0,0.25,89,124.0
59,B-4,14.0,0.25,67,124.0
60,A4,14.0,0.25,67,124.0
61,E-3,14.5,0.25,79,124.0
62,B-4,14.5,0.25,43,124.0
63,A4,14.5,0.25,43,124.0
64,E-3,14.75,0.25,74,124.0
65,C#2,15.0,1.0,84,124.0
66,E-3,15.0,0.25,89,124.0
67,B-4,15.0,0.25,72,124.0
68,A4,15.0,0.25,72,124.0
69,E1,15.367,3/40,50,124.0
70,C2,15.492,367/1000,60,124.0
71,C2,15.5,0.25,78,124.0
72,E-3,15.5,0.25,74,124.0
73,B-4,15.5,0.25,36,124.0
74,A4,15.5,0.25,36,124.0
75,C2,15.992,1/125,85,124.0
76,C2,16.0,1367/1000,85,124.0
77,C2,16.0,0.5,78,124.0
78,E-3,16.0,0.25,89,124.0
79,B-4,16.0,0.25,67,124.0
80,A4,16.0,0.25,67,124.0
81,E-3,16.5,0.25,74,124.0
82,B-4,16.5,0.25,43,124.0
83,A4,16.5,0.25,43,124.0
84,C#2,17.0,1.0,84,124.0
85,E-3,17.0,0.25,89,124.0
86,B-4,17.0,0.25,72,124.0
87,A4,17.0,0.25,72,124.0
88,E1,17.367,3/40,50,124.0
89,G2,17.492,367/1000,60,124.0
90,C2,17.5,0.25,78,124.0
91,E-3,17.5,0.25,74,124.0
92,B-4,17.5,0.25,36,124.0
93,A4,17.5,0.25,36,124.0
94,G2,17.992,1.375,85,124.0
95,C2,18.0,0.25,78,124.0
96,E-3,18.0,0.25,89,124.0
97,B-4,18.0,0.25,67,124.0
98,A4,18.0,0.25,67,124.0
99,C#2,18.5,1.0,84,124.0
100,E-3,18.5,0.25,79,124.0
101,B-4,18.5,0.25,43,124.0
102,A4,18.5,0.25,43,124.0
103,E-3,18.75,0.25,74,124.0
104,E-3,19.0,0.25,89,124.0
105,B-4,19.0,0.25,72,124.0
106,A4,19.0,0.25,72,124.0
107,E1,19.367,3/40,50,124.0
108,C2,19.492,367/1000,60,124.0
109,C2,19.5,0.25,78,124.0
110,E-3,19.5,0.25,74,124.0
111,B-4,19.5,0.25,36,124.0
112,A4,19.5,0.25,36,124.0
113,C2,19.992,1/125,85,124.0
114,C2,20.0,1367/1000,85,124.0
115,C2,20.0,0.25,78,124.0
116,E-3,20.0,0.25,89,124.0
117,B-4,20.0,0.25,67,124.0
118,A4,20.0,0.25,67,124.0
119,E-3,20.5,0.25,74,124.0
120,B-4,20.5,0.25,43,124.0
121,A4,20.5,0.25,43,124.0
122,E-3,21.0,0.25,89,124.0
123,B-4,21.0,0.25,72,124.0
124,A4,21.0,0.25,72,124.0
125,E1,21.367,3/40,50,124.0
126,F2,21.492,367/1000,60,124.0
127,C2,21.5,0.25,78,124.0
128,C#2,21.5,1.0,84,124.0
129,E-3,21.5,0.25,74,124.0
130,B-4,21.5,0.25,36,124.0
131,A4,21.5,0.25,36,124.0
132,F2,21.992,124/125,85,124.0
133,C2,22.0,0.25,78,124.0
134,E-3,22.0,0.25,89,124.0
135,B-4,22.0,0.25,67,124.0
136,A4,22.0,0.25,67,124.0
137,E-3,22.5,0.25,74,124.0
138,B-4,22.5,0.25,43,124.0
139,A4,22.5,0.25,43,124.0
140,G4,22.967,1033/1000,46,124.0
141,F4,22.967,1033/1000,46,124.0
142,C4,22.967,1033/1000,46,124.0
143,D4,22.967,1033/1000,46,124.0
144,B-3,22.967,1033/1000,46,124.0
145,B-1,22.992,124/125,70,124.0
146,C#2,23.0,1.0,84,124.0
147,E-3,23.0,0.25,89,124.0
148,B-4,23.0,0.25,72,124.0
149,A4,23.0,0.25,72,124.0
150,C2,23.5,0.25,78,124.0
151,E-3,23.5,0.25,79,124.0
152,B-4,23.5,0.25,36,124.0
153,A4,23.5,0.25,36,124.0
154,E-3,23.75,0.25,74,124.0
155,C2,23.992,1/125,85,124.0
156,C2,24.0,1367/1000,85,124.0
157,G5,24.0,4.0,80,124.0
158,C2,24.0,0.25,78,124.0
159,E-3,24.0,0.25,89,124.0
160,A5,24.0,117/1000,82,124.0
161,G4,24.0,4.0,46,124.0
162,F4,24.0,4.0,46,124.0
163,C4,24.0,4.0,46,124.0
164,D4,24.0,4.0,46,124.0
165,B-3,24.0,4.0,46,124.0
166,B-4,24.0,0.25,67,124.0
167,A4,24.0,0.25,67,124.0
168,E-3,24.5,0.25,74,124.0
169,B-4,24.5,0.25,43,124.0
170,A4,24.5,0.25,43,124.0
171,E-3,25.0,0.25,89,124.0
172,B-3,25.0,43/40,93,124.0
173,C4,25.0,43/40,93,124.0
174,G4,25.0,43/40,93,124.0
175,E-4,25.0,43/40,93,124.0
176,B-4,25.0,0.25,72,124.0
177,A4,25.0,0.25,72,124.0
178,E1,25.367,3/40,50,124.0
179,G2,25.492,367/1000,60,124.0
180,C2,25.5,0.25,78,124.0
181,C#2,25.5,1.0,84,124.0
182,E-3,25.5,0.25,74,124.0
183,B-4,25.5,0.25,36,124.0
184,A4,25.5,0.25,36,124.0
185,G2,25.992,1.375,85,124.0
186,C2,26.0,0.25,78,124.0
187,E-3,26.0,0.25,89,124.0
188,B-4,26.0,0.25,67,124.0
189,A4,26.0,0.25,67,124.0
190,E-3,26.5,0.25,74,124.0
191,G4,26.5,13/40,93,124.0
192,B-3,26.5,13/40,93,124.0
193,C4,26.5,13/40,93,124.0
194,E-4,26.5,13/40,93,124.0
195,B-4,26.5,0.25,43,124.0
196,A4,26.5,0.25,43,124.0
197,C#2,27.0,1.0,84,124.0
198,E-3,27.0,0.25,89,124.0
199,B-4,27.0,0.25,72,124.0
200,A4,27.0,0.25,72,124.0
201,E1,27.367,3/40,50,124.0
202,C2,27.492,367/1000,60,124.0
203,C2,27.5,0.25,78,124.0
204,E-3,27.5,0.25,79,124.0
205,F4,27.5,0.5,93,124.0
206,B-3,27.5,0.5,93,124.0
207,D4,27.5,0.5,93,124.0
208,A3,27.5,0.5,93,124.0
209,B-4,27.5,0.25,36,124.0
210,A4,27.5,0.25,36,124.0
211,E-3,27.75,0.25,74,124.0
212,C2,27.992,1/125,85,124.0
213,C2,28.0,1367/1000,85,124.0
214,G5,28.0,2.0,80,124.0
215,C2,28.0,0.25,78,124.0
216,E-3,28.0,0.25,89,124.0
217,F4,28.0,499/125,93,124.0
218,B-3,28.0,499/125,93,124.0
219,D4,28.0,499/125,93,124.0
220,A3,28.0,499/125,93,124.0
221,B-4,28.0,0.25,67,124.0
222,A4,28.0,0.25,67,124.0
223,C#2,28.5,1.0,84,124.0
224,E-3,28.5,0.25,74,124.0
225,B-4,28.5,0.25,43,124.0
226,A4,28.5,0.25,43,124.0
227,E-3,29.0,0.25,89,124.0
228,B-4,29.0,0.25,72,124.0
229,A4,29.0,0.25,72,124.0
230,E1,29.367,3/40,50,124.0
231,F2,29.492,367/1000,60,124.0
232,C2,29.5,0.25,78,124.0
233,E-3,29.5,0.25,74,124.0
234,B-4,29.5,0.25,36,124.0
235,A4,29.5,0.25,36,124.0
236,F2,29.992,1.375,85,124.0
237,C2,30.0,0.25,78,124.0
238,E-3,30.0,0.25,89,124.0
239,B-4,30.0,0.25,67,124.0
240,A4,30.0,0.25,67,124.0
241,E-3,30.5,0.25,79,124.0
242,B-4,30.5,0.25,43,124.0
243,A4,30.5,0.25,43,124.0
244,E-3,30.75,0.25,74,124.0
245,C#2,31.0,1.0,84,124.0
246,E-3,31.0,0.25,89,124.0
247,B-4,31.0,0.25,72,124.0
248,A4,31.0,0.25,72,124.0
249,E1,31.367,3/40,50,124.0
250,G2,31.492,51/125,50,124.0
251,C2,31.5,0.25,78,124.0
252,E-3,31.5,0.25,74,124.0
253,B-4,31.5,0.25,36,124.0
254,A4,31.5,0.25,36,124.0
255,C2,31.992,1/125,85,124.0
256,C2,32.0,1367/1000,85,124.0
257,F5,32.0,4.0,80,124.0
258,C2,32.0,0.25,78,124.0
259,E-3,32.0,0.25,89,124.0
260,B-4,32.0,0.25,67,124.0
261,A4,32.0,0.25,67,124.0
262,E-3,32.5,0.25,74,124.0
263,B-4,32.5,0.25,43,124.0
264,A4,32.5,0.25,43,124.0
265,C#2,33.0,1.0,84,124.0
266,E-3,33.0,0.25,89,124.0
267,C4,33.0,43/40,93,124.0
268,E-4,33.0,43/40,93,124.0
269,B-3,33.0,43/40,93,124.0
270,G3,33.0,43/40,93,124.0
271,B-4,33.0,0.25,72,124.0
272,A4,33.0,0.25,72,124.0
273,E1,33.367,3/40,50,124.0
274,G2,33.492,367/1000,60,124.0
275,C2,33.5,0.25,78,124.0
276,E-3,33.5,0.25,74,124.0
277,B-4,33.5,0.25,36,124.0
278,A4,33.5,0.25,36,124.0
279,G2,33.992,1.375,85,124.0
280,C2,34.0,0.25,78,124.0
281,E-3,34.0,0.25,89,124.0
282,B-4,34.0,0.25,67,124.0
283,A4,34.0,0.25,67,124.0
284,C#2,34.5,1.0,84,124.0
285,E-3,34.5,0.25,74,124.0
286,E-4,34.5,13/40,93,124.0
287,B-3,34.5,13/40,93,124.0
288,G3,34.5,13/40,93,124.0
289,C4,34.5,13/40,93,124.0
290,B-4,34.5,0.25,43,124.0
291,A4,34.5,0.25,43,124.0
292,E-3,35.0,0.25,89,124.0
293,B-4,35.0,0.25,72,124.0
294,A4,35.0,0.25,72,124.0
295,E1,35.367,3/40,50,124.0
296,C2,35.492,367/1000,60,124.0
297,C2,35.5,0.25,78,124.0
298,E-3,35.5,0.25,74,124.0
299,F4,35.5,0.5,93,124.0
300,B-3,35.5,0.5,93,124.0
301,A3,35.5,0.5,93,124.0
302,D4,35.5,0.5,93,124.0
303,B-4,35.5,0.25,36,124.0
304,A4,35.5,0.25,36,124.0
305,C2,35.992,1/125,85,124.0
306,C2,36.0,1367/1000,85,124.0
307,F5,36.0,2.0,80,124.0
308,C2,36.0,0.25,78,124.0
309,E-3,36.0,0.25,89,124.0
310,F4,36.0,4.0,93,124.0
311,B-3,36.0,4.0,93,124.0
312,A3,36.0,4.0,93,124.0
313,D4,36.0,4.0,93,124.0
314,B-4,36.0,0.25,67,124.0
315,A4,36.0,0.25,67,124.0
316,E-3,36.5,0.25,74,124.0
317,B-4,36.5,0.25,43,124.0
318,A4,36.5,0.25,43,124.0
319,E-3,37.0,0.25,89,124.0
320,B-4,37.0,0.25,72,124.0
321,A4,37.0,0.25,72,124.0
322,E1,37.367,3/40,50,124.0
323,F2,37.492,367/1000,60,124.0
324,C2,37.5,0.25,78,124.0
325,C#2,37.5,1.0,84,124.0
326,E-3,37.5,0.25,74,124.0
327,B-4,37.5,0.25,36,124.0
328,A4,37.5,0.25,36,124.0
329,E-5,37.625,117/1000,74,124.0
330,E-5,37.75,0.25,64,124.0
331,E-5,37.875,0.25,74,124.0
332,F2,37.992,176/125,85,124.0
333,C2,38.0,0.25,78,124.0
334,E-3,38.0,0.25,89,124.0
335,E-5,38.0,0.25,64,124.0
336,B-4,38.0,0.25,67,124.0
337,A4,38.0,0.25,67,124.0
338,E-3,38.5,0.25,79,124.0
339,B-4,38.5,0.25,43,124.0
340,A4,38.5,0.25,43,124.0
341,E-3,38.75,0.25,74,124.0
342,C#2,39.0,1.0,84,124.0
343,E-3,39.0,0.25,89,124.0
344,B-4,39.0,0.25,72,124.0
345,A4,39.0,0.25,72,124.0
346,E1,39.367,3/40,50,124.0
347,G2,39.492,51/125,85,124.0
348,C2,39.5,0.25,78,124.0
349,E-3,39.5,0.25,79,124.0
350,B-4,39.5,0.25,36,124.0
351,A4,39.5,0.25,36,124.0
352,E-3,39.75,0.25,74,124.0
353,D5,39.917,83/1000,110,124.0
354,D5,39.967,33/1000,66,124.0
355,C2,39.992,1/125,85,124.0
356,C2,40.0,1367/1000,85,124.0
357,D5,40.0,967/1000,66,124.0
358,D5,40.0,917/1000,110,124.0
359,C2,40.0,0.25,78,124.0
360,E-3,40.0,0.25,89,124.0
361,D7,40.0,1.5,42,124.0
362,D6,40.0,1.5,42,124.0
363,B-4,40.0,0.25,67,124.0
364,A4,40.0,0.25,67,124.0
365,E-3,40.5,0.25,74,124.0
366,B-4,40.5,0.25,43,124.0
367,A4,40.5,0.25,43,124.0
368,E-4,40.917,0.5,80,124.0
369,E-4,41.0,0.5,36,124.0
370,E-3,41.0,0.25,89,124.0
371,G4,41.0,43/40,93,124.0
372,B-3,41.0,43/40,93,124.0
373,E-4,41.0,43/40,93,124.0
374,C4,41.0,43/40,93,124.0
375,B-4,41.0,0.25,72,124.0
376,A4,41.0,0.25,72,124.0
377,E1,41.367,3/40,50,124.0
378,G4,41.417,1.0,110,124.0
379,G4,41.467,1.0,66,124.0
380,G2,41.492,367/1000,60,124.0
381,C2,41.5,0.25,78,124.0
382,C#2,41.5,1.0,84,124.0
383,E-3,41.5,0.25,74,124.0
384,G6,41.5,1.0,42,124.0
385,G5,41.5,1.0,42,124.0
386,B-4,41.5,0.25,36,124.0
387,A4,41.5,0.25,36,124.0
388,G2,41.992,1.0,85,124.0
389,C2,42.0,0.25,78,124.0
390,E-3,42.0,0.25,89,124.0
391,B-4,42.0,0.25,67,124.0
392,A4,42.0,0.25,67,124.0
393,D5,42.417,33/40,110,124.0
394,D5,42.467,33/40,66,124.0
395,E-3,42.5,0.25,74,124.0
396,G4,42.5,13/40,93,124.0
397,B-3,42.5,13/40,93,124.0
398,E-4,42.5,13/40,93,124.0
399,C4,42.5,13/40,93,124.0
400,D7,42.5,33/40,42,124.0
401,D6,42.5,33/40,42,124.0
402,B-4,42.5,0.25,43,124.0
403,A4,42.5,0.25,43,124.0
404,E1,42.992,3/40,50,124.0
405,C#2,43.0,1.0,84,124.0
406,E-3,43.0,0.25,89,124.0
407,B-4,43.0,0.25,72,124.0
408,A4,43.0,0.25,72,124.0
409,C5,43.417,583/1000,110,124.0
410,C5,43.467,533/1000,66,124.0
411,C2,43.492,367/1000,60,124.0
412,C2,43.5,0.25,78,124.0
413,E-3,43.5,0.25,74,124.0
414,B-3,43.5,0.5,93,124.0
415,F4,43.5,0.5,93,124.0
416,A3,43.5,0.5,93,124.0
417,D4,43.5,0.5,93,124.0
418,C7,43.5,0.5,42,124.0
419,C6,43.5,0.5,42,124.0
420,B-4,43.5,0.25,36,124.0
421,A4,43.5,0.25,36,124.0
422,C2,43.992,1/125,85,124.0
423,C2,44.0,1367/1000,85,124.0
424,C5,44.0,2717/1000,66,124.0
425,C5,44.0,1221/500,110,124.0
426,C2,44.0,0.25,78,124.0
427,E-3,44.0,0.25,89,124.0
428,B-3,44.0,4.0,93,124.0
429,F4,44.0,4.0,93,124.0
430,A3,44.0,4.0,93,124.0
431,D4,44.0,4.0,93,124.0
432,C7,44.0,3.75,42,124.0
433,C6,44.0,3.75,42,124.0
434,B-4,44.0,0.25,67,124.0
435,A4,44.0,0.25,67,124.0
436,C#2,44.5,1.0,84,124.0
437,E-3,44.5,0.25,74,124.0
438,B-4,44.5,0.25,43,124.0
439,A4,44.5,0.25,43,124.0
440,E-3,45.0,0.25,89,124.0
441,B-4,45.0,0.25,72,124.0
442,A4,45.0,0.25,72,124.0
443,E1,45.367,3/40,50,124.0
444,F2,45.492,367/1000,60,124.0
445,C2,45.5,0.25,78,124.0
446,E-3,45.5,0.25,74,124.0
447,B-4,45.5,0.25,36,124.0
448,A4,45.5,0.25,36,124.0
449,F2,45.992,1.375,85,124.0
450,C2,46.0,0.25,78,124.0
451,C#2,46.0,1.0,84,124.0
452,E-3,46.0,0.25,89,124.0
453,B-4,46.0,0.25,67,124.0
454,A4,46.0,0.25,67,124.0
455,E-3,46.5,0.25,79,124.0
456,B-4,46.5,0.25,43,124.0
457,A4,46.5,0.25,43,124.0
458,E-3,46.75,0.25,74,124.0
459,E-3,47.0,0.25,89,124.0
460,B-4,47.0,0.25,72,124.0
461,A4,47.0,0.25,72,124.0
462,E1,47.367,3/40,50,124.0
463,G2,47.492,367/1000,60,124.0
464,C2,47.5,0.25,78,124.0
465,C#2,47.5,0.5,84,124.0
466,E-3,47.5,0.25,74,124.0
467,B-4,47.5,0.25,36,124.0
468,A4,47.5,0.25,36,124.0
469,B-4,47.917,83/1000,110,124.0
470,B-4,47.967,33/1000,66,124.0
471,C2,47.992,1/125,85,124.0
472,C2,48.0,1367/1000,85,124.0
473,B-4,48.0,967/1000,66,124.0
474,B-4,48.0,917/1000,110,124.0
475,C2,48.0,0.25,78,124.0
476,C#2,48.0,0.5,84,124.0
477,E-3,48.0,0.25,89,124.0
478,B-6,48.0,1.5,42,124.0
479,B-5,48.0,1.5,42,124.0
480,B-4,48.0,0.25,67,124.0
481,A4,48.0,0.25,67,124.0
482,E-3,48.5,0.25,74,124.0
483,B-4,48.5,0.25,43,124.0
484,A4,48.5,0.25,43,124.0
485,C4,48.917,0.5,80,124.0
486,C4,49.0,0.5,36,124.0
487,C#2,49.0,1.0,84,124.0
488,E-3,49.0,0.25,89,124.0
489,B-3,49.0,43/40,93,124.0
490,E-4,49.0,43/40,93,124.0
491,G3,49.0,43/40,93,124.0
492,C4,49.0,43/40,93,124.0
493,B-4,49.0,0.25,72,124.0
494,A4,49.0,0.25,72,124.0
495,E1,49.367,3/40,50,124.0
496,E-4,49.417,1.0,110,124.0
497,E-4,49.467,1.0,66,124.0
498,G2,49.492,367/1000,60,124.0
499,C2,49.5,0.25,78,124.0
500,E-3,49.5,0.25,74,124.0
501,E-6,49.5,1.0,42,124.0
502,E-5,49.5,1.0,42,124.0
503,B-4,49.5,0.25,36,124.0
504,A4,49.5,0.25,36,124.0
505,G2,49.992,1.375,85,124.0
506,C2,50.0,0.25,78,124.0
507,E-3,50.0,0.25,89,124.0
508,B-4,50.0,0.25,67,124.0
509,A4,50.0,0.25,67,124.0
510,G4,50.417,33/40,110,124.0
511,G4,50.467,33/40,66,124.0
512,C#2,50.5,1.0,84,124.0
513,E-3,50.5,0.25,74,124.0
514,E-4,50.5,13/40,93,124.0
515,B-3,50.5,13/40,93,124.0
516,G3,50.5,13/40,93,124.0
517,C4,50.5,13/40,93,124.0
518,G6,50.5,33/40,42,124.0
519,G5,50.5,33/40,42,124.0
520,B-4,50.5,0.25,43,124.0
521,A4,50.5,0.25,43,124.0
522,E-3,51.0,0.25,89,124.0
523,B-4,51.0,0.25,72,124.0
524,A4,51.0,0.25,72,124.0
525,E1,51.367,3/40,50,124.0
526,F4,51.417,583/1000,110,124.0
527,F4,51.467,533/1000,66,124.0
528,C2,51.492,367/1000,60,124.0
529,C2,51.5,0.25,78,124.0
530,E-3,51.5,0.25,74,124.0
531,F4,51.5,0.5,93,124.0
532,B-3,51.5,0.5,93,124.0
533,A3,51.5,0.5,93,124.0
534,D4,51.5,0.5,93,124.0
535,F6,51.5,0.5,42,124.0
536,F5,51.5,0.5,42,124.0
537,B-4,51.5,0.25,36,124.0
538,A4,51.5,0.25,36,124.0
539,C2,51.992,1/125,85,124.0
540,C2,52.0,1367/1000,85,124.0
541,F4,52.0,2217/1000,66,124.0
542,F4,52.0,1221/500,110,124.0
543,C2,52.0,0.25,78,124.0
544,E-3,52.0,0.25,89,124.0
545,F4,52.0,4.0,93,124.0
546,B-3,52.0,4.0,93,124.0
547,A3,52.0,4.0,93,124.0
548,D4,52.0,4.0,93,124.0
549,F6,52.0,3.25,42,124.0
550,F5,52.0,3.25,42,124.0
551,B-4,52.0,0.25,67,124.0
552,A4,52.0,0.25,67,124.0
553,E-3,52.5,0.25,74,124.0
554,B-4,52.5,0.25,43,124.0
555,A4,52.5,0.25,43,124.0
556,E-3,53.0,0.25,89,124.0
557,B-4,53.0,0.25,72,124.0
558,A4,53.0,0.25,72,124.0
559,E1,53.367,3/40,50,124.0
560,F2,53.492,367/1000,60,124.0
561,C2,53.5,0.25,78,124.0
562,C#2,53.5,1.0,84,124.0
563,E-3,53.5,0.25,79,124.0
564,B-4,53.5,0.25,36,124.0
565,A4,53.5,0.25,36,124.0
566,E-3,53.75,0.25,74,124.0
567,F2,53.992,124/125,85,124.0
568,C2,54.0,0.25,78,124.0
569,E-3,54.0,0.25,89,124.0
570,B-4,54.0,0.25,67,124.0
571,A4,54.0,0.25,67,124.0
572,E-3,54.5,0.25,79,124.0
573,B-4,54.5,0.25,43,124.0
574,A4,54.5,0.25,43,124.0
575,E-3,54.75,0.25,74,124.0
576,B-1,54.992,124/125,70,124.0
577,C#2,55.0,1.0,84,124.0
578,E-3,55.0,0.25,89,124.0
579,B-4,55.0,0.25,72,124.0
580,A4,55.0,0.25,72,124.0
581,C2,55.5,0.25,78,124.0
582,E-3,55.5,0.25,74,124.0
583,C6,55.5,117/1000,70,124.0
584,B-4,55.5,0.25,36,124.0
585,A4,55.5,0.25,36,124.0
586,G4,55.967,4.0,46,124.0
587,F4,55.967,4.0,46,124.0
588,C4,55.967,4.0,46,124.0
589,D4,55.967,4.0,46,124.0
590,B-3,55.967,4.0,46,124.0
591,G4,55.983,17/1000,127,124.0
592,C2,55.992,1/125,85,124.0
593,C2,56.0,1367/1000,85,124.0
594,G4,56.0,93/40,124,124.0
595,G4,56.0,89/40,127,124.0
596,C2,56.0,0.25,78,124.0
597,F#2,56.0,0.25,75,124.0
598,G3,56.0,0.25,111,124.0
599,B-4,56.0,0.25,67,124.0
600,A4,56.0,0.25,67,124.0
601,F#2,56.5,0.25,75,124.0
602,B-4,56.5,0.25,43,124.0
603,A4,56.5,0.25,43,124.0
604,F#2,57.0,0.25,75,124.0
605,B-3,57.0,43/40,93,124.0
606,C4,57.0,43/40,93,124.0
607,G4,57.0,43/40,93,124.0
608,E-4,57.0,43/40,93,124.0
609,B-4,57.0,0.25,72,124.0
610,A4,57.0,0.25,72,124.0
611,E1,57.367,3/40,50,124.0
612,G2,57.492,367/1000,60,124.0
613,C2,57.5,0.25,78,124.0
614,C#2,57.5,1.0,84,124.0
615,F#2,57.5,0.25,75,124.0
616,B-4,57.5,0.25,36,124.0
617,A4,57.5,0.25,36,124.0
618,G2,57.992,1.375,85,124.0
619,C2,58.0,0.25,78,124.0
620,F#2,58.0,0.25,75,124.0
621,B-4,58.0,0.25,67,124.0
622,A4,58.0,0.25,67,124.0
623,A4,58.483,417/1000,127,124.0
624,A4,58.5,0.5,124,124.0
625,F#2,58.5,0.25,75,124.0
626,G4,58.5,13/40,93,124.0
627,B-3,58.5,13/40,93,124.0
628,C4,58.5,13/40,93,124.0
629,E-4,58.5,13/40,93,124.0
630,B-4,58.5,0.25,43,124.0
631,A4,58.5,0.25,43,124.0
632,B-4,58.983,417/1000,127,124.0
633,B-4,59.0,0.5,124,124.0
634,C#2,59.0,1.0,84,124.0
635,F#2,59.0,0.25,75,124.0
636,B-4,59.0,0.25,72,124.0
637,A4,59.0,0.25,72,124.0
638,E1,59.367,3/40,50,124.0
639,A4,59.483,517/1000,127,124.0
640,C2,59.492,367/1000,60,124.0
641,A4,59.5,0.5,124,124.0
642,C2,59.5,0.25,78,124.0
643,F#2,59.5,0.25,75,124.0
644,A3,59.5,0.5,93,124.0
645,F4,59.5,0.5,93,124.0
646,B-3,59.5,0.5,93,124.0
647,D4,59.5,0.5,93,124.0
648,B-4,59.5,0.25,36,124.0
649,A4,59.5,0.25,36,124.0
650,C2,59.992,1/125,85,124.0
651,C2,60.0,1367/1000,85,124.0
652,A4,60.0,143/40,124,124.0
653,A4,60.0,139/40,127,124.0
654,C2,60.0,0.25,78,124.0
655,F#2,60.0,0.25,75,124.0
656,A3,60.0,499/125,93,124.0
657,F4,60.0,499/125,93,124.0
658,B-3,60.0,499/125,93,124.0
659,D4,60.0,499/125,93,124.0
660,B-4,60.0,0.25,67,124.0
661,A4,60.0,0.25,67,124.0
662,C#2,60.5,1.0,84,124.0
663,B-2,60.5,0.25,75,124.0
664,B-4,60.5,0.25,43,124.0
665,A4,60.5,0.25,43,124.0
666,F#2,61.0,0.25,75,124.0
667,B-4,61.0,0.25,72,124.0
668,A4,61.0,0.25,72,124.0
669,E1,61.367,3/40,50,124.0
670,G2,61.492,367/1000,60,124.0
671,C2,61.5,0.25,78,124.0
672,F#2,61.5,0.25,75,124.0
673,E-5,61.5,0.25,64,124.0
674,B-4,61.5,0.25,36,124.0
675,A4,61.5,0.25,36,124.0
676,G2,61.992,477/250,85,124.0
677,C2,62.0,0.25,78,124.0
678,B-2,62.0,0.25,75,124.0
679,B-4,62.0,0.25,67,124.0
680,A4,62.0,0.25,67,124.0
681,F#2,62.5,0.25,75,124.0
682,B-4,62.5,0.25,43,124.0
683,A4,62.5,0.25,43,124.0
684,C#2,63.0,1.0,84,124.0
685,F#2,63.0,0.25,75,124.0
686,E-5,63.0,0.25,64,124.0
687,B-4,63.0,0.25,72,124.0
688,A4,63.0,0.25,72,124.0
689,C2,63.5,0.25,78,124.0
690,B-2,63.5,0.25,75,124.0
691,B-4,63.5,0.25,36,124.0
692,A4,63.5,0.25,36,124.0
693,G4,63.983,17/1000,127,124.0
694,C2,63.992,1/125,85,124.0
695,C2,64.0,1367/1000,85,124.0
696,G4,64.0,124/125,124,124.0
697,G4,64.0,223/250,127,124.0
698,C2,64.0,0.25,78,124.0
699,F#2,64.0,0.25,75,124.0
700,B-4,64.0,0.25,67,124.0
701,A4,64.0,0.25,67,124.0
702,F#2,64.5,0.25,75,124.0
703,B-4,64.5,0.25,43,124.0
704,A4,64.5,0.25,43,124.0
705,F4,64.983,51/125,127,124.0
706,F4,65.0,123/250,124,124.0
707,C#2,65.0,1.0,84,124.0
708,F#2,65.0,0.25,75,124.0
709,G3,65.0,43/40,93,124.0
710,C4,65.0,43/40,93,124.0
711,E-4,65.0,43/40,93,124.0
712,B-3,65.0,43/40,93,124.0
713,B-4,65.0,0.25,72,124.0
714,A4,65.0,0.25,72,124.0
715,E1,65.367,3/40,50,124.0
716,E-4,65.483,227/250,127,124.0
717,G2,65.492,367/1000,60,124.0
718,E-4,65.5,124/125,124,124.0
719,C2,65.5,0.25,78,124.0
720,F#2,65.5,0.25,75,124.0
721,B-4,65.5,0.25,36,124.0
722,A4,65.5,0.25,36,124.0
723,G2,65.992,1.375,85,124.0
724,C2,66.0,0.25,78,124.0
725,F#2,66.0,0.25,75,124.0
726,B-4,66.0,0.25,67,124.0
727,A4,66.0,0.25,67,124.0
728,G4,66.483,417/1000,117,124.0
729,G4,66.5,0.5,114,124.0
730,C#2,66.5,1.0,84,124.0
731,F#2,66.5,0.25,75,124.0
732,G3,66.5,13/40,93,124.0
733,E-4,66.5,13/40,93,124.0
734,B-3,66.5,13/40,93,124.0
735,C4,66.5,13/40,93,124.0
736,B-4,66.5,0.25,43,124.0
737,A4,66.5,0.25,43,124.0
738,E-4,66.983,417/1000,127,124.0
739,E-4,67.0,0.5,124,124.0
740,F#2,67.0,0.25,75,124.0
741,B-4,67.0,0.25,72,124.0
742,A4,67.0,0.25,72,124.0
743,E1,67.367,3/40,50,124.0
744,F4,67.483,517/1000,127,124.0
745,C2,67.492,367/1000,60,124.0
746,F4,67.5,0.5,124,124.0
747,C2,67.5,0.25,78,124.0
748,F#2,67.5,0.25,75,124.0
749,A3,67.5,0.5,93,124.0
750,B-3,67.5,0.5,93,124.0
751,F4,67.5,0.5,93,124.0
752,D4,67.5,0.5,93,124.0
753,B-4,67.5,0.25,36,124.0
754,A4,67.5,0.25,36,124.0
755,C2,67.992,1/125,85,124.0
756,C2,68.0,1367/1000,85,124.0
757,F4,68.0,143/40,124,124.0
758,F4,68.0,139/40,127,124.0
759,C2,68.0,0.25,78,124.0
760,F#2,68.0,0.25,75,124.0
761,A3,68.0,4.0,93,124.0
762,B-3,68.0,4.0,93,124.0
763,F4,68.0,4.0,93,124.0
764,D4,68.0,4.0,93,124.0
765,B-4,68.0,0.25,67,124.0
766,A4,68.0,0.25,67,124.0
767,F#2,68.5,0.25,75,124.0
768,B-4,68.5,0.25,43,124.0
769,A4,68.5,0.25,43,124.0
770,F#2,69.0,0.25,75,124.0
771,B-4,69.0,0.25,72,124.0
772,A4,69.0,0.25,72,124.0
773,E1,69.367,3/40,50,124.0
774,G2,69.492,367/1000,60,124.0
775,C2,69.5,0.25,78,124.0
776,C#2,69.5,1.0,84,124.0
777,B-2,69.5,0.25,75,124.0
778,E-5,69.5,0.25,64,124.0
779,B-4,69.5,0.25,36,124.0
780,A4,69.5,0.25,36,124.0
781,G2,69.992,227/250,85,124.0
782,C2,70.0,0.25,78,124.0
783,F#2,70.0,0.25,75,124.0
784,F5,70.0,0.25,68,124.0
785,B-4,70.0,0.25,67,124.0
786,A4,70.0,0.25,67,124.0
787,F#2,70.5,0.25,75,124.0
788,B-4,70.5,0.25,43,124.0
789,A4,70.5,0.25,43,124.0
790,C2,70.992,33/40,75,124.0
791,C#2,71.0,1.0,84,124.0
792,B-2,71.0,0.25,75,124.0
793,B-4,71.0,0.25,72,124.0
794,A4,71.0,0.25,72,124.0
795,C2,71.5,0.25,78,124.0
796,B-4,71.5,0.25,36,124.0
797,A4,71.5,0.25,36,124.0
798,D4,71.983,17/1000,127,124.0
799,G1,71.992,1/125,85,124.0
800,G1,72.0,1367/1000,85,124.0
801,D4,72.0,1.0,124,124.0
802,D4,72.0,9/10,127,124.0
803,C2,72.0,0.25,78,124.0
804,G3,72.0,0.25,116,124.0
805,B-4,72.0,0.25,67,124.0
806,A4,72.0,0.25,67,124.0
807,F#2,72.5,0.25,75,124.0
808,B-4,72.5,0.25,43,124.0
809,A4,72.5,0.25,43,124.0
810,C4,72.983,417/1000,127,124.0
811,C4,73.0,0.5,124,124.0
812,C#2,73.0,1.0,84,124.0
813,F#2,73.0,0.25,75,124.0
814,G3,73.0,43/40,93,124.0
815,F4,73.0,43/40,93,124.0
816,D4,73.0,43/40,93,124.0
817,B-3,73.0,43/40,93,124.0
818,B-4,73.0,0.25,72,124.0
819,A4,73.0,0.25,72,124.0
820,E1,73.367,3/40,50,124.0
821,B-3,73.483,521/500,117,124.0
822,D2,73.492,367/1000,60,124.0
823,B-3,73.5,1.125,114,124.0
824,C2,73.5,0.25,78,124.0
825,F#2,73.5,0.25,75,124.0
826,B-4,73.5,0.25,36,124.0
827,A4,73.5,0.25,36,124.0
828,D2,73.992,1.375,85,124.0
829,C2,74.0,0.25,78,124.0
830,F#2,74.0,0.25,75,124.0
831,B-4,74.0,0.25,67,124.0
832,A4,74.0,0.25,67,124.0
833,C#2,74.5,1.0,84,124.0
834,F#2,74.5,0.25,75,124.0
835,G3,74.5,13/40,93,124.0
836,F4,74.5,13/40,93,124.0
837,D4,74.5,13/40,93,124.0
838,B-3,74.5,13/40,93,124.0
839,B-4,74.5,0.25,43,124.0
840,A4,74.5,0.25,43,124.0
841,D4,74.583,51/125,127,124.0
842,D4,74.6,123/250,124,124.0
843,F#2,75.0,0.25,75,124.0
844,B-4,75.0,0.25,72,124.0
845,A4,75.0,0.25,72,124.0
846,E-4,75.317,417/1000,127,124.0
847,E-4,75.333,0.5,124,124.0
848,E1,75.367,3/40,50,124.0
849,G1,75.492,367/1000,60,124.0
850,C2,75.5,0.25,78,124.0
851,F#2,75.5,0.25,75,124.0
852,G3,75.5,0.5,93,124.0
853,G#3,75.5,0.5,93,124.0
854,E-4,75.5,0.5,93,124.0
855,C4,75.5,0.5,93,124.0
856,B-4,75.5,0.25,36,124.0
857,A4,75.5,0.25,36,124.0
858,D4,75.983,17/1000,127,124.0
859,G#1,75.992,1/125,85,124.0
860,G#1,76.0,1367/1000,85,124.0
861,D4,76.0,279/500,124,124.0
862,D4,76.0,229/500,127,124.0
863,C2,76.0,0.25,78,124.0
864,F#2,76.0,0.25,75,124.0
865,G3,76.0,499/125,93,124.0
866,G#3,76.0,499/125,93,124.0
867,E-4,76.0,499/125,93,124.0
868,C4,76.0,499/125,93,124.0
869,B-4,76.0,0.25,67,124.0
870,A4,76.0,0.25,67,124.0
871,F#2,76.5,0.25,75,124.0
872,B-4,76.5,0.25,43,124.0
873,A4,76.5,0.25,43,124.0
874,C4,76.567,2167/1000,117,124.0
875,C4,76.583,2.25,114,124.0
876,F#2,77.0,0.25,75,124.0
877,B-4,77.0,0.25,72,124.0
878,A4,77.0,0.25,72,124.0
879,E1,77.367,3/40,50,124.0
880,E-2,77.492,367/1000,60,124.0
881,C2,77.5,0.25,78,124.0
882,C#2,77.5,1.0,84,124.0
883,F#2,77.5,0.25,75,124.0
884,E-5,77.5,0.25,64,124.0
885,B-4,77.5,0.25,36,124.0
886,A4,77.5,0.25,36,124.0
887,E-5,77.75,0.25,64,124.0
888,E-2,77.992,227/250,85,124.0
889,C2,78.0,0.25,78,124.0
890,F#2,78.0,0.25,75,124.0
891,E-5,78.0,0.25,64,124.0
892,B-4,78.0,0.25,67,124.0
893,A4,78.0,0.25,67,124.0
894,F#2,78.25,0.25,75,124.0
895,F#2,78.5,0.25,75,124.0
896,B-4,78.5,0.25,43,124.0
897,A4,78.5,0.25,43,124.0
898,B-1,78.992,227/250,75,124.0
899,C#2,79.0,1.0,84,124.0
900,F#2,79.0,0.25,75,124.0
901,E-5,79.0,0.25,64,124.0
902,B-4,79.0,0.25,72,124.0
903,A4,79.0,0.25,72,124.0
904,C4,79.483,367/1000,127,124.0
905,C4,79.5,9/20,124,124.0
906,C2,79.5,0.25,78,124.0
907,B-2,79.5,0.25,75,124.0
908,B-4,79.5,0.25,36,124.0
909,A4,79.5,0.25,36,124.0
910,F4,79.983,17/1000,127,124.0
911,D2,79.992,1/125,85,124.0
912,D2,80.0,1367/1000,85,124.0
913,F4,80.0,1.0,124,124.0
914,F4,80.0,9/10,127,124.0
915,C2,80.0,0.25,78,124.0
916,F#2,80.0,0.25,75,124.0
917,B-4,80.0,0.25,67,124.0
918,A4,80.0,0.25,67,124.0
919,F#2,80.5,0.25,75,124.0
920,B-4,80.5,0.25,43,124.0
921,A4,80.5,0.25,43,124.0
922,E-4,80.983,417/1000,127,124.0
923,E-4,81.0,0.5,124,124.0
924,C#2,81.0,1.0,84,124.0
925,F#2,81.0,0.25,75,124.0
926,F4,81.0,43/40,93,124.0
927,D4,81.0,43/40,93,124.0
928,C4,81.0,43/40,93,124.0
929,G3,81.0,43/40,93,124.0
930,B-4,81.0,0.25,72,124.0
931,A4,81.0,0.25,72,124.0
932,E1,81.367,3/40,50,124.0
933,F4,81.483,917/1000,127,124.0
934,G2,81.492,367/1000,60,124.0
935,F4,81.5,1.0,124,124.0
936,C2,81.5,0.25,78,124.0
937,F#2,81.5,0.25,75,124.0
938,B-4,81.5,0.25,36,124.0
939,A4,81.5,0.25,36,124.0
940,G2,81.992,1.375,85,124.0
941,C2,82.0,0.25,78,124.0
942,F#2,82.0,0.25,75,124.0
943,B-4,82.0,0.25,67,124.0
944,A4,82.0,0.25,67,124.0
945,G4,82.483,33/40,127,124.0
946,G4,82.5,227/250,124,124.0
947,C#2,82.5,1.0,84,124.0
948,F#2,82.5,0.25,75,124.0
949,F4,82.5,13/40,93,124.0
950,D4,82.5,13/40,93,124.0
951,C4,82.5,13/40,93,124.0
952,G3,82.5,13/40,93,124.0
953,B-4,82.5,0.25,43,124.0
954,A4,82.5,0.25,43,124.0
955,F#2,83.0,0.25,75,124.0
956,B-4,83.0,0.25,72,124.0
957,A4,83.0,0.25,72,124.0
958,E1,83.367,3/40,50,124.0
959,D4,83.483,517/1000,107,124.0
960,G4,83.483,517/1000,107,124.0
961,D2,83.492,367/1000,60,124.0
962,C2,83.5,0.25,78,124.0
963,F#2,83.5,0.25,75,124.0
964,F4,83.5,0.5,93,124.0
965,D4,83.5,0.5,93,124.0
966,B3,83.5,0.5,93,124.0
967,G3,83.5,0.5,93,124.0
968,D4,83.5,0.5,99,124.0
969,G4,83.5,0.5,99,124.0
970,B-4,83.5,0.25,36,124.0
971,A4,83.5,0.25,36,124.0
972,G4,83.933,4.0,46,124.0
973,F4,83.933,4.0,46,124.0
974,C4,83.933,4.0,46,124.0
975,D4,83.933,4.0,46,124.0
976,B-3,83.933,4.0,46,124.0
977,G1,83.992,1/125,85,124.0
978,G1,84.0,1367/1000,85,124.0
979,C2,84.0,0.25,78,124.0
980,F#2,84.0,0.25,75,124.0
981,F4,84.0,499/125,93,124.0
982,D4,84.0,499/125,93,124.0
983,B3,84.0,499/125,93,124.0
984,G3,84.0,499/125,93,124.0
985,D4,84.0,143/40,99,124.0
986,G4,84.0,143/40,99,124.0
987,D4,84.0,139/40,107,124.0
988,G4,84.0,139/40,107,124.0
989,B-4,84.0,0.25,67,124.0
990,A4,84.0,0.25,67,124.0
991,F#2,84.5,0.25,75,124.0
992,B-4,84.5,0.25,43,124.0
993,A4,84.5,0.25,43,124.0
994,F#2,84.75,0.25,75,124.0
995,F#2,85.0,0.25,75,124.0
996,B-4,85.0,0.25,72,124.0
997,A4,85.0,0.25,72,124.0
998,E1,85.367,3/40,50,124.0
999,G1,85.492,9/20,60,124.0
1000,C2,85.5,0.25,78,124.0
1001,C#2,85.5,1.0,84,124.0
1002,F#2,85.5,0.25,75,124.0
1003,B-4,85.5,0.25,36,124.0
1004,A4,85.5,0.25,36,124.0
1005,D2,85.992,227/250,80,124.0
1006,C2,86.0,0.25,78,124.0
1007,F#2,86.0,0.25,75,124.0
1008,B-4,86.0,0.25,67,124.0
1009,A4,86.0,0.25,67,124.0
1010,B-2,86.5,0.25,75,124.0
1011,G#5,86.5,0.125,28,124.0
1012,G#4,86.5,0.125,28,124.0
1013,B-4,86.5,0.25,43,124.0
1014,A4,86.5,0.25,43,124.0
1015,B-5,86.625,0.125,28,124.0
1016,B-4,86.625,0.125,28,124.0
1017,B5,86.75,0.125,28,124.0
1018,B4,86.75,0.125,28,124.0
1019,C6,86.875,0.125,28,124.0
1020,C5,86.875,0.125,28,124.0
1021,G1,86.992,33/40,85,124.0
1022,C#2,87.0,1.0,84,124.0
1023,F#2,87.0,0.25,75,124.0
1024,C#6,87.0,0.125,28,124.0
1025,C#5,87.0,0.125,28,124.0
1026,B-4,87.0,0.25,72,124.0
1027,A4,87.0,0.25,72,124.0
1028,D6,87.125,0.125,28,124.0
1029,D5,87.125,0.125,28,124.0
1030,E6,87.25,0.125,28,124.0
1031,E5,87.25,0.125,28,124.0
1032,F6,87.375,0.125,28,124.0
1033,F5,87.375,0.125,28,124.0
1034,C2,87.5,0.25,78,124.0
1035,B-2,87.5,0.25,75,124.0
1036,F#6,87.5,0.125,28,124.0
1037,F#5,87.5,0.125,28,124.0
1038,B-4,87.5,0.25,36,124.0
1039,A4,87.5,0.25,36,124.0
1040,G6,87.625,0.125,28,124.0
1041,G5,87.625,0.125,28,124.0
1042,G#6,87.75,0.125,28,124.0
1043,G#5,87.75,0.125,28,124.0
1044,A6,87.875,0.125,28,124.0
1045,A5,87.875,0.125,28,124.0
1046,B-4,87.917,83/1000,110,124.0
1047,B-4,87.967,33/1000,66,124.0
1048,G4,87.983,17/1000,127,124.0
1049,C2,87.992,1/125,85,124.0
1050,C2,88.0,1367/1000,85,124.0
1051,G4,88.0,301/125,124,124.0
1052,B-4,88.0,2.125,66,124.0
1053,B-4,88.0,83/40,110,124.0
1054,G4,88.0,577/250,127,124.0
1055,C2,88.0,0.25,78,124.0
1056,F#2,88.0,0.25,75,124.0
1057,G3,88.0,0.25,116,124.0
1058,B-6,88.0,1079/500,42,124.0
1059,B-5,88.0,1079/500,42,124.0
1060,B-4,88.0,0.25,67,124.0
1061,A4,88.0,0.25,67,124.0
1062,F#2,88.5,0.25,75,124.0
1063,B-4,88.5,0.25,43,124.0
1064,A4,88.5,0.25,43,124.0
1065,C#2,89.0,1.0,84,124.0
1066,F#2,89.0,0.25,75,124.0
1067,D4,89.0,117/1000,89,124.0
1068,B-3,89.0,43/40,93,124.0
1069,C4,89.0,43/40,93,124.0
1070,G4,89.0,43/40,93,124.0
1071,E-4,89.0,43/40,93,124.0
1072,B-4,89.0,0.25,72,124.0
1073,A4,89.0,0.25,72,124.0
1074,E1,89.367,3/40,50,124.0
1075,G2,89.492,367/1000,60,124.0
1076,C2,89.5,0.25,78,124.0
1077,F#2,89.5,0.25,75,124.0
1078,B-4,89.5,0.25,36,124.0
1079,A4,89.5,0.25,36,124.0
1080,G2,89.992,1.375,85,124.0
1081,C2,90.0,0.25,78,124.0
1082,F#2,90.0,0.25,75,124.0
1083,B-4,90.0,0.25,67,124.0
1084,A4,90.0,0.25,67,124.0
1085,C5,90.417,0.5,110,124.0
1086,C5,90.467,0.5,66,124.0
1087,A4,90.483,417/1000,127,124.0
1088,A4,90.5,0.5,124,124.0
1089,C#2,90.5,1.0,84,124.0
1090,F#2,90.5,0.25,75,124.0
1091,D4,90.5,117/1000,89,124.0
1092,G4,90.5,13/40,93,124.0
1093,B-3,90.5,13/40,93,124.0
1094,C4,90.5,13/40,93,124.0
1095,E-4,90.5,13/40,93,124.0
1096,C7,90.5,0.5,42,124.0
1097,C6,90.5,0.5,42,124.0
1098,B-4,90.5,0.25,43,124.0
1099,A4,90.5,0.25,43,124.0
1100,D5,90.917,123/250,110,124.0
1101,D5,90.967,123/250,66,124.0
1102,B-4,90.983,13/40,127,124.0
1103,B-4,91.0,51/125,124,124.0
1104,F#2,91.0,0.25,75,124.0
1105,E4,91.0,117/1000,89,124.0
1106,D7,91.0,123/250,42,124.0
1107,D6,91.0,123/250,42,124.0
1108,B-4,91.0,0.25,72,124.0
1109,A4,91.0,0.25,72,124.0
1110,E1,91.367,3/40,50,124.0
1111,C5,91.417,583/1000,110,124.0
1112,C5,91.467,533/1000,66,124.0
1113,A4,91.483,517/1000,127,124.0
1114,C2,91.492,367/1000,60,124.0
1115,A4,91.5,0.5,124,124.0
1116,C2,91.5,0.25,78,124.0
1117,F#2,91.5,0.25,75,124.0
1118,E4,91.5,117/1000,89,124.0
1119,F4,91.5,0.5,93,124.0
1120,B-3,91.5,0.5,93,124.0
1121,D4,91.5,0.5,93,124.0
1122,A3,91.5,0.5,93,124.0
1123,C7,91.5,0.5,42,124.0
1124,C6,91.5,0.5,42,124.0
1125,B-4,91.5,0.25,36,124.0
1126,A4,91.5,0.25,36,124.0
1127,C2,91.992,1/125,85,124.0
1128,C2,92.0,1367/1000,85,124.0
1129,A4,92.0,1871/500,124,124.0
1130,C5,92.0,979/500,66,124.0
1131,C5,92.0,477/250,110,124.0
1132,A4,92.0,1821/500,127,124.0
1133,C2,92.0,0.25,78,124.0
1134,F#2,92.0,0.25,75,124.0
1135,F4,92.0,499/125,93,124.0
1136,B-3,92.0,499/125,93,124.0
1137,D4,92.0,499/125,93,124.0
1138,A3,92.0,499/125,93,124.0
1139,C7,92.0,1.5,42,124.0
1140,C6,92.0,1.5,42,124.0
1141,B-4,92.0,0.25,67,124.0
1142,A4,92.0,0.25,67,124.0
1143,F#2,92.5,0.25,75,124.0
1144,B-4,92.5,0.25,43,124.0
1145,A4,92.5,0.25,43,124.0
1146,F#2,93.0,0.25,75,124.0
1147,B-4,93.0,0.25,72,124.0
1148,A4,93.0,0.25,72,124.0
1149,E1,93.367,3/40,50,124.0
1150,G2,93.492,367/1000,60,124.0
1151,C2,93.5,0.25,78,124.0
1152,C#2,93.5,1.0,84,124.0
1153,F#2,93.5,0.25,75,124.0
1154,E-4,93.5,117/1000,89,124.0
1155,E-5,93.5,0.25,64,124.0
1156,B-4,93.5,0.25,36,124.0
1157,A4,93.5,0.25,36,124.0
1158,F#2,93.75,0.25,75,124.0
1159,G2,93.992,1.375,85,124.0
1160,C2,94.0,0.25,78,124.0
1161,F#2,94.0,0.25,75,124.0
1162,B-4,94.0,0.25,67,124.0
1163,A4,94.0,0.25,67,124.0
1164,F#2,94.5,0.25,75,124.0
1165,B-4,94.5,0.25,43,124.0
1166,A4,94.5,0.25,43,124.0
1167,F#2,94.75,0.25,75,124.0
1168,C#2,95.0,1.0,84,124.0
1169,F#2,95.0,0.25,75,124.0
1170,E-4,95.0,117/1000,89,124.0
1171,E-5,95.0,0.25,64,124.0
1172,B-4,95.0,0.25,72,124.0
1173,A4,95.0,0.25,72,124.0
1174,E1,95.367,3/40,50,124.0
1175,D2,95.492,367/1000,60,124.0
1176,C2,95.5,0.25,78,124.0
1177,B-2,95.5,0.25,75,124.0
1178,B-4,95.5,0.25,36,124.0
1179,A4,95.5,0.25,36,124.0
1180,B-4,95.917,83/1000,110,124.0
1181,B-4,95.967,33/1000,66,124.0
1182,G4,95.983,17/1000,127,124.0
1183,C2,95.992,1/125,85,124.0
1184,C2,96.0,1367/1000,85,124.0
1185,G4,96.0,227/250,124,124.0
1186,B-4,96.0,479/500,66,124.0
1187,B-4,96.0,227/250,110,124.0
1188,G4,96.0,101/125,127,124.0
1189,C2,96.0,0.25,78,124.0
1190,F#2,96.0,0.25,75,124.0
1191,B-6,96.0,124/125,42,124.0
1192,B-5,96.0,124/125,42,124.0
1193,B-4,96.0,0.25,67,124.0
1194,A4,96.0,0.25,67,124.0
1195,F#2,96.5,0.25,75,124.0
1196,B-4,96.5,0.25,43,124.0
1197,A4,96.5,0.25,43,124.0
1198,A4,96.917,0.5,110,124.0
1199,A4,96.967,0.5,66,124.0
1200,F4,96.983,417/1000,127,124.0
1201,F4,97.0,0.5,124,124.0
1202,C#2,97.0,1.0,84,124.0
1203,F#2,97.0,0.25,75,124.0
1204,D4,97.0,117/1000,89,124.0
1205,G3,97.0,43/40,93,124.0
1206,C4,97.0,43/40,93,124.0
1207,E-4,97.0,43/40,93,124.0
1208,B-3,97.0,43/40,93,124.0
1209,A6,97.0,0.5,42,124.0
1210,A5,97.0,0.5,42,124.0
1211,B-4,97.0,0.25,72,124.0
1212,A4,97.0,0.25,72,124.0
1213,E1,97.367,3/40,50,124.0
1214,G4,97.417,124/125,110,124.0
1215,G4,97.467,124/125,66,124.0
1216,E-4,97.483,33/40,127,124.0
1217,G2,97.492,367/1000,60,124.0
1218,E-4,97.5,227/250,124,124.0
1219,C2,97.5,0.25,78,124.0
1220,F#2,97.5,0.25,75,124.0
1221,G6,97.5,124/125,42,124.0
1222,G5,97.5,124/125,42,124.0
1223,B-4,97.5,0.25,36,124.0
1224,A4,97.5,0.25,36,124.0
1225,G2,97.992,1.375,85,124.0
1226,C2,98.0,0.25,78,124.0
1227,F#2,98.0,0.25,75,124.0
1228,B-4,98.0,0.25,67,124.0
1229,A4,98.0,0.25,67,124.0
1230,B-4,98.417,0.5,110,124.0
1231,B-4,98.467,0.5,66,124.0
1232,G4,98.483,417/1000,127,124.0
1233,G4,98.5,0.5,124,124.0
1234,C#2,98.5,1.0,84,124.0
1235,F#2,98.5,0.25,75,124.0
1236,D4,98.5,117/1000,89,124.0
1237,G3,98.5,13/40,93,124.0
1238,E-4,98.5,13/40,93,124.0
1239,B-3,98.5,13/40,93,124.0
1240,C4,98.5,13/40,93,124.0
1241,B-6,98.5,0.5,42,124.0
1242,B-5,98.5,0.5,42,124.0
1243,B-4,98.5,0.25,43,124.0
1244,A4,98.5,0.25,43,124.0
1245,G4,98.917,0.5,110,124.0
1246,G4,98.967,0.5,66,124.0
1247,E-4,98.983,417/1000,127,124.0
1248,E-4,99.0,0.5,124,124.0
1249,F#2,99.0,0.25,75,124.0
1250,E4,99.0,117/1000,89,124.0
1251,G6,99.0,0.5,42,124.0
1252,G5,99.0,0.5,42,124.0
1253,B-4,99.0,0.25,72,124.0
1254,A4,99.0,0.25,72,124.0
1255,E1,99.367,3/40,50,124.0
1256,A4,99.417,583/1000,110,124.0
1257,A4,99.467,533/1000,66,124.0
1258,F4,99.483,517/1000,127,124.0
1259,C2,99.492,367/1000,60,124.0
1260,F4,99.5,0.5,124,124.0
1261,C2,99.5,0.25,78,124.0
1262,F#2,99.5,0.25,75,124.0
1263,E4,99.5,117/1000,89,124.0
1264,F3,99.5,0.5,93,124.0
1265,A3,99.5,0.5,93,124.0
1266,B-3,99.5,0.5,93,124.0
1267,D4,99.5,0.5,93,124.0
1268,A6,99.5,0.5,42,124.0
1269,A5,99.5,0.5,42,124.0
1270,B-4,99.5,0.25,36,124.0
1271,A4,99.5,0.25,36,124.0
1272,C2,99.992,1/125,85,124.0
1273,C2,100.0,1367/1000,85,124.0
1274,F4,100.0,143/40,124,124.0
1275,A4,100.0,1467/1000,66,124.0
1276,A4,100.0,1417/1000,110,124.0
1277,F4,100.0,139/40,127,124.0
1278,C2,100.0,0.25,78,124.0
1279,F#2,100.0,0.25,75,124.0
1280,F3,100.0,4.0,93,124.0
1281,A3,100.0,4.0,93,124.0
1282,B-3,100.0,4.0,93,124.0
1283,D4,100.0,4.0,93,124.0
1284,A6,100.0,1.5,42,124.0
1285,A5,100.0,1.5,42,124.0
1286,B-4,100.0,0.25,67,124.0
1287,A4,100.0,0.25,67,124.0
1288,C#2,100.5,1.0,84,124.0
1289,F#2,100.5,0.25,75,124.0
1290,D4,100.5,117/1000,89,124.0
1291,B-4,100.5,0.25,43,124.0
1292,A4,100.5,0.25,43,124.0
1293,F#2,101.0,0.25,75,124.0
1294,D4,101.0,117/1000,89,124.0
1295,B-4,101.0,0.25,72,124.0
1296,A4,101.0,0.25,72,124.0
1297,E1,101.367,3/40,50,124.0
1298,G2,101.492,367/1000,60,124.0
1299,C2,101.5,0.25,78,124.0
1300,B-2,101.5,0.25,75,124.0
1301,E-4,101.5,117/1000,89,124.0
1302,E-5,101.5,0.25,64,124.0
1303,B-4,101.5,0.25,36,124.0
1304,A4,101.5,0.25,36,124.0
1305,G2,101.992,227/250,85,124.0
1306,C2,102.0,0.25,78,124.0
1307,C#2,102.0,1.0,84,124.0
1308,F#2,102.0,0.25,75,124.0
1309,D4,102.0,117/1000,89,124.0
1310,F5,102.0,0.25,68,124.0
1311,B-4,102.0,0.25,67,124.0
1312,A4,102.0,0.25,67,124.0
1313,F#2,102.5,0.25,75,124.0
1314,B-4,102.5,0.25,43,124.0
1315,A4,102.5,0.25,43,124.0
1316,C2,102.992,9/20,70,124.0
1317,C#2,103.0,1.0,84,124.0
1318,B-2,103.0,0.25,75,124.0
1319,E4,103.0,117/1000,89,124.0
1320,B-4,103.0,0.25,72,124.0
1321,A4,103.0,0.25,72,124.0
1322,D2,103.492,367/1000,60,124.0
1323,C2,103.5,0.25,78,124.0
1324,F#2,103.5,0.25,75,124.0
1325,B-4,103.5,0.25,36,124.0
1326,A4,103.5,0.25,36,124.0
1327,F4,103.917,83/1000,110,124.0
1328,F4,103.967,33/1000,66,124.0
1329,D4,103.983,17/1000,127,124.0
1330,G1,103.992,1/125,85,124.0
1331,G1,104.0,1367/1000,85,124.0
1332,D4,104.0,1.0,124,124.0
1333,F4,104.0,967/1000,66,124.0
1334,F4,104.0,917/1000,110,124.0
1335,D4,104.0,9/10,127,124.0
1336,C2,104.0,0.25,78,124.0
1337,F#2,104.0,0.25,75,124.0
1338,F6,104.0,1.0,42,124.0
1339,F5,104.0,1.0,42,124.0
1340,B-4,104.0,0.25,67,124.0
1341,A4,104.0,0.25,67,124.0
1342,F#2,104.5,0.25,75,124.0
1343,B-4,104.5,0.25,43,124.0
1344,A4,104.5,0.25,43,124.0
1345,E-4,104.917,0.5,110,124.0
1346,E-4,104.967,0.5,66,124.0
1347,C4,104.983,417/1000,127,124.0
1348,C4,105.0,0.5,124,124.0
1349,C#2,105.0,1.0,84,124.0
1350,F#2,105.0,0.25,75,124.0
1351,D4,105.0,117/1000,89,124.0
1352,G3,105.0,43/40,93,124.0
1353,F4,105.0,43/40,93,124.0
1354,D4,105.0,43/40,93,124.0
1355,B-3,105.0,43/40,93,124.0
1356,E-6,105.0,0.5,42,124.0
1357,E-5,105.0,0.5,42,124.0
1358,B-4,105.0,0.25,72,124.0
1359,A4,105.0,0.25,72,124.0
1360,E1,105.367,3/40,50,124.0
1361,D4,105.417,1.0,110,124.0
1362,D4,105.467,1.0,66,124.0
1363,B-3,105.483,917/1000,127,124.0
1364,D2,105.492,367/1000,60,124.0
1365,B-3,105.5,1.0,124,124.0
1366,C2,105.5,0.25,78,124.0
1367,F#2,105.5,0.25,75,124.0
1368,D6,105.5,1.0,42,124.0
1369,D5,105.5,1.0,42,124.0
1370,B-4,105.5,0.25,36,124.0
1371,A4,105.5,0.25,36,124.0
1372,D2,105.992,1.375,85,124.0
1373,C2,106.0,0.25,78,124.0
1374,F#2,106.0,0.25,75,124.0
1375,B-4,106.0,0.25,67,124.0
1376,A4,106.0,0.25,67,124.0
1377,F4,106.417,124/125,110,124.0
1378,D4,106.417,117/1000,89,124.0
1379,F4,106.467,124/125,66,124.0
1380,D4,106.483,227/250,127,124.0
1381,D4,106.5,124/125,124,124.0
1382,C#2,106.5,1.0,84,124.0
1383,F#2,106.5,0.25,75,124.0
1384,G3,106.5,13/40,93,124.0
1385,F4,106.5,13/40,93,124.0
1386,D4,106.5,13/40,93,124.0
1387,B-3,106.5,13/40,93,124.0
1388,F6,106.5,124/125,42,124.0
1389,F5,106.5,124/125,42,124.0
1390,B-4,106.5,0.25,43,124.0
1391,A4,106.5,0.25,43,124.0
1392,F#2,107.0,0.25,75,124.0
1393,E4,107.0,117/1000,89,124.0
1394,B-4,107.0,0.25,72,124.0
1395,A4,107.0,0.25,72,124.0
1396,E1,107.367,3/40,50,124.0
1397,G4,107.417,0.5,110,124.0
1398,G4,107.467,0.5,66,124.0
1399,E-4,107.483,0.5,127,124.0
1400,G1,107.492,367/1000,60,124.0
1401,E-4,107.5,0.5,124,124.0
1402,C2,107.5,0.25,78,124.0
1403,F#2,107.5,0.25,75,124.0
1404,E4,107.5,117/1000,89,124.0
1405,G3,107.5,0.5,93,124.0
1406,G#3,107.5,0.5,93,124.0
1407,E-4,107.5,0.5,93,124.0
1408,C4,107.5,0.5,93,124.0
1409,G6,107.5,0.5,42,124.0
1410,G5,107.5,0.5,42,124.0
1411,B-4,107.5,0.25,36,124.0
1412,A4,107.5,0.25,36,124.0
1413,G4,107.9,4.0,46,124.0
1414,F4,107.9,4.0,46,124.0
1415,C4,107.9,4.0,46,124.0
1416,D4,107.9,4.0,46,124.0
1417,B-3,107.9,4.0,46,124.0
1418,F4,107.917,83/1000,110,124.0
1419,F4,107.967,33/1000,66,124.0
1420,D4,107.983,17/1000,107,124.0
1421,G#1,107.992,1/125,85,124.0
1422,G#1,108.0,1367/1000,85,124.0
1423,D4,108.0,0.5,104,124.0
1424,F4,108.0,467/1000,66,124.0
1425,F4,108.0,417/1000,110,124.0
1426,D4,108.0,2/5,107,124.0
1427,C2,108.0,0.25,78,124.0
1428,F#2,108.0,0.25,75,124.0
1429,G3,108.0,499/125,93,124.0
1430,G#3,108.0,499/125,93,124.0
1431,E-4,108.0,499/125,93,124.0
1432,C4,108.0,499/125,93,124.0
1433,F6,108.0,0.5,42,124.0
1434,F5,108.0,0.5,42,124.0
1435,B-4,108.0,0.25,67,124.0
1436,A4,108.0,0.25,67,124.0
1437,E-4,108.417,1.0,110,124.0
1438,E-4,108.467,1.0,66,124.0
1439,C4,108.483,2167/1000,127,124.0
1440,C4,108.5,2.25,124,124.0
1441,F#2,108.5,0.25,75,124.0
1442,E-6,108.5,1.75,42,124.0
1443,E-5,108.5,1.75,42,124.0
1444,B-4,108.5,0.25,43,124.0
1445,A4,108.5,0.25,43,124.0
1446,F#2,109.0,0.25,75,124.0
1447,D4,109.0,117/1000,89,124.0
1448,B-4,109.0,0.25,72,124.0
1449,A4,109.0,0.25,72,124.0
1450,E1,109.367,3/40,50,124.0
1451,E-2,109.492,367/1000,60,124.0
1452,C#2,109.5,1.0,84,124.0
1453,F#2,109.5,0.25,75,124.0
1454,E-5,109.5,0.25,64,124.0
1455,C2,109.5,0.25,78,124.0
1456,C2,109.5,0.25,78,124.0
1457,B-4,109.5,0.25,36,124.0
1458,A4,109.5,0.25,36,124.0
1459,F#2,109.75,0.25,75,124.0
1460,E-2,109.992,1.375,85,124.0
1461,C2,110.0,0.25,78,124.0
1462,F#2,110.0,0.25,75,124.0
1463,B-4,110.0,0.25,67,124.0
1464,A4,110.0,0.25,67,124.0
1465,F#2,110.5,0.25,75,124.0
1466,D4,110.5,117/1000,89,124.0
1467,B-4,110.5,0.25,43,124.0
1468,A4,110.5,0.25,43,124.0
1469,F#2,110.75,0.25,75,124.0
1470,E-4,110.958,117/1000,89,124.0
1471,E-4,110.958,117/1000,89,124.0
1472,C#2,111.0,1.0,84,124.0
1473,F#2,111.0,0.25,75,124.0
1474,E-5,111.0,0.25,64,124.0
1475,B-4,111.0,0.25,72,124.0
1476,A4,111.0,0.25,72,124.0
1477,E1,111.367,3/40,50,124.0
1478,C4,111.417,51/125,110,124.0
1479,C4,111.467,51/125,66,124.0
1480,C4,111.483,121/500,127,124.0
1481,G#1,111.492,367/1000,60,124.0
1482,C4,111.5,13/40,124,124.0
1483,C2,111.5,0.25,78,124.0
1484,B-2,111.5,0.25,75,124.0
1485,C6,111.5,51/125,42,124.0
1486,C5,111.5,51/125,42,124.0
1487,B-4,111.5,0.25,36,124.0
1488,A4,111.5,0.25,36,124.0
1489,F4,111.917,83/1000,110,124.0
1490,F4,111.967,33/1000,66,124.0
1491,F4,111.983,17/1000,127,124.0
1492,D2,111.992,1/125,85,124.0
1493,D2,112.0,1367/1000,85,124.0
1494,F4,112.0,1.0,124,124.0
1495,F4,112.0,967/1000,66,124.0
1496,F4,112.0,917/1000,110,124.0
1497,F4,112.0,9/10,127,124.0
1498,C2,112.0,0.25,78,124.0
1499,F#2,112.0,0.25,75,124.0
1500,F6,112.0,1.0,42,124.0
1501,F5,112.0,1.0,42,124.0
1502,B-4,112.0,0.25,67,124.0
1503,A4,112.0,0.25,67,124.0
1504,F#2,112.5,0.25,75,124.0
1505,B-4,112.5,0.25,43,124.0
1506,A4,112.5,0.25,43,124.0
1507,E-4,112.917,0.5,110,124.0
1508,E-4,112.967,0.5,66,124.0
1509,E-4,112.983,417/1000,127,124.0
1510,E-4,113.0,0.5,124,124.0
1511,C#2,113.0,1.0,84,124.0
1512,F#2,113.0,0.25,75,124.0
1513,D4,113.0,117/1000,89,124.0
1514,F4,113.0,43/40,93,124.0
1515,D4,113.0,43/40,93,124.0
1516,C4,113.0,43/40,93,124.0
1517,G3,113.0,43/40,93,124.0
1518,E-6,113.0,0.5,42,124.0
1519,E-5,113.0,0.5,42,124.0
1520,B-4,113.0,0.25,72,124.0
1521,A4,113.0,0.25,72,124.0
1522,E1,113.367,3/40,50,124.0
1523,F4,113.417,33/40,110,124.0
1524,F4,113.467,33/40,66,124.0
1525,F4,113.483,371/500,127,124.0
1526,G2,113.492,367/1000,60,124.0
1527,F4,113.5,33/40,124,124.0
1528,C2,113.5,0.25,78,124.0
1529,F#2,113.5,0.25,75,124.0
1530,F6,113.5,33/40,42,124.0
1531,F5,113.5,33/40,42,124.0
1532,B-4,113.5,0.25,36,124.0
1533,A4,113.5,0.25,36,124.0
1534,G2,113.992,1.375,85,124.0
1535,C2,114.0,0.25,78,124.0
1536,F#2,114.0,0.25,75,124.0
1537,B-4,114.0,0.25,67,124.0
1538,A4,114.0,0.25,67,124.0
1539,G4,114.417,33/40,110,124.0
1540,G4,114.467,33/40,66,124.0
1541,G4,114.483,33/40,127,124.0
1542,G4,114.5,227/250,124,124.0
1543,C#2,114.5,1.0,84,124.0
1544,F#2,114.5,0.25,75,124.0
1545,D4,114.5,117/1000,89,124.0
1546,F4,114.5,13/40,93,124.0
1547,D4,114.5,13/40,93,124.0
1548,C4,114.5,13/40,93,124.0
1549,G3,114.5,13/40,93,124.0
1550,G6,114.5,33/40,42,124.0
1551,G5,114.5,33/40,42,124.0
1552,B-4,114.5,0.25,43,124.0
1553,A4,114.5,0.25,43,124.0
1554,F#2,115.0,0.25,75,124.0
1555,E4,115.0,117/1000,89,124.0
1556,B-4,115.0,0.25,72,124.0
1557,A4,115.0,0.25,72,124.0
1558,E1,115.367,3/40,50,124.0
1559,G4,115.417,583/1000,110,124.0
1560,G4,115.467,533/1000,66,124.0
1561,G4,115.483,517/1000,117,124.0
1562,D2,115.492,367/1000,60,124.0
1563,G4,115.5,0.5,114,124.0
1564,C2,115.5,0.25,78,124.0
1565,F#2,115.5,0.25,75,124.0
1566,E4,115.5,117/1000,89,124.0
1567,G3,115.5,0.5,93,124.0
1568,D4,115.5,0.5,93,124.0
1569,F4,115.5,0.5,93,124.0
1570,B3,115.5,0.5,93,124.0
1571,G6,115.5,0.5,42,124.0
1572,G5,115.5,0.5,42,124.0
1573,B-4,115.5,0.25,36,124.0
1574,A4,115.5,0.25,36,124.0
1575,G1,115.992,1/125,85,124.0
1576,G1,116.0,1367/1000,85,124.0
1577,G4,116.0,103/40,114,124.0
1578,G4,116.0,1467/1000,66,124.0
1579,G4,116.0,1417/1000,110,124.0
1580,G4,116.0,99/40,117,124.0
1581,C2,116.0,0.25,78,124.0
1582,F#2,116.0,0.25,75,124.0
1583,G3,116.0,727/250,93,124.0
1584,D4,116.0,727/250,93,124.0
1585,F4,116.0,727/250,93,124.0
1586,B3,116.0,727/250,93,124.0
1587,G6,116.0,1.5,42,124.0
1588,G5,116.0,1.5,42,124.0
1589,B-4,116.0,0.25,67,124.0
1590,A4,116.0,0.25,67,124.0
1591,C#2,116.5,1.0,84,124.0
1592,F#2,116.5,0.25,75,124.0
1593,B-4,116.5,0.25,43,124.0
1594,A4,116.5,0.25,43,124.0
1595,F#2,117.0,0.25,75,124.0
1596,D4,117.0,117/1000,89,124.0
1597,B-4,117.0,0.25,72,124.0
1598,A4,117.0,0.25,72,124.0
1599,E1,117.367,3/40,50,124.0
1600,G1,117.492,367/1000,60,124.0
1601,C2,117.5,0.25,78,124.0
1602,F#2,117.5,0.25,75,124.0
1603,E-4,117.5,117/1000,89,124.0
1604,C6,117.5,0.25,70,124.0
1605,B-4,117.5,0.25,36,124.0
1606,A4,117.5,0.25,36,124.0
1607,D2,117.992,227/250,85,124.0
1608,C2,118.0,0.25,78,124.0
1609,C#2,118.0,1.0,84,124.0
1610,F#2,118.0,0.25,75,124.0
1611,E-4,118.0,117/1000,89,124.0
1612,B-4,118.0,0.25,67,124.0
1613,A4,118.0,0.25,67,124.0
1614,F#2,118.5,0.25,75,124.0
1615,B-4,118.5,0.25,43,124.0
1616,A4,118.5,0.25,43,124.0
1617,E-4,118.917,0.5,110,124.0
1618,E-4,118.967,0.5,66,124.0
1619,E-4,118.983,417/1000,107,124.0
1620,G1,118.992,227/250,85,124.0
1621,E-4,119.0,0.5,93,124.0
1622,E-4,119.0,0.5,104,124.0
1623,G2,119.0,1.0,104,124.0
1624,F#2,119.0,0.25,75,124.0
1625,E4,119.0,117/1000,89,124.0
1626,G3,119.0,33/40,93,124.0
1627,C4,119.0,33/40,93,124.0
1628,E-6,119.0,0.5,42,124.0
1629,E-5,119.0,0.5,42,124.0
1630,B-4,119.0,0.25,72,124.0
1631,A4,119.0,0.25,72,124.0
1632,F#2,119.25,0.25,75,124.0
1633,D4,119.417,0.5,110,124.0
1634,D4,119.467,0.5,66,124.0
1635,D4,119.483,417/1000,97,124.0
1636,D4,119.5,13/40,93,124.0
1637,D4,119.5,0.5,94,124.0
1638,F#2,119.5,0.25,75,124.0
1639,E4,119.5,117/1000,89,124.0
1640,D6,119.5,0.5,42,124.0
1641,D5,119.5,0.5,42,124.0
1642,B-4,119.5,0.25,36,124.0
1643,A4,119.5,0.25,36,124.0
1644,C4,119.917,83/1000,110,124.0
1645,C4,119.967,33/1000,66,124.0
1646,C4,119.983,17/1000,91,124.0
1647,C2,119.992,1/125,85,124.0
1648,C2,120.0,1367/1000,85,124.0
1649,C4,120.0,1.0,88,124.0
1650,C4,120.0,967/1000,66,124.0
1651,C4,120.0,917/1000,110,124.0
1652,C4,120.0,9/10,91,124.0
1653,C2,120.0,0.25,78,124.0
1654,C#3,120.0,0.25,111,124.0
1655,A4,120.0,117/1000,73,124.0
1656,C4,120.0,93/40,93,124.0
1657,G3,120.0,93/40,93,124.0
1658,C6,120.0,1.0,42,124.0
1659,C5,120.0,1.0,42,124.0
1660,A4,120.25,117/1000,48,124.0
1661,A4,120.5,117/1000,73,124.0
1662,E-3,120.583,3/40,89,124.0
1663,A4,120.75,117/1000,48,124.0
1664,E-3,120.833,23/250,74,124.0
1665,E-4,120.917,0.5,110,124.0
1666,E-4,120.967,0.5,66,124.0
1667,E-4,120.983,417/1000,87,124.0
1668,E-4,121.0,53/40,93,124.0
1669,E-4,121.0,0.5,84,124.0
1670,C#2,121.0,1.0,84,124.0
1671,D4,121.0,117/1000,99,124.0
1672,A4,121.0,117/1000,73,124.0
1673,E-6,121.0,0.5,42,124.0
1674,E-5,121.0,0.5,42,124.0
1675,E-3,121.083,117/1000,85,124.0
1676,A4,121.25,117/1000,24,124.0
1677,E1,121.367,3/40,50,124.0
1678,G4,121.417,1.0,110,124.0
1679,G4,121.467,1.0,66,124.0
1680,G4,121.483,917/1000,87,124.0
1681,C3,121.492,51/125,50,124.0
1682,G4,121.5,33/40,93,124.0
1683,G4,121.5,1.0,84,124.0
1684,C2,121.5,0.25,78,124.0
1685,G6,121.5,1.0,42,124.0
1686,G5,121.5,1.0,42,124.0
1687,E-3,121.567,0.125,85,124.0
1688,C3,121.992,2/5,85,124.0
1689,C2,122.0,0.25,78,124.0
1690,E-3,122.008,133/1000,74,124.0
1691,C5,122.417,1.0,110,124.0
1692,C5,122.467,1.0,66,124.0
1693,C5,122.483,917/1000,87,124.0
1694,B-2,122.492,9/20,75,124.0
1695,C5,122.5,1.0,84,124.0
1696,C#2,122.5,1.0,84,124.0
1697,E-3,122.5,3/20,94,124.0
1698,D4,122.5,117/1000,99,124.0
1699,C5,122.5,123/250,93,124.0
1700,G4,122.5,123/250,93,124.0
1701,E-4,122.5,123/250,93,124.0
1702,C7,122.5,1.0,42,124.0
1703,C6,122.5,1.0,42,124.0
1704,F2,122.992,9/20,70,124.0
1705,E-3,123.0,3/20,77,124.0
1706,B-4,123.417,583/1000,110,124.0
1707,B-4,123.467,533/1000,66,124.0
1708,E-3,123.475,117/1000,85,124.0
1709,B-4,123.483,517/1000,87,124.0
1710,G2,123.492,127/250,60,124.0
1711,B-4,123.5,0.5,84,124.0
1712,C2,123.5,0.25,78,124.0
1713,E4,123.5,117/1000,89,124.0
1714,G4,123.5,0.5,93,124.0
1715,B-4,123.5,0.5,93,124.0
1716,D4,123.5,0.5,93,124.0
1717,B-6,123.5,0.5,42,124.0
1718,B-5,123.5,0.5,42,124.0
1719,G2,124.0,51/40,60,124.0
1720,B-4,124.0,0.5,84,124.0
1721,B-4,124.0,467/1000,66,124.0
1722,B-4,124.0,417/1000,110,124.0
1723,B-4,124.0,2/5,87,124.0
1724,C2,124.0,0.25,78,124.0
1725,E-3,124.0,0.25,89,124.0
1726,E-4,124.0,117/1000,89,124.0
1727,G4,124.0,13/40,93,124.0
1728,B-4,124.0,13/40,93,124.0
1729,D4,124.0,13/40,93,124.0
1730,G4,124.417,1.0,110,124.0
1731,G4,124.467,1.0,66,124.0
1732,G4,124.483,917/1000,87,124.0
1733,G4,124.5,1.0,84,124.0
1734,C#2,124.5,1.0,84,124.0
1735,E-3,124.5,0.25,74,124.0
1736,E-4,124.5,117/1000,89,124.0
1737,B-3,124.5,123/250,93,124.0
1738,D4,124.5,123/250,93,124.0
1739,G4,124.5,123/250,93,124.0
1740,B-6,124.5,0.5,42,124.0
1741,B-5,124.5,0.5,42,124.0
1742,E-3,125.0,0.25,89,124.0
1743,D4,125.0,117/1000,89,124.0
1744,G6,125.0,1.0,42,124.0
1745,G5,125.0,1.0,42,124.0
1746,E1,125.367,3/40,50,124.0
1747,D4,125.417,1.0,110,124.0
1748,D4,125.467,1.0,66,124.0
1749,D4,125.483,917/1000,87,124.0
1750,D2,125.492,367/1000,60,124.0
1751,G3,125.5,2.25,93,124.0
1752,D4,125.5,1.0,93,124.0
1753,B-3,125.5,73/40,93,124.0
1754,D4,125.5,1.0,84,124.0
1755,C2,125.5,0.25,78,124.0
1756,E-3,125.5,0.25,79,124.0
1757,E-3,125.75,0.25,74,124.0
1758,G1,125.992,227/250,85,124.0
1759,C2,126.0,0.25,78,124.0
1760,G3,126.0,0.25,116,124.0
1761,D6,126.0,1.0,42,124.0
1762,D5,126.0,1.0,42,124.0
1763,E-4,126.417,0.5,110,124.0
1764,E-4,126.467,0.5,66,124.0
1765,E-4,126.483,417/1000,87,124.0
1766,E-4,126.5,123/250,93,124.0
1767,E-4,126.5,0.5,84,124.0
1768,E-3,126.5,0.25,74,124.0
1769,D4,126.5,117/1000,89,124.0
1770,D4,126.917,0.5,110,124.0
1771,D4,126.967,0.5,66,124.0
1772,D4,126.983,417/1000,87,124.0
1773,B-1,126.992,227/250,85,124.0
1774,D4,127.0,0.5,93,124.0
1775,D4,127.0,0.5,84,124.0
1776,D2,127.0,1.0,92,124.0
1777,E-3,127.0,0.25,89,124.0
1778,E4,127.0,117/1000,89,124.0
1779,E-6,127.0,0.5,42,124.0
1780,E-5,127.0,0.5,42,124.0
1781,B-3,127.417,0.5,110,124.0
1782,B-3,127.467,0.5,66,124.0
1783,B-3,127.483,417/1000,87,124.0
1784,B-3,127.5,0.25,93,124.0
1785,B-3,127.5,0.5,84,124.0
1786,E-3,127.5,0.25,74,124.0
1787,E4,127.5,117/1000,89,124.0
1788,D6,127.5,0.5,42,124.0
1789,D5,127.5,0.5,42,124.0
1790,G4,127.867,4.0,46,124.0
1791,F4,127.867,4.0,46,124.0
1792,C4,127.867,4.0,46,124.0
1793,D4,127.867,4.0,46,124.0
1794,B-3,127.867,4.0,46,124.0
1795,C4,127.917,83/1000,110,124.0
1796,C4,127.967,33/1000,66,124.0
1797,C4,127.983,17/1000,87,124.0
1798,G#1,127.992,1/125,85,124.0
1799,G#1,128.0,1367/1000,85,124.0
1800,C4,128.0,1.0,84,124.0
1801,C4,128.0,967/1000,66,124.0
1802,C4,128.0,917/1000,110,124.0
1803,C4,128.0,9/10,87,124.0
1804,C2,128.0,0.25,78,124.0
1805,E-3,128.0,0.25,89,124.0
1806,A4,128.0,117/1000,73,124.0
1807,G#3,128.0,93/40,93,124.0
1808,C4,128.0,93/40,93,124.0
1809,B-5,128.0,0.5,42,124.0
1810,B-4,128.0,0.5,42,124.0
1811,A4,128.25,117/1000,48,124.0
1812,E-3,128.5,0.25,74,124.0
1813,A4,128.5,117/1000,73,124.0
1814,C6,128.5,1.0,42,124.0
1815,C5,128.5,1.0,42,124.0
1816,A4,128.75,117/1000,48,124.0
1817,E-4,128.917,0.5,110,124.0
1818,E-4,128.967,0.5,66,124.0
1819,E-4,128.983,417/1000,87,124.0
1820,E-4,129.0,53/40,93,124.0
1821,E-4,129.0,0.5,84,124.0
1822,C#2,129.0,1.0,84,124.0
1823,E-3,129.0,0.25,89,124.0
1824,D4,129.0,117/1000,89,124.0
1825,A4,129.0,117/1000,73,124.0
1826,A4,129.25,117/1000,24,124.0
1827,E1,129.367,3/40,50,124.0
1828,G4,129.417,124/125,110,124.0
1829,G4,129.467,124/125,66,124.0
1830,G4,129.483,917/1000,87,124.0
1831,G#1,129.492,367/1000,60,124.0
1832,G4,129.5,33/40,93,124.0
1833,G4,129.5,1.0,84,124.0
1834,C2,129.5,0.25,78,124.0
1835,E-3,129.5,0.25,74,124.0
1836,E-6,129.5,0.5,42,124.0
1837,E-5,129.5,0.5,42,124.0
1838,G#1,129.992,1.375,85,124.0
1839,C2,130.0,0.25,78,124.0
1840,E-3,130.0,0.25,89,124.0
1841,G6,130.0,124/125,42,124.0
1842,G5,130.0,124/125,42,124.0
1843,C5,130.417,124/125,110,124.0
1844,C5,130.467,124/125,66,124.0
1845,C5,130.483,917/1000,87,124.0
1846,C5,130.5,1.0,84,124.0
1847,C#2,130.5,1.0,84,124.0
1848,E-3,130.5,0.25,74,124.0
1849,D4,130.5,117/1000,89,124.0
1850,G4,130.5,0.5,93,124.0
1851,E-4,130.5,0.5,93,124.0
1852,C5,130.5,0.5,93,124.0
1853,E-3,131.0,0.25,89,124.0
1854,E4,131.0,117/1000,89,124.0
1855,C7,131.0,124/125,42,124.0
1856,C6,131.0,124/125,42,124.0
1857,E1,131.367,3/40,50,124.0
1858,D5,131.417,583/1000,110,124.0
1859,D5,131.467,533/1000,66,124.0
1860,D5,131.483,517/1000,87,124.0
1861,E-2,131.492,127/250,60,124.0
1862,D5,131.5,0.5,84,124.0
1863,C2,131.5,0.25,78,124.0
1864,E-3,131.5,0.25,74,124.0
1865,E-4,131.5,117/1000,89,124.0
1866,D5,131.5,0.5,93,124.0
1867,B-4,131.5,0.5,93,124.0
1868,F4,131.5,0.5,93,124.0
1869,E-2,132.0,51/40,60,124.0
1870,D5,132.0,0.5,84,124.0
1871,D5,132.0,467/1000,66,124.0
1872,D5,132.0,417/1000,110,124.0
1873,D5,132.0,2/5,87,124.0
1874,C2,132.0,0.25,78,124.0
1875,E-3,132.0,0.25,89,124.0
1876,D5,132.0,13/40,93,124.0
1877,B-4,132.0,13/40,93,124.0
1878,F4,132.0,13/40,93,124.0
1879,D7,132.0,0.5,42,124.0
1880,D6,132.0,0.5,42,124.0
1881,B-4,132.417,1.0,110,124.0
1882,B-4,132.467,1.0,66,124.0
1883,B-4,132.483,917/1000,87,124.0
1884,B-4,132.5,1.0,84,124.0
1885,C#2,132.5,1.0,84,124.0
1886,E-3,132.5,0.25,74,124.0
1887,D4,132.5,117/1000,89,124.0
1888,D4,132.5,0.5,93,124.0
1889,G4,132.5,0.5,93,124.0
1890,B-4,132.5,0.5,93,124.0
1891,D7,132.5,0.5,42,124.0
1892,D6,132.5,0.5,42,124.0
1893,E-3,133.0,0.25,89,124.0
1894,E4,133.0,117/1000,89,124.0
1895,B-6,133.0,1.0,42,124.0
1896,B-5,133.0,1.0,42,124.0
1897,E1,133.367,3/40,50,124.0
1898,G4,133.417,621/500,110,124.0
1899,G4,133.467,621/500,66,124.0
1900,G4,133.483,579/500,81,124.0
1901,E-2,133.492,367/1000,60,124.0
1902,G4,133.5,621/500,78,124.0
1903,C2,133.5,0.25,78,124.0
1904,E-3,133.5,0.25,74,124.0
1905,E4,133.5,117/1000,89,124.0
1906,D4,133.5,53/40,93,124.0
1907,G4,133.5,53/40,93,124.0
1908,B-3,133.5,53/40,93,124.0
1909,B-1,133.992,227/250,85,124.0
1910,C2,134.0,0.25,78,124.0
1911,C#2,134.0,1.0,84,124.0
1912,E-3,134.0,0.25,89,124.0
1913,E-4,134.0,117/1000,89,124.0
1914,G6,134.0,621/500,42,124.0
1915,G5,134.0,621/500,42,124.0
1916,E-3,134.5,0.25,79,124.0
1917,E-3,134.75,0.25,74,124.0
1918,C5,134.917,0.5,110,124.0
1919,C5,134.967,0.5,66,124.0
1920,C5,134.983,417/1000,87,124.0
1921,E-2,134.992,33/40,85,124.0
1922,C5,135.0,0.5,84,124.0
1923,E-3,135.0,0.25,89,124.0
1924,D4,135.0,117/1000,89,124.0
1925,F#3,135.0,117/1000,116,124.0
1926,G4,135.0,0.5,93,124.0
1927,C5,135.0,0.5,93,124.0
1928,D5,135.417,0.5,110,124.0
1929,D5,135.467,0.5,66,124.0
1930,D5,135.483,417/1000,87,124.0
1931,D5,135.5,13/40,93,124.0
1932,D5,135.5,0.5,84,124.0
1933,E-3,135.5,0.25,74,124.0
1934,C7,135.5,0.5,42,124.0
1935,C6,135.5,0.5,42,124.0
1936,E-5,135.917,83/1000,110,124.0
1937,E-5,135.967,33/1000,66,124.0
1938,E-5,135.983,17/1000,87,124.0
1939,F1,135.992,1/125,85,124.0
1940,F1,136.0,1367/1000,85,124.0
1941,E-5,136.0,1.0,84,124.0
1942,E-5,136.0,967/1000,66,124.0
1943,E-5,136.0,917/1000,110,124.0
1944,E-5,136.0,9/10,87,124.0
1945,C2,136.0,0.25,78,124.0
1946,E-3,136.0,0.25,89,124.0
1947,A4,136.0,117/1000,73,124.0
1948,G4,136.0,33/40,93,124.0
1949,C5,136.0,33/40,93,124.0
1950,E-5,136.0,33/40,93,124.0
1951,D7,136.0,0.5,42,124.0
1952,D6,136.0,0.5,42,124.0
1953,A4,136.25,117/1000,48,124.0
1954,E-3,136.5,0.25,74,124.0
1955,A4,136.5,117/1000,73,124.0
1956,E-7,136.5,1.0,42,124.0
1957,E-6,136.5,1.0,42,124.0
1958,A4,136.75,117/1000,48,124.0
1959,D5,136.917,0.5,110,124.0
1960,D5,136.967,0.5,66,124.0
1961,D5,136.983,417/1000,87,124.0
1962,D5,137.0,0.5,84,124.0
1963,C#2,137.0,1.0,84,124.0
1964,E-3,137.0,0.25,89,124.0
1965,D4,137.0,117/1000,89,124.0
1966,A4,137.0,117/1000,73,124.0
1967,D5,137.0,13/40,93,124.0
1968,F4,137.0,13/40,93,124.0
1969,B-4,137.0,13/40,93,124.0
1970,A4,137.25,117/1000,24,124.0
1971,E1,137.367,3/40,50,124.0
1972,C5,137.417,1.0,110,124.0
1973,C5,137.467,1.0,66,124.0
1974,C5,137.483,917/1000,81,124.0
1975,C2,137.492,124/125,60,124.0
1976,C5,137.5,1.0,78,124.0
1977,C2,137.5,0.25,78,124.0
1978,E-3,137.5,0.25,74,124.0
1979,C5,137.5,0.75,93,124.0
1980,G4,137.5,0.75,93,124.0
1981,E-4,137.5,0.75,93,124.0
1982,D7,137.5,0.5,42,124.0
1983,D6,137.5,0.5,42,124.0
1984,C2,138.0,0.25,78,124.0
1985,E-3,138.0,0.25,89,124.0
1986,C7,138.0,1.0,42,124.0
1987,C6,138.0,1.0,42,124.0
1988,B-4,138.417,1.0,110,124.0
1989,B-4,138.467,1.0,66,124.0
1990,B-4,138.483,917/1000,87,124.0
1991,F1,138.492,417/1000,85,124.0
1992,B-4,138.5,1.0,84,124.0
1993,C#2,138.5,1.0,84,124.0
1994,E-3,138.5,0.25,74,124.0
1995,D4,138.5,117/1000,89,124.0
1996,D4,138.5,0.75,93,124.0
1997,F4,138.5,0.75,93,124.0
1998,B-4,138.5,0.75,93,124.0
1999,F#1,138.992,123/250,85,124.0
2000,E-3,139.0,0.25,89,124.0
2001,E4,139.0,117/1000,89,124.0
2002,B-6,139.0,1.0,42,124.0
2003,B-5,139.0,1.0,42,124.0
2004,G4,139.417,583/1000,110,124.0
2005,G4,139.467,533/1000,66,124.0
2006,G4,139.483,517/1000,87,124.0
2007,G1,139.492,127/250,85,124.0
2008,D4,139.5,0.5,93,124.0
2009,G4,139.5,0.5,84,124.0
2010,C2,139.5,0.25,78,124.0
2011,E-3,139.5,0.25,74,124.0
2012,E-4,139.5,117/1000,89,124.0
2013,B-3,139.5,0.5,93,124.0
2014,G4,139.5,0.5,93,124.0
2015,D4,140.0,13/40,93,124.0
2016,G1,140.0,51/40,85,124.0
2017,G4,140.0,0.5,84,124.0
2018,G4,140.0,467/1000,66,124.0
2019,G4,140.0,417/1000,110,124.0
2020,G4,140.0,2/5,87,124.0
2021,C2,140.0,0.25,78,124.0
2022,E-3,140.0,0.25,89,124.0
2023,B-3,140.0,53/40,93,124.0
2024,G4,140.0,53/40,93,124.0
2025,G6,140.0,0.5,42,124.0
2026,G5,140.0,0.5,42,124.0
2027,E-4,140.417,1.0,110,124.0
2028,E-4,140.467,1.0,66,124.0
2029,E-4,140.483,917/1000,87,124.0
2030,E-4,140.5,33/40,93,124.0
2031,E-4,140.5,1.0,84,124.0
2032,C#2,140.5,1.0,84,124.0
2033,E-3,140.5,0.25,74,124.0
2034,D4,140.5,117/1000,89,124.0
2035,E-3,141.0,0.25,89,124.0
2036,E-4,141.0,117/1000,89,124.0
2037,G6,141.0,0.5,42,124.0
2038,G5,141.0,0.5,42,124.0
2039,E1,141.367,3/40,50,124.0
2040,F4,141.417,1.5,110,124.0
2041,F4,141.467,1.5,66,124.0
2042,F4,141.483,1417/1000,87,124.0
2043,D2,141.492,367/1000,60,124.0
2044,F4,141.5,1.5,93,124.0
2045,F4,141.5,1.5,84,124.0
2046,C2,141.5,0.25,78,124.0
2047,E-3,141.5,0.25,74,124.0
2048,E4,141.5,117/1000,89,124.0
2049,D4,141.5,2.25,93,124.0
2050,B-3,141.5,2.25,93,124.0
2051,E-6,141.5,1.0,42,124.0
2052,E-5,141.5,1.0,42,124.0
2053,D2,141.992,227/250,85,124.0
2054,C2,142.0,0.25,78,124.0
2055,C#2,142.0,1.0,84,124.0
2056,G3,142.0,0.25,116,124.0
2057,E-4,142.0,117/1000,89,124.0
2058,E-4,142.167,117/1000,89,124.0
2059,E-3,142.5,0.25,74,124.0
2060,E-4,142.5,117/1000,89,124.0
2061,F6,142.5,1.5,42,124.0
2062,F5,142.5,1.5,42,124.0
2063,B-4,142.917,1.0,110,124.0
2064,B-4,142.967,1.0,66,124.0
2065,B-4,142.983,917/1000,87,124.0
2066,G1,142.992,227/250,85,124.0
2067,B-4,143.0,371/500,93,124.0
2068,B-4,143.0,1.0,84,124.0
2069,D2,143.0,1.0,92,124.0
2070,E-3,143.0,0.25,89,124.0
2071,E-4,143.0,117/1000,89,124.0
2072,E-3,143.5,0.25,74,124.0
2073,E4,143.5,117/1000,89,124.0
2074,G4,143.833,4.0,46,124.0
2075,F4,143.833,4.0,46,124.0
2076,C4,143.833,4.0,46,124.0
2077,D4,143.833,4.0,46,124.0
2078,B-3,143.833,4.0,46,124.0
2079,D4,143.917,83/1000,110,124.0
2080,D4,143.967,33/1000,66,124.0
2081,D4,143.983,17/1000,87,124.0
2082,G#1,143.992,1/125,85,124.0
2083,G#1,144.0,1367/1000,85,124.0
2084,D4,144.0,373/250,84,124.0
2085,D4,144.0,467/1000,66,124.0
2086,D4,144.0,417/1000,110,124.0
2087,D4,144.0,174/125,87,124.0
2088,C2,144.0,0.25,78,124.0
2089,E-3,144.0,0.25,89,124.0
2090,E-4,144.0,117/1000,89,124.0
2091,A4,144.0,117/1000,73,124.0
2092,B-3,144.0,53/40,93,124.0
2093,D4,144.0,53/40,93,124.0
2094,F3,144.0,53/40,93,124.0
2095,B-6,144.0,1.0,42,124.0
2096,B-5,144.0,1.0,42,124.0
2097,A4,144.25,117/1000,48,124.0
2098,E-4,144.417,0.5,110,124.0
2099,E-4,144.467,0.5,66,124.0
2100,E-3,144.5,0.25,74,124.0
2101,A4,144.5,117/1000,73,124.0
2102,A4,144.75,117/1000,48,124.0
2103,D4,144.917,0.5,110,124.0
2104,D4,144.967,0.5,66,124.0
2105,C#2,145.0,1.0,84,124.0
2106,E-3,145.0,0.25,89,124.0
2107,D4,145.0,117/1000,89,124.0
2108,A4,145.0,117/1000,73,124.0
2109,D6,145.0,0.5,42,124.0
2110,D5,145.0,0.5,42,124.0
2111,A4,145.25,117/1000,24,124.0
2112,E1,145.367,3/40,50,124.0
2113,C4,145.417,2583/1000,110,124.0
2114,C4,145.467,2533/1000,66,124.0
2115,C4,145.483,2517/1000,75,124.0
2116,G#2,145.492,227/250,60,124.0
2117,E-4,145.5,33/40,93,124.0
2118,C4,145.5,2.5,72,124.0
2119,C2,145.5,0.25,78,124.0
2120,E-3,145.5,0.25,74,124.0
2121,C4,145.5,1.75,93,124.0
2122,G#3,145.5,1.75,93,124.0
2123,E-6,145.5,0.5,42,124.0
2124,E-5,145.5,0.5,42,124.0
2125,C2,146.0,0.25,78,124.0
2126,E-3,146.0,0.25,89,124.0
2127,D6,146.0,0.5,42,124.0
2128,D5,146.0,0.5,42,124.0
2129,G#1,146.492,367/1000,85,124.0
2130,E-4,146.5,0.75,93,124.0
2131,C#2,146.5,1.0,84,124.0
2132,E-3,146.5,0.25,74,124.0
2133,D4,146.5,117/1000,89,124.0
2134,C6,146.5,2.5,42,124.0
2135,C5,146.5,2.5,42,124.0
2136,E-2,146.992,367/1000,75,124.0
2137,E-3,147.0,0.25,89,124.0
2138,E4,147.0,117/1000,89,124.0
2139,G#1,147.492,127/250,60,124.0
2140,D4,147.5,0.5,93,124.0
2141,C2,147.5,0.25,78,124.0
2142,E-3,147.5,0.25,74,124.0
2143,E-4,147.5,117/1000,89,124.0
2144,B-3,147.5,0.5,93,124.0
2145,F3,147.5,0.5,93,124.0
2146,D4,148.0,0.5,93,124.0
2147,G#1,148.0,1233/1000,60,124.0
2148,C4,148.0,3.0,72,124.0
2149,C4,148.0,467/1000,66,124.0
2150,C4,148.0,417/1000,110,124.0
2151,C4,148.0,29/10,75,124.0
2152,C2,148.0,0.25,78,124.0
2153,E-3,148.0,0.25,89,124.0
2154,B-3,148.0,53/40,93,124.0
2155,F3,148.0,53/40,93,124.0
2156,F4,148.5,33/40,93,124.0
2157,C#2,148.5,1.0,84,124.0
2158,E-3,148.5,0.25,79,124.0
2159,D4,148.5,117/1000,89,124.0
2160,E-5,148.5,117/1000,64,124.0
2161,E-3,148.75,0.25,74,124.0
2162,E-5,148.75,117/1000,64,124.0
2163,E-3,149.0,0.25,89,124.0
2164,E4,149.0,117/1000,89,124.0
2165,E-5,149.0,117/1000,64,124.0
2166,E1,149.367,3/40,50,124.0
2167,E-2,149.492,123/250,60,124.0
2168,C2,149.5,0.25,78,124.0
2169,E-3,149.5,0.25,74,124.0
2170,E4,149.5,117/1000,89,124.0
2171,E-5,149.5,117/1000,64,124.0
2172,C#6,149.5,117/1000,94,124.0
2173,C4,149.5,2.25,93,124.0
2174,E-4,149.5,2.25,93,124.0
2175,G#3,149.5,2.25,93,124.0
2176,C6,149.5,0.5,42,124.0
2177,C5,149.5,0.5,42,124.0
2178,C#6,149.625,117/1000,74,124.0
2179,C#6,149.75,117/1000,84,124.0
2180,C#6,149.875,117/1000,74,124.0
2181,G2,149.992,417/1000,85,124.0
2182,C2,150.0,0.25,78,124.0
2183,E-3,150.0,0.25,89,124.0
2184,E-4,150.0,117/1000,89,124.0
2185,E-5,150.0,117/1000,64,124.0
2186,C#6,150.0,117/1000,104,124.0
2187,F2,150.492,2/5,85,124.0
2188,E-3,150.5,0.25,74,124.0
2189,D4,150.5,117/1000,89,124.0
2190,C#6,150.5,117/1000,74,124.0
2191,E-4,150.917,0.5,110,124.0
2192,E-4,150.967,0.5,66,124.0
2193,E-4,150.983,417/1000,127,124.0
2194,E-2,150.992,417/1000,85,124.0
2195,E-4,151.0,0.5,124,124.0
2196,F2,151.0,1.0,104,124.0
2197,E-3,151.0,0.25,89,124.0
2198,C#6,151.0,117/1000,104,124.0
2199,D4,151.417,0.5,110,124.0
2200,D4,151.467,0.5,66,124.0
2201,D4,151.483,417/1000,127,124.0
2202,D2,151.492,123/250,60,124.0
2203,D4,151.5,0.5,124,124.0
2204,E-3,151.5,0.25,74,124.0
2205,D4,151.5,117/1000,89,124.0
2206,C4,151.917,83/1000,110,124.0
2207,C4,151.967,33/1000,66,124.0
2208,C4,151.983,17/1000,127,124.0
2209,C2,151.992,1/125,85,124.0
2210,C2,152.0,1367/1000,85,124.0
2211,C4,152.0,1.0,124,124.0
2212,C4,152.0,967/1000,66,124.0
2213,C4,152.0,917/1000,110,124.0
2214,C4,152.0,9/10,127,124.0
2215,C2,152.0,0.25,78,124.0
2216,C#3,152.0,0.25,111,124.0
2217,A4,152.0,117/1000,73,124.0
2218,C4,152.0,93/40,93,124.0
2219,G3,152.0,93/40,93,124.0
2220,A4,152.25,117/1000,48,124.0
2221,E-3,152.5,0.25,74,124.0
2222,A4,152.5,117/1000,73,124.0
2223,E-6,152.5,0.5,42,124.0
2224,E-5,152.5,0.5,42,124.0
2225,A4,152.75,117/1000,48,124.0
2226,E-4,152.917,123/250,110,124.0
2227,E-4,152.967,123/250,66,124.0
2228,E-4,152.983,51/125,127,124.0
2229,E-4,153.0,53/40,93,124.0
2230,E-4,153.0,123/250,124,124.0
2231,C#2,153.0,1.0,84,124.0
2232,E-3,153.0,0.25,89,124.0
2233,D4,153.0,117/1000,89,124.0
2234,A4,153.0,117/1000,73,124.0
2235,D6,153.0,0.5,42,124.0
2236,D5,153.0,0.5,42,124.0
2237,A4,153.25,117/1000,24,124.0
2238,E1,153.367,3/40,50,124.0
2239,G4,153.417,1.0,110,124.0
2240,G4,153.467,1.0,66,124.0
2241,G4,153.483,917/1000,117,124.0
2242,C3,153.492,367/1000,60,124.0
2243,G4,153.5,33/40,93,124.0
2244,G4,153.5,1.0,114,124.0
2245,C2,153.5,0.25,78,124.0
2246,E-3,153.5,0.25,74,124.0
2247,C6,153.5,1.0,42,124.0
2248,C5,153.5,1.0,42,124.0
2249,C3,153.992,123/250,85,124.0
2250,C2,154.0,0.25,78,124.0
2251,E-3,154.0,0.25,89,124.0
2252,C5,154.417,1.0,110,124.0
2253,C5,154.467,1.0,66,124.0
2254,C5,154.483,917/1000,127,124.0
2255,B-2,154.492,123/250,85,124.0
2256,C5,154.5,1.0,124,124.0
2257,C#2,154.5,1.0,84,124.0
2258,E-3,154.5,0.25,74,124.0
2259,D4,154.5,117/1000,89,124.0
2260,C5,154.5,123/250,93,124.0
2261,G4,154.5,123/250,93,124.0
2262,E-4,154.5,123/250,93,124.0
2263,E-6,154.5,123/250,42,124.0
2264,E-5,154.5,123/250,42,124.0
2265,F2,154.992,123/250,70,124.0
2266,E-3,155.0,0.25,89,124.0
2267,E4,155.0,117/1000,89,124.0
2268,G6,155.0,1.0,42,124.0
2269,G5,155.0,1.0,42,124.0
2270,B-4,155.417,583/1000,110,124.0
2271,B-4,155.467,533/1000,66,124.0
2272,B-4,155.483,517/1000,127,124.0
2273,G2,155.492,127/250,60,124.0
2274,B-4,155.5,0.5,124,124.0
2275,C2,155.5,0.25,78,124.0
2276,E-3,155.5,0.25,74,124.0
2277,E-4,155.5,117/1000,89,124.0
2278,G4,155.5,0.5,93,124.0
2279,B-4,155.5,0.5,93,124.0
2280,D4,155.5,0.5,93,124.0
2281,G4,155.8,4.0,46,124.0
2282,F4,155.8,4.0,46,124.0
2283,C4,155.8,4.0,46,124.0
2284,D4,155.8,4.0,46,124.0
2285,B-3,155.8,4.0,46,124.0
2286,G2,156.0,1233/1000,60,124.0
2287,B-4,156.0,0.5,124,124.0
2288,B-4,156.0,467/1000,66,124.0
2289,B-4,156.0,417/1000,110,124.0
2290,B-4,156.0,2/5,127,124.0
2291,C2,156.0,0.25,78,124.0
2292,E-3,156.0,0.25,89,124.0
2293,G4,156.0,121/500,93,124.0
2294,B-4,156.0,121/500,93,124.0
2295,D4,156.0,121/500,93,124.0
2296,C7,156.0,1.0,42,124.0
2297,C6,156.0,1.0,42,124.0
2298,G4,156.417,1.0,110,124.0
2299,G4,156.467,1.0,66,124.0
2300,G4,156.483,917/1000,127,124.0
2301,G4,156.5,1.0,124,124.0
2302,C#2,156.5,1.0,84,124.0
2303,E-3,156.5,0.25,74,124.0
2304,D4,156.5,117/1000,89,124.0
2305,B-3,156.5,123/250,93,124.0
2306,D4,156.5,123/250,93,124.0
2307,G4,156.5,123/250,93,124.0
2308,E-3,157.0,0.25,89,124.0
2309,E-4,157.0,117/1000,89,124.0
2310,B-6,157.0,0.5,42,124.0
2311,B-5,157.0,0.5,42,124.0
2312,E1,157.367,3/40,50,124.0
2313,D4,157.417,1.0,110,124.0
2314,D4,157.467,1.0,66,124.0
2315,D4,157.483,917/1000,127,124.0
2316,D2,157.492,367/1000,60,124.0
2317,G3,157.5,2.25,93,124.0
2318,D4,157.5,1.0,93,124.0
2319,B-3,157.5,73/40,93,124.0
2320,D4,157.5,1.0,124,124.0
2321,C2,157.5,0.25,78,124.0
2322,E-3,157.5,0.25,79,124.0
2323,E4,157.5,117/1000,89,124.0
2324,B-6,157.5,0.5,42,124.0
2325,B-5,157.5,0.5,42,124.0
2326,E-3,157.75,0.25,74,124.0
2327,G1,157.992,227/250,85,124.0
2328,C2,158.0,0.25,78,124.0
2329,C#2,158.0,1.0,84,124.0
2330,G3,158.0,0.25,116,124.0
2331,E-4,158.0,117/1000,89,124.0
2332,G6,158.0,1.0,42,124.0
2333,G5,158.0,1.0,42,124.0
2334,E-4,158.417,0.5,110,124.0
2335,E-4,158.467,0.5,66,124.0
2336,E-4,158.483,417/1000,117,124.0
2337,E-4,158.5,123/250,93,124.0
2338,E-4,158.5,0.5,114,124.0
2339,E-3,158.5,0.25,74,124.0
2340,D4,158.917,0.5,110,124.0
2341,D4,158.967,0.5,66,124.0
2342,D4,158.983,417/1000,127,124.0
2343,B-1,158.992,227/250,85,124.0
2344,D4,159.0,0.5,93,124.0
2345,D4,159.0,0.5,124,124.0
2346,D2,159.0,1.0,92,124.0
2347,E-3,159.0,0.25,89,124.0
2348,D4,159.0,117/1000,89,124.0
2349,D6,159.0,1.0,42,124.0
2350,D5,159.0,1.0,42,124.0
2351,B-3,159.417,0.5,110,124.0
2352,B-3,159.467,0.5,66,124.0
2353,B-3,159.483,417/1000,127,124.0
2354,B-3,159.5,0.25,93,124.0
2355,B-3,159.5,0.5,124,124.0
2356,E-3,159.5,0.25,74,124.0
2357,C4,159.917,83/1000,110,124.0
2358,C4,159.967,33/1000,66,124.0
2359,C4,159.983,17/1000,127,124.0
2360,G#1,159.992,1/125,85,124.0
2361,G#1,160.0,1367/1000,85,124.0
2362,C4,160.0,1.0,124,124.0
2363,C4,160.0,967/1000,66,124.0
2364,C4,160.0,917/1000,110,124.0
2365,C4,160.0,9/10,127,124.0
2366,C2,160.0,0.25,78,124.0
2367,E-3,160.0,0.25,89,124.0
2368,A4,160.0,117/1000,73,124.0
2369,G#3,160.0,93/40,93,124.0
2370,C4,160.0,93/40,93,124.0
2371,E-6,160.0,0.5,42,124.0
2372,E-5,160.0,0.5,42,124.0
2373,A4,160.25,117/1000,48,124.0
2374,E-3,160.5,0.25,74,124.0
2375,A4,160.5,117/1000,73,124.0
2376,D6,160.5,0.5,42,124.0
2377,D5,160.5,0.5,42,124.0
2378,A4,160.75,117/1000,48,124.0
2379,E-4,160.917,0.5,110,124.0
2380,E-4,160.967,0.5,66,124.0
2381,E-4,160.983,417/1000,127,124.0
2382,E-4,161.0,53/40,93,124.0
2383,E-4,161.0,0.5,124,124.0
2384,C#2,161.0,1.0,84,124.0
2385,E-3,161.0,0.25,89,124.0
2386,D4,161.0,117/1000,89,124.0
2387,A4,161.0,117/1000,73,124.0
2388,B-5,161.0,0.5,42,124.0
2389,B-4,161.0,0.5,42,124.0
2390,A4,161.25,117/1000,24,124.0
2391,E1,161.367,3/40,50,124.0
2392,G4,161.417,1.0,110,124.0
2393,G4,161.467,1.0,66,124.0
2394,G4,161.483,917/1000,127,124.0
2395,G#2,161.492,367/1000,60,124.0
2396,G4,161.5,33/40,93,124.0
2397,G4,161.5,1.0,124,124.0
2398,C2,161.5,0.25,78,124.0
2399,E-3,161.5,0.25,74,124.0
2400,C6,161.5,1.0,42,124.0
2401,C5,161.5,1.0,42,124.0
2402,G#2,161.992,124/125,85,124.0
2403,C2,162.0,0.25,78,124.0
2404,E-3,162.0,0.25,89,124.0
2405,C5,162.417,1.0,110,124.0
2406,C5,162.467,1.0,66,124.0
2407,C5,162.483,917/1000,127,124.0
2408,C5,162.5,1.0,124,124.0
2409,C#2,162.5,1.0,84,124.0
2410,E-3,162.5,0.25,74,124.0
2411,D4,162.5,117/1000,89,124.0
2412,G4,162.5,0.5,93,124.0
2413,E-4,162.5,0.5,93,124.0
2414,C5,162.5,0.5,93,124.0
2415,E-6,162.5,0.5,42,124.0
2416,E-5,162.5,0.5,42,124.0
2417,D2,162.992,367/1000,85,124.0
2418,E-3,163.0,0.25,89,124.0
2419,E4,163.0,117/1000,89,124.0
2420,G6,163.0,1.0,42,124.0
2421,G5,163.0,1.0,42,124.0
2422,D5,163.417,583/1000,110,124.0
2423,D5,163.467,533/1000,66,124.0
2424,D5,163.483,517/1000,127,124.0
2425,E-2,163.492,127/250,60,124.0
2426,D5,163.5,0.5,124,124.0
2427,C2,163.5,0.25,78,124.0
2428,E-3,163.5,0.25,74,124.0
2429,E-4,163.5,117/1000,89,124.0
2430,D5,163.5,0.5,93,124.0
2431,B-4,163.5,0.5,93,124.0
2432,F4,163.5,0.5,93,124.0
2433,G4,163.767,3967/1000,46,124.0
2434,F4,163.767,3967/1000,46,124.0
2435,C4,163.767,3967/1000,46,124.0
2436,D4,163.767,3967/1000,46,124.0
2437,B-3,163.767,3967/1000,46,124.0
2438,E-2,164.0,1233/1000,60,124.0
2439,D5,164.0,0.5,124,124.0
2440,D5,164.0,467/1000,66,124.0
2441,D5,164.0,417/1000,110,124.0
2442,D5,164.0,2/5,127,124.0
2443,C2,164.0,0.25,78,124.0
2444,E-3,164.0,0.25,89,124.0
2445,D5,164.0,0.25,93,124.0
2446,B-4,164.0,0.25,93,124.0
2447,F4,164.0,0.25,93,124.0
2448,C7,164.0,1.0,42,124.0
2449,C6,164.0,1.0,42,124.0
2450,B-4,164.417,1.0,110,124.0
2451,B-4,164.467,1.0,66,124.0
2452,B-4,164.483,917/1000,127,124.0
2453,B-4,164.5,1.0,124,124.0
2454,C#2,164.5,1.0,84,124.0
2455,E-3,164.5,0.25,74,124.0
2456,D4,164.5,117/1000,89,124.0
2457,D4,164.5,0.5,93,124.0
2458,G4,164.5,0.5,93,124.0
2459,B-4,164.5,0.5,93,124.0
2460,E-3,165.0,0.25,89,124.0
2461,E4,165.0,117/1000,89,124.0
2462,D7,165.0,0.5,42,124.0
2463,D6,165.0,0.5,42,124.0
2464,E1,165.367,3/40,50,124.0
2465,G4,165.417,621/500,110,124.0
2466,G4,165.467,621/500,66,124.0
2467,G4,165.483,579/500,127,124.0
2468,E-2,165.492,367/1000,60,124.0
2469,G4,165.5,621/500,124,124.0
2470,C2,165.5,0.25,78,124.0
2471,E-3,165.5,0.25,79,124.0
2472,E4,165.5,117/1000,89,124.0
2473,D4,165.5,53/40,93,124.0
2474,G4,165.5,53/40,93,124.0
2475,B-3,165.5,53/40,93,124.0
2476,E-3,165.75,0.25,74,124.0
2477,B-1,165.992,227/250,85,124.0
2478,C2,166.0,0.25,78,124.0
2479,C#2,166.0,1.0,84,124.0
2480,E-3,166.0,0.25,89,124.0
2481,E-4,166.0,117/1000,89,124.0
2482,D7,166.0,0.5,42,124.0
2483,D6,166.0,0.5,42,124.0
2484,E-3,166.5,0.25,74,124.0
2485,B-6,166.5,1.0,42,124.0
2486,B-5,166.5,1.0,42,124.0
2487,C5,166.917,0.5,110,124.0
2488,C5,166.967,0.5,66,124.0
2489,C5,166.983,417/1000,127,124.0
2490,E-2,166.992,33/40,85,124.0
2491,C5,167.0,0.5,124,124.0
2492,D2,167.0,1.0,92,124.0
2493,E-3,167.0,0.25,89,124.0
2494,D4,167.0,117/1000,89,124.0
2495,F#3,167.0,117/1000,116,124.0
2496,G4,167.0,0.5,93,124.0
2497,C5,167.0,0.5,93,124.0
2498,D5,167.417,0.5,110,124.0
2499,D5,167.467,0.5,66,124.0
2500,D5,167.483,417/1000,127,124.0
2501,D5,167.5,13/40,93,124.0
2502,D5,167.5,0.5,124,124.0
2503,E-3,167.5,0.25,74,124.0
2504,G6,167.5,621/500,42,124.0
2505,G5,167.5,621/500,42,124.0
2506,E-5,167.917,83/1000,110,124.0
2507,E-4,167.958,21/500,89,124.0
2508,E-4,167.958,21/500,89,124.0
2509,E-5,167.967,33/1000,66,124.0
2510,E-5,167.983,17/1000,117,124.0
2511,F1,167.992,1/125,85,124.0
2512,F1,168.0,1367/1000,85,124.0
2513,E-5,168.0,1.0,114,124.0
2514,E-5,168.0,967/1000,66,124.0
2515,E-5,168.0,917/1000,110,124.0
2516,E-5,168.0,9/10,117,124.0
2517,C2,168.0,0.25,78,124.0
2518,E-3,168.0,0.25,89,124.0
2519,A4,168.0,117/1000,73,124.0
2520,G4,168.0,33/40,93,124.0
2521,C5,168.0,33/40,93,124.0
2522,E-5,168.0,33/40,93,124.0
2523,E-4,168.0,3/40,89,124.0
2524,E-4,168.0,3/40,89,124.0
2525,A4,168.25,117/1000,48,124.0
2526,E-3,168.5,0.25,74,124.0
2527,A4,168.5,117/1000,73,124.0
2528,A4,168.75,117/1000,48,124.0
2529,D5,168.917,0.5,110,124.0
2530,D5,168.967,0.5,66,124.0
2531,D5,168.983,417/1000,127,124.0
2532,D5,169.0,0.5,124,124.0
2533,C#2,169.0,1.0,84,124.0
2534,E-3,169.0,0.25,89,124.0
2535,D4,169.0,117/1000,89,124.0
2536,A4,169.0,117/1000,73,124.0
2537,D5,169.0,13/40,93,124.0
2538,F4,169.0,13/40,93,124.0
2539,B-4,169.0,13/40,93,124.0
2540,C7,169.0,0.5,42,124.0
2541,C6,169.0,0.5,42,124.0
2542,A4,169.25,117/1000,24,124.0
2543,E1,169.367,3/40,50,124.0
2544,C5,169.417,1.0,110,124.0
2545,C5,169.467,1.0,66,124.0
2546,C5,169.483,917/1000,127,124.0
2547,C2,169.492,124/125,60,124.0
2548,C5,169.5,1.0,124,124.0
2549,C2,169.5,0.25,78,124.0
2550,E-3,169.5,0.25,74,124.0
2551,C5,169.5,0.75,93,124.0
2552,G4,169.5,0.75,93,124.0
2553,E-4,169.5,0.75,93,124.0
2554,D7,169.5,0.5,42,124.0
2555,D6,169.5,0.5,42,124.0
2556,C2,170.0,0.25,78,124.0
2557,E-3,170.0,0.25,89,124.0
2558,E-7,170.0,1.0,42,124.0
2559,E-6,170.0,1.0,42,124.0
2560,B-4,170.417,1.0,110,124.0
2561,B-4,170.467,1.0,66,124.0
2562,B-4,170.483,917/1000,127,124.0
2563,F1,170.492,2/5,85,124.0
2564,B-4,170.5,1.0,124,124.0
2565,C#2,170.5,1.0,84,124.0
2566,E-3,170.5,0.25,74,124.0
2567,D4,170.5,117/1000,89,124.0
2568,G4,170.5,0.75,93,124.0
2569,D4,170.5,0.75,93,124.0
2570,B-4,170.5,0.75,93,124.0
2571,F#1,170.992,123/250,85,124.0
2572,E-3,171.0,0.25,89,124.0
2573,E4,171.0,117/1000,89,124.0
2574,D7,171.0,0.5,42,124.0
2575,D6,171.0,0.5,42,124.0
2576,G4,171.417,583/1000,110,124.0
2577,G4,171.467,533/1000,66,124.0
2578,G4,171.483,517/1000,117,124.0
2579,G1,171.492,127/250,60,124.0
2580,D4,171.5,0.5,93,124.0
2581,G4,171.5,0.5,114,124.0
2582,C2,171.5,0.25,78,124.0
2583,E-3,171.5,0.25,74,124.0
2584,E-4,171.5,117/1000,89,124.0
2585,B-3,171.5,0.5,93,124.0
2586,G4,171.5,0.5,93,124.0
2587,C7,171.5,1.0,42,124.0
2588,C6,171.5,1.0,42,124.0
2589,D4,172.0,13/40,93,124.0
2590,G1,172.0,1233/1000,60,124.0
2591,G4,172.0,0.5,114,124.0
2592,G4,172.0,467/1000,66,124.0
2593,G4,172.0,417/1000,110,124.0
2594,G4,172.0,2/5,117,124.0
2595,C2,172.0,0.25,78,124.0
2596,E-3,172.0,0.25,89,124.0
2597,B-3,172.0,53/40,93,124.0
2598,G4,172.0,53/40,93,124.0
2599,E-4,172.417,1.0,110,124.0
2600,E-4,172.467,1.0,66,124.0
2601,E-4,172.483,917/1000,117,124.0
2602,E-4,172.5,33/40,93,124.0
2603,E-4,172.5,1.0,114,124.0
2604,C#2,172.5,1.0,84,124.0
2605,E-3,172.5,0.25,74,124.0
2606,D4,172.5,117/1000,89,124.0
2607,B-6,172.5,1.0,42,124.0
2608,B-5,172.5,1.0,42,124.0
2609,E-3,173.0,0.25,89,124.0
2610,E4,173.0,117/1000,89,124.0
2611,E1,173.367,3/40,50,124.0
2612,F4,173.417,1.5,110,124.0
2613,F4,173.467,1.5,66,124.0
2614,F4,173.483,1417/1000,127,124.0
2615,D2,173.492,367/1000,60,124.0
2616,F4,173.5,1.5,93,124.0
2617,F4,173.5,1.5,124,124.0
2618,C2,173.5,0.25,78,124.0
2619,E-3,173.5,0.25,74,124.0
2620,E4,173.5,117/1000,89,124.0
2621,D4,173.5,2.25,93,124.0
2622,B-3,173.5,2.25,93,124.0
2623,G6,173.5,0.5,42,124.0
2624,G5,173.5,0.5,42,124.0
2625,E-4,173.833,117/1000,89,124.0
2626,D2,173.992,227/250,85,124.0
2627,C2,174.0,0.25,78,124.0
2628,C#2,174.0,1.0,84,124.0
2629,G3,174.0,0.25,116,124.0
2630,E-4,174.0,117/1000,89,124.0
2631,E-3,174.5,0.25,79,124.0
2632,E-4,174.5,117/1000,89,124.0
2633,G6,174.5,0.5,42,124.0
2634,G5,174.5,0.5,42,124.0
2635,E-3,174.75,0.25,74,124.0
2636,B-4,174.917,1.0,110,124.0
2637,B-4,174.967,1.0,66,124.0
2638,B-4,174.983,917/1000,127,124.0
2639,G1,174.992,227/250,85,124.0
2640,B-4,175.0,371/500,93,124.0
2641,B-4,175.0,1.0,124,124.0
2642,D2,175.0,1.0,92,124.0
2643,E-3,175.0,0.25,89,124.0
2644,E-6,175.0,1.0,42,124.0
2645,E-5,175.0,1.0,42,124.0
2646,E-3,175.5,0.25,74,124.0
2647,E4,175.5,117/1000,89,124.0
2648,D4,175.917,83/1000,110,124.0
2649,D4,175.967,33/1000,66,124.0
2650,D4,175.983,17/1000,127,124.0
2651,G#1,175.992,1/125,85,124.0
2652,G#1,176.0,1367/1000,85,124.0
2653,D4,176.0,373/250,127,124.0
2654,D4,176.0,467/1000,66,124.0
2655,D4,176.0,417/1000,110,124.0
2656,D4,176.0,174/125,127,124.0
2657,C2,176.0,0.25,78,124.0
2658,E-3,176.0,0.25,89,124.0
2659,A4,176.0,117/1000,73,124.0
2660,B-3,176.0,53/40,93,124.0
2661,D4,176.0,53/40,93,124.0
2662,F3,176.0,53/40,93,124.0
2663,F6,176.0,1.5,42,124.0
2664,F5,176.0,1.5,42,124.0
2665,A4,176.25,117/1000,48,124.0
2666,E-4,176.417,0.5,110,124.0
2667,E-4,176.467,0.5,66,124.0
2668,E-3,176.5,0.25,74,124.0
2669,A4,176.5,117/1000,73,124.0
2670,A4,176.75,117/1000,48,124.0
2671,D4,176.917,0.5,110,124.0
2672,D4,176.967,0.5,66,124.0
2673,C#2,177.0,1.0,84,124.0
2674,E-3,177.0,0.25,89,124.0
2675,D4,177.0,117/1000,89,124.0
2676,A4,177.0,117/1000,73,124.0
2677,A4,177.25,117/1000,24,124.0
2678,E1,177.367,3/40,50,124.0
2679,C4,177.417,2583/1000,110,124.0
2680,C4,177.467,2533/1000,66,124.0
2681,C4,177.483,2517/1000,107,124.0
2682,G#2,177.492,227/250,60,124.0
2683,E-4,177.5,33/40,93,124.0
2684,C4,177.5,2.5,104,124.0
2685,C2,177.5,0.25,78,124.0
2686,E-3,177.5,0.25,74,124.0
2687,C4,177.5,1.75,93,124.0
2688,G#3,177.5,1.75,93,124.0
2689,B-6,177.5,1.0,42,124.0
2690,B-5,177.5,1.0,42,124.0
2691,C2,178.0,0.25,78,124.0
2692,E-3,178.0,0.25,89,124.0
2693,G#2,178.492,123/250,75,124.0
2694,E-4,178.5,0.75,93,124.0
2695,C#2,178.5,1.0,84,124.0
2696,E-3,178.5,0.25,74,124.0
2697,D4,178.5,117/1000,89,124.0
2698,D6,178.5,0.5,42,124.0
2699,D5,178.5,0.5,42,124.0
2700,E-2,178.992,123/250,85,124.0
2701,E-3,179.0,0.25,89,124.0
2702,E4,179.0,117/1000,89,124.0
2703,E-6,179.0,0.5,42,124.0
2704,E-5,179.0,0.5,42,124.0
2705,G#1,179.492,127/250,60,124.0
2706,D4,179.5,0.5,93,124.0
2707,C2,179.5,0.25,78,124.0
2708,E-3,179.5,0.25,74,124.0
2709,E-4,179.5,117/1000,89,124.0
2710,B-3,179.5,0.5,93,124.0
2711,F3,179.5,0.5,93,124.0
2712,D6,179.5,0.5,42,124.0
2713,D5,179.5,0.5,42,124.0
2714,D4,180.0,0.5,93,124.0
2715,G#1,180.0,1233/1000,60,124.0
2716,C4,180.0,3.0,104,124.0
2717,C4,180.0,729/500,66,124.0
2718,C4,180.0,176/125,110,124.0
2719,C4,180.0,29/10,107,124.0
2720,C2,180.0,0.25,78,124.0
2721,E-3,180.0,0.25,89,124.0
2722,B-3,180.0,53/40,93,124.0
2723,F3,180.0,53/40,93,124.0
2724,C6,180.0,2.5,42,124.0
2725,C5,180.0,2.5,42,124.0
2726,F4,180.5,33/40,93,124.0
2727,D2,180.5,1.0,92,124.0
2728,E-3,180.5,0.25,74,124.0
2729,E-5,180.5,117/1000,64,124.0
2730,E-5,180.75,117/1000,64,124.0
2731,E-3,181.0,0.25,89,124.0
2732,D4,181.0,117/1000,89,124.0
2733,E-5,181.0,117/1000,64,124.0
2734,E1,181.367,3/40,50,124.0
2735,G#2,181.492,367/1000,60,124.0
2736,C2,181.5,0.25,78,124.0
2737,E-3,181.5,0.25,74,124.0
2738,E-5,181.5,117/1000,64,124.0
2739,C4,181.5,2.25,93,124.0
2740,E-4,181.5,2.25,93,124.0
2741,G#3,181.5,2.25,93,124.0
2742,G#2,181.992,477/250,85,124.0
2743,C2,182.0,0.25,78,124.0
2744,D2,182.0,1.0,92,124.0
2745,E-3,182.0,0.25,89,124.0
2746,E-5,182.0,117/1000,64,124.0
2747,E-3,182.5,0.25,79,124.0
2748,E-4,182.5,117/1000,89,124.0
2749,E-4,182.667,117/1000,89,124.0
2750,E-3,182.75,0.25,74,124.0
2751,G2,183.0,1.0,104,124.0
2752,E-3,183.0,0.25,89,124.0
2753,E-4,183.0,117/1000,89,124.0
2754,E-3,183.5,0.25,74,124.0
2755,E-4,183.5,117/1000,89,124.0
2756,B1,183.992,1/125,85,124.0
2757,C6,183.992,373/250,42,124.0
2758,C5,183.992,373/250,42,124.0
2759,B1,184.0,1367/1000,85,124.0
2760,C2,184.0,0.25,78,124.0
2761,G3,184.0,0.25,111,124.0
2762,A5,184.0,117/1000,67,124.0
2763,F#3,184.0,3.75,82,124.0
2764,B-3,184.0,3.75,82,124.0
2765,E-4,184.0,3.75,82,124.0
2766,E-3,184.5,0.25,74,124.0
2767,C#2,185.0,1.0,84,124.0
2768,E-3,185.0,0.25,89,124.0
2769,D4,185.0,117/1000,89,124.0
2770,E1,185.367,3/40,50,124.0
2771,F#2,185.492,367/1000,60,124.0
2772,C#5,185.5,0.5,83,124.0
2773,C2,185.5,0.25,78,124.0
2774,E-3,185.5,0.25,74,124.0
2775,A5,185.5,117/1000,67,124.0
2776,F#2,185.992,1.375,85,124.0
2777,B5,186.0,0.125,83,124.0
2778,C2,186.0,0.25,78,124.0
2779,E-3,186.0,0.25,89,124.0
2780,A5,186.0,117/1000,67,124.0
2781,C6,186.125,0.125,83,124.0
2782,C#6,186.25,1.25,83,124.0
2783,C#2,186.5,1.0,84,124.0
2784,E-3,186.5,0.25,74,124.0
2785,D4,186.5,117/1000,89,124.0
2786,E-3,187.0,0.25,89,124.0
2787,E4,187.0,117/1000,89,124.0
2788,E1,187.367,3/40,50,124.0
2789,B1,187.492,367/1000,60,124.0
2790,B5,187.5,0.25,83,124.0
2791,C2,187.5,0.25,78,124.0
2792,E-3,187.5,0.25,74,124.0
2793,E-4,187.5,117/1000,89,124.0
2794,A5,187.5,117/1000,67,124.0
2795,B-5,187.75,0.25,83,124.0
2796,B1,187.992,1/125,85,124.0
2797,B1,188.0,1367/1000,85,124.0
2798,G#5,188.0,3.0,83,124.0
2799,C2,188.0,0.25,78,124.0
2800,E-3,188.0,0.25,89,124.0
2801,A5,188.0,117/1000,67,124.0
2802,G#3,188.0,3.75,82,124.0
2803,C#4,188.0,3.75,82,124.0
2804,F3,188.0,3.75,82,124.0
2805,C#2,188.5,1.0,84,124.0
2806,E-3,188.5,0.25,74,124.0
2807,E-3,189.0,0.25,89,124.0
2808,D4,189.0,117/1000,89,124.0
2809,E1,189.367,3/40,50,124.0
2810,F#2,189.492,367/1000,60,124.0
2811,C2,189.5,0.25,78,124.0
2812,E-3,189.5,0.25,74,124.0
2813,A5,189.5,117/1000,67,124.0
2814,E-4,189.917,117/1000,89,124.0
2815,F#2,189.992,73/40,85,124.0
2816,C2,190.0,0.25,78,124.0
2817,C#2,190.0,1.0,84,124.0
2818,E-3,190.0,0.25,89,124.0
2819,E-4,190.0,117/1000,89,124.0
2820,A5,190.0,117/1000,67,124.0
2821,E-3,190.5,0.25,79,124.0
2822,E-3,190.75,0.25,74,124.0
2823,C#2,191.0,1.0,84,124.0
2824,E-3,191.0,0.25,89,124.0
2825,E4,191.0,117/1000,89,124.0
2826,F#5,191.5,0.25,83,124.0
2827,E-3,191.5,0.25,74,124.0
2828,E4,191.5,117/1000,89,124.0
2829,G#5,191.75,79/500,83,124.0
2830,B1,191.992,1/125,85,124.0
2831,B1,192.0,1367/1000,85,124.0
2832,G#5,192.0,0.125,78,124.0
2833,C2,192.0,0.25,78,124.0
2834,E-3,192.0,0.25,89,124.0
2835,A5,192.0,117/1000,67,124.0
2836,E-4,192.0,3.25,82,124.0
2837,B-3,192.0,3.25,82,124.0
2838,F#3,192.0,3.25,82,124.0
2839,B-5,192.125,1.25,83,124.0
2840,E-3,192.5,0.25,74,124.0
2841,C#2,193.0,1.0,84,124.0
2842,E-3,193.0,0.25,89,124.0
2843,D4,193.0,117/1000,89,124.0
2844,E1,193.367,3/40,50,124.0
2845,F#2,193.492,367/1000,60,124.0
2846,C#5,193.5,0.75,83,124.0
2847,C2,193.5,0.25,78,124.0
2848,E-3,193.5,0.25,74,124.0
2849,A5,193.5,117/1000,67,124.0
2850,F#2,193.992,1.375,85,124.0
2851,C2,194.0,0.25,78,124.0
2852,E-3,194.0,0.25,89,124.0
2853,A5,194.0,117/1000,67,124.0
2854,C#2,194.5,1.0,84,124.0
2855,E-3,194.5,0.25,74,124.0
2856,D4,194.5,117/1000,89,124.0
2857,B-5,194.5,0.5,83,124.0
2858,C#5,194.5,0.5,83,124.0
2859,G#5,195.0,0.5,83,124.0
2860,B4,195.0,0.375,83,124.0
2861,E-3,195.0,0.25,89,124.0
2862,E4,195.0,117/1000,89,124.0
2863,E1,195.367,3/40,50,124.0
2864,A4,195.417,3/40,78,124.0
2865,B1,195.492,367/1000,60,124.0
2866,C2,195.5,0.25,78,124.0
2867,E-3,195.5,0.25,74,124.0
2868,E-4,195.5,117/1000,89,124.0
2869,A5,195.5,117/1000,67,124.0
2870,C#5,195.5,0.5,83,124.0
2871,B-4,195.5,0.5,83,124.0
2872,F#5,195.5,0.5,83,124.0
2873,C#4,195.5,0.5,82,124.0
2874,G#3,195.5,0.5,82,124.0
2875,F3,195.5,0.5,82,124.0
2876,B1,195.992,1/125,85,124.0
2877,B1,196.0,1367/1000,85,124.0
2878,C2,196.0,0.25,78,124.0
2879,E-3,196.0,0.25,89,124.0
2880,A5,196.0,117/1000,67,124.0
2881,C#5,196.0,51/125,83,124.0
2882,B-4,196.0,51/125,83,124.0
2883,F#5,196.0,51/125,83,124.0
2884,C#4,196.0,0.25,82,124.0
2885,G#3,196.0,0.25,82,124.0
2886,F3,196.0,0.25,82,124.0
2887,C#4,196.5,0.75,82,124.0
2888,C#2,196.5,1.0,84,124.0
2889,E-3,196.5,0.25,74,124.0
2890,F5,196.5,33/40,83,124.0
2891,C#5,196.5,33/40,83,124.0
2892,G#4,196.5,33/40,83,124.0
2893,G#3,196.5,3.25,82,124.0
2894,F3,196.5,3.25,82,124.0
2895,E-3,197.0,0.25,89,124.0
2896,D4,197.0,117/1000,89,124.0
2897,E1,197.367,3/40,50,124.0
2898,F#2,197.492,367/1000,60,124.0
2899,C#4,197.5,0.75,87,124.0
2900,C2,197.5,0.25,78,124.0
2901,E-3,197.5,0.25,74,124.0
2902,A5,197.5,117/1000,67,124.0
2903,F#2,197.992,227/250,85,124.0
2904,C2,198.0,0.25,78,124.0
2905,C#2,198.0,1.0,84,124.0
2906,E-3,198.0,0.25,89,124.0
2907,A5,198.0,117/1000,67,124.0
2908,C#4,198.5,0.25,87,124.0
2909,E-3,198.5,0.25,79,124.0
2910,E-4,198.708,117/1000,89,124.0
2911,E-4,198.708,117/1000,89,124.0
2912,E-3,198.75,0.25,74,124.0
2913,C#2,198.992,123/250,75,124.0
2914,C#4,199.0,0.75,87,124.0
2915,C#2,199.0,1.0,84,124.0
2916,E-3,199.0,0.25,89,124.0
2917,E-4,199.0,117/1000,89,124.0
2918,C2,199.492,417/1000,60,124.0
2919,C#5,199.5,0.5,83,124.0
2920,E-3,199.5,0.25,74,124.0
2921,E4,199.5,117/1000,89,124.0
2922,B1,199.992,1/125,85,124.0
2923,B1,200.0,1367/1000,85,124.0
2924,C#5,200.0,13/40,83,124.0
2925,C2,200.0,0.25,78,124.0
2926,E-3,200.0,0.25,89,124.0
2927,A5,200.0,117/1000,67,124.0
2928,E-4,200.0,1.25,82,124.0
2929,F#3,200.0,1.25,82,124.0
2930,B-3,200.0,1.25,82,124.0
2931,B-4,200.5,51/125,83,124.0
2932,E-3,200.5,0.25,74,124.0
2933,B-4,201.0,51/125,83,124.0
2934,C#2,201.0,1.0,84,124.0
2935,E-3,201.0,0.25,89,124.0
2936,D4,201.0,117/1000,89,124.0
2937,E1,201.367,3/40,50,124.0
2938,F#2,201.492,367/1000,60,124.0
2939,C2,201.5,0.25,78,124.0
2940,E-3,201.5,0.25,74,124.0
2941,A5,201.5,117/1000,67,124.0
2942,G#4,201.5,51/125,73,124.0
2943,B-4,201.5,51/125,73,124.0
2944,B-3,201.5,0.75,72,124.0
2945,F#3,201.5,0.75,72,124.0
2946,E-4,201.5,0.75,72,124.0
2947,F#2,201.992,1.375,85,124.0
2948,C2,202.0,0.25,78,124.0
2949,E-3,202.0,0.25,89,124.0
2950,A5,202.0,117/1000,67,124.0
2951,B-4,202.0,51/125,83,124.0
2952,G#4,202.0,51/125,83,124.0
2953,C#2,202.5,1.0,84,124.0
2954,E-3,202.5,0.25,79,124.0
2955,F#4,202.5,51/125,73,124.0
2956,B-4,202.5,51/125,73,124.0
2957,E-4,202.5,0.25,72,124.0
2958,B-3,202.5,0.25,72,124.0
2959,F#3,202.5,0.25,72,124.0
2960,E-3,202.75,0.25,74,124.0
2961,E-3,203.0,0.25,89,124.0
2962,E-4,203.0,117/1000,89,124.0
2963,B-4,203.0,51/125,83,124.0
2964,F#4,203.0,51/125,83,124.0
2965,E-4,203.0,0.25,82,124.0
2966,F#3,203.0,0.25,82,124.0
2967,B-3,203.0,0.25,82,124.0
2968,E1,203.367,3/40,50,124.0
2969,B1,203.492,367/1000,60,124.0
2970,C2,203.5,0.25,78,124.0
2971,E-3,203.5,0.25,74,124.0
2972,E-4,203.5,117/1000,89,124.0
2973,A5,203.5,117/1000,67,124.0
2974,F4,203.5,51/125,73,124.0
2975,G#4,203.5,51/125,73,124.0
2976,F3,203.5,0.5,72,124.0
2977,G#3,203.5,0.5,72,124.0
2978,C#4,203.5,0.5,72,124.0
2979,B1,203.992,1/125,85,124.0
2980,B1,204.0,483/1000,85,124.0
2981,C2,204.0,0.25,78,124.0
2982,E-3,204.0,0.25,89,124.0
2983,A5,204.0,117/1000,67,124.0
2984,F4,204.0,51/125,83,124.0
2985,G#4,204.0,51/125,83,124.0
2986,F3,204.0,0.25,72,124.0
2987,G#3,204.0,0.25,72,124.0
2988,C#4,204.0,0.25,72,124.0
2989,B2,204.492,367/1000,75,124.0
2990,F#4,204.5,51/125,73,124.0
2991,C#2,204.5,1.0,84,124.0
2992,E-3,204.5,0.25,74,124.0
2993,F3,204.5,0.75,72,124.0
2994,G#3,204.5,0.75,72,124.0
2995,C#4,204.5,0.75,72,124.0
2996,B2,204.992,123/250,85,124.0
2997,F#4,205.0,51/125,83,124.0
2998,E-3,205.0,0.25,89,124.0
2999,D4,205.0,117/1000,89,124.0
3000,B-2,205.492,367/1000,75,124.0
3001,C2,205.5,0.25,78,124.0
3002,E-3,205.5,0.25,79,124.0
3003,A5,205.5,117/1000,67,124.0
3004,F4,205.5,51/125,73,124.0
3005,G#4,205.5,51/125,73,124.0
3006,F3,205.5,0.75,72,124.0
3007,G#3,205.5,0.75,72,124.0
3008,C#4,205.5,0.75,72,124.0
3009,E-3,205.75,0.25,74,124.0
3010,B-2,205.992,123/250,85,124.0
3011,C2,206.0,0.25,78,124.0
3012,C#2,206.0,1.0,84,124.0
3013,E-3,206.0,0.25,89,124.0
3014,A5,206.0,117/1000,67,124.0
3015,G#4,206.0,51/125,83,124.0
3016,F4,206.0,51/125,83,124.0
3017,F#2,206.492,367/1000,75,124.0
3018,E-3,206.5,0.25,74,124.0
3019,D4,206.5,117/1000,89,124.0
3020,E-4,206.5,51/125,73,124.0
3021,G#4,206.5,51/125,73,124.0
3022,C#4,206.5,124/125,72,124.0
3023,G#3,206.5,124/125,72,124.0
3024,F3,206.5,124/125,72,124.0
3025,F#2,206.992,123/250,85,124.0
3026,C#2,207.0,1.0,84,124.0
3027,E-3,207.0,0.25,89,124.0
3028,E4,207.0,117/1000,89,124.0
3029,G#4,207.0,51/125,83,124.0
3030,E-4,207.0,51/125,83,124.0
3031,C#2,207.492,123/250,60,124.0
3032,F#4,207.5,0.5,83,124.0
3033,C2,207.5,0.25,78,124.0
3034,E-3,207.5,0.25,74,124.0
3035,E-4,207.5,117/1000,89,124.0
3036,B1,207.992,1/125,85,124.0
3037,B1,208.0,1367/1000,85,124.0
3038,F#4,208.0,579/500,83,124.0
3039,C2,208.0,0.25,78,124.0
3040,E-3,208.0,0.25,89,124.0
3041,A5,208.0,117/1000,67,124.0
3042,E-4,208.0,1.25,82,124.0
3043,B-3,208.0,1.25,82,124.0
3044,F#3,208.0,1.25,82,124.0
3045,E-3,208.5,0.25,74,124.0
3046,C#2,209.0,1.0,84,124.0
3047,E-3,209.0,0.25,89,124.0
3048,D4,209.0,117/1000,89,124.0
3049,E1,209.367,3/40,50,124.0
3050,F#2,209.492,367/1000,60,124.0
3051,C2,209.5,0.25,78,124.0
3052,E-3,209.5,0.25,79,124.0
3053,A5,209.5,117/1000,67,124.0
3054,C#4,209.5,121/500,83,124.0
3055,F#4,209.5,121/500,83,124.0
3056,B-4,209.5,121/500,83,124.0
3057,E-3,209.75,0.25,74,124.0
3058,E-4,209.75,121/500,83,124.0
3059,G#4,209.75,121/500,83,124.0
3060,B4,209.75,121/500,83,124.0
3061,F#2,209.992,1.375,85,124.0
3062,C2,210.0,0.25,78,124.0
3063,E-3,210.0,0.25,89,124.0
3064,A5,210.0,117/1000,67,124.0
3065,C#4,210.0,51/125,83,124.0
3066,F#4,210.0,51/125,83,124.0
3067,B-4,210.0,51/125,83,124.0
3068,C#4,210.0,621/500,82,124.0
3069,F#3,210.0,621/500,82,124.0
3070,B-3,210.0,621/500,82,124.0
3071,G#4,210.5,51/125,83,124.0
3072,C#2,210.5,1.0,84,124.0
3073,E-3,210.5,0.25,74,124.0
3074,D4,210.5,117/1000,89,124.0
3075,F#4,211.0,51/125,83,124.0
3076,E-3,211.0,0.25,89,124.0
3077,E4,211.0,117/1000,89,124.0
3078,E1,211.367,3/40,50,124.0
3079,B1,211.492,367/1000,60,124.0
3080,F4,211.5,0.5,83,124.0
3081,C#4,211.5,0.5,82,124.0
3082,C2,211.5,0.25,78,124.0
3083,E-3,211.5,0.25,74,124.0
3084,E4,211.5,117/1000,89,124.0
3085,A5,211.5,117/1000,67,124.0
3086,G#3,211.5,0.5,82,124.0
3087,F3,211.5,0.5,82,124.0
3088,B1,211.992,1/125,85,124.0
3089,B1,212.0,1367/1000,85,124.0
3090,F4,212.0,579/500,83,124.0
3091,C#4,212.0,0.75,82,124.0
3092,C2,212.0,0.25,78,124.0
3093,E-3,212.0,0.25,89,124.0
3094,A5,212.0,117/1000,67,124.0
3095,G#3,212.0,1.25,82,124.0
3096,F3,212.0,1.25,82,124.0
3097,D4,212.458,117/1000,89,124.0
3098,D4,212.458,117/1000,89,124.0
3099,C#2,212.5,1.0,84,124.0
3100,E-3,212.5,0.25,74,124.0
3101,C#4,213.0,51/125,87,124.0
3102,E-3,213.0,0.25,89,124.0
3103,E1,213.367,3/40,50,124.0
3104,D4,213.458,117/1000,89,124.0
3105,D4,213.458,117/1000,89,124.0
3106,F#2,213.492,367/1000,60,124.0
3107,C#5,213.5,227/250,98,124.0
3108,C2,213.5,0.25,78,124.0
3109,E-3,213.5,0.25,79,124.0
3110,A5,213.5,117/1000,67,124.0
3111,G#3,213.5,621/500,82,124.0
3112,C#4,213.5,621/500,82,124.0
3113,F3,213.5,621/500,82,124.0
3114,E-3,213.75,0.25,74,124.0
3115,F#2,213.992,227/250,85,124.0
3116,C2,214.0,0.25,78,124.0
3117,C#2,214.0,1.0,84,124.0
3118,E-3,214.0,0.25,89,124.0
3119,A5,214.0,117/1000,67,124.0
3120,E-3,214.5,0.25,74,124.0
3121,D4,214.5,117/1000,89,124.0
3122,E-4,214.5,123/250,83,124.0
3123,F#4,214.5,123/250,83,124.0
3124,B1,214.992,9/20,75,124.0
3125,C#2,215.0,1.0,84,124.0
3126,E-3,215.0,0.25,89,124.0
3127,E4,215.0,117/1000,89,124.0
3128,F4,215.0,123/250,83,124.0
3129,G#4,215.0,123/250,83,124.0
3130,G#3,215.0,0.75,82,124.0
3131,C#4,215.0,0.75,82,124.0
3132,F3,215.0,0.75,82,124.0
3133,C#2,215.492,367/1000,60,124.0
3134,E-3,215.5,0.25,74,124.0
3135,E-4,215.5,117/1000,89,124.0
3136,F#4,215.5,123/250,83,124.0
3137,B-4,215.5,123/250,83,124.0
3138,G#1,215.992,1/125,85,124.0
3139,G#1,216.0,1367/1000,85,124.0
3140,G#2,216.0,1871/500,97,124.0
3141,C2,216.0,0.25,78,124.0
3142,A3,216.0,0.25,111,124.0
3143,A5,216.0,117/1000,67,124.0
3144,G#4,216.0,123/250,83,124.0
3145,C5,216.0,123/250,83,124.0
3146,E-3,216.5,1621/500,97,124.0
3147,E-3,216.5,0.25,74,124.0
3148,C#2,217.0,1.0,84,124.0
3149,E-3,217.0,0.25,89,124.0
3150,D4,217.0,117/1000,89,124.0
3151,E-4,217.0,1371/500,97,124.0
3152,B-3,217.0,1371/500,97,124.0
3153,E1,217.367,3/40,50,124.0
3154,E-2,217.492,367/1000,60,124.0
3155,C2,217.5,0.25,78,124.0
3156,E-3,217.5,0.25,79,124.0
3157,A5,217.5,117/1000,67,124.0
3158,C5,217.5,2.25,95,124.0
3159,G4,217.5,2.25,95,124.0
3160,B-4,217.5,2.25,95,124.0
3161,E-3,217.75,0.25,74,124.0
3162,G#2,217.992,1.375,85,124.0
3163,C2,218.0,0.25,78,124.0
3164,E-3,218.0,0.25,89,124.0
3165,A5,218.0,117/1000,67,124.0
3166,C#2,218.5,1.0,84,124.0
3167,E-3,218.5,0.25,74,124.0
3168,D4,218.5,117/1000,89,124.0
3169,G#4,219.0,121/500,83,124.0
3170,E-3,219.0,0.25,89,124.0
3171,E4,219.0,117/1000,89,124.0
3172,B-4,219.25,121/500,83,124.0
3173,E1,219.367,3/40,50,124.0
3174,G#2,219.492,367/1000,60,124.0
3175,F5,219.5,121/500,83,124.0
3176,C2,219.5,0.25,78,124.0
3177,C#2,219.5,0.5,84,124.0
3178,E-3,219.5,0.25,74,124.0
3179,E4,219.5,117/1000,89,124.0
3180,A5,219.5,117/1000,67,124.0
3181,E-5,219.75,121/500,83,124.0
3182,G#1,219.992,1/125,85,124.0
3183,G#1,220.0,1367/1000,85,124.0
3184,D5,220.0,51/125,83,124.0
3185,D4,220.0,2.25,82,124.0
3186,C2,220.0,0.25,78,124.0
3187,C#2,220.0,0.5,84,124.0
3188,E-3,220.0,0.25,89,124.0
3189,A5,220.0,117/1000,67,124.0
3190,B-3,220.0,3.75,82,124.0
3191,F3,220.0,3.75,82,124.0
3192,D5,220.5,121/500,83,124.0
3193,E-3,220.5,0.25,74,124.0
3194,C5,220.75,51/125,83,124.0
3195,C#2,221.0,1.0,84,124.0
3196,E-3,221.0,0.25,89,124.0
3197,D4,221.0,117/1000,89,124.0
3198,C5,221.25,121/500,83,124.0
3199,E1,221.367,3/40,50,124.0
3200,G#2,221.492,367/1000,60,124.0
3201,B-4,221.5,373/250,83,124.0
3202,C2,221.5,0.25,78,124.0
3203,E-3,221.5,0.25,74,124.0
3204,E-4,221.5,117/1000,89,124.0
3205,A5,221.5,117/1000,67,124.0
3206,G#2,221.992,227/250,85,124.0
3207,C2,222.0,0.25,78,124.0
3208,E-3,222.0,0.25,89,124.0
3209,E-4,222.0,117/1000,89,124.0
3210,A5,222.0,117/1000,67,124.0
3211,D4,222.5,1.25,82,124.0
3212,E-3,222.5,0.25,74,124.0
3213,E-2,222.992,9/20,75,124.0
3214,C#2,223.0,1.0,84,124.0
3215,E-3,223.0,0.25,89,124.0
3216,E4,223.0,117/1000,89,124.0
3217,B-4,223.25,121/500,83,124.0
3218,E-2,223.492,367/1000,60,124.0
3219,B-5,223.5,121/500,83,124.0
3220,E-3,223.5,0.25,79,124.0
3221,E4,223.5,117/1000,89,124.0
3222,G#5,223.75,121/500,83,124.0
3223,E-3,223.75,0.25,74,124.0
3224,G#1,223.992,1/125,85,124.0
3225,G#1,224.0,1367/1000,85,124.0
3226,G5,224.0,51/125,83,124.0
3227,C2,224.0,0.25,78,124.0
3228,E-3,224.0,0.25,89,124.0
3229,A5,224.0,117/1000,67,124.0
3230,C4,224.0,3.75,82,124.0
3231,E-4,224.0,3.75,82,124.0
3232,B-3,224.0,3.75,82,124.0
3233,G3,224.0,3.75,82,124.0
3234,G5,224.5,121/500,83,124.0
3235,E-3,224.5,0.25,74,124.0
3236,F5,224.75,51/125,83,124.0
3237,C#2,225.0,1.0,84,124.0
3238,E-3,225.0,0.25,89,124.0
3239,D4,225.0,117/1000,89,124.0
3240,F5,225.25,121/500,83,124.0
3241,E1,225.367,3/40,50,124.0
3242,G#2,225.492,367/1000,60,124.0
3243,E-5,225.5,51/125,83,124.0
3244,C2,225.5,0.25,78,124.0
3245,E-3,225.5,0.25,74,124.0
3246,A5,225.5,117/1000,67,124.0
3247,G#2,225.992,1.375,85,124.0
3248,E-6,226.0,51/125,83,124.0
3249,C2,226.0,0.25,78,124.0
3250,E-3,226.0,0.25,89,124.0
3251,A5,226.0,117/1000,67,124.0
3252,E-6,226.5,121/500,83,124.0
3253,C#2,226.5,1.0,84,124.0
3254,E-3,226.5,0.25,74,124.0
3255,D4,226.5,117/1000,89,124.0
3256,D6,226.75,121/500,83,124.0
3257,C6,227.0,51/125,83,124.0
3258,E-3,227.0,0.25,89,124.0
3259,E-4,227.0,117/1000,89,124.0
3260,E1,227.367,3/40,50,124.0
3261,G#1,227.492,367/1000,60,124.0
3262,D6,227.5,121/500,83,124.0
3263,C2,227.5,0.25,78,124.0
3264,E-3,227.5,0.25,74,124.0
3265,E4,227.5,117/1000,89,124.0
3266,A5,227.5,117/1000,67,124.0
3267,E-6,227.75,121/500,83,124.0
3268,G#1,227.992,1/125,85,124.0
3269,G#1,228.0,1367/1000,85,124.0
3270,C6,228.0,0.125,83,124.0
3271,D4,228.0,53/40,82,124.0
3272,C2,228.0,0.25,78,124.0
3273,E-3,228.0,0.25,89,124.0
3274,A5,228.0,117/1000,67,124.0
3275,B-3,228.0,1871/500,82,124.0
3276,F3,228.0,1871/500,82,124.0
3277,C#6,228.083,0.125,83,124.0
3278,D6,228.125,0.5,83,124.0
3279,C#2,228.5,1.0,84,124.0
3280,E-3,228.5,0.25,74,124.0
3281,B-5,228.75,0.625,83,124.0
3282,E-3,229.0,0.25,89,124.0
3283,D4,229.0,117/1000,89,124.0
3284,E1,229.367,3/40,50,124.0
3285,G#2,229.492,367/1000,60,124.0
3286,F5,229.5,0.875,83,124.0
3287,D4,229.5,53/40,82,124.0
3288,C2,229.5,0.25,78,124.0
3289,E-3,229.5,0.25,79,124.0
3290,E-4,229.5,117/1000,89,124.0
3291,A5,229.5,117/1000,67,124.0
3292,E-3,229.75,0.25,74,124.0
3293,G#2,229.992,9/20,85,124.0
3294,C2,230.0,0.25,78,124.0
3295,E-3,230.0,0.25,89,124.0
3296,E-4,230.0,117/1000,89,124.0
3297,A5,230.0,117/1000,67,124.0
3298,E-2,230.492,367/1000,75,124.0
3299,B-4,230.5,0.375,83,124.0
3300,E-3,230.5,0.25,74,124.0
3301,D4,230.5,117/1000,89,124.0
3302,E-2,230.992,227/250,85,124.0
3303,B-4,231.0,13/40,83,124.0
3304,D4,231.0,371/500,82,124.0
3305,C#2,231.0,1.0,84,124.0
3306,E-3,231.0,0.25,89,124.0
3307,B-4,231.417,79/500,83,124.0
3308,E4,231.458,117/1000,89,124.0
3309,E4,231.458,117/1000,89,124.0
3310,C5,231.5,0.5,83,124.0
3311,E-3,231.5,0.25,74,124.0
3312,G#1,231.992,1/125,85,124.0
3313,G#1,232.0,1367/1000,85,124.0
3314,C5,232.0,13/40,83,124.0
3315,E-4,232.0,1.5,82,124.0
3316,C4,232.0,1.25,82,124.0
3317,C2,232.0,0.25,78,124.0
3318,E-3,232.0,0.25,89,124.0
3319,A5,232.0,117/1000,67,124.0
3320,B-3,232.0,1.75,82,124.0
3321,G3,232.0,1.75,82,124.0
3322,E-5,232.5,123/250,83,124.0
3323,E-3,232.5,0.25,74,124.0
3324,C#2,233.0,1.0,84,124.0
3325,E-3,233.0,0.25,89,124.0
3326,D4,233.0,117/1000,89,124.0
3327,E1,233.367,3/40,50,124.0
3328,G#2,233.492,367/1000,60,124.0
3329,C4,233.5,51/125,82,124.0
3330,C2,233.5,0.25,78,124.0
3331,E-3,233.5,0.25,79,124.0
3332,A5,233.5,117/1000,67,124.0
3333,E-3,233.75,0.25,74,124.0
3334,G#2,233.992,1.375,85,124.0
3335,C2,234.0,0.25,78,124.0
3336,E-3,234.0,0.25,89,124.0
3337,A5,234.0,117/1000,67,124.0
3338,E-4,234.0,51/125,73,124.0
3339,G#4,234.0,51/125,73,124.0
3340,C5,234.0,51/125,73,124.0
3341,G3,234.0,51/125,72,124.0
3342,B-3,234.0,51/125,72,124.0
3343,C4,234.0,51/125,72,124.0
3344,C#2,234.5,1.0,84,124.0
3345,E-3,234.5,0.25,74,124.0
3346,D4,234.5,117/1000,89,124.0
3347,F4,234.5,51/125,83,124.0
3348,B-4,234.5,51/125,83,124.0
3349,D5,234.5,51/125,83,124.0
3350,E-4,234.5,51/125,82,124.0
3351,C4,234.5,51/125,82,124.0
3352,B-3,234.5,51/125,82,124.0
3353,G3,234.5,51/125,82,124.0
3354,E-3,235.0,0.25,89,124.0
3355,E4,235.0,117/1000,89,124.0
3356,E-5,235.0,51/125,76,124.0
3357,G4,235.0,51/125,76,124.0
3358,C5,235.0,51/125,76,124.0
3359,B-3,235.0,51/125,72,124.0
3360,E-4,235.0,51/125,72,124.0
3361,G3,235.0,51/125,72,124.0
3362,C4,235.0,51/125,72,124.0
3363,E1,235.367,3/40,50,124.0
3364,G#2,235.492,367/1000,60,124.0
3365,C2,235.5,0.25,78,124.0
3366,E-3,235.5,0.25,74,124.0
3367,E-4,235.5,117/1000,89,124.0
3368,A5,235.5,117/1000,67,124.0
3369,D5,235.5,0.5,83,124.0
3370,F4,235.5,0.5,83,124.0
3371,B-4,235.5,0.5,83,124.0
3372,B-3,235.5,0.5,82,124.0
3373,D4,235.5,0.5,82,124.0
3374,F3,235.5,0.5,82,124.0
3375,G#1,235.992,1/125,85,124.0
3376,G#1,236.0,1367/1000,85,124.0
3377,C2,236.0,0.25,78,124.0
3378,E-3,236.0,0.25,89,124.0
3379,A5,236.0,117/1000,67,124.0
3380,D5,236.0,121/500,83,124.0
3381,F4,236.0,121/500,83,124.0
3382,B-4,236.0,121/500,83,124.0
3383,B-3,236.0,0.25,82,124.0
3384,D4,236.0,0.25,82,124.0
3385,F3,236.0,0.25,82,124.0
3386,C#2,236.5,1.0,84,124.0
3387,E-3,236.5,0.25,74,124.0
3388,F4,236.5,51/125,73,124.0
3389,B-4,236.5,51/125,73,124.0
3390,D5,236.5,51/125,73,124.0
3391,F3,236.5,0.25,72,124.0
3392,B-3,236.5,0.25,72,124.0
3393,D4,236.5,0.25,72,124.0
3394,E-3,237.0,0.25,89,124.0
3395,D4,237.0,117/1000,89,124.0
3396,F4,237.0,51/125,83,124.0
3397,B-4,237.0,51/125,83,124.0
3398,D5,237.0,51/125,83,124.0
3399,D4,237.0,0.25,82,124.0
3400,B-3,237.0,0.25,82,124.0
3401,F3,237.0,0.25,82,124.0
3402,E1,237.367,3/40,50,124.0
3403,G#2,237.492,367/1000,60,124.0
3404,C2,237.5,0.25,78,124.0
3405,E-3,237.5,0.25,79,124.0
3406,A5,237.5,117/1000,67,124.0
3407,F4,237.5,51/125,73,124.0
3408,B-4,237.5,51/125,73,124.0
3409,D5,237.5,51/125,73,124.0
3410,F3,237.5,0.25,72,124.0
3411,B-3,237.5,0.25,72,124.0
3412,D4,237.5,0.25,72,124.0
3413,E-3,237.75,0.25,74,124.0
3414,G#2,237.992,227/250,85,124.0
3415,C2,238.0,0.25,78,124.0
3416,C#2,238.0,1.0,84,124.0
3417,E-3,238.0,0.25,89,124.0
3418,A5,238.0,117/1000,67,124.0
3419,F4,238.0,9/20,83,124.0
3420,B-4,238.0,9/20,83,124.0
3421,D5,238.0,9/20,83,124.0
3422,F3,238.0,333/1000,82,124.0
3423,B-3,238.0,333/1000,82,124.0
3424,D4,238.0,333/1000,82,124.0
3425,E-3,238.5,0.25,74,124.0
3426,D4,238.5,117/1000,89,124.0
3427,G4,238.5,51/125,63,124.0
3428,E-5,238.5,51/125,63,124.0
3429,F3,238.5,0.25,62,124.0
3430,B-3,238.5,0.25,62,124.0
3431,D4,238.5,0.25,62,124.0
3432,E-2,238.992,367/1000,75,124.0
3433,E-3,239.0,0.25,89,124.0
3434,E-4,239.0,117/1000,89,124.0
3435,G#4,239.0,51/125,83,124.0
3436,F5,239.0,51/125,83,124.0
3437,D4,239.0,0.75,82,124.0
3438,B-3,239.0,0.75,82,124.0
3439,F3,239.0,0.75,82,124.0
3440,E-2,239.492,9/20,70,124.0
3441,C#2,239.5,0.5,84,124.0
3442,E-3,239.5,0.25,74,124.0
3443,E4,239.5,117/1000,89,124.0
3444,B-4,239.5,51/125,68,124.0
3445,G5,239.5,51/125,68,124.0
3446,G#1,239.992,1/125,85,124.0
3447,G#1,240.0,1367/1000,85,124.0
3448,C2,240.0,0.25,78,124.0
3449,C#2,240.0,0.5,84,124.0
3450,E-3,240.0,0.25,89,124.0
3451,A5,240.0,117/1000,67,124.0
3452,G4,240.0,53/40,83,124.0
3453,C5,240.0,53/40,83,124.0
3454,E-4,240.0,3.25,82,124.0
3455,B-3,240.0,3.25,82,124.0
3456,G3,240.0,3.25,82,124.0
3457,C4,240.0,3.25,82,124.0
3458,E-3,240.5,0.25,74,124.0
3459,C#2,241.0,1.0,84,124.0
3460,E-3,241.0,0.25,89,124.0
3461,D4,241.0,117/1000,89,124.0
3462,E1,241.367,3/40,50,124.0
3463,G#2,241.492,367/1000,60,124.0
3464,C2,241.5,0.25,78,124.0
3465,E-3,241.5,0.25,79,124.0
3466,A5,241.5,117/1000,67,124.0
3467,F5,241.5,371/500,83,124.0
3468,D6,241.5,371/500,83,124.0
3469,E-3,241.75,0.25,74,124.0
3470,G#2,241.992,1.375,85,124.0
3471,C2,242.0,0.25,78,124.0
3472,E-3,242.0,0.25,89,124.0
3473,A5,242.0,117/1000,67,124.0
3474,C#2,242.5,1.0,84,124.0
3475,E-3,242.5,0.25,74,124.0
3476,D4,242.5,117/1000,89,124.0
3477,D5,242.5,371/500,83,124.0
3478,B-5,242.5,371/500,83,124.0
3479,E-3,243.0,0.25,89,124.0
3480,E-4,243.0,117/1000,89,124.0
3481,E1,243.367,3/40,50,124.0
3482,E-2,243.492,367/1000,60,124.0
3483,C2,243.5,0.25,78,124.0
3484,E-3,243.5,0.25,79,124.0
3485,E-4,243.5,117/1000,89,124.0
3486,A5,243.5,117/1000,67,124.0
3487,B-4,243.5,0.5,83,124.0
3488,F5,243.5,0.5,83,124.0
3489,B-3,243.5,0.5,82,124.0
3490,D4,243.5,0.5,82,124.0
3491,F3,243.5,0.5,82,124.0
3492,E-3,243.75,0.25,74,124.0
3493,G#1,243.992,1/125,85,124.0
3494,G#1,244.0,1367/1000,85,124.0
3495,C2,244.0,0.25,78,124.0
3496,E-3,244.0,0.25,89,124.0
3497,A5,244.0,117/1000,67,124.0
3498,B-4,244.0,23/40,83,124.0
3499,F5,244.0,23/40,83,124.0
3500,B-3,244.0,1871/500,82,124.0
3501,D4,244.0,1871/500,82,124.0
3502,F3,244.0,1871/500,82,124.0
3503,D2,244.5,1.0,92,124.0
3504,E-3,244.5,0.25,74,124.0
3505,B-5,244.75,51/125,83,124.0
3506,E-3,245.0,0.25,89,124.0
3507,D4,245.0,117/1000,89,124.0
3508,G#5,245.25,121/500,83,124.0
3509,E1,245.367,3/40,50,124.0
3510,G#2,245.492,367/1000,60,124.0
3511,G5,245.5,121/500,83,124.0
3512,C2,245.5,0.25,78,124.0
3513,E-3,245.5,0.25,79,124.0
3514,A5,245.5,117/1000,67,124.0
3515,F5,245.75,121/500,83,124.0
3516,E-3,245.75,0.25,74,124.0
3517,G#2,245.992,227/250,85,124.0
3518,E-5,246.0,121/500,83,124.0
3519,C2,246.0,0.25,78,124.0
3520,D2,246.0,1.0,92,124.0
3521,E-3,246.0,0.25,89,124.0
3522,A5,246.0,117/1000,67,124.0
3523,C5,246.25,121/500,83,124.0
3524,E4,246.458,117/1000,89,124.0
3525,E4,246.458,117/1000,89,124.0
3526,B-4,246.5,121/500,83,124.0
3527,E-3,246.5,0.25,74,124.0
3528,G#4,246.75,121/500,83,124.0
3529,D2,246.75,1.0,92,124.0
3530,G#1,246.992,227/250,85,124.0
3531,G4,247.0,121/500,83,124.0
3532,D2,247.0,1.0,92,124.0
3533,E-3,247.0,0.25,89,124.0
3534,G#4,247.25,121/500,83,124.0
3535,E4,247.458,117/1000,89,124.0
3536,E4,247.458,117/1000,89,124.0
3537,B-4,247.5,121/500,83,124.0
3538,A2,247.5,0.5,104,124.0
3539,E-3,247.5,0.25,74,124.0
3540,C5,247.75,121/500,83,124.0
3541,A1,247.992,1/125,85,124.0
3542,A1,248.0,1367/1000,85,124.0
3543,E4,248.0,1.0,82,124.0
3544,C4,248.0,0.75,82,124.0
3545,C2,248.0,0.25,78,124.0
3546,A2,248.0,0.25,104,124.0
3547,A5,248.0,117/1000,67,124.0
3548,G4,248.0,43/40,83,124.0
3549,B4,248.0,43/40,83,124.0
3550,D5,248.0,43/40,83,124.0
3551,G3,248.0,1.25,82,124.0
3552,B3,248.0,1.25,82,124.0
3553,G3,248.0,0.25,86,124.0
3554,E3,248.0,0.25,86,124.0
3555,E-3,248.5,0.25,74,124.0
3556,C4,249.0,51/125,82,124.0
3557,D2,249.0,1.0,92,124.0
3558,E-3,249.0,0.25,89,124.0
3559,D4,249.0,117/1000,89,124.0
3560,E1,249.367,3/40,50,124.0
3561,G#5,249.458,3/40,83,124.0
3562,E2,249.492,51/125,60,124.0
3563,C2,249.5,0.25,78,124.0
3564,E-3,249.5,0.25,74,124.0
3565,E-4,249.5,117/1000,89,124.0
3566,A5,249.5,117/1000,67,124.0
3567,D6,249.5,123/250,83,124.0
3568,D5,249.5,123/250,83,124.0
3569,A5,249.5,123/250,83,124.0
3570,E4,249.5,0.5,82,124.0
3571,G3,249.5,0.5,82,124.0
3572,B3,249.5,0.5,82,124.0
3573,C4,249.5,0.5,82,124.0
3574,E2,249.992,9/20,85,124.0
3575,C2,250.0,0.25,78,124.0
3576,E-3,250.0,0.25,89,124.0
3577,E-4,250.0,117/1000,89,124.0
3578,A5,250.0,117/1000,67,124.0
3579,A1,250.492,51/125,75,124.0
3580,D2,250.5,1.0,92,124.0
3581,E-3,250.5,0.25,74,124.0
3582,G5,250.5,123/250,83,124.0
3583,C5,250.5,123/250,83,124.0
3584,C6,250.5,123/250,83,124.0
3585,E4,250.5,121/500,82,124.0
3586,C4,250.5,121/500,82,124.0
3587,G3,250.5,121/500,82,124.0
3588,B3,250.5,121/500,82,124.0
3589,E2,250.992,51/125,80,124.0
3590,E-3,251.0,0.25,89,124.0
3591,C2,251.492,127/250,60,124.0
3592,C2,251.5,0.25,78,124.0
3593,E-3,251.5,0.25,74,124.0
3594,E4,251.5,117/1000,89,124.0
3595,A5,251.5,117/1000,67,124.0
3596,D5,251.5,123/250,83,124.0
3597,D6,251.5,123/250,83,124.0
3598,C2,252.0,1233/1000,60,124.0
3599,C2,252.0,0.25,78,124.0
3600,E-3,252.0,0.25,89,124.0
3601,A5,252.0,117/1000,67,124.0
3602,D4,252.0,3.75,82,124.0
3603,F#3,252.0,3.75,82,124.0
3604,A3,252.0,3.75,82,124.0
3605,D2,252.5,1.0,92,124.0
3606,E-3,252.5,0.25,74,124.0
3607,E6,252.5,123/250,83,124.0
3608,E5,252.5,123/250,83,124.0
3609,E-3,253.0,0.25,89,124.0
3610,D4,253.0,117/1000,89,124.0
3611,E5,253.167,79/500,83,124.0
3612,E6,253.333,79/500,83,124.0
3613,E1,253.367,3/40,50,124.0
3614,A2,253.492,367/1000,60,124.0
3615,E5,253.5,79/500,83,124.0
3616,C2,253.5,0.25,78,124.0
3617,E-3,253.5,0.25,74,124.0
3618,A5,253.5,117/1000,67,124.0
3619,E6,253.667,79/500,83,124.0
3620,E5,253.833,227/250,83,124.0
3621,A2,253.992,1.375,85,124.0
3622,C2,254.0,0.25,78,124.0
3623,D2,254.0,1.0,92,124.0
3624,E-3,254.0,0.25,89,124.0
3625,A5,254.0,117/1000,67,124.0
3626,E-3,254.5,0.25,79,124.0
3627,D4,254.5,117/1000,89,124.0
3628,E-3,254.75,0.25,74,124.0
3629,A5,255.0,121/500,83,124.0
3630,D2,255.0,1.0,92,124.0
3631,E-3,255.0,0.25,89,124.0
3632,E4,255.0,117/1000,89,124.0
3633,B5,255.25,121/500,83,124.0
3634,E1,255.367,3/40,50,124.0
3635,E2,255.492,121/500,50,124.0
3636,C6,255.5,121/500,83,124.0
3637,E-3,255.5,0.25,74,124.0
3638,E-4,255.5,117/1000,89,124.0
3639,D6,255.75,121/500,83,124.0
3640,A1,255.992,1/125,85,124.0
3641,A1,256.0,1367/1000,85,124.0
3642,E6,256.0,51/125,83,124.0
3643,C2,256.0,0.25,78,124.0
3644,E-3,256.0,0.25,89,124.0
3645,A5,256.0,117/1000,67,124.0
3646,B3,256.0,2.25,82,124.0
3647,C4,256.0,2.25,82,124.0
3648,G3,256.0,2.25,82,124.0
3649,E4,256.0,2.25,82,124.0
3650,B5,256.5,121/500,83,124.0
3651,E-3,256.5,0.25,74,124.0
3652,D6,256.75,51/125,83,124.0
3653,D2,257.0,1.0,92,124.0
3654,E-3,257.0,0.25,89,124.0
3655,D4,257.0,117/1000,89,124.0
3656,B5,257.25,121/500,83,124.0
3657,E1,257.367,3/40,50,124.0
3658,E2,257.492,367/1000,60,124.0
3659,G5,257.5,121/500,83,124.0
3660,C2,257.5,0.25,78,124.0
3661,E-3,257.5,0.25,74,124.0
3662,A5,257.5,117/1000,67,124.0
3663,B5,257.75,121/500,83,124.0
3664,E2,257.992,1.375,85,124.0
3665,A5,258.0,121/500,83,124.0
3666,C2,258.0,0.25,78,124.0
3667,E-3,258.0,0.25,89,124.0
3668,A5,258.0,117/1000,67,124.0
3669,E5,258.25,121/500,83,124.0
3670,D5,258.5,121/500,83,124.0
3671,D2,258.5,1.0,92,124.0
3672,E-3,258.5,0.25,74,124.0
3673,D4,258.5,117/1000,89,124.0
3674,E4,258.5,0.25,82,124.0
3675,G3,258.5,0.25,82,124.0
3676,B3,258.5,0.25,82,124.0
3677,C4,258.5,0.25,82,124.0
3678,C5,258.75,121/500,83,124.0
3679,B4,259.0,121/500,83,124.0
3680,E-3,259.0,0.25,89,124.0
3681,E4,259.0,117/1000,89,124.0
3682,C5,259.25,121/500,83,124.0
3683,E1,259.367,3/40,50,124.0
3684,A1,259.492,367/1000,60,124.0
3685,D5,259.5,121/500,83,124.0
3686,C2,259.5,0.25,78,124.0
3687,E-3,259.5,0.25,79,124.0
3688,E4,259.5,117/1000,89,124.0
3689,A5,259.5,117/1000,67,124.0
3690,E5,259.75,121/500,83,124.0
3691,E-3,259.75,0.25,74,124.0
3692,C2,259.992,1/125,85,124.0
3693,C2,260.0,1367/1000,85,124.0
3694,A4,260.0,121/500,83,124.0
3695,C2,260.0,0.25,78,124.0
3696,E-3,260.0,0.25,89,124.0
3697,A5,260.0,117/1000,67,124.0
3698,D4,260.0,3.75,82,124.0
3699,F#3,260.0,3.75,82,124.0
3700,A3,260.0,3.75,82,124.0
3701,D5,260.25,121/500,83,124.0
3702,F#5,260.5,121/500,83,124.0
3703,D2,260.5,1.0,92,124.0
3704,E-3,260.5,0.25,74,124.0
3705,A5,260.75,121/500,83,124.0
3706,D6,261.0,121/500,83,124.0
3707,E-3,261.0,0.25,89,124.0
3708,D4,261.0,117/1000,89,124.0
3709,F#6,261.25,121/500,83,124.0
3710,E1,261.367,3/40,50,124.0
3711,A2,261.492,367/1000,60,124.0
3712,C2,261.5,0.25,78,124.0
3713,E-3,261.5,0.25,79,124.0
3714,E-4,261.5,117/1000,89,124.0
3715,A5,261.5,117/1000,67,124.0
3716,A5,261.5,121/500,83,124.0
3717,A6,261.5,121/500,83,124.0
3718,E-3,261.75,0.25,74,124.0
3719,G5,261.75,121/500,83,124.0
3720,G6,261.75,121/500,83,124.0
3721,A2,261.992,227/250,85,124.0
3722,C2,262.0,0.25,78,124.0
3723,D2,262.0,1.0,92,124.0
3724,E-3,262.0,0.25,89,124.0
3725,E-4,262.0,117/1000,89,124.0
3726,A5,262.0,117/1000,67,124.0
3727,F#5,262.0,13/40,83,124.0
3728,F#6,262.0,13/40,83,124.0
3729,E-3,262.5,0.25,74,124.0
3730,F#5,262.5,121/500,83,124.0
3731,F#6,262.5,121/500,83,124.0
3732,E6,262.75,121/500,83,124.0
3733,C2,262.992,367/1000,75,124.0
3734,D6,263.0,51/125,83,124.0
3735,E-3,263.0,0.25,89,124.0
3736,E4,263.0,117/1000,89,124.0
3737,B1,263.492,367/1000,60,124.0
3738,E6,263.5,121/500,83,124.0
3739,D2,263.5,0.5,92,124.0
3740,E-3,263.5,0.25,74,124.0
3741,E4,263.5,117/1000,89,124.0
3742,F#6,263.75,121/500,83,124.0
3743,B-1,263.992,1/125,85,124.0
3744,B-1,264.0,1367/1000,85,124.0
3745,C2,264.0,0.25,78,124.0
3746,D2,264.0,0.5,92,124.0
3747,E-3,264.0,0.25,89,124.0
3748,A5,264.0,117/1000,67,124.0
3749,F6,264.0,124/125,83,124.0
3750,F5,264.0,124/125,83,124.0
3751,E-3,264.5,0.25,74,124.0
3752,A4,265.0,0.5,82,124.0
3753,F4,265.0,0.25,82,124.0
3754,B-3,265.0,374/125,82,124.0
3755,D2,265.0,1.0,92,124.0
3756,E-3,265.0,0.25,89,124.0
3757,D4,265.0,117/1000,89,124.0
3758,E1,265.367,3/40,50,124.0
3759,F2,265.492,367/1000,60,124.0
3760,F4,265.5,0.25,82,124.0
3761,C2,265.5,0.25,78,124.0
3762,E-3,265.5,0.25,79,124.0
3763,A5,265.5,117/1000,67,124.0
3764,F5,265.5,121/500,83,124.0
3765,D6,265.5,121/500,83,124.0
3766,G4,265.75,0.25,82,124.0
3767,E-3,265.75,0.25,74,124.0
3768,G5,265.75,121/500,83,124.0
3769,E6,265.75,121/500,83,124.0
3770,F2,265.992,1.375,85,124.0
3771,A4,266.0,123/250,82,124.0
3772,C2,266.0,0.25,78,124.0
3773,E-3,266.0,0.25,89,124.0
3774,A5,266.0,117/1000,67,124.0
3775,F6,266.0,123/250,83,124.0
3776,A5,266.0,123/250,83,124.0
3777,G4,266.5,0.5,82,124.0
3778,D2,266.5,1.0,92,124.0
3779,E-3,266.5,0.25,74,124.0
3780,D4,266.5,117/1000,89,124.0
3781,G5,266.5,123/250,83,124.0
3782,E6,266.5,123/250,83,124.0
3783,F4,267.0,0.5,82,124.0
3784,E-3,267.0,0.25,89,124.0
3785,E4,267.0,117/1000,89,124.0
3786,F5,267.0,123/250,83,124.0
3787,D6,267.0,123/250,83,124.0
3788,E1,267.367,3/40,50,124.0
3789,B-1,267.492,367/1000,60,124.0
3790,E4,267.5,0.5,82,124.0
3791,C2,267.5,0.25,78,124.0
3792,E-3,267.5,0.25,74,124.0
3793,E-4,267.5,117/1000,89,124.0
3794,A5,267.5,117/1000,67,124.0
3795,E5,267.5,0.5,83,124.0
3796,C6,267.5,0.5,83,124.0
3797,B-1,267.992,1/125,85,124.0
3798,B-1,268.0,1367/1000,85,124.0
3799,C2,268.0,0.25,78,124.0
3800,E-3,268.0,0.25,89,124.0
3801,A5,268.0,117/1000,67,124.0
3802,E5,268.0,13/40,83,124.0
3803,C6,268.0,13/40,83,124.0
3804,D2,268.5,1.0,92,124.0
3805,E-3,268.5,0.25,74,124.0
3806,F5,268.5,0.875,83,124.0
3807,D6,268.5,0.875,83,124.0
3808,E4,268.5,1621/500,82,124.0
3809,C4,268.5,1621/500,82,124.0
3810,G3,268.5,1621/500,82,124.0
3811,E-3,269.0,0.25,89,124.0
3812,D4,269.0,117/1000,89,124.0
3813,E1,269.367,3/40,50,124.0
3814,G2,269.492,367/1000,60,124.0
3815,C5,269.5,51/125,83,124.0
3816,C2,269.5,0.25,78,124.0
3817,E-3,269.5,0.25,79,124.0
3818,A5,269.5,117/1000,67,124.0
3819,E-3,269.75,0.25,74,124.0
3820,G5,269.917,0.125,83,124.0
3821,G2,269.992,1.375,85,124.0
3822,G#5,270.0,0.125,83,124.0
3823,C2,270.0,0.25,78,124.0
3824,D2,270.0,1.0,92,124.0
3825,E-3,270.0,0.25,89,124.0
3826,A5,270.0,117/1000,67,124.0
3827,A5,270.125,13/40,83,124.0
3828,D4,270.458,117/1000,89,124.0
3829,D4,270.458,117/1000,89,124.0
3830,C6,270.5,13/40,83,124.0
3831,E-3,270.5,0.25,74,124.0
3832,C5,270.917,0.125,83,124.0
3833,C#5,271.0,0.125,83,124.0
3834,D2,271.0,1.0,92,124.0
3835,E-3,271.0,0.25,89,124.0
3836,D4,271.0,117/1000,89,124.0
3837,D5,271.125,13/40,83,124.0
3838,E1,271.367,3/40,50,124.0
3839,B-1,271.492,367/1000,60,124.0
3840,F5,271.5,13/40,83,124.0
3841,E-3,271.5,0.25,79,124.0
3842,E-4,271.5,117/1000,89,124.0
3843,E-3,271.75,0.25,74,124.0
3844,G4,271.917,83/1000,83,124.0
3845,B-1,271.992,1/125,85,124.0
3846,B-1,272.0,1367/1000,85,124.0
3847,G#4,272.0,0.125,83,124.0
3848,G4,272.0,21/500,83,124.0
3849,C2,272.0,0.25,78,124.0
3850,E-3,272.0,0.25,89,124.0
3851,A5,272.0,117/1000,67,124.0
3852,B-3,272.0,1121/500,82,124.0
3853,F4,272.0,1121/500,82,124.0
3854,D4,272.0,1121/500,82,124.0
3855,A4,272.125,13/40,83,124.0
3856,C5,272.5,13/40,83,124.0
3857,E-3,272.5,0.25,74,124.0
3858,E4,273.0,0.125,83,124.0
3859,C5,273.0,121/500,83,124.0
3860,D2,273.0,1.0,92,124.0
3861,E-3,273.0,0.25,89,124.0
3862,D4,273.0,117/1000,89,124.0
3863,F4,273.083,79/500,83,124.0
3864,E4,273.25,121/500,83,124.0
3865,E1,273.367,3/40,50,124.0
3866,F2,273.492,367/1000,60,124.0
3867,D4,273.5,51/125,83,124.0
3868,C2,273.5,0.25,78,124.0
3869,E-3,273.5,0.25,74,124.0
3870,A5,273.5,117/1000,67,124.0
3871,F2,273.992,1.375,85,124.0
3872,F4,274.0,13/40,83,124.0
3873,C2,274.0,0.25,78,124.0
3874,E-3,274.0,0.25,89,124.0
3875,A5,274.0,117/1000,67,124.0
3876,G#4,274.5,0.125,83,124.0
3877,D2,274.5,1.0,92,124.0
3878,E-3,274.5,0.25,74,124.0
3879,D4,274.5,117/1000,89,124.0
3880,C5,274.5,371/500,83,124.0
3881,A4,274.5,371/500,83,124.0
3882,B-3,274.5,0.25,82,124.0
3883,D4,274.5,0.25,82,124.0
3884,F4,274.5,0.25,82,124.0
3885,E-3,275.0,0.25,89,124.0
3886,E4,275.0,117/1000,89,124.0
3887,E1,275.367,3/40,50,124.0
3888,B-1,275.492,367/1000,60,124.0
3889,G4,275.5,123/250,83,124.0
3890,C2,275.5,0.25,78,124.0
3891,E-3,275.5,0.25,79,124.0
3892,E-4,275.5,117/1000,89,124.0
3893,A5,275.5,117/1000,67,124.0
3894,E-3,275.75,0.25,74,124.0
3895,B-1,275.992,1/125,85,124.0
3896,B-1,276.0,1367/1000,85,124.0
3897,C2,276.0,0.25,78,124.0
3898,E-3,276.0,0.25,89,124.0
3899,A5,276.0,117/1000,67,124.0
3900,G3,276.0,3.75,82,124.0
3901,E4,276.0,3.75,82,124.0
3902,C4,276.0,3.75,82,124.0
3903,G#4,276.417,0.125,83,124.0
3904,A4,276.5,51/125,83,124.0
3905,D2,276.5,1.0,92,124.0
3906,E-3,276.5,0.25,74,124.0
3907,F4,277.0,121/500,83,124.0
3908,E-3,277.0,0.25,89,124.0
3909,D4,277.0,117/1000,89,124.0
3910,A4,277.25,121/500,83,124.0
3911,E1,277.367,3/40,50,124.0
3912,G2,277.492,367/1000,60,124.0
3913,C5,277.5,121/500,83,124.0
3914,C2,277.5,0.25,78,124.0
3915,E-3,277.5,0.25,74,124.0
3916,A5,277.5,117/1000,67,124.0
3917,E5,277.75,121/500,83,124.0
3918,G2,277.992,227/250,85,124.0
3919,A4,278.0,121/500,83,124.0
3920,C2,278.0,0.25,78,124.0
3921,D2,278.0,1.0,92,124.0
3922,E-3,278.0,0.25,89,124.0
3923,A5,278.0,117/1000,67,124.0
3924,C5,278.25,121/500,83,124.0
3925,E5,278.5,121/500,83,124.0
3926,E-3,278.5,0.25,74,124.0
3927,G5,278.75,121/500,83,124.0
3928,B-1,278.992,367/1000,75,124.0
3929,A5,279.0,121/500,83,124.0
3930,D2,279.0,1.0,92,124.0
3931,E-3,279.0,0.25,89,124.0
3932,E4,279.0,117/1000,89,124.0
3933,C6,279.25,121/500,83,124.0
3934,G1,279.492,367/1000,60,124.0
3935,D6,279.5,121/500,83,124.0
3936,E-3,279.5,0.25,79,124.0
3937,E4,279.5,117/1000,89,124.0
3938,E6,279.75,121/500,83,124.0
3939,E-3,279.75,0.25,74,124.0
3940,G#1,279.992,1/125,85,124.0
3941,G#1,280.0,1367/1000,85,124.0
3942,E-6,280.0,13/40,83,124.0
3943,C2,280.0,0.25,78,124.0
3944,A3,280.0,0.25,111,124.0
3945,A5,280.0,117/1000,67,124.0
3946,G#3,280.0,621/500,82,124.0
3947,E-4,280.0,621/500,82,124.0
3948,C4,280.0,621/500,82,124.0
3949,E-6,280.5,121/500,83,124.0
3950,E-3,280.5,0.25,74,124.0
3951,D6,280.75,121/500,83,124.0
3952,C6,281.0,23/40,83,124.0
3953,D2,281.0,1.0,92,124.0
3954,E-3,281.0,0.25,89,124.0
3955,D4,281.0,117/1000,89,124.0
3956,E1,281.367,3/40,50,124.0
3957,E-2,281.492,367/1000,60,124.0
3958,C2,281.5,0.25,78,124.0
3959,E-3,281.5,0.25,74,124.0
3960,A5,281.5,117/1000,67,124.0
3961,G#3,281.5,121/500,82,124.0
3962,C4,281.5,121/500,82,124.0
3963,E-4,281.5,121/500,82,124.0
3964,C6,281.75,371/500,83,124.0
3965,E-2,281.992,9/20,85,124.0
3966,C2,282.0,0.25,78,124.0
3967,E-3,282.0,0.25,89,124.0
3968,A5,282.0,117/1000,67,124.0
3969,G#1,282.492,367/1000,75,124.0
3970,D2,282.5,1.0,92,124.0
3971,E-3,282.5,0.25,74,124.0
3972,D4,282.5,117/1000,89,124.0
3973,G#3,282.5,621/500,82,124.0
3974,C4,282.5,621/500,82,124.0
3975,E-4,282.5,621/500,82,124.0
3976,G5,282.75,121/500,83,124.0
3977,E-2,282.992,51/125,80,124.0
3978,C6,283.0,121/500,83,124.0
3979,E-3,283.0,0.25,89,124.0
3980,E-4,283.0,117/1000,89,124.0
3981,D6,283.25,121/500,83,124.0
3982,G#1,283.492,127/250,60,124.0
3983,E-6,283.5,121/500,83,124.0
3984,C2,283.5,0.25,78,124.0
3985,D2,283.5,0.5,92,124.0
3986,E-3,283.5,0.25,74,124.0
3987,E-4,283.5,117/1000,89,124.0
3988,A5,283.5,117/1000,67,124.0
3989,F6,283.75,121/500,83,124.0
3990,G#1,284.0,1233/1000,60,124.0
3991,D6,284.0,13/40,83,124.0
3992,C2,284.0,0.25,78,124.0
3993,D2,284.0,0.5,92,124.0
3994,E-3,284.0,0.25,89,124.0
3995,D4,284.0,117/1000,89,124.0
3996,A5,284.0,117/1000,67,124.0
3997,D4,284.0,1.25,82,124.0
3998,B-3,284.0,1.25,82,124.0
3999,F3,284.0,1.25,82,124.0
4000,D6,284.5,121/500,83,124.0
4001,E-3,284.5,0.25,74,124.0
4002,C6,284.75,121/500,83,124.0
4003,D4,284.958,117/1000,89,124.0
4004,D4,284.958,117/1000,89,124.0
4005,B-5,285.0,23/40,83,124.0
4006,D2,285.0,1.0,92,124.0
4007,E-3,285.0,0.25,89,124.0
4008,E1,285.367,3/40,50,124.0
4009,D2,285.492,367/1000,60,124.0
4010,C2,285.5,0.25,78,124.0
4011,E-3,285.5,0.25,79,124.0
4012,A5,285.5,117/1000,67,124.0
4013,B-3,285.5,0.25,82,124.0
4014,D4,285.5,0.25,82,124.0
4015,F3,285.5,0.25,82,124.0
4016,B-5,285.75,329/500,83,124.0
4017,E-3,285.75,0.25,74,124.0
4018,E-2,285.992,1.375,85,124.0
4019,C2,286.0,0.25,78,124.0
4020,E-3,286.0,0.25,89,124.0
4021,A5,286.0,117/1000,67,124.0
4022,E-3,286.5,0.25,74,124.0
4023,E-4,286.5,117/1000,89,124.0
4024,D4,286.5,621/500,82,124.0
4025,B-3,286.5,621/500,82,124.0
4026,F3,286.5,621/500,82,124.0
4027,B-5,286.75,121/500,83,124.0
4028,E-6,287.0,121/500,83,124.0
4029,D2,287.0,1.0,92,124.0
4030,E-3,287.0,0.25,89,124.0
4031,E4,287.0,117/1000,89,124.0
4032,B-5,287.25,121/500,83,124.0
4033,E1,287.367,3/40,50,124.0
4034,E-2,287.492,367/1000,60,124.0
4035,G#5,287.5,121/500,83,124.0
4036,E-3,287.5,0.25,74,124.0
4037,E-4,287.5,117/1000,89,124.0
4038,G5,287.75,121/500,83,124.0
4039,G#1,287.992,1/125,85,124.0
4040,G#1,288.0,1367/1000,85,124.0
4041,F5,288.0,0.125,83,124.0
4042,C2,288.0,0.25,78,124.0
4043,E-3,288.0,0.25,89,124.0
4044,A5,288.0,117/1000,67,124.0
4045,E-4,288.0,3.75,82,124.0
4046,C4,288.0,3.75,82,124.0
4047,G#3,288.0,3.75,82,124.0
4048,F#5,288.083,0.125,83,124.0
4049,G5,288.125,0.25,83,124.0
4050,C6,288.5,0.25,83,124.0
4051,E-3,288.5,0.25,74,124.0
4052,F5,288.75,0.25,83,124.0
4053,G5,289.0,0.125,83,124.0
4054,D2,289.0,1.0,92,124.0
4055,E-3,289.0,0.25,89,124.0
4056,D4,289.0,117/1000,89,124.0
4057,E-5,289.167,0.125,83,124.0
4058,C5,289.25,0.25,83,124.0
4059,E1,289.367,3/40,50,124.0
4060,G#2,289.492,367/1000,60,124.0
4061,F5,289.5,0.25,83,124.0
4062,C2,289.5,0.25,78,124.0
4063,E-3,289.5,0.25,79,124.0
4064,A5,289.5,117/1000,67,124.0
4065,G5,289.75,0.25,83,124.0
4066,E-3,289.75,0.25,74,124.0
4067,G#2,289.992,367/1000,75,124.0
4068,E-5,290.0,0.125,83,124.0
4069,C2,290.0,0.25,78,124.0
4070,E-3,290.0,0.25,89,124.0
4071,A5,290.0,117/1000,67,124.0
4072,F5,290.167,0.25,83,124.0
4073,G#2,290.492,9/20,75,124.0
4074,D2,290.5,1.0,92,124.0
4075,E-3,290.5,0.25,74,124.0
4076,D4,290.5,117/1000,89,124.0
4077,F5,290.75,0.125,83,124.0
4078,E-5,290.917,0.125,83,124.0
4079,E-2,290.992,51/125,85,124.0
4080,D5,291.0,0.25,83,124.0
4081,E-3,291.0,0.25,89,124.0
4082,E4,291.0,117/1000,89,124.0
4083,E-5,291.25,0.25,83,124.0
4084,E-2,291.492,123/250,60,124.0
4085,G5,291.5,0.25,83,124.0
4086,C2,291.5,0.25,78,124.0
4087,E-3,291.5,0.25,74,124.0
4088,E4,291.5,117/1000,89,124.0
4089,A5,291.5,117/1000,67,124.0
4090,B-5,291.75,0.25,83,124.0
4091,G#1,291.992,1/125,85,124.0
4092,G#1,292.0,1367/1000,85,124.0
4093,C2,292.0,0.25,78,124.0
4094,E-3,292.0,0.25,89,124.0
4095,A5,292.0,117/1000,67,124.0
4096,D6,292.0,51/125,83,124.0
4097,F5,292.0,51/125,83,124.0
4098,B-3,292.0,499/125,82,124.0
4099,D4,292.0,499/125,82,124.0
4100,F3,292.0,499/125,82,124.0
4101,D2,292.5,1.0,92,124.0
4102,E-3,292.5,0.25,74,124.0
4103,D6,292.5,0.25,83,124.0
4104,F5,292.5,0.25,83,124.0
4105,C6,292.75,51/125,83,124.0
4106,E-5,292.75,51/125,83,124.0
4107,E-3,293.0,0.25,89,124.0
4108,D4,293.0,117/1000,89,124.0
4109,E-5,293.25,0.25,83,124.0
4110,C6,293.25,0.25,83,124.0
4111,E1,293.367,3/40,50,124.0
4112,G#2,293.492,367/1000,60,124.0
4113,C2,293.5,0.25,78,124.0
4114,E-3,293.5,0.25,79,124.0
4115,A5,293.5,117/1000,67,124.0
4116,D5,293.5,123/250,83,124.0
4117,B-5,293.5,123/250,83,124.0
4118,E-3,293.75,0.25,74,124.0
4119,G#2,293.992,227/250,85,124.0
4120,C2,294.0,0.25,78,124.0
4121,D2,294.0,1.0,92,124.0
4122,E-3,294.0,0.25,89,124.0
4123,A5,294.0,117/1000,67,124.0
4124,B-4,294.25,0.25,83,124.0
4125,C5,294.5,0.25,83,124.0
4126,E-3,294.5,0.25,74,124.0
4127,D4,294.5,117/1000,89,124.0
4128,D5,294.75,0.25,83,124.0
4129,E-2,294.992,367/1000,24,124.0
4130,E-5,295.0,0.25,83,124.0
4131,D2,295.0,1.0,92,124.0
4132,E-3,295.0,0.25,89,124.0
4133,E4,295.0,117/1000,89,124.0
4134,F5,295.25,0.25,83,124.0
4135,D2,295.492,367/1000,60,124.0
4136,G5,295.5,0.25,83,124.0
4137,E-3,295.5,0.25,74,124.0
4138,E-4,295.5,117/1000,89,124.0
4139,G#5,295.75,0.25,83,124.0
4140,G1,295.992,1/125,85,124.0
4141,G1,296.0,1367/1000,85,124.0
4142,G5,296.0,124/125,83,124.0
4143,C2,296.0,0.25,78,124.0
4144,E-3,296.0,0.25,89,124.0
4145,E-4,296.0,3/40,89,124.0
4146,A5,296.0,117/1000,67,124.0
4147,E-3,296.5,0.25,74,124.0
4148,D2,297.0,1.0,92,124.0
4149,E-3,297.0,0.25,89,124.0
4150,D4,297.0,117/1000,89,124.0
4151,E4,297.0,2.75,82,124.0
4152,A3,297.0,2.75,82,124.0
4153,C4,297.0,2.75,82,124.0
4154,G3,297.0,2.75,82,124.0
4155,G#4,297.25,121/500,83,124.0
4156,G#5,297.25,121/500,83,124.0
4157,E1,297.367,3/40,50,124.0
4158,G2,297.492,367/1000,75,124.0
4159,C2,297.5,0.25,78,124.0
4160,E-3,297.5,0.25,79,124.0
4161,A5,297.5,117/1000,67,124.0
4162,A4,297.5,121/500,83,124.0
4163,A5,297.5,121/500,83,124.0
4164,E-3,297.75,0.25,74,124.0
4165,G#4,297.75,121/500,83,124.0
4166,G#5,297.75,121/500,83,124.0
4167,G2,297.992,227/250,85,124.0
4168,C2,298.0,0.25,78,124.0
4169,E-3,298.0,0.25,89,124.0
4170,A5,298.0,117/1000,67,124.0
4171,G4,298.0,121/500,83,124.0
4172,G5,298.0,121/500,83,124.0
4173,F#4,298.25,121/500,83,124.0
4174,F#5,298.25,121/500,83,124.0
4175,D2,298.5,1.0,92,124.0
4176,E-3,298.5,0.25,74,124.0
4177,D4,298.5,117/1000,89,124.0
4178,F5,298.5,121/500,83,124.0
4179,F4,298.5,121/500,83,124.0
4180,C5,298.75,121/500,83,124.0
4181,D2,298.992,9/20,75,124.0
4182,E-3,299.0,0.25,89,124.0
4183,E4,299.0,117/1000,89,124.0
4184,E4,299.0,121/500,83,124.0
4185,E5,299.0,121/500,83,124.0
4186,D4,299.25,123/250,83,124.0
4187,D5,299.25,123/250,83,124.0
4188,D2,299.492,367/1000,60,124.0
4189,C2,299.5,0.25,78,124.0
4190,E-3,299.5,0.25,74,124.0
4191,E-4,299.5,117/1000,89,124.0
4192,A5,299.5,117/1000,67,124.0
4193,G4,299.917,83/1000,83,124.0
4194,G1,299.992,1/125,85,124.0
4195,G1,300.0,1367/1000,85,124.0
4196,A4,300.0,121/500,83,124.0
4197,G4,300.0,3/40,83,124.0
4198,C2,300.0,0.25,78,124.0
4199,E-3,300.0,0.25,89,124.0
4200,A5,300.0,117/1000,67,124.0
4201,D4,300.0,3.75,82,124.0
4202,B3,300.0,3.75,82,124.0
4203,G3,300.0,3.75,82,124.0
4204,E4,300.25,121/500,83,124.0
4205,F4,300.5,121/500,83,124.0
4206,D2,300.5,1.0,92,124.0
4207,E-3,300.5,0.25,74,124.0
4208,D4,300.5,117/1000,89,124.0
4209,A4,300.75,121/500,83,124.0
4210,C5,301.0,121/500,83,124.0
4211,E-3,301.0,0.25,89,124.0
4212,E4,301.0,117/1000,89,124.0
4213,E5,301.25,121/500,83,124.0
4214,E1,301.367,3/40,50,124.0
4215,G2,301.492,367/1000,60,124.0
4216,G5,301.5,121/500,83,124.0
4217,C2,301.5,0.25,78,124.0
4218,E-3,301.5,0.25,79,124.0
4219,E4,301.5,117/1000,89,124.0
4220,A5,301.5,117/1000,67,124.0
4221,F5,301.75,121/500,83,124.0
4222,E-3,301.75,0.25,74,124.0
4223,E-4,301.833,117/1000,89,124.0
4224,G2,301.992,227/250,85,124.0
4225,E5,302.0,121/500,83,124.0
4226,C2,302.0,0.25,78,124.0
4227,D2,302.0,1.0,92,124.0
4228,E-3,302.0,0.25,89,124.0
4229,E-4,302.0,117/1000,89,124.0
4230,A5,302.0,117/1000,67,124.0
4231,G5,302.25,121/500,83,124.0
4232,A5,302.5,121/500,83,124.0
4233,E-3,302.5,0.25,74,124.0
4234,E-4,302.5,117/1000,89,124.0
4235,B5,302.75,121/500,83,124.0
4236,D2,302.992,227/250,80,124.0
4237,C6,303.0,121/500,83,124.0
4238,E-3,303.0,0.25,89,124.0
4239,D6,303.25,121/500,83,124.0
4240,E6,303.5,121/500,83,124.0
4241,D2,303.5,0.5,92,124.0
4242,E-3,303.5,0.25,74,124.0
4243,E4,303.5,117/1000,89,124.0
4244,F6,303.75,121/500,83,124.0
4245,G1,303.992,1/125,85,124.0
4246,G1,304.0,567/1000,85,124.0
4247,G6,304.0,121/500,83,124.0
4248,C2,304.0,0.25,78,124.0
4249,D2,304.0,0.5,92,124.0
4250,E-3,304.0,0.25,89,124.0
4251,A5,304.0,117/1000,67,124.0
4252,E4,304.0,3.75,82,124.0
4253,A3,304.0,3.75,82,124.0
4254,G3,304.0,3.75,82,124.0
4255,C4,304.0,3.75,82,124.0
4256,D6,304.25,121/500,83,124.0
4257,B5,304.5,121/500,83,124.0
4258,E-3,304.5,0.25,74,124.0
4259,E1,304.742,3/40,50,124.0
4260,G5,304.75,121/500,83,124.0
4261,G2,304.992,367/1000,85,124.0
4262,F6,305.0,121/500,83,124.0
4263,D2,305.0,1.0,92,124.0
4264,E-3,305.0,0.25,89,124.0
4265,D4,305.0,117/1000,89,124.0
4266,C6,305.25,121/500,83,124.0
4267,G1,305.492,9/20,60,124.0
4268,A5,305.5,121/500,83,124.0
4269,C2,305.5,0.25,78,124.0
4270,E-3,305.5,0.25,74,124.0
4271,A5,305.5,117/1000,67,124.0
4272,F5,305.75,121/500,83,124.0
4273,G1,305.992,51/125,80,124.0
4274,E6,306.0,121/500,83,124.0
4275,C2,306.0,0.25,78,124.0
4276,E-3,306.0,0.25,89,124.0
4277,A5,306.0,117/1000,67,124.0
4278,B5,306.25,121/500,83,124.0
4279,G2,306.492,367/1000,85,124.0
4280,G5,306.5,121/500,83,124.0
4281,D2,306.5,1.0,92,124.0
4282,E-3,306.5,0.25,74,124.0
4283,D4,306.5,117/1000,89,124.0
4284,E5,306.75,121/500,83,124.0
4285,D2,306.992,367/1000,75,124.0
4286,D6,307.0,121/500,83,124.0
4287,E-3,307.0,0.25,89,124.0
4288,E4,307.0,117/1000,89,124.0
4289,A5,307.25,121/500,83,124.0
4290,D2,307.492,9/20,60,124.0
4291,F5,307.5,121/500,83,124.0
4292,C2,307.5,0.25,78,124.0
4293,E-3,307.5,0.25,79,124.0
4294,E-4,307.5,117/1000,89,124.0
4295,A5,307.5,117/1000,67,124.0
4296,D5,307.75,121/500,83,124.0
4297,E-3,307.75,0.25,74,124.0
4298,G1,307.992,1/125,85,124.0
4299,G1,308.0,1367/1000,85,124.0
4300,C6,308.0,121/500,83,124.0
4301,C2,308.0,0.25,78,124.0
4302,E-3,308.0,0.25,89,124.0
4303,A5,308.0,117/1000,67,124.0
4304,D4,308.0,3.75,82,124.0
4305,B3,308.0,3.75,82,124.0
4306,G3,308.0,3.75,82,124.0
4307,B5,308.25,121/500,83,124.0
4308,A5,308.5,121/500,83,124.0
4309,D2,308.5,1.0,92,124.0
4310,E-3,308.5,0.25,74,124.0
4311,G#5,308.75,121/500,83,124.0
4312,G5,309.0,121/500,83,124.0
4313,E-3,309.0,0.25,89,124.0
4314,D4,309.0,117/1000,89,124.0
4315,F#5,309.25,121/500,83,124.0
4316,E1,309.367,3/40,50,124.0
4317,D2,309.492,367/1000,60,124.0
4318,F5,309.5,121/500,83,124.0
4319,C2,309.5,0.25,78,124.0
4320,E-3,309.5,0.25,74,124.0
4321,A5,309.5,117/1000,67,124.0
4322,E5,309.75,121/500,83,124.0
4323,D2,309.992,227/250,85,124.0
4324,D5,310.0,121/500,83,124.0
4325,C2,310.0,0.25,78,124.0
4326,D2,310.0,1.0,92,124.0
4327,E-3,310.0,0.25,89,124.0
4328,A5,310.0,117/1000,67,124.0
4329,C5,310.25,121/500,83,124.0
4330,B4,310.5,121/500,83,124.0
4331,E-3,310.5,0.25,74,124.0
4332,E-4,310.5,117/1000,89,124.0
4333,C6,310.5,117/1000,75,124.0
4334,E-4,310.667,117/1000,89,124.0
4335,A4,310.75,121/500,83,124.0
4336,G1,310.992,33/40,85,124.0
4337,G4,311.0,121/500,83,124.0
4338,G2,311.0,1.0,104,124.0
4339,E-3,311.0,0.25,89,124.0
4340,E-4,311.0,117/1000,89,124.0
4341,A4,311.25,121/500,83,124.0
4342,B4,311.5,121/500,83,124.0
4343,E-3,311.5,0.25,74,124.0
4344,E-4,311.5,117/1000,89,124.0
4345,G4,311.75,121/500,83,124.0
4346,C4,311.917,83/1000,110,124.0
4347,C4,311.967,33/1000,66,124.0
4348,C4,311.983,17/1000,127,124.0
4349,C2,311.992,1/125,85,124.0
4350,C2,312.0,1367/1000,85,124.0
4351,C4,312.0,1.0,124,124.0
4352,C4,312.0,967/1000,66,124.0
4353,C4,312.0,917/1000,110,124.0
4354,C4,312.0,9/10,127,124.0
4355,C5,312.0,121/500,83,124.0
4356,C2,312.0,0.25,78,124.0
4357,C#3,312.0,0.25,111,124.0
4358,A4,312.0,117/1000,73,124.0
4359,C4,312.0,93/40,93,124.0
4360,G3,312.0,93/40,93,124.0
4361,A4,312.25,117/1000,48,124.0
4362,A4,312.5,117/1000,73,124.0
4363,E-3,312.583,3/40,89,124.0
4364,A4,312.75,117/1000,48,124.0
4365,E-3,312.833,23/250,74,124.0
4366,E-4,312.917,0.5,110,124.0
4367,E-4,312.967,0.5,66,124.0
4368,E-4,312.983,417/1000,127,124.0
4369,E-4,313.0,53/40,93,124.0
4370,E-4,313.0,0.5,124,124.0
4371,C#2,313.0,1.0,84,124.0
4372,D4,313.0,117/1000,99,124.0
4373,A4,313.0,117/1000,73,124.0
4374,E-3,313.083,117/1000,85,124.0
4375,A4,313.25,117/1000,24,124.0
4376,E1,313.367,3/40,50,124.0
4377,G4,313.417,1.0,110,124.0
4378,G4,313.467,1.0,66,124.0
4379,G4,313.483,917/1000,127,124.0
4380,C3,313.492,51/125,50,124.0
4381,G4,313.5,33/40,93,124.0
4382,G4,313.5,1.0,124,124.0
4383,C2,313.5,0.25,78,124.0
4384,E-3,313.567,0.125,85,124.0
4385,C3,313.992,2/5,85,124.0
4386,C2,314.0,0.25,78,124.0
4387,E-3,314.008,133/1000,74,124.0
4388,C5,314.417,1.0,110,124.0
4389,C5,314.467,1.0,66,124.0
4390,C5,314.483,917/1000,127,124.0
4391,B-2,314.492,9/20,75,124.0
4392,C5,314.5,1.0,124,124.0
4393,C#2,314.5,1.0,84,124.0
4394,E-3,314.5,3/20,94,124.0
4395,D4,314.5,117/1000,99,124.0
4396,C5,314.5,123/250,93,124.0
4397,G4,314.5,123/250,93,124.0
4398,E-4,314.5,123/250,93,124.0
4399,F2,314.992,9/20,70,124.0
4400,E-3,315.0,3/20,77,124.0
4401,B-4,315.417,583/1000,110,124.0
4402,B-4,315.467,533/1000,66,124.0
4403,E-3,315.475,117/1000,85,124.0
4404,B-4,315.483,517/1000,127,124.0
4405,G2,315.492,127/250,60,124.0
4406,B-4,315.5,0.5,124,124.0
4407,C2,315.5,0.25,78,124.0
4408,E4,315.5,117/1000,89,124.0
4409,G4,315.5,0.5,93,124.0
4410,B-4,315.5,0.5,93,124.0
4411,D4,315.5,0.5,93,124.0
4412,C6,315.992,1.0,42,124.0
4413,C5,315.992,1.0,42,124.0
4414,G2,316.0,51/40,60,124.0
4415,B-4,316.0,0.5,124,124.0
4416,B-4,316.0,467/1000,66,124.0
4417,B-4,316.0,417/1000,110,124.0
4418,B-4,316.0,2/5,127,124.0
4419,C2,316.0,0.25,78,124.0
4420,E-3,316.0,0.25,89,124.0
4421,E-4,316.0,117/1000,89,124.0
4422,G4,316.0,13/40,93,124.0
4423,B-4,316.0,13/40,93,124.0
4424,D4,316.0,13/40,93,124.0
4425,G4,316.417,1.0,110,124.0
4426,G4,316.467,1.0,66,124.0
4427,G4,316.483,917/1000,127,124.0
4428,G4,316.5,1.0,124,124.0
4429,C#2,316.5,1.0,84,124.0
4430,E-3,316.5,0.25,74,124.0
4431,E-4,316.5,117/1000,89,124.0
4432,B-3,316.5,123/250,93,124.0
4433,D4,316.5,123/250,93,124.0
4434,G4,316.5,123/250,93,124.0
4435,E-6,316.992,0.5,42,124.0
4436,E-5,316.992,0.5,42,124.0
4437,E-3,317.0,0.25,89,124.0
4438,D4,317.0,117/1000,89,124.0
4439,E1,317.367,3/40,50,124.0
4440,D4,317.417,1.0,110,124.0
4441,D4,317.467,1.0,66,124.0
4442,D4,317.483,917/1000,127,124.0
4443,D2,317.492,367/1000,60,124.0
4444,G6,317.492,1.0,42,124.0
4445,G5,317.492,1.0,42,124.0
4446,G3,317.5,2.25,93,124.0
4447,D4,317.5,1.0,93,124.0
4448,B-3,317.5,73/40,93,124.0
4449,D4,317.5,1.0,124,124.0
4450,C2,317.5,0.25,78,124.0
4451,E-3,317.5,0.25,79,124.0
4452,E-3,317.75,0.25,74,124.0
4453,G1,317.992,227/250,85,124.0
4454,C2,318.0,0.25,78,124.0
4455,G3,318.0,0.25,116,124.0
4456,E-4,318.417,0.5,110,124.0
4457,E-4,318.467,0.5,66,124.0
4458,E-4,318.483,417/1000,127,124.0
4459,C7,318.492,1.0,42,124.0
4460,C6,318.492,1.0,42,124.0
4461,E-4,318.5,123/250,93,124.0
4462,E-4,318.5,0.5,124,124.0
4463,E-3,318.5,0.25,74,124.0
4464,D4,318.5,117/1000,89,124.0
4465,D4,318.917,0.5,110,124.0
4466,D4,318.967,0.5,66,124.0
4467,D4,318.983,417/1000,127,124.0
4468,B-1,318.992,227/250,85,124.0
4469,D4,319.0,0.5,93,124.0
4470,D4,319.0,0.5,124,124.0
4471,D2,319.0,1.0,92,124.0
4472,E-3,319.0,0.25,89,124.0
4473,E4,319.0,117/1000,89,124.0
4474,B-3,319.417,0.5,110,124.0
4475,B-3,319.467,0.5,66,124.0
4476,B-3,319.483,417/1000,117,124.0
4477,B-6,319.492,0.5,42,124.0
4478,B-5,319.492,0.5,42,124.0
4479,B-3,319.5,0.25,93,124.0
4480,B-3,319.5,0.5,114,124.0
4481,E-3,319.5,0.25,74,124.0
4482,E4,319.5,117/1000,89,124.0
4483,C4,319.917,83/1000,110,124.0
4484,C4,319.967,33/1000,66,124.0
4485,C4,319.983,17/1000,127,124.0
4486,G#1,319.992,1/125,85,124.0
4487,G#1,320.0,1367/1000,85,124.0
4488,C4,320.0,1.0,124,124.0
4489,C4,320.0,967/1000,66,124.0
4490,C4,320.0,917/1000,110,124.0
4491,C4,320.0,9/10,127,124.0
4492,C2,320.0,0.25,78,124.0
4493,E-3,320.0,0.25,89,124.0
4494,A4,320.0,117/1000,73,124.0
4495,G#3,320.0,93/40,93,124.0
4496,C4,320.0,93/40,93,124.0
4497,A4,320.25,117/1000,48,124.0
4498,B-6,320.492,0.5,42,124.0
4499,B-5,320.492,0.5,42,124.0
4500,E-3,320.5,0.25,74,124.0
4501,A4,320.5,117/1000,73,124.0
4502,A4,320.75,117/1000,48,124.0
4503,E-4,320.917,0.5,110,124.0
4504,E-4,320.967,0.5,66,124.0
4505,E-4,320.983,417/1000,127,124.0
4506,G6,320.992,1.0,42,124.0
4507,G5,320.992,1.0,42,124.0
4508,E-4,321.0,53/40,93,124.0
4509,E-4,321.0,0.5,124,124.0
4510,C#2,321.0,1.0,84,124.0
4511,E-3,321.0,0.25,89,124.0
4512,D4,321.0,117/1000,89,124.0
4513,A4,321.0,117/1000,73,124.0
4514,A4,321.25,117/1000,24,124.0
4515,E1,321.367,3/40,50,124.0
4516,G4,321.417,124/125,110,124.0
4517,G4,321.467,124/125,66,124.0
4518,G4,321.483,917/1000,127,124.0
4519,G#1,321.492,367/1000,60,124.0
4520,G4,321.5,33/40,93,124.0
4521,G4,321.5,1.0,124,124.0
4522,C2,321.5,0.25,78,124.0
4523,E-3,321.5,0.25,74,124.0
4524,G#1,321.992,1.375,85,124.0
4525,D6,321.992,1.0,42,124.0
4526,D5,321.992,1.0,42,124.0
4527,C2,322.0,0.25,78,124.0
4528,E-3,322.0,0.25,89,124.0
4529,C5,322.417,124/125,110,124.0
4530,C5,322.467,124/125,66,124.0
4531,C5,322.483,917/1000,127,124.0
4532,C5,322.5,1.0,124,124.0
4533,C#2,322.5,1.0,84,124.0
4534,E-3,322.5,0.25,74,124.0
4535,D4,322.5,117/1000,89,124.0
4536,G4,322.5,0.5,93,124.0
4537,E-4,322.5,0.5,93,124.0
4538,C5,322.5,0.5,93,124.0
4539,E-6,322.992,0.5,42,124.0
4540,E-5,322.992,0.5,42,124.0
4541,E-3,323.0,0.25,89,124.0
4542,E4,323.0,117/1000,89,124.0
4543,E1,323.367,3/40,50,124.0
4544,D5,323.417,583/1000,110,124.0
4545,D5,323.467,533/1000,66,124.0
4546,D5,323.483,517/1000,127,124.0
4547,E-2,323.492,127/250,60,124.0
4548,D6,323.492,0.5,42,124.0
4549,D5,323.492,0.5,42,124.0
4550,D5,323.5,0.5,124,124.0
4551,C2,323.5,0.25,78,124.0
4552,E-3,323.5,0.25,74,124.0
4553,E-4,323.5,117/1000,89,124.0
4554,D5,323.5,0.5,93,124.0
4555,B-4,323.5,0.5,93,124.0
4556,F4,323.5,0.5,93,124.0
4557,B-5,323.992,0.5,42,124.0
4558,B-4,323.992,0.5,42,124.0
4559,E-2,324.0,51/40,60,124.0
4560,D5,324.0,0.5,124,124.0
4561,D5,324.0,467/1000,66,124.0
4562,D5,324.0,417/1000,110,124.0
4563,D5,324.0,2/5,127,124.0
4564,C2,324.0,0.25,78,124.0
4565,E-3,324.0,0.25,89,124.0
4566,D5,324.0,13/40,93,124.0
4567,B-4,324.0,13/40,93,124.0
4568,F4,324.0,13/40,93,124.0
4569,B-4,324.417,1.0,110,124.0
4570,B-4,324.467,1.0,66,124.0
4571,B-4,324.483,917/1000,127,124.0
4572,C6,324.492,1.0,42,124.0
4573,C5,324.492,1.0,42,124.0
4574,B-4,324.5,1.0,124,124.0
4575,C#2,324.5,1.0,84,124.0
4576,E-3,324.5,0.25,74,124.0
4577,D4,324.5,117/1000,89,124.0
4578,D4,324.5,0.5,93,124.0
4579,G4,324.5,0.5,93,124.0
4580,B-4,324.5,0.5,93,124.0
4581,E-3,325.0,0.25,89,124.0
4582,E4,325.0,117/1000,89,124.0
4583,E1,325.367,3/40,50,124.0
4584,G4,325.417,621/500,110,124.0
4585,G4,325.467,621/500,66,124.0
4586,G4,325.483,579/500,117,124.0
4587,E-2,325.492,367/1000,60,124.0
4588,E-6,325.492,0.5,42,124.0
4589,E-5,325.492,0.5,42,124.0
4590,G4,325.5,621/500,114,124.0
4591,C2,325.5,0.25,78,124.0
4592,E-3,325.5,0.25,74,124.0
4593,E4,325.5,117/1000,89,124.0
4594,D4,325.5,53/40,93,124.0
4595,G4,325.5,53/40,93,124.0
4596,B-3,325.5,53/40,93,124.0
4597,B-1,325.992,227/250,85,124.0
4598,G6,325.992,124/125,42,124.0
4599,G5,325.992,124/125,42,124.0
4600,C2,326.0,0.25,78,124.0
4601,C#2,326.0,1.0,84,124.0
4602,E-3,326.0,0.25,89,124.0
4603,E-4,326.0,117/1000,89,124.0
4604,E-3,326.5,0.25,79,124.0
4605,E-3,326.75,0.25,74,124.0
4606,C5,326.917,0.5,110,124.0
4607,C5,326.967,0.5,66,124.0
4608,C5,326.983,417/1000,127,124.0
4609,E-2,326.992,33/40,85,124.0
4610,C7,326.992,124/125,42,124.0
4611,C6,326.992,124/125,42,124.0
4612,C5,327.0,0.5,124,124.0
4613,E-3,327.0,0.25,89,124.0
4614,D4,327.0,117/1000,89,124.0
4615,F#3,327.0,117/1000,116,124.0
4616,G4,327.0,0.5,93,124.0
4617,C5,327.0,0.5,93,124.0
4618,D5,327.417,0.5,110,124.0
4619,D5,327.467,0.5,66,124.0
4620,D5,327.483,417/1000,127,124.0
4621,D5,327.5,13/40,93,124.0
4622,D5,327.5,0.5,124,124.0
4623,E-3,327.5,0.25,74,124.0
4624,E-5,327.917,83/1000,110,124.0
4625,E-5,327.967,33/1000,66,124.0
4626,E-5,327.983,17/1000,127,124.0
4627,F1,327.992,1/125,85,124.0
4628,D7,327.992,0.5,42,124.0
4629,D6,327.992,0.5,42,124.0
4630,F1,328.0,1367/1000,85,124.0
4631,E-5,328.0,1.0,124,124.0
4632,E-5,328.0,967/1000,66,124.0
4633,E-5,328.0,917/1000,110,124.0
4634,E-5,328.0,9/10,127,124.0
4635,C2,328.0,0.25,78,124.0
4636,E-3,328.0,0.25,89,124.0
4637,A4,328.0,117/1000,73,124.0
4638,G4,328.0,33/40,93,124.0
4639,C5,328.0,33/40,93,124.0
4640,E-5,328.0,33/40,93,124.0
4641,A4,328.25,117/1000,48,124.0
4642,D7,328.492,0.5,42,124.0
4643,D6,328.492,0.5,42,124.0
4644,E-3,328.5,0.25,74,124.0
4645,A4,328.5,117/1000,73,124.0
4646,A4,328.75,117/1000,48,124.0
4647,D5,328.917,0.5,110,124.0
4648,D5,328.967,0.5,66,124.0
4649,D5,328.983,417/1000,127,124.0
4650,B-6,328.992,1.0,42,124.0
4651,B-5,328.992,1.0,42,124.0
4652,D5,329.0,0.5,124,124.0
4653,C#2,329.0,1.0,84,124.0
4654,E-3,329.0,0.25,89,124.0
4655,D4,329.0,117/1000,89,124.0
4656,A4,329.0,117/1000,73,124.0
4657,D5,329.0,13/40,93,124.0
4658,F4,329.0,13/40,93,124.0
4659,B-4,329.0,13/40,93,124.0
4660,A4,329.25,117/1000,24,124.0
4661,E1,329.367,3/40,50,124.0
4662,C5,329.417,1.0,110,124.0
4663,C5,329.467,1.0,66,124.0
4664,C5,329.483,917/1000,117,124.0
4665,C2,329.492,124/125,60,124.0
4666,C5,329.5,1.0,114,124.0
4667,C2,329.5,0.25,78,124.0
4668,E-3,329.5,0.25,74,124.0
4669,C5,329.5,0.75,93,124.0
4670,G4,329.5,0.75,93,124.0
4671,E-4,329.5,0.75,93,124.0
4672,G6,329.992,621/500,42,124.0
4673,G5,329.992,621/500,42,124.0
4674,C2,330.0,0.25,78,124.0
4675,E-3,330.0,0.25,89,124.0
4676,B-4,330.417,1.0,110,124.0
4677,B-4,330.467,1.0,66,124.0
4678,B-4,330.483,917/1000,127,124.0
4679,F1,330.492,417/1000,85,124.0
4680,B-4,330.5,1.0,124,124.0
4681,C#2,330.5,1.0,84,124.0
4682,E-3,330.5,0.25,74,124.0
4683,D4,330.5,117/1000,89,124.0
4684,D4,330.5,0.75,93,124.0
4685,F4,330.5,0.75,93,124.0
4686,B-4,330.5,0.75,93,124.0
4687,F#1,330.992,123/250,85,124.0
4688,E-3,331.0,0.25,89,124.0
4689,E4,331.0,117/1000,89,124.0
4690,G4,331.417,583/1000,110,124.0
4691,G4,331.467,533/1000,66,124.0
4692,G4,331.483,517/1000,127,124.0
4693,G1,331.492,127/250,85,124.0
4694,C7,331.492,0.5,42,124.0
4695,C6,331.492,0.5,42,124.0
4696,D4,331.5,0.5,93,124.0
4697,G4,331.5,0.5,124,124.0
4698,C2,331.5,0.25,78,124.0
4699,E-3,331.5,0.25,74,124.0
4700,E-4,331.5,117/1000,89,124.0
4701,B-3,331.5,0.5,93,124.0
4702,G4,331.5,0.5,93,124.0
4703,D7,331.992,0.5,42,124.0
4704,D6,331.992,0.5,42,124.0
4705,D4,332.0,13/40,93,124.0
4706,G1,332.0,51/40,85,124.0
4707,G4,332.0,0.5,124,124.0
4708,G4,332.0,467/1000,66,124.0
4709,G4,332.0,417/1000,110,124.0
4710,G4,332.0,2/5,127,124.0
4711,C2,332.0,0.25,78,124.0
4712,E-3,332.0,0.25,89,124.0
4713,B-3,332.0,53/40,93,124.0
4714,G4,332.0,53/40,93,124.0
4715,E-4,332.417,1.0,110,124.0
4716,E-4,332.467,1.0,66,124.0
4717,E-4,332.483,917/1000,127,124.0
4718,E-7,332.492,1.0,42,124.0
4719,E-6,332.492,1.0,42,124.0
4720,E-4,332.5,33/40,93,124.0
4721,E-4,332.5,1.0,124,124.0
4722,C#2,332.5,1.0,84,124.0
4723,E-3,332.5,0.25,74,124.0
4724,D4,332.5,117/1000,89,124.0
4725,E-3,333.0,0.25,89,124.0
4726,E-4,333.0,117/1000,89,124.0
4727,E1,333.367,3/40,50,124.0
4728,F4,333.417,1.5,110,124.0
4729,F4,333.467,1.5,66,124.0
4730,F4,333.483,1417/1000,127,124.0
4731,D2,333.492,367/1000,60,124.0
4732,D7,333.492,0.5,42,124.0
4733,D6,333.492,0.5,42,124.0
4734,F4,333.5,1.5,93,124.0
4735,F4,333.5,1.5,124,124.0
4736,C2,333.5,0.25,78,124.0
4737,E-3,333.5,0.25,74,124.0
4738,E4,333.5,117/1000,89,124.0
4739,D4,333.5,2.25,93,124.0
4740,B-3,333.5,2.25,93,124.0
4741,D2,333.992,227/250,85,124.0
4742,C7,333.992,1.0,42,124.0
4743,C6,333.992,1.0,42,124.0
4744,C2,334.0,0.25,78,124.0
4745,C#2,334.0,1.0,84,124.0
4746,G3,334.0,0.25,116,124.0
4747,E-4,334.0,117/1000,89,124.0
4748,E-4,334.167,117/1000,89,124.0
4749,E-3,334.5,0.25,74,124.0
4750,E-4,334.5,117/1000,89,124.0
4751,B-4,334.917,1.0,110,124.0
4752,B-4,334.967,1.0,66,124.0
4753,B-4,334.983,917/1000,127,124.0
4754,G1,334.992,227/250,85,124.0
4755,B-6,334.992,1.0,42,124.0
4756,B-5,334.992,1.0,42,124.0
4757,B-4,335.0,371/500,93,124.0
4758,B-4,335.0,1.0,124,124.0
4759,D2,335.0,1.0,92,124.0
4760,E-3,335.0,0.25,89,124.0
4761,E-4,335.0,117/1000,89,124.0
4762,E-3,335.5,0.25,74,124.0
4763,E4,335.5,117/1000,89,124.0
4764,D4,335.917,83/1000,110,124.0
4765,D4,335.967,33/1000,66,124.0
4766,D4,335.983,17/1000,127,124.0
4767,G#1,335.992,1/125,85,124.0
4768,G6,335.992,0.5,42,124.0
4769,G5,335.992,0.5,42,124.0
4770,G#1,336.0,1367/1000,85,124.0
4771,D4,336.0,373/250,127,124.0
4772,D4,336.0,467/1000,66,124.0
4773,D4,336.0,417/1000,110,124.0
4774,D4,336.0,174/125,127,124.0
4775,C2,336.0,0.25,78,124.0
4776,E-3,336.0,0.25,89,124.0
4777,E-4,336.0,117/1000,89,124.0
4778,A4,336.0,117/1000,73,124.0
4779,B-3,336.0,53/40,93,124.0
4780,D4,336.0,53/40,93,124.0
4781,F3,336.0,53/40,93,124.0
4782,A4,336.25,117/1000,48,124.0
4783,E-4,336.417,0.5,110,124.0
4784,E-4,336.467,0.5,66,124.0
4785,E-3,336.5,0.25,74,124.0
4786,A4,336.5,117/1000,73,124.0
4787,A4,336.75,117/1000,48,124.0
4788,D4,336.917,0.5,110,124.0
4789,D4,336.967,0.5,66,124.0
4790,G6,336.992,0.5,42,124.0
4791,G5,336.992,0.5,42,124.0
4792,C#2,337.0,1.0,84,124.0
4793,E-3,337.0,0.25,89,124.0
4794,D4,337.0,117/1000,89,124.0
4795,A4,337.0,117/1000,73,124.0
4796,A4,337.25,117/1000,24,124.0
4797,E1,337.367,3/40,50,124.0
4798,C4,337.417,2583/1000,110,124.0
4799,C4,337.467,2533/1000,66,124.0
4800,C4,337.483,2517/1000,107,124.0
4801,G#2,337.492,227/250,60,124.0
4802,E-6,337.492,1.0,42,124.0
4803,E-5,337.492,1.0,42,124.0
4804,E-4,337.5,33/40,93,124.0
4805,C4,337.5,2.5,104,124.0
4806,C2,337.5,0.25,78,124.0
4807,E-3,337.5,0.25,74,124.0
4808,C4,337.5,1.75,93,124.0
4809,G#3,337.5,1.75,93,124.0
4810,C2,338.0,0.25,78,124.0
4811,E-3,338.0,0.25,89,124.0
4812,G#1,338.492,367/1000,85,124.0
4813,F6,338.492,1.5,42,124.0
4814,F5,338.492,1.5,42,124.0
4815,E-4,338.5,0.75,93,124.0
4816,C#2,338.5,1.0,84,124.0
4817,E-3,338.5,0.25,74,124.0
4818,D4,338.5,117/1000,89,124.0
4819,E-2,338.992,367/1000,75,124.0
4820,E-3,339.0,0.25,89,124.0
4821,E4,339.0,117/1000,89,124.0
4822,G#1,339.492,127/250,60,124.0
4823,D4,339.5,0.5,93,124.0
4824,C2,339.5,0.25,78,124.0
4825,E-3,339.5,0.25,74,124.0
4826,E-4,339.5,117/1000,89,124.0
4827,B-3,339.5,0.5,93,124.0
4828,F3,339.5,0.5,93,124.0
4829,B-6,339.992,1.0,42,124.0
4830,B-5,339.992,1.0,42,124.0
4831,D4,340.0,0.5,93,124.0
4832,G#1,340.0,1233/1000,60,124.0
4833,C4,340.0,3.0,104,124.0
4834,C4,340.0,467/1000,66,124.0
4835,C4,340.0,417/1000,110,124.0
4836,C4,340.0,29/10,107,124.0
4837,C2,340.0,0.25,78,124.0
4838,E-3,340.0,0.25,89,124.0
4839,B-3,340.0,53/40,93,124.0
4840,F3,340.0,53/40,93,124.0
4841,F4,340.5,33/40,93,124.0
4842,C#2,340.5,1.0,84,124.0
4843,E-3,340.5,0.25,79,124.0
4844,D4,340.5,117/1000,89,124.0
4845,E-5,340.5,117/1000,64,124.0
4846,E-3,340.75,0.25,74,124.0
4847,E-5,340.75,117/1000,64,124.0
4848,D6,340.992,0.5,42,124.0
4849,D5,340.992,0.5,42,124.0
4850,E-3,341.0,0.25,89,124.0
4851,E4,341.0,117/1000,89,124.0
4852,E-5,341.0,117/1000,64,124.0
4853,E1,341.367,3/40,50,124.0
4854,E-2,341.492,123/250,60,124.0
4855,E-6,341.492,0.5,42,124.0
4856,E-5,341.492,0.5,42,124.0
4857,C2,341.5,0.25,78,124.0
4858,E-3,341.5,0.25,74,124.0
4859,E4,341.5,117/1000,89,124.0
4860,E-5,341.5,117/1000,64,124.0
4861,C#6,341.5,117/1000,94,124.0
4862,C4,341.5,2.25,93,124.0
4863,E-4,341.5,2.25,93,124.0
4864,G#3,341.5,2.25,93,124.0
4865,C#6,341.625,117/1000,74,124.0
4866,C#6,341.75,117/1000,84,124.0
4867,C#6,341.875,117/1000,74,124.0
4868,G2,341.992,417/1000,85,124.0
4869,D6,341.992,0.5,42,124.0
4870,D5,341.992,0.5,42,124.0
4871,C2,342.0,0.25,78,124.0
4872,E-3,342.0,0.25,89,124.0
4873,E-4,342.0,117/1000,89,124.0
4874,E-5,342.0,117/1000,64,124.0
4875,C#6,342.0,117/1000,104,124.0
4876,F2,342.492,2/5,85,124.0
4877,C6,342.492,2.5,42,124.0
4878,C5,342.492,2.5,42,124.0
4879,E-3,342.5,0.25,74,124.0
4880,D4,342.5,117/1000,89,124.0
4881,C#6,342.5,117/1000,74,124.0
4882,E-4,342.917,0.5,110,124.0
4883,E-4,342.967,0.5,66,124.0
4884,E-4,342.983,417/1000,127,124.0
4885,E-2,342.992,417/1000,85,124.0
4886,E-4,343.0,0.5,124,124.0
4887,F2,343.0,1.0,104,124.0
4888,E-3,343.0,0.25,89,124.0
4889,C#6,343.0,117/1000,104,124.0
4890,D4,343.417,0.5,110,124.0
4891,D4,343.467,0.5,66,124.0
4892,D4,343.483,417/1000,127,124.0
4893,D2,343.492,123/250,60,124.0
4894,D4,343.5,0.5,124,124.0
4895,E-3,343.5,0.25,74,124.0
4896,D4,343.5,117/1000,89,124.0
4897,C4,343.917,83/1000,110,124.0
4898,C4,343.967,33/1000,66,124.0
4899,C4,343.983,17/1000,127,124.0
4900,C2,343.992,1/125,85,124.0
4901,C2,344.0,1367/1000,85,124.0
4902,C4,344.0,1.0,124,124.0
4903,C4,344.0,967/1000,66,124.0
4904,C4,344.0,917/1000,110,124.0
4905,C4,344.0,9/10,127,124.0
4906,C2,344.0,0.25,78,124.0
4907,C#3,344.0,0.25,111,124.0
4908,A4,344.0,117/1000,73,124.0
4909,C4,344.0,93/40,93,124.0
4910,G3,344.0,93/40,93,124.0
4911,A4,344.25,117/1000,48,124.0
4912,E-3,344.5,0.25,74,124.0
4913,A4,344.5,117/1000,73,124.0
4914,A4,344.75,117/1000,48,124.0
4915,E-4,344.917,123/250,110,124.0
4916,E-4,344.967,123/250,66,124.0
4917,E-4,344.983,51/125,127,124.0
4918,E-4,345.0,53/40,93,124.0
4919,E-4,345.0,123/250,124,124.0
4920,C#2,345.0,1.0,84,124.0
4921,E-3,345.0,0.25,89,124.0
4922,D4,345.0,117/1000,89,124.0
4923,A4,345.0,117/1000,73,124.0
4924,A4,345.25,117/1000,24,124.0
4925,E1,345.367,3/40,50,124.0
4926,G4,345.417,1.0,110,124.0
4927,G4,345.467,1.0,66,124.0
4928,G4,345.483,917/1000,117,124.0
4929,C3,345.492,367/1000,60,124.0
4930,C6,345.492,0.5,42,124.0
4931,C5,345.492,0.5,42,124.0
4932,G4,345.5,33/40,93,124.0
4933,G4,345.5,1.0,114,124.0
4934,C2,345.5,0.25,78,124.0
4935,E-3,345.5,0.25,74,124.0
4936,C3,345.992,123/250,85,124.0
4937,C2,346.0,0.25,78,124.0
4938,E-3,346.0,0.25,89,124.0
4939,C5,346.417,1.0,110,124.0
4940,C5,346.467,1.0,66,124.0
4941,C5,346.483,917/1000,127,124.0
4942,B-2,346.492,123/250,85,124.0
4943,C5,346.5,1.0,124,124.0
4944,C#2,346.5,1.0,84,124.0
4945,E-3,346.5,0.25,74,124.0
4946,D4,346.5,117/1000,89,124.0
4947,C5,346.5,123/250,93,124.0
4948,G4,346.5,123/250,93,124.0
4949,E-4,346.5,123/250,93,124.0
4950,F2,346.992,123/250,70,124.0
4951,E-3,347.0,0.25,89,124.0
4952,E4,347.0,117/1000,89,124.0
4953,B-4,347.417,583/1000,110,124.0
4954,B-4,347.467,533/1000,66,124.0
4955,B-4,347.483,517/1000,127,124.0
4956,G2,347.492,127/250,60,124.0
4957,B-4,347.5,0.5,124,124.0
4958,C2,347.5,0.25,78,124.0
4959,E-3,347.5,0.25,74,124.0
4960,E-4,347.5,117/1000,89,124.0
4961,G4,347.5,0.5,93,124.0
4962,B-4,347.5,0.5,93,124.0
4963,D4,347.5,0.5,93,124.0
4964,G2,348.0,1233/1000,60,124.0
4965,B-4,348.0,0.5,124,124.0
4966,B-4,348.0,467/1000,66,124.0
4967,B-4,348.0,417/1000,110,124.0
4968,B-4,348.0,2/5,127,124.0
4969,C2,348.0,0.25,78,124.0
4970,E-3,348.0,0.25,89,124.0
4971,G4,348.0,121/500,93,124.0
4972,B-4,348.0,121/500,93,124.0
4973,D4,348.0,121/500,93,124.0
4974,G4,348.417,1.0,110,124.0
4975,G4,348.467,1.0,66,124.0
4976,G4,348.483,917/1000,127,124.0
4977,E-6,348.492,0.5,42,124.0
4978,E-5,348.492,0.5,42,124.0
4979,G4,348.5,1.0,124,124.0
4980,C#2,348.5,1.0,84,124.0
4981,E-3,348.5,0.25,74,124.0
4982,D4,348.5,117/1000,89,124.0
4983,B-3,348.5,123/250,93,124.0
4984,D4,348.5,123/250,93,124.0
4985,G4,348.5,123/250,93,124.0
4986,D6,348.992,0.5,42,124.0
4987,D5,348.992,0.5,42,124.0
4988,E-3,349.0,0.25,89,124.0
4989,E-4,349.0,117/1000,89,124.0
4990,E1,349.367,3/40,50,124.0
4991,D4,349.417,1.0,110,124.0
4992,D4,349.467,1.0,66,124.0
4993,D4,349.483,917/1000,127,124.0
4994,D2,349.492,367/1000,60,124.0
4995,C6,349.492,1.0,42,124.0
4996,C5,349.492,1.0,42,124.0
4997,G3,349.5,2.25,93,124.0
4998,D4,349.5,1.0,93,124.0
4999,B-3,349.5,73/40,93,124.0
5000,D4,349.5,1.0,124,124.0
5001,C2,349.5,0.25,78,124.0
5002,E-3,349.5,0.25,79,124.0
5003,E4,349.5,117/1000,89,124.0
5004,E-3,349.75,0.25,74,124.0
5005,G1,349.992,227/250,85,124.0
5006,C2,350.0,0.25,78,124.0
5007,C#2,350.0,1.0,84,124.0
5008,G3,350.0,0.25,116,124.0
5009,E-4,350.0,117/1000,89,124.0
5010,E-4,350.417,0.5,110,124.0
5011,E-4,350.467,0.5,66,124.0
5012,E-4,350.483,417/1000,117,124.0
5013,E-6,350.492,123/250,42,124.0
5014,E-5,350.492,123/250,42,124.0
5015,E-4,350.5,123/250,93,124.0
5016,E-4,350.5,0.5,114,124.0
5017,E-3,350.5,0.25,74,124.0
5018,D4,350.917,0.5,110,124.0
5019,D4,350.967,0.5,66,124.0
5020,D4,350.983,417/1000,127,124.0
5021,B-1,350.992,227/250,85,124.0
5022,G6,350.992,1.0,42,124.0
5023,G5,350.992,1.0,42,124.0
5024,D4,351.0,0.5,93,124.0
5025,D4,351.0,0.5,124,124.0
5026,D2,351.0,1.0,92,124.0
5027,E-3,351.0,0.25,89,124.0
5028,D4,351.0,117/1000,89,124.0
5029,B-3,351.417,0.5,110,124.0
5030,B-3,351.467,0.5,66,124.0
5031,B-3,351.483,417/1000,127,124.0
5032,B-3,351.5,0.25,93,124.0
5033,B-3,351.5,0.5,124,124.0
5034,E-3,351.5,0.25,74,124.0
5035,C4,351.917,83/1000,110,124.0
5036,C4,351.967,33/1000,66,124.0
5037,C4,351.983,17/1000,127,124.0
5038,G#1,351.992,1/125,85,124.0
5039,C7,351.992,1.0,42,124.0
5040,C6,351.992,1.0,42,124.0
5041,G#1,352.0,1367/1000,85,124.0
5042,C4,352.0,1.0,124,124.0
5043,C4,352.0,967/1000,66,124.0
5044,C4,352.0,917/1000,110,124.0
5045,C4,352.0,9/10,127,124.0
5046,C2,352.0,0.25,78,124.0
5047,E-3,352.0,0.25,89,124.0
5048,A4,352.0,117/1000,73,124.0
5049,G#3,352.0,93/40,93,124.0
5050,C4,352.0,93/40,93,124.0
5051,A4,352.25,117/1000,48,124.0
5052,E-3,352.5,0.25,74,124.0
5053,A4,352.5,117/1000,73,124.0
5054,A4,352.75,117/1000,48,124.0
5055,E-4,352.917,0.5,110,124.0
5056,E-4,352.967,0.5,66,124.0
5057,E-4,352.983,417/1000,127,124.0
5058,B-6,352.992,0.5,42,124.0
5059,B-5,352.992,0.5,42,124.0
5060,E-4,353.0,53/40,93,124.0
5061,E-4,353.0,0.5,124,124.0
5062,C#2,353.0,1.0,84,124.0
5063,E-3,353.0,0.25,89,124.0
5064,D4,353.0,117/1000,89,124.0
5065,A4,353.0,117/1000,73,124.0
5066,A4,353.25,117/1000,24,124.0
5067,E1,353.367,3/40,50,124.0
5068,G4,353.417,1.0,110,124.0
5069,G4,353.467,1.0,66,124.0
5070,G4,353.483,917/1000,127,124.0
5071,G#2,353.492,367/1000,60,124.0
5072,B-6,353.492,0.5,42,124.0
5073,B-5,353.492,0.5,42,124.0
5074,G4,353.5,33/40,93,124.0
5075,G4,353.5,1.0,124,124.0
5076,C2,353.5,0.25,78,124.0
5077,E-3,353.5,0.25,74,124.0
5078,G#2,353.992,124/125,85,124.0
5079,G6,353.992,1.0,42,124.0
5080,G5,353.992,1.0,42,124.0
5081,C2,354.0,0.25,78,124.0
5082,E-3,354.0,0.25,89,124.0
5083,C5,354.417,1.0,110,124.0
5084,C5,354.467,1.0,66,124.0
5085,C5,354.483,917/1000,127,124.0
5086,C5,354.5,1.0,124,124.0
5087,C#2,354.5,1.0,84,124.0
5088,E-3,354.5,0.25,74,124.0
5089,D4,354.5,117/1000,89,124.0
5090,G4,354.5,0.5,93,124.0
5091,E-4,354.5,0.5,93,124.0
5092,C5,354.5,0.5,93,124.0
5093,D2,354.992,367/1000,85,124.0
5094,D6,354.992,1.0,42,124.0
5095,D5,354.992,1.0,42,124.0
5096,E-3,355.0,0.25,89,124.0
5097,E4,355.0,117/1000,89,124.0
5098,D5,355.417,583/1000,110,124.0
5099,D5,355.467,533/1000,66,124.0
5100,D5,355.483,517/1000,127,124.0
5101,E-2,355.492,127/250,60,124.0
5102,D5,355.5,0.5,124,124.0
5103,C2,355.5,0.25,78,124.0
5104,E-3,355.5,0.25,74,124.0
5105,E-4,355.5,117/1000,89,124.0
5106,D5,355.5,0.5,93,124.0
5107,B-4,355.5,0.5,93,124.0
5108,F4,355.5,0.5,93,124.0
5109,E-6,355.992,0.5,42,124.0
5110,E-5,355.992,0.5,42,124.0
5111,E-2,356.0,1233/1000,60,124.0
5112,D5,356.0,0.5,124,124.0
5113,D5,356.0,467/1000,66,124.0
5114,D5,356.0,417/1000,110,124.0
5115,D5,356.0,2/5,127,124.0
5116,C2,356.0,0.25,78,124.0
5117,E-3,356.0,0.25,89,124.0
5118,D5,356.0,0.25,93,124.0
5119,B-4,356.0,0.25,93,124.0
5120,F4,356.0,0.25,93,124.0
5121,B-4,356.417,1.0,110,124.0
5122,B-4,356.467,1.0,66,124.0
5123,B-4,356.483,917/1000,127,124.0
5124,D6,356.492,0.5,42,124.0
5125,D5,356.492,0.5,42,124.0
5126,B-4,356.5,1.0,124,124.0
5127,C#2,356.5,1.0,84,124.0
5128,E-3,356.5,0.25,74,124.0
5129,D4,356.5,117/1000,89,124.0
5130,D4,356.5,0.5,93,124.0
5131,G4,356.5,0.5,93,124.0
5132,B-4,356.5,0.5,93,124.0
5133,B-5,356.992,0.5,42,124.0
5134,B-4,356.992,0.5,42,124.0
5135,E-3,357.0,0.25,89,124.0
5136,E4,357.0,117/1000,89,124.0
5137,E1,357.367,3/40,50,124.0
5138,G4,357.417,621/500,110,124.0
5139,G4,357.467,621/500,66,124.0
5140,G4,357.483,579/500,127,124.0
5141,E-2,357.492,367/1000,60,124.0
5142,C6,357.492,1.0,42,124.0
5143,C5,357.492,1.0,42,124.0
5144,G4,357.5,621/500,124,124.0
5145,C2,357.5,0.25,78,124.0
5146,E-3,357.5,0.25,79,124.0
5147,E4,357.5,117/1000,89,124.0
5148,D4,357.5,53/40,93,124.0
5149,G4,357.5,53/40,93,124.0
5150,B-3,357.5,53/40,93,124.0
5151,E-3,357.75,0.25,74,124.0
5152,B-1,357.992,227/250,85,124.0
5153,C2,358.0,0.25,78,124.0
5154,C#2,358.0,1.0,84,124.0
5155,E-3,358.0,0.25,89,124.0
5156,E-4,358.0,117/1000,89,124.0
5157,E-6,358.492,0.5,42,124.0
5158,E-5,358.492,0.5,42,124.0
5159,E-3,358.5,0.25,74,124.0
5160,C5,358.917,0.5,110,124.0
5161,C5,358.967,0.5,66,124.0
5162,C5,358.983,417/1000,127,124.0
5163,E-2,358.992,33/40,85,124.0
5164,G6,358.992,1.0,42,124.0
5165,G5,358.992,1.0,42,124.0
5166,C5,359.0,0.5,124,124.0
5167,D2,359.0,1.0,92,124.0
5168,E-3,359.0,0.25,89,124.0
5169,D4,359.0,117/1000,89,124.0
5170,F#3,359.0,117/1000,116,124.0
5171,G4,359.0,0.5,93,124.0
5172,C5,359.0,0.5,93,124.0
5173,D5,359.417,0.5,110,124.0
5174,D5,359.467,0.5,66,124.0
5175,D5,359.483,417/1000,127,124.0
5176,D5,359.5,13/40,93,124.0
5177,D5,359.5,0.5,124,124.0
5178,E-3,359.5,0.25,74,124.0
5179,E-5,359.917,83/1000,110,124.0
5180,E-4,359.958,21/500,89,124.0
5181,E-4,359.958,21/500,89,124.0
5182,E-5,359.967,33/1000,66,124.0
5183,E-5,359.983,17/1000,117,124.0
5184,F1,359.992,1/125,85,124.0
5185,C7,359.992,1.0,42,124.0
5186,C6,359.992,1.0,42,124.0
5187,F1,360.0,1367/1000,85,124.0
5188,E-5,360.0,1.0,114,124.0
5189,E-5,360.0,967/1000,66,124.0
5190,E-5,360.0,917/1000,110,124.0
5191,E-5,360.0,9/10,117,124.0
5192,C2,360.0,0.25,78,124.0
5193,E-3,360.0,0.25,89,124.0
5194,A4,360.0,117/1000,73,124.0
5195,G4,360.0,33/40,93,124.0
5196,C5,360.0,33/40,93,124.0
5197,E-5,360.0,33/40,93,124.0
5198,E-4,360.0,3/40,89,124.0
5199,E-4,360.0,3/40,89,124.0
5200,A4,360.25,117/1000,48,124.0
5201,E-3,360.5,0.25,74,124.0
5202,A4,360.5,117/1000,73,124.0
5203,A4,360.75,117/1000,48,124.0
5204,D5,360.917,0.5,110,124.0
5205,D5,360.967,0.5,66,124.0
5206,D5,360.983,417/1000,127,124.0
5207,D7,360.992,0.5,42,124.0
5208,D6,360.992,0.5,42,124.0
5209,D5,361.0,0.5,124,124.0
5210,C#2,361.0,1.0,84,124.0
5211,E-3,361.0,0.25,89,124.0
5212,D4,361.0,117/1000,89,124.0
5213,A4,361.0,117/1000,73,124.0
5214,D5,361.0,13/40,93,124.0
5215,F4,361.0,13/40,93,124.0
5216,B-4,361.0,13/40,93,124.0
5217,A4,361.25,117/1000,24,124.0
5218,E1,361.367,3/40,50,124.0
5219,C5,361.417,1.0,110,124.0
5220,C5,361.467,1.0,66,124.0
5221,C5,361.483,917/1000,127,124.0
5222,C2,361.492,124/125,60,124.0
5223,C5,361.5,1.0,124,124.0
5224,C2,361.5,0.25,78,124.0
5225,E-3,361.5,0.25,74,124.0
5226,C5,361.5,0.75,93,124.0
5227,G4,361.5,0.75,93,124.0
5228,E-4,361.5,0.75,93,124.0
5229,D7,361.992,0.5,42,124.0
5230,D6,361.992,0.5,42,124.0
5231,C2,362.0,0.25,78,124.0
5232,E-3,362.0,0.25,89,124.0
5233,B-4,362.417,1.0,110,124.0
5234,B-4,362.467,1.0,66,124.0
5235,B-4,362.483,917/1000,127,124.0
5236,F1,362.492,2/5,85,124.0
5237,B-6,362.492,1.0,42,124.0
5238,B-5,362.492,1.0,42,124.0
5239,B-4,362.5,1.0,124,124.0
5240,C#2,362.5,1.0,84,124.0
5241,E-3,362.5,0.25,74,124.0
5242,D4,362.5,117/1000,89,124.0
5243,G4,362.5,0.75,93,124.0
5244,D4,362.5,0.75,93,124.0
5245,B-4,362.5,0.75,93,124.0
5246,F#1,362.992,123/250,85,124.0
5247,E-3,363.0,0.25,89,124.0
5248,E4,363.0,117/1000,89,124.0
5249,G4,363.417,583/1000,110,124.0
5250,G4,363.467,533/1000,66,124.0
5251,G4,363.483,517/1000,117,124.0
5252,G1,363.492,127/250,60,124.0
5253,G6,363.492,621/500,42,124.0
5254,G5,363.492,621/500,42,124.0
5255,D4,363.5,0.5,93,124.0
5256,G4,363.5,0.5,114,124.0
5257,C2,363.5,0.25,78,124.0
5258,E-3,363.5,0.25,74,124.0
5259,E-4,363.5,117/1000,89,124.0
5260,B-3,363.5,0.5,93,124.0
5261,G4,363.5,0.5,93,124.0
5262,D4,364.0,13/40,93,124.0
5263,G1,364.0,1233/1000,60,124.0
5264,G4,364.0,0.5,114,124.0
5265,G4,364.0,467/1000,66,124.0
5266,G4,364.0,417/1000,110,124.0
5267,G4,364.0,2/5,117,124.0
5268,C2,364.0,0.25,78,124.0
5269,E-3,364.0,0.25,89,124.0
5270,B-3,364.0,53/40,93,124.0
5271,G4,364.0,53/40,93,124.0
5272,E-4,364.417,1.0,110,124.0
5273,E-4,364.467,1.0,66,124.0
5274,E-4,364.483,917/1000,117,124.0
5275,E-4,364.5,33/40,93,124.0
5276,E-4,364.5,1.0,114,124.0
5277,C#2,364.5,1.0,84,124.0
5278,E-3,364.5,0.25,74,124.0
5279,D4,364.5,117/1000,89,124.0
5280,C7,364.992,0.5,42,124.0
5281,C6,364.992,0.5,42,124.0
5282,E-3,365.0,0.25,89,124.0
5283,E4,365.0,117/1000,89,124.0
5284,E1,365.367,3/40,50,124.0
5285,F4,365.417,1.5,110,124.0
5286,F4,365.467,1.5,66,124.0
5287,F4,365.483,1417/1000,127,124.0
5288,D2,365.492,367/1000,60,124.0
5289,D7,365.492,0.5,42,124.0
5290,D6,365.492,0.5,42,124.0
5291,F4,365.5,1.5,93,124.0
5292,F4,365.5,1.5,124,124.0
5293,C2,365.5,0.25,78,124.0
5294,E-3,365.5,0.25,74,124.0
5295,E4,365.5,117/1000,89,124.0
5296,D4,365.5,2.25,93,124.0
5297,B-3,365.5,2.25,93,124.0
5298,E-4,365.833,117/1000,89,124.0
5299,D2,365.992,227/250,85,124.0
5300,E-7,365.992,1.0,42,124.0
5301,E-6,365.992,1.0,42,124.0
5302,C2,366.0,0.25,78,124.0
5303,C#2,366.0,1.0,84,124.0
5304,G3,366.0,0.25,116,124.0
5305,E-4,366.0,117/1000,89,124.0
5306,E-3,366.5,0.25,79,124.0
5307,E-4,366.5,117/1000,89,124.0
5308,E-3,366.75,0.25,74,124.0
5309,B-4,366.917,1.0,110,124.0
5310,B-4,366.967,1.0,66,124.0
5311,B-4,366.983,917/1000,127,124.0
5312,G1,366.992,227/250,85,124.0
5313,D7,366.992,0.5,42,124.0
5314,D6,366.992,0.5,42,124.0
5315,B-4,367.0,371/500,93,124.0
5316,B-4,367.0,1.0,124,124.0
5317,D2,367.0,1.0,92,124.0
5318,E-3,367.0,0.25,89,124.0
5319,C7,367.492,1.0,42,124.0
5320,C6,367.492,1.0,42,124.0
5321,E-3,367.5,0.25,74,124.0
5322,E4,367.5,117/1000,89,124.0
5323,D4,367.917,83/1000,110,124.0
5324,D4,367.967,33/1000,66,124.0
5325,D4,367.983,17/1000,127,124.0
5326,G#1,367.992,1/125,85,124.0
5327,G#1,368.0,1367/1000,85,124.0
5328,D4,368.0,373/250,127,124.0
5329,D4,368.0,467/1000,66,124.0
5330,D4,368.0,417/1000,110,124.0
5331,D4,368.0,174/125,127,124.0
5332,C2,368.0,0.25,78,124.0
5333,E-3,368.0,0.25,89,124.0
5334,A4,368.0,117/1000,73,124.0
5335,B-3,368.0,53/40,93,124.0
5336,D4,368.0,53/40,93,124.0
5337,F3,368.0,53/40,93,124.0
5338,A4,368.25,117/1000,48,124.0
5339,E-4,368.417,0.5,110,124.0
5340,E-4,368.467,0.5,66,124.0
5341,B-6,368.492,1.0,42,124.0
5342,B-5,368.492,1.0,42,124.0
5343,E-3,368.5,0.25,74,124.0
5344,A4,368.5,117/1000,73,124.0
5345,A4,368.75,117/1000,48,124.0
5346,D4,368.917,0.5,110,124.0
5347,D4,368.967,0.5,66,124.0
5348,C#2,369.0,1.0,84,124.0
5349,E-3,369.0,0.25,89,124.0
5350,D4,369.0,117/1000,89,124.0
5351,A4,369.0,117/1000,73,124.0
5352,A4,369.25,117/1000,24,124.0
5353,E1,369.367,3/40,50,124.0
5354,C4,369.417,2583/1000,110,124.0
5355,C4,369.467,2533/1000,66,124.0
5356,C4,369.483,2517/1000,107,124.0
5357,G#2,369.492,227/250,60,124.0
5358,G6,369.492,0.5,42,124.0
5359,G5,369.492,0.5,42,124.0
5360,E-4,369.5,33/40,93,124.0
5361,C4,369.5,2.5,104,124.0
5362,C2,369.5,0.25,78,124.0
5363,E-3,369.5,0.25,74,124.0
5364,C4,369.5,1.75,93,124.0
5365,G#3,369.5,1.75,93,124.0
5366,C2,370.0,0.25,78,124.0
5367,E-3,370.0,0.25,89,124.0
5368,G#2,370.492,123/250,75,124.0
5369,G6,370.492,0.5,42,124.0
5370,G5,370.492,0.5,42,124.0
5371,E-4,370.5,0.75,93,124.0
5372,C#2,370.5,1.0,84,124.0
5373,E-3,370.5,0.25,74,124.0
5374,D4,370.5,117/1000,89,124.0
5375,E-2,370.992,123/250,85,124.0
5376,E-6,370.992,1.0,42,124.0
5377,E-5,370.992,1.0,42,124.0
5378,E-3,371.0,0.25,89,124.0
5379,E4,371.0,117/1000,89,124.0
5380,G#1,371.492,127/250,60,124.0
5381,D4,371.5,0.5,93,124.0
5382,C2,371.5,0.25,78,124.0
5383,E-3,371.5,0.25,74,124.0
5384,E-4,371.5,117/1000,89,124.0
5385,B-3,371.5,0.5,93,124.0
5386,F3,371.5,0.5,93,124.0
5387,F6,371.992,1.5,42,124.0
5388,F5,371.992,1.5,42,124.0
5389,D4,372.0,0.5,93,124.0
5390,G#1,372.0,1233/1000,60,124.0
5391,C4,372.0,3.0,104,124.0
5392,C4,372.0,729/500,66,124.0
5393,C4,372.0,176/125,110,124.0
5394,C4,372.0,29/10,107,124.0
5395,C2,372.0,0.25,78,124.0
5396,E-3,372.0,0.25,89,124.0
5397,B-3,372.0,53/40,93,124.0
5398,F3,372.0,53/40,93,124.0
5399,F4,372.5,33/40,93,124.0
5400,D2,372.5,1.0,92,124.0
5401,E-3,372.5,0.25,74,124.0
5402,E-5,372.5,117/1000,64,124.0
5403,E-5,372.75,117/1000,64,124.0
5404,E-3,373.0,0.25,89,124.0
5405,D4,373.0,117/1000,89,124.0
5406,E-5,373.0,117/1000,64,124.0
5407,E1,373.367,3/40,50,124.0
5408,G#2,373.492,367/1000,60,124.0
5409,B-6,373.492,1.0,42,124.0
5410,B-5,373.492,1.0,42,124.0
5411,C2,373.5,0.25,78,124.0
5412,E-3,373.5,0.25,74,124.0
5413,E-5,373.5,117/1000,64,124.0
5414,C4,373.5,2.25,93,124.0
5415,E-4,373.5,2.25,93,124.0
5416,G#3,373.5,2.25,93,124.0
5417,G#2,373.992,477/250,85,124.0
5418,C2,374.0,0.25,78,124.0
5419,D2,374.0,1.0,92,124.0
5420,E-3,374.0,0.25,89,124.0
5421,E-5,374.0,117/1000,64,124.0
5422,D6,374.492,0.5,42,124.0
5423,D5,374.492,0.5,42,124.0
5424,E-3,374.5,0.25,79,124.0
5425,E-4,374.5,117/1000,89,124.0
5426,E-4,374.667,117/1000,89,124.0
5427,E-3,374.75,0.25,74,124.0
5428,E-6,374.992,0.5,42,124.0
5429,E-5,374.992,0.5,42,124.0
5430,G2,375.0,1.0,104,124.0
5431,E-3,375.0,0.25,89,124.0
5432,E-4,375.0,117/1000,89,124.0
5433,D6,375.492,0.5,42,124.0
5434,D5,375.492,0.5,42,124.0
5435,E-3,375.5,0.25,74,124.0
5436,E-4,375.5,117/1000,89,124.0
5437,G4,375.983,17/1000,127,124.0
5438,C2,375.992,1/125,85,124.0
5439,C6,375.992,2.5,42,124.0
5440,C5,375.992,2.5,42,124.0
5441,C2,376.0,1367/1000,85,124.0
5442,G4,376.0,93/40,124,124.0
5443,G4,376.0,89/40,127,124.0
5444,C2,376.0,0.25,78,124.0
5445,F#2,376.0,0.25,75,124.0
5446,G3,376.0,0.25,111,124.0
5447,B-4,376.0,0.25,67,124.0
5448,A4,376.0,0.25,67,124.0
5449,F#2,376.5,0.25,75,124.0
5450,B-4,376.5,0.25,43,124.0
5451,A4,376.5,0.25,43,124.0
5452,F#2,377.0,0.25,75,124.0
5453,B-3,377.0,43/40,93,124.0
5454,C4,377.0,43/40,93,124.0
5455,G4,377.0,43/40,93,124.0
5456,E-4,377.0,43/40,93,124.0
5457,B-4,377.0,0.25,72,124.0
5458,A4,377.0,0.25,72,124.0
5459,E1,377.367,3/40,50,124.0
5460,G2,377.492,367/1000,60,124.0
5461,C2,377.5,0.25,78,124.0
5462,C#2,377.5,1.0,84,124.0
5463,F#2,377.5,0.25,75,124.0
5464,B-4,377.5,0.25,36,124.0
5465,A4,377.5,0.25,36,124.0
5466,G2,377.992,1.375,85,124.0
5467,C2,378.0,0.25,78,124.0
5468,F#2,378.0,0.25,75,124.0
5469,B-4,378.0,0.25,67,124.0
5470,A4,378.0,0.25,67,124.0
5471,A4,378.483,417/1000,127,124.0
5472,A4,378.5,0.5,124,124.0
5473,F#2,378.5,0.25,75,124.0
5474,G4,378.5,13/40,93,124.0
5475,B-3,378.5,13/40,93,124.0
5476,C4,378.5,13/40,93,124.0
5477,E-4,378.5,13/40,93,124.0
5478,B-4,378.5,0.25,43,124.0
5479,A4,378.5,0.25,43,124.0
5480,B-4,378.983,417/1000,127,124.0
5481,B-4,379.0,0.5,124,124.0
5482,C#2,379.0,1.0,84,124.0
5483,F#2,379.0,0.25,75,124.0
5484,B-4,379.0,0.25,72,124.0
5485,A4,379.0,0.25,72,124.0
5486,E1,379.367,3/40,50,124.0
5487,A4,379.483,517/1000,127,124.0
5488,C2,379.492,367/1000,60,124.0
5489,A4,379.5,0.5,124,124.0
5490,C2,379.5,0.25,78,124.0
5491,F#2,379.5,0.25,75,124.0
5492,F4,379.5,0.5,93,124.0
5493,B-3,379.5,0.5,93,124.0
5494,D4,379.5,0.5,93,124.0
5495,A3,379.5,0.5,93,124.0
5496,B-4,379.5,0.25,36,124.0
5497,A4,379.5,0.25,36,124.0
5498,C6,379.983,373/250,42,124.0
5499,C5,379.983,373/250,42,124.0
5500,C2,379.992,1/125,85,124.0
5501,C2,380.0,1367/1000,85,124.0
5502,A4,380.0,143/40,124,124.0
5503,A4,380.0,139/40,127,124.0
5504,C2,380.0,0.25,78,124.0
5505,F#2,380.0,0.25,75,124.0
5506,F4,380.0,499/125,93,124.0
5507,B-3,380.0,499/125,93,124.0
5508,D4,380.0,499/125,93,124.0
5509,A3,380.0,499/125,93,124.0
5510,B-4,380.0,0.25,67,124.0
5511,A4,380.0,0.25,67,124.0
5512,C#2,380.5,1.0,84,124.0
5513,B-2,380.5,0.25,75,124.0
5514,B-4,380.5,0.25,43,124.0
5515,A4,380.5,0.25,43,124.0
5516,F#2,381.0,0.25,75,124.0
5517,B-4,381.0,0.25,72,124.0
5518,A4,381.0,0.25,72,124.0
5519,E1,381.367,3/40,50,124.0
5520,G2,381.492,367/1000,60,124.0
5521,C2,381.5,0.25,78,124.0
5522,F#2,381.5,0.25,75,124.0
5523,E-5,381.5,0.25,64,124.0
5524,B-4,381.5,0.25,36,124.0
5525,A4,381.5,0.25,36,124.0
5526,G2,381.992,477/250,85,124.0
5527,C2,382.0,0.25,78,124.0
5528,B-2,382.0,0.25,75,124.0
5529,B-4,382.0,0.25,67,124.0
5530,A4,382.0,0.25,67,124.0
5531,F#2,382.5,0.25,75,124.0
5532,B-4,382.5,0.25,43,124.0
5533,A4,382.5,0.25,43,124.0
5534,C#2,383.0,1.0,84,124.0
5535,F#2,383.0,0.25,75,124.0
5536,E-5,383.0,0.25,64,124.0
5537,B-4,383.0,0.25,72,124.0
5538,A4,383.0,0.25,72,124.0
5539,C2,383.5,0.25,78,124.0
5540,B-2,383.5,0.25,75,124.0
5541,B-4,383.5,0.25,36,124.0
5542,A4,383.5,0.25,36,124.0
5543,G4,383.983,17/1000,127,124.0
5544,C2,383.992,1/125,85,124.0
5545,C2,384.0,1367/1000,85,124.0
5546,G4,384.0,124/125,124,124.0
5547,G4,384.0,223/250,127,124.0
5548,C2,384.0,0.25,78,124.0
5549,F#2,384.0,0.25,75,124.0
5550,B-4,384.0,0.25,67,124.0
5551,A4,384.0,0.25,67,124.0
5552,F#2,384.5,0.25,75,124.0
5553,B-4,384.5,0.25,43,124.0
5554,A4,384.5,0.25,43,124.0
5555,F4,384.983,51/125,127,124.0
5556,F4,385.0,123/250,124,124.0
5557,C#2,385.0,1.0,84,124.0
5558,F#2,385.0,0.25,75,124.0
5559,G3,385.0,43/40,93,124.0
5560,C4,385.0,43/40,93,124.0
5561,E-4,385.0,43/40,93,124.0
5562,B-3,385.0,43/40,93,124.0
5563,B-4,385.0,0.25,72,124.0
5564,A4,385.0,0.25,72,124.0
5565,E1,385.367,3/40,50,124.0
5566,E-4,385.483,227/250,127,124.0
5567,G2,385.492,367/1000,60,124.0
5568,E-4,385.5,124/125,124,124.0
5569,C2,385.5,0.25,78,124.0
5570,F#2,385.5,0.25,75,124.0
5571,B-4,385.5,0.25,36,124.0
5572,A4,385.5,0.25,36,124.0
5573,G2,385.992,1.375,85,124.0
5574,C2,386.0,0.25,78,124.0
5575,F#2,386.0,0.25,75,124.0
5576,B-4,386.0,0.25,67,124.0
5577,A4,386.0,0.25,67,124.0
5578,G4,386.483,417/1000,117,124.0
5579,G4,386.5,0.5,114,124.0
5580,C#2,386.5,1.0,84,124.0
5581,F#2,386.5,0.25,75,124.0
5582,G3,386.5,13/40,93,124.0
5583,E-4,386.5,13/40,93,124.0
5584,B-3,386.5,13/40,93,124.0
5585,C4,386.5,13/40,93,124.0
5586,B-4,386.5,0.25,43,124.0
5587,A4,386.5,0.25,43,124.0
5588,E-4,386.983,417/1000,127,124.0
5589,E-4,387.0,0.5,124,124.0
5590,F#2,387.0,0.25,75,124.0
5591,B-4,387.0,0.25,72,124.0
5592,A4,387.0,0.25,72,124.0
5593,E1,387.367,3/40,50,124.0
5594,F4,387.483,517/1000,127,124.0
5595,C2,387.492,367/1000,60,124.0
5596,F4,387.5,0.5,124,124.0
5597,C2,387.5,0.25,78,124.0
5598,F#2,387.5,0.25,75,124.0
5599,A3,387.5,0.5,93,124.0
5600,B-3,387.5,0.5,93,124.0
5601,F4,387.5,0.5,93,124.0
5602,D4,387.5,0.5,93,124.0
5603,B-4,387.5,0.25,36,124.0
5604,A4,387.5,0.25,36,124.0
5605,C2,387.992,1/125,85,124.0
5606,C2,388.0,1367/1000,85,124.0
5607,F4,388.0,143/40,124,124.0
5608,F4,388.0,139/40,127,124.0
5609,C2,388.0,0.25,78,124.0
5610,F#2,388.0,0.25,75,124.0
5611,A3,388.0,4.0,93,124.0
5612,B-3,388.0,4.0,93,124.0
5613,F4,388.0,4.0,93,124.0
5614,D4,388.0,4.0,93,124.0
5615,B-4,388.0,0.25,67,124.0
5616,A4,388.0,0.25,67,124.0
5617,F#2,388.5,0.25,75,124.0
5618,B-4,388.5,0.25,43,124.0
5619,A4,388.5,0.25,43,124.0
5620,F#2,389.0,0.25,75,124.0
5621,B-4,389.0,0.25,72,124.0
5622,A4,389.0,0.25,72,124.0
5623,E1,389.367,3/40,50,124.0
5624,G2,389.492,367/1000,60,124.0
5625,C2,389.5,0.25,78,124.0
5626,C#2,389.5,1.0,84,124.0
5627,B-2,389.5,0.25,75,124.0
5628,E-5,389.5,0.25,64,124.0
5629,B-4,389.5,0.25,36,124.0
5630,A4,389.5,0.25,36,124.0
5631,G2,389.992,227/250,85,124.0
5632,C2,390.0,0.25,78,124.0
5633,F#2,390.0,0.25,75,124.0
5634,F5,390.0,0.25,68,124.0
5635,B-4,390.0,0.25,67,124.0
5636,A4,390.0,0.25,67,124.0
5637,F#2,390.5,0.25,75,124.0
5638,B-4,390.5,0.25,43,124.0
5639,A4,390.5,0.25,43,124.0
5640,C2,390.992,33/40,75,124.0
5641,C#2,391.0,1.0,84,124.0
5642,B-2,391.0,0.25,75,124.0
5643,B-4,391.0,0.25,72,124.0
5644,A4,391.0,0.25,72,124.0
5645,C2,391.5,0.25,78,124.0
5646,B-4,391.5,0.25,36,124.0
5647,A4,391.5,0.25,36,124.0
5648,D4,391.983,17/1000,127,124.0
5649,G1,391.992,1/125,85,124.0
5650,G1,392.0,1367/1000,85,124.0
5651,D4,392.0,1.0,124,124.0
5652,D4,392.0,9/10,127,124.0
5653,C2,392.0,0.25,78,124.0
5654,G3,392.0,0.25,116,124.0
5655,B-4,392.0,0.25,67,124.0
5656,A4,392.0,0.25,67,124.0
5657,F#2,392.5,0.25,75,124.0
5658,B-4,392.5,0.25,43,124.0
5659,A4,392.5,0.25,43,124.0
5660,C4,392.983,417/1000,127,124.0
5661,C4,393.0,0.5,124,124.0
5662,C#2,393.0,1.0,84,124.0
5663,F#2,393.0,0.25,75,124.0
5664,G3,393.0,43/40,93,124.0
5665,F4,393.0,43/40,93,124.0
5666,D4,393.0,43/40,93,124.0
5667,B-3,393.0,43/40,93,124.0
5668,B-4,393.0,0.25,72,124.0
5669,A4,393.0,0.25,72,124.0
5670,E1,393.367,3/40,50,124.0
5671,B-3,393.483,521/500,117,124.0
5672,D2,393.492,367/1000,60,124.0
5673,B-3,393.5,1.125,114,124.0
5674,C2,393.5,0.25,78,124.0
5675,F#2,393.5,0.25,75,124.0
5676,B-4,393.5,0.25,36,124.0
5677,A4,393.5,0.25,36,124.0
5678,D2,393.992,1.375,85,124.0
5679,C2,394.0,0.25,78,124.0
5680,F#2,394.0,0.25,75,124.0
5681,B-4,394.0,0.25,67,124.0
5682,A4,394.0,0.25,67,124.0
5683,C#2,394.5,1.0,84,124.0
5684,F#2,394.5,0.25,75,124.0
5685,G3,394.5,13/40,93,124.0
5686,F4,394.5,13/40,93,124.0
5687,D4,394.5,13/40,93,124.0
5688,B-3,394.5,13/40,93,124.0
5689,B-4,394.5,0.25,43,124.0
5690,A4,394.5,0.25,43,124.0
5691,D4,394.583,51/125,127,124.0
5692,D4,394.6,123/250,124,124.0
5693,F#2,395.0,0.25,75,124.0
5694,B-4,395.0,0.25,72,124.0
5695,A4,395.0,0.25,72,124.0
5696,E-4,395.317,417/1000,127,124.0
5697,E-4,395.333,0.5,124,124.0
5698,E1,395.367,3/40,50,124.0
5699,G1,395.492,367/1000,60,124.0
5700,C2,395.5,0.25,78,124.0
5701,F#2,395.5,0.25,75,124.0
5702,G#3,395.5,0.5,93,124.0
5703,G4,395.5,0.5,93,124.0
5704,E-4,395.5,0.5,93,124.0
5705,C4,395.5,0.5,93,124.0
5706,B-4,395.5,0.25,36,124.0
5707,A4,395.5,0.25,36,124.0
5708,D4,395.983,17/1000,127,124.0
5709,G#1,395.992,1/125,85,124.0
5710,G#1,396.0,1367/1000,85,124.0
5711,D4,396.0,279/500,124,124.0
5712,D4,396.0,229/500,127,124.0
5713,C2,396.0,0.25,78,124.0
5714,F#2,396.0,0.25,75,124.0
5715,G#3,396.0,499/125,93,124.0
5716,G4,396.0,499/125,93,124.0
5717,E-4,396.0,499/125,93,124.0
5718,C4,396.0,499/125,93,124.0
5719,B-4,396.0,0.25,67,124.0
5720,A4,396.0,0.25,67,124.0
5721,F#2,396.5,0.25,75,124.0
5722,B-4,396.5,0.25,43,124.0
5723,A4,396.5,0.25,43,124.0
5724,C4,396.55,2167/1000,117,124.0
5725,C4,396.567,2.25,114,124.0
5726,F#2,397.0,0.25,75,124.0
5727,B-4,397.0,0.25,72,124.0
5728,A4,397.0,0.25,72,124.0
5729,E1,397.367,3/40,50,124.0
5730,E-2,397.492,367/1000,60,124.0
5731,C2,397.5,0.25,78,124.0
5732,C#2,397.5,1.0,84,124.0
5733,F#2,397.5,0.25,75,124.0
5734,E-5,397.5,0.25,64,124.0
5735,B-4,397.5,0.25,36,124.0
5736,A4,397.5,0.25,36,124.0
5737,E-5,397.75,0.25,64,124.0
5738,E-2,397.992,227/250,85,124.0
5739,C2,398.0,0.25,78,124.0
5740,F#2,398.0,0.25,75,124.0
5741,E-5,398.0,0.25,64,124.0
5742,B-4,398.0,0.25,67,124.0
5743,A4,398.0,0.25,67,124.0
5744,F#2,398.25,0.25,75,124.0
5745,F#2,398.5,0.25,75,124.0
5746,B-4,398.5,0.25,43,124.0
5747,A4,398.5,0.25,43,124.0
5748,B-1,398.992,227/250,70,124.0
5749,C#2,399.0,1.0,84,124.0
5750,F#2,399.0,0.25,75,124.0
5751,E-5,399.0,0.25,64,124.0
5752,B-4,399.0,0.25,72,124.0
5753,A4,399.0,0.25,72,124.0
5754,C4,399.483,121/500,127,124.0
5755,C4,399.5,13/40,124,124.0
5756,C2,399.5,0.25,78,124.0
5757,B-2,399.5,0.25,75,124.0
5758,B-4,399.5,0.25,36,124.0
5759,A4,399.5,0.25,36,124.0
5760,F4,399.983,17/1000,127,124.0
5761,D2,399.992,1/125,85,124.0
5762,D2,400.0,1367/1000,85,124.0
5763,F4,400.0,1.0,124,124.0
5764,F4,400.0,9/10,127,124.0
5765,C2,400.0,0.25,78,124.0
5766,F#2,400.0,0.25,75,124.0
5767,B-4,400.0,0.25,67,124.0
5768,A4,400.0,0.25,67,124.0
5769,F#2,400.5,0.25,75,124.0
5770,B-4,400.5,0.25,43,124.0
5771,A4,400.5,0.25,43,124.0
5772,E-4,400.983,417/1000,127,124.0
5773,E-4,401.0,0.5,124,124.0
5774,C#2,401.0,1.0,84,124.0
5775,F#2,401.0,0.25,75,124.0
5776,F4,401.0,43/40,93,124.0
5777,D4,401.0,43/40,93,124.0
5778,C4,401.0,43/40,93,124.0
5779,G3,401.0,43/40,93,124.0
5780,B-4,401.0,0.25,72,124.0
5781,A4,401.0,0.25,72,124.0
5782,E1,401.367,3/40,50,124.0
5783,F4,401.483,917/1000,127,124.0
5784,G2,401.492,367/1000,60,124.0
5785,F4,401.5,1.0,124,124.0
5786,C2,401.5,0.25,78,124.0
5787,F#2,401.5,0.25,75,124.0
5788,B-4,401.5,0.25,36,124.0
5789,A4,401.5,0.25,36,124.0
5790,G2,401.992,1.375,85,124.0
5791,C2,402.0,0.25,78,124.0
5792,F#2,402.0,0.25,75,124.0
5793,B-4,402.0,0.25,67,124.0
5794,A4,402.0,0.25,67,124.0
5795,G4,402.483,33/40,127,124.0
5796,G4,402.5,227/250,124,124.0
5797,C#2,402.5,1.0,84,124.0
5798,F#2,402.5,0.25,75,124.0
5799,F4,402.5,13/40,93,124.0
5800,D4,402.5,13/40,93,124.0
5801,C4,402.5,13/40,93,124.0
5802,G3,402.5,13/40,93,124.0
5803,B-4,402.5,0.25,43,124.0
5804,A4,402.5,0.25,43,124.0
5805,F#2,403.0,0.25,75,124.0
5806,B-4,403.0,0.25,72,124.0
5807,A4,403.0,0.25,72,124.0
5808,E1,403.367,3/40,50,124.0
5809,D4,403.483,517/1000,107,124.0
5810,G4,403.483,517/1000,107,124.0
5811,D2,403.492,367/1000,60,124.0
5812,C2,403.5,0.25,78,124.0
5813,F#2,403.5,0.25,75,124.0
5814,F4,403.5,0.5,93,124.0
5815,D4,403.5,0.5,93,124.0
5816,B3,403.5,0.5,93,124.0
5817,G3,403.5,0.5,93,124.0
5818,D4,403.5,0.5,99,124.0
5819,G4,403.5,0.5,99,124.0
5820,B-4,403.5,0.25,36,124.0
5821,A4,403.5,0.25,36,124.0
5822,G1,403.992,1/125,85,124.0
5823,G1,404.0,1367/1000,85,124.0
5824,C2,404.0,0.25,78,124.0
5825,F#2,404.0,0.25,75,124.0
5826,F4,404.0,499/125,93,124.0
5827,D4,404.0,499/125,93,124.0
5828,B3,404.0,499/125,93,124.0
5829,G3,404.0,499/125,93,124.0
5830,D4,404.0,143/40,99,124.0
5831,G4,404.0,143/40,99,124.0
5832,D4,404.0,139/40,107,124.0
5833,G4,404.0,139/40,107,124.0
5834,B-4,404.0,0.25,67,124.0
5835,A4,404.0,0.25,67,124.0
5836,F#2,404.5,0.25,75,124.0
5837,B-4,404.5,0.25,43,124.0
5838,A4,404.5,0.25,43,124.0
5839,F#2,404.75,0.25,75,124.0
5840,F#2,405.0,0.25,75,124.0
5841,B-4,405.0,0.25,72,124.0
5842,A4,405.0,0.25,72,124.0
5843,E1,405.367,3/40,50,124.0
5844,G1,405.492,9/20,60,124.0
5845,C2,405.5,0.25,78,124.0
5846,C#2,405.5,1.0,84,124.0
5847,F#2,405.5,0.25,75,124.0
5848,C6,405.5,0.25,70,124.0
5849,B-4,405.5,0.25,36,124.0
5850,A4,405.5,0.25,36,124.0
5851,D2,405.992,227/250,80,124.0
5852,C2,406.0,0.25,78,124.0
5853,F#2,406.0,0.25,75,124.0
5854,B-4,406.0,0.25,67,124.0
5855,A4,406.0,0.25,67,124.0
5856,B-2,406.5,0.25,75,124.0
5857,B-4,406.5,0.25,43,124.0
5858,A4,406.5,0.25,43,124.0
5859,G1,406.992,33/40,85,124.0
5860,C#2,407.0,1.0,84,124.0
5861,F#2,407.0,0.25,75,124.0
5862,B-4,407.0,0.25,72,124.0
5863,A4,407.0,0.25,72,124.0
5864,C2,407.5,0.25,78,124.0
5865,B-2,407.5,0.25,75,124.0
5866,B-4,407.5,0.25,36,124.0
5867,A4,407.5,0.25,36,124.0
5868,B-4,407.917,83/1000,110,124.0
5869,B-4,407.967,33/1000,66,124.0
5870,G4,407.983,17/1000,127,124.0
5871,C2,407.992,1/125,85,124.0
5872,C2,408.0,1367/1000,85,124.0
5873,G4,408.0,301/125,124,124.0
5874,B-4,408.0,2.125,66,124.0
5875,B-4,408.0,83/40,110,124.0
5876,G4,408.0,577/250,127,124.0
5877,C2,408.0,0.25,78,124.0
5878,F#2,408.0,0.25,75,124.0
5879,G3,408.0,0.25,116,124.0
5880,B-4,408.0,0.25,67,124.0
5881,A4,408.0,0.25,67,124.0
5882,F#2,408.5,0.25,75,124.0
5883,B-4,408.5,0.25,43,124.0
5884,A4,408.5,0.25,43,124.0
5885,C#2,409.0,1.0,84,124.0
5886,F#2,409.0,0.25,75,124.0
5887,D4,409.0,117/1000,89,124.0
5888,B-3,409.0,43/40,93,124.0
5889,C4,409.0,43/40,93,124.0
5890,G4,409.0,43/40,93,124.0
5891,E-4,409.0,43/40,93,124.0
5892,B-4,409.0,0.25,72,124.0
5893,A4,409.0,0.25,72,124.0
5894,E1,409.367,3/40,50,124.0
5895,G2,409.492,367/1000,60,124.0
5896,C2,409.5,0.25,78,124.0
5897,F#2,409.5,0.25,75,124.0
5898,B-4,409.5,0.25,36,124.0
5899,A4,409.5,0.25,36,124.0
5900,G2,409.992,1.375,85,124.0
5901,C2,410.0,0.25,78,124.0
5902,F#2,410.0,0.25,75,124.0
5903,B-4,410.0,0.25,67,124.0
5904,A4,410.0,0.25,67,124.0
5905,C5,410.417,0.5,110,124.0
5906,C5,410.467,0.5,66,124.0
5907,A4,410.483,417/1000,127,124.0
5908,A4,410.5,0.5,124,124.0
5909,C#2,410.5,1.0,84,124.0
5910,F#2,410.5,0.25,75,124.0
5911,D4,410.5,117/1000,89,124.0
5912,G4,410.5,13/40,93,124.0
5913,B-3,410.5,13/40,93,124.0
5914,C4,410.5,13/40,93,124.0
5915,E-4,410.5,13/40,93,124.0
5916,B-4,410.5,0.25,43,124.0
5917,A4,410.5,0.25,43,124.0
5918,D5,410.917,123/250,110,124.0
5919,D5,410.967,123/250,66,124.0
5920,B-4,410.983,13/40,127,124.0
5921,B-4,411.0,51/125,124,124.0
5922,F#2,411.0,0.25,75,124.0
5923,E4,411.0,117/1000,89,124.0
5924,B-4,411.0,0.25,72,124.0
5925,A4,411.0,0.25,72,124.0
5926,E1,411.367,3/40,50,124.0
5927,C5,411.417,583/1000,110,124.0
5928,C5,411.467,533/1000,66,124.0
5929,A4,411.483,517/1000,127,124.0
5930,C2,411.492,367/1000,60,124.0
5931,A4,411.5,0.5,124,124.0
5932,C2,411.5,0.25,78,124.0
5933,F#2,411.5,0.25,75,124.0
5934,E4,411.5,117/1000,89,124.0
5935,F4,411.5,0.5,93,124.0
5936,B-3,411.5,0.5,93,124.0
5937,D4,411.5,0.5,93,124.0
5938,A3,411.5,0.5,93,124.0
5939,B-4,411.5,0.25,36,124.0
5940,A4,411.5,0.25,36,124.0
5941,C2,411.992,1/125,85,124.0
5942,C2,412.0,1367/1000,85,124.0
5943,A4,412.0,1871/500,124,124.0
5944,C5,412.0,979/500,66,124.0
5945,C5,412.0,477/250,110,124.0
5946,A4,412.0,1821/500,127,124.0
5947,C2,412.0,0.25,78,124.0
5948,F#2,412.0,0.25,75,124.0
5949,F4,412.0,499/125,93,124.0
5950,B-3,412.0,499/125,93,124.0
5951,D4,412.0,499/125,93,124.0
5952,A3,412.0,499/125,93,124.0
5953,B-4,412.0,0.25,67,124.0
5954,A4,412.0,0.25,67,124.0
5955,F#2,412.5,0.25,75,124.0
5956,B-4,412.5,0.25,43,124.0
5957,A4,412.5,0.25,43,124.0
5958,F#2,413.0,0.25,75,124.0
5959,B-4,413.0,0.25,72,124.0
5960,A4,413.0,0.25,72,124.0
5961,E1,413.367,3/40,50,124.0
5962,G2,413.492,367/1000,60,124.0
5963,C2,413.5,0.25,78,124.0
5964,C#2,413.5,1.0,84,124.0
5965,F#2,413.5,0.25,75,124.0
5966,E-4,413.5,117/1000,89,124.0
5967,E-5,413.5,0.25,64,124.0
5968,B-4,413.5,0.25,36,124.0
5969,A4,413.5,0.25,36,124.0
5970,F#2,413.75,0.25,75,124.0
5971,G2,413.992,1.375,85,124.0
5972,C2,414.0,0.25,78,124.0
5973,F#2,414.0,0.25,75,124.0
5974,B-4,414.0,0.25,67,124.0
5975,A4,414.0,0.25,67,124.0
5976,F#2,414.5,0.25,75,124.0
5977,B-4,414.5,0.25,43,124.0
5978,A4,414.5,0.25,43,124.0
5979,F#2,414.75,0.25,75,124.0
5980,C#2,415.0,1.0,84,124.0
5981,F#2,415.0,0.25,75,124.0
5982,E-4,415.0,117/1000,89,124.0
5983,E-5,415.0,0.25,64,124.0
5984,B-4,415.0,0.25,72,124.0
5985,A4,415.0,0.25,72,124.0
5986,E1,415.367,3/40,50,124.0
5987,D2,415.492,367/1000,60,124.0
5988,C2,415.5,0.25,78,124.0
5989,B-2,415.5,0.25,75,124.0
5990,B-4,415.5,0.25,36,124.0
5991,A4,415.5,0.25,36,124.0
5992,B-4,415.917,83/1000,110,124.0
5993,B-4,415.967,33/1000,66,124.0
5994,G4,415.983,17/1000,127,124.0
5995,B-6,415.983,1079/500,42,124.0
5996,B-5,415.983,1079/500,42,124.0
5997,C2,415.992,1/125,85,124.0
5998,C2,416.0,1367/1000,85,124.0
5999,G4,416.0,227/250,124,124.0
6000,B-4,416.0,479/500,66,124.0
6001,B-4,416.0,227/250,110,124.0
6002,G4,416.0,101/125,127,124.0
6003,C2,416.0,0.25,78,124.0
6004,F#2,416.0,0.25,75,124.0
6005,B-4,416.0,0.25,67,124.0
6006,A4,416.0,0.25,67,124.0
6007,F#2,416.5,0.25,75,124.0
6008,B-4,416.5,0.25,43,124.0
6009,A4,416.5,0.25,43,124.0
6010,A4,416.917,0.5,110,124.0
6011,A4,416.967,0.5,66,124.0
6012,F4,416.983,417/1000,127,124.0
6013,F4,417.0,0.5,124,124.0
6014,C#2,417.0,1.0,84,124.0
6015,F#2,417.0,0.25,75,124.0
6016,D4,417.0,117/1000,89,124.0
6017,G3,417.0,43/40,93,124.0
6018,C4,417.0,43/40,93,124.0
6019,E-4,417.0,43/40,93,124.0
6020,B-3,417.0,43/40,93,124.0
6021,B-4,417.0,0.25,72,124.0
6022,A4,417.0,0.25,72,124.0
6023,E1,417.367,3/40,50,124.0
6024,G4,417.417,124/125,110,124.0
6025,G4,417.467,124/125,66,124.0
6026,E-4,417.483,227/250,127,124.0
6027,G2,417.492,367/1000,60,124.0
6028,E-4,417.5,124/125,124,124.0
6029,C2,417.5,0.25,78,124.0
6030,F#2,417.5,0.25,75,124.0
6031,B-4,417.5,0.25,36,124.0
6032,A4,417.5,0.25,36,124.0
6033,G2,417.992,1.375,85,124.0
6034,C2,418.0,0.25,78,124.0
6035,F#2,418.0,0.25,75,124.0
6036,B-4,418.0,0.25,67,124.0
6037,A4,418.0,0.25,67,124.0
6038,B-4,418.417,0.5,110,124.0
6039,B-4,418.467,0.5,66,124.0
6040,G4,418.483,417/1000,127,124.0
6041,C7,418.483,0.5,42,124.0
6042,C6,418.483,0.5,42,124.0
6043,G4,418.5,0.5,124,124.0
6044,C#2,418.5,1.0,84,124.0
6045,F#2,418.5,0.25,75,124.0
6046,D4,418.5,117/1000,89,124.0
6047,G3,418.5,13/40,93,124.0
6048,E-4,418.5,13/40,93,124.0
6049,B-3,418.5,13/40,93,124.0
6050,C4,418.5,13/40,93,124.0
6051,B-4,418.5,0.25,43,124.0
6052,A4,418.5,0.25,43,124.0
6053,G4,418.917,0.5,110,124.0
6054,G4,418.967,0.5,66,124.0
6055,E-4,418.983,417/1000,127,124.0
6056,D7,418.983,123/250,42,124.0
6057,D6,418.983,123/250,42,124.0
6058,E-4,419.0,0.5,124,124.0
6059,F#2,419.0,0.25,75,124.0
6060,E4,419.0,117/1000,89,124.0
6061,B-4,419.0,0.25,72,124.0
6062,A4,419.0,0.25,72,124.0
6063,E1,419.367,3/40,50,124.0
6064,A4,419.417,583/1000,110,124.0
6065,A4,419.467,533/1000,66,124.0
6066,F4,419.483,517/1000,127,124.0
6067,C7,419.483,0.5,42,124.0
6068,C6,419.483,0.5,42,124.0
6069,C2,419.492,367/1000,60,124.0
6070,F4,419.5,0.5,124,124.0
6071,C2,419.5,0.25,78,124.0
6072,F#2,419.5,0.25,75,124.0
6073,E4,419.5,117/1000,89,124.0
6074,A3,419.5,0.5,93,124.0
6075,B-3,419.5,0.5,93,124.0
6076,F4,419.5,0.5,93,124.0
6077,D4,419.5,0.5,93,124.0
6078,B-4,419.5,0.25,36,124.0
6079,A4,419.5,0.25,36,124.0
6080,C7,419.983,1.5,42,124.0
6081,C6,419.983,1.5,42,124.0
6082,C2,419.992,1/125,85,124.0
6083,C2,420.0,1367/1000,85,124.0
6084,F4,420.0,143/40,124,124.0
6085,A4,420.0,1467/1000,66,124.0
6086,A4,420.0,1417/1000,110,124.0
6087,F4,420.0,139/40,127,124.0
6088,C2,420.0,0.25,78,124.0
6089,F#2,420.0,0.25,75,124.0
6090,A3,420.0,4.0,93,124.0
6091,B-3,420.0,4.0,93,124.0
6092,F4,420.0,4.0,93,124.0
6093,D4,420.0,4.0,93,124.0
6094,B-4,420.0,0.25,67,124.0
6095,A4,420.0,0.25,67,124.0
6096,C#2,420.5,1.0,84,124.0
6097,F#2,420.5,0.25,75,124.0
6098,D4,420.5,117/1000,89,124.0
6099,B-4,420.5,0.25,43,124.0
6100,A4,420.5,0.25,43,124.0
6101,F#2,421.0,0.25,75,124.0
6102,D4,421.0,117/1000,89,124.0
6103,B-4,421.0,0.25,72,124.0
6104,A4,421.0,0.25,72,124.0
6105,E1,421.367,3/40,50,124.0
6106,G2,421.492,367/1000,60,124.0
6107,C2,421.5,0.25,78,124.0
6108,B-2,421.5,0.25,75,124.0
6109,E-4,421.5,117/1000,89,124.0
6110,E-5,421.5,0.25,64,124.0
6111,B-4,421.5,0.25,36,124.0
6112,A4,421.5,0.25,36,124.0
6113,G2,421.992,227/250,85,124.0
6114,C2,422.0,0.25,78,124.0
6115,C#2,422.0,1.0,84,124.0
6116,F#2,422.0,0.25,75,124.0
6117,D4,422.0,117/1000,89,124.0
6118,F5,422.0,0.25,68,124.0
6119,B-4,422.0,0.25,67,124.0
6120,A4,422.0,0.25,67,124.0
6121,F#2,422.5,0.25,75,124.0
6122,B-4,422.5,0.25,43,124.0
6123,A4,422.5,0.25,43,124.0
6124,C2,422.992,9/20,70,124.0
6125,C#2,423.0,1.0,84,124.0
6126,B-2,423.0,0.25,75,124.0
6127,E4,423.0,117/1000,89,124.0
6128,B-4,423.0,0.25,72,124.0
6129,A4,423.0,0.25,72,124.0
6130,D2,423.492,367/1000,60,124.0
6131,C2,423.5,0.25,78,124.0
6132,F#2,423.5,0.25,75,124.0
6133,B-4,423.5,0.25,36,124.0
6134,A4,423.5,0.25,36,124.0
6135,F4,423.917,83/1000,110,124.0
6136,F4,423.967,33/1000,66,124.0
6137,D4,423.983,17/1000,127,124.0
6138,B-6,423.983,124/125,42,124.0
6139,B-5,423.983,124/125,42,124.0
6140,G1,423.992,1/125,85,124.0
6141,G1,424.0,1367/1000,85,124.0
6142,D4,424.0,1.0,124,124.0
6143,F4,424.0,967/1000,66,124.0
6144,F4,424.0,917/1000,110,124.0
6145,D4,424.0,9/10,127,124.0
6146,C2,424.0,0.25,78,124.0
6147,F#2,424.0,0.25,75,124.0
6148,B-4,424.0,0.25,67,124.0
6149,A4,424.0,0.25,67,124.0
6150,F#2,424.5,0.25,75,124.0
6151,B-4,424.5,0.25,43,124.0
6152,A4,424.5,0.25,43,124.0
6153,E-4,424.917,0.5,110,124.0
6154,E-4,424.967,0.5,66,124.0
6155,C4,424.983,417/1000,127,124.0
6156,A6,424.983,0.5,42,124.0
6157,A5,424.983,0.5,42,124.0
6158,C4,425.0,0.5,124,124.0
6159,C#2,425.0,1.0,84,124.0
6160,F#2,425.0,0.25,75,124.0
6161,D4,425.0,117/1000,89,124.0
6162,G3,425.0,43/40,93,124.0
6163,F4,425.0,43/40,93,124.0
6164,D4,425.0,43/40,93,124.0
6165,B-3,425.0,43/40,93,124.0
6166,B-4,425.0,0.25,72,124.0
6167,A4,425.0,0.25,72,124.0
6168,E1,425.367,3/40,50,124.0
6169,D4,425.417,1.0,110,124.0
6170,D4,425.467,1.0,66,124.0
6171,B-3,425.483,917/1000,121,124.0
6172,G6,425.483,124/125,42,124.0
6173,G5,425.483,124/125,42,124.0
6174,D2,425.492,367/1000,60,124.0
6175,B-3,425.5,1.0,118,124.0
6176,C2,425.5,0.25,78,124.0
6177,F#2,425.5,0.25,75,124.0
6178,B-4,425.5,0.25,36,124.0
6179,A4,425.5,0.25,36,124.0
6180,D2,425.992,1.375,85,124.0
6181,C2,426.0,0.25,78,124.0
6182,F#2,426.0,0.25,75,124.0
6183,B-4,426.0,0.25,67,124.0
6184,A4,426.0,0.25,67,124.0
6185,F4,426.417,124/125,110,124.0
6186,D4,426.417,117/1000,89,124.0
6187,F4,426.467,124/125,66,124.0
6188,D4,426.483,33/40,127,124.0
6189,B-6,426.483,0.5,42,124.0
6190,B-5,426.483,0.5,42,124.0
6191,D4,426.5,227/250,124,124.0
6192,C#2,426.5,1.0,84,124.0
6193,F#2,426.5,0.25,75,124.0
6194,G3,426.5,13/40,93,124.0
6195,F4,426.5,13/40,93,124.0
6196,D4,426.5,13/40,93,124.0
6197,B-3,426.5,13/40,93,124.0
6198,B-4,426.5,0.25,43,124.0
6199,A4,426.5,0.25,43,124.0
6200,G6,426.983,0.5,42,124.0
6201,G5,426.983,0.5,42,124.0
6202,F#2,427.0,0.25,75,124.0
6203,E4,427.0,117/1000,89,124.0
6204,B-4,427.0,0.25,72,124.0
6205,A4,427.0,0.25,72,124.0
6206,E1,427.367,3/40,50,124.0
6207,G4,427.417,0.5,110,124.0
6208,G4,427.467,0.5,66,124.0
6209,E-4,427.483,517/1000,127,124.0
6210,A6,427.483,0.5,42,124.0
6211,A5,427.483,0.5,42,124.0
6212,G1,427.492,367/1000,60,124.0
6213,E-4,427.5,0.5,124,124.0
6214,C2,427.5,0.25,78,124.0
6215,F#2,427.5,0.25,75,124.0
6216,E4,427.5,117/1000,89,124.0
6217,G#3,427.5,0.5,93,124.0
6218,G4,427.5,0.5,93,124.0
6219,E-4,427.5,0.5,93,124.0
6220,C4,427.5,0.5,93,124.0
6221,B-4,427.5,0.25,36,124.0
6222,A4,427.5,0.25,36,124.0
6223,F4,427.917,83/1000,110,124.0
6224,F4,427.967,33/1000,66,124.0
6225,D4,427.983,17/1000,127,124.0
6226,A6,427.983,1.5,42,124.0
6227,A5,427.983,1.5,42,124.0
6228,G#1,427.992,1/125,85,124.0
6229,G#1,428.0,1367/1000,85,124.0
6230,D4,428.0,0.5,124,124.0
6231,F4,428.0,467/1000,66,124.0
6232,F4,428.0,417/1000,110,124.0
6233,E-4,428.0,1/40,127,124.0
6234,D4,428.0,2/5,127,124.0
6235,C2,428.0,0.25,78,124.0
6236,F#2,428.0,0.25,75,124.0
6237,G#3,428.0,499/125,93,124.0
6238,G4,428.0,499/125,93,124.0
6239,E-4,428.0,499/125,93,124.0
6240,C4,428.0,499/125,93,124.0
6241,B-4,428.0,0.25,67,124.0
6242,A4,428.0,0.25,67,124.0
6243,E-4,428.417,1.75,110,124.0
6244,E-4,428.467,1.75,66,124.0
6245,C4,428.483,2167/1000,127,124.0
6246,C4,428.5,2.25,124,124.0
6247,F#2,428.5,0.25,75,124.0
6248,B-4,428.5,0.25,43,124.0
6249,A4,428.5,0.25,43,124.0
6250,F#2,429.0,0.25,75,124.0
6251,D4,429.0,117/1000,89,124.0
6252,B-4,429.0,0.25,72,124.0
6253,A4,429.0,0.25,72,124.0
6254,E1,429.367,3/40,50,124.0
6255,E-2,429.492,367/1000,60,124.0
6256,C#2,429.5,1.0,84,124.0
6257,F#2,429.5,0.25,75,124.0
6258,E-5,429.5,0.25,64,124.0
6259,C2,429.5,0.25,78,124.0
6260,C2,429.5,0.25,78,124.0
6261,B-4,429.5,0.25,36,124.0
6262,A4,429.5,0.25,36,124.0
6263,F#2,429.75,0.25,75,124.0
6264,E-2,429.992,1.375,85,124.0
6265,C2,430.0,0.25,78,124.0
6266,F#2,430.0,0.25,75,124.0
6267,B-4,430.0,0.25,67,124.0
6268,A4,430.0,0.25,67,124.0
6269,F#2,430.5,0.25,75,124.0
6270,D4,430.5,117/1000,89,124.0
6271,B-4,430.5,0.25,43,124.0
6272,A4,430.5,0.25,43,124.0
6273,F#2,430.75,0.25,75,124.0
6274,E-4,430.958,117/1000,89,124.0
6275,E-4,430.958,117/1000,89,124.0
6276,C#2,431.0,1.0,84,124.0
6277,F#2,431.0,0.25,75,124.0
6278,E-5,431.0,0.25,64,124.0
6279,B-4,431.0,0.25,72,124.0
6280,A4,431.0,0.25,72,124.0
6281,E1,431.367,3/40,50,124.0
6282,C4,431.417,51/125,110,124.0
6283,C4,431.467,51/125,66,124.0
6284,C4,431.483,121/500,127,124.0
6285,G#1,431.492,367/1000,60,124.0
6286,C4,431.5,13/40,124,124.0
6287,C2,431.5,0.25,78,124.0
6288,B-2,431.5,0.25,75,124.0
6289,B-4,431.5,0.25,36,124.0
6290,A4,431.5,0.25,36,124.0
6291,F4,431.917,83/1000,110,124.0
6292,F4,431.967,33/1000,66,124.0
6293,F4,431.983,17/1000,127,124.0
6294,F6,431.983,1.0,42,124.0
6295,F5,431.983,1.0,42,124.0
6296,D2,431.992,1/125,85,124.0
6297,D2,432.0,1367/1000,85,124.0
6298,F4,432.0,1.0,124,124.0
6299,F4,432.0,967/1000,66,124.0
6300,F4,432.0,917/1000,110,124.0
6301,F4,432.0,9/10,127,124.0
6302,C2,432.0,0.25,78,124.0
6303,F#2,432.0,0.25,75,124.0
6304,B-4,432.0,0.25,67,124.0
6305,A4,432.0,0.25,67,124.0
6306,F#2,432.5,0.25,75,124.0
6307,B-4,432.5,0.25,43,124.0
6308,A4,432.5,0.25,43,124.0
6309,E-4,432.917,0.5,110,124.0
6310,E-4,432.967,0.5,66,124.0
6311,E-4,432.983,417/1000,127,124.0
6312,E-6,432.983,0.5,42,124.0
6313,E-5,432.983,0.5,42,124.0
6314,E-4,433.0,0.5,124,124.0
6315,C#2,433.0,1.0,84,124.0
6316,F#2,433.0,0.25,75,124.0
6317,D4,433.0,117/1000,89,124.0
6318,F4,433.0,43/40,93,124.0
6319,D4,433.0,43/40,93,124.0
6320,C4,433.0,43/40,93,124.0
6321,G3,433.0,43/40,93,124.0
6322,B-4,433.0,0.25,72,124.0
6323,A4,433.0,0.25,72,124.0
6324,E1,433.367,3/40,50,124.0
6325,F4,433.417,33/40,110,124.0
6326,F4,433.467,33/40,66,124.0
6327,F4,433.483,371/500,127,124.0
6328,D6,433.483,1.0,42,124.0
6329,D5,433.483,1.0,42,124.0
6330,G2,433.492,367/1000,60,124.0
6331,F4,433.5,33/40,124,124.0
6332,C2,433.5,0.25,78,124.0
6333,F#2,433.5,0.25,75,124.0
6334,B-4,433.5,0.25,36,124.0
6335,A4,433.5,0.25,36,124.0
6336,G2,433.992,1.375,85,124.0
6337,C2,434.0,0.25,78,124.0
6338,F#2,434.0,0.25,75,124.0
6339,B-4,434.0,0.25,67,124.0
6340,A4,434.0,0.25,67,124.0
6341,G4,434.417,33/40,110,124.0
6342,G4,434.467,33/40,66,124.0
6343,G4,434.483,371/500,127,124.0
6344,F6,434.483,124/125,42,124.0
6345,F5,434.483,124/125,42,124.0
6346,G4,434.5,33/40,124,124.0
6347,C#2,434.5,1.0,84,124.0
6348,F#2,434.5,0.25,75,124.0
6349,D4,434.5,117/1000,89,124.0
6350,F4,434.5,13/40,93,124.0
6351,D4,434.5,13/40,93,124.0
6352,C4,434.5,13/40,93,124.0
6353,G3,434.5,13/40,93,124.0
6354,B-4,434.5,0.25,43,124.0
6355,A4,434.5,0.25,43,124.0
6356,F#2,435.0,0.25,75,124.0
6357,E4,435.0,117/1000,89,124.0
6358,B-4,435.0,0.25,72,124.0
6359,A4,435.0,0.25,72,124.0
6360,E1,435.367,3/40,50,124.0
6361,G4,435.417,583/1000,110,124.0
6362,G4,435.467,533/1000,66,124.0
6363,G4,435.483,517/1000,127,124.0
6364,G6,435.483,0.5,42,124.0
6365,G5,435.483,0.5,42,124.0
6366,D2,435.492,367/1000,60,124.0
6367,G4,435.5,0.5,124,124.0
6368,C2,435.5,0.25,78,124.0
6369,F#2,435.5,0.25,75,124.0
6370,E4,435.5,117/1000,89,124.0
6371,G3,435.5,0.5,93,124.0
6372,D4,435.5,0.5,93,124.0
6373,F4,435.5,0.5,93,124.0
6374,B3,435.5,0.5,93,124.0
6375,B-4,435.5,0.25,36,124.0
6376,A4,435.5,0.25,36,124.0
6377,F6,435.983,0.5,42,124.0
6378,F5,435.983,0.5,42,124.0
6379,G1,435.992,1/125,85,124.0
6380,G1,436.0,1367/1000,85,124.0
6381,G4,436.0,103/40,124,124.0
6382,G4,436.0,1467/1000,66,124.0
6383,G4,436.0,1417/1000,110,124.0
6384,G4,436.0,99/40,127,124.0
6385,C2,436.0,0.25,78,124.0
6386,F#2,436.0,0.25,75,124.0
6387,G3,436.0,727/250,93,124.0
6388,D4,436.0,727/250,93,124.0
6389,F4,436.0,727/250,93,124.0
6390,B3,436.0,727/250,93,124.0
6391,B-4,436.0,0.25,67,124.0
6392,A4,436.0,0.25,67,124.0
6393,E-6,436.483,1.75,42,124.0
6394,E-5,436.483,1.75,42,124.0
6395,C#2,436.5,1.0,84,124.0
6396,F#2,436.5,0.25,75,124.0
6397,B-4,436.5,0.25,43,124.0
6398,A4,436.5,0.25,43,124.0
6399,F#2,437.0,0.25,75,124.0
6400,D4,437.0,117/1000,89,124.0
6401,B-4,437.0,0.25,72,124.0
6402,A4,437.0,0.25,72,124.0
6403,E1,437.367,3/40,50,124.0
6404,G1,437.492,367/1000,60,124.0
6405,C2,437.5,0.25,78,124.0
6406,F#2,437.5,0.25,75,124.0
6407,E-4,437.5,117/1000,89,124.0
6408,B-4,437.5,0.25,36,124.0
6409,A4,437.5,0.25,36,124.0
6410,D2,437.992,227/250,85,124.0
6411,C2,438.0,0.25,78,124.0
6412,C#2,438.0,1.0,84,124.0
6413,F#2,438.0,0.25,75,124.0
6414,E-4,438.0,117/1000,89,124.0
6415,B-4,438.0,0.25,67,124.0
6416,A4,438.0,0.25,67,124.0
6417,F#2,438.5,0.25,75,124.0
6418,C6,438.5,0.25,70,124.0
6419,B-4,438.5,0.25,43,124.0
6420,A4,438.5,0.25,43,124.0
6421,E-4,438.917,0.5,110,124.0
6422,E-4,438.967,0.5,66,124.0
6423,E-4,438.983,417/1000,107,124.0
6424,G1,438.992,227/250,85,124.0
6425,E-4,439.0,0.5,93,124.0
6426,E-4,439.0,0.5,104,124.0
6427,G2,439.0,1.0,104,124.0
6428,F#2,439.0,0.25,75,124.0
6429,E4,439.0,117/1000,89,124.0
6430,G3,439.0,33/40,93,124.0
6431,C4,439.0,33/40,93,124.0
6432,B-4,439.0,0.25,72,124.0
6433,A4,439.0,0.25,72,124.0
6434,F#2,439.25,0.25,75,124.0
6435,D4,439.417,0.5,110,124.0
6436,D4,439.467,0.5,66,124.0
6437,D4,439.483,417/1000,97,124.0
6438,C6,439.483,51/125,42,124.0
6439,C5,439.483,51/125,42,124.0
6440,D4,439.5,13/40,93,124.0
6441,D4,439.5,0.5,94,124.0
6442,F#2,439.5,0.25,75,124.0
6443,E4,439.5,117/1000,89,124.0
6444,B-4,439.5,0.25,36,124.0
6445,A4,439.5,0.25,36,124.0
6446,C4,439.917,83/1000,110,124.0
6447,C4,439.967,33/1000,66,124.0
6448,C4,439.983,17/1000,91,124.0
6449,F6,439.983,1.0,42,124.0
6450,F5,439.983,1.0,42,124.0
6451,C2,439.992,1/125,85,124.0
6452,C2,440.0,1367/1000,85,124.0
6453,C4,440.0,1.0,88,124.0
6454,C4,440.0,967/1000,66,124.0
6455,C4,440.0,917/1000,110,124.0
6456,C4,440.0,9/10,91,124.0
6457,C2,440.0,0.25,78,124.0
6458,C#3,440.0,0.25,111,124.0
6459,A4,440.0,117/1000,73,124.0
6460,C4,440.0,93/40,93,124.0
6461,G3,440.0,93/40,93,124.0
6462,A4,440.25,117/1000,48,124.0
6463,A4,440.5,117/1000,73,124.0
6464,E-3,440.583,3/40,89,124.0
6465,A4,440.75,117/1000,48,124.0
6466,E-3,440.833,23/250,74,124.0
6467,E-4,440.917,0.5,110,124.0
6468,E-4,440.967,0.5,66,124.0
6469,E-4,440.983,417/1000,87,124.0
6470,E-6,440.983,0.5,42,124.0
6471,E-5,440.983,0.5,42,124.0
6472,E-4,441.0,53/40,93,124.0
6473,E-4,441.0,0.5,84,124.0
6474,C#2,441.0,1.0,84,124.0
6475,D4,441.0,117/1000,99,124.0
6476,A4,441.0,117/1000,73,124.0
6477,E-3,441.083,117/1000,85,124.0
6478,A4,441.25,117/1000,24,124.0
6479,E1,441.367,3/40,50,124.0
6480,G4,441.417,1.0,110,124.0
6481,G4,441.467,1.0,66,124.0
6482,G4,441.483,917/1000,87,124.0
6483,F6,441.483,33/40,42,124.0
6484,F5,441.483,33/40,42,124.0
6485,C3,441.492,51/125,50,124.0
6486,G4,441.5,33/40,93,124.0
6487,G4,441.5,1.0,84,124.0
6488,C2,441.5,0.25,78,124.0
6489,E-3,441.567,0.125,85,124.0
6490,C3,441.992,2/5,85,124.0
6491,C2,442.0,0.25,78,124.0
6492,E-3,442.008,133/1000,74,124.0
6493,C5,442.417,1.0,110,124.0
6494,C5,442.467,1.0,66,124.0
6495,C5,442.483,917/1000,87,124.0
6496,G6,442.483,33/40,42,124.0
6497,G5,442.483,33/40,42,124.0
6498,B-2,442.492,9/20,75,124.0
6499,C5,442.5,1.0,84,124.0
6500,C#2,442.5,1.0,84,124.0
6501,E-3,442.5,3/20,94,124.0
6502,D4,442.5,117/1000,99,124.0
6503,C5,442.5,123/250,93,124.0
6504,G4,442.5,123/250,93,124.0
6505,E-4,442.5,123/250,93,124.0
6506,F2,442.992,9/20,70,124.0
6507,E-3,443.0,3/20,77,124.0
6508,B-4,443.417,583/1000,110,124.0
6509,B-4,443.467,533/1000,66,124.0
6510,E-3,443.475,117/1000,85,124.0
6511,B-4,443.483,517/1000,87,124.0
6512,G6,443.483,0.5,42,124.0
6513,G5,443.483,0.5,42,124.0
6514,G2,443.492,127/250,60,124.0
6515,B-4,443.5,0.5,84,124.0
6516,C2,443.5,0.25,78,124.0
6517,E4,443.5,117/1000,89,124.0
6518,G4,443.5,0.5,93,124.0
6519,B-4,443.5,0.5,93,124.0
6520,D4,443.5,0.5,93,124.0
6521,G6,443.983,1.5,42,124.0
6522,G5,443.983,1.5,42,124.0
6523,G2,444.0,51/40,60,124.0
6524,B-4,444.0,0.5,84,124.0
6525,B-4,444.0,467/1000,66,124.0
6526,B-4,444.0,417/1000,110,124.0
6527,B-4,444.0,2/5,87,124.0
6528,C2,444.0,0.25,78,124.0
6529,E-3,444.0,0.25,89,124.0
6530,E-4,444.0,117/1000,89,124.0
6531,G4,444.0,13/40,93,124.0
6532,B-4,444.0,13/40,93,124.0
6533,D4,444.0,13/40,93,124.0
6534,G4,444.417,1.0,110,124.0
6535,G4,444.467,1.0,66,124.0
6536,G4,444.483,917/1000,87,124.0
6537,G4,444.5,1.0,84,124.0
6538,C#2,444.5,1.0,84,124.0
6539,E-3,444.5,0.25,74,124.0
6540,E-4,444.5,117/1000,89,124.0
6541,B-3,444.5,123/250,93,124.0
6542,D4,444.5,123/250,93,124.0
6543,G4,444.5,123/250,93,124.0
6544,E-3,445.0,0.25,89,124.0
6545,D4,445.0,117/1000,89,124.0
6546,E1,445.367,3/40,50,124.0
6547,D4,445.417,1.0,110,124.0
6548,D4,445.467,1.0,66,124.0
6549,D4,445.483,917/1000,87,124.0
6550,D2,445.492,367/1000,60,124.0
6551,G3,445.5,2.25,93,124.0
6552,D4,445.5,1.0,93,124.0
6553,B-3,445.5,73/40,93,124.0
6554,D4,445.5,1.0,84,124.0
6555,C2,445.5,0.25,78,124.0
6556,E-3,445.5,0.25,79,124.0
6557,E-3,445.75,0.25,74,124.0
6558,G1,445.992,227/250,85,124.0
6559,C2,446.0,0.25,78,124.0
6560,G3,446.0,0.25,116,124.0
6561,E-4,446.417,0.5,110,124.0
6562,E-4,446.467,0.5,66,124.0
6563,E-4,446.483,417/1000,87,124.0
6564,E-4,446.5,123/250,93,124.0
6565,E-4,446.5,0.5,84,124.0
6566,E-3,446.5,0.25,74,124.0
6567,D4,446.5,117/1000,89,124.0
6568,D4,446.917,0.5,110,124.0
6569,D4,446.967,0.5,66,124.0
6570,D4,446.983,417/1000,87,124.0
6571,E-6,446.983,0.5,42,124.0
6572,E-5,446.983,0.5,42,124.0
6573,B-1,446.992,227/250,85,124.0
6574,D4,447.0,0.5,93,124.0
6575,D4,447.0,0.5,84,124.0
6576,D2,447.0,1.0,92,124.0
6577,E-3,447.0,0.25,89,124.0
6578,E4,447.0,117/1000,89,124.0
6579,B-3,447.417,0.5,110,124.0
6580,B-3,447.467,0.5,66,124.0
6581,B-3,447.483,417/1000,87,124.0
6582,D6,447.483,0.5,42,124.0
6583,D5,447.483,0.5,42,124.0
6584,B-3,447.5,0.25,93,124.0
6585,B-3,447.5,0.5,84,124.0
6586,E-3,447.5,0.25,74,124.0
6587,E4,447.5,117/1000,89,124.0
6588,C4,447.917,83/1000,110,124.0
6589,C4,447.967,33/1000,66,124.0
6590,C4,447.983,17/1000,87,124.0
6591,C6,447.983,1.0,42,124.0
6592,C5,447.983,1.0,42,124.0
6593,G#1,447.992,1/125,85,124.0
6594,G#1,448.0,1367/1000,85,124.0
6595,C4,448.0,1.0,84,124.0
6596,C4,448.0,967/1000,66,124.0
6597,C4,448.0,917/1000,110,124.0
6598,C4,448.0,9/10,87,124.0
6599,C2,448.0,0.25,78,124.0
6600,E-3,448.0,0.25,89,124.0
6601,A4,448.0,117/1000,73,124.0
6602,G#3,448.0,93/40,93,124.0
6603,C4,448.0,93/40,93,124.0
6604,A4,448.25,117/1000,48,124.0
6605,E-3,448.5,0.25,74,124.0
6606,A4,448.5,117/1000,73,124.0
6607,A4,448.75,117/1000,48,124.0
6608,E-4,448.917,0.5,110,124.0
6609,E-4,448.967,0.5,66,124.0
6610,E-4,448.983,417/1000,87,124.0
6611,E-6,448.983,0.5,42,124.0
6612,E-5,448.983,0.5,42,124.0
6613,E-4,449.0,53/40,93,124.0
6614,E-4,449.0,0.5,84,124.0
6615,C#2,449.0,1.0,84,124.0
6616,E-3,449.0,0.25,89,124.0
6617,D4,449.0,117/1000,89,124.0
6618,A4,449.0,117/1000,73,124.0
6619,A4,449.25,117/1000,24,124.0
6620,E1,449.367,3/40,50,124.0
6621,G4,449.417,124/125,110,124.0
6622,G4,449.467,124/125,66,124.0
6623,G4,449.483,917/1000,87,124.0
6624,G6,449.483,1.0,42,124.0
6625,G5,449.483,1.0,42,124.0
6626,G#1,449.492,367/1000,60,124.0
6627,G4,449.5,33/40,93,124.0
6628,G4,449.5,1.0,84,124.0
6629,C2,449.5,0.25,78,124.0
6630,E-3,449.5,0.25,74,124.0
6631,G#1,449.992,1.375,85,124.0
6632,C2,450.0,0.25,78,124.0
6633,E-3,450.0,0.25,89,124.0
6634,C5,450.417,124/125,110,124.0
6635,C5,450.467,124/125,66,124.0
6636,C5,450.483,917/1000,87,124.0
6637,C7,450.483,1.0,42,124.0
6638,C6,450.483,1.0,42,124.0
6639,C5,450.5,1.0,84,124.0
6640,C#2,450.5,1.0,84,124.0
6641,E-3,450.5,0.25,74,124.0
6642,D4,450.5,117/1000,89,124.0
6643,G4,450.5,0.5,93,124.0
6644,E-4,450.5,0.5,93,124.0
6645,C5,450.5,0.5,93,124.0
6646,E-3,451.0,0.25,89,124.0
6647,E4,451.0,117/1000,89,124.0
6648,E1,451.367,3/40,50,124.0
6649,D5,451.417,583/1000,110,124.0
6650,D5,451.467,533/1000,66,124.0
6651,D5,451.483,517/1000,87,124.0
6652,B-6,451.483,0.5,42,124.0
6653,B-5,451.483,0.5,42,124.0
6654,E-2,451.492,127/250,60,124.0
6655,D5,451.5,0.5,84,124.0
6656,C2,451.5,0.25,78,124.0
6657,E-3,451.5,0.25,74,124.0
6658,E-4,451.5,117/1000,89,124.0
6659,D5,451.5,0.5,93,124.0
6660,B-4,451.5,0.5,93,124.0
6661,F4,451.5,0.5,93,124.0
6662,E-2,452.0,51/40,60,124.0
6663,D5,452.0,0.5,84,124.0
6664,D5,452.0,467/1000,66,124.0
6665,D5,452.0,417/1000,110,124.0
6666,D5,452.0,2/5,87,124.0
6667,C2,452.0,0.25,78,124.0
6668,E-3,452.0,0.25,89,124.0
6669,D5,452.0,13/40,93,124.0
6670,B-4,452.0,13/40,93,124.0
6671,F4,452.0,13/40,93,124.0
6672,B-4,452.417,1.0,110,124.0
6673,B-4,452.467,1.0,66,124.0
6674,B-4,452.483,917/1000,87,124.0
6675,B-6,452.483,0.5,42,124.0
6676,B-5,452.483,0.5,42,124.0
6677,B-4,452.5,1.0,84,124.0
6678,C#2,452.5,1.0,84,124.0
6679,E-3,452.5,0.25,74,124.0
6680,D4,452.5,117/1000,89,124.0
6681,D4,452.5,0.5,93,124.0
6682,G4,452.5,0.5,93,124.0
6683,B-4,452.5,0.5,93,124.0
6684,G6,452.983,1.0,42,124.0
6685,G5,452.983,1.0,42,124.0
6686,E-3,453.0,0.25,89,124.0
6687,E4,453.0,117/1000,89,124.0
6688,E1,453.367,3/40,50,124.0
6689,G4,453.417,621/500,110,124.0
6690,G4,453.467,621/500,66,124.0
6691,G4,453.483,579/500,81,124.0
6692,E-2,453.492,367/1000,60,124.0
6693,G4,453.5,621/500,78,124.0
6694,C2,453.5,0.25,78,124.0
6695,E-3,453.5,0.25,74,124.0
6696,E4,453.5,117/1000,89,124.0
6697,D4,453.5,53/40,93,124.0
6698,G4,453.5,53/40,93,124.0
6699,B-3,453.5,53/40,93,124.0
6700,D6,453.983,1.0,42,124.0
6701,D5,453.983,1.0,42,124.0
6702,B-1,453.992,227/250,85,124.0
6703,C2,454.0,0.25,78,124.0
6704,C#2,454.0,1.0,84,124.0
6705,E-3,454.0,0.25,89,124.0
6706,E-4,454.0,117/1000,89,124.0
6707,E-3,454.5,0.25,79,124.0
6708,E-3,454.75,0.25,74,124.0
6709,C5,454.917,0.5,110,124.0
6710,C5,454.967,0.5,66,124.0
6711,C5,454.983,417/1000,87,124.0
6712,E-6,454.983,0.5,42,124.0
6713,E-5,454.983,0.5,42,124.0
6714,E-2,454.992,33/40,85,124.0
6715,C5,455.0,0.5,84,124.0
6716,E-3,455.0,0.25,89,124.0
6717,D4,455.0,117/1000,89,124.0
6718,F#3,455.0,117/1000,116,124.0
6719,G4,455.0,0.5,93,124.0
6720,C5,455.0,0.5,93,124.0
6721,D5,455.417,0.5,110,124.0
6722,D5,455.467,0.5,66,124.0
6723,D5,455.483,417/1000,87,124.0
6724,D6,455.483,0.5,42,124.0
6725,D5,455.483,0.5,42,124.0
6726,D5,455.5,13/40,93,124.0
6727,D5,455.5,0.5,84,124.0
6728,E-3,455.5,0.25,74,124.0
6729,E-5,455.917,83/1000,110,124.0
6730,E-5,455.967,33/1000,66,124.0
6731,E-5,455.983,17/1000,87,124.0
6732,B-5,455.983,0.5,42,124.0
6733,B-4,455.983,0.5,42,124.0
6734,F1,455.992,1/125,85,124.0
6735,F1,456.0,1367/1000,85,124.0
6736,E-5,456.0,1.0,84,124.0
6737,E-5,456.0,967/1000,66,124.0
6738,E-5,456.0,917/1000,110,124.0
6739,E-5,456.0,9/10,87,124.0
6740,C2,456.0,0.25,78,124.0
6741,E-3,456.0,0.25,89,124.0
6742,A4,456.0,117/1000,73,124.0
6743,G4,456.0,33/40,93,124.0
6744,C5,456.0,33/40,93,124.0
6745,E-5,456.0,33/40,93,124.0
6746,A4,456.25,117/1000,48,124.0
6747,C6,456.483,1.0,42,124.0
6748,C5,456.483,1.0,42,124.0
6749,E-3,456.5,0.25,74,124.0
6750,A4,456.5,117/1000,73,124.0
6751,A4,456.75,117/1000,48,124.0
6752,D5,456.917,0.5,110,124.0
6753,D5,456.967,0.5,66,124.0
6754,D5,456.983,417/1000,87,124.0
6755,D5,457.0,0.5,84,124.0
6756,C#2,457.0,1.0,84,124.0
6757,E-3,457.0,0.25,89,124.0
6758,D4,457.0,117/1000,89,124.0
6759,A4,457.0,117/1000,73,124.0
6760,D5,457.0,13/40,93,124.0
6761,F4,457.0,13/40,93,124.0
6762,B-4,457.0,13/40,93,124.0
6763,A4,457.25,117/1000,24,124.0
6764,E1,457.367,3/40,50,124.0
6765,C5,457.417,1.0,110,124.0
6766,C5,457.467,1.0,66,124.0
6767,C5,457.483,917/1000,81,124.0
6768,E-6,457.483,0.5,42,124.0
6769,E-5,457.483,0.5,42,124.0
6770,C2,457.492,124/125,60,124.0
6771,C5,457.5,1.0,78,124.0
6772,C2,457.5,0.25,78,124.0
6773,E-3,457.5,0.25,74,124.0
6774,C5,457.5,0.75,93,124.0
6775,G4,457.5,0.75,93,124.0
6776,E-4,457.5,0.75,93,124.0
6777,G6,457.983,124/125,42,124.0
6778,G5,457.983,124/125,42,124.0
6779,C2,458.0,0.25,78,124.0
6780,E-3,458.0,0.25,89,124.0
6781,B-4,458.417,1.0,110,124.0
6782,B-4,458.467,1.0,66,124.0
6783,B-4,458.483,917/1000,87,124.0
6784,F1,458.492,417/1000,85,124.0
6785,B-4,458.5,1.0,84,124.0
6786,C#2,458.5,1.0,84,124.0
6787,E-3,458.5,0.25,74,124.0
6788,D4,458.5,117/1000,89,124.0
6789,D4,458.5,0.75,93,124.0
6790,F4,458.5,0.75,93,124.0
6791,B-4,458.5,0.75,93,124.0
6792,C7,458.983,124/125,42,124.0
6793,C6,458.983,124/125,42,124.0
6794,F#1,458.992,123/250,85,124.0
6795,E-3,459.0,0.25,89,124.0
6796,E4,459.0,117/1000,89,124.0
6797,G4,459.417,583/1000,110,124.0
6798,G4,459.467,533/1000,66,124.0
6799,G4,459.483,517/1000,87,124.0
6800,G1,459.492,127/250,85,124.0
6801,D4,459.5,0.5,93,124.0
6802,G4,459.5,0.5,84,124.0
6803,C2,459.5,0.25,78,124.0
6804,E-3,459.5,0.25,74,124.0
6805,E-4,459.5,117/1000,89,124.0
6806,B-3,459.5,0.5,93,124.0
6807,G4,459.5,0.5,93,124.0
6808,D7,459.983,0.5,42,124.0
6809,D6,459.983,0.5,42,124.0
6810,D4,460.0,13/40,93,124.0
6811,G1,460.0,51/40,85,124.0
6812,G4,460.0,0.5,84,124.0
6813,G4,460.0,467/1000,66,124.0
6814,G4,460.0,417/1000,110,124.0
6815,G4,460.0,2/5,87,124.0
6816,C2,460.0,0.25,78,124.0
6817,E-3,460.0,0.25,89,124.0
6818,B-3,460.0,53/40,93,124.0
6819,G4,460.0,53/40,93,124.0
6820,E-4,460.417,1.0,110,124.0
6821,E-4,460.467,1.0,66,124.0
6822,E-4,460.483,917/1000,87,124.0
6823,D7,460.483,0.5,42,124.0
6824,D6,460.483,0.5,42,124.0
6825,E-4,460.5,33/40,93,124.0
6826,E-4,460.5,1.0,84,124.0
6827,C#2,460.5,1.0,84,124.0
6828,E-3,460.5,0.25,74,124.0
6829,D4,460.5,117/1000,89,124.0
6830,B-6,460.983,1.0,42,124.0
6831,B-5,460.983,1.0,42,124.0
6832,E-3,461.0,0.25,89,124.0
6833,E-4,461.0,117/1000,89,124.0
6834,E1,461.367,3/40,50,124.0
6835,F4,461.417,1.5,110,124.0
6836,F4,461.467,1.5,66,124.0
6837,F4,461.483,1417/1000,87,124.0
6838,D2,461.492,367/1000,60,124.0
6839,F4,461.5,1.5,93,124.0
6840,F4,461.5,1.5,84,124.0
6841,C2,461.5,0.25,78,124.0
6842,E-3,461.5,0.25,74,124.0
6843,E4,461.5,117/1000,89,124.0
6844,D4,461.5,2.25,93,124.0
6845,B-3,461.5,2.25,93,124.0
6846,G6,461.983,621/500,42,124.0
6847,G5,461.983,621/500,42,124.0
6848,D2,461.992,227/250,85,124.0
6849,C2,462.0,0.25,78,124.0
6850,C#2,462.0,1.0,84,124.0
6851,G3,462.0,0.25,116,124.0
6852,E-4,462.0,117/1000,89,124.0
6853,E-4,462.167,117/1000,89,124.0
6854,E-3,462.5,0.25,74,124.0
6855,E-4,462.5,117/1000,89,124.0
6856,B-4,462.917,1.0,110,124.0
6857,B-4,462.967,1.0,66,124.0
6858,B-4,462.983,917/1000,87,124.0
6859,G1,462.992,227/250,85,124.0
6860,B-4,463.0,371/500,93,124.0
6861,B-4,463.0,1.0,84,124.0
6862,D2,463.0,1.0,92,124.0
6863,E-3,463.0,0.25,89,124.0
6864,E-4,463.0,117/1000,89,124.0
6865,C7,463.483,0.5,42,124.0
6866,C6,463.483,0.5,42,124.0
6867,E-3,463.5,0.25,74,124.0
6868,E4,463.5,117/1000,89,124.0
6869,D4,463.917,83/1000,110,124.0
6870,D4,463.967,33/1000,66,124.0
6871,D4,463.983,17/1000,87,124.0
6872,D7,463.983,0.5,42,124.0
6873,D6,463.983,0.5,42,124.0
6874,G#1,463.992,1/125,85,124.0
6875,G#1,464.0,1367/1000,85,124.0
6876,D4,464.0,373/250,84,124.0
6877,D4,464.0,467/1000,66,124.0
6878,D4,464.0,417/1000,110,124.0
6879,D4,464.0,174/125,87,124.0
6880,C2,464.0,0.25,78,124.0
6881,E-3,464.0,0.25,89,124.0
6882,E-4,464.0,117/1000,89,124.0
6883,A4,464.0,117/1000,73,124.0
6884,B-3,464.0,53/40,93,124.0
6885,D4,464.0,53/40,93,124.0
6886,F3,464.0,53/40,93,124.0
6887,A4,464.25,117/1000,48,124.0
6888,E-4,464.417,0.5,110,124.0
6889,E-4,464.467,0.5,66,124.0
6890,E-7,464.483,1.0,42,124.0
6891,E-6,464.483,1.0,42,124.0
6892,E-3,464.5,0.25,74,124.0
6893,A4,464.5,117/1000,73,124.0
6894,A4,464.75,117/1000,48,124.0
6895,D4,464.917,0.5,110,124.0
6896,D4,464.967,0.5,66,124.0
6897,C#2,465.0,1.0,84,124.0
6898,E-3,465.0,0.25,89,124.0
6899,D4,465.0,117/1000,89,124.0
6900,A4,465.0,117/1000,73,124.0
6901,A4,465.25,117/1000,24,124.0
6902,E1,465.367,3/40,50,124.0
6903,C4,465.417,2583/1000,110,124.0
6904,C4,465.467,2533/1000,66,124.0
6905,C4,465.483,2517/1000,75,124.0
6906,D7,465.483,0.5,42,124.0
6907,D6,465.483,0.5,42,124.0
6908,G#2,465.492,227/250,60,124.0
6909,E-4,465.5,33/40,93,124.0
6910,C4,465.5,2.5,72,124.0
6911,C2,465.5,0.25,78,124.0
6912,E-3,465.5,0.25,74,124.0
6913,C4,465.5,1.75,93,124.0
6914,G#3,465.5,1.75,93,124.0
6915,C7,465.983,1.0,42,124.0
6916,C6,465.983,1.0,42,124.0
6917,C2,466.0,0.25,78,124.0
6918,E-3,466.0,0.25,89,124.0
6919,G#1,466.492,367/1000,85,124.0
6920,E-4,466.5,0.75,93,124.0
6921,C#2,466.5,1.0,84,124.0
6922,E-3,466.5,0.25,74,124.0
6923,D4,466.5,117/1000,89,124.0
6924,B-6,466.983,1.0,42,124.0
6925,B-5,466.983,1.0,42,124.0
6926,E-2,466.992,367/1000,75,124.0
6927,E-3,467.0,0.25,89,124.0
6928,E4,467.0,117/1000,89,124.0
6929,G#1,467.492,127/250,60,124.0
6930,D4,467.5,0.5,93,124.0
6931,C2,467.5,0.25,78,124.0
6932,E-3,467.5,0.25,74,124.0
6933,E-4,467.5,117/1000,89,124.0
6934,B-3,467.5,0.5,93,124.0
6935,F3,467.5,0.5,93,124.0
6936,G6,467.983,0.5,42,124.0
6937,G5,467.983,0.5,42,124.0
6938,D4,468.0,0.5,93,124.0
6939,G#1,468.0,1233/1000,60,124.0
6940,C4,468.0,3.0,72,124.0
6941,C4,468.0,467/1000,66,124.0
6942,C4,468.0,417/1000,110,124.0
6943,C4,468.0,29/10,75,124.0
6944,C2,468.0,0.25,78,124.0
6945,E-3,468.0,0.25,89,124.0
6946,B-3,468.0,53/40,93,124.0
6947,F3,468.0,53/40,93,124.0
6948,F4,468.5,33/40,93,124.0
6949,C#2,468.5,1.0,84,124.0
6950,E-3,468.5,0.25,79,124.0
6951,D4,468.5,117/1000,89,124.0
6952,E-5,468.5,117/1000,64,124.0
6953,E-3,468.75,0.25,74,124.0
6954,E-5,468.75,117/1000,64,124.0
6955,G6,468.983,0.5,42,124.0
6956,G5,468.983,0.5,42,124.0
6957,E-3,469.0,0.25,89,124.0
6958,E4,469.0,117/1000,89,124.0
6959,E-5,469.0,117/1000,64,124.0
6960,E1,469.367,3/40,50,124.0
6961,E-6,469.483,1.0,42,124.0
6962,E-5,469.483,1.0,42,124.0
6963,E-2,469.492,123/250,60,124.0
6964,C2,469.5,0.25,78,124.0
6965,E-3,469.5,0.25,74,124.0
6966,E4,469.5,117/1000,89,124.0
6967,E-5,469.5,117/1000,64,124.0
6968,C#6,469.5,117/1000,94,124.0
6969,C4,469.5,2.25,93,124.0
6970,E-4,469.5,2.25,93,124.0
6971,G#3,469.5,2.25,93,124.0
6972,C#6,469.625,117/1000,74,124.0
6973,C#6,469.75,117/1000,84,124.0
6974,C#6,469.875,117/1000,74,124.0
6975,G2,469.992,417/1000,85,124.0
6976,C2,470.0,0.25,78,124.0
6977,E-3,470.0,0.25,89,124.0
6978,E-4,470.0,117/1000,89,124.0
6979,E-5,470.0,117/1000,64,124.0
6980,C#6,470.0,117/1000,104,124.0
6981,F6,470.483,1.5,42,124.0
6982,F5,470.483,1.5,42,124.0
6983,F2,470.492,2/5,85,124.0
6984,E-3,470.5,0.25,74,124.0
6985,D4,470.5,117/1000,89,124.0
6986,C#6,470.5,117/1000,74,124.0
6987,E-4,470.917,0.5,110,124.0
6988,E-4,470.967,0.5,66,124.0
6989,E-4,470.983,417/1000,127,124.0
6990,E-2,470.992,417/1000,85,124.0
6991,E-4,471.0,0.5,124,124.0
6992,F2,471.0,1.0,104,124.0
6993,E-3,471.0,0.25,89,124.0
6994,C#6,471.0,117/1000,104,124.0
6995,D4,471.417,0.5,110,124.0
6996,D4,471.467,0.5,66,124.0
6997,D4,471.483,417/1000,127,124.0
6998,D2,471.492,123/250,60,124.0
6999,D4,471.5,0.5,124,124.0
7000,E-3,471.5,0.25,74,124.0
7001,D4,471.5,117/1000,89,124.0
7002,C4,471.917,83/1000,110,124.0
7003,C4,471.967,33/1000,66,124.0
7004,C4,471.983,17/1000,127,124.0
7005,B-6,471.983,1.0,42,124.0
7006,B-5,471.983,1.0,42,124.0
7007,C2,471.992,1/125,85,124.0
7008,C2,472.0,1367/1000,85,124.0
7009,C4,472.0,1.0,124,124.0
7010,C4,472.0,967/1000,66,124.0
7011,C4,472.0,917/1000,110,124.0
7012,C4,472.0,9/10,127,124.0
7013,C2,472.0,0.25,78,124.0
7014,C#3,472.0,0.25,111,124.0
7015,A4,472.0,117/1000,73,124.0
7016,C4,472.0,93/40,93,124.0
7017,G3,472.0,93/40,93,124.0
7018,A4,472.25,117/1000,48,124.0
7019,E-3,472.5,0.25,74,124.0
7020,A4,472.5,117/1000,73,124.0
7021,A4,472.75,117/1000,48,124.0
7022,E-4,472.917,123/250,110,124.0
7023,E-4,472.967,123/250,66,124.0
7024,E-4,472.983,51/125,127,124.0
7025,D6,472.983,0.5,42,124.0
7026,D5,472.983,0.5,42,124.0
7027,E-4,473.0,53/40,93,124.0
7028,E-4,473.0,123/250,124,124.0
7029,C#2,473.0,1.0,84,124.0
7030,E-3,473.0,0.25,89,124.0
7031,D4,473.0,117/1000,89,124.0
7032,A4,473.0,117/1000,73,124.0
7033,A4,473.25,117/1000,24,124.0
7034,E1,473.367,3/40,50,124.0
7035,G4,473.417,1.0,110,124.0
7036,G4,473.467,1.0,66,124.0
7037,G4,473.483,917/1000,117,124.0
7038,E-6,473.483,0.5,42,124.0
7039,E-5,473.483,0.5,42,124.0
7040,C3,473.492,367/1000,60,124.0
7041,G4,473.5,33/40,93,124.0
7042,G4,473.5,1.0,114,124.0
7043,C2,473.5,0.25,78,124.0
7044,E-3,473.5,0.25,74,124.0
7045,D6,473.983,0.5,42,124.0
7046,D5,473.983,0.5,42,124.0
7047,C3,473.992,123/250,85,124.0
7048,C2,474.0,0.25,78,124.0
7049,E-3,474.0,0.25,89,124.0
7050,C5,474.417,1.0,110,124.0
7051,C5,474.467,1.0,66,124.0
7052,C5,474.483,917/1000,127,124.0
7053,C6,474.483,2.5,42,124.0
7054,C5,474.483,2.5,42,124.0
7055,B-2,474.492,123/250,85,124.0
7056,C5,474.5,1.0,124,124.0
7057,C#2,474.5,1.0,84,124.0
7058,E-3,474.5,0.25,74,124.0
7059,D4,474.5,117/1000,89,124.0
7060,C5,474.5,123/250,93,124.0
7061,G4,474.5,123/250,93,124.0
7062,E-4,474.5,123/250,93,124.0
7063,F2,474.992,123/250,70,124.0
7064,E-3,475.0,0.25,89,124.0
7065,E4,475.0,117/1000,89,124.0
7066,B-4,475.417,583/1000,110,124.0
7067,B-4,475.467,533/1000,66,124.0
7068,B-4,475.483,517/1000,127,124.0
7069,G2,475.492,127/250,60,124.0
7070,B-4,475.5,0.5,124,124.0
7071,C2,475.5,0.25,78,124.0
7072,E-3,475.5,0.25,74,124.0
7073,E-4,475.5,117/1000,89,124.0
7074,G4,475.5,0.5,93,124.0
7075,B-4,475.5,0.5,93,124.0
7076,D4,475.5,0.5,93,124.0
7077,G2,476.0,1233/1000,60,124.0
7078,B-4,476.0,0.5,124,124.0
7079,B-4,476.0,467/1000,66,124.0
7080,B-4,476.0,417/1000,110,124.0
7081,B-4,476.0,2/5,127,124.0
7082,C2,476.0,0.25,78,124.0
7083,E-3,476.0,0.25,89,124.0
7084,G4,476.0,121/500,93,124.0
7085,B-4,476.0,121/500,93,124.0
7086,D4,476.0,121/500,93,124.0
7087,G4,476.417,1.0,110,124.0
7088,G4,476.467,1.0,66,124.0
7089,G4,476.483,917/1000,127,124.0
7090,G4,476.5,1.0,124,124.0
7091,C#2,476.5,1.0,84,124.0
7092,E-3,476.5,0.25,74,124.0
7093,D4,476.5,117/1000,89,124.0
7094,B-3,476.5,123/250,93,124.0
7095,D4,476.5,123/250,93,124.0
7096,G4,476.5,123/250,93,124.0
7097,E-3,477.0,0.25,89,124.0
7098,E-4,477.0,117/1000,89,124.0
7099,E1,477.367,3/40,50,124.0
7100,D4,477.417,1.0,110,124.0
7101,D4,477.467,1.0,66,124.0
7102,D4,477.483,917/1000,127,124.0
7103,C6,477.483,0.5,42,124.0
7104,C5,477.483,0.5,42,124.0
7105,D2,477.492,367/1000,60,124.0
7106,G3,477.5,2.25,93,124.0
7107,D4,477.5,1.0,93,124.0
7108,B-3,477.5,73/40,93,124.0
7109,D4,477.5,1.0,124,124.0
7110,C2,477.5,0.25,78,124.0
7111,E-3,477.5,0.25,79,124.0
7112,E4,477.5,117/1000,89,124.0
7113,E-3,477.75,0.25,74,124.0
7114,G1,477.992,227/250,85,124.0
7115,C2,478.0,0.25,78,124.0
7116,C#2,478.0,1.0,84,124.0
7117,G3,478.0,0.25,116,124.0
7118,E-4,478.0,117/1000,89,124.0
7119,E-4,478.417,0.5,110,124.0
7120,E-4,478.467,0.5,66,124.0
7121,E-4,478.483,417/1000,117,124.0
7122,E-4,478.5,123/250,93,124.0
7123,E-4,478.5,0.5,114,124.0
7124,E-3,478.5,0.25,74,124.0
7125,D4,478.917,0.5,110,124.0
7126,D4,478.967,0.5,66,124.0
7127,D4,478.983,417/1000,127,124.0
7128,B-1,478.992,227/250,85,124.0
7129,D4,479.0,0.5,93,124.0
7130,D4,479.0,0.5,124,124.0
7131,D2,479.0,1.0,92,124.0
7132,E-3,479.0,0.25,89,124.0
7133,D4,479.0,117/1000,89,124.0
7134,B-3,479.417,0.5,110,124.0
7135,B-3,479.467,0.5,66,124.0
7136,B-3,479.483,417/1000,127,124.0
7137,B-3,479.5,0.25,93,124.0
7138,B-3,479.5,0.5,124,124.0
7139,E-3,479.5,0.25,74,124.0
7140,C4,479.917,83/1000,110,124.0
7141,C4,479.967,33/1000,66,124.0
7142,C4,479.983,17/1000,127,124.0
7143,G#1,479.992,1/125,85,124.0
7144,G#1,480.0,1367/1000,85,124.0
7145,C4,480.0,1.0,124,124.0
7146,C4,480.0,967/1000,66,124.0
7147,C4,480.0,917/1000,110,124.0
7148,C4,480.0,9/10,127,124.0
7149,C2,480.0,0.25,78,124.0
7150,E-3,480.0,0.25,89,124.0
7151,A4,480.0,117/1000,73,124.0
7152,G#3,480.0,93/40,93,124.0
7153,C4,480.0,93/40,93,124.0
7154,A4,480.25,117/1000,48,124.0
7155,E-6,480.483,0.5,42,124.0
7156,E-5,480.483,0.5,42,124.0
7157,E-3,480.5,0.25,74,124.0
7158,A4,480.5,117/1000,73,124.0
7159,A4,480.75,117/1000,48,124.0
7160,E-4,480.917,0.5,110,124.0
7161,E-4,480.967,0.5,66,124.0
7162,E-4,480.983,417/1000,127,124.0
7163,D6,480.983,0.5,42,124.0
7164,D5,480.983,0.5,42,124.0
7165,E-4,481.0,53/40,93,124.0
7166,E-4,481.0,0.5,124,124.0
7167,C#2,481.0,1.0,84,124.0
7168,E-3,481.0,0.25,89,124.0
7169,D4,481.0,117/1000,89,124.0
7170,A4,481.0,117/1000,73,124.0
7171,A4,481.25,117/1000,24,124.0
7172,E1,481.367,3/40,50,124.0
7173,G4,481.417,1.0,110,124.0
7174,G4,481.467,1.0,66,124.0
7175,G4,481.483,917/1000,127,124.0
7176,C6,481.483,1.0,42,124.0
7177,C5,481.483,1.0,42,124.0
7178,G#2,481.492,367/1000,60,124.0
7179,G4,481.5,33/40,93,124.0
7180,G4,481.5,1.0,124,124.0
7181,C2,481.5,0.25,78,124.0
7182,E-3,481.5,0.25,74,124.0
7183,G#2,481.992,124/125,85,124.0
7184,C2,482.0,0.25,78,124.0
7185,E-3,482.0,0.25,89,124.0
7186,C5,482.417,1.0,110,124.0
7187,C5,482.467,1.0,66,124.0
7188,C5,482.483,917/1000,127,124.0
7189,E-6,482.483,123/250,42,124.0
7190,E-5,482.483,123/250,42,124.0
7191,C5,482.5,1.0,124,124.0
7192,C#2,482.5,1.0,84,124.0
7193,E-3,482.5,0.25,74,124.0
7194,D4,482.5,117/1000,89,124.0
7195,G4,482.5,0.5,93,124.0
7196,E-4,482.5,0.5,93,124.0
7197,C5,482.5,0.5,93,124.0
7198,G6,482.983,1.0,42,124.0
7199,G5,482.983,1.0,42,124.0
7200,D2,482.992,367/1000,85,124.0
7201,E-3,483.0,0.25,89,124.0
7202,E4,483.0,117/1000,89,124.0
7203,D5,483.417,583/1000,110,124.0
7204,D5,483.467,533/1000,66,124.0
7205,D5,483.483,517/1000,127,124.0
7206,E-2,483.492,127/250,60,124.0
7207,D5,483.5,0.5,124,124.0
7208,C2,483.5,0.25,78,124.0
7209,E-3,483.5,0.25,74,124.0
7210,E-4,483.5,117/1000,89,124.0
7211,D5,483.5,0.5,93,124.0
7212,B-4,483.5,0.5,93,124.0
7213,F4,483.5,0.5,93,124.0
7214,C7,483.983,1.0,42,124.0
7215,C6,483.983,1.0,42,124.0
7216,E-2,484.0,1233/1000,60,124.0
7217,D5,484.0,0.5,124,124.0
7218,D5,484.0,467/1000,66,124.0
7219,D5,484.0,417/1000,110,124.0
7220,D5,484.0,2/5,127,124.0
7221,C2,484.0,0.25,78,124.0
7222,E-3,484.0,0.25,89,124.0
7223,D5,484.0,0.25,93,124.0
7224,B-4,484.0,0.25,93,124.0
7225,F4,484.0,0.25,93,124.0
7226,B-4,484.417,1.0,110,124.0
7227,B-4,484.467,1.0,66,124.0
7228,B-4,484.483,917/1000,127,124.0
7229,B-4,484.5,1.0,124,124.0
7230,C#2,484.5,1.0,84,124.0
7231,E-3,484.5,0.25,74,124.0
7232,D4,484.5,117/1000,89,124.0
7233,D4,484.5,0.5,93,124.0
7234,G4,484.5,0.5,93,124.0
7235,B-4,484.5,0.5,93,124.0
7236,B-6,484.983,0.5,42,124.0
7237,B-5,484.983,0.5,42,124.0
7238,E-3,485.0,0.25,89,124.0
7239,E4,485.0,117/1000,89,124.0
7240,E1,485.367,3/40,50,124.0
7241,G4,485.417,621/500,110,124.0
7242,G4,485.467,621/500,66,124.0
7243,G4,485.483,579/500,127,124.0
7244,B-6,485.483,0.5,42,124.0
7245,B-5,485.483,0.5,42,124.0
7246,E-2,485.492,367/1000,60,124.0
7247,G4,485.5,621/500,124,124.0
7248,C2,485.5,0.25,78,124.0
7249,E-3,485.5,0.25,79,124.0
7250,E4,485.5,117/1000,89,124.0
7251,D4,485.5,53/40,93,124.0
7252,G4,485.5,53/40,93,124.0
7253,B-3,485.5,53/40,93,124.0
7254,E-3,485.75,0.25,74,124.0
7255,G6,485.983,1.0,42,124.0
7256,G5,485.983,1.0,42,124.0
7257,B-1,485.992,227/250,85,124.0
7258,C2,486.0,0.25,78,124.0
7259,C#2,486.0,1.0,84,124.0
7260,E-3,486.0,0.25,89,124.0
7261,E-4,486.0,117/1000,89,124.0
7262,E-3,486.5,0.25,74,124.0
7263,C5,486.917,0.5,110,124.0
7264,C5,486.967,0.5,66,124.0
7265,C5,486.983,417/1000,127,124.0
7266,D6,486.983,1.0,42,124.0
7267,D5,486.983,1.0,42,124.0
7268,E-2,486.992,33/40,85,124.0
7269,C5,487.0,0.5,124,124.0
7270,D2,487.0,1.0,92,124.0
7271,E-3,487.0,0.25,89,124.0
7272,D4,487.0,117/1000,89,124.0
7273,F#3,487.0,117/1000,116,124.0
7274,G4,487.0,0.5,93,124.0
7275,C5,487.0,0.5,93,124.0
7276,D5,487.417,0.5,110,124.0
7277,D5,487.467,0.5,66,124.0
7278,D5,487.483,417/1000,127,124.0
7279,D5,487.5,13/40,93,124.0
7280,D5,487.5,0.5,124,124.0
7281,E-3,487.5,0.25,74,124.0
7282,E-5,487.917,83/1000,110,124.0
7283,E-4,487.958,21/500,89,124.0
7284,E-4,487.958,21/500,89,124.0
7285,E-5,487.967,33/1000,66,124.0
7286,E-5,487.983,17/1000,117,124.0
7287,E-6,487.983,0.5,42,124.0
7288,E-5,487.983,0.5,42,124.0
7289,F1,487.992,1/125,85,124.0
7290,F1,488.0,1367/1000,85,124.0
7291,E-5,488.0,1.0,114,124.0
7292,E-5,488.0,967/1000,66,124.0
7293,E-5,488.0,917/1000,110,124.0
7294,E-5,488.0,9/10,117,124.0
7295,C2,488.0,0.25,78,124.0
7296,E-3,488.0,0.25,89,124.0
7297,A4,488.0,117/1000,73,124.0
7298,G4,488.0,33/40,93,124.0
7299,C5,488.0,33/40,93,124.0
7300,E-5,488.0,33/40,93,124.0
7301,E-4,488.0,3/40,89,124.0
7302,E-4,488.0,3/40,89,124.0
7303,A4,488.25,117/1000,48,124.0
7304,D6,488.483,0.5,42,124.0
7305,D5,488.483,0.5,42,124.0
7306,E-3,488.5,0.25,74,124.0
7307,A4,488.5,117/1000,73,124.0
7308,A4,488.75,117/1000,48,124.0
7309,D5,488.917,0.5,110,124.0
7310,D5,488.967,0.5,66,124.0
7311,D5,488.983,417/1000,127,124.0
7312,B-5,488.983,0.5,42,124.0
7313,B-4,488.983,0.5,42,124.0
7314,D5,489.0,0.5,124,124.0
7315,C#2,489.0,1.0,84,124.0
7316,E-3,489.0,0.25,89,124.0
7317,D4,489.0,117/1000,89,124.0
7318,A4,489.0,117/1000,73,124.0
7319,D5,489.0,13/40,93,124.0
7320,F4,489.0,13/40,93,124.0
7321,B-4,489.0,13/40,93,124.0
7322,A4,489.25,117/1000,24,124.0
7323,E1,489.367,3/40,50,124.0
7324,C5,489.417,1.0,110,124.0
7325,C5,489.467,1.0,66,124.0
7326,C5,489.483,917/1000,127,124.0
7327,C6,489.483,1.0,42,124.0
7328,C5,489.483,1.0,42,124.0
7329,C2,489.492,124/125,60,124.0
7330,C5,489.5,1.0,124,124.0
7331,C2,489.5,0.25,78,124.0
7332,E-3,489.5,0.25,74,124.0
7333,C5,489.5,0.75,93,124.0
7334,G4,489.5,0.75,93,124.0
7335,E-4,489.5,0.75,93,124.0
7336,C2,490.0,0.25,78,124.0
7337,E-3,490.0,0.25,89,124.0
7338,B-4,490.417,1.0,110,124.0
7339,B-4,490.467,1.0,66,124.0
7340,B-4,490.483,917/1000,127,124.0
7341,E-6,490.483,0.5,42,124.0
7342,E-5,490.483,0.5,42,124.0
7343,F1,490.492,2/5,85,124.0
7344,B-4,490.5,1.0,124,124.0
7345,C#2,490.5,1.0,84,124.0
7346,E-3,490.5,0.25,74,124.0
7347,D4,490.5,117/1000,89,124.0
7348,G4,490.5,0.75,93,124.0
7349,D4,490.5,0.75,93,124.0
7350,B-4,490.5,0.75,93,124.0
7351,G6,490.983,1.0,42,124.0
7352,G5,490.983,1.0,42,124.0
7353,F#1,490.992,123/250,85,124.0
7354,E-3,491.0,0.25,89,124.0
7355,E4,491.0,117/1000,89,124.0
7356,G4,491.417,583/1000,110,124.0
7357,G4,491.467,533/1000,66,124.0
7358,G4,491.483,517/1000,117,124.0
7359,G1,491.492,127/250,60,124.0
7360,D4,491.5,0.5,93,124.0
7361,G4,491.5,0.5,114,124.0
7362,C2,491.5,0.25,78,124.0
7363,E-3,491.5,0.25,74,124.0
7364,E-4,491.5,117/1000,89,124.0
7365,B-3,491.5,0.5,93,124.0
7366,G4,491.5,0.5,93,124.0
7367,C7,491.983,1.0,42,124.0
7368,C6,491.983,1.0,42,124.0
7369,D4,492.0,13/40,93,124.0
7370,G1,492.0,1233/1000,60,124.0
7371,G4,492.0,0.5,114,124.0
7372,G4,492.0,467/1000,66,124.0
7373,G4,492.0,417/1000,110,124.0
7374,G4,492.0,2/5,117,124.0
7375,C2,492.0,0.25,78,124.0
7376,E-3,492.0,0.25,89,124.0
7377,B-3,492.0,53/40,93,124.0
7378,G4,492.0,53/40,93,124.0
7379,E-4,492.417,1.0,110,124.0
7380,E-4,492.467,1.0,66,124.0
7381,E-4,492.483,917/1000,117,124.0
7382,E-4,492.5,33/40,93,124.0
7383,E-4,492.5,1.0,114,124.0
7384,C#2,492.5,1.0,84,124.0
7385,E-3,492.5,0.25,74,124.0
7386,D4,492.5,117/1000,89,124.0
7387,D7,492.983,0.5,42,124.0
7388,D6,492.983,0.5,42,124.0
7389,E-3,493.0,0.25,89,124.0
7390,E4,493.0,117/1000,89,124.0
7391,E1,493.367,3/40,50,124.0
7392,F4,493.417,1.5,110,124.0
7393,F4,493.467,1.5,66,124.0
7394,F4,493.483,1417/1000,127,124.0
7395,D2,493.492,367/1000,60,124.0
7396,F4,493.5,1.5,93,124.0
7397,F4,493.5,1.5,124,124.0
7398,C2,493.5,0.25,78,124.0
7399,E-3,493.5,0.25,74,124.0
7400,E4,493.5,117/1000,89,124.0
7401,D4,493.5,2.25,93,124.0
7402,B-3,493.5,2.25,93,124.0
7403,E-4,493.833,117/1000,89,124.0
7404,D7,493.983,0.5,42,124.0
7405,D6,493.983,0.5,42,124.0
7406,D2,493.992,227/250,85,124.0
7407,C2,494.0,0.25,78,124.0
7408,C#2,494.0,1.0,84,124.0
7409,G3,494.0,0.25,116,124.0
7410,E-4,494.0,117/1000,89,124.0
7411,B-6,494.483,1.0,42,124.0
7412,B-5,494.483,1.0,42,124.0
7413,E-3,494.5,0.25,79,124.0
7414,E-4,494.5,117/1000,89,124.0
7415,E-3,494.75,0.25,74,124.0
7416,B-4,494.917,1.0,110,124.0
7417,B-4,494.967,1.0,66,124.0
7418,B-4,494.983,917/1000,127,124.0
7419,G1,494.992,227/250,85,124.0
7420,B-4,495.0,371/500,93,124.0
7421,B-4,495.0,1.0,124,124.0
7422,D2,495.0,1.0,92,124.0
7423,E-3,495.0,0.25,89,124.0
7424,G6,495.483,621/500,42,124.0
7425,G5,495.483,621/500,42,124.0
7426,E-3,495.5,0.25,74,124.0
7427,E4,495.5,117/1000,89,124.0
7428,D4,495.917,83/1000,110,124.0
7429,D4,495.967,33/1000,66,124.0
7430,D4,495.983,17/1000,127,124.0
7431,G#1,495.992,1/125,85,124.0
7432,G#1,496.0,1367/1000,85,124.0
7433,D4,496.0,373/250,127,124.0
7434,D4,496.0,467/1000,66,124.0
7435,D4,496.0,417/1000,110,124.0
7436,D4,496.0,174/125,127,124.0
7437,C2,496.0,0.25,78,124.0
7438,E-3,496.0,0.25,89,124.0
7439,A4,496.0,117/1000,73,124.0
7440,B-3,496.0,53/40,93,124.0
7441,D4,496.0,53/40,93,124.0
7442,F3,496.0,53/40,93,124.0
7443,A4,496.25,117/1000,48,124.0
7444,E-4,496.417,0.5,110,124.0
7445,E-4,496.467,0.5,66,124.0
7446,E-3,496.5,0.25,74,124.0
7447,A4,496.5,117/1000,73,124.0
7448,A4,496.75,117/1000,48,124.0
7449,D4,496.917,0.5,110,124.0
7450,D4,496.967,0.5,66,124.0
7451,C7,496.983,0.5,42,124.0
7452,C6,496.983,0.5,42,124.0
7453,C#2,497.0,1.0,84,124.0
7454,E-3,497.0,0.25,89,124.0
7455,D4,497.0,117/1000,89,124.0
7456,A4,497.0,117/1000,73,124.0
7457,A4,497.25,117/1000,24,124.0
7458,E1,497.367,3/40,50,124.0
7459,C4,497.417,2583/1000,110,124.0
7460,C4,497.467,2533/1000,66,124.0
7461,C4,497.483,2517/1000,107,124.0
7462,D7,497.483,0.5,42,124.0
7463,D6,497.483,0.5,42,124.0
7464,G#2,497.492,227/250,60,124.0
7465,E-4,497.5,33/40,93,124.0
7466,C4,497.5,2.5,104,124.0
7467,C2,497.5,0.25,78,124.0
7468,E-3,497.5,0.25,74,124.0
7469,C4,497.5,1.75,93,124.0
7470,G#3,497.5,1.75,93,124.0
7471,E-7,497.983,1.0,42,124.0
7472,E-6,497.983,1.0,42,124.0
7473,C2,498.0,0.25,78,124.0
7474,E-3,498.0,0.25,89,124.0
7475,G#2,498.492,123/250,75,124.0
7476,E-4,498.5,0.75,93,124.0
7477,C#2,498.5,1.0,84,124.0
7478,E-3,498.5,0.25,74,124.0
7479,D4,498.5,117/1000,89,124.0
7480,D7,498.983,0.5,42,124.0
7481,D6,498.983,0.5,42,124.0
7482,E-2,498.992,123/250,85,124.0
7483,E-3,499.0,0.25,89,124.0
7484,E4,499.0,117/1000,89,124.0
7485,C7,499.483,1.0,42,124.0
7486,C6,499.483,1.0,42,124.0
7487,G#1,499.492,127/250,60,124.0
7488,D4,499.5,0.5,93,124.0
7489,C2,499.5,0.25,78,124.0
7490,E-3,499.5,0.25,74,124.0
7491,E-4,499.5,117/1000,89,124.0
7492,B-3,499.5,0.5,93,124.0
7493,F3,499.5,0.5,93,124.0
7494,D4,500.0,0.5,93,124.0
7495,G#1,500.0,1233/1000,60,124.0
7496,C4,500.0,3.0,104,124.0
7497,C4,500.0,729/500,66,124.0
7498,C4,500.0,176/125,110,124.0
7499,C4,500.0,29/10,107,124.0
7500,C2,500.0,0.25,78,124.0
7501,E-3,500.0,0.25,89,124.0
7502,B-3,500.0,53/40,93,124.0
7503,F3,500.0,53/40,93,124.0
7504,B-6,500.483,1.0,42,124.0
7505,B-5,500.483,1.0,42,124.0
7506,F4,500.5,33/40,93,124.0
7507,D2,500.5,1.0,92,124.0
7508,E-3,500.5,0.25,74,124.0
7509,E-5,500.5,117/1000,64,124.0
7510,E-5,500.75,117/1000,64,124.0
7511,E-3,501.0,0.25,89,124.0
7512,D4,501.0,117/1000,89,124.0
7513,E-5,501.0,117/1000,64,124.0
7514,E1,501.367,3/40,50,124.0
7515,G6,501.483,0.5,42,124.0
7516,G5,501.483,0.5,42,124.0
7517,G#2,501.492,367/1000,60,124.0
7518,C2,501.5,0.25,78,124.0
7519,E-3,501.5,0.25,74,124.0
7520,E-5,501.5,117/1000,64,124.0
7521,C4,501.5,2.25,93,124.0
7522,E-4,501.5,2.25,93,124.0
7523,G#3,501.5,2.25,93,124.0
7524,G#2,501.992,477/250,85,124.0
7525,C2,502.0,0.25,78,124.0
7526,D2,502.0,1.0,92,124.0
7527,E-3,502.0,0.25,89,124.0
7528,E-5,502.0,117/1000,64,124.0
7529,G6,502.483,0.5,42,124.0
7530,G5,502.483,0.5,42,124.0
7531,E-3,502.5,0.25,79,124.0
7532,E-4,502.5,117/1000,89,124.0
7533,E-4,502.667,117/1000,89,124.0
7534,E-3,502.75,0.25,74,124.0
7535,E-6,502.983,1.0,42,124.0
7536,E-5,502.983,1.0,42,124.0
7537,G2,503.0,1.0,104,124.0
7538,E-3,503.0,0.25,89,124.0
7539,E-4,503.0,117/1000,89,124.0
7540,E-3,503.5,0.25,74,124.0
7541,E-4,503.5,117/1000,89,124.0
7542,F6,503.983,1.5,42,124.0
7543,F5,503.983,1.5,42,124.0
7544,C2,503.992,1/125,85,124.0
7545,C2,504.0,1367/1000,85,124.0
7546,C2,504.0,0.25,78,124.0
7547,E-3,504.0,0.25,89,124.0
7548,A5,504.0,117/1000,82,124.0
7549,B-4,504.0,0.25,67,124.0
7550,A4,504.0,0.25,67,124.0
7551,E-3,504.5,0.25,74,124.0
7552,B-4,504.5,0.25,43,124.0
7553,A4,504.5,0.25,43,124.0
7554,E-3,505.0,0.25,89,124.0
7555,D4,505.0,117/1000,89,124.0
7556,B-3,505.0,43/40,93,124.0
7557,C4,505.0,43/40,93,124.0
7558,G4,505.0,43/40,93,124.0
7559,E-4,505.0,43/40,93,124.0
7560,B-4,505.0,0.25,72,124.0
7561,A4,505.0,0.25,72,124.0
7562,E1,505.367,3/40,50,124.0
7563,B-6,505.483,1.0,42,124.0
7564,B-5,505.483,1.0,42,124.0
7565,G2,505.492,367/1000,60,124.0
7566,C2,505.5,0.25,78,124.0
7567,C#2,505.5,1.0,84,124.0
7568,E-3,505.5,0.25,74,124.0
7569,B-4,505.5,0.25,36,124.0
7570,A4,505.5,0.25,36,124.0
7571,G2,505.992,1.375,85,124.0
7572,C2,506.0,0.25,78,124.0
7573,E-3,506.0,0.25,89,124.0
7574,B-4,506.0,0.25,67,124.0
7575,A4,506.0,0.25,67,124.0
7576,D6,506.483,0.5,42,124.0
7577,D5,506.483,0.5,42,124.0
7578,E-3,506.5,0.25,74,124.0
7579,D4,506.5,117/1000,89,124.0
7580,G4,506.5,13/40,93,124.0
7581,B-3,506.5,13/40,93,124.0
7582,C4,506.5,13/40,93,124.0
7583,E-4,506.5,13/40,93,124.0
7584,B-4,506.5,0.25,43,124.0
7585,A4,506.5,0.25,43,124.0
7586,G4,506.983,123/250,127,124.0
7587,E-6,506.983,0.5,42,124.0
7588,E-5,506.983,0.5,42,124.0
7589,G4,507.0,23/40,124,124.0
7590,C#2,507.0,1.0,84,124.0
7591,E-3,507.0,0.25,89,124.0
7592,E4,507.0,117/1000,89,124.0
7593,B-4,507.0,0.25,72,124.0
7594,A4,507.0,0.25,72,124.0
7595,E1,507.367,3/40,50,124.0
7596,D6,507.483,0.5,42,124.0
7597,D5,507.483,0.5,42,124.0
7598,C2,507.492,367/1000,60,124.0
7599,C2,507.5,0.25,78,124.0
7600,E-3,507.5,0.25,79,124.0
7601,E4,507.5,117/1000,89,124.0
7602,F4,507.5,0.5,93,124.0
7603,B-3,507.5,0.5,93,124.0
7604,D4,507.5,0.5,93,124.0
7605,A3,507.5,0.5,93,124.0
7606,B-4,507.5,0.25,36,124.0
7607,A4,507.5,0.25,36,124.0
7608,G4,507.733,267/1000,127,124.0
7609,G4,507.75,0.25,124,124.0
7610,E-3,507.75,0.25,74,124.0
7611,C6,507.983,2.5,42,124.0
7612,C5,507.983,2.5,42,124.0
7613,C2,507.992,1/125,85,124.0
7614,C2,508.0,1367/1000,85,124.0
7615,G4,508.0,13/40,124,124.0
7616,G4,508.0,9/40,127,124.0
7617,C2,508.0,0.25,78,124.0
7618,E-3,508.0,0.25,89,124.0
7619,F4,508.0,499/125,93,124.0
7620,B-3,508.0,499/125,93,124.0
7621,D4,508.0,499/125,93,124.0
7622,A3,508.0,499/125,93,124.0
7623,B-4,508.0,0.25,67,124.0
7624,A4,508.0,0.25,67,124.0
7625,F4,508.483,371/500,127,124.0
7626,F4,508.5,33/40,124,124.0
7627,C#2,508.5,1.0,84,124.0
7628,E-3,508.5,0.25,74,124.0
7629,B-4,508.5,0.25,43,124.0
7630,A4,508.5,0.25,43,124.0
7631,E-3,509.0,0.25,89,124.0
7632,B-4,509.0,0.25,72,124.0
7633,A4,509.0,0.25,72,124.0
7634,E1,509.367,3/40,50,124.0
7635,F4,509.483,79/500,127,124.0
7636,F2,509.492,367/1000,60,124.0
7637,F4,509.5,121/500,124,124.0
7638,C2,509.5,0.25,78,124.0
7639,E-3,509.5,0.25,74,124.0
7640,E-4,509.5,117/1000,89,124.0
7641,B-4,509.5,0.25,36,124.0
7642,A4,509.5,0.25,36,124.0
7643,E-4,509.733,79/500,127,124.0
7644,E-4,509.75,121/500,124,124.0
7645,F4,509.983,123/250,127,124.0
7646,F2,509.992,1.375,85,124.0
7647,F4,510.0,23/40,124,124.0
7648,C2,510.0,0.25,78,124.0
7649,E-3,510.0,0.25,89,124.0
7650,B-4,510.0,0.25,67,124.0
7651,A4,510.0,0.25,67,124.0
7652,E-3,510.5,0.25,79,124.0
7653,B-4,510.5,0.25,43,124.0
7654,A4,510.5,0.25,43,124.0
7655,F4,510.733,123/250,127,124.0
7656,F4,510.75,23/40,124,124.0
7657,E-3,510.75,0.25,74,124.0
7658,C#2,511.0,1.0,84,124.0
7659,E-3,511.0,0.25,89,124.0
7660,E-4,511.0,117/1000,89,124.0
7661,B-4,511.0,0.25,72,124.0
7662,A4,511.0,0.25,72,124.0
7663,E1,511.367,3/40,50,124.0
7664,E-4,511.483,79/500,127,124.0
7665,G2,511.492,367/1000,60,124.0
7666,E-4,511.5,121/500,124,124.0
7667,C2,511.5,0.25,78,124.0
7668,E-3,511.5,0.25,74,124.0
7669,B-4,511.5,0.25,36,124.0
7670,A4,511.5,0.25,36,124.0
7671,D4,511.733,79/500,127,124.0
7672,D4,511.75,121/500,124,124.0
7673,C6,511.975,373/250,42,124.0
7674,C5,511.975,373/250,42,124.0
7675,E-4,511.983,17/1000,127,124.0
7676,C2,511.992,1/125,85,124.0
7677,C2,512.0,1367/1000,85,124.0
7678,E-4,512.0,23/40,124,124.0
7679,E-4,512.0,19/40,127,124.0
7680,C2,512.0,0.25,78,124.0
7681,E-3,512.0,0.25,89,124.0
7682,B-4,512.0,0.25,67,124.0
7683,A4,512.0,0.25,67,124.0
7684,E-3,512.5,0.25,74,124.0
7685,B-4,512.5,0.25,43,124.0
7686,A4,512.5,0.25,43,124.0
7687,E-4,512.733,123/250,127,124.0
7688,E-4,512.75,23/40,124,124.0
7689,C#2,513.0,1.0,84,124.0
7690,E-3,513.0,0.25,89,124.0
7691,D4,513.0,117/1000,89,124.0
7692,C4,513.0,43/40,93,124.0
7693,E-4,513.0,43/40,93,124.0
7694,B-3,513.0,43/40,93,124.0
7695,G3,513.0,43/40,93,124.0
7696,B-4,513.0,0.25,72,124.0
7697,A4,513.0,0.25,72,124.0
7698,E1,513.367,3/40,50,124.0
7699,D4,513.483,79/500,127,124.0
7700,G2,513.492,367/1000,60,124.0
7701,D4,513.5,121/500,124,124.0
7702,C2,513.5,0.25,78,124.0
7703,E-3,513.5,0.25,74,124.0
7704,B-4,513.5,0.25,36,124.0
7705,A4,513.5,0.25,36,124.0
7706,C4,513.733,79/500,127,124.0
7707,C4,513.75,121/500,124,124.0
7708,D4,513.983,371/500,127,124.0
7709,G2,513.992,1.375,85,124.0
7710,D4,514.0,33/40,124,124.0
7711,C2,514.0,0.25,78,124.0
7712,E-3,514.0,0.25,89,124.0
7713,B-4,514.0,0.25,67,124.0
7714,A4,514.0,0.25,67,124.0
7715,C#2,514.5,1.0,84,124.0
7716,E-3,514.5,0.25,74,124.0
7717,D4,514.5,117/1000,89,124.0
7718,E-4,514.5,13/40,93,124.0
7719,B-3,514.5,13/40,93,124.0
7720,G3,514.5,13/40,93,124.0
7721,C4,514.5,13/40,93,124.0
7722,B-4,514.5,0.25,43,124.0
7723,A4,514.5,0.25,43,124.0
7724,E-4,514.983,51/125,127,124.0
7725,E-4,515.0,123/250,124,124.0
7726,E-3,515.0,0.25,89,124.0
7727,E4,515.0,117/1000,89,124.0
7728,B-4,515.0,0.25,72,124.0
7729,A4,515.0,0.25,72,124.0
7730,E1,515.367,3/40,50,124.0
7731,D4,515.483,517/1000,127,124.0
7732,C2,515.492,367/1000,60,124.0
7733,D4,515.5,0.5,124,124.0
7734,C2,515.5,0.25,78,124.0
7735,E-3,515.5,0.25,74,124.0
7736,E4,515.5,117/1000,89,124.0
7737,B-3,515.5,0.5,93,124.0
7738,F4,515.5,0.5,93,124.0
7739,A3,515.5,0.5,93,124.0
7740,D4,515.5,0.5,93,124.0
7741,B-4,515.5,0.25,36,124.0
7742,A4,515.5,0.25,36,124.0
7743,C2,515.992,1/125,85,124.0
7744,C2,516.0,1367/1000,85,124.0
7745,D4,516.0,13/40,124,124.0
7746,D4,516.0,9/40,127,124.0
7747,C2,516.0,0.25,78,124.0
7748,E-3,516.0,0.25,89,124.0
7749,B-3,516.0,4.0,93,124.0
7750,F4,516.0,4.0,93,124.0
7751,A3,516.0,4.0,93,124.0
7752,D4,516.0,4.0,93,124.0
7753,B-4,516.0,0.25,67,124.0
7754,A4,516.0,0.25,67,124.0
7755,C4,516.483,51/125,127,124.0
7756,C4,516.5,123/250,124,124.0
7757,E-3,516.5,0.25,74,124.0
7758,D4,516.5,117/1000,89,124.0
7759,B-4,516.5,0.25,43,124.0
7760,A4,516.5,0.25,43,124.0
7761,F3,516.983,373/250,127,124.0
7762,F3,517.0,63/40,124,124.0
7763,E-3,517.0,0.25,89,124.0
7764,D4,517.0,117/1000,89,124.0
7765,B-4,517.0,0.25,72,124.0
7766,A4,517.0,0.25,72,124.0
7767,E1,517.367,3/40,50,124.0
7768,F2,517.492,367/1000,60,124.0
7769,C2,517.5,0.25,78,124.0
7770,C#2,517.5,1.0,84,124.0
7771,E-3,517.5,0.25,74,124.0
7772,E-4,517.5,117/1000,89,124.0
7773,E-5,517.5,0.25,64,124.0
7774,B-4,517.5,0.25,36,124.0
7775,A4,517.5,0.25,36,124.0
7776,E-5,517.75,0.25,64,124.0
7777,F2,517.992,1.375,85,124.0
7778,C2,518.0,0.25,78,124.0
7779,E-3,518.0,0.25,89,124.0
7780,D4,518.0,117/1000,89,124.0
7781,E-5,518.0,0.25,64,124.0
7782,B-4,518.0,0.25,67,124.0
7783,A4,518.0,0.25,67,124.0
7784,E-3,518.5,0.25,79,124.0
7785,B-4,518.5,0.25,43,124.0
7786,A4,518.5,0.25,43,124.0
7787,E-3,518.75,0.25,74,124.0
7788,B-3,518.983,51/125,127,124.0
7789,B-3,519.0,123/250,124,124.0
7790,C#2,519.0,1.0,84,124.0
7791,E-3,519.0,0.25,89,124.0
7792,E4,519.0,117/1000,89,124.0
7793,E-5,519.0,0.25,64,124.0
7794,B-4,519.0,0.25,72,124.0
7795,A4,519.0,0.25,72,124.0
7796,E1,519.367,3/40,50,124.0
7797,G3,519.483,517/1000,127,124.0
7798,G2,519.492,367/1000,60,124.0
7799,G3,519.5,0.5,124,124.0
7800,C2,519.5,0.25,78,124.0
7801,E-3,519.5,0.25,79,124.0
7802,B-4,519.5,0.25,36,124.0
7803,A4,519.5,0.25,36,124.0
7804,E-3,519.75,0.25,74,124.0
7805,C2,519.992,1/125,85,124.0
7806,C2,520.0,1367/1000,85,124.0
7807,G3,520.0,83/40,124,124.0
7808,G3,520.0,79/40,127,124.0
7809,C6,520.0,4.0,80,124.0
7810,C2,520.0,0.25,78,124.0
7811,E-3,520.0,0.25,89,124.0
7812,B-4,520.0,0.25,67,124.0
7813,A4,520.0,0.25,67,124.0
7814,E-3,520.5,0.25,74,124.0
7815,B-4,520.5,0.25,43,124.0
7816,A4,520.5,0.25,43,124.0
7817,E-3,521.0,0.25,89,124.0
7818,D4,521.0,117/1000,89,124.0
7819,G4,521.0,43/40,93,124.0
7820,B-3,521.0,43/40,93,124.0
7821,E-4,521.0,43/40,93,124.0
7822,C4,521.0,43/40,93,124.0
7823,B-4,521.0,0.25,72,124.0
7824,A4,521.0,0.25,72,124.0
7825,E1,521.367,3/40,50,124.0
7826,G2,521.492,367/1000,60,124.0
7827,C2,521.5,0.25,78,124.0
7828,C#2,521.5,1.0,84,124.0
7829,E-3,521.5,0.25,74,124.0
7830,B-4,521.5,0.25,36,124.0
7831,A4,521.5,0.25,36,124.0
7832,G2,521.992,1.375,85,124.0
7833,C2,522.0,0.25,78,124.0
7834,E-3,522.0,0.25,89,124.0
7835,B-4,522.0,0.25,67,124.0
7836,A4,522.0,0.25,67,124.0
7837,D4,522.417,117/1000,89,124.0
7838,E-3,522.5,0.25,74,124.0
7839,G4,522.5,13/40,93,124.0
7840,B-3,522.5,13/40,93,124.0
7841,E-4,522.5,13/40,93,124.0
7842,C4,522.5,13/40,93,124.0
7843,B-4,522.5,0.25,43,124.0
7844,A4,522.5,0.25,43,124.0
7845,D4,522.983,51/125,127,124.0
7846,D4,523.0,123/250,124,124.0
7847,C#2,523.0,1.0,84,124.0
7848,E-3,523.0,0.25,89,124.0
7849,E4,523.0,117/1000,89,124.0
7850,B-4,523.0,0.25,72,124.0
7851,A4,523.0,0.25,72,124.0
7852,E1,523.367,3/40,50,124.0
7853,C4,523.483,517/1000,127,124.0
7854,C2,523.492,367/1000,60,124.0
7855,C4,523.5,0.5,124,124.0
7856,C2,523.5,0.25,78,124.0
7857,E-3,523.5,0.25,74,124.0
7858,E4,523.5,117/1000,89,124.0
7859,B-3,523.5,0.5,93,124.0
7860,F4,523.5,0.5,93,124.0
7861,A3,523.5,0.5,93,124.0
7862,D4,523.5,0.5,93,124.0
7863,B-4,523.5,0.25,36,124.0
7864,A4,523.5,0.25,36,124.0
7865,C2,523.992,1/125,85,124.0
7866,C2,524.0,1367/1000,85,124.0
7867,C4,524.0,1121/500,124,124.0
7868,C4,524.0,1071/500,127,124.0
7869,C6,524.0,4.0,80,124.0
7870,C2,524.0,0.25,78,124.0
7871,E-3,524.0,0.25,89,124.0
7872,B-3,524.0,4.0,93,124.0
7873,F4,524.0,4.0,93,124.0
7874,A3,524.0,4.0,93,124.0
7875,D4,524.0,4.0,93,124.0
7876,B-4,524.0,0.25,67,124.0
7877,A4,524.0,0.25,67,124.0
7878,C#2,524.5,1.0,84,124.0
7879,E-3,524.5,0.25,74,124.0
7880,B-4,524.5,0.25,43,124.0
7881,A4,524.5,0.25,43,124.0
7882,E-3,525.0,0.25,89,124.0
7883,D4,525.0,117/1000,89,124.0
7884,B-4,525.0,0.25,72,124.0
7885,A4,525.0,0.25,72,124.0
7886,E1,525.367,3/40,50,124.0
7887,F2,525.492,367/1000,60,124.0
7888,C2,525.5,0.25,78,124.0
7889,E-3,525.5,0.25,74,124.0
7890,B-4,525.5,0.25,36,124.0
7891,A4,525.5,0.25,36,124.0
7892,F2,525.992,1.375,85,124.0
7893,C2,526.0,0.25,78,124.0
7894,C#2,526.0,1.0,84,124.0
7895,E-3,526.0,0.25,89,124.0
7896,B-4,526.0,0.25,67,124.0
7897,A4,526.0,0.25,67,124.0
7898,F4,526.483,51/125,127,124.0
7899,F4,526.5,123/250,124,124.0
7900,E-3,526.5,0.25,79,124.0
7901,D4,526.5,117/1000,89,124.0
7902,B-4,526.5,0.25,43,124.0
7903,A4,526.5,0.25,43,124.0
7904,E-3,526.75,0.25,74,124.0
7905,E-4,526.958,117/1000,89,124.0
7906,E-4,526.958,117/1000,89,124.0
7907,B-4,526.983,13/40,127,124.0
7908,B-4,527.0,51/125,124,124.0
7909,E-3,527.0,0.25,89,124.0
7910,B-4,527.0,0.25,72,124.0
7911,A4,527.0,0.25,72,124.0
7912,E1,527.367,3/40,50,124.0
7913,G4,527.483,517/1000,127,124.0
7914,G2,527.492,367/1000,60,124.0
7915,G4,527.5,0.5,124,124.0
7916,C2,527.5,0.25,78,124.0
7917,C#2,527.5,0.5,84,124.0
7918,E-3,527.5,0.25,74,124.0
7919,C6,527.5,0.25,70,124.0
7920,B-4,527.5,0.25,36,124.0
7921,A4,527.5,0.25,36,124.0
7922,C2,527.992,1/125,85,124.0
7923,C2,528.0,1367/1000,85,124.0
7924,G4,528.0,1121/500,124,124.0
7925,G4,528.0,1071/500,127,124.0
7926,C2,528.0,0.25,78,124.0
7927,C#2,528.0,0.5,84,124.0
7928,E-3,528.0,0.25,89,124.0
7929,B-4,528.0,0.25,67,124.0
7930,A4,528.0,0.25,67,124.0
7931,E-3,528.5,0.25,74,124.0
7932,B-4,528.5,0.25,43,124.0
7933,A4,528.5,0.25,43,124.0
7934,C#2,529.0,1.0,84,124.0
7935,E-3,529.0,0.25,89,124.0
7936,D4,529.0,117/1000,89,124.0
7937,B-3,529.0,43/40,93,124.0
7938,E-4,529.0,43/40,93,124.0
7939,G3,529.0,43/40,93,124.0
7940,C4,529.0,43/40,93,124.0
7941,B-4,529.0,0.25,72,124.0
7942,A4,529.0,0.25,72,124.0
7943,E1,529.367,3/40,50,124.0
7944,G2,529.492,367/1000,60,124.0
7945,C2,529.5,0.25,78,124.0
7946,E-3,529.5,0.25,74,124.0
7947,B-4,529.5,0.25,36,124.0
7948,A4,529.5,0.25,36,124.0
7949,G2,529.992,1.375,85,124.0
7950,C2,530.0,0.25,78,124.0
7951,E-3,530.0,0.25,89,124.0
7952,B-4,530.0,0.25,67,124.0
7953,A4,530.0,0.25,67,124.0
7954,B-4,530.483,51/125,127,124.0
7955,B-4,530.5,123/250,124,124.0
7956,C#2,530.5,1.0,84,124.0
7957,E-3,530.5,0.25,74,124.0
7958,D4,530.5,117/1000,89,124.0
7959,E-4,530.5,13/40,93,124.0
7960,B-3,530.5,13/40,93,124.0
7961,G3,530.5,13/40,93,124.0
7962,C4,530.5,13/40,93,124.0
7963,B-4,530.5,0.25,43,124.0
7964,A4,530.5,0.25,43,124.0
7965,D5,530.983,13/40,127,124.0
7966,D5,531.0,51/125,124,124.0
7967,E-3,531.0,0.25,89,124.0
7968,E4,531.0,117/1000,89,124.0
7969,B-4,531.0,0.25,72,124.0
7970,A4,531.0,0.25,72,124.0
7971,E1,531.367,3/40,50,124.0
7972,C5,531.483,517/1000,127,124.0
7973,C2,531.492,367/1000,60,124.0
7974,C5,531.5,0.5,124,124.0
7975,C2,531.5,0.25,78,124.0
7976,E-3,531.5,0.25,74,124.0
7977,E4,531.5,117/1000,89,124.0
7978,B-3,531.5,0.5,93,124.0
7979,F4,531.5,0.5,93,124.0
7980,A3,531.5,0.5,93,124.0
7981,D4,531.5,0.5,93,124.0
7982,B-4,531.5,0.25,36,124.0
7983,A4,531.5,0.25,36,124.0
7984,C2,531.992,1/125,85,124.0
7985,C2,532.0,1367/1000,85,124.0
7986,C5,532.0,1121/500,124,124.0
7987,C5,532.0,1071/500,127,124.0
7988,C2,532.0,0.25,78,124.0
7989,E-3,532.0,0.25,89,124.0
7990,B-3,532.0,4.0,93,124.0
7991,F4,532.0,4.0,93,124.0
7992,A3,532.0,4.0,93,124.0
7993,D4,532.0,4.0,93,124.0
7994,B-4,532.0,0.25,67,124.0
7995,A4,532.0,0.25,67,124.0
7996,E-3,532.5,0.25,74,124.0
7997,B-4,532.5,0.25,43,124.0
7998,A4,532.5,0.25,43,124.0
7999,E-3,533.0,0.25,89,124.0
8000,D4,533.0,117/1000,89,124.0
8001,B-4,533.0,0.25,72,124.0
8002,A4,533.0,0.25,72,124.0
8003,E1,533.367,3/40,50,124.0
8004,F2,533.492,367/1000,60,124.0
8005,C2,533.5,0.25,78,124.0
8006,C#2,533.5,1.0,84,124.0
8007,E-3,533.5,0.25,79,124.0
8008,E-4,533.5,117/1000,89,124.0
8009,B-4,533.5,0.25,36,124.0
8010,A4,533.5,0.25,36,124.0
8011,E-3,533.75,0.25,74,124.0
8012,F2,533.992,227/250,85,124.0
8013,C2,534.0,0.25,78,124.0
8014,E-3,534.0,0.25,89,124.0
8015,E-4,534.0,117/1000,89,124.0
8016,B-4,534.0,0.25,67,124.0
8017,A4,534.0,0.25,67,124.0
8018,C5,534.483,51/125,127,124.0
8019,C5,534.5,123/250,124,124.0
8020,E-3,534.5,0.25,79,124.0
8021,B-4,534.5,0.25,43,124.0
8022,A4,534.5,0.25,43,124.0
8023,E-3,534.75,0.25,74,124.0
8024,F5,534.983,13/40,127,124.0
8025,B-1,534.992,123/250,75,124.0
8026,F5,535.0,51/125,124,124.0
8027,C#2,535.0,1.0,84,124.0
8028,E-3,535.0,0.25,89,124.0
8029,E4,535.0,117/1000,89,124.0
8030,B-4,535.0,0.25,72,124.0
8031,A4,535.0,0.25,72,124.0
8032,D5,535.483,517/1000,127,124.0
8033,B1,535.492,51/125,60,124.0
8034,D5,535.5,0.5,124,124.0
8035,C2,535.5,0.25,78,124.0
8036,E-3,535.5,0.25,74,124.0
8037,E4,535.5,117/1000,89,124.0
8038,B-4,535.5,0.25,36,124.0
8039,A4,535.5,0.25,36,124.0
8040,C2,535.992,1/125,85,124.0
8041,C2,536.0,1367/1000,85,124.0
8042,D5,536.0,1121/500,124,124.0
8043,D5,536.0,1071/500,127,124.0
8044,G5,536.0,4.0,90,124.0
8045,C2,536.0,0.25,78,124.0
8046,E-3,536.0,0.25,89,124.0
8047,A5,536.0,117/1000,82,124.0
8048,B-4,536.0,0.25,67,124.0
8049,A4,536.0,0.25,67,124.0
8050,E-3,536.5,0.25,74,124.0
8051,B-4,536.5,0.25,43,124.0
8052,A4,536.5,0.25,43,124.0
8053,E-3,537.0,0.25,89,124.0
8054,D4,537.0,117/1000,99,124.0
8055,B-3,537.0,43/40,93,124.0
8056,C4,537.0,43/40,93,124.0
8057,G4,537.0,43/40,93,124.0
8058,E-4,537.0,43/40,93,124.0
8059,B-4,537.0,0.25,72,124.0
8060,A4,537.0,0.25,72,124.0
8061,E1,537.367,3/40,50,124.0
8062,G2,537.492,367/1000,60,124.0
8063,C2,537.5,0.25,78,124.0
8064,C#2,537.5,1.0,84,124.0
8065,E-3,537.5,0.25,74,124.0
8066,B-4,537.5,0.25,36,124.0
8067,A4,537.5,0.25,36,124.0
8068,G2,537.992,1.375,85,124.0
8069,C2,538.0,0.25,78,124.0
8070,E-3,538.0,0.25,89,124.0
8071,B-4,538.0,0.25,67,124.0
8072,A4,538.0,0.25,67,124.0
8073,F5,538.483,51/125,127,124.0
8074,F5,538.5,123/250,124,124.0
8075,E-3,538.5,0.25,74,124.0
8076,D4,538.5,117/1000,99,124.0
8077,G4,538.5,13/40,93,124.0
8078,B-3,538.5,13/40,93,124.0
8079,C4,538.5,13/40,93,124.0
8080,E-4,538.5,13/40,93,124.0
8081,B-4,538.5,0.25,43,124.0
8082,A4,538.5,0.25,43,124.0
8083,B-5,538.983,13/40,127,124.0
8084,B-5,539.0,51/125,124,124.0
8085,C#2,539.0,1.0,84,124.0
8086,E-3,539.0,0.25,89,124.0
8087,B-4,539.0,0.25,72,124.0
8088,A4,539.0,0.25,72,124.0
8089,E1,539.367,3/40,50,124.0
8090,G5,539.483,51/125,127,124.0
8091,C2,539.492,367/1000,60,124.0
8092,G5,539.5,123/250,124,124.0
8093,C2,539.5,0.25,78,124.0
8094,E-3,539.5,0.25,79,124.0
8095,E4,539.5,117/1000,89,124.0
8096,F4,539.5,0.5,93,124.0
8097,B-3,539.5,0.5,93,124.0
8098,D4,539.5,0.5,93,124.0
8099,A3,539.5,0.5,93,124.0
8100,B-4,539.5,0.25,36,124.0
8101,A4,539.5,0.25,36,124.0
8102,E-3,539.75,0.25,74,124.0
8103,C2,539.992,1/125,85,124.0
8104,C2,540.0,1367/1000,85,124.0
8105,G5,540.0,4.0,90,124.0
8106,C2,540.0,0.25,78,124.0
8107,E-3,540.0,0.25,89,124.0
8108,E-4,540.0,117/1000,89,124.0
8109,F4,540.0,499/125,93,124.0
8110,B-3,540.0,499/125,93,124.0
8111,D4,540.0,499/125,93,124.0
8112,A3,540.0,499/125,93,124.0
8113,B-4,540.0,0.25,67,124.0
8114,A4,540.0,0.25,67,124.0
8115,G5,540.233,79/500,127,124.0
8116,G5,540.25,121/500,124,124.0
8117,F5,540.483,3/40,117,124.0
8118,F5,540.5,79/500,114,124.0
8119,C#2,540.5,1.0,84,124.0
8120,E-3,540.5,0.25,74,124.0
8121,E-4,540.5,117/1000,89,124.0
8122,B-4,540.5,0.25,43,124.0
8123,A4,540.5,0.25,43,124.0
8124,F5,540.733,79/500,127,124.0
8125,F5,540.75,121/500,124,124.0
8126,E-5,540.983,3/40,117,124.0
8127,E-5,541.0,79/500,114,124.0
8128,E-3,541.0,0.25,89,124.0
8129,D4,541.0,117/1000,89,124.0
8130,B-4,541.0,0.25,72,124.0
8131,A4,541.0,0.25,72,124.0
8132,E-5,541.233,79/500,127,124.0
8133,E-5,541.25,121/500,124,124.0
8134,E1,541.367,3/40,50,124.0
8135,D5,541.483,3/40,117,124.0
8136,F2,541.492,367/1000,60,124.0
8137,D5,541.5,79/500,114,124.0
8138,C2,541.5,0.25,78,124.0
8139,E-3,541.5,0.25,74,124.0
8140,B-4,541.5,0.25,36,124.0
8141,A4,541.5,0.25,36,124.0
8142,D5,541.733,79/500,127,124.0
8143,D5,541.75,121/500,124,124.0
8144,F5,541.983,3/40,117,124.0
8145,F2,541.992,1.375,85,124.0
8146,F5,542.0,79/500,114,124.0
8147,C2,542.0,0.25,78,124.0
8148,E-3,542.0,0.25,89,124.0
8149,B-4,542.0,0.25,67,124.0
8150,A4,542.0,0.25,67,124.0
8151,F5,542.233,79/500,127,124.0
8152,F5,542.25,121/500,124,124.0
8153,E-5,542.483,3/40,117,124.0
8154,E-5,542.5,79/500,114,124.0
8155,E-3,542.5,0.25,79,124.0
8156,D4,542.5,117/1000,89,124.0
8157,B-4,542.5,0.25,43,124.0
8158,A4,542.5,0.25,43,124.0
8159,E-5,542.733,79/500,127,124.0
8160,E-5,542.75,121/500,124,124.0
8161,E-3,542.75,0.25,74,124.0
8162,D5,542.983,3/40,117,124.0
8163,D5,543.0,79/500,114,124.0
8164,C#2,543.0,1.0,84,124.0
8165,E-3,543.0,0.25,89,124.0
8166,E4,543.0,117/1000,89,124.0
8167,B-4,543.0,0.25,72,124.0
8168,A4,543.0,0.25,72,124.0
8169,D5,543.233,79/500,127,124.0
8170,D5,543.25,121/500,124,124.0
8171,E1,543.367,3/40,50,124.0
8172,C5,543.483,3/40,117,124.0
8173,G2,543.492,367/1000,60,124.0
8174,C5,543.5,79/500,114,124.0
8175,C2,543.5,0.25,78,124.0
8176,E-3,543.5,0.25,74,124.0
8177,E4,543.5,117/1000,89,124.0
8178,B-4,543.5,0.25,36,124.0
8179,A4,543.5,0.25,36,124.0
8180,C5,543.733,79/500,127,124.0
8181,C5,543.75,121/500,124,124.0
8182,D5,543.983,17/1000,127,124.0
8183,C2,543.992,1/125,85,124.0
8184,C2,544.0,1367/1000,85,124.0
8185,D5,544.0,53/40,124,124.0
8186,D5,544.0,49/40,127,124.0
8187,C2,544.0,0.25,78,124.0
8188,E-3,544.0,0.25,89,124.0
8189,B-4,544.0,0.25,67,124.0
8190,A4,544.0,0.25,67,124.0
8191,E-3,544.5,0.25,74,124.0
8192,B-4,544.5,0.25,43,124.0
8193,A4,544.5,0.25,43,124.0
8194,C#2,545.0,1.0,84,124.0
8195,E-3,545.0,0.25,89,124.0
8196,D4,545.0,117/1000,89,124.0
8197,C4,545.0,43/40,93,124.0
8198,E-4,545.0,43/40,93,124.0
8199,B-3,545.0,43/40,93,124.0
8200,G3,545.0,43/40,93,124.0
8201,B-4,545.0,0.25,72,124.0
8202,A4,545.0,0.25,72,124.0
8203,E1,545.367,3/40,50,124.0
8204,G4,545.483,51/125,127,124.0
8205,G2,545.492,367/1000,60,124.0
8206,G4,545.5,123/250,124,124.0
8207,C2,545.5,0.25,78,124.0
8208,E-3,545.5,0.25,74,124.0
8209,B-4,545.5,0.25,36,124.0
8210,A4,545.5,0.25,36,124.0
8211,G2,545.992,1.375,85,124.0
8212,C2,546.0,0.25,78,124.0
8213,E-3,546.0,0.25,89,124.0
8214,B-4,546.0,0.25,67,124.0
8215,A4,546.0,0.25,67,124.0
8216,G4,546.483,13/40,127,124.0
8217,G4,546.5,51/125,124,124.0
8218,C#2,546.5,1.0,84,124.0
8219,E-3,546.5,0.25,74,124.0
8220,D4,546.5,117/1000,89,124.0
8221,E-4,546.5,13/40,93,124.0
8222,B-3,546.5,13/40,93,124.0
8223,G3,546.5,13/40,93,124.0
8224,C4,546.5,13/40,93,124.0
8225,B-4,546.5,0.25,43,124.0
8226,A4,546.5,0.25,43,124.0
8227,D5,546.983,51/125,127,124.0
8228,D5,547.0,123/250,124,124.0
8229,E-3,547.0,0.25,89,124.0
8230,E4,547.0,117/1000,89,124.0
8231,B-4,547.0,0.25,72,124.0
8232,A4,547.0,0.25,72,124.0
8233,E1,547.367,3/40,50,124.0
8234,C5,547.483,517/1000,127,124.0
8235,C2,547.492,367/1000,60,124.0
8236,C5,547.5,0.5,124,124.0
8237,C2,547.5,0.25,78,124.0
8238,E-3,547.5,0.25,74,124.0
8239,E-4,547.5,117/1000,89,124.0
8240,B-3,547.5,0.5,93,124.0
8241,F4,547.5,0.5,93,124.0
8242,A3,547.5,0.5,93,124.0
8243,D4,547.5,0.5,93,124.0
8244,B-4,547.5,0.25,36,124.0
8245,A4,547.5,0.25,36,124.0
8246,C2,547.992,1/125,85,124.0
8247,C2,548.0,1367/1000,85,124.0
8248,C5,548.0,121/500,124,124.0
8249,C5,548.0,71/500,127,124.0
8250,C2,548.0,0.25,78,124.0
8251,E-3,548.0,0.25,89,124.0
8252,B-3,548.0,4.0,93,124.0
8253,F4,548.0,4.0,93,124.0
8254,A3,548.0,4.0,93,124.0
8255,D4,548.0,4.0,93,124.0
8256,B-4,548.0,0.25,67,124.0
8257,A4,548.0,0.25,67,124.0
8258,A4,548.483,13/40,127,124.0
8259,A4,548.5,51/125,124,124.0
8260,E-3,548.5,0.25,74,124.0
8261,D4,548.5,117/1000,89,124.0
8262,B-4,548.5,0.25,43,124.0
8263,A4,548.5,0.25,43,124.0
8264,F4,548.983,13/40,127,124.0
8265,F4,549.0,51/125,124,124.0
8266,E-3,549.0,0.25,89,124.0
8267,E4,549.0,117/1000,89,124.0
8268,B-4,549.0,0.25,72,124.0
8269,A4,549.0,0.25,72,124.0
8270,E1,549.367,3/40,50,124.0
8271,F4,549.483,329/500,127,124.0
8272,F2,549.492,367/1000,60,124.0
8273,F4,549.5,371/500,124,124.0
8274,C2,549.5,0.25,78,124.0
8275,C#2,549.5,1.0,84,124.0
8276,E-3,549.5,0.25,74,124.0
8277,E4,549.5,117/1000,89,124.0
8278,E-5,549.5,0.25,64,124.0
8279,B-4,549.5,0.25,36,124.0
8280,A4,549.5,0.25,36,124.0
8281,E-5,549.75,0.25,64,124.0
8282,F2,549.992,1.375,85,124.0
8283,C2,550.0,0.25,78,124.0
8284,E-3,550.0,0.25,89,124.0
8285,E-4,550.0,117/1000,89,124.0
8286,E-5,550.0,0.25,64,124.0
8287,B-4,550.0,0.25,67,124.0
8288,A4,550.0,0.25,67,124.0
8289,A4,550.483,13/40,127,124.0
8290,A4,550.5,51/125,124,124.0
8291,E-3,550.5,0.25,79,124.0
8292,B-4,550.5,0.25,43,124.0
8293,A4,550.5,0.25,43,124.0
8294,E-3,550.75,0.25,74,124.0
8295,C5,550.983,13/40,127,124.0
8296,C5,551.0,51/125,124,124.0
8297,F5,551.0,1.0,90,124.0
8298,C#2,551.0,1.0,84,124.0
8299,E-3,551.0,0.25,89,124.0
8300,D4,551.0,117/1000,89,124.0
8301,E-5,551.0,0.25,64,124.0
8302,B-4,551.0,0.25,72,124.0
8303,A4,551.0,0.25,72,124.0
8304,E1,551.367,3/40,50,124.0
8305,B-4,551.483,517/1000,127,124.0
8306,G2,551.492,367/1000,60,124.0
8307,B-4,551.5,0.5,124,124.0
8308,C2,551.5,0.25,78,124.0
8309,E-3,551.5,0.25,79,124.0
8310,B-4,551.5,0.25,36,124.0
8311,A4,551.5,0.25,36,124.0
8312,E-3,551.75,0.25,74,124.0
8313,C2,551.992,1/125,85,124.0
8314,C2,552.0,1367/1000,85,124.0
8315,B-4,552.0,121/500,124,124.0
8316,B-4,552.0,71/500,127,124.0
8317,F5,552.0,3.0,90,124.0
8318,C2,552.0,0.25,78,124.0
8319,E-3,552.0,0.25,89,124.0
8320,B-4,552.0,0.25,67,124.0
8321,A4,552.0,0.25,67,124.0
8322,G4,552.483,13/40,127,124.0
8323,G4,552.5,51/125,124,124.0
8324,E-3,552.5,0.25,74,124.0
8325,B-4,552.5,0.25,43,124.0
8326,A4,552.5,0.25,43,124.0
8327,E-4,552.983,13/40,127,124.0
8328,E-4,553.0,51/125,124,124.0
8329,E-3,553.0,0.25,89,124.0
8330,D4,553.0,117/1000,89,124.0
8331,G4,553.0,43/40,93,124.0
8332,B-3,553.0,43/40,93,124.0
8333,E-4,553.0,43/40,93,124.0
8334,C4,553.0,43/40,93,124.0
8335,B-4,553.0,0.25,72,124.0
8336,A4,553.0,0.25,72,124.0
8337,E1,553.367,3/40,50,124.0
8338,E-4,553.483,227/250,127,124.0
8339,G2,553.492,367/1000,60,124.0
8340,E-4,553.5,124/125,124,124.0
8341,C2,553.5,0.25,78,124.0
8342,C#2,553.5,1.0,84,124.0
8343,E-3,553.5,0.25,74,124.0
8344,B-4,553.5,0.25,36,124.0
8345,A4,553.5,0.25,36,124.0
8346,G2,553.992,1.375,85,124.0
8347,C2,554.0,0.25,78,124.0
8348,E-3,554.0,0.25,89,124.0
8349,B-4,554.0,0.25,67,124.0
8350,A4,554.0,0.25,67,124.0
8351,E-3,554.5,0.25,74,124.0
8352,D4,554.5,117/1000,89,124.0
8353,G4,554.5,13/40,93,124.0
8354,B-3,554.5,13/40,93,124.0
8355,E-4,554.5,13/40,93,124.0
8356,C4,554.5,13/40,93,124.0
8357,B-4,554.5,0.25,43,124.0
8358,A4,554.5,0.25,43,124.0
8359,G4,554.983,13/40,127,124.0
8360,G4,555.0,51/125,124,124.0
8361,F5,555.0,1.0,90,124.0
8362,C#2,555.0,1.0,84,124.0
8363,E-3,555.0,0.25,89,124.0
8364,E4,555.0,117/1000,89,124.0
8365,B-4,555.0,0.25,72,124.0
8366,A4,555.0,0.25,72,124.0
8367,E1,555.367,3/40,50,124.0
8368,B-4,555.483,13/40,127,124.0
8369,C2,555.492,367/1000,60,124.0
8370,B-4,555.5,51/125,124,124.0
8371,C2,555.5,0.25,78,124.0
8372,E-3,555.5,0.25,74,124.0
8373,E-4,555.5,117/1000,89,124.0
8374,B-3,555.5,0.5,93,124.0
8375,F4,555.5,0.5,93,124.0
8376,A3,555.5,0.5,93,124.0
8377,D4,555.5,0.5,93,124.0
8378,B-4,555.5,0.25,36,124.0
8379,A4,555.5,0.25,36,124.0
8380,A4,555.983,17/1000,127,124.0
8381,C2,555.992,1/125,85,124.0
8382,C2,556.0,1367/1000,85,124.0
8383,A4,556.0,51/125,124,124.0
8384,A4,556.0,77/250,127,124.0
8385,F5,556.0,4.0,90,124.0
8386,C2,556.0,0.25,78,124.0
8387,E-3,556.0,0.25,89,124.0
8388,B-3,556.0,4.0,93,124.0
8389,F4,556.0,4.0,93,124.0
8390,A3,556.0,4.0,93,124.0
8391,D4,556.0,4.0,93,124.0
8392,B-4,556.0,0.25,67,124.0
8393,A4,556.0,0.25,67,124.0
8394,F4,556.483,13/40,127,124.0
8395,F4,556.5,51/125,124,124.0
8396,C#2,556.5,1.0,84,124.0
8397,E-3,556.5,0.25,74,124.0
8398,D4,556.5,117/1000,89,124.0
8399,B-4,556.5,0.25,43,124.0
8400,A4,556.5,0.25,43,124.0
8401,D4,556.983,13/40,127,124.0
8402,D4,557.0,51/125,124,124.0
8403,E-3,557.0,0.25,89,124.0
8404,E-4,557.0,117/1000,89,124.0
8405,B-4,557.0,0.25,72,124.0
8406,A4,557.0,0.25,72,124.0
8407,E1,557.367,3/40,50,124.0
8408,D4,557.483,329/500,127,124.0
8409,F2,557.492,367/1000,60,124.0
8410,D4,557.5,371/500,124,124.0
8411,C2,557.5,0.25,78,124.0
8412,E-3,557.5,0.25,74,124.0
8413,E4,557.5,117/1000,89,124.0
8414,B-4,557.5,0.25,36,124.0
8415,A4,557.5,0.25,36,124.0
8416,F2,557.992,1.375,85,124.0
8417,C2,558.0,0.25,78,124.0
8418,C#2,558.0,1.0,84,124.0
8419,E-3,558.0,0.25,89,124.0
8420,E-4,558.0,117/1000,89,124.0
8421,B-4,558.0,0.25,67,124.0
8422,A4,558.0,0.25,67,124.0
8423,E-4,558.167,117/1000,89,124.0
8424,C4,558.483,13/40,127,124.0
8425,C4,558.5,51/125,124,124.0
8426,E-3,558.5,0.25,79,124.0
8427,E-4,558.5,117/1000,89,124.0
8428,B-4,558.5,0.25,43,124.0
8429,A4,558.5,0.25,43,124.0
8430,E-3,558.75,0.25,74,124.0
8431,F4,558.983,13/40,127,124.0
8432,F4,559.0,51/125,124,124.0
8433,E-3,559.0,0.25,89,124.0
8434,E-4,559.0,117/1000,89,124.0
8435,B-4,559.0,0.25,72,124.0
8436,A4,559.0,0.25,72,124.0
8437,E1,559.367,3/40,50,124.0
8438,E-4,559.483,13/40,127,124.0
8439,G2,559.492,367/1000,60,124.0
8440,E-4,559.5,51/125,124,124.0
8441,C2,559.5,0.25,78,124.0
8442,C#2,559.5,0.5,84,124.0
8443,E-3,559.5,0.25,74,124.0
8444,E4,559.5,117/1000,89,124.0
8445,C6,559.5,0.25,70,124.0
8446,B-4,559.5,0.25,36,124.0
8447,A4,559.5,0.25,36,124.0
8448,F4,559.983,17/1000,127,124.0
8449,C2,559.992,1/125,85,124.0
8450,C2,560.0,1367/1000,85,124.0
8451,F4,560.0,121/500,124,124.0
8452,F4,560.0,71/500,127,124.0
8453,F5,560.0,3.0,90,124.0
8454,C2,560.0,0.25,78,124.0
8455,C#2,560.0,0.5,84,124.0
8456,E-3,560.0,0.25,89,124.0
8457,E-4,560.0,117/1000,89,124.0
8458,B-4,560.0,0.25,67,124.0
8459,A4,560.0,0.25,67,124.0
8460,E-4,560.233,79/500,127,124.0
8461,E-4,560.25,121/500,124,124.0
8462,C4,560.483,13/40,127,124.0
8463,C4,560.5,51/125,124,124.0
8464,E-3,560.5,0.25,74,124.0
8465,B-4,560.5,0.25,43,124.0
8466,A4,560.5,0.25,43,124.0
8467,G3,560.983,13/40,111,124.0
8468,G3,561.0,51/125,108,124.0
8469,C#2,561.0,1.0,84,124.0
8470,E-3,561.0,0.25,89,124.0
8471,D4,561.0,117/1000,89,124.0
8472,B-3,561.0,43/40,93,124.0
8473,E-4,561.0,43/40,93,124.0
8474,G3,561.0,43/40,93,124.0
8475,C4,561.0,43/40,93,124.0
8476,B-4,561.0,0.25,72,124.0
8477,A4,561.0,0.25,72,124.0
8478,E1,561.367,3/40,50,124.0
8479,G4,561.483,329/500,127,124.0
8480,G2,561.492,367/1000,60,124.0
8481,G4,561.5,371/500,124,124.0
8482,C2,561.5,0.25,78,124.0
8483,E-3,561.5,0.25,74,124.0
8484,B-4,561.5,0.25,36,124.0
8485,A4,561.5,0.25,36,124.0
8486,G2,561.992,1.375,85,124.0
8487,C2,562.0,0.25,78,124.0
8488,E-3,562.0,0.25,89,124.0
8489,B-4,562.0,0.25,67,124.0
8490,A4,562.0,0.25,67,124.0
8491,C4,562.483,13/40,127,124.0
8492,C4,562.5,51/125,124,124.0
8493,C#2,562.5,1.0,84,124.0
8494,E-3,562.5,0.25,74,124.0
8495,D4,562.5,117/1000,89,124.0
8496,E-4,562.5,13/40,93,124.0
8497,B-3,562.5,13/40,93,124.0
8498,G3,562.5,13/40,93,124.0
8499,C4,562.5,13/40,93,124.0
8500,B-4,562.5,0.25,43,124.0
8501,A4,562.5,0.25,43,124.0
8502,F4,562.983,79/500,127,124.0
8503,F4,563.0,121/500,124,124.0
8504,E-3,563.0,0.25,89,124.0
8505,E4,563.0,117/1000,89,124.0
8506,B-4,563.0,0.25,72,124.0
8507,A4,563.0,0.25,72,124.0
8508,F#4,563.233,79/500,127,124.0
8509,F#4,563.25,121/500,124,124.0
8510,E1,563.367,3/40,50,124.0
8511,F4,563.483,3/40,127,124.0
8512,C2,563.492,367/1000,60,124.0
8513,F4,563.5,79/500,124,124.0
8514,C2,563.5,0.25,78,124.0
8515,E-3,563.5,0.25,74,124.0
8516,E-4,563.5,117/1000,89,124.0
8517,B-3,563.5,0.5,93,124.0
8518,F4,563.5,0.5,93,124.0
8519,A3,563.5,0.5,93,124.0
8520,D4,563.5,0.5,93,124.0
8521,B-4,563.5,0.25,36,124.0
8522,A4,563.5,0.25,36,124.0
8523,E-4,563.733,133/1000,117,124.0
8524,E-4,563.75,1/5,114,124.0
8525,F4,563.983,17/1000,127,124.0
8526,C2,563.992,1/125,85,124.0
8527,C2,564.0,1367/1000,85,124.0
8528,F4,564.0,121/500,124,124.0
8529,F4,564.0,71/500,127,124.0
8530,C2,564.0,0.25,78,124.0
8531,E-3,564.0,0.25,89,124.0
8532,B-3,564.0,4.0,93,124.0
8533,F4,564.0,4.0,93,124.0
8534,A3,564.0,4.0,93,124.0
8535,D4,564.0,4.0,93,124.0
8536,B-4,564.0,0.25,67,124.0
8537,A4,564.0,0.25,67,124.0
8538,F#4,564.233,79/500,127,124.0
8539,F#4,564.25,121/500,124,124.0
8540,F4,564.483,3/40,127,124.0
8541,F4,564.5,79/500,124,124.0
8542,E-3,564.5,0.25,74,124.0
8543,D4,564.5,117/1000,89,124.0
8544,B-4,564.5,0.25,43,124.0
8545,A4,564.5,0.25,43,124.0
8546,E-4,564.733,133/1000,117,124.0
8547,E-4,564.75,1/5,114,124.0
8548,F4,564.983,79/500,127,124.0
8549,F4,565.0,121/500,124,124.0
8550,E-3,565.0,0.25,89,124.0
8551,E4,565.0,117/1000,89,124.0
8552,B-4,565.0,0.25,72,124.0
8553,A4,565.0,0.25,72,124.0
8554,F#4,565.233,79/500,127,124.0
8555,F#4,565.25,121/500,124,124.0
8556,E1,565.367,3/40,50,124.0
8557,F4,565.483,3/40,127,124.0
8558,F2,565.492,367/1000,60,124.0
8559,F4,565.5,79/500,124,124.0
8560,C2,565.5,0.25,78,124.0
8561,C#2,565.5,1.0,84,124.0
8562,E-3,565.5,0.25,79,124.0
8563,E4,565.5,117/1000,89,124.0
8564,B-4,565.5,0.25,36,124.0
8565,A4,565.5,0.25,36,124.0
8566,E-4,565.733,133/1000,117,124.0
8567,E-4,565.75,1/5,114,124.0
8568,E-3,565.75,0.25,74,124.0
8569,F4,565.983,79/500,127,124.0
8570,F2,565.992,227/250,85,124.0
8571,F4,566.0,121/500,124,124.0
8572,C2,566.0,0.25,78,124.0
8573,E-3,566.0,0.25,89,124.0
8574,E-4,566.0,117/1000,89,124.0
8575,B-4,566.0,0.25,67,124.0
8576,A4,566.0,0.25,67,124.0
8577,F#4,566.233,79/500,127,124.0
8578,F#4,566.25,121/500,124,124.0
8579,F4,566.483,3/40,127,124.0
8580,F4,566.5,79/500,124,124.0
8581,E-3,566.5,0.25,79,124.0
8582,D4,566.5,117/1000,89,124.0
8583,B-4,566.5,0.25,43,124.0
8584,A4,566.5,0.25,43,124.0
8585,E-4,566.733,133/1000,117,124.0
8586,E-4,566.75,1/5,114,124.0
8587,E-3,566.75,0.25,74,124.0
8588,F4,566.983,79/500,127,124.0
8589,B-1,566.992,123/250,75,124.0
8590,F4,567.0,121/500,124,124.0
8591,C#2,567.0,1.0,84,124.0
8592,E-3,567.0,0.25,89,124.0
8593,B-4,567.0,0.25,72,124.0
8594,A4,567.0,0.25,72,124.0
8595,F#4,567.233,79/500,127,124.0
8596,F#4,567.25,121/500,124,124.0
8597,F4,567.483,3/40,127,124.0
8598,B1,567.492,51/125,60,124.0
8599,F4,567.5,79/500,124,124.0
8600,C2,567.5,0.25,78,124.0
8601,E-3,567.5,0.25,74,124.0
8602,D4,567.5,117/1000,89,124.0
8603,B-4,567.5,0.25,36,124.0
8604,A4,567.5,0.25,36,124.0
8605,E-4,567.733,133/1000,117,124.0
8606,E-4,567.75,1/5,114,124.0
8607,C5,567.983,17/1000,127,124.0
8608,C2,567.992,1/125,85,124.0
8609,C2,568.0,1367/1000,85,124.0
8610,C5,568.0,51/125,124,124.0
8611,C5,568.0,77/250,127,124.0
8612,C6,568.0,4.0,90,124.0
8613,C2,568.0,0.25,78,124.0
8614,E-3,568.0,0.25,89,124.0
8615,A5,568.0,117/1000,82,124.0
8616,B-4,568.0,0.25,67,124.0
8617,A4,568.0,0.25,67,124.0
8618,C5,568.483,13/40,127,124.0
8619,C5,568.5,51/125,124,124.0
8620,E-3,568.5,0.25,74,124.0
8621,B-4,568.5,0.25,43,124.0
8622,A4,568.5,0.25,43,124.0
8623,C5,568.983,13/40,127,124.0
8624,C5,569.0,51/125,124,124.0
8625,E-3,569.0,0.25,89,124.0
8626,D4,569.0,117/1000,89,124.0
8627,B-3,569.0,43/40,93,124.0
8628,C4,569.0,43/40,93,124.0
8629,G4,569.0,43/40,93,124.0
8630,E-4,569.0,43/40,93,124.0
8631,B-4,569.0,0.25,72,124.0
8632,A4,569.0,0.25,72,124.0
8633,E1,569.367,3/40,50,124.0
8634,C5,569.483,13/40,127,124.0
8635,G2,569.492,367/1000,60,124.0
8636,C5,569.5,51/125,124,124.0
8637,C2,569.5,0.25,78,124.0
8638,C#2,569.5,1.0,84,124.0
8639,E-3,569.5,0.25,74,124.0
8640,B-4,569.5,0.25,36,124.0
8641,A4,569.5,0.25,36,124.0
8642,B-4,569.983,79/500,127,124.0
8643,G2,569.992,1.375,85,124.0
8644,B-4,570.0,121/500,124,124.0
8645,C2,570.0,0.25,78,124.0
8646,E-3,570.0,0.25,89,124.0
8647,B-4,570.0,0.25,67,124.0
8648,A4,570.0,0.25,67,124.0
8649,G4,570.233,79/500,127,124.0
8650,G4,570.25,121/500,124,124.0
8651,F4,570.483,121/500,127,124.0
8652,F4,570.5,13/40,124,124.0
8653,E-3,570.5,0.25,74,124.0
8654,D4,570.5,117/1000,89,124.0
8655,G4,570.5,13/40,93,124.0
8656,B-3,570.5,13/40,93,124.0
8657,C4,570.5,13/40,93,124.0
8658,E-4,570.5,13/40,93,124.0
8659,B-4,570.5,0.25,43,124.0
8660,A4,570.5,0.25,43,124.0
8661,F4,570.983,79/500,127,124.0
8662,F4,571.0,121/500,124,124.0
8663,C#2,571.0,1.0,84,124.0
8664,E-3,571.0,0.25,89,124.0
8665,E4,571.0,117/1000,89,124.0
8666,B-4,571.0,0.25,72,124.0
8667,A4,571.0,0.25,72,124.0
8668,E-4,571.233,79/500,127,124.0
8669,E-4,571.25,121/500,124,124.0
8670,E1,571.367,3/40,50,124.0
8671,C4,571.483,121/500,127,124.0
8672,C2,571.492,367/1000,60,124.0
8673,C4,571.5,13/40,124,124.0
8674,C2,571.5,0.25,78,124.0
8675,E-3,571.5,0.25,79,124.0
8676,E-4,571.5,117/1000,89,124.0
8677,F4,571.5,0.5,93,124.0
8678,B-3,571.5,0.5,93,124.0
8679,D4,571.5,0.5,93,124.0
8680,A3,571.5,0.5,93,124.0
8681,B-4,571.5,0.25,36,124.0
8682,A4,571.5,0.25,36,124.0
8683,E-3,571.75,0.25,74,124.0
8684,F4,571.983,17/1000,127,124.0
8685,C2,571.992,1/125,85,124.0
8686,C2,572.0,1367/1000,85,124.0
8687,F4,572.0,33/40,124,124.0
8688,F4,572.0,29/40,127,124.0
8689,C6,572.0,4.0,90,124.0
8690,C2,572.0,0.25,78,124.0
8691,E-3,572.0,0.25,89,124.0
8692,F4,572.0,499/125,93,124.0
8693,B-3,572.0,499/125,93,124.0
8694,D4,572.0,499/125,93,124.0
8695,A3,572.0,499/125,93,124.0
8696,B-4,572.0,0.25,67,124.0
8697,A4,572.0,0.25,67,124.0
8698,C#2,572.5,1.0,84,124.0
8699,E-3,572.5,0.25,74,124.0
8700,D4,572.5,117/1000,89,124.0
8701,B-4,572.5,0.25,43,124.0
8702,A4,572.5,0.25,43,124.0
8703,C4,572.983,79/500,127,124.0
8704,C4,573.0,121/500,124,124.0
8705,E-3,573.0,0.25,89,124.0
8706,E-4,573.0,117/1000,89,124.0
8707,B-4,573.0,0.25,72,124.0
8708,A4,573.0,0.25,72,124.0
8709,B-3,573.233,79/500,127,124.0
8710,B-3,573.25,121/500,124,124.0
8711,E1,573.367,3/40,50,124.0
8712,G3,573.483,121/500,127,124.0
8713,F2,573.492,367/1000,60,124.0
8714,G3,573.5,13/40,124,124.0
8715,C2,573.5,0.25,78,124.0
8716,E-3,573.5,0.25,74,124.0
8717,E4,573.5,117/1000,89,124.0
8718,B-4,573.5,0.25,36,124.0
8719,A4,573.5,0.25,36,124.0
8720,F3,573.983,79/500,127,124.0
8721,F2,573.992,1.375,85,124.0
8722,F3,574.0,121/500,124,124.0
8723,C2,574.0,0.25,78,124.0
8724,E-3,574.0,0.25,89,124.0
8725,E-4,574.0,117/1000,89,124.0
8726,B-4,574.0,0.25,67,124.0
8727,A4,574.0,0.25,67,124.0
8728,E-3,574.233,79/500,127,124.0
8729,E-3,574.25,121/500,124,124.0
8730,C3,574.483,121/500,127,124.0
8731,C3,574.5,13/40,124,124.0
8732,E-3,574.5,0.25,79,124.0
8733,B-4,574.5,0.25,43,124.0
8734,A4,574.5,0.25,43,124.0
8735,E-3,574.75,0.25,74,124.0
8736,B-2,574.983,13/40,127,124.0
8737,B-2,575.0,51/125,124,124.0
8738,C#2,575.0,1.0,84,124.0
8739,E-3,575.0,0.25,89,124.0
8740,D4,575.0,117/1000,89,124.0
8741,B-4,575.0,0.25,72,124.0
8742,A4,575.0,0.25,72,124.0
8743,E1,575.367,3/40,50,124.0
8744,E-3,575.483,121/500,127,124.0
8745,G2,575.492,367/1000,60,124.0
8746,E-3,575.5,13/40,124,124.0
8747,C2,575.5,0.25,78,124.0
8748,E-3,575.5,0.25,74,124.0
8749,B-4,575.5,0.25,36,124.0
8750,A4,575.5,0.25,36,124.0
8751,C3,575.983,17/1000,127,124.0
8752,C2,575.992,1/125,85,124.0
8753,C2,576.0,1367/1000,85,124.0
8754,C3,576.0,371/500,124,124.0
8755,C3,576.0,321/500,127,124.0
8756,C2,576.0,0.25,78,124.0
8757,E-3,576.0,0.25,89,124.0
8758,B-4,576.0,0.25,67,124.0
8759,A4,576.0,0.25,67,124.0
8760,E-3,576.5,0.25,74,124.0
8761,B-4,576.5,0.25,43,124.0
8762,A4,576.5,0.25,43,124.0
8763,E-3,576.983,13/40,127,124.0
8764,E-3,577.0,51/125,124,124.0
8765,C#2,577.0,1.0,84,124.0
8766,E-3,577.0,0.25,89,124.0
8767,D4,577.0,117/1000,89,124.0
8768,C4,577.0,43/40,93,124.0
8769,E-4,577.0,43/40,93,124.0
8770,B-3,577.0,43/40,93,124.0
8771,G3,577.0,43/40,93,124.0
8772,B-4,577.0,0.25,72,124.0
8773,A4,577.0,0.25,72,124.0
8774,E1,577.367,3/40,50,124.0
8775,C3,577.483,51/125,127,124.0
8776,G2,577.492,367/1000,60,124.0
8777,C3,577.5,123/250,124,124.0
8778,C2,577.5,0.25,78,124.0
8779,E-3,577.5,0.25,74,124.0
8780,B-4,577.5,0.25,36,124.0
8781,A4,577.5,0.25,36,124.0
8782,G2,577.992,1.375,85,124.0
8783,C2,578.0,0.25,78,124.0
8784,E-3,578.0,0.25,89,124.0
8785,B-4,578.0,0.25,67,124.0
8786,A4,578.0,0.25,67,124.0
8787,G3,578.483,13/40,127,124.0
8788,G3,578.5,51/125,124,124.0
8789,C#2,578.5,1.0,84,124.0
8790,E-3,578.5,0.25,74,124.0
8791,D4,578.5,117/1000,89,124.0
8792,E-4,578.5,13/40,93,124.0
8793,B-3,578.5,13/40,93,124.0
8794,G3,578.5,13/40,93,124.0
8795,C4,578.5,13/40,93,124.0
8796,B-4,578.5,0.25,43,124.0
8797,A4,578.5,0.25,43,124.0
8798,B-3,578.983,51/125,127,124.0
8799,B-3,579.0,123/250,124,124.0
8800,E-3,579.0,0.25,89,124.0
8801,E4,579.0,117/1000,89,124.0
8802,B-4,579.0,0.25,72,124.0
8803,A4,579.0,0.25,72,124.0
8804,E1,579.367,3/40,50,124.0
8805,C2,579.492,367/1000,60,124.0
8806,C2,579.5,0.25,78,124.0
8807,E-3,579.5,0.25,74,124.0
8808,E-4,579.5,117/1000,89,124.0
8809,B-3,579.5,0.5,93,124.0
8810,F4,579.5,0.5,93,124.0
8811,A3,579.5,0.5,93,124.0
8812,D4,579.5,0.5,93,124.0
8813,B-4,579.5,0.25,36,124.0
8814,A4,579.5,0.25,36,124.0
8815,A3,579.983,17/1000,127,124.0
8816,C2,579.992,1/125,85,124.0
8817,C2,580.0,1367/1000,85,124.0
8818,A3,580.0,51/125,124,124.0
8819,A3,580.0,77/250,127,124.0
8820,C2,580.0,0.25,78,124.0
8821,E-3,580.0,0.25,89,124.0
8822,B-3,580.0,4.0,93,124.0
8823,F4,580.0,4.0,93,124.0
8824,A3,580.0,4.0,93,124.0
8825,D4,580.0,4.0,93,124.0
8826,B-4,580.0,0.25,67,124.0
8827,A4,580.0,0.25,67,124.0
8828,C4,580.483,121/500,127,124.0
8829,C4,580.5,13/40,124,124.0
8830,E-3,580.5,0.25,74,124.0
8831,D4,580.5,117/1000,89,124.0
8832,B-4,580.5,0.25,43,124.0
8833,A4,580.5,0.25,43,124.0
8834,D4,580.983,13/40,127,124.0
8835,D4,581.0,51/125,124,124.0
8836,E-3,581.0,0.25,89,124.0
8837,E4,581.0,117/1000,89,124.0
8838,B-4,581.0,0.25,72,124.0
8839,A4,581.0,0.25,72,124.0
8840,E1,581.367,3/40,50,124.0
8841,F4,581.483,121/500,127,124.0
8842,F2,581.492,367/1000,60,124.0
8843,F4,581.5,13/40,124,124.0
8844,C2,581.5,0.25,78,124.0
8845,C#2,581.5,1.0,84,124.0
8846,E-3,581.5,0.25,74,124.0
8847,E4,581.5,117/1000,89,124.0
8848,E-5,581.5,0.25,64,124.0
8849,B-4,581.5,0.25,36,124.0
8850,A4,581.5,0.25,36,124.0
8851,E-5,581.75,0.25,64,124.0
8852,G4,581.983,13/40,127,124.0
8853,F2,581.992,1.375,85,124.0
8854,G4,582.0,51/125,124,124.0
8855,C2,582.0,0.25,78,124.0
8856,E-3,582.0,0.25,89,124.0
8857,E-4,582.0,117/1000,89,124.0
8858,E-5,582.0,0.25,64,124.0
8859,B-4,582.0,0.25,67,124.0
8860,A4,582.0,0.25,67,124.0
8861,B-4,582.483,121/500,127,124.0
8862,B-4,582.5,13/40,124,124.0
8863,E-3,582.5,0.25,79,124.0
8864,B-4,582.5,0.25,43,124.0
8865,A4,582.5,0.25,43,124.0
8866,E-3,582.75,0.25,74,124.0
8867,D5,582.983,13/40,127,124.0
8868,D5,583.0,51/125,124,124.0
8869,C#2,583.0,1.0,84,124.0
8870,E-3,583.0,0.25,89,124.0
8871,D4,583.0,117/1000,89,124.0
8872,E-5,583.0,0.25,64,124.0
8873,B-4,583.0,0.25,72,124.0
8874,A4,583.0,0.25,72,124.0
8875,E1,583.367,3/40,50,124.0
8876,F5,583.483,13/40,127,124.0
8877,G2,583.492,367/1000,60,124.0
8878,F5,583.5,51/125,124,124.0
8879,C2,583.5,0.25,78,124.0
8880,E-3,583.5,0.25,79,124.0
8881,B-4,583.5,0.25,36,124.0
8882,A4,583.5,0.25,36,124.0
8883,E-3,583.75,0.25,74,124.0
8884,E-4,583.958,21/500,89,124.0
8885,E-4,583.958,21/500,89,124.0
8886,G5,583.983,17/1000,127,124.0
8887,C2,583.992,1/125,85,124.0
8888,C2,584.0,1367/1000,85,124.0
8889,G5,584.0,13/40,124,124.0
8890,G5,584.0,9/40,127,124.0
8891,G5,584.0,4.0,90,124.0
8892,C2,584.0,0.25,78,124.0
8893,E-3,584.0,0.25,89,124.0
8894,E-4,584.0,3/40,89,124.0
8895,E-4,584.0,3/40,89,124.0
8896,B-4,584.0,0.25,67,124.0
8897,A4,584.0,0.25,67,124.0
8898,G5,584.483,829/500,127,124.0
8899,G5,584.5,871/500,124,124.0
8900,E-3,584.5,0.25,74,124.0
8901,B-4,584.5,0.25,43,124.0
8902,A4,584.5,0.25,43,124.0
8903,E-3,585.0,0.25,89,124.0
8904,D4,585.0,117/1000,89,124.0
8905,G4,585.0,43/40,93,124.0
8906,B-3,585.0,43/40,93,124.0
8907,E-4,585.0,43/40,93,124.0
8908,C4,585.0,43/40,93,124.0
8909,B-4,585.0,0.25,72,124.0
8910,A4,585.0,0.25,72,124.0
8911,E1,585.367,3/40,50,124.0
8912,G2,585.492,367/1000,60,124.0
8913,C2,585.5,0.25,78,124.0
8914,C#2,585.5,1.0,84,124.0
8915,E-3,585.5,0.25,74,124.0
8916,B-4,585.5,0.25,36,124.0
8917,A4,585.5,0.25,36,124.0
8918,G2,585.992,1.375,85,124.0
8919,C2,586.0,0.25,78,124.0
8920,E-3,586.0,0.25,89,124.0
8921,B-4,586.0,0.25,67,124.0
8922,A4,586.0,0.25,67,124.0
8923,E-3,586.5,0.25,74,124.0
8924,D4,586.5,117/1000,89,124.0
8925,G4,586.5,13/40,93,124.0
8926,B-3,586.5,13/40,93,124.0
8927,E-4,586.5,13/40,93,124.0
8928,C4,586.5,13/40,93,124.0
8929,B-4,586.5,0.25,43,124.0
8930,A4,586.5,0.25,43,124.0
8931,C#2,587.0,1.0,84,124.0
8932,E-3,587.0,0.25,89,124.0
8933,E4,587.0,117/1000,89,124.0
8934,B-4,587.0,0.25,72,124.0
8935,A4,587.0,0.25,72,124.0
8936,C5,587.233,79/500,127,124.0
8937,C5,587.25,121/500,124,124.0
8938,E1,587.367,3/40,50,124.0
8939,E-5,587.483,79/500,127,124.0
8940,C2,587.492,367/1000,60,124.0
8941,E-5,587.5,121/500,124,124.0
8942,C2,587.5,0.25,78,124.0
8943,E-3,587.5,0.25,74,124.0
8944,E-4,587.5,117/1000,89,124.0
8945,B-3,587.5,0.5,93,124.0
8946,F4,587.5,0.5,93,124.0
8947,A3,587.5,0.5,93,124.0
8948,D4,587.5,0.5,93,124.0
8949,B-4,587.5,0.25,36,124.0
8950,A4,587.5,0.25,36,124.0
8951,C5,587.733,79/500,127,124.0
8952,C5,587.75,121/500,124,124.0
8953,F5,587.983,17/1000,127,124.0
8954,C2,587.992,1/125,85,124.0
8955,C2,588.0,1367/1000,85,124.0
8956,F5,588.0,124/125,124,124.0
8957,F5,588.0,223/250,127,124.0
8958,C2,588.0,0.25,78,124.0
8959,E-3,588.0,0.25,89,124.0
8960,B-3,588.0,4.0,93,124.0
8961,F4,588.0,4.0,93,124.0
8962,A3,588.0,4.0,93,124.0
8963,D4,588.0,4.0,93,124.0
8964,B-4,588.0,0.25,67,124.0
8965,A4,588.0,0.25,67,124.0
8966,C#2,588.5,1.0,84,124.0
8967,E-3,588.5,0.25,74,124.0
8968,D4,588.5,117/1000,89,124.0
8969,B-4,588.5,0.25,43,124.0
8970,A4,588.5,0.25,43,124.0
8971,E-3,589.0,0.25,89,124.0
8972,E4,589.0,117/1000,89,124.0
8973,B-4,589.0,0.25,72,124.0
8974,A4,589.0,0.25,72,124.0
8975,E1,589.367,3/40,50,124.0
8976,F2,589.492,367/1000,60,124.0
8977,C2,589.5,0.25,78,124.0
8978,E-3,589.5,0.25,74,124.0
8979,E4,589.5,117/1000,89,124.0
8980,B-4,589.5,0.25,36,124.0
8981,A4,589.5,0.25,36,124.0
8982,E-4,589.833,117/1000,89,124.0
8983,F2,589.992,1.375,85,124.0
8984,C2,590.0,0.25,78,124.0
8985,C#2,590.0,1.0,84,124.0
8986,E-3,590.0,0.25,89,124.0
8987,E-4,590.0,117/1000,89,124.0
8988,B-4,590.0,0.25,67,124.0
8989,A4,590.0,0.25,67,124.0
8990,C5,590.233,79/500,127,124.0
8991,C5,590.25,121/500,124,124.0
8992,E-5,590.483,79/500,127,124.0
8993,E-5,590.5,121/500,124,124.0
8994,E-3,590.5,0.25,79,124.0
8995,E-4,590.5,117/1000,89,124.0
8996,B-4,590.5,0.25,43,124.0
8997,A4,590.5,0.25,43,124.0
8998,C5,590.733,3/40,127,124.0
8999,C5,590.75,79/500,124,124.0
9000,E-3,590.75,0.25,74,124.0
9001,F5,590.983,79/500,127,124.0
9002,F5,591.0,121/500,124,124.0
9003,E-3,591.0,0.25,89,124.0
9004,B-4,591.0,0.25,72,124.0
9005,A4,591.0,0.25,72,124.0
9006,E-5,591.233,79/500,127,124.0
9007,E-5,591.25,121/500,124,124.0
9008,E1,591.367,3/40,50,124.0
9009,C5,591.483,121/500,127,124.0
9010,G2,591.492,367/1000,60,124.0
9011,C5,591.5,13/40,124,124.0
9012,C2,591.5,0.25,78,124.0
9013,C#2,591.5,0.5,84,124.0
9014,E-3,591.5,0.25,74,124.0
9015,E4,591.5,117/1000,89,124.0
9016,C6,591.5,0.25,70,124.0
9017,B-4,591.5,0.25,36,124.0
9018,A4,591.5,0.25,36,124.0
9019,G5,591.983,17/1000,127,124.0
9020,C2,591.992,1/125,85,124.0
9021,C2,592.0,1367/1000,85,124.0
9022,G5,592.0,371/500,124,124.0
9023,G5,592.0,321/500,127,124.0
9024,C2,592.0,0.25,78,124.0
9025,C#2,592.0,0.5,84,124.0
9026,E-3,592.0,0.25,89,124.0
9027,B-4,592.0,0.25,67,124.0
9028,A4,592.0,0.25,67,124.0
9029,E-3,592.5,0.25,74,124.0
9030,B-4,592.5,0.25,43,124.0
9031,A4,592.5,0.25,43,124.0
9032,G5,592.983,329/500,127,124.0
9033,G5,593.0,371/500,124,124.0
9034,C#2,593.0,1.0,84,124.0
9035,E-3,593.0,0.25,89,124.0
9036,D4,593.0,117/1000,89,124.0
9037,B-3,593.0,43/40,93,124.0
9038,E-4,593.0,43/40,93,124.0
9039,G3,593.0,43/40,93,124.0
9040,C4,593.0,43/40,93,124.0
9041,B-4,593.0,0.25,72,124.0
9042,A4,593.0,0.25,72,124.0
9043,E1,593.367,3/40,50,124.0
9044,G2,593.492,367/1000,60,124.0
9045,C2,593.5,0.25,78,124.0
9046,E-3,593.5,0.25,74,124.0
9047,B-4,593.5,0.25,36,124.0
9048,A4,593.5,0.25,36,124.0
9049,F5,593.983,79/500,127,124.0
9050,G2,593.992,1.375,85,124.0
9051,F5,594.0,121/500,124,124.0
9052,C2,594.0,0.25,78,124.0
9053,E-3,594.0,0.25,89,124.0
9054,B-4,594.0,0.25,67,124.0
9055,A4,594.0,0.25,67,124.0
9056,E-5,594.233,79/500,127,124.0
9057,E-5,594.25,121/500,124,124.0
9058,C5,594.483,121/500,127,124.0
9059,C5,594.5,13/40,124,124.0
9060,C#2,594.5,1.0,84,124.0
9061,E-3,594.5,0.25,74,124.0
9062,D4,594.5,117/1000,89,124.0
9063,E-4,594.5,13/40,93,124.0
9064,B-3,594.5,13/40,93,124.0
9065,G3,594.5,13/40,93,124.0
9066,C4,594.5,13/40,93,124.0
9067,B-4,594.5,0.25,43,124.0
9068,A4,594.5,0.25,43,124.0
9069,G5,594.983,13/40,127,124.0
9070,G5,595.0,51/125,124,124.0
9071,E-3,595.0,0.25,89,124.0
9072,E4,595.0,117/1000,89,124.0
9073,B-4,595.0,0.25,72,124.0
9074,A4,595.0,0.25,72,124.0
9075,E1,595.367,3/40,50,124.0
9076,F5,595.483,517/1000,127,124.0
9077,C2,595.492,367/1000,60,124.0
9078,F5,595.5,0.5,124,124.0
9079,C2,595.5,0.25,78,124.0
9080,E-3,595.5,0.25,74,124.0
9081,E-4,595.5,117/1000,89,124.0
9082,B-3,595.5,0.5,93,124.0
9083,F4,595.5,0.5,93,124.0
9084,A3,595.5,0.5,93,124.0
9085,D4,595.5,0.5,93,124.0
9086,B-4,595.5,0.25,36,124.0
9087,A4,595.5,0.25,36,124.0
9088,C2,595.992,1/125,85,124.0
9089,C2,596.0,1367/1000,85,124.0
9090,F5,596.0,371/500,124,124.0
9091,F5,596.0,321/500,127,124.0
9092,C2,596.0,0.25,78,124.0
9093,E-3,596.0,0.25,89,124.0
9094,B-3,596.0,4.0,93,124.0
9095,F4,596.0,4.0,93,124.0
9096,A3,596.0,4.0,93,124.0
9097,D4,596.0,4.0,93,124.0
9098,B-4,596.0,0.25,67,124.0
9099,A4,596.0,0.25,67,124.0
9100,E-3,596.5,0.25,74,124.0
9101,B-4,596.5,0.25,43,124.0
9102,A4,596.5,0.25,43,124.0
9103,F5,596.983,79/500,127,124.0
9104,F5,597.0,121/500,124,124.0
9105,E-3,597.0,0.25,89,124.0
9106,D4,597.0,117/1000,89,124.0
9107,B-4,597.0,0.25,72,124.0
9108,A4,597.0,0.25,72,124.0
9109,E-5,597.233,79/500,127,124.0
9110,E-5,597.25,121/500,124,124.0
9111,E1,597.367,3/40,50,124.0
9112,F5,597.483,79/500,127,124.0
9113,F2,597.492,367/1000,60,124.0
9114,F5,597.5,121/500,124,124.0
9115,C2,597.5,0.25,78,124.0
9116,C#2,597.5,1.0,84,124.0
9117,E-3,597.5,0.25,79,124.0
9118,B-4,597.5,0.25,36,124.0
9119,A4,597.5,0.25,36,124.0
9120,G5,597.733,3/40,127,124.0
9121,G5,597.75,79/500,124,124.0
9122,E-3,597.75,0.25,74,124.0
9123,F5,597.983,121/500,127,124.0
9124,F2,597.992,227/250,85,124.0
9125,F5,598.0,13/40,124,124.0
9126,C2,598.0,0.25,78,124.0
9127,E-3,598.0,0.25,89,124.0
9128,B-4,598.0,0.25,67,124.0
9129,A4,598.0,0.25,67,124.0
9130,F5,598.483,121/500,127,124.0
9131,F5,598.5,13/40,124,124.0
9132,E-3,598.5,0.25,79,124.0
9133,E-4,598.5,117/1000,89,124.0
9134,B-4,598.5,0.25,43,124.0
9135,A4,598.5,0.25,43,124.0
9136,E-4,598.667,117/1000,89,124.0
9137,E-3,598.75,0.25,74,124.0
9138,C5,598.983,79/500,127,124.0
9139,B-1,598.992,9/20,75,124.0
9140,C5,599.0,121/500,124,124.0
9141,C#2,599.0,1.0,84,124.0
9142,E-3,599.0,0.25,89,124.0
9143,E-4,599.0,117/1000,89,124.0
9144,B-4,599.0,0.25,72,124.0
9145,A4,599.0,0.25,72,124.0
9146,B-4,599.233,79/500,127,124.0
9147,B-4,599.25,121/500,124,124.0
9148,G4,599.483,121/500,127,124.0
9149,B1,599.492,51/125,60,124.0
9150,G4,599.5,13/40,124,124.0
9151,C2,599.5,0.25,78,124.0
9152,E-3,599.5,0.25,74,124.0
9153,E-4,599.5,117/1000,89,124.0
9154,B-4,599.5,0.25,36,124.0
9155,A4,599.5,0.25,36,124.0
9156,C5,599.983,17/1000,127,124.0
9157,C2,599.992,1/125,85,124.0
9158,C2,600.0,1367/1000,85,124.0
9159,C5,600.0,13/40,124,124.0
9160,C5,600.0,9/40,127,124.0
9161,C2,600.0,0.25,78,124.0
9162,E-3,600.0,0.25,89,124.0
9163,A5,600.0,117/1000,82,124.0
9164,B-4,600.0,0.25,67,124.0
9165,A4,600.0,0.25,67,124.0
9166,C5,600.483,23/40,127,124.0
9167,C5,600.5,329/500,124,124.0
9168,E-3,600.5,0.25,74,124.0
9169,B-4,600.5,0.25,43,124.0
9170,A4,600.5,0.25,43,124.0
9171,E-3,601.0,0.25,89,124.0
9172,D4,601.0,117/1000,89,124.0
9173,B-3,601.0,43/40,93,124.0
9174,C4,601.0,43/40,93,124.0
9175,G4,601.0,43/40,93,124.0
9176,E-4,601.0,43/40,93,124.0
9177,B-4,601.0,0.25,72,124.0
9178,A4,601.0,0.25,72,124.0
9179,E1,601.367,3/40,50,124.0
9180,B-4,601.483,13/40,127,124.0
9181,G2,601.492,367/1000,60,124.0
9182,B-4,601.5,51/125,124,124.0
9183,C2,601.5,0.25,78,124.0
9184,C#2,601.5,1.0,84,124.0
9185,E-3,601.5,0.25,74,124.0
9186,B-4,601.5,0.25,36,124.0
9187,A4,601.5,0.25,36,124.0
9188,C5,601.983,329/500,127,124.0
9189,G2,601.992,1.375,85,124.0
9190,C5,602.0,371/500,124,124.0
9191,C2,602.0,0.25,78,124.0
9192,E-3,602.0,0.25,89,124.0
9193,B-4,602.0,0.25,67,124.0
9194,A4,602.0,0.25,67,124.0
9195,E-3,602.5,0.25,74,124.0
9196,D4,602.5,117/1000,89,124.0
9197,G4,602.5,13/40,93,124.0
9198,B-3,602.5,13/40,93,124.0
9199,C4,602.5,13/40,93,124.0
9200,E-4,602.5,13/40,93,124.0
9201,B-4,602.5,0.25,43,124.0
9202,A4,602.5,0.25,43,124.0
9203,F4,602.983,79/500,127,124.0
9204,F4,603.0,121/500,124,124.0
9205,C#2,603.0,1.0,84,124.0
9206,E-3,603.0,0.25,89,124.0
9207,E4,603.0,117/1000,89,124.0
9208,B-4,603.0,0.25,72,124.0
9209,A4,603.0,0.25,72,124.0
9210,E-4,603.233,79/500,127,124.0
9211,E-4,603.25,121/500,124,124.0
9212,E1,603.367,3/40,50,124.0
9213,C4,603.483,121/500,127,124.0
9214,C2,603.492,367/1000,60,124.0
9215,C4,603.5,13/40,124,124.0
9216,C2,603.5,0.25,78,124.0
9217,E-3,603.5,0.25,79,124.0
9218,E4,603.5,117/1000,89,124.0
9219,F4,603.5,0.5,93,124.0
9220,B-3,603.5,0.5,93,124.0
9221,D4,603.5,0.5,93,124.0
9222,A3,603.5,0.5,93,124.0
9223,B-4,603.5,0.25,36,124.0
9224,A4,603.5,0.25,36,124.0
9225,E-3,603.75,0.25,74,124.0
9226,A4,603.983,17/1000,112,124.0
9227,C2,603.992,1/125,85,124.0
9228,C2,604.0,1367/1000,85,124.0
9229,A4,604.0,51/125,109,124.0
9230,A4,604.0,77/250,112,124.0
9231,C2,604.0,0.25,78,124.0
9232,E-3,604.0,0.25,89,124.0
9233,F4,604.0,499/125,93,124.0
9234,B-3,604.0,499/125,93,124.0
9235,D4,604.0,499/125,93,124.0
9236,A3,604.0,499/125,93,124.0
9237,B-4,604.0,0.25,67,124.0
9238,A4,604.0,0.25,67,124.0
9239,F4,604.483,79/500,107,124.0
9240,F4,604.5,121/500,104,124.0
9241,C#2,604.5,1.0,84,124.0
9242,E-3,604.5,0.25,74,124.0
9243,B-4,604.5,0.25,43,124.0
9244,A4,604.5,0.25,43,124.0
9245,G4,604.733,13/40,102,124.0
9246,G4,604.75,51/125,99,124.0
9247,E-3,605.0,0.25,89,124.0
9248,B-4,605.0,0.25,72,124.0
9249,A4,605.0,0.25,72,124.0
9250,E-4,605.233,79/500,97,124.0
9251,E-4,605.25,121/500,94,124.0
9252,E1,605.367,3/40,50,124.0
9253,F4,605.483,121/500,92,124.0
9254,F2,605.492,367/1000,60,124.0
9255,F4,605.5,13/40,89,124.0
9256,C2,605.5,0.25,78,124.0
9257,E-3,605.5,0.25,74,124.0
9258,E-4,605.5,117/1000,89,124.0
9259,B-4,605.5,0.25,36,124.0
9260,A4,605.5,0.25,36,124.0
9261,D4,605.983,79/500,127,124.0
9262,F2,605.992,1.375,85,124.0
9263,D4,606.0,121/500,127,124.0
9264,C2,606.0,0.25,78,124.0
9265,E-3,606.0,0.25,89,124.0
9266,B-4,606.0,0.25,67,124.0
9267,A4,606.0,0.25,67,124.0
9268,E-4,606.233,121/500,127,124.0
9269,E-4,606.25,13/40,127,124.0
9270,E-3,606.5,0.25,79,124.0
9271,B-4,606.5,0.25,43,124.0
9272,A4,606.5,0.25,43,124.0
9273,C4,606.733,79/500,127,124.0
9274,C4,606.75,121/500,124,124.0
9275,E-3,606.75,0.25,74,124.0
9276,D4,606.983,121/500,127,124.0
9277,D4,607.0,13/40,124,124.0
9278,C#2,607.0,1.0,84,124.0
9279,E-3,607.0,0.25,89,124.0
9280,E-4,607.0,117/1000,89,124.0
9281,B-4,607.0,0.25,72,124.0
9282,A4,607.0,0.25,72,124.0
9283,E1,607.367,3/40,50,124.0
9284,B-3,607.483,79/500,127,124.0
9285,G2,607.492,367/1000,60,124.0
9286,B-3,607.5,121/500,124,124.0
9287,C2,607.5,0.25,78,124.0
9288,E-3,607.5,0.25,74,124.0
9289,B-4,607.5,0.25,36,124.0
9290,A4,607.5,0.25,36,124.0
9291,C4,607.733,121/500,127,124.0
9292,C4,607.75,121/500,124,124.0
9293,C4,615.733,33/1000,67,124.0
9294,E-4,615.733,33/1000,67,124.0
9295,G4,615.733,33/1000,67,124.0
9296,C4,615.767,3967/1000,67,124.0
9297,E-4,615.767,3967/1000,67,124.0
9298,G4,615.767,3967/1000,67,124.0
9299,D4,619.733,33/1000,67,124.0
9300,F4,619.733,33/1000,67,124.0
9301,B-3,619.733,33/1000,67,124.0
9302,D4,623.733,3967/1000,67,124.0
9303,F4,623.733,3967/1000,67,124.0
9304,B-3,623.733,3967/1000,67,124.0
9305,E-4,627.7,33/1000,67,124.0
9306,C4,627.7,33/1000,67,124.0
9307,G3,627.7,33/1000,67,124.0
9308,E-4,631.7,3967/1000,67,124.0
9309,C4,631.7,3967/1000,67,124.0
9310,G3,631.7,3967/1000,67,124.0
9311,D4,635.667,33/1000,67,124.0
9312,B-3,635.667,33/1000,67,124.0
9313,F3,635.667,33/1000,67,124.0
9314,D4,639.667,3967/1000,67,124.0
9315,B-3,639.667,3967/1000,67,124.0
9316,F3,639.667,3967/1000,67,124.0
9317,E-4,643.633,33/1000,67,124.0
9318,G4,643.633,33/1000,67,124.0
9319,C4,643.633,33/1000,67,124.0
9320,E-4,647.633,3967/1000,67,124.0
9321,G4,647.633,3967/1000,67,124.0
9322,C4,647.633,3967/1000,67,124.0
9323,F4,651.6,33/1000,67,124.0
9324,D4,651.6,33/1000,67,124.0
9325,B-3,651.6,33/1000,67,124.0
9326,F4,655.6,3967/1000,67,124.0
9327,D4,655.6,3967/1000,67,124.0
9328,B-3,655.6,3967/1000,67,124.0
9329,C4,659.567,33/1000,67,124.0
9330,E-4,659.567,33/1000,67,124.0
9331,G3,659.567,33/1000,67,124.0
9332,C4,663.567,3967/1000,67,124.0
9333,E-4,663.567,3967/1000,67,124.0
9334,G3,663.567,3967/1000,67,124.0
9335,D4,667.533,33/1000,67,124.0
9336,B-3,667.533,33/1000,67,124.0
9337,F3,667.533,33/1000,67,124.0
9338,D4,671.533,3967/1000,67,124.0
9339,B-3,671.533,3967/1000,67,124.0
9340,F3,671.533,3967/1000,67,124.0
9341,G4,675.5,33/1000,67,124.0
9342,C4,675.5,33/1000,67,124.0
9343,E-4,675.5,33/1000,67,124.0
9344,G4,679.5,3967/1000,67,124.0
9345,C4,679.5,3967/1000,67,124.0
9346,E-4,679.5,3967/1000,67,124.0
9347,D4,683.467,33/1000,67,124.0
9348,F4,683.467,33/1000,67,124.0
9349,B-3,683.467,33/1000,67,124.0
9350,D4,687.467,3967/1000,67,124.0
9351,F4,687.467,3967/1000,67,124.0
9352,B-3,687.467,3967/1000,67,124.0
9353,E-4,691.433,33/1000,67,124.0
9354,G3,691.433,33/1000,67,124.0
9355,C4,691.433,33/1000,67,124.0
9356,E-4,695.433,3967/1000,67,124.0
9357,G3,695.433,3967/1000,67,124.0
9358,C4,695.433,3967/1000,67,124.0
9359,D4,699.4,33/1000,67,124.0
9360,B-3,699.4,33/1000,67,124.0
9361,F3,699.4,33/1000,67,124.0
9362,D4,703.4,3967/1000,67,124.0
9363,B-3,703.4,3967/1000,67,124.0
9364,F3,703.4,3967/1000,67,124.0
9365,E-4,707.367,33/1000,67,124.0
9366,G4,707.367,33/1000,67,124.0
9367,C4,707.367,33/1000,67,124.0
9368,E-4,711.367,3967/1000,67,124.0
9369,G4,711.367,3967/1000,67,124.0
9370,C4,711.367,3967/1000,67,124.0
9371,D4,715.333,33/1000,67,124.0
9372,B-3,715.333,33/1000,67,124.0
9373,F4,715.333,33/1000,67,124.0
9374,D4,719.333,3967/1000,67,124.0
9375,B-3,719.333,3967/1000,67,124.0
9376,F4,719.333,3967/1000,67,124.0
9377,C4,723.3,33/1000,67,124.0
9378,E-4,723.3,33/1000,67,124.0
9379,G3,723.3,33/1000,67,124.0
9380,C4,727.3,3967/1000,67,124.0
9381,E-4,727.3,3967/1000,67,124.0
9382,G3,727.3,3967/1000,67,124.0
9383,D4,731.267,33/1000,67,124.0
9384,B-3,731.267,33/1000,67,124.0
9385,F3,731.267,33/1000,67,124.0
9386,D4,735.267,3967/1000,67,124.0
9387,B-3,735.267,3967/1000,67,124.0
9388,F3,735.267,3967/1000,67,124.0
9389,E-4,739.233,33/1000,67,124.0
9390,C4,739.233,33/1000,67,124.0
9391,G4,739.233,33/1000,67,124.0
9392,E-4,743.233,3967/1000,67,124.0
9393,C4,743.233,3967/1000,67,124.0
9394,G4,743.233,3967/1000,67,124.0
9395,D4,747.2,33/1000,67,124.0
9396,F4,747.2,33/1000,67,124.0
9397,B-3,747.2,33/1000,67,124.0
9398,D4,751.2,3967/1000,67,124.0
9399,F4,751.2,3967/1000,67,124.0
9400,B-3,751.2,3967/1000,67,124.0
9401,E-4,755.167,33/1000,67,124.0
9402,C4,755.167,33/1000,67,124.0
9403,G3,755.167,33/1000,67,124.0
9404,E-4,759.167,3967/1000,67,124.0
9405,C4,759.167,3967/1000,67,124.0
9406,G3,759.167,3967/1000,67,124.0
9407,D4,763.133,33/1000,67,124.0
9408,F3,763.133,33/1000,67,124.0
9409,B-3,763.133,33/1000,67,124.0
9410,D4,767.133,3967/1000,67,124.0
9411,F3,767.133,3967/1000,67,124.0
9412,B-3,767.133,3967/1000,67,124.0
9413,E-4,771.1,33/1000,67,124.0
9414,C4,771.1,33/1000,67,124.0
9415,G4,771.1,33/1000,67,124.0
9416,E-4,775.1,3967/1000,67,124.0
9417,C4,775.1,3967/1000,67,124.0
9418,G4,775.1,3967/1000,67,124.0
9419,D4,779.067,33/1000,67,124.0
9420,F4,779.067,33/1000,67,124.0
9421,B-3,779.067,33/1000,67,124.0
9422,D4,783.067,3967/1000,67,124.0
9423,F4,783.067,3967/1000,67,124.0
9424,B-3,783.067,3967/1000,67,124.0
9425,E-4,787.033,33/1000,67,124.0
9426,G3,787.033,33/1000,67,124.0
9427,C4,787.033,33/1000,67,124.0
9428,E-4,791.033,3967/1000,67,124.0
9429,G3,791.033,3967/1000,67,124.0
9430,C4,791.033,3967/1000,67,124.0
9431,B-3,795.0,33/1000,67,124.0
9432,D4,795.0,33/1000,67,124.0
9433,F3,795.0,33/1000,67,124.0
9434,B-3,799.0,3967/1000,67,124.0
9435,D4,799.0,3967/1000,67,124.0
9436,F3,799.0,3967/1000,67,124.0
9437,G4,802.967,33/1000,67,124.0
9438,E-4,802.967,33/1000,67,124.0
9439,C4,802.967,33/1000,67,124.0
9440,G4,806.967,3967/1000,67,124.0
9441,E-4,806.967,3967/1000,67,124.0
9442,C4,806.967,3967/1000,67,124.0
9443,D4,810.933,33/1000,67,124.0
9444,F4,810.933,33/1000,67,124.0
9445,B-3,810.933,33/1000,67,124.0
9446,D4,814.933,3967/1000,67,124.0
9447,F4,814.933,3967/1000,67,124.0
9448,B-3,814.933,3967/1000,67,124.0
