,note_name,start_time,duration,velocity,tempo
0,F#2,4.0,0.031,63,122.0
1,F#2,5.0,0.031,62,122.0
2,F#2,6.0,0.031,62,122.0
3,F#2,7.0,0.031,61,122.0
4,E-1,8.0,67/125,119,122.0
5,E-2,8.667,13/100,108,122.0
6,E-1,9.0,0.156,108,122.0
7,F#2,9.0,0.031,110,122.0
8,C#2,9.333,0.109,99,122.0
9,E-2,9.667,0.125,103,122.0
10,F#1,10.0,661/1000,117,122.0
11,F#2,10.667,0.125,101,122.0
12,G#1,11.0,229/1000,101,122.0
13,F#2,11.0,0.031,112,122.0
14,G#2,11.333,0.203,91,122.0
15,F#2,11.667,0.172,87,122.0
16,E-1,12.0,557/1000,114,122.0
17,E-2,12.667,167/1000,112,122.0
18,E-1,13.0,0.203,96,122.0
19,F#2,13.0,0.031,108,122.0
20,C#2,13.333,0.109,101,122.0
21,E-2,13.667,161/1000,108,122.0
22,G#1,14.333,27/200,99,122.0
23,C#2,14.667,99/1000,112,122.0
24,E-2,15.0,229/1000,99,122.0
25,F#2,15.0,0.031,107,122.0
26,C#2,15.333,0.391,78,122.0
27,E-2,15.667,51/200,103,122.0
28,E-1,16.0,271/500,110,122.0
29,E-2,16.667,161/1000,114,122.0
30,E-1,17.0,0.219,104,122.0
31,F#2,17.0,0.031,108,122.0
32,C#2,17.333,23/200,108,122.0
33,E-2,17.667,161/1000,108,122.0
34,F#1,18.0,693/1000,112,122.0
35,F#2,18.667,151/1000,110,122.0
36,G#1,19.0,56/125,104,122.0
37,F#2,19.0,0.031,100,122.0
38,G#2,19.333,99/500,85,122.0
39,F#2,19.667,3/25,91,122.0
40,E-1,20.0,599/1000,110,122.0
41,E-2,20.667,73/500,110,122.0
42,E-1,21.0,0.031,100,122.0
43,F#2,21.0,0.031,100,122.0
44,E-1,21.333,0.109,108,122.0
45,B-2,21.667,0.703,104,122.0
46,B1,21.667,0.031,88,122.0
47,B-2,21.667,0.031,88,122.0
48,B1,22.0,0.031,80,122.0
49,C#3,22.333,0.203,93,122.0
50,E2,22.333,0.031,93,122.0
51,E2,22.5,0.031,85,122.0
52,E-1,22.667,3/25,106,122.0
53,E2,22.667,0.031,113,122.0
54,F#5,22.75,0.031,119,122.0
55,A2,23.0,151/1000,78,122.0
56,G#2,23.0,0.5,93,122.0
57,B1,23.0,0.031,98,122.0
58,E2,23.0,0.031,98,122.0
59,E2,23.333,0.031,85,122.0
60,F#2,23.667,0.156,96,122.0
61,E2,23.667,0.031,109,122.0
62,E-1,24.0,0.5,96,122.0
63,B-3,24.0,0.5,96,122.0
64,C#4,24.0,0.5,96,122.0
65,E-1,24.0,341/500,98,122.0
66,E-1,24.0,341/500,98,122.0
67,G#3,24.0,27/200,84,122.0
68,E-2,24.0,27/200,84,122.0
69,C#3,24.0,0.031,108,122.0
70,C2,24.0,0.031,108,122.0
71,E-3,24.333,0.109,84,122.0
72,F#2,24.667,0.031,64,122.0
73,E-2,24.667,0.125,93,122.0
74,E-2,24.667,0.125,93,122.0
75,B-3,24.667,0.125,93,122.0
76,G#3,24.667,0.125,93,122.0
77,C#4,24.667,0.125,93,122.0
78,E-4,24.667,0.125,93,122.0
79,C#3,24.667,0.125,93,122.0
80,E-1,25.0,263/500,93,122.0
81,E-1,25.0,0.094,99,122.0
82,E-2,25.0,0.094,99,122.0
83,E-2,25.0,0.094,99,122.0
84,E-2,25.0,0.031,109,122.0
85,E2,25.0,0.031,109,122.0
86,F#2,25.0,0.031,109,122.0
87,C2,25.0,0.031,109,122.0
88,F#3,25.0,0.031,109,122.0
89,C#2,25.333,0.078,79,122.0
90,C#2,25.333,0.078,79,122.0
91,G#3,25.333,0.078,79,122.0
92,C#3,25.333,0.078,79,122.0
93,C#4,25.333,0.078,72,122.0
94,G#3,25.333,0.078,72,122.0
95,C#3,25.333,0.078,72,122.0
96,F#2,25.667,0.031,59,122.0
97,E-2,25.667,73/1000,81,122.0
98,E-2,25.667,73/1000,81,122.0
99,F#2,25.667,73/1000,81,122.0
100,E-3,25.667,73/1000,81,122.0
101,F#1,26.0,693/1000,110,122.0
102,F#1,26.0,693/1000,110,122.0
103,F#1,26.0,0.531,89,122.0
104,C#4,26.0,0.531,89,122.0
105,B-3,26.0,0.531,89,122.0
106,F#3,26.0,0.531,92,122.0
107,B-3,26.0,0.531,92,122.0
108,F#2,26.0,0.031,91,122.0
109,F#2,26.0,0.031,91,122.0
110,C2,26.0,0.031,91,122.0
111,F#3,26.333,73/1000,82,122.0
112,F#2,26.667,0.031,62,122.0
113,F#2,26.667,0.109,84,122.0
114,F#2,26.667,0.109,84,122.0
115,F#3,26.667,0.109,84,122.0
116,F#2,26.667,0.109,84,122.0
117,F#2,26.667,0.109,84,122.0
118,G#1,27.0,229/1000,101,122.0
119,G#1,27.0,0.672,91,122.0
120,G#1,27.0,599/1000,98,122.0
121,C4,27.0,0.469,79,122.0
122,G#3,27.0,0.469,79,122.0
123,E-4,27.0,0.469,92,122.0
124,G#3,27.0,0.469,92,122.0
125,C#4,27.0,0.031,105,122.0
126,G#2,27.0,0.031,105,122.0
127,E-2,27.0,0.031,105,122.0
128,E2,27.0,0.031,105,122.0
129,F#2,27.0,0.031,105,122.0
130,C2,27.0,0.031,105,122.0
131,F#3,27.0,0.031,105,122.0
132,G#2,27.333,73/500,88,122.0
133,G#3,27.333,73/500,88,122.0
134,F#2,27.667,0.031,53,122.0
135,F#2,27.667,0.141,93,122.0
136,F#2,27.667,0.141,93,122.0
137,C4,27.667,0.141,93,122.0
138,E-4,27.667,0.141,93,122.0
139,G#3,27.667,0.141,93,122.0
140,G#2,27.667,0.141,93,122.0
141,F#3,27.667,0.141,93,122.0
142,E-1,28.0,557/1000,114,122.0
143,E-1,28.0,667/1000,103,122.0
144,E-1,28.0,99/250,102,122.0
145,E-2,28.0,27/200,96,122.0
146,C2,28.0,0.031,99,122.0
147,F#2,28.0,0.031,99,122.0
148,F#3,28.333,13/100,78,122.0
149,E-3,28.333,13/100,78,122.0
150,F#2,28.667,0.031,56,122.0
151,E-2,28.667,3/25,99,122.0
152,E-2,28.667,3/25,99,122.0
153,E-2,28.667,3/25,99,122.0
154,E-2,28.667,3/25,99,122.0
155,E-1,29.0,0.203,96,122.0
156,E-1,29.0,67/125,99,122.0
157,F#3,29.0,0.031,93,122.0
158,B-3,29.0,0.031,93,122.0
159,C#4,29.0,0.031,93,122.0
160,C#3,29.0,0.031,93,122.0
161,E-2,29.0,0.031,93,122.0
162,E2,29.0,0.031,93,122.0
163,F#2,29.0,0.031,93,122.0
164,C2,29.0,0.031,93,122.0
165,F#3,29.0,0.031,93,122.0
166,C#2,29.333,0.078,92,122.0
167,E-2,29.333,0.078,92,122.0
168,E-2,29.333,0.078,82,122.0
169,E-2,29.333,0.078,82,122.0
170,E-2,29.667,0.109,90,122.0
171,E-2,29.667,0.109,90,122.0
172,E-3,29.667,0.109,90,122.0
173,F#3,29.667,0.031,87,122.0
174,C#4,29.667,0.031,87,122.0
175,B-3,29.667,0.031,87,122.0
176,E-3,29.667,0.031,87,122.0
177,F#2,29.667,0.031,87,122.0
178,E-2,30.0,0.031,94,122.0
179,C2,30.0,0.031,94,122.0
180,F#2,30.0,0.031,94,122.0
181,B-3,30.333,13/250,70,122.0
182,C#2,30.333,0.125,95,122.0
183,C#2,30.333,0.125,95,122.0
184,C#3,30.333,0.125,95,122.0
185,B-2,30.667,0.031,73,122.0
186,B-1,30.667,83/1000,91,122.0
187,C#1,30.667,83/1000,91,122.0
188,E-2,30.667,83/1000,91,122.0
189,E-2,30.667,83/1000,91,122.0
190,C#2,31.0,0.641,110,122.0
191,E-4,31.0,0.516,96,122.0
192,B-3,31.0,99/250,98,122.0
193,C#2,31.0,73/250,100,122.0
194,C#3,31.0,73/250,100,122.0
195,E-2,31.0,0.031,107,122.0
196,E2,31.0,0.031,107,122.0
197,C2,31.0,0.031,107,122.0
198,F#2,31.0,0.031,107,122.0
199,F#3,31.0,0.031,107,122.0
200,B-1,31.333,0.391,101,122.0
201,E-2,31.333,83/1000,88,122.0
202,E-2,31.667,0.203,98,122.0
203,E-2,31.667,0.203,98,122.0
204,G#3,31.667,0.109,93,122.0
205,C#4,31.667,0.109,93,122.0
206,E-3,31.667,0.109,93,122.0
207,C2,31.667,0.031,65,122.0
208,F#2,31.667,0.031,65,122.0
209,E-1,32.0,271/500,101,122.0
210,E-1,32.0,661/1000,104,122.0
211,E-1,32.0,271/1000,88,122.0
212,E-2,32.0,13/125,95,122.0
213,C2,32.0,0.031,113,122.0
214,F#2,32.0,0.031,113,122.0
215,E-4,32.333,83/1000,75,122.0
216,B-3,32.333,83/1000,75,122.0
217,E-3,32.333,83/1000,75,122.0
218,F#2,32.667,0.031,66,122.0
219,E-2,32.667,23/200,100,122.0
220,E-2,32.667,23/200,100,122.0
221,E-2,32.667,23/200,100,122.0
222,C#3,32.667,23/200,100,122.0
223,E-1,33.0,0.641,103,122.0
224,E-2,33.0,0.125,87,122.0
225,E-1,33.0,49/200,106,122.0
226,B-3,33.0,49/200,106,122.0
227,E-4,33.0,49/200,106,122.0
228,E-2,33.0,0.031,112,122.0
229,E2,33.0,0.031,112,122.0
230,F#2,33.0,0.031,112,122.0
231,C2,33.0,0.031,112,122.0
232,F#3,33.0,0.031,112,122.0
233,C#2,33.333,83/1000,90,122.0
234,C#3,33.333,83/1000,90,122.0
235,F#2,33.667,0.031,59,122.0
236,E-2,33.667,0.109,90,122.0
237,E-2,33.667,0.109,90,122.0
238,E-2,33.667,0.109,90,122.0
239,E-3,33.667,0.109,90,122.0
240,F#2,34.0,0.125,87,122.0
241,F#1,34.0,0.703,100,122.0
242,F#1,34.0,0.703,100,122.0
243,F#1,34.0,0.531,101,122.0
244,B-3,34.0,0.531,101,122.0
245,F#3,34.0,0.531,101,122.0
246,C#4,34.0,0.531,101,122.0
247,F#2,34.0,0.031,102,122.0
248,C2,34.0,0.031,102,122.0
249,F#3,34.333,23/200,83,122.0
250,F#2,34.667,0.031,62,122.0
251,F#2,34.667,73/500,88,122.0
252,F#2,34.667,73/500,88,122.0
253,C#4,34.667,73/500,88,122.0
254,F#3,34.667,73/500,88,122.0
255,F#2,34.667,73/500,88,122.0
256,F#2,34.667,73/500,88,122.0
257,G#1,35.0,0.688,92,122.0
258,G#1,35.0,123/200,91,122.0
259,G#2,35.0,167/1000,75,122.0
260,G#1,35.0,0.469,97,122.0
261,C4,35.0,0.469,97,122.0
262,G#3,35.0,0.469,97,122.0
263,E-4,35.0,0.469,97,122.0
264,E-2,35.0,0.031,112,122.0
265,E2,35.0,0.031,112,122.0
266,F#2,35.0,0.031,112,122.0
267,C2,35.0,0.031,112,122.0
268,F#3,35.0,0.031,112,122.0
269,G#2,35.333,99/500,85,122.0
270,G#3,35.333,99/1000,79,122.0
271,F#2,35.667,0.031,64,122.0
272,F#2,35.667,3/25,87,122.0
273,F#2,35.667,3/25,87,122.0
274,C4,35.667,3/25,87,122.0
275,G#3,35.667,3/25,87,122.0
276,E-4,35.667,3/25,87,122.0
277,G#2,35.667,3/25,87,122.0
278,F#3,35.667,3/25,87,122.0
279,E-1,36.0,0.281,102,122.0
280,E-2,36.0,161/1000,86,122.0
281,E-1,36.0,63/100,106,122.0
282,E-1,36.0,63/100,106,122.0
283,F#2,36.0,0.031,98,122.0
284,C2,36.0,0.031,98,122.0
285,F#3,36.333,23/200,78,122.0
286,E-3,36.333,23/200,78,122.0
287,F#2,36.667,0.031,52,122.0
288,E-2,36.667,3/25,101,122.0
289,E-2,36.667,3/25,101,122.0
290,E-2,36.667,3/25,101,122.0
291,E-2,36.667,3/25,101,122.0
292,E-1,37.0,521/1000,88,122.0
293,E-1,37.0,0.031,96,122.0
294,C#4,37.0,0.031,96,122.0
295,B-3,37.0,0.031,96,122.0
296,F#3,37.0,0.031,96,122.0
297,C#3,37.0,0.031,96,122.0
298,E-2,37.0,0.031,96,122.0
299,E2,37.0,0.031,96,122.0
300,C2,37.0,0.031,96,122.0
301,F#2,37.0,0.031,96,122.0
302,F#3,37.0,0.031,96,122.0
303,E-1,37.333,73/1000,88,122.0
304,E-2,37.333,73/1000,88,122.0
305,E-2,37.333,73/1000,88,122.0
306,B-2,37.667,0.703,104,122.0
307,E-2,37.667,0.141,95,122.0
308,E-4,37.667,0.141,95,122.0
309,G#3,37.667,0.141,95,122.0
310,E-3,37.667,0.141,95,122.0
311,C#4,37.667,0.031,90,122.0
312,E-4,37.667,0.031,90,122.0
313,B-3,37.667,0.031,90,122.0
314,G#3,37.667,0.031,90,122.0
315,F#2,37.667,0.031,90,122.0
316,G#1,38.0,0.266,83,122.0
317,E-2,38.0,0.031,98,122.0
318,C2,38.0,0.031,98,122.0
319,C#3,38.333,0.203,76,122.0
320,B-1,38.333,0.203,76,122.0
321,C#4,38.333,0.031,82,122.0
322,B-3,38.333,0.031,82,122.0
323,G#3,38.333,0.031,82,122.0
324,C#3,38.333,0.031,82,122.0
325,F#2,38.333,0.031,82,122.0
326,B-2,38.667,0.031,93,122.0
327,E-1,38.667,0.078,94,122.0
328,C#2,38.667,0.078,94,122.0
329,E-2,38.667,0.078,94,122.0
330,E-2,38.667,0.078,94,122.0
331,G#2,39.0,0.5,93,122.0
332,C#2,39.0,651/1000,104,122.0
333,C#3,39.0,0.312,88,122.0
334,A2,39.0,161/1000,107,122.0
335,C#4,39.0,161/1000,107,122.0
336,G#3,39.0,161/1000,107,122.0
337,B-3,39.0,161/1000,107,122.0
338,E-2,39.0,0.031,111,122.0
339,E2,39.0,0.031,111,122.0
340,F#2,39.0,0.031,111,122.0
341,C2,39.0,0.031,111,122.0
342,F#3,39.0,0.031,111,122.0
343,E-2,39.333,17/250,65,122.0
344,B-3,39.333,99/500,52,122.0
345,C#4,39.333,99/500,52,122.0
346,F#2,39.667,0.109,90,122.0
347,E-2,39.667,0.109,90,122.0
348,E-4,39.667,0.109,90,122.0
349,G#3,39.667,0.109,90,122.0
350,E-3,39.667,0.109,90,122.0
351,B-3,39.667,0.031,84,122.0
352,E-4,39.667,0.031,84,122.0
353,E-3,39.667,0.031,84,122.0
354,C2,39.667,0.031,84,122.0
355,F#2,39.667,0.031,84,122.0
356,E-1,40.0,67/125,119,122.0
357,E-1,40.0,341/500,110,122.0
358,E-1,40.0,307/1000,88,122.0
359,E-2,40.0,27/200,95,122.0
360,C#3,40.0,0.031,108,122.0
361,C2,40.0,0.031,108,122.0
362,E-3,40.333,0.125,86,122.0
363,F#2,40.667,0.031,64,122.0
364,E-2,40.667,83/1000,98,122.0
365,E-2,40.667,83/1000,98,122.0
366,E-2,40.667,83/1000,98,122.0
367,E-2,40.667,83/1000,98,122.0
368,E-1,41.0,263/500,93,122.0
369,E-1,41.0,23/200,98,122.0
370,E-4,41.0,23/200,98,122.0
371,G#3,41.0,23/200,98,122.0
372,E-2,41.0,23/200,98,122.0
373,B-3,41.0,0.031,105,122.0
374,C#4,41.0,0.031,105,122.0
375,E-2,41.0,0.031,105,122.0
376,E-2,41.0,0.031,105,122.0
377,E2,41.0,0.031,105,122.0
378,F#2,41.0,0.031,105,122.0
379,C2,41.0,0.031,105,122.0
380,F#3,41.0,0.031,105,122.0
381,C#2,41.333,0.125,85,122.0
382,C#2,41.333,0.125,85,122.0
383,C#3,41.333,0.125,85,122.0
384,E-2,41.667,0.109,87,122.0
385,E-2,41.667,0.109,87,122.0
386,E-4,41.667,0.109,87,122.0
387,G#3,41.667,0.109,87,122.0
388,E-3,41.667,0.109,87,122.0
389,C#4,41.667,0.031,81,122.0
390,B-3,41.667,0.031,81,122.0
391,E-4,41.667,0.031,81,122.0
392,G#3,41.667,0.031,81,122.0
393,E-3,41.667,0.031,81,122.0
394,F#2,41.667,0.031,81,122.0
395,F#2,42.0,23/200,96,122.0
396,F#1,42.0,0.672,102,122.0
397,F#1,42.0,0.672,102,122.0
398,F#1,42.0,0.672,102,122.0
399,F#2,42.0,0.672,102,122.0
400,F#3,42.0,0.469,95,122.0
401,B-3,42.0,0.469,95,122.0
402,C#4,42.0,0.469,95,122.0
403,F#2,42.0,0.031,98,122.0
404,C2,42.0,0.031,98,122.0
405,F#3,42.333,0.125,80,122.0
406,F#2,42.667,0.031,62,122.0
407,F#2,42.667,0.172,82,122.0
408,F#2,42.667,0.172,82,122.0
409,F#3,42.667,0.172,82,122.0
410,B-3,42.667,0.172,82,122.0
411,C#4,42.667,0.172,82,122.0
412,F#2,42.667,0.172,82,122.0
413,G#1,43.0,229/1000,101,122.0
414,G#1,43.0,0.672,91,122.0
415,G#2,43.0,13/100,76,122.0
416,C4,43.0,521/1000,98,122.0
417,G#2,43.0,521/1000,98,122.0
418,G#1,43.0,521/1000,98,122.0
419,G#3,43.0,521/1000,98,122.0
420,E-4,43.0,521/1000,98,122.0
421,E-2,43.0,0.031,110,122.0
422,E2,43.0,0.031,110,122.0
423,F#2,43.0,0.031,110,122.0
424,C2,43.0,0.031,110,122.0
425,F#3,43.0,0.031,110,122.0
426,G#2,43.333,0.203,91,122.0
427,G#3,43.333,23/200,80,122.0
428,F#2,43.667,0.031,53,122.0
429,F#2,43.667,73/500,98,122.0
430,F#2,43.667,73/500,98,122.0
431,G#3,43.667,73/500,98,122.0
432,E-4,43.667,73/500,98,122.0
433,C4,43.667,13/250,92,122.0
434,G#3,43.667,13/250,92,122.0
435,E-4,43.667,13/250,92,122.0
436,F#3,43.667,13/250,92,122.0
437,E-1,44.0,557/1000,114,122.0
438,E-1,44.0,667/1000,103,122.0
439,E-1,44.0,69/250,96,122.0
440,E-2,44.0,151/1000,83,122.0
441,C2,44.0,0.031,99,122.0
442,F#2,44.0,0.031,99,122.0
443,E-3,44.333,3/25,81,122.0
444,E-2,44.667,0.188,105,122.0
445,E-2,44.667,0.188,105,122.0
446,E-2,44.667,0.188,105,122.0
447,E-2,44.667,0.031,70,122.0
448,F#2,44.667,0.031,70,122.0
449,E-1,45.0,0.203,96,122.0
450,E-1,45.0,67/125,99,122.0
451,C#3,45.0,3/25,80,122.0
452,C#4,45.0,0.031,102,122.0
453,E-2,45.0,0.031,102,122.0
454,E2,45.0,0.031,102,122.0
455,F#2,45.0,0.031,102,122.0
456,C2,45.0,0.031,102,122.0
457,F#3,45.0,0.031,102,122.0
458,C#2,45.333,0.062,93,122.0
459,E-2,45.333,0.062,93,122.0
460,E-2,45.333,0.062,93,122.0
461,F#2,45.667,0.031,52,122.0
462,E-2,45.667,27/200,91,122.0
463,E-2,45.667,27/200,91,122.0
464,C#4,45.667,27/200,91,122.0
465,E-3,45.667,27/200,91,122.0
466,E-1,46.0,167/1000,88,122.0
467,E-2,46.0,0.031,93,122.0
468,C2,46.0,0.031,93,122.0
469,F#2,46.0,0.031,93,122.0
470,C#2,46.333,23/200,94,122.0
471,C#2,46.333,23/200,94,122.0
472,C#4,46.333,23/200,94,122.0
473,F#4,46.333,23/200,94,122.0
474,C#3,46.333,23/200,94,122.0
475,B-2,46.667,0.031,73,122.0
476,B-1,46.667,99/1000,94,122.0
477,C#1,46.667,99/1000,94,122.0
478,E-2,46.667,99/1000,94,122.0
479,E-2,46.667,99/1000,94,122.0
480,C#2,47.0,0.641,110,122.0
481,C#2,47.0,6/25,102,122.0
482,C#3,47.0,6/25,102,122.0
483,E-4,47.0,0.031,104,122.0
484,B-3,47.0,0.031,104,122.0
485,E-2,47.0,0.031,104,122.0
486,E2,47.0,0.031,104,122.0
487,C2,47.0,0.031,104,122.0
488,F#2,47.0,0.031,104,122.0
489,F#3,47.0,0.031,104,122.0
490,B-1,47.333,0.391,101,122.0
491,E-2,47.333,177/1000,97,122.0
492,E-2,47.333,89/1000,86,122.0
493,E-2,47.667,0.203,98,122.0
494,E-2,47.667,0.203,98,122.0
495,G#3,47.667,27/200,92,122.0
496,C#4,47.667,27/200,92,122.0
497,E-3,47.667,27/200,92,122.0
498,C2,47.667,0.031,65,122.0
499,F#2,47.667,0.031,65,122.0
500,E-1,48.0,271/500,101,122.0
501,E-2,48.0,3/25,94,122.0
502,E-1,48.0,127/200,100,122.0
503,E-1,48.0,127/200,100,122.0
504,C2,48.0,0.031,113,122.0
505,F#2,48.0,0.031,113,122.0
506,C#3,48.333,99/1000,82,122.0
507,E-2,48.667,0.219,99,122.0
508,E-2,48.667,0.219,99,122.0
509,E-2,48.667,0.219,99,122.0
510,E-3,48.667,0.031,70,122.0
511,F#2,48.667,0.031,70,122.0
512,E-1,49.0,0.641,103,122.0
513,E-1,49.0,107/500,98,122.0
514,E-4,49.0,107/500,98,122.0
515,C#4,49.0,0.031,100,122.0
516,B-3,49.0,0.031,100,122.0
517,E-2,49.0,0.031,100,122.0
518,E-2,49.0,0.031,100,122.0
519,E2,49.0,0.031,100,122.0
520,F#2,49.0,0.031,100,122.0
521,C2,49.0,0.031,100,122.0
522,F#3,49.0,0.031,100,122.0
523,C#2,49.333,23/200,92,122.0
524,E-3,49.333,23/200,92,122.0
525,E-2,49.667,0.109,93,122.0
526,E-2,49.667,0.109,93,122.0
527,C#3,49.667,0.109,93,122.0
528,E-4,49.667,0.031,80,122.0
529,B-3,49.667,0.031,80,122.0
530,G#3,49.667,0.031,80,122.0
531,C#3,49.667,0.031,80,122.0
532,F#2,49.667,0.031,80,122.0
533,F#1,50.0,151/250,97,122.0
534,F#2,50.0,0.141,95,122.0
535,F#1,50.0,0.703,100,122.0
536,F#1,50.0,0.703,100,122.0
537,F#2,50.0,0.031,102,122.0
538,C2,50.0,0.031,102,122.0
539,B-3,50.333,27/200,86,122.0
540,C#4,50.333,27/200,86,122.0
541,F#3,50.333,27/200,86,122.0
542,F#3,50.333,27/200,86,122.0
543,F#2,50.667,0.031,62,122.0
544,F#2,50.667,27/200,96,122.0
545,F#2,50.667,27/200,96,122.0
546,F#2,50.667,27/200,96,122.0
547,F#2,50.667,27/200,96,122.0
548,G#1,51.0,0.688,92,122.0
549,G#2,51.0,0.125,79,122.0
550,G#1,51.0,0.469,99,122.0
551,C4,51.0,0.469,99,122.0
552,G#3,51.0,0.469,99,122.0
553,G#1,51.0,521/1000,101,122.0
554,E-4,51.0,521/1000,101,122.0
555,E-2,51.0,0.031,112,122.0
556,E2,51.0,0.031,112,122.0
557,F#2,51.0,0.031,112,122.0
558,C2,51.0,0.031,112,122.0
559,F#3,51.0,0.031,112,122.0
560,G#2,51.333,99/500,85,122.0
561,G#3,51.333,13/100,86,122.0
562,F#2,51.667,0.031,64,122.0
563,F#2,51.667,27/200,87,122.0
564,F#2,51.667,27/200,87,122.0
565,C4,51.667,27/200,87,122.0
566,E-4,51.667,27/200,87,122.0
567,G#3,51.667,27/200,87,122.0
568,G#2,51.667,27/200,87,122.0
569,F#3,51.667,27/200,87,122.0
570,E-1,52.0,521/1000,98,122.0
571,E-2,52.0,0.125,87,122.0
572,E-1,52.0,63/100,106,122.0
573,E-1,52.0,63/100,106,122.0
574,F#2,52.0,0.031,98,122.0
575,C2,52.0,0.031,98,122.0
576,F#3,52.333,0.141,84,122.0
577,E-3,52.333,0.141,84,122.0
578,F#2,52.667,0.031,52,122.0
579,E-2,52.667,0.094,99,122.0
580,E-2,52.667,0.094,99,122.0
581,E-2,52.667,0.094,99,122.0
582,E-2,52.667,0.094,99,122.0
583,E-1,53.0,521/1000,88,122.0
584,C#3,53.0,73/500,83,122.0
585,E-1,53.0,0.031,109,122.0
586,F#3,53.0,0.031,109,122.0
587,E-2,53.0,0.031,109,122.0
588,E2,53.0,0.031,109,122.0
589,C2,53.0,0.031,109,122.0
590,F#2,53.0,0.031,109,122.0
591,F#3,53.0,0.031,109,122.0
592,E-1,53.333,26/125,95,122.0
593,E-1,53.333,23/200,98,122.0
594,E-2,53.333,23/200,98,122.0
595,B-2,53.667,0.703,104,122.0
596,B-2,53.667,349/1000,97,122.0
597,F#2,53.667,0.031,66,122.0
598,E-2,53.667,0.109,97,122.0
599,F#4,53.667,0.109,97,122.0
600,C#4,53.667,0.109,97,122.0
601,G#1,54.0,0.266,83,122.0
602,E-2,54.0,73/500,95,122.0
603,C2,54.0,0.031,111,122.0
604,C#3,54.333,0.156,82,122.0
605,B-1,54.333,0.156,82,122.0
606,B-2,54.333,0.156,82,122.0
607,B-3,54.333,0.031,93,122.0
608,E-4,54.333,0.031,93,122.0
609,F#2,54.333,0.031,93,122.0
610,E-2,54.667,0.188,104,122.0
611,B-2,54.667,0.031,93,122.0
612,E-1,54.667,0.125,100,122.0
613,C#2,54.667,0.125,100,122.0
614,A2,55.0,151/1000,100,122.0
615,C#2,55.0,651/1000,104,122.0
616,G#2,55.0,101/200,102,122.0
617,C#4,55.0,101/200,102,122.0
618,G#3,55.0,0.344,96,122.0
619,G#2,55.0,0.344,96,122.0
620,E-2,55.0,0.031,111,122.0
621,E2,55.0,0.031,111,122.0
622,F#2,55.0,0.031,111,122.0
623,C2,55.0,0.031,111,122.0
624,F#3,55.0,0.031,111,122.0
625,E-2,55.333,73/500,100,122.0
626,F#2,55.667,73/500,94,122.0
627,E-2,55.667,73/500,94,122.0
628,E-4,55.667,73/500,94,122.0
629,B-3,55.667,73/500,94,122.0
630,F#2,55.667,73/500,94,122.0
631,C2,55.667,0.031,78,122.0
632,F#2,55.667,0.031,78,122.0
633,E-1,56.0,0.516,100,122.0
634,B-3,56.0,0.516,100,122.0
635,C#4,56.0,0.516,100,122.0
636,F#4,56.0,0.516,100,122.0
637,E-1,56.0,341/500,98,122.0
638,E-1,56.0,341/500,98,122.0
639,G#3,56.0,0.141,86,122.0
640,E-2,56.0,0.141,86,122.0
641,C#3,56.0,0.031,108,122.0
642,C2,56.0,0.031,108,122.0
643,E-3,56.333,23/200,90,122.0
644,F#4,56.667,1.109,110,122.0
645,F#2,56.667,0.031,64,122.0
646,E-2,56.667,0.094,95,122.0
647,E-2,56.667,0.094,95,122.0
648,B-3,56.667,0.094,95,122.0
649,G#3,56.667,0.094,95,122.0
650,C#4,56.667,0.094,95,122.0
651,E-4,56.667,0.094,95,122.0
652,E-2,56.667,0.094,95,122.0
653,E-1,57.0,263/500,93,122.0
654,E-1,57.0,91/500,99,122.0
655,E-2,57.0,91/500,99,122.0
656,C#3,57.0,91/500,99,122.0
657,E-2,57.0,0.031,109,122.0
658,E2,57.0,0.031,109,122.0
659,F#2,57.0,0.031,109,122.0
660,C2,57.0,0.031,109,122.0
661,F#3,57.0,0.031,109,122.0
662,C#2,57.333,0.125,82,122.0
663,C#2,57.333,0.125,82,122.0
664,G#3,57.333,0.125,82,122.0
665,E-2,57.333,0.125,82,122.0
666,C#4,57.333,13/250,68,122.0
667,G#3,57.333,13/250,68,122.0
668,F#2,57.667,0.031,59,122.0
669,E-2,57.667,151/1000,86,122.0
670,E-2,57.667,151/1000,86,122.0
671,F#2,57.667,151/1000,86,122.0
672,E-3,57.667,151/1000,86,122.0
673,F#2,58.0,0.172,96,122.0
674,F#1,58.0,693/1000,110,122.0
675,F#1,58.0,693/1000,110,122.0
676,F#1,58.0,0.531,89,122.0
677,C#4,58.0,0.531,89,122.0
678,B-3,58.0,0.531,89,122.0
679,F#3,58.0,0.531,92,122.0
680,B-3,58.0,0.531,92,122.0
681,F#2,58.0,0.031,98,122.0
682,C2,58.0,0.031,98,122.0
683,F#3,58.333,13/100,83,122.0
684,F#2,58.667,0.031,62,122.0
685,F#2,58.667,0.141,83,122.0
686,F#2,58.667,0.141,83,122.0
687,F#3,58.667,0.141,83,122.0
688,F#2,58.667,0.141,83,122.0
689,F#2,58.667,0.141,83,122.0
690,G#1,59.0,229/1000,101,122.0
691,G#1,59.0,0.672,91,122.0
692,G#1,59.0,599/1000,98,122.0
693,G#2,59.0,0.156,81,122.0
694,C4,59.0,0.469,79,122.0
695,G#3,59.0,0.469,79,122.0
696,E-4,59.0,0.469,92,122.0
697,G#3,59.0,0.469,92,122.0
698,C#4,59.0,0.031,108,122.0
699,E-2,59.0,0.031,108,122.0
700,E2,59.0,0.031,108,122.0
701,F#2,59.0,0.031,108,122.0
702,C2,59.0,0.031,108,122.0
703,F#3,59.0,0.031,108,122.0
704,G#2,59.333,151/1000,89,122.0
705,G#3,59.333,151/1000,89,122.0
706,F#2,59.667,0.031,53,122.0
707,F#2,59.667,27/200,93,122.0
708,F#2,59.667,27/200,93,122.0
709,C4,59.667,27/200,93,122.0
710,E-4,59.667,27/200,93,122.0
711,G#3,59.667,27/200,93,122.0
712,G#2,59.667,27/200,93,122.0
713,F#3,59.667,27/200,93,122.0
714,E-1,60.0,557/1000,114,122.0
715,E-1,60.0,667/1000,103,122.0
716,E-1,60.0,99/250,102,122.0
717,E-2,60.0,167/1000,91,122.0
718,C2,60.0,0.031,99,122.0
719,F#2,60.0,0.031,99,122.0
720,F#3,60.333,73/500,74,122.0
721,E-3,60.333,73/500,74,122.0
722,E-2,60.667,99/1000,92,122.0
723,F#2,60.667,0.031,56,122.0
724,E-2,60.667,13/125,102,122.0
725,E-2,60.667,13/125,102,122.0
726,E-2,60.667,13/125,102,122.0
727,E-1,61.0,67/125,99,122.0
728,E-1,61.0,0.141,92,122.0
729,C#3,61.0,0.141,92,122.0
730,F#3,61.0,0.031,95,122.0
731,B-3,61.0,0.031,95,122.0
732,C#4,61.0,0.031,95,122.0
733,E-2,61.0,0.031,95,122.0
734,E2,61.0,0.031,95,122.0
735,F#2,61.0,0.031,95,122.0
736,C2,61.0,0.031,95,122.0
737,F#3,61.0,0.031,95,122.0
738,C#2,61.333,89/1000,92,122.0
739,E-2,61.333,89/1000,92,122.0
740,E-2,61.333,89/1000,81,122.0
741,E-2,61.333,89/1000,81,122.0
742,E-2,61.667,0.141,96,122.0
743,E-2,61.667,0.141,96,122.0
744,E-3,61.667,0.141,96,122.0
745,F#3,61.667,0.031,91,122.0
746,C#4,61.667,0.031,91,122.0
747,B-3,61.667,0.031,91,122.0
748,E-3,61.667,0.031,91,122.0
749,F#2,61.667,0.031,91,122.0
750,F#4,62.0,56/125,108,122.0
751,E-2,62.0,0.031,86,122.0
752,E-2,62.0,0.031,86,122.0
753,C2,62.0,0.031,86,122.0
754,F#2,62.0,0.031,86,122.0
755,B-3,62.333,13/250,70,122.0
756,C#2,62.333,13/100,89,122.0
757,C#2,62.333,13/100,89,122.0
758,C#3,62.333,13/100,89,122.0
759,G#4,62.667,1.188,112,122.0
760,B-2,62.667,0.031,73,122.0
761,B-1,62.667,0.141,92,122.0
762,C#1,62.667,0.141,92,122.0
763,E-2,62.667,0.141,92,122.0
764,E-2,62.667,0.141,92,122.0
765,C#2,63.0,0.641,110,122.0
766,E-4,63.0,0.516,96,122.0
767,B-3,63.0,99/250,98,122.0
768,C#2,63.0,193/1000,95,122.0
769,C#3,63.0,193/1000,95,122.0
770,E-2,63.0,0.031,107,122.0
771,E2,63.0,0.031,107,122.0
772,C2,63.0,0.031,107,122.0
773,F#2,63.0,0.031,107,122.0
774,F#3,63.0,0.031,107,122.0
775,B-1,63.333,0.391,101,122.0
776,E-2,63.333,3/25,87,122.0
777,E-2,63.667,0.203,98,122.0
778,E-2,63.667,0.203,98,122.0
779,G#3,63.667,3/25,93,122.0
780,C#4,63.667,3/25,93,122.0
781,E-3,63.667,3/25,93,122.0
782,C2,63.667,0.031,65,122.0
783,F#2,63.667,0.031,65,122.0
784,E-1,64.0,661/1000,104,122.0
785,E-1,64.0,271/1000,88,122.0
786,E-2,64.0,0.125,96,122.0
787,E-1,64.0,0.578,106,122.0
788,F#4,64.0,0.578,106,122.0
789,C2,64.0,0.031,113,122.0
790,F#2,64.0,0.031,113,122.0
791,E-4,64.333,3/25,82,122.0
792,B-3,64.333,3/25,82,122.0
793,C#3,64.333,3/25,82,122.0
794,E-4,64.667,0.641,107,122.0
795,F#2,64.667,0.031,66,122.0
796,E-2,64.667,13/100,98,122.0
797,E-2,64.667,13/100,98,122.0
798,E-2,64.667,13/100,98,122.0
799,E-3,64.667,13/100,98,122.0
800,E-1,65.0,0.641,103,122.0
801,E-2,65.0,73/500,101,122.0
802,E-1,65.0,49/200,106,122.0
803,B-3,65.0,49/200,106,122.0
804,E-4,65.0,49/200,106,122.0
805,E-2,65.0,0.031,112,122.0
806,E2,65.0,0.031,112,122.0
807,F#2,65.0,0.031,112,122.0
808,C2,65.0,0.031,112,122.0
809,F#3,65.0,0.031,112,122.0
810,C#2,65.333,83/1000,90,122.0
811,C#3,65.333,83/1000,90,122.0
812,F#2,65.667,0.031,59,122.0
813,E-2,65.667,0.109,88,122.0
814,E-2,65.667,0.109,88,122.0
815,E-2,65.667,0.109,88,122.0
816,E-3,65.667,0.109,88,122.0
817,F#2,66.0,27/200,92,122.0
818,F#1,66.0,0.703,100,122.0
819,F#1,66.0,0.703,100,122.0
820,F#1,66.0,0.531,101,122.0
821,B-3,66.0,0.531,101,122.0
822,F#3,66.0,0.531,101,122.0
823,C#4,66.0,0.531,101,122.0
824,F#2,66.0,0.031,102,122.0
825,C2,66.0,0.031,102,122.0
826,F#3,66.333,27/200,94,122.0
827,F#2,66.667,0.031,62,122.0
828,F#2,66.667,151/1000,90,122.0
829,F#2,66.667,151/1000,90,122.0
830,C#4,66.667,151/1000,90,122.0
831,F#3,66.667,151/1000,90,122.0
832,F#2,66.667,151/1000,90,122.0
833,F#2,66.667,151/1000,90,122.0
834,G#1,67.0,0.688,92,122.0
835,G#1,67.0,123/200,91,122.0
836,G#2,67.0,161/1000,82,122.0
837,G#1,67.0,0.469,97,122.0
838,C4,67.0,0.469,97,122.0
839,G#3,67.0,0.469,97,122.0
840,E-4,67.0,0.469,97,122.0
841,E-2,67.0,0.031,112,122.0
842,E2,67.0,0.031,112,122.0
843,F#2,67.0,0.031,112,122.0
844,C2,67.0,0.031,112,122.0
845,F#3,67.0,0.031,112,122.0
846,G#2,67.333,27/200,88,122.0
847,G#3,67.333,27/200,88,122.0
848,F#2,67.667,0.031,64,122.0
849,F#2,67.667,73/500,88,122.0
850,F#2,67.667,73/500,88,122.0
851,C4,67.667,73/500,88,122.0
852,G#3,67.667,73/500,88,122.0
853,E-4,67.667,73/500,88,122.0
854,G#2,67.667,73/500,88,122.0
855,F#3,67.667,73/500,88,122.0
856,E-1,68.0,0.281,102,122.0
857,E-2,68.0,0.156,95,122.0
858,E-1,68.0,63/100,106,122.0
859,E-1,68.0,63/100,106,122.0
860,F#2,68.0,0.031,98,122.0
861,C2,68.0,0.031,98,122.0
862,F#3,68.333,3/25,78,122.0
863,E-3,68.333,3/25,78,122.0
864,F#2,68.667,0.031,52,122.0
865,E-2,68.667,23/200,101,122.0
866,E-2,68.667,23/200,101,122.0
867,E-2,68.667,23/200,101,122.0
868,E-2,68.667,23/200,101,122.0
869,E-1,69.0,521/1000,88,122.0
870,C#3,69.0,0.156,85,122.0
871,E-1,69.0,0.031,97,122.0
872,C#4,69.0,0.031,97,122.0
873,B-3,69.0,0.031,97,122.0
874,F#3,69.0,0.031,97,122.0
875,E-2,69.0,0.031,97,122.0
876,E2,69.0,0.031,97,122.0
877,C2,69.0,0.031,97,122.0
878,F#2,69.0,0.031,97,122.0
879,F#3,69.0,0.031,97,122.0
880,E-1,69.333,0.125,90,122.0
881,E-2,69.333,0.125,90,122.0
882,E-2,69.333,0.125,90,122.0
883,B-2,69.667,0.703,104,122.0
884,E-2,69.667,73/500,94,122.0
885,E-4,69.667,73/500,94,122.0
886,G#3,69.667,73/500,94,122.0
887,E-3,69.667,73/500,94,122.0
888,C#4,69.667,0.031,90,122.0
889,E-4,69.667,0.031,90,122.0
890,B-3,69.667,0.031,90,122.0
891,G#3,69.667,0.031,90,122.0
892,F#2,69.667,0.031,90,122.0
893,G#1,70.0,0.266,83,122.0
894,E-2,70.0,99/1000,89,122.0
895,C2,70.0,0.031,111,122.0
896,C#3,70.333,0.203,76,122.0
897,B-1,70.333,0.203,76,122.0
898,C#4,70.333,0.031,86,122.0
899,B-3,70.333,0.031,86,122.0
900,G#3,70.333,0.031,86,122.0
901,B-2,70.333,0.031,86,122.0
902,F#2,70.333,0.031,86,122.0
903,B-2,70.667,0.031,93,122.0
904,E-1,70.667,13/100,96,122.0
905,C#2,70.667,13/100,96,122.0
906,E-2,70.667,13/100,96,122.0
907,E-2,70.667,13/100,96,122.0
908,G#2,71.0,0.5,93,122.0
909,C#2,71.0,651/1000,104,122.0
910,A2,71.0,99/500,108,122.0
911,C#4,71.0,99/500,108,122.0
912,G#3,71.0,99/500,108,122.0
913,B-3,71.0,99/500,108,122.0
914,G#2,71.0,99/500,108,122.0
915,E-2,71.0,0.031,111,122.0
916,E2,71.0,0.031,111,122.0
917,F#2,71.0,0.031,111,122.0
918,C2,71.0,0.031,111,122.0
919,F#3,71.0,0.031,111,122.0
920,E-2,71.333,99/1000,85,122.0
921,B-3,71.333,99/500,52,122.0
922,C#4,71.333,99/500,52,122.0
923,F#2,71.667,73/500,92,122.0
924,E-2,71.667,73/500,92,122.0
925,E-4,71.667,73/500,92,122.0
926,G#3,71.667,73/500,92,122.0
927,F#2,71.667,73/500,92,122.0
928,B-3,71.667,0.031,85,122.0
929,E-4,71.667,0.031,85,122.0
930,C2,71.667,0.031,85,122.0
931,F#2,71.667,0.031,85,122.0
932,E-1,72.0,341/500,110,122.0
933,E-1,72.0,307/1000,88,122.0
934,E-2,72.0,27/200,98,122.0
935,E-1,72.0,0.484,114,122.0
936,F#4,72.0,0.484,114,122.0
937,C#3,72.0,0.031,108,122.0
938,C2,72.0,0.031,108,122.0
939,E-3,72.333,0.141,98,122.0
940,E-4,72.667,69/250,113,122.0
941,F#2,72.667,0.031,64,122.0
942,E-2,72.667,23/200,98,122.0
943,E-2,72.667,23/200,98,122.0
944,E-2,72.667,23/200,98,122.0
945,E-2,72.667,23/200,98,122.0
946,E-1,73.0,263/500,93,122.0
947,F#4,73.0,0.844,112,122.0
948,E-1,73.0,161/1000,100,122.0
949,E-4,73.0,161/1000,100,122.0
950,G#3,73.0,161/1000,100,122.0
951,C#3,73.0,161/1000,100,122.0
952,B-3,73.0,0.031,107,122.0
953,C#4,73.0,0.031,107,122.0
954,E-2,73.0,0.031,107,122.0
955,E2,73.0,0.031,107,122.0
956,F#2,73.0,0.031,107,122.0
957,C2,73.0,0.031,107,122.0
958,F#3,73.0,0.031,107,122.0
959,C#2,73.333,13/100,86,122.0
960,C#2,73.333,13/100,86,122.0
961,E-2,73.333,13/100,86,122.0
962,E-2,73.667,27/200,89,122.0
963,E-2,73.667,27/200,89,122.0
964,E-4,73.667,27/200,89,122.0
965,G#3,73.667,27/200,89,122.0
966,E-3,73.667,27/200,89,122.0
967,C#4,73.667,0.031,81,122.0
968,B-3,73.667,0.031,81,122.0
969,E-4,73.667,0.031,81,122.0
970,G#3,73.667,0.031,81,122.0
971,F#2,73.667,0.031,81,122.0
972,F#2,74.0,0.141,91,122.0
973,F#1,74.0,0.672,102,122.0
974,F#1,74.0,0.672,102,122.0
975,F#1,74.0,0.672,102,122.0
976,F#2,74.0,0.672,102,122.0
977,F#3,74.0,0.469,95,122.0
978,B-3,74.0,0.469,95,122.0
979,C#4,74.0,0.469,95,122.0
980,F#2,74.0,0.031,98,122.0
981,C2,74.0,0.031,98,122.0
982,F#3,74.333,3/25,100,122.0
983,F#2,74.667,0.031,62,122.0
984,F#2,74.667,13/100,86,122.0
985,F#2,74.667,13/100,86,122.0
986,F#3,74.667,13/100,86,122.0
987,B-3,74.667,13/100,86,122.0
988,C#4,74.667,13/100,86,122.0
989,F#2,74.667,13/100,86,122.0
990,G#1,75.0,229/1000,101,122.0
991,G#1,75.0,0.672,91,122.0
992,G#2,75.0,73/500,79,122.0
993,C4,75.0,521/1000,98,122.0
994,G#2,75.0,521/1000,98,122.0
995,G#1,75.0,521/1000,98,122.0
996,G#3,75.0,521/1000,98,122.0
997,E-4,75.0,521/1000,98,122.0
998,E-2,75.0,0.031,110,122.0
999,E2,75.0,0.031,110,122.0
1000,F#2,75.0,0.031,110,122.0
1001,C2,75.0,0.031,110,122.0
1002,F#3,75.0,0.031,110,122.0
1003,G#2,75.333,0.203,91,122.0
1004,G#3,75.333,99/1000,76,122.0
1005,F#2,75.667,0.031,53,122.0
1006,F#2,75.667,73/500,98,122.0
1007,F#2,75.667,73/500,98,122.0
1008,G#3,75.667,73/500,98,122.0
1009,E-4,75.667,73/500,98,122.0
1010,C4,75.667,0.094,94,122.0
1011,G#3,75.667,0.094,94,122.0
1012,E-4,75.667,0.094,94,122.0
1013,F#3,75.667,0.094,94,122.0
1014,E-1,76.0,557/1000,114,122.0
1015,E-1,76.0,667/1000,103,122.0
1016,E-1,76.0,69/250,96,122.0
1017,E-2,76.0,193/1000,87,122.0
1018,C2,76.0,0.031,99,122.0
1019,F#2,76.0,0.031,99,122.0
1020,E-3,76.333,73/500,97,122.0
1021,F#2,76.667,0.031,56,122.0
1022,E-2,76.667,3/25,102,122.0
1023,E-2,76.667,3/25,102,122.0
1024,E-2,76.667,3/25,102,122.0
1025,E-2,76.667,3/25,102,122.0
1026,E-1,77.0,67/125,99,122.0
1027,E-1,77.0,73/500,92,122.0
1028,C#3,77.0,73/500,92,122.0
1029,C#4,77.0,0.031,102,122.0
1030,E-2,77.0,0.031,102,122.0
1031,E2,77.0,0.031,102,122.0
1032,F#2,77.0,0.031,102,122.0
1033,C2,77.0,0.031,102,122.0
1034,F#3,77.0,0.031,102,122.0
1035,C#2,77.333,89/1000,98,122.0
1036,E-2,77.333,89/1000,98,122.0
1037,E-2,77.333,89/1000,98,122.0
1038,F#2,77.667,0.031,52,122.0
1039,E-2,77.667,13/100,97,122.0
1040,E-2,77.667,13/100,97,122.0
1041,C#4,77.667,13/100,97,122.0
1042,E-3,77.667,13/100,97,122.0
1043,E-1,78.0,167/1000,88,122.0
1044,F#4,78.0,99/250,105,122.0
1045,E-2,78.0,0.031,94,122.0
1046,C2,78.0,0.031,94,122.0
1047,F#2,78.0,0.031,94,122.0
1048,C#2,78.333,13/100,100,122.0
1049,C#2,78.333,13/100,100,122.0
1050,C#4,78.333,13/100,100,122.0
1051,F#4,78.333,13/100,100,122.0
1052,B-2,78.333,13/100,100,122.0
1053,G#4,78.667,1.234,102,122.0
1054,B-2,78.667,0.031,73,122.0
1055,B-1,78.667,3/25,97,122.0
1056,C#1,78.667,3/25,97,122.0
1057,E-2,78.667,3/25,97,122.0
1058,E-2,78.667,3/25,97,122.0
1059,C#2,79.0,0.641,110,122.0
1060,C#2,79.0,167/1000,98,122.0
1061,C#3,79.0,167/1000,98,122.0
1062,E-4,79.0,0.031,104,122.0
1063,B-3,79.0,0.031,104,122.0
1064,E-2,79.0,0.031,104,122.0
1065,E2,79.0,0.031,104,122.0
1066,C2,79.0,0.031,104,122.0
1067,F#2,79.0,0.031,104,122.0
1068,F#3,79.0,0.031,104,122.0
1069,B-1,79.333,0.391,101,122.0
1070,E-2,79.333,177/1000,97,122.0
1071,E-2,79.333,89/1000,84,122.0
1072,E-2,79.667,0.203,98,122.0
1073,E-2,79.667,0.203,98,122.0
1074,G#3,79.667,0.156,97,122.0
1075,C#4,79.667,0.156,97,122.0
1076,E-3,79.667,0.156,97,122.0
1077,C2,79.667,0.031,65,122.0
1078,F#2,79.667,0.031,65,122.0
1079,E-2,80.0,27/200,98,122.0
1080,E-1,80.0,583/1000,104,122.0
1081,F#4,80.0,583/1000,104,122.0
1082,E-1,80.0,127/200,100,122.0
1083,E-1,80.0,127/200,100,122.0
1084,C2,80.0,0.031,113,122.0
1085,F#2,80.0,0.031,113,122.0
1086,E-3,80.333,0.141,96,122.0
1087,E-4,80.667,0.672,110,122.0
1088,F#2,80.667,0.031,66,122.0
1089,E-2,80.667,23/200,97,122.0
1090,E-2,80.667,23/200,97,122.0
1091,E-2,80.667,23/200,97,122.0
1092,E-2,80.667,23/200,97,122.0
1093,E-1,81.0,0.641,103,122.0
1094,C#3,81.0,151/1000,95,122.0
1095,E-1,81.0,107/500,98,122.0
1096,E-4,81.0,107/500,98,122.0
1097,C#4,81.0,0.031,101,122.0
1098,B-3,81.0,0.031,101,122.0
1099,E-2,81.0,0.031,101,122.0
1100,E2,81.0,0.031,101,122.0
1101,F#2,81.0,0.031,101,122.0
1102,C2,81.0,0.031,101,122.0
1103,F#3,81.0,0.031,101,122.0
1104,C#2,81.333,161/1000,94,122.0
1105,C#4,81.333,161/1000,94,122.0
1106,E-3,81.333,161/1000,94,122.0
1107,E-2,81.667,0.156,95,122.0
1108,E-2,81.667,0.156,95,122.0
1109,B-3,81.667,0.156,95,122.0
1110,E-2,81.667,0.156,95,122.0
1111,E-4,81.667,0.031,78,122.0
1112,B-3,81.667,0.031,78,122.0
1113,G#3,81.667,0.031,78,122.0
1114,F#2,81.667,0.031,78,122.0
1115,F#1,82.0,151/250,97,122.0
1116,F#2,82.0,0.172,89,122.0
1117,F#1,82.0,0.703,100,122.0
1118,F#1,82.0,0.703,100,122.0
1119,F#2,82.0,0.031,102,122.0
1120,C2,82.0,0.031,102,122.0
1121,B-3,82.333,0.156,91,122.0
1122,C#4,82.333,0.156,91,122.0
1123,F#3,82.333,0.156,91,122.0
1124,F#3,82.333,0.156,91,122.0
1125,F#2,82.667,0.031,62,122.0
1126,F#2,82.667,0.156,99,122.0
1127,F#2,82.667,0.156,99,122.0
1128,F#2,82.667,0.156,99,122.0
1129,F#2,82.667,0.156,99,122.0
1130,G#1,83.0,0.688,92,122.0
1131,G#2,83.0,0.141,77,122.0
1132,G#1,83.0,0.469,99,122.0
1133,C4,83.0,0.469,99,122.0
1134,G#3,83.0,0.469,99,122.0
1135,G#1,83.0,521/1000,101,122.0
1136,E-4,83.0,521/1000,101,122.0
1137,E-2,83.0,0.031,112,122.0
1138,E2,83.0,0.031,112,122.0
1139,F#2,83.0,0.031,112,122.0
1140,C2,83.0,0.031,112,122.0
1141,F#3,83.0,0.031,112,122.0
1142,G#2,83.333,0.141,88,122.0
1143,G#3,83.333,0.141,88,122.0
1144,F#2,83.667,0.031,64,122.0
1145,F#2,83.667,0.141,87,122.0
1146,F#2,83.667,0.141,87,122.0
1147,C4,83.667,0.141,87,122.0
1148,E-4,83.667,0.141,87,122.0
1149,G#3,83.667,0.141,87,122.0
1150,G#2,83.667,0.141,87,122.0
1151,F#3,83.667,0.141,87,122.0
1152,E-1,84.0,521/1000,98,122.0
1153,E-2,84.0,73/500,101,122.0
1154,E-1,84.0,63/100,106,122.0
1155,E-1,84.0,63/100,106,122.0
1156,F#2,84.0,0.031,98,122.0
1157,C2,84.0,0.031,98,122.0
1158,F#3,84.333,27/200,90,122.0
1159,E-3,84.333,27/200,90,122.0
1160,F#2,84.667,0.031,52,122.0
1161,E-2,84.667,151/1000,100,122.0
1162,E-2,84.667,151/1000,100,122.0
1163,E-2,84.667,151/1000,100,122.0
1164,E-2,84.667,151/1000,100,122.0
1165,E-1,85.0,521/1000,88,122.0
1166,C#3,85.0,167/1000,89,122.0
1167,E-1,85.0,0.031,109,122.0
1168,F#3,85.0,0.031,109,122.0
1169,E-2,85.0,0.031,109,122.0
1170,E2,85.0,0.031,109,122.0
1171,C2,85.0,0.031,109,122.0
1172,F#2,85.0,0.031,109,122.0
1173,F#3,85.0,0.031,109,122.0
1174,E-1,85.333,26/125,95,122.0
1175,E-1,85.333,23/200,98,122.0
1176,E-2,85.333,23/200,98,122.0
1177,B-2,85.667,0.703,104,122.0
1178,F#2,85.667,0.031,66,122.0
1179,E-2,85.667,167/1000,96,122.0
1180,F#4,85.667,167/1000,96,122.0
1181,C#4,85.667,167/1000,96,122.0
1182,E-3,85.667,167/1000,96,122.0
1183,G#1,86.0,0.266,83,122.0
1184,C2,86.0,0.031,111,122.0
1185,E-2,86.0,27/200,91,122.0
1186,E-2,86.0,27/200,91,122.0
1187,C#3,86.333,151/1000,83,122.0
1188,B-1,86.333,151/1000,83,122.0
1189,E-3,86.333,151/1000,83,122.0
1190,B-3,86.333,0.031,93,122.0
1191,E-4,86.333,0.031,93,122.0
1192,F#2,86.333,0.031,93,122.0
1193,B-2,86.667,0.031,93,122.0
1194,E-1,86.667,0.156,98,122.0
1195,C#2,86.667,0.156,98,122.0
1196,E-2,86.667,0.156,98,122.0
1197,E-2,86.667,0.156,100,122.0
1198,E-2,86.667,0.156,100,122.0
1199,C#2,87.0,651/1000,104,122.0
1200,G#3,87.0,37/100,104,122.0
1201,A2,87.0,91/500,94,122.0
1202,C#3,87.0,91/500,94,122.0
1203,G#2,87.0,101/200,102,122.0
1204,C#4,87.0,101/200,102,122.0
1205,E-2,87.0,0.031,111,122.0
1206,E2,87.0,0.031,111,122.0
1207,F#2,87.0,0.031,111,122.0
1208,C2,87.0,0.031,111,122.0
1209,F#3,87.0,0.031,111,122.0
1210,E-2,87.333,0.156,94,122.0
1211,E-2,87.333,0.156,94,122.0
1212,G4,87.667,333/1000,116,122.0
1213,F#2,87.667,0.141,93,122.0
1214,E-2,87.667,0.141,93,122.0
1215,E-4,87.667,0.141,93,122.0
1216,B-3,87.667,0.141,93,122.0
1217,E-3,87.667,0.141,93,122.0
1218,C2,87.667,0.031,78,122.0
1219,F#2,87.667,0.031,78,122.0
1220,F2,88.0,667/1000,106,122.0
1221,F2,88.0,0.188,92,122.0
1222,F1,88.0,67/125,112,122.0
1223,F1,88.0,67/125,112,122.0
1224,A3,88.0,67/125,112,122.0
1225,E-3,88.0,67/125,112,122.0
1226,C#3,88.0,0.031,108,122.0
1227,C2,88.0,0.031,108,122.0
1228,F3,88.333,73/500,96,122.0
1229,F#2,88.667,0.031,64,122.0
1230,F2,88.667,3/25,105,122.0
1231,F2,88.667,3/25,105,122.0
1232,E-3,88.667,3/25,105,122.0
1233,A3,88.667,3/25,105,122.0
1234,F2,88.667,3/25,105,122.0
1235,F1,89.0,0.547,118,122.0
1236,E-4,89.0,149/200,117,122.0
1237,F1,89.0,0.172,104,122.0
1238,F2,89.0,0.172,104,122.0
1239,F2,89.0,0.172,104,122.0
1240,E-2,89.0,0.031,109,122.0
1241,E2,89.0,0.031,109,122.0
1242,F#2,89.0,0.031,109,122.0
1243,C2,89.0,0.031,109,122.0
1244,F#3,89.0,0.031,109,122.0
1245,E-3,89.333,13/250,66,122.0
1246,E-2,89.333,0.156,107,122.0
1247,F3,89.333,0.156,107,122.0
1248,F#2,89.667,0.031,59,122.0
1249,F2,89.667,161/1000,97,122.0
1250,F2,89.667,161/1000,97,122.0
1251,F2,89.667,161/1000,97,122.0
1252,F2,89.667,161/1000,97,122.0
1253,G#1,90.0,49/100,109,122.0
1254,G#1,90.0,49/100,109,122.0
1255,G#2,90.0,49/100,109,122.0
1256,F4,90.0,161/1000,98,122.0
1257,G#2,90.0,161/1000,98,122.0
1258,F#2,90.0,0.031,98,122.0
1259,C2,90.0,0.031,98,122.0
1260,G#3,90.333,167/1000,100,122.0
1261,F#2,90.667,0.031,62,122.0
1262,G#2,90.667,0.125,103,122.0
1263,G#2,90.667,0.125,103,122.0
1264,G#2,90.667,0.125,103,122.0
1265,B-2,91.0,6/25,110,122.0
1266,B-2,91.0,167/1000,89,122.0
1267,B-1,91.0,69/250,116,122.0
1268,B-1,91.0,69/250,116,122.0
1269,E-2,91.0,0.031,110,122.0
1270,E2,91.0,0.031,110,122.0
1271,F#2,91.0,0.031,110,122.0
1272,C2,91.0,0.031,110,122.0
1273,F#3,91.0,0.031,110,122.0
1274,B-2,91.333,73/500,103,122.0
1275,B-2,91.333,73/500,103,122.0
1276,B-3,91.333,73/500,103,122.0
1277,E-3,91.333,73/500,88,122.0
1278,B-3,91.333,73/500,88,122.0
1279,F#2,91.667,0.031,53,122.0
1280,G#2,91.667,0.156,96,122.0
1281,G#2,91.667,0.156,96,122.0
1282,F2,91.667,0.156,96,122.0
1283,G#3,91.667,0.156,96,122.0
1284,F2,92.0,589/1000,106,122.0
1285,F2,92.0,26/125,98,122.0
1286,F1,92.0,263/500,111,122.0
1287,F1,92.0,263/500,111,122.0
1288,C2,92.0,0.031,99,122.0
1289,F#2,92.0,0.031,99,122.0
1290,F3,92.333,0.156,90,122.0
1291,F#2,92.667,0.031,56,122.0
1292,F2,92.667,13/100,94,122.0
1293,F2,92.667,13/100,94,122.0
1294,A3,92.667,13/100,94,122.0
1295,E-3,92.667,13/100,94,122.0
1296,F2,92.667,13/100,94,122.0
1297,F1,93.0,0.547,90,122.0
1298,F2,93.0,26/125,99,122.0
1299,F1,93.0,27/200,100,122.0
1300,E-3,93.0,27/200,100,122.0
1301,E-2,93.0,0.031,108,122.0
1302,E2,93.0,0.031,108,122.0
1303,F#2,93.0,0.031,108,122.0
1304,C2,93.0,0.031,108,122.0
1305,F#3,93.0,0.031,108,122.0
1306,E-2,93.333,0.109,75,122.0
1307,A3,93.333,0.109,75,122.0
1308,E-3,93.333,0.109,75,122.0
1309,F2,93.333,0.109,75,122.0
1310,F#2,93.667,0.031,52,122.0
1311,F2,93.667,91/500,93,122.0
1312,F2,93.667,91/500,93,122.0
1313,F2,93.667,91/500,93,122.0
1314,F3,93.667,91/500,93,122.0
1315,F2,94.0,181/250,106,122.0
1316,F1,94.0,0.156,95,122.0
1317,F2,94.0,0.156,95,122.0
1318,E-3,94.0,479/1000,103,122.0
1319,F#4,94.0,479/1000,103,122.0
1320,A3,94.0,479/1000,103,122.0
1321,F#4,94.0,479/1000,103,122.0
1322,C2,94.0,0.031,96,122.0
1323,F#2,94.0,0.031,96,122.0
1324,F2,94.333,0.156,93,122.0
1325,F2,94.333,0.156,93,122.0
1326,F3,94.333,0.156,93,122.0
1327,B-2,94.667,0.031,73,122.0
1328,F2,94.667,13/100,91,122.0
1329,A3,94.667,13/100,91,122.0
1330,E-3,94.667,13/100,91,122.0
1331,F2,94.667,13/100,91,122.0
1332,G#4,94.682,591/500,110,122.0
1333,G1,95.0,177/500,123,122.0
1334,G2,95.0,99/125,123,122.0
1335,G2,95.0,193/1000,96,122.0
1336,G1,95.0,69/125,112,122.0
1337,F3,95.0,69/125,112,122.0
1338,B3,95.0,69/125,112,122.0
1339,B-3,95.0,0.031,102,122.0
1340,E-2,95.0,0.031,102,122.0
1341,E2,95.0,0.031,102,122.0
1342,C2,95.0,0.031,102,122.0
1343,F#2,95.0,0.031,102,122.0
1344,F#3,95.0,0.031,102,122.0
1345,G2,95.333,151/1000,96,122.0
1346,G3,95.333,151/1000,96,122.0
1347,G1,95.667,0.031,70,122.0
1348,C2,95.667,0.031,70,122.0
1349,F#2,95.667,0.031,70,122.0
1350,G2,95.667,167/1000,96,122.0
1351,F3,95.667,167/1000,96,122.0
1352,B3,95.667,167/1000,96,122.0
1353,G2,95.667,167/1000,96,122.0
1354,G#1,96.0,0.547,117,122.0
1355,G#2,96.0,167/1000,97,122.0
1356,G#1,96.0,443/1000,112,122.0
1357,G#2,96.0,443/1000,112,122.0
1358,C2,96.0,0.031,113,122.0
1359,F#2,96.0,0.031,113,122.0
1360,F#4,96.062,443/1000,107,122.0
1361,C4,96.333,57/1000,62,122.0
1362,F#3,96.333,177/1000,86,122.0
1363,G#3,96.333,177/1000,86,122.0
1364,E-4,96.646,677/1000,101,122.0
1365,G#2,96.667,28/125,98,122.0
1366,F#2,96.667,0.031,66,122.0
1367,G#2,96.667,0.125,100,122.0
1368,G#2,96.667,0.125,100,122.0
1369,F#3,96.667,0.125,100,122.0
1370,G#1,97.0,0.469,119,122.0
1371,G#1,97.0,13/100,107,122.0
1372,F#3,97.0,13/100,107,122.0
1373,G#2,97.0,13/100,107,122.0
1374,C4,97.0,0.188,107,122.0
1375,F#3,97.0,0.188,107,122.0
1376,E-2,97.0,0.031,112,122.0
1377,E2,97.0,0.031,112,122.0
1378,F#2,97.0,0.031,112,122.0
1379,C2,97.0,0.031,112,122.0
1380,F#3,97.0,0.031,112,122.0
1381,F#2,97.333,73/500,91,122.0
1382,F#3,97.333,73/500,91,122.0
1383,C#4,97.333,73/500,91,122.0
1384,B-3,97.521,0.203,92,122.0
1385,F#2,97.667,0.031,59,122.0
1386,G#2,97.667,0.141,104,122.0
1387,G#2,97.667,0.141,104,122.0
1388,F#3,97.667,0.141,104,122.0
1389,C4,97.667,0.141,104,122.0
1390,G#3,97.667,0.141,104,122.0
1391,G#3,97.714,73/200,98,122.0
1392,G#1,98.0,0.266,121,122.0
1393,G#1,98.0,69/125,115,122.0
1394,G#2,98.0,73/500,84,122.0
1395,G#2,98.0,73/500,84,122.0
1396,F#2,98.0,0.031,102,122.0
1397,C2,98.0,0.031,102,122.0
1398,F#3,98.333,99/1000,87,122.0
1399,F#2,98.667,0.031,62,122.0
1400,G#2,98.667,27/200,95,122.0
1401,G#2,98.667,27/200,95,122.0
1402,G#2,98.667,27/200,95,122.0
1403,G#3,98.667,27/200,95,122.0
1404,G#2,99.0,73/500,98,122.0
1405,G#1,99.0,177/1000,108,122.0
1406,G#1,99.0,177/1000,108,122.0
1407,C4,99.0,177/250,108,122.0
1408,F#3,99.0,177/250,108,122.0
1409,E-2,99.0,0.031,112,122.0
1410,E2,99.0,0.031,112,122.0
1411,F#2,99.0,0.031,112,122.0
1412,C2,99.0,0.031,112,122.0
1413,F#3,99.0,0.031,112,122.0
1414,F#3,99.333,13/250,57,122.0
1415,G#2,99.333,0.141,97,122.0
1416,G#2,99.333,0.141,97,122.0
1417,G#2,99.667,3/25,96,122.0
1418,F#2,99.667,0.031,64,122.0
1419,G#1,99.667,91/500,95,122.0
1420,G#1,99.667,91/500,95,122.0
1421,G#2,99.667,91/500,95,122.0
1422,C#3,100.0,0.594,104,122.0
1423,C#3,100.0,151/1000,97,122.0
1424,C#2,100.0,263/500,102,122.0
1425,C#2,100.0,263/500,102,122.0
1426,F#3,100.0,263/500,102,122.0
1427,B3,100.0,263/500,102,122.0
1428,F#2,100.0,0.031,98,122.0
1429,C2,100.0,0.031,98,122.0
1430,F#3,100.333,0.141,88,122.0
1431,F#2,100.667,0.031,52,122.0
1432,C#3,100.667,0.094,94,122.0
1433,C#3,100.667,0.094,94,122.0
1434,C#4,100.667,0.094,94,122.0
1435,F#3,100.667,0.094,94,122.0
1436,B3,100.667,0.094,94,122.0
1437,C#3,100.667,0.094,94,122.0
1438,C#4,100.698,0.188,115,122.0
1439,C#2,101.0,0.453,104,122.0
1440,C#2,101.0,73/500,104,122.0
1441,F#3,101.0,73/500,104,122.0
1442,C#3,101.0,0.031,104,122.0
1443,E-2,101.0,0.031,104,122.0
1444,E2,101.0,0.031,104,122.0
1445,C2,101.0,0.031,104,122.0
1446,F#2,101.0,0.031,104,122.0
1447,F#3,101.0,0.031,104,122.0
1448,E-4,101.031,26/125,110,122.0
1449,C#3,101.333,0.062,54,122.0
1450,C#3,101.333,3/25,83,122.0
1451,B3,101.333,3/25,83,122.0
1452,F#3,101.333,3/25,83,122.0
1453,C#4,101.333,3/25,83,122.0
1454,G#4,101.667,901/1000,108,122.0
1455,C#3,101.667,0.031,74,122.0
1456,F#2,101.667,0.031,74,122.0
1457,C#3,101.667,177/1000,101,122.0
1458,C#3,101.667,177/1000,101,122.0
1459,F#3,101.667,177/1000,101,122.0
1460,C#2,102.0,193/1000,123,122.0
1461,C#3,102.0,0.109,74,122.0
1462,C2,102.0,0.031,111,122.0
1463,B3,102.0,0.594,114,122.0
1464,F#3,102.0,0.594,114,122.0
1465,C#4,102.0,0.594,114,122.0
1466,F#2,102.333,0.031,73,122.0
1467,C#3,102.333,151/1000,107,122.0
1468,C#3,102.333,151/1000,107,122.0
1469,E-3,102.333,151/1000,107,122.0
1470,B-2,102.667,0.031,93,122.0
1471,C#2,102.667,99/1000,89,122.0
1472,F#3,102.667,99/1000,89,122.0
1473,B3,102.667,99/1000,89,122.0
1474,C#4,102.667,99/1000,89,122.0
1475,C#3,102.667,99/1000,89,122.0
1476,F#4,102.682,161/1000,107,122.0
1477,C#3,103.0,0.406,115,122.0
1478,C#3,103.0,27/200,98,122.0
1479,C#3,103.0,573/1000,103,122.0
1480,C#3,103.0,573/1000,103,122.0
1481,E-4,103.0,573/1000,103,122.0
1482,E-2,103.0,0.031,111,122.0
1483,E2,103.0,0.031,111,122.0
1484,F#2,103.0,0.031,111,122.0
1485,C2,103.0,0.031,111,122.0
1486,F#3,103.0,0.031,111,122.0
1487,B3,103.333,151/1000,92,122.0
1488,F#3,103.333,151/1000,92,122.0
1489,C#4,103.333,151/1000,92,122.0
1490,E-3,103.667,0.125,100,122.0
1491,E-3,103.667,0.125,100,122.0
1492,E-4,103.667,0.125,100,122.0
1493,E-3,103.667,0.125,100,122.0
1494,C#4,103.667,0.125,100,122.0
1495,C2,103.667,0.031,78,122.0
1496,F#2,103.667,0.031,78,122.0
1497,E-1,104.0,67/125,119,122.0
1498,E-1,104.0,307/1000,88,122.0
1499,E-2,104.0,13/100,89,122.0
1500,E-1,104.0,0.625,110,122.0
1501,E-4,104.0,0.625,110,122.0
1502,C#3,104.0,0.031,108,122.0
1503,C2,104.0,0.031,108,122.0
1504,E-3,104.333,167/1000,95,122.0
1505,F#2,104.667,0.031,64,122.0
1506,E-2,104.667,151/1000,102,122.0
1507,E-2,104.667,151/1000,102,122.0
1508,E-2,104.667,151/1000,102,122.0
1509,E-2,104.667,151/1000,102,122.0
1510,E-1,105.0,263/500,93,122.0
1511,E-1,105.0,13/100,98,122.0
1512,E-4,105.0,13/100,98,122.0
1513,G#3,105.0,13/100,98,122.0
1514,C#3,105.0,13/100,98,122.0
1515,B-3,105.0,0.031,107,122.0
1516,C#4,105.0,0.031,107,122.0
1517,E-2,105.0,0.031,107,122.0
1518,E2,105.0,0.031,107,122.0
1519,F#2,105.0,0.031,107,122.0
1520,C2,105.0,0.031,107,122.0
1521,F#3,105.0,0.031,107,122.0
1522,C#2,105.333,0.156,88,122.0
1523,C#2,105.333,0.156,88,122.0
1524,E-3,105.333,0.156,88,122.0
1525,E-2,105.667,0.172,90,122.0
1526,E-2,105.667,0.172,90,122.0
1527,E-4,105.667,0.172,90,122.0
1528,G#3,105.667,0.172,90,122.0
1529,E-2,105.667,0.172,90,122.0
1530,C#4,105.667,0.031,81,122.0
1531,B-3,105.667,0.031,81,122.0
1532,E-4,105.667,0.031,81,122.0
1533,G#3,105.667,0.031,81,122.0
1534,F#2,105.667,0.031,81,122.0
1535,F#2,106.0,91/500,95,122.0
1536,F#1,106.0,0.672,102,122.0
1537,F#1,106.0,0.672,102,122.0
1538,F#1,106.0,0.672,102,122.0
1539,F#2,106.0,0.672,102,122.0
1540,F#3,106.0,0.469,95,122.0
1541,B-3,106.0,0.469,95,122.0
1542,C#4,106.0,0.469,95,122.0
1543,F#2,106.0,0.031,98,122.0
1544,C2,106.0,0.031,98,122.0
1545,F#3,106.333,0.125,104,122.0
1546,F#2,106.667,0.031,62,122.0
1547,F#2,106.667,167/1000,87,122.0
1548,F#2,106.667,167/1000,87,122.0
1549,F#3,106.667,167/1000,87,122.0
1550,B-3,106.667,167/1000,87,122.0
1551,C#4,106.667,167/1000,87,122.0
1552,F#2,106.667,167/1000,87,122.0
1553,G#1,107.0,0.672,91,122.0
1554,G#1,107.0,177/1000,90,122.0
1555,G#2,107.0,177/1000,90,122.0
1556,C4,107.0,521/1000,98,122.0
1557,G#2,107.0,521/1000,98,122.0
1558,G#1,107.0,521/1000,98,122.0
1559,G#3,107.0,521/1000,98,122.0
1560,E-4,107.0,521/1000,98,122.0
1561,E-2,107.0,0.031,110,122.0
1562,E2,107.0,0.031,110,122.0
1563,F#2,107.0,0.031,110,122.0
1564,C2,107.0,0.031,110,122.0
1565,F#3,107.0,0.031,110,122.0
1566,G#2,107.333,0.203,91,122.0
1567,G#3,107.333,13/100,88,122.0
1568,F#2,107.667,0.031,53,122.0
1569,F#2,107.667,13/100,97,122.0
1570,F#2,107.667,13/100,97,122.0
1571,G#3,107.667,13/100,97,122.0
1572,E-4,107.667,13/100,97,122.0
1573,F#3,107.667,13/100,97,122.0
1574,C4,107.667,13/100,101,122.0
1575,G#3,107.667,13/100,101,122.0
1576,E-4,107.667,13/100,101,122.0
1577,F#3,107.667,13/100,101,122.0
1578,E-1,108.0,557/1000,114,122.0
1579,E-1,108.0,667/1000,103,122.0
1580,E-1,108.0,69/250,96,122.0
1581,E-2,108.0,0.172,96,122.0
1582,C2,108.0,0.031,99,122.0
1583,F#2,108.0,0.031,99,122.0
1584,E-3,108.333,0.109,89,122.0
1585,F#2,108.667,0.031,56,122.0
1586,E-2,108.667,0.125,104,122.0
1587,E-2,108.667,0.125,104,122.0
1588,E-2,108.667,0.125,104,122.0
1589,E-2,108.667,0.125,104,122.0
1590,E-1,109.0,67/125,99,122.0
1591,E-1,109.0,161/1000,100,122.0
1592,C#3,109.0,161/1000,100,122.0
1593,C#4,109.0,0.031,102,122.0
1594,E-2,109.0,0.031,102,122.0
1595,E2,109.0,0.031,102,122.0
1596,F#2,109.0,0.031,102,122.0
1597,C2,109.0,0.031,102,122.0
1598,F#3,109.0,0.031,102,122.0
1599,C#2,109.333,0.094,96,122.0
1600,E-2,109.333,0.094,96,122.0
1601,E-2,109.333,0.094,96,122.0
1602,F#2,109.667,0.031,52,122.0
1603,E-2,109.667,161/1000,100,122.0
1604,E-2,109.667,161/1000,100,122.0
1605,C#4,109.667,161/1000,100,122.0
1606,E-3,109.667,161/1000,100,122.0
1607,E-1,110.0,13/125,92,122.0
1608,E-2,110.0,13/125,92,122.0
1609,C2,110.0,0.031,96,122.0
1610,F#2,110.0,0.031,96,122.0
1611,C#2,110.333,161/1000,99,122.0
1612,C#2,110.333,161/1000,99,122.0
1613,C#4,110.333,161/1000,99,122.0
1614,F#4,110.333,161/1000,99,122.0
1615,C#3,110.333,161/1000,99,122.0
1616,B-2,110.667,0.031,73,122.0
1617,B-1,110.667,23/200,98,122.0
1618,C#1,110.667,23/200,98,122.0
1619,E-2,110.667,23/200,98,122.0
1620,E-2,110.667,23/200,98,122.0
1621,C#2,111.0,0.641,110,122.0
1622,C#2,111.0,99/500,107,122.0
1623,C#3,111.0,99/500,107,122.0
1624,E-4,111.0,0.031,104,122.0
1625,B-3,111.0,0.031,104,122.0
1626,E-2,111.0,0.031,104,122.0
1627,E2,111.0,0.031,104,122.0
1628,C2,111.0,0.031,104,122.0
1629,F#2,111.0,0.031,104,122.0
1630,F#3,111.0,0.031,104,122.0
1631,B-1,111.333,0.391,101,122.0
1632,E-2,111.333,177/1000,97,122.0
1633,E-2,111.333,13/125,82,122.0
1634,E-2,111.667,0.203,98,122.0
1635,E-2,111.667,0.203,98,122.0
1636,G#3,111.667,0.172,98,122.0
1637,C#4,111.667,0.172,98,122.0
1638,E-3,111.667,0.172,98,122.0
1639,C2,111.667,0.031,65,122.0
1640,F#2,111.667,0.031,65,122.0
1641,E-1,112.0,271/500,101,122.0
1642,E-2,112.0,0.141,98,122.0
1643,E-1,112.0,127/200,100,122.0
1644,E-1,112.0,127/200,100,122.0
1645,C2,112.0,0.031,113,122.0
1646,F#2,112.0,0.031,113,122.0
1647,E-3,112.333,0.141,92,122.0
1648,E-2,112.667,0.219,99,122.0
1649,E-2,112.667,0.219,99,122.0
1650,E-2,112.667,0.219,99,122.0
1651,E-2,112.667,0.031,72,122.0
1652,F#2,112.667,0.031,72,122.0
1653,E-1,113.0,0.641,103,122.0
1654,E-1,113.0,107/500,98,122.0
1655,E-4,113.0,107/500,98,122.0
1656,C#4,113.0,0.031,99,122.0
1657,B-3,113.0,0.031,99,122.0
1658,C#3,113.0,0.031,99,122.0
1659,E-2,113.0,0.031,99,122.0
1660,E2,113.0,0.031,99,122.0
1661,F#2,113.0,0.031,99,122.0
1662,C2,113.0,0.031,99,122.0
1663,F#3,113.0,0.031,99,122.0
1664,C#2,113.333,73/500,98,122.0
1665,E-3,113.333,73/500,98,122.0
1666,E-2,113.667,73/500,97,122.0
1667,E-2,113.667,73/500,97,122.0
1668,E-2,113.667,73/500,97,122.0
1669,E-4,113.667,0.031,78,122.0
1670,B-3,113.667,0.031,78,122.0
1671,G#3,113.667,0.031,78,122.0
1672,F#2,113.667,0.031,78,122.0
1673,F#1,114.0,151/250,97,122.0
1674,F#2,114.0,99/500,97,122.0
1675,F#1,114.0,0.703,100,122.0
1676,F#1,114.0,0.703,100,122.0
1677,F#2,114.0,0.031,102,122.0
1678,C2,114.0,0.031,102,122.0
1679,B-3,114.333,161/1000,90,122.0
1680,C#4,114.333,161/1000,90,122.0
1681,F#3,114.333,161/1000,90,122.0
1682,F#3,114.333,161/1000,90,122.0
1683,F#2,114.667,0.031,62,122.0
1684,F#2,114.667,177/1000,98,122.0
1685,F#2,114.667,177/1000,98,122.0
1686,F#2,114.667,177/1000,98,122.0
1687,F#2,114.667,177/1000,98,122.0
1688,G#1,115.0,0.688,92,122.0
1689,G#2,115.0,73/500,81,122.0
1690,G#1,115.0,0.469,99,122.0
1691,C4,115.0,0.469,99,122.0
1692,G#3,115.0,0.469,99,122.0
1693,G#1,115.0,521/1000,101,122.0
1694,E-4,115.0,521/1000,101,122.0
1695,E-2,115.0,0.031,112,122.0
1696,E2,115.0,0.031,112,122.0
1697,F#2,115.0,0.031,112,122.0
1698,C2,115.0,0.031,112,122.0
1699,F#3,115.0,0.031,112,122.0
1700,G#2,115.333,0.141,86,122.0
1701,G#3,115.333,0.141,86,122.0
1702,F#2,115.667,0.031,64,122.0
1703,F#2,115.667,0.156,87,122.0
1704,F#2,115.667,0.156,87,122.0
1705,C4,115.667,0.156,87,122.0
1706,E-4,115.667,0.156,87,122.0
1707,G#3,115.667,0.156,87,122.0
1708,G#2,115.667,0.156,87,122.0
1709,F#3,115.667,0.156,87,122.0
1710,E-1,116.0,521/1000,98,122.0
1711,E-2,116.0,73/500,101,122.0
1712,E-1,116.0,63/100,106,122.0
1713,E-1,116.0,63/100,106,122.0
1714,F#2,116.0,0.031,98,122.0
1715,C2,116.0,0.031,98,122.0
1716,F#3,116.333,0.125,90,122.0
1717,E-3,116.333,0.125,90,122.0
1718,F#2,116.667,0.031,52,122.0
1719,E-2,116.667,0.109,100,122.0
1720,E-2,116.667,0.109,100,122.0
1721,E-2,116.667,0.109,100,122.0
1722,E-2,116.667,0.109,100,122.0
1723,E-1,117.0,521/1000,88,122.0
1724,E-1,117.0,0.031,107,122.0
1725,F#3,117.0,0.031,107,122.0
1726,C#3,117.0,0.031,107,122.0
1727,E-2,117.0,0.031,107,122.0
1728,E2,117.0,0.031,107,122.0
1729,C2,117.0,0.031,107,122.0
1730,F#2,117.0,0.031,107,122.0
1731,F#3,117.0,0.031,107,122.0
1732,E-1,117.333,26/125,95,122.0
1733,E-1,117.333,0.125,102,122.0
1734,E-3,117.333,0.125,102,122.0
1735,B-2,117.667,0.703,104,122.0
1736,B-2,117.667,0.266,104,122.0
1737,F#2,117.667,0.031,66,122.0
1738,E-2,117.667,0.109,97,122.0
1739,F#4,117.667,0.109,97,122.0
1740,C#4,117.667,0.109,97,122.0
1741,G#1,118.0,0.266,83,122.0
1742,E-2,118.0,73/500,95,122.0
1743,C2,118.0,0.031,111,122.0
1744,C#3,118.333,151/1000,81,122.0
1745,B-1,118.333,151/1000,81,122.0
1746,C#3,118.333,151/1000,81,122.0
1747,B-3,118.333,0.031,93,122.0
1748,E-4,118.333,0.031,93,122.0
1749,F#2,118.333,0.031,93,122.0
1750,E-2,118.667,0.188,104,122.0
1751,B-2,118.667,0.031,93,122.0
1752,E-1,118.667,73/1000,95,122.0
1753,C#2,118.667,73/1000,95,122.0
1754,E-2,118.667,73/1000,95,122.0
1755,C#2,119.0,651/1000,104,122.0
1756,G#3,119.0,37/100,104,122.0
1757,A2,119.0,26/125,102,122.0
1758,G#2,119.0,26/125,102,122.0
1759,G#2,119.0,101/200,102,122.0
1760,C#4,119.0,101/200,102,122.0
1761,E-2,119.0,0.031,111,122.0
1762,E2,119.0,0.031,111,122.0
1763,F#2,119.0,0.031,111,122.0
1764,C2,119.0,0.031,111,122.0
1765,F#3,119.0,0.031,111,122.0
1766,E-2,119.333,0.109,100,122.0
1767,E-2,119.333,0.109,100,122.0
1768,F#2,119.667,167/1000,96,122.0
1769,E-2,119.667,167/1000,96,122.0
1770,E-4,119.667,167/1000,96,122.0
1771,B-3,119.667,167/1000,96,122.0
1772,F#2,119.667,167/1000,96,122.0
1773,C2,119.667,0.031,78,122.0
1774,F#2,119.667,0.031,78,122.0
1775,E-1,120.0,0.516,100,122.0
1776,B-3,120.0,0.516,100,122.0
1777,C#4,120.0,0.516,100,122.0
1778,F#4,120.0,0.516,100,122.0
1779,E-1,120.0,341/500,98,122.0
1780,E-1,120.0,341/500,98,122.0
1781,G#3,120.0,0.141,86,122.0
1782,E-2,120.0,0.141,86,122.0
1783,C#3,120.0,0.031,108,122.0
1784,C2,120.0,0.031,108,122.0
1785,E-3,120.333,23/200,90,122.0
1786,F#4,120.667,1.109,110,122.0
1787,F#2,120.667,0.031,64,122.0
1788,E-2,120.667,0.094,95,122.0
1789,E-2,120.667,0.094,95,122.0
1790,B-3,120.667,0.094,95,122.0
1791,G#3,120.667,0.094,95,122.0
1792,C#4,120.667,0.094,95,122.0
1793,E-4,120.667,0.094,95,122.0
1794,E-2,120.667,0.094,95,122.0
1795,E-1,121.0,263/500,93,122.0
1796,E-1,121.0,91/500,99,122.0
1797,E-2,121.0,91/500,99,122.0
1798,C#3,121.0,91/500,99,122.0
1799,E-2,121.0,0.031,109,122.0
1800,E2,121.0,0.031,109,122.0
1801,F#2,121.0,0.031,109,122.0
1802,C2,121.0,0.031,109,122.0
1803,F#3,121.0,0.031,109,122.0
1804,C#2,121.333,0.125,82,122.0
1805,C#2,121.333,0.125,82,122.0
1806,G#3,121.333,0.125,82,122.0
1807,E-2,121.333,0.125,82,122.0
1808,C#4,121.333,13/250,68,122.0
1809,G#3,121.333,13/250,68,122.0
1810,F#2,121.667,0.031,59,122.0
1811,E-2,121.667,151/1000,86,122.0
1812,E-2,121.667,151/1000,86,122.0
1813,F#2,121.667,151/1000,86,122.0
1814,E-3,121.667,151/1000,86,122.0
1815,F#2,122.0,0.172,96,122.0
1816,F#1,122.0,693/1000,110,122.0
1817,F#1,122.0,693/1000,110,122.0
1818,F#1,122.0,0.531,89,122.0
1819,C#4,122.0,0.531,89,122.0
1820,B-3,122.0,0.531,89,122.0
1821,F#3,122.0,0.531,92,122.0
1822,B-3,122.0,0.531,92,122.0
1823,F#2,122.0,0.031,98,122.0
1824,C2,122.0,0.031,98,122.0
1825,F#3,122.333,13/100,83,122.0
1826,F#2,122.667,0.031,62,122.0
1827,F#2,122.667,0.141,83,122.0
1828,F#2,122.667,0.141,83,122.0
1829,F#3,122.667,0.141,83,122.0
1830,F#2,122.667,0.141,83,122.0
1831,F#2,122.667,0.141,83,122.0
1832,G#1,123.0,229/1000,101,122.0
1833,G#1,123.0,0.672,91,122.0
1834,G#1,123.0,599/1000,98,122.0
1835,G#2,123.0,0.156,81,122.0
1836,C4,123.0,0.469,79,122.0
1837,G#3,123.0,0.469,79,122.0
1838,E-4,123.0,0.469,92,122.0
1839,G#3,123.0,0.469,92,122.0
1840,C#4,123.0,0.031,108,122.0
1841,E-2,123.0,0.031,108,122.0
1842,E2,123.0,0.031,108,122.0
1843,F#2,123.0,0.031,108,122.0
1844,C2,123.0,0.031,108,122.0
1845,F#3,123.0,0.031,108,122.0
1846,G#2,123.333,151/1000,89,122.0
1847,G#3,123.333,151/1000,89,122.0
1848,F#2,123.667,0.031,53,122.0
1849,F#2,123.667,27/200,93,122.0
1850,F#2,123.667,27/200,93,122.0
1851,C4,123.667,27/200,93,122.0
1852,E-4,123.667,27/200,93,122.0
1853,G#3,123.667,27/200,93,122.0
1854,G#2,123.667,27/200,93,122.0
1855,F#3,123.667,27/200,93,122.0
1856,E-1,124.0,557/1000,114,122.0
1857,E-1,124.0,667/1000,103,122.0
1858,E-1,124.0,99/250,102,122.0
1859,E-2,124.0,167/1000,91,122.0
1860,C2,124.0,0.031,99,122.0
1861,F#2,124.0,0.031,99,122.0
1862,F#3,124.333,73/500,74,122.0
1863,E-3,124.333,73/500,74,122.0
1864,E-2,124.667,99/1000,92,122.0
1865,F#2,124.667,0.031,56,122.0
1866,E-2,124.667,13/125,102,122.0
1867,E-2,124.667,13/125,102,122.0
1868,E-2,124.667,13/125,102,122.0
1869,E-1,125.0,67/125,99,122.0
1870,E-1,125.0,0.141,92,122.0
1871,C#3,125.0,0.141,92,122.0
1872,F#3,125.0,0.031,95,122.0
1873,B-3,125.0,0.031,95,122.0
1874,C#4,125.0,0.031,95,122.0
1875,E-2,125.0,0.031,95,122.0
1876,E2,125.0,0.031,95,122.0
1877,F#2,125.0,0.031,95,122.0
1878,C2,125.0,0.031,95,122.0
1879,F#3,125.0,0.031,95,122.0
1880,C#2,125.333,89/1000,92,122.0
1881,E-2,125.333,89/1000,92,122.0
1882,E-2,125.333,89/1000,81,122.0
1883,E-2,125.333,89/1000,81,122.0
1884,E-2,125.667,0.141,96,122.0
1885,E-2,125.667,0.141,96,122.0
1886,E-3,125.667,0.141,96,122.0
1887,F#3,125.667,0.031,91,122.0
1888,C#4,125.667,0.031,91,122.0
1889,B-3,125.667,0.031,91,122.0
1890,E-3,125.667,0.031,91,122.0
1891,F#2,125.667,0.031,91,122.0
1892,F#4,126.0,56/125,108,122.0
1893,E-2,126.0,0.031,86,122.0
1894,E-2,126.0,0.031,86,122.0
1895,C2,126.0,0.031,86,122.0
1896,F#2,126.0,0.031,86,122.0
1897,B-3,126.333,13/250,70,122.0
1898,C#2,126.333,13/100,89,122.0
1899,C#2,126.333,13/100,89,122.0
1900,C#3,126.333,13/100,89,122.0
1901,G#4,126.667,1.188,112,122.0
1902,B-2,126.667,0.031,73,122.0
1903,B-1,126.667,0.141,92,122.0
1904,C#1,126.667,0.141,92,122.0
1905,E-2,126.667,0.141,92,122.0
1906,E-2,126.667,0.141,92,122.0
1907,C#2,127.0,0.641,110,122.0
1908,E-4,127.0,0.516,96,122.0
1909,B-3,127.0,99/250,98,122.0
1910,C#2,127.0,193/1000,95,122.0
1911,C#3,127.0,193/1000,95,122.0
1912,E-2,127.0,0.031,107,122.0
1913,E2,127.0,0.031,107,122.0
1914,C2,127.0,0.031,107,122.0
1915,F#2,127.0,0.031,107,122.0
1916,F#3,127.0,0.031,107,122.0
1917,B-1,127.333,0.391,101,122.0
1918,E-2,127.333,3/25,87,122.0
1919,E-2,127.667,0.203,98,122.0
1920,E-2,127.667,0.203,98,122.0
1921,G#3,127.667,3/25,93,122.0
1922,C#4,127.667,3/25,93,122.0
1923,E-3,127.667,3/25,93,122.0
1924,C2,127.667,0.031,65,122.0
1925,F#2,127.667,0.031,65,122.0
1926,E-1,128.0,661/1000,104,122.0
1927,E-1,128.0,271/1000,88,122.0
1928,E-2,128.0,0.125,96,122.0
1929,E-1,128.0,0.578,106,122.0
1930,F#4,128.0,0.578,106,122.0
1931,C2,128.0,0.031,113,122.0
1932,F#2,128.0,0.031,113,122.0
1933,E-4,128.333,3/25,82,122.0
1934,B-3,128.333,3/25,82,122.0
1935,C#3,128.333,3/25,82,122.0
1936,E-4,128.667,0.641,107,122.0
1937,F#2,128.667,0.031,66,122.0
1938,E-2,128.667,13/100,98,122.0
1939,E-2,128.667,13/100,98,122.0
1940,E-2,128.667,13/100,98,122.0
1941,E-3,128.667,13/100,98,122.0
1942,E-1,129.0,0.641,103,122.0
1943,E-2,129.0,73/500,101,122.0
1944,E-1,129.0,49/200,106,122.0
1945,B-3,129.0,49/200,106,122.0
1946,E-4,129.0,49/200,106,122.0
1947,E-2,129.0,0.031,112,122.0
1948,E2,129.0,0.031,112,122.0
1949,F#2,129.0,0.031,112,122.0
1950,C2,129.0,0.031,112,122.0
1951,F#3,129.0,0.031,112,122.0
1952,C#2,129.333,83/1000,90,122.0
1953,C#3,129.333,83/1000,90,122.0
1954,F#2,129.667,0.031,59,122.0
1955,E-2,129.667,0.109,88,122.0
1956,E-2,129.667,0.109,88,122.0
1957,E-2,129.667,0.109,88,122.0
1958,E-3,129.667,0.109,88,122.0
1959,F#2,130.0,27/200,92,122.0
1960,F#1,130.0,0.703,100,122.0
1961,F#1,130.0,0.703,100,122.0
1962,F#1,130.0,0.531,101,122.0
1963,B-3,130.0,0.531,101,122.0
1964,F#3,130.0,0.531,101,122.0
1965,C#4,130.0,0.531,101,122.0
1966,F#2,130.0,0.031,102,122.0
1967,C2,130.0,0.031,102,122.0
1968,F#3,130.333,27/200,94,122.0
1969,F#2,130.667,0.031,62,122.0
1970,F#2,130.667,151/1000,90,122.0
1971,F#2,130.667,151/1000,90,122.0
1972,C#4,130.667,151/1000,90,122.0
1973,F#3,130.667,151/1000,90,122.0
1974,F#2,130.667,151/1000,90,122.0
1975,F#2,130.667,151/1000,90,122.0
1976,G#1,131.0,0.688,92,122.0
1977,G#1,131.0,123/200,91,122.0
1978,G#2,131.0,161/1000,82,122.0
1979,G#1,131.0,0.469,97,122.0
1980,C4,131.0,0.469,97,122.0
1981,G#3,131.0,0.469,97,122.0
1982,E-4,131.0,0.469,97,122.0
1983,E-2,131.0,0.031,112,122.0
1984,E2,131.0,0.031,112,122.0
1985,F#2,131.0,0.031,112,122.0
1986,C2,131.0,0.031,112,122.0
1987,F#3,131.0,0.031,112,122.0
1988,G#2,131.333,27/200,88,122.0
1989,G#3,131.333,27/200,88,122.0
1990,F#2,131.667,0.031,64,122.0
1991,F#2,131.667,73/500,88,122.0
1992,F#2,131.667,73/500,88,122.0
1993,C4,131.667,73/500,88,122.0
1994,G#3,131.667,73/500,88,122.0
1995,E-4,131.667,73/500,88,122.0
1996,G#2,131.667,73/500,88,122.0
1997,F#3,131.667,73/500,88,122.0
1998,E-1,132.0,0.281,102,122.0
1999,E-2,132.0,0.156,95,122.0
2000,E-1,132.0,63/100,106,122.0
2001,E-1,132.0,63/100,106,122.0
2002,F#2,132.0,0.031,98,122.0
2003,C2,132.0,0.031,98,122.0
2004,F#3,132.333,3/25,78,122.0
2005,E-3,132.333,3/25,78,122.0
2006,F#2,132.667,0.031,52,122.0
2007,E-2,132.667,23/200,101,122.0
2008,E-2,132.667,23/200,101,122.0
2009,E-2,132.667,23/200,101,122.0
2010,E-2,132.667,23/200,101,122.0
2011,E-1,133.0,521/1000,88,122.0
2012,C#3,133.0,0.156,85,122.0
2013,E-1,133.0,0.031,97,122.0
2014,C#4,133.0,0.031,97,122.0
2015,B-3,133.0,0.031,97,122.0
2016,F#3,133.0,0.031,97,122.0
2017,E-2,133.0,0.031,97,122.0
2018,E2,133.0,0.031,97,122.0
2019,C2,133.0,0.031,97,122.0
2020,F#2,133.0,0.031,97,122.0
2021,F#3,133.0,0.031,97,122.0
2022,E-1,133.333,0.125,90,122.0
2023,E-2,133.333,0.125,90,122.0
2024,E-2,133.333,0.125,90,122.0
2025,B-2,133.667,0.703,104,122.0
2026,E-2,133.667,73/500,94,122.0
2027,E-4,133.667,73/500,94,122.0
2028,G#3,133.667,73/500,94,122.0
2029,E-3,133.667,73/500,94,122.0
2030,C#4,133.667,0.031,90,122.0
2031,E-4,133.667,0.031,90,122.0
2032,B-3,133.667,0.031,90,122.0
2033,G#3,133.667,0.031,90,122.0
2034,F#2,133.667,0.031,90,122.0
2035,G#1,134.0,0.266,83,122.0
2036,E-2,134.0,99/1000,89,122.0
2037,C2,134.0,0.031,111,122.0
2038,C#3,134.333,0.203,76,122.0
2039,B-1,134.333,0.203,76,122.0
2040,C#4,134.333,0.031,86,122.0
2041,B-3,134.333,0.031,86,122.0
2042,G#3,134.333,0.031,86,122.0
2043,B-2,134.333,0.031,86,122.0
2044,F#2,134.333,0.031,86,122.0
2045,B-2,134.667,0.031,93,122.0
2046,E-1,134.667,13/100,96,122.0
2047,C#2,134.667,13/100,96,122.0
2048,E-2,134.667,13/100,96,122.0
2049,E-2,134.667,13/100,96,122.0
2050,G#2,135.0,0.5,93,122.0
2051,C#2,135.0,651/1000,104,122.0
2052,A2,135.0,99/500,108,122.0
2053,C#4,135.0,99/500,108,122.0
2054,G#3,135.0,99/500,108,122.0
2055,B-3,135.0,99/500,108,122.0
2056,G#2,135.0,99/500,108,122.0
2057,E-2,135.0,0.031,111,122.0
2058,E2,135.0,0.031,111,122.0
2059,F#2,135.0,0.031,111,122.0
2060,C2,135.0,0.031,111,122.0
2061,F#3,135.0,0.031,111,122.0
2062,E-2,135.333,99/1000,85,122.0
2063,B-3,135.333,99/500,52,122.0
2064,C#4,135.333,99/500,52,122.0
2065,F#2,135.667,73/500,92,122.0
2066,E-2,135.667,73/500,92,122.0
2067,E-4,135.667,73/500,92,122.0
2068,G#3,135.667,73/500,92,122.0
2069,F#2,135.667,73/500,92,122.0
2070,B-3,135.667,0.031,85,122.0
2071,E-4,135.667,0.031,85,122.0
2072,C2,135.667,0.031,85,122.0
2073,F#2,135.667,0.031,85,122.0
2074,E-1,136.0,341/500,110,122.0
2075,E-1,136.0,307/1000,88,122.0
2076,E-2,136.0,27/200,98,122.0
2077,E-1,136.0,0.484,114,122.0
2078,F#4,136.0,0.484,114,122.0
2079,C#3,136.0,0.031,108,122.0
2080,C2,136.0,0.031,108,122.0
2081,E-3,136.333,0.141,98,122.0
2082,E-4,136.667,69/250,113,122.0
2083,F#2,136.667,0.031,64,122.0
2084,E-2,136.667,23/200,98,122.0
2085,E-2,136.667,23/200,98,122.0
2086,E-2,136.667,23/200,98,122.0
2087,E-2,136.667,23/200,98,122.0
2088,E-1,137.0,263/500,93,122.0
2089,F#4,137.0,0.844,112,122.0
2090,E-1,137.0,161/1000,100,122.0
2091,E-4,137.0,161/1000,100,122.0
2092,G#3,137.0,161/1000,100,122.0
2093,C#3,137.0,161/1000,100,122.0
2094,B-3,137.0,0.031,107,122.0
2095,C#4,137.0,0.031,107,122.0
2096,E-2,137.0,0.031,107,122.0
2097,E2,137.0,0.031,107,122.0
2098,F#2,137.0,0.031,107,122.0
2099,C2,137.0,0.031,107,122.0
2100,F#3,137.0,0.031,107,122.0
2101,C#2,137.333,13/100,86,122.0
2102,C#2,137.333,13/100,86,122.0
2103,E-2,137.333,13/100,86,122.0
2104,E-2,137.667,27/200,89,122.0
2105,E-2,137.667,27/200,89,122.0
2106,E-4,137.667,27/200,89,122.0
2107,G#3,137.667,27/200,89,122.0
2108,E-3,137.667,27/200,89,122.0
2109,C#4,137.667,0.031,81,122.0
2110,B-3,137.667,0.031,81,122.0
2111,E-4,137.667,0.031,81,122.0
2112,G#3,137.667,0.031,81,122.0
2113,F#2,137.667,0.031,81,122.0
2114,F#2,138.0,0.141,91,122.0
2115,F#1,138.0,0.672,102,122.0
2116,F#1,138.0,0.672,102,122.0
2117,F#1,138.0,0.672,102,122.0
2118,F#2,138.0,0.672,102,122.0
2119,F#3,138.0,0.469,95,122.0
2120,B-3,138.0,0.469,95,122.0
2121,C#4,138.0,0.469,95,122.0
2122,F#2,138.0,0.031,98,122.0
2123,C2,138.0,0.031,98,122.0
2124,F#3,138.333,3/25,100,122.0
2125,F#2,138.667,0.031,62,122.0
2126,F#2,138.667,13/100,86,122.0
2127,F#2,138.667,13/100,86,122.0
2128,F#3,138.667,13/100,86,122.0
2129,B-3,138.667,13/100,86,122.0
2130,C#4,138.667,13/100,86,122.0
2131,F#2,138.667,13/100,86,122.0
2132,G#1,139.0,229/1000,101,122.0
2133,G#1,139.0,0.672,91,122.0
2134,G#2,139.0,73/500,79,122.0
2135,C4,139.0,521/1000,98,122.0
2136,G#2,139.0,521/1000,98,122.0
2137,G#1,139.0,521/1000,98,122.0
2138,G#3,139.0,521/1000,98,122.0
2139,E-4,139.0,521/1000,98,122.0
2140,E-2,139.0,0.031,110,122.0
2141,E2,139.0,0.031,110,122.0
2142,F#2,139.0,0.031,110,122.0
2143,C2,139.0,0.031,110,122.0
2144,F#3,139.0,0.031,110,122.0
2145,G#2,139.333,0.203,91,122.0
2146,G#3,139.333,99/1000,76,122.0
2147,F#2,139.667,0.031,53,122.0
2148,F#2,139.667,73/500,98,122.0
2149,F#2,139.667,73/500,98,122.0
2150,G#3,139.667,73/500,98,122.0
2151,E-4,139.667,73/500,98,122.0
2152,C4,139.667,0.094,94,122.0
2153,G#3,139.667,0.094,94,122.0
2154,E-4,139.667,0.094,94,122.0
2155,F#3,139.667,0.094,94,122.0
2156,E-1,140.0,557/1000,114,122.0
2157,E-1,140.0,667/1000,103,122.0
2158,E-1,140.0,69/250,96,122.0
2159,E-2,140.0,193/1000,87,122.0
2160,C2,140.0,0.031,99,122.0
2161,F#2,140.0,0.031,99,122.0
2162,E-3,140.333,73/500,97,122.0
2163,F#2,140.667,0.031,56,122.0
2164,E-2,140.667,3/25,102,122.0
2165,E-2,140.667,3/25,102,122.0
2166,E-2,140.667,3/25,102,122.0
2167,E-2,140.667,3/25,102,122.0
2168,E-1,141.0,67/125,99,122.0
2169,E-1,141.0,73/500,92,122.0
2170,C#3,141.0,73/500,92,122.0
2171,C#4,141.0,0.031,102,122.0
2172,E-2,141.0,0.031,102,122.0
2173,E2,141.0,0.031,102,122.0
2174,F#2,141.0,0.031,102,122.0
2175,C2,141.0,0.031,102,122.0
2176,F#3,141.0,0.031,102,122.0
2177,C#2,141.333,89/1000,98,122.0
2178,E-2,141.333,89/1000,98,122.0
2179,E-2,141.333,89/1000,98,122.0
2180,F#2,141.667,0.031,52,122.0
2181,E-2,141.667,13/100,97,122.0
2182,E-2,141.667,13/100,97,122.0
2183,C#4,141.667,13/100,97,122.0
2184,E-3,141.667,13/100,97,122.0
2185,E-1,142.0,167/1000,88,122.0
2186,F#4,142.0,99/250,105,122.0
2187,E-2,142.0,0.031,94,122.0
2188,C2,142.0,0.031,94,122.0
2189,F#2,142.0,0.031,94,122.0
2190,C#2,142.333,13/100,100,122.0
2191,C#2,142.333,13/100,100,122.0
2192,C#4,142.333,13/100,100,122.0
2193,F#4,142.333,13/100,100,122.0
2194,B-2,142.333,13/100,100,122.0
2195,G#4,142.667,1.234,102,122.0
2196,B-2,142.667,0.031,73,122.0
2197,B-1,142.667,3/25,97,122.0
2198,C#1,142.667,3/25,97,122.0
2199,E-2,142.667,3/25,97,122.0
2200,E-2,142.667,3/25,97,122.0
2201,C#2,143.0,0.641,110,122.0
2202,C#2,143.0,167/1000,98,122.0
2203,C#3,143.0,167/1000,98,122.0
2204,E-4,143.0,0.031,104,122.0
2205,B-3,143.0,0.031,104,122.0
2206,E-2,143.0,0.031,104,122.0
2207,E2,143.0,0.031,104,122.0
2208,C2,143.0,0.031,104,122.0
2209,F#2,143.0,0.031,104,122.0
2210,F#3,143.0,0.031,104,122.0
2211,B-1,143.333,0.391,101,122.0
2212,E-2,143.333,177/1000,97,122.0
2213,E-2,143.333,89/1000,84,122.0
2214,E-2,143.667,0.203,98,122.0
2215,E-2,143.667,0.203,98,122.0
2216,G#3,143.667,0.156,97,122.0
2217,C#4,143.667,0.156,97,122.0
2218,E-3,143.667,0.156,97,122.0
2219,C2,143.667,0.031,65,122.0
2220,F#2,143.667,0.031,65,122.0
2221,E-2,144.0,27/200,98,122.0
2222,E-1,144.0,583/1000,104,122.0
2223,F#4,144.0,583/1000,104,122.0
2224,E-1,144.0,127/200,100,122.0
2225,E-1,144.0,127/200,100,122.0
2226,C2,144.0,0.031,113,122.0
2227,F#2,144.0,0.031,113,122.0
2228,E-3,144.333,0.141,96,122.0
2229,E-4,144.667,0.672,110,122.0
2230,F#2,144.667,0.031,66,122.0
2231,E-2,144.667,23/200,97,122.0
2232,E-2,144.667,23/200,97,122.0
2233,E-2,144.667,23/200,97,122.0
2234,E-2,144.667,23/200,97,122.0
2235,E-1,145.0,0.641,103,122.0
2236,C#3,145.0,151/1000,95,122.0
2237,E-1,145.0,107/500,98,122.0
2238,E-4,145.0,107/500,98,122.0
2239,C#4,145.0,0.031,101,122.0
2240,B-3,145.0,0.031,101,122.0
2241,E-2,145.0,0.031,101,122.0
2242,E2,145.0,0.031,101,122.0
2243,F#2,145.0,0.031,101,122.0
2244,C2,145.0,0.031,101,122.0
2245,F#3,145.0,0.031,101,122.0
2246,C#2,145.333,161/1000,94,122.0
2247,C#4,145.333,161/1000,94,122.0
2248,E-3,145.333,161/1000,94,122.0
2249,E-2,145.667,0.156,95,122.0
2250,E-2,145.667,0.156,95,122.0
2251,B-3,145.667,0.156,95,122.0
2252,E-2,145.667,0.156,95,122.0
2253,E-4,145.667,0.031,78,122.0
2254,B-3,145.667,0.031,78,122.0
2255,G#3,145.667,0.031,78,122.0
2256,F#2,145.667,0.031,78,122.0
2257,F#1,146.0,151/250,97,122.0
2258,F#2,146.0,0.172,89,122.0
2259,F#1,146.0,0.703,100,122.0
2260,F#1,146.0,0.703,100,122.0
2261,F#2,146.0,0.031,102,122.0
2262,C2,146.0,0.031,102,122.0
2263,B-3,146.333,0.156,91,122.0
2264,C#4,146.333,0.156,91,122.0
2265,F#3,146.333,0.156,91,122.0
2266,F#3,146.333,0.156,91,122.0
2267,F#2,146.667,0.031,62,122.0
2268,F#2,146.667,0.156,99,122.0
2269,F#2,146.667,0.156,99,122.0
2270,F#2,146.667,0.156,99,122.0
2271,F#2,146.667,0.156,99,122.0
2272,G#1,147.0,0.688,92,122.0
2273,G#2,147.0,0.141,77,122.0
2274,G#1,147.0,0.469,99,122.0
2275,C4,147.0,0.469,99,122.0
2276,G#3,147.0,0.469,99,122.0
2277,G#1,147.0,521/1000,101,122.0
2278,E-4,147.0,521/1000,101,122.0
2279,E-2,147.0,0.031,112,122.0
2280,E2,147.0,0.031,112,122.0
2281,F#2,147.0,0.031,112,122.0
2282,C2,147.0,0.031,112,122.0
2283,F#3,147.0,0.031,112,122.0
2284,G#2,147.333,0.141,88,122.0
2285,G#3,147.333,0.141,88,122.0
2286,F#2,147.667,0.031,64,122.0
2287,F#2,147.667,0.141,87,122.0
2288,F#2,147.667,0.141,87,122.0
2289,C4,147.667,0.141,87,122.0
2290,E-4,147.667,0.141,87,122.0
2291,G#3,147.667,0.141,87,122.0
2292,G#2,147.667,0.141,87,122.0
2293,F#3,147.667,0.141,87,122.0
2294,E-1,148.0,521/1000,98,122.0
2295,E-2,148.0,73/500,101,122.0
2296,E-1,148.0,63/100,106,122.0
2297,E-1,148.0,63/100,106,122.0
2298,F#2,148.0,0.031,98,122.0
2299,C2,148.0,0.031,98,122.0
2300,F#3,148.333,27/200,90,122.0
2301,E-3,148.333,27/200,90,122.0
2302,F#2,148.667,0.031,52,122.0
2303,E-2,148.667,151/1000,100,122.0
2304,E-2,148.667,151/1000,100,122.0
2305,E-2,148.667,151/1000,100,122.0
2306,E-2,148.667,151/1000,100,122.0
2307,E-1,149.0,521/1000,88,122.0
2308,C#3,149.0,167/1000,89,122.0
2309,E-1,149.0,0.031,109,122.0
2310,F#3,149.0,0.031,109,122.0
2311,E-2,149.0,0.031,109,122.0
2312,E2,149.0,0.031,109,122.0
2313,C2,149.0,0.031,109,122.0
2314,F#2,149.0,0.031,109,122.0
2315,F#3,149.0,0.031,109,122.0
2316,E-1,149.333,26/125,95,122.0
2317,E-1,149.333,23/200,98,122.0
2318,E-2,149.333,23/200,98,122.0
2319,B-2,149.667,0.703,104,122.0
2320,F#2,149.667,0.031,66,122.0
2321,E-2,149.667,167/1000,96,122.0
2322,F#4,149.667,167/1000,96,122.0
2323,C#4,149.667,167/1000,96,122.0
2324,E-3,149.667,167/1000,96,122.0
2325,G#1,150.0,0.266,83,122.0
2326,C2,150.0,0.031,111,122.0
2327,E-2,150.0,27/200,91,122.0
2328,E-2,150.0,27/200,91,122.0
2329,C#3,150.333,151/1000,83,122.0
2330,B-1,150.333,151/1000,83,122.0
2331,E-3,150.333,151/1000,83,122.0
2332,B-3,150.333,0.031,93,122.0
2333,E-4,150.333,0.031,93,122.0
2334,F#2,150.333,0.031,93,122.0
2335,B-2,150.667,0.031,93,122.0
2336,E-1,150.667,0.156,98,122.0
2337,C#2,150.667,0.156,98,122.0
2338,E-2,150.667,0.156,98,122.0
2339,E-2,150.667,0.156,100,122.0
2340,E-2,150.667,0.156,100,122.0
2341,C#2,151.0,651/1000,104,122.0
2342,G#3,151.0,37/100,104,122.0
2343,A2,151.0,91/500,94,122.0
2344,C#3,151.0,91/500,94,122.0
2345,G#2,151.0,101/200,102,122.0
2346,C#4,151.0,101/200,102,122.0
2347,E-2,151.0,0.031,111,122.0
2348,E2,151.0,0.031,111,122.0
2349,F#2,151.0,0.031,111,122.0
2350,C2,151.0,0.031,111,122.0
2351,F#3,151.0,0.031,111,122.0
2352,E-2,151.333,0.156,94,122.0
2353,E-2,151.333,0.156,94,122.0
2354,G4,151.667,333/1000,116,122.0
2355,F#2,151.667,0.141,93,122.0
2356,E-2,151.667,0.141,93,122.0
2357,E-4,151.667,0.141,93,122.0
2358,B-3,151.667,0.141,93,122.0
2359,E-3,151.667,0.141,93,122.0
2360,C2,151.667,0.031,78,122.0
2361,F#2,151.667,0.031,78,122.0
2362,F2,152.0,667/1000,106,122.0
2363,F2,152.0,0.188,92,122.0
2364,G4,152.0,677/1000,116,122.0
2365,F1,152.0,67/125,112,122.0
2366,F1,152.0,67/125,112,122.0
2367,A3,152.0,67/125,112,122.0
2368,E-3,152.0,67/125,112,122.0
2369,C#3,152.0,0.031,108,122.0
2370,C2,152.0,0.031,108,122.0
2371,F3,152.333,73/500,96,122.0
2372,F#2,152.667,0.031,64,122.0
2373,F2,152.667,3/25,105,122.0
2374,F2,152.667,3/25,105,122.0
2375,E-3,152.667,3/25,105,122.0
2376,A3,152.667,3/25,105,122.0
2377,F2,152.667,3/25,105,122.0
2378,F1,153.0,0.547,118,122.0
2379,E-4,153.0,149/200,117,122.0
2380,F1,153.0,0.172,104,122.0
2381,F2,153.0,0.172,104,122.0
2382,F2,153.0,0.172,104,122.0
2383,E-2,153.0,0.031,109,122.0
2384,E2,153.0,0.031,109,122.0
2385,F#2,153.0,0.031,109,122.0
2386,C2,153.0,0.031,109,122.0
2387,F#3,153.0,0.031,109,122.0
2388,E-3,153.333,13/250,66,122.0
2389,E-2,153.333,0.156,107,122.0
2390,F3,153.333,0.156,107,122.0
2391,F#2,153.667,0.031,59,122.0
2392,F2,153.667,161/1000,97,122.0
2393,F2,153.667,161/1000,97,122.0
2394,F2,153.667,161/1000,97,122.0
2395,F2,153.667,161/1000,97,122.0
2396,G#1,154.0,49/100,109,122.0
2397,G#1,154.0,49/100,109,122.0
2398,G#2,154.0,49/100,109,122.0
2399,F4,154.0,161/1000,98,122.0
2400,G#2,154.0,161/1000,98,122.0
2401,F#2,154.0,0.031,98,122.0
2402,C2,154.0,0.031,98,122.0
2403,G#3,154.333,167/1000,100,122.0
2404,F#2,154.667,0.031,62,122.0
2405,G#2,154.667,0.125,103,122.0
2406,G#2,154.667,0.125,103,122.0
2407,G#2,154.667,0.125,103,122.0
2408,B-2,155.0,6/25,110,122.0
2409,B-2,155.0,167/1000,89,122.0
2410,B-1,155.0,69/250,116,122.0
2411,B-1,155.0,69/250,116,122.0
2412,E-2,155.0,0.031,110,122.0
2413,E2,155.0,0.031,110,122.0
2414,F#2,155.0,0.031,110,122.0
2415,C2,155.0,0.031,110,122.0
2416,F#3,155.0,0.031,110,122.0
2417,B-2,155.333,73/500,103,122.0
2418,B-2,155.333,73/500,103,122.0
2419,B-3,155.333,73/500,103,122.0
2420,E-3,155.333,73/500,88,122.0
2421,B-3,155.333,73/500,88,122.0
2422,F#2,155.667,0.031,53,122.0
2423,G#2,155.667,0.156,96,122.0
2424,G#2,155.667,0.156,96,122.0
2425,F2,155.667,0.156,96,122.0
2426,G#3,155.667,0.156,96,122.0
2427,F2,156.0,589/1000,106,122.0
2428,F2,156.0,26/125,98,122.0
2429,F1,156.0,263/500,111,122.0
2430,F1,156.0,263/500,111,122.0
2431,C2,156.0,0.031,99,122.0
2432,F#2,156.0,0.031,99,122.0
2433,F3,156.333,0.156,90,122.0
2434,F#2,156.667,0.031,56,122.0
2435,F2,156.667,13/100,94,122.0
2436,F2,156.667,13/100,94,122.0
2437,A3,156.667,13/100,94,122.0
2438,E-3,156.667,13/100,94,122.0
2439,F2,156.667,13/100,94,122.0
2440,F1,157.0,0.547,90,122.0
2441,F2,157.0,26/125,99,122.0
2442,F1,157.0,27/200,100,122.0
2443,E-3,157.0,27/200,100,122.0
2444,E-2,157.0,0.031,108,122.0
2445,E2,157.0,0.031,108,122.0
2446,F#2,157.0,0.031,108,122.0
2447,C2,157.0,0.031,108,122.0
2448,F#3,157.0,0.031,108,122.0
2449,E-2,157.333,0.109,75,122.0
2450,A3,157.333,0.109,75,122.0
2451,E-3,157.333,0.109,75,122.0
2452,F2,157.333,0.109,75,122.0
2453,F#2,157.667,0.031,52,122.0
2454,F2,157.667,91/500,93,122.0
2455,F2,157.667,91/500,93,122.0
2456,F2,157.667,91/500,93,122.0
2457,F3,157.667,91/500,93,122.0
2458,F2,158.0,181/250,106,122.0
2459,F1,158.0,0.156,95,122.0
2460,F2,158.0,0.156,95,122.0
2461,E-3,158.0,479/1000,103,122.0
2462,F#4,158.0,479/1000,103,122.0
2463,A3,158.0,479/1000,103,122.0
2464,F#4,158.0,479/1000,103,122.0
2465,C2,158.0,0.031,96,122.0
2466,F#2,158.0,0.031,96,122.0
2467,F2,158.333,0.156,93,122.0
2468,F2,158.333,0.156,93,122.0
2469,F3,158.333,0.156,93,122.0
2470,B-2,158.667,0.031,73,122.0
2471,F2,158.667,13/100,91,122.0
2472,A3,158.667,13/100,91,122.0
2473,E-3,158.667,13/100,91,122.0
2474,F2,158.667,13/100,91,122.0
2475,G#4,158.682,591/500,110,122.0
2476,G1,159.0,177/500,123,122.0
2477,G2,159.0,99/125,123,122.0
2478,G2,159.0,193/1000,96,122.0
2479,G1,159.0,69/125,112,122.0
2480,F3,159.0,69/125,112,122.0
2481,B3,159.0,69/125,112,122.0
2482,B-3,159.0,0.031,102,122.0
2483,E-2,159.0,0.031,102,122.0
2484,E2,159.0,0.031,102,122.0
2485,C2,159.0,0.031,102,122.0
2486,F#2,159.0,0.031,102,122.0
2487,F#3,159.0,0.031,102,122.0
2488,G2,159.333,151/1000,96,122.0
2489,G3,159.333,151/1000,96,122.0
2490,G1,159.667,0.031,70,122.0
2491,C2,159.667,0.031,70,122.0
2492,F#2,159.667,0.031,70,122.0
2493,G2,159.667,167/1000,96,122.0
2494,F3,159.667,167/1000,96,122.0
2495,B3,159.667,167/1000,96,122.0
2496,G2,159.667,167/1000,96,122.0
2497,G#1,160.0,0.547,117,122.0
2498,G#2,160.0,167/1000,97,122.0
2499,G#1,160.0,443/1000,112,122.0
2500,G#2,160.0,443/1000,112,122.0
2501,C2,160.0,0.031,113,122.0
2502,F#2,160.0,0.031,113,122.0
2503,F#4,160.062,443/1000,107,122.0
2504,C4,160.333,57/1000,62,122.0
2505,F#3,160.333,177/1000,86,122.0
2506,G#3,160.333,177/1000,86,122.0
2507,E-4,160.646,677/1000,101,122.0
2508,G#2,160.667,28/125,98,122.0
2509,F#2,160.667,0.031,66,122.0
2510,G#2,160.667,0.125,100,122.0
2511,G#2,160.667,0.125,100,122.0
2512,F#3,160.667,0.125,100,122.0
2513,G#1,161.0,0.469,119,122.0
2514,G#1,161.0,13/100,107,122.0
2515,F#3,161.0,13/100,107,122.0
2516,G#2,161.0,13/100,107,122.0
2517,C4,161.0,0.188,107,122.0
2518,F#3,161.0,0.188,107,122.0
2519,E-2,161.0,0.031,112,122.0
2520,E2,161.0,0.031,112,122.0
2521,F#2,161.0,0.031,112,122.0
2522,C2,161.0,0.031,112,122.0
2523,F#3,161.0,0.031,112,122.0
2524,F#2,161.333,73/500,91,122.0
2525,F#3,161.333,73/500,91,122.0
2526,C#4,161.333,73/500,91,122.0
2527,B-3,161.521,0.203,92,122.0
2528,F#2,161.667,0.031,59,122.0
2529,G#2,161.667,0.141,104,122.0
2530,G#2,161.667,0.141,104,122.0
2531,F#3,161.667,0.141,104,122.0
2532,C4,161.667,0.141,104,122.0
2533,G#3,161.667,0.141,104,122.0
2534,G#3,161.714,73/200,98,122.0
2535,G#1,162.0,0.266,121,122.0
2536,G#1,162.0,69/125,115,122.0
2537,G#2,162.0,73/500,84,122.0
2538,G#2,162.0,73/500,84,122.0
2539,F#2,162.0,0.031,102,122.0
2540,C2,162.0,0.031,102,122.0
2541,F#3,162.333,99/1000,87,122.0
2542,F#2,162.667,0.031,62,122.0
2543,G#2,162.667,27/200,95,122.0
2544,G#2,162.667,27/200,95,122.0
2545,G#2,162.667,27/200,95,122.0
2546,G#3,162.667,27/200,95,122.0
2547,G#2,163.0,73/500,98,122.0
2548,G#1,163.0,177/1000,108,122.0
2549,G#1,163.0,177/1000,108,122.0
2550,C4,163.0,177/250,108,122.0
2551,F#3,163.0,177/250,108,122.0
2552,E-2,163.0,0.031,112,122.0
2553,E2,163.0,0.031,112,122.0
2554,F#2,163.0,0.031,112,122.0
2555,C2,163.0,0.031,112,122.0
2556,F#3,163.0,0.031,112,122.0
2557,F#3,163.333,13/250,57,122.0
2558,G#2,163.333,0.141,97,122.0
2559,G#2,163.333,0.141,97,122.0
2560,G#2,163.667,3/25,96,122.0
2561,F#2,163.667,0.031,64,122.0
2562,G#1,163.667,91/500,95,122.0
2563,G#1,163.667,91/500,95,122.0
2564,G#2,163.667,91/500,95,122.0
2565,C#3,164.0,0.594,104,122.0
2566,C#3,164.0,151/1000,97,122.0
2567,C#2,164.0,263/500,102,122.0
2568,C#2,164.0,263/500,102,122.0
2569,F#3,164.0,263/500,102,122.0
2570,B3,164.0,263/500,102,122.0
2571,F#2,164.0,0.031,98,122.0
2572,C2,164.0,0.031,98,122.0
2573,F#3,164.333,0.141,88,122.0
2574,F#2,164.667,0.031,52,122.0
2575,C#3,164.667,0.094,94,122.0
2576,C#3,164.667,0.094,94,122.0
2577,C#4,164.667,0.094,94,122.0
2578,F#3,164.667,0.094,94,122.0
2579,B3,164.667,0.094,94,122.0
2580,C#3,164.667,0.094,94,122.0
2581,C#4,164.698,0.188,115,122.0
2582,C#2,165.0,0.453,104,122.0
2583,C#2,165.0,73/500,104,122.0
2584,F#3,165.0,73/500,104,122.0
2585,C#3,165.0,0.031,104,122.0
2586,E-2,165.0,0.031,104,122.0
2587,E2,165.0,0.031,104,122.0
2588,C2,165.0,0.031,104,122.0
2589,F#2,165.0,0.031,104,122.0
2590,F#3,165.0,0.031,104,122.0
2591,E-4,165.031,26/125,110,122.0
2592,C#3,165.333,0.062,54,122.0
2593,C#3,165.333,3/25,83,122.0
2594,B3,165.333,3/25,83,122.0
2595,F#3,165.333,3/25,83,122.0
2596,C#4,165.333,3/25,83,122.0
2597,G#4,165.667,901/1000,108,122.0
2598,C#3,165.667,0.031,74,122.0
2599,F#2,165.667,0.031,74,122.0
2600,C#3,165.667,177/1000,101,122.0
2601,C#3,165.667,177/1000,101,122.0
2602,F#3,165.667,177/1000,101,122.0
2603,C#2,166.0,193/1000,123,122.0
2604,C#3,166.0,0.109,74,122.0
2605,C2,166.0,0.031,111,122.0
2606,B3,166.0,0.594,114,122.0
2607,F#3,166.0,0.594,114,122.0
2608,C#4,166.0,0.594,114,122.0
2609,F#2,166.333,0.031,73,122.0
2610,C#3,166.333,151/1000,107,122.0
2611,C#3,166.333,151/1000,107,122.0
2612,E-3,166.333,151/1000,107,122.0
2613,B-2,166.667,0.031,93,122.0
2614,C#2,166.667,99/1000,89,122.0
2615,F#3,166.667,99/1000,89,122.0
2616,B3,166.667,99/1000,89,122.0
2617,C#4,166.667,99/1000,89,122.0
2618,C#3,166.667,99/1000,89,122.0
2619,F#4,166.682,161/1000,107,122.0
2620,C#3,167.0,0.406,115,122.0
2621,C#3,167.0,27/200,98,122.0
2622,C#3,167.0,573/1000,103,122.0
2623,C#3,167.0,573/1000,103,122.0
2624,E-4,167.0,573/1000,103,122.0
2625,E-2,167.0,0.031,111,122.0
2626,E2,167.0,0.031,111,122.0
2627,F#2,167.0,0.031,111,122.0
2628,C2,167.0,0.031,111,122.0
2629,F#3,167.0,0.031,111,122.0
2630,B3,167.333,151/1000,92,122.0
2631,F#3,167.333,151/1000,92,122.0
2632,C#4,167.333,151/1000,92,122.0
2633,E-3,167.667,0.125,100,122.0
2634,E-3,167.667,0.125,100,122.0
2635,E-4,167.667,0.125,100,122.0
2636,E-3,167.667,0.125,100,122.0
2637,C#4,167.667,0.125,100,122.0
2638,C2,167.667,0.031,78,122.0
2639,F#2,167.667,0.031,78,122.0
2640,E-1,168.0,67/125,119,122.0
2641,E-1,168.0,307/1000,88,122.0
2642,E-2,168.0,13/100,89,122.0
2643,E-1,168.0,0.625,110,122.0
2644,E-4,168.0,0.625,110,122.0
2645,C#3,168.0,0.031,108,122.0
2646,C2,168.0,0.031,108,122.0
2647,E-3,168.333,167/1000,95,122.0
2648,F#2,168.667,0.031,64,122.0
2649,E-2,168.667,151/1000,102,122.0
2650,E-2,168.667,151/1000,102,122.0
2651,E-2,168.667,151/1000,102,122.0
2652,E-2,168.667,151/1000,102,122.0
2653,E-1,169.0,263/500,93,122.0
2654,E-1,169.0,13/100,98,122.0
2655,E-4,169.0,13/100,98,122.0
2656,G#3,169.0,13/100,98,122.0
2657,C#3,169.0,13/100,98,122.0
2658,B-3,169.0,0.031,107,122.0
2659,C#4,169.0,0.031,107,122.0
2660,E-2,169.0,0.031,107,122.0
2661,E2,169.0,0.031,107,122.0
2662,F#2,169.0,0.031,107,122.0
2663,C2,169.0,0.031,107,122.0
2664,F#3,169.0,0.031,107,122.0
2665,C#2,169.333,0.156,88,122.0
2666,C#2,169.333,0.156,88,122.0
2667,E-3,169.333,0.156,88,122.0
2668,E-2,169.667,0.172,90,122.0
2669,E-2,169.667,0.172,90,122.0
2670,E-4,169.667,0.172,90,122.0
2671,G#3,169.667,0.172,90,122.0
2672,E-2,169.667,0.172,90,122.0
2673,C#4,169.667,0.031,81,122.0
2674,B-3,169.667,0.031,81,122.0
2675,E-4,169.667,0.031,81,122.0
2676,G#3,169.667,0.031,81,122.0
2677,F#2,169.667,0.031,81,122.0
2678,F#2,170.0,91/500,95,122.0
2679,F#1,170.0,0.672,102,122.0
2680,F#1,170.0,0.672,102,122.0
2681,F#1,170.0,0.672,102,122.0
2682,F#2,170.0,0.672,102,122.0
2683,F#3,170.0,0.469,95,122.0
2684,B-3,170.0,0.469,95,122.0
2685,C#4,170.0,0.469,95,122.0
2686,F#2,170.0,0.031,98,122.0
2687,C2,170.0,0.031,98,122.0
2688,F#3,170.333,0.125,104,122.0
2689,F#2,170.667,0.031,62,122.0
2690,F#2,170.667,167/1000,87,122.0
2691,F#2,170.667,167/1000,87,122.0
2692,F#3,170.667,167/1000,87,122.0
2693,B-3,170.667,167/1000,87,122.0
2694,C#4,170.667,167/1000,87,122.0
2695,F#2,170.667,167/1000,87,122.0
2696,G#1,171.0,0.672,91,122.0
2697,G#1,171.0,177/1000,90,122.0
2698,G#2,171.0,177/1000,90,122.0
2699,C4,171.0,521/1000,98,122.0
2700,G#2,171.0,521/1000,98,122.0
2701,G#1,171.0,521/1000,98,122.0
2702,G#3,171.0,521/1000,98,122.0
2703,E-4,171.0,521/1000,98,122.0
2704,E-2,171.0,0.031,110,122.0
2705,E2,171.0,0.031,110,122.0
2706,F#2,171.0,0.031,110,122.0
2707,C2,171.0,0.031,110,122.0
2708,F#3,171.0,0.031,110,122.0
2709,G#2,171.333,0.203,91,122.0
2710,G#3,171.333,13/100,88,122.0
2711,F#2,171.667,0.031,53,122.0
2712,F#2,171.667,13/100,97,122.0
2713,F#2,171.667,13/100,97,122.0
2714,G#3,171.667,13/100,97,122.0
2715,E-4,171.667,13/100,97,122.0
2716,F#3,171.667,13/100,97,122.0
2717,C4,171.667,13/100,101,122.0
2718,G#3,171.667,13/100,101,122.0
2719,E-4,171.667,13/100,101,122.0
2720,F#3,171.667,13/100,101,122.0
2721,E-1,172.0,557/1000,114,122.0
2722,E-1,172.0,667/1000,103,122.0
2723,E-1,172.0,69/250,96,122.0
2724,E-2,172.0,0.172,96,122.0
2725,C2,172.0,0.031,99,122.0
2726,F#2,172.0,0.031,99,122.0
2727,E-3,172.333,0.109,89,122.0
2728,F#2,172.667,0.031,56,122.0
2729,E-2,172.667,0.125,104,122.0
2730,E-2,172.667,0.125,104,122.0
2731,E-2,172.667,0.125,104,122.0
2732,E-2,172.667,0.125,104,122.0
2733,E-1,173.0,67/125,99,122.0
2734,E-1,173.0,161/1000,100,122.0
2735,C#3,173.0,161/1000,100,122.0
2736,C#4,173.0,0.031,102,122.0
2737,E-2,173.0,0.031,102,122.0
2738,E2,173.0,0.031,102,122.0
2739,F#2,173.0,0.031,102,122.0
2740,C2,173.0,0.031,102,122.0
2741,F#3,173.0,0.031,102,122.0
2742,C#2,173.333,0.094,96,122.0
2743,E-2,173.333,0.094,96,122.0
2744,E-2,173.333,0.094,96,122.0
2745,F#2,173.667,0.031,52,122.0
2746,E-2,173.667,161/1000,100,122.0
2747,E-2,173.667,161/1000,100,122.0
2748,C#4,173.667,161/1000,100,122.0
2749,E-3,173.667,161/1000,100,122.0
2750,E-1,174.0,13/125,92,122.0
2751,E-2,174.0,13/125,92,122.0
2752,C2,174.0,0.031,96,122.0
2753,F#2,174.0,0.031,96,122.0
2754,C#2,174.333,161/1000,99,122.0
2755,C#2,174.333,161/1000,99,122.0
2756,C#4,174.333,161/1000,99,122.0
2757,F#4,174.333,161/1000,99,122.0
2758,C#3,174.333,161/1000,99,122.0
2759,B-2,174.667,0.031,73,122.0
2760,B-1,174.667,23/200,98,122.0
2761,C#1,174.667,23/200,98,122.0
2762,E-2,174.667,23/200,98,122.0
2763,E-2,174.667,23/200,98,122.0
2764,C#2,175.0,0.641,110,122.0
2765,C#2,175.0,99/500,107,122.0
2766,C#3,175.0,99/500,107,122.0
2767,E-4,175.0,0.031,104,122.0
2768,B-3,175.0,0.031,104,122.0
2769,E-2,175.0,0.031,104,122.0
2770,E2,175.0,0.031,104,122.0
2771,C2,175.0,0.031,104,122.0
2772,F#2,175.0,0.031,104,122.0
2773,F#3,175.0,0.031,104,122.0
2774,B-1,175.333,0.391,101,122.0
2775,E-2,175.333,177/1000,97,122.0
2776,E-2,175.333,13/125,82,122.0
2777,E-2,175.667,0.203,98,122.0
2778,E-2,175.667,0.203,98,122.0
2779,G#3,175.667,0.172,98,122.0
2780,C#4,175.667,0.172,98,122.0
2781,E-3,175.667,0.172,98,122.0
2782,C2,175.667,0.031,65,122.0
2783,F#2,175.667,0.031,65,122.0
2784,E-1,176.0,271/500,101,122.0
2785,E-2,176.0,0.141,98,122.0
2786,E-1,176.0,127/200,100,122.0
2787,E-1,176.0,127/200,100,122.0
2788,C2,176.0,0.031,113,122.0
2789,F#2,176.0,0.031,113,122.0
2790,E-3,176.333,0.141,92,122.0
2791,E-2,176.667,0.219,99,122.0
2792,E-2,176.667,0.219,99,122.0
2793,E-2,176.667,0.219,99,122.0
2794,E-2,176.667,0.031,72,122.0
2795,F#2,176.667,0.031,72,122.0
2796,E-1,177.0,0.641,103,122.0
2797,E-1,177.0,107/500,98,122.0
2798,E-4,177.0,107/500,98,122.0
2799,C#4,177.0,0.031,99,122.0
2800,B-3,177.0,0.031,99,122.0
2801,C#3,177.0,0.031,99,122.0
2802,E-2,177.0,0.031,99,122.0
2803,E2,177.0,0.031,99,122.0
2804,F#2,177.0,0.031,99,122.0
2805,C2,177.0,0.031,99,122.0
2806,F#3,177.0,0.031,99,122.0
2807,C#2,177.333,73/500,98,122.0
2808,E-3,177.333,73/500,98,122.0
2809,E-2,177.667,73/500,97,122.0
2810,E-2,177.667,73/500,97,122.0
2811,E-2,177.667,73/500,97,122.0
2812,E-4,177.667,0.031,78,122.0
2813,B-3,177.667,0.031,78,122.0
2814,G#3,177.667,0.031,78,122.0
2815,F#2,177.667,0.031,78,122.0
2816,F#1,178.0,151/250,97,122.0
2817,F#2,178.0,99/500,97,122.0
2818,F#1,178.0,0.703,100,122.0
2819,F#1,178.0,0.703,100,122.0
2820,F#2,178.0,0.031,102,122.0
2821,C2,178.0,0.031,102,122.0
2822,B-3,178.333,161/1000,90,122.0
2823,C#4,178.333,161/1000,90,122.0
2824,F#3,178.333,161/1000,90,122.0
2825,F#3,178.333,161/1000,90,122.0
2826,F#2,178.667,0.031,62,122.0
2827,F#2,178.667,177/1000,98,122.0
2828,F#2,178.667,177/1000,98,122.0
2829,F#2,178.667,177/1000,98,122.0
2830,F#2,178.667,177/1000,98,122.0
2831,G#1,179.0,0.688,92,122.0
2832,G#2,179.0,73/500,81,122.0
2833,G#1,179.0,0.469,99,122.0
2834,C4,179.0,0.469,99,122.0
2835,G#3,179.0,0.469,99,122.0
2836,G#1,179.0,521/1000,101,122.0
2837,E-4,179.0,521/1000,101,122.0
2838,E-2,179.0,0.031,112,122.0
2839,E2,179.0,0.031,112,122.0
2840,F#2,179.0,0.031,112,122.0
2841,C2,179.0,0.031,112,122.0
2842,F#3,179.0,0.031,112,122.0
2843,G#2,179.333,0.141,86,122.0
2844,G#3,179.333,0.141,86,122.0
2845,F#2,179.667,0.031,64,122.0
2846,F#2,179.667,0.156,87,122.0
2847,F#2,179.667,0.156,87,122.0
2848,C4,179.667,0.156,87,122.0
2849,E-4,179.667,0.156,87,122.0
2850,G#3,179.667,0.156,87,122.0
2851,G#2,179.667,0.156,87,122.0
2852,F#3,179.667,0.156,87,122.0
2853,E-2,180.0,73/500,101,122.0
2854,E-1,180.0,521/1000,109,122.0
2855,E-1,180.0,521/1000,109,122.0
2856,E-1,180.0,521/1000,109,122.0
2857,B1,180.0,0.031,98,122.0
2858,F#2,180.0,0.031,98,122.0
2859,F#3,180.333,0.125,90,122.0
2860,E-3,180.333,0.125,90,122.0
2861,F#2,180.667,0.031,64,122.0
2862,E-2,180.667,0.109,102,122.0
2863,E-2,180.667,0.109,102,122.0
2864,E-2,180.667,0.109,102,122.0
2865,E-2,180.667,0.109,102,122.0
2866,E-1,181.0,0.203,108,122.0
2867,E-1,181.0,557/1000,115,122.0
2868,F#3,181.0,0.031,105,122.0
2869,C#3,181.0,0.031,105,122.0
2870,F#2,181.0,0.031,105,122.0
2871,E2,181.0,0.031,105,122.0
2872,B1,181.0,0.031,105,122.0
2873,F#3,181.0,0.031,105,122.0
2874,E-1,181.333,26/125,95,122.0
2875,C#2,181.333,0.125,92,122.0
2876,E-3,181.333,0.125,92,122.0
2877,B-2,181.667,0.266,104,122.0
2878,F#2,181.667,0.031,68,122.0
2879,E-2,181.667,0.109,101,122.0
2880,E-2,181.667,0.109,101,122.0
2881,F#4,181.667,0.109,101,122.0
2882,C#4,181.667,0.109,101,122.0
2883,E-2,182.0,73/500,95,122.0
2884,E-1,182.0,69/125,110,122.0
2885,E-1,182.0,69/125,110,122.0
2886,B1,182.0,0.031,89,122.0
2887,F#2,182.0,0.031,89,122.0
2888,C#3,182.333,151/1000,90,122.0
2889,B-3,182.333,0.031,98,122.0
2890,E-4,182.333,0.031,98,122.0
2891,E2,182.333,0.031,98,122.0
2892,E-2,182.667,0.188,104,122.0
2893,E-2,182.667,73/1000,95,122.0
2894,E-2,182.667,73/1000,95,122.0
2895,E-2,182.667,73/1000,95,122.0
2896,E2,182.667,0.031,91,122.0
2897,B-2,182.667,0.031,91,122.0
2898,C#4,183.0,101/200,112,122.0
2899,G#2,183.0,26/125,105,122.0
2900,E-2,183.0,37/100,108,122.0
2901,E-2,183.0,37/100,108,122.0
2902,G#3,183.0,37/100,108,122.0
2903,E2,183.0,0.031,114,122.0
2904,B1,183.0,0.031,114,122.0
2905,F#3,183.0,0.031,114,122.0
2906,C#2,183.333,51/200,92,122.0
2907,C#2,183.333,51/200,92,122.0
2908,E-2,183.333,0.109,103,122.0
2909,C#4,183.333,0.109,103,122.0
2910,E-2,183.333,0.109,103,122.0
2911,E2,183.667,0.031,113,122.0
2912,B-1,183.667,167/1000,110,122.0
2913,B-1,183.667,167/1000,110,122.0
2914,B-3,183.667,167/1000,110,122.0
2915,E-4,183.667,167/1000,110,122.0
2916,F#2,183.667,167/1000,110,122.0
2917,E-4,183.667,167/1000,103,122.0
2918,B-3,183.667,167/1000,103,122.0
2919,E-4,183.667,167/1000,103,122.0
2920,F#2,183.667,167/1000,103,122.0
2921,G#2,184.0,0.797,110,122.0
2922,G#2,184.0,0.797,110,122.0
2923,G#2,184.0,0.797,110,122.0
2924,G#3,184.0,0.797,110,122.0
2925,G#4,184.0,0.797,110,122.0
2926,G#3,184.0,0.797,110,122.0
2927,C#3,184.0,0.031,108,122.0
2928,C2,184.0,0.031,108,122.0
2929,F#2,184.667,0.031,64,122.0
2930,G#2,185.0,271/500,109,122.0
2931,G#2,185.0,271/500,109,122.0
2932,G#4,185.0,271/500,109,122.0
2933,G#3,185.0,271/500,109,122.0
2934,G#2,185.0,151/250,100,122.0
2935,G#3,185.0,151/250,100,122.0
2936,G#4,185.0,151/250,100,122.0
2937,E-2,185.0,0.031,109,122.0
2938,E2,185.0,0.031,109,122.0
2939,F#2,185.0,0.031,109,122.0
2940,C2,185.0,0.031,109,122.0
2941,F#3,185.0,0.031,109,122.0
2942,F#2,185.667,6/25,87,122.0
2943,F#2,185.667,0.156,96,122.0
2944,F#2,185.667,0.156,96,122.0
2945,F#3,185.667,0.156,96,122.0
2946,F#3,185.667,0.156,96,122.0
2947,F#4,185.667,0.031,73,122.0
2948,F#2,185.667,0.031,73,122.0
2949,G#2,186.0,127/200,105,122.0
2950,G#2,186.0,127/200,105,122.0
2951,G#3,186.0,127/200,105,122.0
2952,G#2,186.0,0.531,105,122.0
2953,G#4,186.0,0.531,105,122.0
2954,G#3,186.0,0.531,105,122.0
2955,F#2,186.0,0.031,98,122.0
2956,C2,186.0,0.031,98,122.0
2957,F#2,186.667,0.031,62,122.0
2958,F#2,186.667,91/500,91,122.0
2959,F#2,186.667,91/500,91,122.0
2960,F#3,186.667,91/500,91,122.0
2961,F#2,186.667,91/500,91,122.0
2962,F#4,186.667,91/500,91,122.0
2963,F#3,186.667,91/500,91,122.0
2964,E-2,187.0,0.438,104,122.0
2965,E-2,187.0,0.516,105,122.0
2966,E-2,187.0,0.516,105,122.0
2967,E-3,187.0,0.516,105,122.0
2968,E-4,187.0,0.516,105,122.0
2969,E-3,187.0,0.516,105,122.0
2970,E-2,187.0,0.031,110,122.0
2971,E2,187.0,0.031,110,122.0
2972,F#2,187.0,0.031,110,122.0
2973,C2,187.0,0.031,110,122.0
2974,F#3,187.0,0.031,110,122.0
2975,F#2,187.667,0.031,53,122.0
2976,C#2,187.667,151/1000,95,122.0
2977,C#2,187.667,151/1000,95,122.0
2978,C#3,187.667,151/1000,95,122.0
2979,C#2,187.667,151/1000,95,122.0
2980,C#4,187.667,151/1000,95,122.0
2981,C#3,187.667,151/1000,95,122.0
2982,E-3,188.0,661/1000,94,122.0
2983,E-2,188.0,393/500,112,122.0
2984,E-2,188.0,393/500,112,122.0
2985,E-2,188.0,67/125,102,122.0
2986,E-4,188.0,67/125,102,122.0
2987,E-3,188.0,67/125,102,122.0
2988,C2,188.0,0.031,99,122.0
2989,F#2,188.0,0.031,99,122.0
2990,C#4,188.667,99/1000,92,122.0
2991,C#3,188.667,167/1000,95,122.0
2992,F#2,188.667,0.031,56,122.0
2993,E-3,189.0,0.266,97,122.0
2994,E-1,189.0,0.531,117,122.0
2995,E-1,189.0,0.531,117,122.0
2996,B-3,189.0,167/1000,105,122.0
2997,B-2,189.0,167/1000,105,122.0
2998,E-2,189.0,0.031,108,122.0
2999,E2,189.0,0.031,108,122.0
3000,F#2,189.0,0.031,108,122.0
3001,C2,189.0,0.031,108,122.0
3002,F#3,189.0,0.031,108,122.0
3003,C#3,189.333,27/200,78,122.0
3004,G#3,189.333,27/200,78,122.0
3005,G#2,189.333,27/200,78,122.0
3006,B-3,189.667,177/250,102,122.0
3007,F#2,189.667,0.031,52,122.0
3008,E-2,189.667,13/100,115,122.0
3009,E-2,189.667,13/100,115,122.0
3010,E-3,189.667,0.531,100,122.0
3011,B-2,189.667,0.531,100,122.0
3012,E-1,190.0,6/25,107,122.0
3013,E-1,190.0,6/25,107,122.0
3014,C2,190.0,0.031,96,122.0
3015,F#2,190.0,0.031,96,122.0
3016,E-2,190.333,151/1000,97,122.0
3017,E-2,190.333,151/1000,97,122.0
3018,C#3,190.333,151/1000,97,122.0
3019,G#2,190.333,151/1000,97,122.0
3020,B-2,190.667,13/125,90,122.0
3021,B-2,190.667,0.031,73,122.0
3022,E-1,190.667,23/200,98,122.0
3023,E-1,190.667,23/200,98,122.0
3024,E-3,190.667,23/200,98,122.0
3025,C#3,191.0,0.453,110,122.0
3026,F#1,191.0,583/1000,105,122.0
3027,F#1,191.0,583/1000,105,122.0
3028,F#3,191.0,583/1000,105,122.0
3029,E-2,191.0,0.031,107,122.0
3030,E2,191.0,0.031,107,122.0
3031,C2,191.0,0.031,107,122.0
3032,F#2,191.0,0.031,107,122.0
3033,F#3,191.0,0.031,107,122.0
3034,E-4,191.333,0.078,92,122.0
3035,E-1,191.667,49/200,89,122.0
3036,E-1,191.667,49/200,89,122.0
3037,E-3,191.667,151/1000,88,122.0
3038,E-4,191.667,151/1000,88,122.0
3039,E-3,191.667,151/1000,88,122.0
3040,C2,191.667,0.031,65,122.0
3041,F#2,191.667,0.031,65,122.0
3042,G#3,192.0,0.625,96,122.0
3043,G#2,192.0,0.734,112,122.0
3044,G#2,192.0,0.734,112,122.0
3045,G#3,192.0,0.734,112,122.0
3046,G#2,192.0,0.688,108,122.0
3047,G#4,192.0,0.688,108,122.0
3048,C2,192.0,0.031,113,122.0
3049,F#2,192.0,0.031,113,122.0
3050,F#2,192.667,0.031,66,122.0
3051,G#2,193.0,521/1000,109,122.0
3052,G#2,193.0,521/1000,109,122.0
3053,G#3,193.0,521/1000,109,122.0
3054,G#4,193.0,521/1000,109,122.0
3055,G#3,193.0,521/1000,109,122.0
3056,G#2,193.0,521/1000,105,122.0
3057,G#4,193.0,521/1000,105,122.0
3058,G#3,193.0,521/1000,105,122.0
3059,E-2,193.0,0.031,112,122.0
3060,E2,193.0,0.031,112,122.0
3061,F#2,193.0,0.031,112,122.0
3062,C2,193.0,0.031,112,122.0
3063,F#3,193.0,0.031,112,122.0
3064,F#2,193.667,0.141,99,122.0
3065,F#2,193.667,0.141,99,122.0
3066,F#2,193.667,0.141,99,122.0
3067,F#4,193.667,0.141,99,122.0
3068,F#3,193.667,0.141,99,122.0
3069,F#3,193.667,0.031,82,122.0
3070,F#4,193.667,0.031,82,122.0
3071,F#3,193.667,0.031,82,122.0
3072,F#2,193.667,0.031,82,122.0
3073,G#3,194.0,323/500,91,122.0
3074,G#3,194.0,479/1000,112,122.0
3075,G#2,194.0,263/500,111,122.0
3076,G#2,194.0,263/500,111,122.0
3077,G#2,194.0,263/500,111,122.0
3078,G#4,194.0,263/500,111,122.0
3079,F#2,194.0,0.031,102,122.0
3080,C2,194.0,0.031,102,122.0
3081,F#2,194.667,0.031,62,122.0
3082,F#2,194.667,0.172,90,122.0
3083,F#2,194.667,0.172,90,122.0
3084,F#3,194.667,0.172,90,122.0
3085,F#2,194.667,0.172,90,122.0
3086,F#4,194.667,0.172,90,122.0
3087,F#3,194.667,0.172,90,122.0
3088,E-3,195.0,411/1000,94,122.0
3089,E-2,195.0,0.531,107,122.0
3090,E-2,195.0,0.531,107,122.0
3091,E-3,195.0,0.531,107,122.0
3092,E-2,195.0,28/125,104,122.0
3093,E-4,195.0,28/125,104,122.0
3094,E-2,195.0,0.031,112,122.0
3095,E2,195.0,0.031,112,122.0
3096,F#2,195.0,0.031,112,122.0
3097,C2,195.0,0.031,112,122.0
3098,F#3,195.0,0.031,112,122.0
3099,F#2,195.667,0.031,64,122.0
3100,C#2,195.667,0.141,98,122.0
3101,C#2,195.667,0.141,98,122.0
3102,C#3,195.667,0.141,98,122.0
3103,C#2,195.667,0.141,98,122.0
3104,C#4,195.667,0.141,98,122.0
3105,C#3,195.667,0.141,98,122.0
3106,E-3,196.0,69/250,102,122.0
3107,E-2,196.0,263/500,110,122.0
3108,E-2,196.0,263/500,110,122.0
3109,E-4,196.0,263/500,110,122.0
3110,F#2,196.0,0.031,98,122.0
3111,C2,196.0,0.031,98,122.0
3112,C#4,196.333,23/200,74,122.0
3113,G#3,196.333,23/200,74,122.0
3114,E-4,196.333,23/200,79,122.0
3115,G#3,196.333,23/200,79,122.0
3116,C#2,196.667,0.031,84,122.0
3117,C#2,196.667,0.031,84,122.0
3118,G#3,196.667,0.031,84,122.0
3119,C#4,196.667,0.031,84,122.0
3120,F#2,196.667,0.031,84,122.0
3121,C#4,196.667,3/25,103,122.0
3122,G#3,196.667,3/25,103,122.0
3123,C#4,196.667,3/25,103,122.0
3124,B-3,197.0,107/500,100,122.0
3125,E-1,197.0,0.656,101,122.0
3126,E-1,197.0,0.656,101,122.0
3127,E-4,197.0,0.031,104,122.0
3128,B-3,197.0,0.031,104,122.0
3129,G#3,197.0,0.031,104,122.0
3130,C#4,197.0,0.031,104,122.0
3131,E-2,197.0,0.031,104,122.0
3132,E2,197.0,0.031,104,122.0
3133,C2,197.0,0.031,104,122.0
3134,F#2,197.0,0.031,104,122.0
3135,F#3,197.0,0.031,104,122.0
3136,G#3,197.333,23/200,96,122.0
3137,G#3,197.333,23/200,96,122.0
3138,C#4,197.333,23/200,96,122.0
3139,G#3,197.667,0.344,92,122.0
3140,F#3,197.667,693/1000,105,122.0
3141,F#2,197.667,0.031,66,122.0
3142,E-2,197.667,0.125,119,122.0
3143,E-2,197.667,0.125,119,122.0
3144,B-3,197.667,479/1000,90,122.0
3145,E-4,197.667,479/1000,90,122.0
3146,C#4,197.667,479/1000,90,122.0
3147,C2,198.0,0.031,111,122.0
3148,E-1,198.0,0.266,104,122.0
3149,E-1,198.0,0.266,104,122.0
3150,G#3,198.0,13/100,104,122.0
3151,C#4,198.0,13/100,104,122.0
3152,F#2,198.333,0.031,73,122.0
3153,E-2,198.333,27/200,91,122.0
3154,E-2,198.333,27/200,91,122.0
3155,E-4,198.333,27/200,91,122.0
3156,C#4,198.333,27/200,91,122.0
3157,B-3,198.333,27/200,91,122.0
3158,G#3,198.333,27/200,91,122.0
3159,E-4,198.333,27/200,91,122.0
3160,B-3,198.333,27/200,91,122.0
3161,B-2,198.667,0.031,93,122.0
3162,E-1,198.667,193/1000,89,122.0
3163,E-1,198.667,193/1000,89,122.0
3164,F#1,199.0,0.25,114,122.0
3165,F#1,199.0,0.25,114,122.0
3166,G#3,199.0,0.031,110,122.0
3167,E-2,199.0,0.031,110,122.0
3168,E2,199.0,0.031,110,122.0
3169,F#2,199.0,0.031,110,122.0
3170,C2,199.0,0.031,110,122.0
3171,F#3,199.0,0.031,110,122.0
3172,B-3,199.0,58/125,99,122.0
3173,E-4,199.0,58/125,99,122.0
3174,C#4,199.0,58/125,99,122.0
3175,B-3,199.0,58/125,99,122.0
3176,E-4,199.0,58/125,99,122.0
3177,F#2,199.333,27/200,110,122.0
3178,F#2,199.333,27/200,110,122.0
3179,E-4,199.333,27/200,110,122.0
3180,F#1,199.667,23/200,94,122.0
3181,F#1,199.667,23/200,94,122.0
3182,B-3,199.667,23/200,94,122.0
3183,G#3,199.667,23/200,94,122.0
3184,E-4,199.667,23/200,94,122.0
3185,B-3,199.667,23/200,94,122.0
3186,C2,199.667,0.031,78,122.0
3187,F#2,199.667,0.031,78,122.0
3188,G#1,200.0,427/500,109,122.0
3189,G#1,200.0,427/500,109,122.0
3190,G#3,200.0,0.672,106,122.0
3191,G#2,200.0,0.672,106,122.0
3192,G#4,200.0,0.672,106,122.0
3193,G#3,200.0,0.672,106,122.0
3194,C#3,200.0,0.031,108,122.0
3195,C2,200.0,0.031,108,122.0
3196,F#2,200.667,0.031,64,122.0
3197,G#2,201.0,263/500,112,122.0
3198,G#2,201.0,263/500,112,122.0
3199,G#2,201.0,263/500,112,122.0
3200,G#3,201.0,263/500,112,122.0
3201,G#3,201.0,263/500,112,122.0
3202,G#4,201.0,263/500,114,122.0
3203,G#3,201.0,263/500,114,122.0
3204,E-2,201.0,0.031,109,122.0
3205,E2,201.0,0.031,109,122.0
3206,F#2,201.0,0.031,109,122.0
3207,C2,201.0,0.031,109,122.0
3208,F#3,201.0,0.031,109,122.0
3209,F#2,201.667,0.031,59,122.0
3210,F#2,201.667,23/200,90,122.0
3211,F#2,201.667,23/200,90,122.0
3212,F#2,201.667,23/200,90,122.0
3213,F#3,201.667,23/200,90,122.0
3214,F#4,201.667,23/200,90,122.0
3215,F#3,201.667,23/200,90,122.0
3216,G#3,202.0,54/125,110,122.0
3217,G#2,202.0,599/1000,115,122.0
3218,G#2,202.0,599/1000,115,122.0
3219,G#2,202.0,599/1000,115,122.0
3220,G#4,202.0,599/1000,115,122.0
3221,G#3,202.0,0.516,98,122.0
3222,G#2,202.0,0.516,98,122.0
3223,F#2,202.0,0.031,98,122.0
3224,C2,202.0,0.031,98,122.0
3225,F#2,202.667,0.031,62,122.0
3226,F#2,202.667,13/100,92,122.0
3227,F#2,202.667,13/100,92,122.0
3228,F#3,202.667,13/100,92,122.0
3229,F#2,202.667,13/100,92,122.0
3230,F#4,202.667,13/100,92,122.0
3231,F#3,202.667,13/100,92,122.0
3232,E-2,203.0,159/500,104,122.0
3233,E-2,203.0,159/500,104,122.0
3234,E-2,203.0,159/500,104,122.0
3235,E-3,203.0,159/500,104,122.0
3236,E-4,203.0,51/100,105,122.0
3237,E-3,203.0,51/100,105,122.0
3238,E-2,203.0,0.031,110,122.0
3239,E2,203.0,0.031,110,122.0
3240,F#2,203.0,0.031,110,122.0
3241,C2,203.0,0.031,110,122.0
3242,F#3,203.0,0.031,110,122.0
3243,E-2,203.333,13/50,61,122.0
3244,E-2,203.333,13/50,61,122.0
3245,C#2,203.667,0.141,90,122.0
3246,C#2,203.667,0.141,90,122.0
3247,C#3,203.667,0.141,90,122.0
3248,C#2,203.667,0.141,90,122.0
3249,C#3,203.667,0.141,90,122.0
3250,C#4,203.667,0.031,60,122.0
3251,F#2,203.667,0.031,60,122.0
3252,E-2,204.0,28/125,102,122.0
3253,E-1,204.0,341/500,107,122.0
3254,E-1,204.0,341/500,107,122.0
3255,E-4,204.0,557/1000,110,122.0
3256,E-3,204.0,557/1000,110,122.0
3257,C2,204.0,0.031,99,122.0
3258,F#2,204.0,0.031,99,122.0
3259,E-4,204.333,83/1000,72,122.0
3260,G#3,204.333,83/1000,72,122.0
3261,F#2,204.667,0.031,56,122.0
3262,E-2,204.667,161/1000,103,122.0
3263,E-2,204.667,161/1000,103,122.0
3264,E-2,204.667,161/1000,103,122.0
3265,C#4,204.667,161/1000,103,122.0
3266,C#3,204.667,161/1000,103,122.0
3267,E-1,205.0,69/125,115,122.0
3268,E-1,205.0,69/125,115,122.0
3269,G#3,205.0,23/200,97,122.0
3270,E-4,205.0,23/200,97,122.0
3271,C#4,205.0,23/200,97,122.0
3272,B-3,205.0,23/200,97,122.0
3273,B-3,205.0,167/1000,100,122.0
3274,B-2,205.0,167/1000,100,122.0
3275,E-2,205.0,0.031,108,122.0
3276,E2,205.0,0.031,108,122.0
3277,F#2,205.0,0.031,108,122.0
3278,C2,205.0,0.031,108,122.0
3279,F#3,205.0,0.031,108,122.0
3280,G#3,205.333,0.125,83,122.0
3281,G#2,205.333,0.125,83,122.0
3282,C#4,205.667,99/500,102,122.0
3283,F#2,205.667,0.031,52,122.0
3284,E-2,205.667,193/1000,113,122.0
3285,E-2,205.667,193/1000,113,122.0
3286,B-3,205.667,193/1000,113,122.0
3287,G#3,205.667,0.438,95,122.0
3288,E-4,205.667,0.438,95,122.0
3289,B-3,205.667,71/125,106,122.0
3290,B-2,205.667,71/125,106,122.0
3291,E-2,206.0,0.188,95,122.0
3292,E-1,206.0,127/200,121,122.0
3293,E-1,206.0,127/200,121,122.0
3294,C2,206.0,0.031,96,122.0
3295,F#2,206.0,0.031,96,122.0
3296,G#3,206.333,0.125,81,122.0
3297,C#3,206.333,0.312,101,122.0
3298,B-2,206.667,0.031,73,122.0
3299,E-2,206.667,0.188,112,122.0
3300,E-2,206.667,0.188,112,122.0
3301,E-2,206.667,0.188,112,122.0
3302,B-3,206.667,0.188,112,122.0
3303,E-3,207.0,54/125,108,122.0
3304,E-1,207.0,339/1000,117,122.0
3305,E-1,207.0,339/1000,117,122.0
3306,G#3,207.0,0.141,95,122.0
3307,B-3,207.0,0.141,95,122.0
3308,C#4,207.0,0.141,95,122.0
3309,E-4,207.0,0.141,95,122.0
3310,B3,207.0,0.031,100,122.0
3311,E-2,207.0,0.031,100,122.0
3312,E2,207.0,0.031,100,122.0
3313,C2,207.0,0.031,100,122.0
3314,F#2,207.0,0.031,100,122.0
3315,F#3,207.0,0.031,100,122.0
3316,E-2,207.333,167/1000,100,122.0
3317,E-2,207.333,167/1000,100,122.0
3318,E-2,207.333,167/1000,100,122.0
3319,F4,207.667,333/1000,107,122.0
3320,E1,207.667,0.156,104,122.0
3321,E1,207.667,0.156,104,122.0
3322,E-2,207.667,0.156,104,122.0
3323,E-3,207.667,0.156,104,122.0
3324,C2,207.667,0.031,65,122.0
3325,F#2,207.667,0.031,65,122.0
3326,E-3,208.0,1.031,101,122.0
3327,A3,208.0,0.953,111,122.0
3328,F2,208.0,177/250,102,122.0
3329,F2,208.0,0.234,102,122.0
3330,F4,208.0,271/1000,107,122.0
3331,F1,208.0,71/125,122,122.0
3332,F1,208.0,71/125,122,122.0
3333,C2,208.0,0.031,113,122.0
3334,F#2,208.0,0.031,113,122.0
3335,F3,208.333,177/1000,92,122.0
3336,F4,208.667,181/250,107,122.0
3337,F#2,208.667,0.031,66,122.0
3338,F2,208.667,107/500,103,122.0
3339,F2,208.667,107/500,103,122.0
3340,F2,208.667,107/500,103,122.0
3341,F2,209.0,357/500,97,122.0
3342,E-3,209.0,151/1000,108,122.0
3343,F1,209.0,0.625,120,122.0
3344,F1,209.0,0.625,120,122.0
3345,E-2,209.0,0.031,112,122.0
3346,E2,209.0,0.031,112,122.0
3347,F#2,209.0,0.031,112,122.0
3348,C2,209.0,0.031,112,122.0
3349,F#3,209.0,0.031,112,122.0
3350,F3,209.333,0.188,106,122.0
3351,C#4,209.667,349/1000,116,122.0
3352,F#2,209.667,0.031,59,122.0
3353,F2,209.667,161/1000,106,122.0
3354,F2,209.667,161/1000,106,122.0
3355,E-3,209.667,161/1000,106,122.0
3356,A3,209.667,161/1000,106,122.0
3357,F3,209.667,161/1000,106,122.0
3358,F1,210.0,123/200,120,122.0
3359,F1,210.0,123/200,120,122.0
3360,F2,210.0,0.203,92,122.0
3361,F2,210.0,0.203,92,122.0
3362,F#2,210.0,0.031,102,122.0
3363,C2,210.0,0.031,102,122.0
3364,E-3,210.333,161/1000,90,122.0
3365,A3,210.333,161/1000,90,122.0
3366,F3,210.333,161/1000,90,122.0
3367,B-3,210.667,0.422,115,122.0
3368,F#2,210.667,0.031,62,122.0
3369,F2,210.667,0.141,101,122.0
3370,F2,210.667,0.141,101,122.0
3371,F2,210.667,0.141,101,122.0
3372,F2,210.667,0.141,101,122.0
3373,F#2,211.0,151/500,102,122.0
3374,E3,211.0,13/100,66,122.0
3375,G1,211.0,573/1000,116,122.0
3376,G1,211.0,573/1000,116,122.0
3377,B-3,211.0,229/1000,94,122.0
3378,G2,211.0,229/1000,94,122.0
3379,E-2,211.0,0.031,112,122.0
3380,E2,211.0,0.031,112,122.0
3381,F#2,211.0,0.031,112,122.0
3382,C2,211.0,0.031,112,122.0
3383,F#3,211.0,0.031,112,122.0
3384,G3,211.333,99/500,106,122.0
3385,G#4,211.667,333/1000,117,122.0
3386,F#2,211.667,0.031,64,122.0
3387,G2,211.667,27/200,104,122.0
3388,G2,211.667,27/200,104,122.0
3389,G2,211.667,27/200,104,122.0
3390,G2,211.667,27/200,104,122.0
3391,G#2,212.0,237/500,112,122.0
3392,G#2,212.0,0.203,113,122.0
3393,G#4,212.0,349/1000,117,122.0
3394,G#1,212.0,31/50,122,122.0
3395,G#1,212.0,31/50,122,122.0
3396,F#2,212.0,0.031,98,122.0
3397,C2,212.0,0.031,98,122.0
3398,G#3,212.333,167/1000,105,122.0
3399,C4,212.333,0.25,94,122.0
3400,F#3,212.333,0.25,94,122.0
3401,G#2,212.667,13/50,98,122.0
3402,G#4,212.667,123/200,117,122.0
3403,F#2,212.667,0.031,52,122.0
3404,G#2,212.667,73/500,106,122.0
3405,G#2,212.667,73/500,106,122.0
3406,G#2,212.667,73/500,106,122.0
3407,F#3,213.0,229/500,100,122.0
3408,C4,213.0,823/1000,101,122.0
3409,F#3,213.0,0.125,100,122.0
3410,G#1,213.0,63/100,115,122.0
3411,G#1,213.0,63/100,115,122.0
3412,E-2,213.0,0.031,114,122.0
3413,E2,213.0,0.031,114,122.0
3414,C2,213.0,0.031,114,122.0
3415,F#2,213.0,0.031,114,122.0
3416,F#3,213.0,0.031,114,122.0
3417,G#2,213.333,177/1000,96,122.0
3418,G#3,213.333,177/1000,96,122.0
3419,F#3,213.667,28/125,87,122.0
3420,G#4,213.667,427/500,113,122.0
3421,F#2,213.667,0.031,66,122.0
3422,G#2,213.667,0.141,102,122.0
3423,G#2,213.667,0.141,102,122.0
3424,G#2,213.667,0.141,102,122.0
3425,C2,214.0,0.031,111,122.0
3426,C#2,214.0,0.375,111,122.0
3427,C#2,214.0,0.375,111,122.0
3428,C#3,214.0,167/1000,99,122.0
3429,C#3,214.0,167/1000,99,122.0
3430,B3,214.333,0.031,76,122.0
3431,F#2,214.333,0.031,76,122.0
3432,F#3,214.333,177/1000,100,122.0
3433,C#4,214.333,177/1000,100,122.0
3434,C#3,214.667,0.328,101,122.0
3435,B-2,214.667,0.031,93,122.0
3436,C#3,214.667,0.25,114,122.0
3437,C#3,214.667,0.25,114,122.0
3438,F#4,214.667,0.156,98,122.0
3439,C#3,214.667,0.156,98,122.0
3440,C#4,215.0,193/1000,112,122.0
3441,C#2,215.0,0.578,119,122.0
3442,C#2,215.0,0.578,119,122.0
3443,E-4,215.0,0.578,119,122.0
3444,E-4,215.0,409/500,106,122.0
3445,B3,215.0,409/500,106,122.0
3446,F#3,215.0,409/500,106,122.0
3447,E-2,215.0,0.031,111,122.0
3448,E2,215.0,0.031,111,122.0
3449,F#2,215.0,0.031,111,122.0
3450,C2,215.0,0.031,111,122.0
3451,F#3,215.0,0.031,111,122.0
3452,C#3,215.333,13/100,101,122.0
3453,C#3,215.667,0.156,112,122.0
3454,C#3,215.667,0.156,112,122.0
3455,C#4,215.667,0.156,112,122.0
3456,E-4,215.667,0.156,112,122.0
3457,C2,215.667,0.031,78,122.0
3458,F#2,215.667,0.031,78,122.0
3459,E-1,216.0,67/125,119,122.0
3460,E-1,216.0,307/1000,88,122.0
3461,E-2,216.0,27/200,95,122.0
3462,E-1,216.0,0.625,110,122.0
3463,E-4,216.0,0.625,110,122.0
3464,C#3,216.0,0.031,108,122.0
3465,C2,216.0,0.031,108,122.0
3466,E-3,216.333,0.125,86,122.0
3467,F#2,216.667,0.031,64,122.0
3468,E-2,216.667,83/1000,98,122.0
3469,E-2,216.667,83/1000,98,122.0
3470,E-2,216.667,83/1000,98,122.0
3471,E-2,216.667,83/1000,98,122.0
3472,E-1,217.0,263/500,93,122.0
3473,E-1,217.0,23/200,98,122.0
3474,E-4,217.0,23/200,98,122.0
3475,G#3,217.0,23/200,98,122.0
3476,E-2,217.0,23/200,98,122.0
3477,B-3,217.0,0.031,105,122.0
3478,C#4,217.0,0.031,105,122.0
3479,E-2,217.0,0.031,105,122.0
3480,E-2,217.0,0.031,105,122.0
3481,E2,217.0,0.031,105,122.0
3482,F#2,217.0,0.031,105,122.0
3483,C2,217.0,0.031,105,122.0
3484,F#3,217.0,0.031,105,122.0
3485,C#2,217.333,0.125,85,122.0
3486,C#2,217.333,0.125,85,122.0
3487,C#3,217.333,0.125,85,122.0
3488,E-2,217.667,0.109,87,122.0
3489,E-2,217.667,0.109,87,122.0
3490,E-4,217.667,0.109,87,122.0
3491,G#3,217.667,0.109,87,122.0
3492,E-3,217.667,0.109,87,122.0
3493,C#4,217.667,0.031,81,122.0
3494,B-3,217.667,0.031,81,122.0
3495,E-4,217.667,0.031,81,122.0
3496,G#3,217.667,0.031,81,122.0
3497,E-3,217.667,0.031,81,122.0
3498,F#2,217.667,0.031,81,122.0
3499,F#2,218.0,23/200,96,122.0
3500,F#1,218.0,0.672,102,122.0
3501,F#1,218.0,0.672,102,122.0
3502,F#1,218.0,0.672,102,122.0
3503,F#2,218.0,0.672,102,122.0
3504,F#3,218.0,0.469,95,122.0
3505,B-3,218.0,0.469,95,122.0
3506,C#4,218.0,0.469,95,122.0
3507,F#2,218.0,0.031,98,122.0
3508,C2,218.0,0.031,98,122.0
3509,F#3,218.333,0.125,80,122.0
3510,F#2,218.667,0.031,62,122.0
3511,F#2,218.667,0.172,82,122.0
3512,F#2,218.667,0.172,82,122.0
3513,F#3,218.667,0.172,82,122.0
3514,B-3,218.667,0.172,82,122.0
3515,C#4,218.667,0.172,82,122.0
3516,F#2,218.667,0.172,82,122.0
3517,G#1,219.0,229/1000,101,122.0
3518,G#1,219.0,0.672,91,122.0
3519,G#2,219.0,13/100,76,122.0
3520,C4,219.0,521/1000,98,122.0
3521,G#2,219.0,521/1000,98,122.0
3522,G#1,219.0,521/1000,98,122.0
3523,G#3,219.0,521/1000,98,122.0
3524,E-4,219.0,521/1000,98,122.0
3525,E-2,219.0,0.031,110,122.0
3526,E2,219.0,0.031,110,122.0
3527,F#2,219.0,0.031,110,122.0
3528,C2,219.0,0.031,110,122.0
3529,F#3,219.0,0.031,110,122.0
3530,G#2,219.333,0.203,91,122.0
3531,G#3,219.333,23/200,80,122.0
3532,F#2,219.667,0.031,53,122.0
3533,F#2,219.667,73/500,98,122.0
3534,F#2,219.667,73/500,98,122.0
3535,G#3,219.667,73/500,98,122.0
3536,E-4,219.667,73/500,98,122.0
3537,C4,219.667,13/250,92,122.0
3538,G#3,219.667,13/250,92,122.0
3539,E-4,219.667,13/250,92,122.0
3540,F#3,219.667,13/250,92,122.0
3541,E-1,220.0,557/1000,114,122.0
3542,E-1,220.0,667/1000,103,122.0
3543,E-1,220.0,69/250,96,122.0
3544,E-2,220.0,151/1000,83,122.0
3545,C2,220.0,0.031,99,122.0
3546,F#2,220.0,0.031,99,122.0
3547,E-3,220.333,3/25,81,122.0
3548,E-2,220.667,0.188,105,122.0
3549,E-2,220.667,0.188,105,122.0
3550,E-2,220.667,0.188,105,122.0
3551,E-2,220.667,0.031,70,122.0
3552,F#2,220.667,0.031,70,122.0
3553,E-1,221.0,0.203,96,122.0
3554,E-1,221.0,67/125,99,122.0
3555,C#3,221.0,3/25,80,122.0
3556,C#4,221.0,0.031,102,122.0
3557,E-2,221.0,0.031,102,122.0
3558,E2,221.0,0.031,102,122.0
3559,F#2,221.0,0.031,102,122.0
3560,C2,221.0,0.031,102,122.0
3561,F#3,221.0,0.031,102,122.0
3562,C#2,221.333,0.062,93,122.0
3563,E-2,221.333,0.062,93,122.0
3564,E-2,221.333,0.062,93,122.0
3565,F#2,221.667,0.031,52,122.0
3566,E-2,221.667,27/200,91,122.0
3567,E-2,221.667,27/200,91,122.0
3568,C#4,221.667,27/200,91,122.0
3569,E-3,221.667,27/200,91,122.0
3570,E-1,222.0,167/1000,88,122.0
3571,E-2,222.0,0.031,93,122.0
3572,C2,222.0,0.031,93,122.0
3573,F#2,222.0,0.031,93,122.0
3574,C#2,222.333,23/200,94,122.0
3575,C#2,222.333,23/200,94,122.0
3576,C#4,222.333,23/200,94,122.0
3577,F#4,222.333,23/200,94,122.0
3578,C#3,222.333,23/200,94,122.0
3579,B-2,222.667,0.031,73,122.0
3580,B-1,222.667,99/1000,94,122.0
3581,C#1,222.667,99/1000,94,122.0
3582,E-2,222.667,99/1000,94,122.0
3583,E-2,222.667,99/1000,94,122.0
3584,C#2,223.0,0.641,110,122.0
3585,C#2,223.0,6/25,102,122.0
3586,C#3,223.0,6/25,102,122.0
3587,E-4,223.0,0.031,104,122.0
3588,B-3,223.0,0.031,104,122.0
3589,E-2,223.0,0.031,104,122.0
3590,E2,223.0,0.031,104,122.0
3591,C2,223.0,0.031,104,122.0
3592,F#2,223.0,0.031,104,122.0
3593,F#3,223.0,0.031,104,122.0
3594,B-1,223.333,0.391,101,122.0
3595,E-2,223.333,177/1000,97,122.0
3596,E-2,223.333,89/1000,86,122.0
3597,E-2,223.667,0.203,98,122.0
3598,E-2,223.667,0.203,98,122.0
3599,G#3,223.667,27/200,92,122.0
3600,C#4,223.667,27/200,92,122.0
3601,E-3,223.667,27/200,92,122.0
3602,C2,223.667,0.031,65,122.0
3603,F#2,223.667,0.031,65,122.0
3604,E-1,224.0,271/500,101,122.0
3605,E-2,224.0,3/25,94,122.0
3606,E-1,224.0,127/200,100,122.0
3607,E-1,224.0,127/200,100,122.0
3608,C2,224.0,0.031,113,122.0
3609,F#2,224.0,0.031,113,122.0
3610,C#3,224.333,99/1000,82,122.0
3611,E-2,224.667,0.219,99,122.0
3612,E-2,224.667,0.219,99,122.0
3613,E-2,224.667,0.219,99,122.0
3614,E-3,224.667,0.031,70,122.0
3615,F#2,224.667,0.031,70,122.0
3616,E-1,225.0,0.641,103,122.0
3617,E-1,225.0,107/500,98,122.0
3618,E-4,225.0,107/500,98,122.0
3619,C#4,225.0,0.031,100,122.0
3620,B-3,225.0,0.031,100,122.0
3621,E-2,225.0,0.031,100,122.0
3622,E-2,225.0,0.031,100,122.0
3623,E2,225.0,0.031,100,122.0
3624,F#2,225.0,0.031,100,122.0
3625,C2,225.0,0.031,100,122.0
3626,F#3,225.0,0.031,100,122.0
3627,C#2,225.333,23/200,92,122.0
3628,E-3,225.333,23/200,92,122.0
3629,E-2,225.667,0.109,93,122.0
3630,E-2,225.667,0.109,93,122.0
3631,C#3,225.667,0.109,93,122.0
3632,E-4,225.667,0.031,80,122.0
3633,B-3,225.667,0.031,80,122.0
3634,G#3,225.667,0.031,80,122.0
3635,C#3,225.667,0.031,80,122.0
3636,F#2,225.667,0.031,80,122.0
3637,F#1,226.0,151/250,97,122.0
3638,F#2,226.0,0.141,95,122.0
3639,F#1,226.0,0.703,100,122.0
3640,F#1,226.0,0.703,100,122.0
3641,F#2,226.0,0.031,102,122.0
3642,C2,226.0,0.031,102,122.0
3643,B-3,226.333,27/200,86,122.0
3644,C#4,226.333,27/200,86,122.0
3645,F#3,226.333,27/200,86,122.0
3646,F#3,226.333,27/200,86,122.0
3647,F#2,226.667,0.031,62,122.0
3648,F#2,226.667,27/200,96,122.0
3649,F#2,226.667,27/200,96,122.0
3650,F#2,226.667,27/200,96,122.0
3651,F#2,226.667,27/200,96,122.0
3652,G#1,227.0,0.688,92,122.0
3653,G#2,227.0,0.125,79,122.0
3654,G#1,227.0,0.469,99,122.0
3655,C4,227.0,0.469,99,122.0
3656,G#3,227.0,0.469,99,122.0
3657,G#1,227.0,521/1000,101,122.0
3658,E-4,227.0,521/1000,101,122.0
3659,E-2,227.0,0.031,112,122.0
3660,E2,227.0,0.031,112,122.0
3661,F#2,227.0,0.031,112,122.0
3662,C2,227.0,0.031,112,122.0
3663,F#3,227.0,0.031,112,122.0
3664,G#2,227.333,99/500,85,122.0
3665,G#3,227.333,13/100,86,122.0
3666,F#2,227.667,0.031,64,122.0
3667,F#2,227.667,27/200,87,122.0
3668,F#2,227.667,27/200,87,122.0
3669,C4,227.667,27/200,87,122.0
3670,E-4,227.667,27/200,87,122.0
3671,G#3,227.667,27/200,87,122.0
3672,G#2,227.667,27/200,87,122.0
3673,F#3,227.667,27/200,87,122.0
3674,E-1,228.0,521/1000,98,122.0
3675,E-2,228.0,0.125,87,122.0
3676,E-1,228.0,63/100,106,122.0
3677,E-1,228.0,63/100,106,122.0
3678,F#2,228.0,0.031,98,122.0
3679,C2,228.0,0.031,98,122.0
3680,F#3,228.333,0.141,84,122.0
3681,E-3,228.333,0.141,84,122.0
3682,F#2,228.667,0.031,52,122.0
3683,E-2,228.667,0.094,99,122.0
3684,E-2,228.667,0.094,99,122.0
3685,E-2,228.667,0.094,99,122.0
3686,E-2,228.667,0.094,99,122.0
3687,E-1,229.0,521/1000,88,122.0
3688,C#3,229.0,73/500,83,122.0
3689,E-1,229.0,0.031,109,122.0
3690,F#3,229.0,0.031,109,122.0
3691,E-2,229.0,0.031,109,122.0
3692,E2,229.0,0.031,109,122.0
3693,C2,229.0,0.031,109,122.0
3694,F#2,229.0,0.031,109,122.0
3695,F#3,229.0,0.031,109,122.0
3696,E-1,229.333,26/125,95,122.0
3697,E-1,229.333,23/200,98,122.0
3698,E-2,229.333,23/200,98,122.0
3699,B-2,229.667,0.703,104,122.0
3700,B-2,229.667,349/1000,97,122.0
3701,F#2,229.667,0.031,66,122.0
3702,E-2,229.667,0.109,97,122.0
3703,F#4,229.667,0.109,97,122.0
3704,C#4,229.667,0.109,97,122.0
3705,G#1,230.0,0.266,83,122.0
3706,E-2,230.0,73/500,95,122.0
3707,C2,230.0,0.031,111,122.0
3708,C#3,230.333,0.156,82,122.0
3709,B-1,230.333,0.156,82,122.0
3710,B-2,230.333,0.156,82,122.0
3711,B-3,230.333,0.031,93,122.0
3712,E-4,230.333,0.031,93,122.0
3713,F#2,230.333,0.031,93,122.0
3714,E-2,230.667,0.188,104,122.0
3715,B-2,230.667,0.031,93,122.0
3716,E-1,230.667,0.125,100,122.0
3717,C#2,230.667,0.125,100,122.0
3718,A2,231.0,151/1000,100,122.0
3719,C#2,231.0,651/1000,104,122.0
3720,G#2,231.0,101/200,102,122.0
3721,C#4,231.0,101/200,102,122.0
3722,G#3,231.0,0.344,96,122.0
3723,G#2,231.0,0.344,96,122.0
3724,E-2,231.0,0.031,111,122.0
3725,E2,231.0,0.031,111,122.0
3726,F#2,231.0,0.031,111,122.0
3727,C2,231.0,0.031,111,122.0
3728,F#3,231.0,0.031,111,122.0
3729,E-2,231.333,73/500,100,122.0
3730,F#2,231.667,73/500,94,122.0
3731,E-2,231.667,73/500,94,122.0
3732,E-4,231.667,73/500,94,122.0
3733,B-3,231.667,73/500,94,122.0
3734,F#2,231.667,73/500,94,122.0
3735,C2,231.667,0.031,78,122.0
3736,F#2,231.667,0.031,78,122.0
3737,E-1,232.0,0.516,100,122.0
3738,B-3,232.0,0.516,100,122.0
3739,C#4,232.0,0.516,100,122.0
3740,F#4,232.0,0.516,100,122.0
3741,E-1,232.0,341/500,98,122.0
3742,E-1,232.0,341/500,98,122.0
3743,G#3,232.0,0.141,86,122.0
3744,E-2,232.0,0.141,86,122.0
3745,C#3,232.0,0.031,108,122.0
3746,C2,232.0,0.031,108,122.0
3747,E-3,232.333,23/200,90,122.0
3748,F#4,232.667,1.109,110,122.0
3749,F#2,232.667,0.031,64,122.0
3750,E-2,232.667,0.094,95,122.0
3751,E-2,232.667,0.094,95,122.0
3752,B-3,232.667,0.094,95,122.0
3753,G#3,232.667,0.094,95,122.0
3754,C#4,232.667,0.094,95,122.0
3755,E-4,232.667,0.094,95,122.0
3756,E-2,232.667,0.094,95,122.0
3757,E-1,233.0,263/500,93,122.0
3758,E-1,233.0,91/500,99,122.0
3759,E-2,233.0,91/500,99,122.0
3760,C#3,233.0,91/500,99,122.0
3761,E-2,233.0,0.031,109,122.0
3762,E2,233.0,0.031,109,122.0
3763,F#2,233.0,0.031,109,122.0
3764,C2,233.0,0.031,109,122.0
3765,F#3,233.0,0.031,109,122.0
3766,C#2,233.333,0.125,82,122.0
3767,C#2,233.333,0.125,82,122.0
3768,G#3,233.333,0.125,82,122.0
3769,E-2,233.333,0.125,82,122.0
3770,C#4,233.333,13/250,68,122.0
3771,G#3,233.333,13/250,68,122.0
3772,F#2,233.667,0.031,59,122.0
3773,E-2,233.667,151/1000,86,122.0
3774,E-2,233.667,151/1000,86,122.0
3775,F#2,233.667,151/1000,86,122.0
3776,E-3,233.667,151/1000,86,122.0
3777,F#2,234.0,0.172,96,122.0
3778,F#1,234.0,693/1000,110,122.0
3779,F#1,234.0,693/1000,110,122.0
3780,F#1,234.0,0.531,89,122.0
3781,C#4,234.0,0.531,89,122.0
3782,B-3,234.0,0.531,89,122.0
3783,F#3,234.0,0.531,92,122.0
3784,B-3,234.0,0.531,92,122.0
3785,F#2,234.0,0.031,98,122.0
3786,C2,234.0,0.031,98,122.0
3787,F#3,234.333,13/100,83,122.0
3788,F#2,234.667,0.031,62,122.0
3789,F#2,234.667,0.141,83,122.0
3790,F#2,234.667,0.141,83,122.0
3791,F#3,234.667,0.141,83,122.0
3792,F#2,234.667,0.141,83,122.0
3793,F#2,234.667,0.141,83,122.0
3794,G#1,235.0,229/1000,101,122.0
3795,G#1,235.0,0.672,91,122.0
3796,G#1,235.0,599/1000,98,122.0
3797,G#2,235.0,0.156,81,122.0
3798,C4,235.0,0.469,79,122.0
3799,G#3,235.0,0.469,79,122.0
3800,E-4,235.0,0.469,92,122.0
3801,G#3,235.0,0.469,92,122.0
3802,C#4,235.0,0.031,108,122.0
3803,E-2,235.0,0.031,108,122.0
3804,E2,235.0,0.031,108,122.0
3805,F#2,235.0,0.031,108,122.0
3806,C2,235.0,0.031,108,122.0
3807,F#3,235.0,0.031,108,122.0
3808,G#2,235.333,151/1000,89,122.0
3809,G#3,235.333,151/1000,89,122.0
3810,F#2,235.667,0.031,53,122.0
3811,F#2,235.667,27/200,93,122.0
3812,F#2,235.667,27/200,93,122.0
3813,C4,235.667,27/200,93,122.0
3814,E-4,235.667,27/200,93,122.0
3815,G#3,235.667,27/200,93,122.0
3816,G#2,235.667,27/200,93,122.0
3817,F#3,235.667,27/200,93,122.0
3818,E-1,236.0,557/1000,114,122.0
3819,E-1,236.0,667/1000,103,122.0
3820,E-1,236.0,99/250,102,122.0
3821,E-2,236.0,167/1000,91,122.0
3822,C2,236.0,0.031,99,122.0
3823,F#2,236.0,0.031,99,122.0
3824,F#3,236.333,73/500,74,122.0
3825,E-3,236.333,73/500,74,122.0
3826,E-2,236.667,99/1000,92,122.0
3827,F#2,236.667,0.031,56,122.0
3828,E-2,236.667,13/125,102,122.0
3829,E-2,236.667,13/125,102,122.0
3830,E-2,236.667,13/125,102,122.0
3831,E-1,237.0,67/125,99,122.0
3832,E-1,237.0,0.141,92,122.0
3833,C#3,237.0,0.141,92,122.0
3834,F#3,237.0,0.031,95,122.0
3835,B-3,237.0,0.031,95,122.0
3836,C#4,237.0,0.031,95,122.0
3837,E-2,237.0,0.031,95,122.0
3838,E2,237.0,0.031,95,122.0
3839,F#2,237.0,0.031,95,122.0
3840,C2,237.0,0.031,95,122.0
3841,F#3,237.0,0.031,95,122.0
3842,C#2,237.333,89/1000,92,122.0
3843,E-2,237.333,89/1000,92,122.0
3844,E-2,237.333,89/1000,81,122.0
3845,E-2,237.333,89/1000,81,122.0
3846,E-2,237.667,0.141,96,122.0
3847,E-2,237.667,0.141,96,122.0
3848,E-3,237.667,0.141,96,122.0
3849,F#3,237.667,0.031,91,122.0
3850,C#4,237.667,0.031,91,122.0
3851,B-3,237.667,0.031,91,122.0
3852,E-3,237.667,0.031,91,122.0
3853,F#2,237.667,0.031,91,122.0
3854,F#4,238.0,56/125,108,122.0
3855,E-2,238.0,0.031,86,122.0
3856,E-2,238.0,0.031,86,122.0
3857,C2,238.0,0.031,86,122.0
3858,F#2,238.0,0.031,86,122.0
3859,B-3,238.333,13/250,70,122.0
3860,C#2,238.333,13/100,89,122.0
3861,C#2,238.333,13/100,89,122.0
3862,C#3,238.333,13/100,89,122.0
3863,G#4,238.667,1.188,112,122.0
3864,B-2,238.667,0.031,73,122.0
3865,B-1,238.667,0.141,92,122.0
3866,C#1,238.667,0.141,92,122.0
3867,E-2,238.667,0.141,92,122.0
3868,E-2,238.667,0.141,92,122.0
3869,C#2,239.0,0.641,110,122.0
3870,E-4,239.0,0.516,96,122.0
3871,B-3,239.0,99/250,98,122.0
3872,C#2,239.0,193/1000,95,122.0
3873,C#3,239.0,193/1000,95,122.0
3874,E-2,239.0,0.031,107,122.0
3875,E2,239.0,0.031,107,122.0
3876,C2,239.0,0.031,107,122.0
3877,F#2,239.0,0.031,107,122.0
3878,F#3,239.0,0.031,107,122.0
3879,B-1,239.333,0.391,101,122.0
3880,E-2,239.333,3/25,87,122.0
3881,E-2,239.667,0.203,98,122.0
3882,E-2,239.667,0.203,98,122.0
3883,G#3,239.667,3/25,93,122.0
3884,C#4,239.667,3/25,93,122.0
3885,E-3,239.667,3/25,93,122.0
3886,C2,239.667,0.031,65,122.0
3887,F#2,239.667,0.031,65,122.0
3888,E-1,240.0,661/1000,104,122.0
3889,E-1,240.0,271/1000,88,122.0
3890,E-2,240.0,0.125,96,122.0
3891,E-1,240.0,0.578,106,122.0
3892,F#4,240.0,0.578,106,122.0
3893,C2,240.0,0.031,113,122.0
3894,F#2,240.0,0.031,113,122.0
3895,E-4,240.333,3/25,82,122.0
3896,B-3,240.333,3/25,82,122.0
3897,C#3,240.333,3/25,82,122.0
3898,E-4,240.667,0.641,107,122.0
3899,F#2,240.667,0.031,66,122.0
3900,E-2,240.667,13/100,98,122.0
3901,E-2,240.667,13/100,98,122.0
3902,E-2,240.667,13/100,98,122.0
3903,E-3,240.667,13/100,98,122.0
3904,E-1,241.0,0.641,103,122.0
3905,E-2,241.0,73/500,101,122.0
3906,E-1,241.0,49/200,106,122.0
3907,B-3,241.0,49/200,106,122.0
3908,E-4,241.0,49/200,106,122.0
3909,E-2,241.0,0.031,112,122.0
3910,E2,241.0,0.031,112,122.0
3911,F#2,241.0,0.031,112,122.0
3912,C2,241.0,0.031,112,122.0
3913,F#3,241.0,0.031,112,122.0
3914,C#2,241.333,83/1000,90,122.0
3915,C#3,241.333,83/1000,90,122.0
3916,F#2,241.667,0.031,59,122.0
3917,E-2,241.667,0.109,88,122.0
3918,E-2,241.667,0.109,88,122.0
3919,E-2,241.667,0.109,88,122.0
3920,E-3,241.667,0.109,88,122.0
3921,F#2,242.0,27/200,92,122.0
3922,F#1,242.0,0.703,100,122.0
3923,F#1,242.0,0.703,100,122.0
3924,F#1,242.0,0.531,101,122.0
3925,B-3,242.0,0.531,101,122.0
3926,F#3,242.0,0.531,101,122.0
3927,C#4,242.0,0.531,101,122.0
3928,F#2,242.0,0.031,102,122.0
3929,C2,242.0,0.031,102,122.0
3930,F#3,242.333,27/200,94,122.0
3931,F#2,242.667,0.031,62,122.0
3932,F#2,242.667,151/1000,90,122.0
3933,F#2,242.667,151/1000,90,122.0
3934,C#4,242.667,151/1000,90,122.0
3935,F#3,242.667,151/1000,90,122.0
3936,F#2,242.667,151/1000,90,122.0
3937,F#2,242.667,151/1000,90,122.0
3938,G#1,243.0,0.688,92,122.0
3939,G#1,243.0,123/200,91,122.0
3940,G#2,243.0,161/1000,82,122.0
3941,G#1,243.0,0.469,97,122.0
3942,C4,243.0,0.469,97,122.0
3943,G#3,243.0,0.469,97,122.0
3944,E-4,243.0,0.469,97,122.0
3945,E-2,243.0,0.031,112,122.0
3946,E2,243.0,0.031,112,122.0
3947,F#2,243.0,0.031,112,122.0
3948,C2,243.0,0.031,112,122.0
3949,F#3,243.0,0.031,112,122.0
3950,G#2,243.333,27/200,88,122.0
3951,G#3,243.333,27/200,88,122.0
3952,F#2,243.667,0.031,64,122.0
3953,F#2,243.667,73/500,88,122.0
3954,F#2,243.667,73/500,88,122.0
3955,C4,243.667,73/500,88,122.0
3956,G#3,243.667,73/500,88,122.0
3957,E-4,243.667,73/500,88,122.0
3958,G#2,243.667,73/500,88,122.0
3959,F#3,243.667,73/500,88,122.0
3960,E-1,244.0,0.281,102,122.0
3961,E-2,244.0,0.156,95,122.0
3962,E-1,244.0,63/100,106,122.0
3963,E-1,244.0,63/100,106,122.0
3964,F#2,244.0,0.031,98,122.0
3965,C2,244.0,0.031,98,122.0
3966,F#3,244.333,3/25,78,122.0
3967,E-3,244.333,3/25,78,122.0
3968,F#2,244.667,0.031,52,122.0
3969,E-2,244.667,23/200,101,122.0
3970,E-2,244.667,23/200,101,122.0
3971,E-2,244.667,23/200,101,122.0
3972,E-2,244.667,23/200,101,122.0
3973,E-1,245.0,521/1000,88,122.0
3974,C#3,245.0,0.156,85,122.0
3975,E-1,245.0,0.031,97,122.0
3976,C#4,245.0,0.031,97,122.0
3977,B-3,245.0,0.031,97,122.0
3978,F#3,245.0,0.031,97,122.0
3979,E-2,245.0,0.031,97,122.0
3980,E2,245.0,0.031,97,122.0
3981,C2,245.0,0.031,97,122.0
3982,F#2,245.0,0.031,97,122.0
3983,F#3,245.0,0.031,97,122.0
3984,E-1,245.333,0.125,90,122.0
3985,E-2,245.333,0.125,90,122.0
3986,E-2,245.333,0.125,90,122.0
3987,B-2,245.667,0.703,104,122.0
3988,E-2,245.667,73/500,94,122.0
3989,E-4,245.667,73/500,94,122.0
3990,G#3,245.667,73/500,94,122.0
3991,E-3,245.667,73/500,94,122.0
3992,C#4,245.667,0.031,90,122.0
3993,E-4,245.667,0.031,90,122.0
3994,B-3,245.667,0.031,90,122.0
3995,G#3,245.667,0.031,90,122.0
3996,F#2,245.667,0.031,90,122.0
3997,G#1,246.0,0.266,83,122.0
3998,E-2,246.0,99/1000,89,122.0
3999,C2,246.0,0.031,111,122.0
4000,C#3,246.333,0.203,76,122.0
4001,B-1,246.333,0.203,76,122.0
4002,C#4,246.333,0.031,86,122.0
4003,B-3,246.333,0.031,86,122.0
4004,G#3,246.333,0.031,86,122.0
4005,B-2,246.333,0.031,86,122.0
4006,F#2,246.333,0.031,86,122.0
4007,B-2,246.667,0.031,93,122.0
4008,E-1,246.667,13/100,96,122.0
4009,C#2,246.667,13/100,96,122.0
4010,E-2,246.667,13/100,96,122.0
4011,E-2,246.667,13/100,96,122.0
4012,G#2,247.0,0.5,93,122.0
4013,C#2,247.0,651/1000,104,122.0
4014,A2,247.0,99/500,108,122.0
4015,C#4,247.0,99/500,108,122.0
4016,G#3,247.0,99/500,108,122.0
4017,B-3,247.0,99/500,108,122.0
4018,G#2,247.0,99/500,108,122.0
4019,E-2,247.0,0.031,111,122.0
4020,E2,247.0,0.031,111,122.0
4021,F#2,247.0,0.031,111,122.0
4022,C2,247.0,0.031,111,122.0
4023,F#3,247.0,0.031,111,122.0
4024,E-2,247.333,99/1000,85,122.0
4025,B-3,247.333,99/500,52,122.0
4026,C#4,247.333,99/500,52,122.0
4027,F#2,247.667,73/500,92,122.0
4028,E-2,247.667,73/500,92,122.0
4029,E-4,247.667,73/500,92,122.0
4030,G#3,247.667,73/500,92,122.0
4031,F#2,247.667,73/500,92,122.0
4032,B-3,247.667,0.031,85,122.0
4033,E-4,247.667,0.031,85,122.0
4034,C2,247.667,0.031,85,122.0
4035,F#2,247.667,0.031,85,122.0
4036,E-1,248.0,341/500,110,122.0
4037,E-1,248.0,307/1000,88,122.0
4038,E-2,248.0,27/200,98,122.0
4039,E-1,248.0,0.484,114,122.0
4040,F#4,248.0,0.484,114,122.0
4041,C#3,248.0,0.031,108,122.0
4042,C2,248.0,0.031,108,122.0
4043,E-3,248.333,0.141,98,122.0
4044,E-4,248.667,69/250,113,122.0
4045,F#2,248.667,0.031,64,122.0
4046,E-2,248.667,23/200,98,122.0
4047,E-2,248.667,23/200,98,122.0
4048,E-2,248.667,23/200,98,122.0
4049,E-2,248.667,23/200,98,122.0
4050,E-1,249.0,263/500,93,122.0
4051,F#4,249.0,0.844,112,122.0
4052,E-1,249.0,161/1000,100,122.0
4053,E-4,249.0,161/1000,100,122.0
4054,G#3,249.0,161/1000,100,122.0
4055,C#3,249.0,161/1000,100,122.0
4056,B-3,249.0,0.031,107,122.0
4057,C#4,249.0,0.031,107,122.0
4058,E-2,249.0,0.031,107,122.0
4059,E2,249.0,0.031,107,122.0
4060,F#2,249.0,0.031,107,122.0
4061,C2,249.0,0.031,107,122.0
4062,F#3,249.0,0.031,107,122.0
4063,C#2,249.333,13/100,86,122.0
4064,C#2,249.333,13/100,86,122.0
4065,E-2,249.333,13/100,86,122.0
4066,E-2,249.667,27/200,89,122.0
4067,E-2,249.667,27/200,89,122.0
4068,E-4,249.667,27/200,89,122.0
4069,G#3,249.667,27/200,89,122.0
4070,E-3,249.667,27/200,89,122.0
4071,C#4,249.667,0.031,81,122.0
4072,B-3,249.667,0.031,81,122.0
4073,E-4,249.667,0.031,81,122.0
4074,G#3,249.667,0.031,81,122.0
4075,F#2,249.667,0.031,81,122.0
4076,F#2,250.0,0.141,91,122.0
4077,F#1,250.0,0.672,102,122.0
4078,F#1,250.0,0.672,102,122.0
4079,F#1,250.0,0.672,102,122.0
4080,F#2,250.0,0.672,102,122.0
4081,F#3,250.0,0.469,95,122.0
4082,B-3,250.0,0.469,95,122.0
4083,C#4,250.0,0.469,95,122.0
4084,F#2,250.0,0.031,98,122.0
4085,C2,250.0,0.031,98,122.0
4086,F#3,250.333,3/25,100,122.0
4087,F#2,250.667,0.031,62,122.0
4088,F#2,250.667,13/100,86,122.0
4089,F#2,250.667,13/100,86,122.0
4090,F#3,250.667,13/100,86,122.0
4091,B-3,250.667,13/100,86,122.0
4092,C#4,250.667,13/100,86,122.0
4093,F#2,250.667,13/100,86,122.0
4094,G#1,251.0,229/1000,101,122.0
4095,G#1,251.0,0.672,91,122.0
4096,G#2,251.0,73/500,79,122.0
4097,C4,251.0,521/1000,98,122.0
4098,G#2,251.0,521/1000,98,122.0
4099,G#1,251.0,521/1000,98,122.0
4100,G#3,251.0,521/1000,98,122.0
4101,E-4,251.0,521/1000,98,122.0
4102,E-2,251.0,0.031,110,122.0
4103,E2,251.0,0.031,110,122.0
4104,F#2,251.0,0.031,110,122.0
4105,C2,251.0,0.031,110,122.0
4106,F#3,251.0,0.031,110,122.0
4107,G#2,251.333,0.203,91,122.0
4108,G#3,251.333,99/1000,76,122.0
4109,F#2,251.667,0.031,53,122.0
4110,F#2,251.667,73/500,98,122.0
4111,F#2,251.667,73/500,98,122.0
4112,G#3,251.667,73/500,98,122.0
4113,E-4,251.667,73/500,98,122.0
4114,C4,251.667,0.094,94,122.0
4115,G#3,251.667,0.094,94,122.0
4116,E-4,251.667,0.094,94,122.0
4117,F#3,251.667,0.094,94,122.0
4118,E-1,252.0,557/1000,114,122.0
4119,E-1,252.0,667/1000,103,122.0
4120,E-1,252.0,69/250,96,122.0
4121,E-2,252.0,193/1000,87,122.0
4122,C2,252.0,0.031,99,122.0
4123,F#2,252.0,0.031,99,122.0
4124,E-3,252.333,73/500,97,122.0
4125,F#2,252.667,0.031,56,122.0
4126,E-2,252.667,3/25,102,122.0
4127,E-2,252.667,3/25,102,122.0
4128,E-2,252.667,3/25,102,122.0
4129,E-2,252.667,3/25,102,122.0
4130,E-1,253.0,67/125,99,122.0
4131,E-1,253.0,73/500,92,122.0
4132,C#3,253.0,73/500,92,122.0
4133,C#4,253.0,0.031,102,122.0
4134,E-2,253.0,0.031,102,122.0
4135,E2,253.0,0.031,102,122.0
4136,F#2,253.0,0.031,102,122.0
4137,C2,253.0,0.031,102,122.0
4138,F#3,253.0,0.031,102,122.0
4139,C#2,253.333,89/1000,98,122.0
4140,E-2,253.333,89/1000,98,122.0
4141,E-2,253.333,89/1000,98,122.0
4142,F#2,253.667,0.031,52,122.0
4143,E-2,253.667,13/100,97,122.0
4144,E-2,253.667,13/100,97,122.0
4145,C#4,253.667,13/100,97,122.0
4146,E-3,253.667,13/100,97,122.0
4147,E-1,254.0,167/1000,88,122.0
4148,F#4,254.0,99/250,105,122.0
4149,E-2,254.0,0.031,94,122.0
4150,C2,254.0,0.031,94,122.0
4151,F#2,254.0,0.031,94,122.0
4152,C#2,254.333,13/100,100,122.0
4153,C#2,254.333,13/100,100,122.0
4154,C#4,254.333,13/100,100,122.0
4155,F#4,254.333,13/100,100,122.0
4156,B-2,254.333,13/100,100,122.0
4157,G#4,254.667,1.234,102,122.0
4158,B-2,254.667,0.031,73,122.0
4159,B-1,254.667,3/25,97,122.0
4160,C#1,254.667,3/25,97,122.0
4161,E-2,254.667,3/25,97,122.0
4162,E-2,254.667,3/25,97,122.0
4163,C#2,255.0,0.641,110,122.0
4164,C#2,255.0,167/1000,98,122.0
4165,C#3,255.0,167/1000,98,122.0
4166,E-4,255.0,0.031,104,122.0
4167,B-3,255.0,0.031,104,122.0
4168,E-2,255.0,0.031,104,122.0
4169,E2,255.0,0.031,104,122.0
4170,C2,255.0,0.031,104,122.0
4171,F#2,255.0,0.031,104,122.0
4172,F#3,255.0,0.031,104,122.0
4173,B-1,255.333,0.391,101,122.0
4174,E-2,255.333,177/1000,97,122.0
4175,E-2,255.333,89/1000,84,122.0
4176,E-2,255.667,0.203,98,122.0
4177,E-2,255.667,0.203,98,122.0
4178,G#3,255.667,0.156,97,122.0
4179,C#4,255.667,0.156,97,122.0
4180,E-3,255.667,0.156,97,122.0
4181,C2,255.667,0.031,65,122.0
4182,F#2,255.667,0.031,65,122.0
4183,E-2,256.0,27/200,98,122.0
4184,E-1,256.0,583/1000,104,122.0
4185,F#4,256.0,583/1000,104,122.0
4186,E-1,256.0,127/200,100,122.0
4187,E-1,256.0,127/200,100,122.0
4188,C2,256.0,0.031,113,122.0
4189,F#2,256.0,0.031,113,122.0
4190,E-3,256.333,0.141,96,122.0
4191,E-4,256.667,0.672,110,122.0
4192,F#2,256.667,0.031,66,122.0
4193,E-2,256.667,23/200,97,122.0
4194,E-2,256.667,23/200,97,122.0
4195,E-2,256.667,23/200,97,122.0
4196,E-2,256.667,23/200,97,122.0
4197,E-1,257.0,0.641,103,122.0
4198,C#3,257.0,151/1000,95,122.0
4199,E-1,257.0,107/500,98,122.0
4200,E-4,257.0,107/500,98,122.0
4201,C#4,257.0,0.031,101,122.0
4202,B-3,257.0,0.031,101,122.0
4203,E-2,257.0,0.031,101,122.0
4204,E2,257.0,0.031,101,122.0
4205,F#2,257.0,0.031,101,122.0
4206,C2,257.0,0.031,101,122.0
4207,F#3,257.0,0.031,101,122.0
4208,C#2,257.333,161/1000,94,122.0
4209,C#4,257.333,161/1000,94,122.0
4210,E-3,257.333,161/1000,94,122.0
4211,E-2,257.667,0.156,95,122.0
4212,E-2,257.667,0.156,95,122.0
4213,B-3,257.667,0.156,95,122.0
4214,E-2,257.667,0.156,95,122.0
4215,E-4,257.667,0.031,78,122.0
4216,B-3,257.667,0.031,78,122.0
4217,G#3,257.667,0.031,78,122.0
4218,F#2,257.667,0.031,78,122.0
4219,F#1,258.0,151/250,97,122.0
4220,F#2,258.0,0.172,89,122.0
4221,F#1,258.0,0.703,100,122.0
4222,F#1,258.0,0.703,100,122.0
4223,F#2,258.0,0.031,102,122.0
4224,C2,258.0,0.031,102,122.0
4225,B-3,258.333,0.156,91,122.0
4226,C#4,258.333,0.156,91,122.0
4227,F#3,258.333,0.156,91,122.0
4228,F#3,258.333,0.156,91,122.0
4229,F#2,258.667,0.031,62,122.0
4230,F#2,258.667,0.156,99,122.0
4231,F#2,258.667,0.156,99,122.0
4232,F#2,258.667,0.156,99,122.0
4233,F#2,258.667,0.156,99,122.0
4234,G#1,259.0,0.688,92,122.0
4235,G#2,259.0,0.141,77,122.0
4236,G#1,259.0,0.469,99,122.0
4237,C4,259.0,0.469,99,122.0
4238,G#3,259.0,0.469,99,122.0
4239,G#1,259.0,521/1000,101,122.0
4240,E-4,259.0,521/1000,101,122.0
4241,E-2,259.0,0.031,112,122.0
4242,E2,259.0,0.031,112,122.0
4243,F#2,259.0,0.031,112,122.0
4244,C2,259.0,0.031,112,122.0
4245,F#3,259.0,0.031,112,122.0
4246,G#2,259.333,0.141,88,122.0
4247,G#3,259.333,0.141,88,122.0
4248,F#2,259.667,0.031,64,122.0
4249,F#2,259.667,0.141,87,122.0
4250,F#2,259.667,0.141,87,122.0
4251,C4,259.667,0.141,87,122.0
4252,E-4,259.667,0.141,87,122.0
4253,G#3,259.667,0.141,87,122.0
4254,G#2,259.667,0.141,87,122.0
4255,F#3,259.667,0.141,87,122.0
4256,E-1,260.0,521/1000,98,122.0
4257,E-2,260.0,73/500,101,122.0
4258,E-1,260.0,63/100,106,122.0
4259,E-1,260.0,63/100,106,122.0
4260,F#2,260.0,0.031,98,122.0
4261,C2,260.0,0.031,98,122.0
4262,F#3,260.333,27/200,90,122.0
4263,E-3,260.333,27/200,90,122.0
4264,F#2,260.667,0.031,52,122.0
4265,E-2,260.667,151/1000,100,122.0
4266,E-2,260.667,151/1000,100,122.0
4267,E-2,260.667,151/1000,100,122.0
4268,E-2,260.667,151/1000,100,122.0
4269,E-1,261.0,521/1000,88,122.0
4270,C#3,261.0,167/1000,89,122.0
4271,E-1,261.0,0.031,109,122.0
4272,F#3,261.0,0.031,109,122.0
4273,E-2,261.0,0.031,109,122.0
4274,E2,261.0,0.031,109,122.0
4275,C2,261.0,0.031,109,122.0
4276,F#2,261.0,0.031,109,122.0
4277,F#3,261.0,0.031,109,122.0
4278,E-1,261.333,26/125,95,122.0
4279,E-1,261.333,23/200,98,122.0
4280,E-2,261.333,23/200,98,122.0
4281,B-2,261.667,0.703,104,122.0
4282,F#2,261.667,0.031,66,122.0
4283,E-2,261.667,167/1000,96,122.0
4284,F#4,261.667,167/1000,96,122.0
4285,C#4,261.667,167/1000,96,122.0
4286,E-3,261.667,167/1000,96,122.0
4287,G#1,262.0,0.266,83,122.0
4288,C2,262.0,0.031,111,122.0
4289,E-2,262.0,27/200,91,122.0
4290,E-2,262.0,27/200,91,122.0
4291,C#3,262.333,151/1000,83,122.0
4292,B-1,262.333,151/1000,83,122.0
4293,E-3,262.333,151/1000,83,122.0
4294,B-3,262.333,0.031,93,122.0
4295,E-4,262.333,0.031,93,122.0
4296,F#2,262.333,0.031,93,122.0
4297,B-2,262.667,0.031,93,122.0
4298,E-1,262.667,0.156,98,122.0
4299,C#2,262.667,0.156,98,122.0
4300,E-2,262.667,0.156,98,122.0
4301,E-2,262.667,0.156,100,122.0
4302,E-2,262.667,0.156,100,122.0
4303,C#2,263.0,651/1000,104,122.0
4304,G#3,263.0,37/100,104,122.0
4305,A2,263.0,91/500,94,122.0
4306,C#3,263.0,91/500,94,122.0
4307,G#2,263.0,101/200,102,122.0
4308,C#4,263.0,101/200,102,122.0
4309,E-2,263.0,0.031,111,122.0
4310,E2,263.0,0.031,111,122.0
4311,F#2,263.0,0.031,111,122.0
4312,C2,263.0,0.031,111,122.0
4313,F#3,263.0,0.031,111,122.0
4314,E-2,263.333,0.156,94,122.0
4315,E-2,263.333,0.156,94,122.0
4316,G4,263.667,333/1000,116,122.0
4317,F#2,263.667,0.141,93,122.0
4318,E-2,263.667,0.141,93,122.0
4319,E-4,263.667,0.141,93,122.0
4320,B-3,263.667,0.141,93,122.0
4321,E-3,263.667,0.141,93,122.0
4322,C2,263.667,0.031,78,122.0
4323,F#2,263.667,0.031,78,122.0
4324,F2,264.0,667/1000,106,122.0
4325,F2,264.0,0.188,92,122.0
4326,G4,264.0,677/1000,116,122.0
4327,F1,264.0,67/125,112,122.0
4328,F1,264.0,67/125,112,122.0
4329,A3,264.0,67/125,112,122.0
4330,E-3,264.0,67/125,112,122.0
4331,C#3,264.0,0.031,108,122.0
4332,C2,264.0,0.031,108,122.0
4333,F3,264.333,73/500,96,122.0
4334,F#2,264.667,0.031,64,122.0
4335,F2,264.667,3/25,105,122.0
4336,F2,264.667,3/25,105,122.0
4337,E-3,264.667,3/25,105,122.0
4338,A3,264.667,3/25,105,122.0
4339,F2,264.667,3/25,105,122.0
4340,F1,265.0,0.547,118,122.0
4341,E-4,265.0,149/200,117,122.0
4342,F1,265.0,0.172,104,122.0
4343,F2,265.0,0.172,104,122.0
4344,F2,265.0,0.172,104,122.0
4345,E-2,265.0,0.031,109,122.0
4346,E2,265.0,0.031,109,122.0
4347,F#2,265.0,0.031,109,122.0
4348,C2,265.0,0.031,109,122.0
4349,F#3,265.0,0.031,109,122.0
4350,E-3,265.333,13/250,66,122.0
4351,E-2,265.333,0.156,107,122.0
4352,F3,265.333,0.156,107,122.0
4353,F#2,265.667,0.031,59,122.0
4354,F2,265.667,161/1000,97,122.0
4355,F2,265.667,161/1000,97,122.0
4356,F2,265.667,161/1000,97,122.0
4357,F2,265.667,161/1000,97,122.0
4358,G#1,266.0,49/100,109,122.0
4359,G#1,266.0,49/100,109,122.0
4360,G#2,266.0,49/100,109,122.0
4361,F4,266.0,161/1000,98,122.0
4362,G#2,266.0,161/1000,98,122.0
4363,F#2,266.0,0.031,98,122.0
4364,C2,266.0,0.031,98,122.0
4365,G#3,266.333,167/1000,100,122.0
4366,F#2,266.667,0.031,62,122.0
4367,G#2,266.667,0.125,103,122.0
4368,G#2,266.667,0.125,103,122.0
4369,G#2,266.667,0.125,103,122.0
4370,B-2,267.0,6/25,110,122.0
4371,B-2,267.0,167/1000,89,122.0
4372,B-1,267.0,69/250,116,122.0
4373,B-1,267.0,69/250,116,122.0
4374,E-2,267.0,0.031,110,122.0
4375,E2,267.0,0.031,110,122.0
4376,F#2,267.0,0.031,110,122.0
4377,C2,267.0,0.031,110,122.0
4378,F#3,267.0,0.031,110,122.0
4379,B-2,267.333,73/500,103,122.0
4380,B-2,267.333,73/500,103,122.0
4381,B-3,267.333,73/500,103,122.0
4382,E-3,267.333,73/500,88,122.0
4383,B-3,267.333,73/500,88,122.0
4384,F#2,267.667,0.031,53,122.0
4385,G#2,267.667,0.156,96,122.0
4386,G#2,267.667,0.156,96,122.0
4387,F2,267.667,0.156,96,122.0
4388,G#3,267.667,0.156,96,122.0
4389,F2,268.0,589/1000,106,122.0
4390,F2,268.0,26/125,98,122.0
4391,F1,268.0,263/500,111,122.0
4392,F1,268.0,263/500,111,122.0
4393,C2,268.0,0.031,99,122.0
4394,F#2,268.0,0.031,99,122.0
4395,F3,268.333,0.156,90,122.0
4396,F#2,268.667,0.031,56,122.0
4397,F2,268.667,13/100,94,122.0
4398,F2,268.667,13/100,94,122.0
4399,A3,268.667,13/100,94,122.0
4400,E-3,268.667,13/100,94,122.0
4401,F2,268.667,13/100,94,122.0
4402,F1,269.0,0.547,90,122.0
4403,F2,269.0,26/125,99,122.0
4404,F1,269.0,27/200,100,122.0
4405,E-3,269.0,27/200,100,122.0
4406,E-2,269.0,0.031,108,122.0
4407,E2,269.0,0.031,108,122.0
4408,F#2,269.0,0.031,108,122.0
4409,C2,269.0,0.031,108,122.0
4410,F#3,269.0,0.031,108,122.0
4411,E-2,269.333,0.109,75,122.0
4412,A3,269.333,0.109,75,122.0
4413,E-3,269.333,0.109,75,122.0
4414,F2,269.333,0.109,75,122.0
4415,F#2,269.667,0.031,52,122.0
4416,F2,269.667,91/500,93,122.0
4417,F2,269.667,91/500,93,122.0
4418,F2,269.667,91/500,93,122.0
4419,F3,269.667,91/500,93,122.0
4420,F2,270.0,181/250,106,122.0
4421,F1,270.0,0.156,95,122.0
4422,F2,270.0,0.156,95,122.0
4423,E-3,270.0,479/1000,103,122.0
4424,F#4,270.0,479/1000,103,122.0
4425,A3,270.0,479/1000,103,122.0
4426,F#4,270.0,479/1000,103,122.0
4427,C2,270.0,0.031,96,122.0
4428,F#2,270.0,0.031,96,122.0
4429,F2,270.333,0.156,93,122.0
4430,F2,270.333,0.156,93,122.0
4431,F3,270.333,0.156,93,122.0
4432,B-2,270.667,0.031,73,122.0
4433,F2,270.667,13/100,91,122.0
4434,A3,270.667,13/100,91,122.0
4435,E-3,270.667,13/100,91,122.0
4436,F2,270.667,13/100,91,122.0
4437,G#4,270.682,591/500,110,122.0
4438,G1,271.0,177/500,123,122.0
4439,G2,271.0,99/125,123,122.0
4440,G2,271.0,193/1000,96,122.0
4441,G1,271.0,69/125,112,122.0
4442,F3,271.0,69/125,112,122.0
4443,B3,271.0,69/125,112,122.0
4444,B-3,271.0,0.031,102,122.0
4445,E-2,271.0,0.031,102,122.0
4446,E2,271.0,0.031,102,122.0
4447,C2,271.0,0.031,102,122.0
4448,F#2,271.0,0.031,102,122.0
4449,F#3,271.0,0.031,102,122.0
4450,G2,271.333,151/1000,96,122.0
4451,G3,271.333,151/1000,96,122.0
4452,G1,271.667,0.031,70,122.0
4453,C2,271.667,0.031,70,122.0
4454,F#2,271.667,0.031,70,122.0
4455,G2,271.667,167/1000,96,122.0
4456,F3,271.667,167/1000,96,122.0
4457,B3,271.667,167/1000,96,122.0
4458,G2,271.667,167/1000,96,122.0
4459,G#1,272.0,0.547,117,122.0
4460,G#2,272.0,167/1000,97,122.0
4461,G#1,272.0,443/1000,112,122.0
4462,G#2,272.0,443/1000,112,122.0
4463,C2,272.0,0.031,113,122.0
4464,F#2,272.0,0.031,113,122.0
4465,F#4,272.062,443/1000,107,122.0
4466,C4,272.333,57/1000,62,122.0
4467,F#3,272.333,177/1000,86,122.0
4468,G#3,272.333,177/1000,86,122.0
4469,E-4,272.646,677/1000,101,122.0
4470,G#2,272.667,28/125,98,122.0
4471,F#2,272.667,0.031,66,122.0
4472,G#2,272.667,0.125,100,122.0
4473,G#2,272.667,0.125,100,122.0
4474,F#3,272.667,0.125,100,122.0
4475,G#1,273.0,0.469,119,122.0
4476,G#1,273.0,13/100,107,122.0
4477,F#3,273.0,13/100,107,122.0
4478,G#2,273.0,13/100,107,122.0
4479,C4,273.0,0.188,107,122.0
4480,F#3,273.0,0.188,107,122.0
4481,E-2,273.0,0.031,112,122.0
4482,E2,273.0,0.031,112,122.0
4483,F#2,273.0,0.031,112,122.0
4484,C2,273.0,0.031,112,122.0
4485,F#3,273.0,0.031,112,122.0
4486,F#2,273.333,73/500,91,122.0
4487,F#3,273.333,73/500,91,122.0
4488,C#4,273.333,73/500,91,122.0
4489,B-3,273.521,0.203,92,122.0
4490,F#2,273.667,0.031,59,122.0
4491,G#2,273.667,0.141,104,122.0
4492,G#2,273.667,0.141,104,122.0
4493,F#3,273.667,0.141,104,122.0
4494,C4,273.667,0.141,104,122.0
4495,G#3,273.667,0.141,104,122.0
4496,G#3,273.714,73/200,98,122.0
4497,G#1,274.0,0.266,121,122.0
4498,G#1,274.0,69/125,115,122.0
4499,G#2,274.0,73/500,84,122.0
4500,G#2,274.0,73/500,84,122.0
4501,F#2,274.0,0.031,102,122.0
4502,C2,274.0,0.031,102,122.0
4503,F#3,274.333,99/1000,87,122.0
4504,F#2,274.667,0.031,62,122.0
4505,G#2,274.667,27/200,95,122.0
4506,G#2,274.667,27/200,95,122.0
4507,G#2,274.667,27/200,95,122.0
4508,G#3,274.667,27/200,95,122.0
4509,G#2,275.0,73/500,98,122.0
4510,G#1,275.0,177/1000,108,122.0
4511,G#1,275.0,177/1000,108,122.0
4512,C4,275.0,177/250,108,122.0
4513,F#3,275.0,177/250,108,122.0
4514,E-2,275.0,0.031,112,122.0
4515,E2,275.0,0.031,112,122.0
4516,F#2,275.0,0.031,112,122.0
4517,C2,275.0,0.031,112,122.0
4518,F#3,275.0,0.031,112,122.0
4519,F#3,275.333,13/250,57,122.0
4520,G#2,275.333,0.141,97,122.0
4521,G#2,275.333,0.141,97,122.0
4522,G#2,275.667,3/25,96,122.0
4523,F#2,275.667,0.031,64,122.0
4524,G#1,275.667,91/500,95,122.0
4525,G#1,275.667,91/500,95,122.0
4526,G#2,275.667,91/500,95,122.0
4527,C#3,276.0,0.594,104,122.0
4528,C#3,276.0,151/1000,97,122.0
4529,C#2,276.0,263/500,102,122.0
4530,C#2,276.0,263/500,102,122.0
4531,F#3,276.0,263/500,102,122.0
4532,B3,276.0,263/500,102,122.0
4533,F#2,276.0,0.031,98,122.0
4534,C2,276.0,0.031,98,122.0
4535,F#3,276.333,0.141,88,122.0
4536,F#2,276.667,0.031,52,122.0
4537,C#3,276.667,0.094,94,122.0
4538,C#3,276.667,0.094,94,122.0
4539,C#4,276.667,0.094,94,122.0
4540,F#3,276.667,0.094,94,122.0
4541,B3,276.667,0.094,94,122.0
4542,C#3,276.667,0.094,94,122.0
4543,C#4,276.698,0.188,115,122.0
4544,C#2,277.0,0.453,104,122.0
4545,C#2,277.0,73/500,104,122.0
4546,F#3,277.0,73/500,104,122.0
4547,C#3,277.0,0.031,104,122.0
4548,E-2,277.0,0.031,104,122.0
4549,E2,277.0,0.031,104,122.0
4550,C2,277.0,0.031,104,122.0
4551,F#2,277.0,0.031,104,122.0
4552,F#3,277.0,0.031,104,122.0
4553,E-4,277.031,26/125,110,122.0
4554,C#3,277.333,0.062,54,122.0
4555,C#3,277.333,3/25,83,122.0
4556,B3,277.333,3/25,83,122.0
4557,F#3,277.333,3/25,83,122.0
4558,C#4,277.333,3/25,83,122.0
4559,G#4,277.667,901/1000,108,122.0
4560,C#3,277.667,0.031,74,122.0
4561,F#2,277.667,0.031,74,122.0
4562,C#3,277.667,177/1000,101,122.0
4563,C#3,277.667,177/1000,101,122.0
4564,F#3,277.667,177/1000,101,122.0
4565,C#2,278.0,193/1000,123,122.0
4566,C#3,278.0,0.109,74,122.0
4567,C2,278.0,0.031,111,122.0
4568,B3,278.0,0.594,114,122.0
4569,F#3,278.0,0.594,114,122.0
4570,C#4,278.0,0.594,114,122.0
4571,F#2,278.333,0.031,73,122.0
4572,C#3,278.333,151/1000,107,122.0
4573,C#3,278.333,151/1000,107,122.0
4574,E-3,278.333,151/1000,107,122.0
4575,B-2,278.667,0.031,93,122.0
4576,C#2,278.667,99/1000,89,122.0
4577,F#3,278.667,99/1000,89,122.0
4578,B3,278.667,99/1000,89,122.0
4579,C#4,278.667,99/1000,89,122.0
4580,C#3,278.667,99/1000,89,122.0
4581,F#4,278.682,161/1000,107,122.0
4582,C#3,279.0,0.406,115,122.0
4583,C#3,279.0,27/200,98,122.0
4584,C#3,279.0,573/1000,103,122.0
4585,C#3,279.0,573/1000,103,122.0
4586,E-4,279.0,573/1000,103,122.0
4587,E-2,279.0,0.031,111,122.0
4588,E2,279.0,0.031,111,122.0
4589,F#2,279.0,0.031,111,122.0
4590,C2,279.0,0.031,111,122.0
4591,F#3,279.0,0.031,111,122.0
4592,B3,279.333,151/1000,92,122.0
4593,F#3,279.333,151/1000,92,122.0
4594,C#4,279.333,151/1000,92,122.0
4595,E-3,279.667,0.125,100,122.0
4596,E-3,279.667,0.125,100,122.0
4597,E-4,279.667,0.125,100,122.0
4598,E-3,279.667,0.125,100,122.0
4599,C#4,279.667,0.125,100,122.0
4600,C2,279.667,0.031,78,122.0
4601,F#2,279.667,0.031,78,122.0
4602,E-1,280.0,67/125,119,122.0
4603,E-1,280.0,307/1000,88,122.0
4604,E-2,280.0,13/100,89,122.0
4605,E-1,280.0,0.625,110,122.0
4606,E-4,280.0,0.625,110,122.0
4607,C#3,280.0,0.031,108,122.0
4608,C2,280.0,0.031,108,122.0
4609,E-3,280.333,167/1000,95,122.0
4610,F#2,280.667,0.031,64,122.0
4611,E-2,280.667,151/1000,102,122.0
4612,E-2,280.667,151/1000,102,122.0
4613,E-2,280.667,151/1000,102,122.0
4614,E-2,280.667,151/1000,102,122.0
4615,E-1,281.0,263/500,93,122.0
4616,E-1,281.0,13/100,98,122.0
4617,E-4,281.0,13/100,98,122.0
4618,G#3,281.0,13/100,98,122.0
4619,C#3,281.0,13/100,98,122.0
4620,B-3,281.0,0.031,107,122.0
4621,C#4,281.0,0.031,107,122.0
4622,E-2,281.0,0.031,107,122.0
4623,E2,281.0,0.031,107,122.0
4624,F#2,281.0,0.031,107,122.0
4625,C2,281.0,0.031,107,122.0
4626,F#3,281.0,0.031,107,122.0
4627,C#2,281.333,0.156,88,122.0
4628,C#2,281.333,0.156,88,122.0
4629,E-3,281.333,0.156,88,122.0
4630,E-2,281.667,0.172,90,122.0
4631,E-2,281.667,0.172,90,122.0
4632,E-4,281.667,0.172,90,122.0
4633,G#3,281.667,0.172,90,122.0
4634,E-2,281.667,0.172,90,122.0
4635,C#4,281.667,0.031,81,122.0
4636,B-3,281.667,0.031,81,122.0
4637,E-4,281.667,0.031,81,122.0
4638,G#3,281.667,0.031,81,122.0
4639,F#2,281.667,0.031,81,122.0
4640,F#2,282.0,91/500,95,122.0
4641,F#1,282.0,0.672,102,122.0
4642,F#1,282.0,0.672,102,122.0
4643,F#1,282.0,0.672,102,122.0
4644,F#2,282.0,0.672,102,122.0
4645,F#3,282.0,0.469,95,122.0
4646,B-3,282.0,0.469,95,122.0
4647,C#4,282.0,0.469,95,122.0
4648,F#2,282.0,0.031,98,122.0
4649,C2,282.0,0.031,98,122.0
4650,F#3,282.333,0.125,104,122.0
4651,F#2,282.667,0.031,62,122.0
4652,F#2,282.667,167/1000,87,122.0
4653,F#2,282.667,167/1000,87,122.0
4654,F#3,282.667,167/1000,87,122.0
4655,B-3,282.667,167/1000,87,122.0
4656,C#4,282.667,167/1000,87,122.0
4657,F#2,282.667,167/1000,87,122.0
4658,G#1,283.0,0.672,91,122.0
4659,G#1,283.0,177/1000,90,122.0
4660,G#2,283.0,177/1000,90,122.0
4661,C4,283.0,521/1000,98,122.0
4662,G#2,283.0,521/1000,98,122.0
4663,G#1,283.0,521/1000,98,122.0
4664,G#3,283.0,521/1000,98,122.0
4665,E-4,283.0,521/1000,98,122.0
4666,E-2,283.0,0.031,110,122.0
4667,E2,283.0,0.031,110,122.0
4668,F#2,283.0,0.031,110,122.0
4669,C2,283.0,0.031,110,122.0
4670,F#3,283.0,0.031,110,122.0
4671,G#2,283.333,0.203,91,122.0
4672,G#3,283.333,13/100,88,122.0
4673,F#2,283.667,0.031,53,122.0
4674,F#2,283.667,13/100,97,122.0
4675,F#2,283.667,13/100,97,122.0
4676,G#3,283.667,13/100,97,122.0
4677,E-4,283.667,13/100,97,122.0
4678,F#3,283.667,13/100,97,122.0
4679,C4,283.667,13/100,101,122.0
4680,G#3,283.667,13/100,101,122.0
4681,E-4,283.667,13/100,101,122.0
4682,F#3,283.667,13/100,101,122.0
4683,E-1,284.0,557/1000,114,122.0
4684,E-1,284.0,667/1000,103,122.0
4685,E-1,284.0,69/250,96,122.0
4686,E-2,284.0,0.172,96,122.0
4687,C2,284.0,0.031,99,122.0
4688,F#2,284.0,0.031,99,122.0
4689,E-3,284.333,0.109,89,122.0
4690,F#2,284.667,0.031,56,122.0
4691,E-2,284.667,0.125,104,122.0
4692,E-2,284.667,0.125,104,122.0
4693,E-2,284.667,0.125,104,122.0
4694,E-2,284.667,0.125,104,122.0
4695,E-1,285.0,67/125,99,122.0
4696,E-1,285.0,161/1000,100,122.0
4697,C#3,285.0,161/1000,100,122.0
4698,C#4,285.0,0.031,102,122.0
4699,E-2,285.0,0.031,102,122.0
4700,E2,285.0,0.031,102,122.0
4701,F#2,285.0,0.031,102,122.0
4702,C2,285.0,0.031,102,122.0
4703,F#3,285.0,0.031,102,122.0
4704,C#2,285.333,0.094,96,122.0
4705,E-2,285.333,0.094,96,122.0
4706,E-2,285.333,0.094,96,122.0
4707,F#2,285.667,0.031,52,122.0
4708,E-2,285.667,161/1000,100,122.0
4709,E-2,285.667,161/1000,100,122.0
4710,C#4,285.667,161/1000,100,122.0
4711,E-3,285.667,161/1000,100,122.0
4712,E-1,286.0,13/125,92,122.0
4713,E-2,286.0,13/125,92,122.0
4714,C2,286.0,0.031,96,122.0
4715,F#2,286.0,0.031,96,122.0
4716,C#2,286.333,161/1000,99,122.0
4717,C#2,286.333,161/1000,99,122.0
4718,C#4,286.333,161/1000,99,122.0
4719,F#4,286.333,161/1000,99,122.0
4720,C#3,286.333,161/1000,99,122.0
4721,B-2,286.667,0.031,73,122.0
4722,B-1,286.667,23/200,98,122.0
4723,C#1,286.667,23/200,98,122.0
4724,E-2,286.667,23/200,98,122.0
4725,E-2,286.667,23/200,98,122.0
4726,C#2,287.0,0.641,110,122.0
4727,C#2,287.0,99/500,107,122.0
4728,C#3,287.0,99/500,107,122.0
4729,E-4,287.0,0.031,104,122.0
4730,B-3,287.0,0.031,104,122.0
4731,E-2,287.0,0.031,104,122.0
4732,E2,287.0,0.031,104,122.0
4733,C2,287.0,0.031,104,122.0
4734,F#2,287.0,0.031,104,122.0
4735,F#3,287.0,0.031,104,122.0
4736,B-1,287.333,0.391,101,122.0
4737,E-2,287.333,177/1000,97,122.0
4738,E-2,287.333,13/125,82,122.0
4739,E-2,287.667,0.203,98,122.0
4740,E-2,287.667,0.203,98,122.0
4741,G#3,287.667,0.172,98,122.0
4742,C#4,287.667,0.172,98,122.0
4743,E-3,287.667,0.172,98,122.0
4744,C2,287.667,0.031,65,122.0
4745,F#2,287.667,0.031,65,122.0
4746,E-1,288.0,271/500,101,122.0
4747,E-2,288.0,0.141,98,122.0
4748,E-1,288.0,127/200,100,122.0
4749,E-1,288.0,127/200,100,122.0
4750,C2,288.0,0.031,113,122.0
4751,F#2,288.0,0.031,113,122.0
4752,E-3,288.333,0.141,92,122.0
4753,E-2,288.667,0.219,99,122.0
4754,E-2,288.667,0.219,99,122.0
4755,E-2,288.667,0.219,99,122.0
4756,E-2,288.667,0.031,72,122.0
4757,F#2,288.667,0.031,72,122.0
4758,E-1,289.0,0.641,103,122.0
4759,E-1,289.0,107/500,98,122.0
4760,E-4,289.0,107/500,98,122.0
4761,C#4,289.0,0.031,99,122.0
4762,B-3,289.0,0.031,99,122.0
4763,C#3,289.0,0.031,99,122.0
4764,E-2,289.0,0.031,99,122.0
4765,E2,289.0,0.031,99,122.0
4766,F#2,289.0,0.031,99,122.0
4767,C2,289.0,0.031,99,122.0
4768,F#3,289.0,0.031,99,122.0
4769,C#2,289.333,73/500,98,122.0
4770,E-3,289.333,73/500,98,122.0
4771,E-2,289.667,73/500,97,122.0
4772,E-2,289.667,73/500,97,122.0
4773,E-2,289.667,73/500,97,122.0
4774,E-4,289.667,0.031,78,122.0
4775,B-3,289.667,0.031,78,122.0
4776,G#3,289.667,0.031,78,122.0
4777,F#2,289.667,0.031,78,122.0
4778,F#1,290.0,151/250,97,122.0
4779,F#2,290.0,99/500,97,122.0
4780,F#1,290.0,0.703,100,122.0
4781,F#1,290.0,0.703,100,122.0
4782,F#2,290.0,0.031,102,122.0
4783,C2,290.0,0.031,102,122.0
4784,B-3,290.333,161/1000,90,122.0
4785,C#4,290.333,161/1000,90,122.0
4786,F#3,290.333,161/1000,90,122.0
4787,F#3,290.333,161/1000,90,122.0
4788,F#2,290.667,0.031,62,122.0
4789,F#2,290.667,177/1000,98,122.0
4790,F#2,290.667,177/1000,98,122.0
4791,F#2,290.667,177/1000,98,122.0
4792,F#2,290.667,177/1000,98,122.0
4793,G#1,291.0,0.688,92,122.0
4794,G#2,291.0,73/500,81,122.0
4795,G#1,291.0,0.469,99,122.0
4796,C4,291.0,0.469,99,122.0
4797,G#3,291.0,0.469,99,122.0
4798,G#1,291.0,521/1000,101,122.0
4799,E-4,291.0,521/1000,101,122.0
4800,E-2,291.0,0.031,112,122.0
4801,E2,291.0,0.031,112,122.0
4802,F#2,291.0,0.031,112,122.0
4803,C2,291.0,0.031,112,122.0
4804,F#3,291.0,0.031,112,122.0
4805,G#2,291.333,0.141,86,122.0
4806,G#3,291.333,0.141,86,122.0
4807,F#2,291.667,0.031,64,122.0
4808,F#2,291.667,0.156,87,122.0
4809,F#2,291.667,0.156,87,122.0
4810,C4,291.667,0.156,87,122.0
4811,E-4,291.667,0.156,87,122.0
4812,G#3,291.667,0.156,87,122.0
4813,G#2,291.667,0.156,87,122.0
4814,F#3,291.667,0.156,87,122.0
4815,E-2,292.0,73/500,101,122.0
4816,E-1,292.0,521/1000,109,122.0
4817,E-1,292.0,521/1000,109,122.0
4818,E-1,292.0,521/1000,109,122.0
4819,B1,292.0,0.031,98,122.0
4820,F#2,292.0,0.031,98,122.0
4821,F#3,292.333,0.125,90,122.0
4822,E-3,292.333,0.125,90,122.0
4823,F#2,292.667,0.031,64,122.0
4824,E-2,292.667,0.109,102,122.0
4825,E-2,292.667,0.109,102,122.0
4826,E-2,292.667,0.109,102,122.0
4827,E-2,292.667,0.109,102,122.0
4828,E-1,293.0,0.203,108,122.0
4829,E-1,293.0,557/1000,115,122.0
4830,F#3,293.0,0.031,105,122.0
4831,C#3,293.0,0.031,105,122.0
4832,F#2,293.0,0.031,105,122.0
4833,E2,293.0,0.031,105,122.0
4834,B1,293.0,0.031,105,122.0
4835,F#3,293.0,0.031,105,122.0
4836,E-1,293.333,26/125,95,122.0
4837,C#2,293.333,0.125,92,122.0
4838,E-3,293.333,0.125,92,122.0
4839,B-2,293.667,0.266,104,122.0
4840,F#2,293.667,0.031,68,122.0
4841,E-2,293.667,0.109,101,122.0
4842,E-2,293.667,0.109,101,122.0
4843,F#4,293.667,0.109,101,122.0
4844,C#4,293.667,0.109,101,122.0
4845,E-2,294.0,73/500,95,122.0
4846,E-1,294.0,69/125,110,122.0
4847,E-1,294.0,69/125,110,122.0
4848,B1,294.0,0.031,89,122.0
4849,F#2,294.0,0.031,89,122.0
4850,C#3,294.333,151/1000,90,122.0
4851,B-3,294.333,0.031,98,122.0
4852,E-4,294.333,0.031,98,122.0
4853,E2,294.333,0.031,98,122.0
4854,E-2,294.667,0.188,104,122.0
4855,E-2,294.667,73/1000,95,122.0
4856,E-2,294.667,73/1000,95,122.0
4857,E-2,294.667,73/1000,95,122.0
4858,E2,294.667,0.031,91,122.0
4859,B-2,294.667,0.031,91,122.0
4860,C#4,295.0,101/200,112,122.0
4861,G#2,295.0,26/125,105,122.0
4862,E-2,295.0,37/100,108,122.0
4863,E-2,295.0,37/100,108,122.0
4864,G#3,295.0,37/100,108,122.0
4865,E2,295.0,0.031,114,122.0
4866,B1,295.0,0.031,114,122.0
4867,F#3,295.0,0.031,114,122.0
4868,C#2,295.333,51/200,92,122.0
4869,C#2,295.333,51/200,92,122.0
4870,E-2,295.333,0.109,103,122.0
4871,C#4,295.333,0.109,103,122.0
4872,E-2,295.333,0.109,103,122.0
4873,E2,295.667,0.031,113,122.0
4874,B-1,295.667,167/1000,110,122.0
4875,B-1,295.667,167/1000,110,122.0
4876,B-3,295.667,167/1000,110,122.0
4877,E-4,295.667,167/1000,110,122.0
4878,F#2,295.667,167/1000,110,122.0
4879,E-4,295.667,167/1000,103,122.0
4880,B-3,295.667,167/1000,103,122.0
4881,E-4,295.667,167/1000,103,122.0
4882,F#2,295.667,167/1000,103,122.0
4883,G#2,296.0,0.797,110,122.0
4884,G#2,296.0,0.797,110,122.0
4885,G#2,296.0,0.797,110,122.0
4886,G#3,296.0,0.797,110,122.0
4887,G#4,296.0,0.797,110,122.0
4888,G#3,296.0,0.797,110,122.0
4889,C#3,296.0,0.031,108,122.0
4890,C2,296.0,0.031,108,122.0
4891,F#2,296.667,0.031,64,122.0
4892,G#2,297.0,271/500,109,122.0
4893,G#2,297.0,271/500,109,122.0
4894,G#4,297.0,271/500,109,122.0
4895,G#3,297.0,271/500,109,122.0
4896,G#2,297.0,151/250,100,122.0
4897,G#3,297.0,151/250,100,122.0
4898,G#4,297.0,151/250,100,122.0
4899,E-2,297.0,0.031,109,122.0
4900,E2,297.0,0.031,109,122.0
4901,F#2,297.0,0.031,109,122.0
4902,C2,297.0,0.031,109,122.0
4903,F#3,297.0,0.031,109,122.0
4904,F#2,297.667,6/25,87,122.0
4905,F#2,297.667,0.156,96,122.0
4906,F#2,297.667,0.156,96,122.0
4907,F#3,297.667,0.156,96,122.0
4908,F#3,297.667,0.156,96,122.0
4909,F#4,297.667,0.031,73,122.0
4910,F#2,297.667,0.031,73,122.0
4911,G#2,298.0,127/200,105,122.0
4912,G#2,298.0,127/200,105,122.0
4913,G#3,298.0,127/200,105,122.0
4914,G#2,298.0,0.531,105,122.0
4915,G#4,298.0,0.531,105,122.0
4916,G#3,298.0,0.531,105,122.0
4917,F#2,298.0,0.031,98,122.0
4918,C2,298.0,0.031,98,122.0
4919,F#2,298.667,0.031,62,122.0
4920,F#2,298.667,91/500,91,122.0
4921,F#2,298.667,91/500,91,122.0
4922,F#3,298.667,91/500,91,122.0
4923,F#2,298.667,91/500,91,122.0
4924,F#4,298.667,91/500,91,122.0
4925,F#3,298.667,91/500,91,122.0
4926,E-2,299.0,0.438,104,122.0
4927,E-2,299.0,0.516,105,122.0
4928,E-2,299.0,0.516,105,122.0
4929,E-3,299.0,0.516,105,122.0
4930,E-4,299.0,0.516,105,122.0
4931,E-3,299.0,0.516,105,122.0
4932,E-2,299.0,0.031,110,122.0
4933,E2,299.0,0.031,110,122.0
4934,F#2,299.0,0.031,110,122.0
4935,C2,299.0,0.031,110,122.0
4936,F#3,299.0,0.031,110,122.0
4937,F#2,299.667,0.031,53,122.0
4938,C#2,299.667,151/1000,95,122.0
4939,C#2,299.667,151/1000,95,122.0
4940,C#3,299.667,151/1000,95,122.0
4941,C#2,299.667,151/1000,95,122.0
4942,C#4,299.667,151/1000,95,122.0
4943,C#3,299.667,151/1000,95,122.0
4944,E-3,300.0,661/1000,94,122.0
4945,E-2,300.0,393/500,112,122.0
4946,E-2,300.0,393/500,112,122.0
4947,E-2,300.0,67/125,102,122.0
4948,E-4,300.0,67/125,102,122.0
4949,E-3,300.0,67/125,102,122.0
4950,C2,300.0,0.031,99,122.0
4951,F#2,300.0,0.031,99,122.0
4952,C#4,300.667,99/1000,92,122.0
4953,C#3,300.667,167/1000,95,122.0
4954,F#2,300.667,0.031,56,122.0
4955,E-3,301.0,0.266,97,122.0
4956,E-1,301.0,0.531,117,122.0
4957,E-1,301.0,0.531,117,122.0
4958,B-3,301.0,167/1000,105,122.0
4959,B-2,301.0,167/1000,105,122.0
4960,E-2,301.0,0.031,108,122.0
4961,E2,301.0,0.031,108,122.0
4962,F#2,301.0,0.031,108,122.0
4963,C2,301.0,0.031,108,122.0
4964,F#3,301.0,0.031,108,122.0
4965,C#3,301.333,27/200,78,122.0
4966,G#3,301.333,27/200,78,122.0
4967,G#2,301.333,27/200,78,122.0
4968,B-3,301.667,177/250,102,122.0
4969,F#2,301.667,0.031,52,122.0
4970,E-2,301.667,13/100,115,122.0
4971,E-2,301.667,13/100,115,122.0
4972,E-3,301.667,0.531,100,122.0
4973,B-2,301.667,0.531,100,122.0
4974,E-1,302.0,6/25,107,122.0
4975,E-1,302.0,6/25,107,122.0
4976,C2,302.0,0.031,96,122.0
4977,F#2,302.0,0.031,96,122.0
4978,E-2,302.333,151/1000,97,122.0
4979,E-2,302.333,151/1000,97,122.0
4980,C#3,302.333,151/1000,97,122.0
4981,G#2,302.333,151/1000,97,122.0
4982,B-2,302.667,13/125,90,122.0
4983,B-2,302.667,0.031,73,122.0
4984,E-1,302.667,23/200,98,122.0
4985,E-1,302.667,23/200,98,122.0
4986,E-3,302.667,23/200,98,122.0
4987,C#3,303.0,0.453,110,122.0
4988,F#1,303.0,583/1000,105,122.0
4989,F#1,303.0,583/1000,105,122.0
4990,F#3,303.0,583/1000,105,122.0
4991,E-2,303.0,0.031,107,122.0
4992,E2,303.0,0.031,107,122.0
4993,C2,303.0,0.031,107,122.0
4994,F#2,303.0,0.031,107,122.0
4995,F#3,303.0,0.031,107,122.0
4996,E-4,303.333,0.078,92,122.0
4997,E-1,303.667,49/200,89,122.0
4998,E-1,303.667,49/200,89,122.0
4999,E-3,303.667,151/1000,88,122.0
5000,E-4,303.667,151/1000,88,122.0
5001,E-3,303.667,151/1000,88,122.0
5002,C2,303.667,0.031,65,122.0
5003,F#2,303.667,0.031,65,122.0
5004,G#3,304.0,0.625,96,122.0
5005,G#2,304.0,0.734,112,122.0
5006,G#2,304.0,0.734,112,122.0
5007,G#3,304.0,0.734,112,122.0
5008,G#2,304.0,0.688,108,122.0
5009,G#4,304.0,0.688,108,122.0
5010,C2,304.0,0.031,113,122.0
5011,F#2,304.0,0.031,113,122.0
5012,F#2,304.667,0.031,66,122.0
5013,G#2,305.0,521/1000,109,122.0
5014,G#2,305.0,521/1000,109,122.0
5015,G#3,305.0,521/1000,109,122.0
5016,G#4,305.0,521/1000,109,122.0
5017,G#3,305.0,521/1000,109,122.0
5018,G#2,305.0,521/1000,105,122.0
5019,G#4,305.0,521/1000,105,122.0
5020,G#3,305.0,521/1000,105,122.0
5021,E-2,305.0,0.031,112,122.0
5022,E2,305.0,0.031,112,122.0
5023,F#2,305.0,0.031,112,122.0
5024,C2,305.0,0.031,112,122.0
5025,F#3,305.0,0.031,112,122.0
5026,F#2,305.667,0.141,99,122.0
5027,F#2,305.667,0.141,99,122.0
5028,F#2,305.667,0.141,99,122.0
5029,F#4,305.667,0.141,99,122.0
5030,F#3,305.667,0.141,99,122.0
5031,F#3,305.667,0.031,82,122.0
5032,F#4,305.667,0.031,82,122.0
5033,F#3,305.667,0.031,82,122.0
5034,F#2,305.667,0.031,82,122.0
5035,G#3,306.0,323/500,91,122.0
5036,G#3,306.0,479/1000,112,122.0
5037,G#2,306.0,263/500,111,122.0
5038,G#2,306.0,263/500,111,122.0
5039,G#2,306.0,263/500,111,122.0
5040,G#4,306.0,263/500,111,122.0
5041,F#2,306.0,0.031,102,122.0
5042,C2,306.0,0.031,102,122.0
5043,F#2,306.667,0.031,62,122.0
5044,F#2,306.667,0.172,90,122.0
5045,F#2,306.667,0.172,90,122.0
5046,F#3,306.667,0.172,90,122.0
5047,F#2,306.667,0.172,90,122.0
5048,F#4,306.667,0.172,90,122.0
5049,F#3,306.667,0.172,90,122.0
5050,E-3,307.0,411/1000,94,122.0
5051,E-2,307.0,0.531,107,122.0
5052,E-2,307.0,0.531,107,122.0
5053,E-3,307.0,0.531,107,122.0
5054,E-2,307.0,28/125,104,122.0
5055,E-4,307.0,28/125,104,122.0
5056,E-2,307.0,0.031,112,122.0
5057,E2,307.0,0.031,112,122.0
5058,F#2,307.0,0.031,112,122.0
5059,C2,307.0,0.031,112,122.0
5060,F#3,307.0,0.031,112,122.0
5061,F#2,307.667,0.031,64,122.0
5062,C#2,307.667,0.141,98,122.0
5063,C#2,307.667,0.141,98,122.0
5064,C#3,307.667,0.141,98,122.0
5065,C#2,307.667,0.141,98,122.0
5066,C#4,307.667,0.141,98,122.0
5067,C#3,307.667,0.141,98,122.0
5068,E-3,308.0,69/250,102,122.0
5069,E-2,308.0,263/500,110,122.0
5070,E-2,308.0,263/500,110,122.0
5071,E-4,308.0,263/500,110,122.0
5072,F#2,308.0,0.031,98,122.0
5073,C2,308.0,0.031,98,122.0
5074,C#4,308.333,23/200,74,122.0
5075,G#3,308.333,23/200,74,122.0
5076,E-4,308.333,23/200,79,122.0
5077,G#3,308.333,23/200,79,122.0
5078,C#2,308.667,0.031,84,122.0
5079,C#2,308.667,0.031,84,122.0
5080,G#3,308.667,0.031,84,122.0
5081,C#4,308.667,0.031,84,122.0
5082,F#2,308.667,0.031,84,122.0
5083,C#4,308.667,3/25,103,122.0
5084,G#3,308.667,3/25,103,122.0
5085,C#4,308.667,3/25,103,122.0
5086,B-3,309.0,107/500,100,122.0
5087,E-1,309.0,0.656,101,122.0
5088,E-1,309.0,0.656,101,122.0
5089,E-4,309.0,0.031,104,122.0
5090,B-3,309.0,0.031,104,122.0
5091,G#3,309.0,0.031,104,122.0
5092,C#4,309.0,0.031,104,122.0
5093,E-2,309.0,0.031,104,122.0
5094,E2,309.0,0.031,104,122.0
5095,C2,309.0,0.031,104,122.0
5096,F#2,309.0,0.031,104,122.0
5097,F#3,309.0,0.031,104,122.0
5098,G#3,309.333,23/200,96,122.0
5099,G#3,309.333,23/200,96,122.0
5100,C#4,309.333,23/200,96,122.0
5101,G#3,309.667,0.344,92,122.0
5102,F#3,309.667,693/1000,105,122.0
5103,F#2,309.667,0.031,66,122.0
5104,E-2,309.667,0.125,119,122.0
5105,E-2,309.667,0.125,119,122.0
5106,B-3,309.667,479/1000,90,122.0
5107,E-4,309.667,479/1000,90,122.0
5108,C#4,309.667,479/1000,90,122.0
5109,C2,310.0,0.031,111,122.0
5110,E-1,310.0,0.266,104,122.0
5111,E-1,310.0,0.266,104,122.0
5112,G#3,310.0,13/100,104,122.0
5113,C#4,310.0,13/100,104,122.0
5114,F#2,310.333,0.031,73,122.0
5115,E-2,310.333,27/200,91,122.0
5116,E-2,310.333,27/200,91,122.0
5117,E-4,310.333,27/200,91,122.0
5118,C#4,310.333,27/200,91,122.0
5119,B-3,310.333,27/200,91,122.0
5120,G#3,310.333,27/200,91,122.0
5121,E-4,310.333,27/200,91,122.0
5122,B-3,310.333,27/200,91,122.0
5123,B-2,310.667,0.031,93,122.0
5124,E-1,310.667,193/1000,89,122.0
5125,E-1,310.667,193/1000,89,122.0
5126,F#1,311.0,0.25,114,122.0
5127,F#1,311.0,0.25,114,122.0
5128,G#3,311.0,0.031,110,122.0
5129,E-2,311.0,0.031,110,122.0
5130,E2,311.0,0.031,110,122.0
5131,F#2,311.0,0.031,110,122.0
5132,C2,311.0,0.031,110,122.0
5133,F#3,311.0,0.031,110,122.0
5134,B-3,311.0,58/125,99,122.0
5135,E-4,311.0,58/125,99,122.0
5136,C#4,311.0,58/125,99,122.0
5137,B-3,311.0,58/125,99,122.0
5138,E-4,311.0,58/125,99,122.0
5139,F#2,311.333,27/200,110,122.0
5140,F#2,311.333,27/200,110,122.0
5141,E-4,311.333,27/200,110,122.0
5142,F#1,311.667,23/200,94,122.0
5143,F#1,311.667,23/200,94,122.0
5144,B-3,311.667,23/200,94,122.0
5145,G#3,311.667,23/200,94,122.0
5146,E-4,311.667,23/200,94,122.0
5147,B-3,311.667,23/200,94,122.0
5148,C2,311.667,0.031,78,122.0
5149,F#2,311.667,0.031,78,122.0
5150,G#1,312.0,427/500,109,122.0
5151,G#1,312.0,427/500,109,122.0
5152,G#3,312.0,0.672,106,122.0
5153,G#2,312.0,0.672,106,122.0
5154,G#4,312.0,0.672,106,122.0
5155,G#3,312.0,0.672,106,122.0
5156,C#3,312.0,0.031,108,122.0
5157,C2,312.0,0.031,108,122.0
5158,F#2,312.667,0.031,64,122.0
5159,G#2,313.0,263/500,112,122.0
5160,G#2,313.0,263/500,112,122.0
5161,G#2,313.0,263/500,112,122.0
5162,G#3,313.0,263/500,112,122.0
5163,G#3,313.0,263/500,112,122.0
5164,G#4,313.0,263/500,114,122.0
5165,G#3,313.0,263/500,114,122.0
5166,E-2,313.0,0.031,109,122.0
5167,E2,313.0,0.031,109,122.0
5168,F#2,313.0,0.031,109,122.0
5169,C2,313.0,0.031,109,122.0
5170,F#3,313.0,0.031,109,122.0
5171,F#2,313.667,0.031,59,122.0
5172,F#2,313.667,23/200,90,122.0
5173,F#2,313.667,23/200,90,122.0
5174,F#2,313.667,23/200,90,122.0
5175,F#3,313.667,23/200,90,122.0
5176,F#4,313.667,23/200,90,122.0
5177,F#3,313.667,23/200,90,122.0
5178,G#3,314.0,54/125,110,122.0
5179,G#2,314.0,599/1000,115,122.0
5180,G#2,314.0,599/1000,115,122.0
5181,G#2,314.0,599/1000,115,122.0
5182,G#4,314.0,599/1000,115,122.0
5183,G#3,314.0,0.516,98,122.0
5184,G#2,314.0,0.516,98,122.0
5185,F#2,314.0,0.031,98,122.0
5186,C2,314.0,0.031,98,122.0
5187,F#2,314.667,0.031,62,122.0
5188,F#2,314.667,13/100,92,122.0
5189,F#2,314.667,13/100,92,122.0
5190,F#3,314.667,13/100,92,122.0
5191,F#2,314.667,13/100,92,122.0
5192,F#4,314.667,13/100,92,122.0
5193,F#3,314.667,13/100,92,122.0
5194,E-2,315.0,159/500,104,122.0
5195,E-2,315.0,159/500,104,122.0
5196,E-2,315.0,159/500,104,122.0
5197,E-3,315.0,159/500,104,122.0
5198,E-4,315.0,51/100,105,122.0
5199,E-3,315.0,51/100,105,122.0
5200,E-2,315.0,0.031,110,122.0
5201,E2,315.0,0.031,110,122.0
5202,F#2,315.0,0.031,110,122.0
5203,C2,315.0,0.031,110,122.0
5204,F#3,315.0,0.031,110,122.0
5205,E-2,315.333,13/50,61,122.0
5206,E-2,315.333,13/50,61,122.0
5207,C#2,315.667,0.141,90,122.0
5208,C#2,315.667,0.141,90,122.0
5209,C#3,315.667,0.141,90,122.0
5210,C#2,315.667,0.141,90,122.0
5211,C#3,315.667,0.141,90,122.0
5212,C#4,315.667,0.031,60,122.0
5213,F#2,315.667,0.031,60,122.0
5214,E-2,316.0,28/125,102,122.0
5215,E-1,316.0,341/500,107,122.0
5216,E-1,316.0,341/500,107,122.0
5217,E-4,316.0,557/1000,110,122.0
5218,E-3,316.0,557/1000,110,122.0
5219,C2,316.0,0.031,99,122.0
5220,F#2,316.0,0.031,99,122.0
5221,E-4,316.333,83/1000,72,122.0
5222,G#3,316.333,83/1000,72,122.0
5223,F#2,316.667,0.031,56,122.0
5224,E-2,316.667,161/1000,103,122.0
5225,E-2,316.667,161/1000,103,122.0
5226,E-2,316.667,161/1000,103,122.0
5227,C#4,316.667,161/1000,103,122.0
5228,C#3,316.667,161/1000,103,122.0
5229,E-1,317.0,69/125,115,122.0
5230,E-1,317.0,69/125,115,122.0
5231,G#3,317.0,23/200,97,122.0
5232,E-4,317.0,23/200,97,122.0
5233,C#4,317.0,23/200,97,122.0
5234,B-3,317.0,23/200,97,122.0
5235,B-3,317.0,167/1000,100,122.0
5236,B-2,317.0,167/1000,100,122.0
5237,E-2,317.0,0.031,108,122.0
5238,E2,317.0,0.031,108,122.0
5239,F#2,317.0,0.031,108,122.0
5240,C2,317.0,0.031,108,122.0
5241,F#3,317.0,0.031,108,122.0
5242,G#3,317.333,0.125,83,122.0
5243,G#2,317.333,0.125,83,122.0
5244,C#4,317.667,99/500,102,122.0
5245,F#2,317.667,0.031,52,122.0
5246,E-2,317.667,193/1000,113,122.0
5247,E-2,317.667,193/1000,113,122.0
5248,B-3,317.667,193/1000,113,122.0
5249,G#3,317.667,0.438,95,122.0
5250,E-4,317.667,0.438,95,122.0
5251,B-3,317.667,71/125,106,122.0
5252,B-2,317.667,71/125,106,122.0
5253,E-2,318.0,0.188,95,122.0
5254,E-1,318.0,127/200,121,122.0
5255,E-1,318.0,127/200,121,122.0
5256,C2,318.0,0.031,96,122.0
5257,F#2,318.0,0.031,96,122.0
5258,G#3,318.333,0.125,81,122.0
5259,C#3,318.333,0.312,101,122.0
5260,B-2,318.667,0.031,73,122.0
5261,E-2,318.667,0.188,112,122.0
5262,E-2,318.667,0.188,112,122.0
5263,E-2,318.667,0.188,112,122.0
5264,B-3,318.667,0.188,112,122.0
5265,E-3,319.0,54/125,108,122.0
5266,E-1,319.0,339/1000,117,122.0
5267,E-1,319.0,339/1000,117,122.0
5268,G#3,319.0,0.141,95,122.0
5269,B-3,319.0,0.141,95,122.0
5270,C#4,319.0,0.141,95,122.0
5271,E-4,319.0,0.141,95,122.0
5272,B3,319.0,0.031,100,122.0
5273,E-2,319.0,0.031,100,122.0
5274,E2,319.0,0.031,100,122.0
5275,C2,319.0,0.031,100,122.0
5276,F#2,319.0,0.031,100,122.0
5277,F#3,319.0,0.031,100,122.0
5278,E-2,319.333,167/1000,100,122.0
5279,E-2,319.333,167/1000,100,122.0
5280,E-2,319.333,167/1000,100,122.0
5281,F4,319.667,333/1000,107,122.0
5282,E1,319.667,0.156,104,122.0
5283,E1,319.667,0.156,104,122.0
5284,E-2,319.667,0.156,104,122.0
5285,E-3,319.667,0.156,104,122.0
5286,C2,319.667,0.031,65,122.0
5287,F#2,319.667,0.031,65,122.0
5288,E-3,320.0,1.031,101,122.0
5289,A3,320.0,0.953,111,122.0
5290,F2,320.0,177/250,102,122.0
5291,F2,320.0,0.234,102,122.0
5292,F4,320.0,271/1000,107,122.0
5293,F1,320.0,71/125,122,122.0
5294,F1,320.0,71/125,122,122.0
5295,C2,320.0,0.031,113,122.0
5296,F#2,320.0,0.031,113,122.0
5297,F3,320.333,177/1000,92,122.0
5298,F4,320.667,181/250,107,122.0
5299,F#2,320.667,0.031,66,122.0
5300,F2,320.667,107/500,103,122.0
5301,F2,320.667,107/500,103,122.0
5302,F2,320.667,107/500,103,122.0
5303,F2,321.0,357/500,97,122.0
5304,E-3,321.0,151/1000,108,122.0
5305,F1,321.0,0.625,120,122.0
5306,F1,321.0,0.625,120,122.0
5307,E-2,321.0,0.031,112,122.0
5308,E2,321.0,0.031,112,122.0
5309,F#2,321.0,0.031,112,122.0
5310,C2,321.0,0.031,112,122.0
5311,F#3,321.0,0.031,112,122.0
5312,F3,321.333,0.188,106,122.0
5313,C#4,321.667,349/1000,116,122.0
5314,F#2,321.667,0.031,59,122.0
5315,F2,321.667,161/1000,106,122.0
5316,F2,321.667,161/1000,106,122.0
5317,E-3,321.667,161/1000,106,122.0
5318,A3,321.667,161/1000,106,122.0
5319,F3,321.667,161/1000,106,122.0
5320,F1,322.0,123/200,120,122.0
5321,F1,322.0,123/200,120,122.0
5322,F2,322.0,0.203,92,122.0
5323,F2,322.0,0.203,92,122.0
5324,F#2,322.0,0.031,102,122.0
5325,C2,322.0,0.031,102,122.0
5326,E-3,322.333,161/1000,90,122.0
5327,A3,322.333,161/1000,90,122.0
5328,F3,322.333,161/1000,90,122.0
5329,B-3,322.667,0.422,115,122.0
5330,F#2,322.667,0.031,62,122.0
5331,F2,322.667,0.141,101,122.0
5332,F2,322.667,0.141,101,122.0
5333,F2,322.667,0.141,101,122.0
5334,F2,322.667,0.141,101,122.0
5335,F#2,323.0,151/500,102,122.0
5336,E3,323.0,13/100,66,122.0
5337,G1,323.0,573/1000,116,122.0
5338,G1,323.0,573/1000,116,122.0
5339,B-3,323.0,229/1000,94,122.0
5340,G2,323.0,229/1000,94,122.0
5341,E-2,323.0,0.031,112,122.0
5342,E2,323.0,0.031,112,122.0
5343,F#2,323.0,0.031,112,122.0
5344,C2,323.0,0.031,112,122.0
5345,F#3,323.0,0.031,112,122.0
5346,G3,323.333,99/500,106,122.0
5347,G#4,323.667,333/1000,117,122.0
5348,F#2,323.667,0.031,64,122.0
5349,G2,323.667,27/200,104,122.0
5350,G2,323.667,27/200,104,122.0
5351,G2,323.667,27/200,104,122.0
5352,G2,323.667,27/200,104,122.0
5353,G#2,324.0,237/500,112,122.0
5354,G#2,324.0,0.203,113,122.0
5355,G#4,324.0,349/1000,117,122.0
5356,G#1,324.0,31/50,122,122.0
5357,G#1,324.0,31/50,122,122.0
5358,F#2,324.0,0.031,98,122.0
5359,C2,324.0,0.031,98,122.0
5360,G#3,324.333,167/1000,105,122.0
5361,C4,324.333,0.25,94,122.0
5362,F#3,324.333,0.25,94,122.0
5363,G#2,324.667,13/50,98,122.0
5364,G#4,324.667,123/200,117,122.0
5365,F#2,324.667,0.031,52,122.0
5366,G#2,324.667,73/500,106,122.0
5367,G#2,324.667,73/500,106,122.0
5368,G#2,324.667,73/500,106,122.0
5369,F#3,325.0,229/500,100,122.0
5370,C4,325.0,823/1000,101,122.0
5371,F#3,325.0,0.125,100,122.0
5372,G#1,325.0,63/100,115,122.0
5373,G#1,325.0,63/100,115,122.0
5374,E-2,325.0,0.031,114,122.0
5375,E2,325.0,0.031,114,122.0
5376,C2,325.0,0.031,114,122.0
5377,F#2,325.0,0.031,114,122.0
5378,F#3,325.0,0.031,114,122.0
5379,G#2,325.333,177/1000,96,122.0
5380,G#3,325.333,177/1000,96,122.0
5381,F#3,325.667,28/125,87,122.0
5382,G#4,325.667,427/500,113,122.0
5383,F#2,325.667,0.031,66,122.0
5384,G#2,325.667,0.141,102,122.0
5385,G#2,325.667,0.141,102,122.0
5386,G#2,325.667,0.141,102,122.0
5387,C2,326.0,0.031,111,122.0
5388,C#2,326.0,0.375,111,122.0
5389,C#2,326.0,0.375,111,122.0
5390,C#3,326.0,167/1000,99,122.0
5391,C#3,326.0,167/1000,99,122.0
5392,B3,326.333,0.031,76,122.0
5393,F#2,326.333,0.031,76,122.0
5394,F#3,326.333,177/1000,100,122.0
5395,C#4,326.333,177/1000,100,122.0
5396,C#3,326.667,0.328,101,122.0
5397,B-2,326.667,0.031,93,122.0
5398,C#3,326.667,0.25,114,122.0
5399,C#3,326.667,0.25,114,122.0
5400,F#4,326.667,0.156,98,122.0
5401,C#3,326.667,0.156,98,122.0
5402,C#4,327.0,193/1000,112,122.0
5403,C#2,327.0,0.578,119,122.0
5404,C#2,327.0,0.578,119,122.0
5405,E-4,327.0,0.578,119,122.0
5406,E-4,327.0,409/500,106,122.0
5407,B3,327.0,409/500,106,122.0
5408,F#3,327.0,409/500,106,122.0
5409,E-2,327.0,0.031,111,122.0
5410,E2,327.0,0.031,111,122.0
5411,F#2,327.0,0.031,111,122.0
5412,C2,327.0,0.031,111,122.0
5413,F#3,327.0,0.031,111,122.0
5414,C#3,327.333,13/100,101,122.0
5415,C#3,327.667,0.156,112,122.0
5416,C#3,327.667,0.156,112,122.0
5417,C#4,327.667,0.156,112,122.0
5418,E-4,327.667,0.156,112,122.0
5419,C2,327.667,0.031,78,122.0
5420,F#2,327.667,0.031,78,122.0
5421,E-1,328.0,67/125,119,122.0
5422,E-1,328.0,307/1000,88,122.0
5423,E-2,328.0,27/200,96,122.0
5424,E-1,328.0,0.625,110,122.0
5425,E-4,328.0,0.625,110,122.0
5426,C#3,328.0,0.031,108,122.0
5427,C2,328.0,0.031,108,122.0
5428,E-3,328.333,0.109,84,122.0
5429,F#2,328.667,0.031,64,122.0
5430,E-2,328.667,0.125,93,122.0
5431,E-2,328.667,0.125,93,122.0
5432,E-2,328.667,0.125,93,122.0
5433,C#3,328.667,0.125,93,122.0
5434,E-1,329.0,263/500,93,122.0
5435,E-1,329.0,0.094,97,122.0
5436,E-4,329.0,0.094,97,122.0
5437,G#3,329.0,0.094,97,122.0
5438,E-2,329.0,0.094,97,122.0
5439,B-3,329.0,0.031,105,122.0
5440,C#4,329.0,0.031,105,122.0
5441,E-2,329.0,0.031,105,122.0
5442,E-2,329.0,0.031,105,122.0
5443,E2,329.0,0.031,105,122.0
5444,F#2,329.0,0.031,105,122.0
5445,C2,329.0,0.031,105,122.0
5446,F#3,329.0,0.031,105,122.0
5447,C#2,329.333,0.078,82,122.0
5448,C#2,329.333,0.078,82,122.0
5449,C#3,329.333,0.078,82,122.0
5450,E-2,329.667,73/1000,87,122.0
5451,E-2,329.667,73/1000,87,122.0
5452,E-4,329.667,73/1000,87,122.0
5453,G#3,329.667,73/1000,87,122.0
5454,E-3,329.667,73/1000,87,122.0
5455,C#4,329.667,0.031,81,122.0
5456,B-3,329.667,0.031,81,122.0
5457,E-4,329.667,0.031,81,122.0
5458,G#3,329.667,0.031,81,122.0
5459,E-3,329.667,0.031,81,122.0
5460,F#2,329.667,0.031,81,122.0
5461,F#1,330.0,0.672,102,122.0
5462,F#1,330.0,0.672,102,122.0
5463,F#1,330.0,0.672,102,122.0
5464,F#2,330.0,0.672,102,122.0
5465,F#3,330.0,0.469,95,122.0
5466,B-3,330.0,0.469,95,122.0
5467,C#4,330.0,0.469,95,122.0
5468,F#2,330.0,0.031,91,122.0
5469,F#2,330.0,0.031,91,122.0
5470,C2,330.0,0.031,91,122.0
5471,F#3,330.333,73/1000,82,122.0
5472,F#2,330.667,0.031,62,122.0
5473,F#2,330.667,0.109,85,122.0
5474,F#2,330.667,0.109,85,122.0
5475,F#3,330.667,0.109,85,122.0
5476,B-3,330.667,0.109,85,122.0
5477,C#4,330.667,0.109,85,122.0
5478,F#2,330.667,0.109,85,122.0
5479,G#1,331.0,229/1000,101,122.0
5480,G#1,331.0,0.672,91,122.0
5481,G#2,331.0,73/500,88,122.0
5482,C4,331.0,521/1000,98,122.0
5483,G#2,331.0,521/1000,98,122.0
5484,G#1,331.0,521/1000,98,122.0
5485,G#3,331.0,521/1000,98,122.0
5486,E-4,331.0,521/1000,98,122.0
5487,E-2,331.0,0.031,110,122.0
5488,E2,331.0,0.031,110,122.0
5489,F#2,331.0,0.031,110,122.0
5490,C2,331.0,0.031,110,122.0
5491,F#3,331.0,0.031,110,122.0
5492,G#2,331.333,73/500,88,122.0
5493,G#3,331.333,73/500,88,122.0
5494,F#2,331.667,0.031,53,122.0
5495,F#2,331.667,0.141,97,122.0
5496,F#2,331.667,0.141,97,122.0
5497,G#3,331.667,0.141,97,122.0
5498,E-4,331.667,0.141,97,122.0
5499,F#3,331.667,0.141,97,122.0
5500,C4,331.667,0.141,101,122.0
5501,G#3,331.667,0.141,101,122.0
5502,E-4,331.667,0.141,101,122.0
5503,F#3,331.667,0.141,101,122.0
5504,E-1,332.0,557/1000,114,122.0
5505,E-1,332.0,667/1000,103,122.0
5506,E-1,332.0,69/250,96,122.0
5507,E-2,332.0,27/200,96,122.0
5508,C2,332.0,0.031,99,122.0
5509,F#2,332.0,0.031,99,122.0
5510,E-3,332.333,13/100,79,122.0
5511,F#2,332.667,0.031,56,122.0
5512,E-2,332.667,3/25,101,122.0
5513,E-2,332.667,3/25,101,122.0
5514,E-2,332.667,3/25,101,122.0
5515,E-2,332.667,3/25,101,122.0
5516,E-1,333.0,0.203,96,122.0
5517,E-1,333.0,67/125,99,122.0
5518,C#4,333.0,0.031,97,122.0
5519,C#3,333.0,0.031,97,122.0
5520,E-2,333.0,0.031,97,122.0
5521,E2,333.0,0.031,97,122.0
5522,F#2,333.0,0.031,97,122.0
5523,C2,333.0,0.031,97,122.0
5524,F#3,333.0,0.031,97,122.0
5525,C#2,333.333,0.078,96,122.0
5526,E-2,333.333,0.078,96,122.0
5527,E-2,333.333,0.078,96,122.0
5528,F#2,333.667,0.031,52,122.0
5529,E-2,333.667,0.109,93,122.0
5530,E-2,333.667,0.109,93,122.0
5531,C#4,333.667,0.109,93,122.0
5532,E-3,333.667,0.109,93,122.0
5533,E-1,334.0,167/1000,88,122.0
5534,C2,334.0,0.031,96,122.0
5535,F#2,334.0,0.031,96,122.0
5536,C#2,334.333,0.125,100,122.0
5537,C#2,334.333,0.125,100,122.0
5538,C#4,334.333,0.125,100,122.0
5539,F#4,334.333,0.125,100,122.0
5540,C#3,334.333,0.125,100,122.0
5541,B-2,334.667,0.031,73,122.0
5542,B-1,334.667,83/1000,95,122.0
5543,C#1,334.667,83/1000,95,122.0
5544,E-2,334.667,83/1000,95,122.0
5545,E-2,334.667,83/1000,95,122.0
5546,C#2,335.0,0.641,110,122.0
5547,C#2,335.0,73/250,100,122.0
5548,C#3,335.0,73/250,100,122.0
5549,E-4,335.0,0.031,104,122.0
5550,B-3,335.0,0.031,104,122.0
5551,E-2,335.0,0.031,104,122.0
5552,E2,335.0,0.031,104,122.0
5553,C2,335.0,0.031,104,122.0
5554,F#2,335.0,0.031,104,122.0
5555,F#3,335.0,0.031,104,122.0
5556,B-1,335.333,0.391,101,122.0
5557,E-2,335.333,177/1000,97,122.0
5558,E-2,335.333,83/1000,88,122.0
5559,E-2,335.667,0.203,98,122.0
5560,E-2,335.667,0.203,98,122.0
5561,G#3,335.667,0.109,92,122.0
5562,C#4,335.667,0.109,92,122.0
5563,E-3,335.667,0.109,92,122.0
5564,C2,335.667,0.031,65,122.0
5565,F#2,335.667,0.031,65,122.0
5566,E-1,336.0,271/500,101,122.0
5567,E-2,336.0,13/125,95,122.0
5568,E-1,336.0,127/200,100,122.0
5569,E-1,336.0,127/200,100,122.0
5570,C2,336.0,0.031,113,122.0
5571,F#2,336.0,0.031,113,122.0
5572,E-3,336.333,83/1000,67,122.0
5573,F#2,336.667,0.031,66,122.0
5574,E-2,336.667,23/200,98,122.0
5575,E-2,336.667,23/200,98,122.0
5576,E-2,336.667,23/200,98,122.0
5577,C#3,336.667,23/200,98,122.0
5578,E-1,337.0,0.641,103,122.0
5579,E-1,337.0,107/500,98,122.0
5580,E-4,337.0,107/500,98,122.0
5581,C#4,337.0,0.031,99,122.0
5582,B-3,337.0,0.031,99,122.0
5583,E-2,337.0,0.031,99,122.0
5584,E-2,337.0,0.031,99,122.0
5585,E2,337.0,0.031,99,122.0
5586,F#2,337.0,0.031,99,122.0
5587,C2,337.0,0.031,99,122.0
5588,F#3,337.0,0.031,99,122.0
5589,C#2,337.333,83/1000,90,122.0
5590,C#3,337.333,83/1000,90,122.0
5591,E-2,337.667,0.109,97,122.0
5592,E-2,337.667,0.109,97,122.0
5593,E-3,337.667,0.109,97,122.0
5594,E-4,337.667,0.031,82,122.0
5595,B-3,337.667,0.031,82,122.0
5596,G#3,337.667,0.031,82,122.0
5597,E-3,337.667,0.031,82,122.0
5598,F#2,337.667,0.031,82,122.0
5599,F#1,338.0,151/250,97,122.0
5600,F#2,338.0,0.125,87,122.0
5601,F#1,338.0,0.703,100,122.0
5602,F#1,338.0,0.703,100,122.0
5603,F#2,338.0,0.031,102,122.0
5604,C2,338.0,0.031,102,122.0
5605,B-3,338.333,23/200,86,122.0
5606,C#4,338.333,23/200,86,122.0
5607,F#3,338.333,23/200,86,122.0
5608,F#3,338.333,23/200,86,122.0
5609,F#2,338.667,0.031,62,122.0
5610,F#2,338.667,73/500,91,122.0
5611,F#2,338.667,73/500,91,122.0
5612,F#2,338.667,73/500,91,122.0
5613,F#2,338.667,73/500,91,122.0
5614,G#1,339.0,0.688,92,122.0
5615,G#2,339.0,167/1000,75,122.0
5616,G#1,339.0,0.469,99,122.0
5617,C4,339.0,0.469,99,122.0
5618,G#3,339.0,0.469,99,122.0
5619,G#1,339.0,521/1000,101,122.0
5620,E-4,339.0,521/1000,101,122.0
5621,E-2,339.0,0.031,112,122.0
5622,E2,339.0,0.031,112,122.0
5623,F#2,339.0,0.031,112,122.0
5624,C2,339.0,0.031,112,122.0
5625,F#3,339.0,0.031,112,122.0
5626,G#2,339.333,99/500,85,122.0
5627,G#3,339.333,99/1000,79,122.0
5628,F#2,339.667,0.031,64,122.0
5629,F#2,339.667,3/25,88,122.0
5630,F#2,339.667,3/25,88,122.0
5631,C4,339.667,3/25,88,122.0
5632,E-4,339.667,3/25,88,122.0
5633,G#3,339.667,3/25,88,122.0
5634,G#2,339.667,3/25,88,122.0
5635,F#3,339.667,3/25,88,122.0
5636,E-1,340.0,521/1000,98,122.0
5637,E-2,340.0,161/1000,86,122.0
5638,E-1,340.0,63/100,106,122.0
5639,E-1,340.0,63/100,106,122.0
5640,F#2,340.0,0.031,98,122.0
5641,C2,340.0,0.031,98,122.0
5642,F#3,340.333,23/200,86,122.0
5643,E-3,340.333,23/200,86,122.0
5644,F#2,340.667,0.031,52,122.0
5645,E-2,340.667,3/25,99,122.0
5646,E-2,340.667,3/25,99,122.0
5647,E-2,340.667,3/25,99,122.0
5648,E-2,340.667,3/25,99,122.0
5649,E-1,341.0,521/1000,88,122.0
5650,E-1,341.0,0.031,106,122.0
5651,F#3,341.0,0.031,106,122.0
5652,C#3,341.0,0.031,106,122.0
5653,E-2,341.0,0.031,106,122.0
5654,E2,341.0,0.031,106,122.0
5655,C2,341.0,0.031,106,122.0
5656,F#2,341.0,0.031,106,122.0
5657,F#3,341.0,0.031,106,122.0
5658,E-1,341.333,26/125,95,122.0
5659,E-1,341.333,73/1000,94,122.0
5660,E-2,341.333,73/1000,94,122.0
5661,B-2,341.667,0.703,104,122.0
5662,F#2,341.667,0.031,66,122.0
5663,E-2,341.667,0.141,97,122.0
5664,F#4,341.667,0.141,97,122.0
5665,C#4,341.667,0.141,97,122.0
5666,E-3,341.667,0.141,97,122.0
5667,G#1,342.0,0.266,83,122.0
5668,E-2,342.0,73/500,95,122.0
5669,E-2,342.0,0.031,98,122.0
5670,C2,342.0,0.031,98,122.0
5671,C#3,342.333,0.203,76,122.0
5672,B-1,342.333,0.203,76,122.0
5673,B-3,342.333,0.031,90,122.0
5674,E-4,342.333,0.031,90,122.0
5675,C#3,342.333,0.031,90,122.0
5676,F#2,342.333,0.031,90,122.0
5677,E-2,342.667,0.188,104,122.0
5678,B-2,342.667,0.031,93,122.0
5679,E-1,342.667,0.078,95,122.0
5680,C#2,342.667,0.078,95,122.0
5681,E-2,342.667,0.078,95,122.0
5682,A2,343.0,151/1000,100,122.0
5683,C#2,343.0,651/1000,104,122.0
5684,G#2,343.0,101/200,102,122.0
5685,C#4,343.0,101/200,102,122.0
5686,G#3,343.0,0.312,96,122.0
5687,C#3,343.0,0.312,96,122.0
5688,E-2,343.0,0.031,111,122.0
5689,E2,343.0,0.031,111,122.0
5690,F#2,343.0,0.031,111,122.0
5691,C2,343.0,0.031,111,122.0
5692,F#3,343.0,0.031,111,122.0
5693,E-2,343.333,73/500,100,122.0
5694,E-2,343.333,17/250,65,122.0
5695,F#2,343.667,0.109,90,122.0
5696,E-2,343.667,0.109,90,122.0
5697,E-4,343.667,0.109,90,122.0
5698,B-3,343.667,0.109,90,122.0
5699,E-3,343.667,0.109,90,122.0
5700,C2,343.667,0.031,78,122.0
5701,F#2,343.667,0.031,78,122.0
5702,E-1,344.0,67/125,119,122.0
5703,E-1,344.0,341/500,110,122.0
5704,E-1,344.0,307/1000,88,122.0
5705,E-2,344.0,27/200,95,122.0
5706,C#3,344.0,0.031,108,122.0
5707,C2,344.0,0.031,108,122.0
5708,E-3,344.333,0.125,86,122.0
5709,F#2,344.667,0.031,64,122.0
5710,E-2,344.667,83/1000,98,122.0
5711,E-2,344.667,83/1000,98,122.0
5712,E-2,344.667,83/1000,98,122.0
5713,E-2,344.667,83/1000,98,122.0
5714,E-1,345.0,263/500,93,122.0
5715,E-1,345.0,23/200,98,122.0
5716,E-4,345.0,23/200,98,122.0
5717,G#3,345.0,23/200,98,122.0
5718,E-2,345.0,23/200,98,122.0
5719,B-3,345.0,0.031,105,122.0
5720,C#4,345.0,0.031,105,122.0
5721,E-2,345.0,0.031,105,122.0
5722,E-2,345.0,0.031,105,122.0
5723,E2,345.0,0.031,105,122.0
5724,F#2,345.0,0.031,105,122.0
5725,C2,345.0,0.031,105,122.0
5726,F#3,345.0,0.031,105,122.0
5727,C#2,345.333,0.125,85,122.0
5728,C#2,345.333,0.125,85,122.0
5729,C#3,345.333,0.125,85,122.0
5730,E-2,345.667,0.109,87,122.0
5731,E-2,345.667,0.109,87,122.0
5732,E-4,345.667,0.109,87,122.0
5733,G#3,345.667,0.109,87,122.0
5734,E-3,345.667,0.109,87,122.0
5735,C#4,345.667,0.031,81,122.0
5736,B-3,345.667,0.031,81,122.0
5737,E-4,345.667,0.031,81,122.0
5738,G#3,345.667,0.031,81,122.0
5739,E-3,345.667,0.031,81,122.0
5740,F#2,345.667,0.031,81,122.0
5741,F#2,346.0,23/200,96,122.0
5742,F#1,346.0,0.672,102,122.0
5743,F#1,346.0,0.672,102,122.0
5744,F#1,346.0,0.672,102,122.0
5745,F#2,346.0,0.672,102,122.0
5746,F#3,346.0,0.469,95,122.0
5747,B-3,346.0,0.469,95,122.0
5748,C#4,346.0,0.469,95,122.0
5749,F#2,346.0,0.031,98,122.0
5750,C2,346.0,0.031,98,122.0
5751,F#3,346.333,0.125,80,122.0
5752,F#2,346.667,0.031,62,122.0
5753,F#2,346.667,0.172,82,122.0
5754,F#2,346.667,0.172,82,122.0
5755,F#3,346.667,0.172,82,122.0
5756,B-3,346.667,0.172,82,122.0
5757,C#4,346.667,0.172,82,122.0
5758,F#2,346.667,0.172,82,122.0
5759,G#1,347.0,229/1000,101,122.0
5760,G#1,347.0,0.672,91,122.0
5761,G#2,347.0,13/100,76,122.0
5762,C4,347.0,521/1000,98,122.0
5763,G#2,347.0,521/1000,98,122.0
5764,G#1,347.0,521/1000,98,122.0
5765,G#3,347.0,521/1000,98,122.0
5766,E-4,347.0,521/1000,98,122.0
5767,E-2,347.0,0.031,110,122.0
5768,E2,347.0,0.031,110,122.0
5769,F#2,347.0,0.031,110,122.0
5770,C2,347.0,0.031,110,122.0
5771,F#3,347.0,0.031,110,122.0
5772,G#2,347.333,0.203,91,122.0
5773,G#3,347.333,23/200,80,122.0
5774,F#2,347.667,0.031,53,122.0
5775,F#2,347.667,73/500,98,122.0
5776,F#2,347.667,73/500,98,122.0
5777,G#3,347.667,73/500,98,122.0
5778,E-4,347.667,73/500,98,122.0
5779,C4,347.667,13/250,92,122.0
5780,G#3,347.667,13/250,92,122.0
5781,E-4,347.667,13/250,92,122.0
5782,F#3,347.667,13/250,92,122.0
5783,E-1,348.0,557/1000,114,122.0
5784,E-1,348.0,667/1000,103,122.0
5785,E-1,348.0,69/250,96,122.0
5786,E-2,348.0,151/1000,83,122.0
5787,C2,348.0,0.031,99,122.0
5788,F#2,348.0,0.031,99,122.0
5789,E-3,348.333,3/25,81,122.0
5790,E-2,348.667,0.188,105,122.0
5791,E-2,348.667,0.188,105,122.0
5792,E-2,348.667,0.188,105,122.0
5793,E-2,348.667,0.031,70,122.0
5794,F#2,348.667,0.031,70,122.0
5795,E-1,349.0,0.203,96,122.0
5796,E-1,349.0,67/125,99,122.0
5797,C#3,349.0,3/25,80,122.0
5798,C#4,349.0,0.031,102,122.0
5799,E-2,349.0,0.031,102,122.0
5800,E2,349.0,0.031,102,122.0
5801,F#2,349.0,0.031,102,122.0
5802,C2,349.0,0.031,102,122.0
5803,F#3,349.0,0.031,102,122.0
5804,C#2,349.333,0.062,93,122.0
5805,E-2,349.333,0.062,93,122.0
5806,E-2,349.333,0.062,93,122.0
5807,F#2,349.667,0.031,52,122.0
5808,E-2,349.667,27/200,91,122.0
5809,E-2,349.667,27/200,91,122.0
5810,C#4,349.667,27/200,91,122.0
5811,E-3,349.667,27/200,91,122.0
5812,E-1,350.0,167/1000,88,122.0
5813,E-2,350.0,0.031,93,122.0
5814,C2,350.0,0.031,93,122.0
5815,F#2,350.0,0.031,93,122.0
5816,C#2,350.333,23/200,94,122.0
5817,C#2,350.333,23/200,94,122.0
5818,C#4,350.333,23/200,94,122.0
5819,F#4,350.333,23/200,94,122.0
5820,C#3,350.333,23/200,94,122.0
5821,B-2,350.667,0.031,73,122.0
5822,B-1,350.667,99/1000,94,122.0
5823,C#1,350.667,99/1000,94,122.0
5824,E-2,350.667,99/1000,94,122.0
5825,E-2,350.667,99/1000,94,122.0
5826,C#2,351.0,0.641,110,122.0
5827,C#2,351.0,6/25,102,122.0
5828,C#3,351.0,6/25,102,122.0
5829,E-4,351.0,0.031,104,122.0
5830,B-3,351.0,0.031,104,122.0
5831,E-2,351.0,0.031,104,122.0
5832,E2,351.0,0.031,104,122.0
5833,C2,351.0,0.031,104,122.0
5834,F#2,351.0,0.031,104,122.0
5835,F#3,351.0,0.031,104,122.0
5836,B-1,351.333,0.391,101,122.0
5837,E-2,351.333,177/1000,97,122.0
5838,E-2,351.333,89/1000,86,122.0
5839,E-2,351.667,0.203,98,122.0
5840,E-2,351.667,0.203,98,122.0
5841,G#3,351.667,27/200,92,122.0
5842,C#4,351.667,27/200,92,122.0
5843,E-3,351.667,27/200,92,122.0
5844,C2,351.667,0.031,65,122.0
5845,F#2,351.667,0.031,65,122.0
5846,E-1,352.0,271/500,101,122.0
5847,E-2,352.0,3/25,94,122.0
5848,E-1,352.0,127/200,100,122.0
5849,E-1,352.0,127/200,100,122.0
5850,C2,352.0,0.031,113,122.0
5851,F#2,352.0,0.031,113,122.0
5852,C#3,352.333,99/1000,82,122.0
5853,E-2,352.667,0.219,99,122.0
5854,E-2,352.667,0.219,99,122.0
5855,E-2,352.667,0.219,99,122.0
5856,E-3,352.667,0.031,70,122.0
5857,F#2,352.667,0.031,70,122.0
5858,E-1,353.0,0.641,103,122.0
5859,E-1,353.0,107/500,98,122.0
5860,E-4,353.0,107/500,98,122.0
5861,C#4,353.0,0.031,100,122.0
5862,B-3,353.0,0.031,100,122.0
5863,E-2,353.0,0.031,100,122.0
5864,E-2,353.0,0.031,100,122.0
5865,E2,353.0,0.031,100,122.0
5866,F#2,353.0,0.031,100,122.0
5867,C2,353.0,0.031,100,122.0
5868,F#3,353.0,0.031,100,122.0
5869,C#2,353.333,23/200,92,122.0
5870,E-3,353.333,23/200,92,122.0
5871,E-2,353.667,0.109,93,122.0
5872,E-2,353.667,0.109,93,122.0
5873,C#3,353.667,0.109,93,122.0
5874,E-4,353.667,0.031,80,122.0
5875,B-3,353.667,0.031,80,122.0
5876,G#3,353.667,0.031,80,122.0
5877,C#3,353.667,0.031,80,122.0
5878,F#2,353.667,0.031,80,122.0
5879,F#1,354.0,151/250,97,122.0
5880,F#2,354.0,0.141,95,122.0
5881,F#1,354.0,0.703,100,122.0
5882,F#1,354.0,0.703,100,122.0
5883,F#2,354.0,0.031,102,122.0
5884,C2,354.0,0.031,102,122.0
5885,B-3,354.333,27/200,86,122.0
5886,C#4,354.333,27/200,86,122.0
5887,F#3,354.333,27/200,86,122.0
5888,F#3,354.333,27/200,86,122.0
5889,F#2,354.667,0.031,62,122.0
5890,F#2,354.667,27/200,96,122.0
5891,F#2,354.667,27/200,96,122.0
5892,F#2,354.667,27/200,96,122.0
5893,F#2,354.667,27/200,96,122.0
5894,G#1,355.0,0.688,92,122.0
5895,G#2,355.0,0.125,79,122.0
5896,G#1,355.0,0.469,99,122.0
5897,C4,355.0,0.469,99,122.0
5898,G#3,355.0,0.469,99,122.0
5899,G#1,355.0,521/1000,101,122.0
5900,E-4,355.0,521/1000,101,122.0
5901,E-2,355.0,0.031,112,122.0
5902,E2,355.0,0.031,112,122.0
5903,F#2,355.0,0.031,112,122.0
5904,C2,355.0,0.031,112,122.0
5905,F#3,355.0,0.031,112,122.0
5906,G#2,355.333,99/500,85,122.0
5907,G#3,355.333,13/100,86,122.0
5908,F#2,355.667,0.031,64,122.0
5909,F#2,355.667,27/200,87,122.0
5910,F#2,355.667,27/200,87,122.0
5911,C4,355.667,27/200,87,122.0
5912,E-4,355.667,27/200,87,122.0
5913,G#3,355.667,27/200,87,122.0
5914,G#2,355.667,27/200,87,122.0
5915,F#3,355.667,27/200,87,122.0
5916,E-1,356.0,521/1000,98,122.0
5917,E-2,356.0,0.125,87,122.0
5918,E-1,356.0,63/100,106,122.0
5919,E-1,356.0,63/100,106,122.0
5920,F#2,356.0,0.031,98,122.0
5921,C2,356.0,0.031,98,122.0
5922,F#3,356.333,0.141,84,122.0
5923,E-3,356.333,0.141,84,122.0
5924,F#2,356.667,0.031,52,122.0
5925,E-2,356.667,0.094,99,122.0
5926,E-2,356.667,0.094,99,122.0
5927,E-2,356.667,0.094,99,122.0
5928,E-2,356.667,0.094,99,122.0
5929,E-1,357.0,521/1000,88,122.0
5930,C#3,357.0,73/500,83,122.0
5931,E-1,357.0,0.031,109,122.0
5932,F#3,357.0,0.031,109,122.0
5933,E-2,357.0,0.031,109,122.0
5934,E2,357.0,0.031,109,122.0
5935,C2,357.0,0.031,109,122.0
5936,F#2,357.0,0.031,109,122.0
5937,F#3,357.0,0.031,109,122.0
5938,E-1,357.333,26/125,95,122.0
5939,E-1,357.333,23/200,98,122.0
5940,E-2,357.333,23/200,98,122.0
5941,B-2,357.667,0.703,104,122.0
5942,B-2,357.667,349/1000,97,122.0
5943,F#2,357.667,0.031,66,122.0
5944,E-2,357.667,0.109,97,122.0
5945,F#4,357.667,0.109,97,122.0
5946,C#4,357.667,0.109,97,122.0
5947,G#1,358.0,0.266,83,122.0
5948,E-2,358.0,73/500,95,122.0
5949,C2,358.0,0.031,111,122.0
5950,C#3,358.333,0.156,82,122.0
5951,B-1,358.333,0.156,82,122.0
5952,B-2,358.333,0.156,82,122.0
5953,B-3,358.333,0.031,93,122.0
5954,E-4,358.333,0.031,93,122.0
5955,F#2,358.333,0.031,93,122.0
5956,E-2,358.667,0.188,104,122.0
5957,B-2,358.667,0.031,93,122.0
5958,E-1,358.667,0.125,100,122.0
5959,C#2,358.667,0.125,100,122.0
5960,A2,359.0,151/1000,100,122.0
5961,C#2,359.0,651/1000,104,122.0
5962,G#2,359.0,101/200,102,122.0
5963,C#4,359.0,101/200,102,122.0
5964,G#3,359.0,0.344,96,122.0
5965,G#2,359.0,0.344,96,122.0
5966,E-2,359.0,0.031,111,122.0
5967,E2,359.0,0.031,111,122.0
5968,F#2,359.0,0.031,111,122.0
5969,C2,359.0,0.031,111,122.0
5970,F#3,359.0,0.031,111,122.0
5971,E-2,359.333,73/500,100,122.0
5972,F#2,359.667,73/500,94,122.0
5973,E-2,359.667,73/500,94,122.0
5974,E-4,359.667,73/500,94,122.0
5975,B-3,359.667,73/500,94,122.0
5976,F#2,359.667,73/500,94,122.0
5977,C2,359.667,0.031,78,122.0
5978,F#2,359.667,0.031,78,122.0
5979,E-1,360.0,67/125,119,122.0
5980,E-1,360.0,341/500,110,122.0
5981,E-1,360.0,307/1000,88,122.0
5982,E-2,360.0,27/200,96,122.0
5983,C#3,360.0,0.031,108,122.0
5984,C2,360.0,0.031,108,122.0
5985,E-3,360.333,0.109,84,122.0
5986,F#2,360.667,0.031,64,122.0
5987,E-2,360.667,0.125,93,122.0
5988,E-2,360.667,0.125,93,122.0
5989,E-2,360.667,0.125,93,122.0
5990,C#3,360.667,0.125,93,122.0
5991,E-1,361.0,263/500,93,122.0
5992,E-1,361.0,0.094,97,122.0
5993,E-4,361.0,0.094,97,122.0
5994,G#3,361.0,0.094,97,122.0
5995,E-2,361.0,0.094,97,122.0
5996,B-3,361.0,0.031,105,122.0
5997,C#4,361.0,0.031,105,122.0
5998,E-2,361.0,0.031,105,122.0
5999,E-2,361.0,0.031,105,122.0
6000,E2,361.0,0.031,105,122.0
6001,F#2,361.0,0.031,105,122.0
6002,C2,361.0,0.031,105,122.0
6003,F#3,361.0,0.031,105,122.0
6004,C#2,361.333,0.078,82,122.0
6005,C#2,361.333,0.078,82,122.0
6006,C#3,361.333,0.078,82,122.0
6007,E-2,361.667,73/1000,87,122.0
6008,E-2,361.667,73/1000,87,122.0
6009,E-4,361.667,73/1000,87,122.0
6010,G#3,361.667,73/1000,87,122.0
6011,E-3,361.667,73/1000,87,122.0
6012,C#4,361.667,0.031,81,122.0
6013,B-3,361.667,0.031,81,122.0
6014,E-4,361.667,0.031,81,122.0
6015,G#3,361.667,0.031,81,122.0
6016,E-3,361.667,0.031,81,122.0
6017,F#2,361.667,0.031,81,122.0
6018,F#1,362.0,0.672,102,122.0
6019,F#1,362.0,0.672,102,122.0
6020,F#1,362.0,0.672,102,122.0
6021,F#2,362.0,0.672,102,122.0
6022,F#3,362.0,0.469,95,122.0
6023,B-3,362.0,0.469,95,122.0
6024,C#4,362.0,0.469,95,122.0
6025,F#2,362.0,0.031,91,122.0
6026,F#2,362.0,0.031,91,122.0
6027,C2,362.0,0.031,91,122.0
6028,F#3,362.333,73/1000,82,122.0
6029,F#2,362.667,0.031,62,122.0
6030,F#2,362.667,0.109,85,122.0
6031,F#2,362.667,0.109,85,122.0
6032,F#3,362.667,0.109,85,122.0
6033,B-3,362.667,0.109,85,122.0
6034,C#4,362.667,0.109,85,122.0
6035,F#2,362.667,0.109,85,122.0
6036,G#1,363.0,229/1000,101,122.0
6037,G#1,363.0,0.672,91,122.0
6038,G#2,363.0,73/500,88,122.0
6039,C4,363.0,521/1000,98,122.0
6040,G#2,363.0,521/1000,98,122.0
6041,G#1,363.0,521/1000,98,122.0
6042,G#3,363.0,521/1000,98,122.0
6043,E-4,363.0,521/1000,98,122.0
6044,E-2,363.0,0.031,110,122.0
6045,E2,363.0,0.031,110,122.0
6046,F#2,363.0,0.031,110,122.0
6047,C2,363.0,0.031,110,122.0
6048,F#3,363.0,0.031,110,122.0
6049,G#2,363.333,73/500,88,122.0
6050,G#3,363.333,73/500,88,122.0
6051,F#2,363.667,0.031,53,122.0
6052,F#2,363.667,0.141,97,122.0
6053,F#2,363.667,0.141,97,122.0
6054,G#3,363.667,0.141,97,122.0
6055,E-4,363.667,0.141,97,122.0
6056,F#3,363.667,0.141,97,122.0
6057,C4,363.667,0.141,101,122.0
6058,G#3,363.667,0.141,101,122.0
6059,E-4,363.667,0.141,101,122.0
6060,F#3,363.667,0.141,101,122.0
6061,E-1,364.0,557/1000,114,122.0
6062,E-1,364.0,667/1000,103,122.0
6063,E-1,364.0,69/250,96,122.0
6064,E-2,364.0,27/200,96,122.0
6065,C2,364.0,0.031,99,122.0
6066,F#2,364.0,0.031,99,122.0
6067,E-3,364.333,13/100,79,122.0
6068,F#2,364.667,0.031,56,122.0
6069,E-2,364.667,3/25,101,122.0
6070,E-2,364.667,3/25,101,122.0
6071,E-2,364.667,3/25,101,122.0
6072,E-2,364.667,3/25,101,122.0
6073,E-1,365.0,0.203,96,122.0
6074,E-1,365.0,67/125,99,122.0
6075,C#4,365.0,0.031,97,122.0
6076,C#3,365.0,0.031,97,122.0
6077,E-2,365.0,0.031,97,122.0
6078,E2,365.0,0.031,97,122.0
6079,F#2,365.0,0.031,97,122.0
6080,C2,365.0,0.031,97,122.0
6081,F#3,365.0,0.031,97,122.0
6082,C#2,365.333,0.078,96,122.0
6083,E-2,365.333,0.078,96,122.0
6084,E-2,365.333,0.078,96,122.0
6085,F#2,365.667,0.031,52,122.0
6086,E-2,365.667,0.109,93,122.0
6087,E-2,365.667,0.109,93,122.0
6088,C#4,365.667,0.109,93,122.0
6089,E-3,365.667,0.109,93,122.0
6090,E-1,366.0,167/1000,88,122.0
6091,C2,366.0,0.031,96,122.0
6092,F#2,366.0,0.031,96,122.0
6093,C#2,366.333,0.125,100,122.0
6094,C#2,366.333,0.125,100,122.0
6095,C#4,366.333,0.125,100,122.0
6096,F#4,366.333,0.125,100,122.0
6097,C#3,366.333,0.125,100,122.0
6098,B-2,366.667,0.031,73,122.0
6099,B-1,366.667,83/1000,95,122.0
6100,C#1,366.667,83/1000,95,122.0
6101,E-2,366.667,83/1000,95,122.0
6102,E-2,366.667,83/1000,95,122.0
6103,C#2,367.0,0.641,110,122.0
6104,C#2,367.0,73/250,100,122.0
6105,C#3,367.0,73/250,100,122.0
6106,E-4,367.0,0.031,104,122.0
6107,B-3,367.0,0.031,104,122.0
6108,E-2,367.0,0.031,104,122.0
6109,E2,367.0,0.031,104,122.0
6110,C2,367.0,0.031,104,122.0
6111,F#2,367.0,0.031,104,122.0
6112,F#3,367.0,0.031,104,122.0
6113,B-1,367.333,0.391,101,122.0
6114,E-2,367.333,177/1000,97,122.0
6115,E-2,367.333,83/1000,88,122.0
6116,E-2,367.667,0.203,98,122.0
6117,E-2,367.667,0.203,98,122.0
6118,G#3,367.667,0.109,92,122.0
6119,C#4,367.667,0.109,92,122.0
6120,E-3,367.667,0.109,92,122.0
6121,C2,367.667,0.031,65,122.0
6122,F#2,367.667,0.031,65,122.0
6123,E-1,368.0,271/500,101,122.0
6124,E-2,368.0,13/125,95,122.0
6125,E-1,368.0,127/200,100,122.0
6126,E-1,368.0,127/200,100,122.0
6127,C2,368.0,0.031,113,122.0
6128,F#2,368.0,0.031,113,122.0
6129,E-3,368.333,83/1000,67,122.0
6130,F#2,368.667,0.031,66,122.0
6131,E-2,368.667,23/200,98,122.0
6132,E-2,368.667,23/200,98,122.0
6133,E-2,368.667,23/200,98,122.0
6134,C#3,368.667,23/200,98,122.0
6135,E-1,369.0,0.641,103,122.0
6136,E-1,369.0,107/500,98,122.0
6137,E-4,369.0,107/500,98,122.0
6138,C#4,369.0,0.031,99,122.0
6139,B-3,369.0,0.031,99,122.0
6140,E-2,369.0,0.031,99,122.0
6141,E-2,369.0,0.031,99,122.0
6142,E2,369.0,0.031,99,122.0
6143,F#2,369.0,0.031,99,122.0
6144,C2,369.0,0.031,99,122.0
6145,F#3,369.0,0.031,99,122.0
6146,C#2,369.333,83/1000,90,122.0
6147,C#3,369.333,83/1000,90,122.0
6148,E-2,369.667,0.109,97,122.0
6149,E-2,369.667,0.109,97,122.0
6150,E-3,369.667,0.109,97,122.0
6151,E-4,369.667,0.031,82,122.0
6152,B-3,369.667,0.031,82,122.0
6153,G#3,369.667,0.031,82,122.0
6154,E-3,369.667,0.031,82,122.0
6155,F#2,369.667,0.031,82,122.0
6156,F#1,370.0,151/250,97,122.0
6157,F#2,370.0,0.125,87,122.0
6158,F#1,370.0,0.703,100,122.0
6159,F#1,370.0,0.703,100,122.0
6160,F#2,370.0,0.031,102,122.0
6161,C2,370.0,0.031,102,122.0
6162,B-3,370.333,23/200,86,122.0
6163,C#4,370.333,23/200,86,122.0
6164,F#3,370.333,23/200,86,122.0
6165,F#3,370.333,23/200,86,122.0
6166,F#2,370.667,0.031,62,122.0
6167,F#2,370.667,73/500,91,122.0
6168,F#2,370.667,73/500,91,122.0
6169,F#2,370.667,73/500,91,122.0
6170,F#2,370.667,73/500,91,122.0
6171,G#1,371.0,0.688,92,122.0
6172,G#2,371.0,167/1000,75,122.0
6173,G#1,371.0,0.469,99,122.0
6174,C4,371.0,0.469,99,122.0
6175,G#3,371.0,0.469,99,122.0
6176,G#1,371.0,521/1000,101,122.0
6177,E-4,371.0,521/1000,101,122.0
6178,E-2,371.0,0.031,112,122.0
6179,E2,371.0,0.031,112,122.0
6180,F#2,371.0,0.031,112,122.0
6181,C2,371.0,0.031,112,122.0
6182,F#3,371.0,0.031,112,122.0
6183,G#2,371.333,99/500,85,122.0
6184,G#3,371.333,99/1000,79,122.0
6185,F#2,371.667,0.031,64,122.0
6186,F#2,371.667,3/25,88,122.0
6187,F#2,371.667,3/25,88,122.0
6188,C4,371.667,3/25,88,122.0
6189,E-4,371.667,3/25,88,122.0
6190,G#3,371.667,3/25,88,122.0
6191,G#2,371.667,3/25,88,122.0
6192,F#3,371.667,3/25,88,122.0
6193,E-1,372.0,521/1000,98,122.0
6194,E-2,372.0,161/1000,86,122.0
6195,E-1,372.0,63/100,106,122.0
6196,E-1,372.0,63/100,106,122.0
6197,F#2,372.0,0.031,98,122.0
6198,C2,372.0,0.031,98,122.0
6199,F#3,372.333,23/200,86,122.0
6200,E-3,372.333,23/200,86,122.0
6201,F#2,372.667,0.031,52,122.0
6202,E-2,372.667,3/25,99,122.0
6203,E-2,372.667,3/25,99,122.0
6204,E-2,372.667,3/25,99,122.0
6205,E-2,372.667,3/25,99,122.0
6206,E-1,373.0,521/1000,88,122.0
6207,E-1,373.0,0.031,106,122.0
6208,F#3,373.0,0.031,106,122.0
6209,C#3,373.0,0.031,106,122.0
6210,E-2,373.0,0.031,106,122.0
6211,E2,373.0,0.031,106,122.0
6212,C2,373.0,0.031,106,122.0
6213,F#2,373.0,0.031,106,122.0
6214,F#3,373.0,0.031,106,122.0
6215,E-1,373.333,26/125,95,122.0
6216,E-1,373.333,73/1000,94,122.0
6217,E-2,373.333,73/1000,94,122.0
6218,B-2,373.667,0.703,104,122.0
6219,F#2,373.667,0.031,66,122.0
6220,E-2,373.667,0.141,97,122.0
6221,F#4,373.667,0.141,97,122.0
6222,C#4,373.667,0.141,97,122.0
6223,E-3,373.667,0.141,97,122.0
6224,G#1,374.0,0.266,83,122.0
6225,E-2,374.0,73/500,95,122.0
6226,E-2,374.0,0.031,98,122.0
6227,C2,374.0,0.031,98,122.0
6228,C#3,374.333,0.203,76,122.0
6229,B-1,374.333,0.203,76,122.0
6230,B-3,374.333,0.031,90,122.0
6231,E-4,374.333,0.031,90,122.0
6232,C#3,374.333,0.031,90,122.0
6233,F#2,374.333,0.031,90,122.0
6234,E-2,374.667,0.188,104,122.0
6235,B-2,374.667,0.031,93,122.0
6236,E-1,374.667,0.078,95,122.0
6237,C#2,374.667,0.078,95,122.0
6238,E-2,374.667,0.078,95,122.0
6239,A2,375.0,151/1000,100,122.0
6240,C#2,375.0,651/1000,104,122.0
6241,G#2,375.0,101/200,102,122.0
6242,C#4,375.0,101/200,102,122.0
6243,G#3,375.0,0.312,96,122.0
6244,C#3,375.0,0.312,96,122.0
6245,E-2,375.0,0.031,111,122.0
6246,E2,375.0,0.031,111,122.0
6247,F#2,375.0,0.031,111,122.0
6248,C2,375.0,0.031,111,122.0
6249,F#3,375.0,0.031,111,122.0
6250,E-2,375.333,73/500,100,122.0
6251,E-2,375.333,17/250,65,122.0
6252,F#2,375.667,0.109,90,122.0
6253,E-2,375.667,0.109,90,122.0
6254,E-4,375.667,0.109,90,122.0
6255,B-3,375.667,0.109,90,122.0
6256,E-3,375.667,0.109,90,122.0
6257,C2,375.667,0.031,78,122.0
6258,F#2,375.667,0.031,78,122.0
6259,E-1,376.0,67/125,119,122.0
6260,E-1,376.0,341/500,110,122.0
6261,E-1,376.0,307/1000,88,122.0
6262,E-2,376.0,27/200,95,122.0
6263,C#3,376.0,0.031,108,122.0
6264,C2,376.0,0.031,108,122.0
6265,E-3,376.333,0.125,86,122.0
6266,F#2,376.667,0.031,64,122.0
6267,E-2,376.667,83/1000,98,122.0
6268,E-2,376.667,83/1000,98,122.0
6269,E-2,376.667,83/1000,98,122.0
6270,E-2,376.667,83/1000,98,122.0
6271,E-1,377.0,263/500,93,122.0
6272,E-1,377.0,23/200,98,122.0
6273,E-4,377.0,23/200,98,122.0
6274,G#3,377.0,23/200,98,122.0
6275,E-2,377.0,23/200,98,122.0
6276,B-3,377.0,0.031,105,122.0
6277,C#4,377.0,0.031,105,122.0
6278,E-2,377.0,0.031,105,122.0
6279,E-2,377.0,0.031,105,122.0
6280,E2,377.0,0.031,105,122.0
6281,F#2,377.0,0.031,105,122.0
6282,C2,377.0,0.031,105,122.0
6283,F#3,377.0,0.031,105,122.0
6284,C#2,377.333,0.125,85,122.0
6285,C#2,377.333,0.125,85,122.0
6286,C#3,377.333,0.125,85,122.0
6287,E-2,377.667,0.109,87,122.0
6288,E-2,377.667,0.109,87,122.0
6289,E-4,377.667,0.109,87,122.0
6290,G#3,377.667,0.109,87,122.0
6291,E-3,377.667,0.109,87,122.0
6292,C#4,377.667,0.031,81,122.0
6293,B-3,377.667,0.031,81,122.0
6294,E-4,377.667,0.031,81,122.0
6295,G#3,377.667,0.031,81,122.0
6296,E-3,377.667,0.031,81,122.0
6297,F#2,377.667,0.031,81,122.0
6298,F#2,378.0,23/200,96,122.0
6299,F#1,378.0,0.672,102,122.0
6300,F#1,378.0,0.672,102,122.0
6301,F#1,378.0,0.672,102,122.0
6302,F#2,378.0,0.672,102,122.0
6303,F#3,378.0,0.469,95,122.0
6304,B-3,378.0,0.469,95,122.0
6305,C#4,378.0,0.469,95,122.0
6306,F#2,378.0,0.031,98,122.0
6307,C2,378.0,0.031,98,122.0
6308,F#3,378.333,0.125,80,122.0
6309,F#2,378.667,0.031,62,122.0
6310,F#2,378.667,0.172,82,122.0
6311,F#2,378.667,0.172,82,122.0
6312,F#3,378.667,0.172,82,122.0
6313,B-3,378.667,0.172,82,122.0
6314,C#4,378.667,0.172,82,122.0
6315,F#2,378.667,0.172,82,122.0
6316,G#1,379.0,229/1000,101,122.0
6317,G#1,379.0,0.672,91,122.0
6318,G#2,379.0,13/100,76,122.0
6319,C4,379.0,521/1000,98,122.0
6320,G#2,379.0,521/1000,98,122.0
6321,G#1,379.0,521/1000,98,122.0
6322,G#3,379.0,521/1000,98,122.0
6323,E-4,379.0,521/1000,98,122.0
6324,E-2,379.0,0.031,110,122.0
6325,E2,379.0,0.031,110,122.0
6326,F#2,379.0,0.031,110,122.0
6327,C2,379.0,0.031,110,122.0
6328,F#3,379.0,0.031,110,122.0
6329,G#2,379.333,0.203,91,122.0
6330,G#3,379.333,23/200,80,122.0
6331,F#2,379.667,0.031,53,122.0
6332,F#2,379.667,73/500,98,122.0
6333,F#2,379.667,73/500,98,122.0
6334,G#3,379.667,73/500,98,122.0
6335,E-4,379.667,73/500,98,122.0
6336,C4,379.667,13/250,92,122.0
6337,G#3,379.667,13/250,92,122.0
6338,E-4,379.667,13/250,92,122.0
6339,F#3,379.667,13/250,92,122.0
6340,E-1,380.0,557/1000,114,122.0
6341,E-1,380.0,667/1000,103,122.0
6342,E-1,380.0,69/250,96,122.0
6343,E-2,380.0,151/1000,83,122.0
6344,C2,380.0,0.031,99,122.0
6345,F#2,380.0,0.031,99,122.0
6346,E-3,380.333,3/25,81,122.0
6347,E-2,380.667,0.188,105,122.0
6348,E-2,380.667,0.188,105,122.0
6349,E-2,380.667,0.188,105,122.0
6350,E-2,380.667,0.031,70,122.0
6351,F#2,380.667,0.031,70,122.0
6352,E-1,381.0,0.203,96,122.0
6353,E-1,381.0,67/125,99,122.0
6354,C#3,381.0,3/25,80,122.0
6355,C#4,381.0,0.031,102,122.0
6356,E-2,381.0,0.031,102,122.0
6357,E2,381.0,0.031,102,122.0
6358,F#2,381.0,0.031,102,122.0
6359,C2,381.0,0.031,102,122.0
6360,F#3,381.0,0.031,102,122.0
6361,C#2,381.333,0.062,93,122.0
6362,E-2,381.333,0.062,93,122.0
6363,E-2,381.333,0.062,93,122.0
6364,F#2,381.667,0.031,52,122.0
6365,E-2,381.667,27/200,91,122.0
6366,E-2,381.667,27/200,91,122.0
6367,C#4,381.667,27/200,91,122.0
6368,E-3,381.667,27/200,91,122.0
6369,E-1,382.0,167/1000,88,122.0
6370,E-2,382.0,0.031,93,122.0
6371,C2,382.0,0.031,93,122.0
6372,F#2,382.0,0.031,93,122.0
6373,C#2,382.333,23/200,94,122.0
6374,C#2,382.333,23/200,94,122.0
6375,C#4,382.333,23/200,94,122.0
6376,F#4,382.333,23/200,94,122.0
6377,C#3,382.333,23/200,94,122.0
6378,B-2,382.667,0.031,73,122.0
6379,B-1,382.667,99/1000,94,122.0
6380,C#1,382.667,99/1000,94,122.0
6381,E-2,382.667,99/1000,94,122.0
6382,E-2,382.667,99/1000,94,122.0
6383,C#2,383.0,0.641,110,122.0
6384,C#2,383.0,6/25,102,122.0
6385,C#3,383.0,6/25,102,122.0
6386,E-4,383.0,0.031,104,122.0
6387,B-3,383.0,0.031,104,122.0
6388,E-2,383.0,0.031,104,122.0
6389,E2,383.0,0.031,104,122.0
6390,C2,383.0,0.031,104,122.0
6391,F#2,383.0,0.031,104,122.0
6392,F#3,383.0,0.031,104,122.0
6393,B-1,383.333,0.391,101,122.0
6394,E-2,383.333,177/1000,97,122.0
6395,E-2,383.333,89/1000,86,122.0
6396,E-2,383.667,0.203,98,122.0
6397,E-2,383.667,0.203,98,122.0
6398,G#3,383.667,27/200,92,122.0
6399,C#4,383.667,27/200,92,122.0
6400,E-3,383.667,27/200,92,122.0
6401,C2,383.667,0.031,65,122.0
6402,F#2,383.667,0.031,65,122.0
6403,E-1,384.0,271/500,101,122.0
6404,E-2,384.0,3/25,94,122.0
6405,E-1,384.0,127/200,100,122.0
6406,E-1,384.0,127/200,100,122.0
6407,C2,384.0,0.031,113,122.0
6408,F#2,384.0,0.031,113,122.0
6409,C#3,384.333,99/1000,82,122.0
6410,E-2,384.667,0.219,99,122.0
6411,E-2,384.667,0.219,99,122.0
6412,E-2,384.667,0.219,99,122.0
6413,E-3,384.667,0.031,70,122.0
6414,F#2,384.667,0.031,70,122.0
6415,E-1,385.0,0.641,103,122.0
6416,E-1,385.0,107/500,98,122.0
6417,E-4,385.0,107/500,98,122.0
6418,C#4,385.0,0.031,100,122.0
6419,B-3,385.0,0.031,100,122.0
6420,E-2,385.0,0.031,100,122.0
6421,E-2,385.0,0.031,100,122.0
6422,E2,385.0,0.031,100,122.0
6423,F#2,385.0,0.031,100,122.0
6424,C2,385.0,0.031,100,122.0
6425,F#3,385.0,0.031,100,122.0
6426,C#2,385.333,23/200,92,122.0
6427,E-3,385.333,23/200,92,122.0
6428,E-2,385.667,0.109,93,122.0
6429,E-2,385.667,0.109,93,122.0
6430,C#3,385.667,0.109,93,122.0
6431,E-4,385.667,0.031,80,122.0
6432,B-3,385.667,0.031,80,122.0
6433,G#3,385.667,0.031,80,122.0
6434,C#3,385.667,0.031,80,122.0
6435,F#2,385.667,0.031,80,122.0
6436,F#1,386.0,151/250,97,122.0
6437,F#2,386.0,0.141,95,122.0
6438,F#1,386.0,0.703,100,122.0
6439,F#1,386.0,0.703,100,122.0
6440,F#2,386.0,0.031,102,122.0
6441,C2,386.0,0.031,102,122.0
6442,B-3,386.333,27/200,86,122.0
6443,C#4,386.333,27/200,86,122.0
6444,F#3,386.333,27/200,86,122.0
6445,F#3,386.333,27/200,86,122.0
6446,F#2,386.667,0.031,62,122.0
6447,F#2,386.667,27/200,96,122.0
6448,F#2,386.667,27/200,96,122.0
6449,F#2,386.667,27/200,96,122.0
6450,F#2,386.667,27/200,96,122.0
6451,G#1,387.0,0.688,92,122.0
6452,G#2,387.0,0.125,79,122.0
6453,G#1,387.0,0.469,99,122.0
6454,C4,387.0,0.469,99,122.0
6455,G#3,387.0,0.469,99,122.0
6456,G#1,387.0,521/1000,101,122.0
6457,E-4,387.0,521/1000,101,122.0
6458,E-2,387.0,0.031,112,122.0
6459,E2,387.0,0.031,112,122.0
6460,F#2,387.0,0.031,112,122.0
6461,C2,387.0,0.031,112,122.0
6462,F#3,387.0,0.031,112,122.0
6463,G#2,387.333,99/500,85,122.0
6464,G#3,387.333,13/100,86,122.0
6465,F#2,387.667,0.031,64,122.0
6466,F#2,387.667,27/200,87,122.0
6467,F#2,387.667,27/200,87,122.0
6468,C4,387.667,27/200,87,122.0
6469,E-4,387.667,27/200,87,122.0
6470,G#3,387.667,27/200,87,122.0
6471,G#2,387.667,27/200,87,122.0
6472,F#3,387.667,27/200,87,122.0
6473,E-1,388.0,521/1000,98,122.0
6474,E-2,388.0,0.125,87,122.0
6475,E-1,388.0,63/100,106,122.0
6476,E-1,388.0,63/100,106,122.0
6477,F#2,388.0,0.031,98,122.0
6478,C2,388.0,0.031,98,122.0
6479,F#3,388.333,0.141,84,122.0
6480,E-3,388.333,0.141,84,122.0
6481,F#2,388.667,0.031,52,122.0
6482,E-2,388.667,0.094,99,122.0
6483,E-2,388.667,0.094,99,122.0
6484,E-2,388.667,0.094,99,122.0
6485,E-2,388.667,0.094,99,122.0
6486,E-1,389.0,521/1000,88,122.0
6487,C#3,389.0,73/500,83,122.0
6488,E-1,389.0,0.031,109,122.0
6489,F#3,389.0,0.031,109,122.0
6490,E-2,389.0,0.031,109,122.0
6491,E2,389.0,0.031,109,122.0
6492,C2,389.0,0.031,109,122.0
6493,F#2,389.0,0.031,109,122.0
6494,F#3,389.0,0.031,109,122.0
6495,E-1,389.333,26/125,95,122.0
6496,E-1,389.333,23/200,98,122.0
6497,E-2,389.333,23/200,98,122.0
6498,B-2,389.667,0.703,104,122.0
6499,B-2,389.667,349/1000,97,122.0
6500,F#2,389.667,0.031,66,122.0
6501,E-2,389.667,0.109,97,122.0
6502,F#4,389.667,0.109,97,122.0
6503,C#4,389.667,0.109,97,122.0
6504,G#1,390.0,0.266,83,122.0
6505,E-2,390.0,73/500,95,122.0
6506,C2,390.0,0.031,111,122.0
6507,C#3,390.333,0.156,82,122.0
6508,B-1,390.333,0.156,82,122.0
6509,B-2,390.333,0.156,82,122.0
6510,B-3,390.333,0.031,93,122.0
6511,E-4,390.333,0.031,93,122.0
6512,F#2,390.333,0.031,93,122.0
6513,E-2,390.667,0.188,104,122.0
6514,B-2,390.667,0.031,93,122.0
6515,E-1,390.667,0.125,100,122.0
6516,C#2,390.667,0.125,100,122.0
6517,A2,391.0,151/1000,100,122.0
6518,C#2,391.0,651/1000,104,122.0
6519,G#2,391.0,101/200,102,122.0
6520,C#4,391.0,101/200,102,122.0
6521,G#3,391.0,0.344,96,122.0
6522,G#2,391.0,0.344,96,122.0
6523,E-2,391.0,0.031,111,122.0
6524,E2,391.0,0.031,111,122.0
6525,F#2,391.0,0.031,111,122.0
6526,C2,391.0,0.031,111,122.0
6527,F#3,391.0,0.031,111,122.0
6528,E-2,391.333,73/500,100,122.0
6529,F#2,391.667,73/500,94,122.0
6530,E-2,391.667,73/500,94,122.0
6531,E-4,391.667,73/500,94,122.0
6532,B-3,391.667,73/500,94,122.0
6533,F#2,391.667,73/500,94,122.0
6534,C2,391.667,0.031,78,122.0
6535,F#2,391.667,0.031,78,122.0
6536,E-2,392.0,411/1000,113,122.0
6537,E-1,392.0,411/1000,113,122.0
6538,E-4,392.0,411/1000,113,122.0
6539,E-3,392.0,411/1000,113,122.0
6540,E-3,392.0,411/1000,113,122.0
6541,E-4,392.0,411/1000,113,122.0
6542,C#4,392.0,411/1000,102,122.0
6543,B-3,392.0,411/1000,102,122.0
6544,G#3,392.0,411/1000,102,122.0
6545,E-4,392.0,411/1000,102,122.0
6546,E-4,392.0,411/1000,102,122.0
6547,B1,392.0,0.031,118,122.0
6548,E2,392.0,0.031,118,122.0
6549,F#3,392.0,0.031,118,122.0
