,note_name,start_time,duration,velocity,tempo
0,G3,0.0,0.25,95,160.0
1,F3,0.0,0.25,95,160.0
2,G3,0.0,0.25,95,160.0
3,F3,0.0,0.25,95,160.0
4,G3,0.25,0.25,95,160.0
5,G3,0.25,0.25,95,160.0
6,G3,0.25,0.25,95,160.0
7,G3,0.25,0.25,95,160.0
8,G3,0.5,0.25,95,160.0
9,G3,0.5,0.25,95,160.0
10,G3,0.75,0.25,95,160.0
11,G3,0.75,0.25,95,160.0
12,G3,1.0,0.5,95,160.0
13,G3,1.0,0.5,95,160.0
14,G3,1.5,0.25,95,160.0
15,G3,1.5,0.25,95,160.0
16,G3,1.75,0.25,95,160.0
17,G3,1.75,0.25,95,160.0
18,G3,2.0,0.5,95,160.0
19,G3,2.0,0.5,95,160.0
20,G3,2.5,0.25,95,160.0
21,G3,2.5,0.25,95,160.0
22,G3,2.75,0.25,95,160.0
23,G3,2.75,0.25,95,160.0
24,G3,3.0,0.5,95,160.0
25,G3,3.0,0.5,95,160.0
26,G3,3.5,0.25,95,160.0
27,G3,3.5,0.25,95,160.0
28,G3,3.75,0.25,95,160.0
29,G3,3.75,0.25,95,160.0
30,G3,4.0,0.25,95,160.0
31,F3,4.0,0.25,95,160.0
32,G3,4.0,0.25,95,160.0
33,F3,4.0,0.25,95,160.0
34,G3,4.25,0.25,95,160.0
35,G3,4.25,0.25,95,160.0
36,G3,4.25,0.25,95,160.0
37,G3,4.25,0.25,95,160.0
38,G3,4.5,0.25,95,160.0
39,G3,4.5,0.25,95,160.0
40,G3,4.75,0.25,95,160.0
41,G3,4.75,0.25,95,160.0
42,G3,5.0,0.5,95,160.0
43,G3,5.0,0.5,95,160.0
44,G3,5.5,0.25,95,160.0
45,G3,5.5,0.25,95,160.0
46,G3,5.75,0.25,95,160.0
47,G3,5.75,0.25,95,160.0
48,G3,6.0,0.5,95,160.0
49,G3,6.0,0.5,95,160.0
50,G3,6.5,0.25,95,160.0
51,G3,6.5,0.25,95,160.0
52,G3,6.75,0.25,95,160.0
53,G3,6.75,0.25,95,160.0
54,G3,7.0,0.5,95,160.0
55,G3,7.0,0.5,95,160.0
56,G3,7.5,0.25,95,160.0
57,G3,7.5,0.25,95,160.0
58,G3,7.75,0.25,95,160.0
59,G3,7.75,0.25,95,160.0
60,B-3,8.0,0.25,95,160.0
61,B-3,8.0,0.25,95,160.0
62,B3,8.25,0.25,95,160.0
63,B3,8.25,0.25,95,160.0
64,E4,8.5,0.25,95,160.0
65,E4,8.5,0.25,95,160.0
66,B3,8.75,0.25,95,160.0
67,B3,8.75,0.25,95,160.0
68,D4,9.0,0.25,95,160.0
69,D4,9.0,0.25,95,160.0
70,E4,9.25,0.25,95,160.0
71,E4,9.25,0.25,95,160.0
72,B3,9.5,0.25,95,160.0
73,B3,9.5,0.25,95,160.0
74,B3,9.75,0.25,95,160.0
75,B3,9.75,0.25,95,160.0
76,B-3,10.0,0.25,95,160.0
77,B-3,10.0,0.25,95,160.0
78,B3,10.25,0.25,95,160.0
79,B3,10.25,0.25,95,160.0
80,E4,10.5,0.25,95,160.0
81,E4,10.5,0.25,95,160.0
82,B3,10.75,0.25,95,160.0
83,B3,10.75,0.25,95,160.0
84,D4,11.0,0.25,95,160.0
85,D4,11.0,0.25,95,160.0
86,D4,11.25,0.25,95,160.0
87,D4,11.25,0.25,95,160.0
88,B3,11.5,0.25,95,160.0
89,B3,11.5,0.25,95,160.0
90,B3,11.75,0.25,95,160.0
91,B3,11.75,0.25,95,160.0
92,B-3,12.0,0.25,95,160.0
93,B-3,12.0,0.25,95,160.0
94,B3,12.25,0.25,95,160.0
95,B3,12.25,0.25,95,160.0
96,E4,12.5,0.25,95,160.0
97,E4,12.5,0.25,95,160.0
98,B3,12.75,0.25,95,160.0
99,B3,12.75,0.25,95,160.0
100,D4,13.0,0.25,95,160.0
101,D4,13.0,0.25,95,160.0
102,E4,13.25,0.25,95,160.0
103,E4,13.25,0.25,95,160.0
104,B3,13.5,0.25,95,160.0
105,B3,13.5,0.25,95,160.0
106,B3,13.75,0.25,95,160.0
107,B3,13.75,0.25,95,160.0
108,B-3,14.0,0.25,95,160.0
109,B-3,14.0,0.25,95,160.0
110,B3,14.25,0.25,95,160.0
111,B3,14.25,0.25,95,160.0
112,B-3,14.5,0.25,95,160.0
113,B-3,14.5,0.25,95,160.0
114,B3,14.75,0.25,95,160.0
115,B3,14.75,0.25,95,160.0
116,G3,15.0,1.0,95,160.0
117,G3,15.0,1.0,95,160.0
118,B-3,16.0,0.25,95,160.0
119,B-3,16.0,0.25,95,160.0
120,B3,16.25,0.25,95,160.0
121,B3,16.25,0.25,95,160.0
122,E4,16.5,0.25,95,160.0
123,E4,16.5,0.25,95,160.0
124,B3,16.75,0.25,95,160.0
125,B3,16.75,0.25,95,160.0
126,D4,17.0,0.25,95,160.0
127,D4,17.0,0.25,95,160.0
128,E4,17.25,0.25,95,160.0
129,E4,17.25,0.25,95,160.0
130,B3,17.5,0.25,95,160.0
131,B3,17.5,0.25,95,160.0
132,B3,17.75,0.25,95,160.0
133,B3,17.75,0.25,95,160.0
134,B-3,18.0,0.25,95,160.0
135,B-3,18.0,0.25,95,160.0
136,B3,18.25,0.25,95,160.0
137,B3,18.25,0.25,95,160.0
138,E4,18.5,0.25,95,160.0
139,E4,18.5,0.25,95,160.0
140,B3,18.75,0.25,95,160.0
141,B3,18.75,0.25,95,160.0
142,D4,19.0,0.25,95,160.0
143,D4,19.0,0.25,95,160.0
144,D4,19.25,0.25,95,160.0
145,D4,19.25,0.25,95,160.0
146,B3,19.5,0.25,95,160.0
147,B3,19.5,0.25,95,160.0
148,B3,19.75,0.25,95,160.0
149,B3,19.75,0.25,95,160.0
150,G4,20.0,0.25,95,160.0
151,G4,20.0,0.25,95,160.0
152,G4,20.25,0.25,95,160.0
153,G4,20.25,0.25,95,160.0
154,G4,20.5,0.25,95,160.0
155,G4,20.5,0.25,95,160.0
156,G4,20.75,0.25,95,160.0
157,G4,20.75,0.25,95,160.0
158,G4,21.0,0.25,95,160.0
159,G4,21.0,0.25,95,160.0
160,E4,21.25,0.25,95,160.0
161,E4,21.25,0.25,95,160.0
162,D4,21.5,0.25,95,160.0
163,D4,21.5,0.25,95,160.0
164,B3,21.75,0.25,95,160.0
165,B3,21.75,0.25,95,160.0
166,B-3,22.0,0.25,95,160.0
167,B-3,22.0,0.25,95,160.0
168,G3,22.25,0.25,95,160.0
169,G3,22.25,0.25,95,160.0
170,E3,22.5,0.25,95,160.0
171,E3,22.5,0.25,95,160.0
172,D3,22.75,0.25,95,160.0
173,D3,22.75,0.25,95,160.0
174,G3,23.0,0.5,95,160.0
175,G3,23.0,0.5,95,160.0
176,F#2,23.5,0.5,95,160.0
177,F#2,23.5,0.5,95,160.0
178,G2,24.0,0.5,95,160.0
179,G2,24.0,0.5,95,160.0
180,A2,24.5,0.25,95,160.0
181,A2,24.5,0.25,95,160.0
182,B-2,24.75,0.25,95,160.0
183,B-2,24.75,0.25,95,160.0
184,B2,25.0,0.25,95,160.0
185,B2,25.0,0.25,95,160.0
186,D3,25.25,0.25,95,160.0
187,D3,25.25,0.25,95,160.0
188,E3,25.5,0.25,95,160.0
189,E3,25.5,0.25,95,160.0
190,D3,25.75,0.25,95,160.0
191,D3,25.75,0.25,95,160.0
192,F3,26.0,0.25,95,160.0
193,F3,26.0,0.25,95,160.0
194,E3,26.25,0.25,95,160.0
195,E3,26.25,0.25,95,160.0
196,D3,26.5,0.25,95,160.0
197,D3,26.5,0.25,95,160.0
198,F3,26.75,0.25,95,160.0
199,F3,26.75,0.25,95,160.0
200,E3,27.0,0.25,95,160.0
201,E3,27.0,0.25,95,160.0
202,D3,27.25,0.25,95,160.0
203,D3,27.25,0.25,95,160.0
204,B2,27.5,0.5,95,160.0
205,B2,27.5,0.5,95,160.0
206,C3,28.0,0.5,95,160.0
207,C3,28.0,0.5,95,160.0
208,D3,28.5,0.25,95,160.0
209,D3,28.5,0.25,95,160.0
210,E-3,28.75,0.25,95,160.0
211,E-3,28.75,0.25,95,160.0
212,E3,29.0,0.25,95,160.0
213,E3,29.0,0.25,95,160.0
214,G3,29.25,0.25,95,160.0
215,G3,29.25,0.25,95,160.0
216,A3,29.5,0.25,95,160.0
217,A3,29.5,0.25,95,160.0
218,G3,29.75,0.25,95,160.0
219,G3,29.75,0.25,95,160.0
220,B-3,30.0,0.25,95,160.0
221,B-3,30.0,0.25,95,160.0
222,A3,30.25,0.25,95,160.0
223,A3,30.25,0.25,95,160.0
224,G3,30.5,0.25,95,160.0
225,G3,30.5,0.25,95,160.0
226,B-3,30.75,0.25,95,160.0
227,B-3,30.75,0.25,95,160.0
228,A3,31.0,0.25,95,160.0
229,A3,31.0,0.25,95,160.0
230,G3,31.25,0.25,95,160.0
231,G3,31.25,0.25,95,160.0
232,E3,31.5,0.5,95,160.0
233,E3,31.5,0.5,95,160.0
234,G2,32.0,0.5,95,160.0
235,G2,32.0,0.5,95,160.0
236,A2,32.5,0.25,95,160.0
237,A2,32.5,0.25,95,160.0
238,B-2,32.75,0.25,95,160.0
239,B-2,32.75,0.25,95,160.0
240,B2,33.0,0.25,95,160.0
241,B2,33.0,0.25,95,160.0
242,D3,33.25,0.25,95,160.0
243,D3,33.25,0.25,95,160.0
244,E3,33.5,0.25,95,160.0
245,E3,33.5,0.25,95,160.0
246,D3,33.75,0.25,95,160.0
247,D3,33.75,0.25,95,160.0
248,F3,34.0,0.25,95,160.0
249,F3,34.0,0.25,95,160.0
250,E3,34.25,0.25,95,160.0
251,E3,34.25,0.25,95,160.0
252,D3,34.5,0.25,95,160.0
253,D3,34.5,0.25,95,160.0
254,F3,34.75,0.25,95,160.0
255,F3,34.75,0.25,95,160.0
256,E3,35.0,0.25,95,160.0
257,E3,35.0,0.25,95,160.0
258,D3,35.25,0.25,95,160.0
259,D3,35.25,0.25,95,160.0
260,B2,35.5,0.5,95,160.0
261,B2,35.5,0.5,95,160.0
262,C3,36.0,0.25,95,160.0
263,C3,36.0,0.25,95,160.0
264,D3,36.25,0.25,95,160.0
265,D3,36.25,0.25,95,160.0
266,D3,36.5,0.25,95,160.0
267,D3,36.5,0.25,95,160.0
268,D3,36.75,0.25,95,160.0
269,D3,36.75,0.25,95,160.0
270,C3,37.0,0.25,95,160.0
271,C3,37.0,0.25,95,160.0
272,D3,37.25,0.25,95,160.0
273,D3,37.25,0.25,95,160.0
274,D3,37.5,0.25,95,160.0
275,D3,37.5,0.25,95,160.0
276,D3,37.75,0.25,95,160.0
277,D3,37.75,0.25,95,160.0
278,C3,38.0,0.25,95,160.0
279,C3,38.0,0.25,95,160.0
280,D3,38.25,0.25,95,160.0
281,D3,38.25,0.25,95,160.0
282,C#3,38.5,0.25,95,160.0
283,C#3,38.5,0.25,95,160.0
284,C#3,38.75,0.25,95,160.0
285,C#3,38.75,0.25,95,160.0
286,C3,39.0,0.25,95,160.0
287,C3,39.0,0.25,95,160.0
288,C3,39.25,0.25,95,160.0
289,C3,39.25,0.25,95,160.0
290,B-2,39.5,0.25,95,160.0
291,B-2,39.5,0.25,95,160.0
292,B-2,39.75,0.25,95,160.0
293,B-2,39.75,0.25,95,160.0
294,G2,40.0,0.5,95,160.0
295,G2,40.0,0.5,95,160.0
296,A2,40.5,0.25,95,160.0
297,A2,40.5,0.25,95,160.0
298,B-2,40.75,0.25,95,160.0
299,B-2,40.75,0.25,95,160.0
300,B2,41.0,0.25,95,160.0
301,B2,41.0,0.25,95,160.0
302,D3,41.25,0.25,95,160.0
303,D3,41.25,0.25,95,160.0
304,E3,41.5,0.25,95,160.0
305,E3,41.5,0.25,95,160.0
306,D3,41.75,0.25,95,160.0
307,D3,41.75,0.25,95,160.0
308,F3,42.0,0.25,95,160.0
309,F3,42.0,0.25,95,160.0
310,E3,42.25,0.25,95,160.0
311,E3,42.25,0.25,95,160.0
312,D3,42.5,0.25,95,160.0
313,D3,42.5,0.25,95,160.0
314,F3,42.75,0.25,95,160.0
315,F3,42.75,0.25,95,160.0
316,E3,43.0,0.25,95,160.0
317,E3,43.0,0.25,95,160.0
318,D3,43.25,0.25,95,160.0
319,D3,43.25,0.25,95,160.0
320,B2,43.5,0.5,95,160.0
321,B2,43.5,0.5,95,160.0
322,C3,44.0,0.5,95,160.0
323,C3,44.0,0.5,95,160.0
324,D3,44.5,0.25,95,160.0
325,D3,44.5,0.25,95,160.0
326,E-3,44.75,0.25,95,160.0
327,E-3,44.75,0.25,95,160.0
328,E3,45.0,0.25,95,160.0
329,E3,45.0,0.25,95,160.0
330,G3,45.25,0.25,95,160.0
331,G3,45.25,0.25,95,160.0
332,A3,45.5,0.25,95,160.0
333,A3,45.5,0.25,95,160.0
334,G3,45.75,0.25,95,160.0
335,G3,45.75,0.25,95,160.0
336,B-3,46.0,0.25,95,160.0
337,B-3,46.0,0.25,95,160.0
338,A3,46.25,0.25,95,160.0
339,A3,46.25,0.25,95,160.0
340,G3,46.5,0.25,95,160.0
341,G3,46.5,0.25,95,160.0
342,B-3,46.75,0.25,95,160.0
343,B-3,46.75,0.25,95,160.0
344,A3,47.0,0.25,95,160.0
345,A3,47.0,0.25,95,160.0
346,G3,47.25,0.25,95,160.0
347,G3,47.25,0.25,95,160.0
348,E3,47.5,0.5,95,160.0
349,E3,47.5,0.5,95,160.0
350,G2,48.0,0.5,95,160.0
351,G2,48.0,0.5,95,160.0
352,A2,48.5,0.25,95,160.0
353,A2,48.5,0.25,95,160.0
354,B-2,48.75,0.25,95,160.0
355,B-2,48.75,0.25,95,160.0
356,B2,49.0,0.25,95,160.0
357,B2,49.0,0.25,95,160.0
358,D3,49.25,0.25,95,160.0
359,D3,49.25,0.25,95,160.0
360,E3,49.5,0.25,95,160.0
361,E3,49.5,0.25,95,160.0
362,D3,49.75,0.25,95,160.0
363,D3,49.75,0.25,95,160.0
364,F3,50.0,0.25,95,160.0
365,F3,50.0,0.25,95,160.0
366,E3,50.25,0.25,95,160.0
367,E3,50.25,0.25,95,160.0
368,D3,50.5,0.25,95,160.0
369,D3,50.5,0.25,95,160.0
370,F3,50.75,0.25,95,160.0
371,F3,50.75,0.25,95,160.0
372,E3,51.0,0.25,95,160.0
373,E3,51.0,0.25,95,160.0
374,D3,51.25,0.25,95,160.0
375,D3,51.25,0.25,95,160.0
376,B2,51.5,0.5,95,160.0
377,B2,51.5,0.5,95,160.0
378,C3,52.0,0.25,95,160.0
379,C3,52.0,0.25,95,160.0
380,D3,52.25,0.25,95,160.0
381,D3,52.25,0.25,95,160.0
382,D3,52.5,0.25,95,160.0
383,D3,52.5,0.25,95,160.0
384,D3,52.75,0.25,95,160.0
385,D3,52.75,0.25,95,160.0
386,C3,53.0,0.25,95,160.0
387,C3,53.0,0.25,95,160.0
388,D3,53.25,0.25,95,160.0
389,D3,53.25,0.25,95,160.0
390,D3,53.5,0.25,95,160.0
391,D3,53.5,0.25,95,160.0
392,D3,53.75,0.25,95,160.0
393,D3,53.75,0.25,95,160.0
394,C3,54.0,0.25,95,160.0
395,C3,54.0,0.25,95,160.0
396,D3,54.25,0.25,95,160.0
397,D3,54.25,0.25,95,160.0
398,C#3,54.5,0.25,95,160.0
399,C#3,54.5,0.25,95,160.0
400,C#3,54.75,0.25,95,160.0
401,C#3,54.75,0.25,95,160.0
402,C3,55.0,0.25,95,160.0
403,C3,55.0,0.25,95,160.0
404,C3,55.25,0.25,95,160.0
405,C3,55.25,0.25,95,160.0
406,B-2,55.5,0.25,95,160.0
407,B-2,55.5,0.25,95,160.0
408,B-2,55.75,0.25,95,160.0
409,B-2,55.75,0.25,95,160.0
410,G2,56.0,61/250,95,160.0
411,B2,56.0,61/250,95,160.0
412,D4,56.0,61/250,95,160.0
413,G4,56.0,61/250,95,160.0
414,G2,56.0,61/250,95,160.0
415,B2,56.0,61/250,95,160.0
416,D4,56.0,61/250,95,160.0
417,G4,56.0,61/250,95,160.0
418,G4,56.25,61/250,95,160.0
419,D4,56.25,61/250,95,160.0
420,B2,56.25,61/250,95,160.0
421,G2,56.25,61/250,95,160.0
422,G4,56.25,61/250,95,160.0
423,D4,56.25,61/250,95,160.0
424,B2,56.25,61/250,95,160.0
425,G2,56.25,61/250,95,160.0
426,G2,56.5,61/250,95,160.0
427,B2,56.5,61/250,95,160.0
428,D4,56.5,61/250,95,160.0
429,G4,56.5,61/250,95,160.0
430,G2,56.5,61/250,95,160.0
431,B2,56.5,61/250,95,160.0
432,D4,56.5,61/250,95,160.0
433,G4,56.5,61/250,95,160.0
434,G4,56.75,61/250,95,160.0
435,D4,56.75,61/250,95,160.0
436,B2,56.75,61/250,95,160.0
437,G2,56.75,61/250,95,160.0
438,G4,56.75,61/250,95,160.0
439,D4,56.75,61/250,95,160.0
440,B2,56.75,61/250,95,160.0
441,G2,56.75,61/250,95,160.0
442,G2,57.0,61/250,95,160.0
443,B2,57.0,61/250,95,160.0
444,D4,57.0,61/250,95,160.0
445,G4,57.0,61/250,95,160.0
446,G2,57.0,61/250,95,160.0
447,B2,57.0,61/250,95,160.0
448,D4,57.0,61/250,95,160.0
449,G4,57.0,61/250,95,160.0
450,G4,57.25,61/250,95,160.0
451,D4,57.25,61/250,95,160.0
452,B2,57.25,61/250,95,160.0
453,G2,57.25,61/250,95,160.0
454,G4,57.25,61/250,95,160.0
455,D4,57.25,61/250,95,160.0
456,B2,57.25,61/250,95,160.0
457,G2,57.25,61/250,95,160.0
458,G2,57.5,61/250,95,160.0
459,B2,57.5,61/250,95,160.0
460,D4,57.5,61/250,95,160.0
461,G4,57.5,61/250,95,160.0
462,G2,57.5,61/250,95,160.0
463,B2,57.5,61/250,95,160.0
464,D4,57.5,61/250,95,160.0
465,G4,57.5,61/250,95,160.0
466,G4,57.75,61/250,95,160.0
467,D4,57.75,61/250,95,160.0
468,B2,57.75,61/250,95,160.0
469,G2,57.75,61/250,95,160.0
470,G4,57.75,61/250,95,160.0
471,D4,57.75,61/250,95,160.0
472,B2,57.75,61/250,95,160.0
473,G2,57.75,61/250,95,160.0
474,G4,58.0,0.5,127,160.0
475,D4,58.0,0.5,127,160.0
476,B2,58.0,0.5,127,160.0
477,G2,58.0,0.5,127,160.0
478,B2,58.0,0.5,95,160.0
479,G2,58.0,0.5,95,160.0
480,D3,58.5,0.5,95,160.0
481,D3,58.5,0.5,95,160.0
482,E3,59.0,0.5,95,160.0
483,E3,59.0,0.5,95,160.0
484,F#3,59.5,0.5,95,160.0
485,F#3,59.5,0.5,95,160.0
486,G3,60.0,0.5,95,160.0
487,G3,60.0,0.5,95,160.0
488,A3,60.5,0.25,95,160.0
489,A3,60.5,0.25,95,160.0
490,B-3,60.75,0.25,95,160.0
491,B-3,60.75,0.25,95,160.0
492,B3,61.0,0.25,95,160.0
493,B3,61.0,0.25,95,160.0
494,D4,61.25,0.25,95,160.0
495,D4,61.25,0.25,95,160.0
496,E4,61.5,0.25,95,160.0
497,E4,61.5,0.25,95,160.0
498,D4,61.75,0.25,95,160.0
499,D4,61.75,0.25,95,160.0
500,F4,62.0,0.25,95,160.0
501,F4,62.0,0.25,95,160.0
502,D4,62.25,0.25,95,160.0
503,D4,62.25,0.25,95,160.0
504,E4,62.5,0.25,95,160.0
505,E4,62.5,0.25,95,160.0
506,F4,62.75,0.25,95,160.0
507,F4,62.75,0.25,95,160.0
508,E4,63.0,0.25,95,160.0
509,E4,63.0,0.25,95,160.0
510,D4,63.25,0.25,95,160.0
511,D4,63.25,0.25,95,160.0
512,B3,63.5,0.25,95,160.0
513,B3,63.5,0.25,95,160.0
514,G3,63.75,0.25,70,160.0
515,G3,63.75,0.25,70,160.0
516,B-3,64.0,0.25,95,160.0
517,B-3,64.0,0.25,95,160.0
518,G3,64.25,0.25,95,160.0
519,G3,64.25,0.25,95,160.0
520,A3,64.5,0.25,95,160.0
521,A3,64.5,0.25,95,160.0
522,B-3,64.75,0.25,95,160.0
523,B-3,64.75,0.25,95,160.0
524,A3,65.0,0.25,95,160.0
525,A3,65.0,0.25,95,160.0
526,G3,65.25,0.25,95,160.0
527,G3,65.25,0.25,95,160.0
528,E-3,65.5,0.25,95,160.0
529,E-3,65.5,0.25,95,160.0
530,E3,65.75,0.25,95,160.0
531,E3,65.75,0.25,95,160.0
532,C3,66.0,1.5,95,160.0
533,C3,66.0,1.5,95,160.0
534,G3,67.5,0.5,95,160.0
535,G3,67.5,0.5,95,160.0
536,D3,68.0,0.5,95,160.0
537,D3,68.0,0.5,95,160.0
538,D3,68.5,0.25,95,160.0
539,D3,68.5,0.25,95,160.0
540,F3,68.75,0.25,95,160.0
541,F3,68.75,0.25,95,160.0
542,F#3,69.0,0.25,95,160.0
543,F#3,69.0,0.25,95,160.0
544,A3,69.25,0.25,95,160.0
545,A3,69.25,0.25,95,160.0
546,B3,69.5,0.25,95,160.0
547,B3,69.5,0.25,95,160.0
548,A3,69.75,0.25,95,160.0
549,A3,69.75,0.25,95,160.0
550,C4,70.0,0.25,95,160.0
551,C4,70.0,0.25,95,160.0
552,A3,70.25,0.25,95,160.0
553,A3,70.25,0.25,95,160.0
554,B3,70.5,0.25,95,160.0
555,B3,70.5,0.25,95,160.0
556,C4,70.75,0.25,95,160.0
557,C4,70.75,0.25,95,160.0
558,B3,71.0,0.25,95,160.0
559,B3,71.0,0.25,95,160.0
560,A3,71.25,0.25,95,160.0
561,A3,71.25,0.25,95,160.0
562,F3,71.5,0.25,95,160.0
563,F3,71.5,0.25,95,160.0
564,F#3,71.75,0.25,70,160.0
565,F#3,71.75,0.25,70,160.0
566,G3,72.0,0.5,95,160.0
567,G3,72.0,0.5,95,160.0
568,G3,72.5,0.25,95,160.0
569,G3,72.5,0.25,95,160.0
570,B-3,72.75,0.25,95,160.0
571,B-3,72.75,0.25,95,160.0
572,B3,73.0,0.25,95,160.0
573,B3,73.0,0.25,95,160.0
574,D4,73.25,0.25,95,160.0
575,D4,73.25,0.25,95,160.0
576,E4,73.5,0.25,95,160.0
577,E4,73.5,0.25,95,160.0
578,D4,73.75,0.25,95,160.0
579,D4,73.75,0.25,95,160.0
580,G4,74.0,1.25,95,160.0
581,G4,74.0,1.25,95,160.0
582,D4,75.25,0.25,95,160.0
583,D4,75.25,0.25,95,160.0
584,E4,75.5,0.25,95,160.0
585,E4,75.5,0.25,95,160.0
586,D4,75.75,0.25,95,160.0
587,D4,75.75,0.25,95,160.0
588,B-4,76.0,0.25,95,160.0
589,B-4,76.0,0.25,95,160.0
590,G4,76.25,0.25,95,160.0
591,G4,76.25,0.25,95,160.0
592,A4,76.5,0.25,95,160.0
593,A4,76.5,0.25,95,160.0
594,B-4,76.75,0.25,95,160.0
595,B-4,76.75,0.25,95,160.0
596,A4,77.0,0.25,95,160.0
597,A4,77.0,0.25,95,160.0
598,G4,77.25,0.25,95,160.0
599,G4,77.25,0.25,95,160.0
600,E4,77.5,0.25,95,160.0
601,E4,77.5,0.25,95,160.0
602,D4,77.75,0.25,95,160.0
603,D4,77.75,0.25,95,160.0
604,F4,78.0,0.25,95,160.0
605,F4,78.0,0.25,95,160.0
606,D4,78.25,0.25,95,160.0
607,D4,78.25,0.25,95,160.0
608,E4,78.5,0.25,95,160.0
609,E4,78.5,0.25,95,160.0
610,F4,78.75,0.25,95,160.0
611,F4,78.75,0.25,95,160.0
612,D4,79.0,0.25,95,160.0
613,D4,79.0,0.25,95,160.0
614,E4,79.25,0.25,95,160.0
615,E4,79.25,0.25,95,160.0
616,B3,79.5,0.25,95,160.0
617,B3,79.5,0.25,95,160.0
618,G3,79.75,0.25,70,160.0
619,G3,79.75,0.25,70,160.0
620,B-3,80.0,0.25,95,160.0
621,B-3,80.0,0.25,95,160.0
622,G3,80.25,0.25,95,160.0
623,G3,80.25,0.25,95,160.0
624,A3,80.5,0.25,95,160.0
625,A3,80.5,0.25,95,160.0
626,B-3,80.75,0.25,95,160.0
627,B-3,80.75,0.25,95,160.0
628,A3,81.0,0.25,95,160.0
629,A3,81.0,0.25,95,160.0
630,G3,81.25,0.25,95,160.0
631,G3,81.25,0.25,95,160.0
632,E-3,81.5,0.25,95,160.0
633,E-3,81.5,0.25,95,160.0
634,E3,81.75,0.25,95,160.0
635,E3,81.75,0.25,95,160.0
636,C3,82.0,1.5,95,160.0
637,C3,82.0,1.5,95,160.0
638,G3,83.5,0.5,95,160.0
639,G3,83.5,0.5,95,160.0
640,D3,84.0,0.5,95,160.0
641,D3,84.0,0.5,95,160.0
642,D3,84.5,0.25,95,160.0
643,D3,84.5,0.25,95,160.0
644,F3,84.75,0.25,95,160.0
645,F3,84.75,0.25,95,160.0
646,F#3,85.0,0.25,95,160.0
647,F#3,85.0,0.25,95,160.0
648,A3,85.25,0.25,95,160.0
649,A3,85.25,0.25,95,160.0
650,B3,85.5,0.25,95,160.0
651,B3,85.5,0.25,95,160.0
652,A3,85.75,0.25,95,160.0
653,A3,85.75,0.25,95,160.0
654,C4,86.0,0.25,95,160.0
655,C4,86.0,0.25,95,160.0
656,A3,86.25,0.25,95,160.0
657,A3,86.25,0.25,95,160.0
658,B3,86.5,0.25,95,160.0
659,B3,86.5,0.25,95,160.0
660,C4,86.75,0.25,95,160.0
661,C4,86.75,0.25,95,160.0
662,B3,87.0,0.25,95,160.0
663,B3,87.0,0.25,95,160.0
664,A3,87.25,0.25,95,160.0
665,A3,87.25,0.25,95,160.0
666,F3,87.5,0.25,95,160.0
667,F3,87.5,0.25,95,160.0
668,F#3,87.75,0.25,95,160.0
669,F#3,87.75,0.25,95,160.0
670,G3,88.0,0.5,95,160.0
671,G3,88.0,0.5,95,160.0
672,G3,88.5,0.25,95,160.0
673,G3,88.5,0.25,95,160.0
674,B-3,88.75,0.25,95,160.0
675,B-3,88.75,0.25,95,160.0
676,B3,89.0,0.25,95,160.0
677,B3,89.0,0.25,95,160.0
678,D4,89.25,0.25,95,160.0
679,D4,89.25,0.25,95,160.0
680,E4,89.5,0.25,95,160.0
681,E4,89.5,0.25,95,160.0
682,D4,89.75,0.25,95,160.0
683,D4,89.75,0.25,95,160.0
684,G4,90.0,0.5,95,160.0
685,G4,90.0,0.5,95,160.0
686,G4,90.5,0.5,95,160.0
687,B3,90.5,0.5,95,160.0
688,G4,90.5,0.5,95,160.0
689,B3,90.5,0.5,95,160.0
690,G4,91.0,0.5,95,160.0
691,C4,91.0,0.5,95,160.0
692,G4,91.0,0.5,95,160.0
693,C4,91.0,0.5,95,160.0
694,G4,91.5,0.5,95,160.0
695,C#4,91.5,0.5,95,160.0
696,G4,91.5,0.5,95,160.0
697,C#4,91.5,0.5,95,160.0
698,G4,92.0,0.25,95,160.0
699,D4,92.0,0.25,95,160.0
700,C#4,92.0,0.25,95,160.0
701,G4,92.0,0.25,95,160.0
702,D4,92.0,0.25,95,160.0
703,C#4,92.0,0.25,95,160.0
704,D4,92.25,0.25,70,160.0
705,D4,92.25,0.25,70,160.0
706,G4,92.5,0.25,95,160.0
707,D4,92.5,0.25,95,160.0
708,C#4,92.5,0.25,95,160.0
709,G4,92.5,0.25,95,160.0
710,D4,92.5,0.25,95,160.0
711,C#4,92.5,0.25,95,160.0
712,D4,92.75,0.25,70,160.0
713,D4,92.75,0.25,70,160.0
714,D4,93.0,0.25,95,160.0
715,D4,93.0,0.25,95,160.0
716,D4,93.25,0.25,95,160.0
717,D4,93.25,0.25,95,160.0
718,D4,93.5,0.25,95,160.0
719,D4,93.5,0.25,95,160.0
720,D4,93.75,0.25,95,160.0
721,D4,93.75,0.25,95,160.0
722,G4,94.0,0.25,95,160.0
723,D4,94.0,0.25,95,160.0
724,C#4,94.0,0.25,95,160.0
725,G4,94.0,0.25,95,160.0
726,D4,94.0,0.25,95,160.0
727,C#4,94.0,0.25,95,160.0
728,D4,94.25,0.25,70,160.0
729,D4,94.25,0.25,70,160.0
730,G4,94.5,0.25,95,160.0
731,D4,94.5,0.25,95,160.0
732,C#4,94.5,0.25,95,160.0
733,G4,94.5,0.25,95,160.0
734,D4,94.5,0.25,95,160.0
735,C#4,94.5,0.25,95,160.0
736,D4,94.75,0.25,70,160.0
737,D4,94.75,0.25,70,160.0
738,D4,95.0,0.25,95,160.0
739,D4,95.0,0.25,95,160.0
740,D4,95.25,0.25,95,160.0
741,D4,95.25,0.25,95,160.0
742,D4,95.5,0.25,95,160.0
743,D4,95.5,0.25,95,160.0
744,D4,95.75,0.25,95,160.0
745,D4,95.75,0.25,95,160.0
746,G4,96.0,0.25,95,160.0
747,D4,96.0,0.25,95,160.0
748,C#4,96.0,0.25,95,160.0
749,G4,96.0,0.25,95,160.0
750,D4,96.0,0.25,95,160.0
751,C#4,96.0,0.25,95,160.0
752,D4,96.25,0.25,70,160.0
753,D4,96.25,0.25,70,160.0
754,G4,96.5,0.25,95,160.0
755,D4,96.5,0.25,95,160.0
756,C#4,96.5,0.25,95,160.0
757,G4,96.5,0.25,95,160.0
758,D4,96.5,0.25,95,160.0
759,C#4,96.5,0.25,95,160.0
760,D4,96.75,0.25,70,160.0
761,D4,96.75,0.25,70,160.0
762,G3,97.0,0.25,95,160.0
763,G3,97.0,0.25,95,160.0
764,B3,97.25,0.25,95,160.0
765,B3,97.25,0.25,95,160.0
766,D4,97.5,0.5,95,160.0
767,D4,97.5,0.5,95,160.0
768,B3,98.0,1.0,95,160.0
769,G3,98.0,1.0,95,160.0
770,B3,98.0,1.0,95,160.0
771,G3,98.0,1.0,95,160.0
772,E2,99.0,0.5,95,160.0
773,E2,99.0,0.5,95,160.0
774,E-3,99.5,0.5,95,160.0
775,E-3,99.5,0.5,95,160.0
776,E3,100.0,0.5,95,160.0
777,E2,100.0,0.5,95,160.0
778,E3,100.0,0.5,95,160.0
779,E2,100.0,0.5,95,160.0
780,G4,100.5,0.5,95,160.0
781,G4,100.5,0.5,95,160.0
782,D4,101.0,0.5,95,160.0
783,D4,101.0,0.5,95,160.0
784,G3,101.5,0.5,95,160.0
785,G3,101.5,0.5,95,160.0
786,E3,102.0,0.25,95,160.0
787,E3,102.0,0.25,95,160.0
788,G3,102.25,0.25,95,160.0
789,G3,102.25,0.25,95,160.0
790,D4,102.5,0.25,95,160.0
791,D4,102.5,0.25,95,160.0
792,G4,102.75,0.5,95,160.0
793,G4,102.75,0.5,95,160.0
794,D4,103.25,0.25,95,160.0
795,D4,103.25,0.25,95,160.0
796,G3,103.5,0.5,95,160.0
797,G3,103.5,0.5,95,160.0
798,B-3,104.0,0.25,95,160.0
799,B-3,104.0,0.25,95,160.0
800,G3,104.25,0.25,95,160.0
801,G3,104.25,0.25,95,160.0
802,B3,104.5,0.25,95,160.0
803,B3,104.5,0.25,95,160.0
804,A3,104.75,0.25,95,160.0
805,A3,104.75,0.25,95,160.0
806,G3,105.0,0.25,95,160.0
807,G3,105.0,0.25,95,160.0
808,B3,105.25,0.25,95,160.0
809,B3,105.25,0.25,95,160.0
810,E3,105.5,0.25,95,160.0
811,E3,105.5,0.25,95,160.0
812,D3,105.75,0.25,70,160.0
813,D3,105.75,0.25,70,160.0
814,G3,106.0,1.0,95,160.0
815,G3,106.0,1.0,95,160.0
816,E2,107.0,0.5,95,160.0
817,E2,107.0,0.5,95,160.0
818,E-3,107.5,0.5,95,160.0
819,E-3,107.5,0.5,95,160.0
820,E3,108.0,0.5,95,160.0
821,E2,108.0,0.5,95,160.0
822,E3,108.0,0.5,95,160.0
823,E2,108.0,0.5,95,160.0
824,G4,108.5,0.5,95,160.0
825,G4,108.5,0.5,95,160.0
826,D4,109.0,0.5,95,160.0
827,D4,109.0,0.5,95,160.0
828,G3,109.5,0.5,95,160.0
829,G3,109.5,0.5,95,160.0
830,E3,110.0,0.25,95,160.0
831,E3,110.0,0.25,95,160.0
832,G3,110.25,0.25,95,160.0
833,G3,110.25,0.25,95,160.0
834,D4,110.5,0.25,95,160.0
835,D4,110.5,0.25,95,160.0
836,G4,110.75,0.5,95,160.0
837,G4,110.75,0.5,95,160.0
838,D4,111.25,0.25,95,160.0
839,D4,111.25,0.25,95,160.0
840,G3,111.5,0.5,95,160.0
841,G3,111.5,0.5,95,160.0
842,B-3,112.0,0.25,95,160.0
843,B-3,112.0,0.25,95,160.0
844,G3,112.25,0.25,95,160.0
845,G3,112.25,0.25,95,160.0
846,B3,112.5,0.25,95,160.0
847,B3,112.5,0.25,95,160.0
848,A3,112.75,0.25,95,160.0
849,A3,112.75,0.25,95,160.0
850,G3,113.0,0.25,95,160.0
851,G3,113.0,0.25,95,160.0
852,B3,113.25,0.25,95,160.0
853,B3,113.25,0.25,95,160.0
854,E3,113.5,0.25,95,160.0
855,E3,113.5,0.25,95,160.0
856,D3,113.75,0.25,70,160.0
857,D3,113.75,0.25,70,160.0
858,G3,114.0,1.25,95,160.0
859,G3,114.0,1.25,95,160.0
860,G3,115.25,0.25,95,160.0
861,G3,115.25,0.25,95,160.0
862,F3,115.5,0.25,95,160.0
863,F3,115.5,0.25,95,160.0
864,E3,115.75,0.25,70,160.0
865,E3,115.75,0.25,70,160.0
866,D3,116.0,0.5,95,160.0
867,D3,116.0,0.5,95,160.0
868,C#4,116.5,0.25,95,160.0
869,C#4,116.5,0.25,95,160.0
870,D4,116.75,0.25,70,160.0
871,D4,116.75,0.25,70,160.0
872,D3,117.0,0.25,95,160.0
873,D3,117.0,0.25,95,160.0
874,F#4,117.25,0.25,95,160.0
875,F#4,117.25,0.25,95,160.0
876,D3,117.5,0.25,95,160.0
877,D3,117.5,0.25,95,160.0
878,F#4,117.75,0.25,95,160.0
879,F#4,117.75,0.25,95,160.0
880,C#4,118.0,0.25,95,160.0
881,D3,118.0,0.25,95,160.0
882,C#4,118.0,0.25,95,160.0
883,D3,118.0,0.25,95,160.0
884,D4,118.25,0.25,70,160.0
885,D4,118.25,0.25,70,160.0
886,C#4,118.5,0.25,95,160.0
887,D3,118.5,0.25,95,160.0
888,C#4,118.5,0.25,95,160.0
889,D3,118.5,0.25,95,160.0
890,D4,118.75,0.25,70,160.0
891,D4,118.75,0.25,70,160.0
892,D3,119.0,0.25,95,160.0
893,D3,119.0,0.25,95,160.0
894,F#4,119.25,0.25,95,160.0
895,F#4,119.25,0.25,95,160.0
896,D3,119.5,0.25,95,160.0
897,D3,119.5,0.25,95,160.0
898,F#4,119.75,0.25,95,160.0
899,F#4,119.75,0.25,95,160.0
900,C#4,120.0,0.25,95,160.0
901,D3,120.0,0.25,95,160.0
902,C#4,120.0,0.25,95,160.0
903,D3,120.0,0.25,95,160.0
904,D4,120.25,0.25,70,160.0
905,D4,120.25,0.25,70,160.0
906,C#4,120.5,0.25,95,160.0
907,D3,120.5,0.25,95,160.0
908,C#4,120.5,0.25,95,160.0
909,D3,120.5,0.25,95,160.0
910,D4,120.75,0.25,70,160.0
911,D4,120.75,0.25,70,160.0
912,D3,121.0,0.25,95,160.0
913,D3,121.0,0.25,95,160.0
914,F#4,121.25,0.25,95,160.0
915,F#4,121.25,0.25,95,160.0
916,E3,121.5,0.5,95,160.0
917,E3,121.5,0.5,95,160.0
918,G3,122.0,2.0,95,160.0
919,G3,122.0,2.0,95,160.0
920,C#5,124.0,0.25,95,160.0
921,E3,124.0,0.25,95,160.0
922,E2,124.0,0.25,95,160.0
923,C#5,124.0,0.25,95,160.0
924,E3,124.0,0.25,95,160.0
925,E2,124.0,0.25,95,160.0
926,D4,124.25,0.25,95,160.0
927,D4,124.25,0.25,95,160.0
928,G#3,124.5,0.25,95,160.0
929,G#3,124.5,0.25,95,160.0
930,G4,124.75,0.25,95,160.0
931,G4,124.75,0.25,95,160.0
932,G#3,125.0,0.25,95,160.0
933,G#3,125.0,0.25,95,160.0
934,E4,125.25,0.25,95,160.0
935,E4,125.25,0.25,95,160.0
936,D4,125.5,0.25,95,160.0
937,D4,125.5,0.25,95,160.0
938,E4,125.75,0.25,95,160.0
939,E4,125.75,0.25,95,160.0
940,C#5,126.0,0.25,95,160.0
941,E3,126.0,0.25,95,160.0
942,E2,126.0,0.25,95,160.0
943,C#5,126.0,0.25,95,160.0
944,E3,126.0,0.25,95,160.0
945,E2,126.0,0.25,95,160.0
946,D4,126.25,0.25,95,160.0
947,D4,126.25,0.25,95,160.0
948,G#3,126.5,0.25,95,160.0
949,G#3,126.5,0.25,95,160.0
950,G4,126.75,0.25,95,160.0
951,G4,126.75,0.25,95,160.0
952,G#3,127.0,0.25,95,160.0
953,G#3,127.0,0.25,95,160.0
954,E4,127.25,0.25,95,160.0
955,E4,127.25,0.25,95,160.0
956,D4,127.5,0.25,95,160.0
957,D4,127.5,0.25,95,160.0
958,E4,127.75,0.25,95,160.0
959,E4,127.75,0.25,95,160.0
960,C#5,128.0,0.25,95,160.0
961,E3,128.0,0.25,95,160.0
962,E2,128.0,0.25,95,160.0
963,C#5,128.0,0.25,95,160.0
964,E3,128.0,0.25,95,160.0
965,E2,128.0,0.25,95,160.0
966,D4,128.25,0.25,95,160.0
967,D4,128.25,0.25,95,160.0
968,G#3,128.5,0.25,95,160.0
969,G#3,128.5,0.25,95,160.0
970,G4,128.75,0.25,95,160.0
971,G4,128.75,0.25,95,160.0
972,G#3,129.0,0.25,95,160.0
973,G#3,129.0,0.25,95,160.0
974,E4,129.25,0.25,95,160.0
975,E4,129.25,0.25,95,160.0
976,D4,129.5,0.25,95,160.0
977,D4,129.5,0.25,95,160.0
978,E4,129.75,0.25,95,160.0
979,E4,129.75,0.25,95,160.0
980,C#5,130.0,0.25,95,160.0
981,E3,130.0,0.25,95,160.0
982,E2,130.0,0.25,95,160.0
983,C#5,130.0,0.25,95,160.0
984,E3,130.0,0.25,95,160.0
985,E2,130.0,0.25,95,160.0
986,D4,130.25,0.25,95,160.0
987,D4,130.25,0.25,95,160.0
988,G#3,130.5,0.25,95,160.0
989,G#3,130.5,0.25,95,160.0
990,G4,130.75,0.25,95,160.0
991,G4,130.75,0.25,95,160.0
992,G#3,131.0,0.25,95,160.0
993,G#3,131.0,0.25,95,160.0
994,E4,131.25,0.25,95,160.0
995,E4,131.25,0.25,95,160.0
996,D4,131.5,0.25,95,160.0
997,D4,131.5,0.25,95,160.0
998,E4,131.75,0.25,95,160.0
999,E4,131.75,0.25,95,160.0
1000,A2,132.0,0.5,95,160.0
1001,A2,132.0,0.5,95,160.0
1002,C#4,132.5,0.25,95,160.0
1003,A3,132.5,0.25,95,160.0
1004,C#4,132.5,0.25,95,160.0
1005,A3,132.5,0.25,95,160.0
1006,C4,132.75,0.25,95,160.0
1007,G#3,132.75,0.25,95,160.0
1008,C4,132.75,0.25,95,160.0
1009,G#3,132.75,0.25,95,160.0
1010,A3,133.0,0.25,95,160.0
1011,A3,133.0,0.25,95,160.0
1012,E4,133.25,0.25,95,160.0
1013,E4,133.25,0.25,95,160.0
1014,A3,133.5,0.5,95,160.0
1015,A3,133.5,0.5,95,160.0
1016,G4,134.0,0.5,95,160.0
1017,A3,134.0,0.5,95,160.0
1018,G4,134.0,0.5,95,160.0
1019,A3,134.0,0.5,95,160.0
1020,F#4,134.5,0.5,95,160.0
1021,A3,134.5,0.5,95,160.0
1022,F#4,134.5,0.5,95,160.0
1023,A3,134.5,0.5,95,160.0
1024,E4,135.0,0.5,95,160.0
1025,A3,135.0,0.5,95,160.0
1026,E4,135.0,0.5,95,160.0
1027,A3,135.0,0.5,95,160.0
1028,C#4,135.5,0.5,95,160.0
1029,A3,135.5,0.5,95,160.0
1030,C#4,135.5,0.5,95,160.0
1031,A3,135.5,0.5,95,160.0
1032,A2,136.0,0.5,95,160.0
1033,A2,136.0,0.5,95,160.0
1034,C#4,136.5,0.25,95,160.0
1035,A3,136.5,0.25,95,160.0
1036,C#4,136.5,0.25,95,160.0
1037,A3,136.5,0.25,95,160.0
1038,C4,136.75,0.25,95,160.0
1039,G#3,136.75,0.25,95,160.0
1040,C4,136.75,0.25,95,160.0
1041,G#3,136.75,0.25,95,160.0
1042,C#4,137.0,0.25,95,160.0
1043,A3,137.0,0.25,95,160.0
1044,C#4,137.0,0.25,95,160.0
1045,A3,137.0,0.25,95,160.0
1046,E4,137.25,0.25,95,160.0
1047,E4,137.25,0.25,95,160.0
1048,A3,137.5,0.5,95,160.0
1049,A3,137.5,0.5,95,160.0
1050,G4,138.0,0.5,95,160.0
1051,A3,138.0,0.5,95,160.0
1052,G4,138.0,0.5,95,160.0
1053,A3,138.0,0.5,95,160.0
1054,F#4,138.5,0.5,95,160.0
1055,A3,138.5,0.5,95,160.0
1056,F#4,138.5,0.5,95,160.0
1057,A3,138.5,0.5,95,160.0
1058,E4,139.0,0.5,95,160.0
1059,A3,139.0,0.5,95,160.0
1060,E4,139.0,0.5,95,160.0
1061,A3,139.0,0.5,95,160.0
1062,C#4,139.5,0.5,95,160.0
1063,A3,139.5,0.5,95,160.0
1064,C#4,139.5,0.5,95,160.0
1065,A3,139.5,0.5,95,160.0
1066,B3,140.0,167/1000,95,160.0
1067,B3,140.0,167/1000,95,160.0
1068,E-4,140.167,167/1000,95,160.0
1069,E-4,140.167,167/1000,95,160.0
1070,F#4,140.333,167/1000,95,160.0
1071,F#4,140.333,167/1000,95,160.0
1072,B4,140.5,0.5,95,160.0
1073,B4,140.5,0.5,95,160.0
1074,A3,141.0,167/1000,95,160.0
1075,A3,141.0,167/1000,95,160.0
1076,C#4,141.167,167/1000,95,160.0
1077,C#4,141.167,167/1000,95,160.0
1078,E4,141.333,167/1000,95,160.0
1079,E4,141.333,167/1000,95,160.0
1080,A4,141.5,0.5,95,160.0
1081,A4,141.5,0.5,95,160.0
1082,G#3,142.0,167/1000,95,160.0
1083,G#3,142.0,167/1000,95,160.0
1084,B3,142.167,167/1000,95,160.0
1085,B3,142.167,167/1000,95,160.0
1086,E-4,142.333,167/1000,95,160.0
1087,E-4,142.333,167/1000,95,160.0
1088,G#4,142.5,0.5,95,160.0
1089,G#4,142.5,0.5,95,160.0
1090,G2,143.0,1.0,95,160.0
1091,G2,143.0,1.0,95,160.0
1092,E2,144.0,0.5,95,160.0
1093,E2,144.0,0.5,95,160.0
1094,E3,144.5,0.5,95,160.0
1095,E3,144.5,0.5,95,160.0
1096,E3,145.0,0.25,95,160.0
1097,E3,145.0,0.25,95,160.0
1098,D3,145.25,0.25,70,160.0
1099,D3,145.25,0.25,70,160.0
1100,B2,145.5,0.25,95,160.0
1101,B2,145.5,0.25,95,160.0
1102,G3,145.75,0.5,95,160.0
1103,G3,145.75,0.5,95,160.0
1104,B2,146.25,0.25,95,160.0
1105,B2,146.25,0.25,95,160.0
1106,E3,146.5,0.5,95,160.0
1107,E3,146.5,0.5,95,160.0
1108,E3,147.0,0.25,95,160.0
1109,E3,147.0,0.25,95,160.0
1110,D3,147.25,0.25,70,160.0
1111,D3,147.25,0.25,70,160.0
1112,G2,147.5,0.5,95,160.0
1113,G2,147.5,0.5,95,160.0
1114,B2,148.0,0.5,95,160.0
1115,B2,148.0,0.5,95,160.0
1116,E-3,148.5,0.5,95,160.0
1117,E-3,148.5,0.5,95,160.0
1118,A3,149.0,0.25,95,160.0
1119,A3,149.0,0.25,95,160.0
1120,B3,149.25,0.25,95,160.0
1121,B3,149.25,0.25,95,160.0
1122,A3,149.5,0.25,95,160.0
1123,A3,149.5,0.25,95,160.0
1124,F#4,149.75,0.75,95,160.0
1125,F#4,149.75,0.75,95,160.0
1126,B3,150.5,0.5,95,160.0
1127,B3,150.5,0.5,95,160.0
1128,A3,151.0,0.5,95,160.0
1129,A3,151.0,0.5,95,160.0
1130,E-3,151.5,0.5,95,160.0
1131,E-3,151.5,0.5,95,160.0
1132,G#3,152.0,0.5,95,160.0
1133,G#3,152.0,0.5,95,160.0
1134,D4,152.5,0.5,95,160.0
1135,D4,152.5,0.5,95,160.0
1136,F#4,153.0,0.25,95,160.0
1137,F#4,153.0,0.25,95,160.0
1138,B4,153.25,0.25,95,160.0
1139,B4,153.25,0.25,95,160.0
1140,F#4,153.5,0.25,95,160.0
1141,F#4,153.5,0.25,95,160.0
1142,E4,153.75,0.75,95,160.0
1143,E4,153.75,0.75,95,160.0
1144,B4,154.5,0.5,95,160.0
1145,B4,154.5,0.5,95,160.0
1146,F#4,155.0,0.5,95,160.0
1147,F#4,155.0,0.5,95,160.0
1148,D4,155.5,0.5,95,160.0
1149,D4,155.5,0.5,95,160.0
1150,A2,156.0,0.5,95,160.0
1151,A2,156.0,0.5,95,160.0
1152,A3,156.5,0.5,95,160.0
1153,A3,156.5,0.5,95,160.0
1154,C#4,157.0,0.25,95,160.0
1155,C#4,157.0,0.25,95,160.0
1156,G4,157.25,0.25,95,160.0
1157,G4,157.25,0.25,95,160.0
1158,C#4,157.5,0.25,95,160.0
1159,C#4,157.5,0.25,95,160.0
1160,E4,157.75,0.25,95,160.0
1161,E4,157.75,0.25,95,160.0
1162,E4,158.0,0.25,95,160.0
1163,E4,158.0,0.25,95,160.0
1164,G4,158.25,0.25,95,160.0
1165,G4,158.25,0.25,95,160.0
1166,C#4,158.5,0.5,95,160.0
1167,C#4,158.5,0.5,95,160.0
1168,C#5,159.0,0.25,95,160.0
1169,C#5,159.0,0.25,95,160.0
1170,B4,159.25,0.25,70,160.0
1171,B4,159.25,0.25,70,160.0
1172,G4,159.5,0.5,95,160.0
1173,G4,159.5,0.5,95,160.0
1174,C4,160.0,0.5,95,160.0
1175,C3,160.0,0.5,95,160.0
1176,C4,160.0,0.5,95,160.0
1177,C3,160.0,0.5,95,160.0
1178,F#4,160.5,0.5,95,160.0
1179,F#4,160.5,0.5,95,160.0
1180,B4,161.0,0.5,95,160.0
1181,B4,161.0,0.5,95,160.0
1182,F#4,161.5,0.5,95,160.0
1183,F#4,161.5,0.5,95,160.0
1184,E4,162.0,0.5,95,160.0
1185,E4,162.0,0.5,95,160.0
1186,B4,162.5,0.5,95,160.0
1187,B4,162.5,0.5,95,160.0
1188,F#4,163.0,0.5,95,160.0
1189,F#4,163.0,0.5,95,160.0
1190,C4,163.5,0.5,95,160.0
1191,C4,163.5,0.5,95,160.0
1192,B-4,164.0,0.5,95,160.0
1193,E4,164.0,0.5,95,160.0
1194,B-4,164.0,0.5,95,160.0
1195,E4,164.0,0.5,95,160.0
1196,B-4,164.5,0.5,95,160.0
1197,E4,164.5,0.5,95,160.0
1198,B-4,164.5,0.5,95,160.0
1199,E4,164.5,0.5,95,160.0
1200,B-4,165.0,0.25,95,160.0
1201,E4,165.0,0.25,95,160.0
1202,B-4,165.0,0.25,95,160.0
1203,E4,165.0,0.25,95,160.0
1204,G4,165.25,0.25,70,160.0
1205,D4,165.25,0.25,70,160.0
1206,G4,165.25,0.25,70,160.0
1207,D4,165.25,0.25,70,160.0
1208,G3,165.5,0.5,95,160.0
1209,G3,165.5,0.5,95,160.0
1210,E4,166.0,0.25,95,160.0
1211,C4,166.0,0.25,95,160.0
1212,E4,166.0,0.25,95,160.0
1213,C4,166.0,0.25,95,160.0
1214,E4,166.25,0.125,95,160.0
1215,C4,166.25,0.125,95,160.0
1216,E4,166.25,0.125,95,160.0
1217,C4,166.25,0.125,95,160.0
1218,F4,166.375,0.125,70,160.0
1219,C#4,166.375,0.125,70,160.0
1220,F4,166.375,0.125,70,160.0
1221,C#4,166.375,0.125,70,160.0
1222,E4,166.5,0.125,70,160.0
1223,C4,166.5,0.125,70,160.0
1224,E4,166.5,0.125,70,160.0
1225,C4,166.5,0.125,70,160.0
1226,D4,166.625,0.125,70,160.0
1227,B-3,166.625,0.125,70,160.0
1228,D4,166.625,0.125,70,160.0
1229,B-3,166.625,0.125,70,160.0
1230,G3,166.75,0.25,95,160.0
1231,G3,166.75,0.25,95,160.0
1232,E4,167.0,0.25,95,160.0
1233,C4,167.0,0.25,95,160.0
1234,E4,167.0,0.25,95,160.0
1235,C4,167.0,0.25,95,160.0
1236,G3,167.25,0.25,95,160.0
1237,G3,167.25,0.25,95,160.0
1238,D4,167.5,0.5,95,160.0
1239,B-3,167.5,0.5,95,160.0
1240,D4,167.5,0.5,95,160.0
1241,B-3,167.5,0.5,95,160.0
1242,B3,168.0,0.25,95,160.0
1243,G3,168.0,0.25,95,160.0
1244,B3,168.0,0.25,95,160.0
1245,G3,168.0,0.25,95,160.0
1246,B-3,168.25,0.25,95,160.0
1247,F#3,168.25,0.25,95,160.0
1248,B-3,168.25,0.25,95,160.0
1249,F#3,168.25,0.25,95,160.0
1250,B3,168.5,0.25,95,160.0
1251,G3,168.5,0.25,95,160.0
1252,B3,168.5,0.25,95,160.0
1253,G3,168.5,0.25,95,160.0
1254,D4,168.75,0.25,95,160.0
1255,B3,168.75,0.25,95,160.0
1256,D4,168.75,0.25,95,160.0
1257,B3,168.75,0.25,95,160.0
1258,C#4,169.0,0.25,95,160.0
1259,B-3,169.0,0.25,95,160.0
1260,C#4,169.0,0.25,95,160.0
1261,B-3,169.0,0.25,95,160.0
1262,D4,169.25,0.25,95,160.0
1263,B3,169.25,0.25,95,160.0
1264,D4,169.25,0.25,95,160.0
1265,B3,169.25,0.25,95,160.0
1266,G4,169.5,0.5,95,160.0
1267,D4,169.5,0.5,95,160.0
1268,G4,169.5,0.5,95,160.0
1269,D4,169.5,0.5,95,160.0
1270,D4,170.5,0.5,95,160.0
1271,B3,170.5,0.5,95,160.0
1272,G3,170.5,0.5,95,160.0
1273,D3,170.5,0.5,95,160.0
1274,D4,170.5,0.5,95,160.0
1275,B3,170.5,0.5,95,160.0
1276,G3,170.5,0.5,95,160.0
1277,D3,170.5,0.5,95,160.0
1278,D4,171.0,1.0,95,160.0
1279,B3,171.0,1.0,95,160.0
1280,G3,171.0,1.0,95,160.0
1281,D3,171.0,1.0,95,160.0
1282,D4,171.0,1.0,95,160.0
1283,B3,171.0,1.0,95,160.0
1284,G3,171.0,1.0,95,160.0
1285,D3,171.0,1.0,95,160.0
