,note_name,start_time,duration,velocity,tempo
0,D2,16.0,2.0,95,80.0
1,E4,16.0,1.0,95,80.0
2,F4,16.0,1.0,95,80.0
3,D4,16.0,1.0,95,80.0
4,A3,16.0,1.0,95,80.0
5,D3,16.0,1.0,95,80.0
6,E4,17.0,0.5,95,80.0
7,F4,17.0,0.5,95,80.0
8,D4,17.0,0.5,95,80.0
9,A3,17.0,0.5,95,80.0
10,D3,17.0,0.5,95,80.0
11,A3,17.25,0.25,95,80.0
12,E4,17.5,0.25,95,80.0
13,E4,17.5,0.25,95,80.0
14,F4,17.5,0.25,95,80.0
15,D4,17.5,0.25,95,80.0
16,A3,17.5,0.25,95,80.0
17,D3,17.5,0.25,95,80.0
18,D4,17.75,0.25,70,80.0
19,E4,17.75,21/500,95,80.0
20,B3,17.75,21/500,95,80.0
21,G3,17.75,21/500,95,80.0
22,D3,17.75,21/500,95,80.0
23,A2,17.75,21/500,95,80.0
24,F4,18.0,1.0,95,80.0
25,C2,18.0,2.0,95,80.0
26,E4,18.0,1.0,95,80.0
27,F4,18.0,1.0,95,80.0
28,D4,18.0,1.0,95,80.0
29,D3,18.0,1.0,95,80.0
30,A2,18.0,1.0,95,80.0
31,C3,18.0,1.0,95,80.0
32,E4,19.0,0.5,95,80.0
33,F4,19.0,0.5,95,80.0
34,D4,19.0,0.5,95,80.0
35,D3,19.0,0.5,95,80.0
36,A2,19.0,0.5,95,80.0
37,C3,19.0,0.5,95,80.0
38,G4,19.312,0.188,95,80.0
39,A4,19.5,0.5,95,80.0
40,E4,19.5,0.25,95,80.0
41,F4,19.5,0.25,95,80.0
42,D4,19.5,0.25,95,80.0
43,D3,19.5,0.25,95,80.0
44,A2,19.5,0.25,95,80.0
45,C3,19.5,0.25,95,80.0
46,E4,19.75,21/500,95,80.0
47,B3,19.75,21/500,95,80.0
48,G3,19.75,21/500,95,80.0
49,D3,19.75,21/500,95,80.0
50,A2,19.75,21/500,95,80.0
51,E2,19.75,21/500,95,80.0
52,A4,20.0,0.5,95,80.0
53,G1,20.0,4.0,95,80.0
54,G4,20.0,1.0,95,80.0
55,D4,20.0,1.0,95,80.0
56,B-3,20.0,1.0,95,80.0
57,G3,20.0,1.0,95,80.0
58,A2,20.0,1.0,95,80.0
59,G2,20.0,1.0,95,80.0
60,B-4,20.5,0.25,70,80.0
61,B-4,20.75,3.25,95,80.0
62,G4,21.0,0.25,95,80.0
63,D4,21.0,0.25,95,80.0
64,B-3,21.0,0.25,95,80.0
65,G3,21.0,0.25,95,80.0
66,A2,21.0,0.25,95,80.0
67,G2,21.0,0.25,95,80.0
68,G4,21.25,0.25,95,80.0
69,D4,21.25,0.25,95,80.0
70,B-3,21.25,0.25,95,80.0
71,G3,21.25,0.25,95,80.0
72,A2,21.25,0.25,95,80.0
73,G2,21.25,0.25,95,80.0
74,G4,21.5,0.5,95,80.0
75,D4,21.5,0.5,95,80.0
76,B-3,21.5,0.5,95,80.0
77,G3,21.5,0.5,95,80.0
78,A2,21.5,0.5,95,80.0
79,G2,21.5,0.5,95,80.0
80,G4,22.0,0.25,95,80.0
81,D4,22.0,0.25,95,80.0
82,B-3,22.0,0.25,95,80.0
83,G3,22.0,0.25,95,80.0
84,A2,22.0,0.25,95,80.0
85,G2,22.0,0.25,95,80.0
86,G4,22.25,0.25,95,80.0
87,D4,22.25,0.25,95,80.0
88,B-3,22.25,0.25,95,80.0
89,G3,22.25,0.25,95,80.0
90,A2,22.25,0.25,95,80.0
91,G2,22.25,0.25,95,80.0
92,G4,22.5,0.25,95,80.0
93,D4,22.5,0.25,95,80.0
94,B-3,22.5,0.25,95,80.0
95,G3,22.5,0.25,95,80.0
96,A2,22.5,0.25,95,80.0
97,G2,22.5,0.25,95,80.0
98,G4,22.75,0.25,95,80.0
99,D4,22.75,0.25,95,80.0
100,B-3,22.75,0.25,95,80.0
101,G3,22.75,0.25,95,80.0
102,A2,22.75,0.25,95,80.0
103,G2,22.75,0.25,95,80.0
104,G4,23.0,0.5,95,80.0
105,D4,23.0,0.5,95,80.0
106,B-3,23.0,0.5,95,80.0
107,G3,23.0,0.5,95,80.0
108,A2,23.0,0.5,95,80.0
109,G2,23.0,0.5,95,80.0
110,E4,23.5,21/500,95,80.0
111,B3,23.5,21/500,95,80.0
112,G3,23.5,21/500,95,80.0
113,D3,23.5,21/500,95,80.0
114,A2,23.5,21/500,95,80.0
115,E2,23.5,21/500,95,80.0
116,B-1,24.0,2.0,95,80.0
117,G4,24.0,0.5,95,80.0
118,E4,24.0,0.5,95,80.0
119,B-3,24.0,0.5,95,80.0
120,F3,24.0,0.5,95,80.0
121,D3,24.0,0.5,95,80.0
122,B-2,24.0,0.5,95,80.0
123,G4,24.5,0.25,95,80.0
124,E4,24.5,0.25,95,80.0
125,B-3,24.5,0.25,95,80.0
126,F3,24.5,0.25,95,80.0
127,D3,24.5,0.25,95,80.0
128,B-2,24.5,0.25,95,80.0
129,G4,24.75,0.25,95,80.0
130,E4,24.75,0.25,95,80.0
131,B-3,24.75,0.25,95,80.0
132,F3,24.75,0.25,95,80.0
133,D3,24.75,0.25,95,80.0
134,B-2,24.75,0.25,95,80.0
135,G4,25.0,0.5,95,80.0
136,E4,25.0,0.5,95,80.0
137,B-3,25.0,0.5,95,80.0
138,F3,25.0,0.5,95,80.0
139,D3,25.0,0.5,95,80.0
140,B-2,25.0,0.5,95,80.0
141,B-3,25.25,0.25,95,80.0
142,D4,25.5,0.25,95,80.0
143,E4,25.5,21/500,95,80.0
144,B3,25.5,21/500,95,80.0
145,G3,25.5,21/500,95,80.0
146,D3,25.5,21/500,95,80.0
147,A2,25.5,21/500,95,80.0
148,E2,25.5,21/500,95,80.0
149,C#4,25.75,0.25,70,80.0
150,E4,25.75,21/500,95,80.0
151,B3,25.75,21/500,95,80.0
152,G3,25.75,21/500,95,80.0
153,D3,25.75,21/500,95,80.0
154,A2,25.75,21/500,95,80.0
155,E2,25.75,21/500,95,80.0
156,D4,26.0,0.25,95,80.0
157,A1,26.0,1.0,95,80.0
158,G4,26.0,0.5,95,80.0
159,C#4,26.0,0.5,95,80.0
160,A3,26.0,0.5,95,80.0
161,E3,26.0,0.5,95,80.0
162,A2,26.0,0.5,95,80.0
163,E4,26.25,1.5,95,80.0
164,G4,26.5,0.25,95,80.0
165,C#4,26.5,0.25,95,80.0
166,A3,26.5,0.25,95,80.0
167,E3,26.5,0.25,95,80.0
168,A2,26.5,0.25,95,80.0
169,G4,26.75,0.25,95,80.0
170,C#4,26.75,0.25,95,80.0
171,A3,26.75,0.25,95,80.0
172,E3,26.75,0.25,95,80.0
173,A2,26.75,0.25,95,80.0
174,A1,27.0,1.0,95,80.0
175,G4,27.0,0.5,95,80.0
176,C#4,27.0,0.5,95,80.0
177,A3,27.0,0.5,95,80.0
178,E3,27.0,0.5,95,80.0
179,A2,27.0,0.5,95,80.0
180,E4,27.5,21/500,95,80.0
181,B3,27.5,21/500,95,80.0
182,G3,27.5,21/500,95,80.0
183,D3,27.5,21/500,95,80.0
184,A2,27.5,21/500,95,80.0
185,F4,27.562,0.188,95,80.0
186,G4,27.75,0.25,95,80.0
187,E4,27.75,21/500,95,80.0
188,B3,27.75,21/500,95,80.0
189,G3,27.75,21/500,95,80.0
190,D3,27.75,21/500,95,80.0
191,A2,27.75,21/500,95,80.0
192,G4,28.0,0.5,95,80.0
193,D2,28.0,1.0,95,80.0
194,E4,28.0,0.5,95,80.0
195,F4,28.0,0.5,95,80.0
196,D4,28.0,0.5,95,80.0
197,A3,28.0,0.5,95,80.0
198,D3,28.0,0.5,95,80.0
199,A4,28.5,0.25,95,80.0
200,E4,28.5,0.25,95,80.0
201,F4,28.5,0.25,95,80.0
202,D4,28.5,0.25,95,80.0
203,A3,28.5,0.25,95,80.0
204,D3,28.5,0.25,95,80.0
205,A4,28.75,3.25,95,80.0
206,E4,28.75,0.25,95,80.0
207,F4,28.75,0.25,95,80.0
208,D4,28.75,0.25,95,80.0
209,A3,28.75,0.25,95,80.0
210,D3,28.75,0.25,95,80.0
211,D2,29.0,0.75,95,80.0
212,E4,29.0,0.5,95,80.0
213,F4,29.0,0.5,95,80.0
214,D4,29.0,0.5,95,80.0
215,A3,29.0,0.5,95,80.0
216,D3,29.0,0.5,95,80.0
217,E4,29.5,21/500,95,80.0
218,B3,29.5,21/500,95,80.0
219,G3,29.5,21/500,95,80.0
220,D3,29.5,21/500,95,80.0
221,A2,29.5,21/500,95,80.0
222,A1,29.75,1.25,95,80.0
223,A4,29.75,0.25,95,80.0
224,E4,29.75,0.25,95,80.0
225,C4,29.75,0.25,95,80.0
226,G3,29.75,0.25,95,80.0
227,E3,29.75,0.25,95,80.0
228,A2,29.75,0.25,95,80.0
229,A4,30.0,0.25,95,80.0
230,E4,30.0,0.25,95,80.0
231,C4,30.0,0.25,95,80.0
232,G3,30.0,0.25,95,80.0
233,E3,30.0,0.25,95,80.0
234,A2,30.0,0.25,95,80.0
235,A4,30.25,0.25,95,80.0
236,E4,30.25,0.25,95,80.0
237,C4,30.25,0.25,95,80.0
238,G3,30.25,0.25,95,80.0
239,E3,30.25,0.25,95,80.0
240,A2,30.25,0.25,95,80.0
241,A4,30.5,0.25,95,80.0
242,E4,30.5,0.25,95,80.0
243,C4,30.5,0.25,95,80.0
244,G3,30.5,0.25,95,80.0
245,E3,30.5,0.25,95,80.0
246,A2,30.5,0.25,95,80.0
247,A4,30.75,0.25,95,80.0
248,E4,30.75,0.25,95,80.0
249,C4,30.75,0.25,95,80.0
250,G3,30.75,0.25,95,80.0
251,E3,30.75,0.25,95,80.0
252,A2,30.75,0.25,95,80.0
253,A1,31.0,1.0,95,80.0
254,A4,31.0,0.5,95,80.0
255,E4,31.0,0.5,95,80.0
256,C4,31.0,0.5,95,80.0
257,G3,31.0,0.5,95,80.0
258,E3,31.0,0.5,95,80.0
259,A2,31.0,0.5,95,80.0
260,A4,31.5,0.5,95,80.0
261,E4,31.5,0.5,95,80.0
262,C4,31.5,0.5,95,80.0
263,G3,31.5,0.5,95,80.0
264,E3,31.5,0.5,95,80.0
265,A2,31.5,0.5,95,80.0
266,D2,32.0,2.0,95,80.0
267,E4,32.0,1.0,95,80.0
268,F4,32.0,1.0,95,80.0
269,D4,32.0,1.0,95,80.0
270,A3,32.0,1.0,95,80.0
271,D3,32.0,1.0,95,80.0
272,E4,33.0,0.5,95,80.0
273,F4,33.0,0.5,95,80.0
274,D4,33.0,0.5,95,80.0
275,A3,33.0,0.5,95,80.0
276,D3,33.0,0.5,95,80.0
277,A3,33.25,0.25,95,80.0
278,E4,33.5,0.25,95,80.0
279,E4,33.5,0.25,95,80.0
280,F4,33.5,0.25,95,80.0
281,D4,33.5,0.25,95,80.0
282,A3,33.5,0.25,95,80.0
283,D3,33.5,0.25,95,80.0
284,D4,33.75,0.25,70,80.0
285,E4,33.75,21/500,95,80.0
286,B3,33.75,21/500,95,80.0
287,G3,33.75,21/500,95,80.0
288,D3,33.75,21/500,95,80.0
289,A2,33.75,21/500,95,80.0
290,F4,34.0,1.0,95,80.0
291,C2,34.0,2.0,95,80.0
292,E4,34.0,1.0,95,80.0
293,F4,34.0,1.0,95,80.0
294,D4,34.0,1.0,95,80.0
295,D3,34.0,1.0,95,80.0
296,A2,34.0,1.0,95,80.0
297,C3,34.0,1.0,95,80.0
298,E4,35.0,0.5,95,80.0
299,F4,35.0,0.5,95,80.0
300,D4,35.0,0.5,95,80.0
301,D3,35.0,0.5,95,80.0
302,A2,35.0,0.5,95,80.0
303,C3,35.0,0.5,95,80.0
304,B-4,35.312,0.188,95,80.0
305,C5,35.5,0.5,95,80.0
306,E4,35.5,0.25,95,80.0
307,F4,35.5,0.25,95,80.0
308,D4,35.5,0.25,95,80.0
309,D3,35.5,0.25,95,80.0
310,A2,35.5,0.25,95,80.0
311,C3,35.5,0.25,95,80.0
312,E4,35.75,21/500,95,80.0
313,B3,35.75,21/500,95,80.0
314,G3,35.75,21/500,95,80.0
315,D3,35.75,21/500,95,80.0
316,A2,35.75,21/500,95,80.0
317,E2,35.75,21/500,95,80.0
318,C5,36.0,0.5,95,80.0
319,G1,36.0,3.0,95,80.0
320,G4,36.0,1.0,95,80.0
321,D4,36.0,1.0,95,80.0
322,B-3,36.0,1.0,95,80.0
323,G3,36.0,1.0,95,80.0
324,A2,36.0,1.0,95,80.0
325,G2,36.0,1.0,95,80.0
326,B-4,36.5,0.25,95,80.0
327,B-4,36.75,1.0,95,80.0
328,G4,37.0,0.25,95,80.0
329,D4,37.0,0.25,95,80.0
330,B-3,37.0,0.25,95,80.0
331,G3,37.0,0.25,95,80.0
332,A2,37.0,0.25,95,80.0
333,G2,37.0,0.25,95,80.0
334,G4,37.25,0.25,95,80.0
335,D4,37.25,0.25,95,80.0
336,B-3,37.25,0.25,95,80.0
337,G3,37.25,0.25,95,80.0
338,A2,37.25,0.25,95,80.0
339,G2,37.25,0.25,95,80.0
340,G4,37.5,0.5,95,80.0
341,D4,37.5,0.5,95,80.0
342,B-3,37.5,0.5,95,80.0
343,G3,37.5,0.5,95,80.0
344,A2,37.5,0.5,95,80.0
345,G2,37.5,0.5,95,80.0
346,A4,37.75,0.25,95,80.0
347,A4,38.0,0.5,95,80.0
348,G4,38.0,0.25,95,80.0
349,D4,38.0,0.25,95,80.0
350,B-3,38.0,0.25,95,80.0
351,G3,38.0,0.25,95,80.0
352,A2,38.0,0.25,95,80.0
353,G2,38.0,0.25,95,80.0
354,G4,38.25,0.25,95,80.0
355,D4,38.25,0.25,95,80.0
356,B-3,38.25,0.25,95,80.0
357,G3,38.25,0.25,95,80.0
358,A2,38.25,0.25,95,80.0
359,G2,38.25,0.25,95,80.0
360,G4,38.5,1.5,95,80.0
361,G4,38.5,0.25,95,80.0
362,D4,38.5,0.25,95,80.0
363,B-3,38.5,0.25,95,80.0
364,G3,38.5,0.25,95,80.0
365,A2,38.5,0.25,95,80.0
366,G2,38.5,0.25,95,80.0
367,G4,38.75,0.25,95,80.0
368,D4,38.75,0.25,95,80.0
369,B-3,38.75,0.25,95,80.0
370,G3,38.75,0.25,95,80.0
371,A2,38.75,0.25,95,80.0
372,G2,38.75,0.25,95,80.0
373,G1,39.0,1.0,95,80.0
374,G4,39.0,0.5,95,80.0
375,D4,39.0,0.5,95,80.0
376,B-3,39.0,0.5,95,80.0
377,G3,39.0,0.5,95,80.0
378,A2,39.0,0.5,95,80.0
379,G2,39.0,0.5,95,80.0
380,E4,39.5,21/500,95,80.0
381,B3,39.5,21/500,95,80.0
382,G3,39.5,21/500,95,80.0
383,D3,39.5,21/500,95,80.0
384,A2,39.5,21/500,95,80.0
385,E2,39.5,21/500,95,80.0
386,E4,39.75,21/500,95,80.0
387,B3,39.75,21/500,95,80.0
388,G3,39.75,21/500,95,80.0
389,D3,39.75,21/500,95,80.0
390,A2,39.75,21/500,95,80.0
391,E2,39.75,21/500,95,80.0
392,B-1,40.0,2.0,95,80.0
393,G4,40.0,0.5,95,80.0
394,E4,40.0,0.5,95,80.0
395,B-3,40.0,0.5,95,80.0
396,F3,40.0,0.5,95,80.0
397,D3,40.0,0.5,95,80.0
398,B-2,40.0,0.5,95,80.0
399,G4,40.5,0.25,95,80.0
400,E4,40.5,0.25,95,80.0
401,B-3,40.5,0.25,95,80.0
402,F3,40.5,0.25,95,80.0
403,D3,40.5,0.25,95,80.0
404,B-2,40.5,0.25,95,80.0
405,G4,40.75,0.25,95,80.0
406,E4,40.75,0.25,95,80.0
407,B-3,40.75,0.25,95,80.0
408,F3,40.75,0.25,95,80.0
409,D3,40.75,0.25,95,80.0
410,B-2,40.75,0.25,95,80.0
411,G4,41.0,0.5,95,80.0
412,E4,41.0,0.5,95,80.0
413,B-3,41.0,0.5,95,80.0
414,F3,41.0,0.5,95,80.0
415,D3,41.0,0.5,95,80.0
416,B-2,41.0,0.5,95,80.0
417,B-3,41.25,0.25,95,80.0
418,D4,41.5,0.25,95,80.0
419,E4,41.5,21/500,95,80.0
420,B3,41.5,21/500,95,80.0
421,G3,41.5,21/500,95,80.0
422,D3,41.5,21/500,95,80.0
423,A2,41.5,21/500,95,80.0
424,E2,41.5,21/500,95,80.0
425,C#4,41.75,0.25,70,80.0
426,E4,41.75,21/500,95,80.0
427,B3,41.75,21/500,95,80.0
428,G3,41.75,21/500,95,80.0
429,D3,41.75,21/500,95,80.0
430,A2,41.75,21/500,95,80.0
431,E2,41.75,21/500,95,80.0
432,D4,42.0,0.25,95,80.0
433,A1,42.0,1.0,95,80.0
434,G4,42.0,0.5,95,80.0
435,C#4,42.0,0.5,95,80.0
436,A3,42.0,0.5,95,80.0
437,E3,42.0,0.5,95,80.0
438,A2,42.0,0.5,95,80.0
439,E4,42.25,1.5,95,80.0
440,G4,42.5,0.25,95,80.0
441,C#4,42.5,0.25,95,80.0
442,A3,42.5,0.25,95,80.0
443,E3,42.5,0.25,95,80.0
444,A2,42.5,0.25,95,80.0
445,G4,42.75,0.25,95,80.0
446,C#4,42.75,0.25,95,80.0
447,A3,42.75,0.25,95,80.0
448,E3,42.75,0.25,95,80.0
449,A2,42.75,0.25,95,80.0
450,A1,43.0,1.0,95,80.0
451,G4,43.0,0.5,95,80.0
452,C#4,43.0,0.5,95,80.0
453,A3,43.0,0.5,95,80.0
454,E3,43.0,0.5,95,80.0
455,A2,43.0,0.5,95,80.0
456,E4,43.5,21/500,95,80.0
457,B3,43.5,21/500,95,80.0
458,G3,43.5,21/500,95,80.0
459,D3,43.5,21/500,95,80.0
460,A2,43.5,21/500,95,80.0
461,E2,43.5,21/500,95,80.0
462,F4,43.75,0.25,95,80.0
463,E4,43.75,21/500,95,80.0
464,B3,43.75,21/500,95,80.0
465,G3,43.75,21/500,95,80.0
466,D3,43.75,21/500,95,80.0
467,A2,43.75,21/500,95,80.0
468,E2,43.75,21/500,95,80.0
469,E4,44.0,0.25,95,80.0
470,D1,44.0,1.0,95,80.0
471,E4,44.0,0.5,95,80.0
472,F4,44.0,0.5,95,80.0
473,D4,44.0,0.5,95,80.0
474,A3,44.0,0.5,95,80.0
475,D3,44.0,0.5,95,80.0
476,F4,44.25,0.125,70,80.0
477,E4,44.375,0.125,70,80.0
478,D4,44.5,0.25,95,80.0
479,E4,44.5,0.25,95,80.0
480,F4,44.5,0.25,95,80.0
481,D4,44.5,0.25,95,80.0
482,A3,44.5,0.25,95,80.0
483,D3,44.5,0.25,95,80.0
484,D4,44.75,2.25,95,80.0
485,E4,44.75,0.25,95,80.0
486,F4,44.75,0.25,95,80.0
487,D4,44.75,0.25,95,80.0
488,A3,44.75,0.25,95,80.0
489,D3,44.75,0.25,95,80.0
490,D1,45.0,0.75,95,80.0
491,E4,45.0,0.5,95,80.0
492,F4,45.0,0.5,95,80.0
493,D4,45.0,0.5,95,80.0
494,A3,45.0,0.5,95,80.0
495,D3,45.0,0.5,95,80.0
496,E4,45.5,21/500,95,80.0
497,B3,45.5,21/500,95,80.0
498,G3,45.5,21/500,95,80.0
499,D3,45.5,21/500,95,80.0
500,A2,45.5,21/500,95,80.0
501,A1,45.75,1.25,95,80.0
502,E4,45.75,0.25,95,80.0
503,F4,45.75,0.25,95,80.0
504,D4,45.75,0.25,95,80.0
505,A3,45.75,0.25,95,80.0
506,D3,45.75,0.25,95,80.0
507,E4,46.0,0.25,95,80.0
508,F4,46.0,0.25,95,80.0
509,D4,46.0,0.25,95,80.0
510,A3,46.0,0.25,95,80.0
511,D3,46.0,0.25,95,80.0
512,E4,46.25,0.25,95,80.0
513,F4,46.25,0.25,95,80.0
514,D4,46.25,0.25,95,80.0
515,A3,46.25,0.25,95,80.0
516,D3,46.25,0.25,95,80.0
517,E4,46.5,0.25,95,80.0
518,F4,46.5,0.25,95,80.0
519,D4,46.5,0.25,95,80.0
520,A3,46.5,0.25,95,80.0
521,D3,46.5,0.25,95,80.0
522,E4,46.75,0.25,95,80.0
523,F4,46.75,0.25,95,80.0
524,D4,46.75,0.25,95,80.0
525,A3,46.75,0.25,95,80.0
526,D3,46.75,0.25,95,80.0
527,B-1,47.0,1.0,95,80.0
528,E4,47.0,0.5,95,80.0
529,F4,47.0,0.5,95,80.0
530,D4,47.0,0.5,95,80.0
531,A3,47.0,0.5,95,80.0
532,D3,47.0,0.5,95,80.0
533,E4,47.5,0.25,95,80.0
534,F4,47.5,0.25,95,80.0
535,D4,47.5,0.25,95,80.0
536,A3,47.5,0.25,95,80.0
537,D3,47.5,0.25,95,80.0
538,E4,47.75,0.25,95,80.0
539,F4,47.75,0.25,95,80.0
540,D4,47.75,0.25,95,80.0
541,A3,47.75,0.25,95,80.0
542,D3,47.75,0.25,95,80.0
543,D3,48.0,0.5,95,80.0
544,D2,48.0,2.0,95,80.0
545,A3,48.5,0.5,95,80.0
546,D4,49.0,0.5,95,80.0
547,F4,49.5,0.5,95,80.0
548,C2,50.0,2.0,95,80.0
549,F4,50.0,0.5,95,80.0
550,C3,50.0,0.5,95,80.0
551,G3,50.5,0.5,95,80.0
552,A3,51.0,1.0,95,80.0
553,G2,52.0,0.5,95,80.0
554,G1,52.0,4.0,95,80.0
555,D3,52.5,0.25,95,80.0
556,A3,52.75,0.25,95,80.0
557,B-3,53.0,0.25,95,80.0
558,D4,53.25,0.25,95,80.0
559,G4,53.5,1.0,95,80.0
560,D4,54.5,0.5,95,80.0
561,B-3,55.0,0.5,95,80.0
562,A3,55.5,0.5,95,80.0
563,B-2,56.0,0.5,95,80.0
564,B-1,56.0,2.0,95,80.0
565,F3,56.5,0.5,95,80.0
566,G3,57.0,0.5,95,80.0
567,C4,57.5,0.5,95,80.0
568,C2,58.0,2.0,95,80.0
569,D4,58.0,0.5,95,80.0
570,C3,58.0,0.5,95,80.0
571,G3,58.5,0.25,95,80.0
572,G3,58.75,0.25,95,80.0
573,E4,59.0,0.5,95,80.0
574,D4,59.5,0.5,95,80.0
575,D3,60.0,0.5,95,80.0
576,D2,60.0,1.0,95,80.0
577,A3,60.5,0.5,95,80.0
578,D2,61.0,0.5,95,80.0
579,F4,61.0,0.5,95,80.0
580,D4,61.0,0.5,95,80.0
581,A1,61.5,0.5,95,80.0
582,E4,61.5,1.0,95,80.0
583,D4,61.5,1.0,95,80.0
584,C4,61.5,1.0,95,80.0
585,G3,61.5,1.0,95,80.0
586,A1,62.0,2.0,95,80.0
587,A2,62.5,0.25,95,80.0
588,G3,62.75,0.25,95,80.0
589,E4,63.0,0.25,95,80.0
590,D4,63.25,0.25,95,80.0
591,C4,63.5,0.5,95,80.0
592,D3,64.0,0.5,95,80.0
593,D2,64.0,2.0,95,80.0
594,A3,64.5,0.5,95,80.0
595,D4,65.0,0.5,95,80.0
596,F4,65.5,0.5,95,80.0
597,C2,66.0,2.0,95,80.0
598,F4,66.0,0.5,95,80.0
599,C3,66.0,0.5,95,80.0
600,G3,66.5,0.5,95,80.0
601,A3,67.0,1.0,95,80.0
602,G2,68.0,0.5,95,80.0
603,G1,68.0,4.0,95,80.0
604,D3,68.5,0.25,95,80.0
605,A3,68.75,0.25,95,80.0
606,B-3,69.0,0.25,95,80.0
607,D4,69.25,0.25,95,80.0
608,G4,69.5,1.0,95,80.0
609,D4,70.5,0.5,95,80.0
610,B-3,71.0,0.5,95,80.0
611,A3,71.5,0.5,95,80.0
612,B-2,72.0,0.5,95,80.0
613,B-1,72.0,2.0,95,80.0
614,F3,72.5,0.25,95,80.0
615,G3,72.75,0.25,95,80.0
616,G3,73.0,0.5,95,80.0
617,C4,73.5,0.5,95,80.0
618,C2,74.0,2.0,95,80.0
619,D4,74.0,0.5,95,80.0
620,C3,74.0,0.5,95,80.0
621,G3,74.5,0.25,95,80.0
622,G3,74.75,0.25,95,80.0
623,E4,75.0,0.5,95,80.0
624,D4,75.5,0.5,95,80.0
625,A2,76.0,0.5,95,80.0
626,A2,76.0,2.25,95,80.0
627,A3,76.5,0.25,95,80.0
628,C#4,76.75,0.25,95,80.0
629,G4,77.0,0.5,95,80.0
630,E4,77.0,0.5,95,80.0
631,E4,77.5,1.0,95,80.0
632,C#4,77.5,1.0,95,80.0
633,A2,78.25,0.25,95,80.0
634,A2,78.5,0.25,95,80.0
635,E3,78.5,0.25,95,80.0
636,A3,78.75,0.25,95,80.0
637,F3,78.75,0.25,95,80.0
638,E4,79.0,0.25,95,80.0
639,E3,79.0,0.25,95,80.0
640,E4,79.25,0.25,95,80.0
641,A2,79.25,0.75,95,80.0
642,C#4,79.5,0.5,95,80.0
643,D2,80.0,2.0,95,80.0
644,E4,80.5,0.5,95,80.0
645,F4,81.0,0.5,95,80.0
646,D4,81.5,1.0,95,80.0
647,B-1,82.0,1.0,95,80.0
648,E4,82.5,0.5,95,80.0
649,F4,83.0,1.0,95,80.0
650,B-1,83.0,1.0,95,80.0
651,F4,84.0,0.5,95,80.0
652,C2,84.0,1.5,95,80.0
653,E4,84.5,0.5,95,80.0
654,F4,85.0,0.5,95,80.0
655,G3,85.5,1.0,95,80.0
656,C2,85.5,0.5,95,80.0
657,A1,86.0,1.0,95,80.0
658,E4,86.5,0.5,95,80.0
659,F4,87.0,1.0,95,80.0
660,A2,87.0,0.25,95,80.0
661,B-2,87.25,0.25,95,80.0
662,A2,87.5,0.5,95,80.0
663,F4,88.0,1.0,95,80.0
664,D2,88.0,2.0,95,80.0
665,E4,89.0,0.5,95,80.0
666,F4,89.5,0.5,95,80.0
667,D4,90.0,1.0,95,80.0
668,B-1,90.0,2.0,95,80.0
669,E4,91.0,0.5,95,80.0
670,F4,91.5,0.5,95,80.0
671,F4,92.0,0.5,95,80.0
672,C2,92.0,1.0,95,80.0
673,E4,92.5,0.5,95,80.0
674,F4,93.0,0.5,95,80.0
675,C2,93.0,1.0,95,80.0
676,G3,93.5,1.0,95,80.0
677,A1,94.0,1.0,95,80.0
678,E4,94.5,0.5,95,80.0
679,F4,95.0,1.0,95,80.0
680,D3,95.0,0.25,95,80.0
681,A2,95.25,0.5,95,80.0
682,A1,95.75,0.25,95,80.0
683,F4,96.0,0.5,95,80.0
684,D2,96.0,1.0,95,80.0
685,E4,96.5,0.5,95,80.0
686,F4,97.0,0.5,95,80.0
687,D2,97.0,1.0,95,80.0
688,D4,97.5,1.0,95,80.0
689,B-1,98.0,2.0,95,80.0
690,E4,98.5,0.5,95,80.0
691,F4,99.0,1.0,95,80.0
692,F4,100.0,0.5,95,80.0
693,C2,100.0,1.0,95,80.0
694,E4,100.5,0.5,95,80.0
695,F4,101.0,0.5,95,80.0
696,C3,101.0,1.0,95,80.0
697,G3,101.5,0.5,95,80.0
698,G3,102.0,0.5,95,80.0
699,A1,102.0,1.0,95,80.0
700,E4,102.5,0.5,95,80.0
701,F4,103.0,1.0,95,80.0
702,A1,103.0,1.0,95,80.0
703,B-3,104.0,0.5,95,80.0
704,B-1,104.0,1.5,95,80.0
705,C4,104.5,0.5,95,80.0
706,F4,105.0,0.5,95,80.0
707,B-3,105.5,1.0,95,80.0
708,B-1,105.5,1.0,95,80.0
709,C4,106.5,0.5,95,80.0
710,B-1,106.5,0.5,95,80.0
711,F4,107.0,1.0,95,80.0
712,B-1,107.0,0.75,95,80.0
713,B-1,107.75,0.25,95,80.0
714,F4,108.0,0.5,95,80.0
715,C3,108.0,0.5,95,80.0
716,C4,108.5,0.5,95,80.0
717,C2,108.5,0.5,95,80.0
718,F4,109.0,0.5,95,80.0
719,C2,109.0,3.0,95,80.0
720,C4,109.5,1.0,95,80.0
721,C4,110.5,0.5,95,80.0
722,E4,111.0,0.5,95,80.0
723,C4,111.5,0.5,95,80.0
724,A3,112.0,0.5,95,80.0
725,A1,112.0,1.0,95,80.0
726,F4,112.0,4.0,95,80.0
727,C4,112.0,4.0,95,80.0
728,A3,112.0,4.0,95,80.0
729,C4,112.5,0.5,95,80.0
730,F4,113.0,0.5,95,80.0
731,A1,113.0,1.0,95,80.0
732,C4,113.5,1.0,95,80.0
733,B-1,114.0,0.5,95,80.0
734,C4,114.5,0.5,95,80.0
735,B-2,114.5,0.5,95,80.0
736,F4,115.0,0.5,95,80.0
737,B-1,115.0,1.0,95,80.0
738,C4,115.5,0.5,95,80.0
739,C4,116.0,0.5,95,80.0
740,C2,116.0,1.0,95,80.0
741,C4,116.5,0.5,95,80.0
742,F4,117.0,0.5,95,80.0
743,C2,117.0,1.0,95,80.0
744,C4,117.5,1.0,95,80.0
745,C2,118.0,0.25,95,80.0
746,D2,118.25,0.25,95,80.0
747,C4,118.5,0.5,95,80.0
748,C2,118.5,0.5,95,80.0
749,E4,119.0,0.5,95,80.0
750,C2,119.0,0.25,95,80.0
751,F4,119.0,3.0,95,80.0
752,C4,119.0,3.0,95,80.0
753,A3,119.0,3.0,95,80.0
754,D2,119.25,0.75,95,80.0
755,F4,119.5,0.5,95,80.0
756,A3,120.0,0.5,95,80.0
757,A1,120.0,1.0,95,80.0
758,C4,120.5,0.5,95,80.0
759,F4,121.0,0.5,95,80.0
760,A1,121.0,1.0,95,80.0
761,C4,121.5,1.0,95,80.0
762,B-1,122.0,1.0,95,80.0
763,E4,122.0,0.5,95,80.0
764,C4,122.0,0.5,95,80.0
765,A3,122.0,0.5,95,80.0
766,C4,122.5,0.5,95,80.0
767,F4,122.5,0.5,95,80.0
768,C4,122.5,0.5,95,80.0
769,A3,122.5,0.5,95,80.0
770,F4,123.0,0.5,95,80.0
771,B-1,123.0,1.0,95,80.0
772,F4,123.0,4.0,95,80.0
773,C4,123.0,4.0,95,80.0
774,A3,123.0,4.0,95,80.0
775,C4,123.5,0.5,95,80.0
776,C4,124.0,0.5,95,80.0
777,C2,124.0,1.0,95,80.0
778,C4,124.5,0.5,95,80.0
779,F4,125.0,0.5,95,80.0
780,C2,125.0,0.5,95,80.0
781,C4,125.5,1.0,95,80.0
782,C3,125.5,0.5,95,80.0
783,D3,126.0,1.0,95,80.0
784,C4,126.5,0.5,95,80.0
785,E4,127.0,0.5,95,80.0
786,D2,127.0,1.0,95,80.0
787,F4,127.0,1.0,95,80.0
788,C4,127.0,1.0,95,80.0
789,A3,127.0,1.0,95,80.0
790,F4,127.5,0.5,95,80.0
791,A3,128.0,0.5,95,80.0
792,A1,128.0,2.0,95,80.0
793,F4,128.0,1.0,95,80.0
794,C4,128.0,1.0,95,80.0
795,A3,128.0,1.0,95,80.0
796,C4,128.5,0.5,95,80.0
797,F4,129.0,0.5,95,80.0
798,F4,129.0,0.5,95,80.0
799,C4,129.0,0.5,95,80.0
800,A3,129.0,0.5,95,80.0
801,C4,129.5,0.5,95,80.0
802,C4,129.5,1.0,95,80.0
803,E4,130.0,0.5,95,80.0
804,B-1,130.0,1.0,95,80.0
805,F4,130.5,0.5,95,80.0
806,C4,130.5,0.5,95,80.0
807,F4,131.0,0.5,95,80.0
808,F4,131.0,0.5,95,80.0
809,B-1,131.0,0.5,95,80.0
810,C4,131.5,0.5,95,80.0
811,C4,131.5,0.5,95,80.0
812,D2,131.5,0.5,95,80.0
813,F4,132.0,1.0,95,80.0
814,C4,132.0,0.5,95,80.0
815,C2,132.0,1.0,95,80.0
816,C4,132.5,0.5,95,80.0
817,F4,133.0,0.5,95,80.0
818,F4,133.0,0.5,95,80.0
819,C2,133.0,1.0,95,80.0
820,C4,133.5,0.5,95,80.0
821,C4,133.5,0.5,95,80.0
822,F4,134.0,1.0,95,80.0
823,E4,134.0,0.5,95,80.0
824,A1,134.0,1.0,95,80.0
825,C#4,134.5,0.5,95,80.0
826,F4,135.0,0.5,95,80.0
827,A3,135.0,0.5,95,80.0
828,A1,135.0,1.0,95,80.0
829,C4,135.5,0.5,95,80.0
830,E4,135.5,0.5,95,80.0
831,F4,136.0,1.0,95,80.0
832,D4,136.0,0.5,95,80.0
833,D2,136.0,1.0,95,80.0
834,E4,136.5,0.5,95,80.0
835,E4,137.0,0.5,95,80.0
836,F4,137.0,0.5,95,80.0
837,D2,137.0,1.0,95,80.0
838,C#4,137.5,0.5,95,80.0
839,D4,137.5,0.5,95,80.0
840,A3,138.0,0.5,95,80.0
841,C4,138.0,0.5,95,80.0
842,C2,138.0,1.0,95,80.0
843,E4,138.5,0.5,95,80.0
844,E4,138.5,0.5,95,80.0
845,E4,139.0,1.0,95,80.0
846,C2,139.0,1.0,95,80.0
847,E4,139.5,0.5,95,80.0
848,F4,140.0,1.0,95,80.0
849,B1,140.0,1.0,95,80.0
850,D5,140.5,0.5,95,80.0
851,F4,141.0,0.5,95,80.0
852,G4,141.0,0.5,95,80.0
853,B1,141.0,2.0,95,80.0
854,E4,141.5,0.5,95,80.0
855,D5,141.5,1.0,95,80.0
856,F4,142.0,1.0,95,80.0
857,D4,142.5,0.5,95,80.0
858,G4,143.0,0.5,95,80.0
859,B1,143.0,1.0,95,80.0
860,D5,143.5,0.5,95,80.0
861,D4,143.5,0.5,95,80.0
862,G4,144.0,0.5,95,80.0
863,B-3,144.0,0.5,95,80.0
864,B-1,144.0,1.0,95,80.0
865,D5,144.5,1.0,95,80.0
866,C4,144.5,0.5,95,80.0
867,F4,145.0,0.5,95,80.0
868,B-1,145.0,1.0,95,80.0
869,D4,145.5,0.5,95,80.0
870,C4,145.5,1.0,95,80.0
871,G4,146.0,1.0,95,80.0
872,C2,146.0,1.5,95,80.0
873,C4,146.5,0.5,95,80.0
874,B-3,147.0,0.5,95,80.0
875,F4,147.0,0.5,95,80.0
876,C4,147.5,0.5,95,80.0
877,C4,147.5,0.5,95,80.0
878,C2,147.5,0.5,95,80.0
879,F4,148.0,1.0,95,80.0
880,F1,148.0,2.25,95,80.0
881,A4,148.0,0.5,95,80.0
882,F4,148.0,0.5,95,80.0
883,C4,148.0,0.5,95,80.0
884,A4,148.5,0.25,95,80.0
885,F4,148.5,0.25,95,80.0
886,C4,148.5,0.25,95,80.0
887,A4,148.75,0.25,95,80.0
888,F4,148.75,0.25,95,80.0
889,C4,148.75,0.25,95,80.0
890,F4,149.0,0.5,95,80.0
891,A4,149.0,0.25,95,80.0
892,F4,149.0,0.25,95,80.0
893,C4,149.0,0.25,95,80.0
894,A4,149.25,0.25,95,80.0
895,F4,149.25,0.25,95,80.0
896,C4,149.25,0.25,95,80.0
897,C4,149.5,0.5,95,80.0
898,A4,149.5,0.25,95,80.0
899,F4,149.5,0.25,95,80.0
900,C4,149.5,0.25,95,80.0
901,A4,149.75,0.5,95,80.0
902,F4,149.75,0.5,95,80.0
903,C4,149.75,0.5,95,80.0
904,F4,150.0,1.0,95,80.0
905,D2,150.25,0.75,95,80.0
906,A4,150.25,0.25,95,80.0
907,F4,150.25,0.25,95,80.0
908,C4,150.25,0.25,95,80.0
909,A4,150.5,0.5,95,80.0
910,F4,150.5,0.5,95,80.0
911,C4,150.5,0.5,95,80.0
912,D2,151.0,1.0,95,80.0
913,A4,151.0,0.5,95,80.0
914,F4,151.0,0.5,95,80.0
915,C4,151.0,0.5,95,80.0
916,A4,151.5,0.25,95,80.0
917,F4,151.5,0.25,95,80.0
918,C4,151.5,0.25,95,80.0
919,A4,151.75,0.25,95,80.0
920,F4,151.75,0.25,95,80.0
921,C4,151.75,0.25,95,80.0
922,B-1,152.0,1.0,95,80.0
923,A4,152.0,0.5,95,80.0
924,F4,152.0,0.5,95,80.0
925,C4,152.0,0.5,95,80.0
926,B-3,152.0,0.5,95,80.0
927,A4,152.5,0.25,95,80.0
928,F4,152.5,0.25,95,80.0
929,C4,152.5,0.25,95,80.0
930,B-3,152.5,0.25,95,80.0
931,A4,152.75,0.25,95,80.0
932,F4,152.75,0.25,95,80.0
933,C4,152.75,0.25,95,80.0
934,B-3,152.75,0.25,95,80.0
935,B-1,153.0,1.0,95,80.0
936,A4,153.0,0.75,95,80.0
937,F4,153.0,0.75,95,80.0
938,C4,153.0,0.75,95,80.0
939,B-3,153.0,0.75,95,80.0
940,A4,153.75,0.25,95,80.0
941,F4,153.75,0.25,95,80.0
942,C4,153.75,0.25,95,80.0
943,B-3,153.75,0.25,95,80.0
944,C2,154.0,1.0,95,80.0
945,A4,154.0,0.25,95,80.0
946,F4,154.0,0.25,95,80.0
947,C4,154.0,0.25,95,80.0
948,A4,154.25,0.25,95,80.0
949,F4,154.25,0.25,95,80.0
950,C4,154.25,0.25,95,80.0
951,A4,154.5,0.25,95,80.0
952,F4,154.5,0.25,95,80.0
953,C4,154.5,0.25,95,80.0
954,A4,154.75,0.25,95,80.0
955,F4,154.75,0.25,95,80.0
956,C4,154.75,0.25,95,80.0
957,C2,155.0,1.0,95,80.0
958,A4,155.0,0.5,95,80.0
959,F4,155.0,0.5,95,80.0
960,C4,155.0,0.5,95,80.0
961,A4,155.5,0.25,95,80.0
962,F4,155.5,0.25,95,80.0
963,C4,155.5,0.25,95,80.0
964,A4,155.75,0.25,95,80.0
965,F4,155.75,0.25,95,80.0
966,C4,155.75,0.25,95,80.0
967,F1,156.0,1.0,95,80.0
968,A4,156.0,0.5,95,80.0
969,F4,156.0,0.5,95,80.0
970,C4,156.0,0.5,95,80.0
971,A4,156.5,0.25,95,80.0
972,F4,156.5,0.25,95,80.0
973,C4,156.5,0.25,95,80.0
974,A4,156.75,0.25,95,80.0
975,F4,156.75,0.25,95,80.0
976,C4,156.75,0.25,95,80.0
977,F1,157.0,1.25,95,80.0
978,A4,157.0,0.25,95,80.0
979,F4,157.0,0.25,95,80.0
980,C4,157.0,0.25,95,80.0
981,A4,157.25,0.25,95,80.0
982,F4,157.25,0.25,95,80.0
983,C4,157.25,0.25,95,80.0
984,A4,157.5,0.25,95,80.0
985,F4,157.5,0.25,95,80.0
986,C4,157.5,0.25,95,80.0
987,A4,157.75,0.5,95,80.0
988,F4,157.75,0.5,95,80.0
989,C4,157.75,0.5,95,80.0
990,D2,158.25,0.75,95,80.0
991,A4,158.25,0.25,95,80.0
992,F4,158.25,0.25,95,80.0
993,C4,158.25,0.25,95,80.0
994,A4,158.5,0.5,95,80.0
995,F4,158.5,0.5,95,80.0
996,C4,158.5,0.5,95,80.0
997,D2,159.0,1.0,95,80.0
998,A4,159.0,0.5,95,80.0
999,F4,159.0,0.5,95,80.0
1000,C4,159.0,0.5,95,80.0
1001,A4,159.5,0.25,95,80.0
1002,F4,159.5,0.25,95,80.0
1003,C4,159.5,0.25,95,80.0
1004,A4,159.75,0.25,95,80.0
1005,F4,159.75,0.25,95,80.0
1006,C4,159.75,0.25,95,80.0
1007,B-1,160.0,1.0,95,80.0
1008,A4,160.0,0.5,95,80.0
1009,F4,160.0,0.5,95,80.0
1010,C4,160.0,0.5,95,80.0
1011,B-3,160.0,0.5,95,80.0
1012,A4,160.5,0.25,95,80.0
1013,F4,160.5,0.25,95,80.0
1014,C4,160.5,0.25,95,80.0
1015,B-3,160.5,0.25,95,80.0
1016,A4,160.75,0.25,95,80.0
1017,F4,160.75,0.25,95,80.0
1018,C4,160.75,0.25,95,80.0
1019,B-3,160.75,0.25,95,80.0
1020,B-1,161.0,1.25,95,80.0
1021,A4,161.0,0.75,95,80.0
1022,F4,161.0,0.75,95,80.0
1023,C4,161.0,0.75,95,80.0
1024,B-3,161.0,0.75,95,80.0
1025,A4,161.75,0.25,95,80.0
1026,F4,161.75,0.25,95,80.0
1027,C4,161.75,0.25,95,80.0
1028,B-3,161.75,0.25,95,80.0
1029,A4,162.0,0.25,95,80.0
1030,F4,162.0,0.25,95,80.0
1031,C4,162.0,0.25,95,80.0
1032,G2,162.25,0.75,95,80.0
1033,A4,162.25,0.25,95,80.0
1034,F4,162.25,0.25,95,80.0
1035,C4,162.25,0.25,95,80.0
1036,A4,162.5,0.25,95,80.0
1037,F4,162.5,0.25,95,80.0
1038,C4,162.5,0.25,95,80.0
1039,A4,162.75,0.25,95,80.0
1040,F4,162.75,0.25,95,80.0
1041,C4,162.75,0.25,95,80.0
1042,G2,163.0,1.0,95,80.0
1043,A4,163.0,0.5,95,80.0
1044,F4,163.0,0.5,95,80.0
1045,C4,163.0,0.5,95,80.0
1046,A4,163.5,0.25,95,80.0
1047,F4,163.5,0.25,95,80.0
1048,C4,163.5,0.25,95,80.0
1049,A4,163.75,0.25,95,80.0
1050,F4,163.75,0.25,95,80.0
1051,C4,163.75,0.25,95,80.0
1052,D2,164.0,2.0,95,80.0
1053,C2,166.0,2.0,95,80.0
1054,D3,167.0,0.5,95,80.0
1055,A3,167.5,0.5,95,80.0
1056,D4,168.0,0.5,95,80.0
1057,G1,168.0,4.0,95,80.0
1058,F4,168.5,0.5,95,80.0
1059,F4,169.0,0.5,95,80.0
1060,C3,169.0,0.5,95,80.0
1061,G3,169.5,0.5,95,80.0
1062,A3,170.0,1.0,95,80.0
1063,G2,171.0,0.5,95,80.0
1064,D3,171.5,0.25,95,80.0
1065,A3,171.75,0.25,95,80.0
1066,B-3,172.0,0.25,95,80.0
1067,B-1,172.0,2.0,95,80.0
1068,D4,172.25,0.25,95,80.0
1069,G4,172.5,1.0,95,80.0
1070,D4,173.5,0.5,95,80.0
1071,B-3,174.0,0.5,95,80.0
1072,C2,174.0,2.0,95,80.0
1073,A3,174.5,0.5,95,80.0
1074,B-2,175.0,0.5,95,80.0
1075,F3,175.5,0.5,95,80.0
1076,G3,176.0,0.5,95,80.0
1077,D2,176.0,1.0,95,80.0
1078,C4,176.5,0.5,95,80.0
1079,D2,177.0,0.5,95,80.0
1080,D4,177.0,0.5,95,80.0
1081,C3,177.0,0.5,95,80.0
1082,G3,177.5,0.25,95,80.0
1083,A1,177.5,0.5,95,80.0
1084,G3,177.75,0.25,95,80.0
1085,E4,178.0,0.5,95,80.0
1086,A1,178.0,2.0,95,80.0
1087,D4,178.5,0.5,95,80.0
1088,D3,179.0,0.5,95,80.0
1089,A3,179.5,0.5,95,80.0
1090,D2,180.0,2.0,95,80.0
1091,F4,180.0,0.5,95,80.0
1092,D4,180.0,0.5,95,80.0
1093,E4,180.5,1.0,95,80.0
1094,D4,180.5,1.0,95,80.0
1095,C4,180.5,1.0,95,80.0
1096,G3,180.5,1.0,95,80.0
1097,A2,181.5,0.25,95,80.0
1098,G3,181.75,0.25,95,80.0
1099,E4,182.0,0.25,95,80.0
1100,C2,182.0,2.0,95,80.0
1101,D4,182.25,0.25,95,80.0
1102,C4,182.5,0.5,95,80.0
1103,D3,183.0,0.5,95,80.0
1104,A3,183.5,0.5,95,80.0
1105,D4,184.0,0.5,95,80.0
1106,G1,184.0,4.0,95,80.0
1107,F4,184.5,0.5,95,80.0
1108,F4,185.0,0.5,95,80.0
1109,C3,185.0,0.5,95,80.0
1110,G3,185.5,0.5,95,80.0
1111,A3,186.0,1.0,95,80.0
1112,G2,187.0,0.5,95,80.0
1113,D3,187.5,0.25,95,80.0
1114,A3,187.75,0.25,95,80.0
1115,B-3,188.0,0.25,95,80.0
1116,B-1,188.0,2.0,95,80.0
1117,D4,188.25,0.25,95,80.0
1118,G4,188.5,1.0,95,80.0
1119,D4,189.5,0.5,95,80.0
1120,B-3,190.0,0.5,95,80.0
1121,C2,190.0,2.0,95,80.0
1122,A3,190.5,0.5,95,80.0
1123,B-2,191.0,0.5,95,80.0
1124,F3,191.5,0.25,95,80.0
1125,G3,191.75,0.25,95,80.0
1126,G3,192.0,0.5,95,80.0
1127,A2,192.0,2.25,95,80.0
1128,C4,192.5,0.5,95,80.0
1129,D4,193.0,0.5,95,80.0
1130,C3,193.0,0.5,95,80.0
1131,G3,193.5,0.25,95,80.0
1132,G3,193.75,0.25,95,80.0
1133,E4,194.0,0.5,95,80.0
1134,A2,194.25,0.25,95,80.0
1135,D4,194.5,0.5,95,80.0
1136,E3,194.5,0.25,95,80.0
1137,F3,194.75,0.25,95,80.0
1138,A2,195.0,0.5,95,80.0
1139,E3,195.0,0.25,95,80.0
1140,A2,195.25,0.75,95,80.0
1141,A3,195.5,0.25,95,80.0
1142,C#4,195.75,0.25,95,80.0
1143,D2,196.0,2.0,95,80.0
1144,G4,196.0,0.5,95,80.0
1145,E4,196.0,0.5,95,80.0
1146,E4,196.5,1.0,95,80.0
1147,C#4,196.5,1.0,95,80.0
1148,A2,197.5,0.25,95,80.0
1149,A3,197.75,0.25,95,80.0
1150,E4,198.0,0.25,95,80.0
1151,B-1,198.0,1.0,95,80.0
1152,E4,198.25,0.25,95,80.0
1153,C#4,198.5,0.5,95,80.0
1154,B-1,199.0,1.0,95,80.0
1155,E4,199.5,0.5,95,80.0
1156,F4,200.0,0.5,95,80.0
1157,C2,200.0,1.5,95,80.0
1158,D4,200.5,1.0,95,80.0
1159,E4,201.5,0.5,95,80.0
1160,C2,201.5,0.5,95,80.0
1161,F4,202.0,1.0,95,80.0
1162,A1,202.0,1.0,95,80.0
1163,F4,203.0,0.5,95,80.0
1164,A2,203.0,0.25,95,80.0
1165,B-2,203.25,0.25,95,80.0
1166,E4,203.5,0.5,95,80.0
1167,A2,203.5,0.5,95,80.0
1168,F4,204.0,0.5,95,80.0
1169,D2,204.0,2.0,95,80.0
1170,G3,204.5,1.0,95,80.0
1171,E4,205.5,0.5,95,80.0
1172,F4,206.0,1.0,95,80.0
1173,B-1,206.0,2.0,95,80.0
1174,F4,207.0,1.0,95,80.0
1175,E4,208.0,0.5,95,80.0
1176,C2,208.0,1.0,95,80.0
1177,F4,208.5,0.5,95,80.0
1178,D4,209.0,1.0,95,80.0
1179,C2,209.0,1.0,95,80.0
1180,E4,210.0,0.5,95,80.0
1181,A1,210.0,1.0,95,80.0
1182,F4,210.5,0.5,95,80.0
1183,F4,211.0,0.5,95,80.0
1184,D3,211.0,0.25,95,80.0
1185,A2,211.25,0.5,95,80.0
1186,E4,211.5,0.5,95,80.0
1187,A1,211.75,0.25,95,80.0
1188,F4,212.0,0.5,95,80.0
1189,D2,212.0,1.0,95,80.0
1190,G3,212.5,1.0,95,80.0
1191,D2,213.0,1.0,95,80.0
1192,E4,213.5,0.5,95,80.0
1193,F4,214.0,1.0,95,80.0
1194,B-1,214.0,2.0,95,80.0
1195,F4,215.0,0.5,95,80.0
1196,E4,215.5,0.5,95,80.0
1197,F4,216.0,0.5,95,80.0
1198,C2,216.0,1.0,95,80.0
1199,D4,216.5,1.0,95,80.0
1200,C3,217.0,1.0,95,80.0
1201,E4,217.5,0.5,95,80.0
1202,F4,218.0,1.0,95,80.0
1203,A1,218.0,1.0,95,80.0
1204,F4,219.0,0.5,95,80.0
1205,A1,219.0,1.0,95,80.0
1206,E4,219.5,0.5,95,80.0
1207,F4,220.0,0.5,95,80.0
1208,B-3,220.0,0.5,95,80.0
1209,B-1,220.0,1.5,95,80.0
1210,G3,220.5,0.5,95,80.0
1211,C4,220.5,0.5,95,80.0
1212,G3,221.0,0.5,95,80.0
1213,F4,221.0,0.5,95,80.0
1214,E4,221.5,0.5,95,80.0
1215,B-3,221.5,1.0,95,80.0
1216,B-1,221.5,1.0,95,80.0
1217,F4,222.0,1.0,95,80.0
1218,C4,222.5,0.5,95,80.0
1219,B-1,222.5,0.5,95,80.0
1220,F4,223.0,1.0,95,80.0
1221,B-1,223.0,0.75,95,80.0
1222,B-1,223.75,0.25,95,80.0
1223,F4,224.0,0.5,95,80.0
1224,C3,224.0,0.5,95,80.0
1225,C4,224.5,0.5,95,80.0
1226,C2,224.5,0.5,95,80.0
1227,F4,225.0,0.5,95,80.0
1228,C2,225.0,3.0,95,80.0
1229,C4,225.5,1.0,95,80.0
1230,C4,226.5,0.5,95,80.0
1231,E4,227.0,0.5,95,80.0
1232,C4,227.5,0.5,95,80.0
1233,A3,228.0,0.5,95,80.0
1234,A1,228.0,1.0,95,80.0
1235,C4,228.5,0.5,95,80.0
1236,F4,229.0,0.5,95,80.0
1237,A1,229.0,1.0,95,80.0
1238,C4,229.5,1.0,95,80.0
1239,B-1,230.0,0.5,95,80.0
1240,C4,230.5,0.5,95,80.0
1241,B-2,230.5,0.5,95,80.0
1242,F4,231.0,0.5,95,80.0
1243,B-1,231.0,1.0,95,80.0
1244,F4,231.0,4.0,95,80.0
1245,C4,231.0,4.0,95,80.0
1246,A3,231.0,4.0,95,80.0
1247,C4,231.5,0.5,95,80.0
1248,C4,232.0,0.5,95,80.0
1249,C2,232.0,1.0,95,80.0
1250,C4,232.5,0.5,95,80.0
1251,F4,233.0,0.5,95,80.0
1252,C2,233.0,1.0,95,80.0
1253,C4,233.5,1.0,95,80.0
1254,C2,234.0,0.25,95,80.0
1255,D2,234.25,0.25,95,80.0
1256,C4,234.5,0.5,95,80.0
1257,C2,234.5,0.5,95,80.0
1258,E4,235.0,0.5,95,80.0
1259,C2,235.0,0.25,95,80.0
1260,D2,235.25,0.75,95,80.0
1261,F4,235.5,0.5,95,80.0
1262,A3,236.0,0.5,95,80.0
1263,A1,236.0,1.0,95,80.0
1264,C4,236.5,0.5,95,80.0
1265,F4,237.0,0.5,95,80.0
1266,A1,237.0,1.0,95,80.0
1267,C4,237.5,1.0,95,80.0
1268,B-1,238.0,1.0,95,80.0
1269,F4,238.0,3.0,95,80.0
1270,C4,238.0,3.0,95,80.0
1271,A3,238.0,3.0,95,80.0
1272,C4,238.5,0.5,95,80.0
1273,F4,239.0,0.5,95,80.0
1274,B-1,239.0,1.0,95,80.0
1275,C4,239.5,0.5,95,80.0
1276,C4,240.0,0.5,95,80.0
1277,C2,240.0,1.0,95,80.0
1278,C4,240.5,0.5,95,80.0
1279,F4,241.0,0.5,95,80.0
1280,C2,241.0,0.5,95,80.0
1281,E4,241.0,0.5,95,80.0
1282,C4,241.0,0.5,95,80.0
1283,A3,241.0,0.5,95,80.0
1284,C4,241.5,1.0,95,80.0
1285,C3,241.5,0.5,95,80.0
1286,F4,241.5,0.5,95,80.0
1287,C4,241.5,0.5,95,80.0
1288,A3,241.5,0.5,95,80.0
1289,D3,242.0,1.0,95,80.0
1290,F4,242.0,4.0,95,80.0
1291,C4,242.0,4.0,95,80.0
1292,A3,242.0,4.0,95,80.0
1293,C4,242.5,0.5,95,80.0
1294,E4,243.0,0.5,95,80.0
1295,D2,243.0,1.0,95,80.0
1296,F4,243.5,0.5,95,80.0
1297,A3,244.0,0.5,95,80.0
1298,A1,244.0,2.0,95,80.0
1299,C4,244.5,0.5,95,80.0
1300,F4,245.0,0.5,95,80.0
1301,C4,245.5,1.0,95,80.0
1302,B-1,246.0,1.0,95,80.0
1303,F4,246.0,1.0,95,80.0
1304,C4,246.0,1.0,95,80.0
1305,A3,246.0,1.0,95,80.0
1306,C4,246.5,0.5,95,80.0
1307,F4,247.0,0.5,95,80.0
1308,B-1,247.0,0.5,95,80.0
1309,F4,247.0,1.0,95,80.0
1310,C4,247.0,1.0,95,80.0
1311,A3,247.0,1.0,95,80.0
1312,C4,247.5,0.5,95,80.0
1313,D2,247.5,0.5,95,80.0
1314,C4,248.0,0.5,95,80.0
1315,C2,248.0,1.0,95,80.0
1316,F4,248.0,0.5,95,80.0
1317,C4,248.0,0.5,95,80.0
1318,A3,248.0,0.5,95,80.0
1319,C4,248.5,0.5,95,80.0
1320,C4,248.5,0.5,95,80.0
1321,E4,249.0,0.5,95,80.0
1322,F4,249.0,0.5,95,80.0
1323,C2,249.0,1.0,95,80.0
1324,F4,249.5,0.5,95,80.0
1325,C4,249.5,0.5,95,80.0
1326,F4,250.0,0.5,95,80.0
1327,E4,250.0,0.5,95,80.0
1328,A1,250.0,1.0,95,80.0
1329,C4,250.5,0.5,95,80.0
1330,C#4,250.5,0.5,95,80.0
1331,F4,251.0,1.0,95,80.0
1332,A3,251.0,0.5,95,80.0
1333,A1,251.0,1.0,95,80.0
1334,E4,251.5,0.5,95,80.0
1335,F4,252.0,0.5,95,80.0
1336,D4,252.0,0.5,95,80.0
1337,D2,252.0,1.0,95,80.0
1338,C4,252.5,0.5,95,80.0
1339,E4,252.5,0.5,95,80.0
1340,F4,253.0,1.0,95,80.0
1341,F4,253.0,0.5,95,80.0
1342,D2,253.0,1.0,95,80.0
1343,D4,253.5,0.5,95,80.0
1344,F4,254.0,0.5,95,80.0
1345,C4,254.0,0.5,95,80.0
1346,C2,254.0,1.0,95,80.0
1347,C4,254.5,0.5,95,80.0
1348,E4,254.5,0.5,95,80.0
1349,F4,255.0,1.0,95,80.0
1350,E4,255.0,1.0,95,80.0
1351,C2,255.0,1.0,95,80.0
1352,E4,256.0,0.5,95,80.0
1353,B1,256.0,1.0,95,80.0
1354,C#4,256.5,0.5,95,80.0
1355,D5,256.5,0.5,95,80.0
1356,A3,257.0,0.5,95,80.0
1357,G4,257.0,0.5,95,80.0
1358,B1,257.0,2.0,95,80.0
1359,E4,257.5,0.5,95,80.0
1360,D5,257.5,1.0,95,80.0
1361,E4,258.5,0.5,95,80.0
1362,D4,258.5,0.5,95,80.0
1363,F4,259.0,1.0,95,80.0
1364,G4,259.0,0.5,95,80.0
1365,B1,259.0,1.0,95,80.0
1366,D4,259.5,0.5,95,80.0
1367,F4,260.0,0.5,95,80.0
1368,A1,260.0,1.0,95,80.0
1369,E4,260.5,0.5,95,80.0
1370,C5,260.5,0.5,95,80.0
1371,F4,261.0,1.0,95,80.0
1372,F4,261.0,0.5,95,80.0
1373,A1,261.0,1.0,95,80.0
1374,C5,261.5,1.0,95,80.0
1375,C2,262.0,1.0,95,80.0
1376,D5,262.5,0.5,95,80.0
1377,C4,262.5,0.5,95,80.0
1378,G4,263.0,0.5,95,80.0
1379,F4,263.0,0.5,95,80.0
1380,C2,263.0,1.0,95,80.0
1381,D5,263.5,1.0,95,80.0
1382,C4,263.5,0.5,95,80.0
1383,D1,264.0,2.0,95,80.0
1384,E4,264.0,1.0,95,80.0
1385,F4,264.0,1.0,95,80.0
1386,D4,264.0,1.0,95,80.0
1387,A3,264.0,1.0,95,80.0
1388,D3,264.0,1.0,95,80.0
1389,D4,264.5,0.5,95,80.0
1390,G4,265.0,1.0,95,80.0
1391,E4,265.0,0.5,95,80.0
1392,F4,265.0,0.5,95,80.0
1393,D4,265.0,0.5,95,80.0
1394,A3,265.0,0.5,95,80.0
1395,D3,265.0,0.5,95,80.0
1396,E4,265.5,0.25,95,80.0
1397,F4,265.5,0.25,95,80.0
1398,D4,265.5,0.25,95,80.0
1399,A3,265.5,0.25,95,80.0
1400,D3,265.5,0.25,95,80.0
1401,E4,265.75,21/500,95,80.0
1402,B3,265.75,21/500,95,80.0
1403,G3,265.75,21/500,95,80.0
1404,D3,265.75,21/500,95,80.0
1405,A2,265.75,21/500,95,80.0
1406,B-3,266.0,0.5,95,80.0
1407,C2,266.0,2.0,95,80.0
1408,E4,266.0,1.0,95,80.0
1409,F4,266.0,1.0,95,80.0
1410,D4,266.0,1.0,95,80.0
1411,D3,266.0,1.0,95,80.0
1412,A2,266.0,1.0,95,80.0
1413,C3,266.0,1.0,95,80.0
1414,C4,266.5,0.5,95,80.0
1415,F4,267.0,1.0,95,80.0
1416,E4,267.0,0.5,95,80.0
1417,F4,267.0,0.5,95,80.0
1418,D4,267.0,0.5,95,80.0
1419,D3,267.0,0.5,95,80.0
1420,A2,267.0,0.5,95,80.0
1421,C3,267.0,0.5,95,80.0
1422,E4,267.5,0.25,95,80.0
1423,F4,267.5,0.25,95,80.0
1424,D4,267.5,0.25,95,80.0
1425,D3,267.5,0.25,95,80.0
1426,A2,267.5,0.25,95,80.0
1427,C3,267.5,0.25,95,80.0
1428,E4,267.75,21/500,95,80.0
1429,B3,267.75,21/500,95,80.0
1430,G3,267.75,21/500,95,80.0
1431,D3,267.75,21/500,95,80.0
1432,A2,267.75,21/500,95,80.0
1433,E2,267.75,21/500,95,80.0
1434,F4,268.0,0.5,95,80.0
1435,G1,268.0,4.0,95,80.0
1436,G4,268.0,1.0,95,80.0
1437,D4,268.0,1.0,95,80.0
1438,B-3,268.0,1.0,95,80.0
1439,G3,268.0,1.0,95,80.0
1440,A2,268.0,1.0,95,80.0
1441,G2,268.0,1.0,95,80.0
1442,C4,268.5,0.5,95,80.0
1443,F4,269.0,1.0,95,80.0
1444,G4,269.0,0.25,95,80.0
1445,D4,269.0,0.25,95,80.0
1446,B-3,269.0,0.25,95,80.0
1447,G3,269.0,0.25,95,80.0
1448,A2,269.0,0.25,95,80.0
1449,G2,269.0,0.25,95,80.0
1450,G4,269.25,0.25,95,80.0
1451,D4,269.25,0.25,95,80.0
1452,B-3,269.25,0.25,95,80.0
1453,G3,269.25,0.25,95,80.0
1454,A2,269.25,0.25,95,80.0
1455,G2,269.25,0.25,95,80.0
1456,G4,269.5,0.5,95,80.0
1457,D4,269.5,0.5,95,80.0
1458,B-3,269.5,0.5,95,80.0
1459,G3,269.5,0.5,95,80.0
1460,A2,269.5,0.5,95,80.0
1461,G2,269.5,0.5,95,80.0
1462,G4,270.0,0.25,95,80.0
1463,D4,270.0,0.25,95,80.0
1464,B-3,270.0,0.25,95,80.0
1465,G3,270.0,0.25,95,80.0
1466,A2,270.0,0.25,95,80.0
1467,G2,270.0,0.25,95,80.0
1468,G4,270.25,0.25,95,80.0
1469,D4,270.25,0.25,95,80.0
1470,B-3,270.25,0.25,95,80.0
1471,G3,270.25,0.25,95,80.0
1472,A2,270.25,0.25,95,80.0
1473,G2,270.25,0.25,95,80.0
1474,G4,270.5,0.25,95,80.0
1475,D4,270.5,0.25,95,80.0
1476,B-3,270.5,0.25,95,80.0
1477,G3,270.5,0.25,95,80.0
1478,A2,270.5,0.25,95,80.0
1479,G2,270.5,0.25,95,80.0
1480,G4,270.75,0.25,95,80.0
1481,D4,270.75,0.25,95,80.0
1482,B-3,270.75,0.25,95,80.0
1483,G3,270.75,0.25,95,80.0
1484,A2,270.75,0.25,95,80.0
1485,G2,270.75,0.25,95,80.0
1486,G4,271.0,0.5,95,80.0
1487,D4,271.0,0.5,95,80.0
1488,B-3,271.0,0.5,95,80.0
1489,G3,271.0,0.5,95,80.0
1490,A2,271.0,0.5,95,80.0
1491,G2,271.0,0.5,95,80.0
1492,A3,271.25,0.25,95,80.0
1493,E4,271.5,0.25,95,80.0
1494,E4,271.5,21/500,95,80.0
1495,B3,271.5,21/500,95,80.0
1496,G3,271.5,21/500,95,80.0
1497,D3,271.5,21/500,95,80.0
1498,A2,271.5,21/500,95,80.0
1499,E2,271.5,21/500,95,80.0
1500,D4,271.75,0.25,70,80.0
1501,F4,272.0,1.0,95,80.0
1502,B-1,272.0,2.0,95,80.0
1503,G4,272.0,0.5,95,80.0
1504,E4,272.0,0.5,95,80.0
1505,B-3,272.0,0.5,95,80.0
1506,F3,272.0,0.5,95,80.0
1507,D3,272.0,0.5,95,80.0
1508,B-2,272.0,0.5,95,80.0
1509,G4,272.5,0.25,95,80.0
1510,E4,272.5,0.25,95,80.0
1511,B-3,272.5,0.25,95,80.0
1512,F3,272.5,0.25,95,80.0
1513,D3,272.5,0.25,95,80.0
1514,B-2,272.5,0.25,95,80.0
1515,G4,272.75,0.25,95,80.0
1516,E4,272.75,0.25,95,80.0
1517,B-3,272.75,0.25,95,80.0
1518,F3,272.75,0.25,95,80.0
1519,D3,272.75,0.25,95,80.0
1520,B-2,272.75,0.25,95,80.0
1521,G4,273.0,0.5,95,80.0
1522,E4,273.0,0.5,95,80.0
1523,B-3,273.0,0.5,95,80.0
1524,F3,273.0,0.5,95,80.0
1525,D3,273.0,0.5,95,80.0
1526,B-2,273.0,0.5,95,80.0
1527,G4,273.375,0.125,95,80.0
1528,A4,273.5,0.5,95,80.0
1529,E4,273.5,21/500,95,80.0
1530,B3,273.5,21/500,95,80.0
1531,G3,273.5,21/500,95,80.0
1532,D3,273.5,21/500,95,80.0
1533,A2,273.5,21/500,95,80.0
1534,E2,273.5,21/500,95,80.0
1535,E4,273.75,21/500,95,80.0
1536,B3,273.75,21/500,95,80.0
1537,G3,273.75,21/500,95,80.0
1538,D3,273.75,21/500,95,80.0
1539,A2,273.75,21/500,95,80.0
1540,E2,273.75,21/500,95,80.0
1541,A4,274.0,0.5,95,80.0
1542,A1,274.0,1.0,95,80.0
1543,G4,274.0,0.5,95,80.0
1544,C#4,274.0,0.5,95,80.0
1545,A3,274.0,0.5,95,80.0
1546,E3,274.0,0.5,95,80.0
1547,A2,274.0,0.5,95,80.0
1548,B-4,274.5,0.25,70,80.0
1549,G4,274.5,0.25,95,80.0
1550,C#4,274.5,0.25,95,80.0
1551,A3,274.5,0.25,95,80.0
1552,E3,274.5,0.25,95,80.0
1553,A2,274.5,0.25,95,80.0
1554,B-4,274.75,1.75,95,80.0
1555,G4,274.75,0.25,95,80.0
1556,C#4,274.75,0.25,95,80.0
1557,A3,274.75,0.25,95,80.0
1558,E3,274.75,0.25,95,80.0
1559,A2,274.75,0.25,95,80.0
1560,A1,275.0,1.0,95,80.0
1561,G4,275.0,0.5,95,80.0
1562,C#4,275.0,0.5,95,80.0
1563,A3,275.0,0.5,95,80.0
1564,E3,275.0,0.5,95,80.0
1565,A2,275.0,0.5,95,80.0
1566,E4,275.5,21/500,95,80.0
1567,B3,275.5,21/500,95,80.0
1568,G3,275.5,21/500,95,80.0
1569,D3,275.5,21/500,95,80.0
1570,A2,275.5,21/500,95,80.0
1571,E4,275.75,21/500,95,80.0
1572,B3,275.75,21/500,95,80.0
1573,G3,275.75,21/500,95,80.0
1574,D3,275.75,21/500,95,80.0
1575,A2,275.75,21/500,95,80.0
1576,D2,276.0,1.0,95,80.0
1577,E4,276.0,0.5,95,80.0
1578,F4,276.0,0.5,95,80.0
1579,D4,276.0,0.5,95,80.0
1580,A3,276.0,0.5,95,80.0
1581,D3,276.0,0.5,95,80.0
1582,F4,276.5,0.25,95,80.0
1583,E4,276.5,0.25,95,80.0
1584,F4,276.5,0.25,95,80.0
1585,D4,276.5,0.25,95,80.0
1586,A3,276.5,0.25,95,80.0
1587,D3,276.5,0.25,95,80.0
1588,G4,276.75,0.125,95,80.0
1589,E4,276.75,0.25,95,80.0
1590,F4,276.75,0.25,95,80.0
1591,D4,276.75,0.25,95,80.0
1592,A3,276.75,0.25,95,80.0
1593,D3,276.75,0.25,95,80.0
1594,F4,276.875,0.125,70,80.0
1595,E4,277.0,0.5,95,80.0
1596,D2,277.0,0.75,95,80.0
1597,E4,277.0,0.5,95,80.0
1598,F4,277.0,0.5,95,80.0
1599,D4,277.0,0.5,95,80.0
1600,A3,277.0,0.5,95,80.0
1601,D3,277.0,0.5,95,80.0
1602,F4,277.5,0.25,95,80.0
1603,E4,277.5,21/500,95,80.0
1604,B3,277.5,21/500,95,80.0
1605,G3,277.5,21/500,95,80.0
1606,D3,277.5,21/500,95,80.0
1607,A2,277.5,21/500,95,80.0
1608,G4,277.75,0.25,95,80.0
1609,A1,277.75,1.25,95,80.0
1610,A4,277.75,0.25,95,80.0
1611,E4,277.75,0.25,95,80.0
1612,C4,277.75,0.25,95,80.0
1613,G3,277.75,0.25,95,80.0
1614,E3,277.75,0.25,95,80.0
1615,A2,277.75,0.25,95,80.0
1616,G4,278.0,1.0,95,80.0
1617,A4,278.0,0.25,95,80.0
1618,E4,278.0,0.25,95,80.0
1619,C4,278.0,0.25,95,80.0
1620,G3,278.0,0.25,95,80.0
1621,E3,278.0,0.25,95,80.0
1622,A2,278.0,0.25,95,80.0
1623,A4,278.25,0.25,95,80.0
1624,E4,278.25,0.25,95,80.0
1625,C4,278.25,0.25,95,80.0
1626,G3,278.25,0.25,95,80.0
1627,E3,278.25,0.25,95,80.0
1628,A2,278.25,0.25,95,80.0
1629,A4,278.5,0.25,95,80.0
1630,E4,278.5,0.25,95,80.0
1631,C4,278.5,0.25,95,80.0
1632,G3,278.5,0.25,95,80.0
1633,E3,278.5,0.25,95,80.0
1634,A2,278.5,0.25,95,80.0
1635,A4,278.75,0.25,95,80.0
1636,E4,278.75,0.25,95,80.0
1637,C4,278.75,0.25,95,80.0
1638,G3,278.75,0.25,95,80.0
1639,E3,278.75,0.25,95,80.0
1640,A2,278.75,0.25,95,80.0
1641,A1,279.0,1.0,95,80.0
1642,A4,279.0,0.5,95,80.0
1643,E4,279.0,0.5,95,80.0
1644,C4,279.0,0.5,95,80.0
1645,G3,279.0,0.5,95,80.0
1646,E3,279.0,0.5,95,80.0
1647,A2,279.0,0.5,95,80.0
1648,B-3,279.25,0.25,95,80.0
1649,D4,279.5,0.25,95,80.0
1650,A4,279.5,0.5,95,80.0
1651,E4,279.5,0.5,95,80.0
1652,C4,279.5,0.5,95,80.0
1653,G3,279.5,0.5,95,80.0
1654,E3,279.5,0.5,95,80.0
1655,A2,279.5,0.5,95,80.0
1656,C#4,279.75,0.25,70,80.0
1657,D4,280.0,0.25,95,80.0
1658,D2,280.0,2.0,95,80.0
1659,E4,280.0,1.0,95,80.0
1660,F4,280.0,1.0,95,80.0
1661,D4,280.0,1.0,95,80.0
1662,A3,280.0,1.0,95,80.0
1663,D3,280.0,1.0,95,80.0
1664,E4,280.25,1.5,95,80.0
1665,E4,281.0,0.5,95,80.0
1666,F4,281.0,0.5,95,80.0
1667,D4,281.0,0.5,95,80.0
1668,A3,281.0,0.5,95,80.0
1669,D3,281.0,0.5,95,80.0
1670,E4,281.5,0.25,95,80.0
1671,F4,281.5,0.25,95,80.0
1672,D4,281.5,0.25,95,80.0
1673,A3,281.5,0.25,95,80.0
1674,D3,281.5,0.25,95,80.0
1675,G4,281.75,0.25,95,80.0
1676,E4,281.75,21/500,95,80.0
1677,B3,281.75,21/500,95,80.0
1678,G3,281.75,21/500,95,80.0
1679,D3,281.75,21/500,95,80.0
1680,A2,281.75,21/500,95,80.0
1681,G4,282.0,0.5,95,80.0
1682,C2,282.0,2.0,95,80.0
1683,E4,282.0,1.0,95,80.0
1684,F4,282.0,1.0,95,80.0
1685,D4,282.0,1.0,95,80.0
1686,D3,282.0,1.0,95,80.0
1687,A2,282.0,1.0,95,80.0
1688,C3,282.0,1.0,95,80.0
1689,A4,282.5,0.25,95,80.0
1690,A4,282.75,1.0,95,80.0
1691,E4,283.0,0.5,95,80.0
1692,F4,283.0,0.5,95,80.0
1693,D4,283.0,0.5,95,80.0
1694,D3,283.0,0.5,95,80.0
1695,A2,283.0,0.5,95,80.0
1696,C3,283.0,0.5,95,80.0
1697,E4,283.5,0.25,95,80.0
1698,F4,283.5,0.25,95,80.0
1699,D4,283.5,0.25,95,80.0
1700,D3,283.5,0.25,95,80.0
1701,A2,283.5,0.25,95,80.0
1702,C3,283.5,0.25,95,80.0
1703,A4,283.75,0.25,95,80.0
1704,E4,283.75,21/500,95,80.0
1705,B3,283.75,21/500,95,80.0
1706,G3,283.75,21/500,95,80.0
1707,D3,283.75,21/500,95,80.0
1708,A2,283.75,21/500,95,80.0
1709,E2,283.75,21/500,95,80.0
1710,F5,284.0,0.75,95,80.0
1711,G1,284.0,2.0,95,80.0
1712,G4,284.0,1.0,95,80.0
1713,D4,284.0,1.0,95,80.0
1714,B-3,284.0,1.0,95,80.0
1715,G3,284.0,1.0,95,80.0
1716,A2,284.0,1.0,95,80.0
1717,G2,284.0,1.0,95,80.0
1718,E5,284.75,0.25,95,80.0
1719,E5,284.875,0.125,95,80.0
1720,D5,285.0,0.5,95,80.0
1721,G4,285.0,0.25,95,80.0
1722,D4,285.0,0.25,95,80.0
1723,B-3,285.0,0.25,95,80.0
1724,G3,285.0,0.25,95,80.0
1725,A2,285.0,0.25,95,80.0
1726,G2,285.0,0.25,95,80.0
1727,G4,285.25,0.25,95,80.0
1728,D4,285.25,0.25,95,80.0
1729,B-3,285.25,0.25,95,80.0
1730,G3,285.25,0.25,95,80.0
1731,A2,285.25,0.25,95,80.0
1732,G2,285.25,0.25,95,80.0
1733,G4,285.5,0.25,95,80.0
1734,G4,285.5,0.5,95,80.0
1735,D4,285.5,0.5,95,80.0
1736,B-3,285.5,0.5,95,80.0
1737,G3,285.5,0.5,95,80.0
1738,A2,285.5,0.5,95,80.0
1739,G2,285.5,0.5,95,80.0
1740,A4,285.75,0.25,95,80.0
1741,A4,286.0,1.0,95,80.0
1742,G1,286.0,1.0,95,80.0
1743,G4,286.0,0.25,95,80.0
1744,D4,286.0,0.25,95,80.0
1745,B-3,286.0,0.25,95,80.0
1746,G3,286.0,0.25,95,80.0
1747,A2,286.0,0.25,95,80.0
1748,G2,286.0,0.25,95,80.0
1749,G4,286.25,0.25,95,80.0
1750,D4,286.25,0.25,95,80.0
1751,B-3,286.25,0.25,95,80.0
1752,G3,286.25,0.25,95,80.0
1753,A2,286.25,0.25,95,80.0
1754,G2,286.25,0.25,95,80.0
1755,G4,286.5,0.25,95,80.0
1756,D4,286.5,0.25,95,80.0
1757,B-3,286.5,0.25,95,80.0
1758,G3,286.5,0.25,95,80.0
1759,A2,286.5,0.25,95,80.0
1760,G2,286.5,0.25,95,80.0
1761,G4,286.75,0.25,95,80.0
1762,D4,286.75,0.25,95,80.0
1763,B-3,286.75,0.25,95,80.0
1764,G3,286.75,0.25,95,80.0
1765,A2,286.75,0.25,95,80.0
1766,G2,286.75,0.25,95,80.0
1767,G1,287.0,1.0,95,80.0
1768,G4,287.0,0.5,95,80.0
1769,D4,287.0,0.5,95,80.0
1770,B-3,287.0,0.5,95,80.0
1771,G3,287.0,0.5,95,80.0
1772,A2,287.0,0.5,95,80.0
1773,G2,287.0,0.5,95,80.0
1774,A4,287.25,0.25,95,80.0
1775,E5,287.5,0.25,95,80.0
1776,E4,287.5,21/500,95,80.0
1777,B3,287.5,21/500,95,80.0
1778,G3,287.5,21/500,95,80.0
1779,D3,287.5,21/500,95,80.0
1780,A2,287.5,21/500,95,80.0
1781,E2,287.5,21/500,95,80.0
1782,D5,287.75,0.25,70,80.0
1783,E4,287.75,21/500,95,80.0
1784,B3,287.75,21/500,95,80.0
1785,G3,287.75,21/500,95,80.0
1786,D3,287.75,21/500,95,80.0
1787,A2,287.75,21/500,95,80.0
1788,E2,287.75,21/500,95,80.0
1789,A1,288.0,2.0,95,80.0
1790,G4,288.0,0.5,95,80.0
1791,E4,288.0,0.5,95,80.0
1792,B-3,288.0,0.5,95,80.0
1793,F3,288.0,0.5,95,80.0
1794,D3,288.0,0.5,95,80.0
1795,B-2,288.0,0.5,95,80.0
1796,F5,288.25,0.5,95,80.0
1797,D5,288.25,0.5,95,80.0
1798,G4,288.5,0.25,95,80.0
1799,E4,288.5,0.25,95,80.0
1800,B-3,288.5,0.25,95,80.0
1801,F3,288.5,0.25,95,80.0
1802,D3,288.5,0.25,95,80.0
1803,B-2,288.5,0.25,95,80.0
1804,F5,288.75,0.25,95,80.0
1805,D5,288.75,0.25,95,80.0
1806,G4,288.75,0.25,95,80.0
1807,E4,288.75,0.25,95,80.0
1808,B-3,288.75,0.25,95,80.0
1809,F3,288.75,0.25,95,80.0
1810,D3,288.75,0.25,95,80.0
1811,B-2,288.75,0.25,95,80.0
1812,F5,289.0,333/1000,95,80.0
1813,D5,289.0,333/1000,95,80.0
1814,G4,289.0,0.5,95,80.0
1815,E4,289.0,0.5,95,80.0
1816,B-3,289.0,0.5,95,80.0
1817,F3,289.0,0.5,95,80.0
1818,D3,289.0,0.5,95,80.0
1819,B-2,289.0,0.5,95,80.0
1820,E5,289.333,333/1000,95,80.0
1821,C5,289.333,333/1000,95,80.0
1822,E4,289.5,21/500,95,80.0
1823,B3,289.5,21/500,95,80.0
1824,G3,289.5,21/500,95,80.0
1825,D3,289.5,21/500,95,80.0
1826,A2,289.5,21/500,95,80.0
1827,E2,289.5,21/500,95,80.0
1828,D5,289.667,333/1000,95,80.0
1829,B-4,289.667,333/1000,95,80.0
1830,E4,289.75,21/500,95,80.0
1831,B3,289.75,21/500,95,80.0
1832,G3,289.75,21/500,95,80.0
1833,D3,289.75,21/500,95,80.0
1834,A2,289.75,21/500,95,80.0
1835,E2,289.75,21/500,95,80.0
1836,A1,290.0,2.0,95,80.0
1837,D5,290.0,0.25,95,80.0
1838,B-4,290.0,0.25,95,80.0
1839,G4,290.0,0.5,95,80.0
1840,C#4,290.0,0.5,95,80.0
1841,A3,290.0,0.5,95,80.0
1842,E3,290.0,0.5,95,80.0
1843,A2,290.0,0.5,95,80.0
1844,E5,290.25,0.5,95,80.0
1845,G4,290.5,0.25,95,80.0
1846,C#4,290.5,0.25,95,80.0
1847,A3,290.5,0.25,95,80.0
1848,E3,290.5,0.25,95,80.0
1849,A2,290.5,0.25,95,80.0
1850,G4,290.75,0.25,95,80.0
1851,C#4,290.75,0.25,95,80.0
1852,A3,290.75,0.25,95,80.0
1853,E3,290.75,0.25,95,80.0
1854,A2,290.75,0.25,95,80.0
1855,B-4,291.0,0.25,95,80.0
1856,G4,291.0,0.5,95,80.0
1857,C#4,291.0,0.5,95,80.0
1858,A3,291.0,0.5,95,80.0
1859,E3,291.0,0.5,95,80.0
1860,A2,291.0,0.5,95,80.0
1861,B-4,291.25,0.25,95,80.0
1862,C5,291.5,167/1000,70,80.0
1863,E4,291.5,21/500,95,80.0
1864,B3,291.5,21/500,95,80.0
1865,G3,291.5,21/500,95,80.0
1866,D3,291.5,21/500,95,80.0
1867,A2,291.5,21/500,95,80.0
1868,E2,291.5,21/500,95,80.0
1869,B-4,291.667,167/1000,70,80.0
1870,E4,291.75,21/500,95,80.0
1871,B3,291.75,21/500,95,80.0
1872,G3,291.75,21/500,95,80.0
1873,D3,291.75,21/500,95,80.0
1874,A2,291.75,21/500,95,80.0
1875,E2,291.75,21/500,95,80.0
1876,A4,291.833,417/1000,70,80.0
1877,D1,292.0,1.75,95,80.0
1878,E4,292.0,0.5,95,80.0
1879,F4,292.0,0.5,95,80.0
1880,D4,292.0,0.5,95,80.0
1881,A3,292.0,0.5,95,80.0
1882,D3,292.0,0.5,95,80.0
1883,B-4,292.25,0.75,95,80.0
1884,E4,292.5,0.25,95,80.0
1885,F4,292.5,0.25,95,80.0
1886,D4,292.5,0.25,95,80.0
1887,A3,292.5,0.25,95,80.0
1888,D3,292.5,0.25,95,80.0
1889,E4,292.75,0.25,95,80.0
1890,F4,292.75,0.25,95,80.0
1891,D4,292.75,0.25,95,80.0
1892,A3,292.75,0.25,95,80.0
1893,D3,292.75,0.25,95,80.0
1894,E4,293.0,0.5,95,80.0
1895,F4,293.0,0.5,95,80.0
1896,D4,293.0,0.5,95,80.0
1897,A3,293.0,0.5,95,80.0
1898,D3,293.0,0.5,95,80.0
1899,A4,293.25,0.25,95,80.0
1900,E4,293.5,21/500,95,80.0
1901,B3,293.5,21/500,95,80.0
1902,G3,293.5,21/500,95,80.0
1903,D3,293.5,21/500,95,80.0
1904,A2,293.5,21/500,95,80.0
1905,G4,293.75,0.125,95,80.0
1906,A1,293.75,1.25,95,80.0
1907,E4,293.75,0.25,95,80.0
1908,F4,293.75,0.25,95,80.0
1909,D4,293.75,0.25,95,80.0
1910,A3,293.75,0.25,95,80.0
1911,D3,293.75,0.25,95,80.0
1912,F4,293.875,0.125,70,80.0
1913,F4,294.0,0.25,70,80.0
1914,E4,294.0,0.25,95,80.0
1915,F4,294.0,0.25,95,80.0
1916,D4,294.0,0.25,95,80.0
1917,A3,294.0,0.25,95,80.0
1918,D3,294.0,0.25,95,80.0
1919,G4,294.25,1.0,95,80.0
1920,E4,294.25,0.25,95,80.0
1921,F4,294.25,0.25,95,80.0
1922,D4,294.25,0.25,95,80.0
1923,A3,294.25,0.25,95,80.0
1924,D3,294.25,0.25,95,80.0
1925,E4,294.5,0.25,95,80.0
1926,F4,294.5,0.25,95,80.0
1927,D4,294.5,0.25,95,80.0
1928,A3,294.5,0.25,95,80.0
1929,D3,294.5,0.25,95,80.0
1930,E4,294.75,0.25,95,80.0
1931,F4,294.75,0.25,95,80.0
1932,D4,294.75,0.25,95,80.0
1933,A3,294.75,0.25,95,80.0
1934,D3,294.75,0.25,95,80.0
1935,C2,295.0,1.0,95,80.0
1936,E4,295.0,0.5,95,80.0
1937,F4,295.0,0.5,95,80.0
1938,D4,295.0,0.5,95,80.0
1939,A3,295.0,0.5,95,80.0
1940,D3,295.0,0.5,95,80.0
1941,A4,295.25,0.25,95,80.0
1942,E4,295.5,0.25,95,80.0
1943,F4,295.5,0.25,95,80.0
1944,D4,295.5,0.25,95,80.0
1945,A3,295.5,0.25,95,80.0
1946,D3,295.5,0.25,95,80.0
1947,F4,295.75,0.125,95,80.0
1948,E4,295.75,0.25,95,80.0
1949,F4,295.75,0.25,95,80.0
1950,D4,295.75,0.25,95,80.0
1951,A3,295.75,0.25,95,80.0
1952,D3,295.75,0.25,95,80.0
1953,E4,295.875,0.375,70,80.0
1954,D2,296.0,2.0,95,80.0
1955,F4,296.25,1.0,95,80.0
1956,E4,297.25,0.25,95,80.0
1957,D4,297.75,0.125,95,80.0
1958,C#4,297.875,0.125,70,80.0
1959,D4,298.0,1.75,95,80.0
1960,B-1,298.0,1.0,95,80.0
1961,B-1,299.0,1.0,95,80.0
1962,D4,299.75,0.062,95,80.0
1963,F4,299.812,0.062,95,80.0
1964,A4,299.875,0.125,95,80.0
1965,B-4,300.0,333/1000,95,80.0
1966,C2,300.0,1.5,95,80.0
1967,C5,300.333,333/1000,95,80.0
1968,B-4,300.667,333/1000,95,80.0
1969,B-4,300.938,0.062,95,80.0
1970,A4,301.0,0.25,95,80.0
1971,G4,301.25,0.5,95,80.0
1972,C2,301.5,0.5,95,80.0
1973,F4,301.75,0.25,70,80.0
1974,A1,302.0,1.0,95,80.0
1975,E4,302.5,0.5,95,80.0
1976,F4,303.0,0.5,95,80.0
1977,A2,303.0,0.25,95,80.0
1978,B-2,303.25,0.25,95,80.0
1979,D4,303.5,1.0,95,80.0
1980,A2,303.5,0.5,95,80.0
1981,D2,304.0,2.0,95,80.0
1982,E4,304.5,0.5,95,80.0
1983,F4,305.0,1.0,95,80.0
1984,F4,306.0,0.5,95,80.0
1985,B-1,306.0,2.0,95,80.0
1986,E4,306.5,0.5,95,80.0
1987,F4,307.0,0.5,95,80.0
1988,G3,307.5,1.0,95,80.0
1989,C2,308.0,1.0,95,80.0
1990,E4,308.5,0.5,95,80.0
1991,F4,309.0,1.0,95,80.0
1992,C2,309.0,1.0,95,80.0
1993,F4,310.0,0.5,95,80.0
1994,A1,310.0,1.0,95,80.0
1995,E4,310.5,0.5,95,80.0
1996,F4,311.0,0.5,95,80.0
1997,D3,311.0,0.25,95,80.0
1998,A2,311.25,0.5,95,80.0
1999,D4,311.5,1.0,95,80.0
2000,A1,311.75,0.25,95,80.0
2001,D2,312.0,1.0,95,80.0
2002,E4,312.5,0.5,95,80.0
2003,F4,313.0,1.0,95,80.0
2004,D2,313.0,1.0,95,80.0
2005,F4,314.0,0.5,95,80.0
2006,B-1,314.0,2.0,95,80.0
2007,E4,314.5,0.5,95,80.0
2008,F4,315.0,0.5,95,80.0
2009,G3,315.5,1.0,95,80.0
2010,C2,316.0,1.0,95,80.0
2011,E4,316.5,0.5,95,80.0
2012,F4,317.0,1.0,95,80.0
2013,C3,317.0,1.0,95,80.0
2014,F4,318.0,0.5,95,80.0
2015,A1,318.0,1.0,95,80.0
2016,E4,318.5,0.5,95,80.0
2017,F4,319.0,0.5,95,80.0
2018,A1,319.0,1.0,95,80.0
2019,D4,319.5,1.0,95,80.0
2020,B-3,320.0,0.5,95,80.0
2021,B-1,320.0,1.5,95,80.0
2022,E4,320.5,0.5,95,80.0
2023,C4,320.5,0.5,95,80.0
2024,F4,321.0,1.0,95,80.0
2025,F4,321.0,0.5,95,80.0
2026,B-3,321.5,1.0,95,80.0
2027,B-1,321.5,1.5,95,80.0
2028,F4,322.0,0.5,95,80.0
2029,E4,322.5,0.5,95,80.0
2030,C4,322.5,0.5,95,80.0
2031,F4,323.0,0.5,95,80.0
2032,F4,323.0,1.0,95,80.0
2033,B-1,323.0,1.0,95,80.0
2034,G3,323.5,1.0,95,80.0
2035,F4,324.0,0.5,95,80.0
2036,C2,324.0,0.75,95,80.0
2037,E4,324.5,0.5,95,80.0
2038,C4,324.5,0.5,95,80.0
2039,C2,324.75,0.25,95,80.0
2040,F4,325.0,1.0,95,80.0
2041,F4,325.0,1.5,95,80.0
2042,C2,325.0,0.5,95,80.0
2043,C2,325.5,1.0,95,80.0
2044,B-3,326.0,0.5,95,80.0
2045,C4,326.5,0.5,95,80.0
2046,C4,326.5,0.5,95,80.0
2047,C2,326.5,0.25,95,80.0
2048,C2,326.75,0.25,95,80.0
2049,F4,327.0,0.5,95,80.0
2050,F4,327.0,1.0,95,80.0
2051,C2,327.0,1.0,95,80.0
2052,B-3,327.5,1.0,95,80.0
2053,B-2,327.875,0.125,95,80.0
2054,F4,328.0,0.5,95,80.0
2055,C3,328.0,1.5,95,80.0
2056,C4,328.5,0.5,95,80.0
2057,C4,328.5,0.5,95,80.0
2058,F4,329.0,1.0,95,80.0
2059,G4,329.0,0.5,95,80.0
2060,C4,329.5,1.0,95,80.0
2061,C2,329.5,0.5,95,80.0
2062,F4,330.0,0.5,95,80.0
2063,C2,330.0,1.0,95,80.0
2064,C4,330.5,0.5,95,80.0
2065,C4,330.5,0.5,95,80.0
2066,F4,331.0,1.5,95,80.0
2067,G4,331.0,0.5,95,80.0
2068,C2,331.0,1.0,95,80.0
2069,C4,331.5,0.5,95,80.0
2070,G1,332.0,1.0,95,80.0
2071,C4,332.5,0.5,95,80.0
2072,D4,332.5,0.5,95,80.0
2073,F4,333.0,1.0,95,80.0
2074,G4,333.0,1.5,95,80.0
2075,G1,333.0,1.0,95,80.0
2076,F4,334.0,0.5,95,80.0
2077,C2,334.0,1.0,95,80.0
2078,C4,334.5,0.5,95,80.0
2079,D4,334.5,0.5,95,80.0
2080,G4,335.0,0.5,95,80.0
2081,G4,335.0,1.0,95,80.0
2082,C2,335.0,1.0,95,80.0
2083,C4,335.5,1.0,95,80.0
2084,G4,336.0,0.5,95,80.0
2085,D2,336.0,1.0,95,80.0
2086,C4,336.5,0.5,95,80.0
2087,D4,336.5,0.5,95,80.0
2088,G4,337.0,0.5,95,80.0
2089,G4,337.0,1.0,95,80.0
2090,D2,337.0,1.0,95,80.0
2091,C4,337.5,0.5,95,80.0
2092,A2,338.0,21/500,95,80.0
2093,G4,338.0,0.5,95,80.0
2094,D3,338.0,0.25,95,80.0
2095,G3,338.0,2.0,95,80.0
2096,D3,338.0,2.0,95,80.0
2097,G2,338.0,2.0,95,80.0
2098,E3,338.25,0.25,95,80.0
2099,D4,338.5,0.5,95,80.0
2100,D3,338.5,0.5,95,80.0
2101,F#4,339.0,0.5,95,80.0
2102,C3,339.0,0.25,95,80.0
2103,D3,339.25,0.75,95,80.0
2104,G4,339.5,0.5,95,80.0
2105,G4,340.0,0.5,95,80.0
2106,B1,340.0,1.0,95,80.0
2107,G4,340.0,0.5,95,80.0
2108,D4,340.0,0.5,95,80.0
2109,G3,340.0,0.5,95,80.0
2110,D4,340.5,0.5,95,80.0
2111,G4,340.5,0.25,95,80.0
2112,D4,340.5,0.25,95,80.0
2113,G3,340.5,0.25,95,80.0
2114,G4,340.75,0.25,95,80.0
2115,D4,340.75,0.25,95,80.0
2116,G3,340.75,0.25,95,80.0
2117,G4,341.0,1.5,95,80.0
2118,B2,341.0,1.0,95,80.0
2119,G4,341.0,1.0,95,80.0
2120,D4,341.0,1.0,95,80.0
2121,G3,341.0,1.0,95,80.0
2122,C2,342.0,1.0,95,80.0
2123,G4,342.0,0.5,95,80.0
2124,D4,342.0,0.5,95,80.0
2125,A3,342.0,0.5,95,80.0
2126,D3,342.0,0.5,95,80.0
2127,D4,342.5,0.5,95,80.0
2128,G4,342.5,0.25,95,80.0
2129,D4,342.5,0.25,95,80.0
2130,A3,342.5,0.25,95,80.0
2131,G4,342.75,0.25,95,80.0
2132,D4,342.75,0.25,95,80.0
2133,A3,342.75,0.25,95,80.0
2134,G4,343.0,1.0,95,80.0
2135,C2,343.0,1.0,95,80.0
2136,G4,343.0,1.0,95,80.0
2137,D4,343.0,1.0,95,80.0
2138,A3,343.0,1.0,95,80.0
2139,D3,343.0,1.0,95,80.0
2140,G4,344.0,0.5,95,80.0
2141,D2,344.0,1.0,95,80.0
2142,G4,344.0,0.5,95,80.0
2143,D4,344.0,0.5,95,80.0
2144,A3,344.0,0.5,95,80.0
2145,D4,344.5,0.5,95,80.0
2146,G4,344.5,0.25,95,80.0
2147,D4,344.5,0.25,95,80.0
2148,A3,344.5,0.25,95,80.0
2149,G4,344.75,0.25,95,80.0
2150,D4,344.75,0.25,95,80.0
2151,A3,344.75,0.25,95,80.0
2152,G4,345.0,1.0,95,80.0
2153,D2,345.0,0.5,95,80.0
2154,F#4,345.0,0.5,95,80.0
2155,D4,345.0,0.5,95,80.0
2156,G3,345.0,0.5,95,80.0
2157,D3,345.5,0.5,95,80.0
2158,G4,345.5,0.5,95,80.0
2159,D4,345.5,0.5,95,80.0
2160,G3,345.5,0.5,95,80.0
2161,F#4,346.0,0.5,95,80.0
2162,E3,346.0,1.0,95,80.0
2163,G4,346.0,0.5,95,80.0
2164,D4,346.0,0.5,95,80.0
2165,G3,346.0,0.5,95,80.0
2166,D4,346.5,0.5,95,80.0
2167,G4,346.5,0.25,95,80.0
2168,D4,346.5,0.25,95,80.0
2169,G3,346.5,0.25,95,80.0
2170,G4,346.75,0.25,95,80.0
2171,D4,346.75,0.25,95,80.0
2172,G3,346.75,0.25,95,80.0
2173,F#4,347.0,0.5,95,80.0
2174,B1,347.0,1.0,95,80.0
2175,G4,347.0,1.0,95,80.0
2176,D4,347.0,1.0,95,80.0
2177,G3,347.0,1.0,95,80.0
2178,G4,347.5,0.5,95,80.0
2179,G4,348.0,0.5,95,80.0
2180,B1,348.0,1.0,95,80.0
2181,E4,348.0,0.5,95,80.0
2182,C4,348.0,0.5,95,80.0
2183,G3,348.0,0.5,95,80.0
2184,D3,348.0,0.5,95,80.0
2185,C3,348.0,0.5,95,80.0
2186,D4,348.5,0.5,95,80.0
2187,E4,348.5,0.25,95,80.0
2188,C4,348.5,0.25,95,80.0
2189,G3,348.5,0.25,95,80.0
2190,D3,348.5,0.25,95,80.0
2191,C3,348.5,0.25,95,80.0
2192,E4,348.75,0.25,95,80.0
2193,C4,348.75,0.25,95,80.0
2194,G3,348.75,0.25,95,80.0
2195,D3,348.75,0.25,95,80.0
2196,C3,348.75,0.25,95,80.0
2197,G4,349.0,1.0,95,80.0
2198,B1,349.0,1.0,95,80.0
2199,E4,349.0,1.0,95,80.0
2200,C4,349.0,1.0,95,80.0
2201,G3,349.0,1.0,95,80.0
2202,D3,349.0,1.0,95,80.0
2203,C3,349.0,1.0,95,80.0
2204,G4,350.0,0.5,95,80.0
2205,C2,350.0,0.5,95,80.0
2206,G4,350.0,0.5,95,80.0
2207,D4,350.0,0.5,95,80.0
2208,A3,350.0,0.5,95,80.0
2209,D3,350.0,0.5,95,80.0
2210,D4,350.5,0.5,95,80.0
2211,C3,350.5,0.5,95,80.0
2212,G4,350.5,0.25,95,80.0
2213,D4,350.5,0.25,95,80.0
2214,A3,350.5,0.25,95,80.0
2215,D3,350.5,0.25,95,80.0
2216,G4,350.75,0.25,95,80.0
2217,D4,350.75,0.25,95,80.0
2218,A3,350.75,0.25,95,80.0
2219,D3,350.75,0.25,95,80.0
2220,G4,351.0,1.0,95,80.0
2221,C3,351.0,1.0,95,80.0
2222,G4,351.0,0.25,95,80.0
2223,D4,351.0,0.25,95,80.0
2224,A3,351.0,0.25,95,80.0
2225,D3,351.0,0.25,95,80.0
2226,G4,351.25,0.25,95,80.0
2227,D4,351.25,0.25,95,80.0
2228,A3,351.25,0.25,95,80.0
2229,D3,351.25,0.25,95,80.0
2230,G4,351.5,0.25,95,80.0
2231,D4,351.5,0.25,95,80.0
2232,A3,351.5,0.25,95,80.0
2233,D3,351.5,0.25,95,80.0
2234,G4,351.75,0.25,95,80.0
2235,D4,351.75,0.25,95,80.0
2236,A3,351.75,0.25,95,80.0
2237,D3,351.75,0.25,95,80.0
2238,G4,352.0,0.5,95,80.0
2239,D1,352.0,1.0,95,80.0
2240,G4,352.0,0.25,95,80.0
2241,D4,352.0,0.25,95,80.0
2242,A3,352.0,0.25,95,80.0
2243,D3,352.0,0.25,95,80.0
2244,G4,352.25,0.25,95,80.0
2245,D4,352.25,0.25,95,80.0
2246,A3,352.25,0.25,95,80.0
2247,D3,352.25,0.25,95,80.0
2248,D4,352.5,0.5,95,80.0
2249,G4,352.5,0.25,95,80.0
2250,D4,352.5,0.25,95,80.0
2251,A3,352.5,0.25,95,80.0
2252,D3,352.5,0.25,95,80.0
2253,G4,352.75,0.25,95,80.0
2254,D4,352.75,0.25,95,80.0
2255,A3,352.75,0.25,95,80.0
2256,D3,352.75,0.25,95,80.0
2257,G4,353.0,1.0,95,80.0
2258,D2,353.0,1.0,95,80.0
2259,F#4,353.0,0.5,95,80.0
2260,D4,353.0,0.5,95,80.0
2261,G3,353.0,0.5,95,80.0
2262,G4,353.5,0.5,95,80.0
2263,D4,353.5,0.5,95,80.0
2264,G3,353.5,0.5,95,80.0
2265,F#4,354.0,0.5,95,80.0
2266,B1,354.0,1.0,95,80.0
2267,G4,354.0,0.5,95,80.0
2268,D4,354.0,0.5,95,80.0
2269,G3,354.0,0.5,95,80.0
2270,E-4,354.5,0.5,95,80.0
2271,G4,354.5,0.25,95,80.0
2272,D4,354.5,0.25,95,80.0
2273,G3,354.5,0.25,95,80.0
2274,G4,354.75,0.25,95,80.0
2275,D4,354.75,0.25,95,80.0
2276,G3,354.75,0.25,95,80.0
2277,F#4,355.0,0.5,95,80.0
2278,B1,355.0,1.0,95,80.0
2279,G4,355.0,1.0,95,80.0
2280,D4,355.0,1.0,95,80.0
2281,G3,355.0,1.0,95,80.0
2282,E-4,355.5,0.5,95,80.0
2283,E2,356.0,1.0,95,80.0
2284,E4,356.0,0.5,95,80.0
2285,C4,356.0,0.5,95,80.0
2286,G3,356.0,0.5,95,80.0
2287,D3,356.0,0.5,95,80.0
2288,C3,356.0,0.5,95,80.0
2289,E4,356.5,0.5,95,80.0
2290,E4,356.5,0.25,95,80.0
2291,C4,356.5,0.25,95,80.0
2292,G3,356.5,0.25,95,80.0
2293,D3,356.5,0.25,95,80.0
2294,C3,356.5,0.25,95,80.0
2295,E4,356.75,0.25,95,80.0
2296,C4,356.75,0.25,95,80.0
2297,G3,356.75,0.25,95,80.0
2298,D3,356.75,0.25,95,80.0
2299,C3,356.75,0.25,95,80.0
2300,G4,357.0,1.0,95,80.0
2301,E2,357.0,1.0,95,80.0
2302,E4,357.0,1.0,95,80.0
2303,C4,357.0,1.0,95,80.0
2304,G3,357.0,1.0,95,80.0
2305,D3,357.0,1.0,95,80.0
2306,C3,357.0,1.0,95,80.0
2307,G4,358.0,1.0,95,80.0
2308,D2,358.0,1.0,95,80.0
2309,G4,358.0,0.5,95,80.0
2310,D4,358.0,0.5,95,80.0
2311,A3,358.0,0.5,95,80.0
2312,D3,358.0,0.5,95,80.0
2313,G4,358.5,0.25,95,80.0
2314,D4,358.5,0.25,95,80.0
2315,A3,358.5,0.25,95,80.0
2316,D3,358.5,0.25,95,80.0
2317,G4,358.75,0.25,95,80.0
2318,D4,358.75,0.25,95,80.0
2319,A3,358.75,0.25,95,80.0
2320,D3,358.75,0.25,95,80.0
2321,G4,359.0,1.0,95,80.0
2322,D2,359.0,1.0,95,80.0
2323,G4,359.0,0.25,95,80.0
2324,D4,359.0,0.25,95,80.0
2325,A3,359.0,0.25,95,80.0
2326,D3,359.0,0.25,95,80.0
2327,G4,359.25,0.25,95,80.0
2328,D4,359.25,0.25,95,80.0
2329,A3,359.25,0.25,95,80.0
2330,D3,359.25,0.25,95,80.0
2331,G4,359.5,0.25,95,80.0
2332,D4,359.5,0.25,95,80.0
2333,A3,359.5,0.25,95,80.0
2334,D3,359.5,0.25,95,80.0
2335,G4,359.75,0.25,95,80.0
2336,D4,359.75,0.25,95,80.0
2337,A3,359.75,0.25,95,80.0
2338,D3,359.75,0.25,95,80.0
2339,F#4,360.0,0.5,95,80.0
2340,C#2,360.0,1.0,95,80.0
2341,E-4,360.5,0.5,95,80.0
2342,E4,360.5,0.5,95,80.0
2343,F#4,361.0,0.5,95,80.0
2344,A4,361.0,1.5,95,80.0
2345,C#2,361.0,0.5,95,80.0
2346,E-4,361.5,0.5,95,80.0
2347,C#2,361.5,1.0,95,80.0
2348,E4,362.0,2.0,95,80.0
2349,B3,362.0,2.0,95,80.0
2350,G3,362.0,2.0,95,80.0
2351,E3,362.0,2.0,95,80.0
2352,B2,362.0,2.0,95,80.0
2353,E2,362.0,2.0,95,80.0
2354,E4,362.5,0.5,95,80.0
2355,C#2,362.5,0.5,95,80.0
2356,A4,363.0,0.5,95,80.0
2357,C#2,363.0,1.0,95,80.0
2358,G4,363.5,0.5,95,80.0
2359,C2,364.0,1.0,95,80.0
2360,G4,364.0,2.0,95,80.0
2361,E4,364.0,2.0,95,80.0
2362,B3,364.0,2.0,95,80.0
2363,D3,364.0,2.0,95,80.0
2364,D4,364.5,0.5,95,80.0
2365,G4,365.0,0.5,95,80.0
2366,C2,365.0,1.0,95,80.0
2367,D4,365.5,1.0,95,80.0
2368,D2,366.0,1.0,95,80.0
2369,E4,366.0,4.0,95,80.0
2370,C#4,366.0,4.0,95,80.0
2371,A3,366.0,4.0,95,80.0
2372,E3,366.0,4.0,95,80.0
2373,C#3,366.0,4.0,95,80.0
2374,D4,366.5,0.5,95,80.0
2375,G4,367.0,0.5,95,80.0
2376,D2,367.0,0.5,95,80.0
2377,D4,367.5,0.5,95,80.0
2378,D2,367.5,0.5,95,80.0
2379,G1,368.0,1.0,95,80.0
2380,G1,369.0,1.0,95,80.0
2381,G1,370.0,0.25,95,80.0
2382,E4,370.0,2.0,95,80.0
2383,C4,370.0,2.0,95,80.0
2384,G3,370.0,2.0,95,80.0
2385,D3,370.0,2.0,95,80.0
2386,C3,370.0,2.0,95,80.0
2387,E2,370.25,0.75,95,80.0
2388,E2,371.0,1.0,95,80.0
2389,C2,372.0,1.0,95,80.0
2390,G4,372.0,2.0,95,80.0
2391,D4,372.0,2.0,95,80.0
2392,A3,372.0,2.0,95,80.0
2393,D3,372.0,2.0,95,80.0
2394,C2,373.0,1.0,95,80.0
2395,C2,374.0,0.25,95,80.0
2396,G4,374.0,0.5,95,80.0
2397,D4,374.0,0.5,95,80.0
2398,G3,374.0,0.5,95,80.0
2399,D2,374.25,0.75,95,80.0
2400,G4,374.5,0.25,95,80.0
2401,D4,374.5,0.25,95,80.0
2402,G3,374.5,0.25,95,80.0
2403,G4,374.75,0.25,95,80.0
2404,D4,374.75,0.25,95,80.0
2405,G3,374.75,0.25,95,80.0
2406,D2,375.0,1.0,95,80.0
2407,G4,375.0,0.5,95,80.0
2408,D4,375.0,0.5,95,80.0
2409,G3,375.0,0.5,95,80.0
2410,G4,375.5,0.25,95,80.0
2411,D4,375.5,0.25,95,80.0
2412,G3,375.5,0.25,95,80.0
2413,G4,375.75,0.5,95,80.0
2414,D4,375.75,0.5,95,80.0
2415,G3,375.75,0.5,95,80.0
2416,G1,376.0,1.0,95,80.0
2417,G4,376.25,0.25,95,80.0
2418,D4,376.25,0.25,95,80.0
2419,G3,376.25,0.25,95,80.0
2420,G4,376.5,0.5,95,80.0
2421,D4,376.5,0.5,95,80.0
2422,G3,376.5,0.5,95,80.0
2423,G1,377.0,1.0,95,80.0
2424,G4,377.0,0.5,95,80.0
2425,D4,377.0,0.5,95,80.0
2426,G3,377.0,0.5,95,80.0
2427,G4,377.5,0.25,95,80.0
2428,D4,377.5,0.25,95,80.0
2429,G3,377.5,0.25,95,80.0
2430,G4,377.75,0.25,95,80.0
2431,D4,377.75,0.25,95,80.0
2432,G3,377.75,0.25,95,80.0
2433,G1,378.0,0.25,95,80.0
2434,E4,378.0,0.5,95,80.0
2435,C4,378.0,0.5,95,80.0
2436,G3,378.0,0.5,95,80.0
2437,D3,378.0,0.5,95,80.0
2438,C3,378.0,0.5,95,80.0
2439,E2,378.25,0.75,95,80.0
2440,E4,378.5,0.25,95,80.0
2441,C4,378.5,0.25,95,80.0
2442,G3,378.5,0.25,95,80.0
2443,D3,378.5,0.25,95,80.0
2444,C3,378.5,0.25,95,80.0
2445,E4,378.75,0.25,95,80.0
2446,C4,378.75,0.25,95,80.0
2447,G3,378.75,0.25,95,80.0
2448,D3,378.75,0.25,95,80.0
2449,C3,378.75,0.25,95,80.0
2450,E2,379.0,1.0,95,80.0
2451,E4,379.0,0.5,95,80.0
2452,C4,379.0,0.5,95,80.0
2453,G3,379.0,0.5,95,80.0
2454,D3,379.0,0.5,95,80.0
2455,C3,379.0,0.5,95,80.0
2456,E4,379.5,0.25,95,80.0
2457,C4,379.5,0.25,95,80.0
2458,G3,379.5,0.25,95,80.0
2459,D3,379.5,0.25,95,80.0
2460,C3,379.5,0.25,95,80.0
2461,E4,379.75,0.25,95,80.0
2462,C4,379.75,0.25,95,80.0
2463,G3,379.75,0.25,95,80.0
2464,D3,379.75,0.25,95,80.0
2465,C3,379.75,0.25,95,80.0
2466,C2,380.0,1.0,95,80.0
2467,G4,380.0,0.25,95,80.0
2468,D4,380.0,0.25,95,80.0
2469,A3,380.0,0.25,95,80.0
2470,D3,380.0,0.25,95,80.0
2471,G4,380.25,0.25,95,80.0
2472,D4,380.25,0.25,95,80.0
2473,A3,380.25,0.25,95,80.0
2474,D3,380.25,0.25,95,80.0
2475,G4,380.5,0.5,95,80.0
2476,D4,380.5,0.5,95,80.0
2477,A3,380.5,0.5,95,80.0
2478,D3,380.5,0.5,95,80.0
2479,C2,381.0,1.0,95,80.0
2480,F#4,381.0,0.5,95,80.0
2481,D4,381.0,0.5,95,80.0
2482,G3,381.0,0.5,95,80.0
2483,F#4,381.5,0.25,95,80.0
2484,D4,381.5,0.25,95,80.0
2485,G3,381.5,0.25,95,80.0
2486,G4,381.75,0.25,95,80.0
2487,D4,381.75,0.25,95,80.0
2488,G3,381.75,0.25,95,80.0
2489,C2,382.0,0.25,95,80.0
2490,G4,382.0,0.5,95,80.0
2491,D4,382.0,0.5,95,80.0
2492,G3,382.0,0.5,95,80.0
2493,D2,382.25,0.75,95,80.0
2494,G4,382.5,0.25,95,80.0
2495,D4,382.5,0.25,95,80.0
2496,G3,382.5,0.25,95,80.0
2497,G4,382.75,0.25,95,80.0
2498,D4,382.75,0.25,95,80.0
2499,G3,382.75,0.25,95,80.0
2500,D2,383.0,1.0,95,80.0
2501,G4,383.0,0.5,95,80.0
2502,D4,383.0,0.5,95,80.0
2503,G3,383.0,0.5,95,80.0
2504,G4,383.5,0.25,95,80.0
2505,D4,383.5,0.25,95,80.0
2506,G3,383.5,0.25,95,80.0
2507,G4,383.75,0.5,95,80.0
2508,D4,383.75,0.5,95,80.0
2509,G3,383.75,0.5,95,80.0
2510,G1,384.0,1.0,95,80.0
2511,G4,384.25,0.25,95,80.0
2512,D4,384.25,0.25,95,80.0
2513,G3,384.25,0.25,95,80.0
2514,G4,384.5,0.5,95,80.0
2515,D4,384.5,0.5,95,80.0
2516,G3,384.5,0.5,95,80.0
2517,G1,385.0,1.0,95,80.0
2518,G4,385.0,0.5,95,80.0
2519,D4,385.0,0.5,95,80.0
2520,G3,385.0,0.5,95,80.0
2521,G4,385.5,0.25,95,80.0
2522,D4,385.5,0.25,95,80.0
2523,G3,385.5,0.25,95,80.0
2524,G4,385.75,0.25,95,80.0
2525,D4,385.75,0.25,95,80.0
2526,G3,385.75,0.25,95,80.0
2527,G1,386.0,0.25,95,80.0
2528,E4,386.0,0.5,95,80.0
2529,C4,386.0,0.5,95,80.0
2530,G3,386.0,0.5,95,80.0
2531,D3,386.0,0.5,95,80.0
2532,C3,386.0,0.5,95,80.0
2533,E2,386.25,0.75,95,80.0
2534,E4,386.5,0.25,95,80.0
2535,C4,386.5,0.25,95,80.0
2536,G3,386.5,0.25,95,80.0
2537,D3,386.5,0.25,95,80.0
2538,C3,386.5,0.25,95,80.0
2539,E4,386.75,0.25,95,80.0
2540,C4,386.75,0.25,95,80.0
2541,G3,386.75,0.25,95,80.0
2542,D3,386.75,0.25,95,80.0
2543,C3,386.75,0.25,95,80.0
2544,E2,387.0,1.0,95,80.0
2545,E4,387.0,0.5,95,80.0
2546,C4,387.0,0.5,95,80.0
2547,G3,387.0,0.5,95,80.0
2548,D3,387.0,0.5,95,80.0
2549,C3,387.0,0.5,95,80.0
2550,E4,387.5,0.25,95,80.0
2551,C4,387.5,0.25,95,80.0
2552,G3,387.5,0.25,95,80.0
2553,D3,387.5,0.25,95,80.0
2554,C3,387.5,0.25,95,80.0
2555,E4,387.75,0.25,95,80.0
2556,C4,387.75,0.25,95,80.0
2557,G3,387.75,0.25,95,80.0
2558,D3,387.75,0.25,95,80.0
2559,C3,387.75,0.25,95,80.0
2560,C2,388.0,1.0,95,80.0
2561,G4,388.0,0.25,95,80.0
2562,D4,388.0,0.25,95,80.0
2563,A3,388.0,0.25,95,80.0
2564,D3,388.0,0.25,95,80.0
2565,G4,388.25,0.25,95,80.0
2566,D4,388.25,0.25,95,80.0
2567,A3,388.25,0.25,95,80.0
2568,D3,388.25,0.25,95,80.0
2569,G4,388.5,0.5,95,80.0
2570,D4,388.5,0.5,95,80.0
2571,A3,388.5,0.5,95,80.0
2572,D3,388.5,0.5,95,80.0
2573,C2,389.0,1.0,95,80.0
2574,F#4,389.0,0.5,95,80.0
2575,D4,389.0,0.5,95,80.0
2576,G3,389.0,0.5,95,80.0
2577,F#4,389.5,0.25,95,80.0
2578,D4,389.5,0.25,95,80.0
2579,G3,389.5,0.25,95,80.0
2580,G4,389.75,0.25,95,80.0
2581,D4,389.75,0.25,95,80.0
2582,G3,389.75,0.25,95,80.0
2583,C2,390.0,0.25,95,80.0
2584,G4,390.0,0.5,95,80.0
2585,D4,390.0,0.5,95,80.0
2586,G3,390.0,0.5,95,80.0
2587,D2,390.25,0.75,95,80.0
2588,G4,390.5,0.25,95,80.0
2589,D4,390.5,0.25,95,80.0
2590,G3,390.5,0.25,95,80.0
2591,G4,390.75,0.25,95,80.0
2592,D4,390.75,0.25,95,80.0
2593,G3,390.75,0.25,95,80.0
2594,D2,391.0,1.0,95,80.0
2595,G4,391.0,0.5,95,80.0
2596,D4,391.0,0.5,95,80.0
2597,G3,391.0,0.5,95,80.0
2598,G4,391.5,0.25,95,80.0
2599,D4,391.5,0.25,95,80.0
2600,G3,391.5,0.25,95,80.0
2601,G4,391.75,0.5,95,80.0
2602,D4,391.75,0.5,95,80.0
2603,G3,391.75,0.5,95,80.0
2604,G1,392.0,1.0,95,80.0
2605,G4,392.25,0.25,95,80.0
2606,D4,392.25,0.25,95,80.0
2607,G3,392.25,0.25,95,80.0
2608,G4,392.5,0.5,95,80.0
2609,D4,392.5,0.5,95,80.0
2610,G3,392.5,0.5,95,80.0
2611,G1,393.0,1.0,95,80.0
2612,G4,393.0,0.5,95,80.0
2613,D4,393.0,0.5,95,80.0
2614,G3,393.0,0.5,95,80.0
2615,G4,393.5,0.25,95,80.0
2616,D4,393.5,0.25,95,80.0
2617,G3,393.5,0.25,95,80.0
2618,G4,393.75,0.25,95,80.0
2619,D4,393.75,0.25,95,80.0
2620,G3,393.75,0.25,95,80.0
2621,G1,394.0,0.25,95,80.0
2622,E4,394.0,0.5,95,80.0
2623,C4,394.0,0.5,95,80.0
2624,G3,394.0,0.5,95,80.0
2625,D3,394.0,0.5,95,80.0
2626,C3,394.0,0.5,95,80.0
2627,E2,394.25,0.75,95,80.0
2628,E4,394.5,0.25,95,80.0
2629,C4,394.5,0.25,95,80.0
2630,G3,394.5,0.25,95,80.0
2631,D3,394.5,0.25,95,80.0
2632,C3,394.5,0.25,95,80.0
2633,E4,394.75,0.25,95,80.0
2634,C4,394.75,0.25,95,80.0
2635,G3,394.75,0.25,95,80.0
2636,D3,394.75,0.25,95,80.0
2637,C3,394.75,0.25,95,80.0
2638,E2,395.0,1.0,95,80.0
2639,E4,395.0,0.5,95,80.0
2640,C4,395.0,0.5,95,80.0
2641,G3,395.0,0.5,95,80.0
2642,D3,395.0,0.5,95,80.0
2643,C3,395.0,0.5,95,80.0
2644,E4,395.5,0.25,95,80.0
2645,C4,395.5,0.25,95,80.0
2646,G3,395.5,0.25,95,80.0
2647,D3,395.5,0.25,95,80.0
2648,C3,395.5,0.25,95,80.0
2649,E4,395.75,0.25,95,80.0
2650,C4,395.75,0.25,95,80.0
2651,G3,395.75,0.25,95,80.0
2652,D3,395.75,0.25,95,80.0
2653,C3,395.75,0.25,95,80.0
2654,C2,396.0,1.0,95,80.0
2655,G4,396.0,0.25,95,80.0
2656,D4,396.0,0.25,95,80.0
2657,A3,396.0,0.25,95,80.0
2658,D3,396.0,0.25,95,80.0
2659,G4,396.25,0.25,95,80.0
2660,D4,396.25,0.25,95,80.0
2661,A3,396.25,0.25,95,80.0
2662,D3,396.25,0.25,95,80.0
2663,G4,396.5,0.5,95,80.0
2664,D4,396.5,0.5,95,80.0
2665,A3,396.5,0.5,95,80.0
2666,D3,396.5,0.5,95,80.0
2667,C2,397.0,1.0,95,80.0
2668,F#4,397.0,0.5,95,80.0
2669,D4,397.0,0.5,95,80.0
2670,G3,397.0,0.5,95,80.0
2671,F#4,397.5,0.25,95,80.0
2672,D4,397.5,0.25,95,80.0
2673,G3,397.5,0.25,95,80.0
2674,G4,397.75,0.25,95,80.0
2675,D4,397.75,0.25,95,80.0
2676,G3,397.75,0.25,95,80.0
2677,C2,398.0,0.25,95,80.0
2678,G4,398.0,0.5,95,80.0
2679,D4,398.0,0.5,95,80.0
2680,G3,398.0,0.5,95,80.0
2681,D2,398.25,0.75,95,80.0
2682,G4,398.5,0.25,95,80.0
2683,D4,398.5,0.25,95,80.0
2684,G3,398.5,0.25,95,80.0
2685,G4,398.75,0.25,95,80.0
2686,D4,398.75,0.25,95,80.0
2687,G3,398.75,0.25,95,80.0
2688,D2,399.0,1.0,95,80.0
2689,G4,399.0,0.5,95,80.0
2690,D4,399.0,0.5,95,80.0
2691,G3,399.0,0.5,95,80.0
2692,G4,399.5,0.25,95,80.0
2693,D4,399.5,0.25,95,80.0
2694,G3,399.5,0.25,95,80.0
2695,G4,399.75,0.5,95,80.0
2696,D4,399.75,0.5,95,80.0
2697,G3,399.75,0.5,95,80.0
2698,G1,400.0,1.0,95,80.0
2699,G4,400.25,0.25,95,80.0
2700,D4,400.25,0.25,95,80.0
2701,G3,400.25,0.25,95,80.0
2702,G4,400.5,0.5,95,80.0
2703,D4,400.5,0.5,95,80.0
2704,G3,400.5,0.5,95,80.0
2705,G1,401.0,1.0,95,80.0
2706,G4,401.0,0.5,95,80.0
2707,D4,401.0,0.5,95,80.0
2708,G3,401.0,0.5,95,80.0
2709,G4,401.5,0.25,95,80.0
2710,D4,401.5,0.25,95,80.0
2711,G3,401.5,0.25,95,80.0
2712,G4,401.75,0.25,95,80.0
2713,D4,401.75,0.25,95,80.0
2714,G3,401.75,0.25,95,80.0
2715,G1,402.0,0.25,95,80.0
2716,E4,402.0,0.5,95,80.0
2717,C4,402.0,0.5,95,80.0
2718,G3,402.0,0.5,95,80.0
2719,D3,402.0,0.5,95,80.0
2720,C3,402.0,0.5,95,80.0
2721,E2,402.25,0.75,95,80.0
2722,E4,402.5,0.25,95,80.0
2723,C4,402.5,0.25,95,80.0
2724,G3,402.5,0.25,95,80.0
2725,D3,402.5,0.25,95,80.0
2726,C3,402.5,0.25,95,80.0
2727,E4,402.75,0.25,95,80.0
2728,C4,402.75,0.25,95,80.0
2729,G3,402.75,0.25,95,80.0
2730,D3,402.75,0.25,95,80.0
2731,C3,402.75,0.25,95,80.0
2732,E2,403.0,1.0,95,80.0
2733,E4,403.0,0.5,95,80.0
2734,C4,403.0,0.5,95,80.0
2735,G3,403.0,0.5,95,80.0
2736,D3,403.0,0.5,95,80.0
2737,C3,403.0,0.5,95,80.0
2738,E4,403.5,0.25,95,80.0
2739,C4,403.5,0.25,95,80.0
2740,G3,403.5,0.25,95,80.0
2741,D3,403.5,0.25,95,80.0
2742,C3,403.5,0.25,95,80.0
2743,E4,403.75,0.25,95,80.0
2744,C4,403.75,0.25,95,80.0
2745,G3,403.75,0.25,95,80.0
2746,D3,403.75,0.25,95,80.0
2747,C3,403.75,0.25,95,80.0
2748,C2,404.0,1.0,95,80.0
2749,G4,404.0,0.25,95,80.0
2750,D4,404.0,0.25,95,80.0
2751,A3,404.0,0.25,95,80.0
2752,D3,404.0,0.25,95,80.0
2753,G4,404.25,0.25,95,80.0
2754,D4,404.25,0.25,95,80.0
2755,A3,404.25,0.25,95,80.0
2756,D3,404.25,0.25,95,80.0
2757,G4,404.5,0.5,95,80.0
2758,D4,404.5,0.5,95,80.0
2759,A3,404.5,0.5,95,80.0
2760,D3,404.5,0.5,95,80.0
2761,C2,405.0,1.0,95,80.0
2762,F#4,405.0,0.5,95,80.0
2763,D4,405.0,0.5,95,80.0
2764,G3,405.0,0.5,95,80.0
2765,F#4,405.5,0.25,95,80.0
2766,D4,405.5,0.25,95,80.0
2767,G3,405.5,0.25,95,80.0
2768,G4,405.75,0.25,95,80.0
2769,D4,405.75,0.25,95,80.0
2770,G3,405.75,0.25,95,80.0
2771,C2,406.0,0.25,95,80.0
2772,B3,406.0,1.0,63,80.0
2773,B4,406.0,1.0,63,80.0
2774,D2,406.25,0.25,95,80.0
2775,D2,406.5,0.5,95,80.0
2776,D2,407.0,0.25,95,80.0
2777,B3,407.0,1.0,63,80.0
2778,B4,407.0,1.0,63,80.0
2779,D2,407.25,0.25,95,80.0
2780,D2,407.5,0.5,95,80.0
2781,G1,408.0,1.0,95,80.0
2782,B3,408.0,1.0,63,80.0
2783,B4,408.0,1.0,63,80.0
2784,G1,409.0,1.0,95,80.0
2785,B3,409.0,1.0,63,80.0
2786,B4,409.0,1.0,63,80.0
2787,G1,410.0,0.25,95,80.0
2788,B3,410.0,1.0,63,80.0
2789,B4,410.0,1.0,63,80.0
2790,E2,410.25,0.75,95,80.0
2791,E2,411.0,1.0,95,80.0
2792,B3,411.0,1.0,63,80.0
2793,B4,411.0,1.0,63,80.0
2794,C2,412.0,1.0,95,80.0
2795,C5,412.5,0.75,95,80.0
2796,G4,412.5,0.75,95,80.0
2797,C2,413.0,1.0,95,80.0
2798,B4,413.25,0.75,95,80.0
2799,G4,413.25,0.75,95,80.0
2800,G3,414.0,1.0,95,80.0
2801,E2,414.0,1.0,95,80.0
2802,D2,415.0,1.0,95,80.0
2803,G4,415.0,1.0,95,80.0
2804,D4,415.0,1.0,95,80.0
2805,G3,416.0,1.0,95,80.0
2806,G1,416.0,1.0,95,80.0
2807,G1,417.0,1.0,95,80.0
2808,G4,417.0,1.0,95,80.0
2809,D4,417.0,1.0,95,80.0
2810,G3,418.0,1.0,95,80.0
2811,G1,418.0,0.25,95,80.0
2812,E2,418.25,0.75,95,80.0
2813,E2,419.0,1.0,95,80.0
2814,G4,419.0,1.0,95,80.0
2815,D4,419.0,1.0,95,80.0
2816,C2,420.0,1.0,95,80.0
2817,G4,420.0,1.0,95,80.0
2818,D4,420.0,1.0,95,80.0
2819,G3,420.0,1.0,95,80.0
2820,C2,421.0,0.25,95,80.0
2821,F#4,421.0,0.5,95,80.0
2822,D4,421.0,0.5,95,80.0
2823,G3,421.0,0.5,95,80.0
2824,C2,421.25,0.25,95,80.0
2825,C2,421.5,0.5,95,80.0
2826,G4,421.5,0.5,95,80.0
2827,D4,421.5,0.5,95,80.0
2828,G3,421.5,0.5,95,80.0
2829,G3,422.0,1.0,95,80.0
2830,E2,422.0,0.5,95,80.0
2831,E3,422.5,0.5,95,80.0
2832,D2,423.0,0.5,95,80.0
2833,G4,423.0,1.0,95,80.0
2834,D4,423.0,1.0,95,80.0
2835,D3,423.5,0.5,95,80.0
2836,G3,424.0,1.0,95,80.0
2837,G1,424.0,1.5,95,80.0
2838,G4,425.0,1.0,95,80.0
2839,D4,425.0,1.0,95,80.0
2840,G1,425.5,0.5,95,80.0
2841,G3,426.0,1.0,95,80.0
2842,G1,426.0,0.25,95,80.0
2843,E2,426.25,0.75,95,80.0
2844,E2,427.0,1.0,95,80.0
2845,G4,427.0,1.0,95,80.0
2846,D4,427.0,1.0,95,80.0
2847,G3,428.0,0.5,95,80.0
2848,C2,428.0,1.0,95,80.0
2849,G4,428.5,0.5,95,80.0
2850,D4,428.5,0.5,95,80.0
2851,G3,428.5,0.5,95,80.0
2852,C2,429.0,1.0,95,80.0
2853,F#4,429.0,0.5,95,80.0
2854,D4,429.0,0.5,95,80.0
2855,G3,429.0,0.5,95,80.0
2856,G4,429.5,0.5,95,80.0
2857,D4,429.5,0.5,95,80.0
2858,G3,429.5,0.5,95,80.0
2859,G3,430.0,0.5,95,80.0
2860,E2,430.0,0.5,95,80.0
2861,E3,430.5,0.5,95,80.0
2862,G4,430.5,1.5,95,80.0
2863,D4,430.5,1.5,95,80.0
2864,D2,431.0,0.5,95,80.0
2865,D3,431.5,0.5,95,80.0
2866,D4,432.0,0.5,95,80.0
2867,G1,432.0,4.0,95,80.0
2868,G3,432.5,0.5,95,80.0
2869,D4,433.0,0.5,95,80.0
2870,G3,433.5,0.5,95,80.0
2871,G4,434.0,0.5,95,80.0
2872,D4,434.0,0.5,95,80.0
2873,G3,434.5,0.5,95,80.0
2874,G4,435.0,0.5,95,80.0
2875,D4,435.0,0.5,95,80.0
2876,G3,435.5,0.5,95,80.0
2877,G1,436.0,4.0,95,80.0
2878,G4,436.0,0.5,95,80.0
2879,D4,436.0,0.5,95,80.0
2880,G3,436.5,0.5,95,80.0
2881,F#4,437.0,0.5,95,80.0
2882,D4,437.0,0.5,95,80.0
2883,G3,437.0,0.5,95,80.0
2884,G4,437.5,0.5,95,80.0
2885,D4,437.5,0.5,95,80.0
2886,G3,437.5,0.5,95,80.0
2887,G4,438.0,0.5,95,80.0
2888,D4,438.0,0.5,95,80.0
2889,G3,438.0,0.5,95,80.0
2890,G4,438.5,0.5,95,80.0
2891,D4,439.0,0.5,95,80.0
2892,G3,439.5,0.5,95,80.0
2893,G4,440.0,0.25,95,80.0
2894,D4,440.25,0.25,95,80.0
2895,G3,440.5,0.5,95,80.0
2896,G4,441.0,0.25,95,80.0
2897,D4,441.25,0.25,95,80.0
2898,G3,441.5,0.5,95,80.0
2899,G4,442.0,1.0,95,80.0
2900,D4,442.0,1.0,95,80.0
2901,G3,442.0,1.0,95,80.0
2902,D3,442.0,1.0,95,80.0
2903,F#4,443.0,0.5,95,80.0
2904,D4,443.0,0.5,95,80.0
2905,G3,443.0,0.5,95,80.0
2906,D3,443.0,0.5,95,80.0
2907,G4,443.5,0.5,95,80.0
2908,D4,443.5,0.5,95,80.0
2909,G3,443.5,0.5,95,80.0
2910,D3,443.5,0.5,95,80.0
2911,G4,444.0,2.0,95,80.0
2912,D4,444.0,2.0,95,80.0
2913,G3,444.0,2.0,95,80.0
2914,D3,444.0,2.0,95,80.0
