,note_name,start_time,duration,velocity,tempo
0,B4,10.021,1979/1000,118,115.0
1,G4,11.99,1/100,100,115.0
2,G5,11.99,1/100,122,115.0
3,G3,11.99,1/100,89,115.0
4,G4,12.0,0.219,100,115.0
5,G5,12.0,0.188,122,115.0
6,G3,12.0,167/1000,89,115.0
7,B1,12.0,0.25,113,115.0
8,A3,12.0,0.156,50,115.0
9,B4,12.0,21/1000,118,115.0
10,G#4,12.24,167/1000,80,115.0
11,G#5,12.24,73/500,104,115.0
12,G#3,12.24,27/200,91,115.0
13,F#2,12.25,73/500,65,115.0
14,A4,12.49,0.312,71,115.0
15,A5,12.49,13/50,89,115.0
16,A3,12.49,99/500,89,115.0
17,B-2,12.5,13/50,83,115.0
18,G4,12.74,99/500,88,115.0
19,G5,12.74,167/1000,106,115.0
20,G3,12.74,73/500,90,115.0
21,G#4,12.99,13/50,84,115.0
22,G#5,12.99,0.219,100,115.0
23,G#3,12.99,73/500,90,115.0
24,A3,13.0,23/200,49,115.0
25,B1,13.0,0.25,113,115.0
26,E2,13.0,73/200,103,115.0
27,E4,13.24,99/500,92,115.0
28,E5,13.24,167/1000,111,115.0
29,E3,13.24,0.156,94,115.0
30,B3,13.49,0.25,80,115.0
31,B4,13.49,26/125,104,115.0
32,B2,13.49,73/500,93,115.0
33,F#2,13.5,0.094,64,115.0
34,G3,13.74,177/250,73,115.0
35,G4,13.74,0.594,93,115.0
36,G2,13.74,667/1000,93,115.0
37,B1,14.0,0.25,113,115.0
38,F#2,14.25,83/1000,64,115.0
39,A3,14.49,0.188,91,115.0
40,A4,14.49,0.156,109,115.0
41,A2,14.49,0.156,93,115.0
42,F#2,14.5,13/125,54,115.0
43,B3,14.74,271/1000,80,115.0
44,B4,14.74,229/1000,104,115.0
45,B2,14.74,0.25,93,115.0
46,F#2,14.75,0.125,65,115.0
47,G3,14.99,26/125,86,115.0
48,G4,14.99,177/1000,103,115.0
49,G2,14.99,0.188,90,115.0
50,A3,15.0,0.125,49,115.0
51,E2,15.0,0.25,108,115.0
52,B1,15.0,0.25,108,115.0
53,E3,15.24,167/1000,86,115.0
54,E4,15.24,73/500,103,115.0
55,E2,15.24,73/500,92,115.0
56,G3,15.49,0.219,91,115.0
57,G4,15.49,0.188,109,115.0
58,G2,15.49,177/1000,89,115.0
59,F#2,15.5,23/200,81,115.0
60,G#3,15.74,167/1000,84,115.0
61,G#4,15.74,73/500,100,115.0
62,G#2,15.74,177/1000,92,115.0
63,A3,15.99,1/100,75,115.0
64,A4,15.99,1/100,95,115.0
65,A2,15.99,1/100,82,115.0
66,A3,16.0,0.188,75,115.0
67,A4,16.0,0.156,95,115.0
68,A2,16.0,167/1000,82,115.0
69,F#2,16.0,0.094,70,115.0
70,B1,16.0,0.25,113,115.0
71,G3,16.24,0.188,88,115.0
72,G4,16.24,0.156,105,115.0
73,G2,16.24,0.156,93,115.0
74,F#2,16.25,23/200,64,115.0
75,G#3,16.49,0.219,88,115.0
76,G#4,16.49,0.188,106,115.0
77,G#2,16.49,177/1000,91,115.0
78,F#2,16.5,0.125,77,115.0
79,E3,16.74,0.188,92,115.0
80,E4,16.74,0.156,111,115.0
81,E2,16.74,0.156,89,115.0
82,B2,16.99,0.156,75,115.0
83,B3,16.99,27/200,95,115.0
84,B1,16.99,167/1000,84,115.0
85,B1,17.0,0.25,113,115.0
86,E2,17.0,323/1000,105,115.0
87,F#2,17.0,23/200,62,115.0
88,A3,17.0,23/200,62,115.0
89,G2,17.24,177/200,86,115.0
90,G3,17.24,37/50,103,115.0
91,G1,17.24,0.719,89,115.0
92,F#2,17.5,83/1000,58,115.0
93,A2,17.99,99/500,92,115.0
94,A3,17.99,167/1000,111,115.0
95,A1,17.99,167/1000,89,115.0
96,F#2,18.0,27/200,74,115.0
97,B1,18.0,0.25,113,115.0
98,B2,18.24,0.25,88,115.0
99,B3,18.24,26/125,105,115.0
100,B1,18.24,229/1000,92,115.0
101,F#2,18.25,0.125,59,115.0
102,G2,18.49,0.219,88,115.0
103,G3,18.49,0.188,106,115.0
104,G1,18.49,167/1000,93,115.0
105,F#2,18.5,27/200,69,115.0
106,E2,18.74,0.156,88,115.0
107,E3,18.74,27/200,106,115.0
108,E1,18.74,177/1000,92,115.0
109,F#2,18.75,0.156,65,115.0
110,E3,18.99,1/100,97,115.0
111,E4,18.99,1/100,112,115.0
112,E2,18.99,1/100,89,115.0
113,E3,19.0,4.0,97,115.0
114,E4,19.0,4.0,112,115.0
115,E1,19.0,4.0,100,115.0
116,E2,19.0,4.0,89,115.0
117,E2,19.0,0.344,104,115.0
118,B1,19.0,0.25,113,115.0
119,F#2,19.0,23/200,62,115.0
120,A3,19.0,23/200,62,115.0
121,F#2,19.25,73/500,65,115.0
122,F#2,19.5,13/125,72,115.0
123,B1,20.0,0.25,113,115.0
124,F#2,20.0,0.156,74,115.0
125,E5,20.0,27/200,81,115.0
126,F#2,20.25,0.125,65,115.0
127,E5,20.25,0.125,71,115.0
128,F#2,20.5,0.156,72,115.0
129,E5,20.5,27/200,78,115.0
130,F#2,20.75,167/1000,65,115.0
131,E5,20.75,73/500,69,115.0
132,B4,20.979,2021/1000,115,115.0
133,F#2,21.0,73/500,74,115.0
134,B1,21.0,0.25,113,115.0
135,E5,21.0,73/500,81,115.0
136,F#2,21.5,73/500,69,115.0
137,G#5,21.5,27/200,78,115.0
138,G#5,21.75,0.188,71,115.0
139,B1,22.0,0.25,113,115.0
140,F#2,22.0,0.125,69,115.0
141,F#2,22.25,0.125,63,115.0
142,B5,22.25,73/500,87,115.0
143,F#2,22.5,0.125,78,115.0
144,B5,22.5,167/1000,58,115.0
145,E3,23.0,3917/1000,97,115.0
146,E4,23.0,479/500,112,115.0
147,E2,23.0,83/1000,89,115.0
148,B1,23.0,0.25,113,115.0
149,F#2,23.0,27/200,78,115.0
150,B4,23.0,3.031,115,115.0
151,E-6,23.0,0.156,93,115.0
152,E2,23.25,0.125,80,115.0
153,E-6,23.25,0.188,73,115.0
154,E2,23.75,0.125,87,115.0
155,E6,23.75,26/125,98,115.0
156,E2,24.25,0.125,92,115.0
157,E2,24.5,0.125,96,115.0
158,C3,24.75,23/200,74,115.0
159,C3,25.0,0.125,68,115.0
160,A2,25.25,73/500,79,115.0
161,A2,25.5,27/200,78,115.0
162,F2,25.75,23/200,74,115.0
163,A2,25.958,13/250,73,115.0
164,F2,26.0,13/50,78,115.0
165,E1,26.99,1/100,87,115.0
166,E1,26.99,1/100,87,115.0
167,E1,27.0,0.406,89,115.0
168,B1,27.0,0.25,113,115.0
169,E1,27.0,99/250,87,115.0
170,E1,27.0,99/250,87,115.0
171,A3,27.0,13/125,62,115.0
172,F#2,27.0,13/125,62,115.0
173,F#2,27.25,73/500,63,115.0
174,E1,27.5,0.125,91,115.0
175,E1,27.5,0.125,91,115.0
176,F#2,27.5,0.406,74,115.0
177,E1,27.75,0.125,93,115.0
178,E1,27.75,0.125,93,115.0
179,D2,28.0,0.125,94,115.0
180,D2,28.0,0.125,94,115.0
181,F#2,28.0,167/1000,62,115.0
182,E2,28.0,0.25,109,115.0
183,B1,28.0,0.25,109,115.0
184,E2,28.25,0.125,94,115.0
185,E2,28.25,0.125,94,115.0
186,E2,28.25,0.125,94,115.0
187,E2,28.25,0.125,94,115.0
188,E1,28.5,0.125,100,115.0
189,E1,28.5,0.125,100,115.0
190,F#2,28.5,23/200,56,115.0
191,E1,28.75,13/125,88,115.0
192,E1,28.75,13/125,88,115.0
193,E1,29.0,333/1000,89,115.0
194,E1,29.0,333/1000,89,115.0
195,F#2,29.0,0.156,70,115.0
196,B1,29.0,0.25,113,115.0
197,F#2,29.25,167/1000,59,115.0
198,E1,29.5,0.125,93,115.0
199,E1,29.5,0.125,93,115.0
200,F#2,29.5,26/125,72,115.0
201,E1,29.75,27/200,92,115.0
202,E1,29.75,27/200,92,115.0
203,D2,30.0,0.125,89,115.0
204,D2,30.0,0.125,89,115.0
205,F#2,30.0,167/1000,74,115.0
206,E2,30.0,0.25,108,115.0
207,B1,30.0,0.25,108,115.0
208,E2,30.25,0.125,100,115.0
209,E2,30.25,0.125,100,115.0
210,E1,30.5,0.125,89,115.0
211,E1,30.5,0.125,89,115.0
212,F#2,30.5,23/200,67,115.0
213,E1,30.75,73/500,92,115.0
214,E1,30.75,73/500,92,115.0
215,A1,31.0,0.406,89,115.0
216,A1,31.0,0.406,89,115.0
217,B1,31.0,0.25,113,115.0
218,F#2,31.0,73/500,74,115.0
219,F#2,31.25,73/500,58,115.0
220,A1,31.5,0.125,91,115.0
221,A1,31.5,0.125,91,115.0
222,F#2,31.5,229/1000,69,115.0
223,A1,31.75,0.125,93,115.0
224,A1,31.75,0.125,93,115.0
225,F#2,32.0,0.125,100,115.0
226,F#2,32.0,0.125,100,115.0
227,F#2,32.0,73/500,67,115.0
228,E2,32.0,0.25,109,115.0
229,B1,32.0,0.25,109,115.0
230,G2,32.25,0.125,100,115.0
231,G2,32.25,0.125,100,115.0
232,A1,32.5,0.125,100,115.0
233,A1,32.5,0.125,100,115.0
234,F#2,32.5,0.125,74,115.0
235,A1,32.75,13/125,88,115.0
236,A1,32.75,13/125,88,115.0
237,G1,33.0,333/1000,89,115.0
238,G1,33.0,333/1000,89,115.0
239,B1,33.0,0.25,113,115.0
240,F#2,33.0,0.156,70,115.0
241,F#2,33.25,167/1000,59,115.0
242,G1,33.5,0.125,93,115.0
243,G1,33.5,0.125,93,115.0
244,F#2,33.5,167/1000,74,115.0
245,G1,33.75,27/200,92,115.0
246,G1,33.75,27/200,92,115.0
247,E2,34.0,0.125,89,115.0
248,E2,34.0,0.125,89,115.0
249,F#2,34.0,0.125,74,115.0
250,B1,34.0,0.219,106,115.0
251,E2,34.0,0.219,106,115.0
252,F2,34.25,0.125,100,115.0
253,F2,34.25,0.125,100,115.0
254,G1,34.5,0.125,89,115.0
255,G1,34.5,0.125,89,115.0
256,F#2,34.5,0.125,74,115.0
257,G1,34.75,73/500,92,115.0
258,G1,34.75,73/500,92,115.0
259,G1,34.75,73/500,92,115.0
260,G1,34.75,73/500,92,115.0
261,E1,35.0,0.406,89,115.0
262,E1,35.0,0.406,89,115.0
263,F#2,35.0,27/200,74,115.0
264,B1,35.0,0.25,113,115.0
265,F#2,35.25,0.125,61,115.0
266,E1,35.5,0.125,91,115.0
267,E1,35.5,0.125,91,115.0
268,F#2,35.5,73/500,74,115.0
269,E1,35.75,0.125,93,115.0
270,E1,35.75,0.125,93,115.0
271,D2,36.0,0.125,94,115.0
272,D2,36.0,0.125,94,115.0
273,F#2,36.0,23/200,74,115.0
274,E2,36.0,0.25,108,115.0
275,B1,36.0,0.25,108,115.0
276,E2,36.25,0.125,94,115.0
277,E2,36.25,0.125,94,115.0
278,E2,36.25,0.125,94,115.0
279,E2,36.25,0.125,94,115.0
280,E1,36.5,0.125,100,115.0
281,E1,36.5,0.125,100,115.0
282,F#2,36.5,13/125,74,115.0
283,E1,36.75,0.125,88,115.0
284,E1,36.75,0.125,88,115.0
285,D3,37.0,0.125,89,115.0
286,D3,37.0,0.125,89,115.0
287,B1,37.0,0.25,113,115.0
288,F#2,37.0,73/500,72,115.0
289,E3,37.25,0.125,100,115.0
290,E3,37.25,0.125,100,115.0
291,F#2,37.25,73/500,65,115.0
292,E1,37.5,0.125,93,115.0
293,E1,37.5,0.125,93,115.0
294,F#2,37.5,0.125,59,115.0
295,E1,37.75,27/200,92,115.0
296,E1,37.75,27/200,92,115.0
297,D2,38.0,0.125,89,115.0
298,D2,38.0,0.125,89,115.0
299,F#2,38.0,13/125,72,115.0
300,B1,38.0,229/1000,108,115.0
301,E2,38.0,229/1000,108,115.0
302,E2,38.25,0.125,100,115.0
303,E2,38.25,0.125,100,115.0
304,E1,38.5,0.125,89,115.0
305,E1,38.5,0.125,89,115.0
306,F#2,38.5,23/200,67,115.0
307,E1,38.75,73/500,92,115.0
308,E1,38.75,73/500,92,115.0
309,A1,39.0,0.406,89,115.0
310,A1,39.0,0.406,89,115.0
311,F#2,39.0,27/200,74,115.0
312,B1,39.0,0.25,113,115.0
313,F#2,39.25,27/200,65,115.0
314,A1,39.5,0.125,91,115.0
315,A1,39.5,0.125,91,115.0
316,F#2,39.5,27/200,74,115.0
317,A1,39.75,0.125,93,115.0
318,A1,39.75,0.125,93,115.0
319,F#2,40.0,0.125,94,115.0
320,F#2,40.0,0.125,94,115.0
321,F#2,40.0,27/200,74,115.0
322,B1,40.0,229/1000,109,115.0
323,E2,40.0,229/1000,109,115.0
324,G2,40.25,0.125,89,115.0
325,G2,40.25,0.125,89,115.0
326,A1,40.5,0.125,100,115.0
327,A1,40.5,0.125,100,115.0
328,F#2,40.5,0.125,67,115.0
329,A1,40.75,0.125,88,115.0
330,A1,40.75,0.125,88,115.0
331,G1,41.0,333/1000,89,115.0
332,G1,41.0,333/1000,89,115.0
333,B1,41.0,0.25,113,115.0
334,F#2,41.0,27/200,70,115.0
335,F#2,41.25,0.188,56,115.0
336,G1,41.5,0.125,93,115.0
337,G1,41.5,0.125,93,115.0
338,F#2,41.5,0.156,72,115.0
339,G1,41.75,27/200,92,115.0
340,G1,41.75,27/200,92,115.0
341,E2,42.0,0.125,89,115.0
342,E2,42.0,0.125,89,115.0
343,F#2,42.0,27/200,74,115.0
344,B1,42.0,229/1000,108,115.0
345,E2,42.0,229/1000,108,115.0
346,F2,42.25,0.125,100,115.0
347,F2,42.25,0.125,100,115.0
348,G1,42.5,0.125,89,115.0
349,G1,42.5,0.125,89,115.0
350,F#2,42.5,13/125,74,115.0
351,G1,42.75,73/500,92,115.0
352,G1,42.75,73/500,92,115.0
353,G1,42.75,73/500,92,115.0
354,G1,42.75,73/500,92,115.0
355,E1,43.0,0.406,89,115.0
356,E1,43.0,0.406,89,115.0
357,B1,43.0,0.25,113,115.0
358,F#2,43.0,0.156,74,115.0
359,F#2,43.25,167/1000,67,115.0
360,E1,43.5,0.125,91,115.0
361,E1,43.5,0.125,91,115.0
362,F#2,43.5,23/200,77,115.0
363,E1,43.75,0.125,93,115.0
364,E1,43.75,0.125,93,115.0
365,D2,44.0,0.125,94,115.0
366,D2,44.0,0.125,94,115.0
367,F#2,44.0,73/1000,62,115.0
368,B1,44.0,0.25,113,115.0
369,E2,44.0,167/1000,98,115.0
370,E2,44.25,0.125,94,115.0
371,E2,44.25,0.125,94,115.0
372,E2,44.25,0.125,94,115.0
373,E2,44.25,0.125,94,115.0
374,E1,44.5,0.125,100,115.0
375,E1,44.5,0.125,100,115.0
376,F#4,44.5,73/500,62,115.0
377,F#2,44.5,73/500,62,115.0
378,E1,44.75,13/125,88,115.0
379,E1,44.75,13/125,88,115.0
380,F#4,44.75,73/500,52,115.0
381,E1,45.0,333/1000,89,115.0
382,E1,45.0,333/1000,89,115.0
383,F#2,45.0,27/200,77,115.0
384,B1,45.0,0.25,113,115.0
385,F#2,45.25,73/500,64,115.0
386,E1,45.5,0.125,93,115.0
387,E1,45.5,0.125,93,115.0
388,F#2,45.5,0.125,74,115.0
389,E1,45.75,27/200,92,115.0
390,E1,45.75,27/200,92,115.0
391,D2,46.0,0.125,89,115.0
392,D2,46.0,0.125,89,115.0
393,B1,46.0,0.25,113,115.0
394,E2,46.0,23/200,88,115.0
395,F#2,46.0,23/200,88,115.0
396,E2,46.25,0.125,100,115.0
397,E2,46.25,0.125,100,115.0
398,E1,46.5,0.125,89,115.0
399,E1,46.5,0.125,89,115.0
400,F#2,46.5,0.094,72,115.0
401,E1,46.75,73/500,92,115.0
402,E1,46.75,73/500,92,115.0
403,A1,47.0,0.406,89,115.0
404,A1,47.0,0.406,89,115.0
405,F#2,47.0,27/200,74,115.0
406,B1,47.0,0.25,113,115.0
407,F#2,47.25,0.156,56,115.0
408,A1,47.5,0.125,91,115.0
409,A1,47.5,0.125,91,115.0
410,F#2,47.5,0.156,74,115.0
411,A1,47.75,0.125,93,115.0
412,A1,47.75,0.125,93,115.0
413,F#2,48.0,0.125,100,115.0
414,F#2,48.0,0.125,100,115.0
415,F#2,48.0,0.125,72,115.0
416,E2,48.0,0.25,108,115.0
417,B1,48.0,0.25,108,115.0
418,G2,48.25,0.125,100,115.0
419,G2,48.25,0.125,100,115.0
420,A1,48.5,0.125,100,115.0
421,A1,48.5,0.125,100,115.0
422,F#2,48.5,23/200,65,115.0
423,A1,48.75,13/125,88,115.0
424,A1,48.75,13/125,88,115.0
425,G1,49.0,333/1000,89,115.0
426,G1,49.0,333/1000,89,115.0
427,F#2,49.0,27/200,74,115.0
428,B1,49.0,0.25,113,115.0
429,F#2,49.25,73/500,62,115.0
430,G1,49.5,0.125,93,115.0
431,G1,49.5,0.125,93,115.0
432,F#2,49.5,27/200,74,115.0
433,G1,49.75,27/200,92,115.0
434,G1,49.75,27/200,92,115.0
435,E2,50.0,0.125,89,115.0
436,E2,50.0,0.125,89,115.0
437,B1,50.0,0.25,113,115.0
438,E2,50.0,0.125,87,115.0
439,F#2,50.0,0.125,87,115.0
440,F2,50.25,0.125,100,115.0
441,F2,50.25,0.125,100,115.0
442,G1,50.5,0.125,89,115.0
443,G1,50.5,0.125,89,115.0
444,F#2,50.5,23/200,77,115.0
445,G1,50.75,73/500,92,115.0
446,G1,50.75,73/500,92,115.0
447,G1,50.75,73/500,92,115.0
448,G1,50.75,73/500,92,115.0
449,E1,51.0,0.406,89,115.0
450,E1,51.0,0.406,89,115.0
451,B1,51.0,0.25,113,115.0
452,F#2,51.0,73/500,74,115.0
453,F#2,51.25,0.156,59,115.0
454,E1,51.5,0.125,91,115.0
455,E1,51.5,0.125,91,115.0
456,F#2,51.5,23/200,74,115.0
457,E1,51.75,0.125,93,115.0
458,E1,51.75,0.125,93,115.0
459,D2,52.0,0.125,94,115.0
460,D2,52.0,0.125,94,115.0
461,F#2,52.0,0.125,74,115.0
462,E2,52.0,0.25,109,115.0
463,B1,52.0,0.25,109,115.0
464,E2,52.25,0.125,94,115.0
465,E2,52.25,0.125,94,115.0
466,E2,52.25,0.125,94,115.0
467,E2,52.25,0.125,94,115.0
468,E1,52.5,0.125,100,115.0
469,E1,52.5,0.125,100,115.0
470,F#2,52.5,0.125,74,115.0
471,E1,52.75,0.125,88,115.0
472,E1,52.75,0.125,88,115.0
473,D3,53.0,0.125,89,115.0
474,D3,53.0,0.125,89,115.0
475,F#2,53.0,73/500,74,115.0
476,B1,53.0,0.25,113,115.0
477,E3,53.25,0.125,100,115.0
478,E3,53.25,0.125,100,115.0
479,F#2,53.25,27/200,64,115.0
480,E1,53.5,0.125,93,115.0
481,E1,53.5,0.125,93,115.0
482,F#2,53.5,23/200,74,115.0
483,E1,53.75,27/200,92,115.0
484,E1,53.75,27/200,92,115.0
485,D2,54.0,0.125,89,115.0
486,D2,54.0,0.125,89,115.0
487,B1,54.0,0.25,113,115.0
488,F#2,54.0,73/500,91,115.0
489,E2,54.0,73/500,91,115.0
490,E2,54.25,0.125,100,115.0
491,E2,54.25,0.125,100,115.0
492,E1,54.5,0.125,89,115.0
493,E1,54.5,0.125,89,115.0
494,F#2,54.5,13/125,74,115.0
495,E1,54.75,73/500,92,115.0
496,E1,54.75,73/500,92,115.0
497,A1,55.0,0.406,89,115.0
498,A1,55.0,0.406,89,115.0
499,B1,55.0,0.25,113,115.0
500,F#2,55.0,27/200,74,115.0
501,F#2,55.25,0.156,67,115.0
502,A1,55.5,0.125,91,115.0
503,A1,55.5,0.125,91,115.0
504,F#2,55.5,0.125,74,115.0
505,A1,55.75,0.125,93,115.0
506,A1,55.75,0.125,93,115.0
507,F#2,56.0,0.125,94,115.0
508,F#2,56.0,0.125,94,115.0
509,F#2,56.0,27/200,77,115.0
510,E2,56.0,0.25,109,115.0
511,B1,56.0,0.25,109,115.0
512,G2,56.25,0.125,89,115.0
513,G2,56.25,0.125,89,115.0
514,A1,56.5,0.125,100,115.0
515,A1,56.5,0.125,100,115.0
516,F#2,56.5,0.094,74,115.0
517,A1,56.75,0.125,88,115.0
518,A1,56.75,0.125,88,115.0
519,G1,57.0,333/1000,89,115.0
520,G1,57.0,333/1000,89,115.0
521,B1,57.0,0.25,113,115.0
522,F#2,57.0,27/200,81,115.0
523,E2,57.188,0.062,70,115.0
524,E2,57.25,0.062,75,115.0
525,G1,57.5,0.125,93,115.0
526,G1,57.5,0.125,93,115.0
527,E2,57.5,0.125,78,115.0
528,G1,57.75,27/200,92,115.0
529,G1,57.75,27/200,92,115.0
530,E2,57.75,0.125,83,115.0
531,E2,58.0,0.125,89,115.0
532,E2,58.0,0.125,89,115.0
533,E2,58.0,0.125,87,115.0
534,F2,58.25,0.125,100,115.0
535,F2,58.25,0.125,100,115.0
536,E2,58.25,0.125,93,115.0
537,G1,58.5,0.125,89,115.0
538,G1,58.5,0.125,89,115.0
539,E2,58.5,0.125,97,115.0
540,F2,58.75,0.156,88,115.0
541,G1,58.75,73/500,92,115.0
542,G1,58.75,73/500,92,115.0
543,G1,58.75,73/500,92,115.0
544,G1,58.75,73/500,92,115.0
545,E1,59.0,0.406,89,115.0
546,E1,59.0,0.406,89,115.0
547,B1,59.0,0.25,113,115.0
548,A3,59.0,167/1000,52,115.0
549,F#2,59.25,23/200,65,115.0
550,E1,59.5,0.125,91,115.0
551,E1,59.5,0.125,91,115.0
552,F#2,59.5,0.188,67,115.0
553,E1,59.75,0.125,93,115.0
554,E1,59.75,0.125,93,115.0
555,D5,59.994,573/1000,114,115.0
556,F#4,59.994,73/250,98,115.0
557,D2,60.0,0.125,94,115.0
558,D2,60.0,0.125,94,115.0
559,F#2,60.0,0.125,61,115.0
560,E2,60.0,0.25,109,115.0
561,B1,60.0,0.25,109,115.0
562,E2,60.25,0.125,94,115.0
563,E2,60.25,0.125,94,115.0
564,E2,60.25,0.125,94,115.0
565,E2,60.25,0.125,94,115.0
566,E5,60.494,27/200,100,115.0
567,G#4,60.494,27/200,100,115.0
568,E1,60.5,0.125,100,115.0
569,E1,60.5,0.125,100,115.0
570,F#2,60.5,23/200,65,115.0
571,E1,60.75,13/125,88,115.0
572,E1,60.75,13/125,88,115.0
573,F#4,60.994,0.156,112,115.0
574,D5,60.994,0.156,112,115.0
575,E1,61.0,333/1000,89,115.0
576,E1,61.0,333/1000,89,115.0
577,B1,61.0,0.25,113,115.0
578,F#2,61.0,27/200,64,115.0
579,F#2,61.25,167/1000,56,115.0
580,E1,61.5,0.125,93,115.0
581,E1,61.5,0.125,93,115.0
582,F#2,61.5,73/500,69,115.0
583,E5,61.744,0.125,114,115.0
584,G#4,61.744,0.125,114,115.0
585,E1,61.75,27/200,92,115.0
586,E1,61.75,27/200,92,115.0
587,D2,62.0,0.125,89,115.0
588,D2,62.0,0.125,89,115.0
589,F#2,62.0,23/200,59,115.0
590,B1,62.0,0.25,109,115.0
591,E2,62.0,0.25,109,115.0
592,E2,62.25,0.125,100,115.0
593,E2,62.25,0.125,100,115.0
594,E5,62.494,0.125,122,115.0
595,G#4,62.494,0.125,122,115.0
596,E1,62.5,0.125,89,115.0
597,E1,62.5,0.125,89,115.0
598,F#2,62.5,73/500,67,115.0
599,E1,62.75,73/500,92,115.0
600,E1,62.75,73/500,92,115.0
601,A1,63.0,0.406,89,115.0
602,A1,63.0,0.406,89,115.0
603,F#2,63.0,0.156,67,115.0
604,B1,63.0,0.25,113,115.0
605,F#2,63.25,0.188,51,115.0
606,A1,63.5,0.125,91,115.0
607,A1,63.5,0.125,91,115.0
608,F#2,63.5,0.125,67,115.0
609,A1,63.75,0.125,93,115.0
610,A1,63.75,0.125,93,115.0
611,F#2,64.0,0.125,100,115.0
612,F#2,64.0,0.125,100,115.0
613,B1,64.0,0.25,113,115.0
614,F#2,64.0,99/500,84,115.0
615,E2,64.0,99/500,84,115.0
616,G2,64.25,0.125,100,115.0
617,G2,64.25,0.125,100,115.0
618,A1,64.5,0.125,100,115.0
619,A1,64.5,0.125,100,115.0
620,F#2,64.5,23/200,70,115.0
621,A1,64.75,13/125,88,115.0
622,A1,64.75,13/125,88,115.0
623,G1,65.0,333/1000,89,115.0
624,G1,65.0,333/1000,89,115.0
625,B1,65.0,0.25,113,115.0
626,F#2,65.0,73/500,67,115.0
627,F#2,65.25,167/1000,59,115.0
628,G1,65.5,0.125,93,115.0
629,G1,65.5,0.125,93,115.0
630,F#2,65.5,27/200,69,115.0
631,G1,65.75,27/200,92,115.0
632,G1,65.75,27/200,92,115.0
633,E2,66.0,0.125,89,115.0
634,E2,66.0,0.125,89,115.0
635,F#2,66.0,23/200,74,115.0
636,B1,66.0,26/125,109,115.0
637,E2,66.0,26/125,109,115.0
638,F2,66.25,0.125,100,115.0
639,F2,66.25,0.125,100,115.0
640,G1,66.5,0.125,89,115.0
641,G1,66.5,0.125,89,115.0
642,F#2,66.5,23/200,74,115.0
643,G1,66.75,73/500,92,115.0
644,G1,66.75,73/500,92,115.0
645,G1,66.75,73/500,92,115.0
646,G1,66.75,73/500,92,115.0
647,E1,67.0,0.406,89,115.0
648,E1,67.0,0.406,89,115.0
649,F#2,67.0,167/1000,69,115.0
650,B1,67.0,0.25,113,115.0
651,F#2,67.25,0.188,59,115.0
652,E1,67.5,0.125,91,115.0
653,E1,67.5,0.125,91,115.0
654,F#2,67.5,0.125,69,115.0
655,E1,67.75,0.125,93,115.0
656,E1,67.75,0.125,93,115.0
657,D5,67.994,229/500,92,115.0
658,F#4,67.994,0.281,92,115.0
659,D2,68.0,0.125,94,115.0
660,D2,68.0,0.125,94,115.0
661,F#2,68.0,23/200,72,115.0
662,E2,68.0,0.25,109,115.0
663,B1,68.0,0.25,109,115.0
664,E2,68.25,0.125,94,115.0
665,E2,68.25,0.125,94,115.0
666,E2,68.25,0.125,94,115.0
667,E2,68.25,0.125,94,115.0
668,G#4,68.494,177/1000,92,115.0
669,E5,68.494,177/1000,92,115.0
670,E1,68.5,0.125,100,115.0
671,E1,68.5,0.125,100,115.0
672,F#2,68.5,13/125,70,115.0
673,E1,68.75,0.125,88,115.0
674,E1,68.75,0.125,88,115.0
675,F#4,68.994,0.156,107,115.0
676,D5,68.994,151/500,109,115.0
677,D3,69.0,0.125,89,115.0
678,D3,69.0,0.125,89,115.0
679,F#2,69.0,167/1000,67,115.0
680,B1,69.0,0.25,113,115.0
681,E5,69.244,0.156,96,115.0
682,G#4,69.244,0.156,96,115.0
683,E3,69.25,0.125,100,115.0
684,E3,69.25,0.125,100,115.0
685,F#2,69.25,167/1000,61,115.0
686,E1,69.5,0.125,93,115.0
687,E1,69.5,0.125,93,115.0
688,F#2,69.5,27/200,74,115.0
689,G#4,69.744,27/200,110,115.0
690,E5,69.744,27/200,110,115.0
691,E1,69.75,27/200,92,115.0
692,E1,69.75,27/200,92,115.0
693,D2,70.0,0.125,89,115.0
694,D2,70.0,0.125,89,115.0
695,B1,70.0,0.25,113,115.0
696,F#2,70.0,0.188,88,115.0
697,E2,70.0,0.188,88,115.0
698,E2,70.25,0.125,100,115.0
699,E2,70.25,0.125,100,115.0
700,E5,70.494,23/200,123,115.0
701,G#4,70.494,23/200,123,115.0
702,E1,70.5,0.125,89,115.0
703,E1,70.5,0.125,89,115.0
704,F#2,70.5,13/125,74,115.0
705,E1,70.75,73/500,92,115.0
706,E1,70.75,73/500,92,115.0
707,A1,71.0,0.406,89,115.0
708,A1,71.0,0.406,89,115.0
709,F#2,71.0,0.25,92,115.0
710,B1,71.0,0.25,92,115.0
711,F#2,71.25,177/1000,62,115.0
712,A1,71.5,0.125,91,115.0
713,A1,71.5,0.125,91,115.0
714,F#2,71.5,23/200,70,115.0
715,A1,71.75,0.125,93,115.0
716,A1,71.75,0.125,93,115.0
717,F#2,72.0,0.125,94,115.0
718,F#2,72.0,0.125,94,115.0
719,B1,72.0,0.25,113,115.0
720,E2,72.0,27/200,88,115.0
721,F#2,72.0,27/200,88,115.0
722,G2,72.25,0.125,89,115.0
723,G2,72.25,0.125,89,115.0
724,A1,72.5,0.125,100,115.0
725,A1,72.5,0.125,100,115.0
726,F#2,72.5,0.125,70,115.0
727,A1,72.75,0.125,88,115.0
728,A1,72.75,0.125,88,115.0
729,G1,73.0,333/1000,89,115.0
730,G1,73.0,333/1000,89,115.0
731,B1,73.0,0.25,113,115.0
732,F#2,73.0,167/1000,68,115.0
733,F#2,73.25,0.156,67,115.0
734,G1,73.5,0.125,93,115.0
735,G1,73.5,0.125,93,115.0
736,F#4,73.5,0.25,61,115.0
737,F#2,73.5,73/500,74,115.0
738,G1,73.75,27/200,92,115.0
739,G1,73.75,27/200,92,115.0
740,E2,74.0,0.125,89,115.0
741,E2,74.0,0.125,89,115.0
742,B1,74.0,0.25,113,115.0
743,F#2,74.0,73/500,90,115.0
744,E2,74.0,73/500,90,115.0
745,F2,74.25,0.125,100,115.0
746,F2,74.25,0.125,100,115.0
747,F#4,74.25,229/1000,63,115.0
748,G1,74.5,0.125,89,115.0
749,G1,74.5,0.125,89,115.0
750,F#2,74.5,27/200,69,115.0
751,G1,74.75,73/500,92,115.0
752,G1,74.75,73/500,92,115.0
753,G1,74.75,73/500,92,115.0
754,G1,74.75,73/500,92,115.0
755,E1,75.0,0.406,89,115.0
756,E1,75.0,0.406,89,115.0
757,B1,75.0,0.25,113,115.0
758,F#2,75.0,167/1000,70,115.0
759,F#2,75.25,99/500,59,115.0
760,E1,75.5,0.125,91,115.0
761,E1,75.5,0.125,91,115.0
762,F#2,75.5,0.125,67,115.0
763,E1,75.75,0.125,93,115.0
764,E1,75.75,0.125,93,115.0
765,D5,75.994,49/100,102,115.0
766,F#4,75.994,99/250,107,115.0
767,D2,76.0,0.125,94,115.0
768,D2,76.0,0.125,94,115.0
769,F#2,76.0,0.188,88,115.0
770,E2,76.0,0.188,88,115.0
771,B1,76.0,0.188,109,115.0
772,E2,76.0,0.188,109,115.0
773,E2,76.25,0.125,94,115.0
774,E2,76.25,0.125,94,115.0
775,E2,76.25,0.125,94,115.0
776,E2,76.25,0.125,94,115.0
777,G#4,76.494,73/500,97,115.0
778,E5,76.494,73/500,97,115.0
779,E1,76.5,0.125,100,115.0
780,E1,76.5,0.125,100,115.0
781,F#2,76.5,0.125,70,115.0
782,E1,76.75,13/125,88,115.0
783,E1,76.75,13/125,88,115.0
784,F#4,76.994,0.5,107,115.0
785,D5,76.994,349/500,107,115.0
786,E1,77.0,333/1000,89,115.0
787,E1,77.0,333/1000,89,115.0
788,B1,77.0,0.188,91,115.0
789,F#2,77.0,0.188,91,115.0
790,F#2,77.25,177/1000,59,115.0
791,E1,77.5,0.125,93,115.0
792,E1,77.5,0.125,93,115.0
793,F#2,77.5,167/1000,74,115.0
794,E5,77.744,27/200,94,115.0
795,G#4,77.744,27/200,94,115.0
796,E1,77.75,27/200,92,115.0
797,E1,77.75,27/200,92,115.0
798,D2,78.0,0.125,89,115.0
799,D2,78.0,0.125,89,115.0
800,B1,78.0,0.25,113,115.0
801,F#2,78.0,177/1000,86,115.0
802,E2,78.0,177/1000,86,115.0
803,E2,78.25,0.125,100,115.0
804,E2,78.25,0.125,100,115.0
805,G#4,78.494,0.125,117,115.0
806,E5,78.494,0.125,117,115.0
807,E1,78.5,0.125,89,115.0
808,E1,78.5,0.125,89,115.0
809,F#2,78.5,73/500,74,115.0
810,E1,78.75,73/500,92,115.0
811,E1,78.75,73/500,92,115.0
812,A1,79.0,0.406,89,115.0
813,A1,79.0,0.406,89,115.0
814,B1,79.0,99/500,92,115.0
815,F#2,79.0,99/500,92,115.0
816,F#2,79.25,167/1000,58,115.0
817,A1,79.5,0.125,91,115.0
818,A1,79.5,0.125,91,115.0
819,F#2,79.5,73/500,74,115.0
820,A1,79.75,0.125,93,115.0
821,A1,79.75,0.125,93,115.0
822,F#2,80.0,0.125,100,115.0
823,F#2,80.0,0.125,100,115.0
824,B1,80.0,0.25,113,115.0
825,E2,80.0,177/1000,88,115.0
826,F#2,80.0,177/1000,88,115.0
827,G2,80.25,0.125,100,115.0
828,G2,80.25,0.125,100,115.0
829,A1,80.5,0.125,100,115.0
830,A1,80.5,0.125,100,115.0
831,F#2,80.5,27/200,68,115.0
832,A1,80.75,13/125,88,115.0
833,A1,80.75,13/125,88,115.0
834,G1,81.0,333/1000,89,115.0
835,G1,81.0,333/1000,89,115.0
836,B1,81.0,0.25,113,115.0
837,F#2,81.0,167/1000,64,115.0
838,F#2,81.25,167/1000,58,115.0
839,G1,81.5,0.125,93,115.0
840,G1,81.5,0.125,93,115.0
841,F#2,81.5,73/500,69,115.0
842,G1,81.75,27/200,92,115.0
843,G1,81.75,27/200,92,115.0
844,E2,82.0,0.125,89,115.0
845,E2,82.0,0.125,89,115.0
846,B1,82.0,0.188,109,115.0
847,E2,82.0,0.188,109,115.0
848,F#2,82.0,0.188,86,115.0
849,E2,82.0,0.188,86,115.0
850,F2,82.25,0.125,100,115.0
851,F2,82.25,0.125,100,115.0
852,G1,82.5,0.125,89,115.0
853,G1,82.5,0.125,89,115.0
854,F#2,82.5,0.125,65,115.0
855,G1,82.75,73/500,92,115.0
856,G1,82.75,73/500,92,115.0
857,G1,82.75,73/500,92,115.0
858,G1,82.75,73/500,92,115.0
859,E1,83.0,0.406,89,115.0
860,E1,83.0,0.406,89,115.0
861,F#2,83.0,0.25,90,115.0
862,B1,83.0,0.25,90,115.0
863,F#2,83.25,177/1000,64,115.0
864,E1,83.5,0.125,91,115.0
865,E1,83.5,0.125,91,115.0
866,F#2,83.5,0.156,72,115.0
867,E1,83.75,0.125,93,115.0
868,E1,83.75,0.125,93,115.0
869,D5,83.994,229/500,94,115.0
870,F#4,83.994,271/1000,96,115.0
871,D2,84.0,0.125,94,115.0
872,D2,84.0,0.125,94,115.0
873,B1,84.0,0.25,113,115.0
874,F#2,84.0,0.188,88,115.0
875,E2,84.0,0.188,88,115.0
876,E2,84.25,0.125,94,115.0
877,E2,84.25,0.125,94,115.0
878,E2,84.25,0.125,94,115.0
879,E2,84.25,0.125,94,115.0
880,E5,84.494,0.125,86,115.0
881,G#4,84.494,0.125,86,115.0
882,E1,84.5,0.125,100,115.0
883,E1,84.5,0.125,100,115.0
884,F#2,84.5,27/200,69,115.0
885,E1,84.75,0.125,88,115.0
886,E1,84.75,0.125,88,115.0
887,F#4,84.994,26/125,108,115.0
888,D5,84.994,26/125,108,115.0
889,D3,85.0,0.125,89,115.0
890,D3,85.0,0.125,89,115.0
891,F#2,85.0,0.25,90,115.0
892,B1,85.0,0.25,90,115.0
893,E5,85.244,27/200,107,115.0
894,G#4,85.244,27/200,107,115.0
895,E3,85.25,0.125,100,115.0
896,E3,85.25,0.125,100,115.0
897,F#2,85.25,73/500,56,115.0
898,E1,85.5,0.125,93,115.0
899,E1,85.5,0.125,93,115.0
900,F#2,85.5,0.156,67,115.0
901,G#4,85.744,27/200,112,115.0
902,E5,85.744,27/200,112,115.0
903,E1,85.75,27/200,92,115.0
904,E1,85.75,27/200,92,115.0
905,D2,86.0,0.125,89,115.0
906,D2,86.0,0.125,89,115.0
907,F#2,86.0,73/500,72,115.0
908,E2,86.0,0.25,109,115.0
909,B1,86.0,0.25,109,115.0
910,E2,86.25,0.125,100,115.0
911,E2,86.25,0.125,100,115.0
912,G#4,86.494,27/200,122,115.0
913,E5,86.494,27/200,122,115.0
914,E1,86.5,0.125,89,115.0
915,E1,86.5,0.125,89,115.0
916,F#2,86.5,0.125,70,115.0
917,E1,86.75,73/500,92,115.0
918,E1,86.75,73/500,92,115.0
919,A1,87.0,0.406,89,115.0
920,A1,87.0,0.406,89,115.0
921,B1,87.0,0.25,113,115.0
922,F#2,87.0,0.156,70,115.0
923,F#2,87.25,177/1000,56,115.0
924,A1,87.5,0.125,91,115.0
925,A1,87.5,0.125,91,115.0
926,F#2,87.5,73/500,67,115.0
927,A1,87.75,0.125,93,115.0
928,A1,87.75,0.125,93,115.0
929,F#2,88.0,0.125,94,115.0
930,F#2,88.0,0.125,94,115.0
931,E2,88.0,0.25,97,115.0
932,F#2,88.0,0.25,97,115.0
933,B1,88.0,0.25,97,115.0
934,G2,88.25,0.125,89,115.0
935,G2,88.25,0.125,89,115.0
936,A1,88.5,0.125,100,115.0
937,A1,88.5,0.125,100,115.0
938,F#2,88.5,0.156,74,115.0
939,A1,88.75,0.125,88,115.0
940,A1,88.75,0.125,88,115.0
941,G1,89.0,333/1000,89,115.0
942,G1,89.0,333/1000,89,115.0
943,B1,89.0,0.25,113,115.0
944,F#2,89.0,0.156,65,115.0
945,F#2,89.25,0.219,78,115.0
946,E2,89.25,0.219,78,115.0
947,G1,89.5,0.125,93,115.0
948,G1,89.5,0.125,93,115.0
949,F#2,89.5,27/200,69,115.0
950,G1,89.75,27/200,92,115.0
951,G1,89.75,27/200,92,115.0
952,E2,90.0,0.125,89,115.0
953,E2,90.0,0.125,89,115.0
954,F#2,90.0,73/500,74,115.0
955,B1,90.0,13/50,109,115.0
956,E2,90.0,13/50,109,115.0
957,F2,90.25,0.125,100,115.0
958,F2,90.25,0.125,100,115.0
959,C3,90.25,0.156,79,115.0
960,G1,90.5,0.125,89,115.0
961,G1,90.5,0.125,89,115.0
962,F#2,90.5,13/125,74,115.0
963,A2,90.5,6/25,81,115.0
964,G1,90.75,73/500,92,115.0
965,G1,90.75,73/500,92,115.0
966,G1,90.75,73/500,92,115.0
967,G1,90.75,73/500,92,115.0
968,E1,91.0,0.406,89,115.0
969,E1,91.0,0.406,89,115.0
970,B1,91.0,0.25,113,115.0
971,A3,91.0,177/1000,50,115.0
972,E6,91.0,0.188,81,115.0
973,B5,91.0,99/250,100,115.0
974,G5,91.0,99/250,100,115.0
975,E5,91.0,99/250,100,115.0
976,F#2,91.25,167/1000,67,115.0
977,E1,91.5,0.125,91,115.0
978,E1,91.5,0.125,91,115.0
979,F#2,91.5,6/25,67,115.0
980,E6,91.5,0.188,87,115.0
981,B5,91.5,103/200,100,115.0
982,G5,91.5,103/200,100,115.0
983,E5,91.5,103/200,100,115.0
984,E1,91.75,0.125,93,115.0
985,E1,91.75,0.125,93,115.0
986,B4,91.994,13/125,102,115.0
987,D4,91.994,13/125,102,115.0
988,D2,92.0,0.125,94,115.0
989,D2,92.0,0.125,94,115.0
990,F#2,92.0,27/200,63,115.0
991,B1,92.0,6/25,109,115.0
992,E2,92.0,6/25,109,115.0
993,F#2,92.25,0.188,59,115.0
994,E2,92.25,0.125,94,115.0
995,E2,92.25,0.125,94,115.0
996,E2,92.25,0.125,94,115.0
997,E2,92.25,0.125,94,115.0
998,A4,92.494,13/125,103,115.0
999,D4,92.494,13/125,103,115.0
1000,E1,92.5,0.125,100,115.0
1001,E1,92.5,0.125,100,115.0
1002,F#2,92.5,0.156,74,115.0
1003,E1,92.75,13/125,88,115.0
1004,E1,92.75,13/125,88,115.0
1005,A4,92.994,349/500,114,115.0
1006,D4,92.994,417/1000,112,115.0
1007,E1,93.0,333/1000,89,115.0
1008,E1,93.0,333/1000,89,115.0
1009,F#2,93.0,167/1000,67,115.0
1010,B1,93.0,0.25,113,115.0
1011,F#2,93.25,167/1000,55,115.0
1012,E1,93.5,0.125,93,115.0
1013,E1,93.5,0.125,93,115.0
1014,F#2,93.5,0.219,72,115.0
1015,E4,93.744,23/200,107,115.0
1016,G4,93.744,23/200,107,115.0
1017,E1,93.75,27/200,92,115.0
1018,E1,93.75,27/200,92,115.0
1019,D2,94.0,0.125,89,115.0
1020,D2,94.0,0.125,89,115.0
1021,F#2,94.0,177/1000,67,115.0
1022,B1,94.0,0.188,109,115.0
1023,E2,94.0,0.188,109,115.0
1024,D4,94.24,83/1000,118,115.0
1025,E2,94.25,0.125,100,115.0
1026,E2,94.25,0.125,100,115.0
1027,F#2,94.25,177/1000,56,115.0
1028,E4,94.49,83/1000,119,115.0
1029,E1,94.5,0.125,89,115.0
1030,E1,94.5,0.125,89,115.0
1031,F#2,94.5,99/500,72,115.0
1032,E4,94.74,83/1000,106,115.0
1033,E1,94.75,73/500,92,115.0
1034,E1,94.75,73/500,92,115.0
1035,D4,94.99,1/100,111,115.0
1036,D4,95.0,73/1000,111,115.0
1037,A1,95.0,0.406,89,115.0
1038,A1,95.0,0.406,89,115.0
1039,B1,95.0,0.25,113,115.0
1040,F#2,95.0,177/1000,70,115.0
1041,E4,95.24,73/1000,116,115.0
1042,F#2,95.25,167/1000,55,115.0
1043,A4,95.494,27/200,108,115.0
1044,E4,95.494,27/200,108,115.0
1045,A1,95.5,0.125,91,115.0
1046,A1,95.5,0.125,91,115.0
1047,F#2,95.5,177/1000,74,115.0
1048,A1,95.75,0.125,93,115.0
1049,A1,95.75,0.125,93,115.0
1050,F#2,96.0,0.125,100,115.0
1051,F#2,96.0,0.125,100,115.0
1052,B1,96.0,99/500,109,115.0
1053,E2,96.0,99/500,109,115.0
1054,F#2,96.0,99/500,90,115.0
1055,E2,96.0,99/500,90,115.0
1056,E4,96.244,0.125,108,115.0
1057,A4,96.244,0.125,108,115.0
1058,G2,96.25,0.125,100,115.0
1059,G2,96.25,0.125,100,115.0
1060,F#2,96.25,177/1000,59,115.0
1061,A1,96.5,0.125,100,115.0
1062,A1,96.5,0.125,100,115.0
1063,F#2,96.5,0.125,67,115.0
1064,A1,96.75,13/125,88,115.0
1065,A1,96.75,13/125,88,115.0
1066,E4,96.994,0.125,94,115.0
1067,G4,96.994,0.125,94,115.0
1068,G1,97.0,333/1000,89,115.0
1069,G1,97.0,333/1000,89,115.0
1070,F#2,97.0,0.156,74,115.0
1071,B1,97.0,0.25,113,115.0
1072,G4,97.244,27/200,88,115.0
1073,E4,97.244,27/200,88,115.0
1074,F#2,97.25,99/500,59,115.0
1075,E4,97.494,27/200,98,115.0
1076,G4,97.494,27/200,98,115.0
1077,G1,97.5,0.125,93,115.0
1078,G1,97.5,0.125,93,115.0
1079,F#2,97.5,0.125,70,115.0
1080,E4,97.744,27/200,110,115.0
1081,G4,97.744,27/200,110,115.0
1082,G1,97.75,27/200,92,115.0
1083,G1,97.75,27/200,92,115.0
1084,B1,97.75,0.25,113,115.0
1085,E2,98.0,0.125,89,115.0
1086,E2,98.0,0.125,89,115.0
1087,F#2,98.0,177/1000,74,115.0
1088,B1,98.0,0.188,109,115.0
1089,E2,98.0,0.188,109,115.0
1090,F2,98.25,0.125,100,115.0
1091,F2,98.25,0.125,100,115.0
1092,F#2,98.25,99/500,59,115.0
1093,G1,98.5,0.125,89,115.0
1094,G1,98.5,0.125,89,115.0
1095,F#2,98.5,0.125,77,115.0
1096,G1,98.75,73/500,92,115.0
1097,G1,98.75,73/500,92,115.0
1098,G1,98.75,73/500,92,115.0
1099,G1,98.75,73/500,92,115.0
1100,E1,99.0,0.406,89,115.0
1101,E1,99.0,0.406,89,115.0
1102,B1,99.0,0.25,113,115.0
1103,F#2,99.0,73/500,74,115.0
1104,E6,99.0,0.188,84,115.0
1105,B5,99.0,99/250,100,115.0
1106,G5,99.0,99/250,100,115.0
1107,E5,99.0,99/250,100,115.0
1108,F#2,99.25,177/1000,64,115.0
1109,E1,99.5,0.125,91,115.0
1110,E1,99.5,0.125,91,115.0
1111,F#2,99.5,23/200,74,115.0
1112,E6,99.5,0.188,84,115.0
1113,B5,99.5,103/200,100,115.0
1114,G5,99.5,103/200,100,115.0
1115,E5,99.5,103/200,100,115.0
1116,E1,99.75,0.125,93,115.0
1117,E1,99.75,0.125,93,115.0
1118,D4,99.994,13/125,100,115.0
1119,B4,99.994,13/125,100,115.0
1120,D2,100.0,0.125,94,115.0
1121,D2,100.0,0.125,94,115.0
1122,F#2,100.0,99/500,91,115.0
1123,E2,100.0,99/500,91,115.0
1124,B1,100.0,99/500,109,115.0
1125,E2,100.0,99/500,109,115.0
1126,F#2,100.25,0.188,59,115.0
1127,E2,100.25,0.125,94,115.0
1128,E2,100.25,0.125,94,115.0
1129,E2,100.25,0.125,94,115.0
1130,E2,100.25,0.125,94,115.0
1131,A4,100.494,0.125,108,115.0
1132,D4,100.494,0.125,108,115.0
1133,E1,100.5,0.125,100,115.0
1134,E1,100.5,0.125,100,115.0
1135,F#2,100.5,23/200,64,115.0
1136,E1,100.75,0.125,88,115.0
1137,E1,100.75,0.125,88,115.0
1138,A4,100.994,349/500,109,115.0
1139,D4,100.994,0.5,107,115.0
1140,D3,101.0,0.125,89,115.0
1141,D3,101.0,0.125,89,115.0
1142,B1,101.0,0.25,113,115.0
1143,F#2,101.0,0.156,77,115.0
1144,E3,101.25,0.125,100,115.0
1145,E3,101.25,0.125,100,115.0
1146,F#2,101.25,26/125,64,115.0
1147,E1,101.5,0.125,93,115.0
1148,E1,101.5,0.125,93,115.0
1149,F#2,101.5,27/200,74,115.0
1150,E4,101.744,13/125,98,115.0
1151,G4,101.744,13/125,98,115.0
1152,E1,101.75,27/200,92,115.0
1153,E1,101.75,27/200,92,115.0
1154,D2,102.0,0.125,89,115.0
1155,D2,102.0,0.125,89,115.0
1156,E2,102.0,177/1000,97,115.0
1157,B1,102.0,177/1000,97,115.0
1158,F#2,102.0,177/1000,97,115.0
1159,D4,102.229,73/1000,113,115.0
1160,E2,102.25,0.125,100,115.0
1161,E2,102.25,0.125,100,115.0
1162,F#2,102.25,26/125,61,115.0
1163,E4,102.5,73/1000,109,115.0
1164,E1,102.5,0.125,89,115.0
1165,E1,102.5,0.125,89,115.0
1166,F#2,102.5,0.125,77,115.0
1167,E1,102.75,73/500,92,115.0
1168,E1,102.75,73/500,92,115.0
1169,E4,102.76,83/1000,109,115.0
1170,D4,102.99,1/100,113,115.0
1171,D4,103.0,0.062,113,115.0
1172,A1,103.0,0.406,89,115.0
1173,A1,103.0,0.406,89,115.0
1174,B1,103.0,0.25,113,115.0
1175,F#2,103.0,167/1000,74,115.0
1176,E4,103.25,73/1000,116,115.0
1177,F#2,103.25,167/1000,55,115.0
1178,E4,103.494,27/200,108,115.0
1179,A4,103.494,27/200,108,115.0
1180,A1,103.5,0.125,91,115.0
1181,A1,103.5,0.125,91,115.0
1182,F#2,103.5,23/200,77,115.0
1183,A1,103.75,0.125,93,115.0
1184,A1,103.75,0.125,93,115.0
1185,F#2,104.0,0.125,94,115.0
1186,F#2,104.0,0.125,94,115.0
1187,E2,104.0,0.156,97,115.0
1188,B1,104.0,0.156,97,115.0
1189,F#2,104.0,0.156,97,115.0
1190,A4,104.244,23/200,104,115.0
1191,E4,104.244,23/200,104,115.0
1192,G2,104.25,0.125,89,115.0
1193,G2,104.25,0.125,89,115.0
1194,F#2,104.25,99/500,67,115.0
1195,A1,104.5,0.125,100,115.0
1196,A1,104.5,0.125,100,115.0
1197,F#2,104.5,27/200,74,115.0
1198,A1,104.75,0.125,88,115.0
1199,A1,104.75,0.125,88,115.0
1200,E4,104.994,23/200,93,115.0
1201,G4,104.994,23/200,93,115.0
1202,G1,105.0,333/1000,89,115.0
1203,G1,105.0,333/1000,89,115.0
1204,F#2,105.0,167/1000,74,115.0
1205,B1,105.0,0.25,113,115.0
1206,G4,105.244,27/200,94,115.0
1207,E4,105.244,27/200,94,115.0
1208,F#2,105.25,26/125,59,115.0
1209,E4,105.494,0.125,92,115.0
1210,G4,105.494,0.125,92,115.0
1211,G1,105.5,0.125,93,115.0
1212,G1,105.5,0.125,93,115.0
1213,F#2,105.5,27/200,74,115.0
1214,G4,105.744,0.125,105,115.0
1215,E4,105.744,0.125,105,115.0
1216,G1,105.75,27/200,92,115.0
1217,G1,105.75,27/200,92,115.0
1218,B1,105.75,0.25,113,115.0
1219,E2,106.0,0.125,89,115.0
1220,E2,106.0,0.125,89,115.0
1221,F#2,106.0,73/500,74,115.0
1222,B1,106.0,0.219,109,115.0
1223,E2,106.0,0.219,109,115.0
1224,F2,106.25,0.125,100,115.0
1225,F2,106.25,0.125,100,115.0
1226,F#2,106.25,177/1000,67,115.0
1227,G1,106.5,0.125,89,115.0
1228,G1,106.5,0.125,89,115.0
1229,F#2,106.5,0.125,74,115.0
1230,G1,106.75,73/500,92,115.0
1231,G1,106.75,73/500,92,115.0
1232,G1,106.75,73/500,92,115.0
1233,G1,106.75,73/500,92,115.0
1234,E1,107.0,0.406,89,115.0
1235,E1,107.0,0.406,89,115.0
1236,B1,107.0,0.25,113,115.0
1237,E6,107.0,0.188,78,115.0
1238,F#2,107.0,167/1000,61,115.0
1239,A3,107.0,167/1000,61,115.0
1240,B5,107.0,99/250,100,115.0
1241,G5,107.0,99/250,100,115.0
1242,E5,107.0,99/250,100,115.0
1243,F#2,107.25,0.188,64,115.0
1244,E1,107.5,0.125,91,115.0
1245,E1,107.5,0.125,91,115.0
1246,F#2,107.5,167/1000,77,115.0
1247,E6,107.5,0.188,84,115.0
1248,B5,107.5,103/200,100,115.0
1249,G5,107.5,103/200,100,115.0
1250,E5,107.5,103/200,100,115.0
1251,E1,107.75,0.125,93,115.0
1252,E1,107.75,0.125,93,115.0
1253,D4,107.994,27/200,95,115.0
1254,B4,107.994,27/200,95,115.0
1255,D2,108.0,0.125,94,115.0
1256,D2,108.0,0.125,94,115.0
1257,E2,108.0,0.25,109,115.0
1258,B1,108.0,0.25,109,115.0
1259,F#2,108.25,73/500,74,115.0
1260,E2,108.25,0.125,94,115.0
1261,E2,108.25,0.125,94,115.0
1262,E2,108.25,0.125,94,115.0
1263,E2,108.25,0.125,94,115.0
1264,A4,108.494,23/200,107,115.0
1265,D4,108.494,23/200,107,115.0
1266,E1,108.5,0.125,100,115.0
1267,E1,108.5,0.125,100,115.0
1268,F#2,108.5,167/1000,65,115.0
1269,E1,108.75,13/125,88,115.0
1270,E1,108.75,13/125,88,115.0
1271,D4,108.994,0.594,105,115.0
1272,A4,108.994,19/25,107,115.0
1273,E1,109.0,333/1000,89,115.0
1274,E1,109.0,333/1000,89,115.0
1275,B1,109.0,0.25,113,115.0
1276,F#2,109.0,167/1000,74,115.0
1277,F#2,109.25,167/1000,63,115.0
1278,E1,109.5,0.125,93,115.0
1279,E1,109.5,0.125,93,115.0
1280,F#2,109.5,23/200,74,115.0
1281,E4,109.74,0.125,111,115.0
1282,E4,109.744,0.125,108,115.0
1283,G4,109.744,0.125,108,115.0
1284,E1,109.75,27/200,92,115.0
1285,E1,109.75,27/200,92,115.0
1286,D2,110.0,0.125,89,115.0
1287,D2,110.0,0.125,89,115.0
1288,E2,110.0,73/500,97,115.0
1289,B1,110.0,73/500,97,115.0
1290,F#2,110.0,73/500,97,115.0
1291,E2,110.25,0.125,100,115.0
1292,E2,110.25,0.125,100,115.0
1293,F#2,110.25,167/1000,64,115.0
1294,D4,110.5,0.219,127,115.0
1295,E1,110.5,0.125,89,115.0
1296,E1,110.5,0.125,89,115.0
1297,F#2,110.5,0.125,74,115.0
1298,E1,110.75,73/500,92,115.0
1299,E1,110.75,73/500,92,115.0
1300,E4,110.771,0.094,116,115.0
1301,A1,111.0,0.406,89,115.0
1302,A1,111.0,0.406,89,115.0
1303,F#2,111.0,73/500,74,115.0
1304,B1,111.0,0.25,113,115.0
1305,F#2,111.25,177/1000,67,115.0
1306,E4,111.494,27/200,112,115.0
1307,A4,111.494,27/200,112,115.0
1308,A1,111.5,0.125,91,115.0
1309,A1,111.5,0.125,91,115.0
1310,F#2,111.5,73/500,77,115.0
1311,A1,111.75,0.125,93,115.0
1312,A1,111.75,0.125,93,115.0
1313,F#2,112.0,0.125,100,115.0
1314,F#2,112.0,0.125,100,115.0
1315,B1,112.0,0.25,113,115.0
1316,E2,112.0,27/200,88,115.0
1317,F#2,112.0,27/200,88,115.0
1318,A4,112.244,27/200,108,115.0
1319,E4,112.244,27/200,108,115.0
1320,G2,112.25,0.125,100,115.0
1321,G2,112.25,0.125,100,115.0
1322,F#2,112.25,0.156,64,115.0
1323,A1,112.5,0.125,100,115.0
1324,A1,112.5,0.125,100,115.0
1325,F#2,112.5,13/125,74,115.0
1326,A1,112.75,13/125,88,115.0
1327,A1,112.75,13/125,88,115.0
1328,E4,112.994,0.125,108,115.0
1329,G4,112.994,0.125,108,115.0
1330,G1,113.0,333/1000,89,115.0
1331,G1,113.0,333/1000,89,115.0
1332,B1,113.0,0.25,113,115.0
1333,F#2,113.0,167/1000,72,115.0
1334,G4,113.244,73/500,98,115.0
1335,E4,113.244,73/500,98,115.0
1336,F#2,113.25,167/1000,67,115.0
1337,G4,113.494,27/200,89,115.0
1338,E4,113.494,27/200,89,115.0
1339,G1,113.5,0.125,93,115.0
1340,G1,113.5,0.125,93,115.0
1341,F#2,113.5,23/200,70,115.0
1342,G4,113.744,0.125,106,115.0
1343,E4,113.744,0.125,106,115.0
1344,G1,113.75,27/200,92,115.0
1345,G1,113.75,27/200,92,115.0
1346,B1,113.75,0.25,113,115.0
1347,E2,114.0,0.125,89,115.0
1348,E2,114.0,0.125,89,115.0
1349,B1,114.0,0.25,113,115.0
1350,E2,114.0,73/500,88,115.0
1351,F#2,114.0,73/500,88,115.0
1352,F2,114.25,0.125,100,115.0
1353,F2,114.25,0.125,100,115.0
1354,F#2,114.25,167/1000,67,115.0
1355,G1,114.5,0.125,89,115.0
1356,G1,114.5,0.125,89,115.0
1357,F#2,114.5,0.125,72,115.0
1358,G1,114.75,73/500,92,115.0
1359,G1,114.75,73/500,92,115.0
1360,G1,114.75,73/500,92,115.0
1361,G1,114.75,73/500,92,115.0
1362,E1,115.0,0.406,89,115.0
1363,E1,115.0,0.406,89,115.0
1364,F#2,115.0,167/1000,74,115.0
1365,B1,115.0,0.25,113,115.0
1366,E6,115.0,0.188,87,115.0
1367,B5,115.0,99/250,100,115.0
1368,G5,115.0,99/250,100,115.0
1369,E5,115.0,99/250,100,115.0
1370,F#2,115.25,99/500,64,115.0
1371,E1,115.5,0.125,91,115.0
1372,E1,115.5,0.125,91,115.0
1373,F#2,115.5,0.125,69,115.0
1374,E6,115.5,0.188,84,115.0
1375,B5,115.5,103/200,100,115.0
1376,G5,115.5,103/200,100,115.0
1377,E5,115.5,103/200,100,115.0
1378,E1,115.75,0.125,93,115.0
1379,E1,115.75,0.125,93,115.0
1380,D4,115.994,73/500,110,115.0
1381,B4,115.994,73/500,110,115.0
1382,D2,116.0,0.125,94,115.0
1383,D2,116.0,0.125,94,115.0
1384,B1,116.0,0.25,113,115.0
1385,E2,116.0,167/1000,91,115.0
1386,F#2,116.0,167/1000,91,115.0
1387,F#2,116.25,73/500,67,115.0
1388,E2,116.25,0.125,94,115.0
1389,E2,116.25,0.125,94,115.0
1390,E2,116.25,0.125,94,115.0
1391,E2,116.25,0.125,94,115.0
1392,D4,116.494,0.156,107,115.0
1393,A4,116.494,0.156,107,115.0
1394,E1,116.5,0.125,100,115.0
1395,E1,116.5,0.125,100,115.0
1396,F#2,116.5,0.125,74,115.0
1397,E1,116.75,0.125,88,115.0
1398,E1,116.75,0.125,88,115.0
1399,D4,116.994,271/500,102,115.0
1400,A4,116.994,177/250,112,115.0
1401,D3,117.0,0.125,89,115.0
1402,D3,117.0,0.125,89,115.0
1403,F#2,117.0,0.156,72,115.0
1404,B1,117.0,0.25,113,115.0
1405,E3,117.25,0.125,100,115.0
1406,E3,117.25,0.125,100,115.0
1407,F#2,117.25,177/1000,67,115.0
1408,E1,117.5,0.125,93,115.0
1409,E1,117.5,0.125,93,115.0
1410,F#2,117.5,0.125,74,115.0
1411,E4,117.744,23/200,108,115.0
1412,G4,117.744,23/200,108,115.0
1413,E1,117.75,27/200,92,115.0
1414,E1,117.75,27/200,92,115.0
1415,D2,118.0,0.125,89,115.0
1416,D2,118.0,0.125,89,115.0
1417,B1,118.0,0.25,113,115.0
1418,E2,118.0,177/1000,88,115.0
1419,F#2,118.0,177/1000,88,115.0
1420,E2,118.25,0.125,100,115.0
1421,E2,118.25,0.125,100,115.0
1422,F#2,118.25,0.188,64,115.0
1423,E1,118.5,0.125,89,115.0
1424,E1,118.5,0.125,89,115.0
1425,F#4,118.5,23/200,69,115.0
1426,F#2,118.5,23/200,69,115.0
1427,E1,118.75,73/500,92,115.0
1428,E1,118.75,73/500,92,115.0
1429,F#4,118.75,27/200,53,115.0
1430,F#2,119.0,0.031,63,115.0
1431,F#2,119.0,0.031,63,115.0
1432,E2,119.0,0.25,109,115.0
1433,B1,119.0,0.25,109,115.0
1434,F#2,119.25,0.188,59,115.0
1435,C3,119.458,13/250,76,115.0
1436,B5,119.5,27/200,81,115.0
1437,F#2,119.5,27/200,74,115.0
1438,C3,119.5,27/200,74,115.0
1439,C3,119.75,27/200,76,115.0
1440,B5,119.75,167/1000,67,115.0
1441,F#2,120.0,0.25,91,115.0
1442,B1,120.0,0.25,91,115.0
1443,A2,120.208,21/500,71,115.0
1444,G#5,120.25,27/200,81,115.0
1445,F#2,120.25,0.125,69,115.0
1446,A2,120.25,0.125,69,115.0
1447,G#5,120.479,73/500,64,115.0
1448,F#2,120.5,73/500,74,115.0
1449,A2,120.5,73/500,74,115.0
1450,F2,120.958,21/500,68,115.0
1451,B1,121.0,0.25,113,115.0
1452,F#2,121.0,0.125,78,115.0
1453,F2,121.0,0.125,78,115.0
1454,F#5,121.0,23/200,66,115.0
1455,E5,121.0,23/200,66,115.0
1456,E5,121.25,0.125,41,115.0
1457,F2,121.25,167/1000,68,115.0
1458,F#2,121.25,167/1000,68,115.0
1459,F#2,121.5,13/125,69,115.0
1460,B1,121.75,0.25,100,115.0
1461,E5,121.75,151/500,81,115.0
1462,F#2,122.0,0.156,74,115.0
1463,E2,122.0,0.25,109,115.0
1464,B1,122.0,0.25,109,115.0
1465,F#2,122.25,0.188,65,115.0
1466,F#2,122.5,13/125,74,115.0
1467,E1,123.0,0.406,89,115.0
1468,E1,123.0,0.406,89,115.0
1469,F#2,123.0,0.031,74,115.0
1470,A3,123.0,69/125,46,115.0
1471,B1,123.0,0.25,113,115.0
1472,F#2,123.25,27/200,56,115.0
1473,E1,123.5,0.125,91,115.0
1474,E1,123.5,0.125,91,115.0
1475,F#2,123.5,0.156,59,115.0
1476,E1,123.75,0.125,93,115.0
1477,E1,123.75,0.125,93,115.0
1478,D2,124.0,0.125,94,115.0
1479,D2,124.0,0.125,94,115.0
1480,F#2,124.0,0.125,69,115.0
1481,E2,124.0,0.25,109,115.0
1482,B1,124.0,0.25,109,115.0
1483,E2,124.25,0.125,94,115.0
1484,E2,124.25,0.125,94,115.0
1485,E2,124.25,0.125,94,115.0
1486,E2,124.25,0.125,94,115.0
1487,E1,124.5,0.125,100,115.0
1488,E1,124.5,0.125,100,115.0
1489,F#2,124.5,23/200,76,115.0
1490,D4,124.5,23/200,76,115.0
1491,E1,124.75,13/125,88,115.0
1492,E1,124.75,13/125,88,115.0
1493,D4,124.75,0.125,86,115.0
1494,E1,125.0,333/1000,89,115.0
1495,E1,125.0,333/1000,89,115.0
1496,B1,125.0,0.25,113,115.0
1497,F#2,125.0,73/500,74,115.0
1498,F#2,125.25,167/1000,64,115.0
1499,E1,125.5,0.125,93,115.0
1500,E1,125.5,0.125,93,115.0
1501,F#2,125.5,27/200,72,115.0
1502,E1,125.75,27/200,92,115.0
1503,E1,125.75,27/200,92,115.0
1504,D2,126.0,0.125,89,115.0
1505,D2,126.0,0.125,89,115.0
1506,F#2,126.0,27/200,74,115.0
1507,B1,126.0,26/125,109,115.0
1508,E2,126.0,26/125,109,115.0
1509,E2,126.25,0.125,100,115.0
1510,E2,126.25,0.125,100,115.0
1511,E1,126.5,0.125,89,115.0
1512,E1,126.5,0.125,89,115.0
1513,F#2,126.5,0.125,77,115.0
1514,E1,126.75,73/500,92,115.0
1515,E1,126.75,73/500,92,115.0
1516,A1,127.0,0.406,89,115.0
1517,A1,127.0,0.406,89,115.0
1518,F#2,127.0,0.156,74,115.0
1519,B1,127.0,0.25,113,115.0
1520,F#2,127.25,99/500,65,115.0
1521,A1,127.5,0.125,91,115.0
1522,A1,127.5,0.125,91,115.0
1523,F#2,127.5,27/200,74,115.0
1524,A1,127.75,0.125,93,115.0
1525,A1,127.75,0.125,93,115.0
1526,F#2,128.0,0.125,100,115.0
1527,F#2,128.0,0.125,100,115.0
1528,F#2,128.0,23/200,74,115.0
1529,B1,128.0,0.188,109,115.0
1530,E2,128.0,0.188,109,115.0
1531,G2,128.25,0.125,100,115.0
1532,G2,128.25,0.125,100,115.0
1533,A1,128.5,0.125,100,115.0
1534,A1,128.5,0.125,100,115.0
1535,F#2,128.5,0.125,82,115.0
1536,D4,128.5,0.125,82,115.0
1537,A1,128.75,13/125,88,115.0
1538,A1,128.75,13/125,88,115.0
1539,D4,128.75,13/125,82,115.0
1540,G1,129.0,333/1000,89,115.0
1541,G1,129.0,333/1000,89,115.0
1542,F#2,129.0,167/1000,74,115.0
1543,B1,129.0,0.25,113,115.0
1544,F#2,129.25,0.156,67,115.0
1545,G1,129.5,0.125,93,115.0
1546,G1,129.5,0.125,93,115.0
1547,F#2,129.5,23/200,78,115.0
1548,G1,129.75,27/200,92,115.0
1549,G1,129.75,27/200,92,115.0
1550,E2,130.0,0.125,89,115.0
1551,E2,130.0,0.125,89,115.0
1552,B1,130.0,0.25,113,115.0
1553,F#2,130.0,177/1000,90,115.0
1554,E2,130.0,177/1000,90,115.0
1555,F2,130.25,0.125,100,115.0
1556,F2,130.25,0.125,100,115.0
1557,G1,130.5,0.125,89,115.0
1558,G1,130.5,0.125,89,115.0
1559,F#2,130.5,0.094,74,115.0
1560,G1,130.75,73/500,92,115.0
1561,G1,130.75,73/500,92,115.0
1562,G1,130.75,73/500,92,115.0
1563,G1,130.75,73/500,92,115.0
1564,E1,131.0,0.406,89,115.0
1565,E1,131.0,0.406,89,115.0
1566,B1,131.0,0.25,113,115.0
1567,F#2,131.0,27/200,74,115.0
1568,F#2,131.25,73/500,65,115.0
1569,E1,131.5,0.125,91,115.0
1570,E1,131.5,0.125,91,115.0
1571,F#2,131.5,23/200,74,115.0
1572,E1,131.75,0.125,93,115.0
1573,E1,131.75,0.125,93,115.0
1574,D2,132.0,0.125,94,115.0
1575,D2,132.0,0.125,94,115.0
1576,F#2,132.0,0.188,90,115.0
1577,E2,132.0,0.188,90,115.0
1578,B1,132.0,0.188,109,115.0
1579,E2,132.0,0.188,109,115.0
1580,E2,132.25,0.125,94,115.0
1581,E2,132.25,0.125,94,115.0
1582,E2,132.25,0.125,94,115.0
1583,E2,132.25,0.125,94,115.0
1584,E1,132.5,0.125,100,115.0
1585,E1,132.5,0.125,100,115.0
1586,F#2,132.5,13/125,80,115.0
1587,D4,132.5,13/125,80,115.0
1588,E1,132.75,0.125,88,115.0
1589,E1,132.75,0.125,88,115.0
1590,D4,132.75,0.094,82,115.0
1591,D3,133.0,0.125,89,115.0
1592,D3,133.0,0.125,89,115.0
1593,B1,133.0,0.25,113,115.0
1594,F#2,133.0,0.125,74,115.0
1595,E3,133.25,0.125,100,115.0
1596,E3,133.25,0.125,100,115.0
1597,F#2,133.25,0.188,67,115.0
1598,E1,133.5,0.125,93,115.0
1599,E1,133.5,0.125,93,115.0
1600,F#2,133.5,0.125,77,115.0
1601,E1,133.75,27/200,92,115.0
1602,E1,133.75,27/200,92,115.0
1603,D2,134.0,0.125,89,115.0
1604,D2,134.0,0.125,89,115.0
1605,B1,134.0,0.25,113,115.0
1606,E2,134.0,23/200,91,115.0
1607,F#2,134.0,23/200,91,115.0
1608,E2,134.25,0.125,100,115.0
1609,E2,134.25,0.125,100,115.0
1610,E1,134.5,0.125,89,115.0
1611,E1,134.5,0.125,89,115.0
1612,F#2,134.5,0.125,74,115.0
1613,E1,134.75,73/500,92,115.0
1614,E1,134.75,73/500,92,115.0
1615,A1,135.0,0.406,89,115.0
1616,A1,135.0,0.406,89,115.0
1617,B1,135.0,0.25,113,115.0
1618,F#2,135.0,73/500,74,115.0
1619,F#2,135.25,73/500,55,115.0
1620,A1,135.5,0.125,91,115.0
1621,A1,135.5,0.125,91,115.0
1622,F#2,135.5,27/200,70,115.0
1623,A1,135.75,0.125,93,115.0
1624,A1,135.75,0.125,93,115.0
1625,F#2,136.0,0.125,94,115.0
1626,F#2,136.0,0.125,94,115.0
1627,B1,136.0,0.25,113,115.0
1628,E2,136.0,73/500,91,115.0
1629,F#2,136.0,73/500,91,115.0
1630,G2,136.25,0.125,89,115.0
1631,G2,136.25,0.125,89,115.0
1632,A1,136.5,0.125,100,115.0
1633,A1,136.5,0.125,100,115.0
1634,F#2,136.5,0.094,80,115.0
1635,D4,136.5,0.094,80,115.0
1636,A1,136.75,0.125,88,115.0
1637,A1,136.75,0.125,88,115.0
1638,D4,136.75,13/125,82,115.0
1639,G1,137.0,333/1000,89,115.0
1640,G1,137.0,333/1000,89,115.0
1641,F#2,137.0,167/1000,74,115.0
1642,B1,137.0,0.25,113,115.0
1643,F#2,137.25,167/1000,65,115.0
1644,G1,137.5,0.125,93,115.0
1645,G1,137.5,0.125,93,115.0
1646,F#2,137.5,73/500,74,115.0
1647,G1,137.75,27/200,92,115.0
1648,G1,137.75,27/200,92,115.0
1649,E2,138.0,0.125,89,115.0
1650,E2,138.0,0.125,89,115.0
1651,B1,138.0,0.25,113,115.0
1652,E2,138.0,27/200,90,115.0
1653,F#2,138.0,27/200,90,115.0
1654,F2,138.25,0.125,100,115.0
1655,F2,138.25,0.125,100,115.0
1656,G1,138.5,0.125,89,115.0
1657,G1,138.5,0.125,89,115.0
1658,F#2,138.5,0.125,74,115.0
1659,G1,138.75,73/500,92,115.0
1660,G1,138.75,73/500,92,115.0
1661,G1,138.75,73/500,92,115.0
1662,G1,138.75,73/500,92,115.0
1663,E1,139.0,0.406,89,115.0
1664,E1,139.0,0.406,89,115.0
1665,B1,139.0,0.25,113,115.0
1666,F#2,139.0,0.156,74,115.0
1667,F#2,139.25,73/500,62,115.0
1668,E1,139.5,0.125,91,115.0
1669,E1,139.5,0.125,91,115.0
1670,F#2,139.5,0.125,74,115.0
1671,E1,139.75,0.125,93,115.0
1672,E1,139.75,0.125,93,115.0
1673,D2,140.0,0.125,94,115.0
1674,D2,140.0,0.125,94,115.0
1675,B1,140.0,0.25,113,115.0
1676,F#2,140.0,167/1000,91,115.0
1677,E2,140.0,167/1000,91,115.0
1678,E2,140.25,0.125,94,115.0
1679,E2,140.25,0.125,94,115.0
1680,E2,140.25,0.125,94,115.0
1681,E2,140.25,0.125,94,115.0
1682,E1,140.5,0.125,100,115.0
1683,E1,140.5,0.125,100,115.0
1684,F#2,140.5,13/125,82,115.0
1685,D4,140.5,13/125,82,115.0
1686,E1,140.75,13/125,88,115.0
1687,E1,140.75,13/125,88,115.0
1688,D4,140.75,13/125,86,115.0
1689,E1,141.0,333/1000,89,115.0
1690,E1,141.0,333/1000,89,115.0
1691,B1,141.0,0.25,113,115.0
1692,F#2,141.0,73/500,72,115.0
1693,F#2,141.25,177/1000,63,115.0
1694,E1,141.5,0.125,93,115.0
1695,E1,141.5,0.125,93,115.0
1696,F#2,141.5,73/500,77,115.0
1697,E1,141.75,27/200,92,115.0
1698,E1,141.75,27/200,92,115.0
1699,D2,142.0,0.125,89,115.0
1700,D2,142.0,0.125,89,115.0
1701,B1,142.0,0.25,113,115.0
1702,F#2,142.0,167/1000,87,115.0
1703,E2,142.0,167/1000,87,115.0
1704,E2,142.25,0.125,100,115.0
1705,E2,142.25,0.125,100,115.0
1706,E1,142.5,0.125,89,115.0
1707,E1,142.5,0.125,89,115.0
1708,F#2,142.5,27/200,74,115.0
1709,E1,142.75,73/500,92,115.0
1710,E1,142.75,73/500,92,115.0
1711,A1,143.0,0.406,89,115.0
1712,A1,143.0,0.406,89,115.0
1713,B1,143.0,0.25,113,115.0
1714,F#2,143.0,177/1000,74,115.0
1715,F#2,143.25,0.156,64,115.0
1716,A1,143.5,0.125,91,115.0
1717,A1,143.5,0.125,91,115.0
1718,F#2,143.5,73/500,77,115.0
1719,A1,143.75,0.125,93,115.0
1720,A1,143.75,0.125,93,115.0
1721,F#2,144.0,0.125,100,115.0
1722,F#2,144.0,0.125,100,115.0
1723,B1,144.0,0.25,113,115.0
1724,F#2,144.0,167/1000,90,115.0
1725,E2,144.0,167/1000,90,115.0
1726,G2,144.25,0.125,100,115.0
1727,G2,144.25,0.125,100,115.0
1728,A1,144.5,0.125,100,115.0
1729,A1,144.5,0.125,100,115.0
1730,F#2,144.5,13/125,83,115.0
1731,D4,144.5,13/125,83,115.0
1732,A1,144.75,13/125,88,115.0
1733,A1,144.75,13/125,88,115.0
1734,D4,144.75,23/200,86,115.0
1735,G1,145.0,333/1000,89,115.0
1736,G1,145.0,333/1000,89,115.0
1737,B1,145.0,0.25,113,115.0
1738,F#2,145.0,0.156,74,115.0
1739,F#2,145.25,0.156,59,115.0
1740,G1,145.5,0.125,93,115.0
1741,G1,145.5,0.125,93,115.0
1742,F#2,145.5,27/200,74,115.0
1743,G1,145.75,27/200,92,115.0
1744,G1,145.75,27/200,92,115.0
1745,E2,146.0,0.125,89,115.0
1746,E2,146.0,0.125,89,115.0
1747,B1,146.0,0.25,113,115.0
1748,F#2,146.0,0.156,90,115.0
1749,E2,146.0,0.156,90,115.0
1750,F2,146.25,0.125,100,115.0
1751,F2,146.25,0.125,100,115.0
1752,G1,146.5,0.125,89,115.0
1753,G1,146.5,0.125,89,115.0
1754,F#2,146.5,0.125,74,115.0
1755,G1,146.75,73/500,92,115.0
1756,G1,146.75,73/500,92,115.0
1757,G1,146.75,73/500,92,115.0
1758,G1,146.75,73/500,92,115.0
1759,E1,147.0,0.406,89,115.0
1760,E1,147.0,0.406,89,115.0
1761,F#2,147.0,0.156,74,115.0
1762,B1,147.0,0.25,113,115.0
1763,F#2,147.25,177/1000,67,115.0
1764,E1,147.5,0.125,91,115.0
1765,E1,147.5,0.125,91,115.0
1766,F#2,147.5,73/500,74,115.0
1767,E1,147.75,0.125,93,115.0
1768,E1,147.75,0.125,93,115.0
1769,D2,148.0,0.125,94,115.0
1770,D2,148.0,0.125,94,115.0
1771,B1,148.0,0.25,113,115.0
1772,E2,148.0,27/200,90,115.0
1773,F#2,148.0,27/200,90,115.0
1774,E2,148.25,0.125,94,115.0
1775,E2,148.25,0.125,94,115.0
1776,E2,148.25,0.125,94,115.0
1777,E2,148.25,0.125,94,115.0
1778,E1,148.5,0.125,100,115.0
1779,E1,148.5,0.125,100,115.0
1780,F#2,148.5,23/200,82,115.0
1781,D4,148.5,23/200,82,115.0
1782,E1,148.75,0.125,88,115.0
1783,E1,148.75,0.125,88,115.0
1784,D4,148.75,0.094,82,115.0
1785,D3,149.0,0.125,89,115.0
1786,D3,149.0,0.125,89,115.0
1787,B1,149.0,0.25,113,115.0
1788,F#2,149.0,167/1000,74,115.0
1789,E3,149.25,0.125,100,115.0
1790,E3,149.25,0.125,100,115.0
1791,F#2,149.25,0.188,67,115.0
1792,E1,149.5,0.125,93,115.0
1793,E1,149.5,0.125,93,115.0
1794,F#2,149.5,0.156,74,115.0
1795,E1,149.75,27/200,92,115.0
1796,E1,149.75,27/200,92,115.0
1797,D2,150.0,0.125,89,115.0
1798,D2,150.0,0.125,89,115.0
1799,B1,150.0,0.25,113,115.0
1800,E2,150.0,73/500,90,115.0
1801,F#2,150.0,73/500,90,115.0
1802,E2,150.25,0.125,100,115.0
1803,E2,150.25,0.125,100,115.0
1804,E1,150.5,0.125,89,115.0
1805,E1,150.5,0.125,89,115.0
1806,F#2,150.5,0.125,74,115.0
1807,E1,150.75,73/500,92,115.0
1808,E1,150.75,73/500,92,115.0
1809,A1,151.0,0.406,89,115.0
1810,A1,151.0,0.406,89,115.0
1811,B1,151.0,0.25,113,115.0
1812,F#2,151.0,167/1000,70,115.0
1813,F#2,151.25,0.156,67,115.0
1814,A1,151.5,0.125,91,115.0
1815,A1,151.5,0.125,91,115.0
1816,F#2,151.5,27/200,78,115.0
1817,A1,151.75,0.125,93,115.0
1818,A1,151.75,0.125,93,115.0
1819,F#2,152.0,0.125,94,115.0
1820,F#2,152.0,0.125,94,115.0
1821,F#2,152.0,0.156,59,115.0
1822,B1,152.0,0.25,113,115.0
1823,G2,152.25,0.125,89,115.0
1824,G2,152.25,0.125,89,115.0
1825,A1,152.5,0.125,100,115.0
1826,A1,152.5,0.125,100,115.0
1827,B-2,152.5,0.438,80,115.0
1828,E2,152.5,23/200,88,115.0
1829,D4,152.5,23/200,88,115.0
1830,A1,152.75,0.125,88,115.0
1831,A1,152.75,0.125,88,115.0
1832,D4,152.75,13/125,89,115.0
1833,G1,153.0,333/1000,89,115.0
1834,G1,153.0,333/1000,89,115.0
1835,B1,153.0,0.25,113,115.0
1836,E2,153.281,0.031,74,115.0
1837,E2,153.281,0.031,74,115.0
1838,E2,153.333,0.062,75,115.0
1839,E2,153.396,1/100,85,115.0
1840,E2,153.458,0.062,92,115.0
1841,G1,153.5,0.125,93,115.0
1842,G1,153.5,0.125,93,115.0
1843,G1,153.75,27/200,92,115.0
1844,G1,153.75,27/200,92,115.0
1845,E2,153.75,0.125,83,115.0
1846,E2,154.0,0.125,89,115.0
1847,E2,154.0,0.125,89,115.0
1848,E2,154.0,0.125,87,115.0
1849,F2,154.25,0.125,100,115.0
1850,F2,154.25,0.125,100,115.0
1851,E2,154.25,0.125,92,115.0
1852,G1,154.5,0.125,89,115.0
1853,G1,154.5,0.125,89,115.0
1854,E2,154.5,0.125,96,115.0
1855,B1,154.75,0.25,113,115.0
1856,G1,154.75,73/500,92,115.0
1857,G1,154.75,73/500,92,115.0
1858,G1,154.75,73/500,92,115.0
1859,G1,154.75,73/500,92,115.0
1860,E1,155.0,0.406,89,115.0
1861,E1,155.0,0.406,89,115.0
1862,F#2,155.0,0.094,77,115.0
1863,B1,155.0,0.25,113,115.0
1864,F#2,155.25,73/500,67,115.0
1865,E1,155.5,0.125,91,115.0
1866,E1,155.5,0.125,91,115.0
1867,B-2,155.5,0.344,79,115.0
1868,E1,155.75,0.125,93,115.0
1869,E1,155.75,0.125,93,115.0
1870,D5,155.994,229/500,102,115.0
1871,F#4,155.994,323/1000,98,115.0
1872,D2,156.0,0.125,94,115.0
1873,D2,156.0,0.125,94,115.0
1874,F#2,156.0,23/200,72,115.0
1875,E2,156.0,0.25,109,115.0
1876,B1,156.0,0.25,109,115.0
1877,E2,156.25,0.125,94,115.0
1878,E2,156.25,0.125,94,115.0
1879,E2,156.25,0.125,94,115.0
1880,E2,156.25,0.125,94,115.0
1881,E5,156.494,73/500,99,115.0
1882,G#4,156.494,73/500,99,115.0
1883,E1,156.5,0.125,100,115.0
1884,E1,156.5,0.125,100,115.0
1885,D4,156.5,23/200,89,115.0
1886,B-2,156.5,0.375,81,115.0
1887,E1,156.75,13/125,88,115.0
1888,E1,156.75,13/125,88,115.0
1889,D4,156.75,13/125,86,115.0
1890,F#4,156.994,0.156,113,115.0
1891,D5,156.994,0.156,113,115.0
1892,E1,157.0,333/1000,89,115.0
1893,E1,157.0,333/1000,89,115.0
1894,F#2,157.0,0.125,74,115.0
1895,B1,157.0,0.25,113,115.0
1896,F#2,157.25,177/1000,70,115.0
1897,E1,157.5,0.125,93,115.0
1898,E1,157.5,0.125,93,115.0
1899,F#2,157.5,73/500,77,115.0
1900,G#4,157.744,0.156,110,115.0
1901,E5,157.744,0.156,110,115.0
1902,E1,157.75,27/200,92,115.0
1903,E1,157.75,27/200,92,115.0
1904,D2,158.0,0.125,89,115.0
1905,D2,158.0,0.125,89,115.0
1906,B1,158.0,0.25,113,115.0
1907,E2,158.0,0.125,90,115.0
1908,F#2,158.0,0.125,90,115.0
1909,E2,158.25,0.125,100,115.0
1910,E2,158.25,0.125,100,115.0
1911,G#4,158.494,0.156,110,115.0
1912,E5,158.494,0.156,110,115.0
1913,E1,158.5,0.125,89,115.0
1914,E1,158.5,0.125,89,115.0
1915,F#2,158.5,13/125,74,115.0
1916,E1,158.75,73/500,92,115.0
1917,E1,158.75,73/500,92,115.0
1918,A1,159.0,0.406,89,115.0
1919,A1,159.0,0.406,89,115.0
1920,B1,159.0,0.25,113,115.0
1921,F#2,159.0,0.156,74,115.0
1922,F#2,159.25,0.156,64,115.0
1923,A1,159.5,0.125,91,115.0
1924,A1,159.5,0.125,91,115.0
1925,F#2,159.5,0.125,74,115.0
1926,A1,159.75,0.125,93,115.0
1927,A1,159.75,0.125,93,115.0
1928,F#2,160.0,0.125,100,115.0
1929,F#2,160.0,0.125,100,115.0
1930,B1,160.0,0.25,113,115.0
1931,E2,160.0,23/200,90,115.0
1932,F#2,160.0,23/200,90,115.0
1933,G2,160.25,0.125,100,115.0
1934,G2,160.25,0.125,100,115.0
1935,A1,160.5,0.125,100,115.0
1936,A1,160.5,0.125,100,115.0
1937,D4,160.5,23/200,78,115.0
1938,F#2,160.5,23/200,78,115.0
1939,A1,160.75,13/125,88,115.0
1940,A1,160.75,13/125,88,115.0
1941,D4,160.75,0.094,82,115.0
1942,G1,161.0,333/1000,89,115.0
1943,G1,161.0,333/1000,89,115.0
1944,F#2,161.0,73/500,78,115.0
1945,B1,161.0,0.25,113,115.0
1946,F#2,161.25,0.156,67,115.0
1947,G1,161.5,0.125,93,115.0
1948,G1,161.5,0.125,93,115.0
1949,F#2,161.5,0.125,77,115.0
1950,G1,161.75,27/200,92,115.0
1951,G1,161.75,27/200,92,115.0
1952,E2,162.0,0.125,89,115.0
1953,E2,162.0,0.125,89,115.0
1954,B1,162.0,0.25,113,115.0
1955,E2,162.0,23/200,91,115.0
1956,F#2,162.0,23/200,91,115.0
1957,F2,162.25,0.125,100,115.0
1958,F2,162.25,0.125,100,115.0
1959,G1,162.5,0.125,89,115.0
1960,G1,162.5,0.125,89,115.0
1961,F#2,162.5,23/200,77,115.0
1962,G1,162.75,73/500,92,115.0
1963,G1,162.75,73/500,92,115.0
1964,G1,162.75,73/500,92,115.0
1965,G1,162.75,73/500,92,115.0
1966,E1,163.0,0.406,89,115.0
1967,E1,163.0,0.406,89,115.0
1968,F#2,163.0,73/500,78,115.0
1969,B1,163.0,0.25,113,115.0
1970,F#2,163.25,27/200,59,115.0
1971,E1,163.5,0.125,91,115.0
1972,E1,163.5,0.125,91,115.0
1973,F#2,163.5,23/200,77,115.0
1974,E1,163.75,0.125,93,115.0
1975,E1,163.75,0.125,93,115.0
1976,G5,163.99,127/200,116,115.0
1977,B5,163.99,127/200,116,115.0
1978,F#4,163.994,151/500,109,115.0
1979,D5,163.994,51/100,96,115.0
1980,D2,164.0,0.125,94,115.0
1981,D2,164.0,0.125,94,115.0
1982,F#2,164.0,0.125,77,115.0
1983,E6,164.0,0.188,87,115.0
1984,E2,164.0,0.25,109,115.0
1985,B1,164.0,0.25,109,115.0
1986,E2,164.25,0.125,94,115.0
1987,E2,164.25,0.125,94,115.0
1988,E2,164.25,0.125,94,115.0
1989,E2,164.25,0.125,94,115.0
1990,E5,164.494,27/200,96,115.0
1991,G#4,164.494,27/200,96,115.0
1992,E1,164.5,0.125,100,115.0
1993,E1,164.5,0.125,100,115.0
1994,D4,164.5,23/200,83,115.0
1995,F#2,164.5,23/200,83,115.0
1996,E1,164.75,0.125,88,115.0
1997,E1,164.75,0.125,88,115.0
1998,D4,164.75,23/200,86,115.0
1999,F#4,164.994,73/500,112,115.0
2000,D5,164.994,229/1000,114,115.0
2001,D3,165.0,0.125,89,115.0
2002,D3,165.0,0.125,89,115.0
2003,B1,165.0,0.25,113,115.0
2004,F#2,165.0,167/1000,74,115.0
2005,G#4,165.244,0.156,100,115.0
2006,E5,165.244,0.156,100,115.0
2007,E3,165.25,0.125,100,115.0
2008,E3,165.25,0.125,100,115.0
2009,F#2,165.25,23/200,65,115.0
2010,E1,165.5,0.125,93,115.0
2011,E1,165.5,0.125,93,115.0
2012,F#2,165.5,0.125,67,115.0
2013,G#4,165.744,27/200,112,115.0
2014,E5,165.744,27/200,112,115.0
2015,E1,165.75,27/200,92,115.0
2016,E1,165.75,27/200,92,115.0
2017,D2,166.0,0.125,89,115.0
2018,D2,166.0,0.125,89,115.0
2019,B1,166.0,0.25,113,115.0
2020,E2,166.0,23/200,90,115.0
2021,F#2,166.0,23/200,90,115.0
2022,E2,166.25,0.125,100,115.0
2023,E2,166.25,0.125,100,115.0
2024,E5,166.494,0.125,120,115.0
2025,G#4,166.494,0.125,120,115.0
2026,E1,166.5,0.125,89,115.0
2027,E1,166.5,0.125,89,115.0
2028,F#2,166.5,23/200,74,115.0
2029,E1,166.75,73/500,92,115.0
2030,E1,166.75,73/500,92,115.0
2031,A1,167.0,0.406,89,115.0
2032,A1,167.0,0.406,89,115.0
2033,B1,167.0,0.25,113,115.0
2034,F#2,167.0,0.156,74,115.0
2035,F#2,167.25,0.156,72,115.0
2036,A1,167.5,0.125,91,115.0
2037,A1,167.5,0.125,91,115.0
2038,F#2,167.5,27/200,77,115.0
2039,A1,167.75,0.125,93,115.0
2040,A1,167.75,0.125,93,115.0
2041,D5,167.99,73/500,106,115.0
2042,B5,167.99,73/500,106,115.0
2043,G5,167.99,73/500,106,115.0
2044,F#2,168.0,0.125,94,115.0
2045,F#2,168.0,0.125,94,115.0
2046,B1,168.0,0.25,113,115.0
2047,F#2,168.0,0.156,91,115.0
2048,E2,168.0,0.156,91,115.0
2049,G2,168.25,0.125,89,115.0
2050,G2,168.25,0.125,89,115.0
2051,G5,168.49,73/500,106,115.0
2052,B5,168.49,73/500,106,115.0
2053,D5,168.49,73/500,106,115.0
2054,A1,168.5,0.125,100,115.0
2055,A1,168.5,0.125,100,115.0
2056,F#2,168.5,13/125,76,115.0
2057,D4,168.5,13/125,76,115.0
2058,A1,168.75,0.125,88,115.0
2059,A1,168.75,0.125,88,115.0
2060,D4,168.75,0.094,86,115.0
2061,B5,168.99,123/200,104,115.0
2062,G5,168.99,123/200,104,115.0
2063,D5,168.99,123/200,104,115.0
2064,G1,169.0,333/1000,89,115.0
2065,G1,169.0,333/1000,89,115.0
2066,F#2,169.0,0.156,74,115.0
2067,B1,169.0,0.25,113,115.0
2068,F#2,169.25,167/1000,63,115.0
2069,G1,169.5,0.125,93,115.0
2070,G1,169.5,0.125,93,115.0
2071,F#2,169.5,73/500,74,115.0
2072,G5,169.74,13/125,121,115.0
2073,B5,169.74,13/125,121,115.0
2074,D5,169.74,13/125,121,115.0
2075,G1,169.75,27/200,92,115.0
2076,G1,169.75,27/200,92,115.0
2077,E2,170.0,0.125,89,115.0
2078,E2,170.0,0.125,89,115.0
2079,B1,170.0,0.25,113,115.0
2080,F#2,170.0,73/500,90,115.0
2081,E2,170.0,73/500,90,115.0
2082,F2,170.25,0.125,100,115.0
2083,F2,170.25,0.125,100,115.0
2084,G1,170.5,0.125,89,115.0
2085,G1,170.5,0.125,89,115.0
2086,F#2,170.5,0.125,66,115.0
2087,F#4,170.5,0.125,66,115.0
2088,F#4,170.75,73/500,62,115.0
2089,G1,170.75,73/500,92,115.0
2090,G1,170.75,73/500,92,115.0
2091,G1,170.75,73/500,92,115.0
2092,G1,170.75,73/500,92,115.0
2093,E1,171.0,0.406,89,115.0
2094,E1,171.0,0.406,89,115.0
2095,F#2,171.0,0.156,74,115.0
2096,B1,171.0,0.25,113,115.0
2097,F#2,171.25,73/500,63,115.0
2098,E1,171.5,0.125,91,115.0
2099,E1,171.5,0.125,91,115.0
2100,F#2,171.5,0.125,74,115.0
2101,E1,171.75,0.125,93,115.0
2102,E1,171.75,0.125,93,115.0
2103,D5,171.994,229/500,107,115.0
2104,F#4,171.994,73/200,109,115.0
2105,D2,172.0,0.125,94,115.0
2106,D2,172.0,0.125,94,115.0
2107,B1,172.0,0.25,113,115.0
2108,E2,172.0,23/200,88,115.0
2109,F#2,172.0,23/200,88,115.0
2110,E2,172.25,0.125,94,115.0
2111,E2,172.25,0.125,94,115.0
2112,E2,172.25,0.125,94,115.0
2113,E2,172.25,0.125,94,115.0
2114,G#4,172.494,0.156,98,115.0
2115,E5,172.494,0.156,98,115.0
2116,E1,172.5,0.125,100,115.0
2117,E1,172.5,0.125,100,115.0
2118,D4,172.5,27/200,78,115.0
2119,F#2,172.5,27/200,78,115.0
2120,E1,172.75,13/125,88,115.0
2121,E1,172.75,13/125,88,115.0
2122,D4,172.75,23/200,82,115.0
2123,D5,172.994,0.656,107,115.0
2124,F#4,172.994,51/100,107,115.0
2125,E1,173.0,333/1000,89,115.0
2126,E1,173.0,333/1000,89,115.0
2127,F#2,173.0,73/500,74,115.0
2128,B1,173.0,0.25,113,115.0
2129,F#2,173.25,167/1000,67,115.0
2130,E1,173.5,0.125,93,115.0
2131,E1,173.5,0.125,93,115.0
2132,F#2,173.5,73/500,77,115.0
2133,G#4,173.744,27/200,99,115.0
2134,E5,173.744,27/200,99,115.0
2135,E1,173.75,27/200,92,115.0
2136,E1,173.75,27/200,92,115.0
2137,D2,174.0,0.125,89,115.0
2138,D2,174.0,0.125,89,115.0
2139,B1,174.0,0.25,113,115.0
2140,F#2,174.0,27/200,91,115.0
2141,E2,174.0,27/200,91,115.0
2142,E2,174.25,0.125,100,115.0
2143,E2,174.25,0.125,100,115.0
2144,G#4,174.494,73/500,117,115.0
2145,E5,174.494,73/500,117,115.0
2146,E1,174.5,0.125,89,115.0
2147,E1,174.5,0.125,89,115.0
2148,F#2,174.5,0.125,77,115.0
2149,E1,174.75,73/500,92,115.0
2150,E1,174.75,73/500,92,115.0
2151,A1,175.0,0.406,89,115.0
2152,A1,175.0,0.406,89,115.0
2153,F#2,175.0,167/1000,74,115.0
2154,B1,175.0,0.25,113,115.0
2155,F#2,175.25,0.156,62,115.0
2156,A1,175.5,0.125,91,115.0
2157,A1,175.5,0.125,91,115.0
2158,F#2,175.5,73/500,74,115.0
2159,A1,175.75,0.125,93,115.0
2160,A1,175.75,0.125,93,115.0
2161,F#2,176.0,0.125,100,115.0
2162,F#2,176.0,0.125,100,115.0
2163,B1,176.0,0.25,113,115.0
2164,E2,176.0,27/200,90,115.0
2165,F#2,176.0,27/200,90,115.0
2166,G2,176.25,0.125,100,115.0
2167,G2,176.25,0.125,100,115.0
2168,A1,176.5,0.125,100,115.0
2169,A1,176.5,0.125,100,115.0
2170,F#2,176.5,83/1000,82,115.0
2171,D4,176.5,83/1000,82,115.0
2172,A1,176.75,13/125,88,115.0
2173,A1,176.75,13/125,88,115.0
2174,D4,176.75,0.125,86,115.0
2175,G1,177.0,333/1000,89,115.0
2176,G1,177.0,333/1000,89,115.0
2177,B1,177.0,0.25,113,115.0
2178,F#2,177.0,0.156,74,115.0
2179,F#2,177.25,27/200,64,115.0
2180,G1,177.5,0.125,93,115.0
2181,G1,177.5,0.125,93,115.0
2182,F#2,177.5,73/500,74,115.0
2183,G1,177.75,27/200,92,115.0
2184,G1,177.75,27/200,92,115.0
2185,E2,178.0,0.125,89,115.0
2186,E2,178.0,0.125,89,115.0
2187,B1,178.0,0.25,113,115.0
2188,F#2,178.0,27/200,90,115.0
2189,E2,178.0,27/200,90,115.0
2190,F2,178.25,0.125,100,115.0
2191,F2,178.25,0.125,100,115.0
2192,G1,178.5,0.125,89,115.0
2193,G1,178.5,0.125,89,115.0
2194,F#2,178.5,23/200,74,115.0
2195,G1,178.75,73/500,92,115.0
2196,G1,178.75,73/500,92,115.0
2197,G1,178.75,73/500,92,115.0
2198,G1,178.75,73/500,92,115.0
2199,E1,179.0,0.406,89,115.0
2200,E1,179.0,0.406,89,115.0
2201,B1,179.0,0.25,113,115.0
2202,F#2,179.0,0.156,77,115.0
2203,F#2,179.25,73/500,58,115.0
2204,E1,179.5,0.125,91,115.0
2205,E1,179.5,0.125,91,115.0
2206,F#2,179.5,0.156,77,115.0
2207,E1,179.75,0.125,93,115.0
2208,E1,179.75,0.125,93,115.0
2209,G5,179.99,427/1000,116,115.0
2210,B5,179.99,427/1000,116,115.0
2211,F#4,179.994,0.344,100,115.0
2212,D5,179.994,0.469,92,115.0
2213,D2,180.0,0.125,94,115.0
2214,D2,180.0,0.125,94,115.0
2215,B1,180.0,0.25,113,115.0
2216,E6,180.0,0.188,84,115.0
2217,E2,180.0,73/500,87,115.0
2218,F#2,180.0,73/500,87,115.0
2219,E2,180.25,0.125,94,115.0
2220,E2,180.25,0.125,94,115.0
2221,E2,180.25,0.125,94,115.0
2222,E2,180.25,0.125,94,115.0
2223,E5,180.494,27/200,97,115.0
2224,G#4,180.494,27/200,97,115.0
2225,E1,180.5,0.125,100,115.0
2226,E1,180.5,0.125,100,115.0
2227,F#2,180.5,73/500,82,115.0
2228,D4,180.5,73/500,82,115.0
2229,E1,180.75,0.125,88,115.0
2230,E1,180.75,0.125,88,115.0
2231,D4,180.75,23/200,86,115.0
2232,F#4,180.994,0.219,104,115.0
2233,D5,180.994,0.219,104,115.0
2234,D3,181.0,0.125,89,115.0
2235,D3,181.0,0.125,89,115.0
2236,F#2,181.0,0.156,74,115.0
2237,B1,181.0,0.25,113,115.0
2238,G#4,181.244,177/1000,88,115.0
2239,E5,181.244,177/1000,88,115.0
2240,E3,181.25,0.125,100,115.0
2241,E3,181.25,0.125,100,115.0
2242,F#2,181.25,167/1000,65,115.0
2243,E1,181.5,0.125,93,115.0
2244,E1,181.5,0.125,93,115.0
2245,F#2,181.5,167/1000,77,115.0
2246,G#4,181.744,73/500,108,115.0
2247,E5,181.744,73/500,108,115.0
2248,E1,181.75,27/200,92,115.0
2249,E1,181.75,27/200,92,115.0
2250,D2,182.0,0.125,89,115.0
2251,D2,182.0,0.125,89,115.0
2252,B1,182.0,0.25,113,115.0
2253,F#2,182.0,0.156,90,115.0
2254,E2,182.0,0.156,90,115.0
2255,E2,182.25,0.125,100,115.0
2256,E2,182.25,0.125,100,115.0
2257,G#4,182.494,0.125,120,115.0
2258,E5,182.494,0.125,120,115.0
2259,E1,182.5,0.125,89,115.0
2260,E1,182.5,0.125,89,115.0
2261,F#2,182.5,0.094,74,115.0
2262,E1,182.75,73/500,92,115.0
2263,E1,182.75,73/500,92,115.0
2264,A1,183.0,0.406,89,115.0
2265,A1,183.0,0.406,89,115.0
2266,B1,183.0,0.25,113,115.0
2267,F#2,183.0,27/200,72,115.0
2268,F#2,183.25,167/1000,65,115.0
2269,A1,183.5,0.125,91,115.0
2270,A1,183.5,0.125,91,115.0
2271,F#2,183.5,27/200,77,115.0
2272,A1,183.75,0.125,93,115.0
2273,A1,183.75,0.125,93,115.0
2274,E2,183.969,0.031,76,115.0
2275,G5,183.99,23/200,97,115.0
2276,D5,183.99,23/200,97,115.0
2277,B5,183.99,23/200,97,115.0
2278,F#2,184.0,0.125,94,115.0
2279,F#2,184.0,0.125,94,115.0
2280,E2,184.0,0.125,90,115.0
2281,F#2,184.0,0.125,90,115.0
2282,G2,184.25,0.125,89,115.0
2283,G2,184.25,0.125,89,115.0
2284,B1,184.25,0.25,113,115.0
2285,G5,184.49,23/200,104,115.0
2286,D5,184.49,23/200,104,115.0
2287,B5,184.49,23/200,104,115.0
2288,A1,184.5,0.125,100,115.0
2289,A1,184.5,0.125,100,115.0
2290,A1,184.75,0.125,88,115.0
2291,A1,184.75,0.125,88,115.0
2292,G5,184.99,323/500,103,115.0
2293,B5,184.99,323/500,103,115.0
2294,D5,184.99,323/500,103,115.0
2295,G1,185.0,333/1000,89,115.0
2296,G1,185.0,333/1000,89,115.0
2297,B1,185.0,0.25,113,115.0
2298,G1,185.5,0.125,93,115.0
2299,G1,185.5,0.125,93,115.0
2300,B1,185.5,0.25,113,115.0
2301,D5,185.74,13/125,107,115.0
2302,B5,185.74,13/125,107,115.0
2303,G5,185.74,13/125,107,115.0
2304,G1,185.75,27/200,92,115.0
2305,G1,185.75,27/200,92,115.0
2306,E2,185.865,21/500,72,115.0
2307,E2,185.865,21/500,72,115.0
2308,E2,185.948,0.031,81,115.0
2309,E2,185.948,0.031,81,115.0
2310,E2,186.0,0.125,89,115.0
2311,E2,186.0,0.125,89,115.0
2312,F2,186.25,0.125,100,115.0
2313,F2,186.25,0.125,100,115.0
2314,E2,186.25,0.125,87,115.0
2315,G1,186.5,0.125,89,115.0
2316,G1,186.5,0.125,89,115.0
2317,E2,186.5,0.125,92,115.0
2318,E2,186.75,0.125,96,115.0
2319,G1,186.75,73/500,92,115.0
2320,G1,186.75,73/500,92,115.0
2321,G1,186.75,73/500,92,115.0
2322,G1,186.75,73/500,92,115.0
2323,E1,187.0,0.406,89,115.0
2324,E1,187.0,0.406,89,115.0
2325,B1,187.0,229/1000,81,115.0
2326,A3,187.0,229/1000,81,115.0
2327,B5,187.0,99/250,100,115.0
2328,G5,187.0,99/250,100,115.0
2329,E5,187.0,99/250,100,115.0
2330,F#2,187.25,0.156,77,115.0
2331,E1,187.5,0.125,91,115.0
2332,E1,187.5,0.125,91,115.0
2333,F#2,187.5,177/1000,65,115.0
2334,B5,187.5,103/200,100,115.0
2335,G5,187.5,103/200,100,115.0
2336,E5,187.5,103/200,100,115.0
2337,E1,187.75,0.125,93,115.0
2338,E1,187.75,0.125,93,115.0
2339,D4,187.994,0.156,99,115.0
2340,B4,187.994,0.156,99,115.0
2341,D2,188.0,0.125,94,115.0
2342,D2,188.0,0.125,94,115.0
2343,F#2,188.0,73/500,74,115.0
2344,B1,188.0,0.219,109,115.0
2345,E2,188.0,0.219,109,115.0
2346,F#2,188.25,73/500,55,115.0
2347,E2,188.25,0.125,94,115.0
2348,E2,188.25,0.125,94,115.0
2349,E2,188.25,0.125,94,115.0
2350,E2,188.25,0.125,94,115.0
2351,A4,188.494,23/200,108,115.0
2352,D4,188.494,23/200,108,115.0
2353,E1,188.5,0.125,100,115.0
2354,E1,188.5,0.125,100,115.0
2355,F#2,188.5,27/200,74,115.0
2356,E1,188.75,13/125,88,115.0
2357,E1,188.75,13/125,88,115.0
2358,A4,188.994,177/250,107,115.0
2359,D4,188.994,271/500,107,115.0
2360,E1,189.0,333/1000,89,115.0
2361,E1,189.0,333/1000,89,115.0
2362,F#2,189.0,0.156,74,115.0
2363,B1,189.0,0.25,113,115.0
2364,F#2,189.25,73/500,62,115.0
2365,E1,189.5,0.125,93,115.0
2366,E1,189.5,0.125,93,115.0
2367,F#2,189.5,73/500,74,115.0
2368,E4,189.744,0.125,100,115.0
2369,G4,189.744,0.125,100,115.0
2370,E1,189.75,27/200,92,115.0
2371,E1,189.75,27/200,92,115.0
2372,D2,190.0,0.125,89,115.0
2373,D2,190.0,0.125,89,115.0
2374,B1,190.0,0.188,109,115.0
2375,E2,190.0,0.188,109,115.0
2376,F#2,190.0,0.188,90,115.0
2377,E2,190.0,0.188,90,115.0
2378,D4,190.24,83/1000,118,115.0
2379,E2,190.25,0.125,100,115.0
2380,E2,190.25,0.125,100,115.0
2381,F#2,190.25,167/1000,67,115.0
2382,E4,190.49,83/1000,119,115.0
2383,E1,190.5,0.125,89,115.0
2384,E1,190.5,0.125,89,115.0
2385,F#2,190.5,0.125,74,115.0
2386,E4,190.74,83/1000,106,115.0
2387,E1,190.75,73/500,92,115.0
2388,E1,190.75,73/500,92,115.0
2389,D4,190.99,1/100,111,115.0
2390,D4,191.0,73/1000,111,115.0
2391,A1,191.0,0.406,89,115.0
2392,A1,191.0,0.406,89,115.0
2393,F#2,191.0,0.156,74,115.0
2394,B1,191.0,0.25,113,115.0
2395,E4,191.24,73/1000,116,115.0
2396,F#2,191.25,167/1000,67,115.0
2397,E4,191.494,73/500,104,115.0
2398,A4,191.494,73/500,104,115.0
2399,A1,191.5,0.125,91,115.0
2400,A1,191.5,0.125,91,115.0
2401,F#2,191.5,27/200,77,115.0
2402,A1,191.75,0.125,93,115.0
2403,A1,191.75,0.125,93,115.0
2404,F#2,192.0,0.125,100,115.0
2405,F#2,192.0,0.125,100,115.0
2406,F#2,192.0,27/200,77,115.0
2407,B1,192.0,99/500,109,115.0
2408,E2,192.0,99/500,109,115.0
2409,A4,192.244,23/200,104,115.0
2410,E4,192.244,23/200,104,115.0
2411,G2,192.25,0.125,100,115.0
2412,G2,192.25,0.125,100,115.0
2413,F#2,192.25,177/1000,64,115.0
2414,A1,192.5,0.125,100,115.0
2415,A1,192.5,0.125,100,115.0
2416,F#2,192.5,13/125,78,115.0
2417,A1,192.75,13/125,88,115.0
2418,A1,192.75,13/125,88,115.0
2419,G4,192.994,0.156,95,115.0
2420,E4,192.994,0.156,95,115.0
2421,G1,193.0,333/1000,89,115.0
2422,G1,193.0,333/1000,89,115.0
2423,F#2,193.0,73/500,74,115.0
2424,B1,193.0,0.25,113,115.0
2425,E4,193.244,27/200,94,115.0
2426,G4,193.244,27/200,94,115.0
2427,F#2,193.25,177/1000,65,115.0
2428,G4,193.494,0.125,100,115.0
2429,E4,193.494,0.125,100,115.0
2430,G1,193.5,0.125,93,115.0
2431,G1,193.5,0.125,93,115.0
2432,F#2,193.5,73/500,77,115.0
2433,E4,193.744,27/200,106,115.0
2434,G4,193.744,27/200,106,115.0
2435,G1,193.75,27/200,92,115.0
2436,G1,193.75,27/200,92,115.0
2437,B1,193.75,0.25,113,115.0
2438,E2,194.0,0.125,89,115.0
2439,E2,194.0,0.125,89,115.0
2440,E2,194.0,0.25,98,115.0
2441,F#2,194.0,0.25,98,115.0
2442,B1,194.0,0.25,98,115.0
2443,F2,194.25,0.125,100,115.0
2444,F2,194.25,0.125,100,115.0
2445,F#2,194.25,177/1000,67,115.0
2446,G1,194.5,0.125,89,115.0
2447,G1,194.5,0.125,89,115.0
2448,F#2,194.5,0.125,77,115.0
2449,G1,194.75,73/500,92,115.0
2450,G1,194.75,73/500,92,115.0
2451,G1,194.75,73/500,92,115.0
2452,G1,194.75,73/500,92,115.0
2453,E1,195.0,0.406,89,115.0
2454,E1,195.0,0.406,89,115.0
2455,F#2,195.0,27/200,77,115.0
2456,B1,195.0,0.25,113,115.0
2457,B5,195.0,99/250,100,115.0
2458,G5,195.0,99/250,100,115.0
2459,E5,195.0,99/250,100,115.0
2460,F#2,195.25,99/500,65,115.0
2461,E1,195.5,0.125,91,115.0
2462,E1,195.5,0.125,91,115.0
2463,F#2,195.5,13/125,77,115.0
2464,B5,195.5,103/200,100,115.0
2465,G5,195.5,103/200,100,115.0
2466,E5,195.5,103/200,100,115.0
2467,E1,195.75,0.125,93,115.0
2468,E1,195.75,0.125,93,115.0
2469,B4,195.994,0.125,100,115.0
2470,D4,195.994,0.125,100,115.0
2471,D2,196.0,0.125,94,115.0
2472,D2,196.0,0.125,94,115.0
2473,F#2,196.0,0.125,77,115.0
2474,B1,196.0,229/1000,109,115.0
2475,E2,196.0,229/1000,109,115.0
2476,F#2,196.25,177/1000,65,115.0
2477,E2,196.25,0.125,94,115.0
2478,E2,196.25,0.125,94,115.0
2479,E2,196.25,0.125,94,115.0
2480,E2,196.25,0.125,94,115.0
2481,A4,196.494,0.125,106,115.0
2482,D4,196.494,0.125,106,115.0
2483,E1,196.5,0.125,100,115.0
2484,E1,196.5,0.125,100,115.0
2485,F#2,196.5,23/200,77,115.0
2486,E1,196.75,0.125,88,115.0
2487,E1,196.75,0.125,88,115.0
2488,A4,196.994,677/1000,112,115.0
2489,D4,196.994,167/1000,109,115.0
2490,D3,197.0,0.125,89,115.0
2491,D3,197.0,0.125,89,115.0
2492,B1,197.0,0.25,113,115.0
2493,F#2,197.0,73/500,74,115.0
2494,D4,197.244,0.281,40,115.0
2495,E3,197.25,0.125,100,115.0
2496,E3,197.25,0.125,100,115.0
2497,F#2,197.25,0.156,65,115.0
2498,E1,197.5,0.125,93,115.0
2499,E1,197.5,0.125,93,115.0
2500,F#2,197.5,23/200,77,115.0
2501,G4,197.744,27/200,110,115.0
2502,D4,197.744,27/200,110,115.0
2503,E1,197.75,27/200,92,115.0
2504,E1,197.75,27/200,92,115.0
2505,D2,198.0,0.125,89,115.0
2506,D2,198.0,0.125,89,115.0
2507,B1,198.0,0.25,113,115.0
2508,E2,198.0,27/200,91,115.0
2509,F#2,198.0,27/200,91,115.0
2510,E2,198.25,0.125,100,115.0
2511,E2,198.25,0.125,100,115.0
2512,F#2,198.25,167/1000,67,115.0
2513,D4,198.5,26/125,113,115.0
2514,E1,198.5,0.125,89,115.0
2515,E1,198.5,0.125,89,115.0
2516,F#2,198.5,0.094,77,115.0
2517,E4,198.75,0.094,109,115.0
2518,E1,198.75,73/500,92,115.0
2519,E1,198.75,73/500,92,115.0
2520,A1,199.0,0.406,89,115.0
2521,A1,199.0,0.406,89,115.0
2522,B1,199.0,0.25,113,115.0
2523,F#2,199.0,27/200,77,115.0
2524,F#2,199.25,0.125,74,115.0
2525,E4,199.494,73/500,102,115.0
2526,A4,199.494,73/500,102,115.0
2527,A1,199.5,0.125,91,115.0
2528,A1,199.5,0.125,91,115.0
2529,E2,199.5,0.094,80,115.0
2530,F#2,199.5,0.094,80,115.0
2531,A1,199.75,0.125,93,115.0
2532,A1,199.75,0.125,93,115.0
2533,E2,199.75,0.125,87,115.0
2534,F#2,200.0,0.125,94,115.0
2535,F#2,200.0,0.125,94,115.0
2536,B1,200.0,0.25,113,115.0
2537,A4,200.244,0.125,105,115.0
2538,E4,200.244,0.125,105,115.0
2539,G2,200.25,0.125,89,115.0
2540,G2,200.25,0.125,89,115.0
2541,A1,200.5,0.125,100,115.0
2542,A1,200.5,0.125,100,115.0
2543,E2,200.5,0.125,95,115.0
2544,A1,200.75,0.125,88,115.0
2545,A1,200.75,0.125,88,115.0
2546,G4,200.994,27/200,100,115.0
2547,E4,200.994,27/200,100,115.0
2548,G1,201.0,333/1000,89,115.0
2549,G1,201.0,333/1000,89,115.0
2550,G4,201.244,27/200,97,115.0
2551,E4,201.244,27/200,97,115.0
2552,E2,201.25,0.125,92,115.0
2553,E4,201.494,23/200,94,115.0
2554,G4,201.494,23/200,94,115.0
2555,G1,201.5,0.125,93,115.0
2556,G1,201.5,0.125,93,115.0
2557,E2,201.5,0.125,97,115.0
2558,G4,201.744,0.125,100,115.0
2559,E4,201.744,0.125,100,115.0
2560,G1,201.75,27/200,92,115.0
2561,G1,201.75,27/200,92,115.0
2562,C3,201.75,27/200,78,115.0
2563,E2,202.0,0.125,89,115.0
2564,E2,202.0,0.125,89,115.0
2565,A2,202.0,27/200,76,115.0
2566,F2,202.25,0.125,100,115.0
2567,F2,202.25,0.125,100,115.0
2568,A2,202.25,27/200,78,115.0
2569,G1,202.5,0.125,89,115.0
2570,G1,202.5,0.125,89,115.0
2571,F2,202.5,0.125,83,115.0
2572,F2,202.75,0.125,88,115.0
2573,G1,202.75,73/500,92,115.0
2574,G1,202.75,73/500,92,115.0
2575,G1,202.75,73/500,92,115.0
2576,G1,202.75,73/500,92,115.0
2577,B2,202.99,1/100,96,115.0
2578,F#4,202.99,1/100,123,115.0
2579,B4,202.99,1/100,123,115.0
2580,B2,203.0,323/500,96,115.0
2581,B1,203.0,729/1000,100,115.0
2582,B1,203.0,729/1000,100,115.0
2583,A3,203.0,56/125,47,115.0
2584,B1,203.0,0.25,113,115.0
2585,F#4,203.0,521/1000,123,115.0
2586,B4,203.0,521/1000,123,115.0
2587,F#2,203.5,271/1000,70,115.0
2588,D3,203.99,177/250,96,115.0
2589,D4,203.99,0.438,123,115.0
2590,A4,203.99,323/500,119,115.0
2591,D2,203.99,667/1000,92,115.0
2592,D2,203.99,667/1000,92,115.0
2593,F#2,204.0,27/200,58,115.0
2594,B1,204.0,0.219,109,115.0
2595,E2,204.0,0.219,109,115.0
2596,F#2,204.5,0.25,65,115.0
2597,E3,204.99,1.25,97,115.0
2598,B4,204.99,1323/1000,123,115.0
2599,E4,204.99,1.188,127,115.0
2600,E2,204.99,1323/1000,93,115.0
2601,E2,204.99,1323/1000,93,115.0
2602,F#2,205.0,73/500,59,115.0
2603,B1,205.0,0.25,113,115.0
2604,E1,205.5,0.5,100,115.0
2605,E1,205.5,0.5,100,115.0
2606,F#2,205.5,0.25,67,115.0
2607,E3,206.0,0.5,100,115.0
2608,E3,206.0,0.5,100,115.0
2609,F#2,206.0,26/125,79,115.0
2610,E2,206.0,26/125,79,115.0
2611,B1,206.0,26/125,106,115.0
2612,E2,206.0,26/125,106,115.0
2613,F#2,206.5,6/25,63,115.0
2614,A1,206.75,0.125,100,115.0
2615,A1,206.75,0.125,100,115.0
2616,A2,206.99,1/100,96,115.0
2617,A1,206.99,1/100,92,115.0
2618,A1,206.99,1/100,92,115.0
2619,A2,207.0,19/25,96,115.0
2620,E5,207.0,99/250,123,115.0
2621,A1,207.0,667/1000,92,115.0
2622,A1,207.0,667/1000,92,115.0
2623,F#2,207.0,0.25,87,115.0
2624,B1,207.0,0.25,87,115.0
2625,C#6,207.49,417/1000,126,115.0
2626,C#3,207.5,0.5,100,115.0
2627,C#3,207.5,0.5,100,115.0
2628,F#2,207.5,229/1000,65,115.0
2629,G2,207.99,1.125,88,115.0
2630,G1,207.99,401/500,89,115.0
2631,G1,207.99,401/500,89,115.0
2632,D5,208.0,0.406,112,115.0
2633,E2,208.0,167/1000,91,115.0
2634,B1,208.0,167/1000,91,115.0
2635,F#2,208.0,167/1000,91,115.0
2636,B5,208.49,417/1000,121,115.0
2637,B2,208.5,0.5,100,115.0
2638,B2,208.5,0.5,100,115.0
2639,F#2,208.5,6/25,56,115.0
2640,F#2,209.0,0.156,56,115.0
2641,B1,209.0,0.25,113,115.0
2642,D3,209.49,151/100,104,115.0
2643,D2,209.49,1417/1000,92,115.0
2644,D2,209.49,1417/1000,92,115.0
2645,A5,209.49,1083/1000,121,115.0
2646,D5,209.49,1083/1000,121,115.0
2647,A3,209.5,151/250,46,115.0
2648,E2,209.5,271/1000,105,115.0
2649,B2,210.99,1/100,100,115.0
2650,B4,210.99,1/100,125,115.0
2651,F#4,210.99,1/100,125,115.0
2652,B1,210.99,1/100,94,115.0
2653,B1,210.99,1/100,94,115.0
2654,B1,210.99,1/100,94,115.0
2655,B1,210.99,1/100,94,115.0
2656,D3,211.0,0.188,104,115.0
2657,B2,211.0,0.75,100,115.0
2658,A3,211.0,99/250,45,115.0
2659,F#2,211.0,13/125,54,115.0
2660,B1,211.0,0.25,113,115.0
2661,B4,211.0,69/125,125,115.0
2662,F#4,211.0,69/125,125,115.0
2663,B1,211.0,771/1000,94,115.0
2664,B1,211.0,771/1000,94,115.0
2665,B1,211.0,771/1000,94,115.0
2666,B1,211.0,771/1000,94,115.0
2667,F#2,211.5,13/50,68,115.0
2668,D3,211.99,0.781,94,115.0
2669,A4,211.99,349/500,121,115.0
2670,D4,211.99,49/100,119,115.0
2671,D2,211.99,667/1000,92,115.0
2672,D2,211.99,667/1000,92,115.0
2673,E2,212.0,0.25,92,115.0
2674,F#2,212.0,0.25,92,115.0
2675,B1,212.0,0.25,92,115.0
2676,F#2,212.5,0.219,74,115.0
2677,E3,212.99,1.688,94,115.0
2678,E4,212.99,1323/1000,127,115.0
2679,B4,212.99,349/250,126,115.0
2680,E2,212.99,1323/1000,93,115.0
2681,E2,212.99,1323/1000,93,115.0
2682,F#2,213.0,167/1000,58,115.0
2683,B1,213.0,0.25,113,115.0
2684,E1,213.5,0.5,100,115.0
2685,E1,213.5,0.5,100,115.0
2686,F#2,213.5,26/125,68,115.0
2687,E3,214.0,0.5,100,115.0
2688,E3,214.0,0.5,100,115.0
2689,B1,214.0,0.188,109,115.0
2690,E2,214.0,0.188,109,115.0
2691,F#2,214.0,0.188,82,115.0
2692,E2,214.0,0.188,82,115.0
2693,F#2,214.5,177/1000,70,115.0
2694,A1,214.75,0.125,100,115.0
2695,A1,214.75,0.125,100,115.0
2696,A2,214.99,1/100,96,115.0
2697,A1,214.99,1/100,92,115.0
2698,A1,214.99,1/100,92,115.0
2699,A2,215.0,771/1000,96,115.0
2700,E5,215.0,0.438,121,115.0
2701,A1,215.0,667/1000,92,115.0
2702,A1,215.0,667/1000,92,115.0
2703,F#2,215.0,0.125,54,115.0
2704,B1,215.0,0.25,113,115.0
2705,C#6,215.49,56/125,121,115.0
2706,C#3,215.5,0.5,100,115.0
2707,C#3,215.5,0.5,100,115.0
2708,F#2,215.5,26/125,77,115.0
2709,G2,215.99,1073/1000,88,115.0
2710,G1,215.99,401/500,89,115.0
2711,G1,215.99,401/500,89,115.0
2712,D5,216.0,56/125,103,115.0
2713,F#2,216.0,0.125,55,115.0
2714,B1,216.0,26/125,109,115.0
2715,E2,216.0,26/125,109,115.0
2716,B5,216.49,0.438,121,115.0
2717,B2,216.5,0.5,100,115.0
2718,B2,216.5,0.5,100,115.0
2719,F#2,216.5,26/125,70,115.0
2720,C3,216.75,83/1000,78,115.0
2721,C3,216.875,13/125,76,115.0
2722,F#2,217.0,0.125,68,115.0
2723,C3,217.0,0.125,68,115.0
2724,D3,217.49,151/100,101,115.0
2725,D2,217.49,1417/1000,92,115.0
2726,D2,217.49,1417/1000,92,115.0
2727,A5,217.49,573/500,123,115.0
2728,D5,217.49,573/500,123,115.0
2729,B1,217.5,0.25,113,115.0
2730,A3,217.5,0.438,44,115.0
2731,B2,218.99,1/100,100,115.0
2732,D4,218.99,1/100,121,115.0
2733,F#4,218.99,1/100,123,115.0
2734,B1,218.99,1/100,94,115.0
2735,B1,218.99,1/100,94,115.0
2736,B1,218.99,1/100,94,115.0
2737,B1,218.99,1/100,94,115.0
2738,D3,219.0,13/50,101,115.0
2739,B2,219.0,0.719,100,115.0
2740,D4,219.0,427/1000,121,115.0
2741,F#4,219.0,0.531,123,115.0
2742,B1,219.0,0.25,113,115.0
2743,A3,219.0,51/100,44,115.0
2744,B1,219.0,771/1000,94,115.0
2745,B1,219.0,771/1000,94,115.0
2746,B1,219.0,771/1000,94,115.0
2747,B1,219.0,771/1000,94,115.0
2748,F#2,219.5,6/25,78,115.0
2749,D3,219.99,349/500,96,115.0
2750,A4,219.99,323/500,108,115.0
2751,D4,219.99,0.5,126,115.0
2752,D2,219.99,667/1000,92,115.0
2753,D2,219.99,667/1000,92,115.0
2754,B1,220.0,0.25,113,115.0
2755,E2,220.0,167/1000,85,115.0
2756,F#2,220.0,167/1000,85,115.0
2757,F#2,220.5,26/125,72,115.0
2758,E3,220.99,1.25,91,115.0
2759,E2,220.99,1323/1000,93,115.0
2760,E2,220.99,1323/1000,93,115.0
2761,B4,220.99,237/250,122,115.0
2762,E4,220.99,237/250,122,115.0
2763,B1,221.0,0.25,113,115.0
2764,F#2,221.0,167/1000,54,115.0
2765,E1,221.5,0.5,100,115.0
2766,E1,221.5,0.5,100,115.0
2767,F#2,221.5,99/500,67,115.0
2768,E3,222.0,0.5,100,115.0
2769,E3,222.0,0.5,100,115.0
2770,F#2,222.0,167/1000,55,115.0
2771,B1,222.0,26/125,109,115.0
2772,E2,222.0,26/125,109,115.0
2773,F#2,222.5,177/1000,67,115.0
2774,A1,222.75,0.125,100,115.0
2775,A1,222.75,0.125,100,115.0
2776,A2,222.99,1/100,91,115.0
2777,A1,222.99,1/100,92,115.0
2778,A1,222.99,1/100,92,115.0
2779,A2,223.0,771/1000,91,115.0
2780,E5,223.0,333/1000,127,115.0
2781,A1,223.0,667/1000,92,115.0
2782,A1,223.0,667/1000,92,115.0
2783,B1,223.0,0.25,113,115.0
2784,F#2,223.0,167/1000,55,115.0
2785,C#6,223.49,0.344,127,115.0
2786,C#3,223.5,0.5,100,115.0
2787,C#3,223.5,0.5,100,115.0
2788,F#2,223.5,0.188,72,115.0
2789,G2,223.99,1.156,96,115.0
2790,G1,223.99,401/500,89,115.0
2791,G1,223.99,401/500,89,115.0
2792,D5,224.0,0.375,123,115.0
2793,E2,224.0,167/1000,82,115.0
2794,F#2,224.0,167/1000,82,115.0
2795,B5,224.49,427/1000,127,115.0
2796,B2,224.5,0.5,100,115.0
2797,B2,224.5,0.5,100,115.0
2798,F#2,224.5,177/1000,68,115.0
2799,C3,224.75,0.125,90,115.0
2800,E2,225.0,27/200,85,115.0
2801,F#2,225.0,27/200,85,115.0
2802,D3,225.49,151/100,100,115.0
2803,D2,225.49,1417/1000,92,115.0
2804,D2,225.49,1417/1000,92,115.0
2805,A5,225.49,173/200,124,115.0
2806,D5,225.49,173/200,124,115.0
2807,A3,225.5,583/1000,44,115.0
2808,B1,225.5,0.25,113,115.0
2809,B2,226.99,1/100,100,115.0
2810,F#4,226.99,1/100,124,115.0
2811,B4,226.99,1/100,124,115.0
2812,B1,226.99,1/100,94,115.0
2813,B1,226.99,1/100,94,115.0
2814,B1,226.99,1/100,94,115.0
2815,B1,226.99,1/100,94,115.0
2816,D3,227.0,0.156,100,115.0
2817,B2,227.0,349/500,100,115.0
2818,F#2,227.0,73/1000,52,115.0
2819,B1,227.0,0.25,113,115.0
2820,A3,227.0,49/100,45,115.0
2821,F#4,227.0,0.656,124,115.0
2822,B4,227.0,0.656,124,115.0
2823,B1,227.0,771/1000,94,115.0
2824,B1,227.0,771/1000,94,115.0
2825,B1,227.0,771/1000,94,115.0
2826,B1,227.0,771/1000,94,115.0
2827,F#2,227.5,177/1000,77,115.0
2828,D3,227.99,0.781,100,115.0
2829,A4,227.99,37/50,126,115.0
2830,D4,227.99,0.5,126,115.0
2831,D2,227.99,667/1000,92,115.0
2832,D2,227.99,667/1000,92,115.0
2833,F#2,228.0,83/1000,50,115.0
2834,B1,228.0,6/25,109,115.0
2835,E2,228.0,6/25,109,115.0
2836,F#2,228.5,167/1000,72,115.0
2837,E3,228.99,1.5,94,115.0
2838,E4,228.99,1.125,127,115.0
2839,B4,228.99,1.219,126,115.0
2840,E2,228.99,1323/1000,93,115.0
2841,E2,228.99,1323/1000,93,115.0
2842,F#2,229.0,27/200,46,115.0
2843,B1,229.0,0.25,113,115.0
2844,E1,229.5,0.5,100,115.0
2845,E1,229.5,0.5,100,115.0
2846,F#2,229.5,167/1000,74,115.0
2847,E3,230.0,0.5,100,115.0
2848,E3,230.0,0.5,100,115.0
2849,B1,230.0,0.25,113,115.0
2850,F#2,230.0,0.188,90,115.0
2851,E2,230.0,0.188,90,115.0
2852,E2,230.5,0.094,80,115.0
2853,F#2,230.5,0.094,80,115.0
2854,E2,230.667,0.125,82,115.0
2855,A1,230.75,0.125,100,115.0
2856,A1,230.75,0.125,100,115.0
2857,E2,230.833,0.125,87,115.0
2858,A2,230.99,1/100,92,115.0
2859,A1,230.99,1/100,92,115.0
2860,A1,230.99,1/100,92,115.0
2861,A2,231.0,0.781,92,115.0
2862,E5,231.0,99/250,126,115.0
2863,A1,231.0,667/1000,92,115.0
2864,A1,231.0,667/1000,92,115.0
2865,B1,231.0,0.25,113,115.0
2866,C3,231.25,0.125,79,115.0
2867,C3,231.375,0.125,73,115.0
2868,C#6,231.49,417/1000,121,115.0
2869,C#3,231.5,0.5,100,115.0
2870,C#3,231.5,0.5,100,115.0
2871,F#2,231.5,23/200,76,115.0
2872,C3,231.5,23/200,76,115.0
2873,G2,231.99,979/1000,88,115.0
2874,G1,231.99,401/500,89,115.0
2875,G1,231.99,401/500,89,115.0
2876,D5,232.0,99/250,123,115.0
2877,A2,232.0,73/1000,64,115.0
2878,F#2,232.0,73/1000,64,115.0
2879,A2,232.125,0.125,66,115.0
2880,A2,232.25,0.125,71,115.0
2881,F2,232.375,0.125,83,115.0
2882,B5,232.49,99/250,126,115.0
2883,B2,232.5,0.5,100,115.0
2884,B2,232.5,0.5,100,115.0
2885,F2,232.5,177/1000,76,115.0
2886,F#2,232.5,177/1000,76,115.0
2887,F2,232.625,83/1000,64,115.0
2888,F2,232.75,0.125,83,115.0
2889,F2,232.875,23/200,67,115.0
2890,F#2,233.0,0.125,62,115.0
2891,F2,233.0,0.125,62,115.0
2892,D3,233.49,151/100,101,115.0
2893,D2,233.49,1417/1000,92,115.0
2894,D2,233.49,1417/1000,92,115.0
2895,A5,233.49,31/25,127,115.0
2896,D5,233.49,31/25,127,115.0
2897,B1,233.5,0.25,113,115.0
2898,A3,233.5,0.344,47,115.0
2899,E2,234.5,0.125,89,115.0
2900,E2,234.75,0.125,92,115.0
2901,D3,235.0,73/200,101,115.0
2902,E1,235.0,0.406,89,115.0
2903,E1,235.0,0.406,89,115.0
2904,A3,235.0,0.25,80,115.0
2905,B1,235.0,0.25,80,115.0
2906,F#2,235.25,0.188,74,115.0
2907,E1,235.5,0.125,91,115.0
2908,E1,235.5,0.125,91,115.0
2909,D4,235.5,73/500,64,115.0
2910,F#4,235.5,73/500,64,115.0
2911,F#2,235.5,73/500,64,115.0
2912,E1,235.75,0.125,93,115.0
2913,E1,235.75,0.125,93,115.0
2914,D4,235.75,23/200,77,115.0
2915,D2,236.0,0.125,94,115.0
2916,D2,236.0,0.125,94,115.0
2917,F#4,236.0,0.188,77,115.0
2918,F#2,236.0,0.188,77,115.0
2919,E2,236.0,0.188,77,115.0
2920,B1,236.0,0.188,109,115.0
2921,E2,236.0,0.188,109,115.0
2922,F#2,236.25,0.156,67,115.0
2923,E2,236.25,0.125,94,115.0
2924,E2,236.25,0.125,94,115.0
2925,E2,236.25,0.125,94,115.0
2926,E2,236.25,0.125,94,115.0
2927,E1,236.5,0.125,100,115.0
2928,E1,236.5,0.125,100,115.0
2929,F#2,236.5,27/200,74,115.0
2930,E1,236.75,13/125,88,115.0
2931,E1,236.75,13/125,88,115.0
2932,F#2,236.75,0.125,58,115.0
2933,E1,237.0,333/1000,89,115.0
2934,E1,237.0,333/1000,89,115.0
2935,B1,237.0,0.25,113,115.0
2936,F#2,237.0,0.125,72,115.0
2937,F#2,237.25,27/200,65,115.0
2938,E1,237.5,0.125,93,115.0
2939,E1,237.5,0.125,93,115.0
2940,F#2,237.5,0.125,78,115.0
2941,D4,237.5,0.125,78,115.0
2942,E1,237.75,27/200,92,115.0
2943,E1,237.75,27/200,92,115.0
2944,F#2,237.75,23/200,74,115.0
2945,D4,237.75,23/200,74,115.0
2946,D2,238.0,0.125,89,115.0
2947,D2,238.0,0.125,89,115.0
2948,B1,238.0,0.25,113,115.0
2949,E2,238.0,73/500,90,115.0
2950,F#2,238.0,73/500,90,115.0
2951,E2,238.25,0.125,100,115.0
2952,E2,238.25,0.125,100,115.0
2953,F#2,238.25,167/1000,67,115.0
2954,E1,238.5,0.125,89,115.0
2955,E1,238.5,0.125,89,115.0
2956,F#2,238.5,0.125,77,115.0
2957,E1,238.75,73/500,92,115.0
2958,E1,238.75,73/500,92,115.0
2959,A1,239.0,0.406,89,115.0
2960,A1,239.0,0.406,89,115.0
2961,F#2,239.0,27/200,74,115.0
2962,B1,239.0,0.25,113,115.0
2963,F#2,239.25,0.156,65,115.0
2964,A1,239.5,0.125,91,115.0
2965,A1,239.5,0.125,91,115.0
2966,F#4,239.5,13/50,62,115.0
2967,F#2,239.5,0.094,74,115.0
2968,D4,239.5,0.094,74,115.0
2969,A1,239.75,0.125,93,115.0
2970,A1,239.75,0.125,93,115.0
2971,D4,239.75,13/125,75,115.0
2972,F#2,240.0,0.125,100,115.0
2973,F#2,240.0,0.125,100,115.0
2974,B1,240.0,0.25,113,115.0
2975,F#2,240.0,167/1000,89,115.0
2976,E2,240.0,167/1000,89,115.0
2977,G2,240.25,0.125,100,115.0
2978,G2,240.25,0.125,100,115.0
2979,F#2,240.25,0.156,67,115.0
2980,A1,240.5,0.125,100,115.0
2981,A1,240.5,0.125,100,115.0
2982,F#2,240.5,0.125,74,115.0
2983,A1,240.75,13/125,88,115.0
2984,A1,240.75,13/125,88,115.0
2985,F#2,240.75,73/500,65,115.0
2986,G1,241.0,333/1000,89,115.0
2987,G1,241.0,333/1000,89,115.0
2988,F#2,241.0,73/500,74,115.0
2989,B1,241.0,0.25,113,115.0
2990,F#2,241.25,177/1000,67,115.0
2991,G1,241.5,0.125,93,115.0
2992,G1,241.5,0.125,93,115.0
2993,F#2,241.5,0.125,80,115.0
2994,D4,241.5,0.125,80,115.0
2995,G1,241.75,27/200,92,115.0
2996,G1,241.75,27/200,92,115.0
2997,D4,241.75,0.156,74,115.0
2998,F#2,241.75,0.156,74,115.0
2999,E2,242.0,0.125,89,115.0
3000,E2,242.0,0.125,89,115.0
3001,E2,242.0,0.25,98,115.0
3002,F#2,242.0,0.25,98,115.0
3003,B1,242.0,0.25,98,115.0
3004,F2,242.25,0.125,100,115.0
3005,F2,242.25,0.125,100,115.0
3006,F#2,242.25,0.188,65,115.0
3007,G1,242.5,0.125,89,115.0
3008,G1,242.5,0.125,89,115.0
3009,F#2,242.5,177/1000,77,115.0
3010,G1,242.75,73/500,92,115.0
3011,G1,242.75,73/500,92,115.0
3012,G1,242.75,73/500,92,115.0
3013,G1,242.75,73/500,92,115.0
3014,E1,243.0,0.406,89,115.0
3015,E1,243.0,0.406,89,115.0
3016,B1,243.0,0.25,113,115.0
3017,F#2,243.0,27/200,77,115.0
3018,F#2,243.25,0.156,63,115.0
3019,E1,243.5,0.125,91,115.0
3020,E1,243.5,0.125,91,115.0
3021,F#4,243.5,99/500,64,115.0
3022,F#2,243.5,0.125,80,115.0
3023,D4,243.5,0.125,80,115.0
3024,E1,243.75,0.125,93,115.0
3025,E1,243.75,0.125,93,115.0
3026,D4,243.75,23/200,83,115.0
3027,D2,244.0,0.125,94,115.0
3028,D2,244.0,0.125,94,115.0
3029,F#4,244.0,73/500,77,115.0
3030,E2,244.0,73/500,77,115.0
3031,F#2,244.0,73/500,77,115.0
3032,B1,244.0,0.188,109,115.0
3033,E2,244.0,0.188,109,115.0
3034,F#2,244.25,27/200,62,115.0
3035,E2,244.25,0.125,94,115.0
3036,E2,244.25,0.125,94,115.0
3037,E2,244.25,0.125,94,115.0
3038,E2,244.25,0.125,94,115.0
3039,E1,244.5,0.125,100,115.0
3040,E1,244.5,0.125,100,115.0
3041,F#2,244.5,0.156,70,115.0
3042,E1,244.75,0.125,88,115.0
3043,E1,244.75,0.125,88,115.0
3044,F#2,244.75,0.156,55,115.0
3045,D3,245.0,0.125,89,115.0
3046,D3,245.0,0.125,89,115.0
3047,B1,245.0,0.25,113,115.0
3048,F#2,245.0,27/200,70,115.0
3049,E3,245.25,0.125,100,115.0
3050,E3,245.25,0.125,100,115.0
3051,F#2,245.25,0.156,56,115.0
3052,E1,245.5,0.125,93,115.0
3053,E1,245.5,0.125,93,115.0
3054,F#2,245.5,73/500,73,115.0
3055,D4,245.5,73/500,73,115.0
3056,E1,245.75,27/200,92,115.0
3057,E1,245.75,27/200,92,115.0
3058,D4,245.75,0.156,74,115.0
3059,F#2,245.75,0.156,74,115.0
3060,D2,246.0,0.125,89,115.0
3061,D2,246.0,0.125,89,115.0
3062,B1,246.0,0.25,113,115.0
3063,E2,246.0,0.125,86,115.0
3064,F#2,246.0,0.125,86,115.0
3065,E2,246.25,0.125,100,115.0
3066,E2,246.25,0.125,100,115.0
3067,F#2,246.25,0.156,64,115.0
3068,E1,246.5,0.125,89,115.0
3069,E1,246.5,0.125,89,115.0
3070,F#2,246.5,13/125,74,115.0
3071,E1,246.75,73/500,92,115.0
3072,E1,246.75,73/500,92,115.0
3073,A1,247.0,0.406,89,115.0
3074,A1,247.0,0.406,89,115.0
3075,B1,247.0,0.25,113,115.0
3076,F#2,247.0,73/500,74,115.0
3077,F#2,247.25,177/1000,67,115.0
3078,A1,247.5,0.125,91,115.0
3079,A1,247.5,0.125,91,115.0
3080,F#4,247.5,0.344,62,115.0
3081,F#2,247.5,73/500,78,115.0
3082,D4,247.5,73/500,78,115.0
3083,A1,247.75,0.125,93,115.0
3084,A1,247.75,0.125,93,115.0
3085,D4,247.75,0.125,83,115.0
3086,F#2,248.0,0.125,94,115.0
3087,F#2,248.0,0.125,94,115.0
3088,B1,248.0,0.25,113,115.0
3089,F#2,248.0,73/500,90,115.0
3090,E2,248.0,73/500,90,115.0
3091,G2,248.25,0.125,89,115.0
3092,G2,248.25,0.125,89,115.0
3093,F#2,248.25,0.156,67,115.0
3094,A1,248.5,0.125,100,115.0
3095,A1,248.5,0.125,100,115.0
3096,F#2,248.5,0.125,72,115.0
3097,A1,248.75,0.125,88,115.0
3098,A1,248.75,0.125,88,115.0
3099,F#2,248.75,27/200,56,115.0
3100,G1,249.0,333/1000,89,115.0
3101,G1,249.0,333/1000,89,115.0
3102,F#2,249.0,0.156,74,115.0
3103,B1,249.0,0.25,113,115.0
3104,F#2,249.25,0.156,56,115.0
3105,G1,249.5,0.125,93,115.0
3106,G1,249.5,0.125,93,115.0
3107,F#2,249.5,0.219,77,115.0
3108,D4,249.5,0.219,77,115.0
3109,A2,249.5,0.219,77,115.0
3110,G1,249.75,27/200,92,115.0
3111,G1,249.75,27/200,92,115.0
3112,F#2,249.75,0.125,68,115.0
3113,D4,249.75,0.125,68,115.0
3114,E2,250.0,0.125,89,115.0
3115,E2,250.0,0.125,89,115.0
3116,B1,250.0,0.25,113,115.0
3117,F#2,250.0,177/1000,90,115.0
3118,E2,250.0,177/1000,90,115.0
3119,F2,250.25,0.125,100,115.0
3120,F2,250.25,0.125,100,115.0
3121,F#2,250.25,229/1000,72,115.0
3122,F2,250.25,229/1000,72,115.0
3123,G1,250.5,0.125,89,115.0
3124,G1,250.5,0.125,89,115.0
3125,F#2,250.5,0.125,57,115.0
3126,F#4,250.5,0.125,57,115.0
3127,G1,250.75,73/500,92,115.0
3128,G1,250.75,73/500,92,115.0
3129,G1,250.75,73/500,92,115.0
3130,G1,250.75,73/500,92,115.0
3131,E1,251.0,0.406,89,115.0
3132,E1,251.0,0.406,89,115.0
3133,B1,251.0,0.25,113,115.0
3134,F#2,251.0,27/200,74,115.0
3135,F#2,251.25,0.156,64,115.0
3136,E1,251.5,0.125,91,115.0
3137,E1,251.5,0.125,91,115.0
3138,F#4,251.5,0.156,74,115.0
3139,F#2,251.5,0.156,74,115.0
3140,D4,251.5,0.156,74,115.0
3141,E1,251.75,0.125,93,115.0
3142,E1,251.75,0.125,93,115.0
3143,D4,251.75,27/200,82,115.0
3144,D2,252.0,0.125,94,115.0
3145,D2,252.0,0.125,94,115.0
3146,B1,252.0,0.25,113,115.0
3147,F#2,252.0,73/500,90,115.0
3148,E2,252.0,73/500,90,115.0
3149,F#2,252.25,73/500,59,115.0
3150,E2,252.25,0.125,94,115.0
3151,E2,252.25,0.125,94,115.0
3152,E2,252.25,0.125,94,115.0
3153,E2,252.25,0.125,94,115.0
3154,E1,252.5,0.125,100,115.0
3155,E1,252.5,0.125,100,115.0
3156,F#2,252.5,27/200,67,115.0
3157,E1,252.75,13/125,88,115.0
3158,E1,252.75,13/125,88,115.0
3159,F#2,252.75,73/500,58,115.0
3160,E1,253.0,333/1000,89,115.0
3161,E1,253.0,333/1000,89,115.0
3162,B1,253.0,0.25,113,115.0
3163,F#2,253.0,177/1000,74,115.0
3164,F#2,253.25,167/1000,61,115.0
3165,E1,253.5,0.125,93,115.0
3166,E1,253.5,0.125,93,115.0
3167,D4,253.5,0.156,76,115.0
3168,F#2,253.5,0.156,76,115.0
3169,E1,253.75,27/200,92,115.0
3170,E1,253.75,27/200,92,115.0
3171,F#2,253.75,73/500,69,115.0
3172,D4,253.75,73/500,69,115.0
3173,D2,254.0,0.125,89,115.0
3174,D2,254.0,0.125,89,115.0
3175,B1,254.0,0.25,113,115.0
3176,F#2,254.0,73/500,88,115.0
3177,E2,254.0,73/500,88,115.0
3178,E2,254.25,0.125,100,115.0
3179,E2,254.25,0.125,100,115.0
3180,F#2,254.25,167/1000,65,115.0
3181,E1,254.5,0.125,89,115.0
3182,E1,254.5,0.125,89,115.0
3183,F#2,254.5,23/200,69,115.0
3184,E1,254.75,73/500,92,115.0
3185,E1,254.75,73/500,92,115.0
3186,A1,255.0,0.406,89,115.0
3187,A1,255.0,0.406,89,115.0
3188,B1,255.0,0.25,113,115.0
3189,F#2,255.0,27/200,77,115.0
3190,F#2,255.25,177/1000,67,115.0
3191,A1,255.5,0.125,91,115.0
3192,A1,255.5,0.125,91,115.0
3193,F#4,255.5,229/1000,64,115.0
3194,D4,255.5,73/500,76,115.0
3195,F#2,255.5,73/500,76,115.0
3196,A1,255.75,0.125,93,115.0
3197,A1,255.75,0.125,93,115.0
3198,D4,255.75,73/500,79,115.0
3199,F#2,256.0,0.125,100,115.0
3200,F#2,256.0,0.125,100,115.0
3201,B1,256.0,0.25,113,115.0
3202,F#2,256.0,73/500,90,115.0
3203,E2,256.0,73/500,90,115.0
3204,G2,256.25,0.125,100,115.0
3205,G2,256.25,0.125,100,115.0
3206,F#2,256.25,167/1000,65,115.0
3207,A1,256.5,0.125,100,115.0
3208,A1,256.5,0.125,100,115.0
3209,F#2,256.5,73/500,74,115.0
3210,A1,256.75,13/125,88,115.0
3211,A1,256.75,13/125,88,115.0
3212,F#2,256.75,99/500,67,115.0
3213,G1,257.0,333/1000,89,115.0
3214,G1,257.0,333/1000,89,115.0
3215,F#2,257.0,0.156,70,115.0
3216,B1,257.0,0.25,113,115.0
3217,F#2,257.25,0.156,58,115.0
3218,G1,257.5,0.125,93,115.0
3219,G1,257.5,0.125,93,115.0
3220,F#2,257.5,73/500,78,115.0
3221,D4,257.5,73/500,78,115.0
3222,G1,257.75,27/200,92,115.0
3223,G1,257.75,27/200,92,115.0
3224,F#2,257.75,0.125,69,115.0
3225,D4,257.75,0.125,69,115.0
3226,E2,258.0,0.125,89,115.0
3227,E2,258.0,0.125,89,115.0
3228,B1,258.0,0.25,113,115.0
3229,E2,258.0,177/1000,87,115.0
3230,F#2,258.0,177/1000,87,115.0
3231,F2,258.25,0.125,100,115.0
3232,F2,258.25,0.125,100,115.0
3233,F#2,258.25,177/1000,61,115.0
3234,G1,258.5,0.125,89,115.0
3235,G1,258.5,0.125,89,115.0
3236,F#2,258.5,23/200,77,115.0
3237,G1,258.75,73/500,92,115.0
3238,G1,258.75,73/500,92,115.0
3239,G1,258.75,73/500,92,115.0
3240,G1,258.75,73/500,92,115.0
3241,E1,259.0,0.406,89,115.0
3242,E1,259.0,0.406,89,115.0
3243,F#2,259.0,73/500,74,115.0
3244,B1,259.0,0.25,113,115.0
3245,F#2,259.25,177/1000,64,115.0
3246,E1,259.5,0.125,91,115.0
3247,E1,259.5,0.125,91,115.0
3248,F#2,259.5,177/1000,73,115.0
3249,D4,259.5,177/1000,73,115.0
3250,F#4,259.5,177/1000,73,115.0
3251,E1,259.75,0.125,93,115.0
3252,E1,259.75,0.125,93,115.0
3253,D4,259.75,0.125,83,115.0
3254,D2,260.0,0.125,94,115.0
3255,D2,260.0,0.125,94,115.0
3256,B1,260.0,0.25,113,115.0
3257,E2,260.0,0.156,75,115.0
3258,F#4,260.0,0.156,75,115.0
3259,F#2,260.0,0.156,75,115.0
3260,F#2,260.25,177/1000,63,115.0
3261,E2,260.25,0.125,94,115.0
3262,E2,260.25,0.125,94,115.0
3263,E2,260.25,0.125,94,115.0
3264,E2,260.25,0.125,94,115.0
3265,E1,260.5,0.125,100,115.0
3266,E1,260.5,0.125,100,115.0
3267,F#2,260.5,27/200,72,115.0
3268,E1,260.75,0.125,88,115.0
3269,E1,260.75,0.125,88,115.0
3270,F#2,260.75,167/1000,58,115.0
3271,D3,261.0,0.125,89,115.0
3272,D3,261.0,0.125,89,115.0
3273,B1,261.0,0.25,113,115.0
3274,F#2,261.0,0.156,69,115.0
3275,E3,261.25,0.125,100,115.0
3276,E3,261.25,0.125,100,115.0
3277,F#2,261.25,0.156,59,115.0
3278,E1,261.5,0.125,93,115.0
3279,E1,261.5,0.125,93,115.0
3280,F#2,261.5,73/500,78,115.0
3281,D4,261.5,73/500,78,115.0
3282,E1,261.75,27/200,92,115.0
3283,E1,261.75,27/200,92,115.0
3284,D4,261.75,0.156,69,115.0
3285,F#2,261.75,0.156,69,115.0
3286,D2,262.0,0.125,89,115.0
3287,D2,262.0,0.125,89,115.0
3288,B1,262.0,0.25,113,115.0
3289,F#2,262.0,177/1000,87,115.0
3290,E2,262.0,177/1000,87,115.0
3291,E2,262.25,0.125,100,115.0
3292,E2,262.25,0.125,100,115.0
3293,F#2,262.25,177/1000,62,115.0
3294,E1,262.5,0.125,89,115.0
3295,E1,262.5,0.125,89,115.0
3296,F#2,262.5,27/200,72,115.0
3297,E1,262.75,73/500,92,115.0
3298,E1,262.75,73/500,92,115.0
3299,A1,263.0,0.406,89,115.0
3300,A1,263.0,0.406,89,115.0
3301,F#2,263.0,27/200,74,115.0
3302,B1,263.0,0.25,113,115.0
3303,F#2,263.25,0.188,65,115.0
3304,E2,263.469,0.031,81,115.0
3305,A1,263.5,0.125,91,115.0
3306,A1,263.5,0.125,91,115.0
3307,D4,263.5,0.125,80,115.0
3308,E2,263.5,0.125,80,115.0
3309,F#4,263.5,0.125,80,115.0
3310,F#2,263.5,0.125,80,115.0
3311,A1,263.75,0.125,93,115.0
3312,A1,263.75,0.125,93,115.0
3313,D4,263.75,23/200,86,115.0
3314,F#2,264.0,0.125,94,115.0
3315,F#2,264.0,0.125,94,115.0
3316,E2,264.0,0.125,94,115.0
3317,G2,264.25,0.125,89,115.0
3318,G2,264.25,0.125,89,115.0
3319,A1,264.5,0.125,100,115.0
3320,A1,264.5,0.125,100,115.0
3321,B1,264.5,6/25,81,115.0
3322,A3,264.5,6/25,81,115.0
3323,A1,264.75,0.125,88,115.0
3324,A1,264.75,0.125,88,115.0
3325,G1,265.0,333/1000,89,115.0
3326,G1,265.0,333/1000,89,115.0
3327,E2,265.25,0.125,78,115.0
3328,G1,265.5,0.125,93,115.0
3329,G1,265.5,0.125,93,115.0
3330,D4,265.5,0.125,84,115.0
3331,E2,265.5,0.125,84,115.0
3332,G1,265.75,27/200,92,115.0
3333,G1,265.75,27/200,92,115.0
3334,E2,265.75,27/200,82,115.0
3335,D4,265.75,27/200,82,115.0
3336,E2,266.0,0.125,89,115.0
3337,E2,266.0,0.125,89,115.0
3338,E2,266.0,0.125,87,115.0
3339,F2,266.25,0.125,100,115.0
3340,F2,266.25,0.125,100,115.0
3341,E2,266.25,0.125,92,115.0
3342,G1,266.5,0.125,89,115.0
3343,G1,266.5,0.125,89,115.0
3344,E2,266.5,0.125,96,115.0
3345,B1,266.75,0.25,113,115.0
3346,G1,266.75,73/500,92,115.0
3347,G1,266.75,73/500,92,115.0
3348,G1,266.75,73/500,92,115.0
3349,G1,266.75,73/500,92,115.0
3350,G#3,266.994,3/500,112,115.0
3351,E1,267.0,0.406,89,115.0
3352,E1,267.0,0.406,89,115.0
3353,B1,267.0,0.25,113,115.0
3354,G#3,267.0,21/40,112,115.0
3355,A3,267.0,23/200,60,115.0
3356,F#2,267.0,23/200,60,115.0
3357,E3,267.494,26/125,109,115.0
3358,E1,267.5,0.125,91,115.0
3359,E1,267.5,0.125,91,115.0
3360,D4,267.5,0.156,89,115.0
3361,B-2,267.5,56/125,80,115.0
3362,D4,267.74,27/200,88,115.0
3363,D3,267.744,0.156,112,115.0
3364,E1,267.75,0.125,93,115.0
3365,E1,267.75,0.125,93,115.0
3366,D4,267.75,27/200,79,115.0
3367,D5,267.99,0.375,80,115.0
3368,D2,268.0,0.125,94,115.0
3369,D2,268.0,0.125,94,115.0
3370,B1,268.0,0.25,113,115.0
3371,F#2,268.0,167/1000,86,115.0
3372,E2,268.0,167/1000,86,115.0
3373,D3,268.244,73/500,105,115.0
3374,F#2,268.25,0.156,61,115.0
3375,E2,268.25,0.125,94,115.0
3376,E2,268.25,0.125,94,115.0
3377,E2,268.25,0.125,94,115.0
3378,E2,268.25,0.125,94,115.0
3379,D5,268.49,151/500,71,115.0
3380,E1,268.5,0.125,100,115.0
3381,E1,268.5,0.125,100,115.0
3382,F#2,268.5,73/500,74,115.0
3383,D3,268.744,167/1000,114,115.0
3384,E1,268.75,13/125,88,115.0
3385,E1,268.75,13/125,88,115.0
3386,D5,268.99,177/500,71,115.0
3387,E1,269.0,333/1000,89,115.0
3388,E1,269.0,333/1000,89,115.0
3389,B1,269.0,0.25,113,115.0
3390,F#2,269.0,0.156,74,115.0
3391,B2,269.244,0.156,112,115.0
3392,F#2,269.25,0.188,63,115.0
3393,E4,269.49,73/500,83,115.0
3394,D3,269.494,167/1000,105,115.0
3395,E1,269.5,0.125,93,115.0
3396,E1,269.5,0.125,93,115.0
3397,D4,269.5,27/200,80,115.0
3398,F#2,269.5,27/200,80,115.0
3399,E5,269.74,0.375,77,115.0
3400,E3,269.744,167/1000,102,115.0
3401,E1,269.75,27/200,92,115.0
3402,E1,269.75,27/200,92,115.0
3403,D4,269.75,0.125,86,115.0
3404,D3,269.994,99/500,112,115.0
3405,D2,270.0,0.125,89,115.0
3406,D2,270.0,0.125,89,115.0
3407,B1,270.0,0.25,113,115.0
3408,E2,270.0,27/200,90,115.0
3409,F#2,270.0,27/200,90,115.0
3410,B2,270.244,177/1000,89,115.0
3411,E2,270.25,0.125,100,115.0
3412,E2,270.25,0.125,100,115.0
3413,F#2,270.25,0.156,65,115.0
3414,E1,270.5,0.125,89,115.0
3415,E1,270.5,0.125,89,115.0
3416,F#2,270.5,23/200,74,115.0
3417,E1,270.75,73/500,92,115.0
3418,E1,270.75,73/500,92,115.0
3419,D3,270.994,3/500,114,115.0
3420,A1,271.0,0.406,89,115.0
3421,A1,271.0,0.406,89,115.0
3422,B1,271.0,0.25,113,115.0
3423,F#2,271.0,73/500,74,115.0
3424,D3,271.0,129/1000,114,115.0
3425,D3,271.244,73/500,100,115.0
3426,F#2,271.25,73/500,65,115.0
3427,B2,271.494,0.156,92,115.0
3428,A1,271.5,0.125,91,115.0
3429,A1,271.5,0.125,91,115.0
3430,F#2,271.5,73/500,78,115.0
3431,D4,271.5,73/500,78,115.0
3432,D3,271.744,177/1000,117,115.0
3433,A1,271.75,0.125,93,115.0
3434,A1,271.75,0.125,93,115.0
3435,D4,271.75,23/200,82,115.0
3436,F#2,272.0,0.125,100,115.0
3437,F#2,272.0,0.125,100,115.0
3438,B1,272.0,0.25,113,115.0
3439,F#2,272.0,167/1000,90,115.0
3440,E2,272.0,167/1000,90,115.0
3441,B2,272.244,0.188,107,115.0
3442,G2,272.25,0.125,100,115.0
3443,G2,272.25,0.125,100,115.0
3444,F#2,272.25,73/500,65,115.0
3445,A1,272.5,0.125,100,115.0
3446,A1,272.5,0.125,100,115.0
3447,F#2,272.5,13/125,69,115.0
3448,A2,272.744,99/500,112,115.0
3449,A1,272.75,13/125,88,115.0
3450,A1,272.75,13/125,88,115.0
3451,F#4,272.75,0.219,62,115.0
3452,G1,273.0,333/1000,89,115.0
3453,G1,273.0,333/1000,89,115.0
3454,F#2,273.0,73/500,74,115.0
3455,B1,273.0,0.25,113,115.0
3456,G2,273.244,167/1000,109,115.0
3457,F#2,273.25,23/200,65,115.0
3458,E2,273.494,0.25,105,115.0
3459,G1,273.5,0.125,93,115.0
3460,G1,273.5,0.125,93,115.0
3461,F#2,273.5,73/500,82,115.0
3462,D4,273.5,73/500,82,115.0
3463,G1,273.75,27/200,92,115.0
3464,G1,273.75,27/200,92,115.0
3465,B1,273.75,0.25,113,115.0
3466,F#4,273.75,23/200,72,115.0
3467,D4,273.75,23/200,72,115.0
3468,D2,273.994,177/1000,105,115.0
3469,E2,274.0,0.125,89,115.0
3470,E2,274.0,0.125,89,115.0
3471,F#2,274.0,73/500,77,115.0
3472,E2,274.0,0.25,109,115.0
3473,B1,274.0,0.25,109,115.0
3474,E2,274.244,177/1000,96,115.0
3475,F2,274.25,0.125,100,115.0
3476,F2,274.25,0.125,100,115.0
3477,F#2,274.25,167/1000,67,115.0
3478,G2,274.494,0.188,102,115.0
3479,G1,274.5,0.125,89,115.0
3480,G1,274.5,0.125,89,115.0
3481,F#2,274.5,23/200,70,115.0
3482,D4,274.5,23/200,70,115.0
3483,A3,274.74,229/1000,87,115.0
3484,C#4,274.74,0.156,82,115.0
3485,G3,274.74,0.156,82,115.0
3486,G1,274.75,73/500,92,115.0
3487,G1,274.75,73/500,92,115.0
3488,G1,274.75,73/500,92,115.0
3489,G1,274.75,73/500,92,115.0
3490,G#3,274.994,3/500,112,115.0
3491,E1,275.0,0.406,89,115.0
3492,E1,275.0,0.406,89,115.0
3493,F#2,275.0,73/500,74,115.0
3494,B1,275.0,0.25,113,115.0
3495,G#3,275.0,247/500,112,115.0
3496,F#2,275.25,27/200,65,115.0
3497,E3,275.494,99/500,102,115.0
3498,E1,275.5,0.125,91,115.0
3499,E1,275.5,0.125,91,115.0
3500,D4,275.5,23/200,78,115.0
3501,F#2,275.5,23/200,78,115.0
3502,D4,275.74,177/1000,83,115.0
3503,D3,275.744,0.156,117,115.0
3504,E1,275.75,0.125,93,115.0
3505,E1,275.75,0.125,93,115.0
3506,D4,275.75,0.125,79,115.0
3507,D5,275.99,0.406,80,115.0
3508,D2,276.0,0.125,94,115.0
3509,D2,276.0,0.125,94,115.0
3510,F#2,276.0,0.25,96,115.0
3511,E2,276.0,0.25,96,115.0
3512,B1,276.0,0.25,96,115.0
3513,D3,276.244,0.156,114,115.0
3514,F#2,276.25,99/500,62,115.0
3515,E2,276.25,0.125,94,115.0
3516,E2,276.25,0.125,94,115.0
3517,E2,276.25,0.125,94,115.0
3518,E2,276.25,0.125,94,115.0
3519,D5,276.49,323/1000,68,115.0
3520,E1,276.5,0.125,100,115.0
3521,E1,276.5,0.125,100,115.0
3522,F#2,276.5,0.125,68,115.0
3523,D3,276.744,177/1000,117,115.0
3524,E1,276.75,0.125,88,115.0
3525,E1,276.75,0.125,88,115.0
3526,D5,276.99,333/1000,71,115.0
3527,D3,277.0,0.125,89,115.0
3528,D3,277.0,0.125,89,115.0
3529,F#2,277.0,177/1000,74,115.0
3530,B1,277.0,0.25,113,115.0
3531,B2,277.244,73/500,109,115.0
3532,E3,277.25,0.125,100,115.0
3533,E3,277.25,0.125,100,115.0
3534,F#2,277.25,73/500,65,115.0
3535,E4,277.49,0.156,83,115.0
3536,D3,277.494,167/1000,112,115.0
3537,E1,277.5,0.125,93,115.0
3538,E1,277.5,0.125,93,115.0
3539,F#2,277.5,73/500,74,115.0
3540,D4,277.5,73/500,74,115.0
3541,E5,277.74,417/1000,80,115.0
3542,E3,277.744,177/1000,94,115.0
3543,E1,277.75,27/200,92,115.0
3544,E1,277.75,27/200,92,115.0
3545,D4,277.75,0.125,79,115.0
3546,D3,277.994,26/125,112,115.0
3547,D2,278.0,0.125,89,115.0
3548,D2,278.0,0.125,89,115.0
3549,B1,278.0,0.25,113,115.0
3550,E2,278.0,167/1000,90,115.0
3551,F#2,278.0,167/1000,90,115.0
3552,B2,278.244,177/1000,105,115.0
3553,E2,278.25,0.125,100,115.0
3554,E2,278.25,0.125,100,115.0
3555,F#2,278.25,27/200,61,115.0
3556,E1,278.5,0.125,89,115.0
3557,E1,278.5,0.125,89,115.0
3558,F#2,278.5,0.125,72,115.0
3559,E1,278.75,73/500,92,115.0
3560,E1,278.75,73/500,92,115.0
3561,D3,278.994,3/500,114,115.0
3562,A1,279.0,0.406,89,115.0
3563,A1,279.0,0.406,89,115.0
3564,B1,279.0,0.25,113,115.0
3565,F#2,279.0,0.156,74,115.0
3566,B5,279.0,0.125,92,115.0
3567,D3,279.0,7/50,114,115.0
3568,D3,279.244,167/1000,96,115.0
3569,F#2,279.25,167/1000,64,115.0
3570,B5,279.25,0.125,85,115.0
3571,B2,279.494,167/1000,98,115.0
3572,A1,279.5,0.125,91,115.0
3573,A1,279.5,0.125,91,115.0
3574,D4,279.5,0.125,78,115.0
3575,F#2,279.5,0.125,78,115.0
3576,D3,279.744,0.188,120,115.0
3577,A1,279.75,0.125,93,115.0
3578,A1,279.75,0.125,93,115.0
3579,D4,279.75,23/200,79,115.0
3580,F#2,280.0,0.125,94,115.0
3581,F#2,280.0,0.125,94,115.0
3582,B1,280.0,0.25,113,115.0
3583,E2,280.0,0.156,88,115.0
3584,F#2,280.0,0.156,88,115.0
3585,B2,280.244,177/1000,102,115.0
3586,G2,280.25,0.125,89,115.0
3587,G2,280.25,0.125,89,115.0
3588,F#2,280.25,0.156,67,115.0
3589,A1,280.5,0.125,100,115.0
3590,A1,280.5,0.125,100,115.0
3591,F#2,280.5,0.125,74,115.0
3592,B5,280.5,0.125,96,115.0
3593,A2,280.744,99/500,114,115.0
3594,A1,280.75,0.125,88,115.0
3595,A1,280.75,0.125,88,115.0
3596,B5,280.75,0.125,92,115.0
3597,G1,281.0,333/1000,89,115.0
3598,G1,281.0,333/1000,89,115.0
3599,B1,281.0,0.25,113,115.0
3600,F#2,281.0,0.156,74,115.0
3601,G2,281.244,177/1000,114,115.0
3602,F#2,281.25,0.156,61,115.0
3603,E2,281.494,0.25,102,115.0
3604,G1,281.5,0.125,93,115.0
3605,G1,281.5,0.125,93,115.0
3606,D4,281.5,23/200,80,115.0
3607,F#2,281.5,23/200,80,115.0
3608,G1,281.75,27/200,92,115.0
3609,G1,281.75,27/200,92,115.0
3610,B1,281.75,0.25,113,115.0
3611,F#4,281.75,0.125,69,115.0
3612,D4,281.75,0.125,69,115.0
3613,D2,281.994,0.188,98,115.0
3614,E2,282.0,0.125,89,115.0
3615,E2,282.0,0.125,89,115.0
3616,F#4,282.0,0.531,62,115.0
3617,B5,282.0,0.125,98,115.0
3618,E2,282.0,0.156,97,115.0
3619,B1,282.0,0.156,97,115.0
3620,F#2,282.0,0.156,97,115.0
3621,E2,282.244,177/1000,94,115.0
3622,F2,282.25,0.125,100,115.0
3623,F2,282.25,0.125,100,115.0
3624,F#2,282.25,167/1000,65,115.0
3625,B5,282.25,0.125,96,115.0
3626,G2,282.494,0.188,109,115.0
3627,G1,282.5,0.125,89,115.0
3628,G1,282.5,0.125,89,115.0
3629,D4,282.5,0.125,82,115.0
3630,F#2,282.5,0.125,82,115.0
3631,A3,282.74,13/125,84,115.0
3632,G3,282.74,13/125,84,115.0
3633,C#4,282.74,13/125,84,115.0
3634,G1,282.75,73/500,92,115.0
3635,G1,282.75,73/500,92,115.0
3636,G1,282.75,73/500,92,115.0
3637,G1,282.75,73/500,92,115.0
3638,G#3,282.994,3/500,117,115.0
3639,E1,283.0,0.406,89,115.0
3640,E1,283.0,0.406,89,115.0
3641,F#2,283.0,0.156,74,115.0
3642,B1,283.0,0.25,113,115.0
3643,G#3,283.0,231/500,117,115.0
3644,F#2,283.25,167/1000,65,115.0
3645,E3,283.494,99/500,112,115.0
3646,E1,283.5,0.125,91,115.0
3647,E1,283.5,0.125,91,115.0
3648,D4,283.5,23/200,77,115.0
3649,F#2,283.5,23/200,77,115.0
3650,D4,283.74,0.156,83,115.0
3651,D3,283.744,0.156,120,115.0
3652,E1,283.75,0.125,93,115.0
3653,E1,283.75,0.125,93,115.0
3654,D4,283.75,27/200,82,115.0
3655,D5,283.99,427/1000,74,115.0
3656,D2,284.0,0.125,94,115.0
3657,D2,284.0,0.125,94,115.0
3658,F#2,284.0,27/200,72,115.0
3659,B1,284.0,99/500,109,115.0
3660,E2,284.0,99/500,109,115.0
3661,D3,284.244,0.156,114,115.0
3662,F#2,284.25,0.156,65,115.0
3663,E2,284.25,0.125,94,115.0
3664,E2,284.25,0.125,94,115.0
3665,E2,284.25,0.125,94,115.0
3666,E2,284.25,0.125,94,115.0
3667,D5,284.49,73/250,63,115.0
3668,E1,284.5,0.125,100,115.0
3669,E1,284.5,0.125,100,115.0
3670,F#2,284.5,13/125,74,115.0
3671,D3,284.744,0.188,114,115.0
3672,E1,284.75,13/125,88,115.0
3673,E1,284.75,13/125,88,115.0
3674,D5,284.99,323/1000,71,115.0
3675,E1,285.0,333/1000,89,115.0
3676,E1,285.0,333/1000,89,115.0
3677,F#2,285.0,0.156,74,115.0
3678,B1,285.0,0.25,113,115.0
3679,B2,285.244,0.156,107,115.0
3680,F#2,285.25,0.156,65,115.0
3681,E4,285.49,0.156,88,115.0
3682,D3,285.494,167/1000,112,115.0
3683,E1,285.5,0.125,93,115.0
3684,E1,285.5,0.125,93,115.0
3685,D4,285.5,0.125,78,115.0
3686,F#2,285.5,0.125,78,115.0
3687,E5,285.74,427/1000,77,115.0
3688,E3,285.744,177/1000,105,115.0
3689,E1,285.75,27/200,92,115.0
3690,E1,285.75,27/200,92,115.0
3691,D4,285.75,0.125,82,115.0
3692,D3,285.994,26/125,112,115.0
3693,D2,286.0,0.125,89,115.0
3694,D2,286.0,0.125,89,115.0
3695,B1,286.0,0.25,113,115.0
3696,E2,286.0,0.156,91,115.0
3697,F#2,286.0,0.156,91,115.0
3698,B2,286.244,0.188,96,115.0
3699,E2,286.25,0.125,100,115.0
3700,E2,286.25,0.125,100,115.0
3701,F#2,286.25,167/1000,67,115.0
3702,E1,286.5,0.125,89,115.0
3703,E1,286.5,0.125,89,115.0
3704,F#2,286.5,73/500,74,115.0
3705,E1,286.75,73/500,92,115.0
3706,E1,286.75,73/500,92,115.0
3707,D3,286.994,3/500,114,115.0
3708,A1,287.0,0.406,89,115.0
3709,A1,287.0,0.406,89,115.0
3710,B1,287.0,0.25,113,115.0
3711,D3,287.0,129/1000,114,115.0
3712,F#2,287.0,0.031,76,115.0
3713,F#2,287.0,0.031,76,115.0
3714,D3,287.244,167/1000,105,115.0
3715,F#2,287.25,167/1000,54,115.0
3716,B2,287.494,0.156,92,115.0
3717,A1,287.5,0.125,91,115.0
3718,A1,287.5,0.125,91,115.0
3719,F#2,287.5,167/1000,78,115.0
3720,D4,287.5,167/1000,78,115.0
3721,D3,287.744,99/500,114,115.0
3722,A1,287.75,0.125,93,115.0
3723,A1,287.75,0.125,93,115.0
3724,D4,287.75,27/200,77,115.0
3725,F#2,288.0,0.125,100,115.0
3726,F#2,288.0,0.125,100,115.0
3727,B1,288.0,0.25,113,115.0
3728,E2,288.0,177/1000,90,115.0
3729,F#2,288.0,177/1000,90,115.0
3730,B2,288.244,177/1000,109,115.0
3731,G2,288.25,0.125,100,115.0
3732,G2,288.25,0.125,100,115.0
3733,F#2,288.25,0.188,61,115.0
3734,A1,288.5,0.125,100,115.0
3735,A1,288.5,0.125,100,115.0
3736,F#2,288.5,0.125,70,115.0
3737,A2,288.744,0.188,109,115.0
3738,A1,288.75,13/125,88,115.0
3739,A1,288.75,13/125,88,115.0
3740,F#4,288.75,26/125,62,115.0
3741,G1,289.0,333/1000,89,115.0
3742,G1,289.0,333/1000,89,115.0
3743,B1,289.0,0.25,113,115.0
3744,F#2,289.0,73/500,74,115.0
3745,G2,289.244,167/1000,112,115.0
3746,F#2,289.25,167/1000,65,115.0
3747,E2,289.494,6/25,98,115.0
3748,G1,289.5,0.125,93,115.0
3749,G1,289.5,0.125,93,115.0
3750,F#2,289.5,73/500,82,115.0
3751,D4,289.5,73/500,82,115.0
3752,G1,289.75,27/200,92,115.0
3753,G1,289.75,27/200,92,115.0
3754,B1,289.75,0.25,113,115.0
3755,F#4,289.75,0.125,72,115.0
3756,A2,289.75,0.125,72,115.0
3757,D4,289.75,0.125,72,115.0
3758,D2,289.994,167/1000,105,115.0
3759,E2,290.0,0.125,89,115.0
3760,E2,290.0,0.125,89,115.0
3761,F#4,290.0,0.344,61,115.0
3762,F#2,290.0,167/1000,90,115.0
3763,F2,290.0,167/1000,90,115.0
3764,E2,290.0,167/1000,90,115.0
3765,B1,290.0,0.219,102,115.0
3766,F2,290.0,0.219,102,115.0
3767,E2,290.244,0.156,94,115.0
3768,F2,290.25,0.125,100,115.0
3769,F2,290.25,0.125,100,115.0
3770,F#2,290.25,0.156,64,115.0
3771,G2,290.494,177/1000,107,115.0
3772,G1,290.5,0.125,89,115.0
3773,G1,290.5,0.125,89,115.0
3774,F#2,290.5,0.156,79,115.0
3775,D4,290.5,0.156,79,115.0
3776,G3,290.74,13/125,85,115.0
3777,C#4,290.74,13/125,85,115.0
3778,A3,290.74,13/125,85,115.0
3779,G1,290.75,73/500,92,115.0
3780,G1,290.75,73/500,92,115.0
3781,G1,290.75,73/500,92,115.0
3782,G1,290.75,73/500,92,115.0
3783,G#3,290.994,3/500,112,115.0
3784,E1,291.0,0.406,89,115.0
3785,E1,291.0,0.406,89,115.0
3786,B1,291.0,0.25,113,115.0
3787,F#2,291.0,0.156,77,115.0
3788,G#3,291.0,247/500,112,115.0
3789,F#2,291.25,177/1000,67,115.0
3790,E3,291.494,99/500,117,115.0
3791,E1,291.5,0.125,91,115.0
3792,E1,291.5,0.125,91,115.0
3793,F#2,291.5,73/500,77,115.0
3794,D4,291.5,73/500,77,115.0
3795,D4,291.74,0.156,88,115.0
3796,D3,291.744,167/1000,117,115.0
3797,E1,291.75,0.125,93,115.0
3798,E1,291.75,0.125,93,115.0
3799,D4,291.75,27/200,89,115.0
3800,D5,291.99,0.406,80,115.0
3801,D2,292.0,0.125,94,115.0
3802,D2,292.0,0.125,94,115.0
3803,B1,292.0,0.25,113,115.0
3804,E2,292.0,73/500,90,115.0
3805,F#2,292.0,73/500,90,115.0
3806,D3,292.244,0.156,114,115.0
3807,F#2,292.25,27/200,64,115.0
3808,E2,292.25,0.125,94,115.0
3809,E2,292.25,0.125,94,115.0
3810,E2,292.25,0.125,94,115.0
3811,E2,292.25,0.125,94,115.0
3812,D5,292.49,73/250,68,115.0
3813,E1,292.5,0.125,100,115.0
3814,E1,292.5,0.125,100,115.0
3815,F#2,292.5,23/200,74,115.0
3816,D3,292.744,0.188,114,115.0
3817,E1,292.75,0.125,88,115.0
3818,E1,292.75,0.125,88,115.0
3819,D5,292.99,177/500,71,115.0
3820,D3,293.0,0.125,89,115.0
3821,D3,293.0,0.125,89,115.0
3822,F#2,293.0,0.156,77,115.0
3823,B1,293.0,0.25,113,115.0
3824,B2,293.244,0.156,98,115.0
3825,E3,293.25,0.125,100,115.0
3826,E3,293.25,0.125,100,115.0
3827,F#2,293.25,177/1000,67,115.0
3828,E4,293.49,73/500,88,115.0
3829,D3,293.494,73/500,112,115.0
3830,E1,293.5,0.125,93,115.0
3831,E1,293.5,0.125,93,115.0
3832,D4,293.5,27/200,80,115.0
3833,F#2,293.5,27/200,80,115.0
3834,E5,293.74,0.469,77,115.0
3835,E3,293.744,0.156,105,115.0
3836,E1,293.75,27/200,92,115.0
3837,E1,293.75,27/200,92,115.0
3838,D4,293.75,0.125,82,115.0
3839,D3,293.994,99/500,114,115.0
3840,D2,294.0,0.125,89,115.0
3841,D2,294.0,0.125,89,115.0
3842,B1,294.0,0.25,113,115.0
3843,E2,294.0,73/500,90,115.0
3844,F#2,294.0,73/500,90,115.0
3845,B2,294.244,99/500,100,115.0
3846,E2,294.25,0.125,100,115.0
3847,E2,294.25,0.125,100,115.0
3848,F#2,294.25,0.156,67,115.0
3849,E1,294.5,0.125,89,115.0
3850,E1,294.5,0.125,89,115.0
3851,F#2,294.5,23/200,74,115.0
3852,E1,294.75,73/500,92,115.0
3853,E1,294.75,73/500,92,115.0
3854,D3,294.994,3/500,114,115.0
3855,A1,295.0,0.406,89,115.0
3856,A1,295.0,0.406,89,115.0
3857,B1,295.0,0.25,113,115.0
3858,F#2,295.0,0.156,74,115.0
3859,D3,295.0,119/1000,114,115.0
3860,D3,295.244,167/1000,102,115.0
3861,F#2,295.25,27/200,65,115.0
3862,B2,295.494,167/1000,98,115.0
3863,A1,295.5,0.125,91,115.0
3864,A1,295.5,0.125,91,115.0
3865,F#2,295.5,73/500,82,115.0
3866,D4,295.5,73/500,82,115.0
3867,D3,295.744,99/500,114,115.0
3868,A1,295.75,0.125,93,115.0
3869,A1,295.75,0.125,93,115.0
3870,D4,295.75,23/200,77,115.0
3871,F#2,296.0,0.125,94,115.0
3872,F#2,296.0,0.125,94,115.0
3873,E2,296.0,73/500,98,115.0
3874,B1,296.0,73/500,98,115.0
3875,F#2,296.0,73/500,98,115.0
3876,B2,296.244,0.219,107,115.0
3877,G2,296.25,0.125,89,115.0
3878,G2,296.25,0.125,89,115.0
3879,F#2,296.25,0.156,67,115.0
3880,A1,296.5,0.125,100,115.0
3881,A1,296.5,0.125,100,115.0
3882,F#2,296.5,0.125,74,115.0
3883,A2,296.744,0.188,112,115.0
3884,A1,296.75,0.125,88,115.0
3885,A1,296.75,0.125,88,115.0
3886,F#4,296.75,99/500,62,115.0
3887,G1,297.0,333/1000,89,115.0
3888,G1,297.0,333/1000,89,115.0
3889,B1,297.0,0.25,113,115.0
3890,F#2,297.0,0.125,74,115.0
3891,G2,297.244,27/200,109,115.0
3892,F#2,297.25,27/200,65,115.0
3893,E2,297.494,229/1000,107,115.0
3894,G1,297.5,0.125,93,115.0
3895,G1,297.5,0.125,93,115.0
3896,F#2,297.5,0.156,80,115.0
3897,D4,297.5,0.156,80,115.0
3898,G1,297.75,27/200,92,115.0
3899,G1,297.75,27/200,92,115.0
3900,B1,297.75,0.25,113,115.0
3901,A2,297.75,167/1000,71,115.0
3902,D4,297.75,167/1000,71,115.0
3903,F#4,297.75,167/1000,71,115.0
3904,D2,297.994,0.156,107,115.0
3905,E2,298.0,0.125,89,115.0
3906,E2,298.0,0.125,89,115.0
3907,F#4,298.0,73/250,72,115.0
3908,F2,298.0,73/250,72,115.0
3909,B1,298.0,73/250,98,115.0
3910,F2,298.0,73/250,98,115.0
3911,E2,298.0,13/125,90,115.0
3912,F#2,298.0,13/125,90,115.0
3913,E2,298.244,13/50,89,115.0
3914,F2,298.25,0.125,100,115.0
3915,F2,298.25,0.125,100,115.0
3916,G2,298.494,73/250,120,115.0
3917,G1,298.5,0.125,89,115.0
3918,G1,298.5,0.125,89,115.0
3919,B-2,298.5,0.5,79,115.0
3920,E2,298.5,73/500,100,115.0
3921,D4,298.5,73/500,100,115.0
3922,C#4,298.74,6/25,74,115.0
3923,A3,298.74,0.125,82,115.0
3924,G3,298.74,0.125,82,115.0
3925,G1,298.75,73/500,92,115.0
3926,G1,298.75,73/500,92,115.0
3927,G1,298.75,73/500,92,115.0
3928,G1,298.75,73/500,92,115.0
3929,E1,299.0,0.406,89,115.0
3930,E1,299.0,0.406,89,115.0
3931,F#2,299.0,27/200,74,115.0
3932,A3,299.0,0.25,80,115.0
3933,B1,299.0,0.25,80,115.0
3934,F#2,299.25,167/1000,74,115.0
3935,E1,299.5,0.125,91,115.0
3936,E1,299.5,0.125,91,115.0
3937,F#2,299.5,0.094,77,115.0
3938,E1,299.75,0.125,93,115.0
3939,E1,299.75,0.125,93,115.0
3940,F#4,299.994,0.375,89,115.0
3941,D5,299.994,0.469,102,115.0
3942,D2,300.0,0.125,94,115.0
3943,D2,300.0,0.125,94,115.0
3944,B1,300.0,0.25,113,115.0
3945,F#2,300.0,167/1000,92,115.0
3946,E2,300.0,167/1000,92,115.0
3947,F#2,300.25,167/1000,65,115.0
3948,E2,300.25,0.125,94,115.0
3949,E2,300.25,0.125,94,115.0
3950,E2,300.25,0.125,94,115.0
3951,E2,300.25,0.125,94,115.0
3952,G#4,300.494,177/1000,92,115.0
3953,E5,300.494,177/1000,92,115.0
3954,E1,300.5,0.125,100,115.0
3955,E1,300.5,0.125,100,115.0
3956,F#2,300.5,13/125,72,115.0
3957,E1,300.75,13/125,88,115.0
3958,E1,300.75,13/125,88,115.0
3959,D5,300.994,0.688,109,115.0
3960,F#4,300.994,0.531,96,115.0
3961,E1,301.0,333/1000,89,115.0
3962,E1,301.0,333/1000,89,115.0
3963,F#2,301.0,1/500,77,115.0
3964,B1,301.0,0.25,113,115.0
3965,F#2,301.0,27/200,67,115.0
3966,E5,301.0,0.469,103,115.0
3967,B4,301.0,0.469,103,115.0
3968,D5,301.0,0.469,103,115.0
3969,E1,301.5,0.125,93,115.0
3970,E1,301.5,0.125,93,115.0
3971,F#2,301.5,13/125,74,115.0
3972,G#4,301.744,73/500,100,115.0
3973,E5,301.744,73/500,100,115.0
3974,E1,301.75,27/200,92,115.0
3975,E1,301.75,27/200,92,115.0
3976,D2,302.0,0.125,89,115.0
3977,D2,302.0,0.125,89,115.0
3978,B1,302.0,0.25,113,115.0
3979,F#2,302.0,73/500,90,115.0
3980,E2,302.0,73/500,90,115.0
3981,E2,302.25,0.125,100,115.0
3982,E2,302.25,0.125,100,115.0
3983,F#2,302.25,167/1000,67,115.0
3984,G#4,302.494,73/500,117,115.0
3985,E5,302.494,73/500,117,115.0
3986,E1,302.5,0.125,89,115.0
3987,E1,302.5,0.125,89,115.0
3988,F#2,302.5,0.125,74,115.0
3989,E1,302.75,73/500,92,115.0
3990,E1,302.75,73/500,92,115.0
3991,A1,303.0,0.406,89,115.0
3992,A1,303.0,0.406,89,115.0
3993,B1,303.0,0.25,113,115.0
3994,F#2,303.0,27/200,77,115.0
3995,F#2,303.25,167/1000,67,115.0
3996,A1,303.5,0.125,91,115.0
3997,A1,303.5,0.125,91,115.0
3998,F#2,303.5,27/200,78,115.0
3999,A1,303.75,0.125,93,115.0
4000,A1,303.75,0.125,93,115.0
4001,F#2,304.0,0.125,100,115.0
4002,F#2,304.0,0.125,100,115.0
4003,B1,304.0,0.25,113,115.0
4004,F#2,304.0,0.125,90,115.0
4005,E2,304.0,0.125,90,115.0
4006,G2,304.25,0.125,100,115.0
4007,G2,304.25,0.125,100,115.0
4008,E2,304.25,0.156,75,115.0
4009,F#2,304.25,0.156,75,115.0
4010,A1,304.5,0.125,100,115.0
4011,A1,304.5,0.125,100,115.0
4012,F#2,304.5,0.125,80,115.0
4013,E2,304.5,0.125,80,115.0
4014,A1,304.75,13/125,88,115.0
4015,A1,304.75,13/125,88,115.0
4016,E2,304.75,0.125,84,115.0
4017,F#4,304.75,99/500,61,115.0
4018,G1,305.0,333/1000,89,115.0
4019,G1,305.0,333/1000,89,115.0
4020,B1,305.0,0.25,113,115.0
4021,F#2,305.0,73/500,78,115.0
4022,F#2,305.25,167/1000,67,115.0
4023,G1,305.5,0.125,93,115.0
4024,G1,305.5,0.125,93,115.0
4025,F#2,305.5,0.125,74,115.0
4026,G1,305.75,27/200,92,115.0
4027,G1,305.75,27/200,92,115.0
4028,F#4,305.75,27/200,59,115.0
4029,E2,306.0,0.125,89,115.0
4030,E2,306.0,0.125,89,115.0
4031,F#4,306.0,0.156,63,115.0
4032,F#2,306.0,0.156,63,115.0
4033,E2,306.0,0.156,97,115.0
4034,B1,306.0,0.156,97,115.0
4035,F#2,306.0,0.156,97,115.0
4036,F2,306.25,0.125,100,115.0
4037,F2,306.25,0.125,100,115.0
4038,F#2,306.25,167/1000,65,115.0
4039,G1,306.5,0.125,89,115.0
4040,G1,306.5,0.125,89,115.0
4041,F#2,306.5,27/200,77,115.0
4042,G1,306.75,73/500,92,115.0
4043,G1,306.75,73/500,92,115.0
4044,G1,306.75,73/500,92,115.0
4045,G1,306.75,73/500,92,115.0
4046,E1,307.0,0.406,89,115.0
4047,E1,307.0,0.406,89,115.0
4048,B1,307.0,0.25,113,115.0
4049,F#2,307.0,0.156,77,115.0
4050,F#2,307.25,0.156,67,115.0
4051,E1,307.5,0.125,91,115.0
4052,E1,307.5,0.125,91,115.0
4053,F#2,307.5,23/200,74,115.0
4054,E1,307.75,0.125,93,115.0
4055,E1,307.75,0.125,93,115.0
4056,D6,307.99,0.375,122,115.0
4057,G5,307.99,0.375,122,115.0
4058,B5,307.99,0.375,122,115.0
4059,F#4,307.994,271/1000,107,115.0
4060,D5,307.994,69/125,102,115.0
4061,D2,308.0,0.125,94,115.0
4062,D2,308.0,0.125,94,115.0
4063,E6,308.0,0.188,84,115.0
4064,B4,308.0,0.375,104,115.0
4065,E4,308.0,0.375,104,115.0
4066,D5,308.0,0.375,104,115.0
4067,E2,308.0,0.25,97,115.0
4068,F#2,308.0,0.25,97,115.0
4069,B1,308.0,0.25,97,115.0
4070,F#2,308.25,0.188,67,115.0
4071,E2,308.25,0.125,94,115.0
4072,E2,308.25,0.125,94,115.0
4073,E2,308.25,0.125,94,115.0
4074,E2,308.25,0.125,94,115.0
4075,E5,308.494,73/500,89,115.0
4076,G#4,308.494,73/500,89,115.0
4077,E1,308.5,0.125,100,115.0
4078,E1,308.5,0.125,100,115.0
4079,F#2,308.5,0.125,74,115.0
4080,E1,308.75,0.125,88,115.0
4081,E1,308.75,0.125,88,115.0
4082,D5,308.994,73/250,112,115.0
4083,F#4,308.994,177/1000,107,115.0
4084,D3,309.0,0.125,89,115.0
4085,D3,309.0,0.125,89,115.0
4086,B1,309.0,0.25,113,115.0
4087,F#2,309.0,0.156,77,115.0
4088,G#4,309.244,0.156,106,115.0
4089,E5,309.244,0.156,106,115.0
4090,E3,309.25,0.125,100,115.0
4091,E3,309.25,0.125,100,115.0
4092,F#2,309.25,27/200,59,115.0
4093,E1,309.5,0.125,93,115.0
4094,E1,309.5,0.125,93,115.0
4095,F#2,309.5,23/200,74,115.0
4096,G#4,309.744,73/500,113,115.0
4097,E5,309.744,73/500,113,115.0
4098,E1,309.75,27/200,92,115.0
4099,E1,309.75,27/200,92,115.0
4100,D2,310.0,0.125,89,115.0
4101,D2,310.0,0.125,89,115.0
4102,B1,310.0,0.25,113,115.0
4103,E2,310.0,73/500,90,115.0
4104,F#2,310.0,73/500,90,115.0
4105,E2,310.25,0.125,100,115.0
4106,E2,310.25,0.125,100,115.0
4107,F#2,310.25,0.156,64,115.0
4108,E5,310.494,27/200,123,115.0
4109,G#4,310.494,27/200,123,115.0
4110,E1,310.5,0.125,89,115.0
4111,E1,310.5,0.125,89,115.0
4112,F#2,310.5,23/200,74,115.0
4113,E1,310.75,73/500,92,115.0
4114,E1,310.75,73/500,92,115.0
4115,A1,311.0,0.406,89,115.0
4116,A1,311.0,0.406,89,115.0
4117,F#2,311.0,27/200,77,115.0
4118,B1,311.0,0.25,113,115.0
4119,F#2,311.25,27/200,65,115.0
4120,A1,311.5,0.125,91,115.0
4121,A1,311.5,0.125,91,115.0
4122,F#2,311.5,23/200,74,115.0
4123,A1,311.75,0.125,93,115.0
4124,A1,311.75,0.125,93,115.0
4125,G5,311.99,23/200,105,115.0
4126,B5,311.99,23/200,105,115.0
4127,D5,311.99,23/200,105,115.0
4128,F#2,312.0,0.125,94,115.0
4129,F#2,312.0,0.125,94,115.0
4130,B1,312.0,0.25,113,115.0
4131,E2,312.0,23/200,90,115.0
4132,F#2,312.0,23/200,90,115.0
4133,G2,312.25,0.125,89,115.0
4134,G2,312.25,0.125,89,115.0
4135,F#2,312.25,0.188,64,115.0
4136,G5,312.49,23/200,99,115.0
4137,B5,312.49,23/200,99,115.0
4138,D5,312.49,23/200,99,115.0
4139,A1,312.5,0.125,100,115.0
4140,A1,312.5,0.125,100,115.0
4141,F#2,312.5,23/200,74,115.0
4142,A1,312.75,0.125,88,115.0
4143,A1,312.75,0.125,88,115.0
4144,D5,312.99,123/200,108,115.0
4145,B5,312.99,349/500,100,115.0
4146,G5,312.99,349/500,100,115.0
4147,G1,313.0,333/1000,89,115.0
4148,G1,313.0,333/1000,89,115.0
4149,B1,313.0,0.25,113,115.0
4150,F#2,313.0,0.125,74,115.0
4151,F#2,313.25,27/200,67,115.0
4152,G1,313.5,0.125,93,115.0
4153,G1,313.5,0.125,93,115.0
4154,F#2,313.5,0.156,80,115.0
4155,D4,313.5,0.156,80,115.0
4156,B5,313.74,73/500,117,115.0
4157,D5,313.74,73/500,117,115.0
4158,G5,313.74,73/500,117,115.0
4159,G1,313.75,27/200,92,115.0
4160,G1,313.75,27/200,92,115.0
4161,D4,313.75,73/500,79,115.0
4162,E2,314.0,0.125,89,115.0
4163,E2,314.0,0.125,89,115.0
4164,B1,314.0,0.25,113,115.0
4165,F#2,314.0,0.156,90,115.0
4166,E2,314.0,0.156,90,115.0
4167,F2,314.25,0.125,100,115.0
4168,F2,314.25,0.125,100,115.0
4169,D4,314.25,167/1000,75,115.0
4170,F#2,314.25,167/1000,75,115.0
4171,G1,314.5,0.125,89,115.0
4172,G1,314.5,0.125,89,115.0
4173,D4,314.5,0.125,74,115.0
4174,F#2,314.5,0.125,74,115.0
4175,D4,314.75,73/500,89,115.0
4176,G1,314.75,73/500,92,115.0
4177,G1,314.75,73/500,92,115.0
4178,G1,314.75,73/500,92,115.0
4179,G1,314.75,73/500,92,115.0
4180,E1,315.0,0.406,89,115.0
4181,E1,315.0,0.406,89,115.0
4182,F#2,315.0,0.188,60,115.0
4183,A3,315.0,0.188,60,115.0
4184,B1,315.0,0.188,78,115.0
4185,A3,315.0,0.188,78,115.0
4186,F#2,315.25,0.156,67,115.0
4187,E1,315.5,0.125,91,115.0
4188,E1,315.5,0.125,91,115.0
4189,F#2,315.5,23/200,74,115.0
4190,E1,315.75,0.125,93,115.0
4191,E1,315.75,0.125,93,115.0
4192,D5,315.994,479/1000,114,115.0
4193,F#4,315.994,271/1000,105,115.0
4194,D2,316.0,0.125,94,115.0
4195,D2,316.0,0.125,94,115.0
4196,B1,316.0,0.25,113,115.0
4197,F#2,316.0,167/1000,90,115.0
4198,E2,316.0,167/1000,90,115.0
4199,F#2,316.25,27/200,67,115.0
4200,E2,316.25,0.125,94,115.0
4201,E2,316.25,0.125,94,115.0
4202,E2,316.25,0.125,94,115.0
4203,E2,316.25,0.125,94,115.0
4204,G#4,316.494,167/1000,94,115.0
4205,E5,316.494,167/1000,94,115.0
4206,E1,316.5,0.125,100,115.0
4207,E1,316.5,0.125,100,115.0
4208,F#2,316.5,0.125,74,115.0
4209,E1,316.75,13/125,88,115.0
4210,E1,316.75,13/125,88,115.0
4211,D5,316.994,99/125,107,115.0
4212,F#4,316.994,479/1000,94,115.0
4213,E1,317.0,333/1000,89,115.0
4214,E1,317.0,333/1000,89,115.0
4215,B1,317.0,0.25,113,115.0
4216,F#2,317.0,0.156,77,115.0
4217,E5,317.0,0.438,101,115.0
4218,B4,317.0,0.438,101,115.0
4219,D5,317.0,0.438,101,115.0
4220,F#2,317.25,167/1000,69,115.0
4221,E1,317.5,0.125,93,115.0
4222,E1,317.5,0.125,93,115.0
4223,F#2,317.5,0.125,72,115.0
4224,E5,317.744,27/200,98,115.0
4225,G#4,317.744,27/200,98,115.0
4226,E1,317.75,27/200,92,115.0
4227,E1,317.75,27/200,92,115.0
4228,D2,318.0,0.125,89,115.0
4229,D2,318.0,0.125,89,115.0
4230,B1,318.0,0.25,113,115.0
4231,E2,318.0,167/1000,90,115.0
4232,F#2,318.0,167/1000,90,115.0
4233,E2,318.25,0.125,100,115.0
4234,E2,318.25,0.125,100,115.0
4235,F#2,318.25,0.156,67,115.0
4236,E5,318.494,73/500,109,115.0
4237,G#4,318.494,73/500,109,115.0
4238,E1,318.5,0.125,89,115.0
4239,E1,318.5,0.125,89,115.0
4240,F#2,318.5,23/200,74,115.0
4241,E1,318.75,73/500,92,115.0
4242,E1,318.75,73/500,92,115.0
4243,A1,319.0,0.406,89,115.0
4244,A1,319.0,0.406,89,115.0
4245,B1,319.0,0.25,113,115.0
4246,F#2,319.0,0.156,77,115.0
4247,F#2,319.25,167/1000,67,115.0
4248,A1,319.5,0.125,91,115.0
4249,A1,319.5,0.125,91,115.0
4250,F#2,319.5,0.125,74,115.0
4251,A1,319.75,0.125,93,115.0
4252,A1,319.75,0.125,93,115.0
4253,F#2,320.0,0.125,100,115.0
4254,F#2,320.0,0.125,100,115.0
4255,B1,320.0,0.25,113,115.0
4256,E2,320.0,0.156,92,115.0
4257,F#2,320.0,0.156,92,115.0
4258,G2,320.25,0.125,100,115.0
4259,G2,320.25,0.125,100,115.0
4260,E2,320.25,0.156,76,115.0
4261,F#2,320.25,0.156,76,115.0
4262,A1,320.5,0.125,100,115.0
4263,A1,320.5,0.125,100,115.0
4264,E2,320.5,0.125,80,115.0
4265,F#2,320.5,0.125,80,115.0
4266,A1,320.75,13/125,88,115.0
4267,A1,320.75,13/125,88,115.0
4268,E2,320.75,0.125,85,115.0
4269,G1,321.0,333/1000,89,115.0
4270,G1,321.0,333/1000,89,115.0
4271,F#2,321.0,73/500,77,115.0
4272,B1,321.0,0.25,113,115.0
4273,F#2,321.25,0.156,67,115.0
4274,G1,321.5,0.125,93,115.0
4275,G1,321.5,0.125,93,115.0
4276,F#2,321.5,27/200,77,115.0
4277,G1,321.75,27/200,92,115.0
4278,G1,321.75,27/200,92,115.0
4279,E2,322.0,0.125,89,115.0
4280,E2,322.0,0.125,89,115.0
4281,B1,322.0,0.25,113,115.0
4282,E2,322.0,167/1000,90,115.0
4283,F#2,322.0,167/1000,90,115.0
4284,F2,322.25,0.125,100,115.0
4285,F2,322.25,0.125,100,115.0
4286,F#2,322.25,167/1000,70,115.0
4287,G1,322.5,0.125,89,115.0
4288,G1,322.5,0.125,89,115.0
4289,F#2,322.5,23/200,74,115.0
4290,G1,322.75,73/500,92,115.0
4291,G1,322.75,73/500,92,115.0
4292,G1,322.75,73/500,92,115.0
4293,G1,322.75,73/500,92,115.0
4294,E1,323.0,0.406,89,115.0
4295,E1,323.0,0.406,89,115.0
4296,F#2,323.0,0.156,78,115.0
4297,B1,323.0,0.25,113,115.0
4298,F#2,323.25,73/500,68,115.0
4299,E1,323.5,0.125,91,115.0
4300,E1,323.5,0.125,91,115.0
4301,F#2,323.5,0.125,77,115.0
4302,E1,323.75,0.125,93,115.0
4303,E1,323.75,0.125,93,115.0
4304,B5,323.99,417/1000,115,115.0
4305,G5,323.99,417/1000,115,115.0
4306,D6,323.99,417/1000,115,115.0
4307,F#4,323.994,177/500,87,115.0
4308,D5,323.994,521/1000,98,115.0
4309,D2,324.0,0.125,94,115.0
4310,D2,324.0,0.125,94,115.0
4311,B1,324.0,0.25,113,115.0
4312,E6,324.0,0.188,84,115.0
4313,B4,324.0,333/1000,105,115.0
4314,D5,324.0,333/1000,105,115.0
4315,F#4,324.0,333/1000,105,115.0
4316,E2,324.0,0.156,90,115.0
4317,F#2,324.0,0.156,90,115.0
4318,F#2,324.25,0.156,67,115.0
4319,E2,324.25,0.125,94,115.0
4320,E2,324.25,0.125,94,115.0
4321,E2,324.25,0.125,94,115.0
4322,E2,324.25,0.125,94,115.0
4323,E5,324.494,13/125,86,115.0
4324,G#4,324.494,13/125,86,115.0
4325,E1,324.5,0.125,100,115.0
4326,E1,324.5,0.125,100,115.0
4327,F#2,324.5,13/125,74,115.0
4328,E1,324.75,0.125,88,115.0
4329,E1,324.75,0.125,88,115.0
4330,D5,324.994,271/1000,114,115.0
4331,F#4,324.994,0.188,107,115.0
4332,D3,325.0,0.125,89,115.0
4333,D3,325.0,0.125,89,115.0
4334,F#2,325.0,73/500,74,115.0
4335,B1,325.0,0.25,113,115.0
4336,E5,325.244,0.125,98,115.0
4337,G#4,325.244,0.125,98,115.0
4338,E3,325.25,0.125,100,115.0
4339,E3,325.25,0.125,100,115.0
4340,F#2,325.25,73/500,68,115.0
4341,E1,325.5,0.125,93,115.0
4342,E1,325.5,0.125,93,115.0
4343,F#2,325.5,23/200,74,115.0
4344,E5,325.744,73/500,106,115.0
4345,G#4,325.744,73/500,106,115.0
4346,E1,325.75,27/200,92,115.0
4347,E1,325.75,27/200,92,115.0
4348,D2,326.0,0.125,89,115.0
4349,D2,326.0,0.125,89,115.0
4350,B1,326.0,0.25,113,115.0
4351,F#2,326.0,0.125,91,115.0
4352,E2,326.0,0.125,91,115.0
4353,E2,326.25,0.125,100,115.0
4354,E2,326.25,0.125,100,115.0
4355,F#2,326.25,0.156,67,115.0
4356,G#4,326.494,27/200,116,115.0
4357,E5,326.494,27/200,116,115.0
4358,E1,326.5,0.125,89,115.0
4359,E1,326.5,0.125,89,115.0
4360,F#2,326.5,23/200,72,115.0
4361,E1,326.75,73/500,92,115.0
4362,E1,326.75,73/500,92,115.0
4363,A1,327.0,0.406,89,115.0
4364,A1,327.0,0.406,89,115.0
4365,F#2,327.0,0.156,78,115.0
4366,B1,327.0,0.25,113,115.0
4367,F#2,327.25,73/500,63,115.0
4368,A1,327.5,0.125,91,115.0
4369,A1,327.5,0.125,91,115.0
4370,F#2,327.5,23/200,70,115.0
4371,A1,327.75,0.125,93,115.0
4372,A1,327.75,0.125,93,115.0
4373,G5,327.99,27/200,105,115.0
4374,D5,327.99,27/200,105,115.0
4375,B5,327.99,27/200,105,115.0
4376,F#2,328.0,0.125,94,115.0
4377,F#2,328.0,0.125,94,115.0
4378,B1,328.0,0.25,113,115.0
4379,E2,328.0,27/200,90,115.0
4380,F#2,328.0,27/200,90,115.0
4381,G2,328.25,0.125,89,115.0
4382,G2,328.25,0.125,89,115.0
4383,F#2,328.25,167/1000,70,115.0
4384,D5,328.49,27/200,104,115.0
4385,G5,328.49,27/200,104,115.0
4386,B5,328.49,27/200,104,115.0
4387,A1,328.5,0.125,100,115.0
4388,A1,328.5,0.125,100,115.0
4389,F#2,328.5,13/125,77,115.0
4390,A1,328.75,0.125,88,115.0
4391,A1,328.75,0.125,88,115.0
4392,D5,328.99,583/1000,112,115.0
4393,G5,328.99,667/1000,102,115.0
4394,B5,328.99,667/1000,102,115.0
4395,G1,329.0,333/1000,89,115.0
4396,G1,329.0,333/1000,89,115.0
4397,F#2,329.0,23/200,67,115.0
4398,B1,329.0,0.25,113,115.0
4399,F#2,329.25,73/500,67,115.0
4400,G1,329.5,0.125,93,115.0
4401,G1,329.5,0.125,93,115.0
4402,F#2,329.5,13/125,72,115.0
4403,G5,329.74,0.125,110,115.0
4404,D5,329.74,0.125,110,115.0
4405,B5,329.74,0.125,110,115.0
4406,G1,329.75,27/200,92,115.0
4407,G1,329.75,27/200,92,115.0
4408,E2,330.0,0.125,89,115.0
4409,E2,330.0,0.125,89,115.0
4410,B1,330.0,0.25,113,115.0
4411,F#2,330.0,0.156,90,115.0
4412,E2,330.0,0.156,90,115.0
4413,F2,330.25,0.125,100,115.0
4414,F2,330.25,0.125,100,115.0
4415,F#2,330.25,73/500,74,115.0
4416,G1,330.5,0.125,89,115.0
4417,G1,330.5,0.125,89,115.0
4418,B-2,330.5,0.5,82,115.0
4419,B4,330.5,0.344,110,115.0
4420,E5,330.5,0.344,110,115.0
4421,D5,330.5,0.344,110,115.0
4422,E4,330.5,0.344,110,115.0
4423,G1,330.75,73/500,92,115.0
4424,G1,330.75,73/500,92,115.0
4425,G1,330.75,73/500,92,115.0
4426,G1,330.75,73/500,92,115.0
4427,E1,331.0,0.406,89,115.0
4428,E1,331.0,0.406,89,115.0
4429,F#2,331.0,0.125,74,115.0
4430,B1,331.0,0.25,79,115.0
4431,A3,331.0,0.25,79,115.0
4432,B5,331.0,99/250,100,115.0
4433,G5,331.0,99/250,100,115.0
4434,E5,331.0,99/250,100,115.0
4435,F#2,331.25,0.156,65,115.0
4436,E1,331.5,0.125,91,115.0
4437,E1,331.5,0.125,91,115.0
4438,F#2,331.5,13/125,70,115.0
4439,B5,331.5,103/200,100,115.0
4440,G5,331.5,103/200,100,115.0
4441,E5,331.5,103/200,100,115.0
4442,E1,331.75,0.125,93,115.0
4443,E1,331.75,0.125,93,115.0
4444,B4,331.994,13/125,100,115.0
4445,D4,331.994,13/125,100,115.0
4446,D2,332.0,0.125,94,115.0
4447,D2,332.0,0.125,94,115.0
4448,B1,332.0,0.25,113,115.0
4449,E2,332.0,0.125,87,115.0
4450,F#2,332.0,0.125,87,115.0
4451,F#2,332.25,0.156,67,115.0
4452,E2,332.25,0.125,94,115.0
4453,E2,332.25,0.125,94,115.0
4454,E2,332.25,0.125,94,115.0
4455,E2,332.25,0.125,94,115.0
4456,A4,332.494,23/200,104,115.0
4457,D4,332.494,23/200,104,115.0
4458,E1,332.5,0.125,100,115.0
4459,E1,332.5,0.125,100,115.0
4460,F#2,332.5,0.125,70,115.0
4461,E1,332.75,13/125,88,115.0
4462,E1,332.75,13/125,88,115.0
4463,D4,332.994,521/1000,109,115.0
4464,A4,332.994,677/1000,112,115.0
4465,E1,333.0,333/1000,89,115.0
4466,E1,333.0,333/1000,89,115.0
4467,F#2,333.0,73/500,74,115.0
4468,B1,333.0,0.25,113,115.0
4469,F#2,333.25,73/500,67,115.0
4470,E1,333.5,0.125,93,115.0
4471,E1,333.5,0.125,93,115.0
4472,F#2,333.5,27/200,74,115.0
4473,E4,333.744,23/200,102,115.0
4474,G4,333.744,23/200,102,115.0
4475,E1,333.75,27/200,92,115.0
4476,E1,333.75,27/200,92,115.0
4477,D2,334.0,0.125,89,115.0
4478,D2,334.0,0.125,89,115.0
4479,F#2,334.0,27/200,74,115.0
4480,B1,334.0,99/500,109,115.0
4481,E2,334.0,99/500,109,115.0
4482,D4,334.25,73/1000,111,115.0
4483,E2,334.25,0.125,100,115.0
4484,E2,334.25,0.125,100,115.0
4485,F#2,334.25,177/1000,67,115.0
4486,E4,334.5,83/1000,99,115.0
4487,E1,334.5,0.125,89,115.0
4488,E1,334.5,0.125,89,115.0
4489,F#2,334.5,0.125,74,115.0
4490,E4,334.75,73/1000,92,115.0
4491,E1,334.75,73/500,92,115.0
4492,E1,334.75,73/500,92,115.0
4493,D4,335.0,73/1000,111,115.0
4494,A1,335.0,0.406,89,115.0
4495,A1,335.0,0.406,89,115.0
4496,B1,335.0,0.25,113,115.0
4497,F#2,335.0,27/200,72,115.0
4498,E4,335.24,73/1000,113,115.0
4499,F#2,335.25,73/500,65,115.0
4500,A4,335.494,13/125,104,115.0
4501,E4,335.494,13/125,104,115.0
4502,A1,335.5,0.125,91,115.0
4503,A1,335.5,0.125,91,115.0
4504,F#2,335.5,27/200,70,115.0
4505,A1,335.75,0.125,93,115.0
4506,A1,335.75,0.125,93,115.0
4507,F#2,336.0,0.125,100,115.0
4508,F#2,336.0,0.125,100,115.0
4509,B1,336.0,0.25,113,115.0
4510,E2,336.0,177/1000,105,115.0
4511,F#2,336.0,13/125,69,115.0
4512,E4,336.01,73/1000,116,115.0
4513,E4,336.244,0.125,103,115.0
4514,A4,336.244,0.125,103,115.0
4515,E4,336.25,83/1000,97,115.0
4516,G2,336.25,0.125,100,115.0
4517,G2,336.25,0.125,100,115.0
4518,F#2,336.25,0.125,59,115.0
4519,D4,336.5,0.062,106,115.0
4520,A1,336.5,0.125,100,115.0
4521,A1,336.5,0.125,100,115.0
4522,F#2,336.5,0.094,69,115.0
4523,E4,336.74,83/1000,101,115.0
4524,A1,336.75,13/125,88,115.0
4525,A1,336.75,13/125,88,115.0
4526,E4,336.994,73/500,102,115.0
4527,G4,336.994,73/500,102,115.0
4528,G1,337.0,333/1000,89,115.0
4529,G1,337.0,333/1000,89,115.0
4530,B1,337.0,0.25,113,115.0
4531,F#2,337.0,0.125,72,115.0
4532,G4,337.244,0.156,88,115.0
4533,E4,337.244,0.156,88,115.0
4534,F#2,337.25,0.125,65,115.0
4535,G4,337.494,27/200,88,115.0
4536,E4,337.494,27/200,88,115.0
4537,G1,337.5,0.125,93,115.0
4538,G1,337.5,0.125,93,115.0
4539,F#2,337.5,23/200,70,115.0
4540,G4,337.744,0.125,104,115.0
4541,E4,337.744,0.125,104,115.0
4542,G1,337.75,27/200,92,115.0
4543,G1,337.75,27/200,92,115.0
4544,B1,337.75,0.25,113,115.0
4545,E2,338.0,0.125,89,115.0
4546,E2,338.0,0.125,89,115.0
4547,B1,338.0,0.25,113,115.0
4548,F#2,338.0,99/500,90,115.0
4549,E2,338.0,99/500,90,115.0
4550,D4,338.24,73/1000,108,115.0
4551,F2,338.25,0.125,100,115.0
4552,F2,338.25,0.125,100,115.0
4553,F#2,338.25,27/200,65,115.0
4554,E4,338.5,83/1000,108,115.0
4555,G1,338.5,0.125,89,115.0
4556,G1,338.5,0.125,89,115.0
4557,F#2,338.5,23/200,74,115.0
4558,E4,338.75,83/1000,98,115.0
4559,G1,338.75,73/500,92,115.0
4560,G1,338.75,73/500,92,115.0
4561,G1,338.75,73/500,92,115.0
4562,G1,338.75,73/500,92,115.0
4563,D4,339.0,83/1000,111,115.0
4564,E1,339.0,0.406,89,115.0
4565,E1,339.0,0.406,89,115.0
4566,B1,339.0,0.25,113,115.0
4567,F#2,339.0,73/500,74,115.0
4568,B5,339.0,99/250,100,115.0
4569,G5,339.0,99/250,100,115.0
4570,E5,339.0,99/250,100,115.0
4571,E4,339.24,73/1000,113,115.0
4572,F#2,339.25,73/500,65,115.0
4573,E1,339.5,0.125,91,115.0
4574,E1,339.5,0.125,91,115.0
4575,F#2,339.5,0.125,74,115.0
4576,B5,339.5,103/200,100,115.0
4577,G5,339.5,103/200,100,115.0
4578,E5,339.5,103/200,100,115.0
4579,E1,339.75,0.125,93,115.0
4580,E1,339.75,0.125,93,115.0
4581,B4,339.994,0.125,100,115.0
4582,D4,339.994,0.125,100,115.0
4583,D2,340.0,0.125,94,115.0
4584,D2,340.0,0.125,94,115.0
4585,B1,340.0,0.25,113,115.0
4586,E2,340.0,0.156,90,115.0
4587,F#2,340.0,0.156,90,115.0
4588,F#2,340.25,0.156,67,115.0
4589,E2,340.25,0.125,94,115.0
4590,E2,340.25,0.125,94,115.0
4591,E2,340.25,0.125,94,115.0
4592,E2,340.25,0.125,94,115.0
4593,D4,340.494,0.125,102,115.0
4594,A4,340.494,0.125,102,115.0
4595,E1,340.5,0.125,100,115.0
4596,E1,340.5,0.125,100,115.0
4597,F#2,340.5,27/200,74,115.0
4598,E1,340.75,0.125,88,115.0
4599,E1,340.75,0.125,88,115.0
4600,A4,340.994,0.75,102,115.0
4601,D4,340.994,0.594,98,115.0
4602,D3,341.0,0.125,89,115.0
4603,D3,341.0,0.125,89,115.0
4604,B1,341.0,0.25,113,115.0
4605,F#2,341.0,27/200,74,115.0
4606,E3,341.25,0.125,100,115.0
4607,E3,341.25,0.125,100,115.0
4608,F#2,341.25,73/500,67,115.0
4609,E1,341.5,0.125,93,115.0
4610,E1,341.5,0.125,93,115.0
4611,F#2,341.5,0.125,77,115.0
4612,G4,341.744,23/200,108,115.0
4613,E4,341.744,23/200,108,115.0
4614,E1,341.75,27/200,92,115.0
4615,E1,341.75,27/200,92,115.0
4616,D2,342.0,0.125,89,115.0
4617,D2,342.0,0.125,89,115.0
4618,B1,342.0,0.25,113,115.0
4619,F#2,342.0,0.156,90,115.0
4620,E2,342.0,0.156,90,115.0
4621,D4,342.25,73/1000,108,115.0
4622,E2,342.25,0.125,100,115.0
4623,E2,342.25,0.125,100,115.0
4624,F#2,342.25,73/500,67,115.0
4625,E4,342.49,73/1000,98,115.0
4626,E1,342.5,0.125,89,115.0
4627,E1,342.5,0.125,89,115.0
4628,F#2,342.5,23/200,74,115.0
4629,E4,342.74,0.094,98,115.0
4630,E1,342.75,73/500,92,115.0
4631,E1,342.75,73/500,92,115.0
4632,D4,342.979,21/1000,101,115.0
4633,D4,343.0,73/1000,101,115.0
4634,A1,343.0,0.406,89,115.0
4635,A1,343.0,0.406,89,115.0
4636,F#2,343.0,0.25,95,115.0
4637,B1,343.0,0.25,95,115.0
4638,E4,343.25,83/1000,104,115.0
4639,F#2,343.25,177/1000,67,115.0
4640,E4,343.494,27/200,102,115.0
4641,A4,343.494,27/200,102,115.0
4642,A1,343.5,0.125,91,115.0
4643,A1,343.5,0.125,91,115.0
4644,F#2,343.5,27/200,74,115.0
4645,A1,343.75,0.125,93,115.0
4646,A1,343.75,0.125,93,115.0
4647,E4,344.0,83/1000,111,115.0
4648,F#2,344.0,0.125,94,115.0
4649,F#2,344.0,0.125,94,115.0
4650,B1,344.0,0.25,113,115.0
4651,F#2,344.0,167/1000,90,115.0
4652,E2,344.0,167/1000,90,115.0
4653,A4,344.244,27/200,102,115.0
4654,E4,344.244,27/200,102,115.0
4655,E4,344.25,73/1000,98,115.0
4656,G2,344.25,0.125,89,115.0
4657,G2,344.25,0.125,89,115.0
4658,F#2,344.25,167/1000,67,115.0
4659,D4,344.49,83/1000,108,115.0
4660,A1,344.5,0.125,100,115.0
4661,A1,344.5,0.125,100,115.0
4662,F#2,344.5,0.125,72,115.0
4663,E4,344.75,0.094,106,115.0
4664,A1,344.75,0.125,88,115.0
4665,A1,344.75,0.125,88,115.0
4666,G4,344.994,73/500,92,115.0
4667,E4,344.994,73/500,92,115.0
4668,G1,345.0,333/1000,89,115.0
4669,G1,345.0,333/1000,89,115.0
4670,B1,345.0,0.25,113,115.0
4671,F#2,345.0,0.156,74,115.0
4672,E4,345.244,27/200,90,115.0
4673,G4,345.244,27/200,90,115.0
4674,F#2,345.25,0.156,67,115.0
4675,E4,345.494,0.125,92,115.0
4676,G4,345.494,0.125,92,115.0
4677,G1,345.5,0.125,93,115.0
4678,G1,345.5,0.125,93,115.0
4679,F#2,345.5,23/200,72,115.0
4680,G4,345.744,0.125,105,115.0
4681,E4,345.744,0.125,105,115.0
4682,G1,345.75,27/200,92,115.0
4683,G1,345.75,27/200,92,115.0
4684,B1,345.75,0.25,113,115.0
4685,E2,346.0,0.125,89,115.0
4686,E2,346.0,0.125,89,115.0
4687,B1,346.0,0.25,113,115.0
4688,E2,346.0,73/500,88,115.0
4689,F#2,346.0,73/500,88,115.0
4690,D4,346.25,0.094,102,115.0
4691,F2,346.25,0.125,100,115.0
4692,F2,346.25,0.125,100,115.0
4693,F#2,346.25,167/1000,68,115.0
4694,E4,346.5,83/1000,106,115.0
4695,G1,346.5,0.125,89,115.0
4696,G1,346.5,0.125,89,115.0
4697,F#2,346.5,0.125,74,115.0
4698,E4,346.75,83/1000,101,115.0
4699,G1,346.75,73/500,92,115.0
4700,G1,346.75,73/500,92,115.0
4701,G1,346.75,73/500,92,115.0
4702,G1,346.75,73/500,92,115.0
4703,D4,347.0,73/1000,106,115.0
4704,E1,347.0,0.406,89,115.0
4705,E1,347.0,0.406,89,115.0
4706,F#2,347.0,0.156,77,115.0
4707,B1,347.0,0.25,113,115.0
4708,B5,347.0,99/250,100,115.0
4709,G5,347.0,99/250,100,115.0
4710,E5,347.0,99/250,100,115.0
4711,E4,347.25,83/1000,111,115.0
4712,F#2,347.25,27/200,65,115.0
4713,E1,347.5,0.125,91,115.0
4714,E1,347.5,0.125,91,115.0
4715,F#2,347.5,0.125,72,115.0
4716,B5,347.5,103/200,100,115.0
4717,G5,347.5,103/200,100,115.0
4718,E5,347.5,103/200,100,115.0
4719,E1,347.75,0.125,93,115.0
4720,E1,347.75,0.125,93,115.0
4721,D4,347.994,73/500,102,115.0
4722,B4,347.994,73/500,102,115.0
4723,D2,348.0,0.125,94,115.0
4724,D2,348.0,0.125,94,115.0
4725,B1,348.0,0.25,113,115.0
4726,F#2,348.0,167/1000,90,115.0
4727,E2,348.0,167/1000,90,115.0
4728,F#2,348.25,0.156,67,115.0
4729,E2,348.25,0.125,94,115.0
4730,E2,348.25,0.125,94,115.0
4731,E2,348.25,0.125,94,115.0
4732,E2,348.25,0.125,94,115.0
4733,A4,348.494,23/200,100,115.0
4734,D4,348.494,23/200,100,115.0
4735,E1,348.5,0.125,100,115.0
4736,E1,348.5,0.125,100,115.0
4737,F#2,348.5,0.125,74,115.0
4738,E1,348.75,13/125,88,115.0
4739,E1,348.75,13/125,88,115.0
4740,A4,348.994,729/1000,105,115.0
4741,D4,348.994,0.562,98,115.0
4742,E1,349.0,333/1000,89,115.0
4743,E1,349.0,333/1000,89,115.0
4744,B1,349.0,0.25,113,115.0
4745,F#2,349.0,167/1000,74,115.0
4746,F#2,349.25,167/1000,67,115.0
4747,E1,349.5,0.125,93,115.0
4748,E1,349.5,0.125,93,115.0
4749,F#2,349.5,13/125,70,115.0
4750,D4,349.744,73/500,103,115.0
4751,G4,349.744,73/500,103,115.0
4752,E1,349.75,27/200,92,115.0
4753,E1,349.75,27/200,92,115.0
4754,D2,350.0,0.125,89,115.0
4755,D2,350.0,0.125,89,115.0
4756,B1,350.0,0.25,113,115.0
4757,F#2,350.0,0.156,89,115.0
4758,E2,350.0,0.156,89,115.0
4759,E2,350.25,0.125,100,115.0
4760,E2,350.25,0.125,100,115.0
4761,F#2,350.25,177/1000,67,115.0
4762,D4,350.5,0.094,111,115.0
4763,E1,350.5,0.125,89,115.0
4764,E1,350.5,0.125,89,115.0
4765,F#2,350.5,27/200,74,115.0
4766,E4,350.75,0.094,97,115.0
4767,E1,350.75,73/500,92,115.0
4768,E1,350.75,73/500,92,115.0
4769,A1,351.0,0.406,89,115.0
4770,A1,351.0,0.406,89,115.0
4771,F#2,351.0,0.156,77,115.0
4772,B1,351.0,0.25,113,115.0
4773,F#2,351.25,167/1000,67,115.0
4774,A4,351.494,27/200,98,115.0
4775,E4,351.494,27/200,98,115.0
4776,E4,351.5,83/1000,99,115.0
4777,A1,351.5,0.125,91,115.0
4778,A1,351.5,0.125,91,115.0
4779,F#2,351.5,23/200,70,115.0
4780,E4,351.75,83/1000,98,115.0
4781,A1,351.75,0.125,93,115.0
4782,A1,351.75,0.125,93,115.0
4783,D4,352.0,0.094,108,115.0
4784,F#2,352.0,0.125,100,115.0
4785,F#2,352.0,0.125,100,115.0
4786,B1,352.0,0.25,113,115.0
4787,E2,352.0,73/500,90,115.0
4788,F#2,352.0,73/500,90,115.0
4789,A4,352.244,0.125,104,115.0
4790,E4,352.244,0.125,104,115.0
4791,E4,352.25,0.094,106,115.0
4792,G2,352.25,0.125,100,115.0
4793,G2,352.25,0.125,100,115.0
4794,F#2,352.25,73/500,68,115.0
4795,A1,352.5,0.125,100,115.0
4796,A1,352.5,0.125,100,115.0
4797,F#2,352.5,13/125,74,115.0
4798,A1,352.75,13/125,88,115.0
4799,A1,352.75,13/125,88,115.0
4800,G4,352.994,73/500,98,115.0
4801,E4,352.994,73/500,98,115.0
4802,E4,353.0,83/1000,104,115.0
4803,G1,353.0,333/1000,89,115.0
4804,G1,353.0,333/1000,89,115.0
4805,F#2,353.0,73/500,74,115.0
4806,B1,353.0,0.25,113,115.0
4807,G4,353.244,0.156,94,115.0
4808,E4,353.244,0.156,94,115.0
4809,E4,353.25,83/1000,99,115.0
4810,F#2,353.25,0.094,67,115.0
4811,D4,353.49,0.094,113,115.0
4812,G4,353.494,0.125,78,115.0
4813,E4,353.494,0.125,78,115.0
4814,G1,353.5,0.125,93,115.0
4815,G1,353.5,0.125,93,115.0
4816,E4,353.74,73/1000,106,115.0
4817,G4,353.744,0.125,96,115.0
4818,E4,353.744,0.125,96,115.0
4819,G1,353.75,27/200,92,115.0
4820,G1,353.75,27/200,92,115.0
4821,B1,353.75,0.25,113,115.0
4822,E2,354.0,0.125,89,115.0
4823,E2,354.0,0.125,89,115.0
4824,B1,354.0,0.25,113,115.0
4825,F#2,354.0,167/1000,91,115.0
4826,E2,354.0,167/1000,91,115.0
4827,D4,354.25,73/1000,113,115.0
4828,F2,354.25,0.125,100,115.0
4829,F2,354.25,0.125,100,115.0
4830,E4,354.5,73/1000,111,115.0
4831,G1,354.5,0.125,89,115.0
4832,G1,354.5,0.125,89,115.0
4833,E4,354.75,83/1000,101,115.0
4834,G1,354.75,73/500,92,115.0
4835,G1,354.75,73/500,92,115.0
4836,G1,354.75,73/500,92,115.0
4837,G1,354.75,73/500,92,115.0
4838,D4,355.0,83/1000,113,115.0
4839,E1,355.0,0.406,89,115.0
4840,E1,355.0,0.406,89,115.0
4841,F#2,355.0,23/200,77,115.0
4842,B1,355.0,0.25,113,115.0
4843,B5,355.0,99/250,100,115.0
4844,G5,355.0,99/250,100,115.0
4845,E5,355.0,99/250,100,115.0
4846,E4,355.25,83/1000,113,115.0
4847,F#2,355.25,0.156,55,115.0
4848,E1,355.5,0.125,91,115.0
4849,E1,355.5,0.125,91,115.0
4850,F#2,355.5,27/200,74,115.0
4851,B5,355.5,103/200,100,115.0
4852,G5,355.5,103/200,100,115.0
4853,E5,355.5,103/200,100,115.0
4854,E1,355.75,0.125,93,115.0
4855,E1,355.75,0.125,93,115.0
4856,D4,355.994,73/500,97,115.0
4857,B4,355.994,73/500,97,115.0
4858,D2,356.0,0.125,94,115.0
4859,D2,356.0,0.125,94,115.0
4860,B1,356.0,0.25,113,115.0
4861,E2,356.0,177/1000,91,115.0
4862,F#2,356.0,177/1000,91,115.0
4863,F#2,356.25,177/1000,64,115.0
4864,E2,356.25,0.125,94,115.0
4865,E2,356.25,0.125,94,115.0
4866,E2,356.25,0.125,94,115.0
4867,E2,356.25,0.125,94,115.0
4868,A4,356.494,23/200,104,115.0
4869,D4,356.494,23/200,104,115.0
4870,E1,356.5,0.125,100,115.0
4871,E1,356.5,0.125,100,115.0
4872,F#2,356.5,27/200,77,115.0
4873,E1,356.75,0.125,88,115.0
4874,E1,356.75,0.125,88,115.0
4875,D4,356.994,0.625,105,115.0
4876,A4,356.994,729/1000,109,115.0
4877,D3,357.0,0.125,89,115.0
4878,D3,357.0,0.125,89,115.0
4879,F#2,357.0,73/500,74,115.0
4880,B1,357.0,0.25,113,115.0
4881,E3,357.25,0.125,100,115.0
4882,E3,357.25,0.125,100,115.0
4883,F#2,357.25,167/1000,65,115.0
4884,E1,357.5,0.125,93,115.0
4885,E1,357.5,0.125,93,115.0
4886,F#2,357.5,0.125,74,115.0
4887,E4,357.744,73/500,102,115.0
4888,G4,357.744,73/500,102,115.0
4889,E1,357.75,27/200,92,115.0
4890,E1,357.75,27/200,92,115.0
4891,D2,358.0,0.125,89,115.0
4892,D2,358.0,0.125,89,115.0
4893,B1,358.0,0.25,113,115.0
4894,E2,358.0,0.156,90,115.0
4895,F#2,358.0,0.156,90,115.0
4896,E2,358.25,0.125,100,115.0
4897,E2,358.25,0.125,100,115.0
4898,F#2,358.25,177/1000,69,115.0
4899,E1,358.5,0.125,89,115.0
4900,E1,358.5,0.125,89,115.0
4901,F#4,358.5,0.156,68,115.0
4902,F#2,358.5,0.156,68,115.0
4903,E1,358.75,73/500,92,115.0
4904,E1,358.75,73/500,92,115.0
4905,F#4,358.75,99/500,62,115.0
4906,B1,359.0,0.25,113,115.0
4907,F#2,359.0,0.125,77,115.0
4908,E2,359.25,0.125,91,115.0
4909,E5,359.25,99/500,78,115.0
4910,E2,359.75,0.094,89,115.0
4911,F#5,359.75,0.25,73,115.0
4912,B1,360.0,0.25,113,115.0
4913,E2,360.25,0.094,91,115.0
4914,G#5,360.25,167/1000,76,115.0
4915,G#5,360.5,73/500,76,115.0
4916,G#5,360.75,167/1000,76,115.0
4917,B1,361.0,0.25,113,115.0
4918,D4,361.0,0.094,104,115.0
4919,D5,361.0,0.094,104,115.0
4920,C3,361.0,0.125,88,115.0
4921,E2,361.0,0.125,88,115.0
4922,C3,361.5,27/200,74,115.0
4923,D5,361.5,73/1000,110,115.0
4924,D4,361.5,73/1000,110,115.0
4925,A2,362.0,0.125,83,115.0
4926,E6,362.0,0.188,84,115.0
4927,E4,362.0,77/200,90,115.0
4928,D5,362.0,77/200,90,115.0
4929,B4,362.0,77/200,90,115.0
4930,E5,362.0,77/200,90,115.0
4931,F2,362.5,23/200,81,115.0
4932,E1,363.0,0.406,89,115.0
4933,E1,363.0,0.406,89,115.0
4934,F#2,363.0,0.125,78,115.0
4935,B1,363.0,0.25,113,115.0
4936,B5,363.0,99/250,100,115.0
4937,G5,363.0,99/250,100,115.0
4938,E5,363.0,99/250,100,115.0
4939,E1,363.5,0.125,91,115.0
4940,E1,363.5,0.125,91,115.0
4941,B-2,363.5,56/125,79,115.0
4942,B5,363.5,103/200,100,115.0
4943,G5,363.5,103/200,100,115.0
4944,E5,363.5,103/200,100,115.0
4945,E1,363.75,0.125,93,115.0
4946,E1,363.75,0.125,93,115.0
4947,D4,363.994,0.156,100,115.0
4948,B4,363.994,0.156,100,115.0
4949,D2,364.0,0.125,94,115.0
4950,D2,364.0,0.125,94,115.0
4951,B1,364.0,0.188,109,115.0
4952,E2,364.0,0.188,109,115.0
4953,F#2,364.0,0.188,91,115.0
4954,E2,364.0,0.188,91,115.0
4955,F#2,364.25,73/500,67,115.0
4956,E2,364.25,0.125,94,115.0
4957,E2,364.25,0.125,94,115.0
4958,E2,364.25,0.125,94,115.0
4959,E2,364.25,0.125,94,115.0
4960,E4,364.494,73/500,114,115.0
4961,A4,364.494,73/500,114,115.0
4962,E1,364.5,0.125,100,115.0
4963,E1,364.5,0.125,100,115.0
4964,F#2,364.5,23/200,77,115.0
4965,E1,364.75,13/125,88,115.0
4966,E1,364.75,13/125,88,115.0
4967,A4,364.994,323/500,112,115.0
4968,E4,364.994,0.531,107,115.0
4969,E1,365.0,333/1000,89,115.0
4970,E1,365.0,333/1000,89,115.0
4971,F#2,365.0,27/200,74,115.0
4972,B1,365.0,0.25,113,115.0
4973,F#2,365.25,177/1000,65,115.0
4974,E1,365.5,0.125,93,115.0
4975,E1,365.5,0.125,93,115.0
4976,F#2,365.5,13/125,74,115.0
4977,G4,365.744,0.125,106,115.0
4978,E4,365.744,0.125,106,115.0
4979,E1,365.75,27/200,92,115.0
4980,E1,365.75,27/200,92,115.0
4981,D2,366.0,0.125,89,115.0
4982,D2,366.0,0.125,89,115.0
4983,F#2,366.0,177/1000,74,115.0
4984,B1,366.0,99/500,109,115.0
4985,E2,366.0,99/500,109,115.0
4986,D4,366.25,73/1000,111,115.0
4987,E2,366.25,0.125,100,115.0
4988,E2,366.25,0.125,100,115.0
4989,F#2,366.25,177/1000,67,115.0
4990,E4,366.5,83/1000,99,115.0
4991,E1,366.5,0.125,89,115.0
4992,E1,366.5,0.125,89,115.0
4993,F#2,366.5,0.125,74,115.0
4994,E4,366.75,73/1000,92,115.0
4995,E1,366.75,73/500,92,115.0
4996,E1,366.75,73/500,92,115.0
4997,D4,367.0,73/1000,111,115.0
4998,A1,367.0,0.406,89,115.0
4999,A1,367.0,0.406,89,115.0
5000,B1,367.0,0.25,113,115.0
5001,F#2,367.0,167/1000,74,115.0
5002,E4,367.24,73/1000,113,115.0
5003,F#2,367.25,0.188,68,115.0
5004,A4,367.494,23/200,105,115.0
5005,E4,367.494,23/200,105,115.0
5006,A1,367.5,0.125,91,115.0
5007,A1,367.5,0.125,91,115.0
5008,F#2,367.5,0.094,72,115.0
5009,A1,367.75,0.125,93,115.0
5010,A1,367.75,0.125,93,115.0
5011,F#2,368.0,0.125,100,115.0
5012,F#2,368.0,0.125,100,115.0
5013,B1,368.0,0.25,113,115.0
5014,E2,368.0,73/500,90,115.0
5015,F#2,368.0,73/500,90,115.0
5016,E4,368.01,73/1000,116,115.0
5017,E4,368.244,0.125,98,115.0
5018,A4,368.244,0.125,98,115.0
5019,E4,368.25,83/1000,97,115.0
5020,G2,368.25,0.125,100,115.0
5021,G2,368.25,0.125,100,115.0
5022,F#2,368.25,73/500,67,115.0
5023,D4,368.5,0.062,106,115.0
5024,A1,368.5,0.125,100,115.0
5025,A1,368.5,0.125,100,115.0
5026,F#2,368.5,0.125,74,115.0
5027,E4,368.74,83/1000,101,115.0
5028,A1,368.75,13/125,88,115.0
5029,A1,368.75,13/125,88,115.0
5030,E4,368.994,73/500,98,115.0
5031,G4,368.994,73/500,98,115.0
5032,G1,369.0,333/1000,89,115.0
5033,G1,369.0,333/1000,89,115.0
5034,B1,369.0,0.25,113,115.0
5035,F#2,369.0,73/500,74,115.0
5036,G4,369.244,27/200,98,115.0
5037,E4,369.244,27/200,98,115.0
5038,F#2,369.25,177/1000,67,115.0
5039,E4,369.494,0.125,94,115.0
5040,G4,369.494,0.125,94,115.0
5041,G1,369.5,0.125,93,115.0
5042,G1,369.5,0.125,93,115.0
5043,F#2,369.5,0.125,77,115.0
5044,G4,369.744,23/200,104,115.0
5045,E4,369.744,23/200,104,115.0
5046,G1,369.75,27/200,92,115.0
5047,G1,369.75,27/200,92,115.0
5048,B1,369.75,0.25,113,115.0
5049,E2,370.0,0.125,89,115.0
5050,E2,370.0,0.125,89,115.0
5051,E2,370.0,0.25,97,115.0
5052,F#2,370.0,0.25,97,115.0
5053,B1,370.0,0.25,97,115.0
5054,D4,370.24,73/1000,108,115.0
5055,F2,370.25,0.125,100,115.0
5056,F2,370.25,0.125,100,115.0
5057,F#2,370.25,0.156,64,115.0
5058,E4,370.5,83/1000,108,115.0
5059,G1,370.5,0.125,89,115.0
5060,G1,370.5,0.125,89,115.0
5061,F#2,370.5,0.125,74,115.0
5062,E4,370.75,83/1000,98,115.0
5063,G1,370.75,73/500,92,115.0
5064,G1,370.75,73/500,92,115.0
5065,G1,370.75,73/500,92,115.0
5066,G1,370.75,73/500,92,115.0
5067,D4,371.0,83/1000,111,115.0
5068,E1,371.0,0.406,89,115.0
5069,E1,371.0,0.406,89,115.0
5070,B1,371.0,0.25,113,115.0
5071,F#2,371.0,177/1000,77,115.0
5072,B5,371.0,99/250,100,115.0
5073,G5,371.0,99/250,100,115.0
5074,E5,371.0,99/250,100,115.0
5075,E4,371.24,73/1000,113,115.0
5076,F#2,371.25,177/1000,67,115.0
5077,E1,371.5,0.125,91,115.0
5078,E1,371.5,0.125,91,115.0
5079,F#2,371.5,27/200,74,115.0
5080,B5,371.5,103/200,100,115.0
5081,G5,371.5,103/200,100,115.0
5082,E5,371.5,103/200,100,115.0
5083,E1,371.75,0.125,93,115.0
5084,E1,371.75,0.125,93,115.0
5085,D4,371.994,0.156,99,115.0
5086,B4,371.994,0.156,99,115.0
5087,D2,372.0,0.125,94,115.0
5088,D2,372.0,0.125,94,115.0
5089,F#2,372.0,99/500,90,115.0
5090,E2,372.0,99/500,90,115.0
5091,B1,372.0,99/500,109,115.0
5092,E2,372.0,99/500,109,115.0
5093,F#2,372.25,73/500,67,115.0
5094,E2,372.25,0.125,94,115.0
5095,E2,372.25,0.125,94,115.0
5096,E2,372.25,0.125,94,115.0
5097,E2,372.25,0.125,94,115.0
5098,D4,372.494,0.125,101,115.0
5099,A4,372.494,0.125,101,115.0
5100,E1,372.5,0.125,100,115.0
5101,E1,372.5,0.125,100,115.0
5102,F#2,372.5,0.125,74,115.0
5103,E1,372.75,0.125,88,115.0
5104,E1,372.75,0.125,88,115.0
5105,D4,372.994,49/100,107,115.0
5106,A4,372.994,0.781,107,115.0
5107,D3,373.0,0.125,89,115.0
5108,D3,373.0,0.125,89,115.0
5109,B1,373.0,0.25,113,115.0
5110,F#2,373.0,0.156,74,115.0
5111,E3,373.25,0.125,100,115.0
5112,E3,373.25,0.125,100,115.0
5113,F#2,373.25,73/500,67,115.0
5114,E1,373.5,0.125,93,115.0
5115,E1,373.5,0.125,93,115.0
5116,F#2,373.5,13/125,70,115.0
5117,E4,373.744,27/200,94,115.0
5118,G4,373.744,27/200,94,115.0
5119,E1,373.75,27/200,92,115.0
5120,E1,373.75,27/200,92,115.0
5121,D2,374.0,0.125,89,115.0
5122,D2,374.0,0.125,89,115.0
5123,B1,374.0,0.25,113,115.0
5124,F#2,374.0,167/1000,91,115.0
5125,E2,374.0,167/1000,91,115.0
5126,D4,374.25,73/1000,108,115.0
5127,E2,374.25,0.125,100,115.0
5128,E2,374.25,0.125,100,115.0
5129,F#2,374.25,177/1000,67,115.0
5130,E4,374.49,73/1000,98,115.0
5131,E1,374.5,0.125,89,115.0
5132,E1,374.5,0.125,89,115.0
5133,F#2,374.5,0.125,74,115.0
5134,E4,374.74,0.094,98,115.0
5135,E1,374.75,73/500,92,115.0
5136,E1,374.75,73/500,92,115.0
5137,D4,374.979,21/1000,101,115.0
5138,D4,375.0,73/1000,101,115.0
5139,A1,375.0,0.406,89,115.0
5140,A1,375.0,0.406,89,115.0
5141,B1,375.0,0.25,113,115.0
5142,F#2,375.0,0.156,74,115.0
5143,E4,375.25,83/1000,104,115.0
5144,F#2,375.25,167/1000,65,115.0
5145,E4,375.494,0.156,102,115.0
5146,A4,375.494,0.156,102,115.0
5147,A1,375.5,0.125,91,115.0
5148,A1,375.5,0.125,91,115.0
5149,F#2,375.5,27/200,77,115.0
5150,A1,375.75,0.125,93,115.0
5151,A1,375.75,0.125,93,115.0
5152,E4,376.0,83/1000,111,115.0
5153,F#2,376.0,0.125,94,115.0
5154,F#2,376.0,0.125,94,115.0
5155,F#2,376.0,0.25,98,115.0
5156,E2,376.0,0.25,98,115.0
5157,B1,376.0,0.25,98,115.0
5158,A4,376.244,0.125,103,115.0
5159,E4,376.244,0.125,103,115.0
5160,E4,376.25,73/1000,98,115.0
5161,G2,376.25,0.125,89,115.0
5162,G2,376.25,0.125,89,115.0
5163,F#2,376.25,0.188,64,115.0
5164,D4,376.49,83/1000,108,115.0
5165,A1,376.5,0.125,100,115.0
5166,A1,376.5,0.125,100,115.0
5167,F#2,376.5,0.125,74,115.0
5168,E4,376.75,0.094,106,115.0
5169,A1,376.75,0.125,88,115.0
5170,A1,376.75,0.125,88,115.0
5171,E4,376.994,73/500,95,115.0
5172,G4,376.994,73/500,95,115.0
5173,G1,377.0,333/1000,89,115.0
5174,G1,377.0,333/1000,89,115.0
5175,B1,377.0,0.25,113,115.0
5176,F#2,377.0,177/1000,74,115.0
5177,E4,377.244,73/500,94,115.0
5178,G4,377.244,73/500,94,115.0
5179,F#2,377.25,0.188,63,115.0
5180,E4,377.494,0.125,92,115.0
5181,G4,377.494,0.125,92,115.0
5182,G1,377.5,0.125,93,115.0
5183,G1,377.5,0.125,93,115.0
5184,F#2,377.5,73/500,74,115.0
5185,G4,377.744,23/200,110,115.0
5186,E4,377.744,23/200,110,115.0
5187,G1,377.75,27/200,92,115.0
5188,G1,377.75,27/200,92,115.0
5189,B1,377.75,0.25,113,115.0
5190,E2,378.0,0.125,89,115.0
5191,E2,378.0,0.125,89,115.0
5192,B1,378.0,0.25,113,115.0
5193,F#2,378.0,177/1000,88,115.0
5194,E2,378.0,177/1000,88,115.0
5195,D4,378.25,0.094,102,115.0
5196,F2,378.25,0.125,100,115.0
5197,F2,378.25,0.125,100,115.0
5198,F#2,378.25,167/1000,64,115.0
5199,E4,378.5,83/1000,106,115.0
5200,G1,378.5,0.125,89,115.0
5201,G1,378.5,0.125,89,115.0
5202,F#2,378.5,27/200,77,115.0
5203,E4,378.75,83/1000,101,115.0
5204,G1,378.75,73/500,92,115.0
5205,G1,378.75,73/500,92,115.0
5206,G1,378.75,73/500,92,115.0
5207,G1,378.75,73/500,92,115.0
5208,D4,379.0,73/1000,106,115.0
5209,E1,379.0,0.406,89,115.0
5210,E1,379.0,0.406,89,115.0
5211,F#2,379.0,0.156,74,115.0
5212,B1,379.0,0.25,113,115.0
5213,B5,379.0,99/250,100,115.0
5214,G5,379.0,99/250,100,115.0
5215,E5,379.0,99/250,100,115.0
5216,E4,379.25,83/1000,111,115.0
5217,F#2,379.25,0.156,65,115.0
5218,E1,379.5,0.125,91,115.0
5219,E1,379.5,0.125,91,115.0
5220,F#2,379.5,27/200,74,115.0
5221,B5,379.5,103/200,100,115.0
5222,G5,379.5,103/200,100,115.0
5223,E5,379.5,103/200,100,115.0
5224,E1,379.75,0.125,93,115.0
5225,E1,379.75,0.125,93,115.0
5226,D4,379.994,73/500,90,115.0
5227,B4,379.994,73/500,90,115.0
5228,D2,380.0,0.125,94,115.0
5229,D2,380.0,0.125,94,115.0
5230,B1,380.0,99/500,94,115.0
5231,F#2,380.0,99/500,94,115.0
5232,E2,380.0,99/500,90,115.0
5233,F#2,380.0,99/500,90,115.0
5234,F#2,380.25,0.156,65,115.0
5235,E2,380.25,0.125,94,115.0
5236,E2,380.25,0.125,94,115.0
5237,E2,380.25,0.125,94,115.0
5238,E2,380.25,0.125,94,115.0
5239,A4,380.494,0.125,104,115.0
5240,D4,380.494,0.125,104,115.0
5241,E1,380.5,0.125,100,115.0
5242,E1,380.5,0.125,100,115.0
5243,F#2,380.5,27/200,74,115.0
5244,E1,380.75,13/125,88,115.0
5245,E1,380.75,13/125,88,115.0
5246,D4,380.994,323/500,96,115.0
5247,A4,380.994,771/1000,102,115.0
5248,E1,381.0,333/1000,89,115.0
5249,E1,381.0,333/1000,89,115.0
5250,F#2,381.0,73/500,77,115.0
5251,B1,381.0,0.25,113,115.0
5252,F#2,381.25,167/1000,67,115.0
5253,E1,381.5,0.125,93,115.0
5254,E1,381.5,0.125,93,115.0
5255,F#2,381.5,23/200,74,115.0
5256,G4,381.744,27/200,98,115.0
5257,E4,381.744,27/200,98,115.0
5258,E1,381.75,27/200,92,115.0
5259,E1,381.75,27/200,92,115.0
5260,D2,382.0,0.125,89,115.0
5261,D2,382.0,0.125,89,115.0
5262,B1,382.0,0.25,113,115.0
5263,F#2,382.0,0.156,90,115.0
5264,E2,382.0,0.156,90,115.0
5265,E2,382.25,0.125,100,115.0
5266,E2,382.25,0.125,100,115.0
5267,F#2,382.25,0.188,67,115.0
5268,D4,382.5,0.094,111,115.0
5269,E1,382.5,0.125,89,115.0
5270,E1,382.5,0.125,89,115.0
5271,F#2,382.5,27/200,74,115.0
5272,E4,382.75,0.094,97,115.0
5273,E1,382.75,73/500,92,115.0
5274,E1,382.75,73/500,92,115.0
5275,A1,383.0,0.406,89,115.0
5276,A1,383.0,0.406,89,115.0
5277,F#2,383.0,177/1000,77,115.0
5278,B1,383.0,0.25,113,115.0
5279,F#2,383.25,0.156,67,115.0
5280,A4,383.494,73/500,100,115.0
5281,E4,383.494,73/500,100,115.0
5282,E4,383.5,83/1000,99,115.0
5283,A1,383.5,0.125,91,115.0
5284,A1,383.5,0.125,91,115.0
5285,F#2,383.5,27/200,74,115.0
5286,E4,383.75,83/1000,98,115.0
5287,A1,383.75,0.125,93,115.0
5288,A1,383.75,0.125,93,115.0
5289,D4,384.0,0.094,108,115.0
5290,F#2,384.0,0.125,100,115.0
5291,F#2,384.0,0.125,100,115.0
5292,B1,384.0,0.25,113,115.0
5293,E2,384.0,167/1000,90,115.0
5294,F#2,384.0,167/1000,90,115.0
5295,A4,384.244,13/125,104,115.0
5296,E4,384.244,13/125,104,115.0
5297,E4,384.25,0.094,106,115.0
5298,G2,384.25,0.125,100,115.0
5299,G2,384.25,0.125,100,115.0
5300,F#2,384.25,167/1000,64,115.0
5301,A1,384.5,0.125,100,115.0
5302,A1,384.5,0.125,100,115.0
5303,F#2,384.5,73/500,74,115.0
5304,A1,384.75,13/125,88,115.0
5305,A1,384.75,13/125,88,115.0
5306,E4,384.994,13/125,97,115.0
5307,G4,384.994,13/125,97,115.0
5308,E4,385.0,83/1000,104,115.0
5309,G1,385.0,333/1000,89,115.0
5310,G1,385.0,333/1000,89,115.0
5311,B1,385.0,0.188,95,115.0
5312,F#2,385.0,0.188,95,115.0
5313,G4,385.244,0.125,96,115.0
5314,E4,385.244,0.125,96,115.0
5315,E4,385.25,83/1000,99,115.0
5316,F#2,385.25,177/1000,59,115.0
5317,D4,385.49,0.094,113,115.0
5318,E4,385.494,0.125,100,115.0
5319,G4,385.494,0.125,100,115.0
5320,G1,385.5,0.125,93,115.0
5321,G1,385.5,0.125,93,115.0
5322,F#2,385.5,0.125,72,115.0
5323,E4,385.74,73/1000,106,115.0
5324,E4,385.744,27/200,112,115.0
5325,G4,385.744,27/200,112,115.0
5326,G1,385.75,27/200,92,115.0
5327,G1,385.75,27/200,92,115.0
5328,B1,385.75,0.25,113,115.0
5329,E2,386.0,0.125,89,115.0
5330,E2,386.0,0.125,89,115.0
5331,B1,386.0,0.25,113,115.0
5332,E2,386.0,0.156,90,115.0
5333,F#2,386.0,0.156,90,115.0
5334,D4,386.25,73/1000,113,115.0
5335,F2,386.25,0.125,100,115.0
5336,F2,386.25,0.125,100,115.0
5337,F#2,386.25,177/1000,63,115.0
5338,E4,386.5,73/1000,111,115.0
5339,G1,386.5,0.125,89,115.0
5340,G1,386.5,0.125,89,115.0
5341,F#2,386.5,0.125,74,115.0
5342,E4,386.75,83/1000,101,115.0
5343,G1,386.75,73/500,92,115.0
5344,G1,386.75,73/500,92,115.0
5345,G1,386.75,73/500,92,115.0
5346,G1,386.75,73/500,92,115.0
5347,D4,387.0,83/1000,113,115.0
5348,E1,387.0,0.406,89,115.0
5349,E1,387.0,0.406,89,115.0
5350,B1,387.0,0.25,113,115.0
5351,F#2,387.0,0.156,74,115.0
5352,B5,387.0,99/250,100,115.0
5353,G5,387.0,99/250,100,115.0
5354,E5,387.0,99/250,100,115.0
5355,E4,387.25,83/1000,113,115.0
5356,F#2,387.25,167/1000,65,115.0
5357,E1,387.5,0.125,91,115.0
5358,E1,387.5,0.125,91,115.0
5359,F#2,387.5,0.125,74,115.0
5360,B5,387.5,103/200,100,115.0
5361,G5,387.5,103/200,100,115.0
5362,E5,387.5,103/200,100,115.0
5363,E1,387.75,0.125,93,115.0
5364,E1,387.75,0.125,93,115.0
5365,B4,387.994,27/200,92,115.0
5366,D4,387.994,27/200,92,115.0
5367,D2,388.0,0.125,94,115.0
5368,D2,388.0,0.125,94,115.0
5369,B1,388.0,0.25,113,115.0
5370,E2,388.0,167/1000,91,115.0
5371,F#2,388.0,167/1000,91,115.0
5372,F#2,388.25,0.156,63,115.0
5373,E2,388.25,0.125,94,115.0
5374,E2,388.25,0.125,94,115.0
5375,E2,388.25,0.125,94,115.0
5376,E2,388.25,0.125,94,115.0
5377,A4,388.494,0.125,102,115.0
5378,D4,388.494,0.125,102,115.0
5379,E1,388.5,0.125,100,115.0
5380,E1,388.5,0.125,100,115.0
5381,F#2,388.5,0.125,74,115.0
5382,E1,388.75,0.125,88,115.0
5383,E1,388.75,0.125,88,115.0
5384,A4,388.994,0.75,109,115.0
5385,D4,388.994,151/250,109,115.0
5386,D3,389.0,0.125,89,115.0
5387,D3,389.0,0.125,89,115.0
5388,B1,389.0,0.25,113,115.0
5389,F#2,389.0,0.156,77,115.0
5390,E3,389.25,0.125,100,115.0
5391,E3,389.25,0.125,100,115.0
5392,F#2,389.25,167/1000,67,115.0
5393,E1,389.5,0.125,93,115.0
5394,E1,389.5,0.125,93,115.0
5395,F#2,389.5,13/125,70,115.0
5396,E4,389.744,0.156,92,115.0
5397,G4,389.744,0.156,92,115.0
5398,E1,389.75,27/200,92,115.0
5399,E1,389.75,27/200,92,115.0
5400,D2,390.0,0.125,89,115.0
5401,D2,390.0,0.125,89,115.0
5402,B1,390.0,0.25,113,115.0
5403,E2,390.0,73/500,90,115.0
5404,F#2,390.0,73/500,90,115.0
5405,E2,390.25,0.125,100,115.0
5406,E2,390.25,0.125,100,115.0
5407,F#2,390.25,167/1000,67,115.0
5408,E1,390.5,0.125,89,115.0
5409,E1,390.5,0.125,89,115.0
5410,F#2,390.5,27/200,68,115.0
5411,F#4,390.5,27/200,68,115.0
5412,E1,390.75,73/500,92,115.0
5413,E1,390.75,73/500,92,115.0
5414,F#4,390.75,177/1000,61,115.0
5415,F#2,391.0,73/500,77,115.0
5416,B1,391.0,0.25,113,115.0
5417,E2,391.25,0.125,86,115.0
5418,E5,391.25,0.156,84,115.0
5419,E2,391.719,0.031,81,115.0
5420,E2,391.75,0.094,91,115.0
5421,F#5,391.75,167/1000,84,115.0
5422,B1,392.0,0.25,113,115.0
5423,E2,392.208,21/500,82,115.0
5424,E2,392.25,83/1000,89,115.0
5425,G#5,392.25,73/500,78,115.0
5426,G#5,392.5,0.125,73,115.0
5427,G#5,392.75,73/500,87,115.0
5428,B1,393.0,0.25,113,115.0
5429,D5,393.0,83/1000,104,115.0
5430,D4,393.0,83/1000,104,115.0
5431,C3,393.0,0.125,88,115.0
5432,E2,393.0,0.125,88,115.0
5433,C3,393.5,27/200,81,115.0
5434,D5,393.5,73/1000,110,115.0
5435,D4,393.5,73/1000,110,115.0
5436,A2,394.0,27/200,83,115.0
5437,E6,394.0,0.188,78,115.0
5438,E5,394.0,0.375,93,115.0
5439,D5,394.0,0.375,93,115.0
5440,E4,394.0,0.375,93,115.0
5441,B4,394.0,0.375,93,115.0
5442,F2,394.5,0.125,83,115.0
5443,E1,395.0,0.406,89,115.0
5444,E1,395.0,0.406,89,115.0
5445,B1,395.0,0.25,113,115.0
5446,F#2,395.0,0.125,78,115.0
5447,B5,395.0,99/250,100,115.0
5448,G5,395.0,99/250,100,115.0
5449,E5,395.0,99/250,100,115.0
5450,E1,395.5,0.125,91,115.0
5451,E1,395.5,0.125,91,115.0
5452,B-2,395.5,56/125,79,115.0
5453,B5,395.5,103/200,100,115.0
5454,G5,395.5,103/200,100,115.0
5455,E5,395.5,103/200,100,115.0
5456,E1,395.75,0.125,93,115.0
5457,E1,395.75,0.125,93,115.0
5458,D4,395.994,0.156,100,115.0
5459,B4,395.994,0.156,100,115.0
5460,D2,396.0,0.125,94,115.0
5461,D2,396.0,0.125,94,115.0
5462,B1,396.0,0.188,109,115.0
5463,E2,396.0,0.188,109,115.0
5464,F#2,396.0,0.188,91,115.0
5465,E2,396.0,0.188,91,115.0
5466,F#2,396.25,73/500,67,115.0
5467,E2,396.25,0.125,94,115.0
5468,E2,396.25,0.125,94,115.0
5469,E2,396.25,0.125,94,115.0
5470,E2,396.25,0.125,94,115.0
5471,A4,396.494,73/500,114,115.0
5472,E4,396.494,73/500,114,115.0
5473,E1,396.5,0.125,100,115.0
5474,E1,396.5,0.125,100,115.0
5475,F#2,396.5,23/200,77,115.0
5476,E1,396.75,13/125,88,115.0
5477,E1,396.75,13/125,88,115.0
5478,E4,396.994,0.531,107,115.0
5479,A4,396.994,323/500,112,115.0
5480,E1,397.0,333/1000,89,115.0
5481,E1,397.0,333/1000,89,115.0
5482,B1,397.0,0.25,113,115.0
5483,F#2,397.0,27/200,74,115.0
5484,F#2,397.25,177/1000,65,115.0
5485,E1,397.5,0.125,93,115.0
5486,E1,397.5,0.125,93,115.0
5487,F#2,397.5,13/125,74,115.0
5488,E4,397.744,27/200,106,115.0
5489,G4,397.744,27/200,106,115.0
5490,E1,397.75,27/200,92,115.0
5491,E1,397.75,27/200,92,115.0
5492,D2,398.0,0.125,89,115.0
5493,D2,398.0,0.125,89,115.0
5494,B1,398.0,0.25,113,115.0
5495,F#2,398.0,99/500,90,115.0
5496,E2,398.0,99/500,90,115.0
5497,D4,398.25,73/1000,111,115.0
5498,E2,398.25,0.125,100,115.0
5499,E2,398.25,0.125,100,115.0
5500,F#2,398.25,177/1000,67,115.0
5501,E4,398.5,83/1000,99,115.0
5502,E1,398.5,0.125,89,115.0
5503,E1,398.5,0.125,89,115.0
5504,F#2,398.5,0.125,74,115.0
5505,E4,398.75,73/1000,92,115.0
5506,E1,398.75,73/500,92,115.0
5507,E1,398.75,73/500,92,115.0
5508,D4,399.0,73/1000,111,115.0
5509,A1,399.0,0.406,89,115.0
5510,A1,399.0,0.406,89,115.0
5511,F#2,399.0,167/1000,74,115.0
5512,B1,399.0,0.25,113,115.0
5513,E4,399.24,73/1000,113,115.0
5514,F#2,399.25,0.188,68,115.0
5515,E4,399.494,27/200,105,115.0
5516,A4,399.494,27/200,105,115.0
5517,A1,399.5,0.125,91,115.0
5518,A1,399.5,0.125,91,115.0
5519,F#2,399.5,0.094,72,115.0
5520,A1,399.75,0.125,93,115.0
5521,A1,399.75,0.125,93,115.0
5522,F#2,400.0,0.125,100,115.0
5523,F#2,400.0,0.125,100,115.0
5524,B1,400.0,0.25,113,115.0
5525,E2,400.0,73/500,90,115.0
5526,F#2,400.0,73/500,90,115.0
5527,E4,400.01,73/1000,116,115.0
5528,E4,400.244,0.125,98,115.0
5529,A4,400.244,0.125,98,115.0
5530,E4,400.25,83/1000,97,115.0
5531,G2,400.25,0.125,100,115.0
5532,G2,400.25,0.125,100,115.0
5533,F#2,400.25,73/500,67,115.0
5534,D4,400.5,0.062,106,115.0
5535,A1,400.5,0.125,100,115.0
5536,A1,400.5,0.125,100,115.0
5537,F#2,400.5,0.125,74,115.0
5538,E4,400.74,83/1000,101,115.0
5539,A1,400.75,13/125,88,115.0
5540,A1,400.75,13/125,88,115.0
5541,E4,400.994,73/500,98,115.0
5542,G4,400.994,73/500,98,115.0
5543,G1,401.0,333/1000,89,115.0
5544,G1,401.0,333/1000,89,115.0
5545,F#2,401.0,73/500,74,115.0
5546,B1,401.0,0.25,113,115.0
5547,E4,401.244,27/200,98,115.0
5548,G4,401.244,27/200,98,115.0
5549,F#2,401.25,177/1000,67,115.0
5550,E4,401.494,0.125,94,115.0
5551,G4,401.494,0.125,94,115.0
5552,G1,401.5,0.125,93,115.0
5553,G1,401.5,0.125,93,115.0
5554,F#2,401.5,0.125,77,115.0
5555,E4,401.744,27/200,104,115.0
5556,G4,401.744,27/200,104,115.0
5557,G1,401.75,27/200,92,115.0
5558,G1,401.75,27/200,92,115.0
5559,B1,401.75,0.25,113,115.0
5560,E2,402.0,0.125,89,115.0
5561,E2,402.0,0.125,89,115.0
5562,F#2,402.0,73/500,74,115.0
5563,B1,402.0,26/125,109,115.0
5564,E2,402.0,26/125,109,115.0
5565,D4,402.24,73/1000,108,115.0
5566,F2,402.25,0.125,100,115.0
5567,F2,402.25,0.125,100,115.0
5568,F#2,402.25,0.156,64,115.0
5569,E4,402.5,83/1000,108,115.0
5570,G1,402.5,0.125,89,115.0
5571,G1,402.5,0.125,89,115.0
5572,F#2,402.5,0.125,74,115.0
5573,E4,402.75,83/1000,98,115.0
5574,G1,402.75,73/500,92,115.0
5575,G1,402.75,73/500,92,115.0
5576,G1,402.75,73/500,92,115.0
5577,G1,402.75,73/500,92,115.0
5578,D4,403.0,83/1000,111,115.0
5579,E1,403.0,0.406,89,115.0
5580,E1,403.0,0.406,89,115.0
5581,B1,403.0,0.25,113,115.0
5582,F#2,403.0,177/1000,77,115.0
5583,B5,403.0,99/250,100,115.0
5584,G5,403.0,99/250,100,115.0
5585,E5,403.0,99/250,100,115.0
5586,E4,403.24,73/1000,113,115.0
5587,F#2,403.25,177/1000,67,115.0
5588,E1,403.5,0.125,91,115.0
5589,E1,403.5,0.125,91,115.0
5590,F#2,403.5,27/200,74,115.0
5591,B5,403.5,103/200,100,115.0
5592,G5,403.5,103/200,100,115.0
5593,E5,403.5,103/200,100,115.0
5594,E1,403.75,0.125,93,115.0
5595,E1,403.75,0.125,93,115.0
5596,D4,403.994,0.156,99,115.0
5597,B4,403.994,0.156,99,115.0
5598,D2,404.0,0.125,94,115.0
5599,D2,404.0,0.125,94,115.0
5600,F#2,404.0,99/500,90,115.0
5601,E2,404.0,99/500,90,115.0
5602,B1,404.0,99/500,109,115.0
5603,E2,404.0,99/500,109,115.0
5604,F#2,404.25,73/500,67,115.0
5605,E2,404.25,0.125,94,115.0
5606,E2,404.25,0.125,94,115.0
5607,E2,404.25,0.125,94,115.0
5608,E2,404.25,0.125,94,115.0
5609,A4,404.494,23/200,101,115.0
5610,D4,404.494,23/200,101,115.0
5611,E1,404.5,0.125,100,115.0
5612,E1,404.5,0.125,100,115.0
5613,F#2,404.5,0.125,74,115.0
5614,E1,404.75,0.125,88,115.0
5615,E1,404.75,0.125,88,115.0
5616,D4,404.994,49/100,107,115.0
5617,A4,404.994,0.781,107,115.0
5618,D3,405.0,0.125,89,115.0
5619,D3,405.0,0.125,89,115.0
5620,B1,405.0,0.25,113,115.0
5621,F#2,405.0,0.156,74,115.0
5622,E3,405.25,0.125,100,115.0
5623,E3,405.25,0.125,100,115.0
5624,F#2,405.25,73/500,67,115.0
5625,E1,405.5,0.125,93,115.0
5626,E1,405.5,0.125,93,115.0
5627,F#2,405.5,13/125,70,115.0
5628,G4,405.744,0.125,94,115.0
5629,E4,405.744,0.125,94,115.0
5630,E1,405.75,27/200,92,115.0
5631,E1,405.75,27/200,92,115.0
5632,D2,406.0,0.125,89,115.0
5633,D2,406.0,0.125,89,115.0
5634,B1,406.0,0.25,113,115.0
5635,E2,406.0,167/1000,91,115.0
5636,F#2,406.0,167/1000,91,115.0
5637,D4,406.25,73/1000,108,115.0
5638,E2,406.25,0.125,100,115.0
5639,E2,406.25,0.125,100,115.0
5640,F#2,406.25,177/1000,67,115.0
5641,E4,406.49,73/1000,98,115.0
5642,E1,406.5,0.125,89,115.0
5643,E1,406.5,0.125,89,115.0
5644,F#2,406.5,0.125,74,115.0
5645,E4,406.74,0.094,98,115.0
5646,E1,406.75,73/500,92,115.0
5647,E1,406.75,73/500,92,115.0
5648,D4,406.979,21/1000,101,115.0
5649,D4,407.0,73/1000,101,115.0
5650,A1,407.0,0.406,89,115.0
5651,A1,407.0,0.406,89,115.0
5652,B1,407.0,0.25,113,115.0
5653,F#2,407.0,0.156,74,115.0
5654,E4,407.25,83/1000,104,115.0
5655,F#2,407.25,167/1000,65,115.0
5656,E4,407.494,0.156,102,115.0
5657,A4,407.494,0.156,102,115.0
5658,A1,407.5,0.125,91,115.0
5659,A1,407.5,0.125,91,115.0
5660,F#2,407.5,27/200,77,115.0
5661,A1,407.75,0.125,93,115.0
5662,A1,407.75,0.125,93,115.0
5663,E4,408.0,83/1000,111,115.0
5664,F#2,408.0,0.125,94,115.0
5665,F#2,408.0,0.125,94,115.0
5666,F#2,408.0,0.25,98,115.0
5667,E2,408.0,0.25,98,115.0
5668,B1,408.0,0.25,98,115.0
5669,E4,408.244,73/500,103,115.0
5670,A4,408.244,73/500,103,115.0
5671,E4,408.25,73/1000,98,115.0
5672,G2,408.25,0.125,89,115.0
5673,G2,408.25,0.125,89,115.0
5674,F#2,408.25,0.188,64,115.0
5675,D4,408.49,83/1000,108,115.0
5676,A1,408.5,0.125,100,115.0
5677,A1,408.5,0.125,100,115.0
5678,F#2,408.5,0.125,74,115.0
5679,E4,408.75,0.094,106,115.0
5680,A1,408.75,0.125,88,115.0
5681,A1,408.75,0.125,88,115.0
5682,G4,408.994,73/500,95,115.0
5683,E4,408.994,73/500,95,115.0
5684,G1,409.0,333/1000,89,115.0
5685,G1,409.0,333/1000,89,115.0
5686,F#2,409.0,177/1000,74,115.0
5687,B1,409.0,0.25,113,115.0
5688,E4,409.244,73/500,94,115.0
5689,G4,409.244,73/500,94,115.0
5690,F#2,409.25,0.188,63,115.0
5691,E4,409.494,0.125,92,115.0
5692,G4,409.494,0.125,92,115.0
5693,G1,409.5,0.125,93,115.0
5694,G1,409.5,0.125,93,115.0
5695,F#2,409.5,73/500,74,115.0
5696,G4,409.744,23/200,110,115.0
5697,E4,409.744,23/200,110,115.0
5698,G1,409.75,27/200,92,115.0
5699,G1,409.75,27/200,92,115.0
5700,B1,409.75,0.25,113,115.0
5701,E2,410.0,0.125,89,115.0
5702,E2,410.0,0.125,89,115.0
5703,B1,410.0,0.25,113,115.0
5704,F#2,410.0,177/1000,88,115.0
5705,E2,410.0,177/1000,88,115.0
5706,D4,410.25,0.094,102,115.0
5707,F2,410.25,0.125,100,115.0
5708,F2,410.25,0.125,100,115.0
5709,F#2,410.25,167/1000,64,115.0
5710,E4,410.5,83/1000,106,115.0
5711,G1,410.5,0.125,89,115.0
5712,G1,410.5,0.125,89,115.0
5713,F#2,410.5,27/200,77,115.0
5714,E4,410.75,83/1000,101,115.0
5715,G1,410.75,73/500,92,115.0
5716,G1,410.75,73/500,92,115.0
5717,G1,410.75,73/500,92,115.0
5718,G1,410.75,73/500,92,115.0
5719,D4,411.0,73/1000,106,115.0
5720,E1,411.0,0.406,89,115.0
5721,E1,411.0,0.406,89,115.0
5722,F#2,411.0,0.156,74,115.0
5723,B1,411.0,0.25,113,115.0
5724,B5,411.0,99/250,100,115.0
5725,G5,411.0,99/250,100,115.0
5726,E5,411.0,99/250,100,115.0
5727,E4,411.25,83/1000,111,115.0
5728,F#2,411.25,0.156,65,115.0
5729,E1,411.5,0.125,91,115.0
5730,E1,411.5,0.125,91,115.0
5731,F#2,411.5,27/200,74,115.0
5732,B5,411.5,103/200,100,115.0
5733,G5,411.5,103/200,100,115.0
5734,E5,411.5,103/200,100,115.0
5735,E1,411.75,0.125,93,115.0
5736,E1,411.75,0.125,93,115.0
5737,B4,411.994,0.125,90,115.0
5738,D4,411.994,0.125,90,115.0
5739,D2,412.0,0.125,94,115.0
5740,D2,412.0,0.125,94,115.0
5741,E2,412.0,167/1000,105,115.0
5742,B1,412.0,99/500,94,115.0
5743,F#2,412.0,99/500,94,115.0
5744,F#2,412.25,0.156,65,115.0
5745,E2,412.25,0.125,94,115.0
5746,E2,412.25,0.125,94,115.0
5747,E2,412.25,0.125,94,115.0
5748,E2,412.25,0.125,94,115.0
5749,A4,412.494,0.125,104,115.0
5750,D4,412.494,0.125,104,115.0
5751,E1,412.5,0.125,100,115.0
5752,E1,412.5,0.125,100,115.0
5753,F#2,412.5,27/200,74,115.0
5754,E1,412.75,13/125,88,115.0
5755,E1,412.75,13/125,88,115.0
5756,D4,412.994,323/500,96,115.0
5757,A4,412.994,771/1000,102,115.0
5758,E1,413.0,333/1000,89,115.0
5759,E1,413.0,333/1000,89,115.0
5760,F#2,413.0,73/500,77,115.0
5761,B1,413.0,0.25,113,115.0
5762,F#2,413.25,167/1000,67,115.0
5763,E1,413.5,0.125,93,115.0
5764,E1,413.5,0.125,93,115.0
5765,F#2,413.5,23/200,74,115.0
5766,E4,413.744,27/200,98,115.0
5767,G4,413.744,27/200,98,115.0
5768,E1,413.75,27/200,92,115.0
5769,E1,413.75,27/200,92,115.0
5770,D2,414.0,0.125,89,115.0
5771,D2,414.0,0.125,89,115.0
5772,B1,414.0,0.25,113,115.0
5773,F#2,414.0,0.156,90,115.0
5774,E2,414.0,0.156,90,115.0
5775,E2,414.25,0.125,100,115.0
5776,E2,414.25,0.125,100,115.0
5777,F#2,414.25,0.188,67,115.0
5778,D4,414.5,0.094,111,115.0
5779,E1,414.5,0.125,89,115.0
5780,E1,414.5,0.125,89,115.0
5781,F#2,414.5,27/200,74,115.0
5782,E4,414.75,0.094,97,115.0
5783,E1,414.75,73/500,92,115.0
5784,E1,414.75,73/500,92,115.0
5785,A1,415.0,0.406,89,115.0
5786,A1,415.0,0.406,89,115.0
5787,B1,415.0,0.25,113,115.0
5788,F#2,415.0,177/1000,77,115.0
5789,F#2,415.25,0.156,67,115.0
5790,E4,415.494,73/500,100,115.0
5791,A4,415.494,73/500,100,115.0
5792,E4,415.5,83/1000,99,115.0
5793,A1,415.5,0.125,91,115.0
5794,A1,415.5,0.125,91,115.0
5795,F#2,415.5,27/200,74,115.0
5796,E4,415.75,83/1000,98,115.0
5797,A1,415.75,0.125,93,115.0
5798,A1,415.75,0.125,93,115.0
5799,D4,416.0,0.094,108,115.0
5800,F#2,416.0,0.125,100,115.0
5801,F#2,416.0,0.125,100,115.0
5802,B1,416.0,0.25,113,115.0
5803,F#2,416.0,0.156,90,115.0
5804,E2,416.0,0.156,90,115.0
5805,E4,416.244,13/125,104,115.0
5806,A4,416.244,13/125,104,115.0
5807,E4,416.25,0.094,106,115.0
5808,G2,416.25,0.125,100,115.0
5809,G2,416.25,0.125,100,115.0
5810,F#2,416.25,167/1000,64,115.0
5811,A1,416.5,0.125,100,115.0
5812,A1,416.5,0.125,100,115.0
5813,F#2,416.5,73/500,74,115.0
5814,A1,416.75,13/125,88,115.0
5815,A1,416.75,13/125,88,115.0
5816,E4,416.994,13/125,97,115.0
5817,G4,416.994,13/125,97,115.0
5818,E4,417.0,83/1000,104,115.0
5819,G1,417.0,333/1000,89,115.0
5820,G1,417.0,333/1000,89,115.0
5821,B1,417.0,0.188,95,115.0
5822,F#2,417.0,0.188,95,115.0
5823,E4,417.244,0.125,96,115.0
5824,G4,417.244,0.125,96,115.0
5825,E4,417.25,83/1000,99,115.0
5826,F#2,417.25,177/1000,59,115.0
5827,D4,417.49,0.094,113,115.0
5828,G4,417.494,0.125,100,115.0
5829,E4,417.494,0.125,100,115.0
5830,G1,417.5,0.125,93,115.0
5831,G1,417.5,0.125,93,115.0
5832,F#2,417.5,0.125,72,115.0
5833,E4,417.74,73/1000,106,115.0
5834,G4,417.744,23/200,112,115.0
5835,E4,417.744,23/200,112,115.0
5836,G1,417.75,27/200,92,115.0
5837,G1,417.75,27/200,92,115.0
5838,B1,417.75,0.25,113,115.0
5839,E2,418.0,0.125,89,115.0
5840,E2,418.0,0.125,89,115.0
5841,B1,418.0,0.25,113,115.0
5842,F#2,418.0,177/1000,90,115.0
5843,E2,418.0,177/1000,90,115.0
5844,D4,418.25,73/1000,113,115.0
5845,F2,418.25,0.125,100,115.0
5846,F2,418.25,0.125,100,115.0
5847,F#2,418.25,177/1000,63,115.0
5848,E4,418.5,73/1000,111,115.0
5849,G1,418.5,0.125,89,115.0
5850,G1,418.5,0.125,89,115.0
5851,F#2,418.5,0.125,74,115.0
5852,E4,418.75,83/1000,101,115.0
5853,G1,418.75,73/500,92,115.0
5854,G1,418.75,73/500,92,115.0
5855,G1,418.75,73/500,92,115.0
5856,G1,418.75,73/500,92,115.0
5857,D4,419.0,83/1000,113,115.0
5858,E1,419.0,0.406,89,115.0
5859,E1,419.0,0.406,89,115.0
5860,F#2,419.0,0.156,74,115.0
5861,B1,419.0,0.25,113,115.0
5862,B5,419.0,99/250,100,115.0
5863,G5,419.0,99/250,100,115.0
5864,E5,419.0,99/250,100,115.0
5865,E4,419.25,83/1000,113,115.0
5866,F#2,419.25,167/1000,65,115.0
5867,E1,419.5,0.125,91,115.0
5868,E1,419.5,0.125,91,115.0
5869,F#2,419.5,0.125,74,115.0
5870,B5,419.5,103/200,100,115.0
5871,G5,419.5,103/200,100,115.0
5872,E5,419.5,103/200,100,115.0
5873,E1,419.75,0.125,93,115.0
5874,E1,419.75,0.125,93,115.0
5875,D4,419.994,73/500,92,115.0
5876,B4,419.994,73/500,92,115.0
5877,D2,420.0,0.125,94,115.0
5878,D2,420.0,0.125,94,115.0
5879,B1,420.0,0.25,113,115.0
5880,F#2,420.0,167/1000,91,115.0
5881,E2,420.0,167/1000,91,115.0
5882,F#2,420.25,0.156,63,115.0
5883,E2,420.25,0.125,94,115.0
5884,E2,420.25,0.125,94,115.0
5885,E2,420.25,0.125,94,115.0
5886,E2,420.25,0.125,94,115.0
5887,A4,420.494,0.125,102,115.0
5888,D4,420.494,0.125,102,115.0
5889,E1,420.5,0.125,100,115.0
5890,E1,420.5,0.125,100,115.0
5891,F#2,420.5,0.125,74,115.0
5892,E1,420.75,0.125,88,115.0
5893,E1,420.75,0.125,88,115.0
5894,A4,420.994,0.75,109,115.0
5895,D4,420.994,151/250,109,115.0
5896,D3,421.0,0.125,89,115.0
5897,D3,421.0,0.125,89,115.0
5898,F#2,421.0,0.156,77,115.0
5899,B1,421.0,0.25,113,115.0
5900,E3,421.25,0.125,100,115.0
5901,E3,421.25,0.125,100,115.0
5902,F#2,421.25,167/1000,67,115.0
5903,E1,421.5,0.125,93,115.0
5904,E1,421.5,0.125,93,115.0
5905,F#2,421.5,13/125,70,115.0
5906,G4,421.744,177/1000,92,115.0
5907,E4,421.744,177/1000,92,115.0
5908,E1,421.75,27/200,92,115.0
5909,E1,421.75,27/200,92,115.0
5910,D2,422.0,0.125,89,115.0
5911,D2,422.0,0.125,89,115.0
5912,B1,422.0,0.25,113,115.0
5913,E2,422.0,73/500,90,115.0
5914,F#2,422.0,73/500,90,115.0
5915,E2,422.25,0.125,100,115.0
5916,E2,422.25,0.125,100,115.0
5917,F#2,422.25,167/1000,67,115.0
5918,E1,422.5,0.125,89,115.0
5919,E1,422.5,0.125,89,115.0
5920,F#2,422.5,27/200,68,115.0
5921,F#4,422.5,27/200,68,115.0
5922,E1,422.75,73/500,92,115.0
5923,E1,422.75,73/500,92,115.0
5924,F#4,422.75,177/1000,61,115.0
5925,F#2,423.0,73/500,77,115.0
5926,B1,423.0,0.25,113,115.0
5927,E2,423.25,0.125,86,115.0
5928,E5,423.25,0.156,84,115.0
5929,E2,423.719,0.031,81,115.0
5930,E2,423.75,0.094,91,115.0
5931,F#5,423.75,167/1000,84,115.0
5932,B1,424.0,0.25,113,115.0
5933,E2,424.208,21/500,82,115.0
5934,E2,424.25,83/1000,89,115.0
5935,G#5,424.25,73/500,78,115.0
5936,G#5,424.5,0.125,73,115.0
5937,G#5,424.75,73/500,87,115.0
5938,B1,425.0,0.25,113,115.0
5939,D5,425.0,83/1000,104,115.0
5940,D4,425.0,83/1000,104,115.0
5941,C3,425.0,0.125,88,115.0
5942,E2,425.0,0.125,88,115.0
5943,C3,425.5,27/200,81,115.0
5944,D4,425.5,83/1000,110,115.0
5945,D5,425.5,83/1000,110,115.0
5946,A3,425.973,97/500,52,115.0
5947,E6,426.0,0.188,78,115.0
5948,E5,426.0,0.375,93,115.0
5949,D5,426.0,0.375,93,115.0
5950,E4,426.0,0.375,93,115.0
5951,B4,426.0,0.375,93,115.0
5952,B1,426.004,277/1000,120,115.0
