,note_name,start_time,duration,velocity,tempo
0,A2,0.0,1.0,95,143.0
1,A1,0.0,1.0,95,143.0
2,C2,0.0,0.125,119,143.0
3,F#3,0.0,0.125,119,143.0
4,F#3,0.25,0.125,79,143.0
5,F#3,0.5,0.125,79,143.0
6,F#3,0.75,0.125,79,143.0
7,A3,1.0,1.5,95,143.0
8,A2,1.0,1.5,95,143.0
9,F#3,1.0,0.125,119,143.0
10,D2,1.0,0.125,119,143.0
11,F#3,1.25,0.125,79,143.0
12,C2,1.5,0.125,103,143.0
13,F#3,1.5,0.125,103,143.0
14,F#3,1.75,0.125,79,143.0
15,C2,2.0,0.125,119,143.0
16,F#3,2.0,0.125,119,143.0
17,F#3,2.25,0.125,79,143.0
18,A2,2.5,0.5,95,143.0
19,A1,2.5,0.5,95,143.0
20,F#3,2.5,0.125,63,143.0
21,F#3,2.75,0.125,79,143.0
22,D3,3.0,0.5,95,143.0
23,D2,3.0,0.5,95,143.0
24,F#3,3.0,0.125,119,143.0
25,D2,3.0,0.125,119,143.0
26,F#3,3.25,0.125,79,143.0
27,C3,3.5,0.5,95,143.0
28,C2,3.5,0.5,95,143.0
29,F#3,3.5,0.125,79,143.0
30,F#3,3.75,0.125,79,143.0
31,C3,4.0,1.5,95,143.0
32,C2,4.0,1.5,95,143.0
33,C2,4.0,0.125,119,143.0
34,F#3,4.0,0.125,119,143.0
35,F#3,4.25,0.125,79,143.0
36,F#3,4.5,0.125,79,143.0
37,F#3,4.75,0.125,79,143.0
38,F#3,5.0,0.125,119,143.0
39,D2,5.0,0.125,119,143.0
40,F#3,5.25,0.125,79,143.0
41,A2,5.5,0.5,95,143.0
42,A1,5.5,0.5,95,143.0
43,C2,5.5,0.125,103,143.0
44,F#3,5.5,0.125,103,143.0
45,F#3,5.75,0.125,79,143.0
46,C3,6.0,1.0,95,143.0
47,C2,6.0,1.0,95,143.0
48,C2,6.0,0.125,119,143.0
49,F#3,6.0,0.125,119,143.0
50,F#3,6.25,0.125,79,143.0
51,F#3,6.5,0.125,63,143.0
52,F#3,6.75,0.125,79,143.0
53,D3,7.0,1.0,95,143.0
54,D2,7.0,1.0,95,143.0
55,F#3,7.0,0.125,119,143.0
56,D2,7.0,0.125,119,143.0
57,F#3,7.25,0.125,79,143.0
58,F#3,7.5,0.125,79,143.0
59,F#3,7.75,0.125,79,143.0
60,A2,8.0,1.0,95,143.0
61,A1,8.0,1.0,95,143.0
62,C2,8.0,0.125,119,143.0
63,F#3,8.0,0.125,119,143.0
64,F#3,8.25,0.125,79,143.0
65,F#3,8.5,0.125,79,143.0
66,F#3,8.75,0.125,79,143.0
67,A3,9.0,1.5,95,143.0
68,A2,9.0,1.5,95,143.0
69,F#3,9.0,0.125,119,143.0
70,D2,9.0,0.125,119,143.0
71,F#3,9.25,0.125,79,143.0
72,C2,9.5,0.125,103,143.0
73,F#3,9.5,0.125,103,143.0
74,F#3,9.75,0.125,79,143.0
75,C2,10.0,0.125,119,143.0
76,F#3,10.0,0.125,119,143.0
77,F#3,10.25,0.125,79,143.0
78,A2,10.5,0.5,95,143.0
79,A1,10.5,0.5,95,143.0
80,F#3,10.5,0.125,63,143.0
81,F#3,10.75,0.125,79,143.0
82,D3,11.0,0.5,95,143.0
83,D2,11.0,0.5,95,143.0
84,F#3,11.0,0.125,119,143.0
85,D2,11.0,0.125,119,143.0
86,F#3,11.25,0.125,79,143.0
87,C3,11.5,0.5,95,143.0
88,C2,11.5,0.5,95,143.0
89,F#3,11.5,0.125,79,143.0
90,F#3,11.75,0.125,79,143.0
91,C3,12.0,1.5,95,143.0
92,C2,12.0,1.5,95,143.0
93,C2,12.0,0.125,119,143.0
94,F#3,12.0,0.125,119,143.0
95,F#3,12.25,0.125,79,143.0
96,F#3,12.5,0.125,79,143.0
97,F#3,12.75,0.125,79,143.0
98,F#3,13.0,0.125,119,143.0
99,D2,13.0,0.125,119,143.0
100,F#3,13.25,0.125,79,143.0
101,A2,13.5,0.5,95,143.0
102,A1,13.5,0.5,95,143.0
103,C2,13.5,0.125,103,143.0
104,F#3,13.5,0.125,103,143.0
105,F#3,13.75,0.125,79,143.0
106,C3,14.0,1.0,95,143.0
107,C2,14.0,1.0,95,143.0
108,C2,14.0,0.125,119,143.0
109,F#3,14.0,0.125,119,143.0
110,F#3,14.25,0.125,79,143.0
111,F#3,14.5,0.125,63,143.0
112,F#3,14.75,0.125,79,143.0
113,D3,15.0,1.0,95,143.0
114,D2,15.0,1.0,95,143.0
115,F#3,15.0,0.125,119,143.0
116,D2,15.0,0.125,119,143.0
117,F#3,15.25,0.125,79,143.0
118,F#3,15.5,0.125,79,143.0
119,F#3,15.75,0.125,79,143.0
120,A2,16.0,1.0,95,143.0
121,A2,16.0,1.0,95,143.0
122,A1,16.0,1.0,95,143.0
123,C2,16.0,0.125,119,143.0
124,F#3,16.0,0.125,119,143.0
125,F#3,16.25,0.125,79,143.0
126,F#3,16.5,0.125,79,143.0
127,F#3,16.75,0.125,79,143.0
128,A3,17.0,1.5,95,143.0
129,G3,17.0,37/500,95,143.0
130,A2,17.0,1.5,95,143.0
131,A4,17.0,1.5,95,143.0
132,E4,17.0,1.5,95,143.0
133,A3,17.0,1.5,95,143.0
134,F#3,17.0,0.125,119,143.0
135,D2,17.0,0.125,119,143.0
136,F#3,17.25,0.125,79,143.0
137,C2,17.5,0.125,103,143.0
138,F#3,17.5,0.125,103,143.0
139,F#3,17.75,0.125,79,143.0
140,C2,18.0,0.125,119,143.0
141,F#3,18.0,0.125,119,143.0
142,F#3,18.25,0.125,79,143.0
143,A2,18.5,0.5,95,143.0
144,A2,18.5,0.5,95,143.0
145,A1,18.5,0.5,95,143.0
146,F#3,18.5,0.125,63,143.0
147,F#3,18.75,0.125,79,143.0
148,D3,19.0,0.5,95,143.0
149,D2,19.0,0.5,95,143.0
150,F#4,19.0,0.5,95,143.0
151,D4,19.0,0.5,95,143.0
152,F#3,19.0,0.125,119,143.0
153,D2,19.0,0.125,119,143.0
154,F#3,19.25,0.125,79,143.0
155,C3,19.5,0.5,95,143.0
156,C2,19.5,0.5,95,143.0
157,F#3,19.5,0.125,79,143.0
158,E4,19.5,0.5,95,143.0
159,C4,19.5,0.5,95,143.0
160,F#3,19.75,0.125,79,143.0
161,C3,20.0,1.5,95,143.0
162,C2,20.0,1.5,95,143.0
163,C2,20.0,0.125,119,143.0
164,F#3,20.0,0.125,119,143.0
165,F#3,20.25,0.125,79,143.0
166,F#3,20.5,0.125,79,143.0
167,F#3,20.75,0.125,79,143.0
168,F#3,21.0,0.125,119,143.0
169,D2,21.0,0.125,119,143.0
170,F#3,21.25,0.125,79,143.0
171,A2,21.5,0.5,95,143.0
172,A1,21.5,0.5,95,143.0
173,E4,21.5,1.5,95,143.0
174,C4,21.5,1.5,95,143.0
175,C2,21.5,0.125,103,143.0
176,F#3,21.5,0.125,103,143.0
177,F#3,21.75,0.125,79,143.0
178,C3,22.0,1.0,95,143.0
179,C2,22.0,1.0,95,143.0
180,C2,22.0,0.125,119,143.0
181,F#3,22.0,0.125,119,143.0
182,F#3,22.25,0.125,79,143.0
183,F#3,22.5,0.125,63,143.0
184,F#3,22.75,0.125,79,143.0
185,D3,23.0,1.0,95,143.0
186,A2,23.0,0.5,95,143.0
187,D2,23.0,1.0,95,143.0
188,F#3,23.0,0.125,119,143.0
189,D2,23.0,0.125,119,143.0
190,F#3,23.25,0.125,79,143.0
191,F#3,23.5,0.125,79,143.0
192,E4,23.5,1.0,95,143.0
193,C4,23.5,1.0,95,143.0
194,F#3,23.75,0.125,79,143.0
195,A2,24.0,1.0,95,143.0
196,A1,24.0,1.0,95,143.0
197,C2,24.0,0.125,119,143.0
198,F#3,24.0,0.125,119,143.0
199,F#3,24.25,0.125,79,143.0
200,F#3,24.5,0.125,79,143.0
201,F#4,24.5,1.0,95,143.0
202,D4,24.5,1.0,95,143.0
203,F#3,24.75,0.125,79,143.0
204,A3,25.0,1.5,95,143.0
205,A2,25.0,1.5,95,143.0
206,F#3,25.0,0.125,119,143.0
207,D2,25.0,0.125,119,143.0
208,F#3,25.25,0.125,79,143.0
209,A2,25.5,1.0,95,143.0
210,C2,25.5,0.125,103,143.0
211,F#3,25.5,0.125,103,143.0
212,F#3,25.75,0.125,79,143.0
213,C2,26.0,0.125,119,143.0
214,F#3,26.0,0.125,119,143.0
215,F#3,26.25,0.125,79,143.0
216,A2,26.5,0.5,95,143.0
217,G3,26.5,37/500,95,143.0
218,A1,26.5,0.5,95,143.0
219,F#3,26.5,0.125,63,143.0
220,A4,26.5,1.5,95,143.0
221,E4,26.5,1.5,95,143.0
222,A3,26.5,1.5,95,143.0
223,F#3,26.75,0.125,79,143.0
224,D3,27.0,0.5,95,143.0
225,D2,27.0,0.5,95,143.0
226,F#3,27.0,0.125,119,143.0
227,D2,27.0,0.125,119,143.0
228,F#3,27.25,0.125,79,143.0
229,C3,27.5,0.5,95,143.0
230,C2,27.5,0.5,95,143.0
231,F#3,27.5,0.125,79,143.0
232,F#3,27.75,0.125,79,143.0
233,C3,28.0,1.5,95,143.0
234,A2,28.0,0.5,95,143.0
235,C2,28.0,1.5,95,143.0
236,C2,28.0,0.125,119,143.0
237,F#3,28.0,0.125,119,143.0
238,F#3,28.25,0.125,79,143.0
239,F#3,28.5,0.125,79,143.0
240,F#4,28.5,0.5,95,143.0
241,D4,28.5,0.5,95,143.0
242,F#3,28.75,0.125,79,143.0
243,E4,29.0,0.5,95,143.0
244,C4,29.0,0.5,95,143.0
245,F#3,29.0,0.125,119,143.0
246,D2,29.0,0.125,119,143.0
247,F#3,29.25,0.125,79,143.0
248,A2,29.5,0.5,95,143.0
249,A1,29.5,0.5,95,143.0
250,C2,29.5,0.125,103,143.0
251,F#3,29.5,0.125,103,143.0
252,F#3,29.75,0.125,79,143.0
253,C3,30.0,1.0,95,143.0
254,C2,30.0,1.0,95,143.0
255,C2,30.0,0.125,119,143.0
256,F#3,30.0,0.125,119,143.0
257,F#3,30.25,0.125,79,143.0
258,F#3,30.5,0.125,63,143.0
259,F#3,30.75,0.125,79,143.0
260,D3,31.0,1.0,95,143.0
261,D2,31.0,1.0,95,143.0
262,E4,31.0,1.5,95,143.0
263,C4,31.0,1.5,95,143.0
264,F#3,31.0,0.125,119,143.0
265,D2,31.0,0.125,119,143.0
266,F#3,31.25,0.125,79,143.0
267,F#3,31.5,0.125,79,143.0
268,F#3,31.75,0.125,79,143.0
269,A2,32.0,1.0,95,143.0
270,A1,32.0,1.0,95,143.0
271,A4,32.0,1.0,95,143.0
272,E4,32.0,1.0,95,143.0
273,C2,32.0,0.125,119,143.0
274,F#3,32.0,0.125,119,143.0
275,F#3,32.25,0.125,79,143.0
276,A2,32.5,0.5,95,143.0
277,F#3,32.5,0.125,79,143.0
278,F#3,32.75,0.125,79,143.0
279,A3,33.0,1.5,95,143.0
280,A2,33.0,1.5,95,143.0
281,A4,33.0,0.5,95,143.0
282,E4,33.0,0.5,95,143.0
283,E4,33.0,1.0,95,143.0
284,C4,33.0,1.0,95,143.0
285,F#3,33.0,0.125,119,143.0
286,D2,33.0,0.125,119,143.0
287,F#3,33.25,0.125,79,143.0
288,A4,33.5,0.5,95,143.0
289,E4,33.5,0.5,95,143.0
290,C2,33.5,0.125,103,143.0
291,F#3,33.5,0.125,103,143.0
292,F#3,33.75,0.125,79,143.0
293,A4,34.0,0.5,95,143.0
294,E4,34.0,0.5,95,143.0
295,F#4,34.0,1.0,95,143.0
296,D4,34.0,1.0,95,143.0
297,C2,34.0,0.125,119,143.0
298,F#3,34.0,0.125,119,143.0
299,F#3,34.25,0.125,79,143.0
300,A2,34.5,0.5,95,143.0
301,A1,34.5,0.5,95,143.0
302,F#3,34.5,0.125,63,143.0
303,A4,34.5,0.5,95,143.0
304,E4,34.5,0.5,95,143.0
305,F#3,34.75,0.125,79,143.0
306,D3,35.0,0.5,95,143.0
307,A2,35.0,1.0,95,143.0
308,D2,35.0,0.5,95,143.0
309,A4,35.0,1.0,95,143.0
310,E4,35.0,1.0,95,143.0
311,F#3,35.0,0.125,119,143.0
312,D2,35.0,0.125,119,143.0
313,F#3,35.25,0.125,79,143.0
314,C3,35.5,0.5,95,143.0
315,C2,35.5,0.5,95,143.0
316,F#3,35.5,0.125,79,143.0
317,F#3,35.75,0.125,79,143.0
318,C3,36.0,1.5,95,143.0
319,G3,36.0,37/500,95,143.0
320,C2,36.0,1.5,95,143.0
321,G4,36.0,0.5,95,143.0
322,E4,36.0,0.5,95,143.0
323,A4,36.0,1.5,95,143.0
324,E4,36.0,1.5,95,143.0
325,A3,36.0,1.5,95,143.0
326,C2,36.0,0.125,119,143.0
327,F#3,36.0,0.125,119,143.0
328,F#3,36.25,0.125,79,143.0
329,F#3,36.5,0.125,79,143.0
330,G4,36.5,1.0,95,143.0
331,E4,36.5,1.0,95,143.0
332,F#3,36.75,0.125,79,143.0
333,F#3,37.0,0.125,119,143.0
334,D2,37.0,0.125,119,143.0
335,F#3,37.25,0.125,79,143.0
336,A2,37.5,0.5,95,143.0
337,A2,37.5,0.5,95,143.0
338,A1,37.5,0.5,95,143.0
339,G4,37.5,2.0,95,143.0
340,E4,37.5,2.0,95,143.0
341,C2,37.5,0.125,103,143.0
342,F#3,37.5,0.125,103,143.0
343,F#3,37.75,0.125,79,143.0
344,C3,38.0,1.0,95,143.0
345,C2,38.0,1.0,95,143.0
346,F#4,38.0,0.5,95,143.0
347,D4,38.0,0.5,95,143.0
348,C2,38.0,0.125,119,143.0
349,F#3,38.0,0.125,119,143.0
350,F#3,38.25,0.125,79,143.0
351,F#3,38.5,0.125,63,143.0
352,E4,38.5,0.5,95,143.0
353,C4,38.5,0.5,95,143.0
354,F#3,38.75,0.125,79,143.0
355,D3,39.0,1.0,95,143.0
356,D2,39.0,1.0,95,143.0
357,F#3,39.0,0.125,119,143.0
358,D2,39.0,0.125,119,143.0
359,F#3,39.25,0.125,79,143.0
360,F#3,39.5,0.125,79,143.0
361,G4,39.5,0.5,95,143.0
362,E4,39.5,0.5,95,143.0
363,F#3,39.75,0.125,79,143.0
364,A2,40.0,1.0,95,143.0
365,A1,40.0,1.0,95,143.0
366,A4,40.0,1.0,95,143.0
367,E4,40.0,1.0,95,143.0
368,C2,40.0,0.125,119,143.0
369,F#3,40.0,0.125,119,143.0
370,F#3,40.25,0.125,79,143.0
371,F#3,40.5,0.125,79,143.0
372,E4,40.5,1.5,95,143.0
373,C4,40.5,1.5,95,143.0
374,F#3,40.75,0.125,79,143.0
375,A3,41.0,1.5,95,143.0
376,A2,41.0,1.5,95,143.0
377,A4,41.0,1.0,95,143.0
378,E4,41.0,1.0,95,143.0
379,F#3,41.0,0.125,119,143.0
380,D2,41.0,0.125,119,143.0
381,F#3,41.25,0.125,79,143.0
382,C2,41.5,0.125,103,143.0
383,F#3,41.5,0.125,103,143.0
384,F#3,41.75,0.125,79,143.0
385,A2,42.0,0.5,95,143.0
386,A4,42.0,0.5,95,143.0
387,E4,42.0,0.5,95,143.0
388,C2,42.0,0.125,119,143.0
389,F#3,42.0,0.125,119,143.0
390,F#3,42.25,0.125,79,143.0
391,A2,42.5,0.5,95,143.0
392,A1,42.5,0.5,95,143.0
393,F#3,42.5,0.125,63,143.0
394,A4,42.5,1.5,95,143.0
395,E4,42.5,1.5,95,143.0
396,E4,42.5,1.0,95,143.0
397,C4,42.5,1.0,95,143.0
398,F#3,42.75,0.125,79,143.0
399,D3,43.0,0.5,95,143.0
400,D2,43.0,0.5,95,143.0
401,F#3,43.0,0.125,119,143.0
402,D2,43.0,0.125,119,143.0
403,F#3,43.25,0.125,79,143.0
404,C3,43.5,0.5,95,143.0
405,C2,43.5,0.5,95,143.0
406,F#3,43.5,0.125,79,143.0
407,F#4,43.5,1.0,95,143.0
408,D4,43.5,1.0,95,143.0
409,F#3,43.75,0.125,79,143.0
410,C3,44.0,1.5,95,143.0
411,C2,44.0,1.5,95,143.0
412,G4,44.0,4.0,95,143.0
413,E4,44.0,4.0,95,143.0
414,C2,44.0,0.125,119,143.0
415,F#3,44.0,0.125,119,143.0
416,F#3,44.25,0.125,79,143.0
417,A2,44.5,1.0,95,143.0
418,F#3,44.5,0.125,79,143.0
419,F#3,44.75,0.125,79,143.0
420,F#3,45.0,0.125,119,143.0
421,D2,45.0,0.125,119,143.0
422,F#3,45.25,0.125,79,143.0
423,A2,45.5,0.5,95,143.0
424,G3,45.5,37/500,95,143.0
425,A1,45.5,0.5,95,143.0
426,A4,45.5,1.5,95,143.0
427,E4,45.5,1.5,95,143.0
428,A3,45.5,1.5,95,143.0
429,C2,45.5,0.125,103,143.0
430,F#3,45.5,0.125,103,143.0
431,F#3,45.75,0.125,79,143.0
432,C3,46.0,1.0,95,143.0
433,C2,46.0,1.0,95,143.0
434,C2,46.0,0.125,119,143.0
435,F#3,46.0,0.125,119,143.0
436,F#3,46.25,0.125,79,143.0
437,F#3,46.5,0.125,63,143.0
438,F#3,46.75,0.125,79,143.0
439,D3,47.0,1.0,95,143.0
440,A2,47.0,0.5,95,143.0
441,D2,47.0,1.0,95,143.0
442,F#3,47.0,0.125,119,143.0
443,D2,47.0,0.125,119,143.0
444,F#3,47.25,0.125,79,143.0
445,F#3,47.5,0.125,79,143.0
446,F#4,47.5,0.5,95,143.0
447,D4,47.5,0.5,95,143.0
448,F#3,47.75,0.125,79,143.0
449,A2,48.0,1.0,95,143.0
450,A1,48.0,1.0,95,143.0
451,A4,48.0,1.0,95,143.0
452,E4,48.0,1.0,95,143.0
453,E4,48.0,0.5,95,143.0
454,C4,48.0,0.5,95,143.0
455,C2,48.0,0.125,119,143.0
456,F#3,48.0,0.125,119,143.0
457,F#3,48.25,0.125,79,143.0
458,F#3,48.5,0.125,79,143.0
459,F#3,48.75,0.125,79,143.0
460,A3,49.0,1.5,95,143.0
461,A2,49.0,1.5,95,143.0
462,A4,49.0,0.5,95,143.0
463,E4,49.0,0.5,95,143.0
464,F#3,49.0,0.125,119,143.0
465,D2,49.0,0.125,119,143.0
466,F#3,49.25,0.125,79,143.0
467,A4,49.5,0.5,95,143.0
468,E4,49.5,0.5,95,143.0
469,C2,49.5,0.125,103,143.0
470,F#3,49.5,0.125,103,143.0
471,F#3,49.75,0.125,79,143.0
472,A4,50.0,0.5,95,143.0
473,E4,50.0,0.5,95,143.0
474,E4,50.0,1.5,95,143.0
475,C4,50.0,1.5,95,143.0
476,C2,50.0,0.125,119,143.0
477,F#3,50.0,0.125,119,143.0
478,F#3,50.25,0.125,79,143.0
479,A2,50.5,0.5,95,143.0
480,A1,50.5,0.5,95,143.0
481,F#3,50.5,0.125,63,143.0
482,A4,50.5,0.5,95,143.0
483,E4,50.5,0.5,95,143.0
484,F#3,50.75,0.125,79,143.0
485,D3,51.0,0.5,95,143.0
486,D2,51.0,0.5,95,143.0
487,A4,51.0,1.0,95,143.0
488,E4,51.0,1.0,95,143.0
489,F#3,51.0,0.125,119,143.0
490,D2,51.0,0.125,119,143.0
491,F#3,51.25,0.125,79,143.0
492,C3,51.5,0.5,95,143.0
493,A2,51.5,0.5,95,143.0
494,C2,51.5,0.5,95,143.0
495,F#3,51.5,0.125,79,143.0
496,F#3,51.75,0.125,79,143.0
497,C3,52.0,1.5,95,143.0
498,C2,52.0,1.5,95,143.0
499,G4,52.0,0.5,95,143.0
500,E4,52.0,0.5,95,143.0
501,E4,52.0,1.0,95,143.0
502,C4,52.0,1.0,95,143.0
503,C2,52.0,0.125,119,143.0
504,F#3,52.0,0.125,119,143.0
505,F#3,52.25,0.125,79,143.0
506,F#3,52.5,0.125,79,143.0
507,G4,52.5,1.0,95,143.0
508,E4,52.5,1.0,95,143.0
509,F#3,52.75,0.125,79,143.0
510,F#4,53.0,1.0,95,143.0
511,D4,53.0,1.0,95,143.0
512,F#3,53.0,0.125,119,143.0
513,D2,53.0,0.125,119,143.0
514,F#3,53.25,0.125,79,143.0
515,A2,53.5,0.5,95,143.0
516,A1,53.5,0.5,95,143.0
517,G4,53.5,2.0,95,143.0
518,E4,53.5,2.0,95,143.0
519,C2,53.5,0.125,103,143.0
520,F#3,53.5,0.125,103,143.0
521,F#3,53.75,0.125,79,143.0
522,C3,54.0,1.0,95,143.0
523,A2,54.0,1.0,95,143.0
524,C2,54.0,1.0,95,143.0
525,C2,54.0,0.125,119,143.0
526,F#3,54.0,0.125,119,143.0
527,F#3,54.25,0.125,79,143.0
528,F#3,54.5,0.125,63,143.0
529,F#3,54.75,0.125,79,143.0
530,D3,55.0,1.0,95,143.0
531,G3,55.0,37/500,95,143.0
532,D2,55.0,1.0,95,143.0
533,A4,55.0,1.5,95,143.0
534,E4,55.0,1.5,95,143.0
535,A3,55.0,1.5,95,143.0
536,F#3,55.0,0.125,119,143.0
537,D2,55.0,0.125,119,143.0
538,F#3,55.25,0.125,79,143.0
539,F#3,55.5,0.125,79,143.0
540,G4,55.5,0.5,95,143.0
541,E4,55.5,0.5,95,143.0
542,F#3,55.75,0.125,79,143.0
543,A2,56.0,1.0,95,143.0
544,A1,56.0,1.0,95,143.0
545,A4,56.0,1.0,95,143.0
546,E4,56.0,1.0,95,143.0
547,C2,56.0,0.125,119,143.0
548,F#3,56.0,0.125,119,143.0
549,F#3,56.25,0.125,79,143.0
550,A2,56.5,0.5,95,143.0
551,F#3,56.5,0.125,79,143.0
552,F#3,56.75,0.125,79,143.0
553,A3,57.0,1.5,95,143.0
554,A2,57.0,1.5,95,143.0
555,A4,57.0,1.0,95,143.0
556,E4,57.0,1.0,95,143.0
557,F#4,57.0,0.5,95,143.0
558,D4,57.0,0.5,95,143.0
559,F#3,57.0,0.125,119,143.0
560,D2,57.0,0.125,119,143.0
561,F#3,57.25,0.125,79,143.0
562,E4,57.5,0.5,95,143.0
563,C4,57.5,0.5,95,143.0
564,C2,57.5,0.125,103,143.0
565,F#3,57.5,0.125,103,143.0
566,F#3,57.75,0.125,79,143.0
567,A4,58.0,0.5,95,143.0
568,E4,58.0,0.5,95,143.0
569,C2,58.0,0.125,119,143.0
570,F#3,58.0,0.125,119,143.0
571,F#3,58.25,0.125,79,143.0
572,A2,58.5,0.5,95,143.0
573,A1,58.5,0.5,95,143.0
574,F#3,58.5,0.125,63,143.0
575,A4,58.5,1.5,95,143.0
576,E4,58.5,1.5,95,143.0
577,F#3,58.75,0.125,79,143.0
578,D3,59.0,0.5,95,143.0
579,D2,59.0,0.5,95,143.0
580,F#3,59.0,0.125,119,143.0
581,D2,59.0,0.125,119,143.0
582,F#3,59.25,0.125,79,143.0
583,C3,59.5,0.5,95,143.0
584,C2,59.5,0.5,95,143.0
585,F#3,59.5,0.125,79,143.0
586,E4,59.5,1.5,95,143.0
587,C4,59.5,1.5,95,143.0
588,F#3,59.75,0.125,79,143.0
589,C3,60.0,1.5,95,143.0
590,C2,60.0,1.5,95,143.0
591,G4,60.0,4.0,95,143.0
592,E4,60.0,4.0,95,143.0
593,C2,60.0,0.125,119,143.0
594,F#3,60.0,0.125,119,143.0
595,F#3,60.25,0.125,79,143.0
596,F#3,60.5,0.125,79,143.0
597,F#3,60.75,0.125,79,143.0
598,A2,61.0,0.5,95,143.0
599,F#3,61.0,0.125,119,143.0
600,D2,61.0,0.125,119,143.0
601,F#3,61.25,0.125,79,143.0
602,A2,61.5,0.5,95,143.0
603,A1,61.5,0.5,95,143.0
604,E4,61.5,1.0,95,143.0
605,C4,61.5,1.0,95,143.0
606,C2,61.5,0.125,103,143.0
607,F#3,61.5,0.125,103,143.0
608,F#3,61.75,0.125,79,143.0
609,C3,62.0,1.0,95,143.0
610,C2,62.0,1.0,95,143.0
611,C2,62.0,0.125,119,143.0
612,F#3,62.0,0.125,119,143.0
613,F#3,62.25,0.125,79,143.0
614,F#3,62.5,0.125,63,143.0
615,F#4,62.5,1.0,95,143.0
616,D4,62.5,1.0,95,143.0
617,F#3,62.75,0.125,79,143.0
618,D3,63.0,1.0,95,143.0
619,D2,63.0,1.0,95,143.0
620,F#3,63.0,0.125,119,143.0
621,D2,63.0,0.125,119,143.0
622,F#3,63.25,0.125,79,143.0
623,A2,63.5,1.0,95,143.0
624,F#3,63.5,0.125,79,143.0
625,F#3,63.75,0.125,79,143.0
626,E2,64.0,1.5,95,143.0
627,C2,64.0,0.125,111,143.0
628,F#4,64.0,1.0,95,143.0
629,E4,64.0,1.0,95,143.0
630,G3,64.5,37/500,95,143.0
631,A4,64.5,1.5,95,143.0
632,E4,64.5,1.5,95,143.0
633,A3,64.5,1.5,95,143.0
634,D2,65.0,0.125,111,143.0
635,F#4,65.0,0.5,95,143.0
636,E4,65.0,0.5,95,143.0
637,E3,65.5,1.0,95,143.0
638,C2,65.5,0.125,127,143.0
639,F#4,65.5,0.5,95,143.0
640,E4,65.5,0.5,95,143.0
641,A2,66.0,0.5,95,143.0
642,C2,66.0,0.125,111,143.0
643,F#4,66.0,0.5,95,143.0
644,E4,66.0,0.5,95,143.0
645,B2,66.5,1.0,95,143.0
646,F#4,66.5,0.5,95,143.0
647,E4,66.5,0.5,95,143.0
648,F#4,66.5,0.5,95,143.0
649,D4,66.5,0.5,95,143.0
650,D2,67.0,0.125,111,143.0
651,F#4,67.0,1.0,95,143.0
652,E4,67.0,1.0,95,143.0
653,E4,67.0,0.5,95,143.0
654,C4,67.0,0.5,95,143.0
655,B2,67.5,0.5,95,143.0
656,E2,68.0,1.5,95,143.0
657,C2,68.0,0.125,111,143.0
658,G#4,68.0,0.5,95,143.0
659,E4,68.0,0.5,95,143.0
660,G#4,68.5,1.0,95,143.0
661,E4,68.5,1.0,95,143.0
662,D2,69.0,0.125,111,143.0
663,E4,69.0,1.5,95,143.0
664,C4,69.0,1.5,95,143.0
665,E3,69.5,1.0,95,143.0
666,C2,69.5,0.125,127,143.0
667,G#4,69.5,2.0,95,143.0
668,E4,69.5,2.0,95,143.0
669,C2,70.0,0.125,111,143.0
670,A2,70.5,0.5,95,143.0
671,B2,70.5,1.0,95,143.0
672,D2,71.0,0.125,111,143.0
673,E4,71.0,1.0,95,143.0
674,C4,71.0,1.0,95,143.0
675,B2,71.5,0.5,95,143.0
676,G#4,71.5,0.5,95,143.0
677,E4,71.5,0.5,95,143.0
678,E2,72.0,1.5,95,143.0
679,C2,72.0,0.125,111,143.0
680,G4,72.0,1.0,95,143.0
681,E4,72.0,1.0,95,143.0
682,F#4,72.0,1.0,95,143.0
683,D4,72.0,1.0,95,143.0
684,D2,73.0,0.125,111,143.0
685,G4,73.0,1.0,95,143.0
686,E4,73.0,1.0,95,143.0
687,D3,73.0,1.969,95,143.0
688,A3,73.0,1.969,95,143.0
689,B3,73.062,1.906,95,143.0
690,F#4,73.062,1.906,95,143.0
691,E3,73.5,1.0,95,143.0
692,C2,73.5,0.125,127,143.0
693,C2,74.0,0.125,111,143.0
694,G4,74.0,1.0,95,143.0
695,E4,74.0,1.0,95,143.0
696,B2,74.5,1.0,95,143.0
697,D2,75.0,0.125,111,143.0
698,G4,75.0,1.0,95,143.0
699,E4,75.0,1.0,95,143.0
700,D3,75.0,1.969,95,143.0
701,A3,75.0,1.969,95,143.0
702,B3,75.062,1.906,95,143.0
703,F#4,75.062,1.906,95,143.0
704,B2,75.5,0.5,95,143.0
705,E2,76.0,1.5,95,143.0
706,C2,76.0,0.125,111,143.0
707,A4,76.0,0.5,95,143.0
708,E4,76.0,0.5,95,143.0
709,A4,76.5,1.0,95,143.0
710,E4,76.5,1.0,95,143.0
711,D2,77.0,0.125,111,143.0
712,G#3,77.0,1.969,95,143.0
713,C#4,77.0,1.969,95,143.0
714,B3,77.062,1.906,95,143.0
715,E4,77.062,1.906,95,143.0
716,E3,77.5,1.0,95,143.0
717,C2,77.5,0.125,127,143.0
718,A4,77.5,2.0,95,143.0
719,E4,77.5,2.0,95,143.0
720,C2,78.0,0.125,111,143.0
721,B2,78.5,1.0,95,143.0
722,D2,79.0,0.125,111,143.0
723,G#3,79.0,1.969,95,143.0
724,C#4,79.0,1.969,95,143.0
725,B3,79.062,1.906,95,143.0
726,E4,79.062,1.906,95,143.0
727,B2,79.5,0.5,95,143.0
728,A4,79.5,0.5,95,143.0
729,E4,79.5,0.5,95,143.0
730,A2,80.0,1.0,95,143.0
731,A1,80.0,1.0,95,143.0
732,A4,80.0,1.0,95,143.0
733,E4,80.0,1.0,95,143.0
734,C2,80.0,0.125,119,143.0
735,F#3,80.0,0.125,119,143.0
736,F#3,80.25,0.125,79,143.0
737,F#3,80.5,0.125,79,143.0
738,F#3,80.75,0.125,79,143.0
739,A3,81.0,1.5,95,143.0
740,A2,81.0,1.5,95,143.0
741,A4,81.0,0.5,95,143.0
742,E4,81.0,0.5,95,143.0
743,D3,81.0,1.969,95,143.0
744,G3,81.0,1.969,95,143.0
745,F#3,81.0,0.125,119,143.0
746,D2,81.0,0.125,119,143.0
747,C4,81.062,1.938,95,143.0
748,F#3,81.25,0.125,79,143.0
749,A4,81.5,1.5,95,143.0
750,E4,81.5,1.5,95,143.0
751,C2,81.5,0.125,103,143.0
752,F#3,81.5,0.125,103,143.0
753,F#3,81.75,0.125,79,143.0
754,C2,82.0,0.125,119,143.0
755,F#3,82.0,0.125,119,143.0
756,F#3,82.25,0.125,79,143.0
757,A2,82.5,0.5,95,143.0
758,A1,82.5,0.5,95,143.0
759,F#3,82.5,0.125,63,143.0
760,F#3,82.75,0.125,79,143.0
761,D3,83.0,0.5,95,143.0
762,D2,83.0,0.5,95,143.0
763,A4,83.0,0.5,95,143.0
764,E4,83.0,0.5,95,143.0
765,D3,83.0,1.969,95,143.0
766,G3,83.0,1.969,95,143.0
767,F#3,83.0,0.125,119,143.0
768,D2,83.0,0.125,119,143.0
769,C4,83.062,1.938,95,143.0
770,F#3,83.25,0.125,79,143.0
771,C3,83.5,0.5,95,143.0
772,C2,83.5,0.5,95,143.0
773,F#3,83.5,0.125,79,143.0
774,A4,83.5,0.5,95,143.0
775,E4,83.5,0.5,95,143.0
776,F#3,83.75,0.125,79,143.0
777,C3,84.0,1.5,95,143.0
778,C2,84.0,1.5,95,143.0
779,G4,84.0,1.0,95,143.0
780,E4,84.0,1.0,95,143.0
781,C2,84.0,0.125,119,143.0
782,F#3,84.0,0.125,119,143.0
783,F#3,84.25,0.125,79,143.0
784,F#3,84.5,0.125,79,143.0
785,F#3,84.75,0.125,79,143.0
786,E3,85.0,4.0,95,143.0
787,G4,85.0,1.0,95,143.0
788,E4,85.0,1.0,95,143.0
789,F#3,85.0,0.125,119,143.0
790,D2,85.0,0.125,119,143.0
791,A3,85.062,3.938,95,143.0
792,C4,85.125,3.875,95,143.0
793,F4,85.188,3.812,95,143.0
794,F#3,85.25,0.125,79,143.0
795,A2,85.5,0.5,95,143.0
796,A1,85.5,0.5,95,143.0
797,C2,85.5,0.125,103,143.0
798,F#3,85.5,0.125,103,143.0
799,F#3,85.75,0.125,79,143.0
800,C3,86.0,1.0,95,143.0
801,C2,86.0,1.0,95,143.0
802,G4,86.0,1.5,95,143.0
803,E4,86.0,1.5,95,143.0
804,C2,86.0,0.125,119,143.0
805,F#3,86.0,0.125,119,143.0
806,F#3,86.25,0.125,79,143.0
807,F#3,86.5,0.125,63,143.0
808,F#3,86.75,0.125,79,143.0
809,D3,87.0,1.0,95,143.0
810,D2,87.0,1.0,95,143.0
811,F#3,87.0,0.125,119,143.0
812,D2,87.0,0.125,119,143.0
813,F#3,87.25,0.125,79,143.0
814,F#3,87.5,0.125,79,143.0
815,G4,87.5,0.5,95,143.0
816,E4,87.5,0.5,95,143.0
817,F#3,87.75,0.125,79,143.0
818,A2,88.0,1.0,95,143.0
819,A1,88.0,1.0,95,143.0
820,A4,88.0,1.0,95,143.0
821,E4,88.0,1.0,95,143.0
822,C2,88.0,0.125,119,143.0
823,F#3,88.0,0.125,119,143.0
824,F#3,88.25,0.125,79,143.0
825,F#3,88.5,0.125,79,143.0
826,F#3,88.75,0.125,79,143.0
827,A3,89.0,1.5,95,143.0
828,A2,89.0,1.0,95,143.0
829,A2,89.0,1.5,95,143.0
830,A4,89.0,1.0,95,143.0
831,E4,89.0,1.0,95,143.0
832,F#3,89.0,0.125,119,143.0
833,D2,89.0,0.125,119,143.0
834,F#3,89.25,0.125,79,143.0
835,C2,89.5,0.125,103,143.0
836,F#3,89.5,0.125,103,143.0
837,F#3,89.75,0.125,79,143.0
838,G3,90.0,37/500,95,143.0
839,A4,90.0,1.0,95,143.0
840,E4,90.0,1.0,95,143.0
841,A4,90.0,1.5,95,143.0
842,E4,90.0,1.5,95,143.0
843,A3,90.0,1.5,95,143.0
844,C2,90.0,0.125,119,143.0
845,F#3,90.0,0.125,119,143.0
846,F#3,90.25,0.125,79,143.0
847,A2,90.5,0.5,95,143.0
848,A1,90.5,0.5,95,143.0
849,F#3,90.5,0.125,63,143.0
850,F#3,90.75,0.125,79,143.0
851,D3,91.0,0.5,95,143.0
852,D2,91.0,0.5,95,143.0
853,A4,91.0,1.0,95,143.0
854,E4,91.0,1.0,95,143.0
855,F#3,91.0,0.125,119,143.0
856,D2,91.0,0.125,119,143.0
857,F#3,91.25,0.125,79,143.0
858,C3,91.5,0.5,95,143.0
859,A2,91.5,0.5,95,143.0
860,C2,91.5,0.5,95,143.0
861,F#3,91.5,0.125,79,143.0
862,F#3,91.75,0.125,79,143.0
863,C3,92.0,1.5,95,143.0
864,C2,92.0,1.5,95,143.0
865,G4,92.0,0.5,95,143.0
866,E4,92.0,0.5,95,143.0
867,F#4,92.0,0.5,95,143.0
868,D4,92.0,0.5,95,143.0
869,C2,92.0,0.125,119,143.0
870,F#3,92.0,0.125,119,143.0
871,F#3,92.25,0.125,79,143.0
872,F#3,92.5,0.125,79,143.0
873,G4,92.5,1.0,95,143.0
874,E4,92.5,1.0,95,143.0
875,E4,92.5,0.5,95,143.0
876,C4,92.5,0.5,95,143.0
877,F#3,92.75,0.125,79,143.0
878,F#3,93.0,0.125,119,143.0
879,D2,93.0,0.125,119,143.0
880,F#3,93.25,0.125,79,143.0
881,A2,93.5,0.5,95,143.0
882,A1,93.5,0.5,95,143.0
883,G4,93.5,2.0,95,143.0
884,E4,93.5,2.0,95,143.0
885,C2,93.5,0.125,103,143.0
886,F#3,93.5,0.125,103,143.0
887,F#3,93.75,0.125,79,143.0
888,C3,94.0,1.0,95,143.0
889,C2,94.0,1.0,95,143.0
890,C2,94.0,0.125,119,143.0
891,F#3,94.0,0.125,119,143.0
892,F#3,94.25,0.125,79,143.0
893,F#3,94.5,0.125,63,143.0
894,E4,94.5,1.5,95,143.0
895,C4,94.5,1.5,95,143.0
896,F#3,94.75,0.125,79,143.0
897,D3,95.0,1.0,95,143.0
898,D2,95.0,1.0,95,143.0
899,F#3,95.0,0.125,119,143.0
900,D2,95.0,0.125,119,143.0
901,F#3,95.25,0.125,79,143.0
902,F#3,95.5,0.125,79,143.0
903,G4,95.5,0.5,95,143.0
904,E4,95.5,0.5,95,143.0
905,F#3,95.75,0.125,79,143.0
906,A2,96.0,1.0,95,143.0
907,A2,96.0,0.5,95,143.0
908,A1,96.0,1.0,95,143.0
909,A4,96.0,1.0,95,143.0
910,E4,96.0,1.0,95,143.0
911,C2,96.0,0.125,119,143.0
912,F#3,96.0,0.125,119,143.0
913,F#3,96.25,0.125,79,143.0
914,F#3,96.5,0.125,79,143.0
915,E4,96.5,1.0,95,143.0
916,C4,96.5,1.0,95,143.0
917,F#3,96.75,0.125,79,143.0
918,A3,97.0,1.5,95,143.0
919,A2,97.0,1.5,95,143.0
920,A4,97.0,1.0,95,143.0
921,E4,97.0,1.0,95,143.0
922,F#3,97.0,0.125,119,143.0
923,D2,97.0,0.125,119,143.0
924,F#3,97.25,0.125,79,143.0
925,F#4,97.5,1.0,95,143.0
926,D4,97.5,1.0,95,143.0
927,C2,97.5,0.125,103,143.0
928,F#3,97.5,0.125,103,143.0
929,F#3,97.75,0.125,79,143.0
930,A4,98.0,1.0,95,143.0
931,E4,98.0,1.0,95,143.0
932,C2,98.0,0.125,119,143.0
933,F#3,98.0,0.125,119,143.0
934,F#3,98.25,0.125,79,143.0
935,A2,98.5,0.5,95,143.0
936,A2,98.5,1.0,95,143.0
937,A1,98.5,0.5,95,143.0
938,F#3,98.5,0.125,63,143.0
939,F#3,98.75,0.125,79,143.0
940,D3,99.0,0.5,95,143.0
941,D2,99.0,0.5,95,143.0
942,A4,99.0,1.0,95,143.0
943,E4,99.0,1.0,95,143.0
944,F#3,99.0,0.125,119,143.0
945,D2,99.0,0.125,119,143.0
946,F#3,99.25,0.125,79,143.0
947,C3,99.5,0.5,95,143.0
948,G3,99.5,37/500,95,143.0
949,C2,99.5,0.5,95,143.0
950,F#3,99.5,0.125,79,143.0
951,A4,99.5,1.5,95,143.0
952,E4,99.5,1.5,95,143.0
953,A3,99.5,1.5,95,143.0
954,F#3,99.75,0.125,79,143.0
955,C3,100.0,1.5,95,143.0
956,C2,100.0,1.5,95,143.0
957,G4,100.0,0.5,95,143.0
958,E4,100.0,0.5,95,143.0
959,C2,100.0,0.125,119,143.0
960,F#3,100.0,0.125,119,143.0
961,F#3,100.25,0.125,79,143.0
962,F#3,100.5,0.125,79,143.0
963,G4,100.5,1.0,95,143.0
964,E4,100.5,1.0,95,143.0
965,F#3,100.75,0.125,79,143.0
966,A2,101.0,0.5,95,143.0
967,F#3,101.0,0.125,119,143.0
968,D2,101.0,0.125,119,143.0
969,F#3,101.25,0.125,79,143.0
970,A2,101.5,0.5,95,143.0
971,A1,101.5,0.5,95,143.0
972,G4,101.5,2.0,95,143.0
973,E4,101.5,2.0,95,143.0
974,F#4,101.5,0.5,95,143.0
975,D4,101.5,0.5,95,143.0
976,C2,101.5,0.125,103,143.0
977,F#3,101.5,0.125,103,143.0
978,F#3,101.75,0.125,79,143.0
979,C3,102.0,1.0,95,143.0
980,C2,102.0,1.0,95,143.0
981,E4,102.0,0.5,95,143.0
982,C4,102.0,0.5,95,143.0
983,C2,102.0,0.125,119,143.0
984,F#3,102.0,0.125,119,143.0
985,F#3,102.25,0.125,79,143.0
986,F#3,102.5,0.125,63,143.0
987,F#3,102.75,0.125,79,143.0
988,D3,103.0,1.0,95,143.0
989,D2,103.0,1.0,95,143.0
990,F#3,103.0,0.125,119,143.0
991,D2,103.0,0.125,119,143.0
992,F#3,103.25,0.125,79,143.0
993,F#3,103.5,0.125,79,143.0
994,G4,103.5,0.5,95,143.0
995,E4,103.5,0.5,95,143.0
996,F#3,103.75,0.125,79,143.0
997,C#3,104.0,2.0,95,143.0
998,G#4,104.0,2.0,95,143.0
999,E4,104.0,2.0,95,143.0
1000,E4,104.0,1.5,95,143.0
1001,C4,104.0,1.5,95,143.0
1002,G3,104.0,0.125,103,143.0
1003,C2,104.0,0.125,103,143.0
1004,A2,105.5,0.5,95,143.0
1005,B2,106.0,2.0,95,143.0
1006,F#4,106.0,2.0,95,143.0
1007,D4,106.0,2.0,95,143.0
1008,E4,106.0,1.0,95,143.0
1009,C4,106.0,1.0,95,143.0
1010,G3,106.0,0.125,103,143.0
1011,C2,106.0,0.125,103,143.0
1012,F#4,107.0,1.0,95,143.0
1013,D4,107.0,1.0,95,143.0
1014,A2,108.0,1.0,95,143.0
1015,E3,108.0,2.0,95,143.0
1016,B4,108.0,2.0,95,143.0
1017,E4,108.0,2.0,95,143.0
1018,G3,108.0,0.125,103,143.0
1019,C2,108.0,0.125,103,143.0
1020,G3,109.0,37/500,95,143.0
1021,A4,109.0,1.5,95,143.0
1022,E4,109.0,1.5,95,143.0
1023,A3,109.0,1.5,95,143.0
1024,B2,110.0,0.5,95,143.0
1025,F#4,110.0,0.5,95,143.0
1026,B3,110.0,0.5,95,143.0
1027,G3,110.0,0.125,103,143.0
1028,C2,110.0,0.125,103,143.0
1029,A2,110.5,0.5,95,143.0
1030,B2,110.5,1.5,95,143.0
1031,C2,110.5,0.125,111,143.0
1032,F#4,110.5,1.5,95,143.0
1033,B3,110.5,1.5,95,143.0
1034,F#4,111.0,0.5,95,143.0
1035,D4,111.0,0.5,95,143.0
1036,E4,111.5,0.5,95,143.0
1037,C4,111.5,0.5,95,143.0
1038,A2,112.0,0.5,95,143.0
1039,C2,112.0,0.125,95,143.0
1040,B2,112.5,0.5,95,143.0
1041,C2,112.5,0.125,95,143.0
1042,B2,113.0,0.5,95,143.0
1043,C2,113.0,0.125,95,143.0
1044,B2,113.5,0.5,95,143.0
1045,C2,113.5,0.125,111,143.0
1046,E4,113.5,1.5,95,143.0
1047,C4,113.5,1.5,95,143.0
1048,A2,114.0,0.5,95,143.0
1049,C2,114.0,0.125,127,143.0
1050,B2,114.5,0.5,95,143.0
1051,C2,114.5,0.125,111,143.0
1052,A2,115.0,0.5,95,143.0
1053,B2,115.0,0.5,95,143.0
1054,C2,115.0,0.125,111,143.0
1055,B2,115.5,0.5,95,143.0
1056,C2,115.5,0.125,111,143.0
1057,E4,115.5,1.0,95,143.0
1058,C4,115.5,1.0,95,143.0
1059,A2,116.0,0.5,95,143.0
1060,C2,116.0,0.125,111,143.0
1061,F#4,116.0,4.0,95,143.0
1062,B3,116.0,4.0,95,143.0
1063,B2,116.5,0.5,95,143.0
1064,C2,116.5,0.125,111,143.0
1065,F#4,116.5,1.0,95,143.0
1066,D4,116.5,1.0,95,143.0
1067,B2,117.0,0.5,95,143.0
1068,C2,117.0,0.125,111,143.0
1069,B2,117.5,0.5,95,143.0
1070,C2,117.5,0.125,111,143.0
1071,E4,117.5,2.0,95,143.0
1072,C#4,117.5,2.0,95,143.0
1073,B3,117.5,2.0,95,143.0
1074,G#3,117.5,2.0,95,143.0
1075,A2,118.0,0.5,95,143.0
1076,C2,118.0,0.125,127,143.0
1077,B2,118.5,0.5,95,143.0
1078,C2,118.5,0.125,111,143.0
1079,B2,119.0,0.5,95,143.0
1080,C2,119.0,0.125,111,143.0
1081,B2,119.5,0.5,95,143.0
1082,C2,119.5,0.125,127,143.0
1083,F#4,119.5,2.0,95,143.0
1084,B3,119.5,2.0,95,143.0
1085,A3,119.5,2.0,95,143.0
1086,D3,119.5,2.0,95,143.0
1087,C#3,120.0,1.5,95,143.0
1088,C2,120.0,0.125,119,143.0
1089,F#3,120.0,0.125,119,143.0
1090,F#3,120.25,0.125,79,143.0
1091,F#3,120.5,0.125,79,143.0
1092,F#3,120.75,0.125,79,143.0
1093,F#3,121.0,0.125,119,143.0
1094,D2,121.0,0.125,119,143.0
1095,F#3,121.25,0.125,79,143.0
1096,G#2,121.5,1.5,95,143.0
1097,E4,121.5,2.0,95,143.0
1098,C#4,121.5,2.0,95,143.0
1099,B3,121.5,2.0,95,143.0
1100,G#3,121.5,2.0,95,143.0
1101,C2,121.5,0.125,103,143.0
1102,F#3,121.5,0.125,103,143.0
1103,F#3,121.75,0.125,79,143.0
1104,C2,122.0,0.125,119,143.0
1105,F#3,122.0,0.125,119,143.0
1106,F#3,122.25,0.125,79,143.0
1107,F#3,122.5,0.125,63,143.0
1108,F#3,122.75,0.125,79,143.0
1109,C#3,123.0,1.0,95,143.0
1110,F#3,123.0,0.125,119,143.0
1111,D2,123.0,0.125,119,143.0
1112,F#3,123.25,0.125,79,143.0
1113,F#3,123.5,0.125,79,143.0
1114,F#4,123.5,2.0,95,143.0
1115,B3,123.5,2.0,95,143.0
1116,A3,123.5,2.0,95,143.0
1117,D3,123.5,2.0,95,143.0
1118,F#3,123.75,0.125,79,143.0
1119,G#4,124.0,1.0,95,143.0
1120,B2,124.0,1.5,95,143.0
1121,C2,124.0,0.125,119,143.0
1122,F#3,124.0,0.125,119,143.0
1123,F#3,124.25,0.125,79,143.0
1124,F#3,124.5,0.125,79,143.0
1125,F#3,124.75,0.125,79,143.0
1126,G#4,125.0,1.0,95,143.0
1127,F#3,125.0,0.125,119,143.0
1128,D2,125.0,0.125,119,143.0
1129,F#3,125.25,0.125,79,143.0
1130,F#2,125.5,1.5,95,143.0
1131,C2,125.5,0.125,103,143.0
1132,F#3,125.5,0.125,103,143.0
1133,F#3,125.75,0.125,79,143.0
1134,G#4,126.0,1.0,95,143.0
1135,C2,126.0,0.125,119,143.0
1136,F#3,126.0,0.125,119,143.0
1137,F#3,126.25,0.125,79,143.0
1138,F#3,126.5,0.125,63,143.0
1139,F#3,126.75,0.125,79,143.0
1140,B4,127.0,1.0,95,143.0
1141,B2,127.0,1.0,95,143.0
1142,F#3,127.0,0.125,119,143.0
1143,D2,127.0,0.125,119,143.0
1144,F#3,127.25,0.125,79,143.0
1145,F#3,127.5,0.125,79,143.0
1146,F#3,127.75,0.125,79,143.0
1147,F#4,128.0,1.0,95,143.0
1148,C#3,128.0,1.5,95,143.0
1149,C2,128.0,0.125,119,143.0
1150,F#3,128.0,0.125,119,143.0
1151,F#3,128.25,0.125,79,143.0
1152,F#3,128.5,0.125,79,143.0
1153,F#3,128.75,0.125,79,143.0
1154,F#4,129.0,1.0,95,143.0
1155,F#3,129.0,0.125,119,143.0
1156,D2,129.0,0.125,119,143.0
1157,F#3,129.25,0.125,79,143.0
1158,G#2,129.5,1.5,95,143.0
1159,C2,129.5,0.125,103,143.0
1160,F#3,129.5,0.125,103,143.0
1161,F#3,129.75,0.125,79,143.0
1162,F#4,130.0,2.0,95,143.0
1163,C2,130.0,0.125,119,143.0
1164,F#3,130.0,0.125,119,143.0
1165,F#3,130.25,0.125,79,143.0
1166,F#3,130.5,0.125,63,143.0
1167,F#3,130.75,0.125,79,143.0
1168,C#3,131.0,1.0,95,143.0
1169,F#3,131.0,0.125,119,143.0
1170,D2,131.0,0.125,119,143.0
1171,F#3,131.25,0.125,79,143.0
1172,F#3,131.5,0.125,79,143.0
1173,F#3,131.75,0.125,79,143.0
1174,G#4,132.0,1.0,95,143.0
1175,B2,132.0,1.5,95,143.0
1176,C2,132.0,0.125,119,143.0
1177,F#3,132.0,0.125,119,143.0
1178,F#3,132.25,0.125,79,143.0
1179,F#3,132.5,0.125,79,143.0
1180,F#3,132.75,0.125,79,143.0
1181,G#4,133.0,1.0,95,143.0
1182,F#3,133.0,0.125,119,143.0
1183,D2,133.0,0.125,119,143.0
1184,F#3,133.25,0.125,79,143.0
1185,F#2,133.5,1.5,95,143.0
1186,F#4,133.5,4.0,95,143.0
1187,B3,133.5,4.0,95,143.0
1188,A3,133.5,4.0,95,143.0
1189,D3,133.5,4.0,95,143.0
1190,C2,133.5,0.125,103,143.0
1191,F#3,133.5,0.125,103,143.0
1192,F#3,133.75,0.125,79,143.0
1193,G#4,134.0,1.0,95,143.0
1194,C2,134.0,0.125,119,143.0
1195,F#3,134.0,0.125,119,143.0
1196,F#3,134.25,0.125,79,143.0
1197,F#3,134.5,0.125,63,143.0
1198,F#3,134.75,0.125,79,143.0
1199,B4,135.0,1.0,95,143.0
1200,B2,135.0,1.0,95,143.0
1201,F#3,135.0,0.125,119,143.0
1202,D2,135.0,0.125,119,143.0
1203,F#3,135.25,0.125,79,143.0
1204,F#3,135.5,0.125,79,143.0
1205,F#3,135.75,0.125,79,143.0
1206,F#4,136.0,1.0,95,143.0
1207,D3,136.0,1.5,95,143.0
1208,C2,136.0,0.125,119,143.0
1209,F#3,136.0,0.125,119,143.0
1210,F#3,136.25,0.125,79,143.0
1211,F#3,136.5,0.125,79,143.0
1212,F#3,136.75,0.125,79,143.0
1213,F#4,137.0,1.0,95,143.0
1214,F#3,137.0,0.125,119,143.0
1215,D2,137.0,0.125,119,143.0
1216,F#3,137.25,0.125,79,143.0
1217,A2,137.5,1.5,95,143.0
1218,C2,137.5,0.125,103,143.0
1219,F#3,137.5,0.125,103,143.0
1220,F#3,137.75,0.125,79,143.0
1221,F#4,138.0,1.5,95,143.0
1222,C2,138.0,0.125,119,143.0
1223,F#3,138.0,0.125,119,143.0
1224,F#3,138.25,0.125,79,143.0
1225,F#3,138.5,0.125,63,143.0
1226,F#3,138.75,0.125,79,143.0
1227,D3,139.0,1.0,95,143.0
1228,F#3,139.0,0.125,119,143.0
1229,D2,139.0,0.125,119,143.0
1230,F#3,139.25,0.125,79,143.0
1231,F#4,139.5,0.5,95,143.0
1232,F#3,139.5,0.125,79,143.0
1233,F#3,139.75,0.125,79,143.0
1234,F#4,140.0,1.0,95,143.0
1235,C#3,140.0,1.5,95,143.0
1236,C2,140.0,0.125,119,143.0
1237,F#3,140.0,0.125,119,143.0
1238,F#3,140.25,0.125,79,143.0
1239,F#3,140.5,0.125,79,143.0
1240,F#3,140.75,0.125,79,143.0
1241,F#4,141.0,1.0,95,143.0
1242,F#3,141.0,0.125,119,143.0
1243,D2,141.0,0.125,119,143.0
1244,F#3,141.25,0.125,79,143.0
1245,G#2,141.5,1.5,95,143.0
1246,F#4,141.5,4.0,95,143.0
1247,B3,141.5,4.0,95,143.0
1248,A3,141.5,4.0,95,143.0
1249,D3,141.5,4.0,95,143.0
1250,C2,141.5,0.125,103,143.0
1251,F#3,141.5,0.125,103,143.0
1252,F#3,141.75,0.125,79,143.0
1253,F#4,142.0,1.0,95,143.0
1254,C2,142.0,0.125,119,143.0
1255,F#3,142.0,0.125,119,143.0
1256,F#3,142.25,0.125,79,143.0
1257,F#3,142.5,0.125,63,143.0
1258,F#3,142.75,0.125,79,143.0
1259,A4,143.0,1.0,95,143.0
1260,C#3,143.0,1.0,95,143.0
1261,F#3,143.0,0.125,119,143.0
1262,D2,143.0,0.125,119,143.0
1263,F#3,143.25,0.125,79,143.0
1264,F#3,143.5,0.125,79,143.0
1265,F#3,143.75,0.125,79,143.0
1266,E4,144.0,1.0,95,143.0
1267,D3,144.0,1.5,95,143.0
1268,C2,144.0,0.125,119,143.0
1269,F#3,144.0,0.125,119,143.0
1270,F#3,144.25,0.125,79,143.0
1271,F#3,144.5,0.125,79,143.0
1272,F#3,144.75,0.125,79,143.0
1273,E4,145.0,1.0,95,143.0
1274,F#3,145.0,0.125,119,143.0
1275,D2,145.0,0.125,119,143.0
1276,F#3,145.25,0.125,79,143.0
1277,A2,145.5,1.5,95,143.0
1278,E4,145.5,4.0,95,143.0
1279,C#4,145.5,4.0,95,143.0
1280,B3,145.5,4.0,95,143.0
1281,G#3,145.5,4.0,95,143.0
1282,C2,145.5,0.125,103,143.0
1283,F#3,145.5,0.125,103,143.0
1284,F#3,145.75,0.125,79,143.0
1285,E4,146.0,1.5,95,143.0
1286,C2,146.0,0.125,119,143.0
1287,F#3,146.0,0.125,119,143.0
1288,F#3,146.25,0.125,79,143.0
1289,F#3,146.5,0.125,63,143.0
1290,F#3,146.75,0.125,79,143.0
1291,D3,147.0,1.0,95,143.0
1292,F#3,147.0,0.125,119,143.0
1293,D2,147.0,0.125,119,143.0
1294,F#3,147.25,0.125,79,143.0
1295,E4,147.5,0.5,95,143.0
1296,F#3,147.5,0.125,79,143.0
1297,F#3,147.75,0.125,79,143.0
1298,F#4,148.0,1.0,95,143.0
1299,C#3,148.0,1.5,95,143.0
1300,C2,148.0,0.125,119,143.0
1301,F#3,148.0,0.125,119,143.0
1302,F#3,148.25,0.125,79,143.0
1303,F#3,148.5,0.125,79,143.0
1304,F#3,148.75,0.125,79,143.0
1305,F#4,149.0,1.0,95,143.0
1306,F#3,149.0,0.125,119,143.0
1307,D2,149.0,0.125,119,143.0
1308,F#3,149.25,0.125,79,143.0
1309,G#2,149.5,1.5,95,143.0
1310,F#4,149.5,4.0,95,143.0
1311,B3,149.5,4.0,95,143.0
1312,A3,149.5,4.0,95,143.0
1313,D3,149.5,4.0,95,143.0
1314,C2,149.5,0.125,103,143.0
1315,F#3,149.5,0.125,103,143.0
1316,F#3,149.75,0.125,79,143.0
1317,F#4,150.0,1.0,95,143.0
1318,C2,150.0,0.125,119,143.0
1319,F#3,150.0,0.125,119,143.0
1320,F#3,150.25,0.125,79,143.0
1321,F#3,150.5,0.125,63,143.0
1322,F#3,150.75,0.125,79,143.0
1323,A4,151.0,1.0,95,143.0
1324,C#3,151.0,1.0,95,143.0
1325,F#3,151.0,0.125,119,143.0
1326,D2,151.0,0.125,119,143.0
1327,F#3,151.25,0.125,79,143.0
1328,F#3,151.5,0.125,79,143.0
1329,F#3,151.75,0.125,79,143.0
1330,E4,152.0,1.0,95,143.0
1331,B2,152.0,1.0,95,143.0
1332,C2,152.0,0.125,127,143.0
1333,E4,153.0,1.0,95,143.0
1334,B2,153.0,1.0,95,143.0
1335,C2,153.0,0.125,127,143.0
1336,E4,153.5,4.0,95,143.0
1337,C#4,153.5,4.0,95,143.0
1338,B3,153.5,4.0,95,143.0
1339,G#3,153.5,4.0,95,143.0
1340,E4,154.0,1.0,95,143.0
1341,B2,154.0,2.0,95,143.0
1342,C2,154.0,0.125,127,143.0
1343,E4,155.0,1.0,95,143.0
1344,A2,155.5,0.125,111,143.0
1345,B5,156.0,1.0,95,143.0
1346,B2,156.0,4.0,95,143.0
1347,A2,156.0,0.125,127,143.0
1348,F#4,156.0,1.0,95,143.0
1349,D4,156.0,1.0,95,143.0
1350,B5,157.0,1.0,95,143.0
1351,A2,157.0,0.125,111,143.0
1352,F#4,157.0,1.0,95,143.0
1353,D4,157.0,1.0,95,143.0
1354,F#4,157.5,4.0,95,143.0
1355,B3,157.5,4.0,95,143.0
1356,A3,157.5,4.0,95,143.0
1357,D3,157.5,4.0,95,143.0
1358,B5,158.0,2.0,95,143.0
1359,A2,158.0,0.125,127,143.0
1360,F#4,158.0,2.0,95,143.0
1361,D4,158.0,2.0,95,143.0
1362,F#2,160.0,1.0,95,143.0
1363,C2,160.0,0.125,127,143.0
1364,F#2,161.0,1.0,95,143.0
1365,C2,161.0,0.125,127,143.0
1366,F#4,161.5,4.0,95,143.0
1367,D4,161.5,4.0,95,143.0
1368,A3,161.5,4.0,95,143.0
1369,F#2,162.0,2.0,95,143.0
1370,C2,162.0,0.125,127,143.0
1371,G2,163.5,0.125,127,143.0
1372,F#4,163.5,3.5,95,143.0
1373,D4,163.5,3.5,95,143.0
1374,F#5,164.0,1.0,95,143.0
1375,F#2,164.0,4.0,95,143.0
1376,G2,164.0,0.125,111,143.0
1377,F#5,165.0,1.0,95,143.0
1378,G2,165.0,0.125,111,143.0
1379,E4,165.5,4.0,95,143.0
1380,C#4,165.5,4.0,95,143.0
1381,B3,165.5,4.0,95,143.0
1382,G#3,165.5,4.0,95,143.0
1383,F#5,166.0,2.0,95,143.0
1384,G2,166.0,0.125,127,143.0
1385,F#4,167.0,0.5,95,143.0
1386,D4,167.0,0.5,95,143.0
1387,F#4,167.5,1.0,95,143.0
1388,C#4,167.5,1.0,95,143.0
1389,G#2,168.0,1.0,95,143.0
1390,F2,168.0,0.125,111,143.0
1391,F#4,168.5,1.0,95,143.0
1392,C#4,168.5,1.0,95,143.0
1393,F#2,169.0,1.0,95,143.0
1394,F2,169.0,0.125,111,143.0
1395,F#4,169.5,2.0,95,143.0
1396,C#4,169.5,2.0,95,143.0
1397,F#4,169.5,4.0,95,143.0
1398,D4,169.5,4.0,95,143.0
1399,A3,169.5,4.0,95,143.0
1400,G#2,170.0,1.0,95,143.0
1401,F2,170.0,0.125,111,143.0
1402,A2,171.0,1.0,95,143.0
1403,F2,171.0,0.125,111,143.0
1404,G#2,172.0,4.0,95,143.0
1405,F2,172.0,0.125,127,143.0
1406,E4,173.5,4.0,95,143.0
1407,C#4,173.5,4.0,95,143.0
1408,B3,173.5,4.0,95,143.0
1409,G#3,173.5,4.0,95,143.0
1410,F#4,174.5,3.0,95,143.0
1411,C#4,174.5,3.0,95,143.0
1412,B5,176.0,0.5,95,143.0
1413,E2,176.0,0.5,95,143.0
1414,A5,176.5,0.5,95,143.0
1415,D2,176.5,0.5,95,143.0
1416,B5,177.0,0.5,95,143.0
1417,E2,177.0,0.5,95,143.0
1418,C#6,177.5,0.5,95,143.0
1419,F#2,177.5,0.5,95,143.0
1420,F#4,177.5,0.5,95,143.0
1421,C#4,177.5,0.5,95,143.0
1422,F#4,177.5,4.0,95,143.0
1423,D4,177.5,4.0,95,143.0
1424,B3,177.5,4.0,95,143.0
1425,B5,178.0,2.0,95,143.0
1426,E2,178.0,2.0,95,143.0
1427,F#4,178.0,0.5,95,143.0
1428,C#4,178.0,0.5,95,143.0
1429,E4,178.5,1.0,95,143.0
1430,B3,178.5,1.0,95,143.0
1431,D4,179.5,1.0,95,143.0
1432,A3,179.5,1.0,95,143.0
1433,B5,180.0,4.0,95,143.0
1434,E2,180.0,4.0,95,143.0
1435,E4,180.5,1.0,95,143.0
1436,B3,180.5,1.0,95,143.0
1437,F#4,181.5,1.0,95,143.0
1438,C#4,181.5,1.0,95,143.0
1439,E4,182.5,4.0,95,143.0
1440,B3,182.5,4.0,95,143.0
1441,D2,183.0,0.125,127,143.0
1442,A4,184.0,2.0,95,143.0
1443,A2,184.0,1.0,95,143.0
1444,A1,184.0,1.0,95,143.0
1445,C2,184.0,0.125,119,143.0
1446,F#3,184.0,0.125,119,143.0
1447,F#3,184.25,0.125,79,143.0
1448,F#3,184.5,0.125,79,143.0
1449,F#3,184.75,0.125,79,143.0
1450,A3,185.0,1.5,95,143.0
1451,A2,185.0,1.5,95,143.0
1452,F#3,185.0,0.125,119,143.0
1453,D2,185.0,0.125,119,143.0
1454,F#3,185.25,0.125,79,143.0
1455,F#4,185.5,4.0,95,143.0
1456,D4,185.5,4.0,95,143.0
1457,B3,185.5,4.0,95,143.0
1458,C2,185.5,0.125,103,143.0
1459,F#3,185.5,0.125,103,143.0
1460,F#3,185.75,0.125,79,143.0
1461,A4,186.0,333/1000,95,143.0
1462,C2,186.0,0.125,119,143.0
1463,F#3,186.0,0.125,119,143.0
1464,F#3,186.25,0.125,79,143.0
1465,G4,186.333,333/1000,95,143.0
1466,A2,186.5,0.5,95,143.0
1467,A1,186.5,0.5,95,143.0
1468,F#3,186.5,0.125,63,143.0
1469,E4,186.667,333/1000,95,143.0
1470,F#3,186.75,0.125,79,143.0
1471,D4,187.0,667/1000,95,143.0
1472,D3,187.0,0.5,95,143.0
1473,D2,187.0,0.5,95,143.0
1474,F#3,187.0,0.125,119,143.0
1475,D2,187.0,0.125,119,143.0
1476,F#3,187.25,0.125,79,143.0
1477,C3,187.5,0.5,95,143.0
1478,C2,187.5,0.5,95,143.0
1479,F#3,187.5,0.125,79,143.0
1480,C4,187.667,333/1000,95,143.0
1481,F#3,187.75,0.125,79,143.0
1482,C4,188.0,333/1000,95,143.0
1483,C3,188.0,1.5,95,143.0
1484,C2,188.0,1.5,95,143.0
1485,C2,188.0,0.125,119,143.0
1486,F#3,188.0,0.125,119,143.0
1487,F#3,188.25,0.125,79,143.0
1488,A3,188.333,333/1000,95,143.0
1489,F#3,188.5,0.125,79,143.0
1490,C4,188.667,333/1000,95,143.0
1491,F#3,188.75,0.125,79,143.0
1492,D4,189.0,667/1000,95,143.0
1493,F#3,189.0,0.125,119,143.0
1494,D2,189.0,0.125,119,143.0
1495,F#3,189.25,0.125,79,143.0
1496,A2,189.5,0.5,95,143.0
1497,A1,189.5,0.5,95,143.0
1498,F#4,189.5,4.0,95,143.0
1499,C#4,189.5,4.0,95,143.0
1500,A3,189.5,4.0,95,143.0
1501,C2,189.5,0.125,103,143.0
1502,F#3,189.5,0.125,103,143.0
1503,A4,189.667,333/1000,95,143.0
1504,F#3,189.75,0.125,79,143.0
1505,G4,190.0,667/1000,95,143.0
1506,C3,190.0,1.0,95,143.0
1507,C2,190.0,1.0,95,143.0
1508,C2,190.0,0.125,119,143.0
1509,F#3,190.0,0.125,119,143.0
1510,F#3,190.25,0.125,79,143.0
1511,F#3,190.5,0.125,63,143.0
1512,A4,190.667,333/1000,95,143.0
1513,F#3,190.75,0.125,79,143.0
1514,G4,191.0,667/1000,95,143.0
1515,D3,191.0,1.0,95,143.0
1516,D2,191.0,1.0,95,143.0
1517,F#3,191.0,0.125,119,143.0
1518,D2,191.0,0.125,119,143.0
1519,F#3,191.25,0.125,79,143.0
1520,F#3,191.5,0.125,79,143.0
1521,A4,191.667,333/1000,95,143.0
1522,F#3,191.75,0.125,79,143.0
1523,G4,192.0,667/1000,95,143.0
1524,A2,192.0,1.0,95,143.0
1525,A1,192.0,1.0,95,143.0
1526,C2,192.0,0.125,119,143.0
1527,F#3,192.0,0.125,119,143.0
1528,F#3,192.25,0.125,79,143.0
1529,F#3,192.5,0.125,79,143.0
1530,A4,192.667,333/1000,95,143.0
1531,F#3,192.75,0.125,79,143.0
1532,G4,193.0,667/1000,95,143.0
1533,A3,193.0,1.5,95,143.0
1534,A2,193.0,1.5,95,143.0
1535,F#3,193.0,0.125,119,143.0
1536,D2,193.0,0.125,119,143.0
1537,F#3,193.25,0.125,79,143.0
1538,C2,193.5,0.125,103,143.0
1539,F#3,193.5,0.125,103,143.0
1540,A4,193.667,333/1000,95,143.0
1541,F#3,193.75,0.125,79,143.0
1542,G4,194.0,667/1000,95,143.0
1543,C2,194.0,0.125,119,143.0
1544,F#3,194.0,0.125,119,143.0
1545,F#3,194.25,0.125,79,143.0
1546,A2,194.5,0.5,95,143.0
1547,A1,194.5,0.5,95,143.0
1548,F#3,194.5,0.125,63,143.0
1549,A4,194.667,333/1000,95,143.0
1550,F#3,194.75,0.125,79,143.0
1551,C5,195.0,333/1000,95,143.0
1552,D3,195.0,0.5,95,143.0
1553,D2,195.0,0.5,95,143.0
1554,F#3,195.0,0.125,119,143.0
1555,D2,195.0,0.125,119,143.0
1556,F#3,195.25,0.125,79,143.0
1557,A4,195.333,333/1000,95,143.0
1558,C3,195.5,0.5,95,143.0
1559,C2,195.5,0.5,95,143.0
1560,F#3,195.5,0.125,79,143.0
1561,G4,195.667,333/1000,95,143.0
1562,F#3,195.75,0.125,79,143.0
1563,D5,196.0,1333/1000,95,143.0
1564,C3,196.0,1.5,95,143.0
1565,C2,196.0,1.5,95,143.0
1566,C2,196.0,0.125,119,143.0
1567,F#3,196.0,0.125,119,143.0
1568,F#3,196.25,0.125,79,143.0
1569,F#3,196.5,0.125,79,143.0
1570,F#3,196.75,0.125,79,143.0
1571,F#3,197.0,0.125,119,143.0
1572,D2,197.0,0.125,119,143.0
1573,F#3,197.25,0.125,79,143.0
1574,E5,197.333,667/1000,95,143.0
1575,A2,197.5,0.5,95,143.0
1576,A1,197.5,0.5,95,143.0
1577,F#4,197.5,4.0,95,143.0
1578,C#4,197.5,4.0,95,143.0
1579,A3,197.5,4.0,95,143.0
1580,C2,197.5,0.125,103,143.0
1581,F#3,197.5,0.125,103,143.0
1582,F#3,197.75,0.125,79,143.0
1583,E5,198.0,667/1000,95,143.0
1584,C3,198.0,1.0,95,143.0
1585,C2,198.0,1.0,95,143.0
1586,C2,198.0,0.125,119,143.0
1587,F#3,198.0,0.125,119,143.0
1588,F#3,198.25,0.125,79,143.0
1589,F#3,198.5,0.125,63,143.0
1590,C5,198.667,333/1000,95,143.0
1591,F#3,198.75,0.125,79,143.0
1592,D5,199.0,333/1000,95,143.0
1593,D3,199.0,1.0,95,143.0
1594,D2,199.0,1.0,95,143.0
1595,F#3,199.0,0.125,119,143.0
1596,D2,199.0,0.125,119,143.0
1597,F#3,199.25,0.125,79,143.0
1598,C5,199.333,333/1000,95,143.0
1599,F#3,199.5,0.125,79,143.0
1600,D5,199.667,333/1000,95,143.0
1601,F#3,199.75,0.125,79,143.0
1602,D5,200.0,667/1000,95,143.0
1603,A2,200.0,1.0,95,143.0
1604,A1,200.0,1.0,95,143.0
1605,C2,200.0,0.125,119,143.0
1606,F#3,200.0,0.125,119,143.0
1607,F#3,200.25,0.125,79,143.0
1608,F#3,200.5,0.125,79,143.0
1609,C5,200.667,333/1000,95,143.0
1610,F#3,200.75,0.125,79,143.0
1611,A4,201.0,333/1000,95,143.0
1612,A3,201.0,1.5,95,143.0
1613,A2,201.0,1.5,95,143.0
1614,F#3,201.0,0.125,119,143.0
1615,D2,201.0,0.125,119,143.0
1616,F#3,201.25,0.125,79,143.0
1617,C5,201.333,333/1000,95,143.0
1618,B4,201.5,1.0,95,143.0
1619,G#4,201.5,1.0,95,143.0
1620,E4,201.5,1.0,95,143.0
1621,C2,201.5,0.125,103,143.0
1622,F#3,201.5,0.125,103,143.0
1623,D5,201.667,333/1000,95,143.0
1624,F#3,201.75,0.125,79,143.0
1625,D5,202.0,667/1000,95,143.0
1626,C2,202.0,0.125,119,143.0
1627,F#3,202.0,0.125,119,143.0
1628,F#3,202.25,0.125,79,143.0
1629,A2,202.5,0.5,95,143.0
1630,A1,202.5,0.5,95,143.0
1631,F#3,202.5,0.125,63,143.0
1632,A4,202.5,1.0,95,143.0
1633,F#4,202.5,1.0,95,143.0
1634,D4,202.5,1.0,95,143.0
1635,C5,202.667,333/1000,95,143.0
1636,F#3,202.75,0.125,79,143.0
1637,A4,203.0,667/1000,95,143.0
1638,D3,203.0,0.5,95,143.0
1639,D2,203.0,0.5,95,143.0
1640,F#3,203.0,0.125,119,143.0
1641,D2,203.0,0.125,119,143.0
1642,F#3,203.25,0.125,79,143.0
1643,C3,203.5,0.5,95,143.0
1644,C2,203.5,0.5,95,143.0
1645,F#3,203.5,0.125,79,143.0
1646,B4,203.5,1.0,95,143.0
1647,G#4,203.5,1.0,95,143.0
1648,E4,203.5,1.0,95,143.0
1649,G4,203.667,333/1000,95,143.0
1650,F#3,203.75,0.125,79,143.0
1651,A4,204.0,333/1000,95,143.0
1652,C3,204.0,1.5,95,143.0
1653,C2,204.0,1.5,95,143.0
1654,C2,204.0,0.125,119,143.0
1655,F#3,204.0,0.125,119,143.0
1656,F#3,204.25,0.125,79,143.0
1657,G4,204.333,667/1000,95,143.0
1658,F#3,204.5,0.125,79,143.0
1659,C#5,204.5,1.0,95,143.0
1660,A4,204.5,1.0,95,143.0
1661,F#4,204.5,1.0,95,143.0
1662,F#3,204.75,0.125,79,143.0
1663,D4,205.0,1.0,95,143.0
1664,F#3,205.0,0.125,119,143.0
1665,D2,205.0,0.125,119,143.0
1666,F#3,205.25,0.125,79,143.0
1667,A2,205.5,0.5,95,143.0
1668,A1,205.5,0.5,95,143.0
1669,B4,205.5,4.0,95,143.0
1670,G#4,205.5,4.0,95,143.0
1671,E4,205.5,4.0,95,143.0
1672,C2,205.5,0.125,103,143.0
1673,F#3,205.5,0.125,103,143.0
1674,F#3,205.75,0.125,79,143.0
1675,D4,206.0,667/1000,95,143.0
1676,C3,206.0,1.0,95,143.0
1677,C2,206.0,1.0,95,143.0
1678,C2,206.0,0.125,119,143.0
1679,F#3,206.0,0.125,119,143.0
1680,F#3,206.25,0.125,79,143.0
1681,F#3,206.5,0.125,63,143.0
1682,C4,206.667,333/1000,95,143.0
1683,F#3,206.75,0.125,79,143.0
1684,D4,207.0,333/1000,95,143.0
1685,D3,207.0,1.0,95,143.0
1686,D2,207.0,1.0,95,143.0
1687,F#3,207.0,0.125,119,143.0
1688,D2,207.0,0.125,119,143.0
1689,F#3,207.25,0.125,79,143.0
1690,C4,207.333,333/1000,95,143.0
1691,F#3,207.5,0.125,79,143.0
1692,D4,207.667,333/1000,95,143.0
1693,F#3,207.75,0.125,79,143.0
1694,E4,208.0,333/1000,95,143.0
1695,A2,208.0,1.0,95,143.0
1696,A1,208.0,1.0,95,143.0
1697,C2,208.0,0.125,119,143.0
1698,F#3,208.0,0.125,119,143.0
1699,F#3,208.25,0.125,79,143.0
1700,A4,208.333,667/1000,95,143.0
1701,F#3,208.5,0.125,79,143.0
1702,F#3,208.75,0.125,79,143.0
1703,A4,209.0,667/1000,95,143.0
1704,A3,209.0,1.5,95,143.0
1705,A2,209.0,1.5,95,143.0
1706,F#3,209.0,0.125,119,143.0
1707,D2,209.0,0.125,119,143.0
1708,F#3,209.25,0.125,79,143.0
1709,E5,209.5,0.5,95,143.0
1710,C2,209.5,0.125,103,143.0
1711,F#3,209.5,0.125,103,143.0
1712,E4,209.667,0.5,95,143.0
1713,F#3,209.75,0.125,79,143.0
1714,D5,210.0,0.5,95,143.0
1715,C2,210.0,0.125,119,143.0
1716,F#3,210.0,0.125,119,143.0
1717,C4,210.167,0.5,95,143.0
1718,F#3,210.25,0.125,79,143.0
1719,A2,210.5,0.5,95,143.0
1720,E5,210.5,0.5,95,143.0
1721,A1,210.5,0.5,95,143.0
1722,F#3,210.5,0.125,63,143.0
1723,A3,210.667,333/1000,95,143.0
1724,F#3,210.75,0.125,79,143.0
1725,C4,211.0,1.0,95,143.0
1726,D3,211.0,0.5,95,143.0
1727,F#5,211.0,0.5,95,143.0
1728,D2,211.0,0.5,95,143.0
1729,F#3,211.0,0.125,119,143.0
1730,D2,211.0,0.125,119,143.0
1731,F#3,211.25,0.125,79,143.0
1732,C3,211.5,0.5,95,143.0
1733,E5,211.5,2.0,95,143.0
1734,C2,211.5,0.5,95,143.0
1735,F#3,211.5,0.125,79,143.0
1736,F#3,211.75,0.125,79,143.0
1737,C3,212.0,1.5,95,143.0
1738,C2,212.0,1.5,95,143.0
1739,C2,212.0,0.125,119,143.0
1740,F#3,212.0,0.125,119,143.0
1741,F#3,212.25,0.125,79,143.0
1742,A3,212.333,333/1000,95,143.0
1743,F#3,212.5,0.125,79,143.0
1744,E4,212.667,333/1000,95,143.0
1745,F#3,212.75,0.125,79,143.0
1746,D4,213.0,333/1000,95,143.0
1747,F#3,213.0,0.125,119,143.0
1748,D2,213.0,0.125,119,143.0
1749,F#3,213.25,0.125,79,143.0
1750,D4,213.333,333/1000,95,143.0
1751,A2,213.5,0.5,95,143.0
1752,E5,213.5,4.0,95,143.0
1753,A1,213.5,0.5,95,143.0
1754,C2,213.5,0.125,103,143.0
1755,F#3,213.5,0.125,103,143.0
1756,E4,213.667,333/1000,95,143.0
1757,F#3,213.75,0.125,79,143.0
1758,C4,214.0,667/1000,95,143.0
1759,C3,214.0,1.0,95,143.0
1760,C2,214.0,1.0,95,143.0
1761,C2,214.0,0.125,119,143.0
1762,F#3,214.0,0.125,119,143.0
1763,F#3,214.25,0.125,79,143.0
1764,F#3,214.5,0.125,63,143.0
1765,A3,214.667,333/1000,95,143.0
1766,F#3,214.75,0.125,79,143.0
1767,G3,215.0,1.0,95,143.0
1768,D3,215.0,1.0,95,143.0
1769,D2,215.0,1.0,95,143.0
1770,F#3,215.0,0.125,119,143.0
1771,D2,215.0,0.125,119,143.0
1772,F#3,215.25,0.125,79,143.0
1773,F#3,215.5,0.125,79,143.0
1774,F#3,215.75,0.125,79,143.0
1775,E2,216.0,1.5,95,143.0
1776,C2,216.0,0.125,111,143.0
1777,B3,216.5,0.5,95,143.0
1778,B3,217.0,0.5,95,143.0
1779,D2,217.0,0.125,111,143.0
1780,B3,217.5,0.5,95,143.0
1781,A2,217.5,1.0,95,143.0
1782,E3,217.5,1.0,95,143.0
1783,C2,217.5,0.125,127,143.0
1784,B3,218.0,0.5,95,143.0
1785,C2,218.0,0.125,111,143.0
1786,D4,218.5,0.5,95,143.0
1787,G3,218.5,37/500,95,143.0
1788,B2,218.5,1.0,95,143.0
1789,A4,218.5,1.5,95,143.0
1790,E4,218.5,1.5,95,143.0
1791,A3,218.5,1.5,95,143.0
1792,B3,219.0,0.5,95,143.0
1793,D2,219.0,0.125,111,143.0
1794,E3,219.5,0.5,95,143.0
1795,B2,219.5,0.5,95,143.0
1796,F#4,220.0,1.0,95,143.0
1797,A2,220.0,0.5,95,143.0
1798,E2,220.0,1.5,95,143.0
1799,C2,220.0,0.125,111,143.0
1800,F#4,220.5,0.5,95,143.0
1801,D4,220.5,0.5,95,143.0
1802,F#4,221.0,1.0,95,143.0
1803,D2,221.0,0.125,111,143.0
1804,E4,221.0,0.5,95,143.0
1805,C4,221.0,0.5,95,143.0
1806,E3,221.5,1.0,95,143.0
1807,C2,221.5,0.125,127,143.0
1808,E4,222.0,667/1000,95,143.0
1809,C2,222.0,0.125,111,143.0
1810,B2,222.5,1.0,95,143.0
1811,D4,222.667,333/1000,95,143.0
1812,B3,223.0,1.0,95,143.0
1813,D2,223.0,0.125,111,143.0
1814,E4,223.0,1.5,95,143.0
1815,C4,223.0,1.5,95,143.0
1816,B2,223.5,0.5,95,143.0
1817,E2,224.0,1.5,95,143.0
1818,C2,224.0,0.125,111,143.0
1819,A4,224.5,0.5,95,143.0
1820,A2,224.5,0.5,95,143.0
1821,A4,225.0,0.5,95,143.0
1822,D2,225.0,0.125,111,143.0
1823,E4,225.0,1.0,95,143.0
1824,C4,225.0,1.0,95,143.0
1825,G4,225.5,0.5,95,143.0
1826,E3,225.5,1.0,95,143.0
1827,C2,225.5,0.125,127,143.0
1828,A4,226.0,0.5,95,143.0
1829,C2,226.0,0.125,111,143.0
1830,F#4,226.0,1.0,95,143.0
1831,D4,226.0,1.0,95,143.0
1832,A4,226.5,0.5,95,143.0
1833,B2,226.5,1.0,95,143.0
1834,A4,227.0,0.5,95,143.0
1835,A2,227.0,1.0,95,143.0
1836,D2,227.0,0.125,111,143.0
1837,A4,227.5,0.5,95,143.0
1838,B2,227.5,0.5,95,143.0
1839,B4,228.0,1.0,95,143.0
1840,G3,228.0,37/500,95,143.0
1841,E2,228.0,1.5,95,143.0
1842,C2,228.0,0.125,111,143.0
1843,A4,228.0,1.5,95,143.0
1844,E4,228.0,1.5,95,143.0
1845,A3,228.0,1.5,95,143.0
1846,C5,229.0,1.0,95,143.0
1847,D2,229.0,0.125,111,143.0
1848,A2,229.5,0.5,95,143.0
1849,E3,229.5,1.0,95,143.0
1850,C2,229.5,0.125,127,143.0
1851,C5,230.0,0.5,95,143.0
1852,C2,230.0,0.125,111,143.0
1853,F#4,230.0,0.5,95,143.0
1854,D4,230.0,0.5,95,143.0
1855,B4,230.5,0.5,95,143.0
1856,B2,230.5,1.0,95,143.0
1857,E4,230.5,0.5,95,143.0
1858,C4,230.5,0.5,95,143.0
1859,D2,231.0,0.125,111,143.0
1860,B2,231.5,0.5,95,143.0
1861,E4,232.0,0.5,95,143.0
1862,A2,232.0,1.0,95,143.0
1863,A1,232.0,1.0,95,143.0
1864,C2,232.0,0.125,119,143.0
1865,F#3,232.0,0.125,119,143.0
1866,F#3,232.25,0.125,79,143.0
1867,A4,232.5,1.5,95,143.0
1868,F#3,232.5,0.125,79,143.0
1869,E4,232.5,1.5,95,143.0
1870,C4,232.5,1.5,95,143.0
1871,F#3,232.75,0.125,79,143.0
1872,A3,233.0,1.5,95,143.0
1873,A2,233.0,1.5,95,143.0
1874,F#3,233.0,0.125,119,143.0
1875,D2,233.0,0.125,119,143.0
1876,F#3,233.25,0.125,79,143.0
1877,C2,233.5,0.125,103,143.0
1878,F#3,233.5,0.125,103,143.0
1879,F#3,233.75,0.125,79,143.0
1880,D4,234.0,0.5,95,143.0
1881,A2,234.0,0.5,95,143.0
1882,C2,234.0,0.125,119,143.0
1883,F#3,234.0,0.125,119,143.0
1884,F#3,234.25,0.125,79,143.0
1885,C4,234.5,0.25,95,143.0
1886,A2,234.5,0.5,95,143.0
1887,A1,234.5,0.5,95,143.0
1888,F#3,234.5,0.125,63,143.0
1889,E4,234.5,1.0,95,143.0
1890,C4,234.5,1.0,95,143.0
1891,D4,234.75,0.25,95,143.0
1892,F#3,234.75,0.125,79,143.0
1893,C4,235.0,1.0,95,143.0
1894,D3,235.0,0.5,95,143.0
1895,D2,235.0,0.5,95,143.0
1896,F#3,235.0,0.125,119,143.0
1897,D2,235.0,0.125,119,143.0
1898,F#3,235.25,0.125,79,143.0
1899,C3,235.5,0.5,95,143.0
1900,C2,235.5,0.5,95,143.0
1901,F#3,235.5,0.125,79,143.0
1902,F#4,235.5,1.0,95,143.0
1903,D4,235.5,1.0,95,143.0
1904,F#3,235.75,0.125,79,143.0
1905,E4,236.0,0.5,95,143.0
1906,C3,236.0,1.5,95,143.0
1907,C2,236.0,1.5,95,143.0
1908,C2,236.0,0.125,119,143.0
1909,F#3,236.0,0.125,119,143.0
1910,F#3,236.25,0.125,79,143.0
1911,A4,236.5,0.25,95,143.0
1912,A2,236.5,1.0,95,143.0
1913,F#3,236.5,0.125,79,143.0
1914,A4,236.75,0.25,95,143.0
1915,F#3,236.75,0.125,79,143.0
1916,A4,237.0,0.5,95,143.0
1917,F#3,237.0,0.125,119,143.0
1918,D2,237.0,0.125,119,143.0
1919,F#3,237.25,0.125,79,143.0
1920,A4,237.5,0.25,95,143.0
1921,A2,237.5,0.5,95,143.0
1922,G3,237.5,37/500,95,143.0
1923,A1,237.5,0.5,95,143.0
1924,A4,237.5,1.5,95,143.0
1925,E4,237.5,1.5,95,143.0
1926,A3,237.5,1.5,95,143.0
1927,C2,237.5,0.125,103,143.0
1928,F#3,237.5,0.125,103,143.0
1929,A4,237.75,0.25,95,143.0
1930,F#3,237.75,0.125,79,143.0
1931,G4,238.0,0.25,95,143.0
1932,C3,238.0,1.0,95,143.0
1933,C2,238.0,1.0,95,143.0
1934,C2,238.0,0.125,119,143.0
1935,F#3,238.0,0.125,119,143.0
1936,E4,238.25,0.25,95,143.0
1937,F#3,238.25,0.125,79,143.0
1938,D4,238.5,0.25,95,143.0
1939,F#3,238.5,0.125,63,143.0
1940,C4,238.75,0.25,95,143.0
1941,F#3,238.75,0.125,79,143.0
1942,D4,239.0,0.25,95,143.0
1943,D3,239.0,1.0,95,143.0
1944,A2,239.0,0.5,95,143.0
1945,D2,239.0,1.0,95,143.0
1946,F#3,239.0,0.125,119,143.0
1947,D2,239.0,0.125,119,143.0
1948,C4,239.25,0.75,95,143.0
1949,F#3,239.25,0.125,79,143.0
1950,F#3,239.5,0.125,79,143.0
1951,F#4,239.5,0.5,95,143.0
1952,D4,239.5,0.5,95,143.0
1953,F#3,239.75,0.125,79,143.0
1954,E4,240.0,1.0,95,143.0
1955,A2,240.0,1.0,95,143.0
1956,A1,240.0,1.0,95,143.0
1957,E4,240.0,0.5,95,143.0
1958,C4,240.0,0.5,95,143.0
1959,C2,240.0,0.125,119,143.0
1960,F#3,240.0,0.125,119,143.0
1961,F#3,240.25,0.125,79,143.0
1962,F#3,240.5,0.125,79,143.0
1963,F#3,240.75,0.125,79,143.0
1964,E4,241.0,1.0,95,143.0
1965,A3,241.0,1.5,95,143.0
1966,A2,241.0,1.5,95,143.0
1967,F#3,241.0,0.125,119,143.0
1968,D2,241.0,0.125,119,143.0
1969,F#3,241.25,0.125,79,143.0
1970,C2,241.5,0.125,103,143.0
1971,F#3,241.5,0.125,103,143.0
1972,F#3,241.75,0.125,79,143.0
1973,D4,242.0,0.25,95,143.0
1974,E4,242.0,1.5,95,143.0
1975,C4,242.0,1.5,95,143.0
1976,C2,242.0,0.125,119,143.0
1977,F#3,242.0,0.125,119,143.0
1978,C4,242.25,0.25,95,143.0
1979,F#3,242.25,0.125,79,143.0
1980,A3,242.5,0.5,95,143.0
1981,A2,242.5,0.5,95,143.0
1982,A1,242.5,0.5,95,143.0
1983,F#3,242.5,0.125,63,143.0
1984,F#3,242.75,0.125,79,143.0
1985,C4,243.0,0.25,95,143.0
1986,D3,243.0,0.5,95,143.0
1987,D2,243.0,0.5,95,143.0
1988,F#3,243.0,0.125,119,143.0
1989,D2,243.0,0.125,119,143.0
1990,A3,243.25,0.25,95,143.0
1991,F#3,243.25,0.125,79,143.0
1992,G3,243.5,0.5,95,143.0
1993,C3,243.5,0.5,95,143.0
1994,A2,243.5,0.5,95,143.0
1995,C2,243.5,0.5,95,143.0
1996,F#3,243.5,0.125,79,143.0
1997,F#3,243.75,0.125,79,143.0
1998,C4,244.0,0.25,95,143.0
1999,C3,244.0,1.5,95,143.0
2000,C2,244.0,1.5,95,143.0
2001,E4,244.0,1.0,95,143.0
2002,C4,244.0,1.0,95,143.0
2003,C2,244.0,0.125,119,143.0
2004,F#3,244.0,0.125,119,143.0
2005,A3,244.25,0.25,95,143.0
2006,F#3,244.25,0.125,79,143.0
2007,G3,244.5,0.5,95,143.0
2008,F#3,244.5,0.125,79,143.0
2009,F#3,244.75,0.125,79,143.0
2010,G3,245.0,0.25,95,143.0
2011,F#4,245.0,1.0,95,143.0
2012,D4,245.0,1.0,95,143.0
2013,F#3,245.0,0.125,119,143.0
2014,D2,245.0,0.125,119,143.0
2015,G3,245.25,0.75,95,143.0
2016,F#3,245.25,0.125,79,143.0
2017,A2,245.5,0.5,95,143.0
2018,A1,245.5,0.5,95,143.0
2019,C2,245.5,0.125,103,143.0
2020,F#3,245.5,0.125,103,143.0
2021,F#3,245.75,0.125,79,143.0
2022,A3,246.0,0.25,95,143.0
2023,C3,246.0,1.0,95,143.0
2024,A2,246.0,1.0,95,143.0
2025,C2,246.0,1.0,95,143.0
2026,C2,246.0,0.125,119,143.0
2027,F#3,246.0,0.125,119,143.0
2028,G3,246.25,0.25,95,143.0
2029,F#3,246.25,0.125,79,143.0
2030,G3,246.5,0.25,95,143.0
2031,F#3,246.5,0.125,63,143.0
2032,G3,246.75,0.25,95,143.0
2033,F#3,246.75,0.125,79,143.0
2034,G3,247.0,1.0,95,143.0
2035,D3,247.0,1.0,95,143.0
2036,G3,247.0,37/500,95,143.0
2037,D2,247.0,1.0,95,143.0
2038,A4,247.0,1.5,95,143.0
2039,E4,247.0,1.5,95,143.0
2040,A3,247.0,1.5,95,143.0
2041,F#3,247.0,0.125,119,143.0
2042,D2,247.0,0.125,119,143.0
2043,F#3,247.25,0.125,79,143.0
2044,F#3,247.5,0.125,79,143.0
2045,F#3,247.75,0.125,79,143.0
2046,G3,248.0,0.25,95,143.0
2047,A2,248.0,1.0,95,143.0
2048,A1,248.0,1.0,95,143.0
2049,C2,248.0,0.125,119,143.0
2050,F#3,248.0,0.125,119,143.0
2051,A3,248.25,0.25,95,143.0
2052,F#3,248.25,0.125,79,143.0
2053,C4,248.5,0.25,95,143.0
2054,A2,248.5,0.5,95,143.0
2055,F#3,248.5,0.125,79,143.0
2056,C4,248.75,0.25,95,143.0
2057,F#3,248.75,0.125,79,143.0
2058,C4,249.0,0.5,95,143.0
2059,A3,249.0,1.5,95,143.0
2060,A2,249.0,1.5,95,143.0
2061,F#4,249.0,0.5,95,143.0
2062,D4,249.0,0.5,95,143.0
2063,F#3,249.0,0.125,119,143.0
2064,D2,249.0,0.125,119,143.0
2065,F#3,249.25,0.125,79,143.0
2066,G3,249.5,0.25,95,143.0
2067,E4,249.5,0.5,95,143.0
2068,C4,249.5,0.5,95,143.0
2069,C2,249.5,0.125,103,143.0
2070,F#3,249.5,0.125,103,143.0
2071,A3,249.75,0.25,95,143.0
2072,F#3,249.75,0.125,79,143.0
2073,C4,250.0,0.25,95,143.0
2074,C2,250.0,0.125,119,143.0
2075,F#3,250.0,0.125,119,143.0
2076,C4,250.25,0.25,95,143.0
2077,F#3,250.25,0.125,79,143.0
2078,C4,250.5,0.25,95,143.0
2079,A2,250.5,0.5,95,143.0
2080,A1,250.5,0.5,95,143.0
2081,F#3,250.5,0.125,63,143.0
2082,G3,250.75,0.25,95,143.0
2083,F#3,250.75,0.125,79,143.0
2084,A3,251.0,0.25,95,143.0
2085,D3,251.0,0.5,95,143.0
2086,D2,251.0,0.5,95,143.0
2087,F#3,251.0,0.125,119,143.0
2088,D2,251.0,0.125,119,143.0
2089,C4,251.25,0.25,95,143.0
2090,F#3,251.25,0.125,79,143.0
2091,C4,251.5,0.5,95,143.0
2092,C3,251.5,0.5,95,143.0
2093,C2,251.5,0.5,95,143.0
2094,F#3,251.5,0.125,79,143.0
2095,E4,251.5,1.5,95,143.0
2096,C4,251.5,1.5,95,143.0
2097,F#3,251.75,0.125,79,143.0
2098,C4,252.0,0.25,95,143.0
2099,C3,252.0,1.5,95,143.0
2100,C2,252.0,1.5,95,143.0
2101,C2,252.0,0.125,119,143.0
2102,F#3,252.0,0.125,119,143.0
2103,C4,252.25,0.25,95,143.0
2104,F#3,252.25,0.125,79,143.0
2105,E4,252.5,0.5,95,143.0
2106,F#3,252.5,0.125,79,143.0
2107,F#3,252.75,0.125,79,143.0
2108,C4,253.0,0.5,95,143.0
2109,A2,253.0,0.5,95,143.0
2110,F#3,253.0,0.125,119,143.0
2111,D2,253.0,0.125,119,143.0
2112,F#3,253.25,0.125,79,143.0
2113,A3,253.5,0.5,95,143.0
2114,A2,253.5,0.5,95,143.0
2115,A1,253.5,0.5,95,143.0
2116,E4,253.5,1.0,95,143.0
2117,C4,253.5,1.0,95,143.0
2118,C2,253.5,0.125,103,143.0
2119,F#3,253.5,0.125,103,143.0
2120,F#3,253.75,0.125,79,143.0
2121,C4,254.0,1.0,95,143.0
2122,C3,254.0,1.0,95,143.0
2123,C2,254.0,1.0,95,143.0
2124,C2,254.0,0.125,119,143.0
2125,F#3,254.0,0.125,119,143.0
2126,F#3,254.25,0.125,79,143.0
2127,F#3,254.5,0.125,63,143.0
2128,F#4,254.5,1.0,95,143.0
2129,D4,254.5,1.0,95,143.0
2130,F#3,254.75,0.125,79,143.0
2131,A3,255.0,1.0,95,143.0
2132,D3,255.0,1.0,95,143.0
2133,D2,255.0,1.0,95,143.0
2134,F#3,255.0,0.125,119,143.0
2135,D2,255.0,0.125,119,143.0
2136,F#3,255.25,0.125,79,143.0
2137,F#3,255.5,0.125,79,143.0
2138,D3,255.5,1.969,95,143.0
2139,A3,255.5,1.969,95,143.0
2140,B3,255.562,1.906,95,143.0
2141,F#4,255.562,1.906,95,143.0
2142,F#3,255.75,0.125,79,143.0
2143,G#4,256.0,2.0,95,143.0
2144,C#3,256.0,2.0,95,143.0
2145,G3,256.0,0.125,103,143.0
2146,C2,256.0,0.125,103,143.0
2147,D3,257.5,1.969,95,143.0
2148,A3,257.5,1.969,95,143.0
2149,B3,257.562,1.906,95,143.0
2150,F#4,257.562,1.906,95,143.0
2151,F#4,258.0,2.0,95,143.0
2152,B2,258.0,2.0,95,143.0
2153,G3,258.0,0.125,103,143.0
2154,C2,258.0,0.125,103,143.0
2155,G#3,259.5,1.969,95,143.0
2156,C#4,259.5,1.969,95,143.0
2157,B3,259.562,1.906,95,143.0
2158,E4,259.562,1.906,95,143.0
2159,B4,260.0,2.0,95,143.0
2160,E3,260.0,2.0,95,143.0
2161,G3,260.0,0.125,103,143.0
2162,C2,260.0,0.125,103,143.0
2163,G#3,261.5,1.969,95,143.0
2164,C#4,261.5,1.969,95,143.0
2165,B3,261.562,1.906,95,143.0
2166,E4,261.562,1.906,95,143.0
2167,F#4,262.0,0.5,95,143.0
2168,B2,262.0,0.5,95,143.0
2169,G3,262.0,0.125,103,143.0
2170,C2,262.0,0.125,103,143.0
2171,F#4,262.5,1.5,95,143.0
2172,B2,262.5,1.5,95,143.0
2173,C2,262.5,0.125,111,143.0
2174,D3,263.5,1.969,95,143.0
2175,G3,263.5,1.969,95,143.0
2176,C4,263.562,1.938,95,143.0
2177,F#4,264.0,4.0,95,143.0
2178,A2,264.0,0.5,95,143.0
2179,C2,264.0,0.125,95,143.0
2180,B2,264.5,0.5,95,143.0
2181,C2,264.5,0.125,95,143.0
2182,B2,265.0,0.5,95,143.0
2183,C2,265.0,0.125,95,143.0
2184,B2,265.5,0.5,95,143.0
2185,C2,265.5,0.125,111,143.0
2186,D3,265.5,1.969,95,143.0
2187,G3,265.5,1.969,95,143.0
2188,C4,265.562,1.938,95,143.0
2189,A2,266.0,0.5,95,143.0
2190,C2,266.0,0.125,127,143.0
2191,B2,266.5,0.5,95,143.0
2192,C2,266.5,0.125,111,143.0
2193,G#4,266.5,2.0,95,143.0
2194,E4,266.5,2.0,95,143.0
2195,B2,267.0,0.5,95,143.0
2196,C2,267.0,0.125,111,143.0
2197,E3,267.5,4.0,95,143.0
2198,B2,267.5,0.5,95,143.0
2199,C2,267.5,0.125,111,143.0
2200,A3,267.562,3.938,95,143.0
2201,C4,267.625,3.875,95,143.0
2202,F4,267.688,3.812,95,143.0
2203,F#4,268.0,4.0,95,143.0
2204,A2,268.0,0.5,95,143.0
2205,C2,268.0,0.125,111,143.0
2206,B2,268.5,0.5,95,143.0
2207,C2,268.5,0.125,111,143.0
2208,F#4,268.5,2.0,95,143.0
2209,D4,268.5,2.0,95,143.0
2210,B2,269.0,0.5,95,143.0
2211,C2,269.0,0.125,111,143.0
2212,B2,269.5,0.5,95,143.0
2213,C2,269.5,0.125,111,143.0
2214,A2,270.0,0.5,95,143.0
2215,C2,270.0,0.125,127,143.0
2216,B2,270.5,0.5,95,143.0
2217,C2,270.5,0.125,111,143.0
2218,B4,270.5,2.0,95,143.0
2219,E4,270.5,2.0,95,143.0
2220,B2,271.0,0.5,95,143.0
2221,C2,271.0,0.125,111,143.0
2222,A2,271.5,1.0,95,143.0
2223,B2,271.5,0.5,95,143.0
2224,C2,271.5,0.125,127,143.0
2225,C#4,272.0,1.5,95,143.0
2226,C#3,272.0,1.5,95,143.0
2227,C2,272.0,0.125,119,143.0
2228,F#3,272.0,0.125,119,143.0
2229,F#3,272.25,0.125,79,143.0
2230,G3,272.5,37/500,95,143.0
2231,F#3,272.5,0.125,79,143.0
2232,F#4,272.5,0.5,95,143.0
2233,B3,272.5,0.5,95,143.0
2234,A4,272.5,1.5,95,143.0
2235,E4,272.5,1.5,95,143.0
2236,A3,272.5,1.5,95,143.0
2237,F#3,272.75,0.125,79,143.0
2238,F#4,273.0,1.5,95,143.0
2239,B3,273.0,1.5,95,143.0
2240,F#3,273.0,0.125,119,143.0
2241,D2,273.0,0.125,119,143.0
2242,F#3,273.25,0.125,79,143.0
2243,C#4,273.5,1.5,95,143.0
2244,G#2,273.5,1.5,95,143.0
2245,C2,273.5,0.125,103,143.0
2246,F#3,273.5,0.125,103,143.0
2247,F#3,273.75,0.125,79,143.0
2248,A2,274.0,0.5,95,143.0
2249,C2,274.0,0.125,119,143.0
2250,F#3,274.0,0.125,119,143.0
2251,F#3,274.25,0.125,79,143.0
2252,F#3,274.5,0.125,63,143.0
2253,F#4,274.5,0.5,95,143.0
2254,D4,274.5,0.5,95,143.0
2255,F#3,274.75,0.125,79,143.0
2256,C#4,275.0,1.0,95,143.0
2257,C#3,275.0,1.0,95,143.0
2258,E4,275.0,0.5,95,143.0
2259,C4,275.0,0.5,95,143.0
2260,F#3,275.0,0.125,119,143.0
2261,D2,275.0,0.125,119,143.0
2262,F#3,275.25,0.125,79,143.0
2263,F#3,275.5,0.125,79,143.0
2264,F#3,275.75,0.125,79,143.0
2265,B3,276.0,0.5,95,143.0
2266,B2,276.0,1.5,95,143.0
2267,C2,276.0,0.125,119,143.0
2268,F#3,276.0,0.125,119,143.0
2269,F#3,276.25,0.125,79,143.0
2270,A3,276.5,1.0,95,143.0
2271,F#3,276.5,0.125,79,143.0
2272,F#3,276.75,0.125,79,143.0
2273,E4,277.0,1.5,95,143.0
2274,C4,277.0,1.5,95,143.0
2275,F#3,277.0,0.125,119,143.0
2276,D2,277.0,0.125,119,143.0
2277,F#3,277.25,0.125,79,143.0
2278,A3,277.5,1.5,95,143.0
2279,F#2,277.5,1.5,95,143.0
2280,C2,277.5,0.125,103,143.0
2281,F#3,277.5,0.125,103,143.0
2282,F#3,277.75,0.125,79,143.0
2283,C2,278.0,0.125,119,143.0
2284,F#3,278.0,0.125,119,143.0
2285,F#3,278.25,0.125,79,143.0
2286,A2,278.5,0.5,95,143.0
2287,F#3,278.5,0.125,63,143.0
2288,F#4,278.5,4.0,95,143.0
2289,B3,278.5,4.0,95,143.0
2290,F#3,278.75,0.125,79,143.0
2291,B3,279.0,0.5,95,143.0
2292,B2,279.0,1.0,95,143.0
2293,E4,279.0,1.0,95,143.0
2294,C4,279.0,1.0,95,143.0
2295,F#3,279.0,0.125,119,143.0
2296,D2,279.0,0.125,119,143.0
2297,F#3,279.25,0.125,79,143.0
2298,A3,279.5,0.5,95,143.0
2299,F#3,279.5,0.125,79,143.0
2300,F#3,279.75,0.125,79,143.0
2301,B3,280.0,1.0,95,143.0
2302,C#3,280.0,1.5,95,143.0
2303,F#4,280.0,1.0,95,143.0
2304,D4,280.0,1.0,95,143.0
2305,C2,280.0,0.125,119,143.0
2306,F#3,280.0,0.125,119,143.0
2307,F#3,280.25,0.125,79,143.0
2308,F#3,280.5,0.125,79,143.0
2309,F#3,280.75,0.125,79,143.0
2310,C#4,281.0,0.5,95,143.0
2311,A2,281.0,1.0,95,143.0
2312,F#3,281.0,0.125,119,143.0
2313,D2,281.0,0.125,119,143.0
2314,F#3,281.25,0.125,79,143.0
2315,B3,281.5,0.5,95,143.0
2316,G#2,281.5,1.5,95,143.0
2317,C2,281.5,0.125,103,143.0
2318,F#3,281.5,0.125,103,143.0
2319,F#3,281.75,0.125,79,143.0
2320,B3,282.0,0.5,95,143.0
2321,G3,282.0,37/500,95,143.0
2322,A4,282.0,1.5,95,143.0
2323,E4,282.0,1.5,95,143.0
2324,A3,282.0,1.5,95,143.0
2325,C2,282.0,0.125,119,143.0
2326,F#3,282.0,0.125,119,143.0
2327,F#3,282.25,0.125,79,143.0
2328,A3,282.5,0.5,95,143.0
2329,F#3,282.5,0.125,63,143.0
2330,F#3,282.75,0.125,79,143.0
2331,F#3,283.0,0.5,95,143.0
2332,C#3,283.0,1.0,95,143.0
2333,F#3,283.0,0.125,119,143.0
2334,D2,283.0,0.125,119,143.0
2335,F#3,283.25,0.125,79,143.0
2336,A3,283.5,0.5,95,143.0
2337,A2,283.5,0.5,95,143.0
2338,F#3,283.5,0.125,79,143.0
2339,F#3,283.75,0.125,79,143.0
2340,B3,284.0,0.5,95,143.0
2341,B2,284.0,1.5,95,143.0
2342,F#4,284.0,0.5,95,143.0
2343,D4,284.0,0.5,95,143.0
2344,C2,284.0,0.125,119,143.0
2345,F#3,284.0,0.125,119,143.0
2346,F#3,284.25,0.125,79,143.0
2347,C#4,284.5,0.5,95,143.0
2348,F#3,284.5,0.125,79,143.0
2349,E4,284.5,0.5,95,143.0
2350,C4,284.5,0.5,95,143.0
2351,F#3,284.75,0.125,79,143.0
2352,E4,285.0,1.0,95,143.0
2353,F#3,285.0,0.125,119,143.0
2354,D2,285.0,0.125,119,143.0
2355,F#3,285.25,0.125,79,143.0
2356,F#2,285.5,1.5,95,143.0
2357,C2,285.5,0.125,103,143.0
2358,F#3,285.5,0.125,103,143.0
2359,F#3,285.75,0.125,79,143.0
2360,B3,286.0,0.5,95,143.0
2361,C2,286.0,0.125,119,143.0
2362,F#3,286.0,0.125,119,143.0
2363,F#3,286.25,0.125,79,143.0
2364,A3,286.5,0.5,95,143.0
2365,F#3,286.5,0.125,63,143.0
2366,E4,286.5,1.5,95,143.0
2367,C4,286.5,1.5,95,143.0
2368,F#3,286.75,0.125,79,143.0
2369,B3,287.0,0.5,95,143.0
2370,B2,287.0,1.0,95,143.0
2371,F#3,287.0,0.125,119,143.0
2372,D2,287.0,0.125,119,143.0
2373,F#3,287.25,0.125,79,143.0
2374,A3,287.5,0.5,95,143.0
2375,F#3,287.5,0.125,79,143.0
2376,F#3,287.75,0.125,79,143.0
2377,A3,288.0,1.0,95,143.0
2378,A2,288.0,0.5,95,143.0
2379,D3,288.0,1.5,95,143.0
2380,C2,288.0,0.125,119,143.0
2381,F#3,288.0,0.125,119,143.0
2382,F#3,288.25,0.125,79,143.0
2383,F#3,288.5,0.125,79,143.0
2384,E4,288.5,1.0,95,143.0
2385,C4,288.5,1.0,95,143.0
2386,F#3,288.75,0.125,79,143.0
2387,F#4,289.0,0.5,95,143.0
2388,F#3,289.0,0.125,119,143.0
2389,D2,289.0,0.125,119,143.0
2390,F#3,289.25,0.125,79,143.0
2391,F#4,289.5,0.5,95,143.0
2392,A2,289.5,1.5,95,143.0
2393,F#4,289.5,1.0,95,143.0
2394,D4,289.5,1.0,95,143.0
2395,C2,289.5,0.125,103,143.0
2396,F#3,289.5,0.125,103,143.0
2397,F#3,289.75,0.125,79,143.0
2398,A4,290.0,1.0,95,143.0
2399,C2,290.0,0.125,119,143.0
2400,F#3,290.0,0.125,119,143.0
2401,F#3,290.25,0.125,79,143.0
2402,A2,290.5,1.0,95,143.0
2403,F#3,290.5,0.125,63,143.0
2404,F#3,290.75,0.125,79,143.0
2405,B4,291.0,0.5,95,143.0
2406,D3,291.0,1.0,95,143.0
2407,F#3,291.0,0.125,119,143.0
2408,D2,291.0,0.125,119,143.0
2409,F#3,291.25,0.125,79,143.0
2410,A4,291.5,0.5,95,143.0
2411,G3,291.5,37/500,95,143.0
2412,F#3,291.5,0.125,79,143.0
2413,A4,291.5,1.5,95,143.0
2414,E4,291.5,1.5,95,143.0
2415,A3,291.5,1.5,95,143.0
2416,F#3,291.75,0.125,79,143.0
2417,B4,292.0,1.0,95,143.0
2418,C#3,292.0,1.5,95,143.0
2419,C2,292.0,0.125,119,143.0
2420,F#3,292.0,0.125,119,143.0
2421,F#3,292.25,0.125,79,143.0
2422,F#3,292.5,0.125,79,143.0
2423,F#3,292.75,0.125,79,143.0
2424,A4,293.0,0.5,95,143.0
2425,A2,293.0,0.5,95,143.0
2426,F#3,293.0,0.125,119,143.0
2427,D2,293.0,0.125,119,143.0
2428,F#3,293.25,0.125,79,143.0
2429,G#2,293.5,1.5,95,143.0
2430,A4,293.5,1.5,95,143.0
2431,E4,293.5,1.5,95,143.0
2432,F#4,293.5,0.5,95,143.0
2433,D4,293.5,0.5,95,143.0
2434,C2,293.5,0.125,103,143.0
2435,F#3,293.5,0.125,103,143.0
2436,F#3,293.75,0.125,79,143.0
2437,E4,294.0,0.5,95,143.0
2438,C4,294.0,0.5,95,143.0
2439,C2,294.0,0.125,119,143.0
2440,F#3,294.0,0.125,119,143.0
2441,F#3,294.25,0.125,79,143.0
2442,F#3,294.5,0.125,63,143.0
2443,F#3,294.75,0.125,79,143.0
2444,F#4,295.0,0.5,95,143.0
2445,C#3,295.0,1.0,95,143.0
2446,F#3,295.0,0.125,119,143.0
2447,D2,295.0,0.125,119,143.0
2448,F#3,295.25,0.125,79,143.0
2449,E4,295.5,0.5,95,143.0
2450,F#3,295.5,0.125,79,143.0
2451,F#3,295.75,0.125,79,143.0
2452,E4,296.0,0.25,95,143.0
2453,D3,296.0,1.5,95,143.0
2454,E4,296.0,1.5,95,143.0
2455,C4,296.0,1.5,95,143.0
2456,C2,296.0,0.125,119,143.0
2457,F#3,296.0,0.125,119,143.0
2458,F#4,296.25,0.75,95,143.0
2459,F#3,296.25,0.125,79,143.0
2460,F#3,296.5,0.125,79,143.0
2461,F#3,296.75,0.125,79,143.0
2462,F#4,297.0,0.5,95,143.0
2463,F#3,297.0,0.125,119,143.0
2464,D2,297.0,0.125,119,143.0
2465,F#3,297.25,0.125,79,143.0
2466,E4,297.5,0.5,95,143.0
2467,A2,297.5,0.5,95,143.0
2468,A2,297.5,1.5,95,143.0
2469,C2,297.5,0.125,103,143.0
2470,F#3,297.5,0.125,103,143.0
2471,F#3,297.75,0.125,79,143.0
2472,E4,298.0,0.25,95,143.0
2473,E4,298.0,1.0,95,143.0
2474,C4,298.0,1.0,95,143.0
2475,C2,298.0,0.125,119,143.0
2476,F#3,298.0,0.125,119,143.0
2477,F#4,298.25,0.75,95,143.0
2478,F#3,298.25,0.125,79,143.0
2479,F#3,298.5,0.125,63,143.0
2480,F#3,298.75,0.125,79,143.0
2481,F#4,299.0,0.5,95,143.0
2482,D3,299.0,1.0,95,143.0
2483,F#4,299.0,1.0,95,143.0
2484,D4,299.0,1.0,95,143.0
2485,F#3,299.0,0.125,119,143.0
2486,D2,299.0,0.125,119,143.0
2487,F#3,299.25,0.125,79,143.0
2488,E4,299.5,0.5,95,143.0
2489,F#3,299.5,0.125,79,143.0
2490,F#3,299.75,0.125,79,143.0
2491,A4,300.0,0.5,95,143.0
2492,C#3,300.0,1.5,95,143.0
2493,E4,300.0,2.0,95,143.0
2494,B4,300.0,2.0,95,143.0
2495,G#4,300.0,2.0,95,143.0
2496,C#4,300.0,2.0,95,143.0
2497,C2,300.0,0.125,119,143.0
2498,F#3,300.0,0.125,119,143.0
2499,F#3,300.25,0.125,79,143.0
2500,B4,300.5,0.5,95,143.0
2501,F#3,300.5,0.125,79,143.0
2502,F#3,300.75,0.125,79,143.0
2503,A4,301.0,0.5,95,143.0
2504,F#3,301.0,0.125,119,143.0
2505,D2,301.0,0.125,119,143.0
2506,F#3,301.25,0.125,79,143.0
2507,F#4,301.5,0.5,95,143.0
2508,G#2,301.5,1.5,95,143.0
2509,C2,301.5,0.125,103,143.0
2510,F#3,301.5,0.125,103,143.0
2511,F#3,301.75,0.125,79,143.0
2512,E4,302.0,0.5,95,143.0
2513,B3,302.0,2.0,95,143.0
2514,A4,302.0,2.0,95,143.0
2515,F#4,302.0,2.0,95,143.0
2516,D4,302.0,2.0,95,143.0
2517,C2,302.0,0.125,119,143.0
2518,F#3,302.0,0.125,119,143.0
2519,F#3,302.25,0.125,79,143.0
2520,F#4,302.5,1.0,95,143.0
2521,F#3,302.5,0.125,63,143.0
2522,F#3,302.75,0.125,79,143.0
2523,C#3,303.0,1.0,95,143.0
2524,F#3,303.0,0.125,119,143.0
2525,D2,303.0,0.125,119,143.0
2526,F#3,303.25,0.125,79,143.0
2527,E4,303.5,0.5,95,143.0
2528,F#3,303.5,0.125,79,143.0
2529,F#3,303.75,0.125,79,143.0
2530,B2,304.0,1.0,95,143.0
2531,C2,304.0,0.125,127,143.0
2532,E4,304.0,2.0,95,143.0
2533,B4,304.0,2.0,95,143.0
2534,G#4,304.0,2.0,95,143.0
2535,C#4,304.0,2.0,95,143.0
2536,B2,305.0,1.0,95,143.0
2537,C2,305.0,0.125,127,143.0
2538,F#4,305.5,0.25,95,143.0
2539,A4,305.75,0.75,95,143.0
2540,B2,306.0,2.0,95,143.0
2541,C2,306.0,0.125,127,143.0
2542,B3,306.0,2.0,95,143.0
2543,A4,306.0,2.0,95,143.0
2544,F#4,306.0,2.0,95,143.0
2545,D4,306.0,2.0,95,143.0
2546,C#5,306.5,0.5,95,143.0
2547,B4,307.0,0.25,95,143.0
2548,A4,307.25,0.25,95,143.0
2549,G3,307.438,0.062,95,143.0
2550,A2,307.5,0.125,111,143.0
2551,G3,307.5,0.5,95,143.0
2552,B3,307.5,0.5,95,143.0
2553,A3,308.0,1.0,95,143.0
2554,B5,308.0,1.0,95,143.0
2555,B2,308.0,4.0,95,143.0
2556,A2,308.0,0.125,127,143.0
2557,A3,309.0,0.5,95,143.0
2558,B5,309.0,1.0,95,143.0
2559,A2,309.0,0.125,111,143.0
2560,A3,309.5,0.5,95,143.0
2561,B3,310.0,2.0,95,143.0
2562,B5,310.0,2.0,95,143.0
2563,A2,310.0,0.125,127,143.0
2564,F#2,312.0,1.0,95,143.0
2565,C2,312.0,0.125,127,143.0
2566,F#2,313.0,1.0,95,143.0
2567,C2,313.0,0.125,127,143.0
2568,C#4,313.5,0.25,95,143.0
2569,E4,313.75,0.25,95,143.0
2570,G#4,314.0,1.0,95,143.0
2571,F#2,314.0,2.0,95,143.0
2572,C2,314.0,0.125,127,143.0
2573,F#4,315.0,0.25,95,143.0
2574,E4,315.25,0.25,95,143.0
2575,C#4,315.5,0.25,95,143.0
2576,G2,315.5,0.125,127,143.0
2577,D3,315.688,0.062,95,143.0
2578,D3,315.75,0.25,95,143.0
2579,F#3,315.75,0.25,95,143.0
2580,E3,316.0,1.0,95,143.0
2581,F#5,316.0,1.0,95,143.0
2582,F#2,316.0,4.0,95,143.0
2583,G2,316.0,0.125,111,143.0
2584,B3,316.0,4.0,95,143.0
2585,A4,316.0,4.0,95,143.0
2586,F#4,316.0,4.0,95,143.0
2587,D4,316.0,4.0,95,143.0
2588,E3,317.0,1.0,95,143.0
2589,F#5,317.0,1.0,95,143.0
2590,G2,317.0,0.125,111,143.0
2591,F#3,318.0,2.0,95,143.0
2592,F#5,318.0,2.0,95,143.0
2593,G2,318.0,0.125,127,143.0
2594,E3,320.0,1.0,95,143.0
2595,G#2,320.0,1.0,95,143.0
2596,F2,320.0,0.125,111,143.0
2597,D3,321.0,1.0,95,143.0
2598,F#2,321.0,1.0,95,143.0
2599,F2,321.0,0.125,111,143.0
2600,E3,322.0,1.0,95,143.0
2601,G#2,322.0,1.0,95,143.0
2602,F2,322.0,0.125,111,143.0
2603,F#3,323.0,1.0,95,143.0
2604,A2,323.0,1.0,95,143.0
2605,F2,323.0,0.125,111,143.0
2606,E3,324.0,4.0,95,143.0
2607,G#2,324.0,4.0,95,143.0
2608,F2,324.0,0.125,127,143.0
2609,B3,324.0,4.0,95,143.0
2610,A4,324.0,4.0,95,143.0
2611,F#4,324.0,4.0,95,143.0
2612,D4,324.0,4.0,95,143.0
2613,B5,328.0,0.5,95,143.0
2614,E2,328.0,0.5,95,143.0
2615,E4,328.0,4.0,95,143.0
2616,B4,328.0,4.0,95,143.0
2617,G#4,328.0,4.0,95,143.0
2618,C#4,328.0,4.0,95,143.0
2619,A5,328.5,0.5,95,143.0
2620,D2,328.5,0.5,95,143.0
2621,B5,329.0,0.5,95,143.0
2622,E2,329.0,0.5,95,143.0
2623,C#6,329.5,0.5,95,143.0
2624,F#2,329.5,0.5,95,143.0
2625,B5,330.0,2.0,95,143.0
2626,E2,330.0,2.0,95,143.0
2627,B5,332.0,4.0,95,143.0
2628,E2,332.0,4.0,95,143.0
2629,B3,332.0,4.0,95,143.0
2630,A4,332.0,4.0,95,143.0
2631,F#4,332.0,4.0,95,143.0
2632,D4,332.0,4.0,95,143.0
2633,D2,335.0,0.125,127,143.0
2634,A2,336.0,1.0,95,143.0
2635,A1,336.0,1.0,95,143.0
2636,E4,336.0,4.0,95,143.0
2637,B4,336.0,4.0,95,143.0
2638,G#4,336.0,4.0,95,143.0
2639,C#4,336.0,4.0,95,143.0
2640,C2,336.0,0.125,119,143.0
2641,F#3,336.0,0.125,119,143.0
2642,F#3,336.25,0.125,79,143.0
2643,F#3,336.5,0.125,79,143.0
2644,F#3,336.75,0.125,79,143.0
2645,A3,337.0,1.5,95,143.0
2646,A2,337.0,1.5,95,143.0
2647,F#3,337.0,0.125,119,143.0
2648,D2,337.0,0.125,119,143.0
2649,F#3,337.25,0.125,79,143.0
2650,C2,337.5,0.125,103,143.0
2651,F#3,337.5,0.125,103,143.0
2652,F#3,337.75,0.125,79,143.0
2653,C2,338.0,0.125,119,143.0
2654,F#3,338.0,0.125,119,143.0
2655,F#3,338.25,0.125,79,143.0
2656,A2,338.5,0.5,95,143.0
2657,A1,338.5,0.5,95,143.0
2658,F#3,338.5,0.125,63,143.0
2659,F#3,338.75,0.125,79,143.0
2660,D3,339.0,0.5,95,143.0
2661,D2,339.0,0.5,95,143.0
2662,F#3,339.0,0.125,119,143.0
2663,D2,339.0,0.125,119,143.0
2664,F#3,339.25,0.125,79,143.0
2665,C3,339.5,0.5,95,143.0
2666,C2,339.5,0.5,95,143.0
2667,F#3,339.5,0.125,79,143.0
2668,F#3,339.75,0.125,79,143.0
2669,C3,340.0,1.5,95,143.0
2670,C2,340.0,1.5,95,143.0
2671,B3,340.0,4.0,95,143.0
2672,A4,340.0,4.0,95,143.0
2673,F#4,340.0,4.0,95,143.0
2674,D4,340.0,4.0,95,143.0
2675,C2,340.0,0.125,119,143.0
2676,F#3,340.0,0.125,119,143.0
2677,F#3,340.25,0.125,79,143.0
2678,F#3,340.5,0.125,79,143.0
2679,F#3,340.75,0.125,79,143.0
2680,F#3,341.0,0.125,119,143.0
2681,D2,341.0,0.125,119,143.0
2682,F#3,341.25,0.125,79,143.0
2683,A2,341.5,0.5,95,143.0
2684,A1,341.5,0.5,95,143.0
2685,C2,341.5,0.125,103,143.0
2686,F#3,341.5,0.125,103,143.0
2687,F#3,341.75,0.125,79,143.0
2688,C3,342.0,1.0,95,143.0
2689,C2,342.0,1.0,95,143.0
2690,C2,342.0,0.125,119,143.0
2691,F#3,342.0,0.125,119,143.0
2692,F#3,342.25,0.125,79,143.0
2693,F#3,342.5,0.125,63,143.0
2694,F#3,342.75,0.125,79,143.0
2695,D3,343.0,1.0,95,143.0
2696,D2,343.0,1.0,95,143.0
2697,F#3,343.0,0.125,119,143.0
2698,D2,343.0,0.125,119,143.0
2699,F#3,343.25,0.125,79,143.0
2700,F#3,343.5,0.125,79,143.0
2701,F#3,343.75,0.125,79,143.0
2702,A2,344.0,1.0,95,143.0
2703,A1,344.0,1.0,95,143.0
2704,A4,344.0,4.0,95,143.0
2705,F#4,344.0,4.0,95,143.0
2706,D4,344.0,4.0,95,143.0
2707,C2,344.0,0.125,119,143.0
2708,F#3,344.0,0.125,119,143.0
2709,F#3,344.25,0.125,79,143.0
2710,F#3,344.5,0.125,79,143.0
2711,F#3,344.75,0.125,79,143.0
2712,A3,345.0,1.5,95,143.0
2713,A2,345.0,1.5,95,143.0
2714,F#3,345.0,0.125,119,143.0
2715,D2,345.0,0.125,119,143.0
2716,F#3,345.25,0.125,79,143.0
2717,C2,345.5,0.125,103,143.0
2718,F#3,345.5,0.125,103,143.0
2719,F#3,345.75,0.125,79,143.0
2720,C2,346.0,0.125,119,143.0
2721,F#3,346.0,0.125,119,143.0
2722,F#3,346.25,0.125,79,143.0
2723,A2,346.5,0.5,95,143.0
2724,A1,346.5,0.5,95,143.0
2725,F#3,346.5,0.125,63,143.0
2726,F#3,346.75,0.125,79,143.0
2727,D3,347.0,0.5,95,143.0
2728,D2,347.0,0.5,95,143.0
2729,F#3,347.0,0.125,119,143.0
2730,D2,347.0,0.125,119,143.0
2731,F#3,347.25,0.125,79,143.0
2732,C3,347.5,0.5,95,143.0
2733,C2,347.5,0.5,95,143.0
2734,F#3,347.5,0.125,79,143.0
2735,F#3,347.75,0.125,79,143.0
2736,C3,348.0,1.5,95,143.0
2737,C2,348.0,1.5,95,143.0
2738,E4,348.0,4.0,95,143.0
2739,B4,348.0,4.0,95,143.0
2740,G#4,348.0,4.0,95,143.0
2741,C#4,348.0,4.0,95,143.0
2742,C2,348.0,0.125,119,143.0
2743,F#3,348.0,0.125,119,143.0
2744,F#3,348.25,0.125,79,143.0
2745,F#3,348.5,0.125,79,143.0
2746,F#3,348.75,0.125,79,143.0
2747,F#3,349.0,0.125,119,143.0
2748,D2,349.0,0.125,119,143.0
2749,F#3,349.25,0.125,79,143.0
2750,A2,349.5,0.5,95,143.0
2751,A1,349.5,0.5,95,143.0
2752,C2,349.5,0.125,103,143.0
2753,F#3,349.5,0.125,103,143.0
2754,F#3,349.75,0.125,79,143.0
2755,C3,350.0,1.0,95,143.0
2756,C2,350.0,1.0,95,143.0
2757,C2,350.0,0.125,119,143.0
2758,F#3,350.0,0.125,119,143.0
2759,F#3,350.25,0.125,79,143.0
2760,F#3,350.5,0.125,63,143.0
2761,A4,350.5,1.0,95,143.0
2762,E4,350.5,1.0,95,143.0
2763,F#3,350.75,0.125,79,143.0
2764,D3,351.0,1.0,95,143.0
2765,D2,351.0,1.0,95,143.0
2766,F#3,351.0,0.125,119,143.0
2767,D2,351.0,0.125,119,143.0
2768,F#3,351.25,0.125,79,143.0
2769,F#3,351.5,0.125,79,143.0
2770,A4,351.5,0.5,95,143.0
2771,E4,351.5,0.5,95,143.0
2772,F#3,351.75,0.125,79,143.0
2773,A2,352.0,1.0,95,143.0
2774,A1,352.0,1.0,95,143.0
2775,A4,352.0,0.5,95,143.0
2776,E4,352.0,0.5,95,143.0
2777,A4,352.0,4.0,95,143.0
2778,F#4,352.0,4.0,95,143.0
2779,D4,352.0,4.0,95,143.0
2780,C2,352.0,0.125,119,143.0
2781,F#3,352.0,0.125,119,143.0
2782,F#3,352.25,0.125,79,143.0
2783,F#3,352.5,0.125,79,143.0
2784,A4,352.5,0.5,95,143.0
2785,E4,352.5,0.5,95,143.0
2786,F#3,352.75,0.125,79,143.0
2787,A3,353.0,1.5,95,143.0
2788,A2,353.0,1.5,95,143.0
2789,A4,353.0,0.5,95,143.0
2790,E4,353.0,0.5,95,143.0
2791,F#3,353.0,0.125,119,143.0
2792,D2,353.0,0.125,119,143.0
2793,F#3,353.25,0.125,79,143.0
2794,A4,353.5,1.0,95,143.0
2795,E4,353.5,1.0,95,143.0
2796,C2,353.5,0.125,103,143.0
2797,F#3,353.5,0.125,103,143.0
2798,F#3,353.75,0.125,79,143.0
2799,C2,354.0,0.125,119,143.0
2800,F#3,354.0,0.125,119,143.0
2801,F#3,354.25,0.125,79,143.0
2802,A2,354.5,0.5,95,143.0
2803,A1,354.5,0.5,95,143.0
2804,F#3,354.5,0.125,63,143.0
2805,G4,354.5,0.5,95,143.0
2806,E4,354.5,0.5,95,143.0
2807,F#3,354.75,0.125,79,143.0
2808,D3,355.0,0.5,95,143.0
2809,D2,355.0,0.5,95,143.0
2810,G4,355.0,1.0,95,143.0
2811,E4,355.0,1.0,95,143.0
2812,F#3,355.0,0.125,119,143.0
2813,D2,355.0,0.125,119,143.0
2814,F#3,355.25,0.125,79,143.0
2815,C3,355.5,0.5,95,143.0
2816,C2,355.5,0.5,95,143.0
2817,F#3,355.5,0.125,79,143.0
2818,F#3,355.75,0.125,79,143.0
2819,C3,356.0,1.5,95,143.0
2820,C2,356.0,1.5,95,143.0
2821,G4,356.0,2.0,95,143.0
2822,E4,356.0,2.0,95,143.0
2823,E4,356.0,4.0,95,143.0
2824,B4,356.0,4.0,95,143.0
2825,G#4,356.0,4.0,95,143.0
2826,C#4,356.0,4.0,95,143.0
2827,C2,356.0,0.125,119,143.0
2828,F#3,356.0,0.125,119,143.0
2829,F#3,356.25,0.125,79,143.0
2830,F#3,356.5,0.125,79,143.0
2831,F#3,356.75,0.125,79,143.0
2832,F#3,357.0,0.125,119,143.0
2833,D2,357.0,0.125,119,143.0
2834,F#3,357.25,0.125,79,143.0
2835,A2,357.5,0.5,95,143.0
2836,A1,357.5,0.5,95,143.0
2837,C2,357.5,0.125,103,143.0
2838,F#3,357.5,0.125,103,143.0
2839,F#3,357.75,0.125,79,143.0
2840,C3,358.0,1.0,95,143.0
2841,C2,358.0,1.0,95,143.0
2842,G4,358.0,0.5,95,143.0
2843,E4,358.0,0.5,95,143.0
2844,C2,358.0,0.125,119,143.0
2845,F#3,358.0,0.125,119,143.0
2846,F#3,358.25,0.125,79,143.0
2847,F#3,358.5,0.125,63,143.0
2848,A4,358.5,1.0,95,143.0
2849,E4,358.5,1.0,95,143.0
2850,F#3,358.75,0.125,79,143.0
2851,D3,359.0,1.0,95,143.0
2852,D2,359.0,1.0,95,143.0
2853,F#3,359.0,0.125,119,143.0
2854,D2,359.0,0.125,119,143.0
2855,F#3,359.25,0.125,79,143.0
2856,F#3,359.5,0.125,79,143.0
2857,A4,359.5,1.0,95,143.0
2858,E4,359.5,1.0,95,143.0
2859,F#3,359.75,0.125,79,143.0
2860,A2,360.0,1.0,95,143.0
2861,A1,360.0,1.0,95,143.0
2862,B3,360.0,4.0,95,143.0
2863,F#4,360.0,4.0,95,143.0
2864,D4,360.0,4.0,95,143.0
2865,C2,360.0,0.125,119,143.0
2866,F#3,360.0,0.125,119,143.0
2867,F#3,360.25,0.125,79,143.0
2868,F#3,360.5,0.125,79,143.0
2869,A4,360.5,0.5,95,143.0
2870,E4,360.5,0.5,95,143.0
2871,F#3,360.75,0.125,79,143.0
2872,A3,361.0,1.5,95,143.0
2873,A2,361.0,1.5,95,143.0
2874,A4,361.0,1.5,95,143.0
2875,E4,361.0,1.5,95,143.0
2876,F#3,361.0,0.125,119,143.0
2877,D2,361.0,0.125,119,143.0
2878,F#3,361.25,0.125,79,143.0
2879,C2,361.5,0.125,103,143.0
2880,F#3,361.5,0.125,103,143.0
2881,F#3,361.75,0.125,79,143.0
2882,C2,362.0,0.125,119,143.0
2883,F#3,362.0,0.125,119,143.0
2884,F#3,362.25,0.125,79,143.0
2885,A2,362.5,0.5,95,143.0
2886,A1,362.5,0.5,95,143.0
2887,F#3,362.5,0.125,63,143.0
2888,G4,362.5,4.0,95,143.0
2889,E4,362.5,4.0,95,143.0
2890,F#3,362.75,0.125,79,143.0
2891,D3,363.0,0.5,95,143.0
2892,D2,363.0,0.5,95,143.0
2893,F#3,363.0,0.125,119,143.0
2894,D2,363.0,0.125,119,143.0
2895,F#3,363.25,0.125,79,143.0
2896,C3,363.5,0.5,95,143.0
2897,C2,363.5,0.5,95,143.0
2898,F#3,363.5,0.125,79,143.0
2899,F#3,363.75,0.125,79,143.0
2900,C3,364.0,1.5,95,143.0
2901,C2,364.0,1.5,95,143.0
2902,C2,364.0,0.125,119,143.0
2903,F#3,364.0,0.125,119,143.0
2904,F#3,364.25,0.125,79,143.0
2905,F#3,364.5,0.125,79,143.0
2906,F#3,364.75,0.125,79,143.0
2907,F#3,365.0,0.125,119,143.0
2908,D2,365.0,0.125,119,143.0
2909,F#3,365.25,0.125,79,143.0
2910,A2,365.5,0.5,95,143.0
2911,A1,365.5,0.5,95,143.0
2912,C2,365.5,0.125,103,143.0
2913,F#3,365.5,0.125,103,143.0
2914,F#3,365.75,0.125,79,143.0
2915,C3,366.0,1.0,95,143.0
2916,C2,366.0,1.0,95,143.0
2917,C2,366.0,0.125,119,143.0
2918,F#3,366.0,0.125,119,143.0
2919,F#3,366.25,0.125,79,143.0
2920,F#3,366.5,0.125,63,143.0
2921,A4,366.5,1.0,95,143.0
2922,E4,366.5,1.0,95,143.0
2923,F#3,366.75,0.125,79,143.0
2924,D3,367.0,1.0,95,143.0
2925,D2,367.0,1.0,95,143.0
2926,F#3,367.0,0.125,119,143.0
2927,D2,367.0,0.125,119,143.0
2928,F#3,367.25,0.125,79,143.0
2929,F#3,367.5,0.125,79,143.0
2930,A4,367.5,0.5,95,143.0
2931,E4,367.5,0.5,95,143.0
2932,F#3,367.75,0.125,79,143.0
2933,E2,368.0,1.5,95,143.0
2934,C2,368.0,0.125,111,143.0
2935,A4,368.0,0.5,95,143.0
2936,E4,368.0,0.5,95,143.0
2937,B3,368.0,4.0,95,143.0
2938,F#4,368.0,4.0,95,143.0
2939,D4,368.0,4.0,95,143.0
2940,A4,368.5,0.5,95,143.0
2941,E4,368.5,0.5,95,143.0
2942,D2,369.0,0.125,111,143.0
2943,A4,369.0,0.5,95,143.0
2944,E4,369.0,0.5,95,143.0
2945,E3,369.5,1.0,95,143.0
2946,C2,369.5,0.125,127,143.0
2947,A4,369.5,1.0,95,143.0
2948,E4,369.5,1.0,95,143.0
2949,C2,370.0,0.125,111,143.0
2950,B2,370.5,1.0,95,143.0
2951,G4,370.5,0.5,95,143.0
2952,E4,370.5,0.5,95,143.0
2953,D2,371.0,0.125,111,143.0
2954,G4,371.0,1.0,95,143.0
2955,E4,371.0,1.0,95,143.0
2956,B2,371.5,0.5,95,143.0
2957,E2,372.0,1.5,95,143.0
2958,C2,372.0,0.125,111,143.0
2959,G4,372.0,2.0,95,143.0
2960,E4,372.0,2.0,95,143.0
2961,F#4,372.0,4.0,95,143.0
2962,C#4,372.0,4.0,95,143.0
2963,A3,372.0,4.0,95,143.0
2964,D2,373.0,0.125,111,143.0
2965,E3,373.5,1.0,95,143.0
2966,C2,373.5,0.125,127,143.0
2967,C2,374.0,0.125,111,143.0
2968,G4,374.0,0.5,95,143.0
2969,E4,374.0,0.5,95,143.0
2970,B2,374.5,1.0,95,143.0
2971,A4,374.5,1.0,95,143.0
2972,E4,374.5,1.0,95,143.0
2973,D2,375.0,0.125,111,143.0
2974,B2,375.5,0.5,95,143.0
2975,A4,375.5,1.0,95,143.0
2976,E4,375.5,1.0,95,143.0
2977,E2,376.0,1.5,95,143.0
2978,C2,376.0,0.125,111,143.0
2979,A4,376.5,1.0,95,143.0
2980,E4,376.5,1.0,95,143.0
2981,D2,377.0,0.125,111,143.0
2982,E3,377.5,1.0,95,143.0
2983,C2,377.5,0.125,127,143.0
2984,A4,377.5,1.0,95,143.0
2985,E4,377.5,1.0,95,143.0
2986,C2,378.0,0.125,111,143.0
2987,B2,378.5,1.0,95,143.0
2988,G4,378.5,4.0,95,143.0
2989,E4,378.5,4.0,95,143.0
2990,D2,379.0,0.125,111,143.0
2991,B2,379.5,0.5,95,143.0
2992,E2,380.0,1.5,95,143.0
2993,C2,380.0,0.125,111,143.0
2994,F#4,380.0,4.0,95,143.0
2995,C#4,380.0,4.0,95,143.0
2996,A3,380.0,4.0,95,143.0
2997,D2,381.0,0.125,111,143.0
2998,E3,381.5,1.0,95,143.0
2999,C2,381.5,0.125,127,143.0
3000,C2,382.0,0.125,111,143.0
3001,B2,382.5,1.0,95,143.0
3002,F#4,382.5,1.0,95,143.0
3003,E4,382.5,1.0,95,143.0
3004,D2,383.0,0.125,111,143.0
3005,B2,383.5,0.5,95,143.0
3006,F#4,383.5,0.5,95,143.0
3007,E4,383.5,0.5,95,143.0
3008,A2,384.0,1.0,95,143.0
3009,A1,384.0,1.0,95,143.0
3010,F#4,384.0,0.5,95,143.0
3011,E4,384.0,0.5,95,143.0
3012,B4,384.0,1.0,95,143.0
3013,G#4,384.0,1.0,95,143.0
3014,E4,384.0,1.0,95,143.0
3015,C2,384.0,0.125,119,143.0
3016,F#3,384.0,0.125,119,143.0
3017,F#3,384.25,0.125,79,143.0
3018,F#3,384.5,0.125,79,143.0
3019,F#4,384.5,0.5,95,143.0
3020,E4,384.5,0.5,95,143.0
3021,F#3,384.75,0.125,79,143.0
3022,A3,385.0,1.5,95,143.0
3023,A2,385.0,1.5,95,143.0
3024,F#4,385.0,0.5,95,143.0
3025,E4,385.0,0.5,95,143.0
3026,A4,385.0,1.0,95,143.0
3027,F#4,385.0,1.0,95,143.0
3028,D4,385.0,1.0,95,143.0
3029,F#3,385.0,0.125,119,143.0
3030,D2,385.0,0.125,119,143.0
3031,F#3,385.25,0.125,79,143.0
3032,F#4,385.5,1.0,95,143.0
3033,E4,385.5,1.0,95,143.0
3034,C2,385.5,0.125,103,143.0
3035,F#3,385.5,0.125,103,143.0
3036,F#3,385.75,0.125,79,143.0
3037,B4,386.0,1.0,95,143.0
3038,G#4,386.0,1.0,95,143.0
3039,E4,386.0,1.0,95,143.0
3040,C2,386.0,0.125,119,143.0
3041,F#3,386.0,0.125,119,143.0
3042,F#3,386.25,0.125,79,143.0
3043,A2,386.5,0.5,95,143.0
3044,A1,386.5,0.5,95,143.0
3045,F#3,386.5,0.125,63,143.0
3046,G#4,386.5,1.0,95,143.0
3047,E4,386.5,1.0,95,143.0
3048,F#3,386.75,0.125,79,143.0
3049,D3,387.0,0.5,95,143.0
3050,D2,387.0,0.5,95,143.0
3051,C#5,387.0,1.0,95,143.0
3052,A4,387.0,1.0,95,143.0
3053,F#4,387.0,1.0,95,143.0
3054,F#3,387.0,0.125,119,143.0
3055,D2,387.0,0.125,119,143.0
3056,F#3,387.25,0.125,79,143.0
3057,C3,387.5,0.5,95,143.0
3058,C2,387.5,0.5,95,143.0
3059,F#3,387.5,0.125,79,143.0
3060,G#4,387.5,0.5,95,143.0
3061,E4,387.5,0.5,95,143.0
3062,F#3,387.75,0.125,79,143.0
3063,C3,388.0,1.5,95,143.0
3064,C2,388.0,1.5,95,143.0
3065,G#4,388.0,2.0,95,143.0
3066,E4,388.0,2.0,95,143.0
3067,B4,388.0,4.0,95,143.0
3068,G#4,388.0,4.0,95,143.0
3069,E4,388.0,4.0,95,143.0
3070,C2,388.0,0.125,119,143.0
3071,F#3,388.0,0.125,119,143.0
3072,F#3,388.25,0.125,79,143.0
3073,F#3,388.5,0.125,79,143.0
3074,F#3,388.75,0.125,79,143.0
3075,F#3,389.0,0.125,119,143.0
3076,D2,389.0,0.125,119,143.0
3077,F#3,389.25,0.125,79,143.0
3078,A2,389.5,0.5,95,143.0
3079,A1,389.5,0.5,95,143.0
3080,C2,389.5,0.125,103,143.0
3081,F#3,389.5,0.125,103,143.0
3082,F#3,389.75,0.125,79,143.0
3083,C3,390.0,1.0,95,143.0
3084,C2,390.0,1.0,95,143.0
3085,G#4,390.0,0.5,95,143.0
3086,E4,390.0,0.5,95,143.0
3087,C2,390.0,0.125,119,143.0
3088,F#3,390.0,0.125,119,143.0
3089,F#3,390.25,0.125,79,143.0
3090,F#3,390.5,0.125,63,143.0
3091,G4,390.5,1.0,95,143.0
3092,E4,390.5,1.0,95,143.0
3093,F#3,390.75,0.125,79,143.0
3094,D3,391.0,1.0,95,143.0
3095,D2,391.0,1.0,95,143.0
3096,F#3,391.0,0.125,119,143.0
3097,D2,391.0,0.125,119,143.0
3098,F#3,391.25,0.125,79,143.0
3099,F#3,391.5,0.125,79,143.0
3100,G4,391.5,1.0,95,143.0
3101,E4,391.5,1.0,95,143.0
3102,F#3,391.75,0.125,79,143.0
3103,A2,392.0,1.0,95,143.0
3104,E5,392.0,0.5,95,143.0
3105,A1,392.0,1.0,95,143.0
3106,C2,392.0,0.125,119,143.0
3107,F#3,392.0,0.125,119,143.0
3108,F#3,392.25,0.125,79,143.0
3109,D5,392.5,0.5,95,143.0
3110,F#3,392.5,0.125,79,143.0
3111,G4,392.5,1.0,95,143.0
3112,E4,392.5,1.0,95,143.0
3113,F#3,392.75,0.125,79,143.0
3114,A3,393.0,1.5,95,143.0
3115,E5,393.0,0.5,95,143.0
3116,A2,393.0,1.5,95,143.0
3117,F#3,393.0,0.125,119,143.0
3118,D2,393.0,0.125,119,143.0
3119,F#3,393.25,0.125,79,143.0
3120,F#5,393.5,0.5,95,143.0
3121,G4,393.5,1.0,95,143.0
3122,E4,393.5,1.0,95,143.0
3123,C2,393.5,0.125,103,143.0
3124,F#3,393.5,0.125,103,143.0
3125,F#3,393.75,0.125,79,143.0
3126,E5,394.0,2.0,95,143.0
3127,C2,394.0,0.125,119,143.0
3128,F#3,394.0,0.125,119,143.0
3129,F#3,394.25,0.125,79,143.0
3130,A2,394.5,0.5,95,143.0
3131,A1,394.5,0.5,95,143.0
3132,F#3,394.5,0.125,63,143.0
3133,A4,394.5,0.5,95,143.0
3134,E4,394.5,0.5,95,143.0
3135,F#3,394.75,0.125,79,143.0
3136,D3,395.0,0.5,95,143.0
3137,D2,395.0,0.5,95,143.0
3138,A4,395.0,1.0,95,143.0
3139,E4,395.0,1.0,95,143.0
3140,F#3,395.0,0.125,119,143.0
3141,D2,395.0,0.125,119,143.0
3142,F#3,395.25,0.125,79,143.0
3143,C3,395.5,0.5,95,143.0
3144,C2,395.5,0.5,95,143.0
3145,F#3,395.5,0.125,79,143.0
3146,F#3,395.75,0.125,79,143.0
3147,C3,396.0,1.5,95,143.0
3148,E5,396.0,4.0,95,143.0
3149,C2,396.0,1.5,95,143.0
3150,A4,396.0,2.0,95,143.0
3151,E4,396.0,2.0,95,143.0
3152,C2,396.0,0.125,119,143.0
3153,F#3,396.0,0.125,119,143.0
3154,F#3,396.25,0.125,79,143.0
3155,F#3,396.5,0.125,79,143.0
3156,F#3,396.75,0.125,79,143.0
3157,F#3,397.0,0.125,119,143.0
3158,D2,397.0,0.125,119,143.0
3159,F#3,397.25,0.125,79,143.0
3160,A2,397.5,0.5,95,143.0
3161,A1,397.5,0.5,95,143.0
3162,C2,397.5,0.125,103,143.0
3163,F#3,397.5,0.125,103,143.0
3164,F#3,397.75,0.125,79,143.0
3165,C3,398.0,1.0,95,143.0
3166,C2,398.0,1.0,95,143.0
3167,A4,398.0,0.5,95,143.0
3168,E4,398.0,0.5,95,143.0
3169,C2,398.0,0.125,119,143.0
3170,F#3,398.0,0.125,119,143.0
3171,F#3,398.25,0.125,79,143.0
3172,F#3,398.5,0.125,63,143.0
3173,A4,398.5,1.0,95,143.0
3174,E4,398.5,1.0,95,143.0
3175,F#3,398.75,0.125,79,143.0
3176,D3,399.0,1.0,95,143.0
3177,D2,399.0,1.0,95,143.0
3178,F#3,399.0,0.125,119,143.0
3179,D2,399.0,0.125,119,143.0
3180,F#3,399.25,0.125,79,143.0
3181,F#3,399.5,0.125,79,143.0
3182,A4,399.5,0.5,95,143.0
3183,E4,399.5,0.5,95,143.0
3184,F#3,399.75,0.125,79,143.0
3185,A2,400.0,1.0,95,143.0
3186,A2,400.0,1.0,95,143.0
3187,A1,400.0,1.0,95,143.0
3188,A4,400.0,2.0,95,143.0
3189,E4,400.0,2.0,95,143.0
3190,C2,400.0,0.125,119,143.0
3191,F#3,400.0,0.125,119,143.0
3192,F#3,400.25,0.125,79,143.0
3193,F#3,400.5,0.125,79,143.0
3194,F#3,400.75,0.125,79,143.0
3195,A3,401.0,1.5,95,143.0
3196,G3,401.0,37/500,95,143.0
3197,A2,401.0,1.5,95,143.0
3198,A4,401.0,1.5,95,143.0
3199,E4,401.0,1.5,95,143.0
3200,A3,401.0,1.5,95,143.0
3201,F#3,401.0,0.125,119,143.0
3202,D2,401.0,0.125,119,143.0
3203,F#3,401.25,0.125,79,143.0
3204,C2,401.5,0.125,103,143.0
3205,F#3,401.5,0.125,103,143.0
3206,F#3,401.75,0.125,79,143.0
3207,A4,402.0,0.5,95,143.0
3208,E4,402.0,0.5,95,143.0
3209,C2,402.0,0.125,119,143.0
3210,F#3,402.0,0.125,119,143.0
3211,F#3,402.25,0.125,79,143.0
3212,A2,402.5,0.5,95,143.0
3213,A2,402.5,0.5,95,143.0
3214,A1,402.5,0.5,95,143.0
3215,F#3,402.5,0.125,63,143.0
3216,G4,402.5,1.0,95,143.0
3217,E4,402.5,1.0,95,143.0
3218,F#3,402.75,0.125,79,143.0
3219,D3,403.0,0.5,95,143.0
3220,D2,403.0,0.5,95,143.0
3221,F#4,403.0,0.5,95,143.0
3222,D4,403.0,0.5,95,143.0
3223,F#3,403.0,0.125,119,143.0
3224,D2,403.0,0.125,119,143.0
3225,F#3,403.25,0.125,79,143.0
3226,C3,403.5,0.5,95,143.0
3227,C2,403.5,0.5,95,143.0
3228,F#3,403.5,0.125,79,143.0
3229,G4,403.5,0.5,95,143.0
3230,E4,403.5,0.5,95,143.0
3231,E4,403.5,0.5,95,143.0
3232,C4,403.5,0.5,95,143.0
3233,F#3,403.75,0.125,79,143.0
3234,C3,404.0,1.5,95,143.0
3235,C2,404.0,1.5,95,143.0
3236,G4,404.0,2.0,95,143.0
3237,E4,404.0,2.0,95,143.0
3238,C2,404.0,0.125,119,143.0
3239,F#3,404.0,0.125,119,143.0
3240,F#3,404.25,0.125,79,143.0
3241,F#3,404.5,0.125,79,143.0
3242,F#3,404.75,0.125,79,143.0
3243,F#3,405.0,0.125,119,143.0
3244,D2,405.0,0.125,119,143.0
3245,F#3,405.25,0.125,79,143.0
3246,A2,405.5,0.5,95,143.0
3247,A1,405.5,0.5,95,143.0
3248,E4,405.5,1.5,95,143.0
3249,C4,405.5,1.5,95,143.0
3250,C2,405.5,0.125,103,143.0
3251,F#3,405.5,0.125,103,143.0
3252,F#3,405.75,0.125,79,143.0
3253,C3,406.0,1.0,95,143.0
3254,C2,406.0,1.0,95,143.0
3255,G4,406.0,0.5,95,143.0
3256,E4,406.0,0.5,95,143.0
3257,C2,406.0,0.125,119,143.0
3258,F#3,406.0,0.125,119,143.0
3259,F#3,406.25,0.125,79,143.0
3260,F#3,406.5,0.125,63,143.0
3261,A4,406.5,1.0,95,143.0
3262,E4,406.5,1.0,95,143.0
3263,F#3,406.75,0.125,79,143.0
3264,D3,407.0,1.0,95,143.0
3265,A2,407.0,0.5,95,143.0
3266,D2,407.0,1.0,95,143.0
3267,F#3,407.0,0.125,119,143.0
3268,D2,407.0,0.125,119,143.0
3269,F#3,407.25,0.125,79,143.0
3270,F#3,407.5,0.125,79,143.0
3271,A4,407.5,1.0,95,143.0
3272,E4,407.5,1.0,95,143.0
3273,E4,407.5,1.0,95,143.0
3274,C4,407.5,1.0,95,143.0
3275,F#3,407.75,0.125,79,143.0
3276,C#3,408.0,2.0,95,143.0
3277,G3,408.0,0.125,103,143.0
3278,C2,408.0,0.125,103,143.0
3279,A4,408.5,1.0,95,143.0
3280,E4,408.5,1.0,95,143.0
3281,F#4,408.5,1.0,95,143.0
3282,D4,408.5,1.0,95,143.0
3283,A2,409.5,1.0,95,143.0
3284,A4,409.5,1.0,95,143.0
3285,E4,409.5,1.0,95,143.0
3286,B2,410.0,2.0,95,143.0
3287,G3,410.0,0.125,103,143.0
3288,C2,410.0,0.125,103,143.0
3289,G3,410.5,37/500,95,143.0
3290,G4,410.5,1.0,95,143.0
3291,E4,410.5,1.0,95,143.0
3292,A4,410.5,1.5,95,143.0
3293,E4,410.5,1.5,95,143.0
3294,A3,410.5,1.5,95,143.0
3295,G4,411.5,0.5,95,143.0
3296,E4,411.5,0.5,95,143.0
3297,A2,412.0,0.5,95,143.0
3298,E3,412.0,2.0,95,143.0
3299,G4,412.0,2.0,95,143.0
3300,E4,412.0,2.0,95,143.0
3301,G3,412.0,0.125,103,143.0
3302,C2,412.0,0.125,103,143.0
3303,F#4,412.5,0.5,95,143.0
3304,D4,412.5,0.5,95,143.0
3305,E4,413.0,0.5,95,143.0
3306,C4,413.0,0.5,95,143.0
3307,B2,414.0,0.5,95,143.0
3308,G4,414.0,0.5,95,143.0
3309,E4,414.0,0.5,95,143.0
3310,G3,414.0,0.125,103,143.0
3311,C2,414.0,0.125,103,143.0
3312,B2,414.5,1.5,95,143.0
3313,C2,414.5,0.125,111,143.0
3314,A4,414.5,1.0,95,143.0
3315,E4,414.5,1.0,95,143.0
3316,E4,415.0,1.5,95,143.0
3317,C4,415.0,1.5,95,143.0
3318,A4,415.5,1.0,95,143.0
3319,E4,415.5,1.0,95,143.0
3320,A2,416.0,0.5,95,143.0
3321,C2,416.0,0.125,95,143.0
3322,A2,416.5,0.5,95,143.0
3323,B2,416.5,0.5,95,143.0
3324,C2,416.5,0.125,95,143.0
3325,A4,416.5,1.0,95,143.0
3326,E4,416.5,1.0,95,143.0
3327,B2,417.0,0.5,95,143.0
3328,C2,417.0,0.125,95,143.0
3329,E4,417.0,1.0,95,143.0
3330,C4,417.0,1.0,95,143.0
3331,B2,417.5,0.5,95,143.0
3332,C2,417.5,0.125,111,143.0
3333,A4,417.5,1.0,95,143.0
3334,E4,417.5,1.0,95,143.0
3335,A2,418.0,0.5,95,143.0
3336,C2,418.0,0.125,127,143.0
3337,F#4,418.0,1.0,95,143.0
3338,D4,418.0,1.0,95,143.0
3339,B2,418.5,0.5,95,143.0
3340,C2,418.5,0.125,111,143.0
3341,G4,418.5,1.0,95,143.0
3342,E4,418.5,1.0,95,143.0
3343,A2,419.0,1.0,95,143.0
3344,B2,419.0,0.5,95,143.0
3345,C2,419.0,0.125,111,143.0
3346,B2,419.5,0.5,95,143.0
3347,C2,419.5,0.125,111,143.0
3348,G4,419.5,1.0,95,143.0
3349,E4,419.5,1.0,95,143.0
3350,G3,420.0,37/500,95,143.0
3351,A2,420.0,0.5,95,143.0
3352,C2,420.0,0.125,111,143.0
3353,A4,420.0,1.5,95,143.0
3354,E4,420.0,1.5,95,143.0
3355,A3,420.0,1.5,95,143.0
3356,B2,420.5,0.5,95,143.0
3357,C2,420.5,0.125,111,143.0
3358,G4,420.5,1.0,95,143.0
3359,E4,420.5,1.0,95,143.0
3360,B2,421.0,0.5,95,143.0
3361,C2,421.0,0.125,111,143.0
3362,A2,421.5,0.5,95,143.0
3363,B2,421.5,0.5,95,143.0
3364,C2,421.5,0.125,111,143.0
3365,G4,421.5,1.0,95,143.0
3366,E4,421.5,1.0,95,143.0
3367,A2,422.0,0.5,95,143.0
3368,C2,422.0,0.125,127,143.0
3369,F#4,422.0,0.5,95,143.0
3370,D4,422.0,0.5,95,143.0
3371,B2,422.5,0.5,95,143.0
3372,C2,422.5,0.125,111,143.0
3373,G#4,422.5,2.0,95,143.0
3374,E4,422.5,2.0,95,143.0
3375,E4,422.5,0.5,95,143.0
3376,C4,422.5,0.5,95,143.0
3377,B2,423.0,0.5,95,143.0
3378,C2,423.0,0.125,111,143.0
3379,B2,423.5,0.5,95,143.0
3380,C2,423.5,0.125,127,143.0
3381,C#3,424.0,1.5,95,143.0
3382,C2,424.0,0.125,119,143.0
3383,F#3,424.0,0.125,119,143.0
3384,F#3,424.25,0.125,79,143.0
3385,F#3,424.5,0.125,79,143.0
3386,F#4,424.5,2.0,95,143.0
3387,D4,424.5,2.0,95,143.0
3388,E4,424.5,1.5,95,143.0
3389,C4,424.5,1.5,95,143.0
3390,F#3,424.75,0.125,79,143.0
3391,F#3,425.0,0.125,119,143.0
3392,D2,425.0,0.125,119,143.0
3393,F#3,425.25,0.125,79,143.0
3394,G#2,425.5,1.5,95,143.0
3395,C2,425.5,0.125,103,143.0
3396,F#3,425.5,0.125,103,143.0
3397,F#3,425.75,0.125,79,143.0
3398,A2,426.0,0.5,95,143.0
3399,C2,426.0,0.125,119,143.0
3400,F#3,426.0,0.125,119,143.0
3401,F#3,426.25,0.125,79,143.0
3402,F#3,426.5,0.125,63,143.0
3403,B4,426.5,2.0,95,143.0
3404,E4,426.5,2.0,95,143.0
3405,E4,426.5,1.0,95,143.0
3406,C4,426.5,1.0,95,143.0
3407,F#3,426.75,0.125,79,143.0
3408,C#3,427.0,1.0,95,143.0
3409,F#3,427.0,0.125,119,143.0
3410,D2,427.0,0.125,119,143.0
3411,F#3,427.25,0.125,79,143.0
3412,F#3,427.5,0.125,79,143.0
3413,F#4,427.5,1.0,95,143.0
3414,D4,427.5,1.0,95,143.0
3415,F#3,427.75,0.125,79,143.0
3416,B2,428.0,1.5,95,143.0
3417,C2,428.0,0.125,119,143.0
3418,F#3,428.0,0.125,119,143.0
3419,F#3,428.25,0.125,79,143.0
3420,A2,428.5,1.0,95,143.0
3421,F#3,428.5,0.125,79,143.0
3422,F#4,428.5,0.5,95,143.0
3423,B3,428.5,0.5,95,143.0
3424,F#3,428.75,0.125,79,143.0
3425,F#4,429.0,1.5,95,143.0
3426,B3,429.0,1.5,95,143.0
3427,F#3,429.0,0.125,119,143.0
3428,D2,429.0,0.125,119,143.0
3429,F#3,429.25,0.125,79,143.0
3430,G3,429.5,37/500,95,143.0
3431,F#2,429.5,1.5,95,143.0
3432,A4,429.5,1.5,95,143.0
3433,E4,429.5,1.5,95,143.0
3434,A3,429.5,1.5,95,143.0
3435,C2,429.5,0.125,103,143.0
3436,F#3,429.5,0.125,103,143.0
3437,F#3,429.75,0.125,79,143.0
3438,C2,430.0,0.125,119,143.0
3439,F#3,430.0,0.125,119,143.0
3440,F#3,430.25,0.125,79,143.0
3441,F#3,430.5,0.125,63,143.0
3442,F#3,430.75,0.125,79,143.0
3443,A2,431.0,0.5,95,143.0
3444,B2,431.0,1.0,95,143.0
3445,F#3,431.0,0.125,119,143.0
3446,D2,431.0,0.125,119,143.0
3447,F#3,431.25,0.125,79,143.0
3448,F#3,431.5,0.125,79,143.0
3449,F#4,431.5,0.5,95,143.0
3450,D4,431.5,0.5,95,143.0
3451,F#3,431.75,0.125,79,143.0
3452,C#3,432.0,1.5,95,143.0
3453,E4,432.0,0.5,95,143.0
3454,C4,432.0,0.5,95,143.0
3455,C2,432.0,0.125,119,143.0
3456,F#3,432.0,0.125,119,143.0
3457,F#3,432.25,0.125,79,143.0
3458,F#3,432.5,0.125,79,143.0
3459,F#3,432.75,0.125,79,143.0
3460,F#3,433.0,0.125,119,143.0
3461,D2,433.0,0.125,119,143.0
3462,F#3,433.25,0.125,79,143.0
3463,G#2,433.5,1.5,95,143.0
3464,C2,433.5,0.125,103,143.0
3465,F#3,433.5,0.125,103,143.0
3466,F#3,433.75,0.125,79,143.0
3467,E4,434.0,1.5,95,143.0
3468,C4,434.0,1.5,95,143.0
3469,C2,434.0,0.125,119,143.0
3470,F#3,434.0,0.125,119,143.0
3471,F#3,434.25,0.125,79,143.0
3472,F#3,434.5,0.125,63,143.0
3473,F#4,434.5,4.0,95,143.0
3474,B3,434.5,4.0,95,143.0
3475,F#3,434.75,0.125,79,143.0
3476,C#3,435.0,1.0,95,143.0
3477,F#3,435.0,0.125,119,143.0
3478,D2,435.0,0.125,119,143.0
3479,F#3,435.25,0.125,79,143.0
3480,A2,435.5,0.5,95,143.0
3481,F#3,435.5,0.125,79,143.0
3482,F#3,435.75,0.125,79,143.0
3483,B2,436.0,1.5,95,143.0
3484,E4,436.0,1.0,95,143.0
3485,C4,436.0,1.0,95,143.0
3486,C2,436.0,0.125,119,143.0
3487,F#3,436.0,0.125,119,143.0
3488,F#3,436.25,0.125,79,143.0
3489,F#3,436.5,0.125,79,143.0
3490,F#3,436.75,0.125,79,143.0
3491,F#4,437.0,1.0,95,143.0
3492,D4,437.0,1.0,95,143.0
3493,F#3,437.0,0.125,119,143.0
3494,D2,437.0,0.125,119,143.0
3495,F#3,437.25,0.125,79,143.0
3496,F#2,437.5,1.5,95,143.0
3497,C2,437.5,0.125,103,143.0
3498,F#3,437.5,0.125,103,143.0
3499,F#3,437.75,0.125,79,143.0
3500,D3,438.0,1.969,95,143.0
3501,A3,438.0,1.969,95,143.0
3502,C2,438.0,0.125,119,143.0
3503,F#3,438.0,0.125,119,143.0
3504,B3,438.062,1.906,95,143.0
3505,F#4,438.062,1.906,95,143.0
3506,F#3,438.25,0.125,79,143.0
3507,F#3,438.5,0.125,63,143.0
3508,F#3,438.75,0.125,79,143.0
3509,B2,439.0,1.0,95,143.0
3510,F#3,439.0,0.125,119,143.0
3511,D2,439.0,0.125,119,143.0
3512,F#3,439.25,0.125,79,143.0
3513,F#3,439.5,0.125,79,143.0
3514,F#3,439.75,0.125,79,143.0
3515,D3,440.0,1.5,95,143.0
3516,D3,440.0,1.969,95,143.0
3517,A3,440.0,1.969,95,143.0
3518,C2,440.0,0.125,119,143.0
3519,F#3,440.0,0.125,119,143.0
3520,B3,440.062,1.906,95,143.0
3521,F#4,440.062,1.906,95,143.0
3522,F#3,440.25,0.125,79,143.0
3523,F#3,440.5,0.125,79,143.0
3524,F#3,440.75,0.125,79,143.0
3525,F#3,441.0,0.125,119,143.0
3526,D2,441.0,0.125,119,143.0
3527,F#3,441.25,0.125,79,143.0
3528,A2,441.5,1.5,95,143.0
3529,C2,441.5,0.125,103,143.0
3530,F#3,441.5,0.125,103,143.0
3531,F#3,441.75,0.125,79,143.0
3532,G#3,442.0,1.969,95,143.0
3533,C#4,442.0,1.969,95,143.0
3534,C2,442.0,0.125,119,143.0
3535,F#3,442.0,0.125,119,143.0
3536,B3,442.062,1.906,95,143.0
3537,E4,442.062,1.906,95,143.0
3538,F#3,442.25,0.125,79,143.0
3539,G#4,442.5,1.0,95,143.0
3540,F#3,442.5,0.125,63,143.0
3541,F#3,442.75,0.125,79,143.0
3542,D3,443.0,1.0,95,143.0
3543,F#3,443.0,0.125,119,143.0
3544,D2,443.0,0.125,119,143.0
3545,F#3,443.25,0.125,79,143.0
3546,G#4,443.5,1.0,95,143.0
3547,F#3,443.5,0.125,79,143.0
3548,F#3,443.75,0.125,79,143.0
3549,C#3,444.0,1.5,95,143.0
3550,G#3,444.0,1.969,95,143.0
3551,C#4,444.0,1.969,95,143.0
3552,C2,444.0,0.125,119,143.0
3553,F#3,444.0,0.125,119,143.0
3554,B3,444.062,1.906,95,143.0
3555,E4,444.062,1.906,95,143.0
3556,F#3,444.25,0.125,79,143.0
3557,G#4,444.5,1.0,95,143.0
3558,F#3,444.5,0.125,79,143.0
3559,F#3,444.75,0.125,79,143.0
3560,F#3,445.0,0.125,119,143.0
3561,D2,445.0,0.125,119,143.0
3562,F#3,445.25,0.125,79,143.0
3563,B4,445.5,1.0,95,143.0
3564,G#2,445.5,1.5,95,143.0
3565,C2,445.5,0.125,103,143.0
3566,F#3,445.5,0.125,103,143.0
3567,F#3,445.75,0.125,79,143.0
3568,D3,446.0,1.969,95,143.0
3569,G3,446.0,1.969,95,143.0
3570,C2,446.0,0.125,119,143.0
3571,F#3,446.0,0.125,119,143.0
3572,C4,446.062,1.938,95,143.0
3573,F#3,446.25,0.125,79,143.0
3574,F#4,446.5,1.0,95,143.0
3575,F#3,446.5,0.125,63,143.0
3576,F#3,446.75,0.125,79,143.0
3577,C#3,447.0,1.0,95,143.0
3578,F#3,447.0,0.125,119,143.0
3579,D2,447.0,0.125,119,143.0
3580,F#3,447.25,0.125,79,143.0
3581,F#4,447.5,1.0,95,143.0
3582,F#3,447.5,0.125,79,143.0
3583,F#3,447.75,0.125,79,143.0
3584,D3,448.0,1.5,95,143.0
3585,D3,448.0,1.969,95,143.0
3586,G3,448.0,1.969,95,143.0
3587,C2,448.0,0.125,119,143.0
3588,F#3,448.0,0.125,119,143.0
3589,C4,448.062,1.938,95,143.0
3590,F#3,448.25,0.125,79,143.0
3591,F#4,448.5,2.0,95,143.0
3592,F#3,448.5,0.125,79,143.0
3593,F#3,448.75,0.125,79,143.0
3594,F#3,449.0,0.125,119,143.0
3595,D2,449.0,0.125,119,143.0
3596,F#3,449.25,0.125,79,143.0
3597,A2,449.5,1.5,95,143.0
3598,C2,449.5,0.125,103,143.0
3599,F#3,449.5,0.125,103,143.0
3600,F#3,449.75,0.125,79,143.0
3601,E3,450.0,4.0,95,143.0
3602,C2,450.0,0.125,119,143.0
3603,F#3,450.0,0.125,119,143.0
3604,A3,450.062,3.938,95,143.0
3605,C4,450.125,3.875,95,143.0
3606,F4,450.188,3.812,95,143.0
3607,F#3,450.25,0.125,79,143.0
3608,G#4,450.5,1.0,95,143.0
3609,F#3,450.5,0.125,63,143.0
3610,F#3,450.75,0.125,79,143.0
3611,D3,451.0,1.0,95,143.0
3612,F#3,451.0,0.125,119,143.0
3613,D2,451.0,0.125,119,143.0
3614,F#3,451.25,0.125,79,143.0
3615,G#4,451.5,1.0,95,143.0
3616,F#3,451.5,0.125,79,143.0
3617,F#3,451.75,0.125,79,143.0
3618,C#3,452.0,1.5,95,143.0
3619,C2,452.0,0.125,119,143.0
3620,F#3,452.0,0.125,119,143.0
3621,F#3,452.25,0.125,79,143.0
3622,G#4,452.5,1.0,95,143.0
3623,F#3,452.5,0.125,79,143.0
3624,F#3,452.75,0.125,79,143.0
3625,F#3,453.0,0.125,119,143.0
3626,D2,453.0,0.125,119,143.0
3627,F#3,453.25,0.125,79,143.0
3628,B4,453.5,1.0,95,143.0
3629,G#2,453.5,1.5,95,143.0
3630,C2,453.5,0.125,103,143.0
3631,F#3,453.5,0.125,103,143.0
3632,F#3,453.75,0.125,79,143.0
3633,A2,454.0,1.0,95,143.0
3634,C2,454.0,0.125,119,143.0
3635,F#3,454.0,0.125,119,143.0
3636,F#3,454.25,0.125,79,143.0
3637,F#4,454.5,1.0,95,143.0
3638,F#3,454.5,0.125,63,143.0
3639,F#3,454.75,0.125,79,143.0
3640,G3,455.0,37/500,95,143.0
3641,C#3,455.0,1.0,95,143.0
3642,A4,455.0,1.5,95,143.0
3643,E4,455.0,1.5,95,143.0
3644,A3,455.0,1.5,95,143.0
3645,F#3,455.0,0.125,119,143.0
3646,D2,455.0,0.125,119,143.0
3647,F#3,455.25,0.125,79,143.0
3648,F#4,455.5,1.0,95,143.0
3649,F#3,455.5,0.125,79,143.0
3650,F#3,455.75,0.125,79,143.0
3651,B2,456.0,1.0,95,143.0
3652,C2,456.0,0.125,127,143.0
3653,F#4,456.5,1.5,95,143.0
3654,A2,456.5,0.5,95,143.0
3655,B2,457.0,1.0,95,143.0
3656,C2,457.0,0.125,127,143.0
3657,F#4,457.0,0.5,95,143.0
3658,D4,457.0,0.5,95,143.0
3659,E4,457.5,0.5,95,143.0
3660,C4,457.5,0.5,95,143.0
3661,F#4,458.0,0.5,95,143.0
3662,B2,458.0,2.0,95,143.0
3663,C2,458.0,0.125,127,143.0
3664,F#4,458.5,1.0,95,143.0
3665,F#4,459.5,1.0,95,143.0
3666,A2,459.5,0.125,111,143.0
3667,E4,459.5,1.5,95,143.0
3668,C4,459.5,1.5,95,143.0
3669,B5,460.0,1.0,95,143.0
3670,B2,460.0,4.0,95,143.0
3671,A2,460.0,0.125,127,143.0
3672,F#4,460.5,1.0,95,143.0
3673,B5,461.0,1.0,95,143.0
3674,A2,461.0,0.5,95,143.0
3675,A2,461.0,0.125,111,143.0
3676,A4,461.5,1.0,95,143.0
3677,E4,461.5,1.0,95,143.0
3678,C4,461.5,1.0,95,143.0
3679,B5,462.0,2.0,95,143.0
3680,A2,462.0,0.125,127,143.0
3681,E4,462.5,1.0,95,143.0
3682,F#4,462.5,1.0,95,143.0
3683,D4,462.5,1.0,95,143.0
3684,E4,463.5,1.0,95,143.0
3685,A2,463.5,1.0,95,143.0
3686,F#2,464.0,1.0,95,143.0
3687,C2,464.0,0.125,127,143.0
3688,E4,464.5,1.5,95,143.0
3689,G3,464.5,37/500,95,143.0
3690,A4,464.5,1.5,95,143.0
3691,E4,464.5,1.5,95,143.0
3692,A3,464.5,1.5,95,143.0
3693,F#2,465.0,1.0,95,143.0
3694,C2,465.0,0.125,127,143.0
3695,E4,466.0,0.5,95,143.0
3696,A2,466.0,0.5,95,143.0
3697,F#2,466.0,2.0,95,143.0
3698,C2,466.0,0.125,127,143.0
3699,F#4,466.5,1.0,95,143.0
3700,F#4,466.5,0.5,95,143.0
3701,D4,466.5,0.5,95,143.0
3702,E4,467.0,0.5,95,143.0
3703,C4,467.0,0.5,95,143.0
3704,F#4,467.5,1.0,95,143.0
3705,G2,467.5,0.125,127,143.0
3706,F#5,468.0,1.0,95,143.0
3707,F#2,468.0,4.0,95,143.0
3708,G2,468.0,0.125,111,143.0
3709,F#4,468.5,1.0,95,143.0
3710,F#5,469.0,1.0,95,143.0
3711,G2,469.0,0.125,111,143.0
3712,E4,469.0,1.5,95,143.0
3713,C4,469.0,1.5,95,143.0
3714,A4,469.5,1.0,95,143.0
3715,F#5,470.0,2.0,95,143.0
3716,G2,470.0,0.125,127,143.0
3717,E4,470.5,1.0,95,143.0
3718,A2,470.5,0.5,95,143.0
3719,E4,471.0,1.0,95,143.0
3720,C4,471.0,1.0,95,143.0
3721,E4,471.5,1.0,95,143.0
3722,G#2,472.0,1.0,95,143.0
3723,F2,472.0,0.125,111,143.0
3724,F#4,472.0,1.0,95,143.0
3725,D4,472.0,1.0,95,143.0
3726,E4,472.5,1.0,95,143.0
3727,A2,473.0,1.0,95,143.0
3728,F#2,473.0,1.0,95,143.0
3729,F2,473.0,0.125,111,143.0
3730,E4,473.5,1.0,95,143.0
3731,G3,474.0,37/500,95,143.0
3732,G#2,474.0,1.0,95,143.0
3733,F2,474.0,0.125,111,143.0
3734,A4,474.0,1.5,95,143.0
3735,E4,474.0,1.5,95,143.0
3736,A3,474.0,1.5,95,143.0
3737,F#4,474.5,1.0,95,143.0
3738,D4,474.5,1.0,95,143.0
3739,A2,475.0,1.0,95,143.0
3740,F2,475.0,0.125,111,143.0
3741,A2,475.5,0.5,95,143.0
3742,F#4,475.5,1.0,95,143.0
3743,D4,475.5,1.0,95,143.0
3744,G#2,476.0,4.0,95,143.0
3745,F2,476.0,0.062,127,143.0
3746,F#4,476.0,0.5,95,143.0
3747,D4,476.0,0.5,95,143.0
3748,F#4,476.5,2.0,95,143.0
3749,D4,476.5,2.0,95,143.0
3750,E4,476.5,0.5,95,143.0
3751,C4,476.5,0.5,95,143.0
3752,E4,478.5,1.5,95,143.0
3753,C4,478.5,1.5,95,143.0
3754,B5,480.0,0.5,95,143.0
3755,A2,480.0,0.5,95,143.0
3756,E2,480.0,0.5,95,143.0
3757,A5,480.5,0.5,95,143.0
3758,D2,480.5,0.5,95,143.0
3759,E4,480.5,1.0,95,143.0
3760,C4,480.5,1.0,95,143.0
3761,B5,481.0,0.5,95,143.0
3762,E2,481.0,0.5,95,143.0
3763,C#6,481.5,0.5,95,143.0
3764,F#2,481.5,0.5,95,143.0
3765,F#4,481.5,1.0,95,143.0
3766,D4,481.5,1.0,95,143.0
3767,B5,482.0,2.0,95,143.0
3768,E2,482.0,2.0,95,143.0
3769,F#4,482.0,3.5,95,143.0
3770,D4,482.0,3.5,95,143.0
3771,E4,482.5,2.0,95,143.0
3772,B4,482.5,2.0,95,143.0
3773,G#4,482.5,2.0,95,143.0
3774,C#4,482.5,2.0,95,143.0
3775,B5,484.0,4.0,95,143.0
3776,E2,484.0,4.0,95,143.0
3777,B3,484.5,2.0,95,143.0
3778,A4,484.5,2.0,95,143.0
3779,F#4,484.5,2.0,95,143.0
3780,D4,484.5,2.0,95,143.0
3781,F#4,485.5,0.5,95,143.0
3782,D4,485.5,0.5,95,143.0
3783,F#4,486.0,1.0,95,143.0
3784,C#4,486.0,1.0,95,143.0
3785,E4,486.5,2.0,95,143.0
3786,B4,486.5,2.0,95,143.0
3787,G#4,486.5,2.0,95,143.0
3788,C#4,486.5,2.0,95,143.0
3789,F#4,487.0,1.0,95,143.0
3790,C#4,487.0,1.0,95,143.0
3791,F#4,488.0,2.0,95,143.0
3792,C#4,488.0,2.0,95,143.0
3793,B3,488.5,2.0,95,143.0
3794,A4,488.5,2.0,95,143.0
3795,F#4,488.5,2.0,95,143.0
3796,D4,488.5,2.0,95,143.0
3797,F#4,493.0,3.0,95,143.0
3798,C#4,493.0,3.0,95,143.0
3799,F#4,496.0,0.5,95,143.0
3800,C#4,496.0,0.5,95,143.0
3801,F#4,496.5,0.5,95,143.0
3802,C#4,496.5,0.5,95,143.0
3803,E4,497.0,1.0,95,143.0
3804,B3,497.0,1.0,95,143.0
3805,D4,498.0,1.0,95,143.0
3806,A3,498.0,1.0,95,143.0
3807,B3,498.5,4.0,95,143.0
3808,A4,498.5,4.0,95,143.0
3809,F#4,498.5,4.0,95,143.0
3810,D4,498.5,4.0,95,143.0
3811,E4,499.0,1.0,95,143.0
3812,B3,499.0,1.0,95,143.0
3813,F#4,500.0,1.0,95,143.0
3814,C#4,500.0,1.0,95,143.0
3815,E4,501.0,4.0,95,143.0
3816,B3,501.0,4.0,95,143.0
3817,B3,506.5,4.0,95,143.0
3818,A4,506.5,4.0,95,143.0
3819,F#4,506.5,4.0,95,143.0
3820,D4,506.5,4.0,95,143.0
3821,E4,510.5,4.0,95,143.0
3822,B4,510.5,4.0,95,143.0
3823,G#4,510.5,4.0,95,143.0
3824,C#4,510.5,4.0,95,143.0
3825,B3,514.5,4.0,95,143.0
3826,A4,514.5,4.0,95,143.0
3827,F#4,514.5,4.0,95,143.0
3828,D4,514.5,4.0,95,143.0
3829,E4,518.5,4.0,95,143.0
3830,B4,518.5,4.0,95,143.0
3831,G#4,518.5,4.0,95,143.0
3832,C#4,518.5,4.0,95,143.0
3833,B3,522.5,4.0,95,143.0
3834,A4,522.5,4.0,95,143.0
3835,F#4,522.5,4.0,95,143.0
3836,D4,522.5,4.0,95,143.0
3837,A4,526.5,4.0,95,143.0
3838,F#4,526.5,4.0,95,143.0
3839,D4,526.5,4.0,95,143.0
3840,E4,530.5,4.0,95,143.0
3841,B4,530.5,4.0,95,143.0
3842,G#4,530.5,4.0,95,143.0
3843,C#4,530.5,4.0,95,143.0
3844,A4,534.5,4.0,95,143.0
3845,F#4,534.5,4.0,95,143.0
3846,D4,534.5,4.0,95,143.0
3847,E4,538.5,4.0,95,143.0
3848,B4,538.5,4.0,95,143.0
3849,G#4,538.5,4.0,95,143.0
3850,C#4,538.5,4.0,95,143.0
3851,B3,542.5,4.0,95,143.0
3852,F#4,542.5,4.0,95,143.0
3853,D4,542.5,4.0,95,143.0
3854,B3,550.5,4.0,95,143.0
3855,F#4,550.5,4.0,95,143.0
3856,D4,550.5,4.0,95,143.0
3857,F#4,554.5,4.0,95,143.0
3858,C#4,554.5,4.0,95,143.0
3859,A3,554.5,4.0,95,143.0
3860,F#4,562.5,4.0,95,143.0
3861,C#4,562.5,4.0,95,143.0
3862,A3,562.5,4.0,95,143.0
3863,B4,566.5,1.0,95,143.0
3864,G#4,566.5,1.0,95,143.0
3865,E4,566.5,1.0,95,143.0
3866,A4,567.5,1.0,95,143.0
3867,F#4,567.5,1.0,95,143.0
3868,D4,567.5,1.0,95,143.0
3869,B4,568.5,1.0,95,143.0
3870,G#4,568.5,1.0,95,143.0
3871,E4,568.5,1.0,95,143.0
3872,C#5,569.5,1.0,95,143.0
3873,A4,569.5,1.0,95,143.0
3874,F#4,569.5,1.0,95,143.0
3875,B4,570.5,4.0,95,143.0
3876,G#4,570.5,4.0,95,143.0
3877,E4,570.5,4.0,95,143.0
3878,E5,574.5,0.5,95,143.0
3879,D5,575.0,0.5,95,143.0
3880,E5,575.5,0.5,95,143.0
3881,F#5,576.0,0.5,95,143.0
3882,E5,576.5,2.0,95,143.0
3883,E5,578.5,4.0,95,143.0
