,note_name,start_time,duration,velocity,tempo
0,B-2,0.0,1.0,95,108.0
1,F4,0.0,1.0,79,108.0
2,D4,0.0,1.0,79,108.0
3,B-3,0.0,1.0,79,108.0
4,F3,0.0,1.0,79,108.0
5,D4,0.0,0.5,95,108.0
6,B-3,0.0,0.5,95,108.0
7,E-4,0.5,0.5,95,108.0
8,C4,0.5,0.5,95,108.0
9,F3,1.0,1.0,95,108.0
10,E4,1.0,0.5,95,108.0
11,C#4,1.0,0.5,95,108.0
12,F4,1.5,0.5,95,108.0
13,D4,1.5,0.5,95,108.0
14,B-3,2.0,1.0,95,108.0
15,F4,2.0,1.0,95,108.0
16,D4,2.0,1.0,95,108.0
17,B-3,2.0,1.0,95,108.0
18,F3,2.0,1.0,95,108.0
19,D5,2.0,0.5,95,108.0
20,F4,2.0,0.5,95,108.0
21,D5,2.5,1.0,95,108.0
22,F4,2.5,1.0,95,108.0
23,A3,3.0,1.0,95,108.0
24,B-2,3.0,1.0,95,108.0
25,C#5,3.5,0.5,95,108.0
26,F4,4.0,1.0,79,108.0
27,D4,4.0,1.0,79,108.0
28,G#3,4.0,1.0,79,108.0
29,F3,4.0,1.0,79,108.0
30,C5,4.0,2.0,95,108.0
31,F4,4.0,2.0,95,108.0
32,D4,4.0,2.0,95,108.0
33,G#3,4.0,1.0,95,108.0
34,B-2,4.0,1.0,95,108.0
35,B-2,5.0,1.0,95,108.0
36,F4,6.0,1.0,95,108.0
37,D4,6.0,1.0,95,108.0
38,G#3,6.0,1.0,95,108.0
39,F3,6.0,1.0,95,108.0
40,D5,6.0,0.5,95,108.0
41,F4,6.0,0.5,95,108.0
42,G#3,6.0,2.0,95,108.0
43,B-2,6.0,2.0,95,108.0
44,D5,6.5,1.0,95,108.0
45,F4,6.5,1.0,95,108.0
46,C#5,7.5,0.5,95,108.0
47,G4,8.0,1.0,79,108.0
48,E-4,8.0,1.0,79,108.0
49,C4,8.0,1.0,79,108.0
50,G3,8.0,1.0,79,108.0
51,C5,8.0,2.0,95,108.0
52,G4,8.0,2.0,95,108.0
53,E-4,8.0,2.0,95,108.0
54,G3,8.0,1.0,95,108.0
55,B-2,8.0,1.0,95,108.0
56,B-2,9.0,1.0,95,108.0
57,G4,10.0,1.0,79,108.0
58,C4,10.0,1.0,79,108.0
59,G3,10.0,1.0,79,108.0
60,E-3,10.0,1.0,79,108.0
61,D5,10.0,0.5,95,108.0
62,G4,10.0,0.5,95,108.0
63,E-4,10.0,0.5,95,108.0
64,G3,10.0,2.0,95,108.0
65,B-2,10.0,2.0,95,108.0
66,D5,10.5,1.0,95,108.0
67,G4,10.5,1.0,95,108.0
68,E-4,10.5,1.0,95,108.0
69,C#5,11.5,0.5,95,108.0
70,F#4,12.0,2.0,79,108.0
71,C4,12.0,2.0,79,108.0
72,B-3,12.0,2.0,79,108.0
73,E-3,12.0,2.0,79,108.0
74,C5,12.0,4.0,95,108.0
75,E-4,12.0,4.0,95,108.0
76,F#3,12.0,1.0,95,108.0
77,B-2,12.0,1.0,95,108.0
78,B-2,13.0,1.0,95,108.0
79,B-2,14.0,0.5,95,108.0
80,C3,14.5,0.5,95,108.0
81,B-2,15.0,1.0,95,108.0
82,B-2,16.0,2.0,95,108.0
83,F4,16.0,1.0,79,108.0
84,D4,16.0,1.0,79,108.0
85,B-3,16.0,1.0,79,108.0
86,F3,16.0,1.0,79,108.0
87,D4,16.0,0.5,95,108.0
88,B-3,16.0,0.5,95,108.0
89,E-4,16.5,0.5,95,108.0
90,C4,16.5,0.5,95,108.0
91,E4,17.0,0.5,95,108.0
92,C#4,17.0,0.5,95,108.0
93,F4,17.5,0.5,95,108.0
94,D4,17.5,0.5,95,108.0
95,F3,18.0,1.0,95,108.0
96,A4,18.0,1.0,95,108.0
97,D4,18.0,1.0,95,108.0
98,B-3,18.0,1.0,95,108.0
99,F3,18.0,1.0,95,108.0
100,A4,18.0,0.5,95,108.0
101,D4,18.0,0.5,95,108.0
102,B-3,18.0,0.5,95,108.0
103,A4,18.5,0.5,95,108.0
104,E3,19.0,1.0,95,108.0
105,C#4,19.0,0.5,95,108.0
106,B-3,19.0,0.5,95,108.0
107,G#4,19.5,0.5,95,108.0
108,E-3,20.0,2.0,95,108.0
109,G4,20.0,1.0,79,108.0
110,C4,20.0,1.0,79,108.0
111,B-3,20.0,1.0,79,108.0
112,E-3,20.0,1.0,79,108.0
113,G4,20.0,2.0,95,108.0
114,C4,20.0,2.0,95,108.0
115,B-3,20.0,2.0,95,108.0
116,G3,22.0,1.0,95,108.0
117,F4,22.0,0.5,79,108.0
118,C#4,22.0,0.5,79,108.0
119,A3,22.0,0.5,79,108.0
120,E-3,22.0,0.5,79,108.0
121,G4,22.0,0.5,95,108.0
122,E-4,22.0,0.5,95,108.0
123,B3,22.0,0.5,95,108.0
124,F4,22.5,0.5,95,108.0
125,G4,23.0,1.0,95,108.0
126,G4,23.0,1.0,83,108.0
127,C#4,23.0,1.0,83,108.0
128,A3,23.0,1.0,83,108.0
129,E-3,23.0,1.0,83,108.0
130,E-3,23.0,1.0,95,108.0
131,F2,23.0,1.0,95,108.0
132,D3,24.0,2.0,95,108.0
133,F4,24.0,1.0,79,108.0
134,D4,24.0,1.0,79,108.0
135,B-3,24.0,1.0,79,108.0
136,F3,24.0,1.0,79,108.0
137,B-4,24.0,0.5,95,108.0
138,D4,24.0,0.5,95,108.0
139,E-4,24.5,0.5,95,108.0
140,E4,25.0,0.5,95,108.0
141,F4,25.5,0.5,95,108.0
142,G4,26.0,1.0,79,108.0
143,C#4,26.0,1.0,79,108.0
144,B-3,26.0,1.0,79,108.0
145,E3,26.0,1.0,79,108.0
146,A4,26.0,0.5,95,108.0
147,E4,26.0,0.5,95,108.0
148,B-3,26.0,2.0,95,108.0
149,C#3,26.0,2.0,95,108.0
150,G4,26.5,1.0,95,108.0
151,C5,27.5,0.5,95,108.0
152,G4,28.0,1.0,79,108.0
153,D4,28.0,1.0,79,108.0
154,B-3,28.0,1.0,79,108.0
155,E3,28.0,1.0,79,108.0
156,C3,28.0,1.0,79,108.0
157,D5,28.0,1.0,95,108.0
158,B-4,28.0,1.0,95,108.0
159,E4,28.0,1.0,95,108.0
160,B-3,28.0,1.0,95,108.0
161,G3,28.0,1.0,95,108.0
162,C3,28.0,1.0,95,108.0
163,F4,29.0,1.0,79,108.0
164,C#4,29.0,1.0,79,108.0
165,A3,29.0,1.0,79,108.0
166,F3,29.0,1.0,79,108.0
167,F5,29.0,1.0,95,108.0
168,C#5,29.0,1.0,95,108.0
169,A4,29.0,1.0,95,108.0
170,F3,29.0,1.0,95,108.0
171,F2,29.0,1.0,95,108.0
172,B-2,30.0,1.0,95,108.0
173,F4,30.0,1.0,79,108.0
174,D4,30.0,1.0,79,108.0
175,B-3,30.0,1.0,79,108.0
176,F3,30.0,1.0,79,108.0
177,B-5,30.0,1.0,95,108.0
178,F5,30.0,1.0,95,108.0
179,D5,30.0,1.0,95,108.0
180,B-4,30.0,1.0,95,108.0
181,D4,31.5,0.5,95,108.0
182,G2,32.0,1.0,95,108.0
183,G4,32.0,1.0,79,108.0
184,D4,32.0,1.0,79,108.0
185,B-3,32.0,1.0,79,108.0
186,G3,32.0,1.0,79,108.0
187,B-4,32.0,0.5,95,108.0
188,D4,32.0,0.5,95,108.0
189,C5,32.5,0.5,95,108.0
190,E-4,32.5,0.5,95,108.0
191,D4,33.0,0.5,79,108.0
192,B-3,33.0,0.5,79,108.0
193,B-4,33.0,0.5,95,108.0
194,D4,33.0,0.5,95,108.0
195,G3,33.0,1.0,95,108.0
196,D3,33.0,1.0,95,108.0
197,A4,33.5,1.0,87,108.0
198,E4,33.5,1.0,87,108.0
199,C4,33.5,1.0,87,108.0
200,A3,33.5,1.0,87,108.0
201,A4,33.5,1.0,95,108.0
202,C4,33.5,1.0,95,108.0
203,D3,34.0,1.0,95,108.0
204,D4,34.5,0.5,79,108.0
205,B-3,34.5,0.5,79,108.0
206,B-4,34.5,0.5,95,108.0
207,D4,34.5,0.5,95,108.0
208,A4,35.0,1.0,79,108.0
209,F#4,35.0,1.0,79,108.0
210,C4,35.0,1.0,79,108.0
211,A3,35.0,1.0,79,108.0
212,A4,35.0,1.0,95,108.0
213,C4,35.0,1.0,95,108.0
214,F#3,35.0,1.0,95,108.0
215,D3,35.0,1.0,95,108.0
216,G4,36.0,1.0,79,108.0
217,D4,36.0,1.0,79,108.0
218,B-3,36.0,1.0,79,108.0
219,G3,36.0,1.0,79,108.0
220,G4,36.0,1.0,95,108.0
221,D4,36.0,1.0,95,108.0
222,B-3,36.0,1.0,95,108.0
223,D3,36.0,1.0,95,108.0
224,G2,36.0,1.0,95,108.0
225,E3,37.0,1.0,95,108.0
226,C#4,37.0,1.0,95,108.0
227,B-3,37.0,1.0,95,108.0
228,A4,38.0,1.0,79,108.0
229,F#4,38.0,1.0,79,108.0
230,C4,38.0,1.0,79,108.0
231,A3,38.0,1.0,79,108.0
232,D3,38.0,1.0,79,108.0
233,A4,38.0,1.5,95,108.0
234,C4,38.0,1.5,95,108.0
235,A3,38.0,1.5,95,108.0
236,F#3,38.0,2.0,95,108.0
237,A2,38.0,2.0,95,108.0
238,C#4,39.5,0.5,95,108.0
239,G2,40.0,1.0,95,108.0
240,G4,40.0,1.0,79,108.0
241,D4,40.0,1.0,79,108.0
242,B-3,40.0,1.0,79,108.0
243,G3,40.0,1.0,79,108.0
244,B-4,40.0,0.5,95,108.0
245,D4,40.0,0.5,95,108.0
246,C5,40.5,0.5,95,108.0
247,E-4,40.5,0.5,95,108.0
248,B-4,41.0,0.5,95,108.0
249,D4,41.0,0.5,95,108.0
250,G3,41.0,1.0,95,108.0
251,D3,41.0,1.0,95,108.0
252,A4,41.5,1.5,83,108.0
253,E4,41.5,1.5,83,108.0
254,C4,41.5,1.5,83,108.0
255,A3,41.5,1.5,83,108.0
256,A4,41.5,1.0,95,108.0
257,C4,41.5,1.0,95,108.0
258,D3,42.0,1.0,95,108.0
259,B-4,42.5,0.5,95,108.0
260,D4,42.5,0.5,95,108.0
261,A4,43.0,1.0,85,108.0
262,F#4,43.0,1.0,85,108.0
263,C4,43.0,1.0,85,108.0
264,A3,43.0,1.0,85,108.0
265,D3,43.0,1.0,85,108.0
266,A4,43.0,1.0,95,108.0
267,C4,43.0,1.0,95,108.0
268,F#3,43.0,1.0,95,108.0
269,D3,43.0,1.0,95,108.0
270,G4,44.0,1.0,79,108.0
271,D4,44.0,1.0,79,108.0
272,B-3,44.0,1.0,79,108.0
273,G3,44.0,1.0,79,108.0
274,G4,44.0,1.0,95,108.0
275,D4,44.0,1.0,95,108.0
276,B-3,44.0,1.0,95,108.0
277,D3,44.0,1.0,95,108.0
278,G2,44.0,1.0,95,108.0
279,E3,45.0,1.0,95,108.0
280,C#4,45.0,1.0,95,108.0
281,B-3,45.0,1.0,95,108.0
282,A4,46.0,1.0,79,108.0
283,F#4,46.0,1.0,79,108.0
284,C4,46.0,1.0,79,108.0
285,A3,46.0,1.0,79,108.0
286,D3,46.0,1.0,79,108.0
287,A4,46.0,1.5,95,108.0
288,C4,46.0,1.5,95,108.0
289,A3,46.0,1.5,95,108.0
290,F#3,46.0,2.0,95,108.0
291,A2,46.0,2.0,95,108.0
292,C#4,47.5,0.5,95,108.0
293,D3,47.5,0.5,111,108.0
294,G2,48.0,1.0,95,108.0
295,B-3,48.0,0.5,95,108.0
296,G4,48.0,1.0,79,108.0
297,D4,48.0,1.0,79,108.0
298,B-3,48.0,1.0,79,108.0
299,G3,48.0,1.0,79,108.0
300,B-4,48.0,0.5,95,108.0
301,D4,48.0,0.5,95,108.0
302,C4,48.5,0.5,95,108.0
303,C5,48.5,0.5,95,108.0
304,E-4,48.5,0.5,95,108.0
305,B-3,49.0,0.5,95,108.0
306,B-4,49.0,0.5,95,108.0
307,D4,49.0,0.5,95,108.0
308,G3,49.0,1.0,95,108.0
309,D3,49.0,1.0,95,108.0
310,A3,49.5,2.0,95,108.0
311,A4,49.5,0.5,79,108.0
312,E4,49.5,0.5,79,108.0
313,C4,49.5,0.5,79,108.0
314,A3,49.5,0.5,79,108.0
315,A4,49.5,1.5,95,108.0
316,C4,49.5,1.5,95,108.0
317,A2,50.0,1.0,95,108.0
318,D4,51.0,1.0,95,108.0
319,A3,51.0,39/40,83,108.0
320,C4,51.0,39/40,83,108.0
321,E4,51.0,39/40,83,108.0
322,A4,51.0,39/40,83,108.0
323,G3,51.0,1.0,95,108.0
324,E3,51.0,1.0,95,108.0
325,D3,51.5,0.5,111,108.0
326,A4,52.0,0.5,95,108.0
327,D3,52.0,1.0,95,108.0
328,A3,52.0,0.5,95,108.0
329,F#4,52.0,1.0,83,108.0
330,C4,52.0,1.0,83,108.0
331,A3,52.0,1.0,83,108.0
332,D3,52.0,1.0,83,108.0
333,B-4,52.5,0.5,95,108.0
334,B-3,52.5,0.5,95,108.0
335,A4,53.0,0.5,95,108.0
336,A3,53.0,0.5,95,108.0
337,F#3,53.0,1.0,95,108.0
338,D3,53.0,1.0,95,108.0
339,G4,53.5,2.0,95,108.0
340,G3,53.5,2.0,95,108.0
341,G4,53.5,0.5,79,108.0
342,D4,53.5,0.5,79,108.0
343,B3,53.5,0.5,79,108.0
344,F3,53.5,0.5,79,108.0
345,G2,54.0,1.0,95,108.0
346,F3,55.0,39/40,91,108.0
347,B3,55.0,39/40,91,108.0
348,D4,55.0,39/40,91,108.0
349,G4,55.0,39/40,91,108.0
350,F3,55.0,1.0,95,108.0
351,D3,55.0,1.0,95,108.0
352,D4,55.5,0.5,95,108.0
353,D3,55.5,0.5,111,108.0
354,G4,56.0,0.5,95,108.0
355,C3,56.0,1.0,95,108.0
356,G3,56.0,0.5,95,108.0
357,G4,56.0,1.0,79,108.0
358,E4,56.0,1.0,79,108.0
359,B-3,56.0,1.0,79,108.0
360,G3,56.0,1.0,79,108.0
361,C3,56.0,1.0,79,108.0
362,A4,56.5,0.5,95,108.0
363,A3,56.5,0.5,95,108.0
364,G4,57.0,0.5,95,108.0
365,G3,57.0,0.5,95,108.0
366,E3,57.0,1.0,95,108.0
367,C3,57.0,1.0,95,108.0
368,F4,57.5,1.5,95,108.0
369,F3,57.5,1.5,95,108.0
370,F2,58.0,1.0,95,108.0
371,F4,58.0,1.0,79,108.0
372,C4,58.0,1.0,79,108.0
373,A3,58.0,1.0,79,108.0
374,F3,58.0,1.0,79,108.0
375,F4,59.0,1.0,95,108.0
376,F3,59.0,1.0,111,108.0
377,F4,59.0,1.0,79,108.0
378,C#4,59.0,1.0,79,108.0
379,A3,59.0,1.0,79,108.0
380,E-3,59.0,1.0,79,108.0
381,E-3,59.0,1.0,95,108.0
382,F2,59.0,1.0,95,108.0
383,B-2,60.0,3.0,95,108.0
384,F3,60.0,3.0,95,108.0
385,F4,60.0,1.0,79,108.0
386,D4,60.0,1.0,79,108.0
387,B-3,60.0,1.0,79,108.0
388,F3,60.0,1.0,79,108.0
389,F4,60.0,1.0,95,108.0
390,D4,60.0,1.0,95,108.0
391,B-3,60.0,1.0,95,108.0
392,A3,61.0,1.0,95,108.0
393,G3,62.0,1.0,95,108.0
394,A2,63.0,1.0,95,108.0
395,D3,63.0,1.0,111,108.0
396,F#4,63.0,1.0,79,108.0
397,C4,63.0,1.0,79,108.0
398,A3,63.0,1.0,79,108.0
399,D3,63.0,1.0,79,108.0
400,D4,63.0,1.0,95,108.0
401,C4,63.0,1.0,95,108.0
402,F#3,63.0,1.0,95,108.0
403,B-4,64.0,0.5,95,108.0
404,G2,64.0,1.0,95,108.0
405,B-3,64.0,0.5,95,108.0
406,G4,64.0,1.0,79,108.0
407,D4,64.0,1.0,79,108.0
408,B-3,64.0,1.0,79,108.0
409,G3,64.0,1.0,79,108.0
410,C5,64.5,0.5,95,108.0
411,C4,64.5,0.5,95,108.0
412,B-4,65.0,0.5,95,108.0
413,B-3,65.0,0.5,95,108.0
414,G3,65.0,1.0,95,108.0
415,D3,65.0,1.0,95,108.0
416,A4,65.5,2.0,95,108.0
417,A3,65.5,2.0,95,108.0
418,E4,65.5,0.5,79,108.0
419,C#4,65.5,0.5,79,108.0
420,G3,65.5,0.5,79,108.0
421,E3,65.5,0.5,79,108.0
422,A2,66.0,1.0,95,108.0
423,G3,67.0,1.0,95,108.0
424,E3,67.0,1.0,95,108.0
425,D4,67.5,0.5,95,108.0
426,D3,67.5,0.5,111,108.0
427,A3,68.0,0.5,95,108.0
428,F#4,68.0,1.0,79,108.0
429,C4,68.0,1.0,79,108.0
430,A3,68.0,1.0,79,108.0
431,D3,68.0,1.0,79,108.0
432,A4,68.0,0.5,95,108.0
433,D3,68.0,0.5,95,108.0
434,D4,68.0,1.0,95,108.0
435,D3,68.0,1.0,95,108.0
436,B-4,68.5,0.5,95,108.0
437,B-3,68.5,0.5,95,108.0
438,A4,69.0,0.5,95,108.0
439,A3,69.0,0.5,95,108.0
440,F#3,69.0,1.0,95,108.0
441,D3,69.0,1.0,95,108.0
442,G4,69.5,2.5,95,108.0
443,B2,69.5,0.5,95,108.0
444,G3,69.5,1.5,95,108.0
445,G4,69.5,0.5,79,108.0
446,D4,69.5,0.5,79,108.0
447,B3,69.5,0.5,79,108.0
448,F3,69.5,0.5,79,108.0
449,G2,70.0,0.5,95,108.0
450,C#3,70.5,0.5,95,108.0
451,D3,71.0,1.0,95,108.0
452,D3,71.0,1.0,127,108.0
453,G4,71.0,1.0,79,108.0
454,D4,71.0,1.0,79,108.0
455,B3,71.0,1.0,79,108.0
456,F3,71.0,1.0,79,108.0
457,D3,72.0,0.5,111,108.0
458,G4,72.0,1.0,79,108.0
459,D4,72.0,1.0,79,108.0
460,B3,72.0,1.0,79,108.0
461,F3,72.0,1.0,79,108.0
462,D4,72.0,0.5,95,108.0
463,D3,72.0,0.5,95,108.0
464,B2,72.0,0.5,95,108.0
465,F3,72.0,1.5,95,108.0
466,D3,72.0,1.5,95,108.0
467,G2,72.0,1.5,95,108.0
468,E4,72.5,0.5,95,108.0
469,E3,72.5,0.5,111,108.0
470,F4,73.0,0.5,95,108.0
471,F3,73.0,0.5,111,108.0
472,A4,73.5,1.5,95,108.0
473,C3,73.5,1.5,95,108.0
474,A3,73.5,1.5,111,108.0
475,A4,73.5,0.5,79,108.0
476,D4,73.5,0.5,79,108.0
477,B-3,73.5,0.5,79,108.0
478,E3,73.5,0.5,79,108.0
479,C3,73.5,0.5,79,108.0
480,A4,75.0,1.0,95,108.0
481,C3,75.0,1.0,95,108.0
482,A3,75.0,1.0,111,108.0
483,A4,75.0,1.0,79,108.0
484,D4,75.0,1.0,79,108.0
485,B-3,75.0,1.0,79,108.0
486,E3,75.0,1.0,79,108.0
487,F4,76.0,1.0,95,108.0
488,F2,76.0,1.0,95,108.0
489,F3,76.0,4.0,127,108.0
490,F4,76.0,1.0,79,108.0
491,C4,76.0,1.0,79,108.0
492,A3,76.0,1.0,79,108.0
493,E-3,76.0,1.0,79,108.0
494,G3,77.0,1.0,95,108.0
495,E-4,77.0,1.0,95,108.0
496,A3,77.0,1.0,95,108.0
497,D3,78.0,1.0,95,108.0
498,G#4,78.0,1.0,79,108.0
499,D4,78.0,1.0,79,108.0
500,B3,78.0,1.0,79,108.0
501,F3,78.0,1.0,79,108.0
502,B3,78.0,1.0,95,108.0
503,G#3,78.0,1.0,95,108.0
504,E-3,79.0,1.0,95,108.0
505,F4,79.0,1.0,79,108.0
506,C4,79.0,1.0,79,108.0
507,A3,79.0,1.0,79,108.0
508,E-3,79.0,1.0,79,108.0
509,C4,79.0,1.0,95,108.0
510,A3,79.0,1.0,95,108.0
511,D4,80.0,0.5,95,108.0
512,B-2,80.0,1.0,95,108.0
513,D4,80.0,0.5,95,108.0
514,F4,80.0,1.0,79,108.0
515,D4,80.0,1.0,79,108.0
516,B-3,80.0,1.0,79,108.0
517,F3,80.0,1.0,79,108.0
518,E-4,80.5,0.5,95,108.0
519,E-4,80.5,0.5,95,108.0
520,E4,81.0,0.5,95,108.0
521,F3,81.0,1.0,95,108.0
522,E4,81.0,0.5,95,108.0
523,F4,81.5,0.5,95,108.0
524,B-4,81.5,0.5,71,108.0
525,F4,81.5,0.5,71,108.0
526,D5,82.0,0.5,95,108.0
527,B-3,82.0,1.0,95,108.0
528,D5,82.0,0.5,95,108.0
529,F4,82.0,1.0,79,108.0
530,D4,82.0,1.0,79,108.0
531,B-3,82.0,1.0,79,108.0
532,F3,82.0,1.0,79,108.0
533,D5,82.5,1.0,95,108.0
534,D5,82.5,1.0,95,108.0
535,A3,83.0,1.0,95,108.0
536,C#5,83.5,0.5,95,108.0
537,C#5,83.5,0.5,95,108.0
538,C5,84.0,2.0,95,108.0
539,C5,84.0,2.0,95,108.0
540,F4,84.0,1.0,83,108.0
541,D4,84.0,1.0,83,108.0
542,G#3,84.0,1.0,83,108.0
543,F3,84.0,1.0,83,108.0
544,G#3,84.0,1.0,95,108.0
545,B-2,84.0,1.0,95,108.0
546,B-2,85.0,1.0,95,108.0
547,D5,86.0,0.5,95,108.0
548,D5,86.0,0.5,95,108.0
549,F4,86.0,1.0,83,108.0
550,D4,86.0,1.0,83,108.0
551,G#3,86.0,1.0,83,108.0
552,F3,86.0,1.0,83,108.0
553,G#3,86.0,2.0,95,108.0
554,B-2,86.0,2.0,95,108.0
555,D5,86.5,1.0,95,108.0
556,D5,86.5,1.0,95,108.0
557,C#5,87.5,0.5,95,108.0
558,C#5,87.5,0.5,95,108.0
559,C5,88.0,2.0,95,108.0
560,C5,88.0,2.0,95,108.0
561,G4,88.0,1.0,79,108.0
562,C4,88.0,1.0,79,108.0
563,B-3,88.0,1.0,79,108.0
564,E-3,88.0,1.0,79,108.0
565,G3,88.0,1.0,95,108.0
566,B-2,88.0,1.0,95,108.0
567,B-2,89.0,1.0,95,108.0
568,D5,90.0,0.5,95,108.0
569,D5,90.0,0.5,95,108.0
570,B-4,90.0,1.0,83,108.0
571,G4,90.0,1.0,83,108.0
572,D4,90.0,1.0,83,108.0
573,B-3,90.0,1.0,83,108.0
574,G3,90.0,2.0,95,108.0
575,B-2,90.0,2.0,95,108.0
576,D5,90.5,1.0,95,108.0
577,D5,90.5,1.0,95,108.0
578,C#5,91.5,0.5,95,108.0
579,C#5,91.5,0.5,95,108.0
580,C5,92.0,4.0,95,108.0
581,F#4,92.0,1.0,79,108.0
582,C4,92.0,1.0,79,108.0
583,B-3,92.0,1.0,79,108.0
584,E-3,92.0,1.0,79,108.0
585,C5,92.0,4.0,95,108.0
586,F#4,92.0,4.0,95,108.0
587,E-4,92.0,4.0,95,108.0
588,F#3,92.0,1.0,95,108.0
589,B-2,92.0,1.0,95,108.0
590,B-2,93.0,1.0,95,108.0
591,B-2,94.0,0.5,95,108.0
592,C3,94.5,0.5,95,108.0
593,B-2,95.0,1.0,95,108.0
594,D4,96.0,0.5,95,108.0
595,B-2,96.0,2.0,95,108.0
596,D3,96.0,0.5,127,108.0
597,F4,96.0,1.0,79,108.0
598,D4,96.0,1.0,79,108.0
599,B-3,96.0,1.0,79,108.0
600,F3,96.0,1.0,79,108.0
601,E-4,96.5,0.5,95,108.0
602,E-3,96.5,0.5,111,108.0
603,E4,97.0,0.5,95,108.0
604,E3,97.0,0.5,111,108.0
605,F4,97.5,0.5,95,108.0
606,F3,97.5,1.0,111,108.0
607,A4,98.0,0.5,95,108.0
608,F3,98.0,1.0,95,108.0
609,A3,98.0,0.5,111,108.0
610,F4,98.0,1.0,83,108.0
611,C4,98.0,1.0,83,108.0
612,A3,98.0,1.0,83,108.0
613,F3,98.0,1.0,83,108.0
614,A4,98.5,1.0,95,108.0
615,A3,98.5,1.0,111,108.0
616,E-3,99.0,1.0,95,108.0
617,G#4,99.5,0.5,95,108.0
618,G#3,99.5,0.5,111,108.0
619,G4,100.0,2.0,95,108.0
620,E-3,100.0,1.0,95,108.0
621,G3,100.0,2.0,127,108.0
622,G4,100.0,1.0,79,108.0
623,E-4,100.0,1.0,79,108.0
624,A3,100.0,1.0,79,108.0
625,F3,100.0,1.0,79,108.0
626,F2,101.0,1.0,95,108.0
627,A4,102.0,0.5,95,108.0
628,A3,102.0,0.5,95,108.0
629,F4,102.0,1.0,79,108.0
630,C#4,102.0,1.0,79,108.0
631,A3,102.0,1.0,79,108.0
632,E-3,102.0,1.0,79,108.0
633,E-3,102.0,2.0,95,108.0
634,F2,102.0,2.0,95,108.0
635,A4,102.5,1.0,95,108.0
636,A3,102.5,1.0,95,108.0
637,G#4,103.5,0.5,95,108.0
638,G#3,103.5,0.5,95,108.0
639,B-2,104.0,2.0,95,108.0
640,G3,104.0,4.0,95,108.0
641,F4,104.0,1.0,79,108.0
642,D4,104.0,1.0,79,108.0
643,B-3,104.0,1.0,79,108.0
644,F3,104.0,1.0,79,108.0
645,G4,104.0,1.0,95,108.0
646,F4,104.0,1.0,95,108.0
647,B-3,104.0,1.0,95,108.0
648,F4,105.0,1.0,95,108.0
649,B-3,105.0,1.0,95,108.0
650,C#3,106.0,2.0,95,108.0
651,G4,106.0,1.0,79,108.0
652,C#4,106.0,1.0,79,108.0
653,B-3,106.0,1.0,79,108.0
654,E3,106.0,1.0,79,108.0
655,E4,106.0,1.0,95,108.0
656,B-3,106.0,1.0,95,108.0
657,E4,107.0,1.0,95,108.0
658,B-3,107.0,1.0,95,108.0
659,C3,108.0,1.0,95,108.0
660,G3,108.0,1.0,95,108.0
661,G4,108.0,1.0,79,108.0
662,E-4,108.0,1.0,79,108.0
663,B-3,108.0,1.0,79,108.0
664,G3,108.0,1.0,79,108.0
665,E-4,108.0,1.0,95,108.0
666,B-3,108.0,1.0,95,108.0
667,F2,109.0,1.0,95,108.0
668,F4,109.0,1.0,79,108.0
669,C4,109.0,1.0,79,108.0
670,A3,109.0,1.0,79,108.0
671,D3,109.0,1.0,79,108.0
672,F4,109.0,1.0,95,108.0
673,D4,109.0,1.0,95,108.0
674,A3,109.0,1.0,95,108.0
675,G2,110.0,1.0,95,108.0
676,G4,110.0,1.0,79,108.0
677,C#4,110.0,1.0,79,108.0
678,B-3,110.0,1.0,79,108.0
679,E3,110.0,1.0,79,108.0
680,E4,110.0,1.0,95,108.0
681,C#4,110.0,1.0,95,108.0
682,G3,110.0,1.0,95,108.0
683,A2,111.0,1.0,95,108.0
684,F#4,111.0,1.0,79,108.0
685,C4,111.0,1.0,79,108.0
686,A3,111.0,1.0,79,108.0
687,E-3,111.0,1.0,79,108.0
688,E-4,111.0,1.0,95,108.0
689,C4,111.0,1.0,95,108.0
690,F#3,111.0,1.0,95,108.0
691,D4,112.0,0.5,95,108.0
692,B-2,112.0,1.0,95,108.0
693,D3,112.0,0.5,95,108.0
694,F4,112.0,1.0,79,108.0
695,D4,112.0,1.0,79,108.0
696,B-3,112.0,1.0,79,108.0
697,F3,112.0,1.0,79,108.0
698,E-4,112.5,0.5,95,108.0
699,E-3,112.5,0.5,95,108.0
700,E4,113.0,0.5,95,108.0
701,F3,113.0,1.0,95,108.0
702,E3,113.0,0.5,95,108.0
703,F4,113.5,0.5,95,108.0
704,F3,113.5,1.0,95,108.0
705,D5,114.0,0.5,95,108.0
706,B-3,114.0,1.0,95,108.0
707,D4,114.0,0.5,95,108.0
708,F4,114.0,1.0,79,108.0
709,D4,114.0,1.0,79,108.0
710,B-3,114.0,1.0,79,108.0
711,F3,114.0,1.0,79,108.0
712,D5,114.5,1.0,95,108.0
713,D4,114.5,1.0,95,108.0
714,A3,115.0,1.0,95,108.0
715,C#5,115.5,0.5,95,108.0
716,C#4,115.5,0.5,95,108.0
717,C5,116.0,2.0,95,108.0
718,C4,116.0,2.0,95,108.0
719,F4,116.0,1.0,79,108.0
720,D4,116.0,1.0,79,108.0
721,G#3,116.0,1.0,79,108.0
722,F3,116.0,1.0,79,108.0
723,G#3,116.0,1.0,95,108.0
724,B-2,116.0,1.0,95,108.0
725,B-2,117.0,1.0,95,108.0
726,D5,118.0,0.5,95,108.0
727,D4,118.0,0.5,95,108.0
728,F4,118.0,1.0,79,108.0
729,D4,118.0,1.0,79,108.0
730,G#3,118.0,1.0,79,108.0
731,F3,118.0,1.0,79,108.0
732,B-2,118.0,1.0,79,108.0
733,G#3,118.0,2.0,95,108.0
734,B-2,118.0,2.0,95,108.0
735,D5,118.5,1.0,95,108.0
736,D4,118.5,1.0,95,108.0
737,C#5,119.5,0.5,95,108.0
738,C#4,119.5,0.5,95,108.0
739,C5,120.0,2.0,95,108.0
740,C4,120.0,2.0,95,108.0
741,E-4,120.0,1.0,79,108.0
742,C4,120.0,1.0,79,108.0
743,G3,120.0,1.0,79,108.0
744,E-3,120.0,1.0,79,108.0
745,B-2,120.0,1.0,79,108.0
746,G3,120.0,1.0,95,108.0
747,B-2,120.0,1.0,95,108.0
748,B-2,121.0,1.0,95,108.0
749,D5,122.0,0.5,95,108.0
750,D4,122.0,0.5,95,108.0
751,B-4,122.0,1.0,79,108.0
752,G4,122.0,1.0,79,108.0
753,D4,122.0,1.0,79,108.0
754,B-3,122.0,1.0,79,108.0
755,G3,122.0,2.0,95,108.0
756,B-2,122.0,2.0,95,108.0
757,D5,122.5,1.0,95,108.0
758,D4,122.5,1.0,95,108.0
759,C#5,123.5,0.5,95,108.0
760,C#4,123.5,0.5,95,108.0
761,C4,124.0,4.0,95,108.0
762,F#4,124.0,1.0,79,108.0
763,C4,124.0,1.0,79,108.0
764,B-3,124.0,1.0,79,108.0
765,E-3,124.0,1.0,79,108.0
766,C5,124.0,4.0,95,108.0
767,F#4,124.0,4.0,95,108.0
768,E-4,124.0,4.0,95,108.0
769,F#3,124.0,1.0,95,108.0
770,B-2,124.0,1.0,95,108.0
771,B-2,125.0,1.0,95,108.0
772,B-2,126.0,0.5,95,108.0
773,C3,126.5,0.5,95,108.0
774,B-2,127.0,1.0,95,108.0
775,D4,128.0,0.5,95,108.0
776,B-2,128.0,2.0,95,108.0
777,D3,128.0,0.5,95,108.0
778,C4,128.0,0.5,95,108.0
779,F4,128.0,1.0,79,108.0
780,D4,128.0,1.0,79,108.0
781,B-3,128.0,1.0,79,108.0
782,F3,128.0,1.0,79,108.0
783,E-4,128.5,0.5,95,108.0
784,E-3,128.5,0.5,95,108.0
785,E4,129.0,0.5,95,108.0
786,E3,129.0,0.5,95,108.0
787,F4,129.5,0.5,95,108.0
788,F3,129.5,1.0,95,108.0
789,A4,130.0,0.5,95,108.0
790,F3,130.0,1.0,95,108.0
791,A3,130.0,0.5,95,108.0
792,G4,130.0,1.0,79,108.0
793,C#4,130.0,1.0,79,108.0
794,B-3,130.0,1.0,79,108.0
795,E3,130.0,1.0,79,108.0
796,A4,130.5,1.0,95,108.0
797,A3,130.5,1.0,95,108.0
798,E3,131.0,1.0,95,108.0
799,G#4,131.5,0.5,95,108.0
800,G#3,131.5,0.5,95,108.0
801,G4,132.0,2.0,95,108.0
802,E-3,132.0,2.0,95,108.0
803,G3,132.0,2.0,95,108.0
804,G4,132.0,1.0,79,108.0
805,C4,132.0,1.0,79,108.0
806,B-3,132.0,1.0,79,108.0
807,E-3,132.0,1.0,79,108.0
808,G4,134.0,0.5,95,108.0
809,G3,134.0,1.0,95,108.0
810,G3,134.0,0.5,95,108.0
811,F4,134.0,1.0,79,108.0
812,C#4,134.0,1.0,79,108.0
813,A3,134.0,1.0,79,108.0
814,E-3,134.0,1.0,79,108.0
815,F4,134.5,0.5,95,108.0
816,F3,134.5,1.5,95,108.0
817,G4,135.0,1.0,95,108.0
818,G3,135.0,1.0,95,108.0
819,E-3,135.0,1.0,95,108.0
820,F2,135.0,1.0,95,108.0
821,B-3,136.0,4.0,95,108.0
822,F4,136.0,4.0,79,108.0
823,D4,136.0,4.0,79,108.0
824,B-3,136.0,4.0,79,108.0
825,F3,136.0,4.0,79,108.0
826,B-4,136.0,0.5,95,108.0
827,D4,136.0,0.5,95,108.0
828,F3,136.0,0.5,95,108.0
829,B-2,136.0,0.5,95,108.0
830,E-4,136.5,0.5,95,108.0
831,G3,136.5,0.5,95,108.0
832,D4,137.0,0.5,95,108.0
833,F3,137.0,0.5,95,108.0
834,E-4,137.5,0.5,95,108.0
835,G3,137.5,0.5,95,108.0
836,F4,138.0,0.5,95,108.0
837,A3,138.0,0.5,95,108.0
838,E-4,138.5,1.0,95,108.0
839,G3,138.5,1.0,95,108.0
840,D4,139.5,0.5,95,108.0
841,F3,139.5,0.5,95,108.0
842,D4,140.0,1.0,95,108.0
843,F3,140.0,1.0,95,108.0
844,B-3,140.0,1.0,95,108.0
845,B-3,141.0,1.0,95,108.0
846,F4,141.0,1.0,79,108.0
847,D4,141.0,1.0,79,108.0
848,B-3,141.0,1.0,79,108.0
849,F3,141.0,1.0,79,108.0
850,B-4,141.0,1.0,95,108.0
851,F4,141.0,1.0,95,108.0
852,D4,141.0,1.0,95,108.0
853,A3,142.0,1.0,95,108.0
854,F4,142.0,1.0,95,108.0
855,D4,142.0,1.0,95,108.0
856,B-3,142.0,1.0,95,108.0
857,F3,142.0,1.0,95,108.0
858,C5,142.0,1.0,95,108.0
859,G4,142.0,1.0,95,108.0
860,E-4,142.0,1.0,95,108.0
861,G3,143.0,1.0,95,108.0
862,G4,143.0,1.0,95,108.0
863,E-4,143.0,1.0,95,108.0
864,C4,143.0,1.0,95,108.0
865,G3,143.0,1.0,95,108.0
866,E4,143.0,1.0,95,108.0
867,C5,143.0,1.0,95,108.0
868,C5,143.0,1.0,95,108.0
869,D5,144.0,0.5,95,108.0
870,D5,144.0,0.5,95,108.0
871,G4,144.0,1.0,95,108.0
872,E4,144.0,1.0,95,108.0
873,C4,144.0,1.0,95,108.0
874,G3,144.0,1.0,95,108.0
875,D4,144.0,1.0,95,108.0
876,D3,144.0,1.0,95,108.0
877,E5,144.5,0.5,95,108.0
878,E5,144.5,0.5,95,108.0
879,D5,145.0,0.5,95,108.0
880,D5,145.0,0.5,95,108.0
881,F4,145.0,1.0,79,108.0
882,D4,145.0,1.0,79,108.0
883,A3,145.0,1.0,79,108.0
884,D3,145.0,1.0,79,108.0
885,F4,145.0,1.0,95,108.0
886,D4,145.0,1.0,95,108.0
887,A3,145.0,1.0,95,108.0
888,F3,145.0,1.0,95,108.0
889,E5,145.5,0.5,95,108.0
890,E5,145.5,0.5,95,108.0
891,D5,146.0,1.0,95,108.0
892,D3,146.0,1.0,95,108.0
893,D5,146.0,1.0,95,108.0
894,A4,147.0,1.0,95,108.0
895,F3,147.0,1.0,95,108.0
896,A4,147.0,1.0,95,108.0
897,F4,147.0,1.0,79,108.0
898,D4,147.0,1.0,79,108.0
899,A3,147.0,1.0,79,108.0
900,D3,147.0,1.0,79,108.0
901,E3,148.0,2.0,95,108.0
902,B-4,148.0,1.0,95,108.0
903,E5,148.0,1.0,95,108.0
904,B-4,148.0,1.0,95,108.0
905,G#4,148.0,1.0,95,108.0
906,D4,148.0,1.0,95,108.0
907,B-4,149.0,2.0,95,108.0
908,B-4,149.0,3.0,95,108.0
909,G#4,149.0,3.0,79,108.0
910,D4,149.0,3.0,79,108.0
911,B-3,149.0,3.0,79,108.0
912,E3,149.0,3.0,79,108.0
913,G#4,149.0,1.0,95,108.0
914,D4,149.0,1.0,95,108.0
915,A2,150.0,2.0,95,108.0
916,B-4,151.0,1.0,95,108.0
917,G4,151.0,1.0,95,108.0
918,C#4,151.0,1.0,95,108.0
919,D3,152.0,1.0,95,108.0
920,A3,152.0,0.5,95,108.0
921,B-4,152.0,1.0,79,108.0
922,G4,152.0,1.0,79,108.0
923,C#4,152.0,1.0,79,108.0
924,A3,152.0,1.0,79,108.0
925,A4,152.0,0.5,95,108.0
926,F4,152.0,0.5,95,108.0
927,B-3,152.5,0.5,95,108.0
928,B-4,152.5,0.5,95,108.0
929,G4,152.5,0.5,95,108.0
930,A3,153.0,0.5,95,108.0
931,A4,153.0,1.0,79,108.0
932,F4,153.0,1.0,79,108.0
933,D4,153.0,1.0,79,108.0
934,A3,153.0,1.0,79,108.0
935,A4,153.0,0.5,95,108.0
936,F4,153.0,0.5,95,108.0
937,F4,153.0,1.0,95,108.0
938,D4,153.0,1.0,95,108.0
939,A3,153.0,1.0,95,108.0
940,F3,153.0,1.0,95,108.0
941,B-3,153.5,0.5,95,108.0
942,B-4,153.5,0.5,95,108.0
943,G4,153.5,0.5,95,108.0
944,D3,154.0,1.0,95,108.0
945,A3,154.0,2.0,95,108.0
946,A4,154.0,1.0,95,108.0
947,F4,154.0,1.0,95,108.0
948,F3,155.0,1.0,95,108.0
949,A4,155.0,1.0,79,108.0
950,F4,155.0,1.0,79,108.0
951,D4,155.0,1.0,79,108.0
952,A3,155.0,1.0,79,108.0
953,F4,155.0,1.0,95,108.0
954,D4,155.0,1.0,95,108.0
955,A3,155.0,1.0,95,108.0
956,D4,155.0,1.0,95,108.0
957,D3,155.0,1.0,95,108.0
958,E3,156.0,4.0,95,108.0
959,E4,156.0,1.0,95,108.0
960,B3,156.0,1.0,95,108.0
961,G3,156.0,1.0,95,108.0
962,C#4,156.0,2.0,95,108.0
963,A3,156.0,2.0,95,108.0
964,E3,156.0,2.0,95,108.0
965,A2,156.0,2.0,95,108.0
966,A3,157.0,1.0,79,108.0
967,A4,157.0,4.0,79,108.0
968,E4,157.0,4.0,79,108.0
969,C#4,157.0,4.0,79,108.0
970,C#4,157.0,1.0,95,108.0
971,A3,157.0,1.0,95,108.0
972,A2,158.0,2.0,95,108.0
973,B3,158.0,1.0,95,108.0
974,G3,158.0,1.0,95,108.0
975,C#4,159.0,1.0,95,108.0
976,A3,159.0,1.0,95,108.0
977,D5,160.0,0.5,95,108.0
978,F3,160.0,1.0,95,108.0
979,D5,160.0,0.5,95,108.0
980,E5,160.5,0.5,95,108.0
981,E5,160.5,0.5,95,108.0
982,D5,161.0,0.5,95,108.0
983,D5,161.0,0.5,95,108.0
984,A4,161.0,2.0,79,108.0
985,F4,161.0,2.0,79,108.0
986,D4,161.0,2.0,79,108.0
987,A3,161.0,2.0,79,108.0
988,F4,161.0,1.0,95,108.0
989,D4,161.0,1.0,95,108.0
990,A3,161.0,1.0,95,108.0
991,F3,161.0,1.0,95,108.0
992,E5,161.5,0.5,95,108.0
993,E5,161.5,0.5,95,108.0
994,D5,162.0,1.0,95,108.0
995,D3,162.0,1.0,95,108.0
996,D5,162.0,1.0,95,108.0
997,A4,163.0,1.0,95,108.0
998,F3,163.0,1.0,95,108.0
999,A4,163.0,1.0,95,108.0
1000,A4,163.0,1.0,79,108.0
1001,F4,163.0,1.0,79,108.0
1002,D4,163.0,1.0,79,108.0
1003,A3,163.0,1.0,79,108.0
1004,B-4,164.0,1.0,95,108.0
1005,E3,164.0,2.0,95,108.0
1006,B-4,164.0,1.0,95,108.0
1007,B-4,165.0,2.0,95,108.0
1008,B-4,165.0,3.0,95,108.0
1009,G#4,165.0,1.0,79,108.0
1010,D4,165.0,1.0,79,108.0
1011,B-3,165.0,1.0,79,108.0
1012,E3,165.0,1.0,79,108.0
1013,A2,166.0,2.0,95,108.0
1014,G3,167.0,1.0,95,108.0
1015,A4,168.0,0.5,95,108.0
1016,D3,168.0,1.0,95,108.0
1017,A3,168.0,0.5,95,108.0
1018,B-4,168.0,1.0,79,108.0
1019,G4,168.0,1.0,79,108.0
1020,C#4,168.0,1.0,79,108.0
1021,A3,168.0,1.0,79,108.0
1022,B-4,168.5,0.5,95,108.0
1023,B-3,168.5,0.5,95,108.0
1024,A4,169.0,0.5,95,108.0
1025,A3,169.0,0.5,95,108.0
1026,A4,169.0,1.0,79,108.0
1027,F4,169.0,1.0,79,108.0
1028,D4,169.0,1.0,79,108.0
1029,A3,169.0,1.0,79,108.0
1030,A3,169.0,1.0,95,108.0
1031,F3,169.0,1.0,95,108.0
1032,D3,169.0,1.0,95,108.0
1033,B-4,169.5,0.5,95,108.0
1034,B-3,169.5,0.5,95,108.0
1035,A4,170.0,1.0,95,108.0
1036,D3,170.0,1.0,95,108.0
1037,A3,170.0,1.0,95,108.0
1038,A4,170.0,0.5,79,108.0
1039,F4,170.0,0.5,79,108.0
1040,D4,170.0,0.5,79,108.0
1041,A3,170.0,0.5,79,108.0
1042,F4,171.0,1.0,95,108.0
1043,F3,171.0,1.0,95,108.0
1044,A4,171.0,1.0,79,108.0
1045,F4,171.0,1.0,79,108.0
1046,D4,171.0,1.0,79,108.0
1047,A3,171.0,1.0,79,108.0
1048,D4,171.0,1.0,95,108.0
1049,D3,171.0,1.0,95,108.0
1050,C3,172.0,2.0,95,108.0
1051,E-3,172.0,4.0,95,108.0
1052,A4,172.0,1.0,79,108.0
1053,F4,172.0,1.0,79,108.0
1054,D4,172.0,1.0,79,108.0
1055,A3,172.0,1.0,79,108.0
1056,E-4,172.0,1.0,95,108.0
1057,B-3,172.0,1.0,95,108.0
1058,G3,172.0,1.0,95,108.0
1059,G4,173.0,1.0,79,108.0
1060,E-4,173.0,1.0,79,108.0
1061,B-3,173.0,1.0,79,108.0
1062,C3,173.0,1.0,79,108.0
1063,C4,173.0,1.0,95,108.0
1064,A3,173.0,1.0,95,108.0
1065,F2,174.0,2.0,95,108.0
1066,G3,174.0,1.0,95,108.0
1067,B-3,174.0,1.0,95,108.0
1068,G4,175.0,1.0,79,108.0
1069,E-4,175.0,1.0,79,108.0
1070,B-3,175.0,1.0,79,108.0
1071,F3,175.0,1.0,79,108.0
1072,A3,175.0,1.0,95,108.0
1073,F3,175.0,1.0,95,108.0
1074,D4,176.0,0.5,95,108.0
1075,B-2,176.0,1.0,95,108.0
1076,D4,176.0,0.5,95,108.0
1077,E-4,176.5,0.5,95,108.0
1078,E-4,176.5,0.5,95,108.0
1079,E4,177.0,0.5,95,108.0
1080,F3,177.0,1.0,95,108.0
1081,E4,177.0,0.5,95,108.0
1082,F4,177.0,1.0,79,108.0
1083,D4,177.0,1.0,79,108.0
1084,B-3,177.0,1.0,79,108.0
1085,F3,177.0,1.0,79,108.0
1086,F4,177.5,0.5,95,108.0
1087,F4,177.5,0.5,95,108.0
1088,D5,178.0,0.5,95,108.0
1089,B-3,178.0,1.0,95,108.0
1090,D5,178.0,0.5,95,108.0
1091,D5,178.5,1.0,95,108.0
1092,D5,178.5,1.0,95,108.0
1093,A3,179.0,1.0,95,108.0
1094,F4,179.0,1.0,79,108.0
1095,D4,179.0,1.0,79,108.0
1096,B-3,179.0,1.0,79,108.0
1097,F3,179.0,1.0,79,108.0
1098,C#5,179.5,0.5,95,108.0
1099,C#5,179.5,0.5,95,108.0
1100,C5,180.0,2.0,95,108.0
1101,C5,180.0,2.0,95,108.0
1102,G#3,180.0,1.0,95,108.0
1103,B-2,180.0,1.0,95,108.0
1104,B-2,181.0,1.0,95,108.0
1105,F4,181.0,1.0,79,108.0
1106,D4,181.0,1.0,79,108.0
1107,G#3,181.0,1.0,79,108.0
1108,B-2,181.0,1.0,79,108.0
1109,D5,182.0,0.5,95,108.0
1110,D5,182.0,0.5,95,108.0
1111,G#3,182.0,2.0,95,108.0
1112,B-2,182.0,2.0,95,108.0
1113,D5,182.5,1.0,95,108.0
1114,D5,182.5,1.0,95,108.0
1115,F4,183.0,1.0,79,108.0
1116,D4,183.0,1.0,79,108.0
1117,G#3,183.0,1.0,79,108.0
1118,B-2,183.0,1.0,79,108.0
1119,C#5,183.5,0.5,95,108.0
1120,C#5,183.5,0.5,95,108.0
1121,C5,184.0,2.0,95,108.0
1122,C5,184.0,2.0,95,108.0
1123,G3,184.0,1.0,95,108.0
1124,B-2,184.0,1.0,95,108.0
1125,B-2,185.0,1.0,95,108.0
1126,E-4,185.0,1.0,79,108.0
1127,C4,185.0,1.0,79,108.0
1128,G3,185.0,1.0,79,108.0
1129,E-3,185.0,1.0,79,108.0
1130,B-2,185.0,1.0,79,108.0
1131,D5,186.0,0.5,95,108.0
1132,D5,186.0,0.5,95,108.0
1133,G3,186.0,2.0,95,108.0
1134,B-2,186.0,2.0,95,108.0
1135,D5,186.5,1.0,95,108.0
1136,D5,186.5,1.0,95,108.0
1137,B-4,187.0,1.0,79,108.0
1138,G4,187.0,1.0,79,108.0
1139,D4,187.0,1.0,79,108.0
1140,B-3,187.0,1.0,79,108.0
1141,C#5,187.5,0.5,95,108.0
1142,C#5,187.5,0.5,95,108.0
1143,C5,188.0,4.0,95,108.0
1144,C5,188.0,4.0,83,108.0
1145,F#4,188.0,4.0,83,108.0
1146,E-4,188.0,4.0,83,108.0
1147,A3,188.0,4.0,83,108.0
1148,F#3,188.0,1.0,95,108.0
1149,B-2,188.0,1.0,95,108.0
1150,B-2,189.0,1.0,95,108.0
1151,F#4,189.0,1.0,79,108.0
1152,C4,189.0,1.0,79,108.0
1153,A3,189.0,1.0,79,108.0
1154,E-3,189.0,1.0,79,108.0
1155,B-2,190.0,0.5,95,108.0
1156,C3,190.5,0.5,95,108.0
1157,B-2,191.0,1.0,95,108.0
1158,D4,192.0,0.5,95,108.0
1159,B-2,192.0,2.0,95,108.0
1160,D3,192.0,0.5,95,108.0
1161,E-4,192.5,0.5,95,108.0
1162,E-3,192.5,0.5,95,108.0
1163,E4,193.0,0.5,95,108.0
1164,E3,193.0,0.5,95,108.0
1165,F4,193.0,1.0,79,108.0
1166,D4,193.0,1.0,79,108.0
1167,B-3,193.0,1.0,79,108.0
1168,F3,193.0,1.0,79,108.0
1169,F4,193.5,0.5,95,108.0
1170,F3,193.5,0.5,95,108.0
1171,A4,194.0,0.5,95,108.0
1172,F3,194.0,1.0,95,108.0
1173,A3,194.0,0.5,95,108.0
1174,A4,194.5,1.0,95,108.0
1175,A3,194.5,1.0,95,108.0
1176,E3,195.0,1.0,95,108.0
1177,F4,195.0,0.5,79,108.0
1178,D4,195.0,0.5,79,108.0
1179,B-3,195.0,0.5,79,108.0
1180,F3,195.0,0.5,79,108.0
1181,G#4,195.5,0.5,95,108.0
1182,G#3,195.5,0.5,95,108.0
1183,G4,196.0,2.0,95,108.0
1184,E-3,196.0,2.0,95,108.0
1185,G3,196.0,2.0,95,108.0
1186,G4,197.0,1.0,79,108.0
1187,E-4,197.0,1.0,79,108.0
1188,A3,197.0,1.0,79,108.0
1189,F3,197.0,1.0,79,108.0
1190,G4,198.0,0.5,95,108.0
1191,G3,198.0,1.0,95,108.0
1192,G3,198.0,0.5,95,108.0
1193,F4,198.5,0.5,95,108.0
1194,F3,198.5,0.5,95,108.0
1195,G4,199.0,1.0,95,108.0
1196,G3,199.0,1.0,95,108.0
1197,G4,199.0,1.0,79,108.0
1198,E-4,199.0,1.0,79,108.0
1199,A3,199.0,1.0,79,108.0
1200,F3,199.0,1.0,79,108.0
1201,E-3,199.0,1.0,95,108.0
1202,F2,199.0,1.0,95,108.0
1203,B-2,200.0,2.0,95,108.0
1204,B-3,200.0,4.0,95,108.0
1205,B-4,200.0,0.5,95,108.0
1206,D4,200.0,0.5,95,108.0
1207,E-4,200.5,0.5,95,108.0
1208,E4,201.0,0.5,95,108.0
1209,F4,201.0,1.0,79,108.0
1210,D4,201.0,1.0,79,108.0
1211,B-3,201.0,1.0,79,108.0
1212,F3,201.0,1.0,79,108.0
1213,F4,201.5,0.5,95,108.0
1214,A4,202.0,0.5,95,108.0
1215,E4,202.0,0.5,95,108.0
1216,B-3,202.0,2.0,95,108.0
1217,C#3,202.0,2.0,95,108.0
1218,G4,202.5,1.0,95,108.0
1219,G4,203.0,1.0,79,108.0
1220,C#4,203.0,1.0,79,108.0
1221,B-3,203.0,1.0,79,108.0
1222,E3,203.0,1.0,79,108.0
1223,B-4,203.5,0.5,95,108.0
1224,B-3,204.0,1.0,95,108.0
1225,D5,204.0,1.0,95,108.0
1226,B-4,204.0,1.0,95,108.0
1227,E4,204.0,1.0,95,108.0
1228,B-3,204.0,2.0,95,108.0
1229,G3,204.0,2.0,95,108.0
1230,C3,204.0,2.0,95,108.0
1231,G4,205.0,1.0,79,108.0
1232,E4,205.0,1.0,79,108.0
1233,B-3,205.0,1.0,79,108.0
1234,G3,205.0,1.0,79,108.0
1235,C5,205.0,1.0,95,108.0
1236,B-4,205.0,1.0,95,108.0
1237,E4,205.0,1.0,95,108.0
1238,C3,206.0,1.0,95,108.0
1239,G4,206.0,1.0,95,108.0
1240,E-4,206.0,1.0,95,108.0
1241,B-3,206.0,1.0,95,108.0
1242,G4,207.0,1.0,79,108.0
1243,E-4,207.0,1.0,79,108.0
1244,B-3,207.0,1.0,79,108.0
1245,G3,207.0,1.0,79,108.0
1246,F4,207.0,1.0,95,108.0
1247,C#4,207.0,1.0,95,108.0
1248,A3,207.0,1.0,95,108.0
1249,F3,207.0,1.0,95,108.0
1250,F2,207.0,1.0,95,108.0
1251,G2,208.0,1.0,95,108.0
1252,B-3,208.0,0.5,95,108.0
1253,B-4,208.0,0.5,95,108.0
1254,D4,208.0,0.5,95,108.0
1255,C4,208.5,0.5,95,108.0
1256,C5,208.5,0.5,95,108.0
1257,E-4,208.5,0.5,95,108.0
1258,B-3,209.0,0.5,95,108.0
1259,G4,209.0,1.0,79,108.0
1260,D4,209.0,1.0,79,108.0
1261,B-3,209.0,1.0,79,108.0
1262,G3,209.0,1.0,79,108.0
1263,B-4,209.0,0.5,95,108.0
1264,D4,209.0,0.5,95,108.0
1265,G3,209.0,1.0,95,108.0
1266,D3,209.0,1.0,95,108.0
1267,A3,209.5,2.0,95,108.0
1268,A4,209.5,1.5,95,108.0
1269,C4,209.5,1.5,95,108.0
1270,A2,210.0,1.0,95,108.0
1271,A4,210.5,0.5,79,108.0
1272,E4,210.5,0.5,79,108.0
1273,C4,210.5,0.5,79,108.0
1274,A3,210.5,0.5,79,108.0
1275,D4,211.0,1.0,95,108.0
1276,G3,211.0,1.0,95,108.0
1277,E3,211.0,1.0,95,108.0
1278,D3,211.5,0.5,111,108.0
1279,A4,212.0,0.5,95,108.0
1280,D3,212.0,1.0,95,108.0
1281,A3,212.0,0.5,95,108.0
1282,A3,212.0,39/40,83,108.0
1283,C4,212.0,39/40,83,108.0
1284,E4,212.0,39/40,83,108.0
1285,A4,212.0,39/40,83,108.0
1286,B-4,212.5,0.5,95,108.0
1287,B-3,212.5,0.5,95,108.0
1288,A4,213.0,0.5,95,108.0
1289,A3,213.0,0.5,95,108.0
1290,F#4,213.0,1.0,83,108.0
1291,C4,213.0,1.0,83,108.0
1292,A3,213.0,1.0,83,108.0
1293,D3,213.0,1.0,83,108.0
1294,F#3,213.0,1.0,95,108.0
1295,D3,213.0,1.0,95,108.0
1296,G4,213.5,2.0,95,108.0
1297,G3,213.5,2.0,95,108.0
1298,G2,214.0,1.0,95,108.0
1299,G4,214.5,0.5,79,108.0
1300,D4,214.5,0.5,79,108.0
1301,B3,214.5,0.5,79,108.0
1302,F3,214.5,0.5,79,108.0
1303,F3,215.0,1.0,95,108.0
1304,D3,215.0,1.0,95,108.0
1305,D4,215.5,0.5,95,108.0
1306,D3,215.5,0.5,111,108.0
1307,G4,216.0,0.5,95,108.0
1308,C3,216.0,1.0,95,108.0
1309,G3,216.0,0.5,95,108.0
1310,F3,216.0,39/40,91,108.0
1311,B3,216.0,39/40,91,108.0
1312,D4,216.0,39/40,91,108.0
1313,G4,216.0,39/40,91,108.0
1314,A4,216.5,0.5,95,108.0
1315,A3,216.5,0.5,95,108.0
1316,G4,217.0,0.5,95,108.0
1317,G3,217.0,0.5,95,108.0
1318,G4,217.0,1.0,79,108.0
1319,E4,217.0,1.0,79,108.0
1320,B-3,217.0,1.0,79,108.0
1321,G3,217.0,1.0,79,108.0
1322,C3,217.0,1.0,79,108.0
1323,E3,217.0,1.0,95,108.0
1324,C3,217.0,1.0,95,108.0
1325,F4,217.5,1.5,95,108.0
1326,F3,217.5,1.5,95,108.0
1327,F2,218.0,1.0,95,108.0
1328,F4,219.0,1.0,95,108.0
1329,F3,219.0,1.0,111,108.0
1330,F4,219.0,1.0,79,108.0
1331,C4,219.0,1.0,79,108.0
1332,A3,219.0,1.0,79,108.0
1333,F3,219.0,1.0,79,108.0
1334,E-3,219.0,1.0,95,108.0
1335,F2,219.0,1.0,95,108.0
1336,B-2,220.0,3.0,95,108.0
1337,F3,220.0,3.0,95,108.0
1338,F4,220.0,1.0,79,108.0
1339,C#4,220.0,1.0,79,108.0
1340,A3,220.0,1.0,79,108.0
1341,E-3,220.0,1.0,79,108.0
1342,F4,220.0,1.0,95,108.0
1343,D4,220.0,1.0,95,108.0
1344,B-3,220.0,1.0,95,108.0
1345,A3,221.0,1.0,95,108.0
1346,F4,221.0,1.0,79,108.0
1347,D4,221.0,1.0,79,108.0
1348,B-3,221.0,1.0,79,108.0
1349,F3,221.0,1.0,79,108.0
1350,G3,222.0,1.0,95,108.0
1351,A2,223.0,1.0,95,108.0
1352,D3,223.0,1.0,111,108.0
1353,D4,223.0,1.0,95,108.0
1354,C4,223.0,1.0,95,108.0
1355,F#3,223.0,1.0,95,108.0
1356,B-4,224.0,0.5,95,108.0
1357,G2,224.0,1.0,95,108.0
1358,B-3,224.0,0.5,95,108.0
1359,F#4,224.0,1.0,79,108.0
1360,C4,224.0,1.0,79,108.0
1361,A3,224.0,1.0,79,108.0
1362,D3,224.0,1.0,79,108.0
1363,C5,224.5,0.5,95,108.0
1364,C4,224.5,0.5,95,108.0
1365,B-4,225.0,0.5,95,108.0
1366,B-3,225.0,0.5,95,108.0
1367,G4,225.0,1.0,79,108.0
1368,D4,225.0,1.0,79,108.0
1369,B-3,225.0,1.0,79,108.0
1370,G3,225.0,1.0,79,108.0
1371,G3,225.0,1.0,95,108.0
1372,D3,225.0,1.0,95,108.0
1373,A4,225.5,2.0,95,108.0
1374,A3,225.5,2.0,95,108.0
1375,A2,226.0,1.0,95,108.0
1376,E4,226.5,0.5,79,108.0
1377,C#4,226.5,0.5,79,108.0
1378,G3,226.5,0.5,79,108.0
1379,E3,226.5,0.5,79,108.0
1380,G3,227.0,1.0,95,108.0
1381,E3,227.0,1.0,95,108.0
1382,D4,227.5,0.5,95,108.0
1383,D3,227.5,0.5,111,108.0
1384,A3,228.0,0.5,95,108.0
1385,A4,228.0,0.5,95,108.0
1386,D3,228.0,0.5,95,108.0
1387,D4,228.0,1.0,95,108.0
1388,D3,228.0,1.0,95,108.0
1389,B-4,228.5,0.5,95,108.0
1390,B-3,228.5,0.5,95,108.0
1391,A4,229.0,0.5,95,108.0
1392,A3,229.0,0.5,95,108.0
1393,F#4,229.0,1.0,79,108.0
1394,C4,229.0,1.0,79,108.0
1395,A3,229.0,1.0,79,108.0
1396,D3,229.0,1.0,79,108.0
1397,F#3,229.0,1.0,95,108.0
1398,D3,229.0,1.0,95,108.0
1399,G4,229.5,2.5,95,108.0
1400,B2,229.5,0.5,95,108.0
1401,G3,229.5,1.5,95,108.0
1402,G2,230.0,0.5,95,108.0
1403,C#3,230.5,0.5,95,108.0
1404,G4,230.5,0.5,79,108.0
1405,D4,230.5,0.5,79,108.0
1406,B3,230.5,0.5,79,108.0
1407,F3,230.5,0.5,79,108.0
1408,D3,231.0,1.0,95,108.0
1409,D3,231.0,1.0,127,108.0
1410,D3,232.0,0.5,111,108.0
1411,G4,232.0,1.0,79,108.0
1412,D4,232.0,1.0,79,108.0
1413,B3,232.0,1.0,79,108.0
1414,F3,232.0,1.0,79,108.0
1415,D4,232.0,0.5,95,108.0
1416,D3,232.0,0.5,95,108.0
1417,B2,232.0,0.5,95,108.0
1418,F3,232.0,1.5,95,108.0
1419,D3,232.0,1.5,95,108.0
1420,G2,232.0,1.5,95,108.0
1421,E4,232.5,0.5,95,108.0
1422,E3,232.5,0.5,111,108.0
1423,F4,233.0,0.5,95,108.0
1424,F3,233.0,0.5,111,108.0
1425,G4,233.0,1.0,79,108.0
1426,D4,233.0,1.0,79,108.0
1427,B3,233.0,1.0,79,108.0
1428,F3,233.0,1.0,79,108.0
1429,A4,233.5,1.5,95,108.0
1430,C3,233.5,1.5,95,108.0
1431,A3,233.5,1.5,111,108.0
1432,A4,234.5,0.5,79,108.0
1433,D4,234.5,0.5,79,108.0
1434,B-3,234.5,0.5,79,108.0
1435,E3,234.5,0.5,79,108.0
1436,C3,234.5,0.5,79,108.0
1437,A4,235.0,1.0,95,108.0
1438,C3,235.0,1.0,95,108.0
1439,A3,235.0,1.0,111,108.0
1440,F4,236.0,1.0,95,108.0
1441,F2,236.0,1.0,95,108.0
1442,F3,236.0,4.0,127,108.0
1443,A4,236.0,1.0,79,108.0
1444,D4,236.0,1.0,79,108.0
1445,B-3,236.0,1.0,79,108.0
1446,E3,236.0,1.0,79,108.0
1447,G3,237.0,1.0,95,108.0
1448,F4,237.0,1.0,79,108.0
1449,C4,237.0,1.0,79,108.0
1450,A3,237.0,1.0,79,108.0
1451,E-3,237.0,1.0,79,108.0
1452,E-4,237.0,1.0,95,108.0
1453,A3,237.0,1.0,95,108.0
1454,D3,238.0,1.0,95,108.0
1455,B3,238.0,1.0,95,108.0
1456,G#3,238.0,1.0,95,108.0
1457,E-3,239.0,1.0,95,108.0
1458,G#4,239.0,1.0,79,108.0
1459,D4,239.0,1.0,79,108.0
1460,B3,239.0,1.0,79,108.0
1461,F3,239.0,1.0,79,108.0
1462,C4,239.0,1.0,95,108.0
1463,A3,239.0,1.0,95,108.0
1464,D4,240.0,0.5,95,108.0
1465,B-2,240.0,1.0,95,108.0
1466,D4,240.0,0.5,95,108.0
1467,F4,240.0,1.0,79,108.0
1468,C4,240.0,1.0,79,108.0
1469,A3,240.0,1.0,79,108.0
1470,E-3,240.0,1.0,79,108.0
1471,E-4,240.5,0.5,95,108.0
1472,E-4,240.5,0.5,95,108.0
1473,E4,241.0,0.5,95,108.0
1474,F3,241.0,1.0,95,108.0
1475,E4,241.0,0.5,95,108.0
1476,F4,241.0,1.0,79,108.0
1477,D4,241.0,1.0,79,108.0
1478,B-3,241.0,1.0,79,108.0
1479,F3,241.0,1.0,79,108.0
1480,F4,241.5,0.5,95,108.0
1481,B-4,241.5,0.5,71,108.0
1482,F4,241.5,0.5,71,108.0
1483,D5,242.0,0.5,95,108.0
1484,B-3,242.0,1.0,95,108.0
1485,D5,242.0,0.5,95,108.0
1486,D5,242.5,1.0,95,108.0
1487,D5,242.5,1.0,95,108.0
1488,A3,243.0,1.0,95,108.0
1489,F4,243.0,1.0,79,108.0
1490,D4,243.0,1.0,79,108.0
1491,B-3,243.0,1.0,79,108.0
1492,F3,243.0,1.0,79,108.0
1493,C#5,243.5,0.5,95,108.0
1494,C#5,243.5,0.5,95,108.0
1495,C5,244.0,2.0,95,108.0
1496,C5,244.0,2.0,95,108.0
1497,G#3,244.0,1.0,95,108.0
1498,B-2,244.0,1.0,95,108.0
1499,B-2,245.0,1.0,95,108.0
1500,F4,245.0,1.0,83,108.0
1501,D4,245.0,1.0,83,108.0
1502,G#3,245.0,1.0,83,108.0
1503,F3,245.0,1.0,83,108.0
1504,D5,246.0,0.5,95,108.0
1505,D5,246.0,0.5,95,108.0
1506,G#3,246.0,2.0,95,108.0
1507,B-2,246.0,2.0,95,108.0
1508,D5,246.5,1.0,95,108.0
1509,D5,246.5,1.0,95,108.0
1510,F4,247.0,1.0,83,108.0
1511,D4,247.0,1.0,83,108.0
1512,G#3,247.0,1.0,83,108.0
1513,F3,247.0,1.0,83,108.0
1514,C#5,247.5,0.5,95,108.0
1515,C#5,247.5,0.5,95,108.0
1516,C5,248.0,2.0,95,108.0
1517,C5,248.0,2.0,95,108.0
1518,G3,248.0,1.0,95,108.0
1519,B-2,248.0,1.0,95,108.0
1520,B-2,249.0,1.0,95,108.0
1521,G4,249.0,1.0,79,108.0
1522,C4,249.0,1.0,79,108.0
1523,B-3,249.0,1.0,79,108.0
1524,E-3,249.0,1.0,79,108.0
1525,D5,250.0,0.5,95,108.0
1526,D5,250.0,0.5,95,108.0
1527,G3,250.0,2.0,95,108.0
1528,B-2,250.0,2.0,95,108.0
1529,D5,250.5,1.0,95,108.0
1530,D5,250.5,1.0,95,108.0
1531,B-4,251.0,1.0,83,108.0
1532,G4,251.0,1.0,83,108.0
1533,D4,251.0,1.0,83,108.0
1534,B-3,251.0,1.0,83,108.0
1535,C#5,251.5,0.5,95,108.0
1536,C#5,251.5,0.5,95,108.0
1537,C5,252.0,4.0,95,108.0
1538,C5,252.0,4.0,95,108.0
1539,F#4,252.0,4.0,95,108.0
1540,E-4,252.0,4.0,95,108.0
1541,F#3,252.0,1.0,95,108.0
1542,B-2,252.0,1.0,95,108.0
1543,B-2,253.0,1.0,95,108.0
1544,F#4,253.0,1.0,79,108.0
1545,C4,253.0,1.0,79,108.0
1546,B-3,253.0,1.0,79,108.0
1547,E-3,253.0,1.0,79,108.0
1548,B-2,254.0,0.5,95,108.0
1549,C3,254.5,0.5,95,108.0
1550,B-2,255.0,1.0,95,108.0
1551,D4,256.0,0.5,95,108.0
1552,B-2,256.0,2.0,95,108.0
1553,D3,256.0,0.5,127,108.0
1554,E-4,256.5,0.5,95,108.0
1555,E-3,256.5,0.5,111,108.0
1556,E4,257.0,0.5,95,108.0
1557,E3,257.0,0.5,111,108.0
1558,F4,257.0,1.0,79,108.0
1559,D4,257.0,1.0,79,108.0
1560,B-3,257.0,1.0,79,108.0
1561,F3,257.0,1.0,79,108.0
1562,F4,257.5,0.5,95,108.0
1563,F3,257.5,1.0,111,108.0
1564,A4,258.0,0.5,95,108.0
1565,F3,258.0,1.0,95,108.0
1566,A3,258.0,0.5,111,108.0
1567,A4,258.5,1.0,95,108.0
1568,A3,258.5,1.0,111,108.0
1569,E-3,259.0,1.0,95,108.0
1570,F4,259.0,1.0,83,108.0
1571,C4,259.0,1.0,83,108.0
1572,A3,259.0,1.0,83,108.0
1573,F3,259.0,1.0,83,108.0
1574,G#4,259.5,0.5,95,108.0
1575,G#3,259.5,0.5,111,108.0
1576,G4,260.0,2.0,95,108.0
1577,E-3,260.0,1.0,95,108.0
1578,G3,260.0,2.0,127,108.0
1579,F2,261.0,1.0,95,108.0
1580,G4,261.0,1.0,79,108.0
1581,E-4,261.0,1.0,79,108.0
1582,A3,261.0,1.0,79,108.0
1583,F3,261.0,1.0,79,108.0
1584,A4,262.0,0.5,95,108.0
1585,A3,262.0,0.5,95,108.0
1586,E-3,262.0,2.0,95,108.0
1587,F2,262.0,2.0,95,108.0
1588,A4,262.5,1.0,95,108.0
1589,A3,262.5,1.0,95,108.0
1590,F4,263.0,1.0,79,108.0
1591,C#4,263.0,1.0,79,108.0
1592,A3,263.0,1.0,79,108.0
1593,E-3,263.0,1.0,79,108.0
1594,G#4,263.5,0.5,95,108.0
1595,G#3,263.5,0.5,95,108.0
1596,B-2,264.0,2.0,95,108.0
1597,G3,264.0,4.0,95,108.0
1598,G4,264.0,1.0,95,108.0
1599,F4,264.0,1.0,95,108.0
1600,B-3,264.0,1.0,95,108.0
1601,F4,265.0,1.0,79,108.0
1602,D4,265.0,1.0,79,108.0
1603,B-3,265.0,1.0,79,108.0
1604,F3,265.0,1.0,79,108.0
1605,F4,265.0,1.0,95,108.0
1606,B-3,265.0,1.0,95,108.0
1607,C#3,266.0,2.0,95,108.0
1608,E4,266.0,1.0,95,108.0
1609,B-3,266.0,1.0,95,108.0
1610,G4,267.0,1.0,79,108.0
1611,C#4,267.0,1.0,79,108.0
1612,B-3,267.0,1.0,79,108.0
1613,E3,267.0,1.0,79,108.0
1614,E4,267.0,1.0,95,108.0
1615,B-3,267.0,1.0,95,108.0
1616,C3,268.0,1.0,95,108.0
1617,G3,268.0,1.0,95,108.0
1618,E-4,268.0,1.0,95,108.0
1619,B-3,268.0,1.0,95,108.0
1620,F2,269.0,1.0,95,108.0
1621,G4,269.0,1.0,79,108.0
1622,E-4,269.0,1.0,79,108.0
1623,B-3,269.0,1.0,79,108.0
1624,G3,269.0,1.0,79,108.0
1625,F4,269.0,1.0,95,108.0
1626,D4,269.0,1.0,95,108.0
1627,A3,269.0,1.0,95,108.0
1628,G2,270.0,1.0,95,108.0
1629,F4,270.0,1.0,79,108.0
1630,C4,270.0,1.0,79,108.0
1631,A3,270.0,1.0,79,108.0
1632,D3,270.0,1.0,79,108.0
1633,E4,270.0,1.0,95,108.0
1634,C#4,270.0,1.0,95,108.0
1635,G3,270.0,1.0,95,108.0
1636,A2,271.0,1.0,95,108.0
1637,G4,271.0,1.0,79,108.0
1638,C#4,271.0,1.0,79,108.0
1639,B-3,271.0,1.0,79,108.0
1640,E3,271.0,1.0,79,108.0
1641,E-4,271.0,1.0,95,108.0
1642,C4,271.0,1.0,95,108.0
1643,F#3,271.0,1.0,95,108.0
1644,D4,272.0,0.5,95,108.0
1645,B-2,272.0,1.0,95,108.0
1646,D3,272.0,0.5,95,108.0
1647,F#4,272.0,1.0,79,108.0
1648,C4,272.0,1.0,79,108.0
1649,A3,272.0,1.0,79,108.0
1650,E-3,272.0,1.0,79,108.0
1651,E-4,272.5,0.5,95,108.0
1652,E-3,272.5,0.5,95,108.0
1653,E4,273.0,0.5,95,108.0
1654,F3,273.0,1.0,95,108.0
1655,E3,273.0,0.5,95,108.0
1656,F4,273.0,1.0,79,108.0
1657,D4,273.0,1.0,79,108.0
1658,B-3,273.0,1.0,79,108.0
1659,F3,273.0,1.0,79,108.0
1660,F4,273.5,0.5,95,108.0
1661,F3,273.5,1.0,95,108.0
1662,D5,274.0,0.5,95,108.0
1663,B-3,274.0,1.0,95,108.0
1664,D4,274.0,0.5,95,108.0
1665,D5,274.5,1.0,95,108.0
1666,D4,274.5,1.0,95,108.0
1667,A3,275.0,1.0,95,108.0
1668,F4,275.0,1.0,79,108.0
1669,D4,275.0,1.0,79,108.0
1670,B-3,275.0,1.0,79,108.0
1671,F3,275.0,1.0,79,108.0
1672,C#5,275.5,0.5,95,108.0
1673,C#4,275.5,0.5,95,108.0
1674,C5,276.0,2.0,95,108.0
1675,C4,276.0,2.0,95,108.0
1676,G#3,276.0,1.0,95,108.0
1677,B-2,276.0,1.0,95,108.0
1678,B-2,277.0,1.0,95,108.0
1679,F4,277.0,1.0,79,108.0
1680,D4,277.0,1.0,79,108.0
1681,G#3,277.0,1.0,79,108.0
1682,F3,277.0,1.0,79,108.0
1683,D5,278.0,0.5,95,108.0
1684,D4,278.0,0.5,95,108.0
1685,G#3,278.0,2.0,95,108.0
1686,B-2,278.0,2.0,95,108.0
1687,D5,278.5,1.0,95,108.0
1688,D4,278.5,1.0,95,108.0
1689,F4,279.0,1.0,79,108.0
1690,D4,279.0,1.0,79,108.0
1691,G#3,279.0,1.0,79,108.0
1692,F3,279.0,1.0,79,108.0
1693,B-2,279.0,1.0,79,108.0
1694,C#5,279.5,0.5,95,108.0
1695,C#4,279.5,0.5,95,108.0
1696,C5,280.0,2.0,95,108.0
1697,C4,280.0,2.0,95,108.0
1698,G3,280.0,1.0,95,108.0
1699,B-2,280.0,1.0,95,108.0
1700,B-2,281.0,1.0,95,108.0
1701,E-4,281.0,1.0,79,108.0
1702,C4,281.0,1.0,79,108.0
1703,G3,281.0,1.0,79,108.0
1704,E-3,281.0,1.0,79,108.0
1705,B-2,281.0,1.0,79,108.0
1706,D5,282.0,0.5,95,108.0
1707,D4,282.0,0.5,95,108.0
1708,G3,282.0,2.0,95,108.0
1709,B-2,282.0,2.0,95,108.0
1710,D5,282.5,1.0,95,108.0
1711,D4,282.5,1.0,95,108.0
1712,B-4,283.0,1.0,79,108.0
1713,G4,283.0,1.0,79,108.0
1714,D4,283.0,1.0,79,108.0
1715,B-3,283.0,1.0,79,108.0
1716,C#5,283.5,0.5,95,108.0
1717,C#4,283.5,0.5,95,108.0
1718,C4,284.0,4.0,95,108.0
1719,C5,284.0,4.0,95,108.0
1720,F#4,284.0,4.0,95,108.0
1721,E-4,284.0,4.0,95,108.0
1722,F#3,284.0,1.0,95,108.0
1723,B-2,284.0,1.0,95,108.0
1724,B-2,285.0,1.0,95,108.0
1725,F#4,285.0,1.0,79,108.0
1726,C4,285.0,1.0,79,108.0
1727,B-3,285.0,1.0,79,108.0
1728,E-3,285.0,1.0,79,108.0
1729,B-2,286.0,0.5,95,108.0
1730,C3,286.5,0.5,95,108.0
1731,B-2,287.0,1.0,95,108.0
1732,D4,288.0,0.5,95,108.0
1733,B-2,288.0,2.0,95,108.0
1734,D3,288.0,0.5,95,108.0
1735,C4,288.0,0.5,95,108.0
1736,E-4,288.5,0.5,95,108.0
1737,E-3,288.5,0.5,95,108.0
1738,E4,289.0,0.5,95,108.0
1739,E3,289.0,0.5,95,108.0
1740,F4,289.0,1.0,79,108.0
1741,D4,289.0,1.0,79,108.0
1742,B-3,289.0,1.0,79,108.0
1743,F3,289.0,1.0,79,108.0
1744,F4,289.5,0.5,95,108.0
1745,F3,289.5,1.0,95,108.0
1746,A4,290.0,0.5,95,108.0
1747,F3,290.0,1.0,95,108.0
1748,A3,290.0,0.5,95,108.0
1749,A4,290.5,1.0,95,108.0
1750,A3,290.5,1.0,95,108.0
1751,E3,291.0,1.0,95,108.0
1752,G4,291.0,1.0,79,108.0
1753,C#4,291.0,1.0,79,108.0
1754,B-3,291.0,1.0,79,108.0
1755,E3,291.0,1.0,79,108.0
1756,G#4,291.5,0.5,95,108.0
1757,G#3,291.5,0.5,95,108.0
1758,G4,292.0,2.0,95,108.0
1759,E-3,292.0,2.0,95,108.0
1760,G3,292.0,2.0,95,108.0
1761,G4,293.0,1.0,79,108.0
1762,C4,293.0,1.0,79,108.0
1763,B-3,293.0,1.0,79,108.0
1764,E-3,293.0,1.0,79,108.0
1765,G4,294.0,0.5,95,108.0
1766,G3,294.0,1.0,95,108.0
1767,G3,294.0,0.5,95,108.0
1768,F4,294.5,0.5,95,108.0
1769,F3,294.5,1.5,95,108.0
1770,G4,295.0,1.0,95,108.0
1771,G3,295.0,1.0,95,108.0
1772,F4,295.0,1.0,79,108.0
1773,C#4,295.0,1.0,79,108.0
1774,A3,295.0,1.0,79,108.0
1775,E-3,295.0,1.0,79,108.0
1776,E-3,295.0,1.0,95,108.0
1777,F2,295.0,1.0,95,108.0
1778,B-3,296.0,4.0,95,108.0
1779,B-4,296.0,0.5,95,108.0
1780,D4,296.0,0.5,95,108.0
1781,F3,296.0,0.5,95,108.0
1782,B-2,296.0,0.5,95,108.0
1783,E-4,296.5,0.5,95,108.0
1784,G3,296.5,0.5,95,108.0
1785,D4,297.0,0.5,95,108.0
1786,F3,297.0,0.5,95,108.0
1787,F4,297.0,4.0,79,108.0
1788,D4,297.0,4.0,79,108.0
1789,B-3,297.0,4.0,79,108.0
1790,F3,297.0,4.0,79,108.0
1791,E-4,297.5,0.5,95,108.0
1792,G3,297.5,0.5,95,108.0
1793,F4,298.0,0.5,95,108.0
1794,A3,298.0,0.5,95,108.0
1795,E-4,298.5,1.0,95,108.0
1796,G3,298.5,1.0,95,108.0
1797,D4,299.5,0.5,95,108.0
1798,F3,299.5,0.5,95,108.0
1799,D4,300.0,1.0,95,108.0
1800,F3,300.0,1.0,95,108.0
1801,B-3,300.0,1.0,95,108.0
1802,B-3,301.0,1.0,95,108.0
1803,B-4,301.0,1.0,95,108.0
1804,F4,301.0,1.0,95,108.0
1805,D4,301.0,1.0,95,108.0
1806,A3,302.0,1.0,95,108.0
1807,F4,302.0,1.0,79,108.0
1808,D4,302.0,1.0,79,108.0
1809,B-3,302.0,1.0,79,108.0
1810,F3,302.0,1.0,79,108.0
1811,C5,302.0,1.0,95,108.0
1812,G4,302.0,1.0,95,108.0
1813,E-4,302.0,1.0,95,108.0
1814,G3,303.0,1.0,95,108.0
1815,F4,303.0,1.0,95,108.0
1816,D4,303.0,1.0,95,108.0
1817,B-3,303.0,1.0,95,108.0
1818,F3,303.0,1.0,95,108.0
1819,E4,303.0,1.0,95,108.0
1820,C5,303.0,1.0,95,108.0
1821,C5,303.0,1.0,95,108.0
1822,D5,304.0,0.5,95,108.0
1823,D5,304.0,0.5,95,108.0
1824,G4,304.0,1.0,95,108.0
1825,E-4,304.0,1.0,95,108.0
1826,C4,304.0,1.0,95,108.0
1827,G3,304.0,1.0,95,108.0
1828,D4,304.0,1.0,95,108.0
1829,D3,304.0,1.0,95,108.0
1830,E5,304.5,0.5,95,108.0
1831,E5,304.5,0.5,95,108.0
1832,D5,305.0,0.5,95,108.0
1833,D5,305.0,0.5,95,108.0
1834,G4,305.0,1.0,95,108.0
1835,E4,305.0,1.0,95,108.0
1836,C4,305.0,1.0,95,108.0
1837,G3,305.0,1.0,95,108.0
1838,F4,305.0,1.0,95,108.0
1839,D4,305.0,1.0,95,108.0
1840,A3,305.0,1.0,95,108.0
1841,F3,305.0,1.0,95,108.0
1842,E5,305.5,0.5,95,108.0
1843,E5,305.5,0.5,95,108.0
1844,D5,306.0,1.0,95,108.0
1845,D3,306.0,1.0,95,108.0
1846,D5,306.0,1.0,95,108.0
1847,F4,306.0,1.0,79,108.0
1848,D4,306.0,1.0,79,108.0
1849,A3,306.0,1.0,79,108.0
1850,D3,306.0,1.0,79,108.0
1851,A4,307.0,1.0,95,108.0
1852,F3,307.0,1.0,95,108.0
1853,A4,307.0,1.0,95,108.0
1854,E3,308.0,2.0,95,108.0
1855,B-4,308.0,1.0,95,108.0
1856,F4,308.0,1.0,79,108.0
1857,D4,308.0,1.0,79,108.0
1858,A3,308.0,1.0,79,108.0
1859,D3,308.0,1.0,79,108.0
1860,E5,308.0,1.0,95,108.0
1861,B-4,308.0,1.0,95,108.0
1862,G#4,308.0,1.0,95,108.0
1863,D4,308.0,1.0,95,108.0
1864,B-4,309.0,2.0,95,108.0
1865,B-4,309.0,3.0,95,108.0
1866,G#4,309.0,1.0,95,108.0
1867,D4,309.0,1.0,95,108.0
1868,A2,310.0,2.0,95,108.0
1869,G#4,310.0,3.0,79,108.0
1870,D4,310.0,3.0,79,108.0
1871,B-3,310.0,3.0,79,108.0
1872,E3,310.0,3.0,79,108.0
1873,B-4,311.0,1.0,95,108.0
1874,G4,311.0,1.0,95,108.0
1875,C#4,311.0,1.0,95,108.0
1876,D3,312.0,1.0,95,108.0
1877,A3,312.0,0.5,95,108.0
1878,A4,312.0,0.5,95,108.0
1879,F4,312.0,0.5,95,108.0
1880,B-3,312.5,0.5,95,108.0
1881,B-4,312.5,0.5,95,108.0
1882,G4,312.5,0.5,95,108.0
1883,A3,313.0,0.5,95,108.0
1884,B-4,313.0,1.0,79,108.0
1885,G4,313.0,1.0,79,108.0
1886,C#4,313.0,1.0,79,108.0
1887,A3,313.0,1.0,79,108.0
1888,A4,313.0,0.5,95,108.0
1889,F4,313.0,0.5,95,108.0
1890,F4,313.0,1.0,95,108.0
1891,D4,313.0,1.0,95,108.0
1892,A3,313.0,1.0,95,108.0
1893,F3,313.0,1.0,95,108.0
1894,B-3,313.5,0.5,95,108.0
1895,B-4,313.5,0.5,95,108.0
1896,G4,313.5,0.5,95,108.0
1897,D3,314.0,1.0,95,108.0
1898,A3,314.0,2.0,95,108.0
1899,A4,314.0,1.0,79,108.0
1900,F4,314.0,1.0,79,108.0
1901,D4,314.0,1.0,79,108.0
1902,A3,314.0,1.0,79,108.0
1903,A4,314.0,1.0,95,108.0
1904,F4,314.0,1.0,95,108.0
1905,F3,315.0,1.0,95,108.0
1906,F4,315.0,1.0,95,108.0
1907,D4,315.0,1.0,95,108.0
1908,A3,315.0,1.0,95,108.0
1909,D4,315.0,1.0,95,108.0
1910,D3,315.0,1.0,95,108.0
1911,E3,316.0,4.0,95,108.0
1912,A4,316.0,1.0,79,108.0
1913,F4,316.0,1.0,79,108.0
1914,D4,316.0,1.0,79,108.0
1915,A3,316.0,1.0,79,108.0
1916,E4,316.0,1.0,95,108.0
1917,B3,316.0,1.0,95,108.0
1918,G3,316.0,1.0,95,108.0
1919,C#4,316.0,2.0,95,108.0
1920,A3,316.0,2.0,95,108.0
1921,E3,316.0,2.0,95,108.0
1922,A2,316.0,2.0,95,108.0
1923,C#4,317.0,1.0,95,108.0
1924,A3,317.0,1.0,95,108.0
1925,A3,318.0,1.0,79,108.0
1926,A2,318.0,2.0,95,108.0
1927,A4,318.0,4.0,79,108.0
1928,E4,318.0,4.0,79,108.0
1929,C#4,318.0,4.0,79,108.0
1930,B3,318.0,1.0,95,108.0
1931,G3,318.0,1.0,95,108.0
1932,C#4,319.0,1.0,95,108.0
1933,A3,319.0,1.0,95,108.0
1934,D5,320.0,0.5,95,108.0
1935,F3,320.0,1.0,95,108.0
1936,D5,320.0,0.5,95,108.0
1937,E5,320.5,0.5,95,108.0
1938,E5,320.5,0.5,95,108.0
1939,D5,321.0,0.5,95,108.0
1940,D5,321.0,0.5,95,108.0
1941,F4,321.0,1.0,95,108.0
1942,D4,321.0,1.0,95,108.0
1943,A3,321.0,1.0,95,108.0
1944,F3,321.0,1.0,95,108.0
1945,E5,321.5,0.5,95,108.0
1946,E5,321.5,0.5,95,108.0
1947,D5,322.0,1.0,95,108.0
1948,D3,322.0,1.0,95,108.0
1949,D5,322.0,1.0,95,108.0
1950,A4,322.0,2.0,79,108.0
1951,F4,322.0,2.0,79,108.0
1952,D4,322.0,2.0,79,108.0
1953,A3,322.0,2.0,79,108.0
1954,A4,323.0,1.0,95,108.0
1955,F3,323.0,1.0,95,108.0
1956,A4,323.0,1.0,95,108.0
1957,B-4,324.0,1.0,95,108.0
1958,E3,324.0,2.0,95,108.0
1959,B-4,324.0,1.0,95,108.0
1960,A4,324.0,1.0,79,108.0
1961,F4,324.0,1.0,79,108.0
1962,D4,324.0,1.0,79,108.0
1963,A3,324.0,1.0,79,108.0
1964,B-4,325.0,2.0,95,108.0
1965,B-4,325.0,3.0,95,108.0
1966,A2,326.0,2.0,95,108.0
1967,G#4,326.0,1.0,79,108.0
1968,D4,326.0,1.0,79,108.0
1969,B-3,326.0,1.0,79,108.0
1970,E3,326.0,1.0,79,108.0
1971,G3,327.0,1.0,95,108.0
1972,A4,328.0,0.5,95,108.0
1973,D3,328.0,1.0,95,108.0
1974,A3,328.0,0.5,95,108.0
1975,B-4,328.5,0.5,95,108.0
1976,B-3,328.5,0.5,95,108.0
1977,A4,329.0,0.5,95,108.0
1978,A3,329.0,0.5,95,108.0
1979,B-4,329.0,1.0,79,108.0
1980,G4,329.0,1.0,79,108.0
1981,C#4,329.0,1.0,79,108.0
1982,A3,329.0,1.0,79,108.0
1983,A3,329.0,1.0,95,108.0
1984,F3,329.0,1.0,95,108.0
1985,D3,329.0,1.0,95,108.0
1986,B-4,329.5,0.5,95,108.0
1987,B-3,329.5,0.5,95,108.0
1988,A4,330.0,1.0,95,108.0
1989,D3,330.0,1.0,95,108.0
1990,A3,330.0,1.0,95,108.0
1991,A4,330.0,1.0,79,108.0
1992,F4,330.0,1.0,79,108.0
1993,D4,330.0,1.0,79,108.0
1994,A3,330.0,1.0,79,108.0
1995,F4,331.0,1.0,95,108.0
1996,F3,331.0,1.0,95,108.0
1997,A4,331.0,0.5,79,108.0
1998,F4,331.0,0.5,79,108.0
1999,D4,331.0,0.5,79,108.0
2000,A3,331.0,0.5,79,108.0
2001,D4,331.0,1.0,95,108.0
2002,D3,331.0,1.0,95,108.0
2003,C3,332.0,2.0,95,108.0
2004,E-3,332.0,4.0,95,108.0
2005,A4,332.0,1.0,79,108.0
2006,F4,332.0,1.0,79,108.0
2007,D4,332.0,1.0,79,108.0
2008,A3,332.0,1.0,79,108.0
2009,E-4,332.0,1.0,95,108.0
2010,B-3,332.0,1.0,95,108.0
2011,G3,332.0,1.0,95,108.0
2012,A4,333.0,1.0,79,108.0
2013,F4,333.0,1.0,79,108.0
2014,D4,333.0,1.0,79,108.0
2015,A3,333.0,1.0,79,108.0
2016,C4,333.0,1.0,95,108.0
2017,A3,333.0,1.0,95,108.0
2018,F2,334.0,2.0,95,108.0
2019,G4,334.0,1.0,79,108.0
2020,E-4,334.0,1.0,79,108.0
2021,B-3,334.0,1.0,79,108.0
2022,C3,334.0,1.0,79,108.0
2023,G3,334.0,1.0,95,108.0
2024,B-3,334.0,1.0,95,108.0
2025,A3,335.0,1.0,95,108.0
2026,F3,335.0,1.0,95,108.0
2027,D4,336.0,0.5,95,108.0
2028,B-2,336.0,1.0,95,108.0
2029,D4,336.0,0.5,95,108.0
2030,G4,336.0,1.0,79,108.0
2031,E-4,336.0,1.0,79,108.0
2032,B-3,336.0,1.0,79,108.0
2033,F3,336.0,1.0,79,108.0
2034,E-4,336.5,0.5,95,108.0
2035,E-4,336.5,0.5,95,108.0
2036,E4,337.0,0.5,95,108.0
2037,F3,337.0,1.0,95,108.0
2038,E4,337.0,0.5,95,108.0
2039,F4,337.5,0.5,95,108.0
2040,F4,337.5,0.5,95,108.0
2041,D5,338.0,0.5,95,108.0
2042,B-3,338.0,1.0,95,108.0
2043,D5,338.0,0.5,95,108.0
2044,F4,338.0,1.0,79,108.0
2045,D4,338.0,1.0,79,108.0
2046,B-3,338.0,1.0,79,108.0
2047,F3,338.0,1.0,79,108.0
2048,D5,338.5,1.0,95,108.0
2049,D5,338.5,1.0,95,108.0
2050,A3,339.0,1.0,95,108.0
2051,C#5,339.5,0.5,95,108.0
2052,C#5,339.5,0.5,95,108.0
2053,C5,340.0,2.0,95,108.0
2054,C5,340.0,2.0,95,108.0
2055,F4,340.0,1.0,79,108.0
2056,D4,340.0,1.0,79,108.0
2057,B-3,340.0,1.0,79,108.0
2058,F3,340.0,1.0,79,108.0
2059,G#3,340.0,1.0,95,108.0
2060,B-2,340.0,1.0,95,108.0
2061,B-2,341.0,1.0,95,108.0
2062,D5,342.0,0.5,95,108.0
2063,D5,342.0,0.5,95,108.0
2064,F4,342.0,1.0,79,108.0
2065,D4,342.0,1.0,79,108.0
2066,G#3,342.0,1.0,79,108.0
2067,B-2,342.0,1.0,79,108.0
2068,G#3,342.0,2.0,95,108.0
2069,B-2,342.0,2.0,95,108.0
2070,D5,342.5,1.0,95,108.0
2071,D5,342.5,1.0,95,108.0
2072,C#5,343.5,0.5,95,108.0
2073,C#5,343.5,0.5,95,108.0
2074,C5,344.0,2.0,95,108.0
2075,C5,344.0,2.0,95,108.0
2076,F4,344.0,1.0,79,108.0
2077,D4,344.0,1.0,79,108.0
2078,G#3,344.0,1.0,79,108.0
2079,B-2,344.0,1.0,79,108.0
2080,G3,344.0,1.0,95,108.0
2081,B-2,344.0,1.0,95,108.0
2082,B-2,345.0,1.0,95,108.0
2083,D5,346.0,0.5,95,108.0
2084,D5,346.0,0.5,95,108.0
2085,E-4,346.0,1.0,79,108.0
2086,C4,346.0,1.0,79,108.0
2087,G3,346.0,1.0,79,108.0
2088,E-3,346.0,1.0,79,108.0
2089,B-2,346.0,1.0,79,108.0
2090,G3,346.0,2.0,95,108.0
2091,B-2,346.0,2.0,95,108.0
2092,D5,346.5,1.0,95,108.0
2093,D5,346.5,1.0,95,108.0
2094,C#5,347.5,0.5,95,108.0
2095,C#5,347.5,0.5,95,108.0
2096,C5,348.0,4.0,95,108.0
2097,B-4,348.0,1.0,79,108.0
2098,G4,348.0,1.0,79,108.0
2099,D4,348.0,1.0,79,108.0
2100,B-3,348.0,1.0,79,108.0
2101,C5,348.0,4.0,83,108.0
2102,F#4,348.0,4.0,83,108.0
2103,E-4,348.0,4.0,83,108.0
2104,A3,348.0,4.0,83,108.0
2105,F#3,348.0,1.0,95,108.0
2106,B-2,348.0,1.0,95,108.0
2107,B-2,349.0,1.0,95,108.0
2108,B-2,350.0,0.5,95,108.0
2109,F#4,350.0,1.0,79,108.0
2110,C4,350.0,1.0,79,108.0
2111,A3,350.0,1.0,79,108.0
2112,E-3,350.0,1.0,79,108.0
2113,C3,350.5,0.5,95,108.0
2114,B-2,351.0,1.0,95,108.0
2115,D4,352.0,0.5,95,108.0
2116,B-2,352.0,2.0,95,108.0
2117,D3,352.0,0.5,95,108.0
2118,E-4,352.5,0.5,95,108.0
2119,E-3,352.5,0.5,95,108.0
2120,E4,353.0,0.5,95,108.0
2121,E3,353.0,0.5,95,108.0
2122,F4,353.5,0.5,95,108.0
2123,F3,353.5,0.5,95,108.0
2124,A4,354.0,0.5,95,108.0
2125,F3,354.0,1.0,95,108.0
2126,A3,354.0,0.5,95,108.0
2127,F4,354.0,1.0,79,108.0
2128,D4,354.0,1.0,79,108.0
2129,B-3,354.0,1.0,79,108.0
2130,F3,354.0,1.0,79,108.0
2131,A4,354.5,1.0,95,108.0
2132,A3,354.5,1.0,95,108.0
2133,E3,355.0,1.0,95,108.0
2134,G#4,355.5,0.5,95,108.0
2135,G#3,355.5,0.5,95,108.0
2136,G4,356.0,2.0,95,108.0
2137,E-3,356.0,2.0,95,108.0
2138,G3,356.0,2.0,95,108.0
2139,F4,356.0,0.5,79,108.0
2140,D4,356.0,0.5,79,108.0
2141,B-3,356.0,0.5,79,108.0
2142,F3,356.0,0.5,79,108.0
2143,G4,358.0,0.5,95,108.0
2144,G3,358.0,1.0,95,108.0
2145,G3,358.0,0.5,95,108.0
2146,G4,358.0,1.0,79,108.0
2147,E-4,358.0,1.0,79,108.0
2148,A3,358.0,1.0,79,108.0
2149,F3,358.0,1.0,79,108.0
2150,F4,358.5,0.5,95,108.0
2151,F3,358.5,0.5,95,108.0
2152,G4,359.0,1.0,95,108.0
2153,G3,359.0,1.0,95,108.0
2154,E-3,359.0,1.0,95,108.0
2155,F2,359.0,1.0,95,108.0
2156,B-2,360.0,2.0,95,108.0
2157,B-3,360.0,4.0,95,108.0
2158,G4,360.0,1.0,79,108.0
2159,E-4,360.0,1.0,79,108.0
2160,A3,360.0,1.0,79,108.0
2161,F3,360.0,1.0,79,108.0
2162,B-4,360.0,0.5,95,108.0
2163,D4,360.0,0.5,95,108.0
2164,E-4,360.5,0.5,95,108.0
2165,E4,361.0,0.5,95,108.0
2166,F4,361.5,0.5,95,108.0
2167,F4,362.0,1.0,79,108.0
2168,D4,362.0,1.0,79,108.0
2169,B-3,362.0,1.0,79,108.0
2170,F3,362.0,1.0,79,108.0
2171,A4,362.0,0.5,95,108.0
2172,E4,362.0,0.5,95,108.0
2173,B-3,362.0,2.0,95,108.0
2174,C#3,362.0,2.0,95,108.0
2175,G4,362.5,1.0,95,108.0
2176,B-4,363.5,0.5,95,108.0
2177,B-3,364.0,1.0,95,108.0
2178,G4,364.0,1.0,79,108.0
2179,C#4,364.0,1.0,79,108.0
2180,B-3,364.0,1.0,79,108.0
2181,E3,364.0,1.0,79,108.0
2182,D5,364.0,1.0,95,108.0
2183,B-4,364.0,1.0,95,108.0
2184,E4,364.0,1.0,95,108.0
2185,B-3,364.0,1.0,95,108.0
2186,G3,364.0,1.0,95,108.0
2187,C3,364.0,1.0,95,108.0
2188,F5,365.0,1.0,95,108.0
2189,C#5,365.0,1.0,95,108.0
2190,A4,365.0,1.0,95,108.0
2191,F4,365.0,1.0,95,108.0
2192,F3,365.0,1.0,95,108.0
2193,G4,366.0,1.0,79,108.0
2194,D4,366.0,1.0,79,108.0
2195,B-3,366.0,1.0,79,108.0
2196,E3,366.0,1.0,79,108.0
2197,C3,366.0,1.0,79,108.0
2198,B-5,366.0,2.0,95,108.0
2199,F5,366.0,2.0,95,108.0
2200,D5,366.0,2.0,95,108.0
2201,B-4,366.0,2.0,95,108.0
2202,F3,366.0,2.0,95,108.0
2203,F2,366.0,2.0,95,108.0
2204,F4,367.0,1.0,79,108.0
2205,C#4,367.0,1.0,79,108.0
2206,A3,367.0,1.0,79,108.0
2207,F3,367.0,1.0,79,108.0
2208,F4,368.0,2.0,79,108.0
2209,D4,368.0,2.0,79,108.0
2210,B-3,368.0,2.0,79,108.0
2211,F3,368.0,2.0,79,108.0
