,note_name,start_time,duration,velocity,tempo
0,E5,0.0,167/1000,95,84.0
1,C#5,0.0,167/1000,95,84.0
2,F#5,0.167,167/1000,95,84.0
3,D5,0.167,167/1000,95,84.0
4,E5,0.333,167/1000,95,84.0
5,C#5,0.333,167/1000,95,84.0
6,D5,0.5,167/1000,95,84.0
7,B4,0.5,167/1000,95,84.0
8,E5,0.667,167/1000,95,84.0
9,C#5,0.667,167/1000,95,84.0
10,D5,0.833,167/1000,95,84.0
11,B4,0.833,167/1000,95,84.0
12,C#5,1.0,167/1000,95,84.0
13,A4,1.0,167/1000,95,84.0
14,D5,1.167,167/1000,95,84.0
15,B4,1.167,167/1000,95,84.0
16,C#5,1.333,167/1000,95,84.0
17,A4,1.333,167/1000,95,84.0
18,B4,1.5,167/1000,95,84.0
19,G4,1.5,167/1000,95,84.0
20,C#5,1.667,167/1000,95,84.0
21,A4,1.667,167/1000,95,84.0
22,B4,1.833,167/1000,95,84.0
23,G4,1.833,167/1000,95,84.0
24,A4,2.0,167/1000,95,84.0
25,F#4,2.0,167/1000,95,84.0
26,B4,2.167,167/1000,95,84.0
27,G4,2.167,167/1000,95,84.0
28,A4,2.333,167/1000,95,84.0
29,F#4,2.333,167/1000,95,84.0
30,G4,2.5,167/1000,95,84.0
31,E4,2.5,167/1000,95,84.0
32,A4,2.667,167/1000,95,84.0
33,F#4,2.667,167/1000,95,84.0
34,G4,2.833,167/1000,95,84.0
35,E4,2.833,167/1000,95,84.0
36,F#4,3.0,167/1000,95,84.0
37,D4,3.0,167/1000,95,84.0
38,G4,3.167,167/1000,95,84.0
39,E4,3.167,167/1000,95,84.0
40,F#4,3.333,167/1000,95,84.0
41,D4,3.333,167/1000,95,84.0
42,E4,3.5,167/1000,95,84.0
43,C#4,3.5,0.5,95,84.0
44,F#4,3.667,167/1000,95,84.0
45,E4,3.833,167/1000,95,84.0
46,D4,4.0,2.0,95,84.0
47,D2,4.0,0.5,95,84.0
48,F#3,4.5,0.5,95,84.0
49,D4,5.0,0.5,95,84.0
50,A3,5.0,0.5,95,84.0
51,F#3,5.5,0.5,95,84.0
52,E4,6.0,0.25,31,84.0
53,G3,6.0,0.25,31,84.0
54,D4,6.0,0.5,95,84.0
55,A3,6.0,0.5,95,84.0
56,F#4,6.25,0.25,31,84.0
57,A3,6.25,0.25,31,84.0
58,F#3,6.5,0.5,95,84.0
59,F#4,6.5,0.5,63,84.0
60,A3,6.5,0.5,63,84.0
61,E4,7.0,0.5,79,84.0
62,G3,7.0,0.5,79,84.0
63,D4,7.0,0.5,95,84.0
64,A3,7.0,0.5,95,84.0
65,G3,7.5,0.5,79,84.0
66,F#3,7.5,0.5,95,84.0
67,D2,8.0,0.5,95,84.0
68,D4,8.0,2.0,71,84.0
69,F#3,8.0,2.0,71,84.0
70,F#3,8.5,0.5,95,84.0
71,D4,9.0,0.5,95,84.0
72,A3,9.0,0.5,95,84.0
73,F#3,9.5,0.5,95,84.0
74,D4,10.0,0.5,95,84.0
75,G3,10.0,0.5,95,84.0
76,D4,10.0,0.5,95,84.0
77,A3,10.0,0.5,95,84.0
78,F#3,10.5,0.5,95,84.0
79,F#3,10.5,0.5,95,84.0
80,E3,11.0,0.5,95,84.0
81,D4,11.0,0.5,95,84.0
82,A3,11.0,0.5,95,84.0
83,D3,11.5,0.5,95,84.0
84,F#3,11.5,0.5,95,84.0
85,E3,11.875,0.125,95,84.0
86,D2,12.0,0.5,95,84.0
87,A3,12.0,1.0,95,84.0
88,F#3,12.0,1.0,95,84.0
89,F#3,12.5,0.5,95,84.0
90,A3,13.0,0.5,95,84.0
91,A3,13.0,0.5,95,84.0
92,F#3,13.5,0.5,95,84.0
93,F#3,13.5,0.5,95,84.0
94,A3,14.0,0.5,95,84.0
95,A3,14.0,0.5,95,84.0
96,D2,14.0,0.5,95,84.0
97,F#3,14.5,0.5,95,84.0
98,F#3,14.5,0.5,95,84.0
99,C#4,15.0,0.5,95,84.0
100,C#4,15.0,0.5,95,84.0
101,A3,15.0,0.5,95,84.0
102,A3,15.5,0.5,95,84.0
103,F#3,15.5,0.5,95,84.0
104,C#4,16.0,0.5,95,84.0
105,C#4,16.0,0.5,95,84.0
106,A3,16.0,0.5,95,84.0
107,G2,16.0,0.5,95,84.0
108,D3,16.5,0.5,95,84.0
109,D3,16.5,0.5,95,84.0
110,B3,17.0,0.5,95,84.0
111,G3,17.0,0.5,95,84.0
112,B3,17.0,0.5,95,84.0
113,G3,17.0,0.5,95,84.0
114,D3,17.5,0.5,95,84.0
115,D3,17.5,0.5,95,84.0
116,G3,18.0,0.5,95,84.0
117,G2,18.0,0.5,95,84.0
118,D3,18.5,0.5,95,84.0
119,D3,18.5,0.5,95,84.0
120,B3,19.0,0.25,95,84.0
121,B3,19.0,0.25,95,84.0
122,C4,19.25,0.25,95,84.0
123,C4,19.25,0.25,95,84.0
124,C#4,19.5,0.25,95,84.0
125,C#4,19.5,0.25,95,84.0
126,D4,19.75,0.25,95,84.0
127,D4,19.75,0.25,95,84.0
128,A3,20.0,0.5,95,84.0
129,A3,20.0,0.5,95,84.0
130,D2,20.0,0.5,95,84.0
131,D3,20.5,0.5,95,84.0
132,F#3,20.5,0.5,95,84.0
133,A3,21.0,0.5,95,84.0
134,A3,21.0,0.5,95,84.0
135,F#3,21.5,0.5,95,84.0
136,F#3,21.5,0.5,95,84.0
137,A3,22.0,0.5,95,84.0
138,A3,22.0,1.0,95,84.0
139,D2,22.0,1.0,95,84.0
140,D3,22.5,0.5,95,84.0
141,C#4,23.0,0.5,95,84.0
142,C#4,23.0,0.5,95,84.0
143,A3,23.0,0.5,95,84.0
144,A3,23.5,0.5,95,84.0
145,F#3,23.5,0.5,95,84.0
146,B3,24.0,0.5,95,84.0
147,G3,24.0,0.5,95,84.0
148,B3,24.0,0.5,95,84.0
149,G3,24.0,0.5,95,84.0
150,G2,24.0,0.5,95,84.0
151,D3,24.5,0.5,95,84.0
152,D3,24.5,0.5,95,84.0
153,G3,25.0,0.5,95,84.0
154,G3,25.0,0.5,95,84.0
155,D3,25.5,0.5,95,84.0
156,D3,25.5,0.5,95,84.0
157,G2,26.0,0.5,95,84.0
158,G2,26.0,0.5,95,84.0
159,D3,26.5,0.5,95,84.0
160,D3,26.5,0.5,95,84.0
161,B3,27.0,0.25,95,84.0
162,B3,27.0,0.25,95,84.0
163,C4,27.25,0.25,95,84.0
164,C4,27.25,0.25,95,84.0
165,C#4,27.5,0.25,95,84.0
166,C#4,27.5,0.25,95,84.0
167,D4,27.75,0.25,95,84.0
168,D4,27.75,0.25,95,84.0
169,A3,28.0,0.5,95,84.0
170,A3,28.0,0.5,95,84.0
171,D2,28.0,0.5,95,84.0
172,D3,28.5,0.5,95,84.0
173,F#3,28.5,0.5,95,84.0
174,A3,29.0,0.5,95,84.0
175,A3,29.0,0.5,95,84.0
176,F#3,29.5,0.5,95,84.0
177,F#3,29.5,0.5,95,84.0
178,A3,30.0,0.5,95,84.0
179,F#3,30.0,0.5,95,84.0
180,A3,30.0,1.0,95,84.0
181,D2,30.0,1.0,95,84.0
182,F#3,30.5,0.5,95,84.0
183,C#4,31.0,0.5,95,84.0
184,C#4,31.0,0.5,95,84.0
185,A3,31.0,0.5,95,84.0
186,F#3,31.5,0.5,95,84.0
187,F#3,31.5,0.5,95,84.0
188,C#4,32.0,0.5,95,84.0
189,C#4,32.0,0.5,95,84.0
190,A3,32.0,0.5,95,84.0
191,G2,32.0,0.5,95,84.0
192,D3,32.5,0.5,95,84.0
193,D3,32.5,0.5,95,84.0
194,B3,33.0,0.5,95,84.0
195,B3,33.0,0.5,95,84.0
196,G3,33.0,0.5,95,84.0
197,D3,33.5,0.5,95,84.0
198,D3,33.5,0.5,95,84.0
199,G3,34.0,0.5,95,84.0
200,G2,34.0,0.5,95,84.0
201,D3,34.5,0.5,95,84.0
202,D3,34.5,0.5,95,84.0
203,B3,35.0,0.25,95,84.0
204,B3,35.0,0.25,95,84.0
205,C4,35.25,0.25,95,84.0
206,C4,35.25,0.25,95,84.0
207,C#4,35.5,0.25,95,84.0
208,C#4,35.5,0.25,95,84.0
209,D4,35.75,0.25,95,84.0
210,D4,35.75,0.25,95,84.0
211,A3,36.0,0.5,95,84.0
212,A3,36.0,0.5,95,84.0
213,D2,36.0,0.5,95,84.0
214,F#3,36.5,0.5,95,84.0
215,F#3,36.5,0.5,95,84.0
216,A3,37.0,0.5,95,84.0
217,A3,37.0,0.5,95,84.0
218,F#3,37.5,0.5,95,84.0
219,F#3,37.5,0.5,95,84.0
220,A3,38.0,0.5,95,84.0
221,A3,38.0,1.0,95,84.0
222,D2,38.0,1.0,95,84.0
223,D3,38.5,0.5,95,84.0
224,C#4,39.0,0.5,95,84.0
225,C#4,39.0,0.5,95,84.0
226,A3,39.0,0.5,95,84.0
227,A3,39.5,0.5,95,84.0
228,F#3,39.5,0.5,95,84.0
229,G2,40.0,0.5,95,84.0
230,B3,40.0,0.5,95,84.0
231,G3,40.0,0.5,95,84.0
232,G2,40.0,0.5,95,84.0
233,D3,40.5,0.5,95,84.0
234,D3,40.5,0.5,95,84.0
235,G3,41.0,0.5,95,84.0
236,G3,41.0,0.5,95,84.0
237,D3,41.5,0.5,95,84.0
238,B3,41.5,0.5,95,84.0
239,F#2,42.0,0.5,95,84.0
240,F#2,42.0,0.5,95,84.0
241,D3,42.5,0.5,95,84.0
242,D3,42.5,0.5,95,84.0
243,B3,43.0,0.25,95,84.0
244,A3,43.0,0.5,95,84.0
245,A3,43.25,0.25,47,84.0
246,D3,43.5,0.5,95,84.0
247,D2,43.5,0.5,95,84.0
248,G2,44.0,0.5,95,84.0
249,G3,44.0,0.5,95,84.0
250,D3,44.0,0.5,95,84.0
251,G2,44.0,0.5,95,84.0
252,A3,44.375,0.125,95,84.0
253,B3,44.5,0.5,95,84.0
254,B3,44.5,0.5,79,84.0
255,A3,44.5,0.5,79,84.0
256,D3,44.5,0.5,79,84.0
257,D4,45.0,0.5,95,84.0
258,D4,45.0,0.5,95,84.0
259,B3,45.5,0.5,95,84.0
260,B3,45.5,0.5,95,84.0
261,D4,46.0,1.0,95,84.0
262,F#2,46.0,1.0,95,84.0
263,D4,46.0,0.5,95,84.0
264,F#2,46.0,0.5,95,84.0
265,D3,46.5,0.5,95,84.0
266,F#4,47.0,1.0,95,84.0
267,F#4,47.0,0.5,90,84.0
268,D4,47.0,0.5,90,84.0
269,A3,47.0,0.5,90,84.0
270,D3,47.5,0.5,95,84.0
271,E4,48.0,0.5,95,84.0
272,E2,48.0,0.5,95,84.0
273,E4,48.0,0.5,95,84.0
274,E2,48.0,0.5,95,84.0
275,D4,48.5,0.5,95,84.0
276,D4,48.5,0.5,95,84.0
277,B3,49.0,0.5,70,84.0
278,B3,49.0,0.5,70,84.0
279,G3,49.5,0.5,95,84.0
280,G3,49.5,0.5,95,84.0
281,D3,50.0,0.5,95,84.0
282,D2,50.0,0.5,95,84.0
283,B3,50.5,0.5,95,84.0
284,G3,50.5,0.5,95,84.0
285,D4,51.0,0.5,95,84.0
286,D4,51.0,0.5,95,84.0
287,C#4,51.5,0.5,95,84.0
288,B3,51.5,0.5,70,84.0
289,E4,52.0,1.0,95,84.0
290,C#4,52.0,1.0,95,84.0
291,C#4,52.0,0.5,95,84.0
292,A2,52.0,0.5,95,84.0
293,E3,52.5,0.5,95,84.0
294,G3,53.0,1.0,95,84.0
295,C#4,53.0,1.0,95,84.0
296,A3,53.0,1.0,95,84.0
297,C#4,54.0,0.5,95,84.0
298,C#4,54.0,1.0,95,84.0
299,A3,54.0,1.0,95,84.0
300,C#4,54.5,0.5,95,84.0
301,G3,54.5,0.5,95,84.0
302,E3,54.5,0.5,95,84.0
303,A2,54.5,0.5,95,84.0
304,D4,55.0,0.5,95,84.0
305,B3,55.0,0.5,95,84.0
306,D3,55.5,0.5,95,84.0
307,D4,55.5,0.5,87,84.0
308,B3,55.5,0.5,87,84.0
309,F#3,55.5,0.5,87,84.0
310,A2,55.5,0.5,87,84.0
311,E-4,55.875,0.125,95,84.0
312,C4,55.875,0.125,95,84.0
313,F#3,55.875,0.125,95,84.0
314,E4,56.0,2.0,95,84.0
315,C#4,56.0,2.0,95,84.0
316,G3,56.0,2.0,95,84.0
317,E4,56.0,2.0,95,84.0
318,C#4,56.0,2.0,95,84.0
319,G3,56.0,2.0,95,84.0
320,A2,56.0,2.0,95,84.0
321,E4,57.875,0.125,95,84.0
322,F#4,58.0,0.5,95,84.0
323,F#4,58.0,0.5,95,84.0
324,A4,58.5,0.5,95,84.0
325,A4,58.5,1.0,95,84.0
326,F#4,59.0,0.5,95,84.0
327,F#4,59.375,0.125,95,84.0
328,E4,59.5,0.5,95,84.0
329,E4,59.5,0.5,95,84.0
330,D4,60.0,2.0,95,84.0
331,D4,60.0,0.5,95,84.0
332,D2,60.0,0.5,95,84.0
333,F#3,60.5,0.5,95,84.0
334,A3,61.0,0.5,95,84.0
335,F#3,61.5,0.5,95,84.0
336,D2,62.0,0.5,95,84.0
337,E3,62.375,0.125,95,84.0
338,F#3,62.5,0.5,95,84.0
339,F#3,62.5,0.5,95,84.0
340,A3,63.0,0.5,95,84.0
341,A3,63.0,0.5,95,84.0
342,C#4,63.5,0.5,95,84.0
343,F#3,63.5,0.5,95,84.0
344,C#4,64.0,0.5,95,84.0
345,A3,64.0,0.5,95,84.0
346,G2,64.0,0.5,95,84.0
347,D4,64.5,0.5,95,84.0
348,D3,64.5,0.5,95,84.0
349,B3,65.0,3.0,95,84.0
350,A3,65.0,0.5,95,84.0
351,D3,65.5,0.5,95,84.0
352,G3,66.0,0.5,95,84.0
353,G2,66.0,0.5,95,84.0
354,D3,66.5,0.5,95,84.0
355,G3,67.0,0.5,95,84.0
356,D3,67.5,0.5,95,84.0
357,D2,68.0,0.5,95,84.0
358,E3,68.375,0.125,95,84.0
359,F#3,68.5,0.5,95,84.0
360,F#3,68.5,0.5,95,84.0
361,A3,69.0,0.5,95,84.0
362,A3,69.0,0.5,95,84.0
363,F#3,69.5,0.5,95,84.0
364,F#3,69.5,0.5,95,84.0
365,A3,70.0,0.5,95,84.0
366,A3,70.0,0.5,95,84.0
367,D2,70.0,0.5,95,84.0
368,B3,70.375,0.125,95,84.0
369,C#4,70.5,1.0,95,84.0
370,F#3,70.5,0.5,95,84.0
371,A3,71.0,0.5,95,84.0
372,B3,71.5,0.5,95,84.0
373,F#3,71.5,0.5,95,84.0
374,B3,72.0,3.5,95,84.0
375,G3,72.0,0.5,95,84.0
376,G2,72.0,0.5,95,84.0
377,D3,72.5,0.5,95,84.0
378,G3,73.0,0.5,95,84.0
379,D3,73.5,0.5,95,84.0
380,G2,74.0,0.5,95,84.0
381,D3,74.5,0.5,95,84.0
382,B3,75.0,0.25,95,84.0
383,C4,75.25,0.25,95,84.0
384,C#4,75.5,0.25,95,84.0
385,D4,75.75,0.25,95,84.0
386,A3,76.0,0.5,95,84.0
387,D2,76.0,0.5,95,84.0
388,E3,76.375,0.125,95,84.0
389,F#3,76.5,0.5,95,84.0
390,F#3,76.5,0.5,95,84.0
391,A3,77.0,0.5,95,84.0
392,A3,77.0,0.5,95,84.0
393,F#3,77.5,0.5,95,84.0
394,F#3,77.5,0.5,95,84.0
395,A3,78.0,1.5,95,84.0
396,A3,78.0,0.5,95,84.0
397,D2,78.0,0.5,95,84.0
398,F#3,78.5,0.5,95,84.0
399,A3,79.0,0.5,95,84.0
400,B3,79.375,0.125,95,84.0
401,C#4,79.5,0.5,95,84.0
402,F#3,79.5,0.5,95,84.0
403,C#4,80.0,1.5,95,84.0
404,A3,80.0,0.5,95,84.0
405,G2,80.0,0.5,95,84.0
406,D3,80.5,0.5,95,84.0
407,A3,81.0,0.5,95,84.0
408,B3,81.5,0.5,95,84.0
409,D3,81.5,0.5,95,84.0
410,B3,82.0,2.0,95,84.0
411,G3,82.0,0.5,95,84.0
412,G2,82.0,0.5,95,84.0
413,D3,82.5,0.5,95,84.0
414,B3,83.0,0.25,95,84.0
415,C4,83.25,0.25,95,84.0
416,C#4,83.5,0.25,95,84.0
417,D4,83.75,0.25,95,84.0
418,A3,84.0,0.5,95,84.0
419,D2,84.0,0.5,95,84.0
420,E3,84.375,0.125,63,84.0
421,F#3,84.5,0.5,95,84.0
422,F#3,84.5,0.5,95,84.0
423,A3,85.0,0.5,95,84.0
424,A3,85.0,0.5,95,84.0
425,F#3,85.5,0.5,95,84.0
426,F#3,85.5,0.5,95,84.0
427,A3,86.0,0.5,95,84.0
428,A3,86.0,0.5,95,84.0
429,D2,86.0,0.5,95,84.0
430,B3,86.375,0.125,63,84.0
431,C#4,86.5,1.5,95,84.0
432,F#3,86.5,0.5,95,84.0
433,A3,87.0,0.5,95,84.0
434,F#3,87.5,0.5,95,84.0
435,B3,88.0,4.0,95,84.0
436,G2,88.0,0.5,95,84.0
437,D3,88.5,0.5,95,84.0
438,G3,89.0,0.5,95,84.0
439,B3,89.5,0.5,95,84.0
440,F#2,90.0,0.5,95,84.0
441,D3,90.5,0.5,95,84.0
442,A3,91.0,0.5,95,84.0
443,D3,91.5,0.5,95,84.0
444,G2,92.0,0.5,95,84.0
445,A3,92.375,0.125,95,84.0
446,B3,92.5,0.5,95,84.0
447,D3,92.5,0.5,95,84.0
448,D4,93.0,0.5,95,84.0
449,D4,93.0,0.5,95,84.0
450,B3,93.5,0.5,95,84.0
451,B3,93.5,0.5,95,84.0
452,D4,94.0,1.0,95,84.0
453,D4,94.0,0.5,95,84.0
454,F#2,94.0,0.5,95,84.0
455,D3,94.5,0.5,95,84.0
456,F#4,95.0,1.0,95,84.0
457,F#4,95.0,0.5,95,84.0
458,A3,95.0,0.5,95,84.0
459,D3,95.5,0.5,95,84.0
460,F#4,96.0,0.5,95,84.0
461,E4,96.0,0.5,95,84.0
462,E2,96.0,0.5,95,84.0
463,G4,96.5,0.5,95,84.0
464,D4,96.5,0.5,95,84.0
465,E4,97.0,2.5,95,84.0
466,B3,97.0,0.5,70,84.0
467,G3,97.5,0.5,95,84.0
468,D2,98.0,0.5,95,84.0
469,G3,98.5,0.5,95,84.0
470,D4,99.0,0.5,95,84.0
471,D4,99.5,0.5,95,84.0
472,B3,99.5,0.5,70,84.0
473,C#4,100.0,1.5,70,84.0
474,C#4,100.0,0.5,95,84.0
475,A2,100.0,0.5,95,84.0
476,E3,100.5,0.5,95,84.0
477,G3,101.0,1.0,95,84.0
478,E3,101.5,0.5,95,84.0
479,C#4,102.0,0.5,95,84.0
480,C#4,102.0,0.5,95,84.0
481,F3,102.375,0.125,95,84.0
482,F#3,102.5,0.5,95,84.0
483,C#4,102.5,0.5,79,84.0
484,G3,102.5,0.5,79,84.0
485,E3,102.5,0.5,79,84.0
486,A2,102.5,0.5,79,84.0
487,D4,103.0,0.5,95,84.0
488,F#3,103.375,0.125,95,84.0
489,G3,103.5,0.5,95,84.0
490,D4,103.5,0.5,79,84.0
491,G3,103.5,0.5,79,84.0
492,F#3,103.5,0.5,79,84.0
493,B2,103.5,0.5,79,84.0
494,E4,104.0,1.5,95,84.0
495,E4,104.0,1.0,95,84.0
496,G3,104.0,1.0,95,84.0
497,A2,104.0,1.0,95,84.0
498,C#4,105.875,0.125,95,84.0
499,E4,105.875,0.125,95,84.0
500,D4,106.0,0.5,95,84.0
501,F#4,106.0,0.5,95,84.0
502,E4,106.5,1.0,95,84.0
503,A4,106.5,1.0,95,84.0
504,F#4,107.375,0.125,95,84.0
505,D4,107.5,0.25,95,84.0
506,E4,107.5,0.5,95,84.0
507,C#4,107.75,0.25,95,84.0
508,B3,108.0,1.5,95,84.0
509,D4,108.0,0.5,95,84.0
510,G2,108.0,0.5,95,84.0
511,D3,108.5,0.5,95,84.0
512,B3,109.0,0.5,95,84.0
513,G4,109.5,0.5,95,84.0
514,D4,109.5,0.5,95,84.0
515,E4,110.0,0.5,95,84.0
516,C#4,110.0,0.5,95,84.0
517,A2,110.0,0.5,95,84.0
518,F#4,110.5,0.25,95,84.0
519,C#4,110.5,167/1000,95,84.0
520,G3,110.5,167/1000,95,84.0
521,E3,110.5,167/1000,95,84.0
522,D4,110.667,167/1000,95,84.0
523,E4,110.75,0.25,95,84.0
524,C#4,110.833,167/1000,95,84.0
525,D4,111.0,0.5,95,84.0
526,B3,111.0,0.5,95,84.0
527,E4,111.5,0.5,95,84.0
528,C#4,111.5,0.5,95,84.0
529,F#4,112.0,0.5,95,84.0
530,D4,112.0,0.5,95,84.0
531,D2,112.0,0.5,95,84.0
532,A3,112.5,0.5,95,84.0
533,F#3,112.5,0.5,95,84.0
534,D4,113.0,0.5,95,84.0
535,D4,113.0,0.5,95,84.0
536,A3,113.0,0.5,95,84.0
537,A3,113.5,0.5,95,84.0
538,F#3,113.5,0.5,95,84.0
539,F#3,114.0,0.5,95,84.0
540,F#2,114.0,0.5,95,84.0
541,B-3,114.5,0.5,95,84.0
542,E3,114.5,0.5,95,84.0
543,C#4,115.0,0.5,95,84.0
544,B-3,115.0,0.5,95,84.0
545,E4,115.5,0.5,95,84.0
546,F#2,115.5,0.5,95,84.0
547,D4,116.0,1.0,95,84.0
548,G2,116.0,0.5,95,84.0
549,D3,116.5,0.5,95,84.0
550,D4,117.0,0.5,95,84.0
551,B3,117.0,0.5,95,84.0
552,G4,117.5,0.5,95,84.0
553,D4,117.5,0.5,95,84.0
554,E4,118.0,0.5,95,84.0
555,C#4,118.0,0.5,95,84.0
556,A2,118.0,0.5,95,84.0
557,F#4,118.5,0.25,95,84.0
558,C#4,118.5,167/1000,95,84.0
559,G3,118.5,167/1000,95,84.0
560,E3,118.5,167/1000,95,84.0
561,D4,118.667,167/1000,95,84.0
562,E4,118.75,0.25,95,84.0
563,C#4,118.833,167/1000,95,84.0
564,D4,119.0,0.5,95,84.0
565,B3,119.0,0.5,95,84.0
566,E4,119.5,0.5,95,84.0
567,B3,119.5,0.5,95,84.0
568,F#4,120.0,0.5,95,84.0
569,F#3,120.0,1.0,95,84.0
570,D2,120.0,1.0,95,84.0
571,D4,120.5,0.5,95,84.0
572,A3,121.0,0.5,79,84.0
573,D4,121.0,0.5,95,84.0
574,A3,121.0,0.5,95,84.0
575,F3,121.5,0.25,63,84.0
576,F#3,121.5,0.5,95,84.0
577,F#3,121.75,0.25,54,84.0
578,E3,122.0,0.5,79,84.0
579,F#2,122.0,0.5,95,84.0
580,B-3,122.5,0.5,95,84.0
581,B-3,122.5,0.5,95,84.0
582,C#4,123.0,0.5,95,84.0
583,B-3,123.0,0.5,95,84.0
584,E4,123.5,0.5,95,84.0
585,F#2,123.5,0.5,95,84.0
586,D4,124.0,1.0,95,84.0
587,G2,124.0,0.5,95,84.0
588,D3,124.5,0.5,95,84.0
589,D4,125.0,0.5,95,84.0
590,B3,125.0,0.5,95,84.0
591,G4,125.5,0.5,95,84.0
592,D4,125.5,0.5,95,84.0
593,E4,126.0,0.5,95,84.0
594,C#4,126.0,0.5,95,84.0
595,A2,126.0,0.5,95,84.0
596,F#4,126.5,0.25,95,84.0
597,D4,126.5,0.25,95,84.0
598,E3,126.5,0.25,95,84.0
599,E4,126.75,0.25,95,84.0
600,C#4,126.75,0.25,95,84.0
601,D4,127.0,0.5,95,84.0
602,B3,127.0,0.5,95,84.0
603,E4,127.5,0.5,95,84.0
604,C#4,127.5,0.5,95,84.0
605,A2,127.5,0.5,95,84.0
606,F#4,128.0,0.5,95,84.0
607,D4,128.0,0.5,95,84.0
608,D2,128.0,0.5,95,84.0
609,A3,128.5,0.5,95,84.0
610,F#3,128.5,0.5,95,84.0
611,D4,129.0,0.5,95,84.0
612,D4,129.0,0.5,95,84.0
613,A3,129.0,0.5,95,84.0
614,A3,129.5,0.5,95,84.0
615,F#3,129.5,0.5,95,84.0
616,F#3,130.0,0.25,95,84.0
617,F#2,130.0,0.5,95,84.0
618,B-3,130.25,0.25,95,84.0
619,C#4,130.5,0.25,95,84.0
620,E3,130.5,0.5,95,84.0
621,E4,130.75,0.25,95,84.0
622,G4,131.0,0.25,95,84.0
623,B-3,131.0,0.5,95,84.0
624,F#4,131.25,0.25,95,84.0
625,E4,131.5,0.25,95,84.0
626,F#2,131.5,0.5,95,84.0
627,D4,131.75,0.25,95,84.0
628,B3,132.0,1.5,79,84.0
629,G2,132.0,0.5,79,84.0
630,D3,132.5,0.5,95,84.0
631,B3,133.0,0.5,95,84.0
632,G4,133.5,0.5,95,84.0
633,D4,133.5,0.5,79,84.0
634,G4,133.875,0.125,63,84.0
635,A4,134.0,0.5,95,84.0
636,E4,134.0,0.5,87,84.0
637,A2,134.0,0.5,87,84.0
638,B4,134.5,0.25,95,84.0
639,F#4,134.5,0.25,87,84.0
640,G3,134.5,0.25,87,84.0
641,A4,134.75,0.25,95,84.0
642,E4,134.75,0.25,79,84.0
643,G4,135.0,0.5,95,84.0
644,D4,135.0,0.5,95,84.0
645,F#4,135.5,0.5,95,84.0
646,E4,135.5,0.5,95,84.0
647,E4,135.875,0.125,95,84.0
648,A4,136.0,0.5,95,84.0
649,A4,136.0,0.5,95,84.0
650,F#4,136.0,0.5,95,84.0
651,D2,136.0,0.5,95,84.0
652,F#4,136.5,0.5,95,84.0
653,F#4,136.5,0.5,95,84.0
654,D4,136.5,0.5,95,84.0
655,F#4,137.0,3.0,95,84.0
656,F#4,137.0,2.0,95,84.0
657,D4,137.0,2.0,95,84.0
658,A2,138.5,0.5,95,84.0
659,D3,139.0,0.5,95,84.0
660,A2,139.5,0.5,95,84.0
661,F#4,140.0,0.5,95,84.0
662,A3,140.0,0.5,95,84.0
663,D2,140.0,0.5,95,84.0
664,E4,140.375,0.125,95,84.0
665,F#4,140.5,0.5,95,84.0
666,F#3,140.5,0.5,95,84.0
667,A4,141.0,0.5,95,84.0
668,F#4,141.0,0.5,95,84.0
669,F#4,141.5,0.5,95,84.0
670,D4,141.5,0.5,95,84.0
671,A4,142.0,1.0,95,84.0
672,F#4,142.0,0.5,95,84.0
673,D2,142.0,0.5,95,84.0
674,F#3,142.5,0.5,95,84.0
675,A3,143.0,0.5,95,84.0
676,C#5,143.0,1.0,95,84.0
677,A4,143.0,1.0,95,84.0
678,D3,143.5,0.5,95,84.0
679,C#5,144.0,0.5,95,84.0
680,A4,144.0,0.5,95,84.0
681,G2,144.0,0.5,95,84.0
682,A4,144.5,0.5,95,84.0
683,D3,144.5,0.5,95,84.0
684,B4,145.0,0.5,95,84.0
685,B3,145.0,0.5,95,84.0
686,G3,145.0,0.5,95,84.0
687,B4,145.5,2.5,95,84.0
688,D3,145.5,0.5,95,84.0
689,G4,146.0,0.5,95,84.0
690,G2,146.0,0.5,95,84.0
691,B3,146.5,0.5,95,84.0
692,G3,146.5,0.5,95,84.0
693,B3,147.0,0.25,95,84.0
694,C4,147.25,0.25,95,84.0
695,C#4,147.5,0.25,95,84.0
696,D4,147.75,0.25,95,84.0
697,A3,148.0,0.5,95,84.0
698,D2,148.0,0.5,95,84.0
699,F#3,148.5,0.5,95,84.0
700,A4,149.0,0.25,95,84.0
701,F#4,149.0,0.5,95,84.0
702,D4,149.0,0.5,95,84.0
703,A3,149.0,0.5,95,84.0
704,G4,149.25,0.25,95,84.0
705,F#4,149.5,0.25,95,84.0
706,D4,149.5,0.5,95,84.0
707,G4,149.75,0.25,70,84.0
708,A4,150.0,1.5,95,84.0
709,F#4,150.0,0.5,95,84.0
710,D2,150.0,0.5,95,84.0
711,F#3,150.5,0.5,95,84.0
712,A4,151.0,0.5,95,84.0
713,D4,151.0,0.5,95,84.0
714,B4,151.375,0.125,63,84.0
715,C#5,151.5,0.5,95,84.0
716,D3,151.5,0.5,95,84.0
717,B4,152.0,4.0,95,84.0
718,G4,152.0,0.5,95,84.0
719,G2,152.0,0.5,95,84.0
720,D3,152.5,0.5,95,84.0
721,B3,153.0,0.5,95,84.0
722,G3,153.0,0.5,95,84.0
723,D3,153.5,0.5,95,84.0
724,G2,154.0,0.5,95,84.0
725,D3,154.5,0.5,95,84.0
726,B3,155.0,0.25,95,84.0
727,C4,155.25,0.25,95,84.0
728,C#4,155.5,0.25,95,84.0
729,D4,155.75,0.25,95,84.0
730,A3,156.0,1.0,95,84.0
731,D2,156.0,1.0,95,84.0
732,E4,156.375,0.125,95,84.0
733,F#4,156.5,0.5,95,84.0
734,A4,157.0,0.5,95,84.0
735,F#4,157.0,0.5,95,84.0
736,A3,157.0,0.5,95,84.0
737,F#4,157.5,0.5,95,84.0
738,D4,157.5,0.5,95,84.0
739,A3,157.5,0.5,95,84.0
740,A4,158.0,1.5,95,84.0
741,F#4,158.0,0.5,95,84.0
742,D2,158.0,0.5,95,84.0
743,F#3,158.5,0.5,95,84.0
744,A4,159.0,0.5,95,84.0
745,A3,159.0,0.5,95,84.0
746,D3,159.5,0.5,95,84.0
747,C#5,159.5,0.5,95,84.0
748,A4,159.5,0.5,95,84.0
749,C#5,160.0,0.5,95,84.0
750,A4,160.0,0.5,95,84.0
751,G2,160.0,0.5,95,84.0
752,D5,160.5,0.5,95,84.0
753,D3,160.5,0.5,95,84.0
754,B4,161.0,1.5,95,84.0
755,B3,161.0,0.5,95,84.0
756,G3,161.0,0.5,95,84.0
757,D3,161.5,0.5,95,84.0
758,G4,162.0,0.5,95,84.0
759,G2,162.0,0.5,95,84.0
760,A4,162.5,0.5,95,84.0
761,B3,162.5,0.5,95,84.0
762,G3,162.5,0.5,95,84.0
763,G4,163.0,0.5,95,84.0
764,B3,163.0,0.25,95,84.0
765,C4,163.25,0.25,95,84.0
766,F#4,163.5,0.5,95,84.0
767,C#4,163.5,0.25,95,84.0
768,D4,163.75,0.25,95,84.0
769,A4,164.0,1.25,95,84.0
770,A3,164.0,0.5,95,84.0
771,D2,164.0,0.5,95,84.0
772,F#3,164.5,0.5,95,84.0
773,F#4,165.0,0.5,95,84.0
774,A3,165.0,0.5,95,84.0
775,G4,165.25,0.25,95,84.0
776,F#4,165.5,0.25,95,84.0
777,D4,165.5,0.5,95,84.0
778,A3,165.5,0.5,95,84.0
779,G4,165.75,0.25,95,84.0
780,A4,166.0,0.5,95,84.0
781,F#4,166.0,0.5,95,84.0
782,D2,166.0,0.5,95,84.0
783,B4,166.375,0.125,79,84.0
784,C#5,166.5,1.0,95,84.0
785,F#3,166.5,0.5,95,84.0
786,D4,167.0,0.5,95,84.0
787,A3,167.0,0.5,95,84.0
788,D5,167.5,0.5,95,84.0
789,D3,167.5,0.5,95,84.0
790,B4,168.0,4.0,79,84.0
791,B3,168.0,0.5,95,84.0
792,G3,168.0,0.5,95,84.0
793,G2,168.0,0.5,95,84.0
794,D3,168.5,0.5,95,84.0
795,G3,169.0,0.5,95,84.0
796,B3,169.5,0.5,95,84.0
797,F#2,170.0,0.5,95,84.0
798,D3,170.5,0.5,95,84.0
799,B3,171.0,0.5,95,84.0
800,A3,171.0,0.5,95,84.0
801,F#2,171.5,0.5,95,84.0
802,G2,172.0,0.5,95,84.0
803,A3,172.375,0.125,79,84.0
804,B3,172.5,0.5,95,84.0
805,D3,172.5,0.5,95,84.0
806,D4,173.0,0.5,95,84.0
807,D4,173.0,0.5,95,84.0
808,B3,173.5,0.5,95,84.0
809,B3,173.5,0.5,95,84.0
810,D4,174.0,1.5,95,84.0
811,D4,174.0,0.5,95,84.0
812,F#2,174.0,0.5,95,84.0
813,D3,174.5,0.5,95,84.0
814,F#4,175.0,0.5,95,84.0
815,A3,175.0,0.5,95,84.0
816,B3,175.5,0.125,63,84.0
817,D3,175.5,0.5,95,84.0
818,C#4,175.625,0.125,63,84.0
819,F#4,175.75,0.25,79,84.0
820,A4,176.0,0.5,95,84.0
821,E4,176.0,0.5,95,84.0
822,E2,176.0,0.5,95,84.0
823,G4,176.5,0.5,79,84.0
824,D4,176.5,0.5,95,84.0
825,F#4,177.0,0.5,95,84.0
826,B3,177.0,0.5,70,84.0
827,E4,177.5,0.5,79,84.0
828,G3,177.5,0.5,95,84.0
829,G4,178.0,0.5,95,84.0
830,D2,178.0,0.5,95,84.0
831,F#4,178.5,0.5,79,84.0
832,G3,178.5,0.5,95,84.0
833,E4,179.0,0.5,95,84.0
834,D4,179.0,0.5,95,84.0
835,D4,179.5,0.5,79,84.0
836,B3,179.5,0.5,70,84.0
837,E4,180.0,1.5,95,84.0
838,C#4,180.0,1.5,95,84.0
839,C#4,180.0,0.5,95,84.0
840,A2,180.0,0.5,95,84.0
841,E3,180.5,0.5,95,84.0
842,G3,181.0,0.5,95,84.0
843,C#4,181.5,0.5,95,84.0
844,C#4,181.5,0.5,95,84.0
845,A3,181.5,0.5,95,84.0
846,C#4,182.0,0.5,95,84.0
847,A3,182.0,0.5,95,84.0
848,C#4,182.0,0.5,87,84.0
849,G3,182.0,0.5,87,84.0
850,E3,182.0,0.5,87,84.0
851,A2,182.0,0.5,87,84.0
852,D4,182.5,0.5,95,84.0
853,B3,182.5,0.5,95,84.0
854,D4,183.0,0.5,95,84.0
855,B3,183.0,0.5,95,84.0
856,D4,183.0,1.0,84,84.0
857,B3,183.0,1.0,84,84.0
858,F#3,183.0,1.0,84,84.0
859,E4,183.5,0.5,95,84.0
860,C#4,183.5,0.5,95,84.0
861,E4,184.0,1.5,95,84.0
862,C#4,184.0,1.5,95,84.0
863,E4,184.0,1.5,75,84.0
864,C#4,184.0,1.5,75,84.0
865,G3,184.0,1.5,75,84.0
866,A2,184.0,1.5,75,84.0
867,C#4,185.875,0.125,79,84.0
868,E4,185.875,0.125,63,84.0
869,D4,186.0,0.5,95,84.0
870,F#4,186.0,0.5,95,84.0
871,E4,186.5,1.0,95,84.0
872,A4,186.5,1.0,95,84.0
873,D4,187.5,0.25,95,84.0
874,F#4,187.5,0.25,95,84.0
875,C#4,187.75,0.25,95,84.0
876,E4,187.75,0.25,95,84.0
877,B3,188.0,1.5,95,84.0
878,D4,188.0,0.5,95,84.0
879,G2,188.0,0.5,95,84.0
880,D3,188.5,0.5,95,84.0
881,B3,189.0,0.5,95,84.0
882,G4,189.5,0.5,95,84.0
883,D4,189.5,0.5,95,84.0
884,E4,190.0,0.5,95,84.0
885,C#4,190.0,0.5,95,84.0
886,A2,190.0,0.5,95,84.0
887,F#4,190.5,0.25,95,84.0
888,C#4,190.5,167/1000,95,84.0
889,G3,190.5,167/1000,95,84.0
890,E3,190.5,167/1000,95,84.0
891,D4,190.667,167/1000,95,84.0
892,E4,190.75,0.25,95,84.0
893,C#4,190.833,167/1000,95,84.0
894,D4,191.0,0.5,95,84.0
895,B3,191.0,0.5,95,84.0
896,E4,191.5,0.5,95,84.0
897,C#4,191.5,0.5,95,84.0
898,F#4,192.0,0.5,95,84.0
899,D4,192.0,0.5,95,84.0
900,D2,192.0,0.5,95,84.0
901,A3,192.5,0.5,95,84.0
902,F#3,192.5,0.5,95,84.0
903,D4,193.0,0.5,95,84.0
904,D4,193.0,0.5,95,84.0
905,A3,193.0,0.5,95,84.0
906,A3,193.5,0.5,95,84.0
907,F#3,193.5,0.5,95,84.0
908,F#3,194.0,0.5,95,84.0
909,F#2,194.0,0.5,95,84.0
910,B-3,194.5,0.5,95,84.0
911,E3,194.5,0.5,95,84.0
912,C#4,195.0,0.5,95,84.0
913,B-3,195.0,0.5,95,84.0
914,E4,195.5,0.5,95,84.0
915,F#2,195.5,0.5,95,84.0
916,D4,196.0,1.0,95,84.0
917,G2,196.0,0.5,95,84.0
918,D3,196.5,0.5,95,84.0
919,D4,197.0,0.5,95,84.0
920,B3,197.0,0.5,95,84.0
921,G4,197.5,0.5,95,84.0
922,D4,197.5,0.5,95,84.0
923,E4,198.0,0.5,95,84.0
924,C#4,198.0,0.5,95,84.0
925,A2,198.0,0.5,95,84.0
926,F#4,198.5,0.25,95,84.0
927,C#4,198.5,167/1000,95,84.0
928,G3,198.5,167/1000,95,84.0
929,E3,198.5,167/1000,95,84.0
930,D4,198.667,167/1000,95,84.0
931,E4,198.75,0.25,95,84.0
932,C#4,198.833,167/1000,95,84.0
933,D4,199.0,0.5,95,84.0
934,B3,199.0,0.5,95,84.0
935,E4,199.5,0.5,95,84.0
936,B3,199.5,0.5,95,84.0
937,F#4,200.0,0.5,95,84.0
938,F#3,200.0,1.0,95,84.0
939,D2,200.0,1.0,95,84.0
940,D4,200.5,0.5,95,84.0
941,A3,201.0,0.5,79,84.0
942,D4,201.0,0.5,95,84.0
943,A3,201.0,0.5,95,84.0
944,F3,201.5,0.25,63,84.0
945,F#3,201.5,0.5,95,84.0
946,F#3,201.75,0.25,54,84.0
947,E3,202.0,0.5,79,84.0
948,F#2,202.0,0.5,95,84.0
949,B-3,202.5,0.5,95,84.0
950,B-3,202.5,0.5,95,84.0
951,C#4,203.0,0.5,95,84.0
952,B-3,203.0,0.5,95,84.0
953,E4,203.5,0.5,95,84.0
954,F#2,203.5,0.5,95,84.0
955,D4,204.0,1.0,95,84.0
956,G2,204.0,0.5,95,84.0
957,D3,204.5,0.5,95,84.0
958,D4,205.0,0.5,95,84.0
959,B3,205.0,0.5,95,84.0
960,G4,205.5,0.5,95,84.0
961,D4,205.5,0.5,95,84.0
962,E4,206.0,0.5,95,84.0
963,C#4,206.0,0.5,95,84.0
964,A2,206.0,0.5,95,84.0
965,F#4,206.5,0.25,95,84.0
966,D4,206.5,0.25,95,84.0
967,E3,206.5,0.25,95,84.0
968,E4,206.75,0.25,95,84.0
969,C#4,206.75,0.25,95,84.0
970,D4,207.0,0.5,95,84.0
971,B3,207.0,0.5,95,84.0
972,E4,207.5,0.5,95,84.0
973,C#4,207.5,0.5,95,84.0
974,A2,207.5,0.5,95,84.0
975,F#4,208.0,0.5,95,84.0
976,D4,208.0,0.5,95,84.0
977,D2,208.0,0.5,95,84.0
978,A3,208.5,0.5,95,84.0
979,F#3,208.5,0.5,95,84.0
980,D4,209.0,0.5,95,84.0
981,D4,209.0,0.5,95,84.0
982,A3,209.0,0.5,95,84.0
983,A3,209.5,0.5,95,84.0
984,F#3,209.5,0.5,95,84.0
985,F#3,210.0,0.25,95,84.0
986,F#2,210.0,0.5,95,84.0
987,B-3,210.25,0.25,95,84.0
988,C#4,210.5,0.25,95,84.0
989,E3,210.5,0.5,95,84.0
990,E4,210.75,0.25,95,84.0
991,G4,211.0,0.25,95,84.0
992,B-3,211.0,0.5,95,84.0
993,F#4,211.25,0.25,95,84.0
994,E4,211.5,0.25,95,84.0
995,F#2,211.5,0.5,95,84.0
996,D4,211.75,0.25,95,84.0
997,B3,212.0,1.5,79,84.0
998,G2,212.0,0.5,79,84.0
999,D3,212.5,0.5,95,84.0
1000,B3,213.0,0.5,95,84.0
1001,G4,213.5,0.5,95,84.0
1002,D4,213.5,0.5,79,84.0
1003,G4,213.875,0.125,63,84.0
1004,A4,214.0,0.5,95,84.0
1005,E4,214.0,0.5,87,84.0
1006,A2,214.0,0.5,87,84.0
1007,B4,214.5,0.25,95,84.0
1008,F#4,214.5,0.25,87,84.0
1009,G3,214.5,0.25,87,84.0
1010,A4,214.75,0.25,95,84.0
1011,E4,214.75,0.25,79,84.0
1012,G4,215.0,0.5,95,84.0
1013,D4,215.0,0.5,95,84.0
1014,F#4,215.5,0.5,95,84.0
1015,E4,215.5,0.5,95,84.0
1016,E4,215.875,0.125,95,84.0
1017,A4,216.0,0.5,95,84.0
1018,A4,216.0,0.5,95,84.0
1019,F#4,216.0,0.5,95,84.0
1020,D2,216.0,0.5,95,84.0
1021,F#4,216.5,0.5,95,84.0
1022,F#4,216.5,0.5,95,84.0
1023,D4,216.5,0.5,95,84.0
1024,F#4,217.0,3.0,95,84.0
1025,F#4,217.0,2.0,95,84.0
1026,D4,217.0,2.0,95,84.0
1027,A2,218.5,0.5,95,84.0
1028,D3,219.0,0.5,95,84.0
1029,A2,219.5,0.5,95,84.0
1030,F#4,220.0,0.5,95,84.0
1031,A3,220.0,0.5,95,84.0
1032,D2,220.0,0.5,95,84.0
1033,E4,220.375,0.125,95,84.0
1034,F#4,220.5,0.5,95,84.0
1035,F#3,220.5,0.5,95,84.0
1036,A4,221.0,0.5,95,84.0
1037,F#4,221.0,0.5,95,84.0
1038,F#4,221.5,0.5,95,84.0
1039,D4,221.5,0.5,95,84.0
1040,A4,222.0,1.0,95,84.0
1041,F#4,222.0,0.5,95,84.0
1042,D2,222.0,0.5,95,84.0
1043,F#3,222.5,0.5,95,84.0
1044,A3,223.0,0.5,95,84.0
1045,C#5,223.0,1.0,95,84.0
1046,A4,223.0,1.0,95,84.0
1047,D3,223.5,0.5,95,84.0
1048,C#5,224.0,0.5,95,84.0
1049,A4,224.0,0.5,95,84.0
1050,G2,224.0,0.5,95,84.0
1051,A4,224.5,0.5,95,84.0
1052,D3,224.5,0.5,95,84.0
1053,B4,225.0,0.5,95,84.0
1054,B3,225.0,0.5,95,84.0
1055,G3,225.0,0.5,95,84.0
1056,B4,225.5,2.5,95,84.0
1057,D3,225.5,0.5,95,84.0
1058,G4,226.0,0.5,95,84.0
1059,G2,226.0,0.5,95,84.0
1060,B3,226.5,0.5,95,84.0
1061,G3,226.5,0.5,95,84.0
1062,B3,227.0,0.25,95,84.0
1063,C4,227.25,0.25,95,84.0
1064,C#4,227.5,0.25,95,84.0
1065,D4,227.75,0.25,95,84.0
1066,A3,228.0,0.5,95,84.0
1067,D2,228.0,0.5,95,84.0
1068,F#3,228.5,0.5,95,84.0
1069,A4,229.0,0.25,95,84.0
1070,F#4,229.0,0.5,95,84.0
1071,D4,229.0,0.5,95,84.0
1072,A3,229.0,0.5,95,84.0
1073,G4,229.25,0.25,95,84.0
1074,F#4,229.5,0.25,95,84.0
1075,D4,229.5,0.5,95,84.0
1076,G4,229.75,0.25,70,84.0
1077,A4,230.0,1.5,95,84.0
1078,F#4,230.0,0.5,95,84.0
1079,D2,230.0,0.5,95,84.0
1080,F#3,230.5,0.5,95,84.0
1081,A4,231.0,0.5,95,84.0
1082,D4,231.0,0.5,95,84.0
1083,B4,231.375,0.125,63,84.0
1084,C#5,231.5,0.5,95,84.0
1085,D3,231.5,0.5,95,84.0
1086,B4,232.0,4.0,95,84.0
1087,G4,232.0,0.5,95,84.0
1088,G2,232.0,0.5,95,84.0
1089,D3,232.5,0.5,95,84.0
1090,B3,233.0,0.5,95,84.0
1091,G3,233.0,0.5,95,84.0
1092,D3,233.5,0.5,95,84.0
1093,G2,234.0,0.5,95,84.0
1094,D3,234.5,0.5,95,84.0
1095,B3,235.0,0.25,95,84.0
1096,C4,235.25,0.25,95,84.0
1097,C#4,235.5,0.25,95,84.0
1098,D4,235.75,0.25,95,84.0
1099,A3,236.0,1.0,95,84.0
1100,D2,236.0,1.0,95,84.0
1101,E4,236.375,0.125,95,84.0
1102,F#4,236.5,0.5,95,84.0
1103,A4,237.0,0.5,95,84.0
1104,F#4,237.0,0.5,95,84.0
1105,A3,237.0,0.5,95,84.0
1106,F#4,237.5,0.5,95,84.0
1107,D4,237.5,0.5,95,84.0
1108,A3,237.5,0.5,95,84.0
1109,A4,238.0,1.5,95,84.0
1110,F#4,238.0,0.5,95,84.0
1111,D2,238.0,0.5,95,84.0
1112,F#3,238.5,0.5,95,84.0
1113,A4,239.0,0.5,95,84.0
1114,A3,239.0,0.5,95,84.0
1115,D3,239.5,0.5,95,84.0
1116,C#5,239.5,0.5,95,84.0
1117,A4,239.5,0.5,95,84.0
1118,C#5,240.0,0.5,95,84.0
1119,A4,240.0,0.5,95,84.0
1120,G2,240.0,0.5,95,84.0
1121,D5,240.5,0.5,95,84.0
1122,D3,240.5,0.5,95,84.0
1123,B4,241.0,1.5,95,84.0
1124,B3,241.0,0.5,95,84.0
1125,G3,241.0,0.5,95,84.0
1126,D3,241.5,0.5,95,84.0
1127,G4,242.0,0.5,95,84.0
1128,G2,242.0,0.5,95,84.0
1129,A4,242.5,0.5,95,84.0
1130,B3,242.5,0.5,95,84.0
1131,G3,242.5,0.5,95,84.0
1132,G4,243.0,0.5,95,84.0
1133,B3,243.0,0.25,95,84.0
1134,C4,243.25,0.25,95,84.0
1135,F#4,243.5,0.5,95,84.0
1136,C#4,243.5,0.25,95,84.0
1137,D4,243.75,0.25,95,84.0
1138,A4,244.0,1.25,95,84.0
1139,A3,244.0,0.5,95,84.0
1140,D2,244.0,0.5,95,84.0
1141,F#3,244.5,0.5,95,84.0
1142,F#4,245.0,0.5,95,84.0
1143,A3,245.0,0.5,95,84.0
1144,G4,245.25,0.25,95,84.0
1145,F#4,245.5,0.25,95,84.0
1146,D4,245.5,0.5,95,84.0
1147,A3,245.5,0.5,95,84.0
1148,G4,245.75,0.25,95,84.0
1149,A4,246.0,0.5,95,84.0
1150,F#4,246.0,0.5,95,84.0
1151,D2,246.0,0.5,95,84.0
1152,B4,246.375,0.125,79,84.0
1153,C#5,246.5,1.0,95,84.0
1154,F#3,246.5,0.5,95,84.0
1155,D4,247.0,0.5,95,84.0
1156,A3,247.0,0.5,95,84.0
1157,D5,247.5,0.5,95,84.0
1158,D3,247.5,0.5,95,84.0
1159,B4,248.0,4.0,79,84.0
1160,B3,248.0,0.5,95,84.0
1161,G3,248.0,0.5,95,84.0
1162,G2,248.0,0.5,95,84.0
1163,D3,248.5,0.5,95,84.0
1164,G3,249.0,0.5,95,84.0
1165,B3,249.5,0.5,95,84.0
1166,F#2,250.0,0.5,95,84.0
1167,D3,250.5,0.5,95,84.0
1168,B3,251.0,0.5,95,84.0
1169,A3,251.0,0.5,95,84.0
1170,F#2,251.5,0.5,95,84.0
1171,G2,252.0,0.5,95,84.0
1172,A3,252.375,0.125,79,84.0
1173,B3,252.5,0.5,95,84.0
1174,D3,252.5,0.5,95,84.0
1175,D4,253.0,0.5,95,84.0
1176,D4,253.0,0.5,95,84.0
1177,B3,253.5,0.5,95,84.0
1178,B3,253.5,0.5,95,84.0
1179,D4,254.0,1.5,95,84.0
1180,D4,254.0,0.5,95,84.0
1181,F#2,254.0,0.5,95,84.0
1182,D3,254.5,0.5,95,84.0
1183,F#4,255.0,0.5,95,84.0
1184,A3,255.0,0.5,95,84.0
1185,B3,255.5,0.125,63,84.0
1186,D3,255.5,0.5,95,84.0
1187,C#4,255.625,0.125,63,84.0
1188,F#4,255.75,0.25,79,84.0
1189,A4,256.0,0.5,95,84.0
1190,E4,256.0,0.5,95,84.0
1191,E2,256.0,0.5,95,84.0
1192,G4,256.5,0.5,79,84.0
1193,D4,256.5,0.5,95,84.0
1194,F#4,257.0,0.5,95,84.0
1195,B3,257.0,0.5,70,84.0
1196,E4,257.5,0.5,79,84.0
1197,G3,257.5,0.5,95,84.0
1198,G4,258.0,0.5,95,84.0
1199,D2,258.0,0.5,95,84.0
1200,F#4,258.5,0.5,79,84.0
1201,G3,258.5,0.5,95,84.0
1202,E4,259.0,0.5,95,84.0
1203,D4,259.0,0.5,95,84.0
1204,D4,259.5,0.5,79,84.0
1205,B3,259.5,0.5,70,84.0
1206,E4,260.0,1.5,95,84.0
1207,C#4,260.0,1.5,95,84.0
1208,C#4,260.0,0.5,95,84.0
1209,A2,260.0,0.5,95,84.0
1210,E3,260.5,0.5,95,84.0
1211,G3,261.0,0.5,95,84.0
1212,C#4,261.5,0.5,95,84.0
1213,C#4,261.5,0.5,95,84.0
1214,A3,261.5,0.5,95,84.0
1215,C#4,262.0,0.5,95,84.0
1216,A3,262.0,0.5,95,84.0
1217,C#4,262.0,0.5,87,84.0
1218,G3,262.0,0.5,87,84.0
1219,E3,262.0,0.5,87,84.0
1220,A2,262.0,0.5,87,84.0
1221,D4,262.5,0.5,95,84.0
1222,B3,262.5,0.5,95,84.0
1223,D4,263.0,0.5,95,84.0
1224,B3,263.0,0.5,95,84.0
1225,D4,263.0,1.0,84,84.0
1226,B3,263.0,1.0,84,84.0
1227,F#3,263.0,1.0,84,84.0
1228,E4,263.5,0.5,95,84.0
1229,C#4,263.5,0.5,95,84.0
1230,E4,264.0,2.0,95,84.0
1231,C#4,264.0,2.0,95,84.0
1232,E4,264.0,1.5,95,84.0
1233,C#4,264.0,1.5,95,84.0
1234,G3,264.0,1.5,95,84.0
1235,A2,264.0,1.5,95,84.0
1236,E4,265.875,0.125,79,84.0
1237,F#4,266.0,0.5,95,84.0
1238,F#4,266.0,0.5,95,84.0
1239,D4,266.0,0.5,95,84.0
1240,A4,266.5,1.0,95,84.0
1241,A4,266.5,1.0,95,84.0
1242,E4,266.5,1.0,95,84.0
1243,D4,267.5,0.25,95,84.0
1244,F#4,267.5,0.25,95,84.0
1245,C#4,267.75,0.25,95,84.0
1246,E4,267.75,0.25,95,84.0
1247,B3,268.0,1.0,95,84.0
1248,D4,268.0,0.5,95,84.0
1249,G2,268.0,0.5,95,84.0
1250,D3,268.5,0.5,95,84.0
1251,G4,269.0,0.5,95,84.0
1252,B3,269.0,0.5,95,84.0
1253,B4,269.5,0.5,95,84.0
1254,D4,269.5,0.5,95,84.0
1255,A4,270.0,0.5,95,84.0
1256,C#4,270.0,0.5,95,84.0
1257,A2,270.0,0.5,95,84.0
1258,B4,270.5,0.25,95,84.0
1259,C#4,270.5,167/1000,95,84.0
1260,G3,270.5,167/1000,95,84.0
1261,E3,270.5,167/1000,95,84.0
1262,D4,270.667,167/1000,95,84.0
1263,A4,270.75,0.25,95,84.0
1264,C#4,270.833,167/1000,95,84.0
1265,G4,271.0,0.5,95,84.0
1266,B3,271.0,0.5,95,84.0
1267,F#4,271.5,0.5,95,84.0
1268,C#4,271.5,0.5,95,84.0
1269,A4,272.0,0.5,95,84.0
1270,D4,272.0,0.5,95,84.0
1271,D2,272.0,0.5,95,84.0
1272,A4,272.5,1.5,95,84.0
1273,F#3,272.5,0.5,95,84.0
1274,D4,273.0,1.0,95,84.0
1275,A3,273.0,1.0,95,84.0
1276,B-4,274.0,1.5,95,84.0
1277,F#2,274.0,0.5,95,84.0
1278,E3,274.5,0.5,95,84.0
1279,B-3,275.0,0.5,95,84.0
1280,A4,275.5,0.5,95,84.0
1281,E3,275.5,0.5,95,84.0
1282,G4,276.0,1.0,79,84.0
1283,G2,276.0,0.5,95,84.0
1284,D3,276.5,0.5,95,84.0
1285,G4,277.0,0.5,95,84.0
1286,B3,277.0,0.5,95,84.0
1287,B4,277.5,0.5,95,84.0
1288,D4,277.5,0.5,95,84.0
1289,A4,278.0,0.5,95,84.0
1290,C#4,278.0,0.5,95,84.0
1291,B4,278.5,0.25,95,84.0
1292,C#4,278.5,167/1000,95,84.0
1293,G3,278.5,167/1000,95,84.0
1294,E3,278.5,167/1000,95,84.0
1295,D4,278.667,167/1000,95,84.0
1296,A4,278.75,0.25,95,84.0
1297,C#4,278.833,167/1000,95,84.0
1298,G4,279.0,0.5,95,84.0
1299,B3,279.0,0.5,95,84.0
1300,F#4,279.5,0.5,95,84.0
1301,B3,279.5,0.5,95,84.0
1302,G4,279.875,0.125,79,84.0
1303,A4,280.0,2.0,95,84.0
1304,F#3,280.0,0.5,95,84.0
1305,D2,280.0,0.5,95,84.0
1306,F#3,280.5,0.5,95,84.0
1307,D4,281.0,1.0,95,84.0
1308,A3,281.0,1.0,95,84.0
1309,B-4,282.0,2.0,95,84.0
1310,F#2,282.0,0.5,95,84.0
1311,E3,282.5,0.5,95,84.0
1312,B-3,283.0,0.5,95,84.0
1313,F#2,283.5,0.5,95,84.0
1314,G2,284.0,0.5,95,84.0
1315,D3,284.5,0.5,95,84.0
1316,G4,285.0,0.5,95,84.0
1317,B3,285.0,0.5,95,84.0
1318,B4,285.5,0.5,95,84.0
1319,D4,285.5,0.5,95,84.0
1320,A4,286.0,0.5,95,84.0
1321,C#4,286.0,0.5,95,84.0
1322,A2,286.0,0.5,95,84.0
1323,B4,286.5,0.25,95,84.0
1324,D4,286.5,0.25,95,84.0
1325,G3,286.5,0.25,95,84.0
1326,E3,286.5,0.25,95,84.0
1327,A4,286.75,0.25,95,84.0
1328,C#4,286.75,0.25,95,84.0
1329,G4,287.0,0.5,95,84.0
1330,B3,287.0,0.5,95,84.0
1331,F#4,287.5,0.5,95,84.0
1332,C#4,287.5,0.5,95,84.0
1333,G3,287.5,0.5,95,84.0
1334,A4,288.0,0.5,95,84.0
1335,D4,288.0,0.5,95,84.0
1336,D2,288.0,0.5,95,84.0
1337,G4,288.5,0.5,95,84.0
1338,F#3,288.5,0.5,95,84.0
1339,F#4,289.0,0.5,95,84.0
1340,D4,289.0,1.0,95,84.0
1341,A3,289.0,1.0,95,84.0
1342,E4,289.5,0.5,95,84.0
1343,D4,290.0,0.5,95,84.0
1344,F#2,290.0,0.5,95,84.0
1345,C#4,290.5,0.5,95,84.0
1346,E3,290.5,0.5,95,84.0
1347,B-3,291.0,0.5,95,84.0
1348,B-3,291.0,0.5,95,84.0
1349,F#3,291.5,0.5,95,84.0
1350,F#2,291.5,0.5,95,84.0
1351,G3,292.0,1.0,95,84.0
1352,G2,292.0,0.5,95,84.0
1353,D3,292.5,0.5,95,84.0
1354,G4,293.0,0.5,95,84.0
1355,B3,293.0,0.5,95,84.0
1356,G4,293.5,0.5,95,84.0
1357,D4,293.5,0.5,95,84.0
1358,A4,294.0,0.5,95,84.0
1359,E4,294.0,0.5,95,84.0
1360,A2,294.0,0.5,95,84.0
1361,B4,294.5,0.25,95,84.0
1362,F#4,294.5,0.25,95,84.0
1363,G3,294.5,0.25,95,84.0
1364,A4,294.75,0.25,95,84.0
1365,E4,294.75,0.25,95,84.0
1366,G4,295.0,0.5,95,84.0
1367,D4,295.0,0.5,95,84.0
1368,F#4,295.5,0.5,95,84.0
1369,E4,295.5,0.5,95,84.0
1370,E4,295.875,0.125,79,84.0
1371,C#4,295.875,0.125,79,84.0
1372,A4,296.0,0.5,95,84.0
1373,F#4,296.0,0.5,95,84.0
1374,D4,296.0,0.5,95,84.0
1375,D2,296.0,0.5,95,84.0
1376,F#4,296.5,0.5,95,84.0
1377,D4,296.5,0.5,95,84.0
1378,D3,296.5,0.5,95,84.0
1379,F#4,297.0,1.0,95,84.0
1380,D4,297.0,0.5,95,84.0
1381,D3,297.0,0.5,95,84.0
1382,F#4,298.0,0.25,95,84.0
1383,F#2,298.0,0.5,95,84.0
1384,G4,298.25,0.25,95,84.0
1385,F#4,298.5,0.25,95,84.0
1386,E3,298.5,0.5,95,84.0
1387,G4,298.75,0.25,95,84.0
1388,F#4,299.0,0.25,95,84.0
1389,B-3,299.0,0.5,95,84.0
1390,E4,299.25,0.25,95,84.0
1391,D4,299.5,0.25,95,84.0
1392,F#2,299.5,0.5,95,84.0
1393,C#4,299.75,0.25,95,84.0
1394,B3,300.0,1.0,95,84.0
1395,G2,300.0,0.5,95,84.0
1396,D3,300.5,0.5,95,84.0
1397,B3,301.0,0.5,95,84.0
1398,B3,301.0,0.5,95,84.0
1399,D4,301.5,0.5,95,84.0
1400,D4,301.5,0.5,95,84.0
1401,D4,301.875,0.125,95,84.0
1402,E4,302.0,0.5,95,84.0
1403,E4,302.0,0.5,79,84.0
1404,C#4,302.0,0.5,79,84.0
1405,G3,302.0,0.5,79,84.0
1406,A2,302.0,0.5,79,84.0
1407,F#4,302.5,0.25,95,84.0
1408,F#4,302.5,0.25,95,84.0
1409,G3,302.5,0.25,95,84.0
1410,E4,302.75,0.25,95,84.0
1411,E4,302.75,0.25,95,84.0
1412,D4,303.0,0.5,95,84.0
1413,D4,303.0,0.5,95,84.0
1414,E4,303.5,0.5,95,84.0
1415,E4,303.5,0.5,95,84.0
1416,E4,303.875,0.125,79,84.0
1417,F#4,303.875,0.125,79,84.0
1418,D4,303.875,0.125,79,84.0
1419,A4,304.0,0.5,95,84.0
1420,E4,304.0,0.5,95,84.0
1421,F#4,304.0,0.5,95,84.0
1422,D2,304.0,0.5,95,84.0
1423,D4,304.5,0.5,95,84.0
1424,F#4,304.5,0.5,95,84.0
1425,D4,304.5,0.5,95,84.0
1426,D4,305.0,3.0,95,84.0
1427,F#4,305.0,3.0,95,84.0
1428,D4,305.0,3.0,95,84.0
1429,E3,307.875,0.125,79,84.0
1430,D2,308.0,0.5,95,84.0
1431,F#3,308.5,0.5,95,84.0
1432,A2,308.5,0.5,95,84.0
1433,F#4,308.5,0.5,95,84.0
1434,D4,308.5,0.5,95,84.0
1435,A3,309.0,0.5,95,84.0
1436,E3,309.0,0.5,95,84.0
1437,D4,309.5,0.5,95,84.0
1438,F#3,309.5,0.5,95,84.0
1439,E4,310.0,0.5,95,84.0
1440,A3,310.0,0.5,95,84.0
1441,F#4,310.5,0.5,95,84.0
1442,D4,310.5,0.5,95,84.0
1443,D4,311.0,0.5,95,84.0
1444,A4,311.0,0.5,95,84.0
1445,E4,311.0,0.5,95,84.0
1446,C#4,311.0,0.5,95,84.0
1447,A4,311.5,0.5,95,84.0
1448,F#4,311.5,0.5,95,84.0
1449,D4,311.5,0.5,95,84.0
1450,E4,312.0,0.5,95,84.0
1451,A4,312.0,4.0,95,84.0
1452,F#4,312.0,4.0,95,84.0
1453,D4,312.0,4.0,95,84.0
1454,D2,312.0,4.0,95,84.0
1455,F#4,312.5,4.0,95,84.0
