,note_name,start_time,duration,velocity,tempo
0,C#2,0.0,1.0,127,96.0
1,C#2,2.0,1.0,127,96.0
2,C#2,4.0,1.0,127,96.0
3,C#2,5.0,1.0,127,96.0
4,C#2,6.0,1.0,127,96.0
5,C#2,7.0,1.0,127,96.0
6,B-1,8.0,323/250,127,96.0
7,B-3,8.0,4.0,111,96.0
8,F4,8.0,4.0,111,96.0
9,D4,8.0,4.0,111,96.0
10,B-3,8.0,2177/1000,1,96.0
11,F3,8.0,2177/1000,1,96.0
12,D4,8.0,2177/1000,1,96.0
13,D2,8.0,0.25,127,96.0
14,E-4,8.0,0.25,127,96.0
15,C2,8.0,0.25,127,96.0
16,C#3,8.0,0.25,127,96.0
17,E-4,8.5,0.25,127,96.0
18,E-4,8.75,0.25,127,96.0
19,D2,9.0,0.25,127,96.0
20,C#2,9.0,0.25,127,96.0
21,E-2,9.0,0.25,127,96.0
22,E-4,9.0,0.25,127,96.0
23,F4,9.479,2521/1000,127,96.0
24,D4,9.479,2521/1000,127,96.0
25,B-1,9.5,0.938,127,96.0
26,E-4,9.5,0.25,127,96.0
27,F#2,9.5,0.25,127,96.0
28,C2,9.5,0.25,127,96.0
29,E-4,9.75,0.25,127,96.0
30,F#2,10.0,0.25,127,96.0
31,E-4,10.0,0.25,127,96.0
32,C2,10.0,0.25,127,96.0
33,F3,10.5,1.5,1,96.0
34,D4,10.5,1.5,1,96.0
35,B-3,10.5,1.5,1,96.0
36,E-4,10.5,0.25,127,96.0
37,F#2,10.5,0.25,127,96.0
38,B-1,10.75,0.156,127,96.0
39,E-4,10.75,0.25,127,96.0
40,G2,11.0,99/500,127,96.0
41,E-2,11.0,0.25,127,96.0
42,F#2,11.0,0.25,127,96.0
43,C#2,11.0,0.25,127,96.0
44,D2,11.0,0.25,127,96.0
45,E-4,11.0,0.25,127,96.0
46,B-1,11.281,0.219,127,96.0
47,F2,11.5,0.344,127,96.0
48,C2,11.5,0.25,127,96.0
49,E-4,11.5,0.25,127,96.0
50,D2,11.5,0.25,127,96.0
51,B-2,11.5,0.25,127,96.0
52,E-4,11.75,0.25,127,96.0
53,G#2,12.0,1901/500,127,96.0
54,E-4,12.0,1/200,127,96.0
55,C4,12.0,4.0,111,96.0
56,G#3,12.0,4.0,111,96.0
57,E-4,12.0,4.0,111,96.0
58,F4,12.0,13/250,127,96.0
59,D4,12.0,13/250,127,96.0
60,G#3,12.0,3833/1000,1,96.0
61,G#4,12.0,3833/1000,1,96.0
62,C4,12.0,3833/1000,1,96.0
63,E-4,12.0,3833/1000,1,96.0
64,F#2,12.0,0.25,127,96.0
65,C2,12.0,0.25,127,96.0
66,E-4,12.5,0.25,127,96.0
67,F#2,12.5,0.25,127,96.0
68,E-4,12.75,0.25,127,96.0
69,D2,13.0,0.25,127,96.0
70,C#2,13.0,0.25,127,96.0
71,F#2,13.0,0.25,127,96.0
72,E-2,13.0,0.25,127,96.0
73,E-4,13.0,0.25,127,96.0
74,C4,13.073,362/125,127,96.0
75,E-4,13.073,2927/1000,127,96.0
76,F#2,13.5,0.25,127,96.0
77,C2,13.5,0.25,127,96.0
78,E-4,13.5,0.25,127,96.0
79,E-4,13.75,0.25,127,96.0
80,F#2,14.0,0.25,127,96.0
81,E-4,14.0,0.25,127,96.0
82,C2,14.0,0.25,127,96.0
83,F#2,14.5,0.25,127,96.0
84,E-4,14.5,0.25,127,96.0
85,E-4,14.75,0.25,127,96.0
86,E-2,15.0,0.25,127,96.0
87,C#2,15.0,0.25,127,96.0
88,D2,15.0,0.25,127,96.0
89,E-4,15.0,0.25,127,96.0
90,F#2,15.0,0.25,127,96.0
91,E-4,15.5,0.25,127,96.0
92,C2,15.5,0.25,127,96.0
93,F#2,15.5,0.25,127,96.0
94,E-3,15.75,0.25,127,96.0
95,E-4,15.75,0.25,127,96.0
96,B-1,16.0,401/500,127,96.0
97,E-4,16.0,13/250,127,96.0
98,E-4,16.0,1/200,127,96.0
99,B-3,16.0,4.0,111,96.0
100,D4,16.0,4.0,111,96.0
101,F4,16.0,4.0,111,96.0
102,F4,16.0,3833/1000,1,96.0
103,B-3,16.0,3833/1000,1,96.0
104,D4,16.0,3833/1000,1,96.0
105,F#2,16.0,0.25,127,96.0
106,C2,16.0,0.25,127,96.0
107,E-4,16.5,0.25,127,96.0
108,F#2,16.5,0.25,127,96.0
109,F2,16.75,151/500,127,96.0
110,E-4,16.75,0.25,127,96.0
111,D3,17.0,0.312,127,96.0
112,C#2,17.0,0.25,127,96.0
113,D2,17.0,0.25,127,96.0
114,E-2,17.0,0.25,127,96.0
115,F#2,17.0,0.25,127,96.0
116,E-4,17.0,0.25,127,96.0
117,D5,17.031,2.969,127,96.0
118,F5,17.031,2.969,127,96.0
119,B-1,17.312,0.25,127,96.0
120,F2,17.5,73/250,127,96.0
121,C2,17.5,0.25,127,96.0
122,E-4,17.5,0.25,127,96.0
123,F#2,17.5,0.25,127,96.0
124,B-2,17.75,2.25,127,96.0
125,E-4,17.75,0.25,127,96.0
126,C2,18.0,0.25,127,96.0
127,E-4,18.0,0.25,127,96.0
128,F#2,18.0,0.25,127,96.0
129,F#2,18.5,0.25,127,96.0
130,E-4,18.5,0.25,127,96.0
131,E-4,18.75,0.25,127,96.0
132,C#2,19.0,0.25,127,96.0
133,E-4,19.0,0.25,127,96.0
134,F#2,19.0,0.25,127,96.0
135,D2,19.0,0.25,127,96.0
136,E-2,19.0,0.25,127,96.0
137,E-4,19.5,0.25,127,96.0
138,C2,19.5,0.25,127,96.0
139,F#2,19.5,0.25,127,96.0
140,E-4,19.75,0.25,127,96.0
141,G#2,20.0,1901/500,127,96.0
142,E-4,20.0,1/200,127,96.0
143,C4,20.0,4.0,111,96.0
144,E-4,20.0,4.0,111,96.0
145,G#3,20.0,4.0,111,96.0
146,D5,20.0,13/250,127,96.0
147,F5,20.0,13/250,127,96.0
148,E-3,20.0,2177/1000,1,96.0
149,G#3,20.0,2177/1000,1,96.0
150,C4,20.0,2177/1000,1,96.0
151,C2,20.0,0.25,127,96.0
152,F#2,20.0,0.25,127,96.0
153,F#2,20.5,0.25,127,96.0
154,E-4,20.5,0.25,127,96.0
155,E-4,21.0,0.25,127,96.0
156,C#2,21.0,0.25,127,96.0
157,D2,21.0,0.25,127,96.0
158,E-2,21.0,0.25,127,96.0
159,F#2,21.0,0.25,127,96.0
160,C5,21.021,251/100,127,96.0
161,E-5,21.021,251/100,127,96.0
162,F#2,21.5,0.25,127,96.0
163,C2,21.5,0.25,127,96.0
164,E-4,21.5,0.25,127,96.0
165,E-4,22.0,0.25,127,96.0
166,C2,22.0,0.25,127,96.0
167,F#2,22.0,0.25,127,96.0
168,G#3,22.5,1.5,1,96.0
169,C4,22.5,1.5,1,96.0
170,E-3,22.5,1.5,1,96.0
171,D2,22.5,0.25,127,96.0
172,E-4,22.5,0.25,127,96.0
173,F#2,22.5,0.25,127,96.0
174,D2,23.0,0.25,127,96.0
175,C#2,23.0,0.25,127,96.0
176,F#2,23.0,0.25,127,96.0
177,E-2,23.0,0.25,127,96.0
178,E-4,23.0,0.25,127,96.0
179,D2,23.25,0.25,127,96.0
180,F#2,23.5,0.25,127,96.0
181,E-4,23.5,0.25,127,96.0
182,C2,23.5,0.25,127,96.0
183,D2,23.5,0.25,127,96.0
184,E-3,23.75,0.25,127,96.0
185,D2,23.75,0.25,127,96.0
186,C4,24.0,1/200,92,96.0
187,B-1,24.0,99/125,127,96.0
188,C4,24.0,1/200,1,96.0
189,D2,24.0,1/200,127,96.0
190,F4,24.0,2.0,102,96.0
191,D4,24.0,2.0,102,96.0
192,A3,24.0,2.0,1,96.0
193,F4,24.0,2.0,1,96.0
194,D4,24.0,2.0,1,96.0
195,C2,24.0,0.25,127,96.0
196,F#3,24.0,0.25,127,96.0
197,E-4,24.0,0.25,127,96.0
198,C#3,24.0,0.25,127,96.0
199,E-4,24.5,0.25,127,96.0
200,B-2,24.75,73/250,127,96.0
201,E-4,24.75,0.25,127,96.0
202,D2,25.0,0.25,127,96.0
203,C#2,25.0,0.25,127,96.0
204,E-4,25.0,0.25,127,96.0
205,E-2,25.0,0.25,127,96.0
206,B-2,25.094,979/1000,127,96.0
207,B-2,25.25,26/125,127,96.0
208,A2,25.5,99/500,127,96.0
209,E-4,25.5,0.25,127,96.0
210,F#2,25.5,0.25,127,96.0
211,C2,25.5,0.25,127,96.0
212,F#3,25.5,0.25,127,96.0
213,D4,25.615,69/125,127,96.0
214,F2,25.75,0.25,127,96.0
215,E-4,25.75,0.25,127,96.0
216,B-1,26.0,0.656,127,96.0
217,B-3,26.0,2.0,98,96.0
218,D4,26.0,2.0,98,96.0
219,F4,26.0,2.0,98,96.0
220,B-3,26.0,2.0,1,96.0
221,D4,26.0,2.0,1,96.0
222,F4,26.0,2.0,1,96.0
223,F#3,26.0,0.25,127,96.0
224,C2,26.0,0.25,127,96.0
225,F#2,26.0,0.25,127,96.0
226,E-4,26.0,0.25,127,96.0
227,F4,26.135,373/200,127,96.0
228,F#2,26.5,0.25,127,96.0
229,E-4,26.5,0.25,127,96.0
230,E-4,26.75,0.25,127,96.0
231,B-1,26.833,0.25,127,96.0
232,B-2,27.0,49/100,127,96.0
233,E-2,27.0,0.25,127,96.0
234,F#3,27.0,0.25,127,96.0
235,D2,27.0,0.25,127,96.0
236,F#2,27.0,0.25,127,96.0
237,C#2,27.0,0.25,127,96.0
238,E-4,27.0,0.25,127,96.0
239,B-1,27.5,0.5,127,96.0
240,F#3,27.5,0.25,127,96.0
241,E-4,27.5,0.25,127,96.0
242,B-2,27.5,0.25,127,96.0
243,D2,27.5,0.25,127,96.0
244,C2,27.5,0.25,127,96.0
245,E-4,27.75,0.25,127,96.0
246,B-1,28.0,1/200,127,96.0
247,F4,28.0,1.469,127,96.0
248,D3,28.0,2.0,1,96.0
249,F4,28.0,1/200,1,96.0
250,E-4,28.0,1/200,127,96.0
251,D3,28.0,2.0,114,96.0
252,F3,28.0,2.0,114,96.0
253,B-2,28.0,2.0,114,96.0
254,C2,28.0,0.25,127,96.0
255,F#2,28.0,0.25,127,96.0
256,F#3,28.0,0.25,127,96.0
257,F3,28.5,1.5,1,96.0
258,B-2,28.5,0.25,127,96.0
259,E-4,28.5,0.25,127,96.0
260,F2,28.75,26/125,127,96.0
261,E-4,28.75,0.25,127,96.0
262,D3,29.0,73/250,127,96.0
263,B-3,29.0,1.0,1,96.0
264,C4,29.0,771/1000,1,96.0
265,D2,29.0,0.25,127,96.0
266,E-4,29.0,0.25,127,96.0
267,F#2,29.0,0.25,127,96.0
268,C#2,29.0,0.25,127,96.0
269,E-2,29.0,0.25,127,96.0
270,F2,29.25,167/1000,127,96.0
271,B-1,29.5,26/125,127,96.0
272,D4,29.5,0.5,1,96.0
273,E-4,29.5,0.25,127,96.0
274,F#3,29.5,0.25,127,96.0
275,C2,29.5,0.25,127,96.0
276,F#2,29.5,0.25,127,96.0
277,D4,29.573,573/1000,127,96.0
278,B-2,29.75,0.25,127,96.0
279,E-4,29.75,0.25,127,96.0
280,B-1,30.0,151/100,127,96.0
281,F4,30.0,1/200,1,96.0
282,B-3,30.0,2.0,98,96.0
283,D4,30.0,2.0,98,96.0
284,F4,30.0,2.0,98,96.0
285,D4,30.0,2.0,1,96.0
286,B-3,30.0,2.0,1,96.0
287,F#2,30.0,0.25,127,96.0
288,E-4,30.0,0.25,127,96.0
289,C2,30.0,0.25,127,96.0
290,F#3,30.0,0.25,127,96.0
291,F4,30.125,1583/1000,127,96.0
292,E-4,30.5,0.25,127,96.0
293,F#2,30.5,0.25,127,96.0
294,E-4,30.75,0.25,127,96.0
295,D2,31.0,0.25,127,96.0
296,F#3,31.0,0.25,127,96.0
297,F#2,31.0,0.25,127,96.0
298,E-4,31.0,0.25,127,96.0
299,C#2,31.0,0.25,127,96.0
300,E-2,31.0,0.25,127,96.0
301,F2,31.5,0.156,127,96.0
302,C2,31.5,0.25,127,96.0
303,F#2,31.5,0.25,127,96.0
304,F#3,31.5,0.25,127,96.0
305,E-4,31.5,0.25,127,96.0
306,D2,31.5,0.25,127,96.0
307,F2,31.75,167/1000,127,96.0
308,E-4,31.75,0.25,127,96.0
309,D2,31.75,0.25,127,96.0
310,F4,32.0,1/200,92,96.0
311,E-2,32.0,2.0,127,96.0
312,E-4,32.0,1/200,127,96.0
313,G4,32.0,2.0,102,96.0
314,B-4,32.0,2.0,102,96.0
315,F#3,32.0,0.25,127,96.0
316,F#2,32.0,0.25,127,96.0
317,C2,32.0,0.25,127,96.0
318,B-4,32.021,1979/1000,1,96.0
319,E-3,32.094,3.906,127,96.0
320,B-2,32.5,0.25,127,96.0
321,E-4,32.5,0.25,127,96.0
322,G4,32.542,729/500,1,96.0
323,E-4,32.75,0.25,127,96.0
324,F#2,33.0,0.25,127,96.0
325,C#2,33.0,0.25,127,96.0
326,D2,33.0,0.25,127,96.0
327,E-2,33.0,0.25,127,96.0
328,E-4,33.0,0.25,127,96.0
329,F4,33.021,979/1000,1,96.0
330,G4,33.49,667/1000,127,96.0
331,E-4,33.5,0.25,127,96.0
332,F#2,33.5,0.25,127,96.0
333,C2,33.5,0.25,127,96.0
334,F#3,33.5,0.25,127,96.0
335,E-4,33.531,0.469,1,96.0
336,E-4,33.75,0.25,127,96.0
337,E-2,34.0,2.0,127,96.0
338,G3,34.0,2.0,114,96.0
339,B-3,34.0,2.0,114,96.0
340,E-3,34.0,2.0,114,96.0
341,G3,34.0,2.0,1,96.0
342,B-3,34.0,2.0,1,96.0
343,E-4,34.0,2.0,1,96.0
344,E-4,34.0,0.25,127,96.0
345,F#3,34.0,0.25,127,96.0
346,F#2,34.0,0.25,127,96.0
347,C2,34.0,0.25,127,96.0
348,B-4,34.083,1917/1000,127,96.0
349,F#2,34.5,0.25,127,96.0
350,E-4,34.5,0.25,127,96.0
351,E-4,34.75,0.25,127,96.0
352,D2,35.0,0.25,127,96.0
353,E-2,35.0,0.25,127,96.0
354,F#3,35.0,0.25,127,96.0
355,C#2,35.0,0.25,127,96.0
356,E-4,35.0,0.25,127,96.0
357,F#2,35.0,0.25,127,96.0
358,E-4,35.5,0.25,127,96.0
359,F#3,35.5,0.25,127,96.0
360,D2,35.5,0.25,127,96.0
361,F#2,35.5,0.25,127,96.0
362,C2,35.5,0.25,127,96.0
363,D2,35.75,0.25,127,96.0
364,E-4,35.75,0.25,127,96.0
365,E-2,36.0,1/200,127,96.0
366,E-3,36.0,1229/500,127,96.0
367,B-4,36.0,1.0,127,96.0
368,B-4,36.0,2.0,1,96.0
369,G3,36.0,1/200,1,96.0
370,E-4,36.0,1/200,127,96.0
371,B-3,36.0,1/200,114,96.0
372,E-3,36.0,1/200,114,96.0
373,G3,36.0,1/200,114,96.0
374,F#2,36.0,0.25,127,96.0
375,F#3,36.0,0.25,127,96.0
376,C2,36.0,0.25,127,96.0
377,B-3,36.5,1.5,1,96.0
378,B-2,36.5,0.25,127,96.0
379,E-4,36.5,0.25,127,96.0
380,E-4,36.75,0.25,127,96.0
381,F4,37.0,771/1000,1,96.0
382,E-4,37.0,1.0,1,96.0
383,C#2,37.0,0.25,127,96.0
384,E-4,37.0,0.25,127,96.0
385,D2,37.0,0.25,127,96.0
386,E-2,37.0,0.25,127,96.0
387,F#2,37.0,0.25,127,96.0
388,E-4,37.083,177/250,127,96.0
389,G4,37.5,573/1000,127,96.0
390,G4,37.5,0.5,1,96.0
391,C2,37.5,0.25,127,96.0
392,E-4,37.5,0.25,127,96.0
393,F#2,37.5,0.25,127,96.0
394,F#3,37.5,0.25,127,96.0
395,E-4,37.75,0.25,127,96.0
396,E-2,38.0,1/200,127,96.0
397,B-4,38.0,1.938,127,96.0
398,B-4,38.0,2.0,1,96.0
399,G3,38.0,1/200,1,96.0
400,E-3,38.0,1/200,114,96.0
401,B-3,38.0,1/200,114,96.0
402,G3,38.0,1/200,114,96.0
403,E-4,38.0,0.25,127,96.0
404,F#3,38.0,0.25,127,96.0
405,F#2,38.0,0.25,127,96.0
406,C2,38.0,0.25,127,96.0
407,B-3,38.5,1.5,1,96.0
408,F#2,38.5,0.25,127,96.0
409,E-4,38.5,0.25,127,96.0
410,D3,38.5,0.25,127,96.0
411,E-4,38.75,0.25,127,96.0
412,D3,38.75,0.25,127,96.0
413,E-4,39.0,1.0,1,96.0
414,F4,39.0,771/1000,1,96.0
415,F#2,39.0,0.25,127,96.0
416,F#3,39.0,0.25,127,96.0
417,C#2,39.0,0.25,127,96.0
418,D2,39.0,0.25,127,96.0
419,B2,39.0,0.25,127,96.0
420,E-4,39.0,0.25,127,96.0
421,E-2,39.0,0.25,127,96.0
422,B2,39.25,0.25,127,96.0
423,G4,39.5,0.5,1,96.0
424,F2,39.5,0.25,127,96.0
425,F#3,39.5,0.25,127,96.0
426,C2,39.5,0.25,127,96.0
427,D2,39.5,0.25,127,96.0
428,F#2,39.5,0.25,127,96.0
429,E-4,39.5,0.25,127,96.0
430,D2,39.75,0.25,127,96.0
431,F2,39.75,0.25,127,96.0
432,E-4,39.75,0.25,127,96.0
433,D2,40.0,2.0,127,96.0
434,D4,40.0,2.0,111,96.0
435,F4,40.0,2.0,111,96.0
436,A4,40.0,2.0,111,96.0
437,D4,40.0,1.812,1,96.0
438,A4,40.0,1.812,1,96.0
439,F3,40.0,1.812,1,96.0
440,D2,40.0,1/200,127,96.0
441,E-4,40.0,1/200,127,96.0
442,C#3,40.0,0.25,127,96.0
443,C2,40.0,0.25,127,96.0
444,A4,40.115,163/50,127,96.0
445,E-4,40.5,0.25,127,96.0
446,E-4,40.75,0.25,127,96.0
447,E-2,41.0,0.25,127,96.0
448,E-4,41.0,0.25,127,96.0
449,D2,41.0,0.25,127,96.0
450,C#2,41.0,0.25,127,96.0
451,F#2,41.5,0.25,127,96.0
452,E-4,41.5,0.25,127,96.0
453,C2,41.5,0.25,127,96.0
454,E-4,41.75,0.25,127,96.0
455,D2,42.0,151/100,127,96.0
456,A4,42.0,2.0,111,96.0
457,F4,42.0,2.0,111,96.0
458,D4,42.0,2.0,111,96.0
459,C4,42.0,1.812,1,96.0
460,F3,42.0,1.812,1,96.0
461,E4,42.0,1.812,1,96.0
462,A4,42.0,1.812,1,96.0
463,F#2,42.0,0.25,127,96.0
464,E-4,42.0,0.25,127,96.0
465,C2,42.0,0.25,127,96.0
466,F#2,42.5,0.25,127,96.0
467,E-4,42.5,0.25,127,96.0
468,E-4,42.75,0.25,127,96.0
469,D2,43.0,0.25,127,96.0
470,C#2,43.0,0.25,127,96.0
471,E-2,43.0,0.25,127,96.0
472,E-4,43.0,0.25,127,96.0
473,F#2,43.0,0.25,127,96.0
474,A2,43.5,0.156,127,96.0
475,B-2,43.5,0.25,127,96.0
476,E-4,43.5,0.25,127,96.0
477,C2,43.5,0.25,127,96.0
478,D2,43.5,0.25,127,96.0
479,A2,43.75,167/1000,127,96.0
480,E-4,43.75,0.25,127,96.0
481,E-2,44.0,1901/500,127,96.0
482,E-4,44.0,1/200,127,96.0
483,E-3,44.0,4.0,111,96.0
484,B-3,44.0,4.0,111,96.0
485,G3,44.0,4.0,111,96.0
486,C4,44.0,3833/1000,1,96.0
487,E-4,44.0,3833/1000,1,96.0
488,B-4,44.0,3833/1000,1,96.0
489,G3,44.0,3833/1000,1,96.0
490,C2,44.0,0.25,127,96.0
491,F#2,44.0,0.25,127,96.0
492,E-4,44.25,1/200,127,96.0
493,E-4,44.5,1/200,127,96.0
494,F#2,44.5,0.25,127,96.0
495,C2,44.5,0.25,127,96.0
496,D5,44.552,573/200,127,96.0
497,E-4,44.75,1/200,127,96.0
498,E-4,45.0,1/200,127,96.0
499,F#2,45.0,0.25,127,96.0
500,E-2,45.0,0.25,127,96.0
501,D2,45.0,0.25,127,96.0
502,C#2,45.0,0.25,127,96.0
503,B-5,45.104,2271/1000,127,96.0
504,F#2,45.5,0.25,127,96.0
505,C2,45.5,0.25,127,96.0
506,E-4,45.5,0.25,127,96.0
507,E-4,45.75,0.25,127,96.0
508,E-4,46.0,0.25,127,96.0
509,F#2,46.0,0.25,127,96.0
510,C2,46.0,0.25,127,96.0
511,G5,46.083,323/250,119,96.0
512,C2,46.5,0.25,127,96.0
513,E-4,46.5,0.25,127,96.0
514,F#2,46.5,0.25,127,96.0
515,E-4,46.75,0.25,127,96.0
516,D2,47.0,0.25,127,96.0
517,E-4,47.0,0.25,127,96.0
518,C#2,47.0,0.25,127,96.0
519,E-2,47.0,0.25,127,96.0
520,F#2,47.0,0.25,127,96.0
521,E-4,47.5,0.25,127,96.0
522,C2,47.5,0.25,127,96.0
523,B2,47.5,0.25,127,96.0
524,F#2,47.5,0.25,127,96.0
525,B-2,47.75,0.25,127,96.0
526,E-4,47.75,0.25,127,96.0
527,B2,47.75,0.25,127,96.0
528,C2,48.0,1573/1000,127,96.0
529,E-4,48.0,1/200,127,96.0
530,G4,48.0,4.0,111,96.0
531,E-4,48.0,4.0,111,96.0
532,C4,48.0,4.0,111,96.0
533,E-4,48.0,423/200,1,96.0
534,C4,48.0,423/200,1,96.0
535,G3,48.0,423/200,1,96.0
536,F#2,48.0,0.25,127,96.0
537,C2,48.0,0.25,127,96.0
538,E-4,48.5,0.25,127,96.0
539,F#2,48.5,0.25,127,96.0
540,E-4,48.531,1667/1000,127,96.0
541,E-4,48.75,0.25,127,96.0
542,F#2,49.0,0.25,127,96.0
543,D2,49.0,0.25,127,96.0
544,C#2,49.0,0.25,127,96.0
545,E-2,49.0,0.25,127,96.0
546,E-4,49.0,0.25,127,96.0
547,C3,49.5,2.5,127,96.0
548,F#2,49.5,0.25,127,96.0
549,E-4,49.5,0.25,127,96.0
550,C2,49.5,0.25,127,96.0
551,E-4,49.75,0.25,127,96.0
552,C2,50.0,0.25,127,96.0
553,F#2,50.0,0.25,127,96.0
554,E-4,50.0,0.25,127,96.0
555,B-3,50.104,377/200,127,96.0
556,C4,50.5,1.5,1,96.0
557,G3,50.5,1.5,1,96.0
558,E-4,50.5,1.5,1,96.0
559,F#2,50.5,0.25,127,96.0
560,C2,50.5,0.25,127,96.0
561,E-4,50.5,0.25,127,96.0
562,E-4,50.75,0.25,127,96.0
563,F#2,51.0,0.25,127,96.0
564,E-2,51.0,0.25,127,96.0
565,D2,51.0,0.25,127,96.0
566,C#2,51.0,0.25,127,96.0
567,E-4,51.0,0.25,127,96.0
568,D2,51.25,0.25,120,96.0
569,C2,51.5,0.25,127,96.0
570,E-4,51.5,0.25,127,96.0
571,F#2,51.5,0.25,127,96.0
572,E-4,51.75,0.25,127,96.0
573,D2,51.75,0.25,127,96.0
574,C4,52.0,1/200,114,96.0
575,F2,52.0,1901/500,127,96.0
576,A3,52.0,1573/1000,127,96.0
577,E-4,52.0,1/200,127,96.0
578,F3,52.0,4.0,110,96.0
579,A3,52.0,4.0,110,96.0
580,A4,52.0,427/200,1,96.0
581,F4,52.0,427/200,1,96.0
582,E-4,52.0,1/200,1,96.0
583,C4,52.0,1/200,1,96.0
584,C2,52.0,0.25,127,96.0
585,F#2,52.0,0.25,127,96.0
586,E-4,52.5,0.25,127,96.0
587,F#2,52.5,0.25,127,96.0
588,F#2,53.0,0.25,127,96.0
589,E-4,53.0,0.25,127,96.0
590,C#2,53.0,0.25,127,96.0
591,D2,53.0,0.25,127,96.0
592,E-2,53.0,0.25,127,96.0
593,F#2,53.5,0.25,127,96.0
594,C2,53.5,0.25,127,96.0
595,E-4,53.5,0.25,127,96.0
596,G3,53.542,0.5,127,96.0
597,C2,54.0,0.25,127,96.0
598,E-4,54.0,0.25,127,96.0
599,F#2,54.0,0.25,127,96.0
600,F3,54.115,181/125,127,96.0
601,C4,54.5,1.5,1,96.0
602,F4,54.5,1.5,1,96.0
603,A4,54.5,1.5,1,96.0
604,E-4,54.5,1.5,1,96.0
605,F#2,54.5,0.25,127,96.0
606,E-4,54.5,0.25,127,96.0
607,D2,54.5,0.25,127,96.0
608,E-2,55.0,0.25,127,96.0
609,C#2,55.0,0.25,127,96.0
610,D2,55.0,0.25,127,96.0
611,F#2,55.0,0.25,127,96.0
612,E-4,55.0,0.25,127,96.0
613,D2,55.25,0.25,127,96.0
614,E-4,55.5,0.25,127,96.0
615,F#2,55.5,0.25,127,96.0
616,D2,55.5,0.25,127,96.0
617,C2,55.5,0.25,127,96.0
618,C3,55.75,0.25,127,96.0
619,D2,55.75,0.25,127,96.0
620,F3,56.0,1/200,118,96.0
621,B-1,56.0,2.0,127,96.0
622,D2,56.0,1/200,127,96.0
623,B-2,56.0,2.0,112,96.0
624,D3,56.0,2.0,112,96.0
625,D4,56.0,2.0,1,96.0
626,C5,56.0,2.0,1,96.0
627,A4,56.0,1/200,1,96.0
628,F4,56.0,1/200,1,96.0
629,E-4,56.0,0.25,127,96.0
630,F#3,56.0,0.25,127,96.0
631,E-4,56.5,0.25,127,96.0
632,B-3,56.552,301/100,127,96.0
633,E-4,56.75,0.25,127,96.0
634,E-4,57.0,0.25,127,96.0
635,E-2,57.0,0.25,127,96.0
636,D2,57.0,0.25,127,96.0
637,C#2,57.0,0.25,127,96.0
638,D4,57.438,729/1000,127,96.0
639,F#2,57.5,0.25,127,96.0
640,F#3,57.5,0.25,127,96.0
641,E-4,57.5,0.25,127,96.0
642,C2,57.5,0.25,127,96.0
643,E-4,57.75,0.25,127,96.0
644,F3,58.0,1/200,118,96.0
645,B-1,58.0,2.0,127,96.0
646,F4,58.0,1/200,1,96.0
647,B-2,58.0,2.0,112,96.0
648,D3,58.0,2.0,112,96.0
649,B-3,58.0,2.0,1,96.0
650,D4,58.0,2.0,1,96.0
651,C2,58.0,0.25,127,96.0
652,F#2,58.0,0.25,127,96.0
653,E-4,58.0,0.25,127,96.0
654,F#3,58.0,0.25,127,96.0
655,F4,58.125,1.875,127,96.0
656,E-4,58.5,0.25,127,96.0
657,F#2,58.5,0.25,127,96.0
658,E-4,58.75,0.25,127,96.0
659,E-4,59.0,0.25,127,96.0
660,F#3,59.0,0.25,127,96.0
661,E-2,59.0,0.25,127,96.0
662,C#2,59.0,0.25,127,96.0
663,F#2,59.0,0.25,127,96.0
664,D2,59.0,0.25,127,96.0
665,B-2,59.5,0.25,127,96.0
666,D2,59.5,0.25,127,96.0
667,F#3,59.5,0.25,127,96.0
668,C2,59.5,0.25,127,96.0
669,E-4,59.5,0.25,127,96.0
670,E-4,59.75,0.25,127,96.0
671,B-1,60.0,1/200,127,96.0
672,F4,60.0,229/500,127,96.0
673,E-4,60.0,1/200,127,96.0
674,D4,60.0,2.0,98,96.0
675,F4,60.0,2.0,98,96.0
676,C4,60.0,2.0,98,96.0
677,F4,60.0,1/200,1,96.0
678,D4,60.0,1/200,1,96.0
679,C5,60.0,2.0,1,96.0
680,A4,60.0,2.0,1,96.0
681,C2,60.0,0.25,127,96.0
682,F#3,60.0,0.25,127,96.0
683,F#2,60.0,0.25,127,96.0
684,E-4,60.5,0.25,127,96.0
685,B-2,60.5,0.25,127,96.0
686,B-3,60.667,3.0,127,96.0
687,E-4,60.75,0.25,127,96.0
688,E-4,61.0,0.25,127,96.0
689,C#2,61.0,0.25,127,96.0
690,D2,61.0,0.25,127,96.0
691,E-2,61.0,0.25,127,96.0
692,F#2,61.0,0.25,127,96.0
693,D4,61.469,0.688,127,96.0
694,F2,61.5,0.156,127,96.0
695,E-4,61.5,0.25,127,96.0
696,F#3,61.5,0.25,127,96.0
697,F#2,61.5,0.25,127,96.0
698,C2,61.5,0.25,127,96.0
699,F2,61.75,167/1000,127,96.0
700,E-4,61.75,0.25,127,96.0
701,B-1,62.0,0.656,127,96.0
702,F4,62.0,1/200,1,96.0
703,D3,62.0,2.0,1,96.0
704,F4,62.0,2.0,98,96.0
705,B-3,62.0,2.0,98,96.0
706,D4,62.0,2.0,98,96.0
707,F#3,62.0,0.25,127,96.0
708,C2,62.0,0.25,127,96.0
709,F#2,62.0,0.25,127,96.0
710,E-4,62.0,0.25,127,96.0
711,F4,62.125,1.875,127,96.0
712,F3,62.5,1.5,1,96.0
713,F#2,62.5,0.25,127,96.0
714,E-4,62.5,0.25,127,96.0
715,E-4,62.75,0.25,127,96.0
716,B-1,62.833,0.25,127,96.0
717,B-2,63.0,49/100,127,96.0
718,C4,63.0,771/1000,1,96.0
719,B-3,63.0,1.0,1,96.0
720,F#3,63.0,0.25,127,96.0
721,F#2,63.0,0.25,127,96.0
722,C#2,63.0,0.25,127,96.0
723,D2,63.0,0.25,127,96.0
724,E-4,63.0,0.25,127,96.0
725,E-2,63.0,0.25,127,96.0
726,B-1,63.5,0.5,127,96.0
727,D4,63.5,0.5,1,96.0
728,F#3,63.5,0.25,127,96.0
729,C2,63.5,0.25,127,96.0
730,D2,63.5,0.25,127,96.0
731,F#2,63.5,0.25,127,96.0
732,E-4,63.5,0.25,127,96.0
733,D2,63.75,0.25,127,96.0
734,E-4,63.75,0.25,127,96.0
735,F4,64.0,1/200,92,96.0
736,E-2,64.0,2.0,127,96.0
737,E-4,64.0,1/200,127,96.0
738,B-4,64.0,2.0,102,96.0
739,G4,64.0,2.0,102,96.0
740,C2,64.0,0.25,127,96.0
741,F#2,64.0,0.25,127,96.0
742,F#3,64.0,0.25,127,96.0
743,B-4,64.021,1979/1000,1,96.0
744,E-4,64.5,0.25,127,96.0
745,F#2,64.5,0.25,127,96.0
746,G4,64.542,729/500,1,96.0
747,B-3,64.677,2.531,127,96.0
748,E-4,64.75,0.25,127,96.0
749,E-2,65.0,0.25,127,96.0
750,F#2,65.0,0.25,127,96.0
751,D2,65.0,0.25,127,96.0
752,E-4,65.0,0.25,127,96.0
753,C#2,65.0,0.25,127,96.0
754,F4,65.021,979/1000,1,96.0
755,E-4,65.448,319/125,127,96.0
756,F#2,65.5,0.25,127,96.0
757,E-4,65.5,0.25,127,96.0
758,C2,65.5,0.25,127,96.0
759,F#3,65.5,0.25,127,96.0
760,E-4,65.531,0.469,1,96.0
761,E-4,65.75,0.25,127,96.0
762,E-2,66.0,2.0,127,96.0
763,B-3,66.0,2.0,114,96.0
764,G3,66.0,2.0,114,96.0
765,E-3,66.0,2.0,114,96.0
766,E-4,66.0,2.0,1,96.0
767,G3,66.0,2.0,1,96.0
768,B-3,66.0,2.0,1,96.0
769,F#3,66.0,0.25,127,96.0
770,E-4,66.0,0.25,127,96.0
771,F#2,66.0,0.25,127,96.0
772,C2,66.0,0.25,127,96.0
773,G4,66.156,1.844,127,96.0
774,E-4,66.5,0.25,127,96.0
775,F#2,66.5,0.25,127,96.0
776,E-4,66.75,0.25,127,96.0
777,E-4,67.0,0.25,127,96.0
778,F#3,67.0,0.25,127,96.0
779,F#2,67.0,0.25,127,96.0
780,E-2,67.0,0.25,127,96.0
781,D2,67.0,0.25,127,96.0
782,C#2,67.0,0.25,127,96.0
783,E-4,67.5,0.25,127,96.0
784,F#2,67.5,0.25,127,96.0
785,C2,67.5,0.25,127,96.0
786,F#3,67.5,0.25,127,96.0
787,E-4,67.75,0.25,127,96.0
788,E-2,68.0,1/200,127,96.0
789,E-4,68.0,0.344,127,96.0
790,G4,68.0,151/250,127,96.0
791,G3,68.0,1/200,1,96.0
792,B-4,68.0,2.0,1,96.0
793,E-4,68.0,1/200,127,96.0
794,G4,68.0,2.0,98,96.0
795,F4,68.0,2.0,98,96.0
796,B-4,68.0,2.0,98,96.0
797,F#3,68.0,0.25,127,96.0
798,C2,68.0,0.25,127,96.0
799,F#2,68.0,0.25,127,96.0
800,B-3,68.5,1.5,1,96.0
801,E-4,68.5,0.25,127,96.0
802,F#2,68.5,0.25,127,96.0
803,E-4,68.656,2.281,127,96.0
804,E-4,68.75,0.25,127,96.0
805,E-4,69.0,1.0,1,96.0
806,F4,69.0,771/1000,1,96.0
807,E-2,69.0,0.25,127,96.0
808,E-4,69.0,0.25,127,96.0
809,C#2,69.0,0.25,127,96.0
810,F#2,69.0,0.25,127,96.0
811,D2,69.0,0.25,127,96.0
812,G4,69.375,1.438,127,96.0
813,G4,69.5,0.5,1,96.0
814,F#2,69.5,0.25,127,96.0
815,C2,69.5,0.25,127,96.0
816,E-4,69.5,0.25,127,96.0
817,F#3,69.5,0.25,127,96.0
818,E-4,69.75,0.25,127,96.0
819,E-2,70.0,1/200,127,96.0
820,G4,70.0,2.0,98,96.0
821,B-4,70.0,2.0,98,96.0
822,E-4,70.0,2.0,98,96.0
823,F#3,70.0,0.25,127,96.0
824,C2,70.0,0.25,127,96.0
825,F#2,70.0,0.25,127,96.0
826,E-4,70.0,0.25,127,96.0
827,E-4,70.021,1.969,1,96.0
828,G3,70.021,1.969,1,96.0
829,B-3,70.021,1.969,1,96.0
830,B-4,70.104,112/125,127,96.0
831,F#2,70.5,0.25,127,96.0
832,D2,70.5,0.25,127,96.0
833,E-4,70.5,0.25,127,96.0
834,E-5,70.51,149/100,1,96.0
835,E-4,70.75,0.25,127,96.0
836,E-2,71.0,0.25,127,96.0
837,E-4,71.0,0.25,127,96.0
838,F#2,71.0,0.25,127,96.0
839,F#3,71.0,0.25,127,96.0
840,D2,71.0,0.25,127,96.0
841,C#2,71.0,0.25,127,96.0
842,B-4,71.031,0.969,1,96.0
843,D2,71.25,0.25,127,96.0
844,G4,71.5,0.5,1,96.0
845,D2,71.5,0.25,127,96.0
846,E-4,71.5,0.25,127,96.0
847,F#2,71.5,0.25,127,96.0
848,C2,71.5,0.25,127,96.0
849,F#3,71.5,0.25,127,96.0
850,E-4,71.75,0.25,127,96.0
851,D2,71.75,0.25,127,96.0
852,D2,72.0,151/100,127,96.0
853,D4,72.0,2.0,111,96.0
854,F4,72.0,2.0,111,96.0
855,A4,72.0,2.0,111,96.0
856,E-4,72.0,1/200,127,96.0
857,D2,72.0,1/200,127,96.0
858,F4,72.042,1.812,1,96.0
859,A3,72.042,1.812,1,96.0
860,D4,72.042,1.812,1,96.0
861,E-4,72.5,0.25,127,96.0
862,E-4,72.75,0.25,127,96.0
863,E-2,73.0,0.25,127,96.0
864,D2,73.0,0.25,127,96.0
865,E-4,73.0,0.25,127,96.0
866,C#2,73.0,0.25,127,96.0
867,A4,73.073,1229/500,127,96.0
868,D5,73.073,1229/500,127,96.0
869,A2,73.5,0.156,127,96.0
870,E-4,73.5,0.25,127,96.0
871,F#2,73.5,0.25,127,96.0
872,C2,73.5,0.25,127,96.0
873,A2,73.75,167/1000,127,96.0
874,E-4,73.75,0.25,127,96.0
875,D2,74.0,0.562,127,96.0
876,D4,74.0,2.0,111,96.0
877,A4,74.0,2.0,111,96.0
878,F4,74.0,2.0,111,96.0
879,E-4,74.0,0.25,127,96.0
880,F#2,74.0,0.25,127,96.0
881,C2,74.0,0.25,127,96.0
882,D4,74.042,1.812,1,96.0
883,C4,74.042,1.812,1,96.0
884,F4,74.042,1.812,1,96.0
885,A4,74.042,1.812,1,96.0
886,F#2,74.5,0.25,127,96.0
887,E-4,74.5,0.25,127,96.0
888,D2,74.75,0.188,127,96.0
889,E-4,74.75,0.25,127,96.0
890,A2,75.0,1.0,127,96.0
891,E-2,75.0,0.25,127,96.0
892,D2,75.0,0.25,127,96.0
893,F#2,75.0,0.25,127,96.0
894,E-4,75.0,0.25,127,96.0
895,C#2,75.0,0.25,127,96.0
896,E-4,75.5,0.25,127,96.0
897,B-2,75.5,0.25,127,96.0
898,C2,75.5,0.25,127,96.0
899,D2,75.5,0.25,127,96.0
900,E-4,75.75,0.25,127,96.0
901,E-2,76.0,1901/500,127,96.0
902,E-4,76.0,1/200,127,96.0
903,E-3,76.0,4.0,111,96.0
904,B-3,76.0,4.0,111,96.0
905,G3,76.0,4.0,111,96.0
906,G3,76.0,3833/1000,1,96.0
907,B-4,76.0,3833/1000,1,96.0
908,E-4,76.0,3833/1000,1,96.0
909,C4,76.0,3833/1000,1,96.0
910,F#2,76.0,0.25,127,96.0
911,C2,76.0,0.25,127,96.0
912,E-4,76.5,0.25,127,96.0
913,B-2,76.5,0.25,127,96.0
914,E-4,76.75,0.25,127,96.0
915,G4,77.0,3.0,127,96.0
916,E-2,77.0,0.25,127,96.0
917,C#2,77.0,0.25,127,96.0
918,D2,77.0,0.25,127,96.0
919,F#2,77.0,0.25,127,96.0
920,E-4,77.0,0.25,127,96.0
921,B-4,77.073,2927/1000,127,96.0
922,F#2,77.5,0.25,127,96.0
923,E-4,77.5,0.25,127,96.0
924,C2,77.5,0.25,127,96.0
925,E-4,77.75,0.25,127,96.0
926,E-4,78.0,0.25,127,96.0
927,C2,78.0,0.25,127,96.0
928,F#2,78.0,0.25,127,96.0
929,F#2,78.5,0.25,127,96.0
930,E-4,78.5,0.25,127,96.0
931,E-4,78.75,0.25,127,96.0
932,F#2,79.0,0.25,127,96.0
933,E-4,79.0,0.25,127,96.0
934,C#2,79.0,0.25,127,96.0
935,D2,79.0,0.25,127,96.0
936,E-2,79.0,0.25,127,96.0
937,F#2,79.5,0.25,127,96.0
938,C2,79.5,0.25,127,96.0
939,E-4,79.5,0.25,127,96.0
940,D2,79.5,0.25,127,96.0
941,B-2,79.75,0.25,127,96.0
942,D2,79.75,0.25,127,96.0
943,E-4,79.75,0.25,127,96.0
944,C2,80.0,323/250,127,96.0
945,G4,80.0,167/1000,127,96.0
946,B-4,80.0,27/200,127,96.0
947,E-4,80.0,1/200,127,96.0
948,C4,80.0,4.0,111,96.0
949,G4,80.0,4.0,111,96.0
950,E-4,80.0,4.0,111,96.0
951,G3,80.0,427/200,1,96.0
952,E-4,80.0,427/200,1,96.0
953,C4,80.0,427/200,1,96.0
954,C2,80.0,0.25,127,96.0
955,F#2,80.0,0.25,127,96.0
956,E-4,80.5,0.25,127,96.0
957,B-2,80.5,0.25,127,96.0
958,E-4,80.75,0.25,127,96.0
959,F#2,81.0,0.25,127,96.0
960,D2,81.0,0.25,127,96.0
961,E-2,81.0,0.25,127,96.0
962,E-4,81.0,0.25,127,96.0
963,C#2,81.0,0.25,127,96.0
964,G4,81.042,573/250,127,96.0
965,E-4,81.042,573/250,127,96.0
966,C2,81.5,0.938,127,96.0
967,F#2,81.5,0.25,127,96.0
968,E-4,81.5,0.25,127,96.0
969,C2,81.5,0.25,127,96.0
970,E-4,81.75,0.25,127,96.0
971,F#2,82.0,0.25,127,96.0
972,C2,82.0,0.25,127,96.0
973,E-4,82.0,0.25,127,96.0
974,G3,82.5,1.5,1,96.0
975,E-4,82.5,1.5,1,96.0
976,C4,82.5,1.5,1,96.0
977,E-4,82.5,0.25,127,96.0
978,F#2,82.5,0.25,127,96.0
979,C2,82.75,0.156,127,96.0
980,E-4,82.75,0.25,127,96.0
981,A2,83.0,99/500,127,96.0
982,F#2,83.0,0.25,127,96.0
983,E-2,83.0,0.25,127,96.0
984,E-4,83.0,0.25,127,96.0
985,D2,83.0,0.25,127,96.0
986,C#2,83.0,0.25,127,96.0
987,C2,83.281,0.219,127,96.0
988,G2,83.5,0.344,127,96.0
989,D2,83.5,0.25,127,96.0
990,C2,83.5,0.25,127,96.0
991,F#2,83.5,0.25,127,96.0
992,E-4,83.5,0.25,127,96.0
993,D2,83.75,0.25,127,96.0
994,E-4,83.75,0.25,127,96.0
995,C4,84.0,1/200,114,96.0
996,F2,84.0,2.0,127,96.0
997,E-4,84.0,1/200,127,96.0
998,A3,84.0,2.0,110,96.0
999,F3,84.0,2.0,110,96.0
1000,C2,84.0,0.25,127,96.0
1001,F#2,84.0,0.25,127,96.0
1002,E-4,84.042,1.812,1,96.0
1003,C4,84.042,1.812,1,96.0
1004,F4,84.042,1.812,1,96.0
1005,A4,84.042,1.812,1,96.0
1006,F4,84.073,377/200,127,96.0
1007,C4,84.073,377/200,127,96.0
1008,A3,84.073,377/200,127,96.0
1009,F#2,84.5,0.25,127,96.0
1010,E-4,84.5,0.25,127,96.0
1011,E-2,85.0,0.25,127,96.0
1012,E-4,85.0,0.25,127,96.0
1013,D2,85.0,0.25,127,96.0
1014,C#2,85.0,0.25,127,96.0
1015,F#2,85.0,0.25,127,96.0
1016,E-4,85.5,0.25,127,96.0
1017,F#2,85.5,0.25,127,96.0
1018,C2,85.5,0.25,127,96.0
1019,C4,86.0,1/200,107,96.0
1020,C2,86.0,2.0,127,96.0
1021,G4,86.0,2.0,114,96.0
1022,E-4,86.0,2.0,114,96.0
1023,F#2,86.0,0.25,127,96.0
1024,C2,86.0,0.25,127,96.0
1025,E-4,86.0,0.25,127,96.0
1026,B-3,86.042,1.812,1,96.0
1027,G4,86.042,1.812,1,96.0
1028,E-4,86.042,1.812,1,96.0
1029,C4,86.042,1.812,1,96.0
1030,F#2,86.5,0.25,127,96.0
1031,E-4,86.5,0.25,127,96.0
1032,D2,86.5,0.25,127,96.0
1033,E-4,87.0,0.25,127,96.0
1034,E-2,87.0,0.25,127,96.0
1035,D2,87.0,0.25,127,96.0
1036,F#2,87.0,0.25,127,96.0
1037,C#2,87.0,0.25,127,96.0
1038,D2,87.25,0.25,127,96.0
1039,C2,87.5,0.25,127,96.0
1040,F#2,87.5,0.25,127,96.0
1041,D2,87.5,0.25,127,96.0
1042,E-4,87.5,0.25,127,96.0
1043,D2,87.75,0.25,127,96.0
1044,B-1,88.0,194/125,127,96.0
1045,D2,88.0,1/200,127,96.0
1046,D4,88.0,4.0,98,96.0
1047,F4,88.0,4.0,98,96.0
1048,B-3,88.0,4.0,98,96.0
1049,F5,88.0,3271/1000,127,96.0
1050,D5,88.0,3271/1000,127,96.0
1051,C#3,88.0,0.25,127,96.0
1052,C2,88.0,0.25,127,96.0
1053,E-4,88.0,0.25,127,96.0
1054,F#3,88.0,0.25,127,96.0
1055,B-3,88.01,2.0,1,96.0
1056,D4,88.01,2.0,1,96.0
1057,F4,88.01,2.0,1,96.0
1058,E-4,88.5,0.25,127,96.0
1059,E-4,88.75,0.25,127,96.0
1060,C#2,89.0,0.25,127,96.0
1061,D2,89.0,0.25,127,96.0
1062,E-4,89.0,0.25,127,96.0
1063,E-2,89.0,0.25,127,96.0
1064,B-2,89.5,2.25,127,96.0
1065,C2,89.5,0.25,127,96.0
1066,F#2,89.5,0.25,127,96.0
1067,E-4,89.5,0.25,127,96.0
1068,F#3,89.5,0.25,127,96.0
1069,E-4,89.75,0.25,127,96.0
1070,E-4,90.0,0.25,127,96.0
1071,C2,90.0,0.25,127,96.0
1072,F#3,90.0,0.25,127,96.0
1073,F#2,90.0,0.25,127,96.0
1074,E-4,90.5,0.25,127,96.0
1075,F#2,90.5,0.25,127,96.0
1076,E-4,90.75,0.25,127,96.0
1077,F#2,91.0,0.25,127,96.0
1078,C#2,91.0,0.25,127,96.0
1079,F#3,91.0,0.25,127,96.0
1080,D2,91.0,0.25,127,96.0
1081,E-2,91.0,0.25,127,96.0
1082,E-4,91.0,0.25,127,96.0
1083,F#3,91.5,0.25,127,96.0
1084,C2,91.5,0.25,127,96.0
1085,B-2,91.5,0.25,127,96.0
1086,D2,91.5,0.25,127,96.0
1087,E-4,91.5,0.25,127,96.0
1088,F2,91.75,27/200,127,96.0
1089,E-4,91.75,0.25,127,96.0
1090,G3,92.0,4.0,92,96.0
1091,G2,92.0,1901/500,127,96.0
1092,E-4,92.0,1/200,127,96.0
1093,D4,92.0,1/200,102,96.0
1094,B-3,92.0,1/200,102,96.0
1095,B-3,92.0,4.0,1,96.0
1096,G3,92.0,4.0,1,96.0
1097,D3,92.0,4.0,1,96.0
1098,F#3,92.0,0.25,127,96.0
1099,F#2,92.0,0.25,127,96.0
1100,C2,92.0,0.25,127,96.0
1101,E-4,92.5,0.25,127,96.0
1102,B-2,92.5,0.25,127,96.0
1103,E-4,92.75,0.25,127,96.0
1104,E-2,93.0,0.25,127,96.0
1105,D2,93.0,0.25,127,96.0
1106,C#2,93.0,0.25,127,96.0
1107,E-4,93.0,0.25,127,96.0
1108,F#2,93.0,0.25,127,96.0
1109,C2,93.5,0.25,127,96.0
1110,E-4,93.5,0.25,127,96.0
1111,F#2,93.5,0.25,127,96.0
1112,F#3,93.5,0.25,127,96.0
1113,E-4,93.75,0.25,127,96.0
1114,G4,94.0,2.0,1,96.0
1115,C2,94.0,0.25,127,96.0
1116,F#2,94.0,0.25,127,96.0
1117,F#3,94.0,0.25,127,96.0
1118,E-4,94.0,0.25,127,96.0
1119,D4,94.5,1.5,1,96.0
1120,F#2,94.5,0.25,127,96.0
1121,E-4,94.5,0.25,127,96.0
1122,E-4,94.75,0.25,127,96.0
1123,C#2,95.0,0.25,127,96.0
1124,E-2,95.0,0.25,127,96.0
1125,F#3,95.0,0.25,127,96.0
1126,E-4,95.0,0.25,127,96.0
1127,F#2,95.0,0.25,127,96.0
1128,D2,95.0,0.25,127,96.0
1129,D2,95.5,0.25,127,96.0
1130,F#2,95.5,0.25,127,96.0
1131,E-4,95.5,0.25,127,96.0
1132,F#3,95.5,0.25,127,96.0
1133,C2,95.5,0.25,127,96.0
1134,D3,95.75,0.25,127,96.0
1135,E-4,95.75,0.25,127,96.0
1136,D2,95.75,0.25,127,96.0
1137,D2,96.0,1271/1000,127,96.0
1138,D4,96.0,1/200,1,96.0
1139,E-4,96.0,1/200,127,96.0
1140,D5,96.0,4.0,90,96.0
1141,D3,96.0,4.0,90,96.0
1142,F4,96.0,4.0,90,96.0
1143,A4,96.0,4.0,90,96.0
1144,A3,96.0,4.0,1,96.0
1145,F4,96.0,4.0,1,96.0
1146,F#2,96.0,0.25,127,96.0
1147,C2,96.0,0.25,127,96.0
1148,F#3,96.0,0.25,127,96.0
1149,F#2,96.5,0.25,127,96.0
1150,E-4,96.5,0.25,127,96.0
1151,A4,96.531,2.656,127,96.0
1152,E-4,96.75,0.25,127,96.0
1153,E-2,97.0,0.25,127,96.0
1154,D2,97.0,0.25,127,96.0
1155,E-4,97.0,0.25,127,96.0
1156,F#2,97.0,0.25,127,96.0
1157,C#2,97.0,0.25,127,96.0
1158,D5,97.125,2.031,127,96.0
1159,A2,97.271,0.75,127,96.0
1160,E-4,97.5,0.25,127,96.0
1161,C2,97.5,0.25,127,96.0
1162,F#3,97.5,0.25,127,96.0
1163,F#2,97.5,0.25,127,96.0
1164,E-4,97.75,0.25,127,96.0
1165,D5,98.0,2.0,1,96.0
1166,F#3,98.0,0.25,127,96.0
1167,F#2,98.0,0.25,127,96.0
1168,E-4,98.0,0.25,127,96.0
1169,C2,98.0,0.25,127,96.0
1170,D3,98.021,0.938,127,96.0
1171,F5,98.083,263/250,127,96.0
1172,A4,98.5,1.5,1,96.0
1173,F#2,98.5,0.25,127,96.0
1174,E-4,98.5,0.25,127,96.0
1175,E-4,98.75,0.25,127,96.0
1176,D2,99.0,127/200,127,96.0
1177,C#2,99.0,0.25,127,96.0
1178,F#3,99.0,0.25,127,96.0
1179,D2,99.0,0.25,127,96.0
1180,F#2,99.0,0.25,127,96.0
1181,E-2,99.0,0.25,127,96.0
1182,E-4,99.0,0.25,127,96.0
1183,F#3,99.5,0.25,127,96.0
1184,F#2,99.5,0.25,127,96.0
1185,C2,99.5,0.25,127,96.0
1186,E-4,99.5,0.25,127,96.0
1187,E-4,99.75,0.25,127,96.0
1188,E-2,100.0,1901/500,127,96.0
1189,E-4,100.0,1/200,127,96.0
1190,B-4,100.0,4.0,98,96.0
1191,G4,100.0,4.0,98,96.0
1192,E-4,100.0,4.0,98,96.0
1193,B-4,100.0,927/500,1,96.0
1194,G4,100.0,927/500,1,96.0
1195,E-4,100.0,927/500,1,96.0
1196,C4,100.0,927/500,1,96.0
1197,C2,100.0,0.25,127,96.0
1198,F#3,100.0,0.25,127,96.0
1199,F#2,100.0,0.25,127,96.0
1200,F#2,100.5,0.25,127,96.0
1201,E-4,100.5,0.25,127,96.0
1202,G5,100.583,2.625,127,96.0
1203,B-5,100.583,2.625,127,96.0
1204,E-4,100.75,0.25,127,96.0
1205,E-4,101.0,0.25,127,96.0
1206,E-2,101.0,0.25,127,96.0
1207,D2,101.0,0.25,127,96.0
1208,C#2,101.0,0.25,127,96.0
1209,F#2,101.0,0.25,127,96.0
1210,F#3,101.5,0.25,127,96.0
1211,F#2,101.5,0.25,127,96.0
1212,C2,101.5,0.25,127,96.0
1213,E-4,101.5,0.25,127,96.0
1214,E-4,101.75,0.25,127,96.0
1215,C2,102.0,0.25,127,96.0
1216,E-4,102.0,0.25,127,96.0
1217,F#2,102.0,0.25,127,96.0
1218,F#3,102.0,0.25,127,96.0
1219,E-4,102.021,271/1000,1,96.0
1220,C4,102.021,271/1000,1,96.0
1221,G4,102.021,271/1000,1,96.0
1222,B-4,102.021,271/1000,1,96.0
1223,D2,102.5,0.25,127,96.0
1224,F#2,102.5,0.25,127,96.0
1225,E-4,102.5,0.25,127,96.0
1226,B-4,102.542,1/200,1,96.0
1227,C4,102.542,1/200,1,96.0
1228,G4,102.542,1/200,1,96.0
1229,E-4,102.542,1/200,1,96.0
1230,E-4,102.75,0.25,127,96.0
1231,E-4,103.0,0.25,127,96.0
1232,F#3,103.0,0.25,127,96.0
1233,D2,103.0,0.25,127,96.0
1234,F#2,103.0,0.25,127,96.0
1235,E-2,103.0,0.25,127,96.0
1236,C#2,103.0,0.25,127,96.0
1237,D2,103.25,0.25,127,96.0
1238,E-4,103.5,0.25,127,96.0
1239,C2,103.5,0.25,127,96.0
1240,F#3,103.5,0.25,127,96.0
1241,D2,103.5,0.25,127,96.0
1242,F#2,103.5,0.25,127,96.0
1243,B-2,103.75,0.25,127,96.0
1244,E-4,103.75,0.25,127,96.0
1245,D2,103.75,0.25,127,96.0
1246,G4,104.0,1/200,90,96.0
1247,G2,104.0,1901/500,127,96.0
1248,G2,104.0,4.0,91,96.0
1249,B-3,104.0,4.0,91,96.0
1250,D4,104.0,4.0,91,96.0
1251,C#3,104.0,0.25,127,96.0
1252,F#3,104.0,0.25,127,96.0
1253,C2,104.0,0.25,127,96.0
1254,D2,104.0,1/200,127,96.0
1255,E-4,104.0,1/200,127,96.0
1256,G3,104.021,1979/500,1,96.0
1257,D3,104.021,1979/500,1,96.0
1258,D4,104.021,1979/500,1,96.0
1259,B-3,104.042,1021/500,1,96.0
1260,G4,104.115,927/250,127,96.0
1261,E-4,104.5,0.25,127,96.0
1262,E-4,104.75,0.25,127,96.0
1263,D2,105.0,0.25,127,96.0
1264,E-2,105.0,0.25,127,96.0
1265,C#2,105.0,0.25,127,96.0
1266,E-4,105.0,0.25,127,96.0
1267,C2,105.5,0.25,127,96.0
1268,F#3,105.5,0.25,127,96.0
1269,F#2,105.5,0.25,127,96.0
1270,E-4,105.5,0.25,127,96.0
1271,E-4,105.75,0.25,127,96.0
1272,C2,106.0,0.25,127,96.0
1273,F#3,106.0,0.25,127,96.0
1274,F#2,106.0,0.25,127,96.0
1275,E-4,106.0,0.25,127,96.0
1276,A3,106.042,0.75,1,96.0
1277,E-4,106.5,0.25,127,96.0
1278,F#2,106.5,0.25,127,96.0
1279,B-3,106.552,181/125,1,96.0
1280,E-4,106.75,0.25,127,96.0
1281,F#2,107.0,0.25,127,96.0
1282,F#3,107.0,0.25,127,96.0
1283,C#2,107.0,0.25,127,96.0
1284,E-4,107.0,0.25,127,96.0
1285,E-2,107.0,0.25,127,96.0
1286,D2,107.0,0.25,127,96.0
1287,B-2,107.5,0.25,127,96.0
1288,E-4,107.5,0.25,127,96.0
1289,F#3,107.5,0.25,127,96.0
1290,D2,107.5,0.25,127,96.0
1291,C2,107.5,0.25,127,96.0
1292,D3,107.75,0.25,127,96.0
1293,E-4,107.75,0.25,127,96.0
1294,B-3,108.0,1/200,102,96.0
1295,F#2,108.0,1901/500,127,96.0
1296,B-3,108.0,1/200,1,96.0
1297,E-4,108.0,1/200,127,96.0
1298,C#4,108.0,4.0,96,96.0
1299,F#3,108.0,4.0,96,96.0
1300,F#4,108.0,4.0,1,96.0
1301,C#5,108.0,4.0,1,96.0
1302,F#3,108.0,0.25,127,96.0
1303,C2,108.0,0.25,127,96.0
1304,F#2,108.0,0.25,127,96.0
1305,F#4,108.125,773/200,127,96.0
1306,F#2,108.5,0.25,127,96.0
1307,E-4,108.5,0.25,127,96.0
1308,E-4,108.75,0.25,127,96.0
1309,E-2,109.0,0.25,127,96.0
1310,F#2,109.0,0.25,127,96.0
1311,C#2,109.0,0.25,127,96.0
1312,D2,109.0,0.25,127,96.0
1313,E-4,109.0,0.25,127,96.0
1314,F#2,109.5,0.25,127,96.0
1315,F#3,109.5,0.25,127,96.0
1316,E-4,109.5,0.25,127,96.0
1317,C2,109.5,0.25,127,96.0
1318,E-4,109.75,0.25,127,96.0
1319,C2,110.0,0.25,127,96.0
1320,F#2,110.0,0.25,127,96.0
1321,F#3,110.0,0.25,127,96.0
1322,E-4,110.0,0.25,127,96.0
1323,E-4,110.5,0.25,127,96.0
1324,C2,110.5,0.25,127,96.0
1325,F#2,110.5,0.25,127,96.0
1326,E-4,110.75,0.25,127,96.0
1327,F#3,111.0,0.25,127,96.0
1328,C#2,111.0,0.25,127,96.0
1329,F#2,111.0,0.25,127,96.0
1330,D2,111.0,0.25,127,96.0
1331,E-4,111.0,0.25,127,96.0
1332,E-2,111.0,0.25,127,96.0
1333,D2,111.25,0.25,120,96.0
1334,F#2,111.5,0.25,127,96.0
1335,C2,111.5,0.25,127,96.0
1336,E-4,111.5,0.25,127,96.0
1337,F#3,111.5,0.25,127,96.0
1338,C#3,111.75,0.25,127,96.0
1339,D2,111.75,0.25,127,96.0
1340,E-4,111.75,0.25,127,96.0
1341,B-3,112.0,1/200,92,96.0
1342,B-1,112.0,1271/1000,127,96.0
1343,B-3,112.0,1/200,1,96.0
1344,E-4,112.0,1/200,127,96.0
1345,F4,112.0,4.0,102,96.0
1346,D4,112.0,4.0,102,96.0
1347,B-4,112.0,4.0,1,96.0
1348,F4,112.0,4.0,1,96.0
1349,D4,112.0,4.0,1,96.0
1350,C2,112.0,0.25,127,96.0
1351,F#3,112.0,0.25,127,96.0
1352,F#2,112.0,0.25,127,96.0
1353,F4,112.062,2.375,127,96.0
1354,F#2,112.5,0.25,127,96.0
1355,C2,112.5,0.25,127,96.0
1356,E-4,112.5,0.25,127,96.0
1357,E-4,112.75,0.25,127,96.0
1358,C#2,113.0,0.25,127,96.0
1359,F#2,113.0,0.25,127,96.0
1360,E-2,113.0,0.25,127,96.0
1361,D2,113.0,0.25,127,96.0
1362,E-4,113.0,0.25,127,96.0
1363,F2,113.271,0.75,127,96.0
1364,E-4,113.5,0.25,127,96.0
1365,F#3,113.5,0.25,127,96.0
1366,F#2,113.5,0.25,127,96.0
1367,C2,113.5,0.25,127,96.0
1368,E-4,113.75,0.25,127,96.0
1369,C2,114.0,0.25,127,96.0
1370,F#2,114.0,0.25,127,96.0
1371,F#3,114.0,0.25,127,96.0
1372,E-4,114.0,0.25,127,96.0
1373,B-2,114.021,0.938,127,96.0
1374,E-4,114.5,0.25,127,96.0
1375,F#2,114.5,0.25,127,96.0
1376,C2,114.5,0.25,127,96.0
1377,E-4,114.75,0.25,127,96.0
1378,B-1,115.0,127/200,127,96.0
1379,C#2,115.0,0.25,127,96.0
1380,F#2,115.0,0.25,127,96.0
1381,D2,115.0,0.25,127,96.0
1382,E-2,115.0,0.25,127,96.0
1383,E-4,115.0,0.25,127,96.0
1384,F#3,115.0,0.25,127,96.0
1385,F#2,115.5,0.25,127,96.0
1386,C2,115.5,0.25,127,96.0
1387,E-4,115.5,0.25,127,96.0
1388,F#3,115.5,0.25,127,96.0
1389,B2,115.5,0.25,127,96.0
1390,B2,115.75,0.25,127,96.0
1391,E-4,115.75,0.25,127,96.0
1392,G#2,116.0,1901/500,127,96.0
1393,E-4,116.0,1/200,127,96.0
1394,C4,116.0,4.0,98,96.0
1395,E-4,116.0,4.0,98,96.0
1396,G#3,116.0,4.0,98,96.0
1397,G#3,116.0,4.0,1,96.0
1398,C4,116.0,4.0,1,96.0
1399,E-3,116.0,4.0,1,96.0
1400,C2,116.0,0.25,127,96.0
1401,F#3,116.0,0.25,127,96.0
1402,F#2,116.0,0.25,127,96.0
1403,E-4,116.5,0.25,127,96.0
1404,F#2,116.5,0.25,127,96.0
1405,E-4,116.75,0.25,127,96.0
1406,F#2,117.0,0.25,127,96.0
1407,C#2,117.0,0.25,127,96.0
1408,E-2,117.0,0.25,127,96.0
1409,D2,117.0,0.25,127,96.0
1410,E-4,117.0,0.25,127,96.0
1411,F#2,117.5,0.25,127,96.0
1412,C2,117.5,0.25,127,96.0
1413,F#3,117.5,0.25,127,96.0
1414,E-4,117.5,0.25,127,96.0
1415,E-4,117.75,0.25,127,96.0
1416,G#4,118.0,2.0,1,96.0
1417,F#2,118.0,0.25,127,96.0
1418,C2,118.0,0.25,127,96.0
1419,E-4,118.0,0.25,127,96.0
1420,F#3,118.0,0.25,127,96.0
1421,E-4,118.5,1.5,1,96.0
1422,F#2,118.5,0.25,127,96.0
1423,E-4,118.5,0.25,127,96.0
1424,D2,118.5,0.25,127,96.0
1425,E-4,118.75,0.25,127,96.0
1426,C#2,119.0,0.25,127,96.0
1427,D2,119.0,0.25,127,96.0
1428,F#3,119.0,0.25,127,96.0
1429,E-2,119.0,0.25,127,96.0
1430,F#2,119.0,0.25,127,96.0
1431,E-4,119.0,0.25,127,96.0
1432,D2,119.25,0.25,127,96.0
1433,C2,119.5,0.25,127,96.0
1434,D2,119.5,0.25,127,96.0
1435,E-4,119.5,0.25,127,96.0
1436,F#3,119.5,0.25,127,96.0
1437,F#2,119.5,0.25,127,96.0
1438,E-3,119.75,0.25,127,96.0
1439,E-4,119.75,0.25,127,96.0
1440,D2,119.75,0.25,127,96.0
1441,E-4,120.0,1/200,93,96.0
1442,C3,120.0,771/1000,127,96.0
1443,G3,120.0,4.0,1,96.0
1444,C3,120.0,4.0,90,96.0
1445,G4,120.0,4.0,90,96.0
1446,C5,120.0,4.0,90,96.0
1447,E-4,120.0,1/200,1,96.0
1448,C4,120.0,1/200,1,96.0
1449,F#3,120.0,0.25,127,96.0
1450,C2,120.0,0.25,127,96.0
1451,C#3,120.0,0.25,127,96.0
1452,E-4,120.0,1/200,127,96.0
1453,D2,120.0,1/200,127,96.0
1454,E-4,120.5,0.25,127,96.0
1455,E-4,120.75,0.25,127,96.0
1456,C2,120.771,323/1000,127,96.0
1457,E-4,121.0,0.25,127,96.0
1458,D2,121.0,0.25,127,96.0
1459,C#2,121.0,0.25,127,96.0
1460,E-2,121.0,0.25,127,96.0
1461,C2,121.5,901/500,127,96.0
1462,F#2,121.5,0.25,127,96.0
1463,C2,121.5,0.25,127,96.0
1464,E-4,121.5,0.25,127,96.0
1465,F#3,121.5,0.25,127,96.0
1466,E-4,121.75,0.25,127,96.0
1467,C5,122.0,2.0,1,96.0
1468,F#2,122.0,0.25,127,96.0
1469,F#3,122.0,0.25,127,96.0
1470,C2,122.0,0.25,127,96.0
1471,E-4,122.0,0.25,127,96.0
1472,G4,122.5,1.5,1,96.0
1473,E-4,122.5,0.25,127,96.0
1474,F#2,122.5,0.25,127,96.0
1475,E-4,122.75,0.25,127,96.0
1476,F#3,123.0,0.25,127,96.0
1477,D2,123.0,0.25,127,96.0
1478,F#2,123.0,0.25,127,96.0
1479,C#2,123.0,0.25,127,96.0
1480,E-4,123.0,0.25,127,96.0
1481,E-2,123.0,0.25,127,96.0
1482,G2,123.5,27/200,127,96.0
1483,B-2,123.5,0.25,127,96.0
1484,D2,123.5,0.25,127,96.0
1485,F#3,123.5,0.25,127,96.0
1486,E-4,123.5,0.25,127,96.0
1487,C2,123.5,0.25,127,96.0
1488,G2,123.75,167/1000,127,96.0
1489,E-4,123.75,0.25,127,96.0
1490,C3,124.0,1/200,122,96.0
1491,G#2,124.0,1901/500,127,96.0
1492,C4,124.0,1/200,1,96.0
1493,E-4,124.0,1/200,127,96.0
1494,E-3,124.0,4.0,110,96.0
1495,G#2,124.0,4.0,110,96.0
1496,E-3,124.0,4.0,1,96.0
1497,G#3,124.0,4.0,1,96.0
1498,C2,124.0,0.25,127,96.0
1499,F#3,124.0,0.25,127,96.0
1500,F#2,124.0,0.25,127,96.0
1501,E-4,124.5,0.25,127,96.0
1502,F#2,124.5,0.25,127,96.0
1503,E-4,124.75,0.25,127,96.0
1504,E-2,125.0,0.25,127,96.0
1505,E-4,125.0,0.25,127,96.0
1506,C#2,125.0,0.25,127,96.0
1507,F#2,125.0,0.25,127,96.0
1508,D2,125.0,0.25,127,96.0
1509,F#2,125.5,0.25,127,96.0
1510,E-4,125.5,0.25,127,96.0
1511,F#3,125.5,0.25,127,96.0
1512,C2,125.5,0.25,127,96.0
1513,E-4,125.75,0.25,127,96.0
1514,G#4,126.0,2.0,1,96.0
1515,F#2,126.0,0.25,127,96.0
1516,F#3,126.0,0.25,127,96.0
1517,C2,126.0,0.25,127,96.0
1518,E-4,126.0,0.25,127,96.0
1519,E-4,126.5,1.5,1,96.0
1520,E-4,126.5,0.25,127,96.0
1521,F#2,126.5,0.25,127,96.0
1522,C2,126.5,0.25,127,96.0
1523,E-4,126.75,0.25,127,96.0
1524,E-2,127.0,0.25,127,96.0
1525,F#3,127.0,0.25,127,96.0
1526,E-4,127.0,0.25,127,96.0
1527,D2,127.0,0.25,127,96.0
1528,F#2,127.0,0.25,127,96.0
1529,C#2,127.0,0.25,127,96.0
1530,D2,127.25,0.25,120,96.0
1531,F#3,127.5,0.25,127,96.0
1532,F#2,127.5,0.25,127,96.0
1533,E-4,127.5,0.25,127,96.0
1534,C2,127.5,0.25,127,96.0
1535,E-3,127.75,0.25,127,96.0
1536,D2,127.75,0.25,127,96.0
1537,E-4,127.75,0.25,127,96.0
1538,D3,128.0,771/1000,127,96.0
1539,E-4,128.0,1/200,127,96.0
1540,F#4,128.0,4.0,98,96.0
1541,A4,128.0,4.0,98,96.0
1542,D4,128.0,4.0,98,96.0
1543,D4,128.0,4.0,1,96.0
1544,F#3,128.0,4.0,1,96.0
1545,A4,128.0,4.0,1,96.0
1546,C2,128.0,0.25,127,96.0
1547,F#2,128.0,0.25,127,96.0
1548,F#3,128.0,0.25,127,96.0
1549,E-4,128.5,0.25,127,96.0
1550,B-2,128.5,0.25,127,96.0
1551,E-4,128.75,0.25,127,96.0
1552,D2,128.771,323/1000,127,96.0
1553,D2,129.0,0.25,127,96.0
1554,E-4,129.0,0.25,127,96.0
1555,F#2,129.0,0.25,127,96.0
1556,E-2,129.0,0.25,127,96.0
1557,C#2,129.0,0.25,127,96.0
1558,D2,129.5,901/500,127,96.0
1559,E-4,129.5,0.25,127,96.0
1560,C2,129.5,0.25,127,96.0
1561,F#3,129.5,0.25,127,96.0
1562,F#2,129.5,0.25,127,96.0
1563,E-4,129.75,0.25,127,96.0
1564,C2,130.0,0.25,127,96.0
1565,F#3,130.0,0.25,127,96.0
1566,F#2,130.0,0.25,127,96.0
1567,E-4,130.0,0.25,127,96.0
1568,E-4,130.5,0.25,127,96.0
1569,F#2,130.5,0.25,127,96.0
1570,E-4,130.75,0.25,127,96.0
1571,C#2,131.0,0.25,127,96.0
1572,E-2,131.0,0.25,127,96.0
1573,E-4,131.0,0.25,127,96.0
1574,F#2,131.0,0.25,127,96.0
1575,D2,131.0,0.25,127,96.0
1576,F#3,131.0,0.25,127,96.0
1577,A2,131.5,27/200,127,96.0
1578,E-4,131.5,0.25,127,96.0
1579,C2,131.5,0.25,127,96.0
1580,D2,131.5,0.25,127,96.0
1581,F#3,131.5,0.25,127,96.0
1582,F#2,131.5,0.25,127,96.0
1583,A2,131.75,167/1000,127,96.0
1584,D2,131.75,0.25,127,96.0
1585,E-4,131.75,0.25,127,96.0
1586,E-2,132.0,1901/500,127,96.0
1587,E-4,132.0,1/200,127,96.0
1588,B-3,132.0,4.0,114,96.0
1589,G3,132.0,4.0,114,96.0
1590,E-3,132.0,4.0,114,96.0
1591,B-4,132.0,4.0,1,96.0
1592,G3,132.0,4.0,1,96.0
1593,E-4,132.0,4.0,1,96.0
1594,C4,132.0,4.0,1,96.0
1595,C2,132.0,0.25,127,96.0
1596,F#3,132.0,0.25,127,96.0
1597,F#2,132.0,0.25,127,96.0
1598,F#2,132.5,0.25,127,96.0
1599,C2,132.5,0.25,127,96.0
1600,E-4,132.5,0.25,127,96.0
1601,E-4,132.75,0.25,127,96.0
1602,E-4,133.0,0.25,127,96.0
1603,D2,133.0,0.25,127,96.0
1604,E-2,133.0,0.25,127,96.0
1605,C#2,133.0,0.25,127,96.0
1606,F#2,133.0,0.25,127,96.0
1607,E-4,133.5,0.25,127,96.0
1608,F#3,133.5,0.25,127,96.0
1609,C2,133.5,0.25,127,96.0
1610,F#2,133.5,0.25,127,96.0
1611,E-4,133.75,0.25,127,96.0
1612,E-4,134.0,0.25,127,96.0
1613,F#3,134.0,0.25,127,96.0
1614,C2,134.0,0.25,127,96.0
1615,F#2,134.0,0.25,127,96.0
1616,E-4,134.5,0.25,127,96.0
1617,F#2,134.5,0.25,127,96.0
1618,C2,134.5,0.25,127,96.0
1619,E-4,134.75,0.25,127,96.0
1620,E-4,135.0,0.25,127,96.0
1621,D2,135.0,0.25,127,96.0
1622,F#2,135.0,0.25,127,96.0
1623,F#3,135.0,0.25,127,96.0
1624,C#2,135.0,0.25,127,96.0
1625,E-2,135.0,0.25,127,96.0
1626,F#3,135.5,0.25,127,96.0
1627,F#2,135.5,0.25,127,96.0
1628,E-4,135.5,0.25,127,96.0
1629,C2,135.5,0.25,127,96.0
1630,B2,135.5,0.25,127,96.0
1631,B-2,135.75,0.25,127,96.0
1632,E-4,135.75,0.25,127,96.0
1633,B2,135.75,0.25,127,96.0
1634,A1,136.0,194/125,127,96.0
1635,G3,136.0,1/200,1,96.0
1636,E-4,136.0,1/200,127,96.0
1637,A3,136.0,4.0,98,96.0
1638,C#4,136.0,4.0,98,96.0
1639,E4,136.0,4.0,98,96.0
1640,A3,136.0,4.0,1,96.0
1641,C#4,136.0,4.0,1,96.0
1642,E3,136.0,4.0,1,96.0
1643,F#2,136.0,0.25,127,96.0
1644,C2,136.0,0.25,127,96.0
1645,F#3,136.0,0.25,127,96.0
1646,E-4,136.5,0.25,127,96.0
1647,F#2,136.5,0.25,127,96.0
1648,E-4,136.75,0.25,127,96.0
1649,E-4,137.0,0.25,127,96.0
1650,F#2,137.0,0.25,127,96.0
1651,E-2,137.0,0.25,127,96.0
1652,D2,137.0,0.25,127,96.0
1653,C#2,137.0,0.25,127,96.0
1654,A2,137.5,2.25,127,96.0
1655,C2,137.5,0.25,127,96.0
1656,F#3,137.5,0.25,127,96.0
1657,E-4,137.5,0.25,127,96.0
1658,F#2,137.5,0.25,127,96.0
1659,E-4,137.75,0.25,127,96.0
1660,E4,138.0,2.0,1,96.0
1661,E-4,138.0,0.25,127,96.0
1662,C2,138.0,0.25,127,96.0
1663,F#3,138.0,0.25,127,96.0
1664,F#2,138.0,0.25,127,96.0
1665,F4,138.5,1.5,1,96.0
1666,E-4,138.5,0.25,127,96.0
1667,F#2,138.5,0.25,127,96.0
1668,C2,138.5,0.25,127,96.0
1669,E-4,138.75,0.25,127,96.0
1670,A4,139.0,1.0,1,96.0
1671,C#2,139.0,0.25,127,96.0
1672,E-4,139.0,0.25,127,96.0
1673,E-2,139.0,0.25,127,96.0
1674,D2,139.0,0.25,127,96.0
1675,F#2,139.0,0.25,127,96.0
1676,F#3,139.0,0.25,127,96.0
1677,D2,139.25,0.25,120,96.0
1678,B4,139.5,0.5,1,96.0
1679,C2,139.5,0.25,127,96.0
1680,E-4,139.5,0.25,127,96.0
1681,F#2,139.5,0.25,127,96.0
1682,F#3,139.5,0.25,127,96.0
1683,E2,139.75,27/200,127,96.0
1684,D2,139.75,0.25,127,96.0
1685,E-4,139.75,0.25,127,96.0
1686,E-2,140.0,1901/500,127,96.0
1687,E-4,140.0,1/200,127,96.0
1688,E-5,140.0,4.0,90,96.0
1689,E-3,140.0,4.0,90,96.0
1690,B-4,140.0,4.0,90,96.0
1691,F#4,140.0,4.0,90,96.0
1692,E-4,140.0,4.0,1,96.0
1693,F#4,140.0,4.0,1,96.0
1694,B-3,140.0,4.0,1,96.0
1695,F#2,140.0,0.25,127,96.0
1696,F#3,140.0,0.25,127,96.0
1697,C2,140.0,0.25,127,96.0
1698,F#2,140.5,0.25,127,96.0
1699,E-4,140.5,0.25,127,96.0
1700,C2,140.5,0.25,127,96.0
1701,E-4,140.75,0.25,127,96.0
1702,E-4,141.0,0.25,127,96.0
1703,C#2,141.0,0.25,127,96.0
1704,F#2,141.0,0.25,127,96.0
1705,E-2,141.0,0.25,127,96.0
1706,D2,141.0,0.25,127,96.0
1707,C2,141.5,0.25,127,96.0
1708,E-4,141.5,0.25,127,96.0
1709,F#3,141.5,0.25,127,96.0
1710,F#2,141.5,0.25,127,96.0
1711,E-4,141.75,0.25,127,96.0
1712,E-5,142.0,2.0,1,96.0
1713,C2,142.0,0.25,127,96.0
1714,F#3,142.0,0.25,127,96.0
1715,E-4,142.0,0.25,127,96.0
1716,F#2,142.0,0.25,127,96.0
1717,B-4,142.5,1.5,1,96.0
1718,F#2,142.5,0.25,127,96.0
1719,C2,142.5,0.25,127,96.0
1720,E-4,142.5,0.25,127,96.0
1721,E-4,142.75,0.25,127,96.0
1722,D2,143.0,0.25,127,96.0
1723,C#2,143.0,0.25,127,96.0
1724,E-2,143.0,0.25,127,96.0
1725,F#2,143.0,0.25,127,96.0
1726,F#3,143.0,0.25,127,96.0
1727,E-4,143.0,0.25,127,96.0
1728,F#2,143.5,0.25,127,96.0
1729,E-4,143.5,0.25,127,96.0
1730,C2,143.5,0.25,127,96.0
1731,F#3,143.5,0.25,127,96.0
1732,B2,143.5,0.25,127,96.0
1733,B-2,143.75,0.25,127,96.0
1734,B2,143.75,0.25,127,96.0
1735,E-4,143.75,0.25,127,96.0
1736,F2,144.0,1901/500,127,96.0
1737,E-4,144.0,1/200,127,96.0
1738,A3,144.0,4.0,114,96.0
1739,F3,144.0,4.0,114,96.0
1740,C4,144.0,4.0,114,96.0
1741,A4,144.0,4.0,1,96.0
1742,C4,144.0,4.0,1,96.0
1743,F4,144.0,4.0,1,96.0
1744,C2,144.0,0.25,127,96.0
1745,F#3,144.0,0.25,127,96.0
1746,F#2,144.0,0.25,127,96.0
1747,E-4,144.5,0.25,127,96.0
1748,B-2,144.5,0.25,127,96.0
1749,F3,144.573,2427/1000,127,96.0
1750,E-4,144.75,0.25,127,96.0
1751,E-2,145.0,0.25,127,96.0
1752,F#2,145.0,0.25,127,96.0
1753,E-4,145.0,0.25,127,96.0
1754,D2,145.0,0.25,127,96.0
1755,C#2,145.0,0.25,127,96.0
1756,A3,145.073,2.062,127,96.0
1757,C4,145.5,1.625,127,96.0
1758,F#3,145.5,0.25,127,96.0
1759,C2,145.5,0.25,127,96.0
1760,F#2,145.5,0.25,127,96.0
1761,E-4,145.5,0.25,127,96.0
1762,E-4,145.75,0.25,127,96.0
1763,C5,146.0,2.0,1,96.0
1764,F#3,146.0,0.25,127,96.0
1765,C2,146.0,0.25,127,96.0
1766,E-4,146.0,0.25,127,96.0
1767,F#2,146.0,0.25,127,96.0
1768,F4,146.073,223/200,127,96.0
1769,D5,146.5,1.5,1,96.0
1770,D3,146.5,0.25,127,96.0
1771,F#2,146.5,0.25,127,96.0
1772,E-4,146.5,0.25,127,96.0
1773,E-4,146.75,0.25,127,96.0
1774,D3,146.75,0.25,127,96.0
1775,F5,147.0,1.0,1,96.0
1776,E-4,147.0,0.25,127,96.0
1777,B2,147.0,0.25,127,96.0
1778,F#3,147.0,0.25,127,96.0
1779,E-2,147.0,0.25,127,96.0
1780,F#2,147.0,0.25,127,96.0
1781,C#2,147.0,0.25,127,96.0
1782,D2,147.0,0.25,127,96.0
1783,B2,147.25,0.25,127,96.0
1784,G5,147.5,0.5,1,96.0
1785,F2,147.5,0.25,127,96.0
1786,E-4,147.5,0.25,127,96.0
1787,C2,147.5,0.25,127,96.0
1788,F#2,147.5,0.25,127,96.0
1789,F#3,147.5,0.25,127,96.0
1790,D2,147.5,0.25,127,96.0
1791,C3,147.75,0.25,127,96.0
1792,E-4,147.75,0.25,127,96.0
1793,F2,147.75,0.25,127,96.0
1794,D2,147.75,0.25,127,96.0
1795,C4,148.0,1/200,107,96.0
1796,B-1,148.0,151/100,127,96.0
1797,D4,148.0,2.0,114,96.0
1798,F4,148.0,2.0,114,96.0
1799,D2,148.0,1/200,127,96.0
1800,E-4,148.0,1/200,127,96.0
1801,F4,148.042,1.812,1,96.0
1802,C5,148.042,1.812,1,96.0
1803,A4,148.042,1.812,1,96.0
1804,D4,148.042,1.812,1,96.0
1805,E-4,148.5,0.25,127,96.0
1806,E-4,148.75,0.25,127,96.0
1807,E-2,149.0,0.25,127,96.0
1808,D2,149.0,0.25,127,96.0
1809,E-4,149.0,0.25,127,96.0
1810,C#2,149.0,0.25,127,96.0
1811,F4,149.073,377/200,127,96.0
1812,D5,149.083,2917/1000,127,96.0
1813,F2,149.5,0.156,127,96.0
1814,F#2,149.5,0.25,127,96.0
1815,C2,149.5,0.25,127,96.0
1816,E-4,149.5,0.25,127,96.0
1817,F2,149.75,167/1000,127,96.0
1818,E-4,149.75,0.25,127,96.0
1819,B-1,150.0,151/100,127,96.0
1820,F4,150.0,2.0,111,96.0
1821,B-3,150.0,2.0,111,96.0
1822,D4,150.0,2.0,111,96.0
1823,B-4,150.0,1.812,1,96.0
1824,B-3,150.0,1.812,1,96.0
1825,F4,150.0,1.812,1,96.0
1826,D4,150.0,1.812,1,96.0
1827,C2,150.0,0.25,127,96.0
1828,F#2,150.0,0.25,127,96.0
1829,E-4,150.0,0.25,127,96.0
1830,F5,150.062,1.938,127,96.0
1831,E-4,150.5,0.25,127,96.0
1832,F#2,150.5,0.25,127,96.0
1833,E-4,150.75,0.25,127,96.0
1834,E-4,151.0,0.25,127,96.0
1835,E-2,151.0,0.25,127,96.0
1836,C#2,151.0,0.25,127,96.0
1837,D2,151.0,0.25,127,96.0
1838,F#2,151.0,0.25,127,96.0
1839,F2,151.5,0.156,127,96.0
1840,D2,151.5,0.25,127,96.0
1841,E-4,151.5,0.25,127,96.0
1842,B-2,151.5,0.25,127,96.0
1843,C2,151.5,0.25,127,96.0
1844,F2,151.75,167/1000,127,96.0
1845,E-4,151.75,0.25,127,96.0
1846,C4,152.0,2.0,107,96.0
1847,B-1,152.0,2.0,127,96.0
1848,D5,152.0,521/1000,127,96.0
1849,F5,152.0,0.5,127,96.0
1850,E-4,152.0,1/200,127,96.0
1851,D4,152.0,1/200,114,96.0
1852,F4,152.0,1/200,114,96.0
1853,F4,152.0,1.812,1,96.0
1854,A3,152.0,1.812,1,96.0
1855,D4,152.0,1.812,1,96.0
1856,C4,152.0,1.812,1,96.0
1857,C2,152.0,0.25,127,96.0
1858,F#2,152.0,0.25,127,96.0
1859,E-4,152.5,0.25,127,96.0
1860,F#2,152.5,0.25,127,96.0
1861,E-4,152.75,0.25,127,96.0
1862,E-2,153.0,0.25,127,96.0
1863,C#2,153.0,0.25,127,96.0
1864,D2,153.0,0.25,127,96.0
1865,F#2,153.0,0.25,127,96.0
1866,E-4,153.0,0.25,127,96.0
1867,D4,153.083,2.188,127,96.0
1868,E-4,153.5,0.25,127,96.0
1869,C2,153.5,0.25,127,96.0
1870,F#2,153.5,0.25,127,96.0
1871,F4,153.583,2417/1000,127,96.0
1872,E-4,153.75,0.25,127,96.0
1873,B-3,154.0,2.0,107,96.0
1874,B-1,154.0,0.812,127,96.0
1875,D4,154.0,1/200,114,96.0
1876,F4,154.0,1/200,114,96.0
1877,B-3,154.0,1.812,1,96.0
1878,D4,154.0,1.812,1,96.0
1879,B-4,154.0,1.812,1,96.0
1880,F4,154.0,1.812,1,96.0
1881,F#2,154.0,0.25,127,96.0
1882,C2,154.0,0.25,127,96.0
1883,E-4,154.0,0.25,127,96.0
1884,B-4,154.115,377/200,127,96.0
1885,E-4,154.5,0.25,127,96.0
1886,F#2,154.5,0.25,127,96.0
1887,C2,154.5,0.25,127,96.0
1888,F2,154.75,26/125,127,96.0
1889,E-4,154.75,0.25,127,96.0
1890,D3,155.0,73/250,127,96.0
1891,E-2,155.0,0.25,127,96.0
1892,F#2,155.0,0.25,127,96.0
1893,E-4,155.0,0.25,127,96.0
1894,C#2,155.0,0.25,127,96.0
1895,D2,155.0,0.25,127,96.0
1896,F2,155.25,167/1000,127,96.0
1897,D2,155.25,0.25,120,96.0
1898,B-1,155.5,26/125,127,96.0
1899,E-4,155.5,0.25,127,96.0
1900,C2,155.5,0.25,127,96.0
1901,F#2,155.5,0.25,127,96.0
1902,B-2,155.75,0.25,127,96.0
1903,E-4,155.75,0.25,127,96.0
1904,D2,155.75,0.25,127,96.0
1905,B-3,156.0,1/200,114,96.0
1906,E-2,156.0,2.0,127,96.0
1907,F4,156.0,73/200,127,96.0
1908,B-4,156.0,427/1000,127,96.0
1909,E-4,156.0,1/200,127,96.0
1910,G3,156.0,2.0,110,96.0
1911,E-3,156.0,2.0,110,96.0
1912,F#2,156.0,0.25,127,96.0
1913,C2,156.0,0.25,127,96.0
1914,B-3,156.042,1.812,1,96.0
1915,G4,156.042,1.812,1,96.0
1916,F4,156.042,1.812,1,96.0
1917,D4,156.042,1.812,1,96.0
1918,E-4,156.25,1/200,127,96.0
1919,E-4,156.5,1/200,127,96.0
1920,F#2,156.5,0.25,127,96.0
1921,C2,156.5,0.25,127,96.0
1922,E-4,156.75,1/200,127,96.0
1923,E-4,157.0,1/200,127,96.0
1924,E-2,157.0,0.25,127,96.0
1925,F#2,157.0,0.25,127,96.0
1926,C#2,157.0,0.25,127,96.0
1927,D2,157.0,0.25,127,96.0
1928,E-4,157.042,1.125,127,96.0
1929,B-4,157.083,583/1000,127,96.0
1930,G4,157.083,583/1000,127,96.0
1931,F#2,157.5,0.25,127,96.0
1932,E-4,157.5,0.25,127,96.0
1933,C2,157.5,0.25,127,96.0
1934,E-4,157.75,0.25,127,96.0
1935,B-3,158.0,1/200,114,96.0
1936,E-2,158.0,2.0,127,96.0
1937,E-3,158.0,2.0,110,96.0
1938,G3,158.0,2.0,110,96.0
1939,E-4,158.0,0.25,127,96.0
1940,C2,158.0,0.25,127,96.0
1941,F#2,158.0,0.25,127,96.0
1942,G4,158.042,1.812,1,96.0
1943,C4,158.042,1.812,1,96.0
1944,B-3,158.042,1.812,1,96.0
1945,E-4,158.042,1.812,1,96.0
1946,B-5,158.094,1.906,127,96.0
1947,G5,158.094,1.906,127,96.0
1948,E-4,158.5,0.25,127,96.0
1949,C2,158.5,0.25,127,96.0
1950,F#2,158.5,0.25,127,96.0
1951,E-4,158.75,0.25,127,96.0
1952,E-4,159.0,0.25,127,96.0
1953,F#2,159.0,0.25,127,96.0
1954,C#2,159.0,0.25,127,96.0
1955,E-2,159.0,0.25,127,96.0
1956,D2,159.0,0.25,127,96.0
1957,C2,159.5,0.25,127,96.0
1958,B2,159.5,0.25,127,96.0
1959,E-4,159.5,0.25,127,96.0
1960,F#2,159.5,0.25,127,96.0
1961,B2,159.75,0.25,127,96.0
1962,E-4,159.75,0.25,127,96.0
1963,E-2,160.0,1/200,127,96.0
1964,E-4,160.0,1/200,127,96.0
1965,G3,160.0,1/200,111,96.0
1966,E-3,160.0,1/200,111,96.0
1967,B-3,160.0,1/200,111,96.0
1968,B-5,160.0,49/100,127,96.0
1969,G5,160.0,49/100,127,96.0
1970,D4,160.0,1.812,1,96.0
1971,F4,160.0,1.812,1,96.0
1972,B-3,160.0,1.812,1,96.0
1973,G3,160.0,1.812,1,96.0
1974,C2,160.0,0.25,127,96.0
1975,F#2,160.0,0.25,127,96.0
1976,E-4,160.5,0.25,127,96.0
1977,F#2,160.5,0.25,127,96.0
1978,E-4,160.75,0.25,127,96.0
1979,C#2,161.0,0.25,127,96.0
1980,E-2,161.0,0.25,127,96.0
1981,F#2,161.0,0.25,127,96.0
1982,E-4,161.0,0.25,127,96.0
1983,D2,161.0,0.25,127,96.0
1984,C2,161.5,0.25,127,96.0
1985,E-4,161.5,0.25,127,96.0
1986,F#2,161.5,0.25,127,96.0
1987,G4,161.542,31/25,127,96.0
1988,E-4,161.75,0.25,127,96.0
1989,E-2,162.0,1/200,127,96.0
1990,G3,162.0,1/200,111,96.0
1991,E-3,162.0,1/200,111,96.0
1992,B-3,162.0,1/200,111,96.0
1993,E-4,162.0,0.25,127,96.0
1994,C2,162.0,0.25,127,96.0
1995,F#2,162.0,0.25,127,96.0
1996,B-3,162.042,1.812,1,96.0
1997,G4,162.042,1.812,1,96.0
1998,C4,162.042,1.812,1,96.0
1999,E-4,162.042,1.812,1,96.0
2000,B-4,162.083,223/200,127,96.0
2001,F#2,162.5,0.25,127,96.0
2002,E-4,162.5,0.25,127,96.0
2003,E-4,162.75,0.25,127,96.0
2004,E-2,163.0,0.25,127,96.0
2005,C#2,163.0,0.25,127,96.0
2006,D2,163.0,0.25,127,96.0
2007,E-4,163.0,0.25,127,96.0
2008,F#2,163.0,0.25,127,96.0
2009,G4,163.083,667/1000,127,96.0
2010,C2,163.5,0.25,127,96.0
2011,F#2,163.5,0.25,127,96.0
2012,E-4,163.5,0.25,127,96.0
2013,E-4,163.75,0.25,127,96.0
2014,D2,164.0,151/100,127,96.0
2015,E-4,164.0,1/200,127,96.0
2016,A4,164.0,2.0,111,96.0
2017,D4,164.0,2.0,111,96.0
2018,F4,164.0,2.0,111,96.0
2019,C2,164.0,0.25,127,96.0
2020,F#2,164.0,0.25,127,96.0
2021,D4,164.042,1.812,1,96.0
2022,A3,164.042,1.812,1,96.0
2023,F4,164.042,1.812,1,96.0
2024,E-4,164.25,1/200,127,96.0
2025,E-4,164.5,1/200,127,96.0
2026,C2,164.5,0.25,127,96.0
2027,F#2,164.5,0.25,127,96.0
2028,A4,164.583,771/500,127,96.0
2029,E-4,164.75,1/200,127,96.0
2030,E-4,165.0,1/200,127,96.0
2031,D2,165.0,0.25,127,96.0
2032,C#2,165.0,0.25,127,96.0
2033,E-2,165.0,0.25,127,96.0
2034,F#2,165.0,0.25,127,96.0
2035,D5,165.104,479/500,127,96.0
2036,A2,165.5,0.156,127,96.0
2037,F#2,165.5,0.25,127,96.0
2038,C2,165.5,0.25,127,96.0
2039,E-4,165.5,0.25,127,96.0
2040,A2,165.75,167/1000,127,96.0
2041,E-4,165.75,0.25,127,96.0
2042,D2,166.0,0.562,127,96.0
2043,D4,166.0,2.0,111,96.0
2044,F4,166.0,2.0,111,96.0
2045,A4,166.0,2.0,111,96.0
2046,F3,166.0,1.812,1,96.0
2047,C4,166.0,1.812,1,96.0
2048,A3,166.0,1.812,1,96.0
2049,D4,166.0,1.812,1,96.0
2050,F#2,166.0,0.25,127,96.0
2051,C2,166.0,0.25,127,96.0
2052,E-4,166.0,0.25,127,96.0
2053,F#2,166.5,0.25,127,96.0
2054,E-4,166.5,0.25,127,96.0
2055,C2,166.5,0.25,127,96.0
2056,D2,166.75,0.188,127,96.0
2057,E-4,166.75,0.25,127,96.0
2058,A2,167.0,1.0,127,96.0
2059,E-4,167.0,0.25,127,96.0
2060,E-2,167.0,0.25,127,96.0
2061,C#2,167.0,0.25,127,96.0
2062,D2,167.0,0.25,127,96.0
2063,F#2,167.0,0.25,127,96.0
2064,B2,167.5,0.25,127,96.0
2065,C2,167.5,0.25,127,96.0
2066,F#2,167.5,0.25,127,96.0
2067,E-4,167.5,0.25,127,96.0
2068,B2,167.75,0.25,127,96.0
2069,E-4,167.75,0.25,127,96.0
2070,C3,168.0,4.0,95,96.0
2071,E-2,168.0,1901/500,127,96.0
2072,E-4,168.0,1/200,127,96.0
2073,E-4,168.0,3833/1000,1,96.0
2074,C4,168.0,3833/1000,1,96.0
2075,B-4,168.0,3833/1000,1,96.0
2076,G3,168.0,3833/1000,1,96.0
2077,C2,168.0,0.25,127,96.0
2078,F#2,168.0,0.25,127,96.0
2079,D5,168.469,2677/1000,127,96.0
2080,G5,168.469,2677/1000,127,96.0
2081,E-4,168.5,0.25,127,96.0
2082,F#2,168.5,0.25,127,96.0
2083,E-4,168.75,0.25,127,96.0
2084,E-2,169.0,0.25,127,96.0
2085,F#2,169.0,0.25,127,96.0
2086,D2,169.0,0.25,127,96.0
2087,E-4,169.0,0.25,127,96.0
2088,C#2,169.0,0.25,127,96.0
2089,B-5,169.073,263/125,127,96.0
2090,F#2,169.5,0.25,127,96.0
2091,C2,169.5,0.25,127,96.0
2092,E-4,169.5,0.25,127,96.0
2093,E-4,169.75,0.25,127,96.0
2094,E-4,170.0,0.25,127,96.0
2095,C2,170.0,0.25,127,96.0
2096,F#2,170.0,0.25,127,96.0
2097,C2,170.5,0.25,127,96.0
2098,F#2,170.5,0.25,127,96.0
2099,E-4,170.5,0.25,127,96.0
2100,E-4,170.75,0.25,127,96.0
2101,F#2,171.0,0.25,127,96.0
2102,C#2,171.0,0.25,127,96.0
2103,D2,171.0,0.25,127,96.0
2104,E-2,171.0,0.25,127,96.0
2105,E-4,171.0,0.25,127,96.0
2106,D2,171.25,0.25,120,96.0
2107,C2,171.5,0.25,127,96.0
2108,F#2,171.5,0.25,127,96.0
2109,E-4,171.5,0.25,127,96.0
2110,B-2,171.75,0.25,127,96.0
2111,E-4,171.75,0.25,127,96.0
2112,D2,171.75,0.25,127,96.0
2113,B-1,172.0,0.562,127,96.0
2114,E-4,172.0,1/200,127,96.0
2115,D4,172.0,2.0,111,96.0
2116,B-3,172.0,2.0,111,96.0
2117,F4,172.0,2.0,111,96.0
2118,F#2,172.0,0.25,127,96.0
2119,C2,172.0,0.25,127,96.0
2120,D4,172.042,1.812,1,96.0
2121,B-3,172.042,1.812,1,96.0
2122,F4,172.042,1.812,1,96.0
2123,F4,172.5,2229/1000,127,96.0
2124,B-2,172.5,0.25,127,96.0
2125,E-4,172.5,0.25,127,96.0
2126,B-1,172.75,0.188,127,96.0
2127,E-4,172.75,0.25,127,96.0
2128,F2,173.0,1.0,127,96.0
2129,E-2,173.0,0.25,127,96.0
2130,D2,173.0,0.25,127,96.0
2131,E-4,173.0,0.25,127,96.0
2132,C#2,173.0,0.25,127,96.0
2133,F#2,173.0,0.25,127,96.0
2134,B-4,173.073,194/125,127,96.0
2135,F#2,173.5,0.25,127,96.0
2136,C2,173.5,0.25,127,96.0
2137,E-4,173.5,0.25,127,96.0
2138,D5,173.531,227/200,127,96.0
2139,E-4,173.75,0.25,127,96.0
2140,F2,174.0,2.0,127,96.0
2141,C4,174.0,2.0,111,96.0
2142,F3,174.0,2.0,111,96.0
2143,A3,174.0,2.0,111,96.0
2144,G4,174.0,1.812,1,96.0
2145,A3,174.0,1.812,1,96.0
2146,D5,174.0,1.812,1,96.0
2147,E-4,174.0,1.812,1,96.0
2148,C2,174.0,0.25,127,96.0
2149,E-4,174.0,0.25,127,96.0
2150,F#2,174.0,0.25,127,96.0
2151,E-4,174.5,0.25,127,96.0
2152,F#2,174.5,0.25,127,96.0
2153,E-4,174.75,0.25,127,96.0
2154,D2,175.0,0.25,127,96.0
2155,E-4,175.0,0.25,127,96.0
2156,C#2,175.0,0.25,127,96.0
2157,F#2,175.0,0.25,127,96.0
2158,E-2,175.0,0.25,127,96.0
2159,F4,175.125,667/1000,127,96.0
2160,C2,175.5,0.25,127,96.0
2161,F#2,175.5,0.25,127,96.0
2162,D2,175.5,0.25,127,96.0
2163,E-4,175.5,0.25,127,96.0
2164,E-4,175.75,0.25,127,96.0
2165,D2,175.75,0.25,127,96.0
2166,B-1,176.0,1573/1000,127,96.0
2167,E-4,176.0,1/200,127,96.0
2168,B-3,176.0,4.0,111,96.0
2169,F4,176.0,4.0,111,96.0
2170,D4,176.0,4.0,111,96.0
2171,B-3,176.0,3833/1000,1,96.0
2172,D4,176.0,3833/1000,1,96.0
2173,F4,176.0,3833/1000,1,96.0
2174,C2,176.0,0.25,127,96.0
2175,F#2,176.0,0.25,127,96.0
2176,B-3,176.125,3823/1000,127,96.0
2177,B-2,176.5,0.25,127,96.0
2178,E-4,176.5,0.25,127,96.0
2179,E-4,176.75,0.25,127,96.0
2180,E-2,177.0,0.25,127,96.0
2181,F#2,177.0,0.25,127,96.0
2182,E-4,177.0,0.25,127,96.0
2183,D2,177.0,0.25,127,96.0
2184,C#2,177.0,0.25,127,96.0
2185,B-2,177.5,2.5,127,96.0
2186,C2,177.5,0.25,127,96.0
2187,E-4,177.5,0.25,127,96.0
2188,F#2,177.5,0.25,127,96.0
2189,E-4,177.75,0.25,127,96.0
2190,C2,178.0,0.25,127,96.0
2191,E-4,178.0,0.25,127,96.0
2192,F#2,178.0,0.25,127,96.0
2193,F#2,178.5,0.25,127,96.0
2194,E-4,178.5,0.25,127,96.0
2195,E-4,178.75,0.25,127,96.0
2196,E-4,179.0,0.25,127,96.0
2197,E-2,179.0,0.25,127,96.0
2198,F#2,179.0,0.25,127,96.0
2199,C#2,179.0,0.25,127,96.0
2200,D2,179.0,0.25,127,96.0
2201,D2,179.5,0.25,127,96.0
2202,E-4,179.5,0.25,127,96.0
2203,F#2,179.5,0.25,127,96.0
2204,C2,179.5,0.25,127,96.0
2205,D2,179.75,0.25,127,96.0
2206,E-4,179.75,0.25,127,96.0
2207,C2,180.0,2.0,127,96.0
2208,E-4,180.0,1/200,127,96.0
2209,C4,180.0,2.0,111,96.0
2210,E-4,180.0,2.0,111,96.0
2211,G4,180.0,2.0,111,96.0
2212,C2,180.0,0.25,127,96.0
2213,F#2,180.0,0.25,127,96.0
2214,B-3,180.042,1.812,1,96.0
2215,G4,180.042,1.812,1,96.0
2216,C4,180.042,1.812,1,96.0
2217,E-4,180.042,1.812,1,96.0
2218,E-4,180.5,0.25,127,96.0
2219,F#2,180.5,0.25,127,96.0
2220,D2,181.0,0.25,127,96.0
2221,C#2,181.0,0.25,127,96.0
2222,E-4,181.0,0.25,127,96.0
2223,E-2,181.0,0.25,127,96.0
2224,F#2,181.0,0.25,127,96.0
2225,F#2,181.5,0.25,127,96.0
2226,C2,181.5,0.25,127,96.0
2227,E-4,181.5,0.25,127,96.0
2228,F2,182.0,2.0,127,96.0
2229,C4,182.0,2.0,111,96.0
2230,F3,182.0,2.0,111,96.0
2231,A3,182.0,2.0,111,96.0
2232,C2,182.0,0.25,127,96.0
2233,F#2,182.0,0.25,127,96.0
2234,E-4,182.0,0.25,127,96.0
2235,A4,182.042,1.812,1,96.0
2236,E-4,182.042,1.812,1,96.0
2237,C4,182.042,1.812,1,96.0
2238,F4,182.042,1.812,1,96.0
2239,F#2,182.5,0.25,127,96.0
2240,E-4,182.5,0.25,127,96.0
2241,D2,182.5,0.25,127,96.0
2242,F#2,183.0,0.25,127,96.0
2243,D2,183.0,0.25,127,96.0
2244,E-4,183.0,0.25,127,96.0
2245,E-2,183.0,0.25,127,96.0
2246,C#2,183.0,0.25,127,96.0
2247,D2,183.25,0.25,127,96.0
2248,C2,183.5,0.25,127,96.0
2249,F#2,183.5,0.25,127,96.0
2250,E-4,183.5,0.25,127,96.0
2251,D2,183.5,0.25,127,96.0
2252,D2,183.75,0.25,127,96.0
2253,B-1,184.0,99/125,127,96.0
2254,D2,184.0,1/200,127,96.0
2255,B-3,184.0,2.0,114,96.0
2256,D4,184.0,2.0,114,96.0
2257,F4,184.0,2.0,114,96.0
2258,F4,184.0,2.0,1,96.0
2259,D3,184.0,2.0,1,96.0
2260,C2,184.0,0.25,127,96.0
2261,C#3,184.0,0.25,127,96.0
2262,F#3,184.0,0.25,127,96.0
2263,E-4,184.0,0.25,127,96.0
2264,F3,184.5,1.5,1,96.0
2265,E-4,184.5,0.25,127,96.0
2266,B-2,184.594,194/125,127,96.0
2267,B-2,184.75,73/250,127,96.0
2268,E-4,184.75,0.25,127,96.0
2269,B-3,185.0,1.0,1,96.0
2270,C4,185.0,771/1000,1,96.0
2271,D2,185.0,0.25,127,96.0
2272,E-4,185.0,0.25,127,96.0
2273,C#2,185.0,0.25,127,96.0
2274,E-2,185.0,0.25,127,96.0
2275,D3,185.125,237/250,127,96.0
2276,B-2,185.25,26/125,127,96.0
2277,A2,185.5,99/500,127,96.0
2278,D4,185.5,0.5,1,96.0
2279,F#2,185.5,0.25,127,96.0
2280,E-4,185.5,0.25,127,96.0
2281,C2,185.5,0.25,127,96.0
2282,F#3,185.5,0.25,127,96.0
2283,F3,185.583,49/100,127,96.0
2284,F2,185.75,0.25,127,96.0
2285,E-4,185.75,0.25,127,96.0
2286,B-1,186.0,427/1000,127,96.0
2287,B-3,186.0,2.0,114,96.0
2288,F4,186.0,2.0,114,96.0
2289,D4,186.0,2.0,114,96.0
2290,D4,186.0,2.0,1,96.0
2291,B-3,186.0,2.0,1,96.0
2292,F4,186.0,2.0,1,96.0
2293,F#2,186.0,0.25,127,96.0
2294,C2,186.0,0.25,127,96.0
2295,E-4,186.0,0.25,127,96.0
2296,F#3,186.0,0.25,127,96.0
2297,B-3,186.125,1583/1000,127,96.0
2298,F#2,186.5,0.25,127,96.0
2299,E-4,186.5,0.25,127,96.0
2300,B-1,186.75,112/125,127,96.0
2301,E-4,186.75,0.25,127,96.0
2302,F#2,187.0,0.25,127,96.0
2303,E-4,187.0,0.25,127,96.0
2304,F#3,187.0,0.25,127,96.0
2305,C#2,187.0,0.25,127,96.0
2306,E-2,187.0,0.25,127,96.0
2307,D2,187.0,0.25,127,96.0
2308,D2,187.5,0.25,127,96.0
2309,E-4,187.5,0.25,127,96.0
2310,C2,187.5,0.25,127,96.0
2311,B-2,187.5,0.25,127,96.0
2312,F#3,187.5,0.25,127,96.0
2313,F1,187.75,167/1000,127,96.0
2314,E-4,187.75,0.25,127,96.0
2315,B-3,187.927,73/1000,127,96.0
2316,B-3,188.0,2771/1000,127,96.0
2317,D3,188.0,2.0,1,96.0
2318,F4,188.0,1/200,1,96.0
2319,E-4,188.0,1/200,127,96.0
2320,F4,188.0,1/200,114,96.0
2321,B-3,188.0,1/200,114,96.0
2322,D4,188.0,1/200,114,96.0
2323,C2,188.0,0.25,127,96.0
2324,F#2,188.0,0.25,127,96.0
2325,F#3,188.0,0.25,127,96.0
2326,F3,188.5,1.5,1,96.0
2327,F#2,188.5,0.25,127,96.0
2328,E-4,188.5,0.25,127,96.0
2329,D4,188.542,2.094,127,96.0
2330,E-4,188.75,0.25,127,96.0
2331,C4,189.0,771/1000,1,96.0
2332,B-3,189.0,1.0,1,96.0
2333,E-4,189.0,0.25,127,96.0
2334,D2,189.0,0.25,127,96.0
2335,E-2,189.0,0.25,127,96.0
2336,F#2,189.0,0.25,127,96.0
2337,C#2,189.0,0.25,127,96.0
2338,F4,189.208,1021/1000,127,96.0
2339,D2,189.25,167/1000,127,96.0
2340,F2,189.5,0.25,127,96.0
2341,D4,189.5,0.5,1,96.0
2342,E-4,189.5,0.25,127,96.0
2343,C2,189.5,0.25,127,96.0
2344,F#3,189.5,0.25,127,96.0
2345,F#2,189.5,0.25,127,96.0
2346,D2,189.75,177/1000,127,96.0
2347,E-4,189.75,0.25,127,96.0
2348,B-2,190.0,151/500,127,96.0
2349,D5,190.0,2.0,98,96.0
2350,B-4,190.0,2.0,98,96.0
2351,F5,190.0,2.0,98,96.0
2352,D4,190.0,2.0,1,96.0
2353,F3,190.0,2.0,1,96.0
2354,B-3,190.0,2.0,1,96.0
2355,F#3,190.0,0.25,127,96.0
2356,F#2,190.0,0.25,127,96.0
2357,E-4,190.0,0.25,127,96.0
2358,C2,190.0,0.25,127,96.0
2359,B-4,190.125,323/200,127,96.0
2360,E-4,190.5,0.25,127,96.0
2361,C2,190.5,0.25,127,96.0
2362,F#2,190.5,0.25,127,96.0
2363,B-2,190.75,1.25,127,96.0
2364,E-4,190.75,0.25,127,96.0
2365,E-4,191.0,0.25,127,96.0
2366,F#2,191.0,0.25,127,96.0
2367,D2,191.0,0.25,127,96.0
2368,C#2,191.0,0.25,127,96.0
2369,F#3,191.0,0.25,127,96.0
2370,E-2,191.0,0.25,127,96.0
2371,D2,191.25,0.25,120,96.0
2372,C2,191.5,0.25,127,96.0
2373,F#2,191.5,0.25,127,96.0
2374,F#3,191.5,0.25,127,96.0
2375,E-4,191.5,0.25,127,96.0
2376,E-4,191.75,0.25,127,96.0
2377,D2,191.75,0.25,127,96.0
2378,F5,192.0,1/200,92,96.0
2379,E-2,192.0,2.0,127,96.0
2380,E-4,192.0,1/200,127,96.0
2381,G5,192.0,2.0,102,96.0
2382,B-5,192.0,2.0,102,96.0
2383,G4,192.0,4.0,127,96.0
2384,B-4,192.0,4.0,127,96.0
2385,B-3,192.0,1/200,1,96.0
2386,D4,192.0,1/200,1,96.0
2387,F4,192.0,2.0,1,96.0
2388,G4,192.0,2.0,1,96.0
2389,F#2,192.0,0.25,127,96.0
2390,F#3,192.0,0.25,127,96.0
2391,C2,192.0,0.25,127,96.0
2392,F#2,192.5,0.25,127,96.0
2393,E-4,192.5,0.25,127,96.0
2394,E-4,192.75,0.25,127,96.0
2395,E-2,193.0,0.25,127,96.0
2396,F#2,193.0,0.25,127,96.0
2397,D2,193.0,0.25,127,96.0
2398,C#2,193.0,0.25,127,96.0
2399,E-4,193.0,0.25,127,96.0
2400,F#3,193.5,0.25,127,96.0
2401,E-4,193.5,0.25,127,96.0
2402,F#2,193.5,0.25,127,96.0
2403,C2,193.5,0.25,127,96.0
2404,E-4,193.75,0.25,127,96.0
2405,E-2,194.0,2.0,127,96.0
2406,E-4,194.0,2.0,114,96.0
2407,B-4,194.0,2.0,114,96.0
2408,G4,194.0,2.0,114,96.0
2409,G3,194.0,2.0,1,96.0
2410,B-4,194.0,2.0,1,96.0
2411,C2,194.0,0.25,127,96.0
2412,F#2,194.0,0.25,127,96.0
2413,F#3,194.0,0.25,127,96.0
2414,E-4,194.0,0.25,127,96.0
2415,B-3,194.5,1.5,1,96.0
2416,F#2,194.5,0.25,127,96.0
2417,E-4,194.5,0.25,127,96.0
2418,E-4,194.75,0.25,127,96.0
2419,E-4,195.0,1.0,1,96.0
2420,F4,195.0,771/1000,1,96.0
2421,F#3,195.0,0.25,127,96.0
2422,D2,195.0,0.25,127,96.0
2423,C#2,195.0,0.25,127,96.0
2424,F#2,195.0,0.25,127,96.0
2425,E-4,195.0,0.25,127,96.0
2426,E-2,195.0,0.25,127,96.0
2427,G4,195.5,0.5,1,96.0
2428,C2,195.5,0.25,127,96.0
2429,F#2,195.5,0.25,127,96.0
2430,F#3,195.5,0.25,127,96.0
2431,E-4,195.5,0.25,127,96.0
2432,E-4,195.75,0.25,127,96.0
2433,E-2,196.0,1/200,127,96.0
2434,E-4,196.0,1/200,127,96.0
2435,G5,196.0,2.0,98,96.0
2436,F5,196.0,2.0,98,96.0
2437,B-5,196.0,2.0,98,96.0
2438,B-4,196.0,1/200,1,96.0
2439,G3,196.0,1/200,1,96.0
2440,F#3,196.0,0.25,127,96.0
2441,F#2,196.0,0.25,127,96.0
2442,C2,196.0,0.25,127,96.0
2443,G4,196.135,27/200,127,96.0
2444,B-4,196.135,27/200,127,96.0
2445,B-3,196.5,1.5,1,96.0
2446,B-2,196.5,0.25,127,96.0
2447,E-4,196.5,0.25,127,96.0
2448,E-3,196.708,927/1000,127,96.0
2449,E-4,196.75,0.25,127,96.0
2450,E-4,197.0,1.0,1,96.0
2451,F4,197.0,771/1000,1,96.0
2452,E-4,197.0,0.25,127,96.0
2453,F#2,197.0,0.25,127,96.0
2454,C#2,197.0,0.25,127,96.0
2455,D2,197.0,0.25,127,96.0
2456,E-2,197.0,0.25,127,96.0
2457,G4,197.5,0.5,1,96.0
2458,C2,197.5,0.25,127,96.0
2459,E-4,197.5,0.25,127,96.0
2460,F#2,197.5,0.25,127,96.0
2461,F#3,197.5,0.25,127,96.0
2462,G3,197.604,0.5,127,96.0
2463,E-4,197.75,0.25,127,96.0
2464,E-2,198.0,1/200,127,96.0
2465,G5,198.0,2.0,98,96.0
2466,B-5,198.0,2.0,98,96.0
2467,E-5,198.0,2.0,98,96.0
2468,F#2,198.0,0.25,127,96.0
2469,C2,198.0,0.25,127,96.0
2470,E-4,198.0,0.25,127,96.0
2471,F#3,198.0,0.25,127,96.0
2472,E-4,198.021,1.969,1,96.0
2473,G3,198.021,1.969,1,96.0
2474,B-3,198.021,1.969,1,96.0
2475,B-3,198.281,151/100,127,96.0
2476,D3,198.5,0.25,127,96.0
2477,F#2,198.5,0.25,127,96.0
2478,E-4,198.5,0.25,127,96.0
2479,E-5,198.51,149/100,1,96.0
2480,E-4,198.75,0.25,127,96.0
2481,D3,198.75,0.25,127,96.0
2482,E-4,199.0,0.25,127,96.0
2483,C#2,199.0,0.25,127,96.0
2484,D2,199.0,0.25,127,96.0
2485,F#2,199.0,0.25,127,96.0
2486,E-2,199.0,0.25,127,96.0
2487,F#3,199.0,0.25,127,96.0
2488,B2,199.0,0.25,127,96.0
2489,B-4,199.031,0.969,1,96.0
2490,B2,199.25,0.25,127,96.0
2491,G4,199.5,0.5,1,96.0
2492,E-4,199.5,0.25,127,96.0
2493,F2,199.5,0.25,127,96.0
2494,C2,199.5,0.25,127,96.0
2495,F#3,199.5,0.25,127,96.0
2496,D2,199.5,0.25,127,96.0
2497,F#2,199.5,0.25,127,96.0
2498,E-4,199.75,0.25,127,96.0
2499,D2,199.75,0.25,127,96.0
2500,F2,199.75,0.25,127,96.0
2501,D2,200.0,2.0,127,96.0
2502,D5,200.0,2.0,111,96.0
2503,A5,200.0,2.0,111,96.0
2504,F5,200.0,2.0,111,96.0
2505,D4,200.0,1.812,1,96.0
2506,A4,200.0,1.812,1,96.0
2507,F3,200.0,1.812,1,96.0
2508,C#3,200.0,0.25,127,96.0
2509,C2,200.0,0.25,127,96.0
2510,D2,200.0,1/200,127,96.0
2511,E-4,200.0,1/200,127,96.0
2512,E-4,200.5,0.25,127,96.0
2513,A4,200.667,2427/1000,127,96.0
2514,E-4,200.75,0.25,127,96.0
2515,C#2,201.0,0.25,127,96.0
2516,E-4,201.0,0.25,127,96.0
2517,D2,201.0,0.25,127,96.0
2518,E-2,201.0,0.25,127,96.0
2519,D5,201.208,377/200,127,96.0
2520,F#2,201.5,0.25,127,96.0
2521,E-4,201.5,0.25,127,96.0
2522,C2,201.5,0.25,127,96.0
2523,E-4,201.75,0.25,127,96.0
2524,D2,202.0,0.812,127,96.0
2525,A5,202.0,2.0,111,96.0
2526,D5,202.0,2.0,111,96.0
2527,F5,202.0,2.0,111,96.0
2528,F3,202.0,1.812,1,96.0
2529,D4,202.0,1.812,1,96.0
2530,A4,202.0,1.812,1,96.0
2531,C4,202.0,1.812,1,96.0
2532,C2,202.0,0.25,127,96.0
2533,F#2,202.0,0.25,127,96.0
2534,E-4,202.0,0.25,127,96.0
2535,F#2,202.5,0.25,127,96.0
2536,E-4,202.5,0.25,127,96.0
2537,A2,202.75,26/125,127,96.0
2538,E-4,202.75,0.25,127,96.0
2539,F3,203.0,73/250,127,96.0
2540,E-4,203.0,0.25,127,96.0
2541,F#2,203.0,0.25,127,96.0
2542,D2,203.0,0.25,127,96.0
2543,C#2,203.0,0.25,127,96.0
2544,E-2,203.0,0.25,127,96.0
2545,A2,203.25,167/1000,127,96.0
2546,D2,203.5,26/125,127,96.0
2547,E-4,203.5,0.25,127,96.0
2548,B-2,203.5,0.25,127,96.0
2549,D2,203.5,0.25,127,96.0
2550,C2,203.5,0.25,127,96.0
2551,D3,203.75,0.25,127,96.0
2552,E-4,203.75,0.25,127,96.0
2553,E-2,204.0,1901/500,127,96.0
2554,E-4,204.0,1/200,127,96.0
2555,E-4,204.0,4.0,111,96.0
2556,B-4,204.0,4.0,111,96.0
2557,G4,204.0,4.0,111,96.0
2558,C4,204.0,3833/1000,1,96.0
2559,E-4,204.0,3833/1000,1,96.0
2560,B-4,204.0,3833/1000,1,96.0
2561,G3,204.0,3833/1000,1,96.0
2562,F#2,204.0,0.25,127,96.0
2563,C2,204.0,0.25,127,96.0
2564,D4,204.135,1229/500,127,96.0
2565,E-4,204.5,0.25,127,96.0
2566,F#2,204.5,0.25,127,96.0
2567,G4,204.698,323/500,127,96.0
2568,E-4,204.75,0.25,127,96.0
2569,E-4,205.0,0.25,127,96.0
2570,E-2,205.0,0.25,127,96.0
2571,D2,205.0,0.25,127,96.0
2572,C#2,205.0,0.25,127,96.0
2573,F#2,205.0,0.25,127,96.0
2574,B-4,205.208,2927/1000,127,96.0
2575,C2,205.5,0.25,127,96.0
2576,E-4,205.5,0.25,127,96.0
2577,F#2,205.5,0.25,127,96.0
2578,E-4,205.75,0.25,127,96.0
2579,C2,206.0,0.25,127,96.0
2580,F#2,206.0,0.25,127,96.0
2581,E-4,206.0,0.25,127,96.0
2582,E-4,206.5,0.25,127,96.0
2583,F#2,206.5,0.25,127,96.0
2584,C2,206.5,0.25,127,96.0
2585,E-4,206.75,0.25,127,96.0
2586,D2,207.0,0.25,127,96.0
2587,F#2,207.0,0.25,127,96.0
2588,C#2,207.0,0.25,127,96.0
2589,E-2,207.0,0.25,127,96.0
2590,E-4,207.0,0.25,127,96.0
2591,D2,207.25,0.25,120,96.0
2592,C2,207.5,0.25,127,96.0
2593,E-4,207.5,0.25,127,96.0
2594,F#2,207.5,0.25,127,96.0
2595,B-2,207.75,0.25,127,96.0
2596,E-4,207.75,0.25,127,96.0
2597,D2,207.75,0.25,127,96.0
2598,C2,208.0,1573/1000,127,96.0
2599,E-4,208.0,1/200,127,96.0
2600,C5,208.0,4.0,111,96.0
2601,E-5,208.0,4.0,111,96.0
2602,G5,208.0,4.0,111,96.0
2603,G4,208.0,3833/1000,1,96.0
2604,E-3,208.0,3833/1000,1,96.0
2605,C4,208.0,3833/1000,1,96.0
2606,C2,208.0,0.25,127,96.0
2607,F#2,208.0,0.25,127,96.0
2608,E-4,208.104,0.031,127,96.0
2609,E-4,208.135,3073/1000,127,96.0
2610,E-4,208.5,0.25,127,96.0
2611,B-2,208.5,0.25,127,96.0
2612,E-4,208.75,0.25,127,96.0
2613,G4,208.979,1151/500,127,96.0
2614,C#2,209.0,0.25,127,96.0
2615,D2,209.0,0.25,127,96.0
2616,E-4,209.0,0.25,127,96.0
2617,E-2,209.0,0.25,127,96.0
2618,F#2,209.0,0.25,127,96.0
2619,C3,209.5,2.5,127,96.0
2620,C2,209.5,0.25,127,96.0
2621,E-4,209.5,0.25,127,96.0
2622,F#2,209.5,0.25,127,96.0
2623,E-4,209.75,0.25,127,96.0
2624,E-4,210.0,0.25,127,96.0
2625,C2,210.0,0.25,127,96.0
2626,F#2,210.0,0.25,127,96.0
2627,E-4,210.5,0.25,127,96.0
2628,F#2,210.5,0.25,127,96.0
2629,E-4,210.75,0.25,127,96.0
2630,E-2,211.0,0.25,127,96.0
2631,F#2,211.0,0.25,127,96.0
2632,C#2,211.0,0.25,127,96.0
2633,D2,211.0,0.25,127,96.0
2634,E-4,211.0,0.25,127,96.0
2635,C2,211.5,0.25,127,96.0
2636,E-4,211.5,0.25,127,96.0
2637,D2,211.5,0.25,127,96.0
2638,F#2,211.5,0.25,127,96.0
2639,D2,211.75,0.25,127,96.0
2640,E-4,211.75,0.25,127,96.0
2641,C5,212.0,1/200,114,96.0
2642,F2,212.0,1901/500,127,96.0
2643,E-4,212.0,1/200,127,96.0
2644,F4,212.0,4.0,110,96.0
2645,A4,212.0,4.0,110,96.0
2646,A4,212.0,2177/1000,1,96.0
2647,F4,212.0,2177/1000,1,96.0
2648,C4,212.0,2177/1000,1,96.0
2649,E-4,212.0,2177/1000,1,96.0
2650,C2,212.0,0.25,127,96.0
2651,F#2,212.0,0.25,127,96.0
2652,E-4,212.5,0.25,127,96.0
2653,F#2,212.5,0.25,127,96.0
2654,F4,212.729,729/500,127,96.0
2655,F#2,213.0,0.25,127,96.0
2656,C#2,213.0,0.25,127,96.0
2657,E-4,213.0,0.25,127,96.0
2658,D2,213.0,0.25,127,96.0
2659,E-2,213.0,0.25,127,96.0
2660,A4,213.208,69/125,127,96.0
2661,C2,213.5,0.25,127,96.0
2662,F#2,213.5,0.25,127,96.0
2663,E-4,213.5,0.25,127,96.0
2664,C5,213.635,49/100,127,96.0
2665,F#2,214.0,0.25,127,96.0
2666,E-4,214.0,0.25,127,96.0
2667,C2,214.0,0.25,127,96.0
2668,F5,214.167,1323/1000,127,96.0
2669,F4,214.5,1.5,1,96.0
2670,C4,214.5,1.5,1,96.0
2671,A4,214.5,1.5,1,96.0
2672,E-4,214.5,1.5,1,96.0
2673,D2,214.5,0.25,127,96.0
2674,F#2,214.5,0.25,127,96.0
2675,E-4,214.5,0.25,127,96.0
2676,C#2,215.0,0.25,127,96.0
2677,D2,215.0,0.25,127,96.0
2678,E-4,215.0,0.25,127,96.0
2679,E-2,215.0,0.25,127,96.0
2680,F#2,215.0,0.25,127,96.0
2681,D2,215.25,0.25,127,96.0
2682,D2,215.5,0.25,127,96.0
2683,E-4,215.5,0.25,127,96.0
2684,F#2,215.5,0.25,127,96.0
2685,C2,215.5,0.25,127,96.0
2686,C3,215.75,0.25,127,96.0
2687,D2,215.75,0.25,127,96.0
2688,F4,216.0,1/200,118,96.0
2689,B-1,216.0,0.812,127,96.0
2690,D3,216.0,2.0,1,96.0
2691,F4,216.0,1/200,1,96.0
2692,D2,216.0,1/200,127,96.0
2693,B-3,216.0,2.0,112,96.0
2694,D4,216.0,2.0,112,96.0
2695,E-4,216.0,0.25,127,96.0
2696,F#3,216.0,0.25,127,96.0
2697,F3,216.5,1.5,1,96.0
2698,E-4,216.5,0.25,127,96.0
2699,F2,216.75,26/125,127,96.0
2700,E-4,216.75,0.25,127,96.0
2701,D3,217.0,73/250,127,96.0
2702,C4,217.0,771/1000,1,96.0
2703,B-3,217.0,1.0,1,96.0
2704,C#2,217.0,0.25,127,96.0
2705,E-4,217.0,0.25,127,96.0
2706,D2,217.0,0.25,127,96.0
2707,E-2,217.0,0.25,127,96.0
2708,B-4,217.198,2021/1000,127,96.0
2709,F2,217.25,167/1000,127,96.0
2710,B-1,217.5,26/125,127,96.0
2711,D4,217.5,0.5,1,96.0
2712,C2,217.5,0.25,127,96.0
2713,F#2,217.5,0.25,127,96.0
2714,F#3,217.5,0.25,127,96.0
2715,E-4,217.5,0.25,127,96.0
2716,F5,217.74,0.562,127,96.0
2717,B-2,217.75,0.25,127,96.0
2718,E-4,217.75,0.25,127,96.0
2719,F4,218.0,1/200,118,96.0
2720,B-2,218.0,0.844,127,96.0
2721,F4,218.0,1/200,1,96.0
2722,D4,218.0,2.0,112,96.0
2723,B-3,218.0,2.0,112,96.0
2724,B-3,218.0,2.0,1,96.0
2725,D4,218.0,2.0,1,96.0
2726,F#2,218.0,0.25,127,96.0
2727,F#3,218.0,0.25,127,96.0
2728,C2,218.0,0.25,127,96.0
2729,E-4,218.0,0.25,127,96.0
2730,B-5,218.26,1.875,127,96.0
2731,E-4,218.5,0.25,127,96.0
2732,F#2,218.5,0.25,127,96.0
2733,F2,218.75,167/1000,127,96.0
2734,E-4,218.75,0.25,127,96.0
2735,B-1,219.0,333/1000,127,96.0
2736,F#3,219.0,0.25,127,96.0
2737,E-4,219.0,0.25,127,96.0
2738,C#2,219.0,0.25,127,96.0
2739,E-2,219.0,0.25,127,96.0
2740,F#2,219.0,0.25,127,96.0
2741,D2,219.0,0.25,127,96.0
2742,C2,219.25,0.281,127,96.0
2743,D2,219.5,0.5,127,96.0
2744,B-2,219.5,0.25,127,96.0
2745,D2,219.5,0.25,127,96.0
2746,C2,219.5,0.25,127,96.0
2747,E-4,219.5,0.25,127,96.0
2748,F#3,219.5,0.25,127,96.0
2749,E-4,219.75,0.25,127,96.0
2750,B-1,220.0,0.812,127,96.0
2751,E-4,220.0,1/200,127,96.0
2752,D4,220.0,1/200,114,96.0
2753,F4,220.0,1/200,114,96.0
2754,B-3,220.0,1/200,114,96.0
2755,F#3,220.0,0.25,127,96.0
2756,F#2,220.0,0.25,127,96.0
2757,C2,220.0,0.25,127,96.0
2758,F4,220.021,1979/1000,1,96.0
2759,B-5,220.135,1.406,127,96.0
2760,E-4,220.5,0.25,127,96.0
2761,F#2,220.5,0.25,127,96.0
2762,C2,220.5,0.25,127,96.0
2763,D4,220.542,729/500,1,96.0
2764,F2,220.75,26/125,127,96.0
2765,E-4,220.75,0.25,127,96.0
2766,D3,221.0,73/250,127,96.0
2767,E-2,221.0,0.25,127,96.0
2768,E-4,221.0,0.25,127,96.0
2769,D2,221.0,0.25,127,96.0
2770,C#2,221.0,0.25,127,96.0
2771,F#2,221.0,0.25,127,96.0
2772,C4,221.021,979/1000,1,96.0
2773,F2,221.25,167/1000,127,96.0
2774,B-1,221.5,26/125,127,96.0
2775,F#2,221.5,0.25,127,96.0
2776,C2,221.5,0.25,127,96.0
2777,E-4,221.5,0.25,127,96.0
2778,F#3,221.5,0.25,127,96.0
2779,B-3,221.531,0.469,1,96.0
2780,F5,221.667,0.594,127,96.0
2781,B-2,221.75,0.25,127,96.0
2782,E-4,221.75,0.25,127,96.0
2783,B-2,222.0,0.844,127,96.0
2784,B-3,222.0,1/200,114,96.0
2785,F4,222.0,1/200,114,96.0
2786,D4,222.0,1/200,114,96.0
2787,E-4,222.0,0.25,127,96.0
2788,C2,222.0,0.25,127,96.0
2789,F#3,222.0,0.25,127,96.0
2790,F#2,222.0,0.25,127,96.0
2791,F4,222.021,1979/1000,1,96.0
2792,B-5,222.24,979/1000,127,96.0
2793,C2,222.5,0.25,127,96.0
2794,E-4,222.5,0.25,127,96.0
2795,F#2,222.5,0.25,127,96.0
2796,D4,222.542,729/500,1,96.0
2797,F2,222.75,167/1000,127,96.0
2798,E-4,222.75,0.25,127,96.0
2799,B-1,223.0,333/1000,127,96.0
2800,E-2,223.0,0.25,127,96.0
2801,E-4,223.0,0.25,127,96.0
2802,D2,223.0,0.25,127,96.0
2803,F#2,223.0,0.25,127,96.0
2804,F#3,223.0,0.25,127,96.0
2805,C#2,223.0,0.25,127,96.0
2806,C4,223.021,979/1000,1,96.0
2807,C2,223.25,0.281,127,96.0
2808,F5,223.292,0.656,127,96.0
2809,D2,223.5,0.5,127,96.0
2810,F#3,223.5,0.25,127,96.0
2811,F#2,223.5,0.25,127,96.0
2812,C2,223.5,0.25,127,96.0
2813,B2,223.5,0.25,127,96.0
2814,E-4,223.5,0.25,127,96.0
2815,B-3,223.531,0.469,1,96.0
2816,E-4,223.75,0.25,127,96.0
2817,B2,223.75,0.25,127,96.0
2818,E-2,224.0,2.0,127,96.0
2819,E-4,224.0,1/200,127,96.0
2820,B-5,224.0,2.0,98,96.0
2821,G5,224.0,2.0,98,96.0
2822,F5,224.0,2.0,98,96.0
2823,G3,224.0,2.0,1,96.0
2824,B-4,224.0,2.0,1,96.0
2825,C2,224.0,0.25,127,96.0
2826,F#3,224.0,0.25,127,96.0
2827,F#2,224.0,0.25,127,96.0
2828,E-5,224.26,901/250,127,96.0
2829,B-3,224.5,1.5,1,96.0
2830,E-4,224.5,0.25,127,96.0
2831,F#2,224.5,0.25,127,96.0
2832,B-5,224.708,3.125,127,96.0
2833,E-4,224.75,0.25,127,96.0
2834,F4,225.0,771/1000,1,96.0
2835,E-4,225.0,1.0,1,96.0
2836,D2,225.0,0.25,127,96.0
2837,E-2,225.0,0.25,127,96.0
2838,C#2,225.0,0.25,127,96.0
2839,E-4,225.0,0.25,127,96.0
2840,F#2,225.0,0.25,127,96.0
2841,G4,225.5,0.5,1,96.0
2842,C2,225.5,0.25,127,96.0
2843,F#2,225.5,0.25,127,96.0
2844,F#3,225.5,0.25,127,96.0
2845,E-4,225.5,0.25,127,96.0
2846,E-4,225.75,0.25,127,96.0
2847,E-2,226.0,2.0,127,96.0
2848,B-4,226.0,2.0,114,96.0
2849,E-4,226.0,2.0,114,96.0
2850,G4,226.0,2.0,114,96.0
2851,E-4,226.0,2.0,1,96.0
2852,G4,226.0,2.0,1,96.0
2853,B-3,226.0,2.0,1,96.0
2854,F#2,226.0,0.25,127,96.0
2855,C2,226.0,0.25,127,96.0
2856,F#3,226.0,0.25,127,96.0
2857,E-4,226.0,0.25,127,96.0
2858,F#2,226.5,0.25,127,96.0
2859,E-4,226.5,0.25,127,96.0
2860,C2,226.5,0.25,127,96.0
2861,E-4,226.75,0.25,127,96.0
2862,E-2,227.0,0.25,127,96.0
2863,D2,227.0,0.25,127,96.0
2864,F#2,227.0,0.25,127,96.0
2865,E-4,227.0,0.25,127,96.0
2866,C#2,227.0,0.25,127,96.0
2867,F#3,227.0,0.25,127,96.0
2868,D2,227.25,0.25,120,96.0
2869,C2,227.5,0.25,127,96.0
2870,F#2,227.5,0.25,127,96.0
2871,F#3,227.5,0.25,127,96.0
2872,E-4,227.5,0.25,127,96.0
2873,D2,227.75,0.25,127,96.0
2874,E-4,227.75,0.25,127,96.0
2875,E-2,228.0,1/200,127,96.0
2876,E-4,228.0,1/200,127,96.0
2877,B-4,228.0,1/200,114,96.0
2878,G4,228.0,1/200,114,96.0
2879,E-4,228.0,1/200,114,96.0
2880,F#2,228.0,0.25,127,96.0
2881,C2,228.0,0.25,127,96.0
2882,F#3,228.0,0.25,127,96.0
2883,E-4,228.021,1.969,1,96.0
2884,G3,228.021,1.969,1,96.0
2885,B-3,228.021,1.969,1,96.0
2886,E-4,228.5,0.25,127,96.0
2887,F#2,228.5,0.25,127,96.0
2888,E-5,228.51,149/100,1,96.0
2889,E-4,228.677,2.625,127,96.0
2890,E-4,228.75,0.25,127,96.0
2891,F#2,229.0,0.25,127,96.0
2892,C#2,229.0,0.25,127,96.0
2893,D2,229.0,0.25,127,96.0
2894,E-2,229.0,0.25,127,96.0
2895,E-4,229.0,0.25,127,96.0
2896,B-4,229.031,0.969,1,96.0
2897,B-4,229.24,2083/1000,127,96.0
2898,G4,229.5,0.5,1,96.0
2899,F#2,229.5,0.25,127,96.0
2900,E-4,229.5,0.25,127,96.0
2901,C2,229.5,0.25,127,96.0
2902,F#3,229.5,0.25,127,96.0
2903,E-4,229.75,0.25,127,96.0
2904,E-2,230.0,1/200,127,96.0
2905,E-5,230.0,2.0,98,96.0
2906,G5,230.0,2.0,98,96.0
2907,B-5,230.0,2.0,98,96.0
2908,G3,230.0,2.0,1,96.0
2909,E-4,230.0,2.0,1,96.0
2910,B-3,230.0,2.0,1,96.0
2911,F#2,230.0,0.25,127,96.0
2912,C2,230.0,0.25,127,96.0
2913,E-4,230.0,0.25,127,96.0
2914,F#3,230.0,0.25,127,96.0
2915,E-4,230.5,0.25,127,96.0
2916,D2,230.5,0.25,127,96.0
2917,F#2,230.5,0.25,127,96.0
2918,E-4,230.75,0.25,127,96.0
2919,E-4,231.0,0.25,127,96.0
2920,F#2,231.0,0.25,127,96.0
2921,C#2,231.0,0.25,127,96.0
2922,D2,231.0,0.25,127,96.0
2923,F#3,231.0,0.25,127,96.0
2924,E-2,231.0,0.25,127,96.0
2925,D2,231.25,0.25,127,96.0
2926,E-4,231.5,0.25,127,96.0
2927,F#3,231.5,0.25,127,96.0
2928,D2,231.5,0.25,127,96.0
2929,F#2,231.5,0.25,127,96.0
2930,C2,231.5,0.25,127,96.0
2931,E-4,231.75,0.25,127,96.0
2932,D2,231.75,0.25,127,96.0
2933,D2,232.0,2.0,127,96.0
2934,F5,232.0,2.0,111,96.0
2935,D5,232.0,2.0,111,96.0
2936,A5,232.0,2.0,111,96.0
2937,F3,232.0,1.812,1,96.0
2938,D4,232.0,1.812,1,96.0
2939,A4,232.0,1.812,1,96.0
2940,C2,232.0,0.25,127,96.0
2941,C#3,232.0,0.25,127,96.0
2942,E-4,232.0,1/200,127,96.0
2943,D2,232.0,1/200,127,96.0
2944,E-4,232.5,0.25,127,96.0
2945,E-4,232.75,0.25,127,96.0
2946,D2,233.0,0.25,127,96.0
2947,C#2,233.0,0.25,127,96.0
2948,E-2,233.0,0.25,127,96.0
2949,E-4,233.0,0.25,127,96.0
2950,E-4,233.5,0.25,127,96.0
2951,C2,233.5,0.25,127,96.0
2952,F#2,233.5,0.25,127,96.0
2953,A4,233.635,1.844,127,96.0
2954,E-4,233.75,0.25,127,96.0
2955,D2,234.0,2.0,127,96.0
2956,D5,234.0,2.0,111,96.0
2957,A5,234.0,2.0,111,96.0
2958,F5,234.0,2.0,111,96.0
2959,C4,234.0,1.812,1,96.0
2960,A3,234.0,1.812,1,96.0
2961,D4,234.0,1.812,1,96.0
2962,F3,234.0,1.812,1,96.0
2963,E-4,234.0,0.25,127,96.0
2964,C2,234.0,0.25,127,96.0
2965,F#2,234.0,0.25,127,96.0
2966,D5,234.219,63/50,127,96.0
2967,E-4,234.5,0.25,127,96.0
2968,F#2,234.5,0.25,127,96.0
2969,E-4,234.75,0.25,127,96.0
2970,C#2,235.0,0.25,127,96.0
2971,E-4,235.0,0.25,127,96.0
2972,D2,235.0,0.25,127,96.0
2973,F#2,235.0,0.25,127,96.0
2974,E-2,235.0,0.25,127,96.0
2975,C2,235.5,0.25,127,96.0
2976,D2,235.5,0.25,127,96.0
2977,B-2,235.5,0.25,127,96.0
2978,E-4,235.5,0.25,127,96.0
2979,E-4,235.75,0.25,127,96.0
2980,E-2,236.0,1901/500,127,96.0
2981,E-4,236.0,1/200,127,96.0
2982,B-4,236.0,4.0,111,96.0
2983,G4,236.0,4.0,111,96.0
2984,E-4,236.0,4.0,111,96.0
2985,E-4,236.0,3833/1000,1,96.0
2986,C4,236.0,3833/1000,1,96.0
2987,B-3,236.0,3833/1000,1,96.0
2988,G3,236.0,3833/1000,1,96.0
2989,C2,236.0,0.25,127,96.0
2990,F#2,236.0,0.25,127,96.0
2991,G4,236.208,87/50,127,96.0
2992,B-2,236.5,0.25,127,96.0
2993,E-4,236.5,0.25,127,96.0
2994,B-4,236.656,123/200,127,96.0
2995,E-4,236.75,0.25,127,96.0
2996,C#2,237.0,0.25,127,96.0
2997,F#2,237.0,0.25,127,96.0
2998,D2,237.0,0.25,127,96.0
2999,E-4,237.0,0.25,127,96.0
3000,E-2,237.0,0.25,127,96.0
3001,D5,237.135,1073/1000,127,96.0
3002,C2,237.5,0.25,127,96.0
3003,E-4,237.5,0.25,127,96.0
3004,F#2,237.5,0.25,127,96.0
3005,E-4,237.75,0.25,127,96.0
3006,C2,238.0,0.25,127,96.0
3007,F#2,238.0,0.25,127,96.0
3008,E-4,238.0,0.25,127,96.0
3009,F#2,238.5,0.25,127,96.0
3010,E-4,238.5,0.25,127,96.0
3011,E-4,238.75,0.25,127,96.0
3012,E-2,239.0,0.25,127,96.0
3013,E-4,239.0,0.25,127,96.0
3014,C#2,239.0,0.25,127,96.0
3015,F#2,239.0,0.25,127,96.0
3016,D2,239.0,0.25,127,96.0
3017,D2,239.5,0.25,127,96.0
3018,E-4,239.5,0.25,127,96.0
3019,F#2,239.5,0.25,127,96.0
3020,C2,239.5,0.25,127,96.0
3021,B-2,239.75,0.25,127,96.0
3022,D2,239.75,0.25,127,96.0
3023,E-4,239.75,0.25,127,96.0
3024,C2,240.0,3.688,127,96.0
3025,E-4,240.0,1/200,127,96.0
3026,G5,240.0,4.0,111,96.0
3027,C5,240.0,4.0,111,96.0
3028,E-5,240.0,4.0,111,96.0
3029,E-3,240.0,3833/1000,1,96.0
3030,G4,240.0,3833/1000,1,96.0
3031,C4,240.0,3833/1000,1,96.0
3032,C2,240.0,0.25,127,96.0
3033,F#2,240.0,0.25,127,96.0
3034,E-4,240.25,1/200,127,96.0
3035,E-5,240.26,979/500,127,96.0
3036,E-4,240.5,1/200,127,96.0
3037,F#2,240.5,0.25,127,96.0
3038,C2,240.5,0.25,127,96.0
3039,E-4,240.75,1/200,127,96.0
3040,E-4,241.0,1/200,127,96.0
3041,E-2,241.0,0.25,127,96.0
3042,F#2,241.0,0.25,127,96.0
3043,C#2,241.0,0.25,127,96.0
3044,D2,241.0,0.25,127,96.0
3045,E-4,241.5,0.25,127,96.0
3046,F#2,241.5,0.25,127,96.0
3047,C2,241.5,0.25,127,96.0
3048,E-4,241.75,0.25,127,96.0
3049,E-4,242.0,0.25,127,96.0
3050,F#2,242.0,0.25,127,96.0
3051,C2,242.0,0.25,127,96.0
3052,D5,242.135,917/1000,127,96.0
3053,C2,242.5,0.25,127,96.0
3054,F#2,242.5,0.25,127,96.0
3055,E-4,242.5,0.25,127,96.0
3056,E-4,242.75,0.25,127,96.0
3057,E-4,243.0,0.25,127,96.0
3058,E-2,243.0,0.25,127,96.0
3059,F#2,243.0,0.25,127,96.0
3060,D2,243.0,0.25,127,96.0
3061,C#2,243.0,0.25,127,96.0
3062,C5,243.208,323/500,127,96.0
3063,B2,243.5,0.25,127,96.0
3064,F#2,243.5,0.25,127,96.0
3065,E-4,243.5,0.25,127,96.0
3066,C2,243.5,0.25,127,96.0
3067,G2,243.75,0.25,127,96.0
3068,B2,243.75,0.25,127,96.0
3069,E-4,243.75,0.25,127,96.0
3070,C5,244.0,1/200,114,96.0
3071,F2,244.0,2.0,127,96.0
3072,E-4,244.0,1/200,127,96.0
3073,F4,244.0,2.0,110,96.0
3074,A4,244.0,2.0,110,96.0
3075,F#2,244.0,0.25,127,96.0
3076,C2,244.0,0.25,127,96.0
3077,F4,244.042,1.812,1,96.0
3078,A4,244.042,1.812,1,96.0
3079,C4,244.042,1.812,1,96.0
3080,E-4,244.042,1.812,1,96.0
3081,F4,244.198,917/1000,127,96.0
3082,F#2,244.5,0.25,127,96.0
3083,E-4,244.5,0.25,127,96.0
3084,F#2,245.0,0.25,127,96.0
3085,E-4,245.0,0.25,127,96.0
3086,D2,245.0,0.25,127,96.0
3087,E-2,245.0,0.25,127,96.0
3088,C#2,245.0,0.25,127,96.0
3089,E-4,245.188,771/1000,127,96.0
3090,F#2,245.5,0.25,127,96.0
3091,E-4,245.5,0.25,127,96.0
3092,C2,245.5,0.25,127,96.0
3093,C5,246.0,1/200,107,96.0
3094,C2,246.0,0.812,127,96.0
3095,E-5,246.0,2.0,114,96.0
3096,G5,246.0,2.0,114,96.0
3097,D4,246.0,1.812,1,96.0
3098,E-3,246.0,1.812,1,96.0
3099,B-3,246.0,1.812,1,96.0
3100,G3,246.0,1.812,1,96.0
3101,F#2,246.0,0.25,127,96.0
3102,C2,246.0,0.25,127,96.0
3103,E-4,246.0,0.25,127,96.0
3104,D4,246.115,173/200,127,96.0
3105,F#2,246.5,0.25,127,96.0
3106,D2,246.5,0.25,127,96.0
3107,E-4,246.5,0.25,127,96.0
3108,G2,246.75,26/125,127,96.0
3109,E-3,247.0,73/250,127,96.0
3110,C#2,247.0,0.25,127,96.0
3111,D2,247.0,0.25,127,96.0
3112,E-4,247.0,0.25,127,96.0
3113,F#2,247.0,0.25,127,96.0
3114,E-2,247.0,0.25,127,96.0
3115,C4,247.177,401/500,127,96.0
3116,G2,247.25,167/1000,127,96.0
3117,D2,247.25,0.25,127,96.0
3118,C2,247.5,26/125,127,96.0
3119,D2,247.5,0.25,127,96.0
3120,E-4,247.5,0.25,127,96.0
3121,F#2,247.5,0.25,127,96.0
3122,C2,247.5,0.25,127,96.0
3123,C3,247.75,0.25,127,96.0
3124,D2,247.75,0.25,127,96.0
3125,B-1,248.0,401/500,127,96.0
3126,D2,248.0,1/200,127,96.0
3127,D4,248.0,4.0,98,96.0
3128,B-3,248.0,4.0,98,96.0
3129,F4,248.0,4.0,98,96.0
3130,B-3,248.0,927/500,1,96.0
3131,F4,248.0,927/500,1,96.0
3132,D4,248.0,927/500,1,96.0
3133,E-4,248.0,0.25,127,96.0
3134,C#3,248.0,0.25,127,96.0
3135,F#3,248.0,0.25,127,96.0
3136,C2,248.0,0.25,127,96.0
3137,B-3,248.198,3.938,127,96.0
3138,E-4,248.5,0.25,127,96.0
3139,F2,248.75,151/500,127,96.0
3140,E-4,248.75,0.25,127,96.0
3141,D3,249.0,0.312,127,96.0
3142,E-2,249.0,0.25,127,96.0
3143,D2,249.0,0.25,127,96.0
3144,C#2,249.0,0.25,127,96.0
3145,E-4,249.0,0.25,127,96.0
3146,B-1,249.312,0.25,127,96.0
3147,F2,249.5,73/250,127,96.0
3148,C2,249.5,0.25,127,96.0
3149,F#2,249.5,0.25,127,96.0
3150,E-4,249.5,0.25,127,96.0
3151,F#3,249.5,0.25,127,96.0
3152,B-2,249.75,2.25,127,96.0
3153,E-4,249.75,0.25,127,96.0
3154,F#3,250.0,0.25,127,96.0
3155,E-4,250.0,0.25,127,96.0
3156,F#2,250.0,0.25,127,96.0
3157,C2,250.0,0.25,127,96.0
3158,F4,250.021,271/1000,1,96.0
3159,B-3,250.021,271/1000,1,96.0
3160,D4,250.021,271/1000,1,96.0
3161,E-4,250.5,0.25,127,96.0
3162,F#2,250.5,0.25,127,96.0
3163,B-3,250.542,1/200,1,96.0
3164,F4,250.542,1/200,1,96.0
3165,D4,250.542,1/200,1,96.0
3166,E-4,250.75,0.25,127,96.0
3167,F#3,251.0,0.25,127,96.0
3168,C#2,251.0,0.25,127,96.0
3169,D2,251.0,0.25,127,96.0
3170,F#2,251.0,0.25,127,96.0
3171,E-2,251.0,0.25,127,96.0
3172,E-4,251.0,0.25,127,96.0
3173,B-2,251.5,0.25,127,96.0
3174,E-4,251.5,0.25,127,96.0
3175,F#3,251.5,0.25,127,96.0
3176,C2,251.5,0.25,127,96.0
3177,D2,251.5,0.25,127,96.0
3178,E-4,251.75,0.25,127,96.0
3179,G3,252.0,4.0,92,96.0
3180,G2,252.0,1901/500,127,96.0
3181,E-4,252.0,1/200,127,96.0
3182,B-3,252.0,1/200,102,96.0
3183,D4,252.0,1/200,102,96.0
3184,G3,252.0,4.0,1,96.0
3185,D3,252.0,4.0,1,96.0
3186,B-3,252.0,4.0,1,96.0
3187,C2,252.0,0.25,127,96.0
3188,F#2,252.0,0.25,127,96.0
3189,F#3,252.0,0.25,127,96.0
3190,B-3,252.135,2.375,127,96.0
3191,E-4,252.5,0.25,127,96.0
3192,B-2,252.5,0.25,127,96.0
3193,E-4,252.75,0.25,127,96.0
3194,D2,253.0,0.25,127,96.0
3195,F#2,253.0,0.25,127,96.0
3196,E-4,253.0,0.25,127,96.0
3197,E-2,253.0,0.25,127,96.0
3198,C#2,253.0,0.25,127,96.0
3199,F#2,253.5,0.25,127,96.0
3200,E-4,253.5,0.25,127,96.0
3201,F#3,253.5,0.25,127,96.0
3202,C2,253.5,0.25,127,96.0
3203,G4,253.635,417/1000,127,96.0
3204,E-4,253.75,0.25,127,96.0
3205,G4,254.0,2.0,1,96.0
3206,E-4,254.0,0.25,127,96.0
3207,F#3,254.0,0.25,127,96.0
3208,F#2,254.0,0.25,127,96.0
3209,C2,254.0,0.25,127,96.0
3210,G4,254.198,237/125,127,96.0
3211,D4,254.5,1.5,1,96.0
3212,E-4,254.5,0.25,127,96.0
3213,F#2,254.5,0.25,127,96.0
3214,E-4,254.75,0.25,127,96.0
3215,D2,255.0,0.25,127,96.0
3216,F#3,255.0,0.25,127,96.0
3217,C#2,255.0,0.25,127,96.0
3218,E-2,255.0,0.25,127,96.0
3219,F#2,255.0,0.25,127,96.0
3220,E-4,255.0,0.25,127,96.0
3221,D2,255.5,0.25,127,96.0
3222,F#2,255.5,0.25,127,96.0
3223,F#3,255.5,0.25,127,96.0
3224,C2,255.5,0.25,127,96.0
3225,E-4,255.5,0.25,127,96.0
3226,D3,255.75,0.25,127,96.0
3227,D2,255.75,0.25,127,96.0
3228,E-4,255.75,0.25,127,96.0
3229,D2,256.0,1667/1000,127,96.0
3230,D4,256.0,1/200,1,96.0
3231,E-4,256.0,1/200,127,96.0
3232,F4,256.0,4.0,90,96.0
3233,D3,256.0,4.0,90,96.0
3234,D5,256.0,4.0,90,96.0
3235,A4,256.0,4.0,90,96.0
3236,F4,256.0,4.0,1,96.0
3237,A3,256.0,4.0,1,96.0
3238,F#3,256.0,0.25,127,96.0
3239,C2,256.0,0.25,127,96.0
3240,F#2,256.0,0.25,127,96.0
3241,F#2,256.5,0.25,127,96.0
3242,C2,256.5,0.25,127,96.0
3243,E-4,256.5,0.25,127,96.0
3244,E-4,256.75,0.25,127,96.0
3245,C#2,257.0,0.25,127,96.0
3246,E-4,257.0,0.25,127,96.0
3247,D2,257.0,0.25,127,96.0
3248,E-2,257.0,0.25,127,96.0
3249,F#2,257.0,0.25,127,96.0
3250,A2,257.5,1.656,127,96.0
3251,F#3,257.5,0.25,127,96.0
3252,F#2,257.5,0.25,127,96.0
3253,E-4,257.5,0.25,127,96.0
3254,C2,257.5,0.25,127,96.0
3255,A4,257.677,77/200,127,96.0
3256,E-4,257.75,0.25,127,96.0
3257,A4,258.0,2.0,1,96.0
3258,C2,258.0,0.25,127,96.0
3259,F#2,258.0,0.25,127,96.0
3260,F#3,258.0,0.25,127,96.0
3261,E-4,258.0,0.25,127,96.0
3262,A4,258.25,377/200,127,96.0
3263,B4,258.5,1.5,1,96.0
3264,F#2,258.5,0.25,127,96.0
3265,E-4,258.5,0.25,127,96.0
3266,C2,258.5,0.25,127,96.0
3267,E-4,258.75,0.25,127,96.0
3268,D5,259.0,1.0,1,96.0
3269,E-4,259.0,0.25,127,96.0
3270,E-2,259.0,0.25,127,96.0
3271,C#2,259.0,0.25,127,96.0
3272,F#2,259.0,0.25,127,96.0
3273,D2,259.0,0.25,127,96.0
3274,F#3,259.0,0.25,127,96.0
3275,A2,259.5,167/1000,127,96.0
3276,E5,259.5,0.5,1,96.0
3277,B2,259.5,0.25,127,96.0
3278,E-4,259.5,0.25,127,96.0
3279,F#2,259.5,0.25,127,96.0
3280,F#3,259.5,0.25,127,96.0
3281,C2,259.5,0.25,127,96.0
3282,A2,259.75,0.25,127,96.0
3283,E-4,259.75,0.25,127,96.0
3284,B2,259.75,0.25,127,96.0
3285,E-2,260.0,1901/500,127,96.0
3286,E-4,260.0,1/200,127,96.0
3287,B-4,260.0,4.0,98,96.0
3288,E-4,260.0,4.0,98,96.0
3289,G4,260.0,4.0,98,96.0
3290,F#3,260.0,0.25,127,96.0
3291,C2,260.0,0.25,127,96.0
3292,F#2,260.0,0.25,127,96.0
3293,B-3,260.01,2.0,1,96.0
3294,G4,260.01,2.0,1,96.0
3295,C4,260.01,2.0,1,96.0
3296,E-4,260.01,2.0,1,96.0
3297,B-4,260.146,399/100,127,96.0
3298,E-4,260.5,0.25,127,96.0
3299,F#2,260.5,0.25,127,96.0
3300,E-4,260.75,0.25,127,96.0
3301,E-2,261.0,0.25,127,96.0
3302,C#2,261.0,0.25,127,96.0
3303,D2,261.0,0.25,127,96.0
3304,E-4,261.0,0.25,127,96.0
3305,F#2,261.0,0.25,127,96.0
3306,E-4,261.5,0.25,127,96.0
3307,F#3,261.5,0.25,127,96.0
3308,F#2,261.5,0.25,127,96.0
3309,C2,261.5,0.25,127,96.0
3310,E-4,261.75,0.25,127,96.0
3311,F#3,262.0,0.25,127,96.0
3312,C2,262.0,0.25,127,96.0
3313,E-4,262.0,0.25,127,96.0
3314,F#2,262.0,0.25,127,96.0
3315,E-4,262.5,0.25,127,96.0
3316,F#2,262.5,0.25,127,96.0
3317,D2,262.5,0.25,127,96.0
3318,E-4,262.75,0.25,127,96.0
3319,F#3,263.0,0.25,127,96.0
3320,C#2,263.0,0.25,127,96.0
3321,F#2,263.0,0.25,127,96.0
3322,E-4,263.0,0.25,127,96.0
3323,D2,263.0,0.25,127,96.0
3324,E-2,263.0,0.25,127,96.0
3325,D2,263.25,0.25,127,96.0
3326,D2,263.5,0.25,127,96.0
3327,C2,263.5,0.25,127,96.0
3328,F#2,263.5,0.25,127,96.0
3329,E-4,263.5,0.25,127,96.0
3330,F#3,263.5,0.25,127,96.0
3331,B-2,263.75,0.25,127,96.0
3332,E-4,263.75,0.25,127,96.0
3333,D2,263.75,0.25,127,96.0
3334,G2,264.0,1901/500,127,96.0
3335,D4,264.0,4.0,98,96.0
3336,B-3,264.0,4.0,98,96.0
3337,G3,264.0,4.0,98,96.0
3338,C2,264.0,0.25,127,96.0
3339,F#3,264.0,0.25,127,96.0
3340,C#3,264.0,0.25,127,96.0
3341,D2,264.0,1/200,127,96.0
3342,E-4,264.0,1/200,127,96.0
3343,G3,264.01,2.0,1,96.0
3344,B-3,264.01,2.0,1,96.0
3345,D4,264.01,2.0,1,96.0
3346,B-4,264.135,0.25,127,96.0
3347,E-4,264.5,0.25,127,96.0
3348,E-4,264.75,0.25,127,96.0
3349,E-4,265.0,0.25,127,96.0
3350,D2,265.0,0.25,127,96.0
3351,C#2,265.0,0.25,127,96.0
3352,E-2,265.0,0.25,127,96.0
3353,F#2,265.5,0.25,127,96.0
3354,C2,265.5,0.25,127,96.0
3355,F#3,265.5,0.25,127,96.0
3356,E-4,265.5,0.25,127,96.0
3357,E-4,265.75,0.25,127,96.0
3358,F#3,266.0,0.25,127,96.0
3359,F#2,266.0,0.25,127,96.0
3360,C2,266.0,0.25,127,96.0
3361,E-4,266.0,0.25,127,96.0
3362,E-4,266.5,0.25,127,96.0
3363,F#2,266.5,0.25,127,96.0
3364,E-4,266.75,0.25,127,96.0
3365,D2,267.0,0.25,127,96.0
3366,F#3,267.0,0.25,127,96.0
3367,C#2,267.0,0.25,127,96.0
3368,E-4,267.0,0.25,127,96.0
3369,E-2,267.0,0.25,127,96.0
3370,F#2,267.0,0.25,127,96.0
3371,B-2,267.5,0.25,127,96.0
3372,F#3,267.5,0.25,127,96.0
3373,D2,267.5,0.25,127,96.0
3374,C2,267.5,0.25,127,96.0
3375,E-4,267.5,0.25,127,96.0
3376,D3,267.75,0.25,127,96.0
3377,E-4,267.75,0.25,127,96.0
3378,B-3,268.0,1/200,102,96.0
3379,F#2,268.0,1901/500,127,96.0
3380,E-4,268.0,1/200,127,96.0
3381,C#4,268.0,4.0,96,96.0
3382,F#3,268.0,4.0,96,96.0
3383,B-3,268.0,927/500,1,96.0
3384,C#4,268.0,927/500,1,96.0
3385,F#4,268.0,927/500,1,96.0
3386,F#2,268.0,0.25,127,96.0
3387,C2,268.0,0.25,127,96.0
3388,F#3,268.0,0.25,127,96.0
3389,E-4,268.5,0.25,127,96.0
3390,F#2,268.5,0.25,127,96.0
3391,C2,268.5,0.25,127,96.0
3392,E-4,268.75,0.25,127,96.0
3393,E-4,269.0,0.25,127,96.0
3394,F#2,269.0,0.25,127,96.0
3395,C#2,269.0,0.25,127,96.0
3396,E-2,269.0,0.25,127,96.0
3397,D2,269.0,0.25,127,96.0
3398,E-4,269.5,0.25,127,96.0
3399,C2,269.5,0.25,127,96.0
3400,F#3,269.5,0.25,127,96.0
3401,F#2,269.5,0.25,127,96.0
3402,E-4,269.75,0.25,127,96.0
3403,E-4,270.0,0.25,127,96.0
3404,C2,270.0,0.25,127,96.0
3405,F#2,270.0,0.25,127,96.0
3406,F#3,270.0,0.25,127,96.0
3407,C#4,270.021,271/1000,1,96.0
3408,F#4,270.021,271/1000,1,96.0
3409,B-3,270.021,271/1000,1,96.0
3410,C2,270.5,0.25,127,96.0
3411,E-4,270.5,0.25,127,96.0
3412,F#2,270.5,0.25,127,96.0
3413,B-3,270.542,1/200,1,96.0
3414,F#4,270.542,1/200,1,96.0
3415,C#4,270.542,1/200,1,96.0
3416,E-4,270.75,0.25,127,96.0
3417,D2,271.0,0.25,127,96.0
3418,F#2,271.0,0.25,127,96.0
3419,E-2,271.0,0.25,127,96.0
3420,C#2,271.0,0.25,127,96.0
3421,F#3,271.0,0.25,127,96.0
3422,E-4,271.0,0.25,127,96.0
3423,C2,271.5,0.25,127,96.0
3424,F#2,271.5,0.25,127,96.0
3425,E-4,271.5,0.25,127,96.0
3426,F#3,271.5,0.25,127,96.0
3427,B2,271.5,0.25,127,96.0
3428,C#3,271.75,0.25,127,96.0
3429,B2,271.75,0.25,127,96.0
3430,E-4,271.75,0.25,127,96.0
3431,B-3,272.0,1/200,92,96.0
3432,B-1,272.0,1.375,127,96.0
3433,E-4,272.0,1/200,127,96.0
3434,D4,272.0,4.0,102,96.0
3435,F4,272.0,4.0,102,96.0
3436,F#2,272.0,0.25,127,96.0
3437,C2,272.0,0.25,127,96.0
3438,F#3,272.0,0.25,127,96.0
3439,B-3,272.01,2.0,1,96.0
3440,D4,272.01,2.0,1,96.0
3441,F4,272.01,2.0,1,96.0
3442,E-4,272.5,0.25,127,96.0
3443,B-2,272.5,0.25,127,96.0
3444,E-4,272.75,0.25,127,96.0
3445,F#2,273.0,0.25,127,96.0
3446,D2,273.0,0.25,127,96.0
3447,E-4,273.0,0.25,127,96.0
3448,E-2,273.0,0.25,127,96.0
3449,C#2,273.0,0.25,127,96.0
3450,B-1,273.5,1021/1000,127,96.0
3451,C2,273.5,0.25,127,96.0
3452,F#3,273.5,0.25,127,96.0
3453,F#2,273.5,0.25,127,96.0
3454,E-4,273.5,0.25,127,96.0
3455,E-4,273.75,0.25,127,96.0
3456,F#3,274.0,0.25,127,96.0
3457,E-4,274.0,0.25,127,96.0
3458,F#2,274.0,0.25,127,96.0
3459,C2,274.0,0.25,127,96.0
3460,F#2,274.5,0.25,127,96.0
3461,E-4,274.5,0.25,127,96.0
3462,B-1,274.75,6/25,127,96.0
3463,E-4,274.75,0.25,127,96.0
3464,G2,275.0,0.281,127,96.0
3465,C#2,275.0,0.25,127,96.0
3466,F#2,275.0,0.25,127,96.0
3467,E-2,275.0,0.25,127,96.0
3468,E-4,275.0,0.25,127,96.0
3469,D2,275.0,0.25,127,96.0
3470,F#3,275.0,0.25,127,96.0
3471,B-1,275.281,0.219,127,96.0
3472,F2,275.5,427/1000,127,96.0
3473,D2,275.5,0.25,127,96.0
3474,C2,275.5,0.25,127,96.0
3475,F#2,275.5,0.25,127,96.0
3476,E-4,275.5,0.25,127,96.0
3477,F#3,275.5,0.25,127,96.0
3478,E-4,275.75,0.25,127,96.0
3479,D2,275.75,0.25,127,96.0
3480,G#2,276.0,1901/500,127,96.0
3481,E-4,276.0,1/200,127,96.0
3482,G#3,276.0,4.0,98,96.0
3483,C4,276.0,4.0,98,96.0
3484,E-4,276.0,4.0,98,96.0
3485,G#3,276.0,927/500,1,96.0
3486,C4,276.0,927/500,1,96.0
3487,E-4,276.0,927/500,1,96.0
3488,F#3,276.0,0.25,127,96.0
3489,F#2,276.0,0.25,127,96.0
3490,C2,276.0,0.25,127,96.0
3491,E-4,276.5,0.25,127,96.0
3492,B-2,276.5,0.25,127,96.0
3493,E-4,276.75,0.25,127,96.0
3494,E-4,277.0,0.25,127,96.0
3495,D2,277.0,0.25,127,96.0
3496,F#2,277.0,0.25,127,96.0
3497,E-2,277.0,0.25,127,96.0
3498,C#2,277.0,0.25,127,96.0
3499,C2,277.5,0.25,127,96.0
3500,F#2,277.5,0.25,127,96.0
3501,E-4,277.5,0.25,127,96.0
3502,F#3,277.5,0.25,127,96.0
3503,E-4,277.75,0.25,127,96.0
3504,F#2,278.0,0.25,127,96.0
3505,F#3,278.0,0.25,127,96.0
3506,E-4,278.0,0.25,127,96.0
3507,C2,278.0,0.25,127,96.0
3508,G#3,278.021,271/1000,1,96.0
3509,C4,278.021,271/1000,1,96.0
3510,E-4,278.021,271/1000,1,96.0
3511,E-4,278.5,0.25,127,96.0
3512,F#2,278.5,0.25,127,96.0
3513,D3,278.5,0.25,127,96.0
3514,E-4,278.542,1/200,1,96.0
3515,G#3,278.542,1/200,1,96.0
3516,C4,278.542,1/200,1,96.0
3517,E-4,278.75,0.25,127,96.0
3518,D3,278.75,0.25,127,96.0
3519,B2,279.0,0.25,127,96.0
3520,D2,279.0,0.25,127,96.0
3521,C#2,279.0,0.25,127,96.0
3522,F#3,279.0,0.25,127,96.0
3523,F#2,279.0,0.25,127,96.0
3524,E-2,279.0,0.25,127,96.0
3525,E-4,279.0,0.25,127,96.0
3526,B2,279.25,0.25,127,96.0
3527,E-4,279.5,0.25,127,96.0
3528,D2,279.5,0.25,127,96.0
3529,F#3,279.5,0.25,127,96.0
3530,C2,279.5,0.25,127,96.0
3531,F#2,279.5,0.25,127,96.0
3532,F2,279.5,0.25,127,96.0
3533,E-3,279.75,0.25,127,96.0
3534,D2,279.75,0.25,127,96.0
3535,E-4,279.75,0.25,127,96.0
3536,F2,279.75,0.25,127,96.0
3537,G4,280.0,4.0,101,96.0
3538,C2,280.0,1.375,127,96.0
3539,C4,280.0,1/200,97,96.0
3540,E-4,280.0,1/200,97,96.0
3541,E-4,280.0,1/200,127,96.0
3542,D2,280.0,1/200,127,96.0
3543,C2,280.0,0.25,127,96.0
3544,F#3,280.0,0.25,127,96.0
3545,C#3,280.0,0.25,127,96.0
3546,C4,280.021,1979/500,1,96.0
3547,G3,280.021,1979/500,1,96.0
3548,G4,280.021,1979/500,1,96.0
3549,E-4,280.042,1021/500,1,96.0
3550,E-4,280.5,0.25,127,96.0
3551,E-4,280.75,0.25,127,96.0
3552,E-4,281.0,0.25,127,96.0
3553,E-2,281.0,0.25,127,96.0
3554,D2,281.0,0.25,127,96.0
3555,C#2,281.0,0.25,127,96.0
3556,C2,281.5,1021/1000,127,96.0
3557,F#2,281.5,0.25,127,96.0
3558,F#3,281.5,0.25,127,96.0
3559,E-4,281.5,0.25,127,96.0
3560,C2,281.5,0.25,127,96.0
3561,E-4,281.75,0.25,127,96.0
3562,C2,282.0,0.25,127,96.0
3563,F#2,282.0,0.25,127,96.0
3564,F#3,282.0,0.25,127,96.0
3565,E-4,282.0,0.25,127,96.0
3566,D4,282.042,0.75,1,96.0
3567,E-4,282.5,0.25,127,96.0
3568,F#2,282.5,0.25,127,96.0
3569,E-4,282.552,181/125,1,96.0
3570,C2,282.75,6/25,127,96.0
3571,E-4,282.75,0.25,127,96.0
3572,A2,283.0,0.281,127,96.0
3573,E-4,283.0,0.25,127,96.0
3574,F#3,283.0,0.25,127,96.0
3575,C#2,283.0,0.25,127,96.0
3576,D2,283.0,0.25,127,96.0
3577,E-2,283.0,0.25,127,96.0
3578,F#2,283.0,0.25,127,96.0
3579,C2,283.281,0.219,127,96.0
3580,G2,283.5,427/1000,127,96.0
3581,C2,283.5,0.25,127,96.0
3582,B-2,283.5,0.25,127,96.0
3583,F#3,283.5,0.25,127,96.0
3584,E-4,283.5,0.25,127,96.0
3585,D2,283.5,0.25,127,96.0
3586,E-4,283.75,0.25,127,96.0
3587,G#3,284.0,4.0,92,96.0
3588,G#2,284.0,1901/500,127,96.0
3589,C4,284.0,1/200,1,96.0
3590,E-4,284.0,1/200,127,96.0
3591,C4,284.0,1/200,102,96.0
3592,E-4,284.0,1/200,102,96.0
3593,G#3,284.0,4.0,1,96.0
3594,E-3,284.0,4.0,1,96.0
3595,F#3,284.0,0.25,127,96.0
3596,F#2,284.0,0.25,127,96.0
3597,C2,284.0,0.25,127,96.0
3598,F#2,284.5,0.25,127,96.0
3599,E-4,284.5,0.25,127,96.0
3600,E-4,284.75,0.25,127,96.0
3601,D2,285.0,0.25,127,96.0
3602,C#2,285.0,0.25,127,96.0
3603,E-2,285.0,0.25,127,96.0
3604,E-4,285.0,0.25,127,96.0
3605,F#2,285.0,0.25,127,96.0
3606,F#3,285.5,0.25,127,96.0
3607,C2,285.5,0.25,127,96.0
3608,E-4,285.5,0.25,127,96.0
3609,F#2,285.5,0.25,127,96.0
3610,E-4,285.75,0.25,127,96.0
3611,G#4,286.0,2.0,1,96.0
3612,F#2,286.0,0.25,127,96.0
3613,C2,286.0,0.25,127,96.0
3614,E-4,286.0,0.25,127,96.0
3615,F#3,286.0,0.25,127,96.0
3616,E-4,286.5,1.5,1,96.0
3617,E-4,286.5,0.25,127,96.0
3618,C2,286.5,0.25,127,96.0
3619,F#2,286.5,0.25,127,96.0
3620,E-4,286.75,0.25,127,96.0
3621,F#2,287.0,0.25,127,96.0
3622,D2,287.0,0.25,127,96.0
3623,F#3,287.0,0.25,127,96.0
3624,E-4,287.0,0.25,127,96.0
3625,C#2,287.0,0.25,127,96.0
3626,E-2,287.0,0.25,127,96.0
3627,D2,287.25,0.25,120,96.0
3628,F#3,287.5,0.25,127,96.0
3629,C2,287.5,0.25,127,96.0
3630,F#2,287.5,0.25,127,96.0
3631,E-4,287.5,0.25,127,96.0
3632,E-3,287.75,0.25,127,96.0
3633,D2,287.75,0.25,127,96.0
3634,E-4,287.75,0.25,127,96.0
3635,D2,288.0,194/125,127,96.0
3636,E-4,288.0,1/200,127,96.0
3637,D4,288.0,4.0,98,96.0
3638,F#4,288.0,4.0,98,96.0
3639,A4,288.0,4.0,98,96.0
3640,F#3,288.0,0.25,127,96.0
3641,C2,288.0,0.25,127,96.0
3642,F#2,288.0,0.25,127,96.0
3643,A3,288.01,2.0,1,96.0
3644,D4,288.01,2.0,1,96.0
3645,F#4,288.01,2.0,1,96.0
3646,E-4,288.5,0.25,127,96.0
3647,F#2,288.5,0.25,127,96.0
3648,E-4,288.75,0.25,127,96.0
3649,E-4,289.0,0.25,127,96.0
3650,F#2,289.0,0.25,127,96.0
3651,C#2,289.0,0.25,127,96.0
3652,D2,289.0,0.25,127,96.0
3653,E-2,289.0,0.25,127,96.0
3654,D3,289.5,2.25,127,96.0
3655,F#3,289.5,0.25,127,96.0
3656,E-4,289.5,0.25,127,96.0
3657,F#2,289.5,0.25,127,96.0
3658,C2,289.5,0.25,127,96.0
3659,E-4,289.75,0.25,127,96.0
3660,F#3,290.0,0.25,127,96.0
3661,C2,290.0,0.25,127,96.0
3662,E-4,290.0,0.25,127,96.0
3663,F#2,290.0,0.25,127,96.0
3664,C2,290.5,0.25,127,96.0
3665,E-4,290.5,0.25,127,96.0
3666,F#2,290.5,0.25,127,96.0
3667,E-4,290.75,0.25,127,96.0
3668,F#2,291.0,0.25,127,96.0
3669,F#3,291.0,0.25,127,96.0
3670,D2,291.0,0.25,127,96.0
3671,C#2,291.0,0.25,127,96.0
3672,E-2,291.0,0.25,127,96.0
3673,E-4,291.0,0.25,127,96.0
3674,D2,291.25,0.25,120,96.0
3675,E-4,291.5,0.25,127,96.0
3676,F#3,291.5,0.25,127,96.0
3677,C2,291.5,0.25,127,96.0
3678,F#2,291.5,0.25,127,96.0
3679,A2,291.75,27/200,127,96.0
3680,E-4,291.75,0.25,127,96.0
3681,D2,291.75,0.25,127,96.0
3682,E-2,292.0,1901/500,127,96.0
3683,E-4,292.0,1/200,127,96.0
3684,B-3,292.0,4.0,114,96.0
3685,E-3,292.0,4.0,114,96.0
3686,G3,292.0,4.0,114,96.0
3687,G4,292.0,2021/1000,1,96.0
3688,C4,292.0,2021/1000,1,96.0
3689,E-4,292.0,2021/1000,1,96.0
3690,B-3,292.0,2021/1000,1,96.0
3691,F#2,292.0,0.25,127,96.0
3692,C2,292.0,0.25,127,96.0
3693,F#3,292.0,0.25,127,96.0
3694,F#2,292.5,0.25,127,96.0
3695,E-4,292.5,0.25,127,96.0
3696,E-4,292.75,0.25,127,96.0
3697,D2,293.0,0.25,127,96.0
3698,E-2,293.0,0.25,127,96.0
3699,E-4,293.0,0.25,127,96.0
3700,F#2,293.0,0.25,127,96.0
3701,C#2,293.0,0.25,127,96.0
3702,F#2,293.5,0.25,127,96.0
3703,F#3,293.5,0.25,127,96.0
3704,E-4,293.5,0.25,127,96.0
3705,C2,293.5,0.25,127,96.0
3706,E-4,293.75,0.25,127,96.0
3707,E-5,294.0,2.0,1,96.0
3708,F#2,294.0,0.25,127,96.0
3709,F#3,294.0,0.25,127,96.0
3710,E-4,294.0,0.25,127,96.0
3711,C2,294.0,0.25,127,96.0
3712,B-4,294.5,1.5,1,96.0
3713,F#2,294.5,0.25,127,96.0
3714,E-4,294.5,0.25,127,96.0
3715,E-4,294.75,0.25,127,96.0
3716,G4,295.0,1.0,1,96.0
3717,F#2,295.0,0.25,127,96.0
3718,E-4,295.0,0.25,127,96.0
3719,E-2,295.0,0.25,127,96.0
3720,C#2,295.0,0.25,127,96.0
3721,D2,295.0,0.25,127,96.0
3722,F#3,295.0,0.25,127,96.0
3723,E-4,295.5,0.5,1,96.0
3724,C2,295.5,0.25,127,96.0
3725,F#3,295.5,0.25,127,96.0
3726,F#2,295.5,0.25,127,96.0
3727,E-4,295.5,0.25,127,96.0
3728,B-2,295.75,0.25,127,96.0
3729,E-4,295.75,0.25,127,96.0
3730,A1,296.0,1.375,127,96.0
3731,E-4,296.0,1/200,127,96.0
3732,C#4,296.0,4.0,98,96.0
3733,E4,296.0,4.0,98,96.0
3734,A3,296.0,4.0,98,96.0
3735,F#3,296.0,0.25,127,96.0
3736,F#2,296.0,0.25,127,96.0
3737,C2,296.0,0.25,127,96.0
3738,C#4,296.01,2.0,1,96.0
3739,E4,296.01,2.0,1,96.0
3740,A4,296.01,2.0,1,96.0
3741,G4,296.01,2.0,1,96.0
3742,B-2,296.5,0.25,127,96.0
3743,E-4,296.5,0.25,127,96.0
3744,E-4,296.75,0.25,127,96.0
3745,E-4,297.0,0.25,127,96.0
3746,C#2,297.0,0.25,127,96.0
3747,E-2,297.0,0.25,127,96.0
3748,D2,297.0,0.25,127,96.0
3749,F#2,297.0,0.25,127,96.0
3750,A1,297.5,1021/1000,127,96.0
3751,F#2,297.5,0.25,127,96.0
3752,C2,297.5,0.25,127,96.0
3753,E-4,297.5,0.25,127,96.0
3754,F#3,297.5,0.25,127,96.0
3755,E-4,297.75,0.25,127,96.0
3756,F#2,298.0,0.25,127,96.0
3757,C2,298.0,0.25,127,96.0
3758,E-4,298.0,0.25,127,96.0
3759,F#3,298.0,0.25,127,96.0
3760,F#2,298.5,0.25,127,96.0
3761,E-4,298.5,0.25,127,96.0
3762,A1,298.75,6/25,127,96.0
3763,E-4,298.75,0.25,127,96.0
3764,F2,299.0,0.281,127,96.0
3765,F#3,299.0,0.25,127,96.0
3766,E-4,299.0,0.25,127,96.0
3767,D2,299.0,0.25,127,96.0
3768,E-2,299.0,0.25,127,96.0
3769,F#2,299.0,0.25,127,96.0
3770,C#2,299.0,0.25,127,96.0
3771,A1,299.281,0.219,127,96.0
3772,E2,299.5,427/1000,127,96.0
3773,F#3,299.5,0.25,127,96.0
3774,F#2,299.5,0.25,127,96.0
3775,D2,299.5,0.25,127,96.0
3776,E-4,299.5,0.25,127,96.0
3777,C2,299.5,0.25,127,96.0
3778,E-4,299.75,0.25,127,96.0
3779,D2,299.75,0.25,127,96.0
3780,E-2,300.0,1901/500,127,96.0
3781,E-4,300.0,1/200,127,96.0
3782,E-4,300.0,4.0,98,96.0
3783,B-4,300.0,4.0,98,96.0
3784,F#4,300.0,4.0,98,96.0
3785,F#3,300.0,0.25,127,96.0
3786,C2,300.0,0.25,127,96.0
3787,F#2,300.0,0.25,127,96.0
3788,B-3,300.01,2.0,1,96.0
3789,F#4,300.01,2.0,1,96.0
3790,E-4,300.01,2.0,1,96.0
3791,C2,300.5,0.25,127,96.0
3792,E-4,300.5,0.25,127,96.0
3793,F#2,300.5,0.25,127,96.0
3794,E-4,300.75,0.25,127,96.0
3795,E-2,301.0,0.25,127,96.0
3796,D2,301.0,0.25,127,96.0
3797,C#2,301.0,0.25,127,96.0
3798,F#2,301.0,0.25,127,96.0
3799,E-4,301.0,0.25,127,96.0
3800,C2,301.5,0.25,127,96.0
3801,F#3,301.5,0.25,127,96.0
3802,F#2,301.5,0.25,127,96.0
3803,E-4,301.5,0.25,127,96.0
3804,E-4,301.75,0.25,127,96.0
3805,F#2,302.0,0.25,127,96.0
3806,F#3,302.0,0.25,127,96.0
3807,E-4,302.0,0.25,127,96.0
3808,C2,302.0,0.25,127,96.0
3809,C2,302.5,0.25,127,96.0
3810,F#2,302.5,0.25,127,96.0
3811,E-4,302.5,0.25,127,96.0
3812,E-4,302.75,0.25,127,96.0
3813,F#3,303.0,0.25,127,96.0
3814,D2,303.0,0.25,127,96.0
3815,C#2,303.0,0.25,127,96.0
3816,E-2,303.0,0.25,127,96.0
3817,E-4,303.0,0.25,127,96.0
3818,F#2,303.0,0.25,127,96.0
3819,F#2,303.5,0.25,127,96.0
3820,B2,303.5,0.25,127,96.0
3821,F#3,303.5,0.25,127,96.0
3822,E-4,303.5,0.25,127,96.0
3823,C2,303.5,0.25,127,96.0
3824,B-2,303.75,0.25,127,96.0
3825,E-4,303.75,0.25,127,96.0
3826,B2,303.75,0.25,127,96.0
3827,F2,304.0,1901/500,127,96.0
3828,E-4,304.0,1/200,127,96.0
3829,A3,304.0,4.0,114,96.0
3830,F3,304.0,4.0,114,96.0
3831,C4,304.0,4.0,114,96.0
3832,F4,304.0,4.0,1,96.0
3833,A4,304.0,4.0,1,96.0
3834,C4,304.0,4.0,1,96.0
3835,C2,304.0,0.25,127,96.0
3836,F#3,304.0,0.25,127,96.0
3837,F#2,304.0,0.25,127,96.0
3838,F#2,304.5,0.25,127,96.0
3839,E-4,304.5,0.25,127,96.0
3840,E-4,304.75,0.25,127,96.0
3841,F3,304.76,113/50,127,96.0
3842,F#2,305.0,0.25,127,96.0
3843,E-4,305.0,0.25,127,96.0
3844,D2,305.0,0.25,127,96.0
3845,C#2,305.0,0.25,127,96.0
3846,E-2,305.0,0.25,127,96.0
3847,C4,305.219,26/125,127,96.0
3848,C2,305.5,0.25,127,96.0
3849,E-4,305.5,0.25,127,96.0
3850,F#2,305.5,0.25,127,96.0
3851,F#3,305.5,0.25,127,96.0
3852,F4,305.729,0.219,127,96.0
3853,E-4,305.75,0.25,127,96.0
3854,F5,306.0,2.0,1,96.0
3855,F#3,306.0,0.25,127,96.0
3856,F#2,306.0,0.25,127,96.0
3857,E-4,306.0,0.25,127,96.0
3858,C2,306.0,0.25,127,96.0
3859,C5,306.25,377/200,127,96.0
3860,C5,306.5,1.5,1,96.0
3861,E-4,306.5,0.25,127,96.0
3862,F#2,306.5,0.25,127,96.0
3863,D2,306.5,0.25,127,96.0
3864,E-4,306.75,0.25,127,96.0
3865,F#2,307.0,0.25,127,96.0
3866,E-4,307.0,0.25,127,96.0
3867,D2,307.0,0.25,127,96.0
3868,F#3,307.0,0.25,127,96.0
3869,E-2,307.0,0.25,127,96.0
3870,C#2,307.0,0.25,127,96.0
3871,D2,307.25,0.25,127,96.0
3872,F#2,307.5,0.25,127,96.0
3873,F#3,307.5,0.25,127,96.0
3874,D2,307.5,0.25,127,96.0
3875,C2,307.5,0.25,127,96.0
3876,E-4,307.5,0.25,127,96.0
3877,C3,307.75,0.25,127,96.0
3878,D2,307.75,0.25,127,96.0
3879,E-4,307.75,0.25,127,96.0
3880,C4,308.0,1/200,107,96.0
3881,B-1,308.0,0.812,127,96.0
3882,D4,308.0,2.0,114,96.0
3883,F4,308.0,2.0,114,96.0
3884,D2,308.0,1/200,127,96.0
3885,E-4,308.0,1/200,127,96.0
3886,C2,308.0,0.25,127,96.0
3887,C#3,308.0,0.25,127,96.0
3888,F4,308.042,1.812,1,96.0
3889,A3,308.042,1.812,1,96.0
3890,C4,308.042,1.812,1,96.0
3891,D4,308.042,1.812,1,96.0
3892,C5,308.135,73/250,127,96.0
3893,E-4,308.5,0.25,127,96.0
3894,F2,308.75,26/125,127,96.0
3895,E-4,308.75,0.25,127,96.0
3896,D3,309.0,73/250,127,96.0
3897,E-2,309.0,0.25,127,96.0
3898,E-4,309.0,0.25,127,96.0
3899,D2,309.0,0.25,127,96.0
3900,C#2,309.0,0.25,127,96.0
3901,D5,309.229,127/200,127,96.0
3902,F2,309.25,167/1000,127,96.0
3903,B-1,309.5,26/125,127,96.0
3904,E-4,309.5,0.25,127,96.0
3905,C2,309.5,0.25,127,96.0
3906,F#2,309.5,0.25,127,96.0
3907,B-2,309.75,0.25,127,96.0
3908,E-4,309.75,0.25,127,96.0
3909,F5,309.76,2.375,127,96.0
3910,B-1,310.0,2.0,127,96.0
3911,B-3,310.0,2.0,111,96.0
3912,D4,310.0,2.0,111,96.0
3913,F4,310.0,2.0,111,96.0
3914,B-3,310.0,1.812,1,96.0
3915,F4,310.0,1.812,1,96.0
3916,D4,310.0,1.812,1,96.0
3917,F#2,310.0,0.25,127,96.0
3918,E-4,310.0,0.25,127,96.0
3919,C2,310.0,0.25,127,96.0
3920,E-4,310.5,0.25,127,96.0
3921,F#2,310.5,0.25,127,96.0
3922,E-4,310.75,0.25,127,96.0
3923,E-4,311.0,0.25,127,96.0
3924,F#2,311.0,0.25,127,96.0
3925,C#2,311.0,0.25,127,96.0
3926,D2,311.0,0.25,127,96.0
3927,E-2,311.0,0.25,127,96.0
3928,E-4,311.5,0.25,127,96.0
3929,B-2,311.5,0.25,127,96.0
3930,D2,311.5,0.25,127,96.0
3931,C2,311.5,0.25,127,96.0
3932,E-4,311.75,0.25,127,96.0
3933,C4,312.0,2.0,107,96.0
3934,B-1,312.0,1/200,127,96.0
3935,E-4,312.0,1/200,127,96.0
3936,F4,312.0,1/200,114,96.0
3937,D4,312.0,1/200,114,96.0
3938,C2,312.0,0.25,127,96.0
3939,F#2,312.0,0.25,127,96.0
3940,C5,312.042,1.812,1,96.0
3941,F4,312.042,1.812,1,96.0
3942,A4,312.042,1.812,1,96.0
3943,D4,312.042,1.812,1,96.0
3944,F5,312.135,0.75,127,96.0
3945,E-4,312.25,1/200,127,96.0
3946,E-4,312.5,1/200,127,96.0
3947,C2,312.5,0.25,127,96.0
3948,F#2,312.5,0.25,127,96.0
3949,F2,312.75,26/125,127,96.0
3950,E-4,312.75,1/200,127,96.0
3951,D3,313.0,73/250,127,96.0
3952,E-4,313.0,1/200,127,96.0
3953,C#2,313.0,0.25,127,96.0
3954,D2,313.0,0.25,127,96.0
3955,E-2,313.0,0.25,127,96.0
3956,F#2,313.0,0.25,127,96.0
3957,D4,313.198,1.0,127,96.0
3958,F2,313.25,167/1000,127,96.0
3959,B-1,313.5,26/125,127,96.0
3960,C2,313.5,0.25,127,96.0
3961,F#2,313.5,0.25,127,96.0
3962,E-4,313.5,0.25,127,96.0
3963,B-2,313.75,0.25,127,96.0
3964,E-4,313.75,0.25,127,96.0
3965,B-3,314.0,2.0,107,96.0
3966,B-1,314.0,2.0,127,96.0
3967,F4,314.0,1/200,114,96.0
3968,D4,314.0,1/200,114,96.0
3969,C2,314.0,0.25,127,96.0
3970,F#2,314.0,0.25,127,96.0
3971,E-4,314.0,0.25,127,96.0
3972,D4,314.042,1.812,1,96.0
3973,F4,314.042,1.812,1,96.0
3974,B-3,314.042,1.812,1,96.0
3975,F4,314.208,1927/1000,127,96.0
3976,F#2,314.5,0.25,127,96.0
3977,C2,314.5,0.25,127,96.0
3978,E-4,314.5,0.25,127,96.0
3979,E-4,314.75,0.25,127,96.0
3980,E-2,315.0,0.25,127,96.0
3981,E-4,315.0,0.25,127,96.0
3982,F#2,315.0,0.25,127,96.0
3983,D2,315.0,0.25,127,96.0
3984,C#2,315.0,0.25,127,96.0
3985,C2,315.5,0.25,127,96.0
3986,B2,315.5,0.25,127,96.0
3987,F#2,315.5,0.25,127,96.0
3988,E-4,315.5,0.25,127,96.0
3989,B2,315.75,0.25,127,96.0
3990,E-4,315.75,0.25,127,96.0
3991,B-3,316.0,1/200,114,96.0
3992,E-2,316.0,2.0,127,96.0
3993,E-4,316.0,1/200,127,96.0
3994,G3,316.0,2.0,110,96.0
3995,E-3,316.0,2.0,110,96.0
3996,F#2,316.0,0.25,127,96.0
3997,C2,316.0,0.25,127,96.0
3998,F4,316.042,1.812,1,96.0
3999,D4,316.042,1.812,1,96.0
4000,G4,316.042,1.812,1,96.0
4001,B-3,316.042,1.812,1,96.0
4002,F4,316.135,13/125,127,96.0
4003,E-4,316.5,0.25,127,96.0
4004,F#2,316.5,0.25,127,96.0
4005,E-4,316.75,0.25,127,96.0
4006,D2,317.0,0.25,127,96.0
4007,E-2,317.0,0.25,127,96.0
4008,C#2,317.0,0.25,127,96.0
4009,E-4,317.0,0.25,127,96.0
4010,F#2,317.0,0.25,127,96.0
4011,G4,317.188,373/200,127,96.0
4012,F#2,317.5,0.25,127,96.0
4013,C2,317.5,0.25,127,96.0
4014,E-4,317.5,0.25,127,96.0
4015,G5,317.677,123/200,127,96.0
4016,E-4,317.75,0.25,127,96.0
4017,B-3,318.0,1/200,114,96.0
4018,E-2,318.0,2.0,127,96.0
4019,G3,318.0,2.0,110,96.0
4020,E-3,318.0,2.0,110,96.0
4021,E-4,318.0,1.812,1,96.0
4022,G3,318.0,1.812,1,96.0
4023,C4,318.0,1.812,1,96.0
4024,B-3,318.0,1.812,1,96.0
4025,E-4,318.0,0.25,127,96.0
4026,F#2,318.0,0.25,127,96.0
4027,C2,318.0,0.25,127,96.0
4028,B-5,318.281,927/500,127,96.0
4029,E-4,318.5,0.25,127,96.0
4030,F#2,318.5,0.25,127,96.0
4031,E-4,318.75,0.25,127,96.0
4032,E-2,319.0,0.25,127,96.0
4033,D2,319.0,0.25,127,96.0
4034,F#2,319.0,0.25,127,96.0
4035,C#2,319.0,0.25,127,96.0
4036,E-4,319.0,0.25,127,96.0
4037,E-4,319.5,0.25,127,96.0
4038,F#2,319.5,0.25,127,96.0
4039,C2,319.5,0.25,127,96.0
4040,E-4,319.75,0.25,127,96.0
4041,E-2,320.0,1/200,127,96.0
4042,E-4,320.0,1/200,127,96.0
4043,B-3,320.0,1/200,111,96.0
4044,G3,320.0,1/200,111,96.0
4045,E-3,320.0,1/200,111,96.0
4046,G3,320.0,1.812,1,96.0
4047,B-4,320.0,1.812,1,96.0
4048,F4,320.0,1.812,1,96.0
4049,D4,320.0,1.812,1,96.0
4050,F#2,320.0,0.25,127,96.0
4051,C2,320.0,0.25,127,96.0
4052,B-5,320.135,0.656,127,96.0
4053,F#2,320.5,0.25,127,96.0
4054,E-4,320.5,0.25,127,96.0
4055,E-4,320.75,0.25,127,96.0
4056,C#2,321.0,0.25,127,96.0
4057,D2,321.0,0.25,127,96.0
4058,E-4,321.0,0.25,127,96.0
4059,F#2,321.0,0.25,127,96.0
4060,E-2,321.0,0.25,127,96.0
4061,G3,321.198,1083/1000,127,96.0
4062,F#2,321.5,0.25,127,96.0
4063,E-4,321.5,0.25,127,96.0
4064,C2,321.5,0.25,127,96.0
4065,G4,321.646,123/200,127,96.0
4066,E-4,321.75,0.25,127,96.0
4067,E-2,322.0,1/200,127,96.0
4068,G3,322.0,1/200,111,96.0
4069,E-3,322.0,1/200,111,96.0
4070,B-3,322.0,1/200,111,96.0
4071,C4,322.0,1.812,1,96.0
4072,G3,322.0,1.812,1,96.0
4073,B-3,322.0,1.812,1,96.0
4074,E-4,322.0,1.812,1,96.0
4075,E-4,322.0,0.25,127,96.0
4076,F#2,322.0,0.25,127,96.0
4077,C2,322.0,0.25,127,96.0
4078,B-4,322.188,1.938,127,96.0
4079,F#2,322.5,0.25,127,96.0
4080,E-4,322.5,0.25,127,96.0
4081,E-4,322.75,0.25,127,96.0
4082,E-2,323.0,0.25,127,96.0
4083,F#2,323.0,0.25,127,96.0
4084,C#2,323.0,0.25,127,96.0
4085,D2,323.0,0.25,127,96.0
4086,E-4,323.0,0.25,127,96.0
4087,C2,323.5,0.25,127,96.0
4088,F#2,323.5,0.25,127,96.0
4089,E-4,323.5,0.25,127,96.0
4090,E-4,323.75,0.25,127,96.0
4091,D2,324.0,2.0,127,96.0
4092,E-4,324.0,1/200,127,96.0
4093,D4,324.0,2.0,111,96.0
4094,A4,324.0,2.0,111,96.0
4095,F4,324.0,2.0,111,96.0
4096,C2,324.0,0.25,127,96.0
4097,F#2,324.0,0.25,127,96.0
4098,A3,324.042,1.812,1,96.0
4099,F4,324.042,1.812,1,96.0
4100,D4,324.042,1.812,1,96.0
4101,E-4,324.25,1/200,127,96.0
4102,E-4,324.5,1/200,127,96.0
4103,F#2,324.5,0.25,127,96.0
4104,C2,324.5,0.25,127,96.0
4105,E-4,324.75,1/200,127,96.0
4106,E-4,325.0,1/200,127,96.0
4107,F#2,325.0,0.25,127,96.0
4108,D2,325.0,0.25,127,96.0
4109,E-2,325.0,0.25,127,96.0
4110,C#2,325.0,0.25,127,96.0
4111,F#2,325.5,0.25,127,96.0
4112,C2,325.5,0.25,127,96.0
4113,E-4,325.5,0.25,127,96.0
4114,A4,325.594,349/500,127,96.0
4115,E-4,325.75,0.25,127,96.0
4116,D2,326.0,151/100,127,96.0
4117,F4,326.0,2.0,111,96.0
4118,A4,326.0,2.0,111,96.0
4119,D4,326.0,2.0,111,96.0
4120,E-4,326.0,0.25,127,96.0
4121,C2,326.0,0.25,127,96.0
4122,F#2,326.0,0.25,127,96.0
4123,F4,326.042,1.812,1,96.0
4124,A4,326.042,1.812,1,96.0
4125,C4,326.042,1.812,1,96.0
4126,D4,326.042,1.812,1,96.0
4127,D5,326.24,237/125,127,96.0
4128,F#2,326.5,0.25,127,96.0
4129,E-4,326.5,0.25,127,96.0
4130,C2,326.5,0.25,127,96.0
4131,E-4,326.75,0.25,127,96.0
4132,E-4,327.0,0.25,127,96.0
4133,F#2,327.0,0.25,127,96.0
4134,C#2,327.0,0.25,127,96.0
4135,E-2,327.0,0.25,127,96.0
4136,D2,327.0,0.25,127,96.0
4137,A2,327.5,0.156,127,96.0
4138,F#2,327.5,0.25,127,96.0
4139,E-4,327.5,0.25,127,96.0
4140,C2,327.5,0.25,127,96.0
4141,B2,327.5,0.25,127,96.0
4142,A2,327.75,167/1000,127,96.0
4143,E-4,327.75,0.25,127,96.0
4144,B2,327.75,0.25,127,96.0
4145,C3,328.0,4.0,95,96.0
4146,E-2,328.0,1901/500,127,96.0
4147,E-4,328.0,1/200,127,96.0
4148,C4,328.0,423/200,1,96.0
4149,G4,328.0,423/200,1,96.0
4150,E-4,328.0,423/200,1,96.0
4151,B-3,328.0,423/200,1,96.0
4152,F#2,328.0,0.25,127,96.0
4153,C2,328.0,0.25,127,96.0
4154,D5,328.135,427/1000,127,96.0
4155,E-4,328.25,1/200,127,96.0
4156,E-4,328.5,1/200,127,96.0
4157,F#2,328.5,0.25,127,96.0
4158,C2,328.5,0.25,127,96.0
4159,G4,328.625,0.594,127,96.0
4160,E-4,328.75,1/200,127,96.0
4161,E-4,329.0,1/200,127,96.0
4162,E-2,329.0,0.25,127,96.0
4163,D2,329.0,0.25,127,96.0
4164,F#2,329.0,0.25,127,96.0
4165,C#2,329.0,0.25,127,96.0
4166,B-4,329.177,521/1000,127,96.0
4167,F#2,329.5,0.25,127,96.0
4168,C2,329.5,0.25,127,96.0
4169,E-4,329.5,0.25,127,96.0
4170,D5,329.635,479/1000,127,96.0
4171,E-4,329.75,0.25,127,96.0
4172,E-4,330.0,0.25,127,96.0
4173,F#2,330.0,0.25,127,96.0
4174,C2,330.0,0.25,127,96.0
4175,D5,330.219,6/25,127,96.0
4176,E-5,330.458,823/500,85,96.0
4177,B-3,330.5,1.5,1,96.0
4178,G4,330.5,1.5,1,96.0
4179,C4,330.5,1.5,1,96.0
4180,E-4,330.5,1.5,1,96.0
4181,F#2,330.5,0.25,127,96.0
4182,E-4,330.5,0.25,127,96.0
4183,C2,330.5,0.25,127,96.0
4184,E-4,330.75,0.25,127,96.0
4185,E-4,331.0,0.25,127,96.0
4186,E-2,331.0,0.25,127,96.0
4187,F#2,331.0,0.25,127,96.0
4188,C#2,331.0,0.25,127,96.0
4189,D2,331.0,0.25,127,96.0
4190,E-4,331.5,0.25,127,96.0
4191,F#2,331.5,0.25,127,96.0
4192,B2,331.5,0.25,127,96.0
4193,C2,331.5,0.25,127,96.0
4194,B-2,331.75,0.25,127,96.0
4195,E-4,331.75,0.25,127,96.0
4196,B2,331.75,0.25,127,96.0
4197,B-1,332.0,2.0,127,96.0
4198,E-4,332.0,1/200,127,96.0
4199,F4,332.0,2.0,111,96.0
4200,B-3,332.0,2.0,111,96.0
4201,D4,332.0,2.0,111,96.0
4202,F#2,332.0,0.25,127,96.0
4203,C2,332.0,0.25,127,96.0
4204,D4,332.042,1.812,1,96.0
4205,B-3,332.042,1.812,1,96.0
4206,F4,332.042,1.812,1,96.0
4207,E-4,332.25,1/200,127,96.0
4208,E-4,332.5,1/200,127,96.0
4209,F#2,332.5,0.25,127,96.0
4210,C2,332.5,0.25,127,96.0
4211,E-4,332.75,1/200,127,96.0
4212,E-4,333.0,1/200,127,96.0
4213,E-2,333.0,0.25,127,96.0
4214,F#2,333.0,0.25,127,96.0
4215,C#2,333.0,0.25,127,96.0
4216,D2,333.0,0.25,127,96.0
4217,E-4,333.5,0.25,127,96.0
4218,F#2,333.5,0.25,127,96.0
4219,C2,333.5,0.25,127,96.0
4220,E-4,333.75,0.25,127,96.0
4221,F2,334.0,2.0,127,96.0
4222,A3,334.0,2.0,111,96.0
4223,C4,334.0,2.0,111,96.0
4224,F3,334.0,2.0,111,96.0
4225,G4,334.0,1.812,1,96.0
4226,C5,334.0,1.812,1,96.0
4227,A3,334.0,1.812,1,96.0
4228,E-4,334.0,1.812,1,96.0
4229,C2,334.0,0.25,127,96.0
4230,F#2,334.0,0.25,127,96.0
4231,E-4,334.0,0.25,127,96.0
4232,E-4,334.5,0.25,127,96.0
4233,C2,334.5,0.25,127,96.0
4234,F#2,334.5,0.25,127,96.0
4235,E-4,334.75,0.25,127,96.0
4236,E-2,335.0,0.25,127,96.0
4237,E-4,335.0,0.25,127,96.0
4238,F#2,335.0,0.25,127,96.0
4239,C#2,335.0,0.25,127,96.0
4240,D2,335.0,0.25,127,96.0
4241,E-4,335.5,0.25,127,96.0
4242,F#2,335.5,0.25,127,96.0
4243,B2,335.5,0.25,127,96.0
4244,C2,335.5,0.25,127,96.0
4245,B2,335.75,0.25,127,96.0
4246,E-4,335.75,0.25,127,96.0
4247,B-1,336.0,349/250,127,96.0
4248,E-4,336.0,1/200,127,96.0
4249,F4,336.0,4.0,111,96.0
4250,D4,336.0,4.0,111,96.0
4251,B-3,336.0,4.0,111,96.0
4252,F4,336.0,3833/1000,1,96.0
4253,B-3,336.0,3833/1000,1,96.0
4254,D4,336.0,3833/1000,1,96.0
4255,F#2,336.0,0.25,127,96.0
4256,C2,336.0,0.25,127,96.0
4257,F#2,336.5,0.25,127,96.0
4258,E-4,336.5,0.25,127,96.0
4259,D4,336.677,2583/1000,127,96.0
4260,E-2,337.0,0.25,127,96.0
4261,E-4,337.0,0.25,127,96.0
4262,D2,337.0,0.25,127,96.0
4263,C#2,337.0,0.25,127,96.0
4264,F#2,337.0,0.25,127,96.0
4265,F4,337.469,667/1000,127,96.0
4266,F#2,337.5,0.25,127,96.0
4267,C2,337.5,0.25,127,96.0
4268,E-4,337.5,0.25,127,96.0
4269,B-1,337.667,167/1000,127,96.0
4270,B-2,338.0,333/1000,127,96.0
4271,F#2,338.0,0.25,127,96.0
4272,C2,338.0,0.25,127,96.0
4273,E-4,338.0,0.25,127,96.0
4274,B-4,338.198,1073/1000,127,96.0
4275,B-2,338.333,333/1000,127,96.0
4276,F#2,338.5,0.25,127,96.0
4277,D2,338.5,0.25,127,96.0
4278,E-4,338.5,0.25,127,96.0
4279,F2,338.667,333/1000,127,96.0
4280,E-2,339.0,26/125,127,96.0
4281,E-4,339.0,0.25,127,96.0
4282,C#2,339.0,0.25,127,96.0
4283,D2,339.0,0.25,127,96.0
4284,F#2,339.0,0.25,127,96.0
4285,E-2,339.0,0.25,127,96.0
4286,F4,339.219,99/125,127,96.0
4287,D2,339.25,0.25,127,96.0
4288,D2,339.333,333/1000,127,96.0
4289,D2,339.5,0.25,127,96.0
4290,C2,339.5,0.25,127,96.0
4291,F#2,339.5,0.25,127,96.0
4292,E-4,339.5,0.25,127,96.0
4293,B-1,339.667,333/1000,127,96.0
4294,D2,339.75,0.25,127,96.0
4295,G#2,340.0,1901/500,127,96.0
4296,D2,340.0,1/200,127,96.0
4297,G#3,340.0,4.0,98,96.0
4298,C4,340.0,4.0,98,96.0
4299,E-4,340.0,4.0,98,96.0
4300,C#3,340.0,0.25,127,96.0
4301,E-4,340.0,0.25,127,96.0
4302,C2,340.0,0.25,127,96.0
4303,F#3,340.0,0.25,127,96.0
4304,G#3,340.021,1979/500,1,96.0
4305,E-3,340.021,1979/500,1,96.0
4306,E-4,340.021,1979/500,1,96.0
4307,C4,340.042,1021/500,1,96.0
4308,E-4,340.5,0.25,127,96.0
4309,C4,340.698,2979/1000,127,96.0
4310,E-4,340.75,0.25,127,96.0
4311,E-2,341.0,0.25,127,96.0
4312,D2,341.0,0.25,127,96.0
4313,E-4,341.0,0.25,127,96.0
4314,C#2,341.0,0.25,127,96.0
4315,C2,341.5,0.25,127,96.0
4316,F#2,341.5,0.25,127,96.0
4317,F#3,341.5,0.25,127,96.0
4318,E-4,341.5,0.25,127,96.0
4319,E-4,341.542,823/1000,127,96.0
4320,E-4,341.75,0.25,127,96.0
4321,F#3,342.0,0.25,127,96.0
4322,E-4,342.0,0.25,127,96.0
4323,F#2,342.0,0.25,127,96.0
4324,C2,342.0,0.25,127,96.0
4325,B-3,342.042,0.75,1,96.0
4326,G#4,342.177,479/500,127,96.0
4327,F#2,342.5,0.25,127,96.0
4328,E-4,342.5,0.25,127,96.0
4329,C4,342.552,181/125,1,96.0
4330,E-4,342.75,0.25,127,96.0
4331,F#2,343.0,0.25,127,96.0
4332,F#3,343.0,0.25,127,96.0
4333,E-4,343.0,0.25,127,96.0
4334,D2,343.0,0.25,127,96.0
4335,E-2,343.0,0.25,127,96.0
4336,C#2,343.0,0.25,127,96.0
4337,E-4,343.208,927/1000,127,96.0
4338,C2,343.5,0.25,127,96.0
4339,B-2,343.5,0.25,127,96.0
4340,D2,343.5,0.25,127,96.0
4341,E-4,343.5,0.25,127,96.0
4342,F#3,343.5,0.25,127,96.0
4343,E-3,343.75,0.25,127,96.0
4344,E-4,343.75,0.25,127,96.0
4345,F#2,344.0,1901/500,127,96.0
4346,E-4,344.0,1/200,127,96.0
4347,C#3,344.0,4.0,114,96.0
4348,F#2,344.0,4.0,114,96.0
4349,B-2,344.0,4.0,114,96.0
4350,C2,344.0,0.25,127,96.0
4351,F#2,344.0,0.25,127,96.0
4352,F#3,344.0,0.25,127,96.0
4353,B-3,344.01,2.0,1,96.0
4354,C#4,344.01,2.0,1,96.0
4355,F#3,344.01,2.0,1,96.0
4356,E-4,344.135,177/1000,127,96.0
4357,E-4,344.5,0.25,127,96.0
4358,B-2,344.5,0.25,127,96.0
4359,F#4,344.74,3333/1000,127,96.0
4360,E-4,344.75,0.25,127,96.0
4361,F#2,345.0,0.25,127,96.0
4362,D2,345.0,0.25,127,96.0
4363,E-4,345.0,0.25,127,96.0
4364,C#2,345.0,0.25,127,96.0
4365,E-2,345.0,0.25,127,96.0
4366,B-4,345.427,771/1000,127,96.0
4367,F#2,345.5,0.25,127,96.0
4368,F#3,345.5,0.25,127,96.0
4369,C2,345.5,0.25,127,96.0
4370,E-4,345.5,0.25,127,96.0
4371,E-4,345.75,0.25,127,96.0
4372,E-4,346.0,0.25,127,96.0
4373,F#3,346.0,0.25,127,96.0
4374,C2,346.0,0.25,127,96.0
4375,F#2,346.0,0.25,127,96.0
4376,C#5,346.167,927/1000,127,96.0
4377,E-4,346.5,0.25,127,96.0
4378,F#2,346.5,0.25,127,96.0
4379,E-4,346.75,0.25,127,96.0
4380,E-2,347.0,0.25,127,96.0
4381,D2,347.0,0.25,127,96.0
4382,E-4,347.0,0.25,127,96.0
4383,C#2,347.0,0.25,127,96.0
4384,F#3,347.0,0.25,127,96.0
4385,F#2,347.0,0.25,127,96.0
4386,B-4,347.135,0.75,127,96.0
4387,E-4,347.5,0.25,127,96.0
4388,F#3,347.5,0.25,127,96.0
4389,F#2,347.5,0.25,127,96.0
4390,D2,347.5,0.25,127,96.0
4391,C2,347.5,0.25,127,96.0
4392,C#3,347.75,0.25,127,96.0
4393,D2,347.75,0.25,127,96.0
4394,E-4,347.75,0.25,127,96.0
4395,F2,348.0,1901/500,127,96.0
4396,E-4,348.0,1/200,127,96.0
4397,F4,348.0,4.0,98,96.0
4398,C5,348.0,4.0,98,96.0
4399,A4,348.0,4.0,98,96.0
4400,F4,348.0,4.0,1,96.0
4401,C4,348.0,4.0,1,96.0
4402,E-4,348.0,4.0,1,96.0
4403,A4,348.0,4.0,1,96.0
4404,F#2,348.0,0.25,127,96.0
4405,F#3,348.0,0.25,127,96.0
4406,C2,348.0,0.25,127,96.0
4407,F4,348.135,87/50,127,96.0
4408,C5,348.135,81/25,127,96.0
4409,A4,348.135,399/100,127,96.0
4410,F#2,348.5,0.25,127,96.0
4411,E-4,348.5,0.25,127,96.0
4412,E-4,348.75,0.25,127,96.0
4413,E-4,349.0,0.25,127,96.0
4414,E-2,349.0,0.25,127,96.0
4415,C#2,349.0,0.25,127,96.0
4416,F#2,349.0,0.25,127,96.0
4417,D2,349.0,0.25,127,96.0
4418,F#2,349.5,0.25,127,96.0
4419,C2,349.5,0.25,127,96.0
4420,F#3,349.5,0.25,127,96.0
4421,E-4,349.5,0.25,127,96.0
4422,E-4,349.75,0.25,127,96.0
4423,F5,350.0,2.0,1,96.0
4424,F#2,350.0,0.25,127,96.0
4425,F#3,350.0,0.25,127,96.0
4426,C2,350.0,0.25,127,96.0
4427,E-4,350.0,0.25,127,96.0
4428,C5,350.5,1.5,1,96.0
4429,F#2,350.5,0.25,127,96.0
4430,C2,350.5,0.25,127,96.0
4431,E-4,350.5,0.25,127,96.0
4432,E-4,350.75,0.25,127,96.0
4433,F#3,351.0,0.25,127,96.0
4434,C#2,351.0,0.25,127,96.0
4435,D2,351.0,0.25,127,96.0
4436,F#2,351.0,0.25,127,96.0
4437,E-4,351.0,0.25,127,96.0
4438,E-2,351.0,0.25,127,96.0
4439,D2,351.25,0.25,120,96.0
4440,E-4,351.5,0.25,127,96.0
4441,F#3,351.5,0.25,127,96.0
4442,C2,351.5,0.25,127,96.0
4443,F#2,351.5,0.25,127,96.0
4444,C3,351.75,0.25,127,96.0
4445,D2,351.75,0.25,127,96.0
4446,E-4,351.75,0.25,127,96.0
4447,B-1,352.0,1.5,127,96.0
4448,E-4,352.0,1/200,127,96.0
4449,D3,352.0,4.0,114,96.0
4450,F3,352.0,4.0,114,96.0
4451,B-2,352.0,4.0,114,96.0
4452,F#3,352.0,0.25,127,96.0
4453,C2,352.0,0.25,127,96.0
4454,F#2,352.0,0.25,127,96.0
4455,C2,352.5,0.25,127,96.0
4456,F#2,352.5,0.25,127,96.0
4457,E-4,352.5,0.25,127,96.0
4458,B-2,352.698,3.438,127,96.0
4459,E-4,352.75,0.25,127,96.0
4460,B-4,353.0,0.625,1,96.0
4461,F4,353.0,0.625,1,96.0
4462,D4,353.0,0.625,1,96.0
4463,E-2,353.0,0.25,127,96.0
4464,F#2,353.0,0.25,127,96.0
4465,E-4,353.0,0.25,127,96.0
4466,D2,353.0,0.25,127,96.0
4467,C#2,353.0,0.25,127,96.0
4468,D3,353.385,2.75,127,96.0
4469,B-2,353.5,1833/1000,127,96.0
4470,F#2,353.5,0.25,127,96.0
4471,F#3,353.5,0.25,127,96.0
4472,E-4,353.5,0.25,127,96.0
4473,C2,353.5,0.25,127,96.0
4474,E-4,353.75,0.25,127,96.0
4475,D4,354.0,167/1000,1,96.0
4476,B-4,354.0,167/1000,1,96.0
4477,F4,354.0,167/1000,1,96.0
4478,E-4,354.0,0.25,127,96.0
4479,C2,354.0,0.25,127,96.0
4480,F#2,354.0,0.25,127,96.0
4481,F#3,354.0,0.25,127,96.0
4482,F3,354.25,6/25,127,96.0
4483,B-4,354.5,1.5,1,96.0
4484,D4,354.5,1.5,1,96.0
4485,F4,354.5,1.5,1,96.0
4486,E-4,354.5,0.25,127,96.0
4487,C2,354.5,0.25,127,96.0
4488,F#2,354.5,0.25,127,96.0
4489,E-4,354.75,0.25,127,96.0
4490,B-3,354.823,99/250,127,96.0
4491,D2,355.0,0.25,127,96.0
4492,C#2,355.0,0.25,127,96.0
4493,E-2,355.0,0.25,127,96.0
4494,F#3,355.0,0.25,127,96.0
4495,F#2,355.0,0.25,127,96.0
4496,E-4,355.0,0.25,127,96.0
4497,B-1,355.25,167/1000,127,96.0
4498,D4,355.427,69/125,127,96.0
4499,F2,355.5,0.125,127,96.0
4500,F#2,355.5,0.25,127,96.0
4501,F#3,355.5,0.25,127,96.0
4502,B2,355.5,0.25,127,96.0
4503,C2,355.5,0.25,127,96.0
4504,E-4,355.5,0.25,127,96.0
4505,F2,355.75,177/1000,127,96.0
4506,E-4,355.75,0.25,127,96.0
4507,B2,355.75,0.25,127,96.0
4508,B-1,356.0,3.594,127,96.0
4509,B-3,356.0,2.781,1,96.0
4510,E-4,356.0,1/200,127,96.0
4511,F3,356.0,1/200,86,96.0
4512,B-2,356.0,1/200,86,96.0
4513,D5,356.0,4.0,85,96.0
4514,D4,356.0,4.0,85,96.0
4515,B-5,356.0,4.0,85,96.0
4516,D4,356.0,1/200,1,96.0
4517,F4,356.0,1/200,1,96.0
4518,C2,356.0,0.25,127,96.0
4519,F#2,356.0,0.25,127,96.0
4520,F#3,356.0,0.25,127,96.0
4521,B-2,356.135,823/250,127,96.0
4522,D3,356.135,3.312,127,96.0
4523,F4,356.219,99/250,127,96.0
4524,F#2,356.5,0.25,127,96.0
4525,E-4,356.5,0.25,127,96.0
4526,E-4,356.75,0.25,127,96.0
4527,B-4,356.812,0.438,127,96.0
4528,E-2,357.0,0.25,127,96.0
4529,E-4,357.0,0.25,127,96.0
4530,C#2,357.0,0.25,127,96.0
4531,D2,357.0,0.25,127,96.0
4532,F#2,357.0,0.25,127,96.0
4533,D5,357.427,229/500,127,96.0
4534,C2,357.5,0.25,127,96.0
4535,F#2,357.5,0.25,127,96.0
4536,F#3,357.5,0.25,127,96.0
4537,E-4,357.5,0.25,127,96.0
4538,E-4,357.75,0.25,127,96.0
4539,F#2,358.0,0.25,127,96.0
4540,E-4,358.0,0.25,127,96.0
4541,F#3,358.0,0.25,127,96.0
4542,C2,358.0,0.25,127,96.0
4543,F5,358.115,2021/1000,127,96.0
4544,E-4,358.5,0.25,127,96.0
4545,F#2,358.5,0.25,127,96.0
4546,E-4,358.75,0.25,127,96.0
4547,B-3,358.979,1021/1000,1,96.0
4548,E-2,359.0,0.25,127,96.0
4549,C#2,359.0,0.25,127,96.0
4550,D2,359.0,0.25,127,96.0
4551,F#2,359.0,0.25,127,96.0
4552,E-4,359.0,0.25,127,96.0
4553,F#3,359.0,0.25,127,96.0
4554,C4,359.24,19/25,1,96.0
4555,D4,359.49,51/100,1,96.0
4556,C2,359.5,0.25,127,96.0
4557,E-4,359.5,0.25,127,96.0
4558,F#2,359.5,0.25,127,96.0
4559,F#3,359.5,0.25,127,96.0
4560,F2,359.521,479/1000,127,96.0
4561,F4,359.708,73/250,1,96.0
4562,E-4,359.75,0.25,127,96.0
4563,F2,360.0,21/500,127,96.0
4564,B-3,360.0,1901/500,1,96.0
4565,C4,360.0,474/125,1,96.0
4566,D4,360.0,3.75,1,96.0
4567,F4,360.0,3.781,1,96.0
4568,E-4,360.0,1/200,127,96.0
4569,D2,360.0,0.25,127,96.0
4570,C2,360.0,0.25,127,96.0
4571,F#2,360.0,0.25,127,96.0
4572,C#3,360.0,0.25,127,96.0
4573,B-4,360.031,187/50,1,96.0
4574,B-1,360.042,3.562,127,96.0
4575,F5,360.135,2.469,127,96.0
4576,B-5,360.167,3.969,127,96.0
4577,D3,362.5,0.25,127,96.0
4578,C2,362.5,0.25,127,96.0
4579,B2,362.75,0.25,127,96.0
4580,F2,363.0,0.25,127,96.0
4581,C2,363.0,0.25,127,96.0
4582,D5,363.625,3.625,85,96.0
4583,D4,363.625,3.625,85,96.0
4584,B-5,363.625,3.625,85,96.0
4585,B-5,364.135,21/1000,127,96.0
