,note_name,start_time,duration,velocity,tempo
0,C4,0.0,1.0,95,140.0
1,F3,0.0,1.0,95,140.0
2,C4,1.0,0.5,95,140.0
3,F3,1.0,0.5,95,140.0
4,C4,1.5,0.5,95,140.0
5,F3,1.5,0.5,95,140.0
6,C4,2.5,0.5,95,140.0
7,F3,2.5,0.5,95,140.0
8,G4,3.5,0.5,95,140.0
9,E4,3.5,0.5,95,140.0
10,C4,3.5,0.5,95,140.0
11,C4,4.0,1.0,95,140.0
12,F3,4.0,1.0,95,140.0
13,B-3,8.0,1.0,95,140.0
14,E-3,8.0,1.0,95,140.0
15,B-3,9.0,0.5,95,140.0
16,E-3,9.0,0.5,95,140.0
17,B-3,9.5,0.5,95,140.0
18,E-3,9.5,0.5,95,140.0
19,F4,10.5,0.5,95,140.0
20,D4,10.5,0.5,95,140.0
21,B-3,10.5,0.5,95,140.0
22,F3,11.5,0.5,95,140.0
23,B-2,11.5,0.5,95,140.0
24,G3,12.0,1.0,95,140.0
25,C3,12.0,1.0,95,140.0
26,C4,16.0,1.0,95,140.0
27,F3,16.0,1.0,95,140.0
28,C4,17.0,0.5,95,140.0
29,F3,17.0,0.5,95,140.0
30,C4,17.5,0.5,95,140.0
31,F3,17.5,0.5,95,140.0
32,D2,17.5,0.5,95,140.0
33,D2,17.5,0.5,95,140.0
34,C4,18.5,0.5,95,140.0
35,F3,18.5,0.5,95,140.0
36,G4,19.5,0.5,95,140.0
37,E4,19.5,0.5,95,140.0
38,C4,19.5,0.5,95,140.0
39,D2,19.5,0.5,95,140.0
40,D2,19.5,0.5,95,140.0
41,C4,20.0,1.0,95,140.0
42,F3,20.0,1.0,95,140.0
43,D2,21.5,0.5,95,140.0
44,D2,21.5,0.5,95,140.0
45,D2,23.5,0.5,95,140.0
46,D2,23.5,0.5,95,140.0
47,B-3,24.0,1.0,95,140.0
48,E-3,24.0,1.0,95,140.0
49,B-3,25.0,0.5,95,140.0
50,E-3,25.0,0.5,95,140.0
51,B-3,25.5,0.5,95,140.0
52,E-3,25.5,0.5,95,140.0
53,D2,25.5,0.5,95,140.0
54,D2,25.5,0.5,95,140.0
55,F4,26.5,0.5,95,140.0
56,D4,26.5,0.5,95,140.0
57,B-3,26.5,0.5,95,140.0
58,B-1,27.5,0.5,95,140.0
59,F3,27.5,0.5,95,140.0
60,B-2,27.5,0.5,95,140.0
61,D2,27.5,0.5,95,140.0
62,D2,27.5,0.5,95,140.0
63,C2,28.0,1.0,95,140.0
64,G3,28.0,1.0,95,140.0
65,C3,28.0,1.0,95,140.0
66,D2,29.5,0.5,95,140.0
67,D2,29.5,0.5,95,140.0
68,D2,31.5,0.5,95,140.0
69,D2,31.5,0.5,95,140.0
70,F1,32.0,1.0,95,140.0
71,C4,32.0,1.0,95,140.0
72,F3,32.0,1.0,95,140.0
73,C4,32.0,1.0,95,140.0
74,F3,32.0,1.0,95,140.0
75,F1,33.0,0.5,95,140.0
76,C4,33.0,0.5,95,140.0
77,F3,33.0,0.5,95,140.0
78,C4,33.0,0.5,95,140.0
79,F3,33.0,0.5,95,140.0
80,F1,33.5,0.5,95,140.0
81,C4,33.5,0.5,95,140.0
82,F3,33.5,0.5,95,140.0
83,C4,33.5,0.5,95,140.0
84,F3,33.5,0.5,95,140.0
85,D2,33.5,0.5,95,140.0
86,D2,33.5,0.5,95,140.0
87,F1,34.5,0.5,95,140.0
88,C4,34.5,0.5,95,140.0
89,F3,34.5,0.5,95,140.0
90,C4,34.5,0.5,95,140.0
91,F3,34.5,0.5,95,140.0
92,C2,35.5,0.5,95,140.0
93,G4,35.5,0.5,95,140.0
94,E4,35.5,0.5,95,140.0
95,C4,35.5,0.5,95,140.0
96,G4,35.5,0.5,95,140.0
97,E4,35.5,0.5,95,140.0
98,C4,35.5,0.5,95,140.0
99,D2,35.5,0.5,95,140.0
100,D2,35.5,0.5,95,140.0
101,F1,36.0,1.0,95,140.0
102,C4,36.0,1.0,95,140.0
103,F3,36.0,1.0,95,140.0
104,C4,36.0,1.0,95,140.0
105,F3,36.0,1.0,95,140.0
106,D2,37.5,0.5,95,140.0
107,D2,37.5,0.5,95,140.0
108,D2,39.5,0.5,95,140.0
109,D2,39.5,0.5,95,140.0
110,E-2,40.0,1.0,95,140.0
111,B-3,40.0,1.0,95,140.0
112,E-3,40.0,1.0,95,140.0
113,B-3,40.0,1.0,95,140.0
114,E-3,40.0,1.0,95,140.0
115,E-2,41.0,0.5,95,140.0
116,B-3,41.0,0.5,95,140.0
117,E-3,41.0,0.5,95,140.0
118,B-3,41.0,0.5,95,140.0
119,E-3,41.0,0.5,95,140.0
120,E-2,41.5,0.5,95,140.0
121,B-3,41.5,0.5,95,140.0
122,E-3,41.5,0.5,95,140.0
123,B-3,41.5,0.5,95,140.0
124,E-3,41.5,0.5,95,140.0
125,D2,41.5,0.5,95,140.0
126,D2,41.5,0.5,95,140.0
127,E-2,42.5,0.5,95,140.0
128,F4,42.5,0.5,95,140.0
129,D4,42.5,0.5,95,140.0
130,B-3,42.5,0.5,95,140.0
131,F4,42.5,0.5,95,140.0
132,D4,42.5,0.5,95,140.0
133,B-3,42.5,0.5,95,140.0
134,B-1,43.5,0.5,95,140.0
135,F3,43.5,0.5,95,140.0
136,B-2,43.5,0.5,95,140.0
137,F3,43.5,0.5,95,140.0
138,B-2,43.5,0.5,95,140.0
139,D2,43.5,0.5,95,140.0
140,D2,43.5,0.5,95,140.0
141,C2,44.0,1.0,95,140.0
142,G3,44.0,1.0,95,140.0
143,C3,44.0,1.0,95,140.0
144,G3,44.0,1.0,95,140.0
145,C3,44.0,1.0,95,140.0
146,D2,45.5,0.5,95,140.0
147,D2,45.5,0.5,95,140.0
148,D2,47.5,0.5,95,140.0
149,D2,47.5,0.5,95,140.0
150,F1,48.0,1.0,95,140.0
151,C4,48.0,1.0,95,140.0
152,F3,48.0,1.0,95,140.0
153,C4,48.0,1.0,95,140.0
154,F3,48.0,1.0,95,140.0
155,F1,49.0,0.5,95,140.0
156,C4,49.0,0.5,95,140.0
157,F3,49.0,0.5,95,140.0
158,C4,49.0,0.5,95,140.0
159,F3,49.0,0.5,95,140.0
160,F1,49.5,0.5,95,140.0
161,C4,49.5,0.5,95,140.0
162,F3,49.5,0.5,95,140.0
163,C4,49.5,0.5,95,140.0
164,F3,49.5,0.5,95,140.0
165,D2,49.5,0.5,95,140.0
166,D2,49.5,0.5,95,140.0
167,F1,50.5,0.5,95,140.0
168,C4,50.5,0.5,95,140.0
169,F3,50.5,0.5,95,140.0
170,C4,50.5,0.5,95,140.0
171,F3,50.5,0.5,95,140.0
172,C2,51.5,0.5,95,140.0
173,G4,51.5,0.5,95,140.0
174,E4,51.5,0.5,95,140.0
175,C4,51.5,0.5,95,140.0
176,G4,51.5,0.5,95,140.0
177,E4,51.5,0.5,95,140.0
178,C4,51.5,0.5,95,140.0
179,D2,51.5,0.5,95,140.0
180,D2,51.5,0.5,95,140.0
181,F1,52.0,1.0,95,140.0
182,C4,52.0,1.0,95,140.0
183,F3,52.0,1.0,95,140.0
184,C4,52.0,1.0,95,140.0
185,F3,52.0,1.0,95,140.0
186,D2,53.5,0.5,95,140.0
187,D2,53.5,0.5,95,140.0
188,D2,55.5,0.5,95,140.0
189,D2,55.5,0.5,95,140.0
190,E-2,56.0,1.0,95,140.0
191,B-3,56.0,1.0,95,140.0
192,E-3,56.0,1.0,95,140.0
193,B-3,56.0,1.0,95,140.0
194,E-3,56.0,1.0,95,140.0
195,E-2,57.0,0.5,95,140.0
196,B-3,57.0,0.5,95,140.0
197,E-3,57.0,0.5,95,140.0
198,B-3,57.0,0.5,95,140.0
199,E-3,57.0,0.5,95,140.0
200,E-2,57.5,0.5,95,140.0
201,B-3,57.5,0.5,95,140.0
202,E-3,57.5,0.5,95,140.0
203,B-3,57.5,0.5,95,140.0
204,E-3,57.5,0.5,95,140.0
205,D2,57.5,0.5,95,140.0
206,D2,57.5,0.5,95,140.0
207,E-2,58.5,0.5,95,140.0
208,F4,58.5,0.5,95,140.0
209,D4,58.5,0.5,95,140.0
210,B-3,58.5,0.5,95,140.0
211,F4,58.5,0.5,95,140.0
212,D4,58.5,0.5,95,140.0
213,B-3,58.5,0.5,95,140.0
214,B-1,59.5,0.5,95,140.0
215,F3,59.5,0.5,95,140.0
216,B-2,59.5,0.5,95,140.0
217,F3,59.5,0.5,95,140.0
218,B-2,59.5,0.5,95,140.0
219,D2,59.5,0.5,95,140.0
220,D2,59.5,0.5,95,140.0
221,C2,60.0,1.0,95,140.0
222,G3,60.0,1.0,95,140.0
223,C3,60.0,1.0,95,140.0
224,G3,60.0,1.0,95,140.0
225,C3,60.0,1.0,95,140.0
226,D2,60.5,0.5,95,140.0
227,C2,60.5,0.5,95,140.0
228,B-2,60.5,0.5,95,140.0
229,D2,61.0,0.5,95,140.0
230,C2,61.0,0.5,95,140.0
231,B-2,61.0,0.5,95,140.0
232,D2,61.5,0.5,95,140.0
233,C2,61.5,0.5,95,140.0
234,B-2,61.5,0.5,95,140.0
235,D2,62.0,0.5,95,140.0
236,C2,62.0,0.5,95,140.0
237,B-2,62.0,0.5,95,140.0
238,D2,62.5,0.5,95,140.0
239,C2,62.5,0.5,95,140.0
240,B-2,62.5,0.5,95,140.0
241,D2,63.0,0.5,95,140.0
242,C2,63.0,0.5,95,140.0
243,B-2,63.0,0.5,95,140.0
244,D2,63.5,0.5,95,140.0
245,C2,63.5,0.5,95,140.0
246,B-2,63.5,0.5,95,140.0
247,F1,64.0,1.0,95,140.0
248,C4,64.0,1.0,95,140.0
249,F3,64.0,1.0,95,140.0
250,B-2,64.0,0.5,95,140.0
251,C2,64.0,0.5,95,140.0
252,C#3,64.0,0.5,95,140.0
253,B-2,64.5,0.5,95,140.0
254,F1,65.0,0.5,95,140.0
255,B-2,65.0,0.5,95,140.0
256,C4,65.0,0.5,95,140.0
257,F3,65.0,0.5,95,140.0
258,F1,65.5,0.5,95,140.0
259,C4,65.5,0.5,95,140.0
260,F3,65.5,0.5,95,140.0
261,B-2,65.5,0.5,95,140.0
262,D2,65.5,0.5,95,140.0
263,B-2,66.0,0.5,95,140.0
264,E1,66.5,73/1000,95,140.0
265,G3,66.5,73/1000,95,140.0
266,D3,66.5,73/1000,95,140.0
267,A2,66.5,73/1000,95,140.0
268,B-2,66.5,0.5,95,140.0
269,C2,66.5,0.5,95,140.0
270,F1,67.0,0.5,95,140.0
271,B-2,67.0,0.5,95,140.0
272,C4,67.0,0.5,95,140.0
273,F3,67.0,0.5,95,140.0
274,B-2,67.5,0.5,95,140.0
275,D2,67.5,0.5,95,140.0
276,F1,68.0,1.0,95,140.0
277,B-2,68.0,0.5,95,140.0
278,C4,68.0,1.0,95,140.0
279,F3,68.0,1.0,95,140.0
280,B-2,68.5,0.5,95,140.0
281,C2,68.5,0.5,95,140.0
282,F1,69.0,0.5,95,140.0
283,B-2,69.0,0.5,95,140.0
284,C4,69.0,0.5,95,140.0
285,F3,69.0,0.5,95,140.0
286,F1,69.5,0.5,95,140.0
287,C4,69.5,0.5,95,140.0
288,F3,69.5,0.5,95,140.0
289,B-2,69.5,0.5,95,140.0
290,D2,69.5,0.5,95,140.0
291,B-2,70.0,0.5,95,140.0
292,E1,70.5,73/1000,95,140.0
293,G3,70.5,73/1000,95,140.0
294,D3,70.5,73/1000,95,140.0
295,A2,70.5,73/1000,95,140.0
296,B-2,70.5,0.5,95,140.0
297,C2,70.5,0.5,95,140.0
298,F1,71.0,0.5,95,140.0
299,B-2,71.0,0.5,95,140.0
300,C4,71.0,0.5,95,140.0
301,F3,71.0,0.5,95,140.0
302,B-2,71.5,0.5,95,140.0
303,D2,71.5,0.5,95,140.0
304,F1,72.0,1.0,95,140.0
305,B-2,72.0,0.5,95,140.0
306,C4,72.0,1.0,95,140.0
307,F3,72.0,1.0,95,140.0
308,B-2,72.5,0.5,95,140.0
309,C2,72.5,0.5,95,140.0
310,F1,73.0,0.5,95,140.0
311,B-2,73.0,0.5,95,140.0
312,C4,73.0,0.5,95,140.0
313,F3,73.0,0.5,95,140.0
314,F1,73.5,0.5,95,140.0
315,C4,73.5,0.5,95,140.0
316,F3,73.5,0.5,95,140.0
317,B-2,73.5,0.5,95,140.0
318,D2,73.5,0.5,95,140.0
319,B-2,74.0,0.5,95,140.0
320,E1,74.5,73/1000,95,140.0
321,G3,74.5,73/1000,95,140.0
322,D3,74.5,73/1000,95,140.0
323,A2,74.5,73/1000,95,140.0
324,B-2,74.5,0.5,95,140.0
325,C2,74.5,0.5,95,140.0
326,F1,75.0,0.5,95,140.0
327,B-2,75.0,0.5,95,140.0
328,C4,75.0,0.5,95,140.0
329,F3,75.0,0.5,95,140.0
330,B-2,75.5,0.5,95,140.0
331,D2,75.5,0.5,95,140.0
332,F1,76.0,1.0,95,140.0
333,B-2,76.0,0.5,95,140.0
334,C4,76.0,1.0,95,140.0
335,F3,76.0,1.0,95,140.0
336,B-2,76.5,0.5,95,140.0
337,C2,76.5,0.5,95,140.0
338,F1,77.0,0.5,95,140.0
339,B-2,77.0,0.5,95,140.0
340,C4,77.0,0.5,95,140.0
341,F3,77.0,0.5,95,140.0
342,F1,77.5,0.5,95,140.0
343,C4,77.5,0.5,95,140.0
344,F3,77.5,0.5,95,140.0
345,B-2,77.5,0.5,95,140.0
346,D2,77.5,0.5,95,140.0
347,B-2,78.0,0.5,95,140.0
348,E1,78.5,73/1000,95,140.0
349,G3,78.5,73/1000,95,140.0
350,D3,78.5,73/1000,95,140.0
351,A2,78.5,73/1000,95,140.0
352,B-2,78.5,0.5,95,140.0
353,C2,78.5,0.5,95,140.0
354,F1,79.0,0.5,95,140.0
355,B-2,79.0,0.5,95,140.0
356,C4,79.0,0.5,95,140.0
357,F3,79.0,0.5,95,140.0
358,B-2,79.5,0.5,95,140.0
359,D2,79.5,0.5,95,140.0
360,E-2,80.0,1.0,95,140.0
361,B-3,80.0,1.0,95,140.0
362,E-3,80.0,1.0,95,140.0
363,B-2,80.0,0.5,95,140.0
364,C#3,80.0,0.5,95,140.0
365,B-2,80.5,0.5,95,140.0
366,C2,80.5,0.5,95,140.0
367,E-2,81.0,0.5,95,140.0
368,B-2,81.0,0.5,95,140.0
369,B-3,81.0,0.5,95,140.0
370,E-3,81.0,0.5,95,140.0
371,E-2,81.5,0.5,95,140.0
372,B-3,81.5,0.5,95,140.0
373,E-3,81.5,0.5,95,140.0
374,B-2,81.5,0.5,95,140.0
375,D2,81.5,0.5,95,140.0
376,B-2,82.0,0.5,95,140.0
377,E1,82.5,73/1000,95,140.0
378,G3,82.5,73/1000,95,140.0
379,D3,82.5,73/1000,95,140.0
380,A2,82.5,73/1000,95,140.0
381,B-2,82.5,0.5,95,140.0
382,C2,82.5,0.5,95,140.0
383,E-2,83.0,0.5,95,140.0
384,B-2,83.0,0.5,95,140.0
385,B-3,83.0,0.5,95,140.0
386,E-3,83.0,0.5,95,140.0
387,B-2,83.5,0.5,95,140.0
388,D2,83.5,0.5,95,140.0
389,E-2,84.0,1.0,95,140.0
390,B-2,84.0,0.5,95,140.0
391,B-3,84.0,1.0,95,140.0
392,E-3,84.0,1.0,95,140.0
393,B-2,84.5,0.5,95,140.0
394,C2,84.5,0.5,95,140.0
395,E-2,85.0,0.5,95,140.0
396,B-2,85.0,0.5,95,140.0
397,B-3,85.0,0.5,95,140.0
398,E-3,85.0,0.5,95,140.0
399,E-2,85.5,0.5,95,140.0
400,B-3,85.5,0.5,95,140.0
401,E-3,85.5,0.5,95,140.0
402,B-2,85.5,0.5,95,140.0
403,D2,85.5,0.5,95,140.0
404,B-2,86.0,0.5,95,140.0
405,E1,86.5,73/1000,95,140.0
406,G3,86.5,73/1000,95,140.0
407,D3,86.5,73/1000,95,140.0
408,A2,86.5,73/1000,95,140.0
409,B-2,86.5,0.5,95,140.0
410,C2,86.5,0.5,95,140.0
411,E-2,87.0,0.5,95,140.0
412,B-2,87.0,0.5,95,140.0
413,B-3,87.0,0.5,95,140.0
414,E-3,87.0,0.5,95,140.0
415,B-2,87.5,0.5,95,140.0
416,D2,87.5,0.5,95,140.0
417,F1,88.0,1.0,95,140.0
418,C4,88.0,1.0,95,140.0
419,F3,88.0,1.0,95,140.0
420,B-2,88.0,0.5,95,140.0
421,C#3,88.0,0.5,95,140.0
422,B-2,88.5,0.5,95,140.0
423,C2,88.5,0.5,95,140.0
424,F1,89.0,0.5,95,140.0
425,B-2,89.0,0.5,95,140.0
426,C4,89.0,0.5,95,140.0
427,F3,89.0,0.5,95,140.0
428,F1,89.5,0.5,95,140.0
429,C4,89.5,0.5,95,140.0
430,F3,89.5,0.5,95,140.0
431,B-2,89.5,0.5,95,140.0
432,D2,89.5,0.5,95,140.0
433,B-2,90.0,0.5,95,140.0
434,E1,90.5,73/1000,95,140.0
435,G3,90.5,73/1000,95,140.0
436,D3,90.5,73/1000,95,140.0
437,A2,90.5,73/1000,95,140.0
438,B-2,90.5,0.5,95,140.0
439,C2,90.5,0.5,95,140.0
440,F1,91.0,0.5,95,140.0
441,B-2,91.0,0.5,95,140.0
442,C4,91.0,0.5,95,140.0
443,F3,91.0,0.5,95,140.0
444,B-2,91.5,0.5,95,140.0
445,D2,91.5,0.5,95,140.0
446,F1,92.0,1.0,95,140.0
447,B-2,92.0,0.5,95,140.0
448,C4,92.0,1.0,95,140.0
449,F3,92.0,1.0,95,140.0
450,B-2,92.5,0.5,95,140.0
451,C2,92.5,0.5,95,140.0
452,F2,93.0,0.5,95,140.0
453,B-2,93.0,0.5,95,140.0
454,C4,93.0,0.5,95,140.0
455,F3,93.0,0.5,95,140.0
456,E-2,93.5,0.5,95,140.0
457,C4,93.5,0.5,95,140.0
458,F3,93.5,0.5,95,140.0
459,B-2,93.5,0.5,95,140.0
460,D2,93.5,0.5,95,140.0
461,C2,94.0,0.5,95,140.0
462,B-2,94.0,0.5,95,140.0
463,B-1,94.5,0.5,95,140.0
464,G3,94.5,73/1000,95,140.0
465,D3,94.5,73/1000,95,140.0
466,A2,94.5,73/1000,95,140.0
467,B-2,94.5,0.5,95,140.0
468,C2,94.5,0.5,95,140.0
469,G#1,95.0,0.5,95,140.0
470,B-2,95.0,0.5,95,140.0
471,C4,95.0,0.5,95,140.0
472,F3,95.0,0.5,95,140.0
473,F1,95.5,0.5,95,140.0
474,B-2,95.5,0.5,95,140.0
475,D2,95.5,0.5,95,140.0
476,F1,96.0,1.0,95,140.0
477,C4,96.0,1.0,95,140.0
478,F3,96.0,1.0,95,140.0
479,B-2,96.0,0.5,95,140.0
480,C2,96.0,0.5,95,140.0
481,C#3,96.0,0.5,95,140.0
482,B-2,96.5,0.5,95,140.0
483,F1,97.0,0.5,95,140.0
484,B-2,97.0,0.5,95,140.0
485,C4,97.0,0.5,95,140.0
486,F3,97.0,0.5,95,140.0
487,F1,97.5,0.5,95,140.0
488,C4,97.5,0.5,95,140.0
489,F3,97.5,0.5,95,140.0
490,B-2,97.5,0.5,95,140.0
491,D2,97.5,0.5,95,140.0
492,B-2,98.0,0.5,95,140.0
493,E1,98.5,73/1000,95,140.0
494,G3,98.5,73/1000,95,140.0
495,D3,98.5,73/1000,95,140.0
496,A2,98.5,73/1000,95,140.0
497,B-2,98.5,0.5,95,140.0
498,C2,98.5,0.5,95,140.0
499,F1,99.0,0.5,95,140.0
500,B-2,99.0,0.5,95,140.0
501,C4,99.0,0.5,95,140.0
502,F3,99.0,0.5,95,140.0
503,B-2,99.5,0.5,95,140.0
504,D2,99.5,0.5,95,140.0
505,F1,100.0,1.0,95,140.0
506,B-2,100.0,0.5,95,140.0
507,C4,100.0,1.0,95,140.0
508,F3,100.0,1.0,95,140.0
509,B-2,100.5,0.5,95,140.0
510,C2,100.5,0.5,95,140.0
511,F1,101.0,0.5,95,140.0
512,B-2,101.0,0.5,95,140.0
513,C4,101.0,0.5,95,140.0
514,F3,101.0,0.5,95,140.0
515,F1,101.5,0.5,95,140.0
516,C4,101.5,0.5,95,140.0
517,F3,101.5,0.5,95,140.0
518,B-2,101.5,0.5,95,140.0
519,D2,101.5,0.5,95,140.0
520,B-2,102.0,0.5,95,140.0
521,E1,102.5,73/1000,95,140.0
522,G3,102.5,73/1000,95,140.0
523,D3,102.5,73/1000,95,140.0
524,A2,102.5,73/1000,95,140.0
525,B-2,102.5,0.5,95,140.0
526,C2,102.5,0.5,95,140.0
527,F1,103.0,0.5,95,140.0
528,B-2,103.0,0.5,95,140.0
529,C4,103.0,0.5,95,140.0
530,F3,103.0,0.5,95,140.0
531,B-2,103.5,0.5,95,140.0
532,D2,103.5,0.5,95,140.0
533,F1,104.0,1.0,95,140.0
534,B-2,104.0,0.5,95,140.0
535,C4,104.0,1.0,95,140.0
536,F3,104.0,1.0,95,140.0
537,B-2,104.5,0.5,95,140.0
538,C2,104.5,0.5,95,140.0
539,F1,105.0,0.5,95,140.0
540,B-2,105.0,0.5,95,140.0
541,C4,105.0,0.5,95,140.0
542,F3,105.0,0.5,95,140.0
543,F1,105.5,0.5,95,140.0
544,C4,105.5,0.5,95,140.0
545,F3,105.5,0.5,95,140.0
546,B-2,105.5,0.5,95,140.0
547,D2,105.5,0.5,95,140.0
548,B-2,106.0,0.5,95,140.0
549,E1,106.5,73/1000,95,140.0
550,G3,106.5,73/1000,95,140.0
551,D3,106.5,73/1000,95,140.0
552,A2,106.5,73/1000,95,140.0
553,B-2,106.5,0.5,95,140.0
554,C2,106.5,0.5,95,140.0
555,F1,107.0,0.5,95,140.0
556,B-2,107.0,0.5,95,140.0
557,C4,107.0,0.5,95,140.0
558,F3,107.0,0.5,95,140.0
559,B-2,107.5,0.5,95,140.0
560,D2,107.5,0.5,95,140.0
561,F1,108.0,1.0,95,140.0
562,B-2,108.0,0.5,95,140.0
563,C4,108.0,1.0,95,140.0
564,F3,108.0,1.0,95,140.0
565,B-2,108.5,0.5,95,140.0
566,C2,108.5,0.5,95,140.0
567,F1,109.0,0.5,95,140.0
568,B-2,109.0,0.5,95,140.0
569,C4,109.0,0.5,95,140.0
570,F3,109.0,0.5,95,140.0
571,F1,109.5,0.5,95,140.0
572,C4,109.5,0.5,95,140.0
573,F3,109.5,0.5,95,140.0
574,B-2,109.5,0.5,95,140.0
575,D2,109.5,0.5,95,140.0
576,B-2,110.0,0.5,95,140.0
577,E1,110.5,73/1000,95,140.0
578,G3,110.5,73/1000,95,140.0
579,D3,110.5,73/1000,95,140.0
580,A2,110.5,73/1000,95,140.0
581,B-2,110.5,0.5,95,140.0
582,C2,110.5,0.5,95,140.0
583,F1,111.0,0.5,95,140.0
584,B-2,111.0,0.5,95,140.0
585,C4,111.0,0.5,95,140.0
586,F3,111.0,0.5,95,140.0
587,B-2,111.5,0.5,95,140.0
588,D2,111.5,0.5,95,140.0
589,E-2,112.0,1.0,95,140.0
590,B-3,112.0,1.0,95,140.0
591,E-3,112.0,1.0,95,140.0
592,B-2,112.0,0.5,95,140.0
593,C#3,112.0,0.5,95,140.0
594,B-2,112.5,0.5,95,140.0
595,C2,112.5,0.5,95,140.0
596,E-2,113.0,0.5,95,140.0
597,B-2,113.0,0.5,95,140.0
598,B-3,113.0,0.5,95,140.0
599,E-3,113.0,0.5,95,140.0
600,E-2,113.5,0.5,95,140.0
601,B-3,113.5,0.5,95,140.0
602,E-3,113.5,0.5,95,140.0
603,B-2,113.5,0.5,95,140.0
604,D2,113.5,0.5,95,140.0
605,B-2,114.0,0.5,95,140.0
606,E1,114.5,73/1000,95,140.0
607,G3,114.5,73/1000,95,140.0
608,D3,114.5,73/1000,95,140.0
609,A2,114.5,73/1000,95,140.0
610,B-2,114.5,0.5,95,140.0
611,C2,114.5,0.5,95,140.0
612,E-2,115.0,0.5,95,140.0
613,B-2,115.0,0.5,95,140.0
614,B-3,115.0,0.5,95,140.0
615,E-3,115.0,0.5,95,140.0
616,B-2,115.5,0.5,95,140.0
617,D2,115.5,0.5,95,140.0
618,E-2,116.0,1.0,95,140.0
619,B-2,116.0,0.5,95,140.0
620,B-3,116.0,1.0,95,140.0
621,E-3,116.0,1.0,95,140.0
622,B-2,116.5,0.5,95,140.0
623,C2,116.5,0.5,95,140.0
624,E-2,117.0,0.5,95,140.0
625,B-2,117.0,0.5,95,140.0
626,B-3,117.0,0.5,95,140.0
627,E-3,117.0,0.5,95,140.0
628,E-2,117.5,0.5,95,140.0
629,B-3,117.5,0.5,95,140.0
630,E-3,117.5,0.5,95,140.0
631,B-2,117.5,0.5,95,140.0
632,D2,117.5,0.5,95,140.0
633,B-2,118.0,0.5,95,140.0
634,E1,118.5,73/1000,95,140.0
635,G3,118.5,73/1000,95,140.0
636,D3,118.5,73/1000,95,140.0
637,A2,118.5,73/1000,95,140.0
638,B-2,118.5,0.5,95,140.0
639,C2,118.5,0.5,95,140.0
640,E-2,119.0,0.5,95,140.0
641,B-2,119.0,0.5,95,140.0
642,B-3,119.0,0.5,95,140.0
643,E-3,119.0,0.5,95,140.0
644,B-2,119.5,0.5,95,140.0
645,D2,119.5,0.5,95,140.0
646,F1,120.0,1.0,95,140.0
647,C4,120.0,1.0,95,140.0
648,F3,120.0,1.0,95,140.0
649,B-2,120.0,0.5,95,140.0
650,C#3,120.0,0.5,95,140.0
651,B-2,120.5,0.5,95,140.0
652,C2,120.5,0.5,95,140.0
653,F1,121.0,0.5,95,140.0
654,B-2,121.0,0.5,95,140.0
655,C4,121.0,0.5,95,140.0
656,F3,121.0,0.5,95,140.0
657,F1,121.5,0.5,95,140.0
658,C4,121.5,0.5,95,140.0
659,F3,121.5,0.5,95,140.0
660,B-2,121.5,0.5,95,140.0
661,D2,121.5,0.5,95,140.0
662,B-2,122.0,0.5,95,140.0
663,E1,122.5,73/1000,95,140.0
664,G3,122.5,73/1000,95,140.0
665,D3,122.5,73/1000,95,140.0
666,A2,122.5,73/1000,95,140.0
667,B-2,122.5,0.5,95,140.0
668,C2,122.5,0.5,95,140.0
669,F1,123.0,0.5,95,140.0
670,B-2,123.0,0.5,95,140.0
671,C4,123.0,0.5,95,140.0
672,F3,123.0,0.5,95,140.0
673,B-2,123.5,0.5,95,140.0
674,D2,123.5,0.5,95,140.0
675,F1,124.0,1.0,95,140.0
676,B-2,124.0,0.5,95,140.0
677,C4,124.0,1.0,95,140.0
678,F3,124.0,1.0,95,140.0
679,B-2,124.5,0.5,95,140.0
680,C2,124.5,0.5,95,140.0
681,F2,125.0,0.5,95,140.0
682,B-2,125.0,0.5,95,140.0
683,C4,125.0,0.5,95,140.0
684,F3,125.0,0.5,95,140.0
685,E-2,125.5,0.5,95,140.0
686,C4,125.5,0.5,95,140.0
687,F3,125.5,0.5,95,140.0
688,B-2,125.5,0.5,95,140.0
689,D2,125.5,0.5,95,140.0
690,C2,126.0,0.5,95,140.0
691,B-2,126.0,0.5,95,140.0
692,B-1,126.5,0.5,95,140.0
693,G3,126.5,73/1000,95,140.0
694,D3,126.5,73/1000,95,140.0
695,A2,126.5,73/1000,95,140.0
696,B-2,126.5,0.5,95,140.0
697,C2,126.5,0.5,95,140.0
698,G#1,127.0,0.5,95,140.0
699,B-2,127.0,0.5,95,140.0
700,C4,127.0,0.5,95,140.0
701,F3,127.0,0.5,95,140.0
702,F1,127.5,0.5,95,140.0
703,B-2,127.5,0.5,95,140.0
704,D2,127.5,0.5,95,140.0
705,C2,128.0,1.0,95,140.0
706,G3,128.0,1.0,95,140.0
707,C3,128.0,1.0,95,140.0
708,G3,128.0,1.0,95,140.0
709,C3,128.0,1.0,95,140.0
710,B-2,128.0,0.5,95,140.0
711,C#3,128.0,0.5,95,140.0
712,B-2,128.5,0.5,95,140.0
713,C2,128.5,0.5,95,140.0
714,C2,129.0,0.5,95,140.0
715,B-2,129.0,0.5,95,140.0
716,G3,129.0,0.5,95,140.0
717,C3,129.0,0.5,95,140.0
718,G3,129.0,0.5,95,140.0
719,C3,129.0,0.5,95,140.0
720,C2,129.5,0.5,95,140.0
721,G3,129.5,0.5,95,140.0
722,C3,129.5,0.5,95,140.0
723,G3,129.5,0.5,95,140.0
724,C3,129.5,0.5,95,140.0
725,B-2,129.5,0.5,95,140.0
726,D2,129.5,0.5,95,140.0
727,A1,130.0,73/1000,95,140.0
728,B-2,130.0,0.5,95,140.0
729,G3,130.0,73/1000,95,140.0
730,C3,130.0,73/1000,95,140.0
731,G3,130.0,73/1000,95,140.0
732,C3,130.0,73/1000,95,140.0
733,C2,130.5,0.5,95,140.0
734,G3,130.5,0.5,95,140.0
735,C3,130.5,0.5,95,140.0
736,G3,130.5,0.5,95,140.0
737,C3,130.5,0.5,95,140.0
738,B-2,130.5,0.5,95,140.0
739,C2,130.5,0.5,95,140.0
740,C2,131.0,0.5,95,140.0
741,B-2,131.0,0.5,95,140.0
742,G3,131.0,0.5,95,140.0
743,C3,131.0,0.5,95,140.0
744,G3,131.0,0.5,95,140.0
745,C3,131.0,0.5,95,140.0
746,B-2,131.5,0.5,95,140.0
747,D2,131.5,0.5,95,140.0
748,C2,132.0,1.0,95,140.0
749,G3,132.0,1.0,95,140.0
750,C3,132.0,1.0,95,140.0
751,G3,132.0,1.0,95,140.0
752,C3,132.0,1.0,95,140.0
753,B-2,132.0,0.5,95,140.0
754,C#3,132.0,0.5,95,140.0
755,B-2,132.5,0.5,95,140.0
756,C2,132.5,0.5,95,140.0
757,C2,133.0,0.5,95,140.0
758,B-2,133.0,0.5,95,140.0
759,G3,133.0,0.5,95,140.0
760,C3,133.0,0.5,95,140.0
761,G3,133.0,0.5,95,140.0
762,C3,133.0,0.5,95,140.0
763,C2,133.5,0.5,95,140.0
764,G3,133.5,0.5,95,140.0
765,C3,133.5,0.5,95,140.0
766,G3,133.5,0.5,95,140.0
767,C3,133.5,0.5,95,140.0
768,B-2,133.5,0.5,95,140.0
769,D2,133.5,0.5,95,140.0
770,A1,134.0,73/1000,95,140.0
771,B-2,134.0,0.5,95,140.0
772,G3,134.0,73/1000,95,140.0
773,C3,134.0,73/1000,95,140.0
774,G3,134.0,73/1000,95,140.0
775,C3,134.0,73/1000,95,140.0
776,C2,134.5,0.5,95,140.0
777,G3,134.5,0.5,95,140.0
778,C3,134.5,0.5,95,140.0
779,G3,134.5,0.5,95,140.0
780,C3,134.5,0.5,95,140.0
781,B-2,134.5,0.5,95,140.0
782,C2,134.5,0.5,95,140.0
783,C2,135.0,0.5,95,140.0
784,B-2,135.0,0.5,95,140.0
785,G3,135.0,0.5,95,140.0
786,C3,135.0,0.5,95,140.0
787,G3,135.0,0.5,95,140.0
788,C3,135.0,0.5,95,140.0
789,B-2,135.5,0.5,95,140.0
790,D2,135.5,0.5,95,140.0
791,B-1,136.0,1.0,95,140.0
792,B-2,136.0,0.5,95,140.0
793,F3,136.0,1.0,95,140.0
794,B-2,136.0,1.0,95,140.0
795,F3,136.0,1.0,95,140.0
796,B-2,136.0,1.0,95,140.0
797,B-2,136.5,0.5,95,140.0
798,C2,136.5,0.5,95,140.0
799,B-1,137.0,0.5,95,140.0
800,B-2,137.0,0.5,95,140.0
801,F3,137.0,0.5,95,140.0
802,B-2,137.0,0.5,95,140.0
803,F3,137.0,0.5,95,140.0
804,B-2,137.0,0.5,95,140.0
805,B-1,137.5,0.5,95,140.0
806,F3,137.5,0.5,95,140.0
807,B-2,137.5,0.5,95,140.0
808,F3,137.5,0.5,95,140.0
809,B-2,137.5,0.5,95,140.0
810,B-2,137.5,0.5,95,140.0
811,D2,137.5,0.5,95,140.0
812,A1,138.0,73/1000,95,140.0
813,B-2,138.0,0.5,95,140.0
814,A2,138.0,73/1000,95,140.0
815,E2,138.0,73/1000,95,140.0
816,A2,138.0,73/1000,95,140.0
817,E2,138.0,73/1000,95,140.0
818,B-1,138.5,0.5,95,140.0
819,F3,138.5,0.5,95,140.0
820,B-2,138.5,0.5,95,140.0
821,F3,138.5,0.5,95,140.0
822,B-2,138.5,0.5,95,140.0
823,B-2,138.5,0.5,95,140.0
824,C2,138.5,0.5,95,140.0
825,B-1,139.0,0.5,95,140.0
826,B-2,139.0,0.5,95,140.0
827,F3,139.0,0.5,95,140.0
828,B-2,139.0,0.5,95,140.0
829,F3,139.0,0.5,95,140.0
830,B-2,139.0,0.5,95,140.0
831,B-2,139.5,0.5,95,140.0
832,D2,139.5,0.5,95,140.0
833,B-1,140.0,1.0,95,140.0
834,B-2,140.0,0.5,95,140.0
835,F3,140.0,1.0,95,140.0
836,B-2,140.0,1.0,95,140.0
837,F3,140.0,1.0,95,140.0
838,B-2,140.0,1.0,95,140.0
839,B-2,140.5,0.5,95,140.0
840,C2,140.5,0.5,95,140.0
841,B-1,141.0,0.5,95,140.0
842,B-2,141.0,0.5,95,140.0
843,F3,141.0,0.5,95,140.0
844,B-2,141.0,0.5,95,140.0
845,F3,141.0,0.5,95,140.0
846,B-2,141.0,0.5,95,140.0
847,B-1,141.5,0.5,95,140.0
848,F3,141.5,0.5,95,140.0
849,B-2,141.5,0.5,95,140.0
850,F3,141.5,0.5,95,140.0
851,B-2,141.5,0.5,95,140.0
852,B-2,141.5,0.5,95,140.0
853,D2,141.5,0.5,95,140.0
854,A1,142.0,73/1000,95,140.0
855,B-2,142.0,0.5,95,140.0
856,A2,142.0,73/1000,95,140.0
857,E2,142.0,73/1000,95,140.0
858,A2,142.0,73/1000,95,140.0
859,E2,142.0,73/1000,95,140.0
860,B-1,142.5,0.5,95,140.0
861,F3,142.5,0.5,95,140.0
862,B-2,142.5,0.5,95,140.0
863,F3,142.5,0.5,95,140.0
864,B-2,142.5,0.5,95,140.0
865,B-2,142.5,0.5,95,140.0
866,C2,142.5,0.5,95,140.0
867,B-1,143.0,0.5,95,140.0
868,B-2,143.0,0.5,95,140.0
869,F3,143.0,0.5,95,140.0
870,B-2,143.0,0.5,95,140.0
871,F3,143.0,0.5,95,140.0
872,B-2,143.0,0.5,95,140.0
873,B-2,143.5,0.5,95,140.0
874,D2,143.5,0.5,95,140.0
875,C2,144.0,1.0,95,140.0
876,G3,144.0,1.0,95,140.0
877,C3,144.0,1.0,95,140.0
878,G3,144.0,1.0,95,140.0
879,C3,144.0,1.0,95,140.0
880,B-2,144.0,0.5,95,140.0
881,C#3,144.0,0.5,95,140.0
882,B-2,144.5,0.5,95,140.0
883,C2,144.5,0.5,95,140.0
884,C2,145.0,0.5,95,140.0
885,B-2,145.0,0.5,95,140.0
886,G3,145.0,0.5,95,140.0
887,C3,145.0,0.5,95,140.0
888,G3,145.0,0.5,95,140.0
889,C3,145.0,0.5,95,140.0
890,C2,145.5,0.5,95,140.0
891,G3,145.5,0.5,95,140.0
892,C3,145.5,0.5,95,140.0
893,G3,145.5,0.5,95,140.0
894,C3,145.5,0.5,95,140.0
895,B-2,145.5,0.5,95,140.0
896,D2,145.5,0.5,95,140.0
897,A1,146.0,73/1000,95,140.0
898,B-2,146.0,0.5,95,140.0
899,G3,146.0,73/1000,95,140.0
900,C3,146.0,73/1000,95,140.0
901,G3,146.0,73/1000,95,140.0
902,C3,146.0,73/1000,95,140.0
903,C2,146.5,0.5,95,140.0
904,G3,146.5,0.5,95,140.0
905,C3,146.5,0.5,95,140.0
906,G3,146.5,0.5,95,140.0
907,C3,146.5,0.5,95,140.0
908,B-2,146.5,0.5,95,140.0
909,C2,146.5,0.5,95,140.0
910,C2,147.0,0.5,95,140.0
911,B-2,147.0,0.5,95,140.0
912,G3,147.0,0.5,95,140.0
913,C3,147.0,0.5,95,140.0
914,G3,147.0,0.5,95,140.0
915,C3,147.0,0.5,95,140.0
916,B-2,147.5,0.5,95,140.0
917,D2,147.5,0.5,95,140.0
918,C2,148.0,1.0,95,140.0
919,G3,148.0,1.0,95,140.0
920,C3,148.0,1.0,95,140.0
921,G3,148.0,1.0,95,140.0
922,C3,148.0,1.0,95,140.0
923,B-2,148.0,0.5,95,140.0
924,C#3,148.0,0.5,95,140.0
925,B-2,148.5,0.5,95,140.0
926,C2,148.5,0.5,95,140.0
927,C2,149.0,0.5,95,140.0
928,B-2,149.0,0.5,95,140.0
929,G3,149.0,0.5,95,140.0
930,C3,149.0,0.5,95,140.0
931,G3,149.0,0.5,95,140.0
932,C3,149.0,0.5,95,140.0
933,C2,149.5,0.5,95,140.0
934,G3,149.5,0.5,95,140.0
935,C3,149.5,0.5,95,140.0
936,G3,149.5,0.5,95,140.0
937,C3,149.5,0.5,95,140.0
938,B-2,149.5,0.5,95,140.0
939,D2,149.5,0.5,95,140.0
940,A1,150.0,73/1000,95,140.0
941,B-2,150.0,0.5,95,140.0
942,G3,150.0,73/1000,95,140.0
943,C3,150.0,73/1000,95,140.0
944,G3,150.0,73/1000,95,140.0
945,C3,150.0,73/1000,95,140.0
946,C2,150.5,0.5,95,140.0
947,G3,150.5,0.5,95,140.0
948,C3,150.5,0.5,95,140.0
949,G3,150.5,0.5,95,140.0
950,C3,150.5,0.5,95,140.0
951,B-2,150.5,0.5,95,140.0
952,C2,150.5,0.5,95,140.0
953,C2,151.0,0.5,95,140.0
954,B-2,151.0,0.5,95,140.0
955,G3,151.0,0.5,95,140.0
956,C3,151.0,0.5,95,140.0
957,G3,151.0,0.5,95,140.0
958,C3,151.0,0.5,95,140.0
959,B-2,151.5,0.5,95,140.0
960,D2,151.5,0.5,95,140.0
961,B-1,152.0,1.0,95,140.0
962,B-2,152.0,0.5,95,140.0
963,F3,152.0,1.0,95,140.0
964,B-2,152.0,1.0,95,140.0
965,F3,152.0,1.0,95,140.0
966,B-2,152.0,1.0,95,140.0
967,B-2,152.5,0.5,95,140.0
968,C2,152.5,0.5,95,140.0
969,B-1,153.0,0.5,95,140.0
970,B-2,153.0,0.5,95,140.0
971,F3,153.0,0.5,95,140.0
972,B-2,153.0,0.5,95,140.0
973,F3,153.0,0.5,95,140.0
974,B-2,153.0,0.5,95,140.0
975,B-1,153.5,0.5,95,140.0
976,F3,153.5,0.5,95,140.0
977,B-2,153.5,0.5,95,140.0
978,F3,153.5,0.5,95,140.0
979,B-2,153.5,0.5,95,140.0
980,B-2,153.5,0.5,95,140.0
981,D2,153.5,0.5,95,140.0
982,A1,154.0,73/1000,95,140.0
983,B-2,154.0,0.5,95,140.0
984,A2,154.0,73/1000,95,140.0
985,E2,154.0,73/1000,95,140.0
986,A2,154.0,73/1000,95,140.0
987,E2,154.0,73/1000,95,140.0
988,B-1,154.5,0.5,95,140.0
989,F3,154.5,0.5,95,140.0
990,B-2,154.5,0.5,95,140.0
991,F3,154.5,0.5,95,140.0
992,B-2,154.5,0.5,95,140.0
993,B-2,154.5,0.5,95,140.0
994,C2,154.5,0.5,95,140.0
995,B-1,155.0,0.5,95,140.0
996,B-2,155.0,0.5,95,140.0
997,F3,155.0,0.5,95,140.0
998,B-2,155.0,0.5,95,140.0
999,F3,155.0,0.5,95,140.0
1000,B-2,155.0,0.5,95,140.0
1001,B-2,155.5,0.5,95,140.0
1002,D2,155.5,0.5,95,140.0
1003,B-1,156.0,1.0,95,140.0
1004,B-2,156.0,0.5,95,140.0
1005,F3,156.0,1.0,95,140.0
1006,B-2,156.0,1.0,95,140.0
1007,F3,156.0,1.0,95,140.0
1008,B-2,156.0,1.0,95,140.0
1009,B-2,156.5,0.5,95,140.0
1010,C2,156.5,0.5,95,140.0
1011,B-1,157.0,0.5,95,140.0
1012,B-2,157.0,0.5,95,140.0
1013,F3,157.0,0.5,95,140.0
1014,B-2,157.0,0.5,95,140.0
1015,F3,157.0,0.5,95,140.0
1016,B-2,157.0,0.5,95,140.0
1017,B-1,157.5,0.5,95,140.0
1018,F3,157.5,0.5,95,140.0
1019,B-2,157.5,0.5,95,140.0
1020,F3,157.5,0.5,95,140.0
1021,B-2,157.5,0.5,95,140.0
1022,B-2,157.5,0.5,95,140.0
1023,D2,157.5,0.5,95,140.0
1024,A1,158.0,73/1000,95,140.0
1025,B-2,158.0,0.5,95,140.0
1026,A2,158.0,73/1000,95,140.0
1027,E2,158.0,73/1000,95,140.0
1028,A2,158.0,73/1000,95,140.0
1029,E2,158.0,73/1000,95,140.0
1030,E-2,158.5,0.5,95,140.0
1031,B-3,158.5,0.5,95,140.0
1032,E-3,158.5,0.5,95,140.0
1033,B-3,158.5,0.5,95,140.0
1034,E-3,158.5,0.5,95,140.0
1035,B-2,158.5,0.5,95,140.0
1036,C2,158.5,0.5,95,140.0
1037,E-2,159.0,0.5,95,140.0
1038,B-2,159.0,0.5,95,140.0
1039,B-3,159.0,0.5,95,140.0
1040,E-3,159.0,0.5,95,140.0
1041,B-3,159.0,0.5,95,140.0
1042,E-3,159.0,0.5,95,140.0
1043,B-2,159.5,0.5,95,140.0
1044,D2,159.5,0.5,95,140.0
1045,F1,160.0,1.0,95,140.0
1046,C4,160.0,1.0,95,140.0
1047,F3,160.0,1.0,95,140.0
1048,C4,160.0,1.0,95,140.0
1049,F3,160.0,1.0,95,140.0
1050,B-2,160.0,0.5,95,140.0
1051,C#3,160.0,0.5,95,140.0
1052,B-2,160.5,0.5,95,140.0
1053,C2,160.5,0.5,95,140.0
1054,F1,161.0,0.5,95,140.0
1055,B-2,161.0,0.5,95,140.0
1056,C4,161.0,0.5,95,140.0
1057,F3,161.0,0.5,95,140.0
1058,C4,161.0,0.5,95,140.0
1059,F3,161.0,0.5,95,140.0
1060,F1,161.5,0.5,95,140.0
1061,C4,161.5,0.5,95,140.0
1062,F3,161.5,0.5,95,140.0
1063,C4,161.5,0.5,95,140.0
1064,F3,161.5,0.5,95,140.0
1065,B-2,161.5,0.5,95,140.0
1066,D2,161.5,0.5,95,140.0
1067,B-2,162.0,0.5,95,140.0
1068,F1,162.5,0.5,95,140.0
1069,C4,162.5,0.5,95,140.0
1070,F3,162.5,0.5,95,140.0
1071,C4,162.5,0.5,95,140.0
1072,F3,162.5,0.5,95,140.0
1073,B-2,162.5,0.5,95,140.0
1074,C2,162.5,0.5,95,140.0
1075,B-2,163.0,0.5,95,140.0
1076,C2,163.5,0.5,95,140.0
1077,G4,163.5,0.5,95,140.0
1078,E4,163.5,0.5,95,140.0
1079,C4,163.5,0.5,95,140.0
1080,G4,163.5,0.5,95,140.0
1081,E4,163.5,0.5,95,140.0
1082,C4,163.5,0.5,95,140.0
1083,B-2,163.5,0.5,95,140.0
1084,D2,163.5,0.5,95,140.0
1085,F1,164.0,1.0,95,140.0
1086,B-2,164.0,0.5,95,140.0
1087,C4,164.0,1.0,95,140.0
1088,F3,164.0,1.0,95,140.0
1089,C4,164.0,1.0,95,140.0
1090,F3,164.0,1.0,95,140.0
1091,B-2,164.5,0.5,95,140.0
1092,C2,164.5,0.5,95,140.0
1093,B-2,165.0,0.5,95,140.0
1094,B-2,165.5,0.5,95,140.0
1095,D2,165.5,0.5,95,140.0
1096,B-2,166.0,0.5,95,140.0
1097,B-2,166.5,0.5,95,140.0
1098,C2,166.5,0.5,95,140.0
1099,B-2,167.0,0.5,95,140.0
1100,B-2,167.5,0.5,95,140.0
1101,D2,167.5,0.5,95,140.0
1102,E-2,168.0,1.0,95,140.0
1103,B-2,168.0,0.5,95,140.0
1104,B-3,168.0,1.0,95,140.0
1105,E-3,168.0,1.0,95,140.0
1106,B-3,168.0,1.0,95,140.0
1107,E-3,168.0,1.0,95,140.0
1108,B-2,168.5,0.5,95,140.0
1109,C2,168.5,0.5,95,140.0
1110,E-2,169.0,0.5,95,140.0
1111,B-2,169.0,0.5,95,140.0
1112,B-3,169.0,0.5,95,140.0
1113,E-3,169.0,0.5,95,140.0
1114,B-3,169.0,0.5,95,140.0
1115,E-3,169.0,0.5,95,140.0
1116,E-2,169.5,0.5,95,140.0
1117,B-3,169.5,0.5,95,140.0
1118,E-3,169.5,0.5,95,140.0
1119,B-3,169.5,0.5,95,140.0
1120,E-3,169.5,0.5,95,140.0
1121,B-2,169.5,0.5,95,140.0
1122,D2,169.5,0.5,95,140.0
1123,B-2,170.0,0.5,95,140.0
1124,E-2,170.5,0.5,95,140.0
1125,F4,170.5,0.5,95,140.0
1126,D4,170.5,0.5,95,140.0
1127,B-3,170.5,0.5,95,140.0
1128,F4,170.5,0.5,95,140.0
1129,D4,170.5,0.5,95,140.0
1130,B-3,170.5,0.5,95,140.0
1131,B-2,170.5,0.5,95,140.0
1132,C2,170.5,0.5,95,140.0
1133,B-2,171.0,0.5,95,140.0
1134,B-1,171.5,0.5,95,140.0
1135,F3,171.5,0.5,95,140.0
1136,B-2,171.5,0.5,95,140.0
1137,F3,171.5,0.5,95,140.0
1138,B-2,171.5,0.5,95,140.0
1139,B-2,171.5,0.5,95,140.0
1140,D2,171.5,0.5,95,140.0
1141,C2,172.0,1.0,95,140.0
1142,B-2,172.0,0.5,95,140.0
1143,G3,172.0,1.0,95,140.0
1144,C3,172.0,1.0,95,140.0
1145,G3,172.0,1.0,95,140.0
1146,C3,172.0,1.0,95,140.0
1147,B-2,172.5,0.5,95,140.0
1148,C2,172.5,0.5,95,140.0
1149,B-2,173.0,0.5,95,140.0
1150,B-2,173.5,0.5,95,140.0
1151,D2,173.5,0.5,95,140.0
1152,B-2,174.0,0.5,95,140.0
1153,B-2,174.5,0.5,95,140.0
1154,C2,174.5,0.5,95,140.0
1155,B-2,175.0,0.5,95,140.0
1156,B-2,175.5,0.5,95,140.0
1157,D2,175.5,0.5,95,140.0
1158,F1,176.0,1.0,95,140.0
1159,C4,176.0,1.0,95,140.0
1160,F3,176.0,1.0,95,140.0
1161,C4,176.0,1.0,95,140.0
1162,F3,176.0,1.0,95,140.0
1163,B-2,176.0,0.5,95,140.0
1164,C#3,176.0,0.5,95,140.0
1165,B-2,176.5,0.5,95,140.0
1166,C2,176.5,0.5,95,140.0
1167,F1,177.0,0.5,95,140.0
1168,B-2,177.0,0.5,95,140.0
1169,C4,177.0,0.5,95,140.0
1170,F3,177.0,0.5,95,140.0
1171,C4,177.0,0.5,95,140.0
1172,F3,177.0,0.5,95,140.0
1173,F1,177.5,0.5,95,140.0
1174,C4,177.5,0.5,95,140.0
1175,F3,177.5,0.5,95,140.0
1176,C4,177.5,0.5,95,140.0
1177,F3,177.5,0.5,95,140.0
1178,B-2,177.5,0.5,95,140.0
1179,D2,177.5,0.5,95,140.0
1180,B-2,178.0,0.5,95,140.0
1181,F1,178.5,0.5,95,140.0
1182,C4,178.5,0.5,95,140.0
1183,F3,178.5,0.5,95,140.0
1184,C4,178.5,0.5,95,140.0
1185,F3,178.5,0.5,95,140.0
1186,B-2,178.5,0.5,95,140.0
1187,C2,178.5,0.5,95,140.0
1188,B-2,179.0,0.5,95,140.0
1189,C2,179.5,0.5,95,140.0
1190,G4,179.5,0.5,95,140.0
1191,E4,179.5,0.5,95,140.0
1192,C4,179.5,0.5,95,140.0
1193,G4,179.5,0.5,95,140.0
1194,E4,179.5,0.5,95,140.0
1195,C4,179.5,0.5,95,140.0
1196,B-2,179.5,0.5,95,140.0
1197,D2,179.5,0.5,95,140.0
1198,F1,180.0,1.0,95,140.0
1199,B-2,180.0,0.5,95,140.0
1200,C4,180.0,1.0,95,140.0
1201,F3,180.0,1.0,95,140.0
1202,C4,180.0,1.0,95,140.0
1203,F3,180.0,1.0,95,140.0
1204,B-2,180.5,0.5,95,140.0
1205,C2,180.5,0.5,95,140.0
1206,B-2,181.0,0.5,95,140.0
1207,B-2,181.5,0.5,95,140.0
1208,D2,181.5,0.5,95,140.0
1209,B-2,182.0,0.5,95,140.0
1210,B-2,182.5,0.5,95,140.0
1211,C2,182.5,0.5,95,140.0
1212,B-2,183.0,0.5,95,140.0
1213,B-2,183.5,0.5,95,140.0
1214,D2,183.5,0.5,95,140.0
1215,E-2,184.0,1.0,95,140.0
1216,B-2,184.0,0.5,95,140.0
1217,B-3,184.0,1.0,95,140.0
1218,E-3,184.0,1.0,95,140.0
1219,B-3,184.0,1.0,95,140.0
1220,E-3,184.0,1.0,95,140.0
1221,B-2,184.5,0.5,95,140.0
1222,C2,184.5,0.5,95,140.0
1223,E-2,185.0,0.5,95,140.0
1224,B-2,185.0,0.5,95,140.0
1225,B-3,185.0,0.5,95,140.0
1226,E-3,185.0,0.5,95,140.0
1227,B-3,185.0,0.5,95,140.0
1228,E-3,185.0,0.5,95,140.0
1229,E-2,185.5,0.5,95,140.0
1230,B-3,185.5,0.5,95,140.0
1231,E-3,185.5,0.5,95,140.0
1232,B-3,185.5,0.5,95,140.0
1233,E-3,185.5,0.5,95,140.0
1234,B-2,185.5,0.5,95,140.0
1235,D2,185.5,0.5,95,140.0
1236,B-2,186.0,0.5,95,140.0
1237,E-2,186.5,0.5,95,140.0
1238,F4,186.5,0.5,95,140.0
1239,D4,186.5,0.5,95,140.0
1240,B-3,186.5,0.5,95,140.0
1241,F4,186.5,0.5,95,140.0
1242,D4,186.5,0.5,95,140.0
1243,B-3,186.5,0.5,95,140.0
1244,B-2,186.5,0.5,95,140.0
1245,C2,186.5,0.5,95,140.0
1246,B-2,187.0,0.5,95,140.0
1247,B-1,187.5,0.5,95,140.0
1248,F3,187.5,0.5,95,140.0
1249,B-2,187.5,0.5,95,140.0
1250,F3,187.5,0.5,95,140.0
1251,B-2,187.5,0.5,95,140.0
1252,B-2,187.5,0.5,95,140.0
1253,D2,187.5,0.5,95,140.0
1254,C2,188.0,1.0,95,140.0
1255,G3,188.0,1.0,95,140.0
1256,C3,188.0,1.0,95,140.0
1257,G3,188.0,1.0,95,140.0
1258,C3,188.0,1.0,95,140.0
1259,D2,188.5,0.5,95,140.0
1260,C2,188.5,0.5,95,140.0
1261,B-2,188.5,0.5,95,140.0
1262,D2,189.0,0.5,95,140.0
1263,C2,189.0,0.5,95,140.0
1264,B-2,189.0,0.5,95,140.0
1265,D2,189.5,0.5,95,140.0
1266,C2,189.5,0.5,95,140.0
1267,B-2,189.5,0.5,95,140.0
1268,D2,190.0,0.5,95,140.0
1269,C2,190.0,0.5,95,140.0
1270,B-2,190.0,0.5,95,140.0
1271,D2,190.5,0.5,95,140.0
1272,C2,190.5,0.5,95,140.0
1273,B-2,190.5,0.5,95,140.0
1274,D2,191.0,0.5,95,140.0
1275,C2,191.0,0.5,95,140.0
1276,B-2,191.0,0.5,95,140.0
1277,D2,191.5,0.5,95,140.0
1278,C2,191.5,0.5,95,140.0
1279,B-2,191.5,0.5,95,140.0
1280,F1,192.0,1.0,95,140.0
1281,C4,192.0,1.0,95,140.0
1282,F3,192.0,1.0,95,140.0
1283,B-2,192.0,0.5,95,140.0
1284,C2,192.0,0.5,95,140.0
1285,C#3,192.0,0.5,95,140.0
1286,B-2,192.5,0.5,95,140.0
1287,F1,193.0,0.5,95,140.0
1288,B-2,193.0,0.5,95,140.0
1289,C4,193.0,0.5,95,140.0
1290,F3,193.0,0.5,95,140.0
1291,F1,193.5,0.5,95,140.0
1292,C4,193.5,0.5,95,140.0
1293,F3,193.5,0.5,95,140.0
1294,B-2,193.5,0.5,95,140.0
1295,D2,193.5,0.5,95,140.0
1296,B-2,194.0,0.5,95,140.0
1297,E1,194.5,73/1000,95,140.0
1298,G3,194.5,73/1000,95,140.0
1299,D3,194.5,73/1000,95,140.0
1300,A2,194.5,73/1000,95,140.0
1301,B-2,194.5,0.5,95,140.0
1302,C2,194.5,0.5,95,140.0
1303,F1,195.0,0.5,95,140.0
1304,B-2,195.0,0.5,95,140.0
1305,C4,195.0,0.5,95,140.0
1306,F3,195.0,0.5,95,140.0
1307,B-2,195.5,0.5,95,140.0
1308,D2,195.5,0.5,95,140.0
1309,F1,196.0,1.0,95,140.0
1310,B-2,196.0,0.5,95,140.0
1311,C4,196.0,1.0,95,140.0
1312,F3,196.0,1.0,95,140.0
1313,B-2,196.5,0.5,95,140.0
1314,C2,196.5,0.5,95,140.0
1315,F1,197.0,0.5,95,140.0
1316,B-2,197.0,0.5,95,140.0
1317,C4,197.0,0.5,95,140.0
1318,F3,197.0,0.5,95,140.0
1319,F1,197.5,0.5,95,140.0
1320,C4,197.5,0.5,95,140.0
1321,F3,197.5,0.5,95,140.0
1322,B-2,197.5,0.5,95,140.0
1323,D2,197.5,0.5,95,140.0
1324,B-2,198.0,0.5,95,140.0
1325,E1,198.5,73/1000,95,140.0
1326,G3,198.5,73/1000,95,140.0
1327,D3,198.5,73/1000,95,140.0
1328,A2,198.5,73/1000,95,140.0
1329,B-2,198.5,0.5,95,140.0
1330,C2,198.5,0.5,95,140.0
1331,F1,199.0,0.5,95,140.0
1332,B-2,199.0,0.5,95,140.0
1333,C4,199.0,0.5,95,140.0
1334,F3,199.0,0.5,95,140.0
1335,B-2,199.5,0.5,95,140.0
1336,D2,199.5,0.5,95,140.0
1337,F1,200.0,1.0,95,140.0
1338,B-2,200.0,0.5,95,140.0
1339,C4,200.0,1.0,95,140.0
1340,F3,200.0,1.0,95,140.0
1341,B-2,200.5,0.5,95,140.0
1342,C2,200.5,0.5,95,140.0
1343,F1,201.0,0.5,95,140.0
1344,B-2,201.0,0.5,95,140.0
1345,C4,201.0,0.5,95,140.0
1346,F3,201.0,0.5,95,140.0
1347,F1,201.5,0.5,95,140.0
1348,C4,201.5,0.5,95,140.0
1349,F3,201.5,0.5,95,140.0
1350,B-2,201.5,0.5,95,140.0
1351,D2,201.5,0.5,95,140.0
1352,B-2,202.0,0.5,95,140.0
1353,E1,202.5,73/1000,95,140.0
1354,G3,202.5,73/1000,95,140.0
1355,D3,202.5,73/1000,95,140.0
1356,A2,202.5,73/1000,95,140.0
1357,B-2,202.5,0.5,95,140.0
1358,C2,202.5,0.5,95,140.0
1359,F1,203.0,0.5,95,140.0
1360,B-2,203.0,0.5,95,140.0
1361,C4,203.0,0.5,95,140.0
1362,F3,203.0,0.5,95,140.0
1363,B-2,203.5,0.5,95,140.0
1364,D2,203.5,0.5,95,140.0
1365,F1,204.0,1.0,95,140.0
1366,B-2,204.0,0.5,95,140.0
1367,C4,204.0,1.0,95,140.0
1368,F3,204.0,1.0,95,140.0
1369,B-2,204.5,0.5,95,140.0
1370,C2,204.5,0.5,95,140.0
1371,F1,205.0,0.5,95,140.0
1372,B-2,205.0,0.5,95,140.0
1373,C4,205.0,0.5,95,140.0
1374,F3,205.0,0.5,95,140.0
1375,F1,205.5,0.5,95,140.0
1376,C4,205.5,0.5,95,140.0
1377,F3,205.5,0.5,95,140.0
1378,B-2,205.5,0.5,95,140.0
1379,D2,205.5,0.5,95,140.0
1380,B-2,206.0,0.5,95,140.0
1381,E1,206.5,73/1000,95,140.0
1382,G3,206.5,73/1000,95,140.0
1383,D3,206.5,73/1000,95,140.0
1384,A2,206.5,73/1000,95,140.0
1385,B-2,206.5,0.5,95,140.0
1386,C2,206.5,0.5,95,140.0
1387,F1,207.0,0.5,95,140.0
1388,B-2,207.0,0.5,95,140.0
1389,C4,207.0,0.5,95,140.0
1390,F3,207.0,0.5,95,140.0
1391,B-2,207.5,0.5,95,140.0
1392,D2,207.5,0.5,95,140.0
1393,E-2,208.0,1.0,95,140.0
1394,B-3,208.0,1.0,95,140.0
1395,E-3,208.0,1.0,95,140.0
1396,B-2,208.0,0.5,95,140.0
1397,C#3,208.0,0.5,95,140.0
1398,B-2,208.5,0.5,95,140.0
1399,C2,208.5,0.5,95,140.0
1400,E-2,209.0,0.5,95,140.0
1401,B-2,209.0,0.5,95,140.0
1402,B-3,209.0,0.5,95,140.0
1403,E-3,209.0,0.5,95,140.0
1404,E-2,209.5,0.5,95,140.0
1405,B-3,209.5,0.5,95,140.0
1406,E-3,209.5,0.5,95,140.0
1407,B-2,209.5,0.5,95,140.0
1408,D2,209.5,0.5,95,140.0
1409,B-2,210.0,0.5,95,140.0
1410,E1,210.5,73/1000,95,140.0
1411,G3,210.5,73/1000,95,140.0
1412,D3,210.5,73/1000,95,140.0
1413,A2,210.5,73/1000,95,140.0
1414,B-2,210.5,0.5,95,140.0
1415,C2,210.5,0.5,95,140.0
1416,E-2,211.0,0.5,95,140.0
1417,B-2,211.0,0.5,95,140.0
1418,B-3,211.0,0.5,95,140.0
1419,E-3,211.0,0.5,95,140.0
1420,B-2,211.5,0.5,95,140.0
1421,D2,211.5,0.5,95,140.0
1422,E-2,212.0,1.0,95,140.0
1423,B-2,212.0,0.5,95,140.0
1424,B-3,212.0,1.0,95,140.0
1425,E-3,212.0,1.0,95,140.0
1426,B-2,212.5,0.5,95,140.0
1427,C2,212.5,0.5,95,140.0
1428,E-2,213.0,0.5,95,140.0
1429,B-2,213.0,0.5,95,140.0
1430,B-3,213.0,0.5,95,140.0
1431,E-3,213.0,0.5,95,140.0
1432,E-2,213.5,0.5,95,140.0
1433,B-3,213.5,0.5,95,140.0
1434,E-3,213.5,0.5,95,140.0
1435,B-2,213.5,0.5,95,140.0
1436,D2,213.5,0.5,95,140.0
1437,B-2,214.0,0.5,95,140.0
1438,E1,214.5,73/1000,95,140.0
1439,G3,214.5,73/1000,95,140.0
1440,D3,214.5,73/1000,95,140.0
1441,A2,214.5,73/1000,95,140.0
1442,B-2,214.5,0.5,95,140.0
1443,C2,214.5,0.5,95,140.0
1444,E-2,215.0,0.5,95,140.0
1445,B-2,215.0,0.5,95,140.0
1446,B-3,215.0,0.5,95,140.0
1447,E-3,215.0,0.5,95,140.0
1448,B-2,215.5,0.5,95,140.0
1449,D2,215.5,0.5,95,140.0
1450,F1,216.0,1.0,95,140.0
1451,C4,216.0,1.0,95,140.0
1452,F3,216.0,1.0,95,140.0
1453,B-2,216.0,0.5,95,140.0
1454,C#3,216.0,0.5,95,140.0
1455,B-2,216.5,0.5,95,140.0
1456,C2,216.5,0.5,95,140.0
1457,F1,217.0,0.5,95,140.0
1458,B-2,217.0,0.5,95,140.0
1459,C4,217.0,0.5,95,140.0
1460,F3,217.0,0.5,95,140.0
1461,F1,217.5,0.5,95,140.0
1462,C4,217.5,0.5,95,140.0
1463,F3,217.5,0.5,95,140.0
1464,B-2,217.5,0.5,95,140.0
1465,D2,217.5,0.5,95,140.0
1466,B-2,218.0,0.5,95,140.0
1467,E1,218.5,73/1000,95,140.0
1468,G3,218.5,73/1000,95,140.0
1469,D3,218.5,73/1000,95,140.0
1470,A2,218.5,73/1000,95,140.0
1471,B-2,218.5,0.5,95,140.0
1472,C2,218.5,0.5,95,140.0
1473,F1,219.0,0.5,95,140.0
1474,B-2,219.0,0.5,95,140.0
1475,C4,219.0,0.5,95,140.0
1476,F3,219.0,0.5,95,140.0
1477,B-2,219.5,0.5,95,140.0
1478,D2,219.5,0.5,95,140.0
1479,F1,220.0,1.0,95,140.0
1480,B-2,220.0,0.5,95,140.0
1481,C4,220.0,1.0,95,140.0
1482,F3,220.0,1.0,95,140.0
1483,B-2,220.5,0.5,95,140.0
1484,C2,220.5,0.5,95,140.0
1485,F2,221.0,0.5,95,140.0
1486,B-2,221.0,0.5,95,140.0
1487,C4,221.0,0.5,95,140.0
1488,F3,221.0,0.5,95,140.0
1489,E-2,221.5,0.5,95,140.0
1490,C4,221.5,0.5,95,140.0
1491,F3,221.5,0.5,95,140.0
1492,B-2,221.5,0.5,95,140.0
1493,D2,221.5,0.5,95,140.0
1494,C2,222.0,0.5,95,140.0
1495,B-2,222.0,0.5,95,140.0
1496,B-1,222.5,0.5,95,140.0
1497,G3,222.5,73/1000,95,140.0
1498,D3,222.5,73/1000,95,140.0
1499,A2,222.5,73/1000,95,140.0
1500,B-2,222.5,0.5,95,140.0
1501,C2,222.5,0.5,95,140.0
1502,G#1,223.0,0.5,95,140.0
1503,B-2,223.0,0.5,95,140.0
1504,C4,223.0,0.5,95,140.0
1505,F3,223.0,0.5,95,140.0
1506,F1,223.5,0.5,95,140.0
1507,B-2,223.5,0.5,95,140.0
1508,D2,223.5,0.5,95,140.0
1509,F1,224.0,1.0,95,140.0
1510,C4,224.0,1.0,95,140.0
1511,F3,224.0,1.0,95,140.0
1512,B-2,224.0,0.5,95,140.0
1513,C2,224.0,0.5,95,140.0
1514,C#3,224.0,0.5,95,140.0
1515,B-2,224.5,0.5,95,140.0
1516,F1,225.0,0.5,95,140.0
1517,B-2,225.0,0.5,95,140.0
1518,C4,225.0,0.5,95,140.0
1519,F3,225.0,0.5,95,140.0
1520,F1,225.5,0.5,95,140.0
1521,C4,225.5,0.5,95,140.0
1522,F3,225.5,0.5,95,140.0
1523,B-2,225.5,0.5,95,140.0
1524,D2,225.5,0.5,95,140.0
1525,B-2,226.0,0.5,95,140.0
1526,E1,226.5,73/1000,95,140.0
1527,G3,226.5,73/1000,95,140.0
1528,D3,226.5,73/1000,95,140.0
1529,A2,226.5,73/1000,95,140.0
1530,B-2,226.5,0.5,95,140.0
1531,C2,226.5,0.5,95,140.0
1532,F1,227.0,0.5,95,140.0
1533,B-2,227.0,0.5,95,140.0
1534,C4,227.0,0.5,95,140.0
1535,F3,227.0,0.5,95,140.0
1536,B-2,227.5,0.5,95,140.0
1537,D2,227.5,0.5,95,140.0
1538,F1,228.0,1.0,95,140.0
1539,B-2,228.0,0.5,95,140.0
1540,C4,228.0,1.0,95,140.0
1541,F3,228.0,1.0,95,140.0
1542,B-2,228.5,0.5,95,140.0
1543,C2,228.5,0.5,95,140.0
1544,F1,229.0,0.5,95,140.0
1545,B-2,229.0,0.5,95,140.0
1546,C4,229.0,0.5,95,140.0
1547,F3,229.0,0.5,95,140.0
1548,F1,229.5,0.5,95,140.0
1549,C4,229.5,0.5,95,140.0
1550,F3,229.5,0.5,95,140.0
1551,B-2,229.5,0.5,95,140.0
1552,D2,229.5,0.5,95,140.0
1553,B-2,230.0,0.5,95,140.0
1554,E1,230.5,73/1000,95,140.0
1555,G3,230.5,73/1000,95,140.0
1556,D3,230.5,73/1000,95,140.0
1557,A2,230.5,73/1000,95,140.0
1558,B-2,230.5,0.5,95,140.0
1559,C2,230.5,0.5,95,140.0
1560,F1,231.0,0.5,95,140.0
1561,B-2,231.0,0.5,95,140.0
1562,C4,231.0,0.5,95,140.0
1563,F3,231.0,0.5,95,140.0
1564,B-2,231.5,0.5,95,140.0
1565,D2,231.5,0.5,95,140.0
1566,F1,232.0,1.0,95,140.0
1567,B-2,232.0,0.5,95,140.0
1568,C4,232.0,1.0,95,140.0
1569,F3,232.0,1.0,95,140.0
1570,B-2,232.5,0.5,95,140.0
1571,C2,232.5,0.5,95,140.0
1572,F1,233.0,0.5,95,140.0
1573,B-2,233.0,0.5,95,140.0
1574,C4,233.0,0.5,95,140.0
1575,F3,233.0,0.5,95,140.0
1576,F1,233.5,0.5,95,140.0
1577,C4,233.5,0.5,95,140.0
1578,F3,233.5,0.5,95,140.0
1579,B-2,233.5,0.5,95,140.0
1580,D2,233.5,0.5,95,140.0
1581,B-2,234.0,0.5,95,140.0
1582,E1,234.5,73/1000,95,140.0
1583,G3,234.5,73/1000,95,140.0
1584,D3,234.5,73/1000,95,140.0
1585,A2,234.5,73/1000,95,140.0
1586,B-2,234.5,0.5,95,140.0
1587,C2,234.5,0.5,95,140.0
1588,F1,235.0,0.5,95,140.0
1589,B-2,235.0,0.5,95,140.0
1590,C4,235.0,0.5,95,140.0
1591,F3,235.0,0.5,95,140.0
1592,B-2,235.5,0.5,95,140.0
1593,D2,235.5,0.5,95,140.0
1594,F1,236.0,1.0,95,140.0
1595,B-2,236.0,0.5,95,140.0
1596,C4,236.0,1.0,95,140.0
1597,F3,236.0,1.0,95,140.0
1598,B-2,236.5,0.5,95,140.0
1599,C2,236.5,0.5,95,140.0
1600,F1,237.0,0.5,95,140.0
1601,B-2,237.0,0.5,95,140.0
1602,C4,237.0,0.5,95,140.0
1603,F3,237.0,0.5,95,140.0
1604,F1,237.5,0.5,95,140.0
1605,C4,237.5,0.5,95,140.0
1606,F3,237.5,0.5,95,140.0
1607,B-2,237.5,0.5,95,140.0
1608,D2,237.5,0.5,95,140.0
1609,B-2,238.0,0.5,95,140.0
1610,E1,238.5,73/1000,95,140.0
1611,G3,238.5,73/1000,95,140.0
1612,D3,238.5,73/1000,95,140.0
1613,A2,238.5,73/1000,95,140.0
1614,B-2,238.5,0.5,95,140.0
1615,C2,238.5,0.5,95,140.0
1616,F1,239.0,0.5,95,140.0
1617,B-2,239.0,0.5,95,140.0
1618,C4,239.0,0.5,95,140.0
1619,F3,239.0,0.5,95,140.0
1620,B-2,239.5,0.5,95,140.0
1621,D2,239.5,0.5,95,140.0
1622,E-2,240.0,1.0,95,140.0
1623,B-3,240.0,1.0,95,140.0
1624,E-3,240.0,1.0,95,140.0
1625,B-2,240.0,0.5,95,140.0
1626,C#3,240.0,0.5,95,140.0
1627,B-2,240.5,0.5,95,140.0
1628,C2,240.5,0.5,95,140.0
1629,E-2,241.0,0.5,95,140.0
1630,B-2,241.0,0.5,95,140.0
1631,B-3,241.0,0.5,95,140.0
1632,E-3,241.0,0.5,95,140.0
1633,E-2,241.5,0.5,95,140.0
1634,B-3,241.5,0.5,95,140.0
1635,E-3,241.5,0.5,95,140.0
1636,B-2,241.5,0.5,95,140.0
1637,D2,241.5,0.5,95,140.0
1638,B-2,242.0,0.5,95,140.0
1639,E1,242.5,73/1000,95,140.0
1640,G3,242.5,73/1000,95,140.0
1641,D3,242.5,73/1000,95,140.0
1642,A2,242.5,73/1000,95,140.0
1643,B-2,242.5,0.5,95,140.0
1644,C2,242.5,0.5,95,140.0
1645,E-2,243.0,0.5,95,140.0
1646,B-2,243.0,0.5,95,140.0
1647,B-3,243.0,0.5,95,140.0
1648,E-3,243.0,0.5,95,140.0
1649,B-2,243.5,0.5,95,140.0
1650,D2,243.5,0.5,95,140.0
1651,E-2,244.0,1.0,95,140.0
1652,B-2,244.0,0.5,95,140.0
1653,B-3,244.0,1.0,95,140.0
1654,E-3,244.0,1.0,95,140.0
1655,B-2,244.5,0.5,95,140.0
1656,C2,244.5,0.5,95,140.0
1657,E-2,245.0,0.5,95,140.0
1658,B-2,245.0,0.5,95,140.0
1659,B-3,245.0,0.5,95,140.0
1660,E-3,245.0,0.5,95,140.0
1661,E-2,245.5,0.5,95,140.0
1662,B-3,245.5,0.5,95,140.0
1663,E-3,245.5,0.5,95,140.0
1664,B-2,245.5,0.5,95,140.0
1665,D2,245.5,0.5,95,140.0
1666,B-2,246.0,0.5,95,140.0
1667,E1,246.5,73/1000,95,140.0
1668,G3,246.5,73/1000,95,140.0
1669,D3,246.5,73/1000,95,140.0
1670,A2,246.5,73/1000,95,140.0
1671,B-2,246.5,0.5,95,140.0
1672,C2,246.5,0.5,95,140.0
1673,E-2,247.0,0.5,95,140.0
1674,B-2,247.0,0.5,95,140.0
1675,B-3,247.0,0.5,95,140.0
1676,E-3,247.0,0.5,95,140.0
1677,B-2,247.5,0.5,95,140.0
1678,D2,247.5,0.5,95,140.0
1679,F1,248.0,1.0,95,140.0
1680,C4,248.0,1.0,95,140.0
1681,F3,248.0,1.0,95,140.0
1682,B-2,248.0,0.5,95,140.0
1683,C#3,248.0,0.5,95,140.0
1684,B-2,248.5,0.5,95,140.0
1685,C2,248.5,0.5,95,140.0
1686,F1,249.0,0.5,95,140.0
1687,B-2,249.0,0.5,95,140.0
1688,C4,249.0,0.5,95,140.0
1689,F3,249.0,0.5,95,140.0
1690,F1,249.5,0.5,95,140.0
1691,C4,249.5,0.5,95,140.0
1692,F3,249.5,0.5,95,140.0
1693,B-2,249.5,0.5,95,140.0
1694,D2,249.5,0.5,95,140.0
1695,B-2,250.0,0.5,95,140.0
1696,E1,250.5,73/1000,95,140.0
1697,G3,250.5,73/1000,95,140.0
1698,D3,250.5,73/1000,95,140.0
1699,A2,250.5,73/1000,95,140.0
1700,B-2,250.5,0.5,95,140.0
1701,C2,250.5,0.5,95,140.0
1702,F1,251.0,0.5,95,140.0
1703,B-2,251.0,0.5,95,140.0
1704,C4,251.0,0.5,95,140.0
1705,F3,251.0,0.5,95,140.0
1706,B-2,251.5,0.5,95,140.0
1707,D2,251.5,0.5,95,140.0
1708,F1,252.0,1.0,95,140.0
1709,B-2,252.0,0.5,95,140.0
1710,C4,252.0,1.0,95,140.0
1711,F3,252.0,1.0,95,140.0
1712,B-2,252.5,0.5,95,140.0
1713,C2,252.5,0.5,95,140.0
1714,F2,253.0,0.5,95,140.0
1715,B-2,253.0,0.5,95,140.0
1716,C4,253.0,0.5,95,140.0
1717,F3,253.0,0.5,95,140.0
1718,E-2,253.5,0.5,95,140.0
1719,C4,253.5,0.5,95,140.0
1720,F3,253.5,0.5,95,140.0
1721,B-2,253.5,0.5,95,140.0
1722,D2,253.5,0.5,95,140.0
1723,C2,254.0,0.5,95,140.0
1724,B-2,254.0,0.5,95,140.0
1725,B-1,254.5,0.5,95,140.0
1726,G3,254.5,73/1000,95,140.0
1727,D3,254.5,73/1000,95,140.0
1728,A2,254.5,73/1000,95,140.0
1729,B-2,254.5,0.5,95,140.0
1730,C2,254.5,0.5,95,140.0
1731,G#1,255.0,0.5,95,140.0
1732,B-2,255.0,0.5,95,140.0
1733,C4,255.0,0.5,95,140.0
1734,F3,255.0,0.5,95,140.0
1735,F1,255.5,0.5,95,140.0
1736,B-2,255.5,0.5,95,140.0
1737,D2,255.5,0.5,95,140.0
1738,C2,256.0,1.0,95,140.0
1739,G3,256.0,1.0,95,140.0
1740,C3,256.0,1.0,95,140.0
1741,G3,256.0,1.0,95,140.0
1742,C3,256.0,1.0,95,140.0
1743,B-2,256.0,0.5,95,140.0
1744,C#3,256.0,0.5,95,140.0
1745,B-2,256.5,0.5,95,140.0
1746,C2,256.5,0.5,95,140.0
1747,C2,257.0,0.5,95,140.0
1748,B-2,257.0,0.5,95,140.0
1749,G3,257.0,0.5,95,140.0
1750,C3,257.0,0.5,95,140.0
1751,G3,257.0,0.5,95,140.0
1752,C3,257.0,0.5,95,140.0
1753,C2,257.5,0.5,95,140.0
1754,G3,257.5,0.5,95,140.0
1755,C3,257.5,0.5,95,140.0
1756,G3,257.5,0.5,95,140.0
1757,C3,257.5,0.5,95,140.0
1758,B-2,257.5,0.5,95,140.0
1759,D2,257.5,0.5,95,140.0
1760,A1,258.0,73/1000,95,140.0
1761,B-2,258.0,0.5,95,140.0
1762,G3,258.0,73/1000,95,140.0
1763,C3,258.0,73/1000,95,140.0
1764,G3,258.0,73/1000,95,140.0
1765,C3,258.0,73/1000,95,140.0
1766,C2,258.5,0.5,95,140.0
1767,G3,258.5,0.5,95,140.0
1768,C3,258.5,0.5,95,140.0
1769,G3,258.5,0.5,95,140.0
1770,C3,258.5,0.5,95,140.0
1771,B-2,258.5,0.5,95,140.0
1772,C2,258.5,0.5,95,140.0
1773,C2,259.0,0.5,95,140.0
1774,B-2,259.0,0.5,95,140.0
1775,G3,259.0,0.5,95,140.0
1776,C3,259.0,0.5,95,140.0
1777,G3,259.0,0.5,95,140.0
1778,C3,259.0,0.5,95,140.0
1779,B-2,259.5,0.5,95,140.0
1780,D2,259.5,0.5,95,140.0
1781,C2,260.0,1.0,95,140.0
1782,G3,260.0,1.0,95,140.0
1783,C3,260.0,1.0,95,140.0
1784,G3,260.0,1.0,95,140.0
1785,C3,260.0,1.0,95,140.0
1786,B-2,260.0,0.5,95,140.0
1787,C#3,260.0,0.5,95,140.0
1788,B-2,260.5,0.5,95,140.0
1789,C2,260.5,0.5,95,140.0
1790,C2,261.0,0.5,95,140.0
1791,B-2,261.0,0.5,95,140.0
1792,G3,261.0,0.5,95,140.0
1793,C3,261.0,0.5,95,140.0
1794,G3,261.0,0.5,95,140.0
1795,C3,261.0,0.5,95,140.0
1796,C2,261.5,0.5,95,140.0
1797,G3,261.5,0.5,95,140.0
1798,C3,261.5,0.5,95,140.0
1799,G3,261.5,0.5,95,140.0
1800,C3,261.5,0.5,95,140.0
1801,B-2,261.5,0.5,95,140.0
1802,D2,261.5,0.5,95,140.0
1803,A1,262.0,73/1000,95,140.0
1804,B-2,262.0,0.5,95,140.0
1805,G3,262.0,73/1000,95,140.0
1806,C3,262.0,73/1000,95,140.0
1807,G3,262.0,73/1000,95,140.0
1808,C3,262.0,73/1000,95,140.0
1809,C2,262.5,0.5,95,140.0
1810,G3,262.5,0.5,95,140.0
1811,C3,262.5,0.5,95,140.0
1812,G3,262.5,0.5,95,140.0
1813,C3,262.5,0.5,95,140.0
1814,B-2,262.5,0.5,95,140.0
1815,C2,262.5,0.5,95,140.0
1816,C2,263.0,0.5,95,140.0
1817,B-2,263.0,0.5,95,140.0
1818,G3,263.0,0.5,95,140.0
1819,C3,263.0,0.5,95,140.0
1820,G3,263.0,0.5,95,140.0
1821,C3,263.0,0.5,95,140.0
1822,B-2,263.5,0.5,95,140.0
1823,D2,263.5,0.5,95,140.0
1824,B-1,264.0,1.0,95,140.0
1825,B-2,264.0,0.5,95,140.0
1826,F3,264.0,1.0,95,140.0
1827,B-2,264.0,1.0,95,140.0
1828,F3,264.0,1.0,95,140.0
1829,B-2,264.0,1.0,95,140.0
1830,B-2,264.5,0.5,95,140.0
1831,C2,264.5,0.5,95,140.0
1832,B-1,265.0,0.5,95,140.0
1833,B-2,265.0,0.5,95,140.0
1834,F3,265.0,0.5,95,140.0
1835,B-2,265.0,0.5,95,140.0
1836,F3,265.0,0.5,95,140.0
1837,B-2,265.0,0.5,95,140.0
1838,B-1,265.5,0.5,95,140.0
1839,F3,265.5,0.5,95,140.0
1840,B-2,265.5,0.5,95,140.0
1841,F3,265.5,0.5,95,140.0
1842,B-2,265.5,0.5,95,140.0
1843,B-2,265.5,0.5,95,140.0
1844,D2,265.5,0.5,95,140.0
1845,A1,266.0,73/1000,95,140.0
1846,B-2,266.0,0.5,95,140.0
1847,A2,266.0,73/1000,95,140.0
1848,E2,266.0,73/1000,95,140.0
1849,A2,266.0,73/1000,95,140.0
1850,E2,266.0,73/1000,95,140.0
1851,B-1,266.5,0.5,95,140.0
1852,F3,266.5,0.5,95,140.0
1853,B-2,266.5,0.5,95,140.0
1854,F3,266.5,0.5,95,140.0
1855,B-2,266.5,0.5,95,140.0
1856,B-2,266.5,0.5,95,140.0
1857,C2,266.5,0.5,95,140.0
1858,B-1,267.0,0.5,95,140.0
1859,B-2,267.0,0.5,95,140.0
1860,F3,267.0,0.5,95,140.0
1861,B-2,267.0,0.5,95,140.0
1862,F3,267.0,0.5,95,140.0
1863,B-2,267.0,0.5,95,140.0
1864,B-2,267.5,0.5,95,140.0
1865,D2,267.5,0.5,95,140.0
1866,B-1,268.0,1.0,95,140.0
1867,B-2,268.0,0.5,95,140.0
1868,F3,268.0,1.0,95,140.0
1869,B-2,268.0,1.0,95,140.0
1870,F3,268.0,1.0,95,140.0
1871,B-2,268.0,1.0,95,140.0
1872,B-2,268.5,0.5,95,140.0
1873,C2,268.5,0.5,95,140.0
1874,B-1,269.0,0.5,95,140.0
1875,B-2,269.0,0.5,95,140.0
1876,F3,269.0,0.5,95,140.0
1877,B-2,269.0,0.5,95,140.0
1878,F3,269.0,0.5,95,140.0
1879,B-2,269.0,0.5,95,140.0
1880,B-1,269.5,0.5,95,140.0
1881,F3,269.5,0.5,95,140.0
1882,B-2,269.5,0.5,95,140.0
1883,F3,269.5,0.5,95,140.0
1884,B-2,269.5,0.5,95,140.0
1885,B-2,269.5,0.5,95,140.0
1886,D2,269.5,0.5,95,140.0
1887,A1,270.0,73/1000,95,140.0
1888,B-2,270.0,0.5,95,140.0
1889,A2,270.0,73/1000,95,140.0
1890,E2,270.0,73/1000,95,140.0
1891,A2,270.0,73/1000,95,140.0
1892,E2,270.0,73/1000,95,140.0
1893,B-1,270.5,0.5,95,140.0
1894,F3,270.5,0.5,95,140.0
1895,B-2,270.5,0.5,95,140.0
1896,F3,270.5,0.5,95,140.0
1897,B-2,270.5,0.5,95,140.0
1898,B-2,270.5,0.5,95,140.0
1899,C2,270.5,0.5,95,140.0
1900,B-1,271.0,0.5,95,140.0
1901,B-2,271.0,0.5,95,140.0
1902,F3,271.0,0.5,95,140.0
1903,B-2,271.0,0.5,95,140.0
1904,F3,271.0,0.5,95,140.0
1905,B-2,271.0,0.5,95,140.0
1906,B-2,271.5,0.5,95,140.0
1907,D2,271.5,0.5,95,140.0
1908,C2,272.0,1.0,95,140.0
1909,G3,272.0,1.0,95,140.0
1910,C3,272.0,1.0,95,140.0
1911,G3,272.0,1.0,95,140.0
1912,C3,272.0,1.0,95,140.0
1913,B-2,272.0,0.5,95,140.0
1914,C#3,272.0,0.5,95,140.0
1915,B-2,272.5,0.5,95,140.0
1916,C2,272.5,0.5,95,140.0
1917,C2,273.0,0.5,95,140.0
1918,B-2,273.0,0.5,95,140.0
1919,G3,273.0,0.5,95,140.0
1920,C3,273.0,0.5,95,140.0
1921,G3,273.0,0.5,95,140.0
1922,C3,273.0,0.5,95,140.0
1923,C2,273.5,0.5,95,140.0
1924,G3,273.5,0.5,95,140.0
1925,C3,273.5,0.5,95,140.0
1926,G3,273.5,0.5,95,140.0
1927,C3,273.5,0.5,95,140.0
1928,B-2,273.5,0.5,95,140.0
1929,D2,273.5,0.5,95,140.0
1930,A1,274.0,73/1000,95,140.0
1931,B-2,274.0,0.5,95,140.0
1932,G3,274.0,73/1000,95,140.0
1933,C3,274.0,73/1000,95,140.0
1934,G3,274.0,73/1000,95,140.0
1935,C3,274.0,73/1000,95,140.0
1936,C2,274.5,0.5,95,140.0
1937,G3,274.5,0.5,95,140.0
1938,C3,274.5,0.5,95,140.0
1939,G3,274.5,0.5,95,140.0
1940,C3,274.5,0.5,95,140.0
1941,B-2,274.5,0.5,95,140.0
1942,C2,274.5,0.5,95,140.0
1943,C2,275.0,0.5,95,140.0
1944,B-2,275.0,0.5,95,140.0
1945,G3,275.0,0.5,95,140.0
1946,C3,275.0,0.5,95,140.0
1947,G3,275.0,0.5,95,140.0
1948,C3,275.0,0.5,95,140.0
1949,B-2,275.5,0.5,95,140.0
1950,D2,275.5,0.5,95,140.0
1951,C2,276.0,1.0,95,140.0
1952,G3,276.0,1.0,95,140.0
1953,C3,276.0,1.0,95,140.0
1954,G3,276.0,1.0,95,140.0
1955,C3,276.0,1.0,95,140.0
1956,B-2,276.0,0.5,95,140.0
1957,C#3,276.0,0.5,95,140.0
1958,B-2,276.5,0.5,95,140.0
1959,C2,276.5,0.5,95,140.0
1960,C2,277.0,0.5,95,140.0
1961,B-2,277.0,0.5,95,140.0
1962,G3,277.0,0.5,95,140.0
1963,C3,277.0,0.5,95,140.0
1964,G3,277.0,0.5,95,140.0
1965,C3,277.0,0.5,95,140.0
1966,C2,277.5,0.5,95,140.0
1967,G3,277.5,0.5,95,140.0
1968,C3,277.5,0.5,95,140.0
1969,G3,277.5,0.5,95,140.0
1970,C3,277.5,0.5,95,140.0
1971,B-2,277.5,0.5,95,140.0
1972,D2,277.5,0.5,95,140.0
1973,A1,278.0,73/1000,95,140.0
1974,B-2,278.0,0.5,95,140.0
1975,G3,278.0,73/1000,95,140.0
1976,C3,278.0,73/1000,95,140.0
1977,G3,278.0,73/1000,95,140.0
1978,C3,278.0,73/1000,95,140.0
1979,C2,278.5,0.5,95,140.0
1980,G3,278.5,0.5,95,140.0
1981,C3,278.5,0.5,95,140.0
1982,G3,278.5,0.5,95,140.0
1983,C3,278.5,0.5,95,140.0
1984,B-2,278.5,0.5,95,140.0
1985,C2,278.5,0.5,95,140.0
1986,C2,279.0,0.5,95,140.0
1987,B-2,279.0,0.5,95,140.0
1988,G3,279.0,0.5,95,140.0
1989,C3,279.0,0.5,95,140.0
1990,G3,279.0,0.5,95,140.0
1991,C3,279.0,0.5,95,140.0
1992,B-2,279.5,0.5,95,140.0
1993,D2,279.5,0.5,95,140.0
1994,B-1,280.0,1.0,95,140.0
1995,B-2,280.0,0.5,95,140.0
1996,F3,280.0,1.0,95,140.0
1997,B-2,280.0,1.0,95,140.0
1998,F3,280.0,1.0,95,140.0
1999,B-2,280.0,1.0,95,140.0
2000,B-2,280.5,0.5,95,140.0
2001,C2,280.5,0.5,95,140.0
2002,B-1,281.0,0.5,95,140.0
2003,B-2,281.0,0.5,95,140.0
2004,F3,281.0,0.5,95,140.0
2005,B-2,281.0,0.5,95,140.0
2006,F3,281.0,0.5,95,140.0
2007,B-2,281.0,0.5,95,140.0
2008,B-1,281.5,0.5,95,140.0
2009,F3,281.5,0.5,95,140.0
2010,B-2,281.5,0.5,95,140.0
2011,F3,281.5,0.5,95,140.0
2012,B-2,281.5,0.5,95,140.0
2013,B-2,281.5,0.5,95,140.0
2014,D2,281.5,0.5,95,140.0
2015,A1,282.0,73/1000,95,140.0
2016,B-2,282.0,0.5,95,140.0
2017,A2,282.0,73/1000,95,140.0
2018,E2,282.0,73/1000,95,140.0
2019,A2,282.0,73/1000,95,140.0
2020,E2,282.0,73/1000,95,140.0
2021,B-1,282.5,0.5,95,140.0
2022,F3,282.5,0.5,95,140.0
2023,B-2,282.5,0.5,95,140.0
2024,F3,282.5,0.5,95,140.0
2025,B-2,282.5,0.5,95,140.0
2026,B-2,282.5,0.5,95,140.0
2027,C2,282.5,0.5,95,140.0
2028,B-1,283.0,0.5,95,140.0
2029,B-2,283.0,0.5,95,140.0
2030,F3,283.0,0.5,95,140.0
2031,B-2,283.0,0.5,95,140.0
2032,F3,283.0,0.5,95,140.0
2033,B-2,283.0,0.5,95,140.0
2034,B-2,283.5,0.5,95,140.0
2035,D2,283.5,0.5,95,140.0
2036,B-1,284.0,1.0,95,140.0
2037,B-2,284.0,0.5,95,140.0
2038,F3,284.0,1.0,95,140.0
2039,B-2,284.0,1.0,95,140.0
2040,F3,284.0,1.0,95,140.0
2041,B-2,284.0,1.0,95,140.0
2042,B-2,284.5,0.5,95,140.0
2043,C2,284.5,0.5,95,140.0
2044,B-1,285.0,0.5,95,140.0
2045,B-2,285.0,0.5,95,140.0
2046,F3,285.0,0.5,95,140.0
2047,B-2,285.0,0.5,95,140.0
2048,F3,285.0,0.5,95,140.0
2049,B-2,285.0,0.5,95,140.0
2050,B-1,285.5,0.5,95,140.0
2051,F3,285.5,0.5,95,140.0
2052,B-2,285.5,0.5,95,140.0
2053,F3,285.5,0.5,95,140.0
2054,B-2,285.5,0.5,95,140.0
2055,B-2,285.5,0.5,95,140.0
2056,D2,285.5,0.5,95,140.0
2057,A1,286.0,73/1000,95,140.0
2058,B-2,286.0,0.5,95,140.0
2059,A2,286.0,73/1000,95,140.0
2060,E2,286.0,73/1000,95,140.0
2061,A2,286.0,73/1000,95,140.0
2062,E2,286.0,73/1000,95,140.0
2063,E-2,286.5,0.5,95,140.0
2064,B-3,286.5,0.5,95,140.0
2065,E-3,286.5,0.5,95,140.0
2066,B-3,286.5,0.5,95,140.0
2067,E-3,286.5,0.5,95,140.0
2068,B-2,286.5,0.5,95,140.0
2069,C2,286.5,0.5,95,140.0
2070,E-2,287.0,0.5,95,140.0
2071,B-2,287.0,0.5,95,140.0
2072,B-3,287.0,0.5,95,140.0
2073,E-3,287.0,0.5,95,140.0
2074,B-3,287.0,0.5,95,140.0
2075,E-3,287.0,0.5,95,140.0
2076,B-2,287.5,0.5,95,140.0
2077,D2,287.5,0.5,95,140.0
2078,F1,288.0,1.0,95,140.0
2079,C4,288.0,1.0,95,140.0
2080,F3,288.0,1.0,95,140.0
2081,C4,288.0,1.0,95,140.0
2082,F3,288.0,1.0,95,140.0
2083,B-2,288.0,0.5,95,140.0
2084,C#3,288.0,0.5,95,140.0
2085,B-2,288.5,0.5,95,140.0
2086,C2,288.5,0.5,95,140.0
2087,F1,289.0,0.5,95,140.0
2088,B-2,289.0,0.5,95,140.0
2089,C4,289.0,0.5,95,140.0
2090,F3,289.0,0.5,95,140.0
2091,C4,289.0,0.5,95,140.0
2092,F3,289.0,0.5,95,140.0
2093,F1,289.5,0.5,95,140.0
2094,C4,289.5,0.5,95,140.0
2095,F3,289.5,0.5,95,140.0
2096,C4,289.5,0.5,95,140.0
2097,F3,289.5,0.5,95,140.0
2098,B-2,289.5,0.5,95,140.0
2099,D2,289.5,0.5,95,140.0
2100,B-2,290.0,0.5,95,140.0
2101,F1,290.5,0.5,95,140.0
2102,C4,290.5,0.5,95,140.0
2103,F3,290.5,0.5,95,140.0
2104,C4,290.5,0.5,95,140.0
2105,F3,290.5,0.5,95,140.0
2106,B-2,290.5,0.5,95,140.0
2107,C2,290.5,0.5,95,140.0
2108,B-2,291.0,0.5,95,140.0
2109,C2,291.5,0.5,95,140.0
2110,G4,291.5,0.5,95,140.0
2111,E4,291.5,0.5,95,140.0
2112,C4,291.5,0.5,95,140.0
2113,G4,291.5,0.5,95,140.0
2114,E4,291.5,0.5,95,140.0
2115,C4,291.5,0.5,95,140.0
2116,B-2,291.5,0.5,95,140.0
2117,D2,291.5,0.5,95,140.0
2118,F1,292.0,1.0,95,140.0
2119,B-2,292.0,0.5,95,140.0
2120,C4,292.0,1.0,95,140.0
2121,F3,292.0,1.0,95,140.0
2122,C4,292.0,1.0,95,140.0
2123,F3,292.0,1.0,95,140.0
2124,B-2,292.5,0.5,95,140.0
2125,C2,292.5,0.5,95,140.0
2126,B-2,293.0,0.5,95,140.0
2127,B-2,293.5,0.5,95,140.0
2128,D2,293.5,0.5,95,140.0
2129,B-2,294.0,0.5,95,140.0
2130,B-2,294.5,0.5,95,140.0
2131,C2,294.5,0.5,95,140.0
2132,B-2,295.0,0.5,95,140.0
2133,B-2,295.5,0.5,95,140.0
2134,D2,295.5,0.5,95,140.0
2135,E-2,296.0,1.0,95,140.0
2136,B-2,296.0,0.5,95,140.0
2137,B-3,296.0,1.0,95,140.0
2138,E-3,296.0,1.0,95,140.0
2139,B-3,296.0,1.0,95,140.0
2140,E-3,296.0,1.0,95,140.0
2141,B-2,296.5,0.5,95,140.0
2142,C2,296.5,0.5,95,140.0
2143,E-2,297.0,0.5,95,140.0
2144,B-2,297.0,0.5,95,140.0
2145,B-3,297.0,0.5,95,140.0
2146,E-3,297.0,0.5,95,140.0
2147,B-3,297.0,0.5,95,140.0
2148,E-3,297.0,0.5,95,140.0
2149,E-2,297.5,0.5,95,140.0
2150,B-3,297.5,0.5,95,140.0
2151,E-3,297.5,0.5,95,140.0
2152,B-3,297.5,0.5,95,140.0
2153,E-3,297.5,0.5,95,140.0
2154,B-2,297.5,0.5,95,140.0
2155,D2,297.5,0.5,95,140.0
2156,B-2,298.0,0.5,95,140.0
2157,E-2,298.5,0.5,95,140.0
2158,F4,298.5,0.5,95,140.0
2159,D4,298.5,0.5,95,140.0
2160,B-3,298.5,0.5,95,140.0
2161,F4,298.5,0.5,95,140.0
2162,D4,298.5,0.5,95,140.0
2163,B-3,298.5,0.5,95,140.0
2164,B-2,298.5,0.5,95,140.0
2165,C2,298.5,0.5,95,140.0
2166,B-2,299.0,0.5,95,140.0
2167,B-1,299.5,0.5,95,140.0
2168,F3,299.5,0.5,95,140.0
2169,B-2,299.5,0.5,95,140.0
2170,F3,299.5,0.5,95,140.0
2171,B-2,299.5,0.5,95,140.0
2172,B-2,299.5,0.5,95,140.0
2173,D2,299.5,0.5,95,140.0
2174,C2,300.0,1.0,95,140.0
2175,B-2,300.0,0.5,95,140.0
2176,G3,300.0,1.0,95,140.0
2177,C3,300.0,1.0,95,140.0
2178,G3,300.0,1.0,95,140.0
2179,C3,300.0,1.0,95,140.0
2180,B-2,300.5,0.5,95,140.0
2181,C2,300.5,0.5,95,140.0
2182,B-2,301.0,0.5,95,140.0
2183,B-2,301.5,0.5,95,140.0
2184,D2,301.5,0.5,95,140.0
2185,B-2,302.0,0.5,95,140.0
2186,B-2,302.5,0.5,95,140.0
2187,C2,302.5,0.5,95,140.0
2188,B-2,303.0,0.5,95,140.0
2189,B-2,303.5,0.5,95,140.0
2190,D2,303.5,0.5,95,140.0
2191,F1,304.0,1.0,95,140.0
2192,C4,304.0,1.0,95,140.0
2193,F3,304.0,1.0,95,140.0
2194,C4,304.0,1.0,95,140.0
2195,F3,304.0,1.0,95,140.0
2196,B-2,304.0,0.5,95,140.0
2197,C#3,304.0,0.5,95,140.0
2198,B-2,304.5,0.5,95,140.0
2199,C2,304.5,0.5,95,140.0
2200,F1,305.0,0.5,95,140.0
2201,B-2,305.0,0.5,95,140.0
2202,C4,305.0,0.5,95,140.0
2203,F3,305.0,0.5,95,140.0
2204,C4,305.0,0.5,95,140.0
2205,F3,305.0,0.5,95,140.0
2206,F1,305.5,0.5,95,140.0
2207,C4,305.5,0.5,95,140.0
2208,F3,305.5,0.5,95,140.0
2209,C4,305.5,0.5,95,140.0
2210,F3,305.5,0.5,95,140.0
2211,B-2,305.5,0.5,95,140.0
2212,D2,305.5,0.5,95,140.0
2213,B-2,306.0,0.5,95,140.0
2214,F1,306.5,0.5,95,140.0
2215,C4,306.5,0.5,95,140.0
2216,F3,306.5,0.5,95,140.0
2217,C4,306.5,0.5,95,140.0
2218,F3,306.5,0.5,95,140.0
2219,B-2,306.5,0.5,95,140.0
2220,C2,306.5,0.5,95,140.0
2221,B-2,307.0,0.5,95,140.0
2222,C2,307.5,0.5,95,140.0
2223,G4,307.5,0.5,95,140.0
2224,E4,307.5,0.5,95,140.0
2225,C4,307.5,0.5,95,140.0
2226,G4,307.5,0.5,95,140.0
2227,E4,307.5,0.5,95,140.0
2228,C4,307.5,0.5,95,140.0
2229,B-2,307.5,0.5,95,140.0
2230,D2,307.5,0.5,95,140.0
2231,F1,308.0,1.0,95,140.0
2232,B-2,308.0,0.5,95,140.0
2233,C4,308.0,1.0,95,140.0
2234,F3,308.0,1.0,95,140.0
2235,C4,308.0,1.0,95,140.0
2236,F3,308.0,1.0,95,140.0
2237,B-2,308.5,0.5,95,140.0
2238,C2,308.5,0.5,95,140.0
2239,B-2,309.0,0.5,95,140.0
2240,B-2,309.5,0.5,95,140.0
2241,D2,309.5,0.5,95,140.0
2242,B-2,310.0,0.5,95,140.0
2243,B-2,310.5,0.5,95,140.0
2244,C2,310.5,0.5,95,140.0
2245,B-2,311.0,0.5,95,140.0
2246,B-2,311.5,0.5,95,140.0
2247,D2,311.5,0.5,95,140.0
2248,E-2,312.0,1.0,95,140.0
2249,B-2,312.0,0.5,95,140.0
2250,B-3,312.0,1.0,95,140.0
2251,E-3,312.0,1.0,95,140.0
2252,B-3,312.0,1.0,95,140.0
2253,E-3,312.0,1.0,95,140.0
2254,B-2,312.5,0.5,95,140.0
2255,C2,312.5,0.5,95,140.0
2256,E-2,313.0,0.5,95,140.0
2257,B-2,313.0,0.5,95,140.0
2258,B-3,313.0,0.5,95,140.0
2259,E-3,313.0,0.5,95,140.0
2260,B-3,313.0,0.5,95,140.0
2261,E-3,313.0,0.5,95,140.0
2262,E-2,313.5,0.5,95,140.0
2263,B-3,313.5,0.5,95,140.0
2264,E-3,313.5,0.5,95,140.0
2265,B-3,313.5,0.5,95,140.0
2266,E-3,313.5,0.5,95,140.0
2267,B-2,313.5,0.5,95,140.0
2268,D2,313.5,0.5,95,140.0
2269,B-2,314.0,0.5,95,140.0
2270,E-2,314.5,0.5,95,140.0
2271,F4,314.5,0.5,95,140.0
2272,D4,314.5,0.5,95,140.0
2273,B-3,314.5,0.5,95,140.0
2274,F4,314.5,0.5,95,140.0
2275,D4,314.5,0.5,95,140.0
2276,B-3,314.5,0.5,95,140.0
2277,B-2,314.5,0.5,95,140.0
2278,C2,314.5,0.5,95,140.0
2279,B-2,315.0,0.5,95,140.0
2280,B-1,315.5,0.5,95,140.0
2281,F3,315.5,0.5,95,140.0
2282,B-2,315.5,0.5,95,140.0
2283,F3,315.5,0.5,95,140.0
2284,B-2,315.5,0.5,95,140.0
2285,B-2,315.5,0.5,95,140.0
2286,D2,315.5,0.5,95,140.0
2287,F2,316.0,4.0,95,140.0
2288,C2,316.0,1.0,95,140.0
2289,G3,316.0,1.0,95,140.0
2290,C3,316.0,1.0,95,140.0
2291,D2,316.5,0.5,95,140.0
2292,C2,316.5,0.5,95,140.0
2293,B-2,316.5,0.5,95,140.0
2294,D2,317.0,0.5,95,140.0
2295,C2,317.0,0.5,95,140.0
2296,B-2,317.0,0.5,95,140.0
2297,D2,317.5,0.5,95,140.0
2298,C2,317.5,0.5,95,140.0
2299,B-2,317.5,0.5,95,140.0
2300,D2,318.0,0.5,95,140.0
2301,C2,318.0,0.5,95,140.0
2302,B-2,318.0,0.5,95,140.0
2303,D2,318.5,0.5,95,140.0
2304,C2,318.5,0.5,95,140.0
2305,B-2,318.5,0.5,95,140.0
2306,D2,319.0,0.5,95,140.0
2307,C2,319.0,0.5,95,140.0
2308,B-2,319.0,0.5,95,140.0
2309,D2,319.5,0.5,95,140.0
2310,C2,319.5,0.5,95,140.0
2311,B-2,319.5,0.5,95,140.0
2312,E-4,320.0,0.25,95,140.0
2313,F1,320.0,1.0,95,140.0
2314,C4,320.0,1.0,95,140.0
2315,F3,320.0,1.0,95,140.0
2316,B-2,320.0,0.5,95,140.0
2317,C2,320.0,0.5,95,140.0
2318,C#3,320.0,0.5,95,140.0
2319,C4,320.25,0.25,70,140.0
2320,G#4,320.5,0.25,95,140.0
2321,B-2,320.5,0.5,95,140.0
2322,F4,320.75,0.25,70,140.0
2323,E-4,321.0,0.25,95,140.0
2324,F1,321.0,0.5,95,140.0
2325,B-2,321.0,0.5,95,140.0
2326,C4,321.0,0.5,95,140.0
2327,F3,321.0,0.5,95,140.0
2328,C4,321.25,0.25,70,140.0
2329,G#4,321.5,0.25,95,140.0
2330,F1,321.5,0.5,95,140.0
2331,C4,321.5,0.5,95,140.0
2332,F3,321.5,0.5,95,140.0
2333,B-2,321.5,0.5,95,140.0
2334,D2,321.5,0.5,95,140.0
2335,F4,321.75,0.25,70,140.0
2336,E-4,322.0,0.25,95,140.0
2337,B-2,322.0,0.5,95,140.0
2338,C4,322.25,0.25,70,140.0
2339,G#4,322.5,0.25,95,140.0
2340,E1,322.5,73/1000,95,140.0
2341,G3,322.5,73/1000,95,140.0
2342,D3,322.5,73/1000,95,140.0
2343,A2,322.5,73/1000,95,140.0
2344,B-2,322.5,0.5,95,140.0
2345,C2,322.5,0.5,95,140.0
2346,F4,322.75,0.25,70,140.0
2347,E-4,323.0,0.25,95,140.0
2348,F1,323.0,0.5,95,140.0
2349,B-2,323.0,0.5,95,140.0
2350,C4,323.0,0.5,95,140.0
2351,F3,323.0,0.5,95,140.0
2352,C4,323.25,0.25,70,140.0
2353,G#4,323.5,0.25,95,140.0
2354,B-2,323.5,0.5,95,140.0
2355,D2,323.5,0.5,95,140.0
2356,F4,323.75,0.25,70,140.0
2357,E-4,324.0,0.25,95,140.0
2358,F1,324.0,1.0,95,140.0
2359,B-2,324.0,0.5,95,140.0
2360,C4,324.0,1.0,95,140.0
2361,F3,324.0,1.0,95,140.0
2362,C4,324.25,0.25,70,140.0
2363,G#4,324.5,0.25,95,140.0
2364,B-2,324.5,0.5,95,140.0
2365,C2,324.5,0.5,95,140.0
2366,F4,324.75,0.25,70,140.0
2367,E-4,325.0,0.25,95,140.0
2368,F1,325.0,0.5,95,140.0
2369,B-2,325.0,0.5,95,140.0
2370,C4,325.0,0.5,95,140.0
2371,F3,325.0,0.5,95,140.0
2372,C4,325.25,0.25,70,140.0
2373,G#4,325.5,0.25,95,140.0
2374,F1,325.5,0.5,95,140.0
2375,C4,325.5,0.5,95,140.0
2376,F3,325.5,0.5,95,140.0
2377,B-2,325.5,0.5,95,140.0
2378,D2,325.5,0.5,95,140.0
2379,F4,325.75,0.25,70,140.0
2380,E-4,326.0,0.25,95,140.0
2381,B-2,326.0,0.5,95,140.0
2382,C4,326.25,0.25,70,140.0
2383,G#4,326.5,0.25,95,140.0
2384,E1,326.5,73/1000,95,140.0
2385,G3,326.5,73/1000,95,140.0
2386,D3,326.5,73/1000,95,140.0
2387,A2,326.5,73/1000,95,140.0
2388,B-2,326.5,0.5,95,140.0
2389,C2,326.5,0.5,95,140.0
2390,F4,326.75,0.25,70,140.0
2391,E-4,327.0,0.25,95,140.0
2392,F1,327.0,0.5,95,140.0
2393,B-2,327.0,0.5,95,140.0
2394,C4,327.0,0.5,95,140.0
2395,F3,327.0,0.5,95,140.0
2396,C4,327.25,0.25,70,140.0
2397,G#4,327.5,0.25,95,140.0
2398,B-2,327.5,0.5,95,140.0
2399,D2,327.5,0.5,95,140.0
2400,F4,327.75,0.25,70,140.0
2401,E-4,328.0,0.25,95,140.0
2402,F1,328.0,1.0,95,140.0
2403,B-2,328.0,0.5,95,140.0
2404,C4,328.0,1.0,95,140.0
2405,F3,328.0,1.0,95,140.0
2406,C4,328.25,0.25,95,140.0
2407,E-4,328.5,0.25,95,140.0
2408,B-2,328.5,0.5,95,140.0
2409,C2,328.5,0.5,95,140.0
2410,B-3,328.75,0.25,95,140.0
2411,G#3,329.0,0.25,95,140.0
2412,F1,329.0,0.5,95,140.0
2413,B-2,329.0,0.5,95,140.0
2414,C4,329.0,0.5,95,140.0
2415,F3,329.0,0.5,95,140.0
2416,B-3,329.25,0.25,95,140.0
2417,B-3,329.5,0.5,95,140.0
2418,F1,329.5,0.5,95,140.0
2419,C4,329.5,0.5,95,140.0
2420,F3,329.5,0.5,95,140.0
2421,B-2,329.5,0.5,95,140.0
2422,D2,329.5,0.5,95,140.0
2423,G#3,330.0,0.5,95,140.0
2424,B-2,330.0,0.5,95,140.0
2425,F3,330.5,0.5,95,140.0
2426,E1,330.5,73/1000,95,140.0
2427,G3,330.5,73/1000,95,140.0
2428,D3,330.5,73/1000,95,140.0
2429,A2,330.5,73/1000,95,140.0
2430,B-2,330.5,0.5,95,140.0
2431,C2,330.5,0.5,95,140.0
2432,E-3,331.0,0.5,95,140.0
2433,F1,331.0,0.5,95,140.0
2434,B-2,331.0,0.5,95,140.0
2435,C4,331.0,0.5,95,140.0
2436,F3,331.0,0.5,95,140.0
2437,C3,331.5,0.5,95,140.0
2438,B-2,331.5,0.5,95,140.0
2439,D2,331.5,0.5,95,140.0
2440,C3,332.0,0.25,95,140.0
2441,F1,332.0,1.0,95,140.0
2442,B-2,332.0,0.5,95,140.0
2443,C4,332.0,1.0,95,140.0
2444,F3,332.0,1.0,95,140.0
2445,B-2,332.25,0.25,95,140.0
2446,C3,332.5,0.25,95,140.0
2447,B-2,332.5,0.5,95,140.0
2448,C2,332.5,0.5,95,140.0
2449,B-2,332.75,0.25,95,140.0
2450,A2,333.0,0.25,95,140.0
2451,F1,333.0,0.5,95,140.0
2452,B-2,333.0,0.5,95,140.0
2453,C4,333.0,0.5,95,140.0
2454,F3,333.0,0.5,95,140.0
2455,G#2,333.25,0.25,95,140.0
2456,G2,333.5,0.25,95,140.0
2457,F1,333.5,0.5,95,140.0
2458,C4,333.5,0.5,95,140.0
2459,F3,333.5,0.5,95,140.0
2460,B-2,333.5,0.5,95,140.0
2461,D2,333.5,0.5,95,140.0
2462,F2,333.75,2.25,95,140.0
2463,B-2,334.0,0.5,95,140.0
2464,E1,334.5,73/1000,95,140.0
2465,G3,334.5,73/1000,95,140.0
2466,D3,334.5,73/1000,95,140.0
2467,A2,334.5,73/1000,95,140.0
2468,B-2,334.5,0.5,95,140.0
2469,C2,334.5,0.5,95,140.0
2470,F1,335.0,0.5,95,140.0
2471,B-2,335.0,0.5,95,140.0
2472,C4,335.0,0.5,95,140.0
2473,F3,335.0,0.5,95,140.0
2474,B-2,335.5,0.5,95,140.0
2475,D2,335.5,0.5,95,140.0
2476,B-2,336.0,0.25,95,140.0
2477,E-2,336.0,1.0,95,140.0
2478,B-3,336.0,1.0,95,140.0
2479,E-3,336.0,1.0,95,140.0
2480,B-2,336.0,0.5,95,140.0
2481,C#3,336.0,0.5,95,140.0
2482,C3,336.25,0.25,95,140.0
2483,E-3,336.5,0.25,95,140.0
2484,B-2,336.5,0.5,95,140.0
2485,C2,336.5,0.5,95,140.0
2486,F3,336.75,0.25,95,140.0
2487,G#3,337.0,0.25,95,140.0
2488,E-2,337.0,0.5,95,140.0
2489,B-2,337.0,0.5,95,140.0
2490,B-3,337.0,0.5,95,140.0
2491,E-3,337.0,0.5,95,140.0
2492,B-3,337.25,0.25,95,140.0
2493,G#3,337.5,0.25,95,140.0
2494,E-2,337.5,0.5,95,140.0
2495,B-3,337.5,0.5,95,140.0
2496,E-3,337.5,0.5,95,140.0
2497,B-2,337.5,0.5,95,140.0
2498,D2,337.5,0.5,95,140.0
2499,B-3,337.75,2.25,95,140.0
2500,B-2,338.0,0.5,95,140.0
2501,E1,338.5,73/1000,95,140.0
2502,G3,338.5,73/1000,95,140.0
2503,D3,338.5,73/1000,95,140.0
2504,A2,338.5,73/1000,95,140.0
2505,B-2,338.5,0.5,95,140.0
2506,C2,338.5,0.5,95,140.0
2507,E-2,339.0,0.5,95,140.0
2508,B-2,339.0,0.5,95,140.0
2509,B-3,339.0,0.5,95,140.0
2510,E-3,339.0,0.5,95,140.0
2511,B-2,339.5,0.5,95,140.0
2512,D2,339.5,0.5,95,140.0
2513,B-3,340.0,0.5,95,140.0
2514,E-2,340.0,1.0,95,140.0
2515,B-2,340.0,0.5,95,140.0
2516,B-3,340.0,1.0,95,140.0
2517,E-3,340.0,1.0,95,140.0
2518,B-3,340.5,0.25,95,140.0
2519,B-2,340.5,0.5,95,140.0
2520,C2,340.5,0.5,95,140.0
2521,G#3,340.75,0.25,95,140.0
2522,B-3,341.0,0.25,95,140.0
2523,E-2,341.0,0.5,95,140.0
2524,B-2,341.0,0.5,95,140.0
2525,B-3,341.0,0.5,95,140.0
2526,E-3,341.0,0.5,95,140.0
2527,G#3,341.25,0.25,95,140.0
2528,F3,341.5,0.25,95,140.0
2529,E-2,341.5,0.5,95,140.0
2530,B-3,341.5,0.5,95,140.0
2531,E-3,341.5,0.5,95,140.0
2532,B-2,341.5,0.5,95,140.0
2533,D2,341.5,0.5,95,140.0
2534,E-3,341.75,0.25,95,140.0
2535,F3,342.0,0.25,95,140.0
2536,B-2,342.0,0.5,95,140.0
2537,E-3,342.25,0.25,95,140.0
2538,C3,342.5,0.25,95,140.0
2539,E1,342.5,73/1000,95,140.0
2540,G3,342.5,73/1000,95,140.0
2541,D3,342.5,73/1000,95,140.0
2542,A2,342.5,73/1000,95,140.0
2543,B-2,342.5,0.5,95,140.0
2544,C2,342.5,0.5,95,140.0
2545,B-2,342.75,0.25,95,140.0
2546,C3,343.0,0.25,95,140.0
2547,E-2,343.0,0.5,95,140.0
2548,B-2,343.0,0.5,95,140.0
2549,B-3,343.0,0.5,95,140.0
2550,E-3,343.0,0.5,95,140.0
2551,B-2,343.25,0.25,95,140.0
2552,G#2,343.5,0.25,95,140.0
2553,B-2,343.5,0.5,95,140.0
2554,D2,343.5,0.5,95,140.0
2555,F2,343.75,0.25,95,140.0
2556,E-4,344.0,0.25,95,140.0
2557,F1,344.0,1.0,95,140.0
2558,C4,344.0,1.0,95,140.0
2559,F3,344.0,1.0,95,140.0
2560,B-2,344.0,0.5,95,140.0
2561,C#3,344.0,0.5,95,140.0
2562,C4,344.25,0.25,70,140.0
2563,G#4,344.5,0.25,95,140.0
2564,B-2,344.5,0.5,95,140.0
2565,C2,344.5,0.5,95,140.0
2566,F4,344.75,0.25,70,140.0
2567,E-4,345.0,0.25,95,140.0
2568,F1,345.0,0.5,95,140.0
2569,B-2,345.0,0.5,95,140.0
2570,C4,345.0,0.5,95,140.0
2571,F3,345.0,0.5,95,140.0
2572,C4,345.25,0.25,70,140.0
2573,G#4,345.5,0.25,95,140.0
2574,F1,345.5,0.5,95,140.0
2575,C4,345.5,0.5,95,140.0
2576,F3,345.5,0.5,95,140.0
2577,B-2,345.5,0.5,95,140.0
2578,D2,345.5,0.5,95,140.0
2579,F4,345.75,0.25,70,140.0
2580,E-4,346.0,0.25,95,140.0
2581,B-2,346.0,0.5,95,140.0
2582,C4,346.25,0.25,70,140.0
2583,G#4,346.5,0.25,95,140.0
2584,E1,346.5,73/1000,95,140.0
2585,G3,346.5,73/1000,95,140.0
2586,D3,346.5,73/1000,95,140.0
2587,A2,346.5,73/1000,95,140.0
2588,B-2,346.5,0.5,95,140.0
2589,C2,346.5,0.5,95,140.0
2590,F4,346.75,0.25,70,140.0
2591,E-4,347.0,0.25,95,140.0
2592,F1,347.0,0.5,95,140.0
2593,B-2,347.0,0.5,95,140.0
2594,C4,347.0,0.5,95,140.0
2595,F3,347.0,0.5,95,140.0
2596,C4,347.25,0.25,70,140.0
2597,G#4,347.5,0.25,95,140.0
2598,B-2,347.5,0.5,95,140.0
2599,D2,347.5,0.5,95,140.0
2600,F4,347.75,0.25,70,140.0
2601,E-4,348.0,0.25,95,140.0
2602,F1,348.0,1.0,95,140.0
2603,B-2,348.0,0.5,95,140.0
2604,C4,348.0,1.0,95,140.0
2605,F3,348.0,1.0,95,140.0
2606,C4,348.25,0.25,70,140.0
2607,G#4,348.5,0.25,95,140.0
2608,B-2,348.5,0.5,95,140.0
2609,C2,348.5,0.5,95,140.0
2610,F4,348.75,0.25,70,140.0
2611,E-4,349.0,0.25,95,140.0
2612,F2,349.0,0.5,95,140.0
2613,B-2,349.0,0.5,95,140.0
2614,C4,349.0,0.5,95,140.0
2615,F3,349.0,0.5,95,140.0
2616,C4,349.25,0.25,70,140.0
2617,G#4,349.5,0.25,95,140.0
2618,E-2,349.5,0.5,95,140.0
2619,C4,349.5,0.5,95,140.0
2620,F3,349.5,0.5,95,140.0
2621,B-2,349.5,0.5,95,140.0
2622,D2,349.5,0.5,95,140.0
2623,F4,349.75,0.25,70,140.0
2624,E-4,350.0,0.25,95,140.0
2625,C2,350.0,0.5,95,140.0
2626,B-2,350.0,0.5,95,140.0
2627,C4,350.25,0.25,70,140.0
2628,G#4,350.5,0.25,95,140.0
2629,B-1,350.5,0.5,95,140.0
2630,G3,350.5,73/1000,95,140.0
2631,D3,350.5,73/1000,95,140.0
2632,A2,350.5,73/1000,95,140.0
2633,B-2,350.5,0.5,95,140.0
2634,C2,350.5,0.5,95,140.0
2635,F4,350.75,0.25,70,140.0
2636,C4,351.0,1.0,95,140.0
2637,G#1,351.0,0.5,95,140.0
2638,B-2,351.0,0.5,95,140.0
2639,C4,351.0,0.5,95,140.0
2640,F3,351.0,0.5,95,140.0
2641,F1,351.5,0.5,95,140.0
2642,B-2,351.5,0.5,95,140.0
2643,D2,351.5,0.5,95,140.0
2644,E-5,352.0,0.25,95,140.0
2645,F1,352.0,1.0,95,140.0
2646,C4,352.0,1.0,95,140.0
2647,F3,352.0,1.0,95,140.0
2648,B-2,352.0,0.5,95,140.0
2649,C2,352.0,0.5,95,140.0
2650,C#3,352.0,0.5,95,140.0
2651,C5,352.25,0.25,95,140.0
2652,G#5,352.5,0.25,95,140.0
2653,B-2,352.5,0.5,95,140.0
2654,F5,352.75,0.25,95,140.0
2655,E-5,353.0,0.25,95,140.0
2656,F1,353.0,0.5,95,140.0
2657,B-2,353.0,0.5,95,140.0
2658,C4,353.0,0.5,95,140.0
2659,F3,353.0,0.5,95,140.0
2660,C5,353.25,0.25,95,140.0
2661,G#5,353.5,0.25,95,140.0
2662,F1,353.5,0.5,95,140.0
2663,C4,353.5,0.5,95,140.0
2664,F3,353.5,0.5,95,140.0
2665,B-2,353.5,0.5,95,140.0
2666,D2,353.5,0.5,95,140.0
2667,F5,353.75,0.25,95,140.0
2668,E-5,354.0,0.25,95,140.0
2669,B-2,354.0,0.5,95,140.0
2670,C5,354.25,0.25,95,140.0
2671,G#5,354.5,0.25,95,140.0
2672,E1,354.5,73/1000,95,140.0
2673,G3,354.5,73/1000,95,140.0
2674,D3,354.5,73/1000,95,140.0
2675,A2,354.5,73/1000,95,140.0
2676,B-2,354.5,0.5,95,140.0
2677,C2,354.5,0.5,95,140.0
2678,F5,354.75,0.25,95,140.0
2679,E-5,355.0,0.25,95,140.0
2680,F1,355.0,0.5,95,140.0
2681,B-2,355.0,0.5,95,140.0
2682,C4,355.0,0.5,95,140.0
2683,F3,355.0,0.5,95,140.0
2684,C5,355.25,0.25,95,140.0
2685,G#5,355.5,0.25,95,140.0
2686,B-2,355.5,0.5,95,140.0
2687,D2,355.5,0.5,95,140.0
2688,F5,355.75,0.25,95,140.0
2689,E-5,356.0,0.25,95,140.0
2690,F1,356.0,1.0,95,140.0
2691,B-2,356.0,0.5,95,140.0
2692,C4,356.0,1.0,95,140.0
2693,F3,356.0,1.0,95,140.0
2694,C5,356.25,0.25,95,140.0
2695,G#5,356.5,0.25,95,140.0
2696,B-2,356.5,0.5,95,140.0
2697,C2,356.5,0.5,95,140.0
2698,F5,356.75,0.25,95,140.0
2699,E-5,357.0,0.25,95,140.0
2700,F1,357.0,0.5,95,140.0
2701,B-2,357.0,0.5,95,140.0
2702,C4,357.0,0.5,95,140.0
2703,F3,357.0,0.5,95,140.0
2704,C5,357.25,0.25,95,140.0
2705,G#5,357.5,0.25,95,140.0
2706,F1,357.5,0.5,95,140.0
2707,C4,357.5,0.5,95,140.0
2708,F3,357.5,0.5,95,140.0
2709,B-2,357.5,0.5,95,140.0
2710,D2,357.5,0.5,95,140.0
2711,F5,357.75,0.25,95,140.0
2712,E-5,358.0,0.25,95,140.0
2713,B-2,358.0,0.5,95,140.0
2714,C5,358.25,0.25,95,140.0
2715,G#5,358.5,0.25,95,140.0
2716,E1,358.5,73/1000,95,140.0
2717,G3,358.5,73/1000,95,140.0
2718,D3,358.5,73/1000,95,140.0
2719,A2,358.5,73/1000,95,140.0
2720,B-2,358.5,0.5,95,140.0
2721,C2,358.5,0.5,95,140.0
2722,F5,358.75,0.25,95,140.0
2723,E-5,359.0,0.25,95,140.0
2724,F1,359.0,0.5,95,140.0
2725,B-2,359.0,0.5,95,140.0
2726,C4,359.0,0.5,95,140.0
2727,F3,359.0,0.5,95,140.0
2728,C5,359.25,0.25,95,140.0
2729,G#5,359.5,0.25,95,140.0
2730,B-2,359.5,0.5,95,140.0
2731,D2,359.5,0.5,95,140.0
2732,F5,359.75,0.25,95,140.0
2733,E-5,360.0,0.5,95,140.0
2734,F1,360.0,1.0,95,140.0
2735,B-2,360.0,0.5,95,140.0
2736,C4,360.0,1.0,95,140.0
2737,F3,360.0,1.0,95,140.0
2738,G#5,360.5,1.0,95,140.0
2739,B-2,360.5,0.5,95,140.0
2740,C2,360.5,0.5,95,140.0
2741,F1,361.0,0.5,95,140.0
2742,B-2,361.0,0.5,95,140.0
2743,C4,361.0,0.5,95,140.0
2744,F3,361.0,0.5,95,140.0
2745,G#5,361.5,1.0,95,140.0
2746,F1,361.5,0.5,95,140.0
2747,C4,361.5,0.5,95,140.0
2748,F3,361.5,0.5,95,140.0
2749,B-2,361.5,0.5,95,140.0
2750,D2,361.5,0.5,95,140.0
2751,B-2,362.0,0.5,95,140.0
2752,G#5,362.5,1.0,95,140.0
2753,E1,362.5,73/1000,95,140.0
2754,G3,362.5,73/1000,95,140.0
2755,D3,362.5,73/1000,95,140.0
2756,A2,362.5,73/1000,95,140.0
2757,B-2,362.5,0.5,95,140.0
2758,C2,362.5,0.5,95,140.0
2759,F1,363.0,0.5,95,140.0
2760,B-2,363.0,0.5,95,140.0
2761,C4,363.0,0.5,95,140.0
2762,F3,363.0,0.5,95,140.0
2763,G#5,363.5,0.5,95,140.0
2764,B-2,363.5,0.5,95,140.0
2765,D2,363.5,0.5,95,140.0
2766,G#5,364.0,1.0,95,140.0
2767,G#5,364.0,0.5,95,140.0
2768,F1,364.0,1.0,95,140.0
2769,B-2,364.0,0.5,95,140.0
2770,C4,364.0,1.0,95,140.0
2771,F3,364.0,1.0,95,140.0
2772,B-2,364.5,0.5,95,140.0
2773,C2,364.5,0.5,95,140.0
2774,G#5,365.0,0.25,95,140.0
2775,F1,365.0,0.5,95,140.0
2776,B-2,365.0,0.5,95,140.0
2777,C4,365.0,0.5,95,140.0
2778,F3,365.0,0.5,95,140.0
2779,F5,365.25,0.25,95,140.0
2780,E-5,365.5,0.25,95,140.0
2781,F1,365.5,0.5,95,140.0
2782,C4,365.5,0.5,95,140.0
2783,F3,365.5,0.5,95,140.0
2784,B-2,365.5,0.5,95,140.0
2785,D2,365.5,0.5,95,140.0
2786,C5,365.75,0.25,95,140.0
2787,B-4,366.0,0.25,95,140.0
2788,B-2,366.0,0.5,95,140.0
2789,G#4,366.25,0.25,95,140.0
2790,F4,366.5,0.25,95,140.0
2791,E1,366.5,73/1000,95,140.0
2792,G3,366.5,73/1000,95,140.0
2793,D3,366.5,73/1000,95,140.0
2794,A2,366.5,73/1000,95,140.0
2795,B-2,366.5,0.5,95,140.0
2796,C2,366.5,0.5,95,140.0
2797,E-4,366.75,0.25,95,140.0
2798,C4,367.0,0.25,95,140.0
2799,F1,367.0,0.5,95,140.0
2800,B-2,367.0,0.5,95,140.0
2801,C4,367.0,0.5,95,140.0
2802,F3,367.0,0.5,95,140.0
2803,B-3,367.25,0.25,95,140.0
2804,C4,367.5,0.25,95,140.0
2805,B-2,367.5,0.5,95,140.0
2806,D2,367.5,0.5,95,140.0
2807,B-3,367.75,0.25,95,140.0
2808,B-3,368.0,0.25,95,140.0
2809,E-2,368.0,1.0,95,140.0
2810,B-3,368.0,1.0,95,140.0
2811,E-3,368.0,1.0,95,140.0
2812,B-2,368.0,0.5,95,140.0
2813,C#3,368.0,0.5,95,140.0
2814,C4,368.25,0.25,95,140.0
2815,B-3,368.5,0.25,95,140.0
2816,B-2,368.5,0.5,95,140.0
2817,C2,368.5,0.5,95,140.0
2818,C4,368.75,0.25,95,140.0
2819,E-4,369.0,0.25,95,140.0
2820,E-2,369.0,0.5,95,140.0
2821,B-2,369.0,0.5,95,140.0
2822,B-3,369.0,0.5,95,140.0
2823,E-3,369.0,0.5,95,140.0
2824,F4,369.25,0.25,95,140.0
2825,E-4,369.5,0.25,95,140.0
2826,E-2,369.5,0.5,95,140.0
2827,B-3,369.5,0.5,95,140.0
2828,E-3,369.5,0.5,95,140.0
2829,B-2,369.5,0.5,95,140.0
2830,D2,369.5,0.5,95,140.0
2831,F4,369.75,0.25,95,140.0
2832,G#4,370.0,1.0,95,140.0
2833,B-2,370.0,0.5,95,140.0
2834,E1,370.5,73/1000,95,140.0
2835,G3,370.5,73/1000,95,140.0
2836,D3,370.5,73/1000,95,140.0
2837,A2,370.5,73/1000,95,140.0
2838,B-2,370.5,0.5,95,140.0
2839,C2,370.5,0.5,95,140.0
2840,B-3,371.0,0.25,95,140.0
2841,E-2,371.0,0.5,95,140.0
2842,B-2,371.0,0.5,95,140.0
2843,B-3,371.0,0.5,95,140.0
2844,E-3,371.0,0.5,95,140.0
2845,C4,371.25,0.25,95,140.0
2846,B-3,371.5,0.25,95,140.0
2847,B-2,371.5,0.5,95,140.0
2848,D2,371.5,0.5,95,140.0
2849,C4,371.75,0.25,95,140.0
2850,E-4,372.0,0.25,95,140.0
2851,E-2,372.0,1.0,95,140.0
2852,B-2,372.0,0.5,95,140.0
2853,B-3,372.0,1.0,95,140.0
2854,E-3,372.0,1.0,95,140.0
2855,F4,372.25,0.25,95,140.0
2856,E-4,372.5,0.25,95,140.0
2857,B-2,372.5,0.5,95,140.0
2858,C2,372.5,0.5,95,140.0
2859,F4,372.75,0.25,95,140.0
2860,B-4,373.0,1.0,95,140.0
2861,E-2,373.0,0.5,95,140.0
2862,B-2,373.0,0.5,95,140.0
2863,B-3,373.0,0.5,95,140.0
2864,E-3,373.0,0.5,95,140.0
2865,E-2,373.5,0.5,95,140.0
2866,B-3,373.5,0.5,95,140.0
2867,E-3,373.5,0.5,95,140.0
2868,B-2,373.5,0.5,95,140.0
2869,D2,373.5,0.5,95,140.0
2870,B-4,374.0,0.25,95,140.0
2871,B-2,374.0,0.5,95,140.0
2872,G#4,374.25,0.25,95,140.0
2873,F4,374.5,0.25,95,140.0
2874,E1,374.5,73/1000,95,140.0
2875,G3,374.5,73/1000,95,140.0
2876,D3,374.5,73/1000,95,140.0
2877,A2,374.5,73/1000,95,140.0
2878,B-2,374.5,0.5,95,140.0
2879,C2,374.5,0.5,95,140.0
2880,E-4,374.75,0.25,95,140.0
2881,C4,375.0,0.25,95,140.0
2882,E-2,375.0,0.5,95,140.0
2883,B-2,375.0,0.5,95,140.0
2884,B-3,375.0,0.5,95,140.0
2885,E-3,375.0,0.5,95,140.0
2886,B-3,375.25,0.25,95,140.0
2887,G#3,375.5,0.25,95,140.0
2888,B-2,375.5,0.5,95,140.0
2889,D2,375.5,0.5,95,140.0
2890,F3,375.75,0.25,95,140.0
2891,E-5,376.0,0.25,95,140.0
2892,F1,376.0,1.0,95,140.0
2893,C4,376.0,1.0,95,140.0
2894,F3,376.0,1.0,95,140.0
2895,B-2,376.0,0.5,95,140.0
2896,C#3,376.0,0.5,95,140.0
2897,D5,376.25,0.25,95,140.0
2898,C5,376.5,0.25,95,140.0
2899,B-2,376.5,0.5,95,140.0
2900,C2,376.5,0.5,95,140.0
2901,B-4,376.75,0.25,95,140.0
2902,G#4,377.0,0.25,95,140.0
2903,F1,377.0,0.5,95,140.0
2904,B-2,377.0,0.5,95,140.0
2905,C4,377.0,0.5,95,140.0
2906,F3,377.0,0.5,95,140.0
2907,G4,377.25,0.25,95,140.0
2908,F4,377.5,0.25,95,140.0
2909,F1,377.5,0.5,95,140.0
2910,C4,377.5,0.5,95,140.0
2911,F3,377.5,0.5,95,140.0
2912,B-2,377.5,0.5,95,140.0
2913,D2,377.5,0.5,95,140.0
2914,E-4,377.75,0.25,95,140.0
2915,D4,378.0,0.25,95,140.0
2916,B-2,378.0,0.5,95,140.0
2917,C4,378.25,0.25,95,140.0
2918,B3,378.5,0.25,95,140.0
2919,E1,378.5,73/1000,95,140.0
2920,G3,378.5,73/1000,95,140.0
2921,D3,378.5,73/1000,95,140.0
2922,A2,378.5,73/1000,95,140.0
2923,B-2,378.5,0.5,95,140.0
2924,C2,378.5,0.5,95,140.0
2925,B-3,378.75,0.25,95,140.0
2926,G#3,379.0,0.25,95,140.0
2927,F1,379.0,0.5,95,140.0
2928,B-2,379.0,0.5,95,140.0
2929,C4,379.0,0.5,95,140.0
2930,F3,379.0,0.5,95,140.0
2931,G3,379.25,0.25,95,140.0
2932,F3,379.5,0.25,95,140.0
2933,B-2,379.5,0.5,95,140.0
2934,D2,379.5,0.5,95,140.0
2935,F3,379.75,0.25,95,140.0
2936,F3,380.0,0.125,95,140.0
2937,F1,380.0,1.0,95,140.0
2938,B-2,380.0,0.5,95,140.0
2939,C4,380.0,1.0,95,140.0
2940,F3,380.0,1.0,95,140.0
2941,G3,380.125,0.125,95,140.0
2942,G#3,380.25,0.125,95,140.0
2943,B-3,380.375,0.125,95,140.0
2944,B3,380.5,0.125,95,140.0
2945,B-2,380.5,0.5,95,140.0
2946,C2,380.5,0.5,95,140.0
2947,C4,380.625,0.125,95,140.0
2948,D4,380.75,0.125,95,140.0
2949,E-4,380.875,0.125,95,140.0
2950,F4,381.0,0.125,95,140.0
2951,F2,381.0,0.5,95,140.0
2952,B-2,381.0,0.5,95,140.0
2953,C4,381.0,0.5,95,140.0
2954,F3,381.0,0.5,95,140.0
2955,B-4,381.125,0.125,95,140.0
2956,G#4,381.25,0.125,95,140.0
2957,G4,381.375,0.125,95,140.0
2958,C5,381.5,0.125,95,140.0
2959,E-2,381.5,0.5,95,140.0
2960,C4,381.5,0.5,95,140.0
2961,F3,381.5,0.5,95,140.0
2962,B-2,381.5,0.5,95,140.0
2963,D2,381.5,0.5,95,140.0
2964,E-5,381.625,0.125,95,140.0
2965,F5,381.75,2.25,95,140.0
2966,C2,382.0,0.5,95,140.0
2967,B-2,382.0,0.5,95,140.0
2968,B-1,382.5,0.5,95,140.0
2969,G3,382.5,73/1000,95,140.0
2970,D3,382.5,73/1000,95,140.0
2971,A2,382.5,73/1000,95,140.0
2972,B-2,382.5,0.5,95,140.0
2973,C2,382.5,0.5,95,140.0
2974,G#1,383.0,0.5,95,140.0
2975,B-2,383.0,0.5,95,140.0
2976,C4,383.0,0.5,95,140.0
2977,F3,383.0,0.5,95,140.0
2978,F1,383.5,0.5,95,140.0
2979,B-2,383.5,0.5,95,140.0
2980,D2,383.5,0.5,95,140.0
2981,C2,384.0,1.0,95,140.0
2982,G3,384.0,1.0,95,140.0
2983,C3,384.0,1.0,95,140.0
2984,G3,384.0,1.0,95,140.0
2985,C3,384.0,1.0,95,140.0
2986,B-2,384.0,0.5,95,140.0
2987,C#3,384.0,0.5,95,140.0
2988,B-2,384.5,0.5,95,140.0
2989,C2,384.5,0.5,95,140.0
2990,C2,385.0,0.5,95,140.0
2991,B-2,385.0,0.5,95,140.0
2992,G3,385.0,0.5,95,140.0
2993,C3,385.0,0.5,95,140.0
2994,G3,385.0,0.5,95,140.0
2995,C3,385.0,0.5,95,140.0
2996,C2,385.5,0.5,95,140.0
2997,G3,385.5,0.5,95,140.0
2998,C3,385.5,0.5,95,140.0
2999,G3,385.5,0.5,95,140.0
3000,C3,385.5,0.5,95,140.0
3001,B-2,385.5,0.5,95,140.0
3002,D2,385.5,0.5,95,140.0
3003,A1,386.0,73/1000,95,140.0
3004,B-2,386.0,0.5,95,140.0
3005,G3,386.0,73/1000,95,140.0
3006,C3,386.0,73/1000,95,140.0
3007,G3,386.0,73/1000,95,140.0
3008,C3,386.0,73/1000,95,140.0
3009,C2,386.5,0.5,95,140.0
3010,G3,386.5,0.5,95,140.0
3011,C3,386.5,0.5,95,140.0
3012,G3,386.5,0.5,95,140.0
3013,C3,386.5,0.5,95,140.0
3014,B-2,386.5,0.5,95,140.0
3015,C2,386.5,0.5,95,140.0
3016,C2,387.0,0.5,95,140.0
3017,B-2,387.0,0.5,95,140.0
3018,G3,387.0,0.5,95,140.0
3019,C3,387.0,0.5,95,140.0
3020,G3,387.0,0.5,95,140.0
3021,C3,387.0,0.5,95,140.0
3022,B-2,387.5,0.5,95,140.0
3023,D2,387.5,0.5,95,140.0
3024,C2,388.0,1.0,95,140.0
3025,G3,388.0,1.0,95,140.0
3026,C3,388.0,1.0,95,140.0
3027,G3,388.0,1.0,95,140.0
3028,C3,388.0,1.0,95,140.0
3029,B-2,388.0,0.5,95,140.0
3030,C#3,388.0,0.5,95,140.0
3031,B-2,388.5,0.5,95,140.0
3032,C2,388.5,0.5,95,140.0
3033,C2,389.0,0.5,95,140.0
3034,B-2,389.0,0.5,95,140.0
3035,G3,389.0,0.5,95,140.0
3036,C3,389.0,0.5,95,140.0
3037,G3,389.0,0.5,95,140.0
3038,C3,389.0,0.5,95,140.0
3039,C2,389.5,0.5,95,140.0
3040,G3,389.5,0.5,95,140.0
3041,C3,389.5,0.5,95,140.0
3042,G3,389.5,0.5,95,140.0
3043,C3,389.5,0.5,95,140.0
3044,B-2,389.5,0.5,95,140.0
3045,D2,389.5,0.5,95,140.0
3046,A1,390.0,73/1000,95,140.0
3047,B-2,390.0,0.5,95,140.0
3048,G3,390.0,73/1000,95,140.0
3049,C3,390.0,73/1000,95,140.0
3050,G3,390.0,73/1000,95,140.0
3051,C3,390.0,73/1000,95,140.0
3052,C2,390.5,0.5,95,140.0
3053,G3,390.5,0.5,95,140.0
3054,C3,390.5,0.5,95,140.0
3055,G3,390.5,0.5,95,140.0
3056,C3,390.5,0.5,95,140.0
3057,B-2,390.5,0.5,95,140.0
3058,C2,390.5,0.5,95,140.0
3059,C2,391.0,0.5,95,140.0
3060,B-2,391.0,0.5,95,140.0
3061,G3,391.0,0.5,95,140.0
3062,C3,391.0,0.5,95,140.0
3063,G3,391.0,0.5,95,140.0
3064,C3,391.0,0.5,95,140.0
3065,B-2,391.5,0.5,95,140.0
3066,D2,391.5,0.5,95,140.0
3067,B-1,392.0,1.0,95,140.0
3068,B-2,392.0,0.5,95,140.0
3069,F3,392.0,1.0,95,140.0
3070,B-2,392.0,1.0,95,140.0
3071,F3,392.0,1.0,95,140.0
3072,B-2,392.0,1.0,95,140.0
3073,B-2,392.5,0.5,95,140.0
3074,C2,392.5,0.5,95,140.0
3075,B-1,393.0,0.5,95,140.0
3076,B-2,393.0,0.5,95,140.0
3077,F3,393.0,0.5,95,140.0
3078,B-2,393.0,0.5,95,140.0
3079,F3,393.0,0.5,95,140.0
3080,B-2,393.0,0.5,95,140.0
3081,B-1,393.5,0.5,95,140.0
3082,F3,393.5,0.5,95,140.0
3083,B-2,393.5,0.5,95,140.0
3084,F3,393.5,0.5,95,140.0
3085,B-2,393.5,0.5,95,140.0
3086,B-2,393.5,0.5,95,140.0
3087,D2,393.5,0.5,95,140.0
3088,A1,394.0,73/1000,95,140.0
3089,B-2,394.0,0.5,95,140.0
3090,A2,394.0,73/1000,95,140.0
3091,E2,394.0,73/1000,95,140.0
3092,A2,394.0,73/1000,95,140.0
3093,E2,394.0,73/1000,95,140.0
3094,B-1,394.5,0.5,95,140.0
3095,F3,394.5,0.5,95,140.0
3096,B-2,394.5,0.5,95,140.0
3097,F3,394.5,0.5,95,140.0
3098,B-2,394.5,0.5,95,140.0
3099,B-2,394.5,0.5,95,140.0
3100,C2,394.5,0.5,95,140.0
3101,B-1,395.0,0.5,95,140.0
3102,B-2,395.0,0.5,95,140.0
3103,F3,395.0,0.5,95,140.0
3104,B-2,395.0,0.5,95,140.0
3105,F3,395.0,0.5,95,140.0
3106,B-2,395.0,0.5,95,140.0
3107,B-2,395.5,0.5,95,140.0
3108,D2,395.5,0.5,95,140.0
3109,B-1,396.0,1.0,95,140.0
3110,B-2,396.0,0.5,95,140.0
3111,F3,396.0,1.0,95,140.0
3112,B-2,396.0,1.0,95,140.0
3113,F3,396.0,1.0,95,140.0
3114,B-2,396.0,1.0,95,140.0
3115,B-2,396.5,0.5,95,140.0
3116,C2,396.5,0.5,95,140.0
3117,B-1,397.0,0.5,95,140.0
3118,B-2,397.0,0.5,95,140.0
3119,F3,397.0,0.5,95,140.0
3120,B-2,397.0,0.5,95,140.0
3121,F3,397.0,0.5,95,140.0
3122,B-2,397.0,0.5,95,140.0
3123,B-1,397.5,0.5,95,140.0
3124,F3,397.5,0.5,95,140.0
3125,B-2,397.5,0.5,95,140.0
3126,F3,397.5,0.5,95,140.0
3127,B-2,397.5,0.5,95,140.0
3128,B-2,397.5,0.5,95,140.0
3129,D2,397.5,0.5,95,140.0
3130,A1,398.0,73/1000,95,140.0
3131,B-2,398.0,0.5,95,140.0
3132,A2,398.0,73/1000,95,140.0
3133,E2,398.0,73/1000,95,140.0
3134,A2,398.0,73/1000,95,140.0
3135,E2,398.0,73/1000,95,140.0
3136,B-1,398.5,0.5,95,140.0
3137,F3,398.5,0.5,95,140.0
3138,B-2,398.5,0.5,95,140.0
3139,F3,398.5,0.5,95,140.0
3140,B-2,398.5,0.5,95,140.0
3141,B-2,398.5,0.5,95,140.0
3142,C2,398.5,0.5,95,140.0
3143,B-1,399.0,0.5,95,140.0
3144,B-2,399.0,0.5,95,140.0
3145,F3,399.0,0.5,95,140.0
3146,B-2,399.0,0.5,95,140.0
3147,F3,399.0,0.5,95,140.0
3148,B-2,399.0,0.5,95,140.0
3149,B-2,399.5,0.5,95,140.0
3150,D2,399.5,0.5,95,140.0
3151,C2,400.0,1.0,95,140.0
3152,G3,400.0,1.0,95,140.0
3153,C3,400.0,1.0,95,140.0
3154,G3,400.0,1.0,95,140.0
3155,C3,400.0,1.0,95,140.0
3156,B-2,400.0,0.5,95,140.0
3157,C#3,400.0,0.5,95,140.0
3158,B-2,400.5,0.5,95,140.0
3159,C2,400.5,0.5,95,140.0
3160,C2,401.0,0.5,95,140.0
3161,B-2,401.0,0.5,95,140.0
3162,G3,401.0,0.5,95,140.0
3163,C3,401.0,0.5,95,140.0
3164,G3,401.0,0.5,95,140.0
3165,C3,401.0,0.5,95,140.0
3166,C2,401.5,0.5,95,140.0
3167,G3,401.5,0.5,95,140.0
3168,C3,401.5,0.5,95,140.0
3169,G3,401.5,0.5,95,140.0
3170,C3,401.5,0.5,95,140.0
3171,B-2,401.5,0.5,95,140.0
3172,D2,401.5,0.5,95,140.0
3173,A1,402.0,73/1000,95,140.0
3174,B-2,402.0,0.5,95,140.0
3175,G3,402.0,73/1000,95,140.0
3176,C3,402.0,73/1000,95,140.0
3177,G3,402.0,73/1000,95,140.0
3178,C3,402.0,73/1000,95,140.0
3179,C2,402.5,0.5,95,140.0
3180,G3,402.5,0.5,95,140.0
3181,C3,402.5,0.5,95,140.0
3182,G3,402.5,0.5,95,140.0
3183,C3,402.5,0.5,95,140.0
3184,B-2,402.5,0.5,95,140.0
3185,C2,402.5,0.5,95,140.0
3186,C2,403.0,0.5,95,140.0
3187,B-2,403.0,0.5,95,140.0
3188,G3,403.0,0.5,95,140.0
3189,C3,403.0,0.5,95,140.0
3190,G3,403.0,0.5,95,140.0
3191,C3,403.0,0.5,95,140.0
3192,B-2,403.5,0.5,95,140.0
3193,D2,403.5,0.5,95,140.0
3194,C2,404.0,1.0,95,140.0
3195,G3,404.0,1.0,95,140.0
3196,C3,404.0,1.0,95,140.0
3197,G3,404.0,1.0,95,140.0
3198,C3,404.0,1.0,95,140.0
3199,B-2,404.0,0.5,95,140.0
3200,C#3,404.0,0.5,95,140.0
3201,B-2,404.5,0.5,95,140.0
3202,C2,404.5,0.5,95,140.0
3203,C2,405.0,0.5,95,140.0
3204,B-2,405.0,0.5,95,140.0
3205,G3,405.0,0.5,95,140.0
3206,C3,405.0,0.5,95,140.0
3207,G3,405.0,0.5,95,140.0
3208,C3,405.0,0.5,95,140.0
3209,C2,405.5,0.5,95,140.0
3210,G3,405.5,0.5,95,140.0
3211,C3,405.5,0.5,95,140.0
3212,G3,405.5,0.5,95,140.0
3213,C3,405.5,0.5,95,140.0
3214,B-2,405.5,0.5,95,140.0
3215,D2,405.5,0.5,95,140.0
3216,A1,406.0,73/1000,95,140.0
3217,B-2,406.0,0.5,95,140.0
3218,G3,406.0,73/1000,95,140.0
3219,C3,406.0,73/1000,95,140.0
3220,G3,406.0,73/1000,95,140.0
3221,C3,406.0,73/1000,95,140.0
3222,C2,406.5,0.5,95,140.0
3223,G3,406.5,0.5,95,140.0
3224,C3,406.5,0.5,95,140.0
3225,G3,406.5,0.5,95,140.0
3226,C3,406.5,0.5,95,140.0
3227,B-2,406.5,0.5,95,140.0
3228,C2,406.5,0.5,95,140.0
3229,C2,407.0,0.5,95,140.0
3230,B-2,407.0,0.5,95,140.0
3231,G3,407.0,0.5,95,140.0
3232,C3,407.0,0.5,95,140.0
3233,G3,407.0,0.5,95,140.0
3234,C3,407.0,0.5,95,140.0
3235,B-2,407.5,0.5,95,140.0
3236,D2,407.5,0.5,95,140.0
3237,B-1,408.0,1.0,95,140.0
3238,B-2,408.0,0.5,95,140.0
3239,F3,408.0,1.0,95,140.0
3240,B-2,408.0,1.0,95,140.0
3241,F3,408.0,1.0,95,140.0
3242,B-2,408.0,1.0,95,140.0
3243,B-2,408.5,0.5,95,140.0
3244,C2,408.5,0.5,95,140.0
3245,B-1,409.0,0.5,95,140.0
3246,B-2,409.0,0.5,95,140.0
3247,F3,409.0,0.5,95,140.0
3248,B-2,409.0,0.5,95,140.0
3249,F3,409.0,0.5,95,140.0
3250,B-2,409.0,0.5,95,140.0
3251,B-1,409.5,0.5,95,140.0
3252,F3,409.5,0.5,95,140.0
3253,B-2,409.5,0.5,95,140.0
3254,F3,409.5,0.5,95,140.0
3255,B-2,409.5,0.5,95,140.0
3256,B-2,409.5,0.5,95,140.0
3257,D2,409.5,0.5,95,140.0
3258,A1,410.0,73/1000,95,140.0
3259,B-2,410.0,0.5,95,140.0
3260,A2,410.0,73/1000,95,140.0
3261,E2,410.0,73/1000,95,140.0
3262,A2,410.0,73/1000,95,140.0
3263,E2,410.0,73/1000,95,140.0
3264,B-1,410.5,0.5,95,140.0
3265,F3,410.5,0.5,95,140.0
3266,B-2,410.5,0.5,95,140.0
3267,F3,410.5,0.5,95,140.0
3268,B-2,410.5,0.5,95,140.0
3269,B-2,410.5,0.5,95,140.0
3270,C2,410.5,0.5,95,140.0
3271,B-1,411.0,0.5,95,140.0
3272,B-2,411.0,0.5,95,140.0
3273,F3,411.0,0.5,95,140.0
3274,B-2,411.0,0.5,95,140.0
3275,F3,411.0,0.5,95,140.0
3276,B-2,411.0,0.5,95,140.0
3277,B-2,411.5,0.5,95,140.0
3278,D2,411.5,0.5,95,140.0
3279,B-1,412.0,1.0,95,140.0
3280,B-2,412.0,0.5,95,140.0
3281,F3,412.0,1.0,95,140.0
3282,B-2,412.0,1.0,95,140.0
3283,F3,412.0,1.0,95,140.0
3284,B-2,412.0,1.0,95,140.0
3285,B-2,412.5,0.5,95,140.0
3286,C2,412.5,0.5,95,140.0
3287,B-1,413.0,0.5,95,140.0
3288,B-2,413.0,0.5,95,140.0
3289,F3,413.0,0.5,95,140.0
3290,B-2,413.0,0.5,95,140.0
3291,F3,413.0,0.5,95,140.0
3292,B-2,413.0,0.5,95,140.0
3293,B-1,413.5,0.5,95,140.0
3294,F3,413.5,0.5,95,140.0
3295,B-2,413.5,0.5,95,140.0
3296,F3,413.5,0.5,95,140.0
3297,B-2,413.5,0.5,95,140.0
3298,B-2,413.5,0.5,95,140.0
3299,D2,413.5,0.5,95,140.0
3300,A1,414.0,73/1000,95,140.0
3301,B-2,414.0,0.5,95,140.0
3302,A2,414.0,73/1000,95,140.0
3303,E2,414.0,73/1000,95,140.0
3304,A2,414.0,73/1000,95,140.0
3305,E2,414.0,73/1000,95,140.0
3306,E-2,414.5,0.5,95,140.0
3307,B-3,414.5,0.5,95,140.0
3308,E-3,414.5,0.5,95,140.0
3309,B-3,414.5,0.5,95,140.0
3310,E-3,414.5,0.5,95,140.0
3311,B-2,414.5,0.5,95,140.0
3312,C2,414.5,0.5,95,140.0
3313,E-2,415.0,0.5,95,140.0
3314,B-2,415.0,0.5,95,140.0
3315,B-3,415.0,0.5,95,140.0
3316,E-3,415.0,0.5,95,140.0
3317,B-3,415.0,0.5,95,140.0
3318,E-3,415.0,0.5,95,140.0
3319,B-2,415.5,0.5,95,140.0
3320,D2,415.5,0.5,95,140.0
3321,F1,416.0,1.0,95,140.0
3322,C4,416.0,1.0,95,140.0
3323,F3,416.0,1.0,95,140.0
3324,C4,416.0,1.0,95,140.0
3325,F3,416.0,1.0,95,140.0
3326,B-2,416.0,0.5,95,140.0
3327,C#3,416.0,0.5,95,140.0
3328,B-2,416.5,0.5,95,140.0
3329,C2,416.5,0.5,95,140.0
3330,F1,417.0,0.5,95,140.0
3331,B-2,417.0,0.5,95,140.0
3332,C4,417.0,0.5,95,140.0
3333,F3,417.0,0.5,95,140.0
3334,C4,417.0,0.5,95,140.0
3335,F3,417.0,0.5,95,140.0
3336,F1,417.5,0.5,95,140.0
3337,C4,417.5,0.5,95,140.0
3338,F3,417.5,0.5,95,140.0
3339,C4,417.5,0.5,95,140.0
3340,F3,417.5,0.5,95,140.0
3341,B-2,417.5,0.5,95,140.0
3342,D2,417.5,0.5,95,140.0
3343,B-2,418.0,0.5,95,140.0
3344,F1,418.5,0.5,95,140.0
3345,C4,418.5,0.5,95,140.0
3346,F3,418.5,0.5,95,140.0
3347,C4,418.5,0.5,95,140.0
3348,F3,418.5,0.5,95,140.0
3349,B-2,418.5,0.5,95,140.0
3350,C2,418.5,0.5,95,140.0
3351,B-2,419.0,0.5,95,140.0
3352,C2,419.5,0.5,95,140.0
3353,G4,419.5,0.5,95,140.0
3354,E4,419.5,0.5,95,140.0
3355,C4,419.5,0.5,95,140.0
3356,G4,419.5,0.5,95,140.0
3357,E4,419.5,0.5,95,140.0
3358,C4,419.5,0.5,95,140.0
3359,B-2,419.5,0.5,95,140.0
3360,D2,419.5,0.5,95,140.0
3361,F1,420.0,1.0,95,140.0
3362,B-2,420.0,0.5,95,140.0
3363,C4,420.0,1.0,95,140.0
3364,F3,420.0,1.0,95,140.0
3365,C4,420.0,1.0,95,140.0
3366,F3,420.0,1.0,95,140.0
3367,B-2,420.5,0.5,95,140.0
3368,C2,420.5,0.5,95,140.0
3369,B-2,421.0,0.5,95,140.0
3370,B-2,421.5,0.5,95,140.0
3371,D2,421.5,0.5,95,140.0
3372,B-2,422.0,0.5,95,140.0
3373,B-2,422.5,0.5,95,140.0
3374,C2,422.5,0.5,95,140.0
3375,B-2,423.0,0.5,95,140.0
3376,B-2,423.5,0.5,95,140.0
3377,D2,423.5,0.5,95,140.0
3378,E-2,424.0,1.0,95,140.0
3379,B-2,424.0,0.5,95,140.0
3380,B-3,424.0,1.0,95,140.0
3381,E-3,424.0,1.0,95,140.0
3382,B-3,424.0,1.0,95,140.0
3383,E-3,424.0,1.0,95,140.0
3384,B-2,424.5,0.5,95,140.0
3385,C2,424.5,0.5,95,140.0
3386,E-2,425.0,0.5,95,140.0
3387,B-2,425.0,0.5,95,140.0
3388,B-3,425.0,0.5,95,140.0
3389,E-3,425.0,0.5,95,140.0
3390,B-3,425.0,0.5,95,140.0
3391,E-3,425.0,0.5,95,140.0
3392,E-2,425.5,0.5,95,140.0
3393,B-3,425.5,0.5,95,140.0
3394,E-3,425.5,0.5,95,140.0
3395,B-3,425.5,0.5,95,140.0
3396,E-3,425.5,0.5,95,140.0
3397,B-2,425.5,0.5,95,140.0
3398,D2,425.5,0.5,95,140.0
3399,B-2,426.0,0.5,95,140.0
3400,E-2,426.5,0.5,95,140.0
3401,F4,426.5,0.5,95,140.0
3402,D4,426.5,0.5,95,140.0
3403,B-3,426.5,0.5,95,140.0
3404,F4,426.5,0.5,95,140.0
3405,D4,426.5,0.5,95,140.0
3406,B-3,426.5,0.5,95,140.0
3407,B-2,426.5,0.5,95,140.0
3408,C2,426.5,0.5,95,140.0
3409,B-2,427.0,0.5,95,140.0
3410,B-1,427.5,0.5,95,140.0
3411,F3,427.5,0.5,95,140.0
3412,B-2,427.5,0.5,95,140.0
3413,F3,427.5,0.5,95,140.0
3414,B-2,427.5,0.5,95,140.0
3415,B-2,427.5,0.5,95,140.0
3416,D2,427.5,0.5,95,140.0
3417,C2,428.0,1.0,95,140.0
3418,B-2,428.0,0.5,95,140.0
3419,G3,428.0,1.0,95,140.0
3420,C3,428.0,1.0,95,140.0
3421,G3,428.0,1.0,95,140.0
3422,C3,428.0,1.0,95,140.0
3423,B-2,428.5,0.5,95,140.0
3424,C2,428.5,0.5,95,140.0
3425,B-2,429.0,0.5,95,140.0
3426,B-2,429.5,0.5,95,140.0
3427,D2,429.5,0.5,95,140.0
3428,B-2,430.0,0.5,95,140.0
3429,B-2,430.5,0.5,95,140.0
3430,C2,430.5,0.5,95,140.0
3431,B-2,431.0,0.5,95,140.0
3432,B-2,431.5,0.5,95,140.0
3433,D2,431.5,0.5,95,140.0
3434,F1,432.0,1.0,95,140.0
3435,C4,432.0,1.0,95,140.0
3436,F3,432.0,1.0,95,140.0
3437,C4,432.0,1.0,95,140.0
3438,F3,432.0,1.0,95,140.0
3439,B-2,432.0,0.5,95,140.0
3440,C#3,432.0,0.5,95,140.0
3441,B-2,432.5,0.5,95,140.0
3442,C2,432.5,0.5,95,140.0
3443,F1,433.0,0.5,95,140.0
3444,B-2,433.0,0.5,95,140.0
3445,C4,433.0,0.5,95,140.0
3446,F3,433.0,0.5,95,140.0
3447,C4,433.0,0.5,95,140.0
3448,F3,433.0,0.5,95,140.0
3449,F1,433.5,0.5,95,140.0
3450,C4,433.5,0.5,95,140.0
3451,F3,433.5,0.5,95,140.0
3452,C4,433.5,0.5,95,140.0
3453,F3,433.5,0.5,95,140.0
3454,B-2,433.5,0.5,95,140.0
3455,D2,433.5,0.5,95,140.0
3456,B-2,434.0,0.5,95,140.0
3457,F1,434.5,0.5,95,140.0
3458,C4,434.5,0.5,95,140.0
3459,F3,434.5,0.5,95,140.0
3460,C4,434.5,0.5,95,140.0
3461,F3,434.5,0.5,95,140.0
3462,B-2,434.5,0.5,95,140.0
3463,C2,434.5,0.5,95,140.0
3464,B-2,435.0,0.5,95,140.0
3465,C2,435.5,0.5,95,140.0
3466,G4,435.5,0.5,95,140.0
3467,E4,435.5,0.5,95,140.0
3468,C4,435.5,0.5,95,140.0
3469,G4,435.5,0.5,95,140.0
3470,E4,435.5,0.5,95,140.0
3471,C4,435.5,0.5,95,140.0
3472,B-2,435.5,0.5,95,140.0
3473,D2,435.5,0.5,95,140.0
3474,F1,436.0,1.0,95,140.0
3475,B-2,436.0,0.5,95,140.0
3476,C4,436.0,1.0,95,140.0
3477,F3,436.0,1.0,95,140.0
3478,C4,436.0,1.0,95,140.0
3479,F3,436.0,1.0,95,140.0
3480,B-2,436.5,0.5,95,140.0
3481,C2,436.5,0.5,95,140.0
3482,B-2,437.0,0.5,95,140.0
3483,B-2,437.5,0.5,95,140.0
3484,D2,437.5,0.5,95,140.0
3485,B-2,438.0,0.5,95,140.0
3486,B-2,438.5,0.5,95,140.0
3487,C2,438.5,0.5,95,140.0
3488,B-2,439.0,0.5,95,140.0
3489,B-2,439.5,0.5,95,140.0
3490,D2,439.5,0.5,95,140.0
3491,E-2,440.0,1.0,95,140.0
3492,B-2,440.0,0.5,95,140.0
3493,B-3,440.0,1.0,95,140.0
3494,E-3,440.0,1.0,95,140.0
3495,B-3,440.0,1.0,95,140.0
3496,E-3,440.0,1.0,95,140.0
3497,B-2,440.5,0.5,95,140.0
3498,C2,440.5,0.5,95,140.0
3499,E-2,441.0,0.5,95,140.0
3500,B-2,441.0,0.5,95,140.0
3501,B-3,441.0,0.5,95,140.0
3502,E-3,441.0,0.5,95,140.0
3503,B-3,441.0,0.5,95,140.0
3504,E-3,441.0,0.5,95,140.0
3505,E-2,441.5,0.5,95,140.0
3506,B-3,441.5,0.5,95,140.0
3507,E-3,441.5,0.5,95,140.0
3508,B-3,441.5,0.5,95,140.0
3509,E-3,441.5,0.5,95,140.0
3510,B-2,441.5,0.5,95,140.0
3511,D2,441.5,0.5,95,140.0
3512,B-2,442.0,0.5,95,140.0
3513,E-2,442.5,0.5,95,140.0
3514,F4,442.5,0.5,95,140.0
3515,D4,442.5,0.5,95,140.0
3516,B-3,442.5,0.5,95,140.0
3517,F4,442.5,0.5,95,140.0
3518,D4,442.5,0.5,95,140.0
3519,B-3,442.5,0.5,95,140.0
3520,B-2,442.5,0.5,95,140.0
3521,C2,442.5,0.5,95,140.0
3522,B-2,443.0,0.5,95,140.0
3523,B-1,443.5,0.5,95,140.0
3524,F3,443.5,0.5,95,140.0
3525,B-2,443.5,0.5,95,140.0
3526,F3,443.5,0.5,95,140.0
3527,B-2,443.5,0.5,95,140.0
3528,B-2,443.5,0.5,95,140.0
3529,D2,443.5,0.5,95,140.0
3530,C2,444.0,1.0,95,140.0
3531,G3,444.0,1.0,95,140.0
3532,C3,444.0,1.0,95,140.0
3533,G3,444.0,1.0,95,140.0
3534,C3,444.0,1.0,95,140.0
3535,D2,444.5,0.5,95,140.0
3536,C2,444.5,0.5,95,140.0
3537,B-2,444.5,0.5,95,140.0
3538,D2,445.0,0.5,95,140.0
3539,C2,445.0,0.5,95,140.0
3540,B-2,445.0,0.5,95,140.0
3541,D2,445.5,0.5,95,140.0
3542,C2,445.5,0.5,95,140.0
3543,B-2,445.5,0.5,95,140.0
3544,D2,446.0,0.5,95,140.0
3545,C2,446.0,0.5,95,140.0
3546,B-2,446.0,0.5,95,140.0
3547,D2,446.5,0.5,95,140.0
3548,C2,446.5,0.5,95,140.0
3549,B-2,446.5,0.5,95,140.0
3550,D2,447.0,0.5,95,140.0
3551,C2,447.0,0.5,95,140.0
3552,B-2,447.0,0.5,95,140.0
3553,D2,447.5,0.5,95,140.0
3554,C2,447.5,0.5,95,140.0
3555,B-2,447.5,0.5,95,140.0
3556,C2,448.0,0.5,95,140.0
3557,D2,448.0,0.5,95,140.0
3558,C2,448.0,0.5,95,140.0
3559,B-2,448.0,0.5,95,140.0
3560,C3,448.5,0.25,95,140.0
3561,D2,448.5,0.5,95,140.0
3562,C2,448.5,0.5,95,140.0
3563,B-2,448.5,0.5,95,140.0
3564,B-2,448.75,0.25,95,140.0
3565,C3,449.0,0.25,95,140.0
3566,D2,449.0,0.5,95,140.0
3567,C2,449.0,0.5,95,140.0
3568,B-2,449.0,0.5,95,140.0
3569,B-2,449.25,0.25,95,140.0
3570,C3,449.5,0.25,95,140.0
3571,D2,449.5,0.5,95,140.0
3572,C2,449.5,0.5,95,140.0
3573,B-2,449.5,0.5,95,140.0
3574,B-2,449.75,0.25,95,140.0
3575,G2,450.0,0.25,95,140.0
3576,D2,450.0,0.5,95,140.0
3577,C2,450.0,0.5,95,140.0
3578,B-2,450.0,0.5,95,140.0
3579,F2,450.25,0.25,95,140.0
3580,F2,450.5,0.25,95,140.0
3581,D2,450.5,0.5,95,140.0
3582,C2,450.5,0.5,95,140.0
3583,B-2,450.5,0.5,95,140.0
3584,G2,450.75,0.25,95,140.0
3585,G2,451.0,0.25,95,140.0
3586,D2,451.0,0.5,95,140.0
3587,C2,451.0,0.5,95,140.0
3588,B-2,451.0,0.5,95,140.0
3589,F2,451.25,0.25,95,140.0
3590,D2,451.5,0.25,95,140.0
3591,D2,451.5,0.5,95,140.0
3592,C2,451.5,0.5,95,140.0
3593,B-2,451.5,0.5,95,140.0
3594,C2,451.75,0.25,95,140.0
3595,C2,452.0,1.0,95,140.0
3596,B-3,452.0,1.0,95,140.0
3597,E-3,452.0,1.0,95,140.0
3598,B-3,452.0,1.0,95,140.0
3599,E-3,452.0,1.0,95,140.0
3600,B-2,452.0,1.0,95,140.0
3601,C#3,452.0,1.0,95,140.0
3602,C2,452.0,1.0,95,140.0
3603,F1,453.0,0.5,95,140.0
3604,C4,453.0,0.5,95,140.0
3605,F3,453.0,0.5,95,140.0
3606,C4,453.0,0.5,95,140.0
3607,F3,453.0,0.5,95,140.0
3608,D2,453.0,0.5,95,140.0
3609,D2,453.0,0.5,95,140.0
3610,C#3,453.0,0.5,95,140.0
3611,F1,453.5,0.5,95,140.0
3612,C4,453.5,0.5,95,140.0
3613,F3,453.5,0.5,95,140.0
3614,C4,453.5,0.5,95,140.0
3615,F3,453.5,0.5,95,140.0
3616,D2,453.5,0.5,95,140.0
3617,D2,453.5,0.5,95,140.0
3618,C#3,453.5,0.5,95,140.0
3619,F1,454.0,0.5,95,140.0
3620,C4,454.0,0.5,95,140.0
3621,F3,454.0,0.5,95,140.0
3622,C4,454.0,0.5,95,140.0
3623,F3,454.0,0.5,95,140.0
3624,D2,454.0,0.5,95,140.0
3625,D2,454.0,0.5,95,140.0
3626,C#3,454.0,0.5,95,140.0
