,note_name,start_time,duration,velocity,tempo
0,B3,0.0,27/500,95,105.0
1,G3,0.0,27/500,95,105.0
2,D3,0.0,27/500,95,105.0
3,A2,0.0,27/500,95,105.0
4,E2,0.0,27/500,95,105.0
5,B3,0.5,27/500,95,105.0
6,G3,0.5,27/500,95,105.0
7,D3,0.5,27/500,95,105.0
8,A2,0.5,27/500,95,105.0
9,E2,0.5,27/500,95,105.0
10,B3,0.75,27/500,95,105.0
11,G3,0.75,27/500,95,105.0
12,D3,0.75,27/500,95,105.0
13,A2,0.75,27/500,95,105.0
14,E2,0.75,27/500,95,105.0
15,B3,1.0,27/500,95,105.0
16,G3,1.0,27/500,95,105.0
17,D3,1.0,27/500,95,105.0
18,A2,1.0,27/500,95,105.0
19,E2,1.0,27/500,95,105.0
20,B3,1.25,27/500,95,105.0
21,G3,1.25,27/500,95,105.0
22,D3,1.25,27/500,95,105.0
23,A2,1.25,27/500,95,105.0
24,E2,1.25,27/500,95,105.0
25,B3,1.75,27/500,95,105.0
26,G3,1.75,27/500,95,105.0
27,D3,1.75,27/500,95,105.0
28,A2,1.75,27/500,95,105.0
29,E2,1.75,27/500,95,105.0
30,B3,2.25,27/500,95,105.0
31,G3,2.25,27/500,95,105.0
32,D3,2.25,27/500,95,105.0
33,A2,2.25,27/500,95,105.0
34,E2,2.25,27/500,95,105.0
35,B3,2.75,27/500,95,105.0
36,G3,2.75,27/500,95,105.0
37,D3,2.75,27/500,95,105.0
38,A2,2.75,27/500,95,105.0
39,E2,2.75,27/500,95,105.0
40,B3,2.875,27/500,95,105.0
41,G3,2.875,27/500,95,105.0
42,D3,2.875,27/500,95,105.0
43,A2,2.875,27/500,95,105.0
44,E2,2.875,27/500,95,105.0
45,B3,3.0,27/500,95,105.0
46,G3,3.0,27/500,95,105.0
47,D3,3.0,27/500,95,105.0
48,A2,3.0,27/500,95,105.0
49,E2,3.0,27/500,95,105.0
50,B3,3.25,27/500,95,105.0
51,G3,3.25,27/500,95,105.0
52,D3,3.25,27/500,95,105.0
53,A2,3.25,27/500,95,105.0
54,E2,3.25,27/500,95,105.0
55,B3,3.5,27/500,95,105.0
56,G3,3.5,27/500,95,105.0
57,D3,3.5,27/500,95,105.0
58,A2,3.5,27/500,95,105.0
59,E2,3.5,27/500,95,105.0
60,B3,3.75,27/500,95,105.0
61,G3,3.75,27/500,95,105.0
62,D3,3.75,27/500,95,105.0
63,A2,3.75,27/500,95,105.0
64,E2,3.75,27/500,95,105.0
65,E3,4.0,2.0,95,105.0
66,B2,4.0,2.0,95,105.0
67,E2,4.0,2.0,95,105.0
68,E4,6.0,27/500,95,105.0
69,B3,6.0,27/500,95,105.0
70,G3,6.0,27/500,95,105.0
71,D3,6.0,27/500,95,105.0
72,A2,6.0,27/500,95,105.0
73,E2,6.0,27/500,95,105.0
74,E4,6.25,27/500,95,105.0
75,B3,6.25,27/500,95,105.0
76,G3,6.25,27/500,95,105.0
77,D3,6.25,27/500,95,105.0
78,A2,6.25,27/500,95,105.0
79,E2,6.25,27/500,95,105.0
80,E2,6.5,27/500,95,105.0
81,E2,6.75,27/500,95,105.0
82,E2,7.0,0.25,95,105.0
83,A2,7.25,0.25,70,105.0
84,B2,7.5,0.25,95,105.0
85,D3,7.75,0.25,95,105.0
86,A3,8.0,0.75,95,105.0
87,E3,8.0,0.75,95,105.0
88,A2,8.0,0.75,95,105.0
89,A3,8.75,0.75,95,105.0
90,E3,8.75,0.75,95,105.0
91,A2,8.75,0.75,95,105.0
92,D4,9.5,1.25,95,105.0
93,A3,9.5,1.25,95,105.0
94,D3,9.5,1.25,95,105.0
95,E2,10.0,27/500,95,105.0
96,E2,10.75,27/500,95,105.0
97,E2,11.0,0.25,95,105.0
98,A2,11.25,0.25,95,105.0
99,B2,11.5,0.25,95,105.0
100,D3,11.75,0.25,95,105.0
101,E3,12.0,2.0,95,105.0
102,B2,12.0,2.0,95,105.0
103,E2,12.0,2.0,95,105.0
104,E4,14.0,27/500,95,105.0
105,B3,14.0,27/500,95,105.0
106,G3,14.0,27/500,95,105.0
107,D3,14.0,27/500,95,105.0
108,A2,14.0,27/500,95,105.0
109,E2,14.0,27/500,95,105.0
110,E4,14.25,27/500,95,105.0
111,B3,14.25,27/500,95,105.0
112,G3,14.25,27/500,95,105.0
113,D3,14.25,27/500,95,105.0
114,A2,14.25,27/500,95,105.0
115,E2,14.25,27/500,95,105.0
116,E2,14.5,27/500,95,105.0
117,E2,14.75,27/500,95,105.0
118,E2,15.0,0.25,95,105.0
119,A2,15.25,0.25,70,105.0
120,B2,15.5,0.25,95,105.0
121,D3,15.75,0.25,95,105.0
122,A3,16.0,0.75,95,105.0
123,E3,16.0,0.75,95,105.0
124,A2,16.0,0.75,95,105.0
125,A3,16.75,0.75,95,105.0
126,E3,16.75,0.75,95,105.0
127,A2,16.75,0.75,95,105.0
128,D4,17.5,1.25,95,105.0
129,A3,17.5,1.25,95,105.0
130,D3,17.5,1.25,95,105.0
131,E2,18.0,27/500,95,105.0
132,E2,18.75,27/500,95,105.0
133,G3,19.0,0.25,95,105.0
134,E3,19.25,0.25,95,105.0
135,D3,19.5,0.25,95,105.0
136,B2,19.75,0.25,95,105.0
137,E3,20.0,2.0,95,105.0
138,B2,20.0,2.0,95,105.0
139,E2,20.0,2.0,95,105.0
140,E4,22.0,27/500,95,105.0
141,B3,22.0,27/500,95,105.0
142,G3,22.0,27/500,95,105.0
143,D3,22.0,27/500,95,105.0
144,A2,22.0,27/500,95,105.0
145,E2,22.0,27/500,95,105.0
146,E4,22.25,27/500,95,105.0
147,B3,22.25,27/500,95,105.0
148,G3,22.25,27/500,95,105.0
149,D3,22.25,27/500,95,105.0
150,A2,22.25,27/500,95,105.0
151,E2,22.25,27/500,95,105.0
152,E2,22.5,27/500,95,105.0
153,E2,22.75,27/500,95,105.0
154,E2,23.0,0.25,95,105.0
155,A2,23.25,0.25,70,105.0
156,B2,23.5,0.25,95,105.0
157,D3,23.75,0.25,95,105.0
158,A3,24.0,0.75,95,105.0
159,E3,24.0,0.75,95,105.0
160,A2,24.0,0.75,95,105.0
161,A3,24.75,0.75,95,105.0
162,E3,24.75,0.75,95,105.0
163,A2,24.75,0.75,95,105.0
164,D4,25.5,1.25,95,105.0
165,A3,25.5,1.25,95,105.0
166,D3,25.5,1.25,95,105.0
167,E2,26.0,27/500,95,105.0
168,E2,26.75,27/500,95,105.0
169,E2,27.0,0.25,95,105.0
170,A2,27.25,0.25,95,105.0
171,B2,27.5,0.25,95,105.0
172,D3,27.75,0.25,95,105.0
173,E3,28.0,2.0,95,105.0
174,B2,28.0,2.0,95,105.0
175,E2,28.0,2.0,95,105.0
176,E4,30.0,27/500,95,105.0
177,B3,30.0,27/500,95,105.0
178,G3,30.0,27/500,95,105.0
179,D3,30.0,27/500,95,105.0
180,A2,30.0,27/500,95,105.0
181,E2,30.0,27/500,95,105.0
182,E4,30.25,27/500,95,105.0
183,B3,30.25,27/500,95,105.0
184,G3,30.25,27/500,95,105.0
185,D3,30.25,27/500,95,105.0
186,A2,30.25,27/500,95,105.0
187,E2,30.25,27/500,95,105.0
188,E2,30.5,27/500,95,105.0
189,E2,30.75,27/500,95,105.0
190,E2,31.0,0.25,95,105.0
191,A2,31.25,0.25,70,105.0
192,B2,31.5,0.25,95,105.0
193,D3,31.75,0.25,95,105.0
194,A3,32.0,0.75,95,105.0
195,E3,32.0,0.75,95,105.0
196,A2,32.0,0.75,95,105.0
197,A3,32.75,0.75,95,105.0
198,E3,32.75,0.75,95,105.0
199,A2,32.75,0.75,95,105.0
200,D4,33.5,1.25,95,105.0
201,A3,33.5,1.25,95,105.0
202,D3,33.5,1.25,95,105.0
203,E2,34.0,27/500,95,105.0
204,E2,34.75,27/500,95,105.0
205,E3,35.0,1.0,95,105.0
206,E2,35.0,1.0,95,105.0
207,E1,36.0,2.0,95,105.0
208,E3,36.0,2.0,95,105.0
209,B2,36.0,2.0,95,105.0
210,E2,36.0,2.0,95,105.0
211,E3,36.0,2.0,95,105.0
212,B2,36.0,2.0,95,105.0
213,E2,36.0,2.0,95,105.0
214,B-2,36.0,0.5,95,105.0
215,B1,36.0,0.5,95,105.0
216,B-2,36.5,0.5,95,105.0
217,B-2,37.0,0.5,95,105.0
218,D2,37.0,0.5,95,105.0
219,B-2,37.5,0.5,95,105.0
220,E1,38.0,0.25,95,105.0
221,E4,38.0,27/500,95,105.0
222,B3,38.0,27/500,95,105.0
223,G3,38.0,27/500,95,105.0
224,D3,38.0,27/500,95,105.0
225,A2,38.0,27/500,95,105.0
226,E2,38.0,27/500,95,105.0
227,E4,38.0,27/500,95,105.0
228,B3,38.0,27/500,95,105.0
229,G3,38.0,27/500,95,105.0
230,D3,38.0,27/500,95,105.0
231,A2,38.0,27/500,95,105.0
232,E2,38.0,27/500,95,105.0
233,B-2,38.0,0.25,95,105.0
234,B1,38.0,0.25,95,105.0
235,B1,38.25,0.25,95,105.0
236,E4,38.25,27/500,95,105.0
237,B3,38.25,27/500,95,105.0
238,G3,38.25,27/500,95,105.0
239,D3,38.25,27/500,95,105.0
240,A2,38.25,27/500,95,105.0
241,E2,38.25,27/500,95,105.0
242,E4,38.25,27/500,95,105.0
243,B3,38.25,27/500,95,105.0
244,G3,38.25,27/500,95,105.0
245,D3,38.25,27/500,95,105.0
246,A2,38.25,27/500,95,105.0
247,E2,38.25,27/500,95,105.0
248,E2,38.5,27/500,95,105.0
249,E2,38.5,27/500,95,105.0
250,B-2,38.5,0.25,95,105.0
251,E2,38.75,27/500,95,105.0
252,E2,38.75,27/500,95,105.0
253,E1,38.75,0.25,95,105.0
254,E2,39.0,0.25,95,105.0
255,B-2,39.0,0.5,95,105.0
256,D2,39.0,0.5,95,105.0
257,A2,39.25,0.25,70,105.0
258,B2,39.5,0.25,95,105.0
259,E1,39.5,0.25,95,105.0
260,B-2,39.5,0.5,95,105.0
261,D3,39.75,0.25,95,105.0
262,A1,40.0,0.75,95,105.0
263,A3,40.0,0.75,95,105.0
264,E3,40.0,0.75,95,105.0
265,A2,40.0,0.75,95,105.0
266,A3,40.0,0.75,95,105.0
267,E3,40.0,0.75,95,105.0
268,A2,40.0,0.75,95,105.0
269,B-2,40.0,0.5,95,105.0
270,B1,40.0,0.5,95,105.0
271,B-2,40.5,0.5,95,105.0
272,A1,40.75,0.75,95,105.0
273,A3,40.75,0.75,95,105.0
274,E3,40.75,0.75,95,105.0
275,A2,40.75,0.75,95,105.0
276,A3,40.75,0.75,95,105.0
277,E3,40.75,0.75,95,105.0
278,A2,40.75,0.75,95,105.0
279,B-2,41.0,0.5,95,105.0
280,D2,41.0,0.5,95,105.0
281,D2,41.5,0.5,95,105.0
282,B-2,41.5,0.5,95,105.0
283,D4,41.5,1.25,95,105.0
284,A3,41.5,1.25,95,105.0
285,D3,41.5,1.25,95,105.0
286,D4,41.5,1.25,95,105.0
287,A3,41.5,1.25,95,105.0
288,D3,41.5,1.25,95,105.0
289,E2,42.0,27/500,95,105.0
290,E2,42.0,27/500,95,105.0
291,D2,42.0,0.25,95,105.0
292,B-2,42.0,0.25,95,105.0
293,B1,42.0,0.25,95,105.0
294,B1,42.25,0.25,95,105.0
295,B-2,42.5,0.25,95,105.0
296,E2,42.75,27/500,95,105.0
297,E2,42.75,27/500,95,105.0
298,D2,42.75,0.25,95,105.0
299,E2,43.0,0.25,95,105.0
300,B-2,43.0,0.5,95,105.0
301,D2,43.0,0.5,95,105.0
302,A2,43.25,0.25,95,105.0
303,B2,43.5,0.25,95,105.0
304,D2,43.5,0.25,95,105.0
305,B-2,43.5,0.5,95,105.0
306,D3,43.75,0.25,95,105.0
307,E1,44.0,2.0,95,105.0
308,E3,44.0,2.0,95,105.0
309,B2,44.0,2.0,95,105.0
310,E2,44.0,2.0,95,105.0
311,E3,44.0,2.0,95,105.0
312,B2,44.0,2.0,95,105.0
313,E2,44.0,2.0,95,105.0
314,B-2,44.0,0.5,95,105.0
315,B1,44.0,0.5,95,105.0
316,B-2,44.5,0.5,95,105.0
317,B-2,45.0,0.5,95,105.0
318,D2,45.0,0.5,95,105.0
319,B-2,45.5,0.5,95,105.0
320,E1,46.0,0.25,95,105.0
321,E4,46.0,27/500,95,105.0
322,B3,46.0,27/500,95,105.0
323,G3,46.0,27/500,95,105.0
324,D3,46.0,27/500,95,105.0
325,A2,46.0,27/500,95,105.0
326,E2,46.0,27/500,95,105.0
327,E4,46.0,27/500,95,105.0
328,B3,46.0,27/500,95,105.0
329,G3,46.0,27/500,95,105.0
330,D3,46.0,27/500,95,105.0
331,A2,46.0,27/500,95,105.0
332,E2,46.0,27/500,95,105.0
333,B-2,46.0,0.25,95,105.0
334,B1,46.0,0.25,95,105.0
335,B1,46.25,0.25,95,105.0
336,E4,46.25,27/500,95,105.0
337,B3,46.25,27/500,95,105.0
338,G3,46.25,27/500,95,105.0
339,D3,46.25,27/500,95,105.0
340,A2,46.25,27/500,95,105.0
341,E2,46.25,27/500,95,105.0
342,E4,46.25,27/500,95,105.0
343,B3,46.25,27/500,95,105.0
344,G3,46.25,27/500,95,105.0
345,D3,46.25,27/500,95,105.0
346,A2,46.25,27/500,95,105.0
347,E2,46.25,27/500,95,105.0
348,E2,46.5,27/500,95,105.0
349,E2,46.5,27/500,95,105.0
350,B-2,46.5,0.25,95,105.0
351,E2,46.75,27/500,95,105.0
352,E2,46.75,27/500,95,105.0
353,E1,46.75,0.25,95,105.0
354,E2,47.0,0.25,95,105.0
355,B-2,47.0,0.5,95,105.0
356,D2,47.0,0.5,95,105.0
357,A2,47.25,0.25,70,105.0
358,B2,47.5,0.25,95,105.0
359,E1,47.5,0.25,95,105.0
360,B-2,47.5,0.5,95,105.0
361,D3,47.75,0.25,95,105.0
362,A1,48.0,0.75,95,105.0
363,A3,48.0,0.75,95,105.0
364,E3,48.0,0.75,95,105.0
365,A2,48.0,0.75,95,105.0
366,A3,48.0,0.75,95,105.0
367,E3,48.0,0.75,95,105.0
368,A2,48.0,0.75,95,105.0
369,B-2,48.0,0.5,95,105.0
370,B1,48.0,0.5,95,105.0
371,B-2,48.5,0.5,95,105.0
372,A1,48.75,0.75,95,105.0
373,A3,48.75,0.75,95,105.0
374,E3,48.75,0.75,95,105.0
375,A2,48.75,0.75,95,105.0
376,A3,48.75,0.75,95,105.0
377,E3,48.75,0.75,95,105.0
378,A2,48.75,0.75,95,105.0
379,B-2,49.0,0.5,95,105.0
380,D2,49.0,0.5,95,105.0
381,D2,49.5,0.5,95,105.0
382,B-2,49.5,0.5,95,105.0
383,D4,49.5,1.25,95,105.0
384,A3,49.5,1.25,95,105.0
385,D3,49.5,1.25,95,105.0
386,D4,49.5,1.25,95,105.0
387,A3,49.5,1.25,95,105.0
388,D3,49.5,1.25,95,105.0
389,E2,50.0,27/500,95,105.0
390,E2,50.0,27/500,95,105.0
391,D2,50.0,0.25,95,105.0
392,B-2,50.0,0.25,95,105.0
393,B1,50.0,0.25,95,105.0
394,B1,50.25,0.25,95,105.0
395,B-2,50.5,0.25,95,105.0
396,E2,50.75,27/500,95,105.0
397,E2,50.75,27/500,95,105.0
398,D2,50.75,0.25,95,105.0
399,G3,51.0,0.25,95,105.0
400,B-2,51.0,0.5,95,105.0
401,D2,51.0,0.5,95,105.0
402,E3,51.25,0.25,95,105.0
403,D3,51.5,0.25,95,105.0
404,D2,51.5,0.25,95,105.0
405,B-2,51.5,0.5,95,105.0
406,B2,51.75,0.25,95,105.0
407,E1,52.0,2.0,95,105.0
408,E3,52.0,2.0,95,105.0
409,B2,52.0,2.0,95,105.0
410,E2,52.0,2.0,95,105.0
411,E3,52.0,2.0,95,105.0
412,B2,52.0,2.0,95,105.0
413,E2,52.0,2.0,95,105.0
414,B-2,52.0,0.5,95,105.0
415,B1,52.0,0.5,95,105.0
416,B-2,52.5,0.5,95,105.0
417,B-2,53.0,0.5,95,105.0
418,D2,53.0,0.5,95,105.0
419,B-2,53.5,0.5,95,105.0
420,E1,54.0,0.25,95,105.0
421,E4,54.0,27/500,95,105.0
422,B3,54.0,27/500,95,105.0
423,G3,54.0,27/500,95,105.0
424,D3,54.0,27/500,95,105.0
425,A2,54.0,27/500,95,105.0
426,E2,54.0,27/500,95,105.0
427,E4,54.0,27/500,95,105.0
428,B3,54.0,27/500,95,105.0
429,G3,54.0,27/500,95,105.0
430,D3,54.0,27/500,95,105.0
431,A2,54.0,27/500,95,105.0
432,E2,54.0,27/500,95,105.0
433,B-2,54.0,0.25,95,105.0
434,B1,54.0,0.25,95,105.0
435,B1,54.25,0.25,95,105.0
436,E4,54.25,27/500,95,105.0
437,B3,54.25,27/500,95,105.0
438,G3,54.25,27/500,95,105.0
439,D3,54.25,27/500,95,105.0
440,A2,54.25,27/500,95,105.0
441,E2,54.25,27/500,95,105.0
442,E4,54.25,27/500,95,105.0
443,B3,54.25,27/500,95,105.0
444,G3,54.25,27/500,95,105.0
445,D3,54.25,27/500,95,105.0
446,A2,54.25,27/500,95,105.0
447,E2,54.25,27/500,95,105.0
448,E2,54.5,27/500,95,105.0
449,E2,54.5,27/500,95,105.0
450,B-2,54.5,0.25,95,105.0
451,E2,54.75,27/500,95,105.0
452,E2,54.75,27/500,95,105.0
453,E1,54.75,0.25,95,105.0
454,E2,55.0,0.25,95,105.0
455,B-2,55.0,0.5,95,105.0
456,D2,55.0,0.5,95,105.0
457,A2,55.25,0.25,70,105.0
458,B2,55.5,0.25,95,105.0
459,E1,55.5,0.25,95,105.0
460,B-2,55.5,0.5,95,105.0
461,D3,55.75,0.25,95,105.0
462,A1,56.0,0.75,95,105.0
463,A3,56.0,0.75,95,105.0
464,E3,56.0,0.75,95,105.0
465,A2,56.0,0.75,95,105.0
466,A3,56.0,0.75,95,105.0
467,E3,56.0,0.75,95,105.0
468,A2,56.0,0.75,95,105.0
469,B-2,56.0,0.5,95,105.0
470,B1,56.0,0.5,95,105.0
471,B-2,56.5,0.5,95,105.0
472,A1,56.75,0.75,95,105.0
473,A3,56.75,0.75,95,105.0
474,E3,56.75,0.75,95,105.0
475,A2,56.75,0.75,95,105.0
476,A3,56.75,0.75,95,105.0
477,E3,56.75,0.75,95,105.0
478,A2,56.75,0.75,95,105.0
479,B-2,57.0,0.5,95,105.0
480,D2,57.0,0.5,95,105.0
481,D2,57.5,0.5,95,105.0
482,B-2,57.5,0.5,95,105.0
483,D4,57.5,1.25,95,105.0
484,A3,57.5,1.25,95,105.0
485,D3,57.5,1.25,95,105.0
486,D4,57.5,1.25,95,105.0
487,A3,57.5,1.25,95,105.0
488,D3,57.5,1.25,95,105.0
489,E2,58.0,27/500,95,105.0
490,E2,58.0,27/500,95,105.0
491,D2,58.0,0.25,95,105.0
492,B-2,58.0,0.25,95,105.0
493,B1,58.0,0.25,95,105.0
494,B1,58.25,0.25,95,105.0
495,B-2,58.5,0.25,95,105.0
496,E2,58.75,27/500,95,105.0
497,E2,58.75,27/500,95,105.0
498,D2,58.75,0.25,95,105.0
499,E2,59.0,0.25,95,105.0
500,B-2,59.0,0.5,95,105.0
501,D2,59.0,0.5,95,105.0
502,A2,59.25,0.25,95,105.0
503,B2,59.5,0.25,95,105.0
504,D2,59.5,0.25,95,105.0
505,B-2,59.5,0.5,95,105.0
506,D3,59.75,0.25,95,105.0
507,E1,60.0,2.0,95,105.0
508,E3,60.0,2.0,95,105.0
509,B2,60.0,2.0,95,105.0
510,E2,60.0,2.0,95,105.0
511,E3,60.0,2.0,95,105.0
512,B2,60.0,2.0,95,105.0
513,E2,60.0,2.0,95,105.0
514,B-2,60.0,0.5,95,105.0
515,B1,60.0,0.5,95,105.0
516,B-2,60.5,0.5,95,105.0
517,B-2,61.0,0.5,95,105.0
518,D2,61.0,0.5,95,105.0
519,B-2,61.5,0.5,95,105.0
520,E1,62.0,0.25,95,105.0
521,E4,62.0,27/500,95,105.0
522,B3,62.0,27/500,95,105.0
523,G3,62.0,27/500,95,105.0
524,D3,62.0,27/500,95,105.0
525,A2,62.0,27/500,95,105.0
526,E2,62.0,27/500,95,105.0
527,E4,62.0,27/500,95,105.0
528,B3,62.0,27/500,95,105.0
529,G3,62.0,27/500,95,105.0
530,D3,62.0,27/500,95,105.0
531,A2,62.0,27/500,95,105.0
532,E2,62.0,27/500,95,105.0
533,B-2,62.0,0.25,95,105.0
534,B1,62.0,0.25,95,105.0
535,B1,62.25,0.25,95,105.0
536,E4,62.25,27/500,95,105.0
537,B3,62.25,27/500,95,105.0
538,G3,62.25,27/500,95,105.0
539,D3,62.25,27/500,95,105.0
540,A2,62.25,27/500,95,105.0
541,E2,62.25,27/500,95,105.0
542,E4,62.25,27/500,95,105.0
543,B3,62.25,27/500,95,105.0
544,G3,62.25,27/500,95,105.0
545,D3,62.25,27/500,95,105.0
546,A2,62.25,27/500,95,105.0
547,E2,62.25,27/500,95,105.0
548,E2,62.5,27/500,95,105.0
549,E2,62.5,27/500,95,105.0
550,B-2,62.5,0.25,95,105.0
551,E2,62.75,27/500,95,105.0
552,E2,62.75,27/500,95,105.0
553,E1,62.75,0.25,95,105.0
554,E2,63.0,0.25,95,105.0
555,B-2,63.0,0.5,95,105.0
556,D2,63.0,0.5,95,105.0
557,A2,63.25,0.25,70,105.0
558,B2,63.5,0.25,95,105.0
559,E1,63.5,0.25,95,105.0
560,B-2,63.5,0.5,95,105.0
561,D3,63.75,0.25,95,105.0
562,A1,64.0,0.75,95,105.0
563,A3,64.0,0.75,95,105.0
564,E3,64.0,0.75,95,105.0
565,A2,64.0,0.75,95,105.0
566,A3,64.0,0.75,95,105.0
567,E3,64.0,0.75,95,105.0
568,A2,64.0,0.75,95,105.0
569,B-2,64.0,0.5,95,105.0
570,B1,64.0,0.5,95,105.0
571,B-2,64.5,0.5,95,105.0
572,A1,64.75,0.75,95,105.0
573,A3,64.75,0.75,95,105.0
574,E3,64.75,0.75,95,105.0
575,A2,64.75,0.75,95,105.0
576,A3,64.75,0.75,95,105.0
577,E3,64.75,0.75,95,105.0
578,A2,64.75,0.75,95,105.0
579,B-2,65.0,0.5,95,105.0
580,D2,65.0,0.5,95,105.0
581,D2,65.5,0.5,95,105.0
582,B-2,65.5,0.5,95,105.0
583,D4,65.5,1.25,95,105.0
584,A3,65.5,1.25,95,105.0
585,D3,65.5,1.25,95,105.0
586,D4,65.5,1.25,95,105.0
587,A3,65.5,1.25,95,105.0
588,D3,65.5,1.25,95,105.0
589,E2,66.0,27/500,95,105.0
590,E2,66.0,27/500,95,105.0
591,D2,66.0,0.25,95,105.0
592,B-2,66.0,0.25,95,105.0
593,B1,66.0,0.25,95,105.0
594,B1,66.25,0.25,95,105.0
595,B-2,66.5,0.25,95,105.0
596,E2,66.75,27/500,95,105.0
597,E2,66.75,27/500,95,105.0
598,D2,66.75,0.25,95,105.0
599,G3,67.0,0.25,95,105.0
600,B-2,67.0,0.5,95,105.0
601,D2,67.0,0.5,95,105.0
602,E3,67.25,0.25,95,105.0
603,D3,67.5,0.25,95,105.0
604,D2,67.5,0.25,95,105.0
605,B-2,67.5,0.5,95,105.0
606,B2,67.75,0.25,95,105.0
607,E1,68.0,2.0,95,105.0
608,E3,68.0,4.0,95,105.0
609,B2,68.0,4.0,95,105.0
610,E2,68.0,4.0,95,105.0
611,E3,68.0,4.0,95,105.0
612,B2,68.0,4.0,95,105.0
613,E2,68.0,4.0,95,105.0
614,B-2,68.0,0.5,95,105.0
615,C#3,68.0,0.5,95,105.0
616,B1,68.0,0.5,95,105.0
617,B-2,68.5,0.5,95,105.0
618,B-2,69.0,0.5,95,105.0
619,D2,69.0,0.5,95,105.0
620,B-2,69.5,0.5,95,105.0
621,E1,70.0,0.25,95,105.0
622,B-2,70.0,0.25,95,105.0
623,B1,70.0,0.25,95,105.0
624,B1,70.25,0.25,95,105.0
625,B-2,70.5,0.25,95,105.0
626,E1,70.75,0.25,95,105.0
627,B-2,71.0,0.5,95,105.0
628,D2,71.0,0.5,95,105.0
629,E1,71.5,0.25,95,105.0
630,B-2,71.5,0.5,95,105.0
631,E1,72.0,2.0,95,105.0
632,B-2,72.0,0.5,95,105.0
633,B1,72.0,0.5,95,105.0
634,B-2,72.5,0.5,95,105.0
635,B-2,73.0,0.5,95,105.0
636,D2,73.0,0.5,95,105.0
637,B-2,73.5,0.5,95,105.0
638,E1,74.0,0.25,95,105.0
639,B-2,74.0,0.25,95,105.0
640,B1,74.0,0.25,95,105.0
641,B1,74.25,0.25,95,105.0
642,B-2,74.5,0.25,95,105.0
643,E1,74.75,0.25,95,105.0
644,B-2,75.0,0.5,95,105.0
645,D2,75.0,0.5,95,105.0
646,E1,75.5,0.25,95,105.0
647,B-2,75.5,0.5,95,105.0
648,E1,76.0,2.0,95,105.0
649,B-2,76.0,0.5,95,105.0
650,B1,76.0,0.5,95,105.0
651,B-2,76.5,0.5,95,105.0
652,B-2,77.0,0.5,95,105.0
653,D2,77.0,0.5,95,105.0
654,B-2,77.5,0.5,95,105.0
655,E1,78.0,0.25,95,105.0
656,B-2,78.0,0.25,95,105.0
657,B1,78.0,0.25,95,105.0
658,B1,78.25,0.25,95,105.0
659,B-2,78.5,0.25,95,105.0
660,E1,78.75,0.25,95,105.0
661,B-2,79.0,0.5,95,105.0
662,D2,79.0,0.5,95,105.0
663,E1,79.5,0.25,95,105.0
664,B-2,79.5,0.5,95,105.0
665,E1,80.0,2.0,95,105.0
666,E3,80.0,4.0,95,105.0
667,B2,80.0,4.0,95,105.0
668,E2,80.0,4.0,95,105.0
669,E3,80.0,4.0,95,105.0
670,B2,80.0,4.0,95,105.0
671,E2,80.0,4.0,95,105.0
672,F#2,80.0,0.5,95,105.0
673,B1,80.0,0.5,95,105.0
674,F#2,80.5,0.5,95,105.0
675,F#2,81.0,0.5,95,105.0
676,D2,81.0,0.5,95,105.0
677,F#2,81.5,0.5,95,105.0
678,E1,82.0,0.25,95,105.0
679,F#2,82.0,0.25,95,105.0
680,B1,82.0,0.25,95,105.0
681,B1,82.25,0.25,95,105.0
682,F#2,82.5,0.25,95,105.0
683,E1,82.75,0.25,95,105.0
684,F#2,83.0,0.5,95,105.0
685,D2,83.0,0.5,95,105.0
686,E1,83.5,0.25,95,105.0
687,F#2,83.5,0.5,95,105.0
688,A1,84.0,0.75,95,105.0
689,F#2,84.0,0.5,95,105.0
690,B1,84.0,0.5,95,105.0
691,F#2,84.5,0.5,95,105.0
692,A1,84.75,0.75,95,105.0
693,F#2,85.0,0.5,95,105.0
694,D2,85.0,0.5,95,105.0
695,D2,85.5,0.5,95,105.0
696,F#2,85.5,0.5,95,105.0
697,D2,86.0,0.25,95,105.0
698,F#2,86.0,0.25,95,105.0
699,B1,86.0,0.25,95,105.0
700,B1,86.25,0.25,95,105.0
701,F#2,86.5,0.25,95,105.0
702,D2,86.75,0.25,95,105.0
703,F#2,87.0,0.5,95,105.0
704,D2,87.0,0.5,95,105.0
705,D2,87.5,0.25,95,105.0
706,F#2,87.5,0.5,95,105.0
707,E1,88.0,2.0,95,105.0
708,E3,88.0,4.0,95,105.0
709,B2,88.0,4.0,95,105.0
710,E2,88.0,4.0,95,105.0
711,E3,88.0,4.0,95,105.0
712,B2,88.0,4.0,95,105.0
713,E2,88.0,4.0,95,105.0
714,F#2,88.0,0.5,95,105.0
715,B1,88.0,0.5,95,105.0
716,F#2,88.5,0.5,95,105.0
717,F#2,89.0,0.5,95,105.0
718,D2,89.0,0.5,95,105.0
719,F#2,89.5,0.5,95,105.0
720,E1,90.0,0.25,95,105.0
721,F#2,90.0,0.25,95,105.0
722,B1,90.0,0.25,95,105.0
723,B1,90.25,0.25,95,105.0
724,F#2,90.5,0.25,95,105.0
725,E1,90.75,0.25,95,105.0
726,F#2,91.0,0.5,95,105.0
727,D2,91.0,0.5,95,105.0
728,E1,91.5,0.25,95,105.0
729,F#2,91.5,0.5,95,105.0
730,A1,92.0,0.75,95,105.0
731,E3,92.0,2.0,95,105.0
732,B2,92.0,2.0,95,105.0
733,E2,92.0,2.0,95,105.0
734,F#2,92.0,0.5,95,105.0
735,B1,92.0,0.5,95,105.0
736,F#2,92.5,0.5,95,105.0
737,A1,92.75,0.75,95,105.0
738,F#2,93.0,0.5,95,105.0
739,D2,93.0,0.5,95,105.0
740,D2,93.5,0.5,95,105.0
741,F#2,93.5,0.5,95,105.0
742,D2,94.0,0.25,95,105.0
743,E4,94.0,27/500,95,105.0
744,B3,94.0,27/500,95,105.0
745,G3,94.0,27/500,95,105.0
746,D3,94.0,27/500,95,105.0
747,A2,94.0,27/500,95,105.0
748,E2,94.0,27/500,95,105.0
749,F#2,94.0,0.25,95,105.0
750,B1,94.0,0.25,95,105.0
751,B1,94.25,0.25,95,105.0
752,E4,94.25,27/500,95,105.0
753,B3,94.25,27/500,95,105.0
754,G3,94.25,27/500,95,105.0
755,D3,94.25,27/500,95,105.0
756,A2,94.25,27/500,95,105.0
757,E2,94.25,27/500,95,105.0
758,E2,94.5,27/500,95,105.0
759,F#2,94.5,0.25,95,105.0
760,E2,94.75,27/500,95,105.0
761,D2,94.75,0.25,95,105.0
762,E2,95.0,0.25,95,105.0
763,F#2,95.0,0.5,95,105.0
764,D2,95.0,0.5,95,105.0
765,A2,95.25,0.25,70,105.0
766,B2,95.5,0.25,95,105.0
767,D2,95.5,0.25,95,105.0
768,F#2,95.5,0.5,95,105.0
769,D3,95.75,0.25,95,105.0
770,E1,96.0,2.0,95,105.0
771,A3,96.0,0.75,95,105.0
772,E3,96.0,0.75,95,105.0
773,A2,96.0,0.75,95,105.0
774,F#2,96.0,0.5,95,105.0
775,B1,96.0,0.5,95,105.0
776,F#2,96.5,0.5,95,105.0
777,A3,96.75,0.75,95,105.0
778,E3,96.75,0.75,95,105.0
779,A2,96.75,0.75,95,105.0
780,F#2,97.0,0.5,95,105.0
781,D2,97.0,0.5,95,105.0
782,F#2,97.5,0.5,95,105.0
783,D4,97.5,1.25,95,105.0
784,A3,97.5,1.25,95,105.0
785,D3,97.5,1.25,95,105.0
786,E2,98.0,27/500,95,105.0
787,E1,98.0,0.25,95,105.0
788,F#2,98.0,0.25,95,105.0
789,B1,98.0,0.25,95,105.0
790,B1,98.25,0.25,95,105.0
791,F#2,98.5,0.25,95,105.0
792,E2,98.75,27/500,95,105.0
793,E1,98.75,0.25,95,105.0
794,E2,99.0,0.25,95,105.0
795,F#2,99.0,0.5,95,105.0
796,D2,99.0,0.5,95,105.0
797,A2,99.25,0.25,95,105.0
798,B2,99.5,0.25,95,105.0
799,E1,99.5,0.25,95,105.0
800,F#2,99.5,0.5,95,105.0
801,D3,99.75,0.25,95,105.0
802,A1,100.0,0.75,95,105.0
803,E3,100.0,2.0,95,105.0
804,B2,100.0,2.0,95,105.0
805,E2,100.0,2.0,95,105.0
806,F#2,100.0,0.5,95,105.0
807,B1,100.0,0.5,95,105.0
808,F#2,100.5,0.5,95,105.0
809,A1,100.75,0.75,95,105.0
810,F#2,101.0,0.5,95,105.0
811,D2,101.0,0.5,95,105.0
812,D2,101.5,0.5,95,105.0
813,F#2,101.5,0.5,95,105.0
814,D2,102.0,0.25,95,105.0
815,E4,102.0,27/500,95,105.0
816,B3,102.0,27/500,95,105.0
817,G3,102.0,27/500,95,105.0
818,D3,102.0,27/500,95,105.0
819,A2,102.0,27/500,95,105.0
820,E2,102.0,27/500,95,105.0
821,F#2,102.0,0.25,95,105.0
822,B1,102.0,0.25,95,105.0
823,B1,102.25,0.25,95,105.0
824,E4,102.25,27/500,95,105.0
825,B3,102.25,27/500,95,105.0
826,G3,102.25,27/500,95,105.0
827,D3,102.25,27/500,95,105.0
828,A2,102.25,27/500,95,105.0
829,E2,102.25,27/500,95,105.0
830,E2,102.5,27/500,95,105.0
831,F#2,102.5,0.25,95,105.0
832,E2,102.75,27/500,95,105.0
833,D2,102.75,0.25,95,105.0
834,E2,103.0,0.25,95,105.0
835,F#2,103.0,0.5,95,105.0
836,D2,103.0,0.5,95,105.0
837,A2,103.25,0.25,70,105.0
838,B2,103.5,0.25,95,105.0
839,D2,103.5,0.25,95,105.0
840,F#2,103.5,0.5,95,105.0
841,D3,103.75,0.25,95,105.0
842,E1,104.0,2.0,95,105.0
843,A3,104.0,0.75,95,105.0
844,E3,104.0,0.75,95,105.0
845,A2,104.0,0.75,95,105.0
846,F#2,104.0,0.5,95,105.0
847,B1,104.0,0.5,95,105.0
848,F#2,104.5,0.5,95,105.0
849,A3,104.75,0.75,95,105.0
850,E3,104.75,0.75,95,105.0
851,A2,104.75,0.75,95,105.0
852,F#2,105.0,0.5,95,105.0
853,D2,105.0,0.5,95,105.0
854,F#2,105.5,0.5,95,105.0
855,D4,105.5,1.25,95,105.0
856,A3,105.5,1.25,95,105.0
857,D3,105.5,1.25,95,105.0
858,E2,106.0,27/500,95,105.0
859,E1,106.0,0.25,95,105.0
860,F#2,106.0,0.25,95,105.0
861,B1,106.0,0.25,95,105.0
862,B1,106.25,0.25,95,105.0
863,F#2,106.5,0.25,95,105.0
864,E2,106.75,27/500,95,105.0
865,E1,106.75,0.25,95,105.0
866,E2,107.0,0.25,95,105.0
867,F#2,107.0,0.5,95,105.0
868,D2,107.0,0.5,95,105.0
869,A2,107.25,0.25,95,105.0
870,B2,107.5,0.25,95,105.0
871,E1,107.5,0.25,95,105.0
872,F#2,107.5,0.5,95,105.0
873,D3,107.75,0.25,95,105.0
874,A1,108.0,0.75,95,105.0
875,E3,108.0,2.0,95,105.0
876,B2,108.0,2.0,95,105.0
877,E2,108.0,2.0,95,105.0
878,F#2,108.0,0.5,95,105.0
879,B1,108.0,0.5,95,105.0
880,F#2,108.5,0.5,95,105.0
881,A1,108.75,0.75,95,105.0
882,F#2,109.0,0.5,95,105.0
883,D2,109.0,0.5,95,105.0
884,D2,109.5,0.5,95,105.0
885,F#2,109.5,0.5,95,105.0
886,D2,110.0,0.25,95,105.0
887,E4,110.0,27/500,95,105.0
888,B3,110.0,27/500,95,105.0
889,G3,110.0,27/500,95,105.0
890,D3,110.0,27/500,95,105.0
891,A2,110.0,27/500,95,105.0
892,E2,110.0,27/500,95,105.0
893,D2,110.0,0.25,95,105.0
894,B1,110.0,0.25,95,105.0
895,E4,110.25,27/500,95,105.0
896,B3,110.25,27/500,95,105.0
897,G3,110.25,27/500,95,105.0
898,D3,110.25,27/500,95,105.0
899,A2,110.25,27/500,95,105.0
900,E2,110.25,27/500,95,105.0
901,D2,110.25,0.25,95,105.0
902,B1,110.25,0.25,95,105.0
903,E2,110.5,27/500,95,105.0
904,D2,110.5,0.25,95,105.0
905,D2,110.5,0.25,95,105.0
906,E2,110.75,27/500,95,105.0
907,D2,110.75,0.25,95,105.0
908,D2,110.75,0.25,95,105.0
909,E2,111.0,0.25,95,105.0
910,D2,111.0,0.25,95,105.0
911,A2,111.25,0.25,70,105.0
912,D2,111.25,0.25,95,105.0
913,B2,111.5,0.25,95,105.0
914,D2,111.5,0.25,95,105.0
915,D2,111.5,0.25,95,105.0
916,D3,111.75,0.25,95,105.0
917,D2,111.75,0.25,95,105.0
918,G1,112.0,1.0,95,105.0
919,A3,112.0,0.75,95,105.0
920,E3,112.0,0.75,95,105.0
921,A2,112.0,0.75,95,105.0
922,C#3,112.0,0.5,95,105.0
923,B1,112.0,0.5,95,105.0
924,B-2,112.0,0.5,95,105.0
925,D2,112.0,0.5,95,105.0
926,B1,112.5,0.5,95,105.0
927,B-2,112.5,0.5,95,105.0
928,A3,112.75,0.75,95,105.0
929,E3,112.75,0.75,95,105.0
930,A2,112.75,0.75,95,105.0
931,B1,113.0,0.5,95,105.0
932,B-2,113.0,0.5,95,105.0
933,D2,113.0,0.5,95,105.0
934,G1,113.5,0.5,95,105.0
935,D4,113.5,1.25,95,105.0
936,A3,113.5,1.25,95,105.0
937,D3,113.5,1.25,95,105.0
938,B1,113.5,0.5,95,105.0
939,B-2,113.5,0.5,95,105.0
940,E2,114.0,27/500,95,105.0
941,B1,114.0,0.5,95,105.0
942,B-2,114.0,0.5,95,105.0
943,D2,114.0,0.5,95,105.0
944,G1,114.5,0.5,95,105.0
945,B1,114.5,0.5,95,105.0
946,B-2,114.5,0.5,95,105.0
947,E2,114.75,27/500,95,105.0
948,E2,115.0,0.25,95,105.0
949,B1,115.0,0.5,95,105.0
950,B-2,115.0,0.5,95,105.0
951,D2,115.0,0.5,95,105.0
952,A2,115.25,0.25,95,105.0
953,B2,115.5,0.25,95,105.0
954,G1,115.5,0.5,95,105.0
955,B1,115.5,0.5,95,105.0
956,B-2,115.5,0.5,95,105.0
957,D3,115.75,0.25,95,105.0
958,B1,116.0,1.0,95,105.0
959,E3,116.0,2.0,95,105.0
960,B2,116.0,2.0,95,105.0
961,E2,116.0,2.0,95,105.0
962,C#3,116.0,0.5,95,105.0
963,B1,116.0,0.5,95,105.0
964,B-2,116.0,0.5,95,105.0
965,D2,116.0,0.5,95,105.0
966,B1,116.5,0.5,95,105.0
967,B-2,116.5,0.5,95,105.0
968,B1,117.0,0.5,95,105.0
969,B-2,117.0,0.5,95,105.0
970,D2,117.0,0.5,95,105.0
971,B1,117.5,0.5,95,105.0
972,B1,117.5,0.5,95,105.0
973,B-2,117.5,0.5,95,105.0
974,E4,118.0,27/500,95,105.0
975,B3,118.0,27/500,95,105.0
976,G3,118.0,27/500,95,105.0
977,D3,118.0,27/500,95,105.0
978,A2,118.0,27/500,95,105.0
979,E2,118.0,27/500,95,105.0
980,B1,118.0,0.5,95,105.0
981,B-2,118.0,0.5,95,105.0
982,D2,118.0,0.5,95,105.0
983,E4,118.25,27/500,95,105.0
984,B3,118.25,27/500,95,105.0
985,G3,118.25,27/500,95,105.0
986,D3,118.25,27/500,95,105.0
987,A2,118.25,27/500,95,105.0
988,E2,118.25,27/500,95,105.0
989,E2,118.5,27/500,95,105.0
990,B1,118.5,0.5,95,105.0
991,B1,118.5,0.5,95,105.0
992,B-2,118.5,0.5,95,105.0
993,E2,118.75,27/500,95,105.0
994,E2,119.0,0.25,95,105.0
995,B1,119.0,0.5,95,105.0
996,B-2,119.0,0.5,95,105.0
997,D2,119.0,0.5,95,105.0
998,A2,119.25,0.25,70,105.0
999,B2,119.5,0.25,95,105.0
1000,B1,119.5,0.5,95,105.0
1001,B1,119.5,0.5,95,105.0
1002,B-2,119.5,0.5,95,105.0
1003,D3,119.75,0.25,95,105.0
1004,C2,120.0,1.0,95,105.0
1005,A3,120.0,0.75,95,105.0
1006,E3,120.0,0.75,95,105.0
1007,A2,120.0,0.75,95,105.0
1008,C#3,120.0,0.5,95,105.0
1009,B1,120.0,0.5,95,105.0
1010,B-2,120.0,0.5,95,105.0
1011,D2,120.0,0.5,95,105.0
1012,B1,120.5,0.5,95,105.0
1013,B-2,120.5,0.5,95,105.0
1014,A3,120.75,0.75,95,105.0
1015,E3,120.75,0.75,95,105.0
1016,A2,120.75,0.75,95,105.0
1017,B1,121.0,0.5,95,105.0
1018,B-2,121.0,0.5,95,105.0
1019,D2,121.0,0.5,95,105.0
1020,C2,121.5,0.5,95,105.0
1021,D4,121.5,1.25,95,105.0
1022,A3,121.5,1.25,95,105.0
1023,D3,121.5,1.25,95,105.0
1024,B1,121.5,0.5,95,105.0
1025,B-2,121.5,0.5,95,105.0
1026,E2,122.0,27/500,95,105.0
1027,B1,122.0,0.5,95,105.0
1028,B-2,122.0,0.5,95,105.0
1029,D2,122.0,0.5,95,105.0
1030,C2,122.5,0.5,95,105.0
1031,B1,122.5,0.5,95,105.0
1032,B-2,122.5,0.5,95,105.0
1033,E2,122.75,27/500,95,105.0
1034,E2,123.0,0.25,95,105.0
1035,B1,123.0,0.5,95,105.0
1036,B-2,123.0,0.5,95,105.0
1037,D2,123.0,0.5,95,105.0
1038,A2,123.25,0.25,95,105.0
1039,B2,123.5,0.25,95,105.0
1040,C2,123.5,0.5,95,105.0
1041,B1,123.5,0.5,95,105.0
1042,B-2,123.5,0.5,95,105.0
1043,D3,123.75,0.25,95,105.0
1044,D2,124.0,1.0,95,105.0
1045,G3,124.0,1.0,95,105.0
1046,D3,124.0,1.0,95,105.0
1047,G2,124.0,1.0,95,105.0
1048,G3,124.0,1.0,95,105.0
1049,D3,124.0,1.0,95,105.0
1050,G2,124.0,1.0,95,105.0
1051,C#3,124.0,1.0,95,105.0
1052,B1,124.0,1.0,95,105.0
1053,B-2,124.0,1.0,95,105.0
1054,D2,124.0,1.0,95,105.0
1055,B1,125.0,1.0,95,105.0
1056,B-2,125.0,1.0,95,105.0
1057,D2,125.0,1.0,95,105.0
1058,D2,125.5,0.5,95,105.0
1059,G3,125.5,0.5,95,105.0
1060,D3,125.5,0.5,95,105.0
1061,G2,125.5,0.5,95,105.0
1062,G3,125.5,0.5,95,105.0
1063,D3,125.5,0.5,95,105.0
1064,G2,125.5,0.5,95,105.0
1065,C3,126.0,0.25,95,105.0
1066,B-2,126.0,0.25,95,105.0
1067,C3,126.25,0.25,95,105.0
1068,B-2,126.25,0.25,95,105.0
1069,D2,126.5,0.5,95,105.0
1070,G3,126.5,0.5,95,105.0
1071,D3,126.5,0.5,95,105.0
1072,G2,126.5,0.5,95,105.0
1073,G3,126.5,0.5,95,105.0
1074,D3,126.5,0.5,95,105.0
1075,G2,126.5,0.5,95,105.0
1076,C3,126.5,0.25,95,105.0
1077,B-2,126.5,0.25,95,105.0
1078,B2,126.75,0.25,95,105.0
1079,B-2,126.75,0.25,95,105.0
1080,B2,127.0,0.25,95,105.0
1081,B-2,127.0,0.25,95,105.0
1082,A2,127.25,0.25,95,105.0
1083,B-2,127.25,0.25,95,105.0
1084,G2,127.5,0.5,95,105.0
1085,G2,127.5,0.5,95,105.0
1086,D2,127.5,0.5,95,105.0
1087,A2,127.5,0.25,95,105.0
1088,B-2,127.5,0.25,95,105.0
1089,A2,127.75,0.25,95,105.0
1090,B-2,127.75,0.25,95,105.0
1091,E1,128.0,2.0,95,105.0
1092,B3,128.0,1.0,95,105.0
1093,F#3,128.0,1.0,95,105.0
1094,B2,128.0,1.0,95,105.0
1095,B3,128.0,1.0,95,105.0
1096,F#3,128.0,1.0,95,105.0
1097,B2,128.0,1.0,95,105.0
1098,B-2,128.0,0.5,95,105.0
1099,C#3,128.0,0.5,95,105.0
1100,B1,128.0,0.5,95,105.0
1101,B-2,128.5,0.5,95,105.0
1102,B-2,129.0,0.5,95,105.0
1103,D2,129.0,0.5,95,105.0
1104,B-2,129.5,0.5,95,105.0
1105,B3,129.5,0.5,95,105.0
1106,F#3,129.5,0.5,95,105.0
1107,B2,129.5,0.5,95,105.0
1108,B3,129.5,0.5,95,105.0
1109,F#3,129.5,0.5,95,105.0
1110,B2,129.5,0.5,95,105.0
1111,E1,130.0,0.25,95,105.0
1112,B-2,130.0,0.25,95,105.0
1113,B1,130.0,0.25,95,105.0
1114,B1,130.25,0.25,95,105.0
1115,B-2,130.5,0.25,95,105.0
1116,B3,130.5,0.5,95,105.0
1117,F#3,130.5,0.5,95,105.0
1118,B2,130.5,0.5,95,105.0
1119,B3,130.5,0.5,95,105.0
1120,F#3,130.5,0.5,95,105.0
1121,B2,130.5,0.5,95,105.0
1122,E1,130.75,0.25,95,105.0
1123,B-2,131.0,0.5,95,105.0
1124,D2,131.0,0.5,95,105.0
1125,B2,131.5,0.5,95,105.0
1126,B2,131.5,0.5,95,105.0
1127,E1,131.5,0.25,95,105.0
1128,B-2,131.5,0.5,95,105.0
1129,A1,132.0,0.75,95,105.0
1130,C4,132.0,1.0,95,105.0
1131,G3,132.0,1.0,95,105.0
1132,C3,132.0,1.0,95,105.0
1133,C4,132.0,1.0,95,105.0
1134,G3,132.0,1.0,95,105.0
1135,C3,132.0,1.0,95,105.0
1136,B-2,132.0,0.5,95,105.0
1137,B1,132.0,0.5,95,105.0
1138,B-2,132.5,0.5,95,105.0
1139,A1,132.75,0.75,95,105.0
1140,B-2,133.0,0.5,95,105.0
1141,D2,133.0,0.5,95,105.0
1142,D2,133.5,0.5,95,105.0
1143,B-2,133.5,0.5,95,105.0
1144,C4,133.5,0.5,95,105.0
1145,G3,133.5,0.5,95,105.0
1146,C3,133.5,0.5,95,105.0
1147,C4,133.5,0.5,95,105.0
1148,G3,133.5,0.5,95,105.0
1149,C3,133.5,0.5,95,105.0
1150,D2,134.0,0.25,95,105.0
1151,B-2,134.0,0.25,95,105.0
1152,B1,134.0,0.25,95,105.0
1153,B1,134.25,0.25,95,105.0
1154,B-2,134.5,0.25,95,105.0
1155,C4,134.5,0.5,95,105.0
1156,G3,134.5,0.5,95,105.0
1157,C3,134.5,0.5,95,105.0
1158,C4,134.5,0.5,95,105.0
1159,G3,134.5,0.5,95,105.0
1160,C3,134.5,0.5,95,105.0
1161,D2,134.75,0.25,95,105.0
1162,B-2,135.0,0.5,95,105.0
1163,D2,135.0,0.5,95,105.0
1164,C3,135.5,0.5,95,105.0
1165,C3,135.5,0.5,95,105.0
1166,D2,135.5,0.25,95,105.0
1167,B-2,135.5,0.5,95,105.0
1168,E1,136.0,2.0,95,105.0
1169,D4,136.0,1.0,95,105.0
1170,A3,136.0,1.0,95,105.0
1171,D3,136.0,1.0,95,105.0
1172,D4,136.0,1.0,95,105.0
1173,A3,136.0,1.0,95,105.0
1174,D3,136.0,1.0,95,105.0
1175,B-2,136.0,0.5,95,105.0
1176,B1,136.0,0.5,95,105.0
1177,B-2,136.5,0.5,95,105.0
1178,B-2,137.0,0.5,95,105.0
1179,D2,137.0,0.5,95,105.0
1180,B-2,137.5,0.5,95,105.0
1181,D4,137.5,0.5,95,105.0
1182,A3,137.5,0.5,95,105.0
1183,D3,137.5,0.5,95,105.0
1184,D4,137.5,0.5,95,105.0
1185,A3,137.5,0.5,95,105.0
1186,D3,137.5,0.5,95,105.0
1187,E1,138.0,0.25,95,105.0
1188,B-2,138.0,0.25,95,105.0
1189,B1,138.0,0.25,95,105.0
1190,B1,138.25,0.25,95,105.0
1191,B-2,138.5,0.25,95,105.0
1192,D4,138.5,0.5,95,105.0
1193,A3,138.5,0.5,95,105.0
1194,D3,138.5,0.5,95,105.0
1195,D4,138.5,0.5,95,105.0
1196,A3,138.5,0.5,95,105.0
1197,D3,138.5,0.5,95,105.0
1198,E1,138.75,0.25,95,105.0
1199,B-2,139.0,0.5,95,105.0
1200,D2,139.0,0.5,95,105.0
1201,D3,139.5,0.5,95,105.0
1202,D3,139.5,0.5,95,105.0
1203,E1,139.5,0.25,95,105.0
1204,B-2,139.5,0.5,95,105.0
1205,A1,140.0,0.75,95,105.0
1206,E3,140.0,2.0,95,105.0
1207,B2,140.0,2.0,95,105.0
1208,E2,140.0,2.0,95,105.0
1209,E3,140.0,2.0,95,105.0
1210,B2,140.0,2.0,95,105.0
1211,E2,140.0,2.0,95,105.0
1212,B-2,140.0,0.5,95,105.0
1213,B1,140.0,0.5,95,105.0
1214,B-2,140.5,0.5,95,105.0
1215,A1,140.75,0.75,95,105.0
1216,B-2,141.0,0.5,95,105.0
1217,D2,141.0,0.5,95,105.0
1218,D2,141.5,0.5,95,105.0
1219,B-2,141.5,0.5,95,105.0
1220,D2,142.0,0.25,95,105.0
1221,E4,142.0,27/500,95,105.0
1222,B3,142.0,27/500,95,105.0
1223,G3,142.0,27/500,95,105.0
1224,D3,142.0,27/500,95,105.0
1225,A2,142.0,27/500,95,105.0
1226,E2,142.0,27/500,95,105.0
1227,E4,142.0,27/500,95,105.0
1228,B3,142.0,27/500,95,105.0
1229,G3,142.0,27/500,95,105.0
1230,D3,142.0,27/500,95,105.0
1231,A2,142.0,27/500,95,105.0
1232,E2,142.0,27/500,95,105.0
1233,B-2,142.0,0.25,95,105.0
1234,B1,142.0,0.25,95,105.0
1235,B1,142.25,0.25,95,105.0
1236,E4,142.25,27/500,95,105.0
1237,B3,142.25,27/500,95,105.0
1238,G3,142.25,27/500,95,105.0
1239,D3,142.25,27/500,95,105.0
1240,A2,142.25,27/500,95,105.0
1241,E2,142.25,27/500,95,105.0
1242,E4,142.25,27/500,95,105.0
1243,B3,142.25,27/500,95,105.0
1244,G3,142.25,27/500,95,105.0
1245,D3,142.25,27/500,95,105.0
1246,A2,142.25,27/500,95,105.0
1247,E2,142.25,27/500,95,105.0
1248,E2,142.5,27/500,95,105.0
1249,E2,142.5,27/500,95,105.0
1250,B-2,142.5,0.25,95,105.0
1251,E2,142.75,27/500,95,105.0
1252,E2,142.75,27/500,95,105.0
1253,D2,142.75,0.25,95,105.0
1254,E2,143.0,0.25,95,105.0
1255,B-2,143.0,0.5,95,105.0
1256,D2,143.0,0.5,95,105.0
1257,A2,143.25,0.25,70,105.0
1258,B2,143.5,0.25,95,105.0
1259,D2,143.5,0.25,95,105.0
1260,B-2,143.5,0.5,95,105.0
1261,D3,143.75,0.25,95,105.0
1262,E1,144.0,2.0,95,105.0
1263,A3,144.0,0.75,95,105.0
1264,E3,144.0,0.75,95,105.0
1265,A2,144.0,0.75,95,105.0
1266,A3,144.0,0.75,95,105.0
1267,E3,144.0,0.75,95,105.0
1268,A2,144.0,0.75,95,105.0
1269,B-2,144.0,0.5,95,105.0
1270,C#3,144.0,0.5,95,105.0
1271,B1,144.0,0.5,95,105.0
1272,B-2,144.5,0.5,95,105.0
1273,A3,144.75,0.75,95,105.0
1274,E3,144.75,0.75,95,105.0
1275,A2,144.75,0.75,95,105.0
1276,A3,144.75,0.75,95,105.0
1277,E3,144.75,0.75,95,105.0
1278,A2,144.75,0.75,95,105.0
1279,B-2,145.0,0.5,95,105.0
1280,D2,145.0,0.5,95,105.0
1281,B-2,145.5,0.5,95,105.0
1282,D4,145.5,1.25,95,105.0
1283,A3,145.5,1.25,95,105.0
1284,D3,145.5,1.25,95,105.0
1285,D4,145.5,1.25,95,105.0
1286,A3,145.5,1.25,95,105.0
1287,D3,145.5,1.25,95,105.0
1288,E2,146.0,27/500,95,105.0
1289,E2,146.0,27/500,95,105.0
1290,E1,146.0,0.25,95,105.0
1291,B-2,146.0,0.25,95,105.0
1292,B1,146.0,0.25,95,105.0
1293,B1,146.25,0.25,95,105.0
1294,B-2,146.5,0.25,95,105.0
1295,E2,146.75,27/500,95,105.0
1296,E2,146.75,27/500,95,105.0
1297,E1,146.75,0.25,95,105.0
1298,E2,147.0,0.25,95,105.0
1299,B-2,147.0,0.5,95,105.0
1300,D2,147.0,0.5,95,105.0
1301,A2,147.25,0.25,95,105.0
1302,B2,147.5,0.25,95,105.0
1303,E1,147.5,0.25,95,105.0
1304,B-2,147.5,0.5,95,105.0
1305,D3,147.75,0.25,95,105.0
1306,A1,148.0,0.75,95,105.0
1307,E3,148.0,2.0,95,105.0
1308,B2,148.0,2.0,95,105.0
1309,E2,148.0,2.0,95,105.0
1310,E3,148.0,2.0,95,105.0
1311,B2,148.0,2.0,95,105.0
1312,E2,148.0,2.0,95,105.0
1313,B-2,148.0,0.5,95,105.0
1314,B1,148.0,0.5,95,105.0
1315,B-2,148.5,0.5,95,105.0
1316,A1,148.75,0.75,95,105.0
1317,B-2,149.0,0.5,95,105.0
1318,D2,149.0,0.5,95,105.0
1319,D2,149.5,0.5,95,105.0
1320,B-2,149.5,0.5,95,105.0
1321,D2,150.0,0.25,95,105.0
1322,E4,150.0,27/500,95,105.0
1323,B3,150.0,27/500,95,105.0
1324,G3,150.0,27/500,95,105.0
1325,D3,150.0,27/500,95,105.0
1326,A2,150.0,27/500,95,105.0
1327,E2,150.0,27/500,95,105.0
1328,E4,150.0,27/500,95,105.0
1329,B3,150.0,27/500,95,105.0
1330,G3,150.0,27/500,95,105.0
1331,D3,150.0,27/500,95,105.0
1332,A2,150.0,27/500,95,105.0
1333,E2,150.0,27/500,95,105.0
1334,B-2,150.0,0.25,95,105.0
1335,B1,150.0,0.25,95,105.0
1336,B1,150.25,0.25,95,105.0
1337,E4,150.25,27/500,95,105.0
1338,B3,150.25,27/500,95,105.0
1339,G3,150.25,27/500,95,105.0
1340,D3,150.25,27/500,95,105.0
1341,A2,150.25,27/500,95,105.0
1342,E2,150.25,27/500,95,105.0
1343,E4,150.25,27/500,95,105.0
1344,B3,150.25,27/500,95,105.0
1345,G3,150.25,27/500,95,105.0
1346,D3,150.25,27/500,95,105.0
1347,A2,150.25,27/500,95,105.0
1348,E2,150.25,27/500,95,105.0
1349,E2,150.5,27/500,95,105.0
1350,E2,150.5,27/500,95,105.0
1351,B-2,150.5,0.25,95,105.0
1352,E2,150.75,27/500,95,105.0
1353,E2,150.75,27/500,95,105.0
1354,D2,150.75,0.25,95,105.0
1355,E2,151.0,0.25,95,105.0
1356,B-2,151.0,0.5,95,105.0
1357,D2,151.0,0.5,95,105.0
1358,A2,151.25,0.25,70,105.0
1359,B2,151.5,0.25,95,105.0
1360,D2,151.5,0.25,95,105.0
1361,B-2,151.5,0.5,95,105.0
1362,D3,151.75,0.25,95,105.0
1363,E1,152.0,2.0,95,105.0
1364,A3,152.0,0.75,95,105.0
1365,E3,152.0,0.75,95,105.0
1366,A2,152.0,0.75,95,105.0
1367,A3,152.0,0.75,95,105.0
1368,E3,152.0,0.75,95,105.0
1369,A2,152.0,0.75,95,105.0
1370,B-2,152.0,0.5,95,105.0
1371,B1,152.0,0.5,95,105.0
1372,B-2,152.5,0.5,95,105.0
1373,A3,152.75,0.75,95,105.0
1374,E3,152.75,0.75,95,105.0
1375,A2,152.75,0.75,95,105.0
1376,A3,152.75,0.75,95,105.0
1377,E3,152.75,0.75,95,105.0
1378,A2,152.75,0.75,95,105.0
1379,B-2,153.0,0.5,95,105.0
1380,D2,153.0,0.5,95,105.0
1381,B-2,153.5,0.5,95,105.0
1382,D4,153.5,1.25,95,105.0
1383,A3,153.5,1.25,95,105.0
1384,D3,153.5,1.25,95,105.0
1385,D4,153.5,1.25,95,105.0
1386,A3,153.5,1.25,95,105.0
1387,D3,153.5,1.25,95,105.0
1388,E2,154.0,27/500,95,105.0
1389,E2,154.0,27/500,95,105.0
1390,E1,154.0,0.25,95,105.0
1391,B-2,154.0,0.25,95,105.0
1392,B1,154.0,0.25,95,105.0
1393,B1,154.25,0.25,95,105.0
1394,B-2,154.5,0.25,95,105.0
1395,E2,154.75,27/500,95,105.0
1396,E2,154.75,27/500,95,105.0
1397,E1,154.75,0.25,95,105.0
1398,G3,155.0,0.25,95,105.0
1399,B-2,155.0,0.5,95,105.0
1400,D2,155.0,0.5,95,105.0
1401,E3,155.25,0.25,95,105.0
1402,D3,155.5,0.25,95,105.0
1403,E1,155.5,0.25,95,105.0
1404,B-2,155.5,0.5,95,105.0
1405,B2,155.75,0.25,95,105.0
1406,A1,156.0,0.75,95,105.0
1407,E3,156.0,2.0,95,105.0
1408,B2,156.0,2.0,95,105.0
1409,E2,156.0,2.0,95,105.0
1410,E3,156.0,2.0,95,105.0
1411,B2,156.0,2.0,95,105.0
1412,E2,156.0,2.0,95,105.0
1413,B-2,156.0,0.5,95,105.0
1414,B1,156.0,0.5,95,105.0
1415,B-2,156.5,0.5,95,105.0
1416,A1,156.75,0.75,95,105.0
1417,B-2,157.0,0.5,95,105.0
1418,D2,157.0,0.5,95,105.0
1419,D2,157.5,0.5,95,105.0
1420,B-2,157.5,0.5,95,105.0
1421,D2,158.0,0.25,95,105.0
1422,E4,158.0,27/500,95,105.0
1423,B3,158.0,27/500,95,105.0
1424,G3,158.0,27/500,95,105.0
1425,D3,158.0,27/500,95,105.0
1426,A2,158.0,27/500,95,105.0
1427,E2,158.0,27/500,95,105.0
1428,E4,158.0,27/500,95,105.0
1429,B3,158.0,27/500,95,105.0
1430,G3,158.0,27/500,95,105.0
1431,D3,158.0,27/500,95,105.0
1432,A2,158.0,27/500,95,105.0
1433,E2,158.0,27/500,95,105.0
1434,B-2,158.0,0.25,95,105.0
1435,B1,158.0,0.25,95,105.0
1436,B1,158.25,0.25,95,105.0
1437,E4,158.25,27/500,95,105.0
1438,B3,158.25,27/500,95,105.0
1439,G3,158.25,27/500,95,105.0
1440,D3,158.25,27/500,95,105.0
1441,A2,158.25,27/500,95,105.0
1442,E2,158.25,27/500,95,105.0
1443,E4,158.25,27/500,95,105.0
1444,B3,158.25,27/500,95,105.0
1445,G3,158.25,27/500,95,105.0
1446,D3,158.25,27/500,95,105.0
1447,A2,158.25,27/500,95,105.0
1448,E2,158.25,27/500,95,105.0
1449,E2,158.5,27/500,95,105.0
1450,E2,158.5,27/500,95,105.0
1451,B-2,158.5,0.25,95,105.0
1452,D2,158.5,0.25,95,105.0
1453,E2,158.75,27/500,95,105.0
1454,E2,158.75,27/500,95,105.0
1455,D2,158.75,0.25,95,105.0
1456,D2,158.75,0.25,95,105.0
1457,E2,159.0,0.25,95,105.0
1458,B-2,159.0,0.5,95,105.0
1459,D2,159.0,0.5,95,105.0
1460,D2,159.0,0.5,95,105.0
1461,A2,159.25,0.25,70,105.0
1462,B2,159.5,0.25,95,105.0
1463,D2,159.5,0.25,95,105.0
1464,B-2,159.5,0.5,95,105.0
1465,D2,159.5,0.5,95,105.0
1466,D3,159.75,0.25,95,105.0
1467,B1,160.0,4.0,95,105.0
1468,A3,160.0,0.75,95,105.0
1469,E3,160.0,0.75,95,105.0
1470,A2,160.0,0.75,95,105.0
1471,A3,160.0,0.75,95,105.0
1472,E3,160.0,0.75,95,105.0
1473,A2,160.0,0.75,95,105.0
1474,B-2,160.0,0.5,95,105.0
1475,B1,160.0,0.5,95,105.0
1476,B-2,160.5,0.5,95,105.0
1477,A3,160.75,0.75,95,105.0
1478,E3,160.75,0.75,95,105.0
1479,A2,160.75,0.75,95,105.0
1480,A3,160.75,0.75,95,105.0
1481,E3,160.75,0.75,95,105.0
1482,A2,160.75,0.75,95,105.0
1483,B-2,161.0,0.5,95,105.0
1484,D2,161.0,0.5,95,105.0
1485,B-2,161.5,0.5,95,105.0
1486,D4,161.5,1.25,95,105.0
1487,A3,161.5,1.25,95,105.0
1488,D3,161.5,1.25,95,105.0
1489,D4,161.5,1.25,95,105.0
1490,A3,161.5,1.25,95,105.0
1491,D3,161.5,1.25,95,105.0
1492,E2,162.0,27/500,95,105.0
1493,E2,162.0,27/500,95,105.0
1494,B-2,162.0,0.25,95,105.0
1495,B1,162.0,0.25,95,105.0
1496,B1,162.25,0.25,95,105.0
1497,B-2,162.5,0.25,95,105.0
1498,E2,162.75,27/500,95,105.0
1499,E2,162.75,27/500,95,105.0
1500,E2,163.0,0.25,95,105.0
1501,B-2,163.0,0.5,95,105.0
1502,D2,163.0,0.5,95,105.0
1503,A2,163.25,0.25,95,105.0
1504,B2,163.5,0.25,95,105.0
1505,B-2,163.5,0.5,95,105.0
1506,D3,163.75,0.25,95,105.0
1507,A1,164.0,4.0,95,105.0
1508,E3,164.0,2.0,95,105.0
1509,B2,164.0,2.0,95,105.0
1510,E2,164.0,2.0,95,105.0
1511,E3,164.0,2.0,95,105.0
1512,B2,164.0,2.0,95,105.0
1513,E2,164.0,2.0,95,105.0
1514,B-2,164.0,0.5,95,105.0
1515,B1,164.0,0.5,95,105.0
1516,B-2,164.5,0.5,95,105.0
1517,B-2,165.0,0.5,95,105.0
1518,D2,165.0,0.5,95,105.0
1519,B-2,165.5,0.5,95,105.0
1520,E4,166.0,27/500,95,105.0
1521,B3,166.0,27/500,95,105.0
1522,G3,166.0,27/500,95,105.0
1523,D3,166.0,27/500,95,105.0
1524,A2,166.0,27/500,95,105.0
1525,E2,166.0,27/500,95,105.0
1526,E4,166.0,27/500,95,105.0
1527,B3,166.0,27/500,95,105.0
1528,G3,166.0,27/500,95,105.0
1529,D3,166.0,27/500,95,105.0
1530,A2,166.0,27/500,95,105.0
1531,E2,166.0,27/500,95,105.0
1532,B-2,166.0,0.25,95,105.0
1533,B1,166.0,0.25,95,105.0
1534,B1,166.25,0.25,95,105.0
1535,E4,166.25,27/500,95,105.0
1536,B3,166.25,27/500,95,105.0
1537,G3,166.25,27/500,95,105.0
1538,D3,166.25,27/500,95,105.0
1539,A2,166.25,27/500,95,105.0
1540,E2,166.25,27/500,95,105.0
1541,E4,166.25,27/500,95,105.0
1542,B3,166.25,27/500,95,105.0
1543,G3,166.25,27/500,95,105.0
1544,D3,166.25,27/500,95,105.0
1545,A2,166.25,27/500,95,105.0
1546,E2,166.25,27/500,95,105.0
1547,E2,166.5,27/500,95,105.0
1548,E2,166.5,27/500,95,105.0
1549,B-2,166.5,0.25,95,105.0
1550,E2,166.75,27/500,95,105.0
1551,E2,166.75,27/500,95,105.0
1552,E2,167.0,0.25,95,105.0
1553,B-2,167.0,0.5,95,105.0
1554,D2,167.0,0.5,95,105.0
1555,A2,167.25,0.25,70,105.0
1556,B2,167.5,0.25,95,105.0
1557,B-2,167.5,0.5,95,105.0
1558,D3,167.75,0.25,95,105.0
1559,B1,168.0,4.0,95,105.0
1560,A3,168.0,0.75,95,105.0
1561,E3,168.0,0.75,95,105.0
1562,A2,168.0,0.75,95,105.0
1563,A3,168.0,0.75,95,105.0
1564,E3,168.0,0.75,95,105.0
1565,A2,168.0,0.75,95,105.0
1566,B-2,168.0,0.5,95,105.0
1567,B1,168.0,0.5,95,105.0
1568,B-2,168.5,0.5,95,105.0
1569,A3,168.75,0.75,95,105.0
1570,E3,168.75,0.75,95,105.0
1571,A2,168.75,0.75,95,105.0
1572,A3,168.75,0.75,95,105.0
1573,E3,168.75,0.75,95,105.0
1574,A2,168.75,0.75,95,105.0
1575,B-2,169.0,0.5,95,105.0
1576,D2,169.0,0.5,95,105.0
1577,B-2,169.5,0.5,95,105.0
1578,D4,169.5,1.25,95,105.0
1579,A3,169.5,1.25,95,105.0
1580,D3,169.5,1.25,95,105.0
1581,D4,169.5,1.25,95,105.0
1582,A3,169.5,1.25,95,105.0
1583,D3,169.5,1.25,95,105.0
1584,E2,170.0,27/500,95,105.0
1585,E2,170.0,27/500,95,105.0
1586,B-2,170.0,0.25,95,105.0
1587,B1,170.0,0.25,95,105.0
1588,B1,170.25,0.25,95,105.0
1589,B-2,170.5,0.25,95,105.0
1590,E2,170.75,27/500,95,105.0
1591,E2,170.75,27/500,95,105.0
1592,G3,171.0,0.25,95,105.0
1593,B-2,171.0,0.5,95,105.0
1594,D2,171.0,0.5,95,105.0
1595,E3,171.25,0.25,95,105.0
1596,D3,171.5,0.25,95,105.0
1597,B-2,171.5,0.5,95,105.0
1598,B2,171.75,0.25,95,105.0
1599,A4,172.0,0.5,95,105.0
1600,A1,172.0,4.0,95,105.0
1601,B3,172.0,4.0,95,105.0
1602,F#3,172.0,4.0,95,105.0
1603,B2,172.0,4.0,95,105.0
1604,B-2,172.0,0.5,95,105.0
1605,B1,172.0,0.5,95,105.0
1606,B4,172.5,0.5,95,105.0
1607,B-2,172.5,0.5,95,105.0
1608,A4,173.0,0.25,95,105.0
1609,B-2,173.0,0.5,95,105.0
1610,D2,173.0,0.5,95,105.0
1611,F#4,173.25,0.25,95,105.0
1612,F4,173.5,0.25,95,105.0
1613,B-2,173.5,0.5,95,105.0
1614,E4,173.75,0.25,95,105.0
1615,D4,174.0,0.25,95,105.0
1616,B-2,174.0,0.25,95,105.0
1617,B1,174.0,0.25,95,105.0
1618,C#4,174.25,0.25,95,105.0
1619,B1,174.25,0.25,95,105.0
1620,B3,174.5,0.25,95,105.0
1621,B-2,174.5,0.25,95,105.0
1622,G#3,174.75,0.25,95,105.0
1623,F#3,175.0,0.25,95,105.0
1624,B-2,175.0,0.5,95,105.0
1625,D2,175.0,0.5,95,105.0
1626,E3,175.25,0.25,95,105.0
1627,E-3,175.5,0.25,95,105.0
1628,B-2,175.5,0.5,95,105.0
1629,D3,175.75,0.25,95,105.0
1630,G4,176.0,0.5,95,105.0
1631,E1,176.0,2.0,95,105.0
1632,A3,176.0,4.0,95,105.0
1633,E3,176.0,4.0,95,105.0
1634,A2,176.0,4.0,95,105.0
1635,F#2,176.0,0.5,95,105.0
1636,B1,176.0,0.5,95,105.0
1637,A4,176.5,0.5,95,105.0
1638,F#2,176.5,0.5,95,105.0
1639,G4,177.0,0.25,95,105.0
1640,F#2,177.0,0.5,95,105.0
1641,D2,177.0,0.5,95,105.0
1642,F#4,177.25,0.25,95,105.0
1643,E4,177.5,0.25,95,105.0
1644,F#2,177.5,0.5,95,105.0
1645,D4,177.75,0.25,95,105.0
1646,C4,178.0,0.25,95,105.0
1647,E1,178.0,0.25,95,105.0
1648,F#2,178.0,0.25,95,105.0
1649,B1,178.0,0.25,95,105.0
1650,B3,178.25,0.25,95,105.0
1651,B1,178.25,0.25,95,105.0
1652,A3,178.5,0.25,95,105.0
1653,F#2,178.5,0.25,95,105.0
1654,G3,178.75,0.25,95,105.0
1655,E1,178.75,0.25,95,105.0
1656,F#3,179.0,0.25,95,105.0
1657,F#2,179.0,0.5,95,105.0
1658,D2,179.0,0.5,95,105.0
1659,E3,179.25,0.25,95,105.0
1660,D3,179.5,0.25,95,105.0
1661,E1,179.5,0.25,95,105.0
1662,F#2,179.5,0.5,95,105.0
1663,C#3,179.75,0.25,95,105.0
1664,A4,180.0,0.5,95,105.0
1665,A1,180.0,0.75,95,105.0
1666,B3,180.0,4.0,95,105.0
1667,F#3,180.0,4.0,95,105.0
1668,B2,180.0,4.0,95,105.0
1669,F#2,180.0,0.5,95,105.0
1670,B1,180.0,0.5,95,105.0
1671,B4,180.5,0.5,95,105.0
1672,F#2,180.5,0.5,95,105.0
1673,A1,180.75,0.75,95,105.0
1674,A4,181.0,0.125,95,105.0
1675,F#2,181.0,0.5,95,105.0
1676,D2,181.0,0.5,95,105.0
1677,F#4,181.125,0.125,70,105.0
1678,B4,181.25,0.125,95,105.0
1679,A4,181.375,0.125,95,105.0
1680,F#4,181.5,0.125,70,105.0
1681,D2,181.5,0.5,95,105.0
1682,F#2,181.5,0.5,95,105.0
1683,B4,181.625,0.125,95,105.0
1684,A4,181.75,0.125,95,105.0
1685,F#4,181.875,0.125,95,105.0
1686,B4,182.0,0.125,95,105.0
1687,D2,182.0,0.25,95,105.0
1688,F#2,182.0,0.25,95,105.0
1689,B1,182.0,0.25,95,105.0
1690,A4,182.125,0.125,95,105.0
1691,F#4,182.25,0.125,95,105.0
1692,B1,182.25,0.25,95,105.0
1693,B4,182.375,0.125,95,105.0
1694,A4,182.5,0.125,95,105.0
1695,F#2,182.5,0.25,95,105.0
1696,F#4,182.625,0.125,95,105.0
1697,B4,182.75,0.125,95,105.0
1698,D2,182.75,0.25,95,105.0
1699,A4,182.875,0.125,95,105.0
1700,F#4,183.0,0.125,95,105.0
1701,F#2,183.0,0.5,95,105.0
1702,D2,183.0,0.5,95,105.0
1703,B4,183.125,0.125,95,105.0
1704,A4,183.25,0.125,95,105.0
1705,F#4,183.375,0.125,95,105.0
1706,B4,183.5,0.125,95,105.0
1707,D2,183.5,0.25,95,105.0
1708,F#2,183.5,0.5,95,105.0
1709,A4,183.625,0.125,95,105.0
1710,F#4,183.75,0.125,95,105.0
1711,B-4,183.875,0.125,95,105.0
1712,G4,184.0,0.5,95,105.0
1713,E1,184.0,2.0,95,105.0
1714,A3,184.0,4.0,95,105.0
1715,E3,184.0,4.0,95,105.0
1716,A2,184.0,4.0,95,105.0
1717,F#2,184.0,0.5,95,105.0
1718,B1,184.0,0.5,95,105.0
1719,A4,184.5,0.5,95,105.0
1720,F#2,184.5,0.5,95,105.0
1721,E4,185.0,0.125,95,105.0
1722,F#2,185.0,0.5,95,105.0
1723,D2,185.0,0.5,95,105.0
1724,G4,185.125,0.125,95,105.0
1725,A4,185.25,0.125,95,105.0
1726,E4,185.375,0.125,95,105.0
1727,G4,185.5,0.125,95,105.0
1728,F#2,185.5,0.5,95,105.0
1729,B4,185.625,0.125,95,105.0
1730,E4,185.75,0.125,95,105.0
1731,G4,185.875,0.125,95,105.0
1732,A4,186.0,0.125,95,105.0
1733,E1,186.0,0.25,95,105.0
1734,F#2,186.0,0.25,95,105.0
1735,B1,186.0,0.25,95,105.0
1736,E4,186.125,0.125,95,105.0
1737,G4,186.25,0.125,95,105.0
1738,B1,186.25,0.25,95,105.0
1739,B4,186.375,0.125,95,105.0
1740,E4,186.5,0.125,95,105.0
1741,F#2,186.5,0.25,95,105.0
1742,G4,186.625,0.125,95,105.0
1743,A4,186.75,0.125,95,105.0
1744,E1,186.75,0.25,95,105.0
1745,E4,186.875,0.125,95,105.0
1746,G4,187.0,0.125,95,105.0
1747,F#2,187.0,0.5,95,105.0
1748,D2,187.0,0.5,95,105.0
1749,B4,187.125,0.125,95,105.0
1750,E4,187.25,0.125,95,105.0
1751,G4,187.375,0.125,95,105.0
1752,A4,187.5,0.125,95,105.0
1753,E1,187.5,0.25,95,105.0
1754,F#2,187.5,0.5,95,105.0
1755,E4,187.625,0.125,95,105.0
1756,G4,187.75,0.125,95,105.0
1757,B4,187.875,0.125,95,105.0
1758,A1,188.0,0.75,95,105.0
1759,E3,188.0,2.0,95,105.0
1760,B2,188.0,2.0,95,105.0
1761,E2,188.0,2.0,95,105.0
1762,F#2,188.0,0.5,95,105.0
1763,B1,188.0,0.5,95,105.0
1764,F#2,188.5,0.5,95,105.0
1765,A1,188.75,0.75,95,105.0
1766,F#2,189.0,0.5,95,105.0
1767,D2,189.0,0.5,95,105.0
1768,D2,189.5,0.5,95,105.0
1769,F#2,189.5,0.5,95,105.0
1770,D2,190.0,0.25,95,105.0
1771,E4,190.0,27/500,95,105.0
1772,B3,190.0,27/500,95,105.0
1773,G3,190.0,27/500,95,105.0
1774,D3,190.0,27/500,95,105.0
1775,A2,190.0,27/500,95,105.0
1776,E2,190.0,27/500,95,105.0
1777,F#2,190.0,0.25,95,105.0
1778,B1,190.0,0.25,95,105.0
1779,B1,190.25,0.25,95,105.0
1780,E4,190.25,27/500,95,105.0
1781,B3,190.25,27/500,95,105.0
1782,G3,190.25,27/500,95,105.0
1783,D3,190.25,27/500,95,105.0
1784,A2,190.25,27/500,95,105.0
1785,E2,190.25,27/500,95,105.0
1786,E2,190.5,27/500,95,105.0
1787,F#2,190.5,0.25,95,105.0
1788,E2,190.75,27/500,95,105.0
1789,D2,190.75,0.25,95,105.0
1790,E2,191.0,0.25,95,105.0
1791,F#2,191.0,0.5,95,105.0
1792,D2,191.0,0.5,95,105.0
1793,A2,191.25,0.25,70,105.0
1794,B2,191.5,0.25,95,105.0
1795,D2,191.5,0.25,95,105.0
1796,F#2,191.5,0.5,95,105.0
1797,D3,191.75,0.25,95,105.0
1798,E1,192.0,2.0,95,105.0
1799,A3,192.0,0.75,95,105.0
1800,E3,192.0,0.75,95,105.0
1801,A2,192.0,0.75,95,105.0
1802,F#2,192.0,0.5,95,105.0
1803,B1,192.0,0.5,95,105.0
1804,F#2,192.5,0.5,95,105.0
1805,A3,192.75,0.75,95,105.0
1806,E3,192.75,0.75,95,105.0
1807,A2,192.75,0.75,95,105.0
1808,F#2,193.0,0.5,95,105.0
1809,D2,193.0,0.5,95,105.0
1810,F#2,193.5,0.5,95,105.0
1811,D4,193.5,1.25,95,105.0
1812,A3,193.5,1.25,95,105.0
1813,D3,193.5,1.25,95,105.0
1814,E2,194.0,27/500,95,105.0
1815,E1,194.0,0.25,95,105.0
1816,F#2,194.0,0.25,95,105.0
1817,B1,194.0,0.25,95,105.0
1818,B1,194.25,0.25,95,105.0
1819,F#2,194.5,0.25,95,105.0
1820,E2,194.75,27/500,95,105.0
1821,E1,194.75,0.25,95,105.0
1822,E2,195.0,0.25,95,105.0
1823,F#2,195.0,0.5,95,105.0
1824,D2,195.0,0.5,95,105.0
1825,A2,195.25,0.25,95,105.0
1826,B2,195.5,0.25,95,105.0
1827,E1,195.5,0.25,95,105.0
1828,F#2,195.5,0.5,95,105.0
1829,D3,195.75,0.25,95,105.0
1830,A1,196.0,0.75,95,105.0
1831,E3,196.0,2.0,95,105.0
1832,B2,196.0,2.0,95,105.0
1833,E2,196.0,2.0,95,105.0
1834,F#2,196.0,0.5,95,105.0
1835,B1,196.0,0.5,95,105.0
1836,F#2,196.5,0.5,95,105.0
1837,A1,196.75,0.75,95,105.0
1838,F#2,197.0,0.5,95,105.0
1839,D2,197.0,0.5,95,105.0
1840,D2,197.5,0.5,95,105.0
1841,F#2,197.5,0.5,95,105.0
1842,D2,198.0,0.25,95,105.0
1843,E4,198.0,27/500,95,105.0
1844,B3,198.0,27/500,95,105.0
1845,G3,198.0,27/500,95,105.0
1846,D3,198.0,27/500,95,105.0
1847,A2,198.0,27/500,95,105.0
1848,E2,198.0,27/500,95,105.0
1849,F#2,198.0,0.25,95,105.0
1850,B1,198.0,0.25,95,105.0
1851,B1,198.25,0.25,95,105.0
1852,E4,198.25,27/500,95,105.0
1853,B3,198.25,27/500,95,105.0
1854,G3,198.25,27/500,95,105.0
1855,D3,198.25,27/500,95,105.0
1856,A2,198.25,27/500,95,105.0
1857,E2,198.25,27/500,95,105.0
1858,E2,198.5,27/500,95,105.0
1859,F#2,198.5,0.25,95,105.0
1860,E2,198.75,27/500,95,105.0
1861,D2,198.75,0.25,95,105.0
1862,E2,199.0,0.25,95,105.0
1863,F#2,199.0,0.5,95,105.0
1864,D2,199.0,0.5,95,105.0
1865,A2,199.25,0.25,70,105.0
1866,B2,199.5,0.25,95,105.0
1867,D2,199.5,0.25,95,105.0
1868,F#2,199.5,0.5,95,105.0
1869,D3,199.75,0.25,95,105.0
1870,E1,200.0,2.0,95,105.0
1871,A3,200.0,0.75,95,105.0
1872,E3,200.0,0.75,95,105.0
1873,A2,200.0,0.75,95,105.0
1874,F#2,200.0,0.5,95,105.0
1875,B1,200.0,0.5,95,105.0
1876,F#2,200.5,0.5,95,105.0
1877,A3,200.75,0.75,95,105.0
1878,E3,200.75,0.75,95,105.0
1879,A2,200.75,0.75,95,105.0
1880,F#2,201.0,0.5,95,105.0
1881,D2,201.0,0.5,95,105.0
1882,F#2,201.5,0.5,95,105.0
1883,D4,201.5,1.25,95,105.0
1884,A3,201.5,1.25,95,105.0
1885,D3,201.5,1.25,95,105.0
1886,E2,202.0,27/500,95,105.0
1887,E1,202.0,0.25,95,105.0
1888,F#2,202.0,0.25,95,105.0
1889,B1,202.0,0.25,95,105.0
1890,B1,202.25,0.25,95,105.0
1891,F#2,202.5,0.25,95,105.0
1892,E2,202.75,27/500,95,105.0
1893,E1,202.75,0.25,95,105.0
1894,E2,203.0,0.25,95,105.0
1895,F#2,203.0,0.5,95,105.0
1896,D2,203.0,0.5,95,105.0
1897,A2,203.25,0.25,95,105.0
1898,B2,203.5,0.25,95,105.0
1899,E1,203.5,0.25,95,105.0
1900,F#2,203.5,0.5,95,105.0
1901,D3,203.75,0.25,95,105.0
1902,A1,204.0,0.75,95,105.0
1903,E3,204.0,2.0,95,105.0
1904,B2,204.0,2.0,95,105.0
1905,E2,204.0,2.0,95,105.0
1906,F#2,204.0,0.5,95,105.0
1907,B1,204.0,0.5,95,105.0
1908,F#2,204.5,0.5,95,105.0
1909,A1,204.75,0.75,95,105.0
1910,F#2,205.0,0.5,95,105.0
1911,D2,205.0,0.5,95,105.0
1912,D2,205.5,0.5,95,105.0
1913,F#2,205.5,0.5,95,105.0
1914,D2,206.0,0.25,95,105.0
1915,E4,206.0,27/500,95,105.0
1916,B3,206.0,27/500,95,105.0
1917,G3,206.0,27/500,95,105.0
1918,D3,206.0,27/500,95,105.0
1919,A2,206.0,27/500,95,105.0
1920,E2,206.0,27/500,95,105.0
1921,D2,206.0,0.25,95,105.0
1922,B1,206.0,0.25,95,105.0
1923,E4,206.25,27/500,95,105.0
1924,B3,206.25,27/500,95,105.0
1925,G3,206.25,27/500,95,105.0
1926,D3,206.25,27/500,95,105.0
1927,A2,206.25,27/500,95,105.0
1928,E2,206.25,27/500,95,105.0
1929,D2,206.25,0.25,95,105.0
1930,B1,206.25,0.25,95,105.0
1931,E2,206.5,27/500,95,105.0
1932,D2,206.5,0.25,95,105.0
1933,D2,206.5,0.25,95,105.0
1934,E2,206.75,27/500,95,105.0
1935,D2,206.75,0.25,95,105.0
1936,D2,206.75,0.25,95,105.0
1937,E2,207.0,0.25,95,105.0
1938,D2,207.0,0.25,95,105.0
1939,A2,207.25,0.25,70,105.0
1940,D2,207.25,0.25,95,105.0
1941,B2,207.5,0.25,95,105.0
1942,D2,207.5,0.25,95,105.0
1943,D2,207.5,0.25,95,105.0
1944,D3,207.75,0.25,95,105.0
1945,D2,207.75,0.25,95,105.0
1946,E1,208.0,2.0,95,105.0
1947,A3,208.0,0.75,95,105.0
1948,E3,208.0,0.75,95,105.0
1949,A2,208.0,0.75,95,105.0
1950,B-2,208.0,0.5,95,105.0
1951,C#3,208.0,0.5,95,105.0
1952,B1,208.0,0.5,95,105.0
1953,B-2,208.5,0.5,95,105.0
1954,A3,208.75,0.75,95,105.0
1955,E3,208.75,0.75,95,105.0
1956,A2,208.75,0.75,95,105.0
1957,B-2,209.0,0.5,95,105.0
1958,D2,209.0,0.5,95,105.0
1959,B-2,209.5,0.5,95,105.0
1960,D4,209.5,1.25,95,105.0
1961,A3,209.5,1.25,95,105.0
1962,D3,209.5,1.25,95,105.0
1963,E2,210.0,27/500,95,105.0
1964,E1,210.0,0.25,95,105.0
1965,B-2,210.0,0.25,95,105.0
1966,B1,210.0,0.25,95,105.0
1967,B1,210.25,0.25,95,105.0
1968,B-2,210.5,0.25,95,105.0
1969,E2,210.75,27/500,95,105.0
1970,E1,210.75,0.25,95,105.0
1971,E2,211.0,0.25,95,105.0
1972,B-2,211.0,0.5,95,105.0
1973,D2,211.0,0.5,95,105.0
1974,A2,211.25,0.25,95,105.0
1975,B2,211.5,0.25,95,105.0
1976,E1,211.5,0.25,95,105.0
1977,B-2,211.5,0.5,95,105.0
1978,D3,211.75,0.25,95,105.0
1979,A1,212.0,0.75,95,105.0
1980,E3,212.0,2.0,95,105.0
1981,B2,212.0,2.0,95,105.0
1982,E2,212.0,2.0,95,105.0
1983,B-2,212.0,0.5,95,105.0
1984,B1,212.0,0.5,95,105.0
1985,B-2,212.5,0.5,95,105.0
1986,A1,212.75,0.75,95,105.0
1987,B-2,213.0,0.5,95,105.0
1988,D2,213.0,0.5,95,105.0
1989,D2,213.5,0.5,95,105.0
1990,B-2,213.5,0.5,95,105.0
1991,D2,214.0,0.25,95,105.0
1992,E4,214.0,27/500,95,105.0
1993,B3,214.0,27/500,95,105.0
1994,G3,214.0,27/500,95,105.0
1995,D3,214.0,27/500,95,105.0
1996,A2,214.0,27/500,95,105.0
1997,E2,214.0,27/500,95,105.0
1998,B-2,214.0,0.25,95,105.0
1999,B1,214.0,0.25,95,105.0
2000,B1,214.25,0.25,95,105.0
2001,E4,214.25,27/500,95,105.0
2002,B3,214.25,27/500,95,105.0
2003,G3,214.25,27/500,95,105.0
2004,D3,214.25,27/500,95,105.0
2005,A2,214.25,27/500,95,105.0
2006,E2,214.25,27/500,95,105.0
2007,E2,214.5,27/500,95,105.0
2008,B-2,214.5,0.25,95,105.0
2009,E2,214.75,27/500,95,105.0
2010,D2,214.75,0.25,95,105.0
2011,E2,215.0,0.25,95,105.0
2012,B-2,215.0,0.5,95,105.0
2013,D2,215.0,0.5,95,105.0
2014,A2,215.25,0.25,70,105.0
2015,B2,215.5,0.25,95,105.0
2016,D2,215.5,0.25,95,105.0
2017,B-2,215.5,0.5,95,105.0
2018,D3,215.75,0.25,95,105.0
2019,E1,216.0,2.0,95,105.0
2020,A3,216.0,0.75,95,105.0
2021,E3,216.0,0.75,95,105.0
2022,A2,216.0,0.75,95,105.0
2023,B-2,216.0,0.5,95,105.0
2024,B1,216.0,0.5,95,105.0
2025,B-2,216.5,0.5,95,105.0
2026,A3,216.75,0.75,95,105.0
2027,E3,216.75,0.75,95,105.0
2028,A2,216.75,0.75,95,105.0
2029,B-2,217.0,0.5,95,105.0
2030,D2,217.0,0.5,95,105.0
2031,B-2,217.5,0.5,95,105.0
2032,D4,217.5,1.25,95,105.0
2033,A3,217.5,1.25,95,105.0
2034,D3,217.5,1.25,95,105.0
2035,E2,218.0,27/500,95,105.0
2036,E1,218.0,0.25,95,105.0
2037,B-2,218.0,0.25,95,105.0
2038,B1,218.0,0.25,95,105.0
2039,B1,218.25,0.25,95,105.0
2040,B-2,218.5,0.25,95,105.0
2041,E2,218.75,27/500,95,105.0
2042,E1,218.75,0.25,95,105.0
2043,E2,219.0,0.25,95,105.0
2044,B-2,219.0,0.5,95,105.0
2045,D2,219.0,0.5,95,105.0
2046,A2,219.25,0.25,95,105.0
2047,B2,219.5,0.25,95,105.0
2048,E1,219.5,0.25,95,105.0
2049,B-2,219.5,0.5,95,105.0
2050,D3,219.75,0.25,95,105.0
2051,A1,220.0,0.75,95,105.0
2052,E3,220.0,2.0,95,105.0
2053,B2,220.0,2.0,95,105.0
2054,E2,220.0,2.0,95,105.0
2055,E3,220.0,2.0,95,105.0
2056,B2,220.0,2.0,95,105.0
2057,E2,220.0,2.0,95,105.0
2058,B-2,220.0,0.5,95,105.0
2059,B1,220.0,0.5,95,105.0
2060,B-2,220.5,0.5,95,105.0
2061,A1,220.75,0.75,95,105.0
2062,B-2,221.0,0.5,95,105.0
2063,D2,221.0,0.5,95,105.0
2064,D2,221.5,0.5,95,105.0
2065,B-2,221.5,0.5,95,105.0
2066,D2,222.0,0.25,95,105.0
2067,E4,222.0,27/500,95,105.0
2068,B3,222.0,27/500,95,105.0
2069,G3,222.0,27/500,95,105.0
2070,D3,222.0,27/500,95,105.0
2071,A2,222.0,27/500,95,105.0
2072,E2,222.0,27/500,95,105.0
2073,E4,222.0,27/500,95,105.0
2074,B3,222.0,27/500,95,105.0
2075,G3,222.0,27/500,95,105.0
2076,D3,222.0,27/500,95,105.0
2077,A2,222.0,27/500,95,105.0
2078,E2,222.0,27/500,95,105.0
2079,B-2,222.0,0.25,95,105.0
2080,B1,222.0,0.25,95,105.0
2081,B1,222.25,0.25,95,105.0
2082,E4,222.25,27/500,95,105.0
2083,B3,222.25,27/500,95,105.0
2084,G3,222.25,27/500,95,105.0
2085,D3,222.25,27/500,95,105.0
2086,A2,222.25,27/500,95,105.0
2087,E2,222.25,27/500,95,105.0
2088,E4,222.25,27/500,95,105.0
2089,B3,222.25,27/500,95,105.0
2090,G3,222.25,27/500,95,105.0
2091,D3,222.25,27/500,95,105.0
2092,A2,222.25,27/500,95,105.0
2093,E2,222.25,27/500,95,105.0
2094,E2,222.5,27/500,95,105.0
2095,E2,222.5,27/500,95,105.0
2096,B-2,222.5,0.25,95,105.0
2097,E2,222.75,27/500,95,105.0
2098,E2,222.75,27/500,95,105.0
2099,D2,222.75,0.25,95,105.0
2100,E2,223.0,0.25,95,105.0
2101,B-2,223.0,0.5,95,105.0
2102,D2,223.0,0.5,95,105.0
2103,A2,223.25,0.25,70,105.0
2104,B2,223.5,0.25,95,105.0
2105,D2,223.5,0.25,95,105.0
2106,B-2,223.5,0.5,95,105.0
2107,D3,223.75,0.25,95,105.0
2108,E1,224.0,2.0,95,105.0
2109,A3,224.0,0.75,95,105.0
2110,E3,224.0,0.75,95,105.0
2111,A2,224.0,0.75,95,105.0
2112,A3,224.0,0.75,95,105.0
2113,E3,224.0,0.75,95,105.0
2114,A2,224.0,0.75,95,105.0
2115,B-2,224.0,0.5,95,105.0
2116,C#3,224.0,0.5,95,105.0
2117,B1,224.0,0.5,95,105.0
2118,B-2,224.5,0.5,95,105.0
2119,A3,224.75,0.75,95,105.0
2120,E3,224.75,0.75,95,105.0
2121,A2,224.75,0.75,95,105.0
2122,A3,224.75,0.75,95,105.0
2123,E3,224.75,0.75,95,105.0
2124,A2,224.75,0.75,95,105.0
2125,B-2,225.0,0.5,95,105.0
2126,D2,225.0,0.5,95,105.0
2127,B-2,225.5,0.5,95,105.0
2128,D4,225.5,1.25,95,105.0
2129,A3,225.5,1.25,95,105.0
2130,D3,225.5,1.25,95,105.0
2131,D4,225.5,1.25,95,105.0
2132,A3,225.5,1.25,95,105.0
2133,D3,225.5,1.25,95,105.0
2134,E2,226.0,27/500,95,105.0
2135,E2,226.0,27/500,95,105.0
2136,E1,226.0,0.25,95,105.0
2137,B-2,226.0,0.25,95,105.0
2138,B1,226.0,0.25,95,105.0
2139,B1,226.25,0.25,95,105.0
2140,B-2,226.5,0.25,95,105.0
2141,E2,226.75,27/500,95,105.0
2142,E2,226.75,27/500,95,105.0
2143,E1,226.75,0.25,95,105.0
2144,E2,227.0,0.25,95,105.0
2145,B-2,227.0,0.5,95,105.0
2146,D2,227.0,0.5,95,105.0
2147,A2,227.25,0.25,95,105.0
2148,B2,227.5,0.25,95,105.0
2149,E1,227.5,0.25,95,105.0
2150,B-2,227.5,0.5,95,105.0
2151,D3,227.75,0.25,95,105.0
2152,A1,228.0,0.75,95,105.0
2153,E3,228.0,2.0,95,105.0
2154,B2,228.0,2.0,95,105.0
2155,E2,228.0,2.0,95,105.0
2156,E3,228.0,2.0,95,105.0
2157,B2,228.0,2.0,95,105.0
2158,E2,228.0,2.0,95,105.0
2159,B-2,228.0,0.5,95,105.0
2160,B1,228.0,0.5,95,105.0
2161,B-2,228.5,0.5,95,105.0
2162,A1,228.75,0.75,95,105.0
2163,B-2,229.0,0.5,95,105.0
2164,D2,229.0,0.5,95,105.0
2165,D2,229.5,0.5,95,105.0
2166,B-2,229.5,0.5,95,105.0
2167,D2,230.0,0.25,95,105.0
2168,E4,230.0,27/500,95,105.0
2169,B3,230.0,27/500,95,105.0
2170,G3,230.0,27/500,95,105.0
2171,D3,230.0,27/500,95,105.0
2172,A2,230.0,27/500,95,105.0
2173,E2,230.0,27/500,95,105.0
2174,E4,230.0,27/500,95,105.0
2175,B3,230.0,27/500,95,105.0
2176,G3,230.0,27/500,95,105.0
2177,D3,230.0,27/500,95,105.0
2178,A2,230.0,27/500,95,105.0
2179,E2,230.0,27/500,95,105.0
2180,B-2,230.0,0.25,95,105.0
2181,B1,230.0,0.25,95,105.0
2182,B1,230.25,0.25,95,105.0
2183,E4,230.25,27/500,95,105.0
2184,B3,230.25,27/500,95,105.0
2185,G3,230.25,27/500,95,105.0
2186,D3,230.25,27/500,95,105.0
2187,A2,230.25,27/500,95,105.0
2188,E2,230.25,27/500,95,105.0
2189,E4,230.25,27/500,95,105.0
2190,B3,230.25,27/500,95,105.0
2191,G3,230.25,27/500,95,105.0
2192,D3,230.25,27/500,95,105.0
2193,A2,230.25,27/500,95,105.0
2194,E2,230.25,27/500,95,105.0
2195,E2,230.5,27/500,95,105.0
2196,E2,230.5,27/500,95,105.0
2197,B-2,230.5,0.25,95,105.0
2198,E2,230.75,27/500,95,105.0
2199,E2,230.75,27/500,95,105.0
2200,D2,230.75,0.25,95,105.0
2201,E2,231.0,0.25,95,105.0
2202,B-2,231.0,0.5,95,105.0
2203,D2,231.0,0.5,95,105.0
2204,A2,231.25,0.25,70,105.0
2205,B2,231.5,0.25,95,105.0
2206,D2,231.5,0.25,95,105.0
2207,B-2,231.5,0.5,95,105.0
2208,D3,231.75,0.25,95,105.0
2209,E1,232.0,2.0,95,105.0
2210,A3,232.0,0.75,95,105.0
2211,E3,232.0,0.75,95,105.0
2212,A2,232.0,0.75,95,105.0
2213,A3,232.0,0.75,95,105.0
2214,E3,232.0,0.75,95,105.0
2215,A2,232.0,0.75,95,105.0
2216,B-2,232.0,0.5,95,105.0
2217,B1,232.0,0.5,95,105.0
2218,B-2,232.5,0.5,95,105.0
2219,A3,232.75,0.75,95,105.0
2220,E3,232.75,0.75,95,105.0
2221,A2,232.75,0.75,95,105.0
2222,A3,232.75,0.75,95,105.0
2223,E3,232.75,0.75,95,105.0
2224,A2,232.75,0.75,95,105.0
2225,B-2,233.0,0.5,95,105.0
2226,D2,233.0,0.5,95,105.0
2227,B-2,233.5,0.5,95,105.0
2228,D4,233.5,1.25,95,105.0
2229,A3,233.5,1.25,95,105.0
2230,D3,233.5,1.25,95,105.0
2231,D4,233.5,1.25,95,105.0
2232,A3,233.5,1.25,95,105.0
2233,D3,233.5,1.25,95,105.0
2234,E2,234.0,27/500,95,105.0
2235,E2,234.0,27/500,95,105.0
2236,E1,234.0,0.25,95,105.0
2237,B-2,234.0,0.25,95,105.0
2238,B1,234.0,0.25,95,105.0
2239,B1,234.25,0.25,95,105.0
2240,B-2,234.5,0.25,95,105.0
2241,E2,234.75,27/500,95,105.0
2242,E2,234.75,27/500,95,105.0
2243,E1,234.75,0.25,95,105.0
2244,G3,235.0,0.25,95,105.0
2245,B-2,235.0,0.5,95,105.0
2246,D2,235.0,0.5,95,105.0
2247,E3,235.25,0.25,95,105.0
2248,D3,235.5,0.25,95,105.0
2249,E1,235.5,0.25,95,105.0
2250,B-2,235.5,0.5,95,105.0
2251,B2,235.75,0.25,95,105.0
2252,A1,236.0,0.75,95,105.0
2253,E3,236.0,2.0,95,105.0
2254,B2,236.0,2.0,95,105.0
2255,E2,236.0,2.0,95,105.0
2256,E3,236.0,2.0,95,105.0
2257,B2,236.0,2.0,95,105.0
2258,E2,236.0,2.0,95,105.0
2259,B-2,236.0,0.5,95,105.0
2260,B1,236.0,0.5,95,105.0
2261,B-2,236.5,0.5,95,105.0
2262,A1,236.75,0.75,95,105.0
2263,B-2,237.0,0.5,95,105.0
2264,D2,237.0,0.5,95,105.0
2265,D2,237.5,0.5,95,105.0
2266,B-2,237.5,0.5,95,105.0
2267,D2,238.0,0.25,95,105.0
2268,E4,238.0,27/500,95,105.0
2269,B3,238.0,27/500,95,105.0
2270,G3,238.0,27/500,95,105.0
2271,D3,238.0,27/500,95,105.0
2272,A2,238.0,27/500,95,105.0
2273,E2,238.0,27/500,95,105.0
2274,E4,238.0,27/500,95,105.0
2275,B3,238.0,27/500,95,105.0
2276,G3,238.0,27/500,95,105.0
2277,D3,238.0,27/500,95,105.0
2278,A2,238.0,27/500,95,105.0
2279,E2,238.0,27/500,95,105.0
2280,B-2,238.0,0.25,95,105.0
2281,B1,238.0,0.25,95,105.0
2282,B1,238.25,0.25,95,105.0
2283,E4,238.25,27/500,95,105.0
2284,B3,238.25,27/500,95,105.0
2285,G3,238.25,27/500,95,105.0
2286,D3,238.25,27/500,95,105.0
2287,A2,238.25,27/500,95,105.0
2288,E2,238.25,27/500,95,105.0
2289,E4,238.25,27/500,95,105.0
2290,B3,238.25,27/500,95,105.0
2291,G3,238.25,27/500,95,105.0
2292,D3,238.25,27/500,95,105.0
2293,A2,238.25,27/500,95,105.0
2294,E2,238.25,27/500,95,105.0
2295,E2,238.5,27/500,95,105.0
2296,E2,238.5,27/500,95,105.0
2297,B-2,238.5,0.25,95,105.0
2298,D2,238.5,0.25,95,105.0
2299,E2,238.75,27/500,95,105.0
2300,E2,238.75,27/500,95,105.0
2301,D2,238.75,0.25,95,105.0
2302,D2,238.75,0.25,95,105.0
2303,E2,239.0,0.25,95,105.0
2304,B-2,239.0,0.5,95,105.0
2305,D2,239.0,0.5,95,105.0
2306,D2,239.0,0.5,95,105.0
2307,A2,239.25,0.25,70,105.0
2308,B2,239.5,0.25,95,105.0
2309,D2,239.5,0.25,95,105.0
2310,B-2,239.5,0.5,95,105.0
2311,D2,239.5,0.5,95,105.0
2312,D3,239.75,0.25,95,105.0
2313,B1,240.0,4.0,95,105.0
2314,A3,240.0,0.75,95,105.0
2315,E3,240.0,0.75,95,105.0
2316,A2,240.0,0.75,95,105.0
2317,A3,240.0,0.75,95,105.0
2318,E3,240.0,0.75,95,105.0
2319,A2,240.0,0.75,95,105.0
2320,B-2,240.0,0.5,95,105.0
2321,B1,240.0,0.5,95,105.0
2322,B-2,240.5,0.5,95,105.0
2323,A3,240.75,0.75,95,105.0
2324,E3,240.75,0.75,95,105.0
2325,A2,240.75,0.75,95,105.0
2326,A3,240.75,0.75,95,105.0
2327,E3,240.75,0.75,95,105.0
2328,A2,240.75,0.75,95,105.0
2329,B-2,241.0,0.5,95,105.0
2330,D2,241.0,0.5,95,105.0
2331,B-2,241.5,0.5,95,105.0
2332,D4,241.5,1.25,95,105.0
2333,A3,241.5,1.25,95,105.0
2334,D3,241.5,1.25,95,105.0
2335,D4,241.5,1.25,95,105.0
2336,A3,241.5,1.25,95,105.0
2337,D3,241.5,1.25,95,105.0
2338,E2,242.0,27/500,95,105.0
2339,E2,242.0,27/500,95,105.0
2340,B-2,242.0,0.25,95,105.0
2341,B1,242.0,0.25,95,105.0
2342,B1,242.25,0.25,95,105.0
2343,B-2,242.5,0.25,95,105.0
2344,E2,242.75,27/500,95,105.0
2345,E2,242.75,27/500,95,105.0
2346,E2,243.0,0.25,95,105.0
2347,B-2,243.0,0.5,95,105.0
2348,D2,243.0,0.5,95,105.0
2349,A2,243.25,0.25,95,105.0
2350,B2,243.5,0.25,95,105.0
2351,B-2,243.5,0.5,95,105.0
2352,D3,243.75,0.25,95,105.0
2353,A1,244.0,4.0,95,105.0
2354,E3,244.0,2.0,95,105.0
2355,B2,244.0,2.0,95,105.0
2356,E2,244.0,2.0,95,105.0
2357,E3,244.0,2.0,95,105.0
2358,B2,244.0,2.0,95,105.0
2359,E2,244.0,2.0,95,105.0
2360,B-2,244.0,0.5,95,105.0
2361,B1,244.0,0.5,95,105.0
2362,B-2,244.5,0.5,95,105.0
2363,B-2,245.0,0.5,95,105.0
2364,D2,245.0,0.5,95,105.0
2365,B-2,245.5,0.5,95,105.0
2366,E4,246.0,27/500,95,105.0
2367,B3,246.0,27/500,95,105.0
2368,G3,246.0,27/500,95,105.0
2369,D3,246.0,27/500,95,105.0
2370,A2,246.0,27/500,95,105.0
2371,E2,246.0,27/500,95,105.0
2372,E4,246.0,27/500,95,105.0
2373,B3,246.0,27/500,95,105.0
2374,G3,246.0,27/500,95,105.0
2375,D3,246.0,27/500,95,105.0
2376,A2,246.0,27/500,95,105.0
2377,E2,246.0,27/500,95,105.0
2378,B-2,246.0,0.25,95,105.0
2379,B1,246.0,0.25,95,105.0
2380,B1,246.25,0.25,95,105.0
2381,E4,246.25,27/500,95,105.0
2382,B3,246.25,27/500,95,105.0
2383,G3,246.25,27/500,95,105.0
2384,D3,246.25,27/500,95,105.0
2385,A2,246.25,27/500,95,105.0
2386,E2,246.25,27/500,95,105.0
2387,E4,246.25,27/500,95,105.0
2388,B3,246.25,27/500,95,105.0
2389,G3,246.25,27/500,95,105.0
2390,D3,246.25,27/500,95,105.0
2391,A2,246.25,27/500,95,105.0
2392,E2,246.25,27/500,95,105.0
2393,E2,246.5,27/500,95,105.0
2394,E2,246.5,27/500,95,105.0
2395,B-2,246.5,0.25,95,105.0
2396,E2,246.75,27/500,95,105.0
2397,E2,246.75,27/500,95,105.0
2398,E2,247.0,0.25,95,105.0
2399,B-2,247.0,0.5,95,105.0
2400,D2,247.0,0.5,95,105.0
2401,A2,247.25,0.25,70,105.0
2402,B2,247.5,0.25,95,105.0
2403,B-2,247.5,0.5,95,105.0
2404,D3,247.75,0.25,95,105.0
2405,B1,248.0,4.0,95,105.0
2406,A3,248.0,0.75,95,105.0
2407,E3,248.0,0.75,95,105.0
2408,A2,248.0,0.75,95,105.0
2409,A3,248.0,0.75,95,105.0
2410,E3,248.0,0.75,95,105.0
2411,A2,248.0,0.75,95,105.0
2412,B-2,248.0,0.5,95,105.0
2413,B1,248.0,0.5,95,105.0
2414,B-2,248.5,0.5,95,105.0
2415,A3,248.75,0.75,95,105.0
2416,E3,248.75,0.75,95,105.0
2417,A2,248.75,0.75,95,105.0
2418,A3,248.75,0.75,95,105.0
2419,E3,248.75,0.75,95,105.0
2420,A2,248.75,0.75,95,105.0
2421,B-2,249.0,0.5,95,105.0
2422,D2,249.0,0.5,95,105.0
2423,B-2,249.5,0.5,95,105.0
2424,D4,249.5,1.25,95,105.0
2425,A3,249.5,1.25,95,105.0
2426,D3,249.5,1.25,95,105.0
2427,D4,249.5,1.25,95,105.0
2428,A3,249.5,1.25,95,105.0
2429,D3,249.5,1.25,95,105.0
2430,E2,250.0,27/500,95,105.0
2431,E2,250.0,27/500,95,105.0
2432,B-2,250.0,0.25,95,105.0
2433,B1,250.0,0.25,95,105.0
2434,B1,250.25,0.25,95,105.0
2435,B-2,250.5,0.25,95,105.0
2436,E2,250.75,27/500,95,105.0
2437,E2,250.75,27/500,95,105.0
2438,G3,251.0,0.25,95,105.0
2439,B-2,251.0,0.5,95,105.0
2440,D2,251.0,0.5,95,105.0
2441,E3,251.25,0.25,95,105.0
2442,D3,251.5,0.25,95,105.0
2443,B-2,251.5,0.5,95,105.0
2444,B2,251.75,0.25,95,105.0
2445,A4,252.0,0.5,95,105.0
2446,A1,252.0,4.0,95,105.0
2447,B3,252.0,4.0,95,105.0
2448,F#3,252.0,4.0,95,105.0
2449,B2,252.0,4.0,95,105.0
2450,B-2,252.0,0.5,95,105.0
2451,B1,252.0,0.5,95,105.0
2452,B4,252.5,0.5,95,105.0
2453,B-2,252.5,0.5,95,105.0
2454,A4,253.0,0.25,95,105.0
2455,B-2,253.0,0.5,95,105.0
2456,D2,253.0,0.5,95,105.0
2457,F#4,253.25,0.25,95,105.0
2458,F4,253.5,0.25,95,105.0
2459,B-2,253.5,0.5,95,105.0
2460,E4,253.75,0.25,95,105.0
2461,D4,254.0,0.25,95,105.0
2462,B-2,254.0,0.25,95,105.0
2463,B1,254.0,0.25,95,105.0
2464,C#4,254.25,0.25,95,105.0
2465,B1,254.25,0.25,95,105.0
2466,B3,254.5,0.25,95,105.0
2467,B-2,254.5,0.25,95,105.0
2468,G#3,254.75,0.25,95,105.0
2469,F#3,255.0,0.25,95,105.0
2470,B-2,255.0,0.5,95,105.0
2471,D2,255.0,0.5,95,105.0
2472,E3,255.25,0.25,95,105.0
2473,E-3,255.5,0.25,95,105.0
2474,B-2,255.5,0.5,95,105.0
2475,D3,255.75,0.25,95,105.0
2476,G4,256.0,0.5,95,105.0
2477,B1,256.0,4.0,95,105.0
2478,A3,256.0,4.0,95,105.0
2479,E3,256.0,4.0,95,105.0
2480,A2,256.0,4.0,95,105.0
2481,B-2,256.0,0.5,95,105.0
2482,B1,256.0,0.5,95,105.0
2483,A4,256.5,0.5,95,105.0
2484,B-2,256.5,0.5,95,105.0
2485,G4,257.0,0.25,95,105.0
2486,B-2,257.0,0.5,95,105.0
2487,D2,257.0,0.5,95,105.0
2488,F#4,257.25,0.25,95,105.0
2489,E4,257.5,0.25,95,105.0
2490,B-2,257.5,0.5,95,105.0
2491,D4,257.75,0.25,95,105.0
2492,C4,258.0,0.25,95,105.0
2493,B-2,258.0,0.25,95,105.0
2494,B1,258.0,0.25,95,105.0
2495,B3,258.25,0.25,95,105.0
2496,B1,258.25,0.25,95,105.0
2497,A3,258.5,0.25,95,105.0
2498,B-2,258.5,0.25,95,105.0
2499,G3,258.75,0.25,95,105.0
2500,F#3,259.0,0.25,95,105.0
2501,B-2,259.0,0.5,95,105.0
2502,D2,259.0,0.5,95,105.0
2503,E3,259.25,0.25,95,105.0
2504,D3,259.5,0.25,95,105.0
2505,B-2,259.5,0.5,95,105.0
2506,C#3,259.75,0.25,95,105.0
2507,A4,260.0,0.5,95,105.0
2508,A1,260.0,4.0,95,105.0
2509,B3,260.0,4.0,95,105.0
2510,F#3,260.0,4.0,95,105.0
2511,B2,260.0,4.0,95,105.0
2512,B-2,260.0,0.5,95,105.0
2513,B1,260.0,0.5,95,105.0
2514,B4,260.5,0.5,95,105.0
2515,B-2,260.5,0.5,95,105.0
2516,A4,261.0,0.125,95,105.0
2517,B-2,261.0,0.5,95,105.0
2518,D2,261.0,0.5,95,105.0
2519,F#4,261.125,0.125,70,105.0
2520,B4,261.25,0.125,95,105.0
2521,A4,261.375,0.125,95,105.0
2522,F#4,261.5,0.125,70,105.0
2523,B-2,261.5,0.5,95,105.0
2524,B4,261.625,0.125,95,105.0
2525,A4,261.75,0.125,95,105.0
2526,F#4,261.875,0.125,95,105.0
2527,B4,262.0,0.125,95,105.0
2528,B-2,262.0,0.25,95,105.0
2529,B1,262.0,0.25,95,105.0
2530,A4,262.125,0.125,95,105.0
2531,F#4,262.25,0.125,95,105.0
2532,B1,262.25,0.25,95,105.0
2533,B4,262.375,0.125,95,105.0
2534,A4,262.5,0.125,95,105.0
2535,B-2,262.5,0.25,95,105.0
2536,F#4,262.625,0.125,95,105.0
2537,B4,262.75,0.125,95,105.0
2538,A4,262.875,0.125,95,105.0
2539,F#4,263.0,0.125,95,105.0
2540,B-2,263.0,0.5,95,105.0
2541,D2,263.0,0.5,95,105.0
2542,B4,263.125,0.125,95,105.0
2543,A4,263.25,0.125,95,105.0
2544,F#4,263.375,0.125,95,105.0
2545,B4,263.5,0.125,95,105.0
2546,B-2,263.5,0.5,95,105.0
2547,A4,263.625,0.125,95,105.0
2548,F#4,263.75,0.125,95,105.0
2549,B-4,263.875,0.125,95,105.0
2550,G4,264.0,0.5,95,105.0
2551,B1,264.0,4.0,95,105.0
2552,A3,264.0,4.0,95,105.0
2553,E3,264.0,4.0,95,105.0
2554,A2,264.0,4.0,95,105.0
2555,B-2,264.0,0.5,95,105.0
2556,B1,264.0,0.5,95,105.0
2557,A4,264.5,0.5,95,105.0
2558,B-2,264.5,0.5,95,105.0
2559,E4,265.0,0.125,95,105.0
2560,B-2,265.0,0.5,95,105.0
2561,D2,265.0,0.5,95,105.0
2562,G4,265.125,0.125,95,105.0
2563,A4,265.25,0.125,95,105.0
2564,E4,265.375,0.125,95,105.0
2565,G4,265.5,0.125,95,105.0
2566,B-2,265.5,0.5,95,105.0
2567,B4,265.625,0.125,95,105.0
2568,E4,265.75,0.125,95,105.0
2569,G4,265.875,0.125,95,105.0
2570,A4,266.0,0.125,95,105.0
2571,B-2,266.0,0.25,95,105.0
2572,B1,266.0,0.25,95,105.0
2573,E4,266.125,0.125,95,105.0
2574,G4,266.25,0.125,95,105.0
2575,B1,266.25,0.25,95,105.0
2576,B4,266.375,0.125,95,105.0
2577,E4,266.5,0.125,95,105.0
2578,B-2,266.5,0.25,95,105.0
2579,G4,266.625,0.125,95,105.0
2580,A4,266.75,0.125,95,105.0
2581,E4,266.875,0.125,95,105.0
2582,G4,267.0,0.125,95,105.0
2583,B-2,267.0,0.5,95,105.0
2584,D2,267.0,0.5,95,105.0
2585,B4,267.125,0.125,95,105.0
2586,E4,267.25,0.125,95,105.0
2587,G4,267.375,0.125,95,105.0
2588,A4,267.5,0.125,95,105.0
2589,B-2,267.5,0.5,95,105.0
2590,E4,267.625,0.125,95,105.0
2591,G4,267.75,0.125,95,105.0
2592,B4,267.875,0.125,95,105.0
2593,A4,268.0,0.5,95,105.0
2594,A1,268.0,4.0,95,105.0
2595,B3,268.0,4.0,95,105.0
2596,F#3,268.0,4.0,95,105.0
2597,B2,268.0,4.0,95,105.0
2598,B-2,268.0,0.5,95,105.0
2599,B1,268.0,0.5,95,105.0
2600,B4,268.5,0.5,95,105.0
2601,B-2,268.5,0.5,95,105.0
2602,A4,269.0,0.25,95,105.0
2603,B-2,269.0,0.5,95,105.0
2604,D2,269.0,0.5,95,105.0
2605,F#4,269.25,0.25,95,105.0
2606,F4,269.5,0.25,95,105.0
2607,B-2,269.5,0.5,95,105.0
2608,E4,269.75,0.25,95,105.0
2609,D4,270.0,0.25,95,105.0
2610,B-2,270.0,0.25,95,105.0
2611,B1,270.0,0.25,95,105.0
2612,C#4,270.25,0.25,95,105.0
2613,B1,270.25,0.25,95,105.0
2614,B3,270.5,0.25,95,105.0
2615,B-2,270.5,0.25,95,105.0
2616,G#3,270.75,0.25,95,105.0
2617,F#3,271.0,0.25,95,105.0
2618,B-2,271.0,0.5,95,105.0
2619,D2,271.0,0.5,95,105.0
2620,E3,271.25,0.25,95,105.0
2621,E-3,271.5,0.25,95,105.0
2622,B-2,271.5,0.5,95,105.0
2623,D3,271.75,0.25,95,105.0
2624,G4,272.0,0.5,95,105.0
2625,E1,272.0,2.0,95,105.0
2626,A3,272.0,4.0,95,105.0
2627,E3,272.0,4.0,95,105.0
2628,A2,272.0,4.0,95,105.0
2629,B-2,272.0,0.5,95,105.0
2630,C#3,272.0,0.5,95,105.0
2631,B1,272.0,0.5,95,105.0
2632,A4,272.5,0.5,95,105.0
2633,B-2,272.5,0.5,95,105.0
2634,G4,273.0,0.25,95,105.0
2635,B-2,273.0,0.5,95,105.0
2636,D2,273.0,0.5,95,105.0
2637,F#4,273.25,0.25,95,105.0
2638,E4,273.5,0.25,95,105.0
2639,B-2,273.5,0.5,95,105.0
2640,D4,273.75,0.25,95,105.0
2641,C4,274.0,0.25,95,105.0
2642,E1,274.0,0.25,95,105.0
2643,B-2,274.0,0.25,95,105.0
2644,B1,274.0,0.25,95,105.0
2645,B3,274.25,0.25,95,105.0
2646,B1,274.25,0.25,95,105.0
2647,A3,274.5,0.25,95,105.0
2648,B-2,274.5,0.25,95,105.0
2649,G3,274.75,0.25,95,105.0
2650,E1,274.75,0.25,95,105.0
2651,F#3,275.0,1.0,95,105.0
2652,B-2,275.0,0.5,95,105.0
2653,D2,275.0,0.5,95,105.0
2654,E3,275.25,0.25,95,105.0
2655,D3,275.5,0.25,95,105.0
2656,E1,275.5,0.25,95,105.0
2657,B-2,275.5,0.5,95,105.0
2658,C#3,275.75,0.25,95,105.0
2659,A4,276.0,0.5,95,105.0
2660,F#3,276.0,4.0,95,105.0
2661,C#3,276.0,4.0,95,105.0
2662,A1,276.0,0.75,95,105.0
2663,B3,276.0,4.0,95,105.0
2664,F#3,276.0,4.0,95,105.0
2665,B2,276.0,4.0,95,105.0
2666,B-2,276.0,0.5,95,105.0
2667,B1,276.0,0.5,95,105.0
2668,B4,276.5,0.5,95,105.0
2669,B-2,276.5,0.5,95,105.0
2670,A1,276.75,0.75,95,105.0
2671,A4,277.0,0.125,95,105.0
2672,B-2,277.0,0.5,95,105.0
2673,D2,277.0,0.5,95,105.0
2674,F#4,277.125,0.125,70,105.0
2675,B4,277.25,0.125,95,105.0
2676,A4,277.375,0.125,95,105.0
2677,F#4,277.5,0.125,70,105.0
2678,D2,277.5,0.5,95,105.0
2679,B-2,277.5,0.5,95,105.0
2680,B4,277.625,0.125,95,105.0
2681,A4,277.75,0.125,95,105.0
2682,F#4,277.875,0.125,95,105.0
2683,B4,278.0,0.125,95,105.0
2684,D2,278.0,0.25,95,105.0
2685,B-2,278.0,0.25,95,105.0
2686,B1,278.0,0.25,95,105.0
2687,A4,278.125,0.125,95,105.0
2688,F#4,278.25,0.125,95,105.0
2689,B1,278.25,0.25,95,105.0
2690,B4,278.375,0.125,95,105.0
2691,A4,278.5,0.125,95,105.0
2692,B-2,278.5,0.25,95,105.0
2693,F#4,278.625,0.125,95,105.0
2694,B4,278.75,0.125,95,105.0
2695,D2,278.75,0.25,95,105.0
2696,A4,278.875,0.125,95,105.0
2697,F#4,279.0,0.125,95,105.0
2698,B-2,279.0,0.5,95,105.0
2699,D2,279.0,0.5,95,105.0
2700,B4,279.125,0.125,95,105.0
2701,A4,279.25,0.125,95,105.0
2702,F#4,279.375,0.125,95,105.0
2703,B4,279.5,0.125,95,105.0
2704,D2,279.5,0.25,95,105.0
2705,B-2,279.5,0.5,95,105.0
2706,A4,279.625,0.125,95,105.0
2707,F#4,279.75,0.125,95,105.0
2708,B-4,279.875,0.125,95,105.0
2709,G4,280.0,0.5,95,105.0
2710,F#3,280.0,4.0,95,105.0
2711,C#3,280.0,4.0,95,105.0
2712,E1,280.0,2.0,95,105.0
2713,A3,280.0,4.0,95,105.0
2714,E3,280.0,4.0,95,105.0
2715,A2,280.0,4.0,95,105.0
2716,B-2,280.0,0.5,95,105.0
2717,B1,280.0,0.5,95,105.0
2718,A4,280.5,0.5,95,105.0
2719,B-2,280.5,0.5,95,105.0
2720,E4,281.0,0.125,95,105.0
2721,B-2,281.0,0.5,95,105.0
2722,D2,281.0,0.5,95,105.0
2723,G4,281.125,0.125,95,105.0
2724,A4,281.25,0.125,95,105.0
2725,E4,281.375,0.125,95,105.0
2726,G4,281.5,0.125,95,105.0
2727,B-2,281.5,0.5,95,105.0
2728,B4,281.625,0.125,95,105.0
2729,E4,281.75,0.125,95,105.0
2730,G4,281.875,0.125,95,105.0
2731,A4,282.0,0.125,95,105.0
2732,E1,282.0,0.25,95,105.0
2733,B-2,282.0,0.25,95,105.0
2734,B1,282.0,0.25,95,105.0
2735,E4,282.125,0.125,95,105.0
2736,G4,282.25,0.125,95,105.0
2737,B1,282.25,0.25,95,105.0
2738,B4,282.375,0.125,95,105.0
2739,E4,282.5,0.125,95,105.0
2740,B-2,282.5,0.25,95,105.0
2741,G4,282.625,0.125,95,105.0
2742,A4,282.75,0.125,95,105.0
2743,E1,282.75,0.25,95,105.0
2744,E4,282.875,0.125,95,105.0
2745,G4,283.0,0.125,95,105.0
2746,B-2,283.0,0.5,95,105.0
2747,D2,283.0,0.5,95,105.0
2748,B4,283.125,0.125,95,105.0
2749,E4,283.25,0.125,95,105.0
2750,G4,283.375,0.125,95,105.0
2751,A4,283.5,0.125,95,105.0
2752,E1,283.5,0.25,95,105.0
2753,B-2,283.5,0.5,95,105.0
2754,E4,283.625,0.125,95,105.0
2755,G4,283.75,0.125,95,105.0
2756,B4,283.875,0.125,95,105.0
2757,D5,284.0,0.5,95,105.0
2758,F#3,284.0,4.0,95,105.0
2759,C#3,284.0,4.0,95,105.0
2760,A1,284.0,0.75,95,105.0
2761,E3,284.0,2.0,95,105.0
2762,B2,284.0,2.0,95,105.0
2763,E2,284.0,2.0,95,105.0
2764,B-2,284.0,0.5,95,105.0
2765,B1,284.0,0.5,95,105.0
2766,E5,284.5,0.5,95,105.0
2767,B-2,284.5,0.5,95,105.0
2768,A1,284.75,0.75,95,105.0
2769,D5,285.0,0.125,95,105.0
2770,B-2,285.0,0.5,95,105.0
2771,D2,285.0,0.5,95,105.0
2772,B4,285.125,0.125,95,105.0
2773,G5,285.25,0.125,95,105.0
2774,E5,285.375,0.125,95,105.0
2775,D5,285.5,0.125,95,105.0
2776,D2,285.5,0.5,95,105.0
2777,B-2,285.5,0.5,95,105.0
2778,B4,285.625,0.125,95,105.0
2779,G5,285.75,0.125,95,105.0
2780,E5,285.875,0.125,95,105.0
2781,D5,286.0,0.125,95,105.0
2782,D2,286.0,0.25,95,105.0
2783,E4,286.0,27/500,95,105.0
2784,B3,286.0,27/500,95,105.0
2785,G3,286.0,27/500,95,105.0
2786,D3,286.0,27/500,95,105.0
2787,A2,286.0,27/500,95,105.0
2788,E2,286.0,27/500,95,105.0
2789,B-2,286.0,0.25,95,105.0
2790,B1,286.0,0.25,95,105.0
2791,B4,286.125,0.125,95,105.0
2792,G5,286.25,0.125,95,105.0
2793,B1,286.25,0.25,95,105.0
2794,E4,286.25,27/500,95,105.0
2795,B3,286.25,27/500,95,105.0
2796,G3,286.25,27/500,95,105.0
2797,D3,286.25,27/500,95,105.0
2798,A2,286.25,27/500,95,105.0
2799,E2,286.25,27/500,95,105.0
2800,E5,286.375,0.125,95,105.0
2801,D5,286.5,0.125,95,105.0
2802,E2,286.5,27/500,95,105.0
2803,B-2,286.5,0.25,95,105.0
2804,B4,286.625,0.125,95,105.0
2805,G5,286.75,0.125,95,105.0
2806,E2,286.75,27/500,95,105.0
2807,D2,286.75,0.25,95,105.0
2808,E5,286.875,0.125,95,105.0
2809,D5,287.0,0.125,95,105.0
2810,B-2,287.0,0.5,95,105.0
2811,D2,287.0,0.5,95,105.0
2812,B4,287.125,0.125,95,105.0
2813,G5,287.25,0.125,95,105.0
2814,E5,287.375,0.125,95,105.0
2815,D5,287.5,0.125,95,105.0
2816,D2,287.5,0.25,95,105.0
2817,B-2,287.5,0.5,95,105.0
2818,B4,287.625,0.125,95,105.0
2819,G5,287.75,0.125,95,105.0
2820,E5,287.875,0.125,95,105.0
2821,D5,288.0,0.125,95,105.0
2822,F#3,288.0,4.0,95,105.0
2823,C#3,288.0,4.0,95,105.0
2824,E1,288.0,2.0,95,105.0
2825,A3,288.0,0.75,95,105.0
2826,E3,288.0,0.75,95,105.0
2827,A2,288.0,0.75,95,105.0
2828,B-2,288.0,0.5,95,105.0
2829,C#3,288.0,0.5,95,105.0
2830,B1,288.0,0.5,95,105.0
2831,B4,288.125,0.125,70,105.0
2832,G5,288.25,0.125,95,105.0
2833,E5,288.375,0.125,70,105.0
2834,D5,288.5,0.125,95,105.0
2835,B-2,288.5,0.5,95,105.0
2836,B4,288.625,0.125,70,105.0
2837,G5,288.75,0.125,95,105.0
2838,A3,288.75,0.75,95,105.0
2839,E3,288.75,0.75,95,105.0
2840,A2,288.75,0.75,95,105.0
2841,E5,288.875,0.125,70,105.0
2842,D5,289.0,0.125,95,105.0
2843,B-2,289.0,0.5,95,105.0
2844,D2,289.0,0.5,95,105.0
2845,B4,289.125,0.125,70,105.0
2846,G5,289.25,0.125,95,105.0
2847,E5,289.375,0.125,70,105.0
2848,D5,289.5,0.125,95,105.0
2849,B-2,289.5,0.5,95,105.0
2850,D4,289.5,1.25,95,105.0
2851,A3,289.5,1.25,95,105.0
2852,D3,289.5,1.25,95,105.0
2853,B4,289.625,0.125,70,105.0
2854,G5,289.75,0.125,95,105.0
2855,E5,289.875,0.125,70,105.0
2856,D5,290.0,0.125,95,105.0
2857,E2,290.0,27/500,95,105.0
2858,E1,290.0,0.25,95,105.0
2859,B-2,290.0,0.25,95,105.0
2860,B1,290.0,0.25,95,105.0
2861,B4,290.125,0.125,70,105.0
2862,G5,290.25,0.125,95,105.0
2863,B1,290.25,0.25,95,105.0
2864,E5,290.375,0.125,70,105.0
2865,D5,290.5,0.125,95,105.0
2866,B-2,290.5,0.25,95,105.0
2867,B4,290.625,0.125,70,105.0
2868,G5,290.75,0.125,95,105.0
2869,E2,290.75,27/500,95,105.0
2870,E1,290.75,0.25,95,105.0
2871,E5,290.875,0.125,70,105.0
2872,D5,291.0,0.125,95,105.0
2873,B-2,291.0,0.5,95,105.0
2874,D2,291.0,0.5,95,105.0
2875,B4,291.125,0.125,70,105.0
2876,G5,291.25,0.125,95,105.0
2877,E5,291.375,0.125,70,105.0
2878,D5,291.5,0.125,95,105.0
2879,E1,291.5,0.25,95,105.0
2880,B-2,291.5,0.5,95,105.0
2881,B4,291.625,0.125,70,105.0
2882,G5,291.75,0.125,95,105.0
2883,E5,291.875,0.125,70,105.0
2884,G5,292.0,1.0,95,105.0
2885,F#3,292.0,4.0,95,105.0
2886,C#3,292.0,4.0,95,105.0
2887,A1,292.0,0.75,95,105.0
2888,E3,292.0,2.0,95,105.0
2889,B2,292.0,2.0,95,105.0
2890,E2,292.0,2.0,95,105.0
2891,B-2,292.0,0.5,95,105.0
2892,B1,292.0,0.5,95,105.0
2893,B-2,292.5,0.5,95,105.0
2894,A1,292.75,0.75,95,105.0
2895,A5,293.0,1.0,95,105.0
2896,B-2,293.0,0.5,95,105.0
2897,D2,293.0,0.5,95,105.0
2898,D2,293.5,0.5,95,105.0
2899,B-2,293.5,0.5,95,105.0
2900,A5,294.0,1.0,95,105.0
2901,D2,294.0,0.25,95,105.0
2902,E4,294.0,27/500,95,105.0
2903,B3,294.0,27/500,95,105.0
2904,G3,294.0,27/500,95,105.0
2905,D3,294.0,27/500,95,105.0
2906,A2,294.0,27/500,95,105.0
2907,E2,294.0,27/500,95,105.0
2908,B-2,294.0,0.25,95,105.0
2909,B1,294.0,0.25,95,105.0
2910,B1,294.25,0.25,95,105.0
2911,E4,294.25,27/500,95,105.0
2912,B3,294.25,27/500,95,105.0
2913,G3,294.25,27/500,95,105.0
2914,D3,294.25,27/500,95,105.0
2915,A2,294.25,27/500,95,105.0
2916,E2,294.25,27/500,95,105.0
2917,E2,294.5,27/500,95,105.0
2918,B-2,294.5,0.25,95,105.0
2919,E2,294.75,27/500,95,105.0
2920,D2,294.75,0.25,95,105.0
2921,A5,295.0,1.0,95,105.0
2922,B-2,295.0,0.5,95,105.0
2923,D2,295.0,0.5,95,105.0
2924,D2,295.5,0.25,95,105.0
2925,B-2,295.5,0.5,95,105.0
2926,G5,296.0,167/1000,95,105.0
2927,F#3,296.0,4.0,95,105.0
2928,C#3,296.0,4.0,95,105.0
2929,E1,296.0,2.0,95,105.0
2930,A3,296.0,0.75,95,105.0
2931,E3,296.0,0.75,95,105.0
2932,A2,296.0,0.75,95,105.0
2933,B-2,296.0,0.5,95,105.0
2934,B1,296.0,0.5,95,105.0
2935,C5,296.167,167/1000,70,105.0
2936,E-5,296.333,167/1000,70,105.0
2937,C5,296.5,167/1000,70,105.0
2938,B-2,296.5,0.5,95,105.0
2939,G5,296.667,167/1000,70,105.0
2940,A3,296.75,0.75,95,105.0
2941,E3,296.75,0.75,95,105.0
2942,A2,296.75,0.75,95,105.0
2943,C5,296.833,167/1000,70,105.0
2944,E-5,297.0,167/1000,70,105.0
2945,B-2,297.0,0.5,95,105.0
2946,D2,297.0,0.5,95,105.0
2947,C5,297.167,167/1000,70,105.0
2948,G5,297.333,167/1000,70,105.0
2949,C5,297.5,167/1000,95,105.0
2950,B-2,297.5,0.5,95,105.0
2951,D4,297.5,1.25,95,105.0
2952,A3,297.5,1.25,95,105.0
2953,D3,297.5,1.25,95,105.0
2954,E-5,297.667,167/1000,95,105.0
2955,G5,297.833,167/1000,95,105.0
2956,C5,298.0,167/1000,95,105.0
2957,E2,298.0,27/500,95,105.0
2958,E1,298.0,0.25,95,105.0
2959,B-2,298.0,0.25,95,105.0
2960,B1,298.0,0.25,95,105.0
2961,E-5,298.167,167/1000,95,105.0
2962,B1,298.25,0.25,95,105.0
2963,G5,298.333,167/1000,95,105.0
2964,C5,298.5,167/1000,95,105.0
2965,B-2,298.5,0.25,95,105.0
2966,E-5,298.667,167/1000,95,105.0
2967,E2,298.75,27/500,95,105.0
2968,E1,298.75,0.25,95,105.0
2969,G5,298.833,167/1000,95,105.0
2970,C5,299.0,167/1000,95,105.0
2971,B-2,299.0,0.5,95,105.0
2972,D2,299.0,0.5,95,105.0
2973,E-5,299.167,167/1000,95,105.0
2974,G5,299.333,167/1000,95,105.0
2975,C5,299.5,167/1000,95,105.0
2976,E1,299.5,0.25,95,105.0
2977,B-2,299.5,0.5,95,105.0
2978,E-5,299.667,167/1000,95,105.0
2979,G5,299.833,167/1000,95,105.0
2980,E5,300.0,0.25,95,105.0
2981,F#3,300.0,4.0,95,105.0
2982,C#3,300.0,4.0,95,105.0
2983,A1,300.0,0.75,95,105.0
2984,E3,300.0,2.0,95,105.0
2985,B2,300.0,2.0,95,105.0
2986,E2,300.0,2.0,95,105.0
2987,B-2,300.0,0.5,95,105.0
2988,B1,300.0,0.5,95,105.0
2989,C5,300.25,0.25,70,105.0
2990,B4,300.5,0.25,70,105.0
2991,B-2,300.5,0.5,95,105.0
2992,A4,300.75,0.25,70,105.0
2993,A1,300.75,0.75,95,105.0
2994,G4,301.0,333/1000,95,105.0
2995,B-2,301.0,0.5,95,105.0
2996,D2,301.0,0.5,95,105.0
2997,B4,301.333,333/1000,95,105.0
2998,D2,301.5,0.5,95,105.0
2999,B-2,301.5,0.5,95,105.0
3000,G4,301.667,333/1000,70,105.0
3001,F#4,302.0,333/1000,70,105.0
3002,D2,302.0,0.25,95,105.0
3003,E4,302.0,27/500,95,105.0
3004,B3,302.0,27/500,95,105.0
3005,G3,302.0,27/500,95,105.0
3006,D3,302.0,27/500,95,105.0
3007,A2,302.0,27/500,95,105.0
3008,E2,302.0,27/500,95,105.0
3009,B-2,302.0,0.25,95,105.0
3010,B1,302.0,0.25,95,105.0
3011,B1,302.25,0.25,95,105.0
3012,E4,302.25,27/500,95,105.0
3013,B3,302.25,27/500,95,105.0
3014,G3,302.25,27/500,95,105.0
3015,D3,302.25,27/500,95,105.0
3016,A2,302.25,27/500,95,105.0
3017,E2,302.25,27/500,95,105.0
3018,E4,302.333,333/1000,70,105.0
3019,E2,302.5,27/500,95,105.0
3020,B-2,302.5,0.25,95,105.0
3021,D2,302.5,0.25,95,105.0
3022,E-4,302.667,333/1000,95,105.0
3023,E2,302.75,27/500,95,105.0
3024,D2,302.75,0.25,95,105.0
3025,D2,302.75,0.25,95,105.0
3026,G4,303.0,333/1000,95,105.0
3027,B-2,303.0,0.5,95,105.0
3028,D2,303.0,0.5,95,105.0
3029,D2,303.0,0.5,95,105.0
3030,E-4,303.333,333/1000,70,105.0
3031,D2,303.5,0.25,95,105.0
3032,B-2,303.5,0.5,95,105.0
3033,D2,303.5,0.5,95,105.0
3034,D4,303.667,333/1000,70,105.0
3035,A4,304.0,0.125,95,105.0
3036,F#3,304.0,4.0,95,105.0
3037,C#3,304.0,4.0,95,105.0
3038,G1,304.0,1.0,95,105.0
3039,A3,304.0,0.75,95,105.0
3040,E3,304.0,0.75,95,105.0
3041,A2,304.0,0.75,95,105.0
3042,C#3,304.0,0.5,95,105.0
3043,B1,304.0,0.5,95,105.0
3044,B-2,304.0,0.5,95,105.0
3045,D2,304.0,0.5,95,105.0
3046,B4,304.125,0.125,95,105.0
3047,E5,304.25,0.125,95,105.0
3048,A4,304.375,0.125,95,105.0
3049,B4,304.5,0.125,95,105.0
3050,B1,304.5,0.5,95,105.0
3051,B-2,304.5,0.5,95,105.0
3052,E5,304.625,0.125,95,105.0
3053,A4,304.75,0.125,95,105.0
3054,A3,304.75,0.75,95,105.0
3055,E3,304.75,0.75,95,105.0
3056,A2,304.75,0.75,95,105.0
3057,B4,304.875,0.125,95,105.0
3058,E5,305.0,0.125,95,105.0
3059,B1,305.0,0.5,95,105.0
3060,B-2,305.0,0.5,95,105.0
3061,D2,305.0,0.5,95,105.0
3062,A4,305.125,0.125,95,105.0
3063,B4,305.25,0.125,95,105.0
3064,E5,305.375,0.125,95,105.0
3065,A4,305.5,0.125,95,105.0
3066,G1,305.5,0.5,95,105.0
3067,D4,305.5,1.25,95,105.0
3068,A3,305.5,1.25,95,105.0
3069,D3,305.5,1.25,95,105.0
3070,B1,305.5,0.5,95,105.0
3071,B-2,305.5,0.5,95,105.0
3072,B4,305.625,0.125,95,105.0
3073,E5,305.75,0.125,95,105.0
3074,A4,305.875,0.125,95,105.0
3075,B4,306.0,0.125,95,105.0
3076,E2,306.0,27/500,95,105.0
3077,B1,306.0,0.5,95,105.0
3078,B-2,306.0,0.5,95,105.0
3079,D2,306.0,0.5,95,105.0
3080,E5,306.125,0.125,95,105.0
3081,A4,306.25,0.125,95,105.0
3082,B4,306.375,0.125,95,105.0
3083,E5,306.5,0.125,95,105.0
3084,G1,306.5,0.5,95,105.0
3085,B1,306.5,0.5,95,105.0
3086,B-2,306.5,0.5,95,105.0
3087,A4,306.625,0.125,95,105.0
3088,E5,306.75,0.125,95,105.0
3089,E2,306.75,27/500,95,105.0
3090,A4,306.875,0.125,95,105.0
3091,B4,307.0,0.125,95,105.0
3092,B1,307.0,0.5,95,105.0
3093,B-2,307.0,0.5,95,105.0
3094,D2,307.0,0.5,95,105.0
3095,E5,307.125,0.125,95,105.0
3096,A4,307.25,0.125,95,105.0
3097,B4,307.375,0.125,95,105.0
3098,E5,307.5,0.125,95,105.0
3099,G1,307.5,0.5,95,105.0
3100,B1,307.5,0.5,95,105.0
3101,B-2,307.5,0.5,95,105.0
3102,A4,307.625,0.125,95,105.0
3103,B4,307.75,0.125,95,105.0
3104,E5,307.875,0.125,95,105.0
3105,A3,308.0,4.0,70,105.0
3106,F#3,308.0,3.5,95,105.0
3107,C#3,308.0,3.0,95,105.0
3108,B1,308.0,1.0,95,105.0
3109,E3,308.0,2.0,95,105.0
3110,B2,308.0,2.0,95,105.0
3111,E2,308.0,2.0,95,105.0
3112,C#3,308.0,0.5,95,105.0
3113,B1,308.0,0.5,95,105.0
3114,B-2,308.0,0.5,95,105.0
3115,D2,308.0,0.5,95,105.0
3116,B1,308.5,0.5,95,105.0
3117,B-2,308.5,0.5,95,105.0
3118,B1,309.0,0.5,95,105.0
3119,B-2,309.0,0.5,95,105.0
3120,D2,309.0,0.5,95,105.0
3121,B1,309.5,0.5,95,105.0
3122,B1,309.5,0.5,95,105.0
3123,B-2,309.5,0.5,95,105.0
3124,E4,310.0,27/500,95,105.0
3125,B3,310.0,27/500,95,105.0
3126,G3,310.0,27/500,95,105.0
3127,D3,310.0,27/500,95,105.0
3128,A2,310.0,27/500,95,105.0
3129,E2,310.0,27/500,95,105.0
3130,B1,310.0,0.5,95,105.0
3131,B-2,310.0,0.5,95,105.0
3132,D2,310.0,0.5,95,105.0
3133,E4,310.25,27/500,95,105.0
3134,B3,310.25,27/500,95,105.0
3135,G3,310.25,27/500,95,105.0
3136,D3,310.25,27/500,95,105.0
3137,A2,310.25,27/500,95,105.0
3138,E2,310.25,27/500,95,105.0
3139,E2,310.5,27/500,95,105.0
3140,B1,310.5,0.5,95,105.0
3141,B1,310.5,0.5,95,105.0
3142,B-2,310.5,0.5,95,105.0
3143,E2,310.75,27/500,95,105.0
3144,B1,311.0,0.5,95,105.0
3145,B-2,311.0,0.5,95,105.0
3146,D2,311.0,0.5,95,105.0
3147,B1,311.5,0.5,95,105.0
3148,B1,311.5,0.5,95,105.0
3149,B-2,311.5,0.5,95,105.0
3150,C2,312.0,1.0,95,105.0
3151,A3,312.0,0.75,95,105.0
3152,E3,312.0,0.75,95,105.0
3153,A2,312.0,0.75,95,105.0
3154,C#3,312.0,0.5,95,105.0
3155,B1,312.0,0.5,95,105.0
3156,B-2,312.0,0.5,95,105.0
3157,D2,312.0,0.5,95,105.0
3158,B1,312.5,0.5,95,105.0
3159,B-2,312.5,0.5,95,105.0
3160,A3,312.75,0.75,95,105.0
3161,E3,312.75,0.75,95,105.0
3162,A2,312.75,0.75,95,105.0
3163,B1,313.0,0.5,95,105.0
3164,B-2,313.0,0.5,95,105.0
3165,D2,313.0,0.5,95,105.0
3166,C2,313.5,0.5,95,105.0
3167,D4,313.5,1.25,95,105.0
3168,A3,313.5,1.25,95,105.0
3169,D3,313.5,1.25,95,105.0
3170,B1,313.5,0.5,95,105.0
3171,B-2,313.5,0.5,95,105.0
3172,E2,314.0,27/500,95,105.0
3173,B1,314.0,0.5,95,105.0
3174,B-2,314.0,0.5,95,105.0
3175,D2,314.0,0.5,95,105.0
3176,C2,314.5,0.5,95,105.0
3177,B1,314.5,0.5,95,105.0
3178,B-2,314.5,0.5,95,105.0
3179,E2,314.75,27/500,95,105.0
3180,B1,315.0,0.5,95,105.0
3181,B-2,315.0,0.5,95,105.0
3182,D2,315.0,0.5,95,105.0
3183,C2,315.5,0.5,95,105.0
3184,B1,315.5,0.5,95,105.0
3185,B-2,315.5,0.5,95,105.0
3186,D2,316.0,1.0,95,105.0
3187,G3,316.0,1.0,95,105.0
3188,D3,316.0,1.0,95,105.0
3189,G2,316.0,1.0,95,105.0
3190,G3,316.0,1.0,95,105.0
3191,D3,316.0,1.0,95,105.0
3192,G2,316.0,1.0,95,105.0
3193,C#3,316.0,1.0,95,105.0
3194,B1,316.0,1.0,95,105.0
3195,B-2,316.0,1.0,95,105.0
3196,D2,316.0,1.0,95,105.0
3197,B1,317.0,1.0,95,105.0
3198,B-2,317.0,1.0,95,105.0
3199,D2,317.0,1.0,95,105.0
3200,D2,317.5,0.5,95,105.0
3201,G3,317.5,0.5,95,105.0
3202,D3,317.5,0.5,95,105.0
3203,G2,317.5,0.5,95,105.0
3204,G3,317.5,0.5,95,105.0
3205,D3,317.5,0.5,95,105.0
3206,G2,317.5,0.5,95,105.0
3207,C3,318.0,0.25,95,105.0
3208,B-2,318.0,0.25,95,105.0
3209,C3,318.25,0.25,95,105.0
3210,B-2,318.25,0.25,95,105.0
3211,D2,318.5,0.5,95,105.0
3212,G3,318.5,0.5,95,105.0
3213,D3,318.5,0.5,95,105.0
3214,G2,318.5,0.5,95,105.0
3215,G3,318.5,0.5,95,105.0
3216,D3,318.5,0.5,95,105.0
3217,G2,318.5,0.5,95,105.0
3218,C3,318.5,0.25,95,105.0
3219,B-2,318.5,0.25,95,105.0
3220,B2,318.75,0.25,95,105.0
3221,B-2,318.75,0.25,95,105.0
3222,B2,319.0,0.25,95,105.0
3223,B-2,319.0,0.25,95,105.0
3224,A2,319.25,0.25,95,105.0
3225,B-2,319.25,0.25,95,105.0
3226,G2,319.5,0.5,95,105.0
3227,G2,319.5,0.5,95,105.0
3228,D2,319.5,0.5,95,105.0
3229,A2,319.5,0.25,95,105.0
3230,B-2,319.5,0.25,95,105.0
3231,A2,319.75,0.25,95,105.0
3232,B-2,319.75,0.25,95,105.0
3233,E1,320.0,2.0,95,105.0
3234,B3,320.0,1.0,95,105.0
3235,F#3,320.0,1.0,95,105.0
3236,B2,320.0,1.0,95,105.0
3237,B3,320.0,1.0,95,105.0
3238,F#3,320.0,1.0,95,105.0
3239,B2,320.0,1.0,95,105.0
3240,B-2,320.0,0.5,95,105.0
3241,C#3,320.0,0.5,95,105.0
3242,B1,320.0,0.5,95,105.0
3243,B-2,320.5,0.5,95,105.0
3244,B-2,321.0,0.5,95,105.0
3245,D2,321.0,0.5,95,105.0
3246,B-2,321.5,0.5,95,105.0
3247,B3,321.5,0.5,95,105.0
3248,F#3,321.5,0.5,95,105.0
3249,B2,321.5,0.5,95,105.0
3250,B3,321.5,0.5,95,105.0
3251,F#3,321.5,0.5,95,105.0
3252,B2,321.5,0.5,95,105.0
3253,E1,322.0,0.25,95,105.0
3254,B-2,322.0,0.25,95,105.0
3255,B1,322.0,0.25,95,105.0
3256,B1,322.25,0.25,95,105.0
3257,B-2,322.5,0.25,95,105.0
3258,B3,322.5,0.5,95,105.0
3259,F#3,322.5,0.5,95,105.0
3260,B2,322.5,0.5,95,105.0
3261,B3,322.5,0.5,95,105.0
3262,F#3,322.5,0.5,95,105.0
3263,B2,322.5,0.5,95,105.0
3264,E1,322.75,0.25,95,105.0
3265,B-2,323.0,0.5,95,105.0
3266,D2,323.0,0.5,95,105.0
3267,B2,323.5,0.5,95,105.0
3268,B2,323.5,0.5,95,105.0
3269,E1,323.5,0.25,95,105.0
3270,B-2,323.5,0.5,95,105.0
3271,A1,324.0,0.75,95,105.0
3272,C4,324.0,1.0,95,105.0
3273,G3,324.0,1.0,95,105.0
3274,C3,324.0,1.0,95,105.0
3275,C4,324.0,1.0,95,105.0
3276,G3,324.0,1.0,95,105.0
3277,C3,324.0,1.0,95,105.0
3278,B-2,324.0,0.5,95,105.0
3279,B1,324.0,0.5,95,105.0
3280,B-2,324.5,0.5,95,105.0
3281,A1,324.75,0.75,95,105.0
3282,B-2,325.0,0.5,95,105.0
3283,D2,325.0,0.5,95,105.0
3284,D2,325.5,0.5,95,105.0
3285,B-2,325.5,0.5,95,105.0
3286,C4,325.5,0.5,95,105.0
3287,G3,325.5,0.5,95,105.0
3288,C3,325.5,0.5,95,105.0
3289,C4,325.5,0.5,95,105.0
3290,G3,325.5,0.5,95,105.0
3291,C3,325.5,0.5,95,105.0
3292,D2,326.0,0.25,95,105.0
3293,B-2,326.0,0.25,95,105.0
3294,B1,326.0,0.25,95,105.0
3295,B1,326.25,0.25,95,105.0
3296,B-2,326.5,0.25,95,105.0
3297,C4,326.5,0.5,95,105.0
3298,G3,326.5,0.5,95,105.0
3299,C3,326.5,0.5,95,105.0
3300,C4,326.5,0.5,95,105.0
3301,G3,326.5,0.5,95,105.0
3302,C3,326.5,0.5,95,105.0
3303,D2,326.75,0.25,95,105.0
3304,B-2,327.0,0.5,95,105.0
3305,D2,327.0,0.5,95,105.0
3306,C3,327.5,0.5,95,105.0
3307,C3,327.5,0.5,95,105.0
3308,D2,327.5,0.25,95,105.0
3309,B-2,327.5,0.5,95,105.0
3310,E1,328.0,2.0,95,105.0
3311,D4,328.0,1.0,95,105.0
3312,A3,328.0,1.0,95,105.0
3313,D3,328.0,1.0,95,105.0
3314,D4,328.0,1.0,95,105.0
3315,A3,328.0,1.0,95,105.0
3316,D3,328.0,1.0,95,105.0
3317,B-2,328.0,0.5,95,105.0
3318,B1,328.0,0.5,95,105.0
3319,B-2,328.5,0.5,95,105.0
3320,B-2,329.0,0.5,95,105.0
3321,D2,329.0,0.5,95,105.0
3322,B-2,329.5,0.5,95,105.0
3323,D4,329.5,0.5,95,105.0
3324,A3,329.5,0.5,95,105.0
3325,D3,329.5,0.5,95,105.0
3326,D4,329.5,0.5,95,105.0
3327,A3,329.5,0.5,95,105.0
3328,D3,329.5,0.5,95,105.0
3329,E1,330.0,0.25,95,105.0
3330,B-2,330.0,0.25,95,105.0
3331,B1,330.0,0.25,95,105.0
3332,B1,330.25,0.25,95,105.0
3333,B-2,330.5,0.25,95,105.0
3334,D4,330.5,0.5,95,105.0
3335,A3,330.5,0.5,95,105.0
3336,D3,330.5,0.5,95,105.0
3337,D4,330.5,0.5,95,105.0
3338,A3,330.5,0.5,95,105.0
3339,D3,330.5,0.5,95,105.0
3340,E1,330.75,0.25,95,105.0
3341,B-2,331.0,0.5,95,105.0
3342,D2,331.0,0.5,95,105.0
3343,D3,331.5,0.5,95,105.0
3344,D3,331.5,0.5,95,105.0
3345,E1,331.5,0.25,95,105.0
3346,B-2,331.5,0.5,95,105.0
3347,A1,332.0,0.75,95,105.0
3348,E3,332.0,2.0,95,105.0
3349,B2,332.0,2.0,95,105.0
3350,E2,332.0,2.0,95,105.0
3351,E3,332.0,2.0,95,105.0
3352,B2,332.0,2.0,95,105.0
3353,E2,332.0,2.0,95,105.0
3354,B-2,332.0,0.5,95,105.0
3355,B1,332.0,0.5,95,105.0
3356,B-2,332.5,0.5,95,105.0
3357,A1,332.75,0.75,95,105.0
3358,B-2,333.0,0.5,95,105.0
3359,D2,333.0,0.5,95,105.0
3360,D2,333.5,0.5,95,105.0
3361,B-2,333.5,0.5,95,105.0
3362,D2,334.0,0.25,95,105.0
3363,E4,334.0,27/500,95,105.0
3364,B3,334.0,27/500,95,105.0
3365,G3,334.0,27/500,95,105.0
3366,D3,334.0,27/500,95,105.0
3367,A2,334.0,27/500,95,105.0
3368,E2,334.0,27/500,95,105.0
3369,E4,334.0,27/500,95,105.0
3370,B3,334.0,27/500,95,105.0
3371,G3,334.0,27/500,95,105.0
3372,D3,334.0,27/500,95,105.0
3373,A2,334.0,27/500,95,105.0
3374,E2,334.0,27/500,95,105.0
3375,B-2,334.0,0.25,95,105.0
3376,B1,334.0,0.25,95,105.0
3377,B1,334.25,0.25,95,105.0
3378,E4,334.25,27/500,95,105.0
3379,B3,334.25,27/500,95,105.0
3380,G3,334.25,27/500,95,105.0
3381,D3,334.25,27/500,95,105.0
3382,A2,334.25,27/500,95,105.0
3383,E2,334.25,27/500,95,105.0
3384,E4,334.25,27/500,95,105.0
3385,B3,334.25,27/500,95,105.0
3386,G3,334.25,27/500,95,105.0
3387,D3,334.25,27/500,95,105.0
3388,A2,334.25,27/500,95,105.0
3389,E2,334.25,27/500,95,105.0
3390,E2,334.5,27/500,95,105.0
3391,E2,334.5,27/500,95,105.0
3392,B-2,334.5,0.25,95,105.0
3393,E2,334.75,27/500,95,105.0
3394,E2,334.75,27/500,95,105.0
3395,D2,334.75,0.25,95,105.0
3396,E2,335.0,0.25,95,105.0
3397,B-2,335.0,0.5,95,105.0
3398,D2,335.0,0.5,95,105.0
3399,A2,335.25,0.25,70,105.0
3400,B2,335.5,0.25,95,105.0
3401,D2,335.5,0.25,95,105.0
3402,B-2,335.5,0.5,95,105.0
3403,D3,335.75,0.25,95,105.0
3404,E1,336.0,2.0,95,105.0
3405,A3,336.0,0.75,95,105.0
3406,E3,336.0,0.75,95,105.0
3407,A2,336.0,0.75,95,105.0
3408,A3,336.0,0.75,95,105.0
3409,E3,336.0,0.75,95,105.0
3410,A2,336.0,0.75,95,105.0
3411,B-2,336.0,0.5,95,105.0
3412,C#3,336.0,0.5,95,105.0
3413,B1,336.0,0.5,95,105.0
3414,B-2,336.5,0.5,95,105.0
3415,A3,336.75,0.75,95,105.0
3416,E3,336.75,0.75,95,105.0
3417,A2,336.75,0.75,95,105.0
3418,A3,336.75,0.75,95,105.0
3419,E3,336.75,0.75,95,105.0
3420,A2,336.75,0.75,95,105.0
3421,B-2,337.0,0.5,95,105.0
3422,D2,337.0,0.5,95,105.0
3423,B-2,337.5,0.5,95,105.0
3424,D4,337.5,1.25,95,105.0
3425,A3,337.5,1.25,95,105.0
3426,D3,337.5,1.25,95,105.0
3427,D4,337.5,1.25,95,105.0
3428,A3,337.5,1.25,95,105.0
3429,D3,337.5,1.25,95,105.0
3430,E2,338.0,27/500,95,105.0
3431,E2,338.0,27/500,95,105.0
3432,E1,338.0,0.25,95,105.0
3433,B-2,338.0,0.25,95,105.0
3434,B1,338.0,0.25,95,105.0
3435,B1,338.25,0.25,95,105.0
3436,B-2,338.5,0.25,95,105.0
3437,E2,338.75,27/500,95,105.0
3438,E2,338.75,27/500,95,105.0
3439,E1,338.75,0.25,95,105.0
3440,E2,339.0,0.25,95,105.0
3441,B-2,339.0,0.5,95,105.0
3442,D2,339.0,0.5,95,105.0
3443,A2,339.25,0.25,95,105.0
3444,B2,339.5,0.25,95,105.0
3445,E1,339.5,0.25,95,105.0
3446,B-2,339.5,0.5,95,105.0
3447,D3,339.75,0.25,95,105.0
3448,A1,340.0,0.75,95,105.0
3449,E3,340.0,2.0,95,105.0
3450,B2,340.0,2.0,95,105.0
3451,E2,340.0,2.0,95,105.0
3452,E3,340.0,2.0,95,105.0
3453,B2,340.0,2.0,95,105.0
3454,E2,340.0,2.0,95,105.0
3455,B-2,340.0,0.5,95,105.0
3456,B1,340.0,0.5,95,105.0
3457,B-2,340.5,0.5,95,105.0
3458,A1,340.75,0.75,95,105.0
3459,B-2,341.0,0.5,95,105.0
3460,D2,341.0,0.5,95,105.0
3461,D2,341.5,0.5,95,105.0
3462,B-2,341.5,0.5,95,105.0
3463,D2,342.0,0.25,95,105.0
3464,E4,342.0,27/500,95,105.0
3465,B3,342.0,27/500,95,105.0
3466,G3,342.0,27/500,95,105.0
3467,D3,342.0,27/500,95,105.0
3468,A2,342.0,27/500,95,105.0
3469,E2,342.0,27/500,95,105.0
3470,E4,342.0,27/500,95,105.0
3471,B3,342.0,27/500,95,105.0
3472,G3,342.0,27/500,95,105.0
3473,D3,342.0,27/500,95,105.0
3474,A2,342.0,27/500,95,105.0
3475,E2,342.0,27/500,95,105.0
3476,B-2,342.0,0.25,95,105.0
3477,B1,342.0,0.25,95,105.0
3478,B1,342.25,0.25,95,105.0
3479,E4,342.25,27/500,95,105.0
3480,B3,342.25,27/500,95,105.0
3481,G3,342.25,27/500,95,105.0
3482,D3,342.25,27/500,95,105.0
3483,A2,342.25,27/500,95,105.0
3484,E2,342.25,27/500,95,105.0
3485,E4,342.25,27/500,95,105.0
3486,B3,342.25,27/500,95,105.0
3487,G3,342.25,27/500,95,105.0
3488,D3,342.25,27/500,95,105.0
3489,A2,342.25,27/500,95,105.0
3490,E2,342.25,27/500,95,105.0
3491,E2,342.5,27/500,95,105.0
3492,E2,342.5,27/500,95,105.0
3493,B-2,342.5,0.25,95,105.0
3494,E2,342.75,27/500,95,105.0
3495,E2,342.75,27/500,95,105.0
3496,D2,342.75,0.25,95,105.0
3497,E2,343.0,0.25,95,105.0
3498,B-2,343.0,0.5,95,105.0
3499,D2,343.0,0.5,95,105.0
3500,A2,343.25,0.25,70,105.0
3501,B2,343.5,0.25,95,105.0
3502,D2,343.5,0.25,95,105.0
3503,B-2,343.5,0.5,95,105.0
3504,D3,343.75,0.25,95,105.0
3505,E1,344.0,2.0,95,105.0
3506,A3,344.0,0.75,95,105.0
3507,E3,344.0,0.75,95,105.0
3508,A2,344.0,0.75,95,105.0
3509,A3,344.0,0.75,95,105.0
3510,E3,344.0,0.75,95,105.0
3511,A2,344.0,0.75,95,105.0
3512,B-2,344.0,0.5,95,105.0
3513,B1,344.0,0.5,95,105.0
3514,B-2,344.5,0.5,95,105.0
3515,A3,344.75,0.75,95,105.0
3516,E3,344.75,0.75,95,105.0
3517,A2,344.75,0.75,95,105.0
3518,A3,344.75,0.75,95,105.0
3519,E3,344.75,0.75,95,105.0
3520,A2,344.75,0.75,95,105.0
3521,B-2,345.0,0.5,95,105.0
3522,D2,345.0,0.5,95,105.0
3523,B-2,345.5,0.5,95,105.0
3524,D4,345.5,1.25,95,105.0
3525,A3,345.5,1.25,95,105.0
3526,D3,345.5,1.25,95,105.0
3527,D4,345.5,1.25,95,105.0
3528,A3,345.5,1.25,95,105.0
3529,D3,345.5,1.25,95,105.0
3530,E2,346.0,27/500,95,105.0
3531,E2,346.0,27/500,95,105.0
3532,E1,346.0,0.25,95,105.0
3533,B-2,346.0,0.25,95,105.0
3534,B1,346.0,0.25,95,105.0
3535,B1,346.25,0.25,95,105.0
3536,B-2,346.5,0.25,95,105.0
3537,E2,346.75,27/500,95,105.0
3538,E2,346.75,27/500,95,105.0
3539,E1,346.75,0.25,95,105.0
3540,G3,347.0,0.25,95,105.0
3541,B-2,347.0,0.5,95,105.0
3542,D2,347.0,0.5,95,105.0
3543,E3,347.25,0.25,95,105.0
3544,D3,347.5,0.25,95,105.0
3545,E1,347.5,0.25,95,105.0
3546,B-2,347.5,0.5,95,105.0
3547,B2,347.75,0.25,95,105.0
3548,A1,348.0,0.75,95,105.0
3549,E3,348.0,2.0,95,105.0
3550,B2,348.0,2.0,95,105.0
3551,E2,348.0,2.0,95,105.0
3552,E3,348.0,2.0,95,105.0
3553,B2,348.0,2.0,95,105.0
3554,E2,348.0,2.0,95,105.0
3555,B-2,348.0,0.5,95,105.0
3556,B1,348.0,0.5,95,105.0
3557,B-2,348.5,0.5,95,105.0
3558,A1,348.75,0.75,95,105.0
3559,B-2,349.0,0.5,95,105.0
3560,D2,349.0,0.5,95,105.0
3561,D2,349.5,0.5,95,105.0
3562,B-2,349.5,0.5,95,105.0
3563,D2,350.0,0.25,95,105.0
3564,E4,350.0,27/500,95,105.0
3565,B3,350.0,27/500,95,105.0
3566,G3,350.0,27/500,95,105.0
3567,D3,350.0,27/500,95,105.0
3568,A2,350.0,27/500,95,105.0
3569,E2,350.0,27/500,95,105.0
3570,E4,350.0,27/500,95,105.0
3571,B3,350.0,27/500,95,105.0
3572,G3,350.0,27/500,95,105.0
3573,D3,350.0,27/500,95,105.0
3574,A2,350.0,27/500,95,105.0
3575,E2,350.0,27/500,95,105.0
3576,B-2,350.0,0.25,95,105.0
3577,B1,350.0,0.25,95,105.0
3578,B1,350.25,0.25,95,105.0
3579,E4,350.25,27/500,95,105.0
3580,B3,350.25,27/500,95,105.0
3581,G3,350.25,27/500,95,105.0
3582,D3,350.25,27/500,95,105.0
3583,A2,350.25,27/500,95,105.0
3584,E2,350.25,27/500,95,105.0
3585,E4,350.25,27/500,95,105.0
3586,B3,350.25,27/500,95,105.0
3587,G3,350.25,27/500,95,105.0
3588,D3,350.25,27/500,95,105.0
3589,A2,350.25,27/500,95,105.0
3590,E2,350.25,27/500,95,105.0
3591,E2,350.5,27/500,95,105.0
3592,E2,350.5,27/500,95,105.0
3593,B-2,350.5,0.25,95,105.0
3594,D2,350.5,0.25,95,105.0
3595,E2,350.75,27/500,95,105.0
3596,E2,350.75,27/500,95,105.0
3597,D2,350.75,0.25,95,105.0
3598,D2,350.75,0.25,95,105.0
3599,E2,351.0,0.25,95,105.0
3600,B-2,351.0,0.5,95,105.0
3601,D2,351.0,0.5,95,105.0
3602,D2,351.0,0.5,95,105.0
3603,A2,351.25,0.25,70,105.0
3604,B2,351.5,0.25,95,105.0
3605,D2,351.5,0.25,95,105.0
3606,B-2,351.5,0.5,95,105.0
3607,D2,351.5,0.5,95,105.0
3608,D3,351.75,0.25,95,105.0
3609,E1,352.0,2.0,95,105.0
3610,A3,352.0,0.75,95,105.0
3611,E3,352.0,0.75,95,105.0
3612,A2,352.0,0.75,95,105.0
3613,A3,352.0,0.75,95,105.0
3614,E3,352.0,0.75,95,105.0
3615,A2,352.0,0.75,95,105.0
3616,B-2,352.0,0.5,95,105.0
3617,D2,352.0,0.5,95,105.0
3618,B1,352.0,0.5,95,105.0
3619,B-2,352.5,0.5,95,105.0
3620,A3,352.75,0.75,95,105.0
3621,E3,352.75,0.75,95,105.0
3622,A2,352.75,0.75,95,105.0
3623,A3,352.75,0.75,95,105.0
3624,E3,352.75,0.75,95,105.0
3625,A2,352.75,0.75,95,105.0
3626,B-2,353.0,0.5,95,105.0
3627,D2,353.0,0.5,95,105.0
3628,B-2,353.5,0.5,95,105.0
3629,D4,353.5,1.25,95,105.0
3630,A3,353.5,1.25,95,105.0
3631,D3,353.5,1.25,95,105.0
3632,D4,353.5,1.25,95,105.0
3633,A3,353.5,1.25,95,105.0
3634,D3,353.5,1.25,95,105.0
3635,E2,354.0,27/500,95,105.0
3636,E2,354.0,27/500,95,105.0
3637,E1,354.0,0.25,95,105.0
3638,B-2,354.0,0.25,95,105.0
3639,D2,354.0,0.25,95,105.0
3640,B1,354.0,0.25,95,105.0
3641,B1,354.25,0.25,95,105.0
3642,B-2,354.5,0.25,95,105.0
3643,D2,354.5,0.25,95,105.0
3644,E2,354.75,27/500,95,105.0
3645,E2,354.75,27/500,95,105.0
3646,E1,354.75,0.25,95,105.0
3647,E2,355.0,0.25,95,105.0
3648,B-2,355.0,0.5,95,105.0
3649,D2,355.0,0.5,95,105.0
3650,A2,355.25,0.25,95,105.0
3651,B2,355.5,0.25,95,105.0
3652,E1,355.5,0.25,95,105.0
3653,B-2,355.5,0.5,95,105.0
3654,D3,355.75,0.25,95,105.0
3655,A1,356.0,0.75,95,105.0
3656,E3,356.0,2.0,95,105.0
3657,B2,356.0,2.0,95,105.0
3658,E2,356.0,2.0,95,105.0
3659,E3,356.0,2.0,95,105.0
3660,B2,356.0,2.0,95,105.0
3661,E2,356.0,2.0,95,105.0
3662,B-2,356.0,0.5,95,105.0
3663,D2,356.0,0.5,95,105.0
3664,B1,356.0,0.5,95,105.0
3665,B-2,356.5,0.5,95,105.0
3666,A1,356.75,0.75,95,105.0
3667,B-2,357.0,0.5,95,105.0
3668,D2,357.0,0.5,95,105.0
3669,D2,357.5,0.5,95,105.0
3670,B-2,357.5,0.5,95,105.0
3671,D2,358.0,0.25,95,105.0
3672,E4,358.0,27/500,95,105.0
3673,B3,358.0,27/500,95,105.0
3674,G3,358.0,27/500,95,105.0
3675,D3,358.0,27/500,95,105.0
3676,A2,358.0,27/500,95,105.0
3677,E2,358.0,27/500,95,105.0
3678,E4,358.0,27/500,95,105.0
3679,B3,358.0,27/500,95,105.0
3680,G3,358.0,27/500,95,105.0
3681,D3,358.0,27/500,95,105.0
3682,A2,358.0,27/500,95,105.0
3683,E2,358.0,27/500,95,105.0
3684,B-2,358.0,0.25,95,105.0
3685,D2,358.0,0.25,95,105.0
3686,B1,358.0,0.25,95,105.0
3687,B1,358.25,0.25,95,105.0
3688,E4,358.25,27/500,95,105.0
3689,B3,358.25,27/500,95,105.0
3690,G3,358.25,27/500,95,105.0
3691,D3,358.25,27/500,95,105.0
3692,A2,358.25,27/500,95,105.0
3693,E2,358.25,27/500,95,105.0
3694,E4,358.25,27/500,95,105.0
3695,B3,358.25,27/500,95,105.0
3696,G3,358.25,27/500,95,105.0
3697,D3,358.25,27/500,95,105.0
3698,A2,358.25,27/500,95,105.0
3699,E2,358.25,27/500,95,105.0
3700,E2,358.5,27/500,95,105.0
3701,E2,358.5,27/500,95,105.0
3702,B-2,358.5,0.25,95,105.0
3703,D2,358.5,0.25,95,105.0
3704,E2,358.75,27/500,95,105.0
3705,E2,358.75,27/500,95,105.0
3706,D2,358.75,0.25,95,105.0
3707,E2,359.0,0.25,95,105.0
3708,B-2,359.0,0.5,95,105.0
3709,D2,359.0,0.5,95,105.0
3710,A2,359.25,0.25,70,105.0
3711,B2,359.5,0.25,95,105.0
3712,D2,359.5,0.25,95,105.0
3713,B-2,359.5,0.5,95,105.0
3714,D3,359.75,0.25,95,105.0
3715,E1,360.0,2.0,95,105.0
3716,A3,360.0,0.75,95,105.0
3717,E3,360.0,0.75,95,105.0
3718,A2,360.0,0.75,95,105.0
3719,A3,360.0,0.75,95,105.0
3720,E3,360.0,0.75,95,105.0
3721,A2,360.0,0.75,95,105.0
3722,B-2,360.0,0.5,95,105.0
3723,D2,360.0,0.5,95,105.0
3724,B1,360.0,0.5,95,105.0
3725,B-2,360.5,0.5,95,105.0
3726,A3,360.75,0.75,95,105.0
3727,E3,360.75,0.75,95,105.0
3728,A2,360.75,0.75,95,105.0
3729,A3,360.75,0.75,95,105.0
3730,E3,360.75,0.75,95,105.0
3731,A2,360.75,0.75,95,105.0
3732,B-2,361.0,0.5,95,105.0
3733,D2,361.0,0.5,95,105.0
3734,B-2,361.5,0.5,95,105.0
3735,D4,361.5,1.25,95,105.0
3736,A3,361.5,1.25,95,105.0
3737,D3,361.5,1.25,95,105.0
3738,D4,361.5,1.25,95,105.0
3739,A3,361.5,1.25,95,105.0
3740,D3,361.5,1.25,95,105.0
3741,E2,362.0,27/500,95,105.0
3742,E2,362.0,27/500,95,105.0
3743,E1,362.0,0.25,95,105.0
3744,B-2,362.0,0.25,95,105.0
3745,D2,362.0,0.25,95,105.0
3746,B1,362.0,0.25,95,105.0
3747,B1,362.25,0.25,95,105.0
3748,B-2,362.5,0.25,95,105.0
3749,D2,362.5,0.25,95,105.0
3750,E2,362.75,27/500,95,105.0
3751,E2,362.75,27/500,95,105.0
3752,E1,362.75,0.25,95,105.0
3753,G3,363.0,0.25,95,105.0
3754,B-2,363.0,0.5,95,105.0
3755,D2,363.0,0.5,95,105.0
3756,E3,363.25,0.25,95,105.0
3757,D3,363.5,0.25,95,105.0
3758,E1,363.5,0.25,95,105.0
3759,B-2,363.5,0.5,95,105.0
3760,B2,363.75,0.25,95,105.0
3761,A1,364.0,0.75,95,105.0
3762,E3,364.0,2.0,95,105.0
3763,B2,364.0,2.0,95,105.0
3764,E2,364.0,2.0,95,105.0
3765,E3,364.0,2.0,95,105.0
3766,B2,364.0,2.0,95,105.0
3767,E2,364.0,2.0,95,105.0
3768,B-2,364.0,0.5,95,105.0
3769,D2,364.0,0.5,95,105.0
3770,B1,364.0,0.5,95,105.0
3771,B-2,364.5,0.5,95,105.0
3772,A1,364.75,0.75,95,105.0
3773,B-2,365.0,0.5,95,105.0
3774,D2,365.0,0.5,95,105.0
3775,D2,365.5,0.5,95,105.0
3776,B-2,365.5,0.5,95,105.0
3777,D2,366.0,0.25,95,105.0
3778,E4,366.0,27/500,95,105.0
3779,B3,366.0,27/500,95,105.0
3780,G3,366.0,27/500,95,105.0
3781,D3,366.0,27/500,95,105.0
3782,A2,366.0,27/500,95,105.0
3783,E2,366.0,27/500,95,105.0
3784,E4,366.0,27/500,95,105.0
3785,B3,366.0,27/500,95,105.0
3786,G3,366.0,27/500,95,105.0
3787,D3,366.0,27/500,95,105.0
3788,A2,366.0,27/500,95,105.0
3789,E2,366.0,27/500,95,105.0
3790,B-2,366.0,0.25,95,105.0
3791,D2,366.0,0.25,95,105.0
3792,B1,366.0,0.25,95,105.0
3793,B1,366.25,0.25,95,105.0
3794,E4,366.25,27/500,95,105.0
3795,B3,366.25,27/500,95,105.0
3796,G3,366.25,27/500,95,105.0
3797,D3,366.25,27/500,95,105.0
3798,A2,366.25,27/500,95,105.0
3799,E2,366.25,27/500,95,105.0
3800,E4,366.25,27/500,95,105.0
3801,B3,366.25,27/500,95,105.0
3802,G3,366.25,27/500,95,105.0
3803,D3,366.25,27/500,95,105.0
3804,A2,366.25,27/500,95,105.0
3805,E2,366.25,27/500,95,105.0
3806,E2,366.5,27/500,95,105.0
3807,E2,366.5,27/500,95,105.0
3808,B-2,366.5,0.25,95,105.0
3809,D2,366.5,0.25,95,105.0
3810,E2,366.75,27/500,95,105.0
3811,E2,366.75,27/500,95,105.0
3812,D2,366.75,0.25,95,105.0
3813,E2,367.0,0.25,95,105.0
3814,B-2,367.0,0.5,95,105.0
3815,D2,367.0,0.5,95,105.0
3816,A2,367.25,0.25,70,105.0
3817,B2,367.5,0.25,95,105.0
3818,D2,367.5,0.25,95,105.0
3819,B-2,367.5,0.5,95,105.0
3820,D3,367.75,0.25,95,105.0
3821,E1,368.0,2.0,95,105.0
3822,A3,368.0,0.75,95,105.0
3823,E3,368.0,0.75,95,105.0
3824,A2,368.0,0.75,95,105.0
3825,A3,368.0,0.75,95,105.0
3826,E3,368.0,0.75,95,105.0
3827,A2,368.0,0.75,95,105.0
3828,B-2,368.0,0.5,95,105.0
3829,D2,368.0,0.5,95,105.0
3830,B1,368.0,0.5,95,105.0
3831,B-2,368.5,0.5,95,105.0
3832,A3,368.75,0.75,95,105.0
3833,E3,368.75,0.75,95,105.0
3834,A2,368.75,0.75,95,105.0
3835,A3,368.75,0.75,95,105.0
3836,E3,368.75,0.75,95,105.0
3837,A2,368.75,0.75,95,105.0
3838,B-2,369.0,0.5,95,105.0
3839,D2,369.0,0.5,95,105.0
3840,B-2,369.5,0.5,95,105.0
3841,D4,369.5,1.25,95,105.0
3842,A3,369.5,1.25,95,105.0
3843,D3,369.5,1.25,95,105.0
3844,D4,369.5,1.25,95,105.0
3845,A3,369.5,1.25,95,105.0
3846,D3,369.5,1.25,95,105.0
3847,E2,370.0,27/500,95,105.0
3848,E2,370.0,27/500,95,105.0
3849,E1,370.0,0.25,95,105.0
3850,B-2,370.0,0.25,95,105.0
3851,D2,370.0,0.25,95,105.0
3852,B1,370.0,0.25,95,105.0
3853,B1,370.25,0.25,95,105.0
3854,B-2,370.5,0.25,95,105.0
3855,D2,370.5,0.25,95,105.0
3856,E2,370.75,27/500,95,105.0
3857,E2,370.75,27/500,95,105.0
3858,E1,370.75,0.25,95,105.0
3859,E2,371.0,0.25,95,105.0
3860,B-2,371.0,0.5,95,105.0
3861,D2,371.0,0.5,95,105.0
3862,A2,371.25,0.25,95,105.0
3863,B2,371.5,0.25,95,105.0
3864,E1,371.5,0.25,95,105.0
3865,B-2,371.5,0.5,95,105.0
3866,D3,371.75,0.25,95,105.0
3867,A1,372.0,0.75,95,105.0
3868,E3,372.0,2.0,95,105.0
3869,B2,372.0,2.0,95,105.0
3870,E2,372.0,2.0,95,105.0
3871,E3,372.0,2.0,95,105.0
3872,B2,372.0,2.0,95,105.0
3873,E2,372.0,2.0,95,105.0
3874,B-2,372.0,0.5,95,105.0
3875,D2,372.0,0.5,95,105.0
3876,B1,372.0,0.5,95,105.0
3877,B-2,372.5,0.5,95,105.0
3878,A1,372.75,0.75,95,105.0
3879,B-2,373.0,0.5,95,105.0
3880,D2,373.0,0.5,95,105.0
3881,D2,373.5,0.5,95,105.0
3882,B-2,373.5,0.5,95,105.0
3883,D2,374.0,0.25,95,105.0
3884,E4,374.0,27/500,95,105.0
3885,B3,374.0,27/500,95,105.0
3886,G3,374.0,27/500,95,105.0
3887,D3,374.0,27/500,95,105.0
3888,A2,374.0,27/500,95,105.0
3889,E2,374.0,27/500,95,105.0
3890,E4,374.0,27/500,95,105.0
3891,B3,374.0,27/500,95,105.0
3892,G3,374.0,27/500,95,105.0
3893,D3,374.0,27/500,95,105.0
3894,A2,374.0,27/500,95,105.0
3895,E2,374.0,27/500,95,105.0
3896,B-2,374.0,0.25,95,105.0
3897,D2,374.0,0.25,95,105.0
3898,B1,374.0,0.25,95,105.0
3899,B1,374.25,0.25,95,105.0
3900,E4,374.25,27/500,95,105.0
3901,B3,374.25,27/500,95,105.0
3902,G3,374.25,27/500,95,105.0
3903,D3,374.25,27/500,95,105.0
3904,A2,374.25,27/500,95,105.0
3905,E2,374.25,27/500,95,105.0
3906,E4,374.25,27/500,95,105.0
3907,B3,374.25,27/500,95,105.0
3908,G3,374.25,27/500,95,105.0
3909,D3,374.25,27/500,95,105.0
3910,A2,374.25,27/500,95,105.0
3911,E2,374.25,27/500,95,105.0
3912,E2,374.5,27/500,95,105.0
3913,E2,374.5,27/500,95,105.0
3914,B-2,374.5,0.25,95,105.0
3915,D2,374.5,0.25,95,105.0
3916,E2,374.75,27/500,95,105.0
3917,E2,374.75,27/500,95,105.0
3918,D2,374.75,0.25,95,105.0
3919,E2,375.0,0.25,95,105.0
3920,B-2,375.0,0.5,95,105.0
3921,D2,375.0,0.5,95,105.0
3922,A2,375.25,0.25,70,105.0
3923,B2,375.5,0.25,95,105.0
3924,D2,375.5,0.25,95,105.0
3925,B-2,375.5,0.5,95,105.0
3926,D3,375.75,0.25,95,105.0
3927,E1,376.0,2.0,95,105.0
3928,A3,376.0,0.75,95,105.0
3929,E3,376.0,0.75,95,105.0
3930,A2,376.0,0.75,95,105.0
3931,A3,376.0,0.75,95,105.0
3932,E3,376.0,0.75,95,105.0
3933,A2,376.0,0.75,95,105.0
3934,B-2,376.0,0.5,95,105.0
3935,D2,376.0,0.5,95,105.0
3936,B1,376.0,0.5,95,105.0
3937,B-2,376.5,0.5,95,105.0
3938,A3,376.75,0.75,95,105.0
3939,E3,376.75,0.75,95,105.0
3940,A2,376.75,0.75,95,105.0
3941,A3,376.75,0.75,95,105.0
3942,E3,376.75,0.75,95,105.0
3943,A2,376.75,0.75,95,105.0
3944,B-2,377.0,0.5,95,105.0
3945,D2,377.0,0.5,95,105.0
3946,B-2,377.5,0.5,95,105.0
3947,D4,377.5,1.25,95,105.0
3948,A3,377.5,1.25,95,105.0
3949,D3,377.5,1.25,95,105.0
3950,D4,377.5,1.25,95,105.0
3951,A3,377.5,1.25,95,105.0
3952,D3,377.5,1.25,95,105.0
3953,E2,378.0,27/500,95,105.0
3954,E2,378.0,27/500,95,105.0
3955,E1,378.0,0.25,95,105.0
3956,B-2,378.0,0.25,95,105.0
3957,D2,378.0,0.25,95,105.0
3958,B1,378.0,0.25,95,105.0
3959,B1,378.25,0.25,95,105.0
3960,B-2,378.5,0.25,95,105.0
3961,D2,378.5,0.25,95,105.0
3962,E2,378.75,27/500,95,105.0
3963,E2,378.75,27/500,95,105.0
3964,E1,378.75,0.25,95,105.0
3965,G3,379.0,0.25,95,105.0
3966,B-2,379.0,0.5,95,105.0
3967,D2,379.0,0.5,95,105.0
3968,E3,379.25,0.25,95,105.0
3969,D3,379.5,0.25,95,105.0
3970,E1,379.5,0.25,95,105.0
3971,B-2,379.5,0.5,95,105.0
3972,B2,379.75,0.25,95,105.0
3973,A1,380.0,0.75,95,105.0
3974,E3,380.0,2.0,95,105.0
3975,B2,380.0,2.0,95,105.0
3976,E2,380.0,2.0,95,105.0
3977,E3,380.0,2.0,95,105.0
3978,B2,380.0,2.0,95,105.0
3979,E2,380.0,2.0,95,105.0
3980,B-2,380.0,0.5,95,105.0
3981,D2,380.0,0.5,95,105.0
3982,B1,380.0,0.5,95,105.0
3983,B-2,380.5,0.5,95,105.0
3984,A1,380.75,0.75,95,105.0
3985,B-2,381.0,0.5,95,105.0
3986,D2,381.0,0.5,95,105.0
3987,D2,381.5,0.5,95,105.0
3988,B-2,381.5,0.5,95,105.0
3989,D2,382.0,0.25,95,105.0
3990,E4,382.0,27/500,95,105.0
3991,B3,382.0,27/500,95,105.0
3992,G3,382.0,27/500,95,105.0
3993,D3,382.0,27/500,95,105.0
3994,A2,382.0,27/500,95,105.0
3995,E2,382.0,27/500,95,105.0
3996,E4,382.0,27/500,95,105.0
3997,B3,382.0,27/500,95,105.0
3998,G3,382.0,27/500,95,105.0
3999,D3,382.0,27/500,95,105.0
4000,A2,382.0,27/500,95,105.0
4001,E2,382.0,27/500,95,105.0
4002,B-2,382.0,0.25,95,105.0
4003,D2,382.0,0.25,95,105.0
4004,B1,382.0,0.25,95,105.0
4005,B1,382.25,0.25,95,105.0
4006,E4,382.25,27/500,95,105.0
4007,B3,382.25,27/500,95,105.0
4008,G3,382.25,27/500,95,105.0
4009,D3,382.25,27/500,95,105.0
4010,A2,382.25,27/500,95,105.0
4011,E2,382.25,27/500,95,105.0
4012,E4,382.25,27/500,95,105.0
4013,B3,382.25,27/500,95,105.0
4014,G3,382.25,27/500,95,105.0
4015,D3,382.25,27/500,95,105.0
4016,A2,382.25,27/500,95,105.0
4017,E2,382.25,27/500,95,105.0
4018,E2,382.5,27/500,95,105.0
4019,E2,382.5,27/500,95,105.0
4020,B-2,382.5,0.25,95,105.0
4021,D2,382.5,0.25,95,105.0
4022,E2,382.75,27/500,95,105.0
4023,E2,382.75,27/500,95,105.0
4024,D2,382.75,0.25,95,105.0
4025,E2,383.0,0.25,95,105.0
4026,B-2,383.0,0.5,95,105.0
4027,D2,383.0,0.5,95,105.0
4028,A2,383.25,0.25,70,105.0
4029,B2,383.5,0.25,95,105.0
4030,D2,383.5,0.25,95,105.0
4031,B-2,383.5,0.5,95,105.0
4032,D3,383.75,0.25,95,105.0
4033,E1,384.0,0.25,95,105.0
4034,A3,384.0,0.75,95,105.0
4035,E3,384.0,0.75,95,105.0
4036,A2,384.0,0.75,95,105.0
4037,A3,384.0,0.75,95,105.0
4038,E3,384.0,0.75,95,105.0
4039,A2,384.0,0.75,95,105.0
4040,C#3,384.0,0.25,95,105.0
4041,D2,384.0,0.25,95,105.0
4042,D2,384.0,0.25,95,105.0
4043,D2,384.0,0.25,95,105.0
4044,E1,384.25,0.25,95,105.0
4045,C#3,384.25,0.25,95,105.0
4046,E1,384.5,0.25,95,105.0
4047,C#3,384.5,0.25,95,105.0
4048,E1,384.75,0.25,95,105.0
4049,C#3,384.75,0.25,95,105.0
4050,A3,384.75,0.75,95,105.0
4051,E3,384.75,0.75,95,105.0
4052,A2,384.75,0.75,95,105.0
4053,A3,384.75,0.75,95,105.0
4054,E3,384.75,0.75,95,105.0
4055,A2,384.75,0.75,95,105.0
4056,E1,385.0,0.25,95,105.0
4057,C#3,385.0,0.25,95,105.0
4058,E1,385.25,0.25,95,105.0
4059,C#3,385.25,0.25,95,105.0
4060,E1,385.5,0.25,95,105.0
4061,C#3,385.5,0.25,95,105.0
4062,D4,385.5,1.25,95,105.0
4063,A3,385.5,1.25,95,105.0
4064,D3,385.5,1.25,95,105.0
4065,D4,385.5,1.25,95,105.0
4066,A3,385.5,1.25,95,105.0
4067,D3,385.5,1.25,95,105.0
4068,E1,385.75,0.25,95,105.0
4069,C#3,385.75,0.25,95,105.0
4070,E2,386.0,27/500,95,105.0
4071,E2,386.0,27/500,95,105.0
4072,E1,386.0,0.25,95,105.0
4073,C#3,386.0,0.25,95,105.0
4074,E1,386.25,0.25,95,105.0
4075,C#3,386.25,0.25,95,105.0
4076,E1,386.5,0.25,95,105.0
4077,C#3,386.5,0.25,95,105.0
4078,E2,386.75,27/500,95,105.0
4079,E2,386.75,27/500,95,105.0
4080,E1,386.75,0.25,95,105.0
4081,C#3,386.75,0.25,95,105.0
4082,E2,387.0,0.25,95,105.0
4083,E1,387.0,0.25,95,105.0
4084,C#3,387.0,0.25,95,105.0
4085,A2,387.25,0.25,95,105.0
4086,E1,387.25,0.25,95,105.0
4087,C#3,387.25,0.25,95,105.0
4088,B2,387.5,0.25,95,105.0
4089,E1,387.5,0.25,95,105.0
4090,C#3,387.5,0.25,95,105.0
4091,D3,387.75,0.25,95,105.0
4092,E1,387.75,0.25,95,105.0
4093,C#3,387.75,0.25,95,105.0
4094,E1,388.0,4.0,95,105.0
4095,E3,388.0,2.0,95,105.0
4096,B2,388.0,2.0,95,105.0
4097,E2,388.0,2.0,95,105.0
4098,E3,388.0,2.0,95,105.0
4099,B2,388.0,2.0,95,105.0
4100,E2,388.0,2.0,95,105.0
4101,C#3,388.0,4.0,95,105.0
4102,D2,388.0,4.0,95,105.0
4103,C2,388.0,4.0,95,105.0
4104,E4,390.0,27/500,95,105.0
4105,B3,390.0,27/500,95,105.0
4106,G3,390.0,27/500,95,105.0
4107,D3,390.0,27/500,95,105.0
4108,A2,390.0,27/500,95,105.0
4109,E2,390.0,27/500,95,105.0
4110,E4,390.0,27/500,95,105.0
4111,B3,390.0,27/500,95,105.0
4112,G3,390.0,27/500,95,105.0
4113,D3,390.0,27/500,95,105.0
4114,A2,390.0,27/500,95,105.0
4115,E2,390.0,27/500,95,105.0
4116,E4,390.25,27/500,95,105.0
4117,B3,390.25,27/500,95,105.0
4118,G3,390.25,27/500,95,105.0
4119,D3,390.25,27/500,95,105.0
4120,A2,390.25,27/500,95,105.0
4121,E2,390.25,27/500,95,105.0
4122,E4,390.25,27/500,95,105.0
4123,B3,390.25,27/500,95,105.0
4124,G3,390.25,27/500,95,105.0
4125,D3,390.25,27/500,95,105.0
4126,A2,390.25,27/500,95,105.0
4127,E2,390.25,27/500,95,105.0
4128,E2,390.5,27/500,95,105.0
4129,E2,390.5,27/500,95,105.0
4130,E2,390.75,27/500,95,105.0
4131,E2,390.75,27/500,95,105.0
4132,E2,391.0,0.25,95,105.0
4133,A2,391.25,0.25,70,105.0
4134,B2,391.5,0.25,95,105.0
4135,D3,391.75,0.25,95,105.0
4136,E2,392.0,4.0,95,105.0
4137,A3,392.0,0.75,95,105.0
4138,E3,392.0,0.75,95,105.0
4139,A2,392.0,0.75,95,105.0
4140,A3,392.0,0.75,95,105.0
4141,E3,392.0,0.75,95,105.0
4142,A2,392.0,0.75,95,105.0
4143,A3,392.75,0.75,95,105.0
4144,E3,392.75,0.75,95,105.0
4145,A2,392.75,0.75,95,105.0
4146,A3,392.75,0.75,95,105.0
4147,E3,392.75,0.75,95,105.0
4148,A2,392.75,0.75,95,105.0
4149,D4,393.5,1.25,95,105.0
4150,A3,393.5,1.25,95,105.0
4151,D3,393.5,1.25,95,105.0
4152,D4,393.5,1.25,95,105.0
4153,A3,393.5,1.25,95,105.0
4154,D3,393.5,1.25,95,105.0
4155,E2,394.0,27/500,95,105.0
4156,E2,394.0,27/500,95,105.0
4157,E2,394.75,27/500,95,105.0
4158,E2,394.75,27/500,95,105.0
4159,G3,395.0,0.25,95,105.0
4160,E3,395.25,0.25,95,105.0
4161,D3,395.5,0.25,95,105.0
4162,B2,395.75,0.25,95,105.0
4163,E2,396.0,4.0,95,105.0
4164,E3,396.0,0.25,95,105.0
4165,B2,396.0,0.25,95,105.0
4166,E2,396.0,0.25,95,105.0
4167,E3,396.0,0.25,95,105.0
4168,B2,396.0,0.25,95,105.0
4169,E2,396.0,0.25,95,105.0
4170,E3,396.25,0.25,95,105.0
4171,B2,396.25,0.25,95,105.0
4172,E2,396.25,0.25,95,105.0
4173,E3,396.25,0.25,95,105.0
4174,B2,396.25,0.25,95,105.0
4175,E2,396.25,0.25,95,105.0
4176,E3,396.5,0.25,95,105.0
4177,B2,396.5,0.25,95,105.0
4178,E2,396.5,0.25,95,105.0
4179,E3,396.5,0.25,95,105.0
4180,B2,396.5,0.25,95,105.0
4181,E2,396.5,0.25,95,105.0
4182,E3,396.75,0.25,95,105.0
4183,B2,396.75,0.25,95,105.0
4184,E2,396.75,0.25,95,105.0
4185,E3,396.75,0.25,95,105.0
4186,B2,396.75,0.25,95,105.0
4187,E2,396.75,0.25,95,105.0
4188,E3,397.0,0.25,95,105.0
4189,B2,397.0,0.25,95,105.0
4190,E2,397.0,0.25,95,105.0
4191,E3,397.0,0.25,95,105.0
4192,B2,397.0,0.25,95,105.0
4193,E2,397.0,0.25,95,105.0
4194,E3,397.25,0.25,95,105.0
4195,B2,397.25,0.25,95,105.0
4196,E2,397.25,0.25,95,105.0
4197,E3,397.25,0.25,95,105.0
4198,B2,397.25,0.25,95,105.0
4199,E2,397.25,0.25,95,105.0
4200,E3,397.5,0.25,95,105.0
4201,B2,397.5,0.25,95,105.0
4202,E2,397.5,0.25,95,105.0
4203,E3,397.5,0.25,95,105.0
4204,B2,397.5,0.25,95,105.0
4205,E2,397.5,0.25,95,105.0
4206,E3,397.75,0.25,95,105.0
4207,B2,397.75,0.25,95,105.0
4208,E2,397.75,0.25,95,105.0
4209,E3,397.75,0.25,95,105.0
4210,B2,397.75,0.25,95,105.0
4211,E2,397.75,0.25,95,105.0
4212,E3,398.0,0.25,95,105.0
4213,B2,398.0,0.25,95,105.0
4214,E2,398.0,0.25,95,105.0
4215,E3,398.0,0.25,95,105.0
4216,B2,398.0,0.25,95,105.0
4217,E2,398.0,0.25,95,105.0
4218,E3,398.25,0.25,95,105.0
4219,B2,398.25,0.25,95,105.0
4220,E2,398.25,0.25,95,105.0
4221,E3,398.25,0.25,95,105.0
4222,B2,398.25,0.25,95,105.0
4223,E2,398.25,0.25,95,105.0
4224,E3,398.5,0.25,95,105.0
4225,B2,398.5,0.25,95,105.0
4226,E2,398.5,0.25,95,105.0
4227,E3,398.5,0.25,95,105.0
4228,B2,398.5,0.25,95,105.0
4229,E2,398.5,0.25,95,105.0
4230,E3,398.75,0.25,95,105.0
4231,B2,398.75,0.25,95,105.0
4232,E2,398.75,0.25,95,105.0
4233,E3,398.75,0.25,95,105.0
4234,B2,398.75,0.25,95,105.0
4235,E2,398.75,0.25,95,105.0
4236,E3,399.0,0.25,95,105.0
4237,B2,399.0,0.25,95,105.0
4238,E2,399.0,0.25,95,105.0
4239,E3,399.0,0.25,95,105.0
4240,B2,399.0,0.25,95,105.0
4241,E2,399.0,0.25,95,105.0
4242,E3,399.25,0.25,95,105.0
4243,B2,399.25,0.25,95,105.0
4244,E2,399.25,0.25,95,105.0
4245,E3,399.25,0.25,95,105.0
4246,B2,399.25,0.25,95,105.0
4247,E2,399.25,0.25,95,105.0
4248,E3,399.5,0.25,95,105.0
4249,B2,399.5,0.25,95,105.0
4250,E2,399.5,0.25,95,105.0
4251,E3,399.5,0.25,95,105.0
4252,B2,399.5,0.25,95,105.0
4253,E2,399.5,0.25,95,105.0
4254,E3,399.75,0.25,95,105.0
4255,B2,399.75,0.25,95,105.0
4256,E2,399.75,0.25,95,105.0
4257,E3,399.75,0.25,95,105.0
4258,B2,399.75,0.25,95,105.0
4259,E2,399.75,0.25,95,105.0
4260,G4,400.0,4.0,95,105.0
4261,E1,400.0,0.25,95,105.0
4262,D2,400.0,4.0,95,105.0
4263,D4,400.0,4.0,95,105.0
4264,E3,400.0,4.0,95,105.0
4265,D5,404.0,0.25,95,105.0
4266,G4,404.0,0.25,95,105.0
4267,E5,404.25,0.25,95,105.0
4268,D5,404.5,0.25,95,105.0
4269,E5,404.75,0.125,95,105.0
4270,B4,404.875,0.125,95,105.0
4271,D5,405.0,0.125,70,105.0
4272,B4,405.125,0.125,70,105.0
4273,B-4,405.25,0.25,95,105.0
4274,B4,405.5,0.25,95,105.0
4275,D5,405.75,0.125,70,105.0
4276,B4,405.875,0.125,70,105.0
4277,E5,406.0,167/1000,95,105.0
4278,B4,406.167,167/1000,95,105.0
4279,D5,406.333,167/1000,70,105.0
4280,B4,406.5,167/1000,70,105.0
4281,B4,406.667,167/1000,95,105.0
4282,B4,406.833,167/1000,95,105.0
4283,B-4,407.0,0.125,95,105.0
4284,A4,407.125,0.125,95,105.0
4285,G4,407.25,0.125,70,105.0
4286,E4,407.375,0.125,95,105.0
4287,A4,407.5,0.125,95,105.0
4288,E4,407.625,0.125,95,105.0
4289,F#4,407.75,0.125,95,105.0
4290,G4,407.875,0.125,70,105.0
4291,F#4,408.0,0.125,95,105.0
4292,E4,408.125,0.125,95,105.0
4293,F#4,408.25,0.125,95,105.0
4294,D4,408.375,0.125,95,105.0
4295,E4,408.5,1/10,95,105.0
4296,C#4,408.6,1/10,95,105.0
4297,D4,408.7,1/10,70,105.0
4298,C#4,408.8,1/10,70,105.0
4299,B3,408.9,1/10,95,105.0
4300,C#4,409.0,0.25,95,105.0
4301,A3,409.25,0.25,95,105.0
4302,G#3,409.5,0.25,95,105.0
4303,F#3,409.75,0.25,95,105.0
4304,E3,410.0,0.25,95,105.0
4305,D3,410.25,0.75,95,105.0
4306,B2,411.0,1.0,95,105.0
4307,B2,412.0,0.5,95,105.0
4308,E2,412.0,0.5,95,105.0
4309,B2,412.0,0.5,95,105.0
4310,E2,412.0,0.5,95,105.0
