,note_name,start_time,duration,velocity,tempo
0,F#2,0.0,1/100,109,160.0
1,F#2,1.0,1/100,109,160.0
2,F#2,2.0,1/100,109,160.0
3,F#2,3.0,1/100,109,160.0
4,F3,4.0,0.5,64,160.0
5,E-2,4.0,1.25,64,160.0
6,F#2,4.0,1/100,109,160.0
7,B-3,4.0,0.75,64,160.0
8,E-4,4.0,0.75,64,160.0
9,B-2,4.5,0.75,64,160.0
10,G3,4.5,0.25,64,160.0
11,E-3,5.0,0.25,64,160.0
12,F#2,5.0,1/100,109,160.0
13,E-2,5.5,0.25,64,160.0
14,B-3,5.5,0.25,64,160.0
15,G3,5.5,0.25,64,160.0
16,E-4,5.5,0.25,64,160.0
17,E-3,5.5,0.25,64,160.0
18,B-2,5.5,0.25,64,160.0
19,E-2,6.0,1.25,64,160.0
20,F#2,6.0,1/100,109,160.0
21,E-4,6.0,1.0,64,160.0
22,B-3,6.0,1.0,64,160.0
23,G3,6.0,1.0,64,160.0
24,B-2,6.5,0.75,64,160.0
25,E-3,7.0,0.25,64,160.0
26,F#2,7.0,1/100,109,160.0
27,G3,7.5,0.5,64,160.0
28,E-4,7.5,0.5,64,160.0
29,B-3,7.5,0.5,64,160.0
30,E-2,7.5,0.25,64,160.0
31,E-3,7.5,0.25,64,160.0
32,B-2,7.5,0.25,64,160.0
33,E-2,8.0,1.25,64,160.0
34,F#2,8.0,1/100,109,160.0
35,G3,8.0,1.25,64,160.0
36,E-4,8.0,1.25,64,160.0
37,B-3,8.0,1.25,64,160.0
38,B-2,8.5,0.75,64,160.0
39,E-3,9.0,0.25,64,160.0
40,F#2,9.0,1/100,109,160.0
41,B-3,9.5,1.0,64,160.0
42,E-4,9.5,1.25,64,160.0
43,F3,9.5,1.5,64,160.0
44,E-2,9.5,0.25,64,160.0
45,E-3,9.5,0.25,64,160.0
46,B-2,9.5,0.25,64,160.0
47,E-2,10.0,1.25,64,160.0
48,F#2,10.0,1/100,109,160.0
49,B-2,10.5,0.75,64,160.0
50,B-3,10.5,0.25,64,160.0
51,F3,11.0,0.75,64,160.0
52,F#2,11.0,1/100,109,160.0
53,B-3,11.0,0.5,64,160.0
54,E-4,11.0,0.5,64,160.0
55,E-2,11.5,0.25,64,160.0
56,E-3,11.5,0.25,64,160.0
57,B-2,11.5,0.25,64,160.0
58,F3,12.0,0.25,64,160.0
59,E-2,12.0,1.25,64,160.0
60,F#2,12.0,1/100,109,160.0
61,B-3,12.0,0.5,64,160.0
62,E-4,12.0,0.5,64,160.0
63,B-2,12.5,0.75,64,160.0
64,B-3,12.5,0.25,64,160.0
65,E-4,12.5,0.25,64,160.0
66,G3,12.5,0.25,64,160.0
67,E-3,13.0,0.25,64,160.0
68,F#2,13.0,1/100,109,160.0
69,B-3,13.5,0.25,64,160.0
70,E-4,13.5,0.25,64,160.0
71,G3,13.5,0.25,64,160.0
72,E-2,13.5,0.25,64,160.0
73,B-2,13.5,0.25,64,160.0
74,E-3,13.5,0.25,64,160.0
75,F#2,14.0,1/100,109,160.0
76,B-3,14.0,1.25,64,160.0
77,E-4,14.0,1.25,64,160.0
78,G3,14.0,1.25,64,160.0
79,E-2,14.0,1.25,64,160.0
80,B-2,14.5,0.75,64,160.0
81,E-3,15.0,0.25,64,160.0
82,F#2,15.0,1/100,109,160.0
83,B-3,15.5,0.5,64,160.0
84,G3,15.5,0.5,64,160.0
85,E-4,15.5,0.5,64,160.0
86,E-2,15.5,0.25,64,160.0
87,E-3,15.5,0.25,64,160.0
88,B-2,15.5,0.25,64,160.0
89,F#2,16.0,1/100,109,160.0
90,B-3,16.0,1.25,64,160.0
91,G3,16.0,1.25,64,160.0
92,E-4,16.0,1.25,64,160.0
93,E-2,16.0,1.25,64,160.0
94,B-3,16.0,1.25,64,160.0
95,G3,16.0,1.25,64,160.0
96,E-4,16.0,1.25,64,160.0
97,B-2,16.5,0.75,64,160.0
98,E-3,17.0,0.25,64,160.0
99,F#2,17.0,1/100,109,160.0
100,E-2,17.5,0.25,64,160.0
101,E-3,17.5,0.25,64,160.0
102,B-2,17.5,0.25,64,160.0
103,B-3,17.5,1.0,64,160.0
104,E-4,17.5,1.0,64,160.0
105,F3,17.5,1.0,64,160.0
106,E-2,18.0,1.25,64,160.0
107,F#2,18.0,1/100,109,160.0
108,B-2,18.5,0.75,64,160.0
109,E-3,19.0,0.25,64,160.0
110,F#2,19.0,1/100,109,160.0
111,B-3,19.0,0.75,64,160.0
112,E-4,19.0,0.75,64,160.0
113,F3,19.0,0.75,64,160.0
114,E-2,19.5,0.25,64,160.0
115,B-2,19.5,0.25,64,160.0
116,E-3,19.5,0.25,64,160.0
117,F3,20.0,0.5,64,160.0
118,E-2,20.0,1.25,64,160.0
119,E-2,20.0,1.5,90,160.0
120,B-3,20.0,0.75,64,160.0
121,E-4,20.0,0.75,64,160.0
122,F#2,20.0,1/100,109,160.0
123,B1,20.0,1/100,109,160.0
124,B-2,20.5,0.75,64,160.0
125,G3,20.5,0.25,64,160.0
126,F#2,20.5,1/100,109,160.0
127,E-3,21.0,0.25,64,160.0
128,F#2,21.0,1/100,109,160.0
129,B-2,21.5,0.5,90,160.0
130,E-2,21.5,0.25,64,160.0
131,B-3,21.5,0.25,64,160.0
132,G3,21.5,0.25,64,160.0
133,E-4,21.5,0.25,64,160.0
134,E-3,21.5,0.25,64,160.0
135,B-2,21.5,0.25,64,160.0
136,F#2,21.5,1/100,109,160.0
137,B1,21.5,1/100,109,160.0
138,E-2,22.0,1.25,64,160.0
139,C3,22.0,0.25,90,160.0
140,E-4,22.0,1.0,64,160.0
141,B-3,22.0,1.0,64,160.0
142,G3,22.0,1.0,64,160.0
143,F#2,22.0,1/100,109,160.0
144,D2,22.0,1/100,109,160.0
145,B-2,22.5,0.75,64,160.0
146,F#2,22.5,1/100,109,160.0
147,E-3,23.0,0.25,64,160.0
148,B-2,23.0,1.0,90,160.0
149,F#2,23.0,1/100,109,160.0
150,F#2,23.5,1/100,109,160.0
151,G3,23.5,0.5,64,160.0
152,E-4,23.5,0.5,64,160.0
153,B-3,23.5,0.5,64,160.0
154,E-2,23.5,0.25,64,160.0
155,E-3,23.5,0.25,64,160.0
156,B-2,23.5,0.25,64,160.0
157,E-2,24.0,1.25,64,160.0
158,B-2,24.0,2.25,90,160.0
159,G3,24.0,1.25,64,160.0
160,E-4,24.0,1.25,64,160.0
161,B-3,24.0,1.25,64,160.0
162,F#2,24.0,1/100,109,160.0
163,B1,24.0,1/100,109,160.0
164,B-2,24.5,0.75,64,160.0
165,F#2,24.5,1/100,109,160.0
166,E-3,25.0,0.25,64,160.0
167,F#2,25.0,1/100,109,160.0
168,B-3,25.5,1.0,64,160.0
169,E-4,25.5,1.25,64,160.0
170,F3,25.5,1.5,64,160.0
171,E-2,25.5,0.25,64,160.0
172,E-3,25.5,0.25,64,160.0
173,B-2,25.5,0.25,64,160.0
174,F#2,25.5,1/100,109,160.0
175,B1,25.5,1/100,109,160.0
176,E-2,26.0,1.25,64,160.0
177,F#2,26.0,1/100,109,160.0
178,D2,26.0,1/100,109,160.0
179,B-2,26.5,0.75,64,160.0
180,B-3,26.5,0.25,64,160.0
181,F#2,26.5,1/100,109,160.0
182,F#2,26.917,0.125,90,160.0
183,F3,27.0,0.75,64,160.0
184,G2,27.0,0.25,90,160.0
185,F#2,27.0,1/100,109,160.0
186,B-3,27.0,0.5,64,160.0
187,E-4,27.0,0.5,64,160.0
188,C2,27.5,0.5,90,160.0
189,F#2,27.5,1/100,109,160.0
190,E-2,27.5,0.25,64,160.0
191,E-3,27.5,0.25,64,160.0
192,B-2,27.5,0.25,64,160.0
193,F3,28.0,0.25,64,160.0
194,E-2,28.0,1.25,64,160.0
195,E-2,28.0,1.5,90,160.0
196,B-3,28.0,0.5,64,160.0
197,E-4,28.0,0.5,64,160.0
198,F#2,28.0,1/100,109,160.0
199,B1,28.0,1/100,109,160.0
200,B-2,28.5,0.75,64,160.0
201,F#2,28.5,1/100,109,160.0
202,B-3,28.5,0.25,64,160.0
203,E-4,28.5,0.25,64,160.0
204,G3,28.5,0.25,64,160.0
205,E-3,29.0,0.25,64,160.0
206,F#2,29.0,1/100,109,160.0
207,B-2,29.5,0.5,90,160.0
208,B-3,29.5,0.25,64,160.0
209,E-4,29.5,0.25,64,160.0
210,G3,29.5,0.25,64,160.0
211,E-2,29.5,0.25,64,160.0
212,B-2,29.5,0.25,64,160.0
213,E-3,29.5,0.25,64,160.0
214,F#2,29.5,1/100,109,160.0
215,B1,29.5,1/100,109,160.0
216,C3,30.0,0.25,90,160.0
217,B-3,30.0,1.25,64,160.0
218,E-4,30.0,1.25,64,160.0
219,G3,30.0,1.25,64,160.0
220,E-2,30.0,1.25,64,160.0
221,F#2,30.0,1/100,109,160.0
222,D2,30.0,1/100,109,160.0
223,B-2,30.5,0.75,64,160.0
224,F#2,30.5,1/100,109,160.0
225,E-3,31.0,0.25,64,160.0
226,B-2,31.0,1.0,90,160.0
227,F#2,31.0,1/100,109,160.0
228,F#2,31.5,1/100,109,160.0
229,B-3,31.5,0.5,64,160.0
230,G3,31.5,0.5,64,160.0
231,E-4,31.5,0.5,64,160.0
232,E-2,31.5,0.25,64,160.0
233,E-3,31.5,0.25,64,160.0
234,B-2,31.5,0.25,64,160.0
235,B-2,32.0,2.25,90,160.0
236,B-3,32.0,1.25,64,160.0
237,G3,32.0,1.25,64,160.0
238,E-4,32.0,1.25,64,160.0
239,E-2,32.0,1.25,64,160.0
240,B-3,32.0,1.25,64,160.0
241,G3,32.0,1.25,64,160.0
242,E-4,32.0,1.25,64,160.0
243,F#2,32.0,1/100,109,160.0
244,B1,32.0,1/100,109,160.0
245,B-2,32.5,0.75,64,160.0
246,F#2,32.5,1/100,109,160.0
247,E-3,33.0,0.25,64,160.0
248,F#2,33.0,1/100,109,160.0
249,E-2,33.5,0.25,64,160.0
250,E-3,33.5,0.25,64,160.0
251,B-2,33.5,0.25,64,160.0
252,B-3,33.5,1.0,64,160.0
253,E-4,33.5,1.0,64,160.0
254,F3,33.5,1.0,64,160.0
255,F#2,33.5,1/100,109,160.0
256,B1,33.5,1/100,109,160.0
257,E-2,34.0,1.25,64,160.0
258,F#2,34.0,1/100,109,160.0
259,D2,34.0,1/100,109,160.0
260,B-2,34.5,0.75,64,160.0
261,F#2,34.5,1/100,109,160.0
262,F#2,34.917,0.125,90,160.0
263,E-3,35.0,0.25,64,160.0
264,G2,35.0,0.25,90,160.0
265,F#2,35.0,1/100,109,160.0
266,B-3,35.0,0.75,64,160.0
267,E-4,35.0,0.75,64,160.0
268,F3,35.0,0.75,64,160.0
269,C2,35.5,0.5,90,160.0
270,F#2,35.5,1/100,109,160.0
271,E-2,35.5,0.25,64,160.0
272,B-2,35.5,0.25,64,160.0
273,E-3,35.5,0.25,64,160.0
274,F3,36.0,0.5,64,160.0
275,E-2,36.0,1.25,64,160.0
276,E-2,36.0,1.5,90,160.0
277,B-3,36.0,0.75,64,160.0
278,E-4,36.0,0.75,64,160.0
279,F#2,36.0,1/100,109,160.0
280,B1,36.0,1/100,109,160.0
281,B-2,36.5,0.75,64,160.0
282,G3,36.5,0.25,64,160.0
283,F#2,36.5,1/100,109,160.0
284,E-3,37.0,0.25,64,160.0
285,F#2,37.0,1/100,109,160.0
286,B-2,37.5,0.5,90,160.0
287,E-2,37.5,0.25,64,160.0
288,B-3,37.5,0.25,64,160.0
289,G3,37.5,0.25,64,160.0
290,E-4,37.5,0.25,64,160.0
291,E-3,37.5,0.25,64,160.0
292,B-2,37.5,0.25,64,160.0
293,F#2,37.5,1/100,109,160.0
294,B1,37.5,1/100,109,160.0
295,E-2,38.0,1.25,64,160.0
296,C3,38.0,0.25,90,160.0
297,E-4,38.0,1.0,64,160.0
298,B-3,38.0,1.0,64,160.0
299,G3,38.0,1.0,64,160.0
300,F#2,38.0,1/100,109,160.0
301,D2,38.0,1/100,109,160.0
302,B-2,38.5,0.75,64,160.0
303,F#2,38.5,1/100,109,160.0
304,E-3,39.0,0.25,64,160.0
305,B-2,39.0,1.0,90,160.0
306,F#2,39.0,1/100,109,160.0
307,F#2,39.5,1/100,109,160.0
308,G3,39.5,0.5,64,160.0
309,E-4,39.5,0.5,64,160.0
310,B-3,39.5,0.5,64,160.0
311,E-2,39.5,0.25,64,160.0
312,E-3,39.5,0.25,64,160.0
313,B-2,39.5,0.25,64,160.0
314,E-2,40.0,1.25,64,160.0
315,B-2,40.0,2.25,90,160.0
316,G3,40.0,1.25,64,160.0
317,E-4,40.0,1.25,64,160.0
318,B-3,40.0,1.25,64,160.0
319,F#2,40.0,1/100,109,160.0
320,B1,40.0,1/100,109,160.0
321,B-2,40.5,0.75,64,160.0
322,F#2,40.5,1/100,109,160.0
323,E-3,41.0,0.25,64,160.0
324,F#2,41.0,1/100,109,160.0
325,B-3,41.5,1.0,64,160.0
326,E-4,41.5,1.25,64,160.0
327,F3,41.5,1.5,64,160.0
328,E-2,41.5,0.25,64,160.0
329,E-3,41.5,0.25,64,160.0
330,B-2,41.5,0.25,64,160.0
331,F#2,41.5,1/100,109,160.0
332,B1,41.5,1/100,109,160.0
333,E-2,42.0,1.25,64,160.0
334,F#2,42.0,1/100,109,160.0
335,D2,42.0,1/100,109,160.0
336,B-2,42.5,0.75,64,160.0
337,B-3,42.5,0.25,64,160.0
338,F#2,42.5,1/100,109,160.0
339,F#2,42.917,0.125,90,160.0
340,F3,43.0,0.75,64,160.0
341,G2,43.0,0.25,90,160.0
342,F#2,43.0,1/100,109,160.0
343,B-3,43.0,0.5,64,160.0
344,E-4,43.0,0.5,64,160.0
345,C2,43.5,0.5,90,160.0
346,F#2,43.5,1/100,109,160.0
347,E-2,43.5,0.25,64,160.0
348,E-3,43.5,0.25,64,160.0
349,B-2,43.5,0.25,64,160.0
350,F3,44.0,0.25,64,160.0
351,E-2,44.0,1.25,64,160.0
352,E-2,44.0,1.5,90,160.0
353,B-3,44.0,0.5,64,160.0
354,E-4,44.0,0.5,64,160.0
355,F#2,44.0,1/100,109,160.0
356,B1,44.0,1/100,109,160.0
357,B-2,44.5,0.75,64,160.0
358,F#2,44.5,1/100,109,160.0
359,B-3,44.5,0.25,64,160.0
360,E-4,44.5,0.25,64,160.0
361,G3,44.5,0.25,64,160.0
362,E-3,45.0,0.25,64,160.0
363,F#2,45.0,1/100,109,160.0
364,B-2,45.5,0.5,90,160.0
365,B-3,45.5,0.25,64,160.0
366,E-4,45.5,0.25,64,160.0
367,G3,45.5,0.25,64,160.0
368,E-2,45.5,0.25,64,160.0
369,B-2,45.5,0.25,64,160.0
370,E-3,45.5,0.25,64,160.0
371,F#2,45.5,1/100,109,160.0
372,B1,45.5,1/100,109,160.0
373,C3,46.0,0.25,90,160.0
374,B-3,46.0,1.25,64,160.0
375,E-4,46.0,1.25,64,160.0
376,G3,46.0,1.25,64,160.0
377,E-2,46.0,1.25,64,160.0
378,F#2,46.0,1/100,109,160.0
379,D2,46.0,1/100,109,160.0
380,B-2,46.5,0.75,64,160.0
381,F#2,46.5,1/100,109,160.0
382,E-3,47.0,0.25,64,160.0
383,B-2,47.0,1.0,90,160.0
384,F#2,47.0,1/100,109,160.0
385,F#2,47.5,1/100,109,160.0
386,B-3,47.5,0.5,64,160.0
387,G3,47.5,0.5,64,160.0
388,E-4,47.5,0.5,64,160.0
389,E-2,47.5,0.25,64,160.0
390,E-3,47.5,0.25,64,160.0
391,B-2,47.5,0.25,64,160.0
392,B-2,48.0,2.25,90,160.0
393,B-3,48.0,1.25,64,160.0
394,G3,48.0,1.25,64,160.0
395,E-4,48.0,1.25,64,160.0
396,E-2,48.0,1.25,64,160.0
397,B-3,48.0,1.25,64,160.0
398,G3,48.0,1.25,64,160.0
399,E-4,48.0,1.25,64,160.0
400,F#2,48.0,1/100,109,160.0
401,B1,48.0,1/100,109,160.0
402,B-2,48.5,0.75,64,160.0
403,F#2,48.5,1/100,109,160.0
404,E-3,49.0,0.25,64,160.0
405,F#2,49.0,1/100,109,160.0
406,E-2,49.5,0.25,64,160.0
407,E-3,49.5,0.25,64,160.0
408,B-2,49.5,0.25,64,160.0
409,B-3,49.5,1.0,64,160.0
410,E-4,49.5,1.0,64,160.0
411,F3,49.5,1.0,64,160.0
412,F#2,49.5,1/100,109,160.0
413,B1,49.5,1/100,109,160.0
414,E-2,50.0,1.25,64,160.0
415,F#2,50.0,1/100,109,160.0
416,D2,50.0,1/100,109,160.0
417,B-2,50.5,0.75,64,160.0
418,F#2,50.5,1/100,109,160.0
419,F#2,50.917,0.125,90,160.0
420,E-3,51.0,0.25,64,160.0
421,G2,51.0,0.25,90,160.0
422,B-3,51.0,0.75,64,160.0
423,E-4,51.0,0.75,64,160.0
424,F3,51.0,0.75,64,160.0
425,F#2,51.0,1/100,109,160.0
426,D2,51.0,1/100,109,160.0
427,C2,51.5,0.5,90,160.0
428,E-2,51.5,0.25,64,160.0
429,B-2,51.5,0.25,64,160.0
430,E-3,51.5,0.25,64,160.0
431,F#2,51.5,1/100,109,160.0
432,D2,51.5,1/100,109,160.0
433,F3,52.0,0.5,64,160.0
434,E-2,52.0,1.25,64,160.0
435,E-2,52.0,1.5,90,160.0
436,B-3,52.0,0.75,64,160.0
437,E-4,52.0,0.75,64,160.0
438,F#2,52.0,1/100,109,160.0
439,B1,52.0,1/100,109,160.0
440,C#3,52.0,1/100,109,160.0
441,B-2,52.5,0.75,64,160.0
442,G3,52.5,0.25,64,160.0
443,F#2,52.5,1/100,109,160.0
444,E-3,53.0,0.25,64,160.0
445,F#2,53.0,1/100,109,160.0
446,B-2,53.5,0.5,90,160.0
447,E-2,53.5,0.25,64,160.0
448,B-3,53.5,0.25,64,160.0
449,G3,53.5,0.25,64,160.0
450,E-4,53.5,0.25,64,160.0
451,E-3,53.5,0.25,64,160.0
452,B-2,53.5,0.25,64,160.0
453,F#2,53.5,1/100,109,160.0
454,B1,53.5,1/100,109,160.0
455,E-2,54.0,1.25,64,160.0
456,C3,54.0,0.25,90,160.0
457,E-4,54.0,1.0,64,160.0
458,B-3,54.0,1.0,64,160.0
459,G3,54.0,1.0,64,160.0
460,F#2,54.0,1/100,109,160.0
461,D2,54.0,1/100,109,160.0
462,B-2,54.5,0.75,64,160.0
463,F#2,54.5,1/100,109,160.0
464,E-3,55.0,0.25,64,160.0
465,B-2,55.0,1.0,90,160.0
466,F#2,55.0,1/100,109,160.0
467,F#2,55.5,1/100,109,160.0
468,G3,55.5,0.5,64,160.0
469,E-4,55.5,0.5,64,160.0
470,B-3,55.5,0.5,64,160.0
471,E-2,55.5,0.25,64,160.0
472,E-3,55.5,0.25,64,160.0
473,B-2,55.5,0.25,64,160.0
474,E-2,56.0,1.25,64,160.0
475,B-2,56.0,2.25,90,160.0
476,G3,56.0,1.25,64,160.0
477,E-4,56.0,1.25,64,160.0
478,B-3,56.0,1.25,64,160.0
479,F#2,56.0,1/100,109,160.0
480,B1,56.0,1/100,109,160.0
481,B-2,56.5,0.75,64,160.0
482,F#2,56.5,1/100,109,160.0
483,E-3,57.0,0.25,64,160.0
484,F#2,57.0,1/100,109,160.0
485,B-3,57.5,1.0,64,160.0
486,E-4,57.5,1.25,64,160.0
487,F3,57.5,1.5,64,160.0
488,E-2,57.5,0.25,64,160.0
489,E-3,57.5,0.25,64,160.0
490,B-2,57.5,0.25,64,160.0
491,F#2,57.5,1/100,109,160.0
492,B1,57.5,1/100,109,160.0
493,E-2,58.0,1.25,64,160.0
494,F#2,58.0,1/100,109,160.0
495,D2,58.0,1/100,109,160.0
496,B-2,58.5,0.75,64,160.0
497,B-3,58.5,0.25,64,160.0
498,F#2,58.5,1/100,109,160.0
499,F#2,58.917,0.125,90,160.0
500,F3,59.0,0.75,64,160.0
501,G2,59.0,0.25,90,160.0
502,F#2,59.0,1/100,109,160.0
503,B-3,59.0,0.5,64,160.0
504,E-4,59.0,0.5,64,160.0
505,C2,59.5,0.5,90,160.0
506,F#2,59.5,1/100,109,160.0
507,E-2,59.5,0.25,64,160.0
508,E-3,59.5,0.25,64,160.0
509,B-2,59.5,0.25,64,160.0
510,F3,60.0,0.25,64,160.0
511,E-2,60.0,1.25,64,160.0
512,E-2,60.0,1.5,90,160.0
513,B-3,60.0,0.5,64,160.0
514,E-4,60.0,0.5,64,160.0
515,F#2,60.0,1/100,109,160.0
516,B1,60.0,1/100,109,160.0
517,B-2,60.5,0.75,64,160.0
518,F#2,60.5,1/100,109,160.0
519,B-3,60.5,0.25,64,160.0
520,E-4,60.5,0.25,64,160.0
521,G3,60.5,0.25,64,160.0
522,E-3,61.0,0.25,64,160.0
523,F#2,61.0,1/100,109,160.0
524,B-2,61.5,0.5,90,160.0
525,B-3,61.5,0.25,64,160.0
526,E-4,61.5,0.25,64,160.0
527,G3,61.5,0.25,64,160.0
528,E-2,61.5,0.25,64,160.0
529,B-2,61.5,0.25,64,160.0
530,E-3,61.5,0.25,64,160.0
531,F#2,61.5,1/100,109,160.0
532,B1,61.5,1/100,109,160.0
533,C3,62.0,0.25,90,160.0
534,B-3,62.0,1.25,64,160.0
535,E-4,62.0,1.25,64,160.0
536,G3,62.0,1.25,64,160.0
537,E-2,62.0,1.25,64,160.0
538,F#2,62.0,1/100,109,160.0
539,D2,62.0,1/100,109,160.0
540,B-2,62.5,0.75,64,160.0
541,F#2,62.5,1/100,109,160.0
542,E-3,63.0,0.25,64,160.0
543,B-2,63.0,1.0,90,160.0
544,F#2,63.0,1/100,109,160.0
545,F#2,63.5,1/100,109,160.0
546,B-3,63.5,0.5,64,160.0
547,G3,63.5,0.5,64,160.0
548,E-4,63.5,0.5,64,160.0
549,E-2,63.5,0.25,64,160.0
550,E-3,63.5,0.25,64,160.0
551,B-2,63.5,0.25,64,160.0
552,B-2,64.0,2.25,90,160.0
553,B-3,64.0,1.25,64,160.0
554,G3,64.0,1.25,64,160.0
555,E-4,64.0,1.25,64,160.0
556,E-2,64.0,1.25,64,160.0
557,B-3,64.0,1.25,64,160.0
558,G3,64.0,1.25,64,160.0
559,E-4,64.0,1.25,64,160.0
560,F#2,64.0,1/100,109,160.0
561,B1,64.0,1/100,109,160.0
562,B-2,64.5,0.75,64,160.0
563,F#2,64.5,1/100,109,160.0
564,E-3,65.0,0.25,64,160.0
565,F#2,65.0,1/100,109,160.0
566,E-2,65.5,0.25,64,160.0
567,E-3,65.5,0.25,64,160.0
568,B-2,65.5,0.25,64,160.0
569,B-3,65.5,1.0,64,160.0
570,E-4,65.5,1.0,64,160.0
571,F3,65.5,1.0,64,160.0
572,F#2,65.5,1/100,109,160.0
573,B1,65.5,1/100,109,160.0
574,E-2,66.0,1.25,64,160.0
575,F#2,66.0,1/100,109,160.0
576,D2,66.0,1/100,109,160.0
577,B-2,66.5,0.75,64,160.0
578,F#2,66.5,1/100,109,160.0
579,F#2,66.917,0.125,90,160.0
580,E-3,67.0,0.25,64,160.0
581,G2,67.0,0.25,90,160.0
582,F#2,67.0,1/100,109,160.0
583,B-3,67.0,0.75,64,160.0
584,E-4,67.0,0.75,64,160.0
585,F3,67.0,0.75,64,160.0
586,C2,67.5,0.5,90,160.0
587,F#2,67.5,1/100,109,160.0
588,E-2,67.5,0.25,64,160.0
589,B-2,67.5,0.25,64,160.0
590,E-3,67.5,0.25,64,160.0
591,F3,68.0,0.5,64,160.0
592,E-2,68.0,1.25,64,160.0
593,E-2,68.0,1.5,90,160.0
594,B-3,68.0,0.75,64,160.0
595,E-4,68.0,0.75,64,160.0
596,F#2,68.0,1/100,109,160.0
597,B1,68.0,1/100,109,160.0
598,B-2,68.5,0.75,64,160.0
599,G3,68.5,0.25,64,160.0
600,F#2,68.5,1/100,109,160.0
601,E-3,69.0,0.25,64,160.0
602,F#2,69.0,1/100,109,160.0
603,B-2,69.5,0.5,90,160.0
604,E-2,69.5,0.25,64,160.0
605,B-3,69.5,0.25,64,160.0
606,G3,69.5,0.25,64,160.0
607,E-4,69.5,0.25,64,160.0
608,E-3,69.5,0.25,64,160.0
609,B-2,69.5,0.25,64,160.0
610,F#2,69.5,1/100,109,160.0
611,B1,69.5,1/100,109,160.0
612,E-2,70.0,1.25,64,160.0
613,C3,70.0,0.25,90,160.0
614,E-4,70.0,1.0,64,160.0
615,B-3,70.0,1.0,64,160.0
616,G3,70.0,1.0,64,160.0
617,F#2,70.0,1/100,109,160.0
618,D2,70.0,1/100,109,160.0
619,B-2,70.5,0.75,64,160.0
620,F#2,70.5,1/100,109,160.0
621,E-3,71.0,0.25,64,160.0
622,B-2,71.0,1.0,90,160.0
623,F#2,71.0,1/100,109,160.0
624,F#2,71.5,1/100,109,160.0
625,G3,71.5,0.5,64,160.0
626,E-4,71.5,0.5,64,160.0
627,B-3,71.5,0.5,64,160.0
628,E-2,71.5,0.25,64,160.0
629,E-3,71.5,0.25,64,160.0
630,B-2,71.5,0.25,64,160.0
631,E-2,72.0,1.25,64,160.0
632,B-2,72.0,2.25,90,160.0
633,G3,72.0,1.25,64,160.0
634,E-4,72.0,1.25,64,160.0
635,B-3,72.0,1.25,64,160.0
636,F#2,72.0,1/100,109,160.0
637,B1,72.0,1/100,109,160.0
638,B-2,72.5,0.75,64,160.0
639,F#2,72.5,1/100,109,160.0
640,E-3,73.0,0.25,64,160.0
641,F#2,73.0,1/100,109,160.0
642,B-3,73.5,1.0,64,160.0
643,E-4,73.5,1.25,64,160.0
644,F3,73.5,1.5,64,160.0
645,E-2,73.5,0.25,64,160.0
646,E-3,73.5,0.25,64,160.0
647,B-2,73.5,0.25,64,160.0
648,F#2,73.5,1/100,109,160.0
649,B1,73.5,1/100,109,160.0
650,E-2,74.0,1.25,64,160.0
651,F#2,74.0,1/100,109,160.0
652,D2,74.0,1/100,109,160.0
653,B-2,74.5,0.75,64,160.0
654,B-3,74.5,0.25,64,160.0
655,F#2,74.5,1/100,109,160.0
656,F#2,74.917,0.125,90,160.0
657,F3,75.0,0.75,64,160.0
658,G2,75.0,0.25,90,160.0
659,F#2,75.0,1/100,109,160.0
660,B-3,75.0,0.5,64,160.0
661,E-4,75.0,0.5,64,160.0
662,C2,75.5,0.5,90,160.0
663,F#2,75.5,1/100,109,160.0
664,E-2,75.5,0.25,64,160.0
665,E-3,75.5,0.25,64,160.0
666,B-2,75.5,0.25,64,160.0
667,F3,76.0,0.25,64,160.0
668,E-2,76.0,1.25,64,160.0
669,E-2,76.0,1.5,90,160.0
670,B-3,76.0,0.5,64,160.0
671,E-4,76.0,0.5,64,160.0
672,F#2,76.0,1/100,109,160.0
673,B1,76.0,1/100,109,160.0
674,B-2,76.5,0.75,64,160.0
675,F#2,76.5,1/100,109,160.0
676,B-3,76.5,0.25,64,160.0
677,E-4,76.5,0.25,64,160.0
678,G3,76.5,0.25,64,160.0
679,E-3,77.0,0.25,64,160.0
680,F#2,77.0,1/100,109,160.0
681,B-2,77.5,0.5,90,160.0
682,B-3,77.5,0.25,64,160.0
683,E-4,77.5,0.25,64,160.0
684,G3,77.5,0.25,64,160.0
685,E-2,77.5,0.25,64,160.0
686,B-2,77.5,0.25,64,160.0
687,E-3,77.5,0.25,64,160.0
688,F#2,77.5,1/100,109,160.0
689,B1,77.5,1/100,109,160.0
690,C3,78.0,0.25,90,160.0
691,B-3,78.0,1.25,64,160.0
692,E-4,78.0,1.25,64,160.0
693,G3,78.0,1.25,64,160.0
694,E-2,78.0,1.25,64,160.0
695,F#2,78.0,1/100,109,160.0
696,D2,78.0,1/100,109,160.0
697,B-2,78.5,0.75,64,160.0
698,F#2,78.5,1/100,109,160.0
699,E-3,79.0,0.25,64,160.0
700,B-2,79.0,1.0,90,160.0
701,F#2,79.0,1/100,109,160.0
702,F#2,79.5,1/100,109,160.0
703,B-3,79.5,0.5,64,160.0
704,G3,79.5,0.5,64,160.0
705,E-4,79.5,0.5,64,160.0
706,E-2,79.5,0.25,64,160.0
707,E-3,79.5,0.25,64,160.0
708,B-2,79.5,0.25,64,160.0
709,B-2,80.0,2.25,90,160.0
710,B-3,80.0,1.25,64,160.0
711,G3,80.0,1.25,64,160.0
712,E-4,80.0,1.25,64,160.0
713,E-2,80.0,1.25,64,160.0
714,B-3,80.0,1.25,64,160.0
715,G3,80.0,1.25,64,160.0
716,E-4,80.0,1.25,64,160.0
717,F#2,80.0,1/100,109,160.0
718,B1,80.0,1/100,109,160.0
719,B-2,80.5,0.75,64,160.0
720,F#2,80.5,1/100,109,160.0
721,E-3,81.0,0.25,64,160.0
722,F#2,81.0,1/100,109,160.0
723,E-2,81.5,0.25,64,160.0
724,E-3,81.5,0.25,64,160.0
725,B-2,81.5,0.25,64,160.0
726,B-3,81.5,1.0,64,160.0
727,E-4,81.5,1.0,64,160.0
728,F3,81.5,1.0,64,160.0
729,F#2,81.5,1/100,109,160.0
730,B1,81.5,1/100,109,160.0
731,E-2,82.0,1.25,64,160.0
732,F#2,82.0,1/100,109,160.0
733,D2,82.0,1/100,109,160.0
734,B-2,82.5,0.75,64,160.0
735,F#2,82.5,1/100,109,160.0
736,F#2,82.917,0.125,90,160.0
737,E-3,83.0,0.25,64,160.0
738,G2,83.0,0.25,90,160.0
739,B-3,83.0,0.75,64,160.0
740,E-4,83.0,0.75,64,160.0
741,F3,83.0,0.75,64,160.0
742,F#2,83.0,1/100,109,160.0
743,D2,83.0,1/100,109,160.0
744,C2,83.5,0.5,90,160.0
745,E-2,83.5,0.25,64,160.0
746,B-2,83.5,0.25,64,160.0
747,E-3,83.5,0.25,64,160.0
748,F#2,83.5,1/100,109,160.0
749,D2,83.5,1/100,109,160.0
750,C4,84.0,0.5,64,160.0
751,B-2,84.0,1.25,64,160.0
752,B-1,84.0,1.5,90,160.0
753,F4,84.0,0.75,64,160.0
754,B-4,84.0,0.75,64,160.0
755,F#2,84.0,1/100,109,160.0
756,B1,84.0,1/100,109,160.0
757,C#3,84.0,1/100,109,160.0
758,F3,84.5,0.75,64,160.0
759,D4,84.5,0.25,64,160.0
760,F#2,84.5,1/100,109,160.0
761,B-3,85.0,0.25,64,160.0
762,F#2,85.0,1/100,109,160.0
763,F2,85.5,0.5,90,160.0
764,B-2,85.5,0.25,64,160.0
765,F4,85.5,0.25,64,160.0
766,D4,85.5,0.25,64,160.0
767,B-4,85.5,0.25,64,160.0
768,B-3,85.5,0.25,64,160.0
769,F3,85.5,0.25,64,160.0
770,F#2,85.5,1/100,109,160.0
771,B1,85.5,1/100,109,160.0
772,B-2,86.0,1.25,64,160.0
773,G2,86.0,0.25,90,160.0
774,B-4,86.0,1.0,64,160.0
775,F4,86.0,1.0,64,160.0
776,D4,86.0,1.0,64,160.0
777,F#2,86.0,1/100,109,160.0
778,D2,86.0,1/100,109,160.0
779,F3,86.5,0.75,64,160.0
780,F#2,86.5,1/100,109,160.0
781,B-3,87.0,0.25,64,160.0
782,F2,87.0,1.0,90,160.0
783,F#2,87.0,1/100,109,160.0
784,F#2,87.5,1/100,109,160.0
785,D4,87.5,0.5,64,160.0
786,B-4,87.5,0.5,64,160.0
787,F4,87.5,0.5,64,160.0
788,B-2,87.5,0.25,64,160.0
789,B-3,87.5,0.25,64,160.0
790,F3,87.5,0.25,64,160.0
791,B-2,88.0,1.25,64,160.0
792,F2,88.0,2.25,90,160.0
793,D4,88.0,1.25,64,160.0
794,B-4,88.0,1.25,64,160.0
795,F4,88.0,1.25,64,160.0
796,F#2,88.0,1/100,109,160.0
797,B1,88.0,1/100,109,160.0
798,F3,88.5,0.75,64,160.0
799,F#2,88.5,1/100,109,160.0
800,B-3,89.0,0.25,64,160.0
801,F#2,89.0,1/100,109,160.0
802,F4,89.5,1.0,64,160.0
803,B-4,89.5,1.25,64,160.0
804,C4,89.5,1.5,64,160.0
805,B-2,89.5,0.25,64,160.0
806,B-3,89.5,0.25,64,160.0
807,F3,89.5,0.25,64,160.0
808,F#2,89.5,1/100,109,160.0
809,B1,89.5,1/100,109,160.0
810,B-2,90.0,1.25,64,160.0
811,F#2,90.0,1/100,109,160.0
812,D2,90.0,1/100,109,160.0
813,F3,90.5,0.75,64,160.0
814,F4,90.5,0.25,64,160.0
815,F#2,90.5,1/100,109,160.0
816,C#2,90.917,0.125,90,160.0
817,C4,91.0,0.75,64,160.0
818,D2,91.0,0.25,90,160.0
819,F#2,91.0,1/100,109,160.0
820,F4,91.0,0.5,64,160.0
821,B-4,91.0,0.5,64,160.0
822,G1,91.5,0.5,90,160.0
823,F#2,91.5,1/100,109,160.0
824,B-2,91.5,0.25,64,160.0
825,B-3,91.5,0.25,64,160.0
826,F3,91.5,0.25,64,160.0
827,C4,92.0,0.25,64,160.0
828,B-2,92.0,1.25,64,160.0
829,B-1,92.0,1.5,90,160.0
830,F4,92.0,0.5,64,160.0
831,B-4,92.0,0.5,64,160.0
832,F#2,92.0,1/100,109,160.0
833,B1,92.0,1/100,109,160.0
834,F3,92.5,0.75,64,160.0
835,F#2,92.5,1/100,109,160.0
836,F4,92.5,0.25,64,160.0
837,B-4,92.5,0.25,64,160.0
838,D4,92.5,0.25,64,160.0
839,B-3,93.0,0.25,64,160.0
840,F#2,93.0,1/100,109,160.0
841,F2,93.5,0.5,90,160.0
842,F4,93.5,0.25,64,160.0
843,B-4,93.5,0.25,64,160.0
844,D4,93.5,0.25,64,160.0
845,B-2,93.5,0.25,64,160.0
846,F3,93.5,0.25,64,160.0
847,B-3,93.5,0.25,64,160.0
848,F#2,93.5,1/100,109,160.0
849,B1,93.5,1/100,109,160.0
850,G2,94.0,0.25,90,160.0
851,F4,94.0,1.25,64,160.0
852,B-4,94.0,1.25,64,160.0
853,D4,94.0,1.25,64,160.0
854,B-2,94.0,1.25,64,160.0
855,F#2,94.0,1/100,109,160.0
856,D2,94.0,1/100,109,160.0
857,F3,94.5,0.75,64,160.0
858,F#2,94.5,1/100,109,160.0
859,B-3,95.0,0.25,64,160.0
860,F2,95.0,1.0,90,160.0
861,F#2,95.0,1/100,109,160.0
862,F#2,95.5,1/100,109,160.0
863,F4,95.5,0.5,64,160.0
864,D4,95.5,0.5,64,160.0
865,B-4,95.5,0.5,64,160.0
866,B-2,95.5,0.25,64,160.0
867,B-3,95.5,0.25,64,160.0
868,F3,95.5,0.25,64,160.0
869,F2,96.0,1.0,90,160.0
870,F4,96.0,1.25,64,160.0
871,D4,96.0,1.25,64,160.0
872,B-4,96.0,1.25,64,160.0
873,B-2,96.0,1.25,64,160.0
874,F4,96.0,1.25,64,160.0
875,D4,96.0,1.25,64,160.0
876,B-4,96.0,1.25,64,160.0
877,F#2,96.0,1/100,109,160.0
878,B1,96.0,1/100,109,160.0
879,F3,96.5,0.75,64,160.0
880,F#2,96.5,1/100,109,160.0
881,B-3,97.0,0.25,64,160.0
882,B-1,97.0,1.0,90,160.0
883,F#2,97.0,1/100,109,160.0
884,B-2,97.5,0.25,64,160.0
885,B-3,97.5,0.25,64,160.0
886,F3,97.5,0.25,64,160.0
887,F4,97.5,1.0,64,160.0
888,B-4,97.5,1.0,64,160.0
889,C4,97.5,1.0,64,160.0
890,F#2,97.5,1/100,109,160.0
891,B1,97.5,1/100,109,160.0
892,B-2,98.0,1.25,64,160.0
893,C2,98.0,1.0,90,160.0
894,F#2,98.0,1/100,109,160.0
895,D2,98.0,1/100,109,160.0
896,F3,98.5,0.75,64,160.0
897,F#2,98.5,1/100,109,160.0
898,B-3,99.0,0.25,64,160.0
899,D2,99.0,1.0,90,160.0
900,F4,99.0,0.75,64,160.0
901,B-4,99.0,0.75,64,160.0
902,C4,99.0,0.75,64,160.0
903,F#2,99.0,1/100,109,160.0
904,D2,99.0,1/100,109,160.0
905,B-2,99.5,0.25,64,160.0
906,F3,99.5,0.25,64,160.0
907,B-3,99.5,0.25,64,160.0
908,F#2,99.5,1/100,109,160.0
909,D2,99.5,1/100,109,160.0
910,F3,100.0,0.5,64,160.0
911,E-2,100.0,1.25,64,160.0
912,E-2,100.0,1.5,90,160.0
913,B-3,100.0,0.75,64,160.0
914,E-4,100.0,0.75,64,160.0
915,F#2,100.0,1/100,109,160.0
916,B1,100.0,1/100,109,160.0
917,C#3,100.0,1/100,109,160.0
918,B-2,100.5,0.75,64,160.0
919,G3,100.5,0.25,64,160.0
920,F#2,100.5,1/100,109,160.0
921,E-3,101.0,0.25,64,160.0
922,F#2,101.0,1/100,109,160.0
923,B-2,101.5,0.5,90,160.0
924,E-2,101.5,0.25,64,160.0
925,B-3,101.5,0.25,64,160.0
926,G3,101.5,0.25,64,160.0
927,E-4,101.5,0.25,64,160.0
928,E-3,101.5,0.25,64,160.0
929,B-2,101.5,0.25,64,160.0
930,F#2,101.5,1/100,109,160.0
931,B1,101.5,1/100,109,160.0
932,E-2,102.0,1.25,64,160.0
933,C3,102.0,0.25,90,160.0
934,E-4,102.0,1.0,64,160.0
935,B-3,102.0,1.0,64,160.0
936,G3,102.0,1.0,64,160.0
937,F#2,102.0,1/100,109,160.0
938,D2,102.0,1/100,109,160.0
939,B-2,102.5,0.75,64,160.0
940,F#2,102.5,1/100,109,160.0
941,E-3,103.0,0.25,64,160.0
942,B-2,103.0,1.0,90,160.0
943,F#2,103.0,1/100,109,160.0
944,F#2,103.5,1/100,109,160.0
945,G3,103.5,0.5,64,160.0
946,E-4,103.5,0.5,64,160.0
947,B-3,103.5,0.5,64,160.0
948,E-2,103.5,0.25,64,160.0
949,E-3,103.5,0.25,64,160.0
950,B-2,103.5,0.25,64,160.0
951,E-2,104.0,1.25,64,160.0
952,B-2,104.0,2.25,90,160.0
953,G3,104.0,1.25,64,160.0
954,E-4,104.0,1.25,64,160.0
955,B-3,104.0,1.25,64,160.0
956,F#2,104.0,1/100,109,160.0
957,B1,104.0,1/100,109,160.0
958,B-2,104.5,0.75,64,160.0
959,F#2,104.5,1/100,109,160.0
960,E-3,105.0,0.25,64,160.0
961,F#2,105.0,1/100,109,160.0
962,B-3,105.5,1.0,64,160.0
963,E-4,105.5,1.25,64,160.0
964,F3,105.5,1.5,64,160.0
965,E-2,105.5,0.25,64,160.0
966,E-3,105.5,0.25,64,160.0
967,B-2,105.5,0.25,64,160.0
968,F#2,105.5,1/100,109,160.0
969,B1,105.5,1/100,109,160.0
970,E-2,106.0,1.25,64,160.0
971,F#2,106.0,1/100,109,160.0
972,D2,106.0,1/100,109,160.0
973,B-2,106.5,0.75,64,160.0
974,B-3,106.5,0.25,64,160.0
975,F#2,106.5,1/100,109,160.0
976,F#2,106.917,0.125,90,160.0
977,F3,107.0,0.75,64,160.0
978,G2,107.0,0.25,90,160.0
979,F#2,107.0,1/100,109,160.0
980,B-3,107.0,0.5,64,160.0
981,E-4,107.0,0.5,64,160.0
982,C2,107.5,0.5,90,160.0
983,F#2,107.5,1/100,109,160.0
984,E-2,107.5,0.25,64,160.0
985,E-3,107.5,0.25,64,160.0
986,B-2,107.5,0.25,64,160.0
987,F3,108.0,0.25,64,160.0
988,E-2,108.0,1.25,64,160.0
989,E-2,108.0,1.5,90,160.0
990,B-3,108.0,0.5,64,160.0
991,E-4,108.0,0.5,64,160.0
992,F#2,108.0,1/100,109,160.0
993,B1,108.0,1/100,109,160.0
994,B-2,108.5,0.75,64,160.0
995,F#2,108.5,1/100,109,160.0
996,B-3,108.5,0.25,64,160.0
997,E-4,108.5,0.25,64,160.0
998,G3,108.5,0.25,64,160.0
999,E-3,109.0,0.25,64,160.0
1000,F#2,109.0,1/100,109,160.0
1001,B-2,109.5,0.5,90,160.0
1002,B-3,109.5,0.25,64,160.0
1003,E-4,109.5,0.25,64,160.0
1004,G3,109.5,0.25,64,160.0
1005,E-2,109.5,0.25,64,160.0
1006,B-2,109.5,0.25,64,160.0
1007,E-3,109.5,0.25,64,160.0
1008,F#2,109.5,1/100,109,160.0
1009,B1,109.5,1/100,109,160.0
1010,C3,110.0,0.25,90,160.0
1011,B-3,110.0,1.25,64,160.0
1012,E-4,110.0,1.25,64,160.0
1013,G3,110.0,1.25,64,160.0
1014,E-2,110.0,1.25,64,160.0
1015,F#2,110.0,1/100,109,160.0
1016,D2,110.0,1/100,109,160.0
1017,B-2,110.5,0.75,64,160.0
1018,F#2,110.5,1/100,109,160.0
1019,E-3,111.0,0.25,64,160.0
1020,B-2,111.0,1.0,90,160.0
1021,F#2,111.0,1/100,109,160.0
1022,F#2,111.5,1/100,109,160.0
1023,B-3,111.5,0.5,64,160.0
1024,G3,111.5,0.5,64,160.0
1025,E-4,111.5,0.5,64,160.0
1026,E-2,111.5,0.25,64,160.0
1027,E-3,111.5,0.25,64,160.0
1028,B-2,111.5,0.25,64,160.0
1029,B-2,112.0,2.25,90,160.0
1030,B-3,112.0,1.25,64,160.0
1031,G3,112.0,1.25,64,160.0
1032,E-4,112.0,1.25,64,160.0
1033,E-2,112.0,1.25,64,160.0
1034,B-3,112.0,1.25,64,160.0
1035,G3,112.0,1.25,64,160.0
1036,E-4,112.0,1.25,64,160.0
1037,F#2,112.0,1/100,109,160.0
1038,B1,112.0,1/100,109,160.0
1039,B-2,112.5,0.75,64,160.0
1040,F#2,112.5,1/100,109,160.0
1041,E-3,113.0,0.25,64,160.0
1042,F#2,113.0,1/100,109,160.0
1043,E-2,113.5,0.25,64,160.0
1044,E-3,113.5,0.25,64,160.0
1045,B-2,113.5,0.25,64,160.0
1046,B-3,113.5,1.0,64,160.0
1047,E-4,113.5,1.0,64,160.0
1048,F3,113.5,1.0,64,160.0
1049,F#2,113.5,1/100,109,160.0
1050,B1,113.5,1/100,109,160.0
1051,E-2,114.0,1.25,64,160.0
1052,F#2,114.0,1/100,109,160.0
1053,D2,114.0,1/100,109,160.0
1054,B-2,114.5,0.75,64,160.0
1055,F#2,114.5,1/100,109,160.0
1056,F#2,114.917,0.125,90,160.0
1057,E-3,115.0,0.25,64,160.0
1058,G2,115.0,0.25,90,160.0
1059,B-3,115.0,0.75,64,160.0
1060,E-4,115.0,0.75,64,160.0
1061,F3,115.0,0.75,64,160.0
1062,F#2,115.0,1/100,109,160.0
1063,D2,115.0,1/100,109,160.0
1064,C2,115.5,0.5,90,160.0
1065,E-2,115.5,0.25,64,160.0
1066,B-2,115.5,0.25,64,160.0
1067,E-3,115.5,0.25,64,160.0
1068,F#2,115.5,1/100,109,160.0
1069,D2,115.5,1/100,109,160.0
1070,F3,116.0,0.5,64,160.0
1071,E-2,116.0,1.25,64,160.0
1072,E-2,116.0,1.5,90,160.0
1073,B-3,116.0,0.75,64,160.0
1074,E-4,116.0,0.75,64,160.0
1075,F#2,116.0,1/100,109,160.0
1076,B1,116.0,1/100,109,160.0
1077,C#3,116.0,1/100,109,160.0
1078,B-2,116.5,0.75,64,160.0
1079,G3,116.5,0.25,64,160.0
1080,F#2,116.5,1/100,109,160.0
1081,E-3,117.0,0.25,64,160.0
1082,F#2,117.0,1/100,109,160.0
1083,B-2,117.5,0.5,90,160.0
1084,E-2,117.5,0.25,64,160.0
1085,B-3,117.5,0.25,64,160.0
1086,G3,117.5,0.25,64,160.0
1087,E-4,117.5,0.25,64,160.0
1088,E-3,117.5,0.25,64,160.0
1089,B-2,117.5,0.25,64,160.0
1090,F#2,117.5,1/100,109,160.0
1091,B1,117.5,1/100,109,160.0
1092,E-2,118.0,1.25,64,160.0
1093,C3,118.0,0.25,90,160.0
1094,E-4,118.0,1.0,64,160.0
1095,B-3,118.0,1.0,64,160.0
1096,G3,118.0,1.0,64,160.0
1097,F#2,118.0,1/100,109,160.0
1098,D2,118.0,1/100,109,160.0
1099,B-2,118.5,0.75,64,160.0
1100,F#2,118.5,1/100,109,160.0
1101,E-3,119.0,0.25,64,160.0
1102,B-2,119.0,1.0,90,160.0
1103,F#2,119.0,1/100,109,160.0
1104,F#2,119.5,1/100,109,160.0
1105,G3,119.5,0.5,64,160.0
1106,E-4,119.5,0.5,64,160.0
1107,B-3,119.5,0.5,64,160.0
1108,E-2,119.5,0.25,64,160.0
1109,E-3,119.5,0.25,64,160.0
1110,B-2,119.5,0.25,64,160.0
1111,E-2,120.0,1.25,64,160.0
1112,B-2,120.0,2.25,90,160.0
1113,G3,120.0,1.25,64,160.0
1114,E-4,120.0,1.25,64,160.0
1115,B-3,120.0,1.25,64,160.0
1116,F#2,120.0,1/100,109,160.0
1117,B1,120.0,1/100,109,160.0
1118,B-2,120.5,0.75,64,160.0
1119,F#2,120.5,1/100,109,160.0
1120,E-3,121.0,0.25,64,160.0
1121,F#2,121.0,1/100,109,160.0
1122,B-3,121.5,1.0,64,160.0
1123,E-4,121.5,1.25,64,160.0
1124,F3,121.5,1.5,64,160.0
1125,E-2,121.5,0.25,64,160.0
1126,E-3,121.5,0.25,64,160.0
1127,B-2,121.5,0.25,64,160.0
1128,F#2,121.5,1/100,109,160.0
1129,B1,121.5,1/100,109,160.0
1130,E-2,122.0,1.25,64,160.0
1131,F#2,122.0,1/100,109,160.0
1132,D2,122.0,1/100,109,160.0
1133,B-2,122.5,0.75,64,160.0
1134,B-3,122.5,0.25,64,160.0
1135,F#2,122.5,1/100,109,160.0
1136,F#2,122.917,0.125,90,160.0
1137,F3,123.0,0.75,64,160.0
1138,G2,123.0,0.25,90,160.0
1139,F#2,123.0,1/100,109,160.0
1140,B-3,123.0,0.5,64,160.0
1141,E-4,123.0,0.5,64,160.0
1142,C2,123.5,0.5,90,160.0
1143,F#2,123.5,1/100,109,160.0
1144,E-2,123.5,0.25,64,160.0
1145,E-3,123.5,0.25,64,160.0
1146,B-2,123.5,0.25,64,160.0
1147,F3,124.0,0.25,64,160.0
1148,E-2,124.0,1.25,64,160.0
1149,E-2,124.0,1.5,90,160.0
1150,B-3,124.0,0.5,64,160.0
1151,E-4,124.0,0.5,64,160.0
1152,F#2,124.0,1/100,109,160.0
1153,B1,124.0,1/100,109,160.0
1154,B-2,124.5,0.75,64,160.0
1155,F#2,124.5,1/100,109,160.0
1156,B-3,124.5,0.25,64,160.0
1157,E-4,124.5,0.25,64,160.0
1158,G3,124.5,0.25,64,160.0
1159,E-3,125.0,0.25,64,160.0
1160,F#2,125.0,1/100,109,160.0
1161,B-2,125.5,0.5,90,160.0
1162,B-3,125.5,0.25,64,160.0
1163,E-4,125.5,0.25,64,160.0
1164,G3,125.5,0.25,64,160.0
1165,E-2,125.5,0.25,64,160.0
1166,B-2,125.5,0.25,64,160.0
1167,E-3,125.5,0.25,64,160.0
1168,F#2,125.5,1/100,109,160.0
1169,B1,125.5,1/100,109,160.0
1170,C3,126.0,0.25,90,160.0
1171,B-3,126.0,1.25,64,160.0
1172,E-4,126.0,1.25,64,160.0
1173,G3,126.0,1.25,64,160.0
1174,E-2,126.0,1.25,64,160.0
1175,F#2,126.0,1/100,109,160.0
1176,D2,126.0,1/100,109,160.0
1177,B-2,126.5,0.75,64,160.0
1178,F#2,126.5,1/100,109,160.0
1179,E-3,127.0,0.25,64,160.0
1180,B-2,127.0,1.0,90,160.0
1181,F#2,127.0,1/100,109,160.0
1182,F#2,127.5,1/100,109,160.0
1183,B-3,127.5,0.5,64,160.0
1184,G3,127.5,0.5,64,160.0
1185,E-4,127.5,0.5,64,160.0
1186,E-2,127.5,0.25,64,160.0
1187,E-3,127.5,0.25,64,160.0
1188,B-2,127.5,0.25,64,160.0
1189,B-2,128.0,2.25,90,160.0
1190,B-3,128.0,1.25,64,160.0
1191,G3,128.0,1.25,64,160.0
1192,E-4,128.0,1.25,64,160.0
1193,E-2,128.0,1.25,64,160.0
1194,B-3,128.0,1.25,64,160.0
1195,G3,128.0,1.25,64,160.0
1196,E-4,128.0,1.25,64,160.0
1197,F#2,128.0,1/100,109,160.0
1198,B1,128.0,1/100,109,160.0
1199,B-2,128.5,0.75,64,160.0
1200,F#2,128.5,1/100,109,160.0
1201,E-3,129.0,0.25,64,160.0
1202,F#2,129.0,1/100,109,160.0
1203,E-2,129.5,0.25,64,160.0
1204,E-3,129.5,0.25,64,160.0
1205,B-2,129.5,0.25,64,160.0
1206,B-3,129.5,1.0,64,160.0
1207,E-4,129.5,1.0,64,160.0
1208,F3,129.5,1.0,64,160.0
1209,F#2,129.5,1/100,109,160.0
1210,B1,129.5,1/100,109,160.0
1211,E-2,130.0,1.25,64,160.0
1212,F#2,130.0,1/100,109,160.0
1213,D2,130.0,1/100,109,160.0
1214,B-2,130.5,0.75,64,160.0
1215,F#2,130.5,1/100,109,160.0
1216,F#2,130.917,0.125,90,160.0
1217,E-3,131.0,0.25,64,160.0
1218,G2,131.0,0.25,90,160.0
1219,F#2,131.0,1/100,109,160.0
1220,B-3,131.0,0.75,64,160.0
1221,E-4,131.0,0.75,64,160.0
1222,F3,131.0,0.75,64,160.0
1223,C2,131.5,0.5,90,160.0
1224,F#2,131.5,1/100,109,160.0
1225,E-2,131.5,0.25,64,160.0
1226,B-2,131.5,0.25,64,160.0
1227,E-3,131.5,0.25,64,160.0
1228,F3,132.0,0.5,64,160.0
1229,E-2,132.0,1.25,64,160.0
1230,E-2,132.0,1.5,90,160.0
1231,B-3,132.0,0.75,64,160.0
1232,E-4,132.0,0.75,64,160.0
1233,F#2,132.0,1/100,109,160.0
1234,B1,132.0,1/100,109,160.0
1235,B-2,132.5,0.75,64,160.0
1236,G3,132.5,0.25,64,160.0
1237,F#2,132.5,1/100,109,160.0
1238,E-3,133.0,0.25,64,160.0
1239,F#2,133.0,1/100,109,160.0
1240,B-2,133.5,0.5,90,160.0
1241,E-2,133.5,0.25,64,160.0
1242,B-3,133.5,0.25,64,160.0
1243,G3,133.5,0.25,64,160.0
1244,E-4,133.5,0.25,64,160.0
1245,E-3,133.5,0.25,64,160.0
1246,B-2,133.5,0.25,64,160.0
1247,F#2,133.5,1/100,109,160.0
1248,B1,133.5,1/100,109,160.0
1249,E-2,134.0,1.25,64,160.0
1250,C3,134.0,0.25,90,160.0
1251,E-4,134.0,1.0,64,160.0
1252,B-3,134.0,1.0,64,160.0
1253,G3,134.0,1.0,64,160.0
1254,F#2,134.0,1/100,109,160.0
1255,D2,134.0,1/100,109,160.0
1256,B-2,134.5,0.75,64,160.0
1257,F#2,134.5,1/100,109,160.0
1258,E-3,135.0,0.25,64,160.0
1259,B-2,135.0,1.0,90,160.0
1260,F#2,135.0,1/100,109,160.0
1261,F#2,135.5,1/100,109,160.0
1262,G3,135.5,0.5,64,160.0
1263,E-4,135.5,0.5,64,160.0
1264,B-3,135.5,0.5,64,160.0
1265,E-2,135.5,0.25,64,160.0
1266,E-3,135.5,0.25,64,160.0
1267,B-2,135.5,0.25,64,160.0
1268,E-2,136.0,1.25,64,160.0
1269,B-2,136.0,2.25,90,160.0
1270,B-2,136.0,2.25,90,160.0
1271,G3,136.0,1.25,64,160.0
1272,E-4,136.0,1.25,64,160.0
1273,B-3,136.0,1.25,64,160.0
1274,F#2,136.0,1/100,109,160.0
1275,B1,136.0,1/100,109,160.0
1276,B-2,136.5,0.75,64,160.0
1277,F#2,136.5,1/100,109,160.0
1278,E-3,137.0,0.25,64,160.0
1279,F#2,137.0,1/100,109,160.0
1280,B-3,137.5,1.0,64,160.0
1281,E-4,137.5,1.25,64,160.0
1282,F3,137.5,1.5,64,160.0
1283,E-2,137.5,0.25,64,160.0
1284,E-3,137.5,0.25,64,160.0
1285,B-2,137.5,0.25,64,160.0
1286,F#2,137.5,1/100,109,160.0
1287,B1,137.5,1/100,109,160.0
1288,E-2,138.0,1.25,64,160.0
1289,F#2,138.0,1/100,109,160.0
1290,D2,138.0,1/100,109,160.0
1291,B-2,138.5,0.75,64,160.0
1292,B-3,138.5,0.25,64,160.0
1293,F#2,138.5,1/100,109,160.0
1294,F3,139.0,0.75,64,160.0
1295,F#2,139.0,1/100,109,160.0
1296,B-3,139.0,0.5,64,160.0
1297,E-4,139.0,0.5,64,160.0
1298,F#2,139.0,0.25,90,160.0
1299,G2,139.0,0.25,90,160.0
1300,C2,139.5,0.5,90,160.0
1301,F#2,139.5,1/100,109,160.0
1302,E-2,139.5,0.25,64,160.0
1303,E-3,139.5,0.25,64,160.0
1304,B-2,139.5,0.25,64,160.0
1305,F3,140.0,0.25,64,160.0
1306,E-2,140.0,1.25,64,160.0
1307,E-2,140.0,1.5,90,160.0
1308,B-3,140.0,0.5,64,160.0
1309,E-4,140.0,0.5,64,160.0
1310,F#2,140.0,1/100,109,160.0
1311,B1,140.0,1/100,109,160.0
1312,B-2,140.5,0.75,64,160.0
1313,F#2,140.5,1/100,109,160.0
1314,B-3,140.5,0.25,64,160.0
1315,E-4,140.5,0.25,64,160.0
1316,G3,140.5,0.25,64,160.0
1317,E-3,141.0,0.25,64,160.0
1318,F#2,141.0,1/100,109,160.0
1319,B-2,141.5,0.5,90,160.0
1320,B-3,141.5,0.25,64,160.0
1321,E-4,141.5,0.25,64,160.0
1322,G3,141.5,0.25,64,160.0
1323,E-2,141.5,0.25,64,160.0
1324,B-2,141.5,0.25,64,160.0
1325,E-3,141.5,0.25,64,160.0
1326,F#2,141.5,1/100,109,160.0
1327,B1,141.5,1/100,109,160.0
1328,C3,142.0,0.25,90,160.0
1329,B-3,142.0,1.25,64,160.0
1330,E-4,142.0,1.25,64,160.0
1331,G3,142.0,1.25,64,160.0
1332,E-2,142.0,1.25,64,160.0
1333,F#2,142.0,1/100,109,160.0
1334,D2,142.0,1/100,109,160.0
1335,B-2,142.5,0.75,64,160.0
1336,F#2,142.5,1/100,109,160.0
1337,E-3,143.0,0.25,64,160.0
1338,B-2,143.0,1.0,90,160.0
1339,F#2,143.0,1/100,109,160.0
1340,F#2,143.5,1/100,109,160.0
1341,B-3,143.5,0.5,64,160.0
1342,G3,143.5,0.5,64,160.0
1343,E-4,143.5,0.5,64,160.0
1344,E-2,143.5,0.25,64,160.0
1345,E-3,143.5,0.25,64,160.0
1346,B-2,143.5,0.25,64,160.0
1347,B-2,144.0,2.25,90,160.0
1348,B-3,144.0,1.25,64,160.0
1349,G3,144.0,1.25,64,160.0
1350,E-4,144.0,1.25,64,160.0
1351,E-2,144.0,1.25,64,160.0
1352,B-3,144.0,1.25,64,160.0
1353,G3,144.0,1.25,64,160.0
1354,E-4,144.0,1.25,64,160.0
1355,F#2,144.0,1/100,109,160.0
1356,B1,144.0,1/100,109,160.0
1357,B-2,144.5,0.75,64,160.0
1358,F#2,144.5,1/100,109,160.0
1359,E-3,145.0,0.25,64,160.0
1360,F#2,145.0,1/100,109,160.0
1361,E-2,145.5,0.25,64,160.0
1362,E-3,145.5,0.25,64,160.0
1363,B-2,145.5,0.25,64,160.0
1364,B-3,145.5,1.0,64,160.0
1365,E-4,145.5,1.0,64,160.0
1366,F3,145.5,1.0,64,160.0
1367,F#2,145.5,1/100,109,160.0
1368,B1,145.5,1/100,109,160.0
1369,E-2,146.0,1.25,64,160.0
1370,F#2,146.0,1/100,109,160.0
1371,D2,146.0,1/100,109,160.0
1372,B-2,146.5,0.75,64,160.0
1373,F#2,146.5,1/100,109,160.0
1374,F#2,146.917,0.125,90,160.0
1375,E-3,147.0,0.25,64,160.0
1376,G2,147.0,0.25,90,160.0
1377,B-3,147.0,0.75,64,160.0
1378,E-4,147.0,0.75,64,160.0
1379,F3,147.0,0.75,64,160.0
1380,F#2,147.0,1/100,109,160.0
1381,D2,147.0,1/100,109,160.0
1382,C2,147.5,0.5,90,160.0
1383,E-2,147.5,0.25,64,160.0
1384,B-2,147.5,0.25,64,160.0
1385,E-3,147.5,0.25,64,160.0
1386,F#2,147.5,1/100,109,160.0
1387,D2,147.5,1/100,109,160.0
1388,C4,148.0,0.5,64,160.0
1389,B-2,148.0,1.25,64,160.0
1390,B-1,148.0,1.5,90,160.0
1391,F4,148.0,0.75,64,160.0
1392,B-4,148.0,0.75,64,160.0
1393,F#2,148.0,1/100,109,160.0
1394,B1,148.0,1/100,109,160.0
1395,C#3,148.0,1/100,109,160.0
1396,F3,148.5,0.75,64,160.0
1397,D4,148.5,0.25,64,160.0
1398,F#2,148.5,1/100,109,160.0
1399,B-3,149.0,0.25,64,160.0
1400,F#2,149.0,1/100,109,160.0
1401,F2,149.5,0.5,90,160.0
1402,B-2,149.5,0.25,64,160.0
1403,F4,149.5,0.25,64,160.0
1404,D4,149.5,0.25,64,160.0
1405,B-4,149.5,0.25,64,160.0
1406,B-3,149.5,0.25,64,160.0
1407,F3,149.5,0.25,64,160.0
1408,F#2,149.5,1/100,109,160.0
1409,B1,149.5,1/100,109,160.0
1410,B-2,150.0,1.25,64,160.0
1411,G2,150.0,0.25,90,160.0
1412,B-4,150.0,1.0,64,160.0
1413,F4,150.0,1.0,64,160.0
1414,D4,150.0,1.0,64,160.0
1415,F#2,150.0,1/100,109,160.0
1416,D2,150.0,1/100,109,160.0
1417,F3,150.5,0.75,64,160.0
1418,F#2,150.5,1/100,109,160.0
1419,B-3,151.0,0.25,64,160.0
1420,F2,151.0,1.0,90,160.0
1421,F#2,151.0,1/100,109,160.0
1422,F#2,151.5,1/100,109,160.0
1423,D4,151.5,0.5,64,160.0
1424,B-4,151.5,0.5,64,160.0
1425,F4,151.5,0.5,64,160.0
1426,B-2,151.5,0.25,64,160.0
1427,B-3,151.5,0.25,64,160.0
1428,F3,151.5,0.25,64,160.0
1429,B-2,152.0,1.25,64,160.0
1430,F2,152.0,2.25,90,160.0
1431,D4,152.0,1.25,64,160.0
1432,B-4,152.0,1.25,64,160.0
1433,F4,152.0,1.25,64,160.0
1434,F#2,152.0,1/100,109,160.0
1435,B1,152.0,1/100,109,160.0
1436,F3,152.5,0.75,64,160.0
1437,F#2,152.5,1/100,109,160.0
1438,B-3,153.0,0.25,64,160.0
1439,F#2,153.0,1/100,109,160.0
1440,F4,153.5,1.0,64,160.0
1441,B-4,153.5,1.25,64,160.0
1442,C4,153.5,1.5,64,160.0
1443,B-2,153.5,0.25,64,160.0
1444,B-3,153.5,0.25,64,160.0
1445,F3,153.5,0.25,64,160.0
1446,F#2,153.5,1/100,109,160.0
1447,B1,153.5,1/100,109,160.0
1448,B-2,154.0,1.25,64,160.0
1449,F#2,154.0,1/100,109,160.0
1450,D2,154.0,1/100,109,160.0
1451,F3,154.5,0.75,64,160.0
1452,F4,154.5,0.25,64,160.0
1453,F#2,154.5,1/100,109,160.0
1454,C#2,154.917,0.125,90,160.0
1455,C4,155.0,0.75,64,160.0
1456,D2,155.0,0.25,90,160.0
1457,F#2,155.0,1/100,109,160.0
1458,F4,155.0,0.5,64,160.0
1459,B-4,155.0,0.5,64,160.0
1460,G1,155.5,0.5,90,160.0
1461,F#2,155.5,1/100,109,160.0
1462,B-2,155.5,0.25,64,160.0
1463,B-3,155.5,0.25,64,160.0
1464,F3,155.5,0.25,64,160.0
1465,C4,156.0,0.25,64,160.0
1466,B-2,156.0,1.25,64,160.0
1467,B-1,156.0,1.5,90,160.0
1468,F4,156.0,0.5,64,160.0
1469,B-4,156.0,0.5,64,160.0
1470,F#2,156.0,1/100,109,160.0
1471,B1,156.0,1/100,109,160.0
1472,F3,156.5,0.75,64,160.0
1473,F#2,156.5,1/100,109,160.0
1474,F4,156.5,0.25,64,160.0
1475,B-4,156.5,0.25,64,160.0
1476,D4,156.5,0.25,64,160.0
1477,B-3,157.0,0.25,64,160.0
1478,F#2,157.0,1/100,109,160.0
1479,F2,157.5,0.5,90,160.0
1480,F4,157.5,0.25,64,160.0
1481,B-4,157.5,0.25,64,160.0
1482,D4,157.5,0.25,64,160.0
1483,B-2,157.5,0.25,64,160.0
1484,F3,157.5,0.25,64,160.0
1485,B-3,157.5,0.25,64,160.0
1486,F#2,157.5,1/100,109,160.0
1487,B1,157.5,1/100,109,160.0
1488,G2,158.0,0.25,90,160.0
1489,F4,158.0,1.25,64,160.0
1490,B-4,158.0,1.25,64,160.0
1491,D4,158.0,1.25,64,160.0
1492,B-2,158.0,1.25,64,160.0
1493,F#2,158.0,1/100,109,160.0
1494,D2,158.0,1/100,109,160.0
1495,F3,158.5,0.75,64,160.0
1496,F#2,158.5,1/100,109,160.0
1497,B-3,159.0,0.25,64,160.0
1498,F2,159.0,1.0,90,160.0
1499,F#2,159.0,1/100,109,160.0
1500,F#2,159.5,1/100,109,160.0
1501,F4,159.5,0.5,64,160.0
1502,D4,159.5,0.5,64,160.0
1503,B-4,159.5,0.5,64,160.0
1504,B-2,159.5,0.25,64,160.0
1505,B-3,159.5,0.25,64,160.0
1506,F3,159.5,0.25,64,160.0
1507,F2,160.0,1.0,90,160.0
1508,F4,160.0,1.25,64,160.0
1509,D4,160.0,1.25,64,160.0
1510,B-4,160.0,1.25,64,160.0
1511,B-2,160.0,1.25,64,160.0
1512,F4,160.0,1.25,64,160.0
1513,D4,160.0,1.25,64,160.0
1514,B-4,160.0,1.25,64,160.0
1515,F#2,160.0,1/100,109,160.0
1516,B1,160.0,1/100,109,160.0
1517,F3,160.5,0.75,64,160.0
1518,F#2,160.5,1/100,109,160.0
1519,B-3,161.0,0.25,64,160.0
1520,B-1,161.0,1.0,90,160.0
1521,F#2,161.0,1/100,109,160.0
1522,B-2,161.5,0.25,64,160.0
1523,B-3,161.5,0.25,64,160.0
1524,F3,161.5,0.25,64,160.0
1525,F4,161.5,1.0,64,160.0
1526,B-4,161.5,1.0,64,160.0
1527,C4,161.5,1.0,64,160.0
1528,F#2,161.5,1/100,109,160.0
1529,B1,161.5,1/100,109,160.0
1530,B-2,162.0,1.25,64,160.0
1531,C2,162.0,1.0,90,160.0
1532,F#2,162.0,1/100,109,160.0
1533,D2,162.0,1/100,109,160.0
1534,F3,162.5,0.75,64,160.0
1535,F#2,162.5,1/100,109,160.0
1536,B-3,163.0,0.25,64,160.0
1537,D2,163.0,1.0,90,160.0
1538,F4,163.0,0.75,64,160.0
1539,B-4,163.0,0.75,64,160.0
1540,C4,163.0,0.75,64,160.0
1541,F#2,163.0,1/100,109,160.0
1542,D2,163.0,1/100,109,160.0
1543,B-2,163.5,0.25,64,160.0
1544,F3,163.5,0.25,64,160.0
1545,B-3,163.5,0.25,64,160.0
1546,F#2,163.5,1/100,109,160.0
1547,D2,163.5,1/100,109,160.0
1548,F3,164.0,0.5,64,160.0
1549,E-2,164.0,1.25,64,160.0
1550,E-2,164.0,1.5,90,160.0
1551,B-3,164.0,0.75,64,160.0
1552,E-4,164.0,0.75,64,160.0
1553,F#2,164.0,1/100,109,160.0
1554,B1,164.0,1/100,109,160.0
1555,C#3,164.0,1/100,109,160.0
1556,B-2,164.5,0.75,64,160.0
1557,G3,164.5,0.25,64,160.0
1558,F#2,164.5,1/100,109,160.0
1559,E-3,165.0,0.25,64,160.0
1560,F#2,165.0,1/100,109,160.0
1561,B-2,165.5,0.5,90,160.0
1562,E-2,165.5,0.25,64,160.0
1563,B-3,165.5,0.25,64,160.0
1564,G3,165.5,0.25,64,160.0
1565,E-4,165.5,0.25,64,160.0
1566,E-3,165.5,0.25,64,160.0
1567,B-2,165.5,0.25,64,160.0
1568,F#2,165.5,1/100,109,160.0
1569,B1,165.5,1/100,109,160.0
1570,E-2,166.0,1.25,64,160.0
1571,C3,166.0,0.25,90,160.0
1572,E-4,166.0,1.0,64,160.0
1573,B-3,166.0,1.0,64,160.0
1574,G3,166.0,1.0,64,160.0
1575,F#2,166.0,1/100,109,160.0
1576,D2,166.0,1/100,109,160.0
1577,B-2,166.5,0.75,64,160.0
1578,F#2,166.5,1/100,109,160.0
1579,E-3,167.0,0.25,64,160.0
1580,B-2,167.0,1.0,90,160.0
1581,F#2,167.0,1/100,109,160.0
1582,F#2,167.5,1/100,109,160.0
1583,G3,167.5,0.5,64,160.0
1584,E-4,167.5,0.5,64,160.0
1585,B-3,167.5,0.5,64,160.0
1586,E-2,167.5,0.25,64,160.0
1587,E-3,167.5,0.25,64,160.0
1588,B-2,167.5,0.25,64,160.0
1589,E-2,168.0,1.25,64,160.0
1590,B-2,168.0,2.25,90,160.0
1591,G3,168.0,1.25,64,160.0
1592,E-4,168.0,1.25,64,160.0
1593,B-3,168.0,1.25,64,160.0
1594,F#2,168.0,1/100,109,160.0
1595,B1,168.0,1/100,109,160.0
1596,B-2,168.5,0.75,64,160.0
1597,F#2,168.5,1/100,109,160.0
1598,E-3,169.0,0.25,64,160.0
1599,F#2,169.0,1/100,109,160.0
1600,B-3,169.5,1.0,64,160.0
1601,E-4,169.5,1.25,64,160.0
1602,F3,169.5,1.5,64,160.0
1603,E-2,169.5,0.25,64,160.0
1604,E-3,169.5,0.25,64,160.0
1605,B-2,169.5,0.25,64,160.0
1606,F#2,169.5,1/100,109,160.0
1607,B1,169.5,1/100,109,160.0
1608,E-2,170.0,1.25,64,160.0
1609,F#2,170.0,1/100,109,160.0
1610,D2,170.0,1/100,109,160.0
1611,B-2,170.5,0.75,64,160.0
1612,B-3,170.5,0.25,64,160.0
1613,F#2,170.5,1/100,109,160.0
1614,F#2,170.917,0.125,90,160.0
1615,F3,171.0,0.75,64,160.0
1616,G2,171.0,0.25,90,160.0
1617,F#2,171.0,1/100,109,160.0
1618,B-3,171.0,0.5,64,160.0
1619,E-4,171.0,0.5,64,160.0
1620,C2,171.5,0.5,90,160.0
1621,F#2,171.5,1/100,109,160.0
1622,E-2,171.5,0.25,64,160.0
1623,E-3,171.5,0.25,64,160.0
1624,B-2,171.5,0.25,64,160.0
1625,F3,172.0,0.25,64,160.0
1626,E-2,172.0,1.25,64,160.0
1627,E-2,172.0,1.5,90,160.0
1628,B-3,172.0,0.5,64,160.0
1629,E-4,172.0,0.5,64,160.0
1630,F#2,172.0,1/100,109,160.0
1631,B1,172.0,1/100,109,160.0
1632,B-2,172.5,0.75,64,160.0
1633,F#2,172.5,1/100,109,160.0
1634,B-3,172.5,0.25,64,160.0
1635,E-4,172.5,0.25,64,160.0
1636,G3,172.5,0.25,64,160.0
1637,E-3,173.0,0.25,64,160.0
1638,F#2,173.0,1/100,109,160.0
1639,B-2,173.5,0.5,90,160.0
1640,B-3,173.5,0.25,64,160.0
1641,E-4,173.5,0.25,64,160.0
1642,G3,173.5,0.25,64,160.0
1643,E-2,173.5,0.25,64,160.0
1644,B-2,173.5,0.25,64,160.0
1645,E-3,173.5,0.25,64,160.0
1646,F#2,173.5,1/100,109,160.0
1647,B1,173.5,1/100,109,160.0
1648,C3,174.0,0.25,90,160.0
1649,B-3,174.0,1.25,64,160.0
1650,E-4,174.0,1.25,64,160.0
1651,G3,174.0,1.25,64,160.0
1652,E-2,174.0,1.25,64,160.0
1653,F#2,174.0,1/100,109,160.0
1654,D2,174.0,1/100,109,160.0
1655,B-2,174.5,0.75,64,160.0
1656,F#2,174.5,1/100,109,160.0
1657,E-3,175.0,0.25,64,160.0
1658,B-2,175.0,1.0,90,160.0
1659,F#2,175.0,1/100,109,160.0
1660,F#2,175.5,1/100,109,160.0
1661,B-3,175.5,0.5,64,160.0
1662,G3,175.5,0.5,64,160.0
1663,E-4,175.5,0.5,64,160.0
1664,E-2,175.5,0.25,64,160.0
1665,E-3,175.5,0.25,64,160.0
1666,B-2,175.5,0.25,64,160.0
1667,B-2,176.0,2.25,90,160.0
1668,B-3,176.0,1.25,64,160.0
1669,G3,176.0,1.25,64,160.0
1670,E-4,176.0,1.25,64,160.0
1671,E-2,176.0,1.25,64,160.0
1672,B-3,176.0,1.25,64,160.0
1673,G3,176.0,1.25,64,160.0
1674,E-4,176.0,1.25,64,160.0
1675,F#2,176.0,1/100,109,160.0
1676,B1,176.0,1/100,109,160.0
1677,B-2,176.5,0.75,64,160.0
1678,F#2,176.5,1/100,109,160.0
1679,E-3,177.0,0.25,64,160.0
1680,F#2,177.0,1/100,109,160.0
1681,E-2,177.5,0.25,64,160.0
1682,E-3,177.5,0.25,64,160.0
1683,B-2,177.5,0.25,64,160.0
1684,B-3,177.5,1.0,64,160.0
1685,E-4,177.5,1.0,64,160.0
1686,F3,177.5,1.0,64,160.0
1687,F#2,177.5,1/100,109,160.0
1688,B1,177.5,1/100,109,160.0
1689,E-2,178.0,1.25,64,160.0
1690,F#2,178.0,1/100,109,160.0
1691,D2,178.0,1/100,109,160.0
1692,B-2,178.5,0.75,64,160.0
1693,F#2,178.5,1/100,109,160.0
1694,F#2,178.917,0.125,90,160.0
1695,E-3,179.0,0.25,64,160.0
1696,G2,179.0,0.25,90,160.0
1697,B-3,179.0,0.75,64,160.0
1698,E-4,179.0,0.75,64,160.0
1699,F3,179.0,0.75,64,160.0
1700,F#2,179.0,1/100,109,160.0
1701,D2,179.0,1/100,109,160.0
1702,B-2,179.5,0.5,64,160.0
1703,D2,179.5,0.5,90,160.0
1704,G2,179.5,0.25,64,160.0
1705,D2,179.5,0.25,64,160.0
1706,F#2,179.5,1/100,109,160.0
1707,D2,179.5,1/100,109,160.0
1708,G4,180.0,1.25,64,160.0
1709,G2,180.0,1.0,64,160.0
1710,B-2,180.0,0.75,64,160.0
1711,G2,180.0,3.25,90,160.0
1712,F#2,180.0,1/100,109,160.0
1713,B1,180.0,1/100,109,160.0
1714,C#3,180.0,1/100,109,160.0
1715,F#2,180.5,1/100,109,160.0
1716,F#2,181.0,1/100,109,160.0
1717,B-3,181.0,0.5,64,160.0
1718,D3,181.0,0.5,64,160.0
1719,C4,181.5,0.75,64,160.0
1720,A4,181.5,1.0,64,160.0
1721,G3,181.5,0.25,64,160.0
1722,F#2,181.5,1/100,109,160.0
1723,B1,181.5,1/100,109,160.0
1724,F#2,182.0,1/100,109,160.0
1725,D2,182.0,1/100,109,160.0
1726,C4,182.5,0.5,64,160.0
1727,D3,182.5,0.25,64,160.0
1728,F#2,182.5,1/100,109,160.0
1729,G2,183.0,1.0,64,160.0
1730,D4,183.0,1.0,64,160.0
1731,B-4,183.0,1.0,64,160.0
1732,F#2,183.0,1/100,109,160.0
1733,D2,183.5,0.25,90,160.0
1734,F#2,183.5,1/100,109,160.0
1735,G2,184.0,1.5,64,160.0
1736,D4,184.0,3.5,64,160.0
1737,B-4,184.0,3.75,64,160.0
1738,D2,184.0,0.5,90,160.0
1739,B-3,184.0,4.0,54,160.0
1740,B-3,184.0,4.0,54,160.0
1741,F#2,184.0,1/100,109,160.0
1742,B1,184.0,1/100,109,160.0
1743,D4,184.0,4.0,54,160.0
1744,G4,184.0,4.0,54,160.0
1745,D4,184.0,4.0,54,160.0
1746,G4,184.0,4.0,54,160.0
1747,F#2,184.5,1/100,109,160.0
1748,G2,185.0,2.0,90,160.0
1749,F#2,185.0,1/100,109,160.0
1750,D3,185.5,0.5,64,160.0
1751,F#2,185.5,1/100,109,160.0
1752,B1,185.5,1/100,109,160.0
1753,G3,186.0,1.0,64,160.0
1754,F#2,186.0,1/100,109,160.0
1755,D2,186.0,1/100,109,160.0
1756,F#2,186.5,1/100,109,160.0
1757,D3,187.0,0.25,64,160.0
1758,D2,187.0,0.5,90,160.0
1759,F#2,187.0,1/100,109,160.0
1760,G2,187.5,0.5,64,160.0
1761,G2,187.5,0.25,90,160.0
1762,F#2,187.5,1/100,109,160.0
1763,B-3,188.0,1.5,64,160.0
1764,G#2,188.0,3.5,90,160.0
1765,E-4,188.0,1.25,64,160.0
1766,G#4,188.0,1.25,64,160.0
1767,G#2,188.0,1.25,64,160.0
1768,F#2,188.0,1/100,109,160.0
1769,B1,188.0,1/100,109,160.0
1770,G#4,188.25,4.0,54,160.0
1771,E-4,188.25,4.0,54,160.0
1772,C4,188.25,4.0,54,160.0
1773,B-3,188.25,7.75,54,160.0
1774,G#4,188.25,4.0,54,160.0
1775,E-4,188.25,4.0,54,160.0
1776,C4,188.25,4.0,54,160.0
1777,B-3,188.25,7.75,54,160.0
1778,D4,188.25,0.25,54,160.0
1779,G4,188.25,0.25,54,160.0
1780,D4,188.25,0.25,54,160.0
1781,G4,188.25,0.25,54,160.0
1782,F#2,188.5,1/100,109,160.0
1783,E-3,189.0,0.5,64,160.0
1784,F#2,189.0,1/100,109,160.0
1785,C4,189.5,1.0,64,160.0
1786,G#4,189.5,1.0,64,160.0
1787,E-4,189.5,1.0,64,160.0
1788,G#3,189.5,1.0,64,160.0
1789,F#2,189.5,1/100,109,160.0
1790,B1,189.5,1/100,109,160.0
1791,F#2,190.0,1/100,109,160.0
1792,D2,190.0,1/100,109,160.0
1793,E-3,190.5,0.5,64,160.0
1794,F#2,190.5,1/100,109,160.0
1795,G#2,191.0,1.0,64,160.0
1796,F#2,191.0,1/100,109,160.0
1797,B-3,191.0,1.0,64,160.0
1798,E-4,191.0,1.0,64,160.0
1799,G#4,191.0,1.0,64,160.0
1800,E-2,191.5,0.25,90,160.0
1801,F#2,191.5,1/100,109,160.0
1802,G#2,192.0,1.5,64,160.0
1803,E-2,192.0,0.5,90,160.0
1804,B-3,192.0,0.25,64,160.0
1805,E-4,192.0,0.25,64,160.0
1806,G#4,192.0,0.25,64,160.0
1807,F#2,192.0,1/100,109,160.0
1808,B1,192.0,1/100,109,160.0
1809,F#2,192.5,1/100,109,160.0
1810,G#4,192.5,1.25,64,160.0
1811,E-4,192.5,1.25,64,160.0
1812,C4,192.5,1.25,64,160.0
1813,G#2,193.0,1.75,90,160.0
1814,F#2,193.0,1/100,109,160.0
1815,E-3,193.5,0.5,64,160.0
1816,F#2,193.5,1/100,109,160.0
1817,B1,193.5,1/100,109,160.0
1818,G#3,194.0,1.0,64,160.0
1819,B-3,194.0,0.75,64,160.0
1820,G#4,194.0,0.75,64,160.0
1821,E-4,194.0,0.75,64,160.0
1822,F#2,194.0,1/100,109,160.0
1823,D2,194.0,1/100,109,160.0
1824,F#2,194.5,1/100,109,160.0
1825,G2,195.0,0.5,90,160.0
1826,F#2,195.0,1/100,109,160.0
1827,G#4,195.0,0.5,64,160.0
1828,E-4,195.0,0.5,64,160.0
1829,C4,195.0,0.5,64,160.0
1830,E-3,195.0,0.5,64,160.0
1831,G#2,195.5,0.5,64,160.0
1832,F2,195.5,0.5,90,160.0
1833,F#2,195.5,1/100,109,160.0
1834,F3,196.0,0.5,64,160.0
1835,E-2,196.0,1.25,64,160.0
1836,E-2,196.0,1.5,90,160.0
1837,G#4,196.0,4.0,54,160.0
1838,E-4,196.0,4.0,54,160.0
1839,C4,196.0,3.25,54,160.0
1840,G#4,196.0,4.0,54,160.0
1841,E-4,196.0,4.0,54,160.0
1842,C4,196.0,3.25,54,160.0
1843,B-3,196.0,0.75,64,160.0
1844,E-4,196.0,0.75,64,160.0
1845,F#2,196.0,1/100,109,160.0
1846,B1,196.0,1/100,109,160.0
1847,C#3,196.0,1/100,109,160.0
1848,B-2,196.5,0.75,64,160.0
1849,G3,196.5,0.25,64,160.0
1850,F#2,196.5,1/100,109,160.0
1851,E-3,197.0,0.25,64,160.0
1852,F#2,197.0,1/100,109,160.0
1853,B-2,197.5,0.5,90,160.0
1854,E-2,197.5,0.25,64,160.0
1855,B-3,197.5,0.25,64,160.0
1856,G3,197.5,0.25,64,160.0
1857,E-4,197.5,0.25,64,160.0
1858,E-3,197.5,0.25,64,160.0
1859,B-2,197.5,0.25,64,160.0
1860,F#2,197.5,1/100,109,160.0
1861,B1,197.5,1/100,109,160.0
1862,E-2,198.0,1.25,64,160.0
1863,C3,198.0,0.25,90,160.0
1864,E-4,198.0,1.0,64,160.0
1865,B-3,198.0,1.0,64,160.0
1866,G3,198.0,1.0,64,160.0
1867,F#2,198.0,1/100,109,160.0
1868,D2,198.0,1/100,109,160.0
1869,B-2,198.5,0.75,64,160.0
1870,F#2,198.5,1/100,109,160.0
1871,E-3,199.0,0.25,64,160.0
1872,B-2,199.0,1.0,90,160.0
1873,F#2,199.0,1/100,109,160.0
1874,F#2,199.5,1/100,109,160.0
1875,G3,199.5,0.5,64,160.0
1876,E-4,199.5,0.5,64,160.0
1877,B-3,199.5,0.5,64,160.0
1878,E-2,199.5,0.25,64,160.0
1879,E-3,199.5,0.25,64,160.0
1880,B-2,199.5,0.25,64,160.0
1881,E-2,200.0,1.25,64,160.0
1882,B-2,200.0,2.25,90,160.0
1883,G#4,200.0,0.25,54,160.0
1884,E-4,200.0,4.0,54,160.0
1885,G#4,200.0,0.25,54,160.0
1886,E-4,200.0,4.0,54,160.0
1887,G3,200.0,1.25,64,160.0
1888,E-4,200.0,1.25,64,160.0
1889,B-3,200.0,1.25,64,160.0
1890,F#2,200.0,1/100,109,160.0
1891,B1,200.0,1/100,109,160.0
1892,B-3,200.0,4.0,54,160.0
1893,G4,200.0,4.0,54,160.0
1894,B-3,200.0,4.0,54,160.0
1895,G4,200.0,4.0,54,160.0
1896,B-2,200.5,0.75,64,160.0
1897,F#2,200.5,1/100,109,160.0
1898,E-3,201.0,0.25,64,160.0
1899,F#2,201.0,1/100,109,160.0
1900,B-3,201.5,1.0,64,160.0
1901,E-4,201.5,1.25,64,160.0
1902,F3,201.5,1.5,64,160.0
1903,E-2,201.5,0.25,64,160.0
1904,E-3,201.5,0.25,64,160.0
1905,B-2,201.5,0.25,64,160.0
1906,F#2,201.5,1/100,109,160.0
1907,B1,201.5,1/100,109,160.0
1908,E-2,202.0,1.25,64,160.0
1909,F#2,202.0,1/100,109,160.0
1910,D2,202.0,1/100,109,160.0
1911,B-2,202.5,0.75,64,160.0
1912,B-3,202.5,0.25,64,160.0
1913,F#2,202.5,1/100,109,160.0
1914,F#2,202.917,0.125,90,160.0
1915,F3,203.0,0.75,64,160.0
1916,G2,203.0,0.25,90,160.0
1917,F#2,203.0,1/100,109,160.0
1918,B-3,203.0,0.5,64,160.0
1919,E-4,203.0,0.5,64,160.0
1920,C2,203.5,0.5,90,160.0
1921,F#2,203.5,1/100,109,160.0
1922,E-2,203.5,0.25,64,160.0
1923,E-3,203.5,0.25,64,160.0
1924,B-2,203.5,0.25,64,160.0
1925,F3,204.0,0.25,64,160.0
1926,E-2,204.0,1.25,64,160.0
1927,E-2,204.0,1.5,90,160.0
1928,E-4,204.0,4.0,54,160.0
1929,E-4,204.0,4.0,54,160.0
1930,B-3,204.0,0.5,64,160.0
1931,E-4,204.0,0.5,64,160.0
1932,F#2,204.0,1/100,109,160.0
1933,B1,204.0,1/100,109,160.0
1934,B-3,204.0,4.0,54,160.0
1935,G4,204.0,4.0,54,160.0
1936,B-3,204.0,4.0,54,160.0
1937,G4,204.0,4.0,54,160.0
1938,B-2,204.5,0.75,64,160.0
1939,F#2,204.5,1/100,109,160.0
1940,B-3,204.5,0.25,64,160.0
1941,E-4,204.5,0.25,64,160.0
1942,G3,204.5,0.25,64,160.0
1943,E-3,205.0,0.25,64,160.0
1944,F#2,205.0,1/100,109,160.0
1945,B-2,205.5,0.5,90,160.0
1946,B-3,205.5,0.25,64,160.0
1947,E-4,205.5,0.25,64,160.0
1948,G3,205.5,0.25,64,160.0
1949,E-2,205.5,0.25,64,160.0
1950,B-2,205.5,0.25,64,160.0
1951,E-3,205.5,0.25,64,160.0
1952,F#2,205.5,1/100,109,160.0
1953,B1,205.5,1/100,109,160.0
1954,C3,206.0,0.25,90,160.0
1955,B-3,206.0,1.25,64,160.0
1956,E-4,206.0,1.25,64,160.0
1957,G3,206.0,1.25,64,160.0
1958,E-2,206.0,1.25,64,160.0
1959,F#2,206.0,1/100,109,160.0
1960,D2,206.0,1/100,109,160.0
1961,B-2,206.5,0.75,64,160.0
1962,F#2,206.5,1/100,109,160.0
1963,E-3,207.0,0.25,64,160.0
1964,B-2,207.0,1.0,90,160.0
1965,F#2,207.0,1/100,109,160.0
1966,F#2,207.5,1/100,109,160.0
1967,B-3,207.5,0.5,64,160.0
1968,G3,207.5,0.5,64,160.0
1969,E-4,207.5,0.5,64,160.0
1970,E-2,207.5,0.25,64,160.0
1971,E-3,207.5,0.25,64,160.0
1972,B-2,207.5,0.25,64,160.0
1973,B-2,208.0,2.25,90,160.0
1974,E-4,208.0,4.0,54,160.0
1975,E-4,208.0,4.0,54,160.0
1976,B-3,208.0,1.25,64,160.0
1977,G3,208.0,1.25,64,160.0
1978,E-4,208.0,1.25,64,160.0
1979,E-2,208.0,1.25,64,160.0
1980,B-3,208.0,1.25,64,160.0
1981,G3,208.0,1.25,64,160.0
1982,E-4,208.0,1.25,64,160.0
1983,F#2,208.0,1/100,109,160.0
1984,B1,208.0,1/100,109,160.0
1985,B-3,208.0,4.0,54,160.0
1986,G4,208.0,4.0,54,160.0
1987,B-3,208.0,4.0,54,160.0
1988,G4,208.0,4.0,54,160.0
1989,B-2,208.5,0.75,64,160.0
1990,F#2,208.5,1/100,109,160.0
1991,E-3,209.0,0.25,64,160.0
1992,F#2,209.0,1/100,109,160.0
1993,E-2,209.5,0.25,64,160.0
1994,E-3,209.5,0.25,64,160.0
1995,B-2,209.5,0.25,64,160.0
1996,B-3,209.5,1.0,64,160.0
1997,E-4,209.5,1.0,64,160.0
1998,F3,209.5,1.0,64,160.0
1999,F#2,209.5,1/100,109,160.0
2000,B1,209.5,1/100,109,160.0
2001,E-2,210.0,1.25,64,160.0
2002,F#2,210.0,1/100,109,160.0
2003,D2,210.0,1/100,109,160.0
2004,B-2,210.5,0.75,64,160.0
2005,F#2,210.5,1/100,109,160.0
2006,F#2,210.917,0.125,90,160.0
2007,E-3,211.0,0.25,64,160.0
2008,G2,211.0,0.25,90,160.0
2009,B-3,211.0,0.75,64,160.0
2010,E-4,211.0,0.75,64,160.0
2011,F3,211.0,0.75,64,160.0
2012,F#2,211.0,1/100,109,160.0
2013,D2,211.0,1/100,109,160.0
2014,B-2,211.5,0.5,64,160.0
2015,D2,211.5,0.5,90,160.0
2016,G2,211.5,0.25,64,160.0
2017,D2,211.5,0.25,64,160.0
2018,F#2,211.5,1/100,109,160.0
2019,D2,211.5,1/100,109,160.0
2020,G4,212.0,1.25,64,160.0
2021,G2,212.0,1.0,64,160.0
2022,B-2,212.0,0.75,64,160.0
2023,G2,212.0,3.25,90,160.0
2024,E-4,212.0,3.5,54,160.0
2025,E-4,212.0,3.5,54,160.0
2026,F#2,212.0,1/100,109,160.0
2027,B1,212.0,1/100,109,160.0
2028,C#3,212.0,1/100,109,160.0
2029,B-3,212.0,3.5,54,160.0
2030,G4,212.0,3.5,54,160.0
2031,B-3,212.0,3.5,54,160.0
2032,G4,212.0,3.5,54,160.0
2033,F#2,212.5,1/100,109,160.0
2034,F#2,213.0,1/100,109,160.0
2035,B-3,213.0,0.5,64,160.0
2036,D3,213.0,0.5,64,160.0
2037,C4,213.5,0.75,64,160.0
2038,A4,213.5,1.0,64,160.0
2039,G3,213.5,0.25,64,160.0
2040,F#2,213.5,1/100,109,160.0
2041,B1,213.5,1/100,109,160.0
2042,F#2,214.0,1/100,109,160.0
2043,D2,214.0,1/100,109,160.0
2044,C4,214.5,0.5,64,160.0
2045,D3,214.5,0.25,64,160.0
2046,F#2,214.5,1/100,109,160.0
2047,G2,215.0,1.0,64,160.0
2048,D4,215.0,1.0,64,160.0
2049,B-4,215.0,1.0,64,160.0
2050,F#2,215.0,1/100,109,160.0
2051,D2,215.5,0.25,90,160.0
2052,F#2,215.5,1/100,109,160.0
2053,G2,216.0,1.5,64,160.0
2054,D4,216.0,3.5,64,160.0
2055,B-4,216.0,3.75,64,160.0
2056,D2,216.0,0.5,90,160.0
2057,F#2,216.0,1/100,109,160.0
2058,B1,216.0,1/100,109,160.0
2059,F#2,216.5,1/100,109,160.0
2060,G2,217.0,2.0,90,160.0
2061,F#2,217.0,1/100,109,160.0
2062,D3,217.5,0.5,64,160.0
2063,F#2,217.5,1/100,109,160.0
2064,B1,217.5,1/100,109,160.0
2065,G3,218.0,1.0,64,160.0
2066,F#2,218.0,1/100,109,160.0
2067,D2,218.0,1/100,109,160.0
2068,F#2,218.5,1/100,109,160.0
2069,D3,219.0,0.25,64,160.0
2070,D2,219.0,0.5,90,160.0
2071,F#2,219.0,1/100,109,160.0
2072,G2,219.5,0.5,64,160.0
2073,G2,219.5,0.25,90,160.0
2074,F#2,219.5,1/100,109,160.0
2075,B-3,220.0,1.5,64,160.0
2076,G#2,220.0,3.5,90,160.0
2077,B-3,220.0,4.0,54,160.0
2078,B-3,220.0,4.0,54,160.0
2079,E-4,220.0,1.25,64,160.0
2080,G#4,220.0,1.25,64,160.0
2081,G#2,220.0,1.25,64,160.0
2082,F#2,220.0,1/100,109,160.0
2083,B1,220.0,1/100,109,160.0
2084,D4,220.0,4.0,54,160.0
2085,G4,220.0,4.0,54,160.0
2086,D4,220.0,4.0,54,160.0
2087,G4,220.0,4.0,54,160.0
2088,F#2,220.5,1/100,109,160.0
2089,E-3,221.0,0.5,64,160.0
2090,F#2,221.0,1/100,109,160.0
2091,C4,221.5,1.0,64,160.0
2092,G#4,221.5,1.0,64,160.0
2093,E-4,221.5,1.0,64,160.0
2094,G#3,221.5,1.0,64,160.0
2095,F#2,221.5,1/100,109,160.0
2096,B1,221.5,1/100,109,160.0
2097,F#2,222.0,1/100,109,160.0
2098,D2,222.0,1/100,109,160.0
2099,E-3,222.5,0.5,64,160.0
2100,F#2,222.5,1/100,109,160.0
2101,G#2,223.0,1.0,64,160.0
2102,F#2,223.0,1/100,109,160.0
2103,B-3,223.0,1.0,64,160.0
2104,E-4,223.0,1.0,64,160.0
2105,G#4,223.0,1.0,64,160.0
2106,E-2,223.5,0.25,90,160.0
2107,F#2,223.5,1/100,109,160.0
2108,G#2,224.0,1.5,64,160.0
2109,E-2,224.0,0.5,90,160.0
2110,B-3,224.0,4.0,54,160.0
2111,B-3,224.0,4.0,54,160.0
2112,B-3,224.0,0.25,64,160.0
2113,E-4,224.0,0.25,64,160.0
2114,G#4,224.0,0.25,64,160.0
2115,F#2,224.0,1/100,109,160.0
2116,B1,224.0,1/100,109,160.0
2117,G#4,224.0,4.0,54,160.0
2118,E-4,224.0,4.0,54,160.0
2119,C4,224.0,4.0,54,160.0
2120,G#4,224.0,4.0,54,160.0
2121,E-4,224.0,4.0,54,160.0
2122,C4,224.0,4.0,54,160.0
2123,F#2,224.5,1/100,109,160.0
2124,G#4,224.5,1.25,64,160.0
2125,E-4,224.5,1.25,64,160.0
2126,C4,224.5,1.25,64,160.0
2127,G#2,225.0,1.75,90,160.0
2128,F#2,225.0,1/100,109,160.0
2129,E-3,225.5,0.5,64,160.0
2130,F#2,225.5,1/100,109,160.0
2131,B1,225.5,1/100,109,160.0
2132,G#3,226.0,1.0,64,160.0
2133,B-3,226.0,0.75,64,160.0
2134,G#4,226.0,0.75,64,160.0
2135,E-4,226.0,0.75,64,160.0
2136,F#2,226.0,1/100,109,160.0
2137,D2,226.0,1/100,109,160.0
2138,F#2,226.5,1/100,109,160.0
2139,G2,227.0,0.5,90,160.0
2140,F#2,227.0,1/100,109,160.0
2141,G#4,227.0,0.5,64,160.0
2142,E-4,227.0,0.5,64,160.0
2143,C4,227.0,0.5,64,160.0
2144,E-3,227.0,0.5,64,160.0
2145,G#2,227.5,0.5,64,160.0
2146,F2,227.5,0.5,90,160.0
2147,F#2,227.5,1/100,109,160.0
2148,C4,228.0,0.5,64,160.0
2149,B-2,228.0,1.25,64,160.0
2150,B-1,228.0,1.5,90,160.0
2151,B-3,228.0,4.0,54,160.0
2152,B-3,228.0,4.0,54,160.0
2153,F4,228.0,0.75,64,160.0
2154,B-4,228.0,0.75,64,160.0
2155,F#2,228.0,1/100,109,160.0
2156,B1,228.0,1/100,109,160.0
2157,C#3,228.0,1/100,109,160.0
2158,G#4,228.0,4.0,54,160.0
2159,E-4,228.0,4.0,54,160.0
2160,C4,228.0,4.0,54,160.0
2161,G#4,228.0,4.0,54,160.0
2162,E-4,228.0,4.0,54,160.0
2163,C4,228.0,4.0,54,160.0
2164,F3,228.5,0.75,64,160.0
2165,D4,228.5,0.25,64,160.0
2166,F#2,228.5,1/100,109,160.0
2167,B-3,229.0,0.25,64,160.0
2168,F#2,229.0,1/100,109,160.0
2169,F2,229.5,0.5,90,160.0
2170,B-2,229.5,0.25,64,160.0
2171,F4,229.5,0.25,64,160.0
2172,D4,229.5,0.25,64,160.0
2173,B-4,229.5,0.25,64,160.0
2174,B-3,229.5,0.25,64,160.0
2175,F3,229.5,0.25,64,160.0
2176,F#2,229.5,1/100,109,160.0
2177,B1,229.5,1/100,109,160.0
2178,B-2,230.0,1.25,64,160.0
2179,G2,230.0,0.25,90,160.0
2180,B-4,230.0,1.0,64,160.0
2181,F4,230.0,1.0,64,160.0
2182,D4,230.0,1.0,64,160.0
2183,F#2,230.0,1/100,109,160.0
2184,D2,230.0,1/100,109,160.0
2185,F3,230.5,0.75,64,160.0
2186,F#2,230.5,1/100,109,160.0
2187,B-3,231.0,0.25,64,160.0
2188,F2,231.0,1.0,90,160.0
2189,F#2,231.0,1/100,109,160.0
2190,F#2,231.5,1/100,109,160.0
2191,D4,231.5,0.5,64,160.0
2192,B-4,231.5,0.5,64,160.0
2193,F4,231.5,0.5,64,160.0
2194,B-2,231.5,0.25,64,160.0
2195,B-3,231.5,0.25,64,160.0
2196,F3,231.5,0.25,64,160.0
2197,B-2,232.0,1.25,64,160.0
2198,F2,232.0,2.25,90,160.0
2199,B-3,232.0,4.0,54,160.0
2200,B-3,232.0,4.0,54,160.0
2201,D4,232.0,1.25,64,160.0
2202,B-4,232.0,1.25,64,160.0
2203,F4,232.0,1.25,64,160.0
2204,F#2,232.0,1/100,109,160.0
2205,B1,232.0,1/100,109,160.0
2206,D4,232.0,4.0,54,160.0
2207,B-4,232.0,4.0,54,160.0
2208,F4,232.0,4.0,54,160.0
2209,D4,232.0,4.0,54,160.0
2210,B-4,232.0,4.0,54,160.0
2211,F4,232.0,4.0,54,160.0
2212,F3,232.5,0.75,64,160.0
2213,F#2,232.5,1/100,109,160.0
2214,B-3,233.0,0.25,64,160.0
2215,F#2,233.0,1/100,109,160.0
2216,F4,233.5,1.0,64,160.0
2217,B-4,233.5,1.25,64,160.0
2218,C4,233.5,1.5,64,160.0
2219,B-2,233.5,0.25,64,160.0
2220,B-3,233.5,0.25,64,160.0
2221,F3,233.5,0.25,64,160.0
2222,F#2,233.5,1/100,109,160.0
2223,B1,233.5,1/100,109,160.0
2224,B-2,234.0,1.25,64,160.0
2225,F#2,234.0,1/100,109,160.0
2226,D2,234.0,1/100,109,160.0
2227,F3,234.5,0.75,64,160.0
2228,F4,234.5,0.25,64,160.0
2229,F#2,234.5,1/100,109,160.0
2230,C#2,234.917,0.125,90,160.0
2231,C4,235.0,0.75,64,160.0
2232,D2,235.0,0.25,90,160.0
2233,F#2,235.0,1/100,109,160.0
2234,F4,235.0,0.5,64,160.0
2235,B-4,235.0,0.5,64,160.0
2236,G1,235.5,0.5,90,160.0
2237,F#2,235.5,1/100,109,160.0
2238,B-2,235.5,0.25,64,160.0
2239,B-3,235.5,0.25,64,160.0
2240,F3,235.5,0.25,64,160.0
2241,C4,236.0,0.25,64,160.0
2242,B-2,236.0,1.25,64,160.0
2243,B-1,236.0,1.5,90,160.0
2244,B-3,236.0,4.0,54,160.0
2245,B-3,236.0,4.0,54,160.0
2246,F4,236.0,0.5,64,160.0
2247,B-4,236.0,0.5,64,160.0
2248,F#2,236.0,1/100,109,160.0
2249,B1,236.0,1/100,109,160.0
2250,D4,236.0,4.0,54,160.0
2251,B-4,236.0,4.0,54,160.0
2252,F4,236.0,4.0,54,160.0
2253,D4,236.0,4.0,54,160.0
2254,B-4,236.0,4.0,54,160.0
2255,F4,236.0,4.0,54,160.0
2256,F3,236.5,0.75,64,160.0
2257,F#2,236.5,1/100,109,160.0
2258,F4,236.5,0.25,64,160.0
2259,B-4,236.5,0.25,64,160.0
2260,D4,236.5,0.25,64,160.0
2261,B-3,237.0,0.25,64,160.0
2262,F#2,237.0,1/100,109,160.0
2263,F2,237.5,0.5,90,160.0
2264,F4,237.5,0.25,64,160.0
2265,B-4,237.5,0.25,64,160.0
2266,D4,237.5,0.25,64,160.0
2267,B-2,237.5,0.25,64,160.0
2268,F3,237.5,0.25,64,160.0
2269,B-3,237.5,0.25,64,160.0
2270,F#2,237.5,1/100,109,160.0
2271,B1,237.5,1/100,109,160.0
2272,G2,238.0,0.25,90,160.0
2273,F4,238.0,1.25,64,160.0
2274,B-4,238.0,1.25,64,160.0
2275,D4,238.0,1.25,64,160.0
2276,B-2,238.0,1.25,64,160.0
2277,F#2,238.0,1/100,109,160.0
2278,D2,238.0,1/100,109,160.0
2279,F3,238.5,0.75,64,160.0
2280,F#2,238.5,1/100,109,160.0
2281,B-3,239.0,0.25,64,160.0
2282,F2,239.0,1.0,90,160.0
2283,F#2,239.0,1/100,109,160.0
2284,F#2,239.5,1/100,109,160.0
2285,F4,239.5,0.5,64,160.0
2286,D4,239.5,0.5,64,160.0
2287,B-4,239.5,0.5,64,160.0
2288,B-2,239.5,0.25,64,160.0
2289,B-3,239.5,0.25,64,160.0
2290,F3,239.5,0.25,64,160.0
2291,F2,240.0,1.0,90,160.0
2292,B-3,240.0,4.0,54,160.0
2293,B-3,240.0,4.0,54,160.0
2294,F4,240.0,1.25,64,160.0
2295,D4,240.0,1.25,64,160.0
2296,B-4,240.0,1.25,64,160.0
2297,B-2,240.0,1.25,64,160.0
2298,F4,240.0,1.25,64,160.0
2299,D4,240.0,1.25,64,160.0
2300,B-4,240.0,1.25,64,160.0
2301,F#2,240.0,1/100,109,160.0
2302,B1,240.0,1/100,109,160.0
2303,D4,240.0,4.0,54,160.0
2304,B-4,240.0,4.0,54,160.0
2305,F4,240.0,4.0,54,160.0
2306,D4,240.0,4.0,54,160.0
2307,B-4,240.0,4.0,54,160.0
2308,F4,240.0,4.0,54,160.0
2309,F3,240.5,0.75,64,160.0
2310,F#2,240.5,1/100,109,160.0
2311,B-3,241.0,0.25,64,160.0
2312,B-1,241.0,1.0,90,160.0
2313,F#2,241.0,1/100,109,160.0
2314,B-2,241.5,0.25,64,160.0
2315,B-3,241.5,0.25,64,160.0
2316,F3,241.5,0.25,64,160.0
2317,F4,241.5,1.0,64,160.0
2318,B-4,241.5,1.0,64,160.0
2319,C4,241.5,1.0,64,160.0
2320,F#2,241.5,1/100,109,160.0
2321,B1,241.5,1/100,109,160.0
2322,B-2,242.0,1.25,64,160.0
2323,C2,242.0,1.0,90,160.0
2324,F#2,242.0,1/100,109,160.0
2325,D2,242.0,1/100,109,160.0
2326,F3,242.5,0.75,64,160.0
2327,F#2,242.5,1/100,109,160.0
2328,B-3,243.0,0.25,64,160.0
2329,D2,243.0,1.0,90,160.0
2330,F4,243.0,0.75,64,160.0
2331,B-4,243.0,0.75,64,160.0
2332,C4,243.0,0.75,64,160.0
2333,F#2,243.0,1/100,109,160.0
2334,D2,243.0,1/100,109,160.0
2335,B-2,243.5,0.25,64,160.0
2336,F3,243.5,0.25,64,160.0
2337,B-3,243.5,0.25,64,160.0
2338,F#2,243.5,1/100,109,160.0
2339,D2,243.5,1/100,109,160.0
2340,F3,244.0,0.5,64,160.0
2341,E-2,244.0,1.25,64,160.0
2342,E-2,244.0,1.5,90,160.0
2343,B-3,244.0,3.25,54,160.0
2344,B-3,244.0,3.25,54,160.0
2345,B-3,244.0,0.75,64,160.0
2346,E-4,244.0,0.75,64,160.0
2347,F#2,244.0,1/100,109,160.0
2348,B1,244.0,1/100,109,160.0
2349,C#3,244.0,1/100,109,160.0
2350,D4,244.0,3.25,54,160.0
2351,B-4,244.0,3.25,54,160.0
2352,F4,244.0,3.25,54,160.0
2353,D4,244.0,3.25,54,160.0
2354,B-4,244.0,3.25,54,160.0
2355,F4,244.0,3.25,54,160.0
2356,B-2,244.5,0.75,64,160.0
2357,G3,244.5,0.25,64,160.0
2358,F#2,244.5,1/100,109,160.0
2359,E-3,245.0,0.25,64,160.0
2360,F#2,245.0,1/100,109,160.0
2361,B-2,245.5,0.5,90,160.0
2362,E-2,245.5,0.25,64,160.0
2363,B-3,245.5,0.25,64,160.0
2364,G3,245.5,0.25,64,160.0
2365,E-4,245.5,0.25,64,160.0
2366,E-3,245.5,0.25,64,160.0
2367,B-2,245.5,0.25,64,160.0
2368,F#2,245.5,1/100,109,160.0
2369,B1,245.5,1/100,109,160.0
2370,E-2,246.0,1.25,64,160.0
2371,C3,246.0,0.25,90,160.0
2372,E-4,246.0,1.0,64,160.0
2373,B-3,246.0,1.0,64,160.0
2374,G3,246.0,1.0,64,160.0
2375,F#2,246.0,1/100,109,160.0
2376,D2,246.0,1/100,109,160.0
2377,B-2,246.5,0.75,64,160.0
2378,F#2,246.5,1/100,109,160.0
2379,E-3,247.0,0.25,64,160.0
2380,B-2,247.0,1.0,90,160.0
2381,F#2,247.0,1/100,109,160.0
2382,F#2,247.5,1/100,109,160.0
2383,G3,247.5,0.5,64,160.0
2384,E-4,247.5,0.5,64,160.0
2385,B-3,247.5,0.5,64,160.0
2386,E-2,247.5,0.25,64,160.0
2387,E-3,247.5,0.25,64,160.0
2388,B-2,247.5,0.25,64,160.0
2389,E-2,248.0,1.25,64,160.0
2390,B-2,248.0,2.25,90,160.0
2391,G3,248.0,1.25,64,160.0
2392,E-4,248.0,1.25,64,160.0
2393,B-3,248.0,1.25,64,160.0
2394,F#2,248.0,1/100,109,160.0
2395,B1,248.0,1/100,109,160.0
2396,B-2,248.5,0.75,64,160.0
2397,F#2,248.5,1/100,109,160.0
2398,E-3,249.0,0.25,64,160.0
2399,F#2,249.0,1/100,109,160.0
2400,B-3,249.5,1.0,64,160.0
2401,E-4,249.5,1.25,64,160.0
2402,F3,249.5,1.5,64,160.0
2403,E-2,249.5,0.25,64,160.0
2404,E-3,249.5,0.25,64,160.0
2405,B-2,249.5,0.25,64,160.0
2406,F#2,249.5,1/100,109,160.0
2407,B1,249.5,1/100,109,160.0
2408,E-2,250.0,1.25,64,160.0
2409,F#2,250.0,1/100,109,160.0
2410,D2,250.0,1/100,109,160.0
2411,B-2,250.5,0.75,64,160.0
2412,B-3,250.5,0.25,64,160.0
2413,F#2,250.5,1/100,109,160.0
2414,F#2,250.917,0.125,90,160.0
2415,F3,251.0,0.75,64,160.0
2416,G2,251.0,0.25,90,160.0
2417,F#2,251.0,1/100,109,160.0
2418,B-3,251.0,0.5,64,160.0
2419,E-4,251.0,0.5,64,160.0
2420,C2,251.5,0.5,90,160.0
2421,F#2,251.5,1/100,109,160.0
2422,E-2,251.5,0.25,64,160.0
2423,E-3,251.5,0.25,64,160.0
2424,B-2,251.5,0.25,64,160.0
2425,F3,252.0,0.25,64,160.0
2426,E-2,252.0,1.25,64,160.0
2427,E-2,252.0,1.5,90,160.0
2428,B-3,252.0,0.5,64,160.0
2429,E-4,252.0,0.5,64,160.0
2430,F#2,252.0,1/100,109,160.0
2431,B1,252.0,1/100,109,160.0
2432,B-2,252.5,0.75,64,160.0
2433,F#2,252.5,1/100,109,160.0
2434,B-3,252.5,0.25,64,160.0
2435,E-4,252.5,0.25,64,160.0
2436,G3,252.5,0.25,64,160.0
2437,E-3,253.0,0.25,64,160.0
2438,F#2,253.0,1/100,109,160.0
2439,B-2,253.5,0.5,90,160.0
2440,B-3,253.5,0.25,64,160.0
2441,E-4,253.5,0.25,64,160.0
2442,G3,253.5,0.25,64,160.0
2443,E-2,253.5,0.25,64,160.0
2444,B-2,253.5,0.25,64,160.0
2445,E-3,253.5,0.25,64,160.0
2446,F#2,253.5,1/100,109,160.0
2447,B1,253.5,1/100,109,160.0
2448,C3,254.0,0.25,90,160.0
2449,B-3,254.0,1.25,64,160.0
2450,E-4,254.0,1.25,64,160.0
2451,G3,254.0,1.25,64,160.0
2452,E-2,254.0,1.25,64,160.0
2453,F#2,254.0,1/100,109,160.0
2454,D2,254.0,1/100,109,160.0
2455,B-2,254.5,0.75,64,160.0
2456,F#2,254.5,1/100,109,160.0
2457,E-3,255.0,0.25,64,160.0
2458,B-2,255.0,1.0,90,160.0
2459,F#2,255.0,1/100,109,160.0
2460,F#2,255.5,1/100,109,160.0
2461,B-3,255.5,0.5,64,160.0
2462,G3,255.5,0.5,64,160.0
2463,E-4,255.5,0.5,64,160.0
2464,E-2,255.5,0.25,64,160.0
2465,E-3,255.5,0.25,64,160.0
2466,B-2,255.5,0.25,64,160.0
2467,B-2,256.0,2.25,90,160.0
2468,B-3,256.0,1.25,64,160.0
2469,G3,256.0,1.25,64,160.0
2470,E-4,256.0,1.25,64,160.0
2471,E-2,256.0,1.25,64,160.0
2472,B-3,256.0,1.25,64,160.0
2473,G3,256.0,1.25,64,160.0
2474,E-4,256.0,1.25,64,160.0
2475,F#2,256.0,1/100,109,160.0
2476,B1,256.0,1/100,109,160.0
2477,B-2,256.5,0.75,64,160.0
2478,F#2,256.5,1/100,109,160.0
2479,E-3,257.0,0.25,64,160.0
2480,F#2,257.0,1/100,109,160.0
2481,E-2,257.5,0.25,64,160.0
2482,E-3,257.5,0.25,64,160.0
2483,B-2,257.5,0.25,64,160.0
2484,B-3,257.5,1.0,64,160.0
2485,E-4,257.5,1.0,64,160.0
2486,F3,257.5,1.0,64,160.0
2487,F#2,257.5,1/100,109,160.0
2488,B1,257.5,1/100,109,160.0
2489,E-2,258.0,1.25,64,160.0
2490,F#2,258.0,1/100,109,160.0
2491,D2,258.0,1/100,109,160.0
2492,B-2,258.5,0.75,64,160.0
2493,F#2,258.5,1/100,109,160.0
2494,F#2,258.917,0.125,90,160.0
2495,E-3,259.0,0.25,64,160.0
2496,G2,259.0,0.25,90,160.0
2497,B-3,259.0,0.75,64,160.0
2498,E-4,259.0,0.75,64,160.0
2499,F3,259.0,0.75,64,160.0
2500,F#2,259.0,1/100,109,160.0
2501,D2,259.0,1/100,109,160.0
2502,C2,259.5,0.5,90,160.0
2503,G2,259.5,0.25,64,160.0
2504,E-3,259.5,0.25,64,160.0
2505,B-3,259.5,0.25,64,160.0
2506,F#2,259.5,1/100,109,160.0
2507,D2,259.5,1/100,109,160.0
2508,F3,260.0,0.5,64,160.0
2509,E-2,260.0,1.25,64,160.0
2510,E-2,260.0,1.5,90,160.0
2511,B-3,260.0,0.75,64,160.0
2512,E-4,260.0,0.75,64,160.0
2513,F#2,260.0,1/100,109,160.0
2514,B1,260.0,1/100,109,160.0
2515,B-2,260.5,0.75,64,160.0
2516,G3,260.5,0.25,64,160.0
2517,F#2,260.5,1/100,109,160.0
2518,E-3,261.0,0.25,64,160.0
2519,F#2,261.0,1/100,109,160.0
2520,B-2,261.5,0.5,90,160.0
2521,E-2,261.5,0.25,64,160.0
2522,B-3,261.5,0.25,64,160.0
2523,G3,261.5,0.25,64,160.0
2524,E-4,261.5,0.25,64,160.0
2525,E-3,261.5,0.25,64,160.0
2526,B-2,261.5,0.25,64,160.0
2527,F#2,261.5,1/100,109,160.0
2528,B1,261.5,1/100,109,160.0
2529,E-2,262.0,1.25,64,160.0
2530,C3,262.0,0.25,90,160.0
2531,E-4,262.0,1.0,64,160.0
2532,B-3,262.0,1.0,64,160.0
2533,G3,262.0,1.0,64,160.0
2534,F#2,262.0,1/100,109,160.0
2535,D2,262.0,1/100,109,160.0
2536,B-2,262.5,0.75,64,160.0
2537,F#2,262.5,1/100,109,160.0
2538,E-3,263.0,0.25,64,160.0
2539,B-2,263.0,1.0,90,160.0
2540,F#2,263.0,1/100,109,160.0
2541,F#2,263.5,1/100,109,160.0
2542,G3,263.5,0.5,64,160.0
2543,E-4,263.5,0.5,64,160.0
2544,B-3,263.5,0.5,64,160.0
2545,E-2,263.5,0.25,64,160.0
2546,E-3,263.5,0.25,64,160.0
2547,B-2,263.5,0.25,64,160.0
2548,E-2,264.0,1.25,64,160.0
2549,B-2,264.0,2.25,90,160.0
2550,G3,264.0,1.25,64,160.0
2551,E-4,264.0,1.25,64,160.0
2552,B-3,264.0,1.25,64,160.0
2553,F#2,264.0,1/100,109,160.0
2554,B1,264.0,1/100,109,160.0
2555,B-2,264.5,0.75,64,160.0
2556,F#2,264.5,1/100,109,160.0
2557,E-3,265.0,0.25,64,160.0
2558,F#2,265.0,1/100,109,160.0
2559,B-3,265.5,1.0,64,160.0
2560,E-4,265.5,1.25,64,160.0
2561,F3,265.5,1.5,64,160.0
2562,E-2,265.5,0.25,64,160.0
2563,E-3,265.5,0.25,64,160.0
2564,B-2,265.5,0.25,64,160.0
2565,F#2,265.5,1/100,109,160.0
2566,B1,265.5,1/100,109,160.0
2567,E-2,266.0,1.25,64,160.0
2568,F#2,266.0,1/100,109,160.0
2569,D2,266.0,1/100,109,160.0
2570,B-2,266.5,0.75,64,160.0
2571,B-3,266.5,0.25,64,160.0
2572,F#2,266.5,1/100,109,160.0
2573,F#2,266.917,0.125,90,160.0
2574,F3,267.0,0.75,64,160.0
2575,G2,267.0,0.25,90,160.0
2576,F#2,267.0,1/100,109,160.0
2577,B-3,267.0,0.5,64,160.0
2578,E-4,267.0,0.5,64,160.0
2579,C2,267.5,0.5,90,160.0
2580,F#2,267.5,1/100,109,160.0
2581,E-2,267.5,0.25,64,160.0
2582,E-3,267.5,0.25,64,160.0
2583,B-2,267.5,0.25,64,160.0
2584,F3,268.0,0.25,64,160.0
2585,E-2,268.0,1.25,64,160.0
2586,E-2,268.0,1.5,90,160.0
2587,B-3,268.0,0.5,64,160.0
2588,E-4,268.0,0.5,64,160.0
2589,F#2,268.0,1/100,109,160.0
2590,B1,268.0,1/100,109,160.0
2591,B-2,268.5,0.75,64,160.0
2592,F#2,268.5,1/100,109,160.0
2593,B-3,268.5,0.25,64,160.0
2594,E-4,268.5,0.25,64,160.0
2595,G3,268.5,0.25,64,160.0
2596,E-3,269.0,0.25,64,160.0
2597,F#2,269.0,1/100,109,160.0
2598,B-2,269.5,0.5,90,160.0
2599,B-3,269.5,0.25,64,160.0
2600,E-4,269.5,0.25,64,160.0
2601,G3,269.5,0.25,64,160.0
2602,E-2,269.5,0.25,64,160.0
2603,B-2,269.5,0.25,64,160.0
2604,E-3,269.5,0.25,64,160.0
2605,F#2,269.5,1/100,109,160.0
2606,B1,269.5,1/100,109,160.0
2607,C3,270.0,0.25,90,160.0
2608,B-3,270.0,1.25,64,160.0
2609,E-4,270.0,1.25,64,160.0
2610,G3,270.0,1.25,64,160.0
2611,E-2,270.0,1.25,64,160.0
2612,F#2,270.0,1/100,109,160.0
2613,D2,270.0,1/100,109,160.0
2614,B-2,270.5,0.75,64,160.0
2615,F#2,270.5,1/100,109,160.0
2616,E-3,271.0,0.25,64,160.0
2617,B-2,271.0,1.0,90,160.0
2618,F#2,271.0,1/100,109,160.0
2619,F#2,271.5,1/100,109,160.0
2620,B-3,271.5,0.5,64,160.0
2621,G3,271.5,0.5,64,160.0
2622,E-4,271.5,0.5,64,160.0
2623,E-2,271.5,0.25,64,160.0
2624,E-3,271.5,0.25,64,160.0
2625,B-2,271.5,0.25,64,160.0
2626,B-2,272.0,2.25,90,160.0
2627,B-3,272.0,1.25,64,160.0
2628,G3,272.0,1.25,64,160.0
2629,E-4,272.0,1.25,64,160.0
2630,E-2,272.0,1.25,64,160.0
2631,B-3,272.0,1.25,64,160.0
2632,G3,272.0,1.25,64,160.0
2633,E-4,272.0,1.25,64,160.0
2634,F#2,272.0,1/100,109,160.0
2635,B1,272.0,1/100,109,160.0
2636,B-2,272.5,0.75,64,160.0
2637,F#2,272.5,1/100,109,160.0
2638,E-3,273.0,0.25,64,160.0
2639,F#2,273.0,1/100,109,160.0
2640,E-2,273.5,0.25,64,160.0
2641,E-3,273.5,0.25,64,160.0
2642,B-2,273.5,0.25,64,160.0
2643,B-3,273.5,1.0,64,160.0
2644,E-4,273.5,1.0,64,160.0
2645,F3,273.5,1.0,64,160.0
2646,F#2,273.5,1/100,109,160.0
2647,B1,273.5,1/100,109,160.0
2648,E-2,274.0,1.25,64,160.0
2649,F#2,274.0,1/100,109,160.0
2650,D2,274.0,1/100,109,160.0
2651,B-2,274.5,0.75,64,160.0
2652,F#2,274.5,1/100,109,160.0
2653,F#2,274.917,0.125,90,160.0
2654,E-3,275.0,0.25,64,160.0
2655,G2,275.0,0.25,90,160.0
2656,B-3,275.0,0.75,64,160.0
2657,E-4,275.0,0.75,64,160.0
2658,F3,275.0,0.75,64,160.0
2659,F#2,275.0,1/100,109,160.0
2660,D2,275.0,1/100,109,160.0
2661,C2,275.5,0.5,90,160.0
2662,E-2,275.5,0.25,64,160.0
2663,B-2,275.5,0.25,64,160.0
2664,E-3,275.5,0.25,64,160.0
2665,F#2,275.5,1/100,109,160.0
2666,D2,275.5,1/100,109,160.0
2667,C4,276.0,0.5,64,160.0
2668,B-2,276.0,1.25,64,160.0
2669,B-1,276.0,1.5,90,160.0
2670,F4,276.0,0.75,64,160.0
2671,B-4,276.0,0.75,64,160.0
2672,F#2,276.0,1/100,109,160.0
2673,B1,276.0,1/100,109,160.0
2674,C#3,276.0,1/100,109,160.0
2675,F3,276.5,0.75,64,160.0
2676,D4,276.5,0.25,64,160.0
2677,F#2,276.5,1/100,109,160.0
2678,B-3,277.0,0.25,64,160.0
2679,F#2,277.0,1/100,109,160.0
2680,F2,277.5,0.5,90,160.0
2681,B-2,277.5,0.25,64,160.0
2682,F4,277.5,0.25,64,160.0
2683,D4,277.5,0.25,64,160.0
2684,B-4,277.5,0.25,64,160.0
2685,B-3,277.5,0.25,64,160.0
2686,F3,277.5,0.25,64,160.0
2687,F#2,277.5,1/100,109,160.0
2688,B1,277.5,1/100,109,160.0
2689,B-2,278.0,1.25,64,160.0
2690,G2,278.0,0.25,90,160.0
2691,B-4,278.0,1.0,64,160.0
2692,F4,278.0,1.0,64,160.0
2693,D4,278.0,1.0,64,160.0
2694,F#2,278.0,1/100,109,160.0
2695,D2,278.0,1/100,109,160.0
2696,F3,278.5,0.75,64,160.0
2697,F#2,278.5,1/100,109,160.0
2698,B-3,279.0,0.25,64,160.0
2699,F2,279.0,1.0,90,160.0
2700,F#2,279.0,1/100,109,160.0
2701,F#2,279.5,1/100,109,160.0
2702,D4,279.5,0.5,64,160.0
2703,B-4,279.5,0.5,64,160.0
2704,F4,279.5,0.5,64,160.0
2705,B-2,279.5,0.25,64,160.0
2706,B-3,279.5,0.25,64,160.0
2707,F3,279.5,0.25,64,160.0
2708,B-2,280.0,1.25,64,160.0
2709,F2,280.0,2.25,90,160.0
2710,D4,280.0,1.25,64,160.0
2711,B-4,280.0,1.25,64,160.0
2712,F4,280.0,1.25,64,160.0
2713,F#2,280.0,1/100,109,160.0
2714,B1,280.0,1/100,109,160.0
2715,F3,280.5,0.75,64,160.0
2716,F#2,280.5,1/100,109,160.0
2717,B-3,281.0,0.25,64,160.0
2718,F#2,281.0,1/100,109,160.0
2719,F4,281.5,1.0,64,160.0
2720,B-4,281.5,1.25,64,160.0
2721,C4,281.5,1.5,64,160.0
2722,B-2,281.5,0.25,64,160.0
2723,B-3,281.5,0.25,64,160.0
2724,F3,281.5,0.25,64,160.0
2725,F#2,281.5,1/100,109,160.0
2726,B1,281.5,1/100,109,160.0
2727,B-2,282.0,1.25,64,160.0
2728,F#2,282.0,1/100,109,160.0
2729,D2,282.0,1/100,109,160.0
2730,F3,282.5,0.75,64,160.0
2731,F4,282.5,0.25,64,160.0
2732,F#2,282.5,1/100,109,160.0
2733,C#2,282.917,0.125,90,160.0
2734,C4,283.0,0.75,64,160.0
2735,D2,283.0,0.25,90,160.0
2736,F#2,283.0,1/100,109,160.0
2737,F4,283.0,0.5,64,160.0
2738,B-4,283.0,0.5,64,160.0
2739,G1,283.5,0.5,90,160.0
2740,F#2,283.5,1/100,109,160.0
2741,B-2,283.5,0.25,64,160.0
2742,B-3,283.5,0.25,64,160.0
2743,F3,283.5,0.25,64,160.0
2744,C4,284.0,0.25,64,160.0
2745,B-2,284.0,1.25,64,160.0
2746,B-1,284.0,1.5,90,160.0
2747,F4,284.0,0.5,64,160.0
2748,B-4,284.0,0.5,64,160.0
2749,F#2,284.0,1/100,109,160.0
2750,B1,284.0,1/100,109,160.0
2751,F3,284.5,0.75,64,160.0
2752,F#2,284.5,1/100,109,160.0
2753,F4,284.5,0.25,64,160.0
2754,B-4,284.5,0.25,64,160.0
2755,D4,284.5,0.25,64,160.0
2756,B-3,285.0,0.25,64,160.0
2757,F#2,285.0,1/100,109,160.0
2758,F2,285.5,0.5,90,160.0
2759,F4,285.5,0.25,64,160.0
2760,B-4,285.5,0.25,64,160.0
2761,D4,285.5,0.25,64,160.0
2762,B-2,285.5,0.25,64,160.0
2763,F3,285.5,0.25,64,160.0
2764,B-3,285.5,0.25,64,160.0
2765,F#2,285.5,1/100,109,160.0
2766,B1,285.5,1/100,109,160.0
2767,G2,286.0,0.25,90,160.0
2768,F4,286.0,1.25,64,160.0
2769,B-4,286.0,1.25,64,160.0
2770,D4,286.0,1.25,64,160.0
2771,B-2,286.0,1.25,64,160.0
2772,F#2,286.0,1/100,109,160.0
2773,D2,286.0,1/100,109,160.0
2774,F3,286.5,0.75,64,160.0
2775,F#2,286.5,1/100,109,160.0
2776,B-3,287.0,0.25,64,160.0
2777,F2,287.0,1.0,90,160.0
2778,F#2,287.0,1/100,109,160.0
2779,F#2,287.5,1/100,109,160.0
2780,F4,287.5,0.5,64,160.0
2781,D4,287.5,0.5,64,160.0
2782,B-4,287.5,0.5,64,160.0
2783,B-2,287.5,0.25,64,160.0
2784,B-3,287.5,0.25,64,160.0
2785,F3,287.5,0.25,64,160.0
2786,F2,288.0,1.0,90,160.0
2787,F4,288.0,1.25,64,160.0
2788,D4,288.0,1.25,64,160.0
2789,B-4,288.0,1.25,64,160.0
2790,B-2,288.0,1.25,64,160.0
2791,F4,288.0,1.25,64,160.0
2792,D4,288.0,1.25,64,160.0
2793,B-4,288.0,1.25,64,160.0
2794,F#2,288.0,1/100,109,160.0
2795,B1,288.0,1/100,109,160.0
2796,F3,288.5,0.75,64,160.0
2797,F#2,288.5,1/100,109,160.0
2798,B-3,289.0,0.25,64,160.0
2799,B-1,289.0,1.0,90,160.0
2800,F#2,289.0,1/100,109,160.0
2801,B-2,289.5,0.25,64,160.0
2802,B-3,289.5,0.25,64,160.0
2803,F3,289.5,0.25,64,160.0
2804,F4,289.5,1.0,64,160.0
2805,B-4,289.5,1.0,64,160.0
2806,C4,289.5,1.0,64,160.0
2807,F#2,289.5,1/100,109,160.0
2808,B1,289.5,1/100,109,160.0
2809,B-2,290.0,1.25,64,160.0
2810,C2,290.0,1.0,90,160.0
2811,F#2,290.0,1/100,109,160.0
2812,D2,290.0,1/100,109,160.0
2813,F3,290.5,0.75,64,160.0
2814,F#2,290.5,1/100,109,160.0
2815,B-3,291.0,0.25,64,160.0
2816,D2,291.0,1.0,90,160.0
2817,F4,291.0,0.75,64,160.0
2818,B-4,291.0,0.75,64,160.0
2819,C4,291.0,0.75,64,160.0
2820,F#2,291.0,1/100,109,160.0
2821,D2,291.0,1/100,109,160.0
2822,B-2,291.5,0.25,64,160.0
2823,F3,291.5,0.25,64,160.0
2824,B-3,291.5,0.25,64,160.0
2825,F#2,291.5,1/100,109,160.0
2826,D2,291.5,1/100,109,160.0
2827,F3,292.0,0.5,64,160.0
2828,E-2,292.0,1.25,64,160.0
2829,E-2,292.0,1.5,90,160.0
2830,B-3,292.0,0.75,64,160.0
2831,E-4,292.0,0.75,64,160.0
2832,F#2,292.0,1/100,109,160.0
2833,B1,292.0,1/100,109,160.0
2834,C#3,292.0,1/100,109,160.0
2835,B-2,292.5,0.75,64,160.0
2836,G3,292.5,0.25,64,160.0
2837,F#2,292.5,1/100,109,160.0
2838,E-3,293.0,0.25,64,160.0
2839,F#2,293.0,1/100,109,160.0
2840,B-2,293.5,0.5,90,160.0
2841,E-2,293.5,0.25,64,160.0
2842,B-3,293.5,0.25,64,160.0
2843,G3,293.5,0.25,64,160.0
2844,E-4,293.5,0.25,64,160.0
2845,E-3,293.5,0.25,64,160.0
2846,B-2,293.5,0.25,64,160.0
2847,F#2,293.5,1/100,109,160.0
2848,B1,293.5,1/100,109,160.0
2849,E-2,294.0,1.25,64,160.0
2850,C3,294.0,0.25,90,160.0
2851,E-4,294.0,1.0,64,160.0
2852,B-3,294.0,1.0,64,160.0
2853,G3,294.0,1.0,64,160.0
2854,F#2,294.0,1/100,109,160.0
2855,D2,294.0,1/100,109,160.0
2856,B-2,294.5,0.75,64,160.0
2857,F#2,294.5,1/100,109,160.0
2858,E-3,295.0,0.25,64,160.0
2859,B-2,295.0,1.0,90,160.0
2860,F#2,295.0,1/100,109,160.0
2861,F#2,295.5,1/100,109,160.0
2862,G3,295.5,0.5,64,160.0
2863,E-4,295.5,0.5,64,160.0
2864,B-3,295.5,0.5,64,160.0
2865,E-2,295.5,0.25,64,160.0
2866,E-3,295.5,0.25,64,160.0
2867,B-2,295.5,0.25,64,160.0
2868,E-2,296.0,1.25,64,160.0
2869,B-2,296.0,2.25,90,160.0
2870,G3,296.0,1.25,64,160.0
2871,E-4,296.0,1.25,64,160.0
2872,B-3,296.0,1.25,64,160.0
2873,F#2,296.0,1/100,109,160.0
2874,B1,296.0,1/100,109,160.0
2875,B-2,296.5,0.75,64,160.0
2876,F#2,296.5,1/100,109,160.0
2877,E-3,297.0,0.25,64,160.0
2878,F#2,297.0,1/100,109,160.0
2879,B-3,297.5,1.0,64,160.0
2880,E-4,297.5,1.25,64,160.0
2881,F3,297.5,1.5,64,160.0
2882,E-2,297.5,0.25,64,160.0
2883,E-3,297.5,0.25,64,160.0
2884,B-2,297.5,0.25,64,160.0
2885,F#2,297.5,1/100,109,160.0
2886,B1,297.5,1/100,109,160.0
2887,E-2,298.0,1.25,64,160.0
2888,F#2,298.0,1/100,109,160.0
2889,D2,298.0,1/100,109,160.0
2890,B-2,298.5,0.75,64,160.0
2891,B-3,298.5,0.25,64,160.0
2892,F#2,298.5,1/100,109,160.0
2893,F#2,298.917,0.125,90,160.0
2894,F3,299.0,0.75,64,160.0
2895,G2,299.0,0.25,90,160.0
2896,F#2,299.0,1/100,109,160.0
2897,B-3,299.0,0.5,64,160.0
2898,E-4,299.0,0.5,64,160.0
2899,C2,299.5,0.5,90,160.0
2900,F#2,299.5,1/100,109,160.0
2901,E-2,299.5,0.25,64,160.0
2902,E-3,299.5,0.25,64,160.0
2903,B-2,299.5,0.25,64,160.0
2904,F3,300.0,0.25,64,160.0
2905,E-2,300.0,1.25,64,160.0
2906,E-2,300.0,1.5,90,160.0
2907,B-3,300.0,0.5,64,160.0
2908,E-4,300.0,0.5,64,160.0
2909,F#2,300.0,1/100,109,160.0
2910,B1,300.0,1/100,109,160.0
2911,B-2,300.5,0.75,64,160.0
2912,F#2,300.5,1/100,109,160.0
2913,B-3,300.5,0.25,64,160.0
2914,E-4,300.5,0.25,64,160.0
2915,G3,300.5,0.25,64,160.0
2916,E-3,301.0,0.25,64,160.0
2917,F#2,301.0,1/100,109,160.0
2918,B-2,301.5,0.5,90,160.0
2919,B-3,301.5,0.25,64,160.0
2920,E-4,301.5,0.25,64,160.0
2921,G3,301.5,0.25,64,160.0
2922,E-2,301.5,0.25,64,160.0
2923,B-2,301.5,0.25,64,160.0
2924,E-3,301.5,0.25,64,160.0
2925,F#2,301.5,1/100,109,160.0
2926,B1,301.5,1/100,109,160.0
2927,C3,302.0,0.25,90,160.0
2928,B-3,302.0,1.25,64,160.0
2929,E-4,302.0,1.25,64,160.0
2930,G3,302.0,1.25,64,160.0
2931,E-2,302.0,1.25,64,160.0
2932,F#2,302.0,1/100,109,160.0
2933,D2,302.0,1/100,109,160.0
2934,B-2,302.5,0.75,64,160.0
2935,F#2,302.5,1/100,109,160.0
2936,E-3,303.0,0.25,64,160.0
2937,B-2,303.0,1.0,90,160.0
2938,F#2,303.0,1/100,109,160.0
2939,F#2,303.5,1/100,109,160.0
2940,B-3,303.5,0.5,64,160.0
2941,G3,303.5,0.5,64,160.0
2942,E-4,303.5,0.5,64,160.0
2943,E-2,303.5,0.25,64,160.0
2944,E-3,303.5,0.25,64,160.0
2945,B-2,303.5,0.25,64,160.0
2946,B-2,304.0,2.25,90,160.0
2947,B-3,304.0,1.25,64,160.0
2948,G3,304.0,1.25,64,160.0
2949,E-4,304.0,1.25,64,160.0
2950,E-2,304.0,1.25,64,160.0
2951,B-3,304.0,1.25,64,160.0
2952,G3,304.0,1.25,64,160.0
2953,E-4,304.0,1.25,64,160.0
2954,F#2,304.0,1/100,109,160.0
2955,B1,304.0,1/100,109,160.0
2956,B-2,304.5,0.75,64,160.0
2957,F#2,304.5,1/100,109,160.0
2958,E-3,305.0,0.25,64,160.0
2959,F#2,305.0,1/100,109,160.0
2960,E-2,305.5,0.25,64,160.0
2961,E-3,305.5,0.25,64,160.0
2962,B-2,305.5,0.25,64,160.0
2963,B-3,305.5,1.0,64,160.0
2964,E-4,305.5,1.0,64,160.0
2965,F3,305.5,1.0,64,160.0
2966,F#2,305.5,1/100,109,160.0
2967,B1,305.5,1/100,109,160.0
2968,E-2,306.0,1.25,64,160.0
2969,F#2,306.0,1/100,109,160.0
2970,D2,306.0,1/100,109,160.0
2971,B-2,306.5,0.75,64,160.0
2972,F#2,306.5,1/100,109,160.0
2973,F#2,306.917,0.125,90,160.0
2974,E-3,307.0,0.25,64,160.0
2975,G2,307.0,0.25,90,160.0
2976,B-3,307.0,0.75,64,160.0
2977,E-4,307.0,0.75,64,160.0
2978,F3,307.0,0.75,64,160.0
2979,F#2,307.0,1/100,109,160.0
2980,D2,307.0,1/100,109,160.0
2981,C2,307.5,0.5,90,160.0
2982,E-2,307.5,0.25,64,160.0
2983,B-2,307.5,0.25,64,160.0
2984,E-3,307.5,0.25,64,160.0
2985,F#2,307.5,1/100,109,160.0
2986,D2,307.5,1/100,109,160.0
2987,F3,308.0,0.5,64,160.0
2988,E-2,308.0,1.25,64,160.0
2989,E-2,308.0,1.5,90,160.0
2990,B-3,308.0,0.75,64,160.0
2991,E-4,308.0,0.75,64,160.0
2992,F#2,308.0,1/100,109,160.0
2993,B1,308.0,1/100,109,160.0
2994,C#3,308.0,1/100,109,160.0
2995,E-4,308.0,0.5,95,160.0
2996,G4,308.0,0.5,95,160.0
2997,B-2,308.5,0.75,64,160.0
2998,G3,308.5,0.25,64,160.0
2999,F#2,308.5,1/100,109,160.0
3000,E-3,309.0,0.25,64,160.0
3001,F#2,309.0,1/100,109,160.0
3002,B-2,309.5,0.5,90,160.0
3003,E-2,309.5,0.25,64,160.0
3004,B-3,309.5,0.25,64,160.0
3005,G3,309.5,0.25,64,160.0
3006,E-4,309.5,0.25,64,160.0
3007,E-3,309.5,0.25,64,160.0
3008,B-2,309.5,0.25,64,160.0
3009,F#2,309.5,1/100,109,160.0
3010,B1,309.5,1/100,109,160.0
3011,E-2,310.0,1.25,64,160.0
3012,C3,310.0,0.25,90,160.0
3013,E-4,310.0,1.0,64,160.0
3014,B-3,310.0,1.0,64,160.0
3015,G3,310.0,1.0,64,160.0
3016,F#2,310.0,1/100,109,160.0
3017,D2,310.0,1/100,109,160.0
3018,D4,310.0,0.5,95,160.0
3019,G4,310.0,0.5,95,160.0
3020,B-2,310.5,0.75,64,160.0
3021,F#2,310.5,1/100,109,160.0
3022,E-3,311.0,0.25,64,160.0
3023,B-2,311.0,1.0,90,160.0
3024,F#2,311.0,1/100,109,160.0
3025,F#2,311.5,1/100,109,160.0
3026,G3,311.5,0.5,64,160.0
3027,E-4,311.5,0.5,64,160.0
3028,B-3,311.5,0.5,64,160.0
3029,E-2,311.5,0.25,64,160.0
3030,E-3,311.5,0.25,64,160.0
3031,B-2,311.5,0.25,64,160.0
3032,E-2,312.0,1.25,64,160.0
3033,B-2,312.0,2.25,90,160.0
3034,C4,312.0,0.25,95,160.0
3035,G4,312.0,1.5,95,160.0
3036,G3,312.0,1.25,64,160.0
3037,E-4,312.0,1.25,64,160.0
3038,B-3,312.0,1.25,64,160.0
3039,F#2,312.0,1/100,109,160.0
3040,B1,312.0,1/100,109,160.0
3041,B-3,312.25,0.25,95,160.0
3042,B-2,312.5,0.75,64,160.0
3043,F#2,312.5,1/100,109,160.0
3044,G3,312.5,0.25,95,160.0
3045,E-3,312.75,2.0,95,160.0
3046,E-3,313.0,0.25,64,160.0
3047,F#2,313.0,1/100,109,160.0
3048,B-3,313.5,1.0,64,160.0
3049,E-4,313.5,1.25,64,160.0
3050,F3,313.5,1.5,64,160.0
3051,E-2,313.5,0.25,64,160.0
3052,E-3,313.5,0.25,64,160.0
3053,B-2,313.5,0.25,64,160.0
3054,F#2,313.5,1/100,109,160.0
3055,B1,313.5,1/100,109,160.0
3056,E-2,314.0,1.25,64,160.0
3057,F#2,314.0,1/100,109,160.0
3058,D2,314.0,1/100,109,160.0
3059,F4,314.0,0.5,95,160.0
3060,F#3,314.0,0.5,95,160.0
3061,B-2,314.5,0.75,64,160.0
3062,B-3,314.5,0.25,64,160.0
3063,F#2,314.5,1/100,109,160.0
3064,E-4,314.5,1.5,95,160.0
3065,G3,314.5,1.5,95,160.0
3066,F#2,314.917,0.125,90,160.0
3067,F3,315.0,0.75,64,160.0
3068,G2,315.0,0.25,90,160.0
3069,F#2,315.0,1/100,109,160.0
3070,B-3,315.0,0.5,64,160.0
3071,E-4,315.0,0.5,64,160.0
3072,C2,315.5,0.5,90,160.0
3073,F#2,315.5,1/100,109,160.0
3074,E-2,315.5,0.25,64,160.0
3075,E-3,315.5,0.25,64,160.0
3076,B-2,315.5,0.25,64,160.0
3077,F3,316.0,0.25,64,160.0
3078,E-2,316.0,1.25,64,160.0
3079,E-2,316.0,1.5,90,160.0
3080,E-4,316.0,4.0,95,160.0
3081,G3,316.0,4.0,95,160.0
3082,B-3,316.0,0.5,64,160.0
3083,E-4,316.0,0.5,64,160.0
3084,F#2,316.0,1/100,109,160.0
3085,B1,316.0,1/100,109,160.0
3086,B-2,316.5,0.75,64,160.0
3087,F#2,316.5,1/100,109,160.0
3088,B-3,316.5,0.25,64,160.0
3089,E-4,316.5,0.25,64,160.0
3090,G3,316.5,0.25,64,160.0
3091,E-3,317.0,0.25,64,160.0
3092,F#2,317.0,1/100,109,160.0
3093,B-2,317.5,0.5,90,160.0
3094,B-3,317.5,0.25,64,160.0
3095,E-4,317.5,0.25,64,160.0
3096,G3,317.5,0.25,64,160.0
3097,E-2,317.5,0.25,64,160.0
3098,B-2,317.5,0.25,64,160.0
3099,E-3,317.5,0.25,64,160.0
3100,F#2,317.5,1/100,109,160.0
3101,B1,317.5,1/100,109,160.0
3102,C3,318.0,0.25,90,160.0
3103,B-3,318.0,1.25,64,160.0
3104,E-4,318.0,1.25,64,160.0
3105,G3,318.0,1.25,64,160.0
3106,E-2,318.0,1.25,64,160.0
3107,F#2,318.0,1/100,109,160.0
3108,D2,318.0,1/100,109,160.0
3109,B-2,318.5,0.75,64,160.0
3110,F#2,318.5,1/100,109,160.0
3111,E-3,319.0,0.25,64,160.0
3112,B-2,319.0,1.0,90,160.0
3113,F#2,319.0,1/100,109,160.0
3114,F#2,319.5,1/100,109,160.0
3115,B-3,319.5,0.5,64,160.0
3116,G3,319.5,0.5,64,160.0
3117,E-4,319.5,0.5,64,160.0
3118,E-2,319.5,0.25,64,160.0
3119,E-3,319.5,0.25,64,160.0
3120,B-2,319.5,0.25,64,160.0
3121,B-2,320.0,2.25,90,160.0
3122,E-4,320.0,3.75,95,160.0
3123,G3,320.0,3.0,95,160.0
3124,B-3,320.0,1.25,64,160.0
3125,G3,320.0,1.25,64,160.0
3126,E-4,320.0,1.25,64,160.0
3127,E-2,320.0,1.25,64,160.0
3128,B-3,320.0,1.25,64,160.0
3129,G3,320.0,1.25,64,160.0
3130,E-4,320.0,1.25,64,160.0
3131,F#2,320.0,1/100,109,160.0
3132,B1,320.0,1/100,109,160.0
3133,B-2,320.5,0.75,64,160.0
3134,F#2,320.5,1/100,109,160.0
3135,E-3,321.0,0.25,64,160.0
3136,F#2,321.0,1/100,109,160.0
3137,E-2,321.5,0.25,64,160.0
3138,E-3,321.5,0.25,64,160.0
3139,B-2,321.5,0.25,64,160.0
3140,B-3,321.5,1.0,64,160.0
3141,E-4,321.5,1.0,64,160.0
3142,F3,321.5,1.0,64,160.0
3143,F#2,321.5,1/100,109,160.0
3144,B1,321.5,1/100,109,160.0
3145,E-2,322.0,1.25,64,160.0
3146,F#2,322.0,1/100,109,160.0
3147,D2,322.0,1/100,109,160.0
3148,B-2,322.5,0.75,64,160.0
3149,F#2,322.5,1/100,109,160.0
3150,F#2,322.917,0.125,90,160.0
3151,E-3,323.0,0.25,64,160.0
3152,G2,323.0,0.25,90,160.0
3153,F#2,323.0,1/100,109,160.0
3154,B-3,323.0,0.75,64,160.0
3155,E-4,323.0,0.75,64,160.0
3156,F3,323.0,0.75,64,160.0
3157,C2,323.5,0.5,90,160.0
3158,F#2,323.5,1/100,109,160.0
3159,E-2,323.5,0.25,64,160.0
3160,B-2,323.5,0.25,64,160.0
3161,E-3,323.5,0.25,64,160.0
3162,F3,324.0,0.5,64,160.0
3163,E-2,324.0,1.25,64,160.0
3164,E-2,324.0,1.5,90,160.0
3165,B-3,324.0,0.75,64,160.0
3166,E-4,324.0,0.75,64,160.0
3167,F#2,324.0,1/100,109,160.0
3168,B1,324.0,1/100,109,160.0
3169,E-4,324.0,0.5,95,160.0
3170,G4,324.0,0.5,95,160.0
3171,B-2,324.5,0.75,64,160.0
3172,G3,324.5,0.25,64,160.0
3173,F#2,324.5,1/100,109,160.0
3174,E-3,325.0,0.25,64,160.0
3175,F#2,325.0,1/100,109,160.0
3176,B-2,325.5,0.5,90,160.0
3177,E-2,325.5,0.25,64,160.0
3178,B-3,325.5,0.25,64,160.0
3179,G3,325.5,0.25,64,160.0
3180,E-4,325.5,0.25,64,160.0
3181,E-3,325.5,0.25,64,160.0
3182,B-2,325.5,0.25,64,160.0
3183,F#2,325.5,1/100,109,160.0
3184,B1,325.5,1/100,109,160.0
3185,E-2,326.0,1.25,64,160.0
3186,C3,326.0,0.25,90,160.0
3187,G4,326.0,0.5,95,160.0
3188,D4,326.0,0.75,95,160.0
3189,E-4,326.0,1.0,64,160.0
3190,B-3,326.0,1.0,64,160.0
3191,G3,326.0,1.0,64,160.0
3192,F#2,326.0,1/100,109,160.0
3193,D2,326.0,1/100,109,160.0
3194,B-2,326.5,0.75,64,160.0
3195,F#2,326.5,1/100,109,160.0
3196,E-3,327.0,0.25,64,160.0
3197,B-2,327.0,1.0,90,160.0
3198,F#2,327.0,1/100,109,160.0
3199,F#2,327.5,1/100,109,160.0
3200,G3,327.5,0.5,64,160.0
3201,E-4,327.5,0.5,64,160.0
3202,B-3,327.5,0.5,64,160.0
3203,E-2,327.5,0.25,64,160.0
3204,E-3,327.5,0.25,64,160.0
3205,B-2,327.5,0.25,64,160.0
3206,E-2,328.0,1.25,64,160.0
3207,B-2,328.0,2.25,90,160.0
3208,C4,328.0,0.25,95,160.0
3209,G4,328.0,1.5,95,160.0
3210,G3,328.0,1.25,64,160.0
3211,E-4,328.0,1.25,64,160.0
3212,B-3,328.0,1.25,64,160.0
3213,F#2,328.0,1/100,109,160.0
3214,B1,328.0,1/100,109,160.0
3215,B-3,328.25,0.25,95,160.0
3216,B-2,328.5,0.75,64,160.0
3217,F#2,328.5,1/100,109,160.0
3218,G3,328.5,0.25,95,160.0
3219,E-3,328.75,2.0,95,160.0
3220,E-3,329.0,0.25,64,160.0
3221,F#2,329.0,1/100,109,160.0
3222,B-3,329.5,1.0,64,160.0
3223,E-4,329.5,1.25,64,160.0
3224,F3,329.5,1.5,64,160.0
3225,E-2,329.5,0.25,64,160.0
3226,E-3,329.5,0.25,64,160.0
3227,B-2,329.5,0.25,64,160.0
3228,F#2,329.5,1/100,109,160.0
3229,B1,329.5,1/100,109,160.0
3230,E-2,330.0,1.25,64,160.0
3231,F#2,330.0,1/100,109,160.0
3232,D2,330.0,1/100,109,160.0
3233,F4,330.0,0.5,95,160.0
3234,F#3,330.0,0.5,95,160.0
3235,B-2,330.5,0.75,64,160.0
3236,B-3,330.5,0.25,64,160.0
3237,F#2,330.5,1/100,109,160.0
3238,E-4,330.5,1.5,95,160.0
3239,G3,330.5,1.5,95,160.0
3240,F#2,330.917,0.125,90,160.0
3241,F3,331.0,0.75,64,160.0
3242,G2,331.0,0.25,90,160.0
3243,F#2,331.0,1/100,109,160.0
3244,B-3,331.0,0.5,64,160.0
3245,E-4,331.0,0.5,64,160.0
3246,C2,331.5,0.5,90,160.0
3247,F#2,331.5,1/100,109,160.0
3248,E-2,331.5,0.25,64,160.0
3249,E-3,331.5,0.25,64,160.0
3250,B-2,331.5,0.25,64,160.0
3251,F3,332.0,0.25,64,160.0
3252,E-2,332.0,1.25,64,160.0
3253,E-2,332.0,1.5,90,160.0
3254,B-3,332.0,0.5,64,160.0
3255,E-4,332.0,0.5,64,160.0
3256,F#2,332.0,1/100,109,160.0
3257,B1,332.0,1/100,109,160.0
3258,E-4,332.0,4.0,95,160.0
3259,G3,332.0,4.0,95,160.0
3260,B-2,332.5,0.75,64,160.0
3261,F#2,332.5,1/100,109,160.0
3262,B-3,332.5,0.25,64,160.0
3263,E-4,332.5,0.25,64,160.0
3264,G3,332.5,0.25,64,160.0
3265,E-3,333.0,0.25,64,160.0
3266,F#2,333.0,1/100,109,160.0
3267,B-2,333.5,0.5,90,160.0
3268,B-3,333.5,0.25,64,160.0
3269,E-4,333.5,0.25,64,160.0
3270,G3,333.5,0.25,64,160.0
3271,E-2,333.5,0.25,64,160.0
3272,B-2,333.5,0.25,64,160.0
3273,E-3,333.5,0.25,64,160.0
3274,F#2,333.5,1/100,109,160.0
3275,B1,333.5,1/100,109,160.0
3276,C3,334.0,0.25,90,160.0
3277,B-3,334.0,1.25,64,160.0
3278,E-4,334.0,1.25,64,160.0
3279,G3,334.0,1.25,64,160.0
3280,E-2,334.0,1.25,64,160.0
3281,F#2,334.0,1/100,109,160.0
3282,D2,334.0,1/100,109,160.0
3283,B-2,334.5,0.75,64,160.0
3284,F#2,334.5,1/100,109,160.0
3285,E-3,335.0,0.25,64,160.0
3286,B-2,335.0,1.0,90,160.0
3287,F#2,335.0,1/100,109,160.0
3288,F#2,335.5,1/100,109,160.0
3289,B-3,335.5,0.5,64,160.0
3290,G3,335.5,0.5,64,160.0
3291,E-4,335.5,0.5,64,160.0
3292,E-2,335.5,0.25,64,160.0
3293,E-3,335.5,0.25,64,160.0
3294,B-2,335.5,0.25,64,160.0
3295,B-2,336.0,2.25,90,160.0
3296,B-3,336.0,1.25,64,160.0
3297,G3,336.0,1.25,64,160.0
3298,E-4,336.0,1.25,64,160.0
3299,E-2,336.0,1.25,64,160.0
3300,B-3,336.0,1.25,64,160.0
3301,G3,336.0,1.25,64,160.0
3302,E-4,336.0,1.25,64,160.0
3303,F#2,336.0,1/100,109,160.0
3304,B1,336.0,1/100,109,160.0
3305,E-4,336.0,1.75,95,160.0
3306,G3,336.0,1.75,95,160.0
3307,B-2,336.5,0.75,64,160.0
3308,F#2,336.5,1/100,109,160.0
3309,E-3,337.0,0.25,64,160.0
3310,F#2,337.0,1/100,109,160.0
3311,E-2,337.5,0.25,64,160.0
3312,E-3,337.5,0.25,64,160.0
3313,B-2,337.5,0.25,64,160.0
3314,B-3,337.5,1.0,64,160.0
3315,E-4,337.5,1.0,64,160.0
3316,F3,337.5,1.0,64,160.0
3317,F#2,337.5,1/100,109,160.0
3318,B1,337.5,1/100,109,160.0
3319,E-2,338.0,1.25,64,160.0
3320,E-4,338.0,99/100,95,160.0
3321,F3,338.0,0.5,95,160.0
3322,F#2,338.0,1/100,109,160.0
3323,D2,338.0,1/100,109,160.0
3324,B-2,338.5,0.75,64,160.0
3325,F#2,338.5,1/100,109,160.0
3326,G3,338.5,0.5,95,160.0
3327,F#2,338.917,0.125,90,160.0
3328,E-3,339.0,0.25,64,160.0
3329,G2,339.0,0.25,90,160.0
3330,B-3,339.0,0.5,95,160.0
3331,B-3,339.0,0.75,64,160.0
3332,E-4,339.0,0.75,64,160.0
3333,F3,339.0,0.75,64,160.0
3334,F#2,339.0,1/100,109,160.0
3335,D2,339.0,1/100,109,160.0
3336,C2,339.5,0.5,90,160.0
3337,E-4,339.5,0.5,95,160.0
3338,E-2,339.5,0.25,64,160.0
3339,B-2,339.5,0.25,64,160.0
3340,E-3,339.5,0.25,64,160.0
3341,F#2,339.5,1/100,109,160.0
3342,D2,339.5,1/100,109,160.0
3343,C4,340.0,0.5,64,160.0
3344,B-2,340.0,1.25,64,160.0
3345,B-1,340.0,1.5,90,160.0
3346,F4,340.0,0.75,64,160.0
3347,B-4,340.0,0.75,64,160.0
3348,F#2,340.0,1/100,109,160.0
3349,B1,340.0,1/100,109,160.0
3350,C#3,340.0,1/100,109,160.0
3351,F3,340.0,4.0,95,160.0
3352,D4,340.0,4.0,95,160.0
3353,F3,340.5,0.75,64,160.0
3354,D4,340.5,0.25,64,160.0
3355,F#2,340.5,1/100,109,160.0
3356,B-3,341.0,0.25,64,160.0
3357,F#2,341.0,1/100,109,160.0
3358,F2,341.5,0.5,90,160.0
3359,B-2,341.5,0.25,64,160.0
3360,F4,341.5,0.25,64,160.0
3361,D4,341.5,0.25,64,160.0
3362,B-4,341.5,0.25,64,160.0
3363,B-3,341.5,0.25,64,160.0
3364,F3,341.5,0.25,64,160.0
3365,F#2,341.5,1/100,109,160.0
3366,B1,341.5,1/100,109,160.0
3367,B-2,342.0,1.25,64,160.0
3368,G2,342.0,0.25,90,160.0
3369,B-4,342.0,1.0,64,160.0
3370,F4,342.0,1.0,64,160.0
3371,D4,342.0,1.0,64,160.0
3372,F#2,342.0,1/100,109,160.0
3373,D2,342.0,1/100,109,160.0
3374,F3,342.5,0.75,64,160.0
3375,F#2,342.5,1/100,109,160.0
3376,B-3,343.0,0.25,64,160.0
3377,F2,343.0,1.0,90,160.0
3378,F#2,343.0,1/100,109,160.0
3379,F#2,343.5,1/100,109,160.0
3380,D4,343.5,0.5,64,160.0
3381,B-4,343.5,0.5,64,160.0
3382,F4,343.5,0.5,64,160.0
3383,B-2,343.5,0.25,64,160.0
3384,B-3,343.5,0.25,64,160.0
3385,F3,343.5,0.25,64,160.0
3386,B-2,344.0,1.25,64,160.0
3387,F2,344.0,2.25,90,160.0
3388,D4,344.0,1.25,64,160.0
3389,B-4,344.0,1.25,64,160.0
3390,F4,344.0,1.25,64,160.0
3391,F#2,344.0,1/100,109,160.0
3392,B1,344.0,1/100,109,160.0
3393,F3,344.5,0.75,64,160.0
3394,F#2,344.5,1/100,109,160.0
3395,B-3,345.0,0.25,64,160.0
3396,F#2,345.0,1/100,109,160.0
3397,F4,345.5,1.0,64,160.0
3398,B-4,345.5,1.25,64,160.0
3399,C4,345.5,1.5,64,160.0
3400,B-2,345.5,0.25,64,160.0
3401,B-3,345.5,0.25,64,160.0
3402,F3,345.5,0.25,64,160.0
3403,F#2,345.5,1/100,109,160.0
3404,B1,345.5,1/100,109,160.0
3405,B-2,346.0,1.25,64,160.0
3406,F#2,346.0,1/100,109,160.0
3407,D2,346.0,1/100,109,160.0
3408,F3,346.0,2.0,95,160.0
3409,D4,346.0,2.0,95,160.0
3410,F3,346.5,0.75,64,160.0
3411,F4,346.5,0.25,64,160.0
3412,F#2,346.5,1/100,109,160.0
3413,C#2,346.917,0.125,90,160.0
3414,C4,347.0,0.75,64,160.0
3415,D2,347.0,0.25,90,160.0
3416,F#2,347.0,1/100,109,160.0
3417,F4,347.0,0.5,64,160.0
3418,B-4,347.0,0.5,64,160.0
3419,G1,347.5,0.5,90,160.0
3420,F#2,347.5,1/100,109,160.0
3421,B-2,347.5,0.25,64,160.0
3422,B-3,347.5,0.25,64,160.0
3423,F3,347.5,0.25,64,160.0
3424,C4,348.0,0.25,64,160.0
3425,B-2,348.0,1.25,64,160.0
3426,B-1,348.0,1.5,90,160.0
3427,D4,348.0,0.75,95,160.0
3428,E-3,348.0,0.5,95,160.0
3429,F4,348.0,0.5,64,160.0
3430,B-4,348.0,0.5,64,160.0
3431,F#2,348.0,1/100,109,160.0
3432,B1,348.0,1/100,109,160.0
3433,F3,348.5,0.75,64,160.0
3434,F#2,348.5,1/100,109,160.0
3435,F4,348.5,0.25,64,160.0
3436,B-4,348.5,0.25,64,160.0
3437,D4,348.5,0.25,64,160.0
3438,C4,348.5,0.5,95,160.0
3439,D3,348.5,0.5,95,160.0
3440,B-3,349.0,0.25,64,160.0
3441,F#2,349.0,1/100,109,160.0
3442,B-3,349.0,0.5,95,160.0
3443,C3,349.0,0.5,95,160.0
3444,F2,349.5,0.5,90,160.0
3445,G#3,349.5,0.5,95,160.0
3446,B-2,349.5,0.5,95,160.0
3447,F4,349.5,0.25,64,160.0
3448,B-4,349.5,0.25,64,160.0
3449,D4,349.5,0.25,64,160.0
3450,B-2,349.5,0.25,64,160.0
3451,F3,349.5,0.25,64,160.0
3452,B-3,349.5,0.25,64,160.0
3453,F#2,349.5,1/100,109,160.0
3454,B1,349.5,1/100,109,160.0
3455,G2,350.0,0.25,90,160.0
3456,G#3,350.0,4.0,95,160.0
3457,B-2,350.0,4.0,95,160.0
3458,F4,350.0,1.25,64,160.0
3459,B-4,350.0,1.25,64,160.0
3460,D4,350.0,1.25,64,160.0
3461,B-2,350.0,1.25,64,160.0
3462,F#2,350.0,1/100,109,160.0
3463,D2,350.0,1/100,109,160.0
3464,F3,350.5,0.75,64,160.0
3465,F#2,350.5,1/100,109,160.0
3466,B-3,351.0,0.25,64,160.0
3467,F2,351.0,1.0,90,160.0
3468,F#2,351.0,1/100,109,160.0
3469,F#2,351.5,1/100,109,160.0
3470,F4,351.5,0.5,64,160.0
3471,D4,351.5,0.5,64,160.0
3472,B-4,351.5,0.5,64,160.0
3473,B-2,351.5,0.25,64,160.0
3474,B-3,351.5,0.25,64,160.0
3475,F3,351.5,0.25,64,160.0
3476,F2,352.0,1.0,90,160.0
3477,F4,352.0,1.25,64,160.0
3478,D4,352.0,1.25,64,160.0
3479,B-4,352.0,1.25,64,160.0
3480,B-2,352.0,1.25,64,160.0
3481,F4,352.0,1.25,64,160.0
3482,D4,352.0,1.25,64,160.0
3483,B-4,352.0,1.25,64,160.0
3484,F#2,352.0,1/100,109,160.0
3485,B1,352.0,1/100,109,160.0
3486,F3,352.5,0.75,64,160.0
3487,F#2,352.5,1/100,109,160.0
3488,B-3,353.0,0.25,64,160.0
3489,B-1,353.0,1.0,90,160.0
3490,F#2,353.0,1/100,109,160.0
3491,B-2,353.5,0.25,64,160.0
3492,B-3,353.5,0.25,64,160.0
3493,F3,353.5,0.25,64,160.0
3494,F4,353.5,1.0,64,160.0
3495,B-4,353.5,1.0,64,160.0
3496,C4,353.5,1.0,64,160.0
3497,F#2,353.5,1/100,109,160.0
3498,B1,353.5,1/100,109,160.0
3499,B-2,354.0,1.25,64,160.0
3500,C2,354.0,1.0,90,160.0
3501,G#3,354.0,2.5,95,160.0
3502,B-2,354.0,3.0,95,160.0
3503,F#2,354.0,1/100,109,160.0
3504,D2,354.0,1/100,109,160.0
3505,F3,354.5,0.75,64,160.0
3506,F#2,354.5,1/100,109,160.0
3507,B-3,355.0,0.25,64,160.0
3508,D2,355.0,1.0,90,160.0
3509,F4,355.0,0.75,64,160.0
3510,B-4,355.0,0.75,64,160.0
3511,C4,355.0,0.75,64,160.0
3512,F#2,355.0,1/100,109,160.0
3513,D2,355.0,1/100,109,160.0
3514,B-2,355.5,0.25,64,160.0
3515,F3,355.5,0.25,64,160.0
3516,B-3,355.5,0.25,64,160.0
3517,F#2,355.5,1/100,109,160.0
3518,D2,355.5,1/100,109,160.0
3519,F3,356.0,0.5,64,160.0
3520,E-2,356.0,1.25,64,160.0
3521,E-2,356.0,1.5,90,160.0
3522,B-3,356.0,0.75,64,160.0
3523,E-4,356.0,0.75,64,160.0
3524,F#2,356.0,1/100,109,160.0
3525,B1,356.0,1/100,109,160.0
3526,C#3,356.0,1/100,109,160.0
3527,B-2,356.5,0.75,64,160.0
3528,G3,356.5,0.25,64,160.0
3529,F#2,356.5,1/100,109,160.0
3530,E-3,357.0,0.25,64,160.0
3531,F#2,357.0,1/100,109,160.0
3532,B-2,357.5,0.5,90,160.0
3533,E-2,357.5,0.25,64,160.0
3534,B-3,357.5,0.25,64,160.0
3535,G3,357.5,0.25,64,160.0
3536,E-4,357.5,0.25,64,160.0
3537,E-3,357.5,0.25,64,160.0
3538,B-2,357.5,0.25,64,160.0
3539,F#2,357.5,1/100,109,160.0
3540,B1,357.5,1/100,109,160.0
3541,E-2,358.0,1.25,64,160.0
3542,C3,358.0,0.25,90,160.0
3543,E-4,358.0,1.0,64,160.0
3544,B-3,358.0,1.0,64,160.0
3545,G3,358.0,1.0,64,160.0
3546,F#2,358.0,1/100,109,160.0
3547,D2,358.0,1/100,109,160.0
3548,E-4,358.0,271/500,95,160.0
3549,G4,358.0,271/500,95,160.0
3550,B-2,358.5,0.75,64,160.0
3551,F#2,358.5,1/100,109,160.0
3552,E-3,359.0,0.25,64,160.0
3553,B-2,359.0,1.0,90,160.0
3554,F#2,359.0,1/100,109,160.0
3555,F#2,359.5,1/100,109,160.0
3556,G3,359.5,0.5,64,160.0
3557,E-4,359.5,0.5,64,160.0
3558,B-3,359.5,0.5,64,160.0
3559,E-2,359.5,0.25,64,160.0
3560,E-3,359.5,0.25,64,160.0
3561,B-2,359.5,0.25,64,160.0
3562,E-2,360.0,1.25,64,160.0
3563,B-2,360.0,2.25,90,160.0
3564,D4,360.0,271/500,95,160.0
3565,G4,360.0,0.688,95,160.0
3566,G3,360.0,1.25,64,160.0
3567,E-4,360.0,1.25,64,160.0
3568,B-3,360.0,1.25,64,160.0
3569,F#2,360.0,1/100,109,160.0
3570,B1,360.0,1/100,109,160.0
3571,B-2,360.5,0.75,64,160.0
3572,F#2,360.5,1/100,109,160.0
3573,E-3,361.0,0.25,64,160.0
3574,F#2,361.0,1/100,109,160.0
3575,B-3,361.5,1.0,64,160.0
3576,E-4,361.5,1.25,64,160.0
3577,F3,361.5,1.5,64,160.0
3578,E-2,361.5,0.25,64,160.0
3579,E-3,361.5,0.25,64,160.0
3580,B-2,361.5,0.25,64,160.0
3581,F#2,361.5,1/100,109,160.0
3582,B1,361.5,1/100,109,160.0
3583,E-2,362.0,1.25,64,160.0
3584,C4,362.0,0.25,95,160.0
3585,G4,362.0,1.0,95,160.0
3586,F#2,362.0,1/100,109,160.0
3587,D2,362.0,1/100,109,160.0
3588,B-3,362.25,0.25,95,160.0
3589,B-2,362.5,0.75,64,160.0
3590,B-3,362.5,0.25,64,160.0
3591,F#2,362.5,1/100,109,160.0
3592,G3,362.5,0.25,95,160.0
3593,E-3,362.75,1.25,95,160.0
3594,F#2,362.917,0.125,90,160.0
3595,F3,363.0,0.75,64,160.0
3596,G2,363.0,0.25,90,160.0
3597,F#2,363.0,1/100,109,160.0
3598,B-3,363.0,0.5,64,160.0
3599,E-4,363.0,0.5,64,160.0
3600,C2,363.5,0.5,90,160.0
3601,F#2,363.5,1/100,109,160.0
3602,E-2,363.5,0.25,64,160.0
3603,E-3,363.5,0.25,64,160.0
3604,B-2,363.5,0.25,64,160.0
3605,F3,364.0,0.25,64,160.0
3606,E-2,364.0,1.25,64,160.0
3607,E-2,364.0,1.5,90,160.0
3608,B-3,364.0,0.5,64,160.0
3609,E-4,364.0,0.5,64,160.0
3610,F#2,364.0,1/100,109,160.0
3611,B1,364.0,1/100,109,160.0
3612,F#3,364.0,0.5,95,160.0
3613,F4,364.0,0.5,95,160.0
3614,B-2,364.5,0.75,64,160.0
3615,F#2,364.5,1/100,109,160.0
3616,B-3,364.5,0.25,64,160.0
3617,E-4,364.5,0.25,64,160.0
3618,G3,364.5,0.25,64,160.0
3619,G3,364.5,1.5,95,160.0
3620,E-4,364.5,1.5,95,160.0
3621,E-3,365.0,0.25,64,160.0
3622,F#2,365.0,1/100,109,160.0
3623,B-2,365.5,0.5,90,160.0
3624,B-3,365.5,0.25,64,160.0
3625,E-4,365.5,0.25,64,160.0
3626,G3,365.5,0.25,64,160.0
3627,E-2,365.5,0.25,64,160.0
3628,B-2,365.5,0.25,64,160.0
3629,E-3,365.5,0.25,64,160.0
3630,F#2,365.5,1/100,109,160.0
3631,B1,365.5,1/100,109,160.0
3632,C3,366.0,0.25,90,160.0
3633,B-3,366.0,1.25,64,160.0
3634,E-4,366.0,1.25,64,160.0
3635,G3,366.0,1.25,64,160.0
3636,E-2,366.0,1.25,64,160.0
3637,F#2,366.0,1/100,109,160.0
3638,D2,366.0,1/100,109,160.0
3639,B-2,366.5,0.75,64,160.0
3640,F#2,366.5,1/100,109,160.0
3641,E-3,367.0,0.25,64,160.0
3642,B-2,367.0,1.0,90,160.0
3643,F#2,367.0,1/100,109,160.0
3644,F#2,367.5,1/100,109,160.0
3645,B-3,367.5,0.5,64,160.0
3646,G3,367.5,0.5,64,160.0
3647,E-4,367.5,0.5,64,160.0
3648,E-2,367.5,0.25,64,160.0
3649,E-3,367.5,0.25,64,160.0
3650,B-2,367.5,0.25,64,160.0
3651,B-2,368.0,2.25,90,160.0
3652,B-3,368.0,1.25,64,160.0
3653,G3,368.0,1.25,64,160.0
3654,E-4,368.0,1.25,64,160.0
3655,E-2,368.0,1.25,64,160.0
3656,B-3,368.0,1.25,64,160.0
3657,G3,368.0,1.25,64,160.0
3658,E-4,368.0,1.25,64,160.0
3659,F#2,368.0,1/100,109,160.0
3660,B1,368.0,1/100,109,160.0
3661,B-2,368.5,0.75,64,160.0
3662,F#2,368.5,1/100,109,160.0
3663,E-3,369.0,0.25,64,160.0
3664,F#2,369.0,1/100,109,160.0
3665,E-2,369.5,0.25,64,160.0
3666,E-3,369.5,0.25,64,160.0
3667,B-2,369.5,0.25,64,160.0
3668,B-3,369.5,1.0,64,160.0
3669,E-4,369.5,1.0,64,160.0
3670,F3,369.5,1.0,64,160.0
3671,F#2,369.5,1/100,109,160.0
3672,B1,369.5,1/100,109,160.0
3673,E-2,370.0,1.25,64,160.0
3674,F#2,370.0,1/100,109,160.0
3675,D2,370.0,1/100,109,160.0
3676,B-2,370.5,0.75,64,160.0
3677,F#2,370.5,1/100,109,160.0
3678,F#2,370.917,0.125,90,160.0
3679,E-3,371.0,0.25,64,160.0
3680,G2,371.0,0.25,90,160.0
3681,B-3,371.0,0.75,64,160.0
3682,E-4,371.0,0.75,64,160.0
3683,F3,371.0,0.75,64,160.0
3684,F#2,371.0,1/100,109,160.0
3685,D2,371.0,1/100,109,160.0
3686,B-2,371.5,0.5,64,160.0
3687,D2,371.5,0.5,90,160.0
3688,D2,371.5,0.25,64,160.0
3689,G3,371.5,0.25,64,160.0
3690,F#2,371.5,1/100,109,160.0
3691,D2,371.5,1/100,109,160.0
3692,G4,372.0,1.25,64,160.0
3693,G2,372.0,1.0,64,160.0
3694,B-2,372.0,0.75,64,160.0
3695,G2,372.0,3.25,90,160.0
3696,F#2,372.0,1/100,109,160.0
3697,B1,372.0,1/100,109,160.0
3698,C#3,372.0,1/100,109,160.0
3699,F#2,372.5,1/100,109,160.0
3700,F#2,373.0,1/100,109,160.0
3701,B-3,373.0,0.5,64,160.0
3702,D3,373.0,0.5,64,160.0
3703,G3,373.25,4.0,95,160.0
3704,E-4,373.25,4.0,95,160.0
3705,C4,373.5,0.75,64,160.0
3706,A4,373.5,1.0,64,160.0
3707,G3,373.5,0.25,64,160.0
3708,F#2,373.5,1/100,109,160.0
3709,B1,373.5,1/100,109,160.0
3710,F#2,374.0,1/100,109,160.0
3711,D2,374.0,1/100,109,160.0
3712,C4,374.5,0.5,64,160.0
3713,D3,374.5,0.25,64,160.0
3714,F#2,374.5,1/100,109,160.0
3715,G2,375.0,1.0,64,160.0
3716,D4,375.0,1.0,64,160.0
3717,B-4,375.0,1.0,64,160.0
3718,F#2,375.0,1/100,109,160.0
3719,D2,375.5,0.25,90,160.0
3720,F#2,375.5,1/100,109,160.0
3721,G2,376.0,1.5,64,160.0
3722,D4,376.0,3.5,64,160.0
3723,B-4,376.0,3.75,64,160.0
3724,D2,376.0,0.5,90,160.0
3725,F#2,376.0,1/100,109,160.0
3726,B1,376.0,1/100,109,160.0
3727,F#2,376.5,1/100,109,160.0
3728,G2,377.0,2.0,90,160.0
3729,F#2,377.0,1/100,109,160.0
3730,G3,377.25,3.25,95,160.0
3731,E-4,377.25,3.25,95,160.0
3732,D3,377.5,0.5,64,160.0
3733,F#2,377.5,1/100,109,160.0
3734,B1,377.5,1/100,109,160.0
3735,G3,378.0,1.0,64,160.0
3736,F#2,378.0,1/100,109,160.0
3737,D2,378.0,1/100,109,160.0
3738,F#2,378.5,1/100,109,160.0
3739,D3,379.0,0.25,64,160.0
3740,D2,379.0,0.5,90,160.0
3741,F#2,379.0,1/100,109,160.0
3742,G2,379.5,0.5,64,160.0
3743,G2,379.5,0.25,90,160.0
3744,F#2,379.5,1/100,109,160.0
3745,B-3,379.75,0.25,54,160.0
3746,B-3,379.75,0.25,54,160.0
3747,B-3,380.0,1.5,64,160.0
3748,G#2,380.0,3.5,90,160.0
3749,D4,380.0,4.0,54,160.0
3750,B-3,380.0,4.0,54,160.0
3751,G4,380.0,4.0,54,160.0
3752,D4,380.0,4.0,54,160.0
3753,B-3,380.0,4.0,54,160.0
3754,G4,380.0,4.0,54,160.0
3755,E-4,380.0,1.25,64,160.0
3756,G#4,380.0,1.25,64,160.0
3757,G#2,380.0,1.25,64,160.0
3758,F#2,380.0,1/100,109,160.0
3759,B1,380.0,1/100,109,160.0
3760,F#2,380.5,1/100,109,160.0
3761,E-3,381.0,0.5,64,160.0
3762,F#2,381.0,1/100,109,160.0
3763,C4,381.5,1.0,64,160.0
3764,G#4,381.5,1.0,64,160.0
3765,E-4,381.5,1.0,64,160.0
3766,G#3,381.5,1.0,64,160.0
3767,F#2,381.5,1/100,109,160.0
3768,B1,381.5,1/100,109,160.0
3769,F#2,382.0,1/100,109,160.0
3770,D2,382.0,1/100,109,160.0
3771,E-3,382.5,0.5,64,160.0
3772,F#2,382.5,1/100,109,160.0
3773,G#2,383.0,1.0,64,160.0
3774,F#2,383.0,1/100,109,160.0
3775,B-3,383.0,1.0,64,160.0
3776,E-4,383.0,1.0,64,160.0
3777,G#4,383.0,1.0,64,160.0
3778,E-2,383.5,0.25,90,160.0
3779,F#2,383.5,1/100,109,160.0
3780,G#2,384.0,1.5,64,160.0
3781,E-2,384.0,0.5,90,160.0
3782,C4,384.0,4.0,54,160.0
3783,B-3,384.0,7.5,54,160.0
3784,G4,384.0,0.25,54,160.0
3785,C4,384.0,4.0,54,160.0
3786,B-3,384.0,7.5,54,160.0
3787,G4,384.0,0.25,54,160.0
3788,B-3,384.0,0.25,64,160.0
3789,E-4,384.0,0.25,64,160.0
3790,G#4,384.0,0.25,64,160.0
3791,F#2,384.0,1/100,109,160.0
3792,B1,384.0,1/100,109,160.0
3793,G#4,384.0,4.0,54,160.0
3794,E-4,384.0,4.0,54,160.0
3795,G#4,384.0,4.0,54,160.0
3796,E-4,384.0,4.0,54,160.0
3797,F#2,384.5,1/100,109,160.0
3798,G#4,384.5,1.25,64,160.0
3799,E-4,384.5,1.25,64,160.0
3800,C4,384.5,1.25,64,160.0
3801,G#2,385.0,1.75,90,160.0
3802,F#2,385.0,1/100,109,160.0
3803,E-3,385.5,0.5,64,160.0
3804,F#2,385.5,1/100,109,160.0
3805,B1,385.5,1/100,109,160.0
3806,G#3,386.0,1.0,64,160.0
3807,B-3,386.0,0.75,64,160.0
3808,G#4,386.0,0.75,64,160.0
3809,E-4,386.0,0.75,64,160.0
3810,F#2,386.0,1/100,109,160.0
3811,D2,386.0,1/100,109,160.0
3812,F#2,386.5,1/100,109,160.0
3813,G2,387.0,0.5,90,160.0
3814,F#2,387.0,1/100,109,160.0
3815,G#4,387.0,0.5,64,160.0
3816,E-4,387.0,0.5,64,160.0
3817,C4,387.0,0.5,64,160.0
3818,E-3,387.0,0.5,64,160.0
3819,G#2,387.5,0.5,64,160.0
3820,F2,387.5,0.5,90,160.0
3821,F#2,387.5,1/100,109,160.0
3822,F3,388.0,0.5,64,160.0
3823,E-2,388.0,1.25,64,160.0
3824,E-2,388.0,1.5,90,160.0
3825,B-3,388.0,0.75,64,160.0
3826,E-4,388.0,0.75,64,160.0
3827,F#2,388.0,1/100,109,160.0
3828,B1,388.0,1/100,109,160.0
3829,C#3,388.0,1/100,109,160.0
3830,B-2,388.5,0.75,64,160.0
3831,G3,388.5,0.25,64,160.0
3832,F#2,388.5,1/100,109,160.0
3833,E-3,389.0,0.25,64,160.0
3834,F#2,389.0,1/100,109,160.0
3835,B-2,389.5,0.5,90,160.0
3836,E-2,389.5,0.25,64,160.0
3837,B-3,389.5,0.25,64,160.0
3838,G3,389.5,0.25,64,160.0
3839,E-4,389.5,0.25,64,160.0
3840,E-3,389.5,0.25,64,160.0
3841,B-2,389.5,0.25,64,160.0
3842,F#2,389.5,1/100,109,160.0
3843,B1,389.5,1/100,109,160.0
3844,E-2,390.0,1.25,64,160.0
3845,C3,390.0,0.25,90,160.0
3846,E-4,390.0,1.0,64,160.0
3847,B-3,390.0,1.0,64,160.0
3848,G3,390.0,1.0,64,160.0
3849,F#2,390.0,1/100,109,160.0
3850,D2,390.0,1/100,109,160.0
3851,B-2,390.5,0.75,64,160.0
3852,F#2,390.5,1/100,109,160.0
3853,E-3,391.0,0.25,64,160.0
3854,B-2,391.0,1.0,90,160.0
3855,F#2,391.0,1/100,109,160.0
3856,F#2,391.5,1/100,109,160.0
3857,G3,391.5,0.5,64,160.0
3858,E-4,391.5,0.5,64,160.0
3859,B-3,391.5,0.5,64,160.0
3860,E-2,391.5,0.25,64,160.0
3861,E-3,391.5,0.25,64,160.0
3862,B-2,391.5,0.25,64,160.0
3863,E-2,392.0,1.25,64,160.0
3864,B-2,392.0,2.25,90,160.0
3865,C4,392.0,3.75,54,160.0
3866,C4,392.0,3.75,54,160.0
3867,G3,392.0,1.25,64,160.0
3868,E-4,392.0,1.25,64,160.0
3869,B-3,392.0,1.25,64,160.0
3870,F#2,392.0,1/100,109,160.0
3871,B1,392.0,1/100,109,160.0
3872,G#4,392.0,4.0,54,160.0
3873,E-4,392.0,4.0,54,160.0
3874,G#4,392.0,4.0,54,160.0
3875,E-4,392.0,4.0,54,160.0
3876,B-2,392.5,0.75,64,160.0
3877,F#2,392.5,1/100,109,160.0
3878,E-3,393.0,0.25,64,160.0
3879,F#2,393.0,1/100,109,160.0
3880,B-3,393.5,1.0,64,160.0
3881,E-4,393.5,1.25,64,160.0
3882,F3,393.5,1.5,64,160.0
3883,E-2,393.5,0.25,64,160.0
3884,E-3,393.5,0.25,64,160.0
3885,B-2,393.5,0.25,64,160.0
3886,F#2,393.5,1/100,109,160.0
3887,B1,393.5,1/100,109,160.0
3888,E-2,394.0,1.25,64,160.0
3889,F#2,394.0,1/100,109,160.0
3890,D2,394.0,1/100,109,160.0
3891,B-2,394.5,0.75,64,160.0
3892,B-3,394.5,0.25,64,160.0
3893,F#2,394.5,1/100,109,160.0
3894,F#2,394.917,0.125,90,160.0
3895,F3,395.0,0.75,64,160.0
3896,G2,395.0,0.25,90,160.0
3897,F#2,395.0,1/100,109,160.0
3898,B-3,395.0,0.5,64,160.0
3899,E-4,395.0,0.5,64,160.0
3900,C2,395.5,0.5,90,160.0
3901,F#2,395.5,1/100,109,160.0
3902,E-2,395.5,0.25,64,160.0
3903,E-3,395.5,0.25,64,160.0
3904,B-2,395.5,0.25,64,160.0
3905,F3,396.0,0.25,64,160.0
3906,E-2,396.0,1.25,64,160.0
3907,E-2,396.0,1.5,90,160.0
3908,B-3,396.0,0.5,64,160.0
3909,E-4,396.0,0.5,64,160.0
3910,F#2,396.0,1/100,109,160.0
3911,B1,396.0,1/100,109,160.0
3912,G4,396.0,4.0,54,160.0
3913,B-3,396.0,4.0,54,160.0
3914,E-4,396.0,4.0,54,160.0
3915,G4,396.0,4.0,54,160.0
3916,B-3,396.0,4.0,54,160.0
3917,E-4,396.0,4.0,54,160.0
3918,B-2,396.5,0.75,64,160.0
3919,F#2,396.5,1/100,109,160.0
3920,B-3,396.5,0.25,64,160.0
3921,E-4,396.5,0.25,64,160.0
3922,G3,396.5,0.25,64,160.0
3923,E-3,397.0,0.25,64,160.0
3924,F#2,397.0,1/100,109,160.0
3925,B-2,397.5,0.5,90,160.0
3926,B-3,397.5,0.25,64,160.0
3927,E-4,397.5,0.25,64,160.0
3928,G3,397.5,0.25,64,160.0
3929,E-2,397.5,0.25,64,160.0
3930,B-2,397.5,0.25,64,160.0
3931,E-3,397.5,0.25,64,160.0
3932,F#2,397.5,1/100,109,160.0
3933,B1,397.5,1/100,109,160.0
3934,C3,398.0,0.25,90,160.0
3935,B-3,398.0,1.25,64,160.0
3936,E-4,398.0,1.25,64,160.0
3937,G3,398.0,1.25,64,160.0
3938,E-2,398.0,1.25,64,160.0
3939,F#2,398.0,1/100,109,160.0
3940,D2,398.0,1/100,109,160.0
3941,B-2,398.5,0.75,64,160.0
3942,F#2,398.5,1/100,109,160.0
3943,E-3,399.0,0.25,64,160.0
3944,B-2,399.0,1.0,90,160.0
3945,F#2,399.0,1/100,109,160.0
3946,F#2,399.5,1/100,109,160.0
3947,B-3,399.5,0.5,64,160.0
3948,G3,399.5,0.5,64,160.0
3949,E-4,399.5,0.5,64,160.0
3950,E-2,399.5,0.25,64,160.0
3951,E-3,399.5,0.25,64,160.0
3952,B-2,399.5,0.25,64,160.0
3953,B-2,400.0,2.25,90,160.0
3954,B-3,400.0,1.25,64,160.0
3955,G3,400.0,1.25,64,160.0
3956,E-4,400.0,1.25,64,160.0
3957,E-2,400.0,1.25,64,160.0
3958,B-3,400.0,1.25,64,160.0
3959,G3,400.0,1.25,64,160.0
3960,E-4,400.0,1.25,64,160.0
3961,F#2,400.0,1/100,109,160.0
3962,B1,400.0,1/100,109,160.0
3963,B-2,400.5,0.75,64,160.0
3964,F#2,400.5,1/100,109,160.0
3965,E-3,401.0,0.25,64,160.0
3966,F#2,401.0,1/100,109,160.0
3967,E-2,401.5,0.25,64,160.0
3968,E-3,401.5,0.25,64,160.0
3969,B-2,401.5,0.25,64,160.0
3970,B-3,401.5,1.0,64,160.0
3971,E-4,401.5,1.0,64,160.0
3972,F3,401.5,1.0,64,160.0
3973,F#2,401.5,1/100,109,160.0
3974,B1,401.5,1/100,109,160.0
3975,E-2,402.0,1.25,64,160.0
3976,F#2,402.0,1/100,109,160.0
3977,D2,402.0,1/100,109,160.0
3978,B-2,402.5,0.75,64,160.0
3979,F#2,402.5,1/100,109,160.0
3980,F#2,402.917,0.125,90,160.0
3981,E-3,403.0,0.25,64,160.0
3982,G2,403.0,0.25,90,160.0
3983,B-3,403.0,0.75,64,160.0
3984,E-4,403.0,0.75,64,160.0
3985,F3,403.0,0.75,64,160.0
3986,F#2,403.0,1/100,109,160.0
3987,D2,403.0,1/100,109,160.0
3988,B-2,403.5,0.5,64,160.0
3989,D2,403.5,0.5,90,160.0
3990,G2,403.5,0.25,64,160.0
3991,D2,403.5,0.25,64,160.0
3992,F#2,403.5,1/100,109,160.0
3993,D2,403.5,1/100,109,160.0
3994,G4,404.0,1.25,64,160.0
3995,G2,404.0,1.0,64,160.0
3996,B-2,404.0,0.75,64,160.0
3997,G2,404.0,3.25,90,160.0
3998,F#2,404.0,1/100,109,160.0
3999,B1,404.0,1/100,109,160.0
4000,C#3,404.0,1/100,109,160.0
4001,F#2,404.5,1/100,109,160.0
4002,F#2,405.0,1/100,109,160.0
4003,B-3,405.0,0.5,64,160.0
4004,D3,405.0,0.5,64,160.0
4005,C4,405.5,0.75,64,160.0
4006,A4,405.5,1.0,64,160.0
4007,G3,405.5,0.25,64,160.0
4008,F#2,405.5,1/100,109,160.0
4009,B1,405.5,1/100,109,160.0
4010,F#2,406.0,1/100,109,160.0
4011,D2,406.0,1/100,109,160.0
4012,C4,406.5,0.5,64,160.0
4013,D3,406.5,0.25,64,160.0
4014,F#2,406.5,1/100,109,160.0
4015,G2,407.0,1.0,64,160.0
4016,D4,407.0,1.0,64,160.0
4017,B-4,407.0,1.0,64,160.0
4018,F#2,407.0,1/100,109,160.0
4019,D2,407.5,0.25,90,160.0
4020,F#2,407.5,1/100,109,160.0
4021,G2,408.0,1.5,64,160.0
4022,D4,408.0,3.5,64,160.0
4023,B-4,408.0,3.75,64,160.0
4024,D2,408.0,0.5,90,160.0
4025,F#2,408.0,1/100,109,160.0
4026,B1,408.0,1/100,109,160.0
4027,F#2,408.5,1/100,109,160.0
4028,G2,409.0,2.0,90,160.0
4029,F#2,409.0,1/100,109,160.0
4030,D3,409.5,0.5,64,160.0
4031,F#2,409.5,1/100,109,160.0
4032,B1,409.5,1/100,109,160.0
4033,G3,410.0,1.0,64,160.0
4034,F#2,410.0,1/100,109,160.0
4035,D2,410.0,1/100,109,160.0
4036,F#2,410.5,1/100,109,160.0
4037,D3,411.0,0.25,64,160.0
4038,D2,411.0,0.5,90,160.0
4039,F#2,411.0,1/100,109,160.0
4040,G2,411.5,0.5,64,160.0
4041,G2,411.5,0.25,90,160.0
4042,F#2,411.5,1/100,109,160.0
4043,G4,411.75,4.0,54,160.0
4044,B-3,411.75,4.0,54,160.0
4045,E-4,411.75,4.0,54,160.0
4046,G4,411.75,4.0,54,160.0
4047,B-3,411.75,4.0,54,160.0
4048,E-4,411.75,4.0,54,160.0
4049,B-3,412.0,1.5,64,160.0
4050,G#2,412.0,3.5,90,160.0
4051,E-4,412.0,1.25,64,160.0
4052,G#4,412.0,1.25,64,160.0
4053,G#2,412.0,1.25,64,160.0
4054,F#2,412.0,1/100,109,160.0
4055,B1,412.0,1/100,109,160.0
4056,F#2,412.5,1/100,109,160.0
4057,E-3,413.0,0.5,64,160.0
4058,F#2,413.0,1/100,109,160.0
4059,C4,413.5,1.0,64,160.0
4060,G#4,413.5,1.0,64,160.0
4061,E-4,413.5,1.0,64,160.0
4062,G#3,413.5,1.0,64,160.0
4063,F#2,413.5,1/100,109,160.0
4064,B1,413.5,1/100,109,160.0
4065,F#2,414.0,1/100,109,160.0
4066,D2,414.0,1/100,109,160.0
4067,E-3,414.5,0.5,64,160.0
4068,F#2,414.5,1/100,109,160.0
4069,G#2,415.0,1.0,64,160.0
4070,F#2,415.0,1/100,109,160.0
4071,B-3,415.0,1.0,64,160.0
4072,E-4,415.0,1.0,64,160.0
4073,G#4,415.0,1.0,64,160.0
4074,E-2,415.5,0.25,90,160.0
4075,F#2,415.5,1/100,109,160.0
4076,G#2,416.0,1.5,64,160.0
4077,E-2,416.0,0.5,90,160.0
4078,B-3,416.0,0.25,64,160.0
4079,E-4,416.0,0.25,64,160.0
4080,G#4,416.0,0.25,64,160.0
4081,F#2,416.0,1/100,109,160.0
4082,B1,416.0,1/100,109,160.0
4083,F#2,416.5,1/100,109,160.0
4084,G#4,416.5,1.25,64,160.0
4085,E-4,416.5,1.25,64,160.0
4086,C4,416.5,1.25,64,160.0
4087,G#2,417.0,1.75,90,160.0
4088,F#2,417.0,1/100,109,160.0
4089,E-3,417.5,0.5,64,160.0
4090,F#2,417.5,1/100,109,160.0
4091,B1,417.5,1/100,109,160.0
4092,G#3,418.0,1.0,64,160.0
4093,B-3,418.0,0.75,64,160.0
4094,G#4,418.0,0.75,64,160.0
4095,E-4,418.0,0.75,64,160.0
4096,F#2,418.0,1/100,109,160.0
4097,D2,418.0,1/100,109,160.0
4098,F#2,418.5,1/100,109,160.0
4099,G2,419.0,0.5,90,160.0
4100,F#2,419.0,1/100,109,160.0
4101,G#4,419.0,0.5,64,160.0
4102,E-4,419.0,0.5,64,160.0
4103,C4,419.0,0.5,64,160.0
4104,E-3,419.0,0.5,64,160.0
4105,G#2,419.5,0.5,64,160.0
4106,F2,419.5,0.5,90,160.0
4107,F#2,419.5,1/100,109,160.0
4108,C4,420.0,0.5,64,160.0
4109,B-2,420.0,1.25,64,160.0
4110,B-1,420.0,1.5,90,160.0
4111,F4,420.0,0.75,64,160.0
4112,B-4,420.0,0.75,64,160.0
4113,F#2,420.0,1/100,109,160.0
4114,B1,420.0,1/100,109,160.0
4115,C#3,420.0,1/100,109,160.0
4116,F3,420.5,0.75,64,160.0
4117,D4,420.5,0.25,64,160.0
4118,F#2,420.5,1/100,109,160.0
4119,B-3,421.0,0.25,64,160.0
4120,F#2,421.0,1/100,109,160.0
4121,F2,421.5,0.5,90,160.0
4122,B-2,421.5,0.25,64,160.0
4123,F4,421.5,0.25,64,160.0
4124,D4,421.5,0.25,64,160.0
4125,B-4,421.5,0.25,64,160.0
4126,B-3,421.5,0.25,64,160.0
4127,F3,421.5,0.25,64,160.0
4128,F#2,421.5,1/100,109,160.0
4129,B1,421.5,1/100,109,160.0
4130,B-2,422.0,1.25,64,160.0
4131,G2,422.0,0.25,90,160.0
4132,B-4,422.0,1.0,64,160.0
4133,F4,422.0,1.0,64,160.0
4134,D4,422.0,1.0,64,160.0
4135,F#2,422.0,1/100,109,160.0
4136,D2,422.0,1/100,109,160.0
4137,F3,422.5,0.75,64,160.0
4138,F#2,422.5,1/100,109,160.0
4139,B-3,423.0,0.25,64,160.0
4140,F2,423.0,1.0,90,160.0
4141,F#2,423.0,1/100,109,160.0
4142,F#2,423.5,1/100,109,160.0
4143,D4,423.5,0.5,64,160.0
4144,B-4,423.5,0.5,64,160.0
4145,F4,423.5,0.5,64,160.0
4146,B-2,423.5,0.25,64,160.0
4147,B-3,423.5,0.25,64,160.0
4148,F3,423.5,0.25,64,160.0
4149,G4,423.5,4.0,54,160.0
4150,B-3,423.5,4.0,54,160.0
4151,E-4,423.5,4.0,54,160.0
4152,G4,423.5,4.0,54,160.0
4153,B-3,423.5,4.0,54,160.0
4154,E-4,423.5,4.0,54,160.0
4155,B-2,424.0,1.25,64,160.0
4156,F2,424.0,2.25,90,160.0
4157,D4,424.0,1.25,64,160.0
4158,B-4,424.0,1.25,64,160.0
4159,F4,424.0,1.25,64,160.0
4160,F#2,424.0,1/100,109,160.0
4161,B1,424.0,1/100,109,160.0
4162,F3,424.5,0.75,64,160.0
4163,F#2,424.5,1/100,109,160.0
4164,B-3,425.0,0.25,64,160.0
4165,F#2,425.0,1/100,109,160.0
4166,F4,425.5,1.0,64,160.0
4167,B-4,425.5,1.25,64,160.0
4168,C4,425.5,1.5,64,160.0
4169,B-2,425.5,0.25,64,160.0
4170,B-3,425.5,0.25,64,160.0
4171,F3,425.5,0.25,64,160.0
4172,F#2,425.5,1/100,109,160.0
4173,B1,425.5,1/100,109,160.0
4174,B-2,426.0,1.25,64,160.0
4175,F#2,426.0,1/100,109,160.0
4176,D2,426.0,1/100,109,160.0
4177,F3,426.5,0.75,64,160.0
4178,F4,426.5,0.25,64,160.0
4179,F#2,426.5,1/100,109,160.0
4180,C#2,426.917,0.125,90,160.0
4181,C4,427.0,0.75,64,160.0
4182,D2,427.0,0.25,90,160.0
4183,F#2,427.0,1/100,109,160.0
4184,F4,427.0,0.5,64,160.0
4185,B-4,427.0,0.5,64,160.0
4186,G1,427.5,0.5,90,160.0
4187,F#2,427.5,1/100,109,160.0
4188,B-2,427.5,0.25,64,160.0
4189,B-3,427.5,0.25,64,160.0
4190,F3,427.5,0.25,64,160.0
4191,C4,428.0,0.25,64,160.0
4192,B-2,428.0,1.25,64,160.0
4193,B-1,428.0,1.5,90,160.0
4194,F4,428.0,0.5,64,160.0
4195,B-4,428.0,0.5,64,160.0
4196,F#2,428.0,1/100,109,160.0
4197,B1,428.0,1/100,109,160.0
4198,F3,428.5,0.75,64,160.0
4199,F#2,428.5,1/100,109,160.0
4200,F4,428.5,0.25,64,160.0
4201,B-4,428.5,0.25,64,160.0
4202,D4,428.5,0.25,64,160.0
4203,B-3,429.0,0.25,64,160.0
4204,F#2,429.0,1/100,109,160.0
4205,F2,429.5,0.5,90,160.0
4206,F4,429.5,0.25,64,160.0
4207,B-4,429.5,0.25,64,160.0
4208,D4,429.5,0.25,64,160.0
4209,B-2,429.5,0.25,64,160.0
4210,F3,429.5,0.25,64,160.0
4211,B-3,429.5,0.25,64,160.0
4212,F#2,429.5,1/100,109,160.0
4213,B1,429.5,1/100,109,160.0
4214,G2,430.0,0.25,90,160.0
4215,F4,430.0,1.25,64,160.0
4216,B-4,430.0,1.25,64,160.0
4217,D4,430.0,1.25,64,160.0
4218,B-2,430.0,1.25,64,160.0
4219,F#2,430.0,1/100,109,160.0
4220,D2,430.0,1/100,109,160.0
4221,F3,430.5,0.75,64,160.0
4222,F#2,430.5,1/100,109,160.0
4223,B-3,431.0,0.25,64,160.0
4224,F2,431.0,1.0,90,160.0
4225,F#2,431.0,1/100,109,160.0
4226,G4,431.25,3.75,54,160.0
4227,B-3,431.25,3.75,54,160.0
4228,E-4,431.25,3.75,54,160.0
4229,G4,431.25,3.75,54,160.0
4230,B-3,431.25,3.75,54,160.0
4231,E-4,431.25,3.75,54,160.0
4232,F#2,431.5,1/100,109,160.0
4233,F4,431.5,0.5,64,160.0
4234,D4,431.5,0.5,64,160.0
4235,B-4,431.5,0.5,64,160.0
4236,B-2,431.5,0.25,64,160.0
4237,B-3,431.5,0.25,64,160.0
4238,F3,431.5,0.25,64,160.0
4239,F2,432.0,1.0,90,160.0
4240,F4,432.0,1.25,64,160.0
4241,D4,432.0,1.25,64,160.0
4242,B-4,432.0,1.25,64,160.0
4243,B-2,432.0,1.25,64,160.0
4244,F4,432.0,1.25,64,160.0
4245,D4,432.0,1.25,64,160.0
4246,B-4,432.0,1.25,64,160.0
4247,F#2,432.0,1/100,109,160.0
4248,B1,432.0,1/100,109,160.0
4249,F3,432.5,0.75,64,160.0
4250,F#2,432.5,1/100,109,160.0
4251,B-3,433.0,0.25,64,160.0
4252,B-1,433.0,1.0,90,160.0
4253,F#2,433.0,1/100,109,160.0
4254,B-2,433.5,0.25,64,160.0
4255,B-3,433.5,0.25,64,160.0
4256,F3,433.5,0.25,64,160.0
4257,F4,433.5,1.0,64,160.0
4258,B-4,433.5,1.0,64,160.0
4259,C4,433.5,1.0,64,160.0
4260,F#2,433.5,1/100,109,160.0
4261,B1,433.5,1/100,109,160.0
4262,B-2,434.0,1.25,64,160.0
4263,C2,434.0,1.0,90,160.0
4264,F#2,434.0,1/100,109,160.0
4265,D2,434.0,1/100,109,160.0
4266,F3,434.5,0.75,64,160.0
4267,F#2,434.5,1/100,109,160.0
4268,B-3,435.0,0.25,64,160.0
4269,D2,435.0,1.0,90,160.0
4270,F4,435.0,0.75,64,160.0
4271,B-4,435.0,0.75,64,160.0
4272,C4,435.0,0.75,64,160.0
4273,F#2,435.0,1/100,109,160.0
4274,D2,435.0,1/100,109,160.0
4275,B-2,435.5,0.25,64,160.0
4276,F3,435.5,0.25,64,160.0
4277,B-3,435.5,0.25,64,160.0
4278,F#2,435.5,1/100,109,160.0
4279,D2,435.5,1/100,109,160.0
4280,F3,436.0,0.5,64,160.0
4281,E-2,436.0,1.25,64,160.0
4282,E-2,436.0,1.5,90,160.0
4283,B-3,436.0,0.75,64,160.0
4284,E-4,436.0,0.75,64,160.0
4285,F#2,436.0,1/100,109,160.0
4286,B1,436.0,1/100,109,160.0
4287,C#3,436.0,1/100,109,160.0
4288,B-2,436.5,0.75,64,160.0
4289,G3,436.5,0.25,64,160.0
4290,F#2,436.5,1/100,109,160.0
4291,E-3,437.0,0.25,64,160.0
4292,F#2,437.0,1/100,109,160.0
4293,B-2,437.5,0.5,90,160.0
4294,E-2,437.5,0.25,64,160.0
4295,B-3,437.5,0.25,64,160.0
4296,G3,437.5,0.25,64,160.0
4297,E-4,437.5,0.25,64,160.0
4298,E-3,437.5,0.25,64,160.0
4299,B-2,437.5,0.25,64,160.0
4300,F#2,437.5,1/100,109,160.0
4301,B1,437.5,1/100,109,160.0
4302,E-2,438.0,1.25,64,160.0
4303,C3,438.0,0.25,90,160.0
4304,E-4,438.0,1.0,64,160.0
4305,B-3,438.0,1.0,64,160.0
4306,G3,438.0,1.0,64,160.0
4307,F#2,438.0,1/100,109,160.0
4308,D2,438.0,1/100,109,160.0
4309,B-2,438.5,0.75,64,160.0
4310,F#2,438.5,1/100,109,160.0
4311,E-3,439.0,0.25,64,160.0
4312,B-2,439.0,1.0,90,160.0
4313,F#2,439.0,1/100,109,160.0
4314,B-3,439.25,4.0,54,160.0
4315,B-3,439.25,4.0,54,160.0
4316,D4,439.25,4.0,54,160.0
4317,G4,439.25,4.0,54,160.0
4318,D4,439.25,4.0,54,160.0
4319,G4,439.25,4.0,54,160.0
4320,F#2,439.5,1/100,109,160.0
4321,G3,439.5,0.5,64,160.0
4322,E-4,439.5,0.5,64,160.0
4323,B-3,439.5,0.5,64,160.0
4324,E-2,439.5,0.25,64,160.0
4325,E-3,439.5,0.25,64,160.0
4326,B-2,439.5,0.25,64,160.0
4327,E-2,440.0,1.25,64,160.0
4328,B-2,440.0,2.25,90,160.0
4329,G3,440.0,1.25,64,160.0
4330,E-4,440.0,1.25,64,160.0
4331,B-3,440.0,1.25,64,160.0
4332,F#2,440.0,1/100,109,160.0
4333,B1,440.0,1/100,109,160.0
4334,B-2,440.5,0.75,64,160.0
4335,F#2,440.5,1/100,109,160.0
4336,E-3,441.0,0.25,64,160.0
4337,F#2,441.0,1/100,109,160.0
4338,B-3,441.5,1.0,64,160.0
4339,E-4,441.5,1.25,64,160.0
4340,F3,441.5,1.5,64,160.0
4341,E-2,441.5,0.25,64,160.0
4342,E-3,441.5,0.25,64,160.0
4343,B-2,441.5,0.25,64,160.0
4344,F#2,441.5,1/100,109,160.0
4345,B1,441.5,1/100,109,160.0
4346,E-2,442.0,1.25,64,160.0
4347,F#2,442.0,1/100,109,160.0
4348,D2,442.0,1/100,109,160.0
4349,B-2,442.5,0.75,64,160.0
4350,B-3,442.5,0.25,64,160.0
4351,F#2,442.5,1/100,109,160.0
4352,F#2,442.917,0.125,90,160.0
4353,F3,443.0,0.75,64,160.0
4354,G2,443.0,0.25,90,160.0
4355,F#2,443.0,1/100,109,160.0
4356,B-3,443.0,0.5,64,160.0
4357,E-4,443.0,0.5,64,160.0
4358,B-3,443.25,4.0,54,160.0
4359,B-3,443.25,4.0,54,160.0
4360,G#4,443.25,4.0,54,160.0
4361,E-4,443.25,4.0,54,160.0
4362,C4,443.25,4.0,54,160.0
4363,G#4,443.25,4.0,54,160.0
4364,E-4,443.25,4.0,54,160.0
4365,C4,443.25,4.0,54,160.0
4366,C2,443.5,0.5,90,160.0
4367,F#2,443.5,1/100,109,160.0
4368,E-2,443.5,0.25,64,160.0
4369,E-3,443.5,0.25,64,160.0
4370,B-2,443.5,0.25,64,160.0
4371,F3,444.0,0.25,64,160.0
4372,E-2,444.0,1.25,64,160.0
4373,E-2,444.0,1.5,90,160.0
4374,B-3,444.0,0.5,64,160.0
4375,E-4,444.0,0.5,64,160.0
4376,F#2,444.0,1/100,109,160.0
4377,B1,444.0,1/100,109,160.0
4378,B-2,444.5,0.75,64,160.0
4379,F#2,444.5,1/100,109,160.0
4380,B-3,444.5,0.25,64,160.0
4381,E-4,444.5,0.25,64,160.0
4382,G3,444.5,0.25,64,160.0
4383,E-3,445.0,0.25,64,160.0
4384,F#2,445.0,1/100,109,160.0
4385,B-2,445.5,0.5,90,160.0
4386,B-3,445.5,0.25,64,160.0
4387,E-4,445.5,0.25,64,160.0
4388,G3,445.5,0.25,64,160.0
4389,E-2,445.5,0.25,64,160.0
4390,B-2,445.5,0.25,64,160.0
4391,E-3,445.5,0.25,64,160.0
4392,F#2,445.5,1/100,109,160.0
4393,B1,445.5,1/100,109,160.0
4394,C3,446.0,0.25,90,160.0
4395,B-3,446.0,1.25,64,160.0
4396,E-4,446.0,1.25,64,160.0
4397,G3,446.0,1.25,64,160.0
4398,E-2,446.0,1.25,64,160.0
4399,F#2,446.0,1/100,109,160.0
4400,D2,446.0,1/100,109,160.0
4401,B-2,446.5,0.75,64,160.0
4402,F#2,446.5,1/100,109,160.0
4403,E-3,447.0,0.25,64,160.0
4404,B-2,447.0,1.0,90,160.0
4405,F#2,447.0,1/100,109,160.0
4406,B-3,447.25,4.0,54,160.0
4407,B-3,447.25,4.0,54,160.0
4408,G#4,447.25,4.0,54,160.0
4409,E-4,447.25,4.0,54,160.0
4410,C4,447.25,4.0,54,160.0
4411,G#4,447.25,4.0,54,160.0
4412,E-4,447.25,4.0,54,160.0
4413,C4,447.25,4.0,54,160.0
4414,F#2,447.5,1/100,109,160.0
4415,B-3,447.5,0.5,64,160.0
4416,G3,447.5,0.5,64,160.0
4417,E-4,447.5,0.5,64,160.0
4418,E-2,447.5,0.25,64,160.0
4419,E-3,447.5,0.25,64,160.0
4420,B-2,447.5,0.25,64,160.0
4421,B-2,448.0,2.25,90,160.0
4422,B-3,448.0,1.25,64,160.0
4423,G3,448.0,1.25,64,160.0
4424,E-4,448.0,1.25,64,160.0
4425,E-2,448.0,1.25,64,160.0
4426,B-3,448.0,1.25,64,160.0
4427,G3,448.0,1.25,64,160.0
4428,E-4,448.0,1.25,64,160.0
4429,F#2,448.0,1/100,109,160.0
4430,B1,448.0,1/100,109,160.0
4431,B-2,448.5,0.75,64,160.0
4432,F#2,448.5,1/100,109,160.0
4433,E-3,449.0,0.25,64,160.0
4434,F#2,449.0,1/100,109,160.0
4435,E-2,449.5,0.25,64,160.0
4436,E-3,449.5,0.25,64,160.0
4437,B-2,449.5,0.25,64,160.0
4438,B-3,449.5,1.0,64,160.0
4439,E-4,449.5,1.0,64,160.0
4440,F3,449.5,1.0,64,160.0
4441,F#2,449.5,1/100,109,160.0
4442,B1,449.5,1/100,109,160.0
4443,E-2,450.0,1.25,64,160.0
4444,F#2,450.0,1/100,109,160.0
4445,D2,450.0,1/100,109,160.0
4446,B-2,450.5,0.75,64,160.0
4447,F#2,450.5,1/100,109,160.0
4448,F#2,450.917,0.125,90,160.0
4449,E-3,451.0,0.25,64,160.0
4450,G2,451.0,0.25,90,160.0
4451,B-3,451.0,0.75,64,160.0
4452,E-4,451.0,0.75,64,160.0
4453,F3,451.0,0.75,64,160.0
4454,F#2,451.0,1/100,109,160.0
4455,D2,451.0,1/100,109,160.0
4456,D4,451.25,4.0,54,160.0
4457,B-3,451.25,15.5,54,160.0
4458,D4,451.25,4.0,54,160.0
4459,B-3,451.25,15.5,54,160.0
4460,F4,451.25,4.0,54,160.0
4461,B-4,451.25,4.0,54,160.0
4462,G#4,451.25,0.25,54,160.0
4463,E-4,451.25,0.25,54,160.0
4464,C4,451.25,0.25,54,160.0
4465,F4,451.25,4.0,54,160.0
4466,B-4,451.25,4.0,54,160.0
4467,G#4,451.25,0.25,54,160.0
4468,E-4,451.25,0.25,54,160.0
4469,C4,451.25,0.25,54,160.0
4470,C2,451.5,0.5,90,160.0
4471,G2,451.5,0.25,64,160.0
4472,E-3,451.5,0.25,64,160.0
4473,B-3,451.5,0.25,64,160.0
4474,F#2,451.5,1/100,109,160.0
4475,D2,451.5,1/100,109,160.0
4476,F3,452.0,0.5,64,160.0
4477,E-2,452.0,1.25,64,160.0
4478,E-2,452.0,1.5,90,160.0
4479,B-3,452.0,0.75,64,160.0
4480,E-4,452.0,0.75,64,160.0
4481,F#2,452.0,1/100,109,160.0
4482,B1,452.0,1/100,109,160.0
4483,B-2,452.5,0.75,64,160.0
4484,G3,452.5,0.25,64,160.0
4485,F#2,452.5,1/100,109,160.0
4486,E-3,453.0,0.25,64,160.0
4487,F#2,453.0,1/100,109,160.0
4488,B-2,453.5,0.5,90,160.0
4489,E-2,453.5,0.25,64,160.0
4490,B-3,453.5,0.25,64,160.0
4491,G3,453.5,0.25,64,160.0
4492,E-4,453.5,0.25,64,160.0
4493,E-3,453.5,0.25,64,160.0
4494,B-2,453.5,0.25,64,160.0
4495,F#2,453.5,1/100,109,160.0
4496,B1,453.5,1/100,109,160.0
4497,E-2,454.0,1.25,64,160.0
4498,C3,454.0,0.25,90,160.0
4499,E-4,454.0,1.0,64,160.0
4500,B-3,454.0,1.0,64,160.0
4501,G3,454.0,1.0,64,160.0
4502,F#2,454.0,1/100,109,160.0
4503,D2,454.0,1/100,109,160.0
4504,B-2,454.5,0.75,64,160.0
4505,F#2,454.5,1/100,109,160.0
4506,E-3,455.0,0.25,64,160.0
4507,B-2,455.0,1.0,90,160.0
4508,F#2,455.0,1/100,109,160.0
4509,F#2,455.5,1/100,109,160.0
4510,G3,455.5,0.5,64,160.0
4511,E-4,455.5,0.5,64,160.0
4512,B-3,455.5,0.5,64,160.0
4513,E-2,455.5,0.25,64,160.0
4514,E-3,455.5,0.25,64,160.0
4515,B-2,455.5,0.25,64,160.0
4516,E-2,456.0,1.25,64,160.0
4517,B-2,456.0,2.25,90,160.0
4518,G3,456.0,1.25,64,160.0
4519,E-4,456.0,1.25,64,160.0
4520,B-3,456.0,1.25,64,160.0
4521,F#2,456.0,1/100,109,160.0
4522,B1,456.0,1/100,109,160.0
4523,B-2,456.5,0.75,64,160.0
4524,F#2,456.5,1/100,109,160.0
4525,E-3,457.0,0.25,64,160.0
4526,F#2,457.0,1/100,109,160.0
4527,B-3,457.5,1.0,64,160.0
4528,E-4,457.5,1.25,64,160.0
4529,F3,457.5,1.5,64,160.0
4530,E-2,457.5,0.25,64,160.0
4531,E-3,457.5,0.25,64,160.0
4532,B-2,457.5,0.25,64,160.0
4533,F#2,457.5,1/100,109,160.0
4534,B1,457.5,1/100,109,160.0
4535,E-2,458.0,1.25,64,160.0
4536,F#2,458.0,1/100,109,160.0
4537,D2,458.0,1/100,109,160.0
4538,B-2,458.5,0.75,64,160.0
4539,B-3,458.5,0.25,64,160.0
4540,F#2,458.5,1/100,109,160.0
4541,F#2,458.917,0.125,90,160.0
4542,F3,459.0,0.75,64,160.0
4543,G2,459.0,0.25,90,160.0
4544,F#2,459.0,1/100,109,160.0
4545,B-3,459.0,0.5,64,160.0
4546,E-4,459.0,0.5,64,160.0
4547,C2,459.5,0.5,90,160.0
4548,F#2,459.5,1/100,109,160.0
4549,E-2,459.5,0.25,64,160.0
4550,E-3,459.5,0.25,64,160.0
4551,B-2,459.5,0.25,64,160.0
4552,F3,460.0,0.25,64,160.0
4553,E-2,460.0,1.25,64,160.0
4554,E-2,460.0,1.5,90,160.0
4555,B-3,460.0,0.5,64,160.0
4556,E-4,460.0,0.5,64,160.0
4557,F#2,460.0,1/100,109,160.0
4558,B1,460.0,1/100,109,160.0
4559,B-2,460.5,0.75,64,160.0
4560,F#2,460.5,1/100,109,160.0
4561,B-3,460.5,0.25,64,160.0
4562,E-4,460.5,0.25,64,160.0
4563,G3,460.5,0.25,64,160.0
4564,E-3,461.0,0.25,64,160.0
4565,F#2,461.0,1/100,109,160.0
4566,B-2,461.5,0.5,90,160.0
4567,B-3,461.5,0.25,64,160.0
4568,E-4,461.5,0.25,64,160.0
4569,G3,461.5,0.25,64,160.0
4570,E-2,461.5,0.25,64,160.0
4571,B-2,461.5,0.25,64,160.0
4572,E-3,461.5,0.25,64,160.0
4573,F#2,461.5,1/100,109,160.0
4574,B1,461.5,1/100,109,160.0
4575,C3,462.0,0.25,90,160.0
4576,B-3,462.0,1.25,64,160.0
4577,E-4,462.0,1.25,64,160.0
4578,G3,462.0,1.25,64,160.0
4579,E-2,462.0,1.25,64,160.0
4580,F#2,462.0,1/100,109,160.0
4581,D2,462.0,1/100,109,160.0
4582,B-2,462.5,0.75,64,160.0
4583,F#2,462.5,1/100,109,160.0
4584,E-3,463.0,0.25,64,160.0
4585,B-2,463.0,1.0,90,160.0
4586,F#2,463.0,1/100,109,160.0
4587,F#2,463.5,1/100,109,160.0
4588,B-3,463.5,0.5,64,160.0
4589,G3,463.5,0.5,64,160.0
4590,E-4,463.5,0.5,64,160.0
4591,E-2,463.5,0.25,64,160.0
4592,E-3,463.5,0.25,64,160.0
4593,B-2,463.5,0.25,64,160.0
4594,B-2,464.0,2.25,90,160.0
4595,B-3,464.0,1.25,64,160.0
4596,G3,464.0,1.25,64,160.0
4597,E-4,464.0,1.25,64,160.0
4598,E-2,464.0,1.25,64,160.0
4599,B-3,464.0,1.25,64,160.0
4600,G3,464.0,1.25,64,160.0
4601,E-4,464.0,1.25,64,160.0
4602,F#2,464.0,1/100,109,160.0
4603,B1,464.0,1/100,109,160.0
4604,B-2,464.5,0.75,64,160.0
4605,F#2,464.5,1/100,109,160.0
4606,E-3,465.0,0.25,64,160.0
4607,F#2,465.0,1/100,109,160.0
4608,E-2,465.5,0.25,64,160.0
4609,E-3,465.5,0.25,64,160.0
4610,B-2,465.5,0.25,64,160.0
4611,B-3,465.5,1.0,64,160.0
4612,E-4,465.5,1.0,64,160.0
4613,F3,465.5,1.0,64,160.0
4614,F#2,465.5,1/100,109,160.0
4615,B1,465.5,1/100,109,160.0
4616,E-2,466.0,1.25,64,160.0
4617,F#2,466.0,1/100,109,160.0
4618,D2,466.0,1/100,109,160.0
4619,B-2,466.5,0.75,64,160.0
4620,F#2,466.5,1/100,109,160.0
4621,D4,466.75,4.0,54,160.0
4622,D4,466.75,4.0,54,160.0
4623,F4,466.75,4.0,54,160.0
4624,B-4,466.75,4.0,54,160.0
4625,F4,466.75,4.0,54,160.0
4626,B-4,466.75,4.0,54,160.0
4627,F#2,466.917,0.125,90,160.0
4628,E-3,467.0,0.25,64,160.0
4629,G2,467.0,0.25,90,160.0
4630,B-3,467.0,0.75,64,160.0
4631,E-4,467.0,0.75,64,160.0
4632,F3,467.0,0.75,64,160.0
4633,F#2,467.0,1/100,109,160.0
4634,D2,467.0,1/100,109,160.0
4635,C2,467.5,0.5,90,160.0
4636,E-2,467.5,0.25,64,160.0
4637,B-2,467.5,0.25,64,160.0
4638,E-3,467.5,0.25,64,160.0
4639,F#2,467.5,1/100,109,160.0
4640,D2,467.5,1/100,109,160.0
4641,C4,468.0,0.5,64,160.0
4642,B-2,468.0,1.25,64,160.0
4643,B-1,468.0,1.5,90,160.0
4644,F4,468.0,0.75,64,160.0
4645,B-4,468.0,0.75,64,160.0
4646,F#2,468.0,1/100,109,160.0
4647,B1,468.0,1/100,109,160.0
4648,C#3,468.0,1/100,109,160.0
4649,F3,468.5,0.75,64,160.0
4650,D4,468.5,0.25,64,160.0
4651,F#2,468.5,1/100,109,160.0
4652,B-3,469.0,0.25,64,160.0
4653,F#2,469.0,1/100,109,160.0
4654,F2,469.5,0.5,90,160.0
4655,B-2,469.5,0.25,64,160.0
4656,F4,469.5,0.25,64,160.0
4657,D4,469.5,0.25,64,160.0
4658,B-4,469.5,0.25,64,160.0
4659,B-3,469.5,0.25,64,160.0
4660,F3,469.5,0.25,64,160.0
4661,F#2,469.5,1/100,109,160.0
4662,B1,469.5,1/100,109,160.0
4663,B-2,470.0,1.25,64,160.0
4664,G2,470.0,0.25,90,160.0
4665,B-4,470.0,1.0,64,160.0
4666,F4,470.0,1.0,64,160.0
4667,D4,470.0,1.0,64,160.0
4668,F#2,470.0,1/100,109,160.0
4669,D2,470.0,1/100,109,160.0
4670,F3,470.5,0.75,64,160.0
4671,F#2,470.5,1/100,109,160.0
4672,D4,470.75,4.0,54,160.0
4673,D4,470.75,4.0,54,160.0
4674,F4,470.75,4.0,54,160.0
4675,B-4,470.75,4.0,54,160.0
4676,F4,470.75,4.0,54,160.0
4677,B-4,470.75,4.0,54,160.0
4678,B-3,471.0,0.25,64,160.0
4679,F2,471.0,1.0,90,160.0
4680,F#2,471.0,1/100,109,160.0
4681,F#2,471.5,1/100,109,160.0
4682,D4,471.5,0.5,64,160.0
4683,B-4,471.5,0.5,64,160.0
4684,F4,471.5,0.5,64,160.0
4685,B-2,471.5,0.25,64,160.0
4686,B-3,471.5,0.25,64,160.0
4687,F3,471.5,0.25,64,160.0
4688,B-2,472.0,1.25,64,160.0
4689,F2,472.0,2.25,90,160.0
4690,D4,472.0,1.25,64,160.0
4691,B-4,472.0,1.25,64,160.0
4692,F4,472.0,1.25,64,160.0
4693,F#2,472.0,1/100,109,160.0
4694,B1,472.0,1/100,109,160.0
4695,F3,472.5,0.75,64,160.0
4696,F#2,472.5,1/100,109,160.0
4697,B-3,473.0,0.25,64,160.0
4698,F#2,473.0,1/100,109,160.0
4699,F4,473.5,1.0,64,160.0
4700,B-4,473.5,1.25,64,160.0
4701,C4,473.5,1.5,64,160.0
4702,B-2,473.5,0.25,64,160.0
4703,B-3,473.5,0.25,64,160.0
4704,F3,473.5,0.25,64,160.0
4705,F#2,473.5,1/100,109,160.0
4706,B1,473.5,1/100,109,160.0
4707,B-2,474.0,1.25,64,160.0
4708,F#2,474.0,1/100,109,160.0
4709,D2,474.0,1/100,109,160.0
4710,F3,474.5,0.75,64,160.0
4711,F4,474.5,0.25,64,160.0
4712,F#2,474.5,1/100,109,160.0
4713,D4,474.75,3.25,54,160.0
4714,D4,474.75,3.25,54,160.0
4715,F4,474.75,3.5,54,160.0
4716,B-4,474.75,3.5,54,160.0
4717,F4,474.75,3.5,54,160.0
4718,B-4,474.75,3.5,54,160.0
4719,C#2,474.917,0.125,90,160.0
4720,C4,475.0,0.75,64,160.0
4721,D2,475.0,0.25,90,160.0
4722,F#2,475.0,1/100,109,160.0
4723,F4,475.0,0.5,64,160.0
4724,B-4,475.0,0.5,64,160.0
4725,G1,475.5,0.5,90,160.0
4726,F#2,475.5,1/100,109,160.0
4727,B-2,475.5,0.25,64,160.0
4728,B-3,475.5,0.25,64,160.0
4729,F3,475.5,0.25,64,160.0
4730,C4,476.0,0.25,64,160.0
4731,B-2,476.0,1.25,64,160.0
4732,B-1,476.0,1.5,90,160.0
4733,F4,476.0,0.5,64,160.0
4734,B-4,476.0,0.5,64,160.0
4735,F#2,476.0,1/100,109,160.0
4736,B1,476.0,1/100,109,160.0
4737,F3,476.5,0.75,64,160.0
4738,F#2,476.5,1/100,109,160.0
4739,F4,476.5,0.25,64,160.0
4740,B-4,476.5,0.25,64,160.0
4741,D4,476.5,0.25,64,160.0
4742,B-3,477.0,0.25,64,160.0
4743,F#2,477.0,1/100,109,160.0
4744,F2,477.5,0.5,90,160.0
4745,F4,477.5,0.25,64,160.0
4746,B-4,477.5,0.25,64,160.0
4747,D4,477.5,0.25,64,160.0
4748,B-2,477.5,0.25,64,160.0
4749,F3,477.5,0.25,64,160.0
4750,B-3,477.5,0.25,64,160.0
4751,F#2,477.5,1/100,109,160.0
4752,B1,477.5,1/100,109,160.0
4753,G2,478.0,0.25,90,160.0
4754,F4,478.0,1.25,64,160.0
4755,B-4,478.0,1.25,64,160.0
4756,D4,478.0,1.25,64,160.0
4757,B-2,478.0,1.25,64,160.0
4758,F#2,478.0,1/100,109,160.0
4759,D2,478.0,1/100,109,160.0
4760,F3,478.5,0.75,64,160.0
4761,F#2,478.5,1/100,109,160.0
4762,B-3,479.0,0.25,64,160.0
4763,F2,479.0,1.0,90,160.0
4764,F#2,479.0,1/100,109,160.0
4765,F#2,479.5,1/100,109,160.0
4766,F4,479.5,0.5,64,160.0
4767,D4,479.5,0.5,64,160.0
4768,B-4,479.5,0.5,64,160.0
4769,B-2,479.5,0.25,64,160.0
4770,B-3,479.5,0.25,64,160.0
4771,F3,479.5,0.25,64,160.0
4772,F2,480.0,1.0,90,160.0
4773,F4,480.0,1.25,64,160.0
4774,D4,480.0,1.25,64,160.0
4775,B-4,480.0,1.25,64,160.0
4776,B-2,480.0,1.25,64,160.0
4777,F4,480.0,1.25,64,160.0
4778,D4,480.0,1.25,64,160.0
4779,B-4,480.0,1.25,64,160.0
4780,F#2,480.0,1/100,109,160.0
4781,B1,480.0,1/100,109,160.0
4782,F3,480.5,0.75,64,160.0
4783,F#2,480.5,1/100,109,160.0
4784,B-3,481.0,0.25,64,160.0
4785,B-1,481.0,1.0,90,160.0
4786,F#2,481.0,1/100,109,160.0
4787,B-2,481.5,0.25,64,160.0
4788,B-3,481.5,0.25,64,160.0
4789,F3,481.5,0.25,64,160.0
4790,F4,481.5,1.0,64,160.0
4791,B-4,481.5,1.0,64,160.0
4792,C4,481.5,1.0,64,160.0
4793,F#2,481.5,1/100,109,160.0
4794,B1,481.5,1/100,109,160.0
4795,B-2,482.0,1.25,64,160.0
4796,C2,482.0,1.0,90,160.0
4797,F#2,482.0,1/100,109,160.0
4798,D2,482.0,1/100,109,160.0
4799,F3,482.5,0.75,64,160.0
4800,F#2,482.5,1/100,109,160.0
4801,B-3,483.0,0.25,64,160.0
4802,D2,483.0,1.0,90,160.0
4803,F4,483.0,0.75,64,160.0
4804,B-4,483.0,0.75,64,160.0
4805,C4,483.0,0.75,64,160.0
4806,F#2,483.0,1/100,109,160.0
4807,D2,483.0,1/100,109,160.0
4808,B-2,483.5,0.25,64,160.0
4809,F3,483.5,0.25,64,160.0
4810,B-3,483.5,0.25,64,160.0
4811,F#2,483.5,1/100,109,160.0
4812,D2,483.5,1/100,109,160.0
4813,F3,484.0,0.5,64,160.0
4814,E-2,484.0,1.25,64,160.0
4815,E-2,484.0,1.5,90,160.0
4816,B-3,484.0,0.75,64,160.0
4817,E-4,484.0,0.75,64,160.0
4818,F#2,484.0,1/100,109,160.0
4819,B1,484.0,1/100,109,160.0
4820,C#3,484.0,1/100,109,160.0
4821,B-2,484.5,0.75,64,160.0
4822,G3,484.5,0.25,64,160.0
4823,F#2,484.5,1/100,109,160.0
4824,E-3,485.0,0.25,64,160.0
4825,F#2,485.0,1/100,109,160.0
4826,B-2,485.5,0.5,90,160.0
4827,E-2,485.5,0.25,64,160.0
4828,B-3,485.5,0.25,64,160.0
4829,G3,485.5,0.25,64,160.0
4830,E-4,485.5,0.25,64,160.0
4831,E-3,485.5,0.25,64,160.0
4832,B-2,485.5,0.25,64,160.0
4833,F#2,485.5,1/100,109,160.0
4834,B1,485.5,1/100,109,160.0
4835,E-2,486.0,1.25,64,160.0
4836,C3,486.0,0.25,90,160.0
4837,E-4,486.0,1.0,64,160.0
4838,B-3,486.0,1.0,64,160.0
4839,G3,486.0,1.0,64,160.0
4840,F#2,486.0,1/100,109,160.0
4841,D2,486.0,1/100,109,160.0
4842,B-2,486.5,0.75,64,160.0
4843,F#2,486.5,1/100,109,160.0
4844,E-3,487.0,0.25,64,160.0
4845,B-2,487.0,1.0,90,160.0
4846,F#2,487.0,1/100,109,160.0
4847,F#2,487.5,1/100,109,160.0
4848,G3,487.5,0.5,64,160.0
4849,E-4,487.5,0.5,64,160.0
4850,B-3,487.5,0.5,64,160.0
4851,E-2,487.5,0.25,64,160.0
4852,E-3,487.5,0.25,64,160.0
4853,B-2,487.5,0.25,64,160.0
4854,E-2,488.0,1.25,64,160.0
4855,B-2,488.0,2.25,90,160.0
4856,G3,488.0,1.25,64,160.0
4857,E-4,488.0,1.25,64,160.0
4858,B-3,488.0,1.25,64,160.0
4859,F#2,488.0,1/100,109,160.0
4860,B1,488.0,1/100,109,160.0
4861,B-2,488.5,0.75,64,160.0
4862,F#2,488.5,1/100,109,160.0
4863,E-3,489.0,0.25,64,160.0
4864,F#2,489.0,1/100,109,160.0
4865,B-3,489.5,1.0,64,160.0
4866,E-4,489.5,1.25,64,160.0
4867,F3,489.5,1.5,64,160.0
4868,E-2,489.5,0.25,64,160.0
4869,E-3,489.5,0.25,64,160.0
4870,B-2,489.5,0.25,64,160.0
4871,F#2,489.5,1/100,109,160.0
4872,B1,489.5,1/100,109,160.0
4873,E-2,490.0,1.25,64,160.0
4874,F#2,490.0,1/100,109,160.0
4875,D2,490.0,1/100,109,160.0
4876,B-2,490.5,0.75,64,160.0
4877,B-3,490.5,0.25,64,160.0
4878,F#2,490.5,1/100,109,160.0
4879,F#2,490.917,0.125,90,160.0
4880,F3,491.0,0.75,64,160.0
4881,G2,491.0,0.25,90,160.0
4882,F#2,491.0,1/100,109,160.0
4883,B-3,491.0,0.5,64,160.0
4884,E-4,491.0,0.5,64,160.0
4885,C2,491.5,0.5,90,160.0
4886,F#2,491.5,1/100,109,160.0
4887,E-2,491.5,0.25,64,160.0
4888,E-3,491.5,0.25,64,160.0
4889,B-2,491.5,0.25,64,160.0
4890,F3,492.0,0.25,64,160.0
4891,E-2,492.0,1.25,64,160.0
4892,E-2,492.0,1.5,90,160.0
4893,B-3,492.0,0.5,64,160.0
4894,E-4,492.0,0.5,64,160.0
4895,F#2,492.0,1/100,109,160.0
4896,B1,492.0,1/100,109,160.0
4897,B-2,492.5,0.75,64,160.0
4898,F#2,492.5,1/100,109,160.0
4899,B-3,492.5,0.25,64,160.0
4900,E-4,492.5,0.25,64,160.0
4901,G3,492.5,0.25,64,160.0
4902,E-3,493.0,0.25,64,160.0
4903,F#2,493.0,1/100,109,160.0
4904,B-2,493.5,0.5,90,160.0
4905,B-3,493.5,0.25,64,160.0
4906,E-4,493.5,0.25,64,160.0
4907,G3,493.5,0.25,64,160.0
4908,E-2,493.5,0.25,64,160.0
4909,B-2,493.5,0.25,64,160.0
4910,E-3,493.5,0.25,64,160.0
4911,F#2,493.5,1/100,109,160.0
4912,B1,493.5,1/100,109,160.0
4913,C3,494.0,0.25,90,160.0
4914,B-3,494.0,1.25,64,160.0
4915,E-4,494.0,1.25,64,160.0
4916,G3,494.0,1.25,64,160.0
4917,E-2,494.0,1.25,64,160.0
4918,F#2,494.0,1/100,109,160.0
4919,D2,494.0,1/100,109,160.0
4920,B-2,494.5,0.75,64,160.0
4921,F#2,494.5,1/100,109,160.0
4922,E-3,495.0,0.25,64,160.0
4923,B-2,495.0,1.0,90,160.0
4924,F#2,495.0,1/100,109,160.0
4925,F#2,495.5,1/100,109,160.0
4926,B-3,495.5,0.5,64,160.0
4927,G3,495.5,0.5,64,160.0
4928,E-4,495.5,0.5,64,160.0
4929,E-2,495.5,0.25,64,160.0
4930,E-3,495.5,0.25,64,160.0
4931,B-2,495.5,0.25,64,160.0
4932,B-2,496.0,2.25,90,160.0
4933,B-3,496.0,1.25,64,160.0
4934,G3,496.0,1.25,64,160.0
4935,E-4,496.0,1.25,64,160.0
4936,E-2,496.0,1.25,64,160.0
4937,B-3,496.0,1.25,64,160.0
4938,G3,496.0,1.25,64,160.0
4939,E-4,496.0,1.25,64,160.0
4940,F#2,496.0,1/100,109,160.0
4941,B1,496.0,1/100,109,160.0
4942,B-2,496.5,0.75,64,160.0
4943,F#2,496.5,1/100,109,160.0
4944,E-3,497.0,0.25,64,160.0
4945,F#2,497.0,1/100,109,160.0
4946,E-2,497.5,0.25,64,160.0
4947,E-3,497.5,0.25,64,160.0
4948,B-2,497.5,0.25,64,160.0
4949,B-3,497.5,1.0,64,160.0
4950,E-4,497.5,1.0,64,160.0
4951,F3,497.5,1.0,64,160.0
4952,F#2,497.5,1/100,109,160.0
4953,B1,497.5,1/100,109,160.0
4954,E-2,498.0,1.25,64,160.0
4955,F#2,498.0,1/100,109,160.0
4956,D2,498.0,1/100,109,160.0
4957,B-2,498.5,0.75,64,160.0
4958,F#2,498.5,1/100,109,160.0
4959,F#2,498.917,0.125,90,160.0
4960,E-3,499.0,0.25,64,160.0
4961,G2,499.0,0.25,90,160.0
4962,B-3,499.0,0.75,64,160.0
4963,E-4,499.0,0.75,64,160.0
4964,F3,499.0,0.75,64,160.0
4965,F#2,499.0,1/100,109,160.0
4966,D2,499.0,1/100,109,160.0
4967,C2,499.5,0.5,90,160.0
4968,E-2,499.5,0.25,64,160.0
4969,B-2,499.5,0.25,64,160.0
4970,E-3,499.5,0.25,64,160.0
4971,F#2,499.5,1/100,109,160.0
4972,D2,499.5,1/100,109,160.0
4973,F3,500.0,0.5,64,160.0
4974,E-2,500.0,1.25,64,160.0
4975,E-2,500.0,1.5,90,160.0
4976,B-3,500.0,0.75,64,160.0
4977,E-4,500.0,0.75,64,160.0
4978,F#2,500.0,1/100,109,160.0
4979,B1,500.0,1/100,109,160.0
4980,C#3,500.0,1/100,109,160.0
4981,B-2,500.5,0.75,64,160.0
4982,G3,500.5,0.25,64,160.0
4983,F#2,500.5,1/100,109,160.0
4984,E-3,501.0,0.25,64,160.0
4985,F#2,501.0,1/100,109,160.0
4986,B-2,501.5,0.5,90,160.0
4987,E-2,501.5,0.25,64,160.0
4988,B-3,501.5,0.25,64,160.0
4989,G3,501.5,0.25,64,160.0
4990,E-4,501.5,0.25,64,160.0
4991,E-3,501.5,0.25,64,160.0
4992,B-2,501.5,0.25,64,160.0
4993,F#2,501.5,1/100,109,160.0
4994,B1,501.5,1/100,109,160.0
4995,E-2,502.0,1.25,64,160.0
4996,C3,502.0,0.25,90,160.0
4997,E-4,502.0,1.0,64,160.0
4998,B-3,502.0,1.0,64,160.0
4999,G3,502.0,1.0,64,160.0
5000,F#2,502.0,1/100,109,160.0
5001,D2,502.0,1/100,109,160.0
5002,B-2,502.5,0.75,64,160.0
5003,F#2,502.5,1/100,109,160.0
5004,E-3,503.0,0.25,64,160.0
5005,B-2,503.0,1.0,90,160.0
5006,F#2,503.0,1/100,109,160.0
5007,F#2,503.5,1/100,109,160.0
5008,G3,503.5,0.5,64,160.0
5009,E-4,503.5,0.5,64,160.0
5010,B-3,503.5,0.5,64,160.0
5011,E-2,503.5,0.25,64,160.0
5012,E-3,503.5,0.25,64,160.0
5013,B-2,503.5,0.25,64,160.0
5014,E-2,504.0,1.25,64,160.0
5015,B-2,504.0,2.25,90,160.0
5016,G3,504.0,1.25,64,160.0
5017,E-4,504.0,1.25,64,160.0
5018,B-3,504.0,1.25,64,160.0
5019,F#2,504.0,1/100,109,160.0
5020,B1,504.0,1/100,109,160.0
5021,B-2,504.5,0.75,64,160.0
5022,F#2,504.5,1/100,109,160.0
5023,E-3,505.0,0.25,64,160.0
5024,F#2,505.0,1/100,109,160.0
5025,B-3,505.5,1.0,64,160.0
5026,E-4,505.5,1.25,64,160.0
5027,F3,505.5,1.5,64,160.0
5028,E-2,505.5,0.25,64,160.0
5029,E-3,505.5,0.25,64,160.0
5030,B-2,505.5,0.25,64,160.0
5031,F#2,505.5,1/100,109,160.0
5032,B1,505.5,1/100,109,160.0
5033,E-2,506.0,1.25,64,160.0
5034,F#2,506.0,1/100,109,160.0
5035,D2,506.0,1/100,109,160.0
5036,B-2,506.5,0.75,64,160.0
5037,B-3,506.5,0.25,64,160.0
5038,F#2,506.5,1/100,109,160.0
5039,F#2,506.917,0.125,90,160.0
5040,F3,507.0,0.75,64,160.0
5041,G2,507.0,0.25,90,160.0
5042,F#2,507.0,1/100,109,160.0
5043,B-3,507.0,0.5,64,160.0
5044,E-4,507.0,0.5,64,160.0
5045,C2,507.5,0.5,90,160.0
5046,F#2,507.5,1/100,109,160.0
5047,E-2,507.5,0.25,64,160.0
5048,E-3,507.5,0.25,64,160.0
5049,B-2,507.5,0.25,64,160.0
5050,F3,508.0,0.25,64,160.0
5051,E-2,508.0,1.25,64,160.0
5052,E-2,508.0,1.5,90,160.0
5053,B-3,508.0,0.5,64,160.0
5054,E-4,508.0,0.5,64,160.0
5055,F#2,508.0,1/100,109,160.0
5056,B1,508.0,1/100,109,160.0
5057,B-2,508.5,0.75,64,160.0
5058,F#2,508.5,1/100,109,160.0
5059,B-3,508.5,0.25,64,160.0
5060,E-4,508.5,0.25,64,160.0
5061,G3,508.5,0.25,64,160.0
5062,E-3,509.0,0.25,64,160.0
5063,F#2,509.0,1/100,109,160.0
5064,E-4,509.25,0.5,95,160.0
5065,G4,509.25,0.5,95,160.0
5066,B-2,509.5,0.5,90,160.0
5067,B-3,509.5,0.25,64,160.0
5068,E-4,509.5,0.25,64,160.0
5069,G3,509.5,0.25,64,160.0
5070,E-2,509.5,0.25,64,160.0
5071,B-2,509.5,0.25,64,160.0
5072,E-3,509.5,0.25,64,160.0
5073,F#2,509.5,1/100,109,160.0
5074,B1,509.5,1/100,109,160.0
5075,C3,510.0,0.25,90,160.0
5076,B-3,510.0,1.25,64,160.0
5077,E-4,510.0,1.25,64,160.0
5078,G3,510.0,1.25,64,160.0
5079,E-2,510.0,1.25,64,160.0
5080,F#2,510.0,1/100,109,160.0
5081,D2,510.0,1/100,109,160.0
5082,B-2,510.5,0.75,64,160.0
5083,F#2,510.5,1/100,109,160.0
5084,E-3,511.0,0.25,64,160.0
5085,B-2,511.0,1.0,90,160.0
5086,F#2,511.0,1/100,109,160.0
5087,D4,511.25,0.5,95,160.0
5088,G4,511.25,0.5,95,160.0
5089,F#2,511.5,1/100,109,160.0
5090,B-3,511.5,0.5,64,160.0
5091,G3,511.5,0.5,64,160.0
5092,E-4,511.5,0.5,64,160.0
5093,E-2,511.5,0.25,64,160.0
5094,E-3,511.5,0.25,64,160.0
5095,B-2,511.5,0.25,64,160.0
5096,B-2,512.0,2.25,90,160.0
5097,B-3,512.0,1.25,64,160.0
5098,G3,512.0,1.25,64,160.0
5099,E-4,512.0,1.25,64,160.0
5100,E-2,512.0,1.25,64,160.0
5101,B-3,512.0,1.25,64,160.0
5102,G3,512.0,1.25,64,160.0
5103,E-4,512.0,1.25,64,160.0
5104,F#2,512.0,1/100,109,160.0
5105,B1,512.0,1/100,109,160.0
5106,B-2,512.5,0.75,64,160.0
5107,F#2,512.5,1/100,109,160.0
5108,E-3,513.0,0.25,64,160.0
5109,F#2,513.0,1/100,109,160.0
5110,C4,513.25,0.25,95,160.0
5111,G4,513.25,1.5,95,160.0
5112,B-3,513.5,0.25,95,160.0
5113,E-2,513.5,0.25,64,160.0
5114,E-3,513.5,0.25,64,160.0
5115,B-2,513.5,0.25,64,160.0
5116,B-3,513.5,1.0,64,160.0
5117,E-4,513.5,1.0,64,160.0
5118,F3,513.5,1.0,64,160.0
5119,F#2,513.5,1/100,109,160.0
5120,B1,513.5,1/100,109,160.0
5121,G3,513.75,0.25,95,160.0
5122,E-2,514.0,1.25,64,160.0
5123,E-3,514.0,2.0,95,160.0
5124,F#2,514.0,1/100,109,160.0
5125,D2,514.0,1/100,109,160.0
5126,B-2,514.5,0.75,64,160.0
5127,F#2,514.5,1/100,109,160.0
5128,F#2,514.917,0.125,90,160.0
5129,E-3,515.0,0.25,64,160.0
5130,G2,515.0,0.25,90,160.0
5131,F#2,515.0,1/100,109,160.0
5132,B-3,515.0,0.75,64,160.0
5133,E-4,515.0,0.75,64,160.0
5134,F3,515.0,0.75,64,160.0
5135,F4,515.25,0.5,95,160.0
5136,F#3,515.25,0.5,95,160.0
5137,C2,515.5,0.5,90,160.0
5138,F#2,515.5,1/100,109,160.0
5139,E-2,515.5,0.25,64,160.0
5140,B-2,515.5,0.25,64,160.0
5141,E-3,515.5,0.25,64,160.0
5142,E-4,515.75,1.5,95,160.0
5143,G3,515.75,1.5,95,160.0
5144,F3,516.0,0.5,64,160.0
5145,E-2,516.0,1.25,64,160.0
5146,E-2,516.0,1.5,90,160.0
5147,B-3,516.0,0.75,64,160.0
5148,E-4,516.0,0.75,64,160.0
5149,F#2,516.0,1/100,109,160.0
5150,B1,516.0,1/100,109,160.0
5151,B-2,516.5,0.75,64,160.0
5152,G3,516.5,0.25,64,160.0
5153,F#2,516.5,1/100,109,160.0
5154,E-3,517.0,0.25,64,160.0
5155,F#2,517.0,1/100,109,160.0
5156,E-4,517.25,4.0,95,160.0
5157,G3,517.25,4.0,95,160.0
5158,B-2,517.5,0.5,90,160.0
5159,E-2,517.5,0.25,64,160.0
5160,B-3,517.5,0.25,64,160.0
5161,G3,517.5,0.25,64,160.0
5162,E-4,517.5,0.25,64,160.0
5163,E-3,517.5,0.25,64,160.0
5164,B-2,517.5,0.25,64,160.0
5165,F#2,517.5,1/100,109,160.0
5166,B1,517.5,1/100,109,160.0
5167,E-2,518.0,1.25,64,160.0
5168,C3,518.0,0.25,90,160.0
5169,E-4,518.0,1.0,64,160.0
5170,B-3,518.0,1.0,64,160.0
5171,G3,518.0,1.0,64,160.0
5172,F#2,518.0,1/100,109,160.0
5173,D2,518.0,1/100,109,160.0
5174,B-2,518.5,0.75,64,160.0
5175,F#2,518.5,1/100,109,160.0
5176,E-3,519.0,0.25,64,160.0
5177,B-2,519.0,1.0,90,160.0
5178,F#2,519.0,1/100,109,160.0
5179,F#2,519.5,1/100,109,160.0
5180,G3,519.5,0.5,64,160.0
5181,E-4,519.5,0.5,64,160.0
5182,B-3,519.5,0.5,64,160.0
5183,E-2,519.5,0.25,64,160.0
5184,E-3,519.5,0.25,64,160.0
5185,B-2,519.5,0.25,64,160.0
5186,E-2,520.0,1.25,64,160.0
5187,B-2,520.0,2.25,90,160.0
5188,G3,520.0,1.25,64,160.0
5189,E-4,520.0,1.25,64,160.0
5190,B-3,520.0,1.25,64,160.0
5191,F#2,520.0,1/100,109,160.0
5192,B1,520.0,1/100,109,160.0
5193,B-2,520.5,0.75,64,160.0
5194,F#2,520.5,1/100,109,160.0
5195,E-3,521.0,0.25,64,160.0
5196,F#2,521.0,1/100,109,160.0
5197,E-4,521.25,3.75,95,160.0
5198,G3,521.25,3.0,95,160.0
5199,B-3,521.5,1.0,64,160.0
5200,E-4,521.5,1.25,64,160.0
5201,F3,521.5,1.5,64,160.0
5202,E-2,521.5,0.25,64,160.0
5203,E-3,521.5,0.25,64,160.0
5204,B-2,521.5,0.25,64,160.0
5205,F#2,521.5,1/100,109,160.0
5206,B1,521.5,1/100,109,160.0
5207,E-2,522.0,1.25,64,160.0
5208,F#2,522.0,1/100,109,160.0
5209,D2,522.0,1/100,109,160.0
5210,B-2,522.5,0.75,64,160.0
5211,B-3,522.5,0.25,64,160.0
5212,F#2,522.5,1/100,109,160.0
5213,F#2,522.917,0.125,90,160.0
5214,F3,523.0,0.75,64,160.0
5215,G2,523.0,0.25,90,160.0
5216,F#2,523.0,1/100,109,160.0
5217,B-3,523.0,0.5,64,160.0
5218,E-4,523.0,0.5,64,160.0
5219,C2,523.5,0.5,90,160.0
5220,F#2,523.5,1/100,109,160.0
5221,E-2,523.5,0.25,64,160.0
5222,E-3,523.5,0.25,64,160.0
5223,B-2,523.5,0.25,64,160.0
5224,F3,524.0,0.25,64,160.0
5225,E-2,524.0,1.25,64,160.0
5226,E-2,524.0,1.5,90,160.0
5227,B-3,524.0,0.5,64,160.0
5228,E-4,524.0,0.5,64,160.0
5229,F#2,524.0,1/100,109,160.0
5230,B1,524.0,1/100,109,160.0
5231,B-2,524.5,0.75,64,160.0
5232,F#2,524.5,1/100,109,160.0
5233,B-3,524.5,0.25,64,160.0
5234,E-4,524.5,0.25,64,160.0
5235,G3,524.5,0.25,64,160.0
5236,E-3,525.0,0.25,64,160.0
5237,F#2,525.0,1/100,109,160.0
5238,E-4,525.25,0.5,95,160.0
5239,G4,525.25,0.5,95,160.0
5240,B-2,525.5,0.5,90,160.0
5241,B-3,525.5,0.25,64,160.0
5242,E-4,525.5,0.25,64,160.0
5243,G3,525.5,0.25,64,160.0
5244,E-2,525.5,0.25,64,160.0
5245,B-2,525.5,0.25,64,160.0
5246,E-3,525.5,0.25,64,160.0
5247,F#2,525.5,1/100,109,160.0
5248,B1,525.5,1/100,109,160.0
5249,C3,526.0,0.25,90,160.0
5250,B-3,526.0,1.25,64,160.0
5251,E-4,526.0,1.25,64,160.0
5252,G3,526.0,1.25,64,160.0
5253,E-2,526.0,1.25,64,160.0
5254,F#2,526.0,1/100,109,160.0
5255,D2,526.0,1/100,109,160.0
5256,B-2,526.5,0.75,64,160.0
5257,F#2,526.5,1/100,109,160.0
5258,E-3,527.0,0.25,64,160.0
5259,B-2,527.0,1.0,90,160.0
5260,F#2,527.0,1/100,109,160.0
5261,G4,527.25,0.5,95,160.0
5262,D4,527.25,0.75,95,160.0
5263,F#2,527.5,1/100,109,160.0
5264,B-3,527.5,0.5,64,160.0
5265,G3,527.5,0.5,64,160.0
5266,E-4,527.5,0.5,64,160.0
5267,E-2,527.5,0.25,64,160.0
5268,E-3,527.5,0.25,64,160.0
5269,B-2,527.5,0.25,64,160.0
5270,B-2,528.0,2.25,90,160.0
5271,B-3,528.0,1.25,64,160.0
5272,G3,528.0,1.25,64,160.0
5273,E-4,528.0,1.25,64,160.0
5274,E-2,528.0,1.25,64,160.0
5275,B-3,528.0,1.25,64,160.0
5276,G3,528.0,1.25,64,160.0
5277,E-4,528.0,1.25,64,160.0
5278,F#2,528.0,1/100,109,160.0
5279,B1,528.0,1/100,109,160.0
5280,B-2,528.5,0.75,64,160.0
5281,F#2,528.5,1/100,109,160.0
5282,E-3,529.0,0.25,64,160.0
5283,F#2,529.0,1/100,109,160.0
5284,C4,529.25,0.25,95,160.0
5285,G4,529.25,1.5,95,160.0
5286,B-3,529.5,0.25,95,160.0
5287,E-2,529.5,0.25,64,160.0
5288,E-3,529.5,0.25,64,160.0
5289,B-2,529.5,0.25,64,160.0
5290,B-3,529.5,1.0,64,160.0
5291,E-4,529.5,1.0,64,160.0
5292,F3,529.5,1.0,64,160.0
5293,F#2,529.5,1/100,109,160.0
5294,B1,529.5,1/100,109,160.0
5295,G3,529.75,0.25,95,160.0
5296,E-2,530.0,1.25,64,160.0
5297,E-3,530.0,2.0,95,160.0
5298,F#2,530.0,1/100,109,160.0
5299,D2,530.0,1/100,109,160.0
5300,B-2,530.5,0.75,64,160.0
5301,F#2,530.5,1/100,109,160.0
5302,F#2,530.917,0.125,90,160.0
5303,E-3,531.0,0.25,64,160.0
5304,G2,531.0,0.25,90,160.0
5305,B-3,531.0,0.75,64,160.0
5306,E-4,531.0,0.75,64,160.0
5307,F3,531.0,0.75,64,160.0
5308,F#2,531.0,1/100,109,160.0
5309,D2,531.0,1/100,109,160.0
5310,F4,531.25,0.5,95,160.0
5311,F#3,531.25,0.5,95,160.0
5312,C2,531.5,0.5,90,160.0
5313,E-2,531.5,0.25,64,160.0
5314,B-2,531.5,0.25,64,160.0
5315,E-3,531.5,0.25,64,160.0
5316,F#2,531.5,1/100,109,160.0
5317,D2,531.5,1/100,109,160.0
5318,E-4,531.75,1.5,95,160.0
5319,G3,531.75,1.5,95,160.0
5320,C4,532.0,0.5,64,160.0
5321,B-2,532.0,1.25,64,160.0
5322,B-1,532.0,1.5,90,160.0
5323,F4,532.0,0.75,64,160.0
5324,B-4,532.0,0.75,64,160.0
5325,F#2,532.0,1/100,109,160.0
5326,B1,532.0,1/100,109,160.0
5327,C#3,532.0,1/100,109,160.0
5328,F3,532.5,0.75,64,160.0
5329,D4,532.5,0.25,64,160.0
5330,F#2,532.5,1/100,109,160.0
5331,B-3,533.0,0.25,64,160.0
5332,F#2,533.0,1/100,109,160.0
5333,E-4,533.25,4.0,95,160.0
5334,G3,533.25,4.0,95,160.0
5335,F2,533.5,0.5,90,160.0
5336,B-2,533.5,0.25,64,160.0
5337,F4,533.5,0.25,64,160.0
5338,D4,533.5,0.25,64,160.0
5339,B-4,533.5,0.25,64,160.0
5340,B-3,533.5,0.25,64,160.0
5341,F3,533.5,0.25,64,160.0
5342,F#2,533.5,1/100,109,160.0
5343,B1,533.5,1/100,109,160.0
5344,B-2,534.0,1.25,64,160.0
5345,G2,534.0,0.25,90,160.0
5346,B-4,534.0,1.0,64,160.0
5347,F4,534.0,1.0,64,160.0
5348,D4,534.0,1.0,64,160.0
5349,F#2,534.0,1/100,109,160.0
5350,D2,534.0,1/100,109,160.0
5351,F3,534.5,0.75,64,160.0
5352,F#2,534.5,1/100,109,160.0
5353,B-3,535.0,0.25,64,160.0
5354,F2,535.0,1.0,90,160.0
5355,F#2,535.0,1/100,109,160.0
5356,F#2,535.5,1/100,109,160.0
5357,D4,535.5,0.5,64,160.0
5358,B-4,535.5,0.5,64,160.0
5359,F4,535.5,0.5,64,160.0
5360,B-2,535.5,0.25,64,160.0
5361,B-3,535.5,0.25,64,160.0
5362,F3,535.5,0.25,64,160.0
5363,B-2,536.0,1.25,64,160.0
5364,F2,536.0,2.25,90,160.0
5365,D4,536.0,1.25,64,160.0
5366,B-4,536.0,1.25,64,160.0
5367,F4,536.0,1.25,64,160.0
5368,F#2,536.0,1/100,109,160.0
5369,B1,536.0,1/100,109,160.0
5370,F3,536.5,0.75,64,160.0
5371,F#2,536.5,1/100,109,160.0
5372,B-3,537.0,0.25,64,160.0
5373,F#2,537.0,1/100,109,160.0
5374,E-4,537.25,1.75,95,160.0
5375,G3,537.25,1.75,95,160.0
5376,F4,537.5,1.0,64,160.0
5377,B-4,537.5,1.25,64,160.0
5378,C4,537.5,1.5,64,160.0
5379,B-2,537.5,0.25,64,160.0
5380,B-3,537.5,0.25,64,160.0
5381,F3,537.5,0.25,64,160.0
5382,F#2,537.5,1/100,109,160.0
5383,B1,537.5,1/100,109,160.0
5384,B-2,538.0,1.25,64,160.0
5385,F#2,538.0,1/100,109,160.0
5386,D2,538.0,1/100,109,160.0
5387,F3,538.5,0.75,64,160.0
5388,F4,538.5,0.25,64,160.0
5389,F#2,538.5,1/100,109,160.0
5390,C#2,538.917,0.125,90,160.0
5391,C4,539.0,0.75,64,160.0
5392,D2,539.0,0.25,90,160.0
5393,F#2,539.0,1/100,109,160.0
5394,F4,539.0,0.5,64,160.0
5395,B-4,539.0,0.5,64,160.0
5396,E-4,539.25,99/100,95,160.0
5397,F3,539.25,0.5,95,160.0
5398,G1,539.5,0.5,90,160.0
5399,F#2,539.5,1/100,109,160.0
5400,B-2,539.5,0.25,64,160.0
5401,B-3,539.5,0.25,64,160.0
5402,F3,539.5,0.25,64,160.0
5403,G3,539.75,0.5,95,160.0
5404,C4,540.0,0.25,64,160.0
5405,B-2,540.0,1.25,64,160.0
5406,B-1,540.0,1.5,90,160.0
5407,F4,540.0,0.5,64,160.0
5408,B-4,540.0,0.5,64,160.0
5409,F#2,540.0,1/100,109,160.0
5410,B1,540.0,1/100,109,160.0
5411,B-3,540.25,0.5,95,160.0
5412,F3,540.5,0.75,64,160.0
5413,F#2,540.5,1/100,109,160.0
5414,F4,540.5,0.25,64,160.0
5415,B-4,540.5,0.25,64,160.0
5416,D4,540.5,0.25,64,160.0
5417,E-4,540.75,0.5,95,160.0
5418,B-3,541.0,0.25,64,160.0
5419,F#2,541.0,1/100,109,160.0
5420,F3,541.25,4.0,95,160.0
5421,D4,541.25,4.0,95,160.0
5422,F2,541.5,0.5,90,160.0
5423,F4,541.5,0.25,64,160.0
5424,B-4,541.5,0.25,64,160.0
5425,D4,541.5,0.25,64,160.0
5426,B-2,541.5,0.25,64,160.0
5427,F3,541.5,0.25,64,160.0
5428,B-3,541.5,0.25,64,160.0
5429,F#2,541.5,1/100,109,160.0
5430,B1,541.5,1/100,109,160.0
5431,G2,542.0,0.25,90,160.0
5432,F4,542.0,1.25,64,160.0
5433,B-4,542.0,1.25,64,160.0
5434,D4,542.0,1.25,64,160.0
5435,B-2,542.0,1.25,64,160.0
5436,F#2,542.0,1/100,109,160.0
5437,D2,542.0,1/100,109,160.0
5438,F3,542.5,0.75,64,160.0
5439,F#2,542.5,1/100,109,160.0
5440,B-3,543.0,0.25,64,160.0
5441,F2,543.0,1.0,90,160.0
5442,F#2,543.0,1/100,109,160.0
5443,F#2,543.5,1/100,109,160.0
5444,F4,543.5,0.5,64,160.0
5445,D4,543.5,0.5,64,160.0
5446,B-4,543.5,0.5,64,160.0
5447,B-2,543.5,0.25,64,160.0
5448,B-3,543.5,0.25,64,160.0
5449,F3,543.5,0.25,64,160.0
5450,F2,544.0,1.0,90,160.0
5451,F4,544.0,1.25,64,160.0
5452,D4,544.0,1.25,64,160.0
5453,B-4,544.0,1.25,64,160.0
5454,B-2,544.0,1.25,64,160.0
5455,F4,544.0,1.25,64,160.0
5456,D4,544.0,1.25,64,160.0
5457,B-4,544.0,1.25,64,160.0
5458,F#2,544.0,1/100,109,160.0
5459,B1,544.0,1/100,109,160.0
5460,F3,544.5,0.75,64,160.0
5461,F#2,544.5,1/100,109,160.0
5462,B-3,545.0,0.25,64,160.0
5463,B-1,545.0,1.0,90,160.0
5464,F#2,545.0,1/100,109,160.0
5465,B-2,545.5,0.25,64,160.0
5466,B-3,545.5,0.25,64,160.0
5467,F3,545.5,0.25,64,160.0
5468,F4,545.5,1.0,64,160.0
5469,B-4,545.5,1.0,64,160.0
5470,C4,545.5,1.0,64,160.0
5471,F#2,545.5,1/100,109,160.0
5472,B1,545.5,1/100,109,160.0
5473,B-2,546.0,1.25,64,160.0
5474,C2,546.0,1.0,90,160.0
5475,F#2,546.0,1/100,109,160.0
5476,D2,546.0,1/100,109,160.0
5477,F3,546.5,0.75,64,160.0
5478,F#2,546.5,1/100,109,160.0
5479,B-3,547.0,0.25,64,160.0
5480,D2,547.0,1.0,90,160.0
5481,F4,547.0,0.75,64,160.0
5482,B-4,547.0,0.75,64,160.0
5483,C4,547.0,0.75,64,160.0
5484,F#2,547.0,1/100,109,160.0
5485,D2,547.0,1/100,109,160.0
5486,F3,547.25,2.0,95,160.0
5487,D4,547.25,2.0,95,160.0
5488,B-2,547.5,0.25,64,160.0
5489,F3,547.5,0.25,64,160.0
5490,B-3,547.5,0.25,64,160.0
5491,F#2,547.5,1/100,109,160.0
5492,D2,547.5,1/100,109,160.0
5493,F3,548.0,0.5,64,160.0
5494,E-2,548.0,1.25,64,160.0
5495,E-2,548.0,1.5,90,160.0
5496,B-3,548.0,0.75,64,160.0
5497,E-4,548.0,0.75,64,160.0
5498,F#2,548.0,1/100,109,160.0
5499,B1,548.0,1/100,109,160.0
5500,C#3,548.0,1/100,109,160.0
5501,B-2,548.5,0.75,64,160.0
5502,G3,548.5,0.25,64,160.0
5503,F#2,548.5,1/100,109,160.0
5504,E-3,549.0,0.25,64,160.0
5505,F#2,549.0,1/100,109,160.0
5506,D4,549.25,0.75,95,160.0
5507,E-3,549.25,0.5,95,160.0
5508,B-2,549.5,0.5,90,160.0
5509,E-2,549.5,0.25,64,160.0
5510,B-3,549.5,0.25,64,160.0
5511,G3,549.5,0.25,64,160.0
5512,E-4,549.5,0.25,64,160.0
5513,E-3,549.5,0.25,64,160.0
5514,B-2,549.5,0.25,64,160.0
5515,F#2,549.5,1/100,109,160.0
5516,B1,549.5,1/100,109,160.0
5517,C4,549.75,0.5,95,160.0
5518,D3,549.75,0.5,95,160.0
5519,E-2,550.0,1.25,64,160.0
5520,C3,550.0,0.25,90,160.0
5521,E-4,550.0,1.0,64,160.0
5522,B-3,550.0,1.0,64,160.0
5523,G3,550.0,1.0,64,160.0
5524,F#2,550.0,1/100,109,160.0
5525,D2,550.0,1/100,109,160.0
5526,B-3,550.25,0.5,95,160.0
5527,C3,550.25,0.5,95,160.0
5528,B-2,550.5,0.75,64,160.0
5529,F#2,550.5,1/100,109,160.0
5530,G#3,550.75,0.5,95,160.0
5531,B-2,550.75,0.5,95,160.0
5532,E-3,551.0,0.25,64,160.0
5533,B-2,551.0,1.0,90,160.0
5534,F#2,551.0,1/100,109,160.0
5535,G#3,551.25,4.0,95,160.0
5536,B-2,551.25,4.0,95,160.0
5537,F#2,551.5,1/100,109,160.0
5538,G3,551.5,0.5,64,160.0
5539,E-4,551.5,0.5,64,160.0
5540,B-3,551.5,0.5,64,160.0
5541,E-2,551.5,0.25,64,160.0
5542,E-3,551.5,0.25,64,160.0
5543,B-2,551.5,0.25,64,160.0
5544,E-2,552.0,1.25,64,160.0
5545,B-2,552.0,2.25,90,160.0
5546,G3,552.0,1.25,64,160.0
5547,E-4,552.0,1.25,64,160.0
5548,B-3,552.0,1.25,64,160.0
5549,F#2,552.0,1/100,109,160.0
5550,B1,552.0,1/100,109,160.0
5551,B-2,552.5,0.75,64,160.0
5552,F#2,552.5,1/100,109,160.0
5553,E-3,553.0,0.25,64,160.0
5554,F#2,553.0,1/100,109,160.0
5555,B-3,553.5,1.0,64,160.0
5556,E-4,553.5,1.25,64,160.0
5557,F3,553.5,1.5,64,160.0
5558,E-2,553.5,0.25,64,160.0
5559,E-3,553.5,0.25,64,160.0
5560,B-2,553.5,0.25,64,160.0
5561,F#2,553.5,1/100,109,160.0
5562,B1,553.5,1/100,109,160.0
5563,E-2,554.0,1.25,64,160.0
5564,F#2,554.0,1/100,109,160.0
5565,D2,554.0,1/100,109,160.0
5566,B-2,554.5,0.75,64,160.0
5567,B-3,554.5,0.25,64,160.0
5568,F#2,554.5,1/100,109,160.0
5569,F#2,554.917,0.125,90,160.0
5570,F3,555.0,0.75,64,160.0
5571,G2,555.0,0.25,90,160.0
5572,F#2,555.0,1/100,109,160.0
5573,B-3,555.0,0.5,64,160.0
5574,E-4,555.0,0.5,64,160.0
5575,G#3,555.25,2.5,95,160.0
5576,B-2,555.25,3.0,95,160.0
5577,C2,555.5,0.5,90,160.0
5578,F#2,555.5,1/100,109,160.0
5579,E-2,555.5,0.25,64,160.0
5580,E-3,555.5,0.25,64,160.0
5581,B-2,555.5,0.25,64,160.0
5582,F3,556.0,0.25,64,160.0
5583,E-2,556.0,1.25,64,160.0
5584,E-2,556.0,1.5,90,160.0
5585,B-3,556.0,0.5,64,160.0
5586,E-4,556.0,0.5,64,160.0
5587,F#2,556.0,1/100,109,160.0
5588,B1,556.0,1/100,109,160.0
5589,B-2,556.5,0.75,64,160.0
5590,F#2,556.5,1/100,109,160.0
5591,B-3,556.5,0.25,64,160.0
5592,E-4,556.5,0.25,64,160.0
5593,G3,556.5,0.25,64,160.0
5594,E-3,557.0,0.25,64,160.0
5595,F#2,557.0,1/100,109,160.0
5596,B-2,557.5,0.5,90,160.0
5597,B-3,557.5,0.25,64,160.0
5598,E-4,557.5,0.25,64,160.0
5599,G3,557.5,0.25,64,160.0
5600,E-2,557.5,0.25,64,160.0
5601,B-2,557.5,0.25,64,160.0
5602,E-3,557.5,0.25,64,160.0
5603,F#2,557.5,1/100,109,160.0
5604,B1,557.5,1/100,109,160.0
5605,C3,558.0,0.25,90,160.0
5606,B-3,558.0,1.25,64,160.0
5607,E-4,558.0,1.25,64,160.0
5608,G3,558.0,1.25,64,160.0
5609,E-2,558.0,1.25,64,160.0
5610,F#2,558.0,1/100,109,160.0
5611,D2,558.0,1/100,109,160.0
5612,B-2,558.5,0.75,64,160.0
5613,F#2,558.5,1/100,109,160.0
5614,E-3,559.0,0.25,64,160.0
5615,B-2,559.0,1.0,90,160.0
5616,F#2,559.0,1/100,109,160.0
5617,E-4,559.25,271/500,95,160.0
5618,G4,559.25,271/500,95,160.0
5619,F#2,559.5,1/100,109,160.0
5620,B-3,559.5,0.5,64,160.0
5621,G3,559.5,0.5,64,160.0
5622,E-4,559.5,0.5,64,160.0
5623,E-2,559.5,0.25,64,160.0
5624,E-3,559.5,0.25,64,160.0
5625,B-2,559.5,0.25,64,160.0
5626,B-2,560.0,2.25,90,160.0
5627,B-3,560.0,1.25,64,160.0
5628,G3,560.0,1.25,64,160.0
5629,E-4,560.0,1.25,64,160.0
5630,E-2,560.0,1.25,64,160.0
5631,B-3,560.0,1.25,64,160.0
5632,G3,560.0,1.25,64,160.0
5633,E-4,560.0,1.25,64,160.0
5634,F#2,560.0,1/100,109,160.0
5635,B1,560.0,1/100,109,160.0
5636,B-2,560.5,0.75,64,160.0
5637,F#2,560.5,1/100,109,160.0
5638,E-3,561.0,0.25,64,160.0
5639,F#2,561.0,1/100,109,160.0
5640,D4,561.25,271/500,95,160.0
5641,G4,561.25,0.688,95,160.0
5642,E-2,561.5,0.25,64,160.0
5643,E-3,561.5,0.25,64,160.0
5644,B-2,561.5,0.25,64,160.0
5645,B-3,561.5,1.0,64,160.0
5646,E-4,561.5,1.0,64,160.0
5647,F3,561.5,1.0,64,160.0
5648,F#2,561.5,1/100,109,160.0
5649,B1,561.5,1/100,109,160.0
5650,E-2,562.0,1.25,64,160.0
5651,F#2,562.0,1/100,109,160.0
5652,D2,562.0,1/100,109,160.0
5653,B-2,562.5,0.75,64,160.0
5654,F#2,562.5,1/100,109,160.0
5655,F#2,562.917,0.125,90,160.0
5656,E-3,563.0,0.25,64,160.0
5657,G2,563.0,0.25,90,160.0
5658,B-3,563.0,0.75,64,160.0
5659,E-4,563.0,0.75,64,160.0
5660,F3,563.0,0.75,64,160.0
5661,F#2,563.0,1/100,109,160.0
5662,D2,563.0,1/100,109,160.0
5663,C4,563.25,0.25,95,160.0
5664,G4,563.25,1.0,95,160.0
5665,C2,563.5,0.5,90,160.0
5666,B-3,563.5,0.25,95,160.0
5667,E-2,563.5,0.25,64,160.0
5668,G3,563.5,0.25,64,160.0
5669,B-2,563.5,0.25,64,160.0
5670,F#2,563.5,1/100,109,160.0
5671,D2,563.5,1/100,109,160.0
5672,G3,563.75,0.25,95,160.0
5673,F3,564.0,0.5,64,160.0
5674,E-2,564.0,1.25,64,160.0
5675,E-2,564.0,1.5,90,160.0
5676,E-3,564.0,1.25,95,160.0
5677,B-3,564.0,0.75,64,160.0
5678,E-4,564.0,0.75,64,160.0
5679,F#2,564.0,1/100,109,160.0
5680,B1,564.0,1/100,109,160.0
5681,C#3,564.0,1/100,109,160.0
5682,B-2,564.5,0.75,64,160.0
5683,G3,564.5,0.25,64,160.0
5684,F#2,564.5,1/100,109,160.0
5685,E-3,565.0,0.25,64,160.0
5686,F#2,565.0,1/100,109,160.0
5687,F#3,565.25,0.5,95,160.0
5688,F4,565.25,0.5,95,160.0
5689,B-2,565.5,0.5,90,160.0
5690,E-2,565.5,0.25,64,160.0
5691,B-3,565.5,0.25,64,160.0
5692,G3,565.5,0.25,64,160.0
5693,E-4,565.5,0.25,64,160.0
5694,E-3,565.5,0.25,64,160.0
5695,B-2,565.5,0.25,64,160.0
5696,F#2,565.5,1/100,109,160.0
5697,B1,565.5,1/100,109,160.0
5698,G3,565.75,1.5,95,160.0
5699,E-4,565.75,1.5,95,160.0
5700,E-2,566.0,1.25,64,160.0
5701,C3,566.0,0.25,90,160.0
5702,E-4,566.0,1.0,64,160.0
5703,B-3,566.0,1.0,64,160.0
5704,G3,566.0,1.0,64,160.0
5705,F#2,566.0,1/100,109,160.0
5706,D2,566.0,1/100,109,160.0
5707,B-2,566.5,0.75,64,160.0
5708,F#2,566.5,1/100,109,160.0
5709,E-3,567.0,0.25,64,160.0
5710,B-2,567.0,1.0,90,160.0
5711,F#2,567.0,1/100,109,160.0
5712,F#2,567.5,1/100,109,160.0
5713,G3,567.5,0.5,64,160.0
5714,E-4,567.5,0.5,64,160.0
5715,B-3,567.5,0.5,64,160.0
5716,E-2,567.5,0.25,64,160.0
5717,E-3,567.5,0.25,64,160.0
5718,B-2,567.5,0.25,64,160.0
5719,E-2,568.0,1.25,64,160.0
5720,B-2,568.0,2.25,90,160.0
5721,G3,568.0,1.25,64,160.0
5722,E-4,568.0,1.25,64,160.0
5723,B-3,568.0,1.25,64,160.0
5724,F#2,568.0,1/100,109,160.0
5725,B1,568.0,1/100,109,160.0
5726,B-2,568.5,0.75,64,160.0
5727,F#2,568.5,1/100,109,160.0
5728,E-3,569.0,0.25,64,160.0
5729,F#2,569.0,1/100,109,160.0
5730,B-3,569.5,1.0,64,160.0
5731,E-4,569.5,1.25,64,160.0
5732,F3,569.5,1.5,64,160.0
5733,E-2,569.5,0.25,64,160.0
5734,E-3,569.5,0.25,64,160.0
5735,B-2,569.5,0.25,64,160.0
5736,F#2,569.5,1/100,109,160.0
5737,B1,569.5,1/100,109,160.0
5738,E-2,570.0,1.25,64,160.0
5739,F#2,570.0,1/100,109,160.0
5740,D2,570.0,1/100,109,160.0
5741,B-2,570.5,0.75,64,160.0
5742,B-3,570.5,0.25,64,160.0
5743,F#2,570.5,1/100,109,160.0
5744,F#2,570.917,0.125,90,160.0
5745,F3,571.0,0.75,64,160.0
5746,G2,571.0,0.25,90,160.0
5747,F#2,571.0,1/100,109,160.0
5748,B-3,571.0,0.5,64,160.0
5749,E-4,571.0,0.5,64,160.0
5750,C2,571.5,0.5,90,160.0
5751,F#2,571.5,1/100,109,160.0
5752,E-2,571.5,0.25,64,160.0
5753,E-3,571.5,0.25,64,160.0
5754,B-2,571.5,0.25,64,160.0
5755,F3,572.0,0.25,64,160.0
5756,E-2,572.0,1.25,64,160.0
5757,E-2,572.0,1.5,90,160.0
5758,B-3,572.0,0.5,64,160.0
5759,E-4,572.0,0.5,64,160.0
5760,F#2,572.0,1/100,109,160.0
5761,B1,572.0,1/100,109,160.0
5762,B-2,572.5,0.75,64,160.0
5763,F#2,572.5,1/100,109,160.0
5764,B-3,572.5,0.25,64,160.0
5765,E-4,572.5,0.25,64,160.0
5766,G3,572.5,0.25,64,160.0
5767,E-3,573.0,0.25,64,160.0
5768,F#2,573.0,1/100,109,160.0
5769,B-2,573.5,0.5,90,160.0
5770,B-3,573.5,0.25,64,160.0
5771,E-4,573.5,0.25,64,160.0
5772,G3,573.5,0.25,64,160.0
5773,E-2,573.5,0.25,64,160.0
5774,B-2,573.5,0.25,64,160.0
5775,E-3,573.5,0.25,64,160.0
5776,F#2,573.5,1/100,109,160.0
5777,B1,573.5,1/100,109,160.0
5778,C3,574.0,0.25,90,160.0
5779,B-3,574.0,1.25,64,160.0
5780,E-4,574.0,1.25,64,160.0
5781,G3,574.0,1.25,64,160.0
5782,E-2,574.0,1.25,64,160.0
5783,F#2,574.0,1/100,109,160.0
5784,D2,574.0,1/100,109,160.0
5785,B-2,574.5,0.75,64,160.0
5786,F#2,574.5,1/100,109,160.0
5787,G3,574.5,4.0,95,160.0
5788,E-4,574.5,4.0,95,160.0
5789,E-3,575.0,0.25,64,160.0
5790,B-2,575.0,1.0,90,160.0
5791,F#2,575.0,1/100,109,160.0
5792,F#2,575.5,1/100,109,160.0
5793,B-3,575.5,0.5,64,160.0
5794,G3,575.5,0.5,64,160.0
5795,E-4,575.5,0.5,64,160.0
5796,E-2,575.5,0.25,64,160.0
5797,E-3,575.5,0.25,64,160.0
5798,B-2,575.5,0.25,64,160.0
5799,B-2,576.0,2.25,90,160.0
5800,B-3,576.0,1.25,64,160.0
5801,G3,576.0,1.25,64,160.0
5802,E-4,576.0,1.25,64,160.0
5803,E-2,576.0,1.25,64,160.0
5804,B-3,576.0,1.25,64,160.0
5805,G3,576.0,1.25,64,160.0
5806,E-4,576.0,1.25,64,160.0
5807,F#2,576.0,1/100,109,160.0
5808,B1,576.0,1/100,109,160.0
5809,B-2,576.5,0.75,64,160.0
5810,F#2,576.5,1/100,109,160.0
5811,E-3,577.0,0.25,64,160.0
5812,F#2,577.0,1/100,109,160.0
5813,E-2,577.5,0.25,64,160.0
5814,E-3,577.5,0.25,64,160.0
5815,B-2,577.5,0.25,64,160.0
5816,B-3,577.5,1.0,64,160.0
5817,E-4,577.5,1.0,64,160.0
5818,F3,577.5,1.0,64,160.0
5819,F#2,577.5,1/100,109,160.0
5820,B1,577.5,1/100,109,160.0
5821,E-2,578.0,1.25,64,160.0
5822,F#2,578.0,1/100,109,160.0
5823,D2,578.0,1/100,109,160.0
5824,B-2,578.5,0.75,64,160.0
5825,F#2,578.5,1/100,109,160.0
5826,G3,578.5,3.25,95,160.0
5827,E-4,578.5,3.25,95,160.0
5828,F#2,578.917,0.125,90,160.0
5829,E-3,579.0,0.25,64,160.0
5830,G2,579.0,0.25,90,160.0
5831,F#2,579.0,1/100,109,160.0
5832,B-3,579.0,0.75,64,160.0
5833,E-4,579.0,0.75,64,160.0
5834,F3,579.0,0.75,64,160.0
5835,C2,579.5,0.5,90,160.0
5836,F#2,579.5,1/100,109,160.0
5837,E-2,579.5,0.25,64,160.0
5838,B-2,579.5,0.25,64,160.0
5839,E-3,579.5,0.25,64,160.0
5840,F3,580.0,0.5,64,160.0
5841,E-2,580.0,1.25,64,160.0
5842,E-2,580.0,1.5,90,160.0
5843,B-3,580.0,0.75,64,160.0
5844,E-4,580.0,0.75,64,160.0
5845,F#2,580.0,1/100,109,160.0
5846,B1,580.0,1/100,109,160.0
5847,B-2,580.5,0.75,64,160.0
5848,G3,580.5,0.25,64,160.0
5849,F#2,580.5,1/100,109,160.0
5850,E-3,581.0,0.25,64,160.0
5851,F#2,581.0,1/100,109,160.0
5852,B-2,581.5,0.5,90,160.0
5853,E-2,581.5,0.25,64,160.0
5854,B-3,581.5,0.25,64,160.0
5855,G3,581.5,0.25,64,160.0
5856,E-4,581.5,0.25,64,160.0
5857,E-3,581.5,0.25,64,160.0
5858,B-2,581.5,0.25,64,160.0
5859,F#2,581.5,1/100,109,160.0
5860,B1,581.5,1/100,109,160.0
5861,E-2,582.0,1.25,64,160.0
5862,C3,582.0,0.25,90,160.0
5863,E-4,582.0,1.0,64,160.0
5864,B-3,582.0,1.0,64,160.0
5865,G3,582.0,1.0,64,160.0
5866,F#2,582.0,1/100,109,160.0
5867,D2,582.0,1/100,109,160.0
5868,B-2,582.5,0.75,64,160.0
5869,F#2,582.5,1/100,109,160.0
5870,E-4,582.5,0.5,95,160.0
5871,G4,582.5,0.5,95,160.0
5872,E-3,583.0,0.25,64,160.0
5873,B-2,583.0,1.0,90,160.0
5874,F#2,583.0,1/100,109,160.0
5875,F#2,583.5,1/100,109,160.0
5876,G3,583.5,0.5,64,160.0
5877,E-4,583.5,0.5,64,160.0
5878,B-3,583.5,0.5,64,160.0
5879,E-2,583.5,0.25,64,160.0
5880,E-3,583.5,0.25,64,160.0
5881,B-2,583.5,0.25,64,160.0
5882,E-2,584.0,1.25,64,160.0
5883,B-2,584.0,2.25,90,160.0
5884,G3,584.0,1.25,64,160.0
5885,E-4,584.0,1.25,64,160.0
5886,B-3,584.0,1.25,64,160.0
5887,F#2,584.0,1/100,109,160.0
5888,B1,584.0,1/100,109,160.0
5889,B-2,584.5,0.75,64,160.0
5890,F#2,584.5,1/100,109,160.0
5891,D4,584.5,0.5,95,160.0
5892,G4,584.5,0.5,95,160.0
5893,E-3,585.0,0.25,64,160.0
5894,F#2,585.0,1/100,109,160.0
5895,B-3,585.5,1.0,64,160.0
5896,E-4,585.5,1.25,64,160.0
5897,F3,585.5,1.5,64,160.0
5898,E-2,585.5,0.25,64,160.0
5899,E-3,585.5,0.25,64,160.0
5900,B-2,585.5,0.25,64,160.0
5901,F#2,585.5,1/100,109,160.0
5902,B1,585.5,1/100,109,160.0
5903,E-2,586.0,1.25,64,160.0
5904,F#2,586.0,1/100,109,160.0
5905,D2,586.0,1/100,109,160.0
5906,B-2,586.5,0.75,64,160.0
5907,B-3,586.5,0.25,64,160.0
5908,F#2,586.5,1/100,109,160.0
5909,C4,586.5,0.25,95,160.0
5910,G4,586.5,1.5,95,160.0
5911,B-3,586.75,0.25,95,160.0
5912,F#2,586.917,0.125,90,160.0
5913,F3,587.0,0.75,64,160.0
5914,G2,587.0,0.25,90,160.0
5915,F#2,587.0,1/100,109,160.0
5916,G3,587.0,0.25,95,160.0
5917,B-3,587.0,0.5,64,160.0
5918,E-4,587.0,0.5,64,160.0
5919,E-3,587.25,2.0,95,160.0
5920,C2,587.5,0.5,90,160.0
5921,F#2,587.5,1/100,109,160.0
5922,E-2,587.5,0.25,64,160.0
5923,E-3,587.5,0.25,64,160.0
5924,B-2,587.5,0.25,64,160.0
5925,F3,588.0,0.25,64,160.0
5926,E-2,588.0,1.25,64,160.0
5927,E-2,588.0,1.5,90,160.0
5928,B-3,588.0,0.5,64,160.0
5929,E-4,588.0,0.5,64,160.0
5930,F#2,588.0,1/100,109,160.0
5931,B1,588.0,1/100,109,160.0
5932,B-2,588.5,0.75,64,160.0
5933,F#2,588.5,1/100,109,160.0
5934,B-3,588.5,0.25,64,160.0
5935,E-4,588.5,0.25,64,160.0
5936,G3,588.5,0.25,64,160.0
5937,F4,588.5,0.5,95,160.0
5938,F#3,588.5,0.5,95,160.0
5939,E-3,589.0,0.25,64,160.0
5940,F#2,589.0,1/100,109,160.0
5941,E-4,589.0,1.5,95,160.0
5942,G3,589.0,1.5,95,160.0
5943,B-2,589.5,0.5,90,160.0
5944,B-3,589.5,0.25,64,160.0
5945,E-4,589.5,0.25,64,160.0
5946,G3,589.5,0.25,64,160.0
5947,E-2,589.5,0.25,64,160.0
5948,B-2,589.5,0.25,64,160.0
5949,E-3,589.5,0.25,64,160.0
5950,F#2,589.5,1/100,109,160.0
5951,B1,589.5,1/100,109,160.0
5952,C3,590.0,0.25,90,160.0
5953,B-3,590.0,1.25,64,160.0
5954,E-4,590.0,1.25,64,160.0
5955,G3,590.0,1.25,64,160.0
5956,E-2,590.0,1.25,64,160.0
5957,F#2,590.0,1/100,109,160.0
5958,D2,590.0,1/100,109,160.0
5959,B-2,590.5,0.75,64,160.0
5960,F#2,590.5,1/100,109,160.0
5961,E-4,590.5,4.0,95,160.0
5962,G3,590.5,4.0,95,160.0
5963,E-3,591.0,0.25,64,160.0
5964,B-2,591.0,1.0,90,160.0
5965,F#2,591.0,1/100,109,160.0
5966,F#2,591.5,1/100,109,160.0
5967,B-3,591.5,0.5,64,160.0
5968,G3,591.5,0.5,64,160.0
5969,E-4,591.5,0.5,64,160.0
5970,E-2,591.5,0.25,64,160.0
5971,E-3,591.5,0.25,64,160.0
5972,B-2,591.5,0.25,64,160.0
5973,B-2,592.0,2.25,90,160.0
5974,B-3,592.0,1.25,64,160.0
5975,G3,592.0,1.25,64,160.0
5976,E-4,592.0,1.25,64,160.0
5977,E-2,592.0,1.25,64,160.0
5978,B-3,592.0,1.25,64,160.0
5979,G3,592.0,1.25,64,160.0
5980,E-4,592.0,1.25,64,160.0
5981,F#2,592.0,1/100,109,160.0
5982,B1,592.0,1/100,109,160.0
5983,B-2,592.5,0.75,64,160.0
5984,F#2,592.5,1/100,109,160.0
5985,E-3,593.0,0.25,64,160.0
5986,F#2,593.0,1/100,109,160.0
5987,E-2,593.5,0.25,64,160.0
5988,E-3,593.5,0.25,64,160.0
5989,B-2,593.5,0.25,64,160.0
5990,B-3,593.5,1.0,64,160.0
5991,E-4,593.5,1.0,64,160.0
5992,F3,593.5,1.0,64,160.0
5993,F#2,593.5,1/100,109,160.0
5994,B1,593.5,1/100,109,160.0
5995,E-2,594.0,1.25,64,160.0
5996,F#2,594.0,1/100,109,160.0
5997,D2,594.0,1/100,109,160.0
5998,B-2,594.5,0.75,64,160.0
5999,F#2,594.5,1/100,109,160.0
6000,E-4,594.5,3.75,95,160.0
6001,G3,594.5,3.0,95,160.0
6002,F#2,594.917,0.125,90,160.0
6003,E-3,595.0,0.25,64,160.0
6004,G2,595.0,0.25,90,160.0
6005,B-3,595.0,0.75,64,160.0
6006,E-4,595.0,0.75,64,160.0
6007,F3,595.0,0.75,64,160.0
6008,F#2,595.0,1/100,109,160.0
6009,D2,595.0,1/100,109,160.0
6010,C2,595.5,0.5,90,160.0
6011,E-2,595.5,0.25,64,160.0
6012,B-2,595.5,0.25,64,160.0
6013,E-3,595.5,0.25,64,160.0
6014,F#2,595.5,1/100,109,160.0
6015,D2,595.5,1/100,109,160.0
6016,C4,596.0,0.5,64,160.0
6017,B-2,596.0,1.25,64,160.0
6018,B-1,596.0,1.5,90,160.0
6019,F4,596.0,0.75,64,160.0
6020,B-4,596.0,0.75,64,160.0
6021,F#2,596.0,1/100,109,160.0
6022,B1,596.0,1/100,109,160.0
6023,C#3,596.0,1/100,109,160.0
6024,F3,596.5,0.75,64,160.0
6025,D4,596.5,0.25,64,160.0
6026,F#2,596.5,1/100,109,160.0
6027,B-3,597.0,0.25,64,160.0
6028,F#2,597.0,1/100,109,160.0
6029,F2,597.5,0.5,90,160.0
6030,B-2,597.5,0.25,64,160.0
6031,F4,597.5,0.25,64,160.0
6032,D4,597.5,0.25,64,160.0
6033,B-4,597.5,0.25,64,160.0
6034,B-3,597.5,0.25,64,160.0
6035,F3,597.5,0.25,64,160.0
6036,F#2,597.5,1/100,109,160.0
6037,B1,597.5,1/100,109,160.0
6038,B-2,598.0,1.25,64,160.0
6039,G2,598.0,0.25,90,160.0
6040,B-4,598.0,1.0,64,160.0
6041,F4,598.0,1.0,64,160.0
6042,D4,598.0,1.0,64,160.0
6043,F#2,598.0,1/100,109,160.0
6044,D2,598.0,1/100,109,160.0
6045,F3,598.5,0.75,64,160.0
6046,F#2,598.5,1/100,109,160.0
6047,E-4,598.5,0.5,95,160.0
6048,G4,598.5,0.5,95,160.0
6049,B-3,599.0,0.25,64,160.0
6050,F2,599.0,1.0,90,160.0
6051,F#2,599.0,1/100,109,160.0
6052,F#2,599.5,1/100,109,160.0
6053,D4,599.5,0.5,64,160.0
6054,B-4,599.5,0.5,64,160.0
6055,F4,599.5,0.5,64,160.0
6056,B-2,599.5,0.25,64,160.0
6057,B-3,599.5,0.25,64,160.0
6058,F3,599.5,0.25,64,160.0
6059,B-2,600.0,1.25,64,160.0
6060,F2,600.0,2.25,90,160.0
6061,D4,600.0,1.25,64,160.0
6062,B-4,600.0,1.25,64,160.0
6063,F4,600.0,1.25,64,160.0
6064,F#2,600.0,1/100,109,160.0
6065,B1,600.0,1/100,109,160.0
6066,F3,600.5,0.75,64,160.0
6067,F#2,600.5,1/100,109,160.0
6068,G4,600.5,0.5,95,160.0
6069,D4,600.5,0.75,95,160.0
6070,B-3,601.0,0.25,64,160.0
6071,F#2,601.0,1/100,109,160.0
6072,F4,601.5,1.0,64,160.0
6073,B-4,601.5,1.25,64,160.0
6074,C4,601.5,1.5,64,160.0
6075,B-2,601.5,0.25,64,160.0
6076,B-3,601.5,0.25,64,160.0
6077,F3,601.5,0.25,64,160.0
6078,F#2,601.5,1/100,109,160.0
6079,B1,601.5,1/100,109,160.0
6080,B-2,602.0,1.25,64,160.0
6081,F#2,602.0,1/100,109,160.0
6082,D2,602.0,1/100,109,160.0
6083,F3,602.5,0.75,64,160.0
6084,F4,602.5,0.25,64,160.0
6085,F#2,602.5,1/100,109,160.0
6086,C4,602.5,0.25,95,160.0
6087,G4,602.5,1.5,95,160.0
6088,B-3,602.75,0.25,95,160.0
6089,C#2,602.917,0.125,90,160.0
6090,C4,603.0,0.75,64,160.0
6091,D2,603.0,0.25,90,160.0
6092,F#2,603.0,1/100,109,160.0
6093,G3,603.0,0.25,95,160.0
6094,F4,603.0,0.5,64,160.0
6095,B-4,603.0,0.5,64,160.0
6096,E-3,603.25,2.0,95,160.0
6097,G1,603.5,0.5,90,160.0
6098,F#2,603.5,1/100,109,160.0
6099,B-2,603.5,0.25,64,160.0
6100,B-3,603.5,0.25,64,160.0
6101,F3,603.5,0.25,64,160.0
6102,C4,604.0,0.25,64,160.0
6103,B-2,604.0,1.25,64,160.0
6104,B-1,604.0,1.5,90,160.0
6105,F4,604.0,0.5,64,160.0
6106,B-4,604.0,0.5,64,160.0
6107,F#2,604.0,1/100,109,160.0
6108,B1,604.0,1/100,109,160.0
6109,F3,604.5,0.75,64,160.0
6110,F#2,604.5,1/100,109,160.0
6111,F4,604.5,0.25,64,160.0
6112,B-4,604.5,0.25,64,160.0
6113,D4,604.5,0.25,64,160.0
6114,F4,604.5,0.5,95,160.0
6115,F#3,604.5,0.5,95,160.0
6116,B-3,605.0,0.25,64,160.0
6117,F#2,605.0,1/100,109,160.0
6118,E-4,605.0,1.5,95,160.0
6119,G3,605.0,1.5,95,160.0
6120,F2,605.5,0.5,90,160.0
6121,F4,605.5,0.25,64,160.0
6122,B-4,605.5,0.25,64,160.0
6123,D4,605.5,0.25,64,160.0
6124,B-2,605.5,0.25,64,160.0
6125,F3,605.5,0.25,64,160.0
6126,B-3,605.5,0.25,64,160.0
6127,F#2,605.5,1/100,109,160.0
6128,B1,605.5,1/100,109,160.0
6129,G2,606.0,0.25,90,160.0
6130,F4,606.0,1.25,64,160.0
6131,B-4,606.0,1.25,64,160.0
6132,D4,606.0,1.25,64,160.0
6133,B-2,606.0,1.25,64,160.0
6134,F#2,606.0,1/100,109,160.0
6135,D2,606.0,1/100,109,160.0
6136,F3,606.5,0.75,64,160.0
6137,F#2,606.5,1/100,109,160.0
6138,E-4,606.5,4.0,95,160.0
6139,G3,606.5,4.0,95,160.0
6140,B-3,607.0,0.25,64,160.0
6141,F2,607.0,1.0,90,160.0
6142,F#2,607.0,1/100,109,160.0
6143,F#2,607.5,1/100,109,160.0
6144,F4,607.5,0.5,64,160.0
6145,D4,607.5,0.5,64,160.0
6146,B-4,607.5,0.5,64,160.0
6147,B-2,607.5,0.25,64,160.0
6148,B-3,607.5,0.25,64,160.0
6149,F3,607.5,0.25,64,160.0
6150,F2,608.0,1.0,90,160.0
6151,F4,608.0,1.25,64,160.0
6152,D4,608.0,1.25,64,160.0
6153,B-4,608.0,1.25,64,160.0
6154,B-2,608.0,1.25,64,160.0
6155,F4,608.0,1.25,64,160.0
6156,D4,608.0,1.25,64,160.0
6157,B-4,608.0,1.25,64,160.0
6158,F#2,608.0,1/100,109,160.0
6159,B1,608.0,1/100,109,160.0
6160,F3,608.5,0.75,64,160.0
6161,F#2,608.5,1/100,109,160.0
6162,B-3,609.0,0.25,64,160.0
6163,B-1,609.0,1.0,90,160.0
6164,F#2,609.0,1/100,109,160.0
6165,B-2,609.5,0.25,64,160.0
6166,B-3,609.5,0.25,64,160.0
6167,F3,609.5,0.25,64,160.0
6168,F4,609.5,1.0,64,160.0
6169,B-4,609.5,1.0,64,160.0
6170,C4,609.5,1.0,64,160.0
6171,F#2,609.5,1/100,109,160.0
6172,B1,609.5,1/100,109,160.0
6173,B-2,610.0,1.25,64,160.0
6174,C2,610.0,1.0,90,160.0
6175,F#2,610.0,1/100,109,160.0
6176,D2,610.0,1/100,109,160.0
6177,F3,610.5,0.75,64,160.0
6178,F#2,610.5,1/100,109,160.0
6179,E-4,610.5,1.75,95,160.0
6180,G3,610.5,1.75,95,160.0
6181,B-3,611.0,0.25,64,160.0
6182,D2,611.0,1.0,90,160.0
6183,F4,611.0,0.75,64,160.0
6184,B-4,611.0,0.75,64,160.0
6185,C4,611.0,0.75,64,160.0
6186,F#2,611.0,1/100,109,160.0
6187,D2,611.0,1/100,109,160.0
6188,B-2,611.5,0.25,64,160.0
6189,F3,611.5,0.25,64,160.0
6190,B-3,611.5,0.25,64,160.0
6191,F#2,611.5,1/100,109,160.0
6192,D2,611.5,1/100,109,160.0
6193,F3,612.0,0.5,64,160.0
6194,E-2,612.0,1.25,64,160.0
6195,E-2,612.0,1.5,90,160.0
6196,B-3,612.0,0.75,64,160.0
6197,E-4,612.0,0.75,64,160.0
6198,F#2,612.0,1/100,109,160.0
6199,B1,612.0,1/100,109,160.0
6200,C#3,612.0,1/100,109,160.0
6201,B-2,612.5,0.75,64,160.0
6202,G3,612.5,0.25,64,160.0
6203,F#2,612.5,1/100,109,160.0
6204,E-4,612.5,99/100,95,160.0
6205,F3,612.5,0.5,95,160.0
6206,E-3,613.0,0.25,64,160.0
6207,F#2,613.0,1/100,109,160.0
6208,G3,613.0,0.5,95,160.0
6209,B-2,613.5,0.5,90,160.0
6210,B-3,613.5,0.5,95,160.0
6211,E-2,613.5,0.25,64,160.0
6212,B-3,613.5,0.25,64,160.0
6213,G3,613.5,0.25,64,160.0
6214,E-4,613.5,0.25,64,160.0
6215,E-3,613.5,0.25,64,160.0
6216,B-2,613.5,0.25,64,160.0
6217,F#2,613.5,1/100,109,160.0
6218,B1,613.5,1/100,109,160.0
6219,E-2,614.0,1.25,64,160.0
6220,C3,614.0,0.25,90,160.0
6221,E-4,614.0,0.5,95,160.0
6222,E-4,614.0,1.0,64,160.0
6223,B-3,614.0,1.0,64,160.0
6224,G3,614.0,1.0,64,160.0
6225,F#2,614.0,1/100,109,160.0
6226,D2,614.0,1/100,109,160.0
6227,B-2,614.5,0.75,64,160.0
6228,F#2,614.5,1/100,109,160.0
6229,F3,614.5,4.0,95,160.0
6230,D4,614.5,4.0,95,160.0
6231,E-3,615.0,0.25,64,160.0
6232,B-2,615.0,1.0,90,160.0
6233,F#2,615.0,1/100,109,160.0
6234,F#2,615.5,1/100,109,160.0
6235,G3,615.5,0.5,64,160.0
6236,E-4,615.5,0.5,64,160.0
6237,B-3,615.5,0.5,64,160.0
6238,E-2,615.5,0.25,64,160.0
6239,E-3,615.5,0.25,64,160.0
6240,B-2,615.5,0.25,64,160.0
6241,E-2,616.0,1.25,64,160.0
6242,B-2,616.0,2.25,90,160.0
6243,G3,616.0,1.25,64,160.0
6244,E-4,616.0,1.25,64,160.0
6245,B-3,616.0,1.25,64,160.0
6246,F#2,616.0,1/100,109,160.0
6247,B1,616.0,1/100,109,160.0
6248,B-2,616.5,0.75,64,160.0
6249,F#2,616.5,1/100,109,160.0
6250,E-3,617.0,0.25,64,160.0
6251,F#2,617.0,1/100,109,160.0
6252,B-3,617.5,1.0,64,160.0
6253,E-4,617.5,1.25,64,160.0
6254,F3,617.5,1.5,64,160.0
6255,E-2,617.5,0.25,64,160.0
6256,E-3,617.5,0.25,64,160.0
6257,B-2,617.5,0.25,64,160.0
6258,F#2,617.5,1/100,109,160.0
6259,B1,617.5,1/100,109,160.0
6260,E-2,618.0,1.25,64,160.0
6261,F#2,618.0,1/100,109,160.0
6262,D2,618.0,1/100,109,160.0
6263,B-2,618.5,0.75,64,160.0
6264,B-3,618.5,0.25,64,160.0
6265,F#2,618.5,1/100,109,160.0
6266,F#2,618.917,0.125,90,160.0
6267,F3,619.0,0.75,64,160.0
6268,G2,619.0,0.25,90,160.0
6269,F#2,619.0,1/100,109,160.0
6270,B-3,619.0,0.5,64,160.0
6271,E-4,619.0,0.5,64,160.0
6272,C2,619.5,0.5,90,160.0
6273,F#2,619.5,1/100,109,160.0
6274,E-2,619.5,0.25,64,160.0
6275,E-3,619.5,0.25,64,160.0
6276,B-2,619.5,0.25,64,160.0
6277,F3,620.0,0.25,64,160.0
6278,E-2,620.0,1.25,64,160.0
6279,E-2,620.0,1.5,90,160.0
6280,B-3,620.0,0.5,64,160.0
6281,E-4,620.0,0.5,64,160.0
6282,F#2,620.0,1/100,109,160.0
6283,B1,620.0,1/100,109,160.0
6284,B-2,620.5,0.75,64,160.0
6285,F#2,620.5,1/100,109,160.0
6286,B-3,620.5,0.25,64,160.0
6287,E-4,620.5,0.25,64,160.0
6288,G3,620.5,0.25,64,160.0
6289,F3,620.5,2.0,95,160.0
6290,D4,620.5,2.0,95,160.0
6291,E-3,621.0,0.25,64,160.0
6292,F#2,621.0,1/100,109,160.0
6293,B-2,621.5,0.5,90,160.0
6294,B-3,621.5,0.25,64,160.0
6295,E-4,621.5,0.25,64,160.0
6296,G3,621.5,0.25,64,160.0
6297,E-2,621.5,0.25,64,160.0
6298,B-2,621.5,0.25,64,160.0
6299,E-3,621.5,0.25,64,160.0
6300,F#2,621.5,1/100,109,160.0
6301,B1,621.5,1/100,109,160.0
6302,C3,622.0,0.25,90,160.0
6303,B-3,622.0,1.25,64,160.0
6304,E-4,622.0,1.25,64,160.0
6305,G3,622.0,1.25,64,160.0
6306,E-2,622.0,1.25,64,160.0
6307,F#2,622.0,1/100,109,160.0
6308,D2,622.0,1/100,109,160.0
6309,B-2,622.5,0.75,64,160.0
6310,F#2,622.5,1/100,109,160.0
6311,D4,622.5,0.75,95,160.0
6312,E-3,622.5,0.5,95,160.0
6313,E-3,623.0,0.25,64,160.0
6314,B-2,623.0,1.0,90,160.0
6315,F#2,623.0,1/100,109,160.0
6316,C4,623.0,0.5,95,160.0
6317,D3,623.0,0.5,95,160.0
6318,F#2,623.5,1/100,109,160.0
6319,B-3,623.5,0.5,64,160.0
6320,G3,623.5,0.5,64,160.0
6321,E-4,623.5,0.5,64,160.0
6322,E-2,623.5,0.25,64,160.0
6323,E-3,623.5,0.25,64,160.0
6324,B-2,623.5,0.25,64,160.0
6325,B-3,623.5,0.5,95,160.0
6326,C3,623.5,0.5,95,160.0
6327,B-2,624.0,2.25,90,160.0
6328,G#3,624.0,0.5,95,160.0
6329,B-2,624.0,0.5,95,160.0
6330,B-3,624.0,1.25,64,160.0
6331,G3,624.0,1.25,64,160.0
6332,E-4,624.0,1.25,64,160.0
6333,E-2,624.0,1.25,64,160.0
6334,B-3,624.0,1.25,64,160.0
6335,G3,624.0,1.25,64,160.0
6336,E-4,624.0,1.25,64,160.0
6337,F#2,624.0,1/100,109,160.0
6338,B1,624.0,1/100,109,160.0
6339,B-2,624.5,0.75,64,160.0
6340,F#2,624.5,1/100,109,160.0
6341,G#3,624.5,4.0,95,160.0
6342,B-2,624.5,4.0,95,160.0
6343,E-3,625.0,0.25,64,160.0
6344,F#2,625.0,1/100,109,160.0
6345,E-2,625.5,0.25,64,160.0
6346,E-3,625.5,0.25,64,160.0
6347,B-2,625.5,0.25,64,160.0
6348,B-3,625.5,1.0,64,160.0
6349,E-4,625.5,1.0,64,160.0
6350,F3,625.5,1.0,64,160.0
6351,F#2,625.5,1/100,109,160.0
6352,B1,625.5,1/100,109,160.0
6353,E-2,626.0,1.25,64,160.0
6354,F#2,626.0,1/100,109,160.0
6355,D2,626.0,1/100,109,160.0
6356,B-2,626.5,0.75,64,160.0
6357,F#2,626.5,1/100,109,160.0
6358,F#2,626.917,0.125,90,160.0
6359,E-3,627.0,0.25,64,160.0
6360,G2,627.0,0.25,90,160.0
6361,B-3,627.0,0.75,64,160.0
6362,E-4,627.0,0.75,64,160.0
6363,F3,627.0,0.75,64,160.0
6364,F#2,627.0,1/100,109,160.0
6365,D2,627.0,1/100,109,160.0
6366,C2,627.5,0.5,90,160.0
6367,E-2,627.5,0.25,64,160.0
6368,G3,627.5,0.25,64,160.0
6369,B-2,627.5,0.25,64,160.0
6370,F#2,627.5,1/100,109,160.0
6371,D2,627.5,1/100,109,160.0
6372,F3,628.0,0.5,64,160.0
6373,E-2,628.0,1.25,64,160.0
6374,E-2,628.0,1.5,90,160.0
6375,B-3,628.0,0.75,64,160.0
6376,E-4,628.0,0.75,64,160.0
6377,F#2,628.0,1/100,109,160.0
6378,B1,628.0,1/100,109,160.0
6379,B-2,628.5,0.75,64,160.0
6380,G3,628.5,0.25,64,160.0
6381,F#2,628.5,1/100,109,160.0
6382,G#3,628.5,2.5,95,160.0
6383,B-2,628.5,3.0,95,160.0
6384,E-3,629.0,0.25,64,160.0
6385,F#2,629.0,1/100,109,160.0
6386,B-2,629.5,0.5,90,160.0
6387,E-2,629.5,0.25,64,160.0
6388,B-3,629.5,0.25,64,160.0
6389,G3,629.5,0.25,64,160.0
6390,E-4,629.5,0.25,64,160.0
6391,E-3,629.5,0.25,64,160.0
6392,B-2,629.5,0.25,64,160.0
6393,F#2,629.5,1/100,109,160.0
6394,B1,629.5,1/100,109,160.0
6395,E-2,630.0,1.25,64,160.0
6396,C3,630.0,0.25,90,160.0
6397,E-4,630.0,1.0,64,160.0
6398,B-3,630.0,1.0,64,160.0
6399,G3,630.0,1.0,64,160.0
6400,F#2,630.0,1/100,109,160.0
6401,D2,630.0,1/100,109,160.0
6402,B-2,630.5,0.75,64,160.0
6403,F#2,630.5,1/100,109,160.0
6404,E-3,631.0,0.25,64,160.0
6405,B-2,631.0,1.0,90,160.0
6406,F#2,631.0,1/100,109,160.0
6407,F#2,631.5,1/100,109,160.0
6408,G3,631.5,0.5,64,160.0
6409,E-4,631.5,0.5,64,160.0
6410,B-3,631.5,0.5,64,160.0
6411,E-2,631.5,0.25,64,160.0
6412,E-3,631.5,0.25,64,160.0
6413,B-2,631.5,0.25,64,160.0
6414,E-2,632.0,1.25,64,160.0
6415,B-2,632.0,2.25,90,160.0
6416,G3,632.0,1.25,64,160.0
6417,E-4,632.0,1.25,64,160.0
6418,B-3,632.0,1.25,64,160.0
6419,F#2,632.0,1/100,109,160.0
6420,B1,632.0,1/100,109,160.0
6421,B-2,632.5,0.75,64,160.0
6422,F#2,632.5,1/100,109,160.0
6423,E-4,632.5,271/500,95,160.0
6424,G4,632.5,271/500,95,160.0
6425,E-3,633.0,0.25,64,160.0
6426,F#2,633.0,1/100,109,160.0
6427,B-3,633.5,1.0,64,160.0
6428,E-4,633.5,1.25,64,160.0
6429,F3,633.5,1.5,64,160.0
6430,E-2,633.5,0.25,64,160.0
6431,E-3,633.5,0.25,64,160.0
6432,B-2,633.5,0.25,64,160.0
6433,F#2,633.5,1/100,109,160.0
6434,B1,633.5,1/100,109,160.0
6435,E-2,634.0,1.25,64,160.0
6436,F#2,634.0,1/100,109,160.0
6437,D2,634.0,1/100,109,160.0
6438,B-2,634.5,0.75,64,160.0
6439,B-3,634.5,0.25,64,160.0
6440,F#2,634.5,1/100,109,160.0
6441,D4,634.5,271/500,95,160.0
6442,G4,634.5,0.688,95,160.0
6443,F#2,634.917,0.125,90,160.0
6444,F3,635.0,0.75,64,160.0
6445,G2,635.0,0.25,90,160.0
6446,F#2,635.0,1/100,109,160.0
6447,B-3,635.0,0.5,64,160.0
6448,E-4,635.0,0.5,64,160.0
6449,C2,635.5,0.5,90,160.0
6450,F#2,635.5,1/100,109,160.0
6451,E-2,635.5,0.25,64,160.0
6452,E-3,635.5,0.25,64,160.0
6453,B-2,635.5,0.25,64,160.0
6454,F3,636.0,0.25,64,160.0
6455,E-2,636.0,1.25,64,160.0
6456,E-2,636.0,1.5,90,160.0
6457,B-3,636.0,0.5,64,160.0
6458,E-4,636.0,0.5,64,160.0
6459,F#2,636.0,1/100,109,160.0
6460,B1,636.0,1/100,109,160.0
6461,B-2,636.5,0.75,64,160.0
6462,F#2,636.5,1/100,109,160.0
6463,C4,636.5,0.25,95,160.0
6464,G4,636.5,1.0,95,160.0
6465,B-3,636.5,0.25,64,160.0
6466,E-4,636.5,0.25,64,160.0
6467,G3,636.5,0.25,64,160.0
6468,B-3,636.75,0.25,95,160.0
6469,E-3,637.0,0.25,64,160.0
6470,F#2,637.0,1/100,109,160.0
6471,G3,637.0,0.25,95,160.0
6472,E-3,637.25,1.25,95,160.0
6473,B-2,637.5,0.5,90,160.0
6474,B-3,637.5,0.25,64,160.0
6475,E-4,637.5,0.25,64,160.0
6476,G3,637.5,0.25,64,160.0
6477,E-2,637.5,0.25,64,160.0
6478,B-2,637.5,0.25,64,160.0
6479,E-3,637.5,0.25,64,160.0
6480,F#2,637.5,1/100,109,160.0
6481,B1,637.5,1/100,109,160.0
6482,C3,638.0,0.25,90,160.0
6483,B-3,638.0,1.25,64,160.0
6484,E-4,638.0,1.25,64,160.0
6485,G3,638.0,1.25,64,160.0
6486,E-2,638.0,1.25,64,160.0
6487,F#2,638.0,1/100,109,160.0
6488,D2,638.0,1/100,109,160.0
6489,B-2,638.5,0.75,64,160.0
6490,F#2,638.5,1/100,109,160.0
6491,F#3,638.5,0.5,95,160.0
6492,F4,638.5,0.5,95,160.0
6493,E-3,639.0,0.25,64,160.0
6494,B-2,639.0,1.0,90,160.0
6495,F#2,639.0,1/100,109,160.0
6496,G3,639.0,1.5,95,160.0
6497,E-4,639.0,1.5,95,160.0
6498,F#2,639.5,1/100,109,160.0
6499,B-3,639.5,0.5,64,160.0
6500,G3,639.5,0.5,64,160.0
6501,E-4,639.5,0.5,64,160.0
6502,E-2,639.5,0.25,64,160.0
6503,E-3,639.5,0.25,64,160.0
6504,B-2,639.5,0.25,64,160.0
6505,B-2,640.0,2.25,90,160.0
6506,B-3,640.0,1.25,64,160.0
6507,G3,640.0,1.25,64,160.0
6508,E-4,640.0,1.25,64,160.0
6509,E-2,640.0,1.25,64,160.0
6510,B-3,640.0,1.25,64,160.0
6511,G3,640.0,1.25,64,160.0
6512,E-4,640.0,1.25,64,160.0
6513,F#2,640.0,1/100,109,160.0
6514,B1,640.0,1/100,109,160.0
6515,B-2,640.5,0.75,64,160.0
6516,F#2,640.5,1/100,109,160.0
6517,E-3,641.0,0.25,64,160.0
6518,F#2,641.0,1/100,109,160.0
6519,E-2,641.5,0.25,64,160.0
6520,E-3,641.5,0.25,64,160.0
6521,B-2,641.5,0.25,64,160.0
6522,B-3,641.5,1.0,64,160.0
6523,E-4,641.5,1.0,64,160.0
6524,F3,641.5,1.0,64,160.0
6525,F#2,641.5,1/100,109,160.0
6526,B1,641.5,1/100,109,160.0
6527,E-2,642.0,1.25,64,160.0
6528,F#2,642.0,1/100,109,160.0
6529,D2,642.0,1/100,109,160.0
6530,B-2,642.5,0.75,64,160.0
6531,F#2,642.5,1/100,109,160.0
6532,F#2,642.917,0.125,90,160.0
6533,E-3,643.0,0.25,64,160.0
6534,G2,643.0,0.25,90,160.0
6535,F#2,643.0,1/100,109,160.0
6536,B-3,643.0,0.75,64,160.0
6537,E-4,643.0,0.75,64,160.0
6538,F3,643.0,0.75,64,160.0
6539,C2,643.5,0.5,90,160.0
6540,F#2,643.5,1/100,109,160.0
6541,E-2,643.5,0.25,64,160.0
6542,B-2,643.5,0.25,64,160.0
6543,E-3,643.5,0.25,64,160.0
6544,F3,644.0,0.5,64,160.0
6545,E-2,644.0,1.25,64,160.0
6546,E-2,644.0,1.5,90,160.0
6547,B-3,644.0,0.75,64,160.0
6548,E-4,644.0,0.75,64,160.0
6549,F#2,644.0,1/100,109,160.0
6550,B1,644.0,1/100,109,160.0
6551,B-2,644.5,0.75,64,160.0
6552,G3,644.5,0.25,64,160.0
6553,F#2,644.5,1/100,109,160.0
6554,E-3,645.0,0.25,64,160.0
6555,F#2,645.0,1/100,109,160.0
6556,B-2,645.5,0.5,90,160.0
6557,E-2,645.5,0.25,64,160.0
6558,B-3,645.5,0.25,64,160.0
6559,G3,645.5,0.25,64,160.0
6560,E-4,645.5,0.25,64,160.0
6561,E-3,645.5,0.25,64,160.0
6562,B-2,645.5,0.25,64,160.0
6563,F#2,645.5,1/100,109,160.0
6564,B1,645.5,1/100,109,160.0
6565,E-2,646.0,1.25,64,160.0
6566,C3,646.0,0.25,90,160.0
6567,E-4,646.0,1.0,64,160.0
6568,B-3,646.0,1.0,64,160.0
6569,G3,646.0,1.0,64,160.0
6570,F#2,646.0,1/100,109,160.0
6571,D2,646.0,1/100,109,160.0
6572,B-2,646.5,0.75,64,160.0
6573,F#2,646.5,1/100,109,160.0
6574,E-3,647.0,0.25,64,160.0
6575,B-2,647.0,1.0,90,160.0
6576,F#2,647.0,1/100,109,160.0
6577,F#2,647.5,1/100,109,160.0
6578,G3,647.5,0.5,64,160.0
6579,E-4,647.5,0.5,64,160.0
6580,B-3,647.5,0.5,64,160.0
6581,E-2,647.5,0.25,64,160.0
6582,E-3,647.5,0.25,64,160.0
6583,B-2,647.5,0.25,64,160.0
6584,G3,647.75,4.0,95,160.0
6585,E-4,647.75,4.0,95,160.0
6586,E-2,648.0,1.25,64,160.0
6587,B-2,648.0,2.25,90,160.0
6588,G3,648.0,1.25,64,160.0
6589,E-4,648.0,1.25,64,160.0
6590,B-3,648.0,1.25,64,160.0
6591,F#2,648.0,1/100,109,160.0
6592,B1,648.0,1/100,109,160.0
6593,B-2,648.5,0.75,64,160.0
6594,F#2,648.5,1/100,109,160.0
6595,E-3,649.0,0.25,64,160.0
6596,F#2,649.0,1/100,109,160.0
6597,B-3,649.5,1.0,64,160.0
6598,E-4,649.5,1.25,64,160.0
6599,F3,649.5,1.5,64,160.0
6600,E-2,649.5,0.25,64,160.0
6601,E-3,649.5,0.25,64,160.0
6602,B-2,649.5,0.25,64,160.0
6603,F#2,649.5,1/100,109,160.0
6604,B1,649.5,1/100,109,160.0
6605,E-2,650.0,1.25,64,160.0
6606,F#2,650.0,1/100,109,160.0
6607,D2,650.0,1/100,109,160.0
6608,B-2,650.5,0.75,64,160.0
6609,B-3,650.5,0.25,64,160.0
6610,F#2,650.5,1/100,109,160.0
6611,F#2,650.917,0.125,90,160.0
6612,F3,651.0,0.75,64,160.0
6613,G2,651.0,0.25,90,160.0
6614,F#2,651.0,1/100,109,160.0
6615,B-3,651.0,0.5,64,160.0
6616,E-4,651.0,0.5,64,160.0
6617,C2,651.5,0.5,90,160.0
6618,F#2,651.5,1/100,109,160.0
6619,E-2,651.5,0.25,64,160.0
6620,E-3,651.5,0.25,64,160.0
6621,B-2,651.5,0.25,64,160.0
6622,G3,651.75,3.25,95,160.0
6623,E-4,651.75,3.25,95,160.0
6624,F3,652.0,0.25,64,160.0
6625,E-2,652.0,1.25,64,160.0
6626,E-2,652.0,1.5,90,160.0
6627,B-3,652.0,0.5,64,160.0
6628,E-4,652.0,0.5,64,160.0
6629,F#2,652.0,1/100,109,160.0
6630,B1,652.0,1/100,109,160.0
6631,B-2,652.5,0.75,64,160.0
6632,F#2,652.5,1/100,109,160.0
6633,B-3,652.5,0.25,64,160.0
6634,E-4,652.5,0.25,64,160.0
6635,G3,652.5,0.25,64,160.0
6636,E-3,653.0,0.25,64,160.0
6637,F#2,653.0,1/100,109,160.0
6638,B-2,653.5,0.5,90,160.0
6639,B-3,653.5,0.25,64,160.0
6640,E-4,653.5,0.25,64,160.0
6641,G3,653.5,0.25,64,160.0
6642,E-2,653.5,0.25,64,160.0
6643,B-2,653.5,0.25,64,160.0
6644,E-3,653.5,0.25,64,160.0
6645,F#2,653.5,1/100,109,160.0
6646,B1,653.5,1/100,109,160.0
6647,C3,654.0,0.25,90,160.0
6648,B-3,654.0,1.25,64,160.0
6649,E-4,654.0,1.25,64,160.0
6650,G3,654.0,1.25,64,160.0
6651,E-2,654.0,1.25,64,160.0
6652,F#2,654.0,1/100,109,160.0
6653,D2,654.0,1/100,109,160.0
6654,B-2,654.5,0.75,64,160.0
6655,F#2,654.5,1/100,109,160.0
6656,E-3,655.0,0.25,64,160.0
6657,B-2,655.0,1.0,90,160.0
6658,F#2,655.0,1/100,109,160.0
6659,F#2,655.5,1/100,109,160.0
6660,B-3,655.5,0.5,64,160.0
6661,G3,655.5,0.5,64,160.0
6662,E-4,655.5,0.5,64,160.0
6663,E-2,655.5,0.25,64,160.0
6664,E-3,655.5,0.25,64,160.0
6665,B-2,655.5,0.25,64,160.0
6666,B-2,656.0,2.25,90,160.0
6667,B-3,656.0,1.25,64,160.0
6668,G3,656.0,1.25,64,160.0
6669,E-4,656.0,1.25,64,160.0
6670,E-2,656.0,1.25,64,160.0
6671,B-3,656.0,1.25,64,160.0
6672,G3,656.0,1.25,64,160.0
6673,E-4,656.0,1.25,64,160.0
6674,F#2,656.0,1/100,109,160.0
6675,B1,656.0,1/100,109,160.0
6676,B-2,656.5,0.75,64,160.0
6677,F#2,656.5,1/100,109,160.0
6678,E-3,657.0,0.25,64,160.0
6679,F#2,657.0,1/100,109,160.0
6680,E-2,657.5,0.25,64,160.0
6681,E-3,657.5,0.25,64,160.0
6682,B-2,657.5,0.25,64,160.0
6683,B-3,657.5,1.0,64,160.0
6684,E-4,657.5,1.0,64,160.0
6685,F3,657.5,1.0,64,160.0
6686,F#2,657.5,1/100,109,160.0
6687,B1,657.5,1/100,109,160.0
6688,E-2,658.0,1.25,64,160.0
6689,F#2,658.0,1/100,109,160.0
6690,D2,658.0,1/100,109,160.0
6691,B-2,658.5,0.75,64,160.0
6692,F#2,658.5,1/100,109,160.0
6693,F#2,658.917,0.125,90,160.0
6694,E-3,659.0,0.25,64,160.0
6695,G2,659.0,0.25,90,160.0
6696,B-3,659.0,0.75,64,160.0
6697,E-4,659.0,0.75,64,160.0
6698,F3,659.0,0.75,64,160.0
6699,F#2,659.0,1/100,109,160.0
6700,D2,659.0,1/100,109,160.0
6701,C2,659.5,0.5,90,160.0
6702,E-2,659.5,0.25,64,160.0
6703,B-2,659.5,0.25,64,160.0
6704,E-3,659.5,0.25,64,160.0
6705,F#2,659.5,1/100,109,160.0
6706,D2,659.5,1/100,109,160.0
6707,F3,660.0,0.25,64,160.0
6708,E-2,660.0,1.25,64,160.0
6709,E-2,660.0,4.0,90,160.0
6710,B-3,660.0,0.5,64,160.0
6711,E-4,660.0,0.5,64,160.0
6712,F#2,660.0,1/100,109,160.0
6713,B1,660.0,1/100,109,160.0
6714,C#3,660.0,1/100,109,160.0
6715,F#2,660.5,1/100,109,160.0
6716,B-3,660.5,3.5,64,160.0
6717,E-4,660.5,3.5,64,160.0
6718,G3,660.5,3.5,64,160.0
6719,B-2,660.5,3.5,64,160.0
6720,F#2,661.0,1/100,109,160.0
6721,F#2,661.5,1/100,109,160.0
6722,F#2,662.0,1/100,109,160.0
6723,B1,662.0,1/100,109,160.0
6724,F#2,662.5,1/100,109,160.0
6725,F#2,663.0,1/100,109,160.0
6726,F#2,663.5,1/100,109,160.0
6727,E-2,664.0,3.75,90,160.0
6728,F#2,664.0,1/100,109,160.0
6729,B1,664.0,1/100,109,160.0
6730,F#2,664.5,1/100,109,160.0
6731,F#2,665.0,1/100,109,160.0
6732,F#2,665.5,1/100,109,160.0
6733,F#2,666.0,1/100,109,160.0
6734,B1,666.0,1/100,109,160.0
6735,F#2,666.5,1/100,109,160.0
6736,B-3,666.75,2.75,64,160.0
6737,E-4,666.75,2.75,64,160.0
6738,G3,666.75,2.75,64,160.0
6739,B-2,666.75,2.75,64,160.0
6740,F#2,667.0,1/100,109,160.0
6741,F#2,667.5,1/100,109,160.0
6742,E-2,668.0,417/1000,90,160.0
6743,C#3,668.0,1/100,109,160.0
6744,D2,668.0,1/100,109,160.0
6745,B1,668.0,1/100,109,160.0
6746,F#2,668.0,1/100,109,160.0
6747,E-2,670.75,417/1000,64,160.0
6748,E-3,670.75,417/1000,64,160.0
6749,B-2,670.75,417/1000,64,160.0
6750,B-3,670.75,417/1000,64,160.0
6751,E-4,670.75,417/1000,64,160.0
6752,G3,670.75,417/1000,64,160.0
6753,B-3,702.75,4.0,54,160.0
6754,E-4,702.75,4.0,54,160.0
6755,F4,702.75,4.0,54,160.0
6756,G4,702.75,4.0,54,160.0
6757,B-3,702.75,4.0,54,160.0
6758,E-4,702.75,4.0,54,160.0
6759,F4,702.75,4.0,54,160.0
6760,G4,702.75,4.0,54,160.0
6761,B-3,710.5,3.75,54,160.0
6762,E-4,710.5,3.75,54,160.0
6763,F4,710.5,3.75,54,160.0
6764,G4,710.5,3.75,54,160.0
6765,B-3,710.5,3.75,54,160.0
6766,E-4,710.5,3.75,54,160.0
6767,F4,710.5,3.75,54,160.0
6768,G4,710.5,3.75,54,160.0
6769,G4,714.5,417/1000,54,160.0
6770,B-3,714.5,417/1000,54,160.0
6771,E-4,714.5,417/1000,54,160.0
6772,G4,714.5,417/1000,54,160.0
6773,B-3,714.5,417/1000,54,160.0
6774,E-4,714.5,417/1000,54,160.0
