,note_name,start_time,duration,velocity,tempo
0,G2,1.0,2.0,95,150.0
1,G2,3.0,1.0,47,150.0
2,G2,4.0,3.0,47,150.0
3,G4,9.0,0.25,95,150.0
4,A4,9.25,2.75,95,150.0
5,C5,13.333,333/1000,95,150.0
6,E5,13.667,333/1000,70,150.0
7,D5,14.0,1.0,95,150.0
8,D5,15.0,0.25,95,150.0
9,B4,15.25,0.25,70,150.0
10,C5,15.5,0.5,95,150.0
11,G4,16.25,1.75,95,150.0
12,F#4,18.0,2.0,95,150.0
13,F#4,20.0,0.5,47,150.0
14,E4,20.5,0.25,95,150.0
15,F#4,20.75,0.25,95,150.0
16,G4,21.0,0.25,95,150.0
17,G4,21.25,0.25,95,150.0
18,F#4,21.5,0.25,70,150.0
19,E4,21.75,0.25,95,150.0
20,F#4,22.0,0.25,95,150.0
21,E4,22.25,0.5,95,150.0
22,D4,22.75,0.75,95,150.0
23,E4,23.5,0.5,95,150.0
24,E4,24.0,1.0,47,150.0
25,C4,25.333,333/1000,95,150.0
26,D4,25.667,333/1000,95,150.0
27,B3,26.0,2.0,95,150.0
28,G#3,28.75,0.25,95,150.0
29,A3,29.0,0.25,70,150.0
30,C4,29.25,0.25,95,150.0
31,D4,29.5,0.25,95,150.0
32,E-4,29.75,0.25,95,150.0
33,E4,30.0,0.25,95,150.0
34,E-4,30.25,0.25,95,150.0
35,F#4,30.5,0.25,95,150.0
36,E4,30.75,0.25,70,150.0
37,E-4,31.0,0.25,95,150.0
38,E4,31.25,0.25,95,150.0
39,F#4,31.5,0.25,95,150.0
40,G4,31.75,0.25,95,150.0
41,A4,32.0,0.25,95,150.0
42,G4,32.25,0.25,95,150.0
43,B4,32.5,0.25,95,150.0
44,A4,32.75,0.25,70,150.0
45,C5,33.0,0.25,95,150.0
46,B4,33.25,1.0,95,150.0
47,B4,34.25,0.25,47,150.0
48,B4,34.5,0.5,47,150.0
49,C5,35.0,0.5,70,150.0
50,A4,35.5,0.5,95,150.0
51,B4,36.0,1.25,70,150.0
52,G4,37.25,0.25,95,150.0
53,E4,37.5,0.5,70,150.0
54,D3,40.5,0.25,95,150.0
55,E3,40.75,0.25,70,150.0
56,G3,41.0,0.25,95,150.0
57,G3,41.25,0.25,95,150.0
58,E3,41.5,0.25,95,150.0
59,D3,41.75,0.25,70,150.0
60,A3,42.0,0.25,95,150.0
61,B3,42.25,0.25,95,150.0
62,D3,43.5,0.5,95,150.0
63,D3,44.0,0.5,47,150.0
64,D3,44.5,0.25,95,150.0
65,E3,44.75,0.25,70,150.0
66,G3,45.0,0.25,95,150.0
67,G3,45.25,0.25,95,150.0
68,E3,45.5,0.25,95,150.0
69,D3,45.75,0.25,70,150.0
70,A3,46.0,0.75,95,150.0
71,A3,46.75,0.75,95,150.0
72,A3,47.5,0.5,95,150.0
73,A3,48.0,0.5,47,150.0
74,D3,48.5,0.25,95,150.0
75,E3,48.75,0.25,70,150.0
76,G3,49.0,0.25,95,150.0
77,G3,49.25,0.25,95,150.0
78,E3,49.5,0.25,95,150.0
79,D3,49.75,0.25,70,150.0
80,A3,50.0,0.25,95,150.0
81,A3,50.25,0.25,95,150.0
82,G3,50.5,0.25,70,150.0
83,E3,50.75,0.25,95,150.0
84,C4,51.0,0.25,95,150.0
85,C4,51.25,0.25,95,150.0
86,A3,51.5,0.25,95,150.0
87,G3,51.75,0.25,70,150.0
88,D4,51.938,0.062,127,150.0
89,E4,52.0,0.5,95,150.0
90,C4,52.5,0.25,95,150.0
91,D4,52.75,0.75,70,150.0
92,D4,53.5,0.5,47,150.0
93,C4,54.0,0.25,70,150.0
94,A3,54.25,0.25,95,150.0
95,G3,54.5,0.25,95,150.0
96,C4,54.75,0.25,95,150.0
97,A3,55.0,1.0,95,150.0
98,A3,56.0,0.5,47,150.0
99,C4,56.5,0.25,95,150.0
100,A3,56.75,0.25,95,150.0
101,G4,57.25,2.25,95,150.0
102,G4,59.5,0.5,47,150.0
103,G4,60.0,0.5,47,150.0
104,A4,61.0,167/1000,95,150.0
105,G4,61.167,167/1000,95,150.0
106,E4,61.333,167/1000,70,150.0
107,D4,61.5,0.25,95,150.0
108,D4,61.75,0.25,95,150.0
109,C4,62.0,0.25,70,150.0
110,A3,62.25,0.25,95,150.0
111,D4,62.5,0.25,95,150.0
112,A3,62.75,0.25,95,150.0
113,C4,63.0,0.25,95,150.0
114,D4,63.25,0.25,95,150.0
115,C4,63.5,0.5,95,150.0
116,C4,64.0,1.0,47,150.0
117,C4,65.0,0.5,47,150.0
118,D3,65.5,0.25,95,150.0
119,E3,65.75,0.25,95,150.0
120,G3,66.0,0.25,95,150.0
121,G3,66.25,0.25,95,150.0
122,E3,66.5,0.25,95,150.0
123,E3,66.625,0.125,95,150.0
124,E-3,66.75,167/1000,95,150.0
125,D3,66.917,167/1000,95,150.0
126,C3,67.083,167/1000,95,150.0
127,A2,67.25,0.75,95,150.0
128,C3,68.5,0.375,95,150.0
129,D3,68.875,0.25,95,150.0
130,E3,69.125,0.25,95,150.0
131,G3,69.375,0.25,95,150.0
132,A3,69.625,0.25,95,150.0
133,C4,69.875,0.25,95,150.0
134,D4,70.125,0.25,95,150.0
135,E4,70.375,0.25,95,150.0
136,G4,70.625,0.25,95,150.0
137,E4,70.875,0.25,95,150.0
138,A4,71.125,0.25,95,150.0
139,E4,71.375,0.25,95,150.0
140,B4,71.625,0.375,95,150.0
141,D5,72.0,2.25,95,150.0
142,D3,74.25,17/250,95,150.0
143,A2,74.25,17/250,95,150.0
144,A4,75.0,0.25,95,150.0
145,B4,75.25,0.25,95,150.0
146,C5,75.5,0.25,95,150.0
147,C#5,75.75,0.25,95,150.0
148,D5,76.0,1.0,95,150.0
149,C5,77.0,1.0,95,150.0
150,A4,78.0,0.25,95,150.0
151,B4,78.25,0.5,95,150.0
152,G4,78.75,0.5,95,150.0
153,A4,79.25,0.25,95,150.0
154,F#4,79.5,0.5,95,150.0
155,F#4,80.0,1.5,47,150.0
156,E4,81.5,0.25,95,150.0
157,F#4,81.75,0.25,95,150.0
158,G4,82.0,0.25,95,150.0
159,A4,82.25,0.25,95,150.0
160,B4,82.5,0.25,95,150.0
161,A4,82.75,0.25,95,150.0
162,C5,83.0,0.25,95,150.0
163,B4,83.25,0.25,70,150.0
164,A4,83.5,0.25,95,150.0
165,B4,83.75,0.25,95,150.0
166,C5,84.0,0.25,95,150.0
167,D5,84.25,0.25,95,150.0
168,C5,84.5,167/1000,95,150.0
169,B4,84.667,167/1000,70,150.0
170,A4,84.833,167/1000,95,150.0
171,G4,85.0,0.25,95,150.0
172,B4,85.25,0.25,95,150.0
173,A4,85.5,0.25,95,150.0
174,G#4,85.75,0.25,95,150.0
175,G4,86.0,0.25,95,150.0
176,F#4,86.25,0.25,95,150.0
177,E4,86.5,0.25,95,150.0
178,F#4,86.75,0.25,95,150.0
179,E4,86.938,0.062,127,150.0
180,D4,87.0,0.25,95,150.0
181,C4,87.25,0.25,70,150.0
182,A3,87.5,0.25,95,150.0
183,D4,87.75,0.25,95,150.0
184,A3,88.0,0.25,95,150.0
185,C4,88.25,0.25,95,150.0
186,D4,88.5,0.25,95,150.0
187,E-4,88.75,0.25,95,150.0
188,E4,89.0,0.25,95,150.0
189,E-4,89.25,0.25,95,150.0
190,F#4,89.5,0.25,95,150.0
191,E4,89.75,0.25,95,150.0
192,F#4,90.0,0.25,95,150.0
193,G4,90.25,0.25,70,150.0
194,A4,90.5,0.25,95,150.0
195,G4,90.75,0.25,95,150.0
196,B4,91.0,0.25,95,150.0
197,A4,91.25,0.25,70,150.0
198,G4,91.5,0.25,95,150.0
199,A4,91.75,0.25,95,150.0
200,E4,91.75,0.25,95,150.0
201,B4,92.0,0.25,95,150.0
202,C5,92.25,0.125,95,150.0
203,B4,92.375,0.125,95,150.0
204,A4,92.5,0.25,95,150.0
205,G4,92.75,0.25,95,150.0
206,F#4,93.0,0.25,95,150.0
207,E4,93.25,0.25,95,150.0
208,D4,93.5,0.25,95,150.0
209,C4,93.75,0.25,95,150.0
210,B3,94.0,0.25,95,150.0
211,A3,94.25,0.25,95,150.0
212,G#3,94.5,0.25,95,150.0
213,G3,94.75,0.25,95,150.0
214,F#3,95.0,0.25,95,150.0
215,D4,95.25,0.25,95,150.0
216,C#4,95.5,0.25,95,150.0
217,C4,95.75,0.25,95,150.0
218,B-3,96.0,0.25,95,150.0
219,B3,96.25,0.25,95,150.0
220,G3,96.5,0.25,95,150.0
221,E3,96.75,0.25,95,150.0
222,F#3,97.0,0.25,95,150.0
223,G3,97.25,0.25,95,150.0
224,D4,97.5,0.25,95,150.0
225,F#3,97.75,0.25,95,150.0
226,G3,98.0,0.25,95,150.0
227,D4,98.25,0.25,95,150.0
228,F#3,98.5,0.25,95,150.0
229,G3,98.75,0.25,95,150.0
230,D4,99.0,0.25,95,150.0
231,F#3,99.25,0.25,95,150.0
232,G3,99.5,0.25,95,150.0
233,D4,99.75,0.25,95,150.0
234,G3,99.875,0.125,95,150.0
235,B3,100.0,2.5,95,150.0
236,A3,102.5,0.25,95,150.0
237,C3,102.75,0.25,47,150.0
238,D4,103.0,0.25,95,150.0
239,E4,103.25,0.25,95,150.0
240,G4,103.5,0.25,95,150.0
241,A4,103.75,0.25,95,150.0
242,A4,104.125,0.125,95,150.0
243,B4,104.25,1.75,95,150.0
244,B4,106.0,0.75,95,150.0
245,C5,106.75,0.5,95,150.0
246,B4,107.25,0.75,95,150.0
247,B4,108.0,0.75,47,150.0
248,D3,108.75,17/250,95,150.0
249,A2,108.75,17/250,95,150.0
250,B4,109.5,0.25,95,150.0
251,C5,109.75,0.25,70,150.0
252,E5,110.0,0.25,95,150.0
253,G5,110.25,0.5,95,150.0
254,G5,110.75,0.25,95,150.0
255,F5,111.0,0.25,95,150.0
256,F#5,111.25,0.75,95,150.0
257,D5,112.0,1.0,95,150.0
258,E5,113.0,0.5,95,150.0
259,B4,113.5,0.25,95,150.0
260,D5,113.75,0.5,95,150.0
261,A4,114.25,0.25,95,150.0
262,C5,114.5,0.25,95,150.0
263,B4,114.75,0.25,70,150.0
264,A4,115.0,0.25,95,150.0
265,B4,115.25,0.25,95,150.0
266,A4,115.5,0.25,95,150.0
267,G4,115.75,0.25,70,150.0
268,E4,116.0,0.25,95,150.0
269,G4,116.25,0.25,95,150.0
270,F#4,116.5,0.25,95,150.0
271,D4,116.75,0.25,95,150.0
272,B3,117.0,0.25,95,150.0
273,D4,117.25,0.25,95,150.0
274,F#4,117.5,0.25,95,150.0
275,G4,117.75,0.25,95,150.0
276,G#4,118.0,0.25,95,150.0
277,A4,118.25,0.25,95,150.0
278,F4,118.5,0.25,95,150.0
279,F#4,118.75,0.25,95,150.0
280,D4,119.0,0.25,95,150.0
281,B3,119.25,0.25,95,150.0
282,D4,119.5,0.25,95,150.0
283,B3,119.75,0.25,95,150.0
284,E4,120.0,1.0,95,150.0
285,G4,121.0,1.0,95,150.0
286,A4,122.0,1.0,95,150.0
287,B4,123.0,0.75,95,150.0
288,D5,123.75,0.25,95,150.0
289,E5,124.0,667/1000,95,150.0
290,F#5,124.667,667/1000,95,150.0
291,A5,125.333,667/1000,95,150.0
292,A5,126.0,1.5,95,150.0
293,A5,127.5,0.5,95,150.0
294,A5,128.0,0.75,47,150.0
295,G#5,128.75,0.125,95,150.0
296,G5,128.875,0.125,95,150.0
297,F#5,129.0,333/1000,95,150.0
298,D5,129.333,333/1000,95,150.0
299,A4,129.667,333/1000,95,150.0
300,E5,130.0,0.25,95,150.0
301,D5,130.25,0.75,95,150.0
302,B3,131.0,0.25,47,150.0
303,D5,131.25,0.25,95,150.0
304,B4,131.5,0.5,95,150.0
305,D5,132.0,0.25,95,150.0
306,E5,132.25,0.25,95,150.0
307,D5,132.5,167/1000,95,150.0
308,F#5,132.667,167/1000,95,150.0
309,E5,132.833,167/1000,70,150.0
310,D5,133.0,167/1000,95,150.0
311,E5,133.167,167/1000,95,150.0
312,F#5,133.333,167/1000,95,150.0
313,G5,133.5,2.5,95,150.0
314,F#5,136.5,1.0,95,150.0
315,D5,137.5,0.25,95,150.0
316,E5,137.75,0.25,95,150.0
317,B4,138.0,0.25,95,150.0
318,D5,138.25,0.25,95,150.0
319,A5,138.5,0.25,95,150.0
320,D5,138.75,0.25,95,150.0
321,E5,139.0,0.25,95,150.0
322,B5,139.25,0.25,95,150.0
323,E5,139.5,0.25,95,150.0
324,D5,139.75,0.25,95,150.0
325,A5,140.0,0.25,95,150.0
326,D5,140.25,0.25,95,150.0
327,E5,140.5,0.25,95,150.0
328,B5,140.75,0.25,95,150.0
329,E5,141.0,0.25,95,150.0
330,D5,141.25,0.25,95,150.0
331,A5,141.5,0.25,95,150.0
332,D5,141.75,0.25,95,150.0
333,C5,142.0,0.25,95,150.0
334,G5,142.25,0.25,95,150.0
335,C5,142.5,0.25,95,150.0
336,B4,142.75,0.25,95,150.0
337,F#5,143.0,0.25,95,150.0
338,B4,143.25,0.25,95,150.0
339,D5,143.5,0.25,95,150.0
340,D5,143.75,0.25,95,150.0
341,E5,144.0,0.25,95,150.0
342,D5,144.25,0.25,95,150.0
343,B4,144.5,0.25,70,150.0
344,A4,144.75,0.25,95,150.0
345,G4,145.0,0.25,95,150.0
346,F#4,145.25,0.25,95,150.0
347,D4,145.5,0.25,95,150.0
348,B3,145.75,0.25,95,150.0
349,D4,146.0,0.25,95,150.0
350,F#4,146.25,0.25,95,150.0
351,G4,146.5,0.25,95,150.0
352,E4,146.75,0.25,95,150.0
353,F#4,147.0,0.25,95,150.0
354,G4,147.25,0.25,95,150.0
355,A4,147.5,0.25,95,150.0
356,E3,147.75,0.25,95,150.0
357,E4,148.0,0.25,95,150.0
358,B3,148.25,0.25,95,150.0
359,B4,148.5,0.25,95,150.0
360,E4,148.75,0.25,95,150.0
361,E5,149.0,167/1000,95,150.0
362,A4,149.167,167/1000,95,150.0
363,B4,149.333,167/1000,95,150.0
364,B5,149.5,0.25,95,150.0
365,B4,149.75,0.25,95,150.0
366,A4,150.0,0.25,95,150.0
367,A5,150.25,0.25,95,150.0
368,A4,150.5,0.25,95,150.0
369,G4,150.75,0.25,95,150.0
370,G5,151.0,0.25,95,150.0
371,G4,151.25,0.25,95,150.0
372,F#4,151.5,0.25,95,150.0
373,F#5,151.75,0.25,95,150.0
374,F#4,152.0,0.25,95,150.0
375,E4,152.25,0.25,95,150.0
376,E5,152.5,0.25,95,150.0
377,E4,152.75,0.25,95,150.0
378,D4,153.0,1.5,95,150.0
379,E4,154.5,0.5,95,150.0
380,G4,155.0,333/1000,95,150.0
381,A4,155.333,333/1000,95,150.0
382,F#4,155.667,333/1000,95,150.0
383,G4,156.0,333/1000,70,150.0
384,B4,156.333,333/1000,95,150.0
385,D5,156.667,333/1000,95,150.0
386,G#4,156.875,0.125,95,150.0
387,B4,157.0,3.0,95,150.0
388,B4,160.0,0.5,47,150.0
389,B4,160.5,0.5,71,150.0
390,E3,160.5,0.5,71,150.0
391,D5,161.0,167/1000,95,150.0
392,E5,161.167,167/1000,95,150.0
393,D5,161.333,167/1000,95,150.0
394,C5,161.5,167/1000,95,150.0
395,A4,161.667,167/1000,95,150.0
396,G4,161.833,167/1000,95,150.0
397,D5,162.0,167/1000,95,150.0
398,E5,162.167,167/1000,95,150.0
399,D5,162.333,167/1000,95,150.0
400,C5,162.5,167/1000,95,150.0
401,A4,162.667,167/1000,95,150.0
402,G4,162.833,167/1000,95,150.0
403,D5,163.0,167/1000,95,150.0
404,E5,163.167,167/1000,95,150.0
405,D5,163.333,167/1000,95,150.0
406,C5,163.5,167/1000,95,150.0
407,A4,163.667,167/1000,95,150.0
408,G#4,163.833,167/1000,95,150.0
409,E5,164.0,0.75,95,150.0
410,E3,164.75,0.25,95,150.0
411,B4,165.0,0.5,95,150.0
412,D5,165.5,0.25,95,150.0
413,C#5,165.75,0.25,95,150.0
414,E5,166.25,0.25,95,150.0
415,G5,167.375,0.125,95,150.0
416,A5,167.5,0.5,95,150.0
417,A5,168.0,1.75,47,150.0
418,G5,169.75,0.25,95,150.0
419,A5,170.0,167/1000,95,150.0
420,B5,170.167,167/1000,95,150.0
421,A5,170.333,167/1000,95,150.0
422,G5,170.5,167/1000,95,150.0
423,E5,170.667,167/1000,95,150.0
424,D5,170.833,167/1000,95,150.0
425,A5,171.0,167/1000,95,150.0
426,B5,171.167,167/1000,95,150.0
427,A5,171.333,167/1000,95,150.0
428,G5,171.5,167/1000,95,150.0
429,E5,171.667,167/1000,95,150.0
430,D5,171.833,167/1000,95,150.0
431,A5,172.0,167/1000,95,150.0
432,B5,172.167,167/1000,95,150.0
433,A5,172.333,167/1000,95,150.0
434,G5,172.5,167/1000,95,150.0
435,E5,172.667,167/1000,95,150.0
436,D5,172.833,167/1000,95,150.0
437,A5,173.0,167/1000,95,150.0
438,B5,173.167,167/1000,95,150.0
439,A5,173.333,167/1000,95,150.0
440,G5,173.5,167/1000,95,150.0
441,F5,173.667,167/1000,95,150.0
442,C5,173.833,167/1000,95,150.0
443,G5,174.0,167/1000,95,150.0
444,A5,174.167,167/1000,95,150.0
445,G5,174.333,167/1000,95,150.0
446,E5,174.5,167/1000,95,150.0
447,D5,174.667,167/1000,95,150.0
448,B4,174.833,167/1000,95,150.0
449,G5,175.0,167/1000,95,150.0
450,A5,175.167,167/1000,95,150.0
451,G5,175.333,167/1000,95,150.0
452,E5,175.5,167/1000,95,150.0
453,D5,175.667,167/1000,95,150.0
454,B4,175.833,167/1000,95,150.0
455,G5,176.0,167/1000,95,150.0
456,A5,176.167,167/1000,95,150.0
457,G5,176.333,167/1000,95,150.0
458,E5,176.5,167/1000,95,150.0
459,D5,176.667,167/1000,95,150.0
460,C5,176.833,167/1000,95,150.0
461,G5,177.0,167/1000,95,150.0
462,A5,177.167,167/1000,95,150.0
463,G5,177.333,167/1000,95,150.0
464,E5,177.5,167/1000,95,150.0
465,D5,177.667,167/1000,95,150.0
466,C5,177.833,167/1000,95,150.0
467,G5,178.0,1.0,95,150.0
468,G5,179.0,333/1000,47,150.0
469,G5,179.333,333/1000,95,150.0
470,E5,179.667,333/1000,95,150.0
471,D5,180.0,0.25,95,150.0
472,E5,180.25,0.25,95,150.0
473,D5,180.5,0.25,95,150.0
474,B4,180.75,0.25,95,150.0
475,B-4,181.0,0.25,95,150.0
476,C#5,181.25,0.25,95,150.0
477,B4,181.5,0.25,95,150.0
478,B-4,181.75,0.25,95,150.0
479,B4,182.0,167/1000,95,150.0
480,B-4,182.167,167/1000,95,150.0
481,A4,182.333,167/1000,95,150.0
482,G4,182.5,0.25,95,150.0
483,E4,182.75,0.25,95,150.0
484,A4,183.0,0.25,95,150.0
485,E4,183.25,0.25,95,150.0
486,G4,183.5,0.25,95,150.0
487,D5,183.75,0.25,95,150.0
488,D5,184.0,0.25,47,150.0
489,G3,184.25,0.25,95,150.0
490,D3,184.25,0.25,95,150.0
491,D5,184.375,0.125,95,150.0
492,E5,184.5,0.25,95,150.0
493,A5,184.75,0.25,95,150.0
494,D5,185.0,0.25,95,150.0
495,E5,185.25,0.25,95,150.0
496,A5,185.5,0.25,95,150.0
497,D5,185.75,0.25,95,150.0
498,E5,186.0,0.25,95,150.0
499,A5,186.25,0.25,95,150.0
500,D5,186.5,0.25,95,150.0
501,E5,186.75,0.25,95,150.0
502,A5,187.0,0.25,95,150.0
503,D5,187.25,0.25,95,150.0
504,E5,187.5,0.25,95,150.0
505,A5,187.75,0.25,95,150.0
506,D5,188.0,0.25,95,150.0
507,E5,188.25,0.25,95,150.0
508,A5,188.5,0.25,95,150.0
509,D5,188.75,0.25,95,150.0
510,E5,189.0,0.25,95,150.0
511,A5,189.25,0.25,95,150.0
512,D5,189.5,0.25,95,150.0
513,E5,189.75,0.25,95,150.0
514,D5,190.0,0.5,95,150.0
515,D5,190.5,1.5,47,150.0
516,D5,191.875,0.125,95,150.0
517,D5,192.0,333/1000,47,150.0
518,C5,192.333,333/1000,95,150.0
519,D5,192.667,333/1000,95,150.0
520,C5,193.0,0.25,95,150.0
521,A4,193.25,0.25,95,150.0
522,E4,193.5,0.25,95,150.0
523,G4,193.75,0.25,95,150.0
524,E4,193.875,0.125,95,150.0
525,D4,194.0,0.25,95,150.0
526,C4,194.25,0.25,95,150.0
527,G4,194.5,1.0,95,150.0
528,A4,195.5,0.25,95,150.0
529,G4,195.75,0.25,95,150.0
530,E4,196.0,0.25,95,150.0
531,D4,196.25,0.25,95,150.0
532,E4,196.5,0.25,95,150.0
533,C4,196.75,0.25,95,150.0
534,A3,197.0,0.5,95,150.0
535,D4,197.5,167/1000,95,150.0
536,E4,197.667,167/1000,95,150.0
537,G4,197.833,167/1000,95,150.0
538,A4,198.0,0.5,95,150.0
539,E5,198.5,0.25,95,150.0
540,G5,198.75,1.0,95,150.0
541,G5,199.75,0.25,71,150.0
542,G3,199.75,0.25,71,150.0
543,C5,200.0,1.0,95,150.0
544,C5,201.0,333/1000,47,150.0
545,D5,201.333,333/1000,95,150.0
546,E5,201.667,333/1000,95,150.0
547,B4,202.0,1.0,95,150.0
548,B4,203.0,333/1000,47,150.0
549,C5,203.333,333/1000,95,150.0
550,D5,203.667,333/1000,95,150.0
551,A4,204.0,1.0,95,150.0
552,A4,205.0,333/1000,47,150.0
553,B4,205.333,333/1000,95,150.0
554,C5,205.667,333/1000,95,150.0
555,G4,206.25,0.75,95,150.0
556,G4,207.0,333/1000,47,150.0
557,G3,207.0,333/1000,47,150.0
558,A4,207.333,333/1000,95,150.0
559,B4,207.667,333/1000,95,150.0
560,B-4,207.875,0.125,95,150.0
561,B4,208.0,1.5,95,150.0
562,C5,209.5,0.5,95,150.0
563,A4,210.0,2.0,95,150.0
564,E5,213.333,333/1000,95,150.0
565,A5,213.667,1333/1000,95,150.0
566,A5,215.0,667/1000,47,150.0
567,E5,215.667,333/1000,95,150.0
568,E5,216.0,1.0,47,150.0
569,C5,217.0,1.0,95,150.0
570,D5,218.0,667/1000,95,150.0
571,A4,218.667,667/1000,95,150.0
572,C5,219.333,667/1000,95,150.0
573,G4,220.0,1667/1000,95,150.0
574,E4,221.667,333/1000,95,150.0
575,A4,222.0,0.75,95,150.0
576,E4,222.75,0.25,95,150.0
577,E4,223.0,167/1000,47,150.0
578,F4,223.167,167/1000,95,150.0
579,E4,223.333,167/1000,95,150.0
580,D4,223.5,167/1000,95,150.0
581,B3,223.667,167/1000,95,150.0
582,C4,223.833,167/1000,95,150.0
583,D4,224.0,0.75,95,150.0
584,C4,224.75,0.125,95,150.0
585,B3,224.875,0.125,95,150.0
586,A3,225.0,0.5,95,150.0
587,G3,225.5,0.25,95,150.0
588,F3,225.75,0.25,95,150.0
589,E3,226.0,0.5,95,150.0
590,D3,226.5,167/1000,95,150.0
591,C3,226.667,167/1000,95,150.0
592,B2,226.833,167/1000,95,150.0
593,G2,227.0,0.5,95,150.0
594,A2,227.5,0.5,95,150.0
595,A2,229.0,17/250,95,150.0
596,E3,229.333,333/1000,95,150.0
597,G3,229.667,333/1000,95,150.0
598,B3,230.0,0.5,95,150.0
599,D4,230.5,0.25,95,150.0
600,E4,230.75,1.25,95,150.0
601,E4,232.0,0.5,47,150.0
602,F3,232.5,0.25,95,150.0
603,F3,232.75,0.25,95,150.0
604,D4,233.0,0.25,95,150.0
605,G4,233.25,0.25,95,150.0
606,G4,233.5,0.25,95,150.0
607,G4,233.75,0.25,95,150.0
608,E2,234.0,17/250,95,150.0
609,G4,234.25,0.25,95,150.0
610,E2,234.5,17/250,95,150.0
611,G4,234.75,0.25,95,150.0
612,G3,235.0,1.0,95,150.0
613,G3,236.0,0.5,47,150.0
614,G3,236.5,0.5,95,150.0
615,G4,237.0,0.25,95,150.0
616,G4,237.25,0.25,95,150.0
617,G4,237.5,0.25,95,150.0
618,G4,237.75,0.25,95,150.0
619,E2,238.0,17/250,95,150.0
620,G4,238.25,0.25,95,150.0
621,E2,238.5,17/250,95,150.0
622,D4,238.75,0.25,95,150.0
623,F#4,239.0,0.5,95,150.0
624,G4,239.5,0.5,95,150.0
625,G4,240.0,0.5,47,150.0
626,G3,240.5,0.5,95,150.0
627,G4,241.0,0.25,95,150.0
628,G4,241.25,0.25,95,150.0
629,G4,241.5,0.25,95,150.0
630,G4,241.75,0.25,95,150.0
631,E2,242.0,17/250,95,150.0
632,G4,242.25,0.25,95,150.0
633,E2,242.5,17/250,95,150.0
634,A2,242.75,0.25,95,150.0
635,G4,243.0,0.25,95,150.0
636,A4,243.25,0.25,95,150.0
637,F#4,243.5,0.5,95,150.0
638,G4,244.0,0.5,95,150.0
639,E4,244.5,0.25,95,150.0
640,F#4,244.75,0.25,95,150.0
641,D4,245.0,0.5,95,150.0
642,E4,245.5,0.25,95,150.0
643,C4,245.75,583/1000,95,150.0
644,D4,246.333,333/1000,95,150.0
645,A3,246.667,333/1000,95,150.0
646,C4,247.0,1.0,95,150.0
647,C4,248.0,0.75,47,150.0
648,C4,248.75,0.25,47,150.0
649,G3,249.0,167/1000,95,150.0
650,G#3,249.167,167/1000,95,150.0
651,A3,249.333,167/1000,95,150.0
652,C4,249.5,167/1000,95,150.0
653,A3,249.667,167/1000,95,150.0
654,G#3,249.833,167/1000,95,150.0
655,G3,250.0,167/1000,95,150.0
656,G#3,250.167,167/1000,95,150.0
657,A3,250.333,167/1000,95,150.0
658,C4,250.5,167/1000,95,150.0
659,A3,250.667,167/1000,95,150.0
660,G#3,250.833,167/1000,95,150.0
661,G3,251.0,167/1000,95,150.0
662,G#3,251.167,167/1000,95,150.0
663,A3,251.333,167/1000,95,150.0
664,C4,251.5,167/1000,95,150.0
665,A3,251.667,167/1000,95,150.0
666,G#3,251.833,167/1000,95,150.0
667,G3,252.0,167/1000,95,150.0
668,G#3,252.167,167/1000,95,150.0
669,A3,252.333,167/1000,95,150.0
670,C4,252.5,167/1000,95,150.0
671,A3,252.667,167/1000,95,150.0
672,G#3,252.833,167/1000,95,150.0
673,G3,253.0,167/1000,95,150.0
674,G#3,253.167,167/1000,95,150.0
675,A3,253.333,167/1000,95,150.0
676,D4,253.5,167/1000,95,150.0
677,A3,253.667,167/1000,95,150.0
678,G#3,253.833,167/1000,95,150.0
679,G3,254.0,167/1000,95,150.0
680,G#3,254.167,167/1000,95,150.0
681,A3,254.333,167/1000,95,150.0
682,C4,254.5,167/1000,95,150.0
683,A3,254.667,167/1000,95,150.0
684,G#3,254.833,167/1000,95,150.0
685,G3,255.0,167/1000,95,150.0
686,G#3,255.167,167/1000,95,150.0
687,A3,255.333,167/1000,95,150.0
688,C4,255.5,167/1000,95,150.0
689,C#4,255.667,167/1000,95,150.0
690,D4,255.833,167/1000,95,150.0
691,G3,256.0,167/1000,95,150.0
692,G#3,256.167,167/1000,95,150.0
693,A3,256.333,167/1000,95,150.0
694,C4,256.5,167/1000,95,150.0
695,A3,256.667,167/1000,95,150.0
696,G#3,256.833,167/1000,95,150.0
697,G3,257.0,167/1000,95,150.0
698,G#3,257.167,167/1000,95,150.0
699,A3,257.333,167/1000,95,150.0
700,C4,257.5,167/1000,95,150.0
701,A3,257.667,167/1000,95,150.0
702,G#3,257.833,167/1000,95,150.0
703,G3,258.0,167/1000,95,150.0
704,G#3,258.167,167/1000,95,150.0
705,A3,258.333,167/1000,95,150.0
706,C4,258.5,167/1000,95,150.0
707,A3,258.667,167/1000,95,150.0
708,G#3,258.833,167/1000,95,150.0
709,G3,259.0,167/1000,95,150.0
710,G#3,259.167,167/1000,95,150.0
711,A3,259.333,167/1000,95,150.0
712,D4,259.5,167/1000,95,150.0
713,A3,259.667,167/1000,95,150.0
714,G#3,259.833,167/1000,95,150.0
715,G3,260.0,167/1000,95,150.0
716,G#3,260.167,167/1000,95,150.0
717,A3,260.333,167/1000,95,150.0
718,C4,260.5,167/1000,95,150.0
719,C#4,260.667,167/1000,95,150.0
720,D4,260.833,167/1000,95,150.0
721,D4,261.0,167/1000,95,150.0
722,E-4,261.167,167/1000,95,150.0
723,E4,261.333,167/1000,95,150.0
724,G4,261.5,167/1000,95,150.0
725,E4,261.667,167/1000,95,150.0
726,E-4,261.833,167/1000,95,150.0
727,D4,262.0,167/1000,95,150.0
728,E-4,262.167,167/1000,95,150.0
729,E4,262.333,167/1000,95,150.0
730,G4,262.5,167/1000,95,150.0
731,E4,262.667,167/1000,95,150.0
732,E-4,262.833,167/1000,95,150.0
733,D4,263.0,167/1000,95,150.0
734,E-4,263.167,167/1000,95,150.0
735,E4,263.333,167/1000,95,150.0
736,G4,263.5,167/1000,95,150.0
737,G#4,263.667,167/1000,95,150.0
738,A4,263.833,167/1000,95,150.0
739,D4,264.0,167/1000,95,150.0
740,E-4,264.167,167/1000,95,150.0
741,E4,264.333,167/1000,95,150.0
742,G4,264.5,167/1000,95,150.0
743,E4,264.667,167/1000,95,150.0
744,E-4,264.833,167/1000,95,150.0
745,D4,265.0,167/1000,95,150.0
746,E-4,265.167,167/1000,95,150.0
747,E4,265.333,167/1000,95,150.0
748,A4,265.5,167/1000,95,150.0
749,E4,265.667,167/1000,95,150.0
750,E-4,265.833,167/1000,95,150.0
751,D4,266.0,167/1000,95,150.0
752,E-4,266.167,167/1000,95,150.0
753,E4,266.333,167/1000,95,150.0
754,G4,266.5,167/1000,95,150.0
755,G#4,266.667,167/1000,95,150.0
756,A4,266.833,167/1000,95,150.0
757,G4,267.0,167/1000,95,150.0
758,G#4,267.167,167/1000,95,150.0
759,A4,267.333,167/1000,95,150.0
760,C5,267.5,167/1000,95,150.0
761,A4,267.667,167/1000,95,150.0
762,G#4,267.833,167/1000,95,150.0
763,G4,268.0,167/1000,95,150.0
764,G#4,268.167,167/1000,95,150.0
765,A4,268.333,167/1000,95,150.0
766,D5,268.5,167/1000,95,150.0
767,A4,268.667,167/1000,95,150.0
768,G#4,268.833,167/1000,95,150.0
769,G4,269.0,167/1000,95,150.0
770,G#4,269.167,167/1000,95,150.0
771,A4,269.333,167/1000,95,150.0
772,C5,269.5,167/1000,95,150.0
773,A4,269.667,167/1000,95,150.0
774,G#4,269.833,167/1000,95,150.0
775,G4,270.0,167/1000,95,150.0
776,G#4,270.167,167/1000,95,150.0
777,A4,270.333,167/1000,95,150.0
778,D5,270.5,167/1000,95,150.0
779,A4,270.667,167/1000,95,150.0
780,G#4,270.833,167/1000,95,150.0
781,G4,271.0,167/1000,95,150.0
782,G#4,271.167,167/1000,95,150.0
783,A4,271.333,167/1000,95,150.0
784,C5,271.5,167/1000,95,150.0
785,C#5,271.667,167/1000,95,150.0
786,D5,271.833,167/1000,95,150.0
787,C5,272.0,167/1000,95,150.0
788,D5,272.167,167/1000,95,150.0
789,E-5,272.333,167/1000,95,150.0
790,E5,272.5,167/1000,95,150.0
791,E-5,272.667,167/1000,95,150.0
792,D5,272.833,167/1000,95,150.0
793,C5,273.0,167/1000,95,150.0
794,D5,273.167,167/1000,95,150.0
795,E-5,273.333,167/1000,95,150.0
796,E5,273.5,167/1000,95,150.0
797,E-5,273.667,167/1000,95,150.0
798,D5,273.833,167/1000,95,150.0
799,G5,274.0,167/1000,95,150.0
800,E5,274.167,167/1000,95,150.0
801,G5,274.333,167/1000,95,150.0
802,E5,274.5,167/1000,95,150.0
803,D5,274.667,167/1000,95,150.0
804,E5,274.833,167/1000,95,150.0
805,G5,275.0,167/1000,95,150.0
806,E5,275.167,167/1000,95,150.0
807,G5,275.333,167/1000,95,150.0
808,E5,275.5,167/1000,95,150.0
809,D5,275.667,167/1000,95,150.0
810,E5,275.833,167/1000,95,150.0
811,G5,276.0,167/1000,95,150.0
812,E5,276.167,167/1000,95,150.0
813,G5,276.333,167/1000,95,150.0
814,E5,276.5,167/1000,95,150.0
815,D5,276.667,167/1000,95,150.0
816,E5,276.833,167/1000,95,150.0
817,G5,277.0,167/1000,95,150.0
818,E5,277.167,167/1000,95,150.0
819,G5,277.333,167/1000,95,150.0
820,E5,277.5,167/1000,95,150.0
821,D5,277.667,167/1000,95,150.0
822,E5,277.833,167/1000,95,150.0
823,A5,278.0,167/1000,95,150.0
824,E5,278.167,167/1000,95,150.0
825,A5,278.333,167/1000,95,150.0
826,E5,278.5,167/1000,95,150.0
827,D5,278.667,167/1000,95,150.0
828,E5,278.833,167/1000,95,150.0
829,A5,279.0,0.25,95,150.0
830,E5,279.25,0.25,95,150.0
831,G5,279.5,0.5,95,150.0
832,A5,280.0,1.0,47,150.0
833,A5,281.0,0.5,47,150.0
834,G5,281.5,0.25,95,150.0
835,E5,281.75,0.25,95,150.0
836,G5,282.0,0.25,95,150.0
837,G5,282.25,0.25,95,150.0
838,E5,282.5,0.25,95,150.0
839,E-5,282.75,0.25,95,150.0
840,F#5,283.0,0.25,95,150.0
841,E5,283.25,0.25,70,150.0
842,G5,283.5,0.25,95,150.0
843,A5,283.75,0.25,95,150.0
844,G5,284.0,0.25,95,150.0
845,B5,284.25,0.25,95,150.0
846,A5,284.5,0.25,70,150.0
847,G5,284.75,0.25,95,150.0
848,A5,285.0,0.25,95,150.0
849,B5,285.25,0.25,95,150.0
850,C6,285.5,0.25,95,150.0
851,C6,285.75,1583/1000,95,150.0
852,C6,287.333,333/1000,95,150.0
853,C6,287.667,333/1000,95,150.0
854,C6,288.0,333/1000,47,150.0
855,C6,288.333,333/1000,95,150.0
856,G5,288.333,333/1000,95,150.0
857,C6,288.667,333/1000,47,150.0
858,C6,289.0,333/1000,95,150.0
859,C6,289.333,333/1000,47,150.0
860,C6,289.667,333/1000,95,150.0
861,C6,290.0,333/1000,47,150.0
862,B5,290.333,333/1000,95,150.0
863,B5,290.667,583/1000,47,150.0
864,G5,291.25,0.25,95,150.0
865,A5,291.5,0.25,95,150.0
866,B5,291.75,0.25,95,150.0
867,G5,292.0,0.25,95,150.0
868,A5,292.25,0.25,95,150.0
869,G5,292.5,167/1000,95,150.0
870,E5,292.667,167/1000,95,150.0
871,E-5,292.833,167/1000,95,150.0
872,E5,293.0,0.25,95,150.0
873,D5,293.25,0.75,95,150.0
874,D5,294.0,0.75,47,150.0
875,D5,294.75,1.25,47,150.0
876,D5,296.0,0.75,47,150.0
877,D5,296.75,0.25,47,150.0
878,B4,297.0,167/1000,95,150.0
879,C5,297.167,167/1000,95,150.0
880,D5,297.333,167/1000,95,150.0
881,E5,297.5,0.25,95,150.0
882,F#5,297.75,0.25,95,150.0
883,G5,298.0,0.25,95,150.0
884,A5,298.25,0.25,95,150.0
885,G5,298.5,0.25,95,150.0
886,B5,298.75,0.25,95,150.0
887,A5,299.0,0.25,95,150.0
888,G5,299.25,0.25,95,150.0
889,A5,299.5,0.25,95,150.0
890,B5,299.75,0.25,95,150.0
891,C6,300.0,167/1000,95,150.0
892,B5,300.167,167/1000,95,150.0
893,B5,300.333,167/1000,95,150.0
894,C6,300.5,167/1000,95,150.0
895,B5,300.667,167/1000,95,150.0
896,A5,300.833,167/1000,95,150.0
897,G5,301.0,0.25,95,150.0
898,F#5,301.25,0.25,95,150.0
899,A5,301.5,0.25,95,150.0
900,G5,301.75,0.25,95,150.0
901,F#5,302.0,0.25,95,150.0
902,F5,302.25,0.25,95,150.0
903,E5,302.5,0.25,95,150.0
904,D5,302.75,0.25,95,150.0
905,E5,303.0,0.25,95,150.0
906,D5,303.25,0.25,95,150.0
907,C5,303.5,0.25,95,150.0
908,A4,303.75,0.25,95,150.0
909,C5,304.0,0.25,95,150.0
910,B4,304.25,0.25,95,150.0
911,G4,304.5,0.25,95,150.0
912,E4,304.75,0.25,95,150.0
913,B4,305.0,0.25,95,150.0
914,C5,305.25,0.25,95,150.0
915,C#5,305.5,0.25,95,150.0
916,C#5,305.625,0.125,95,150.0
917,D5,305.75,0.25,95,150.0
918,B-4,306.0,0.25,95,150.0
919,B4,306.25,0.25,95,150.0
920,G4,306.5,0.25,95,150.0
921,E4,306.75,0.25,95,150.0
922,G4,307.0,0.25,95,150.0
923,B4,307.25,0.25,95,150.0
924,C5,307.5,0.25,95,150.0
925,A4,307.75,0.25,95,150.0
926,B4,308.333,333/1000,95,150.0
927,C5,308.667,333/1000,95,150.0
928,D5,309.0,333/1000,95,150.0
929,B-4,309.208,0.125,95,150.0
930,B4,309.333,333/1000,95,150.0
931,C5,309.667,333/1000,95,150.0
932,A4,310.0,333/1000,95,150.0
933,B4,310.333,333/1000,95,150.0
934,D5,310.667,333/1000,95,150.0
935,F#5,311.0,333/1000,95,150.0
936,A5,311.333,333/1000,95,150.0
937,A5,311.667,333/1000,95,150.0
938,A5,312.0,2.0,47,150.0
939,F#5,314.0,167/1000,95,150.0
940,G5,314.167,167/1000,95,150.0
941,G#5,314.333,167/1000,95,150.0
942,A5,314.5,167/1000,95,150.0
943,C#5,314.667,167/1000,95,150.0
944,D5,314.833,167/1000,95,150.0
945,E-5,315.0,167/1000,95,150.0
946,E5,315.167,167/1000,95,150.0
947,F#5,315.333,167/1000,95,150.0
948,G5,315.5,167/1000,95,150.0
949,G#5,315.667,167/1000,95,150.0
950,A5,315.833,167/1000,95,150.0
951,C#5,316.0,167/1000,95,150.0
952,D5,316.167,167/1000,95,150.0
953,E-5,316.333,167/1000,95,150.0
954,E5,316.5,167/1000,95,150.0
955,F#5,316.667,167/1000,95,150.0
956,G5,316.833,167/1000,95,150.0
957,G#5,317.0,167/1000,95,150.0
958,A5,317.167,167/1000,95,150.0
959,E5,317.333,167/1000,95,150.0
960,F5,317.5,167/1000,95,150.0
961,F#5,317.667,167/1000,95,150.0
962,G5,317.833,167/1000,95,150.0
963,B4,318.0,167/1000,95,150.0
964,C5,318.167,167/1000,95,150.0
965,C#5,318.333,167/1000,95,150.0
966,D5,318.5,167/1000,95,150.0
967,F#4,318.667,167/1000,95,150.0
968,G4,318.833,167/1000,95,150.0
969,G#4,319.0,167/1000,95,150.0
970,A4,319.167,167/1000,95,150.0
971,B4,319.333,167/1000,95,150.0
972,D5,319.5,167/1000,95,150.0
973,D5,319.667,333/1000,95,150.0
974,D5,320.0,2.0,95,150.0
975,D3,321.5,0.5,47,150.0
976,D5,322.0,333/1000,47,150.0
977,D5,322.208,0.125,63,150.0
978,D5,322.333,333/1000,47,150.0
979,C5,322.667,333/1000,95,150.0
980,B4,323.0,333/1000,95,150.0
981,B-4,323.333,333/1000,95,150.0
982,B4,323.667,333/1000,95,150.0
983,A4,324.0,167/1000,95,150.0
984,A4,324.167,167/1000,95,150.0
985,A4,324.333,167/1000,95,150.0
986,G4,324.5,0.125,95,150.0
987,A4,324.625,0.125,95,150.0
988,A4,324.75,0.125,95,150.0
989,G4,324.875,0.125,95,150.0
990,F#4,325.0,167/1000,95,150.0
991,G4,325.167,167/1000,95,150.0
992,G4,325.333,167/1000,95,150.0
993,A4,325.5,167/1000,95,150.0
994,A4,325.667,167/1000,95,150.0
995,F#4,325.833,167/1000,95,150.0
996,B3,326.0,0.5,95,150.0
997,B4,326.5,0.5,95,150.0
998,B4,327.0,0.75,47,150.0
999,B4,327.75,0.25,47,150.0
1000,A4,328.0,0.25,95,150.0
1001,B4,328.25,1.25,95,150.0
1002,A4,329.5,0.5,95,150.0
1003,B4,330.75,0.25,95,150.0
1004,C5,331.0,167/1000,95,150.0
1005,E5,331.167,167/1000,95,150.0
1006,G5,331.333,167/1000,95,150.0
1007,E5,331.5,167/1000,95,150.0
1008,C5,331.667,167/1000,95,150.0
1009,B4,331.833,167/1000,70,150.0
1010,G4,332.0,167/1000,95,150.0
1011,E4,332.167,167/1000,70,150.0
1012,C4,332.333,167/1000,95,150.0
1013,B3,332.5,167/1000,95,150.0
1014,G4,332.667,833/1000,95,150.0
1015,G4,333.5,0.5,47,150.0
1016,E4,334.0,0.25,95,150.0
1017,C4,334.25,0.25,95,150.0
1018,B3,334.5,0.25,70,150.0
1019,A3,334.75,0.25,95,150.0
1020,F3,335.0,0.25,95,150.0
1021,E3,335.25,0.75,95,150.0
1022,E3,336.0,333/1000,47,150.0
1023,F3,336.333,333/1000,95,150.0
1024,G3,336.667,333/1000,95,150.0
1025,A3,337.0,0.25,95,150.0
1026,C4,337.25,0.25,95,150.0
1027,B3,337.5,0.25,95,150.0
1028,D4,337.75,0.25,95,150.0
1029,C4,338.0,0.25,95,150.0
1030,E4,338.25,0.25,95,150.0
1031,D4,338.5,0.25,95,150.0
1032,C4,338.75,0.25,95,150.0
1033,D4,339.0,0.25,95,150.0
1034,E4,339.25,0.25,95,150.0
1035,F4,339.5,0.25,95,150.0
1036,G4,339.75,0.25,95,150.0
1037,E-4,340.0,0.25,95,150.0
1038,E4,340.25,0.25,95,150.0
1039,C4,340.5,0.25,95,150.0
1040,E4,340.75,1.25,95,150.0
