,note_name,start_time,duration,velocity,tempo
0,G2,0.01,2573/1000,32,90.0
1,G4,0.01,1.688,60,90.0
2,D4,0.01,151/125,64,90.0
3,G2,0.01,399/100,64,90.0
4,A3,0.01,2.438,48,90.0
5,G3,0.01,2.438,48,90.0
6,D4,0.5,1.531,56,90.0
7,D5,0.5,3.5,56,90.0
8,D4,0.5,771/1000,60,90.0
9,G3,0.75,349/500,64,90.0
10,G4,1.25,1.156,60,90.0
11,G5,1.25,2.0,48,90.0
12,G4,1.25,2.75,60,90.0
13,D4,1.5,1083/1000,60,90.0
14,D4,1.75,677/1000,48,90.0
15,A4,2.0,177/250,56,90.0
16,A5,2.0,2.0,48,90.0
17,G3,2.0,323/250,64,90.0
18,E4,2.5,149/100,56,90.0
19,B4,2.75,677/1000,60,90.0
20,B5,2.75,1.25,56,90.0
21,D4,3.25,0.75,56,90.0
22,G4,3.5,0.5,52,90.0
23,G5,3.5,0.5,48,90.0
24,G3,3.5,229/500,64,90.0
25,D4,4.0,1.219,48,90.0
26,B2,4.0,849/500,29,90.0
27,G4,4.0,73/250,52,90.0
28,B5,4.0,6/25,56,90.0
29,G5,4.0,0.438,48,90.0
30,D5,4.0,177/1000,56,90.0
31,A5,4.0,0.5,48,90.0
32,B2,4.0,4.0,64,90.0
33,G2,4.0,21/1000,64,90.0
34,G4,4.0,13/125,60,90.0
35,B3,4.0,194/125,52,90.0
36,A3,4.0,194/125,52,90.0
37,G4,4.0,194/125,52,90.0
38,D4,4.5,1073/1000,56,90.0
39,B5,4.5,1/100,16,90.0
40,D5,4.5,3.5,60,90.0
41,D4,4.5,771/1000,60,90.0
42,G3,4.75,349/500,64,90.0
43,G4,5.25,56/125,60,90.0
44,G5,5.25,901/500,48,90.0
45,G4,5.25,2.75,60,90.0
46,D4,5.5,1083/1000,60,90.0
47,D4,5.75,0.281,48,90.0
48,A4,6.0,177/250,56,90.0
49,A5,6.0,2.0,56,90.0
50,G3,6.0,323/250,64,90.0
51,E4,6.5,149/100,56,90.0
52,B4,6.75,677/1000,60,90.0
53,B5,6.75,1.25,48,90.0
54,D4,7.25,0.75,56,90.0
55,G4,7.5,0.5,52,90.0
56,G5,7.5,0.5,52,90.0
57,G3,7.5,229/500,64,90.0
58,C3,8.0,2.688,48,90.0
59,D4,8.0,1.156,56,90.0
60,G4,8.0,87/50,52,90.0
61,G4,8.0,73/250,52,90.0
62,B5,8.0,417/1000,48,90.0
63,A5,8.0,521/1000,56,90.0
64,G5,8.0,0.5,52,90.0
65,D5,8.0,6/25,60,90.0
66,C3,8.0,4.0,64,90.0
67,B2,8.0,1/100,64,90.0
68,G4,8.0,13/125,60,90.0
69,C4,8.0,249/100,48,90.0
70,E4,8.0,249/100,48,90.0
71,G3,8.0,249/100,48,90.0
72,D4,8.5,181/125,56,90.0
73,D5,8.5,3.125,56,90.0
74,D4,8.5,771/1000,60,90.0
75,G3,8.75,349/500,64,90.0
76,G4,9.25,1177/1000,60,90.0
77,G5,9.25,823/500,52,90.0
78,G4,9.25,2.75,60,90.0
79,D4,9.5,1083/1000,60,90.0
80,D4,9.75,0.656,48,90.0
81,A4,10.0,177/250,56,90.0
82,A5,10.0,327/200,52,90.0
83,G3,10.0,323/250,64,90.0
84,E4,10.5,149/100,56,90.0
85,B4,10.75,0.719,60,90.0
86,B5,10.75,99/125,52,90.0
87,D4,11.25,0.75,56,90.0
88,G4,11.5,0.5,56,90.0
89,G5,11.5,0.5,60,90.0
90,G3,11.5,229/500,64,90.0
91,E4,12.0,2.0,48,90.0
92,G4,12.0,3.0,56,90.0
93,G4,12.0,13/50,56,90.0
94,G5,12.0,77/200,60,90.0
95,D3,12.0,513/250,64,90.0
96,C3,12.0,1/100,64,90.0
97,G4,12.0,13/125,60,90.0
98,G3,12.0,3.844,53,90.0
99,C4,12.0,3.844,53,90.0
100,D3,12.0,3.844,53,90.0
101,D4,12.5,0.75,64,90.0
102,D5,12.5,1979/1000,56,90.0
103,D4,12.5,19/25,60,90.0
104,G3,12.75,63/50,64,90.0
105,E4,13.25,2271/1000,64,90.0
106,E5,13.25,0.781,48,90.0
107,G4,13.25,401/500,60,90.0
108,D4,13.5,0.5,60,90.0
109,A4,14.0,69/125,64,90.0
110,A5,14.0,0.688,52,90.0
111,D4,14.0,1.031,64,90.0
112,G4,14.5,1417/1000,60,90.0
113,G5,14.5,51/100,52,90.0
114,E4,15.0,0.844,56,90.0
115,E5,15.0,127/200,48,90.0
116,C4,15.0,49/100,60,90.0
117,G4,15.5,0.5,64,90.0
118,G5,15.5,0.5,48,90.0
119,D4,15.552,56/125,60,90.0
120,B1,16.0,0.5,96,90.0
121,D4,16.0,1.219,64,90.0
122,G4,16.0,849/500,60,90.0
123,G2,16.0,2573/1000,32,90.0
124,G4,16.0,0.156,64,90.0
125,G5,16.0,21/500,48,90.0
126,G2,16.0,4.0,64,90.0
127,B3,16.0,1229/500,48,90.0
128,A3,16.0,1229/500,48,90.0
129,G2,16.021,3979/1000,73,90.0
130,D4,16.5,1.531,56,90.0
131,D5,16.5,3.5,56,90.0
132,D4,16.5,771/1000,60,90.0
133,G3,16.75,349/500,64,90.0
134,G4,17.25,573/500,60,90.0
135,G5,17.25,2.0,48,90.0
136,G4,17.25,2.75,60,90.0
137,D4,17.5,1083/1000,60,90.0
138,D4,17.75,667/1000,48,90.0
139,C#2,18.0,0.5,96,90.0
140,A4,18.0,177/250,56,90.0
141,A5,18.0,2.0,48,90.0
142,G3,18.0,323/250,64,90.0
143,E4,18.5,149/100,56,90.0
144,B4,18.75,677/1000,60,90.0
145,B5,18.75,1.25,56,90.0
146,E-3,19.0,0.25,48,90.0
147,D4,19.25,0.75,56,90.0
148,E-3,19.5,0.25,48,90.0
149,G4,19.5,0.5,52,90.0
150,G5,19.5,0.5,48,90.0
151,G3,19.5,229/500,64,90.0
152,B1,20.0,0.25,96,90.0
153,G2,20.0,1/100,73,90.0
154,D4,20.0,1.219,48,90.0
155,B2,20.0,849/500,29,90.0
156,G4,20.0,73/250,52,90.0
157,B5,20.0,6/25,56,90.0
158,G5,20.0,0.438,48,90.0
159,D5,20.0,177/1000,56,90.0
160,A5,20.0,0.5,48,90.0
161,B2,20.0,4.0,64,90.0
162,G2,20.0,1/100,64,90.0
163,G4,20.0,13/125,60,90.0
164,B3,20.0,194/125,52,90.0
165,A3,20.0,194/125,52,90.0
166,G4,20.0,194/125,52,90.0
167,B2,20.021,3833/1000,73,90.0
168,D4,20.5,1073/1000,56,90.0
169,B5,20.5,1/100,16,90.0
170,D5,20.5,3.5,60,90.0
171,D4,20.5,771/1000,60,90.0
172,G3,20.75,349/500,64,90.0
173,G4,21.25,56/125,60,90.0
174,G5,21.25,901/500,48,90.0
175,G4,21.25,2.75,60,90.0
176,D4,21.5,1083/1000,60,90.0
177,D4,21.75,0.281,48,90.0
178,C#2,22.0,0.5,96,90.0
179,A4,22.0,177/250,56,90.0
180,A5,22.0,2.0,56,90.0
181,G3,22.0,323/250,64,90.0
182,E4,22.5,149/100,56,90.0
183,B4,22.75,677/1000,60,90.0
184,B5,22.75,1.25,48,90.0
185,E-3,23.0,0.25,48,90.0
186,D4,23.25,0.75,56,90.0
187,G4,23.5,0.5,52,90.0
188,G5,23.5,0.5,52,90.0
189,G3,23.5,229/500,64,90.0
190,B1,23.5,0.25,56,90.0
191,E-3,23.5,0.25,56,90.0
192,B1,24.0,0.5,96,90.0
193,C3,24.0,2.688,48,90.0
194,D4,24.0,1.156,56,90.0
195,G4,24.0,87/50,52,90.0
196,G4,24.0,73/250,52,90.0
197,B5,24.0,417/1000,48,90.0
198,A5,24.0,521/1000,56,90.0
199,G5,24.0,0.5,52,90.0
200,D5,24.0,6/25,60,90.0
201,C3,24.0,4.0,64,90.0
202,B2,24.0,1/100,64,90.0
203,G4,24.0,13/125,60,90.0
204,C4,24.0,249/100,48,90.0
205,E4,24.0,249/100,48,90.0
206,G3,24.0,249/100,48,90.0
207,C3,24.021,3.781,73,90.0
208,D4,24.5,181/125,56,90.0
209,D5,24.5,3.125,56,90.0
210,D4,24.5,771/1000,60,90.0
211,G3,24.75,349/500,64,90.0
212,G4,25.25,1177/1000,60,90.0
213,G5,25.25,823/500,52,90.0
214,G4,25.25,2.75,60,90.0
215,D4,25.5,1083/1000,60,90.0
216,D4,25.75,0.656,48,90.0
217,C#2,26.0,0.5,96,90.0
218,A4,26.0,177/250,56,90.0
219,A5,26.0,327/200,52,90.0
220,G3,26.0,323/250,64,90.0
221,E4,26.5,149/100,56,90.0
222,B4,26.75,0.719,60,90.0
223,B5,26.75,99/125,52,90.0
224,E-3,27.0,0.25,48,90.0
225,D4,27.25,0.75,56,90.0
226,E-3,27.5,0.25,48,90.0
227,G4,27.5,0.5,56,90.0
228,G5,27.5,0.5,60,90.0
229,G3,27.5,229/500,64,90.0
230,B1,28.0,0.5,96,90.0
231,E-3,28.0,0.25,80,90.0
232,E4,28.0,2.0,48,90.0
233,G4,28.0,3.0,56,90.0
234,G4,28.0,13/50,56,90.0
235,G5,28.0,77/200,60,90.0
236,D3,28.0,513/250,64,90.0
237,C3,28.0,1/100,64,90.0
238,G4,28.0,13/125,60,90.0
239,G3,28.0,3.844,53,90.0
240,C4,28.0,3.844,53,90.0
241,D3,28.0,3.844,53,90.0
242,D3,28.021,56/25,73,90.0
243,D4,28.5,0.75,64,90.0
244,D5,28.5,1979/1000,56,90.0
245,D4,28.5,19/25,60,90.0
246,G3,28.75,63/50,64,90.0
247,E4,29.25,2271/1000,64,90.0
248,E5,29.25,0.781,48,90.0
249,G4,29.25,401/500,60,90.0
250,D4,29.5,0.5,60,90.0
251,C#2,30.0,0.5,96,90.0
252,A4,30.0,69/125,64,90.0
253,A5,30.0,0.688,52,90.0
254,D4,30.0,1.031,64,90.0
255,G4,30.5,1417/1000,60,90.0
256,G5,30.5,51/100,52,90.0
257,A2,30.521,49/100,73,90.0
258,E-3,31.0,0.25,48,90.0
259,E4,31.0,0.844,56,90.0
260,E5,31.0,127/200,48,90.0
261,C4,31.0,49/100,60,90.0
262,D2,31.021,979/1000,73,90.0
263,E-3,31.5,0.25,48,90.0
264,G4,31.5,0.5,64,90.0
265,G5,31.5,0.5,48,90.0
266,D4,31.552,56/125,60,90.0
267,B1,32.0,0.5,96,90.0
268,E-3,32.0,0.25,80,90.0
269,D2,32.0,13/250,73,90.0
270,G2,32.0,4.0,73,90.0
271,G4,32.0,0.156,64,90.0
272,G5,32.0,21/500,48,90.0
273,G2,32.0,4.0,64,90.0
274,G1,32.021,94/25,73,90.0
275,D4,32.5,771/1000,60,90.0
276,G3,32.75,349/500,64,90.0
277,G4,33.021,99/250,60,90.0
278,D4,33.021,99/250,60,90.0
279,B4,33.021,99/250,60,90.0
280,G4,33.25,2.75,60,90.0
281,D4,33.5,1083/1000,60,90.0
282,A4,33.99,151/500,61,90.0
283,D4,33.99,151/500,61,90.0
284,F#4,33.99,151/500,61,90.0
285,C#2,34.0,0.5,96,90.0
286,F#5,34.0,0.562,52,90.0
287,G3,34.0,323/250,64,90.0
288,G5,34.5,69/125,48,90.0
289,E4,34.5,149/100,56,90.0
290,D4,34.542,0.562,63,90.0
291,B4,34.542,0.562,63,90.0
292,G4,34.542,0.562,63,90.0
293,E-3,35.0,0.25,48,90.0
294,D6,35.0,427/1000,36,90.0
295,D4,35.25,0.75,56,90.0
296,E-3,35.5,0.25,48,90.0
297,D6,35.5,0.5,44,90.0
298,G3,35.5,229/500,64,90.0
299,B1,36.0,0.25,96,90.0
300,G2,36.0,4.0,73,90.0
301,D6,36.0,1.969,44,90.0
302,B2,36.0,4.0,64,90.0
303,G2,36.0,1/100,64,90.0
304,G4,36.0,13/125,60,90.0
305,B1,36.021,187/50,73,90.0
306,D4,36.5,771/1000,60,90.0
307,G3,36.75,349/500,64,90.0
308,G4,37.25,2.75,60,90.0
309,D4,37.5,1083/1000,60,90.0
310,C#2,38.0,0.5,96,90.0
311,F#5,38.0,479/1000,64,90.0
312,G3,38.0,323/250,64,90.0
313,G5,38.5,56/125,56,90.0
314,E4,38.5,149/100,56,90.0
315,E-3,39.0,0.25,48,90.0
316,D6,39.0,417/1000,56,90.0
317,D4,39.25,0.75,56,90.0
318,D6,39.5,0.5,44,90.0
319,G3,39.5,229/500,64,90.0
320,B1,39.5,0.25,56,90.0
321,E-3,39.5,0.25,56,90.0
322,B1,40.0,0.5,96,90.0
323,G2,40.0,4.0,73,90.0
324,D6,40.0,2.0,44,90.0
325,C3,40.0,4.0,64,90.0
326,B2,40.0,1/100,64,90.0
327,G4,40.0,13/125,60,90.0
328,C2,40.021,94/25,73,90.0
329,D4,40.5,771/1000,60,90.0
330,G3,40.75,349/500,64,90.0
331,G4,41.25,2.75,60,90.0
332,D4,41.5,1083/1000,60,90.0
333,C#2,42.0,0.5,96,90.0
334,F#5,42.0,0.5,52,90.0
335,G3,42.0,323/250,64,90.0
336,G5,42.5,56/125,48,90.0
337,E4,42.5,149/100,56,90.0
338,F#4,42.625,151/500,60,90.0
339,E-3,43.0,0.25,48,90.0
340,D6,43.0,417/1000,52,90.0
341,D4,43.177,0.562,63,90.0
342,B4,43.177,0.562,63,90.0
343,G4,43.177,0.562,63,90.0
344,D4,43.25,0.75,56,90.0
345,E-3,43.5,0.25,48,90.0
346,D6,43.5,0.5,48,90.0
347,G3,43.5,229/500,64,90.0
348,B1,44.0,0.5,96,90.0
349,G2,44.0,127/200,73,90.0
350,D6,44.0,51/100,48,90.0
351,D3,44.0,513/250,64,90.0
352,C3,44.0,1/100,64,90.0
353,G4,44.0,13/125,60,90.0
354,D2,44.021,3.031,82,90.0
355,A4,44.219,323/500,59,90.0
356,D4,44.219,323/500,59,90.0
357,F#4,44.219,323/500,59,90.0
358,E6,44.5,0.5,56,90.0
359,D4,44.5,19/25,60,90.0
360,B2,44.635,673/200,64,90.0
361,G3,44.75,63/50,64,90.0
362,C6,45.0,1.156,52,90.0
363,F#4,45.198,0.125,60,90.0
364,A4,45.198,0.125,60,90.0
365,D4,45.198,0.125,60,90.0
366,G4,45.25,401/500,60,90.0
367,D4,45.5,0.5,60,90.0
368,B4,45.729,0.594,61,90.0
369,D4,45.729,0.594,61,90.0
370,G4,45.729,0.594,61,90.0
371,B5,46.0,427/1000,60,90.0
372,D4,46.0,1.031,64,90.0
373,E-3,46.0,0.5,72,90.0
374,C#2,46.0,0.5,72,90.0
375,A5,46.5,49/100,56,90.0
376,F#4,46.698,229/1000,59,90.0
377,A4,46.698,229/1000,59,90.0
378,D4,46.698,229/1000,59,90.0
379,E-3,47.0,0.5,48,90.0
380,G5,47.0,333/1000,56,90.0
381,C4,47.0,49/100,60,90.0
382,D1,47.021,237/250,73,90.0
383,B4,47.219,229/1000,60,90.0
384,D4,47.219,229/1000,60,90.0
385,G4,47.219,229/1000,60,90.0
386,G5,47.5,0.5,44,90.0
387,D4,47.552,56/125,60,90.0
388,B1,48.0,0.25,112,90.0
389,E-3,48.0,0.5,80,90.0
390,B2,48.0,127/200,64,90.0
391,G5,48.0,1323/1000,44,90.0
392,B4,48.021,577/200,86,90.0
393,G1,48.021,1.281,73,90.0
394,A4,48.146,0.656,64,90.0
395,D4,48.146,0.656,64,90.0
396,F#4,48.146,0.656,64,90.0
397,D4,48.5,1.5,64,90.0
398,C3,48.635,673/200,64,90.0
399,F#2,49.0,0.5,64,90.0
400,G3,49.0,271/500,60,90.0
401,A4,49.115,23/200,56,90.0
402,F#4,49.115,23/200,56,90.0
403,D4,49.115,23/200,56,90.0
404,B1,49.5,0.25,96,90.0
405,G4,49.5,263/250,60,90.0
406,G1,49.521,1.75,64,90.0
407,B4,49.635,177/500,66,90.0
408,D4,49.635,177/500,66,90.0
409,G4,49.635,177/500,66,90.0
410,G3,50.0,1.938,64,90.0
411,F#2,50.0,0.5,88,90.0
412,C#2,50.0,0.5,88,90.0
413,D4,50.5,1417/1000,56,90.0
414,F#4,50.656,26/125,55,90.0
415,A4,50.656,26/125,55,90.0
416,D4,50.656,26/125,55,90.0
417,G4,51.0,51/100,84,90.0
418,F#2,51.0,0.5,64,90.0
419,G4,51.0,177/200,60,90.0
420,B4,51.188,0.219,60,90.0
421,D4,51.188,0.219,60,90.0
422,G4,51.188,0.219,60,90.0
423,A4,51.5,479/1000,72,90.0
424,G1,51.521,229/500,60,90.0
425,B1,52.0,0.25,112,90.0
426,E-3,52.0,0.5,80,90.0
427,C3,52.0,127/200,64,90.0
428,G4,52.0,729/500,60,90.0
429,B4,52.021,0.969,80,90.0
430,B1,52.021,1.312,73,90.0
431,C5,52.125,667/1000,56,90.0
432,G4,52.125,667/1000,56,90.0
433,C4,52.146,1099/500,56,90.0
434,D4,52.146,123/200,54,90.0
435,E4,52.146,123/200,54,90.0
436,B4,52.156,0.125,56,90.0
437,D3,52.635,673/200,64,90.0
438,C5,53.0,417/1000,72,90.0
439,F#2,53.0,0.5,64,90.0
440,E5,53.146,99/500,44,90.0
441,C5,53.146,99/500,44,90.0
442,D5,53.5,149/100,68,90.0
443,B1,53.5,0.25,96,90.0
444,F#4,53.5,521/500,52,90.0
445,B1,53.521,1.688,73,90.0
446,E5,53.656,0.594,68,90.0
447,G5,53.656,0.594,68,90.0
448,F#2,54.0,0.5,88,90.0
449,C#2,54.0,0.5,88,90.0
450,E4,54.5,1.031,56,90.0
451,E5,54.708,99/250,64,90.0
452,B4,55.0,51/100,72,90.0
453,F#2,55.0,0.5,64,90.0
454,D5,55.208,13/50,56,90.0
455,G4,55.5,0.438,72,90.0
456,D4,55.5,0.5,60,90.0
457,B1,55.521,479/1000,60,90.0
458,C5,55.698,6/25,73,90.0
459,B1,56.0,0.5,112,90.0
460,F#2,56.0,0.25,80,90.0
461,B1,56.0,21/500,60,90.0
462,D3,56.0,127/200,64,90.0
463,D4,56.0,1917/1000,60,90.0
464,A4,56.01,979/1000,76,90.0
465,C2,56.021,323/250,64,90.0
466,B4,56.198,0.5,64,90.0
467,G2,56.635,673/200,73,90.0
468,B4,57.0,56/125,76,90.0
469,F#2,57.0,0.25,64,90.0
470,G4,57.5,2.5,76,90.0
471,C2,57.521,1.656,64,90.0
472,G4,57.656,99/250,60,90.0
473,D4,57.656,99/250,60,90.0
474,B4,57.656,99/250,60,90.0
475,F#2,58.0,0.25,80,90.0
476,C#2,58.0,0.5,96,90.0
477,E4,58.0,127/200,60,90.0
478,D4,58.5,521/1000,60,90.0
479,A4,58.625,151/500,61,90.0
480,D4,58.625,151/500,61,90.0
481,F#4,58.625,151/500,61,90.0
482,F#2,59.0,0.25,64,90.0
483,G3,59.0,271/500,64,90.0
484,D4,59.177,0.562,63,90.0
485,B4,59.177,0.562,63,90.0
486,G4,59.177,0.562,63,90.0
487,F#2,59.5,0.25,32,90.0
488,E3,59.5,229/500,64,90.0
489,A1,59.521,417/1000,52,90.0
490,G4,60.0,1479/1000,76,90.0
491,B-2,60.0,0.5,48,90.0
492,G2,60.0,127/200,73,90.0
493,D3,60.0,4.0,73,90.0
494,D2,60.021,677/500,64,90.0
495,A4,60.219,323/500,59,90.0
496,D4,60.219,323/500,59,90.0
497,F#4,60.219,323/500,59,90.0
498,B2,60.635,673/200,64,90.0
499,E4,61.0,3.0,56,90.0
500,F#4,61.198,0.125,60,90.0
501,A4,61.198,0.125,60,90.0
502,D4,61.198,0.125,60,90.0
503,B1,61.5,0.25,96,90.0
504,G4,61.5,2.5,60,90.0
505,D2,61.521,99/500,64,90.0
506,B4,61.729,0.594,61,90.0
507,D4,61.729,0.594,61,90.0
508,G4,61.729,0.594,61,90.0
509,G4,62.0,323/500,67,90.0
510,B1,62.0,0.25,112,90.0
511,D2,62.021,49/100,64,90.0
512,E4,62.5,229/500,72,90.0
513,D3,62.521,56/125,56,90.0
514,F#4,62.698,229/1000,59,90.0
515,A4,62.698,229/1000,59,90.0
516,D4,62.698,229/1000,59,90.0
517,D4,63.0,51/100,80,90.0
518,B1,63.0,0.25,112,90.0
519,A2,63.021,49/100,60,90.0
520,B4,63.219,229/1000,60,90.0
521,D4,63.219,229/1000,60,90.0
522,G4,63.219,229/1000,60,90.0
523,B4,63.5,0.5,80,90.0
524,D2,63.521,0.469,60,90.0
525,B4,64.0,1427/500,80,90.0
526,B1,64.0,0.5,112,90.0
527,F#2,64.0,0.25,80,90.0
528,B2,64.0,127/200,64,90.0
529,D3,64.0,0.094,73,90.0
530,E4,64.0,73/1000,56,90.0
531,G4,64.0,0.062,60,90.0
532,G1,64.021,63/50,73,90.0
533,A4,64.146,0.656,64,90.0
534,D4,64.146,0.656,64,90.0
535,F#4,64.146,0.656,64,90.0
536,D4,64.5,1.5,64,90.0
537,C3,64.635,673/200,64,90.0
538,F#2,65.0,0.25,64,90.0
539,G3,65.0,271/500,60,90.0
540,A4,65.115,23/200,56,90.0
541,F#4,65.115,23/200,56,90.0
542,D4,65.115,23/200,56,90.0
543,F#2,65.5,0.25,32,90.0
544,G4,65.5,263/250,60,90.0
545,G1,65.521,1667/1000,64,90.0
546,B4,65.635,177/500,66,90.0
547,D4,65.635,177/500,66,90.0
548,G4,65.635,177/500,66,90.0
549,F#2,66.0,0.25,80,90.0
550,C#2,66.0,0.5,96,90.0
551,G3,66.0,1.938,64,90.0
552,D4,66.5,1417/1000,56,90.0
553,F#4,66.656,26/125,55,90.0
554,A4,66.656,26/125,55,90.0
555,D4,66.656,26/125,55,90.0
556,G4,67.0,521/1000,76,90.0
557,F#2,67.0,0.25,64,90.0
558,G4,67.0,177/200,60,90.0
559,B4,67.188,0.219,60,90.0
560,D4,67.188,0.219,60,90.0
561,G4,67.188,0.219,60,90.0
562,A4,67.5,229/500,76,90.0
563,G1,67.521,417/1000,52,90.0
564,C3,68.0,127/200,64,90.0
565,G4,68.0,729/500,60,90.0
566,B1,68.0,0.5,96,90.0
567,F#2,68.0,0.5,96,90.0
568,B4,68.021,0.969,80,90.0
569,B1,68.021,1.281,60,90.0
570,C5,68.125,667/1000,56,90.0
571,G4,68.125,667/1000,56,90.0
572,C4,68.146,1099/500,56,90.0
573,D4,68.146,123/200,54,90.0
574,E4,68.146,123/200,54,90.0
575,B4,68.156,0.125,56,90.0
576,D3,68.635,673/200,64,90.0
577,C5,69.0,0.438,80,90.0
578,F#2,69.0,0.5,64,90.0
579,E5,69.146,99/500,44,90.0
580,C5,69.146,99/500,44,90.0
581,D5,69.5,194/125,72,90.0
582,F#4,69.5,521/500,52,90.0
583,B1,69.521,901/500,64,90.0
584,E5,69.656,0.594,68,90.0
585,G5,69.656,0.594,68,90.0
586,F#2,70.0,0.5,88,90.0
587,C#2,70.0,0.5,88,90.0
588,E4,70.5,1.031,56,90.0
589,E5,70.708,99/250,64,90.0
590,B4,71.0,56/125,76,90.0
591,F#2,71.0,0.5,64,90.0
592,D5,71.208,13/50,56,90.0
593,G4,71.5,49/100,80,90.0
594,D4,71.5,0.5,60,90.0
595,B1,71.521,417/1000,48,90.0
596,C5,71.698,6/25,73,90.0
597,F#5,72.0,49/100,76,90.0
598,D3,72.0,127/200,64,90.0
599,D4,72.0,1917/1000,60,90.0
600,B1,72.0,0.5,96,90.0
601,F#2,72.0,0.5,96,90.0
602,C2,72.021,1.312,64,90.0
603,B4,72.198,0.5,64,90.0
604,G5,72.5,479/500,76,90.0
605,G2,72.635,673/200,73,90.0
606,F#2,73.0,0.5,64,90.0
607,E5,73.5,2.5,76,90.0
608,C2,73.521,87/50,60,90.0
609,G4,73.656,99/250,60,90.0
610,D4,73.656,99/250,60,90.0
611,B4,73.656,99/250,60,90.0
612,E4,74.0,127/200,60,90.0
613,F#2,74.0,0.5,88,90.0
614,C#2,74.0,0.5,88,90.0
615,D4,74.5,521/1000,60,90.0
616,A4,74.625,151/500,61,90.0
617,D4,74.625,151/500,61,90.0
618,F#4,74.625,151/500,61,90.0
619,F#2,75.0,0.5,64,90.0
620,G3,75.0,271/500,64,90.0
621,D4,75.177,0.562,63,90.0
622,B4,75.177,0.562,63,90.0
623,G4,75.177,0.562,63,90.0
624,E3,75.5,229/500,64,90.0
625,C2,75.521,0.375,56,90.0
626,E5,76.0,1.531,76,90.0
627,G2,76.0,127/200,73,90.0
628,C#3,76.0,3.688,73,90.0
629,B1,76.0,0.5,96,90.0
630,F#2,76.0,0.5,96,90.0
631,C#2,76.021,1.344,60,90.0
632,A4,76.219,323/500,59,90.0
633,D4,76.219,323/500,59,90.0
634,F#4,76.219,323/500,59,90.0
635,A3,76.5,583/1000,60,90.0
636,B2,76.635,673/200,64,90.0
637,F#2,77.0,0.5,64,90.0
638,E3,77.0,2677/1000,60,90.0
639,F#4,77.198,0.125,60,90.0
640,A4,77.198,0.125,60,90.0
641,D4,77.198,0.125,60,90.0
642,A3,77.5,2.25,48,90.0
643,C#2,77.521,1667/1000,64,90.0
644,B4,77.729,0.594,61,90.0
645,D4,77.729,0.594,61,90.0
646,G4,77.729,0.594,61,90.0
647,E5,78.0,0.969,76,90.0
648,F#2,78.0,0.5,88,90.0
649,C#2,78.0,0.5,88,90.0
650,F#4,78.698,229/1000,59,90.0
651,A4,78.698,229/1000,59,90.0
652,D4,78.698,229/1000,59,90.0
653,F#5,79.0,427/500,72,90.0
654,F#2,79.0,0.5,64,90.0
655,B4,79.219,229/1000,60,90.0
656,D4,79.219,229/1000,60,90.0
657,G4,79.219,229/1000,60,90.0
658,C#2,79.521,0.375,52,90.0
659,B1,80.0,0.5,112,90.0
660,F#2,80.0,0.25,80,90.0
661,B2,80.0,127/200,64,90.0
662,F#5,80.021,979/1000,76,90.0
663,D2,80.021,3.031,73,90.0
664,A4,80.146,0.656,64,90.0
665,D4,80.146,0.656,64,90.0
666,F#4,80.146,0.656,64,90.0
667,C3,80.635,673/200,64,90.0
668,G5,81.0,56/125,76,90.0
669,F#2,81.0,0.25,64,90.0
670,A4,81.115,23/200,56,90.0
671,F#4,81.115,23/200,56,90.0
672,D4,81.115,23/200,56,90.0
673,D5,81.5,2.5,76,90.0
674,B4,81.635,177/500,66,90.0
675,D4,81.635,177/500,66,90.0
676,G4,81.635,177/500,66,90.0
677,F#2,82.0,0.25,80,90.0
678,C#2,82.0,0.5,96,90.0
679,B3,82.5,1479/1000,56,90.0
680,F#4,82.656,26/125,55,90.0
681,A4,82.656,26/125,55,90.0
682,D4,82.656,26/125,55,90.0
683,F#2,83.0,0.25,64,90.0
684,G3,83.0,917/1000,60,90.0
685,D3,83.021,0.469,60,90.0
686,B4,83.188,0.219,60,90.0
687,D4,83.188,0.219,60,90.0
688,G4,83.188,0.219,60,90.0
689,F#2,83.5,0.25,32,90.0
690,D3,83.5,0.406,44,90.0
691,D2,83.521,56/125,52,90.0
692,D5,84.0,573/1000,76,90.0
693,B1,84.0,0.5,112,90.0
694,F#2,84.0,0.25,80,90.0
695,C3,84.0,127/200,64,90.0
696,E-3,84.0,987/250,60,90.0
697,E-2,84.021,1427/500,56,90.0
698,C5,84.125,667/1000,56,90.0
699,G4,84.125,667/1000,56,90.0
700,C4,84.146,1099/500,56,90.0
701,D4,84.146,123/200,54,90.0
702,E4,84.146,123/200,54,90.0
703,B4,84.156,0.125,56,90.0
704,B3,84.5,127/200,56,90.0
705,D3,84.635,673/200,64,90.0
706,C5,85.0,229/500,76,90.0
707,F#2,85.0,0.25,64,90.0
708,F#4,85.0,487/250,56,90.0
709,E5,85.146,99/500,44,90.0
710,C5,85.146,99/500,44,90.0
711,B4,85.5,177/200,72,90.0
712,F#2,85.5,0.25,32,90.0
713,B3,85.5,19/25,64,90.0
714,E5,85.656,0.594,68,90.0
715,G5,85.656,0.594,68,90.0
716,F#2,86.0,0.25,80,90.0
717,C#2,86.0,0.5,96,90.0
718,D5,86.417,0.719,76,90.0
719,A3,86.5,1.469,60,90.0
720,E5,86.708,99/250,64,90.0
721,F#2,87.0,0.25,64,90.0
722,B3,87.0,979/1000,64,90.0
723,B1,87.021,917/1000,64,90.0
724,D5,87.208,13/50,56,90.0
725,B4,87.25,151/250,72,90.0
726,F#4,87.5,0.5,48,90.0
727,C5,87.698,6/25,73,90.0
728,A4,87.958,21/500,80,90.0
729,A4,88.0,177/200,80,90.0
730,B1,88.0,0.5,112,90.0
731,F#2,88.0,0.25,80,90.0
732,D3,88.0,127/200,64,90.0
733,E3,88.0,399/100,64,90.0
734,F#4,88.0,0.031,48,90.0
735,E2,88.021,1349/500,64,90.0
736,B3,88.5,3.469,60,90.0
737,B4,89.0,229/500,76,90.0
738,F#2,89.0,0.25,64,90.0
739,E4,89.0,323/250,52,90.0
740,G4,89.5,2.5,76,90.0
741,F#2,89.5,0.25,32,90.0
742,G4,89.5,2.469,60,90.0
743,F#2,90.0,0.25,80,90.0
744,C#2,90.0,0.5,96,90.0
745,E4,90.5,1.5,56,90.0
746,F#2,91.0,0.25,64,90.0
747,E2,91.021,927/1000,82,90.0
748,F#2,91.5,0.25,32,90.0
749,G4,92.0,227/200,76,90.0
750,B1,92.0,0.25,112,90.0
751,B-2,92.0,0.5,64,90.0
752,E4,92.0,21/1000,56,90.0
753,A1,92.021,3.438,60,90.0
754,B1,93.5,0.25,96,90.0
755,C#2,94.0,0.5,96,90.0
756,E4,95.0,521/1000,80,90.0
757,B1,95.0,0.25,112,90.0
758,G4,95.5,0.375,72,90.0
759,B1,96.0,0.25,112,90.0
760,E-3,96.0,0.5,80,90.0
761,C5,96.021,56/125,84,90.0
762,A1,96.042,2.031,64,90.0
763,B4,96.5,417/1000,68,90.0
764,C5,97.0,0.469,80,90.0
765,F#2,97.0,0.5,64,90.0
766,B4,97.5,73/200,72,90.0
767,D5,98.0,677/1000,80,90.0
768,F#2,98.0,0.5,88,90.0
769,C#2,98.0,0.5,88,90.0
770,A2,98.021,1.031,60,90.0
771,B4,98.75,271/500,68,90.0
772,F#2,99.0,0.5,64,90.0
773,E2,99.021,56/125,56,90.0
774,B1,99.5,0.25,96,90.0
775,A4,99.521,479/1000,68,90.0
776,D2,99.542,229/500,56,90.0
777,A4,100.0,2.938,68,90.0
778,F#2,100.0,0.5,80,90.0
779,D2,100.0,2021/1000,56,90.0
780,F#4,100.562,26/125,60,90.0
781,G4,100.792,27/200,40,90.0
782,F#4,100.917,83/1000,36,90.0
783,F#2,101.0,0.5,64,90.0
784,D4,101.0,417/1000,44,90.0
785,A3,101.479,521/1000,48,90.0
786,E4,102.0,521/1000,60,90.0
787,F#2,102.0,0.5,88,90.0
788,C#2,102.0,0.5,88,90.0
789,E2,102.042,237/250,64,90.0
790,D4,102.49,51/100,60,90.0
791,F#2,103.0,0.5,64,90.0
792,B3,103.0,1.0,56,90.0
793,E1,103.042,927/1000,60,90.0
794,B4,103.5,0.375,80,90.0
795,B1,104.0,0.25,112,90.0
796,F#2,104.0,0.5,80,90.0
797,B3,104.0,21/500,56,90.0
798,C5,104.021,56/125,80,90.0
799,A1,104.042,1979/1000,64,90.0
800,B4,104.5,77/200,72,90.0
801,C5,105.0,51/100,76,90.0
802,F#2,105.0,0.5,64,90.0
803,B4,105.5,177/500,76,90.0
804,D5,106.0,0.656,84,90.0
805,F#2,106.0,0.5,88,90.0
806,C#2,106.0,0.5,88,90.0
807,A2,106.021,273/200,56,90.0
808,B4,106.75,521/1000,80,90.0
809,F#2,107.0,0.5,64,90.0
810,B1,107.5,0.25,96,90.0
811,A4,107.521,479/1000,80,90.0
812,D2,107.521,479/1000,64,90.0
813,A4,108.0,44/25,80,90.0
814,F#2,108.0,0.5,80,90.0
815,D2,108.0,1021/500,64,90.0
816,F#4,108.5,73/250,60,90.0
817,G4,108.854,13/250,28,90.0
818,F#4,108.917,0.062,36,90.0
819,F#2,109.0,0.5,64,90.0
820,D4,109.01,0.531,28,90.0
821,A3,109.5,0.531,56,90.0
822,G4,110.0,427/1000,84,90.0
823,E4,110.0,0.469,56,90.0
824,F#2,110.0,0.5,88,90.0
825,C#2,110.0,0.5,88,90.0
826,D3,110.021,263/250,64,90.0
827,E4,110.5,229/500,80,90.0
828,D4,110.5,521/1000,52,90.0
829,D4,111.0,0.469,76,90.0
830,E4,111.0,0.469,52,90.0
831,B1,111.0,0.5,80,90.0
832,F#2,111.0,0.5,80,90.0
833,D2,111.021,979/1000,60,90.0
834,G4,111.5,0.5,76,90.0
835,D4,111.5,0.5,40,90.0
836,G4,112.0,2521/1000,76,90.0
837,B1,112.0,0.25,112,90.0
838,E-3,112.0,0.5,80,90.0
839,D2,112.0,1/100,60,90.0
840,D4,112.0,83/1000,40,90.0
841,G1,112.021,1.281,73,90.0
842,D4,112.5,1.5,64,90.0
843,F#2,113.0,0.5,64,90.0
844,G3,113.0,271/500,60,90.0
845,B1,113.5,0.25,96,90.0
846,G4,113.5,263/250,60,90.0
847,G1,113.521,1.75,64,90.0
848,G3,114.0,1.938,64,90.0
849,F#2,114.0,0.5,88,90.0
850,C#2,114.0,0.5,88,90.0
851,D4,114.5,1417/1000,56,90.0
852,G4,115.0,56/125,93,90.0
853,F#2,115.0,0.5,64,90.0
854,G4,115.0,177/200,60,90.0
855,A4,115.5,77/200,80,90.0
856,G1,115.521,229/500,60,90.0
857,B1,116.0,0.25,112,90.0
858,E-3,116.0,0.5,80,90.0
859,G4,116.0,729/500,60,90.0
860,B4,116.021,979/1000,76,90.0
861,B1,116.021,1.312,73,90.0
862,C5,117.0,0.469,76,90.0
863,F#2,117.0,0.5,64,90.0
864,D5,117.5,99/100,80,90.0
865,B1,117.5,0.25,96,90.0
866,F#4,117.5,521/500,52,90.0
867,B1,117.521,1.688,73,90.0
868,F#2,118.0,0.5,88,90.0
869,C#2,118.0,0.5,88,90.0
870,B4,118.5,0.938,76,90.0
871,E4,118.5,1.031,56,90.0
872,F#2,119.0,0.5,64,90.0
873,G4,119.5,56/125,76,90.0
874,D4,119.5,0.5,60,90.0
875,B1,119.521,479/1000,60,90.0
876,A4,120.0,0.438,84,90.0
877,B1,120.0,0.5,112,90.0
878,F#2,120.0,0.25,80,90.0
879,B1,120.0,21/500,60,90.0
880,D4,120.0,1917/1000,60,90.0
881,C2,120.021,323/250,64,90.0
882,B4,120.5,917/1000,80,90.0
883,F#2,121.0,0.25,64,90.0
884,G4,121.5,2.5,80,90.0
885,C2,121.521,1.656,64,90.0
886,F#2,122.0,0.25,80,90.0
887,C#2,122.0,0.5,96,90.0
888,E4,122.0,127/200,60,90.0
889,D4,122.5,521/1000,60,90.0
890,F#2,123.0,0.25,64,90.0
891,G3,123.0,271/500,64,90.0
892,F#2,123.5,0.25,32,90.0
893,E3,123.5,229/500,64,90.0
894,A1,123.521,417/1000,52,90.0
895,G4,124.0,73/250,80,90.0
896,B-2,124.0,0.5,48,90.0
897,D3,124.0,4.0,73,90.0
898,D2,124.021,677/500,64,90.0
899,E4,125.0,3.0,56,90.0
900,B1,125.5,0.25,96,90.0
901,G4,125.5,2.5,60,90.0
902,D2,125.521,99/500,64,90.0
903,G4,126.0,0.469,84,90.0
904,B1,126.0,0.25,112,90.0
905,D2,126.021,49/100,64,90.0
906,E4,126.5,0.438,80,90.0
907,D3,126.521,56/125,56,90.0
908,D4,127.0,49/100,76,90.0
909,B1,127.0,0.25,112,90.0
910,A2,127.021,49/100,60,90.0
911,B4,127.5,0.5,76,90.0
912,D2,127.521,0.469,60,90.0
913,B4,128.0,2.844,76,90.0
914,B1,128.0,0.5,112,90.0
915,F#2,128.0,0.25,80,90.0
916,D3,128.0,0.094,73,90.0
917,E4,128.0,73/1000,56,90.0
918,G4,128.0,0.062,60,90.0
919,G1,128.021,63/50,73,90.0
920,D4,128.5,1.5,64,90.0
921,F#2,129.0,0.25,64,90.0
922,G3,129.0,271/500,60,90.0
923,F#2,129.5,0.25,32,90.0
924,G4,129.5,263/250,60,90.0
925,G1,129.521,1667/1000,64,90.0
926,F#2,130.0,0.25,80,90.0
927,C#2,130.0,0.5,96,90.0
928,G3,130.0,1.938,64,90.0
929,D4,130.5,1417/1000,56,90.0
930,G4,131.0,51/100,80,90.0
931,F#2,131.0,0.25,64,90.0
932,G4,131.0,177/200,60,90.0
933,A4,131.5,99/250,76,90.0
934,G1,131.521,417/1000,52,90.0
935,G4,132.0,729/500,60,90.0
936,B1,132.0,0.5,96,90.0
937,F#2,132.0,0.5,96,90.0
938,B4,132.021,0.969,76,90.0
939,B1,132.021,1.281,60,90.0
940,F#2,133.0,0.5,64,90.0
941,C5,133.01,0.5,72,90.0
942,D5,133.5,237/250,76,90.0
943,F#4,133.5,521/500,52,90.0
944,B1,133.521,901/500,64,90.0
945,F#2,134.0,0.5,88,90.0
946,C#2,134.0,0.5,88,90.0
947,E4,134.5,1.031,56,90.0
948,B4,134.521,729/1000,80,90.0
949,F#2,135.0,0.5,64,90.0
950,G4,135.281,0.719,76,90.0
951,D4,135.5,0.5,60,90.0
952,B1,135.521,417/1000,48,90.0
953,F#5,136.0,979/1000,76,90.0
954,G4,136.0,73/1000,76,90.0
955,D4,136.0,1917/1000,60,90.0
956,B1,136.0,0.5,96,90.0
957,F#2,136.0,0.5,96,90.0
958,C2,136.021,1.312,64,90.0
959,G5,137.0,271/500,80,90.0
960,F#2,137.0,0.5,64,90.0
961,E5,137.5,2.5,72,90.0
962,C2,137.521,87/50,60,90.0
963,E4,138.0,127/200,60,90.0
964,F#2,138.0,0.5,88,90.0
965,C#2,138.0,0.5,88,90.0
966,D4,138.5,521/1000,60,90.0
967,F#2,139.0,0.5,64,90.0
968,G3,139.0,271/500,64,90.0
969,E3,139.5,229/500,64,90.0
970,C2,139.521,0.375,56,90.0
971,E5,140.0,1.812,72,90.0
972,C#3,140.0,3.688,73,90.0
973,B1,140.0,0.5,96,90.0
974,F#2,140.0,0.5,96,90.0
975,C#2,140.021,1.344,60,90.0
976,A3,140.5,583/1000,60,90.0
977,F#2,141.0,0.5,64,90.0
978,E3,141.0,2677/1000,60,90.0
979,A3,141.5,2.25,48,90.0
980,C#2,141.521,1667/1000,64,90.0
981,E5,142.0,263/250,80,90.0
982,F#2,142.0,0.5,88,90.0
983,C#2,142.0,0.5,88,90.0
984,F#5,143.0,427/500,80,90.0
985,F#2,143.0,0.5,64,90.0
986,C#2,143.521,0.375,52,90.0
987,B1,144.0,0.5,112,90.0
988,F#2,144.0,0.25,80,90.0
989,F#5,144.021,479/500,72,90.0
990,D2,144.021,3.031,73,90.0
991,G5,145.0,417/1000,76,90.0
992,F#2,145.0,0.25,64,90.0
993,D5,145.5,2.5,93,90.0
994,F#2,146.0,0.25,80,90.0
995,C#2,146.0,0.5,96,90.0
996,B3,146.5,1479/1000,56,90.0
997,F#2,147.0,0.25,64,90.0
998,G3,147.0,917/1000,60,90.0
999,D3,147.021,0.469,60,90.0
1000,F#2,147.5,0.25,32,90.0
1001,D3,147.5,0.406,44,90.0
1002,D2,147.521,56/125,52,90.0
1003,D5,148.0,73/200,93,90.0
1004,B1,148.0,0.5,112,90.0
1005,F#2,148.0,0.25,80,90.0
1006,E-3,148.0,987/250,60,90.0
1007,E-2,148.021,1427/500,56,90.0
1008,B3,148.5,127/200,56,90.0
1009,C5,149.0,479/1000,84,90.0
1010,F#2,149.0,0.25,64,90.0
1011,F#4,149.0,487/250,56,90.0
1012,B4,149.5,0.875,76,90.0
1013,F#2,149.5,0.25,32,90.0
1014,B3,149.5,19/25,64,90.0
1015,F#2,150.0,0.25,80,90.0
1016,C#2,150.0,0.5,96,90.0
1017,D5,150.5,1.0,80,90.0
1018,A3,150.5,1.469,60,90.0
1019,F#2,151.0,0.25,64,90.0
1020,B3,151.0,979/1000,64,90.0
1021,B1,151.021,917/1000,64,90.0
1022,B4,151.5,479/1000,68,90.0
1023,F#4,151.5,0.5,48,90.0
1024,B1,152.0,0.5,112,90.0
1025,F#2,152.0,0.25,80,90.0
1026,E3,152.0,399/100,64,90.0
1027,F#4,152.0,0.031,48,90.0
1028,A4,152.021,979/1000,80,90.0
1029,E2,152.021,1349/500,64,90.0
1030,B3,152.5,3.469,60,90.0
1031,B4,153.0,0.5,80,90.0
1032,F#2,153.0,0.25,64,90.0
1033,E4,153.0,323/250,52,90.0
1034,G4,153.5,2.5,80,90.0
1035,F#2,153.5,0.25,32,90.0
1036,G4,153.5,2.469,60,90.0
1037,F#2,154.0,0.25,80,90.0
1038,C#2,154.0,0.5,96,90.0
1039,E4,154.5,1.5,56,90.0
1040,F#2,155.0,0.25,64,90.0
1041,E2,155.021,927/1000,82,90.0
1042,F#2,155.5,0.25,32,90.0
1043,G4,156.0,229/500,80,90.0
1044,B1,156.0,0.25,112,90.0
1045,B-2,156.0,0.5,64,90.0
1046,E4,156.0,21/1000,56,90.0
1047,A1,156.021,3.438,60,90.0
1048,B1,157.5,0.25,96,90.0
1049,C#2,158.0,0.5,96,90.0
1050,E4,159.0,0.531,80,90.0
1051,B1,159.0,0.25,112,90.0
1052,G4,159.5,0.406,76,90.0
1053,B1,160.0,0.25,112,90.0
1054,E-3,160.0,0.5,80,90.0
1055,C5,160.021,229/500,93,90.0
1056,A1,160.021,2.031,64,90.0
1057,B4,160.5,479/1000,68,90.0
1058,C5,161.0,51/100,68,90.0
1059,F#2,161.0,0.5,64,90.0
1060,B4,161.5,0.469,68,90.0
1061,D5,162.0,37/50,80,90.0
1062,F#2,162.0,0.5,88,90.0
1063,C#2,162.0,0.5,88,90.0
1064,A2,162.021,1.031,60,90.0
1065,B4,162.75,0.469,68,90.0
1066,F#2,163.0,0.5,64,90.0
1067,E2,163.021,56/125,56,90.0
1068,B1,163.5,0.25,96,90.0
1069,A4,163.521,479/1000,76,90.0
1070,D2,163.521,479/1000,56,90.0
1071,A4,164.0,2.281,76,90.0
1072,F#2,164.0,0.5,80,90.0
1073,D2,164.0,2.0,56,90.0
1074,F#4,164.562,26/125,60,90.0
1075,G4,164.792,27/200,40,90.0
1076,F#4,164.917,83/1000,36,90.0
1077,F#2,165.0,0.5,64,90.0
1078,D4,165.0,417/1000,44,90.0
1079,A3,165.479,521/1000,48,90.0
1080,E4,166.0,521/1000,60,90.0
1081,F#2,166.0,0.5,88,90.0
1082,C#2,166.0,0.5,88,90.0
1083,E2,166.021,237/250,64,90.0
1084,D4,166.49,51/100,60,90.0
1085,F#2,167.0,0.5,64,90.0
1086,B3,167.0,1.0,56,90.0
1087,E1,167.021,927/1000,60,90.0
1088,B4,167.5,0.438,76,90.0
1089,B1,168.0,0.25,112,90.0
1090,F#2,168.0,0.5,80,90.0
1091,B3,168.0,21/500,56,90.0
1092,C5,168.021,56/125,84,90.0
1093,A1,168.021,1979/1000,64,90.0
1094,B4,168.5,0.469,68,90.0
1095,C5,169.0,51/100,80,90.0
1096,F#2,169.0,0.5,64,90.0
1097,B4,169.5,99/250,76,90.0
1098,D5,170.0,667/1000,93,90.0
1099,F#2,170.0,0.5,88,90.0
1100,C#2,170.0,0.5,88,90.0
1101,A2,170.021,273/200,56,90.0
1102,B4,170.75,0.562,80,90.0
1103,F#2,171.0,0.5,64,90.0
1104,B1,171.5,0.25,96,90.0
1105,A4,171.521,479/1000,80,90.0
1106,D2,171.521,479/1000,64,90.0
1107,A4,172.0,1823/1000,80,90.0
1108,F#2,172.0,0.25,80,90.0
1109,D2,172.0,1927/1000,64,90.0
1110,F#4,172.479,23/200,52,90.0
1111,F#2,172.5,0.25,32,90.0
1112,G4,172.646,13/125,36,90.0
1113,F#4,172.74,23/200,40,90.0
1114,D4,172.927,1083/1000,60,90.0
1115,F#2,173.0,0.25,80,90.0
1116,B1,173.5,0.25,64,90.0
1117,F#2,173.5,0.25,64,90.0
1118,D2,173.521,479/1000,64,90.0
1119,B3,173.99,479/1000,60,90.0
1120,F#2,174.0,0.25,80,90.0
1121,C#2,174.0,0.5,127,90.0
1122,E-2,174.021,1083/1000,73,90.0
1123,F#2,174.5,0.25,32,90.0
1124,A3,174.5,521/1000,64,90.0
1125,F#2,175.0,0.25,80,90.0
1126,F#4,175.0,56/125,52,90.0
1127,B1,175.021,479/500,73,90.0
1128,G4,175.479,521/1000,64,90.0
1129,B-2,175.5,0.25,48,90.0
1130,G4,176.0,23/200,64,90.0
1131,B1,176.0,0.25,96,90.0
1132,F#2,176.0,0.25,96,90.0
1133,E2,176.021,251/100,64,90.0
1134,F#2,176.5,0.25,32,90.0
1135,G3,176.5,3.5,64,90.0
1136,F#2,177.0,0.25,80,90.0
1137,B3,177.0,3.0,64,90.0
1138,F#2,177.5,0.25,32,90.0
1139,E4,177.5,2.5,64,90.0
1140,G4,177.521,1.406,76,90.0
1141,F#2,178.0,0.25,80,90.0
1142,C#2,178.0,0.5,96,90.0
1143,F#2,178.5,0.25,32,90.0
1144,A2,178.521,0.562,64,90.0
1145,B4,179.0,229/500,93,90.0
1146,F#2,179.0,0.25,80,90.0
1147,B2,179.021,0.562,64,90.0
1148,D5,179.5,0.5,84,90.0
1149,B1,179.5,0.25,56,90.0
1150,F#2,179.5,0.25,56,90.0
1151,D3,179.521,479/1000,56,90.0
1152,D5,180.0,0.031,84,90.0
1153,G3,180.0,573/500,64,90.0
1154,B3,180.0,573/500,64,90.0
1155,E4,180.0,979/1000,64,90.0
1156,B1,180.0,0.25,96,90.0
1157,F#2,180.0,0.25,96,90.0
1158,F#5,180.021,979/1000,68,90.0
1159,E3,180.021,1.5,64,90.0
1160,F#2,180.5,0.25,32,90.0
1161,G5,181.0,417/1000,76,90.0
1162,F#2,181.0,0.25,80,90.0
1163,B1,181.5,0.25,64,90.0
1164,F#2,181.5,0.25,64,90.0
1165,F#5,181.521,1427/1000,80,90.0
1166,B2,181.521,0.625,60,90.0
1167,F#2,182.0,0.25,80,90.0
1168,C#2,182.0,0.5,96,90.0
1169,E2,182.021,229/500,73,90.0
1170,F#2,182.5,0.25,32,90.0
1171,E4,182.5,1.5,60,90.0
1172,E1,182.521,479/1000,64,90.0
1173,F#2,183.0,0.25,80,90.0
1174,B3,183.0,0.969,64,90.0
1175,B4,183.021,229/500,84,90.0
1176,A1,183.021,0.906,73,90.0
1177,B1,183.5,0.25,56,90.0
1178,F#2,183.5,0.25,56,90.0
1179,D5,183.521,479/1000,102,90.0
1180,D5,184.0,4.0,102,90.0
1181,F#3,184.0,323/1000,60,90.0
1182,E4,184.0,0.062,60,90.0
1183,B1,184.0,0.25,96,90.0
1184,F#2,184.0,0.25,96,90.0
1185,B1,184.021,2.625,73,90.0
1186,F#2,184.5,0.25,32,90.0
1187,F#3,184.5,63/50,82,90.0
1188,F#2,185.0,0.25,80,90.0
1189,D4,185.0,1479/1000,73,90.0
1190,F#4,185.5,521/500,48,90.0
1191,B1,185.5,0.25,64,90.0
1192,F#2,185.5,0.25,64,90.0
1193,F#2,186.0,0.25,80,90.0
1194,C#2,186.0,0.5,96,90.0
1195,F#3,186.0,2.0,64,90.0
1196,F#2,186.5,0.25,32,90.0
1197,B3,186.5,123/200,60,90.0
1198,F#2,186.521,0.531,64,90.0
1199,F#2,187.0,0.25,80,90.0
1200,D4,187.0,1.0,60,90.0
1201,B2,187.021,69/125,64,90.0
1202,B3,187.5,0.5,56,90.0
1203,B1,187.5,0.25,56,90.0
1204,F#2,187.5,0.25,56,90.0
1205,E2,187.521,0.469,60,90.0
1206,F#3,188.0,13/250,64,90.0
1207,D4,188.0,0.094,60,90.0
1208,B3,188.0,83/1000,56,90.0
1209,B1,188.0,0.25,96,90.0
1210,F#2,188.0,0.25,96,90.0
1211,E5,188.021,77/200,93,90.0
1212,D2,188.021,1479/1000,73,90.0
1213,F5,188.5,0.438,76,90.0
1214,F#2,188.5,0.25,32,90.0
1215,F5,189.0,417/1000,80,90.0
1216,F#2,189.0,0.25,80,90.0
1217,E5,189.5,277/200,76,90.0
1218,B1,189.5,0.25,64,90.0
1219,F#2,189.5,0.25,64,90.0
1220,A2,189.521,0.5,60,90.0
1221,F#2,190.0,0.25,80,90.0
1222,C#2,190.0,0.5,96,90.0
1223,D3,190.021,0.562,52,90.0
1224,F#2,190.5,0.25,32,90.0
1225,A2,190.521,0.531,60,90.0
1226,A4,191.0,51/100,84,90.0
1227,F#2,191.0,0.25,80,90.0
1228,D2,191.021,0.938,64,90.0
1229,B1,191.5,0.25,64,90.0
1230,B-2,191.5,0.25,64,90.0
1231,C5,191.521,479/1000,93,90.0
1232,C5,192.0,2.875,93,90.0
1233,B1,192.0,0.25,96,90.0
1234,F#2,192.0,0.25,96,90.0
1235,A1,192.021,2.969,73,90.0
1236,F#2,192.5,0.25,32,90.0
1237,E3,192.5,3.5,73,90.0
1238,F#2,193.0,0.25,80,90.0
1239,C4,193.0,479/1000,64,90.0
1240,A3,193.5,1573/1000,52,90.0
1241,B1,193.5,0.25,64,90.0
1242,F#2,193.5,0.25,64,90.0
1243,F#2,194.0,0.25,80,90.0
1244,C#2,194.0,0.5,96,90.0
1245,C4,194.0,479/1000,60,90.0
1246,F#2,194.5,0.25,32,90.0
1247,E4,194.5,1.5,48,90.0
1248,C5,195.0,229/500,84,90.0
1249,F#2,195.0,0.25,80,90.0
1250,C4,195.0,1.0,52,90.0
1251,E2,195.021,583/1000,64,90.0
1252,D5,195.5,0.406,80,90.0
1253,A3,195.5,0.5,56,90.0
1254,B1,195.5,0.25,56,90.0
1255,F#2,195.5,0.25,56,90.0
1256,A2,195.521,479/1000,73,90.0
1257,A2,196.0,0.031,73,90.0
1258,E4,196.0,13/125,48,90.0
1259,A3,196.0,73/1000,56,90.0
1260,B1,196.0,0.25,96,90.0
1261,F#2,196.0,0.25,96,90.0
1262,E-5,196.021,0.875,76,90.0
1263,C2,196.021,1417/1000,64,90.0
1264,F#2,196.5,0.25,32,90.0
1265,E-5,197.0,177/500,76,90.0
1266,F#2,197.0,0.25,80,90.0
1267,D5,197.5,149/100,80,90.0
1268,B1,197.5,0.25,64,90.0
1269,F#2,197.5,0.25,64,90.0
1270,G2,197.521,0.562,52,90.0
1271,F#2,198.0,0.25,80,90.0
1272,C#2,198.0,0.5,96,90.0
1273,C3,198.021,0.594,48,90.0
1274,F#2,198.5,0.25,32,90.0
1275,G2,198.521,49/100,64,90.0
1276,G4,199.0,427/1000,80,90.0
1277,F#2,199.0,0.25,80,90.0
1278,C2,199.021,979/1000,64,90.0
1279,B-2,199.5,0.25,48,90.0
1280,B4,199.521,479/1000,72,90.0
1281,B4,200.0,3927/1000,72,90.0
1282,C2,200.0,1/100,64,90.0
1283,B1,200.0,0.25,96,90.0
1284,F#2,200.0,0.25,96,90.0
1285,G1,200.021,299/100,73,90.0
1286,F#2,200.5,0.25,32,90.0
1287,D3,200.5,401/125,64,90.0
1288,F#2,201.0,0.25,80,90.0
1289,A3,201.0,1349/500,64,90.0
1290,G3,201.5,2177/1000,56,90.0
1291,B1,201.5,0.25,64,90.0
1292,F#2,201.5,0.25,64,90.0
1293,F#2,202.0,0.25,80,90.0
1294,C#2,202.0,0.5,96,90.0
1295,D4,202.0,87/50,56,90.0
1296,F#2,202.5,0.25,32,90.0
1297,F#2,203.0,0.25,80,90.0
1298,D2,203.021,521/1000,64,90.0
1299,B-2,203.5,0.25,48,90.0
1300,G2,203.521,479/1000,64,90.0
1301,G2,204.0,73/1000,64,90.0
1302,B1,204.0,0.25,96,90.0
1303,F#2,204.0,0.25,96,90.0
1304,A4,204.021,306/125,80,90.0
1305,F#2,204.021,237/125,64,90.0
1306,F#2,204.5,0.25,32,90.0
1307,A3,204.5,327/200,56,90.0
1308,D4,204.75,1573/1000,52,90.0
1309,F#2,205.0,0.25,80,90.0
1310,E4,205.0,677/500,60,90.0
1311,F#4,205.25,1.125,48,90.0
1312,B1,205.5,0.25,64,90.0
1313,F#2,205.5,0.25,64,90.0
1314,F#2,206.0,0.25,80,90.0
1315,C#2,206.0,0.5,96,90.0
1316,B1,206.021,1979/1000,73,90.0
1317,F#2,206.5,0.25,32,90.0
1318,B3,206.5,1.5,60,90.0
1319,G4,206.51,149/100,72,90.0
1320,F#2,207.0,0.25,80,90.0
1321,D4,207.0,1.0,64,90.0
1322,F#3,207.5,0.5,73,90.0
1323,B1,207.5,0.25,56,90.0
1324,F#2,207.5,0.25,56,90.0
1325,G4,208.0,1.219,72,90.0
1326,B3,208.0,99/500,60,90.0
1327,D4,208.0,26/125,64,90.0
1328,F#3,208.0,0.125,73,90.0
1329,B1,208.0,0.25,96,90.0
1330,F#2,208.0,0.25,96,90.0
1331,E1,208.021,2427/1000,73,90.0
1332,F#2,208.5,0.25,32,90.0
1333,B3,208.5,3.5,60,90.0
1334,F#2,209.0,0.25,80,90.0
1335,G4,209.0,521/1000,56,90.0
1336,F#4,209.5,521/1000,56,90.0
1337,B1,209.5,0.25,64,90.0
1338,F#2,209.5,0.25,64,90.0
1339,F#2,210.0,0.25,80,90.0
1340,C#2,210.0,0.5,96,90.0
1341,G4,210.0,2.0,60,90.0
1342,G4,210.5,0.438,84,90.0
1343,F#2,210.5,0.25,32,90.0
1344,E4,210.5,1.5,60,90.0
1345,F#1,210.521,0.5,64,90.0
1346,B4,211.0,479/1000,76,90.0
1347,F#2,211.0,0.25,80,90.0
1348,G1,211.021,51/100,73,90.0
1349,D5,211.5,323/1000,80,90.0
1350,B1,211.5,0.25,56,90.0
1351,F#2,211.5,0.25,56,90.0
1352,B1,211.521,479/1000,64,90.0
1353,B1,212.0,21/500,64,90.0
1354,B3,212.0,0.031,60,90.0
1355,G4,212.0,0.031,60,90.0
1356,E4,212.0,21/1000,60,90.0
1357,B1,212.0,0.25,96,90.0
1358,F#2,212.0,0.25,96,90.0
1359,A1,212.021,1.406,73,90.0
1360,G5,212.031,237/250,80,90.0
1361,F#2,212.5,0.25,32,90.0
1362,G5,213.0,77/200,72,90.0
1363,F#2,213.0,0.25,80,90.0
1364,B1,213.5,0.25,64,90.0
1365,F#2,213.5,0.25,64,90.0
1366,A5,213.521,771/500,76,90.0
1367,E2,213.521,521/1000,56,90.0
1368,F#2,214.0,0.25,80,90.0
1369,C#2,214.0,0.5,96,90.0
1370,A2,214.021,69/125,60,90.0
1371,F#2,214.5,0.25,32,90.0
1372,E2,214.521,0.5,60,90.0
1373,E5,215.0,427/1000,72,90.0
1374,B-2,215.0,0.5,48,90.0
1375,C#2,215.021,917/1000,73,90.0
1376,B1,215.5,0.25,80,90.0
1377,F#5,215.531,0.469,76,90.0
1378,F#5,216.0,299/100,76,90.0
1379,B1,216.0,0.25,96,90.0
1380,F#2,216.0,0.25,96,90.0
1381,D2,216.021,1479/500,73,90.0
1382,F#2,216.5,0.25,32,90.0
1383,A3,216.5,401/250,64,90.0
1384,F#2,217.0,0.25,80,90.0
1385,D4,217.0,2927/1000,64,90.0
1386,E4,217.5,1229/500,60,90.0
1387,B1,217.5,0.25,64,90.0
1388,F#2,217.5,0.25,64,90.0
1389,F#2,218.0,0.25,80,90.0
1390,C#2,218.0,0.5,96,90.0
1391,F#4,218.0,1.906,48,90.0
1392,F#2,218.5,0.25,32,90.0
1393,A3,218.5,1.469,56,90.0
1394,D5,219.0,0.531,84,90.0
1395,F#2,219.0,0.25,80,90.0
1396,A2,219.021,69/125,64,90.0
1397,E5,219.5,73/200,93,90.0
1398,B1,219.5,0.25,56,90.0
1399,F#2,219.5,0.25,56,90.0
1400,G#2,219.521,229/500,64,90.0
1401,B1,220.0,0.25,96,90.0
1402,F#2,220.0,0.25,96,90.0
1403,F5,220.021,927/1000,76,90.0
1404,G2,220.021,319/125,64,90.0
1405,F#2,220.5,0.25,32,90.0
1406,F5,221.0,417/1000,76,90.0
1407,F#2,221.0,0.25,80,90.0
1408,B1,221.5,0.25,64,90.0
1409,F#2,221.5,0.25,64,90.0
1410,G5,221.521,149/100,80,90.0
1411,F#2,222.0,0.25,80,90.0
1412,C#2,222.0,0.5,96,90.0
1413,F#2,222.5,0.25,32,90.0
1414,D2,222.521,271/500,60,90.0
1415,D5,223.0,427/1000,72,90.0
1416,F#2,223.0,0.25,80,90.0
1417,G1,223.021,0.938,73,90.0
1418,B1,223.5,0.25,56,90.0
1419,F#2,223.5,0.25,56,90.0
1420,E5,223.521,479/1000,84,90.0
1421,E5,224.0,4.0,84,90.0
1422,B1,224.0,0.25,96,90.0
1423,F#2,224.0,0.25,96,90.0
1424,C2,224.021,3979/1000,73,90.0
1425,F#2,224.5,0.25,32,90.0
1426,G3,224.5,3.5,60,90.0
1427,F#2,225.0,0.25,80,90.0
1428,C4,225.0,3.0,60,90.0
1429,D4,225.5,2.5,64,90.0
1430,B1,225.5,0.25,64,90.0
1431,F#2,225.5,0.25,64,90.0
1432,E4,226.0,2.0,64,90.0
1433,B1,226.0,0.25,96,90.0
1434,F#2,226.0,0.25,96,90.0
1435,F#2,226.5,0.25,32,90.0
1436,F#2,227.0,0.25,80,90.0
1437,G4,227.0,1.0,56,90.0
1438,B1,227.5,0.25,56,90.0
1439,F#2,227.5,0.25,56,90.0
1440,E5,228.0,599/500,84,90.0
1441,C2,228.0,1771/1000,73,90.0
1442,C5,228.0,2073/1000,48,90.0
1443,G3,228.0,2.031,60,90.0
1444,C4,228.0,2.0,60,90.0
1445,D4,228.0,1021/500,64,90.0
1446,E4,228.0,2.0,64,90.0
1447,G4,228.0,2.031,56,90.0
1448,B1,228.0,0.5,96,90.0
1449,E-3,228.0,0.5,96,90.0
1450,A4,230.0,427/500,93,90.0
1451,C#2,230.0,0.5,96,90.0
1452,B1,230.021,0.969,64,90.0
1453,B4,231.0,0.781,80,90.0
1454,B1,231.0,0.5,96,90.0
1455,E1,231.021,0.969,64,90.0
1456,B1,232.0,0.25,96,90.0
1457,F#2,232.0,0.25,96,90.0
1458,C5,232.021,0.469,80,90.0
1459,A1,232.021,163/50,64,90.0
1460,B4,232.5,0.438,80,90.0
1461,F#2,232.5,0.25,32,90.0
1462,C5,233.0,0.531,76,90.0
1463,F#2,233.0,0.25,80,90.0
1464,B4,233.5,73/200,80,90.0
1465,B1,233.5,0.25,64,90.0
1466,F#2,233.5,0.25,64,90.0
1467,D5,234.0,323/500,84,90.0
1468,F#2,234.0,0.25,80,90.0
1469,C#2,234.0,0.5,96,90.0
1470,F#2,234.5,0.25,32,90.0
1471,B4,234.75,0.5,80,90.0
1472,F#2,235.0,0.25,80,90.0
1473,B1,235.5,0.25,56,90.0
1474,F#2,235.5,0.25,56,90.0
1475,A4,235.521,479/1000,80,90.0
1476,D2,235.521,479/1000,73,90.0
1477,A4,236.0,224/125,80,90.0
1478,F#2,236.0,0.25,80,90.0
1479,D2,236.0,1.5,73,90.0
1480,F#2,236.5,0.25,32,90.0
1481,F#4,236.5,73/250,60,90.0
1482,G4,236.854,13/250,28,90.0
1483,F#4,236.917,0.062,36,90.0
1484,F#2,237.0,0.25,80,90.0
1485,D4,237.01,0.531,28,90.0
1486,F#2,237.5,0.25,32,90.0
1487,A3,237.5,0.531,56,90.0
1488,A1,237.521,0.469,56,90.0
1489,G4,238.0,0.5,102,90.0
1490,F#2,238.0,0.25,80,90.0
1491,C#2,238.0,0.5,96,90.0
1492,E4,238.0,0.469,56,90.0
1493,D2,238.021,0.844,56,90.0
1494,E4,238.5,0.5,93,90.0
1495,F#2,238.5,0.25,32,90.0
1496,D4,238.5,521/1000,52,90.0
1497,D4,239.0,77/200,84,90.0
1498,F#2,239.0,0.25,80,90.0
1499,E4,239.0,0.469,52,90.0
1500,D2,239.021,0.531,64,90.0
1501,D4,239.5,0.5,40,90.0
1502,B1,239.5,0.25,64,90.0
1503,B-2,239.5,0.25,64,90.0
1504,G4,239.521,479/1000,93,90.0
1505,G1,239.521,323/1000,60,90.0
1506,G4,240.0,2833/1000,93,90.0
1507,G2,240.0,4.0,64,90.0
1508,D4,240.0,83/1000,40,90.0
1509,B1,240.0,0.25,96,90.0
1510,F#2,240.0,0.25,96,90.0
1511,G1,240.021,1.156,73,90.0
1512,F#2,240.5,0.25,32,90.0
1513,D4,240.5,771/1000,60,90.0
1514,G3,240.75,349/500,64,90.0
1515,F#2,241.0,0.25,80,90.0
1516,G4,241.25,2.75,60,90.0
1517,D4,241.5,1083/1000,60,90.0
1518,B1,241.5,0.25,64,90.0
1519,F#2,241.5,0.25,64,90.0
1520,G1,241.521,1.75,73,90.0
1521,F#2,242.0,0.25,80,90.0
1522,C#2,242.0,0.5,96,90.0
1523,F#5,242.0,0.562,52,90.0
1524,G3,242.0,323/250,64,90.0
1525,F#2,242.5,0.25,32,90.0
1526,G5,242.5,69/125,48,90.0
1527,E4,242.5,149/100,56,90.0
1528,F#2,243.0,0.25,80,90.0
1529,D6,243.0,427/1000,51,90.0
1530,D4,243.25,0.75,56,90.0
1531,D6,243.5,0.5,56,90.0
1532,G3,243.5,229/500,64,90.0
1533,B1,243.5,0.25,56,90.0
1534,F#2,243.5,0.25,56,90.0
1535,G1,243.521,0.469,60,90.0
1536,D6,244.0,1.969,56,90.0
1537,B2,244.0,4.0,64,90.0
1538,G2,244.0,1/100,64,90.0
1539,G4,244.0,13/125,60,90.0
1540,B1,244.0,0.25,96,90.0
1541,F#2,244.0,0.25,96,90.0
1542,B1,244.021,31/25,73,90.0
1543,F#2,244.5,0.25,32,90.0
1544,D4,244.5,771/1000,60,90.0
1545,G3,244.75,349/500,64,90.0
1546,F#2,245.0,0.25,80,90.0
1547,G4,245.25,2.75,60,90.0
1548,D4,245.5,1083/1000,60,90.0
1549,B1,245.5,0.25,64,90.0
1550,F#2,245.5,0.25,64,90.0
1551,B1,245.521,427/250,73,90.0
1552,F#2,246.0,0.25,80,90.0
1553,C#2,246.0,0.5,96,90.0
1554,F#5,246.0,479/1000,64,90.0
1555,G3,246.0,323/250,64,90.0
1556,F#2,246.5,0.25,32,90.0
1557,G5,246.5,56/125,56,90.0
1558,E4,246.5,149/100,56,90.0
1559,F#2,247.0,0.25,80,90.0
1560,D6,247.0,417/1000,60,90.0
1561,D4,247.25,0.75,56,90.0
1562,D6,247.5,0.5,65,90.0
1563,G3,247.5,229/500,64,90.0
1564,B1,247.5,0.25,56,90.0
1565,F#2,247.5,0.25,56,90.0
1566,B1,247.521,417/1000,56,90.0
1567,D6,248.0,2.0,65,90.0
1568,C3,248.0,4.0,64,90.0
1569,B2,248.0,1/100,64,90.0
1570,G4,248.0,13/125,60,90.0
1571,B1,248.0,0.25,96,90.0
1572,F#2,248.0,0.25,96,90.0
1573,C2,248.021,1.25,64,90.0
1574,F#2,248.5,0.25,32,90.0
1575,D4,248.5,771/1000,60,90.0
1576,G3,248.75,349/500,64,90.0
1577,F#2,249.0,0.25,80,90.0
1578,G4,249.25,2.75,60,90.0
1579,D4,249.5,1083/1000,60,90.0
1580,B1,249.5,0.25,64,90.0
1581,F#2,249.5,0.25,64,90.0
1582,C2,249.521,44/25,73,90.0
1583,F#2,250.0,0.25,80,90.0
1584,C#2,250.0,0.5,96,90.0
1585,F#5,250.0,0.5,52,90.0
1586,G3,250.0,323/250,64,90.0
1587,F#2,250.5,0.25,32,90.0
1588,G5,250.5,56/125,48,90.0
1589,E4,250.5,149/100,56,90.0
1590,F#2,251.0,0.25,80,90.0
1591,D6,251.0,417/1000,57,90.0
1592,D4,251.25,0.75,56,90.0
1593,D6,251.5,0.5,58,90.0
1594,G3,251.5,229/500,64,90.0
1595,B1,251.5,0.25,56,90.0
1596,F#2,251.5,0.25,56,90.0
1597,A1,251.521,427/1000,64,90.0
1598,D6,252.0,51/100,58,90.0
1599,D3,252.0,513/250,64,90.0
1600,C3,252.0,1/100,64,90.0
1601,G4,252.0,13/125,60,90.0
1602,B1,252.0,0.25,96,90.0
1603,F#2,252.0,0.25,96,90.0
1604,D2,252.021,1229/1000,60,90.0
1605,F#2,252.5,0.25,32,90.0
1606,E6,252.5,0.5,56,90.0
1607,D4,252.5,19/25,60,90.0
1608,G3,252.75,63/50,64,90.0
1609,F#2,253.0,0.25,80,90.0
1610,C6,253.0,1.156,52,90.0
1611,G4,253.25,401/500,60,90.0
1612,F#2,253.5,0.25,32,90.0
1613,D4,253.5,0.5,60,90.0
1614,D2,253.521,1271/1000,64,90.0
1615,F#2,254.0,0.25,80,90.0
1616,C#2,254.0,0.5,96,90.0
1617,B5,254.0,427/1000,60,90.0
1618,D4,254.0,1.031,64,90.0
1619,F#2,254.5,0.25,32,90.0
1620,A5,254.5,49/100,56,90.0
1621,F#2,255.0,0.25,80,90.0
1622,G5,255.0,333/1000,56,90.0
1623,C4,255.0,49/100,60,90.0
1624,D2,255.021,0.219,64,90.0
1625,E2,255.271,271/1000,56,90.0
1626,G5,255.5,0.5,44,90.0
1627,B1,255.5,0.25,64,90.0
1628,F#2,255.5,0.25,64,90.0
1629,G2,255.521,0.25,60,90.0
1630,D4,255.552,56/125,60,90.0
1631,A2,255.771,229/1000,52,90.0
1632,A2,256.0,13/250,52,90.0
1633,G5,256.0,1323/1000,44,90.0
1634,B1,256.0,0.25,96,90.0
1635,F#2,256.0,0.25,96,90.0
1636,G2,256.021,677/500,60,90.0
1637,F#2,256.5,0.25,32,90.0
1638,G3,256.5,271/500,56,90.0
1639,F#2,257.0,0.25,80,90.0
1640,A3,257.0,19/25,64,90.0
1641,G3,257.5,123/200,60,90.0
1642,B1,257.5,0.25,64,90.0
1643,F#2,257.5,0.25,64,90.0
1644,G1,257.521,901/500,73,90.0
1645,F#2,258.0,0.25,80,90.0
1646,C#2,258.0,0.5,96,90.0
1647,F#5,258.0,0.562,52,90.0
1648,D4,258.0,2.0,60,90.0
1649,F#2,258.5,0.25,32,90.0
1650,G5,258.5,69/125,48,90.0
1651,A3,258.5,1.5,56,90.0
1652,G4,259.0,56/125,80,90.0
1653,F#2,259.0,0.25,80,90.0
1654,D6,259.0,427/1000,54,90.0
1655,G3,259.0,151/500,60,90.0
1656,D6,259.5,0.5,63,90.0
1657,G3,259.5,0.5,64,90.0
1658,B1,259.5,0.25,56,90.0
1659,F#2,259.5,0.25,56,90.0
1660,A4,259.521,417/1000,84,90.0
1661,G1,259.521,0.406,64,90.0
1662,B4,260.0,101/100,84,90.0
1663,D6,260.0,1.969,63,90.0
1664,D4,260.0,177/200,60,90.0
1665,A3,260.0,0.531,56,90.0
1666,G3,260.0,151/500,64,90.0
1667,B1,260.0,0.25,96,90.0
1668,F#2,260.0,0.25,96,90.0
1669,B1,260.021,1177/1000,73,90.0
1670,F#2,260.5,0.25,32,90.0
1671,G3,260.5,127/200,56,90.0
1672,C5,261.0,0.406,84,90.0
1673,F#2,261.0,0.25,80,90.0
1674,A3,261.0,927/1000,64,90.0
1675,D5,261.5,237/250,93,90.0
1676,G3,261.5,0.75,64,90.0
1677,B1,261.5,0.25,64,90.0
1678,F#2,261.5,0.25,64,90.0
1679,B1,261.521,87/50,82,90.0
1680,F#2,262.0,0.25,80,90.0
1681,C#2,262.0,0.5,96,90.0
1682,F#5,262.0,479/1000,64,90.0
1683,D4,262.0,2.0,60,90.0
1684,B4,262.5,112/125,84,90.0
1685,F#2,262.5,0.25,32,90.0
1686,G5,262.5,56/125,56,90.0
1687,A3,262.5,479/500,56,90.0
1688,F#2,263.0,0.25,80,90.0
1689,D6,263.0,417/1000,56,90.0
1690,G3,263.0,0.375,52,90.0
1691,G4,263.5,0.5,72,90.0
1692,D6,263.5,0.5,57,90.0
1693,G3,263.5,0.5,60,90.0
1694,B1,263.5,0.25,56,90.0
1695,F#2,263.5,0.25,56,90.0
1696,B1,263.521,77/200,64,90.0
1697,G4,264.0,1/100,72,90.0
1698,D6,264.0,2.0,57,90.0
1699,D4,264.0,0.438,60,90.0
1700,G3,264.0,13/50,60,90.0
1701,B1,264.0,0.25,96,90.0
1702,F#2,264.0,0.25,96,90.0
1703,F#5,264.021,1.469,80,90.0
1704,C2,264.021,1177/1000,64,90.0
1705,F#2,264.5,0.25,32,90.0
1706,G3,264.5,123/200,64,90.0
1707,F#2,265.0,0.25,80,90.0
1708,C4,265.0,101/100,73,90.0
1709,G3,265.5,263/250,64,90.0
1710,B1,265.5,0.25,64,90.0
1711,F#2,265.5,0.25,64,90.0
1712,G5,265.521,56/125,84,90.0
1713,C2,265.521,1.656,73,90.0
1714,E5,266.0,2.0,76,90.0
1715,F#2,266.0,0.25,80,90.0
1716,C#2,266.0,0.5,96,90.0
1717,B5,266.0,0.5,52,90.0
1718,E4,266.0,2.0,60,90.0
1719,F#2,266.5,0.25,32,90.0
1720,C6,266.5,56/125,48,90.0
1721,C4,266.5,1.5,52,90.0
1722,F#2,267.0,0.25,80,90.0
1723,G6,267.0,417/1000,56,90.0
1724,G3,267.0,1.0,64,90.0
1725,F#2,267.5,0.25,32,90.0
1726,G6,267.5,0.5,63,90.0
1727,C2,267.521,0.438,64,90.0
1728,E5,268.0,373/200,76,90.0
1729,G6,268.0,51/100,63,90.0
1730,E4,268.0,151/250,60,90.0
1731,C4,268.0,229/500,52,90.0
1732,G3,268.0,0.25,64,90.0
1733,B1,268.0,0.25,96,90.0
1734,F#2,268.0,0.25,96,90.0
1735,C#2,268.021,1.219,73,90.0
1736,F#2,268.5,0.25,32,90.0
1737,A3,268.5,0.656,56,90.0
1738,F#2,269.0,0.25,80,90.0
1739,C#4,269.0,979/1000,64,90.0
1740,A3,269.5,263/250,56,90.0
1741,B1,269.5,0.25,64,90.0
1742,F#2,269.5,0.25,64,90.0
1743,C#2,269.521,44/25,64,90.0
1744,E5,270.0,979/1000,84,90.0
1745,F#2,270.0,0.25,80,90.0
1746,C#2,270.0,0.5,96,90.0
1747,E4,270.0,2.0,56,90.0
1748,F#2,270.5,0.25,32,90.0
1749,C#4,270.5,1.5,56,90.0
1750,F#5,271.0,99/100,80,90.0
1751,F#2,271.0,0.25,80,90.0
1752,A3,271.0,1.0,60,90.0
1753,F#2,271.5,0.25,32,90.0
1754,E2,271.521,229/500,64,90.0
1755,E4,272.0,0.25,56,90.0
1756,C#4,272.0,13/50,56,90.0
1757,A3,272.0,27/200,60,90.0
1758,B1,272.0,0.25,96,90.0
1759,F#2,272.0,0.25,96,90.0
1760,A5,272.021,1.0,80,90.0
1761,D2,272.021,599/500,64,90.0
1762,F#2,272.5,0.25,32,90.0
1763,B3,272.5,0.594,64,90.0
1764,G5,273.0,0.469,76,90.0
1765,F#2,273.0,0.25,80,90.0
1766,D4,273.0,521/500,73,90.0
1767,F#2,273.5,0.25,32,90.0
1768,B3,273.5,917/1000,64,90.0
1769,D5,273.521,2479/1000,80,90.0
1770,D2,273.521,44/25,64,90.0
1771,F#2,274.0,0.25,80,90.0
1772,C#2,274.0,0.5,96,90.0
1773,G4,274.0,2.0,64,90.0
1774,F#2,274.5,0.25,32,90.0
1775,D4,274.5,0.594,60,90.0
1776,F#2,275.0,0.25,80,90.0
1777,B3,275.0,237/250,60,90.0
1778,D4,275.5,49/100,60,90.0
1779,B1,275.5,0.25,64,90.0
1780,F#2,275.5,0.25,64,90.0
1781,D2,275.521,323/1000,56,90.0
1782,D5,276.0,237/250,80,90.0
1783,G4,276.0,21/1000,64,90.0
1784,B1,276.0,0.25,96,90.0
1785,F#2,276.0,0.25,96,90.0
1786,E-2,276.021,1.281,64,90.0
1787,F#2,276.5,0.25,32,90.0
1788,A3,276.5,3.5,73,90.0
1789,C5,277.0,56/125,72,90.0
1790,F#2,277.0,0.25,80,90.0
1791,F#4,277.0,181/125,60,90.0
1792,B3,277.5,1.188,64,90.0
1793,B1,277.5,0.25,64,90.0
1794,F#2,277.5,0.25,64,90.0
1795,B4,277.521,729/500,76,90.0
1796,C2,277.521,229/500,73,90.0
1797,F#2,278.0,0.25,80,90.0
1798,C#2,278.0,0.5,96,90.0
1799,B1,278.021,1333/1000,60,90.0
1800,F#2,278.5,0.25,32,90.0
1801,F#4,278.5,1.5,73,90.0
1802,D5,279.0,56/125,84,90.0
1803,F#2,279.0,0.25,80,90.0
1804,E-4,279.0,1.0,60,90.0
1805,B4,279.5,0.469,80,90.0
1806,B3,279.5,0.5,64,90.0
1807,B1,279.5,0.25,56,90.0
1808,F#2,279.5,0.25,56,90.0
1809,B1,279.521,73/200,64,90.0
1810,A3,280.0,0.031,73,90.0
1811,F#4,280.0,21/1000,73,90.0
1812,E-4,280.0,0.125,60,90.0
1813,B3,280.0,0.062,64,90.0
1814,B1,280.0,0.25,96,90.0
1815,F#2,280.0,0.25,96,90.0
1816,A5,280.021,979/1000,84,90.0
1817,E2,280.021,599/500,73,90.0
1818,F#2,280.5,0.25,32,90.0
1819,G3,280.5,2.0,56,90.0
1820,B5,281.0,0.469,72,90.0
1821,F#2,281.0,0.25,80,90.0
1822,B3,281.0,31/25,64,90.0
1823,G5,281.5,2.5,80,90.0
1824,E4,281.5,573/1000,60,90.0
1825,B1,281.5,0.25,64,90.0
1826,F#2,281.5,0.25,64,90.0
1827,E1,281.521,1.469,73,90.0
1828,F#2,282.0,0.25,80,90.0
1829,C#2,282.0,0.5,96,90.0
1830,F#4,282.0,677/1000,60,90.0
1831,F#2,282.5,0.25,32,90.0
1832,E4,282.5,729/500,60,90.0
1833,B3,283.0,0.969,73,90.0
1834,B1,283.0,0.25,96,90.0
1835,F#2,283.0,0.25,96,90.0
1836,E2,283.021,0.938,73,90.0
1837,B-2,283.5,0.25,48,90.0
1838,G3,283.5,0.5,60,90.0
1839,G5,284.0,0.312,80,90.0
1840,F#2,284.0,0.25,80,90.0
1841,A1,284.021,3.625,73,90.0
1842,A5,284.25,0.25,68,90.0
1843,B5,284.5,599/250,64,90.0
1844,F#2,284.5,0.25,32,90.0
1845,B-2,285.0,0.5,48,90.0
1846,E-3,286.0,0.5,96,90.0
1847,E4,287.0,69/125,80,90.0
1848,G4,287.5,99/250,76,90.0
1849,B1,288.0,0.5,112,90.0
1850,F#2,288.0,0.25,80,90.0
1851,C5,288.021,56/125,84,90.0
1852,A1,288.021,199/100,82,90.0
1853,B4,288.5,0.469,85,90.0
1854,C5,289.0,0.469,78,90.0
1855,F#2,289.0,0.25,64,90.0
1856,B4,289.5,417/1000,69,90.0
1857,D5,290.0,0.656,76,90.0
1858,F#2,290.0,0.25,80,90.0
1859,C#2,290.0,0.5,96,90.0
1860,A2,290.021,479/500,64,90.0
1861,B4,290.75,49/100,79,90.0
1862,F#2,291.0,0.25,64,90.0
1863,E2,291.021,177/1000,60,90.0
1864,F#2,291.5,0.25,32,90.0
1865,D2,291.521,479/1000,73,90.0
1866,A4,291.531,0.469,79,90.0
1867,A4,292.0,2667/1000,79,90.0
1868,B1,292.0,0.5,112,90.0
1869,F#2,292.0,0.25,80,90.0
1870,D2,292.0,1.906,73,90.0
1871,F#4,292.562,26/125,60,90.0
1872,G4,292.792,27/200,40,90.0
1873,F#4,292.917,83/1000,36,90.0
1874,F#2,293.0,0.25,64,90.0
1875,D4,293.0,417/1000,44,90.0
1876,A3,293.479,521/1000,48,90.0
1877,F#2,293.5,0.25,32,90.0
1878,F#2,294.0,0.25,80,90.0
1879,C#2,294.0,0.5,96,90.0
1880,E4,294.0,521/1000,60,90.0
1881,E2,294.021,1021/1000,64,90.0
1882,D4,294.49,51/100,60,90.0
1883,F#2,295.0,0.25,64,90.0
1884,B3,295.0,1.0,56,90.0
1885,E1,295.021,173/200,64,90.0
1886,B4,295.5,0.438,79,90.0
1887,F#2,295.5,0.25,32,90.0
1888,B1,296.0,0.25,112,90.0
1889,F#2,296.0,0.5,80,90.0
1890,B3,296.0,21/500,56,90.0
1891,C5,296.021,229/500,80,90.0
1892,A1,296.021,199/100,73,90.0
1893,B4,296.5,417/1000,64,90.0
1894,C5,297.0,0.5,68,90.0
1895,F#2,297.0,0.5,64,90.0
1896,B4,297.5,427/1000,68,90.0
1897,G5,298.0,729/1000,84,90.0
1898,F#2,298.0,0.5,88,90.0
1899,C#2,298.0,0.5,88,90.0
1900,A2,298.021,101/100,64,90.0
1901,B4,298.75,0.469,76,90.0
1902,F#2,299.0,0.5,64,90.0
1903,E2,299.021,27/200,60,90.0
1904,B1,299.5,0.25,72,90.0
1905,B-2,299.5,0.25,72,90.0
1906,A4,299.521,479/1000,80,90.0
1907,D2,299.521,479/1000,64,90.0
1908,A4,300.0,2073/1000,80,90.0
1909,F#2,300.0,0.25,80,90.0
1910,D2,300.0,373/200,64,90.0
1911,F#4,300.562,26/125,60,90.0
1912,G4,300.792,27/200,40,90.0
1913,F#4,300.917,83/1000,36,90.0
1914,F#2,301.0,0.25,64,90.0
1915,D4,301.0,417/1000,44,90.0
1916,A3,301.479,521/1000,48,90.0
1917,F#2,301.5,0.25,32,90.0
1918,F#2,302.0,0.25,80,90.0
1919,C#2,302.0,0.5,96,90.0
1920,E4,302.0,521/1000,60,90.0
1921,E2,302.021,1.062,73,90.0
1922,D4,302.49,51/100,60,90.0
1923,B1,303.0,0.5,96,90.0
1924,F#2,303.0,0.25,64,90.0
1925,B3,303.0,1.0,56,90.0
1926,A4,303.021,229/500,84,90.0
1927,E1,303.021,0.844,73,90.0
1928,B4,303.5,229/500,80,90.0
1929,B-2,303.5,0.25,48,90.0
1930,B1,304.0,0.5,112,90.0
1931,F#2,304.0,0.25,80,90.0
1932,B3,304.0,21/500,56,90.0
1933,C5,304.021,229/500,80,90.0
1934,A1,304.021,927/500,64,90.0
1935,B4,304.5,417/1000,76,90.0
1936,C5,305.0,51/100,76,90.0
1937,F#2,305.0,0.25,64,90.0
1938,B4,305.5,73/200,76,90.0
1939,F#2,305.5,0.25,32,90.0
1940,D5,306.0,177/250,84,90.0
1941,F#2,306.0,0.25,80,90.0
1942,C#2,306.0,0.5,96,90.0
1943,A2,306.021,63/50,64,90.0
1944,B4,306.75,427/1000,84,90.0
1945,F#2,307.0,0.25,64,90.0
1946,F#2,307.5,0.25,32,90.0
1947,A4,307.521,479/1000,80,90.0
1948,D2,307.521,479/1000,64,90.0
1949,A4,308.0,1.781,80,90.0
1950,B1,308.0,0.25,112,90.0
1951,F#2,308.0,0.5,80,90.0
1952,D2,308.0,651/500,64,90.0
1953,F#4,308.5,73/250,60,90.0
1954,G4,308.854,13/250,28,90.0
1955,F#4,308.917,0.062,36,90.0
1956,F#2,309.0,0.5,64,90.0
1957,D4,309.01,0.531,28,90.0
1958,B1,309.5,0.25,80,90.0
1959,A3,309.5,0.531,56,90.0
1960,D2,309.521,229/1000,56,90.0
1961,G4,310.0,0.5,80,90.0
1962,B1,310.0,0.25,96,90.0
1963,F#2,310.0,0.5,80,90.0
1964,E4,310.0,0.469,56,90.0
1965,D2,310.021,0.75,64,90.0
1966,E4,310.5,479/1000,84,90.0
1967,D4,310.5,521/1000,52,90.0
1968,D4,311.0,0.438,80,90.0
1969,F#2,311.0,0.5,64,90.0
1970,E4,311.0,0.469,52,90.0
1971,D2,311.021,99/250,73,90.0
1972,D4,311.5,0.5,40,90.0
1973,G4,311.521,479/1000,80,90.0
1974,A1,311.521,0.375,73,90.0
1975,G4,312.0,1479/500,80,90.0
1976,G2,312.0,4.0,64,90.0
1977,D4,312.0,83/1000,40,90.0
1978,B1,312.0,0.25,96,90.0
1979,F#2,312.0,0.25,96,90.0
1980,G1,312.021,1.125,64,90.0
1981,D4,312.5,771/1000,60,90.0
1982,G3,312.75,349/500,64,90.0
1983,F#2,313.0,0.25,64,90.0
1984,G4,313.25,2.75,60,90.0
1985,D4,313.5,1083/1000,60,90.0
1986,G1,313.521,1979/1000,64,90.0
1987,F#2,314.0,0.25,80,90.0
1988,C#2,314.0,0.5,96,90.0
1989,F#5,314.0,0.562,52,90.0
1990,G3,314.0,323/250,64,90.0
1991,G5,314.5,69/125,48,90.0
1992,E4,314.5,149/100,56,90.0
1993,D5,315.0,0.344,84,90.0
1994,F#2,315.0,0.25,64,90.0
1995,D6,315.0,427/1000,36,90.0
1996,D4,315.25,0.75,56,90.0
1997,D6,315.5,0.5,44,90.0
1998,G3,315.5,229/500,64,90.0
1999,B1,315.5,0.25,56,90.0
2000,F#2,315.5,0.25,56,90.0
2001,D5,315.521,479/1000,68,90.0
2002,B1,315.521,6/25,64,90.0
2003,D5,316.0,349/125,68,90.0
2004,D6,316.0,1.969,44,90.0
2005,B2,316.0,4.0,64,90.0
2006,G2,316.0,1/100,64,90.0
2007,G4,316.0,13/125,60,90.0
2008,B1,316.0,0.25,96,90.0
2009,F#2,316.0,0.25,96,90.0
2010,B1,316.021,323/250,64,90.0
2011,D4,316.5,771/1000,60,90.0
2012,G3,316.75,349/500,64,90.0
2013,F#2,317.0,0.25,64,90.0
2014,G4,317.25,2.75,60,90.0
2015,D4,317.5,1083/1000,60,90.0
2016,B1,317.521,327/200,64,90.0
2017,F#2,318.0,0.25,80,90.0
2018,C#2,318.0,0.5,96,90.0
2019,F#5,318.0,479/1000,64,90.0
2020,G3,318.0,323/250,64,90.0
2021,G5,318.5,56/125,56,90.0
2022,E4,318.5,149/100,56,90.0
2023,E5,319.0,0.406,68,90.0
2024,F#2,319.0,0.25,64,90.0
2025,D6,319.0,417/1000,56,90.0
2026,D4,319.25,0.75,56,90.0
2027,D6,319.5,0.5,44,90.0
2028,G3,319.5,229/500,64,90.0
2029,B1,319.5,0.25,56,90.0
2030,F#2,319.5,0.25,56,90.0
2031,D5,319.521,479/1000,76,90.0
2032,B1,319.521,0.344,64,90.0
2033,D5,320.0,306/125,76,90.0
2034,D6,320.0,2.0,44,90.0
2035,C3,320.0,4.0,64,90.0
2036,B2,320.0,1/100,64,90.0
2037,G4,320.0,13/125,60,90.0
2038,B1,320.0,0.25,96,90.0
2039,F#2,320.0,0.25,96,90.0
2040,C2,320.021,651/500,64,90.0
2041,D4,320.5,771/1000,60,90.0
2042,G3,320.75,349/500,64,90.0
2043,F#2,321.0,0.25,64,90.0
2044,G4,321.25,2.75,60,90.0
2045,B1,321.5,0.25,96,90.0
2046,D4,321.5,1083/1000,60,90.0
2047,C2,321.521,1771/1000,73,90.0
2048,F#2,322.0,0.25,80,90.0
2049,C#2,322.0,0.5,96,90.0
2050,F#5,322.0,0.5,52,90.0
2051,G3,322.0,323/250,64,90.0
2052,G4,322.5,0.469,72,90.0
2053,G5,322.5,56/125,48,90.0
2054,E4,322.5,149/100,56,90.0
2055,D5,323.0,99/250,80,90.0
2056,F#2,323.0,0.25,64,90.0
2057,D6,323.0,417/1000,52,90.0
2058,D4,323.25,0.75,56,90.0
2059,D6,323.5,0.5,48,90.0
2060,G3,323.5,229/500,64,90.0
2061,B1,323.5,0.25,56,90.0
2062,F#2,323.5,0.25,56,90.0
2063,A1,323.521,0.344,64,90.0
2064,D5,323.531,0.469,76,90.0
2065,D5,324.0,0.469,76,90.0
2066,B1,324.0,0.25,112,90.0
2067,F#2,324.0,0.5,80,90.0
2068,D6,324.0,51/100,48,90.0
2069,D3,324.0,513/250,64,90.0
2070,C3,324.0,1/100,64,90.0
2071,G4,324.0,13/125,60,90.0
2072,D2,324.021,63/50,64,90.0
2073,E5,324.5,427/1000,72,90.0
2074,E6,324.5,0.5,56,90.0
2075,D4,324.5,19/25,60,90.0
2076,G3,324.75,63/50,64,90.0
2077,C5,325.0,0.875,84,90.0
2078,F#2,325.0,0.5,64,90.0
2079,C6,325.0,1.156,52,90.0
2080,G4,325.25,401/500,60,90.0
2081,B1,325.5,0.25,96,90.0
2082,D4,325.5,0.5,60,90.0
2083,D2,325.521,1323/1000,64,90.0
2084,B4,326.0,0.406,80,90.0
2085,B5,326.0,427/1000,60,90.0
2086,D4,326.0,1.031,64,90.0
2087,F#2,326.0,0.5,88,90.0
2088,C#2,326.0,0.5,88,90.0
2089,A4,326.5,479/1000,80,90.0
2090,A5,326.5,49/100,56,90.0
2091,D4,327.0,56/125,72,90.0
2092,F#2,327.0,0.5,64,90.0
2093,G5,327.0,333/1000,56,90.0
2094,C4,327.0,49/100,60,90.0
2095,D2,327.021,49/100,64,90.0
2096,G4,327.5,0.5,84,90.0
2097,G5,327.5,0.5,44,90.0
2098,B1,327.5,0.25,64,90.0
2099,B-2,327.5,0.25,64,90.0
2100,A1,327.521,229/500,64,90.0
2101,D4,327.552,56/125,60,90.0
2102,G4,328.0,1823/1000,84,90.0
2103,G5,328.0,1323/1000,44,90.0
2104,G2,328.0,4.0,64,90.0
2105,B1,328.0,0.25,96,90.0
2106,F#2,328.0,0.25,96,90.0
2107,G1,328.021,1.125,64,90.0
2108,D4,328.5,771/1000,60,90.0
2109,G3,328.75,349/500,64,90.0
2110,F#2,329.0,0.25,64,90.0
2111,G4,329.25,2.75,60,90.0
2112,D4,329.5,1083/1000,60,90.0
2113,G1,329.521,1979/1000,64,90.0
2114,F#4,330.0,229/500,76,90.0
2115,F#2,330.0,0.25,80,90.0
2116,C#2,330.0,0.5,96,90.0
2117,F#5,330.0,0.562,52,90.0
2118,G3,330.0,323/250,64,90.0
2119,G4,330.5,56/125,76,90.0
2120,G5,330.5,69/125,48,90.0
2121,E4,330.5,149/100,56,90.0
2122,D5,331.0,99/250,80,90.0
2123,F#2,331.0,0.25,64,90.0
2124,D6,331.0,427/1000,36,90.0
2125,D4,331.25,0.75,56,90.0
2126,D6,331.5,0.5,44,90.0
2127,G3,331.5,229/500,64,90.0
2128,B1,331.5,0.25,56,90.0
2129,F#2,331.5,0.25,56,90.0
2130,D5,331.521,479/1000,80,90.0
2131,B1,331.521,6/25,64,90.0
2132,D5,332.0,373/200,80,90.0
2133,D6,332.0,1.969,44,90.0
2134,B2,332.0,4.0,64,90.0
2135,G2,332.0,1/100,64,90.0
2136,G4,332.0,13/125,60,90.0
2137,B1,332.0,0.25,96,90.0
2138,F#2,332.0,0.25,96,90.0
2139,B1,332.021,323/250,64,90.0
2140,D4,332.5,771/1000,60,90.0
2141,G3,332.75,349/500,64,90.0
2142,F#2,333.0,0.25,64,90.0
2143,G4,333.25,2.75,60,90.0
2144,D4,333.5,1083/1000,60,90.0
2145,B1,333.521,327/200,64,90.0
2146,F#4,334.0,0.438,76,90.0
2147,F#2,334.0,0.25,80,90.0
2148,C#2,334.0,0.5,96,90.0
2149,F#5,334.0,479/1000,64,90.0
2150,G3,334.0,323/250,64,90.0
2151,G4,334.5,0.438,72,90.0
2152,G5,334.5,56/125,56,90.0
2153,E4,334.5,149/100,56,90.0
2154,D5,335.0,77/200,80,90.0
2155,F#2,335.0,0.25,64,90.0
2156,D6,335.0,417/1000,56,90.0
2157,D4,335.25,0.75,56,90.0
2158,D6,335.5,0.5,44,90.0
2159,G3,335.5,229/500,64,90.0
2160,B1,335.5,0.25,56,90.0
2161,F#2,335.5,0.25,56,90.0
2162,B1,335.521,0.344,64,90.0
2163,D5,335.531,0.469,80,90.0
2164,D5,336.0,513/250,80,90.0
2165,D6,336.0,2.0,44,90.0
2166,C3,336.0,4.0,64,90.0
2167,B2,336.0,1/100,64,90.0
2168,G4,336.0,13/125,60,90.0
2169,B1,336.0,0.25,96,90.0
2170,F#2,336.0,0.25,96,90.0
2171,C2,336.021,651/500,64,90.0
2172,D4,336.5,771/1000,60,90.0
2173,G3,336.75,349/500,64,90.0
2174,F#2,337.0,0.25,64,90.0
2175,G4,337.25,2.75,60,90.0
2176,B1,337.5,0.25,96,90.0
2177,D4,337.5,1083/1000,60,90.0
2178,C2,337.521,1771/1000,73,90.0
2179,F#2,338.0,0.25,80,90.0
2180,C#2,338.0,0.5,96,90.0
2181,F#5,338.0,0.5,52,90.0
2182,G3,338.0,323/250,64,90.0
2183,G5,338.5,56/125,48,90.0
2184,E4,338.5,149/100,56,90.0
2185,G4,338.521,417/1000,80,90.0
2186,D5,339.0,0.438,80,90.0
2187,F#2,339.0,0.25,64,90.0
2188,D6,339.0,417/1000,52,90.0
2189,D4,339.25,0.75,56,90.0
2190,D6,339.5,0.5,48,90.0
2191,G3,339.5,229/500,64,90.0
2192,B1,339.5,0.25,56,90.0
2193,F#2,339.5,0.25,56,90.0
2194,D5,339.521,479/1000,76,90.0
2195,A1,339.521,0.344,64,90.0
2196,D5,340.0,0.469,76,90.0
2197,B1,340.0,0.25,112,90.0
2198,F#2,340.0,0.5,80,90.0
2199,D6,340.0,51/100,48,90.0
2200,D3,340.0,513/250,64,90.0
2201,C3,340.0,1/100,64,90.0
2202,G4,340.0,13/125,60,90.0
2203,D2,340.021,63/50,64,90.0
2204,E5,340.5,0.438,72,90.0
2205,E6,340.5,0.5,56,90.0
2206,D4,340.5,19/25,60,90.0
2207,G3,340.75,63/50,64,90.0
2208,C5,341.0,771/1000,76,90.0
2209,F#2,341.0,0.5,64,90.0
2210,C6,341.0,1.156,52,90.0
2211,G4,341.25,401/500,60,90.0
2212,B1,341.5,0.25,96,90.0
2213,D4,341.5,0.5,60,90.0
2214,D2,341.521,1323/1000,64,90.0
2215,B4,342.0,0.406,80,90.0
2216,B5,342.0,427/1000,60,90.0
2217,D4,342.0,1.031,64,90.0
2218,F#2,342.0,0.5,88,90.0
2219,C#2,342.0,0.5,88,90.0
2220,A4,342.5,69/125,68,90.0
2221,A5,342.5,49/100,56,90.0
2222,D4,343.0,177/500,76,90.0
2223,F#2,343.0,0.5,64,90.0
2224,G5,343.0,333/1000,56,90.0
2225,C4,343.0,49/100,60,90.0
2226,D2,343.021,49/100,64,90.0
2227,G4,343.5,0.5,80,90.0
2228,G5,343.5,0.5,44,90.0
2229,B1,343.5,0.25,64,90.0
2230,B-2,343.5,0.25,64,90.0
2231,A1,343.521,229/500,64,90.0
2232,D4,343.552,56/125,60,90.0
2233,G4,344.0,377/200,80,90.0
2234,G5,344.0,1323/1000,44,90.0
2235,G2,344.0,4.0,64,90.0
2236,B1,344.0,0.25,96,90.0
2237,F#2,344.0,0.25,96,90.0
2238,G1,344.021,1.125,64,90.0
2239,D4,344.5,771/1000,60,90.0
2240,G3,344.75,349/500,64,90.0
2241,F#2,345.0,0.25,64,90.0
2242,G4,345.25,2.75,60,90.0
2243,D4,345.5,1083/1000,60,90.0
2244,G1,345.521,1979/1000,64,90.0
2245,F#4,346.0,479/1000,80,90.0
2246,F#2,346.0,0.25,80,90.0
2247,C#2,346.0,0.5,96,90.0
2248,F#5,346.0,0.562,52,90.0
2249,G3,346.0,323/250,64,90.0
2250,G4,346.5,479/1000,80,90.0
2251,G5,346.5,69/125,48,90.0
2252,E4,346.5,149/100,56,90.0
2253,D5,347.0,427/1000,80,90.0
2254,F#2,347.0,0.25,64,90.0
2255,D6,347.0,427/1000,36,90.0
2256,D4,347.25,0.75,56,90.0
2257,D6,347.5,0.5,44,90.0
2258,G3,347.5,229/500,64,90.0
2259,B1,347.5,0.25,56,90.0
2260,F#2,347.5,0.25,56,90.0
2261,D5,347.521,479/1000,93,90.0
2262,B1,347.521,6/25,64,90.0
2263,D5,348.0,1927/1000,93,90.0
2264,D6,348.0,1.969,44,90.0
2265,B2,348.0,4.0,64,90.0
2266,G2,348.0,1/100,64,90.0
2267,G4,348.0,13/125,60,90.0
2268,B1,348.0,0.25,96,90.0
2269,F#2,348.0,0.25,96,90.0
2270,B1,348.021,323/250,64,90.0
2271,D4,348.5,771/1000,60,90.0
2272,G3,348.75,349/500,64,90.0
2273,F#2,349.0,0.25,64,90.0
2274,G4,349.25,2.75,60,90.0
2275,D4,349.5,1083/1000,60,90.0
2276,B1,349.521,327/200,64,90.0
2277,F#4,350.0,229/500,72,90.0
2278,F#2,350.0,0.25,80,90.0
2279,C#2,350.0,0.5,96,90.0
2280,F#5,350.0,479/1000,64,90.0
2281,G3,350.0,323/250,64,90.0
2282,G4,350.5,417/1000,60,90.0
2283,G5,350.5,56/125,56,90.0
2284,E4,350.5,149/100,56,90.0
2285,D5,351.0,99/250,76,90.0
2286,F#2,351.0,0.25,64,90.0
2287,D6,351.0,417/1000,56,90.0
2288,D4,351.25,0.75,56,90.0
2289,D6,351.5,0.5,44,90.0
2290,G3,351.5,229/500,64,90.0
2291,B1,351.5,0.25,56,90.0
2292,F#2,351.5,0.25,56,90.0
2293,D5,351.521,479/1000,76,90.0
2294,B1,351.521,0.344,64,90.0
2295,D5,352.0,1151/500,76,90.0
2296,D6,352.0,2.0,44,90.0
2297,C3,352.0,4.0,64,90.0
2298,B2,352.0,1/100,64,90.0
2299,G4,352.0,13/125,60,90.0
2300,B1,352.0,0.25,96,90.0
2301,F#2,352.0,0.25,96,90.0
2302,C2,352.021,651/500,64,90.0
2303,D4,352.5,771/1000,60,90.0
2304,G3,352.75,349/500,64,90.0
2305,F#2,353.0,0.25,64,90.0
2306,G4,353.25,2.75,60,90.0
2307,B1,353.5,0.25,96,90.0
2308,D4,353.5,1083/1000,60,90.0
2309,C2,353.521,1771/1000,73,90.0
2310,F#2,354.0,0.25,80,90.0
2311,C#2,354.0,0.5,96,90.0
2312,F#5,354.0,0.5,52,90.0
2313,G3,354.0,323/250,64,90.0
2314,G5,354.5,56/125,48,90.0
2315,E4,354.5,149/100,56,90.0
2316,G4,354.521,229/500,80,90.0
2317,D5,355.0,0.406,76,90.0
2318,F#2,355.0,0.25,64,90.0
2319,D6,355.0,417/1000,52,90.0
2320,D4,355.25,0.75,56,90.0
2321,D6,355.5,0.5,48,90.0
2322,G3,355.5,229/500,64,90.0
2323,B1,355.5,0.25,56,90.0
2324,F#2,355.5,0.25,56,90.0
2325,D5,355.521,479/1000,84,90.0
2326,A1,355.521,0.344,64,90.0
2327,D5,356.0,56/125,84,90.0
2328,B1,356.0,0.25,112,90.0
2329,F#2,356.0,0.5,80,90.0
2330,D6,356.0,51/100,48,90.0
2331,D3,356.0,513/250,64,90.0
2332,C3,356.0,1/100,64,90.0
2333,G4,356.0,13/125,60,90.0
2334,D2,356.021,63/50,64,90.0
2335,E5,356.5,56/125,76,90.0
2336,E6,356.5,0.5,56,90.0
2337,D4,356.5,19/25,60,90.0
2338,G3,356.75,63/50,64,90.0
2339,C5,357.0,177/250,76,90.0
2340,F#2,357.0,0.5,64,90.0
2341,C6,357.0,1.156,52,90.0
2342,G4,357.25,401/500,60,90.0
2343,B1,357.5,0.25,96,90.0
2344,D4,357.5,0.5,60,90.0
2345,D2,357.521,1323/1000,64,90.0
2346,B4,358.0,417/1000,93,90.0
2347,B5,358.0,427/1000,60,90.0
2348,D4,358.0,1.031,64,90.0
2349,F#2,358.0,0.5,88,90.0
2350,C#2,358.0,0.5,88,90.0
2351,A4,358.5,0.438,80,90.0
2352,A5,358.5,49/100,56,90.0
2353,D4,359.0,417/1000,80,90.0
2354,F#2,359.0,0.5,64,90.0
2355,G5,359.0,333/1000,56,90.0
2356,C4,359.0,49/100,60,90.0
2357,D2,359.021,49/100,64,90.0
2358,G4,359.5,0.5,80,90.0
2359,G5,359.5,0.5,44,90.0
2360,B1,359.5,0.25,64,90.0
2361,B-2,359.5,0.25,64,90.0
2362,A1,359.521,229/500,64,90.0
2363,D4,359.552,56/125,60,90.0
2364,G4,360.0,373/200,80,90.0
2365,G5,360.0,1323/1000,44,90.0
2366,G2,360.0,4.0,64,90.0
2367,B1,360.0,0.25,96,90.0
2368,F#2,360.0,0.25,96,90.0
2369,G1,360.021,1.125,64,90.0
2370,D4,360.5,771/1000,60,90.0
2371,G3,360.75,349/500,64,90.0
2372,F#2,361.0,0.25,64,90.0
2373,G4,361.25,2.75,60,90.0
2374,D4,361.5,1083/1000,60,90.0
2375,G1,361.521,1979/1000,64,90.0
2376,F#4,362.0,479/1000,76,90.0
2377,F#2,362.0,0.25,80,90.0
2378,C#2,362.0,0.5,96,90.0
2379,F#5,362.0,0.562,52,90.0
2380,G3,362.0,323/250,64,90.0
2381,G4,362.5,56/125,72,90.0
2382,G5,362.5,69/125,48,90.0
2383,E4,362.5,149/100,56,90.0
2384,D5,363.0,0.438,80,90.0
2385,F#2,363.0,0.25,64,90.0
2386,D6,363.0,427/1000,36,90.0
2387,D4,363.25,0.75,56,90.0
2388,D6,363.5,0.5,44,90.0
2389,G3,363.5,229/500,64,90.0
2390,B1,363.5,0.25,56,90.0
2391,F#2,363.5,0.25,56,90.0
2392,D5,363.521,479/1000,64,90.0
2393,B1,363.521,6/25,64,90.0
2394,D5,364.0,377/200,64,90.0
2395,D6,364.0,1.969,44,90.0
2396,B2,364.0,4.0,64,90.0
2397,G2,364.0,1/100,64,90.0
2398,G4,364.0,13/125,60,90.0
2399,B1,364.0,0.25,96,90.0
2400,F#2,364.0,0.25,96,90.0
2401,B1,364.021,323/250,64,90.0
2402,D4,364.5,771/1000,60,90.0
2403,G3,364.75,349/500,64,90.0
2404,F#2,365.0,0.25,64,90.0
2405,G4,365.25,2.75,60,90.0
2406,D4,365.5,1083/1000,60,90.0
2407,B1,365.521,327/200,64,90.0
2408,F#2,366.0,0.25,80,90.0
2409,C#2,366.0,0.5,96,90.0
2410,F#5,366.0,479/1000,64,90.0
2411,G3,366.0,323/250,64,90.0
2412,F#4,366.021,0.5,72,90.0
2413,G4,366.5,0.438,68,90.0
2414,G5,366.5,56/125,56,90.0
2415,E4,366.5,149/100,56,90.0
2416,D5,367.0,99/250,80,90.0
2417,F#2,367.0,0.25,64,90.0
2418,D6,367.0,417/1000,56,90.0
2419,D4,367.25,0.75,56,90.0
2420,D6,367.5,0.5,44,90.0
2421,G3,367.5,229/500,64,90.0
2422,B1,367.5,0.25,56,90.0
2423,F#2,367.5,0.25,56,90.0
2424,B1,367.521,0.344,64,90.0
2425,D5,367.531,0.469,80,90.0
2426,D5,368.0,2.406,80,90.0
2427,D6,368.0,2.0,44,90.0
2428,C3,368.0,4.0,64,90.0
2429,B2,368.0,1/100,64,90.0
2430,G4,368.0,13/125,60,90.0
2431,B1,368.0,0.25,96,90.0
2432,F#2,368.0,0.25,96,90.0
2433,C2,368.021,651/500,64,90.0
2434,D4,368.5,771/1000,60,90.0
2435,G3,368.75,349/500,64,90.0
2436,F#2,369.0,0.25,64,90.0
2437,G4,369.25,2.75,60,90.0
2438,B1,369.5,0.25,96,90.0
2439,D4,369.5,1083/1000,60,90.0
2440,C2,369.521,1771/1000,73,90.0
2441,F#2,370.0,0.25,80,90.0
2442,C#2,370.0,0.5,96,90.0
2443,F#5,370.0,0.5,52,90.0
2444,G3,370.0,323/250,64,90.0
2445,G5,370.5,56/125,48,90.0
2446,E4,370.5,149/100,56,90.0
2447,G4,370.521,0.469,76,90.0
2448,D5,371.0,417/1000,84,90.0
2449,F#2,371.0,0.25,64,90.0
2450,D6,371.0,417/1000,52,90.0
2451,D4,371.25,0.75,56,90.0
2452,D6,371.5,0.5,48,90.0
2453,G3,371.5,229/500,64,90.0
2454,B1,371.5,0.25,56,90.0
2455,F#2,371.5,0.25,56,90.0
2456,D5,371.521,479/1000,84,90.0
2457,A1,371.521,0.344,64,90.0
2458,D5,372.0,0.531,84,90.0
2459,B1,372.0,0.25,112,90.0
2460,F#2,372.0,0.5,80,90.0
2461,D6,372.0,51/100,48,90.0
2462,D3,372.0,513/250,64,90.0
2463,C3,372.0,1/100,64,90.0
2464,G4,372.0,13/125,60,90.0
2465,D2,372.021,63/50,64,90.0
2466,E5,372.5,56/125,80,90.0
2467,E6,372.5,0.5,56,90.0
2468,D4,372.5,19/25,60,90.0
2469,G3,372.75,63/50,64,90.0
2470,C5,373.0,0.688,76,90.0
2471,F#2,373.0,0.5,64,90.0
2472,C6,373.0,1.156,52,90.0
2473,G4,373.25,401/500,60,90.0
2474,B1,373.5,0.25,96,90.0
2475,D4,373.5,0.5,60,90.0
2476,D2,373.521,1323/1000,64,90.0
2477,B4,374.0,0.469,84,90.0
2478,B5,374.0,427/1000,60,90.0
2479,D4,374.0,1.031,64,90.0
2480,F#2,374.0,0.5,88,90.0
2481,C#2,374.0,0.5,88,90.0
2482,A4,374.5,56/125,76,90.0
2483,A5,374.5,49/100,56,90.0
2484,D4,375.0,77/200,76,90.0
2485,F#2,375.0,0.5,64,90.0
2486,G5,375.0,333/1000,56,90.0
2487,C4,375.0,49/100,60,90.0
2488,D2,375.021,49/100,64,90.0
2489,G5,375.5,0.5,44,90.0
2490,B1,375.5,0.25,64,90.0
2491,B-2,375.5,0.25,64,90.0
2492,G4,375.521,479/1000,64,90.0
2493,A1,375.521,229/500,64,90.0
2494,D4,375.552,56/125,60,90.0
2495,G4,376.0,4.0,64,90.0
2496,G5,376.0,1323/1000,44,90.0
2497,G1,376.021,3979/1000,73,90.0
2498,G4,380.0,3.438,64,90.0
2499,G1,380.0,4.0,73,90.0
2500,G1,384.0,21/1000,73,90.0
