,note_name,start_time,duration,velocity,tempo
0,G4,0.0,1.75,95,100.0
1,E4,0.0,1.75,95,100.0
2,C4,0.0,1.75,95,100.0
3,A3,0.0,1.75,95,100.0
4,A2,0.0,1.75,95,100.0
5,B1,0.75,0.25,95,100.0
6,D2,1.0,0.25,95,100.0
7,B1,1.25,0.25,95,100.0
8,E2,1.75,0.25,95,100.0
9,A4,1.75,1.75,95,100.0
10,F#4,1.75,1.75,95,100.0
11,E4,1.75,1.75,95,100.0
12,D4,1.75,1.75,95,100.0
13,B2,1.75,1.75,95,100.0
14,E1,2.25,0.25,95,100.0
15,E1,2.75,0.25,95,100.0
16,G1,3.0,0.25,95,100.0
17,A1,3.5,0.5,95,100.0
18,B4,3.5,0.5,95,100.0
19,G4,3.5,0.5,95,100.0
20,E4,3.5,0.5,95,100.0
21,C4,3.5,0.5,95,100.0
22,A2,3.5,0.5,95,100.0
23,A1,4.0,4.0,95,100.0
24,B4,8.0,4.0,95,100.0
25,G4,8.0,4.0,95,100.0
26,E4,8.0,4.0,95,100.0
27,C4,8.0,4.0,95,100.0
28,A2,8.0,4.0,95,100.0
29,B1,8.75,0.25,95,100.0
30,D2,9.0,0.25,95,100.0
31,B1,9.25,0.25,95,100.0
32,E2,9.75,0.25,95,100.0
33,E1,10.25,0.25,95,100.0
34,E1,10.75,0.25,95,100.0
35,G1,11.0,0.25,95,100.0
36,A1,11.5,0.5,95,100.0
37,A1,12.0,4.0,95,100.0
38,G4,12.0,1.75,95,100.0
39,E4,12.0,1.75,95,100.0
40,C4,12.0,1.75,95,100.0
41,A3,12.0,1.75,95,100.0
42,A2,12.0,1.75,95,100.0
43,A4,13.75,1.75,95,100.0
44,F#4,13.75,1.75,95,100.0
45,E4,13.75,1.75,95,100.0
46,D4,13.75,1.75,95,100.0
47,B2,13.75,1.75,95,100.0
48,B4,15.5,0.5,95,100.0
49,G4,15.5,0.5,95,100.0
50,E4,15.5,0.5,95,100.0
51,C4,15.5,0.5,95,100.0
52,A2,15.5,0.5,95,100.0
53,B1,16.75,0.25,95,100.0
54,D2,17.0,0.25,95,100.0
55,B1,17.25,0.25,95,100.0
56,E2,17.75,0.25,95,100.0
57,E1,18.25,0.25,95,100.0
58,E1,18.75,0.25,95,100.0
59,G1,19.0,0.25,95,100.0
60,A1,19.5,0.5,95,100.0
61,A1,20.0,4.0,95,100.0
62,B4,20.0,4.0,95,100.0
63,G4,20.0,4.0,95,100.0
64,E4,20.0,4.0,95,100.0
65,C4,20.0,4.0,95,100.0
66,A2,20.0,4.0,95,100.0
67,G4,24.0,1.75,95,100.0
68,E4,24.0,1.75,95,100.0
69,C4,24.0,1.75,95,100.0
70,A3,24.0,1.75,95,100.0
71,A2,24.0,1.75,95,100.0
72,B1,24.75,0.25,95,100.0
73,D2,25.0,0.25,95,100.0
74,B1,25.25,0.25,95,100.0
75,E2,25.75,0.25,95,100.0
76,A4,25.75,1.75,95,100.0
77,F#4,25.75,1.75,95,100.0
78,E4,25.75,1.75,95,100.0
79,D4,25.75,1.75,95,100.0
80,B2,25.75,1.75,95,100.0
81,E1,26.25,0.25,95,100.0
82,E1,26.75,0.25,95,100.0
83,G1,27.0,0.25,95,100.0
84,A1,27.5,0.5,95,100.0
85,B4,27.5,0.5,95,100.0
86,G4,27.5,0.5,95,100.0
87,E4,27.5,0.5,95,100.0
88,C4,27.5,0.5,95,100.0
89,A2,27.5,0.5,95,100.0
90,A1,28.0,4.0,95,100.0
91,B4,32.0,0.25,95,100.0
92,E2,32.0,0.25,95,100.0
93,B4,32.0,4.0,95,100.0
94,G4,32.0,4.0,95,100.0
95,E4,32.0,4.0,95,100.0
96,C4,32.0,4.0,95,100.0
97,A2,32.0,4.0,95,100.0
98,B4,32.0,0.25,95,100.0
99,G4,32.0,0.25,95,100.0
100,E4,32.0,0.25,95,100.0
101,G4,32.5,0.25,95,100.0
102,E4,32.75,0.25,95,100.0
103,B4,33.25,0.25,95,100.0
104,E2,33.25,0.25,95,100.0
105,B4,33.25,0.25,95,100.0
106,G4,33.25,0.25,95,100.0
107,E4,33.25,0.25,95,100.0
108,A4,33.75,0.25,95,100.0
109,B1,33.75,0.25,95,100.0
110,A4,33.75,0.25,95,100.0
111,F#4,33.75,0.25,95,100.0
112,D4,33.75,0.25,95,100.0
113,C5,34.25,0.75,95,100.0
114,G1,34.75,0.25,95,100.0
115,F#4,35.0,0.25,95,100.0
116,E1,35.0,0.25,95,100.0
117,E4,35.5,0.5,79,100.0
118,B1,35.5,0.25,95,100.0
119,E4,36.0,1.0,79,100.0
120,C2,36.0,0.25,95,100.0
121,G4,36.0,1.75,95,100.0
122,E4,36.0,1.75,95,100.0
123,C4,36.0,1.75,95,100.0
124,A3,36.0,1.75,95,100.0
125,A2,36.0,1.75,95,100.0
126,B4,36.0,0.25,84,100.0
127,C4,36.0,0.25,84,100.0
128,G3,36.0,0.25,84,100.0
129,C2,37.25,0.25,95,100.0
130,B4,37.25,0.25,84,100.0
131,C4,37.25,0.25,84,100.0
132,G3,37.25,0.25,84,100.0
133,B1,37.75,0.25,95,100.0
134,A4,37.75,1.75,95,100.0
135,F#4,37.75,1.75,95,100.0
136,E4,37.75,1.75,95,100.0
137,D4,37.75,1.75,95,100.0
138,B2,37.75,1.75,95,100.0
139,A4,37.75,1.0,95,100.0
140,D4,37.75,1.0,95,100.0
141,A3,37.75,1.0,95,100.0
142,E1,38.75,0.25,95,100.0
143,B1,39.0,0.25,95,100.0
144,E1,39.5,0.25,95,100.0
145,B4,39.5,0.5,95,100.0
146,G4,39.5,0.5,95,100.0
147,E4,39.5,0.5,95,100.0
148,C4,39.5,0.5,95,100.0
149,A2,39.5,0.5,95,100.0
150,G4,40.0,0.25,95,100.0
151,A1,40.0,0.25,95,100.0
152,B4,40.0,0.25,95,100.0
153,G4,40.0,0.25,95,100.0
154,E4,40.0,0.25,95,100.0
155,B3,40.5,0.25,95,100.0
156,C4,40.75,0.25,95,100.0
157,A4,41.25,0.25,95,100.0
158,A1,41.25,0.25,95,100.0
159,B4,41.25,0.25,95,100.0
160,G4,41.25,0.25,95,100.0
161,E4,41.25,0.25,95,100.0
162,D4,41.75,0.25,95,100.0
163,B1,41.75,0.25,95,100.0
164,A4,41.75,0.25,95,100.0
165,F#4,41.75,0.25,95,100.0
166,D4,41.75,0.25,95,100.0
167,A4,42.25,0.75,95,100.0
168,E1,42.75,0.25,95,100.0
169,F#4,43.0,0.25,95,100.0
170,B1,43.0,0.25,95,100.0
171,E4,43.5,0.5,79,100.0
172,E1,43.5,0.25,95,100.0
173,E4,44.0,1.0,79,100.0
174,C2,44.0,0.25,95,100.0
175,B4,44.0,4.0,95,100.0
176,G4,44.0,4.0,95,100.0
177,E4,44.0,4.0,95,100.0
178,C4,44.0,4.0,95,100.0
179,A2,44.0,4.0,95,100.0
180,B4,44.0,0.25,95,100.0
181,C4,44.0,0.25,95,100.0
182,G3,44.0,0.25,95,100.0
183,C2,45.25,0.25,95,100.0
184,B4,45.25,0.25,95,100.0
185,C4,45.25,0.25,95,100.0
186,G3,45.25,0.25,95,100.0
187,D2,45.75,0.25,95,100.0
188,A4,45.75,1.0,95,100.0
189,D4,45.75,1.0,95,100.0
190,A3,45.75,1.0,95,100.0
191,D2,46.75,0.25,95,100.0
192,D2,47.0,0.25,95,100.0
193,D2,47.5,0.25,95,100.0
194,E2,47.75,0.25,95,100.0
195,B4,48.0,0.25,95,100.0
196,E2,48.0,0.25,95,100.0
197,B4,48.0,0.25,95,100.0
198,G4,48.0,0.25,95,100.0
199,E4,48.0,0.25,95,100.0
200,D4,48.0,0.25,95,100.0
201,B4,48.0,0.25,95,100.0
202,G4,48.0,0.25,95,100.0
203,E4,48.0,0.25,95,100.0
204,G4,48.5,0.25,95,100.0
205,E4,48.75,0.25,95,100.0
206,B4,49.25,0.25,95,100.0
207,E2,49.25,0.25,95,100.0
208,B4,49.25,0.25,95,100.0
209,G4,49.25,0.25,95,100.0
210,E4,49.25,0.25,95,100.0
211,D4,49.25,0.25,95,100.0
212,B4,49.25,0.25,95,100.0
213,G4,49.25,0.25,95,100.0
214,E4,49.25,0.25,95,100.0
215,A4,49.75,0.25,95,100.0
216,B1,49.75,0.25,95,100.0
217,A4,49.75,1.75,95,100.0
218,F#4,49.75,1.75,95,100.0
219,D4,49.75,1.75,95,100.0
220,A3,49.75,1.75,95,100.0
221,A4,49.75,0.25,95,100.0
222,F#4,49.75,0.25,95,100.0
223,D4,49.75,0.25,95,100.0
224,C5,50.25,0.75,95,100.0
225,G1,50.75,0.25,95,100.0
226,F#4,51.0,0.25,95,100.0
227,E1,51.0,0.25,95,100.0
228,E4,51.5,0.5,79,100.0
229,B1,51.5,0.25,95,100.0
230,E4,52.0,1.0,79,100.0
231,C4,52.0,0.25,95,100.0
232,C2,52.0,0.25,95,100.0
233,B4,52.0,0.25,84,100.0
234,C4,52.0,0.25,84,100.0
235,G3,52.0,0.25,84,100.0
236,C4,53.25,0.25,95,100.0
237,C2,53.25,0.25,95,100.0
238,B4,53.25,0.25,84,100.0
239,C4,53.25,0.25,84,100.0
240,G3,53.25,0.25,84,100.0
241,B1,53.75,0.25,95,100.0
242,A4,53.75,2.25,95,100.0
243,F#4,53.75,2.25,95,100.0
244,E4,53.75,2.25,95,100.0
245,D4,53.75,2.25,95,100.0
246,A4,53.75,1.0,95,100.0
247,D4,53.75,1.0,95,100.0
248,A3,53.75,1.0,95,100.0
249,E1,54.75,0.25,95,100.0
250,B1,55.0,0.25,95,100.0
251,E1,55.5,0.25,95,100.0
252,G4,56.0,0.25,95,100.0
253,A1,56.0,0.25,95,100.0
254,G4,56.0,0.25,95,100.0
255,E4,56.0,0.25,95,100.0
256,C4,56.0,0.25,95,100.0
257,B4,56.0,0.25,95,100.0
258,G4,56.0,0.25,95,100.0
259,E4,56.0,0.25,95,100.0
260,B3,56.5,0.25,95,100.0
261,C4,56.75,0.25,95,100.0
262,A4,57.25,0.25,95,100.0
263,A1,57.25,0.25,95,100.0
264,G4,57.25,0.25,95,100.0
265,E4,57.25,0.25,95,100.0
266,C4,57.25,0.25,95,100.0
267,B4,57.25,0.25,95,100.0
268,G4,57.25,0.25,95,100.0
269,E4,57.25,0.25,95,100.0
270,D4,57.75,0.25,95,100.0
271,B1,57.75,0.25,95,100.0
272,A4,57.75,1.75,95,100.0
273,F#4,57.75,1.75,95,100.0
274,D4,57.75,1.75,95,100.0
275,A4,57.75,0.25,95,100.0
276,F#4,57.75,0.25,95,100.0
277,D4,57.75,0.25,95,100.0
278,A4,58.25,0.75,95,100.0
279,E1,58.75,0.25,95,100.0
280,F#4,59.0,0.25,95,100.0
281,B1,59.0,0.25,95,100.0
282,E4,59.5,0.5,79,100.0
283,E1,59.5,0.25,95,100.0
284,E4,60.0,1.0,79,100.0
285,C4,60.0,0.25,95,100.0
286,C2,60.0,0.25,95,100.0
287,B4,60.0,0.25,95,100.0
288,C4,60.0,0.25,95,100.0
289,G3,60.0,0.25,95,100.0
290,C4,61.25,0.25,95,100.0
291,C2,61.25,0.25,95,100.0
292,B4,61.25,0.25,95,100.0
293,C4,61.25,0.25,95,100.0
294,G3,61.25,0.25,95,100.0
295,C2,61.75,0.25,95,100.0
296,A4,61.75,2.25,95,100.0
297,F#4,61.75,2.25,95,100.0
298,E4,61.75,2.25,95,100.0
299,D4,61.75,2.25,95,100.0
300,B4,61.75,1.0,95,100.0
301,C4,61.75,1.0,95,100.0
302,G3,61.75,1.0,95,100.0
303,C2,62.75,0.25,95,100.0
304,C2,63.0,1.0,95,100.0
305,A1,64.0,0.25,95,100.0
306,B4,64.0,0.25,95,100.0
307,G4,64.0,0.25,95,100.0
308,E4,64.0,0.25,95,100.0
309,D4,64.0,0.25,95,100.0
310,E4,64.0,0.25,95,100.0
311,C4,64.0,0.25,95,100.0
312,G3,64.0,0.25,95,100.0
313,C4,64.75,0.25,63,100.0
314,G4,65.0,0.25,79,100.0
315,A4,65.25,0.25,95,100.0
316,A1,65.25,0.25,95,100.0
317,B4,65.25,0.25,95,100.0
318,G4,65.25,0.25,95,100.0
319,E4,65.25,0.25,95,100.0
320,D4,65.25,0.25,95,100.0
321,E4,65.25,0.25,95,100.0
322,C4,65.25,0.25,95,100.0
323,G3,65.25,0.25,95,100.0
324,B4,65.5,0.25,95,100.0
325,A4,65.75,0.25,95,100.0
326,B1,65.75,0.25,95,100.0
327,A4,65.75,1.75,95,100.0
328,F#4,65.75,1.75,95,100.0
329,D4,65.75,1.75,95,100.0
330,A3,65.75,1.75,95,100.0
331,F#4,65.75,0.25,95,100.0
332,D4,65.75,0.25,95,100.0
333,A3,65.75,0.25,95,100.0
334,B4,67.0,0.25,95,100.0
335,C5,67.25,0.25,95,100.0
336,D5,67.5,0.25,95,100.0
337,D5,67.75,0.25,95,100.0
338,A1,67.75,0.25,95,100.0
339,G4,67.75,0.25,95,100.0
340,D4,67.75,0.25,95,100.0
341,C4,68.0,0.25,95,100.0
342,D5,68.0,0.5,95,100.0
343,A1,68.0,0.5,95,100.0
344,G4,68.0,0.5,95,100.0
345,D4,68.0,0.5,95,100.0
346,E5,68.5,0.5,95,100.0
347,B1,68.5,0.25,95,100.0
348,A4,68.5,0.25,95,100.0
349,F#4,68.5,0.25,95,100.0
350,D4,68.5,0.25,95,100.0
351,B-4,69.0,0.125,95,100.0
352,C2,69.0,0.25,95,100.0
353,G4,69.0,0.25,95,100.0
354,E4,69.0,0.25,95,100.0
355,C4,69.0,0.25,95,100.0
356,A4,69.125,0.125,95,100.0
357,C4,69.25,0.25,95,100.0
358,G4,69.25,0.125,95,100.0
359,E4,69.375,0.25,95,100.0
360,A4,69.75,2.25,95,100.0
361,F#4,69.75,2.25,95,100.0
362,E4,69.75,2.25,95,100.0
363,D4,69.75,2.25,95,100.0
364,G4,70.0,0.25,95,100.0
365,B1,70.0,1.0,95,100.0
366,A4,70.0,0.375,95,100.0
367,F#4,70.0,0.375,95,100.0
368,D4,70.0,0.375,95,100.0
369,G#4,71.0,0.75,95,100.0
370,B-1,71.0,0.75,95,100.0
371,G#4,71.0,0.75,95,100.0
372,F4,71.0,0.75,95,100.0
373,C#4,71.0,0.75,95,100.0
374,G4,71.75,0.25,95,100.0
375,A1,71.75,0.25,95,100.0
376,G4,71.75,0.25,95,100.0
377,E4,71.75,0.25,95,100.0
378,C4,71.75,0.25,95,100.0
379,G4,72.0,0.25,95,100.0
380,E4,72.0,0.25,95,100.0
381,C4,72.0,0.25,95,100.0
382,C4,72.75,0.25,63,100.0
383,G4,73.0,0.25,79,100.0
384,A4,73.25,0.25,95,100.0
385,A1,73.25,0.25,95,100.0
386,G4,73.25,0.25,95,100.0
387,E4,73.25,0.25,95,100.0
388,C4,73.25,0.25,95,100.0
389,G4,73.25,0.25,95,100.0
390,E4,73.25,0.25,95,100.0
391,C4,73.25,0.25,95,100.0
392,B4,73.5,0.25,95,100.0
393,A4,73.75,0.75,95,100.0
394,B1,73.75,0.25,95,100.0
395,A4,73.75,1.75,95,100.0
396,F#4,73.75,1.75,95,100.0
397,D4,73.75,1.75,95,100.0
398,A4,73.75,0.25,95,100.0
399,F#4,73.75,0.25,95,100.0
400,D4,73.75,0.25,95,100.0
401,G4,74.5,0.25,95,100.0
402,G4,75.0,0.5,95,100.0
403,A4,75.5,0.5,95,100.0
404,E1,75.75,0.25,95,100.0
405,G4,76.0,4.0,63,100.0
406,E4,76.0,0.75,95,100.0
407,E1,76.0,0.5,95,100.0
408,G4,76.0,0.25,95,100.0
409,E4,76.0,0.25,95,100.0
410,C4,76.0,0.25,95,100.0
411,B4,76.083,3917/1000,63,100.0
412,D5,76.167,3833/1000,63,100.0
413,F#5,76.25,3.75,63,100.0
414,D4,76.75,2.0,95,100.0
415,E1,77.25,0.25,95,100.0
416,G4,77.25,0.25,95,100.0
417,E4,77.25,0.25,95,100.0
418,C4,77.25,0.25,95,100.0
419,E1,77.75,2.0,95,100.0
420,G4,77.75,2.25,95,100.0
421,E4,77.75,2.25,95,100.0
422,C4,77.75,2.25,95,100.0
423,E4,78.5,0.25,111,100.0
424,E4,78.75,0.25,111,100.0
425,G4,79.0,0.25,111,100.0
426,G4,79.25,0.25,111,100.0
427,F#4,79.5,0.25,111,100.0
428,A1,80.0,0.25,95,100.0
429,E4,80.0,0.25,95,100.0
430,C4,80.0,0.25,95,100.0
431,G3,80.0,0.25,95,100.0
432,C4,80.75,0.25,63,100.0
433,G4,81.0,0.25,79,100.0
434,A4,81.25,0.25,95,100.0
435,A1,81.25,0.25,95,100.0
436,E4,81.25,0.25,95,100.0
437,C4,81.25,0.25,95,100.0
438,G3,81.25,0.25,95,100.0
439,B4,81.5,0.25,95,100.0
440,A4,81.75,0.25,95,100.0
441,B1,81.75,0.25,95,100.0
442,F#4,81.75,0.25,95,100.0
443,D4,81.75,0.25,95,100.0
444,A3,81.75,0.25,95,100.0
445,D4,82.75,0.25,95,100.0
446,B4,83.0,0.25,95,100.0
447,C5,83.25,0.25,95,100.0
448,D5,83.5,0.25,95,100.0
449,D5,83.75,0.25,95,100.0
450,C2,83.75,0.25,95,100.0
451,G4,83.75,0.25,95,100.0
452,E-4,83.75,0.25,95,100.0
453,B-3,83.75,0.25,95,100.0
454,D5,84.0,0.5,95,100.0
455,C2,84.0,0.5,95,100.0
456,G4,84.0,0.5,95,100.0
457,E-4,84.0,0.5,95,100.0
458,B-3,84.0,0.5,95,100.0
459,C5,84.5,0.25,95,100.0
460,D2,84.5,0.25,95,100.0
461,F4,84.5,0.25,95,100.0
462,E-4,84.5,0.25,95,100.0
463,B-3,84.5,0.25,95,100.0
464,B-4,85.0,0.25,95,100.0
465,C2,85.0,0.25,95,100.0
466,G4,85.0,0.25,95,100.0
467,E-4,85.0,0.25,95,100.0
468,B-3,85.0,0.25,95,100.0
469,C5,85.5,0.25,95,100.0
470,C5,86.0,0.25,95,100.0
471,D2,86.0,1.0,95,100.0
472,A4,86.0,0.25,95,100.0
473,F4,86.0,0.25,95,100.0
474,C4,86.0,0.25,95,100.0
475,B-4,87.0,0.75,95,100.0
476,D2,87.0,0.75,95,100.0
477,A4,87.0,0.75,95,100.0
478,F4,87.0,0.75,95,100.0
479,C4,87.0,0.75,95,100.0
480,B-4,87.75,0.25,95,100.0
481,C2,87.75,0.25,95,100.0
482,G4,87.75,0.25,95,100.0
483,E-4,87.75,0.25,95,100.0
484,B-3,87.75,0.25,95,100.0
485,B-4,89.25,0.25,95,100.0
486,C2,89.25,0.25,95,100.0
487,G4,89.25,0.25,95,100.0
488,E-4,89.25,0.25,95,100.0
489,B-3,89.25,0.25,95,100.0
490,C5,89.75,0.25,95,100.0
491,D2,89.75,0.25,95,100.0
492,A4,89.75,0.25,95,100.0
493,F4,89.75,0.25,95,100.0
494,C4,89.75,0.25,95,100.0
495,C5,91.5,0.125,95,100.0
496,B4,91.625,0.125,95,100.0
497,B-4,91.75,0.125,95,100.0
498,A1,91.75,0.25,95,100.0
499,A4,91.875,0.125,95,100.0
500,A4,92.0,2.0,95,100.0
501,A1,92.0,0.5,95,100.0
502,A4,92.0,4.0,95,100.0
503,F#4,92.0,4.0,95,100.0
504,E4,92.0,4.0,95,100.0
505,D4,92.0,4.0,95,100.0
506,G4,92.0,0.25,95,100.0
507,E4,92.0,0.25,95,100.0
508,C#4,92.0,0.25,95,100.0
509,G4,92.5,0.25,95,100.0
510,E4,92.5,0.25,95,100.0
511,C#4,92.5,0.25,95,100.0
512,A1,93.25,0.25,95,100.0
513,G4,93.25,0.25,95,100.0
514,E4,93.25,0.25,95,100.0
515,C#4,93.25,0.25,95,100.0
516,A1,93.75,2.0,95,100.0
517,G4,93.75,2.0,95,100.0
518,E4,93.75,2.0,95,100.0
519,C#4,93.75,2.0,95,100.0
520,B4,96.0,0.25,95,100.0
521,E2,96.0,0.25,95,100.0
522,B4,96.0,0.25,95,100.0
523,G4,96.0,0.25,95,100.0
524,E4,96.0,0.25,95,100.0
525,G4,96.5,0.25,95,100.0
526,E4,96.75,0.25,95,100.0
527,B4,97.25,0.25,95,100.0
528,E2,97.25,0.25,95,100.0
529,B4,97.25,0.25,95,100.0
530,G4,97.25,0.25,95,100.0
531,E4,97.25,0.25,95,100.0
532,A4,97.75,0.25,95,100.0
533,B1,97.75,0.25,95,100.0
534,A4,97.75,0.25,95,100.0
535,F#4,97.75,0.25,95,100.0
536,D4,97.75,0.25,95,100.0
537,C5,98.25,0.75,95,100.0
538,G1,98.75,0.25,95,100.0
539,F#4,99.0,0.25,95,100.0
540,E1,99.0,0.25,95,100.0
541,E4,99.5,0.5,79,100.0
542,B1,99.5,0.25,95,100.0
543,E4,100.0,1.0,79,100.0
544,B4,100.0,0.25,95,100.0
545,C2,100.0,0.25,95,100.0
546,B4,100.0,0.25,84,100.0
547,C4,100.0,0.25,84,100.0
548,G3,100.0,0.25,84,100.0
549,G4,100.5,0.25,95,100.0
550,E4,100.75,0.25,95,100.0
551,B4,101.25,0.25,95,100.0
552,C2,101.25,0.25,95,100.0
553,B4,101.25,0.25,84,100.0
554,C4,101.25,0.25,84,100.0
555,G3,101.25,0.25,84,100.0
556,A4,101.75,0.25,95,100.0
557,B1,101.75,0.25,95,100.0
558,A4,101.75,1.0,95,100.0
559,D4,101.75,1.0,95,100.0
560,A3,101.75,1.0,95,100.0
561,A4,102.25,0.25,95,100.0
562,D4,102.5,0.25,63,100.0
563,A3,102.75,0.25,63,100.0
564,E1,102.75,0.25,95,100.0
565,D4,103.0,0.5,79,100.0
566,B1,103.0,0.25,95,100.0
567,E4,103.5,0.25,95,100.0
568,E1,103.5,0.25,95,100.0
569,G4,104.0,0.25,95,100.0
570,A1,104.0,0.25,95,100.0
571,B4,104.0,0.25,95,100.0
572,G4,104.0,0.25,95,100.0
573,E4,104.0,0.25,95,100.0
574,B3,104.5,0.25,95,100.0
575,C4,104.75,0.25,95,100.0
576,A4,105.25,0.25,95,100.0
577,A1,105.25,0.25,95,100.0
578,B4,105.25,0.25,95,100.0
579,G4,105.25,0.25,95,100.0
580,E4,105.25,0.25,95,100.0
581,D4,105.75,0.25,95,100.0
582,B1,105.75,0.25,95,100.0
583,A4,105.75,0.25,95,100.0
584,F#4,105.75,0.25,95,100.0
585,D4,105.75,0.25,95,100.0
586,A4,106.25,0.75,95,100.0
587,E1,106.75,0.25,95,100.0
588,F#4,107.0,0.25,95,100.0
589,B1,107.0,0.25,95,100.0
590,E4,107.5,0.5,79,100.0
591,E1,107.5,0.25,95,100.0
592,E4,108.0,1.0,79,100.0
593,B4,108.0,0.25,95,100.0
594,C2,108.0,0.25,95,100.0
595,A4,108.0,0.25,95,100.0
596,E4,108.0,0.25,95,100.0
597,C#4,108.0,0.25,95,100.0
598,B4,108.0,0.25,95,100.0
599,C4,108.0,0.25,95,100.0
600,G3,108.0,0.25,95,100.0
601,G4,108.5,0.25,95,100.0
602,A4,108.5,0.25,95,100.0
603,E4,108.5,0.25,95,100.0
604,C#4,108.5,0.25,95,100.0
605,A4,108.75,0.25,95,100.0
606,E5,109.25,0.25,95,100.0
607,C2,109.25,0.25,95,100.0
608,A4,109.25,0.25,95,100.0
609,E4,109.25,0.25,95,100.0
610,C#4,109.25,0.25,95,100.0
611,B4,109.25,0.25,95,100.0
612,C4,109.25,0.25,95,100.0
613,G3,109.25,0.25,95,100.0
614,D5,109.75,0.25,95,100.0
615,D2,109.75,0.25,95,100.0
616,A4,109.75,2.0,95,100.0
617,E4,109.75,2.0,95,100.0
618,C#4,109.75,2.0,95,100.0
619,A4,109.75,1.0,95,100.0
620,D4,109.75,1.0,95,100.0
621,A3,109.75,1.0,95,100.0
622,A4,110.25,0.25,95,100.0
623,D2,110.75,0.25,95,100.0
624,A4,111.0,0.5,95,100.0
625,D2,111.0,0.25,95,100.0
626,B4,111.5,0.25,95,100.0
627,D2,111.5,0.25,95,100.0
628,E2,111.75,0.25,95,100.0
629,B4,112.0,0.25,95,100.0
630,E2,112.0,0.25,95,100.0
631,B4,112.0,0.25,95,100.0
632,G4,112.0,0.25,95,100.0
633,E4,112.0,0.25,95,100.0
634,D4,112.0,0.25,95,100.0
635,B4,112.0,0.25,95,100.0
636,G4,112.0,0.25,95,100.0
637,E4,112.0,0.25,95,100.0
638,G4,112.5,0.25,95,100.0
639,E4,112.75,0.25,95,100.0
640,B4,113.25,0.25,95,100.0
641,E2,113.25,0.25,95,100.0
642,B4,113.25,0.25,95,100.0
643,G4,113.25,0.25,95,100.0
644,E4,113.25,0.25,95,100.0
645,D4,113.25,0.25,95,100.0
646,B4,113.25,0.25,95,100.0
647,G4,113.25,0.25,95,100.0
648,E4,113.25,0.25,95,100.0
649,A4,113.75,0.25,95,100.0
650,B1,113.75,0.25,95,100.0
651,A4,113.75,1.75,95,100.0
652,F#4,113.75,1.75,95,100.0
653,D4,113.75,1.75,95,100.0
654,A3,113.75,1.75,95,100.0
655,A4,113.75,0.25,95,100.0
656,F#4,113.75,0.25,95,100.0
657,D4,113.75,0.25,95,100.0
658,C5,114.25,0.75,95,100.0
659,G1,114.75,0.25,95,100.0
660,F#4,115.0,0.25,95,100.0
661,E1,115.0,0.25,95,100.0
662,E4,115.5,0.5,79,100.0
663,B1,115.5,0.25,95,100.0
664,E4,116.0,1.0,79,100.0
665,C4,116.0,0.25,95,100.0
666,B4,116.0,0.25,95,100.0
667,C2,116.0,0.25,95,100.0
668,B4,116.0,0.25,84,100.0
669,C4,116.0,0.25,84,100.0
670,G3,116.0,0.25,84,100.0
671,G4,116.5,0.25,95,100.0
672,E4,116.75,0.25,95,100.0
673,C4,117.25,0.25,95,100.0
674,B4,117.25,0.25,95,100.0
675,C2,117.25,0.25,95,100.0
676,B4,117.25,0.25,84,100.0
677,C4,117.25,0.25,84,100.0
678,G3,117.25,0.25,84,100.0
679,A4,117.75,0.25,95,100.0
680,B1,117.75,0.25,95,100.0
681,A4,117.75,2.25,95,100.0
682,F#4,117.75,2.25,95,100.0
683,E4,117.75,2.25,95,100.0
684,D4,117.75,2.25,95,100.0
685,A4,117.75,1.0,95,100.0
686,D4,117.75,1.0,95,100.0
687,A3,117.75,1.0,95,100.0
688,A4,118.25,0.25,95,100.0
689,D4,118.5,0.25,63,100.0
690,A3,118.75,0.25,63,100.0
691,E1,118.75,0.25,95,100.0
692,D4,119.0,0.5,79,100.0
693,B1,119.0,0.25,95,100.0
694,E4,119.5,0.25,95,100.0
695,E1,119.5,0.25,95,100.0
696,G4,120.0,0.25,95,100.0
697,A1,120.0,0.25,95,100.0
698,G4,120.0,0.25,95,100.0
699,E4,120.0,0.25,95,100.0
700,C4,120.0,0.25,95,100.0
701,B4,120.0,0.25,95,100.0
702,G4,120.0,0.25,95,100.0
703,E4,120.0,0.25,95,100.0
704,B3,120.5,0.25,95,100.0
705,C4,120.75,0.25,95,100.0
706,A4,121.25,0.25,95,100.0
707,A1,121.25,0.25,95,100.0
708,G4,121.25,0.25,95,100.0
709,E4,121.25,0.25,95,100.0
710,C4,121.25,0.25,95,100.0
711,B4,121.25,0.25,95,100.0
712,G4,121.25,0.25,95,100.0
713,E4,121.25,0.25,95,100.0
714,D4,121.75,0.25,95,100.0
715,B1,121.75,0.25,95,100.0
716,A4,121.75,1.75,95,100.0
717,F#4,121.75,1.75,95,100.0
718,D4,121.75,1.75,95,100.0
719,A4,121.75,0.25,95,100.0
720,F#4,121.75,0.25,95,100.0
721,D4,121.75,0.25,95,100.0
722,A4,122.25,0.75,95,100.0
723,E1,122.75,0.25,95,100.0
724,F#4,123.0,0.25,95,100.0
725,B1,123.0,0.25,95,100.0
726,E4,123.5,0.5,79,100.0
727,E1,123.5,0.25,95,100.0
728,E4,124.0,1.0,79,100.0
729,C4,124.0,0.25,95,100.0
730,B4,124.0,0.25,95,100.0
731,C2,124.0,0.25,95,100.0
732,B4,124.0,0.25,95,100.0
733,C4,124.0,0.25,95,100.0
734,G3,124.0,0.25,95,100.0
735,G4,124.5,0.25,95,100.0
736,A4,124.75,0.25,95,100.0
737,C4,125.25,0.25,95,100.0
738,E5,125.25,0.25,95,100.0
739,C2,125.25,0.25,95,100.0
740,B4,125.25,0.25,95,100.0
741,C4,125.25,0.25,95,100.0
742,G3,125.25,0.25,95,100.0
743,D5,125.75,2.0,95,100.0
744,C2,125.75,0.25,95,100.0
745,A4,125.75,2.25,95,100.0
746,F#4,125.75,2.25,95,100.0
747,E4,125.75,2.25,95,100.0
748,D4,125.75,2.25,95,100.0
749,B4,125.75,1.0,95,100.0
750,C4,125.75,1.0,95,100.0
751,G3,125.75,1.0,95,100.0
752,C2,126.75,0.25,95,100.0
753,C2,127.0,1.0,95,100.0
754,A1,128.0,0.25,95,100.0
755,B4,128.0,0.25,95,100.0
756,G4,128.0,0.25,95,100.0
757,E4,128.0,0.25,95,100.0
758,D4,128.0,0.25,95,100.0
759,E4,128.0,0.25,95,100.0
760,C4,128.0,0.25,95,100.0
761,G3,128.0,0.25,95,100.0
762,C4,128.75,0.25,63,100.0
763,G4,129.0,0.25,79,100.0
764,A4,129.25,0.25,95,100.0
765,A1,129.25,0.25,95,100.0
766,B4,129.25,0.25,95,100.0
767,G4,129.25,0.25,95,100.0
768,E4,129.25,0.25,95,100.0
769,D4,129.25,0.25,95,100.0
770,E4,129.25,0.25,95,100.0
771,C4,129.25,0.25,95,100.0
772,G3,129.25,0.25,95,100.0
773,B4,129.5,0.25,95,100.0
774,A4,129.75,0.25,95,100.0
775,B1,129.75,0.25,95,100.0
776,A4,129.75,1.75,95,100.0
777,F#4,129.75,1.75,95,100.0
778,D4,129.75,1.75,95,100.0
779,A3,129.75,1.75,95,100.0
780,F#4,129.75,0.25,95,100.0
781,D4,129.75,0.25,95,100.0
782,A3,129.75,0.25,95,100.0
783,B4,131.0,0.25,95,100.0
784,C5,131.25,0.25,95,100.0
785,D5,131.5,0.25,95,100.0
786,D5,131.75,0.25,95,100.0
787,A1,131.75,0.25,95,100.0
788,G4,131.75,0.25,95,100.0
789,D4,131.75,0.25,95,100.0
790,C4,132.0,0.25,95,100.0
791,D5,132.0,0.5,95,100.0
792,A1,132.0,0.5,95,100.0
793,G4,132.0,0.5,95,100.0
794,D4,132.0,0.5,95,100.0
795,E5,132.5,0.5,95,100.0
796,B1,132.5,0.25,95,100.0
797,A4,132.5,0.25,95,100.0
798,F#4,132.5,0.25,95,100.0
799,D4,132.5,0.25,95,100.0
800,B-4,133.0,0.125,95,100.0
801,C2,133.0,0.25,95,100.0
802,G4,133.0,0.25,95,100.0
803,E4,133.0,0.25,95,100.0
804,C4,133.0,0.25,95,100.0
805,A4,133.125,0.125,95,100.0
806,C4,133.25,0.25,95,100.0
807,G4,133.25,0.125,95,100.0
808,E4,133.375,0.25,95,100.0
809,A4,133.75,2.25,95,100.0
810,F#4,133.75,2.25,95,100.0
811,E4,133.75,2.25,95,100.0
812,D4,133.75,2.25,95,100.0
813,G4,134.0,0.25,95,100.0
814,B1,134.0,1.0,95,100.0
815,A4,134.0,0.375,95,100.0
816,F#4,134.0,0.375,95,100.0
817,D4,134.0,0.375,95,100.0
818,G#4,135.0,0.75,95,100.0
819,B-1,135.0,0.75,95,100.0
820,G#4,135.0,0.75,95,100.0
821,F4,135.0,0.75,95,100.0
822,C#4,135.0,0.75,95,100.0
823,G4,135.75,0.25,95,100.0
824,A1,135.75,0.25,95,100.0
825,G4,135.75,0.25,95,100.0
826,E4,135.75,0.25,95,100.0
827,C4,135.75,0.25,95,100.0
828,G4,136.0,0.25,95,100.0
829,E4,136.0,0.25,95,100.0
830,C4,136.0,0.25,95,100.0
831,C4,136.75,0.25,63,100.0
832,G4,137.0,0.25,79,100.0
833,A4,137.25,0.25,95,100.0
834,A1,137.25,0.25,95,100.0
835,G4,137.25,0.25,95,100.0
836,E4,137.25,0.25,95,100.0
837,C4,137.25,0.25,95,100.0
838,G4,137.25,0.25,95,100.0
839,E4,137.25,0.25,95,100.0
840,C4,137.25,0.25,95,100.0
841,B4,137.5,0.25,95,100.0
842,A4,137.75,0.75,95,100.0
843,B1,137.75,0.25,95,100.0
844,A4,137.75,1.75,95,100.0
845,F#4,137.75,1.75,95,100.0
846,D4,137.75,1.75,95,100.0
847,A4,137.75,0.25,95,100.0
848,F#4,137.75,0.25,95,100.0
849,D4,137.75,0.25,95,100.0
850,G4,138.5,0.25,95,100.0
851,G4,139.0,0.5,95,100.0
852,A4,139.5,0.5,95,100.0
853,E1,139.75,0.25,95,100.0
854,G4,140.0,4.0,63,100.0
855,E4,140.0,0.75,95,100.0
856,E1,140.0,0.5,95,100.0
857,G4,140.0,0.25,95,100.0
858,E4,140.0,0.25,95,100.0
859,C4,140.0,0.25,95,100.0
860,B4,140.083,3917/1000,63,100.0
861,D5,140.167,3833/1000,63,100.0
862,F#5,140.25,3.75,63,100.0
863,D4,140.75,2.0,95,100.0
864,E1,141.25,0.25,95,100.0
865,G4,141.25,0.25,95,100.0
866,E4,141.25,0.25,95,100.0
867,C4,141.25,0.25,95,100.0
868,E1,141.75,2.0,95,100.0
869,G4,141.75,2.25,95,100.0
870,E4,141.75,2.25,95,100.0
871,C4,141.75,2.25,95,100.0
872,B3,142.25,0.25,111,100.0
873,E4,142.75,0.25,111,100.0
874,G4,143.0,0.25,111,100.0
875,A4,143.25,0.25,111,100.0
876,F#4,143.5,0.25,111,100.0
877,A1,144.0,0.25,95,100.0
878,E4,144.0,0.25,95,100.0
879,C4,144.0,0.25,95,100.0
880,G3,144.0,0.25,95,100.0
881,C4,144.75,0.25,63,100.0
882,G4,145.0,0.25,79,100.0
883,A4,145.25,0.25,95,100.0
884,A1,145.25,0.25,95,100.0
885,E4,145.25,0.25,95,100.0
886,C4,145.25,0.25,95,100.0
887,G3,145.25,0.25,95,100.0
888,B4,145.5,0.25,95,100.0
889,A4,145.75,0.25,95,100.0
890,B1,145.75,0.25,95,100.0
891,F#4,145.75,0.25,95,100.0
892,D4,145.75,0.25,95,100.0
893,A3,145.75,0.25,95,100.0
894,D4,146.75,0.25,95,100.0
895,B4,147.0,0.25,95,100.0
896,C5,147.25,0.25,95,100.0
897,D5,147.5,0.25,95,100.0
898,D5,147.75,0.25,95,100.0
899,C2,147.75,0.25,95,100.0
900,G4,147.75,0.25,95,100.0
901,E-4,147.75,0.25,95,100.0
902,B-3,147.75,0.25,95,100.0
903,D5,148.0,0.5,95,100.0
904,C2,148.0,0.5,95,100.0
905,G4,148.0,0.5,95,100.0
906,E-4,148.0,0.5,95,100.0
907,B-3,148.0,0.5,95,100.0
908,C5,148.5,0.25,95,100.0
909,D2,148.5,0.25,95,100.0
910,F4,148.5,0.25,95,100.0
911,E-4,148.5,0.25,95,100.0
912,B-3,148.5,0.25,95,100.0
913,B-4,149.0,0.25,95,100.0
914,C2,149.0,0.25,95,100.0
915,G4,149.0,0.25,95,100.0
916,E-4,149.0,0.25,95,100.0
917,B-3,149.0,0.25,95,100.0
918,C5,149.5,0.25,95,100.0
919,C5,150.0,0.25,95,100.0
920,D2,150.0,1.0,95,100.0
921,A4,150.0,0.25,95,100.0
922,F4,150.0,0.25,95,100.0
923,C4,150.0,0.25,95,100.0
924,B-4,151.0,0.75,95,100.0
925,D2,151.0,0.75,95,100.0
926,A4,151.0,0.75,95,100.0
927,F4,151.0,0.75,95,100.0
928,C4,151.0,0.75,95,100.0
929,B-4,151.75,0.25,95,100.0
930,C2,151.75,0.25,95,100.0
931,G4,151.75,0.25,95,100.0
932,E-4,151.75,0.25,95,100.0
933,B-3,151.75,0.25,95,100.0
934,B-4,153.25,0.25,95,100.0
935,C2,153.25,0.25,95,100.0
936,G4,153.25,0.25,95,100.0
937,E-4,153.25,0.25,95,100.0
938,B-3,153.25,0.25,95,100.0
939,C5,153.75,0.25,95,100.0
940,D2,153.75,0.25,95,100.0
941,A4,153.75,0.25,95,100.0
942,F4,153.75,0.25,95,100.0
943,C4,153.75,0.25,95,100.0
944,C5,155.5,0.125,95,100.0
945,B4,155.625,0.125,95,100.0
946,B-4,155.75,0.125,95,100.0
947,A1,155.75,0.25,95,100.0
948,A4,155.875,0.125,95,100.0
949,A4,156.0,2.0,95,100.0
950,A1,156.0,0.5,95,100.0
951,A4,156.0,4.0,95,100.0
952,F#4,156.0,4.0,95,100.0
953,E4,156.0,4.0,95,100.0
954,D4,156.0,4.0,95,100.0
955,G4,156.0,0.25,95,100.0
956,E4,156.0,0.25,95,100.0
957,C#4,156.0,0.25,95,100.0
958,G4,156.5,0.25,95,100.0
959,E4,156.5,0.25,95,100.0
960,C#4,156.5,0.25,95,100.0
961,A1,157.25,0.25,95,100.0
962,G4,157.25,0.25,95,100.0
963,E4,157.25,0.25,95,100.0
964,C#4,157.25,0.25,95,100.0
965,A1,157.75,2.0,95,100.0
966,G4,157.75,2.0,95,100.0
967,E4,157.75,2.0,95,100.0
968,C#4,157.75,2.0,95,100.0
969,A4,159.75,0.125,95,100.0
970,G3,159.75,0.125,95,100.0
971,G4,159.875,0.125,95,100.0
972,E3,159.875,0.125,95,100.0
973,B3,160.0,0.5,95,100.0
974,A4,160.0,0.25,95,100.0
975,E1,160.0,0.5,95,100.0
976,G4,160.0,0.25,95,100.0
977,E4,160.0,0.25,95,100.0
978,B3,160.0,0.25,95,100.0
979,C5,160.5,0.25,95,100.0
980,B3,160.75,0.25,95,100.0
981,B4,160.75,0.25,95,100.0
982,C4,161.25,0.25,95,100.0
983,C5,161.25,0.25,95,100.0
984,E1,161.25,0.25,95,100.0
985,G4,161.25,0.25,95,100.0
986,E4,161.25,0.25,95,100.0
987,B3,161.25,0.25,95,100.0
988,B3,161.75,0.5,95,100.0
989,A4,161.75,1.0,95,100.0
990,E1,161.75,0.75,95,100.0
991,G4,161.75,2.0,95,100.0
992,E4,161.75,2.0,95,100.0
993,B3,161.75,2.0,95,100.0
994,E3,162.5,0.5,79,100.0
995,E1,162.75,0.25,63,100.0
996,G3,163.0,0.25,79,100.0
997,E1,163.0,0.5,95,100.0
998,E3,163.5,0.25,79,100.0
999,E4,163.5,0.25,95,100.0
1000,E1,163.5,0.25,79,100.0
1001,B3,164.0,0.5,95,100.0
1002,B4,164.0,0.25,95,100.0
1003,C#2,164.0,0.5,95,100.0
1004,G4,164.0,0.25,95,100.0
1005,E4,164.0,0.25,95,100.0
1006,A3,164.0,0.25,95,100.0
1007,C5,164.5,0.25,95,100.0
1008,B3,164.75,0.25,95,100.0
1009,B4,164.75,0.25,95,100.0
1010,B3,165.25,0.25,95,100.0
1011,C5,165.25,0.25,95,100.0
1012,C#2,165.25,0.25,95,100.0
1013,G4,165.25,0.25,95,100.0
1014,E4,165.25,0.25,95,100.0
1015,A3,165.25,0.25,95,100.0
1016,D4,165.75,0.25,95,100.0
1017,A4,165.75,0.75,95,100.0
1018,C#2,165.75,0.75,95,100.0
1019,G4,165.75,2.0,95,100.0
1020,E4,165.75,2.0,95,100.0
1021,A3,165.75,2.0,95,100.0
1022,D4,166.25,0.25,95,100.0
1023,C4,166.5,0.25,95,100.0
1024,A4,166.5,0.25,95,100.0
1025,C#2,166.75,0.25,95,100.0
1026,B3,167.0,0.25,95,100.0
1027,G4,167.0,0.25,95,100.0
1028,C#2,167.0,0.5,95,100.0
1029,C4,167.5,0.25,95,100.0
1030,A4,167.5,0.25,95,100.0
1031,C#2,167.5,0.25,95,100.0
1032,B3,168.0,0.75,95,100.0
1033,A4,168.0,0.75,95,100.0
1034,C2,168.0,0.5,95,100.0
1035,G4,168.0,0.25,95,100.0
1036,E4,168.0,0.25,95,100.0
1037,B3,168.0,0.25,95,100.0
1038,B3,168.75,0.25,95,100.0
1039,E4,168.75,2.0,95,100.0
1040,A3,169.25,0.25,95,100.0
1041,C2,169.25,0.25,95,100.0
1042,G4,169.25,0.25,95,100.0
1043,E4,169.25,0.25,95,100.0
1044,B3,169.25,0.25,95,100.0
1045,G3,169.75,2.0,95,100.0
1046,C2,169.75,0.75,95,100.0
1047,G4,169.75,2.0,95,100.0
1048,E4,169.75,2.0,95,100.0
1049,B3,169.75,2.0,95,100.0
1050,G1,170.75,0.25,63,100.0
1051,G1,171.0,0.5,95,100.0
1052,E1,171.5,0.25,95,100.0
1053,C2,171.75,0.25,95,100.0
1054,G4,172.0,0.75,95,100.0
1055,A4,172.0,1.0,63,100.0
1056,C2,172.0,1.0,95,100.0
1057,A4,172.0,0.25,95,100.0
1058,E4,172.0,0.25,95,100.0
1059,C#4,172.0,0.25,95,100.0
1060,G4,172.0,1.0,95,100.0
1061,E4,172.0,1.0,95,100.0
1062,B3,172.0,1.0,95,100.0
1063,A4,172.5,0.25,95,100.0
1064,E4,172.5,0.25,95,100.0
1065,C#4,172.5,0.25,95,100.0
1066,G4,172.75,2.0,95,100.0
1067,E4,173.25,0.25,95,100.0
1068,G1,173.25,0.25,63,100.0
1069,A4,173.25,0.25,95,100.0
1070,E4,173.25,0.25,95,100.0
1071,C#4,173.25,0.25,95,100.0
1072,G4,173.25,0.25,95,100.0
1073,E4,173.25,0.25,95,100.0
1074,B3,173.25,0.25,95,100.0
1075,G4,173.5,0.25,95,100.0
1076,A1,173.5,0.25,79,100.0
1077,D5,173.75,1.25,95,100.0
1078,B1,173.75,1.0,95,100.0
1079,A4,173.75,2.0,95,100.0
1080,E4,173.75,2.0,95,100.0
1081,C#4,173.75,2.0,95,100.0
1082,G4,173.75,2.25,95,100.0
1083,E-4,173.75,2.25,95,100.0
1084,A3,173.75,2.25,95,100.0
1085,B1,174.75,0.25,95,100.0
1086,C5,175.0,1.0,95,100.0
1087,A1,175.0,1.0,95,100.0
1088,B3,176.0,0.5,95,100.0
1089,A4,176.0,0.25,95,100.0
1090,B4,176.0,4.0,95,100.0
1091,E1,176.0,0.5,95,100.0
1092,B4,176.0,4.0,95,100.0
1093,G4,176.0,4.0,95,100.0
1094,E4,176.0,4.0,95,100.0
1095,E3,176.0,4.0,95,100.0
1096,G4,176.0,0.25,95,100.0
1097,E4,176.0,0.25,95,100.0
1098,B3,176.0,0.25,95,100.0
1099,C5,176.5,0.25,95,100.0
1100,B3,176.75,0.25,95,100.0
1101,B4,176.75,0.25,95,100.0
1102,C4,177.25,0.25,95,100.0
1103,C5,177.25,0.25,95,100.0
1104,E1,177.25,0.25,95,100.0
1105,G4,177.25,0.25,95,100.0
1106,E4,177.25,0.25,95,100.0
1107,B3,177.25,0.25,95,100.0
1108,B3,177.75,0.5,95,100.0
1109,A4,177.75,1.0,95,100.0
1110,E1,177.75,0.75,95,100.0
1111,G4,177.75,2.0,95,100.0
1112,E4,177.75,2.0,95,100.0
1113,B3,177.75,2.0,95,100.0
1114,E3,178.5,0.5,79,100.0
1115,E1,178.75,0.25,63,100.0
1116,G3,179.0,0.25,79,100.0
1117,E1,179.0,0.5,95,100.0
1118,E3,179.5,0.25,79,100.0
1119,E4,179.5,0.25,95,100.0
1120,E1,179.5,0.25,79,100.0
1121,B3,180.0,0.5,95,100.0
1122,B4,180.0,0.25,95,100.0
1123,C#2,180.0,0.5,95,100.0
1124,B4,180.0,4.0,95,100.0
1125,G4,180.0,4.0,95,100.0
1126,C#4,180.0,4.0,95,100.0
1127,C#3,180.0,4.0,95,100.0
1128,G4,180.0,0.25,95,100.0
1129,E4,180.0,0.25,95,100.0
1130,A3,180.0,0.25,95,100.0
1131,C5,180.5,0.25,95,100.0
1132,B3,180.75,0.25,95,100.0
1133,B4,180.75,0.25,95,100.0
1134,B3,181.25,0.25,95,100.0
1135,C5,181.25,0.25,95,100.0
1136,C#2,181.25,0.25,95,100.0
1137,G4,181.25,0.25,95,100.0
1138,E4,181.25,0.25,95,100.0
1139,A3,181.25,0.25,95,100.0
1140,D4,181.75,0.25,95,100.0
1141,A4,181.75,0.75,95,100.0
1142,C#2,181.75,0.75,95,100.0
1143,G4,181.75,2.0,95,100.0
1144,E4,181.75,2.0,95,100.0
1145,A3,181.75,2.0,95,100.0
1146,D4,182.25,0.25,95,100.0
1147,C4,182.5,0.25,95,100.0
1148,A4,182.5,0.25,95,100.0
1149,C#2,182.75,0.25,95,100.0
1150,B3,183.0,0.25,95,100.0
1151,G4,183.0,0.25,95,100.0
1152,C#2,183.0,0.5,95,100.0
1153,C4,183.5,0.25,95,100.0
1154,E5,183.5,0.25,95,100.0
1155,C#2,183.5,0.25,95,100.0
1156,B3,184.0,0.75,95,100.0
1157,C5,184.0,0.75,95,100.0
1158,C2,184.0,0.5,95,100.0
1159,B4,184.0,4.0,95,100.0
1160,G4,184.0,4.0,95,100.0
1161,E4,184.0,4.0,95,100.0
1162,D4,184.0,4.0,95,100.0
1163,G4,184.0,0.25,95,100.0
1164,E4,184.0,0.25,95,100.0
1165,B3,184.0,0.25,95,100.0
1166,B3,184.75,0.25,95,100.0
1167,B4,184.75,2.0,95,100.0
1168,A3,185.25,0.25,95,100.0
1169,C2,185.25,0.25,95,100.0
1170,G4,185.25,0.25,95,100.0
1171,E4,185.25,0.25,95,100.0
1172,B3,185.25,0.25,95,100.0
1173,G3,185.75,2.0,95,100.0
1174,C2,185.75,0.75,95,100.0
1175,G4,185.75,2.0,95,100.0
1176,E4,185.75,2.0,95,100.0
1177,B3,185.75,2.0,95,100.0
1178,G1,186.75,0.25,63,100.0
1179,G1,187.0,0.5,95,100.0
1180,E1,187.5,0.25,95,100.0
1181,C2,187.75,0.25,95,100.0
1182,G4,188.0,0.75,95,100.0
1183,A4,188.0,1.0,63,100.0
1184,C2,188.0,1.0,95,100.0
1185,B4,188.0,4.0,95,100.0
1186,G4,188.0,4.0,95,100.0
1187,E4,188.0,4.0,95,100.0
1188,D4,188.0,4.0,95,100.0
1189,G4,188.0,1.0,95,100.0
1190,E4,188.0,1.0,95,100.0
1191,B3,188.0,1.0,95,100.0
1192,G4,188.75,2.0,95,100.0
1193,E4,189.25,0.25,95,100.0
1194,G1,189.25,0.25,63,100.0
1195,G4,189.25,0.25,95,100.0
1196,E4,189.25,0.25,95,100.0
1197,B3,189.25,0.25,95,100.0
1198,G4,189.5,0.25,95,100.0
1199,A1,189.5,0.25,79,100.0
1200,D5,189.75,1.25,95,100.0
1201,B1,189.75,1.0,95,100.0
1202,G4,189.75,2.25,95,100.0
1203,E4,189.75,2.25,95,100.0
1204,B3,189.75,2.25,95,100.0
1205,B1,190.75,0.25,95,100.0
1206,C5,191.0,1.0,95,100.0
1207,A1,191.0,1.0,95,100.0
1208,A1,192.0,0.75,95,100.0
1209,B4,192.0,4.0,95,100.0
1210,G4,192.0,4.0,95,100.0
1211,E4,192.0,4.0,95,100.0
1212,E3,192.0,4.0,95,100.0
1213,E4,192.0,0.75,63,100.0
1214,C4,192.0,0.75,63,100.0
1215,C6,192.5,0.062,95,100.0
1216,D6,192.562,0.188,95,100.0
1217,B5,192.75,0.25,95,100.0
1218,A1,192.75,0.25,95,100.0
1219,E4,192.75,0.25,63,100.0
1220,C4,192.75,0.25,63,100.0
1221,A5,193.25,0.25,95,100.0
1222,G1,193.25,0.25,95,100.0
1223,E4,193.25,0.25,63,100.0
1224,C4,193.25,0.25,63,100.0
1225,B5,193.75,1.0,95,100.0
1226,A1,193.75,0.25,95,100.0
1227,E4,193.75,1.25,63,100.0
1228,C4,193.75,1.25,63,100.0
1229,A1,194.25,0.25,95,100.0
1230,G5,194.75,0.75,95,100.0
1231,E1,194.75,0.25,63,100.0
1232,G1,195.0,0.25,79,100.0
1233,A5,195.5,0.25,95,100.0
1234,A1,195.5,0.25,95,100.0
1235,A1,196.0,0.75,95,100.0
1236,B4,196.0,4.0,95,100.0
1237,G4,196.0,4.0,95,100.0
1238,C#4,196.0,4.0,95,100.0
1239,C#3,196.0,4.0,95,100.0
1240,E4,196.0,0.75,63,100.0
1241,C4,196.0,0.75,63,100.0
1242,A1,196.75,0.25,95,100.0
1243,E4,196.75,0.25,63,100.0
1244,C4,196.75,0.25,63,100.0
1245,G1,197.25,0.25,95,100.0
1246,E4,197.25,0.25,63,100.0
1247,C4,197.25,0.25,63,100.0
1248,A1,197.75,0.25,95,100.0
1249,E4,197.75,1.25,63,100.0
1250,C4,197.75,1.25,63,100.0
1251,G5,198.25,0.25,63,100.0
1252,A1,198.25,0.25,95,100.0
1253,B5,198.5,0.25,79,100.0
1254,C6,198.75,0.25,95,100.0
1255,E1,198.75,0.25,63,100.0
1256,C#6,199.0,0.25,95,100.0
1257,G1,199.0,0.25,79,100.0
1258,D6,199.25,0.25,95,100.0
1259,B5,199.5,0.25,95,100.0
1260,A1,199.5,0.25,95,100.0
1261,G5,199.75,0.25,95,100.0
1262,A5,200.0,0.5,95,100.0
1263,F1,200.0,0.75,95,100.0
1264,B4,200.0,4.0,95,100.0
1265,G4,200.0,4.0,95,100.0
1266,E4,200.0,4.0,95,100.0
1267,D4,200.0,4.0,95,100.0
1268,G4,200.0,0.75,63,100.0
1269,C4,200.0,0.75,63,100.0
1270,A5,200.5,0.25,95,100.0
1271,G5,200.75,0.5,95,100.0
1272,F1,200.75,0.25,95,100.0
1273,G4,200.75,0.25,63,100.0
1274,C4,200.75,0.25,63,100.0
1275,C#5,201.25,0.5,95,100.0
1276,F1,201.25,0.25,95,100.0
1277,G4,201.25,0.25,63,100.0
1278,C4,201.25,0.25,63,100.0
1279,D5,201.75,1.0,95,100.0
1280,F1,201.75,0.25,95,100.0
1281,G4,201.75,1.25,63,100.0
1282,C4,201.75,1.25,63,100.0
1283,F1,202.25,0.25,95,100.0
1284,F1,202.75,0.25,63,100.0
1285,F1,203.0,0.25,79,100.0
1286,D5,203.5,0.25,95,100.0
1287,F1,203.5,0.25,95,100.0
1288,C5,203.75,0.25,95,100.0
1289,F1,204.0,0.75,95,100.0
1290,B4,204.0,4.0,95,100.0
1291,G4,204.0,4.0,95,100.0
1292,E4,204.0,4.0,95,100.0
1293,D4,204.0,4.0,95,100.0
1294,G4,204.0,0.75,63,100.0
1295,C4,204.0,0.75,63,100.0
1296,B4,204.5,0.25,95,100.0
1297,B4,204.75,1.0,95,100.0
1298,F1,204.75,0.25,95,100.0
1299,G4,204.75,0.25,63,100.0
1300,C4,204.75,0.25,63,100.0
1301,F1,205.25,0.25,95,100.0
1302,G4,205.25,0.25,63,100.0
1303,C4,205.25,0.25,63,100.0
1304,F1,205.75,0.25,95,100.0
1305,G4,205.75,1.25,63,100.0
1306,C4,205.75,1.25,63,100.0
1307,F1,206.25,0.25,95,100.0
1308,B-4,206.5,0.125,95,100.0
1309,C5,206.625,0.125,95,100.0
1310,D5,206.75,0.125,95,100.0
1311,F1,206.75,0.25,63,100.0
1312,E5,206.875,0.125,95,100.0
1313,G5,207.0,0.5,95,100.0
1314,F1,207.0,0.25,79,100.0
1315,A5,207.5,0.25,95,100.0
1316,F1,207.5,0.25,95,100.0
1317,B5,208.0,0.5,95,100.0
1318,A1,208.0,0.75,95,100.0
1319,G4,208.0,4.0,95,100.0
1320,E4,208.0,4.0,95,100.0
1321,D4,208.0,4.0,95,100.0
1322,C4,208.0,4.0,95,100.0
1323,E4,208.0,0.75,63,100.0
1324,C4,208.0,0.75,63,100.0
1325,E5,208.5,0.25,63,100.0
1326,E5,208.75,0.5,95,100.0
1327,A1,208.75,0.25,95,100.0
1328,E4,208.75,0.25,63,100.0
1329,C4,208.75,0.25,63,100.0
1330,D5,209.25,0.5,95,100.0
1331,G1,209.25,0.25,95,100.0
1332,E4,209.25,0.25,63,100.0
1333,C4,209.25,0.25,63,100.0
1334,E5,209.75,0.75,95,100.0
1335,A1,209.75,0.25,95,100.0
1336,E4,209.75,1.25,63,100.0
1337,C4,209.75,1.25,63,100.0
1338,A1,210.25,0.25,95,100.0
1339,G5,210.5,0.5,79,100.0
1340,E1,210.75,0.25,63,100.0
1341,A5,211.0,0.5,63,100.0
1342,G1,211.0,0.25,79,100.0
1343,A1,211.5,0.25,95,100.0
1344,A1,212.0,0.75,95,100.0
1345,E4,212.0,0.5,63,100.0
1346,C4,212.0,0.5,63,100.0
1347,G4,212.5,0.25,95,100.0
1348,E4,212.5,0.25,95,100.0
1349,C4,212.5,0.25,95,100.0
1350,A1,212.75,0.25,95,100.0
1351,E4,212.75,0.25,95,100.0
1352,C4,212.75,0.25,95,100.0
1353,G1,213.25,0.25,95,100.0
1354,D4,213.25,0.25,95,100.0
1355,C4,213.25,0.25,95,100.0
1356,B5,213.5,0.25,95,100.0
1357,D6,213.75,0.5,95,100.0
1358,A1,213.75,0.25,95,100.0
1359,E4,213.75,1.0,79,100.0
1360,C4,213.75,1.0,79,100.0
1361,E6,214.25,0.5,95,100.0
1362,A1,214.25,0.25,95,100.0
1363,G6,214.75,0.375,95,100.0
1364,E1,214.75,0.25,63,100.0
1365,G1,215.0,0.25,79,100.0
1366,E6,215.125,0.375,95,100.0
1367,D6,215.5,0.25,95,100.0
1368,A1,215.5,0.25,95,100.0
1369,B-5,215.75,0.25,95,100.0
1370,B-5,216.0,0.25,95,100.0
1371,F1,216.0,0.75,95,100.0
1372,G4,216.0,4.0,95,100.0
1373,E4,216.0,4.0,95,100.0
1374,D4,216.0,4.0,95,100.0
1375,C4,216.0,4.0,95,100.0
1376,G4,216.0,0.75,63,100.0
1377,C4,216.0,0.75,63,100.0
1378,A5,216.25,0.5,95,100.0
1379,A5,216.75,0.5,95,100.0
1380,F1,216.75,0.25,95,100.0
1381,G4,216.75,0.25,63,100.0
1382,C4,216.75,0.25,63,100.0
1383,B-5,217.25,0.125,95,100.0
1384,F1,217.25,0.25,95,100.0
1385,G4,217.25,0.25,63,100.0
1386,C4,217.25,0.25,63,100.0
1387,A5,217.375,0.125,95,100.0
1388,G5,217.5,1.0,95,100.0
1389,F1,217.75,0.25,95,100.0
1390,G4,217.75,1.25,63,100.0
1391,C4,217.75,1.25,63,100.0
1392,F1,218.25,0.25,95,100.0
1393,F1,218.75,0.25,63,100.0
1394,F1,219.0,0.25,79,100.0
1395,F1,219.5,0.25,95,100.0
1396,F1,220.0,0.75,95,100.0
1397,G4,220.0,4.0,95,100.0
1398,E-4,220.0,4.0,95,100.0
1399,C4,220.0,4.0,95,100.0
1400,A3,220.0,4.0,95,100.0
1401,G4,220.0,0.75,63,100.0
1402,C4,220.0,0.75,63,100.0
1403,D6,220.5,0.25,95,100.0
1404,D6,220.75,0.75,95,100.0
1405,F1,220.75,0.25,95,100.0
1406,G4,220.75,0.25,63,100.0
1407,C4,220.75,0.25,63,100.0
1408,F1,221.25,0.25,95,100.0
1409,G4,221.25,0.25,63,100.0
1410,C4,221.25,0.25,63,100.0
1411,D6,221.5,0.25,95,100.0
1412,D6,221.75,0.75,95,100.0
1413,F1,221.75,0.25,95,100.0
1414,G4,221.75,1.25,63,100.0
1415,C4,221.75,1.25,63,100.0
1416,F1,222.25,0.25,95,100.0
1417,D6,222.5,0.25,95,100.0
1418,D6,222.75,0.75,95,100.0
1419,F1,222.75,0.25,63,100.0
1420,F1,223.0,0.25,79,100.0
1421,D6,223.5,0.25,95,100.0
1422,F1,223.5,0.25,95,100.0
1423,B5,224.0,0.5,95,100.0
1424,A1,224.0,0.75,95,100.0
1425,E4,224.0,0.75,63,100.0
1426,C4,224.0,0.75,63,100.0
1427,G5,224.5,0.5,95,100.0
1428,A1,224.75,0.25,95,100.0
1429,E4,224.75,0.25,63,100.0
1430,C4,224.75,0.25,63,100.0
1431,E5,225.0,0.5,95,100.0
1432,G1,225.25,0.25,95,100.0
1433,E4,225.25,0.25,63,100.0
1434,C4,225.25,0.25,63,100.0
1435,G5,225.5,0.25,95,100.0
1436,D6,225.75,0.75,95,100.0
1437,A1,225.75,0.25,95,100.0
1438,E4,225.75,1.25,63,100.0
1439,C4,225.75,1.25,63,100.0
1440,A1,226.25,0.25,95,100.0
1441,B5,226.5,0.25,95,100.0
1442,E1,226.75,0.25,63,100.0
1443,G1,227.0,0.25,79,100.0
1444,A1,227.5,0.25,95,100.0
1445,A1,228.0,0.75,95,100.0
1446,G4,228.0,4.0,95,100.0
1447,E-4,228.0,4.0,95,100.0
1448,C4,228.0,4.0,95,100.0
1449,A3,228.0,4.0,95,100.0
1450,E4,228.0,0.75,63,100.0
1451,C4,228.0,0.75,63,100.0
1452,G#5,228.25,0.25,95,100.0
1453,D6,228.5,0.25,95,100.0
1454,E6,228.75,0.25,95,100.0
1455,A1,228.75,0.25,95,100.0
1456,E4,228.75,0.25,63,100.0
1457,C4,228.75,0.25,63,100.0
1458,G6,229.0,0.5,95,100.0
1459,G1,229.25,0.25,95,100.0
1460,E4,229.25,0.25,63,100.0
1461,C4,229.25,0.25,63,100.0
1462,E6,229.5,0.25,95,100.0
1463,A1,229.75,0.25,95,100.0
1464,E4,229.75,1.25,63,100.0
1465,C4,229.75,1.25,63,100.0
1466,A6,230.25,0.5,95,100.0
1467,A1,230.25,0.25,95,100.0
1468,E1,230.75,0.25,63,100.0
1469,A6,231.0,0.5,95,100.0
1470,G1,231.0,0.25,79,100.0
1471,G6,231.5,0.5,95,100.0
1472,A1,231.5,0.25,95,100.0
1473,A6,232.0,0.5,95,100.0
1474,F1,232.0,0.75,95,100.0
1475,G4,232.0,4.0,95,100.0
1476,E4,232.0,4.0,95,100.0
1477,D4,232.0,4.0,95,100.0
1478,C4,232.0,4.0,95,100.0
1479,G4,232.0,0.75,63,100.0
1480,C4,232.0,0.75,63,100.0
1481,G6,232.5,0.25,95,100.0
1482,E-6,232.75,0.25,95,100.0
1483,F1,232.75,0.25,95,100.0
1484,G4,232.75,0.25,63,100.0
1485,C4,232.75,0.25,63,100.0
1486,F1,233.25,0.25,95,100.0
1487,G4,233.25,0.25,63,100.0
1488,C4,233.25,0.25,63,100.0
1489,F1,233.75,0.25,95,100.0
1490,G4,233.75,1.25,63,100.0
1491,C4,233.75,1.25,63,100.0
1492,F1,234.25,0.25,95,100.0
1493,G6,234.5,0.25,95,100.0
1494,F1,234.75,0.25,63,100.0
1495,F1,235.0,0.25,79,100.0
1496,F6,235.5,0.25,95,100.0
1497,F1,235.5,0.25,95,100.0
1498,D6,235.75,0.25,95,100.0
1499,D6,236.0,0.25,95,100.0
1500,F1,236.0,0.75,95,100.0
1501,G4,236.0,0.75,63,100.0
1502,C4,236.0,0.75,63,100.0
1503,E-6,236.25,0.25,95,100.0
1504,C6,236.5,0.25,95,100.0
1505,D6,236.75,0.75,95,100.0
1506,F1,236.75,0.25,95,100.0
1507,G4,236.75,0.25,63,100.0
1508,C4,236.75,0.25,63,100.0
1509,F1,237.25,0.25,95,100.0
1510,G4,237.25,0.25,63,100.0
1511,C4,237.25,0.25,63,100.0
1512,C6,237.5,0.25,95,100.0
1513,B5,237.75,0.875,95,100.0
1514,F1,237.75,0.25,95,100.0
1515,G4,237.75,1.25,63,100.0
1516,C4,237.75,1.25,63,100.0
1517,F1,238.25,0.25,95,100.0
1518,G5,238.625,0.125,95,100.0
1519,F5,238.75,0.125,95,100.0
1520,F1,238.75,0.25,63,100.0
1521,C5,238.875,0.125,95,100.0
1522,B4,239.0,0.5,95,100.0
1523,F1,239.0,0.25,79,100.0
1524,A4,239.5,0.5,95,100.0
1525,F1,239.5,0.25,95,100.0
1526,A4,240.0,0.5,95,100.0
1527,A1,240.0,0.75,95,100.0
1528,G4,240.0,4.0,95,100.0
1529,E4,240.0,4.0,95,100.0
1530,D4,240.0,4.0,95,100.0
1531,C4,240.0,4.0,95,100.0
1532,E4,240.0,0.75,63,100.0
1533,C4,240.0,0.75,63,100.0
1534,D5,240.5,0.25,95,100.0
1535,A4,240.75,0.5,95,100.0
1536,A1,240.75,0.25,95,100.0
1537,E4,240.75,0.25,63,100.0
1538,C4,240.75,0.25,63,100.0
1539,D5,241.25,0.25,95,100.0
1540,G1,241.25,0.25,95,100.0
1541,E4,241.25,0.25,63,100.0
1542,C4,241.25,0.25,63,100.0
1543,G4,241.75,0.25,95,100.0
1544,A1,241.75,0.25,95,100.0
1545,E4,241.75,1.25,63,100.0
1546,C4,241.75,1.25,63,100.0
1547,G4,242.25,0.25,95,100.0
1548,A1,242.25,0.25,95,100.0
1549,D5,242.5,0.25,95,100.0
1550,E1,242.75,0.25,63,100.0
1551,A4,243.0,0.5,95,100.0
1552,G1,243.0,0.25,79,100.0
1553,D5,243.5,0.5,95,100.0
1554,A1,243.5,0.25,95,100.0
1555,A4,244.0,0.5,95,100.0
1556,A1,244.0,0.75,95,100.0
1557,G4,244.0,4.0,95,100.0
1558,E-4,244.0,4.0,95,100.0
1559,C4,244.0,4.0,95,100.0
1560,A3,244.0,4.0,95,100.0
1561,E4,244.0,0.5,63,100.0
1562,C4,244.0,0.5,63,100.0
1563,D5,244.5,0.25,95,100.0
1564,G4,244.5,0.25,95,100.0
1565,E4,244.5,0.25,95,100.0
1566,C4,244.5,0.25,95,100.0
1567,A4,244.75,0.5,95,100.0
1568,A1,244.75,0.25,95,100.0
1569,E4,244.75,0.25,95,100.0
1570,C4,244.75,0.25,95,100.0
1571,E5,245.25,0.25,95,100.0
1572,G1,245.25,0.25,95,100.0
1573,D4,245.25,0.25,95,100.0
1574,C4,245.25,0.25,95,100.0
1575,A4,245.75,0.25,95,100.0
1576,A1,245.75,0.25,95,100.0
1577,E4,245.75,1.0,79,100.0
1578,C4,245.75,1.0,79,100.0
1579,G4,246.25,0.25,95,100.0
1580,A1,246.25,0.25,95,100.0
1581,A4,246.5,0.25,95,100.0
1582,B4,246.75,0.25,63,100.0
1583,E1,246.75,0.25,63,100.0
1584,B4,247.0,0.25,95,100.0
1585,G1,247.0,0.25,79,100.0
1586,C5,247.25,0.25,95,100.0
1587,D5,247.5,0.5,95,100.0
1588,A1,247.5,0.25,95,100.0
1589,E-5,248.0,1.25,79,100.0
1590,F1,248.0,0.75,95,100.0
1591,G4,248.0,0.75,63,100.0
1592,C4,248.0,0.75,63,100.0
1593,F1,248.75,0.25,95,100.0
1594,G4,248.75,0.25,63,100.0
1595,C4,248.75,0.25,63,100.0
1596,E-5,249.25,0.25,79,100.0
1597,F1,249.25,0.25,95,100.0
1598,G4,249.25,0.25,63,100.0
1599,C4,249.25,0.25,63,100.0
1600,F5,249.5,0.25,63,100.0
1601,F5,249.75,1.75,63,100.0
1602,F1,249.75,0.25,95,100.0
1603,G4,249.75,1.25,63,100.0
1604,C4,249.75,1.25,63,100.0
1605,F1,250.25,0.25,95,100.0
1606,F1,250.75,0.25,63,100.0
1607,F1,251.0,0.25,79,100.0
1608,E-5,251.5,0.25,79,100.0
1609,F1,251.5,0.25,95,100.0
1610,F1,252.0,0.75,95,100.0
1611,G4,252.0,4.0,95,100.0
1612,E-4,252.0,4.0,95,100.0
1613,C4,252.0,4.0,95,100.0
1614,A3,252.0,4.0,95,100.0
1615,G4,252.0,0.75,63,100.0
1616,C4,252.0,0.75,63,100.0
1617,F1,252.75,0.25,95,100.0
1618,G4,252.75,0.25,63,100.0
1619,C4,252.75,0.25,63,100.0
1620,F1,253.25,0.25,95,100.0
1621,G4,253.25,0.25,63,100.0
1622,C4,253.25,0.25,63,100.0
1623,D5,253.75,0.25,95,100.0
1624,F1,253.75,0.25,95,100.0
1625,G4,253.75,1.25,63,100.0
1626,C4,253.75,1.25,63,100.0
1627,C5,254.0,0.25,95,100.0
1628,D5,254.25,0.25,95,100.0
1629,F1,254.25,0.25,95,100.0
1630,E5,254.5,0.25,95,100.0
1631,F#5,254.75,0.25,95,100.0
1632,F1,254.75,0.25,63,100.0
1633,G5,255.0,0.25,95,100.0
1634,F1,255.0,0.25,79,100.0
1635,G#5,255.25,0.25,95,100.0
1636,A5,255.5,0.25,95,100.0
1637,F1,255.5,0.25,95,100.0
1638,B-5,255.75,0.25,95,100.0
1639,B-5,256.0,0.5,95,100.0
1640,C2,256.0,0.75,95,100.0
1641,G4,256.0,4.0,95,100.0
1642,E4,256.0,4.0,95,100.0
1643,D4,256.0,4.0,95,100.0
1644,C4,256.0,4.0,95,100.0
1645,E4,256.0,0.75,63,100.0
1646,C4,256.0,0.75,63,100.0
1647,B5,256.5,0.25,95,100.0
1648,G5,256.75,0.25,95,100.0
1649,C2,256.75,0.25,95,100.0
1650,E4,256.75,0.25,63,100.0
1651,C4,256.75,0.25,63,100.0
1652,E5,257.25,0.25,95,100.0
1653,C2,257.25,0.25,95,100.0
1654,E4,257.25,0.25,63,100.0
1655,C4,257.25,0.25,63,100.0
1656,G5,257.75,1.25,95,100.0
1657,C2,257.75,0.25,95,100.0
1658,E4,257.75,1.25,63,100.0
1659,C4,257.75,1.25,63,100.0
1660,C2,258.25,0.25,95,100.0
1661,C2,258.75,0.25,63,100.0
1662,A5,259.0,0.25,95,100.0
1663,C2,259.0,0.25,79,100.0
1664,B5,259.25,0.5,95,100.0
1665,C2,259.5,0.25,95,100.0
1666,E6,259.75,0.25,95,100.0
1667,D6,260.0,0.5,95,100.0
1668,C2,260.0,0.75,95,100.0
1669,D4,260.0,0.75,63,100.0
1670,A3,260.0,0.75,63,100.0
1671,B5,260.5,0.25,95,100.0
1672,G5,260.75,0.25,95,100.0
1673,C2,260.75,0.25,95,100.0
1674,D4,260.75,0.25,63,100.0
1675,A3,260.75,0.25,63,100.0
1676,E5,261.25,0.25,95,100.0
1677,C2,261.25,0.25,95,100.0
1678,D4,261.25,0.25,63,100.0
1679,A3,261.25,0.25,63,100.0
1680,D5,261.75,1.0,95,100.0
1681,C2,261.75,0.25,95,100.0
1682,D4,261.75,1.25,63,100.0
1683,A3,261.75,1.25,63,100.0
1684,C2,262.25,0.25,95,100.0
1685,C2,262.75,0.25,63,100.0
1686,D5,263.0,0.25,63,100.0
1687,C2,263.0,0.25,79,100.0
1688,E5,263.25,0.25,79,100.0
1689,G5,263.5,0.25,95,100.0
1690,C2,263.5,0.25,95,100.0
1691,A5,263.75,0.25,95,100.0
1692,A5,264.0,0.5,95,100.0
1693,C2,264.0,0.75,95,100.0
1694,G4,264.0,4.0,95,100.0
1695,E4,264.0,4.0,95,100.0
1696,D4,264.0,4.0,95,100.0
1697,C4,264.0,4.0,95,100.0
1698,E4,264.0,0.75,63,100.0
1699,C4,264.0,0.75,63,100.0
1700,E6,264.5,0.25,95,100.0
1701,D6,264.75,0.25,95,100.0
1702,C2,264.75,0.25,95,100.0
1703,E4,264.75,0.25,63,100.0
1704,C4,264.75,0.25,63,100.0
1705,G6,265.25,0.25,95,100.0
1706,C2,265.25,0.25,95,100.0
1707,E4,265.25,0.25,63,100.0
1708,C4,265.25,0.25,63,100.0
1709,D6,265.75,1.25,95,100.0
1710,C2,265.75,0.25,95,100.0
1711,E4,265.75,1.25,63,100.0
1712,C4,265.75,1.25,63,100.0
1713,C2,266.25,0.25,95,100.0
1714,C2,266.75,0.25,63,100.0
1715,G6,267.0,0.5,95,100.0
1716,C2,267.0,0.25,79,100.0
1717,A6,267.5,0.5,95,100.0
1718,C2,267.5,0.25,95,100.0
1719,G6,268.0,1.0,95,100.0
1720,C2,268.0,0.75,95,100.0
1721,G4,268.0,4.0,95,100.0
1722,E-4,268.0,4.0,95,100.0
1723,C4,268.0,4.0,95,100.0
1724,A3,268.0,4.0,95,100.0
1725,D4,268.0,0.75,63,100.0
1726,A3,268.0,0.75,63,100.0
1727,C2,268.75,0.25,95,100.0
1728,D4,268.75,0.25,63,100.0
1729,A3,268.75,0.25,63,100.0
1730,E6,269.0,0.5,95,100.0
1731,C2,269.25,0.25,95,100.0
1732,D4,269.25,0.25,63,100.0
1733,A3,269.25,0.25,63,100.0
1734,E6,269.5,0.25,95,100.0
1735,D6,269.75,1.0,95,100.0
1736,C2,269.75,0.25,95,100.0
1737,D4,269.75,1.25,63,100.0
1738,A3,269.75,1.25,63,100.0
1739,C2,270.25,0.25,95,100.0
1740,C2,270.75,0.25,63,100.0
1741,C2,271.0,0.25,79,100.0
1742,D4,271.5,0.5,95,100.0
1743,C2,271.5,0.25,95,100.0
1744,G4,272.0,0.25,95,100.0
1745,B3,272.0,4.0,95,100.0
1746,A1,272.0,0.75,95,100.0
1747,E4,272.0,0.75,63,100.0
1748,C4,272.0,0.75,63,100.0
1749,G4,272.25,0.25,95,100.0
1750,E4,272.5,0.25,95,100.0
1751,A1,272.75,0.25,95,100.0
1752,E4,272.75,0.25,63,100.0
1753,C4,272.75,0.25,63,100.0
1754,G4,273.0,0.25,95,100.0
1755,G1,273.25,0.25,95,100.0
1756,E4,273.25,0.25,63,100.0
1757,C4,273.25,0.25,63,100.0
1758,G4,273.75,0.75,95,100.0
1759,A1,273.75,0.25,95,100.0
1760,E4,273.75,1.25,63,100.0
1761,C4,273.75,1.25,63,100.0
1762,A1,274.25,0.25,95,100.0
1763,A4,274.5,0.5,95,100.0
1764,E1,274.75,0.25,63,100.0
1765,G1,275.0,0.25,79,100.0
1766,A1,275.5,0.25,95,100.0
1767,G5,275.625,0.375,63,100.0
1768,E5,275.75,0.25,63,100.0
1769,D5,275.875,0.125,63,100.0
1770,C5,276.0,2.0,63,100.0
1771,G5,276.0,2.0,63,100.0
1772,E5,276.0,2.0,63,100.0
1773,D5,276.0,2.0,63,100.0
1774,B3,276.0,4.0,95,100.0
1775,A1,276.0,0.75,95,100.0
1776,G4,276.0,4.0,95,100.0
1777,E-4,276.0,4.0,95,100.0
1778,C4,276.0,4.0,95,100.0
1779,A3,276.0,4.0,95,100.0
1780,E4,276.0,0.75,63,100.0
1781,C4,276.0,0.75,63,100.0
1782,A1,276.75,0.25,95,100.0
1783,E4,276.75,0.25,63,100.0
1784,C4,276.75,0.25,63,100.0
1785,G1,277.25,0.25,95,100.0
1786,E4,277.25,0.25,63,100.0
1787,C4,277.25,0.25,63,100.0
1788,B4,277.5,0.25,63,100.0
1789,C5,277.75,0.25,79,100.0
1790,A1,277.75,0.25,95,100.0
1791,E4,277.75,1.25,63,100.0
1792,C4,277.75,1.25,63,100.0
1793,B4,278.0,0.25,95,100.0
1794,D5,278.25,0.25,79,100.0
1795,A1,278.25,0.25,95,100.0
1796,B-4,278.5,0.25,95,100.0
1797,A4,278.75,0.25,63,100.0
1798,E1,278.75,0.25,63,100.0
1799,G4,279.0,0.25,79,100.0
1800,G1,279.0,0.25,79,100.0
1801,E4,279.25,0.25,63,100.0
1802,A4,279.5,0.25,95,100.0
1803,A1,279.5,0.25,95,100.0
1804,E4,279.75,0.25,95,100.0
1805,G4,280.0,0.5,63,100.0
1806,G3,280.0,4.0,95,100.0
1807,F1,280.0,0.75,95,100.0
1808,G4,280.0,4.0,95,100.0
1809,E4,280.0,4.0,95,100.0
1810,D4,280.0,4.0,95,100.0
1811,C4,280.0,4.0,95,100.0
1812,G4,280.0,0.75,63,100.0
1813,C4,280.0,0.75,63,100.0
1814,G4,280.5,0.25,79,100.0
1815,G4,280.75,0.25,95,100.0
1816,F1,280.75,0.25,95,100.0
1817,G4,280.75,0.25,63,100.0
1818,C4,280.75,0.25,63,100.0
1819,A4,281.25,0.25,95,100.0
1820,F1,281.25,0.25,95,100.0
1821,G4,281.25,0.25,63,100.0
1822,C4,281.25,0.25,63,100.0
1823,G4,281.75,0.75,95,100.0
1824,F1,281.75,0.25,95,100.0
1825,G4,281.75,1.25,63,100.0
1826,C4,281.75,1.25,63,100.0
1827,F1,282.25,0.25,95,100.0
1828,C#4,282.5,0.5,95,100.0
1829,F1,282.75,0.25,63,100.0
1830,F1,283.0,0.25,79,100.0
1831,F1,283.5,0.25,95,100.0
1832,B4,284.0,1.0,79,100.0
1833,B4,284.0,1.0,95,100.0
1834,F1,284.0,0.75,95,100.0
1835,G4,284.0,0.75,63,100.0
1836,C4,284.0,0.75,63,100.0
1837,F1,284.75,0.25,95,100.0
1838,G4,284.75,0.25,63,100.0
1839,C4,284.75,0.25,63,100.0
1840,A4,285.0,1.0,63,100.0
1841,A4,285.0,3.0,95,100.0
1842,F1,285.25,0.25,95,100.0
1843,G4,285.25,0.25,63,100.0
1844,C4,285.25,0.25,63,100.0
1845,E-4,285.75,0.25,63,100.0
1846,F1,285.75,0.25,95,100.0
1847,G4,285.75,1.25,63,100.0
1848,C4,285.75,1.25,63,100.0
1849,D4,286.0,0.25,79,100.0
1850,G4,286.0,1.0,63,100.0
1851,E-4,286.25,0.25,63,100.0
1852,F1,286.25,0.25,95,100.0
1853,C4,286.5,0.25,95,100.0
1854,D4,286.75,0.25,63,100.0
1855,F1,286.75,0.25,63,100.0
1856,B3,287.0,0.25,95,100.0
1857,E4,287.0,1.0,63,100.0
1858,F1,287.0,0.25,79,100.0
1859,C4,287.25,0.25,63,100.0
1860,A3,287.5,0.25,95,100.0
1861,F1,287.5,0.25,95,100.0
1862,B3,287.75,0.25,63,100.0
1863,G3,288.0,0.5,95,100.0
1864,B4,288.0,4.0,95,100.0
1865,A1,288.0,0.75,95,100.0
1866,G4,288.0,4.0,95,100.0
1867,E4,288.0,4.0,95,100.0
1868,D4,288.0,4.0,95,100.0
1869,C4,288.0,4.0,95,100.0
1870,E4,288.0,0.75,63,100.0
1871,C4,288.0,0.75,63,100.0
1872,A3,288.5,0.25,95,100.0
1873,B3,288.75,0.25,95,100.0
1874,A1,288.75,0.25,95,100.0
1875,E4,288.75,0.25,63,100.0
1876,C4,288.75,0.25,63,100.0
1877,G3,289.25,0.5,95,100.0
1878,G1,289.25,0.25,95,100.0
1879,E4,289.25,0.25,63,100.0
1880,C4,289.25,0.25,63,100.0
1881,E3,289.75,0.5,95,100.0
1882,A1,289.75,0.25,95,100.0
1883,E4,289.75,1.25,63,100.0
1884,C4,289.75,1.25,63,100.0
1885,E3,290.25,0.25,79,100.0
1886,A1,290.25,0.25,95,100.0
1887,F#3,290.5,0.25,79,100.0
1888,E1,290.75,0.25,63,100.0
1889,G3,291.0,0.25,63,100.0
1890,G1,291.0,0.25,79,100.0
1891,B3,291.5,0.25,79,100.0
1892,A1,291.5,0.25,95,100.0
1893,E4,292.0,0.25,95,100.0
1894,B4,292.0,4.0,95,100.0
1895,A1,292.0,0.75,95,100.0
1896,G4,292.0,4.0,95,100.0
1897,E-4,292.0,4.0,95,100.0
1898,C4,292.0,4.0,95,100.0
1899,A3,292.0,4.0,95,100.0
1900,E4,292.0,0.5,63,100.0
1901,C4,292.0,0.5,63,100.0
1902,F#4,292.5,0.25,95,100.0
1903,G4,292.5,0.25,95,100.0
1904,E4,292.5,0.25,95,100.0
1905,C4,292.5,0.25,95,100.0
1906,G4,292.75,0.25,95,100.0
1907,A1,292.75,0.25,95,100.0
1908,E4,292.75,0.25,95,100.0
1909,C4,292.75,0.25,95,100.0
1910,B4,293.25,0.25,95,100.0
1911,G1,293.25,0.25,95,100.0
1912,D4,293.25,0.25,95,100.0
1913,C4,293.25,0.25,95,100.0
1914,E4,293.75,0.25,95,100.0
1915,A1,293.75,0.25,95,100.0
1916,E4,293.75,1.0,79,100.0
1917,C4,293.75,1.0,79,100.0
1918,E5,294.25,0.25,95,100.0
1919,A1,294.25,0.25,95,100.0
1920,C#4,294.75,0.25,63,100.0
1921,E1,294.75,0.25,63,100.0
1922,D4,295.0,0.25,79,100.0
1923,G1,295.0,0.25,79,100.0
1924,D5,295.25,0.5,95,100.0
1925,A1,295.5,0.25,95,100.0
1926,B3,295.75,0.25,95,100.0
1927,B3,296.0,0.25,95,100.0
1928,G4,296.0,4.0,95,100.0
1929,F1,296.0,0.75,95,100.0
1930,G4,296.0,0.75,63,100.0
1931,C4,296.0,0.75,63,100.0
1932,C5,296.25,0.25,95,100.0
1933,C5,296.75,0.25,95,100.0
1934,F1,296.75,0.25,95,100.0
1935,G4,296.75,0.25,63,100.0
1936,C4,296.75,0.25,63,100.0
1937,D5,297.25,0.25,95,100.0
1938,F1,297.25,0.25,95,100.0
1939,G4,297.25,0.25,63,100.0
1940,C4,297.25,0.25,63,100.0
1941,A4,297.75,1.0,95,100.0
1942,F1,297.75,0.25,95,100.0
1943,G4,297.75,1.25,63,100.0
1944,C4,297.75,1.25,63,100.0
1945,F1,298.25,0.25,95,100.0
1946,F1,298.75,0.25,63,100.0
1947,F1,299.0,0.25,79,100.0
1948,F1,299.5,0.25,95,100.0
1949,C5,299.75,0.125,95,100.0
1950,D5,299.875,0.125,95,100.0
1951,B4,300.0,0.5,95,100.0
1952,G4,300.0,2.0,95,100.0
1953,F1,300.0,0.75,95,100.0
1954,G4,300.0,4.0,95,100.0
1955,E-4,300.0,4.0,95,100.0
1956,C4,300.0,4.0,95,100.0
1957,A3,300.0,4.0,95,100.0
1958,G4,300.0,0.75,63,100.0
1959,C4,300.0,0.75,63,100.0
1960,A4,300.5,0.25,79,100.0
1961,G4,300.75,1.0,63,100.0
1962,F1,300.75,0.25,95,100.0
1963,G4,300.75,0.25,63,100.0
1964,C4,300.75,0.25,63,100.0
1965,F1,301.25,0.25,95,100.0
1966,G4,301.25,0.25,63,100.0
1967,C4,301.25,0.25,63,100.0
1968,F1,301.75,0.25,95,100.0
1969,G4,301.75,1.25,63,100.0
1970,C4,301.75,1.25,63,100.0
1971,D5,302.0,1.0,95,100.0
1972,F1,302.25,0.25,95,100.0
1973,G4,302.75,0.25,95,100.0
1974,F1,302.75,0.25,63,100.0
1975,B-4,303.0,0.125,95,100.0
1976,C5,303.0,1.0,95,100.0
1977,F1,303.0,0.25,79,100.0
1978,B4,303.125,0.125,95,100.0
1979,D5,303.25,0.25,95,100.0
1980,E5,303.5,0.25,95,100.0
1981,F1,303.5,0.25,95,100.0
1982,G5,304.0,0.5,95,100.0
1983,A1,304.0,0.75,95,100.0
1984,B4,304.0,4.0,95,100.0
1985,G4,304.0,4.0,95,100.0
1986,E4,304.0,4.0,95,100.0
1987,C4,304.0,4.0,95,100.0
1988,E4,304.0,0.75,63,100.0
1989,C4,304.0,0.75,63,100.0
1990,B4,304.0,4.0,95,100.0
1991,B3,304.0,4.0,95,100.0
1992,G5,304.5,0.5,95,100.0
1993,A1,304.75,0.25,95,100.0
1994,E4,304.75,0.25,63,100.0
1995,C4,304.75,0.25,63,100.0
1996,G4,304.75,0.25,79,100.0
1997,E4,304.75,0.25,79,100.0
1998,G1,305.25,0.25,95,100.0
1999,G5,305.25,0.25,55,100.0
2000,A4,305.25,0.25,55,100.0
2001,E4,305.25,0.25,63,100.0
2002,C4,305.25,0.25,63,100.0
2003,A4,305.75,1.25,95,100.0
2004,A1,305.75,0.25,95,100.0
2005,E4,305.75,1.25,63,100.0
2006,C4,305.75,1.25,63,100.0
2007,A1,306.25,0.25,95,100.0
2008,E1,306.75,0.25,63,100.0
2009,F#4,306.75,0.5,79,100.0
2010,D4,306.75,0.5,79,100.0
2011,G4,307.0,0.25,63,100.0
2012,G1,307.0,0.25,79,100.0
2013,A4,307.5,0.25,79,100.0
2014,A1,307.5,0.25,95,100.0
2015,A1,308.0,0.75,95,100.0
2016,A4,308.0,4.0,95,100.0
2017,F#4,308.0,4.0,95,100.0
2018,E4,308.0,4.0,95,100.0
2019,D4,308.0,4.0,95,100.0
2020,E4,308.0,0.75,63,100.0
2021,C4,308.0,0.75,63,100.0
2022,A4,308.75,0.75,95,100.0
2023,A1,308.75,0.25,95,100.0
2024,E4,308.75,0.25,63,100.0
2025,C4,308.75,0.25,63,100.0
2026,G4,308.75,0.25,79,100.0
2027,E4,308.75,0.25,79,100.0
2028,G1,309.25,0.25,95,100.0
2029,E4,309.25,0.25,63,100.0
2030,C4,309.25,0.25,63,100.0
2031,G4,309.5,0.25,31,100.0
2032,E4,309.75,0.5,47,100.0
2033,A1,309.75,0.25,95,100.0
2034,E4,309.75,1.25,63,100.0
2035,C4,309.75,1.25,63,100.0
2036,G4,310.25,0.25,79,100.0
2037,A1,310.25,0.25,95,100.0
2038,A4,310.5,0.25,95,100.0
2039,G4,310.75,0.25,95,100.0
2040,E1,310.75,0.25,63,100.0
2041,B4,311.0,0.25,95,100.0
2042,G1,311.0,0.25,79,100.0
2043,C5,311.25,0.25,95,100.0
2044,C#5,311.5,0.25,95,100.0
2045,A1,311.5,0.25,95,100.0
2046,D5,311.75,0.25,95,100.0
2047,G5,312.0,0.5,95,100.0
2048,F1,312.0,0.75,95,100.0
2049,B4,312.0,4.0,95,100.0
2050,G4,312.0,4.0,95,100.0
2051,E4,312.0,4.0,95,100.0
2052,C4,312.0,4.0,95,100.0
2053,G4,312.0,0.75,63,100.0
2054,C4,312.0,0.75,63,100.0
2055,B4,312.0,4.0,95,100.0
2056,B3,312.0,4.0,95,100.0
2057,G5,312.5,0.75,95,100.0
2058,F1,312.75,0.25,95,100.0
2059,G4,312.75,0.25,63,100.0
2060,C4,312.75,0.25,63,100.0
2061,G4,312.75,0.25,79,100.0
2062,E4,312.75,0.25,79,100.0
2063,A5,313.25,0.5,95,100.0
2064,F1,313.25,0.25,95,100.0
2065,G4,313.25,0.25,63,100.0
2066,C4,313.25,0.25,63,100.0
2067,F1,313.75,0.25,95,100.0
2068,G4,313.75,1.25,63,100.0
2069,C4,313.75,1.25,63,100.0
2070,F1,314.25,0.25,95,100.0
2071,G4,314.75,0.25,63,100.0
2072,F1,314.75,0.25,63,100.0
2073,G4,315.0,0.5,63,100.0
2074,F1,315.0,0.25,79,100.0
2075,A4,315.5,0.25,95,100.0
2076,F1,315.5,0.25,95,100.0
2077,G4,316.0,4.0,95,100.0
2078,F1,316.0,0.75,95,100.0
2079,A4,316.0,4.0,95,100.0
2080,F#4,316.0,4.0,95,100.0
2081,E4,316.0,4.0,95,100.0
2082,D4,316.0,4.0,95,100.0
2083,G4,316.0,0.75,63,100.0
2084,C4,316.0,0.75,63,100.0
2085,G5,316.25,0.25,95,100.0
2086,G5,316.75,0.25,95,100.0
2087,F1,316.75,0.25,95,100.0
2088,G4,316.75,0.25,63,100.0
2089,C4,316.75,0.25,63,100.0
2090,G4,316.75,0.25,79,100.0
2091,E4,316.75,0.25,79,100.0
2092,E5,317.25,0.25,95,100.0
2093,F1,317.25,0.25,95,100.0
2094,G4,317.25,0.25,63,100.0
2095,C4,317.25,0.25,63,100.0
2096,D5,317.75,1.0,95,100.0
2097,F1,317.75,0.25,95,100.0
2098,G4,317.75,1.25,63,100.0
2099,C4,317.75,1.25,63,100.0
2100,F1,318.25,0.25,95,100.0
2101,C5,318.75,0.25,95,100.0
2102,D5,318.75,0.25,79,100.0
2103,F1,318.75,0.25,63,100.0
2104,B4,319.0,0.25,95,100.0
2105,D5,319.0,0.25,79,100.0
2106,F1,319.0,0.25,79,100.0
2107,A4,319.25,0.25,95,100.0
2108,G4,319.5,0.25,63,100.0
2109,C5,319.5,0.25,79,100.0
2110,F1,319.5,0.25,95,100.0
2111,A4,319.75,0.25,79,100.0
2112,A4,320.0,0.25,95,100.0
2113,G4,320.0,2.0,95,100.0
2114,A1,320.0,0.75,95,100.0
2115,G4,320.0,4.0,95,100.0
2116,E4,320.0,4.0,95,100.0
2117,D4,320.0,4.0,95,100.0
2118,C4,320.0,4.0,95,100.0
2119,E4,320.0,0.75,63,100.0
2120,C4,320.0,0.75,63,100.0
2121,D5,320.25,0.25,95,100.0
2122,E5,320.5,0.25,95,100.0
2123,A1,320.75,0.25,95,100.0
2124,E4,320.75,0.25,63,100.0
2125,C4,320.75,0.25,63,100.0
2126,B4,320.75,0.25,71,100.0
2127,G4,320.75,0.25,71,100.0
2128,G5,321.0,0.25,95,100.0
2129,G1,321.25,0.25,95,100.0
2130,E4,321.25,0.25,63,100.0
2131,C4,321.25,0.25,63,100.0
2132,E5,321.5,0.25,95,100.0
2133,C5,321.75,0.25,95,100.0
2134,A1,321.75,0.25,95,100.0
2135,E4,321.75,1.25,63,100.0
2136,C4,321.75,1.25,63,100.0
2137,D5,322.0,1.0,95,100.0
2138,A4,322.25,0.25,95,100.0
2139,A1,322.25,0.25,95,100.0
2140,A4,322.75,0.5,95,100.0
2141,E1,322.75,0.25,63,100.0
2142,A4,322.75,0.25,71,100.0
2143,F#4,322.75,0.25,71,100.0
2144,C5,323.0,1.0,95,100.0
2145,G1,323.0,0.25,79,100.0
2146,A4,323.0,0.5,47,100.0
2147,F#4,323.0,0.5,47,100.0
2148,G4,323.25,0.25,63,100.0
2149,E4,323.5,0.25,47,100.0
2150,A1,323.5,0.25,95,100.0
2151,B4,323.5,0.25,79,100.0
2152,G4,323.5,0.25,79,100.0
2153,G4,324.0,0.25,95,100.0
2154,A1,324.0,0.75,95,100.0
2155,E4,324.0,0.5,63,100.0
2156,C4,324.0,0.5,63,100.0
2157,B4,324.0,4.0,95,100.0
2158,B3,324.0,4.0,95,100.0
2159,G4,324.25,0.25,79,100.0
2160,E4,324.5,0.25,63,100.0
2161,G4,324.5,0.25,95,100.0
2162,E4,324.5,0.25,95,100.0
2163,C4,324.5,0.25,95,100.0
2164,A1,324.75,0.25,95,100.0
2165,E4,324.75,0.25,95,100.0
2166,C4,324.75,0.25,95,100.0
2167,B4,324.75,0.25,71,100.0
2168,G4,324.75,0.25,71,100.0
2169,D4,325.0,0.25,63,100.0
2170,G1,325.25,0.25,95,100.0
2171,D4,325.25,0.25,95,100.0
2172,C4,325.25,0.25,95,100.0
2173,G4,325.75,0.5,95,100.0
2174,A1,325.75,0.25,95,100.0
2175,E4,325.75,1.0,79,100.0
2176,C4,325.75,1.0,79,100.0
2177,A1,326.25,0.25,95,100.0
2178,E1,326.75,0.25,63,100.0
2179,A4,326.75,0.25,71,100.0
2180,F#4,326.75,0.25,71,100.0
2181,G1,327.0,0.25,79,100.0
2182,A4,327.0,0.5,47,100.0
2183,F#4,327.0,0.5,47,100.0
2184,G3,327.25,0.25,47,100.0
2185,B3,327.5,0.25,63,100.0
2186,A1,327.5,0.25,95,100.0
2187,G4,327.5,0.25,79,100.0
2188,E4,327.5,0.25,79,100.0
2189,C4,327.75,0.25,79,100.0
2190,C#4,328.0,0.25,79,100.0
2191,F1,328.0,0.75,95,100.0
2192,G4,328.0,4.0,95,100.0
2193,E4,328.0,4.0,95,100.0
2194,D4,328.0,4.0,95,100.0
2195,C4,328.0,4.0,95,100.0
2196,G4,328.0,0.75,63,100.0
2197,C4,328.0,0.75,63,100.0
2198,D4,328.25,0.25,95,100.0
2199,G4,328.75,0.25,95,100.0
2200,F1,328.75,0.25,95,100.0
2201,G4,328.75,0.25,63,100.0
2202,C4,328.75,0.25,63,100.0
2203,G4,328.75,0.25,71,100.0
2204,E4,328.75,0.25,71,100.0
2205,G4,329.25,0.25,95,100.0
2206,F1,329.25,0.25,95,100.0
2207,G4,329.25,0.25,63,100.0
2208,C4,329.25,0.25,63,100.0
2209,B3,329.75,0.75,95,100.0
2210,F1,329.75,0.25,95,100.0
2211,G4,329.75,1.25,63,100.0
2212,C4,329.75,1.25,63,100.0
2213,F1,330.25,0.25,95,100.0
2214,C5,330.5,0.25,95,100.0
2215,C4,330.5,0.25,95,100.0
2216,F1,330.75,0.25,63,100.0
2217,F1,331.0,0.25,79,100.0
2218,C#5,331.0,0.25,95,100.0
2219,C#4,331.0,0.25,95,100.0
2220,F1,331.5,0.25,95,100.0
2221,D5,331.5,0.25,95,100.0
2222,D4,331.5,0.25,95,100.0
2223,G5,332.0,0.25,95,100.0
2224,F1,332.0,0.75,95,100.0
2225,G4,332.0,4.0,95,100.0
2226,E-4,332.0,4.0,95,100.0
2227,C4,332.0,4.0,95,100.0
2228,A3,332.0,4.0,95,100.0
2229,G4,332.0,0.75,63,100.0
2230,C4,332.0,0.75,63,100.0
2231,B4,332.0,4.0,95,100.0
2232,B3,332.0,4.0,95,100.0
2233,G5,332.25,0.5,95,100.0
2234,F5,332.75,0.5,95,100.0
2235,F1,332.75,0.25,95,100.0
2236,G4,332.75,0.25,63,100.0
2237,C4,332.75,0.25,63,100.0
2238,F1,333.25,0.25,95,100.0
2239,G4,333.25,0.25,63,100.0
2240,C4,333.25,0.25,63,100.0
2241,F1,333.75,0.25,95,100.0
2242,G4,333.75,1.25,63,100.0
2243,C4,333.75,1.25,63,100.0
2244,F1,334.25,0.25,95,100.0
2245,D5,334.75,0.5,95,100.0
2246,F1,334.75,0.25,63,100.0
2247,D4,334.75,0.75,63,100.0
2248,C4,334.75,0.75,63,100.0
2249,F1,335.0,0.25,79,100.0
2250,D5,335.25,0.25,95,100.0
2251,C5,335.5,0.25,95,100.0
2252,F1,335.5,0.25,95,100.0
2253,F#4,335.5,0.25,79,100.0
2254,D4,335.5,0.25,79,100.0
2255,B4,336.0,0.75,95,100.0
2256,G4,336.0,4.0,95,100.0
2257,E4,336.0,3.0,63,100.0
2258,C2,336.0,0.75,95,100.0
2259,E4,336.0,0.75,63,100.0
2260,C4,336.0,0.75,63,100.0
2261,A4,336.75,0.5,95,100.0
2262,C2,336.75,0.25,95,100.0
2263,E4,336.75,0.25,63,100.0
2264,C4,336.75,0.25,63,100.0
2265,G4,337.25,0.5,95,100.0
2266,C2,337.25,0.25,95,100.0
2267,E4,337.25,0.25,63,100.0
2268,C4,337.25,0.25,63,100.0
2269,G4,337.75,1.0,95,100.0
2270,C2,337.75,0.25,95,100.0
2271,E4,337.75,1.25,63,100.0
2272,C4,337.75,1.25,63,100.0
2273,C2,338.25,0.25,95,100.0
2274,C2,338.75,0.25,63,100.0
2275,A4,339.0,0.5,95,100.0
2276,B4,339.0,1.0,79,100.0
2277,C2,339.0,0.25,79,100.0
2278,E5,339.5,0.5,95,100.0
2279,C2,339.5,0.25,95,100.0
2280,D5,340.0,0.75,95,100.0
2281,G4,340.0,2.0,95,100.0
2282,A4,340.0,3.0,63,100.0
2283,C2,340.0,0.75,95,100.0
2284,G4,340.0,4.0,95,100.0
2285,E-4,340.0,4.0,95,100.0
2286,C4,340.0,4.0,95,100.0
2287,A3,340.0,4.0,95,100.0
2288,D4,340.0,0.75,63,100.0
2289,A3,340.0,0.75,63,100.0
2290,G4,340.75,0.5,95,100.0
2291,C2,340.75,0.25,95,100.0
2292,D4,340.75,0.25,63,100.0
2293,A3,340.75,0.25,63,100.0
2294,E4,341.25,0.5,95,100.0
2295,C2,341.25,0.25,95,100.0
2296,D4,341.25,0.25,63,100.0
2297,A3,341.25,0.25,63,100.0
2298,D4,341.75,1.0,95,100.0
2299,C2,341.75,0.25,95,100.0
2300,D4,341.75,1.25,63,100.0
2301,A3,341.75,1.25,63,100.0
2302,D5,342.0,1.0,95,100.0
2303,C2,342.25,0.25,95,100.0
2304,C2,342.75,0.25,63,100.0
2305,F#5,343.0,1.0,95,100.0
2306,F#4,343.0,1.0,79,100.0
2307,C2,343.0,0.25,79,100.0
2308,C2,343.5,0.25,95,100.0
2309,D4,343.75,0.125,95,100.0
2310,C4,343.875,0.125,95,100.0
2311,B3,344.0,0.25,95,100.0
2312,G5,344.0,4.0,95,100.0
2313,C3,344.0,4.0,95,100.0
2314,E4,344.0,3.0,63,100.0
2315,C2,344.0,0.75,95,100.0
2316,G4,344.0,4.0,95,100.0
2317,E4,344.0,4.0,95,100.0
2318,D4,344.0,4.0,95,100.0
2319,C4,344.0,4.0,95,100.0
2320,E4,344.0,0.75,63,100.0
2321,C4,344.0,0.75,63,100.0
2322,C4,344.25,0.25,95,100.0
2323,D4,344.5,0.25,95,100.0
2324,E4,344.75,0.25,95,100.0
2325,C2,344.75,0.25,95,100.0
2326,E4,344.75,0.25,63,100.0
2327,C4,344.75,0.25,63,100.0
2328,G4,345.0,0.5,95,100.0
2329,C2,345.25,0.25,95,100.0
2330,E4,345.25,0.25,63,100.0
2331,C4,345.25,0.25,63,100.0
2332,B4,345.5,0.25,95,100.0
2333,G4,345.75,0.25,95,100.0
2334,C2,345.75,0.25,95,100.0
2335,E4,345.75,1.25,63,100.0
2336,C4,345.75,1.25,63,100.0
2337,A4,346.0,0.5,95,100.0
2338,C2,346.25,0.25,95,100.0
2339,C5,346.5,0.25,95,100.0
2340,D5,346.75,0.25,95,100.0
2341,C2,346.75,0.25,63,100.0
2342,B4,347.0,1.0,79,100.0
2343,C2,347.0,0.25,79,100.0
2344,E5,347.25,0.25,95,100.0
2345,C2,347.5,0.25,95,100.0
2346,G5,347.75,0.25,95,100.0
2347,F#5,348.0,0.75,95,100.0
2348,F#5,348.0,4.0,95,100.0
2349,C3,348.0,4.0,95,100.0
2350,A4,348.0,4.0,63,100.0
2351,C2,348.0,0.75,95,100.0
2352,D4,348.0,0.75,63,100.0
2353,A3,348.0,0.75,63,100.0
2354,E5,348.75,0.5,95,100.0
2355,C2,348.75,0.25,95,100.0
2356,D4,348.75,0.25,63,100.0
2357,A3,348.75,0.25,63,100.0
2358,D5,349.25,0.5,95,100.0
2359,C2,349.25,0.25,95,100.0
2360,D4,349.25,0.25,63,100.0
2361,A3,349.25,0.25,63,100.0
2362,D5,349.75,1.0,95,100.0
2363,C2,349.75,0.25,95,100.0
2364,D4,349.75,1.25,63,100.0
2365,A3,349.75,1.25,63,100.0
2366,C2,350.25,0.25,95,100.0
2367,C2,350.75,0.25,63,100.0
2368,C2,351.0,0.25,79,100.0
2369,C2,351.5,0.25,95,100.0
2370,B4,352.0,0.25,95,100.0
2371,G5,352.0,3.0,95,100.0
2372,C3,352.0,4.0,95,100.0
2373,E2,352.0,0.25,95,100.0
2374,G4,352.0,4.0,95,100.0
2375,E4,352.0,4.0,95,100.0
2376,D4,352.0,4.0,95,100.0
2377,C4,352.0,4.0,95,100.0
2378,B4,352.0,0.25,95,100.0
2379,G4,352.0,0.25,95,100.0
2380,E4,352.0,0.25,95,100.0
2381,G4,352.5,0.25,95,100.0
2382,E4,352.75,0.25,95,100.0
2383,B4,353.25,0.25,95,100.0
2384,E2,353.25,0.25,95,100.0
2385,B4,353.25,0.25,95,100.0
2386,G4,353.25,0.25,95,100.0
2387,E4,353.25,0.25,95,100.0
2388,A4,353.75,0.25,95,100.0
2389,B1,353.75,0.25,95,100.0
2390,A4,353.75,0.25,95,100.0
2391,F#4,353.75,0.25,95,100.0
2392,D4,353.75,0.25,95,100.0
2393,C5,354.25,0.75,95,100.0
2394,G1,354.75,0.25,95,100.0
2395,F#4,355.0,0.25,95,100.0
2396,E5,355.0,1.0,95,100.0
2397,E1,355.0,0.25,95,100.0
2398,E4,355.5,0.5,79,100.0
2399,B1,355.5,0.25,95,100.0
2400,E4,356.0,1.0,79,100.0
2401,D5,356.0,4.0,95,100.0
2402,C3,356.0,4.0,95,100.0
2403,C2,356.0,0.25,95,100.0
2404,G4,356.0,4.0,95,100.0
2405,E-4,356.0,4.0,95,100.0
2406,C4,356.0,4.0,95,100.0
2407,A3,356.0,4.0,95,100.0
2408,B4,356.0,0.25,84,100.0
2409,C4,356.0,0.25,84,100.0
2410,G3,356.0,0.25,84,100.0
2411,C2,357.25,0.25,95,100.0
2412,B4,357.25,0.25,84,100.0
2413,C4,357.25,0.25,84,100.0
2414,G3,357.25,0.25,84,100.0
2415,B1,357.75,0.25,95,100.0
2416,A4,357.75,1.0,95,100.0
2417,D4,357.75,1.0,95,100.0
2418,A3,357.75,1.0,95,100.0
2419,E1,358.75,0.25,95,100.0
2420,B1,359.0,0.25,95,100.0
2421,E1,359.5,0.25,95,100.0
2422,G4,360.0,0.25,95,100.0
2423,A1,360.0,0.25,95,100.0
2424,B4,360.0,0.25,95,100.0
2425,G4,360.0,0.25,95,100.0
2426,E4,360.0,0.25,95,100.0
2427,B3,360.5,0.25,95,100.0
2428,C4,360.75,0.25,95,100.0
2429,A4,361.25,0.25,95,100.0
2430,A1,361.25,0.25,95,100.0
2431,B4,361.25,0.25,95,100.0
2432,G4,361.25,0.25,95,100.0
2433,E4,361.25,0.25,95,100.0
2434,D4,361.75,0.25,95,100.0
2435,B1,361.75,0.25,95,100.0
2436,A4,361.75,0.25,95,100.0
2437,F#4,361.75,0.25,95,100.0
2438,D4,361.75,0.25,95,100.0
2439,A4,362.25,0.75,95,100.0
2440,E1,362.75,0.25,95,100.0
2441,F#4,363.0,0.25,95,100.0
2442,B1,363.0,0.25,95,100.0
2443,E4,363.5,0.5,79,100.0
2444,E1,363.5,0.25,95,100.0
2445,E4,364.0,1.0,79,100.0
2446,B4,364.0,0.25,95,100.0
2447,C2,364.0,0.25,95,100.0
2448,G4,364.0,4.0,95,100.0
2449,E-4,364.0,4.0,95,100.0
2450,C4,364.0,4.0,95,100.0
2451,A3,364.0,4.0,95,100.0
2452,B4,364.0,0.25,95,100.0
2453,C4,364.0,0.25,95,100.0
2454,G3,364.0,0.25,95,100.0
2455,G4,364.5,0.25,95,100.0
2456,E4,364.75,0.25,95,100.0
2457,B4,365.25,0.25,95,100.0
2458,C2,365.25,0.25,95,100.0
2459,B4,365.25,0.25,95,100.0
2460,C4,365.25,0.25,95,100.0
2461,G3,365.25,0.25,95,100.0
2462,A4,365.75,0.25,95,100.0
2463,D2,365.75,0.25,95,100.0
2464,A4,365.75,1.0,95,100.0
2465,D4,365.75,1.0,95,100.0
2466,A3,365.75,1.0,95,100.0
2467,A4,366.25,0.25,95,100.0
2468,D4,366.5,0.25,63,100.0
2469,A3,366.75,0.25,63,100.0
2470,D2,366.75,0.25,95,100.0
2471,D4,367.0,0.5,79,100.0
2472,D2,367.0,0.25,95,100.0
2473,E4,367.5,0.25,95,100.0
2474,D2,367.5,0.25,95,100.0
2475,E2,367.75,0.25,95,100.0
2476,A1,368.0,0.25,95,100.0
2477,G4,368.0,4.0,95,100.0
2478,E4,368.0,4.0,95,100.0
2479,D4,368.0,4.0,95,100.0
2480,C4,368.0,4.0,95,100.0
2481,E4,368.0,0.25,95,100.0
2482,C4,368.0,0.25,95,100.0
2483,G3,368.0,0.25,95,100.0
2484,A1,369.25,0.25,95,100.0
2485,E4,369.25,0.25,95,100.0
2486,C4,369.25,0.25,95,100.0
2487,G3,369.25,0.25,95,100.0
2488,B1,369.75,0.25,95,100.0
2489,F#4,369.75,0.25,95,100.0
2490,D4,369.75,0.25,95,100.0
2491,A3,369.75,0.25,95,100.0
2492,A1,371.75,0.25,95,100.0
2493,G4,371.75,0.25,95,100.0
2494,D4,371.75,0.25,95,100.0
2495,B4,372.0,0.25,95,100.0
2496,A1,372.0,0.5,95,100.0
2497,G4,372.0,0.5,95,100.0
2498,D4,372.0,0.5,95,100.0
2499,G4,372.5,0.25,95,100.0
2500,B1,372.5,0.25,95,100.0
2501,A4,372.5,0.25,95,100.0
2502,F#4,372.5,0.25,95,100.0
2503,D4,372.5,0.25,95,100.0
2504,A4,372.75,0.25,95,100.0
2505,C2,373.0,0.25,95,100.0
2506,G4,373.0,0.25,95,100.0
2507,E4,373.0,0.25,95,100.0
2508,C4,373.0,0.25,95,100.0
2509,E5,373.25,0.25,95,100.0
2510,C5,373.75,1.0,95,100.0
2511,B1,374.0,1.0,95,100.0
2512,A4,374.0,0.375,95,100.0
2513,F#4,374.0,0.375,95,100.0
2514,D4,374.0,0.375,95,100.0
2515,B-1,375.0,0.75,95,100.0
2516,G#4,375.0,0.75,95,100.0
2517,F4,375.0,0.75,95,100.0
2518,C#4,375.0,0.75,95,100.0
2519,A1,375.75,0.25,95,100.0
2520,G4,375.75,0.25,95,100.0
2521,E4,375.75,0.25,95,100.0
2522,C4,375.75,0.25,95,100.0
2523,G4,376.0,4.0,95,100.0
2524,E4,376.0,4.0,95,100.0
2525,D4,376.0,4.0,95,100.0
2526,C4,376.0,4.0,95,100.0
2527,C4,376.75,0.25,63,100.0
2528,G4,377.0,0.25,79,100.0
2529,A4,377.25,0.25,95,100.0
2530,A1,377.25,0.25,95,100.0
2531,G4,377.25,0.25,95,100.0
2532,E4,377.25,0.25,95,100.0
2533,C4,377.25,0.25,95,100.0
2534,B4,377.5,0.25,95,100.0
2535,A4,377.75,0.25,95,100.0
2536,B1,377.75,0.25,95,100.0
2537,A4,377.75,0.25,95,100.0
2538,F#4,377.75,0.25,95,100.0
2539,D4,377.75,0.25,95,100.0
2540,B4,379.0,0.25,95,100.0
2541,C5,379.25,0.25,95,100.0
2542,D5,379.5,0.25,95,100.0
2543,D5,379.75,0.25,95,100.0
2544,E1,379.75,0.25,95,100.0
2545,G4,380.0,4.0,63,100.0
2546,D5,380.0,0.5,95,100.0
2547,E1,380.0,0.5,95,100.0
2548,G4,380.0,4.0,95,100.0
2549,E-4,380.0,4.0,95,100.0
2550,C4,380.0,4.0,95,100.0
2551,A3,380.0,4.0,95,100.0
2552,B4,380.083,3917/1000,63,100.0
2553,D5,380.167,3833/1000,63,100.0
2554,F#5,380.25,3.75,63,100.0
2555,E5,380.5,0.5,95,100.0
2556,B-4,381.0,0.125,95,100.0
2557,A4,381.125,0.125,95,100.0
2558,G4,381.25,0.125,95,100.0
2559,E1,381.25,0.25,95,100.0
2560,E4,381.375,0.25,95,100.0
2561,E1,381.75,2.0,95,100.0
2562,G4,382.0,0.25,95,100.0
2563,B3,382.25,0.25,111,100.0
2564,E4,382.75,0.25,111,100.0
2565,G#4,383.0,0.75,95,100.0
2566,G4,383.0,0.25,111,100.0
2567,A4,383.25,0.25,111,100.0
2568,F#4,383.5,0.25,111,100.0
2569,G4,383.75,0.25,95,100.0
2570,A1,384.0,0.25,95,100.0
2571,E4,384.0,0.25,95,100.0
2572,C4,384.0,0.25,95,100.0
2573,G3,384.0,0.25,95,100.0
2574,C4,384.75,0.25,63,100.0
2575,G4,385.0,0.25,79,100.0
2576,A4,385.25,0.25,95,100.0
2577,A1,385.25,0.25,95,100.0
2578,E4,385.25,0.25,95,100.0
2579,C4,385.25,0.25,95,100.0
2580,G3,385.25,0.25,95,100.0
2581,B4,385.5,0.25,95,100.0
2582,A4,385.75,0.75,95,100.0
2583,B1,385.75,0.25,95,100.0
2584,F#4,385.75,0.25,95,100.0
2585,D4,385.75,0.25,95,100.0
2586,A3,385.75,0.25,95,100.0
2587,G4,386.5,0.25,95,100.0
2588,G4,387.0,0.5,95,100.0
2589,A4,387.5,0.5,95,100.0
2590,C2,387.75,0.25,95,100.0
2591,G4,387.75,0.25,95,100.0
2592,E-4,387.75,0.25,95,100.0
2593,B-3,387.75,0.25,95,100.0
2594,E4,388.0,0.75,95,100.0
2595,C2,388.0,0.5,95,100.0
2596,G4,388.0,4.0,95,100.0
2597,E-4,388.0,4.0,95,100.0
2598,C4,388.0,4.0,95,100.0
2599,A3,388.0,4.0,95,100.0
2600,G4,388.0,0.5,95,100.0
2601,E-4,388.0,0.5,95,100.0
2602,B-3,388.0,0.5,95,100.0
2603,D2,388.5,0.25,95,100.0
2604,F4,388.5,0.25,95,100.0
2605,E-4,388.5,0.25,95,100.0
2606,B-3,388.5,0.25,95,100.0
2607,D4,388.75,2.0,95,100.0
2608,C2,389.0,0.25,95,100.0
2609,G4,389.0,0.25,95,100.0
2610,E-4,389.0,0.25,95,100.0
2611,B-3,389.0,0.25,95,100.0
2612,D2,390.0,1.0,95,100.0
2613,A4,390.0,0.25,95,100.0
2614,F4,390.0,0.25,95,100.0
2615,C4,390.0,0.25,95,100.0
2616,D2,391.0,0.75,95,100.0
2617,A4,391.0,0.75,95,100.0
2618,F4,391.0,0.75,95,100.0
2619,C4,391.0,0.75,95,100.0
2620,C2,391.75,0.25,95,100.0
2621,G4,391.75,0.25,95,100.0
2622,E-4,391.75,0.25,95,100.0
2623,B-3,391.75,0.25,95,100.0
2624,G4,392.0,4.0,95,100.0
2625,E4,392.0,4.0,95,100.0
2626,D4,392.0,4.0,95,100.0
2627,C4,392.0,4.0,95,100.0
2628,C4,392.75,0.25,63,100.0
2629,G4,393.0,0.25,79,100.0
2630,A4,393.25,0.25,95,100.0
2631,C2,393.25,0.25,95,100.0
2632,G4,393.25,0.25,95,100.0
2633,E-4,393.25,0.25,95,100.0
2634,B-3,393.25,0.25,95,100.0
2635,B4,393.5,0.25,95,100.0
2636,A4,393.75,0.25,95,100.0
2637,D2,393.75,0.25,95,100.0
2638,A4,393.75,0.25,95,100.0
2639,F4,393.75,0.25,95,100.0
2640,C4,393.75,0.25,95,100.0
2641,D4,394.75,0.25,95,100.0
2642,B4,395.0,0.25,95,100.0
2643,C5,395.25,0.25,95,100.0
2644,D5,395.5,0.25,95,100.0
2645,D5,395.75,0.25,95,100.0
2646,A1,395.75,0.25,95,100.0
2647,D5,396.0,0.5,95,100.0
2648,A1,396.0,0.5,95,100.0
2649,G4,396.0,0.25,95,100.0
2650,E4,396.0,0.25,95,100.0
2651,C#4,396.0,0.25,95,100.0
2652,C5,396.5,0.25,95,100.0
2653,G4,396.5,0.25,95,100.0
2654,E4,396.5,0.25,95,100.0
2655,C#4,396.5,0.25,95,100.0
2656,B-4,397.0,0.25,95,100.0
2657,A1,397.25,0.25,95,100.0
2658,G4,397.25,0.25,95,100.0
2659,E4,397.25,0.25,95,100.0
2660,C#4,397.25,0.25,95,100.0
2661,C5,397.5,0.25,95,100.0
2662,A1,397.75,2.0,95,100.0
2663,G4,397.75,2.0,95,100.0
2664,E4,397.75,2.0,95,100.0
2665,C#4,397.75,2.0,95,100.0
2666,C5,398.0,0.25,95,100.0
2667,B-4,399.0,0.75,95,100.0
2668,B-4,399.75,0.25,95,100.0
2669,A4,399.75,0.125,95,100.0
2670,G3,399.75,0.125,95,100.0
2671,G4,399.875,0.125,95,100.0
2672,E3,399.875,0.125,95,100.0
2673,B3,400.0,0.5,95,100.0
2674,B3,400.0,4.0,95,100.0
2675,E1,400.0,0.5,95,100.0
2676,G4,400.0,4.0,95,100.0
2677,E4,400.0,4.0,95,100.0
2678,D4,400.0,4.0,95,100.0
2679,C4,400.0,4.0,95,100.0
2680,G4,400.0,0.25,95,100.0
2681,E4,400.0,0.25,95,100.0
2682,B3,400.0,0.25,95,100.0
2683,B3,400.75,0.25,95,100.0
2684,C4,401.25,0.25,95,100.0
2685,B-4,401.25,0.25,95,100.0
2686,E1,401.25,0.25,95,100.0
2687,G4,401.25,0.25,95,100.0
2688,E4,401.25,0.25,95,100.0
2689,B3,401.25,0.25,95,100.0
2690,B3,401.75,0.5,95,100.0
2691,C5,401.75,0.25,95,100.0
2692,E1,401.75,0.75,95,100.0
2693,G4,401.75,2.0,95,100.0
2694,E4,401.75,2.0,95,100.0
2695,B3,401.75,2.0,95,100.0
2696,E3,402.5,0.5,79,100.0
2697,E1,402.75,0.25,63,100.0
2698,G3,403.0,0.25,79,100.0
2699,E1,403.0,0.5,95,100.0
2700,E3,403.5,0.25,79,100.0
2701,C5,403.5,0.125,95,100.0
2702,E1,403.5,0.25,79,100.0
2703,B4,403.625,0.125,95,100.0
2704,B-4,403.75,0.125,95,100.0
2705,A4,403.875,0.125,95,100.0
2706,B3,404.0,0.5,95,100.0
2707,A4,404.0,2.0,95,100.0
2708,B3,404.0,4.0,95,100.0
2709,C#2,404.0,0.5,95,100.0
2710,G4,404.0,4.0,95,100.0
2711,E-4,404.0,4.0,95,100.0
2712,C4,404.0,4.0,95,100.0
2713,A3,404.0,4.0,95,100.0
2714,G4,404.0,0.25,95,100.0
2715,E4,404.0,0.25,95,100.0
2716,A3,404.0,0.25,95,100.0
2717,B3,404.75,0.25,95,100.0
2718,B3,405.25,0.25,95,100.0
2719,C#2,405.25,0.25,95,100.0
2720,G4,405.25,0.25,95,100.0
2721,E4,405.25,0.25,95,100.0
2722,A3,405.25,0.25,95,100.0
2723,D4,405.75,0.25,95,100.0
2724,C#2,405.75,0.75,95,100.0
2725,G4,405.75,2.0,95,100.0
2726,E4,405.75,2.0,95,100.0
2727,A3,405.75,2.0,95,100.0
2728,D4,406.25,0.25,95,100.0
2729,C4,406.5,0.25,95,100.0
2730,C#2,406.75,0.25,95,100.0
2731,B3,407.0,0.25,95,100.0
2732,C#2,407.0,0.5,95,100.0
2733,C4,407.5,0.25,95,100.0
2734,C#2,407.5,0.25,95,100.0
2735,B3,408.0,0.75,95,100.0
2736,A4,408.0,0.25,95,100.0
2737,E3,408.0,4.0,95,100.0
2738,C2,408.0,0.5,95,100.0
2739,G4,408.0,0.25,95,100.0
2740,E4,408.0,0.25,95,100.0
2741,B3,408.0,0.25,95,100.0
2742,C5,408.5,0.25,95,100.0
2743,B3,408.75,0.25,95,100.0
2744,B4,408.75,0.25,95,100.0
2745,A3,409.25,0.25,95,100.0
2746,C5,409.25,0.25,95,100.0
2747,C2,409.25,0.25,95,100.0
2748,G4,409.25,0.25,95,100.0
2749,E4,409.25,0.25,95,100.0
2750,B3,409.25,0.25,95,100.0
2751,G3,409.75,2.0,95,100.0
2752,A4,409.75,1.0,95,100.0
2753,C2,409.75,0.75,95,100.0
2754,G4,409.75,2.0,95,100.0
2755,E4,409.75,2.0,95,100.0
2756,B3,409.75,2.0,95,100.0
2757,G1,410.75,0.25,63,100.0
2758,G1,411.0,0.5,95,100.0
2759,E4,411.5,0.25,95,100.0
2760,E1,411.5,0.25,95,100.0
2761,C2,411.75,0.25,95,100.0
2762,B4,412.0,0.25,95,100.0
2763,A4,412.0,1.0,63,100.0
2764,C2,412.0,1.0,95,100.0
2765,G4,412.0,4.0,95,100.0
2766,E-4,412.0,4.0,95,100.0
2767,C4,412.0,4.0,95,100.0
2768,A3,412.0,4.0,95,100.0
2769,G4,412.0,1.0,95,100.0
2770,E4,412.0,1.0,95,100.0
2771,B3,412.0,1.0,95,100.0
2772,C5,412.5,0.25,95,100.0
2773,B4,412.75,0.25,95,100.0
2774,C5,413.25,0.25,95,100.0
2775,E4,413.25,0.25,95,100.0
2776,G1,413.25,0.25,63,100.0
2777,G4,413.25,0.25,95,100.0
2778,E4,413.25,0.25,95,100.0
2779,B3,413.25,0.25,95,100.0
2780,G4,413.5,0.25,95,100.0
2781,A1,413.5,0.25,79,100.0
2782,A4,413.75,0.75,95,100.0
2783,D5,413.75,1.25,95,100.0
2784,B1,413.75,1.0,95,100.0
2785,G4,413.75,2.25,95,100.0
2786,E-4,413.75,2.25,95,100.0
2787,A3,413.75,2.25,95,100.0
2788,A4,414.5,0.25,95,100.0
2789,B1,414.75,0.25,95,100.0
2790,G4,415.0,0.25,95,100.0
2791,C5,415.0,1.0,95,100.0
2792,A1,415.0,1.0,95,100.0
2793,A4,415.5,0.25,95,100.0
2794,B3,416.0,0.5,95,100.0
2795,A4,416.0,0.75,95,100.0
2796,B4,416.0,4.0,95,100.0
2797,B3,416.0,4.0,95,100.0
2798,E1,416.0,0.5,95,100.0
2799,B4,416.0,4.0,95,100.0
2800,G4,416.0,4.0,95,100.0
2801,E4,416.0,4.0,95,100.0
2802,C4,416.0,4.0,95,100.0
2803,G4,416.0,0.25,95,100.0
2804,E4,416.0,0.25,95,100.0
2805,B3,416.0,0.25,95,100.0
2806,B3,416.75,0.25,95,100.0
2807,E4,416.75,2.0,95,100.0
2808,C4,417.25,0.25,95,100.0
2809,E1,417.25,0.25,95,100.0
2810,G4,417.25,0.25,95,100.0
2811,E4,417.25,0.25,95,100.0
2812,B3,417.25,0.25,95,100.0
2813,B3,417.75,0.5,95,100.0
2814,E1,417.75,0.75,95,100.0
2815,G4,417.75,2.0,95,100.0
2816,E4,417.75,2.0,95,100.0
2817,B3,417.75,2.0,95,100.0
2818,E3,418.5,0.5,79,100.0
2819,E1,418.75,0.25,63,100.0
2820,G3,419.0,0.25,79,100.0
2821,E1,419.0,0.5,95,100.0
2822,E3,419.5,0.25,79,100.0
2823,E1,419.5,0.25,79,100.0
2824,B3,420.0,0.5,95,100.0
2825,G4,420.0,0.75,95,100.0
2826,B3,420.0,4.0,95,100.0
2827,C#2,420.0,0.5,95,100.0
2828,A4,420.0,4.0,95,100.0
2829,F#4,420.0,4.0,95,100.0
2830,E4,420.0,4.0,95,100.0
2831,D4,420.0,4.0,95,100.0
2832,G4,420.0,0.25,95,100.0
2833,E4,420.0,0.25,95,100.0
2834,A3,420.0,0.25,95,100.0
2835,B3,420.75,0.25,95,100.0
2836,G4,420.75,2.0,95,100.0
2837,B3,421.25,0.25,95,100.0
2838,C#2,421.25,0.25,95,100.0
2839,G4,421.25,0.25,95,100.0
2840,E4,421.25,0.25,95,100.0
2841,A3,421.25,0.25,95,100.0
2842,D4,421.75,0.25,95,100.0
2843,C#2,421.75,0.75,95,100.0
2844,G4,421.75,2.0,95,100.0
2845,E4,421.75,2.0,95,100.0
2846,A3,421.75,2.0,95,100.0
2847,D4,422.25,0.25,95,100.0
2848,C4,422.5,0.25,95,100.0
2849,C#2,422.75,0.25,95,100.0
2850,B3,423.0,0.25,95,100.0
2851,C#2,423.0,0.5,95,100.0
2852,C4,423.5,0.25,95,100.0
2853,C#2,423.5,0.25,95,100.0
2854,B3,424.0,0.75,95,100.0
2855,A4,424.0,0.25,95,100.0
2856,E3,424.0,4.0,95,100.0
2857,C2,424.0,0.5,95,100.0
2858,B4,424.0,4.0,95,100.0
2859,G4,424.0,4.0,95,100.0
2860,E4,424.0,4.0,95,100.0
2861,C4,424.0,4.0,95,100.0
2862,G4,424.0,0.25,95,100.0
2863,E4,424.0,0.25,95,100.0
2864,B3,424.0,0.25,95,100.0
2865,C5,424.5,0.25,95,100.0
2866,B3,424.75,0.25,95,100.0
2867,B4,424.75,0.25,95,100.0
2868,A3,425.25,0.25,95,100.0
2869,C5,425.25,0.25,95,100.0
2870,C2,425.25,0.25,95,100.0
2871,G4,425.25,0.25,95,100.0
2872,E4,425.25,0.25,95,100.0
2873,B3,425.25,0.25,95,100.0
2874,G3,425.75,2.0,95,100.0
2875,A4,425.75,1.0,95,100.0
2876,C2,425.75,0.75,95,100.0
2877,G4,425.75,2.0,95,100.0
2878,E4,425.75,2.0,95,100.0
2879,B3,425.75,2.0,95,100.0
2880,G1,426.75,0.25,63,100.0
2881,G1,427.0,0.5,95,100.0
2882,E4,427.5,0.25,95,100.0
2883,E1,427.5,0.25,95,100.0
2884,C2,427.75,0.25,95,100.0
2885,B4,428.0,0.25,95,100.0
2886,A4,428.0,1.0,63,100.0
2887,C2,428.0,1.0,95,100.0
2888,A4,428.0,4.0,95,100.0
2889,F#4,428.0,4.0,95,100.0
2890,E4,428.0,4.0,95,100.0
2891,D4,428.0,4.0,95,100.0
2892,G4,428.0,1.0,95,100.0
2893,E4,428.0,1.0,95,100.0
2894,B3,428.0,1.0,95,100.0
2895,C5,428.5,0.25,95,100.0
2896,B4,428.75,0.25,95,100.0
2897,C5,429.25,0.25,95,100.0
2898,E4,429.25,0.25,95,100.0
2899,G1,429.25,0.25,63,100.0
2900,G4,429.25,0.25,95,100.0
2901,E4,429.25,0.25,95,100.0
2902,B3,429.25,0.25,95,100.0
2903,G4,429.5,0.25,95,100.0
2904,A1,429.5,0.25,79,100.0
2905,A4,429.75,0.75,95,100.0
2906,D5,429.75,1.25,95,100.0
2907,B1,429.75,1.0,95,100.0
2908,G4,429.75,2.25,95,100.0
2909,E4,429.75,2.25,95,100.0
2910,B3,429.75,2.25,95,100.0
2911,A4,430.5,0.25,95,100.0
2912,B1,430.75,0.25,95,100.0
2913,G4,431.0,0.25,95,100.0
2914,C5,431.0,1.0,95,100.0
2915,A1,431.0,1.0,95,100.0
2916,E5,431.5,0.25,95,100.0
2917,B3,432.0,0.5,95,100.0
2918,C5,432.0,0.75,95,100.0
2919,B3,432.0,4.0,95,100.0
2920,E1,432.0,0.5,95,100.0
2921,B4,432.0,0.25,95,100.0
2922,G4,432.0,0.25,95,100.0
2923,E4,432.0,0.25,95,100.0
2924,D4,432.0,0.25,95,100.0
2925,G4,432.0,0.25,95,100.0
2926,E4,432.0,0.25,95,100.0
2927,B3,432.0,0.25,95,100.0
2928,B3,432.75,0.25,95,100.0
2929,B4,432.75,2.0,95,100.0
2930,C4,433.25,0.25,95,100.0
2931,E1,433.25,0.25,95,100.0
2932,B4,433.25,0.25,95,100.0
2933,G4,433.25,0.25,95,100.0
2934,E4,433.25,0.25,95,100.0
2935,D4,433.25,0.25,95,100.0
2936,G4,433.25,0.25,95,100.0
2937,E4,433.25,0.25,95,100.0
2938,B3,433.25,0.25,95,100.0
2939,B3,433.75,0.5,95,100.0
2940,E1,433.75,0.75,95,100.0
2941,A4,433.75,1.75,95,100.0
2942,F#4,433.75,1.75,95,100.0
2943,D4,433.75,1.75,95,100.0
2944,A3,433.75,1.75,95,100.0
2945,G4,433.75,2.0,95,100.0
2946,E4,433.75,2.0,95,100.0
2947,B3,433.75,2.0,95,100.0
2948,E3,434.5,0.5,79,100.0
2949,E1,434.75,0.25,63,100.0
2950,G3,435.0,0.25,79,100.0
2951,E1,435.0,0.5,95,100.0
2952,E3,435.5,0.25,79,100.0
2953,E1,435.5,0.25,79,100.0
2954,B3,436.0,0.5,95,100.0
2955,C4,436.0,0.25,95,100.0
2956,G4,436.0,0.75,95,100.0
2957,B3,436.0,4.0,95,100.0
2958,C#2,436.0,0.5,95,100.0
2959,G4,436.0,0.25,95,100.0
2960,E4,436.0,0.25,95,100.0
2961,A3,436.0,0.25,95,100.0
2962,B3,436.75,0.25,95,100.0
2963,G4,436.75,2.0,95,100.0
2964,B3,437.25,0.25,95,100.0
2965,C4,437.25,0.25,95,100.0
2966,C#2,437.25,0.25,95,100.0
2967,G4,437.25,0.25,95,100.0
2968,E4,437.25,0.25,95,100.0
2969,A3,437.25,0.25,95,100.0
2970,D4,437.75,0.25,95,100.0
2971,C#2,437.75,0.75,95,100.0
2972,A4,437.75,2.25,95,100.0
2973,F#4,437.75,2.25,95,100.0
2974,E4,437.75,2.25,95,100.0
2975,D4,437.75,2.25,95,100.0
2976,G4,437.75,2.0,95,100.0
2977,E4,437.75,2.0,95,100.0
2978,A3,437.75,2.0,95,100.0
2979,D4,438.25,0.25,95,100.0
2980,C4,438.5,0.25,95,100.0
2981,C#2,438.75,0.25,95,100.0
2982,B3,439.0,0.25,95,100.0
2983,C#2,439.0,0.5,95,100.0
2984,C4,439.5,0.25,95,100.0
2985,C#2,439.5,0.25,95,100.0
2986,B3,440.0,0.75,95,100.0
2987,A4,440.0,0.25,95,100.0
2988,E3,440.0,4.0,95,100.0
2989,C2,440.0,0.5,95,100.0
2990,G4,440.0,0.25,95,100.0
2991,E4,440.0,0.25,95,100.0
2992,C4,440.0,0.25,95,100.0
2993,G4,440.0,0.25,95,100.0
2994,E4,440.0,0.25,95,100.0
2995,B3,440.0,0.25,95,100.0
2996,C5,440.5,0.25,95,100.0
2997,B3,440.75,0.25,95,100.0
2998,B4,440.75,0.25,95,100.0
2999,A3,441.25,0.25,95,100.0
3000,C5,441.25,0.25,95,100.0
3001,C2,441.25,0.25,95,100.0
3002,G4,441.25,0.25,95,100.0
3003,E4,441.25,0.25,95,100.0
3004,C4,441.25,0.25,95,100.0
3005,G4,441.25,0.25,95,100.0
3006,E4,441.25,0.25,95,100.0
3007,B3,441.25,0.25,95,100.0
3008,G3,441.75,2.0,95,100.0
3009,A4,441.75,1.0,95,100.0
3010,C2,441.75,0.75,95,100.0
3011,A4,441.75,1.75,95,100.0
3012,F#4,441.75,1.75,95,100.0
3013,D4,441.75,1.75,95,100.0
3014,G4,441.75,2.0,95,100.0
3015,E4,441.75,2.0,95,100.0
3016,B3,441.75,2.0,95,100.0
3017,G1,442.75,0.25,63,100.0
3018,G1,443.0,0.5,95,100.0
3019,E4,443.5,0.25,95,100.0
3020,E1,443.5,0.25,95,100.0
3021,C2,443.75,0.25,95,100.0
3022,C4,444.0,0.25,95,100.0
3023,B4,444.0,0.25,95,100.0
3024,A4,444.0,1.0,63,100.0
3025,C2,444.0,1.0,95,100.0
3026,G4,444.0,1.0,95,100.0
3027,E4,444.0,1.0,95,100.0
3028,B3,444.0,1.0,95,100.0
3029,C5,444.5,0.25,95,100.0
3030,B4,444.75,0.25,95,100.0
3031,C4,445.25,0.25,95,100.0
3032,C5,445.25,0.25,95,100.0
3033,E4,445.25,0.25,95,100.0
3034,G1,445.25,0.25,63,100.0
3035,G4,445.25,0.25,95,100.0
3036,E4,445.25,0.25,95,100.0
3037,B3,445.25,0.25,95,100.0
3038,G4,445.5,0.25,95,100.0
3039,A1,445.5,0.25,79,100.0
3040,A4,445.75,0.75,95,100.0
3041,D5,445.75,1.25,95,100.0
3042,B1,445.75,1.0,95,100.0
3043,A4,445.75,2.25,95,100.0
3044,F#4,445.75,2.25,95,100.0
3045,E4,445.75,2.25,95,100.0
3046,D4,445.75,2.25,95,100.0
3047,G4,445.75,2.25,95,100.0
3048,E-4,445.75,2.25,95,100.0
3049,A3,445.75,2.25,95,100.0
3050,A4,446.5,0.25,95,100.0
3051,B1,446.75,0.25,95,100.0
3052,G4,447.0,0.25,95,100.0
3053,C5,447.0,1.0,95,100.0
3054,A1,447.0,1.0,95,100.0
3055,A4,447.5,0.25,95,100.0
3056,B3,448.0,0.5,95,100.0
3057,A4,448.0,0.75,95,100.0
3058,B4,448.0,4.0,95,100.0
3059,B3,448.0,4.0,95,100.0
3060,E1,448.0,0.5,95,100.0
3061,G4,448.0,0.25,95,100.0
3062,E4,448.0,0.25,95,100.0
3063,B3,448.0,0.25,95,100.0
3064,B3,448.75,0.25,95,100.0
3065,E4,448.75,2.0,95,100.0
3066,C4,449.25,0.25,95,100.0
3067,E1,449.25,0.25,95,100.0
3068,G4,449.25,0.25,95,100.0
3069,E4,449.25,0.25,95,100.0
3070,B3,449.25,0.25,95,100.0
3071,B3,449.75,0.5,95,100.0
3072,E1,449.75,0.75,95,100.0
3073,G4,449.75,2.0,95,100.0
3074,E4,449.75,2.0,95,100.0
3075,B3,449.75,2.0,95,100.0
3076,E3,450.5,0.5,79,100.0
3077,E1,450.75,0.25,63,100.0
3078,G3,451.0,0.25,79,100.0
3079,E1,451.0,0.5,95,100.0
3080,E3,451.5,0.25,79,100.0
3081,E1,451.5,0.25,79,100.0
3082,B3,452.0,0.5,95,100.0
3083,G4,452.0,0.75,95,100.0
3084,B3,452.0,4.0,95,100.0
3085,C#2,452.0,0.5,95,100.0
3086,G4,452.0,0.25,95,100.0
3087,E4,452.0,0.25,95,100.0
3088,A3,452.0,0.25,95,100.0
3089,B3,452.75,0.25,95,100.0
3090,G4,452.75,2.0,95,100.0
3091,B3,453.25,0.25,95,100.0
3092,C#2,453.25,0.25,95,100.0
3093,G4,453.25,0.25,95,100.0
3094,E4,453.25,0.25,95,100.0
3095,A3,453.25,0.25,95,100.0
3096,D4,453.75,0.25,95,100.0
3097,C#2,453.75,0.75,95,100.0
3098,G4,453.75,2.0,95,100.0
3099,E4,453.75,2.0,95,100.0
3100,A3,453.75,2.0,95,100.0
3101,D4,454.25,0.25,95,100.0
3102,C4,454.5,0.25,95,100.0
3103,C#2,454.75,0.25,95,100.0
3104,B3,455.0,0.25,95,100.0
3105,C#2,455.0,0.5,95,100.0
3106,F#4,455.25,0.25,95,100.0
3107,C4,455.5,0.25,95,100.0
3108,G4,455.5,0.25,95,100.0
3109,C#2,455.5,0.25,95,100.0
3110,A4,455.75,0.25,95,100.0
3111,B3,456.0,0.75,95,100.0
3112,A4,456.0,0.5,95,100.0
3113,E3,456.0,4.0,95,100.0
3114,C2,456.0,0.5,95,100.0
3115,G4,456.0,0.25,95,100.0
3116,E4,456.0,0.25,95,100.0
3117,B3,456.0,0.25,95,100.0
3118,C5,456.5,0.25,95,100.0
3119,B3,456.75,0.25,95,100.0
3120,B4,456.75,0.25,95,100.0
3121,A3,457.25,0.25,95,100.0
3122,C5,457.25,0.25,95,100.0
3123,C2,457.25,0.25,95,100.0
3124,G4,457.25,0.25,95,100.0
3125,E4,457.25,0.25,95,100.0
3126,B3,457.25,0.25,95,100.0
3127,G3,457.75,2.0,95,100.0
3128,A4,457.75,1.0,95,100.0
3129,C2,457.75,0.75,95,100.0
3130,G4,457.75,2.0,95,100.0
3131,E4,457.75,2.0,95,100.0
3132,B3,457.75,2.0,95,100.0
3133,G1,458.75,0.25,63,100.0
3134,G1,459.0,0.5,95,100.0
3135,E4,459.5,0.25,95,100.0
3136,E1,459.5,0.25,95,100.0
3137,C2,459.75,0.25,95,100.0
3138,B4,460.0,0.25,95,100.0
3139,A4,460.0,1.0,63,100.0
3140,C2,460.0,1.0,95,100.0
3141,A4,460.0,4.0,95,100.0
3142,F#4,460.0,4.0,95,100.0
3143,E4,460.0,4.0,95,100.0
3144,D4,460.0,4.0,95,100.0
3145,G4,460.0,1.0,95,100.0
3146,E4,460.0,1.0,95,100.0
3147,B3,460.0,1.0,95,100.0
3148,C5,460.5,0.25,95,100.0
3149,B4,460.75,0.25,95,100.0
3150,C5,461.25,0.25,95,100.0
3151,E4,461.25,0.25,95,100.0
3152,G1,461.25,0.25,63,100.0
3153,G4,461.25,0.25,95,100.0
3154,E4,461.25,0.25,95,100.0
3155,B3,461.25,0.25,95,100.0
3156,G4,461.5,0.25,95,100.0
3157,A1,461.5,0.25,79,100.0
3158,A4,461.75,0.75,95,100.0
3159,D5,461.75,1.25,95,100.0
3160,B1,461.75,1.0,95,100.0
3161,G4,461.75,2.25,95,100.0
3162,E4,461.75,2.25,95,100.0
3163,B3,461.75,2.25,95,100.0
3164,A4,462.5,0.25,95,100.0
3165,B1,462.75,0.25,95,100.0
3166,G4,463.0,0.25,95,100.0
3167,C5,463.0,1.0,95,100.0
3168,A1,463.0,1.0,95,100.0
3169,E5,463.5,0.25,95,100.0
3170,B3,464.0,0.5,95,100.0
3171,C5,464.0,0.75,95,100.0
3172,B3,464.0,4.0,95,100.0
3173,E1,464.0,0.5,95,100.0
3174,G4,464.0,0.25,95,100.0
3175,E4,464.0,0.25,95,100.0
3176,B3,464.0,0.25,95,100.0
3177,B3,464.75,0.25,95,100.0
3178,B4,464.75,2.0,95,100.0
3179,C4,465.25,0.25,95,100.0
3180,E1,465.25,0.25,95,100.0
3181,G4,465.25,0.25,95,100.0
3182,E4,465.25,0.25,95,100.0
3183,B3,465.25,0.25,95,100.0
3184,B3,465.75,0.5,95,100.0
3185,E1,465.75,0.75,95,100.0
3186,G4,465.75,2.0,95,100.0
3187,E4,465.75,2.0,95,100.0
3188,B3,465.75,2.0,95,100.0
3189,E3,466.5,0.5,79,100.0
3190,E1,466.75,0.25,63,100.0
3191,G3,467.0,0.25,79,100.0
3192,E1,467.0,0.5,95,100.0
3193,E3,467.5,0.25,79,100.0
3194,E1,467.5,0.25,79,100.0
3195,B3,468.0,0.5,95,100.0
3196,G4,468.0,0.75,95,100.0
3197,B3,468.0,4.0,95,100.0
3198,C#2,468.0,0.5,95,100.0
3199,G4,468.0,0.25,95,100.0
3200,E4,468.0,0.25,95,100.0
3201,A3,468.0,0.25,95,100.0
3202,B3,468.75,0.25,95,100.0
3203,G4,468.75,2.0,95,100.0
3204,B3,469.25,0.25,95,100.0
3205,C#2,469.25,0.25,95,100.0
3206,G4,469.25,0.25,95,100.0
3207,E4,469.25,0.25,95,100.0
3208,A3,469.25,0.25,95,100.0
3209,D4,469.75,0.25,95,100.0
3210,C#2,469.75,0.75,95,100.0
3211,G4,469.75,2.0,95,100.0
3212,E4,469.75,2.0,95,100.0
3213,A3,469.75,2.0,95,100.0
3214,D4,470.25,0.25,95,100.0
3215,C4,470.5,0.25,95,100.0
3216,C#2,470.75,0.25,95,100.0
3217,B3,471.0,0.25,95,100.0
3218,C#2,471.0,0.5,95,100.0
3219,C4,471.5,0.25,95,100.0
3220,C#2,471.5,0.25,95,100.0
3221,B3,472.0,0.75,95,100.0
3222,A4,472.0,0.25,95,100.0
3223,E3,472.0,4.0,95,100.0
3224,C2,472.0,0.5,95,100.0
3225,G4,472.0,0.25,95,100.0
3226,E4,472.0,0.25,95,100.0
3227,B3,472.0,0.25,95,100.0
3228,C5,472.5,0.25,95,100.0
3229,B3,472.75,0.25,95,100.0
3230,B4,472.75,0.25,95,100.0
3231,A3,473.25,0.25,95,100.0
3232,C5,473.25,0.25,95,100.0
3233,C2,473.25,0.25,95,100.0
3234,G4,473.25,0.25,95,100.0
3235,E4,473.25,0.25,95,100.0
3236,B3,473.25,0.25,95,100.0
3237,G3,473.75,2.0,95,100.0
3238,A4,473.75,1.0,95,100.0
3239,C2,473.75,0.75,95,100.0
3240,G4,473.75,2.0,95,100.0
3241,E4,473.75,2.0,95,100.0
3242,B3,473.75,2.0,95,100.0
3243,G1,474.75,0.25,63,100.0
3244,G1,475.0,0.5,95,100.0
3245,E4,475.5,0.25,95,100.0
3246,E1,475.5,0.25,95,100.0
3247,C2,475.75,0.25,95,100.0
3248,B4,476.0,0.25,95,100.0
3249,A4,476.0,1.0,63,100.0
3250,C2,476.0,1.0,95,100.0
3251,A4,476.0,0.25,95,100.0
3252,E4,476.0,0.25,95,100.0
3253,C#4,476.0,0.25,95,100.0
3254,G4,476.0,1.0,95,100.0
3255,E4,476.0,1.0,95,100.0
3256,B3,476.0,1.0,95,100.0
3257,C5,476.5,0.25,95,100.0
3258,A4,476.5,0.25,95,100.0
3259,E4,476.5,0.25,95,100.0
3260,C#4,476.5,0.25,95,100.0
3261,B4,476.75,0.25,95,100.0
3262,C5,477.25,0.25,95,100.0
3263,E4,477.25,0.25,95,100.0
3264,G1,477.25,0.25,63,100.0
3265,A4,477.25,0.25,95,100.0
3266,E4,477.25,0.25,95,100.0
3267,C#4,477.25,0.25,95,100.0
3268,G4,477.25,0.25,95,100.0
3269,E4,477.25,0.25,95,100.0
3270,B3,477.25,0.25,95,100.0
3271,G4,477.5,0.25,95,100.0
3272,A1,477.5,0.25,79,100.0
3273,A4,477.75,0.75,95,100.0
3274,D5,477.75,1.25,95,100.0
3275,B1,477.75,1.0,95,100.0
3276,A4,477.75,2.0,95,100.0
3277,E4,477.75,2.0,95,100.0
3278,C#4,477.75,2.0,95,100.0
3279,G4,477.75,2.25,95,100.0
3280,E-4,477.75,2.25,95,100.0
3281,A3,477.75,2.25,95,100.0
3282,A4,478.5,0.25,95,100.0
3283,B1,478.75,0.25,95,100.0
3284,G4,479.0,0.25,95,100.0
3285,C5,479.0,1.0,95,100.0
3286,A1,479.0,1.0,95,100.0
3287,A4,479.5,0.25,95,100.0
3288,B3,480.0,0.5,95,100.0
3289,A4,480.0,0.75,95,100.0
3290,B4,480.0,4.0,95,100.0
3291,B3,480.0,4.0,95,100.0
3292,E1,480.0,0.5,95,100.0
3293,B4,480.0,4.0,95,100.0
3294,G4,480.0,4.0,95,100.0
3295,E4,480.0,4.0,95,100.0
3296,E3,480.0,4.0,95,100.0
3297,G4,480.0,0.25,95,100.0
3298,E4,480.0,0.25,95,100.0
3299,B3,480.0,0.25,95,100.0
3300,B3,480.75,0.25,95,100.0
3301,E4,480.75,2.0,95,100.0
3302,C4,481.25,0.25,95,100.0
3303,E1,481.25,0.25,95,100.0
3304,G4,481.25,0.25,95,100.0
3305,E4,481.25,0.25,95,100.0
3306,B3,481.25,0.25,95,100.0
3307,B3,481.75,0.5,95,100.0
3308,E1,481.75,0.75,95,100.0
3309,G4,481.75,2.0,95,100.0
3310,E4,481.75,2.0,95,100.0
3311,B3,481.75,2.0,95,100.0
3312,E3,482.5,0.5,79,100.0
3313,E1,482.75,0.25,63,100.0
3314,G3,483.0,0.25,79,100.0
3315,E1,483.0,0.5,95,100.0
3316,E3,483.5,0.25,79,100.0
3317,E1,483.5,0.25,79,100.0
3318,B3,484.0,0.5,95,100.0
3319,G4,484.0,0.75,95,100.0
3320,B3,484.0,4.0,95,100.0
3321,C#2,484.0,0.5,95,100.0
3322,B4,484.0,4.0,95,100.0
3323,G4,484.0,4.0,95,100.0
3324,C#4,484.0,4.0,95,100.0
3325,C#3,484.0,4.0,95,100.0
3326,G4,484.0,0.25,95,100.0
3327,E4,484.0,0.25,95,100.0
3328,A3,484.0,0.25,95,100.0
3329,B3,484.75,0.25,95,100.0
3330,G4,484.75,2.0,95,100.0
3331,B3,485.25,0.25,95,100.0
3332,C#2,485.25,0.25,95,100.0
3333,G4,485.25,0.25,95,100.0
3334,E4,485.25,0.25,95,100.0
3335,A3,485.25,0.25,95,100.0
3336,D4,485.75,0.25,95,100.0
3337,C#2,485.75,0.75,95,100.0
3338,G4,485.75,2.0,95,100.0
3339,E4,485.75,2.0,95,100.0
3340,A3,485.75,2.0,95,100.0
3341,D4,486.25,0.25,95,100.0
3342,C4,486.5,0.25,95,100.0
3343,C#2,486.75,0.25,95,100.0
3344,B3,487.0,0.25,95,100.0
3345,C#2,487.0,0.5,95,100.0
3346,F#4,487.25,0.25,95,100.0
3347,C4,487.5,0.25,95,100.0
3348,G4,487.5,0.25,95,100.0
3349,C#2,487.5,0.25,95,100.0
3350,A4,487.75,0.25,95,100.0
3351,B3,488.0,0.75,95,100.0
3352,A4,488.0,0.5,95,100.0
3353,E3,488.0,4.0,95,100.0
3354,C2,488.0,0.5,95,100.0
3355,B4,488.0,4.0,95,100.0
3356,G4,488.0,4.0,95,100.0
3357,E4,488.0,4.0,95,100.0
3358,D4,488.0,4.0,95,100.0
3359,G4,488.0,0.25,95,100.0
3360,E4,488.0,0.25,95,100.0
3361,B3,488.0,0.25,95,100.0
3362,C5,488.5,0.25,95,100.0
3363,B3,488.75,0.25,95,100.0
3364,B4,488.75,0.25,95,100.0
3365,A3,489.25,0.25,95,100.0
3366,C5,489.25,0.25,95,100.0
3367,C2,489.25,0.25,95,100.0
3368,G4,489.25,0.25,95,100.0
3369,E4,489.25,0.25,95,100.0
3370,B3,489.25,0.25,95,100.0
3371,G3,489.75,2.0,95,100.0
3372,A4,489.75,1.0,95,100.0
3373,C2,489.75,0.75,95,100.0
3374,G4,489.75,2.0,95,100.0
3375,E4,489.75,2.0,95,100.0
3376,B3,489.75,2.0,95,100.0
3377,G1,490.75,0.25,63,100.0
3378,G1,491.0,0.5,95,100.0
3379,E4,491.5,0.25,95,100.0
3380,E1,491.5,0.25,95,100.0
3381,C2,491.75,0.25,95,100.0
3382,B4,492.0,0.25,95,100.0
3383,A4,492.0,1.0,63,100.0
3384,C2,492.0,1.0,95,100.0
3385,B4,492.0,4.0,95,100.0
3386,G4,492.0,4.0,95,100.0
3387,E4,492.0,4.0,95,100.0
3388,D4,492.0,4.0,95,100.0
3389,G4,492.0,1.0,95,100.0
3390,E4,492.0,1.0,95,100.0
3391,B3,492.0,1.0,95,100.0
3392,C5,492.5,0.25,95,100.0
3393,B4,492.75,0.25,95,100.0
3394,C5,493.25,0.25,95,100.0
3395,E4,493.25,0.25,95,100.0
3396,G1,493.25,0.25,63,100.0
3397,G4,493.25,0.25,95,100.0
3398,E4,493.25,0.25,95,100.0
3399,B3,493.25,0.25,95,100.0
3400,G4,493.5,0.25,95,100.0
3401,A1,493.5,0.25,79,100.0
3402,A4,493.75,0.75,95,100.0
3403,D5,493.75,1.25,95,100.0
3404,B1,493.75,1.0,95,100.0
3405,G4,493.75,2.25,95,100.0
3406,E4,493.75,2.25,95,100.0
3407,B3,493.75,2.25,95,100.0
3408,A4,494.5,0.25,95,100.0
3409,B1,494.75,0.25,95,100.0
3410,G4,495.0,0.25,95,100.0
3411,C5,495.0,1.0,95,100.0
3412,A1,495.0,1.0,95,100.0
3413,E5,495.5,0.25,95,100.0
3414,C5,496.0,0.75,95,100.0
3415,B4,496.0,4.0,95,100.0
3416,B4,496.0,4.0,95,100.0
3417,G4,496.0,4.0,95,100.0
3418,E4,496.0,4.0,95,100.0
3419,E3,496.0,4.0,95,100.0
3420,B4,496.75,2.0,95,100.0
3421,B1,496.75,0.25,95,100.0
3422,D2,497.0,0.25,95,100.0
3423,B1,497.25,0.25,95,100.0
3424,E2,497.75,0.25,95,100.0
3425,E1,498.25,0.25,95,100.0
3426,E1,498.75,0.25,95,100.0
3427,G1,499.0,0.25,95,100.0
3428,A1,499.5,0.5,95,100.0
3429,G4,500.0,0.75,95,100.0
3430,B4,500.0,1.0,95,100.0
3431,A1,500.0,4.0,95,100.0
3432,B4,500.0,4.0,95,100.0
3433,G4,500.0,4.0,95,100.0
3434,C#4,500.0,4.0,95,100.0
3435,C#3,500.0,4.0,95,100.0
3436,G4,500.75,2.0,95,100.0
3437,B4,504.0,4.0,47,100.0
3438,B4,504.0,4.0,95,100.0
3439,G4,504.0,4.0,95,100.0
3440,E4,504.0,4.0,95,100.0
3441,D4,504.0,4.0,95,100.0
3442,B1,504.75,0.25,95,100.0
3443,D2,505.0,0.25,95,100.0
3444,B1,505.25,0.25,95,100.0
3445,E2,505.75,0.25,95,100.0
3446,E1,506.25,0.25,95,100.0
3447,E1,506.75,0.25,95,100.0
3448,G1,507.0,0.25,95,100.0
3449,A1,507.5,0.5,95,100.0
3450,B4,508.0,1.0,47,100.0
3451,A1,508.0,4.0,95,100.0
3452,B4,508.0,4.0,95,100.0
3453,G4,508.0,4.0,95,100.0
3454,E4,508.0,4.0,95,100.0
3455,D4,508.0,4.0,95,100.0
3456,B4,512.0,4.0,95,100.0
3457,G4,512.0,4.0,95,100.0
3458,E4,512.0,4.0,95,100.0
3459,E3,512.0,4.0,95,100.0
3460,B1,512.75,0.25,95,100.0
3461,D2,513.0,0.25,95,100.0
3462,B1,513.25,0.25,95,100.0
3463,E2,513.75,0.25,95,100.0
3464,E1,514.25,0.25,95,100.0
3465,E1,514.75,0.25,95,100.0
3466,G1,515.0,0.25,95,100.0
3467,A1,515.5,0.5,95,100.0
3468,A1,516.0,4.0,95,100.0
3469,B4,516.0,4.0,95,100.0
3470,G4,516.0,4.0,95,100.0
3471,C#4,516.0,4.0,95,100.0
3472,C#3,516.0,4.0,95,100.0
3473,B4,520.0,4.0,95,100.0
3474,G4,520.0,4.0,95,100.0
3475,E4,520.0,4.0,95,100.0
3476,D4,520.0,4.0,95,100.0
3477,B1,520.75,0.25,95,100.0
3478,D2,521.0,0.25,95,100.0
3479,B1,521.25,0.25,95,100.0
3480,E2,521.75,0.25,95,100.0
3481,E1,522.25,0.25,95,100.0
3482,E1,522.75,0.25,95,100.0
3483,G1,523.0,0.25,95,100.0
3484,A1,523.5,0.5,95,100.0
3485,A1,524.0,4.0,95,100.0
3486,B4,524.0,4.0,95,100.0
3487,G4,524.0,4.0,95,100.0
3488,E4,524.0,4.0,95,100.0
3489,D4,524.0,4.0,95,100.0
3490,B4,528.0,4.0,95,100.0
3491,G4,528.0,4.0,95,100.0
3492,E4,528.0,4.0,95,100.0
3493,E3,528.0,4.0,95,100.0
3494,B1,528.75,0.25,95,100.0
3495,D2,529.0,0.25,95,100.0
3496,B1,529.25,0.25,95,100.0
3497,E2,529.75,0.25,95,100.0
3498,E1,530.25,0.25,95,100.0
3499,E1,530.75,0.25,95,100.0
3500,G1,531.0,0.25,95,100.0
3501,A1,531.5,0.5,95,100.0
3502,A1,532.0,4.0,95,100.0
3503,B4,532.0,4.0,95,100.0
3504,G4,532.0,4.0,95,100.0
3505,C#4,532.0,4.0,95,100.0
3506,C#3,532.0,4.0,95,100.0
3507,B4,536.0,4.0,95,100.0
3508,G4,536.0,4.0,95,100.0
3509,E4,536.0,4.0,95,100.0
3510,D4,536.0,4.0,95,100.0
3511,B1,536.75,0.25,95,100.0
3512,D2,537.0,0.25,95,100.0
3513,B1,537.25,0.25,95,100.0
3514,E2,537.75,0.25,95,100.0
3515,E1,538.25,0.25,95,100.0
3516,E1,538.75,0.25,95,100.0
3517,G1,539.0,0.25,95,100.0
3518,A1,539.5,0.5,95,100.0
3519,A1,540.0,4.0,95,100.0
3520,B4,540.0,4.0,95,100.0
3521,G4,540.0,4.0,95,100.0
3522,E4,540.0,4.0,95,100.0
3523,D4,540.0,4.0,95,100.0
3524,B4,544.0,4.0,95,100.0
3525,G4,544.0,4.0,95,100.0
3526,E4,544.0,4.0,95,100.0
3527,E3,544.0,4.0,95,100.0
3528,B1,544.75,0.25,95,100.0
3529,D2,545.0,0.25,95,100.0
3530,B1,545.25,0.25,95,100.0
3531,E2,545.75,0.25,95,100.0
3532,E1,546.25,0.25,95,100.0
3533,E1,546.75,0.25,95,100.0
3534,G1,547.0,0.25,95,100.0
3535,A1,547.5,0.5,95,100.0
3536,A1,548.0,4.0,95,100.0
3537,B4,548.0,4.0,95,100.0
3538,G4,548.0,4.0,95,100.0
3539,C#4,548.0,4.0,95,100.0
3540,C#3,548.0,4.0,95,100.0
3541,B4,552.0,4.0,95,100.0
3542,G4,552.0,4.0,95,100.0
3543,E4,552.0,4.0,95,100.0
3544,D4,552.0,4.0,95,100.0
3545,B1,552.75,0.25,95,100.0
3546,D2,553.0,0.25,95,100.0
3547,B1,553.25,0.25,95,100.0
3548,E2,553.75,0.25,95,100.0
3549,B4,556.0,4.0,95,100.0
3550,G4,556.0,4.0,95,100.0
3551,E4,556.0,4.0,95,100.0
3552,D4,556.0,4.0,95,100.0
3553,B4,560.0,4.0,95,100.0
3554,G4,560.0,4.0,95,100.0
3555,E4,560.0,4.0,95,100.0
3556,E3,560.0,4.0,95,100.0
3557,B4,564.0,4.0,95,100.0
3558,G4,564.0,4.0,95,100.0
3559,C#4,564.0,4.0,95,100.0
3560,C#3,564.0,4.0,95,100.0
3561,B4,568.0,4.0,95,100.0
3562,G4,568.0,4.0,95,100.0
3563,E4,568.0,4.0,95,100.0
3564,D4,568.0,4.0,95,100.0
3565,B4,572.0,4.0,95,100.0
3566,G4,572.0,4.0,95,100.0
3567,E4,572.0,4.0,95,100.0
3568,D4,572.0,4.0,95,100.0
3569,G4,576.0,1.75,95,100.0
3570,E4,576.0,1.75,95,100.0
3571,C4,576.0,1.75,95,100.0
3572,A3,576.0,1.75,95,100.0
3573,A2,576.0,1.75,95,100.0
3574,A4,577.75,1.75,95,100.0
3575,F#4,577.75,1.75,95,100.0
3576,E4,577.75,1.75,95,100.0
3577,D4,577.75,1.75,95,100.0
3578,B2,577.75,1.75,95,100.0
3579,B4,579.5,0.5,95,100.0
3580,G4,579.5,0.5,95,100.0
3581,E4,579.5,0.5,95,100.0
3582,C4,579.5,0.5,95,100.0
3583,A2,579.5,0.5,95,100.0
3584,B4,584.0,4.0,95,100.0
3585,G4,584.0,4.0,95,100.0
3586,E4,584.0,4.0,95,100.0
3587,C4,584.0,4.0,95,100.0
3588,A2,584.0,4.0,95,100.0
3589,G4,588.0,1.75,95,100.0
3590,E4,588.0,1.75,95,100.0
3591,C4,588.0,1.75,95,100.0
3592,A3,588.0,1.75,95,100.0
3593,A2,588.0,1.75,95,100.0
3594,A4,589.75,1.75,95,100.0
3595,F#4,589.75,1.75,95,100.0
3596,E4,589.75,1.75,95,100.0
3597,D4,589.75,1.75,95,100.0
3598,B2,589.75,1.75,95,100.0
3599,B4,591.5,0.5,95,100.0
3600,G4,591.5,0.5,95,100.0
3601,E4,591.5,0.5,95,100.0
3602,C4,591.5,0.5,95,100.0
3603,A2,591.5,0.5,95,100.0
3604,B4,596.0,4.0,95,100.0
3605,G4,596.0,4.0,95,100.0
3606,E4,596.0,4.0,95,100.0
3607,C4,596.0,4.0,95,100.0
3608,A2,596.0,4.0,95,100.0
3609,G4,600.0,1.75,95,100.0
3610,E4,600.0,1.75,95,100.0
3611,C4,600.0,1.75,95,100.0
3612,A3,600.0,1.75,95,100.0
3613,A2,600.0,1.75,95,100.0
3614,A4,601.75,1.75,95,100.0
3615,F#4,601.75,1.75,95,100.0
3616,E4,601.75,1.75,95,100.0
3617,D4,601.75,1.75,95,100.0
3618,B2,601.75,1.75,95,100.0
3619,B4,603.5,0.5,95,100.0
3620,G4,603.5,0.5,95,100.0
3621,E4,603.5,0.5,95,100.0
3622,C4,603.5,0.5,95,100.0
3623,A2,603.5,0.5,95,100.0
3624,B4,608.0,4.0,95,100.0
3625,G4,608.0,4.0,95,100.0
3626,E4,608.0,4.0,95,100.0
3627,C4,608.0,4.0,95,100.0
3628,A2,608.0,4.0,95,100.0
3629,G4,612.0,1.75,95,100.0
3630,E4,612.0,1.75,95,100.0
3631,C4,612.0,1.75,95,100.0
3632,A3,612.0,1.75,95,100.0
3633,A2,612.0,1.75,95,100.0
3634,A4,613.75,1.75,95,100.0
3635,F#4,613.75,1.75,95,100.0
3636,E4,613.75,1.75,95,100.0
3637,D4,613.75,1.75,95,100.0
3638,B2,613.75,1.75,95,100.0
3639,B4,615.5,0.5,95,100.0
3640,G4,615.5,0.5,95,100.0
3641,E4,615.5,0.5,95,100.0
3642,C4,615.5,0.5,95,100.0
3643,A2,615.5,0.5,95,100.0
3644,B4,620.0,4.0,95,100.0
3645,G4,620.0,4.0,95,100.0
3646,E4,620.0,4.0,95,100.0
3647,C4,620.0,4.0,95,100.0
3648,A2,620.0,4.0,95,100.0
3649,G4,624.0,1.75,95,100.0
3650,E4,624.0,1.75,95,100.0
3651,C4,624.0,1.75,95,100.0
3652,A3,624.0,1.75,95,100.0
3653,A2,624.0,1.75,95,100.0
3654,A4,625.75,1.75,95,100.0
3655,F#4,625.75,1.75,95,100.0
3656,E4,625.75,1.75,95,100.0
3657,D4,625.75,1.75,95,100.0
3658,B2,625.75,1.75,95,100.0
3659,B4,627.5,0.5,95,100.0
3660,G4,627.5,0.5,95,100.0
3661,E4,627.5,0.5,95,100.0
3662,C4,627.5,0.5,95,100.0
3663,A2,627.5,0.5,95,100.0
3664,B4,632.0,4.0,95,100.0
3665,G4,632.0,4.0,95,100.0
3666,E4,632.0,4.0,95,100.0
3667,C4,632.0,4.0,95,100.0
3668,A2,632.0,4.0,95,100.0
3669,G4,636.0,1.75,95,100.0
3670,E4,636.0,1.75,95,100.0
3671,C4,636.0,1.75,95,100.0
3672,A3,636.0,1.75,95,100.0
3673,A2,636.0,1.75,95,100.0
3674,A4,637.75,1.75,95,100.0
3675,F#4,637.75,1.75,95,100.0
3676,E4,637.75,1.75,95,100.0
3677,D4,637.75,1.75,95,100.0
3678,B2,637.75,1.75,95,100.0
3679,B4,639.5,0.5,95,100.0
3680,G4,639.5,0.5,95,100.0
3681,E4,639.5,0.5,95,100.0
3682,C4,639.5,0.5,95,100.0
3683,A2,639.5,0.5,95,100.0
3684,B4,644.0,4.0,95,100.0
3685,G4,644.0,4.0,95,100.0
3686,E4,644.0,4.0,95,100.0
3687,C4,644.0,4.0,95,100.0
3688,A2,644.0,4.0,95,100.0
3689,G4,648.0,1.75,95,100.0
3690,E4,648.0,1.75,95,100.0
3691,C4,648.0,1.75,95,100.0
3692,A3,648.0,1.75,95,100.0
3693,A2,648.0,1.75,95,100.0
3694,A4,649.75,1.75,95,100.0
3695,F#4,649.75,1.75,95,100.0
3696,E4,649.75,1.75,95,100.0
3697,D4,649.75,1.75,95,100.0
3698,B2,649.75,1.75,95,100.0
3699,B4,651.5,0.5,95,100.0
3700,G4,651.5,0.5,95,100.0
3701,E4,651.5,0.5,95,100.0
3702,C4,651.5,0.5,95,100.0
3703,A2,651.5,0.5,95,100.0
3704,B4,656.0,4.0,95,100.0
3705,G4,656.0,4.0,95,100.0
3706,E4,656.0,4.0,95,100.0
3707,C4,656.0,4.0,95,100.0
3708,A2,656.0,4.0,95,100.0
3709,G4,660.0,1.75,95,100.0
3710,E4,660.0,1.75,95,100.0
3711,C4,660.0,1.75,95,100.0
3712,A3,660.0,1.75,95,100.0
3713,A2,660.0,1.75,95,100.0
3714,A4,661.75,0.25,95,100.0
3715,F#4,661.75,0.25,95,100.0
3716,E4,661.75,0.25,95,100.0
3717,D4,661.75,0.25,95,100.0
3718,B2,661.75,0.25,95,100.0
3719,G#2,2525.6,0.25,84,100.0
3720,F#2,2525.6,0.25,84,100.0
3721,C2,2525.6,0.25,84,100.0
3722,G#2,2525.85,3/20,63,100.0
3723,G#2,2526.0,1/10,63,100.0
3724,G#2,2526.1,0.25,63,100.0
3725,F#2,2526.1,0.25,63,100.0
3726,G#2,2526.35,0.25,71,100.0
3727,F#2,2526.35,0.25,71,100.0
3728,G#2,2526.6,0.25,84,100.0
3729,F#2,2526.6,0.25,84,100.0
3730,D2,2526.6,0.25,84,100.0
3731,G#2,2526.85,0.25,79,100.0
3732,C2,2526.85,0.25,79,100.0
3733,G#2,2527.1,0.25,63,100.0
3734,G#2,2527.35,0.25,71,100.0
3735,C2,2527.35,0.25,71,100.0
3736,G#2,2527.6,0.25,79,100.0
3737,F#2,2527.6,0.25,79,100.0
3738,G#2,2527.85,3/20,63,100.0
3739,C2,2527.85,3/20,63,100.0
3740,G#2,2528.1,1/10,63,100.0
3741,C2,2528.1,1/10,63,100.0
3742,G#2,2528.2,0.25,63,100.0
3743,F#2,2528.2,0.25,63,100.0
3744,G#2,2528.45,0.25,71,100.0
3745,F#2,2528.45,0.25,71,100.0
3746,G#2,2528.7,0.25,79,100.0
3747,F#2,2528.7,0.25,79,100.0
3748,D2,2528.7,0.25,79,100.0
3749,G#2,2528.95,0.25,63,100.0
3750,G#2,2529.2,0.25,79,100.0
3751,F#2,2529.2,0.25,79,100.0
3752,G#2,2529.45,0.25,79,100.0
3753,F#2,2529.45,0.25,79,100.0
3754,G#2,2529.7,0.25,84,100.0
3755,F#2,2529.7,0.25,84,100.0
3756,C2,2529.7,0.25,84,100.0
3757,G#2,2529.95,3/20,63,100.0
3758,G#2,2530.1,1/10,63,100.0
3759,G#2,2530.2,0.25,63,100.0
3760,F#2,2530.2,0.25,63,100.0
3761,G#2,2530.45,0.25,71,100.0
3762,F#2,2530.45,0.25,71,100.0
3763,G#2,2530.7,0.25,84,100.0
3764,F#2,2530.7,0.25,84,100.0
3765,D2,2530.7,0.25,84,100.0
3766,G#2,2530.95,0.25,79,100.0
3767,F#2,2530.95,0.25,79,100.0
3768,G#2,2531.2,0.25,71,100.0
3769,F#2,2531.2,0.25,71,100.0
3770,G#2,2531.45,0.25,74,100.0
3771,F#2,2531.45,0.25,74,100.0
3772,C2,2531.45,0.25,74,100.0
3773,G#2,2531.7,0.25,63,100.0
3774,G#2,2531.95,3/20,63,100.0
3775,G#2,2532.1,1/10,63,100.0
3776,G#2,2532.2,0.25,63,100.0
3777,F#2,2532.2,0.25,63,100.0
3778,G#2,2532.45,0.25,79,100.0
3779,F#2,2532.45,0.25,79,100.0
3780,C2,2532.45,0.25,79,100.0
3781,G#2,2532.7,0.25,79,100.0
3782,F#2,2532.7,0.25,79,100.0
3783,D2,2532.7,0.25,79,100.0
3784,G#2,2532.95,0.25,63,100.0
3785,G#2,2533.2,0.25,79,100.0
3786,F#2,2533.2,0.25,79,100.0
3787,G#2,2533.45,0.25,79,100.0
3788,F#2,2533.45,0.25,79,100.0
3789,G#2,2533.7,0.25,84,100.0
3790,F#2,2533.7,0.25,84,100.0
3791,C2,2533.7,0.25,84,100.0
3792,G#2,2533.95,3/20,63,100.0
3793,G#2,2534.1,1/10,63,100.0
3794,G#2,2534.2,0.25,63,100.0
3795,F#2,2534.2,0.25,63,100.0
3796,G#2,2534.45,0.25,71,100.0
3797,F#2,2534.45,0.25,71,100.0
3798,G#2,2534.7,0.25,84,100.0
3799,F#2,2534.7,0.25,84,100.0
3800,D2,2534.7,0.25,84,100.0
3801,G#2,2534.95,0.25,79,100.0
3802,C2,2534.95,0.25,79,100.0
3803,G#2,2535.2,0.25,63,100.0
3804,G#2,2535.45,0.25,71,100.0
3805,C2,2535.45,0.25,71,100.0
3806,G#2,2535.7,0.25,79,100.0
3807,F#2,2535.7,0.25,79,100.0
3808,G#2,2535.95,3/20,63,100.0
3809,C2,2535.95,3/20,63,100.0
3810,G#2,2536.2,1/10,63,100.0
3811,C2,2536.2,1/10,63,100.0
3812,G#2,2536.3,0.25,63,100.0
3813,F#2,2536.3,0.25,63,100.0
3814,G#2,2536.55,0.25,71,100.0
3815,F#2,2536.55,0.25,71,100.0
3816,G#2,2536.8,0.25,79,100.0
3817,F#2,2536.8,0.25,79,100.0
3818,D2,2536.8,0.25,79,100.0
3819,G#2,2537.05,0.25,63,100.0
3820,G#2,2537.3,0.25,79,100.0
3821,F#2,2537.3,0.25,79,100.0
3822,G#2,2537.55,0.25,79,100.0
3823,F#2,2537.55,0.25,79,100.0
3824,G#2,2537.8,0.125,75,100.0
3825,F#2,2537.8,0.125,75,100.0
3826,C2,2537.8,0.125,75,100.0
3827,B-3,2537.8,0.125,75,100.0
3828,B-3,2537.925,0.125,47,100.0
3829,G#2,2538.05,0.125,55,100.0
3830,B-3,2538.05,0.125,55,100.0
3831,B-3,2538.175,1/40,47,100.0
3832,B-3,2538.2,1/10,47,100.0
3833,G#2,2538.3,0.125,58,100.0
3834,F#2,2538.3,0.125,58,100.0
3835,B-3,2538.3,0.125,58,100.0
3836,B-3,2538.425,0.125,47,100.0
3837,G#2,2538.55,0.125,63,100.0
3838,F#2,2538.55,0.125,63,100.0
3839,B-3,2538.55,0.125,63,100.0
3840,B-3,2538.675,0.125,47,100.0
3841,G#2,2538.8,0.125,75,100.0
3842,F#2,2538.8,0.125,75,100.0
3843,D2,2538.8,0.125,75,100.0
3844,B-3,2538.8,0.125,75,100.0
3845,B-3,2538.925,0.125,47,100.0
3846,G#2,2539.05,0.125,68,100.0
3847,F#2,2539.05,0.125,68,100.0
3848,B-3,2539.05,0.125,68,100.0
3849,B-3,2539.175,0.125,47,100.0
3850,G#2,2539.3,0.125,63,100.0
3851,F#2,2539.3,0.125,63,100.0
3852,B-3,2539.3,0.125,63,100.0
3853,B-3,2539.425,0.125,47,100.0
3854,G#2,2539.55,0.125,67,100.0
3855,F#2,2539.55,0.125,67,100.0
3856,C2,2539.55,0.125,67,100.0
3857,B-3,2539.55,0.125,67,100.0
3858,B-3,2539.675,0.125,47,100.0
3859,G#2,2539.8,0.125,55,100.0
3860,B-3,2539.8,0.125,55,100.0
3861,B-3,2539.925,0.125,47,100.0
3862,G#2,2540.05,0.125,55,100.0
3863,B-3,2540.05,0.125,55,100.0
3864,B-3,2540.175,1/40,47,100.0
3865,B-3,2540.2,1/10,47,100.0
3866,G#2,2540.3,0.125,58,100.0
3867,F#2,2540.3,0.125,58,100.0
3868,B-3,2540.3,0.125,58,100.0
3869,B-3,2540.425,0.125,31,100.0
3870,G#2,2540.55,0.125,67,100.0
3871,F#2,2540.55,0.125,67,100.0
3872,C2,2540.55,0.125,67,100.0
3873,B-3,2540.55,0.125,67,100.0
3874,B-3,2540.675,0.125,15,100.0
3875,G#2,2540.8,0.25,63,100.0
3876,F#2,2540.8,0.25,63,100.0
3877,D2,2540.8,0.25,63,100.0
3878,B-3,2540.8,0.25,63,100.0
3879,G#2,2541.05,0.25,63,100.0
3880,G#2,2541.3,0.25,79,100.0
3881,F#2,2541.3,0.25,79,100.0
3882,G#2,2541.55,0.25,79,100.0
3883,F#2,2541.55,0.25,79,100.0
3884,G#2,2541.8,0.25,84,100.0
3885,F#2,2541.8,0.25,84,100.0
3886,C2,2541.8,0.25,84,100.0
3887,G#2,2542.05,3/20,63,100.0
3888,G#2,2542.2,1/10,63,100.0
3889,G#2,2542.3,0.25,63,100.0
3890,F#2,2542.3,0.25,63,100.0
3891,G#2,2542.55,0.25,71,100.0
3892,F#2,2542.55,0.25,71,100.0
3893,G#2,2542.8,0.25,84,100.0
3894,F#2,2542.8,0.25,84,100.0
3895,D2,2542.8,0.25,84,100.0
3896,G#2,2543.05,0.25,79,100.0
3897,C2,2543.05,0.25,79,100.0
3898,G#2,2543.3,0.25,63,100.0
3899,G#2,2543.55,0.25,71,100.0
3900,C2,2543.55,0.25,71,100.0
3901,G#2,2543.8,0.25,79,100.0
3902,F#2,2543.8,0.25,79,100.0
3903,G#2,2544.05,3/20,63,100.0
3904,C2,2544.05,3/20,63,100.0
3905,G#2,2544.3,1/10,63,100.0
3906,C2,2544.3,1/10,63,100.0
3907,G#2,2544.4,0.25,63,100.0
3908,F#2,2544.4,0.25,63,100.0
3909,G#2,2544.65,0.25,71,100.0
3910,F#2,2544.65,0.25,71,100.0
3911,G#2,2544.9,0.25,79,100.0
3912,F#2,2544.9,0.25,79,100.0
3913,D2,2544.9,0.25,79,100.0
3914,G#2,2545.15,0.25,63,100.0
3915,G#2,2545.4,0.25,79,100.0
3916,F#2,2545.4,0.25,79,100.0
3917,G#2,2545.65,0.25,79,100.0
3918,F#2,2545.65,0.25,79,100.0
3919,G#2,2545.9,0.25,84,100.0
3920,F#2,2545.9,0.25,84,100.0
3921,C2,2545.9,0.25,84,100.0
3922,G#2,2546.15,3/20,63,100.0
3923,G#2,2546.3,1/10,63,100.0
3924,G#2,2546.4,0.25,63,100.0
3925,F#2,2546.4,0.25,63,100.0
3926,G#2,2546.65,0.25,71,100.0
3927,F#2,2546.65,0.25,71,100.0
3928,G#2,2546.9,0.25,84,100.0
3929,F#2,2546.9,0.25,84,100.0
3930,D2,2546.9,0.25,84,100.0
3931,G#2,2547.15,0.25,79,100.0
3932,C2,2547.15,0.25,79,100.0
3933,G#2,2547.4,0.25,63,100.0
3934,G#2,2547.65,0.25,71,100.0
3935,C2,2547.65,0.25,71,100.0
3936,G#2,2547.9,0.25,79,100.0
3937,F#2,2547.9,0.25,79,100.0
3938,G#2,2548.15,3/20,63,100.0
3939,C2,2548.15,3/20,63,100.0
3940,G#2,2548.4,1/10,63,100.0
3941,C2,2548.4,1/10,63,100.0
3942,G#2,2548.5,0.25,63,100.0
3943,F#2,2548.5,0.25,63,100.0
3944,G#2,2548.75,0.25,71,100.0
3945,F#2,2548.75,0.25,71,100.0
3946,G#2,2549.0,0.25,79,100.0
3947,F#2,2549.0,0.25,79,100.0
3948,D2,2549.0,0.25,79,100.0
3949,G#2,2549.25,0.25,63,100.0
3950,G#2,2549.5,0.25,79,100.0
3951,F#2,2549.5,0.25,79,100.0
3952,G#2,2549.75,0.25,79,100.0
3953,F#2,2549.75,0.25,79,100.0
3954,G#2,2550.0,0.25,84,100.0
3955,F#2,2550.0,0.25,84,100.0
3956,C2,2550.0,0.25,84,100.0
3957,G#2,2550.25,3/20,63,100.0
3958,G#2,2550.4,1/10,63,100.0
3959,G#2,2550.5,0.25,63,100.0
3960,F#2,2550.5,0.25,63,100.0
3961,G#2,2550.75,0.25,71,100.0
3962,F#2,2550.75,0.25,71,100.0
3963,G#2,2551.0,0.25,84,100.0
3964,F#2,2551.0,0.25,84,100.0
3965,D2,2551.0,0.25,84,100.0
3966,G#2,2551.25,0.25,79,100.0
3967,C2,2551.25,0.25,79,100.0
3968,G#2,2551.5,0.25,63,100.0
3969,G#2,2551.75,0.25,71,100.0
3970,C2,2551.75,0.25,71,100.0
3971,G#2,2552.0,0.25,79,100.0
3972,F#2,2552.0,0.25,79,100.0
3973,G#2,2552.25,3/20,63,100.0
3974,C2,2552.25,3/20,63,100.0
3975,G#2,2552.5,1/10,63,100.0
3976,C2,2552.5,1/10,63,100.0
3977,G#2,2552.6,0.25,63,100.0
3978,F#2,2552.6,0.25,63,100.0
3979,G#2,2552.85,0.25,71,100.0
3980,F#2,2552.85,0.25,71,100.0
3981,G#2,2553.1,0.25,79,100.0
3982,F#2,2553.1,0.25,79,100.0
3983,D2,2553.1,0.25,79,100.0
3984,G#2,2553.35,0.25,63,100.0
3985,G#2,2553.6,0.25,84,100.0
3986,F#2,2553.6,0.25,84,100.0
3987,A5,2553.6,0.25,84,100.0
3988,G#2,2553.85,0.25,79,100.0
3989,F#2,2553.85,0.25,79,100.0
3990,G#2,2554.1,0.25,84,100.0
3991,F#2,2554.1,0.25,84,100.0
3992,C2,2554.1,0.25,84,100.0
3993,G#2,2554.35,3/20,63,100.0
3994,G#2,2554.5,1/10,63,100.0
3995,G#2,2554.6,0.25,63,100.0
3996,F#2,2554.6,0.25,63,100.0
3997,G#2,2554.85,0.25,71,100.0
3998,F#2,2554.85,0.25,71,100.0
3999,G#2,2555.1,0.25,84,100.0
4000,F#2,2555.1,0.25,84,100.0
4001,D2,2555.1,0.25,84,100.0
4002,G#2,2555.35,0.25,79,100.0
4003,C2,2555.35,0.25,79,100.0
4004,G#2,2555.6,0.25,63,100.0
4005,G#2,2555.85,0.25,71,100.0
4006,C2,2555.85,0.25,71,100.0
4007,G#2,2556.1,0.25,79,100.0
4008,F#2,2556.1,0.25,79,100.0
4009,G#2,2556.35,3/20,63,100.0
4010,C2,2556.35,3/20,63,100.0
4011,G#2,2556.6,1/10,63,100.0
4012,C2,2556.6,1/10,63,100.0
4013,G#2,2556.7,0.25,63,100.0
4014,F#2,2556.7,0.25,63,100.0
4015,G#2,2556.95,0.25,71,100.0
4016,F#2,2556.95,0.25,71,100.0
4017,C6,2557.2,1.0,95,100.0
4018,G#2,2557.2,0.25,79,100.0
4019,F#2,2557.2,0.25,79,100.0
4020,D2,2557.2,0.25,79,100.0
4021,G#2,2557.45,0.25,63,100.0
4022,G#2,2557.7,0.25,79,100.0
4023,F#2,2557.7,0.25,79,100.0
4024,G#2,2557.95,0.25,79,100.0
4025,F#2,2557.95,0.25,79,100.0
4026,G#2,2558.2,0.25,84,100.0
4027,F#2,2558.2,0.25,84,100.0
4028,C2,2558.2,0.25,84,100.0
4029,G#2,2558.45,3/20,63,100.0
4030,G#2,2558.6,1/10,63,100.0
4031,G#2,2558.7,0.25,63,100.0
4032,F#2,2558.7,0.25,63,100.0
4033,G#2,2558.95,0.25,71,100.0
4034,F#2,2558.95,0.25,71,100.0
4035,G#2,2559.2,0.25,84,100.0
4036,F#2,2559.2,0.25,84,100.0
4037,D2,2559.2,0.25,84,100.0
4038,G#2,2559.45,0.25,79,100.0
4039,C2,2559.45,0.25,79,100.0
4040,G#2,2559.7,0.25,63,100.0
4041,G#2,2559.95,0.25,71,100.0
4042,C2,2559.95,0.25,71,100.0
4043,G#2,2560.2,0.25,79,100.0
4044,F#2,2560.2,0.25,79,100.0
4045,G#2,2560.45,3/20,63,100.0
4046,C2,2560.45,3/20,63,100.0
4047,G#2,2560.6,1/10,63,100.0
4048,C2,2560.6,1/10,63,100.0
4049,G#2,2560.7,0.25,63,100.0
4050,F#2,2560.7,0.25,63,100.0
4051,G#2,2560.95,0.25,71,100.0
4052,F#2,2560.95,0.25,71,100.0
4053,G#2,2561.2,0.25,79,100.0
4054,F#2,2561.2,0.25,79,100.0
4055,D2,2561.2,0.25,79,100.0
4056,G#2,2561.45,0.25,63,100.0
4057,G#2,2561.7,0.25,79,100.0
4058,F#2,2561.7,0.25,79,100.0
4059,G#2,2561.95,0.25,79,100.0
4060,F#2,2561.95,0.25,79,100.0
4061,G#2,2562.2,0.25,84,100.0
4062,F#2,2562.2,0.25,84,100.0
4063,C2,2562.2,0.25,84,100.0
4064,G#2,2562.45,3/20,63,100.0
4065,G#2,2562.6,1/10,63,100.0
4066,G#2,2562.7,0.25,63,100.0
4067,F#2,2562.7,0.25,63,100.0
4068,G#2,2562.95,0.25,71,100.0
4069,F#2,2562.95,0.25,71,100.0
4070,G#2,2563.2,0.25,84,100.0
4071,F#2,2563.2,0.25,84,100.0
4072,D2,2563.2,0.25,84,100.0
4073,G#2,2563.45,0.25,79,100.0
4074,C2,2563.45,0.25,79,100.0
4075,G#2,2563.7,0.25,63,100.0
4076,G#2,2563.95,0.25,71,100.0
4077,C2,2563.95,0.25,71,100.0
4078,G#2,2564.2,0.25,79,100.0
4079,F#2,2564.2,0.25,79,100.0
4080,G#2,2564.45,3/20,63,100.0
4081,C2,2564.45,3/20,63,100.0
4082,G#2,2564.6,1/10,63,100.0
4083,C2,2564.6,1/10,63,100.0
4084,G#2,2564.7,0.25,63,100.0
4085,F#2,2564.7,0.25,63,100.0
4086,G#2,2564.95,0.25,71,100.0
4087,F#2,2564.95,0.25,71,100.0
4088,G#2,2565.2,0.25,79,100.0
4089,F#2,2565.2,0.25,79,100.0
4090,D2,2565.2,0.25,79,100.0
4091,G#2,2565.45,0.25,63,100.0
4092,G#2,2565.7,0.25,79,100.0
4093,F#2,2565.7,0.25,79,100.0
4094,G#2,2565.95,0.25,79,100.0
4095,F#2,2565.95,0.25,79,100.0
4096,G#2,2566.2,0.25,84,100.0
4097,F#2,2566.2,0.25,84,100.0
4098,C2,2566.2,0.25,84,100.0
4099,G#2,2566.45,3/20,63,100.0
4100,G#2,2566.6,1/10,63,100.0
4101,G#2,2566.7,0.25,63,100.0
4102,F#2,2566.7,0.25,63,100.0
4103,G#2,2566.95,0.25,71,100.0
4104,F#2,2566.95,0.25,71,100.0
4105,G#2,2567.2,0.25,84,100.0
4106,F#2,2567.2,0.25,84,100.0
4107,D2,2567.2,0.25,84,100.0
4108,G#2,2567.45,0.25,79,100.0
4109,C2,2567.45,0.25,79,100.0
4110,G#2,2567.7,0.25,63,100.0
4111,G#2,2567.95,0.25,71,100.0
4112,C2,2567.95,0.25,71,100.0
4113,G#2,2568.2,0.25,79,100.0
4114,F#2,2568.2,0.25,79,100.0
4115,G#2,2568.45,3/20,63,100.0
4116,C2,2568.45,3/20,63,100.0
4117,G#2,2568.6,1/10,63,100.0
4118,C2,2568.6,1/10,63,100.0
4119,G#2,2568.7,0.25,63,100.0
4120,F#2,2568.7,0.25,63,100.0
4121,G#2,2568.95,0.25,71,100.0
4122,F#2,2568.95,0.25,71,100.0
4123,G#2,2569.2,0.25,79,100.0
4124,F#2,2569.2,0.25,79,100.0
4125,D2,2569.2,0.25,79,100.0
4126,G#2,2569.45,0.25,63,100.0
4127,G#2,2569.7,0.25,79,100.0
4128,F#2,2569.7,0.25,79,100.0
4129,G#2,2569.95,0.25,79,100.0
4130,F#2,2569.95,0.25,79,100.0
4131,G#2,2570.2,0.25,84,100.0
4132,F#2,2570.2,0.25,84,100.0
4133,C2,2570.2,0.25,84,100.0
4134,G#2,2570.45,3/20,63,100.0
4135,G#2,2570.6,1/10,63,100.0
4136,G#2,2570.7,0.25,63,100.0
4137,F#2,2570.7,0.25,63,100.0
4138,G#2,2570.95,0.25,71,100.0
4139,F#2,2570.95,0.25,71,100.0
4140,G#2,2571.2,0.25,84,100.0
4141,F#2,2571.2,0.25,84,100.0
4142,D2,2571.2,0.25,84,100.0
4143,G#2,2571.45,0.25,79,100.0
4144,C2,2571.45,0.25,79,100.0
4145,G#2,2571.7,0.25,63,100.0
4146,G#2,2571.95,0.25,71,100.0
4147,C2,2571.95,0.25,71,100.0
4148,G#2,2572.2,0.25,79,100.0
4149,F#2,2572.2,0.25,79,100.0
4150,G#2,2572.45,3/20,63,100.0
4151,C2,2572.45,3/20,63,100.0
4152,G#2,2572.6,1/10,63,100.0
4153,C2,2572.6,1/10,63,100.0
4154,G#2,2572.7,0.25,63,100.0
4155,F#2,2572.7,0.25,63,100.0
4156,G#2,2572.95,0.25,71,100.0
4157,F#2,2572.95,0.25,71,100.0
4158,G#2,2573.2,0.25,79,100.0
4159,F#2,2573.2,0.25,79,100.0
4160,D2,2573.2,0.25,79,100.0
4161,G#2,2573.45,0.25,63,100.0
4162,G#2,2573.7,0.25,79,100.0
4163,F#2,2573.7,0.25,79,100.0
4164,G#2,2573.95,0.25,79,100.0
4165,F#2,2573.95,0.25,79,100.0
4166,G#2,2574.2,0.25,84,100.0
4167,F#2,2574.2,0.25,84,100.0
4168,C2,2574.2,0.25,84,100.0
4169,G#2,2574.45,3/20,63,100.0
4170,G#2,2574.6,1/10,63,100.0
4171,G#2,2574.7,0.25,63,100.0
4172,F#2,2574.7,0.25,63,100.0
4173,G#2,2574.95,0.25,71,100.0
4174,F#2,2574.95,0.25,71,100.0
4175,G#2,2575.2,0.25,84,100.0
4176,F#2,2575.2,0.25,84,100.0
4177,D2,2575.2,0.25,84,100.0
4178,G#2,2575.45,0.25,79,100.0
4179,C2,2575.45,0.25,79,100.0
4180,G#2,2575.7,0.25,63,100.0
4181,G#2,2575.95,0.25,71,100.0
4182,C2,2575.95,0.25,71,100.0
4183,G#2,2576.2,0.25,79,100.0
4184,F#2,2576.2,0.25,79,100.0
4185,G#2,2576.45,3/20,63,100.0
4186,C2,2576.45,3/20,63,100.0
4187,G#2,2576.6,1/10,63,100.0
4188,C2,2576.6,1/10,63,100.0
4189,G#2,2576.7,0.25,63,100.0
4190,F#2,2576.7,0.25,63,100.0
4191,G#2,2576.95,0.25,71,100.0
4192,F#2,2576.95,0.25,71,100.0
4193,G#2,2577.2,0.25,79,100.0
4194,F#2,2577.2,0.25,79,100.0
4195,D2,2577.2,0.25,79,100.0
4196,G#2,2577.45,0.25,63,100.0
4197,G#2,2577.7,0.25,79,100.0
4198,F#2,2577.7,0.25,79,100.0
4199,G#2,2577.95,0.25,79,100.0
4200,F#2,2577.95,0.25,79,100.0
4201,G#2,2578.2,0.25,84,100.0
4202,F#2,2578.2,0.25,84,100.0
4203,C2,2578.2,0.25,84,100.0
4204,G#2,2578.45,3/20,63,100.0
4205,G#2,2578.6,1/10,63,100.0
4206,G#2,2578.7,0.25,63,100.0
4207,F#2,2578.7,0.25,63,100.0
4208,G#2,2578.95,0.25,71,100.0
4209,F#2,2578.95,0.25,71,100.0
4210,G#2,2579.2,0.25,84,100.0
4211,F#2,2579.2,0.25,84,100.0
4212,D2,2579.2,0.25,84,100.0
4213,G#2,2579.45,0.25,79,100.0
4214,C2,2579.45,0.25,79,100.0
4215,G#2,2579.7,0.25,63,100.0
4216,G#2,2579.95,0.25,71,100.0
4217,C2,2579.95,0.25,71,100.0
4218,G#2,2580.2,0.25,79,100.0
4219,F#2,2580.2,0.25,79,100.0
4220,G#2,2580.45,3/20,63,100.0
4221,C2,2580.45,3/20,63,100.0
4222,G#2,2580.6,1/10,63,100.0
4223,C2,2580.6,1/10,63,100.0
4224,G#2,2580.7,0.25,63,100.0
4225,F#2,2580.7,0.25,63,100.0
4226,G#2,2580.95,0.25,71,100.0
4227,F#2,2580.95,0.25,71,100.0
4228,G#2,2581.2,0.25,79,100.0
4229,F#2,2581.2,0.25,79,100.0
4230,D2,2581.2,0.25,79,100.0
4231,G#2,2581.45,0.25,63,100.0
4232,G#2,2581.7,0.25,79,100.0
4233,F#2,2581.7,0.25,79,100.0
4234,G#2,2581.95,0.25,79,100.0
4235,F#2,2581.95,0.25,79,100.0
4236,G#2,2582.2,0.25,84,100.0
4237,F#2,2582.2,0.25,84,100.0
4238,C2,2582.2,0.25,84,100.0
4239,G#2,2582.45,3/20,63,100.0
4240,G#2,2582.6,1/10,63,100.0
4241,G#2,2582.7,0.25,63,100.0
4242,F#2,2582.7,0.25,63,100.0
4243,G#2,2582.95,0.25,71,100.0
4244,F#2,2582.95,0.25,71,100.0
4245,G#2,2583.2,0.25,84,100.0
4246,F#2,2583.2,0.25,84,100.0
4247,D2,2583.2,0.25,84,100.0
4248,G#2,2583.45,0.25,79,100.0
4249,C2,2583.45,0.25,79,100.0
4250,G#2,2583.7,0.25,63,100.0
4251,G#2,2583.95,0.25,71,100.0
4252,C2,2583.95,0.25,71,100.0
4253,G#2,2584.2,0.25,79,100.0
4254,F#2,2584.2,0.25,79,100.0
4255,G#2,2584.45,3/20,63,100.0
4256,C2,2584.45,3/20,63,100.0
4257,G#2,2584.6,1/10,63,100.0
4258,C2,2584.6,1/10,63,100.0
4259,G#2,2584.7,0.25,63,100.0
4260,F#2,2584.7,0.25,63,100.0
4261,G#2,2584.95,0.25,71,100.0
4262,F#2,2584.95,0.25,71,100.0
4263,G#2,2585.2,0.25,79,100.0
4264,F#2,2585.2,0.25,79,100.0
4265,D2,2585.2,0.25,79,100.0
4266,G#2,2585.45,0.25,63,100.0
4267,G#2,2585.7,0.25,79,100.0
4268,F#2,2585.7,0.25,79,100.0
4269,G#2,2585.95,0.25,79,100.0
4270,F#2,2585.95,0.25,79,100.0
4271,G#2,2586.2,0.25,84,100.0
4272,F#2,2586.2,0.25,84,100.0
4273,C2,2586.2,0.25,84,100.0
4274,G#2,2586.45,3/20,63,100.0
4275,G#2,2586.6,1/10,63,100.0
4276,G#2,2586.7,0.25,63,100.0
4277,F#2,2586.7,0.25,63,100.0
4278,G#2,2586.95,0.25,71,100.0
4279,F#2,2586.95,0.25,71,100.0
4280,G#2,2587.2,0.25,84,100.0
4281,F#2,2587.2,0.25,84,100.0
4282,D2,2587.2,0.25,84,100.0
4283,G#2,2587.45,0.25,79,100.0
4284,C2,2587.45,0.25,79,100.0
4285,G#2,2587.7,0.25,63,100.0
4286,G#2,2587.95,0.25,71,100.0
4287,C2,2587.95,0.25,71,100.0
4288,G#2,2588.2,0.25,79,100.0
4289,F#2,2588.2,0.25,79,100.0
4290,G#2,2588.45,3/20,63,100.0
4291,C2,2588.45,3/20,63,100.0
4292,G#2,2588.6,1/10,63,100.0
4293,C2,2588.6,1/10,63,100.0
4294,G#2,2588.7,0.25,63,100.0
4295,F#2,2588.7,0.25,63,100.0
4296,G#2,2588.95,0.25,71,100.0
4297,F#2,2588.95,0.25,71,100.0
4298,G#2,2589.2,0.25,79,100.0
4299,F#2,2589.2,0.25,79,100.0
4300,D2,2589.2,0.25,79,100.0
4301,G#2,2589.45,0.25,63,100.0
4302,G#2,2589.7,0.25,79,100.0
4303,F#2,2589.7,0.25,79,100.0
4304,G#2,2589.95,0.25,79,100.0
4305,F#2,2589.95,0.25,79,100.0
4306,G#2,2590.2,0.25,84,100.0
4307,F#2,2590.2,0.25,84,100.0
4308,C2,2590.2,0.25,84,100.0
4309,G#2,2590.45,3/20,63,100.0
4310,G#2,2590.6,1/10,63,100.0
4311,G#2,2590.7,0.25,63,100.0
4312,F#2,2590.7,0.25,63,100.0
4313,G#2,2590.95,0.25,71,100.0
4314,F#2,2590.95,0.25,71,100.0
4315,G#2,2591.2,0.25,84,100.0
4316,F#2,2591.2,0.25,84,100.0
4317,D2,2591.2,0.25,84,100.0
4318,G#2,2591.45,0.25,79,100.0
4319,C2,2591.45,0.25,79,100.0
4320,G#2,2591.7,0.25,63,100.0
4321,G#2,2591.95,0.25,71,100.0
4322,C2,2591.95,0.25,71,100.0
4323,G#2,2592.2,0.25,79,100.0
4324,F#2,2592.2,0.25,79,100.0
4325,G#2,2592.45,3/20,63,100.0
4326,C2,2592.45,3/20,63,100.0
4327,G#2,2592.6,1/10,63,100.0
4328,C2,2592.6,1/10,63,100.0
4329,G#2,2592.7,0.25,63,100.0
4330,F#2,2592.7,0.25,63,100.0
4331,G#2,2592.95,0.25,71,100.0
4332,F#2,2592.95,0.25,71,100.0
4333,G#2,2593.2,0.25,79,100.0
4334,F#2,2593.2,0.25,79,100.0
4335,D2,2593.2,0.25,79,100.0
4336,G#2,2593.45,0.25,63,100.0
4337,G#2,2593.7,0.25,79,100.0
4338,F#2,2593.7,0.25,79,100.0
4339,G#2,2593.95,0.25,84,100.0
4340,F#2,2593.95,0.25,84,100.0
4341,C2,2593.95,0.25,84,100.0
4342,G#2,2594.2,0.25,79,100.0
4343,F#2,2594.2,0.25,79,100.0
4344,G#2,2594.45,3/20,63,100.0
4345,G#2,2594.6,1/10,63,100.0
4346,G#2,2594.7,0.25,74,100.0
4347,F#2,2594.7,0.25,74,100.0
4348,C2,2594.7,0.25,74,100.0
4349,G#2,2594.95,0.25,71,100.0
4350,F#2,2594.95,0.25,71,100.0
4351,G#2,2595.2,0.25,84,100.0
4352,F#2,2595.2,0.25,84,100.0
4353,D2,2595.2,0.25,84,100.0
4354,G#2,2595.45,0.25,63,100.0
4355,G#2,2595.7,0.25,63,100.0
4356,G#2,2595.95,0.25,63,100.0
4357,G#2,2596.2,0.25,84,100.0
4358,F#2,2596.2,0.25,84,100.0
4359,C2,2596.2,0.25,84,100.0
4360,G#2,2596.45,3/20,63,100.0
4361,G#2,2596.6,1/10,63,100.0
4362,G#2,2596.7,0.25,63,100.0
4363,F#2,2596.7,0.25,63,100.0
4364,G#2,2596.95,0.25,71,100.0
4365,F#2,2596.95,0.25,71,100.0
4366,G#2,2597.2,0.25,79,100.0
4367,F#2,2597.2,0.25,79,100.0
4368,D2,2597.2,0.25,79,100.0
4369,G#2,2597.45,0.25,63,100.0
4370,G#2,2597.7,0.25,79,100.0
4371,F#2,2597.7,0.25,79,100.0
4372,G#2,2597.95,0.25,84,100.0
4373,F#2,2597.95,0.25,84,100.0
4374,C2,2597.95,0.25,84,100.0
4375,G#2,2598.2,0.25,79,100.0
4376,F#2,2598.2,0.25,79,100.0
4377,G#2,2598.45,3/20,63,100.0
4378,G#2,2598.6,1/10,63,100.0
4379,G#2,2598.7,0.25,74,100.0
4380,F#2,2598.7,0.25,74,100.0
4381,C2,2598.7,0.25,74,100.0
4382,G#2,2598.95,0.25,71,100.0
4383,F#2,2598.95,0.25,71,100.0
4384,G#2,2599.2,0.25,84,100.0
4385,F#2,2599.2,0.25,84,100.0
4386,D2,2599.2,0.25,84,100.0
4387,G#2,2599.45,0.25,63,100.0
4388,G#2,2599.7,0.25,63,100.0
4389,G#2,2599.95,0.25,63,100.0
4390,G#2,2600.2,0.25,84,100.0
4391,F#2,2600.2,0.25,84,100.0
4392,C2,2600.2,0.25,84,100.0
4393,G#2,2600.45,3/20,63,100.0
4394,G#2,2600.6,1/10,63,100.0
4395,G#2,2600.7,0.25,63,100.0
4396,F#2,2600.7,0.25,63,100.0
4397,G#2,2600.95,0.25,71,100.0
4398,F#2,2600.95,0.25,71,100.0
4399,G#2,2601.2,0.25,79,100.0
4400,F#2,2601.2,0.25,79,100.0
4401,D2,2601.2,0.25,79,100.0
4402,G#2,2601.45,0.25,63,100.0
4403,G#2,2601.7,0.25,79,100.0
4404,F#2,2601.7,0.25,79,100.0
4405,G#2,2601.95,0.25,84,100.0
4406,F#2,2601.95,0.25,84,100.0
4407,C2,2601.95,0.25,84,100.0
4408,G#2,2602.2,0.25,84,100.0
4409,F#2,2602.2,0.25,84,100.0
4410,C2,2602.2,0.25,84,100.0
4411,G#2,2602.45,3/20,63,100.0
4412,G#2,2602.6,1/10,63,100.0
4413,G#2,2602.7,0.25,63,100.0
4414,F#2,2602.7,0.25,63,100.0
4415,G#2,2602.95,0.25,71,100.0
4416,F#2,2602.95,0.25,71,100.0
4417,G#2,2603.2,0.25,84,100.0
4418,F#2,2603.2,0.25,84,100.0
4419,D2,2603.2,0.25,84,100.0
4420,G#2,2603.45,0.25,79,100.0
4421,C2,2603.45,0.25,79,100.0
4422,G#2,2603.7,0.25,63,100.0
4423,G#2,2603.95,0.25,71,100.0
4424,C2,2603.95,0.25,71,100.0
4425,G#2,2604.2,0.25,79,100.0
4426,F#2,2604.2,0.25,79,100.0
4427,G#2,2604.45,3/20,63,100.0
4428,C2,2604.45,3/20,63,100.0
4429,G#2,2604.6,1/10,63,100.0
4430,C2,2604.6,1/10,63,100.0
4431,G#2,2604.7,0.25,63,100.0
4432,F#2,2604.7,0.25,63,100.0
4433,G#2,2604.95,0.25,71,100.0
4434,F#2,2604.95,0.25,71,100.0
4435,G#2,2605.2,0.25,79,100.0
4436,F#2,2605.2,0.25,79,100.0
4437,D2,2605.2,0.25,79,100.0
4438,G#2,2605.45,0.25,63,100.0
4439,G#2,2605.7,0.25,79,100.0
4440,F#2,2605.7,0.25,79,100.0
4441,G#2,2605.95,0.25,84,100.0
4442,F#2,2605.95,0.25,84,100.0
4443,C2,2605.95,0.25,84,100.0
4444,G#2,2606.2,0.25,84,100.0
4445,F#2,2606.2,0.25,84,100.0
4446,C2,2606.2,0.25,84,100.0
4447,G#2,2606.45,3/20,63,100.0
4448,G#2,2606.6,1/10,63,100.0
4449,G#2,2606.7,0.25,63,100.0
4450,F#2,2606.7,0.25,63,100.0
4451,G#2,2606.95,0.25,71,100.0
4452,F#2,2606.95,0.25,71,100.0
4453,G#2,2607.2,0.25,84,100.0
4454,F#2,2607.2,0.25,84,100.0
4455,D2,2607.2,0.25,84,100.0
4456,G#2,2607.45,0.25,79,100.0
4457,C2,2607.45,0.25,79,100.0
4458,G#2,2607.7,0.25,63,100.0
4459,G#2,2607.95,0.25,71,100.0
4460,C2,2607.95,0.25,71,100.0
4461,G#2,2608.2,0.25,79,100.0
4462,F#2,2608.2,0.25,79,100.0
4463,G#2,2608.45,3/20,63,100.0
4464,C2,2608.45,3/20,63,100.0
4465,G#2,2608.6,1/10,63,100.0
4466,C2,2608.6,1/10,63,100.0
4467,G#2,2608.7,0.25,63,100.0
4468,F#2,2608.7,0.25,63,100.0
4469,G#2,2608.95,0.25,71,100.0
4470,F#2,2608.95,0.25,71,100.0
4471,G#2,2609.2,0.25,79,100.0
4472,F#2,2609.2,0.25,79,100.0
4473,D2,2609.2,0.25,79,100.0
4474,G#2,2609.45,0.25,63,100.0
4475,G#2,2609.7,0.25,79,100.0
4476,F#2,2609.7,0.25,79,100.0
4477,G#2,2609.95,0.25,84,100.0
4478,F#2,2609.95,0.25,84,100.0
4479,C2,2609.95,0.25,84,100.0
4480,G#2,2610.2,0.25,79,100.0
4481,F#2,2610.2,0.25,79,100.0
4482,G#2,2610.45,3/20,63,100.0
4483,G#2,2610.6,1/10,63,100.0
4484,G#2,2610.7,0.25,74,100.0
4485,F#2,2610.7,0.25,74,100.0
4486,C2,2610.7,0.25,74,100.0
4487,G#2,2610.95,0.25,71,100.0
4488,F#2,2610.95,0.25,71,100.0
4489,G#2,2611.2,0.25,84,100.0
4490,F#2,2611.2,0.25,84,100.0
4491,D2,2611.2,0.25,84,100.0
4492,G#2,2611.45,0.25,63,100.0
4493,G#2,2611.7,0.25,63,100.0
4494,G#2,2611.95,0.25,63,100.0
4495,G#2,2612.2,0.25,84,100.0
4496,F#2,2612.2,0.25,84,100.0
4497,C2,2612.2,0.25,84,100.0
4498,G#2,2612.45,3/20,63,100.0
4499,G#2,2612.6,1/10,63,100.0
4500,G#2,2612.7,0.25,63,100.0
4501,F#2,2612.7,0.25,63,100.0
4502,G#2,2612.95,0.25,71,100.0
4503,F#2,2612.95,0.25,71,100.0
4504,G#2,2613.2,0.25,79,100.0
4505,F#2,2613.2,0.25,79,100.0
4506,D2,2613.2,0.25,79,100.0
4507,G#2,2613.45,0.25,63,100.0
4508,G#2,2613.7,0.25,79,100.0
4509,F#2,2613.7,0.25,79,100.0
4510,G#2,2613.95,0.25,84,100.0
4511,F#2,2613.95,0.25,84,100.0
4512,C2,2613.95,0.25,84,100.0
4513,G#2,2614.2,0.25,79,100.0
4514,F#2,2614.2,0.25,79,100.0
4515,G#2,2614.45,3/20,63,100.0
4516,G#2,2614.6,1/10,63,100.0
4517,G#2,2614.7,0.25,74,100.0
4518,F#2,2614.7,0.25,74,100.0
4519,C2,2614.7,0.25,74,100.0
4520,G#2,2614.95,0.25,71,100.0
4521,F#2,2614.95,0.25,71,100.0
4522,G#2,2615.2,0.25,84,100.0
4523,F#2,2615.2,0.25,84,100.0
4524,D2,2615.2,0.25,84,100.0
4525,G#2,2615.45,0.25,63,100.0
4526,G#2,2615.7,0.25,63,100.0
4527,G#2,2615.95,0.25,63,100.0
4528,G#2,2616.2,0.25,84,100.0
4529,F#2,2616.2,0.25,84,100.0
4530,C2,2616.2,0.25,84,100.0
4531,G#2,2616.45,3/20,63,100.0
4532,G#2,2616.6,1/10,63,100.0
4533,G#2,2616.7,0.25,63,100.0
4534,F#2,2616.7,0.25,63,100.0
4535,G#2,2616.95,0.25,71,100.0
4536,F#2,2616.95,0.25,71,100.0
4537,G#2,2617.2,0.25,79,100.0
4538,F#2,2617.2,0.25,79,100.0
4539,D2,2617.2,0.25,79,100.0
4540,G#2,2617.45,0.25,63,100.0
4541,G#2,2617.7,0.25,79,100.0
4542,F#2,2617.7,0.25,79,100.0
4543,G#2,2617.95,0.25,84,100.0
4544,F#2,2617.95,0.25,84,100.0
4545,C2,2617.95,0.25,84,100.0
4546,G#2,2618.2,0.25,84,100.0
4547,F#2,2618.2,0.25,84,100.0
4548,C2,2618.2,0.25,84,100.0
4549,G#2,2618.45,3/20,63,100.0
4550,G#2,2618.6,1/10,63,100.0
4551,G#2,2618.7,0.25,63,100.0
4552,F#2,2618.7,0.25,63,100.0
4553,G#2,2618.95,0.25,71,100.0
4554,F#2,2618.95,0.25,71,100.0
4555,G#2,2619.2,0.25,84,100.0
4556,F#2,2619.2,0.25,84,100.0
4557,D2,2619.2,0.25,84,100.0
4558,G#2,2619.45,0.25,79,100.0
4559,C2,2619.45,0.25,79,100.0
4560,G#2,2619.7,0.25,63,100.0
4561,G#2,2619.95,0.25,71,100.0
4562,C2,2619.95,0.25,71,100.0
4563,G#2,2620.2,0.25,79,100.0
4564,F#2,2620.2,0.25,79,100.0
4565,G#2,2620.45,3/20,63,100.0
4566,C2,2620.45,3/20,63,100.0
4567,G#2,2620.6,1/10,63,100.0
4568,C2,2620.6,1/10,63,100.0
4569,G#2,2620.7,0.25,63,100.0
4570,F#2,2620.7,0.25,63,100.0
4571,G#2,2620.95,0.25,79,100.0
4572,F#2,2620.95,0.25,79,100.0
4573,C2,2620.95,0.25,79,100.0
4574,G#2,2621.2,0.25,75,100.0
4575,F#2,2621.2,0.25,75,100.0
4576,D2,2621.2,0.25,75,100.0
4577,C3,2621.2,0.25,75,100.0
4578,G#2,2621.45,0.25,63,100.0
4579,G#2,2621.7,0.25,79,100.0
4580,F#2,2621.7,0.25,79,100.0
4581,D2,2621.7,0.25,79,100.0
4582,B2,2621.7,0.25,79,100.0
4583,G#2,2621.95,0.25,79,100.0
4584,F#2,2621.95,0.25,79,100.0
4585,G#2,2622.2,0.25,87,100.0
4586,F#2,2622.2,0.25,87,100.0
4587,C2,2622.2,0.25,87,100.0
4588,C#3,2622.2,0.25,87,100.0
4589,G#2,2622.45,3/20,63,100.0
4590,G#2,2622.6,1/10,63,100.0
4591,G#2,2622.7,0.25,63,100.0
4592,F#2,2622.7,0.25,63,100.0
4593,G#2,2622.95,0.25,71,100.0
4594,F#2,2622.95,0.25,71,100.0
4595,G#2,2623.2,0.25,84,100.0
4596,F#2,2623.2,0.25,84,100.0
4597,D2,2623.2,0.25,84,100.0
4598,G#2,2623.45,0.25,79,100.0
4599,C2,2623.45,0.25,79,100.0
4600,G#2,2623.7,0.25,63,100.0
4601,G#2,2623.95,0.25,71,100.0
4602,C2,2623.95,0.25,71,100.0
4603,G#2,2624.2,0.25,79,100.0
4604,F#2,2624.2,0.25,79,100.0
4605,G#2,2624.45,3/20,63,100.0
4606,C2,2624.45,3/20,63,100.0
4607,G#2,2624.6,1/10,63,100.0
4608,C2,2624.6,1/10,63,100.0
4609,G#2,2624.7,0.25,63,100.0
4610,F#2,2624.7,0.25,63,100.0
4611,G#2,2624.95,0.25,71,100.0
4612,F#2,2624.95,0.25,71,100.0
4613,G#2,2625.2,0.25,79,100.0
4614,F#2,2625.2,0.25,79,100.0
4615,D2,2625.2,0.25,79,100.0
4616,G#2,2625.45,0.25,63,100.0
4617,G#2,2625.7,0.25,79,100.0
4618,F#2,2625.7,0.25,79,100.0
4619,G#2,2625.95,0.25,79,100.0
4620,F#2,2625.95,0.25,79,100.0
4621,G#2,2626.2,0.25,84,100.0
4622,F#2,2626.2,0.25,84,100.0
4623,C2,2626.2,0.25,84,100.0
4624,G#2,2626.45,3/20,63,100.0
4625,G#2,2626.6,1/10,63,100.0
4626,G#2,2626.7,0.25,63,100.0
4627,F#2,2626.7,0.25,63,100.0
4628,G#2,2626.95,0.25,71,100.0
4629,F#2,2626.95,0.25,71,100.0
4630,G#2,2627.2,0.25,84,100.0
4631,F#2,2627.2,0.25,84,100.0
4632,D2,2627.2,0.25,84,100.0
4633,G#2,2627.45,0.25,79,100.0
4634,C2,2627.45,0.25,79,100.0
4635,G#2,2627.7,0.25,63,100.0
4636,G#2,2627.95,0.25,71,100.0
4637,C2,2627.95,0.25,71,100.0
4638,G#2,2628.2,0.25,79,100.0
4639,F#2,2628.2,0.25,79,100.0
4640,G#2,2628.45,3/20,63,100.0
4641,C2,2628.45,3/20,63,100.0
4642,G#2,2628.6,1/10,63,100.0
4643,C2,2628.6,1/10,63,100.0
4644,G#2,2628.7,0.25,63,100.0
4645,F#2,2628.7,0.25,63,100.0
4646,G#2,2628.95,0.25,71,100.0
4647,F#2,2628.95,0.25,71,100.0
4648,G#2,2629.2,0.25,79,100.0
4649,F#2,2629.2,0.25,79,100.0
4650,D2,2629.2,0.25,79,100.0
4651,G#2,2629.45,0.25,63,100.0
4652,G#2,2629.7,0.25,79,100.0
4653,F#2,2629.7,0.25,79,100.0
4654,G#2,2629.95,0.25,79,100.0
4655,F#2,2629.95,0.25,79,100.0
4656,G#2,2630.2,0.25,84,100.0
4657,F#2,2630.2,0.25,84,100.0
4658,C2,2630.2,0.25,84,100.0
4659,G#2,2630.45,3/20,63,100.0
4660,G#2,2630.6,1/10,63,100.0
4661,G#2,2630.7,0.25,63,100.0
4662,F#2,2630.7,0.25,63,100.0
4663,G#2,2630.95,0.25,71,100.0
4664,F#2,2630.95,0.25,71,100.0
4665,G#2,2631.2,0.25,84,100.0
4666,F#2,2631.2,0.25,84,100.0
4667,D2,2631.2,0.25,84,100.0
4668,G#2,2631.45,0.25,79,100.0
4669,C2,2631.45,0.25,79,100.0
4670,G#2,2631.7,0.25,63,100.0
4671,G#2,2631.95,0.25,71,100.0
4672,C2,2631.95,0.25,71,100.0
4673,G#2,2632.2,0.25,79,100.0
4674,F#2,2632.2,0.25,79,100.0
4675,G#2,2632.45,3/20,63,100.0
4676,C2,2632.45,3/20,63,100.0
4677,G#2,2632.6,1/10,63,100.0
4678,C2,2632.6,1/10,63,100.0
4679,G#2,2632.7,0.25,63,100.0
4680,F#2,2632.7,0.25,63,100.0
4681,G#2,2632.95,0.25,71,100.0
4682,F#2,2632.95,0.25,71,100.0
4683,G#2,2633.2,0.25,79,100.0
4684,F#2,2633.2,0.25,79,100.0
4685,D2,2633.2,0.25,79,100.0
4686,G#2,2633.45,0.25,63,100.0
4687,G#2,2633.7,0.25,79,100.0
4688,F#2,2633.7,0.25,79,100.0
4689,G#2,2633.95,0.25,79,100.0
4690,F#2,2633.95,0.25,79,100.0
4691,G#2,2634.2,0.25,84,100.0
4692,F#2,2634.2,0.25,84,100.0
4693,C2,2634.2,0.25,84,100.0
4694,G#2,2634.45,3/20,63,100.0
4695,G#2,2634.6,1/10,63,100.0
4696,G#2,2634.7,0.25,63,100.0
4697,F#2,2634.7,0.25,63,100.0
4698,G#2,2634.95,0.25,71,100.0
4699,F#2,2634.95,0.25,71,100.0
4700,G#2,2635.2,0.25,84,100.0
4701,F#2,2635.2,0.25,84,100.0
4702,D2,2635.2,0.25,84,100.0
4703,G#2,2635.45,0.25,79,100.0
4704,C2,2635.45,0.25,79,100.0
4705,G#2,2635.7,0.25,63,100.0
4706,G#2,2635.95,0.25,71,100.0
4707,C2,2635.95,0.25,71,100.0
4708,G#2,2636.2,0.25,79,100.0
4709,F#2,2636.2,0.25,79,100.0
4710,G#2,2636.45,3/20,63,100.0
4711,C2,2636.45,3/20,63,100.0
4712,G#2,2636.6,1/10,63,100.0
4713,C2,2636.6,1/10,63,100.0
4714,G#2,2636.7,0.25,63,100.0
4715,F#2,2636.7,0.25,63,100.0
4716,G#2,2636.95,0.25,71,100.0
4717,F#2,2636.95,0.25,71,100.0
4718,G#2,2637.2,0.25,79,100.0
4719,F#2,2637.2,0.25,79,100.0
4720,D2,2637.2,0.25,79,100.0
4721,G#2,2637.45,0.25,63,100.0
4722,G#2,2637.7,0.25,79,100.0
4723,F#2,2637.7,0.25,79,100.0
4724,G#2,2637.95,0.25,79,100.0
4725,F#2,2637.95,0.25,79,100.0
4726,G#2,2638.2,0.25,84,100.0
4727,F#2,2638.2,0.25,84,100.0
4728,C2,2638.2,0.25,84,100.0
4729,G#2,2638.45,3/20,63,100.0
4730,G#2,2638.6,1/10,63,100.0
4731,G#2,2638.7,0.25,63,100.0
4732,F#2,2638.7,0.25,63,100.0
4733,G#2,2638.95,0.25,71,100.0
4734,F#2,2638.95,0.25,71,100.0
4735,G#2,2639.2,0.25,84,100.0
4736,F#2,2639.2,0.25,84,100.0
4737,D2,2639.2,0.25,84,100.0
4738,G#2,2639.45,0.25,79,100.0
4739,C2,2639.45,0.25,79,100.0
4740,G#2,2639.7,0.25,63,100.0
4741,G#2,2639.95,0.25,71,100.0
4742,C2,2639.95,0.25,71,100.0
4743,G#2,2640.2,0.25,79,100.0
4744,F#2,2640.2,0.25,79,100.0
4745,G#2,2640.45,3/20,63,100.0
4746,C2,2640.45,3/20,63,100.0
4747,G#2,2640.6,1/10,63,100.0
4748,C2,2640.6,1/10,63,100.0
4749,G#2,2640.7,0.25,63,100.0
4750,F#2,2640.7,0.25,63,100.0
4751,G#2,2640.95,0.25,71,100.0
4752,F#2,2640.95,0.25,71,100.0
4753,G#2,2641.2,0.25,79,100.0
4754,F#2,2641.2,0.25,79,100.0
4755,D2,2641.2,0.25,79,100.0
4756,G#2,2641.45,0.25,63,100.0
4757,G#2,2641.7,0.25,79,100.0
4758,F#2,2641.7,0.25,79,100.0
4759,G#2,2641.95,0.25,79,100.0
4760,F#2,2641.95,0.25,79,100.0
4761,G#2,2642.2,0.25,84,100.0
4762,F#2,2642.2,0.25,84,100.0
4763,C2,2642.2,0.25,84,100.0
4764,G#2,2642.45,3/20,63,100.0
4765,G#2,2642.6,1/10,63,100.0
4766,G#2,2642.7,0.25,63,100.0
4767,F#2,2642.7,0.25,63,100.0
4768,G#2,2642.95,0.25,71,100.0
4769,F#2,2642.95,0.25,71,100.0
4770,G#2,2643.2,0.25,84,100.0
4771,F#2,2643.2,0.25,84,100.0
4772,D2,2643.2,0.25,84,100.0
4773,G#2,2643.45,0.25,79,100.0
4774,C2,2643.45,0.25,79,100.0
4775,G#2,2643.7,0.25,63,100.0
4776,G#2,2643.95,0.25,71,100.0
4777,C2,2643.95,0.25,71,100.0
4778,G#2,2644.2,0.25,79,100.0
4779,F#2,2644.2,0.25,79,100.0
4780,G#2,2644.45,3/20,63,100.0
4781,C2,2644.45,3/20,63,100.0
4782,G#2,2644.6,1/10,63,100.0
4783,C2,2644.6,1/10,63,100.0
4784,G#2,2644.7,0.25,63,100.0
4785,F#2,2644.7,0.25,63,100.0
4786,G#2,2644.95,0.25,71,100.0
4787,F#2,2644.95,0.25,71,100.0
4788,G#2,2645.2,0.25,79,100.0
4789,F#2,2645.2,0.25,79,100.0
4790,D2,2645.2,0.25,79,100.0
4791,G#2,2645.45,0.25,63,100.0
4792,G#2,2645.7,0.25,79,100.0
4793,F#2,2645.7,0.25,79,100.0
4794,G#2,2645.95,0.25,79,100.0
4795,F#2,2645.95,0.25,79,100.0
4796,G#2,2646.2,0.25,84,100.0
4797,F#2,2646.2,0.25,84,100.0
4798,C2,2646.2,0.25,84,100.0
4799,G#2,2646.45,3/20,63,100.0
4800,G#2,2646.6,1/10,63,100.0
4801,G#2,2646.7,0.25,63,100.0
4802,F#2,2646.7,0.25,63,100.0
4803,G#2,2646.95,0.25,71,100.0
4804,F#2,2646.95,0.25,71,100.0
4805,G#2,2647.2,0.25,84,100.0
4806,F#2,2647.2,0.25,84,100.0
4807,D2,2647.2,0.25,84,100.0
4808,G#2,2647.45,0.25,79,100.0
4809,C2,2647.45,0.25,79,100.0
4810,G#2,2647.7,0.25,63,100.0
4811,G#2,2647.95,0.25,71,100.0
4812,C2,2647.95,0.25,71,100.0
4813,G#2,2648.2,0.25,79,100.0
4814,F#2,2648.2,0.25,79,100.0
4815,G#2,2648.45,3/20,63,100.0
4816,C2,2648.45,3/20,63,100.0
4817,G#2,2648.6,1/10,63,100.0
4818,C2,2648.6,1/10,63,100.0
4819,G#2,2648.7,0.25,63,100.0
4820,F#2,2648.7,0.25,63,100.0
4821,G#2,2648.95,0.25,71,100.0
4822,F#2,2648.95,0.25,71,100.0
4823,G#2,2649.2,0.25,79,100.0
4824,F#2,2649.2,0.25,79,100.0
4825,D2,2649.2,0.25,79,100.0
4826,G#2,2649.45,0.25,63,100.0
4827,G#2,2649.7,0.25,79,100.0
4828,F#2,2649.7,0.25,79,100.0
4829,G#2,2649.95,0.25,79,100.0
4830,F#2,2649.95,0.25,79,100.0
4831,G#2,2650.2,0.25,84,100.0
4832,F#2,2650.2,0.25,84,100.0
4833,C2,2650.2,0.25,84,100.0
4834,G#2,2650.45,3/20,63,100.0
4835,G#2,2650.6,1/10,63,100.0
4836,G#2,2650.7,0.25,63,100.0
4837,F#2,2650.7,0.25,63,100.0
4838,G#2,2650.95,0.25,71,100.0
4839,F#2,2650.95,0.25,71,100.0
4840,G#2,2651.2,0.25,84,100.0
4841,F#2,2651.2,0.25,84,100.0
4842,D2,2651.2,0.25,84,100.0
4843,G#2,2651.45,0.25,79,100.0
4844,C2,2651.45,0.25,79,100.0
4845,G#2,2651.7,0.25,63,100.0
4846,G#2,2651.95,0.25,71,100.0
4847,C2,2651.95,0.25,71,100.0
4848,G#2,2652.2,0.25,79,100.0
4849,F#2,2652.2,0.25,79,100.0
4850,G#2,2652.45,3/20,63,100.0
4851,C2,2652.45,3/20,63,100.0
4852,G#2,2652.6,1/10,63,100.0
4853,C2,2652.6,1/10,63,100.0
4854,G#2,2652.7,0.25,63,100.0
4855,F#2,2652.7,0.25,63,100.0
4856,G#2,2652.95,0.25,71,100.0
4857,F#2,2652.95,0.25,71,100.0
4858,G#2,2653.2,0.25,79,100.0
4859,F#2,2653.2,0.25,79,100.0
4860,D2,2653.2,0.25,79,100.0
4861,G#2,2653.45,0.25,63,100.0
4862,G#2,2653.7,0.25,79,100.0
4863,F#2,2653.7,0.25,79,100.0
4864,G#2,2653.95,0.25,79,100.0
4865,F#2,2653.95,0.25,79,100.0
4866,G#2,2654.2,0.25,84,100.0
4867,F#2,2654.2,0.25,84,100.0
4868,C2,2654.2,0.25,84,100.0
4869,G#2,2654.45,3/20,63,100.0
4870,G#2,2654.6,1/10,63,100.0
4871,G#2,2654.7,0.25,63,100.0
4872,F#2,2654.7,0.25,63,100.0
4873,G#2,2654.95,0.25,71,100.0
4874,F#2,2654.95,0.25,71,100.0
4875,G#2,2655.2,0.25,84,100.0
4876,F#2,2655.2,0.25,84,100.0
4877,D2,2655.2,0.25,84,100.0
4878,G#2,2655.45,0.25,79,100.0
4879,C2,2655.45,0.25,79,100.0
4880,G#2,2655.7,0.25,63,100.0
4881,G#2,2655.95,0.25,71,100.0
4882,C2,2655.95,0.25,71,100.0
4883,G#2,2656.2,0.25,79,100.0
4884,F#2,2656.2,0.25,79,100.0
4885,G#2,2656.45,3/20,63,100.0
4886,C2,2656.45,3/20,63,100.0
4887,G#2,2656.6,1/10,63,100.0
4888,C2,2656.6,1/10,63,100.0
4889,G#2,2656.7,0.25,63,100.0
4890,F#2,2656.7,0.25,63,100.0
4891,G#2,2656.95,0.25,71,100.0
4892,F#2,2656.95,0.25,71,100.0
4893,G#2,2657.2,0.25,79,100.0
4894,F#2,2657.2,0.25,79,100.0
4895,D2,2657.2,0.25,79,100.0
4896,G#2,2657.45,0.25,63,100.0
4897,G#2,2657.7,0.25,79,100.0
4898,F#2,2657.7,0.25,79,100.0
4899,G#2,2657.95,0.25,84,100.0
4900,F#2,2657.95,0.25,84,100.0
4901,C2,2657.95,0.25,84,100.0
4902,G#2,2658.2,0.25,79,100.0
4903,F#2,2658.2,0.25,79,100.0
4904,G#2,2658.45,3/20,63,100.0
4905,G#2,2658.6,1/10,63,100.0
4906,G#2,2658.7,0.25,74,100.0
4907,F#2,2658.7,0.25,74,100.0
4908,C2,2658.7,0.25,74,100.0
4909,G#2,2658.95,0.25,71,100.0
4910,F#2,2658.95,0.25,71,100.0
4911,G#2,2659.2,0.25,84,100.0
4912,F#2,2659.2,0.25,84,100.0
4913,D2,2659.2,0.25,84,100.0
4914,G#2,2659.45,0.25,63,100.0
4915,G#2,2659.7,0.25,63,100.0
4916,G#2,2659.95,0.25,63,100.0
4917,G#2,2660.2,0.25,84,100.0
4918,F#2,2660.2,0.25,84,100.0
4919,C2,2660.2,0.25,84,100.0
4920,G#2,2660.45,3/20,63,100.0
4921,G#2,2660.6,1/10,63,100.0
4922,G#2,2660.7,0.25,63,100.0
4923,F#2,2660.7,0.25,63,100.0
4924,G#2,2660.95,0.25,71,100.0
4925,F#2,2660.95,0.25,71,100.0
4926,G#2,2661.2,0.25,79,100.0
4927,F#2,2661.2,0.25,79,100.0
4928,D2,2661.2,0.25,79,100.0
4929,G#2,2661.45,0.25,63,100.0
4930,G#2,2661.7,0.25,79,100.0
4931,F#2,2661.7,0.25,79,100.0
4932,G#2,2661.95,0.25,84,100.0
4933,F#2,2661.95,0.25,84,100.0
4934,C2,2661.95,0.25,84,100.0
4935,G#2,2662.2,0.25,79,100.0
4936,F#2,2662.2,0.25,79,100.0
4937,G#2,2662.45,3/20,63,100.0
4938,G#2,2662.6,1/10,63,100.0
4939,G#2,2662.7,0.25,74,100.0
4940,F#2,2662.7,0.25,74,100.0
4941,C2,2662.7,0.25,74,100.0
4942,G#2,2662.95,0.25,71,100.0
4943,F#2,2662.95,0.25,71,100.0
4944,G#2,2663.2,0.25,84,100.0
4945,F#2,2663.2,0.25,84,100.0
4946,D2,2663.2,0.25,84,100.0
4947,G#2,2663.45,0.25,63,100.0
4948,G#2,2663.7,0.25,63,100.0
4949,G#2,2663.95,0.25,63,100.0
4950,G#2,2664.2,0.25,84,100.0
4951,F#2,2664.2,0.25,84,100.0
4952,C2,2664.2,0.25,84,100.0
4953,G#2,2664.45,3/20,63,100.0
4954,G#2,2664.6,1/10,63,100.0
4955,G#2,2664.7,0.25,63,100.0
4956,F#2,2664.7,0.25,63,100.0
4957,G#2,2664.95,0.25,71,100.0
4958,F#2,2664.95,0.25,71,100.0
4959,G#2,2665.2,0.25,79,100.0
4960,F#2,2665.2,0.25,79,100.0
4961,D2,2665.2,0.25,79,100.0
4962,G#2,2665.45,0.25,63,100.0
4963,G#2,2665.7,0.25,79,100.0
4964,F#2,2665.7,0.25,79,100.0
4965,G#2,2665.95,0.25,84,100.0
4966,F#2,2665.95,0.25,84,100.0
4967,C2,2665.95,0.25,84,100.0
4968,G#2,2666.2,0.25,84,100.0
4969,F#2,2666.2,0.25,84,100.0
4970,C2,2666.2,0.25,84,100.0
4971,G#2,2666.45,3/20,63,100.0
4972,G#2,2666.6,1/10,63,100.0
4973,G#2,2666.7,0.25,63,100.0
4974,F#2,2666.7,0.25,63,100.0
4975,G#2,2666.95,0.25,71,100.0
4976,F#2,2666.95,0.25,71,100.0
4977,G#2,2667.2,0.25,84,100.0
4978,F#2,2667.2,0.25,84,100.0
4979,D2,2667.2,0.25,84,100.0
4980,G#2,2667.45,0.25,79,100.0
4981,C2,2667.45,0.25,79,100.0
4982,G#2,2667.7,0.25,63,100.0
4983,G#2,2667.95,0.25,71,100.0
4984,C2,2667.95,0.25,71,100.0
4985,G#2,2668.2,0.25,79,100.0
4986,F#2,2668.2,0.25,79,100.0
4987,G#2,2668.45,3/20,63,100.0
4988,C2,2668.45,3/20,63,100.0
4989,G#2,2668.6,1/10,63,100.0
4990,C2,2668.6,1/10,63,100.0
4991,G#2,2668.7,0.25,63,100.0
4992,F#2,2668.7,0.25,63,100.0
4993,G#2,2668.95,0.25,71,100.0
4994,F#2,2668.95,0.25,71,100.0
4995,G#2,2669.2,0.25,79,100.0
4996,F#2,2669.2,0.25,79,100.0
4997,D2,2669.2,0.25,79,100.0
4998,G#2,2669.45,0.25,63,100.0
4999,G#2,2669.7,0.25,79,100.0
5000,F#2,2669.7,0.25,79,100.0
5001,G#2,2669.95,0.25,84,100.0
5002,F#2,2669.95,0.25,84,100.0
5003,C2,2669.95,0.25,84,100.0
5004,G#2,2670.2,0.25,84,100.0
5005,F#2,2670.2,0.25,84,100.0
5006,C2,2670.2,0.25,84,100.0
5007,G#2,2670.45,3/20,63,100.0
5008,G#2,2670.6,1/10,63,100.0
5009,G#2,2670.7,0.25,63,100.0
5010,F#2,2670.7,0.25,63,100.0
5011,G#2,2670.95,0.25,71,100.0
5012,F#2,2670.95,0.25,71,100.0
5013,G#2,2671.2,0.25,84,100.0
5014,F#2,2671.2,0.25,84,100.0
5015,D2,2671.2,0.25,84,100.0
5016,G#2,2671.45,0.25,79,100.0
5017,C2,2671.45,0.25,79,100.0
5018,G#2,2671.7,0.25,63,100.0
5019,G#2,2671.95,0.25,71,100.0
5020,C2,2671.95,0.25,71,100.0
5021,G#2,2672.2,0.25,79,100.0
5022,F#2,2672.2,0.25,79,100.0
5023,G#2,2672.45,3/20,63,100.0
5024,C2,2672.45,3/20,63,100.0
5025,G#2,2672.6,1/10,63,100.0
5026,C2,2672.6,1/10,63,100.0
5027,G#2,2672.7,0.25,63,100.0
5028,F#2,2672.7,0.25,63,100.0
5029,G#2,2672.95,0.25,71,100.0
5030,F#2,2672.95,0.25,71,100.0
5031,G#2,2673.2,0.25,79,100.0
5032,F#2,2673.2,0.25,79,100.0
5033,D2,2673.2,0.25,79,100.0
5034,G#2,2673.45,0.25,63,100.0
5035,G#2,2673.7,0.25,79,100.0
5036,F#2,2673.7,0.25,79,100.0
5037,G#2,2673.95,0.25,84,100.0
5038,F#2,2673.95,0.25,84,100.0
5039,C2,2673.95,0.25,84,100.0
5040,G#2,2674.2,0.25,79,100.0
5041,F#2,2674.2,0.25,79,100.0
5042,G#2,2674.45,3/20,63,100.0
5043,G#2,2674.6,1/10,63,100.0
5044,G#2,2674.7,0.25,74,100.0
5045,F#2,2674.7,0.25,74,100.0
5046,C2,2674.7,0.25,74,100.0
5047,G#2,2674.95,0.25,71,100.0
5048,F#2,2674.95,0.25,71,100.0
5049,G#2,2675.2,0.25,84,100.0
5050,F#2,2675.2,0.25,84,100.0
5051,D2,2675.2,0.25,84,100.0
5052,G#2,2675.45,0.25,63,100.0
5053,G#2,2675.7,0.25,63,100.0
5054,G#2,2675.95,0.25,63,100.0
5055,G#2,2676.2,0.25,84,100.0
5056,F#2,2676.2,0.25,84,100.0
5057,C2,2676.2,0.25,84,100.0
5058,G#2,2676.45,3/20,63,100.0
5059,G#2,2676.6,1/10,63,100.0
5060,G#2,2676.7,0.25,63,100.0
5061,F#2,2676.7,0.25,63,100.0
5062,G#2,2676.95,0.25,71,100.0
5063,F#2,2676.95,0.25,71,100.0
5064,G#2,2677.2,0.25,79,100.0
5065,F#2,2677.2,0.25,79,100.0
5066,D2,2677.2,0.25,79,100.0
5067,G#2,2677.45,0.25,63,100.0
5068,G#2,2677.7,0.25,79,100.0
5069,F#2,2677.7,0.25,79,100.0
5070,G#2,2677.95,0.25,84,100.0
5071,F#2,2677.95,0.25,84,100.0
5072,C2,2677.95,0.25,84,100.0
5073,G#2,2678.2,0.25,79,100.0
5074,F#2,2678.2,0.25,79,100.0
5075,G#2,2678.45,3/20,63,100.0
5076,G#2,2678.6,1/10,63,100.0
5077,G#2,2678.7,0.25,74,100.0
5078,F#2,2678.7,0.25,74,100.0
5079,C2,2678.7,0.25,74,100.0
5080,G#2,2678.95,0.25,71,100.0
5081,F#2,2678.95,0.25,71,100.0
5082,G#2,2679.2,0.25,84,100.0
5083,F#2,2679.2,0.25,84,100.0
5084,D2,2679.2,0.25,84,100.0
5085,G#2,2679.45,0.25,63,100.0
5086,G#2,2679.7,0.25,63,100.0
5087,G#2,2679.95,0.25,63,100.0
5088,G#2,2680.2,0.25,84,100.0
5089,F#2,2680.2,0.25,84,100.0
5090,C2,2680.2,0.25,84,100.0
5091,G#2,2680.45,3/20,63,100.0
5092,G#2,2680.6,1/10,63,100.0
5093,G#2,2680.7,0.25,63,100.0
5094,F#2,2680.7,0.25,63,100.0
5095,G#2,2680.95,0.25,71,100.0
5096,F#2,2680.95,0.25,71,100.0
5097,G#2,2681.2,0.25,79,100.0
5098,F#2,2681.2,0.25,79,100.0
5099,D2,2681.2,0.25,79,100.0
5100,G#2,2681.45,0.25,63,100.0
5101,G#2,2681.7,0.25,79,100.0
5102,F#2,2681.7,0.25,79,100.0
5103,G#2,2681.95,0.25,84,100.0
5104,F#2,2681.95,0.25,84,100.0
5105,C2,2681.95,0.25,84,100.0
5106,G#2,2682.2,0.25,84,100.0
5107,F#2,2682.2,0.25,84,100.0
5108,C2,2682.2,0.25,84,100.0
5109,G#2,2682.45,3/20,63,100.0
5110,G#2,2682.6,1/10,63,100.0
5111,G#2,2682.7,0.25,63,100.0
5112,F#2,2682.7,0.25,63,100.0
5113,G#2,2682.95,0.25,71,100.0
5114,F#2,2682.95,0.25,71,100.0
5115,G#2,2683.2,0.25,84,100.0
5116,F#2,2683.2,0.25,84,100.0
5117,D2,2683.2,0.25,84,100.0
5118,G#2,2683.45,0.25,79,100.0
5119,C2,2683.45,0.25,79,100.0
5120,G#2,2683.7,0.25,63,100.0
5121,G#2,2683.95,0.25,71,100.0
5122,C2,2683.95,0.25,71,100.0
5123,G#2,2684.2,0.25,79,100.0
5124,F#2,2684.2,0.25,79,100.0
5125,G#2,2684.45,3/20,63,100.0
5126,C2,2684.45,3/20,63,100.0
5127,G#2,2684.6,1/10,63,100.0
5128,C2,2684.6,1/10,63,100.0
5129,G#2,2684.7,0.25,63,100.0
5130,F#2,2684.7,0.25,63,100.0
5131,G#2,2684.95,0.25,79,100.0
5132,F#2,2684.95,0.25,79,100.0
5133,C2,2684.95,0.25,79,100.0
5134,G#2,2685.2,0.25,79,100.0
5135,F#2,2685.2,0.25,79,100.0
5136,D2,2685.2,0.25,79,100.0
5137,C3,2685.2,0.25,79,100.0
5138,A3,2685.2,0.25,79,100.0
5139,G#2,2685.45,0.25,63,100.0
5140,G#2,2685.7,0.25,79,100.0
5141,F#2,2685.7,0.25,79,100.0
5142,D2,2685.7,0.25,79,100.0
5143,B2,2685.7,0.25,79,100.0
5144,G#2,2685.95,0.25,79,100.0
5145,F#2,2685.95,0.25,79,100.0
5146,F#2,2686.2,0.25,87,100.0
5147,F#2,2686.2,0.25,87,100.0
5148,C2,2686.2,0.25,87,100.0
5149,C#3,2686.2,0.25,87,100.0
5150,G#2,2686.45,3/20,79,100.0
5151,C4,2686.45,3/20,79,100.0
5152,G#2,2686.6,1/10,79,100.0
5153,C4,2686.6,1/10,79,100.0
5154,G#2,2686.7,0.25,63,100.0
5155,F#2,2686.7,0.25,63,100.0
5156,G#2,2686.95,0.25,71,100.0
5157,F#2,2686.95,0.25,71,100.0
5158,G#2,2687.2,0.25,84,100.0
5159,F#2,2687.2,0.25,84,100.0
5160,D2,2687.2,0.25,84,100.0
5161,F#2,2687.45,0.25,79,100.0
5162,C2,2687.45,0.25,79,100.0
5163,G#2,2687.7,0.25,79,100.0
5164,D4,2687.7,0.25,79,100.0
5165,G#2,2687.95,0.25,71,100.0
5166,C2,2687.95,0.25,71,100.0
5167,G#2,2688.2,0.25,79,100.0
5168,F#2,2688.2,0.25,79,100.0
5169,G#2,2688.45,3/20,63,100.0
5170,C2,2688.45,3/20,63,100.0
5171,G#2,2688.6,1/10,63,100.0
5172,C2,2688.6,1/10,63,100.0
5173,G#2,2688.7,0.25,74,100.0
5174,F#2,2688.7,0.25,74,100.0
5175,E4,2688.7,0.25,74,100.0
5176,G#2,2688.95,0.25,71,100.0
5177,F#2,2688.95,0.25,71,100.0
5178,G#2,2689.2,0.25,79,100.0
5179,F#2,2689.2,0.25,79,100.0
5180,D2,2689.2,0.25,79,100.0
5181,F#2,2689.45,0.25,79,100.0
5182,E-4,2689.45,0.25,79,100.0
5183,G#2,2689.7,0.25,79,100.0
5184,F#2,2689.7,0.25,79,100.0
5185,G#2,2689.95,0.25,84,100.0
5186,F#2,2689.95,0.25,84,100.0
5187,C2,2689.95,0.25,84,100.0
5188,F#2,2690.2,0.25,84,100.0
5189,F#2,2690.2,0.25,84,100.0
5190,C2,2690.2,0.25,84,100.0
5191,G#2,2690.45,3/20,79,100.0
5192,C4,2690.45,3/20,79,100.0
5193,G#2,2690.6,1/10,79,100.0
5194,C4,2690.6,1/10,79,100.0
5195,G#2,2690.7,0.25,63,100.0
5196,F#2,2690.7,0.25,63,100.0
5197,G#2,2690.95,0.25,71,100.0
5198,F#2,2690.95,0.25,71,100.0
5199,G#2,2691.2,0.25,84,100.0
5200,F#2,2691.2,0.25,84,100.0
5201,D2,2691.2,0.25,84,100.0
5202,F#2,2691.45,0.25,79,100.0
5203,C2,2691.45,0.25,79,100.0
5204,G#2,2691.7,0.25,79,100.0
5205,D4,2691.7,0.25,79,100.0
5206,G#2,2691.95,0.25,71,100.0
5207,C2,2691.95,0.25,71,100.0
5208,G#2,2692.2,0.25,79,100.0
5209,F#2,2692.2,0.25,79,100.0
5210,G#2,2692.45,3/20,63,100.0
5211,C2,2692.45,3/20,63,100.0
5212,G#2,2692.6,1/10,63,100.0
5213,C2,2692.6,1/10,63,100.0
5214,G#2,2692.7,0.25,74,100.0
5215,F#2,2692.7,0.25,74,100.0
5216,E4,2692.7,0.25,74,100.0
5217,G#2,2692.95,0.25,71,100.0
5218,F#2,2692.95,0.25,71,100.0
5219,G#2,2693.2,0.25,79,100.0
5220,F#2,2693.2,0.25,79,100.0
5221,D2,2693.2,0.25,79,100.0
5222,F#2,2693.45,0.25,79,100.0
5223,E-4,2693.45,0.25,79,100.0
5224,G#2,2693.7,0.25,79,100.0
5225,F#2,2693.7,0.25,79,100.0
5226,G#2,2693.95,0.25,84,100.0
5227,F#2,2693.95,0.25,84,100.0
5228,C2,2693.95,0.25,84,100.0
5229,F#2,2694.2,0.25,84,100.0
5230,F#2,2694.2,0.25,84,100.0
5231,C2,2694.2,0.25,84,100.0
5232,G#2,2694.45,3/20,79,100.0
5233,C4,2694.45,3/20,79,100.0
5234,G#2,2694.6,1/10,79,100.0
5235,C4,2694.6,1/10,79,100.0
5236,G#2,2694.7,0.25,63,100.0
5237,F#2,2694.7,0.25,63,100.0
5238,G#2,2694.95,0.25,71,100.0
5239,F#2,2694.95,0.25,71,100.0
5240,G#2,2695.2,0.25,84,100.0
5241,F#2,2695.2,0.25,84,100.0
5242,D2,2695.2,0.25,84,100.0
5243,F#2,2695.45,0.25,79,100.0
5244,C2,2695.45,0.25,79,100.0
5245,G#2,2695.7,0.25,79,100.0
5246,D4,2695.7,0.25,79,100.0
5247,G#2,2695.95,0.25,71,100.0
5248,C2,2695.95,0.25,71,100.0
5249,G#2,2696.2,0.25,79,100.0
5250,F#2,2696.2,0.25,79,100.0
5251,G#2,2696.45,3/20,63,100.0
5252,C2,2696.45,3/20,63,100.0
5253,G#2,2696.6,1/10,63,100.0
5254,C2,2696.6,1/10,63,100.0
5255,G#2,2696.7,0.25,74,100.0
5256,F#2,2696.7,0.25,74,100.0
5257,E4,2696.7,0.25,74,100.0
5258,G#2,2696.95,0.25,71,100.0
5259,F#2,2696.95,0.25,71,100.0
5260,G#2,2697.2,0.25,79,100.0
5261,F#2,2697.2,0.25,79,100.0
5262,D2,2697.2,0.25,79,100.0
5263,F#2,2697.45,0.25,79,100.0
5264,E-4,2697.45,0.25,79,100.0
5265,G#2,2697.7,0.25,79,100.0
5266,F#2,2697.7,0.25,79,100.0
5267,G#2,2697.95,0.25,84,100.0
5268,F#2,2697.95,0.25,84,100.0
5269,C2,2697.95,0.25,84,100.0
5270,F#2,2698.2,0.25,84,100.0
5271,F#2,2698.2,0.25,84,100.0
5272,C2,2698.2,0.25,84,100.0
5273,G#2,2698.45,3/20,79,100.0
5274,C4,2698.45,3/20,79,100.0
5275,G#2,2698.6,1/10,79,100.0
5276,C4,2698.6,1/10,79,100.0
5277,G#2,2698.7,0.25,63,100.0
5278,F#2,2698.7,0.25,63,100.0
5279,G#2,2698.95,0.25,71,100.0
5280,F#2,2698.95,0.25,71,100.0
5281,G#2,2699.2,0.25,84,100.0
5282,F#2,2699.2,0.25,84,100.0
5283,D2,2699.2,0.25,84,100.0
5284,F#2,2699.45,0.25,79,100.0
5285,C2,2699.45,0.25,79,100.0
5286,G#2,2699.7,0.25,79,100.0
5287,D4,2699.7,0.25,79,100.0
5288,G#2,2699.95,0.25,71,100.0
5289,C2,2699.95,0.25,71,100.0
5290,G#2,2700.2,0.25,79,100.0
5291,F#2,2700.2,0.25,79,100.0
5292,G#2,2700.45,3/20,63,100.0
5293,C2,2700.45,3/20,63,100.0
5294,G#2,2700.6,1/10,63,100.0
5295,C2,2700.6,1/10,63,100.0
5296,G#2,2700.7,0.25,74,100.0
5297,F#2,2700.7,0.25,74,100.0
5298,E4,2700.7,0.25,74,100.0
5299,G#2,2700.95,0.25,71,100.0
5300,F#2,2700.95,0.25,71,100.0
5301,G#2,2701.2,0.25,79,100.0
5302,F#2,2701.2,0.25,79,100.0
5303,D2,2701.2,0.25,79,100.0
5304,F#2,2701.45,0.25,79,100.0
5305,E-4,2701.45,0.25,79,100.0
5306,G#2,2701.7,0.25,79,100.0
5307,F#2,2701.7,0.25,79,100.0
5308,G#2,2701.95,0.25,84,100.0
5309,F#2,2701.95,0.25,84,100.0
5310,C2,2701.95,0.25,84,100.0
5311,F#2,2702.2,0.25,84,100.0
5312,F#2,2702.2,0.25,84,100.0
5313,C2,2702.2,0.25,84,100.0
5314,G#2,2702.45,3/20,79,100.0
5315,C4,2702.45,3/20,79,100.0
5316,G#2,2702.6,1/10,79,100.0
5317,C4,2702.6,1/10,79,100.0
5318,G#2,2702.7,0.25,63,100.0
5319,F#2,2702.7,0.25,63,100.0
5320,G#2,2702.95,0.25,71,100.0
5321,F#2,2702.95,0.25,71,100.0
5322,G#2,2703.2,0.25,84,100.0
5323,F#2,2703.2,0.25,84,100.0
5324,D2,2703.2,0.25,84,100.0
5325,F#2,2703.45,0.25,79,100.0
5326,C2,2703.45,0.25,79,100.0
5327,G#2,2703.7,0.25,79,100.0
5328,D4,2703.7,0.25,79,100.0
5329,G#2,2703.95,0.25,71,100.0
5330,C2,2703.95,0.25,71,100.0
5331,G#2,2704.2,0.25,79,100.0
5332,F#2,2704.2,0.25,79,100.0
5333,G#2,2704.45,3/20,63,100.0
5334,C2,2704.45,3/20,63,100.0
5335,G#2,2704.6,1/10,63,100.0
5336,C2,2704.6,1/10,63,100.0
5337,G#2,2704.7,0.25,74,100.0
5338,F#2,2704.7,0.25,74,100.0
5339,E4,2704.7,0.25,74,100.0
5340,G#2,2704.95,0.25,71,100.0
5341,F#2,2704.95,0.25,71,100.0
5342,G#2,2705.2,0.25,79,100.0
5343,F#2,2705.2,0.25,79,100.0
5344,D2,2705.2,0.25,79,100.0
5345,F#2,2705.45,0.25,79,100.0
5346,E-4,2705.45,0.25,79,100.0
5347,G#2,2705.7,0.25,79,100.0
5348,F#2,2705.7,0.25,79,100.0
5349,G#2,2705.95,0.25,84,100.0
5350,F#2,2705.95,0.25,84,100.0
5351,C2,2705.95,0.25,84,100.0
5352,F#2,2706.2,0.25,84,100.0
5353,F#2,2706.2,0.25,84,100.0
5354,C2,2706.2,0.25,84,100.0
5355,G#2,2706.45,3/20,79,100.0
5356,C4,2706.45,3/20,79,100.0
5357,G#2,2706.6,1/10,79,100.0
5358,C4,2706.6,1/10,79,100.0
5359,G#2,2706.7,0.25,63,100.0
5360,F#2,2706.7,0.25,63,100.0
5361,G#2,2706.95,0.25,71,100.0
5362,F#2,2706.95,0.25,71,100.0
5363,G#2,2707.2,0.25,84,100.0
5364,F#2,2707.2,0.25,84,100.0
5365,D2,2707.2,0.25,84,100.0
5366,F#2,2707.45,0.25,79,100.0
5367,C2,2707.45,0.25,79,100.0
5368,G#2,2707.7,0.25,79,100.0
5369,D4,2707.7,0.25,79,100.0
5370,G#2,2707.95,0.25,71,100.0
5371,C2,2707.95,0.25,71,100.0
5372,G#2,2708.2,0.25,79,100.0
5373,F#2,2708.2,0.25,79,100.0
5374,G#2,2708.45,3/20,63,100.0
5375,C2,2708.45,3/20,63,100.0
5376,G#2,2708.6,1/10,63,100.0
5377,C2,2708.6,1/10,63,100.0
5378,G#2,2708.7,0.25,74,100.0
5379,F#2,2708.7,0.25,74,100.0
5380,E4,2708.7,0.25,74,100.0
5381,G#2,2708.95,0.25,71,100.0
5382,F#2,2708.95,0.25,71,100.0
5383,G#2,2709.2,0.25,79,100.0
5384,F#2,2709.2,0.25,79,100.0
5385,D2,2709.2,0.25,79,100.0
5386,F#2,2709.45,0.25,79,100.0
5387,E-4,2709.45,0.25,79,100.0
5388,G#2,2709.7,0.25,79,100.0
5389,F#2,2709.7,0.25,79,100.0
5390,G#2,2709.95,0.25,84,100.0
5391,F#2,2709.95,0.25,84,100.0
5392,C2,2709.95,0.25,84,100.0
5393,F#2,2710.2,0.25,84,100.0
5394,F#2,2710.2,0.25,84,100.0
5395,C2,2710.2,0.25,84,100.0
5396,G#2,2710.45,3/20,79,100.0
5397,C4,2710.45,3/20,79,100.0
5398,G#2,2710.6,1/10,79,100.0
5399,C4,2710.6,1/10,79,100.0
5400,G#2,2710.7,0.25,63,100.0
5401,F#2,2710.7,0.25,63,100.0
5402,G#2,2710.95,0.25,71,100.0
5403,F#2,2710.95,0.25,71,100.0
5404,G#2,2711.2,0.25,84,100.0
5405,F#2,2711.2,0.25,84,100.0
5406,D2,2711.2,0.25,84,100.0
5407,F#2,2711.45,0.25,79,100.0
5408,C2,2711.45,0.25,79,100.0
5409,G#2,2711.7,0.25,79,100.0
5410,D4,2711.7,0.25,79,100.0
5411,G#2,2711.95,0.25,71,100.0
5412,C2,2711.95,0.25,71,100.0
5413,G#2,2712.2,0.25,79,100.0
5414,F#2,2712.2,0.25,79,100.0
5415,G#2,2712.45,3/20,63,100.0
5416,C2,2712.45,3/20,63,100.0
5417,G#2,2712.6,1/10,63,100.0
5418,C2,2712.6,1/10,63,100.0
5419,G#2,2712.7,0.25,74,100.0
5420,F#2,2712.7,0.25,74,100.0
5421,E4,2712.7,0.25,74,100.0
5422,G#2,2712.95,0.25,71,100.0
5423,F#2,2712.95,0.25,71,100.0
5424,G#2,2713.2,0.25,79,100.0
5425,F#2,2713.2,0.25,79,100.0
5426,D2,2713.2,0.25,79,100.0
5427,F#2,2713.45,0.25,79,100.0
5428,E-4,2713.45,0.25,79,100.0
5429,G#2,2713.7,0.25,79,100.0
5430,F#2,2713.7,0.25,79,100.0
5431,G#2,2713.95,0.25,84,100.0
5432,F#2,2713.95,0.25,84,100.0
5433,C2,2713.95,0.25,84,100.0
5434,F#2,2714.2,0.25,84,100.0
5435,F#2,2714.2,0.25,84,100.0
5436,C2,2714.2,0.25,84,100.0
5437,G#2,2714.45,3/20,79,100.0
5438,C4,2714.45,3/20,79,100.0
5439,G#2,2714.6,1/10,79,100.0
5440,C4,2714.6,1/10,79,100.0
5441,G#2,2714.7,0.25,63,100.0
5442,F#2,2714.7,0.25,63,100.0
5443,G#2,2714.95,0.25,71,100.0
5444,F#2,2714.95,0.25,71,100.0
5445,G#2,2715.2,0.25,84,100.0
5446,F#2,2715.2,0.25,84,100.0
5447,D2,2715.2,0.25,84,100.0
5448,F#2,2715.45,0.25,79,100.0
5449,C2,2715.45,0.25,79,100.0
5450,G#2,2715.7,0.25,79,100.0
5451,D4,2715.7,0.25,79,100.0
5452,G#2,2715.95,0.25,71,100.0
5453,C2,2715.95,0.25,71,100.0
5454,G#2,2716.2,0.25,79,100.0
5455,F#2,2716.2,0.25,79,100.0
5456,G#2,2716.45,3/20,63,100.0
5457,C2,2716.45,3/20,63,100.0
5458,G#2,2716.6,1/10,63,100.0
5459,C2,2716.6,1/10,63,100.0
5460,G#2,2716.7,0.25,74,100.0
5461,F#2,2716.7,0.25,74,100.0
5462,E4,2716.7,0.25,74,100.0
5463,G#2,2716.95,0.25,71,100.0
5464,F#2,2716.95,0.25,71,100.0
5465,G#2,2717.2,0.25,79,100.0
5466,F#2,2717.2,0.25,79,100.0
5467,D2,2717.2,0.25,79,100.0
5468,F#2,2717.45,0.25,79,100.0
5469,E-4,2717.45,0.25,79,100.0
5470,G#2,2717.7,0.25,79,100.0
5471,F#2,2717.7,0.25,79,100.0
5472,G#2,2717.95,0.25,84,100.0
5473,F#2,2717.95,0.25,84,100.0
5474,C2,2717.95,0.25,84,100.0
5475,G#2,2718.2,0.25,87,100.0
5476,F#2,2718.2,0.25,87,100.0
5477,C2,2718.2,0.25,87,100.0
5478,E3,2718.2,0.25,87,100.0
5479,G#2,2718.45,3/20,63,100.0
5480,G#2,2718.6,1/10,63,100.0
5481,G#2,2718.7,0.25,63,100.0
5482,F#2,2718.7,0.25,63,100.0
5483,G#2,2718.95,0.25,71,100.0
5484,F#2,2718.95,0.25,71,100.0
5485,G#2,2719.2,0.25,84,100.0
5486,F#2,2719.2,0.25,84,100.0
5487,D2,2719.2,0.25,84,100.0
5488,G#2,2719.45,0.25,63,100.0
5489,G#2,2719.7,0.25,63,100.0
5490,G#2,2719.95,0.25,71,100.0
5491,C2,2719.95,0.25,71,100.0
5492,G#2,2720.2,0.25,79,100.0
5493,F#2,2720.2,0.25,79,100.0
5494,G#2,2720.45,3/20,63,100.0
5495,C2,2720.45,3/20,63,100.0
5496,G#2,2720.6,1/10,63,100.0
5497,C2,2720.6,1/10,63,100.0
5498,G#2,2720.7,0.25,63,100.0
5499,F#2,2720.7,0.25,63,100.0
5500,G#2,2720.95,0.25,71,100.0
5501,F#2,2720.95,0.25,71,100.0
5502,G#2,2721.2,0.25,79,100.0
5503,F#2,2721.2,0.25,79,100.0
5504,D2,2721.2,0.25,79,100.0
5505,G#2,2721.45,0.25,63,100.0
5506,G#2,2721.7,0.25,79,100.0
5507,F#2,2721.7,0.25,79,100.0
5508,G#2,2721.95,0.25,84,100.0
5509,F#2,2721.95,0.25,84,100.0
5510,C2,2721.95,0.25,84,100.0
5511,G#2,2722.2,0.25,84,100.0
5512,F#2,2722.2,0.25,84,100.0
5513,C2,2722.2,0.25,84,100.0
5514,G#2,2722.45,3/20,63,100.0
5515,G#2,2722.6,1/10,63,100.0
5516,G#2,2722.7,0.25,63,100.0
5517,F#2,2722.7,0.25,63,100.0
5518,G#2,2722.95,0.25,71,100.0
5519,F#2,2722.95,0.25,71,100.0
5520,G#2,2723.2,0.25,84,100.0
5521,F#2,2723.2,0.25,84,100.0
5522,D2,2723.2,0.25,84,100.0
5523,G#2,2723.45,0.25,63,100.0
5524,G#2,2723.7,0.25,63,100.0
5525,G#2,2723.95,0.25,71,100.0
5526,C2,2723.95,0.25,71,100.0
5527,G#2,2724.2,0.25,79,100.0
5528,F#2,2724.2,0.25,79,100.0
5529,G#2,2724.45,3/20,63,100.0
5530,C2,2724.45,3/20,63,100.0
5531,G#2,2724.6,1/10,63,100.0
5532,C2,2724.6,1/10,63,100.0
5533,G#2,2724.7,0.25,63,100.0
5534,F#2,2724.7,0.25,63,100.0
5535,G#2,2724.95,0.25,71,100.0
5536,F#2,2724.95,0.25,71,100.0
5537,G#2,2725.2,0.25,79,100.0
5538,F#2,2725.2,0.25,79,100.0
5539,D2,2725.2,0.25,79,100.0
5540,G#2,2725.45,0.25,63,100.0
5541,G#2,2725.7,0.25,79,100.0
5542,F#2,2725.7,0.25,79,100.0
5543,G#2,2725.95,0.25,84,100.0
5544,F#2,2725.95,0.25,84,100.0
5545,C2,2725.95,0.25,84,100.0
5546,G#2,2726.2,0.25,84,100.0
5547,F#2,2726.2,0.25,84,100.0
5548,C2,2726.2,0.25,84,100.0
5549,G#2,2726.45,3/20,63,100.0
5550,G#2,2726.6,1/10,63,100.0
5551,G#2,2726.7,0.25,63,100.0
5552,F#2,2726.7,0.25,63,100.0
5553,G#2,2726.95,0.25,71,100.0
5554,F#2,2726.95,0.25,71,100.0
5555,G#2,2727.2,0.25,84,100.0
5556,F#2,2727.2,0.25,84,100.0
5557,D2,2727.2,0.25,84,100.0
5558,G#2,2727.45,0.25,63,100.0
5559,G#2,2727.7,0.25,63,100.0
5560,G#2,2727.95,0.25,71,100.0
5561,C2,2727.95,0.25,71,100.0
5562,G#2,2728.2,0.25,79,100.0
5563,F#2,2728.2,0.25,79,100.0
5564,G#2,2728.45,3/20,63,100.0
5565,C2,2728.45,3/20,63,100.0
5566,G#2,2728.6,1/10,63,100.0
5567,C2,2728.6,1/10,63,100.0
5568,G#2,2728.7,0.25,63,100.0
5569,F#2,2728.7,0.25,63,100.0
5570,G#2,2728.95,0.25,71,100.0
5571,F#2,2728.95,0.25,71,100.0
5572,G#2,2729.2,0.25,79,100.0
5573,F#2,2729.2,0.25,79,100.0
5574,D2,2729.2,0.25,79,100.0
5575,G#2,2729.45,0.25,63,100.0
5576,G#2,2729.7,0.25,79,100.0
5577,F#2,2729.7,0.25,79,100.0
5578,G#2,2729.95,0.25,84,100.0
5579,F#2,2729.95,0.25,84,100.0
5580,C2,2729.95,0.25,84,100.0
5581,G#2,2730.2,0.25,84,100.0
5582,F#2,2730.2,0.25,84,100.0
5583,C2,2730.2,0.25,84,100.0
5584,G#2,2730.45,3/20,63,100.0
5585,G#2,2730.6,1/10,63,100.0
5586,G#2,2730.7,0.25,63,100.0
5587,F#2,2730.7,0.25,63,100.0
5588,G#2,2730.95,0.25,71,100.0
5589,F#2,2730.95,0.25,71,100.0
5590,G#2,2731.2,0.25,84,100.0
5591,F#2,2731.2,0.25,84,100.0
5592,D2,2731.2,0.25,84,100.0
5593,G#2,2731.45,0.25,63,100.0
5594,G#2,2731.7,0.25,63,100.0
5595,G#2,2731.95,0.25,71,100.0
5596,C2,2731.95,0.25,71,100.0
5597,G#2,2732.2,0.25,79,100.0
5598,F#2,2732.2,0.25,79,100.0
5599,G#2,2732.45,3/20,63,100.0
5600,C2,2732.45,3/20,63,100.0
5601,G#2,2732.6,1/10,63,100.0
5602,C2,2732.6,1/10,63,100.0
5603,G#2,2732.7,0.25,63,100.0
5604,F#2,2732.7,0.25,63,100.0
5605,G#2,2732.95,0.25,71,100.0
5606,F#2,2732.95,0.25,71,100.0
5607,G#2,2733.2,0.25,79,100.0
5608,F#2,2733.2,0.25,79,100.0
5609,D2,2733.2,0.25,79,100.0
5610,G#2,2733.45,0.25,63,100.0
5611,G#2,2733.7,0.25,79,100.0
5612,F#2,2733.7,0.25,79,100.0
5613,G#2,2733.95,0.25,84,100.0
5614,F#2,2733.95,0.25,84,100.0
5615,C2,2733.95,0.25,84,100.0
5616,G#2,2734.2,0.25,84,100.0
5617,F#2,2734.2,0.25,84,100.0
5618,C2,2734.2,0.25,84,100.0
5619,G#2,2734.45,3/20,63,100.0
5620,G#2,2734.6,1/10,63,100.0
5621,G#2,2734.7,0.25,63,100.0
5622,F#2,2734.7,0.25,63,100.0
5623,G#2,2734.95,0.25,71,100.0
5624,F#2,2734.95,0.25,71,100.0
5625,G#2,2735.2,0.25,84,100.0
5626,F#2,2735.2,0.25,84,100.0
5627,D2,2735.2,0.25,84,100.0
5628,G#2,2735.45,0.25,63,100.0
5629,G#2,2735.7,0.25,63,100.0
5630,G#2,2735.95,0.25,71,100.0
5631,C2,2735.95,0.25,71,100.0
5632,G#2,2736.2,0.25,79,100.0
5633,F#2,2736.2,0.25,79,100.0
5634,G#2,2736.45,3/20,63,100.0
5635,C2,2736.45,3/20,63,100.0
5636,G#2,2736.6,1/10,63,100.0
5637,C2,2736.6,1/10,63,100.0
5638,G#2,2736.7,0.25,63,100.0
5639,F#2,2736.7,0.25,63,100.0
5640,G#2,2736.95,0.25,71,100.0
5641,F#2,2736.95,0.25,71,100.0
5642,G#2,2737.2,0.25,79,100.0
5643,F#2,2737.2,0.25,79,100.0
5644,D2,2737.2,0.25,79,100.0
5645,G#2,2737.45,0.25,63,100.0
5646,G#2,2737.7,0.25,79,100.0
5647,F#2,2737.7,0.25,79,100.0
5648,G#2,2737.95,0.25,84,100.0
5649,F#2,2737.95,0.25,84,100.0
5650,C2,2737.95,0.25,84,100.0
5651,G#2,2738.2,0.25,84,100.0
5652,F#2,2738.2,0.25,84,100.0
5653,C2,2738.2,0.25,84,100.0
5654,G#2,2738.45,3/20,63,100.0
5655,G#2,2738.6,1/10,63,100.0
5656,G#2,2738.7,0.25,63,100.0
5657,F#2,2738.7,0.25,63,100.0
5658,G#2,2738.95,0.25,71,100.0
5659,F#2,2738.95,0.25,71,100.0
5660,G#2,2739.2,0.25,84,100.0
5661,F#2,2739.2,0.25,84,100.0
5662,D2,2739.2,0.25,84,100.0
5663,G#2,2739.45,0.25,63,100.0
5664,G#2,2739.7,0.25,63,100.0
5665,G#2,2739.95,0.25,71,100.0
5666,C2,2739.95,0.25,71,100.0
5667,G#2,2740.2,0.25,79,100.0
5668,F#2,2740.2,0.25,79,100.0
5669,G#2,2740.45,3/20,63,100.0
5670,C2,2740.45,3/20,63,100.0
5671,G#2,2740.6,1/10,63,100.0
5672,C2,2740.6,1/10,63,100.0
5673,G#2,2740.7,0.25,63,100.0
5674,F#2,2740.7,0.25,63,100.0
5675,G#2,2740.95,0.25,71,100.0
5676,F#2,2740.95,0.25,71,100.0
5677,G#2,2741.2,0.25,79,100.0
5678,F#2,2741.2,0.25,79,100.0
5679,D2,2741.2,0.25,79,100.0
5680,G#2,2741.45,0.25,63,100.0
5681,G#2,2741.7,0.25,79,100.0
5682,F#2,2741.7,0.25,79,100.0
5683,G#2,2741.95,0.25,84,100.0
5684,F#2,2741.95,0.25,84,100.0
5685,C2,2741.95,0.25,84,100.0
5686,G#2,2742.2,0.25,84,100.0
5687,F#2,2742.2,0.25,84,100.0
5688,C2,2742.2,0.25,84,100.0
5689,G#2,2742.45,3/20,63,100.0
5690,G#2,2742.6,1/10,63,100.0
5691,G#2,2742.7,0.25,63,100.0
5692,F#2,2742.7,0.25,63,100.0
5693,G#2,2742.95,0.25,71,100.0
5694,F#2,2742.95,0.25,71,100.0
5695,G#2,2743.2,0.25,84,100.0
5696,F#2,2743.2,0.25,84,100.0
5697,D2,2743.2,0.25,84,100.0
5698,G#2,2743.45,0.25,63,100.0
5699,G#2,2743.7,0.25,63,100.0
5700,G#2,2743.95,0.25,71,100.0
5701,C2,2743.95,0.25,71,100.0
5702,G#2,2744.2,0.25,79,100.0
5703,F#2,2744.2,0.25,79,100.0
5704,G#2,2744.45,3/20,63,100.0
5705,C2,2744.45,3/20,63,100.0
5706,G#2,2744.6,1/10,63,100.0
5707,C2,2744.6,1/10,63,100.0
5708,G#2,2744.7,0.25,63,100.0
5709,F#2,2744.7,0.25,63,100.0
5710,G#2,2744.95,0.25,71,100.0
5711,F#2,2744.95,0.25,71,100.0
5712,G#2,2745.2,0.25,79,100.0
5713,F#2,2745.2,0.25,79,100.0
5714,D2,2745.2,0.25,79,100.0
5715,G#2,2745.45,0.25,63,100.0
5716,G#2,2745.7,0.25,79,100.0
5717,F#2,2745.7,0.25,79,100.0
5718,G#2,2745.95,0.25,84,100.0
5719,F#2,2745.95,0.25,84,100.0
5720,C2,2745.95,0.25,84,100.0
5721,G#2,2746.2,0.25,84,100.0
5722,F#2,2746.2,0.25,84,100.0
5723,C2,2746.2,0.25,84,100.0
5724,G#2,2746.45,3/20,63,100.0
5725,G#2,2746.6,1/10,63,100.0
5726,G#2,2746.7,0.25,63,100.0
5727,F#2,2746.7,0.25,63,100.0
5728,G#2,2746.95,0.25,71,100.0
5729,F#2,2746.95,0.25,71,100.0
5730,G#2,2747.2,0.25,84,100.0
5731,F#2,2747.2,0.25,84,100.0
5732,D2,2747.2,0.25,84,100.0
5733,G#2,2747.45,0.25,63,100.0
5734,G#2,2747.7,0.25,63,100.0
5735,G#2,2747.95,0.25,71,100.0
5736,C2,2747.95,0.25,71,100.0
5737,G#2,2748.2,0.25,79,100.0
5738,F#2,2748.2,0.25,79,100.0
5739,G#2,2748.45,3/20,63,100.0
5740,C2,2748.45,3/20,63,100.0
5741,G#2,2748.6,1/10,63,100.0
5742,C2,2748.6,1/10,63,100.0
5743,G#2,2748.7,0.25,63,100.0
5744,F#2,2748.7,0.25,63,100.0
5745,G#2,2748.95,0.25,71,100.0
5746,F#2,2748.95,0.25,71,100.0
5747,G#2,2749.2,0.25,79,100.0
5748,F#2,2749.2,0.25,79,100.0
5749,D2,2749.2,0.25,79,100.0
5750,G#2,2749.45,0.25,63,100.0
5751,G#2,2749.7,0.25,79,100.0
5752,F#2,2749.7,0.25,79,100.0
5753,G#2,2749.95,0.25,84,100.0
5754,F#2,2749.95,0.25,84,100.0
5755,C2,2749.95,0.25,84,100.0
5756,G#2,2750.2,0.25,87,100.0
5757,F#2,2750.2,0.25,87,100.0
5758,C2,2750.2,0.25,87,100.0
5759,E3,2750.2,0.25,87,100.0
5760,G#2,2750.45,3/20,63,100.0
5761,G#2,2750.6,1/10,63,100.0
5762,G#2,2750.7,0.25,63,100.0
5763,F#2,2750.7,0.25,63,100.0
5764,G#2,2750.95,0.25,71,100.0
5765,F#2,2750.95,0.25,71,100.0
5766,G#2,2751.2,0.25,84,100.0
5767,F#2,2751.2,0.25,84,100.0
5768,D2,2751.2,0.25,84,100.0
5769,G#2,2751.45,0.25,63,100.0
5770,G#2,2751.7,0.25,63,100.0
5771,G#2,2751.95,0.25,71,100.0
5772,C2,2751.95,0.25,71,100.0
5773,G#2,2752.2,0.25,79,100.0
5774,F#2,2752.2,0.25,79,100.0
5775,G#2,2752.45,3/20,63,100.0
5776,C2,2752.45,3/20,63,100.0
5777,G#2,2752.6,1/10,63,100.0
5778,C2,2752.6,1/10,63,100.0
5779,G#2,2752.7,0.25,63,100.0
5780,F#2,2752.7,0.25,63,100.0
5781,G#2,2752.95,0.25,71,100.0
5782,F#2,2752.95,0.25,71,100.0
5783,G#2,2753.2,0.25,79,100.0
5784,F#2,2753.2,0.25,79,100.0
5785,D2,2753.2,0.25,79,100.0
5786,G#2,2753.45,0.25,63,100.0
5787,G#2,2753.7,0.25,79,100.0
5788,F#2,2753.7,0.25,79,100.0
5789,G#2,2753.95,0.25,84,100.0
5790,F#2,2753.95,0.25,84,100.0
5791,C2,2753.95,0.25,84,100.0
5792,G#2,2754.2,0.25,84,100.0
5793,F#2,2754.2,0.25,84,100.0
5794,C2,2754.2,0.25,84,100.0
5795,G#2,2754.45,3/20,63,100.0
5796,G#2,2754.6,1/10,63,100.0
5797,G#2,2754.7,0.25,63,100.0
5798,F#2,2754.7,0.25,63,100.0
5799,G#2,2754.95,0.25,71,100.0
5800,F#2,2754.95,0.25,71,100.0
5801,G#2,2755.2,0.25,84,100.0
5802,F#2,2755.2,0.25,84,100.0
5803,D2,2755.2,0.25,84,100.0
5804,G#2,2755.45,0.25,63,100.0
5805,G#2,2755.7,0.25,63,100.0
5806,G#2,2755.95,0.25,71,100.0
5807,C2,2755.95,0.25,71,100.0
5808,G#2,2756.2,0.25,79,100.0
5809,F#2,2756.2,0.25,79,100.0
5810,G#2,2756.45,3/20,63,100.0
5811,C2,2756.45,3/20,63,100.0
5812,G#2,2756.6,1/10,63,100.0
5813,C2,2756.6,1/10,63,100.0
5814,G#2,2756.7,0.25,63,100.0
5815,F#2,2756.7,0.25,63,100.0
5816,G#2,2756.95,0.25,71,100.0
5817,F#2,2756.95,0.25,71,100.0
5818,G#2,2757.2,0.25,79,100.0
5819,F#2,2757.2,0.25,79,100.0
5820,D2,2757.2,0.25,79,100.0
5821,G#2,2757.45,0.25,63,100.0
5822,G#2,2757.7,0.25,79,100.0
5823,F#2,2757.7,0.25,79,100.0
5824,G#2,2757.95,0.25,84,100.0
5825,F#2,2757.95,0.25,84,100.0
5826,C2,2757.95,0.25,84,100.0
5827,G#2,2758.2,0.25,84,100.0
5828,F#2,2758.2,0.25,84,100.0
5829,C2,2758.2,0.25,84,100.0
5830,G#2,2758.45,3/20,63,100.0
5831,G#2,2758.6,1/10,63,100.0
5832,G#2,2758.7,0.25,63,100.0
5833,F#2,2758.7,0.25,63,100.0
5834,G#2,2758.95,0.25,71,100.0
5835,F#2,2758.95,0.25,71,100.0
5836,G#2,2759.2,0.25,84,100.0
5837,F#2,2759.2,0.25,84,100.0
5838,D2,2759.2,0.25,84,100.0
5839,G#2,2759.45,0.25,63,100.0
5840,G#2,2759.7,0.25,63,100.0
5841,G#2,2759.95,0.25,71,100.0
5842,C2,2759.95,0.25,71,100.0
5843,G#2,2760.2,0.25,79,100.0
5844,F#2,2760.2,0.25,79,100.0
5845,G#2,2760.45,3/20,63,100.0
5846,C2,2760.45,3/20,63,100.0
5847,G#2,2760.6,1/10,63,100.0
5848,C2,2760.6,1/10,63,100.0
5849,G#2,2760.7,0.25,63,100.0
5850,F#2,2760.7,0.25,63,100.0
5851,G#2,2760.95,0.25,71,100.0
5852,F#2,2760.95,0.25,71,100.0
5853,G#2,2761.2,0.25,79,100.0
5854,F#2,2761.2,0.25,79,100.0
5855,D2,2761.2,0.25,79,100.0
5856,G#2,2761.45,0.25,63,100.0
5857,G#2,2761.7,0.25,79,100.0
5858,F#2,2761.7,0.25,79,100.0
5859,G#2,2761.95,0.25,84,100.0
5860,F#2,2761.95,0.25,84,100.0
5861,C2,2761.95,0.25,84,100.0
5862,G#2,2762.2,0.25,84,100.0
5863,F#2,2762.2,0.25,84,100.0
5864,C2,2762.2,0.25,84,100.0
5865,G#2,2762.45,3/20,63,100.0
5866,G#2,2762.6,1/10,63,100.0
5867,G#2,2762.7,0.25,63,100.0
5868,F#2,2762.7,0.25,63,100.0
5869,G#2,2762.95,0.25,71,100.0
5870,F#2,2762.95,0.25,71,100.0
5871,G#2,2763.2,0.25,84,100.0
5872,F#2,2763.2,0.25,84,100.0
5873,D2,2763.2,0.25,84,100.0
5874,G#2,2763.45,0.25,63,100.0
5875,G#2,2763.7,0.25,63,100.0
5876,G#2,2763.95,0.25,71,100.0
5877,C2,2763.95,0.25,71,100.0
5878,G#2,2764.2,0.25,79,100.0
5879,F#2,2764.2,0.25,79,100.0
5880,G#2,2764.45,3/20,63,100.0
5881,C2,2764.45,3/20,63,100.0
5882,G#2,2764.6,1/10,63,100.0
5883,C2,2764.6,1/10,63,100.0
5884,G#2,2764.7,0.25,63,100.0
5885,F#2,2764.7,0.25,63,100.0
5886,G#2,2764.95,0.25,71,100.0
5887,F#2,2764.95,0.25,71,100.0
5888,G#2,2765.2,0.25,79,100.0
5889,F#2,2765.2,0.25,79,100.0
5890,D2,2765.2,0.25,79,100.0
5891,G#2,2765.45,0.25,63,100.0
5892,G#2,2765.7,0.25,79,100.0
5893,F#2,2765.7,0.25,79,100.0
5894,G#2,2765.95,0.25,84,100.0
5895,F#2,2765.95,0.25,84,100.0
5896,C2,2765.95,0.25,84,100.0
5897,G#2,2766.2,0.25,87,100.0
5898,F#2,2766.2,0.25,87,100.0
5899,C2,2766.2,0.25,87,100.0
5900,C#3,2766.2,0.25,87,100.0
5901,G#2,2766.45,3/20,63,100.0
5902,G#2,2766.6,1/10,63,100.0
5903,G#2,2766.7,0.25,63,100.0
5904,F#2,2766.7,0.25,63,100.0
5905,G#2,2766.95,0.25,71,100.0
5906,F#2,2766.95,0.25,71,100.0
5907,G#2,2767.2,0.25,84,100.0
5908,F#2,2767.2,0.25,84,100.0
5909,D2,2767.2,0.25,84,100.0
5910,G#2,2767.45,0.25,63,100.0
5911,G#2,2767.7,0.25,63,100.0
5912,G#2,2767.95,0.25,71,100.0
5913,C2,2767.95,0.25,71,100.0
5914,G#2,2768.2,0.25,79,100.0
5915,F#2,2768.2,0.25,79,100.0
5916,G#2,2768.45,3/20,63,100.0
5917,C2,2768.45,3/20,63,100.0
5918,G#2,2768.6,1/10,63,100.0
5919,C2,2768.6,1/10,63,100.0
5920,G#2,2768.7,0.25,63,100.0
5921,F#2,2768.7,0.25,63,100.0
5922,G#2,2768.95,0.25,71,100.0
5923,F#2,2768.95,0.25,71,100.0
5924,G#2,2769.2,0.25,79,100.0
5925,F#2,2769.2,0.25,79,100.0
5926,D2,2769.2,0.25,79,100.0
5927,G#2,2769.45,0.25,63,100.0
5928,G#2,2769.7,0.25,79,100.0
5929,F#2,2769.7,0.25,79,100.0
5930,G#2,2769.95,0.25,84,100.0
5931,F#2,2769.95,0.25,84,100.0
5932,C2,2769.95,0.25,84,100.0
5933,G#2,2770.2,0.25,84,100.0
5934,F#2,2770.2,0.25,84,100.0
5935,C2,2770.2,0.25,84,100.0
5936,G#2,2770.45,3/20,63,100.0
5937,G#2,2770.6,1/10,63,100.0
5938,G#2,2770.7,0.25,63,100.0
5939,F#2,2770.7,0.25,63,100.0
5940,G#2,2770.95,0.25,71,100.0
5941,F#2,2770.95,0.25,71,100.0
5942,G#2,2771.2,0.25,84,100.0
5943,F#2,2771.2,0.25,84,100.0
5944,D2,2771.2,0.25,84,100.0
5945,G#2,2771.45,0.25,63,100.0
5946,G#2,2771.7,0.25,63,100.0
5947,G#2,2771.95,0.25,71,100.0
5948,C2,2771.95,0.25,71,100.0
5949,G#2,2772.2,0.25,79,100.0
5950,F#2,2772.2,0.25,79,100.0
5951,G#2,2772.45,3/20,63,100.0
5952,C2,2772.45,3/20,63,100.0
5953,G#2,2772.6,1/10,63,100.0
5954,C2,2772.6,1/10,63,100.0
5955,G#2,2772.7,0.25,63,100.0
5956,F#2,2772.7,0.25,63,100.0
5957,G#2,2772.95,0.25,71,100.0
5958,F#2,2772.95,0.25,71,100.0
5959,G#2,2773.2,0.25,79,100.0
5960,F#2,2773.2,0.25,79,100.0
5961,D2,2773.2,0.25,79,100.0
5962,G#2,2773.45,0.25,63,100.0
5963,G#2,2773.7,0.25,79,100.0
5964,F#2,2773.7,0.25,79,100.0
5965,G#2,2773.95,0.25,84,100.0
5966,F#2,2773.95,0.25,84,100.0
5967,C2,2773.95,0.25,84,100.0
5968,G#2,2774.2,0.25,84,100.0
5969,F#2,2774.2,0.25,84,100.0
5970,C2,2774.2,0.25,84,100.0
5971,G#2,2774.45,3/20,63,100.0
5972,G#2,2774.6,1/10,63,100.0
5973,G#2,2774.7,0.25,63,100.0
5974,F#2,2774.7,0.25,63,100.0
5975,G#2,2774.95,0.25,71,100.0
5976,F#2,2774.95,0.25,71,100.0
5977,G#2,2775.2,0.25,84,100.0
5978,F#2,2775.2,0.25,84,100.0
5979,D2,2775.2,0.25,84,100.0
5980,G#2,2775.45,0.25,63,100.0
5981,G#2,2775.7,0.25,63,100.0
5982,G#2,2775.95,0.25,71,100.0
5983,C2,2775.95,0.25,71,100.0
5984,G#2,2776.2,0.25,79,100.0
5985,F#2,2776.2,0.25,79,100.0
5986,G#2,2776.45,3/20,63,100.0
5987,C2,2776.45,3/20,63,100.0
5988,G#2,2776.6,1/10,63,100.0
5989,C2,2776.6,1/10,63,100.0
5990,G#2,2776.7,0.25,63,100.0
5991,F#2,2776.7,0.25,63,100.0
5992,G#2,2776.95,0.25,71,100.0
5993,F#2,2776.95,0.25,71,100.0
5994,G#2,2777.2,0.25,79,100.0
5995,F#2,2777.2,0.25,79,100.0
5996,D2,2777.2,0.25,79,100.0
5997,G#2,2777.45,0.25,63,100.0
5998,G#2,2777.7,0.25,79,100.0
5999,F#2,2777.7,0.25,79,100.0
6000,G#2,2777.95,0.25,84,100.0
6001,F#2,2777.95,0.25,84,100.0
6002,C2,2777.95,0.25,84,100.0
6003,G#2,2778.2,0.25,84,100.0
6004,F#2,2778.2,0.25,84,100.0
6005,C2,2778.2,0.25,84,100.0
6006,G#2,2778.45,3/20,63,100.0
6007,G#2,2778.6,1/10,63,100.0
6008,G#2,2778.7,0.25,63,100.0
6009,F#2,2778.7,0.25,63,100.0
6010,G#2,2778.95,0.25,71,100.0
6011,F#2,2778.95,0.25,71,100.0
6012,G#2,2779.2,0.25,84,100.0
6013,F#2,2779.2,0.25,84,100.0
6014,D2,2779.2,0.25,84,100.0
6015,G#2,2779.45,0.25,63,100.0
6016,G#2,2779.7,0.25,63,100.0
6017,G#2,2779.95,0.25,71,100.0
6018,C2,2779.95,0.25,71,100.0
6019,G#2,2780.2,0.25,79,100.0
6020,F#2,2780.2,0.25,79,100.0
6021,G#2,2780.45,3/20,63,100.0
6022,G2,2780.45,3/20,63,100.0
6023,G#2,2780.6,1/10,63,100.0
6024,G2,2780.6,1/10,63,100.0
6025,G#2,2780.7,0.125,63,100.0
6026,F#2,2780.7,0.125,63,100.0
6027,G2,2780.7,0.125,63,100.0
6028,G2,2780.825,0.125,47,100.0
6029,G#2,2780.95,0.25,68,100.0
6030,F#2,2780.95,0.25,68,100.0
6031,G2,2780.95,0.25,68,100.0
6032,G#2,2781.2,0.25,67,100.0
6033,F#2,2781.2,0.25,67,100.0
6034,B2,2781.2,0.25,67,100.0
6035,E2,2781.2,0.25,67,100.0
6036,G#2,2781.45,0.25,68,100.0
6037,A2,2781.45,0.25,68,100.0
6038,E2,2781.45,0.25,68,100.0
6039,G#2,2781.7,0.25,79,100.0
6040,F#2,2781.7,0.25,79,100.0
6041,G2,2781.7,0.25,79,100.0
6042,E2,2781.7,0.25,79,100.0
6043,G#2,2781.95,0.25,79,100.0
6044,F#2,2781.95,0.25,79,100.0
6045,G#2,2782.2,0.25,87,100.0
6046,F#2,2782.2,0.25,87,100.0
6047,C2,2782.2,0.25,87,100.0
6048,C#3,2782.2,0.25,87,100.0
6049,G#2,2782.45,3/20,63,100.0
6050,G#2,2782.6,1/10,63,100.0
6051,G#2,2782.7,0.25,74,100.0
6052,F#2,2782.7,0.25,74,100.0
6053,F#3,2782.7,0.25,74,100.0
6054,G#2,2782.95,0.25,71,100.0
6055,F#2,2782.95,0.25,71,100.0
6056,G#2,2783.2,0.25,87,100.0
6057,F#2,2783.2,0.25,87,100.0
6058,D2,2783.2,0.25,87,100.0
6059,F#3,2783.2,0.25,87,100.0
6060,G#2,2783.45,0.25,63,100.0
6061,G#2,2783.7,0.25,79,100.0
6062,F#3,2783.7,0.25,79,100.0
6063,G#2,2783.95,0.25,71,100.0
6064,C2,2783.95,0.25,71,100.0
6065,G#2,2784.2,0.25,79,100.0
6066,F#2,2784.2,0.25,79,100.0
6067,G#2,2784.45,3/20,63,100.0
6068,C2,2784.45,3/20,63,100.0
6069,G#2,2784.6,1/10,63,100.0
6070,C2,2784.6,1/10,63,100.0
6071,G#2,2784.7,0.25,63,100.0
6072,F#2,2784.7,0.25,63,100.0
6073,G#2,2784.95,0.25,79,100.0
6074,F#2,2784.95,0.25,79,100.0
6075,F#3,2784.95,0.25,79,100.0
6076,G#2,2785.2,0.25,79,100.0
6077,F#2,2785.2,0.25,79,100.0
6078,D2,2785.2,0.25,79,100.0
6079,G#2,2785.45,0.25,79,100.0
6080,F#3,2785.45,0.25,79,100.0
6081,G#2,2785.7,0.25,79,100.0
6082,F#2,2785.7,0.25,79,100.0
6083,G#2,2785.95,0.25,84,100.0
6084,F#2,2785.95,0.25,84,100.0
6085,C2,2785.95,0.25,84,100.0
6086,G#2,2786.2,0.25,84,100.0
6087,F#2,2786.2,0.25,84,100.0
6088,C2,2786.2,0.25,84,100.0
6089,G#2,2786.45,3/20,63,100.0
6090,G#2,2786.6,1/10,63,100.0
6091,G#2,2786.7,0.25,74,100.0
6092,F#2,2786.7,0.25,74,100.0
6093,F#3,2786.7,0.25,74,100.0
6094,G#2,2786.95,0.25,71,100.0
6095,F#2,2786.95,0.25,71,100.0
6096,G#2,2787.2,0.25,87,100.0
6097,F#2,2787.2,0.25,87,100.0
6098,D2,2787.2,0.25,87,100.0
6099,F#3,2787.2,0.25,87,100.0
6100,G#2,2787.45,0.25,63,100.0
6101,G#2,2787.7,0.25,79,100.0
6102,F#3,2787.7,0.25,79,100.0
6103,G#2,2787.95,0.25,71,100.0
6104,C2,2787.95,0.25,71,100.0
6105,G#2,2788.2,0.25,79,100.0
6106,F#2,2788.2,0.25,79,100.0
6107,G#2,2788.45,3/20,63,100.0
6108,C2,2788.45,3/20,63,100.0
6109,G#2,2788.6,1/10,63,100.0
6110,C2,2788.6,1/10,63,100.0
6111,G#2,2788.7,0.25,63,100.0
6112,F#2,2788.7,0.25,63,100.0
6113,G#2,2788.95,0.25,79,100.0
6114,F#2,2788.95,0.25,79,100.0
6115,F#3,2788.95,0.25,79,100.0
6116,G#2,2789.2,0.25,79,100.0
6117,F#2,2789.2,0.25,79,100.0
6118,D2,2789.2,0.25,79,100.0
6119,G#2,2789.45,0.25,79,100.0
6120,F#3,2789.45,0.25,79,100.0
6121,G#2,2789.7,0.25,79,100.0
6122,F#2,2789.7,0.25,79,100.0
6123,G#2,2789.95,0.25,84,100.0
6124,F#2,2789.95,0.25,84,100.0
6125,C2,2789.95,0.25,84,100.0
6126,G#2,2790.2,0.25,84,100.0
6127,F#2,2790.2,0.25,84,100.0
6128,C2,2790.2,0.25,84,100.0
6129,G#2,2790.45,3/20,63,100.0
6130,G#2,2790.6,1/10,63,100.0
6131,G#2,2790.7,0.25,74,100.0
6132,F#2,2790.7,0.25,74,100.0
6133,F#3,2790.7,0.25,74,100.0
6134,G#2,2790.95,0.25,71,100.0
6135,F#2,2790.95,0.25,71,100.0
6136,G#2,2791.2,0.25,87,100.0
6137,F#2,2791.2,0.25,87,100.0
6138,D2,2791.2,0.25,87,100.0
6139,F#3,2791.2,0.25,87,100.0
6140,G#2,2791.45,0.25,63,100.0
6141,G#2,2791.7,0.25,79,100.0
6142,F#3,2791.7,0.25,79,100.0
6143,G#2,2791.95,0.25,71,100.0
6144,C2,2791.95,0.25,71,100.0
6145,G#2,2792.2,0.25,79,100.0
6146,F#2,2792.2,0.25,79,100.0
6147,G#2,2792.45,3/20,63,100.0
6148,C2,2792.45,3/20,63,100.0
6149,G#2,2792.6,1/10,63,100.0
6150,C2,2792.6,1/10,63,100.0
6151,G#2,2792.7,0.25,63,100.0
6152,F#2,2792.7,0.25,63,100.0
6153,G#2,2792.95,0.25,79,100.0
6154,F#2,2792.95,0.25,79,100.0
6155,F#3,2792.95,0.25,79,100.0
6156,G#2,2793.2,0.25,79,100.0
6157,F#2,2793.2,0.25,79,100.0
6158,D2,2793.2,0.25,79,100.0
6159,G#2,2793.45,0.25,79,100.0
6160,F#3,2793.45,0.25,79,100.0
6161,G#2,2793.7,0.25,79,100.0
6162,F#2,2793.7,0.25,79,100.0
6163,G#2,2793.95,0.25,84,100.0
6164,F#2,2793.95,0.25,84,100.0
6165,C2,2793.95,0.25,84,100.0
6166,G#2,2794.2,0.25,84,100.0
6167,F#2,2794.2,0.25,84,100.0
6168,C2,2794.2,0.25,84,100.0
6169,G#2,2794.45,3/20,63,100.0
6170,G#2,2794.6,1/10,63,100.0
6171,G#2,2794.7,0.25,74,100.0
6172,F#2,2794.7,0.25,74,100.0
6173,F#3,2794.7,0.25,74,100.0
6174,G#2,2794.95,0.25,71,100.0
6175,F#2,2794.95,0.25,71,100.0
6176,G#2,2795.2,0.25,87,100.0
6177,F#2,2795.2,0.25,87,100.0
6178,D2,2795.2,0.25,87,100.0
6179,F#3,2795.2,0.25,87,100.0
6180,G#2,2795.45,0.25,63,100.0
6181,G#2,2795.7,0.25,79,100.0
6182,F#3,2795.7,0.25,79,100.0
6183,G#2,2795.95,0.25,71,100.0
6184,C2,2795.95,0.25,71,100.0
6185,G#2,2796.2,0.25,79,100.0
6186,F#2,2796.2,0.25,79,100.0
6187,G#2,2796.45,3/20,63,100.0
6188,C2,2796.45,3/20,63,100.0
6189,G#2,2796.6,1/10,63,100.0
6190,C2,2796.6,1/10,63,100.0
6191,G#2,2796.7,0.25,63,100.0
6192,F#2,2796.7,0.25,63,100.0
6193,G#2,2796.95,0.25,79,100.0
6194,F#2,2796.95,0.25,79,100.0
6195,F#3,2796.95,0.25,79,100.0
6196,G#2,2797.2,0.25,79,100.0
6197,F#2,2797.2,0.25,79,100.0
6198,D2,2797.2,0.25,79,100.0
6199,G#2,2797.45,0.25,79,100.0
6200,F#3,2797.45,0.25,79,100.0
6201,G#2,2797.7,0.25,79,100.0
6202,F#2,2797.7,0.25,79,100.0
6203,G#2,2797.95,0.25,84,100.0
6204,F#2,2797.95,0.25,84,100.0
6205,C2,2797.95,0.25,84,100.0
6206,G#2,2798.2,0.25,87,100.0
6207,F#2,2798.2,0.25,87,100.0
6208,C2,2798.2,0.25,87,100.0
6209,E3,2798.2,0.25,87,100.0
6210,G#2,2798.45,3/20,63,100.0
6211,G#2,2798.6,1/10,63,100.0
6212,G#2,2798.7,0.25,74,100.0
6213,F#2,2798.7,0.25,74,100.0
6214,F#3,2798.7,0.25,74,100.0
6215,G#2,2798.95,0.25,71,100.0
6216,F#2,2798.95,0.25,71,100.0
6217,G#2,2799.2,0.25,87,100.0
6218,F#2,2799.2,0.25,87,100.0
6219,D2,2799.2,0.25,87,100.0
6220,F#3,2799.2,0.25,87,100.0
6221,G#2,2799.45,0.25,63,100.0
6222,G#2,2799.7,0.25,79,100.0
6223,F#3,2799.7,0.25,79,100.0
6224,G#2,2799.95,0.25,71,100.0
6225,C2,2799.95,0.25,71,100.0
6226,G#2,2800.2,0.25,79,100.0
6227,F#2,2800.2,0.25,79,100.0
6228,G#2,2800.45,3/20,63,100.0
6229,C2,2800.45,3/20,63,100.0
6230,G#2,2800.6,1/10,63,100.0
6231,C2,2800.6,1/10,63,100.0
6232,G#2,2800.7,0.25,63,100.0
6233,F#2,2800.7,0.25,63,100.0
6234,G#2,2800.95,0.25,79,100.0
6235,F#2,2800.95,0.25,79,100.0
6236,F#3,2800.95,0.25,79,100.0
6237,G#2,2801.2,0.25,79,100.0
6238,F#2,2801.2,0.25,79,100.0
6239,D2,2801.2,0.25,79,100.0
6240,G#2,2801.45,0.25,79,100.0
6241,F#3,2801.45,0.25,79,100.0
6242,G#2,2801.7,0.25,79,100.0
6243,F#2,2801.7,0.25,79,100.0
6244,G#2,2801.95,0.25,84,100.0
6245,F#2,2801.95,0.25,84,100.0
6246,C2,2801.95,0.25,84,100.0
6247,G#2,2802.2,0.25,84,100.0
6248,F#2,2802.2,0.25,84,100.0
6249,C2,2802.2,0.25,84,100.0
6250,G#2,2802.45,3/20,63,100.0
6251,G#2,2802.6,1/10,63,100.0
6252,G#2,2802.7,0.25,74,100.0
6253,F#2,2802.7,0.25,74,100.0
6254,F#3,2802.7,0.25,74,100.0
6255,G#2,2802.95,0.25,71,100.0
6256,F#2,2802.95,0.25,71,100.0
6257,G#2,2803.2,0.25,87,100.0
6258,F#2,2803.2,0.25,87,100.0
6259,D2,2803.2,0.25,87,100.0
6260,F#3,2803.2,0.25,87,100.0
6261,G#2,2803.45,0.25,63,100.0
6262,G#2,2803.7,0.25,79,100.0
6263,F#3,2803.7,0.25,79,100.0
6264,G#2,2803.95,0.25,71,100.0
6265,C2,2803.95,0.25,71,100.0
6266,G#2,2804.2,0.25,79,100.0
6267,F#2,2804.2,0.25,79,100.0
6268,G#2,2804.45,3/20,63,100.0
6269,C2,2804.45,3/20,63,100.0
6270,G#2,2804.6,1/10,63,100.0
6271,C2,2804.6,1/10,63,100.0
6272,G#2,2804.7,0.25,63,100.0
6273,F#2,2804.7,0.25,63,100.0
6274,G#2,2804.95,0.25,79,100.0
6275,F#2,2804.95,0.25,79,100.0
6276,F#3,2804.95,0.25,79,100.0
6277,G#2,2805.2,0.25,79,100.0
6278,F#2,2805.2,0.25,79,100.0
6279,D2,2805.2,0.25,79,100.0
6280,G#2,2805.45,0.25,79,100.0
6281,F#3,2805.45,0.25,79,100.0
6282,G#2,2805.7,0.25,79,100.0
6283,F#2,2805.7,0.25,79,100.0
6284,G#2,2805.95,0.25,84,100.0
6285,F#2,2805.95,0.25,84,100.0
6286,C2,2805.95,0.25,84,100.0
6287,G#2,2806.2,0.25,84,100.0
6288,F#2,2806.2,0.25,84,100.0
6289,C2,2806.2,0.25,84,100.0
6290,G#2,2806.45,3/20,63,100.0
6291,G#2,2806.6,1/10,63,100.0
6292,G#2,2806.7,0.25,74,100.0
6293,F#2,2806.7,0.25,74,100.0
6294,F#3,2806.7,0.25,74,100.0
6295,G#2,2806.95,0.25,71,100.0
6296,F#2,2806.95,0.25,71,100.0
6297,G#2,2807.2,0.25,87,100.0
6298,F#2,2807.2,0.25,87,100.0
6299,D2,2807.2,0.25,87,100.0
6300,F#3,2807.2,0.25,87,100.0
6301,G#2,2807.45,0.25,63,100.0
6302,G#2,2807.7,0.25,79,100.0
6303,F#3,2807.7,0.25,79,100.0
6304,G#2,2807.95,0.25,71,100.0
6305,C2,2807.95,0.25,71,100.0
6306,G#2,2808.2,0.25,79,100.0
6307,F#2,2808.2,0.25,79,100.0
6308,G#2,2808.45,3/20,63,100.0
6309,C2,2808.45,3/20,63,100.0
6310,G#2,2808.6,1/10,63,100.0
6311,C2,2808.6,1/10,63,100.0
6312,G#2,2808.7,0.25,63,100.0
6313,F#2,2808.7,0.25,63,100.0
6314,G#2,2808.95,0.25,79,100.0
6315,F#2,2808.95,0.25,79,100.0
6316,F#3,2808.95,0.25,79,100.0
6317,G#2,2809.2,0.25,79,100.0
6318,F#2,2809.2,0.25,79,100.0
6319,D2,2809.2,0.25,79,100.0
6320,G#2,2809.45,0.25,79,100.0
6321,F#3,2809.45,0.25,79,100.0
6322,G#2,2809.7,0.25,79,100.0
6323,F#2,2809.7,0.25,79,100.0
6324,G#2,2809.95,0.25,84,100.0
6325,F#2,2809.95,0.25,84,100.0
6326,C2,2809.95,0.25,84,100.0
6327,G#2,2810.2,0.25,84,100.0
6328,F#2,2810.2,0.25,84,100.0
6329,C2,2810.2,0.25,84,100.0
6330,G#2,2810.45,3/20,63,100.0
6331,G#2,2810.6,1/10,63,100.0
6332,G#2,2810.7,0.25,74,100.0
6333,F#2,2810.7,0.25,74,100.0
6334,F#3,2810.7,0.25,74,100.0
6335,G#2,2810.95,0.25,71,100.0
6336,F#2,2810.95,0.25,71,100.0
6337,G#2,2811.2,0.25,87,100.0
6338,F#2,2811.2,0.25,87,100.0
6339,D2,2811.2,0.25,87,100.0
6340,F#3,2811.2,0.25,87,100.0
6341,G#2,2811.45,0.25,63,100.0
6342,G#2,2811.7,0.25,79,100.0
6343,F#3,2811.7,0.25,79,100.0
6344,G#2,2811.95,0.25,71,100.0
6345,C2,2811.95,0.25,71,100.0
6346,G#2,2812.2,0.25,79,100.0
6347,F#2,2812.2,0.25,79,100.0
6348,G#2,2812.45,3/20,63,100.0
6349,C2,2812.45,3/20,63,100.0
6350,C4,2812.45,3/20,63,100.0
6351,G#2,2812.6,1/10,63,100.0
6352,C2,2812.6,1/10,63,100.0
6353,C4,2812.6,1/10,63,100.0
6354,G#2,2812.7,0.25,63,100.0
6355,F#2,2812.7,0.25,63,100.0
6356,G#2,2812.95,0.25,75,100.0
6357,F#2,2812.95,0.25,75,100.0
6358,F#3,2812.95,0.25,75,100.0
6359,C4,2812.95,0.25,75,100.0
6360,G#2,2813.2,0.25,75,100.0
6361,F#2,2813.2,0.25,75,100.0
6362,D2,2813.2,0.25,75,100.0
6363,C4,2813.2,0.25,75,100.0
6364,G#2,2813.45,0.25,79,100.0
6365,F#3,2813.45,0.25,79,100.0
6366,G#2,2813.7,0.25,74,100.0
6367,F#2,2813.7,0.25,74,100.0
6368,C4,2813.7,0.25,74,100.0
6369,G#2,2813.95,0.25,84,100.0
6370,F#2,2813.95,0.25,84,100.0
6371,C2,2813.95,0.25,84,100.0
6372,G#2,2814.2,0.25,87,100.0
6373,F#2,2814.2,0.25,87,100.0
6374,C2,2814.2,0.25,87,100.0
6375,C#3,2814.2,0.25,87,100.0
6376,G#2,2814.45,3/20,63,100.0
6377,G#2,2814.6,1/10,63,100.0
6378,G#2,2814.7,0.25,74,100.0
6379,F#2,2814.7,0.25,74,100.0
6380,F#3,2814.7,0.25,74,100.0
6381,G#2,2814.95,0.25,71,100.0
6382,F#2,2814.95,0.25,71,100.0
6383,G#2,2815.2,0.25,87,100.0
6384,F#2,2815.2,0.25,87,100.0
6385,D2,2815.2,0.25,87,100.0
6386,F#3,2815.2,0.25,87,100.0
6387,G#2,2815.45,0.25,63,100.0
6388,G#2,2815.7,0.25,79,100.0
6389,F#3,2815.7,0.25,79,100.0
6390,G#2,2815.95,0.25,71,100.0
6391,C2,2815.95,0.25,71,100.0
6392,G#2,2816.2,0.25,79,100.0
6393,F#2,2816.2,0.25,79,100.0
6394,G#2,2816.45,3/20,63,100.0
6395,C2,2816.45,3/20,63,100.0
6396,G#2,2816.6,1/10,63,100.0
6397,C2,2816.6,1/10,63,100.0
6398,G#2,2816.7,0.25,63,100.0
6399,F#2,2816.7,0.25,63,100.0
6400,G#2,2816.95,0.25,79,100.0
6401,F#2,2816.95,0.25,79,100.0
6402,F#3,2816.95,0.25,79,100.0
6403,G#2,2817.2,0.25,79,100.0
6404,F#2,2817.2,0.25,79,100.0
6405,D2,2817.2,0.25,79,100.0
6406,G#2,2817.45,0.25,79,100.0
6407,F#3,2817.45,0.25,79,100.0
6408,G#2,2817.7,0.25,79,100.0
6409,F#2,2817.7,0.25,79,100.0
6410,G#2,2817.95,0.25,84,100.0
6411,F#2,2817.95,0.25,84,100.0
6412,C2,2817.95,0.25,84,100.0
6413,G#2,2818.2,0.25,84,100.0
6414,F#2,2818.2,0.25,84,100.0
6415,C2,2818.2,0.25,84,100.0
6416,G#2,2818.45,3/20,63,100.0
6417,G#2,2818.6,1/10,63,100.0
6418,G#2,2818.7,0.25,74,100.0
6419,F#2,2818.7,0.25,74,100.0
6420,F#3,2818.7,0.25,74,100.0
6421,G#2,2818.95,0.25,71,100.0
6422,F#2,2818.95,0.25,71,100.0
6423,G#2,2819.2,0.25,87,100.0
6424,F#2,2819.2,0.25,87,100.0
6425,D2,2819.2,0.25,87,100.0
6426,F#3,2819.2,0.25,87,100.0
6427,G#2,2819.45,0.25,63,100.0
6428,G#2,2819.7,0.25,79,100.0
6429,F#3,2819.7,0.25,79,100.0
6430,G#2,2819.95,0.25,71,100.0
6431,C2,2819.95,0.25,71,100.0
6432,G#2,2820.2,0.25,79,100.0
6433,F#2,2820.2,0.25,79,100.0
6434,G#2,2820.45,3/20,63,100.0
6435,C2,2820.45,3/20,63,100.0
6436,G#2,2820.6,1/10,63,100.0
6437,C2,2820.6,1/10,63,100.0
6438,G#2,2820.7,0.25,63,100.0
6439,F#2,2820.7,0.25,63,100.0
6440,G#2,2820.95,0.25,79,100.0
6441,F#2,2820.95,0.25,79,100.0
6442,F#3,2820.95,0.25,79,100.0
6443,G#2,2821.2,0.25,79,100.0
6444,F#2,2821.2,0.25,79,100.0
6445,D2,2821.2,0.25,79,100.0
6446,G#2,2821.45,0.25,79,100.0
6447,F#3,2821.45,0.25,79,100.0
6448,G#2,2821.7,0.25,79,100.0
6449,F#2,2821.7,0.25,79,100.0
6450,G#2,2821.95,0.25,84,100.0
6451,F#2,2821.95,0.25,84,100.0
6452,C2,2821.95,0.25,84,100.0
6453,G#2,2822.2,0.25,84,100.0
6454,F#2,2822.2,0.25,84,100.0
6455,C2,2822.2,0.25,84,100.0
6456,G#2,2822.45,3/20,63,100.0
6457,G#2,2822.6,1/10,63,100.0
6458,G#2,2822.7,0.25,74,100.0
6459,F#2,2822.7,0.25,74,100.0
6460,F#3,2822.7,0.25,74,100.0
6461,G#2,2822.95,0.25,71,100.0
6462,F#2,2822.95,0.25,71,100.0
6463,G#2,2823.2,0.25,87,100.0
6464,F#2,2823.2,0.25,87,100.0
6465,D2,2823.2,0.25,87,100.0
6466,F#3,2823.2,0.25,87,100.0
6467,G#2,2823.45,0.25,63,100.0
6468,G#2,2823.7,0.25,79,100.0
6469,F#3,2823.7,0.25,79,100.0
6470,G#2,2823.95,0.25,71,100.0
6471,C2,2823.95,0.25,71,100.0
6472,G#2,2824.2,0.25,79,100.0
6473,F#2,2824.2,0.25,79,100.0
6474,G#2,2824.45,3/20,63,100.0
6475,C2,2824.45,3/20,63,100.0
6476,G#2,2824.6,1/10,63,100.0
6477,C2,2824.6,1/10,63,100.0
6478,G#2,2824.7,0.25,63,100.0
6479,F#2,2824.7,0.25,63,100.0
6480,G#2,2824.95,0.25,79,100.0
6481,F#2,2824.95,0.25,79,100.0
6482,F#3,2824.95,0.25,79,100.0
6483,G#2,2825.2,0.25,79,100.0
6484,F#2,2825.2,0.25,79,100.0
6485,D2,2825.2,0.25,79,100.0
6486,G#2,2825.45,0.25,79,100.0
6487,F#3,2825.45,0.25,79,100.0
6488,G#2,2825.7,0.25,79,100.0
6489,F#2,2825.7,0.25,79,100.0
6490,G#2,2825.95,0.25,84,100.0
6491,F#2,2825.95,0.25,84,100.0
6492,C2,2825.95,0.25,84,100.0
6493,G#2,2826.2,0.25,84,100.0
6494,F#2,2826.2,0.25,84,100.0
6495,C2,2826.2,0.25,84,100.0
6496,G#2,2826.45,3/20,63,100.0
6497,G#2,2826.6,1/10,63,100.0
6498,G#2,2826.7,0.25,74,100.0
6499,F#2,2826.7,0.25,74,100.0
6500,F#3,2826.7,0.25,74,100.0
6501,G#2,2826.95,0.25,71,100.0
6502,F#2,2826.95,0.25,71,100.0
6503,G#2,2827.2,0.25,87,100.0
6504,F#2,2827.2,0.25,87,100.0
6505,D2,2827.2,0.25,87,100.0
6506,F#3,2827.2,0.25,87,100.0
6507,G#2,2827.45,0.25,63,100.0
6508,G#2,2827.7,0.25,79,100.0
6509,F#3,2827.7,0.25,79,100.0
6510,G#2,2827.95,0.25,71,100.0
6511,C2,2827.95,0.25,71,100.0
6512,G#2,2828.2,0.25,79,100.0
6513,F#2,2828.2,0.25,79,100.0
6514,G#2,2828.45,3/20,63,100.0
6515,C2,2828.45,3/20,63,100.0
6516,G#2,2828.6,1/10,63,100.0
6517,C2,2828.6,1/10,63,100.0
6518,G#2,2828.7,0.25,63,100.0
6519,F#2,2828.7,0.25,63,100.0
6520,G#2,2828.95,0.25,83,100.0
6521,F#2,2828.95,0.25,83,100.0
6522,F#3,2828.95,0.25,83,100.0
6523,C2,2828.95,0.25,83,100.0
6524,G#2,2829.2,0.25,83,100.0
6525,F#2,2829.2,0.25,83,100.0
6526,D2,2829.2,0.25,83,100.0
6527,B2,2829.2,0.25,83,100.0
6528,G#2,2829.45,0.25,79,100.0
6529,F#3,2829.45,0.25,79,100.0
6530,G#2,2829.7,0.25,84,100.0
6531,F#2,2829.7,0.25,84,100.0
6532,A2,2829.7,0.25,84,100.0
6533,G#2,2829.95,0.25,84,100.0
6534,F#2,2829.95,0.25,84,100.0
6535,C2,2829.95,0.25,84,100.0
6536,G#2,2830.2,0.25,87,100.0
6537,F#2,2830.2,0.25,87,100.0
6538,C2,2830.2,0.25,87,100.0
6539,C#3,2830.2,0.25,87,100.0
6540,G#2,2830.45,3/20,63,100.0
6541,G#2,2830.6,1/10,63,100.0
6542,G#2,2830.7,0.25,74,100.0
6543,F#2,2830.7,0.25,74,100.0
6544,F#3,2830.7,0.25,74,100.0
6545,G#2,2830.95,0.25,71,100.0
6546,F#2,2830.95,0.25,71,100.0
6547,G#2,2831.2,0.25,87,100.0
6548,F#2,2831.2,0.25,87,100.0
6549,D2,2831.2,0.25,87,100.0
6550,F#3,2831.2,0.25,87,100.0
6551,G#2,2831.45,0.25,63,100.0
6552,G#2,2831.7,0.25,79,100.0
6553,F#3,2831.7,0.25,79,100.0
6554,G#2,2831.95,0.25,71,100.0
6555,C2,2831.95,0.25,71,100.0
6556,G#2,2832.2,0.25,79,100.0
6557,F#2,2832.2,0.25,79,100.0
6558,G#2,2832.45,3/20,63,100.0
6559,C2,2832.45,3/20,63,100.0
6560,G#2,2832.6,1/10,63,100.0
6561,C2,2832.6,1/10,63,100.0
6562,G#2,2832.7,0.25,63,100.0
6563,F#2,2832.7,0.25,63,100.0
6564,G#2,2832.95,0.25,79,100.0
6565,F#2,2832.95,0.25,79,100.0
6566,F#3,2832.95,0.25,79,100.0
6567,G#2,2833.2,0.25,79,100.0
6568,F#2,2833.2,0.25,79,100.0
6569,D2,2833.2,0.25,79,100.0
6570,G#2,2833.45,0.25,79,100.0
6571,F#3,2833.45,0.25,79,100.0
6572,G#2,2833.7,0.25,79,100.0
6573,F#2,2833.7,0.25,79,100.0
6574,G#2,2833.95,0.25,84,100.0
6575,F#2,2833.95,0.25,84,100.0
6576,C2,2833.95,0.25,84,100.0
6577,G#2,2834.2,0.25,84,100.0
6578,F#2,2834.2,0.25,84,100.0
6579,C2,2834.2,0.25,84,100.0
6580,G#2,2834.45,3/20,63,100.0
6581,G#2,2834.6,1/10,63,100.0
6582,G#2,2834.7,0.25,74,100.0
6583,F#2,2834.7,0.25,74,100.0
6584,F#3,2834.7,0.25,74,100.0
6585,G#2,2834.95,0.25,71,100.0
6586,F#2,2834.95,0.25,71,100.0
6587,G#2,2835.2,0.25,87,100.0
6588,F#2,2835.2,0.25,87,100.0
6589,D2,2835.2,0.25,87,100.0
6590,F#3,2835.2,0.25,87,100.0
6591,G#2,2835.45,0.25,63,100.0
6592,G#2,2835.7,0.25,79,100.0
6593,F#3,2835.7,0.25,79,100.0
6594,G#2,2835.95,0.25,71,100.0
6595,C2,2835.95,0.25,71,100.0
6596,G#2,2836.2,0.25,79,100.0
6597,F#2,2836.2,0.25,79,100.0
6598,G#2,2836.45,3/20,63,100.0
6599,C2,2836.45,3/20,63,100.0
6600,G#2,2836.6,1/10,63,100.0
6601,C2,2836.6,1/10,63,100.0
6602,G#2,2836.7,0.25,63,100.0
6603,F#2,2836.7,0.25,63,100.0
6604,G#2,2836.95,0.25,79,100.0
6605,F#2,2836.95,0.25,79,100.0
6606,F#3,2836.95,0.25,79,100.0
6607,G#2,2837.2,0.25,79,100.0
6608,F#2,2837.2,0.25,79,100.0
6609,D2,2837.2,0.25,79,100.0
6610,G#2,2837.45,0.25,79,100.0
6611,F#3,2837.45,0.25,79,100.0
6612,G#2,2837.7,0.25,79,100.0
6613,F#2,2837.7,0.25,79,100.0
6614,G#2,2837.95,0.25,84,100.0
6615,F#2,2837.95,0.25,84,100.0
6616,C2,2837.95,0.25,84,100.0
6617,G#2,2838.2,0.25,84,100.0
6618,F#2,2838.2,0.25,84,100.0
6619,C2,2838.2,0.25,84,100.0
6620,G#2,2838.45,3/20,63,100.0
6621,G#2,2838.6,1/10,63,100.0
6622,G#2,2838.7,0.25,74,100.0
6623,F#2,2838.7,0.25,74,100.0
6624,F#3,2838.7,0.25,74,100.0
6625,G#2,2838.95,0.25,71,100.0
6626,F#2,2838.95,0.25,71,100.0
6627,G#2,2839.2,0.25,87,100.0
6628,F#2,2839.2,0.25,87,100.0
6629,D2,2839.2,0.25,87,100.0
6630,F#3,2839.2,0.25,87,100.0
6631,G#2,2839.45,0.25,63,100.0
6632,G#2,2839.7,0.25,79,100.0
6633,F#3,2839.7,0.25,79,100.0
6634,G#2,2839.95,0.25,71,100.0
6635,C2,2839.95,0.25,71,100.0
6636,G#2,2840.2,0.25,79,100.0
6637,F#2,2840.2,0.25,79,100.0
6638,G#2,2840.45,3/20,63,100.0
6639,C2,2840.45,3/20,63,100.0
6640,G#2,2840.6,1/10,63,100.0
6641,C2,2840.6,1/10,63,100.0
6642,G#2,2840.7,0.25,63,100.0
6643,F#2,2840.7,0.25,63,100.0
6644,G#2,2840.95,0.25,79,100.0
6645,F#2,2840.95,0.25,79,100.0
6646,F#3,2840.95,0.25,79,100.0
6647,G#2,2841.2,0.25,79,100.0
6648,F#2,2841.2,0.25,79,100.0
6649,D2,2841.2,0.25,79,100.0
6650,G#2,2841.45,0.25,79,100.0
6651,F#3,2841.45,0.25,79,100.0
6652,G#2,2841.7,0.25,79,100.0
6653,F#2,2841.7,0.25,79,100.0
6654,G#2,2841.95,0.25,84,100.0
6655,F#2,2841.95,0.25,84,100.0
6656,C2,2841.95,0.25,84,100.0
6657,G#2,2842.2,0.25,84,100.0
6658,F#2,2842.2,0.25,84,100.0
6659,C2,2842.2,0.25,84,100.0
6660,G#2,2842.45,3/20,63,100.0
6661,G#2,2842.6,1/10,63,100.0
6662,G#2,2842.7,0.25,74,100.0
6663,F#2,2842.7,0.25,74,100.0
6664,F#3,2842.7,0.25,74,100.0
6665,G#2,2842.95,0.25,71,100.0
6666,F#2,2842.95,0.25,71,100.0
6667,G#2,2843.2,0.25,87,100.0
6668,F#2,2843.2,0.25,87,100.0
6669,D2,2843.2,0.25,87,100.0
6670,F#3,2843.2,0.25,87,100.0
6671,G#2,2843.45,0.25,63,100.0
6672,G#2,2843.7,0.25,79,100.0
6673,F#3,2843.7,0.25,79,100.0
6674,G#2,2843.95,0.25,71,100.0
6675,C2,2843.95,0.25,71,100.0
6676,G#2,2844.2,0.25,79,100.0
6677,F#2,2844.2,0.25,79,100.0
6678,G#2,2844.45,3/20,63,100.0
6679,C2,2844.45,3/20,63,100.0
6680,G#2,2844.6,1/10,63,100.0
6681,C2,2844.6,1/10,63,100.0
6682,G#2,2844.7,0.25,63,100.0
6683,F#2,2844.7,0.25,63,100.0
6684,G#2,2844.95,0.25,83,100.0
6685,F#2,2844.95,0.25,83,100.0
6686,F#3,2844.95,0.25,83,100.0
6687,C2,2844.95,0.25,83,100.0
6688,G#2,2845.2,0.25,83,100.0
6689,F#2,2845.2,0.25,83,100.0
6690,D2,2845.2,0.25,83,100.0
6691,B2,2845.2,0.25,83,100.0
6692,G#2,2845.45,0.25,79,100.0
6693,F#3,2845.45,0.25,79,100.0
6694,G#2,2845.7,0.25,84,100.0
6695,F#2,2845.7,0.25,84,100.0
6696,A2,2845.7,0.25,84,100.0
6697,G#2,2845.95,0.25,84,100.0
6698,F#2,2845.95,0.25,84,100.0
6699,C2,2845.95,0.25,84,100.0
6700,G#2,2846.2,0.25,87,100.0
6701,F#2,2846.2,0.25,87,100.0
6702,C2,2846.2,0.25,87,100.0
6703,C#3,2846.2,0.25,87,100.0
6704,G#2,2846.45,3/20,63,100.0
6705,G#2,2846.6,1/10,63,100.0
6706,G#2,2846.7,0.25,74,100.0
6707,F#2,2846.7,0.25,74,100.0
6708,F#3,2846.7,0.25,74,100.0
6709,G#2,2846.95,0.25,71,100.0
6710,F#2,2846.95,0.25,71,100.0
6711,G#2,2847.2,0.25,87,100.0
6712,F#2,2847.2,0.25,87,100.0
6713,D2,2847.2,0.25,87,100.0
6714,F#3,2847.2,0.25,87,100.0
6715,G#2,2847.45,0.25,63,100.0
6716,G#2,2847.7,0.25,79,100.0
6717,F#3,2847.7,0.25,79,100.0
6718,G#2,2847.95,0.25,71,100.0
6719,C2,2847.95,0.25,71,100.0
6720,G#2,2848.2,0.25,79,100.0
6721,F#2,2848.2,0.25,79,100.0
6722,G#2,2848.45,3/20,63,100.0
6723,C2,2848.45,3/20,63,100.0
6724,G#2,2848.6,1/10,63,100.0
6725,C2,2848.6,1/10,63,100.0
6726,G#2,2848.7,0.25,63,100.0
6727,F#2,2848.7,0.25,63,100.0
6728,G#2,2848.95,0.25,79,100.0
6729,F#2,2848.95,0.25,79,100.0
6730,F#3,2848.95,0.25,79,100.0
6731,G#2,2849.2,0.25,79,100.0
6732,F#2,2849.2,0.25,79,100.0
6733,D2,2849.2,0.25,79,100.0
6734,G#2,2849.45,0.25,79,100.0
6735,F#3,2849.45,0.25,79,100.0
6736,G#2,2849.7,0.25,79,100.0
6737,F#2,2849.7,0.25,79,100.0
6738,G#2,2849.95,0.25,84,100.0
6739,F#2,2849.95,0.25,84,100.0
6740,C2,2849.95,0.25,84,100.0
6741,G#2,2850.2,0.25,84,100.0
6742,F#2,2850.2,0.25,84,100.0
6743,C2,2850.2,0.25,84,100.0
6744,G#2,2850.45,3/20,63,100.0
6745,G#2,2850.6,1/10,63,100.0
6746,G#2,2850.7,0.25,74,100.0
6747,F#2,2850.7,0.25,74,100.0
6748,F#3,2850.7,0.25,74,100.0
6749,G#2,2850.95,0.25,71,100.0
6750,F#2,2850.95,0.25,71,100.0
6751,G#2,2851.2,0.25,87,100.0
6752,F#2,2851.2,0.25,87,100.0
6753,D2,2851.2,0.25,87,100.0
6754,F#3,2851.2,0.25,87,100.0
6755,G#2,2851.45,0.25,63,100.0
6756,G#2,2851.7,0.25,79,100.0
6757,F#3,2851.7,0.25,79,100.0
6758,G#2,2851.95,0.25,71,100.0
6759,C2,2851.95,0.25,71,100.0
6760,G#2,2852.2,0.25,79,100.0
6761,F#2,2852.2,0.25,79,100.0
6762,G#2,2852.45,3/20,63,100.0
6763,C2,2852.45,3/20,63,100.0
6764,G#2,2852.6,1/10,63,100.0
6765,C2,2852.6,1/10,63,100.0
6766,G#2,2852.7,0.25,63,100.0
6767,F#2,2852.7,0.25,63,100.0
6768,G#2,2852.95,0.25,79,100.0
6769,F#2,2852.95,0.25,79,100.0
6770,F#3,2852.95,0.25,79,100.0
6771,G#2,2853.2,0.25,79,100.0
6772,F#2,2853.2,0.25,79,100.0
6773,D2,2853.2,0.25,79,100.0
6774,G#2,2853.45,0.25,79,100.0
6775,F#3,2853.45,0.25,79,100.0
6776,G#2,2853.7,0.25,79,100.0
6777,F#2,2853.7,0.25,79,100.0
6778,G#2,2853.95,0.25,84,100.0
6779,F#2,2853.95,0.25,84,100.0
6780,C2,2853.95,0.25,84,100.0
6781,G#2,2854.2,0.25,84,100.0
6782,F#2,2854.2,0.25,84,100.0
6783,C2,2854.2,0.25,84,100.0
6784,G#2,2854.45,3/20,63,100.0
6785,G#2,2854.6,1/10,63,100.0
6786,G#2,2854.7,0.25,74,100.0
6787,F#2,2854.7,0.25,74,100.0
6788,F#3,2854.7,0.25,74,100.0
6789,G#2,2854.95,0.25,71,100.0
6790,F#2,2854.95,0.25,71,100.0
6791,G#2,2855.2,0.25,87,100.0
6792,F#2,2855.2,0.25,87,100.0
6793,D2,2855.2,0.25,87,100.0
6794,F#3,2855.2,0.25,87,100.0
6795,G#2,2855.45,0.25,63,100.0
6796,G#2,2855.7,0.25,79,100.0
6797,F#3,2855.7,0.25,79,100.0
6798,G#2,2855.95,0.25,71,100.0
6799,C2,2855.95,0.25,71,100.0
6800,G#2,2856.2,0.25,79,100.0
6801,F#2,2856.2,0.25,79,100.0
6802,G#2,2856.45,3/20,63,100.0
6803,C2,2856.45,3/20,63,100.0
6804,G#2,2856.6,1/10,63,100.0
6805,C2,2856.6,1/10,63,100.0
6806,G#2,2856.7,0.25,63,100.0
6807,F#2,2856.7,0.25,63,100.0
6808,G#2,2856.95,0.25,79,100.0
6809,F#2,2856.95,0.25,79,100.0
6810,F#3,2856.95,0.25,79,100.0
6811,G#2,2857.2,0.25,79,100.0
6812,F#2,2857.2,0.25,79,100.0
6813,D2,2857.2,0.25,79,100.0
6814,G#2,2857.45,0.25,79,100.0
6815,F#3,2857.45,0.25,79,100.0
6816,G#2,2857.7,0.25,79,100.0
6817,F#2,2857.7,0.25,79,100.0
6818,G#2,2857.95,0.25,84,100.0
6819,F#2,2857.95,0.25,84,100.0
6820,C2,2857.95,0.25,84,100.0
6821,G#2,2858.2,0.25,84,100.0
6822,F#2,2858.2,0.25,84,100.0
6823,C2,2858.2,0.25,84,100.0
6824,G#2,2858.45,3/20,63,100.0
6825,G#2,2858.6,1/10,63,100.0
6826,G#2,2858.7,0.25,74,100.0
6827,F#2,2858.7,0.25,74,100.0
6828,F#3,2858.7,0.25,74,100.0
6829,G#2,2858.95,0.25,71,100.0
6830,F#2,2858.95,0.25,71,100.0
6831,G#2,2859.2,0.25,87,100.0
6832,F#2,2859.2,0.25,87,100.0
6833,D2,2859.2,0.25,87,100.0
6834,F#3,2859.2,0.25,87,100.0
6835,G#2,2859.45,0.25,63,100.0
6836,G#2,2859.7,0.25,79,100.0
6837,F#3,2859.7,0.25,79,100.0
6838,G#2,2859.95,0.25,71,100.0
6839,C2,2859.95,0.25,71,100.0
6840,G#2,2860.2,0.25,79,100.0
6841,F#2,2860.2,0.25,79,100.0
6842,G#2,2860.45,3/20,63,100.0
6843,C2,2860.45,3/20,63,100.0
6844,G#2,2860.6,1/10,63,100.0
6845,C2,2860.6,1/10,63,100.0
6846,G#2,2860.7,0.25,63,100.0
6847,F#2,2860.7,0.25,63,100.0
6848,G#2,2860.95,0.25,83,100.0
6849,F#2,2860.95,0.25,83,100.0
6850,F#3,2860.95,0.25,83,100.0
6851,C2,2860.95,0.25,83,100.0
6852,G#2,2861.2,0.25,83,100.0
6853,F#2,2861.2,0.25,83,100.0
6854,D2,2861.2,0.25,83,100.0
6855,B2,2861.2,0.25,83,100.0
6856,G#2,2861.45,0.25,79,100.0
6857,F#3,2861.45,0.25,79,100.0
6858,G#2,2861.7,0.25,84,100.0
6859,F#2,2861.7,0.25,84,100.0
6860,A2,2861.7,0.25,84,100.0
6861,G#2,2861.95,0.25,84,100.0
6862,F#2,2861.95,0.25,84,100.0
6863,C2,2861.95,0.25,84,100.0
6864,G#2,2862.2,0.25,84,100.0
6865,F#2,2862.2,0.25,84,100.0
6866,C2,2862.2,0.25,84,100.0
6867,G#2,2862.45,3/20,63,100.0
6868,G#2,2862.6,1/10,63,100.0
6869,G#2,2862.7,0.25,74,100.0
6870,F#2,2862.7,0.25,74,100.0
6871,F#3,2862.7,0.25,74,100.0
6872,G#2,2862.95,0.25,71,100.0
6873,F#2,2862.95,0.25,71,100.0
6874,G#2,2863.2,0.25,87,100.0
6875,F#2,2863.2,0.25,87,100.0
6876,D2,2863.2,0.25,87,100.0
6877,F#3,2863.2,0.25,87,100.0
6878,G#2,2863.45,0.25,63,100.0
6879,G#2,2863.7,0.25,79,100.0
6880,F#3,2863.7,0.25,79,100.0
6881,G#2,2863.95,0.25,71,100.0
6882,C2,2863.95,0.25,71,100.0
6883,G#2,2864.2,0.25,79,100.0
6884,F#2,2864.2,0.25,79,100.0
6885,G#2,2864.45,3/20,63,100.0
6886,C2,2864.45,3/20,63,100.0
6887,G#2,2864.6,1/10,63,100.0
6888,C2,2864.6,1/10,63,100.0
6889,G#2,2864.7,0.25,63,100.0
6890,F#2,2864.7,0.25,63,100.0
6891,G#2,2864.95,0.25,79,100.0
6892,F#2,2864.95,0.25,79,100.0
6893,F#3,2864.95,0.25,79,100.0
6894,G#2,2865.2,0.25,79,100.0
6895,F#2,2865.2,0.25,79,100.0
6896,D2,2865.2,0.25,79,100.0
6897,G#2,2865.45,0.25,79,100.0
6898,F#3,2865.45,0.25,79,100.0
6899,G#2,2865.7,0.25,79,100.0
6900,F#2,2865.7,0.25,79,100.0
6901,G#2,2865.95,0.25,84,100.0
6902,F#2,2865.95,0.25,84,100.0
6903,C2,2865.95,0.25,84,100.0
6904,G#2,2866.2,0.25,84,100.0
6905,F#2,2866.2,0.25,84,100.0
6906,C2,2866.2,0.25,84,100.0
6907,G#2,2866.45,3/20,63,100.0
6908,G#2,2866.6,1/10,63,100.0
6909,G#2,2866.7,0.25,74,100.0
6910,F#2,2866.7,0.25,74,100.0
6911,F#3,2866.7,0.25,74,100.0
6912,G#2,2866.95,0.25,71,100.0
6913,F#2,2866.95,0.25,71,100.0
6914,G#2,2867.2,0.25,87,100.0
6915,F#2,2867.2,0.25,87,100.0
6916,D2,2867.2,0.25,87,100.0
6917,F#3,2867.2,0.25,87,100.0
6918,G#2,2867.45,0.25,63,100.0
6919,G#2,2867.7,0.25,79,100.0
6920,F#3,2867.7,0.25,79,100.0
6921,G#2,2867.95,0.25,71,100.0
6922,C2,2867.95,0.25,71,100.0
6923,G#2,2868.2,0.25,79,100.0
6924,F#2,2868.2,0.25,79,100.0
6925,G#2,2868.45,3/20,63,100.0
6926,C2,2868.45,3/20,63,100.0
6927,G#2,2868.6,1/10,63,100.0
6928,C2,2868.6,1/10,63,100.0
6929,G#2,2868.7,0.25,63,100.0
6930,F#2,2868.7,0.25,63,100.0
6931,G#2,2868.95,0.25,79,100.0
6932,F#2,2868.95,0.25,79,100.0
6933,F#3,2868.95,0.25,79,100.0
6934,G#2,2869.2,0.25,79,100.0
6935,F#2,2869.2,0.25,79,100.0
6936,D2,2869.2,0.25,79,100.0
6937,G#2,2869.45,0.25,79,100.0
6938,F#3,2869.45,0.25,79,100.0
6939,G#2,2869.7,0.25,79,100.0
6940,F#2,2869.7,0.25,79,100.0
6941,G#2,2869.95,0.25,84,100.0
6942,F#2,2869.95,0.25,84,100.0
6943,C2,2869.95,0.25,84,100.0
6944,G#2,2870.2,0.25,84,100.0
6945,F#2,2870.2,0.25,84,100.0
6946,C2,2870.2,0.25,84,100.0
6947,G#2,2870.45,3/20,63,100.0
6948,G#2,2870.6,1/10,63,100.0
6949,G#2,2870.7,0.25,74,100.0
6950,F#2,2870.7,0.25,74,100.0
6951,F#3,2870.7,0.25,74,100.0
6952,G#2,2870.95,0.25,71,100.0
6953,F#2,2870.95,0.25,71,100.0
6954,G#2,2871.2,0.25,87,100.0
6955,F#2,2871.2,0.25,87,100.0
6956,D2,2871.2,0.25,87,100.0
6957,F#3,2871.2,0.25,87,100.0
6958,G#2,2871.45,0.25,63,100.0
6959,G#2,2871.7,0.25,79,100.0
6960,F#3,2871.7,0.25,79,100.0
6961,G#2,2871.95,0.25,71,100.0
6962,C2,2871.95,0.25,71,100.0
6963,G#2,2872.2,0.25,79,100.0
6964,F#2,2872.2,0.25,79,100.0
6965,G#2,2872.45,3/20,63,100.0
6966,C2,2872.45,3/20,63,100.0
6967,G#2,2872.6,1/10,63,100.0
6968,C2,2872.6,1/10,63,100.0
6969,G#2,2872.7,0.25,63,100.0
6970,F#2,2872.7,0.25,63,100.0
6971,G#2,2872.95,0.25,79,100.0
6972,F#2,2872.95,0.25,79,100.0
6973,F#3,2872.95,0.25,79,100.0
6974,G#2,2873.2,0.25,79,100.0
6975,F#2,2873.2,0.25,79,100.0
6976,D2,2873.2,0.25,79,100.0
6977,G#2,2873.45,0.25,79,100.0
6978,F#3,2873.45,0.25,79,100.0
6979,G#2,2873.7,0.25,79,100.0
6980,F#2,2873.7,0.25,79,100.0
6981,G#2,2873.95,0.25,84,100.0
6982,F#2,2873.95,0.25,84,100.0
6983,C2,2873.95,0.25,84,100.0
6984,G#2,2874.2,0.25,84,100.0
6985,F#2,2874.2,0.25,84,100.0
6986,C2,2874.2,0.25,84,100.0
6987,G#2,2874.45,3/20,63,100.0
6988,G#2,2874.6,1/10,63,100.0
6989,G#2,2874.7,0.25,74,100.0
6990,F#2,2874.7,0.25,74,100.0
6991,F#3,2874.7,0.25,74,100.0
6992,G#2,2874.95,0.25,71,100.0
6993,F#2,2874.95,0.25,71,100.0
6994,G#2,2875.2,0.25,87,100.0
6995,F#2,2875.2,0.25,87,100.0
6996,D2,2875.2,0.25,87,100.0
6997,F#3,2875.2,0.25,87,100.0
6998,G#2,2875.45,0.25,63,100.0
6999,G#2,2875.7,0.25,79,100.0
7000,F#3,2875.7,0.25,79,100.0
7001,G#2,2875.95,0.25,71,100.0
7002,C2,2875.95,0.25,71,100.0
7003,G#2,2876.2,0.25,79,100.0
7004,F#2,2876.2,0.25,79,100.0
7005,G#2,2876.45,3/20,63,100.0
7006,C2,2876.45,3/20,63,100.0
7007,G#2,2876.6,1/10,63,100.0
7008,C2,2876.6,1/10,63,100.0
7009,G#2,2876.7,0.25,63,100.0
7010,F#2,2876.7,0.25,63,100.0
7011,G#2,2876.95,0.25,83,100.0
7012,F#2,2876.95,0.25,83,100.0
7013,F#3,2876.95,0.25,83,100.0
7014,C2,2876.95,0.25,83,100.0
7015,G#2,2877.2,0.25,83,100.0
7016,F#2,2877.2,0.25,83,100.0
7017,D2,2877.2,0.25,83,100.0
7018,C2,2877.2,0.25,83,100.0
7019,G#2,2877.45,0.25,79,100.0
7020,F#3,2877.45,0.25,79,100.0
7021,G#2,2877.7,0.25,91,100.0
7022,F#2,2877.7,0.25,91,100.0
7023,A3,2877.7,0.25,91,100.0
7024,C2,2877.7,0.25,91,100.0
7025,G#2,2877.95,0.25,84,100.0
7026,F#2,2877.95,0.25,84,100.0
7027,C2,2877.95,0.25,84,100.0
7028,G#2,2878.2,0.25,84,100.0
7029,F#2,2878.2,0.25,84,100.0
7030,C2,2878.2,0.25,84,100.0
7031,G#2,2878.45,3/20,63,100.0
7032,G#2,2878.6,1/10,63,100.0
7033,G#2,2878.7,0.25,63,100.0
7034,F#2,2878.7,0.25,63,100.0
7035,G#2,2878.95,0.25,71,100.0
7036,F#2,2878.95,0.25,71,100.0
7037,G#2,2879.2,0.25,84,100.0
7038,F#2,2879.2,0.25,84,100.0
7039,D2,2879.2,0.25,84,100.0
7040,G#2,2879.45,0.25,79,100.0
7041,C2,2879.45,0.25,79,100.0
7042,G#2,2879.7,0.25,63,100.0
7043,G#2,2879.95,0.25,71,100.0
7044,C2,2879.95,0.25,71,100.0
7045,G#2,2880.2,0.25,79,100.0
7046,F#2,2880.2,0.25,79,100.0
7047,G#2,2880.45,3/20,63,100.0
7048,C2,2880.45,3/20,63,100.0
7049,G#2,2880.6,1/10,63,100.0
7050,C2,2880.6,1/10,63,100.0
7051,G#2,2880.7,0.25,63,100.0
7052,F#2,2880.7,0.25,63,100.0
7053,G#2,2880.95,0.25,71,100.0
7054,F#2,2880.95,0.25,71,100.0
7055,G#2,2881.2,0.25,79,100.0
7056,F#2,2881.2,0.25,79,100.0
7057,D2,2881.2,0.25,79,100.0
7058,G#2,2881.45,0.25,63,100.0
7059,G#2,2881.7,0.25,79,100.0
7060,F#2,2881.7,0.25,79,100.0
7061,G#2,2881.95,0.25,79,100.0
7062,F#2,2881.95,0.25,79,100.0
7063,G#2,2882.2,0.25,84,100.0
7064,F#2,2882.2,0.25,84,100.0
7065,C2,2882.2,0.25,84,100.0
7066,G#2,2882.45,3/20,63,100.0
7067,G#2,2882.6,1/10,63,100.0
7068,G#2,2882.7,0.25,63,100.0
7069,F#2,2882.7,0.25,63,100.0
7070,G#2,2882.95,0.25,71,100.0
7071,F#2,2882.95,0.25,71,100.0
7072,G#2,2883.2,0.25,84,100.0
7073,F#2,2883.2,0.25,84,100.0
7074,D2,2883.2,0.25,84,100.0
7075,G#2,2883.45,0.25,79,100.0
7076,C2,2883.45,0.25,79,100.0
7077,G#2,2883.7,0.25,63,100.0
7078,G#2,2883.95,0.25,71,100.0
7079,C2,2883.95,0.25,71,100.0
7080,G#2,2884.2,0.25,79,100.0
7081,F#2,2884.2,0.25,79,100.0
7082,G#2,2884.45,3/20,63,100.0
7083,C2,2884.45,3/20,63,100.0
7084,G#2,2884.6,1/10,63,100.0
7085,C2,2884.6,1/10,63,100.0
7086,G#2,2884.7,0.25,63,100.0
7087,F#2,2884.7,0.25,63,100.0
7088,G#2,2884.95,0.25,71,100.0
7089,F#2,2884.95,0.25,71,100.0
7090,G#2,2885.2,0.25,79,100.0
7091,F#2,2885.2,0.25,79,100.0
7092,D2,2885.2,0.25,79,100.0
7093,G#2,2885.45,0.25,63,100.0
7094,G#2,2885.7,0.25,79,100.0
7095,F#2,2885.7,0.25,79,100.0
7096,G#2,2885.95,0.25,79,100.0
7097,F#2,2885.95,0.25,79,100.0
7098,G#2,2886.2,0.25,84,100.0
7099,F#2,2886.2,0.25,84,100.0
7100,C2,2886.2,0.25,84,100.0
7101,G#2,2886.45,3/20,63,100.0
7102,G#2,2886.6,1/10,63,100.0
7103,G#2,2886.7,0.25,63,100.0
7104,F#2,2886.7,0.25,63,100.0
7105,G#2,2886.95,0.25,71,100.0
7106,F#2,2886.95,0.25,71,100.0
7107,G#2,2887.2,0.25,84,100.0
7108,F#2,2887.2,0.25,84,100.0
7109,D2,2887.2,0.25,84,100.0
7110,G#2,2887.45,0.25,79,100.0
7111,C2,2887.45,0.25,79,100.0
7112,G#2,2887.7,0.25,63,100.0
7113,G#2,2887.95,0.25,71,100.0
7114,C2,2887.95,0.25,71,100.0
7115,G#2,2888.2,0.25,79,100.0
7116,F#2,2888.2,0.25,79,100.0
7117,G#2,2888.45,3/20,63,100.0
7118,C2,2888.45,3/20,63,100.0
7119,G#2,2888.6,1/10,63,100.0
7120,C2,2888.6,1/10,63,100.0
7121,G#2,2888.7,0.25,63,100.0
7122,F#2,2888.7,0.25,63,100.0
7123,G#2,2888.95,0.25,71,100.0
7124,F#2,2888.95,0.25,71,100.0
7125,G#2,2889.2,0.25,79,100.0
7126,F#2,2889.2,0.25,79,100.0
7127,D2,2889.2,0.25,79,100.0
7128,G#2,2889.45,0.25,63,100.0
7129,G#2,2889.7,0.25,79,100.0
7130,F#2,2889.7,0.25,79,100.0
7131,G#2,2889.95,0.25,79,100.0
7132,F#2,2889.95,0.25,79,100.0
7133,G#2,2890.2,0.25,84,100.0
7134,F#2,2890.2,0.25,84,100.0
7135,C2,2890.2,0.25,84,100.0
7136,G#2,2890.45,3/20,63,100.0
7137,G#2,2890.6,1/10,63,100.0
7138,G#2,2890.7,0.25,63,100.0
7139,F#2,2890.7,0.25,63,100.0
7140,G#2,2890.95,0.25,71,100.0
7141,F#2,2890.95,0.25,71,100.0
7142,G#2,2891.2,0.25,84,100.0
7143,F#2,2891.2,0.25,84,100.0
7144,D2,2891.2,0.25,84,100.0
7145,G#2,2891.45,0.25,79,100.0
7146,C2,2891.45,0.25,79,100.0
7147,G#2,2891.7,0.25,63,100.0
7148,G#2,2891.95,0.25,71,100.0
7149,C2,2891.95,0.25,71,100.0
7150,G#2,2892.2,0.25,79,100.0
7151,F#2,2892.2,0.25,79,100.0
7152,G#2,2892.45,3/20,63,100.0
7153,C2,2892.45,3/20,63,100.0
7154,G#2,2892.6,1/10,63,100.0
7155,C2,2892.6,1/10,63,100.0
7156,G#2,2892.7,0.25,63,100.0
7157,F#2,2892.7,0.25,63,100.0
7158,G#2,2892.95,0.25,71,100.0
7159,F#2,2892.95,0.25,71,100.0
7160,G#2,2893.2,0.25,79,100.0
7161,F#2,2893.2,0.25,79,100.0
7162,D2,2893.2,0.25,79,100.0
7163,G#2,2893.45,0.25,63,100.0
7164,G#2,2893.7,0.25,79,100.0
7165,F#2,2893.7,0.25,79,100.0
7166,G#2,2893.95,0.25,79,100.0
7167,F#2,2893.95,0.25,79,100.0
7168,G#2,2894.2,0.25,84,100.0
7169,F#2,2894.2,0.25,84,100.0
7170,C2,2894.2,0.25,84,100.0
7171,G#2,2894.45,3/20,63,100.0
7172,G#2,2894.6,1/10,63,100.0
7173,G#2,2894.7,0.25,63,100.0
7174,F#2,2894.7,0.25,63,100.0
7175,G#2,2894.95,0.25,71,100.0
7176,F#2,2894.95,0.25,71,100.0
7177,G#2,2895.2,0.25,84,100.0
7178,F#2,2895.2,0.25,84,100.0
7179,D2,2895.2,0.25,84,100.0
7180,G#2,2895.45,0.25,79,100.0
7181,C2,2895.45,0.25,79,100.0
7182,G#2,2895.7,0.25,63,100.0
7183,G#2,2895.95,0.25,71,100.0
7184,C2,2895.95,0.25,71,100.0
7185,G#2,2896.2,0.25,79,100.0
7186,F#2,2896.2,0.25,79,100.0
7187,G#2,2896.45,3/20,63,100.0
7188,C2,2896.45,3/20,63,100.0
7189,G#2,2896.6,1/10,63,100.0
7190,C2,2896.6,1/10,63,100.0
7191,G#2,2896.7,0.25,63,100.0
7192,F#2,2896.7,0.25,63,100.0
7193,G#2,2896.95,0.25,71,100.0
7194,F#2,2896.95,0.25,71,100.0
7195,G#2,2897.2,0.25,79,100.0
7196,F#2,2897.2,0.25,79,100.0
7197,D2,2897.2,0.25,79,100.0
7198,G#2,2897.45,0.25,63,100.0
7199,G#2,2897.7,0.25,79,100.0
7200,F#2,2897.7,0.25,79,100.0
7201,G#2,2897.95,0.25,84,100.0
7202,F#2,2897.95,0.25,84,100.0
7203,C2,2897.95,0.25,84,100.0
7204,G#2,2898.2,0.25,79,100.0
7205,F#2,2898.2,0.25,79,100.0
7206,G#2,2898.45,3/20,63,100.0
7207,G#2,2898.6,1/10,63,100.0
7208,G#2,2898.7,0.25,74,100.0
7209,F#2,2898.7,0.25,74,100.0
7210,C2,2898.7,0.25,74,100.0
7211,G#2,2898.95,0.25,71,100.0
7212,F#2,2898.95,0.25,71,100.0
7213,G#2,2899.2,0.25,84,100.0
7214,F#2,2899.2,0.25,84,100.0
7215,D2,2899.2,0.25,84,100.0
7216,G#2,2899.45,0.25,63,100.0
7217,G#2,2899.7,0.25,63,100.0
7218,G#2,2899.95,0.25,63,100.0
7219,G#2,2900.2,0.25,84,100.0
7220,F#2,2900.2,0.25,84,100.0
7221,C2,2900.2,0.25,84,100.0
7222,G#2,2900.45,3/20,63,100.0
7223,G#2,2900.6,1/10,63,100.0
7224,G#2,2900.7,0.25,63,100.0
7225,F#2,2900.7,0.25,63,100.0
7226,G#2,2900.95,0.25,71,100.0
7227,F#2,2900.95,0.25,71,100.0
7228,G#2,2901.2,0.25,79,100.0
7229,F#2,2901.2,0.25,79,100.0
7230,D2,2901.2,0.25,79,100.0
7231,G#2,2901.45,0.25,63,100.0
7232,G#2,2901.7,0.25,79,100.0
7233,F#2,2901.7,0.25,79,100.0
7234,G#2,2901.95,0.25,84,100.0
7235,F#2,2901.95,0.25,84,100.0
7236,C2,2901.95,0.25,84,100.0
7237,G#2,2902.2,0.25,79,100.0
7238,F#2,2902.2,0.25,79,100.0
7239,G#2,2902.45,3/20,63,100.0
7240,G#2,2902.6,1/10,63,100.0
7241,G#2,2902.7,0.25,74,100.0
7242,F#2,2902.7,0.25,74,100.0
7243,C2,2902.7,0.25,74,100.0
7244,G#2,2902.95,0.25,71,100.0
7245,F#2,2902.95,0.25,71,100.0
7246,G#2,2903.2,0.25,84,100.0
7247,F#2,2903.2,0.25,84,100.0
7248,D2,2903.2,0.25,84,100.0
7249,G#2,2903.45,0.25,63,100.0
7250,G#2,2903.7,0.25,63,100.0
7251,G#2,2903.95,0.25,63,100.0
7252,G#2,2904.2,0.25,84,100.0
7253,F#2,2904.2,0.25,84,100.0
7254,C2,2904.2,0.25,84,100.0
7255,G#2,2904.45,3/20,63,100.0
7256,G#2,2904.6,1/10,63,100.0
7257,G#2,2904.7,0.25,63,100.0
7258,F#2,2904.7,0.25,63,100.0
7259,G#2,2904.95,0.25,71,100.0
7260,F#2,2904.95,0.25,71,100.0
7261,G#2,2905.2,0.25,79,100.0
7262,F#2,2905.2,0.25,79,100.0
7263,D2,2905.2,0.25,79,100.0
7264,G#2,2905.45,0.25,63,100.0
7265,G#2,2905.7,0.25,79,100.0
7266,F#2,2905.7,0.25,79,100.0
7267,G#2,2905.95,0.25,84,100.0
7268,F#2,2905.95,0.25,84,100.0
7269,C2,2905.95,0.25,84,100.0
7270,G#2,2906.2,0.25,84,100.0
7271,F#2,2906.2,0.25,84,100.0
7272,C2,2906.2,0.25,84,100.0
7273,G#2,2906.45,3/20,63,100.0
7274,G#2,2906.6,1/10,63,100.0
7275,G#2,2906.7,0.25,63,100.0
7276,F#2,2906.7,0.25,63,100.0
7277,G#2,2906.95,0.25,71,100.0
7278,F#2,2906.95,0.25,71,100.0
7279,G#2,2907.2,0.25,84,100.0
7280,F#2,2907.2,0.25,84,100.0
7281,D2,2907.2,0.25,84,100.0
7282,G#2,2907.45,0.25,79,100.0
7283,C2,2907.45,0.25,79,100.0
7284,G#2,2907.7,0.25,63,100.0
7285,G#2,2907.95,0.25,71,100.0
7286,C2,2907.95,0.25,71,100.0
7287,G#2,2908.2,0.25,79,100.0
7288,F#2,2908.2,0.25,79,100.0
7289,G#2,2908.45,3/20,63,100.0
7290,C2,2908.45,3/20,63,100.0
7291,G#2,2908.6,1/10,63,100.0
7292,C2,2908.6,1/10,63,100.0
7293,G#2,2908.7,0.25,63,100.0
7294,F#2,2908.7,0.25,63,100.0
7295,G#2,2908.95,0.25,71,100.0
7296,F#2,2908.95,0.25,71,100.0
7297,G#2,2909.2,0.25,79,100.0
7298,F#2,2909.2,0.25,79,100.0
7299,D2,2909.2,0.25,79,100.0
7300,G#2,2909.45,0.25,63,100.0
7301,G#2,2909.7,0.25,79,100.0
7302,F#2,2909.7,0.25,79,100.0
7303,G#2,2909.95,0.25,84,100.0
7304,F#2,2909.95,0.25,84,100.0
7305,C2,2909.95,0.25,84,100.0
7306,G#2,2910.2,0.25,84,100.0
7307,F#2,2910.2,0.25,84,100.0
7308,C2,2910.2,0.25,84,100.0
7309,G#2,2910.45,3/20,63,100.0
7310,G#2,2910.6,1/10,63,100.0
7311,G#2,2910.7,0.25,63,100.0
7312,F#2,2910.7,0.25,63,100.0
7313,G#2,2910.95,0.25,71,100.0
7314,F#2,2910.95,0.25,71,100.0
7315,G#2,2911.2,0.25,84,100.0
7316,F#2,2911.2,0.25,84,100.0
7317,D2,2911.2,0.25,84,100.0
7318,G#2,2911.45,0.25,79,100.0
7319,C2,2911.45,0.25,79,100.0
7320,G#2,2911.7,0.25,63,100.0
7321,G#2,2911.95,0.25,71,100.0
7322,C2,2911.95,0.25,71,100.0
7323,G#2,2912.2,0.25,79,100.0
7324,F#2,2912.2,0.25,79,100.0
7325,G#2,2912.45,3/20,63,100.0
7326,C2,2912.45,3/20,63,100.0
7327,G#2,2912.6,1/10,63,100.0
7328,C2,2912.6,1/10,63,100.0
7329,G#2,2912.7,0.25,63,100.0
7330,F#2,2912.7,0.25,63,100.0
7331,G#2,2912.95,0.25,71,100.0
7332,F#2,2912.95,0.25,71,100.0
7333,G#2,2913.2,0.25,79,100.0
7334,F#2,2913.2,0.25,79,100.0
7335,D2,2913.2,0.25,79,100.0
7336,G#2,2913.45,0.25,63,100.0
7337,G#2,2913.7,0.25,79,100.0
7338,F#2,2913.7,0.25,79,100.0
7339,G#2,2913.95,0.25,84,100.0
7340,F#2,2913.95,0.25,84,100.0
7341,C2,2913.95,0.25,84,100.0
7342,G#2,2914.2,0.25,79,100.0
7343,F#2,2914.2,0.25,79,100.0
7344,G#2,2914.45,3/20,63,100.0
7345,G#2,2914.6,1/10,63,100.0
7346,G#2,2914.7,0.25,74,100.0
7347,F#2,2914.7,0.25,74,100.0
7348,C2,2914.7,0.25,74,100.0
7349,G#2,2914.95,0.25,71,100.0
7350,F#2,2914.95,0.25,71,100.0
7351,G#2,2915.2,0.25,84,100.0
7352,F#2,2915.2,0.25,84,100.0
7353,D2,2915.2,0.25,84,100.0
7354,G#2,2915.45,0.25,63,100.0
7355,G#2,2915.7,0.25,63,100.0
7356,G#2,2915.95,0.25,63,100.0
7357,G#2,2916.2,0.25,84,100.0
7358,F#2,2916.2,0.25,84,100.0
7359,C2,2916.2,0.25,84,100.0
7360,G#2,2916.45,3/20,63,100.0
7361,G#2,2916.6,1/10,63,100.0
7362,G#2,2916.7,0.25,63,100.0
7363,F#2,2916.7,0.25,63,100.0
7364,G#2,2916.95,0.25,71,100.0
7365,F#2,2916.95,0.25,71,100.0
7366,G#2,2917.2,0.25,79,100.0
7367,F#2,2917.2,0.25,79,100.0
7368,D2,2917.2,0.25,79,100.0
7369,G#2,2917.45,0.25,63,100.0
7370,G#2,2917.7,0.25,79,100.0
7371,F#2,2917.7,0.25,79,100.0
7372,G#2,2917.95,0.25,84,100.0
7373,F#2,2917.95,0.25,84,100.0
7374,C2,2917.95,0.25,84,100.0
7375,G#2,2918.2,0.25,79,100.0
7376,F#2,2918.2,0.25,79,100.0
7377,G#2,2918.45,3/20,63,100.0
7378,G#2,2918.6,1/10,63,100.0
7379,G#2,2918.7,0.25,74,100.0
7380,F#2,2918.7,0.25,74,100.0
7381,C2,2918.7,0.25,74,100.0
7382,G#2,2918.95,0.25,71,100.0
7383,F#2,2918.95,0.25,71,100.0
7384,G#2,2919.2,0.25,84,100.0
7385,F#2,2919.2,0.25,84,100.0
7386,D2,2919.2,0.25,84,100.0
7387,G#2,2919.45,0.25,63,100.0
7388,G#2,2919.7,0.25,63,100.0
7389,G#2,2919.95,0.25,63,100.0
7390,G#2,2920.2,0.25,84,100.0
7391,F#2,2920.2,0.25,84,100.0
7392,C2,2920.2,0.25,84,100.0
7393,G#2,2920.45,3/20,63,100.0
7394,G#2,2920.6,1/10,63,100.0
7395,G#2,2920.7,0.25,63,100.0
7396,F#2,2920.7,0.25,63,100.0
7397,G#2,2920.95,0.25,71,100.0
7398,F#2,2920.95,0.25,71,100.0
7399,G#2,2921.2,0.25,79,100.0
7400,F#2,2921.2,0.25,79,100.0
7401,D2,2921.2,0.25,79,100.0
7402,G#2,2921.45,0.25,63,100.0
7403,G#2,2921.7,0.25,79,100.0
7404,F#2,2921.7,0.25,79,100.0
7405,G#2,2921.95,0.25,84,100.0
7406,F#2,2921.95,0.25,84,100.0
7407,C2,2921.95,0.25,84,100.0
7408,G#2,2922.2,0.25,84,100.0
7409,F#2,2922.2,0.25,84,100.0
7410,C2,2922.2,0.25,84,100.0
7411,G#2,2922.45,3/20,63,100.0
7412,G#2,2922.6,1/10,63,100.0
7413,G#2,2922.7,0.25,63,100.0
7414,F#2,2922.7,0.25,63,100.0
7415,G#2,2922.95,0.25,71,100.0
7416,F#2,2922.95,0.25,71,100.0
7417,G#2,2923.2,0.25,84,100.0
7418,F#2,2923.2,0.25,84,100.0
7419,D2,2923.2,0.25,84,100.0
7420,G#2,2923.45,0.25,79,100.0
7421,C2,2923.45,0.25,79,100.0
7422,G#2,2923.7,0.25,63,100.0
7423,G#2,2923.95,0.25,71,100.0
7424,C2,2923.95,0.25,71,100.0
7425,G#2,2924.2,0.25,79,100.0
7426,F#2,2924.2,0.25,79,100.0
7427,G#2,2924.45,3/20,63,100.0
7428,C2,2924.45,3/20,63,100.0
7429,G#2,2924.6,1/10,63,100.0
7430,C2,2924.6,1/10,63,100.0
7431,G#2,2924.7,0.25,63,100.0
7432,F#2,2924.7,0.25,63,100.0
7433,G#2,2924.95,0.25,79,100.0
7434,F#2,2924.95,0.25,79,100.0
7435,C2,2924.95,0.25,79,100.0
7436,G#2,2925.2,0.25,79,100.0
7437,F#2,2925.2,0.25,79,100.0
7438,D2,2925.2,0.25,79,100.0
7439,C3,2925.2,0.25,79,100.0
7440,A3,2925.2,0.25,79,100.0
7441,G#2,2925.45,0.25,63,100.0
7442,G#2,2925.7,0.25,79,100.0
7443,F#2,2925.7,0.25,79,100.0
7444,D2,2925.7,0.25,79,100.0
7445,B2,2925.7,0.25,79,100.0
7446,G#2,2925.95,0.25,79,100.0
7447,F#2,2925.95,0.25,79,100.0
7448,F#2,2926.2,0.25,87,100.0
7449,F#2,2926.2,0.25,87,100.0
7450,C2,2926.2,0.25,87,100.0
7451,C#3,2926.2,0.25,87,100.0
7452,G#2,2926.45,3/20,79,100.0
7453,C4,2926.45,3/20,79,100.0
7454,G#2,2926.6,1/10,79,100.0
7455,C4,2926.6,1/10,79,100.0
7456,G#2,2926.7,0.25,63,100.0
7457,F#2,2926.7,0.25,63,100.0
7458,G#2,2926.95,0.25,71,100.0
7459,F#2,2926.95,0.25,71,100.0
7460,G#2,2927.2,0.25,84,100.0
7461,F#2,2927.2,0.25,84,100.0
7462,D2,2927.2,0.25,84,100.0
7463,F#2,2927.45,0.25,79,100.0
7464,C2,2927.45,0.25,79,100.0
7465,G#2,2927.7,0.25,79,100.0
7466,D4,2927.7,0.25,79,100.0
7467,G#2,2927.95,0.25,71,100.0
7468,C2,2927.95,0.25,71,100.0
7469,G#2,2928.2,0.25,79,100.0
7470,F#2,2928.2,0.25,79,100.0
7471,G#2,2928.45,3/20,63,100.0
7472,C2,2928.45,3/20,63,100.0
7473,G#2,2928.6,1/10,63,100.0
7474,C2,2928.6,1/10,63,100.0
7475,G#2,2928.7,0.25,74,100.0
7476,F#2,2928.7,0.25,74,100.0
7477,E4,2928.7,0.25,74,100.0
7478,G#2,2928.95,0.25,71,100.0
7479,F#2,2928.95,0.25,71,100.0
7480,G#2,2929.2,0.25,79,100.0
7481,F#2,2929.2,0.25,79,100.0
7482,D2,2929.2,0.25,79,100.0
7483,F#2,2929.45,0.25,79,100.0
7484,E-4,2929.45,0.25,79,100.0
7485,G#2,2929.7,0.25,79,100.0
7486,F#2,2929.7,0.25,79,100.0
7487,G#2,2929.95,0.25,84,100.0
7488,F#2,2929.95,0.25,84,100.0
7489,C2,2929.95,0.25,84,100.0
7490,F#2,2930.2,0.25,84,100.0
7491,F#2,2930.2,0.25,84,100.0
7492,C2,2930.2,0.25,84,100.0
7493,G#2,2930.45,3/20,79,100.0
7494,C4,2930.45,3/20,79,100.0
7495,G#2,2930.6,1/10,79,100.0
7496,C4,2930.6,1/10,79,100.0
7497,G#2,2930.7,0.25,63,100.0
7498,F#2,2930.7,0.25,63,100.0
7499,G#2,2930.95,0.25,71,100.0
7500,F#2,2930.95,0.25,71,100.0
7501,G#2,2931.2,0.25,84,100.0
7502,F#2,2931.2,0.25,84,100.0
7503,D2,2931.2,0.25,84,100.0
7504,F#2,2931.45,0.25,79,100.0
7505,C2,2931.45,0.25,79,100.0
7506,G#2,2931.7,0.25,79,100.0
7507,D4,2931.7,0.25,79,100.0
7508,G#2,2931.95,0.25,71,100.0
7509,C2,2931.95,0.25,71,100.0
7510,G#2,2932.2,0.25,79,100.0
7511,F#2,2932.2,0.25,79,100.0
7512,G#2,2932.45,3/20,63,100.0
7513,C2,2932.45,3/20,63,100.0
7514,G#2,2932.6,1/10,63,100.0
7515,C2,2932.6,1/10,63,100.0
7516,G#2,2932.7,0.25,74,100.0
7517,F#2,2932.7,0.25,74,100.0
7518,E4,2932.7,0.25,74,100.0
7519,G#2,2932.95,0.25,71,100.0
7520,F#2,2932.95,0.25,71,100.0
7521,G#2,2933.2,0.25,79,100.0
7522,F#2,2933.2,0.25,79,100.0
7523,D2,2933.2,0.25,79,100.0
7524,F#2,2933.45,0.25,79,100.0
7525,E-4,2933.45,0.25,79,100.0
7526,G#2,2933.7,0.25,79,100.0
7527,F#2,2933.7,0.25,79,100.0
7528,G#2,2933.95,0.25,84,100.0
7529,F#2,2933.95,0.25,84,100.0
7530,C2,2933.95,0.25,84,100.0
7531,F#2,2934.2,0.25,84,100.0
7532,F#2,2934.2,0.25,84,100.0
7533,C2,2934.2,0.25,84,100.0
7534,G#2,2934.45,3/20,79,100.0
7535,C4,2934.45,3/20,79,100.0
7536,G#2,2934.6,1/10,79,100.0
7537,C4,2934.6,1/10,79,100.0
7538,G#2,2934.7,0.25,63,100.0
7539,F#2,2934.7,0.25,63,100.0
7540,G#2,2934.95,0.25,71,100.0
7541,F#2,2934.95,0.25,71,100.0
7542,G#2,2935.2,0.25,84,100.0
7543,F#2,2935.2,0.25,84,100.0
7544,D2,2935.2,0.25,84,100.0
7545,F#2,2935.45,0.25,79,100.0
7546,C2,2935.45,0.25,79,100.0
7547,G#2,2935.7,0.25,79,100.0
7548,D4,2935.7,0.25,79,100.0
7549,G#2,2935.95,0.25,71,100.0
7550,C2,2935.95,0.25,71,100.0
7551,G#2,2936.2,0.25,79,100.0
7552,F#2,2936.2,0.25,79,100.0
7553,G#2,2936.45,3/20,63,100.0
7554,C2,2936.45,3/20,63,100.0
7555,G#2,2936.6,1/10,63,100.0
7556,C2,2936.6,1/10,63,100.0
7557,G#2,2936.7,0.25,74,100.0
7558,F#2,2936.7,0.25,74,100.0
7559,E4,2936.7,0.25,74,100.0
7560,G#2,2936.95,0.25,71,100.0
7561,F#2,2936.95,0.25,71,100.0
7562,G#2,2937.2,0.25,79,100.0
7563,F#2,2937.2,0.25,79,100.0
7564,D2,2937.2,0.25,79,100.0
7565,F#2,2937.45,0.25,79,100.0
7566,E-4,2937.45,0.25,79,100.0
7567,G#2,2937.7,0.25,79,100.0
7568,F#2,2937.7,0.25,79,100.0
7569,G#2,2937.95,0.25,84,100.0
7570,F#2,2937.95,0.25,84,100.0
7571,C2,2937.95,0.25,84,100.0
7572,F#2,2938.2,0.25,84,100.0
7573,F#2,2938.2,0.25,84,100.0
7574,C2,2938.2,0.25,84,100.0
7575,G#2,2938.45,3/20,79,100.0
7576,C4,2938.45,3/20,79,100.0
7577,G#2,2938.6,1/10,79,100.0
7578,C4,2938.6,1/10,79,100.0
7579,G#2,2938.7,0.25,63,100.0
7580,F#2,2938.7,0.25,63,100.0
7581,G#2,2938.95,0.25,71,100.0
7582,F#2,2938.95,0.25,71,100.0
7583,G#2,2939.2,0.25,84,100.0
7584,F#2,2939.2,0.25,84,100.0
7585,D2,2939.2,0.25,84,100.0
7586,F#2,2939.45,0.25,79,100.0
7587,C2,2939.45,0.25,79,100.0
7588,G#2,2939.7,0.25,79,100.0
7589,D4,2939.7,0.25,79,100.0
7590,G#2,2939.95,0.25,71,100.0
7591,C2,2939.95,0.25,71,100.0
7592,G#2,2940.2,0.25,79,100.0
7593,F#2,2940.2,0.25,79,100.0
7594,G#2,2940.45,3/20,63,100.0
7595,C2,2940.45,3/20,63,100.0
7596,G#2,2940.6,1/10,63,100.0
7597,C2,2940.6,1/10,63,100.0
7598,G#2,2940.7,0.25,74,100.0
7599,F#2,2940.7,0.25,74,100.0
7600,E4,2940.7,0.25,74,100.0
7601,G#2,2940.95,0.25,71,100.0
7602,F#2,2940.95,0.25,71,100.0
7603,G#2,2941.2,0.25,79,100.0
7604,F#2,2941.2,0.25,79,100.0
7605,D2,2941.2,0.25,79,100.0
7606,F#2,2941.45,0.25,79,100.0
7607,E-4,2941.45,0.25,79,100.0
7608,G#2,2941.7,0.25,79,100.0
7609,F#2,2941.7,0.25,79,100.0
7610,G#2,2941.95,0.25,84,100.0
7611,F#2,2941.95,0.25,84,100.0
7612,C2,2941.95,0.25,84,100.0
7613,F#2,2942.2,0.25,84,100.0
7614,F#2,2942.2,0.25,84,100.0
7615,C2,2942.2,0.25,84,100.0
7616,G#2,2942.45,3/20,79,100.0
7617,C4,2942.45,3/20,79,100.0
7618,G#2,2942.6,1/10,79,100.0
7619,C4,2942.6,1/10,79,100.0
7620,G#2,2942.7,0.25,63,100.0
7621,F#2,2942.7,0.25,63,100.0
7622,G#2,2942.95,0.25,71,100.0
7623,F#2,2942.95,0.25,71,100.0
7624,G#2,2943.2,0.25,84,100.0
7625,F#2,2943.2,0.25,84,100.0
7626,D2,2943.2,0.25,84,100.0
7627,F#2,2943.45,0.25,79,100.0
7628,C2,2943.45,0.25,79,100.0
7629,G#2,2943.7,0.25,79,100.0
7630,D4,2943.7,0.25,79,100.0
7631,G#2,2943.95,0.25,71,100.0
7632,C2,2943.95,0.25,71,100.0
7633,G#2,2944.2,0.25,79,100.0
7634,F#2,2944.2,0.25,79,100.0
7635,G#2,2944.45,3/20,63,100.0
7636,C2,2944.45,3/20,63,100.0
7637,G#2,2944.6,1/10,63,100.0
7638,C2,2944.6,1/10,63,100.0
7639,G#2,2944.7,0.25,74,100.0
7640,F#2,2944.7,0.25,74,100.0
7641,E4,2944.7,0.25,74,100.0
7642,G#2,2944.95,0.25,71,100.0
7643,F#2,2944.95,0.25,71,100.0
7644,G#2,2945.2,0.25,79,100.0
7645,F#2,2945.2,0.25,79,100.0
7646,D2,2945.2,0.25,79,100.0
7647,F#2,2945.45,0.25,79,100.0
7648,E-4,2945.45,0.25,79,100.0
7649,G#2,2945.7,0.25,79,100.0
7650,F#2,2945.7,0.25,79,100.0
7651,G#2,2945.95,0.25,84,100.0
7652,F#2,2945.95,0.25,84,100.0
7653,C2,2945.95,0.25,84,100.0
7654,F#2,2946.2,0.25,84,100.0
7655,F#2,2946.2,0.25,84,100.0
7656,C2,2946.2,0.25,84,100.0
7657,G#2,2946.45,3/20,79,100.0
7658,C4,2946.45,3/20,79,100.0
7659,G#2,2946.6,1/10,79,100.0
7660,C4,2946.6,1/10,79,100.0
7661,G#2,2946.7,0.25,63,100.0
7662,F#2,2946.7,0.25,63,100.0
7663,G#2,2946.95,0.25,71,100.0
7664,F#2,2946.95,0.25,71,100.0
7665,G#2,2947.2,0.25,84,100.0
7666,F#2,2947.2,0.25,84,100.0
7667,D2,2947.2,0.25,84,100.0
7668,F#2,2947.45,0.25,79,100.0
7669,C2,2947.45,0.25,79,100.0
7670,G#2,2947.7,0.25,79,100.0
7671,D4,2947.7,0.25,79,100.0
7672,G#2,2947.95,0.25,71,100.0
7673,C2,2947.95,0.25,71,100.0
7674,G#2,2948.2,0.25,79,100.0
7675,F#2,2948.2,0.25,79,100.0
7676,G#2,2948.45,3/20,63,100.0
7677,C2,2948.45,3/20,63,100.0
7678,G#2,2948.6,1/10,63,100.0
7679,C2,2948.6,1/10,63,100.0
7680,G#2,2948.7,0.25,74,100.0
7681,F#2,2948.7,0.25,74,100.0
7682,E4,2948.7,0.25,74,100.0
7683,G#2,2948.95,0.25,71,100.0
7684,F#2,2948.95,0.25,71,100.0
7685,G#2,2949.2,0.25,79,100.0
7686,F#2,2949.2,0.25,79,100.0
7687,D2,2949.2,0.25,79,100.0
7688,F#2,2949.45,0.25,79,100.0
7689,E-4,2949.45,0.25,79,100.0
7690,G#2,2949.7,0.25,79,100.0
7691,F#2,2949.7,0.25,79,100.0
7692,G#2,2949.95,0.25,84,100.0
7693,F#2,2949.95,0.25,84,100.0
7694,C2,2949.95,0.25,84,100.0
7695,F#2,2950.2,0.25,84,100.0
7696,F#2,2950.2,0.25,84,100.0
7697,C2,2950.2,0.25,84,100.0
7698,G#2,2950.45,3/20,79,100.0
7699,C4,2950.45,3/20,79,100.0
7700,G#2,2950.6,1/10,79,100.0
7701,C4,2950.6,1/10,79,100.0
7702,G#2,2950.7,0.25,63,100.0
7703,F#2,2950.7,0.25,63,100.0
7704,G#2,2950.95,0.25,71,100.0
7705,F#2,2950.95,0.25,71,100.0
7706,G#2,2951.2,0.25,84,100.0
7707,F#2,2951.2,0.25,84,100.0
7708,D2,2951.2,0.25,84,100.0
7709,F#2,2951.45,0.25,79,100.0
7710,C2,2951.45,0.25,79,100.0
7711,G#2,2951.7,0.25,79,100.0
7712,D4,2951.7,0.25,79,100.0
7713,G#2,2951.95,0.25,71,100.0
7714,C2,2951.95,0.25,71,100.0
7715,G#2,2952.2,0.25,79,100.0
7716,F#2,2952.2,0.25,79,100.0
7717,G#2,2952.45,3/20,63,100.0
7718,C2,2952.45,3/20,63,100.0
7719,G#2,2952.6,1/10,63,100.0
7720,C2,2952.6,1/10,63,100.0
7721,G#2,2952.7,0.25,74,100.0
7722,F#2,2952.7,0.25,74,100.0
7723,E4,2952.7,0.25,74,100.0
7724,G#2,2952.95,0.25,71,100.0
7725,F#2,2952.95,0.25,71,100.0
7726,G#2,2953.2,0.25,79,100.0
7727,F#2,2953.2,0.25,79,100.0
7728,D2,2953.2,0.25,79,100.0
7729,F#2,2953.45,0.25,79,100.0
7730,E-4,2953.45,0.25,79,100.0
7731,G#2,2953.7,0.25,79,100.0
7732,F#2,2953.7,0.25,79,100.0
7733,G#2,2953.95,0.25,84,100.0
7734,F#2,2953.95,0.25,84,100.0
7735,C2,2953.95,0.25,84,100.0
7736,F#2,2954.2,0.25,84,100.0
7737,F#2,2954.2,0.25,84,100.0
7738,C2,2954.2,0.25,84,100.0
7739,G#2,2954.45,3/20,79,100.0
7740,C4,2954.45,3/20,79,100.0
7741,G#2,2954.6,1/10,79,100.0
7742,C4,2954.6,1/10,79,100.0
7743,G#2,2954.7,0.25,63,100.0
7744,F#2,2954.7,0.25,63,100.0
7745,G#2,2954.95,0.25,71,100.0
7746,F#2,2954.95,0.25,71,100.0
7747,G#2,2955.2,0.25,84,100.0
7748,F#2,2955.2,0.25,84,100.0
7749,D2,2955.2,0.25,84,100.0
7750,F#2,2955.45,0.25,79,100.0
7751,C2,2955.45,0.25,79,100.0
7752,G#2,2955.7,0.25,79,100.0
7753,D4,2955.7,0.25,79,100.0
7754,G#2,2955.95,0.25,71,100.0
7755,C2,2955.95,0.25,71,100.0
7756,G#2,2956.2,0.25,79,100.0
7757,F#2,2956.2,0.25,79,100.0
7758,G#2,2956.45,3/20,63,100.0
7759,C2,2956.45,3/20,63,100.0
7760,G#2,2956.6,1/10,63,100.0
7761,C2,2956.6,1/10,63,100.0
7762,G#2,2956.7,0.25,74,100.0
7763,F#2,2956.7,0.25,74,100.0
7764,E4,2956.7,0.25,74,100.0
7765,G#2,2956.95,0.25,71,100.0
7766,F#2,2956.95,0.25,71,100.0
7767,G#2,2957.2,0.25,79,100.0
7768,F#2,2957.2,0.25,79,100.0
7769,D2,2957.2,0.25,79,100.0
7770,F#2,2957.45,0.25,79,100.0
7771,E-4,2957.45,0.25,79,100.0
7772,G#2,2957.7,0.25,79,100.0
7773,F#2,2957.7,0.25,79,100.0
7774,G#2,2957.95,0.25,84,100.0
7775,F#2,2957.95,0.25,84,100.0
7776,C2,2957.95,0.25,84,100.0
7777,F#2,2958.2,0.25,87,100.0
7778,F#2,2958.2,0.25,87,100.0
7779,C2,2958.2,0.25,87,100.0
7780,C#3,2958.2,0.25,87,100.0
7781,G#2,2958.45,3/20,79,100.0
7782,C4,2958.45,3/20,79,100.0
7783,G#2,2958.6,1/10,79,100.0
7784,C4,2958.6,1/10,79,100.0
7785,G#2,2958.7,0.25,63,100.0
7786,F#2,2958.7,0.25,63,100.0
7787,G#2,2958.95,0.25,71,100.0
7788,F#2,2958.95,0.25,71,100.0
7789,G#2,2959.2,0.25,84,100.0
7790,F#2,2959.2,0.25,84,100.0
7791,D2,2959.2,0.25,84,100.0
7792,F#2,2959.45,0.25,79,100.0
7793,C2,2959.45,0.25,79,100.0
7794,G#2,2959.7,0.25,79,100.0
7795,D4,2959.7,0.25,79,100.0
7796,G#2,2959.95,0.25,71,100.0
7797,C2,2959.95,0.25,71,100.0
7798,G#2,2960.2,0.25,79,100.0
7799,F#2,2960.2,0.25,79,100.0
7800,G#2,2960.45,3/20,63,100.0
7801,C2,2960.45,3/20,63,100.0
7802,G#2,2960.6,1/10,63,100.0
7803,C2,2960.6,1/10,63,100.0
7804,G#2,2960.7,0.25,74,100.0
7805,F#2,2960.7,0.25,74,100.0
7806,E4,2960.7,0.25,74,100.0
7807,G#2,2960.95,0.25,71,100.0
7808,F#2,2960.95,0.25,71,100.0
7809,G#2,2961.2,0.25,79,100.0
7810,F#2,2961.2,0.25,79,100.0
7811,D2,2961.2,0.25,79,100.0
7812,F#2,2961.45,0.25,79,100.0
7813,E-4,2961.45,0.25,79,100.0
7814,G#2,2961.7,0.25,79,100.0
7815,F#2,2961.7,0.25,79,100.0
7816,G#2,2961.95,0.25,84,100.0
7817,F#2,2961.95,0.25,84,100.0
7818,C2,2961.95,0.25,84,100.0
7819,F#2,2962.2,0.25,84,100.0
7820,F#2,2962.2,0.25,84,100.0
7821,C2,2962.2,0.25,84,100.0
7822,G#2,2962.45,3/20,79,100.0
7823,C4,2962.45,3/20,79,100.0
7824,G#2,2962.6,1/10,79,100.0
7825,C4,2962.6,1/10,79,100.0
7826,G#2,2962.7,0.25,63,100.0
7827,F#2,2962.7,0.25,63,100.0
7828,G#2,2962.95,0.25,71,100.0
7829,F#2,2962.95,0.25,71,100.0
7830,G#2,2963.2,0.25,84,100.0
7831,F#2,2963.2,0.25,84,100.0
7832,D2,2963.2,0.25,84,100.0
7833,F#2,2963.45,0.25,79,100.0
7834,C2,2963.45,0.25,79,100.0
7835,G#2,2963.7,0.25,79,100.0
7836,D4,2963.7,0.25,79,100.0
7837,G#2,2963.95,0.25,71,100.0
7838,C2,2963.95,0.25,71,100.0
7839,G#2,2964.2,0.25,79,100.0
7840,F#2,2964.2,0.25,79,100.0
7841,G#2,2964.45,3/20,63,100.0
7842,C2,2964.45,3/20,63,100.0
7843,G#2,2964.6,1/10,63,100.0
7844,C2,2964.6,1/10,63,100.0
7845,G#2,2964.7,0.25,74,100.0
7846,F#2,2964.7,0.25,74,100.0
7847,E4,2964.7,0.25,74,100.0
7848,G#2,2964.95,0.25,71,100.0
7849,F#2,2964.95,0.25,71,100.0
7850,G#2,2965.2,0.25,79,100.0
7851,F#2,2965.2,0.25,79,100.0
7852,D2,2965.2,0.25,79,100.0
7853,F#2,2965.45,0.25,79,100.0
7854,E-4,2965.45,0.25,79,100.0
7855,G#2,2965.7,0.25,79,100.0
7856,F#2,2965.7,0.25,79,100.0
7857,G#2,2965.95,0.25,84,100.0
7858,F#2,2965.95,0.25,84,100.0
7859,C2,2965.95,0.25,84,100.0
7860,F#2,2966.2,0.25,84,100.0
7861,F#2,2966.2,0.25,84,100.0
7862,C2,2966.2,0.25,84,100.0
7863,G#2,2966.45,3/20,79,100.0
7864,C4,2966.45,3/20,79,100.0
7865,G#2,2966.6,1/10,79,100.0
7866,C4,2966.6,1/10,79,100.0
7867,G#2,2966.7,0.25,63,100.0
7868,F#2,2966.7,0.25,63,100.0
7869,G#2,2966.95,0.25,71,100.0
7870,F#2,2966.95,0.25,71,100.0
7871,G#2,2967.2,0.25,84,100.0
7872,F#2,2967.2,0.25,84,100.0
7873,D2,2967.2,0.25,84,100.0
7874,F#2,2967.45,0.25,79,100.0
7875,C2,2967.45,0.25,79,100.0
7876,G#2,2967.7,0.25,79,100.0
7877,D4,2967.7,0.25,79,100.0
7878,G#2,2967.95,0.25,71,100.0
7879,C2,2967.95,0.25,71,100.0
7880,G#2,2968.2,0.25,79,100.0
7881,F#2,2968.2,0.25,79,100.0
7882,G#2,2968.45,3/20,63,100.0
7883,C2,2968.45,3/20,63,100.0
7884,G#2,2968.6,1/10,63,100.0
7885,C2,2968.6,1/10,63,100.0
7886,G#2,2968.7,0.25,74,100.0
7887,F#2,2968.7,0.25,74,100.0
7888,E4,2968.7,0.25,74,100.0
7889,G#2,2968.95,0.25,71,100.0
7890,F#2,2968.95,0.25,71,100.0
7891,G#2,2969.2,0.25,79,100.0
7892,F#2,2969.2,0.25,79,100.0
7893,D2,2969.2,0.25,79,100.0
7894,F#2,2969.45,0.25,79,100.0
7895,E-4,2969.45,0.25,79,100.0
7896,G#2,2969.7,0.25,79,100.0
7897,F#2,2969.7,0.25,79,100.0
7898,G#2,2969.95,0.25,84,100.0
7899,F#2,2969.95,0.25,84,100.0
7900,C2,2969.95,0.25,84,100.0
7901,F#2,2970.2,0.25,84,100.0
7902,F#2,2970.2,0.25,84,100.0
7903,C2,2970.2,0.25,84,100.0
7904,G#2,2970.45,3/20,79,100.0
7905,C4,2970.45,3/20,79,100.0
7906,G#2,2970.6,1/10,79,100.0
7907,C4,2970.6,1/10,79,100.0
7908,G#2,2970.7,0.25,63,100.0
7909,F#2,2970.7,0.25,63,100.0
7910,G#2,2970.95,0.25,71,100.0
7911,F#2,2970.95,0.25,71,100.0
7912,G#2,2971.2,0.25,84,100.0
7913,F#2,2971.2,0.25,84,100.0
7914,D2,2971.2,0.25,84,100.0
7915,F#2,2971.45,0.25,79,100.0
7916,C2,2971.45,0.25,79,100.0
7917,G#2,2971.7,0.25,79,100.0
7918,D4,2971.7,0.25,79,100.0
7919,G#2,2971.95,0.25,71,100.0
7920,C2,2971.95,0.25,71,100.0
7921,G#2,2972.2,0.25,79,100.0
7922,F#2,2972.2,0.25,79,100.0
7923,G#2,2972.45,3/20,63,100.0
7924,C2,2972.45,3/20,63,100.0
7925,G#2,2972.6,1/10,63,100.0
7926,C2,2972.6,1/10,63,100.0
7927,G#2,2972.7,0.25,74,100.0
7928,F#2,2972.7,0.25,74,100.0
7929,E4,2972.7,0.25,74,100.0
7930,G#2,2972.95,0.25,71,100.0
7931,F#2,2972.95,0.25,71,100.0
7932,G#2,2973.2,0.25,79,100.0
7933,F#2,2973.2,0.25,79,100.0
7934,D2,2973.2,0.25,79,100.0
7935,F#2,2973.45,0.25,79,100.0
7936,E-4,2973.45,0.25,79,100.0
7937,G#2,2973.7,0.25,79,100.0
7938,F#2,2973.7,0.25,79,100.0
7939,G#2,2973.95,0.25,84,100.0
7940,F#2,2973.95,0.25,84,100.0
7941,C2,2973.95,0.25,84,100.0
7942,F#2,2974.2,0.25,84,100.0
7943,F#2,2974.2,0.25,84,100.0
7944,C2,2974.2,0.25,84,100.0
7945,G#2,2974.45,3/20,79,100.0
7946,C4,2974.45,3/20,79,100.0
7947,G#2,2974.6,1/10,79,100.0
7948,C4,2974.6,1/10,79,100.0
7949,G#2,2974.7,0.25,63,100.0
7950,F#2,2974.7,0.25,63,100.0
7951,G#2,2974.95,0.25,71,100.0
7952,F#2,2974.95,0.25,71,100.0
7953,G#2,2975.2,0.25,84,100.0
7954,F#2,2975.2,0.25,84,100.0
7955,D2,2975.2,0.25,84,100.0
7956,F#2,2975.45,0.25,79,100.0
7957,C2,2975.45,0.25,79,100.0
7958,G#2,2975.7,0.25,79,100.0
7959,D4,2975.7,0.25,79,100.0
7960,G#2,2975.95,0.25,71,100.0
7961,C2,2975.95,0.25,71,100.0
7962,G#2,2976.2,0.25,79,100.0
7963,F#2,2976.2,0.25,79,100.0
7964,G#2,2976.45,3/20,63,100.0
7965,C2,2976.45,3/20,63,100.0
7966,G#2,2976.6,1/10,63,100.0
7967,C2,2976.6,1/10,63,100.0
7968,G#2,2976.7,0.25,74,100.0
7969,F#2,2976.7,0.25,74,100.0
7970,E4,2976.7,0.25,74,100.0
7971,G#2,2976.95,0.25,71,100.0
7972,F#2,2976.95,0.25,71,100.0
7973,G#2,2977.2,0.25,79,100.0
7974,F#2,2977.2,0.25,79,100.0
7975,D2,2977.2,0.25,79,100.0
7976,F#2,2977.45,0.25,79,100.0
7977,E-4,2977.45,0.25,79,100.0
7978,G#2,2977.7,0.25,79,100.0
7979,F#2,2977.7,0.25,79,100.0
7980,G#2,2977.95,0.25,84,100.0
7981,F#2,2977.95,0.25,84,100.0
7982,C2,2977.95,0.25,84,100.0
7983,F#2,2978.2,0.25,84,100.0
7984,F#2,2978.2,0.25,84,100.0
7985,C2,2978.2,0.25,84,100.0
7986,G#2,2978.45,3/20,79,100.0
7987,C4,2978.45,3/20,79,100.0
7988,G#2,2978.6,1/10,79,100.0
7989,C4,2978.6,1/10,79,100.0
7990,G#2,2978.7,0.25,63,100.0
7991,F#2,2978.7,0.25,63,100.0
7992,G#2,2978.95,0.25,71,100.0
7993,F#2,2978.95,0.25,71,100.0
7994,G#2,2979.2,0.25,84,100.0
7995,F#2,2979.2,0.25,84,100.0
7996,D2,2979.2,0.25,84,100.0
7997,F#2,2979.45,0.25,79,100.0
7998,C2,2979.45,0.25,79,100.0
7999,G#2,2979.7,0.25,79,100.0
8000,D4,2979.7,0.25,79,100.0
8001,G#2,2979.95,0.25,71,100.0
8002,C2,2979.95,0.25,71,100.0
8003,G#2,2980.2,0.25,79,100.0
8004,F#2,2980.2,0.25,79,100.0
8005,G#2,2980.45,3/20,63,100.0
8006,C2,2980.45,3/20,63,100.0
8007,G#2,2980.6,1/10,63,100.0
8008,C2,2980.6,1/10,63,100.0
8009,G#2,2980.7,0.25,74,100.0
8010,F#2,2980.7,0.25,74,100.0
8011,E4,2980.7,0.25,74,100.0
8012,G#2,2980.95,0.25,71,100.0
8013,F#2,2980.95,0.25,71,100.0
8014,G#2,2981.2,0.25,79,100.0
8015,F#2,2981.2,0.25,79,100.0
8016,D2,2981.2,0.25,79,100.0
8017,F#2,2981.45,0.25,79,100.0
8018,E-4,2981.45,0.25,79,100.0
8019,G#2,2981.7,0.25,79,100.0
8020,F#2,2981.7,0.25,79,100.0
8021,G#2,2981.95,0.25,84,100.0
8022,F#2,2981.95,0.25,84,100.0
8023,C2,2981.95,0.25,84,100.0
8024,F#2,2982.2,0.25,84,100.0
8025,F#2,2982.2,0.25,84,100.0
8026,C2,2982.2,0.25,84,100.0
8027,G#2,2982.45,3/20,79,100.0
8028,C4,2982.45,3/20,79,100.0
8029,G#2,2982.6,1/10,79,100.0
8030,C4,2982.6,1/10,79,100.0
8031,G#2,2982.7,0.25,63,100.0
8032,F#2,2982.7,0.25,63,100.0
8033,G#2,2982.95,0.25,71,100.0
8034,F#2,2982.95,0.25,71,100.0
8035,G#2,2983.2,0.25,84,100.0
8036,F#2,2983.2,0.25,84,100.0
8037,D2,2983.2,0.25,84,100.0
8038,F#2,2983.45,0.25,79,100.0
8039,C2,2983.45,0.25,79,100.0
8040,G#2,2983.7,0.25,79,100.0
8041,D4,2983.7,0.25,79,100.0
8042,G#2,2983.95,0.25,71,100.0
8043,C2,2983.95,0.25,71,100.0
8044,G#2,2984.2,0.25,79,100.0
8045,F#2,2984.2,0.25,79,100.0
8046,G#2,2984.45,3/20,63,100.0
8047,C2,2984.45,3/20,63,100.0
8048,G#2,2984.6,1/10,63,100.0
8049,C2,2984.6,1/10,63,100.0
8050,G#2,2984.7,0.25,74,100.0
8051,F#2,2984.7,0.25,74,100.0
8052,E4,2984.7,0.25,74,100.0
8053,G#2,2984.95,0.25,71,100.0
8054,F#2,2984.95,0.25,71,100.0
8055,G#2,2985.2,0.25,79,100.0
8056,F#2,2985.2,0.25,79,100.0
8057,D2,2985.2,0.25,79,100.0
8058,F#2,2985.45,0.25,79,100.0
8059,E-4,2985.45,0.25,79,100.0
8060,G#2,2985.7,0.25,79,100.0
8061,F#2,2985.7,0.25,79,100.0
8062,G#2,2985.95,0.25,84,100.0
8063,F#2,2985.95,0.25,84,100.0
8064,C2,2985.95,0.25,84,100.0
8065,F#2,2986.2,0.25,84,100.0
8066,F#2,2986.2,0.25,84,100.0
8067,C2,2986.2,0.25,84,100.0
8068,G#2,2986.45,3/20,79,100.0
8069,C4,2986.45,3/20,79,100.0
8070,G#2,2986.6,1/10,79,100.0
8071,C4,2986.6,1/10,79,100.0
8072,G#2,2986.7,0.25,63,100.0
8073,F#2,2986.7,0.25,63,100.0
8074,G#2,2986.95,0.25,71,100.0
8075,F#2,2986.95,0.25,71,100.0
8076,G#2,2987.2,0.25,84,100.0
8077,F#2,2987.2,0.25,84,100.0
8078,D2,2987.2,0.25,84,100.0
8079,F#2,2987.45,0.25,79,100.0
8080,C2,2987.45,0.25,79,100.0
8081,G#2,2987.7,0.25,79,100.0
8082,D4,2987.7,0.25,79,100.0
8083,G#2,2987.95,0.25,71,100.0
8084,C2,2987.95,0.25,71,100.0
8085,G#2,2988.2,0.25,79,100.0
8086,F#2,2988.2,0.25,79,100.0
8087,G#2,2988.45,3/20,63,100.0
8088,C2,2988.45,3/20,63,100.0
8089,G#2,2988.6,1/10,63,100.0
8090,C2,2988.6,1/10,63,100.0
8091,G#2,2988.7,0.25,74,100.0
8092,F#2,2988.7,0.25,74,100.0
8093,E4,2988.7,0.25,74,100.0
8094,G#2,2988.95,0.25,71,100.0
8095,F#2,2988.95,0.25,71,100.0
8096,G#2,2989.2,0.25,79,100.0
8097,F#2,2989.2,0.25,79,100.0
8098,D2,2989.2,0.25,79,100.0
8099,F#2,2989.45,0.25,79,100.0
8100,E-4,2989.45,0.25,79,100.0
8101,G#2,2989.7,0.25,79,100.0
8102,F#2,2989.7,0.25,79,100.0
8103,G#2,2989.95,0.25,84,100.0
8104,F#2,2989.95,0.25,84,100.0
8105,C2,2989.95,0.25,84,100.0
8106,F#2,2990.2,0.25,87,100.0
8107,F#2,2990.2,0.25,87,100.0
8108,C2,2990.2,0.25,87,100.0
8109,C#3,2990.2,0.25,87,100.0
8110,G#2,2990.45,3/20,79,100.0
8111,C4,2990.45,3/20,79,100.0
8112,G#2,2990.6,1/10,79,100.0
8113,C4,2990.6,1/10,79,100.0
8114,G#2,2990.7,0.25,63,100.0
8115,F#2,2990.7,0.25,63,100.0
8116,G#2,2990.95,0.25,71,100.0
8117,F#2,2990.95,0.25,71,100.0
8118,G#2,2991.2,0.25,84,100.0
8119,F#2,2991.2,0.25,84,100.0
8120,D2,2991.2,0.25,84,100.0
8121,F#2,2991.45,0.25,79,100.0
8122,C2,2991.45,0.25,79,100.0
8123,G#2,2991.7,0.25,79,100.0
8124,D4,2991.7,0.25,79,100.0
8125,G#2,2991.95,0.25,71,100.0
8126,C2,2991.95,0.25,71,100.0
8127,G#2,2992.2,0.25,79,100.0
8128,F#2,2992.2,0.25,79,100.0
8129,G#2,2992.45,3/20,63,100.0
8130,C2,2992.45,3/20,63,100.0
8131,G#2,2992.6,1/10,63,100.0
8132,C2,2992.6,1/10,63,100.0
8133,G#2,2992.7,0.25,74,100.0
8134,F#2,2992.7,0.25,74,100.0
8135,E4,2992.7,0.25,74,100.0
8136,G#2,2992.95,0.25,71,100.0
8137,F#2,2992.95,0.25,71,100.0
8138,G#2,2993.2,0.25,79,100.0
8139,F#2,2993.2,0.25,79,100.0
8140,D2,2993.2,0.25,79,100.0
8141,F#2,2993.45,0.25,79,100.0
8142,E-4,2993.45,0.25,79,100.0
8143,G#2,2993.7,0.25,79,100.0
8144,F#2,2993.7,0.25,79,100.0
8145,G#2,2993.95,0.25,84,100.0
8146,F#2,2993.95,0.25,84,100.0
8147,C2,2993.95,0.25,84,100.0
8148,F#2,2994.2,0.25,84,100.0
8149,F#2,2994.2,0.25,84,100.0
8150,C2,2994.2,0.25,84,100.0
8151,G#2,2994.45,3/20,79,100.0
8152,C4,2994.45,3/20,79,100.0
8153,G#2,2994.6,1/10,79,100.0
8154,C4,2994.6,1/10,79,100.0
8155,G#2,2994.7,0.25,63,100.0
8156,F#2,2994.7,0.25,63,100.0
8157,G#2,2994.95,0.25,71,100.0
8158,F#2,2994.95,0.25,71,100.0
8159,G#2,2995.2,0.25,84,100.0
8160,F#2,2995.2,0.25,84,100.0
8161,D2,2995.2,0.25,84,100.0
8162,F#2,2995.45,0.25,79,100.0
8163,C2,2995.45,0.25,79,100.0
8164,G#2,2995.7,0.25,79,100.0
8165,D4,2995.7,0.25,79,100.0
8166,G#2,2995.95,0.25,71,100.0
8167,C2,2995.95,0.25,71,100.0
8168,G#2,2996.2,0.25,79,100.0
8169,F#2,2996.2,0.25,79,100.0
8170,G#2,2996.45,3/20,63,100.0
8171,C2,2996.45,3/20,63,100.0
8172,G#2,2996.6,1/10,63,100.0
8173,C2,2996.6,1/10,63,100.0
8174,G#2,2996.7,0.25,74,100.0
8175,F#2,2996.7,0.25,74,100.0
8176,E4,2996.7,0.25,74,100.0
8177,G#2,2996.95,0.25,71,100.0
8178,F#2,2996.95,0.25,71,100.0
8179,G#2,2997.2,0.25,79,100.0
8180,F#2,2997.2,0.25,79,100.0
8181,D2,2997.2,0.25,79,100.0
8182,F#2,2997.45,0.25,79,100.0
8183,E-4,2997.45,0.25,79,100.0
8184,G#2,2997.7,0.25,79,100.0
8185,F#2,2997.7,0.25,79,100.0
8186,G#2,2997.95,0.25,84,100.0
8187,F#2,2997.95,0.25,84,100.0
8188,C2,2997.95,0.25,84,100.0
8189,F#2,2998.2,0.25,84,100.0
8190,F#2,2998.2,0.25,84,100.0
8191,C2,2998.2,0.25,84,100.0
8192,G#2,2998.45,3/20,79,100.0
8193,C4,2998.45,3/20,79,100.0
8194,G#2,2998.6,1/10,79,100.0
8195,C4,2998.6,1/10,79,100.0
8196,G#2,2998.7,0.25,63,100.0
8197,F#2,2998.7,0.25,63,100.0
8198,G#2,2998.95,0.25,71,100.0
8199,F#2,2998.95,0.25,71,100.0
8200,G#2,2999.2,0.25,84,100.0
8201,F#2,2999.2,0.25,84,100.0
8202,D2,2999.2,0.25,84,100.0
8203,F#2,2999.45,0.25,79,100.0
8204,C2,2999.45,0.25,79,100.0
8205,G#2,2999.7,0.25,79,100.0
8206,D4,2999.7,0.25,79,100.0
8207,G#2,2999.95,0.25,71,100.0
8208,C2,2999.95,0.25,71,100.0
8209,G#2,3000.2,0.25,79,100.0
8210,F#2,3000.2,0.25,79,100.0
8211,G#2,3000.45,3/20,63,100.0
8212,C2,3000.45,3/20,63,100.0
8213,G#2,3000.6,1/10,63,100.0
8214,C2,3000.6,1/10,63,100.0
8215,G#2,3000.7,0.25,74,100.0
8216,F#2,3000.7,0.25,74,100.0
8217,E4,3000.7,0.25,74,100.0
8218,G#2,3000.95,0.25,71,100.0
8219,F#2,3000.95,0.25,71,100.0
8220,G#2,3001.2,0.25,79,100.0
8221,F#2,3001.2,0.25,79,100.0
8222,D2,3001.2,0.25,79,100.0
8223,F#2,3001.45,0.25,79,100.0
8224,E-4,3001.45,0.25,79,100.0
8225,G#2,3001.7,0.25,79,100.0
8226,F#2,3001.7,0.25,79,100.0
8227,G#2,3001.95,0.25,84,100.0
8228,F#2,3001.95,0.25,84,100.0
8229,C2,3001.95,0.25,84,100.0
8230,F#2,3002.2,0.25,84,100.0
8231,F#2,3002.2,0.25,84,100.0
8232,C2,3002.2,0.25,84,100.0
8233,G#2,3002.45,3/20,79,100.0
8234,C4,3002.45,3/20,79,100.0
8235,G#2,3002.6,1/10,79,100.0
8236,C4,3002.6,1/10,79,100.0
8237,G#2,3002.7,0.25,63,100.0
8238,F#2,3002.7,0.25,63,100.0
8239,G#2,3002.95,0.25,71,100.0
8240,F#2,3002.95,0.25,71,100.0
8241,G#2,3003.2,0.25,84,100.0
8242,F#2,3003.2,0.25,84,100.0
8243,D2,3003.2,0.25,84,100.0
8244,F#2,3003.45,0.25,79,100.0
8245,C2,3003.45,0.25,79,100.0
8246,G#2,3003.7,0.25,79,100.0
8247,D4,3003.7,0.25,79,100.0
8248,G#2,3003.95,0.25,71,100.0
8249,C2,3003.95,0.25,71,100.0
8250,G#2,3004.2,0.25,79,100.0
8251,F#2,3004.2,0.25,79,100.0
8252,G#2,3004.45,3/20,63,100.0
8253,C2,3004.45,3/20,63,100.0
8254,G#2,3004.6,1/10,63,100.0
8255,C2,3004.6,1/10,63,100.0
8256,G#2,3004.7,0.25,74,100.0
8257,F#2,3004.7,0.25,74,100.0
8258,E4,3004.7,0.25,74,100.0
8259,G#2,3004.95,0.25,71,100.0
8260,F#2,3004.95,0.25,71,100.0
8261,G#2,3005.2,0.25,79,100.0
8262,F#2,3005.2,0.25,79,100.0
8263,D2,3005.2,0.25,79,100.0
8264,F#2,3005.45,0.25,79,100.0
8265,E-4,3005.45,0.25,79,100.0
8266,G#2,3005.7,0.25,79,100.0
8267,F#2,3005.7,0.25,79,100.0
8268,G#2,3005.95,0.25,84,100.0
8269,F#2,3005.95,0.25,84,100.0
8270,C2,3005.95,0.25,84,100.0
8271,F#2,3006.2,0.25,84,100.0
8272,F#2,3006.2,0.25,84,100.0
8273,C2,3006.2,0.25,84,100.0
8274,G#2,3006.45,3/20,79,100.0
8275,C4,3006.45,3/20,79,100.0
8276,G#2,3006.6,1/10,79,100.0
8277,C4,3006.6,1/10,79,100.0
8278,G#2,3006.7,0.25,63,100.0
8279,F#2,3006.7,0.25,63,100.0
8280,G#2,3006.95,0.25,71,100.0
8281,F#2,3006.95,0.25,71,100.0
8282,G#2,3007.2,0.25,84,100.0
8283,F#2,3007.2,0.25,84,100.0
8284,D2,3007.2,0.25,84,100.0
8285,F#2,3007.45,0.25,79,100.0
8286,C2,3007.45,0.25,79,100.0
8287,G#2,3007.7,0.25,79,100.0
8288,D4,3007.7,0.25,79,100.0
8289,G#2,3007.95,0.25,71,100.0
8290,C2,3007.95,0.25,71,100.0
8291,G#2,3008.2,0.25,79,100.0
8292,F#2,3008.2,0.25,79,100.0
8293,G#2,3008.45,3/20,63,100.0
8294,C2,3008.45,3/20,63,100.0
8295,G#2,3008.6,1/10,63,100.0
8296,C2,3008.6,1/10,63,100.0
8297,G#2,3008.7,0.25,74,100.0
8298,F#2,3008.7,0.25,74,100.0
8299,E4,3008.7,0.25,74,100.0
8300,G#2,3008.95,0.25,71,100.0
8301,F#2,3008.95,0.25,71,100.0
8302,G#2,3009.2,0.25,79,100.0
8303,F#2,3009.2,0.25,79,100.0
8304,D2,3009.2,0.25,79,100.0
8305,F#2,3009.45,0.25,79,100.0
8306,E-4,3009.45,0.25,79,100.0
8307,G#2,3009.7,0.25,79,100.0
8308,F#2,3009.7,0.25,79,100.0
8309,G#2,3009.95,0.25,84,100.0
8310,F#2,3009.95,0.25,84,100.0
8311,C2,3009.95,0.25,84,100.0
8312,F#2,3010.2,0.25,84,100.0
8313,F#2,3010.2,0.25,84,100.0
8314,C2,3010.2,0.25,84,100.0
8315,G#2,3010.45,3/20,79,100.0
8316,C4,3010.45,3/20,79,100.0
8317,G#2,3010.6,1/10,79,100.0
8318,C4,3010.6,1/10,79,100.0
8319,G#2,3010.7,0.25,63,100.0
8320,F#2,3010.7,0.25,63,100.0
8321,G#2,3010.95,0.25,71,100.0
8322,F#2,3010.95,0.25,71,100.0
8323,G#2,3011.2,0.25,84,100.0
8324,F#2,3011.2,0.25,84,100.0
8325,D2,3011.2,0.25,84,100.0
8326,F#2,3011.45,0.25,79,100.0
8327,C2,3011.45,0.25,79,100.0
8328,G#2,3011.7,0.25,79,100.0
8329,D4,3011.7,0.25,79,100.0
8330,G#2,3011.95,0.25,71,100.0
8331,C2,3011.95,0.25,71,100.0
8332,G#2,3012.2,0.25,79,100.0
8333,F#2,3012.2,0.25,79,100.0
8334,G#2,3012.45,3/20,63,100.0
8335,C2,3012.45,3/20,63,100.0
8336,G#2,3012.6,1/10,63,100.0
8337,C2,3012.6,1/10,63,100.0
8338,G#2,3012.7,0.25,74,100.0
8339,F#2,3012.7,0.25,74,100.0
8340,E4,3012.7,0.25,74,100.0
8341,G#2,3012.95,0.25,71,100.0
8342,F#2,3012.95,0.25,71,100.0
8343,G#2,3013.2,0.25,79,100.0
8344,F#2,3013.2,0.25,79,100.0
8345,D2,3013.2,0.25,79,100.0
8346,F#2,3013.45,0.25,79,100.0
8347,E-4,3013.45,0.25,79,100.0
8348,G#2,3013.7,0.25,79,100.0
8349,F#2,3013.7,0.25,79,100.0
8350,G#2,3013.95,0.25,84,100.0
8351,F#2,3013.95,0.25,84,100.0
8352,C2,3013.95,0.25,84,100.0
8353,F#2,3014.2,0.25,84,100.0
8354,F#2,3014.2,0.25,84,100.0
8355,C2,3014.2,0.25,84,100.0
8356,G#2,3014.45,3/20,79,100.0
8357,C4,3014.45,3/20,79,100.0
8358,G#2,3014.6,1/10,79,100.0
8359,C4,3014.6,1/10,79,100.0
8360,G#2,3014.7,0.25,63,100.0
8361,F#2,3014.7,0.25,63,100.0
8362,G#2,3014.95,0.25,71,100.0
8363,F#2,3014.95,0.25,71,100.0
8364,G#2,3015.2,0.25,84,100.0
8365,F#2,3015.2,0.25,84,100.0
8366,D2,3015.2,0.25,84,100.0
8367,F#2,3015.45,0.25,79,100.0
8368,C2,3015.45,0.25,79,100.0
8369,G#2,3015.7,0.25,79,100.0
8370,D4,3015.7,0.25,79,100.0
8371,G#2,3015.95,0.25,71,100.0
8372,C2,3015.95,0.25,71,100.0
8373,G#2,3016.2,0.25,79,100.0
8374,F#2,3016.2,0.25,79,100.0
8375,G#2,3016.45,3/20,63,100.0
8376,C2,3016.45,3/20,63,100.0
8377,G#2,3016.6,1/10,63,100.0
8378,C2,3016.6,1/10,63,100.0
8379,G#2,3016.7,0.25,74,100.0
8380,F#2,3016.7,0.25,74,100.0
8381,E4,3016.7,0.25,74,100.0
8382,G#2,3016.95,0.25,71,100.0
8383,F#2,3016.95,0.25,71,100.0
8384,G#2,3017.2,0.25,79,100.0
8385,F#2,3017.2,0.25,79,100.0
8386,D2,3017.2,0.25,79,100.0
8387,F#2,3017.45,0.25,79,100.0
8388,E-4,3017.45,0.25,79,100.0
8389,G#2,3017.7,0.25,79,100.0
8390,F#2,3017.7,0.25,79,100.0
8391,G#2,3017.95,0.25,84,100.0
8392,F#2,3017.95,0.25,84,100.0
8393,C2,3017.95,0.25,84,100.0
8394,F#2,3018.2,0.25,84,100.0
8395,F#2,3018.2,0.25,84,100.0
8396,C2,3018.2,0.25,84,100.0
8397,G#2,3018.45,3/20,79,100.0
8398,C4,3018.45,3/20,79,100.0
8399,G#2,3018.6,1/10,79,100.0
8400,C4,3018.6,1/10,79,100.0
8401,G#2,3018.7,0.25,63,100.0
8402,F#2,3018.7,0.25,63,100.0
8403,G#2,3018.95,0.25,71,100.0
8404,F#2,3018.95,0.25,71,100.0
8405,G#2,3019.2,0.25,84,100.0
8406,F#2,3019.2,0.25,84,100.0
8407,D2,3019.2,0.25,84,100.0
8408,F#2,3019.45,0.25,79,100.0
8409,C2,3019.45,0.25,79,100.0
8410,G#2,3019.7,0.25,79,100.0
8411,D4,3019.7,0.25,79,100.0
8412,G#2,3019.95,0.25,71,100.0
8413,C2,3019.95,0.25,71,100.0
8414,G#2,3020.2,0.25,79,100.0
8415,F#2,3020.2,0.25,79,100.0
8416,G#2,3020.45,3/20,63,100.0
8417,C2,3020.45,3/20,63,100.0
8418,G#2,3020.6,1/10,63,100.0
8419,C2,3020.6,1/10,63,100.0
8420,G#2,3020.7,0.25,74,100.0
8421,F#2,3020.7,0.25,74,100.0
8422,E4,3020.7,0.25,74,100.0
8423,G#2,3020.95,0.25,71,100.0
8424,F#2,3020.95,0.25,71,100.0
8425,G#2,3021.2,0.25,79,100.0
8426,F#2,3021.2,0.25,79,100.0
8427,D2,3021.2,0.25,79,100.0
8428,F#2,3021.45,0.25,79,100.0
8429,E-4,3021.45,0.25,79,100.0
8430,G#2,3021.7,0.25,79,100.0
8431,F#2,3021.7,0.25,79,100.0
8432,G#2,3021.95,0.25,84,100.0
8433,F#2,3021.95,0.25,84,100.0
8434,C2,3021.95,0.25,84,100.0
8435,G#2,3022.2,0.25,84,100.0
8436,F#2,3022.2,0.25,84,100.0
8437,C2,3022.2,0.25,84,100.0
8438,G#2,3022.45,3/20,63,100.0
8439,G#2,3022.6,1/10,63,100.0
8440,G#2,3022.7,0.25,63,100.0
8441,F#2,3022.7,0.25,63,100.0
8442,G#2,3022.95,0.25,71,100.0
8443,F#2,3022.95,0.25,71,100.0
8444,G#2,3023.2,0.25,84,100.0
8445,F#2,3023.2,0.25,84,100.0
8446,D2,3023.2,0.25,84,100.0
8447,G#2,3023.45,0.25,79,100.0
8448,C2,3023.45,0.25,79,100.0
8449,G#2,3023.7,0.25,63,100.0
8450,G#2,3023.95,0.25,71,100.0
8451,C2,3023.95,0.25,71,100.0
8452,G#2,3024.2,0.25,79,100.0
8453,F#2,3024.2,0.25,79,100.0
8454,G#2,3024.45,3/20,63,100.0
8455,C2,3024.45,3/20,63,100.0
8456,G#2,3024.6,1/10,63,100.0
8457,C2,3024.6,1/10,63,100.0
8458,G#2,3024.7,0.25,63,100.0
8459,F#2,3024.7,0.25,63,100.0
8460,G#2,3024.95,0.25,71,100.0
8461,F#2,3024.95,0.25,71,100.0
8462,G#2,3025.2,0.25,79,100.0
8463,F#2,3025.2,0.25,79,100.0
8464,D2,3025.2,0.25,79,100.0
8465,G#2,3025.45,0.25,63,100.0
8466,G#2,3025.7,0.25,79,100.0
8467,F#2,3025.7,0.25,79,100.0
8468,G#2,3025.95,0.25,79,100.0
8469,F#2,3025.95,0.25,79,100.0
8470,G#2,3026.2,0.25,84,100.0
8471,F#2,3026.2,0.25,84,100.0
8472,C2,3026.2,0.25,84,100.0
8473,G#2,3026.45,3/20,63,100.0
8474,G#2,3026.6,1/10,63,100.0
8475,G#2,3026.7,0.25,63,100.0
8476,F#2,3026.7,0.25,63,100.0
8477,G#2,3026.95,0.25,71,100.0
8478,F#2,3026.95,0.25,71,100.0
8479,G#2,3027.2,0.25,84,100.0
8480,F#2,3027.2,0.25,84,100.0
8481,D2,3027.2,0.25,84,100.0
8482,G#2,3027.45,0.25,79,100.0
8483,F#2,3027.45,0.25,79,100.0
8484,G#2,3027.7,0.25,71,100.0
8485,F#2,3027.7,0.25,71,100.0
8486,G#2,3027.95,0.25,74,100.0
8487,F#2,3027.95,0.25,74,100.0
8488,C2,3027.95,0.25,74,100.0
8489,G#2,3028.2,0.25,63,100.0
8490,G#2,3028.45,3/20,63,100.0
8491,G#2,3028.6,1/10,63,100.0
8492,G#2,3028.7,0.25,63,100.0
8493,F#2,3028.7,0.25,63,100.0
8494,G#2,3028.95,0.25,79,100.0
8495,F#2,3028.95,0.25,79,100.0
8496,C2,3028.95,0.25,79,100.0
8497,G#2,3029.2,0.25,79,100.0
8498,F#2,3029.2,0.25,79,100.0
8499,D2,3029.2,0.25,79,100.0
8500,G#2,3029.45,0.25,63,100.0
8501,G#2,3029.7,0.25,79,100.0
8502,F#2,3029.7,0.25,79,100.0
8503,G#2,3029.95,0.25,79,100.0
8504,F#2,3029.95,0.25,79,100.0
8505,G#2,3030.2,0.25,87,100.0
8506,F#2,3030.2,0.25,87,100.0
8507,C2,3030.2,0.25,87,100.0
8508,F3,3030.2,0.25,87,100.0
8509,G#2,3030.45,3/20,63,100.0
8510,G#2,3030.6,1/10,63,100.0
8511,G#2,3030.7,0.25,63,100.0
8512,F#2,3030.7,0.25,63,100.0
8513,G#2,3030.95,0.25,71,100.0
8514,F#2,3030.95,0.25,71,100.0
8515,G#2,3031.2,0.25,84,100.0
8516,F#2,3031.2,0.25,84,100.0
8517,D2,3031.2,0.25,84,100.0
8518,G#2,3031.45,0.25,79,100.0
8519,C2,3031.45,0.25,79,100.0
8520,G#2,3031.7,0.25,63,100.0
8521,G#2,3031.95,0.25,71,100.0
8522,C2,3031.95,0.25,71,100.0
8523,G#2,3032.2,0.25,79,100.0
8524,F#2,3032.2,0.25,79,100.0
8525,G#2,3032.45,3/20,63,100.0
8526,C2,3032.45,3/20,63,100.0
8527,G#2,3032.6,1/10,63,100.0
8528,C2,3032.6,1/10,63,100.0
8529,G#2,3032.7,0.25,63,100.0
8530,F#2,3032.7,0.25,63,100.0
8531,G#2,3032.95,0.25,71,100.0
8532,F#2,3032.95,0.25,71,100.0
8533,G#2,3033.2,0.25,79,100.0
8534,F#2,3033.2,0.25,79,100.0
8535,D2,3033.2,0.25,79,100.0
8536,G#2,3033.45,0.25,63,100.0
8537,G#2,3033.7,0.25,79,100.0
8538,F#2,3033.7,0.25,79,100.0
8539,G#2,3033.95,0.25,79,100.0
8540,F#2,3033.95,0.25,79,100.0
8541,G#2,3034.2,0.25,84,100.0
8542,F#2,3034.2,0.25,84,100.0
8543,C2,3034.2,0.25,84,100.0
8544,G#2,3034.45,3/20,63,100.0
8545,G#2,3034.6,1/10,63,100.0
8546,G#2,3034.7,0.25,63,100.0
8547,F#2,3034.7,0.25,63,100.0
8548,G#2,3034.95,0.25,71,100.0
8549,F#2,3034.95,0.25,71,100.0
8550,G#2,3035.2,0.25,84,100.0
8551,F#2,3035.2,0.25,84,100.0
8552,D2,3035.2,0.25,84,100.0
8553,G#2,3035.45,0.25,79,100.0
8554,C2,3035.45,0.25,79,100.0
8555,G#2,3035.7,0.25,63,100.0
8556,G#2,3035.95,0.25,71,100.0
8557,C2,3035.95,0.25,71,100.0
8558,G#2,3036.2,0.25,79,100.0
8559,F#2,3036.2,0.25,79,100.0
8560,G#2,3036.45,3/20,63,100.0
8561,C2,3036.45,3/20,63,100.0
8562,G#2,3036.6,1/10,63,100.0
8563,C2,3036.6,1/10,63,100.0
8564,G#2,3036.7,0.25,63,100.0
8565,F#2,3036.7,0.25,63,100.0
8566,G#2,3036.95,0.25,71,100.0
8567,F#2,3036.95,0.25,71,100.0
8568,G#2,3037.2,0.25,79,100.0
8569,F#2,3037.2,0.25,79,100.0
8570,D2,3037.2,0.25,79,100.0
8571,G#2,3037.45,0.25,63,100.0
8572,G#2,3037.7,0.25,79,100.0
8573,F#2,3037.7,0.25,79,100.0
8574,G#2,3037.95,0.25,79,100.0
8575,F#2,3037.95,0.25,79,100.0
8576,G#2,3038.2,0.25,84,100.0
8577,F#2,3038.2,0.25,84,100.0
8578,C2,3038.2,0.25,84,100.0
8579,G#2,3038.45,3/20,63,100.0
8580,G#2,3038.6,1/10,63,100.0
8581,G#2,3038.7,0.25,63,100.0
8582,F#2,3038.7,0.25,63,100.0
8583,G#2,3038.95,0.25,71,100.0
8584,F#2,3038.95,0.25,71,100.0
8585,G#2,3039.2,0.25,84,100.0
8586,F#2,3039.2,0.25,84,100.0
8587,D2,3039.2,0.25,84,100.0
8588,G#2,3039.45,0.25,79,100.0
8589,C2,3039.45,0.25,79,100.0
8590,G#2,3039.7,0.25,63,100.0
8591,G#2,3039.95,0.25,71,100.0
8592,C2,3039.95,0.25,71,100.0
8593,G#2,3040.2,0.25,79,100.0
8594,F#2,3040.2,0.25,79,100.0
8595,G#2,3040.45,3/20,63,100.0
8596,C2,3040.45,3/20,63,100.0
8597,G#2,3040.6,1/10,63,100.0
8598,C2,3040.6,1/10,63,100.0
8599,G#2,3040.7,0.25,63,100.0
8600,F#2,3040.7,0.25,63,100.0
8601,G#2,3040.95,0.25,71,100.0
8602,F#2,3040.95,0.25,71,100.0
8603,G#2,3041.2,0.25,79,100.0
8604,F#2,3041.2,0.25,79,100.0
8605,D2,3041.2,0.25,79,100.0
8606,G#2,3041.45,0.25,63,100.0
8607,G#2,3041.7,0.25,79,100.0
8608,F#2,3041.7,0.25,79,100.0
8609,G#2,3041.95,0.25,79,100.0
8610,F#2,3041.95,0.25,79,100.0
8611,G#2,3042.2,0.25,84,100.0
8612,F#2,3042.2,0.25,84,100.0
8613,C2,3042.2,0.25,84,100.0
8614,G#2,3042.45,3/20,63,100.0
8615,G#2,3042.6,1/10,63,100.0
8616,G#2,3042.7,0.25,63,100.0
8617,F#2,3042.7,0.25,63,100.0
8618,G#2,3042.95,0.25,71,100.0
8619,F#2,3042.95,0.25,71,100.0
8620,G#2,3043.2,0.25,84,100.0
8621,F#2,3043.2,0.25,84,100.0
8622,D2,3043.2,0.25,84,100.0
8623,G#2,3043.45,0.25,79,100.0
8624,C2,3043.45,0.25,79,100.0
8625,G#2,3043.7,0.25,63,100.0
8626,G#2,3043.95,0.25,71,100.0
8627,C2,3043.95,0.25,71,100.0
8628,G#2,3044.2,0.25,79,100.0
8629,F#2,3044.2,0.25,79,100.0
8630,G#2,3044.45,3/20,63,100.0
8631,C2,3044.45,3/20,63,100.0
8632,G#2,3044.6,1/10,63,100.0
8633,C2,3044.6,1/10,63,100.0
8634,G#2,3044.7,0.25,63,100.0
8635,F#2,3044.7,0.25,63,100.0
8636,G#2,3044.95,0.25,71,100.0
8637,F#2,3044.95,0.25,71,100.0
8638,G#2,3045.2,0.25,79,100.0
8639,F#2,3045.2,0.25,79,100.0
8640,D2,3045.2,0.25,79,100.0
8641,G#2,3045.45,0.25,63,100.0
8642,G#2,3045.7,0.25,79,100.0
8643,F#2,3045.7,0.25,79,100.0
8644,G#2,3045.95,0.25,79,100.0
8645,F#2,3045.95,0.25,79,100.0
8646,G#2,3046.2,0.25,84,100.0
8647,F#2,3046.2,0.25,84,100.0
8648,C2,3046.2,0.25,84,100.0
8649,G#2,3046.45,3/20,63,100.0
8650,G#2,3046.6,1/10,63,100.0
8651,G#2,3046.7,0.25,63,100.0
8652,F#2,3046.7,0.25,63,100.0
8653,G#2,3046.95,0.25,71,100.0
8654,F#2,3046.95,0.25,71,100.0
8655,G#2,3047.2,0.25,84,100.0
8656,F#2,3047.2,0.25,84,100.0
8657,D2,3047.2,0.25,84,100.0
8658,G#2,3047.45,0.25,79,100.0
8659,C2,3047.45,0.25,79,100.0
8660,G#2,3047.7,0.25,63,100.0
8661,G#2,3047.95,0.25,71,100.0
8662,C2,3047.95,0.25,71,100.0
8663,G#2,3048.2,0.25,79,100.0
8664,F#2,3048.2,0.25,79,100.0
8665,G#2,3048.45,3/20,63,100.0
8666,C2,3048.45,3/20,63,100.0
8667,G#2,3048.6,1/10,63,100.0
8668,C2,3048.6,1/10,63,100.0
8669,G#2,3048.7,0.25,63,100.0
8670,F#2,3048.7,0.25,63,100.0
8671,G#2,3048.95,0.25,71,100.0
8672,F#2,3048.95,0.25,71,100.0
8673,G#2,3049.2,0.25,79,100.0
8674,F#2,3049.2,0.25,79,100.0
8675,D2,3049.2,0.25,79,100.0
8676,G#2,3049.45,0.25,63,100.0
8677,G#2,3049.7,0.25,84,100.0
8678,F#2,3049.7,0.25,84,100.0
8679,A5,3049.7,0.25,84,100.0
8680,G#2,3049.95,0.25,79,100.0
8681,F#2,3049.95,0.25,79,100.0
8682,G#2,3050.2,0.25,84,100.0
8683,F#2,3050.2,0.25,84,100.0
8684,C2,3050.2,0.25,84,100.0
8685,G#2,3050.45,3/20,63,100.0
8686,G#2,3050.6,1/10,63,100.0
8687,G#2,3050.7,0.25,63,100.0
8688,F#2,3050.7,0.25,63,100.0
8689,G#2,3050.95,0.25,71,100.0
8690,F#2,3050.95,0.25,71,100.0
8691,G#2,3051.2,0.25,84,100.0
8692,F#2,3051.2,0.25,84,100.0
8693,D2,3051.2,0.25,84,100.0
8694,G#2,3051.45,0.25,79,100.0
8695,C2,3051.45,0.25,79,100.0
8696,G#2,3051.7,0.25,63,100.0
8697,G#2,3051.95,0.25,71,100.0
8698,C2,3051.95,0.25,71,100.0
8699,G#2,3052.2,0.25,79,100.0
8700,F#2,3052.2,0.25,79,100.0
8701,G#2,3052.45,3/20,63,100.0
8702,C2,3052.45,3/20,63,100.0
8703,G#2,3052.6,1/10,63,100.0
8704,C2,3052.6,1/10,63,100.0
8705,G#2,3052.7,0.25,63,100.0
8706,F#2,3052.7,0.25,63,100.0
8707,G#2,3052.95,0.25,71,100.0
8708,F#2,3052.95,0.25,71,100.0
8709,G#2,3053.2,0.25,79,100.0
8710,F#2,3053.2,0.25,79,100.0
8711,D2,3053.2,0.25,79,100.0
8712,G#2,3053.45,0.25,63,100.0
8713,G#2,3053.7,0.25,79,100.0
8714,F#2,3053.7,0.25,79,100.0
8715,G#2,3053.95,0.25,79,100.0
8716,F#2,3053.95,0.25,79,100.0
8717,G#2,3054.2,0.25,87,100.0
8718,F#2,3054.2,0.25,87,100.0
8719,C2,3054.2,0.25,87,100.0
8720,E3,3054.2,0.25,87,100.0
8721,G#2,3054.45,3/20,63,100.0
8722,G#2,3054.6,1/10,63,100.0
8723,G#2,3054.7,0.25,63,100.0
8724,F#2,3054.7,0.25,63,100.0
8725,G#2,3054.95,0.25,71,100.0
8726,F#2,3054.95,0.25,71,100.0
8727,G#2,3055.2,0.25,84,100.0
8728,F#2,3055.2,0.25,84,100.0
8729,D2,3055.2,0.25,84,100.0
8730,G#2,3055.45,0.25,79,100.0
8731,C2,3055.45,0.25,79,100.0
8732,G#2,3055.7,0.25,63,100.0
8733,G#2,3055.95,0.25,71,100.0
8734,C2,3055.95,0.25,71,100.0
8735,G#2,3056.2,0.25,79,100.0
8736,F#2,3056.2,0.25,79,100.0
8737,G#2,3056.45,3/20,63,100.0
8738,C2,3056.45,3/20,63,100.0
8739,G#2,3056.6,1/10,63,100.0
8740,C2,3056.6,1/10,63,100.0
8741,G#2,3056.7,0.25,63,100.0
8742,F#2,3056.7,0.25,63,100.0
8743,G#2,3056.95,0.25,71,100.0
8744,F#2,3056.95,0.25,71,100.0
8745,G#2,3057.2,0.25,79,100.0
8746,F#2,3057.2,0.25,79,100.0
8747,D2,3057.2,0.25,79,100.0
8748,G#2,3057.45,0.25,63,100.0
8749,G#2,3057.7,0.25,79,100.0
8750,F#2,3057.7,0.25,79,100.0
8751,G#2,3057.95,0.25,79,100.0
8752,F#2,3057.95,0.25,79,100.0
8753,G#2,3058.2,0.25,84,100.0
8754,F#2,3058.2,0.25,84,100.0
8755,C2,3058.2,0.25,84,100.0
8756,G#2,3058.45,3/20,63,100.0
8757,G#2,3058.6,1/10,63,100.0
8758,G#2,3058.7,0.25,63,100.0
8759,F#2,3058.7,0.25,63,100.0
8760,G#2,3058.95,0.25,71,100.0
8761,F#2,3058.95,0.25,71,100.0
8762,G#2,3059.2,0.25,84,100.0
8763,F#2,3059.2,0.25,84,100.0
8764,D2,3059.2,0.25,84,100.0
8765,G#2,3059.45,0.25,79,100.0
8766,F#2,3059.45,0.25,79,100.0
8767,G#2,3059.7,0.25,71,100.0
8768,F#2,3059.7,0.25,71,100.0
8769,G#2,3059.95,0.25,74,100.0
8770,F#2,3059.95,0.25,74,100.0
8771,C2,3059.95,0.25,74,100.0
8772,G#2,3060.2,0.25,63,100.0
8773,G#2,3060.45,3/20,63,100.0
8774,G#2,3060.6,1/10,63,100.0
8775,G#2,3060.7,0.25,63,100.0
8776,F#2,3060.7,0.25,63,100.0
8777,G#2,3060.95,0.25,79,100.0
8778,F#2,3060.95,0.25,79,100.0
8779,C2,3060.95,0.25,79,100.0
8780,G#2,3061.2,0.25,79,100.0
8781,F#2,3061.2,0.25,79,100.0
8782,D2,3061.2,0.25,79,100.0
8783,G#2,3061.45,0.25,63,100.0
8784,G#2,3061.7,0.25,79,100.0
8785,F#2,3061.7,0.25,79,100.0
8786,G#2,3061.95,0.25,79,100.0
8787,F#2,3061.95,0.25,79,100.0
8788,G#2,3062.2,0.25,84,100.0
8789,F#2,3062.2,0.25,84,100.0
8790,C2,3062.2,0.25,84,100.0
8791,G#2,3062.45,3/20,63,100.0
8792,G#2,3062.6,1/10,63,100.0
8793,G#2,3062.7,0.25,63,100.0
8794,F#2,3062.7,0.25,63,100.0
8795,G#2,3062.95,0.25,71,100.0
8796,F#2,3062.95,0.25,71,100.0
8797,G#2,3063.2,0.25,84,100.0
8798,F#2,3063.2,0.25,84,100.0
8799,D2,3063.2,0.25,84,100.0
8800,G#2,3063.45,0.25,79,100.0
8801,C2,3063.45,0.25,79,100.0
8802,G#2,3063.7,0.25,63,100.0
8803,G#2,3063.95,0.25,71,100.0
8804,C2,3063.95,0.25,71,100.0
8805,G#2,3064.2,0.25,79,100.0
8806,F#2,3064.2,0.25,79,100.0
8807,G#2,3064.45,3/20,63,100.0
8808,C2,3064.45,3/20,63,100.0
8809,G#2,3064.6,1/10,63,100.0
8810,C2,3064.6,1/10,63,100.0
8811,G#2,3064.7,0.25,63,100.0
8812,F#2,3064.7,0.25,63,100.0
8813,G#2,3064.95,0.25,71,100.0
8814,F#2,3064.95,0.25,71,100.0
8815,G#2,3065.2,0.25,79,100.0
8816,F#2,3065.2,0.25,79,100.0
8817,D2,3065.2,0.25,79,100.0
8818,G#2,3065.45,0.25,63,100.0
8819,G#2,3065.7,0.25,79,100.0
8820,F#2,3065.7,0.25,79,100.0
8821,G#2,3065.95,0.25,79,100.0
8822,F#2,3065.95,0.25,79,100.0
8823,G#2,3066.2,0.25,84,100.0
8824,F#2,3066.2,0.25,84,100.0
8825,C2,3066.2,0.25,84,100.0
8826,G#2,3066.45,3/20,63,100.0
8827,G#2,3066.6,1/10,63,100.0
8828,G#2,3066.7,0.25,63,100.0
8829,F#2,3066.7,0.25,63,100.0
8830,G#2,3066.95,0.25,71,100.0
8831,F#2,3066.95,0.25,71,100.0
8832,G#2,3067.2,0.25,84,100.0
8833,F#2,3067.2,0.25,84,100.0
8834,D2,3067.2,0.25,84,100.0
8835,G#2,3067.45,0.25,79,100.0
8836,C2,3067.45,0.25,79,100.0
8837,G#2,3067.7,0.25,63,100.0
8838,G#2,3067.95,0.25,71,100.0
8839,C2,3067.95,0.25,71,100.0
8840,G#2,3068.2,0.25,79,100.0
8841,F#2,3068.2,0.25,79,100.0
8842,G#2,3068.45,3/20,63,100.0
8843,C2,3068.45,3/20,63,100.0
8844,G#2,3068.6,1/10,63,100.0
8845,C2,3068.6,1/10,63,100.0
8846,G#2,3068.7,0.25,63,100.0
8847,F#2,3068.7,0.25,63,100.0
8848,G#2,3068.95,0.25,71,100.0
8849,F#2,3068.95,0.25,71,100.0
8850,G#2,3069.2,0.25,79,100.0
8851,F#2,3069.2,0.25,79,100.0
8852,D2,3069.2,0.25,79,100.0
8853,G#2,3069.45,0.25,63,100.0
8854,G#2,3069.7,0.25,79,100.0
8855,F#2,3069.7,0.25,79,100.0
8856,G#2,3069.95,0.25,79,100.0
8857,F#2,3069.95,0.25,79,100.0
8858,G#2,3070.2,0.25,87,100.0
8859,F#2,3070.2,0.25,87,100.0
8860,C2,3070.2,0.25,87,100.0
8861,E3,3070.2,0.25,87,100.0
8862,G#2,3070.45,3/20,63,100.0
8863,G#2,3070.6,1/10,63,100.0
8864,G#2,3070.7,0.25,63,100.0
8865,F#2,3070.7,0.25,63,100.0
8866,G#2,3070.95,0.25,71,100.0
8867,F#2,3070.95,0.25,71,100.0
8868,G#2,3071.2,0.25,84,100.0
8869,F#2,3071.2,0.25,84,100.0
8870,D2,3071.2,0.25,84,100.0
8871,G#2,3071.45,0.25,79,100.0
8872,C2,3071.45,0.25,79,100.0
8873,G#2,3071.7,0.25,63,100.0
8874,G#2,3071.95,0.25,71,100.0
8875,C2,3071.95,0.25,71,100.0
8876,G#2,3072.2,0.25,79,100.0
8877,F#2,3072.2,0.25,79,100.0
8878,G#2,3072.45,3/20,63,100.0
8879,C2,3072.45,3/20,63,100.0
8880,G#2,3072.6,1/10,63,100.0
8881,C2,3072.6,1/10,63,100.0
8882,G#2,3072.7,0.25,63,100.0
8883,F#2,3072.7,0.25,63,100.0
8884,G#2,3072.95,0.25,71,100.0
8885,F#2,3072.95,0.25,71,100.0
8886,G#2,3073.2,0.25,79,100.0
8887,F#2,3073.2,0.25,79,100.0
8888,D2,3073.2,0.25,79,100.0
8889,G#2,3073.45,0.25,63,100.0
8890,G#2,3073.7,0.25,79,100.0
8891,F#2,3073.7,0.25,79,100.0
8892,G#2,3073.95,0.25,79,100.0
8893,F#2,3073.95,0.25,79,100.0
8894,G#2,3074.2,0.25,84,100.0
8895,F#2,3074.2,0.25,84,100.0
8896,C2,3074.2,0.25,84,100.0
8897,G#2,3074.45,3/20,63,100.0
8898,G#2,3074.6,1/10,63,100.0
8899,G#2,3074.7,0.25,63,100.0
8900,F#2,3074.7,0.25,63,100.0
8901,G#2,3074.95,0.25,71,100.0
8902,F#2,3074.95,0.25,71,100.0
8903,G#2,3075.2,0.25,84,100.0
8904,F#2,3075.2,0.25,84,100.0
8905,D2,3075.2,0.25,84,100.0
8906,G#2,3075.45,0.25,79,100.0
8907,F#2,3075.45,0.25,79,100.0
8908,G#2,3075.7,0.25,71,100.0
8909,F#2,3075.7,0.25,71,100.0
8910,G#2,3075.95,0.25,74,100.0
8911,F#2,3075.95,0.25,74,100.0
8912,C2,3075.95,0.25,74,100.0
8913,G#2,3076.2,0.25,63,100.0
8914,G#2,3076.45,3/20,63,100.0
8915,G#2,3076.6,1/10,63,100.0
8916,G#2,3076.7,0.25,63,100.0
8917,F#2,3076.7,0.25,63,100.0
8918,G#2,3076.95,0.25,79,100.0
8919,F#2,3076.95,0.25,79,100.0
8920,C2,3076.95,0.25,79,100.0
8921,G#2,3077.2,0.25,79,100.0
8922,F#2,3077.2,0.25,79,100.0
8923,D2,3077.2,0.25,79,100.0
8924,G#2,3077.45,0.25,63,100.0
8925,G#2,3077.7,0.25,79,100.0
8926,F#2,3077.7,0.25,79,100.0
8927,G#2,3077.95,0.25,79,100.0
8928,F#2,3077.95,0.25,79,100.0
8929,G#2,3078.2,0.25,84,100.0
8930,F#2,3078.2,0.25,84,100.0
8931,C2,3078.2,0.25,84,100.0
8932,G#2,3078.45,3/20,63,100.0
8933,G#2,3078.6,1/10,63,100.0
8934,G#2,3078.7,0.25,63,100.0
8935,F#2,3078.7,0.25,63,100.0
8936,G#2,3078.95,0.25,71,100.0
8937,F#2,3078.95,0.25,71,100.0
8938,G#2,3079.2,0.25,84,100.0
8939,F#2,3079.2,0.25,84,100.0
8940,D2,3079.2,0.25,84,100.0
8941,G#2,3079.45,0.25,79,100.0
8942,C2,3079.45,0.25,79,100.0
8943,G#2,3079.7,0.25,63,100.0
8944,G#2,3079.95,0.25,71,100.0
8945,C2,3079.95,0.25,71,100.0
