,note_name,start_time,duration,velocity,tempo
0,C4,0.0,1.0,95,140.0
1,C3,0.0,1.0,95,140.0
2,E3,0.062,0.938,95,140.0
3,G3,0.125,0.875,95,140.0
4,C4,0.188,0.812,95,140.0
5,E4,0.25,0.75,95,140.0
6,C3,1.0,0.469,95,140.0
7,E3,1.0,0.469,95,140.0
8,G3,1.0,0.469,95,140.0
9,E4,1.5,0.469,95,140.0
10,C4,1.5,0.469,95,140.0
11,G3,1.5,0.469,95,140.0
12,B3,2.0,1.0,95,140.0
13,B2,2.0,1.0,95,140.0
14,E3,2.062,0.938,95,140.0
15,G3,2.125,0.875,95,140.0
16,B3,2.188,0.812,95,140.0
17,E4,3.0,0.469,95,140.0
18,B3,3.0,0.469,95,140.0
19,G3,3.0,0.469,95,140.0
20,E4,3.5,0.469,95,140.0
21,B3,3.5,0.469,95,140.0
22,G3,3.5,0.469,95,140.0
23,A3,4.0,1.0,95,140.0
24,A2,4.0,0.969,95,140.0
25,E3,4.0,0.969,95,140.0
26,A3,4.062,0.906,95,140.0
27,C4,4.062,0.906,95,140.0
28,E4,4.125,0.875,95,140.0
29,A2,5.0,0.453,95,140.0
30,E3,5.0,0.453,95,140.0
31,A3,5.0,0.453,95,140.0
32,C4,5.0,0.453,95,140.0
33,E4,5.5,0.469,95,140.0
34,C4,5.5,0.469,95,140.0
35,A3,5.5,0.469,95,140.0
36,A3,6.0,73/1000,95,140.0
37,E4,6.0,0.625,95,140.0
38,C4,6.0,0.625,95,140.0
39,A3,6.0,0.625,95,140.0
40,A3,6.021,323/500,95,140.0
41,B3,6.667,667/1000,95,140.0
42,E4,6.667,0.625,95,140.0
43,C4,6.667,0.625,95,140.0
44,A3,6.667,0.625,95,140.0
45,C4,7.333,667/1000,95,140.0
46,E4,7.333,0.625,95,140.0
47,C4,7.333,0.625,95,140.0
48,A3,7.333,0.625,95,140.0
49,F3,8.0,3.0,95,140.0
50,C3,8.0,0.969,95,140.0
51,F3,8.0,0.969,95,140.0
52,A3,8.062,0.906,95,140.0
53,C4,8.062,0.906,95,140.0
54,F4,8.125,0.875,95,140.0
55,C3,9.0,0.453,95,140.0
56,F3,9.0,0.453,95,140.0
57,A3,9.0,0.453,95,140.0
58,C4,9.0,0.453,95,140.0
59,F4,9.5,0.969,95,140.0
60,C4,9.5,0.969,95,140.0
61,A3,9.562,0.938,95,140.0
62,F4,10.5,0.469,95,140.0
63,C4,10.5,0.469,95,140.0
64,A3,10.5,0.469,95,140.0
65,E3,11.5,167/1000,95,140.0
66,F4,11.5,0.469,95,140.0
67,C4,11.5,0.469,95,140.0
68,A3,11.5,0.469,95,140.0
69,F3,11.667,167/1000,70,140.0
70,E3,11.833,167/1000,70,140.0
71,D3,12.0,3.0,95,140.0
72,D3,12.0,0.969,95,140.0
73,A3,12.0,0.969,95,140.0
74,D4,12.062,0.906,95,140.0
75,F4,12.062,0.906,95,140.0
76,D3,13.0,0.453,95,140.0
77,A3,13.0,0.453,95,140.0
78,D4,13.0,0.453,95,140.0
79,F4,13.0,0.453,95,140.0
80,F4,13.5,0.969,95,140.0
81,D4,13.5,0.969,95,140.0
82,A3,13.562,0.938,95,140.0
83,F4,14.5,0.469,95,140.0
84,D4,14.5,0.469,95,140.0
85,A3,14.5,0.469,95,140.0
86,F4,15.5,0.469,95,140.0
87,D4,15.5,0.469,95,140.0
88,A3,15.5,0.469,95,140.0
89,B3,16.0,1.0,95,140.0
90,D3,16.0,0.969,95,140.0
91,B3,16.0,0.969,95,140.0
92,D4,16.062,0.906,95,140.0
93,G4,16.062,0.906,95,140.0
94,D3,17.0,0.453,95,140.0
95,B3,17.0,0.453,95,140.0
96,D4,17.0,0.453,95,140.0
97,G4,17.0,0.453,95,140.0
98,G4,17.5,0.969,95,140.0
99,D4,17.5,0.969,95,140.0
100,B3,17.562,0.938,95,140.0
101,A3,18.0,1.0,95,140.0
102,G4,18.5,0.469,95,140.0
103,D4,18.5,0.469,95,140.0
104,B3,18.5,0.469,95,140.0
105,G4,19.5,0.469,95,140.0
106,D4,19.5,0.469,95,140.0
107,B3,19.5,0.469,95,140.0
108,G3,20.0,1.0,95,140.0
109,D3,20.0,0.969,95,140.0
110,B3,20.0,0.969,95,140.0
111,D4,20.062,0.906,95,140.0
112,G4,20.062,0.906,95,140.0
113,D3,21.0,0.453,95,140.0
114,B3,21.0,0.453,95,140.0
115,D4,21.0,0.453,95,140.0
116,G4,21.0,0.453,95,140.0
117,E2,21.5,73/1000,95,140.0
118,G4,21.5,0.969,95,140.0
119,D4,21.5,0.969,95,140.0
120,B3,21.562,0.938,95,140.0
121,F3,21.75,73/1000,95,140.0
122,D3,21.875,73/1000,95,140.0
123,D3,22.0,667/1000,95,140.0
124,G4,22.5,0.469,95,140.0
125,D4,22.5,0.469,95,140.0
126,B3,22.5,0.469,95,140.0
127,E3,22.667,667/1000,95,140.0
128,F3,23.333,667/1000,95,140.0
129,G4,23.5,0.469,95,140.0
130,D4,23.5,0.469,95,140.0
131,B3,23.5,0.469,95,140.0
132,E3,24.0,4.0,95,140.0
133,C3,24.0,0.969,95,140.0
134,E3,24.0,0.969,95,140.0
135,G3,24.062,0.906,95,140.0
136,C4,24.062,0.906,95,140.0
137,E4,24.125,0.875,95,140.0
138,C3,25.0,0.453,95,140.0
139,E3,25.0,0.453,95,140.0
140,G3,25.0,0.453,95,140.0
141,C4,25.0,0.453,95,140.0
142,E4,25.5,0.969,95,140.0
143,C4,25.5,0.969,95,140.0
144,G3,25.562,0.938,95,140.0
145,E4,26.5,0.469,95,140.0
146,C4,26.5,0.469,95,140.0
147,G3,26.5,0.469,95,140.0
148,E4,27.5,0.469,95,140.0
149,C4,27.5,0.469,95,140.0
150,G3,27.5,0.469,95,140.0
151,C3,28.0,0.969,95,140.0
152,E3,28.0,0.969,95,140.0
153,G3,28.062,0.906,95,140.0
154,C4,28.062,0.906,95,140.0
155,E4,28.125,0.875,95,140.0
156,C3,29.0,0.453,95,140.0
157,E3,29.0,0.453,95,140.0
158,G3,29.0,0.453,95,140.0
159,C4,29.0,0.453,95,140.0
160,E4,29.5,0.969,95,140.0
161,C4,29.5,0.969,95,140.0
162,G3,29.562,0.938,95,140.0
163,E4,30.5,0.469,95,140.0
164,C4,30.5,0.469,95,140.0
165,G3,30.5,0.469,95,140.0
166,E4,31.5,0.469,95,140.0
167,C4,31.5,0.469,95,140.0
168,G3,31.5,0.469,95,140.0
169,G3,32.0,73/1000,95,140.0
170,C3,32.0,1.0,95,140.0
171,C4,32.031,0.969,95,140.0
172,E3,32.062,0.938,95,140.0
173,G3,32.125,0.875,95,140.0
174,C4,32.188,0.812,95,140.0
175,E4,32.25,0.75,95,140.0
176,C3,33.0,0.469,95,140.0
177,E3,33.0,0.469,95,140.0
178,G3,33.0,0.469,95,140.0
179,E4,33.5,0.469,95,140.0
180,C4,33.5,0.469,95,140.0
181,G3,33.5,0.469,95,140.0
182,G3,34.0,73/1000,95,140.0
183,B2,34.0,1.0,95,140.0
184,B3,34.031,0.969,95,140.0
185,E3,34.062,0.938,95,140.0
186,G3,34.125,0.875,95,140.0
187,B3,34.188,0.812,95,140.0
188,E4,35.0,0.469,95,140.0
189,B3,35.0,0.469,95,140.0
190,G3,35.0,0.469,95,140.0
191,E4,35.5,0.469,95,140.0
192,B3,35.5,0.469,95,140.0
193,G3,35.5,0.469,95,140.0
194,A3,36.0,73/1000,95,140.0
195,A2,36.0,0.969,95,140.0
196,E3,36.0,0.969,95,140.0
197,A3,36.031,0.969,95,140.0
198,A3,36.062,0.906,95,140.0
199,C4,36.062,0.906,95,140.0
200,E4,36.125,0.875,95,140.0
201,A2,37.0,0.453,95,140.0
202,E3,37.0,0.453,95,140.0
203,A3,37.0,0.453,95,140.0
204,C4,37.0,0.453,95,140.0
205,E4,37.5,0.469,95,140.0
206,C4,37.5,0.469,95,140.0
207,A3,37.5,0.469,95,140.0
208,A3,38.0,73/1000,95,140.0
209,E4,38.0,0.625,95,140.0
210,C4,38.0,0.625,95,140.0
211,A3,38.0,0.625,95,140.0
212,A3,38.021,323/500,95,140.0
213,B3,38.667,667/1000,95,140.0
214,E4,38.667,0.625,95,140.0
215,C4,38.667,0.625,95,140.0
216,A3,38.667,0.625,95,140.0
217,C4,39.333,667/1000,95,140.0
218,E4,39.333,0.625,95,140.0
219,C4,39.333,0.625,95,140.0
220,A3,39.333,0.625,95,140.0
221,F3,40.0,3.0,95,140.0
222,C3,40.0,0.969,95,140.0
223,F3,40.0,0.969,95,140.0
224,A3,40.062,0.906,95,140.0
225,C4,40.062,0.906,95,140.0
226,F4,40.125,0.875,95,140.0
227,C3,41.0,0.453,95,140.0
228,F3,41.0,0.453,95,140.0
229,A3,41.0,0.453,95,140.0
230,C4,41.0,0.453,95,140.0
231,F4,41.5,0.969,95,140.0
232,C4,41.5,0.969,95,140.0
233,A3,41.562,0.938,95,140.0
234,F4,42.5,0.469,95,140.0
235,C4,42.5,0.469,95,140.0
236,A3,42.5,0.469,95,140.0
237,E3,43.5,167/1000,95,140.0
238,F4,43.5,0.469,95,140.0
239,C4,43.5,0.469,95,140.0
240,A3,43.5,0.469,95,140.0
241,F3,43.667,167/1000,70,140.0
242,E3,43.833,167/1000,70,140.0
243,D3,44.0,3.0,95,140.0
244,D3,44.0,0.969,95,140.0
245,A3,44.0,0.969,95,140.0
246,D4,44.062,0.906,95,140.0
247,F4,44.062,0.906,95,140.0
248,D3,45.0,0.453,95,140.0
249,A3,45.0,0.453,95,140.0
250,D4,45.0,0.453,95,140.0
251,F4,45.0,0.453,95,140.0
252,F4,45.5,0.969,95,140.0
253,D4,45.5,0.969,95,140.0
254,A3,45.562,0.938,95,140.0
255,F4,46.5,0.469,95,140.0
256,D4,46.5,0.469,95,140.0
257,A3,46.5,0.469,95,140.0
258,F4,47.5,0.469,95,140.0
259,D4,47.5,0.469,95,140.0
260,A3,47.5,0.469,95,140.0
261,G3,48.0,73/1000,95,140.0
262,D3,48.0,0.969,95,140.0
263,B3,48.0,0.969,95,140.0
264,B3,48.031,0.969,95,140.0
265,D4,48.062,0.906,95,140.0
266,G4,48.062,0.906,95,140.0
267,D3,49.0,0.453,95,140.0
268,B3,49.0,0.453,95,140.0
269,D4,49.0,0.453,95,140.0
270,G4,49.0,0.453,95,140.0
271,G4,49.5,0.969,95,140.0
272,D4,49.5,0.969,95,140.0
273,B3,49.562,0.938,95,140.0
274,A3,50.0,73/1000,95,140.0
275,A3,50.031,0.969,95,140.0
276,G4,50.5,0.469,95,140.0
277,D4,50.5,0.469,95,140.0
278,B3,50.5,0.469,95,140.0
279,G4,51.5,0.469,95,140.0
280,D4,51.5,0.469,95,140.0
281,B3,51.5,0.469,95,140.0
282,G3,52.0,73/1000,95,140.0
283,D3,52.0,0.969,95,140.0
284,B3,52.0,0.969,95,140.0
285,G3,52.031,0.969,95,140.0
286,D4,52.062,0.906,95,140.0
287,G4,52.062,0.906,95,140.0
288,D3,53.0,0.453,95,140.0
289,B3,53.0,0.453,95,140.0
290,D4,53.0,0.453,95,140.0
291,G4,53.0,0.453,95,140.0
292,G4,53.5,0.969,95,140.0
293,D4,53.5,0.969,95,140.0
294,B3,53.562,0.938,95,140.0
295,E2,53.812,0.062,95,140.0
296,F3,53.875,73/1000,95,140.0
297,D3,53.938,0.062,95,140.0
298,D3,54.0,667/1000,95,140.0
299,G4,54.5,0.469,95,140.0
300,D4,54.5,0.469,95,140.0
301,B3,54.5,0.469,95,140.0
302,E3,54.667,667/1000,95,140.0
303,F3,55.333,667/1000,95,140.0
304,G4,55.5,0.469,95,140.0
305,D4,55.5,0.469,95,140.0
306,B3,55.5,0.469,95,140.0
307,E3,56.0,4.0,95,140.0
308,C3,56.0,0.969,95,140.0
309,E3,56.0,0.969,95,140.0
310,G3,56.062,0.906,95,140.0
311,C4,56.062,0.906,95,140.0
312,E4,56.125,0.875,95,140.0
313,C3,57.0,0.453,95,140.0
314,E3,57.0,0.453,95,140.0
315,G3,57.0,0.453,95,140.0
316,C4,57.0,0.453,95,140.0
317,E4,57.5,0.969,95,140.0
318,C4,57.5,0.969,95,140.0
319,G3,57.562,0.938,95,140.0
320,E4,58.5,0.469,95,140.0
321,C4,58.5,0.469,95,140.0
322,G3,58.5,0.469,95,140.0
323,E4,59.5,0.469,95,140.0
324,C4,59.5,0.469,95,140.0
325,G3,59.5,0.469,95,140.0
326,C3,60.0,0.969,95,140.0
327,E3,60.0,0.969,95,140.0
328,G3,60.062,0.906,95,140.0
329,C4,60.062,0.906,95,140.0
330,E4,60.125,0.875,95,140.0
331,C3,61.0,0.453,95,140.0
332,E3,61.0,0.453,95,140.0
333,G3,61.0,0.453,95,140.0
334,C4,61.0,0.453,95,140.0
335,E4,61.5,0.969,95,140.0
336,C4,61.5,0.969,95,140.0
337,G3,61.562,0.938,95,140.0
338,E4,62.5,0.469,95,140.0
339,C4,62.5,0.469,95,140.0
340,G3,62.5,0.469,95,140.0
341,E4,63.5,0.469,95,140.0
342,C4,63.5,0.469,95,140.0
343,G3,63.5,0.469,95,140.0
344,C3,64.0,1.0,95,140.0
345,C4,64.0,0.5,95,140.0
346,C4,64.0,0.5,95,140.0
347,E3,64.062,0.938,95,140.0
348,G3,64.125,0.875,95,140.0
349,C4,64.188,0.812,95,140.0
350,E4,64.25,0.75,95,140.0
351,C4,64.5,0.5,95,140.0
352,C4,64.5,0.5,95,140.0
353,C4,65.0,0.5,95,140.0
354,C4,65.0,0.5,95,140.0
355,C3,65.0,0.469,95,140.0
356,E3,65.0,0.469,95,140.0
357,G3,65.0,0.469,95,140.0
358,C4,65.5,0.5,95,140.0
359,C4,65.5,0.5,95,140.0
360,E4,65.5,0.469,95,140.0
361,C4,65.5,0.469,95,140.0
362,G3,65.5,0.469,95,140.0
363,B2,66.0,1.0,95,140.0
364,B3,66.0,1.0,95,140.0
365,B3,66.0,1.0,95,140.0
366,E3,66.062,0.938,95,140.0
367,G3,66.125,0.875,95,140.0
368,B3,66.188,0.812,95,140.0
369,B3,67.0,0.5,95,140.0
370,B3,67.0,0.5,95,140.0
371,E4,67.0,0.469,95,140.0
372,B3,67.0,0.469,95,140.0
373,G3,67.0,0.469,95,140.0
374,B3,67.5,0.5,95,140.0
375,B3,67.5,0.5,95,140.0
376,E4,67.5,0.469,95,140.0
377,B3,67.5,0.469,95,140.0
378,G3,67.5,0.469,95,140.0
379,A3,68.0,0.5,95,140.0
380,A3,68.0,0.5,95,140.0
381,A2,68.0,0.969,95,140.0
382,E3,68.0,0.969,95,140.0
383,A3,68.062,0.906,95,140.0
384,C4,68.062,0.906,95,140.0
385,E4,68.125,0.875,95,140.0
386,A3,68.5,0.5,95,140.0
387,A3,68.5,0.5,95,140.0
388,A3,69.0,0.5,95,140.0
389,A3,69.0,0.5,95,140.0
390,A2,69.0,0.453,95,140.0
391,E3,69.0,0.453,95,140.0
392,A3,69.0,0.453,95,140.0
393,C4,69.0,0.453,95,140.0
394,A3,69.5,0.5,95,140.0
395,A3,69.5,0.5,95,140.0
396,E4,69.5,0.469,95,140.0
397,C4,69.5,0.469,95,140.0
398,A3,69.5,0.469,95,140.0
399,A3,70.0,667/1000,95,140.0
400,A3,70.0,667/1000,95,140.0
401,E4,70.0,0.625,95,140.0
402,C4,70.0,0.625,95,140.0
403,A3,70.0,0.625,95,140.0
404,B3,70.667,667/1000,95,140.0
405,B3,70.667,667/1000,95,140.0
406,E4,70.667,0.625,95,140.0
407,C4,70.667,0.625,95,140.0
408,A3,70.667,0.625,95,140.0
409,C4,71.333,667/1000,95,140.0
410,C4,71.333,667/1000,95,140.0
411,E4,71.333,0.625,95,140.0
412,C4,71.333,0.625,95,140.0
413,A3,71.333,0.625,95,140.0
414,F3,72.0,4.0,95,140.0
415,F3,72.0,4.0,95,140.0
416,C3,72.0,0.969,95,140.0
417,F3,72.0,0.969,95,140.0
418,A3,72.062,0.906,95,140.0
419,C4,72.062,0.906,95,140.0
420,F4,72.125,0.875,95,140.0
421,C3,73.0,0.453,95,140.0
422,F3,73.0,0.453,95,140.0
423,A3,73.0,0.453,95,140.0
424,C4,73.0,0.453,95,140.0
425,F4,73.5,0.969,95,140.0
426,C4,73.5,0.969,95,140.0
427,A3,73.562,0.938,95,140.0
428,F4,74.5,0.469,95,140.0
429,C4,74.5,0.469,95,140.0
430,A3,74.5,0.469,95,140.0
431,F4,75.5,0.469,95,140.0
432,C4,75.5,0.469,95,140.0
433,A3,75.5,0.469,95,140.0
434,D3,76.0,0.969,95,140.0
435,A3,76.0,0.969,95,140.0
436,D4,76.062,0.906,95,140.0
437,F4,76.062,0.906,95,140.0
438,D3,77.0,0.453,95,140.0
439,A3,77.0,0.453,95,140.0
440,D4,77.0,0.453,95,140.0
441,F4,77.0,0.453,95,140.0
442,F4,77.5,0.969,95,140.0
443,D4,77.5,0.969,95,140.0
444,A3,77.562,0.938,95,140.0
445,F4,78.5,0.469,95,140.0
446,D4,78.5,0.469,95,140.0
447,A3,78.5,0.469,95,140.0
448,D3,79.5,0.5,95,140.0
449,D3,79.5,0.5,95,140.0
450,F4,79.5,0.469,95,140.0
451,D4,79.5,0.469,95,140.0
452,A3,79.5,0.469,95,140.0
453,B3,80.0,2.5,95,140.0
454,B3,80.0,2.5,95,140.0
455,D3,80.0,0.969,95,140.0
456,B3,80.0,0.969,95,140.0
457,D4,80.062,0.906,95,140.0
458,G4,80.062,0.906,95,140.0
459,D3,81.0,0.453,95,140.0
460,B3,81.0,0.453,95,140.0
461,D4,81.0,0.453,95,140.0
462,G4,81.0,0.453,95,140.0
463,G4,81.5,0.969,95,140.0
464,D4,81.5,0.969,95,140.0
465,B3,81.562,0.938,95,140.0
466,A3,82.5,1.0,95,140.0
467,A3,82.5,1.0,95,140.0
468,G4,82.5,0.469,95,140.0
469,D4,82.5,0.469,95,140.0
470,B3,82.5,0.469,95,140.0
471,A3,83.5,0.5,95,140.0
472,A3,83.5,0.5,95,140.0
473,G4,83.5,0.469,95,140.0
474,D4,83.5,0.469,95,140.0
475,B3,83.5,0.469,95,140.0
476,G3,84.0,2.0,95,140.0
477,G3,84.0,2.0,95,140.0
478,D3,84.0,0.969,95,140.0
479,B3,84.0,0.969,95,140.0
480,D4,84.062,0.906,95,140.0
481,G4,84.062,0.906,95,140.0
482,D3,85.0,0.453,95,140.0
483,B3,85.0,0.453,95,140.0
484,D4,85.0,0.453,95,140.0
485,G4,85.0,0.453,95,140.0
486,G4,85.5,0.969,95,140.0
487,D4,85.5,0.969,95,140.0
488,B3,85.562,0.938,95,140.0
489,D3,86.0,667/1000,95,140.0
490,D3,86.0,667/1000,95,140.0
491,G4,86.5,0.469,95,140.0
492,D4,86.5,0.469,95,140.0
493,B3,86.5,0.469,95,140.0
494,E3,86.667,667/1000,95,140.0
495,E3,86.667,667/1000,95,140.0
496,F3,87.333,667/1000,95,140.0
497,F3,87.333,667/1000,95,140.0
498,G4,87.5,0.469,95,140.0
499,D4,87.5,0.469,95,140.0
500,B3,87.5,0.469,95,140.0
501,E3,88.0,4.0,95,140.0
502,E3,88.0,4.0,95,140.0
503,C3,88.0,0.969,95,140.0
504,E3,88.0,0.969,95,140.0
505,G3,88.062,0.906,95,140.0
506,C4,88.062,0.906,95,140.0
507,E4,88.125,0.875,95,140.0
508,C3,89.0,0.453,95,140.0
509,E3,89.0,0.453,95,140.0
510,G3,89.0,0.453,95,140.0
511,C4,89.0,0.453,95,140.0
512,E4,89.5,0.969,95,140.0
513,C4,89.5,0.969,95,140.0
514,G3,89.562,0.938,95,140.0
515,E4,90.5,0.469,95,140.0
516,C4,90.5,0.469,95,140.0
517,G3,90.5,0.469,95,140.0
518,E4,91.5,0.469,95,140.0
519,C4,91.5,0.469,95,140.0
520,G3,91.5,0.469,95,140.0
521,C3,92.0,0.969,95,140.0
522,E3,92.0,0.969,95,140.0
523,G3,92.062,0.906,95,140.0
524,C4,92.062,0.906,95,140.0
525,E4,92.125,0.875,95,140.0
526,C3,93.0,0.453,95,140.0
527,E3,93.0,0.453,95,140.0
528,G3,93.0,0.453,95,140.0
529,C4,93.0,0.453,95,140.0
530,E4,93.5,0.969,95,140.0
531,C4,93.5,0.969,95,140.0
532,G3,93.562,0.938,95,140.0
533,E4,94.5,0.469,95,140.0
534,C4,94.5,0.469,95,140.0
535,G3,94.5,0.469,95,140.0
536,E4,95.5,0.469,95,140.0
537,C4,95.5,0.469,95,140.0
538,G3,95.5,0.469,95,140.0
539,C3,96.0,1.0,95,140.0
540,C4,96.0,0.5,95,140.0
541,C4,96.0,0.5,95,140.0
542,E3,96.062,0.938,95,140.0
543,G3,96.125,0.875,95,140.0
544,C4,96.188,0.812,95,140.0
545,E4,96.25,0.75,95,140.0
546,C4,96.5,0.5,95,140.0
547,C4,96.5,0.5,95,140.0
548,C4,97.0,0.5,95,140.0
549,C4,97.0,0.5,95,140.0
550,C3,97.0,0.469,95,140.0
551,E3,97.0,0.469,95,140.0
552,G3,97.0,0.469,95,140.0
553,C4,97.5,0.5,95,140.0
554,C4,97.5,0.5,95,140.0
555,E4,97.5,0.469,95,140.0
556,C4,97.5,0.469,95,140.0
557,G3,97.5,0.469,95,140.0
558,B2,98.0,1.0,95,140.0
559,B3,98.0,1.0,95,140.0
560,B3,98.0,1.0,95,140.0
561,E3,98.062,0.938,95,140.0
562,G3,98.125,0.875,95,140.0
563,B3,98.188,0.812,95,140.0
564,B3,99.0,0.5,95,140.0
565,B3,99.0,0.5,95,140.0
566,E4,99.0,0.469,95,140.0
567,B3,99.0,0.469,95,140.0
568,G3,99.0,0.469,95,140.0
569,B3,99.5,0.5,95,140.0
570,B3,99.5,0.5,95,140.0
571,E4,99.5,0.469,95,140.0
572,B3,99.5,0.469,95,140.0
573,G3,99.5,0.469,95,140.0
574,A3,100.0,0.5,95,140.0
575,A3,100.0,0.5,95,140.0
576,A2,100.0,0.969,95,140.0
577,E3,100.0,0.969,95,140.0
578,A3,100.062,0.906,95,140.0
579,C4,100.062,0.906,95,140.0
580,E4,100.125,0.875,95,140.0
581,A3,100.5,0.5,95,140.0
582,A3,100.5,0.5,95,140.0
583,A3,101.0,0.5,95,140.0
584,A3,101.0,0.5,95,140.0
585,A2,101.0,0.453,95,140.0
586,E3,101.0,0.453,95,140.0
587,A3,101.0,0.453,95,140.0
588,C4,101.0,0.453,95,140.0
589,A3,101.5,0.5,95,140.0
590,A3,101.5,0.5,95,140.0
591,E4,101.5,0.469,95,140.0
592,C4,101.5,0.469,95,140.0
593,A3,101.5,0.469,95,140.0
594,A3,102.0,667/1000,95,140.0
595,A3,102.0,667/1000,95,140.0
596,E4,102.0,0.625,95,140.0
597,C4,102.0,0.625,95,140.0
598,A3,102.0,0.625,95,140.0
599,B3,102.667,667/1000,95,140.0
600,B3,102.667,667/1000,95,140.0
601,E4,102.667,0.625,95,140.0
602,C4,102.667,0.625,95,140.0
603,A3,102.667,0.625,95,140.0
604,C4,103.333,667/1000,95,140.0
605,C4,103.333,667/1000,95,140.0
606,E4,103.333,0.625,95,140.0
607,C4,103.333,0.625,95,140.0
608,A3,103.333,0.625,95,140.0
609,F3,104.0,2.0,95,140.0
610,F3,104.0,2.0,95,140.0
611,C3,104.0,0.969,95,140.0
612,F3,104.0,0.969,95,140.0
613,A3,104.062,0.906,95,140.0
614,C4,104.062,0.906,95,140.0
615,F4,104.125,0.875,95,140.0
616,C3,105.0,0.453,95,140.0
617,F3,105.0,0.453,95,140.0
618,A3,105.0,0.453,95,140.0
619,C4,105.0,0.453,95,140.0
620,F4,105.5,0.969,95,140.0
621,C4,105.5,0.969,95,140.0
622,A3,105.562,0.938,95,140.0
623,F4,106.5,0.469,95,140.0
624,C4,106.5,0.469,95,140.0
625,A3,106.5,0.469,95,140.0
626,F4,107.5,0.469,95,140.0
627,C4,107.5,0.469,95,140.0
628,A3,107.5,0.469,95,140.0
629,D3,108.0,0.969,95,140.0
630,A3,108.0,0.969,95,140.0
631,D4,108.062,0.906,95,140.0
632,F4,108.062,0.906,95,140.0
633,D3,109.0,0.453,95,140.0
634,A3,109.0,0.453,95,140.0
635,D4,109.0,0.453,95,140.0
636,F4,109.0,0.453,95,140.0
637,F4,109.5,0.969,95,140.0
638,D4,109.5,0.969,95,140.0
639,A3,109.562,0.938,95,140.0
640,F4,110.5,0.469,95,140.0
641,D4,110.5,0.469,95,140.0
642,A3,110.5,0.469,95,140.0
643,D3,111.5,0.5,95,140.0
644,D3,111.5,0.5,95,140.0
645,F4,111.5,0.469,95,140.0
646,D4,111.5,0.469,95,140.0
647,A3,111.5,0.469,95,140.0
648,B3,112.0,2.5,95,140.0
649,B3,112.0,2.5,95,140.0
650,D3,112.0,0.969,95,140.0
651,B3,112.0,0.969,95,140.0
652,D4,112.062,0.906,95,140.0
653,G4,112.062,0.906,95,140.0
654,D3,113.0,0.453,95,140.0
655,B3,113.0,0.453,95,140.0
656,D4,113.0,0.453,95,140.0
657,G4,113.0,0.453,95,140.0
658,G4,113.5,0.969,95,140.0
659,D4,113.5,0.969,95,140.0
660,B3,113.562,0.938,95,140.0
661,A3,114.5,1.0,95,140.0
662,A3,114.5,1.0,95,140.0
663,G4,114.5,0.469,95,140.0
664,D4,114.5,0.469,95,140.0
665,B3,114.5,0.469,95,140.0
666,A3,115.5,0.5,95,140.0
667,A3,115.5,0.5,95,140.0
668,G4,115.5,0.469,95,140.0
669,D4,115.5,0.469,95,140.0
670,B3,115.5,0.469,95,140.0
671,G3,116.0,2.0,95,140.0
672,G3,116.0,2.0,95,140.0
673,D3,116.0,0.969,95,140.0
674,B3,116.0,0.969,95,140.0
675,D4,116.062,0.906,95,140.0
676,G4,116.062,0.906,95,140.0
677,D3,117.0,0.453,95,140.0
678,B3,117.0,0.453,95,140.0
679,D4,117.0,0.453,95,140.0
680,G4,117.0,0.453,95,140.0
681,G4,117.5,0.969,95,140.0
682,D4,117.5,0.969,95,140.0
683,B3,117.562,0.938,95,140.0
684,D3,118.0,667/1000,95,140.0
685,D3,118.0,667/1000,95,140.0
686,G4,118.5,0.469,95,140.0
687,D4,118.5,0.469,95,140.0
688,B3,118.5,0.469,95,140.0
689,E3,118.667,667/1000,95,140.0
690,E3,118.667,667/1000,95,140.0
691,F3,119.333,667/1000,95,140.0
692,F3,119.333,667/1000,95,140.0
693,G4,119.5,0.469,95,140.0
694,D4,119.5,0.469,95,140.0
695,B3,119.5,0.469,95,140.0
696,E3,120.0,4.0,95,140.0
697,E3,120.0,4.0,95,140.0
698,C3,120.0,0.969,95,140.0
699,E3,120.0,0.969,95,140.0
700,G3,120.062,0.906,95,140.0
701,C4,120.062,0.906,95,140.0
702,E4,120.125,0.875,95,140.0
703,C3,121.0,0.453,95,140.0
704,E3,121.0,0.453,95,140.0
705,G3,121.0,0.453,95,140.0
706,C4,121.0,0.453,95,140.0
707,E4,121.5,0.969,95,140.0
708,C4,121.5,0.969,95,140.0
709,G3,121.562,0.938,95,140.0
710,E4,122.5,0.469,95,140.0
711,C4,122.5,0.469,95,140.0
712,G3,122.5,0.469,95,140.0
713,E4,123.5,0.469,95,140.0
714,C4,123.5,0.469,95,140.0
715,G3,123.5,0.469,95,140.0
716,G3,124.0,0.5,95,140.0
717,C3,124.0,0.5,95,140.0
718,C3,124.0,0.969,95,140.0
719,E3,124.0,0.969,95,140.0
720,G3,124.062,0.906,95,140.0
721,C4,124.062,0.906,95,140.0
722,E4,124.125,0.875,95,140.0
723,G3,124.5,0.5,95,140.0
724,C3,124.5,0.5,95,140.0
725,G3,125.0,0.5,95,140.0
726,C3,125.0,0.5,95,140.0
727,C3,125.0,0.453,95,140.0
728,E3,125.0,0.453,95,140.0
729,G3,125.0,0.453,95,140.0
730,C4,125.0,0.453,95,140.0
731,E3,125.5,0.5,127,140.0
732,E3,125.5,0.5,127,140.0
733,G3,125.5,0.5,95,140.0
734,C3,125.5,0.5,95,140.0
735,E4,125.5,0.969,95,140.0
736,C4,125.5,0.969,95,140.0
737,G3,125.562,0.938,95,140.0
738,E-3,126.0,1.0,95,140.0
739,E-3,126.0,1.0,95,140.0
740,G3,126.0,0.5,95,140.0
741,C3,126.0,0.5,95,140.0
742,G3,126.5,0.5,95,140.0
743,C3,126.5,0.5,95,140.0
744,E4,126.5,0.469,95,140.0
745,C4,126.5,0.469,95,140.0
746,G3,126.5,0.469,95,140.0
747,E-3,127.0,0.5,127,140.0
748,E-3,127.0,0.5,127,140.0
749,G3,127.0,0.5,95,140.0
750,C3,127.0,0.5,95,140.0
751,E3,127.5,0.5,95,140.0
752,E3,127.5,0.5,95,140.0
753,G3,127.5,0.5,95,140.0
754,C3,127.5,0.5,95,140.0
755,E4,127.5,0.469,95,140.0
756,C4,127.5,0.469,95,140.0
757,G3,127.5,0.469,95,140.0
758,E3,128.0,0.5,95,140.0
759,E3,128.0,0.5,95,140.0
760,E2,128.0,4.0,95,140.0
761,B2,128.0,4.0,95,140.0
762,E3,128.0,4.0,95,140.0
763,E2,128.0,0.969,111,140.0
764,B2,128.0,0.969,111,140.0
765,E3,128.062,0.906,95,140.0
766,G3,128.062,0.906,95,140.0
767,B3,128.125,0.844,95,140.0
768,E4,128.125,0.844,95,140.0
769,G#3,128.5,3.5,127,140.0
770,G#3,128.5,3.5,127,140.0
771,B2,129.0,0.453,95,140.0
772,E3,129.0,0.453,95,140.0
773,G3,129.0,0.453,95,140.0
774,B3,129.0,0.453,95,140.0
775,E4,129.5,0.969,95,140.0
776,B3,129.5,0.969,95,140.0
777,G3,129.562,0.938,95,140.0
778,E4,130.5,0.469,95,140.0
779,B3,130.5,0.469,95,140.0
780,G3,130.5,0.469,95,140.0
781,E4,131.5,0.469,95,140.0
782,B3,131.5,0.469,95,140.0
783,G3,131.5,0.469,95,140.0
784,E3,132.0,1.0,95,140.0
785,E3,132.0,1.0,95,140.0
786,E2,132.0,0.969,111,140.0
787,B2,132.0,0.969,111,140.0
788,E3,132.062,0.906,95,140.0
789,G3,132.062,0.906,95,140.0
790,B3,132.125,0.844,95,140.0
791,E4,132.125,0.844,95,140.0
792,G#3,133.0,0.5,95,140.0
793,G#3,133.0,0.5,95,140.0
794,B2,133.0,0.453,95,140.0
795,E3,133.0,0.453,95,140.0
796,G3,133.0,0.453,95,140.0
797,B3,133.0,0.453,95,140.0
798,B3,133.5,1.0,95,140.0
799,B3,133.5,1.0,95,140.0
800,E4,133.5,0.969,95,140.0
801,B3,133.5,0.969,95,140.0
802,G3,133.562,0.938,95,140.0
803,D4,134.5,1.0,95,140.0
804,D4,134.5,1.0,95,140.0
805,E4,134.5,0.469,95,140.0
806,B3,134.5,0.469,95,140.0
807,G3,134.5,0.469,95,140.0
808,E2,134.983,2983/1000,95,140.0
809,B2,134.983,2983/1000,95,140.0
810,E3,134.983,2983/1000,95,140.0
811,E4,135.5,0.5,95,140.0
812,E4,135.5,0.5,95,140.0
813,E4,135.5,0.469,95,140.0
814,B3,135.5,0.469,95,140.0
815,G3,135.5,0.469,95,140.0
816,C4,136.0,1.0,127,140.0
817,C4,136.0,1.0,127,140.0
818,A2,136.0,0.969,95,140.0
819,E3,136.0,0.969,95,140.0
820,A3,136.062,0.906,95,140.0
821,C4,136.062,0.906,95,140.0
822,E4,136.125,0.875,95,140.0
823,D4,137.0,0.5,102,140.0
824,D4,137.0,0.5,102,140.0
825,A2,137.0,0.453,95,140.0
826,E3,137.0,0.453,95,140.0
827,A3,137.0,0.453,95,140.0
828,C4,137.0,0.453,95,140.0
829,C4,137.5,0.5,127,140.0
830,C4,137.5,0.5,127,140.0
831,E4,137.5,0.969,95,140.0
832,C4,137.5,0.969,95,140.0
833,A3,137.562,0.938,95,140.0
834,A2,137.983,0.5,95,140.0
835,A2,137.983,0.5,95,140.0
836,C4,138.0,2.0,95,140.0
837,C4,138.0,2.0,95,140.0
838,A2,138.483,0.5,95,140.0
839,A2,138.483,0.5,95,140.0
840,E4,138.5,0.469,95,140.0
841,C4,138.5,0.469,95,140.0
842,A3,138.5,0.469,95,140.0
843,A2,138.983,4.0,95,140.0
844,E3,138.983,4.0,95,140.0
845,A3,139.0,3983/1000,95,140.0
846,E4,139.5,0.469,95,140.0
847,C4,139.5,0.469,95,140.0
848,A3,139.5,0.469,95,140.0
849,C4,140.0,3.0,95,140.0
850,C4,140.0,3.0,95,140.0
851,A2,140.0,0.969,95,140.0
852,E3,140.0,0.969,95,140.0
853,A3,140.062,0.906,95,140.0
854,C4,140.062,0.906,95,140.0
855,E4,140.125,0.875,95,140.0
856,A2,141.0,0.453,95,140.0
857,E3,141.0,0.453,95,140.0
858,A3,141.0,0.453,95,140.0
859,C4,141.0,0.453,95,140.0
860,E4,141.5,0.969,95,140.0
861,C4,141.5,0.969,95,140.0
862,A3,141.562,0.938,95,140.0
863,E4,142.5,0.469,95,140.0
864,C4,142.5,0.469,95,140.0
865,A3,142.5,0.469,95,140.0
866,A3,143.0,0.5,127,140.0
867,A3,143.0,0.5,127,140.0
868,A2,143.225,121/500,95,140.0
869,E3,143.225,121/500,95,140.0
870,C4,143.5,0.5,127,140.0
871,C4,143.5,0.5,127,140.0
872,E4,143.5,0.469,95,140.0
873,C4,143.5,0.469,95,140.0
874,A3,143.5,0.469,95,140.0
875,A3,143.725,0.5,95,140.0
876,E3,143.725,0.5,95,140.0
877,A2,143.725,0.5,95,140.0
878,D4,144.0,0.5,127,140.0
879,D4,144.0,0.5,127,140.0
880,C3,144.0,0.453,95,140.0
881,F3,144.0,0.453,95,140.0
882,A3,144.0,0.453,95,140.0
883,C4,144.0,0.453,95,140.0
884,F4,144.062,0.438,95,140.0
885,F4,144.5,0.5,127,140.0
886,F4,144.5,0.5,127,140.0
887,C4,144.5,19/40,95,140.0
888,A3,144.5,19/40,95,140.0
889,F3,144.5,19/40,95,140.0
890,C3,144.5,19/40,95,140.0
891,A3,145.225,1.5,95,140.0
892,E3,145.225,1.5,95,140.0
893,A2,145.225,1.5,95,140.0
894,F4,146.0,0.5,127,140.0
895,F4,146.0,0.5,127,140.0
896,B2,146.0,19/40,111,140.0
897,D3,146.0,19/40,111,140.0
898,G3,146.0,19/40,111,140.0
899,D4,146.0,19/40,111,140.0
900,G4,146.5,0.5,127,140.0
901,G4,146.5,0.5,127,140.0
902,G4,146.5,0.453,103,140.0
903,D4,146.5,0.453,103,140.0
904,G3,146.5,0.453,103,140.0
905,D3,146.5,0.453,103,140.0
906,F3,147.225,0.5,95,140.0
907,C3,147.225,0.5,95,140.0
908,F2,147.225,0.5,95,140.0
909,F3,147.725,0.5,95,140.0
910,C3,147.725,0.5,95,140.0
911,F2,147.725,0.5,95,140.0
912,D4,148.0,667/1000,127,140.0
913,D4,148.0,667/1000,127,140.0
914,C3,148.0,0.969,95,140.0
915,E3,148.0,0.969,95,140.0
916,G3,148.062,0.906,95,140.0
917,C4,148.062,0.906,95,140.0
918,E4,148.125,0.875,95,140.0
919,E4,148.667,667/1000,127,140.0
920,E4,148.667,667/1000,127,140.0
921,C3,149.0,0.453,95,140.0
922,E3,149.0,0.453,95,140.0
923,G3,149.0,0.453,95,140.0
924,C4,149.0,0.453,95,140.0
925,G3,149.225,0.5,95,140.0
926,D3,149.225,0.5,95,140.0
927,G2,149.225,0.5,95,140.0
928,E4,149.333,1667/1000,127,140.0
929,E4,149.333,1667/1000,127,140.0
930,E4,149.5,0.969,95,140.0
931,C4,149.5,0.969,95,140.0
932,G3,149.562,0.938,95,140.0
933,G3,149.725,0.5,95,140.0
934,D3,149.725,0.5,95,140.0
935,G2,149.725,0.5,95,140.0
936,E4,150.5,0.469,95,140.0
937,C4,150.5,0.469,95,140.0
938,G3,150.5,0.469,95,140.0
939,A3,151.0,0.5,127,140.0
940,A3,151.0,0.5,127,140.0
941,C4,151.225,4.0,95,140.0
942,G3,151.225,4.0,95,140.0
943,C3,151.225,4.0,95,140.0
944,G2,151.225,4.0,95,140.0
945,C4,151.5,0.5,127,140.0
946,C4,151.5,0.5,127,140.0
947,E4,151.5,0.469,95,140.0
948,C4,151.5,0.469,95,140.0
949,G3,151.5,0.469,95,140.0
950,D4,152.0,0.5,127,140.0
951,D4,152.0,0.5,127,140.0
952,C3,152.0,0.453,95,140.0
953,F3,152.0,0.453,95,140.0
954,A3,152.0,0.453,95,140.0
955,C4,152.0,0.453,95,140.0
956,F4,152.062,0.438,95,140.0
957,F4,152.5,0.5,127,140.0
958,F4,152.5,0.5,127,140.0
959,C4,152.5,19/40,95,140.0
960,A3,152.5,19/40,95,140.0
961,F3,152.5,19/40,95,140.0
962,C3,152.5,19/40,95,140.0
963,F4,154.0,0.5,127,140.0
964,F4,154.0,0.5,127,140.0
965,B2,154.0,19/40,111,140.0
966,D3,154.0,19/40,111,140.0
967,G3,154.0,19/40,111,140.0
968,D4,154.0,19/40,111,140.0
969,G4,154.5,0.5,127,140.0
970,G4,154.5,0.5,127,140.0
971,G4,154.5,0.453,103,140.0
972,D4,154.5,0.453,103,140.0
973,G3,154.5,0.453,103,140.0
974,D3,154.5,0.453,103,140.0
975,F2,155.225,73/500,95,140.0
976,F3,155.225,0.5,95,140.0
977,C3,155.225,0.5,95,140.0
978,F2,155.725,73/500,95,140.0
979,F3,155.725,0.5,95,140.0
980,C3,155.725,0.5,95,140.0
981,D4,156.0,667/1000,127,140.0
982,D4,156.0,667/1000,127,140.0
983,C3,156.0,0.969,95,140.0
984,E3,156.0,0.969,95,140.0
985,G3,156.062,0.906,95,140.0
986,C4,156.062,0.906,95,140.0
987,E4,156.125,0.875,95,140.0
988,E4,156.667,667/1000,127,140.0
989,E4,156.667,667/1000,127,140.0
990,C3,157.0,0.453,95,140.0
991,E3,157.0,0.453,95,140.0
992,G3,157.0,0.453,95,140.0
993,C4,157.0,0.453,95,140.0
994,G2,157.225,73/500,95,140.0
995,G3,157.225,0.5,95,140.0
996,D3,157.225,0.5,95,140.0
997,E4,157.333,1667/1000,127,140.0
998,E4,157.333,1667/1000,127,140.0
999,E4,157.5,0.969,95,140.0
1000,C4,157.5,0.969,95,140.0
1001,G3,157.562,0.938,95,140.0
1002,G2,157.725,73/500,95,140.0
1003,G3,157.725,0.5,95,140.0
1004,D3,157.725,0.5,95,140.0
1005,E4,158.5,0.469,95,140.0
1006,C4,158.5,0.469,95,140.0
1007,G3,158.5,0.469,95,140.0
1008,E3,159.0,0.5,127,140.0
1009,E3,159.0,0.5,127,140.0
1010,C4,159.225,4.0,95,140.0
1011,G3,159.225,4.0,95,140.0
1012,C3,159.225,4.0,95,140.0
1013,G2,159.225,4.0,95,140.0
1014,E3,159.5,0.5,127,140.0
1015,E3,159.5,0.5,127,140.0
1016,E4,159.5,0.469,95,140.0
1017,C4,159.5,0.469,95,140.0
1018,G3,159.5,0.469,95,140.0
1019,B3,160.0,2.0,127,140.0
1020,B3,160.0,2.0,127,140.0
1021,E2,160.0,0.969,111,140.0
1022,B2,160.0,0.969,111,140.0
1023,E3,160.062,0.906,95,140.0
1024,G3,160.062,0.906,95,140.0
1025,B3,160.125,0.844,95,140.0
1026,E4,160.125,0.844,95,140.0
1027,B2,161.0,0.453,95,140.0
1028,E3,161.0,0.453,95,140.0
1029,G3,161.0,0.453,95,140.0
1030,B3,161.0,0.453,95,140.0
1031,E4,161.5,0.969,95,140.0
1032,B3,161.5,0.969,95,140.0
1033,G3,161.562,0.938,95,140.0
1034,B3,162.0,0.5,127,140.0
1035,B3,162.0,0.5,127,140.0
1036,A3,162.5,1.0,127,140.0
1037,A3,162.5,1.0,127,140.0
1038,E4,162.5,0.469,95,140.0
1039,B3,162.5,0.469,95,140.0
1040,G3,162.5,0.469,95,140.0
1041,E2,163.225,73/500,95,140.0
1042,E3,163.225,0.5,95,140.0
1043,B2,163.225,0.5,95,140.0
1044,A3,163.5,0.5,127,140.0
1045,A3,163.5,0.5,127,140.0
1046,E4,163.5,0.469,95,140.0
1047,B3,163.5,0.469,95,140.0
1048,G3,163.5,0.469,95,140.0
1049,E2,163.725,73/500,95,140.0
1050,E3,163.725,0.5,95,140.0
1051,B2,163.725,0.5,95,140.0
1052,G3,164.0,1.0,95,140.0
1053,G3,164.0,1.0,95,140.0
1054,G2,164.0,0.969,95,140.0
1055,B2,164.0,0.969,95,140.0
1056,D3,164.062,0.906,95,140.0
1057,G3,164.062,0.906,95,140.0
1058,D4,164.125,0.844,95,140.0
1059,G4,164.125,0.844,95,140.0
1060,E2,164.225,73/500,95,140.0
1061,E3,164.225,0.5,95,140.0
1062,B2,164.225,0.5,95,140.0
1063,E2,164.725,73/500,95,140.0
1064,E3,164.725,0.5,95,140.0
1065,B2,164.725,0.5,95,140.0
1066,G3,165.0,1.0,95,140.0
1067,G3,165.0,1.0,95,140.0
1068,B2,165.0,0.453,95,140.0
1069,D3,165.0,0.453,95,140.0
1070,G3,165.0,0.453,95,140.0
1071,D4,165.0,0.453,95,140.0
1072,E2,165.225,73/500,95,140.0
1073,E3,165.225,0.5,95,140.0
1074,B2,165.225,0.5,95,140.0
1075,G4,165.5,0.969,95,140.0
1076,D4,165.5,0.969,95,140.0
1077,G3,165.562,0.938,95,140.0
1078,E2,165.725,73/500,95,140.0
1079,E3,165.725,0.5,95,140.0
1080,B2,165.725,0.5,95,140.0
1081,D3,166.0,667/1000,95,140.0
1082,D3,166.0,667/1000,95,140.0
1083,E2,166.225,73/500,95,140.0
1084,E3,166.225,0.5,95,140.0
1085,B2,166.225,0.5,95,140.0
1086,G4,166.5,0.469,95,140.0
1087,C4,166.5,0.469,95,140.0
1088,G3,166.5,0.469,95,140.0
1089,E3,166.667,667/1000,95,140.0
1090,E3,166.667,667/1000,95,140.0
1091,E2,166.725,73/500,95,140.0
1092,E3,166.725,0.5,95,140.0
1093,B2,166.725,0.5,95,140.0
1094,G2,167.225,73/500,95,140.0
1095,G3,167.225,0.5,95,140.0
1096,D3,167.225,0.5,95,140.0
1097,F3,167.333,667/1000,95,140.0
1098,F3,167.333,667/1000,95,140.0
1099,G4,167.5,0.469,95,140.0
1100,D4,167.5,0.469,95,140.0
1101,G3,167.5,0.469,95,140.0
1102,G2,167.725,73/500,95,140.0
1103,G3,167.725,0.5,95,140.0
1104,D3,167.725,0.5,95,140.0
1105,E3,168.0,4.0,127,140.0
1106,E3,168.0,4.0,127,140.0
1107,C3,168.0,0.969,95,140.0
1108,E3,168.0,0.969,95,140.0
1109,G3,168.062,0.906,95,140.0
1110,C4,168.062,0.906,95,140.0
1111,E4,168.125,0.875,95,140.0
1112,G2,168.225,73/500,95,140.0
1113,G3,168.225,0.5,95,140.0
1114,D3,168.225,0.5,95,140.0
1115,G2,168.725,73/500,95,140.0
1116,G3,168.725,0.5,95,140.0
1117,D3,168.725,0.5,95,140.0
1118,C3,169.0,0.453,95,140.0
1119,E3,169.0,0.453,95,140.0
1120,G3,169.0,0.453,95,140.0
1121,C4,169.0,0.453,95,140.0
1122,G2,169.225,73/500,95,140.0
1123,G3,169.225,0.5,95,140.0
1124,D3,169.225,0.5,95,140.0
1125,E4,169.5,0.969,95,140.0
1126,C4,169.5,0.969,95,140.0
1127,G3,169.562,0.938,95,140.0
1128,G2,169.725,73/500,95,140.0
1129,G3,169.725,0.5,95,140.0
1130,D3,169.725,0.5,95,140.0
1131,G2,170.225,73/500,95,140.0
1132,G3,170.225,0.5,95,140.0
1133,D3,170.225,0.5,95,140.0
1134,E4,170.5,0.469,95,140.0
1135,C4,170.5,0.469,95,140.0
1136,G3,170.5,0.469,95,140.0
1137,G2,170.725,73/500,95,140.0
1138,G3,170.725,0.5,95,140.0
1139,D3,170.725,0.5,95,140.0
1140,E4,171.5,0.469,95,140.0
1141,C4,171.5,0.469,95,140.0
1142,G3,171.5,0.469,95,140.0
1143,G4,171.725,0.5,95,140.0
1144,E4,171.725,0.5,95,140.0
1145,C4,171.725,0.5,95,140.0
1146,C3,172.0,0.969,95,140.0
1147,E3,172.0,0.969,95,140.0
1148,G3,172.062,0.906,95,140.0
1149,C4,172.062,0.906,95,140.0
1150,E4,172.125,0.875,95,140.0
1151,F4,172.225,0.5,95,140.0
1152,C4,172.225,0.5,95,140.0
1153,E4,172.725,0.5,95,140.0
1154,C4,172.725,0.5,95,140.0
1155,C3,173.0,0.453,95,140.0
1156,E3,173.0,0.453,95,140.0
1157,G3,173.0,0.453,95,140.0
1158,C4,173.0,0.453,95,140.0
1159,G4,173.225,0.5,95,140.0
1160,F4,173.225,0.5,95,140.0
1161,C4,173.225,0.5,95,140.0
1162,E4,173.5,0.969,95,140.0
1163,C4,173.5,0.969,95,140.0
1164,G3,173.562,0.938,95,140.0
1165,E4,174.5,0.469,95,140.0
1166,C4,174.5,0.469,95,140.0
1167,G3,174.5,0.469,95,140.0
1168,G4,174.725,0.5,95,140.0
1169,E4,174.725,0.5,95,140.0
1170,C4,174.725,0.5,95,140.0
1171,E4,175.5,0.469,95,140.0
1172,C4,175.5,0.469,95,140.0
1173,G3,175.5,0.469,95,140.0
1174,G4,175.725,0.5,95,140.0
1175,E4,175.725,0.5,95,140.0
1176,C4,175.725,0.5,95,140.0
1177,C3,176.0,1.0,95,140.0
1178,C4,176.0,0.5,95,140.0
1179,C4,176.0,0.5,95,140.0
1180,E3,176.062,0.938,95,140.0
1181,G3,176.125,0.875,95,140.0
1182,C4,176.188,0.812,95,140.0
1183,E4,176.25,0.75,95,140.0
1184,C4,176.5,0.5,95,140.0
1185,C4,176.5,0.5,95,140.0
1186,G4,176.725,0.5,95,140.0
1187,E4,176.725,0.5,95,140.0
1188,C4,176.725,0.5,95,140.0
1189,C4,177.0,0.5,95,140.0
1190,C4,177.0,0.5,95,140.0
1191,C3,177.0,0.469,95,140.0
1192,E3,177.0,0.469,95,140.0
1193,G3,177.0,0.469,95,140.0
1194,C4,177.5,0.5,95,140.0
1195,C4,177.5,0.5,95,140.0
1196,E4,177.5,0.469,95,140.0
1197,C4,177.5,0.469,95,140.0
1198,G3,177.5,0.469,95,140.0
1199,G4,177.725,1.0,95,140.0
1200,E4,177.725,1.5,95,140.0
1201,C4,177.725,1.5,95,140.0
1202,B2,178.0,1.0,95,140.0
1203,B3,178.0,1.0,95,140.0
1204,B3,178.0,1.0,95,140.0
1205,E3,178.062,0.938,95,140.0
1206,G3,178.125,0.875,95,140.0
1207,B3,178.188,0.812,95,140.0
1208,B3,179.0,0.5,95,140.0
1209,B3,179.0,0.5,95,140.0
1210,E4,179.0,0.469,95,140.0
1211,B3,179.0,0.469,95,140.0
1212,G3,179.0,0.469,95,140.0
1213,G3,179.225,2.0,95,140.0
1214,C3,179.225,2.0,95,140.0
1215,B3,179.5,0.5,95,140.0
1216,B3,179.5,0.5,95,140.0
1217,E4,179.5,0.469,95,140.0
1218,B3,179.5,0.469,95,140.0
1219,G3,179.5,0.469,95,140.0
1220,A3,180.0,0.5,95,140.0
1221,A3,180.0,0.5,95,140.0
1222,A2,180.0,0.969,95,140.0
1223,E3,180.0,0.969,95,140.0
1224,A3,180.062,0.906,95,140.0
1225,C4,180.062,0.906,95,140.0
1226,E4,180.125,0.875,95,140.0
1227,A3,180.5,0.5,95,140.0
1228,A3,180.5,0.5,95,140.0
1229,A3,181.0,0.5,95,140.0
1230,A3,181.0,0.5,95,140.0
1231,A2,181.0,0.453,95,140.0
1232,E3,181.0,0.453,95,140.0
1233,A3,181.0,0.453,95,140.0
1234,C4,181.0,0.453,95,140.0
1235,B2,181.225,2.0,95,140.0
1236,E2,181.225,2.0,95,140.0
1237,A3,181.5,0.5,95,140.0
1238,A3,181.5,0.5,95,140.0
1239,E4,181.5,0.469,95,140.0
1240,C4,181.5,0.469,95,140.0
1241,A3,181.5,0.469,95,140.0
1242,A3,182.0,667/1000,95,140.0
1243,A3,182.0,667/1000,95,140.0
1244,E4,182.0,0.625,95,140.0
1245,C4,182.0,0.625,95,140.0
1246,A3,182.0,0.625,95,140.0
1247,B3,182.667,667/1000,95,140.0
1248,B3,182.667,667/1000,95,140.0
1249,E4,182.667,0.625,95,140.0
1250,C4,182.667,0.625,95,140.0
1251,A3,182.667,0.625,95,140.0
1252,E3,183.225,4.0,95,140.0
1253,A2,183.225,4.0,95,140.0
1254,C4,183.333,667/1000,95,140.0
1255,C4,183.333,667/1000,95,140.0
1256,E4,183.333,0.625,95,140.0
1257,C4,183.333,0.625,95,140.0
1258,A3,183.333,0.625,95,140.0
1259,F3,184.0,4.0,95,140.0
1260,F3,184.0,4.0,95,140.0
1261,C3,184.0,0.969,95,140.0
1262,F3,184.0,0.969,95,140.0
1263,A3,184.062,0.906,95,140.0
1264,C4,184.062,0.906,95,140.0
1265,F4,184.125,0.875,95,140.0
1266,C3,185.0,0.453,95,140.0
1267,F3,185.0,0.453,95,140.0
1268,A3,185.0,0.453,95,140.0
1269,C4,185.0,0.453,95,140.0
1270,F4,185.5,0.969,95,140.0
1271,C4,185.5,0.969,95,140.0
1272,A3,185.562,0.938,95,140.0
1273,F4,186.5,0.469,95,140.0
1274,C4,186.5,0.469,95,140.0
1275,A3,186.5,0.469,95,140.0
1276,C3,187.225,3.0,95,140.0
1277,F2,187.225,3.0,95,140.0
1278,F4,187.5,0.469,95,140.0
1279,C4,187.5,0.469,95,140.0
1280,A3,187.5,0.469,95,140.0
1281,D3,188.0,0.969,95,140.0
1282,A3,188.0,0.969,95,140.0
1283,D4,188.062,0.906,95,140.0
1284,F4,188.062,0.906,95,140.0
1285,D3,189.0,0.453,95,140.0
1286,A3,189.0,0.453,95,140.0
1287,D4,189.0,0.453,95,140.0
1288,F4,189.0,0.453,95,140.0
1289,F4,189.5,0.969,95,140.0
1290,D4,189.5,0.969,95,140.0
1291,A3,189.562,0.938,95,140.0
1292,C4,190.225,0.5,95,140.0
1293,F3,190.225,0.5,95,140.0
1294,F4,190.5,0.469,95,140.0
1295,D4,190.5,0.469,95,140.0
1296,A3,190.5,0.469,95,140.0
1297,B3,190.725,0.5,95,140.0
1298,E3,190.725,0.5,95,140.0
1299,A3,191.225,1.5,95,140.0
1300,D3,191.225,1.5,95,140.0
1301,D3,191.5,0.5,95,140.0
1302,D3,191.5,0.5,95,140.0
1303,F4,191.5,0.469,95,140.0
1304,D4,191.5,0.469,95,140.0
1305,A3,191.5,0.469,95,140.0
1306,B3,192.0,2.5,95,140.0
1307,B3,192.0,2.5,95,140.0
1308,D3,192.0,0.969,95,140.0
1309,B3,192.0,0.969,95,140.0
1310,D4,192.062,0.906,95,140.0
1311,G4,192.062,0.906,95,140.0
1312,F4,192.725,1.0,95,140.0
1313,D3,193.0,0.453,95,140.0
1314,B3,193.0,0.453,95,140.0
1315,D4,193.0,0.453,95,140.0
1316,G4,193.0,0.453,95,140.0
1317,G4,193.5,0.969,95,140.0
1318,D4,193.5,0.969,95,140.0
1319,B3,193.562,0.938,95,140.0
1320,E4,193.725,0.125,95,140.0
1321,F4,193.85,0.125,70,140.0
1322,E4,193.975,0.125,70,140.0
1323,D4,194.1,0.125,95,140.0
1324,E4,194.225,0.5,70,140.0
1325,A3,194.5,1.0,95,140.0
1326,A3,194.5,1.0,95,140.0
1327,G4,194.5,0.469,95,140.0
1328,D4,194.5,0.469,95,140.0
1329,B3,194.5,0.469,95,140.0
1330,D4,194.725,0.5,70,140.0
1331,D3,195.225,0.5,95,140.0
1332,G2,195.225,0.5,95,140.0
1333,A3,195.5,0.5,95,140.0
1334,A3,195.5,0.5,95,140.0
1335,G4,195.5,0.469,95,140.0
1336,D4,195.5,0.469,95,140.0
1337,B3,195.5,0.469,95,140.0
1338,D3,195.725,0.5,95,140.0
1339,G2,195.725,0.5,95,140.0
1340,G3,196.0,2.0,95,140.0
1341,G3,196.0,2.0,95,140.0
1342,D3,196.0,0.969,95,140.0
1343,B3,196.0,0.969,95,140.0
1344,D4,196.062,0.906,95,140.0
1345,G4,196.062,0.906,95,140.0
1346,D4,196.225,3.0,95,140.0
1347,G3,196.225,3.0,95,140.0
1348,D3,197.0,0.453,95,140.0
1349,B3,197.0,0.453,95,140.0
1350,D4,197.0,0.453,95,140.0
1351,G4,197.0,0.453,95,140.0
1352,G4,197.5,0.969,95,140.0
1353,D4,197.5,0.969,95,140.0
1354,B3,197.562,0.938,95,140.0
1355,D3,198.0,667/1000,95,140.0
1356,D3,198.0,667/1000,95,140.0
1357,G4,198.5,0.469,95,140.0
1358,D4,198.5,0.469,95,140.0
1359,B3,198.5,0.469,95,140.0
1360,E3,198.667,667/1000,95,140.0
1361,E3,198.667,667/1000,95,140.0
1362,C3,199.225,0.5,95,140.0
1363,F2,199.225,0.5,95,140.0
1364,F3,199.333,667/1000,95,140.0
1365,F3,199.333,667/1000,95,140.0
1366,G4,199.5,0.469,95,140.0
1367,D4,199.5,0.469,95,140.0
1368,B3,199.5,0.469,95,140.0
1369,C3,199.725,0.5,95,140.0
1370,F2,199.725,0.5,95,140.0
1371,E3,200.0,4.0,95,140.0
1372,E3,200.0,4.0,95,140.0
1373,C3,200.0,0.969,95,140.0
1374,E3,200.0,0.969,95,140.0
1375,G3,200.062,0.906,95,140.0
1376,C4,200.062,0.906,95,140.0
1377,E4,200.125,0.875,95,140.0
1378,C4,200.225,3.0,95,140.0
1379,F3,200.225,3.0,95,140.0
1380,C3,201.0,0.453,95,140.0
1381,E3,201.0,0.453,95,140.0
1382,G3,201.0,0.453,95,140.0
1383,C4,201.0,0.453,95,140.0
1384,E4,201.5,0.969,95,140.0
1385,C4,201.5,0.969,95,140.0
1386,G3,201.562,0.938,95,140.0
1387,E4,202.5,0.469,95,140.0
1388,C4,202.5,0.469,95,140.0
1389,G3,202.5,0.469,95,140.0
1390,E4,203.5,0.469,95,140.0
1391,C4,203.5,0.469,95,140.0
1392,G3,203.5,0.469,95,140.0
1393,E4,203.725,0.5,82,140.0
1394,C4,203.725,0.5,82,140.0
1395,C3,204.0,0.969,95,140.0
1396,E3,204.0,0.969,95,140.0
1397,G3,204.062,0.906,95,140.0
1398,C4,204.062,0.906,95,140.0
1399,E4,204.125,0.875,95,140.0
1400,F4,204.225,0.5,95,140.0
1401,C4,204.225,0.5,95,140.0
1402,E4,204.725,0.5,95,140.0
1403,C4,204.725,0.5,95,140.0
1404,C3,205.0,0.453,95,140.0
1405,E3,205.0,0.453,95,140.0
1406,G3,205.0,0.453,95,140.0
1407,C4,205.0,0.453,95,140.0
1408,F4,205.225,0.5,95,140.0
1409,C4,205.225,0.5,95,140.0
1410,E4,205.5,0.969,95,140.0
1411,C4,205.5,0.969,95,140.0
1412,G3,205.562,0.938,95,140.0
1413,G4,205.725,0.5,95,140.0
1414,E4,205.725,0.5,95,140.0
1415,C4,205.725,0.5,95,140.0
1416,E4,206.5,0.469,95,140.0
1417,C4,206.5,0.469,95,140.0
1418,G3,206.5,0.469,95,140.0
1419,G4,206.725,0.5,95,140.0
1420,E4,206.725,0.5,95,140.0
1421,C4,206.725,0.5,95,140.0
1422,E4,207.5,0.469,95,140.0
1423,C4,207.5,0.469,95,140.0
1424,G3,207.5,0.469,95,140.0
1425,G4,207.725,0.5,95,140.0
1426,E4,207.725,0.5,95,140.0
1427,C4,207.725,0.5,95,140.0
1428,C3,208.0,1.0,95,140.0
1429,C3,208.0,0.5,95,140.0
1430,C3,208.0,0.5,95,140.0
1431,E3,208.062,0.938,95,140.0
1432,G3,208.125,0.875,95,140.0
1433,C4,208.188,0.812,95,140.0
1434,E4,208.25,0.75,95,140.0
1435,C3,208.5,0.5,95,140.0
1436,C3,208.5,0.5,95,140.0
1437,G4,208.725,0.5,95,140.0
1438,E4,208.725,0.5,95,140.0
1439,C4,208.725,0.5,95,140.0
1440,C3,209.0,0.5,95,140.0
1441,C3,209.0,0.5,95,140.0
1442,C3,209.0,0.469,95,140.0
1443,E3,209.0,0.469,95,140.0
1444,G3,209.0,0.469,95,140.0
1445,C3,209.5,0.5,95,140.0
1446,C3,209.5,0.5,95,140.0
1447,E4,209.5,0.469,95,140.0
1448,C4,209.5,0.469,95,140.0
1449,G3,209.5,0.469,95,140.0
1450,G4,209.725,0.5,95,140.0
1451,E4,209.725,0.5,95,140.0
1452,C4,209.725,0.5,95,140.0
1453,B2,210.0,1.0,95,140.0
1454,E3,210.0,0.5,95,140.0
1455,E3,210.0,0.5,95,140.0
1456,E3,210.062,0.938,95,140.0
1457,G3,210.125,0.875,95,140.0
1458,B3,210.188,0.812,95,140.0
1459,E3,210.5,0.5,95,140.0
1460,E3,210.5,0.5,95,140.0
1461,D4,210.725,0.25,95,140.0
1462,E4,210.975,0.25,95,140.0
1463,E3,211.0,0.5,95,140.0
1464,E3,211.0,0.5,95,140.0
1465,E4,211.0,0.469,95,140.0
1466,B3,211.0,0.469,95,140.0
1467,G3,211.0,0.469,95,140.0
1468,C5,211.225,0.5,95,140.0
1469,E3,211.5,0.5,95,140.0
1470,E3,211.5,0.5,95,140.0
1471,E4,211.5,0.469,95,140.0
1472,B3,211.5,0.469,95,140.0
1473,G3,211.5,0.469,95,140.0
1474,E4,211.725,0.5,95,140.0
1475,A2,212.0,0.5,95,140.0
1476,A2,212.0,0.5,95,140.0
1477,A2,212.0,0.969,95,140.0
1478,E3,212.0,0.969,95,140.0
1479,A3,212.062,0.906,95,140.0
1480,C4,212.062,0.906,95,140.0
1481,E4,212.125,0.875,95,140.0
1482,C5,212.225,0.5,95,140.0
1483,A2,212.5,0.5,95,140.0
1484,A2,212.5,0.5,95,140.0
1485,B4,212.725,0.5,95,140.0
1486,D4,212.725,0.5,95,140.0
1487,A2,213.0,0.5,95,140.0
1488,A2,213.0,0.5,95,140.0
1489,A2,213.0,0.453,95,140.0
1490,E3,213.0,0.453,95,140.0
1491,A3,213.0,0.453,95,140.0
1492,C4,213.0,0.453,95,140.0
1493,A2,213.5,0.5,95,140.0
1494,A2,213.5,0.5,95,140.0
1495,E4,213.5,0.469,95,140.0
1496,C4,213.5,0.469,95,140.0
1497,A3,213.5,0.469,95,140.0
1498,A4,213.725,0.5,95,140.0
1499,C4,213.725,0.5,95,140.0
1500,A2,214.0,0.5,95,140.0
1501,A2,214.0,0.5,95,140.0
1502,E4,214.0,0.625,95,140.0
1503,C4,214.0,0.625,95,140.0
1504,A3,214.0,0.625,95,140.0
1505,A2,214.5,0.5,95,140.0
1506,A2,214.5,0.5,95,140.0
1507,E4,214.667,0.625,95,140.0
1508,C4,214.667,0.625,95,140.0
1509,A3,214.667,0.625,95,140.0
1510,G4,214.725,0.5,95,140.0
1511,B3,214.725,0.5,95,140.0
1512,A2,215.0,0.5,95,140.0
1513,A2,215.0,0.5,95,140.0
1514,A4,215.225,2.0,95,140.0
1515,C4,215.225,2.0,95,140.0
1516,E4,215.333,0.625,95,140.0
1517,C4,215.333,0.625,95,140.0
1518,A3,215.333,0.625,95,140.0
1519,A2,215.5,0.5,95,140.0
1520,A2,215.5,0.5,95,140.0
1521,F3,216.0,0.5,95,140.0
1522,F3,216.0,0.5,95,140.0
1523,C3,216.0,0.969,95,140.0
1524,F3,216.0,0.969,95,140.0
1525,A3,216.062,0.906,95,140.0
1526,C4,216.062,0.906,95,140.0
1527,F4,216.125,0.875,95,140.0
1528,F3,216.5,0.5,95,140.0
1529,F3,216.5,0.5,95,140.0
1530,F3,217.0,0.5,95,140.0
1531,F3,217.0,0.5,95,140.0
1532,C3,217.0,0.453,95,140.0
1533,F3,217.0,0.453,95,140.0
1534,A3,217.0,0.453,95,140.0
1535,C4,217.0,0.453,95,140.0
1536,A4,217.225,667/1000,95,140.0
1537,C4,217.225,667/1000,95,140.0
1538,F3,217.5,0.5,95,140.0
1539,F3,217.5,0.5,95,140.0
1540,F4,217.5,0.969,95,140.0
1541,C4,217.5,0.969,95,140.0
1542,A3,217.562,0.938,95,140.0
1543,B4,217.892,667/1000,95,140.0
1544,D4,217.892,667/1000,95,140.0
1545,F3,218.0,0.5,95,140.0
1546,F3,218.0,0.5,95,140.0
1547,F3,218.5,0.5,95,140.0
1548,F3,218.5,0.5,95,140.0
1549,F4,218.5,0.469,95,140.0
1550,C4,218.5,0.469,95,140.0
1551,A3,218.5,0.469,95,140.0
1552,C5,218.558,667/1000,95,140.0
1553,E4,218.558,667/1000,95,140.0
1554,F3,219.0,0.5,95,140.0
1555,F3,219.0,0.5,95,140.0
1556,C5,219.225,0.5,95,140.0
1557,F3,219.5,0.5,95,140.0
1558,F3,219.5,0.5,95,140.0
1559,F4,219.5,0.469,95,140.0
1560,C4,219.5,0.469,95,140.0
1561,A3,219.5,0.469,95,140.0
1562,D5,219.725,0.25,95,140.0
1563,C5,219.975,0.25,70,140.0
1564,D3,220.0,0.5,95,140.0
1565,D3,220.0,0.5,95,140.0
1566,D3,220.0,0.969,95,140.0
1567,A3,220.0,0.969,95,140.0
1568,D4,220.062,0.906,95,140.0
1569,F4,220.062,0.906,95,140.0
1570,A4,220.225,0.5,95,140.0
1571,D3,220.5,0.5,95,140.0
1572,D3,220.5,0.5,95,140.0
1573,F4,220.725,2.5,95,140.0
1574,D3,221.0,0.5,95,140.0
1575,D3,221.0,0.5,95,140.0
1576,D3,221.0,0.453,95,140.0
1577,A3,221.0,0.453,95,140.0
1578,D4,221.0,0.453,95,140.0
1579,F4,221.0,0.453,95,140.0
1580,D3,221.5,0.5,95,140.0
1581,D3,221.5,0.5,95,140.0
1582,F4,221.5,0.969,95,140.0
1583,D4,221.5,0.969,95,140.0
1584,A3,221.562,0.938,95,140.0
1585,D3,222.0,0.5,95,140.0
1586,D3,222.0,0.5,95,140.0
1587,D3,222.5,0.5,95,140.0
1588,D3,222.5,0.5,95,140.0
1589,F4,222.5,0.469,95,140.0
1590,D4,222.5,0.469,95,140.0
1591,A3,222.5,0.469,95,140.0
1592,D3,223.0,0.5,95,140.0
1593,D3,223.0,0.5,95,140.0
1594,E4,223.225,0.25,95,140.0
1595,F4,223.475,0.25,70,140.0
1596,D3,223.5,0.5,95,140.0
1597,D3,223.5,0.5,95,140.0
1598,F4,223.5,0.469,95,140.0
1599,D4,223.5,0.469,95,140.0
1600,A3,223.5,0.469,95,140.0
1601,G4,223.725,0.25,95,140.0
1602,A4,223.975,0.25,95,140.0
1603,G3,224.0,0.5,95,140.0
1604,G3,224.0,0.5,95,140.0
1605,D3,224.0,0.969,95,140.0
1606,B3,224.0,0.969,95,140.0
1607,D4,224.062,0.906,95,140.0
1608,G4,224.062,0.906,95,140.0
1609,B4,224.225,0.25,95,140.0
1610,C5,224.475,0.25,70,140.0
1611,G3,224.5,0.5,95,140.0
1612,G3,224.5,0.5,95,140.0
1613,D5,224.725,0.25,95,140.0
1614,E5,224.975,0.25,70,140.0
1615,G3,225.0,0.5,95,140.0
1616,G3,225.0,0.5,95,140.0
1617,D3,225.0,0.453,95,140.0
1618,B3,225.0,0.453,95,140.0
1619,D4,225.0,0.453,95,140.0
1620,G4,225.0,0.453,95,140.0
1621,F5,225.225,2.0,70,140.0
1622,G3,225.5,0.5,95,140.0
1623,G3,225.5,0.5,95,140.0
1624,G4,225.5,0.969,95,140.0
1625,D4,225.5,0.969,95,140.0
1626,B3,225.562,0.938,95,140.0
1627,G3,226.0,0.5,95,140.0
1628,G3,226.0,0.5,95,140.0
1629,G3,226.5,0.5,95,140.0
1630,G3,226.5,0.5,95,140.0
1631,G4,226.5,0.469,95,140.0
1632,D4,226.5,0.469,95,140.0
1633,B3,226.5,0.469,95,140.0
1634,G3,227.0,0.5,95,140.0
1635,G3,227.0,0.5,95,140.0
1636,A4,227.225,0.5,70,140.0
1637,G3,227.5,0.5,95,140.0
1638,G3,227.5,0.5,95,140.0
1639,G4,227.5,0.469,95,140.0
1640,D4,227.5,0.469,95,140.0
1641,B3,227.5,0.469,95,140.0
1642,B4,227.725,0.5,70,140.0
1643,F3,228.0,0.5,95,140.0
1644,F3,228.0,0.5,95,140.0
1645,D3,228.0,0.969,95,140.0
1646,B3,228.0,0.969,95,140.0
1647,D4,228.062,0.906,95,140.0
1648,G4,228.062,0.906,95,140.0
1649,D5,228.225,0.5,95,140.0
1650,F3,228.5,0.5,95,140.0
1651,F3,228.5,0.5,95,140.0
1652,A4,228.725,1.0,95,140.0
1653,F3,229.0,0.5,95,140.0
1654,F3,229.0,0.5,95,140.0
1655,D3,229.0,0.453,95,140.0
1656,B3,229.0,0.453,95,140.0
1657,D4,229.0,0.453,95,140.0
1658,G4,229.0,0.453,95,140.0
1659,F3,229.5,0.5,95,140.0
1660,F3,229.5,0.5,95,140.0
1661,G4,229.5,0.969,95,140.0
1662,D4,229.5,0.969,95,140.0
1663,B3,229.562,0.938,95,140.0
1664,G4,229.725,0.5,70,140.0
1665,F3,230.0,0.5,95,140.0
1666,F3,230.0,0.5,95,140.0
1667,F4,230.225,1.0,70,140.0
1668,F3,230.5,0.5,95,140.0
1669,F3,230.5,0.5,95,140.0
1670,G4,230.5,0.469,95,140.0
1671,D4,230.5,0.469,95,140.0
1672,B3,230.5,0.469,95,140.0
1673,F3,231.0,0.5,95,140.0
1674,F3,231.0,0.5,95,140.0
1675,G4,231.225,0.5,95,140.0
1676,F3,231.5,0.5,95,140.0
1677,F3,231.5,0.5,95,140.0
1678,G4,231.5,0.469,95,140.0
1679,D4,231.5,0.469,95,140.0
1680,B3,231.5,0.469,95,140.0
1681,A4,231.725,0.5,70,140.0
1682,C3,232.0,0.5,95,140.0
1683,C3,232.0,0.5,95,140.0
1684,C3,232.0,0.969,95,140.0
1685,E3,232.0,0.969,95,140.0
1686,G3,232.062,0.906,95,140.0
1687,C4,232.062,0.906,95,140.0
1688,E4,232.125,0.875,95,140.0
1689,C5,232.225,0.5,95,140.0
1690,C3,232.5,0.5,95,140.0
1691,C3,232.5,0.5,95,140.0
1692,A4,232.725,1.0,95,140.0
1693,C3,233.0,0.5,95,140.0
1694,C3,233.0,0.5,95,140.0
1695,C3,233.0,0.453,95,140.0
1696,E3,233.0,0.453,95,140.0
1697,G3,233.0,0.453,95,140.0
1698,C4,233.0,0.453,95,140.0
1699,C3,233.5,0.5,95,140.0
1700,C3,233.5,0.5,95,140.0
1701,E4,233.5,0.969,95,140.0
1702,C4,233.5,0.969,95,140.0
1703,G3,233.562,0.938,95,140.0
1704,G4,233.725,0.5,70,140.0
1705,C3,234.0,0.5,95,140.0
1706,C3,234.0,0.5,95,140.0
1707,F4,234.225,1.0,95,140.0
1708,C3,234.5,0.5,95,140.0
1709,C3,234.5,0.5,95,140.0
1710,E4,234.5,0.469,95,140.0
1711,C4,234.5,0.469,95,140.0
1712,G3,234.5,0.469,95,140.0
1713,C3,235.0,0.5,95,140.0
1714,C3,235.0,0.5,95,140.0
1715,C5,235.225,0.5,95,140.0
1716,C3,235.5,0.5,95,140.0
1717,C3,235.5,0.5,95,140.0
1718,E4,235.5,0.469,95,140.0
1719,C4,235.5,0.469,95,140.0
1720,G3,235.5,0.469,95,140.0
1721,D5,235.725,0.5,70,140.0
1722,C3,236.0,0.5,95,140.0
1723,C3,236.0,0.5,95,140.0
1724,C3,236.0,0.969,95,140.0
1725,E3,236.0,0.969,95,140.0
1726,G3,236.062,0.906,95,140.0
1727,C4,236.062,0.906,95,140.0
1728,E4,236.125,0.875,95,140.0
1729,E5,236.225,0.5,95,140.0
1730,C3,236.5,0.5,95,140.0
1731,C3,236.5,0.5,95,140.0
1732,G4,236.725,1.0,95,140.0
1733,C3,237.0,0.5,95,140.0
1734,C3,237.0,0.5,95,140.0
1735,C3,237.0,0.453,95,140.0
1736,E3,237.0,0.453,95,140.0
1737,G3,237.0,0.453,95,140.0
1738,C4,237.0,0.453,95,140.0
1739,C3,237.5,0.5,95,140.0
1740,C3,237.5,0.5,95,140.0
1741,E4,237.5,0.969,95,140.0
1742,C4,237.5,0.969,95,140.0
1743,G3,237.562,0.938,95,140.0
1744,E4,237.725,0.5,95,140.0
1745,C3,238.0,0.5,95,140.0
1746,C3,238.0,0.5,95,140.0
1747,F4,238.225,0.5,95,140.0
1748,C3,238.5,0.5,95,140.0
1749,C3,238.5,0.5,95,140.0
1750,E4,238.5,0.469,95,140.0
1751,C4,238.5,0.469,95,140.0
1752,G3,238.5,0.469,95,140.0
1753,G4,238.725,0.5,95,140.0
1754,C3,239.0,0.5,95,140.0
1755,C3,239.0,0.5,95,140.0
1756,C4,239.225,3.0,95,140.0
1757,C3,239.5,0.5,95,140.0
1758,C3,239.5,0.5,95,140.0
1759,E4,239.5,0.469,95,140.0
1760,C4,239.5,0.469,95,140.0
1761,G3,239.5,0.469,95,140.0
1762,C3,240.0,1.0,95,140.0
1763,C3,240.0,0.5,95,140.0
1764,C3,240.0,0.5,95,140.0
1765,E3,240.062,0.938,95,140.0
1766,G3,240.125,0.875,95,140.0
1767,C4,240.188,0.812,95,140.0
1768,E4,240.25,0.75,95,140.0
1769,C3,240.5,0.5,95,140.0
1770,C3,240.5,0.5,95,140.0
1771,C3,241.0,0.5,95,140.0
1772,C3,241.0,0.5,95,140.0
1773,C3,241.0,0.469,95,140.0
1774,E3,241.0,0.469,95,140.0
1775,G3,241.0,0.469,95,140.0
1776,C3,241.5,0.5,95,140.0
1777,C3,241.5,0.5,95,140.0
1778,E4,241.5,0.469,95,140.0
1779,C4,241.5,0.469,95,140.0
1780,G3,241.5,0.469,95,140.0
1781,B2,242.0,1.0,95,140.0
1782,E3,242.0,0.5,95,140.0
1783,E3,242.0,0.5,95,140.0
1784,E3,242.062,0.938,95,140.0
1785,G3,242.125,0.875,95,140.0
1786,B3,242.188,0.812,95,140.0
1787,E3,242.5,0.5,95,140.0
1788,E3,242.5,0.5,95,140.0
1789,D4,242.725,0.25,95,140.0
1790,E4,242.975,0.25,70,140.0
1791,E3,243.0,0.5,95,140.0
1792,E3,243.0,0.5,95,140.0
1793,E4,243.0,0.469,95,140.0
1794,B3,243.0,0.469,95,140.0
1795,G3,243.0,0.469,95,140.0
1796,C5,243.225,0.5,95,140.0
1797,E3,243.5,0.5,95,140.0
1798,E3,243.5,0.5,95,140.0
1799,E4,243.5,0.469,95,140.0
1800,B3,243.5,0.469,95,140.0
1801,G3,243.5,0.469,95,140.0
1802,E4,243.725,0.5,95,140.0
1803,A2,244.0,0.5,95,140.0
1804,A2,244.0,0.5,95,140.0
1805,A2,244.0,0.969,95,140.0
1806,E3,244.0,0.969,95,140.0
1807,A3,244.062,0.906,95,140.0
1808,C4,244.062,0.906,95,140.0
1809,E4,244.125,0.875,95,140.0
1810,C5,244.225,0.5,95,140.0
1811,A2,244.5,0.5,95,140.0
1812,A2,244.5,0.5,95,140.0
1813,B4,244.725,0.5,95,140.0
1814,D4,244.725,0.5,95,140.0
1815,A2,245.0,0.5,95,140.0
1816,A2,245.0,0.5,95,140.0
1817,A2,245.0,0.453,95,140.0
1818,E3,245.0,0.453,95,140.0
1819,A3,245.0,0.453,95,140.0
1820,C4,245.0,0.453,95,140.0
1821,A2,245.5,0.5,95,140.0
1822,A2,245.5,0.5,95,140.0
1823,E4,245.5,0.469,95,140.0
1824,C4,245.5,0.469,95,140.0
1825,A3,245.5,0.469,95,140.0
1826,A4,245.725,0.5,95,140.0
1827,C4,245.725,0.5,95,140.0
1828,A2,246.0,0.5,95,140.0
1829,A2,246.0,0.5,95,140.0
1830,E4,246.0,0.625,95,140.0
1831,C4,246.0,0.625,95,140.0
1832,A3,246.0,0.625,95,140.0
1833,A2,246.5,0.5,95,140.0
1834,A2,246.5,0.5,95,140.0
1835,E4,246.667,0.625,95,140.0
1836,C4,246.667,0.625,95,140.0
1837,A3,246.667,0.625,95,140.0
1838,G4,246.725,0.5,95,140.0
1839,B3,246.725,0.5,95,140.0
1840,A2,247.0,0.5,95,140.0
1841,A2,247.0,0.5,95,140.0
1842,A4,247.225,2.0,95,140.0
1843,C4,247.225,2.0,95,140.0
1844,E4,247.333,0.625,95,140.0
1845,C4,247.333,0.625,95,140.0
1846,A3,247.333,0.625,95,140.0
1847,A2,247.5,0.5,95,140.0
1848,A2,247.5,0.5,95,140.0
1849,F3,248.0,0.5,95,140.0
1850,F3,248.0,0.5,95,140.0
1851,C3,248.0,0.969,95,140.0
1852,F3,248.0,0.969,95,140.0
1853,A3,248.062,0.906,95,140.0
1854,C4,248.062,0.906,95,140.0
1855,F4,248.125,0.875,95,140.0
1856,F3,248.5,0.5,95,140.0
1857,F3,248.5,0.5,95,140.0
1858,F3,249.0,0.5,95,140.0
1859,F3,249.0,0.5,95,140.0
1860,C3,249.0,0.453,95,140.0
1861,F3,249.0,0.453,95,140.0
1862,A3,249.0,0.453,95,140.0
1863,C4,249.0,0.453,95,140.0
1864,A4,249.225,667/1000,95,140.0
1865,C4,249.225,667/1000,95,140.0
1866,F3,249.5,0.5,95,140.0
1867,F3,249.5,0.5,95,140.0
1868,F4,249.5,0.969,95,140.0
1869,C4,249.5,0.969,95,140.0
1870,A3,249.562,0.938,95,140.0
1871,B4,249.892,667/1000,95,140.0
1872,D4,249.892,667/1000,95,140.0
1873,F3,250.0,0.5,95,140.0
1874,F3,250.0,0.5,95,140.0
1875,F3,250.5,0.5,95,140.0
1876,F3,250.5,0.5,95,140.0
1877,F4,250.5,0.469,95,140.0
1878,C4,250.5,0.469,95,140.0
1879,A3,250.5,0.469,95,140.0
1880,C5,250.558,667/1000,95,140.0
1881,E4,250.558,667/1000,95,140.0
1882,F3,251.0,0.5,95,140.0
1883,F3,251.0,0.5,95,140.0
1884,C5,251.225,0.5,95,140.0
1885,F3,251.5,0.5,95,140.0
1886,F3,251.5,0.5,95,140.0
1887,F4,251.5,0.469,95,140.0
1888,C4,251.5,0.469,95,140.0
1889,A3,251.5,0.469,95,140.0
1890,D5,251.725,0.25,95,140.0
1891,C5,251.975,0.25,70,140.0
1892,D3,252.0,0.969,95,140.0
1893,A3,252.0,0.969,95,140.0
1894,F3,252.0,0.5,95,140.0
1895,D3,252.0,0.5,95,140.0
1896,F3,252.0,0.5,95,140.0
1897,D3,252.0,0.5,95,140.0
1898,D4,252.062,0.906,95,140.0
1899,F4,252.062,0.906,95,140.0
1900,A4,252.225,0.5,95,140.0
1901,F3,252.5,0.5,95,140.0
1902,D3,252.5,0.5,95,140.0
1903,F3,252.5,0.5,95,140.0
1904,D3,252.5,0.5,95,140.0
1905,F4,252.725,2.5,95,140.0
1906,D3,253.0,0.453,95,140.0
1907,A3,253.0,0.453,95,140.0
1908,D4,253.0,0.453,95,140.0
1909,F4,253.0,0.453,95,140.0
1910,F3,253.0,0.5,95,140.0
1911,D3,253.0,0.5,95,140.0
1912,F3,253.0,0.5,95,140.0
1913,D3,253.0,0.5,95,140.0
1914,F4,253.5,0.969,95,140.0
1915,D4,253.5,0.969,95,140.0
1916,F3,253.5,0.5,95,140.0
1917,D3,253.5,0.5,95,140.0
1918,F3,253.5,0.5,95,140.0
1919,D3,253.5,0.5,95,140.0
1920,A3,253.562,0.938,95,140.0
1921,F3,254.0,0.5,95,140.0
1922,D3,254.0,0.5,95,140.0
1923,F3,254.0,0.5,95,140.0
1924,D3,254.0,0.5,95,140.0
1925,F4,254.5,0.469,95,140.0
1926,D4,254.5,0.469,95,140.0
1927,A3,254.5,0.469,95,140.0
1928,F3,254.5,0.5,95,140.0
1929,D3,254.5,0.5,95,140.0
1930,F3,254.5,0.5,95,140.0
1931,D3,254.5,0.5,95,140.0
1932,F3,255.0,0.5,95,140.0
1933,D3,255.0,0.5,95,140.0
1934,F3,255.0,0.5,95,140.0
1935,D3,255.0,0.5,95,140.0
1936,E4,255.225,0.25,95,140.0
1937,F4,255.475,0.25,70,140.0
1938,F4,255.5,0.469,95,140.0
1939,D4,255.5,0.469,95,140.0
1940,A3,255.5,0.469,95,140.0
1941,F3,255.5,0.5,95,140.0
1942,D3,255.5,0.5,95,140.0
1943,F3,255.5,0.5,95,140.0
1944,D3,255.5,0.5,95,140.0
1945,G4,255.725,0.25,95,140.0
1946,A4,255.975,0.25,95,140.0
1947,G3,256.0,0.5,95,140.0
1948,G3,256.0,0.5,95,140.0
1949,D3,256.0,0.969,95,140.0
1950,B3,256.0,0.969,95,140.0
1951,D4,256.062,0.906,95,140.0
1952,G4,256.062,0.906,95,140.0
1953,B4,256.225,0.25,95,140.0
1954,C5,256.475,0.25,70,140.0
1955,G3,256.5,0.5,95,140.0
1956,G3,256.5,0.5,95,140.0
1957,D5,256.725,0.25,95,140.0
1958,E5,256.975,0.25,70,140.0
1959,G3,257.0,0.5,95,140.0
1960,G3,257.0,0.5,95,140.0
1961,D3,257.0,0.453,95,140.0
1962,B3,257.0,0.453,95,140.0
1963,D4,257.0,0.453,95,140.0
1964,G4,257.0,0.453,95,140.0
1965,F5,257.225,2.0,70,140.0
1966,G3,257.5,0.5,95,140.0
1967,G3,257.5,0.5,95,140.0
1968,G4,257.5,0.969,95,140.0
1969,D4,257.5,0.969,95,140.0
1970,B3,257.562,0.938,95,140.0
1971,G3,258.0,0.5,95,140.0
1972,G3,258.0,0.5,95,140.0
1973,G3,258.5,0.5,95,140.0
1974,G3,258.5,0.5,95,140.0
1975,G4,258.5,0.469,95,140.0
1976,D4,258.5,0.469,95,140.0
1977,B3,258.5,0.469,95,140.0
1978,G3,259.0,0.5,95,140.0
1979,G3,259.0,0.5,95,140.0
1980,A4,259.225,0.5,70,140.0
1981,G3,259.5,0.5,95,140.0
1982,G3,259.5,0.5,95,140.0
1983,G4,259.5,0.469,95,140.0
1984,D4,259.5,0.469,95,140.0
1985,B3,259.5,0.469,95,140.0
1986,B4,259.725,0.5,70,140.0
1987,F3,260.0,0.5,95,140.0
1988,F3,260.0,0.5,95,140.0
1989,D3,260.0,0.969,95,140.0
1990,B3,260.0,0.969,95,140.0
1991,D4,260.062,0.906,95,140.0
1992,G4,260.062,0.906,95,140.0
1993,D5,260.225,0.5,95,140.0
1994,F3,260.5,0.5,95,140.0
1995,F3,260.5,0.5,95,140.0
1996,A4,260.725,1.0,95,140.0
1997,F3,261.0,0.5,95,140.0
1998,F3,261.0,0.5,95,140.0
1999,D3,261.0,0.453,95,140.0
2000,B3,261.0,0.453,95,140.0
2001,D4,261.0,0.453,95,140.0
2002,G4,261.0,0.453,95,140.0
2003,F3,261.5,0.5,95,140.0
2004,F3,261.5,0.5,95,140.0
2005,G4,261.5,0.969,95,140.0
2006,D4,261.5,0.969,95,140.0
2007,B3,261.562,0.938,95,140.0
2008,G4,261.725,0.5,70,140.0
2009,F3,262.0,0.5,95,140.0
2010,F3,262.0,0.5,95,140.0
2011,F4,262.225,1.0,70,140.0
2012,F3,262.5,0.5,95,140.0
2013,F3,262.5,0.5,95,140.0
2014,G4,262.5,0.469,95,140.0
2015,D4,262.5,0.469,95,140.0
2016,B3,262.5,0.469,95,140.0
2017,F3,263.0,0.5,95,140.0
2018,F3,263.0,0.5,95,140.0
2019,G4,263.225,0.5,95,140.0
2020,F3,263.5,0.5,95,140.0
2021,F3,263.5,0.5,95,140.0
2022,G4,263.5,0.469,95,140.0
2023,D4,263.5,0.469,95,140.0
2024,B3,263.5,0.469,95,140.0
2025,A4,263.725,0.5,70,140.0
2026,C3,264.0,0.5,95,140.0
2027,C3,264.0,0.5,95,140.0
2028,C3,264.0,0.969,95,140.0
2029,E3,264.0,0.969,95,140.0
2030,G3,264.062,0.906,95,140.0
2031,C4,264.062,0.906,95,140.0
2032,E4,264.125,0.875,95,140.0
2033,C5,264.225,0.5,95,140.0
2034,C3,264.5,0.5,95,140.0
2035,C3,264.5,0.5,95,140.0
2036,A4,264.725,1.0,95,140.0
2037,C3,265.0,0.5,95,140.0
2038,C3,265.0,0.5,95,140.0
2039,C3,265.0,0.453,95,140.0
2040,E3,265.0,0.453,95,140.0
2041,G3,265.0,0.453,95,140.0
2042,C4,265.0,0.453,95,140.0
2043,C3,265.5,0.5,95,140.0
2044,C3,265.5,0.5,95,140.0
2045,E4,265.5,0.969,95,140.0
2046,C4,265.5,0.969,95,140.0
2047,G3,265.562,0.938,95,140.0
2048,G4,265.725,0.5,70,140.0
2049,C3,266.0,0.5,95,140.0
2050,C3,266.0,0.5,95,140.0
2051,F4,266.225,1.0,95,140.0
2052,C3,266.5,0.5,95,140.0
2053,C3,266.5,0.5,95,140.0
2054,E4,266.5,0.469,95,140.0
2055,C4,266.5,0.469,95,140.0
2056,G3,266.5,0.469,95,140.0
2057,C3,267.0,0.5,95,140.0
2058,C3,267.0,0.5,95,140.0
2059,C5,267.225,0.5,95,140.0
2060,C3,267.5,0.5,95,140.0
2061,C3,267.5,0.5,95,140.0
2062,E4,267.5,0.469,95,140.0
2063,C4,267.5,0.469,95,140.0
2064,G3,267.5,0.469,95,140.0
2065,D5,267.725,0.5,70,140.0
2066,C3,268.0,0.969,95,140.0
2067,E3,268.0,0.969,95,140.0
2068,G3,268.062,0.906,95,140.0
2069,C4,268.062,0.906,95,140.0
2070,E4,268.125,0.875,95,140.0
2071,E5,268.225,0.5,95,140.0
2072,G4,268.725,1.0,95,140.0
2073,C3,269.0,0.453,95,140.0
2074,E3,269.0,0.453,95,140.0
2075,G3,269.0,0.453,95,140.0
2076,C4,269.0,0.453,95,140.0
2077,E4,269.5,0.969,95,140.0
2078,C4,269.5,0.969,95,140.0
2079,G3,269.562,0.938,95,140.0
2080,E4,269.725,0.5,95,140.0
2081,F4,270.225,0.5,95,140.0
2082,E4,270.5,0.469,95,140.0
2083,C4,270.5,0.469,95,140.0
2084,G3,270.5,0.469,95,140.0
2085,G4,270.725,0.5,95,140.0
2086,C4,271.225,4.0,95,140.0
2087,G3,271.5,0.5,95,140.0
2088,G3,271.5,0.5,95,140.0
2089,E4,271.5,0.469,95,140.0
2090,C4,271.5,0.469,95,140.0
2091,G3,271.5,0.469,95,140.0
2092,C3,272.0,1.0,95,140.0
2093,C4,272.0,2.0,95,140.0
2094,C4,272.0,2.0,95,140.0
2095,E3,272.062,0.938,95,140.0
2096,G3,272.125,0.875,95,140.0
2097,C4,272.188,0.812,95,140.0
2098,E4,272.25,0.75,95,140.0
2099,C3,273.0,0.469,95,140.0
2100,E3,273.0,0.469,95,140.0
2101,G3,273.0,0.469,95,140.0
2102,E4,273.5,0.469,95,140.0
2103,C4,273.5,0.469,95,140.0
2104,G3,273.5,0.469,95,140.0
2105,C3,274.0,1.0,95,140.0
2106,C4,274.0,667/1000,95,140.0
2107,C4,274.0,667/1000,95,140.0
2108,E3,274.062,0.938,95,140.0
2109,G3,274.125,0.875,95,140.0
2110,C4,274.188,0.812,95,140.0
2111,D4,274.667,667/1000,95,140.0
2112,D4,274.667,667/1000,95,140.0
2113,E4,275.0,0.469,95,140.0
2114,C4,275.0,0.469,95,140.0
2115,G3,275.0,0.469,95,140.0
2116,C5,275.225,0.5,70,140.0
2117,E4,275.333,667/1000,95,140.0
2118,E4,275.333,667/1000,95,140.0
2119,E4,275.5,0.469,95,140.0
2120,C4,275.5,0.469,95,140.0
2121,G3,275.5,0.469,95,140.0
2122,G4,275.725,1.0,95,140.0
2123,E2,276.0,1.0,95,140.0
2124,B3,276.0,0.5,47,140.0
2125,E4,276.0,0.5,95,140.0
2126,B3,276.0,0.5,47,140.0
2127,E4,276.0,0.5,95,140.0
2128,B2,276.062,0.938,95,140.0
2129,E3,276.125,0.875,95,140.0
2130,G3,276.188,0.812,95,140.0
2131,B3,276.25,0.75,95,140.0
2132,E4,276.312,0.688,95,140.0
2133,B3,276.5,0.5,47,140.0
2134,B3,276.5,0.5,47,140.0
2135,C5,276.725,2.5,95,140.0
2136,B3,277.0,1.0,95,140.0
2137,B3,277.0,1.0,95,140.0
2138,B2,277.0,0.469,95,140.0
2139,E3,277.0,0.469,95,140.0
2140,G3,277.0,0.469,95,140.0
2141,E4,277.5,0.469,95,140.0
2142,B3,277.5,0.469,95,140.0
2143,G3,277.5,0.469,95,140.0
2144,A2,278.0,1.0,95,140.0
2145,C4,278.0,1.0,95,140.0
2146,C4,278.0,1.0,95,140.0
2147,E3,278.062,0.938,95,140.0
2148,G3,278.125,0.875,95,140.0
2149,B3,278.188,0.812,95,140.0
2150,D4,279.0,1.0,95,140.0
2151,D4,279.0,1.0,95,140.0
2152,E4,279.0,0.469,95,140.0
2153,B3,279.0,0.469,95,140.0
2154,G3,279.0,0.469,95,140.0
2155,C5,279.225,0.5,95,140.0
2156,E4,279.5,0.469,95,140.0
2157,B3,279.5,0.469,95,140.0
2158,G3,279.5,0.469,95,140.0
2159,G4,279.725,1.0,95,140.0
2160,A2,280.0,1.0,95,140.0
2161,D4,280.0,0.5,95,140.0
2162,D4,280.0,0.5,95,140.0
2163,E3,280.062,0.938,95,140.0
2164,A3,280.125,0.875,95,140.0
2165,C4,280.188,0.812,95,140.0
2166,E4,280.25,0.75,95,140.0
2167,C5,280.725,2.5,95,140.0
2168,A2,281.0,0.469,95,140.0
2169,E3,281.0,0.469,95,140.0
2170,A3,281.0,0.469,95,140.0
2171,G3,281.5,0.5,95,140.0
2172,G3,281.5,0.5,95,140.0
2173,E4,281.5,0.469,95,140.0
2174,C4,281.5,0.469,95,140.0
2175,A3,281.5,0.469,95,140.0
2176,A2,282.0,1.0,95,140.0
2177,A3,282.0,0.5,70,140.0
2178,A3,282.0,0.5,70,140.0
2179,E3,282.062,0.938,95,140.0
2180,A3,282.125,0.875,95,140.0
2181,C4,282.188,0.812,95,140.0
2182,A3,282.5,1.0,95,140.0
2183,A3,282.5,1.0,95,140.0
2184,E4,283.0,0.469,95,140.0
2185,C4,283.0,0.469,95,140.0
2186,A3,283.0,0.469,95,140.0
2187,C5,283.225,0.5,95,140.0
2188,G3,283.5,0.5,95,140.0
2189,G3,283.5,0.5,95,140.0
2190,E4,283.5,0.469,95,140.0
2191,C4,283.5,0.469,95,140.0
2192,A3,283.5,0.469,95,140.0
2193,G4,283.725,1.0,95,140.0
2194,F3,284.0,2.0,95,140.0
2195,F3,284.0,2.0,95,140.0
2196,C3,284.0,0.969,95,140.0
2197,F3,284.0,0.969,95,140.0
2198,A3,284.062,0.906,95,140.0
2199,C4,284.062,0.906,95,140.0
2200,F4,284.125,0.875,95,140.0
2201,C5,284.725,2.5,95,140.0
2202,C3,285.0,0.453,95,140.0
2203,F3,285.0,0.453,95,140.0
2204,A3,285.0,0.453,95,140.0
2205,C4,285.0,0.453,95,140.0
2206,F4,285.5,0.969,95,140.0
2207,C4,285.5,0.969,95,140.0
2208,A3,285.562,0.938,95,140.0
2209,F4,286.5,0.469,95,140.0
2210,C4,286.5,0.469,95,140.0
2211,A3,286.5,0.469,95,140.0
2212,F3,287.0,0.5,95,140.0
2213,F3,287.0,0.5,95,140.0
2214,C5,287.225,0.5,95,140.0
2215,E3,287.5,0.5,95,140.0
2216,E3,287.5,0.5,95,140.0
2217,F4,287.5,0.469,95,140.0
2218,C4,287.5,0.469,95,140.0
2219,A3,287.5,0.469,95,140.0
2220,G4,287.725,1.0,95,140.0
2221,D3,288.0,1.5,95,140.0
2222,D3,288.0,1.5,95,140.0
2223,D3,288.0,0.969,95,140.0
2224,B3,288.0,0.969,95,140.0
2225,D4,288.062,0.906,95,140.0
2226,G4,288.062,0.906,95,140.0
2227,C5,288.725,2.5,95,140.0
2228,D3,289.0,0.453,95,140.0
2229,B3,289.0,0.453,95,140.0
2230,D4,289.0,0.453,95,140.0
2231,G4,289.0,0.453,95,140.0
2232,B3,289.5,1.5,95,140.0
2233,B3,289.5,1.5,95,140.0
2234,G4,289.5,0.969,95,140.0
2235,D4,289.5,0.969,95,140.0
2236,B3,289.562,0.938,95,140.0
2237,G4,290.5,0.469,95,140.0
2238,D4,290.5,0.469,95,140.0
2239,B3,290.5,0.469,95,140.0
2240,D4,291.225,0.5,95,140.0
2241,B3,291.5,0.5,95,140.0
2242,B3,291.5,0.5,95,140.0
2243,G4,291.5,0.469,95,140.0
2244,D4,291.5,0.469,95,140.0
2245,B3,291.5,0.469,95,140.0
2246,G4,291.725,0.5,95,140.0
2247,A3,292.0,1.5,95,140.0
2248,A3,292.0,1.5,95,140.0
2249,D3,292.0,0.969,95,140.0
2250,B3,292.0,0.969,95,140.0
2251,D4,292.062,0.906,95,140.0
2252,G4,292.062,0.906,95,140.0
2253,D4,292.225,0.5,95,140.0
2254,B4,292.725,2.5,95,140.0
2255,D3,293.0,0.453,95,140.0
2256,B3,293.0,0.453,95,140.0
2257,D4,293.0,0.453,95,140.0
2258,G4,293.0,0.453,95,140.0
2259,G3,293.5,1.5,95,140.0
2260,G3,293.5,1.5,95,140.0
2261,G4,293.5,0.969,95,140.0
2262,D4,293.5,0.969,95,140.0
2263,B3,293.562,0.938,95,140.0
2264,G4,294.5,0.469,95,140.0
2265,D4,294.5,0.469,95,140.0
2266,B3,294.5,0.469,95,140.0
2267,G3,295.0,0.5,95,140.0
2268,G3,295.0,0.5,95,140.0
2269,B4,295.225,1.5,95,140.0
2270,D3,295.5,0.5,95,140.0
2271,D3,295.5,0.5,95,140.0
2272,G4,295.5,0.469,95,140.0
2273,D4,295.5,0.469,95,140.0
2274,B3,295.5,0.469,95,140.0
2275,D3,296.0,1.0,95,140.0
2276,D3,296.0,1.0,95,140.0
2277,C3,296.0,0.969,95,140.0
2278,E3,296.0,0.969,95,140.0
2279,G3,296.062,0.906,95,140.0
2280,C4,296.062,0.906,95,140.0
2281,E4,296.125,0.875,95,140.0
2282,C5,296.725,1.0,95,140.0
2283,G3,297.0,0.5,95,140.0
2284,G3,297.0,0.5,95,140.0
2285,C3,297.0,0.453,95,140.0
2286,E3,297.0,0.453,95,140.0
2287,G3,297.0,0.453,95,140.0
2288,C4,297.0,0.453,95,140.0
2289,E3,297.5,1.0,95,140.0
2290,E3,297.5,1.0,95,140.0
2291,E4,297.5,0.969,95,140.0
2292,C4,297.5,0.969,95,140.0
2293,G3,297.562,0.938,95,140.0
2294,B4,297.725,0.5,95,140.0
2295,G4,298.225,0.5,95,140.0
2296,G3,298.5,0.5,95,140.0
2297,G3,298.5,0.5,95,140.0
2298,E4,298.5,0.469,95,140.0
2299,C4,298.5,0.469,95,140.0
2300,G3,298.5,0.469,95,140.0
2301,D4,298.725,0.5,95,140.0
2302,E3,299.0,0.25,95,140.0
2303,E3,299.0,0.25,95,140.0
2304,C4,299.225,0.5,95,140.0
2305,F3,299.25,0.25,70,140.0
2306,F3,299.25,0.25,70,140.0
2307,G3,299.5,0.5,95,140.0
2308,G3,299.5,0.5,95,140.0
2309,E4,299.5,0.469,95,140.0
2310,C4,299.5,0.469,95,140.0
2311,G3,299.5,0.469,95,140.0
2312,E4,299.725,0.5,95,140.0
2313,E3,300.0,2.0,95,140.0
2314,E3,300.0,2.0,95,140.0
2315,C3,300.0,0.969,95,140.0
2316,E3,300.0,0.969,95,140.0
2317,G3,300.062,0.906,95,140.0
2318,C4,300.062,0.906,95,140.0
2319,E4,300.125,0.875,95,140.0
2320,C4,300.225,0.5,95,140.0
2321,C5,300.725,2.5,95,140.0
2322,C3,301.0,0.453,95,140.0
2323,E3,301.0,0.453,95,140.0
2324,G3,301.0,0.453,95,140.0
2325,C4,301.0,0.453,95,140.0
2326,E4,301.5,0.969,95,140.0
2327,C4,301.5,0.969,95,140.0
2328,G3,301.562,0.938,95,140.0
2329,E4,302.5,0.469,95,140.0
2330,C4,302.5,0.469,95,140.0
2331,G3,302.5,0.469,95,140.0
2332,C5,303.225,4.0,95,140.0
2333,G3,303.5,0.5,95,140.0
2334,G3,303.5,0.5,95,140.0
2335,E4,303.5,0.469,95,140.0
2336,C4,303.5,0.469,95,140.0
2337,G3,303.5,0.469,95,140.0
2338,C3,304.0,1.0,95,140.0
2339,C4,304.0,2.0,95,140.0
2340,C4,304.0,2.0,95,140.0
2341,E3,304.062,0.938,95,140.0
2342,G3,304.125,0.875,95,140.0
2343,C4,304.188,0.812,95,140.0
2344,E4,304.25,0.75,95,140.0
2345,C3,305.0,0.469,95,140.0
2346,E3,305.0,0.469,95,140.0
2347,G3,305.0,0.469,95,140.0
2348,E4,305.5,0.469,95,140.0
2349,C4,305.5,0.469,95,140.0
2350,G3,305.5,0.469,95,140.0
2351,C3,306.0,1.0,95,140.0
2352,C4,306.0,667/1000,95,140.0
2353,C4,306.0,667/1000,95,140.0
2354,E3,306.062,0.938,95,140.0
2355,G3,306.125,0.875,95,140.0
2356,C4,306.188,0.812,95,140.0
2357,D4,306.667,667/1000,95,140.0
2358,D4,306.667,667/1000,95,140.0
2359,E4,307.0,0.469,95,140.0
2360,C4,307.0,0.469,95,140.0
2361,G3,307.0,0.469,95,140.0
2362,C5,307.225,0.5,95,140.0
2363,E4,307.333,667/1000,95,140.0
2364,E4,307.333,667/1000,95,140.0
2365,E4,307.5,0.469,95,140.0
2366,C4,307.5,0.469,95,140.0
2367,G3,307.5,0.469,95,140.0
2368,G4,307.725,1.0,95,140.0
2369,E2,308.0,1.0,95,140.0
2370,B3,308.0,0.5,47,140.0
2371,E4,308.0,0.5,95,140.0
2372,B3,308.0,0.5,47,140.0
2373,E4,308.0,0.5,95,140.0
2374,B2,308.062,0.938,95,140.0
2375,E3,308.125,0.875,95,140.0
2376,G3,308.188,0.812,95,140.0
2377,B3,308.25,0.75,95,140.0
2378,E4,308.312,0.688,95,140.0
2379,B3,308.5,0.5,47,140.0
2380,B3,308.5,0.5,47,140.0
2381,C5,308.725,2.5,95,140.0
2382,B3,309.0,1.0,95,140.0
2383,B3,309.0,1.0,95,140.0
2384,B2,309.0,0.469,95,140.0
2385,E3,309.0,0.469,95,140.0
2386,G3,309.0,0.469,95,140.0
2387,E4,309.5,0.469,95,140.0
2388,B3,309.5,0.469,95,140.0
2389,G3,309.5,0.469,95,140.0
2390,A2,310.0,1.0,95,140.0
2391,C4,310.0,1.0,95,140.0
2392,C4,310.0,1.0,95,140.0
2393,E3,310.062,0.938,95,140.0
2394,G3,310.125,0.875,95,140.0
2395,B3,310.188,0.812,95,140.0
2396,D4,311.0,1.0,95,140.0
2397,D4,311.0,1.0,95,140.0
2398,E4,311.0,0.469,95,140.0
2399,B3,311.0,0.469,95,140.0
2400,G3,311.0,0.469,95,140.0
2401,C5,311.225,0.5,95,140.0
2402,E4,311.5,0.469,95,140.0
2403,B3,311.5,0.469,95,140.0
2404,G3,311.5,0.469,95,140.0
2405,G4,311.725,1.0,95,140.0
2406,A2,312.0,1.0,95,140.0
2407,D4,312.0,0.5,95,140.0
2408,D4,312.0,0.5,95,140.0
2409,E3,312.062,0.938,95,140.0
2410,A3,312.125,0.875,95,140.0
2411,C4,312.188,0.812,95,140.0
2412,E4,312.25,0.75,95,140.0
2413,C5,312.725,2.5,95,140.0
2414,A2,313.0,0.469,95,140.0
2415,E3,313.0,0.469,95,140.0
2416,A3,313.0,0.469,95,140.0
2417,G3,313.5,0.5,95,140.0
2418,G3,313.5,0.5,95,140.0
2419,E4,313.5,0.469,95,140.0
2420,C4,313.5,0.469,95,140.0
2421,A3,313.5,0.469,95,140.0
2422,A2,314.0,1.0,95,140.0
2423,A3,314.0,0.5,70,140.0
2424,A3,314.0,0.5,70,140.0
2425,E3,314.062,0.938,95,140.0
2426,A3,314.125,0.875,95,140.0
2427,C4,314.188,0.812,95,140.0
2428,A3,314.5,1.0,95,140.0
2429,A3,314.5,1.0,95,140.0
2430,E4,315.0,0.469,95,140.0
2431,C4,315.0,0.469,95,140.0
2432,A3,315.0,0.469,95,140.0
2433,C5,315.225,0.5,95,140.0
2434,G3,315.5,0.5,95,140.0
2435,G3,315.5,0.5,95,140.0
2436,E4,315.5,0.469,95,140.0
2437,C4,315.5,0.469,95,140.0
2438,A3,315.5,0.469,95,140.0
2439,G4,315.725,1.0,95,140.0
2440,F3,316.0,2.0,95,140.0
2441,F3,316.0,2.0,95,140.0
2442,C3,316.0,0.969,95,140.0
2443,F3,316.0,0.969,95,140.0
2444,A3,316.062,0.906,95,140.0
2445,C4,316.062,0.906,95,140.0
2446,F4,316.125,0.875,95,140.0
2447,C5,316.725,2.5,95,140.0
2448,C3,317.0,0.453,95,140.0
2449,F3,317.0,0.453,95,140.0
2450,A3,317.0,0.453,95,140.0
2451,C4,317.0,0.453,95,140.0
2452,F4,317.5,0.969,95,140.0
2453,C4,317.5,0.969,95,140.0
2454,A3,317.562,0.938,95,140.0
2455,F4,318.5,0.469,95,140.0
2456,C4,318.5,0.469,95,140.0
2457,A3,318.5,0.469,95,140.0
2458,F3,319.0,0.5,95,140.0
2459,F3,319.0,0.5,95,140.0
2460,C5,319.225,0.5,95,140.0
2461,E3,319.5,0.5,95,140.0
2462,E3,319.5,0.5,95,140.0
2463,F4,319.5,0.469,95,140.0
2464,C4,319.5,0.469,95,140.0
2465,A3,319.5,0.469,95,140.0
2466,G4,319.725,1.0,95,140.0
2467,D3,320.0,1.5,95,140.0
2468,D3,320.0,1.5,95,140.0
2469,D3,320.0,0.969,95,140.0
2470,B3,320.0,0.969,95,140.0
2471,D4,320.062,0.906,95,140.0
2472,G4,320.062,0.906,95,140.0
2473,C5,320.725,2.5,95,140.0
2474,D3,321.0,0.453,95,140.0
2475,B3,321.0,0.453,95,140.0
2476,D4,321.0,0.453,95,140.0
2477,G4,321.0,0.453,95,140.0
2478,B3,321.5,1.5,95,140.0
2479,B3,321.5,1.5,95,140.0
2480,G4,321.5,0.969,95,140.0
2481,D4,321.5,0.969,95,140.0
2482,B3,321.562,0.938,95,140.0
2483,G4,322.5,0.469,95,140.0
2484,D4,322.5,0.469,95,140.0
2485,B3,322.5,0.469,95,140.0
2486,D4,323.225,0.5,95,140.0
2487,B3,323.5,0.5,95,140.0
2488,B3,323.5,0.5,95,140.0
2489,G4,323.5,0.469,95,140.0
2490,D4,323.5,0.469,95,140.0
2491,B3,323.5,0.469,95,140.0
2492,G4,323.725,0.5,95,140.0
2493,A3,324.0,1.5,95,140.0
2494,A3,324.0,1.5,95,140.0
2495,D3,324.0,0.969,95,140.0
2496,B3,324.0,0.969,95,140.0
2497,D4,324.062,0.906,95,140.0
2498,G4,324.062,0.906,95,140.0
2499,D4,324.225,0.5,95,140.0
2500,B4,324.725,2.5,95,140.0
2501,D3,325.0,0.453,95,140.0
2502,B3,325.0,0.453,95,140.0
2503,D4,325.0,0.453,95,140.0
2504,G4,325.0,0.453,95,140.0
2505,G3,325.5,1.5,95,140.0
2506,G3,325.5,1.5,95,140.0
2507,G4,325.5,0.969,95,140.0
2508,D4,325.5,0.969,95,140.0
2509,B3,325.562,0.938,95,140.0
2510,G4,326.5,0.469,95,140.0
2511,D4,326.5,0.469,95,140.0
2512,B3,326.5,0.469,95,140.0
2513,G3,327.0,0.5,95,140.0
2514,G3,327.0,0.5,95,140.0
2515,B4,327.225,1.5,95,140.0
2516,D3,327.5,0.5,95,140.0
2517,D3,327.5,0.5,95,140.0
2518,G4,327.5,0.469,95,140.0
2519,D4,327.5,0.469,95,140.0
2520,B3,327.5,0.469,95,140.0
2521,D3,328.0,1.0,95,140.0
2522,D3,328.0,1.0,95,140.0
2523,C3,328.0,0.969,95,140.0
2524,E3,328.0,0.969,95,140.0
2525,G3,328.062,0.906,95,140.0
2526,C4,328.062,0.906,95,140.0
2527,E4,328.125,0.875,95,140.0
2528,C5,328.725,1.0,95,140.0
2529,G3,329.0,0.5,95,140.0
2530,G3,329.0,0.5,95,140.0
2531,C3,329.0,0.453,95,140.0
2532,E3,329.0,0.453,95,140.0
2533,G3,329.0,0.453,95,140.0
2534,C4,329.0,0.453,95,140.0
2535,E3,329.5,1.0,95,140.0
2536,E3,329.5,1.0,95,140.0
2537,E4,329.5,0.969,95,140.0
2538,C4,329.5,0.969,95,140.0
2539,G3,329.562,0.938,95,140.0
2540,B4,329.725,0.5,95,140.0
2541,G4,330.225,0.5,95,140.0
2542,G3,330.5,0.5,95,140.0
2543,G3,330.5,0.5,95,140.0
2544,E4,330.5,0.469,95,140.0
2545,C4,330.5,0.469,95,140.0
2546,G3,330.5,0.469,95,140.0
2547,D4,330.725,0.5,95,140.0
2548,E3,331.0,0.25,95,140.0
2549,E3,331.0,0.25,95,140.0
2550,C4,331.225,0.5,95,140.0
2551,F3,331.25,0.25,70,140.0
2552,F3,331.25,0.25,70,140.0
2553,G3,331.5,0.5,95,140.0
2554,G3,331.5,0.5,95,140.0
2555,E4,331.5,0.469,95,140.0
2556,C4,331.5,0.469,95,140.0
2557,G3,331.5,0.469,95,140.0
2558,E4,331.725,0.5,95,140.0
2559,E3,332.0,2.0,95,140.0
2560,E3,332.0,2.0,95,140.0
2561,C3,332.0,0.969,95,140.0
2562,E3,332.0,0.969,95,140.0
2563,G3,332.062,0.906,95,140.0
2564,C4,332.062,0.906,95,140.0
2565,E4,332.125,0.875,95,140.0
2566,C4,332.225,0.5,95,140.0
2567,C5,332.725,2.5,95,140.0
2568,C3,333.0,0.453,95,140.0
2569,E3,333.0,0.453,95,140.0
2570,G3,333.0,0.453,95,140.0
2571,C4,333.0,0.453,95,140.0
2572,E4,333.5,0.969,95,140.0
2573,C4,333.5,0.969,95,140.0
2574,G3,333.562,0.938,95,140.0
2575,E4,334.5,0.469,95,140.0
2576,C4,334.5,0.469,95,140.0
2577,G3,334.5,0.469,95,140.0
2578,G3,335.225,0.5,15,140.0
2579,C3,335.225,0.5,15,140.0
2580,E3,335.5,0.25,95,140.0
2581,E3,335.5,0.25,95,140.0
2582,E4,335.5,0.469,95,140.0
2583,C4,335.5,0.469,95,140.0
2584,G3,335.5,0.469,95,140.0
2585,G3,335.725,0.5,55,140.0
2586,C3,335.725,0.5,55,140.0
2587,E2,336.0,1.0,95,140.0
2588,E3,336.0,1.5,95,140.0
2589,E3,336.0,1.5,95,140.0
2590,B2,336.062,0.938,95,140.0
2591,E3,336.125,0.875,95,140.0
2592,G3,336.188,0.812,95,140.0
2593,G3,336.225,0.5,95,140.0
2594,C3,336.225,0.5,95,140.0
2595,B3,336.25,0.75,95,140.0
2596,E4,336.312,0.688,95,140.0
2597,G3,336.725,0.5,95,140.0
2598,C3,336.725,0.5,95,140.0
2599,B2,337.0,0.469,95,140.0
2600,E3,337.0,0.469,95,140.0
2601,G3,337.0,0.469,95,140.0
2602,G3,337.225,0.5,95,140.0
2603,C3,337.225,0.5,95,140.0
2604,E3,337.5,0.5,95,140.0
2605,E3,337.5,0.5,95,140.0
2606,E4,337.5,0.469,95,140.0
2607,B3,337.5,0.469,95,140.0
2608,G3,337.5,0.469,95,140.0
2609,G3,337.725,0.5,95,140.0
2610,C3,337.725,0.5,95,140.0
2611,A2,338.0,1.0,95,140.0
2612,E3,338.0,0.5,95,140.0
2613,E3,338.0,0.5,95,140.0
2614,E3,338.062,0.938,95,140.0
2615,G3,338.125,0.875,95,140.0
2616,B3,338.188,0.812,95,140.0
2617,G3,338.225,0.5,95,140.0
2618,C3,338.225,0.5,95,140.0
2619,G3,338.5,0.5,95,140.0
2620,G3,338.5,0.5,95,140.0
2621,G3,338.725,0.5,95,140.0
2622,C3,338.725,0.5,95,140.0
2623,E4,339.0,0.469,95,140.0
2624,B3,339.0,0.469,95,140.0
2625,G3,339.0,0.469,95,140.0
2626,E2,339.225,73/500,95,140.0
2627,E3,339.225,0.5,95,140.0
2628,B2,339.225,0.5,95,140.0
2629,A3,339.5,0.5,95,140.0
2630,A3,339.5,0.5,95,140.0
2631,E4,339.5,0.469,95,140.0
2632,B3,339.5,0.469,95,140.0
2633,G3,339.5,0.469,95,140.0
2634,E2,339.725,73/500,95,140.0
2635,E3,339.725,0.5,95,140.0
2636,B2,339.725,0.5,95,140.0
2637,E2,340.0,1.0,95,140.0
2638,A3,340.0,0.5,95,140.0
2639,A3,340.0,0.5,95,140.0
2640,B2,340.062,0.938,95,140.0
2641,E3,340.125,0.875,95,140.0
2642,G3,340.188,0.812,95,140.0
2643,E2,340.225,73/500,95,140.0
2644,E3,340.225,0.5,95,140.0
2645,B2,340.225,0.5,95,140.0
2646,B3,340.25,0.75,95,140.0
2647,E4,340.312,0.688,95,140.0
2648,A3,340.5,0.5,95,140.0
2649,A3,340.5,0.5,95,140.0
2650,E2,340.725,73/500,95,140.0
2651,E3,340.725,0.5,95,140.0
2652,B2,340.725,0.5,95,140.0
2653,B2,341.0,0.469,95,140.0
2654,E3,341.0,0.469,95,140.0
2655,G3,341.0,0.469,95,140.0
2656,E2,341.225,73/500,95,140.0
2657,E3,341.225,0.5,95,140.0
2658,B2,341.225,0.5,95,140.0
2659,A3,341.5,0.5,95,140.0
2660,A3,341.5,0.5,95,140.0
2661,E4,341.5,0.469,95,140.0
2662,B3,341.5,0.469,95,140.0
2663,G3,341.5,0.469,95,140.0
2664,E2,341.725,73/500,95,140.0
2665,E3,341.725,0.5,95,140.0
2666,B2,341.725,0.5,95,140.0
2667,A2,342.0,1.0,95,140.0
2668,A3,342.0,0.5,95,140.0
2669,A3,342.0,0.5,95,140.0
2670,E3,342.062,0.938,95,140.0
2671,G3,342.125,0.875,95,140.0
2672,B3,342.188,0.812,95,140.0
2673,E2,342.225,73/500,95,140.0
2674,E3,342.225,0.5,95,140.0
2675,B2,342.225,0.5,95,140.0
2676,C4,342.5,0.5,95,140.0
2677,C4,342.5,0.5,95,140.0
2678,E2,342.725,73/500,95,140.0
2679,E3,342.725,0.5,95,140.0
2680,B2,342.725,0.5,95,140.0
2681,E4,343.0,0.469,95,140.0
2682,B3,343.0,0.469,95,140.0
2683,G3,343.0,0.469,95,140.0
2684,E2,343.225,73/500,95,140.0
2685,E3,343.225,0.5,95,140.0
2686,B2,343.225,0.5,95,140.0
2687,A3,343.5,0.5,95,140.0
2688,A3,343.5,0.5,95,140.0
2689,E4,343.5,0.469,95,140.0
2690,B3,343.5,0.469,95,140.0
2691,G3,343.5,0.469,95,140.0
2692,E2,343.725,73/500,95,140.0
2693,E3,343.725,0.5,95,140.0
2694,B2,343.725,0.5,95,140.0
2695,A2,344.0,1.0,95,140.0
2696,A3,344.0,0.5,95,140.0
2697,A3,344.0,0.5,95,140.0
2698,E3,344.062,0.938,95,140.0
2699,A3,344.125,0.875,95,140.0
2700,C4,344.188,0.812,95,140.0
2701,E3,344.225,3.0,95,140.0
2702,B2,344.225,3.0,95,140.0
2703,E2,344.225,3.0,95,140.0
2704,E4,344.25,0.75,95,140.0
2705,A2,345.0,0.469,95,140.0
2706,E3,345.0,0.469,95,140.0
2707,A3,345.0,0.469,95,140.0
2708,A3,345.5,0.5,95,140.0
2709,A3,345.5,0.5,95,140.0
2710,E4,345.5,0.469,95,140.0
2711,C4,345.5,0.469,95,140.0
2712,A3,345.5,0.469,95,140.0
2713,A2,346.0,1.0,95,140.0
2714,A3,346.0,0.5,95,140.0
2715,A3,346.0,0.5,95,140.0
2716,E3,346.062,0.938,95,140.0
2717,A3,346.125,0.875,95,140.0
2718,C4,346.188,0.812,95,140.0
2719,C4,346.5,0.5,95,140.0
2720,C4,346.5,0.5,95,140.0
2721,E4,347.0,0.469,95,140.0
2722,C4,347.0,0.469,95,140.0
2723,A3,347.0,0.469,95,140.0
2724,A2,347.225,73/500,95,140.0
2725,A3,347.225,0.5,95,140.0
2726,E3,347.225,0.5,95,140.0
2727,C4,347.5,0.5,95,140.0
2728,C4,347.5,0.5,95,140.0
2729,E4,347.5,0.469,95,140.0
2730,C4,347.5,0.469,95,140.0
2731,A3,347.5,0.469,95,140.0
2732,A2,347.725,73/500,95,140.0
2733,A3,347.725,0.5,95,140.0
2734,E3,347.725,0.5,95,140.0
2735,A2,348.0,1.0,95,140.0
2736,C4,348.0,0.5,95,140.0
2737,C4,348.0,0.5,95,140.0
2738,E3,348.062,0.938,95,140.0
2739,A3,348.125,0.875,95,140.0
2740,C4,348.188,0.812,95,140.0
2741,A2,348.225,73/500,95,140.0
2742,A3,348.225,0.5,95,140.0
2743,E3,348.225,0.5,95,140.0
2744,E4,348.25,0.75,95,140.0
2745,C4,348.5,0.5,95,140.0
2746,C4,348.5,0.5,95,140.0
2747,A2,348.725,73/500,95,140.0
2748,A3,348.725,0.5,95,140.0
2749,E3,348.725,0.5,95,140.0
2750,A2,349.0,0.469,95,140.0
2751,E3,349.0,0.469,95,140.0
2752,A3,349.0,0.469,95,140.0
2753,A2,349.225,73/500,95,140.0
2754,A3,349.225,0.5,95,140.0
2755,E3,349.225,0.5,95,140.0
2756,C4,349.5,0.5,95,140.0
2757,C4,349.5,0.5,95,140.0
2758,E4,349.5,0.469,95,140.0
2759,C4,349.5,0.469,95,140.0
2760,A3,349.5,0.469,95,140.0
2761,A2,349.725,73/500,95,140.0
2762,A3,349.725,0.5,95,140.0
2763,E3,349.725,0.5,95,140.0
2764,A2,350.0,1.0,95,140.0
2765,C4,350.0,0.5,95,140.0
2766,C4,350.0,0.5,95,140.0
2767,E3,350.062,0.938,95,140.0
2768,A3,350.125,0.875,95,140.0
2769,C4,350.188,0.812,95,140.0
2770,A3,350.225,1.0,95,140.0
2771,E3,350.225,1.0,95,140.0
2772,A2,350.225,1.0,95,140.0
2773,E4,350.5,0.5,95,140.0
2774,E4,350.5,0.5,95,140.0
2775,E4,351.0,0.469,95,140.0
2776,C4,351.0,0.469,95,140.0
2777,A3,351.0,0.469,95,140.0
2778,B3,351.5,0.5,95,140.0
2779,B3,351.5,0.5,95,140.0
2780,E4,351.5,0.469,95,140.0
2781,C4,351.5,0.469,95,140.0
2782,A3,351.5,0.469,95,140.0
2783,D4,352.0,3.0,95,140.0
2784,D4,352.0,3.0,95,140.0
2785,D3,352.0,0.969,95,140.0
2786,B3,352.0,0.969,95,140.0
2787,D4,352.062,0.906,95,140.0
2788,G4,352.062,0.906,95,140.0
2789,D3,353.0,0.453,95,140.0
2790,B3,353.0,0.453,95,140.0
2791,D4,353.0,0.453,95,140.0
2792,G4,353.0,0.453,95,140.0
2793,G4,353.5,0.969,95,140.0
2794,D4,353.5,0.969,95,140.0
2795,B3,353.562,0.938,95,140.0
2796,G4,354.5,0.469,95,140.0
2797,D4,354.5,0.469,95,140.0
2798,B3,354.5,0.469,95,140.0
2799,D4,355.0,0.5,95,140.0
2800,D4,355.0,0.5,95,140.0
2801,A3,355.225,4.0,95,140.0
2802,E3,355.225,4.0,95,140.0
2803,A2,355.225,4.0,95,140.0
2804,C4,355.5,0.5,95,140.0
2805,C4,355.5,0.5,95,140.0
2806,G4,355.5,0.469,95,140.0
2807,D4,355.5,0.469,95,140.0
2808,B3,355.5,0.469,95,140.0
2809,B3,356.0,0.5,95,140.0
2810,B3,356.0,0.5,95,140.0
2811,G3,356.0,0.5,95,140.0
2812,D3,356.0,0.5,95,140.0
2813,G2,356.0,0.5,95,140.0
2814,A4,358.0,667/1000,95,140.0
2815,F4,358.0,667/1000,95,140.0
2816,A4,358.0,667/1000,95,140.0
2817,F4,358.0,667/1000,95,140.0
2818,A4,358.667,667/1000,95,140.0
2819,F4,358.667,667/1000,95,140.0
2820,A4,358.667,667/1000,95,140.0
2821,F4,358.667,667/1000,95,140.0
2822,D3,359.225,0.5,95,140.0
2823,G2,359.225,73/500,95,140.0
2824,A4,359.333,667/1000,95,140.0
2825,F4,359.333,667/1000,95,140.0
2826,A4,359.333,667/1000,95,140.0
2827,F4,359.333,667/1000,95,140.0
2828,D3,359.725,0.5,95,140.0
2829,G2,359.725,73/500,95,140.0
2830,C3,360.0,0.969,95,140.0
2831,E3,360.0,0.969,95,140.0
2832,G4,360.0,4.0,95,140.0
2833,E4,360.0,4.0,95,140.0
2834,G4,360.0,4.0,95,140.0
2835,E4,360.0,4.0,95,140.0
2836,G3,360.062,0.906,95,140.0
2837,C4,360.062,0.906,95,140.0
2838,E4,360.125,0.875,95,140.0
2839,D3,360.225,0.5,95,140.0
2840,G2,360.225,73/500,95,140.0
2841,D3,360.725,0.5,95,140.0
2842,G2,360.725,73/500,95,140.0
2843,C3,361.0,0.453,95,140.0
2844,E3,361.0,0.453,95,140.0
2845,G3,361.0,0.453,95,140.0
2846,C4,361.0,0.453,95,140.0
2847,D3,361.225,2.0,95,140.0
2848,G2,361.225,2.0,95,140.0
2849,E4,361.5,0.969,95,140.0
2850,C4,361.5,0.969,95,140.0
2851,G3,361.562,0.938,95,140.0
2852,E4,362.5,0.469,95,140.0
2853,C4,362.5,0.469,95,140.0
2854,G3,362.5,0.469,95,140.0
2855,D3,363.225,0.5,95,140.0
2856,G2,363.225,0.5,95,140.0
2857,E4,363.5,0.469,95,140.0
2858,C4,363.5,0.469,95,140.0
2859,G3,363.5,0.469,95,140.0
2860,G3,365.5,0.5,95,140.0
2861,C3,365.5,0.5,95,140.0
2862,C5,365.5,0.5,95,140.0
2863,C5,365.5,0.5,95,140.0
2864,C5,365.5,0.5,95,140.0
2865,C5,365.5,0.5,95,140.0
2866,F#3,366.5,0.5,95,140.0
2867,B2,366.5,0.5,95,140.0
2868,B4,366.5,0.5,95,140.0
2869,B4,366.5,0.5,95,140.0
2870,B4,366.5,0.5,95,140.0
2871,B4,366.5,0.5,95,140.0
2872,E3,367.5,0.5,95,140.0
2873,A2,367.5,0.5,95,140.0
2874,A4,367.5,0.5,127,140.0
2875,A4,367.5,0.5,127,140.0
2876,A4,367.5,0.5,127,140.0
2877,A4,367.5,0.5,127,140.0
2878,E3,368.0,1.0,95,140.0
2879,A2,368.0,1.0,95,140.0
2880,A4,368.0,4.0,127,140.0
2881,A4,368.0,4.0,127,140.0
2882,A4,368.0,4.0,127,140.0
2883,A4,368.0,4.0,127,140.0
2884,C3,369.0,0.5,95,140.0
2885,D3,369.5,0.5,95,140.0
2886,E3,370.0,0.5,95,140.0
2887,F3,370.5,0.5,95,140.0
2888,G3,371.0,0.5,95,140.0
2889,A3,371.5,0.5,95,140.0
2890,B3,372.0,0.5,95,140.0
2891,C4,372.5,0.5,95,140.0
2892,G3,372.725,0.5,95,140.0
2893,C3,372.725,0.5,95,140.0
2894,A2,373.5,73/1000,95,140.0
2895,D3,373.5,0.5,95,140.0
2896,G2,373.5,0.5,95,140.0
2897,G4,373.5,0.5,95,140.0
2898,G4,373.5,0.5,95,140.0
2899,G4,373.5,0.5,95,140.0
2900,G4,373.5,0.5,95,140.0
2901,F#3,373.725,0.5,95,140.0
2902,B2,373.725,0.5,95,140.0
2903,A2,374.5,73/1000,95,140.0
2904,D3,374.5,0.5,95,140.0
2905,G2,374.5,0.5,95,140.0
2906,G4,374.5,0.5,95,140.0
2907,G4,374.5,0.5,95,140.0
2908,G4,374.5,0.5,95,140.0
2909,G4,374.5,0.5,95,140.0
2910,E3,374.725,0.5,95,140.0
2911,A2,374.725,0.5,95,140.0
2912,E3,375.225,1.0,95,140.0
2913,A2,375.225,1.0,95,140.0
2914,G3,375.5,0.5,95,140.0
2915,C3,375.5,0.5,95,140.0
2916,C5,375.5,0.5,111,140.0
2917,C5,375.5,0.5,111,140.0
2918,C5,375.5,0.5,111,140.0
2919,C5,375.5,0.5,111,140.0
2920,G3,376.0,4.0,95,140.0
2921,C3,376.0,4.0,95,140.0
2922,C5,376.0,4.0,111,140.0
2923,C5,376.0,4.0,111,140.0
2924,C5,376.0,4.0,111,140.0
2925,C5,376.0,4.0,111,140.0
2926,C3,376.225,73/500,95,140.0
2927,D3,376.725,73/500,95,140.0
2928,E3,377.225,73/500,95,140.0
2929,F3,377.725,73/500,95,140.0
2930,G3,378.225,73/500,95,140.0
2931,A3,378.725,73/500,95,140.0
2932,B3,379.225,73/500,95,140.0
2933,C4,379.725,73/500,95,140.0
2934,A2,380.725,73/1000,95,140.0
2935,D3,380.725,0.5,95,140.0
2936,G2,380.725,0.5,95,140.0
2937,G3,381.5,0.5,95,140.0
2938,C3,381.5,0.5,95,140.0
2939,C5,381.5,0.5,95,140.0
2940,C5,381.5,0.5,95,140.0
2941,C5,381.5,0.5,95,140.0
2942,C5,381.5,0.5,95,140.0
2943,A2,381.725,73/1000,95,140.0
2944,D3,381.725,0.5,95,140.0
2945,G2,381.725,0.5,95,140.0
2946,F#3,382.5,0.5,95,140.0
2947,B2,382.5,0.5,95,140.0
2948,B4,382.5,0.5,95,140.0
2949,B4,382.5,0.5,95,140.0
2950,B4,382.5,0.5,95,140.0
2951,B4,382.5,0.5,95,140.0
2952,G3,382.725,0.5,95,140.0
2953,C3,382.725,0.5,95,140.0
2954,G3,383.225,4.0,95,140.0
2955,C3,383.225,4.0,95,140.0
2956,E3,383.5,0.5,95,140.0
2957,A2,383.5,0.5,95,140.0
2958,A4,383.5,0.5,127,140.0
2959,A4,383.5,0.5,127,140.0
2960,A4,383.5,0.5,127,140.0
2961,A4,383.5,0.5,127,140.0
2962,E3,384.0,1.0,95,140.0
2963,A2,384.0,1.0,95,140.0
2964,A4,384.0,4.0,127,140.0
2965,A4,384.0,4.0,127,140.0
2966,A4,384.0,4.0,127,140.0
2967,A4,384.0,4.0,127,140.0
2968,C3,385.0,0.5,95,140.0
2969,D3,385.5,0.5,95,140.0
2970,E3,386.0,0.5,95,140.0
2971,F3,386.5,0.5,95,140.0
2972,G3,387.0,0.5,95,140.0
2973,A3,387.5,0.5,95,140.0
2974,B3,388.0,0.5,95,140.0
2975,C4,388.5,0.5,95,140.0
2976,G3,388.725,0.5,95,140.0
2977,C3,388.725,0.5,95,140.0
2978,A2,389.5,73/1000,95,140.0
2979,D3,389.5,0.5,95,140.0
2980,G2,389.5,0.5,95,140.0
2981,G4,389.5,0.5,95,140.0
2982,G4,389.5,0.5,95,140.0
2983,G4,389.5,0.5,95,140.0
2984,G4,389.5,0.5,95,140.0
2985,F#3,389.725,0.5,95,140.0
2986,B2,389.725,0.5,95,140.0
2987,A2,390.5,73/1000,95,140.0
2988,D3,390.5,0.5,95,140.0
2989,G2,390.5,0.5,95,140.0
2990,G4,390.5,0.5,95,140.0
2991,G4,390.5,0.5,95,140.0
2992,G4,390.5,0.5,95,140.0
2993,G4,390.5,0.5,95,140.0
2994,E3,390.725,0.5,95,140.0
2995,A2,390.725,0.5,95,140.0
2996,E3,391.225,1.0,95,140.0
2997,A2,391.225,1.0,95,140.0
2998,C3,391.5,73/1000,95,140.0
2999,D3,391.5,0.5,95,140.0
3000,G2,391.5,0.5,95,140.0
3001,G4,391.5,0.5,111,140.0
3002,G4,391.5,0.5,111,140.0
3003,G4,391.5,0.5,111,140.0
3004,G4,391.5,0.5,111,140.0
3005,C3,392.0,73/500,95,140.0
3006,F2,392.0,73/500,95,140.0
3007,F4,392.0,4.0,95,140.0
3008,F4,392.0,4.0,95,140.0
3009,F4,392.0,4.0,95,140.0
3010,F4,392.0,4.0,95,140.0
3011,C3,392.225,73/500,95,140.0
3012,C3,392.5,73/500,95,140.0
3013,F2,392.5,73/500,95,140.0
3014,D3,392.725,73/500,95,140.0
3015,C3,393.0,73/500,95,140.0
3016,F2,393.0,73/500,95,140.0
3017,E3,393.225,73/500,95,140.0
3018,C3,393.5,73/500,95,140.0
3019,F2,393.5,73/500,95,140.0
3020,F3,393.725,73/500,95,140.0
3021,C3,394.0,73/500,95,140.0
3022,F2,394.0,73/500,95,140.0
3023,G3,394.225,73/500,95,140.0
3024,C3,394.5,73/500,95,140.0
3025,F2,394.5,73/500,95,140.0
3026,A3,394.725,73/500,95,140.0
3027,C3,395.0,73/500,95,140.0
3028,F2,395.0,73/500,95,140.0
3029,B3,395.225,73/500,95,140.0
3030,C3,395.5,73/500,95,140.0
3031,F2,395.5,73/500,95,140.0
3032,C4,395.725,73/500,95,140.0
3033,D3,396.0,73/500,95,140.0
3034,G2,396.0,73/500,95,140.0
3035,G4,396.0,4.0,95,140.0
3036,G4,396.0,4.0,95,140.0
3037,G4,396.0,4.0,95,140.0
3038,G4,396.0,4.0,95,140.0
3039,D3,396.5,73/500,95,140.0
3040,G2,396.5,73/500,95,140.0
3041,A2,396.725,73/1000,95,140.0
3042,D3,396.725,0.5,95,140.0
3043,G2,396.725,0.5,95,140.0
3044,D3,397.0,73/500,95,140.0
3045,G2,397.0,73/500,95,140.0
3046,D3,397.5,73/500,95,140.0
3047,G2,397.5,73/500,95,140.0
3048,A2,397.725,73/1000,95,140.0
3049,D3,397.725,0.5,95,140.0
3050,G2,397.725,0.5,95,140.0
3051,D3,398.0,73/500,95,140.0
3052,G2,398.0,73/500,95,140.0
3053,D3,398.5,73/500,95,140.0
3054,G2,398.5,73/500,95,140.0
3055,C3,398.725,73/1000,95,140.0
3056,D3,398.725,0.5,95,140.0
3057,G2,398.725,0.5,95,140.0
3058,D3,399.0,73/500,95,140.0
3059,G2,399.0,73/500,95,140.0
3060,C3,399.225,73/500,95,140.0
3061,F2,399.225,73/500,95,140.0
3062,D3,399.5,73/500,95,140.0
3063,G2,399.5,73/500,95,140.0
3064,C3,399.725,73/500,95,140.0
3065,F2,399.725,73/500,95,140.0
3066,C3,400.0,1.0,95,140.0
3067,E3,400.062,0.938,95,140.0
3068,G3,400.125,0.875,95,140.0
3069,C4,400.188,0.812,95,140.0
3070,C3,400.225,73/500,95,140.0
3071,F2,400.225,73/500,95,140.0
3072,E4,400.25,0.75,95,140.0
3073,C3,400.725,73/500,95,140.0
3074,F2,400.725,73/500,95,140.0
3075,C3,401.0,0.469,95,140.0
3076,E3,401.0,0.469,95,140.0
3077,G3,401.0,0.469,95,140.0
3078,C3,401.225,73/500,95,140.0
3079,F2,401.225,73/500,95,140.0
3080,E4,401.5,0.469,95,140.0
3081,C4,401.5,0.469,95,140.0
3082,G3,401.5,0.469,95,140.0
3083,C3,401.725,73/500,95,140.0
3084,F2,401.725,73/500,95,140.0
3085,C3,402.0,1.0,95,140.0
3086,E3,402.062,0.938,95,140.0
3087,G3,402.125,0.875,95,140.0
3088,C4,402.188,0.812,95,140.0
3089,C3,402.225,73/500,95,140.0
3090,F2,402.225,73/500,95,140.0
3091,C3,402.725,73/500,95,140.0
3092,F2,402.725,73/500,95,140.0
3093,E4,403.0,0.469,95,140.0
3094,C4,403.0,0.469,95,140.0
3095,G3,403.0,0.469,95,140.0
3096,D3,403.225,73/500,95,140.0
3097,G2,403.225,73/500,95,140.0
3098,E4,403.5,0.469,95,140.0
3099,C4,403.5,0.469,95,140.0
3100,G3,403.5,0.469,95,140.0
3101,D3,403.725,73/500,95,140.0
3102,G2,403.725,73/500,95,140.0
3103,E2,404.0,1.0,95,140.0
3104,B2,404.062,0.938,95,140.0
3105,E3,404.125,0.875,95,140.0
3106,G3,404.188,0.812,95,140.0
3107,D3,404.225,73/500,95,140.0
3108,G2,404.225,73/500,95,140.0
3109,B3,404.25,0.75,95,140.0
3110,E4,404.312,0.688,95,140.0
3111,D3,404.725,73/500,95,140.0
3112,G2,404.725,73/500,95,140.0
3113,B2,405.0,0.469,95,140.0
3114,E3,405.0,0.469,95,140.0
3115,G3,405.0,0.469,95,140.0
3116,D3,405.225,73/500,95,140.0
3117,G2,405.225,73/500,95,140.0
3118,E4,405.5,0.469,95,140.0
3119,B3,405.5,0.469,95,140.0
3120,G3,405.5,0.469,95,140.0
3121,D3,405.725,73/500,95,140.0
3122,G2,405.725,73/500,95,140.0
3123,A2,406.0,1.0,95,140.0
3124,E3,406.062,0.938,95,140.0
3125,G3,406.125,0.875,95,140.0
3126,B3,406.188,0.812,95,140.0
3127,D3,406.225,73/500,95,140.0
3128,G2,406.225,73/500,95,140.0
3129,D3,406.725,73/500,95,140.0
3130,G2,406.725,73/500,95,140.0
3131,E4,407.0,0.469,95,140.0
3132,B3,407.0,0.469,95,140.0
3133,G3,407.0,0.469,95,140.0
3134,E4,407.225,0.5,95,140.0
3135,E5,407.225,0.5,95,140.0
3136,E4,407.5,0.469,95,140.0
3137,B3,407.5,0.469,95,140.0
3138,G3,407.5,0.469,95,140.0
3139,E4,407.725,0.5,95,140.0
3140,E5,407.725,0.5,95,140.0
3141,A2,408.0,1.0,95,140.0
3142,E3,408.062,0.938,95,140.0
3143,A3,408.125,0.875,95,140.0
3144,C4,408.188,0.812,95,140.0
3145,E4,408.225,0.5,95,140.0
3146,E5,408.225,0.5,95,140.0
3147,E4,408.25,0.75,95,140.0
3148,F5,408.725,0.5,95,140.0
3149,F4,408.725,0.5,95,140.0
3150,A2,409.0,0.469,95,140.0
3151,E3,409.0,0.469,95,140.0
3152,A3,409.0,0.469,95,140.0
3153,E4,409.5,0.469,95,140.0
3154,C4,409.5,0.469,95,140.0
3155,A3,409.5,0.469,95,140.0
3156,G5,409.725,0.5,95,140.0
3157,G4,409.725,0.5,95,140.0
3158,A2,410.0,1.0,95,140.0
3159,E3,410.062,0.938,95,140.0
3160,A3,410.125,0.875,95,140.0
3161,C4,410.188,0.812,95,140.0
3162,G5,410.225,1.0,47,140.0
3163,G4,410.225,1.0,47,140.0
3164,E4,411.0,0.469,95,140.0
3165,C4,411.0,0.469,95,140.0
3166,A3,411.0,0.469,95,140.0
3167,E4,411.225,0.5,95,140.0
3168,E5,411.225,0.5,95,140.0
3169,E4,411.5,0.469,95,140.0
3170,C4,411.5,0.469,95,140.0
3171,A3,411.5,0.469,95,140.0
3172,E4,411.725,0.5,95,140.0
3173,E5,411.725,0.5,95,140.0
3174,A2,412.0,1.0,95,140.0
3175,E3,412.062,0.938,95,140.0
3176,A3,412.125,0.875,95,140.0
3177,C4,412.188,0.812,95,140.0
3178,E4,412.225,0.5,95,140.0
3179,E5,412.225,0.5,95,140.0
3180,E4,412.25,0.75,95,140.0
3181,F5,412.725,0.5,95,140.0
3182,F4,412.725,0.5,95,140.0
3183,A2,413.0,0.469,95,140.0
3184,E3,413.0,0.469,95,140.0
3185,A3,413.0,0.469,95,140.0
3186,E4,413.5,0.469,95,140.0
3187,C4,413.5,0.469,95,140.0
3188,A3,413.5,0.469,95,140.0
3189,G5,413.725,0.5,95,140.0
3190,G4,413.725,0.5,95,140.0
3191,A2,414.0,1.0,95,140.0
3192,E3,414.062,0.938,95,140.0
3193,A3,414.125,0.875,95,140.0
3194,C4,414.188,0.812,95,140.0
3195,G5,414.225,1.0,47,140.0
3196,G4,414.225,1.0,47,140.0
3197,E4,415.0,0.469,95,140.0
3198,C4,415.0,0.469,95,140.0
3199,A3,415.0,0.469,95,140.0
3200,E4,415.225,0.5,95,140.0
3201,E5,415.225,0.5,95,140.0
3202,E4,415.5,0.469,95,140.0
3203,C4,415.5,0.469,95,140.0
3204,A3,415.5,0.469,95,140.0
3205,E4,415.725,0.5,95,140.0
3206,E5,415.725,0.5,95,140.0
3207,C3,416.0,0.969,95,140.0
3208,F3,416.0,0.969,95,140.0
3209,A3,416.062,0.906,95,140.0
3210,C4,416.062,0.906,95,140.0
3211,F4,416.125,0.875,95,140.0
3212,E4,416.225,0.5,95,140.0
3213,E5,416.225,0.5,95,140.0
3214,F5,416.725,0.5,95,140.0
3215,F4,416.725,0.5,95,140.0
3216,C3,417.0,0.453,95,140.0
3217,F3,417.0,0.453,95,140.0
3218,A3,417.0,0.453,95,140.0
3219,C4,417.0,0.453,95,140.0
3220,F4,417.5,0.969,95,140.0
3221,C4,417.5,0.969,95,140.0
3222,A3,417.562,0.938,95,140.0
3223,G5,417.725,0.5,95,140.0
3224,G4,417.725,0.5,95,140.0
3225,G5,418.225,1.0,47,140.0
3226,G4,418.225,1.0,47,140.0
3227,F4,418.5,0.469,95,140.0
3228,C4,418.5,0.469,95,140.0
3229,A3,418.5,0.469,95,140.0
3230,E4,419.225,0.5,95,140.0
3231,E5,419.225,0.5,95,140.0
3232,F4,419.5,0.469,95,140.0
3233,C4,419.5,0.469,95,140.0
3234,A3,419.5,0.469,95,140.0
3235,E4,419.725,0.5,95,140.0
3236,E5,419.725,0.5,95,140.0
3237,D3,420.0,0.969,95,140.0
3238,B3,420.0,0.969,95,140.0
3239,D4,420.062,0.906,95,140.0
3240,G4,420.062,0.906,95,140.0
3241,E4,420.225,0.5,95,140.0
3242,E5,420.225,0.5,95,140.0
3243,F5,420.725,0.5,95,140.0
3244,F4,420.725,0.5,95,140.0
3245,D3,421.0,0.453,95,140.0
3246,B3,421.0,0.453,95,140.0
3247,D4,421.0,0.453,95,140.0
3248,G4,421.0,0.453,95,140.0
3249,G4,421.5,0.969,95,140.0
3250,D4,421.5,0.969,95,140.0
3251,B3,421.562,0.938,95,140.0
3252,G5,421.725,0.5,95,140.0
3253,G4,421.725,0.5,95,140.0
3254,G5,422.225,1.0,47,140.0
3255,G4,422.225,1.0,47,140.0
3256,G4,422.5,0.469,95,140.0
3257,D4,422.5,0.469,95,140.0
3258,B3,422.5,0.469,95,140.0
3259,G4,423.5,0.469,95,140.0
3260,D4,423.5,0.469,95,140.0
3261,B3,423.5,0.469,95,140.0
3262,D4,423.725,2.5,95,140.0
3263,C3,424.0,0.969,95,140.0
3264,E3,424.0,0.969,95,140.0
3265,G3,424.062,0.906,95,140.0
3266,C4,424.062,0.906,95,140.0
3267,E4,424.125,0.875,95,140.0
3268,C3,425.0,0.453,95,140.0
3269,E3,425.0,0.453,95,140.0
3270,G3,425.0,0.453,95,140.0
3271,C4,425.0,0.453,95,140.0
3272,E4,425.5,0.969,95,140.0
3273,C4,425.5,0.969,95,140.0
3274,G3,425.562,0.938,95,140.0
3275,C5,426.225,0.5,95,140.0
3276,E4,426.5,0.469,95,140.0
3277,C4,426.5,0.469,95,140.0
3278,G3,426.5,0.469,95,140.0
3279,D4,426.725,0.5,95,140.0
3280,D4,427.225,0.5,95,140.0
3281,E4,427.5,0.469,95,140.0
3282,C4,427.5,0.469,95,140.0
3283,G3,427.5,0.469,95,140.0
3284,C4,427.725,0.5,95,140.0
3285,C3,428.0,0.969,95,140.0
3286,E3,428.0,0.969,95,140.0
3287,G3,428.062,0.906,95,140.0
3288,C4,428.062,0.906,95,140.0
3289,E4,428.125,0.875,95,140.0
3290,D4,428.225,3.0,95,140.0
3291,C3,429.0,0.453,95,140.0
3292,E3,429.0,0.453,95,140.0
3293,G3,429.0,0.453,95,140.0
3294,C4,429.0,0.453,95,140.0
3295,E4,429.5,0.969,95,140.0
3296,C4,429.5,0.969,95,140.0
3297,G3,429.562,0.938,95,140.0
3298,E4,430.5,0.469,95,140.0
3299,C4,430.5,0.469,95,140.0
3300,G3,430.5,0.469,95,140.0
3301,C3,431.225,0.5,95,140.0
3302,E4,431.5,0.469,95,140.0
3303,C4,431.5,0.469,95,140.0
3304,G3,431.5,0.469,95,140.0
3305,D3,431.725,0.25,95,140.0
3306,E3,431.975,0.25,95,140.0
3307,C3,432.0,1.0,95,140.0
3308,E3,432.062,0.938,95,140.0
3309,G3,432.125,0.875,95,140.0
3310,C4,432.188,0.812,95,140.0
3311,G3,432.225,0.5,95,140.0
3312,E4,432.25,0.75,95,140.0
3313,A3,432.725,0.5,95,140.0
3314,C3,433.0,0.469,95,140.0
3315,E3,433.0,0.469,95,140.0
3316,G3,433.0,0.469,95,140.0
3317,C4,433.225,0.5,95,140.0
3318,E4,433.5,0.469,95,140.0
3319,C4,433.5,0.469,95,140.0
3320,G3,433.5,0.469,95,140.0
3321,A3,433.725,0.5,95,140.0
3322,C3,434.0,1.0,95,140.0
3323,E3,434.062,0.938,95,140.0
3324,G3,434.125,0.875,95,140.0
3325,C4,434.188,0.812,95,140.0
3326,C4,434.225,0.5,95,140.0
3327,D4,434.725,0.5,95,140.0
3328,E4,435.0,0.469,95,140.0
3329,C4,435.0,0.469,95,140.0
3330,G3,435.0,0.469,95,140.0
3331,D4,435.225,0.25,95,140.0
3332,E4,435.475,0.25,95,140.0
3333,E4,435.5,0.469,95,140.0
3334,C4,435.5,0.469,95,140.0
3335,G3,435.5,0.469,95,140.0
3336,G4,435.725,0.5,95,140.0
3337,E2,436.0,1.0,95,140.0
3338,B2,436.062,0.938,95,140.0
3339,E3,436.125,0.875,95,140.0
3340,G3,436.188,0.812,95,140.0
3341,A4,436.225,0.5,95,140.0
3342,B3,436.25,0.75,95,140.0
3343,E4,436.312,0.688,95,140.0
3344,C5,436.725,2.5,95,140.0
3345,B2,437.0,0.469,95,140.0
3346,E3,437.0,0.469,95,140.0
3347,G3,437.0,0.469,95,140.0
3348,E4,437.5,0.469,95,140.0
3349,B3,437.5,0.469,95,140.0
3350,G3,437.5,0.469,95,140.0
3351,A2,438.0,1.0,95,140.0
3352,E3,438.062,0.938,95,140.0
3353,G3,438.125,0.875,95,140.0
3354,B3,438.188,0.812,95,140.0
3355,E4,439.0,0.469,95,140.0
3356,B3,439.0,0.469,95,140.0
3357,G3,439.0,0.469,95,140.0
3358,C5,439.225,167/1000,95,140.0
3359,D5,439.392,167/1000,70,140.0
3360,E4,439.5,0.469,95,140.0
3361,B3,439.5,0.469,95,140.0
3362,G3,439.5,0.469,95,140.0
3363,C5,439.558,167/1000,70,140.0
3364,E4,439.725,0.5,95,140.0
3365,A2,440.0,1.0,95,140.0
3366,E3,440.062,0.938,95,140.0
3367,A3,440.125,0.875,95,140.0
3368,C4,440.188,0.812,95,140.0
3369,E4,440.225,0.5,95,140.0
3370,E4,440.25,0.75,95,140.0
3371,D5,440.725,167/1000,70,140.0
3372,E5,440.892,167/1000,70,140.0
3373,A2,441.0,0.469,95,140.0
3374,E3,441.0,0.469,95,140.0
3375,A3,441.0,0.469,95,140.0
3376,D5,441.058,167/1000,70,140.0
3377,E4,441.225,0.5,95,140.0
3378,E4,441.5,0.469,95,140.0
3379,C4,441.5,0.469,95,140.0
3380,A3,441.5,0.469,95,140.0
3381,E4,441.725,0.5,95,140.0
3382,A2,442.0,1.0,95,140.0
3383,E3,442.062,0.938,95,140.0
3384,A3,442.125,0.875,95,140.0
3385,C4,442.188,0.812,95,140.0
3386,C5,442.225,167/1000,70,140.0
3387,D5,442.392,167/1000,70,140.0
3388,C5,442.558,167/1000,70,140.0
3389,E4,442.725,0.5,95,140.0
3390,E4,443.0,0.469,95,140.0
3391,C4,443.0,0.469,95,140.0
3392,A3,443.0,0.469,95,140.0
3393,C5,443.225,167/1000,70,140.0
3394,D5,443.392,167/1000,70,140.0
3395,E4,443.5,0.469,95,140.0
3396,C4,443.5,0.469,95,140.0
3397,A3,443.5,0.469,95,140.0
3398,C5,443.558,167/1000,70,140.0
3399,E4,443.725,0.5,95,140.0
3400,C3,444.0,0.969,95,140.0
3401,F3,444.0,0.969,95,140.0
3402,A3,444.062,0.906,95,140.0
3403,C4,444.062,0.906,95,140.0
3404,F4,444.125,0.875,95,140.0
3405,E4,444.225,0.5,95,140.0
3406,D5,444.725,167/1000,70,140.0
3407,E5,444.892,167/1000,70,140.0
3408,C3,445.0,0.453,95,140.0
3409,F3,445.0,0.453,95,140.0
3410,A3,445.0,0.453,95,140.0
3411,C4,445.0,0.453,95,140.0
3412,D5,445.058,167/1000,70,140.0
3413,E4,445.225,0.5,95,140.0
3414,F4,445.5,0.969,95,140.0
3415,C4,445.5,0.969,95,140.0
3416,A3,445.562,0.938,95,140.0
3417,E4,445.725,0.5,95,140.0
3418,C5,446.225,167/1000,70,140.0
3419,D5,446.392,167/1000,70,140.0
3420,F4,446.5,0.469,95,140.0
3421,C4,446.5,0.469,95,140.0
3422,A3,446.5,0.469,95,140.0
3423,C5,446.558,167/1000,70,140.0
3424,E4,446.725,0.5,95,140.0
3425,C5,447.225,167/1000,70,140.0
3426,D5,447.392,167/1000,70,140.0
3427,F4,447.5,0.469,95,140.0
3428,C4,447.5,0.469,95,140.0
3429,A3,447.5,0.469,95,140.0
3430,C5,447.558,167/1000,70,140.0
3431,E4,447.725,0.5,95,140.0
3432,D3,448.0,0.969,95,140.0
3433,B3,448.0,0.969,95,140.0
3434,D4,448.062,0.906,95,140.0
3435,G4,448.062,0.906,95,140.0
3436,E4,448.225,0.5,95,140.0
3437,D5,448.725,167/1000,70,140.0
3438,E5,448.892,167/1000,70,140.0
3439,D3,449.0,0.453,95,140.0
3440,B3,449.0,0.453,95,140.0
3441,D4,449.0,0.453,95,140.0
3442,G4,449.0,0.453,95,140.0
3443,D5,449.058,167/1000,70,140.0
3444,E4,449.225,0.5,95,140.0
3445,G4,449.5,0.969,95,140.0
3446,D4,449.5,0.969,95,140.0
3447,B3,449.562,0.938,95,140.0
3448,E4,449.725,0.5,95,140.0
3449,C5,450.225,167/1000,70,140.0
3450,D5,450.392,167/1000,70,140.0
3451,G4,450.5,0.469,95,140.0
3452,D4,450.5,0.469,95,140.0
3453,B3,450.5,0.469,95,140.0
3454,C5,450.558,167/1000,70,140.0
3455,E4,450.725,0.5,95,140.0
3456,C5,451.225,167/1000,70,140.0
3457,D5,451.392,167/1000,70,140.0
3458,G4,451.5,0.469,95,140.0
3459,D4,451.5,0.469,95,140.0
3460,B3,451.5,0.469,95,140.0
3461,C5,451.558,167/1000,70,140.0
3462,E4,451.725,0.5,95,140.0
3463,D3,452.0,0.969,95,140.0
3464,B3,452.0,0.969,95,140.0
3465,D4,452.062,0.906,95,140.0
3466,G4,452.062,0.906,95,140.0
3467,E4,452.225,0.5,95,140.0
3468,D5,452.725,167/1000,70,140.0
3469,E5,452.892,167/1000,70,140.0
3470,D3,453.0,0.453,95,140.0
3471,B3,453.0,0.453,95,140.0
3472,D4,453.0,0.453,95,140.0
3473,G4,453.0,0.453,95,140.0
3474,D5,453.058,167/1000,70,140.0
3475,E4,453.225,0.5,95,140.0
3476,G4,453.5,0.969,95,140.0
3477,D4,453.5,0.969,95,140.0
3478,B3,453.562,0.938,95,140.0
3479,E4,453.725,0.5,95,140.0
3480,C5,454.225,167/1000,70,140.0
3481,D5,454.392,167/1000,70,140.0
3482,G4,454.5,0.469,95,140.0
3483,D4,454.5,0.469,95,140.0
3484,B3,454.5,0.469,95,140.0
3485,C5,454.558,167/1000,70,140.0
3486,E4,454.725,0.5,95,140.0
3487,A4,455.225,0.25,95,140.0
3488,E4,455.475,0.25,95,140.0
3489,G4,455.5,0.469,95,140.0
3490,D4,455.5,0.469,95,140.0
3491,B3,455.5,0.469,95,140.0
3492,E4,455.725,0.25,95,140.0
3493,B4,455.975,0.25,70,140.0
3494,C3,456.0,0.969,95,140.0
3495,E3,456.0,0.969,95,140.0
3496,G3,456.062,0.906,95,140.0
3497,C4,456.062,0.906,95,140.0
3498,E4,456.125,0.875,95,140.0
3499,E4,456.225,0.25,95,140.0
3500,E4,456.475,0.25,95,140.0
3501,C5,456.725,0.25,70,140.0
3502,E4,456.975,0.25,95,140.0
3503,C3,457.0,0.453,95,140.0
3504,E3,457.0,0.453,95,140.0
3505,G3,457.0,0.453,95,140.0
3506,C4,457.0,0.453,95,140.0
3507,E4,457.225,0.25,95,140.0
3508,B4,457.475,0.25,70,140.0
3509,E4,457.5,0.969,95,140.0
3510,C4,457.5,0.969,95,140.0
3511,G3,457.562,0.938,95,140.0
3512,E4,457.725,0.25,95,140.0
3513,E4,457.975,0.25,95,140.0
3514,A4,458.225,0.25,70,140.0
3515,E4,458.475,0.25,95,140.0
3516,E4,458.5,0.469,95,140.0
3517,C4,458.5,0.469,95,140.0
3518,G3,458.5,0.469,95,140.0
3519,B4,458.725,0.25,70,140.0
3520,E4,458.975,0.25,95,140.0
3521,B4,459.225,0.25,70,140.0
3522,E4,459.475,0.25,70,140.0
3523,E4,459.5,0.469,95,140.0
3524,C4,459.5,0.469,95,140.0
3525,G3,459.5,0.469,95,140.0
3526,E4,459.725,0.25,95,140.0
3527,C5,459.975,0.25,95,140.0
3528,C3,460.0,0.969,95,140.0
3529,E3,460.0,0.969,95,140.0
3530,G3,460.062,0.906,95,140.0
3531,C4,460.062,0.906,95,140.0
3532,E4,460.125,0.875,95,140.0
3533,E4,460.225,0.25,70,140.0
3534,E4,460.475,0.25,95,140.0
3535,D5,460.725,0.25,95,140.0
3536,E4,460.975,0.25,70,140.0
3537,C3,461.0,0.453,95,140.0
3538,E3,461.0,0.453,95,140.0
3539,G3,461.0,0.453,95,140.0
3540,C4,461.0,0.453,95,140.0
3541,E4,461.225,0.25,95,140.0
3542,C5,461.475,0.25,95,140.0
3543,E4,461.5,0.969,95,140.0
3544,C4,461.5,0.969,95,140.0
3545,G3,461.562,0.938,95,140.0
3546,E4,461.725,0.25,70,140.0
3547,E4,461.975,0.25,95,140.0
3548,B4,462.225,0.25,95,140.0
3549,E4,462.475,0.25,70,140.0
3550,E4,462.5,0.469,95,140.0
3551,C4,462.5,0.469,95,140.0
3552,G3,462.5,0.469,95,140.0
3553,C5,462.725,0.25,95,140.0
3554,E4,462.975,0.25,70,140.0
3555,C3,463.225,0.5,95,140.0
3556,G3,463.5,0.5,95,140.0
3557,G3,463.5,0.5,95,140.0
3558,E4,463.5,0.469,95,140.0
3559,C4,463.5,0.469,95,140.0
3560,G3,463.5,0.469,95,140.0
3561,D3,463.725,0.25,95,140.0
3562,E3,463.975,0.25,95,140.0
3563,C3,464.0,1.0,95,140.0
3564,C4,464.0,2.0,95,140.0
3565,C4,464.0,2.0,95,140.0
3566,E3,464.062,0.938,95,140.0
3567,G3,464.125,0.875,95,140.0
3568,C4,464.188,0.812,95,140.0
3569,G3,464.225,0.5,95,140.0
3570,E4,464.25,0.75,95,140.0
3571,A3,464.725,0.5,95,140.0
3572,C3,465.0,0.469,95,140.0
3573,E3,465.0,0.469,95,140.0
3574,G3,465.0,0.469,95,140.0
3575,C4,465.225,0.5,95,140.0
3576,E4,465.5,0.469,95,140.0
3577,C4,465.5,0.469,95,140.0
3578,G3,465.5,0.469,95,140.0
3579,A3,465.725,0.5,95,140.0
3580,C3,466.0,1.0,95,140.0
3581,C4,466.0,667/1000,95,140.0
3582,C4,466.0,667/1000,95,140.0
3583,E3,466.062,0.938,95,140.0
3584,G3,466.125,0.875,95,140.0
3585,C4,466.188,0.812,95,140.0
3586,C4,466.225,0.5,95,140.0
3587,D4,466.667,667/1000,95,140.0
3588,D4,466.667,667/1000,95,140.0
3589,D4,466.725,0.5,95,140.0
3590,E4,467.0,0.469,95,140.0
3591,C4,467.0,0.469,95,140.0
3592,G3,467.0,0.469,95,140.0
3593,D4,467.225,0.25,95,140.0
3594,E4,467.333,667/1000,95,140.0
3595,E4,467.333,667/1000,95,140.0
3596,E4,467.475,0.25,95,140.0
3597,E4,467.5,0.469,95,140.0
3598,C4,467.5,0.469,95,140.0
3599,G3,467.5,0.469,95,140.0
3600,G4,467.725,0.5,95,140.0
3601,E2,468.0,1.0,95,140.0
3602,B3,468.0,0.5,47,140.0
3603,E4,468.0,0.5,95,140.0
3604,B3,468.0,0.5,47,140.0
3605,E4,468.0,0.5,95,140.0
3606,B2,468.062,0.938,95,140.0
3607,E3,468.125,0.875,95,140.0
3608,G3,468.188,0.812,95,140.0
3609,A4,468.225,0.5,95,140.0
3610,B3,468.25,0.75,95,140.0
3611,E4,468.312,0.688,95,140.0
3612,B3,468.5,0.5,47,140.0
3613,B3,468.5,0.5,47,140.0
3614,C5,468.725,2.5,95,140.0
3615,B3,469.0,1.0,95,140.0
3616,B3,469.0,1.0,95,140.0
3617,B2,469.0,0.469,95,140.0
3618,E3,469.0,0.469,95,140.0
3619,G3,469.0,0.469,95,140.0
3620,E4,469.5,0.469,95,140.0
3621,B3,469.5,0.469,95,140.0
3622,G3,469.5,0.469,95,140.0
3623,A2,470.0,1.0,95,140.0
3624,C4,470.0,1.0,95,140.0
3625,C4,470.0,1.0,95,140.0
3626,E3,470.062,0.938,95,140.0
3627,G3,470.125,0.875,95,140.0
3628,B3,470.188,0.812,95,140.0
3629,D4,471.0,1.0,95,140.0
3630,D4,471.0,1.0,95,140.0
3631,E4,471.0,0.469,95,140.0
3632,B3,471.0,0.469,95,140.0
3633,G3,471.0,0.469,95,140.0
3634,C5,471.225,0.5,95,140.0
3635,E4,471.5,0.469,95,140.0
3636,B3,471.5,0.469,95,140.0
3637,G3,471.5,0.469,95,140.0
3638,G4,471.725,1.0,70,140.0
3639,A2,472.0,1.0,95,140.0
3640,D4,472.0,0.5,95,140.0
3641,D4,472.0,0.5,95,140.0
3642,E3,472.062,0.938,95,140.0
3643,A3,472.125,0.875,95,140.0
3644,C4,472.188,0.812,95,140.0
3645,E4,472.25,0.75,95,140.0
3646,C5,472.725,2.5,95,140.0
3647,A2,473.0,0.469,95,140.0
3648,E3,473.0,0.469,95,140.0
3649,A3,473.0,0.469,95,140.0
3650,G3,473.5,0.5,95,140.0
3651,G3,473.5,0.5,95,140.0
3652,E4,473.5,0.469,95,140.0
3653,C4,473.5,0.469,95,140.0
3654,A3,473.5,0.469,95,140.0
3655,A2,474.0,1.0,95,140.0
3656,A3,474.0,0.5,70,140.0
3657,A3,474.0,0.5,70,140.0
3658,E3,474.062,0.938,95,140.0
3659,A3,474.125,0.875,95,140.0
3660,C4,474.188,0.812,95,140.0
3661,A3,474.5,1.0,95,140.0
3662,A3,474.5,1.0,95,140.0
3663,E4,475.0,0.469,95,140.0
3664,C4,475.0,0.469,95,140.0
3665,A3,475.0,0.469,95,140.0
3666,C5,475.225,0.5,95,140.0
3667,G3,475.5,0.5,95,140.0
3668,G3,475.5,0.5,95,140.0
3669,E4,475.5,0.469,95,140.0
3670,C4,475.5,0.469,95,140.0
3671,A3,475.5,0.469,95,140.0
3672,G4,475.725,1.0,95,140.0
3673,F3,476.0,2.0,95,140.0
3674,F3,476.0,2.0,95,140.0
3675,C3,476.0,0.969,95,140.0
3676,F3,476.0,0.969,95,140.0
3677,A3,476.062,0.906,95,140.0
3678,C4,476.062,0.906,95,140.0
3679,F4,476.125,0.875,95,140.0
3680,C5,476.725,2.5,95,140.0
3681,C3,477.0,0.453,95,140.0
3682,F3,477.0,0.453,95,140.0
3683,A3,477.0,0.453,95,140.0
3684,C4,477.0,0.453,95,140.0
3685,F4,477.5,0.969,95,140.0
3686,C4,477.5,0.969,95,140.0
3687,A3,477.562,0.938,95,140.0
3688,F4,478.5,0.469,95,140.0
3689,C4,478.5,0.469,95,140.0
3690,A3,478.5,0.469,95,140.0
3691,F3,479.0,0.5,95,140.0
3692,F3,479.0,0.5,95,140.0
3693,C5,479.225,0.5,95,140.0
3694,E3,479.5,0.5,95,140.0
3695,E3,479.5,0.5,95,140.0
3696,F4,479.5,0.469,95,140.0
3697,C4,479.5,0.469,95,140.0
3698,A3,479.5,0.469,95,140.0
3699,G4,479.725,1.0,95,140.0
3700,D3,480.0,1.5,95,140.0
3701,D3,480.0,1.5,95,140.0
3702,D3,480.0,0.969,95,140.0
3703,B3,480.0,0.969,95,140.0
3704,D4,480.062,0.906,95,140.0
3705,G4,480.062,0.906,95,140.0
3706,C5,480.725,2.5,95,140.0
3707,D3,481.0,0.453,95,140.0
3708,B3,481.0,0.453,95,140.0
3709,D4,481.0,0.453,95,140.0
3710,G4,481.0,0.453,95,140.0
3711,B3,481.5,1.5,95,140.0
3712,B3,481.5,1.5,95,140.0
3713,G4,481.5,0.969,95,140.0
3714,D4,481.5,0.969,95,140.0
3715,B3,481.562,0.938,95,140.0
3716,G4,482.5,0.469,95,140.0
3717,D4,482.5,0.469,95,140.0
3718,B3,482.5,0.469,95,140.0
3719,C5,483.225,0.5,95,140.0
3720,B3,483.5,0.5,95,140.0
3721,B3,483.5,0.5,95,140.0
3722,G4,483.5,0.469,95,140.0
3723,D4,483.5,0.469,95,140.0
3724,B3,483.5,0.469,95,140.0
3725,G4,483.725,1.0,95,140.0
3726,A3,484.0,1.5,95,140.0
3727,A3,484.0,1.5,95,140.0
3728,D3,484.0,0.969,95,140.0
3729,B3,484.0,0.969,95,140.0
3730,D4,484.062,0.906,95,140.0
3731,G4,484.062,0.906,95,140.0
3732,C5,484.725,2.5,95,140.0
3733,D3,485.0,0.453,95,140.0
3734,B3,485.0,0.453,95,140.0
3735,D4,485.0,0.453,95,140.0
3736,G4,485.0,0.453,95,140.0
3737,G3,485.5,1.5,95,140.0
3738,G3,485.5,1.5,95,140.0
3739,G4,485.5,0.969,95,140.0
3740,D4,485.5,0.969,95,140.0
3741,B3,485.562,0.938,95,140.0
3742,G4,486.5,0.469,95,140.0
3743,D4,486.5,0.469,95,140.0
3744,B3,486.5,0.469,95,140.0
3745,G3,487.0,0.5,95,140.0
3746,G3,487.0,0.5,95,140.0
3747,D4,487.225,0.5,95,140.0
3748,D3,487.5,0.5,95,140.0
3749,D3,487.5,0.5,95,140.0
3750,G4,487.5,0.469,95,140.0
3751,D4,487.5,0.469,95,140.0
3752,B3,487.5,0.469,95,140.0
3753,G4,487.725,0.5,95,140.0
3754,D3,488.0,1.0,95,140.0
3755,D3,488.0,1.0,95,140.0
3756,C3,488.0,0.969,95,140.0
3757,E3,488.0,0.969,95,140.0
3758,G3,488.062,0.906,95,140.0
3759,C4,488.062,0.906,95,140.0
3760,E4,488.125,0.875,95,140.0
3761,D4,488.225,0.5,95,140.0
3762,B4,488.725,2.5,95,140.0
3763,G3,489.0,0.5,95,140.0
3764,G3,489.0,0.5,95,140.0
3765,C3,489.0,0.453,95,140.0
3766,E3,489.0,0.453,95,140.0
3767,G3,489.0,0.453,95,140.0
3768,C4,489.0,0.453,95,140.0
3769,E3,489.5,1.0,95,140.0
3770,E3,489.5,1.0,95,140.0
3771,E4,489.5,0.969,95,140.0
3772,C4,489.5,0.969,95,140.0
3773,G3,489.562,0.938,95,140.0
3774,G3,490.5,0.5,95,140.0
3775,G3,490.5,0.5,95,140.0
3776,E4,490.5,0.469,95,140.0
3777,C4,490.5,0.469,95,140.0
3778,G3,490.5,0.469,95,140.0
3779,E3,491.0,0.25,95,140.0
3780,E3,491.0,0.25,95,140.0
3781,B4,491.225,1.5,95,140.0
3782,F3,491.25,0.25,70,140.0
3783,F3,491.25,0.25,70,140.0
3784,G3,491.5,0.5,95,140.0
3785,G3,491.5,0.5,95,140.0
3786,E4,491.5,0.469,95,140.0
3787,C4,491.5,0.469,95,140.0
3788,G3,491.5,0.469,95,140.0
3789,E3,492.0,2.0,95,140.0
3790,E3,492.0,2.0,95,140.0
3791,C3,492.0,0.969,95,140.0
3792,E3,492.0,0.969,95,140.0
3793,G3,492.062,0.906,95,140.0
3794,C4,492.062,0.906,95,140.0
3795,E4,492.125,0.875,95,140.0
3796,C5,492.725,1.0,95,140.0
3797,C3,493.0,0.453,95,140.0
3798,E3,493.0,0.453,95,140.0
3799,G3,493.0,0.453,95,140.0
3800,C4,493.0,0.453,95,140.0
3801,E4,493.5,0.969,95,140.0
3802,C4,493.5,0.969,95,140.0
3803,G3,493.562,0.938,95,140.0
3804,B4,493.725,0.5,95,140.0
3805,G4,494.225,0.5,95,140.0
3806,E4,494.5,0.469,95,140.0
3807,C4,494.5,0.469,95,140.0
3808,G3,494.5,0.469,95,140.0
3809,D4,494.725,0.5,95,140.0
3810,C4,495.225,0.5,95,140.0
3811,G3,495.5,0.5,95,140.0
3812,G3,495.5,0.5,95,140.0
3813,E4,495.5,0.469,95,140.0
3814,C4,495.5,0.469,95,140.0
3815,G3,495.5,0.469,95,140.0
3816,E4,495.725,0.5,95,140.0
3817,C3,496.0,1.0,95,140.0
3818,C4,496.0,2.0,95,140.0
3819,C4,496.0,2.0,95,140.0
3820,E3,496.062,0.938,95,140.0
3821,G3,496.125,0.875,95,140.0
3822,C4,496.188,0.812,95,140.0
3823,C4,496.225,0.5,95,140.0
3824,E4,496.25,0.75,95,140.0
3825,C5,496.725,2.5,95,140.0
3826,C3,497.0,0.469,95,140.0
3827,E3,497.0,0.469,95,140.0
3828,G3,497.0,0.469,95,140.0
3829,E4,497.5,0.469,95,140.0
3830,C4,497.5,0.469,95,140.0
3831,G3,497.5,0.469,95,140.0
3832,C3,498.0,1.0,95,140.0
3833,C4,498.0,667/1000,95,140.0
3834,C4,498.0,667/1000,95,140.0
3835,E3,498.062,0.938,95,140.0
3836,G3,498.125,0.875,95,140.0
3837,C4,498.188,0.812,95,140.0
3838,D4,498.667,667/1000,95,140.0
3839,D4,498.667,667/1000,95,140.0
3840,E4,499.0,0.469,95,140.0
3841,C4,499.0,0.469,95,140.0
3842,G3,499.0,0.469,95,140.0
3843,C5,499.225,4.0,95,140.0
3844,E4,499.333,667/1000,95,140.0
3845,E4,499.333,667/1000,95,140.0
3846,E4,499.5,0.469,95,140.0
3847,C4,499.5,0.469,95,140.0
3848,G3,499.5,0.469,95,140.0
3849,E2,500.0,1.0,95,140.0
3850,B3,500.0,0.5,47,140.0
3851,E4,500.0,0.5,95,140.0
3852,B3,500.0,0.5,47,140.0
3853,E4,500.0,0.5,95,140.0
3854,B2,500.062,0.938,95,140.0
3855,E3,500.125,0.875,95,140.0
3856,G3,500.188,0.812,95,140.0
3857,B3,500.25,0.75,95,140.0
3858,E4,500.312,0.688,95,140.0
3859,B3,500.5,0.5,47,140.0
3860,B3,500.5,0.5,47,140.0
3861,B3,501.0,1.0,95,140.0
3862,B3,501.0,1.0,95,140.0
3863,B2,501.0,0.469,95,140.0
3864,E3,501.0,0.469,95,140.0
3865,G3,501.0,0.469,95,140.0
3866,E4,501.5,0.469,95,140.0
3867,B3,501.5,0.469,95,140.0
3868,G3,501.5,0.469,95,140.0
3869,A2,502.0,1.0,95,140.0
3870,C4,502.0,1.0,95,140.0
3871,C4,502.0,1.0,95,140.0
3872,E3,502.062,0.938,95,140.0
3873,G3,502.125,0.875,95,140.0
3874,B3,502.188,0.812,95,140.0
3875,D4,503.0,1.0,95,140.0
3876,D4,503.0,1.0,95,140.0
3877,E4,503.0,0.469,95,140.0
3878,B3,503.0,0.469,95,140.0
3879,G3,503.0,0.469,95,140.0
3880,C5,503.225,0.5,95,140.0
3881,E4,503.5,0.469,95,140.0
3882,B3,503.5,0.469,95,140.0
3883,G3,503.5,0.469,95,140.0
3884,G4,503.725,1.0,95,140.0
3885,A2,504.0,1.0,95,140.0
3886,D4,504.0,0.5,95,140.0
3887,D4,504.0,0.5,95,140.0
3888,E3,504.062,0.938,95,140.0
3889,A3,504.125,0.875,95,140.0
3890,C4,504.188,0.812,95,140.0
3891,E4,504.25,0.75,95,140.0
3892,C5,504.725,2.5,95,140.0
3893,A2,505.0,0.469,95,140.0
3894,E3,505.0,0.469,95,140.0
3895,A3,505.0,0.469,95,140.0
3896,G3,505.5,0.5,95,140.0
3897,G3,505.5,0.5,95,140.0
3898,E4,505.5,0.469,95,140.0
3899,C4,505.5,0.469,95,140.0
3900,A3,505.5,0.469,95,140.0
3901,A2,506.0,1.0,95,140.0
3902,A3,506.0,0.5,70,140.0
3903,A3,506.0,0.5,70,140.0
3904,E3,506.062,0.938,95,140.0
3905,A3,506.125,0.875,95,140.0
3906,C4,506.188,0.812,95,140.0
3907,A3,506.5,1.0,95,140.0
3908,A3,506.5,1.0,95,140.0
3909,E4,507.0,0.469,95,140.0
3910,C4,507.0,0.469,95,140.0
3911,A3,507.0,0.469,95,140.0
3912,C5,507.225,0.5,95,140.0
3913,G3,507.5,0.5,95,140.0
3914,G3,507.5,0.5,95,140.0
3915,E4,507.5,0.469,95,140.0
3916,C4,507.5,0.469,95,140.0
3917,A3,507.5,0.469,95,140.0
3918,G4,507.725,1.0,95,140.0
3919,F3,508.0,2.0,95,140.0
3920,F3,508.0,2.0,95,140.0
3921,C3,508.0,0.969,95,140.0
3922,F3,508.0,0.969,95,140.0
3923,A3,508.062,0.906,95,140.0
3924,C4,508.062,0.906,95,140.0
3925,F4,508.125,0.875,95,140.0
3926,C5,508.725,2.5,95,140.0
3927,C3,509.0,0.453,95,140.0
3928,F3,509.0,0.453,95,140.0
3929,A3,509.0,0.453,95,140.0
3930,C4,509.0,0.453,95,140.0
3931,F4,509.5,0.969,95,140.0
3932,C4,509.5,0.969,95,140.0
3933,A3,509.562,0.938,95,140.0
3934,F4,510.5,0.469,95,140.0
3935,C4,510.5,0.469,95,140.0
3936,A3,510.5,0.469,95,140.0
3937,F3,511.0,0.5,95,140.0
3938,F3,511.0,0.5,95,140.0
3939,C5,511.225,0.5,95,140.0
3940,E3,511.5,0.5,95,140.0
3941,E3,511.5,0.5,95,140.0
3942,F4,511.5,0.469,95,140.0
3943,C4,511.5,0.469,95,140.0
3944,A3,511.5,0.469,95,140.0
3945,G4,511.725,1.0,95,140.0
3946,D3,512.0,1.5,95,140.0
3947,D3,512.0,1.5,95,140.0
3948,D3,512.0,0.969,95,140.0
3949,B3,512.0,0.969,95,140.0
3950,D4,512.062,0.906,95,140.0
3951,G4,512.062,0.906,95,140.0
3952,C5,512.725,2.5,95,140.0
3953,D3,513.0,0.453,95,140.0
3954,B3,513.0,0.453,95,140.0
3955,D4,513.0,0.453,95,140.0
3956,G4,513.0,0.453,95,140.0
3957,B3,513.5,1.5,95,140.0
3958,B3,513.5,1.5,95,140.0
3959,G4,513.5,0.969,95,140.0
3960,D4,513.5,0.969,95,140.0
3961,B3,513.562,0.938,95,140.0
3962,G4,514.5,0.469,95,140.0
3963,D4,514.5,0.469,95,140.0
3964,B3,514.5,0.469,95,140.0
3965,C5,515.225,0.5,95,140.0
3966,B3,515.5,0.5,95,140.0
3967,B3,515.5,0.5,95,140.0
3968,G4,515.5,0.469,95,140.0
3969,D4,515.5,0.469,95,140.0
3970,B3,515.5,0.469,95,140.0
3971,G4,515.725,1.0,95,140.0
3972,A3,516.0,1.5,95,140.0
3973,A3,516.0,1.5,95,140.0
3974,D3,516.0,0.969,95,140.0
3975,B3,516.0,0.969,95,140.0
3976,D4,516.062,0.906,95,140.0
3977,G4,516.062,0.906,95,140.0
3978,C5,516.725,2.5,95,140.0
3979,D3,517.0,0.453,95,140.0
3980,B3,517.0,0.453,95,140.0
3981,D4,517.0,0.453,95,140.0
3982,G4,517.0,0.453,95,140.0
3983,G3,517.5,1.5,95,140.0
3984,G3,517.5,1.5,95,140.0
3985,G4,517.5,0.969,95,140.0
3986,D4,517.5,0.969,95,140.0
3987,B3,517.562,0.938,95,140.0
3988,G4,518.5,0.469,95,140.0
3989,D4,518.5,0.469,95,140.0
3990,B3,518.5,0.469,95,140.0
3991,G3,519.0,0.5,95,140.0
3992,G3,519.0,0.5,95,140.0
3993,D4,519.225,0.5,95,140.0
3994,D3,519.5,0.5,95,140.0
3995,D3,519.5,0.5,95,140.0
3996,G4,519.5,0.469,95,140.0
3997,D4,519.5,0.469,95,140.0
3998,B3,519.5,0.469,95,140.0
3999,G4,519.725,0.5,95,140.0
4000,D3,520.0,1.0,95,140.0
4001,D3,520.0,1.0,95,140.0
4002,C3,520.0,0.969,95,140.0
4003,E3,520.0,0.969,95,140.0
4004,G3,520.062,0.906,95,140.0
4005,C4,520.062,0.906,95,140.0
4006,E4,520.125,0.875,95,140.0
4007,D4,520.225,0.5,95,140.0
4008,B4,520.725,2.5,95,140.0
4009,G3,521.0,0.5,95,140.0
4010,G3,521.0,0.5,95,140.0
4011,C3,521.0,0.453,95,140.0
4012,E3,521.0,0.453,95,140.0
4013,G3,521.0,0.453,95,140.0
4014,C4,521.0,0.453,95,140.0
4015,E3,521.5,1.0,95,140.0
4016,E3,521.5,1.0,95,140.0
4017,E4,521.5,0.969,95,140.0
4018,C4,521.5,0.969,95,140.0
4019,G3,521.562,0.938,95,140.0
4020,G3,522.5,0.5,95,140.0
4021,G3,522.5,0.5,95,140.0
4022,E4,522.5,0.469,95,140.0
4023,C4,522.5,0.469,95,140.0
4024,G3,522.5,0.469,95,140.0
4025,E3,523.0,0.25,95,140.0
4026,E3,523.0,0.25,95,140.0
4027,B4,523.225,1.5,95,140.0
4028,F3,523.25,0.25,70,140.0
4029,F3,523.25,0.25,70,140.0
4030,G3,523.5,0.5,95,140.0
4031,G3,523.5,0.5,95,140.0
4032,E4,523.5,0.469,95,140.0
4033,C4,523.5,0.469,95,140.0
4034,G3,523.5,0.469,95,140.0
4035,E3,524.0,2.0,95,140.0
4036,E3,524.0,2.0,95,140.0
4037,C3,524.0,0.969,95,140.0
4038,E3,524.0,0.969,95,140.0
4039,G3,524.062,0.906,95,140.0
4040,C4,524.062,0.906,95,140.0
4041,E4,524.125,0.875,95,140.0
4042,C5,524.725,1.0,95,140.0
4043,C3,525.0,0.453,95,140.0
4044,E3,525.0,0.453,95,140.0
4045,G3,525.0,0.453,95,140.0
4046,C4,525.0,0.453,95,140.0
4047,E4,525.5,0.969,95,140.0
4048,C4,525.5,0.969,95,140.0
4049,G3,525.562,0.938,95,140.0
4050,B4,525.725,0.5,95,140.0
4051,G4,526.225,0.5,95,140.0
4052,E4,526.5,0.469,95,140.0
4053,C4,526.5,0.469,95,140.0
4054,G3,526.5,0.469,95,140.0
4055,D4,526.725,0.5,95,140.0
4056,C4,527.225,0.5,95,140.0
4057,E3,527.5,0.25,95,140.0
4058,E3,527.5,0.25,95,140.0
4059,E4,527.5,0.469,95,140.0
4060,C4,527.5,0.469,95,140.0
4061,G3,527.5,0.469,95,140.0
4062,E4,527.725,0.5,95,140.0
4063,E2,528.0,1.0,95,140.0
4064,E3,528.0,1.5,95,140.0
4065,E3,528.0,1.5,95,140.0
4066,B2,528.062,0.938,95,140.0
4067,E3,528.125,0.875,95,140.0
4068,G3,528.188,0.812,95,140.0
4069,C4,528.225,0.5,95,140.0
4070,B3,528.25,0.75,95,140.0
4071,E4,528.312,0.688,95,140.0
4072,C5,528.725,2.5,95,140.0
4073,B2,529.0,0.469,95,140.0
4074,E3,529.0,0.469,95,140.0
4075,G3,529.0,0.469,95,140.0
4076,E3,529.5,0.5,95,140.0
4077,E3,529.5,0.5,95,140.0
4078,E4,529.5,0.469,95,140.0
4079,B3,529.5,0.469,95,140.0
4080,G3,529.5,0.469,95,140.0
4081,A2,530.0,1.0,95,140.0
4082,E3,530.0,0.5,95,140.0
4083,E3,530.0,0.5,95,140.0
4084,E3,530.062,0.938,95,140.0
4085,G3,530.125,0.875,95,140.0
4086,B3,530.188,0.812,95,140.0
4087,G3,530.5,0.5,95,140.0
4088,G3,530.5,0.5,95,140.0
4089,E4,531.0,0.469,95,140.0
4090,B3,531.0,0.469,95,140.0
4091,G3,531.0,0.469,95,140.0
4092,G3,531.225,0.5,15,140.0
4093,C3,531.225,0.5,15,140.0
4094,A3,531.5,0.5,95,140.0
4095,A3,531.5,0.5,95,140.0
4096,E4,531.5,0.469,95,140.0
4097,B3,531.5,0.469,95,140.0
4098,G3,531.5,0.469,95,140.0
4099,G3,531.725,0.5,55,140.0
4100,C3,531.725,0.5,55,140.0
4101,E2,532.0,1.0,95,140.0
4102,A3,532.0,0.5,95,140.0
4103,A3,532.0,0.5,95,140.0
4104,B2,532.062,0.938,95,140.0
4105,E3,532.125,0.875,95,140.0
4106,G3,532.188,0.812,95,140.0
4107,G3,532.225,0.5,95,140.0
4108,C3,532.225,0.5,95,140.0
4109,B3,532.25,0.75,95,140.0
4110,E4,532.312,0.688,95,140.0
4111,A3,532.5,0.5,95,140.0
4112,A3,532.5,0.5,95,140.0
4113,G3,532.725,0.5,95,140.0
4114,C3,532.725,0.5,95,140.0
4115,B2,533.0,0.469,95,140.0
4116,E3,533.0,0.469,95,140.0
4117,G3,533.0,0.469,95,140.0
4118,G3,533.225,0.5,95,140.0
4119,C3,533.225,0.5,95,140.0
4120,A3,533.5,0.5,95,140.0
4121,A3,533.5,0.5,95,140.0
4122,E4,533.5,0.469,95,140.0
4123,B3,533.5,0.469,95,140.0
4124,G3,533.5,0.469,95,140.0
4125,G3,533.725,0.5,95,140.0
4126,C3,533.725,0.5,95,140.0
4127,A2,534.0,1.0,95,140.0
4128,A3,534.0,0.5,95,140.0
4129,A3,534.0,0.5,95,140.0
4130,E3,534.062,0.938,95,140.0
4131,G3,534.125,0.875,95,140.0
4132,B3,534.188,0.812,95,140.0
4133,G3,534.225,0.5,95,140.0
4134,C3,534.225,0.5,95,140.0
4135,C4,534.5,0.5,95,140.0
4136,C4,534.5,0.5,95,140.0
4137,G3,534.725,0.5,95,140.0
4138,C3,534.725,0.5,95,140.0
4139,E4,535.0,0.469,95,140.0
4140,B3,535.0,0.469,95,140.0
4141,G3,535.0,0.469,95,140.0
4142,E2,535.225,73/500,95,140.0
4143,E3,535.225,0.5,95,140.0
4144,B2,535.225,0.5,95,140.0
4145,A3,535.5,0.5,95,140.0
4146,A3,535.5,0.5,95,140.0
4147,E4,535.5,0.469,95,140.0
4148,B3,535.5,0.469,95,140.0
4149,G3,535.5,0.469,95,140.0
4150,E2,535.725,73/500,95,140.0
4151,E3,535.725,0.5,95,140.0
4152,B2,535.725,0.5,95,140.0
4153,A2,536.0,1.0,95,140.0
4154,A3,536.0,0.5,95,140.0
4155,A3,536.0,0.5,95,140.0
4156,E3,536.062,0.938,95,140.0
4157,A3,536.125,0.875,95,140.0
4158,C4,536.188,0.812,95,140.0
4159,E2,536.225,73/500,95,140.0
4160,E3,536.225,0.5,95,140.0
4161,B2,536.225,0.5,95,140.0
4162,E4,536.25,0.75,95,140.0
4163,E2,536.725,73/500,95,140.0
4164,E3,536.725,0.5,95,140.0
4165,B2,536.725,0.5,95,140.0
4166,A2,537.0,0.469,95,140.0
4167,E3,537.0,0.469,95,140.0
4168,A3,537.0,0.469,95,140.0
4169,E2,537.225,73/500,95,140.0
4170,E3,537.225,0.5,95,140.0
4171,B2,537.225,0.5,95,140.0
4172,A3,537.5,0.5,95,140.0
4173,A3,537.5,0.5,95,140.0
4174,E4,537.5,0.469,95,140.0
4175,C4,537.5,0.469,95,140.0
4176,A3,537.5,0.469,95,140.0
4177,E2,537.725,73/500,95,140.0
4178,E3,537.725,0.5,95,140.0
4179,B2,537.725,0.5,95,140.0
4180,A2,538.0,1.0,95,140.0
4181,A3,538.0,0.5,95,140.0
4182,A3,538.0,0.5,95,140.0
4183,E3,538.062,0.938,95,140.0
4184,A3,538.125,0.875,95,140.0
4185,C4,538.188,0.812,95,140.0
4186,E2,538.225,73/500,95,140.0
4187,E3,538.225,0.5,95,140.0
4188,B2,538.225,0.5,95,140.0
4189,C4,538.5,0.5,95,140.0
4190,C4,538.5,0.5,95,140.0
4191,E2,538.725,73/500,95,140.0
4192,E3,538.725,0.5,95,140.0
4193,B2,538.725,0.5,95,140.0
4194,E4,539.0,0.469,95,140.0
4195,C4,539.0,0.469,95,140.0
4196,A3,539.0,0.469,95,140.0
4197,E2,539.225,73/500,95,140.0
4198,E3,539.225,0.5,95,140.0
4199,B2,539.225,0.5,95,140.0
4200,C4,539.5,0.5,95,140.0
4201,C4,539.5,0.5,95,140.0
4202,E4,539.5,0.469,95,140.0
4203,C4,539.5,0.469,95,140.0
4204,A3,539.5,0.469,95,140.0
4205,E2,539.725,73/500,95,140.0
4206,E3,539.725,0.5,95,140.0
4207,B2,539.725,0.5,95,140.0
4208,A2,540.0,1.0,95,140.0
4209,C4,540.0,0.5,95,140.0
4210,C4,540.0,0.5,95,140.0
4211,E3,540.062,0.938,95,140.0
4212,A3,540.125,0.875,95,140.0
4213,C4,540.188,0.812,95,140.0
4214,E3,540.225,3.0,95,140.0
4215,B2,540.225,3.0,95,140.0
4216,E2,540.225,3.0,95,140.0
4217,E4,540.25,0.75,95,140.0
4218,C4,540.5,0.5,95,140.0
4219,C4,540.5,0.5,95,140.0
4220,A2,541.0,0.469,95,140.0
4221,E3,541.0,0.469,95,140.0
4222,A3,541.0,0.469,95,140.0
4223,C4,541.5,0.5,95,140.0
4224,C4,541.5,0.5,95,140.0
4225,E4,541.5,0.469,95,140.0
4226,C4,541.5,0.469,95,140.0
4227,A3,541.5,0.469,95,140.0
4228,A2,542.0,1.0,95,140.0
4229,C4,542.0,0.5,95,140.0
4230,C4,542.0,0.5,95,140.0
4231,E3,542.062,0.938,95,140.0
4232,A3,542.125,0.875,95,140.0
4233,C4,542.188,0.812,95,140.0
4234,E4,542.5,0.5,95,140.0
4235,E4,542.5,0.5,95,140.0
4236,E4,543.0,0.469,95,140.0
4237,C4,543.0,0.469,95,140.0
4238,A3,543.0,0.469,95,140.0
4239,A2,543.225,73/500,95,140.0
4240,A3,543.225,0.5,95,140.0
4241,E3,543.225,0.5,95,140.0
4242,B3,543.5,0.5,95,140.0
4243,B3,543.5,0.5,95,140.0
4244,E4,543.5,0.469,95,140.0
4245,C4,543.5,0.469,95,140.0
4246,A3,543.5,0.469,95,140.0
4247,A2,543.725,73/500,95,140.0
4248,A3,543.725,0.5,95,140.0
4249,E3,543.725,0.5,95,140.0
4250,D4,544.0,3.0,95,140.0
4251,D4,544.0,3.0,95,140.0
4252,D3,544.0,0.969,95,140.0
4253,B3,544.0,0.969,95,140.0
4254,D4,544.062,0.906,95,140.0
4255,G4,544.062,0.906,95,140.0
4256,A2,544.225,73/500,95,140.0
4257,A3,544.225,0.5,95,140.0
4258,E3,544.225,0.5,95,140.0
4259,A2,544.725,73/500,95,140.0
4260,A3,544.725,0.5,95,140.0
4261,E3,544.725,0.5,95,140.0
4262,D3,545.0,0.453,95,140.0
4263,B3,545.0,0.453,95,140.0
4264,D4,545.0,0.453,95,140.0
4265,G4,545.0,0.453,95,140.0
4266,A2,545.225,73/500,95,140.0
4267,A3,545.225,0.5,95,140.0
4268,E3,545.225,0.5,95,140.0
4269,G4,545.5,0.969,95,140.0
4270,D4,545.5,0.969,95,140.0
4271,B3,545.562,0.938,95,140.0
4272,A2,545.725,73/500,95,140.0
4273,A3,545.725,0.5,95,140.0
4274,E3,545.725,0.5,95,140.0
4275,A3,546.225,1.0,95,140.0
4276,E3,546.225,1.0,95,140.0
4277,A2,546.225,1.0,95,140.0
4278,G4,546.5,0.469,95,140.0
4279,D4,546.5,0.469,95,140.0
4280,B3,546.5,0.469,95,140.0
4281,D4,547.0,0.5,95,140.0
4282,D4,547.0,0.5,95,140.0
4283,C4,547.5,0.5,95,140.0
4284,C4,547.5,0.5,95,140.0
4285,G4,547.5,0.469,95,140.0
4286,D4,547.5,0.469,95,140.0
4287,B3,547.5,0.469,95,140.0
4288,B3,548.0,0.5,95,140.0
4289,B3,548.0,0.5,95,140.0
4290,G3,548.0,0.5,95,140.0
4291,D3,548.0,0.5,95,140.0
4292,G2,548.0,0.5,95,140.0
4293,A4,550.0,667/1000,95,140.0
4294,F4,550.0,667/1000,95,140.0
4295,A4,550.0,667/1000,95,140.0
4296,F4,550.0,667/1000,95,140.0
4297,A4,550.667,667/1000,95,140.0
4298,F4,550.667,667/1000,95,140.0
4299,A4,550.667,667/1000,95,140.0
4300,F4,550.667,667/1000,95,140.0
4301,A3,551.225,4.0,95,140.0
4302,E3,551.225,4.0,95,140.0
4303,A2,551.225,4.0,95,140.0
4304,A4,551.333,667/1000,95,140.0
4305,F4,551.333,667/1000,95,140.0
4306,A4,551.333,667/1000,95,140.0
4307,F4,551.333,667/1000,95,140.0
4308,C3,552.0,0.969,95,140.0
4309,E3,552.0,0.969,95,140.0
4310,G4,552.0,4.0,95,140.0
4311,E4,552.0,4.0,95,140.0
4312,G4,552.0,4.0,95,140.0
4313,E4,552.0,4.0,95,140.0
4314,G3,552.062,0.906,95,140.0
4315,C4,552.062,0.906,95,140.0
4316,E4,552.125,0.875,95,140.0
4317,C3,553.0,0.453,95,140.0
4318,E3,553.0,0.453,95,140.0
4319,G3,553.0,0.453,95,140.0
4320,C4,553.0,0.453,95,140.0
4321,E4,553.5,0.969,95,140.0
4322,C4,553.5,0.969,95,140.0
4323,G3,553.562,0.938,95,140.0
4324,E4,554.5,0.469,95,140.0
4325,C4,554.5,0.469,95,140.0
4326,G3,554.5,0.469,95,140.0
4327,D3,555.225,0.5,95,140.0
4328,G2,555.225,73/500,95,140.0
4329,E4,555.5,0.469,95,140.0
4330,C4,555.5,0.469,95,140.0
4331,G3,555.5,0.469,95,140.0
4332,D3,555.725,0.5,95,140.0
4333,G2,555.725,73/500,95,140.0
4334,C3,556.0,0.969,95,140.0
4335,E3,556.0,0.969,95,140.0
4336,G3,556.062,0.906,95,140.0
4337,C4,556.062,0.906,95,140.0
4338,E4,556.125,0.875,95,140.0
4339,D3,556.225,0.5,95,140.0
4340,G2,556.225,73/500,95,140.0
4341,D3,556.725,0.5,95,140.0
4342,G2,556.725,73/500,95,140.0
4343,C3,557.0,0.453,95,140.0
4344,E3,557.0,0.453,95,140.0
4345,G3,557.0,0.453,95,140.0
4346,C4,557.0,0.453,95,140.0
4347,D3,557.225,2.0,95,140.0
4348,G2,557.225,2.0,95,140.0
4349,E4,557.5,0.969,95,140.0
4350,C4,557.5,0.969,95,140.0
4351,G3,557.562,0.938,95,140.0
4352,E4,558.5,0.469,95,140.0
4353,C4,558.5,0.469,95,140.0
4354,G3,558.5,0.469,95,140.0
4355,D3,559.225,0.5,95,140.0
4356,G2,559.225,0.5,95,140.0
4357,E4,559.5,0.469,95,140.0
4358,C4,559.5,0.469,95,140.0
4359,G3,559.5,0.469,95,140.0
4360,C3,560.0,1.0,95,140.0
4361,C4,560.0,0.5,95,140.0
4362,C4,560.0,0.5,95,140.0
4363,E3,560.062,0.938,95,140.0
4364,G3,560.125,0.875,95,140.0
4365,C4,560.188,0.812,95,140.0
4366,E4,560.25,0.75,95,140.0
4367,C4,560.5,0.5,95,140.0
4368,C4,560.5,0.5,95,140.0
4369,C4,561.0,0.5,95,140.0
4370,C4,561.0,0.5,95,140.0
4371,C3,561.0,0.469,95,140.0
4372,E3,561.0,0.469,95,140.0
4373,G3,561.0,0.469,95,140.0
4374,C4,561.5,0.5,95,140.0
4375,C4,561.5,0.5,95,140.0
4376,E4,561.5,0.469,95,140.0
4377,C4,561.5,0.469,95,140.0
4378,G3,561.5,0.469,95,140.0
4379,B2,562.0,1.0,95,140.0
4380,B3,562.0,1.0,95,140.0
4381,B3,562.0,1.0,95,140.0
4382,E3,562.062,0.938,95,140.0
4383,G3,562.125,0.875,95,140.0
4384,B3,562.188,0.812,95,140.0
4385,B3,563.0,0.5,95,140.0
4386,B3,563.0,0.5,95,140.0
4387,E4,563.0,0.469,95,140.0
4388,B3,563.0,0.469,95,140.0
4389,G3,563.0,0.469,95,140.0
4390,B3,563.5,0.5,95,140.0
4391,B3,563.5,0.5,95,140.0
4392,E4,563.5,0.469,95,140.0
4393,B3,563.5,0.469,95,140.0
4394,G3,563.5,0.469,95,140.0
4395,A3,564.0,0.5,95,140.0
4396,A3,564.0,0.5,95,140.0
4397,A2,564.0,0.969,95,140.0
4398,E3,564.0,0.969,95,140.0
4399,A3,564.062,0.906,95,140.0
4400,C4,564.062,0.906,95,140.0
4401,E4,564.125,0.875,95,140.0
4402,A3,564.5,0.5,95,140.0
4403,A3,564.5,0.5,95,140.0
4404,A3,565.0,0.5,95,140.0
4405,A3,565.0,0.5,95,140.0
4406,A2,565.0,0.453,95,140.0
4407,E3,565.0,0.453,95,140.0
4408,A3,565.0,0.453,95,140.0
4409,C4,565.0,0.453,95,140.0
4410,A3,565.5,0.5,95,140.0
4411,A3,565.5,0.5,95,140.0
4412,E4,565.5,0.469,95,140.0
4413,C4,565.5,0.469,95,140.0
4414,A3,565.5,0.469,95,140.0
4415,A3,566.0,667/1000,95,140.0
4416,A3,566.0,667/1000,95,140.0
4417,E4,566.0,0.625,95,140.0
4418,C4,566.0,0.625,95,140.0
4419,A3,566.0,0.625,95,140.0
4420,B3,566.667,667/1000,95,140.0
4421,B3,566.667,667/1000,95,140.0
4422,E4,566.667,0.625,95,140.0
4423,C4,566.667,0.625,95,140.0
4424,A3,566.667,0.625,95,140.0
4425,C4,567.333,667/1000,95,140.0
4426,C4,567.333,667/1000,95,140.0
4427,E4,567.333,0.625,95,140.0
4428,C4,567.333,0.625,95,140.0
4429,A3,567.333,0.625,95,140.0
4430,F3,568.0,4.0,95,140.0
4431,F3,568.0,4.0,95,140.0
4432,C3,568.0,0.969,95,140.0
4433,F3,568.0,0.969,95,140.0
4434,A3,568.062,0.906,95,140.0
4435,C4,568.062,0.906,95,140.0
4436,F4,568.125,0.875,95,140.0
4437,C3,569.0,0.453,95,140.0
4438,F3,569.0,0.453,95,140.0
4439,A3,569.0,0.453,95,140.0
4440,C4,569.0,0.453,95,140.0
4441,F4,569.5,0.969,95,140.0
4442,C4,569.5,0.969,95,140.0
4443,A3,569.562,0.938,95,140.0
4444,F4,570.5,0.469,95,140.0
4445,C4,570.5,0.469,95,140.0
4446,A3,570.5,0.469,95,140.0
4447,G3,571.225,2.0,95,140.0
4448,C3,571.225,2.0,95,140.0
4449,F4,571.5,0.469,95,140.0
4450,C4,571.5,0.469,95,140.0
4451,A3,571.5,0.469,95,140.0
4452,D3,572.0,0.969,95,140.0
4453,A3,572.0,0.969,95,140.0
4454,D4,572.062,0.906,95,140.0
4455,F4,572.062,0.906,95,140.0
4456,D3,573.0,0.453,95,140.0
4457,A3,573.0,0.453,95,140.0
4458,D4,573.0,0.453,95,140.0
4459,F4,573.0,0.453,95,140.0
4460,B2,573.225,2.0,95,140.0
4461,E2,573.225,2.0,95,140.0
4462,F4,573.5,0.969,95,140.0
4463,D4,573.5,0.969,95,140.0
4464,A3,573.562,0.938,95,140.0
4465,F4,574.5,0.469,95,140.0
4466,D4,574.5,0.469,95,140.0
4467,A3,574.5,0.469,95,140.0
4468,E3,575.225,4.0,95,140.0
4469,A2,575.225,4.0,95,140.0
4470,D3,575.5,0.5,95,140.0
4471,D3,575.5,0.5,95,140.0
4472,F4,575.5,0.469,95,140.0
4473,D4,575.5,0.469,95,140.0
4474,A3,575.5,0.469,95,140.0
4475,B3,576.0,2.5,95,140.0
4476,B3,576.0,2.5,95,140.0
4477,D3,576.0,0.969,95,140.0
4478,B3,576.0,0.969,95,140.0
4479,D4,576.062,0.906,95,140.0
4480,G4,576.062,0.906,95,140.0
4481,D3,577.0,0.453,95,140.0
4482,B3,577.0,0.453,95,140.0
4483,D4,577.0,0.453,95,140.0
4484,G4,577.0,0.453,95,140.0
4485,G4,577.5,0.969,95,140.0
4486,D4,577.5,0.969,95,140.0
4487,B3,577.562,0.938,95,140.0
4488,A3,578.5,1.0,95,140.0
4489,A3,578.5,1.0,95,140.0
4490,G4,578.5,0.469,95,140.0
4491,D4,578.5,0.469,95,140.0
4492,B3,578.5,0.469,95,140.0
4493,C3,579.225,3.0,95,140.0
4494,F2,579.225,3.0,95,140.0
4495,A3,579.5,0.5,95,140.0
4496,A3,579.5,0.5,95,140.0
4497,G4,579.5,0.469,95,140.0
4498,D4,579.5,0.469,95,140.0
4499,B3,579.5,0.469,95,140.0
4500,G3,580.0,2.0,95,140.0
4501,G3,580.0,2.0,95,140.0
4502,D3,580.0,0.969,95,140.0
4503,B3,580.0,0.969,95,140.0
4504,D4,580.062,0.906,95,140.0
4505,G4,580.062,0.906,95,140.0
4506,D3,581.0,0.453,95,140.0
4507,B3,581.0,0.453,95,140.0
4508,D4,581.0,0.453,95,140.0
4509,G4,581.0,0.453,95,140.0
4510,G4,581.5,0.969,95,140.0
4511,D4,581.5,0.969,95,140.0
4512,B3,581.562,0.938,95,140.0
4513,D3,582.0,667/1000,95,140.0
4514,D3,582.0,667/1000,95,140.0
4515,C4,582.225,0.5,95,140.0
4516,F3,582.225,0.5,95,140.0
4517,G4,582.5,0.469,95,140.0
4518,D4,582.5,0.469,95,140.0
4519,B3,582.5,0.469,95,140.0
4520,E3,582.667,667/1000,95,140.0
4521,E3,582.667,667/1000,95,140.0
4522,B3,582.725,0.5,95,140.0
4523,E3,582.725,0.5,95,140.0
4524,A3,583.225,1.5,95,140.0
4525,D3,583.225,1.5,95,140.0
4526,F3,583.333,667/1000,95,140.0
4527,F3,583.333,667/1000,95,140.0
4528,G4,583.5,0.469,95,140.0
4529,D4,583.5,0.469,95,140.0
4530,B3,583.5,0.469,95,140.0
4531,E3,584.0,4.0,95,140.0
4532,E3,584.0,4.0,95,140.0
4533,C3,584.0,0.969,95,140.0
4534,E3,584.0,0.969,95,140.0
4535,G3,584.062,0.906,95,140.0
4536,C4,584.062,0.906,95,140.0
4537,E4,584.125,0.875,95,140.0
4538,F4,584.725,1.0,95,140.0
4539,C3,585.0,0.453,95,140.0
4540,E3,585.0,0.453,95,140.0
4541,G3,585.0,0.453,95,140.0
4542,C4,585.0,0.453,95,140.0
4543,E4,585.5,0.969,95,140.0
4544,C4,585.5,0.969,95,140.0
4545,G3,585.562,0.938,95,140.0
4546,E4,585.725,0.125,95,140.0
4547,F4,585.85,0.125,70,140.0
4548,E4,585.975,0.125,70,140.0
4549,D4,586.1,0.125,95,140.0
4550,E4,586.225,0.5,70,140.0
4551,E4,586.5,0.469,95,140.0
4552,C4,586.5,0.469,95,140.0
4553,G3,586.5,0.469,95,140.0
4554,D4,586.725,0.5,70,140.0
4555,D3,587.225,0.5,95,140.0
4556,G2,587.225,0.5,95,140.0
4557,E4,587.5,0.469,95,140.0
4558,C4,587.5,0.469,95,140.0
4559,G3,587.5,0.469,95,140.0
4560,D3,587.725,0.5,95,140.0
4561,G2,587.725,0.5,95,140.0
4562,C3,588.0,0.969,95,140.0
4563,E3,588.0,0.969,95,140.0
4564,G3,588.062,0.906,95,140.0
4565,C4,588.062,0.906,95,140.0
4566,E4,588.125,0.875,95,140.0
4567,D4,588.225,3.0,95,140.0
4568,G3,588.225,3.0,95,140.0
4569,C3,589.0,0.453,95,140.0
4570,E3,589.0,0.453,95,140.0
4571,G3,589.0,0.453,95,140.0
4572,C4,589.0,0.453,95,140.0
4573,E4,589.5,0.969,95,140.0
4574,C4,589.5,0.969,95,140.0
4575,G3,589.562,0.938,95,140.0
4576,E4,590.5,0.469,95,140.0
4577,C4,590.5,0.469,95,140.0
4578,G3,590.5,0.469,95,140.0
4579,C3,591.225,0.5,95,140.0
4580,F2,591.225,0.5,95,140.0
4581,E4,591.5,0.469,95,140.0
4582,C4,591.5,0.469,95,140.0
4583,G3,591.5,0.469,95,140.0
4584,C3,591.725,0.5,95,140.0
4585,F2,591.725,0.5,95,140.0
4586,C3,592.0,1.0,95,140.0
4587,C4,592.0,0.5,95,140.0
4588,C4,592.0,0.5,95,140.0
4589,E3,592.062,0.938,95,140.0
4590,G3,592.125,0.875,95,140.0
4591,C4,592.188,0.812,95,140.0
4592,C4,592.225,3.0,95,140.0
4593,F3,592.225,3.0,95,140.0
4594,E4,592.25,0.75,95,140.0
4595,C4,592.5,0.5,95,140.0
4596,C4,592.5,0.5,95,140.0
4597,C4,593.0,0.5,95,140.0
4598,C4,593.0,0.5,95,140.0
4599,C3,593.0,0.469,95,140.0
4600,E3,593.0,0.469,95,140.0
4601,G3,593.0,0.469,95,140.0
4602,C4,593.5,0.5,95,140.0
4603,C4,593.5,0.5,95,140.0
4604,E4,593.5,0.469,95,140.0
4605,C4,593.5,0.469,95,140.0
4606,G3,593.5,0.469,95,140.0
4607,B2,594.0,1.0,95,140.0
4608,B3,594.0,1.0,95,140.0
4609,B3,594.0,1.0,95,140.0
4610,E3,594.062,0.938,95,140.0
4611,G3,594.125,0.875,95,140.0
4612,B3,594.188,0.812,95,140.0
4613,B3,595.0,0.5,95,140.0
4614,B3,595.0,0.5,95,140.0
4615,E4,595.0,0.469,95,140.0
4616,B3,595.0,0.469,95,140.0
4617,G3,595.0,0.469,95,140.0
4618,B3,595.5,0.5,95,140.0
4619,B3,595.5,0.5,95,140.0
4620,E4,595.5,0.469,95,140.0
4621,B3,595.5,0.469,95,140.0
4622,G3,595.5,0.469,95,140.0
4623,G4,595.725,0.5,87,140.0
4624,E4,595.725,0.5,87,140.0
4625,C4,595.725,0.5,87,140.0
4626,A3,596.0,0.5,95,140.0
4627,A3,596.0,0.5,95,140.0
4628,A2,596.0,0.969,95,140.0
4629,E3,596.0,0.969,95,140.0
4630,A3,596.062,0.906,95,140.0
4631,C4,596.062,0.906,95,140.0
4632,E4,596.125,0.875,95,140.0
4633,F4,596.225,0.5,95,140.0
4634,C4,596.225,0.5,95,140.0
4635,A3,596.5,0.5,95,140.0
4636,A3,596.5,0.5,95,140.0
4637,E4,596.725,0.5,95,140.0
4638,C4,596.725,0.5,95,140.0
4639,A3,597.0,0.5,95,140.0
4640,A3,597.0,0.5,95,140.0
4641,A2,597.0,0.453,95,140.0
4642,E3,597.0,0.453,95,140.0
4643,A3,597.0,0.453,95,140.0
4644,C4,597.0,0.453,95,140.0
4645,G4,597.225,0.5,95,140.0
4646,F4,597.225,0.5,95,140.0
4647,C4,597.225,0.5,95,140.0
4648,A3,597.5,0.5,95,140.0
4649,A3,597.5,0.5,95,140.0
4650,E4,597.5,0.469,95,140.0
4651,C4,597.5,0.469,95,140.0
4652,A3,597.5,0.469,95,140.0
4653,A3,598.0,667/1000,95,140.0
4654,A3,598.0,667/1000,95,140.0
4655,E4,598.0,0.625,95,140.0
4656,C4,598.0,0.625,95,140.0
4657,A3,598.0,0.625,95,140.0
4658,B3,598.667,667/1000,95,140.0
4659,B3,598.667,667/1000,95,140.0
4660,E4,598.667,0.625,95,140.0
4661,C4,598.667,0.625,95,140.0
4662,A3,598.667,0.625,95,140.0
4663,G4,598.725,0.5,95,140.0
4664,E4,598.725,0.5,95,140.0
4665,C4,598.725,0.5,95,140.0
4666,C4,599.333,667/1000,95,140.0
4667,C4,599.333,667/1000,95,140.0
4668,E4,599.333,0.625,95,140.0
4669,C4,599.333,0.625,95,140.0
4670,A3,599.333,0.625,95,140.0
4671,G4,599.725,0.5,95,140.0
4672,E4,599.725,0.5,95,140.0
4673,C4,599.725,0.5,95,140.0
4674,F3,600.0,2.0,95,140.0
4675,F3,600.0,2.0,95,140.0
4676,C3,600.0,0.969,95,140.0
4677,F3,600.0,0.969,95,140.0
4678,A3,600.062,0.906,95,140.0
4679,C4,600.062,0.906,95,140.0
4680,F4,600.125,0.875,95,140.0
4681,G4,600.725,0.5,95,140.0
4682,E4,600.725,0.5,95,140.0
4683,C4,600.725,0.5,95,140.0
4684,C3,601.0,0.453,95,140.0
4685,F3,601.0,0.453,95,140.0
4686,A3,601.0,0.453,95,140.0
4687,C4,601.0,0.453,95,140.0
4688,F4,601.5,0.969,95,140.0
4689,C4,601.5,0.969,95,140.0
4690,A3,601.562,0.938,95,140.0
4691,G4,601.725,1.5,95,140.0
4692,E4,601.725,1.5,95,140.0
4693,C4,601.725,1.5,95,140.0
4694,F4,602.5,0.469,95,140.0
4695,C4,602.5,0.469,95,140.0
4696,A3,602.5,0.469,95,140.0
4697,G3,603.225,2.0,95,140.0
4698,C3,603.225,2.0,95,140.0
4699,F4,603.5,0.469,95,140.0
4700,C4,603.5,0.469,95,140.0
4701,A3,603.5,0.469,95,140.0
4702,D3,604.0,0.969,95,140.0
4703,A3,604.0,0.969,95,140.0
4704,D4,604.062,0.906,95,140.0
4705,F4,604.062,0.906,95,140.0
4706,D3,605.0,0.453,95,140.0
4707,A3,605.0,0.453,95,140.0
4708,D4,605.0,0.453,95,140.0
4709,F4,605.0,0.453,95,140.0
4710,B2,605.225,2.0,95,140.0
4711,E2,605.225,2.0,95,140.0
4712,F4,605.5,0.969,95,140.0
4713,D4,605.5,0.969,95,140.0
4714,A3,605.562,0.938,95,140.0
4715,F4,606.5,0.469,95,140.0
4716,D4,606.5,0.469,95,140.0
4717,A3,606.5,0.469,95,140.0
4718,E3,607.225,4.0,95,140.0
4719,A2,607.225,4.0,95,140.0
4720,D3,607.5,0.5,95,140.0
4721,D3,607.5,0.5,95,140.0
4722,F4,607.5,0.469,95,140.0
4723,D4,607.5,0.469,95,140.0
4724,A3,607.5,0.469,95,140.0
4725,B3,608.0,2.5,95,140.0
4726,B3,608.0,2.5,95,140.0
4727,D3,608.0,0.969,95,140.0
4728,B3,608.0,0.969,95,140.0
4729,D4,608.062,0.906,95,140.0
4730,G4,608.062,0.906,95,140.0
4731,D3,609.0,0.453,95,140.0
4732,B3,609.0,0.453,95,140.0
4733,D4,609.0,0.453,95,140.0
4734,G4,609.0,0.453,95,140.0
4735,G4,609.5,0.969,95,140.0
4736,D4,609.5,0.969,95,140.0
4737,B3,609.562,0.938,95,140.0
4738,A3,610.5,1.0,95,140.0
4739,A3,610.5,1.0,95,140.0
4740,G4,610.5,0.469,95,140.0
4741,D4,610.5,0.469,95,140.0
4742,B3,610.5,0.469,95,140.0
4743,C3,611.225,3.0,95,140.0
4744,F2,611.225,3.0,95,140.0
4745,A3,611.5,0.5,95,140.0
4746,A3,611.5,0.5,95,140.0
4747,G4,611.5,0.469,95,140.0
4748,D4,611.5,0.469,95,140.0
4749,B3,611.5,0.469,95,140.0
4750,G3,612.0,2.0,95,140.0
4751,G3,612.0,2.0,95,140.0
4752,D3,612.0,0.969,95,140.0
4753,B3,612.0,0.969,95,140.0
4754,D4,612.062,0.906,95,140.0
4755,G4,612.062,0.906,95,140.0
4756,D3,613.0,0.453,95,140.0
4757,B3,613.0,0.453,95,140.0
4758,D4,613.0,0.453,95,140.0
4759,G4,613.0,0.453,95,140.0
4760,G4,613.5,0.969,95,140.0
4761,D4,613.5,0.969,95,140.0
4762,B3,613.562,0.938,95,140.0
4763,D3,614.0,667/1000,95,140.0
4764,D3,614.0,667/1000,95,140.0
4765,C4,614.225,0.5,95,140.0
4766,F3,614.225,0.5,95,140.0
4767,G4,614.5,0.469,95,140.0
4768,D4,614.5,0.469,95,140.0
4769,B3,614.5,0.469,95,140.0
4770,E3,614.667,667/1000,95,140.0
4771,E3,614.667,667/1000,95,140.0
4772,B3,614.725,0.5,95,140.0
4773,E3,614.725,0.5,95,140.0
4774,A3,615.225,1.5,95,140.0
4775,D3,615.225,1.5,95,140.0
4776,F3,615.333,667/1000,95,140.0
4777,F3,615.333,667/1000,95,140.0
4778,G4,615.5,0.469,95,140.0
4779,D4,615.5,0.469,95,140.0
4780,B3,615.5,0.469,95,140.0
4781,E3,616.0,4.0,95,140.0
4782,E3,616.0,4.0,95,140.0
4783,C3,616.0,0.969,95,140.0
4784,E3,616.0,0.969,95,140.0
4785,G3,616.062,0.906,95,140.0
4786,C4,616.062,0.906,95,140.0
4787,E4,616.125,0.875,95,140.0
4788,F4,616.725,1.0,95,140.0
4789,C3,617.0,0.453,95,140.0
4790,E3,617.0,0.453,95,140.0
4791,G3,617.0,0.453,95,140.0
4792,C4,617.0,0.453,95,140.0
4793,E4,617.5,0.969,95,140.0
4794,C4,617.5,0.969,95,140.0
4795,G3,617.562,0.938,95,140.0
4796,E4,617.725,0.125,95,140.0
4797,F4,617.85,0.125,70,140.0
4798,E4,617.975,0.125,70,140.0
4799,D4,618.1,0.125,95,140.0
4800,E4,618.225,0.5,70,140.0
4801,E4,618.5,0.469,95,140.0
4802,C4,618.5,0.469,95,140.0
4803,G3,618.5,0.469,95,140.0
4804,D4,618.725,0.5,70,140.0
4805,D3,619.225,0.5,95,140.0
4806,G2,619.225,0.5,95,140.0
4807,E4,619.5,0.469,95,140.0
4808,C4,619.5,0.469,95,140.0
4809,G3,619.5,0.469,95,140.0
4810,D3,619.725,0.5,95,140.0
4811,G2,619.725,0.5,95,140.0
4812,C3,620.0,0.969,95,140.0
4813,E3,620.0,0.969,95,140.0
4814,G3,620.062,0.906,95,140.0
4815,C4,620.062,0.906,95,140.0
4816,E4,620.125,0.875,95,140.0
4817,D4,620.225,3.0,95,140.0
4818,G3,620.225,3.0,95,140.0
4819,C3,621.0,0.453,95,140.0
4820,E3,621.0,0.453,95,140.0
4821,G3,621.0,0.453,95,140.0
4822,C4,621.0,0.453,95,140.0
4823,E3,621.5,0.5,127,140.0
4824,E3,621.5,0.5,127,140.0
4825,E4,621.5,0.969,95,140.0
4826,C4,621.5,0.969,95,140.0
4827,G3,621.562,0.938,95,140.0
4828,E-3,622.0,1.0,95,140.0
4829,E-3,622.0,1.0,95,140.0
4830,E4,622.5,0.469,95,140.0
4831,C4,622.5,0.469,95,140.0
4832,G3,622.5,0.469,95,140.0
4833,E-3,623.0,0.5,127,140.0
4834,E-3,623.0,0.5,127,140.0
4835,C3,623.225,0.5,95,140.0
4836,F2,623.225,0.5,95,140.0
4837,E3,623.5,0.5,95,140.0
4838,E3,623.5,0.5,95,140.0
4839,E4,623.5,0.469,95,140.0
4840,C4,623.5,0.469,95,140.0
4841,G3,623.5,0.469,95,140.0
4842,C3,623.725,0.5,95,140.0
4843,F2,623.725,0.5,95,140.0
4844,E3,624.0,0.5,95,140.0
4845,E3,624.0,0.5,95,140.0
4846,E2,624.0,0.969,111,140.0
4847,B2,624.0,0.969,111,140.0
4848,E3,624.062,0.906,95,140.0
4849,G3,624.062,0.906,95,140.0
4850,B3,624.125,0.844,95,140.0
4851,E4,624.125,0.844,95,140.0
4852,C4,624.225,3.0,95,140.0
4853,F3,624.225,3.0,95,140.0
4854,G#3,624.5,3.5,127,140.0
4855,G#3,624.5,3.5,127,140.0
4856,B2,625.0,0.453,95,140.0
4857,E3,625.0,0.453,95,140.0
4858,G3,625.0,0.453,95,140.0
4859,B3,625.0,0.453,95,140.0
4860,E4,625.5,0.969,95,140.0
4861,B3,625.5,0.969,95,140.0
4862,G3,625.562,0.938,95,140.0
4863,E4,626.5,0.469,95,140.0
4864,B3,626.5,0.469,95,140.0
4865,G3,626.5,0.469,95,140.0
4866,E4,627.5,0.469,95,140.0
4867,B3,627.5,0.469,95,140.0
4868,G3,627.5,0.469,95,140.0
4869,G4,627.725,0.5,87,140.0
4870,E4,627.725,0.5,87,140.0
4871,C4,627.725,0.5,87,140.0
4872,E3,628.0,1.0,95,140.0
4873,E3,628.0,1.0,95,140.0
4874,E2,628.0,0.969,111,140.0
4875,B2,628.0,0.969,111,140.0
4876,E3,628.062,0.906,95,140.0
4877,G3,628.062,0.906,95,140.0
4878,B3,628.125,0.844,95,140.0
4879,E4,628.125,0.844,95,140.0
4880,F4,628.225,0.5,95,140.0
4881,C4,628.225,0.5,95,140.0
4882,E4,628.725,0.5,95,140.0
4883,C4,628.725,0.5,95,140.0
4884,G#3,629.0,0.5,95,140.0
4885,G#3,629.0,0.5,95,140.0
4886,B2,629.0,0.453,95,140.0
4887,E3,629.0,0.453,95,140.0
4888,G3,629.0,0.453,95,140.0
4889,B3,629.0,0.453,95,140.0
4890,G4,629.225,0.5,95,140.0
4891,F4,629.225,0.5,95,140.0
4892,C4,629.225,0.5,95,140.0
4893,B3,629.5,1.0,95,140.0
4894,B3,629.5,1.0,95,140.0
4895,E4,629.5,0.969,95,140.0
4896,B3,629.5,0.969,95,140.0
4897,G3,629.562,0.938,95,140.0
4898,D4,630.5,1.0,95,140.0
4899,D4,630.5,1.0,95,140.0
4900,E4,630.5,0.469,95,140.0
4901,B3,630.5,0.469,95,140.0
4902,G3,630.5,0.469,95,140.0
4903,G4,630.725,0.5,95,140.0
4904,E4,630.725,0.5,95,140.0
4905,C4,630.725,0.5,95,140.0
4906,G3,631.225,0.5,95,140.0
4907,C3,631.225,0.5,95,140.0
4908,E4,631.5,0.5,95,140.0
4909,E4,631.5,0.5,95,140.0
4910,E4,631.5,0.469,95,140.0
4911,B3,631.5,0.469,95,140.0
4912,G3,631.5,0.469,95,140.0
4913,G3,631.725,0.5,95,140.0
4914,C3,631.725,0.5,95,140.0
4915,C4,632.0,1.0,127,140.0
4916,C4,632.0,1.0,127,140.0
4917,A2,632.0,0.969,95,140.0
4918,E3,632.0,0.969,95,140.0
4919,A3,632.062,0.906,95,140.0
4920,C4,632.062,0.906,95,140.0
4921,E4,632.125,0.875,95,140.0
4922,G3,632.225,0.5,95,140.0
4923,C3,632.225,0.5,95,140.0
4924,G3,632.725,0.5,95,140.0
4925,C3,632.725,0.5,95,140.0
4926,D4,633.0,0.5,102,140.0
4927,D4,633.0,0.5,102,140.0
4928,A2,633.0,0.453,95,140.0
4929,E3,633.0,0.453,95,140.0
4930,A3,633.0,0.453,95,140.0
4931,C4,633.0,0.453,95,140.0
4932,G3,633.225,0.5,95,140.0
4933,C3,633.225,0.5,95,140.0
4934,C4,633.5,0.5,127,140.0
4935,C4,633.5,0.5,127,140.0
4936,E4,633.5,0.969,95,140.0
4937,C4,633.5,0.969,95,140.0
4938,A3,633.562,0.938,95,140.0
4939,G3,633.725,0.5,95,140.0
4940,C3,633.725,0.5,95,140.0
4941,C4,634.0,2.0,95,140.0
4942,C4,634.0,2.0,95,140.0
4943,G3,634.225,0.5,95,140.0
4944,C3,634.225,0.5,95,140.0
4945,E4,634.5,0.469,95,140.0
4946,C4,634.5,0.469,95,140.0
4947,A3,634.5,0.469,95,140.0
4948,G3,634.725,0.5,95,140.0
4949,C3,634.725,0.5,95,140.0
4950,E2,635.225,4.0,95,140.0
4951,B2,635.225,4.0,95,140.0
4952,E3,635.225,4.0,95,140.0
4953,E4,635.5,0.469,95,140.0
4954,C4,635.5,0.469,95,140.0
4955,A3,635.5,0.469,95,140.0
4956,C4,636.0,3.0,95,140.0
4957,C4,636.0,3.0,95,140.0
4958,A2,636.0,0.969,95,140.0
4959,E3,636.0,0.969,95,140.0
4960,A3,636.062,0.906,95,140.0
4961,C4,636.062,0.906,95,140.0
4962,E4,636.125,0.875,95,140.0
4963,A2,637.0,0.453,95,140.0
4964,E3,637.0,0.453,95,140.0
4965,A3,637.0,0.453,95,140.0
4966,C4,637.0,0.453,95,140.0
4967,E4,637.5,0.969,95,140.0
4968,C4,637.5,0.969,95,140.0
4969,A3,637.562,0.938,95,140.0
4970,E4,638.5,0.469,95,140.0
4971,C4,638.5,0.469,95,140.0
4972,A3,638.5,0.469,95,140.0
4973,A3,639.0,0.5,127,140.0
4974,A3,639.0,0.5,127,140.0
4975,C4,639.5,0.5,127,140.0
4976,C4,639.5,0.5,127,140.0
4977,E4,639.5,0.469,95,140.0
4978,C4,639.5,0.469,95,140.0
4979,A3,639.5,0.469,95,140.0
4980,D4,640.0,0.5,127,140.0
4981,D4,640.0,0.5,127,140.0
4982,C3,640.0,0.453,95,140.0
4983,F3,640.0,0.453,95,140.0
4984,A3,640.0,0.453,95,140.0
4985,C4,640.0,0.453,95,140.0
4986,F4,640.062,0.438,95,140.0
4987,F4,640.5,0.5,127,140.0
4988,F4,640.5,0.5,127,140.0
4989,C4,640.5,19/40,95,140.0
4990,A3,640.5,19/40,95,140.0
4991,F3,640.5,19/40,95,140.0
4992,C3,640.5,19/40,95,140.0
4993,F4,642.0,0.5,127,140.0
4994,F4,642.0,0.5,127,140.0
4995,B2,642.0,19/40,111,140.0
4996,D3,642.0,19/40,111,140.0
4997,G3,642.0,19/40,111,140.0
4998,D4,642.0,19/40,111,140.0
4999,E2,642.208,2983/1000,95,140.0
5000,B2,642.208,2983/1000,95,140.0
5001,E3,642.208,2983/1000,95,140.0
5002,G4,642.5,0.5,127,140.0
5003,G4,642.5,0.5,127,140.0
5004,G4,642.5,0.453,103,140.0
5005,D4,642.5,0.453,103,140.0
5006,G3,642.5,0.453,103,140.0
5007,D3,642.5,0.453,103,140.0
5008,D4,644.0,667/1000,127,140.0
5009,D4,644.0,667/1000,127,140.0
5010,C3,644.0,0.969,95,140.0
5011,E3,644.0,0.969,95,140.0
5012,G3,644.062,0.906,95,140.0
5013,C4,644.062,0.906,95,140.0
5014,E4,644.125,0.875,95,140.0
5015,E4,644.667,667/1000,127,140.0
5016,E4,644.667,667/1000,127,140.0
5017,C3,645.0,0.453,95,140.0
5018,E3,645.0,0.453,95,140.0
5019,G3,645.0,0.453,95,140.0
5020,C4,645.0,0.453,95,140.0
5021,A2,645.208,0.5,95,140.0
5022,A2,645.208,0.5,95,140.0
5023,E4,645.333,1667/1000,127,140.0
5024,E4,645.333,1667/1000,127,140.0
5025,E4,645.5,0.969,95,140.0
5026,C4,645.5,0.969,95,140.0
5027,G3,645.562,0.938,95,140.0
5028,A2,645.708,0.5,95,140.0
5029,A2,645.708,0.5,95,140.0
5030,A2,646.208,4.0,95,140.0
5031,E3,646.208,4.0,95,140.0
5032,A3,646.225,3983/1000,95,140.0
5033,E4,646.5,0.469,95,140.0
5034,C4,646.5,0.469,95,140.0
5035,G3,646.5,0.469,95,140.0
5036,A3,647.0,0.5,127,140.0
5037,A3,647.0,0.5,127,140.0
5038,C4,647.5,0.5,127,140.0
5039,C4,647.5,0.5,127,140.0
5040,E4,647.5,0.469,95,140.0
5041,C4,647.5,0.469,95,140.0
5042,G3,647.5,0.469,95,140.0
5043,D4,648.0,0.5,127,140.0
5044,D4,648.0,0.5,127,140.0
5045,C3,648.0,0.453,95,140.0
5046,F3,648.0,0.453,95,140.0
5047,A3,648.0,0.453,95,140.0
5048,C4,648.0,0.453,95,140.0
5049,F4,648.062,0.438,95,140.0
5050,F4,648.5,0.5,127,140.0
5051,F4,648.5,0.5,127,140.0
5052,C4,648.5,19/40,95,140.0
5053,A3,648.5,19/40,95,140.0
5054,F3,648.5,19/40,95,140.0
5055,C3,648.5,19/40,95,140.0
5056,F4,650.0,0.5,127,140.0
5057,F4,650.0,0.5,127,140.0
5058,B2,650.0,19/40,111,140.0
5059,D3,650.0,19/40,111,140.0
5060,G3,650.0,19/40,111,140.0
5061,D4,650.0,19/40,111,140.0
5062,A2,650.45,121/500,95,140.0
5063,E3,650.45,121/500,95,140.0
5064,G4,650.5,0.5,127,140.0
5065,G4,650.5,0.5,127,140.0
5066,G4,650.5,0.453,103,140.0
5067,D4,650.5,0.453,103,140.0
5068,G3,650.5,0.453,103,140.0
5069,D3,650.5,0.453,103,140.0
5070,A3,650.95,0.5,95,140.0
5071,E3,650.95,0.5,95,140.0
5072,A2,650.95,0.5,95,140.0
5073,D4,652.0,667/1000,127,140.0
5074,D4,652.0,667/1000,127,140.0
5075,C3,652.0,0.969,95,140.0
5076,E3,652.0,0.969,95,140.0
5077,G3,652.062,0.906,95,140.0
5078,C4,652.062,0.906,95,140.0
5079,E4,652.125,0.875,95,140.0
5080,A3,652.45,1.5,95,140.0
5081,E3,652.45,1.5,95,140.0
5082,A2,652.45,1.5,95,140.0
5083,E4,652.667,667/1000,127,140.0
5084,E4,652.667,667/1000,127,140.0
5085,C3,653.0,0.453,95,140.0
5086,E3,653.0,0.453,95,140.0
5087,G3,653.0,0.453,95,140.0
5088,C4,653.0,0.453,95,140.0
5089,E4,653.333,1667/1000,127,140.0
5090,E4,653.333,1667/1000,127,140.0
5091,E4,653.5,0.969,95,140.0
5092,C4,653.5,0.969,95,140.0
5093,G3,653.562,0.938,95,140.0
5094,F3,654.45,0.5,95,140.0
5095,C3,654.45,0.5,95,140.0
5096,F2,654.45,0.5,95,140.0
5097,E4,654.5,0.469,95,140.0
5098,C4,654.5,0.469,95,140.0
5099,G3,654.5,0.469,95,140.0
5100,F3,654.95,0.5,95,140.0
5101,C3,654.95,0.5,95,140.0
5102,F2,654.95,0.5,95,140.0
5103,E3,655.0,0.5,127,140.0
5104,E3,655.0,0.5,127,140.0
5105,E3,655.5,0.5,127,140.0
5106,E3,655.5,0.5,127,140.0
5107,E4,655.5,0.469,95,140.0
5108,C4,655.5,0.469,95,140.0
5109,G3,655.5,0.469,95,140.0
5110,B3,656.0,2.0,127,140.0
5111,B3,656.0,2.0,127,140.0
5112,E2,656.0,0.969,111,140.0
5113,B2,656.0,0.969,111,140.0
5114,E3,656.062,0.906,95,140.0
5115,G3,656.062,0.906,95,140.0
5116,B3,656.125,0.844,95,140.0
5117,E4,656.125,0.844,95,140.0
5118,G3,656.45,0.5,95,140.0
5119,D3,656.45,0.5,95,140.0
5120,G2,656.45,0.5,95,140.0
5121,G3,656.95,0.5,95,140.0
5122,D3,656.95,0.5,95,140.0
5123,G2,656.95,0.5,95,140.0
5124,B2,657.0,0.453,95,140.0
5125,E3,657.0,0.453,95,140.0
5126,G3,657.0,0.453,95,140.0
5127,B3,657.0,0.453,95,140.0
5128,E4,657.5,0.969,95,140.0
5129,B3,657.5,0.969,95,140.0
5130,G3,657.562,0.938,95,140.0
5131,B3,658.0,0.5,127,140.0
5132,B3,658.0,0.5,127,140.0
5133,C4,658.45,4.0,95,140.0
5134,G3,658.45,4.0,95,140.0
5135,C3,658.45,4.0,95,140.0
5136,G2,658.45,4.0,95,140.0
5137,A3,658.5,1.0,127,140.0
5138,A3,658.5,1.0,127,140.0
5139,E4,658.5,0.469,95,140.0
5140,B3,658.5,0.469,95,140.0
5141,G3,658.5,0.469,95,140.0
5142,A3,659.5,0.5,127,140.0
5143,A3,659.5,0.5,127,140.0
5144,E4,659.5,0.469,95,140.0
5145,B3,659.5,0.469,95,140.0
5146,G3,659.5,0.469,95,140.0
5147,G3,660.0,1.0,95,140.0
5148,G3,660.0,1.0,95,140.0
5149,G2,660.0,0.969,95,140.0
5150,B2,660.0,0.969,95,140.0
5151,D3,660.062,0.906,95,140.0
5152,G3,660.062,0.906,95,140.0
5153,D4,660.125,0.844,95,140.0
5154,G4,660.125,0.844,95,140.0
5155,G3,661.0,1.0,95,140.0
5156,G3,661.0,1.0,95,140.0
5157,B2,661.0,0.453,95,140.0
5158,D3,661.0,0.453,95,140.0
5159,G3,661.0,0.453,95,140.0
5160,D4,661.0,0.453,95,140.0
5161,G4,661.5,0.969,95,140.0
5162,D4,661.5,0.969,95,140.0
5163,G3,661.562,0.938,95,140.0
5164,D3,662.0,667/1000,95,140.0
5165,D3,662.0,667/1000,95,140.0
5166,F2,662.45,73/500,95,140.0
5167,F3,662.45,0.5,95,140.0
5168,C3,662.45,0.5,95,140.0
5169,G4,662.5,0.469,95,140.0
5170,C4,662.5,0.469,95,140.0
5171,G3,662.5,0.469,95,140.0
5172,E3,662.667,667/1000,95,140.0
5173,E3,662.667,667/1000,95,140.0
5174,F2,662.95,73/500,95,140.0
5175,F3,662.95,0.5,95,140.0
5176,C3,662.95,0.5,95,140.0
5177,F3,663.333,667/1000,95,140.0
5178,F3,663.333,667/1000,95,140.0
5179,G4,663.5,0.469,95,140.0
5180,D4,663.5,0.469,95,140.0
5181,G3,663.5,0.469,95,140.0
5182,E3,664.0,4.0,127,140.0
5183,E3,664.0,4.0,127,140.0
5184,C3,664.0,0.969,95,140.0
5185,E3,664.0,0.969,95,140.0
5186,G3,664.062,0.906,95,140.0
5187,C4,664.062,0.906,95,140.0
5188,E4,664.125,0.875,95,140.0
5189,G2,664.45,73/500,95,140.0
5190,G3,664.45,0.5,95,140.0
5191,D3,664.45,0.5,95,140.0
5192,G2,664.95,73/500,95,140.0
5193,G3,664.95,0.5,95,140.0
5194,D3,664.95,0.5,95,140.0
5195,C3,665.0,0.453,95,140.0
5196,E3,665.0,0.453,95,140.0
5197,G3,665.0,0.453,95,140.0
5198,C4,665.0,0.453,95,140.0
5199,E4,665.5,0.969,95,140.0
5200,C4,665.5,0.969,95,140.0
5201,G3,665.562,0.938,95,140.0
5202,C4,666.45,4.0,95,140.0
5203,G3,666.45,4.0,95,140.0
5204,C3,666.45,4.0,95,140.0
5205,G2,666.45,4.0,95,140.0
5206,E4,666.5,0.469,95,140.0
5207,C4,666.5,0.469,95,140.0
5208,G3,666.5,0.469,95,140.0
5209,E4,667.5,0.469,95,140.0
5210,C4,667.5,0.469,95,140.0
5211,G3,667.5,0.469,95,140.0
5212,C3,668.0,0.969,95,140.0
5213,E3,668.0,0.969,95,140.0
5214,G3,668.062,0.906,95,140.0
5215,C4,668.062,0.906,95,140.0
5216,E4,668.125,0.875,95,140.0
5217,C3,669.0,0.453,95,140.0
5218,E3,669.0,0.453,95,140.0
5219,G3,669.0,0.453,95,140.0
5220,C4,669.0,0.453,95,140.0
5221,E4,669.5,0.969,95,140.0
5222,C4,669.5,0.969,95,140.0
5223,G3,669.562,0.938,95,140.0
5224,E2,670.45,73/500,95,140.0
5225,E3,670.45,0.5,95,140.0
5226,B2,670.45,0.5,95,140.0
5227,E4,670.5,0.469,95,140.0
5228,C4,670.5,0.469,95,140.0
5229,G3,670.5,0.469,95,140.0
5230,E2,670.95,73/500,95,140.0
5231,E3,670.95,0.5,95,140.0
5232,B2,670.95,0.5,95,140.0
5233,E2,671.45,73/500,95,140.0
5234,E3,671.45,0.5,95,140.0
5235,B2,671.45,0.5,95,140.0
5236,E4,671.5,0.469,95,140.0
5237,C4,671.5,0.469,95,140.0
5238,G3,671.5,0.469,95,140.0
5239,E2,671.95,73/500,95,140.0
5240,E3,671.95,0.5,95,140.0
5241,B2,671.95,0.5,95,140.0
5242,C3,672.0,1.0,95,140.0
5243,C4,672.0,0.5,95,140.0
5244,C4,672.0,0.5,95,140.0
5245,E3,672.062,0.938,95,140.0
5246,G3,672.125,0.875,95,140.0
5247,C4,672.188,0.812,95,140.0
5248,E4,672.25,0.75,95,140.0
5249,E2,672.45,73/500,95,140.0
5250,E3,672.45,0.5,95,140.0
5251,B2,672.45,0.5,95,140.0
5252,C4,672.5,0.5,95,140.0
5253,C4,672.5,0.5,95,140.0
5254,E2,672.95,73/500,95,140.0
5255,E3,672.95,0.5,95,140.0
5256,B2,672.95,0.5,95,140.0
5257,C4,673.0,0.5,95,140.0
5258,C4,673.0,0.5,95,140.0
5259,C3,673.0,0.469,95,140.0
5260,E3,673.0,0.469,95,140.0
5261,G3,673.0,0.469,95,140.0
5262,E2,673.45,73/500,95,140.0
5263,E3,673.45,0.5,95,140.0
5264,B2,673.45,0.5,95,140.0
5265,C4,673.5,0.5,95,140.0
5266,C4,673.5,0.5,95,140.0
5267,E4,673.5,0.469,95,140.0
5268,C4,673.5,0.469,95,140.0
5269,G3,673.5,0.469,95,140.0
5270,E2,673.95,73/500,95,140.0
5271,E3,673.95,0.5,95,140.0
5272,B2,673.95,0.5,95,140.0
5273,B2,674.0,1.0,95,140.0
5274,B3,674.0,1.0,95,140.0
5275,B3,674.0,1.0,95,140.0
5276,E3,674.062,0.938,95,140.0
5277,G3,674.125,0.875,95,140.0
5278,B3,674.188,0.812,95,140.0
5279,G2,674.45,73/500,95,140.0
5280,G3,674.45,0.5,95,140.0
5281,D3,674.45,0.5,95,140.0
5282,G2,674.95,73/500,95,140.0
5283,G3,674.95,0.5,95,140.0
5284,D3,674.95,0.5,95,140.0
5285,B3,675.0,0.5,95,140.0
5286,B3,675.0,0.5,95,140.0
5287,E4,675.0,0.469,95,140.0
5288,B3,675.0,0.469,95,140.0
5289,G3,675.0,0.469,95,140.0
5290,G2,675.45,73/500,95,140.0
5291,G3,675.45,0.5,95,140.0
5292,D3,675.45,0.5,95,140.0
5293,B3,675.5,0.5,95,140.0
5294,B3,675.5,0.5,95,140.0
5295,E4,675.5,0.469,95,140.0
5296,B3,675.5,0.469,95,140.0
5297,G3,675.5,0.469,95,140.0
5298,G2,675.95,73/500,95,140.0
5299,G3,675.95,0.5,95,140.0
5300,D3,675.95,0.5,95,140.0
5301,A3,676.0,0.5,95,140.0
5302,A3,676.0,0.5,95,140.0
5303,A2,676.0,0.969,95,140.0
5304,E3,676.0,0.969,95,140.0
5305,A3,676.062,0.906,95,140.0
5306,C4,676.062,0.906,95,140.0
5307,E4,676.125,0.875,95,140.0
5308,G2,676.45,73/500,95,140.0
5309,G3,676.45,0.5,95,140.0
5310,D3,676.45,0.5,95,140.0
5311,A3,676.5,0.5,95,140.0
5312,A3,676.5,0.5,95,140.0
5313,G2,676.95,73/500,95,140.0
5314,G3,676.95,0.5,95,140.0
5315,D3,676.95,0.5,95,140.0
5316,A3,677.0,0.5,95,140.0
5317,A3,677.0,0.5,95,140.0
5318,A2,677.0,0.453,95,140.0
5319,E3,677.0,0.453,95,140.0
5320,A3,677.0,0.453,95,140.0
5321,C4,677.0,0.453,95,140.0
5322,G2,677.45,73/500,95,140.0
5323,G3,677.45,0.5,95,140.0
5324,D3,677.45,0.5,95,140.0
5325,A3,677.5,0.5,95,140.0
5326,A3,677.5,0.5,95,140.0
5327,E4,677.5,0.469,95,140.0
5328,C4,677.5,0.469,95,140.0
5329,A3,677.5,0.469,95,140.0
5330,G2,677.95,73/500,95,140.0
5331,G3,677.95,0.5,95,140.0
5332,D3,677.95,0.5,95,140.0
5333,A3,678.0,667/1000,95,140.0
5334,A3,678.0,667/1000,95,140.0
5335,E4,678.0,0.625,95,140.0
5336,C4,678.0,0.625,95,140.0
5337,A3,678.0,0.625,95,140.0
5338,B3,678.667,667/1000,95,140.0
5339,B3,678.667,667/1000,95,140.0
5340,E4,678.667,0.625,95,140.0
5341,C4,678.667,0.625,95,140.0
5342,A3,678.667,0.625,95,140.0
5343,G4,678.95,0.5,95,140.0
5344,E4,678.95,0.5,95,140.0
5345,C4,678.95,0.5,95,140.0
5346,C4,679.333,667/1000,95,140.0
5347,C4,679.333,667/1000,95,140.0
5348,E4,679.333,0.625,95,140.0
5349,C4,679.333,0.625,95,140.0
5350,A3,679.333,0.625,95,140.0
5351,F4,679.45,0.5,95,140.0
5352,C4,679.45,0.5,95,140.0
5353,E4,679.95,0.5,95,140.0
5354,C4,679.95,0.5,95,140.0
5355,F3,680.0,4.0,95,140.0
5356,F3,680.0,4.0,95,140.0
5357,C3,680.0,0.969,95,140.0
5358,F3,680.0,0.969,95,140.0
5359,A3,680.062,0.906,95,140.0
5360,C4,680.062,0.906,95,140.0
5361,F4,680.125,0.875,95,140.0
5362,G4,680.45,0.5,95,140.0
5363,F4,680.45,0.5,95,140.0
5364,C4,680.45,0.5,95,140.0
5365,C3,681.0,0.453,95,140.0
5366,F3,681.0,0.453,95,140.0
5367,A3,681.0,0.453,95,140.0
5368,C4,681.0,0.453,95,140.0
5369,F4,681.5,0.969,95,140.0
5370,C4,681.5,0.969,95,140.0
5371,A3,681.562,0.938,95,140.0
5372,G4,681.95,0.5,95,140.0
5373,E4,681.95,0.5,95,140.0
5374,C4,681.95,0.5,95,140.0
5375,F4,682.5,0.469,95,140.0
5376,C4,682.5,0.469,95,140.0
5377,A3,682.5,0.469,95,140.0
5378,G4,682.95,0.5,95,140.0
5379,E4,682.95,0.5,95,140.0
5380,C4,682.95,0.5,95,140.0
5381,F4,683.5,0.469,95,140.0
5382,C4,683.5,0.469,95,140.0
5383,A3,683.5,0.469,95,140.0
5384,G4,683.95,0.5,95,140.0
5385,E4,683.95,0.5,95,140.0
5386,C4,683.95,0.5,95,140.0
5387,D3,684.0,0.969,95,140.0
5388,A3,684.0,0.969,95,140.0
5389,D4,684.062,0.906,95,140.0
5390,F4,684.062,0.906,95,140.0
5391,G4,684.95,1.5,95,140.0
5392,E4,684.95,1.5,95,140.0
5393,C4,684.95,1.5,95,140.0
5394,D3,685.0,0.453,95,140.0
5395,A3,685.0,0.453,95,140.0
5396,D4,685.0,0.453,95,140.0
5397,F4,685.0,0.453,95,140.0
5398,F4,685.5,0.969,95,140.0
5399,D4,685.5,0.969,95,140.0
5400,A3,685.562,0.938,95,140.0
5401,G3,686.45,2.0,95,140.0
5402,C3,686.45,2.0,95,140.0
5403,F4,686.5,0.469,95,140.0
5404,D4,686.5,0.469,95,140.0
5405,A3,686.5,0.469,95,140.0
5406,D3,687.5,0.5,95,140.0
5407,D3,687.5,0.5,95,140.0
5408,F4,687.5,0.469,95,140.0
5409,D4,687.5,0.469,95,140.0
5410,A3,687.5,0.469,95,140.0
5411,B3,688.0,2.5,95,140.0
5412,B3,688.0,2.5,95,140.0
5413,D3,688.0,0.969,95,140.0
5414,B3,688.0,0.969,95,140.0
5415,D4,688.062,0.906,95,140.0
5416,G4,688.062,0.906,95,140.0
5417,B2,688.45,2.0,95,140.0
5418,E2,688.45,2.0,95,140.0
5419,D3,689.0,0.453,95,140.0
5420,B3,689.0,0.453,95,140.0
5421,D4,689.0,0.453,95,140.0
5422,G4,689.0,0.453,95,140.0
5423,G4,689.5,0.969,95,140.0
5424,D4,689.5,0.969,95,140.0
5425,B3,689.562,0.938,95,140.0
5426,E3,690.45,4.0,95,140.0
5427,A2,690.45,4.0,95,140.0
5428,A3,690.5,1.0,95,140.0
5429,A3,690.5,1.0,95,140.0
5430,G4,690.5,0.469,95,140.0
5431,D4,690.5,0.469,95,140.0
5432,B3,690.5,0.469,95,140.0
5433,A3,691.5,0.5,95,140.0
5434,A3,691.5,0.5,95,140.0
5435,G4,691.5,0.469,95,140.0
5436,D4,691.5,0.469,95,140.0
5437,B3,691.5,0.469,95,140.0
5438,G3,692.0,2.0,95,140.0
5439,G3,692.0,2.0,95,140.0
5440,D3,692.0,0.969,95,140.0
5441,B3,692.0,0.969,95,140.0
5442,D4,692.062,0.906,95,140.0
5443,G4,692.062,0.906,95,140.0
5444,D3,693.0,0.453,95,140.0
5445,B3,693.0,0.453,95,140.0
5446,D4,693.0,0.453,95,140.0
5447,G4,693.0,0.453,95,140.0
5448,G4,693.5,0.969,95,140.0
5449,D4,693.5,0.969,95,140.0
5450,B3,693.562,0.938,95,140.0
5451,D3,694.0,667/1000,95,140.0
5452,D3,694.0,667/1000,95,140.0
5453,C3,694.45,3.0,95,140.0
5454,F2,694.45,3.0,95,140.0
5455,G4,694.5,0.469,95,140.0
5456,D4,694.5,0.469,95,140.0
5457,B3,694.5,0.469,95,140.0
5458,E3,694.667,667/1000,95,140.0
5459,E3,694.667,667/1000,95,140.0
5460,F3,695.333,667/1000,95,140.0
5461,F3,695.333,667/1000,95,140.0
5462,G4,695.5,0.469,95,140.0
5463,D4,695.5,0.469,95,140.0
5464,B3,695.5,0.469,95,140.0
5465,E3,696.0,4.0,95,140.0
5466,E3,696.0,4.0,95,140.0
5467,C3,696.0,0.969,95,140.0
5468,E3,696.0,0.969,95,140.0
5469,G3,696.062,0.906,95,140.0
5470,C4,696.062,0.906,95,140.0
5471,E4,696.125,0.875,95,140.0
5472,C3,697.0,0.453,95,140.0
5473,E3,697.0,0.453,95,140.0
5474,G3,697.0,0.453,95,140.0
5475,C4,697.0,0.453,95,140.0
5476,C4,697.45,0.5,95,140.0
5477,F3,697.45,0.5,95,140.0
5478,E4,697.5,0.969,95,140.0
5479,C4,697.5,0.969,95,140.0
5480,G3,697.562,0.938,95,140.0
5481,B3,697.95,0.5,95,140.0
5482,E3,697.95,0.5,95,140.0
5483,A3,698.45,1.5,95,140.0
5484,D3,698.45,1.5,95,140.0
5485,E4,698.5,0.469,95,140.0
5486,C4,698.5,0.469,95,140.0
5487,G3,698.5,0.469,95,140.0
5488,E4,699.5,0.469,95,140.0
5489,C4,699.5,0.469,95,140.0
5490,G3,699.5,0.469,95,140.0
5491,F4,699.95,1.0,95,140.0
5492,C3,700.0,0.969,95,140.0
5493,E3,700.0,0.969,95,140.0
5494,G3,700.062,0.906,95,140.0
5495,C4,700.062,0.906,95,140.0
5496,E4,700.125,0.875,95,140.0
5497,E4,700.95,0.125,95,140.0
5498,C3,701.0,0.453,95,140.0
5499,E3,701.0,0.453,95,140.0
5500,G3,701.0,0.453,95,140.0
5501,C4,701.0,0.453,95,140.0
5502,F4,701.075,0.125,70,140.0
5503,E4,701.2,0.125,70,140.0
5504,D4,701.325,0.125,95,140.0
5505,E4,701.45,0.5,70,140.0
5506,E4,701.5,0.969,95,140.0
5507,C4,701.5,0.969,95,140.0
5508,G3,701.562,0.938,95,140.0
5509,D4,701.95,0.5,70,140.0
5510,D3,702.45,0.5,95,140.0
5511,G2,702.45,0.5,95,140.0
5512,E4,702.5,0.469,95,140.0
5513,C4,702.5,0.469,95,140.0
5514,G3,702.5,0.469,95,140.0
5515,D3,702.95,0.5,95,140.0
5516,G2,702.95,0.5,95,140.0
5517,D4,703.45,3.0,95,140.0
5518,G3,703.45,3.0,95,140.0
5519,E4,703.5,0.469,95,140.0
5520,C4,703.5,0.469,95,140.0
5521,G3,703.5,0.469,95,140.0
5522,C3,704.0,1.0,95,140.0
5523,C4,704.0,0.5,95,140.0
5524,C4,704.0,0.5,95,140.0
5525,E3,704.062,0.938,95,140.0
5526,G3,704.125,0.875,95,140.0
5527,C4,704.188,0.812,95,140.0
5528,E4,704.25,0.75,95,140.0
5529,C4,704.5,0.5,95,140.0
5530,C4,704.5,0.5,95,140.0
5531,C4,705.0,0.5,95,140.0
5532,C4,705.0,0.5,95,140.0
5533,C3,705.0,0.469,95,140.0
5534,E3,705.0,0.469,95,140.0
5535,G3,705.0,0.469,95,140.0
5536,C4,705.5,0.5,95,140.0
5537,C4,705.5,0.5,95,140.0
5538,E4,705.5,0.469,95,140.0
5539,C4,705.5,0.469,95,140.0
5540,G3,705.5,0.469,95,140.0
5541,B2,706.0,1.0,95,140.0
5542,B3,706.0,1.0,95,140.0
5543,B3,706.0,1.0,95,140.0
5544,E3,706.062,0.938,95,140.0
5545,G3,706.125,0.875,95,140.0
5546,B3,706.188,0.812,95,140.0
5547,C3,706.45,0.5,95,140.0
5548,F2,706.45,0.5,95,140.0
5549,C3,706.95,0.5,95,140.0
5550,F2,706.95,0.5,95,140.0
5551,B3,707.0,0.5,95,140.0
5552,B3,707.0,0.5,95,140.0
5553,E4,707.0,0.469,95,140.0
5554,B3,707.0,0.469,95,140.0
5555,G3,707.0,0.469,95,140.0
5556,C4,707.45,3.0,95,140.0
5557,F3,707.45,3.0,95,140.0
5558,B3,707.5,0.5,95,140.0
5559,B3,707.5,0.5,95,140.0
5560,E4,707.5,0.469,95,140.0
5561,B3,707.5,0.469,95,140.0
5562,G3,707.5,0.469,95,140.0
5563,A3,708.0,0.5,95,140.0
5564,A3,708.0,0.5,95,140.0
5565,A2,708.0,0.969,95,140.0
5566,E3,708.0,0.969,95,140.0
5567,A3,708.062,0.906,95,140.0
5568,C4,708.062,0.906,95,140.0
5569,E4,708.125,0.875,95,140.0
5570,A3,708.5,0.5,95,140.0
5571,A3,708.5,0.5,95,140.0
5572,A3,709.0,0.5,95,140.0
5573,A3,709.0,0.5,95,140.0
5574,A2,709.0,0.453,95,140.0
5575,E3,709.0,0.453,95,140.0
5576,A3,709.0,0.453,95,140.0
5577,C4,709.0,0.453,95,140.0
5578,A3,709.5,0.5,95,140.0
5579,A3,709.5,0.5,95,140.0
5580,E4,709.5,0.469,95,140.0
5581,C4,709.5,0.469,95,140.0
5582,A3,709.5,0.469,95,140.0
5583,A3,710.0,667/1000,95,140.0
5584,A3,710.0,667/1000,95,140.0
5585,E4,710.0,0.625,95,140.0
5586,C4,710.0,0.625,95,140.0
5587,A3,710.0,0.625,95,140.0
5588,B3,710.667,667/1000,95,140.0
5589,B3,710.667,667/1000,95,140.0
5590,E4,710.667,0.625,95,140.0
5591,C4,710.667,0.625,95,140.0
5592,A3,710.667,0.625,95,140.0
5593,E4,710.95,0.5,82,140.0
5594,C4,710.95,0.5,82,140.0
5595,C4,711.333,667/1000,95,140.0
5596,C4,711.333,667/1000,95,140.0
5597,E4,711.333,0.625,95,140.0
5598,C4,711.333,0.625,95,140.0
5599,A3,711.333,0.625,95,140.0
5600,F4,711.45,0.5,95,140.0
5601,C4,711.45,0.5,95,140.0
5602,E4,711.95,0.5,95,140.0
5603,C4,711.95,0.5,95,140.0
5604,F3,712.0,4.0,95,140.0
5605,F3,712.0,4.0,95,140.0
5606,C3,712.0,0.969,95,140.0
5607,F3,712.0,0.969,95,140.0
5608,A3,712.062,0.906,95,140.0
5609,C4,712.062,0.906,95,140.0
5610,F4,712.125,0.875,95,140.0
5611,F4,712.45,0.5,95,140.0
5612,C4,712.45,0.5,95,140.0
5613,G4,712.95,0.5,95,140.0
5614,E4,712.95,0.5,95,140.0
5615,C4,712.95,0.5,95,140.0
5616,C3,713.0,0.453,95,140.0
5617,F3,713.0,0.453,95,140.0
5618,A3,713.0,0.453,95,140.0
5619,C4,713.0,0.453,95,140.0
5620,F4,713.5,0.969,95,140.0
5621,C4,713.5,0.969,95,140.0
5622,A3,713.562,0.938,95,140.0
5623,G4,713.95,0.5,95,140.0
5624,E4,713.95,0.5,95,140.0
5625,C4,713.95,0.5,95,140.0
5626,F4,714.5,0.469,95,140.0
5627,C4,714.5,0.469,95,140.0
5628,A3,714.5,0.469,95,140.0
5629,G4,714.95,0.5,95,140.0
5630,E4,714.95,0.5,95,140.0
5631,C4,714.95,0.5,95,140.0
5632,F4,715.5,0.469,95,140.0
5633,C4,715.5,0.469,95,140.0
5634,A3,715.5,0.469,95,140.0
5635,G4,715.95,0.5,95,140.0
5636,E4,715.95,0.5,95,140.0
5637,C4,715.95,0.5,95,140.0
5638,D3,716.0,0.969,95,140.0
5639,A3,716.0,0.969,95,140.0
5640,D4,716.062,0.906,95,140.0
5641,F4,716.062,0.906,95,140.0
5642,G4,716.95,1.5,95,140.0
5643,E4,716.95,1.5,95,140.0
5644,C4,716.95,1.5,95,140.0
5645,D3,717.0,0.453,95,140.0
5646,A3,717.0,0.453,95,140.0
5647,D4,717.0,0.453,95,140.0
5648,F4,717.0,0.453,95,140.0
5649,F4,717.5,0.969,95,140.0
5650,D4,717.5,0.969,95,140.0
5651,A3,717.562,0.938,95,140.0
5652,G3,718.45,2.0,95,140.0
5653,C3,718.45,2.0,95,140.0
5654,F4,718.5,0.469,95,140.0
5655,D4,718.5,0.469,95,140.0
5656,A3,718.5,0.469,95,140.0
5657,D3,719.5,0.5,95,140.0
5658,D3,719.5,0.5,95,140.0
5659,F4,719.5,0.469,95,140.0
5660,D4,719.5,0.469,95,140.0
5661,A3,719.5,0.469,95,140.0
5662,B3,720.0,2.5,95,140.0
5663,B3,720.0,2.5,95,140.0
5664,D3,720.0,0.969,95,140.0
5665,B3,720.0,0.969,95,140.0
5666,D4,720.062,0.906,95,140.0
5667,G4,720.062,0.906,95,140.0
5668,B2,720.45,2.0,95,140.0
5669,E2,720.45,2.0,95,140.0
5670,D3,721.0,0.453,95,140.0
5671,B3,721.0,0.453,95,140.0
5672,D4,721.0,0.453,95,140.0
5673,G4,721.0,0.453,95,140.0
5674,G4,721.5,0.969,95,140.0
5675,D4,721.5,0.969,95,140.0
5676,B3,721.562,0.938,95,140.0
5677,E3,722.45,4.0,95,140.0
5678,A2,722.45,4.0,95,140.0
5679,A3,722.5,1.0,95,140.0
5680,A3,722.5,1.0,95,140.0
5681,G4,722.5,0.469,95,140.0
5682,D4,722.5,0.469,95,140.0
5683,B3,722.5,0.469,95,140.0
5684,A3,723.5,0.5,95,140.0
5685,A3,723.5,0.5,95,140.0
5686,G4,723.5,0.469,95,140.0
5687,D4,723.5,0.469,95,140.0
5688,B3,723.5,0.469,95,140.0
5689,G3,724.0,0.5,95,140.0
5690,G3,724.0,0.5,95,140.0
5691,D3,724.0,0.453,95,140.0
5692,B3,724.0,0.453,95,140.0
5693,D4,724.0,0.453,95,140.0
5694,G4,724.0,0.453,95,140.0
5695,A4,726.0,667/1000,95,140.0
5696,F4,726.0,667/1000,95,140.0
5697,A4,726.0,667/1000,95,140.0
5698,F4,726.0,667/1000,95,140.0
5699,C3,726.45,3.0,95,140.0
5700,F2,726.45,3.0,95,140.0
5701,A4,726.667,667/1000,95,140.0
5702,F4,726.667,667/1000,95,140.0
5703,A4,726.667,667/1000,95,140.0
5704,F4,726.667,667/1000,95,140.0
5705,A4,727.333,667/1000,95,140.0
5706,F4,727.333,667/1000,95,140.0
5707,A4,727.333,667/1000,95,140.0
5708,F4,727.333,667/1000,95,140.0
5709,C3,728.0,3.969,95,140.0
5710,E3,728.0,3.969,95,140.0
5711,G4,728.0,4.0,111,140.0
5712,E4,728.0,4.0,111,140.0
5713,G4,728.0,4.0,111,140.0
5714,E4,728.0,4.0,111,140.0
5715,G3,728.062,3.906,95,140.0
5716,C4,728.062,3.906,95,140.0
5717,E4,728.125,3.875,95,140.0
5718,C4,729.45,0.5,95,140.0
5719,F3,729.45,0.5,95,140.0
5720,B3,729.95,0.5,95,140.0
5721,E3,729.95,0.5,95,140.0
5722,A3,730.45,1.5,95,140.0
5723,D3,730.45,1.5,95,140.0
5724,F4,731.95,1.0,95,140.0
5725,E4,732.95,0.125,95,140.0
5726,F4,733.075,0.125,70,140.0
5727,E4,733.2,0.125,70,140.0
5728,D4,733.325,0.125,95,140.0
5729,E4,733.45,0.5,70,140.0
5730,D4,733.95,0.5,70,140.0
5731,D3,734.45,0.5,95,140.0
5732,G2,734.45,0.5,95,140.0
5733,D3,734.95,0.5,95,140.0
5734,G2,734.95,0.5,95,140.0
5735,D4,735.45,3.0,95,140.0
5736,G3,735.45,3.0,95,140.0
5737,C3,738.45,0.5,95,140.0
5738,F2,738.45,0.5,95,140.0
5739,C4,742.45,4.0,95,140.0
5740,G3,742.45,4.0,95,140.0
5741,C3,742.45,4.0,95,140.0
5742,G2,742.45,4.0,95,140.0
