,note_name,start_time,duration,velocity,tempo
0,B2,2.0,1.0,95,117.0
1,B2,2.0,1.0,95,117.0
2,C#2,3.0,0.25,95,117.0
3,C#2,3.0,0.25,95,117.0
4,C#2,3.25,0.5,95,117.0
5,C#2,3.25,0.5,95,117.0
6,C#2,3.75,0.5,95,117.0
7,C#2,3.75,0.5,95,117.0
8,C#2,4.25,0.25,95,117.0
9,C#2,4.25,0.25,95,117.0
10,D2,4.5,0.5,95,117.0
11,D2,4.5,0.5,95,117.0
12,C#2,5.0,0.5,95,117.0
13,C#2,5.0,0.5,95,117.0
14,B1,5.5,0.5,95,117.0
15,B1,5.5,0.5,95,117.0
16,C#2,6.0,0.25,95,117.0
17,C#2,6.0,0.25,95,117.0
18,C#2,6.25,0.5,95,117.0
19,C#2,6.25,0.5,95,117.0
20,C#2,6.75,0.5,95,117.0
21,C#2,6.75,0.5,95,117.0
22,C#2,7.25,0.25,95,117.0
23,C#2,7.25,0.25,95,117.0
24,D2,7.5,0.25,95,117.0
25,D2,7.5,0.25,95,117.0
26,C#2,7.75,0.25,95,117.0
27,C#2,7.75,0.25,95,117.0
28,B1,8.0,0.25,95,117.0
29,B1,8.0,0.25,95,117.0
30,F#2,8.25,0.25,95,117.0
31,F#2,8.25,0.25,95,117.0
32,F2,8.5,0.25,95,117.0
33,F2,8.5,0.25,95,117.0
34,D2,8.75,0.25,95,117.0
35,D2,8.75,0.25,95,117.0
36,C#2,9.0,0.25,95,117.0
37,C#2,9.0,0.25,95,117.0
38,C#2,9.25,0.5,95,117.0
39,C#2,9.25,0.5,95,117.0
40,C#2,9.75,0.5,95,117.0
41,C#2,9.75,0.5,95,117.0
42,C#2,10.25,0.25,95,117.0
43,C#2,10.25,0.25,95,117.0
44,D2,10.5,0.5,95,117.0
45,D2,10.5,0.5,95,117.0
46,F2,11.0,0.5,95,117.0
47,F2,11.0,0.5,95,117.0
48,F#2,11.5,0.5,95,117.0
49,F#2,11.5,0.5,95,117.0
50,B1,12.0,0.25,95,117.0
51,B1,12.0,0.25,95,117.0
52,C#2,12.25,0.25,95,117.0
53,C#2,12.25,0.25,95,117.0
54,D2,12.5,0.25,95,117.0
55,D2,12.5,0.25,95,117.0
56,F#2,12.75,0.25,95,117.0
57,F#2,12.75,0.25,95,117.0
58,B2,13.0,0.25,95,117.0
59,B2,13.0,0.25,95,117.0
60,D3,13.25,0.25,95,117.0
61,D3,13.25,0.25,95,117.0
62,C#3,13.5,0.5,95,117.0
63,C#3,13.5,0.5,95,117.0
64,B1,14.0,0.5,95,117.0
65,B1,14.0,0.5,95,117.0
66,D2,14.5,0.5,95,117.0
67,D2,14.5,0.5,95,117.0
68,C#2,15.0,0.25,95,117.0
69,C#2,15.0,0.25,95,117.0
70,C#2,15.25,0.5,95,117.0
71,C#2,15.25,0.5,95,117.0
72,C#2,15.75,0.5,95,117.0
73,C#2,15.75,0.5,95,117.0
74,C#2,16.25,0.25,95,117.0
75,C#2,16.25,0.25,95,117.0
76,D2,16.5,0.5,95,117.0
77,D2,16.5,0.5,95,117.0
78,C#2,17.0,0.5,95,117.0
79,C#2,17.0,0.5,95,117.0
80,B1,17.5,0.5,95,117.0
81,B1,17.5,0.5,95,117.0
82,C#2,18.0,0.25,95,117.0
83,C#2,18.0,0.25,95,117.0
84,C#2,18.25,0.5,95,117.0
85,C#2,18.25,0.5,95,117.0
86,C#2,18.75,0.5,95,117.0
87,C#2,18.75,0.5,95,117.0
88,C#2,19.25,0.25,95,117.0
89,C#2,19.25,0.25,95,117.0
90,D2,19.5,0.25,95,117.0
91,D2,19.5,0.25,95,117.0
92,C#2,19.75,0.25,95,117.0
93,C#2,19.75,0.25,95,117.0
94,B1,20.0,0.25,95,117.0
95,B1,20.0,0.25,95,117.0
96,F#2,20.25,0.25,95,117.0
97,F#2,20.25,0.25,95,117.0
98,F2,20.5,0.25,95,117.0
99,F2,20.5,0.25,95,117.0
100,D2,20.75,0.25,95,117.0
101,D2,20.75,0.25,95,117.0
102,C#2,21.0,0.25,95,117.0
103,C#2,21.0,0.25,95,117.0
104,C#2,21.25,0.5,95,117.0
105,C#2,21.25,0.5,95,117.0
106,C#2,21.75,0.5,95,117.0
107,C#2,21.75,0.5,95,117.0
108,C#2,22.25,0.25,95,117.0
109,C#2,22.25,0.25,95,117.0
110,D2,22.5,0.5,95,117.0
111,D2,22.5,0.5,95,117.0
112,C#2,23.0,0.5,95,117.0
113,C#2,23.0,0.5,95,117.0
114,B1,23.5,0.5,95,117.0
115,B1,23.5,0.5,95,117.0
116,D3,24.0,167/1000,95,117.0
117,D3,24.0,167/1000,95,117.0
118,C#3,24.167,167/1000,95,117.0
119,C#3,24.167,167/1000,95,117.0
120,B2,24.333,167/1000,95,117.0
121,B2,24.333,167/1000,95,117.0
122,A2,24.5,0.25,95,117.0
123,A2,24.5,0.25,95,117.0
124,G#2,24.75,0.25,95,117.0
125,G#2,24.75,0.25,95,117.0
126,F#2,25.0,0.25,95,117.0
127,F#2,25.0,0.25,95,117.0
128,E2,25.25,0.25,95,117.0
129,E2,25.25,0.25,95,117.0
130,D2,25.5,0.25,95,117.0
131,D2,25.5,0.25,95,117.0
132,C#2,25.75,0.25,95,117.0
133,C#2,25.75,0.25,95,117.0
134,A2,26.0,0.25,95,117.0
135,A2,26.0,0.25,95,117.0
136,G#2,26.25,0.25,95,117.0
137,G#2,26.25,0.25,95,117.0
138,F#2,26.5,0.25,95,117.0
139,F#2,26.5,0.25,95,117.0
140,D2,26.75,0.25,95,117.0
141,D2,26.75,0.25,95,117.0
142,C#2,27.0,0.25,95,117.0
143,C#2,27.0,0.25,95,117.0
144,C#2,27.25,0.5,95,117.0
145,C#2,27.25,0.5,95,117.0
146,C#2,27.75,0.5,95,117.0
147,C#2,27.75,0.5,95,117.0
148,C#2,28.25,0.25,95,117.0
149,C#2,28.25,0.25,95,117.0
150,D2,28.5,0.5,95,117.0
151,D2,28.5,0.5,95,117.0
152,C#2,29.0,0.5,95,117.0
153,C#2,29.0,0.5,95,117.0
154,B1,29.5,0.5,95,117.0
155,B1,29.5,0.5,95,117.0
156,C#2,30.0,0.25,95,117.0
157,C#2,30.0,0.25,95,117.0
158,C#2,30.25,0.5,95,117.0
159,C#2,30.25,0.5,95,117.0
160,C#2,30.75,0.5,95,117.0
161,C#2,30.75,0.5,95,117.0
162,C#2,31.25,0.25,95,117.0
163,C#2,31.25,0.25,95,117.0
164,D2,31.5,0.25,95,117.0
165,D2,31.5,0.25,95,117.0
166,C#2,31.75,0.25,95,117.0
167,C#2,31.75,0.25,95,117.0
168,B1,32.0,0.25,95,117.0
169,B1,32.0,0.25,95,117.0
170,F#2,32.25,0.25,95,117.0
171,F#2,32.25,0.25,95,117.0
172,F2,32.5,0.25,95,117.0
173,F2,32.5,0.25,95,117.0
174,D2,32.75,0.25,95,117.0
175,D2,32.75,0.25,95,117.0
176,C#2,33.0,0.25,95,117.0
177,C#2,33.0,0.25,95,117.0
178,C#2,33.25,0.5,95,117.0
179,C#2,33.25,0.5,95,117.0
180,C#2,33.75,0.5,95,117.0
181,C#2,33.75,0.5,95,117.0
182,C#2,34.25,0.25,95,117.0
183,C#2,34.25,0.25,95,117.0
184,D2,34.5,0.5,95,117.0
185,D2,34.5,0.5,95,117.0
186,F2,35.0,0.5,95,117.0
187,F2,35.0,0.5,95,117.0
188,F#2,35.5,0.5,95,117.0
189,F#2,35.5,0.5,95,117.0
190,B1,36.0,0.25,95,117.0
191,B1,36.0,0.25,95,117.0
192,C#2,36.25,0.25,95,117.0
193,C#2,36.25,0.25,95,117.0
194,D2,36.5,0.25,95,117.0
195,D2,36.5,0.25,95,117.0
196,F#2,36.75,0.25,95,117.0
197,F#2,36.75,0.25,95,117.0
198,B2,37.0,0.25,95,117.0
199,B2,37.0,0.25,95,117.0
200,D3,37.25,0.25,95,117.0
201,D3,37.25,0.25,95,117.0
202,C#3,37.5,0.5,95,117.0
203,C#3,37.5,0.5,95,117.0
204,B1,38.0,0.5,95,117.0
205,B1,38.0,0.5,95,117.0
206,D2,38.5,0.5,95,117.0
207,D2,38.5,0.5,95,117.0
208,C#2,39.0,0.25,95,117.0
209,C#2,39.0,0.25,95,117.0
210,C#2,39.25,0.5,95,117.0
211,C#2,39.25,0.5,95,117.0
212,C#2,39.75,0.5,95,117.0
213,C#2,39.75,0.5,95,117.0
214,C#2,40.25,0.25,95,117.0
215,C#2,40.25,0.25,95,117.0
216,D2,40.5,0.5,95,117.0
217,D2,40.5,0.5,95,117.0
218,C#2,41.0,0.5,95,117.0
219,C#2,41.0,0.5,95,117.0
220,B1,41.5,0.5,95,117.0
221,B1,41.5,0.5,95,117.0
222,C#2,42.0,0.25,95,117.0
223,C#2,42.0,0.25,95,117.0
224,C#2,42.25,0.5,95,117.0
225,C#2,42.25,0.5,95,117.0
226,C#2,42.75,0.5,95,117.0
227,C#2,42.75,0.5,95,117.0
228,C#2,43.25,0.25,95,117.0
229,C#2,43.25,0.25,95,117.0
230,D2,43.5,0.25,95,117.0
231,D2,43.5,0.25,95,117.0
232,C#2,43.75,0.25,95,117.0
233,C#2,43.75,0.25,95,117.0
234,B1,44.0,0.25,95,117.0
235,B1,44.0,0.25,95,117.0
236,F#2,44.25,0.25,95,117.0
237,F#2,44.25,0.25,95,117.0
238,F2,44.5,0.25,95,117.0
239,F2,44.5,0.25,95,117.0
240,D2,44.75,0.25,95,117.0
241,D2,44.75,0.25,95,117.0
242,C#2,45.0,0.25,95,117.0
243,C#2,45.0,0.25,95,117.0
244,C#2,45.25,0.5,95,117.0
245,C#2,45.25,0.5,95,117.0
246,C#2,45.75,0.5,95,117.0
247,C#2,45.75,0.5,95,117.0
248,C#2,46.25,0.25,95,117.0
249,C#2,46.25,0.25,95,117.0
250,D2,46.5,0.5,95,117.0
251,D2,46.5,0.5,95,117.0
252,C#2,47.0,0.5,95,117.0
253,C#2,47.0,0.5,95,117.0
254,B1,47.5,0.5,95,117.0
255,B1,47.5,0.5,95,117.0
256,D3,48.0,167/1000,95,117.0
257,D3,48.0,167/1000,95,117.0
258,C#3,48.167,167/1000,95,117.0
259,C#3,48.167,167/1000,95,117.0
260,B2,48.333,167/1000,95,117.0
261,B2,48.333,167/1000,95,117.0
262,A2,48.5,0.25,95,117.0
263,A2,48.5,0.25,95,117.0
264,G#2,48.75,0.25,95,117.0
265,G#2,48.75,0.25,95,117.0
266,F#2,49.0,0.25,95,117.0
267,F#2,49.0,0.25,95,117.0
268,E2,49.25,0.25,95,117.0
269,E2,49.25,0.25,95,117.0
270,D2,49.5,0.25,95,117.0
271,D2,49.5,0.25,95,117.0
272,C#2,49.75,0.25,95,117.0
273,C#2,49.75,0.25,95,117.0
274,A2,50.0,0.25,95,117.0
275,A2,50.0,0.25,95,117.0
276,G#2,50.25,0.25,95,117.0
277,G#2,50.25,0.25,95,117.0
278,F#2,50.5,0.25,95,117.0
279,F#2,50.5,0.25,95,117.0
280,D2,50.75,0.25,95,117.0
281,D2,50.75,0.25,95,117.0
282,G#2,51.0,0.25,95,117.0
283,C#2,51.0,0.25,95,117.0
284,G#2,51.0,0.25,95,117.0
285,C#2,51.0,0.25,95,117.0
286,G#2,51.25,0.5,95,117.0
287,C#2,51.25,0.5,95,117.0
288,G#2,51.25,0.5,95,117.0
289,C#2,51.25,0.5,95,117.0
290,G#2,51.75,0.5,95,117.0
291,C#2,51.75,0.5,95,117.0
292,G#2,51.75,0.5,95,117.0
293,C#2,51.75,0.5,95,117.0
294,G#2,52.25,0.25,95,117.0
295,C#2,52.25,0.25,95,117.0
296,G#2,52.25,0.25,95,117.0
297,C#2,52.25,0.25,95,117.0
298,A2,52.5,0.5,95,117.0
299,D2,52.5,0.5,95,117.0
300,A2,52.5,0.5,95,117.0
301,D2,52.5,0.5,95,117.0
302,G#2,53.0,0.5,95,117.0
303,C#2,53.0,0.5,95,117.0
304,G#2,53.0,0.5,95,117.0
305,C#2,53.0,0.5,95,117.0
306,F#2,53.5,0.5,95,117.0
307,B1,53.5,0.5,95,117.0
308,F#2,53.5,0.5,95,117.0
309,B1,53.5,0.5,95,117.0
310,G#2,54.0,0.25,95,117.0
311,C#2,54.0,0.25,95,117.0
312,G#2,54.0,0.25,95,117.0
313,C#2,54.0,0.25,95,117.0
314,G#2,54.25,0.5,95,117.0
315,C#2,54.25,0.5,95,117.0
316,G#2,54.25,0.5,95,117.0
317,C#2,54.25,0.5,95,117.0
318,G#2,54.75,0.5,95,117.0
319,C#2,54.75,0.5,95,117.0
320,G#2,54.75,0.5,95,117.0
321,C#2,54.75,0.5,95,117.0
322,B1,55.25,0.25,95,117.0
323,B1,55.25,0.25,95,117.0
324,A2,55.5,0.25,95,117.0
325,D2,55.5,0.25,95,117.0
326,A2,55.5,0.25,95,117.0
327,D2,55.5,0.25,95,117.0
328,B2,55.75,0.25,95,117.0
329,E2,55.75,0.25,95,117.0
330,B2,55.75,0.25,95,117.0
331,E2,55.75,0.25,95,117.0
332,B1,56.0,0.25,95,117.0
333,B1,56.0,0.25,95,117.0
334,A2,56.25,0.25,95,117.0
335,D2,56.25,0.25,95,117.0
336,A2,56.25,0.25,95,117.0
337,D2,56.25,0.25,95,117.0
338,B2,56.5,0.25,95,117.0
339,E2,56.5,0.25,95,117.0
340,B2,56.5,0.25,95,117.0
341,E2,56.5,0.25,95,117.0
342,B1,56.75,0.25,95,117.0
343,B1,56.75,0.25,95,117.0
344,G#2,57.0,0.25,95,117.0
345,C#2,57.0,0.25,95,117.0
346,G#2,57.0,0.25,95,117.0
347,C#2,57.0,0.25,95,117.0
348,G#2,57.25,0.5,95,117.0
349,C#2,57.25,0.5,95,117.0
350,G#2,57.25,0.5,95,117.0
351,C#2,57.25,0.5,95,117.0
352,G#2,57.75,0.5,95,117.0
353,C#2,57.75,0.5,95,117.0
354,G#2,57.75,0.5,95,117.0
355,C#2,57.75,0.5,95,117.0
356,G#2,58.25,0.25,95,117.0
357,C#2,58.25,0.25,95,117.0
358,G#2,58.25,0.25,95,117.0
359,C#2,58.25,0.25,95,117.0
360,A2,58.5,0.5,95,117.0
361,D2,58.5,0.5,95,117.0
362,A2,58.5,0.5,95,117.0
363,D2,58.5,0.5,95,117.0
364,G#2,59.0,0.5,95,117.0
365,C#2,59.0,0.5,95,117.0
366,G#2,59.0,0.5,95,117.0
367,C#2,59.0,0.5,95,117.0
368,F#2,59.5,0.5,95,117.0
369,B1,59.5,0.5,95,117.0
370,F#2,59.5,0.5,95,117.0
371,B1,59.5,0.5,95,117.0
372,G#2,60.0,0.25,95,117.0
373,C#2,60.0,0.25,95,117.0
374,G#2,60.0,0.25,95,117.0
375,C#2,60.0,0.25,95,117.0
376,G#2,60.25,0.5,95,117.0
377,C#2,60.25,0.5,95,117.0
378,G#2,60.25,0.5,95,117.0
379,C#2,60.25,0.5,95,117.0
380,G#2,60.75,0.5,95,117.0
381,C#2,60.75,0.5,95,117.0
382,G#2,60.75,0.5,95,117.0
383,C#2,60.75,0.5,95,117.0
384,G#2,61.25,0.25,95,117.0
385,G#2,61.25,0.25,95,117.0
386,B2,61.5,0.25,95,117.0
387,B2,61.5,0.25,95,117.0
388,G2,61.75,0.25,95,117.0
389,G2,61.75,0.25,95,117.0
390,E-2,62.0,0.25,95,117.0
391,E-2,62.0,0.25,95,117.0
392,B-2,62.25,0.25,95,117.0
393,B-2,62.25,0.25,95,117.0
394,F#2,62.5,0.25,95,117.0
395,F#2,62.5,0.25,95,117.0
396,D2,62.75,0.25,95,117.0
397,D2,62.75,0.25,95,117.0
398,G#2,63.0,0.25,95,117.0
399,C#2,63.0,0.25,95,117.0
400,G#2,63.0,0.25,95,117.0
401,C#2,63.0,0.25,95,117.0
402,G#2,63.25,0.5,95,117.0
403,C#2,63.25,0.5,95,117.0
404,G#2,63.25,0.5,95,117.0
405,C#2,63.25,0.5,95,117.0
406,G#2,63.75,0.5,95,117.0
407,C#2,63.75,0.5,95,117.0
408,G#2,63.75,0.5,95,117.0
409,C#2,63.75,0.5,95,117.0
410,G#2,64.25,0.25,95,117.0
411,C#2,64.25,0.25,95,117.0
412,G#2,64.25,0.25,95,117.0
413,C#2,64.25,0.25,95,117.0
414,A2,64.5,0.5,95,117.0
415,D2,64.5,0.5,95,117.0
416,A2,64.5,0.5,95,117.0
417,D2,64.5,0.5,95,117.0
418,G#2,65.0,0.5,95,117.0
419,C#2,65.0,0.5,95,117.0
420,G#2,65.0,0.5,95,117.0
421,C#2,65.0,0.5,95,117.0
422,F#2,65.5,0.5,95,117.0
423,B1,65.5,0.5,95,117.0
424,F#2,65.5,0.5,95,117.0
425,B1,65.5,0.5,95,117.0
426,G#2,66.0,0.25,95,117.0
427,C#2,66.0,0.25,95,117.0
428,G#2,66.0,0.25,95,117.0
429,C#2,66.0,0.25,95,117.0
430,G#2,66.25,0.5,95,117.0
431,C#2,66.25,0.5,95,117.0
432,G#2,66.25,0.5,95,117.0
433,C#2,66.25,0.5,95,117.0
434,G#2,66.75,0.5,95,117.0
435,C#2,66.75,0.5,95,117.0
436,G#2,66.75,0.5,95,117.0
437,C#2,66.75,0.5,95,117.0
438,B1,67.25,0.25,95,117.0
439,B1,67.25,0.25,95,117.0
440,A2,67.5,0.25,95,117.0
441,D2,67.5,0.25,95,117.0
442,A2,67.5,0.25,95,117.0
443,D2,67.5,0.25,95,117.0
444,B2,67.75,0.25,95,117.0
445,E2,67.75,0.25,95,117.0
446,B2,67.75,0.25,95,117.0
447,E2,67.75,0.25,95,117.0
448,B1,68.0,0.25,95,117.0
449,B1,68.0,0.25,95,117.0
450,A2,68.25,0.25,95,117.0
451,D2,68.25,0.25,95,117.0
452,A2,68.25,0.25,95,117.0
453,D2,68.25,0.25,95,117.0
454,B2,68.5,0.25,95,117.0
455,E2,68.5,0.25,95,117.0
456,B2,68.5,0.25,95,117.0
457,E2,68.5,0.25,95,117.0
458,B1,68.75,0.25,95,117.0
459,B1,68.75,0.25,95,117.0
460,G#2,69.0,0.25,95,117.0
461,C#2,69.0,0.25,95,117.0
462,G#2,69.0,0.25,95,117.0
463,C#2,69.0,0.25,95,117.0
464,G#2,69.25,0.5,95,117.0
465,C#2,69.25,0.5,95,117.0
466,G#2,69.25,0.5,95,117.0
467,C#2,69.25,0.5,95,117.0
468,G#2,69.75,0.5,95,117.0
469,C#2,69.75,0.5,95,117.0
470,G#2,69.75,0.5,95,117.0
471,C#2,69.75,0.5,95,117.0
472,G#2,70.25,0.25,95,117.0
473,C#2,70.25,0.25,95,117.0
474,G#2,70.25,0.25,95,117.0
475,C#2,70.25,0.25,95,117.0
476,A2,70.5,0.5,95,117.0
477,D2,70.5,0.5,95,117.0
478,A2,70.5,0.5,95,117.0
479,D2,70.5,0.5,95,117.0
480,G#2,71.0,0.5,95,117.0
481,C#2,71.0,0.5,95,117.0
482,G#2,71.0,0.5,95,117.0
483,C#2,71.0,0.5,95,117.0
484,F#2,71.5,0.5,95,117.0
485,B1,71.5,0.5,95,117.0
486,F#2,71.5,0.5,95,117.0
487,B1,71.5,0.5,95,117.0
488,G#2,72.0,0.25,95,117.0
489,C#2,72.0,0.25,95,117.0
490,G#2,72.0,0.25,95,117.0
491,C#2,72.0,0.25,95,117.0
492,G#2,72.25,0.5,95,117.0
493,C#2,72.25,0.5,95,117.0
494,G#2,72.25,0.5,95,117.0
495,C#2,72.25,0.5,95,117.0
496,G#2,72.75,0.5,95,117.0
497,C#2,72.75,0.5,95,117.0
498,G#2,72.75,0.5,95,117.0
499,C#2,72.75,0.5,95,117.0
500,G#2,73.25,0.25,95,117.0
501,G#2,73.25,0.25,95,117.0
502,B2,73.5,0.25,95,117.0
503,B2,73.5,0.25,95,117.0
504,G2,73.75,0.25,95,117.0
505,G2,73.75,0.25,95,117.0
506,E-2,74.0,0.25,95,117.0
507,E-2,74.0,0.25,95,117.0
508,B-2,74.25,0.25,95,117.0
509,B-2,74.25,0.25,95,117.0
510,F#2,74.5,0.25,95,117.0
511,F#2,74.5,0.25,95,117.0
512,D2,74.75,0.25,95,117.0
513,D2,74.75,0.25,95,117.0
514,G#2,75.0,0.25,95,117.0
515,C#2,75.0,0.25,95,117.0
516,G#2,75.0,0.25,95,117.0
517,C#2,75.0,0.25,95,117.0
518,G#2,75.25,0.5,95,117.0
519,C#2,75.25,0.5,95,117.0
520,G#2,75.25,0.5,95,117.0
521,C#2,75.25,0.5,95,117.0
522,C#2,75.75,0.5,95,117.0
523,C#2,75.75,0.5,95,117.0
524,C#2,76.25,0.25,95,117.0
525,C#2,76.25,0.25,95,117.0
526,A2,76.5,0.5,95,117.0
527,D2,76.5,0.5,95,117.0
528,A2,76.5,0.5,95,117.0
529,D2,76.5,0.5,95,117.0
530,G#2,77.0,0.5,95,117.0
531,C#2,77.0,0.5,95,117.0
532,G#2,77.0,0.5,95,117.0
533,C#2,77.0,0.5,95,117.0
534,F#2,77.5,0.5,95,117.0
535,B1,77.5,0.5,95,117.0
536,F#2,77.5,0.5,95,117.0
537,B1,77.5,0.5,95,117.0
538,G#2,78.0,0.25,95,117.0
539,C#2,78.0,0.25,95,117.0
540,G#2,78.0,0.25,95,117.0
541,C#2,78.0,0.25,95,117.0
542,G#2,78.25,0.5,95,117.0
543,C#2,78.25,0.5,95,117.0
544,G#2,78.25,0.5,95,117.0
545,C#2,78.25,0.5,95,117.0
546,C#2,78.75,0.5,95,117.0
547,C#2,78.75,0.5,95,117.0
548,C#2,79.25,0.25,95,117.0
549,C#2,79.25,0.25,95,117.0
550,A2,79.5,0.5,95,117.0
551,D2,79.5,0.5,95,117.0
552,A2,79.5,0.5,95,117.0
553,D2,79.5,0.5,95,117.0
554,G#2,80.0,0.5,95,117.0
555,C#2,80.0,0.5,95,117.0
556,G#2,80.0,0.5,95,117.0
557,C#2,80.0,0.5,95,117.0
558,F#2,80.5,0.5,95,117.0
559,B1,80.5,0.5,95,117.0
560,F#2,80.5,0.5,95,117.0
561,B1,80.5,0.5,95,117.0
562,G#2,81.0,0.25,95,117.0
563,C#2,81.0,0.25,95,117.0
564,G#2,81.0,0.25,95,117.0
565,C#2,81.0,0.25,95,117.0
566,G#2,81.25,0.5,95,117.0
567,C#2,81.25,0.5,95,117.0
568,G#2,81.25,0.5,95,117.0
569,C#2,81.25,0.5,95,117.0
570,C#2,81.75,0.5,95,117.0
571,C#2,81.75,0.5,95,117.0
572,C#2,82.25,0.25,95,117.0
573,C#2,82.25,0.25,95,117.0
574,A2,82.5,0.5,95,117.0
575,D2,82.5,0.5,95,117.0
576,A2,82.5,0.5,95,117.0
577,D2,82.5,0.5,95,117.0
578,G#2,83.0,0.5,95,117.0
579,C#2,83.0,0.5,95,117.0
580,G#2,83.0,0.5,95,117.0
581,C#2,83.0,0.5,95,117.0
582,F#2,83.5,0.5,95,117.0
583,B1,83.5,0.5,95,117.0
584,F#2,83.5,0.5,95,117.0
585,B1,83.5,0.5,95,117.0
586,G#2,84.0,0.25,95,117.0
587,C#2,84.0,0.25,95,117.0
588,G#2,84.0,0.25,95,117.0
589,C#2,84.0,0.25,95,117.0
590,G#2,84.25,0.5,95,117.0
591,C#2,84.25,0.5,95,117.0
592,G#2,84.25,0.5,95,117.0
593,C#2,84.25,0.5,95,117.0
594,C#2,84.75,0.5,95,117.0
595,C#2,84.75,0.5,95,117.0
596,C#2,85.25,0.25,95,117.0
597,C#2,85.25,0.25,95,117.0
598,A2,85.5,0.5,95,117.0
599,D2,85.5,0.5,95,117.0
600,A2,85.5,0.5,95,117.0
601,D2,85.5,0.5,95,117.0
602,G#2,86.0,0.5,95,117.0
603,C#2,86.0,0.5,95,117.0
604,G#2,86.0,0.5,95,117.0
605,C#2,86.0,0.5,95,117.0
606,F#2,86.5,0.5,95,117.0
607,B1,86.5,0.5,95,117.0
608,F#2,86.5,0.5,95,117.0
609,B1,86.5,0.5,95,117.0
610,C#4,87.0,0.5,95,117.0
611,G#2,87.0,0.25,95,117.0
612,C#2,87.0,0.25,95,117.0
613,G#2,87.25,0.5,95,117.0
614,C#2,87.25,0.5,95,117.0
615,C#4,87.5,0.25,95,117.0
616,C#2,87.75,0.5,95,117.0
617,C#4,87.75,0.25,95,117.0
618,C#4,88.0,0.25,95,117.0
619,C#2,88.25,0.25,95,117.0
620,C#4,88.25,0.25,95,117.0
621,C#4,88.5,0.5,95,117.0
622,A2,88.5,0.5,95,117.0
623,D2,88.5,0.5,95,117.0
624,D4,89.0,0.5,95,117.0
625,G#2,89.0,0.5,95,117.0
626,C#2,89.0,0.5,95,117.0
627,C#4,89.5,0.5,95,117.0
628,F#2,89.5,0.5,95,117.0
629,B1,89.5,0.5,95,117.0
630,G#3,90.0,0.5,95,117.0
631,G#2,90.0,0.25,95,117.0
632,C#2,90.0,0.25,95,117.0
633,G#2,90.25,0.5,95,117.0
634,C#2,90.25,0.5,95,117.0
635,G#3,90.5,0.25,95,117.0
636,C#2,90.75,0.5,95,117.0
637,G#3,90.75,0.25,95,117.0
638,G#3,91.0,0.25,95,117.0
639,C#2,91.25,0.25,95,117.0
640,G#3,91.25,0.25,95,117.0
641,G#3,91.5,0.5,95,117.0
642,A2,91.5,0.5,95,117.0
643,D2,91.5,0.5,95,117.0
644,A3,92.0,0.5,95,117.0
645,G#2,92.0,0.5,95,117.0
646,C#2,92.0,0.5,95,117.0
647,G#3,92.5,0.5,95,117.0
648,F#2,92.5,0.5,95,117.0
649,B1,92.5,0.5,95,117.0
650,F#3,93.0,0.5,95,117.0
651,G#2,93.0,0.25,95,117.0
652,C#2,93.0,0.25,95,117.0
653,G#2,93.25,0.5,95,117.0
654,C#2,93.25,0.5,95,117.0
655,F#3,93.5,0.25,95,117.0
656,C#2,93.75,0.5,95,117.0
657,F#3,93.75,0.25,95,117.0
658,F#3,94.0,0.25,95,117.0
659,C#2,94.25,0.25,95,117.0
660,F#3,94.25,0.25,95,117.0
661,F#3,94.5,0.5,95,117.0
662,A2,94.5,0.5,95,117.0
663,D2,94.5,0.5,95,117.0
664,E3,95.0,0.5,95,117.0
665,G#2,95.0,0.5,95,117.0
666,C#2,95.0,0.5,95,117.0
667,D3,95.5,0.5,95,117.0
668,F#2,95.5,0.5,95,117.0
669,B1,95.5,0.5,95,117.0
670,C#3,96.0,3.0,95,117.0
671,G#2,96.0,0.25,95,117.0
672,C#2,96.0,0.25,95,117.0
673,G#2,96.25,0.5,95,117.0
674,C#2,96.25,0.5,95,117.0
675,C#2,96.75,0.5,95,117.0
676,C#2,97.25,0.25,95,117.0
677,A2,97.5,0.5,95,117.0
678,D2,97.5,0.5,95,117.0
679,G#2,98.0,0.5,95,117.0
680,C#2,98.0,0.5,95,117.0
681,F#2,98.5,0.5,95,117.0
682,B1,98.5,0.5,95,117.0
683,G#2,99.0,0.25,95,117.0
684,C#2,99.0,0.25,95,117.0
685,G#3,99.0,3.0,63,117.0
686,G#4,99.0,3.0,63,117.0
687,G#2,99.25,0.5,95,117.0
688,C#2,99.25,0.5,95,117.0
689,C#2,99.75,0.5,95,117.0
690,C#2,100.25,0.25,95,117.0
691,A2,100.5,0.5,95,117.0
692,D2,100.5,0.5,95,117.0
693,G#2,101.0,0.5,95,117.0
694,C#2,101.0,0.5,95,117.0
695,F#2,101.5,0.5,95,117.0
696,B1,101.5,0.5,95,117.0
697,G#2,102.0,0.25,95,117.0
698,C#2,102.0,0.25,95,117.0
699,C#4,102.0,3.0,63,117.0
700,C#5,102.0,3.0,63,117.0
701,G#2,102.25,0.5,95,117.0
702,C#2,102.25,0.5,95,117.0
703,C#2,102.75,0.5,95,117.0
704,C#2,103.25,0.25,95,117.0
705,A2,103.5,0.5,95,117.0
706,D2,103.5,0.5,95,117.0
707,G#2,104.0,0.5,95,117.0
708,C#2,104.0,0.5,95,117.0
709,F#2,104.5,0.5,95,117.0
710,B1,104.5,0.5,95,117.0
711,G#2,105.0,0.25,95,117.0
712,C#2,105.0,0.25,95,117.0
713,G#2,105.25,0.5,95,117.0
714,C#2,105.25,0.5,95,117.0
715,C#2,105.75,0.5,95,117.0
716,C#2,106.25,0.25,95,117.0
717,A2,106.5,0.5,95,117.0
718,D2,106.5,0.5,95,117.0
719,G#2,107.0,0.5,95,117.0
720,C#2,107.0,0.5,95,117.0
721,C#4,107.0,2.0,63,117.0
722,C#5,107.0,2.0,63,117.0
723,F#2,107.5,0.5,95,117.0
724,B1,107.5,0.5,95,117.0
725,G#2,108.0,0.25,95,117.0
726,C#2,108.0,0.25,95,117.0
727,G#2,108.25,0.5,95,117.0
728,C#2,108.25,0.5,95,117.0
729,C#2,108.75,0.5,95,117.0
730,D4,109.0,1.0,95,117.0
731,C#2,109.25,0.25,95,117.0
732,A2,109.5,0.5,95,117.0
733,D2,109.5,0.5,95,117.0
734,C#4,110.0,0.5,95,117.0
735,G#2,110.0,0.5,95,117.0
736,C#2,110.0,0.5,95,117.0
737,C#4,110.5,0.25,95,117.0
738,F#2,110.5,0.5,95,117.0
739,B1,110.5,0.5,95,117.0
740,C#4,110.75,0.25,95,117.0
741,C#4,111.0,0.25,95,117.0
742,G#2,111.0,0.25,95,117.0
743,C#2,111.0,0.25,95,117.0
744,C#4,111.25,0.25,95,117.0
745,G#2,111.25,0.5,95,117.0
746,C#2,111.25,0.5,95,117.0
747,C#4,111.5,0.5,95,117.0
748,C#2,111.75,0.5,95,117.0
749,D4,112.0,0.5,95,117.0
750,C#2,112.25,0.25,95,117.0
751,C#4,112.5,0.5,95,117.0
752,A2,112.5,0.5,95,117.0
753,D2,112.5,0.5,95,117.0
754,G#3,113.0,0.5,95,117.0
755,G#2,113.0,0.5,95,117.0
756,C#2,113.0,0.5,95,117.0
757,G#3,113.5,0.25,95,117.0
758,F#2,113.5,0.5,95,117.0
759,B1,113.5,0.5,95,117.0
760,G#3,113.75,0.25,95,117.0
761,G#3,114.0,0.25,95,117.0
762,F#2,114.0,0.25,95,117.0
763,B1,114.0,0.25,95,117.0
764,G#3,114.25,0.25,95,117.0
765,F#2,114.25,0.5,95,117.0
766,B1,114.25,0.5,95,117.0
767,G#3,114.5,0.5,95,117.0
768,B1,114.75,0.5,95,117.0
769,A3,115.0,0.5,70,117.0
770,B1,115.25,0.25,95,117.0
771,C#4,115.5,0.5,95,117.0
772,F#2,115.5,0.5,95,117.0
773,B1,115.5,0.5,95,117.0
774,B3,116.0,1.5,95,117.0
775,F#2,116.0,0.5,95,117.0
776,B1,116.0,0.5,95,117.0
777,A2,116.5,0.5,95,117.0
778,D2,116.5,0.5,95,117.0
779,G#2,117.0,0.25,95,117.0
780,C#2,117.0,0.25,95,117.0
781,G#2,117.25,0.5,95,117.0
782,C#2,117.25,0.5,95,117.0
783,B3,117.5,0.5,95,117.0
784,C#2,117.75,0.5,95,117.0
785,C#4,118.0,0.5,70,117.0
786,C#2,118.25,0.25,95,117.0
787,F4,118.5,0.25,95,117.0
788,A2,118.5,0.5,95,117.0
789,D2,118.5,0.5,95,117.0
790,F#4,118.75,0.25,70,117.0
791,F4,119.0,3.0,95,117.0
792,G#2,119.0,0.5,95,117.0
793,C#2,119.0,0.5,95,117.0
794,F#2,119.5,0.5,95,117.0
795,B1,119.5,0.5,95,117.0
796,G#2,120.0,0.25,95,117.0
797,C#2,120.0,0.25,95,117.0
798,G#2,120.25,0.5,95,117.0
799,C#2,120.25,0.5,95,117.0
800,C#2,120.75,0.5,95,117.0
801,C#2,121.25,0.25,95,117.0
802,A2,121.5,0.5,95,117.0
803,D2,121.5,0.5,95,117.0
804,F4,122.0,3.0,95,117.0
805,G#2,122.0,0.5,95,117.0
806,C#2,122.0,0.5,95,117.0
807,F#2,122.5,0.5,95,117.0
808,B1,122.5,0.5,95,117.0
809,C#2,123.0,0.25,95,117.0
810,C#2,123.25,0.5,95,117.0
811,C#2,123.75,0.5,95,117.0
812,C#2,124.25,0.25,95,117.0
813,A2,124.5,0.5,95,117.0
814,D2,124.5,0.5,95,117.0
815,F4,125.0,0.5,95,117.0
816,G#2,125.0,0.5,95,117.0
817,C#2,125.0,0.5,95,117.0
818,C#4,125.5,0.5,95,117.0
819,F#2,125.5,0.5,95,117.0
820,B1,125.5,0.5,95,117.0
821,C#4,126.0,1.0,95,117.0
822,G#2,126.0,0.25,95,117.0
823,C#2,126.0,0.25,95,117.0
824,G#2,126.25,0.5,95,117.0
825,C#2,126.25,0.5,95,117.0
826,G#2,126.75,0.5,95,117.0
827,C#2,126.75,0.5,95,117.0
828,D4,127.0,0.5,95,117.0
829,G#2,127.25,0.25,95,117.0
830,C#2,127.25,0.25,95,117.0
831,C#4,127.5,0.5,70,117.0
832,A2,127.5,0.5,95,117.0
833,D2,127.5,0.5,95,117.0
834,B3,128.0,0.5,95,117.0
835,G#2,128.0,0.5,95,117.0
836,C#2,128.0,0.5,95,117.0
837,C#4,128.5,0.5,95,117.0
838,F#2,128.5,0.5,95,117.0
839,B1,128.5,0.5,95,117.0
840,C#4,129.0,2.0,95,117.0
841,F#3,129.0,3.0,95,117.0
842,B2,129.0,3.0,95,117.0
843,E4,130.875,0.125,95,117.0
844,F#4,131.0,2.0,95,117.0
845,D3,132.0,3.0,95,117.0
846,G2,132.0,3.0,95,117.0
847,E4,133.0,0.5,95,117.0
848,D4,133.5,0.5,95,117.0
849,E4,133.875,0.125,95,117.0
850,F#4,134.0,2.0,95,117.0
851,E3,135.0,3.0,95,117.0
852,A2,135.0,3.0,95,117.0
853,F#4,136.0,1.0,95,117.0
854,E4,137.0,2.0,95,117.0
855,C#3,138.0,3.0,95,117.0
856,F#2,138.0,3.0,95,117.0
857,D4,139.0,0.5,95,117.0
858,C#4,139.5,0.5,95,117.0
859,E4,140.0,1.0,95,117.0
860,D4,141.0,1.0,95,117.0
861,F#3,141.0,3.0,95,117.0
862,B2,141.0,3.0,95,117.0
863,C#4,142.0,1.0,95,117.0
864,E4,142.875,0.125,95,117.0
865,F#4,143.0,2.0,95,117.0
866,D3,144.0,3.0,95,117.0
867,G2,144.0,3.0,95,117.0
868,E4,145.0,0.5,95,117.0
869,D4,145.5,0.5,95,117.0
870,A4,146.0,1.0,95,117.0
871,G4,147.0,1.0,95,117.0
872,E3,147.0,3.0,95,117.0
873,A2,147.0,3.0,95,117.0
874,F#4,148.0,667/1000,95,117.0
875,G4,148.667,167/1000,95,117.0
876,F#4,148.833,167/1000,95,117.0
877,E4,149.0,3.0,95,117.0
878,E3,150.0,3.0,95,117.0
879,A2,150.0,3.0,95,117.0
880,D4,152.0,0.25,95,117.0
881,E4,152.25,0.25,95,117.0
882,F#4,152.5,0.25,95,117.0
883,G4,152.75,0.25,95,117.0
884,A4,153.0,0.25,95,117.0
885,F#3,153.0,3.0,95,117.0
886,B2,153.0,3.0,95,117.0
887,B4,153.25,0.25,95,117.0
888,E4,153.5,0.25,95,117.0
889,F#4,153.75,0.25,95,117.0
890,A4,154.0,0.25,95,117.0
891,B4,154.25,0.25,95,117.0
892,C#5,154.5,0.25,95,117.0
893,E5,154.75,0.25,95,117.0
894,F#5,155.0,2.0,95,117.0
895,D5,155.0,2.0,95,117.0
896,D3,156.0,3.0,95,117.0
897,G2,156.0,3.0,95,117.0
898,D5,157.0,0.5,95,117.0
899,B4,157.0,0.5,95,117.0
900,E5,157.5,0.5,95,117.0
901,C#5,157.5,0.5,95,117.0
902,F#5,158.0,2.0,95,117.0
903,D5,158.0,2.0,95,117.0
904,E3,159.0,3.0,95,117.0
905,A2,159.0,3.0,95,117.0
906,G5,160.0,0.5,95,117.0
907,E5,160.0,0.5,95,117.0
908,F#5,160.5,0.5,95,117.0
909,D5,160.5,0.5,95,117.0
910,E5,161.0,2.0,95,117.0
911,C#5,161.0,2.0,95,117.0
912,C#3,162.0,3.0,95,117.0
913,F#2,162.0,3.0,95,117.0
914,D5,163.0,0.5,95,117.0
915,B4,163.0,0.5,95,117.0
916,C#5,163.5,0.5,95,117.0
917,A4,163.5,0.5,95,117.0
918,E5,164.0,1.0,95,117.0
919,C#5,164.0,1.0,95,117.0
920,D3,165.0,3.0,95,117.0
921,G2,165.0,3.0,95,117.0
922,D5,165.0,1.0,95,117.0
923,B4,165.0,1.0,95,117.0
924,C#5,166.0,1.0,95,117.0
925,A4,166.0,1.0,95,117.0
926,D5,167.0,3.0,95,117.0
927,B4,167.0,3.0,95,117.0
928,F#4,168.0,0.25,95,117.0
929,A4,168.25,0.25,95,117.0
930,B4,168.5,0.25,95,117.0
931,C#5,168.75,0.25,95,117.0
932,D5,169.0,0.25,95,117.0
933,E5,169.25,0.25,95,117.0
934,C#5,169.5,167/1000,95,117.0
935,D5,169.667,167/1000,95,117.0
936,E5,169.833,167/1000,95,117.0
937,A4,170.0,0.25,95,117.0
938,F#5,170.0,167/1000,95,117.0
939,G5,170.167,167/1000,95,117.0
940,C#5,170.25,0.25,95,117.0
941,A5,170.333,167/1000,95,117.0
942,D5,170.5,0.25,95,117.0
943,F#5,170.5,167/1000,95,117.0
944,G5,170.667,167/1000,95,117.0
945,E5,170.75,0.25,95,117.0
946,A5,170.833,167/1000,95,117.0
947,F#5,171.0,0.25,95,117.0
948,B5,171.0,2.0,95,117.0
949,D3,171.0,3.0,95,117.0
950,G2,171.0,3.0,95,117.0
951,G5,171.25,0.25,95,117.0
952,E5,171.5,167/1000,95,117.0
953,F#5,171.667,167/1000,95,117.0
954,G5,171.833,167/1000,95,117.0
955,A5,172.0,167/1000,95,117.0
956,B5,172.167,167/1000,95,117.0
957,C#6,172.333,167/1000,95,117.0
958,A5,172.5,167/1000,95,117.0
959,B5,172.667,167/1000,95,117.0
960,C#6,172.833,167/1000,95,117.0
961,D6,173.0,2.0,95,117.0
962,A5,173.0,0.5,95,117.0
963,F#5,173.5,0.5,95,117.0
964,E5,174.0,1.5,95,117.0
965,B2,174.0,3.0,95,117.0
966,E2,174.0,3.0,95,117.0
967,C#6,175.0,0.5,95,117.0
968,A5,175.5,0.5,95,117.0
969,D5,175.5,1.5,95,117.0
970,G5,176.0,1.5,95,117.0
971,C#5,177.0,3.0,95,117.0
972,C#3,177.0,1.5,95,117.0
973,F#2,177.0,1.5,95,117.0
974,F#5,177.5,1.5,95,117.0
975,A2,178.5,1.5,95,117.0
976,D2,178.5,1.5,95,117.0
977,G#5,179.0,3.0,95,117.0
978,C#2,180.0,0.25,95,117.0
979,C#5,180.0,3.0,95,117.0
980,C#2,180.25,0.5,95,117.0
981,C#2,180.75,0.5,95,117.0
982,C#2,181.25,0.25,95,117.0
983,D2,181.5,0.5,95,117.0
984,C#2,182.0,0.5,95,117.0
985,G#5,182.0,3.0,95,117.0
986,B1,182.5,0.5,95,117.0
987,C#2,183.0,0.25,95,117.0
988,C#5,183.0,3.0,95,117.0
989,C#2,183.25,0.5,95,117.0
990,C#2,183.75,0.5,95,117.0
991,C#2,184.25,0.25,95,117.0
992,D2,184.5,0.25,95,117.0
993,C#2,184.75,0.25,95,117.0
994,B1,185.0,0.25,95,117.0
995,G#5,185.0,3.0,95,117.0
996,F#2,185.25,0.25,95,117.0
997,F2,185.5,0.25,95,117.0
998,D2,185.75,0.25,95,117.0
999,C#2,186.0,0.25,95,117.0
1000,C#5,186.0,3.0,95,117.0
1001,C#2,186.25,0.5,95,117.0
1002,C#2,186.75,0.5,95,117.0
1003,C#2,187.25,0.25,95,117.0
1004,D2,187.5,0.5,95,117.0
1005,F2,188.0,0.5,95,117.0
1006,G#5,188.0,3.0,95,117.0
1007,F#2,188.5,0.5,95,117.0
1008,B1,189.0,0.25,95,117.0
1009,C#2,189.25,0.25,95,117.0
1010,D2,189.5,0.25,95,117.0
1011,F#2,189.75,0.25,95,117.0
1012,B2,190.0,0.25,95,117.0
1013,D3,190.25,0.25,95,117.0
1014,C#3,190.5,0.5,95,117.0
1015,B1,191.0,0.5,95,117.0
1016,C#2,191.0,0.25,95,117.0
1017,C#2,191.25,0.5,95,117.0
1018,D2,191.5,0.5,95,117.0
1019,C#2,191.75,0.5,95,117.0
1020,C#2,192.0,0.25,95,117.0
1021,C#2,192.25,0.5,95,117.0
1022,C#2,192.25,0.25,95,117.0
1023,D2,192.5,0.5,95,117.0
1024,C#2,192.75,0.5,95,117.0
1025,C#2,193.0,0.5,95,117.0
1026,C#2,193.25,0.25,95,117.0
1027,D2,193.5,0.5,95,117.0
1028,B1,193.5,0.5,95,117.0
1029,C#2,194.0,0.5,95,117.0
1030,C#2,194.0,0.25,95,117.0
1031,C#2,194.25,0.5,95,117.0
1032,B1,194.5,0.5,95,117.0
1033,C#2,194.75,0.5,95,117.0
1034,C#2,195.0,0.25,95,117.0
1035,C#2,195.25,0.5,95,117.0
1036,C#2,195.25,0.25,95,117.0
1037,D2,195.5,0.25,95,117.0
1038,C#2,195.75,0.5,95,117.0
1039,C#2,195.75,0.25,95,117.0
1040,B1,196.0,0.25,95,117.0
1041,C#2,196.25,0.25,95,117.0
1042,F#2,196.25,0.25,95,117.0
1043,D2,196.5,0.25,95,117.0
1044,F2,196.5,0.25,95,117.0
1045,C#2,196.75,0.25,95,117.0
1046,D2,196.75,0.25,95,117.0
1047,B1,197.0,0.25,95,117.0
1048,C#2,197.0,0.25,95,117.0
1049,F#2,197.25,0.25,95,117.0
1050,C#2,197.25,0.5,95,117.0
1051,F2,197.5,0.25,95,117.0
1052,D2,197.75,0.25,95,117.0
1053,C#2,197.75,0.5,95,117.0
1054,C#2,198.0,0.25,95,117.0
1055,C#2,198.25,0.5,95,117.0
1056,C#2,198.25,0.25,95,117.0
1057,D2,198.5,0.5,95,117.0
1058,C#2,198.75,0.5,95,117.0
1059,C#2,199.0,0.5,95,117.0
1060,C#2,199.25,0.25,95,117.0
1061,D2,199.5,0.5,95,117.0
1062,B1,199.5,0.5,95,117.0
1063,C#2,200.0,0.5,95,117.0
1064,D3,200.0,167/1000,95,117.0
1065,C#3,200.167,167/1000,95,117.0
1066,B2,200.333,167/1000,95,117.0
1067,B1,200.5,0.5,95,117.0
1068,A2,200.5,0.25,95,117.0
1069,G#2,200.75,0.25,95,117.0
1070,D3,201.0,167/1000,95,117.0
1071,F#2,201.0,0.25,95,117.0
1072,C#3,201.167,167/1000,95,117.0
1073,E2,201.25,0.25,95,117.0
1074,B2,201.333,167/1000,95,117.0
1075,A2,201.5,0.25,95,117.0
1076,D2,201.5,0.25,95,117.0
1077,G#2,201.75,0.25,95,117.0
1078,C#2,201.75,0.25,95,117.0
1079,F#2,202.0,0.25,95,117.0
1080,A2,202.0,0.25,95,117.0
1081,E2,202.25,0.25,95,117.0
1082,G#2,202.25,0.25,95,117.0
1083,D2,202.5,0.25,95,117.0
1084,F#2,202.5,0.25,95,117.0
1085,C#2,202.75,0.25,95,117.0
1086,D2,202.75,0.25,95,117.0
1087,A2,203.0,0.25,95,117.0
1088,G#2,203.0,0.25,95,117.0
1089,C#2,203.0,0.25,95,117.0
1090,G#2,203.25,0.25,95,117.0
1091,G#2,203.25,0.5,95,117.0
1092,C#2,203.25,0.5,95,117.0
1093,F#2,203.5,0.25,95,117.0
1094,D2,203.75,0.25,95,117.0
1095,G#2,203.75,0.5,95,117.0
1096,C#2,203.75,0.5,95,117.0
1097,G#2,204.0,0.25,95,117.0
1098,C#2,204.0,0.25,95,117.0
1099,G#2,204.25,0.5,95,117.0
1100,C#2,204.25,0.5,95,117.0
1101,G#2,204.25,0.25,95,117.0
1102,C#2,204.25,0.25,95,117.0
1103,A2,204.5,0.5,95,117.0
1104,D2,204.5,0.5,95,117.0
1105,G#2,204.75,0.5,95,117.0
1106,C#2,204.75,0.5,95,117.0
1107,G#2,205.0,0.5,95,117.0
1108,C#2,205.0,0.5,95,117.0
1109,G#2,205.25,0.25,95,117.0
1110,C#2,205.25,0.25,95,117.0
1111,A2,205.5,0.5,95,117.0
1112,D2,205.5,0.5,95,117.0
1113,F#2,205.5,0.5,95,117.0
1114,B1,205.5,0.5,95,117.0
1115,G#2,206.0,0.5,95,117.0
1116,C#2,206.0,0.5,95,117.0
1117,G#2,206.0,0.25,95,117.0
1118,C#2,206.0,0.25,95,117.0
1119,G#2,206.25,0.5,95,117.0
1120,C#2,206.25,0.5,95,117.0
1121,F#2,206.5,0.5,95,117.0
1122,B1,206.5,0.5,95,117.0
1123,G#2,206.75,0.5,95,117.0
1124,C#2,206.75,0.5,95,117.0
1125,G#2,207.0,0.25,95,117.0
1126,C#2,207.0,0.25,95,117.0
1127,B1,207.25,0.25,95,117.0
1128,G#2,207.25,0.5,95,117.0
1129,C#2,207.25,0.5,95,117.0
1130,A2,207.5,0.25,95,117.0
1131,D2,207.5,0.25,95,117.0
1132,G#2,207.75,0.5,95,117.0
1133,C#2,207.75,0.5,95,117.0
1134,B2,207.75,0.25,95,117.0
1135,E2,207.75,0.25,95,117.0
1136,B1,208.0,0.25,95,117.0
1137,B1,208.25,0.25,95,117.0
1138,A2,208.25,0.25,95,117.0
1139,D2,208.25,0.25,95,117.0
1140,A2,208.5,0.25,95,117.0
1141,D2,208.5,0.25,95,117.0
1142,B2,208.5,0.25,95,117.0
1143,E2,208.5,0.25,95,117.0
1144,B1,208.75,0.25,95,117.0
1145,B2,208.75,0.25,95,117.0
1146,E2,208.75,0.25,95,117.0
1147,B1,209.0,0.25,95,117.0
1148,G#2,209.0,0.25,95,117.0
1149,C#2,209.0,0.25,95,117.0
1150,A2,209.25,0.25,95,117.0
1151,D2,209.25,0.25,95,117.0
1152,G#2,209.25,0.5,95,117.0
1153,C#2,209.25,0.5,95,117.0
1154,B2,209.5,0.25,95,117.0
1155,E2,209.5,0.25,95,117.0
1156,B1,209.75,0.25,95,117.0
1157,G#2,209.75,0.5,95,117.0
1158,C#2,209.75,0.5,95,117.0
1159,G#2,210.0,0.25,95,117.0
1160,C#2,210.0,0.25,95,117.0
1161,G#2,210.25,0.5,95,117.0
1162,C#2,210.25,0.5,95,117.0
1163,G#2,210.25,0.25,95,117.0
1164,C#2,210.25,0.25,95,117.0
1165,A2,210.5,0.5,95,117.0
1166,D2,210.5,0.5,95,117.0
1167,G#2,210.75,0.5,95,117.0
1168,C#2,210.75,0.5,95,117.0
1169,G#2,211.0,0.5,95,117.0
1170,C#2,211.0,0.5,95,117.0
1171,G#2,211.25,0.25,95,117.0
1172,C#2,211.25,0.25,95,117.0
1173,A2,211.5,0.5,95,117.0
1174,D2,211.5,0.5,95,117.0
1175,F#2,211.5,0.5,95,117.0
1176,B1,211.5,0.5,95,117.0
1177,G#2,212.0,0.5,95,117.0
1178,C#2,212.0,0.5,95,117.0
1179,G#2,212.0,0.25,95,117.0
1180,C#2,212.0,0.25,95,117.0
1181,G#2,212.25,0.5,95,117.0
1182,C#2,212.25,0.5,95,117.0
1183,F#2,212.5,0.5,95,117.0
1184,B1,212.5,0.5,95,117.0
1185,G#2,212.75,0.5,95,117.0
1186,C#2,212.75,0.5,95,117.0
1187,G#2,213.0,0.25,95,117.0
1188,C#2,213.0,0.25,95,117.0
1189,G#2,213.25,0.25,95,117.0
1190,G#2,213.25,0.5,95,117.0
1191,C#2,213.25,0.5,95,117.0
1192,B2,213.5,0.25,95,117.0
1193,G2,213.75,0.25,95,117.0
1194,G#2,213.75,0.5,95,117.0
1195,C#2,213.75,0.5,95,117.0
1196,E-2,214.0,0.25,95,117.0
1197,G#2,214.25,0.25,95,117.0
1198,B-2,214.25,0.25,95,117.0
1199,B2,214.5,0.25,95,117.0
1200,F#2,214.5,0.25,95,117.0
1201,G2,214.75,0.25,95,117.0
1202,D2,214.75,0.25,95,117.0
1203,E-2,215.0,0.25,95,117.0
1204,G#2,215.0,0.25,95,117.0
1205,C#2,215.0,0.25,95,117.0
1206,B-2,215.25,0.25,95,117.0
1207,G#2,215.25,0.5,95,117.0
1208,C#2,215.25,0.5,95,117.0
1209,F#2,215.5,0.25,95,117.0
1210,D2,215.75,0.25,95,117.0
1211,G#2,215.75,0.5,95,117.0
1212,C#2,215.75,0.5,95,117.0
1213,G#2,216.0,0.25,95,117.0
1214,C#2,216.0,0.25,95,117.0
1215,G#2,216.25,0.5,95,117.0
1216,C#2,216.25,0.5,95,117.0
1217,G#2,216.25,0.25,95,117.0
1218,C#2,216.25,0.25,95,117.0
1219,A2,216.5,0.5,95,117.0
1220,D2,216.5,0.5,95,117.0
1221,G#2,216.75,0.5,95,117.0
1222,C#2,216.75,0.5,95,117.0
1223,G#2,217.0,0.5,95,117.0
1224,C#2,217.0,0.5,95,117.0
1225,G#2,217.25,0.25,95,117.0
1226,C#2,217.25,0.25,95,117.0
1227,A2,217.5,0.5,95,117.0
1228,D2,217.5,0.5,95,117.0
1229,F#2,217.5,0.5,95,117.0
1230,B1,217.5,0.5,95,117.0
1231,G#2,218.0,0.5,95,117.0
1232,C#2,218.0,0.5,95,117.0
1233,G#2,218.0,0.25,95,117.0
1234,C#2,218.0,0.25,95,117.0
1235,G#2,218.25,0.5,95,117.0
1236,C#2,218.25,0.5,95,117.0
1237,F#2,218.5,0.5,95,117.0
1238,B1,218.5,0.5,95,117.0
1239,G#2,218.75,0.5,95,117.0
1240,C#2,218.75,0.5,95,117.0
1241,G#2,219.0,0.25,95,117.0
1242,C#2,219.0,0.25,95,117.0
1243,B1,219.25,0.25,95,117.0
1244,G#2,219.25,0.5,95,117.0
1245,C#2,219.25,0.5,95,117.0
1246,A2,219.5,0.25,95,117.0
1247,D2,219.5,0.25,95,117.0
1248,G#2,219.75,0.5,95,117.0
1249,C#2,219.75,0.5,95,117.0
1250,B2,219.75,0.25,95,117.0
1251,E2,219.75,0.25,95,117.0
1252,B1,220.0,0.25,95,117.0
1253,B1,220.25,0.25,95,117.0
1254,A2,220.25,0.25,95,117.0
1255,D2,220.25,0.25,95,117.0
1256,A2,220.5,0.25,95,117.0
1257,D2,220.5,0.25,95,117.0
1258,B2,220.5,0.25,95,117.0
1259,E2,220.5,0.25,95,117.0
1260,B1,220.75,0.25,95,117.0
1261,B2,220.75,0.25,95,117.0
1262,E2,220.75,0.25,95,117.0
1263,B1,221.0,0.25,95,117.0
1264,G#2,221.0,0.25,95,117.0
1265,C#2,221.0,0.25,95,117.0
1266,A2,221.25,0.25,95,117.0
1267,D2,221.25,0.25,95,117.0
1268,G#2,221.25,0.5,95,117.0
1269,C#2,221.25,0.5,95,117.0
1270,B2,221.5,0.25,95,117.0
1271,E2,221.5,0.25,95,117.0
1272,B1,221.75,0.25,95,117.0
1273,G#2,221.75,0.5,95,117.0
1274,C#2,221.75,0.5,95,117.0
1275,G#2,222.0,0.25,95,117.0
1276,C#2,222.0,0.25,95,117.0
1277,G#2,222.25,0.5,95,117.0
1278,C#2,222.25,0.5,95,117.0
1279,G#2,222.25,0.25,95,117.0
1280,C#2,222.25,0.25,95,117.0
1281,A2,222.5,0.5,95,117.0
1282,D2,222.5,0.5,95,117.0
1283,G#2,222.75,0.5,95,117.0
1284,C#2,222.75,0.5,95,117.0
1285,G#2,223.0,0.5,95,117.0
1286,C#2,223.0,0.5,95,117.0
1287,G#2,223.25,0.25,95,117.0
1288,C#2,223.25,0.25,95,117.0
1289,A2,223.5,0.5,95,117.0
1290,D2,223.5,0.5,95,117.0
1291,F#2,223.5,0.5,95,117.0
1292,B1,223.5,0.5,95,117.0
1293,G#2,224.0,0.5,95,117.0
1294,C#2,224.0,0.5,95,117.0
1295,G#2,224.0,0.25,95,117.0
1296,C#2,224.0,0.25,95,117.0
1297,G#2,224.25,0.5,95,117.0
1298,C#2,224.25,0.5,95,117.0
1299,F#2,224.5,0.5,95,117.0
1300,B1,224.5,0.5,95,117.0
1301,G#2,224.75,0.5,95,117.0
1302,C#2,224.75,0.5,95,117.0
1303,G#2,225.0,0.25,95,117.0
1304,C#2,225.0,0.25,95,117.0
1305,G#2,225.25,0.25,95,117.0
1306,G#2,225.25,0.5,95,117.0
1307,C#2,225.25,0.5,95,117.0
1308,B2,225.5,0.25,95,117.0
1309,G2,225.75,0.25,95,117.0
1310,G#2,225.75,0.5,95,117.0
1311,C#2,225.75,0.5,95,117.0
1312,E-2,226.0,0.25,95,117.0
1313,G#2,226.25,0.25,95,117.0
1314,B-2,226.25,0.25,95,117.0
1315,B2,226.5,0.25,95,117.0
1316,F#2,226.5,0.25,95,117.0
1317,G2,226.75,0.25,95,117.0
1318,D2,226.75,0.25,95,117.0
1319,E-2,227.0,0.25,95,117.0
1320,G#2,227.0,0.25,95,117.0
1321,C#2,227.0,0.25,95,117.0
1322,B-2,227.25,0.25,95,117.0
1323,G#2,227.25,0.5,95,117.0
1324,C#2,227.25,0.5,95,117.0
1325,F#2,227.5,0.25,95,117.0
1326,D2,227.75,0.25,95,117.0
1327,C#2,227.75,0.5,95,117.0
1328,G#2,228.0,0.25,95,117.0
1329,C#2,228.0,0.25,95,117.0
1330,C#2,228.25,0.25,95,117.0
1331,G#2,228.25,0.5,95,117.0
1332,C#2,228.25,0.5,95,117.0
1333,A2,228.5,0.5,95,117.0
1334,D2,228.5,0.5,95,117.0
1335,C#2,228.75,0.5,95,117.0
1336,G#2,229.0,0.5,95,117.0
1337,C#2,229.0,0.5,95,117.0
1338,C#2,229.25,0.25,95,117.0
1339,A2,229.5,0.5,95,117.0
1340,D2,229.5,0.5,95,117.0
1341,F#2,229.5,0.5,95,117.0
1342,B1,229.5,0.5,95,117.0
1343,G#2,230.0,0.5,95,117.0
1344,C#2,230.0,0.5,95,117.0
1345,G#2,230.0,0.25,95,117.0
1346,C#2,230.0,0.25,95,117.0
1347,G#2,230.25,0.5,95,117.0
1348,C#2,230.25,0.5,95,117.0
1349,F#2,230.5,0.5,95,117.0
1350,B1,230.5,0.5,95,117.0
1351,C#2,230.75,0.5,95,117.0
1352,G#2,231.0,0.25,95,117.0
1353,C#2,231.0,0.25,95,117.0
1354,C#2,231.25,0.25,95,117.0
1355,G#2,231.25,0.5,95,117.0
1356,C#2,231.25,0.5,95,117.0
1357,A2,231.5,0.5,95,117.0
1358,D2,231.5,0.5,95,117.0
1359,C#2,231.75,0.5,95,117.0
1360,G#2,232.0,0.5,95,117.0
1361,C#2,232.0,0.5,95,117.0
1362,C#2,232.25,0.25,95,117.0
1363,A2,232.5,0.5,95,117.0
1364,D2,232.5,0.5,95,117.0
1365,F#2,232.5,0.5,95,117.0
1366,B1,232.5,0.5,95,117.0
1367,G#2,233.0,0.5,95,117.0
1368,C#2,233.0,0.5,95,117.0
1369,G#2,233.0,0.25,95,117.0
1370,C#2,233.0,0.25,95,117.0
1371,G#2,233.25,0.5,95,117.0
1372,C#2,233.25,0.5,95,117.0
1373,F#2,233.5,0.5,95,117.0
1374,B1,233.5,0.5,95,117.0
1375,C#2,233.75,0.5,95,117.0
1376,G#2,234.0,0.25,95,117.0
1377,C#2,234.0,0.25,95,117.0
1378,C#2,234.25,0.25,95,117.0
1379,G#2,234.25,0.5,95,117.0
1380,C#2,234.25,0.5,95,117.0
1381,A2,234.5,0.5,95,117.0
1382,D2,234.5,0.5,95,117.0
1383,C#2,234.75,0.5,95,117.0
1384,G#2,235.0,0.5,95,117.0
1385,C#2,235.0,0.5,95,117.0
1386,C#2,235.25,0.25,95,117.0
1387,A2,235.5,0.5,95,117.0
1388,D2,235.5,0.5,95,117.0
1389,F#2,235.5,0.5,95,117.0
1390,B1,235.5,0.5,95,117.0
1391,G#2,236.0,0.5,95,117.0
1392,C#2,236.0,0.5,95,117.0
1393,G#2,236.0,0.25,95,117.0
1394,C#2,236.0,0.25,95,117.0
1395,G#2,236.25,0.5,95,117.0
1396,C#2,236.25,0.5,95,117.0
1397,F#2,236.5,0.5,95,117.0
1398,B1,236.5,0.5,95,117.0
1399,C#2,236.75,0.5,95,117.0
1400,G#2,237.0,0.25,95,117.0
1401,C#2,237.0,0.25,95,117.0
1402,C#2,237.25,0.25,95,117.0
1403,G#2,237.25,0.5,95,117.0
1404,C#2,237.25,0.5,95,117.0
1405,A2,237.5,0.5,95,117.0
1406,D2,237.5,0.5,95,117.0
1407,C#2,237.75,0.5,95,117.0
1408,G#2,238.0,0.5,95,117.0
1409,C#2,238.0,0.5,95,117.0
1410,C#2,238.25,0.25,95,117.0
1411,A2,238.5,0.5,95,117.0
1412,D2,238.5,0.5,95,117.0
1413,F#2,238.5,0.5,95,117.0
1414,B1,238.5,0.5,95,117.0
1415,C#4,239.0,0.5,95,117.0
1416,G#2,239.0,0.5,95,117.0
1417,C#2,239.0,0.5,95,117.0
1418,C#4,239.5,0.25,95,117.0
1419,F#2,239.5,0.5,95,117.0
1420,B1,239.5,0.5,95,117.0
1421,C#4,239.75,0.25,95,117.0
1422,C#4,240.0,0.25,95,117.0
1423,G#2,240.0,0.25,95,117.0
1424,C#2,240.0,0.25,95,117.0
1425,C#4,240.25,0.25,95,117.0
1426,G#2,240.25,0.5,95,117.0
1427,C#2,240.25,0.5,95,117.0
1428,C#4,240.5,0.5,95,117.0
1429,C#2,240.75,0.5,95,117.0
1430,D4,241.0,0.5,95,117.0
1431,C#2,241.25,0.25,95,117.0
1432,C#4,241.5,0.5,95,117.0
1433,A2,241.5,0.5,95,117.0
1434,D2,241.5,0.5,95,117.0
1435,G#3,242.0,0.5,95,117.0
1436,G#2,242.0,0.5,95,117.0
1437,C#2,242.0,0.5,95,117.0
1438,G#3,242.5,0.25,95,117.0
1439,F#2,242.5,0.5,95,117.0
1440,B1,242.5,0.5,95,117.0
1441,G#3,242.75,0.25,95,117.0
1442,G#3,243.0,0.25,95,117.0
1443,G#2,243.0,0.25,95,117.0
1444,C#2,243.0,0.25,95,117.0
1445,G#3,243.25,0.25,95,117.0
1446,G#2,243.25,0.5,95,117.0
1447,C#2,243.25,0.5,95,117.0
1448,G#3,243.5,0.5,95,117.0
1449,C#2,243.75,0.5,95,117.0
1450,A3,244.0,0.5,95,117.0
1451,C#2,244.25,0.25,95,117.0
1452,G#3,244.5,0.5,95,117.0
1453,A2,244.5,0.5,95,117.0
1454,D2,244.5,0.5,95,117.0
1455,F#3,245.0,0.5,95,117.0
1456,G#2,245.0,0.5,95,117.0
1457,C#2,245.0,0.5,95,117.0
1458,F#3,245.5,0.25,95,117.0
1459,F#2,245.5,0.5,95,117.0
1460,B1,245.5,0.5,95,117.0
1461,F#3,245.75,0.25,95,117.0
1462,F#3,246.0,0.25,95,117.0
1463,G#2,246.0,0.25,95,117.0
1464,C#2,246.0,0.25,95,117.0
1465,F#3,246.25,0.25,95,117.0
1466,G#2,246.25,0.5,95,117.0
1467,C#2,246.25,0.5,95,117.0
1468,F#3,246.5,0.5,95,117.0
1469,C#2,246.75,0.5,95,117.0
1470,E3,247.0,0.5,95,117.0
1471,C#2,247.25,0.25,95,117.0
1472,D3,247.5,0.5,95,117.0
1473,A2,247.5,0.5,95,117.0
1474,D2,247.5,0.5,95,117.0
1475,C#3,248.0,2.25,95,117.0
1476,G#2,248.0,0.5,95,117.0
1477,C#2,248.0,0.5,95,117.0
1478,F#2,248.5,0.5,95,117.0
1479,B1,248.5,0.5,95,117.0
1480,G#2,249.0,0.25,95,117.0
1481,C#2,249.0,0.25,95,117.0
1482,G#2,249.25,0.5,95,117.0
1483,C#2,249.25,0.5,95,117.0
1484,C#2,249.75,0.5,95,117.0
1485,C#2,250.25,0.25,95,117.0
1486,F3,250.25,0.25,95,117.0
1487,B3,250.5,0.25,95,117.0
1488,A2,250.5,0.5,95,117.0
1489,D2,250.5,0.5,95,117.0
1490,C#5,250.75,0.25,95,117.0
1491,F#5,251.0,0.125,95,117.0
1492,G#2,251.0,0.5,95,117.0
1493,C#2,251.0,0.5,95,117.0
1494,F5,251.125,0.125,95,117.0
1495,F#5,251.25,0.125,95,117.0
1496,F5,251.375,0.125,95,117.0
1497,D5,251.5,0.25,95,117.0
1498,F#2,251.5,0.5,95,117.0
1499,B1,251.5,0.5,95,117.0
1500,F5,251.75,0.25,95,117.0
1501,C#5,252.0,0.25,95,117.0
1502,G#2,252.0,0.25,95,117.0
1503,C#2,252.0,0.25,95,117.0
1504,D5,252.25,0.25,95,117.0
1505,G#2,252.25,0.5,95,117.0
1506,C#2,252.25,0.5,95,117.0
1507,C5,252.5,167/1000,95,117.0
1508,C#5,252.667,167/1000,95,117.0
1509,C#2,252.75,0.5,95,117.0
1510,C5,252.833,167/1000,95,117.0
1511,A4,253.0,167/1000,95,117.0
1512,C5,253.167,167/1000,95,117.0
1513,C#2,253.25,0.25,95,117.0
1514,A4,253.333,167/1000,95,117.0
1515,G#4,253.5,167/1000,95,117.0
1516,A2,253.5,0.5,95,117.0
1517,D2,253.5,0.5,95,117.0
1518,A4,253.667,167/1000,95,117.0
1519,G#4,253.833,167/1000,95,117.0
1520,F#4,254.0,0.25,95,117.0
1521,G#2,254.0,0.5,95,117.0
1522,C#2,254.0,0.5,95,117.0
1523,G#4,254.25,0.25,95,117.0
1524,A4,254.5,0.125,95,117.0
1525,F#2,254.5,0.5,95,117.0
1526,B1,254.5,0.5,95,117.0
1527,G#4,254.625,0.125,95,117.0
1528,A4,254.75,0.125,95,117.0
1529,G#4,254.875,0.125,95,117.0
1530,F#4,255.0,0.25,95,117.0
1531,G#2,255.0,0.25,95,117.0
1532,C#2,255.0,0.25,95,117.0
1533,G#4,255.25,0.25,95,117.0
1534,G#2,255.25,0.5,95,117.0
1535,C#2,255.25,0.5,95,117.0
1536,F4,255.5,0.25,95,117.0
1537,C#2,255.75,0.5,95,117.0
1538,F#4,255.75,0.25,95,117.0
1539,C#4,256.0,1.0,95,117.0
1540,C#2,256.25,0.25,95,117.0
1541,A2,256.5,0.5,95,117.0
1542,D2,256.5,0.5,95,117.0
1543,D4,257.0,0.25,95,117.0
1544,G#2,257.0,0.5,95,117.0
1545,C#2,257.0,0.5,95,117.0
1546,C4,257.25,0.25,95,117.0
1547,C#4,257.5,0.25,95,117.0
1548,F#2,257.5,0.5,95,117.0
1549,B1,257.5,0.5,95,117.0
1550,D4,257.75,0.25,95,117.0
1551,F4,258.0,0.25,95,117.0
1552,G#2,258.0,0.25,95,117.0
1553,C#2,258.0,0.25,95,117.0
1554,F#4,258.25,0.25,95,117.0
1555,G#2,258.25,0.5,95,117.0
1556,C#2,258.25,0.5,95,117.0
1557,F4,258.5,0.25,95,117.0
1558,C#2,258.75,0.5,95,117.0
1559,B3,258.75,0.25,95,117.0
1560,F#4,259.0,0.25,95,117.0
1561,C#2,259.25,0.25,95,117.0
1562,B3,259.25,0.25,95,117.0
1563,G#4,259.5,0.5,95,117.0
1564,A2,259.5,0.5,95,117.0
1565,D2,259.5,0.5,95,117.0
1566,C#4,260.0,0.5,95,117.0
1567,G#2,260.0,0.5,95,117.0
1568,C#2,260.0,0.5,95,117.0
1569,C#4,260.5,0.25,95,117.0
1570,F#2,260.5,0.5,95,117.0
1571,B1,260.5,0.5,95,117.0
1572,C#4,260.75,0.25,95,117.0
1573,C#4,261.0,0.25,95,117.0
1574,G#2,261.0,0.25,95,117.0
1575,C#2,261.0,0.25,95,117.0
1576,C#4,261.25,0.25,95,117.0
1577,G#2,261.25,0.5,95,117.0
1578,C#2,261.25,0.5,95,117.0
1579,C#4,261.5,0.5,95,117.0
1580,C#2,261.75,0.5,95,117.0
1581,D4,262.0,0.5,95,117.0
1582,C#2,262.25,0.25,95,117.0
1583,C#4,262.5,0.5,95,117.0
1584,A2,262.5,0.5,95,117.0
1585,D2,262.5,0.5,95,117.0
1586,G#3,263.0,0.5,95,117.0
1587,G#2,263.0,0.5,95,117.0
1588,C#2,263.0,0.5,95,117.0
1589,G#3,263.5,0.25,95,117.0
1590,F#2,263.5,0.5,95,117.0
1591,B1,263.5,0.5,95,117.0
1592,G#3,263.75,0.25,95,117.0
1593,G#3,264.0,0.25,95,117.0
1594,G#2,264.0,0.25,95,117.0
1595,C#2,264.0,0.25,95,117.0
1596,G#3,264.25,0.25,95,117.0
1597,G#2,264.25,0.5,95,117.0
1598,C#2,264.25,0.5,95,117.0
1599,G#3,264.5,0.5,95,117.0
1600,C#2,264.75,0.5,95,117.0
1601,A3,265.0,0.5,95,117.0
1602,C#2,265.25,0.25,95,117.0
1603,C#4,265.5,0.5,95,117.0
1604,A2,265.5,0.5,95,117.0
1605,D2,265.5,0.5,95,117.0
1606,B3,266.0,1.5,95,117.0
1607,G#2,266.0,0.5,95,117.0
1608,C#2,266.0,0.5,95,117.0
1609,F#2,266.5,0.5,95,117.0
1610,B1,266.5,0.5,95,117.0
1611,F#2,267.0,0.25,95,117.0
1612,B1,267.0,0.25,95,117.0
1613,F#2,267.25,0.5,95,117.0
1614,B1,267.25,0.5,95,117.0
1615,B3,267.5,0.5,95,117.0
1616,B1,267.75,0.5,95,117.0
1617,C#4,268.0,0.5,95,117.0
1618,B1,268.25,0.25,95,117.0
1619,F4,268.5,0.25,95,117.0
1620,F#2,268.5,0.5,95,117.0
1621,B1,268.5,0.5,95,117.0
1622,F#4,268.75,0.25,95,117.0
1623,F#2,269.0,0.5,95,117.0
1624,B1,269.0,0.5,95,117.0
1625,C5,269.0,3.0,63,117.0
1626,C6,269.0,3.0,63,117.0
1627,A2,269.5,0.5,95,117.0
1628,D2,269.5,0.5,95,117.0
1629,G#2,270.0,0.25,95,117.0
1630,C#2,270.0,0.25,95,117.0
1631,G#2,270.25,0.5,95,117.0
1632,C#2,270.25,0.5,95,117.0
1633,C#2,270.75,0.5,95,117.0
1634,C#2,271.25,0.25,95,117.0
1635,A2,271.5,0.5,95,117.0
1636,D2,271.5,0.5,95,117.0
1637,F4,272.0,3.0,95,117.0
1638,G#2,272.0,0.5,95,117.0
1639,C#2,272.0,0.5,95,117.0
1640,F#2,272.5,0.5,95,117.0
1641,B1,272.5,0.5,95,117.0
1642,G#2,273.0,0.25,95,117.0
1643,C#2,273.0,0.25,95,117.0
1644,G#2,273.25,0.5,95,117.0
1645,C#2,273.25,0.5,95,117.0
1646,C#2,273.75,0.5,95,117.0
1647,C#2,274.25,0.25,95,117.0
1648,A2,274.5,0.5,95,117.0
1649,D2,274.5,0.5,95,117.0
1650,F4,275.0,0.5,95,117.0
1651,G#2,275.0,0.5,95,117.0
1652,C#2,275.0,0.5,95,117.0
1653,C#4,275.5,0.5,95,117.0
1654,F#2,275.5,0.5,95,117.0
1655,B1,275.5,0.5,95,117.0
1656,C#2,276.0,0.25,95,117.0
1657,C#4,276.0,1.0,95,117.0
1658,C#2,276.25,0.5,95,117.0
1659,C#2,276.75,0.5,95,117.0
1660,C#4,276.875,0.125,95,117.0
1661,D4,277.0,0.5,95,117.0
1662,C#2,277.25,0.25,95,117.0
1663,C#4,277.5,0.5,95,117.0
1664,A2,277.5,0.5,95,117.0
1665,D2,277.5,0.5,95,117.0
1666,B3,278.0,0.5,95,117.0
1667,G#2,278.0,0.5,95,117.0
1668,C#2,278.0,0.5,95,117.0
1669,C#4,278.5,0.5,95,117.0
1670,F#2,278.5,0.5,95,117.0
1671,B1,278.5,0.5,95,117.0
1672,G#2,279.0,0.25,95,117.0
1673,C#2,279.0,0.25,95,117.0
1674,G#4,279.0,2.0,63,117.0
1675,G#5,279.0,2.0,63,117.0
1676,G#2,279.25,0.5,95,117.0
1677,C#2,279.25,0.5,95,117.0
1678,C#2,279.75,0.5,95,117.0
1679,C#2,280.25,0.25,95,117.0
1680,A2,280.5,0.5,95,117.0
1681,D2,280.5,0.5,95,117.0
1682,E4,280.875,0.125,95,117.0
1683,F#4,281.0,2.0,95,117.0
1684,G#2,281.0,0.5,95,117.0
1685,C#2,281.0,0.5,95,117.0
1686,F#2,281.5,0.5,95,117.0
1687,B1,281.5,0.5,95,117.0
1688,F#3,282.0,3.0,95,117.0
1689,B2,282.0,3.0,95,117.0
1690,E4,283.0,0.5,95,117.0
1691,D4,283.5,0.5,95,117.0
1692,E4,283.875,0.125,95,117.0
1693,F#4,284.0,2.0,95,117.0
1694,D3,285.0,3.0,95,117.0
1695,G2,285.0,3.0,95,117.0
1696,F#4,286.0,1.0,95,117.0
1697,E4,287.0,2.0,95,117.0
1698,E3,288.0,3.0,95,117.0
1699,A2,288.0,3.0,95,117.0
1700,D4,289.0,0.5,95,117.0
1701,C#4,289.5,0.5,95,117.0
1702,E4,290.0,1.0,95,117.0
1703,D4,291.0,1.0,95,117.0
1704,C#3,291.0,3.0,95,117.0
1705,F#2,291.0,3.0,95,117.0
1706,C#4,292.0,1.0,95,117.0
1707,E4,292.875,0.125,95,117.0
1708,F#4,293.0,2.0,95,117.0
1709,F#3,294.0,3.0,95,117.0
1710,B2,294.0,3.0,95,117.0
1711,E4,295.0,0.5,95,117.0
1712,D4,295.5,0.5,95,117.0
1713,A4,296.0,1.0,95,117.0
1714,G4,297.0,1.0,95,117.0
1715,D3,297.0,3.0,95,117.0
1716,G2,297.0,3.0,95,117.0
1717,F#4,298.0,667/1000,95,117.0
1718,G4,298.667,167/1000,95,117.0
1719,F#4,298.833,167/1000,95,117.0
1720,E4,299.0,3.0,95,117.0
1721,E3,300.0,3.0,95,117.0
1722,A2,300.0,3.0,95,117.0
1723,D4,302.0,0.25,95,117.0
1724,E4,302.25,0.25,95,117.0
1725,F#4,302.5,0.25,95,117.0
1726,G4,302.75,0.25,95,117.0
1727,A4,303.0,0.25,95,117.0
1728,E3,303.0,3.0,95,117.0
1729,A2,303.0,3.0,95,117.0
1730,B4,303.25,0.25,95,117.0
1731,E4,303.5,0.25,95,117.0
1732,F#4,303.75,0.25,95,117.0
1733,A4,304.0,0.25,95,117.0
1734,B4,304.25,0.25,95,117.0
1735,C#5,304.5,0.25,95,117.0
1736,E5,304.75,0.25,95,117.0
1737,F#5,305.0,2.0,95,117.0
1738,D5,305.0,2.0,95,117.0
1739,F#3,306.0,3.0,95,117.0
1740,B2,306.0,3.0,95,117.0
1741,D5,307.0,0.5,95,117.0
1742,B4,307.0,0.5,95,117.0
1743,E5,307.5,0.5,95,117.0
1744,C#5,307.5,0.5,95,117.0
1745,F#5,308.0,1.5,95,117.0
1746,D5,308.0,1.5,95,117.0
1747,D3,309.0,3.0,95,117.0
1748,G2,309.0,3.0,95,117.0
1749,F#5,309.375,0.125,95,117.0
1750,D5,309.375,0.125,95,117.0
1751,G5,309.5,1.0,95,117.0
1752,E5,309.5,1.0,95,117.0
1753,F#5,310.5,0.5,95,117.0
1754,D5,310.5,0.5,95,117.0
1755,E5,311.0,333/1000,95,117.0
1756,C#5,311.0,333/1000,95,117.0
1757,F#5,311.333,167/1000,95,117.0
1758,D5,311.333,167/1000,95,117.0
1759,E5,311.5,0.25,95,117.0
1760,C#5,311.5,0.25,95,117.0
1761,D5,311.75,0.25,95,117.0
1762,B4,311.75,0.25,95,117.0
1763,E3,312.0,3.0,95,117.0
1764,A2,312.0,3.0,95,117.0
1765,E5,312.0,1.0,95,117.0
1766,C#5,312.0,1.0,95,117.0
1767,C#5,313.0,0.5,95,117.0
1768,A4,313.0,0.5,95,117.0
1769,D5,313.5,0.5,95,117.0
1770,B4,313.5,0.5,95,117.0
1771,E5,314.0,1.0,95,117.0
1772,C#5,314.0,1.0,95,117.0
1773,C#3,315.0,3.0,95,117.0
1774,F#2,315.0,3.0,95,117.0
1775,F#5,315.0,1.0,95,117.0
1776,D5,315.0,1.0,95,117.0
1777,E5,316.0,667/1000,95,117.0
1778,C#5,316.0,667/1000,95,117.0
1779,F#5,316.667,167/1000,95,117.0
1780,D5,316.667,167/1000,95,117.0
1781,E5,316.833,167/1000,95,117.0
1782,C#5,316.833,167/1000,95,117.0
1783,D5,317.0,3.0,95,117.0
1784,B4,317.0,3.0,95,117.0
1785,F#4,318.0,0.25,95,117.0
1786,D3,318.0,3.0,95,117.0
1787,G2,318.0,3.0,95,117.0
1788,A4,318.25,0.25,95,117.0
1789,B4,318.5,0.25,95,117.0
1790,C#5,318.75,0.25,95,117.0
1791,D5,319.0,0.25,95,117.0
1792,E5,319.25,0.25,95,117.0
1793,C#5,319.5,167/1000,95,117.0
1794,D5,319.667,167/1000,95,117.0
1795,E5,319.833,167/1000,95,117.0
1796,A4,320.0,0.25,95,117.0
1797,F#5,320.0,167/1000,95,117.0
1798,G5,320.167,167/1000,95,117.0
1799,C#5,320.25,0.25,95,117.0
1800,A5,320.333,167/1000,95,117.0
1801,D5,320.5,0.25,95,117.0
1802,F#5,320.5,167/1000,95,117.0
1803,G5,320.667,167/1000,95,117.0
1804,E5,320.75,0.25,95,117.0
1805,A5,320.833,167/1000,95,117.0
1806,F#5,321.0,0.25,95,117.0
1807,B5,321.0,2.0,95,117.0
1808,G5,321.25,0.25,95,117.0
1809,E5,321.5,167/1000,95,117.0
1810,F#5,321.667,167/1000,95,117.0
1811,G5,321.833,167/1000,95,117.0
1812,A5,322.0,167/1000,95,117.0
1813,B5,322.167,167/1000,95,117.0
1814,C#6,322.333,167/1000,95,117.0
1815,A5,322.5,167/1000,95,117.0
1816,B5,322.667,167/1000,95,117.0
1817,C#6,322.833,167/1000,95,117.0
1818,D6,323.0,2.0,95,117.0
1819,A5,323.0,0.5,95,117.0
1820,F#5,323.5,0.5,95,117.0
1821,B5,324.0,1.5,95,117.0
1822,D3,324.0,3.0,95,117.0
1823,G2,324.0,3.0,95,117.0
1824,C#6,325.0,0.5,95,117.0
1825,A5,325.5,0.5,95,117.0
1826,B5,325.5,1.5,95,117.0
1827,D6,326.0,1.5,95,117.0
1828,B5,327.0,3.0,95,117.0
1829,B2,327.0,3.0,95,117.0
1830,E2,327.0,3.0,95,117.0
1831,D6,327.5,1.5,95,117.0
1832,D6,329.0,3.0,95,117.0
1833,C#3,330.0,1.5,95,117.0
1834,F#2,330.0,1.5,95,117.0
1835,A2,331.5,1.5,95,117.0
1836,D2,331.5,1.5,95,117.0
1837,B2,332.0,0.25,95,117.0
1838,B1,332.25,0.5,95,117.0
1839,B1,332.75,0.5,95,117.0
1840,B1,333.0,0.25,95,117.0
1841,B1,333.25,0.5,95,117.0
1842,B1,333.25,0.25,95,117.0
1843,B2,333.5,0.25,95,117.0
1844,B1,333.75,0.5,95,117.0
1845,A2,333.75,0.25,95,117.0
1846,F#2,334.0,0.25,95,117.0
1847,B1,334.25,0.25,95,117.0
1848,A2,334.25,0.25,95,117.0
1849,B2,334.5,0.25,95,117.0
1850,G#2,334.5,0.25,95,117.0
1851,A2,334.75,0.25,95,117.0
1852,E2,334.75,0.25,95,117.0
1853,F#2,335.0,0.25,95,117.0
1854,F#2,335.0,0.25,95,117.0
1855,D3,335.25,0.25,95,117.0
1856,B1,335.25,0.5,95,117.0
1857,C#3,335.5,0.25,95,117.0
1858,A2,335.75,0.25,95,117.0
1859,B1,335.75,0.5,95,117.0
1860,B2,336.0,0.25,95,117.0
1861,B1,336.25,0.5,95,117.0
1862,B1,336.25,0.25,95,117.0
1863,B2,336.5,0.25,95,117.0
1864,B1,336.75,0.5,95,117.0
1865,A2,336.75,0.25,95,117.0
1866,F#2,337.0,0.25,95,117.0
1867,B1,337.25,0.25,95,117.0
1868,D3,337.25,0.25,95,117.0
1869,B2,337.5,0.25,95,117.0
1870,C#3,337.5,0.25,95,117.0
1871,A2,337.75,0.25,95,117.0
1872,A2,337.75,0.25,95,117.0
1873,F#2,338.0,0.25,95,117.0
1874,B2,338.0,0.25,95,117.0
1875,A2,338.25,0.25,95,117.0
1876,E2,338.25,0.5,95,117.0
1877,G#2,338.5,0.25,95,117.0
1878,E2,338.75,0.25,95,117.0
1879,E2,338.75,0.5,95,117.0
1880,F#2,339.0,0.25,95,117.0
1881,B1,339.25,0.5,95,117.0
1882,B1,339.25,0.25,95,117.0
1883,A2,339.5,0.25,95,117.0
1884,B1,339.75,0.5,95,117.0
1885,D2,339.75,0.5,95,117.0
1886,B1,340.25,0.25,95,117.0
1887,D2,340.25,0.5,95,117.0
1888,B2,340.5,0.25,95,117.0
1889,A2,340.75,0.25,95,117.0
1890,D2,340.75,0.25,95,117.0
1891,F#2,341.0,0.25,95,117.0
1892,B1,341.0,0.25,95,117.0
1893,D3,341.25,0.25,95,117.0
1894,B1,341.25,0.5,95,117.0
1895,C#3,341.5,0.25,95,117.0
1896,A2,341.75,0.25,95,117.0
1897,B1,341.75,0.5,95,117.0
1898,B2,342.0,0.25,95,117.0
1899,E2,342.25,0.5,95,117.0
1900,B1,342.25,0.25,95,117.0
1901,B2,342.5,0.25,95,117.0
1902,E2,342.75,0.5,95,117.0
1903,A2,342.75,0.25,95,117.0
1904,F#2,343.0,0.25,95,117.0
1905,B1,343.25,0.25,95,117.0
1906,D3,343.25,0.25,95,117.0
1907,A2,343.5,0.25,95,117.0
1908,C#3,343.5,0.25,95,117.0
1909,D2,343.75,0.5,95,117.0
1910,A2,343.75,0.25,95,117.0
1911,B2,344.0,0.25,95,117.0
1912,D2,344.25,0.5,95,117.0
1913,B1,344.25,0.5,95,117.0
1914,D2,344.75,0.25,95,117.0
1915,B1,344.75,0.5,95,117.0
1916,B1,345.0,0.25,95,117.0
1917,B1,345.25,0.5,95,117.0
1918,B1,345.25,0.25,95,117.0
1919,B2,345.5,0.25,95,117.0
1920,B1,345.75,0.5,95,117.0
1921,A2,345.75,0.25,95,117.0
1922,F#2,346.0,0.25,95,117.0
1923,B1,346.25,0.25,95,117.0
1924,A2,346.25,0.25,95,117.0
1925,B2,346.5,0.25,95,117.0
1926,G#2,346.5,0.25,95,117.0
1927,A2,346.75,0.25,95,117.0
1928,E2,346.75,0.25,95,117.0
1929,F#2,347.0,0.25,95,117.0
1930,F#2,347.0,0.25,95,117.0
1931,D3,347.25,0.25,95,117.0
1932,B1,347.25,0.5,95,117.0
1933,C#3,347.5,0.25,95,117.0
1934,A2,347.75,0.25,95,117.0
1935,B1,347.75,0.5,95,117.0
1936,B2,348.0,0.25,95,117.0
1937,B1,348.25,0.5,95,117.0
1938,B1,348.25,0.25,95,117.0
1939,B2,348.5,0.25,95,117.0
1940,B1,348.75,0.5,95,117.0
1941,A2,348.75,0.25,95,117.0
1942,F#2,349.0,0.25,95,117.0
1943,B1,349.25,0.25,95,117.0
1944,D3,349.25,0.25,95,117.0
1945,B2,349.5,0.25,95,117.0
1946,C#3,349.5,0.25,95,117.0
1947,A2,349.75,0.25,95,117.0
1948,A2,349.75,0.25,95,117.0
1949,F#2,350.0,0.25,95,117.0
1950,B2,350.0,0.25,95,117.0
1951,A2,350.25,0.25,95,117.0
1952,E2,350.25,0.5,95,117.0
1953,G#2,350.5,0.25,95,117.0
1954,E2,350.75,0.25,95,117.0
1955,E2,350.75,0.5,95,117.0
1956,F#2,351.0,0.25,95,117.0
1957,B1,351.25,0.5,95,117.0
1958,B1,351.25,0.25,95,117.0
1959,A2,351.5,0.25,95,117.0
1960,B1,351.75,0.5,95,117.0
1961,D2,351.75,0.5,95,117.0
1962,B1,352.25,0.25,95,117.0
1963,D2,352.25,0.5,95,117.0
1964,B2,352.5,0.25,95,117.0
1965,A2,352.75,0.25,95,117.0
1966,D2,352.75,0.25,95,117.0
1967,F#2,353.0,0.25,95,117.0
1968,D3,353.25,0.25,95,117.0
1969,C#3,353.5,0.25,95,117.0
1970,A2,353.75,0.25,95,117.0
1971,B2,354.0,0.25,95,117.0
1972,E2,354.25,0.5,95,117.0
1973,E2,354.75,0.5,95,117.0
1974,B1,355.25,0.25,95,117.0
1975,A2,355.5,0.25,95,117.0
1976,D2,355.75,0.5,95,117.0
1977,D2,356.25,0.5,95,117.0
1978,D2,356.75,0.25,95,117.0
1979,A3,356.875,0.125,95,117.0
1980,B3,357.0,3.0,95,117.0
1981,C#3,361.25,0.25,95,117.0
1982,F#3,361.5,333/1000,95,117.0
1983,A3,361.833,333/1000,95,117.0
1984,B3,362.167,333/1000,95,117.0
1985,A3,362.5,0.5,95,117.0
1986,B3,363.0,2.5,95,117.0
1987,A3,365.5,0.25,95,117.0
1988,F#3,365.75,0.25,95,117.0
1989,A3,366.0,0.25,95,117.0
1990,B3,366.25,0.25,95,117.0
1991,A3,366.5,167/1000,95,117.0
1992,B3,366.667,167/1000,95,117.0
1993,A3,366.833,1667/1000,95,117.0
1994,E3,368.5,0.5,95,117.0
1995,A2,370.25,3/50,95,117.0
1996,E3,370.5,167/1000,95,117.0
1997,F3,370.667,167/1000,95,117.0
1998,F#3,370.833,167/1000,95,117.0
1999,A3,371.0,167/1000,95,117.0
2000,B-3,371.167,167/1000,95,117.0
2001,B3,371.333,167/1000,95,117.0
2002,D4,371.5,0.5,95,117.0
2003,B3,372.0,0.25,95,117.0
2004,A3,372.25,0.25,95,117.0
2005,E4,372.5,1.0,95,117.0
2006,B4,373.5,0.25,95,117.0
2007,F#4,373.5,0.25,95,117.0
2008,F4,373.75,0.25,95,117.0
2009,E4,374.0,167/1000,95,117.0
2010,D4,374.167,167/1000,95,117.0
2011,B3,374.333,167/1000,95,117.0
2012,E4,374.5,0.25,95,117.0
2013,B3,374.75,0.25,95,117.0
2014,D4,375.0,0.25,95,117.0
2015,E-4,375.25,0.25,95,117.0
2016,E4,375.5,0.25,95,117.0
2017,B3,375.5,0.25,95,117.0
2018,F#3,375.75,0.25,95,117.0
2019,A3,376.0,0.25,95,117.0
2020,F#3,376.25,0.25,95,117.0
2021,F3,376.5,0.25,95,117.0
2022,E3,376.75,0.25,95,117.0
2023,D3,377.0,0.25,95,117.0
2024,B2,377.25,0.25,95,117.0
2025,D3,377.5,0.5,95,117.0
2026,D3,378.0,2.5,95,117.0
2027,B3,381.0,0.25,95,117.0
2028,A3,381.25,0.25,95,117.0
2029,E4,381.5,1.0,95,117.0
2030,B4,382.5,0.25,95,117.0
2031,F#4,382.5,0.25,95,117.0
2032,F4,382.75,0.25,95,117.0
2033,E4,383.0,167/1000,95,117.0
2034,D4,383.167,167/1000,70,117.0
2035,B3,383.333,167/1000,95,117.0
2036,E4,383.5,0.25,95,117.0
2037,B3,383.75,0.25,95,117.0
2038,D4,384.0,0.25,95,117.0
2039,E-4,384.25,0.25,70,117.0
2040,E4,384.5,0.25,95,117.0
2041,B3,384.5,0.25,95,117.0
2042,F#3,384.75,0.25,95,117.0
2043,A3,385.0,0.25,95,117.0
2044,F#3,385.25,0.25,95,117.0
2045,F3,385.5,0.25,95,117.0
2046,E3,385.75,0.25,95,117.0
2047,D3,386.0,0.25,95,117.0
2048,B2,386.25,0.25,95,117.0
2049,D3,386.5,0.5,95,117.0
2050,D3,387.0,2.5,95,117.0
2051,G#4,390.0,3.0,95,117.0
2052,B4,393.0,0.25,95,117.0
2053,A4,393.25,0.25,95,117.0
2054,B4,393.5,0.25,95,117.0
2055,C#5,393.75,0.125,95,117.0
2056,B4,393.875,0.125,95,117.0
2057,C#5,394.0,0.125,95,117.0
2058,B4,394.125,0.125,95,117.0
2059,A4,394.25,0.25,95,117.0
2060,B4,394.5,0.25,95,117.0
2061,A4,394.75,0.25,95,117.0
2062,G#4,395.0,0.25,95,117.0
2063,F#4,395.25,0.25,95,117.0
2064,F4,395.5,0.25,95,117.0
2065,F#4,395.75,0.25,95,117.0
2066,F4,396.0,0.25,95,117.0
2067,E4,396.25,0.25,95,117.0
2068,E-4,396.5,0.25,95,117.0
2069,D4,396.75,0.25,95,117.0
2070,E-4,397.0,0.25,95,117.0
2071,E4,397.25,0.25,95,117.0
2072,F4,397.5,0.25,95,117.0
2073,B4,397.75,0.25,95,117.0
2074,F4,398.0,0.25,95,117.0
2075,E4,398.25,0.25,95,117.0
2076,E-4,398.5,0.25,95,117.0
2077,D4,398.75,0.25,95,117.0
2078,A4,399.0,2.5,95,117.0
2079,D5,402.0,2.0,95,117.0
2080,D5,404.0,1.0,95,117.0
2081,B4,405.0,333/1000,95,117.0
2082,A4,405.333,333/1000,95,117.0
2083,B4,405.667,333/1000,95,117.0
2084,D5,406.0,333/1000,95,117.0
2085,B4,406.333,1167/1000,95,117.0
2086,E5,407.5,0.125,95,117.0
2087,F#5,407.625,0.125,95,117.0
2088,G#5,407.75,0.125,95,117.0
2089,A5,407.875,0.125,95,117.0
2090,B5,408.0,1/10,95,117.0
2091,A5,408.1,1/10,95,117.0
2092,G#5,408.2,1/10,95,117.0
2093,E5,408.275,1/10,95,117.0
2094,F#5,408.275,1/10,95,117.0
2095,F5,408.4,1/10,95,117.0
2096,D5,408.5,0.125,95,117.0
2097,C#5,408.625,0.125,95,117.0
2098,D5,408.75,0.125,95,117.0
2099,C#5,408.875,0.125,95,117.0
2100,C5,409.0,83/1000,95,117.0
2101,B4,409.083,83/1000,95,117.0
2102,A4,409.167,83/1000,95,117.0
2103,E4,409.25,83/1000,95,117.0
2104,F#4,409.333,83/1000,95,117.0
2105,E4,409.417,83/1000,95,117.0
2106,D4,409.5,0.125,95,117.0
2107,E4,409.625,0.125,95,117.0
2108,D4,409.75,0.125,95,117.0
2109,C#4,409.875,0.125,95,117.0
2110,D4,410.0,0.125,95,117.0
2111,C#4,410.125,0.125,95,117.0
2112,D4,410.25,0.125,95,117.0
2113,C#4,410.375,0.125,95,117.0
2114,B3,410.5,0.125,95,117.0
2115,A3,410.625,0.25,95,117.0
2116,B3,410.875,0.062,95,117.0
2117,A3,410.938,0.062,95,117.0
2118,G#3,411.0,167/1000,95,117.0
2119,A3,411.167,167/1000,95,117.0
2120,G#3,411.333,167/1000,95,117.0
2121,F#3,411.5,0.125,95,117.0
2122,G#3,411.625,0.125,95,117.0
2123,F#3,411.75,0.25,95,117.0
2124,E3,412.0,1/10,95,117.0
2125,D3,412.1,1/10,95,117.0
2126,C#3,412.2,1/10,95,117.0
2127,D3,412.3,1/10,95,117.0
2128,C#3,412.4,1/10,95,117.0
2129,B2,412.5,0.125,95,117.0
2130,C#3,412.625,0.125,95,117.0
2131,B2,412.75,1.25,95,117.0
2132,D5,414.0,0.25,95,117.0
2133,E5,414.25,0.25,95,117.0
2134,G#5,414.5,0.25,95,117.0
2135,E5,414.75,0.25,95,117.0
2136,A5,415.0,0.25,95,117.0
2137,E5,415.25,0.25,95,117.0
2138,G#5,415.5,0.25,95,117.0
2139,E5,415.75,0.25,95,117.0
2140,D5,416.0,0.25,95,117.0
2141,G#5,416.25,0.25,95,117.0
2142,D5,416.5,0.25,95,117.0
2143,E5,416.75,0.25,95,117.0
2144,D5,417.0,0.25,95,117.0
2145,B4,417.25,0.25,95,117.0
2146,B-4,417.5,0.25,95,117.0
2147,B4,417.75,0.25,95,117.0
2148,B-4,418.0,0.25,95,117.0
2149,A4,418.25,0.25,95,117.0
2150,G#4,418.5,0.25,95,117.0
2151,G4,418.75,0.25,95,117.0
2152,E4,419.0,0.25,95,117.0
2153,D4,419.25,0.25,95,117.0
2154,A4,419.5,0.25,95,117.0
2155,G#4,419.75,0.25,95,117.0
2156,E4,420.0,0.25,95,117.0
2157,D4,420.25,0.25,95,117.0
2158,B3,420.5,0.25,95,117.0
2159,A3,420.75,0.25,95,117.0
2160,E4,421.0,0.25,95,117.0
2161,D4,421.25,0.25,95,117.0
2162,B3,421.5,0.25,95,117.0
2163,B-3,421.75,0.25,95,117.0
2164,A3,422.0,0.25,95,117.0
2165,G#3,422.25,0.25,95,117.0
2166,E3,422.5,0.25,95,117.0
2167,G#3,422.75,0.25,95,117.0
2168,A3,423.0,0.25,95,117.0
2169,B-3,423.25,0.25,95,117.0
2170,B3,423.5,0.25,95,117.0
2171,G#4,423.75,0.25,95,117.0
2172,B3,424.0,0.25,95,117.0
2173,B-3,424.25,0.25,95,117.0
2174,A3,424.5,0.25,95,117.0
2175,G#3,424.75,0.25,95,117.0
2176,E3,425.0,1.0,95,117.0
2177,D3,426.0,167/1000,95,117.0
2178,E-3,426.167,167/1000,95,117.0
2179,E3,426.333,167/1000,95,117.0
2180,G3,426.5,167/1000,95,117.0
2181,E3,426.667,167/1000,95,117.0
2182,E-3,426.833,167/1000,95,117.0
2183,D3,427.0,167/1000,95,117.0
2184,E-3,427.167,167/1000,95,117.0
2185,E3,427.333,167/1000,95,117.0
2186,A3,427.5,167/1000,95,117.0
2187,E3,427.667,167/1000,95,117.0
2188,E-3,427.833,167/1000,95,117.0
2189,D3,428.0,167/1000,95,117.0
2190,E-3,428.167,167/1000,95,117.0
2191,E3,428.333,167/1000,95,117.0
2192,G3,428.5,167/1000,95,117.0
2193,A3,428.667,167/1000,95,117.0
2194,G#3,428.833,167/1000,95,117.0
2195,A3,429.0,167/1000,95,117.0
2196,B-3,429.167,167/1000,95,117.0
2197,B3,429.333,167/1000,95,117.0
2198,D4,429.5,167/1000,95,117.0
2199,B3,429.667,167/1000,95,117.0
2200,B-3,429.833,167/1000,95,117.0
2201,A3,430.0,167/1000,95,117.0
2202,B-3,430.167,167/1000,95,117.0
2203,B3,430.333,167/1000,95,117.0
2204,E4,430.5,167/1000,95,117.0
2205,B3,430.667,167/1000,95,117.0
2206,B-3,430.833,167/1000,95,117.0
2207,A3,431.0,167/1000,95,117.0
2208,B-3,431.167,167/1000,95,117.0
2209,B3,431.333,167/1000,95,117.0
2210,D4,431.5,167/1000,95,117.0
2211,E4,431.667,167/1000,95,117.0
2212,E-4,431.833,167/1000,95,117.0
2213,D4,432.0,167/1000,95,117.0
2214,E-4,432.167,167/1000,95,117.0
2215,E4,432.333,167/1000,95,117.0
2216,G4,432.5,167/1000,95,117.0
2217,E4,432.667,167/1000,95,117.0
2218,E-4,432.833,167/1000,95,117.0
2219,D4,433.0,167/1000,95,117.0
2220,E-4,433.167,167/1000,95,117.0
2221,E4,433.333,167/1000,95,117.0
2222,A4,433.5,167/1000,95,117.0
2223,E4,433.667,167/1000,95,117.0
2224,E-4,433.833,167/1000,95,117.0
2225,D4,434.0,167/1000,95,117.0
2226,E-4,434.167,167/1000,95,117.0
2227,E4,434.333,167/1000,95,117.0
2228,G4,434.5,167/1000,95,117.0
2229,A4,434.667,167/1000,95,117.0
2230,G#4,434.833,167/1000,95,117.0
2231,G4,435.0,167/1000,95,117.0
2232,G#4,435.167,167/1000,95,117.0
2233,A4,435.333,167/1000,95,117.0
2234,B4,435.5,167/1000,95,117.0
2235,A4,435.667,167/1000,95,117.0
2236,G#4,435.833,167/1000,95,117.0
2237,G4,436.0,167/1000,95,117.0
2238,G#4,436.167,167/1000,95,117.0
2239,A4,436.333,167/1000,95,117.0
2240,E5,436.5,167/1000,95,117.0
2241,B4,436.5,167/1000,95,117.0
2242,A4,436.667,167/1000,95,117.0
2243,G#4,436.833,167/1000,95,117.0
2244,G4,437.0,167/1000,95,117.0
2245,G#4,437.167,167/1000,95,117.0
2246,A4,437.333,167/1000,95,117.0
2247,B4,437.5,167/1000,95,117.0
2248,C#5,437.667,167/1000,95,117.0
2249,D5,437.833,167/1000,95,117.0
2250,E5,438.0,167/1000,95,117.0
2251,D5,438.167,167/1000,95,117.0
2252,B4,438.333,167/1000,95,117.0
2253,A4,438.5,167/1000,95,117.0
2254,B4,438.667,167/1000,95,117.0
2255,D5,438.833,167/1000,95,117.0
2256,E5,439.0,167/1000,95,117.0
2257,D5,439.167,167/1000,95,117.0
2258,B4,439.333,167/1000,95,117.0
2259,A4,439.5,167/1000,95,117.0
2260,B4,439.667,167/1000,95,117.0
2261,D5,439.833,167/1000,95,117.0
2262,E5,440.0,167/1000,95,117.0
2263,D5,440.167,167/1000,95,117.0
2264,B4,440.333,167/1000,95,117.0
2265,A4,440.5,167/1000,95,117.0
2266,B4,440.667,167/1000,95,117.0
2267,D5,440.833,167/1000,95,117.0
2268,E-5,441.0,167/1000,95,117.0
2269,D5,441.167,167/1000,95,117.0
2270,B4,441.333,167/1000,95,117.0
2271,A4,441.5,167/1000,95,117.0
2272,B4,441.667,167/1000,95,117.0
2273,D5,441.833,167/1000,95,117.0
2274,E-5,442.0,167/1000,95,117.0
2275,D5,442.167,167/1000,95,117.0
2276,B4,442.333,167/1000,95,117.0
2277,A4,442.5,1/5,95,117.0
2278,B4,442.7,1/5,95,117.0
2279,D5,442.9,1/5,95,117.0
2280,E-5,443.1,1/5,95,117.0
2281,D5,443.3,1/5,95,117.0
2282,B4,443.5,1/10,95,117.0
2283,A4,443.6,1/10,95,117.0
2284,B4,443.7,1/10,95,117.0
2285,D5,443.8,1/10,95,117.0
2286,E-5,443.9,1/10,95,117.0
2287,C#5,444.0,167/1000,95,117.0
2288,B4,444.167,167/1000,95,117.0
2289,A4,444.333,167/1000,95,117.0
2290,B4,444.5,167/1000,95,117.0
2291,C#5,444.667,167/1000,95,117.0
2292,D5,444.833,167/1000,95,117.0
2293,C#5,445.0,167/1000,95,117.0
2294,B4,445.167,167/1000,95,117.0
2295,A4,445.333,167/1000,95,117.0
2296,B4,445.5,167/1000,95,117.0
2297,C#5,445.667,167/1000,95,117.0
2298,D5,445.833,167/1000,95,117.0
2299,C#5,446.0,167/1000,95,117.0
2300,B4,446.167,167/1000,95,117.0
2301,A4,446.333,167/1000,95,117.0
2302,C#5,446.5,1/10,95,117.0
2303,D5,446.6,1/10,95,117.0
2304,C#5,446.7,1/10,95,117.0
2305,C5,446.8,1/10,95,117.0
2306,D5,446.9,1/10,95,117.0
2307,E5,447.0,0.125,95,117.0
2308,D5,447.125,0.125,95,117.0
2309,C#5,447.25,0.125,95,117.0
2310,E-5,447.375,0.125,95,117.0
2311,E5,447.5,0.125,95,117.0
2312,E-5,447.625,0.125,95,117.0
2313,D5,447.75,0.125,95,117.0
2314,E5,447.875,0.125,95,117.0
2315,F5,448.0,0.125,95,117.0
2316,E5,448.125,0.125,95,117.0
2317,E-5,448.25,0.125,95,117.0
2318,E5,448.375,0.125,95,117.0
2319,F#5,448.5,0.125,95,117.0
2320,E5,448.625,0.125,95,117.0
2321,E-5,448.75,0.125,95,117.0
2322,F5,448.875,0.125,95,117.0
2323,G5,449.0,0.125,95,117.0
2324,F5,449.125,0.125,95,117.0
2325,E-5,449.25,0.125,95,117.0
2326,F#5,449.375,0.125,95,117.0
2327,G5,449.5,0.125,95,117.0
2328,F#5,449.625,0.125,95,117.0
2329,E5,449.75,0.125,95,117.0
2330,F5,449.875,0.125,95,117.0
2331,F#5,450.0,1/5,95,117.0
2332,G#5,450.2,1/5,95,117.0
2333,A5,450.4,1/5,95,117.0
2334,G#5,450.6,1/5,95,117.0
2335,F#5,450.8,1/5,95,117.0
2336,F5,451.0,1/10,95,117.0
2337,F#5,451.1,1/10,95,117.0
2338,G#5,451.2,1/10,95,117.0
2339,A5,451.3,1/10,95,117.0
2340,G#5,451.4,1/10,95,117.0
2341,F#5,451.5,1/5,95,117.0
2342,F5,451.7,1/5,95,117.0
2343,F#5,451.9,1/5,95,117.0
2344,G#5,452.1,1/5,95,117.0
2345,A5,452.3,1/5,95,117.0
2346,G#5,452.5,1/10,95,117.0
2347,F#5,452.6,1/10,95,117.0
2348,F5,452.7,1/10,95,117.0
2349,F#5,452.8,1/10,95,117.0
2350,G#5,452.9,1/10,95,117.0
2351,B5,453.0,1/5,95,117.0
2352,G#5,453.2,1/5,95,117.0
2353,F#5,453.4,1/5,95,117.0
2354,F5,453.6,1/5,95,117.0
2355,F#5,453.8,1/5,95,117.0
2356,G#5,454.0,1/10,95,117.0
2357,B5,454.1,1/10,95,117.0
2358,G#5,454.2,1/10,95,117.0
2359,F#5,454.3,1/10,95,117.0
2360,F5,454.4,1/10,95,117.0
2361,F#5,454.5,1/5,95,117.0
2362,G#5,454.7,1/5,95,117.0
2363,B5,454.9,1/5,95,117.0
2364,G#5,455.1,1/5,95,117.0
2365,F#5,455.3,1/5,95,117.0
2366,F5,455.5,1/10,95,117.0
2367,F#5,455.6,1/10,95,117.0
2368,G#5,455.7,1/10,95,117.0
2369,B5,455.8,1/10,95,117.0
2370,G#5,455.9,1/10,95,117.0
2371,F#5,456.0,1/5,95,117.0
2372,F5,456.2,1/5,95,117.0
2373,D5,456.4,1/5,95,117.0
2374,B4,456.6,1/5,95,117.0
2375,D5,456.8,1/5,95,117.0
2376,F5,457.0,1/10,95,117.0
2377,F#5,457.1,1/10,95,117.0
2378,F5,457.2,1/10,95,117.0
2379,D5,457.3,1/10,95,117.0
2380,B4,457.4,1/10,95,117.0
2381,D5,457.5,1/5,95,117.0
2382,F5,457.7,1/5,95,117.0
2383,F#5,457.9,1/5,95,117.0
2384,F5,458.1,1/5,95,117.0
2385,D5,458.3,1/5,95,117.0
2386,B4,458.5,1/10,95,117.0
2387,D5,458.6,1/10,95,117.0
2388,F5,458.7,1/10,95,117.0
2389,F#5,458.8,1/10,95,117.0
2390,F5,458.9,1/10,95,117.0
2391,D5,459.0,0.125,95,117.0
2392,B4,459.125,0.125,95,117.0
2393,B4,459.25,0.125,95,117.0
2394,A4,459.375,0.125,95,117.0
2395,F#4,459.5,0.125,95,117.0
2396,E4,459.625,0.125,95,117.0
2397,F#4,459.75,0.125,95,117.0
2398,A4,459.875,0.125,95,117.0
2399,B4,460.0,0.125,95,117.0
2400,E4,460.125,0.125,95,117.0
2401,D4,460.25,0.125,95,117.0
2402,B3,460.375,1.625,95,117.0
2403,C#4,462.0,167/1000,95,117.0
2404,D4,462.167,167/1000,95,117.0
2405,F4,462.333,167/1000,95,117.0
2406,F#4,462.5,167/1000,95,117.0
2407,F4,462.667,167/1000,95,117.0
2408,D4,462.833,167/1000,95,117.0
2409,C#4,463.0,167/1000,95,117.0
2410,D4,463.167,167/1000,95,117.0
2411,F4,463.333,167/1000,95,117.0
2412,G#4,463.5,167/1000,95,117.0
2413,F4,463.667,167/1000,95,117.0
2414,D4,463.833,167/1000,95,117.0
2415,C#4,464.0,167/1000,95,117.0
2416,D4,464.167,167/1000,95,117.0
2417,F4,464.333,167/1000,95,117.0
2418,A4,464.5,167/1000,95,117.0
2419,F4,464.667,167/1000,95,117.0
2420,D4,464.833,167/1000,95,117.0
2421,C#4,465.0,167/1000,95,117.0
2422,D4,465.167,167/1000,95,117.0
2423,F4,465.333,167/1000,95,117.0
2424,F#4,465.5,167/1000,95,117.0
2425,F4,465.667,167/1000,95,117.0
2426,D4,465.833,167/1000,95,117.0
2427,C#4,466.0,167/1000,95,117.0
2428,D4,466.167,167/1000,95,117.0
2429,F4,466.333,167/1000,95,117.0
2430,G#4,466.5,167/1000,95,117.0
2431,F4,466.667,167/1000,95,117.0
2432,D4,466.833,167/1000,95,117.0
2433,C#4,467.0,167/1000,95,117.0
2434,D4,467.167,167/1000,95,117.0
2435,A4,467.333,167/1000,95,117.0
2436,C#5,467.5,167/1000,95,117.0
2437,A4,467.667,167/1000,95,117.0
2438,D4,467.833,167/1000,95,117.0
2439,C#4,468.0,167/1000,95,117.0
2440,D4,468.167,167/1000,95,117.0
2441,F4,468.333,167/1000,95,117.0
2442,F#4,468.5,167/1000,95,117.0
2443,F4,468.667,167/1000,95,117.0
2444,D4,468.833,167/1000,95,117.0
2445,C#4,469.0,167/1000,95,117.0
2446,D4,469.167,167/1000,95,117.0
2447,F4,469.333,167/1000,95,117.0
2448,G#4,469.5,167/1000,95,117.0
2449,F4,469.667,167/1000,95,117.0
2450,D4,469.833,167/1000,95,117.0
2451,C#4,470.0,167/1000,95,117.0
2452,D4,470.167,167/1000,95,117.0
2453,F4,470.333,167/1000,95,117.0
2454,A4,470.5,167/1000,95,117.0
2455,F4,470.667,167/1000,95,117.0
2456,D4,470.833,167/1000,95,117.0
2457,F#4,471.0,0.25,95,117.0
2458,F4,471.25,0.25,95,117.0
2459,E4,471.5,0.25,95,117.0
2460,F4,471.75,0.25,95,117.0
2461,E4,472.0,0.25,95,117.0
2462,E-4,472.25,0.25,95,117.0
2463,D4,472.5,0.25,95,117.0
2464,C#4,472.75,0.25,95,117.0
2465,C4,473.0,0.25,95,117.0
2466,C#4,473.25,0.25,95,117.0
2467,C4,473.5,0.25,95,117.0
2468,A3,473.75,0.25,95,117.0
2469,B3,474.0,2.5,95,117.0
2470,A3,476.5,0.25,95,117.0
2471,B3,476.75,0.25,95,117.0
2472,A3,477.0,2.5,95,117.0
2473,A3,479.5,167/1000,95,117.0
2474,B3,479.667,167/1000,95,117.0
2475,A3,479.833,167/1000,95,117.0
2476,G#3,480.0,1.0,95,117.0
2477,E3,481.0,0.5,95,117.0
2478,D3,481.5,0.5,95,117.0
2479,E3,482.0,0.5,95,117.0
2480,F#3,482.5,0.5,95,117.0
2481,E3,483.0,2.0,95,117.0
2482,E3,485.0,0.5,95,117.0
2483,E5,486.0,0.125,95,117.0
2484,D5,486.125,0.125,70,117.0
2485,B4,486.25,0.125,70,117.0
2486,B4,486.375,0.125,95,117.0
2487,A4,486.5,0.125,70,117.0
2488,F#4,486.625,0.125,70,117.0
2489,E5,486.75,0.125,95,117.0
2490,D5,486.875,0.125,70,117.0
2491,B4,487.0,0.125,70,117.0
2492,B4,487.125,0.125,95,117.0
2493,A4,487.25,0.125,70,117.0
2494,F#4,487.375,0.125,70,117.0
2495,E5,487.5,0.125,95,117.0
2496,D5,487.625,0.125,70,117.0
2497,B4,487.75,0.125,70,117.0
2498,B4,487.875,0.125,95,117.0
2499,A4,488.0,0.125,70,117.0
2500,F#4,488.125,0.125,70,117.0
2501,E5,488.25,0.125,95,117.0
2502,D5,488.375,0.125,70,117.0
2503,B4,488.5,0.125,70,117.0
2504,B4,488.625,0.125,95,117.0
2505,A4,488.75,0.125,70,117.0
2506,F#4,488.875,0.125,70,117.0
2507,E5,489.0,0.125,95,117.0
2508,D5,489.125,0.125,70,117.0
2509,B4,489.25,0.125,70,117.0
2510,B4,489.375,0.125,95,117.0
2511,A4,489.5,0.125,70,117.0
2512,F#4,489.625,0.125,70,117.0
2513,E5,489.75,0.125,95,117.0
2514,D5,489.875,0.125,70,117.0
2515,B4,490.0,0.125,70,117.0
2516,B4,490.125,0.125,95,117.0
2517,A4,490.25,0.125,70,117.0
2518,F#4,490.375,0.125,70,117.0
2519,E5,490.5,0.125,95,117.0
2520,D5,490.625,0.125,70,117.0
2521,B4,490.75,0.125,70,117.0
2522,B4,490.875,0.125,95,117.0
2523,A4,491.0,0.125,70,117.0
2524,F#4,491.125,0.125,70,117.0
2525,E5,491.25,0.125,95,117.0
2526,D5,491.375,0.125,70,117.0
2527,B4,491.5,0.125,70,117.0
2528,B4,491.625,0.125,95,117.0
2529,A4,491.75,0.125,70,117.0
2530,F#4,491.875,0.125,70,117.0
2531,E5,492.0,0.125,95,117.0
2532,D5,492.125,0.125,70,117.0
2533,B4,492.25,0.125,70,117.0
2534,F#5,492.375,0.125,95,117.0
2535,D5,492.5,0.125,70,117.0
2536,B4,492.625,0.125,70,117.0
2537,E5,492.75,0.125,95,117.0
2538,D5,492.875,0.125,70,117.0
2539,B4,493.0,0.125,70,117.0
2540,B4,493.125,0.125,95,117.0
2541,A4,493.25,0.125,70,117.0
2542,F#4,493.375,0.125,70,117.0
2543,E5,493.5,0.125,95,117.0
2544,D5,493.625,0.125,70,117.0
2545,B4,493.75,0.125,70,117.0
2546,F#5,493.875,0.125,95,117.0
2547,D5,494.0,11/100,95,117.0
2548,B4,494.11,11/100,95,117.0
2549,E5,494.221,11/100,95,117.0
2550,D5,494.331,11/100,95,117.0
2551,B4,494.442,11/100,95,117.0
2552,B4,494.552,11/100,95,117.0
2553,A4,494.663,11/100,95,117.0
2554,F#4,494.773,11/100,95,117.0
2555,E5,494.883,11/100,95,117.0
2556,D5,495.0,0.125,95,117.0
2557,B4,495.125,0.125,95,117.0
2558,F5,495.25,0.125,95,117.0
2559,D5,495.375,0.125,95,117.0
2560,B4,495.5,0.125,95,117.0
2561,E5,495.625,0.125,95,117.0
2562,D5,495.75,0.125,95,117.0
2563,B4,495.875,0.125,95,117.0
2564,B4,496.0,0.125,95,117.0
2565,A4,496.125,0.125,95,117.0
2566,F#4,496.25,0.125,95,117.0
2567,E5,496.375,0.125,95,117.0
2568,D5,496.5,0.125,95,117.0
2569,B4,496.625,0.125,95,117.0
2570,F5,496.75,0.125,95,117.0
2571,D5,496.875,0.125,95,117.0
2572,B4,497.0,11/100,95,117.0
2573,E5,497.11,11/100,95,117.0
2574,D5,497.221,11/100,95,117.0
2575,B4,497.331,11/100,95,117.0
2576,B4,497.442,11/100,95,117.0
2577,A4,497.552,11/100,95,117.0
2578,F#4,497.663,11/100,95,117.0
2579,E5,497.773,11/100,95,117.0
2580,D5,497.883,11/100,95,117.0
2581,B4,498.0,0.125,95,117.0
2582,B4,498.125,0.125,95,117.0
2583,A4,498.25,0.125,95,117.0
2584,F#4,498.375,0.125,95,117.0
2585,F#4,498.5,0.125,95,117.0
2586,E4,498.625,0.125,95,117.0
2587,D4,498.75,0.125,95,117.0
2588,B4,498.875,0.125,95,117.0
2589,A4,499.0,0.125,95,117.0
2590,F#4,499.125,0.125,95,117.0
2591,F#4,499.25,0.125,95,117.0
2592,E4,499.375,0.125,95,117.0
2593,D4,499.5,0.125,95,117.0
2594,C#4,499.625,0.125,95,117.0
2595,B3,499.75,0.125,95,117.0
2596,A3,499.875,0.125,95,117.0
2597,F#4,500.0,0.125,95,117.0
2598,E4,500.125,0.125,95,117.0
2599,D4,500.25,0.125,95,117.0
2600,C#4,500.375,0.125,95,117.0
2601,B3,500.5,0.125,95,117.0
2602,A3,500.625,0.125,95,117.0
2603,A3,500.75,0.125,95,117.0
2604,F#3,500.875,0.125,95,117.0
2605,E3,501.0,0.125,95,117.0
2606,C#4,501.125,0.125,95,117.0
2607,B3,501.25,0.125,95,117.0
2608,A3,501.375,0.125,95,117.0
2609,A3,501.5,1/10,95,117.0
2610,F#3,501.6,1/10,95,117.0
2611,E3,501.7,1/10,95,117.0
2612,E3,501.8,1/10,95,117.0
2613,C#3,501.9,1/10,95,117.0
2614,B2,502.0,0.125,95,117.0
2615,A3,502.125,0.125,95,117.0
2616,F#3,502.25,0.125,95,117.0
2617,E3,502.375,0.125,95,117.0
2618,C#4,502.5,0.125,95,117.0
2619,B3,502.625,0.125,95,117.0
2620,A3,502.75,0.125,95,117.0
2621,A3,502.875,0.125,95,117.0
2622,F#3,503.0,0.125,95,117.0
2623,E3,503.125,0.125,95,117.0
2624,C#4,503.25,0.125,95,117.0
2625,B3,503.375,0.125,95,117.0
2626,A3,503.5,0.125,95,117.0
2627,F#4,503.625,0.125,95,117.0
2628,E4,503.75,0.125,95,117.0
2629,D4,503.875,0.125,95,117.0
2630,C#4,504.0,0.125,95,117.0
2631,B3,504.125,0.125,95,117.0
2632,A3,504.25,0.125,95,117.0
2633,F#4,504.375,0.125,95,117.0
2634,E4,504.5,0.125,95,117.0
2635,D4,504.625,0.125,95,117.0
2636,C#4,504.75,0.125,95,117.0
2637,B3,504.875,0.125,95,117.0
2638,A3,505.0,0.125,95,117.0
2639,F#4,505.125,0.125,95,117.0
2640,E4,505.25,0.125,95,117.0
2641,D4,505.375,0.125,95,117.0
2642,C#4,505.5,83/1000,95,117.0
2643,B3,505.583,83/1000,95,117.0
2644,A3,505.667,83/1000,95,117.0
2645,C#4,505.75,83/1000,95,117.0
2646,B3,505.833,83/1000,95,117.0
2647,A3,505.917,83/1000,95,117.0
2648,F#4,506.0,11/100,95,117.0
2649,E4,506.11,11/100,95,117.0
2650,D4,506.221,11/100,95,117.0
2651,C#4,506.331,11/100,95,117.0
2652,B3,506.442,11/100,95,117.0
2653,A3,506.552,11/100,95,117.0
2654,F#4,506.663,11/100,95,117.0
2655,E4,506.773,11/100,95,117.0
2656,D4,506.883,11/100,95,117.0
2657,B4,507.0,11/100,95,117.0
2658,A4,507.11,11/100,95,117.0
2659,F#4,507.221,11/100,95,117.0
2660,E5,507.331,11/100,95,117.0
2661,D5,507.442,11/100,95,117.0
2662,B4,507.552,11/100,95,117.0
2663,B4,507.663,11/100,95,117.0
2664,A4,507.773,11/100,95,117.0
2665,F#4,507.883,11/100,95,117.0
2666,F#4,507.994,0.125,95,117.0
2667,E4,508.119,0.125,95,117.0
2668,D4,508.244,0.125,95,117.0
2669,B4,508.369,0.125,95,117.0
2670,A4,508.494,0.125,95,117.0
2671,F#4,508.619,0.125,95,117.0
2672,F#4,508.744,0.125,95,117.0
2673,E4,508.869,0.125,95,117.0
2674,D4,508.994,0.125,95,117.0
2675,C#4,509.119,0.125,95,117.0
2676,B3,509.244,0.125,95,117.0
2677,A3,509.369,0.125,95,117.0
2678,G#3,509.494,0.125,95,117.0
2679,F#3,509.619,0.125,95,117.0
2680,E3,509.744,0.125,95,117.0
2681,C#3,509.869,0.125,95,117.0
2682,B2,510.0,1.75,58,117.0
2683,B2,510.0,1.75,58,117.0
2684,B3,510.0,1.75,58,117.0
2685,G3,511.75,3/50,95,117.0
2686,D3,511.75,3/50,95,117.0
2687,A3,512.0,0.75,95,117.0
2688,F#4,512.75,0.25,95,117.0
2689,A4,513.0,0.25,95,117.0
2690,F#4,513.25,0.25,95,117.0
2691,A4,513.5,0.25,95,117.0
2692,F#4,513.75,0.25,95,117.0
2693,A4,514.0,0.25,95,117.0
2694,F#4,514.25,0.25,95,117.0
2695,E4,514.5,0.25,95,117.0
2696,D4,514.75,0.25,95,117.0
2697,B3,515.0,0.25,95,117.0
2698,E4,515.25,0.25,95,117.0
2699,B3,515.5,0.25,95,117.0
2700,D4,515.75,0.25,95,117.0
2701,E4,516.0,3.0,95,117.0
2702,E4,519.0,0.75,95,117.0
2703,E4,519.75,0.75,95,117.0
2704,E4,520.5,0.75,95,117.0
2705,E4,521.25,0.75,95,117.0
2706,D4,522.0,2.0,95,117.0
2707,F#4,524.0,0.5,95,117.0
2708,A4,524.5,0.25,95,117.0
2709,B4,524.75,0.25,95,117.0
2710,B4,525.0,2.0,95,117.0
2711,A4,527.0,0.25,95,117.0
2712,F#4,527.25,0.25,95,117.0
2713,B4,527.5,0.25,95,117.0
2714,F#4,527.75,0.25,95,117.0
2715,A4,528.0,0.25,95,117.0
2716,B4,528.25,0.25,95,117.0
2717,D5,528.5,0.25,95,117.0
2718,B4,528.75,0.25,95,117.0
2719,D5,529.0,0.25,95,117.0
2720,B4,529.25,0.25,95,117.0
2721,D5,529.5,0.25,95,117.0
2722,E5,529.75,0.25,95,117.0
2723,F#5,530.0,0.25,95,117.0
2724,F#5,530.25,0.125,95,117.0
2725,E5,530.375,0.125,95,117.0
2726,D5,530.5,0.25,95,117.0
2727,E5,530.75,0.25,95,117.0
2728,D5,531.0,0.25,95,117.0
2729,C#5,531.25,0.25,95,117.0
2730,B4,531.5,0.25,95,117.0
2731,C#5,531.75,0.25,95,117.0
2732,D5,532.0,0.25,95,117.0
2733,E5,532.25,0.25,95,117.0
2734,A5,532.5,1.5,95,117.0
2735,A5,534.0,1.5,95,117.0
2736,D5,535.5,0.5,95,117.0
2737,F#5,536.0,0.25,95,117.0
2738,G5,536.25,0.25,95,117.0
2739,G#5,536.5,0.25,95,117.0
2740,A5,536.75,0.25,95,117.0
2741,F#5,537.0,0.5,95,117.0
2742,D5,537.5,0.25,95,117.0
2743,B4,537.75,0.25,95,117.0
2744,A4,538.0,0.25,95,117.0
2745,F#4,538.25,0.25,95,117.0
2746,A4,538.5,0.25,95,117.0
2747,G4,538.75,0.25,95,117.0
2748,E4,539.0,0.25,95,117.0
2749,G4,539.25,0.25,95,117.0
2750,F#4,539.5,0.25,95,117.0
2751,E4,539.75,0.25,95,117.0
2752,F#4,540.0,0.25,95,117.0
2753,A4,540.25,0.25,95,117.0
2754,G4,540.5,1.5,95,117.0
2755,E4,542.0,0.25,95,117.0
2756,G4,542.25,0.25,95,117.0
2757,F#4,542.5,0.25,95,117.0
2758,G3,542.75,0.25,95,117.0
2759,D4,543.0,0.25,95,117.0
2760,F#4,543.25,0.25,95,117.0
2761,E4,543.5,0.25,95,117.0
2762,G3,543.75,0.25,95,117.0
2763,C#4,544.0,0.25,95,117.0
2764,E4,544.25,0.25,95,117.0
2765,D4,544.5,0.25,95,117.0
2766,G3,544.75,0.25,95,117.0
2767,B3,545.0,0.25,95,117.0
2768,D4,545.25,0.25,95,117.0
2769,C#4,545.5,0.25,95,117.0
2770,G3,545.75,0.25,95,117.0
2771,A3,546.0,0.25,95,117.0
2772,C#4,546.25,0.25,95,117.0
2773,B3,546.5,2.0,95,117.0
2774,C#4,548.5,0.25,95,117.0
2775,D4,548.75,0.25,95,117.0
2776,C#4,549.0,0.5,95,117.0
2777,D4,549.5,0.5,95,117.0
2778,E4,550.0,0.5,95,117.0
2779,G4,550.5,0.5,95,117.0
2780,A4,551.0,0.5,95,117.0
2781,B4,551.5,0.5,95,117.0
2782,C#5,552.0,0.25,95,117.0
2783,B4,552.25,0.25,95,117.0
2784,C#5,552.5,0.25,95,117.0
2785,D5,552.75,0.25,95,117.0
2786,E5,553.0,0.25,95,117.0
2787,D5,553.25,0.25,95,117.0
2788,F#5,553.5,0.25,95,117.0
2789,E5,553.75,0.25,95,117.0
2790,F#5,554.0,0.25,95,117.0
2791,G5,554.25,0.25,95,117.0
2792,A5,554.5,0.25,95,117.0
2793,F#5,554.75,0.25,95,117.0
2794,G5,555.0,167/1000,95,117.0
2795,F#5,555.167,167/1000,95,117.0
2796,E5,555.333,167/1000,95,117.0
2797,A5,555.5,167/1000,95,117.0
2798,G5,555.667,167/1000,95,117.0
2799,F#5,555.833,167/1000,95,117.0
2800,B5,556.0,167/1000,95,117.0
2801,A5,556.167,167/1000,95,117.0
2802,G5,556.333,167/1000,95,117.0
2803,C#6,556.5,167/1000,95,117.0
2804,B5,556.667,167/1000,95,117.0
2805,A5,556.833,167/1000,95,117.0
2806,D6,557.0,167/1000,95,117.0
2807,C#6,557.167,167/1000,95,117.0
2808,B5,557.333,167/1000,95,117.0
2809,E6,557.5,167/1000,95,117.0
2810,D6,557.667,167/1000,95,117.0
2811,C#6,557.833,167/1000,95,117.0
2812,D6,558.0,1.5,95,117.0
2813,D6,559.5,1.0,95,117.0
2814,E6,560.5,0.5,95,117.0
2815,C#6,561.0,1.5,95,117.0
2816,C#6,562.5,1.0,95,117.0
2817,D6,563.5,0.5,95,117.0
2818,B5,564.0,2.0,95,117.0
2819,F#5,566.0,0.125,95,117.0
2820,B5,566.125,0.125,95,117.0
2821,D6,566.25,0.125,95,117.0
2822,B5,566.375,0.125,95,117.0
2823,F#5,566.5,167/1000,95,117.0
2824,D5,566.667,167/1000,95,117.0
2825,C#5,566.833,167/1000,95,117.0
2826,D5,567.0,181/1000,95,117.0
2827,F#5,567.181,181/1000,95,117.0
2828,B5,567.362,181/1000,95,117.0
2829,D6,567.544,181/1000,95,117.0
2830,B5,567.725,181/1000,95,117.0
2831,F#5,567.906,181/1000,95,117.0
2832,D5,568.087,181/1000,95,117.0
2833,C#5,568.269,181/1000,95,117.0
2834,D5,568.45,181/1000,95,117.0
2835,F#5,568.631,181/1000,95,117.0
2836,B5,568.812,181/1000,95,117.0
2837,D6,568.994,83/1000,95,117.0
2838,B5,569.077,83/1000,95,117.0
2839,F#5,569.16,83/1000,95,117.0
2840,D5,569.244,83/1000,95,117.0
2841,C#5,569.327,83/1000,95,117.0
2842,D5,569.41,83/1000,95,117.0
2843,F#5,569.494,83/1000,95,117.0
2844,B5,569.577,83/1000,95,117.0
2845,D6,569.66,83/1000,95,117.0
2846,B5,569.744,83/1000,95,117.0
2847,F#5,569.827,83/1000,95,117.0
2848,D5,569.91,83/1000,95,117.0
2849,C#5,570.0,167/1000,95,117.0
2850,B4,570.167,167/1000,95,117.0
2851,A4,570.333,167/1000,95,117.0
2852,B4,570.5,1.5,95,117.0
2853,A3,572.0,0.5,95,117.0
2854,A4,572.5,0.25,95,117.0
2855,B4,572.75,0.25,95,117.0
2856,D5,573.0,0.25,95,117.0
2857,E5,573.25,2.75,95,117.0
2858,A5,574.5,0.25,95,117.0
2859,E5,576.0,1.5,95,117.0
2860,E5,577.75,417/1000,95,117.0
2861,D5,578.167,167/1000,95,117.0
2862,B4,578.333,167/1000,95,117.0
2863,A4,578.5,167/1000,95,117.0
2864,B4,578.667,167/1000,95,117.0
2865,A4,578.833,167/1000,95,117.0
2866,E4,579.0,0.5,95,117.0
2867,D4,579.5,1/5,95,117.0
2868,E4,579.7,1/5,95,117.0
2869,D4,579.9,1/5,95,117.0
2870,B3,580.1,1/5,95,117.0
2871,A3,580.3,1/5,95,117.0
2872,B3,580.5,1.0,95,117.0
2873,F#4,582.0,2.0,95,117.0
2874,F#3,582.0,2.0,95,117.0
2875,G4,584.0,0.5,95,117.0
2876,G3,584.0,0.5,95,117.0
2877,B4,584.5,0.5,95,117.0
2878,B3,584.5,0.5,95,117.0
2879,B-4,585.0,2.0,95,117.0
2880,B-3,585.0,2.0,95,117.0
2881,B4,587.0,0.5,95,117.0
2882,B3,587.0,0.5,95,117.0
2883,E5,587.5,0.5,95,117.0
2884,E4,587.5,0.5,95,117.0
2885,E5,588.25,0.25,95,117.0
2886,E4,588.25,0.25,95,117.0
2887,D5,588.5,0.25,95,117.0
2888,D4,588.5,0.25,95,117.0
2889,C#5,588.75,1.5,95,117.0
2890,C#4,588.75,1.5,95,117.0
2891,D5,590.25,0.5,95,117.0
2892,D4,590.25,0.5,95,117.0
2893,G5,590.75,0.5,95,117.0
2894,G4,590.75,0.5,95,117.0
2895,F#5,591.25,3.0,95,117.0
2896,F#4,591.25,3.0,95,117.0
2897,F#2,594.25,0.25,95,117.0
2898,F#2,594.5,0.5,95,117.0
2899,F#2,595.0,0.5,95,117.0
2900,F#2,595.5,0.25,95,117.0
2901,G2,595.75,0.5,95,117.0
2902,E2,596.25,0.5,95,117.0
2903,F#2,596.75,0.25,95,117.0
2904,F#2,597.0,0.5,95,117.0
2905,F#2,597.5,0.5,95,117.0
2906,E2,598.0,0.25,95,117.0
2907,F#2,598.25,0.25,95,117.0
2908,G2,598.5,0.25,95,117.0
2909,B2,598.75,0.25,95,117.0
2910,D3,599.0,0.25,95,117.0
2911,C#3,599.25,0.25,95,117.0
2912,G2,599.5,0.25,95,117.0
2913,F#2,599.75,0.25,95,117.0
2914,F#2,600.0,0.5,95,117.0
2915,F#2,600.5,0.5,95,117.0
2916,F#2,601.0,0.25,95,117.0
2917,G2,601.25,0.5,95,117.0
2918,B2,601.75,0.25,95,117.0
2919,B-2,602.0,0.25,95,117.0
2920,E2,602.25,0.25,95,117.0
2921,F#2,602.5,0.25,95,117.0
2922,G2,602.75,0.25,95,117.0
2923,B2,603.0,0.25,95,117.0
2924,E3,603.25,0.25,95,117.0
2925,G3,603.5,0.25,95,117.0
2926,F#2,603.75,0.25,95,117.0
2927,F#2,604.0,0.5,95,117.0
2928,F#2,604.5,0.5,95,117.0
2929,F#2,605.0,0.25,95,117.0
2930,G2,605.25,0.5,95,117.0
2931,E2,605.75,0.5,95,117.0
2932,F#2,606.25,0.25,95,117.0
2933,F#2,606.5,0.5,95,117.0
2934,F#2,607.0,0.5,95,117.0
2935,E2,607.5,0.25,95,117.0
2936,F#2,607.75,0.25,95,117.0
2937,G2,608.0,0.25,95,117.0
2938,B2,608.25,0.25,95,117.0
2939,D3,608.5,0.25,95,117.0
2940,C#3,608.75,0.25,95,117.0
2941,G2,609.0,0.25,95,117.0
2942,F#2,609.25,0.25,95,117.0
2943,F#2,609.5,0.5,95,117.0
2944,F#2,610.0,0.5,95,117.0
2945,F#2,610.5,0.25,95,117.0
2946,G2,610.75,0.5,95,117.0
2947,B2,611.25,0.25,95,117.0
2948,B-2,611.5,0.25,95,117.0
2949,E2,611.75,0.25,95,117.0
2950,F#2,612.0,0.25,95,117.0
2951,G2,612.25,0.25,95,117.0
2952,B2,612.5,0.25,95,117.0
2953,E3,612.75,0.25,95,117.0
2954,G3,613.0,0.25,95,117.0
2955,G#2,613.25,0.25,95,117.0
2956,G#2,613.5,0.5,95,117.0
2957,G#2,614.0,0.5,95,117.0
2958,G#2,614.5,0.25,95,117.0
2959,A2,614.75,0.5,95,117.0
2960,F#2,615.25,0.5,95,117.0
2961,G#2,615.75,0.25,95,117.0
2962,G#2,616.0,0.5,95,117.0
2963,G#2,616.5,0.5,95,117.0
2964,F#2,617.0,0.25,95,117.0
2965,G#2,617.25,0.25,95,117.0
2966,A2,617.5,0.25,95,117.0
2967,C#3,617.75,0.25,95,117.0
2968,E3,618.0,0.25,95,117.0
2969,E-3,618.25,0.25,95,117.0
2970,A2,618.5,0.25,95,117.0
2971,G#2,618.75,0.25,95,117.0
2972,G#2,619.0,0.5,95,117.0
2973,G#2,619.5,0.5,95,117.0
2974,G#2,620.0,0.25,95,117.0
2975,A2,620.25,0.5,95,117.0
2976,C#3,620.75,0.25,95,117.0
2977,C3,621.0,0.25,95,117.0
2978,F#2,621.25,0.25,95,117.0
2979,G#2,621.5,0.25,95,117.0
2980,A2,621.75,0.25,95,117.0
2981,C#3,622.0,0.25,95,117.0
2982,F#3,622.25,0.25,95,117.0
2983,A3,622.5,0.25,95,117.0
2984,G#2,622.75,0.25,95,117.0
2985,G#2,623.0,0.5,95,117.0
2986,G#2,623.5,0.5,95,117.0
2987,G#2,624.0,0.25,95,117.0
2988,A2,624.25,0.5,95,117.0
2989,F#2,624.75,0.5,95,117.0
2990,G#2,625.25,0.25,95,117.0
2991,G#2,625.5,0.5,95,117.0
2992,G#2,626.0,0.5,95,117.0
2993,G#2,626.0,0.25,95,117.0
2994,A2,626.25,0.25,95,117.0
2995,F#2,626.5,0.25,95,117.0
2996,G#2,626.5,0.25,95,117.0
2997,G#2,626.75,0.25,95,117.0
2998,G-1,626.75,0.25,95,117.0
2999,A2,627.0,0.25,95,117.0
3000,F#-1,627.0,0.25,95,117.0
3001,C#3,627.25,0.25,95,117.0
3002,E-1,627.25,0.25,95,117.0
3003,E3,627.5,0.25,95,117.0
3004,B2,627.5,0.25,95,117.0
3005,E-3,627.75,0.25,95,117.0
3006,A2,627.75,0.25,95,117.0
3007,A2,628.0,0.25,95,117.0
3008,B2,628.0,0.25,95,117.0
3009,G#2,628.0,0.25,95,117.0
3010,G#2,628.25,0.25,95,117.0
3011,C3,628.25,0.25,95,117.0
3012,C3,628.25,0.25,95,117.0
3013,G#2,628.5,0.5,95,117.0
3014,B2,628.5,0.25,95,117.0
3015,B2,628.5,0.25,95,117.0
3016,A2,628.75,0.25,95,117.0
3017,A2,628.75,0.25,95,117.0
3018,G#2,629.0,0.5,95,117.0
3019,G#2,629.0,0.25,95,117.0
3020,D3,629.0,0.25,95,117.0
3021,F#2,629.25,0.25,95,117.0
3022,E-3,629.25,0.25,95,117.0
3023,G#2,629.5,0.25,95,117.0
3024,D3,629.5,0.25,95,117.0
3025,D3,629.5,0.25,95,117.0
3026,A2,629.75,0.5,95,117.0
3027,C3,629.75,0.25,95,117.0
3028,C3,629.75,0.25,95,117.0
3029,B2,630.0,0.25,95,117.0
3030,B2,630.0,0.25,95,117.0
3031,C#3,630.25,0.25,95,117.0
3032,E-3,630.25,0.25,95,117.0
3033,A2,630.25,0.25,95,117.0
3034,C3,630.5,0.25,95,117.0
3035,D3,630.5,0.25,95,117.0
3036,F3,630.5,0.25,95,117.0
3037,F#2,630.75,0.25,95,117.0
3038,C3,630.75,0.25,95,117.0
3039,E-3,630.75,0.25,95,117.0
3040,G#2,631.0,0.25,95,117.0
3041,F3,631.0,0.25,95,117.0
3042,D3,631.0,0.25,95,117.0
3043,A2,631.25,0.25,95,117.0
3044,F#3,631.25,0.25,95,117.0
3045,F#3,631.25,0.25,95,117.0
3046,C#3,631.5,0.25,95,117.0
3047,F3,631.5,0.25,95,117.0
3048,F3,631.5,0.25,95,117.0
3049,F#3,631.75,0.25,95,117.0
3050,E-3,631.75,0.25,95,117.0
3051,E-3,631.75,0.25,95,117.0
3052,A3,632.0,0.25,95,117.0
3053,D3,632.0,0.25,95,117.0
3054,G#3,632.0,0.25,95,117.0
3055,G#3,632.25,0.25,95,117.0
3056,C3,632.25,0.25,95,117.0
3057,A3,632.25,0.25,95,117.0
3058,A3,632.5,0.25,95,117.0
3059,G#3,632.5,0.25,95,117.0
3060,G#3,632.5,0.25,95,117.0
3061,G#3,632.75,0.25,95,117.0
3062,F#3,632.75,0.25,95,117.0
3063,F#3,632.75,0.25,95,117.0
3064,F#3,633.0,0.25,95,117.0
3065,F3,633.0,0.25,95,117.0
3066,F3,633.0,0.25,95,117.0
3067,F3,633.25,0.25,95,117.0
3068,A3,633.25,0.25,95,117.0
3069,E-3,633.25,0.25,95,117.0
3070,E-3,633.5,0.25,95,117.0
3071,G#3,633.5,0.25,95,117.0
3072,B3,633.5,0.25,95,117.0
3073,B3,633.75,0.25,95,117.0
3074,F#3,633.75,0.25,95,117.0
3075,A3,633.75,0.25,95,117.0
3076,A3,634.0,0.25,95,117.0
3077,B3,634.0,0.25,95,117.0
3078,G#3,634.0,0.25,95,117.0
3079,G#3,634.25,0.25,95,117.0
3080,C4,634.25,0.25,95,117.0
3081,C4,634.25,0.25,95,117.0
3082,C4,634.5,0.25,95,117.0
3083,B3,634.5,0.25,95,117.0
3084,B3,634.5,0.25,95,117.0
3085,B3,634.75,0.25,95,117.0
3086,A3,634.75,0.25,95,117.0
3087,A3,634.75,0.25,95,117.0
3088,A3,635.0,0.25,95,117.0
3089,G#3,635.0,0.25,95,117.0
3090,D4,635.0,0.25,95,117.0
3091,D4,635.25,0.25,95,117.0
3092,F#3,635.25,0.25,95,117.0
3093,E-4,635.25,0.25,95,117.0
3094,E-4,635.5,0.25,95,117.0
3095,D4,635.5,0.25,95,117.0
3096,D4,635.5,0.25,95,117.0
3097,D4,635.75,0.25,95,117.0
3098,C4,635.75,0.25,95,117.0
3099,C4,635.75,0.25,95,117.0
3100,C4,636.0,0.25,95,117.0
3101,B3,636.0,0.25,95,117.0
3102,B3,636.0,0.25,95,117.0
3103,B3,636.25,0.25,95,117.0
3104,E-4,636.25,0.25,95,117.0
3105,A3,636.25,0.25,95,117.0
3106,A3,636.5,0.25,95,117.0
3107,D4,636.5,0.25,95,117.0
3108,F4,636.5,0.25,95,117.0
3109,F4,636.75,0.25,95,117.0
3110,C4,636.75,0.25,95,117.0
3111,E-4,636.75,0.25,95,117.0
3112,E-4,637.0,0.25,95,117.0
3113,F4,637.0,0.25,95,117.0
3114,D4,637.0,0.25,95,117.0
3115,D4,637.25,0.25,95,117.0
3116,F#4,637.25,0.25,95,117.0
3117,F#4,637.25,0.25,95,117.0
3118,F#4,637.5,0.25,95,117.0
3119,F4,637.5,0.25,95,117.0
3120,F4,637.5,0.25,95,117.0
3121,F4,637.75,0.25,95,117.0
3122,E-4,637.75,0.25,95,117.0
3123,E4,637.75,0.25,95,117.0
3124,E-4,638.0,0.25,95,117.0
3125,D4,638.0,0.25,95,117.0
3126,A4,638.0,167/1000,95,117.0
3127,G4,638.167,167/1000,95,117.0
3128,G#4,638.25,0.25,95,117.0
3129,C4,638.25,0.25,95,117.0
3130,E-4,638.333,167/1000,95,117.0
3131,A4,638.5,0.25,95,117.0
3132,G#4,638.5,0.25,95,117.0
3133,D4,638.5,167/1000,95,117.0
3134,A4,638.667,167/1000,95,117.0
3135,G#4,638.75,0.25,95,117.0
3136,F#4,638.75,0.25,95,117.0
3137,G4,638.833,167/1000,95,117.0
3138,F#4,639.0,0.25,95,117.0
3139,F4,639.0,0.25,95,117.0
3140,E-4,639.0,167/1000,95,117.0
3141,D4,639.167,167/1000,95,117.0
3142,F4,639.25,0.25,95,117.0
3143,A4,639.25,0.25,95,117.0
3144,A4,639.333,167/1000,95,117.0
3145,E-4,639.5,0.25,95,117.0
3146,G#4,639.5,0.25,95,117.0
3147,G4,639.5,167/1000,95,117.0
3148,E-4,639.667,167/1000,95,117.0
3149,B4,639.75,0.25,95,117.0
3150,F#4,639.75,0.25,95,117.0
3151,D4,639.833,167/1000,95,117.0
3152,A4,640.0,0.25,95,117.0
3153,D5,640.0,167/1000,95,117.0
3154,A4,640.0,167/1000,95,117.0
3155,C5,640.167,167/1000,95,117.0
3156,B-4,640.167,167/1000,95,117.0
3157,G#4,640.25,0.25,95,117.0
3158,A4,640.333,167/1000,95,117.0
3159,A4,640.333,167/1000,95,117.0
3160,C5,640.5,0.25,95,117.0
3161,G4,640.5,167/1000,95,117.0
3162,G4,640.5,167/1000,95,117.0
3163,D5,640.667,167/1000,95,117.0
3164,E-4,640.667,167/1000,95,117.0
3165,B4,640.75,0.25,95,117.0
3166,C5,640.833,167/1000,95,117.0
3167,D4,640.833,167/1000,95,117.0
3168,A4,641.0,0.25,95,117.0
3169,A4,641.0,167/1000,95,117.0
3170,A4,641.0,167/1000,95,117.0
3171,G4,641.167,167/1000,95,117.0
3172,G4,641.167,167/1000,95,117.0
3173,D5,641.25,0.25,95,117.0
3174,D5,641.333,167/1000,95,117.0
3175,E-4,641.333,167/1000,95,117.0
3176,E-5,641.5,0.25,95,117.0
3177,C5,641.5,167/1000,95,117.0
3178,D4,641.5,167/1000,95,117.0
3179,A4,641.667,167/1000,95,117.0
3180,A4,641.667,167/1000,95,117.0
3181,D5,641.75,0.25,95,117.0
3182,G4,641.833,167/1000,95,117.0
3183,G4,641.833,167/1000,95,117.0
3184,C5,642.0,0.25,95,117.0
3185,D5,642.0,167/1000,95,117.0
3186,E-4,642.0,167/1000,95,117.0
3187,E-5,642.167,167/1000,95,117.0
3188,D4,642.167,167/1000,95,117.0
3189,B4,642.25,0.25,95,117.0
3190,D5,642.333,167/1000,95,117.0
3191,A4,642.333,167/1000,95,117.0
3192,A4,642.5,0.25,95,117.0
3193,C5,642.5,167/1000,95,117.0
3194,G4,642.5,167/1000,95,117.0
3195,A4,642.667,167/1000,95,117.0
3196,E-4,642.667,167/1000,95,117.0
3197,F5,642.75,0.25,95,117.0
3198,G4,642.833,167/1000,95,117.0
3199,D4,642.833,167/1000,95,117.0
3200,E-5,643.0,0.25,95,117.0
3201,D5,643.0,167/1000,95,117.0
3202,A4,643.0,167/1000,95,117.0
3203,C5,643.167,167/1000,95,117.0
3204,B-4,643.167,167/1000,95,117.0
3205,D5,643.25,0.25,95,117.0
3206,A4,643.333,167/1000,95,117.0
3207,A4,643.333,167/1000,95,117.0
3208,F#5,643.5,0.25,95,117.0
3209,G4,643.5,167/1000,95,117.0
3210,G4,643.5,167/1000,95,117.0
3211,D5,643.667,167/1000,95,117.0
3212,E-4,643.667,167/1000,95,117.0
3213,F5,643.75,0.25,95,117.0
3214,C5,643.833,167/1000,95,117.0
3215,D4,643.833,167/1000,95,117.0
3216,E-5,644.0,0.25,95,117.0
3217,A4,644.0,167/1000,95,117.0
3218,A4,644.0,167/1000,95,117.0
3219,G4,644.167,167/1000,95,117.0
3220,G4,644.167,167/1000,95,117.0
3221,D3,644.25,0.25,95,117.0
3222,A2,644.25,0.25,95,117.0
3223,D2,644.25,0.25,95,117.0
3224,D5,644.333,167/1000,95,117.0
3225,E-4,644.333,167/1000,95,117.0
3226,C5,644.5,167/1000,95,117.0
3227,D4,644.5,167/1000,95,117.0
3228,D3,644.5,0.5,95,117.0
3229,A2,644.5,0.5,95,117.0
3230,D2,644.5,0.5,95,117.0
3231,A4,644.667,167/1000,95,117.0
3232,A4,644.667,167/1000,95,117.0
3233,G4,644.833,167/1000,95,117.0
3234,G4,644.833,167/1000,95,117.0
3235,D5,645.0,167/1000,95,117.0
3236,E-4,645.0,167/1000,95,117.0
3237,D3,645.0,0.25,95,117.0
3238,A2,645.0,0.25,95,117.0
3239,D2,645.0,0.25,95,117.0
3240,E-5,645.167,167/1000,95,117.0
3241,D4,645.167,167/1000,95,117.0
3242,D5,645.333,167/1000,95,117.0
3243,A4,645.333,167/1000,95,117.0
3244,C5,645.5,167/1000,95,117.0
3245,B-4,645.5,167/1000,95,117.0
3246,A4,645.667,167/1000,95,117.0
3247,A4,645.667,167/1000,95,117.0
3248,G4,645.833,167/1000,95,117.0
3249,G4,645.833,167/1000,95,117.0
3250,D5,646.0,167/1000,95,117.0
3251,A4,646.0,167/1000,95,117.0
3252,C5,646.167,167/1000,95,117.0
3253,B-4,646.167,167/1000,95,117.0
3254,A4,646.333,167/1000,95,117.0
3255,C5,646.333,167/1000,95,117.0
3256,G4,646.5,167/1000,95,117.0
3257,D5,646.5,167/1000,95,117.0
3258,D5,646.667,167/1000,95,117.0
3259,E-5,646.667,167/1000,95,117.0
3260,C5,646.833,167/1000,95,117.0
3261,F5,646.833,167/1000,95,117.0
3262,A4,647.0,167/1000,95,117.0
3263,E-5,647.0,167/1000,95,117.0
3264,G4,647.167,167/1000,95,117.0
3265,D5,647.167,167/1000,95,117.0
3266,D3,647.25,0.25,95,117.0
3267,A2,647.25,0.25,95,117.0
3268,D2,647.25,0.25,95,117.0
3269,D5,647.333,167/1000,95,117.0
3270,C5,647.333,167/1000,95,117.0
3271,E-5,647.5,167/1000,95,117.0
3272,B-4,647.5,167/1000,95,117.0
3273,D3,647.5,0.5,95,117.0
3274,A2,647.5,0.5,95,117.0
3275,D2,647.5,0.5,95,117.0
3276,D5,647.667,167/1000,95,117.0
3277,E-5,647.667,167/1000,95,117.0
3278,C5,647.833,167/1000,95,117.0
3279,D5,647.833,167/1000,95,117.0
3280,D5,648.0,167/1000,95,117.0
3281,C5,648.0,167/1000,95,117.0
3282,D3,648.0,0.25,95,117.0
3283,A2,648.0,0.25,95,117.0
3284,D2,648.0,0.25,95,117.0
3285,E-5,648.167,167/1000,95,117.0
3286,B-4,648.167,167/1000,95,117.0
3287,F5,648.333,167/1000,95,117.0
3288,E-5,648.333,167/1000,95,117.0
3289,G5,648.5,167/1000,95,117.0
3290,D5,648.5,167/1000,95,117.0
3291,A5,648.667,167/1000,95,117.0
3292,C5,648.667,167/1000,95,117.0
3293,B-5,648.833,167/1000,95,117.0
3294,B-4,648.833,167/1000,95,117.0
3295,A5,649.0,167/1000,95,117.0
3296,E-5,649.0,167/1000,95,117.0
3297,G5,649.167,167/1000,95,117.0
3298,F5,649.167,167/1000,95,117.0
3299,F5,649.333,167/1000,95,117.0
3300,E-5,649.333,167/1000,95,117.0
3301,E-5,649.5,167/1000,95,117.0
3302,D5,649.5,167/1000,95,117.0
3303,A5,649.667,167/1000,95,117.0
3304,C5,649.667,167/1000,95,117.0
3305,G5,649.833,167/1000,95,117.0
3306,B-4,649.833,167/1000,95,117.0
3307,F5,650.0,167/1000,95,117.0
3308,A4,650.0,167/1000,95,117.0
3309,E-5,650.167,167/1000,95,117.0
3310,G4,650.167,167/1000,95,117.0
3311,D3,650.25,0.25,95,117.0
3312,A2,650.25,0.25,95,117.0
3313,D2,650.25,0.25,95,117.0
3314,A5,650.333,167/1000,95,117.0
3315,E-4,650.333,167/1000,95,117.0
3316,G5,650.5,167/1000,95,117.0
3317,D4,650.5,167/1000,95,117.0
3318,D3,650.5,0.5,95,117.0
3319,A2,650.5,0.5,95,117.0
3320,D2,650.5,0.5,95,117.0
3321,F5,650.667,167/1000,95,117.0
3322,A4,650.667,167/1000,95,117.0
3323,E-5,650.833,167/1000,95,117.0
3324,G4,650.833,167/1000,95,117.0
3325,A5,651.0,167/1000,95,117.0
3326,E-4,651.0,167/1000,95,117.0
3327,D3,651.0,0.25,95,117.0
3328,A2,651.0,0.25,95,117.0
3329,D2,651.0,0.25,95,117.0
3330,B-5,651.167,167/1000,95,117.0
3331,D4,651.167,167/1000,95,117.0
3332,A5,651.333,167/1000,95,117.0
3333,A4,651.333,167/1000,95,117.0
3334,G5,651.5,167/1000,95,117.0
3335,G4,651.5,167/1000,95,117.0
3336,F5,651.667,167/1000,95,117.0
3337,E-4,651.667,167/1000,95,117.0
3338,E-5,651.833,167/1000,95,117.0
3339,D4,651.833,167/1000,95,117.0
3340,D5,652.0,167/1000,95,117.0
3341,A4,652.0,167/1000,95,117.0
3342,C5,652.167,167/1000,95,117.0
3343,B-4,652.167,167/1000,95,117.0
3344,A4,652.333,167/1000,95,117.0
3345,A4,652.333,167/1000,95,117.0
3346,G4,652.5,167/1000,95,117.0
3347,G4,652.5,167/1000,95,117.0
3348,D5,652.667,167/1000,95,117.0
3349,E-4,652.667,167/1000,95,117.0
3350,C5,652.833,167/1000,95,117.0
3351,D4,652.833,167/1000,95,117.0
3352,A4,653.0,167/1000,95,117.0
3353,A4,653.0,167/1000,95,117.0
3354,G4,653.167,167/1000,95,117.0
3355,G4,653.167,167/1000,95,117.0
3356,C3,653.25,1.5,95,117.0
3357,G2,653.25,1.5,95,117.0
3358,C2,653.25,1.5,95,117.0
3359,D5,653.333,167/1000,95,117.0
3360,E-4,653.333,167/1000,95,117.0
3361,C5,653.5,167/1000,95,117.0
3362,D4,653.5,167/1000,95,117.0
3363,A4,653.667,167/1000,95,117.0
3364,A4,653.667,167/1000,95,117.0
3365,G4,653.833,167/1000,95,117.0
3366,G4,653.833,167/1000,95,117.0
3367,D5,654.0,167/1000,95,117.0
3368,E-4,654.0,167/1000,95,117.0
3369,E-5,654.167,167/1000,95,117.0
3370,D4,654.167,167/1000,95,117.0
3371,D5,654.333,167/1000,95,117.0
3372,A4,654.333,167/1000,95,117.0
3373,C5,654.5,167/1000,95,117.0
3374,G4,654.5,167/1000,95,117.0
3375,A4,654.667,167/1000,95,117.0
3376,E-4,654.667,167/1000,95,117.0
3377,E-3,654.75,1.5,95,117.0
3378,B-2,654.75,1.5,95,117.0
3379,E-2,654.75,1.5,95,117.0
3380,G4,654.833,167/1000,95,117.0
3381,D4,654.833,167/1000,95,117.0
3382,D5,655.0,167/1000,95,117.0
3383,A4,655.0,167/1000,95,117.0
3384,C5,655.167,167/1000,95,117.0
3385,B-4,655.167,167/1000,95,117.0
3386,A4,655.333,167/1000,95,117.0
3387,A4,655.333,167/1000,95,117.0
3388,G4,655.5,167/1000,95,117.0
3389,G4,655.5,167/1000,95,117.0
3390,D5,655.667,167/1000,95,117.0
3391,E-4,655.667,167/1000,95,117.0
3392,C5,655.833,167/1000,95,117.0
3393,D4,655.833,167/1000,95,117.0
3394,A4,656.0,167/1000,95,117.0
3395,A4,656.0,167/1000,95,117.0
3396,G4,656.167,167/1000,95,117.0
3397,G4,656.167,167/1000,95,117.0
3398,D3,656.25,0.25,95,117.0
3399,A2,656.25,0.25,95,117.0
3400,D2,656.25,0.25,95,117.0
3401,D5,656.333,167/1000,95,117.0
3402,E-4,656.333,167/1000,95,117.0
3403,C5,656.5,167/1000,95,117.0
3404,D4,656.5,167/1000,95,117.0
3405,D3,656.5,0.5,95,117.0
3406,A2,656.5,0.5,95,117.0
3407,D2,656.5,0.5,95,117.0
3408,A4,656.667,167/1000,95,117.0
3409,A4,656.667,167/1000,95,117.0
3410,G4,656.833,167/1000,95,117.0
3411,G4,656.833,167/1000,95,117.0
3412,D5,657.0,167/1000,95,117.0
3413,E-4,657.0,167/1000,95,117.0
3414,D3,657.0,0.25,95,117.0
3415,A2,657.0,0.25,95,117.0
3416,D2,657.0,0.25,95,117.0
3417,E-5,657.167,167/1000,95,117.0
3418,D4,657.167,167/1000,95,117.0
3419,D5,657.333,167/1000,95,117.0
3420,A4,657.333,167/1000,95,117.0
3421,C5,657.5,167/1000,95,117.0
3422,B-4,657.5,167/1000,95,117.0
3423,A4,657.667,167/1000,95,117.0
3424,A4,657.667,167/1000,95,117.0
3425,G4,657.833,167/1000,95,117.0
3426,G4,657.833,167/1000,95,117.0
3427,D5,658.0,167/1000,95,117.0
3428,A4,658.0,167/1000,95,117.0
3429,C5,658.167,167/1000,95,117.0
3430,B-4,658.167,167/1000,95,117.0
3431,A4,658.333,167/1000,95,117.0
3432,C5,658.333,167/1000,95,117.0
3433,G4,658.5,167/1000,95,117.0
3434,D5,658.5,167/1000,95,117.0
3435,D5,658.667,167/1000,95,117.0
3436,E-5,658.667,167/1000,95,117.0
3437,C5,658.833,167/1000,95,117.0
3438,F5,658.833,167/1000,95,117.0
3439,A4,659.0,167/1000,95,117.0
3440,E-5,659.0,167/1000,95,117.0
3441,G4,659.167,167/1000,95,117.0
3442,D5,659.167,167/1000,95,117.0
3443,D3,659.25,0.25,95,117.0
3444,A2,659.25,0.25,95,117.0
3445,D2,659.25,0.25,95,117.0
3446,D5,659.333,167/1000,95,117.0
3447,C5,659.333,167/1000,95,117.0
3448,E-5,659.5,167/1000,95,117.0
3449,B-4,659.5,167/1000,95,117.0
3450,D3,659.5,0.5,95,117.0
3451,A2,659.5,0.5,95,117.0
3452,D2,659.5,0.5,95,117.0
3453,D5,659.667,167/1000,95,117.0
3454,E-5,659.667,167/1000,95,117.0
3455,C5,659.833,167/1000,95,117.0
3456,D5,659.833,167/1000,95,117.0
3457,D5,660.0,167/1000,95,117.0
3458,C5,660.0,167/1000,95,117.0
3459,D3,660.0,0.25,95,117.0
3460,A2,660.0,0.25,95,117.0
3461,D2,660.0,0.25,95,117.0
3462,E-5,660.167,167/1000,95,117.0
3463,B-4,660.167,167/1000,95,117.0
3464,F5,660.333,167/1000,95,117.0
3465,E-5,660.333,167/1000,95,117.0
3466,G5,660.5,167/1000,95,117.0
3467,F5,660.5,167/1000,95,117.0
3468,A5,660.667,167/1000,95,117.0
3469,E-5,660.667,167/1000,95,117.0
3470,B-5,660.833,167/1000,95,117.0
3471,D5,660.833,167/1000,95,117.0
3472,A5,661.0,167/1000,95,117.0
3473,E-5,661.0,167/1000,95,117.0
3474,G5,661.167,167/1000,95,117.0
3475,F5,661.167,167/1000,95,117.0
3476,F5,661.333,167/1000,95,117.0
3477,G5,661.333,167/1000,95,117.0
3478,E-5,661.5,167/1000,95,117.0
3479,A5,661.5,167/1000,95,117.0
3480,A5,661.667,167/1000,95,117.0
3481,B-5,661.667,167/1000,95,117.0
3482,G5,661.833,167/1000,95,117.0
3483,C6,661.833,167/1000,95,117.0
3484,F5,662.0,167/1000,95,117.0
3485,A5,662.0,167/1000,95,117.0
3486,E-5,662.167,167/1000,95,117.0
3487,B-5,662.167,167/1000,95,117.0
3488,D3,662.25,0.25,95,117.0
3489,A2,662.25,0.25,95,117.0
3490,D2,662.25,0.25,95,117.0
3491,A5,662.333,167/1000,95,117.0
3492,A5,662.333,167/1000,95,117.0
3493,B-5,662.5,167/1000,95,117.0
3494,G5,662.5,167/1000,95,117.0
3495,D3,662.5,0.5,95,117.0
3496,A2,662.5,0.5,95,117.0
3497,D2,662.5,0.5,95,117.0
3498,A5,662.667,167/1000,95,117.0
3499,E-5,662.667,167/1000,95,117.0
3500,G5,662.833,167/1000,95,117.0
3501,D5,662.833,167/1000,95,117.0
3502,A5,663.0,167/1000,95,117.0
3503,A5,663.0,167/1000,95,117.0
3504,D3,663.0,0.25,95,117.0
3505,A2,663.0,0.25,95,117.0
3506,D2,663.0,0.25,95,117.0
3507,B-5,663.167,167/1000,95,117.0
3508,B-5,663.167,167/1000,95,117.0
3509,C6,663.333,167/1000,95,117.0
3510,A5,663.333,167/1000,95,117.0
3511,D6,663.5,167/1000,95,117.0
3512,G5,663.5,167/1000,95,117.0
3513,D6,663.667,167/1000,95,117.0
3514,E-5,663.667,167/1000,95,117.0
3515,E-6,663.833,167/1000,95,117.0
3516,D5,663.833,167/1000,95,117.0
3517,D6,664.0,167/1000,95,117.0
3518,A5,664.0,167/1000,95,117.0
3519,E-6,664.167,167/1000,95,117.0
3520,B-5,664.167,167/1000,95,117.0
3521,D6,664.333,167/1000,95,117.0
3522,A5,664.333,167/1000,95,117.0
3523,C6,664.5,167/1000,95,117.0
3524,G5,664.5,167/1000,95,117.0
3525,A5,664.667,167/1000,95,117.0
3526,E-5,664.667,167/1000,95,117.0
3527,G5,664.833,167/1000,95,117.0
3528,D5,664.833,167/1000,95,117.0
3529,D6,665.0,167/1000,95,117.0
3530,A5,665.0,167/1000,95,117.0
3531,E-6,665.167,167/1000,95,117.0
3532,B-5,665.167,167/1000,95,117.0
3533,C3,665.25,1.5,95,117.0
3534,G2,665.25,1.5,95,117.0
3535,C2,665.25,1.5,95,117.0
3536,D6,665.333,167/1000,95,117.0
3537,A5,665.333,167/1000,95,117.0
3538,C6,665.5,167/1000,95,117.0
3539,G5,665.5,167/1000,95,117.0
3540,A5,665.667,167/1000,95,117.0
3541,E-5,665.667,167/1000,95,117.0
3542,G5,665.833,167/1000,95,117.0
3543,D5,665.833,167/1000,95,117.0
3544,D6,666.0,167/1000,95,117.0
3545,A5,666.0,167/1000,95,117.0
3546,E-6,666.167,167/1000,95,117.0
3547,B-5,666.167,167/1000,95,117.0
3548,D6,666.333,167/1000,95,117.0
3549,A5,666.333,167/1000,95,117.0
3550,C6,666.5,167/1000,95,117.0
3551,G5,666.5,167/1000,95,117.0
3552,A5,666.667,167/1000,95,117.0
3553,E-5,666.667,167/1000,95,117.0
3554,F3,666.75,1.5,95,117.0
3555,C3,666.75,1.5,95,117.0
3556,F2,666.75,1.5,95,117.0
3557,G5,666.833,167/1000,95,117.0
3558,D5,666.833,167/1000,95,117.0
3559,D6,667.0,167/1000,95,117.0
3560,A5,667.0,167/1000,95,117.0
3561,E-6,667.167,167/1000,95,117.0
3562,B-5,667.167,167/1000,95,117.0
3563,D6,667.333,167/1000,95,117.0
3564,A5,667.333,167/1000,95,117.0
3565,C6,667.5,167/1000,95,117.0
3566,G5,667.5,167/1000,95,117.0
3567,A5,667.667,167/1000,95,117.0
3568,E-5,667.667,167/1000,95,117.0
3569,G5,667.833,167/1000,95,117.0
3570,D5,667.833,167/1000,95,117.0
3571,D6,668.0,167/1000,95,117.0
3572,A5,668.0,167/1000,95,117.0
3573,E-6,668.167,167/1000,95,117.0
3574,B-5,668.167,167/1000,95,117.0
3575,D3,668.25,0.25,95,117.0
3576,A2,668.25,0.25,95,117.0
3577,D2,668.25,0.25,95,117.0
3578,D6,668.333,167/1000,95,117.0
3579,A5,668.333,167/1000,95,117.0
3580,C6,668.5,167/1000,95,117.0
3581,G5,668.5,167/1000,95,117.0
3582,D3,668.5,0.5,95,117.0
3583,A2,668.5,0.5,95,117.0
3584,D2,668.5,0.5,95,117.0
3585,A5,668.667,167/1000,95,117.0
3586,E-5,668.667,167/1000,95,117.0
3587,G5,668.833,167/1000,95,117.0
3588,D5,668.833,167/1000,95,117.0
3589,D6,669.0,167/1000,95,117.0
3590,A5,669.0,167/1000,95,117.0
3591,D3,669.0,0.25,95,117.0
3592,A2,669.0,0.25,95,117.0
3593,D2,669.0,0.25,95,117.0
3594,E-6,669.167,167/1000,95,117.0
3595,B-5,669.167,167/1000,95,117.0
3596,D6,669.333,167/1000,95,117.0
3597,A5,669.333,167/1000,95,117.0
3598,C6,669.5,167/1000,95,117.0
3599,G5,669.5,167/1000,95,117.0
3600,A5,669.667,167/1000,95,117.0
3601,E-5,669.667,167/1000,95,117.0
3602,G5,669.833,167/1000,95,117.0
3603,D5,669.833,167/1000,95,117.0
3604,D6,670.0,167/1000,95,117.0
3605,A5,670.0,167/1000,95,117.0
3606,E-6,670.167,167/1000,95,117.0
3607,B-5,670.167,167/1000,95,117.0
3608,D6,670.333,167/1000,95,117.0
3609,A5,670.333,167/1000,95,117.0
3610,C6,670.5,167/1000,95,117.0
3611,G5,670.5,167/1000,95,117.0
3612,A5,670.667,167/1000,95,117.0
3613,E-5,670.667,167/1000,95,117.0
3614,G5,670.833,167/1000,95,117.0
3615,D5,670.833,167/1000,95,117.0
3616,D6,671.0,167/1000,95,117.0
3617,D6,671.0,167/1000,95,117.0
3618,E-6,671.167,167/1000,95,117.0
3619,B-5,671.167,167/1000,95,117.0
3620,D3,671.25,0.25,95,117.0
3621,A2,671.25,0.25,95,117.0
3622,D2,671.25,0.25,95,117.0
3623,D6,671.333,167/1000,95,117.0
3624,C6,671.333,167/1000,95,117.0
3625,C6,671.5,167/1000,95,117.0
3626,D6,671.5,167/1000,95,117.0
3627,D3,671.5,0.5,95,117.0
3628,A2,671.5,0.5,95,117.0
3629,D2,671.5,0.5,95,117.0
3630,A5,671.667,167/1000,95,117.0
3631,C6,671.667,167/1000,95,117.0
3632,G5,671.833,167/1000,95,117.0
3633,B-5,671.833,167/1000,95,117.0
3634,D6,672.0,167/1000,95,117.0
3635,C6,672.0,167/1000,95,117.0
3636,D3,672.0,0.25,95,117.0
3637,A2,672.0,0.25,95,117.0
3638,D2,672.0,0.25,95,117.0
3639,E-6,672.167,167/1000,95,117.0
3640,A5,672.167,167/1000,95,117.0
3641,D6,672.333,167/1000,95,117.0
3642,B-5,672.333,167/1000,95,117.0
3643,C6,672.5,167/1000,95,117.0
3644,C6,672.5,167/1000,95,117.0
3645,A5,672.667,167/1000,95,117.0
3646,B-5,672.667,167/1000,95,117.0
3647,G5,672.833,167/1000,95,117.0
3648,A5,672.833,167/1000,95,117.0
3649,B-5,673.0,167/1000,95,117.0
3650,B-5,673.0,167/1000,95,117.0
3651,G5,673.167,167/1000,95,117.0
3652,G5,673.167,167/1000,95,117.0
3653,A5,673.333,167/1000,95,117.0
3654,A5,673.333,167/1000,95,117.0
3655,B-5,673.5,167/1000,95,117.0
3656,B-5,673.5,167/1000,95,117.0
3657,A5,673.667,167/1000,95,117.0
3658,A5,673.667,167/1000,95,117.0
3659,G5,673.833,167/1000,95,117.0
3660,G5,673.833,167/1000,95,117.0
3661,A5,674.0,167/1000,95,117.0
3662,A5,674.0,167/1000,95,117.0
3663,F5,674.167,167/1000,95,117.0
3664,B-5,674.167,167/1000,95,117.0
3665,D3,674.25,0.25,95,117.0
3666,A2,674.25,0.25,95,117.0
3667,D2,674.25,0.25,95,117.0
3668,G5,674.333,167/1000,95,117.0
3669,A5,674.333,167/1000,95,117.0
3670,A5,674.5,167/1000,95,117.0
3671,G5,674.5,167/1000,95,117.0
3672,D3,674.5,0.5,95,117.0
3673,A2,674.5,0.5,95,117.0
3674,D2,674.5,0.5,95,117.0
3675,G5,674.667,167/1000,95,117.0
3676,E-5,674.667,167/1000,95,117.0
3677,F5,674.833,167/1000,95,117.0
3678,D5,674.833,167/1000,95,117.0
3679,D6,675.0,167/1000,95,117.0
3680,A5,675.0,167/1000,95,117.0
3681,D3,675.0,0.25,95,117.0
3682,A2,675.0,0.25,95,117.0
3683,D2,675.0,0.25,95,117.0
3684,B-5,675.167,167/1000,95,117.0
3685,B-5,675.167,167/1000,95,117.0
3686,C6,675.333,167/1000,95,117.0
3687,A5,675.333,167/1000,95,117.0
3688,D6,675.5,167/1000,95,117.0
3689,G5,675.5,167/1000,95,117.0
3690,C6,675.667,167/1000,95,117.0
3691,E-5,675.667,167/1000,95,117.0
3692,B-5,675.833,167/1000,95,117.0
3693,D5,675.833,167/1000,95,117.0
3694,D6,676.0,167/1000,95,117.0
3695,A5,676.0,167/1000,95,117.0
3696,E-6,676.167,167/1000,95,117.0
3697,B-5,676.167,167/1000,95,117.0
3698,D6,676.333,167/1000,95,117.0
3699,A5,676.333,167/1000,95,117.0
3700,C6,676.5,167/1000,95,117.0
3701,G5,676.5,167/1000,95,117.0
3702,A5,676.667,167/1000,95,117.0
3703,E-5,676.667,167/1000,95,117.0
3704,G5,676.833,167/1000,95,117.0
3705,D5,676.833,167/1000,95,117.0
3706,D6,677.0,167/1000,95,117.0
3707,A5,677.0,167/1000,95,117.0
3708,E-6,677.167,167/1000,95,117.0
3709,B-5,677.167,167/1000,95,117.0
3710,C3,677.25,1.5,95,117.0
3711,G2,677.25,1.5,95,117.0
3712,C2,677.25,1.5,95,117.0
3713,D6,677.333,167/1000,95,117.0
3714,A5,677.333,167/1000,95,117.0
3715,C6,677.5,167/1000,95,117.0
3716,G5,677.5,167/1000,95,117.0
3717,A5,677.667,167/1000,95,117.0
3718,E-5,677.667,167/1000,95,117.0
3719,G5,677.833,167/1000,95,117.0
3720,D5,677.833,167/1000,95,117.0
3721,D6,678.0,167/1000,95,117.0
3722,A5,678.0,167/1000,95,117.0
3723,E-6,678.167,167/1000,95,117.0
3724,B-5,678.167,167/1000,95,117.0
3725,D6,678.333,167/1000,95,117.0
3726,A5,678.333,167/1000,95,117.0
3727,C6,678.5,167/1000,95,117.0
3728,G5,678.5,167/1000,95,117.0
3729,A5,678.667,167/1000,95,117.0
3730,E-5,678.667,167/1000,95,117.0
3731,E-3,678.75,1.5,95,117.0
3732,B-2,678.75,1.5,95,117.0
3733,E-2,678.75,1.5,95,117.0
3734,G5,678.833,167/1000,95,117.0
3735,D5,678.833,167/1000,95,117.0
3736,D6,679.0,167/1000,95,117.0
3737,A5,679.0,167/1000,95,117.0
3738,E-6,679.167,167/1000,95,117.0
3739,B-5,679.167,167/1000,95,117.0
3740,D6,679.333,167/1000,95,117.0
3741,A5,679.333,167/1000,95,117.0
3742,C6,679.5,167/1000,95,117.0
3743,G5,679.5,167/1000,95,117.0
3744,A5,679.667,167/1000,95,117.0
3745,E-5,679.667,167/1000,95,117.0
3746,G5,679.833,167/1000,95,117.0
3747,D5,679.833,167/1000,95,117.0
3748,D6,680.0,167/1000,95,117.0
3749,A5,680.0,167/1000,95,117.0
3750,E-6,680.167,167/1000,95,117.0
3751,B-5,680.167,167/1000,95,117.0
3752,D3,680.25,0.25,95,117.0
3753,A2,680.25,0.25,95,117.0
3754,D2,680.25,0.25,95,117.0
3755,D6,680.333,167/1000,95,117.0
3756,A5,680.333,167/1000,95,117.0
3757,C6,680.5,167/1000,95,117.0
3758,G5,680.5,167/1000,95,117.0
3759,D3,680.5,0.5,95,117.0
3760,A2,680.5,0.5,95,117.0
3761,D2,680.5,0.5,95,117.0
3762,A5,680.667,167/1000,95,117.0
3763,E-5,680.667,167/1000,95,117.0
3764,G5,680.833,167/1000,95,117.0
3765,D5,680.833,167/1000,95,117.0
3766,D6,681.0,167/1000,95,117.0
3767,A5,681.0,167/1000,95,117.0
3768,D3,681.0,0.25,95,117.0
3769,A2,681.0,0.25,95,117.0
3770,D2,681.0,0.25,95,117.0
3771,E-6,681.167,167/1000,95,117.0
3772,B-5,681.167,167/1000,95,117.0
3773,D6,681.333,167/1000,95,117.0
3774,A5,681.333,167/1000,95,117.0
3775,C6,681.5,167/1000,95,117.0
3776,G5,681.5,167/1000,95,117.0
3777,A5,681.667,167/1000,95,117.0
3778,E-5,681.667,167/1000,95,117.0
3779,G5,681.833,167/1000,95,117.0
3780,D5,681.833,167/1000,95,117.0
3781,D6,682.0,167/1000,95,117.0
3782,A5,682.0,167/1000,95,117.0
3783,E-6,682.167,167/1000,95,117.0
3784,B-5,682.167,167/1000,95,117.0
3785,D6,682.333,167/1000,95,117.0
3786,A5,682.333,167/1000,95,117.0
3787,C6,682.5,167/1000,95,117.0
3788,G5,682.5,167/1000,95,117.0
3789,A5,682.667,167/1000,95,117.0
3790,E-5,682.667,167/1000,95,117.0
3791,G5,682.833,167/1000,95,117.0
3792,D5,682.833,167/1000,95,117.0
3793,D6,683.0,167/1000,95,117.0
3794,D6,683.0,167/1000,95,117.0
3795,E-6,683.167,167/1000,95,117.0
3796,B-5,683.167,167/1000,95,117.0
3797,D3,683.25,0.25,95,117.0
3798,A2,683.25,0.25,95,117.0
3799,D2,683.25,0.25,95,117.0
3800,D6,683.333,167/1000,95,117.0
3801,C6,683.333,167/1000,95,117.0
3802,C6,683.5,167/1000,95,117.0
3803,D6,683.5,167/1000,95,117.0
3804,D3,683.5,0.5,95,117.0
3805,A2,683.5,0.5,95,117.0
3806,D2,683.5,0.5,95,117.0
3807,A5,683.667,167/1000,95,117.0
3808,C6,683.667,167/1000,95,117.0
3809,G5,683.833,167/1000,95,117.0
3810,B-5,683.833,167/1000,95,117.0
3811,D6,684.0,167/1000,95,117.0
3812,C6,684.0,167/1000,95,117.0
3813,D3,684.0,0.25,95,117.0
3814,A2,684.0,0.25,95,117.0
3815,D2,684.0,0.25,95,117.0
3816,E-6,684.167,167/1000,95,117.0
3817,A5,684.167,167/1000,95,117.0
3818,D6,684.333,167/1000,95,117.0
3819,B-5,684.333,167/1000,95,117.0
3820,C6,684.5,167/1000,95,117.0
3821,C6,684.5,167/1000,95,117.0
3822,A5,684.667,167/1000,95,117.0
3823,B-5,684.667,167/1000,95,117.0
3824,G5,684.833,167/1000,95,117.0
3825,A5,684.833,167/1000,95,117.0
3826,B-5,685.0,167/1000,95,117.0
3827,E-6,685.0,167/1000,95,117.0
3828,G5,685.167,167/1000,95,117.0
3829,C6,685.167,167/1000,95,117.0
3830,A5,685.333,167/1000,95,117.0
3831,D6,685.333,167/1000,95,117.0
3832,B-5,685.5,167/1000,95,117.0
3833,E-6,685.5,167/1000,95,117.0
3834,A5,685.667,167/1000,95,117.0
3835,D6,685.667,167/1000,95,117.0
3836,G5,685.833,167/1000,95,117.0
3837,C6,685.833,167/1000,95,117.0
3838,A5,686.0,167/1000,95,117.0
3839,F5,686.167,167/1000,95,117.0
3840,D3,686.25,0.25,95,117.0
3841,A2,686.25,0.25,95,117.0
3842,D2,686.25,0.25,95,117.0
3843,G5,686.333,167/1000,95,117.0
3844,A5,686.5,167/1000,95,117.0
3845,D3,686.5,0.5,95,117.0
3846,A2,686.5,0.5,95,117.0
3847,D2,686.5,0.5,95,117.0
3848,G5,686.667,167/1000,95,117.0
3849,F5,686.833,167/1000,95,117.0
3850,D6,687.0,167/1000,95,117.0
3851,D3,687.0,0.25,95,117.0
3852,A2,687.0,0.25,95,117.0
3853,D2,687.0,0.25,95,117.0
3854,A5,687.167,167/1000,95,117.0
3855,B-5,687.333,167/1000,95,117.0
3856,C6,687.5,167/1000,95,117.0
3857,B-5,687.667,167/1000,95,117.0
3858,A5,687.833,167/1000,95,117.0
3859,B1,688.0,3.0,95,117.0
3860,C3,689.25,1.5,95,117.0
3861,G2,689.25,1.5,95,117.0
3862,C2,689.25,1.5,95,117.0
3863,F3,690.75,1.5,95,117.0
3864,C3,690.75,1.5,95,117.0
3865,F2,690.75,1.5,95,117.0
3866,B1,691.0,3.0,95,117.0
3867,D3,692.25,0.25,95,117.0
3868,A2,692.25,0.25,95,117.0
3869,D2,692.25,0.25,95,117.0
3870,D3,692.5,0.5,95,117.0
3871,A2,692.5,0.5,95,117.0
3872,D2,692.5,0.5,95,117.0
3873,D3,693.0,0.25,95,117.0
3874,A2,693.0,0.25,95,117.0
3875,D2,693.0,0.25,95,117.0
3876,D2,694.0,3.0,95,117.0
3877,D3,695.25,0.25,95,117.0
3878,A2,695.25,0.25,95,117.0
3879,D2,695.25,0.25,95,117.0
3880,D3,695.5,0.5,95,117.0
3881,A2,695.5,0.5,95,117.0
3882,D2,695.5,0.5,95,117.0
3883,D3,696.0,0.25,95,117.0
3884,A2,696.0,0.25,95,117.0
3885,D2,696.0,0.25,95,117.0
3886,D2,697.0,3.0,95,117.0
3887,D3,698.25,0.25,95,117.0
3888,A2,698.25,0.25,95,117.0
3889,D2,698.25,0.25,95,117.0
3890,D3,698.5,0.5,95,117.0
3891,A2,698.5,0.5,95,117.0
3892,D2,698.5,0.5,95,117.0
3893,D3,699.0,0.25,95,117.0
3894,A2,699.0,0.25,95,117.0
3895,D2,699.0,0.25,95,117.0
3896,D3,699.75,0.25,95,117.0
3897,A2,699.75,0.25,95,117.0
3898,D2,699.75,0.25,95,117.0
3899,E4,699.875,0.125,95,117.0
3900,F#4,700.0,2.0,95,117.0
3901,D3,700.5,0.25,95,117.0
3902,A2,700.5,0.25,95,117.0
3903,D2,700.5,0.25,95,117.0
3904,D3,701.25,0.25,95,117.0
3905,A2,701.25,0.25,95,117.0
3906,D2,701.25,0.25,95,117.0
3907,D3,701.5,0.5,95,117.0
3908,A2,701.5,0.5,95,117.0
3909,D2,701.5,0.5,95,117.0
3910,E4,702.0,0.5,95,117.0
3911,D3,702.0,0.25,95,117.0
3912,A2,702.0,0.25,95,117.0
3913,D2,702.0,0.25,95,117.0
3914,D4,702.5,0.5,95,117.0
3915,D3,702.75,0.25,95,117.0
3916,A2,702.75,0.25,95,117.0
3917,D2,702.75,0.25,95,117.0
3918,F#4,703.0,1.0,95,117.0
3919,D3,703.5,0.25,95,117.0
3920,A2,703.5,0.25,95,117.0
3921,D2,703.5,0.25,95,117.0
3922,B4,704.0,1.0,95,117.0
3923,F#3,704.25,3.0,95,117.0
3924,B2,704.25,3.0,95,117.0
3925,F#4,705.0,0.5,95,117.0
3926,G4,705.5,0.5,95,117.0
3927,E4,706.0,2.0,95,117.0
3928,D3,707.25,3.0,95,117.0
3929,G2,707.25,3.0,95,117.0
3930,D4,708.0,0.5,95,117.0
3931,C#4,708.5,0.5,95,117.0
3932,E4,709.0,1.0,95,117.0
3933,A4,710.0,1.0,95,117.0
3934,E3,710.25,3.0,95,117.0
3935,A2,710.25,3.0,95,117.0
3936,B4,711.0,0.5,95,117.0
3937,C#5,711.5,0.5,95,117.0
3938,C#5,712.0,2.5,95,117.0
3939,C#3,713.25,3.0,95,117.0
3940,F#2,713.25,3.0,95,117.0
3941,B4,714.5,0.5,95,117.0
3942,C#5,715.0,1.0,95,117.0
3943,C#5,716.0,1.0,95,117.0
3944,F#3,716.25,3.0,95,117.0
3945,B2,716.25,3.0,95,117.0
3946,C#5,717.0,1.0,95,117.0
3947,C#5,718.0,2.0,95,117.0
3948,D3,719.25,3.0,95,117.0
3949,G2,719.25,3.0,95,117.0
3950,F#4,720.0,0.5,95,117.0
3951,A4,720.5,0.5,95,117.0
3952,B4,721.0,0.5,95,117.0
3953,C#5,721.5,0.5,95,117.0
3954,D5,722.0,0.5,95,117.0
3955,E3,722.25,3.0,95,117.0
3956,A2,722.25,3.0,95,117.0
3957,E5,722.5,0.5,95,117.0
3958,F#5,723.0,0.5,95,117.0
3959,G5,723.5,0.25,95,117.0
3960,A5,723.75,0.25,95,117.0
3961,B5,724.0,2.0,95,117.0
3962,E3,725.25,3.0,95,117.0
3963,A2,725.25,3.0,95,117.0
3964,A5,726.0,0.5,95,117.0
3965,G5,726.5,0.5,95,117.0
3966,F#5,727.0,0.5,95,117.0
3967,G5,727.5,0.5,95,117.0
3968,E5,728.0,1.0,95,117.0
3969,F#3,728.25,3.0,95,117.0
3970,B2,728.25,3.0,95,117.0
3971,D5,729.0,0.5,95,117.0
3972,C#5,729.5,0.5,95,117.0
3973,C#5,730.0,0.25,95,117.0
3974,A5,730.25,0.25,95,117.0
3975,F#5,730.5,0.25,95,117.0
3976,D5,730.75,0.25,95,117.0
3977,C#5,731.0,0.25,95,117.0
3978,B4,731.25,0.25,95,117.0
3979,D3,731.25,3.0,95,117.0
3980,G2,731.25,3.0,95,117.0
3981,A4,731.5,0.25,95,117.0
3982,E5,731.75,0.25,95,117.0
3983,C#5,732.0,0.25,95,117.0
3984,B4,732.25,0.25,95,117.0
3985,A4,732.5,0.25,95,117.0
3986,F#4,732.75,0.25,95,117.0
3987,E4,733.0,0.25,95,117.0
3988,C#5,733.25,0.25,95,117.0
3989,A4,733.5,0.25,95,117.0
3990,F#4,733.75,0.25,95,117.0
3991,E4,734.0,0.25,95,117.0
3992,D4,734.25,0.25,95,117.0
3993,E3,734.25,3.0,95,117.0
3994,A2,734.25,3.0,95,117.0
3995,E4,734.5,0.25,95,117.0
3996,F#4,734.75,0.25,95,117.0
3997,D4,735.0,0.25,95,117.0
3998,E4,735.25,0.25,95,117.0
3999,C#4,735.5,0.25,95,117.0
4000,D4,735.75,0.25,95,117.0
4001,B3,736.0,0.5,95,117.0
4002,C#4,736.5,0.5,95,117.0
4003,D4,737.0,0.5,95,117.0
4004,C#3,737.25,3.0,95,117.0
4005,F#2,737.25,3.0,95,117.0
4006,B4,737.5,0.5,95,117.0
4007,A4,738.0,0.5,95,117.0
4008,E4,738.5,0.25,95,117.0
4009,F#4,738.75,0.25,70,117.0
4010,E4,739.0,1.5,95,117.0
4011,F#3,740.25,3.0,95,117.0
4012,B2,740.25,3.0,95,117.0
4013,F#4,740.5,0.5,95,117.0
4014,A4,741.0,0.5,95,117.0
4015,B4,741.5,0.5,95,117.0
4016,C#5,741.875,0.125,95,117.0
4017,D5,742.0,1.0,95,117.0
4018,C#5,743.0,1.0,95,117.0
4019,D3,743.25,3.0,95,117.0
4020,G2,743.25,3.0,95,117.0
4021,B4,744.0,0.5,95,117.0
4022,A4,744.5,0.5,95,117.0
4023,C#5,744.875,0.125,95,117.0
4024,D5,745.0,1.0,95,117.0
4025,C#5,746.0,1.0,95,117.0
4026,E3,746.25,3.0,95,117.0
4027,A2,746.25,3.0,95,117.0
4028,C#5,747.0,0.5,95,117.0
4029,D5,747.5,0.5,95,117.0
4030,B4,748.0,2.0,95,117.0
4031,E3,749.25,3.0,95,117.0
4032,A2,749.25,3.0,95,117.0
4033,F#4,750.0,0.25,95,117.0
4034,A4,750.25,0.25,95,117.0
4035,B4,750.5,0.25,95,117.0
4036,C#5,750.75,0.25,95,117.0
4037,D5,751.0,0.25,95,117.0
4038,F#5,751.25,0.25,95,117.0
4039,A5,751.5,0.25,95,117.0
4040,F#5,751.75,0.25,95,117.0
4041,D5,752.0,0.25,95,117.0
4042,C#5,752.25,0.25,95,117.0
4043,F#3,752.25,3.0,95,117.0
4044,B2,752.25,3.0,95,117.0
4045,B5,752.5,0.25,95,117.0
4046,G5,752.75,0.25,95,117.0
4047,E5,753.0,0.25,95,117.0
4048,D5,753.25,0.25,95,117.0
4049,C#6,753.5,0.25,95,117.0
4050,A5,753.75,0.25,95,117.0
4051,F#5,754.0,0.25,95,117.0
4052,E5,754.25,0.25,95,117.0
4053,D6,754.5,0.25,95,117.0
4054,B5,754.75,0.25,95,117.0
4055,C#6,755.0,0.25,95,117.0
4056,B5,755.25,0.25,95,117.0
4057,D3,755.25,3.0,95,117.0
4058,G2,755.25,3.0,95,117.0
4059,G5,755.5,0.25,95,117.0
4060,F#5,755.75,0.25,95,117.0
4061,E5,756.0,0.25,95,117.0
4062,B5,756.25,0.25,95,117.0
4063,E5,756.5,0.25,95,117.0
4064,D5,756.75,0.25,95,117.0
4065,A5,757.0,0.25,95,117.0
4066,D5,757.25,0.25,95,117.0
4067,C#5,757.5,0.25,95,117.0
4068,A5,757.75,0.25,95,117.0
4069,C#5,758.0,0.25,95,117.0
4070,D5,758.25,0.25,95,117.0
4071,E3,758.25,3.0,95,117.0
4072,A2,758.25,3.0,95,117.0
4073,B4,758.5,0.25,95,117.0
4074,C#5,758.75,0.25,95,117.0
4075,B4,759.0,0.25,95,117.0
4076,B-4,759.25,0.25,95,117.0
4077,A4,759.5,0.25,95,117.0
4078,B-4,759.75,0.25,95,117.0
4079,B4,760.0,0.5,95,117.0
4080,E5,760.5,1.0,95,117.0
4081,C#3,761.25,3.0,95,117.0
4082,F#2,761.25,3.0,95,117.0
4083,D5,761.5,0.125,95,117.0
4084,E5,761.625,0.125,95,117.0
4085,D5,761.75,0.125,95,117.0
4086,C#5,761.875,0.125,95,117.0
4087,D5,762.0,167/1000,95,117.0
4088,C#5,762.167,167/1000,95,117.0
4089,B4,762.333,167/1000,95,117.0
4090,A4,762.5,167/1000,70,117.0
4091,G4,762.667,167/1000,95,117.0
4092,F#4,762.833,167/1000,95,117.0
4093,B3,763.0,0.5,95,117.0
4094,A5,763.5,1.0,95,117.0
4095,F#3,764.25,3.0,95,117.0
4096,B2,764.25,3.0,95,117.0
4097,G5,764.5,0.125,95,117.0
4098,A5,764.625,0.125,70,117.0
4099,G5,764.75,0.125,70,117.0
4100,F#5,764.875,0.125,95,117.0
4101,G5,765.0,0.125,95,117.0
4102,F#5,765.125,0.125,70,117.0
4103,E5,765.25,0.125,95,117.0
4104,D5,765.375,0.125,70,117.0
4105,C#5,765.5,0.125,70,117.0
4106,D5,765.625,0.125,70,117.0
4107,C#5,765.75,0.125,70,117.0
4108,B4,765.875,0.125,95,117.0
4109,A4,766.0,0.25,95,117.0
4110,A5,766.25,0.25,95,117.0
4111,B4,766.5,0.25,95,117.0
4112,A4,766.75,0.125,70,117.0
4113,B4,766.875,0.125,70,117.0
4114,A4,767.0,0.125,70,117.0
4115,G4,767.125,0.125,70,117.0
4116,A4,767.25,0.125,70,117.0
4117,D3,767.25,3.0,95,117.0
4118,G2,767.25,3.0,95,117.0
4119,G4,767.375,0.125,70,117.0
4120,F#4,767.5,0.125,70,117.0
4121,G4,767.625,0.125,70,117.0
4122,F#4,767.75,0.125,70,117.0
4123,E4,767.875,0.125,95,117.0
4124,D4,768.0,0.125,70,117.0
4125,C#4,768.125,0.125,70,117.0
4126,D4,768.25,0.125,70,117.0
4127,D4,768.375,0.125,70,117.0
4128,E4,768.5,0.125,70,117.0
4129,D4,768.625,0.125,70,117.0
4130,C#4,768.75,0.125,70,117.0
4131,D4,768.875,0.125,70,117.0
4132,D4,769.0,0.125,95,117.0
4133,E4,769.125,0.125,95,117.0
4134,D4,769.25,0.125,95,117.0
4135,E4,769.375,0.125,95,117.0
4136,F#4,769.5,0.125,95,117.0
4137,E4,769.625,0.125,95,117.0
4138,D4,769.75,0.125,95,117.0
4139,E4,769.875,0.125,95,117.0
4140,D4,770.0,1/10,95,117.0
4141,E4,770.1,1/10,95,117.0
4142,F#4,770.2,1/10,95,117.0
4143,E3,770.25,3.0,95,117.0
4144,A2,770.25,3.0,95,117.0
4145,E4,770.3,1/10,95,117.0
4146,F#4,770.4,1/10,95,117.0
4147,G4,770.5,181/1000,95,117.0
4148,F#4,770.681,181/1000,95,117.0
4149,E4,770.862,181/1000,95,117.0
4150,F#4,771.044,181/1000,95,117.0
4151,E4,771.225,181/1000,95,117.0
4152,F#4,771.406,181/1000,95,117.0
4153,G4,771.587,181/1000,95,117.0
4154,F#4,771.769,181/1000,95,117.0
4155,G4,771.95,181/1000,95,117.0
4156,A4,772.131,181/1000,95,117.0
4157,G4,772.312,181/1000,95,117.0
4158,D5,772.5,1.5,95,117.0
4159,E3,773.25,3.5,95,117.0
4160,A2,773.25,3.5,95,117.0
4161,B4,774.0,0.25,95,117.0
4162,D5,774.25,0.25,95,117.0
4163,E5,774.5,0.25,95,117.0
4164,D5,774.75,0.25,95,117.0
4165,E5,775.0,0.5,95,117.0
4166,F#5,775.5,0.25,95,117.0
4167,A5,775.75,0.25,95,117.0
4168,E5,776.0,0.25,95,117.0
4169,F#5,776.25,0.25,95,117.0
4170,D5,776.5,0.25,95,117.0
4171,E5,776.75,0.25,95,117.0
4172,F#3,776.75,3.0,95,117.0
4173,B2,776.75,3.0,95,117.0
4174,B4,777.0,1.0,95,117.0
4175,B3,778.0,0.25,95,117.0
4176,D4,778.25,0.25,95,117.0
4177,E4,778.5,0.25,95,117.0
4178,D4,778.75,0.25,95,117.0
4179,F#4,779.0,0.25,95,117.0
4180,A4,779.25,0.25,95,117.0
4181,B4,779.5,0.25,95,117.0
4182,A4,779.75,0.25,95,117.0
4183,D3,779.75,3.0,95,117.0
4184,G2,779.75,3.0,95,117.0
4185,B4,780.0,0.25,95,117.0
4186,D5,780.25,0.25,95,117.0
4187,E5,780.5,0.25,95,117.0
4188,D5,780.75,0.25,95,117.0
4189,E5,781.0,0.25,95,117.0
4190,F#5,781.25,0.25,95,117.0
4191,A5,781.5,0.25,95,117.0
4192,F#5,781.75,0.25,95,117.0
4193,A5,782.0,0.25,95,117.0
4194,B5,782.25,0.25,95,117.0
4195,A5,782.5,0.25,95,117.0
4196,F#5,782.75,0.25,95,117.0
4197,E3,782.75,3.0,95,117.0
4198,A2,782.75,3.0,95,117.0
4199,D6,783.0,0.25,95,117.0
4200,B5,783.25,0.25,95,117.0
4201,A5,783.5,0.25,95,117.0
4202,B5,783.75,0.25,95,117.0
4203,A5,784.0,0.25,95,117.0
4204,B5,784.25,0.25,95,117.0
4205,A5,784.5,2.0,95,117.0
4206,C#3,785.75,3.0,95,117.0
4207,F#2,785.75,3.0,95,117.0
4208,E5,786.5,1.0,95,117.0
4209,A5,787.5,0.25,95,117.0
4210,E5,787.5,1.5,95,117.0
4211,D3,788.75,3.0,95,117.0
4212,G2,788.75,3.0,95,117.0
4213,D5,789.0,1.5,95,117.0
4214,E5,790.5,1.5,95,117.0
4215,B3,792.0,0.25,95,117.0
4216,B4,792.25,0.25,95,117.0
4217,E4,792.5,0.25,95,117.0
4218,E5,792.75,0.25,95,117.0
4219,B4,793.0,0.25,95,117.0
4220,B5,793.25,0.25,95,117.0
4221,C#6,793.5,0.25,95,117.0
4222,B-5,793.75,0.25,95,117.0
4223,F#5,794.0,0.25,95,117.0
4224,C#5,794.25,0.25,95,117.0
4225,A4,794.5,0.25,95,117.0
4226,G#2,794.5,0.25,95,117.0
4227,D-1,794.5,0.25,95,117.0
4228,D5,794.75,0.25,95,117.0
4229,D3,794.75,3.0,95,117.0
4230,G2,794.75,3.0,95,117.0
4231,G#2,794.75,0.5,95,117.0
4232,D-1,794.75,0.5,95,117.0
4233,F#5,795.0,0.25,95,117.0
4234,A5,795.25,0.25,95,117.0
4235,G#2,795.25,0.5,95,117.0
4236,D-1,795.25,0.5,95,117.0
4237,F#5,795.5,0.25,95,117.0
4238,D5,795.75,0.25,95,117.0
4239,G#2,795.75,0.25,95,117.0
4240,D-1,795.75,0.25,95,117.0
4241,A4,796.0,0.25,95,117.0
4242,A2,796.0,0.5,95,117.0
4243,E--1,796.0,0.5,95,117.0
4244,D5,796.25,0.25,95,117.0
4245,C#5,796.5,3.0,95,117.0
4246,G#2,796.5,0.5,95,117.0
4247,D-1,796.5,0.5,95,117.0
4248,F#2,797.0,0.5,95,117.0
4249,C-1,797.0,0.5,95,117.0
4250,G#2,797.5,0.25,95,117.0
4251,D-1,797.5,0.25,95,117.0
4252,B2,797.75,3.0,95,117.0
4253,E2,797.75,3.0,95,117.0
4254,G#2,797.75,0.5,95,117.0
4255,D-1,797.75,0.5,95,117.0
4256,G#2,798.25,0.5,95,117.0
4257,D-1,798.25,0.5,95,117.0
4258,C-1,798.75,0.25,95,117.0
4259,A2,799.0,0.25,95,117.0
4260,E--1,799.0,0.25,95,117.0
4261,B2,799.25,0.25,95,117.0
4262,F-1,799.25,0.25,95,117.0
4263,C#5,799.5,3.0,95,117.0
4264,C-1,799.5,0.25,95,117.0
4265,A2,799.75,0.25,95,117.0
4266,E--1,799.75,0.25,95,117.0
4267,B2,800.0,0.25,95,117.0
4268,F-1,800.0,0.25,95,117.0
4269,C-1,800.25,0.25,95,117.0
4270,G#2,800.5,0.25,95,117.0
4271,D-1,800.5,0.25,95,117.0
4272,C#3,800.75,1.5,95,117.0
4273,F#2,800.75,1.5,95,117.0
4274,G#2,800.75,0.5,95,117.0
4275,D-1,800.75,0.5,95,117.0
4276,G#2,801.25,0.5,95,117.0
4277,D-1,801.25,0.5,95,117.0
4278,G#2,801.75,0.25,95,117.0
4279,D-1,801.75,0.25,95,117.0
4280,A2,802.0,0.5,95,117.0
4281,E--1,802.0,0.5,95,117.0
4282,A2,802.25,1.5,95,117.0
4283,D2,802.25,1.5,95,117.0
4284,G#2,802.5,0.5,95,117.0
4285,D-1,802.5,0.5,95,117.0
4286,F#2,803.0,0.5,95,117.0
4287,C-1,803.0,0.5,95,117.0
4288,G#2,803.5,0.25,95,117.0
4289,D-1,803.5,0.25,95,117.0
4290,G#2,803.75,0.25,95,117.0
4291,C#2,803.75,0.25,95,117.0
4292,G#2,803.75,0.5,95,117.0
4293,D-1,803.75,0.5,95,117.0
4294,G#2,804.0,0.5,95,117.0
4295,C#2,804.0,0.5,95,117.0
4296,G#2,804.25,0.5,95,117.0
4297,D-1,804.25,0.5,95,117.0
4298,G#2,804.5,0.5,95,117.0
4299,C#2,804.5,0.5,95,117.0
4300,G#2,804.75,0.25,95,117.0
4301,F#3,805.0,0.25,95,117.0
4302,G#2,805.0,0.25,95,117.0
4303,C#2,805.0,0.25,95,117.0
4304,D3,805.25,0.25,95,117.0
4305,A2,805.25,0.5,95,117.0
4306,D2,805.25,0.5,95,117.0
4307,B-2,805.5,0.25,95,117.0
4308,F3,805.75,0.25,95,117.0
4309,G#2,805.75,0.5,95,117.0
4310,C#2,805.75,0.5,95,117.0
4311,C#3,806.0,0.25,95,117.0
4312,A2,806.25,0.25,95,117.0
4313,F#2,806.25,0.5,95,117.0
4314,B1,806.25,0.5,95,117.0
4315,G#2,806.5,0.25,95,117.0
4316,D-1,806.5,0.25,95,117.0
4317,G#2,806.75,0.25,95,117.0
4318,C#2,806.75,0.25,95,117.0
4319,G#2,806.75,0.5,95,117.0
4320,D-1,806.75,0.5,95,117.0
4321,G#2,807.0,0.5,95,117.0
4322,C#2,807.0,0.5,95,117.0
4323,G#2,807.25,0.5,95,117.0
4324,D-1,807.25,0.5,95,117.0
4325,G#2,807.5,0.5,95,117.0
4326,C#2,807.5,0.5,95,117.0
4327,G#2,807.75,0.25,95,117.0
4328,D-1,807.75,0.25,95,117.0
4329,B1,808.0,0.25,95,117.0
4330,A2,808.0,0.5,95,117.0
4331,E--1,808.0,0.5,95,117.0
4332,A2,808.25,0.25,95,117.0
4333,D2,808.25,0.25,95,117.0
4334,B2,808.5,0.25,95,117.0
4335,E2,808.5,0.25,95,117.0
4336,G#2,808.5,0.5,95,117.0
4337,D-1,808.5,0.5,95,117.0
4338,B1,808.75,0.25,95,117.0
4339,A2,809.0,0.25,95,117.0
4340,D2,809.0,0.25,95,117.0
4341,F#2,809.0,0.5,95,117.0
4342,C-1,809.0,0.5,95,117.0
4343,B2,809.25,0.25,95,117.0
4344,E2,809.25,0.25,95,117.0
4345,B1,809.5,0.25,95,117.0
4346,G#2,809.5,0.25,95,117.0
4347,D-1,809.5,0.25,95,117.0
4348,G#2,809.75,0.25,95,117.0
4349,C#2,809.75,0.25,95,117.0
4350,G#2,809.75,0.5,95,117.0
4351,D-1,809.75,0.5,95,117.0
4352,G#2,810.0,0.5,95,117.0
4353,C#2,810.0,0.5,95,117.0
4354,G#2,810.25,0.5,95,117.0
4355,D-1,810.25,0.5,95,117.0
4356,G#2,810.5,0.5,95,117.0
4357,C#2,810.5,0.5,95,117.0
4358,C-1,810.75,0.25,95,117.0
4359,G#2,811.0,0.25,95,117.0
4360,C#2,811.0,0.25,95,117.0
4361,A2,811.0,0.25,95,117.0
4362,E--1,811.0,0.25,95,117.0
4363,A2,811.25,0.5,95,117.0
4364,D2,811.25,0.5,95,117.0
4365,B2,811.25,0.25,95,117.0
4366,F-1,811.25,0.25,95,117.0
4367,C-1,811.5,0.25,95,117.0
4368,G#2,811.75,0.5,95,117.0
4369,C#2,811.75,0.5,95,117.0
4370,A2,811.75,0.25,95,117.0
4371,E--1,811.75,0.25,95,117.0
4372,B2,812.0,0.25,95,117.0
4373,F-1,812.0,0.25,95,117.0
4374,C-1,812.25,0.25,95,117.0
4375,F#2,812.25,0.5,95,117.0
4376,B1,812.25,0.5,95,117.0
4377,G#2,812.5,0.25,95,117.0
4378,D-1,812.5,0.25,95,117.0
4379,G#2,812.75,0.25,95,117.0
4380,C#2,812.75,0.25,95,117.0
4381,G#2,812.75,0.5,95,117.0
4382,D-1,812.75,0.5,95,117.0
4383,G#2,813.0,0.5,95,117.0
4384,C#2,813.0,0.5,95,117.0
4385,G#2,813.25,0.5,95,117.0
4386,D-1,813.25,0.5,95,117.0
4387,G#2,813.5,0.5,95,117.0
4388,C#2,813.5,0.5,95,117.0
4389,G#2,813.75,0.25,95,117.0
4390,D-1,813.75,0.25,95,117.0
4391,G#2,814.0,0.25,95,117.0
4392,A2,814.0,0.5,95,117.0
4393,E--1,814.0,0.5,95,117.0
4394,B2,814.25,0.25,95,117.0
4395,G2,814.5,0.25,95,117.0
4396,G#2,814.5,0.5,95,117.0
4397,D-1,814.5,0.5,95,117.0
4398,E-2,814.75,0.25,95,117.0
4399,B-2,815.0,0.25,95,117.0
4400,F#2,815.0,0.5,95,117.0
4401,C-1,815.0,0.5,95,117.0
4402,F#2,815.25,0.25,95,117.0
4403,D2,815.5,0.25,95,117.0
4404,G#2,815.5,0.25,95,117.0
4405,D-1,815.5,0.25,95,117.0
4406,G#2,815.75,0.25,95,117.0
4407,C#2,815.75,0.25,95,117.0
4408,G#2,815.75,0.5,95,117.0
4409,D-1,815.75,0.5,95,117.0
4410,G#2,816.0,0.5,95,117.0
4411,C#2,816.0,0.5,95,117.0
4412,G#2,816.25,0.5,95,117.0
4413,D-1,816.25,0.5,95,117.0
4414,G#2,816.5,0.5,95,117.0
4415,C#2,816.5,0.5,95,117.0
4416,G#2,816.75,0.25,95,117.0
4417,F#3,817.0,0.25,95,117.0
4418,G#2,817.0,0.25,95,117.0
4419,C#2,817.0,0.25,95,117.0
4420,D3,817.25,0.25,95,117.0
4421,A2,817.25,0.5,95,117.0
4422,D2,817.25,0.5,95,117.0
4423,B-2,817.5,0.25,95,117.0
4424,F3,817.75,0.25,95,117.0
4425,G#2,817.75,0.5,95,117.0
4426,C#2,817.75,0.5,95,117.0
4427,C#3,818.0,0.25,95,117.0
4428,A2,818.25,0.25,95,117.0
4429,F#2,818.25,0.5,95,117.0
4430,B1,818.25,0.5,95,117.0
4431,G#2,818.75,0.25,95,117.0
4432,C#2,818.75,0.25,95,117.0
4433,G#2,819.0,0.5,95,117.0
4434,C#2,819.0,0.5,95,117.0
4435,G#2,819.5,0.5,95,117.0
4436,C#2,819.5,0.5,95,117.0
4437,B1,820.0,0.25,95,117.0
4438,A2,820.25,0.25,95,117.0
4439,D2,820.25,0.25,95,117.0
4440,B1,820.5,0.25,95,117.0
4441,B2,820.5,0.25,95,117.0
4442,E2,820.5,0.25,95,117.0
4443,B1,820.75,0.25,95,117.0
4444,C#2,820.75,0.25,95,117.0
4445,D2,821.0,0.25,95,117.0
4446,A2,821.0,0.25,95,117.0
4447,D2,821.0,0.25,95,117.0
4448,A2,821.25,0.25,95,117.0
4449,B2,821.25,0.25,95,117.0
4450,E2,821.25,0.25,95,117.0
4451,B1,821.5,0.25,95,117.0
4452,B1,821.5,0.25,95,117.0
4453,D2,821.75,0.25,95,117.0
4454,G#2,821.75,0.25,95,117.0
4455,C#2,821.75,0.25,95,117.0
4456,E-2,822.0,0.25,95,117.0
4457,G#2,822.0,0.5,95,117.0
4458,C#2,822.0,0.5,95,117.0
4459,B-2,822.25,0.25,95,117.0
4460,B1,822.5,0.25,95,117.0
4461,G#2,822.5,0.5,95,117.0
4462,C#2,822.5,0.5,95,117.0
4463,E-2,822.75,0.25,95,117.0
4464,E2,823.0,0.25,95,117.0
4465,G#2,823.0,0.25,95,117.0
4466,C#2,823.0,0.25,95,117.0
4467,B2,823.25,0.25,95,117.0
4468,A2,823.25,0.5,95,117.0
4469,D2,823.25,0.5,95,117.0
4470,B1,823.5,0.25,95,117.0
4471,E2,823.75,0.25,95,117.0
4472,G#2,823.75,0.5,95,117.0
4473,C#2,823.75,0.5,95,117.0
4474,F2,824.0,0.25,95,117.0
4475,C3,824.25,0.25,95,117.0
4476,F#2,824.25,0.5,95,117.0
4477,B1,824.25,0.5,95,117.0
4478,B1,824.5,0.25,95,117.0
4479,F2,824.75,0.25,95,117.0
4480,G#2,824.75,0.25,95,117.0
4481,C#2,824.75,0.25,95,117.0
4482,F#2,825.0,0.25,95,117.0
4483,G#2,825.0,0.5,95,117.0
4484,C#2,825.0,0.5,95,117.0
4485,C#3,825.25,0.25,95,117.0
4486,B1,825.5,0.25,95,117.0
4487,G#2,825.5,0.5,95,117.0
4488,C#2,825.5,0.5,95,117.0
4489,F#2,825.75,0.25,95,117.0
4490,G#2,826.0,0.25,95,117.0
4491,G2,826.0,0.25,95,117.0
4492,B2,826.25,0.25,95,117.0
4493,D3,826.25,0.25,95,117.0
4494,G2,826.5,0.25,95,117.0
4495,B1,826.5,0.25,95,117.0
4496,E-2,826.75,0.25,95,117.0
4497,F2,826.75,0.25,95,117.0
4498,B-2,827.0,0.25,95,117.0
4499,F#2,827.0,0.25,95,117.0
4500,F#2,827.25,0.25,95,117.0
4501,C#3,827.25,0.25,95,117.0
4502,D2,827.5,0.25,95,117.0
4503,B1,827.5,0.25,95,117.0
4504,B1,827.75,0.25,95,117.0
4505,F#2,827.75,0.25,95,117.0
4506,C#2,828.0,0.25,95,117.0
4507,G2,828.0,0.25,95,117.0
4508,D2,828.25,0.25,95,117.0
4509,D3,828.25,0.25,95,117.0
4510,A2,828.5,0.25,95,117.0
4511,B1,828.5,0.25,95,117.0
4512,B1,828.75,0.25,95,117.0
4513,G2,828.75,0.25,95,117.0
4514,D2,829.0,0.25,95,117.0
4515,G#2,829.0,0.25,95,117.0
4516,E-2,829.25,0.25,95,117.0
4517,E-3,829.25,0.25,95,117.0
4518,B-2,829.5,0.25,95,117.0
4519,B1,829.5,0.25,95,117.0
4520,B1,829.75,0.25,95,117.0
4521,G#2,829.75,0.25,95,117.0
4522,E-2,830.0,0.25,95,117.0
4523,A2,830.0,0.25,95,117.0
4524,E2,830.25,0.25,95,117.0
4525,E3,830.25,0.25,95,117.0
4526,B2,830.5,0.25,95,117.0
4527,B1,830.5,0.25,95,117.0
4528,B1,830.75,0.25,95,117.0
4529,A2,830.75,0.25,95,117.0
4530,E2,831.0,0.25,95,117.0
4531,B-2,831.0,0.25,95,117.0
4532,F2,831.25,0.25,95,117.0
4533,F3,831.25,0.25,95,117.0
4534,C3,831.5,0.25,95,117.0
4535,B1,831.5,0.25,95,117.0
4536,B1,831.75,0.25,95,117.0
4537,B-2,831.75,0.25,95,117.0
4538,F2,832.0,0.25,95,117.0
4539,B2,832.0,0.25,95,117.0
4540,F#2,832.25,0.25,95,117.0
4541,F#3,832.25,0.25,95,117.0
4542,C#3,832.5,0.25,95,117.0
4543,B1,832.5,0.25,95,117.0
4544,B1,832.75,0.25,95,117.0
4545,A2,832.75,0.25,95,117.0
4546,F#2,833.0,0.25,95,117.0
4547,B-2,833.0,0.25,95,117.0
4548,G2,833.25,0.25,95,117.0
4549,F3,833.25,0.25,95,117.0
4550,D3,833.5,0.25,95,117.0
4551,B1,833.5,0.25,95,117.0
4552,B1,833.75,0.25,95,117.0
4553,B-2,833.75,0.25,95,117.0
4554,F2,834.0,0.25,95,117.0
4555,B2,834.0,0.25,95,117.0
4556,F#2,834.25,0.25,95,117.0
4557,F#3,834.25,0.25,95,117.0
4558,C#3,834.5,0.25,95,117.0
4559,B1,834.5,0.25,95,117.0
4560,B1,834.75,0.25,95,117.0
4561,B2,834.75,0.25,95,117.0
4562,F#2,835.0,0.25,95,117.0
4563,C3,835.0,0.25,95,117.0
4564,G2,835.25,0.25,95,117.0
4565,G3,835.25,0.25,95,117.0
4566,D3,835.5,0.25,95,117.0
4567,B1,835.5,0.25,95,117.0
4568,B1,835.75,0.25,95,117.0
4569,C3,835.75,0.25,95,117.0
4570,G2,836.0,0.25,95,117.0
4571,C#3,836.0,0.25,95,117.0
4572,G#2,836.25,0.25,95,117.0
4573,G#3,836.25,0.25,95,117.0
4574,E-3,836.5,0.25,95,117.0
4575,B1,836.5,0.25,95,117.0
4576,B1,836.75,0.25,95,117.0
4577,C#3,836.75,0.25,95,117.0
4578,G#2,837.0,0.25,95,117.0
4579,D3,837.0,0.25,95,117.0
4580,A2,837.25,0.25,95,117.0
4581,A3,837.25,0.25,95,117.0
4582,E3,837.5,0.25,95,117.0
4583,B1,837.5,0.25,95,117.0
4584,B1,837.75,0.25,95,117.0
4585,D3,837.75,0.25,95,117.0
4586,A2,838.0,0.25,95,117.0
4587,E-3,838.0,0.25,95,117.0
4588,B-2,838.25,0.25,95,117.0
4589,B-3,838.25,0.25,95,117.0
4590,F3,838.5,0.25,95,117.0
4591,B1,838.5,0.25,95,117.0
4592,B1,838.75,0.25,95,117.0
4593,C#3,838.75,0.25,95,117.0
4594,B-2,839.0,0.25,95,117.0
4595,D3,839.0,0.25,95,117.0
4596,B2,839.25,0.25,95,117.0
4597,A3,839.25,0.25,95,117.0
4598,F#3,839.5,0.25,95,117.0
4599,B1,839.5,0.25,95,117.0
4600,B1,839.75,0.25,95,117.0
4601,D3,839.75,0.25,95,117.0
4602,A2,840.0,0.25,95,117.0
4603,E-3,840.0,0.25,95,117.0
4604,B-2,840.25,0.25,95,117.0
4605,B-3,840.25,0.25,95,117.0
4606,F3,840.5,0.25,95,117.0
4607,B1,840.5,0.25,95,117.0
4608,B1,840.75,0.25,95,117.0
4609,E-3,840.75,0.25,95,117.0
4610,B-2,841.0,0.25,95,117.0
4611,E3,841.0,0.25,95,117.0
4612,B2,841.25,0.25,95,117.0
4613,B3,841.25,0.25,95,117.0
4614,F#3,841.5,0.25,95,117.0
4615,B1,841.5,0.25,95,117.0
4616,B1,841.75,0.25,95,117.0
4617,E3,841.75,0.25,95,117.0
4618,B2,842.0,0.25,95,117.0
4619,F3,842.0,0.25,95,117.0
4620,C3,842.25,0.25,95,117.0
4621,C4,842.25,0.25,95,117.0
4622,G3,842.5,0.25,95,117.0
4623,B1,842.5,0.25,95,117.0
4624,B1,842.75,0.25,95,117.0
4625,F3,842.75,0.25,95,117.0
4626,C3,843.0,0.25,95,117.0
4627,F#3,843.0,0.25,95,117.0
4628,C#3,843.25,0.25,95,117.0
4629,C#4,843.25,0.25,95,117.0
4630,G#3,843.5,0.25,95,117.0
4631,B1,843.5,0.25,95,117.0
4632,B1,843.75,0.25,95,117.0
4633,F#3,843.75,0.25,95,117.0
4634,C#3,844.0,0.25,95,117.0
4635,G3,844.0,0.25,95,117.0
4636,D3,844.25,0.25,95,117.0
4637,D4,844.25,0.25,95,117.0
4638,A3,844.5,0.25,95,117.0
4639,A2,844.5,0.5,95,117.0
4640,D2,844.5,0.5,95,117.0
4641,B1,844.75,0.25,95,117.0
4642,D3,845.0,0.25,95,117.0
4643,G#2,845.0,0.5,95,117.0
4644,C#2,845.0,0.5,95,117.0
4645,E-3,845.25,0.25,95,117.0
4646,B-3,845.5,0.25,95,117.0
4647,F#2,845.5,0.5,95,117.0
4648,B1,845.5,0.5,95,117.0
4649,B1,845.75,0.25,95,117.0
4650,C#3,846.0,0.25,95,117.0
4651,A2,846.0,0.5,95,117.0
4652,D2,846.0,0.5,95,117.0
4653,D3,846.25,0.25,95,117.0
4654,A3,846.5,0.25,95,117.0
4655,G#2,846.5,0.5,95,117.0
4656,C#2,846.5,0.5,95,117.0
4657,B1,846.75,0.25,95,117.0
4658,D3,847.0,0.25,95,117.0
4659,F#2,847.0,0.5,95,117.0
4660,B1,847.0,0.5,95,117.0
4661,E-3,847.25,0.25,95,117.0
4662,B-3,847.5,0.25,95,117.0
4663,A2,847.5,0.5,95,117.0
4664,D2,847.5,0.5,95,117.0
4665,B1,847.75,0.25,95,117.0
4666,E-3,848.0,0.25,95,117.0
4667,G#2,848.0,0.5,95,117.0
4668,C#2,848.0,0.5,95,117.0
4669,E3,848.25,0.25,95,117.0
4670,B3,848.5,0.25,95,117.0
4671,F#2,848.5,0.5,95,117.0
4672,B1,848.5,0.5,95,117.0
4673,B1,848.75,0.25,95,117.0
4674,E3,849.0,0.25,95,117.0
4675,A2,849.0,0.5,95,117.0
4676,D2,849.0,0.5,95,117.0
4677,F3,849.25,0.25,95,117.0
4678,C4,849.5,0.25,95,117.0
4679,G#2,849.5,0.5,95,117.0
4680,C#2,849.5,0.5,95,117.0
4681,B1,849.75,0.25,95,117.0
4682,F3,850.0,0.25,95,117.0
4683,F#2,850.0,0.5,95,117.0
4684,B1,850.0,0.5,95,117.0
4685,F#3,850.25,0.25,95,117.0
4686,C#4,850.5,0.25,95,117.0
4687,D2,850.5,0.25,95,117.0
4688,B1,850.75,0.25,95,117.0
4689,C#2,850.75,0.25,95,117.0
4690,F#3,851.0,0.25,95,117.0
4691,B1,851.0,0.25,95,117.0
4692,G3,851.25,0.25,95,117.0
4693,D2,851.25,0.25,95,117.0
4694,D4,851.5,0.25,95,117.0
4695,C#2,851.5,0.25,95,117.0
4696,B1,851.75,0.25,95,117.0
4697,A2,851.75,0.5,95,117.0
4698,D2,851.75,0.5,95,117.0
4699,D2,852.0,0.25,95,117.0
4700,C#2,852.25,0.25,95,117.0
4701,G#2,852.25,0.5,95,117.0
4702,C#2,852.25,0.5,95,117.0
4703,B1,852.5,0.25,95,117.0
4704,D2,852.75,0.25,95,117.0
4705,F#2,852.75,0.5,95,117.0
4706,B1,852.75,0.5,95,117.0
4707,C#2,853.0,0.25,95,117.0
4708,B1,853.25,0.25,95,117.0
4709,A2,853.25,0.5,95,117.0
4710,D2,853.25,0.5,95,117.0
4711,D2,853.5,0.25,95,117.0
4712,C#2,853.75,0.25,95,117.0
4713,G#2,853.75,0.5,95,117.0
4714,C#2,853.75,0.5,95,117.0
4715,B1,854.0,0.25,95,117.0
4716,D2,854.25,0.25,95,117.0
4717,F#2,854.25,0.5,95,117.0
4718,B1,854.25,0.5,95,117.0
4719,C#2,854.5,0.25,95,117.0
4720,B1,854.75,0.25,95,117.0
4721,A2,854.75,0.5,95,117.0
4722,D2,854.75,0.5,95,117.0
4723,D2,855.0,0.25,95,117.0
4724,C#2,855.25,0.25,95,117.0
4725,G#2,855.25,0.5,95,117.0
4726,C#2,855.25,0.5,95,117.0
4727,B1,855.5,0.25,95,117.0
4728,D2,855.75,0.25,95,117.0
4729,F#2,855.75,0.5,95,117.0
4730,B1,855.75,0.5,95,117.0
4731,C#2,856.0,0.25,95,117.0
4732,B1,856.25,0.25,95,117.0
4733,A2,856.25,0.5,95,117.0
4734,D2,856.25,0.5,95,117.0
4735,D3,856.5,167/1000,95,117.0
4736,C#3,856.667,167/1000,95,117.0
4737,G#2,856.75,0.5,95,117.0
4738,C#2,856.75,0.5,95,117.0
4739,B2,856.833,167/1000,95,117.0
4740,D3,857.0,167/1000,95,117.0
4741,C#3,857.167,167/1000,95,117.0
4742,F#2,857.25,0.5,95,117.0
4743,B1,857.25,0.5,95,117.0
4744,B2,857.333,167/1000,95,117.0
4745,D3,857.5,167/1000,95,117.0
4746,C#3,857.667,167/1000,95,117.0
4747,D2,857.75,0.25,95,117.0
4748,B2,857.833,167/1000,95,117.0
4749,C#2,858.0,0.25,95,117.0
4750,D3,858.0,167/1000,95,117.0
4751,C#3,858.167,167/1000,95,117.0
4752,B1,858.25,0.25,95,117.0
4753,B2,858.333,167/1000,95,117.0
4754,D2,858.5,0.25,95,117.0
4755,D3,858.5,167/1000,95,117.0
4756,C#3,858.667,167/1000,95,117.0
4757,C#2,858.75,0.25,95,117.0
4758,B2,858.833,167/1000,95,117.0
4759,B1,859.0,0.25,95,117.0
4760,D3,859.0,167/1000,95,117.0
4761,C#3,859.167,167/1000,95,117.0
4762,D2,859.25,0.25,95,117.0
4763,B2,859.333,167/1000,95,117.0
4764,C#2,859.5,0.25,95,117.0
4765,D3,859.5,167/1000,95,117.0
4766,C#3,859.667,167/1000,95,117.0
4767,B1,859.75,0.25,95,117.0
4768,B2,859.833,167/1000,95,117.0
4769,D2,860.0,0.25,95,117.0
4770,D3,860.0,167/1000,95,117.0
4771,C#3,860.167,167/1000,95,117.0
4772,C#2,860.25,0.25,95,117.0
4773,B2,860.333,167/1000,95,117.0
4774,B1,860.5,0.25,95,117.0
4775,D3,860.5,167/1000,95,117.0
4776,C#3,860.667,167/1000,95,117.0
4777,D2,860.75,0.25,95,117.0
4778,B2,860.833,167/1000,95,117.0
4779,C#2,861.0,0.25,95,117.0
4780,D3,861.0,167/1000,95,117.0
4781,C#3,861.167,167/1000,95,117.0
4782,B1,861.25,0.25,95,117.0
4783,B2,861.333,167/1000,95,117.0
4784,D2,861.5,0.25,95,117.0
4785,D3,861.5,167/1000,95,117.0
4786,C#3,861.667,167/1000,95,117.0
4787,C#2,861.75,0.25,95,117.0
4788,B2,861.833,167/1000,95,117.0
4789,B1,862.0,0.25,95,117.0
4790,D3,862.0,167/1000,95,117.0
4791,C#3,862.167,167/1000,95,117.0
4792,D2,862.25,0.25,95,117.0
4793,B2,862.333,167/1000,95,117.0
4794,C#2,862.5,0.25,95,117.0
4795,C#3,862.5,0.25,95,117.0
4796,G#2,862.5,0.25,95,117.0
4797,C#2,862.5,0.25,95,117.0
4798,B1,862.75,0.25,95,117.0
4799,C#3,862.75,0.25,95,117.0
4800,G#2,862.75,0.25,95,117.0
4801,C#2,862.75,0.25,95,117.0
4802,D2,863.0,0.25,95,117.0
4803,C#2,863.25,0.25,95,117.0
4804,C#3,863.25,0.25,95,117.0
4805,G#2,863.25,0.25,95,117.0
4806,C#2,863.25,0.25,95,117.0
4807,B1,863.5,0.25,95,117.0
4808,D2,863.75,167/1000,95,117.0
4809,C#2,863.917,167/1000,95,117.0
4810,C#3,864.0,0.25,95,117.0
4811,G#2,864.0,0.25,95,117.0
4812,C#2,864.0,0.25,95,117.0
4813,B1,864.083,167/1000,95,117.0
4814,D2,864.25,167/1000,95,117.0
4815,C#3,864.25,0.25,95,117.0
4816,G#2,864.25,0.25,95,117.0
4817,C#2,864.25,0.25,95,117.0
4818,C#2,864.417,167/1000,95,117.0
4819,B1,864.583,167/1000,95,117.0
4820,D2,864.75,167/1000,95,117.0
4821,C#3,864.75,0.25,95,117.0
4822,G#2,864.75,0.25,95,117.0
4823,C#2,864.75,0.25,95,117.0
4824,C#2,864.917,167/1000,95,117.0
4825,B1,865.083,167/1000,95,117.0
4826,D2,865.25,167/1000,95,117.0
4827,C#2,865.417,167/1000,95,117.0
4828,C#3,865.5,0.25,95,117.0
4829,G#2,865.5,0.25,95,117.0
4830,C#2,865.5,0.25,95,117.0
4831,B1,865.583,167/1000,95,117.0
4832,D2,865.75,167/1000,95,117.0
4833,C#3,865.75,0.25,95,117.0
4834,G#2,865.75,0.25,95,117.0
4835,C#2,865.75,0.25,95,117.0
4836,C#2,865.917,167/1000,95,117.0
4837,B1,866.083,167/1000,95,117.0
4838,D2,866.25,167/1000,95,117.0
4839,C#3,866.25,0.25,95,117.0
4840,G#2,866.25,0.25,95,117.0
4841,C#2,866.25,0.25,95,117.0
4842,C#2,866.417,167/1000,95,117.0
4843,B1,866.583,167/1000,95,117.0
4844,D2,866.75,167/1000,95,117.0
4845,C#2,866.917,167/1000,95,117.0
4846,C#3,867.0,0.25,95,117.0
4847,G#2,867.0,0.25,95,117.0
4848,C#2,867.0,0.25,95,117.0
4849,B1,867.083,167/1000,95,117.0
4850,D2,867.25,167/1000,95,117.0
4851,C#3,867.25,0.25,95,117.0
4852,G#2,867.25,0.25,95,117.0
4853,C#2,867.25,0.25,95,117.0
4854,C#2,867.417,167/1000,95,117.0
4855,B1,867.583,167/1000,95,117.0
4856,D2,867.75,167/1000,95,117.0
4857,C#3,867.75,0.25,95,117.0
4858,G#2,867.75,0.25,95,117.0
4859,C#2,867.75,0.25,95,117.0
4860,C#2,867.917,167/1000,95,117.0
4861,B1,868.083,167/1000,95,117.0
4862,D2,868.25,167/1000,95,117.0
4863,C#2,868.417,167/1000,95,117.0
4864,C#3,868.5,0.25,95,117.0
4865,G#2,868.5,0.25,95,117.0
4866,C#2,868.5,0.25,95,117.0
4867,B1,868.583,167/1000,95,117.0
4868,D2,868.75,167/1000,95,117.0
4869,C#3,868.75,0.25,95,117.0
4870,G#2,868.75,0.25,95,117.0
4871,C#2,868.75,0.25,95,117.0
4872,C#2,868.917,167/1000,95,117.0
4873,B1,869.083,167/1000,95,117.0
4874,D2,869.25,167/1000,95,117.0
4875,C#3,869.25,0.25,95,117.0
4876,G#2,869.25,0.25,95,117.0
4877,C#2,869.25,0.25,95,117.0
4878,C#2,869.417,167/1000,95,117.0
4879,B1,869.583,167/1000,95,117.0
4880,C#3,869.75,0.25,95,117.0
4881,G#2,869.75,0.25,95,117.0
4882,C#2,869.75,0.25,95,117.0
4883,C#3,870.0,0.25,95,117.0
4884,G#2,870.0,0.25,95,117.0
4885,C#2,870.0,0.25,95,117.0
4886,C#3,870.0,0.25,95,117.0
4887,G#2,870.0,0.25,95,117.0
4888,C#2,870.0,0.25,95,117.0
4889,C#3,870.25,0.25,95,117.0
4890,G#2,870.25,0.25,95,117.0
4891,C#2,870.25,0.25,95,117.0
4892,C#3,870.5,0.25,95,117.0
4893,G#2,870.5,0.25,95,117.0
4894,C#2,870.5,0.25,95,117.0
4895,C#3,870.75,0.25,95,117.0
4896,G#2,870.75,0.25,95,117.0
4897,C#2,870.75,0.25,95,117.0
4898,C#3,871.25,0.25,95,117.0
4899,G#2,871.25,0.25,95,117.0
4900,C#2,871.25,0.25,95,117.0
4901,C#3,871.5,0.25,95,117.0
4902,G#2,871.5,0.25,95,117.0
4903,C#2,871.5,0.25,95,117.0
4904,C#3,871.5,0.25,95,117.0
4905,G#2,871.5,0.25,95,117.0
4906,C#2,871.5,0.25,95,117.0
4907,C#3,871.75,0.25,95,117.0
4908,G#2,871.75,0.25,95,117.0
4909,C#2,871.75,0.25,95,117.0
4910,C#3,872.0,0.25,95,117.0
4911,G#2,872.0,0.25,95,117.0
4912,C#2,872.0,0.25,95,117.0
4913,C#3,872.25,0.25,95,117.0
4914,G#2,872.25,0.25,95,117.0
4915,C#2,872.25,0.25,95,117.0
4916,C#3,872.75,0.25,95,117.0
4917,G#2,872.75,0.25,95,117.0
4918,C#2,872.75,0.25,95,117.0
4919,C#3,873.0,0.25,95,117.0
4920,G#2,873.0,0.25,95,117.0
4921,C#2,873.0,0.25,95,117.0
4922,C#3,873.0,0.25,95,117.0
4923,G#2,873.0,0.25,95,117.0
4924,C#2,873.0,0.25,95,117.0
4925,C#3,873.25,0.25,95,117.0
4926,G#2,873.25,0.25,95,117.0
4927,C#2,873.25,0.25,95,117.0
4928,C#3,873.5,0.25,95,117.0
4929,G#2,873.5,0.25,95,117.0
4930,C#2,873.5,0.25,95,117.0
4931,C#3,873.75,0.25,95,117.0
4932,G#2,873.75,0.25,95,117.0
4933,C#2,873.75,0.25,95,117.0
4934,C#3,874.25,0.25,95,117.0
4935,G#2,874.25,0.25,95,117.0
4936,C#2,874.25,0.25,95,117.0
4937,A2,874.5,3/50,95,117.0
4938,C#3,874.5,0.25,95,117.0
4939,G#2,874.5,0.25,95,117.0
4940,C#2,874.5,0.25,95,117.0
4941,G4,874.5,3.0,95,117.0
4942,D4,874.5,3.0,95,117.0
4943,G3,874.5,3.0,95,117.0
4944,D3,874.5,3.0,95,117.0
4945,G2,874.5,3.0,95,117.0
4946,C#3,875.0,0.25,95,117.0
4947,G#2,875.0,0.25,95,117.0
4948,C#2,875.0,0.25,95,117.0
4949,C#3,875.75,0.25,95,117.0
4950,G#2,875.75,0.25,95,117.0
4951,C#2,875.75,0.25,95,117.0
4952,C#3,876.0,0.25,95,117.0
4953,G#2,876.0,0.25,95,117.0
4954,C#2,876.0,0.25,95,117.0
4955,C#3,876.5,0.25,95,117.0
4956,G#2,876.5,0.25,95,117.0
4957,C#2,876.5,0.25,95,117.0
4958,C#3,877.25,0.25,95,117.0
4959,G#2,877.25,0.25,95,117.0
4960,C#2,877.25,0.25,95,117.0
4961,C#3,877.5,0.25,95,117.0
4962,G#2,877.5,0.25,95,117.0
4963,C#2,877.5,0.25,95,117.0
4964,C#3,878.0,0.25,95,117.0
4965,G#2,878.0,0.25,95,117.0
4966,C#2,878.0,0.25,95,117.0
4967,C#3,878.75,0.25,95,117.0
4968,G#2,878.75,0.25,95,117.0
4969,C#2,878.75,0.25,95,117.0
4970,C#3,879.0,0.25,95,117.0
4971,G#2,879.0,0.25,95,117.0
4972,C#2,879.0,0.25,95,117.0
4973,C#3,879.5,0.25,95,117.0
4974,G#2,879.5,0.25,95,117.0
4975,C#2,879.5,0.25,95,117.0
4976,C#3,880.25,0.25,95,117.0
4977,G#2,880.25,0.25,95,117.0
4978,C#2,880.25,0.25,95,117.0
4979,C#3,880.5,0.25,95,117.0
4980,G#2,880.5,0.25,95,117.0
4981,C#2,880.5,0.25,95,117.0
4982,G4,880.5,3.0,95,117.0
4983,D4,880.5,3.0,95,117.0
4984,G3,880.5,3.0,95,117.0
4985,D3,880.5,3.0,95,117.0
4986,G2,880.5,3.0,95,117.0
4987,C#3,881.0,0.25,95,117.0
4988,G#2,881.0,0.25,95,117.0
4989,C#2,881.0,0.25,95,117.0
4990,A2,881.75,3/50,95,117.0
4991,G4,881.75,3.0,95,117.0
4992,D4,881.75,3.0,95,117.0
4993,G3,881.75,3.0,95,117.0
4994,D3,881.75,3.0,95,117.0
4995,G2,881.75,3.0,95,117.0
4996,C#3,883.5,0.25,95,117.0
4997,G#2,883.5,0.25,95,117.0
4998,C#2,883.5,0.25,95,117.0
4999,C#3,883.75,0.25,95,117.0
5000,G#2,883.75,0.25,95,117.0
5001,C#2,883.75,0.25,95,117.0
5002,C#3,884.25,0.75,95,117.0
5003,G#2,884.25,0.75,95,117.0
5004,C#2,884.25,0.75,95,117.0
5005,C#3,885.0,1.0,95,117.0
5006,G#2,885.0,1.0,95,117.0
5007,C#2,885.0,1.0,95,117.0
5008,G4,887.75,3.0,95,117.0
5009,D4,887.75,3.0,95,117.0
5010,G3,887.75,3.0,95,117.0
5011,D3,887.75,3.0,95,117.0
5012,G2,887.75,3.0,95,117.0
5013,C#3,890.75,0.25,95,117.0
5014,G#2,890.75,0.25,95,117.0
5015,C#2,890.75,0.25,95,117.0
5016,C#3,891.0,0.25,95,117.0
5017,G#2,891.0,0.25,95,117.0
5018,C#2,891.0,0.25,95,117.0
5019,C#3,891.5,0.75,95,117.0
5020,G#2,891.5,0.75,95,117.0
5021,C#2,891.5,0.75,95,117.0
5022,C#3,892.25,1.0,95,117.0
5023,G#2,892.25,1.0,95,117.0
5024,C#2,892.25,1.0,95,117.0
