,note_name,start_time,duration,velocity,tempo
0,E4,2.5,0.5,68,134.0
1,B3,2.5,0.5,68,134.0
2,G#3,2.5,0.5,68,134.0
3,E4,3.0,0.5,68,134.0
4,B3,3.0,0.5,68,134.0
5,A3,3.0,0.5,68,134.0
6,E4,3.5,0.5,68,134.0
7,B3,3.5,0.5,68,134.0
8,B-3,3.5,0.5,68,134.0
9,B-3,4.0,0.25,79,134.0
10,B2,4.0,0.5,95,134.0
11,E2,4.0,1.0,111,134.0
12,B1,4.0,0.25,63,134.0
13,B3,4.25,0.25,95,134.0
14,A4,4.25,0.25,39,134.0
15,B1,4.25,0.25,39,134.0
16,B3,4.5,0.25,79,134.0
17,E3,4.5,19/40,83,134.0
18,G#3,4.5,19/40,83,134.0
19,B3,4.5,19/40,83,134.0
20,E4,4.5,19/40,83,134.0
21,E2,4.5,0.25,71,134.0
22,G#2,4.5,0.25,71,134.0
23,E4,4.75,0.25,79,134.0
24,A4,4.75,0.25,63,134.0
25,B3,5.0,0.25,95,134.0
26,E2,5.0,0.25,95,134.0
27,B1,5.0,1.0,111,134.0
28,B1,5.0,0.25,63,134.0
29,B3,5.25,0.25,79,134.0
30,B3,5.25,121/500,79,134.0
31,G#3,5.25,121/500,79,134.0
32,E3,5.25,121/500,79,134.0
33,A4,5.25,0.25,39,134.0
34,B1,5.25,0.25,39,134.0
35,E4,5.5,0.25,79,134.0
36,G#3,5.5,121/500,90,134.0
37,B3,5.5,121/500,90,134.0
38,E4,5.5,121/500,90,134.0
39,E2,5.5,0.25,71,134.0
40,G#2,5.5,0.25,71,134.0
41,B3,5.75,0.25,95,134.0
42,A4,5.75,0.25,63,134.0
43,G#3,5.75,123/500,95,134.0
44,E3,5.75,123/500,95,134.0
45,B-3,6.0,0.25,79,134.0
46,B2,6.0,0.5,95,134.0
47,E2,6.0,1.0,111,134.0
48,B1,6.0,0.25,63,134.0
49,B3,6.25,0.25,95,134.0
50,A4,6.25,0.25,39,134.0
51,B1,6.25,0.25,39,134.0
52,B3,6.5,0.25,79,134.0
53,E3,6.5,19/40,83,134.0
54,G#3,6.5,19/40,83,134.0
55,B3,6.5,19/40,83,134.0
56,E4,6.5,19/40,83,134.0
57,E2,6.5,0.25,71,134.0
58,G#2,6.5,0.25,71,134.0
59,E4,6.75,0.25,79,134.0
60,A4,6.75,0.25,63,134.0
61,B3,7.0,0.25,95,134.0
62,E2,7.0,0.25,95,134.0
63,B1,7.0,0.5,111,134.0
64,B1,7.0,0.25,63,134.0
65,B3,7.25,0.25,79,134.0
66,B3,7.25,121/500,79,134.0
67,G#3,7.25,121/500,79,134.0
68,E3,7.25,121/500,79,134.0
69,A4,7.25,0.25,39,134.0
70,B1,7.25,0.25,39,134.0
71,E4,7.5,0.25,79,134.0
72,C#2,7.5,0.5,111,134.0
73,G#3,7.5,121/500,90,134.0
74,B3,7.5,121/500,90,134.0
75,E4,7.5,121/500,90,134.0
76,E2,7.5,0.25,71,134.0
77,G#2,7.5,0.25,71,134.0
78,B3,7.75,0.25,95,134.0
79,A4,7.75,0.25,63,134.0
80,G#3,7.75,123/500,95,134.0
81,E3,7.75,123/500,95,134.0
82,B-3,8.0,0.25,79,134.0
83,B2,8.0,0.5,95,134.0
84,E2,8.0,1.0,111,134.0
85,B1,8.0,0.25,63,134.0
86,B3,8.25,0.25,95,134.0
87,A4,8.25,0.25,39,134.0
88,B1,8.25,0.25,39,134.0
89,B3,8.5,0.25,79,134.0
90,E3,8.5,19/40,83,134.0
91,G#3,8.5,19/40,83,134.0
92,B3,8.5,19/40,83,134.0
93,E4,8.5,19/40,83,134.0
94,E2,8.5,0.25,71,134.0
95,G#2,8.5,0.25,71,134.0
96,E4,8.75,0.25,79,134.0
97,A4,8.75,0.25,63,134.0
98,B3,9.0,0.25,79,134.0
99,E2,9.0,0.25,95,134.0
100,B1,9.0,1.0,111,134.0
101,B1,9.0,0.25,63,134.0
102,B3,9.25,0.25,95,134.0
103,B3,9.25,121/500,79,134.0
104,G#3,9.25,121/500,79,134.0
105,E3,9.25,121/500,79,134.0
106,A4,9.25,0.25,39,134.0
107,B1,9.25,0.25,39,134.0
108,G3,9.5,0.25,95,134.0
109,G#3,9.5,121/500,90,134.0
110,B3,9.5,121/500,90,134.0
111,E4,9.5,121/500,90,134.0
112,E2,9.5,0.25,71,134.0
113,G#2,9.5,0.25,71,134.0
114,G#3,9.75,0.25,70,134.0
115,A4,9.75,0.25,63,134.0
116,G#3,9.75,123/500,95,134.0
117,E3,9.75,123/500,95,134.0
118,E3,10.0,0.5,95,134.0
119,B2,10.0,0.5,95,134.0
120,E2,10.0,1.0,111,134.0
121,B1,10.0,0.25,63,134.0
122,A4,10.25,0.25,39,134.0
123,B1,10.25,0.25,39,134.0
124,E4,10.5,0.5,68,134.0
125,B3,10.5,0.5,68,134.0
126,G#3,10.5,0.5,68,134.0
127,E3,10.5,19/40,83,134.0
128,G#3,10.5,19/40,83,134.0
129,B3,10.5,19/40,83,134.0
130,E4,10.5,19/40,83,134.0
131,E2,10.5,0.25,71,134.0
132,G#2,10.5,0.25,71,134.0
133,A4,10.75,0.25,63,134.0
134,E3,11.0,0.5,95,134.0
135,E2,11.0,0.25,95,134.0
136,B1,11.0,0.5,111,134.0
137,B1,11.0,0.25,63,134.0
138,B3,11.25,121/500,79,134.0
139,G#3,11.25,121/500,79,134.0
140,E3,11.25,121/500,79,134.0
141,A4,11.25,0.25,39,134.0
142,B1,11.25,0.25,39,134.0
143,E4,11.5,0.5,79,134.0
144,C#2,11.5,0.5,111,134.0
145,B3,11.5,0.5,55,134.0
146,G#3,11.5,0.5,55,134.0
147,E3,11.5,119/500,91,134.0
148,G#3,11.5,119/500,91,134.0
149,B3,11.5,119/500,91,134.0
150,E4,11.5,119/500,91,134.0
151,E2,11.5,0.25,71,134.0
152,G#2,11.5,0.25,71,134.0
153,A4,11.75,0.25,63,134.0
154,G#3,11.75,123/500,95,134.0
155,E3,11.75,123/500,95,134.0
156,B3,12.0,0.25,95,134.0
157,E4,12.0,0.25,79,134.0
158,B2,12.0,0.5,95,134.0
159,E2,12.0,1.0,111,134.0
160,B1,12.0,0.25,63,134.0
161,B3,12.25,0.25,79,134.0
162,A4,12.25,0.25,39,134.0
163,B1,12.25,0.25,39,134.0
164,C#4,12.5,0.25,95,134.0
165,E3,12.5,19/40,83,134.0
166,G#3,12.5,19/40,83,134.0
167,B3,12.5,19/40,83,134.0
168,E4,12.5,19/40,83,134.0
169,E2,12.5,0.25,71,134.0
170,G#2,12.5,0.25,71,134.0
171,E4,12.75,0.25,79,134.0
172,A4,12.75,0.25,63,134.0
173,D4,13.0,0.25,95,134.0
174,E2,13.0,0.25,95,134.0
175,B1,13.0,1.0,111,134.0
176,B1,13.0,0.25,63,134.0
177,C#4,13.25,0.25,95,134.0
178,B3,13.25,121/500,79,134.0
179,G#3,13.25,121/500,79,134.0
180,E3,13.25,121/500,79,134.0
181,A4,13.25,0.25,39,134.0
182,B1,13.25,0.25,39,134.0
183,E4,13.5,0.25,79,134.0
184,G#3,13.5,121/500,90,134.0
185,B3,13.5,121/500,90,134.0
186,E4,13.5,121/500,90,134.0
187,E2,13.5,0.25,71,134.0
188,G#2,13.5,0.25,71,134.0
189,B3,13.75,0.25,95,134.0
190,A4,13.75,0.25,63,134.0
191,G#3,13.75,123/500,95,134.0
192,E3,13.75,123/500,95,134.0
193,B3,14.0,0.25,63,134.0
194,B2,14.0,0.5,95,134.0
195,E2,14.0,1.0,111,134.0
196,B1,14.0,0.25,63,134.0
197,B3,14.25,0.25,95,134.0
198,A4,14.25,0.25,39,134.0
199,B1,14.25,0.25,39,134.0
200,B-3,14.5,0.25,95,134.0
201,E-3,14.5,19/40,83,134.0
202,A3,14.5,19/40,83,134.0
203,B3,14.5,19/40,83,134.0
204,F#4,14.5,19/40,83,134.0
205,E2,14.5,0.25,71,134.0
206,G#2,14.5,0.25,71,134.0
207,A4,14.75,0.25,63,134.0
208,E4,14.75,0.25,79,134.0
209,A3,14.75,0.25,79,134.0
210,B3,15.0,0.25,95,134.0
211,F#2,15.0,0.25,95,134.0
212,B1,15.0,0.5,111,134.0
213,B1,15.0,0.25,63,134.0
214,G3,15.25,0.25,95,134.0
215,B3,15.25,121/500,79,134.0
216,A3,15.25,121/500,79,134.0
217,E-3,15.25,121/500,79,134.0
218,A4,15.25,0.25,39,134.0
219,B1,15.25,0.25,39,134.0
220,C#2,15.5,0.5,111,134.0
221,E4,15.5,0.25,66,134.0
222,G#3,15.5,0.25,66,134.0
223,A3,15.5,121/500,90,134.0
224,B3,15.5,121/500,90,134.0
225,F#4,15.5,121/500,90,134.0
226,E2,15.5,0.25,71,134.0
227,G#2,15.5,0.25,71,134.0
228,B3,15.75,0.25,95,134.0
229,A4,15.75,0.25,63,134.0
230,A3,15.75,123/500,95,134.0
231,E-3,15.75,123/500,95,134.0
232,E3,16.0,0.5,95,134.0
233,B2,16.0,0.5,95,134.0
234,E2,16.0,1.0,111,134.0
235,B1,16.0,0.25,63,134.0
236,A4,16.25,0.25,39,134.0
237,B1,16.25,0.25,39,134.0
238,E4,16.5,0.5,95,134.0
239,B3,16.5,0.5,95,134.0
240,D3,16.5,0.5,95,134.0
241,E3,16.5,19/40,83,134.0
242,G#3,16.5,19/40,83,134.0
243,B3,16.5,19/40,83,134.0
244,E4,16.5,19/40,83,134.0
245,E2,16.5,0.25,71,134.0
246,G#2,16.5,0.25,71,134.0
247,A4,16.75,0.25,63,134.0
248,B2,17.0,0.25,95,134.0
249,E2,17.0,0.25,95,134.0
250,B1,17.0,1.0,111,134.0
251,B1,17.0,0.25,63,134.0
252,A2,17.25,0.25,70,134.0
253,B3,17.25,121/500,79,134.0
254,G#3,17.25,121/500,79,134.0
255,E3,17.25,121/500,79,134.0
256,A4,17.25,0.25,39,134.0
257,B1,17.25,0.25,39,134.0
258,G2,17.5,0.5,95,134.0
259,G#3,17.5,121/500,90,134.0
260,B3,17.5,121/500,90,134.0
261,E4,17.5,121/500,90,134.0
262,E2,17.5,0.5,71,134.0
263,G#2,17.5,0.5,71,134.0
264,G#3,17.75,123/500,95,134.0
265,E3,17.75,123/500,95,134.0
266,E2,18.0,1.0,95,134.0
267,E2,18.0,1.0,95,134.0
268,E1,18.0,2.0,111,134.0
269,E2,18.0,2.0,71,134.0
270,G#2,18.0,2.0,71,134.0
271,G#3,19.0,0.969,95,134.0
272,B3,19.0,0.969,95,134.0
273,G#3,19.0,0.984,95,134.0
274,B3,19.0,0.984,95,134.0
275,E4,19.062,0.938,95,134.0
276,B4,20.0,0.25,95,134.0
277,B2,20.0,0.5,95,134.0
278,E2,20.0,1.0,111,134.0
279,B1,20.0,0.25,63,134.0
280,A4,20.25,0.25,70,134.0
281,A4,20.25,0.25,39,134.0
282,B1,20.25,0.25,39,134.0
283,G4,20.5,0.25,95,134.0
284,E3,20.5,19/40,83,134.0
285,G#3,20.5,19/40,83,134.0
286,B3,20.5,19/40,83,134.0
287,E4,20.5,19/40,83,134.0
288,E2,20.5,0.25,71,134.0
289,G#2,20.5,0.25,71,134.0
290,E4,20.75,0.25,79,134.0
291,A4,20.75,0.25,63,134.0
292,G#4,21.0,0.25,95,134.0
293,E2,21.0,0.25,95,134.0
294,B1,21.0,1.0,111,134.0
295,B1,21.0,0.25,63,134.0
296,E4,21.25,0.25,79,134.0
297,B3,21.25,121/500,79,134.0
298,G#3,21.25,121/500,79,134.0
299,E3,21.25,121/500,79,134.0
300,A4,21.25,0.25,39,134.0
301,B1,21.25,0.25,39,134.0
302,F#4,21.5,0.25,95,134.0
303,G#3,21.5,121/500,90,134.0
304,B3,21.5,121/500,90,134.0
305,E4,21.5,121/500,90,134.0
306,E2,21.5,0.25,71,134.0
307,G#2,21.5,0.25,71,134.0
308,E-4,21.75,0.25,95,134.0
309,A4,21.75,0.25,63,134.0
310,G#3,21.75,123/500,95,134.0
311,E3,21.75,123/500,95,134.0
312,E4,22.0,0.25,79,134.0
313,B2,22.0,0.5,95,134.0
314,E2,22.0,1.0,111,134.0
315,B1,22.0,0.25,63,134.0
316,B3,22.25,0.25,79,134.0
317,A4,22.25,0.25,39,134.0
318,B1,22.25,0.25,39,134.0
319,D4,22.5,0.25,95,134.0
320,E3,22.5,19/40,83,134.0
321,G#3,22.5,19/40,83,134.0
322,B3,22.5,19/40,83,134.0
323,E4,22.5,19/40,83,134.0
324,E2,22.5,0.25,71,134.0
325,G#2,22.5,0.25,71,134.0
326,B3,22.75,0.25,79,134.0
327,A4,22.75,0.25,63,134.0
328,C#4,23.0,0.25,95,134.0
329,E2,23.0,0.25,95,134.0
330,F#2,23.0,0.5,111,134.0
331,B1,23.0,0.25,63,134.0
332,B-3,23.25,0.25,95,134.0
333,B3,23.25,121/500,79,134.0
334,G#3,23.25,121/500,79,134.0
335,E3,23.25,121/500,79,134.0
336,A4,23.25,0.25,39,134.0
337,B1,23.25,0.25,39,134.0
338,B3,23.5,0.25,79,134.0
339,G#2,23.5,0.5,111,134.0
340,E3,23.5,119/500,91,134.0
341,G#3,23.5,119/500,91,134.0
342,B3,23.5,119/500,91,134.0
343,E4,23.5,119/500,91,134.0
344,E2,23.5,0.25,71,134.0
345,G#2,23.5,0.25,71,134.0
346,G3,23.75,0.25,79,134.0
347,A4,23.75,0.25,63,134.0
348,G#3,23.75,123/500,95,134.0
349,E3,23.75,123/500,95,134.0
350,A3,24.0,0.25,95,134.0
351,A2,24.0,0.5,95,134.0
352,A2,24.0,1.0,111,134.0
353,B1,24.0,0.25,63,134.0
354,B3,24.25,0.25,79,134.0
355,A4,24.25,0.25,39,134.0
356,B1,24.25,0.25,39,134.0
357,C#4,24.5,0.25,95,134.0
358,G3,24.5,483/1000,79,134.0
359,C#4,24.5,483/1000,79,134.0
360,E4,24.5,483/1000,79,134.0
361,E2,24.5,0.25,71,134.0
362,G#2,24.5,0.25,71,134.0
363,D4,24.75,0.25,95,134.0
364,A4,24.75,0.25,63,134.0
365,E4,25.0,0.25,79,134.0
366,E3,25.0,0.25,95,134.0
367,E2,25.0,1.0,111,134.0
368,B1,25.0,0.25,63,134.0
369,F#4,25.25,0.25,95,134.0
370,G3,25.25,0.25,79,134.0
371,A4,25.25,0.25,39,134.0
372,B1,25.25,0.25,39,134.0
373,G4,25.5,0.25,95,134.0
374,C#4,25.5,123/500,87,134.0
375,E4,25.5,123/500,87,134.0
376,E2,25.5,0.25,71,134.0
377,G#2,25.5,0.25,71,134.0
378,E4,25.75,0.25,79,134.0
379,A4,25.75,0.25,63,134.0
380,C#4,25.75,123/500,95,134.0
381,G3,25.75,123/500,95,134.0
382,F#4,26.0,0.25,95,134.0
383,A2,26.0,0.5,95,134.0
384,A2,26.0,1.0,111,134.0
385,B1,26.0,0.25,63,134.0
386,E-4,26.25,0.25,95,134.0
387,A4,26.25,0.25,39,134.0
388,B1,26.25,0.25,39,134.0
389,E4,26.5,0.25,79,134.0
390,G3,26.5,483/1000,79,134.0
391,C#4,26.5,483/1000,79,134.0
392,E4,26.5,483/1000,79,134.0
393,E2,26.5,0.25,71,134.0
394,G#2,26.5,0.25,71,134.0
395,B3,26.75,0.25,79,134.0
396,A4,26.75,0.25,63,134.0
397,C4,27.0,0.25,95,134.0
398,E3,27.0,0.25,95,134.0
399,G#2,27.0,0.5,111,134.0
400,B1,27.0,0.25,63,134.0
401,C#4,27.25,0.25,95,134.0
402,G3,27.25,0.25,79,134.0
403,A4,27.25,0.25,39,134.0
404,B1,27.25,0.25,39,134.0
405,E4,27.5,0.5,79,134.0
406,F#2,27.5,0.5,111,134.0
407,C#4,27.5,123/500,87,134.0
408,E4,27.5,123/500,87,134.0
409,E2,27.5,0.25,71,134.0
410,G#2,27.5,0.25,71,134.0
411,A4,27.75,0.25,63,134.0
412,C#4,27.75,123/500,95,134.0
413,G3,27.75,123/500,95,134.0
414,B4,28.0,0.25,95,134.0
415,B2,28.0,0.5,95,134.0
416,E2,28.0,1.0,111,134.0
417,B1,28.0,0.25,63,134.0
418,A4,28.25,0.25,70,134.0
419,A4,28.25,0.25,39,134.0
420,B1,28.25,0.25,39,134.0
421,G4,28.5,0.25,95,134.0
422,E3,28.5,19/40,83,134.0
423,G#3,28.5,19/40,83,134.0
424,B3,28.5,19/40,83,134.0
425,E4,28.5,19/40,83,134.0
426,E2,28.5,0.25,71,134.0
427,G#2,28.5,0.25,71,134.0
428,E4,28.75,0.25,79,134.0
429,A4,28.75,0.25,63,134.0
430,G#4,29.0,0.25,95,134.0
431,E2,29.0,0.25,95,134.0
432,B1,29.0,1.0,111,134.0
433,B1,29.0,0.25,63,134.0
434,E4,29.25,0.25,79,134.0
435,B3,29.25,121/500,79,134.0
436,G#3,29.25,121/500,79,134.0
437,E3,29.25,121/500,79,134.0
438,A4,29.25,0.25,39,134.0
439,B1,29.25,0.25,39,134.0
440,F#4,29.5,0.25,95,134.0
441,G#3,29.5,121/500,90,134.0
442,B3,29.5,121/500,90,134.0
443,E4,29.5,121/500,90,134.0
444,E2,29.5,0.25,71,134.0
445,G#2,29.5,0.25,71,134.0
446,E-4,29.75,0.25,95,134.0
447,A4,29.75,0.25,63,134.0
448,G#3,29.75,123/500,95,134.0
449,E3,29.75,123/500,95,134.0
450,E4,30.0,0.25,79,134.0
451,B2,30.0,0.5,95,134.0
452,E2,30.0,1.0,111,134.0
453,B1,30.0,0.25,63,134.0
454,B3,30.25,0.25,79,134.0
455,A4,30.25,0.25,39,134.0
456,B1,30.25,0.25,39,134.0
457,D4,30.5,0.25,95,134.0
458,E3,30.5,19/40,83,134.0
459,G#3,30.5,19/40,83,134.0
460,B3,30.5,19/40,83,134.0
461,E4,30.5,19/40,83,134.0
462,E2,30.5,0.25,71,134.0
463,G#2,30.5,0.25,71,134.0
464,B3,30.75,0.25,79,134.0
465,A4,30.75,0.25,63,134.0
466,C#4,31.0,0.25,95,134.0
467,E2,31.0,0.25,95,134.0
468,B1,31.0,0.5,111,134.0
469,B1,31.0,0.25,63,134.0
470,B-3,31.25,0.25,95,134.0
471,B3,31.25,121/500,79,134.0
472,G#3,31.25,121/500,79,134.0
473,E3,31.25,121/500,79,134.0
474,A4,31.25,0.25,39,134.0
475,B1,31.25,0.25,39,134.0
476,B3,31.5,0.25,79,134.0
477,E2,31.5,0.5,111,134.0
478,E3,31.5,119/500,91,134.0
479,G#3,31.5,119/500,91,134.0
480,B3,31.5,119/500,91,134.0
481,E4,31.5,119/500,91,134.0
482,E2,31.5,0.25,71,134.0
483,G#2,31.5,0.25,71,134.0
484,G3,31.75,0.25,79,134.0
485,A4,31.75,0.25,63,134.0
486,G#3,31.75,123/500,95,134.0
487,E3,31.75,123/500,95,134.0
488,B-3,32.0,0.25,95,134.0
489,C#3,32.0,0.5,95,134.0
490,F#2,32.0,1.0,111,134.0
491,B1,32.0,0.25,63,134.0
492,F#4,32.25,0.25,95,134.0
493,A4,32.25,0.25,39,134.0
494,B1,32.25,0.25,39,134.0
495,C#4,32.5,0.25,95,134.0
496,B-3,32.5,483/1000,79,134.0
497,C#4,32.5,483/1000,79,134.0
498,F#4,32.5,483/1000,79,134.0
499,E2,32.5,0.25,71,134.0
500,G#2,32.5,0.25,71,134.0
501,E4,32.75,0.25,79,134.0
502,A4,32.75,0.25,63,134.0
503,F#4,33.0,0.25,95,134.0
504,F#3,33.0,0.25,95,134.0
505,C#2,33.0,1.0,111,134.0
506,B1,33.0,0.25,63,134.0
507,B-3,33.25,0.25,95,134.0
508,C#4,33.25,123/500,79,134.0
509,B-3,33.25,123/500,79,134.0
510,A4,33.25,0.25,39,134.0
511,B1,33.25,0.25,39,134.0
512,E4,33.5,0.25,79,134.0
513,C#4,33.5,123/500,87,134.0
514,F#4,33.5,123/500,87,134.0
515,E2,33.5,0.25,71,134.0
516,G#2,33.5,0.25,71,134.0
517,B3,33.75,0.25,79,134.0
518,A4,33.75,0.25,63,134.0
519,C#4,33.75,123/500,95,134.0
520,B-3,33.75,123/500,95,134.0
521,C#4,34.0,0.25,95,134.0
522,B2,34.0,0.5,95,134.0
523,B1,34.0,0.5,111,134.0
524,B1,34.0,0.25,63,134.0
525,B3,34.25,0.25,79,134.0
526,A4,34.25,0.25,39,134.0
527,B1,34.25,0.25,39,134.0
528,D4,34.5,0.25,95,134.0
529,B1,34.5,0.5,111,134.0
530,A3,34.5,483/1000,79,134.0
531,E-4,34.5,483/1000,79,134.0
532,F#4,34.5,483/1000,79,134.0
533,E2,34.5,0.25,71,134.0
534,G#2,34.5,0.25,71,134.0
535,A4,34.75,0.25,95,134.0
536,A4,34.75,0.25,63,134.0
537,B3,35.0,0.25,79,134.0
538,F#3,35.0,0.25,95,134.0
539,C#2,35.0,0.5,111,134.0
540,B1,35.0,0.25,63,134.0
541,E-4,35.25,0.25,95,134.0
542,E-4,35.25,123/500,79,134.0
543,A3,35.25,123/500,79,134.0
544,A4,35.25,0.25,39,134.0
545,B1,35.25,0.25,39,134.0
546,E4,35.5,0.25,79,134.0
547,E-2,35.5,0.5,111,134.0
548,E-4,35.5,123/500,87,134.0
549,F#4,35.5,123/500,87,134.0
550,E2,35.5,0.25,71,134.0
551,G#2,35.5,0.25,71,134.0
552,B3,35.75,0.25,79,134.0
553,A4,35.75,0.25,63,134.0
554,E-4,35.75,123/500,95,134.0
555,A3,35.75,123/500,95,134.0
556,B4,36.0,0.25,95,134.0
557,B2,36.0,0.5,95,134.0
558,E2,36.0,1.0,111,134.0
559,B1,36.0,0.25,63,134.0
560,A4,36.25,0.25,70,134.0
561,A4,36.25,0.25,39,134.0
562,B1,36.25,0.25,39,134.0
563,G4,36.5,0.25,95,134.0
564,E3,36.5,19/40,83,134.0
565,G#3,36.5,19/40,83,134.0
566,B3,36.5,19/40,83,134.0
567,E4,36.5,19/40,83,134.0
568,E2,36.5,0.25,71,134.0
569,G#2,36.5,0.25,71,134.0
570,E4,36.75,0.25,79,134.0
571,A4,36.75,0.25,63,134.0
572,G#4,37.0,0.25,95,134.0
573,E2,37.0,0.25,95,134.0
574,B1,37.0,1.0,111,134.0
575,B1,37.0,0.25,63,134.0
576,E4,37.25,0.25,79,134.0
577,B3,37.25,121/500,79,134.0
578,G#3,37.25,121/500,79,134.0
579,E3,37.25,121/500,79,134.0
580,A4,37.25,0.25,39,134.0
581,B1,37.25,0.25,39,134.0
582,F#4,37.5,0.25,95,134.0
583,G#3,37.5,121/500,90,134.0
584,B3,37.5,121/500,90,134.0
585,E4,37.5,121/500,90,134.0
586,E2,37.5,0.25,71,134.0
587,G#2,37.5,0.25,71,134.0
588,E-4,37.75,0.25,95,134.0
589,A4,37.75,0.25,63,134.0
590,G#3,37.75,123/500,95,134.0
591,E3,37.75,123/500,95,134.0
592,E4,38.0,0.25,79,134.0
593,B2,38.0,0.5,95,134.0
594,E2,38.0,1.0,111,134.0
595,B1,38.0,0.25,63,134.0
596,B3,38.25,0.25,79,134.0
597,A4,38.25,0.25,39,134.0
598,B1,38.25,0.25,39,134.0
599,D4,38.5,0.25,95,134.0
600,E3,38.5,19/40,83,134.0
601,G#3,38.5,19/40,83,134.0
602,B3,38.5,19/40,83,134.0
603,E4,38.5,19/40,83,134.0
604,E2,38.5,0.25,71,134.0
605,G#2,38.5,0.25,71,134.0
606,B3,38.75,0.25,79,134.0
607,A4,38.75,0.25,63,134.0
608,C#4,39.0,0.25,95,134.0
609,E2,39.0,0.25,95,134.0
610,F#2,39.0,0.5,111,134.0
611,B1,39.0,0.25,63,134.0
612,B-3,39.25,0.25,95,134.0
613,B3,39.25,121/500,79,134.0
614,G#3,39.25,121/500,79,134.0
615,E3,39.25,121/500,79,134.0
616,A4,39.25,0.25,39,134.0
617,B1,39.25,0.25,39,134.0
618,B3,39.5,0.25,79,134.0
619,G#2,39.5,0.5,111,134.0
620,E3,39.5,119/500,91,134.0
621,G#3,39.5,119/500,91,134.0
622,B3,39.5,119/500,91,134.0
623,E4,39.5,119/500,91,134.0
624,E2,39.5,0.25,71,134.0
625,G#2,39.5,0.25,71,134.0
626,G3,39.75,0.25,95,134.0
627,A4,39.75,0.25,63,134.0
628,G#3,39.75,123/500,95,134.0
629,E3,39.75,123/500,95,134.0
630,A3,40.0,0.25,95,134.0
631,A2,40.0,0.5,95,134.0
632,A2,40.0,1.0,111,134.0
633,B1,40.0,0.25,63,134.0
634,B3,40.25,0.25,79,134.0
635,A4,40.25,0.25,39,134.0
636,B1,40.25,0.25,39,134.0
637,C#4,40.5,0.25,95,134.0
638,G3,40.5,483/1000,79,134.0
639,C#4,40.5,483/1000,79,134.0
640,E4,40.5,483/1000,79,134.0
641,E2,40.5,0.25,71,134.0
642,G#2,40.5,0.25,71,134.0
643,D4,40.75,0.25,95,134.0
644,A4,40.75,0.25,63,134.0
645,E4,41.0,0.25,79,134.0
646,E3,41.0,0.25,95,134.0
647,E2,41.0,1.0,111,134.0
648,B1,41.0,0.25,63,134.0
649,F#4,41.25,0.25,95,134.0
650,G3,41.25,0.25,79,134.0
651,A4,41.25,0.25,39,134.0
652,B1,41.25,0.25,39,134.0
653,G4,41.5,0.25,95,134.0
654,C#4,41.5,123/500,87,134.0
655,E4,41.5,123/500,87,134.0
656,E2,41.5,0.25,71,134.0
657,G#2,41.5,0.25,71,134.0
658,E4,41.75,0.25,79,134.0
659,A4,41.75,0.25,63,134.0
660,C#4,41.75,123/500,95,134.0
661,G3,41.75,123/500,95,134.0
662,F#4,42.0,0.25,95,134.0
663,A2,42.0,0.5,95,134.0
664,A2,42.0,1.0,111,134.0
665,B1,42.0,0.25,63,134.0
666,E-4,42.25,0.25,95,134.0
667,A4,42.25,0.25,39,134.0
668,B1,42.25,0.25,39,134.0
669,E4,42.5,0.25,79,134.0
670,G3,42.5,483/1000,79,134.0
671,C#4,42.5,483/1000,79,134.0
672,E4,42.5,483/1000,79,134.0
673,E2,42.5,0.25,71,134.0
674,G#2,42.5,0.25,71,134.0
675,B3,42.75,0.25,79,134.0
676,A4,42.75,0.25,63,134.0
677,C4,43.0,0.25,95,134.0
678,E3,43.0,0.25,95,134.0
679,G#2,43.0,0.5,111,134.0
680,B1,43.0,0.25,63,134.0
681,C#4,43.25,0.25,95,134.0
682,G3,43.25,0.25,79,134.0
683,A4,43.25,0.25,39,134.0
684,B1,43.25,0.25,39,134.0
685,E4,43.5,0.5,79,134.0
686,F#2,43.5,0.5,111,134.0
687,C#4,43.5,123/500,87,134.0
688,E4,43.5,123/500,87,134.0
689,E2,43.5,0.5,71,134.0
690,G#2,43.5,0.5,71,134.0
691,C#4,43.75,123/500,95,134.0
692,G3,43.75,123/500,95,134.0
693,E4,44.0,0.25,95,134.0
694,E2,44.0,1.0,111,134.0
695,E2,44.0,0.984,79,134.0
696,B2,44.0,0.984,79,134.0
697,E2,44.0,1.0,71,134.0
698,G#2,44.0,1.0,71,134.0
699,E4,44.25,0.25,79,134.0
700,E-4,44.5,0.25,95,134.0
701,E4,44.75,0.25,79,134.0
702,B3,45.0,0.25,79,134.0
703,E4,45.25,0.25,95,134.0
704,E4,45.5,0.25,79,134.0
705,B3,45.75,0.25,79,134.0
706,G4,46.0,0.25,95,134.0
707,E2,46.0,0.5,127,134.0
708,E2,46.0,0.5,111,134.0
709,E4,46.25,0.25,79,134.0
710,G#4,46.5,0.25,95,134.0
711,G#2,46.5,0.5,127,134.0
712,G#2,46.5,0.5,111,134.0
713,E4,46.75,0.25,79,134.0
714,F#4,47.0,0.25,95,134.0
715,A2,47.0,0.5,127,134.0
716,A2,47.0,0.5,111,134.0
717,E4,47.25,0.25,95,134.0
718,E4,47.5,0.25,79,134.0
719,B-2,47.5,0.5,127,134.0
720,B-2,47.5,0.5,111,134.0
721,G#4,47.75,0.25,79,134.0
722,G4,48.0,0.25,79,134.0
723,B2,48.0,0.5,95,134.0
724,B2,48.0,1.0,111,134.0
725,B1,48.0,0.25,63,134.0
726,G#4,48.25,0.25,79,134.0
727,A4,48.25,0.25,39,134.0
728,B1,48.25,0.25,39,134.0
729,C#4,48.5,0.25,95,134.0
730,E-3,48.5,19/40,83,134.0
731,A3,48.5,19/40,83,134.0
732,B3,48.5,19/40,83,134.0
733,F#4,48.5,19/40,83,134.0
734,E2,48.5,0.25,71,134.0
735,G#2,48.5,0.25,71,134.0
736,E4,48.75,0.25,79,134.0
737,A4,48.75,0.25,63,134.0
738,B3,49.0,0.25,79,134.0
739,F#2,49.0,0.25,95,134.0
740,B1,49.0,1.0,111,134.0
741,B1,49.0,0.25,63,134.0
742,G3,49.25,0.25,95,134.0
743,B3,49.25,121/500,79,134.0
744,A3,49.25,121/500,79,134.0
745,E-3,49.25,121/500,79,134.0
746,A4,49.25,0.25,39,134.0
747,B1,49.25,0.25,39,134.0
748,E4,49.5,0.25,58,134.0
749,G#3,49.5,0.25,58,134.0
750,A3,49.5,121/500,90,134.0
751,B3,49.5,121/500,90,134.0
752,F#4,49.5,121/500,90,134.0
753,E2,49.5,0.25,71,134.0
754,G#2,49.5,0.25,71,134.0
755,B3,49.75,0.25,79,134.0
756,A4,49.75,0.25,63,134.0
757,A3,49.75,123/500,95,134.0
758,E-3,49.75,123/500,95,134.0
759,E3,50.0,0.5,95,134.0
760,B2,50.0,0.5,95,134.0
761,E2,50.0,1.0,111,134.0
762,B1,50.0,0.25,63,134.0
763,A4,50.25,0.25,39,134.0
764,B1,50.25,0.25,39,134.0
765,E4,50.5,0.5,68,134.0
766,B3,50.5,0.5,68,134.0
767,G#3,50.5,0.5,68,134.0
768,E3,50.5,19/40,83,134.0
769,G#3,50.5,19/40,83,134.0
770,B3,50.5,19/40,83,134.0
771,E4,50.5,19/40,83,134.0
772,E2,50.5,0.25,71,134.0
773,G#2,50.5,0.25,71,134.0
774,A4,50.75,0.25,63,134.0
775,E3,51.0,0.5,95,134.0
776,E2,51.0,0.25,95,134.0
777,B1,51.0,1.0,111,134.0
778,B1,51.0,0.25,63,134.0
779,B3,51.25,121/500,79,134.0
780,G#3,51.25,121/500,79,134.0
781,E3,51.25,121/500,79,134.0
782,A4,51.25,0.25,39,134.0
783,B1,51.25,0.25,39,134.0
784,E4,51.5,0.5,68,134.0
785,B3,51.5,0.5,68,134.0
786,G#3,51.5,0.5,68,134.0
787,G#3,51.5,121/500,90,134.0
788,B3,51.5,121/500,90,134.0
789,E4,51.5,121/500,90,134.0
790,E2,51.5,0.5,71,134.0
791,G#2,51.5,0.5,71,134.0
792,G#3,51.75,123/500,95,134.0
793,E3,51.75,123/500,95,134.0
794,B4,52.0,0.25,95,134.0
795,B2,52.0,0.5,95,134.0
796,E2,52.0,1.0,111,134.0
797,B1,52.0,0.25,63,134.0
798,A4,52.25,0.25,70,134.0
799,A4,52.25,0.25,39,134.0
800,B1,52.25,0.25,39,134.0
801,G4,52.5,0.25,95,134.0
802,E3,52.5,19/40,83,134.0
803,G#3,52.5,19/40,83,134.0
804,B3,52.5,19/40,83,134.0
805,E4,52.5,19/40,83,134.0
806,E2,52.5,0.25,71,134.0
807,G#2,52.5,0.25,71,134.0
808,E4,52.75,0.25,79,134.0
809,A4,52.75,0.25,63,134.0
810,G#4,53.0,0.25,95,134.0
811,E2,53.0,0.25,95,134.0
812,B1,53.0,1.0,111,134.0
813,B1,53.0,0.25,63,134.0
814,E4,53.25,0.25,79,134.0
815,B3,53.25,121/500,79,134.0
816,G#3,53.25,121/500,79,134.0
817,E3,53.25,121/500,79,134.0
818,A4,53.25,0.25,39,134.0
819,B1,53.25,0.25,39,134.0
820,F#4,53.5,0.25,95,134.0
821,G#3,53.5,121/500,90,134.0
822,B3,53.5,121/500,90,134.0
823,E4,53.5,121/500,90,134.0
824,E2,53.5,0.25,71,134.0
825,G#2,53.5,0.25,71,134.0
826,E-4,53.75,0.25,95,134.0
827,A4,53.75,0.25,63,134.0
828,G#3,53.75,123/500,95,134.0
829,E3,53.75,123/500,95,134.0
830,E4,54.0,0.25,79,134.0
831,B2,54.0,0.5,95,134.0
832,E2,54.0,1.0,111,134.0
833,B1,54.0,0.25,63,134.0
834,B3,54.25,0.25,79,134.0
835,A4,54.25,0.25,39,134.0
836,B1,54.25,0.25,39,134.0
837,D4,54.5,0.25,95,134.0
838,E3,54.5,19/40,83,134.0
839,G#3,54.5,19/40,83,134.0
840,B3,54.5,19/40,83,134.0
841,E4,54.5,19/40,83,134.0
842,E2,54.5,0.25,71,134.0
843,G#2,54.5,0.25,71,134.0
844,B3,54.75,0.25,79,134.0
845,A4,54.75,0.25,63,134.0
846,C#4,55.0,0.25,95,134.0
847,E2,55.0,0.25,95,134.0
848,F#2,55.0,0.5,111,134.0
849,B1,55.0,0.25,63,134.0
850,B-3,55.25,0.25,95,134.0
851,B3,55.25,121/500,79,134.0
852,G#3,55.25,121/500,79,134.0
853,E3,55.25,121/500,79,134.0
854,A4,55.25,0.25,39,134.0
855,B1,55.25,0.25,39,134.0
856,B3,55.5,0.25,79,134.0
857,G#2,55.5,0.5,111,134.0
858,E3,55.5,119/500,91,134.0
859,G#3,55.5,119/500,91,134.0
860,B3,55.5,119/500,91,134.0
861,E4,55.5,119/500,91,134.0
862,E2,55.5,0.25,71,134.0
863,G#2,55.5,0.25,71,134.0
864,G3,55.75,0.25,79,134.0
865,A4,55.75,0.25,63,134.0
866,G#3,55.75,123/500,95,134.0
867,E3,55.75,123/500,95,134.0
868,A3,56.0,0.25,95,134.0
869,A2,56.0,0.5,95,134.0
870,A2,56.0,1.0,111,134.0
871,B1,56.0,0.25,63,134.0
872,B3,56.25,0.25,79,134.0
873,A4,56.25,0.25,39,134.0
874,B1,56.25,0.25,39,134.0
875,C#4,56.5,0.25,95,134.0
876,G3,56.5,483/1000,79,134.0
877,C#4,56.5,483/1000,79,134.0
878,E4,56.5,483/1000,79,134.0
879,E2,56.5,0.25,71,134.0
880,G#2,56.5,0.25,71,134.0
881,D4,56.75,0.25,95,134.0
882,A4,56.75,0.25,63,134.0
883,E4,57.0,0.25,79,134.0
884,E3,57.0,0.25,95,134.0
885,E2,57.0,1.0,111,134.0
886,B1,57.0,0.25,63,134.0
887,F#4,57.25,0.25,95,134.0
888,G3,57.25,0.25,79,134.0
889,A4,57.25,0.25,39,134.0
890,B1,57.25,0.25,39,134.0
891,G4,57.5,0.25,95,134.0
892,C#4,57.5,123/500,87,134.0
893,E4,57.5,123/500,87,134.0
894,E2,57.5,0.25,71,134.0
895,G#2,57.5,0.25,71,134.0
896,E4,57.75,0.25,79,134.0
897,A4,57.75,0.25,63,134.0
898,C#4,57.75,123/500,95,134.0
899,G3,57.75,123/500,95,134.0
900,F#4,58.0,0.25,95,134.0
901,A2,58.0,0.5,95,134.0
902,A2,58.0,1.0,111,134.0
903,B1,58.0,0.25,63,134.0
904,E-4,58.25,0.25,95,134.0
905,A4,58.25,0.25,39,134.0
906,B1,58.25,0.25,39,134.0
907,E4,58.5,0.25,79,134.0
908,G3,58.5,483/1000,79,134.0
909,C#4,58.5,483/1000,79,134.0
910,E4,58.5,483/1000,79,134.0
911,E2,58.5,0.25,71,134.0
912,G#2,58.5,0.25,71,134.0
913,B3,58.75,0.25,79,134.0
914,A4,58.75,0.25,63,134.0
915,C4,59.0,0.25,95,134.0
916,E3,59.0,0.25,95,134.0
917,G#2,59.0,0.5,111,134.0
918,B1,59.0,0.25,63,134.0
919,C#4,59.25,0.25,95,134.0
920,G3,59.25,0.25,79,134.0
921,A4,59.25,0.25,39,134.0
922,B1,59.25,0.25,39,134.0
923,E4,59.5,0.5,79,134.0
924,F#2,59.5,0.5,111,134.0
925,C#4,59.5,123/500,87,134.0
926,E4,59.5,123/500,87,134.0
927,E2,59.5,0.25,71,134.0
928,G#2,59.5,0.25,71,134.0
929,A4,59.75,0.25,63,134.0
930,C#4,59.75,123/500,95,134.0
931,G3,59.75,123/500,95,134.0
932,B4,60.0,0.25,95,134.0
933,B2,60.0,0.5,95,134.0
934,E2,60.0,1.0,111,134.0
935,B1,60.0,0.25,63,134.0
936,A4,60.25,0.25,70,134.0
937,A4,60.25,0.25,39,134.0
938,B1,60.25,0.25,39,134.0
939,G4,60.5,0.25,95,134.0
940,E3,60.5,19/40,83,134.0
941,G#3,60.5,19/40,83,134.0
942,B3,60.5,19/40,83,134.0
943,E4,60.5,19/40,83,134.0
944,E2,60.5,0.25,71,134.0
945,G#2,60.5,0.25,71,134.0
946,E4,60.75,0.25,79,134.0
947,A4,60.75,0.25,63,134.0
948,G#4,61.0,0.25,95,134.0
949,E2,61.0,0.25,95,134.0
950,B1,61.0,1.0,111,134.0
951,B1,61.0,0.25,63,134.0
952,E4,61.25,0.25,79,134.0
953,B3,61.25,121/500,79,134.0
954,G#3,61.25,121/500,79,134.0
955,E3,61.25,121/500,79,134.0
956,A4,61.25,0.25,39,134.0
957,B1,61.25,0.25,39,134.0
958,F#4,61.5,0.25,95,134.0
959,G#3,61.5,121/500,90,134.0
960,B3,61.5,121/500,90,134.0
961,E4,61.5,121/500,90,134.0
962,E2,61.5,0.25,71,134.0
963,G#2,61.5,0.25,71,134.0
964,E-4,61.75,0.25,95,134.0
965,A4,61.75,0.25,63,134.0
966,G#3,61.75,123/500,95,134.0
967,E3,61.75,123/500,95,134.0
968,E4,62.0,0.25,79,134.0
969,B2,62.0,0.5,95,134.0
970,E2,62.0,1.0,111,134.0
971,B1,62.0,0.25,63,134.0
972,B3,62.25,0.25,79,134.0
973,A4,62.25,0.25,39,134.0
974,B1,62.25,0.25,39,134.0
975,D4,62.5,0.25,95,134.0
976,E3,62.5,19/40,83,134.0
977,G#3,62.5,19/40,83,134.0
978,B3,62.5,19/40,83,134.0
979,E4,62.5,19/40,83,134.0
980,E2,62.5,0.25,71,134.0
981,G#2,62.5,0.25,71,134.0
982,B3,62.75,0.25,79,134.0
983,A4,62.75,0.25,63,134.0
984,C#4,63.0,0.25,95,134.0
985,E2,63.0,0.25,95,134.0
986,B1,63.0,0.5,111,134.0
987,B1,63.0,0.25,63,134.0
988,B-3,63.25,0.25,95,134.0
989,B3,63.25,121/500,79,134.0
990,G#3,63.25,121/500,79,134.0
991,E3,63.25,121/500,79,134.0
992,A4,63.25,0.25,39,134.0
993,B1,63.25,0.25,39,134.0
994,B3,63.5,0.25,79,134.0
995,E2,63.5,0.5,111,134.0
996,E3,63.5,119/500,91,134.0
997,G#3,63.5,119/500,91,134.0
998,B3,63.5,119/500,91,134.0
999,E4,63.5,119/500,91,134.0
1000,E2,63.5,0.25,71,134.0
1001,G#2,63.5,0.25,71,134.0
1002,G3,63.75,0.25,79,134.0
1003,A4,63.75,0.25,63,134.0
1004,G#3,63.75,123/500,95,134.0
1005,E3,63.75,123/500,95,134.0
1006,B-3,64.0,0.25,95,134.0
1007,C#3,64.0,0.5,95,134.0
1008,F#2,64.0,1.0,111,134.0
1009,B1,64.0,0.25,63,134.0
1010,F#4,64.25,0.25,95,134.0
1011,A4,64.25,0.25,39,134.0
1012,B1,64.25,0.25,39,134.0
1013,C#4,64.5,0.25,95,134.0
1014,B-3,64.5,483/1000,79,134.0
1015,C#4,64.5,483/1000,79,134.0
1016,F#4,64.5,483/1000,79,134.0
1017,E2,64.5,0.25,71,134.0
1018,G#2,64.5,0.25,71,134.0
1019,E4,64.75,0.25,79,134.0
1020,A4,64.75,0.25,63,134.0
1021,F#4,65.0,0.25,95,134.0
1022,F#3,65.0,0.25,95,134.0
1023,C#2,65.0,1.0,111,134.0
1024,B1,65.0,0.25,63,134.0
1025,B-3,65.25,0.25,95,134.0
1026,C#4,65.25,123/500,79,134.0
1027,B-3,65.25,123/500,79,134.0
1028,A4,65.25,0.25,39,134.0
1029,B1,65.25,0.25,39,134.0
1030,E4,65.5,0.25,79,134.0
1031,C#4,65.5,123/500,87,134.0
1032,F#4,65.5,123/500,87,134.0
1033,E2,65.5,0.25,71,134.0
1034,G#2,65.5,0.25,71,134.0
1035,B3,65.75,0.25,79,134.0
1036,A4,65.75,0.25,63,134.0
1037,C#4,65.75,123/500,95,134.0
1038,B-3,65.75,123/500,95,134.0
1039,C#4,66.0,0.25,95,134.0
1040,B2,66.0,0.5,95,134.0
1041,B1,66.0,0.5,111,134.0
1042,B1,66.0,0.25,63,134.0
1043,B3,66.25,0.25,79,134.0
1044,A4,66.25,0.25,39,134.0
1045,B1,66.25,0.25,39,134.0
1046,D4,66.5,0.25,95,134.0
1047,B1,66.5,0.5,111,134.0
1048,A3,66.5,483/1000,79,134.0
1049,E-4,66.5,483/1000,79,134.0
1050,F#4,66.5,483/1000,79,134.0
1051,E2,66.5,0.25,71,134.0
1052,G#2,66.5,0.25,71,134.0
1053,A4,66.75,0.25,95,134.0
1054,A4,66.75,0.25,63,134.0
1055,B3,67.0,0.25,79,134.0
1056,F#3,67.0,0.25,95,134.0
1057,C#2,67.0,0.5,111,134.0
1058,B1,67.0,0.25,63,134.0
1059,E-4,67.25,0.25,95,134.0
1060,E-4,67.25,123/500,79,134.0
1061,A3,67.25,123/500,79,134.0
1062,A4,67.25,0.25,39,134.0
1063,B1,67.25,0.25,39,134.0
1064,E4,67.5,0.25,79,134.0
1065,E-2,67.5,0.5,111,134.0
1066,E-4,67.5,123/500,87,134.0
1067,F#4,67.5,123/500,87,134.0
1068,E2,67.5,0.25,71,134.0
1069,G#2,67.5,0.25,71,134.0
1070,B3,67.75,0.25,79,134.0
1071,A4,67.75,0.25,63,134.0
1072,E-4,67.75,123/500,95,134.0
1073,A3,67.75,123/500,95,134.0
1074,B4,68.0,0.25,95,134.0
1075,B2,68.0,0.5,95,134.0
1076,E2,68.0,1.0,111,134.0
1077,B1,68.0,0.25,63,134.0
1078,A4,68.25,0.25,70,134.0
1079,A4,68.25,0.25,39,134.0
1080,B1,68.25,0.25,39,134.0
1081,G4,68.5,0.25,95,134.0
1082,E3,68.5,19/40,83,134.0
1083,G#3,68.5,19/40,83,134.0
1084,B3,68.5,19/40,83,134.0
1085,E4,68.5,19/40,83,134.0
1086,E2,68.5,0.25,71,134.0
1087,G#2,68.5,0.25,71,134.0
1088,E4,68.75,0.25,79,134.0
1089,A4,68.75,0.25,63,134.0
1090,G#4,69.0,0.25,95,134.0
1091,E2,69.0,0.25,95,134.0
1092,B1,69.0,1.0,111,134.0
1093,B1,69.0,0.25,63,134.0
1094,E4,69.25,0.25,79,134.0
1095,B3,69.25,121/500,79,134.0
1096,G#3,69.25,121/500,79,134.0
1097,E3,69.25,121/500,79,134.0
1098,A4,69.25,0.25,39,134.0
1099,B1,69.25,0.25,39,134.0
1100,F#4,69.5,0.25,95,134.0
1101,G#3,69.5,121/500,90,134.0
1102,B3,69.5,121/500,90,134.0
1103,E4,69.5,121/500,90,134.0
1104,E2,69.5,0.25,71,134.0
1105,G#2,69.5,0.25,71,134.0
1106,E-4,69.75,0.25,95,134.0
1107,A4,69.75,0.25,63,134.0
1108,G#3,69.75,123/500,95,134.0
1109,E3,69.75,123/500,95,134.0
1110,E4,70.0,0.25,79,134.0
1111,B2,70.0,0.5,95,134.0
1112,E2,70.0,1.0,111,134.0
1113,B1,70.0,0.25,63,134.0
1114,B3,70.25,0.25,79,134.0
1115,A4,70.25,0.25,39,134.0
1116,B1,70.25,0.25,39,134.0
1117,D4,70.5,0.25,95,134.0
1118,E3,70.5,19/40,83,134.0
1119,G#3,70.5,19/40,83,134.0
1120,B3,70.5,19/40,83,134.0
1121,E4,70.5,19/40,83,134.0
1122,E2,70.5,0.25,71,134.0
1123,G#2,70.5,0.25,71,134.0
1124,B3,70.75,0.25,79,134.0
1125,A4,70.75,0.25,63,134.0
1126,C#4,71.0,0.25,95,134.0
1127,E2,71.0,0.25,95,134.0
1128,F#2,71.0,0.5,111,134.0
1129,B1,71.0,0.25,63,134.0
1130,B-3,71.25,0.25,95,134.0
1131,B3,71.25,121/500,79,134.0
1132,G#3,71.25,121/500,79,134.0
1133,E3,71.25,121/500,79,134.0
1134,A4,71.25,0.25,39,134.0
1135,B1,71.25,0.25,39,134.0
1136,B3,71.5,0.25,79,134.0
1137,G#2,71.5,0.5,111,134.0
1138,E3,71.5,119/500,91,134.0
1139,G#3,71.5,119/500,91,134.0
1140,B3,71.5,119/500,91,134.0
1141,E4,71.5,119/500,91,134.0
1142,E2,71.5,0.25,71,134.0
1143,G#2,71.5,0.25,71,134.0
1144,G3,71.75,0.25,95,134.0
1145,A4,71.75,0.25,63,134.0
1146,G#3,71.75,123/500,95,134.0
1147,E3,71.75,123/500,95,134.0
1148,A3,72.0,0.25,95,134.0
1149,A2,72.0,0.5,95,134.0
1150,A2,72.0,1.0,111,134.0
1151,B1,72.0,0.25,63,134.0
1152,B3,72.25,0.25,79,134.0
1153,A4,72.25,0.25,39,134.0
1154,B1,72.25,0.25,39,134.0
1155,C#4,72.5,0.25,95,134.0
1156,G3,72.5,483/1000,79,134.0
1157,C#4,72.5,483/1000,79,134.0
1158,E4,72.5,483/1000,79,134.0
1159,E2,72.5,0.25,71,134.0
1160,G#2,72.5,0.25,71,134.0
1161,D4,72.75,0.25,95,134.0
1162,A4,72.75,0.25,63,134.0
1163,E4,73.0,0.25,79,134.0
1164,E3,73.0,0.25,95,134.0
1165,E2,73.0,1.0,111,134.0
1166,B1,73.0,0.25,63,134.0
1167,F#4,73.25,0.25,95,134.0
1168,G3,73.25,0.25,79,134.0
1169,A4,73.25,0.25,39,134.0
1170,B1,73.25,0.25,39,134.0
1171,G4,73.5,0.25,95,134.0
1172,C#4,73.5,123/500,87,134.0
1173,E4,73.5,123/500,87,134.0
1174,E2,73.5,0.25,71,134.0
1175,G#2,73.5,0.25,71,134.0
1176,E4,73.75,0.25,79,134.0
1177,A4,73.75,0.25,63,134.0
1178,C#4,73.75,123/500,95,134.0
1179,G3,73.75,123/500,95,134.0
1180,F#4,74.0,0.25,95,134.0
1181,A2,74.0,0.5,95,134.0
1182,A2,74.0,1.0,111,134.0
1183,B1,74.0,0.25,63,134.0
1184,E-4,74.25,0.25,95,134.0
1185,A4,74.25,0.25,39,134.0
1186,B1,74.25,0.25,39,134.0
1187,E4,74.5,0.25,79,134.0
1188,G3,74.5,483/1000,79,134.0
1189,C#4,74.5,483/1000,79,134.0
1190,E4,74.5,483/1000,79,134.0
1191,E2,74.5,0.25,71,134.0
1192,G#2,74.5,0.25,71,134.0
1193,B3,74.75,0.25,79,134.0
1194,A4,74.75,0.25,63,134.0
1195,C4,75.0,0.25,95,134.0
1196,E3,75.0,0.25,95,134.0
1197,G#2,75.0,0.5,111,134.0
1198,B1,75.0,0.25,63,134.0
1199,C#4,75.25,0.25,95,134.0
1200,G3,75.25,0.25,79,134.0
1201,A4,75.25,0.25,39,134.0
1202,B1,75.25,0.25,39,134.0
1203,E4,75.5,0.5,79,134.0
1204,F#2,75.5,0.5,111,134.0
1205,C#4,75.5,123/500,87,134.0
1206,E4,75.5,123/500,87,134.0
1207,E2,75.5,0.5,71,134.0
1208,G#2,75.5,0.5,71,134.0
1209,C#4,75.75,123/500,95,134.0
1210,G3,75.75,123/500,95,134.0
1211,E4,76.0,0.25,95,134.0
1212,E2,76.0,1.0,111,134.0
1213,E2,76.0,0.984,79,134.0
1214,B2,76.0,0.984,79,134.0
1215,E2,76.0,1.0,71,134.0
1216,G#2,76.0,1.0,71,134.0
1217,E4,76.25,0.25,79,134.0
1218,E-4,76.5,0.25,95,134.0
1219,E4,76.75,0.25,79,134.0
1220,B3,77.0,0.25,79,134.0
1221,E4,77.25,0.25,95,134.0
1222,E4,77.5,0.25,79,134.0
1223,B3,77.75,0.25,79,134.0
1224,G4,78.0,0.25,95,134.0
1225,E2,78.0,0.5,127,134.0
1226,E2,78.0,0.5,111,134.0
1227,E4,78.25,0.25,79,134.0
1228,G#4,78.5,0.25,95,134.0
1229,G#2,78.5,0.5,127,134.0
1230,G#2,78.5,0.5,111,134.0
1231,E4,78.75,0.25,79,134.0
1232,F#4,79.0,0.25,95,134.0
1233,A2,79.0,0.5,127,134.0
1234,A2,79.0,0.5,111,134.0
1235,E4,79.25,0.25,95,134.0
1236,E4,79.5,0.25,79,134.0
1237,B-2,79.5,0.5,127,134.0
1238,B-2,79.5,0.5,111,134.0
1239,B3,79.75,0.25,79,134.0
1240,B-3,80.0,0.25,79,134.0
1241,B2,80.0,0.5,95,134.0
1242,B2,80.0,1.0,111,134.0
1243,B1,80.0,0.25,63,134.0
1244,B3,80.25,0.25,79,134.0
1245,A4,80.25,0.25,39,134.0
1246,B1,80.25,0.25,39,134.0
1247,B3,80.5,0.25,79,134.0
1248,E-3,80.5,19/40,83,134.0
1249,A3,80.5,19/40,83,134.0
1250,B3,80.5,19/40,83,134.0
1251,F#4,80.5,19/40,83,134.0
1252,E2,80.5,0.25,71,134.0
1253,G#2,80.5,0.25,71,134.0
1254,E4,80.75,0.25,79,134.0
1255,A4,80.75,0.25,63,134.0
1256,B3,81.0,0.25,79,134.0
1257,F#2,81.0,0.25,95,134.0
1258,B1,81.0,1.0,111,134.0
1259,B1,81.0,0.25,63,134.0
1260,G3,81.25,0.25,95,134.0
1261,B3,81.25,121/500,79,134.0
1262,A3,81.25,121/500,79,134.0
1263,E-3,81.25,121/500,79,134.0
1264,A4,81.25,0.25,39,134.0
1265,B1,81.25,0.25,39,134.0
1266,E4,81.5,0.25,58,134.0
1267,G#3,81.5,0.25,58,134.0
1268,A3,81.5,121/500,90,134.0
1269,B3,81.5,121/500,90,134.0
1270,F#4,81.5,121/500,90,134.0
1271,E2,81.5,0.25,71,134.0
1272,G#2,81.5,0.25,71,134.0
1273,B3,81.75,0.25,79,134.0
1274,A4,81.75,0.25,63,134.0
1275,A3,81.75,123/500,95,134.0
1276,E-3,81.75,123/500,95,134.0
1277,E3,82.0,0.5,95,134.0
1278,B2,82.0,0.5,95,134.0
1279,E2,82.0,1.0,111,134.0
1280,B1,82.0,0.25,63,134.0
1281,A4,82.25,0.25,39,134.0
1282,B1,82.25,0.25,39,134.0
1283,E4,82.5,0.5,68,134.0
1284,B3,82.5,0.5,68,134.0
1285,G#3,82.5,0.5,68,134.0
1286,E3,82.5,19/40,83,134.0
1287,G#3,82.5,19/40,83,134.0
1288,B3,82.5,19/40,83,134.0
1289,E4,82.5,19/40,83,134.0
1290,E2,82.5,0.25,71,134.0
1291,G#2,82.5,0.25,71,134.0
1292,A4,82.75,0.25,63,134.0
1293,E3,83.0,7/100,95,134.0
1294,E2,83.0,0.25,95,134.0
1295,B1,83.0,1.0,111,134.0
1296,B1,83.0,0.25,63,134.0
1297,B3,83.25,121/500,79,134.0
1298,G#3,83.25,121/500,79,134.0
1299,E3,83.25,121/500,79,134.0
1300,A4,83.25,0.25,39,134.0
1301,B1,83.25,0.25,39,134.0
1302,G#3,83.5,121/500,90,134.0
1303,B3,83.5,121/500,90,134.0
1304,E4,83.5,121/500,90,134.0
1305,E2,83.5,0.5,71,134.0
1306,G#2,83.5,0.5,71,134.0
1307,G#3,83.75,123/500,95,134.0
1308,E3,83.75,123/500,95,134.0
1309,C#4,84.0,0.25,63,134.0
1310,C#3,84.0,0.5,79,134.0
1311,C#2,84.0,1.0,111,134.0
1312,B1,84.0,0.25,63,134.0
1313,C#4,84.0,2.0,63,134.0
1314,C#4,84.0,2.0,63,134.0
1315,G#4,84.25,0.25,95,134.0
1316,A4,84.25,0.25,39,134.0
1317,B1,84.25,0.25,39,134.0
1318,F#4,84.5,0.25,95,134.0
1319,G#3,84.5,483/1000,79,134.0
1320,C#4,84.5,483/1000,79,134.0
1321,B3,84.5,483/1000,79,134.0
1322,E2,84.5,0.25,71,134.0
1323,G#2,84.5,0.25,71,134.0
1324,E4,84.75,0.25,79,134.0
1325,A4,84.75,0.25,63,134.0
1326,G#4,85.0,0.25,95,134.0
1327,G#2,85.0,0.25,79,134.0
1328,C#2,85.0,1.0,111,134.0
1329,B1,85.0,0.25,63,134.0
1330,C#4,85.25,0.25,63,134.0
1331,B3,85.25,121/500,79,134.0
1332,C#4,85.25,121/500,79,134.0
1333,G#3,85.25,121/500,79,134.0
1334,A4,85.25,0.25,39,134.0
1335,B1,85.25,0.25,39,134.0
1336,E4,85.5,0.25,79,134.0
1337,C#4,85.5,123/500,79,134.0
1338,B3,85.5,123/500,79,134.0
1339,E2,85.5,0.25,71,134.0
1340,G#2,85.5,0.25,71,134.0
1341,G#4,85.75,0.25,95,134.0
1342,A4,85.75,0.25,63,134.0
1343,C#4,85.75,123/500,79,134.0
1344,G#3,85.75,123/500,79,134.0
1345,C4,86.0,0.25,63,134.0
1346,C#3,86.0,0.5,79,134.0
1347,G#2,86.0,1.0,111,134.0
1348,B1,86.0,0.25,63,134.0
1349,E-4,86.0,2.0,63,134.0
1350,C4,86.0,2.0,63,134.0
1351,G#4,86.25,0.25,95,134.0
1352,A4,86.25,0.25,39,134.0
1353,B1,86.25,0.25,39,134.0
1354,F#4,86.5,0.25,95,134.0
1355,G#3,86.5,19/40,75,134.0
1356,B3,86.5,19/40,75,134.0
1357,E4,86.5,19/40,75,134.0
1358,G#4,86.5,19/40,75,134.0
1359,E2,86.5,0.25,71,134.0
1360,G#2,86.5,0.25,71,134.0
1361,E4,86.75,0.25,79,134.0
1362,A4,86.75,0.25,63,134.0
1363,G#4,87.0,0.25,95,134.0
1364,G#2,87.0,0.25,79,134.0
1365,G#2,87.0,1.0,111,134.0
1366,B1,87.0,0.25,63,134.0
1367,C4,87.25,0.25,63,134.0
1368,E4,87.25,121/500,79,134.0
1369,B3,87.25,121/500,79,134.0
1370,G#3,87.25,121/500,79,134.0
1371,A4,87.25,0.25,39,134.0
1372,B1,87.25,0.25,39,134.0
1373,E4,87.5,0.25,79,134.0
1374,G#3,87.5,119/500,75,134.0
1375,B3,87.5,119/500,75,134.0
1376,E4,87.5,119/500,75,134.0
1377,G#4,87.5,119/500,75,134.0
1378,E2,87.5,0.25,71,134.0
1379,G#2,87.5,0.25,71,134.0
1380,G#4,87.75,0.25,95,134.0
1381,A4,87.75,0.25,63,134.0
1382,B3,87.75,123/500,79,134.0
1383,G#3,87.75,123/500,79,134.0
1384,B3,88.0,0.25,63,134.0
1385,C#3,88.0,0.5,79,134.0
1386,C#2,88.0,1.0,111,134.0
1387,B1,88.0,0.25,63,134.0
1388,E4,88.0,2.0,71,134.0
1389,C#4,88.0,2.0,71,134.0
1390,G#4,88.25,0.25,95,134.0
1391,A4,88.25,0.25,39,134.0
1392,B1,88.25,0.25,39,134.0
1393,F#4,88.5,0.25,95,134.0
1394,G#3,88.5,19/40,75,134.0
1395,C#4,88.5,19/40,75,134.0
1396,E4,88.5,19/40,75,134.0
1397,G#4,88.5,19/40,75,134.0
1398,E2,88.5,0.25,71,134.0
1399,G#2,88.5,0.25,71,134.0
1400,E4,88.75,0.25,79,134.0
1401,A4,88.75,0.25,63,134.0
1402,G#4,89.0,0.25,95,134.0
1403,G#2,89.0,0.25,79,134.0
1404,G#2,89.0,0.5,111,134.0
1405,B1,89.0,0.25,63,134.0
1406,B3,89.25,0.25,63,134.0
1407,E4,89.25,121/500,79,134.0
1408,C#4,89.25,121/500,79,134.0
1409,G#3,89.25,121/500,79,134.0
1410,A4,89.25,0.25,39,134.0
1411,B1,89.25,0.25,39,134.0
1412,E4,89.5,0.25,79,134.0
1413,C#2,89.5,0.5,111,134.0
1414,G#3,89.5,119/500,75,134.0
1415,C#4,89.5,119/500,75,134.0
1416,E4,89.5,119/500,75,134.0
1417,G#4,89.5,119/500,75,134.0
1418,E2,89.5,0.25,71,134.0
1419,G#2,89.5,0.25,71,134.0
1420,G#4,89.75,0.25,95,134.0
1421,A4,89.75,0.25,63,134.0
1422,C#4,89.75,123/500,79,134.0
1423,G#3,89.75,123/500,79,134.0
1424,B-3,90.0,0.25,63,134.0
1425,B2,90.0,0.5,79,134.0
1426,F#1,90.0,1.0,111,134.0
1427,B1,90.0,0.25,63,134.0
1428,F#4,90.0,2.0,63,134.0
1429,C#4,90.0,2.0,63,134.0
1430,G#4,90.25,0.25,95,134.0
1431,A4,90.25,0.25,39,134.0
1432,B1,90.25,0.25,39,134.0
1433,F#4,90.5,0.25,95,134.0
1434,F#3,90.5,19/40,75,134.0
1435,B-3,90.5,19/40,75,134.0
1436,C#4,90.5,19/40,75,134.0
1437,F#4,90.5,19/40,75,134.0
1438,E2,90.5,0.25,71,134.0
1439,G#2,90.5,0.25,71,134.0
1440,E4,90.75,0.25,79,134.0
1441,A4,90.75,0.25,63,134.0
1442,G#4,91.0,0.25,95,134.0
1443,F#2,91.0,0.25,79,134.0
1444,C#2,91.0,1.0,111,134.0
1445,B1,91.0,0.25,63,134.0
1446,B-3,91.25,0.25,63,134.0
1447,C#4,91.25,121/500,79,134.0
1448,B-3,91.25,121/500,79,134.0
1449,F#3,91.25,121/500,79,134.0
1450,A4,91.25,0.25,39,134.0
1451,B1,91.25,0.25,39,134.0
1452,E4,91.5,0.25,79,134.0
1453,F#3,91.5,119/500,75,134.0
1454,B-3,91.5,119/500,75,134.0
1455,C#4,91.5,119/500,75,134.0
1456,F#4,91.5,119/500,75,134.0
1457,E2,91.5,0.25,71,134.0
1458,G#2,91.5,0.25,71,134.0
1459,G#4,91.75,0.25,95,134.0
1460,A4,91.75,0.25,63,134.0
1461,B-3,91.75,123/500,79,134.0
1462,F#3,91.75,123/500,79,134.0
1463,C4,92.0,0.25,63,134.0
1464,C3,92.0,0.5,79,134.0
1465,C2,92.0,1.0,111,134.0
1466,B1,92.0,0.25,63,134.0
1467,G4,92.0,2.0,71,134.0
1468,E4,92.0,2.0,71,134.0
1469,G4,92.25,0.25,95,134.0
1470,A4,92.25,0.25,39,134.0
1471,B1,92.25,0.25,39,134.0
1472,F#4,92.5,0.25,95,134.0
1473,G3,92.5,19/40,75,134.0
1474,C4,92.5,19/40,75,134.0
1475,E4,92.5,19/40,75,134.0
1476,G4,92.5,19/40,75,134.0
1477,E2,92.5,0.25,71,134.0
1478,G#2,92.5,0.25,71,134.0
1479,E4,92.75,0.25,79,134.0
1480,A4,92.75,0.25,63,134.0
1481,G4,93.0,0.25,95,134.0
1482,G2,93.0,0.25,79,134.0
1483,G2,93.0,1.0,111,134.0
1484,B1,93.0,0.25,63,134.0
1485,C4,93.25,0.25,63,134.0
1486,E4,93.25,121/500,79,134.0
1487,C4,93.25,121/500,79,134.0
1488,G3,93.25,121/500,79,134.0
1489,A4,93.25,0.25,39,134.0
1490,B1,93.25,0.25,39,134.0
1491,E4,93.5,0.25,79,134.0
1492,G3,93.5,119/500,75,134.0
1493,C4,93.5,119/500,75,134.0
1494,E4,93.5,119/500,75,134.0
1495,G4,93.5,119/500,75,134.0
1496,E2,93.5,0.25,71,134.0
1497,G#2,93.5,0.25,71,134.0
1498,G4,93.75,0.25,95,134.0
1499,A4,93.75,0.25,63,134.0
1500,C4,93.75,123/500,79,134.0
1501,G3,93.75,123/500,79,134.0
1502,G4,94.0,0.25,95,134.0
1503,B2,94.0,0.5,79,134.0
1504,B1,94.0,0.5,111,134.0
1505,B1,94.0,0.25,63,134.0
1506,F#4,94.0,2.0,79,134.0
1507,B3,94.0,2.0,79,134.0
1508,G#4,94.25,0.25,95,134.0
1509,A4,94.25,0.25,39,134.0
1510,B1,94.25,0.25,39,134.0
1511,C#4,94.5,0.25,63,134.0
1512,B1,94.5,0.5,111,134.0
1513,F#3,94.5,19/40,75,134.0
1514,B3,94.5,19/40,75,134.0
1515,E-4,94.5,19/40,75,134.0
1516,F#4,94.5,19/40,75,134.0
1517,E2,94.5,0.25,71,134.0
1518,G#2,94.5,0.25,71,134.0
1519,E4,94.75,0.25,79,134.0
1520,A4,94.75,0.25,63,134.0
1521,B3,95.0,0.25,95,134.0
1522,G2,95.0,0.25,79,134.0
1523,C#2,95.0,0.5,111,134.0
1524,B1,95.0,0.25,63,134.0
1525,G3,95.25,0.25,95,134.0
1526,E-4,95.25,121/500,79,134.0
1527,B3,95.25,121/500,79,134.0
1528,F#3,95.25,121/500,79,134.0
1529,A4,95.25,0.25,39,134.0
1530,B1,95.25,0.25,39,134.0
1531,E-2,95.5,0.5,111,134.0
1532,E4,95.5,0.25,74,134.0
1533,G#3,95.5,0.25,74,134.0
1534,F#3,95.5,119/500,75,134.0
1535,B3,95.5,119/500,75,134.0
1536,E-4,95.5,119/500,75,134.0
1537,F#4,95.5,119/500,75,134.0
1538,E2,95.5,0.25,71,134.0
1539,G#2,95.5,0.25,71,134.0
1540,B3,95.75,0.25,95,134.0
1541,A4,95.75,0.25,63,134.0
1542,B3,95.75,123/500,79,134.0
1543,F#3,95.75,123/500,79,134.0
1544,E3,96.0,1.0,95,134.0
1545,B2,96.0,0.5,79,134.0
1546,E2,96.0,1.0,111,134.0
1547,B1,96.0,0.25,63,134.0
1548,E4,96.0,4.0,71,134.0
1549,G#3,96.0,4.0,71,134.0
1550,A4,96.25,0.25,39,134.0
1551,B1,96.25,0.25,39,134.0
1552,E4,96.5,1.0,68,134.0
1553,B3,96.5,1.0,68,134.0
1554,G#3,96.5,1.0,68,134.0
1555,E3,96.5,19/40,75,134.0
1556,G#3,96.5,19/40,75,134.0
1557,B3,96.5,19/40,75,134.0
1558,E4,96.5,19/40,75,134.0
1559,E2,96.5,0.25,71,134.0
1560,G#2,96.5,0.25,71,134.0
1561,A4,96.75,0.25,63,134.0
1562,E3,97.0,1.0,95,134.0
1563,E2,97.0,0.25,79,134.0
1564,E2,97.0,667/1000,111,134.0
1565,B1,97.0,0.25,63,134.0
1566,B3,97.25,121/500,79,134.0
1567,G#3,97.25,121/500,79,134.0
1568,E3,97.25,121/500,79,134.0
1569,A4,97.25,0.25,39,134.0
1570,B1,97.25,0.25,39,134.0
1571,E4,97.5,1.0,68,134.0
1572,B3,97.5,1.0,68,134.0
1573,G#3,97.5,1.0,68,134.0
1574,G#3,97.5,121/500,74,134.0
1575,B3,97.5,121/500,74,134.0
1576,E4,97.5,121/500,74,134.0
1577,E2,97.5,0.25,71,134.0
1578,G#2,97.5,0.25,71,134.0
1579,E2,97.667,333/1000,111,134.0
1580,A4,97.75,0.25,63,134.0
1581,G#3,97.75,123/500,79,134.0
1582,E3,97.75,123/500,79,134.0
1583,E3,98.0,1.0,95,134.0
1584,B2,98.0,0.5,79,134.0
1585,E2,98.0,1.0,111,134.0
1586,B1,98.0,0.25,63,134.0
1587,A4,98.25,0.25,39,134.0
1588,B1,98.25,0.25,39,134.0
1589,E4,98.5,1.5,68,134.0
1590,B3,98.5,1.5,68,134.0
1591,G#3,98.5,1.5,68,134.0
1592,E3,98.5,19/40,75,134.0
1593,G#3,98.5,19/40,75,134.0
1594,B3,98.5,19/40,75,134.0
1595,E4,98.5,19/40,75,134.0
1596,E2,98.5,0.25,71,134.0
1597,G#2,98.5,0.25,71,134.0
1598,A4,98.75,0.25,63,134.0
1599,E3,99.0,7/100,95,134.0
1600,E2,99.0,0.25,79,134.0
1601,E2,99.0,1.0,111,134.0
1602,B1,99.0,0.25,63,134.0
1603,B3,99.25,121/500,79,134.0
1604,G#3,99.25,121/500,79,134.0
1605,E3,99.25,121/500,79,134.0
1606,A4,99.25,0.25,39,134.0
1607,B1,99.25,0.25,39,134.0
1608,E3,99.5,119/500,75,134.0
1609,G#3,99.5,119/500,75,134.0
1610,B3,99.5,119/500,75,134.0
1611,E4,99.5,119/500,75,134.0
1612,E2,99.5,0.25,71,134.0
1613,G#2,99.5,0.25,71,134.0
1614,A4,99.75,0.25,63,134.0
1615,G#3,99.75,123/500,79,134.0
1616,E3,99.75,123/500,79,134.0
1617,C#4,100.0,0.25,63,134.0
1618,C#3,100.0,0.5,79,134.0
1619,C#2,100.0,1.0,111,134.0
1620,B1,100.0,0.25,63,134.0
1621,C#4,100.0,2.0,63,134.0
1622,C#4,100.0,2.0,63,134.0
1623,G#4,100.25,0.25,95,134.0
1624,A4,100.25,0.25,39,134.0
1625,B1,100.25,0.25,39,134.0
1626,F#4,100.5,0.25,95,134.0
1627,G#3,100.5,483/1000,79,134.0
1628,C#4,100.5,483/1000,79,134.0
1629,B3,100.5,483/1000,79,134.0
1630,E2,100.5,0.25,71,134.0
1631,G#2,100.5,0.25,71,134.0
1632,E4,100.75,0.25,79,134.0
1633,A4,100.75,0.25,63,134.0
1634,G#4,101.0,0.25,95,134.0
1635,G#2,101.0,0.25,79,134.0
1636,C#2,101.0,1.0,111,134.0
1637,B1,101.0,0.25,63,134.0
1638,C#4,101.25,0.25,63,134.0
1639,B3,101.25,121/500,79,134.0
1640,C#4,101.25,121/500,79,134.0
1641,G#3,101.25,121/500,79,134.0
1642,A4,101.25,0.25,39,134.0
1643,B1,101.25,0.25,39,134.0
1644,E4,101.5,0.25,79,134.0
1645,C#4,101.5,123/500,79,134.0
1646,B3,101.5,123/500,79,134.0
1647,E2,101.5,0.25,71,134.0
1648,G#2,101.5,0.25,71,134.0
1649,G#4,101.75,0.25,95,134.0
1650,A4,101.75,0.25,63,134.0
1651,C#4,101.75,123/500,79,134.0
1652,G#3,101.75,123/500,79,134.0
1653,C4,102.0,0.25,63,134.0
1654,C#3,102.0,0.5,79,134.0
1655,G#2,102.0,1.0,111,134.0
1656,B1,102.0,0.25,63,134.0
1657,E-4,102.0,2.0,63,134.0
1658,C4,102.0,2.0,63,134.0
1659,G#4,102.25,0.25,95,134.0
1660,A4,102.25,0.25,39,134.0
1661,B1,102.25,0.25,39,134.0
1662,F#4,102.5,0.25,95,134.0
1663,G#3,102.5,19/40,75,134.0
1664,B3,102.5,19/40,75,134.0
1665,E4,102.5,19/40,75,134.0
1666,G#4,102.5,19/40,75,134.0
1667,E2,102.5,0.25,71,134.0
1668,G#2,102.5,0.25,71,134.0
1669,E4,102.75,0.25,79,134.0
1670,A4,102.75,0.25,63,134.0
1671,G#4,103.0,0.25,95,134.0
1672,G#2,103.0,0.25,79,134.0
1673,G#2,103.0,1.0,111,134.0
1674,B1,103.0,0.25,63,134.0
1675,C4,103.25,0.25,63,134.0
1676,E4,103.25,121/500,79,134.0
1677,B3,103.25,121/500,79,134.0
1678,G#3,103.25,121/500,79,134.0
1679,A4,103.25,0.25,39,134.0
1680,B1,103.25,0.25,39,134.0
1681,E4,103.5,0.25,79,134.0
1682,G#3,103.5,119/500,75,134.0
1683,B3,103.5,119/500,75,134.0
1684,E4,103.5,119/500,75,134.0
1685,G#4,103.5,119/500,75,134.0
1686,E2,103.5,0.25,71,134.0
1687,G#2,103.5,0.25,71,134.0
1688,G#4,103.75,0.25,95,134.0
1689,A4,103.75,0.25,63,134.0
1690,B3,103.75,123/500,79,134.0
1691,G#3,103.75,123/500,79,134.0
1692,B3,104.0,0.25,63,134.0
1693,C#3,104.0,0.5,79,134.0
1694,C#2,104.0,1.0,111,134.0
1695,B1,104.0,0.25,63,134.0
1696,E4,104.0,2.0,71,134.0
1697,C#4,104.0,2.0,71,134.0
1698,G#4,104.25,0.25,95,134.0
1699,A4,104.25,0.25,39,134.0
1700,B1,104.25,0.25,39,134.0
1701,F#4,104.5,0.25,95,134.0
1702,G#3,104.5,19/40,75,134.0
1703,C#4,104.5,19/40,75,134.0
1704,E4,104.5,19/40,75,134.0
1705,G#4,104.5,19/40,75,134.0
1706,E2,104.5,0.25,71,134.0
1707,G#2,104.5,0.25,71,134.0
1708,E4,104.75,0.25,79,134.0
1709,A4,104.75,0.25,63,134.0
1710,G#4,105.0,0.25,95,134.0
1711,G#2,105.0,0.25,79,134.0
1712,G#2,105.0,0.5,111,134.0
1713,B1,105.0,0.25,63,134.0
1714,B3,105.25,0.25,63,134.0
1715,E4,105.25,121/500,79,134.0
1716,C#4,105.25,121/500,79,134.0
1717,G#3,105.25,121/500,79,134.0
1718,A4,105.25,0.25,39,134.0
1719,B1,105.25,0.25,39,134.0
1720,E4,105.5,0.25,79,134.0
1721,C#2,105.5,0.5,111,134.0
1722,G#3,105.5,119/500,75,134.0
1723,C#4,105.5,119/500,75,134.0
1724,E4,105.5,119/500,75,134.0
1725,G#4,105.5,119/500,75,134.0
1726,E2,105.5,0.25,71,134.0
1727,G#2,105.5,0.25,71,134.0
1728,G#4,105.75,0.25,95,134.0
1729,A4,105.75,0.25,63,134.0
1730,C#4,105.75,123/500,79,134.0
1731,G#3,105.75,123/500,79,134.0
1732,B-3,106.0,0.25,63,134.0
1733,B2,106.0,0.5,79,134.0
1734,F#1,106.0,1.0,111,134.0
1735,B1,106.0,0.25,63,134.0
1736,F#4,106.0,2.0,63,134.0
1737,C#4,106.0,2.0,63,134.0
1738,G#4,106.25,0.25,95,134.0
1739,A4,106.25,0.25,39,134.0
1740,B1,106.25,0.25,39,134.0
1741,F#4,106.5,0.25,95,134.0
1742,F#3,106.5,19/40,75,134.0
1743,B-3,106.5,19/40,75,134.0
1744,C#4,106.5,19/40,75,134.0
1745,F#4,106.5,19/40,75,134.0
1746,E2,106.5,0.25,71,134.0
1747,G#2,106.5,0.25,71,134.0
1748,E4,106.75,0.25,79,134.0
1749,A4,106.75,0.25,63,134.0
1750,G#4,107.0,0.25,95,134.0
1751,F#2,107.0,0.25,79,134.0
1752,C#2,107.0,1.0,111,134.0
1753,B1,107.0,0.25,63,134.0
1754,B-3,107.25,0.25,63,134.0
1755,C#4,107.25,121/500,79,134.0
1756,B-3,107.25,121/500,79,134.0
1757,F#3,107.25,121/500,79,134.0
1758,A4,107.25,0.25,39,134.0
1759,B1,107.25,0.25,39,134.0
1760,E4,107.5,0.25,79,134.0
1761,F#3,107.5,119/500,75,134.0
1762,B-3,107.5,119/500,75,134.0
1763,C#4,107.5,119/500,75,134.0
1764,F#4,107.5,119/500,75,134.0
1765,E2,107.5,0.25,71,134.0
1766,G#2,107.5,0.25,71,134.0
1767,B3,107.75,0.25,95,134.0
1768,A4,107.75,0.25,63,134.0
1769,B-3,107.75,123/500,79,134.0
1770,F#3,107.75,123/500,79,134.0
1771,C4,108.0,0.25,63,134.0
1772,C3,108.0,0.5,79,134.0
1773,C2,108.0,1.0,111,134.0
1774,B1,108.0,0.25,63,134.0
1775,C5,108.0,4.0,58,134.0
1776,G4,108.0,4.0,58,134.0
1777,E4,108.0,4.0,58,134.0
1778,G4,108.25,0.25,95,134.0
1779,A4,108.25,0.25,39,134.0
1780,B1,108.25,0.25,39,134.0
1781,F#4,108.5,0.25,95,134.0
1782,G3,108.5,19/40,75,134.0
1783,C4,108.5,19/40,75,134.0
1784,E4,108.5,19/40,75,134.0
1785,G4,108.5,19/40,75,134.0
1786,E2,108.5,0.25,71,134.0
1787,G#2,108.5,0.25,71,134.0
1788,E4,108.75,0.25,79,134.0
1789,A4,108.75,0.25,63,134.0
1790,G4,109.0,0.25,95,134.0
1791,G2,109.0,0.25,79,134.0
1792,E2,109.0,0.5,111,134.0
1793,B1,109.0,0.25,63,134.0
1794,C4,109.25,0.25,63,134.0
1795,E4,109.25,121/500,79,134.0
1796,C4,109.25,121/500,79,134.0
1797,G3,109.25,121/500,79,134.0
1798,A4,109.25,0.25,39,134.0
1799,B1,109.25,0.25,39,134.0
1800,E4,109.5,0.25,79,134.0
1801,G2,109.5,0.5,111,134.0
1802,G3,109.5,119/500,75,134.0
1803,C4,109.5,119/500,75,134.0
1804,E4,109.5,119/500,75,134.0
1805,G4,109.5,119/500,75,134.0
1806,E2,109.5,0.25,71,134.0
1807,G#2,109.5,0.25,71,134.0
1808,B3,109.75,0.25,79,134.0
1809,A4,109.75,0.25,63,134.0
1810,C4,109.75,123/500,79,134.0
1811,G3,109.75,123/500,79,134.0
1812,E-4,110.0,0.25,95,134.0
1813,C3,110.0,0.5,79,134.0
1814,C3,110.0,1.0,111,134.0
1815,B1,110.0,0.25,63,134.0
1816,E4,110.25,0.25,79,134.0
1817,A4,110.25,0.25,39,134.0
1818,B1,110.25,0.25,39,134.0
1819,E-4,110.5,0.25,95,134.0
1820,G3,110.5,19/40,75,134.0
1821,C4,110.5,19/40,75,134.0
1822,E4,110.5,19/40,75,134.0
1823,G4,110.5,19/40,75,134.0
1824,E2,110.5,0.25,71,134.0
1825,G#2,110.5,0.25,71,134.0
1826,A4,110.75,0.25,63,134.0
1827,E4,110.75,0.25,87,134.0
1828,E4,110.75,0.25,87,134.0
1829,B3,111.0,0.25,79,134.0
1830,G2,111.0,0.25,79,134.0
1831,G2,111.0,0.5,111,134.0
1832,B1,111.0,0.25,63,134.0
1833,C4,111.25,0.25,95,134.0
1834,E4,111.25,121/500,79,134.0
1835,C4,111.25,121/500,79,134.0
1836,G3,111.25,121/500,79,134.0
1837,A4,111.25,0.25,39,134.0
1838,B1,111.25,0.25,39,134.0
1839,C3,111.5,0.5,111,134.0
1840,E4,111.5,0.25,87,134.0
1841,B3,111.5,0.25,87,134.0
1842,G3,111.5,119/500,75,134.0
1843,C4,111.5,119/500,75,134.0
1844,E4,111.5,119/500,75,134.0
1845,G4,111.5,119/500,75,134.0
1846,E2,111.5,0.25,71,134.0
1847,G#2,111.5,0.25,71,134.0
1848,B3,111.75,0.25,79,134.0
1849,A4,111.75,0.25,63,134.0
1850,C4,111.75,123/500,79,134.0
1851,G3,111.75,123/500,79,134.0
1852,B3,112.0,0.25,95,134.0
1853,B2,112.0,0.5,79,134.0
1854,B2,112.0,1.0,111,134.0
1855,B1,112.0,0.25,63,134.0
1856,B4,112.0,3.0,58,134.0
1857,F#4,112.0,3.0,58,134.0
1858,E-4,112.0,3.0,58,134.0
1859,B3,112.25,0.25,79,134.0
1860,A4,112.25,0.25,39,134.0
1861,B1,112.25,0.25,39,134.0
1862,C#4,112.5,0.25,95,134.0
1863,F#3,112.5,19/40,75,134.0
1864,B3,112.5,19/40,75,134.0
1865,E-4,112.5,19/40,75,134.0
1866,F#4,112.5,19/40,75,134.0
1867,E2,112.5,0.25,71,134.0
1868,G#2,112.5,0.25,71,134.0
1869,E4,112.75,0.25,79,134.0
1870,A4,112.75,0.25,63,134.0
1871,D4,113.0,0.25,95,134.0
1872,F#2,113.0,0.25,79,134.0
1873,A2,113.0,1.0,111,134.0
1874,B1,113.0,0.25,63,134.0
1875,C#4,113.25,0.25,95,134.0
1876,E-4,113.25,121/500,79,134.0
1877,B3,113.25,121/500,79,134.0
1878,F#3,113.25,121/500,79,134.0
1879,A4,113.25,0.25,39,134.0
1880,B1,113.25,0.25,39,134.0
1881,E4,113.5,0.25,79,134.0
1882,F#3,113.5,119/500,75,134.0
1883,B3,113.5,119/500,75,134.0
1884,E-4,113.5,119/500,75,134.0
1885,F#4,113.5,119/500,75,134.0
1886,E2,113.5,0.25,71,134.0
1887,G#2,113.5,0.25,71,134.0
1888,B3,113.75,0.25,79,134.0
1889,A4,113.75,0.25,63,134.0
1890,B3,113.75,123/500,79,134.0
1891,F#3,113.75,123/500,79,134.0
1892,B3,114.0,0.5,95,134.0
1893,B2,114.0,0.5,79,134.0
1894,G#2,114.0,1.0,111,134.0
1895,B1,114.0,0.25,63,134.0
1896,A4,114.25,0.25,39,134.0
1897,B1,114.25,0.25,39,134.0
1898,E4,114.5,0.5,87,134.0
1899,B3,114.5,0.5,87,134.0
1900,F#3,114.5,19/40,75,134.0
1901,B3,114.5,19/40,75,134.0
1902,E-4,114.5,19/40,75,134.0
1903,F#4,114.5,19/40,75,134.0
1904,E2,114.5,0.25,71,134.0
1905,G#2,114.5,0.25,71,134.0
1906,A4,114.75,0.25,63,134.0
1907,F#2,115.0,0.25,79,134.0
1908,F#2,115.0,1.0,111,134.0
1909,B1,115.0,0.25,63,134.0
1910,E4,115.0,0.5,87,134.0
1911,C#4,115.0,0.5,87,134.0
1912,E-4,115.25,121/500,79,134.0
1913,B3,115.25,121/500,79,134.0
1914,F#3,115.25,121/500,79,134.0
1915,A4,115.25,0.25,39,134.0
1916,B1,115.25,0.25,39,134.0
1917,E4,115.5,0.5,87,134.0
1918,E4,115.5,0.5,87,134.0
1919,F#3,115.5,119/500,75,134.0
1920,B3,115.5,119/500,75,134.0
1921,E-4,115.5,119/500,75,134.0
1922,F#4,115.5,119/500,75,134.0
1923,E2,115.5,0.25,71,134.0
1924,G#2,115.5,0.25,71,134.0
1925,A4,115.75,0.25,63,134.0
1926,B3,115.75,123/500,79,134.0
1927,F#3,115.75,123/500,79,134.0
1928,B4,116.0,0.25,95,134.0
1929,B2,116.0,0.5,95,134.0
1930,E2,116.0,1.0,111,134.0
1931,B1,116.0,0.25,63,134.0
1932,A4,116.25,0.25,70,134.0
1933,A4,116.25,0.25,39,134.0
1934,B1,116.25,0.25,39,134.0
1935,G4,116.5,0.25,95,134.0
1936,E3,116.5,19/40,83,134.0
1937,G#3,116.5,19/40,83,134.0
1938,B3,116.5,19/40,83,134.0
1939,E4,116.5,19/40,83,134.0
1940,E2,116.5,0.25,71,134.0
1941,G#2,116.5,0.25,71,134.0
1942,E4,116.75,0.25,79,134.0
1943,A4,116.75,0.25,63,134.0
1944,G#4,117.0,0.25,95,134.0
1945,E2,117.0,0.25,95,134.0
1946,B1,117.0,1.0,111,134.0
1947,B1,117.0,0.25,63,134.0
1948,E4,117.25,0.25,79,134.0
1949,B3,117.25,121/500,79,134.0
1950,G#3,117.25,121/500,79,134.0
1951,E3,117.25,121/500,79,134.0
1952,A4,117.25,0.25,39,134.0
1953,B1,117.25,0.25,39,134.0
1954,F#4,117.5,0.25,95,134.0
1955,G#3,117.5,121/500,90,134.0
1956,B3,117.5,121/500,90,134.0
1957,E4,117.5,121/500,90,134.0
1958,E2,117.5,0.25,71,134.0
1959,G#2,117.5,0.25,71,134.0
1960,E-4,117.75,0.25,95,134.0
1961,A4,117.75,0.25,63,134.0
1962,G#3,117.75,123/500,95,134.0
1963,E3,117.75,123/500,95,134.0
1964,E4,118.0,0.25,79,134.0
1965,B2,118.0,0.5,95,134.0
1966,E2,118.0,1.0,111,134.0
1967,B1,118.0,0.25,63,134.0
1968,B3,118.25,0.25,79,134.0
1969,A4,118.25,0.25,39,134.0
1970,B1,118.25,0.25,39,134.0
1971,D4,118.5,0.25,95,134.0
1972,E3,118.5,19/40,83,134.0
1973,G#3,118.5,19/40,83,134.0
1974,B3,118.5,19/40,83,134.0
1975,E4,118.5,19/40,83,134.0
1976,E2,118.5,0.25,71,134.0
1977,G#2,118.5,0.25,71,134.0
1978,B3,118.75,0.25,79,134.0
1979,A4,118.75,0.25,63,134.0
1980,C#4,119.0,0.25,95,134.0
1981,E2,119.0,0.25,95,134.0
1982,F#2,119.0,0.5,111,134.0
1983,B1,119.0,0.25,63,134.0
1984,B-3,119.25,0.25,95,134.0
1985,B3,119.25,121/500,79,134.0
1986,G#3,119.25,121/500,79,134.0
1987,E3,119.25,121/500,79,134.0
1988,A4,119.25,0.25,39,134.0
1989,B1,119.25,0.25,39,134.0
1990,B3,119.5,0.25,79,134.0
1991,G#2,119.5,0.5,111,134.0
1992,E3,119.5,119/500,91,134.0
1993,G#3,119.5,119/500,91,134.0
1994,B3,119.5,119/500,91,134.0
1995,E4,119.5,119/500,91,134.0
1996,E2,119.5,0.25,71,134.0
1997,G#2,119.5,0.25,71,134.0
1998,G3,119.75,0.25,79,134.0
1999,A4,119.75,0.25,63,134.0
2000,G#3,119.75,123/500,95,134.0
2001,E3,119.75,123/500,95,134.0
2002,A3,120.0,0.25,95,134.0
2003,A2,120.0,0.5,95,134.0
2004,A2,120.0,1.0,111,134.0
2005,B1,120.0,0.25,63,134.0
2006,B3,120.25,0.25,79,134.0
2007,A4,120.25,0.25,39,134.0
2008,B1,120.25,0.25,39,134.0
2009,C#4,120.5,0.25,95,134.0
2010,G3,120.5,483/1000,79,134.0
2011,C#4,120.5,483/1000,79,134.0
2012,E4,120.5,483/1000,79,134.0
2013,E2,120.5,0.25,71,134.0
2014,G#2,120.5,0.25,71,134.0
2015,D4,120.75,0.25,95,134.0
2016,A4,120.75,0.25,63,134.0
2017,E4,121.0,0.25,79,134.0
2018,E3,121.0,0.25,95,134.0
2019,E2,121.0,1.0,111,134.0
2020,B1,121.0,0.25,63,134.0
2021,F#4,121.25,0.25,95,134.0
2022,G3,121.25,0.25,79,134.0
2023,A4,121.25,0.25,39,134.0
2024,B1,121.25,0.25,39,134.0
2025,G4,121.5,0.25,95,134.0
2026,C#4,121.5,123/500,87,134.0
2027,E4,121.5,123/500,87,134.0
2028,E2,121.5,0.25,71,134.0
2029,G#2,121.5,0.25,71,134.0
2030,E4,121.75,0.25,79,134.0
2031,A4,121.75,0.25,63,134.0
2032,C#4,121.75,123/500,95,134.0
2033,G3,121.75,123/500,95,134.0
2034,F#4,122.0,0.25,95,134.0
2035,A2,122.0,0.5,95,134.0
2036,A2,122.0,1.0,111,134.0
2037,B1,122.0,0.25,63,134.0
2038,E-4,122.25,0.25,95,134.0
2039,A4,122.25,0.25,39,134.0
2040,B1,122.25,0.25,39,134.0
2041,E4,122.5,0.25,79,134.0
2042,G3,122.5,483/1000,79,134.0
2043,C#4,122.5,483/1000,79,134.0
2044,E4,122.5,483/1000,79,134.0
2045,E2,122.5,0.25,71,134.0
2046,G#2,122.5,0.25,71,134.0
2047,B3,122.75,0.25,79,134.0
2048,A4,122.75,0.25,63,134.0
2049,C4,123.0,0.25,95,134.0
2050,E3,123.0,0.25,95,134.0
2051,G#2,123.0,0.5,111,134.0
2052,B1,123.0,0.25,63,134.0
2053,C#4,123.25,0.25,95,134.0
2054,G3,123.25,0.25,79,134.0
2055,A4,123.25,0.25,39,134.0
2056,B1,123.25,0.25,39,134.0
2057,E4,123.5,0.5,79,134.0
2058,F#2,123.5,0.5,111,134.0
2059,C#4,123.5,123/500,87,134.0
2060,E4,123.5,123/500,87,134.0
2061,E2,123.5,0.25,71,134.0
2062,G#2,123.5,0.25,71,134.0
2063,A4,123.75,0.25,63,134.0
2064,C#4,123.75,123/500,95,134.0
2065,G3,123.75,123/500,95,134.0
2066,B4,124.0,0.25,95,134.0
2067,B2,124.0,0.5,95,134.0
2068,E2,124.0,1.0,111,134.0
2069,B1,124.0,0.25,63,134.0
2070,A4,124.25,0.25,70,134.0
2071,A4,124.25,0.25,39,134.0
2072,B1,124.25,0.25,39,134.0
2073,G4,124.5,0.25,95,134.0
2074,E3,124.5,19/40,83,134.0
2075,G#3,124.5,19/40,83,134.0
2076,B3,124.5,19/40,83,134.0
2077,E4,124.5,19/40,83,134.0
2078,E2,124.5,0.25,71,134.0
2079,G#2,124.5,0.25,71,134.0
2080,E4,124.75,0.25,79,134.0
2081,A4,124.75,0.25,63,134.0
2082,G#4,125.0,0.25,95,134.0
2083,E2,125.0,0.25,95,134.0
2084,B1,125.0,1.0,111,134.0
2085,B1,125.0,0.25,63,134.0
2086,E4,125.25,0.25,79,134.0
2087,B3,125.25,121/500,79,134.0
2088,G#3,125.25,121/500,79,134.0
2089,E3,125.25,121/500,79,134.0
2090,A4,125.25,0.25,39,134.0
2091,B1,125.25,0.25,39,134.0
2092,F#4,125.5,0.25,95,134.0
2093,G#3,125.5,121/500,90,134.0
2094,B3,125.5,121/500,90,134.0
2095,E4,125.5,121/500,90,134.0
2096,E2,125.5,0.25,71,134.0
2097,G#2,125.5,0.25,71,134.0
2098,E-4,125.75,0.25,95,134.0
2099,A4,125.75,0.25,63,134.0
2100,G#3,125.75,123/500,95,134.0
2101,E3,125.75,123/500,95,134.0
2102,E4,126.0,0.25,79,134.0
2103,B2,126.0,0.5,95,134.0
2104,E2,126.0,1.0,111,134.0
2105,B1,126.0,0.25,63,134.0
2106,B3,126.25,0.25,79,134.0
2107,A4,126.25,0.25,39,134.0
2108,B1,126.25,0.25,39,134.0
2109,D4,126.5,0.25,95,134.0
2110,E3,126.5,19/40,83,134.0
2111,G#3,126.5,19/40,83,134.0
2112,B3,126.5,19/40,83,134.0
2113,E4,126.5,19/40,83,134.0
2114,E2,126.5,0.25,71,134.0
2115,G#2,126.5,0.25,71,134.0
2116,B3,126.75,0.25,79,134.0
2117,A4,126.75,0.25,63,134.0
2118,C#4,127.0,0.25,95,134.0
2119,E2,127.0,0.25,95,134.0
2120,B1,127.0,0.5,111,134.0
2121,B1,127.0,0.25,63,134.0
2122,B-3,127.25,0.25,95,134.0
2123,B3,127.25,121/500,79,134.0
2124,G#3,127.25,121/500,79,134.0
2125,E3,127.25,121/500,79,134.0
2126,A4,127.25,0.25,39,134.0
2127,B1,127.25,0.25,39,134.0
2128,B3,127.5,0.25,79,134.0
2129,E2,127.5,0.5,111,134.0
2130,E3,127.5,119/500,91,134.0
2131,G#3,127.5,119/500,91,134.0
2132,B3,127.5,119/500,91,134.0
2133,E4,127.5,119/500,91,134.0
2134,E2,127.5,0.25,71,134.0
2135,G#2,127.5,0.25,71,134.0
2136,G3,127.75,0.25,79,134.0
2137,A4,127.75,0.25,63,134.0
2138,G#3,127.75,123/500,95,134.0
2139,E3,127.75,123/500,95,134.0
2140,B-3,128.0,0.25,95,134.0
2141,C#3,128.0,0.5,95,134.0
2142,F#2,128.0,1.0,111,134.0
2143,B1,128.0,0.25,63,134.0
2144,F#4,128.25,0.25,95,134.0
2145,A4,128.25,0.25,39,134.0
2146,B1,128.25,0.25,39,134.0
2147,C#4,128.5,0.25,95,134.0
2148,B-3,128.5,483/1000,79,134.0
2149,C#4,128.5,483/1000,79,134.0
2150,F#4,128.5,483/1000,79,134.0
2151,E2,128.5,0.25,71,134.0
2152,G#2,128.5,0.25,71,134.0
2153,E4,128.75,0.25,79,134.0
2154,A4,128.75,0.25,63,134.0
2155,F#4,129.0,0.25,95,134.0
2156,F#3,129.0,0.25,95,134.0
2157,C#2,129.0,1.0,111,134.0
2158,B1,129.0,0.25,63,134.0
2159,B-3,129.25,0.25,95,134.0
2160,C#4,129.25,123/500,79,134.0
2161,B-3,129.25,123/500,79,134.0
2162,A4,129.25,0.25,39,134.0
2163,B1,129.25,0.25,39,134.0
2164,E4,129.5,0.25,79,134.0
2165,C#4,129.5,123/500,87,134.0
2166,F#4,129.5,123/500,87,134.0
2167,E2,129.5,0.25,71,134.0
2168,G#2,129.5,0.25,71,134.0
2169,B3,129.75,0.25,79,134.0
2170,A4,129.75,0.25,63,134.0
2171,C#4,129.75,123/500,95,134.0
2172,B-3,129.75,123/500,95,134.0
2173,C#4,130.0,0.25,95,134.0
2174,B2,130.0,0.5,95,134.0
2175,B1,130.0,0.5,111,134.0
2176,B1,130.0,0.25,63,134.0
2177,B3,130.25,0.25,79,134.0
2178,A4,130.25,0.25,39,134.0
2179,B1,130.25,0.25,39,134.0
2180,D4,130.5,0.25,95,134.0
2181,B1,130.5,0.5,111,134.0
2182,A3,130.5,483/1000,79,134.0
2183,E-4,130.5,483/1000,79,134.0
2184,F#4,130.5,483/1000,79,134.0
2185,E2,130.5,0.25,71,134.0
2186,G#2,130.5,0.25,71,134.0
2187,A4,130.75,0.25,95,134.0
2188,A4,130.75,0.25,63,134.0
2189,B3,131.0,0.25,79,134.0
2190,F#3,131.0,0.25,95,134.0
2191,C#2,131.0,0.5,111,134.0
2192,B1,131.0,0.25,63,134.0
2193,E-4,131.25,0.25,95,134.0
2194,E-4,131.25,123/500,79,134.0
2195,A3,131.25,123/500,79,134.0
2196,A4,131.25,0.25,39,134.0
2197,B1,131.25,0.25,39,134.0
2198,E4,131.5,0.25,79,134.0
2199,E-2,131.5,0.5,111,134.0
2200,E-4,131.5,123/500,87,134.0
2201,F#4,131.5,123/500,87,134.0
2202,E2,131.5,0.25,71,134.0
2203,G#2,131.5,0.25,71,134.0
2204,B3,131.75,0.25,79,134.0
2205,A4,131.75,0.25,63,134.0
2206,E-4,131.75,123/500,95,134.0
2207,A3,131.75,123/500,95,134.0
2208,B4,132.0,0.25,95,134.0
2209,B2,132.0,0.5,95,134.0
2210,E2,132.0,1.0,111,134.0
2211,B1,132.0,0.25,63,134.0
2212,A4,132.25,0.25,70,134.0
2213,A4,132.25,0.25,39,134.0
2214,B1,132.25,0.25,39,134.0
2215,G4,132.5,0.25,95,134.0
2216,E3,132.5,19/40,83,134.0
2217,G#3,132.5,19/40,83,134.0
2218,B3,132.5,19/40,83,134.0
2219,E4,132.5,19/40,83,134.0
2220,E2,132.5,0.25,71,134.0
2221,G#2,132.5,0.25,71,134.0
2222,E4,132.75,0.25,79,134.0
2223,A4,132.75,0.25,63,134.0
2224,G#4,133.0,0.25,95,134.0
2225,E2,133.0,0.25,95,134.0
2226,B1,133.0,1.0,111,134.0
2227,B1,133.0,0.25,63,134.0
2228,E4,133.25,0.25,79,134.0
2229,B3,133.25,121/500,79,134.0
2230,G#3,133.25,121/500,79,134.0
2231,E3,133.25,121/500,79,134.0
2232,A4,133.25,0.25,39,134.0
2233,B1,133.25,0.25,39,134.0
2234,F#4,133.5,0.25,95,134.0
2235,G#3,133.5,121/500,90,134.0
2236,B3,133.5,121/500,90,134.0
2237,E4,133.5,121/500,90,134.0
2238,E2,133.5,0.25,71,134.0
2239,G#2,133.5,0.25,71,134.0
2240,E-4,133.75,0.25,95,134.0
2241,A4,133.75,0.25,63,134.0
2242,G#3,133.75,123/500,95,134.0
2243,E3,133.75,123/500,95,134.0
2244,E4,134.0,0.25,79,134.0
2245,B2,134.0,0.5,95,134.0
2246,E2,134.0,1.0,111,134.0
2247,B1,134.0,0.25,63,134.0
2248,B3,134.25,0.25,79,134.0
2249,A4,134.25,0.25,39,134.0
2250,B1,134.25,0.25,39,134.0
2251,D4,134.5,0.25,95,134.0
2252,E3,134.5,19/40,83,134.0
2253,G#3,134.5,19/40,83,134.0
2254,B3,134.5,19/40,83,134.0
2255,E4,134.5,19/40,83,134.0
2256,E2,134.5,0.25,71,134.0
2257,G#2,134.5,0.25,71,134.0
2258,B3,134.75,0.25,79,134.0
2259,A4,134.75,0.25,63,134.0
2260,C#4,135.0,0.25,95,134.0
2261,E2,135.0,0.25,95,134.0
2262,F#2,135.0,0.5,111,134.0
2263,B1,135.0,0.25,63,134.0
2264,B-3,135.25,0.25,95,134.0
2265,B3,135.25,121/500,79,134.0
2266,G#3,135.25,121/500,79,134.0
2267,E3,135.25,121/500,79,134.0
2268,A4,135.25,0.25,39,134.0
2269,B1,135.25,0.25,39,134.0
2270,B3,135.5,0.25,79,134.0
2271,G#2,135.5,0.5,111,134.0
2272,E3,135.5,119/500,91,134.0
2273,G#3,135.5,119/500,91,134.0
2274,B3,135.5,119/500,91,134.0
2275,E4,135.5,119/500,91,134.0
2276,E2,135.5,0.25,71,134.0
2277,G#2,135.5,0.25,71,134.0
2278,G3,135.75,0.25,95,134.0
2279,A4,135.75,0.25,63,134.0
2280,G#3,135.75,123/500,95,134.0
2281,E3,135.75,123/500,95,134.0
2282,A3,136.0,0.25,95,134.0
2283,A2,136.0,0.5,95,134.0
2284,A2,136.0,1.0,111,134.0
2285,B1,136.0,0.25,63,134.0
2286,B3,136.25,0.25,79,134.0
2287,A4,136.25,0.25,39,134.0
2288,B1,136.25,0.25,39,134.0
2289,C#4,136.5,0.25,95,134.0
2290,G3,136.5,483/1000,79,134.0
2291,C#4,136.5,483/1000,79,134.0
2292,E4,136.5,483/1000,79,134.0
2293,E2,136.5,0.25,71,134.0
2294,G#2,136.5,0.25,71,134.0
2295,D4,136.75,0.25,95,134.0
2296,A4,136.75,0.25,63,134.0
2297,E4,137.0,0.25,79,134.0
2298,E3,137.0,0.25,95,134.0
2299,E2,137.0,1.0,111,134.0
2300,B1,137.0,0.25,63,134.0
2301,F#4,137.25,0.25,95,134.0
2302,G3,137.25,0.25,79,134.0
2303,A4,137.25,0.25,39,134.0
2304,B1,137.25,0.25,39,134.0
2305,G4,137.5,0.25,95,134.0
2306,C#4,137.5,123/500,87,134.0
2307,E4,137.5,123/500,87,134.0
2308,E2,137.5,0.25,71,134.0
2309,G#2,137.5,0.25,71,134.0
2310,E4,137.75,0.25,79,134.0
2311,A4,137.75,0.25,63,134.0
2312,C#4,137.75,123/500,95,134.0
2313,G3,137.75,123/500,95,134.0
2314,F#4,138.0,0.25,95,134.0
2315,A2,138.0,0.5,95,134.0
2316,A2,138.0,1.0,111,134.0
2317,B1,138.0,0.25,63,134.0
2318,E-4,138.25,0.25,95,134.0
2319,A4,138.25,0.25,39,134.0
2320,B1,138.25,0.25,39,134.0
2321,E4,138.5,0.25,79,134.0
2322,G3,138.5,483/1000,79,134.0
2323,C#4,138.5,483/1000,79,134.0
2324,E4,138.5,483/1000,79,134.0
2325,E2,138.5,0.25,71,134.0
2326,G#2,138.5,0.25,71,134.0
2327,B3,138.75,0.25,79,134.0
2328,A4,138.75,0.25,63,134.0
2329,C4,139.0,0.25,95,134.0
2330,E3,139.0,0.25,95,134.0
2331,G#2,139.0,0.5,111,134.0
2332,B1,139.0,0.25,63,134.0
2333,C#4,139.25,0.25,95,134.0
2334,G3,139.25,0.25,79,134.0
2335,A4,139.25,0.25,39,134.0
2336,B1,139.25,0.25,39,134.0
2337,E4,139.5,0.5,79,134.0
2338,F#2,139.5,0.5,111,134.0
2339,C#4,139.5,123/500,87,134.0
2340,E4,139.5,123/500,87,134.0
2341,E2,139.5,0.5,71,134.0
2342,G#2,139.5,0.5,71,134.0
2343,C#4,139.75,123/500,95,134.0
2344,G3,139.75,123/500,95,134.0
2345,E4,140.0,0.25,95,134.0
2346,E2,140.0,1.0,111,134.0
2347,E2,140.0,0.984,79,134.0
2348,B2,140.0,0.984,79,134.0
2349,E2,140.0,1.0,71,134.0
2350,G#2,140.0,1.0,71,134.0
2351,E4,140.25,0.25,79,134.0
2352,E-4,140.5,0.25,95,134.0
2353,E4,140.75,0.25,79,134.0
2354,B3,141.0,0.25,79,134.0
2355,E4,141.25,0.25,95,134.0
2356,E4,141.5,0.25,79,134.0
2357,B3,141.75,0.25,79,134.0
2358,G4,142.0,0.25,95,134.0
2359,E2,142.0,0.5,127,134.0
2360,E2,142.0,0.5,111,134.0
2361,E4,142.25,0.25,79,134.0
2362,G#4,142.5,0.25,95,134.0
2363,G#2,142.5,0.5,127,134.0
2364,G#2,142.5,0.5,111,134.0
2365,E4,142.75,0.25,79,134.0
2366,F#4,143.0,0.25,95,134.0
2367,A2,143.0,0.5,127,134.0
2368,A2,143.0,0.5,111,134.0
2369,E4,143.25,0.25,95,134.0
2370,E4,143.5,0.25,79,134.0
2371,B-2,143.5,0.5,127,134.0
2372,B-2,143.5,0.5,111,134.0
2373,B3,143.75,0.25,79,134.0
2374,B-3,144.0,0.25,79,134.0
2375,B2,144.0,0.5,95,134.0
2376,B2,144.0,1.0,111,134.0
2377,B1,144.0,0.25,63,134.0
2378,B3,144.25,0.25,79,134.0
2379,A4,144.25,0.25,39,134.0
2380,B1,144.25,0.25,39,134.0
2381,B3,144.5,0.25,79,134.0
2382,E-3,144.5,19/40,83,134.0
2383,A3,144.5,19/40,83,134.0
2384,B3,144.5,19/40,83,134.0
2385,F#4,144.5,19/40,83,134.0
2386,E2,144.5,0.25,71,134.0
2387,G#2,144.5,0.25,71,134.0
2388,E4,144.75,0.25,79,134.0
2389,A4,144.75,0.25,63,134.0
2390,B3,145.0,0.25,79,134.0
2391,F#2,145.0,0.25,95,134.0
2392,B1,145.0,1.0,111,134.0
2393,B1,145.0,0.25,63,134.0
2394,G3,145.25,0.25,95,134.0
2395,B3,145.25,121/500,79,134.0
2396,A3,145.25,121/500,79,134.0
2397,E-3,145.25,121/500,79,134.0
2398,A4,145.25,0.25,39,134.0
2399,B1,145.25,0.25,39,134.0
2400,E4,145.5,0.25,58,134.0
2401,G#3,145.5,0.25,58,134.0
2402,A3,145.5,121/500,90,134.0
2403,B3,145.5,121/500,90,134.0
2404,F#4,145.5,121/500,90,134.0
2405,E2,145.5,0.25,71,134.0
2406,G#2,145.5,0.25,71,134.0
2407,B3,145.75,0.25,79,134.0
2408,A4,145.75,0.25,63,134.0
2409,A3,145.75,123/500,95,134.0
2410,E-3,145.75,123/500,95,134.0
2411,E3,146.0,0.5,95,134.0
2412,B2,146.0,0.5,95,134.0
2413,E2,146.0,1.0,111,134.0
2414,B1,146.0,0.25,63,134.0
2415,A4,146.25,0.25,39,134.0
2416,B1,146.25,0.25,39,134.0
2417,E4,146.5,0.5,68,134.0
2418,B3,146.5,0.5,68,134.0
2419,G#3,146.5,0.5,68,134.0
2420,E3,146.5,19/40,83,134.0
2421,G#3,146.5,19/40,83,134.0
2422,B3,146.5,19/40,83,134.0
2423,E4,146.5,19/40,83,134.0
2424,E2,146.5,0.25,71,134.0
2425,G#2,146.5,0.25,71,134.0
2426,A4,146.75,0.25,63,134.0
2427,E3,147.0,7/100,95,134.0
2428,E2,147.0,1.0,95,134.0
2429,B1,147.0,1.0,111,134.0
2430,E2,147.0,1.0,71,134.0
2431,G#2,147.0,1.0,71,134.0
2432,D3,148.0,0.125,95,134.0
2433,D3,148.0,0.125,95,134.0
2434,E2,148.0,2.0,111,134.0
2435,B1,148.0,2.0,95,134.0
2436,E3,148.125,1.75,95,134.0
2437,E3,148.125,1.75,95,134.0
2438,D3,150.0,0.125,95,134.0
2439,D3,150.0,0.125,95,134.0
2440,E2,150.0,2.0,111,134.0
2441,B1,150.0,2.0,95,134.0
2442,E3,150.125,1.75,95,134.0
2443,E3,150.125,1.75,95,134.0
2444,D3,152.0,0.125,95,134.0
2445,E2,152.0,1.0,111,134.0
2446,B1,152.0,1.0,95,134.0
2447,F#3,152.0,0.125,95,134.0
2448,D3,152.0,0.125,95,134.0
2449,E3,152.125,0.75,95,134.0
2450,G#3,152.125,0.75,95,134.0
2451,E3,152.125,0.75,95,134.0
2452,D3,153.0,1.0,95,134.0
2453,E2,153.0,1.0,111,134.0
2454,B1,153.0,1.0,95,134.0
2455,F#3,153.0,1.0,95,134.0
2456,D3,153.0,1.0,95,134.0
2457,B2,154.0,0.25,95,134.0
2458,B2,154.0,0.5,95,134.0
2459,E2,154.0,1.0,111,134.0
2460,B1,154.0,0.25,63,134.0
2461,A2,154.25,0.75,70,134.0
2462,A4,154.25,0.25,39,134.0
2463,B1,154.25,0.25,39,134.0
2464,A2,154.5,0.5,70,134.0
2465,E2,154.5,0.25,47,134.0
2466,A4,154.75,0.25,63,134.0
2467,G2,155.0,1.0,95,134.0
2468,G2,155.0,1.0,95,134.0
2469,E2,155.0,1.0,111,134.0
2470,B1,155.0,0.25,63,134.0
2471,A4,155.25,0.25,39,134.0
2472,B1,155.25,0.25,39,134.0
2473,E2,155.5,0.25,47,134.0
2474,A4,155.75,0.25,63,134.0
2475,E2,156.0,1.5,95,134.0
2476,E3,156.0,0.25,95,134.0
2477,B2,156.0,0.5,95,134.0
2478,E2,156.0,1.0,111,134.0
2479,B1,156.0,0.25,63,134.0
2480,F#3,156.25,0.25,95,134.0
2481,A4,156.25,0.25,39,134.0
2482,B1,156.25,0.25,39,134.0
2483,G#3,156.5,0.25,95,134.0
2484,E3,156.5,19/40,83,134.0
2485,G#3,156.5,19/40,83,134.0
2486,B3,156.5,19/40,83,134.0
2487,E4,156.5,19/40,83,134.0
2488,E2,156.5,0.25,71,134.0
2489,G#2,156.5,0.25,71,134.0
2490,A3,156.75,0.25,95,134.0
2491,A4,156.75,0.25,63,134.0
2492,B3,157.0,0.25,95,134.0
2493,E2,157.0,0.25,95,134.0
2494,B1,157.0,1.0,111,134.0
2495,B1,157.0,0.25,63,134.0
2496,C#4,157.25,0.25,95,134.0
2497,B3,157.25,121/500,79,134.0
2498,G#3,157.25,121/500,79,134.0
2499,E3,157.25,121/500,79,134.0
2500,A4,157.25,0.25,39,134.0
2501,B1,157.25,0.25,39,134.0
2502,D4,157.5,0.25,95,134.0
2503,E3,157.5,1.469,71,134.0
2504,G#3,157.5,1.469,71,134.0
2505,G#3,157.5,121/500,90,134.0
2506,B3,157.5,121/500,90,134.0
2507,E4,157.5,121/500,90,134.0
2508,E2,157.5,0.25,71,134.0
2509,G#2,157.5,0.25,71,134.0
2510,D4,157.562,1.406,63,134.0
2511,F#4,157.562,1.406,63,134.0
2512,B4,157.625,1.375,63,134.0
2513,E4,157.75,0.25,95,134.0
2514,A4,157.75,0.25,63,134.0
2515,G#3,157.75,123/500,95,134.0
2516,E3,157.75,123/500,95,134.0
2517,F#4,158.0,0.25,95,134.0
2518,B2,158.0,0.5,95,134.0
2519,E2,158.0,1.0,111,134.0
2520,B1,158.0,0.25,63,134.0
2521,G#4,158.25,0.25,95,134.0
2522,A4,158.25,0.25,39,134.0
2523,B1,158.25,0.25,39,134.0
2524,A4,158.5,0.25,95,134.0
2525,E3,158.5,19/40,83,134.0
2526,G#3,158.5,19/40,83,134.0
2527,B3,158.5,19/40,83,134.0
2528,E4,158.5,19/40,83,134.0
2529,E2,158.5,0.25,71,134.0
2530,G#2,158.5,0.25,71,134.0
2531,B4,158.75,0.25,95,134.0
2532,A4,158.75,0.25,63,134.0
2533,E2,159.0,1.0,95,134.0
2534,C#5,159.0,0.25,95,134.0
2535,E2,159.0,0.25,95,134.0
2536,F#2,159.0,0.5,111,134.0
2537,B1,159.0,0.25,63,134.0
2538,D5,159.25,0.25,95,134.0
2539,B3,159.25,121/500,79,134.0
2540,G#3,159.25,121/500,79,134.0
2541,E3,159.25,121/500,79,134.0
2542,A4,159.25,0.25,39,134.0
2543,B1,159.25,0.25,39,134.0
2544,E5,159.5,0.25,95,134.0
2545,G#2,159.5,0.5,111,134.0
2546,E3,159.5,119/500,91,134.0
2547,G#3,159.5,119/500,91,134.0
2548,B3,159.5,119/500,91,134.0
2549,E4,159.5,119/500,91,134.0
2550,E2,159.5,0.25,71,134.0
2551,G#2,159.5,0.25,71,134.0
2552,F#5,159.75,0.25,95,134.0
2553,A4,159.75,0.25,63,134.0
2554,G#3,159.75,123/500,95,134.0
2555,E3,159.75,123/500,95,134.0
2556,A2,160.0,1.5,95,134.0
2557,G5,160.0,0.25,95,134.0
2558,A2,160.0,0.5,95,134.0
2559,A2,160.0,1.0,111,134.0
2560,B1,160.0,0.25,63,134.0
2561,E5,160.25,0.25,95,134.0
2562,A4,160.25,0.25,39,134.0
2563,B1,160.25,0.25,39,134.0
2564,F#5,160.5,0.25,95,134.0
2565,G3,160.5,483/1000,79,134.0
2566,C#4,160.5,483/1000,79,134.0
2567,E4,160.5,483/1000,79,134.0
2568,E2,160.5,0.25,71,134.0
2569,G#2,160.5,0.25,71,134.0
2570,D5,160.75,0.25,95,134.0
2571,A4,160.75,0.25,63,134.0
2572,E5,161.0,0.25,95,134.0
2573,E3,161.0,0.25,95,134.0
2574,E2,161.0,1.0,111,134.0
2575,B1,161.0,0.25,63,134.0
2576,C#5,161.25,0.25,95,134.0
2577,G3,161.25,0.25,79,134.0
2578,A4,161.25,0.25,39,134.0
2579,B1,161.25,0.25,39,134.0
2580,D5,161.5,0.25,95,134.0
2581,E3,161.5,1.469,63,134.0
2582,A3,161.5,1.469,63,134.0
2583,C#4,161.5,123/500,87,134.0
2584,E4,161.5,123/500,87,134.0
2585,E2,161.5,0.25,71,134.0
2586,G#2,161.5,0.25,71,134.0
2587,C#4,161.562,1.406,63,134.0
2588,G4,161.562,1.406,63,134.0
2589,B4,161.75,0.25,95,134.0
2590,A4,161.75,0.25,63,134.0
2591,C#4,161.75,123/500,95,134.0
2592,G3,161.75,123/500,95,134.0
2593,C#5,162.0,0.25,95,134.0
2594,A2,162.0,0.5,95,134.0
2595,A2,162.0,1.0,111,134.0
2596,B1,162.0,0.25,63,134.0
2597,B-4,162.25,0.25,95,134.0
2598,A4,162.25,0.25,39,134.0
2599,B1,162.25,0.25,39,134.0
2600,B4,162.5,0.25,95,134.0
2601,G3,162.5,483/1000,79,134.0
2602,C#4,162.5,483/1000,79,134.0
2603,E4,162.5,483/1000,79,134.0
2604,E2,162.5,0.25,71,134.0
2605,G#2,162.5,0.25,71,134.0
2606,A4,162.75,0.25,95,134.0
2607,A4,162.75,0.25,63,134.0
2608,E2,163.0,1.0,95,134.0
2609,B-4,163.0,0.5,95,134.0
2610,E3,163.0,0.25,95,134.0
2611,G#2,163.0,0.5,111,134.0
2612,B1,163.0,0.25,63,134.0
2613,G3,163.25,0.25,79,134.0
2614,A4,163.25,0.25,39,134.0
2615,B1,163.25,0.25,39,134.0
2616,A4,163.5,0.5,95,134.0
2617,F#2,163.5,0.5,111,134.0
2618,C#4,163.5,123/500,87,134.0
2619,E4,163.5,123/500,87,134.0
2620,E2,163.5,0.25,71,134.0
2621,G#2,163.5,0.25,71,134.0
2622,A4,163.75,0.25,63,134.0
2623,C#4,163.75,123/500,95,134.0
2624,G3,163.75,123/500,95,134.0
2625,B-4,163.875,0.125,95,134.0
2626,G4,163.875,0.125,95,134.0
2627,E2,164.0,1.5,95,134.0
2628,B2,164.0,0.5,95,134.0
2629,E2,164.0,1.0,111,134.0
2630,B1,164.0,0.25,63,134.0
2631,B4,164.0,0.75,95,134.0
2632,G#4,164.0,0.75,95,134.0
2633,A4,164.25,0.25,39,134.0
2634,B1,164.25,0.25,39,134.0
2635,E3,164.5,19/40,83,134.0
2636,G#3,164.5,19/40,83,134.0
2637,B3,164.5,19/40,83,134.0
2638,E4,164.5,19/40,83,134.0
2639,E2,164.5,0.25,71,134.0
2640,G#2,164.5,0.25,71,134.0
2641,A4,164.75,0.25,63,134.0
2642,C#5,164.75,0.25,95,134.0
2643,A4,164.75,0.25,95,134.0
2644,E2,165.0,0.25,95,134.0
2645,B1,165.0,1.0,111,134.0
2646,B1,165.0,0.25,63,134.0
2647,B3,165.25,121/500,79,134.0
2648,G#3,165.25,121/500,79,134.0
2649,E3,165.25,121/500,79,134.0
2650,A4,165.25,0.25,39,134.0
2651,B1,165.25,0.25,39,134.0
2652,B-4,165.375,0.125,95,134.0
2653,G4,165.375,0.125,95,134.0
2654,E3,165.5,2.469,71,134.0
2655,G#3,165.5,2.469,71,134.0
2656,B4,165.5,1.0,95,134.0
2657,G#4,165.5,1.0,95,134.0
2658,G#3,165.5,121/500,90,134.0
2659,B3,165.5,121/500,90,134.0
2660,E4,165.5,121/500,90,134.0
2661,E2,165.5,0.25,71,134.0
2662,G#2,165.5,0.25,71,134.0
2663,D4,165.562,2.406,63,134.0
2664,F#4,165.562,2.406,63,134.0
2665,B4,165.625,2.375,63,134.0
2666,A4,165.75,0.25,63,134.0
2667,G#3,165.75,123/500,95,134.0
2668,E3,165.75,123/500,95,134.0
2669,B2,166.0,0.5,95,134.0
2670,E2,166.0,1.0,111,134.0
2671,B1,166.0,0.25,63,134.0
2672,A4,166.25,0.25,39,134.0
2673,B1,166.25,0.25,39,134.0
2674,C#5,166.5,0.5,95,134.0
2675,A4,166.5,0.5,95,134.0
2676,E3,166.5,19/40,83,134.0
2677,G#3,166.5,19/40,83,134.0
2678,B3,166.5,19/40,83,134.0
2679,E4,166.5,19/40,83,134.0
2680,E2,166.5,0.25,71,134.0
2681,G#2,166.5,0.25,71,134.0
2682,A4,166.75,0.25,63,134.0
2683,B-4,166.875,0.125,95,134.0
2684,G4,166.875,0.125,95,134.0
2685,E2,167.0,0.25,95,134.0
2686,B1,167.0,0.5,111,134.0
2687,B1,167.0,0.25,63,134.0
2688,B4,167.0,0.5,95,134.0
2689,G#4,167.0,0.5,95,134.0
2690,B3,167.25,121/500,79,134.0
2691,G#3,167.25,121/500,79,134.0
2692,E3,167.25,121/500,79,134.0
2693,A4,167.25,0.25,39,134.0
2694,B1,167.25,0.25,39,134.0
2695,E2,167.5,0.5,111,134.0
2696,C#5,167.5,0.5,95,134.0
2697,A4,167.5,0.5,95,134.0
2698,E3,167.5,119/500,91,134.0
2699,G#3,167.5,119/500,91,134.0
2700,B3,167.5,119/500,91,134.0
2701,E4,167.5,119/500,91,134.0
2702,E2,167.5,0.25,71,134.0
2703,G#2,167.5,0.25,71,134.0
2704,A4,167.75,0.25,63,134.0
2705,G#3,167.75,123/500,95,134.0
2706,E3,167.75,123/500,95,134.0
2707,C#5,167.875,0.125,95,134.0
2708,A4,167.875,0.125,95,134.0
2709,F#2,168.0,2.0,95,134.0
2710,C#3,168.0,0.5,95,134.0
2711,F#2,168.0,1.0,111,134.0
2712,B1,168.0,0.25,63,134.0
2713,D5,168.0,0.5,95,134.0
2714,B-4,168.0,0.5,95,134.0
2715,A4,168.25,0.25,39,134.0
2716,B1,168.25,0.25,39,134.0
2717,C#5,168.5,0.5,95,134.0
2718,A4,168.5,0.5,95,134.0
2719,B-3,168.5,483/1000,79,134.0
2720,C#4,168.5,483/1000,79,134.0
2721,F#4,168.5,483/1000,79,134.0
2722,E2,168.5,0.25,71,134.0
2723,G#2,168.5,0.25,71,134.0
2724,A4,168.75,0.25,63,134.0
2725,F#3,169.0,0.25,95,134.0
2726,C#2,169.0,1.0,111,134.0
2727,B1,169.0,0.25,63,134.0
2728,C#4,169.25,123/500,79,134.0
2729,B-3,169.25,123/500,79,134.0
2730,A4,169.25,0.25,39,134.0
2731,B1,169.25,0.25,39,134.0
2732,B4,169.5,1.0,95,134.0
2733,G#4,169.5,1.0,95,134.0
2734,C#4,169.5,123/500,87,134.0
2735,F#4,169.5,123/500,87,134.0
2736,E2,169.5,0.25,71,134.0
2737,G#2,169.5,0.25,71,134.0
2738,A4,169.75,0.25,63,134.0
2739,C#4,169.75,123/500,95,134.0
2740,B-3,169.75,123/500,95,134.0
2741,B2,170.0,2.0,63,134.0
2742,B2,170.0,0.5,95,134.0
2743,B1,170.0,0.5,111,134.0
2744,B1,170.0,0.25,63,134.0
2745,E-3,170.062,1.938,63,134.0
2746,A3,170.125,1.875,63,134.0
2747,B3,170.188,1.812,63,134.0
2748,F#4,170.25,1.75,63,134.0
2749,A4,170.25,0.25,39,134.0
2750,B1,170.25,0.25,39,134.0
2751,B3,170.5,0.5,95,134.0
2752,B1,170.5,0.5,111,134.0
2753,A3,170.5,483/1000,79,134.0
2754,E-4,170.5,483/1000,79,134.0
2755,F#4,170.5,483/1000,79,134.0
2756,E2,170.5,0.25,71,134.0
2757,G#2,170.5,0.25,71,134.0
2758,A4,170.75,0.25,63,134.0
2759,C#4,171.0,0.25,95,134.0
2760,F#3,171.0,0.25,95,134.0
2761,C#2,171.0,0.5,111,134.0
2762,B1,171.0,0.25,63,134.0
2763,E4,171.25,0.75,95,134.0
2764,E-4,171.25,123/500,79,134.0
2765,A3,171.25,123/500,79,134.0
2766,A4,171.25,0.25,39,134.0
2767,B1,171.25,0.25,39,134.0
2768,E-2,171.5,0.5,111,134.0
2769,E-4,171.5,123/500,87,134.0
2770,F#4,171.5,123/500,87,134.0
2771,E2,171.5,0.25,71,134.0
2772,G#2,171.5,0.25,71,134.0
2773,A4,171.75,0.25,63,134.0
2774,E-4,171.75,123/500,95,134.0
2775,A3,171.75,123/500,95,134.0
2776,B-4,171.875,0.125,95,134.0
2777,G4,171.875,0.125,95,134.0
2778,E2,172.0,1.5,95,134.0
2779,B2,172.0,0.5,95,134.0
2780,E2,172.0,1.0,111,134.0
2781,B1,172.0,0.25,63,134.0
2782,B4,172.0,0.5,95,134.0
2783,G#4,172.0,0.5,95,134.0
2784,A4,172.25,0.25,39,134.0
2785,B1,172.25,0.25,39,134.0
2786,C#5,172.5,0.5,95,134.0
2787,A4,172.5,0.5,95,134.0
2788,E3,172.5,19/40,83,134.0
2789,G#3,172.5,19/40,83,134.0
2790,B3,172.5,19/40,83,134.0
2791,E4,172.5,19/40,83,134.0
2792,E2,172.5,0.25,71,134.0
2793,G#2,172.5,0.25,71,134.0
2794,A4,172.75,0.25,63,134.0
2795,E2,173.0,0.25,95,134.0
2796,B1,173.0,1.0,111,134.0
2797,B1,173.0,0.25,63,134.0
2798,B4,173.0,0.5,95,134.0
2799,G#4,173.0,0.5,95,134.0
2800,B3,173.25,121/500,79,134.0
2801,G#3,173.25,121/500,79,134.0
2802,E3,173.25,121/500,79,134.0
2803,A4,173.25,0.25,39,134.0
2804,B1,173.25,0.25,39,134.0
2805,E3,173.5,1.469,71,134.0
2806,G#3,173.5,1.469,71,134.0
2807,G#3,173.5,121/500,90,134.0
2808,B3,173.5,121/500,90,134.0
2809,E4,173.5,121/500,90,134.0
2810,E2,173.5,0.25,71,134.0
2811,G#2,173.5,0.25,71,134.0
2812,D4,173.562,1.406,63,134.0
2813,F#4,173.562,1.406,63,134.0
2814,B4,173.625,1.375,63,134.0
2815,E4,173.75,0.75,79,134.0
2816,A4,173.75,0.25,63,134.0
2817,G#3,173.75,123/500,95,134.0
2818,E3,173.75,123/500,95,134.0
2819,B2,174.0,0.5,95,134.0
2820,E2,174.0,1.0,111,134.0
2821,B1,174.0,0.25,63,134.0
2822,A4,174.25,0.25,39,134.0
2823,B1,174.25,0.25,39,134.0
2824,B3,174.5,0.5,95,134.0
2825,E3,174.5,19/40,83,134.0
2826,G#3,174.5,19/40,83,134.0
2827,B3,174.5,19/40,83,134.0
2828,E4,174.5,19/40,83,134.0
2829,E2,174.5,0.25,71,134.0
2830,G#2,174.5,0.25,71,134.0
2831,A4,174.75,0.25,63,134.0
2832,E2,175.0,1.0,95,134.0
2833,C#4,175.0,0.25,95,134.0
2834,E2,175.0,0.25,95,134.0
2835,F#2,175.0,0.5,111,134.0
2836,B1,175.0,0.25,63,134.0
2837,E4,175.25,0.75,95,134.0
2838,B3,175.25,121/500,79,134.0
2839,G#3,175.25,121/500,79,134.0
2840,E3,175.25,121/500,79,134.0
2841,A4,175.25,0.25,39,134.0
2842,B1,175.25,0.25,39,134.0
2843,G#2,175.5,0.5,111,134.0
2844,E3,175.5,119/500,91,134.0
2845,G#3,175.5,119/500,91,134.0
2846,B3,175.5,119/500,91,134.0
2847,E4,175.5,119/500,91,134.0
2848,E2,175.5,0.25,71,134.0
2849,G#2,175.5,0.25,71,134.0
2850,A4,175.75,0.25,63,134.0
2851,G#3,175.75,123/500,95,134.0
2852,E3,175.75,123/500,95,134.0
2853,B-4,175.875,0.125,95,134.0
2854,G4,175.875,0.125,95,134.0
2855,A2,176.0,1.5,95,134.0
2856,A2,176.0,0.5,95,134.0
2857,A2,176.0,1.0,111,134.0
2858,B1,176.0,0.25,63,134.0
2859,B4,176.0,0.5,95,134.0
2860,G4,176.0,0.5,95,134.0
2861,A4,176.25,0.25,39,134.0
2862,B1,176.25,0.25,39,134.0
2863,C#5,176.5,0.5,95,134.0
2864,A4,176.5,0.5,95,134.0
2865,G3,176.5,483/1000,79,134.0
2866,C#4,176.5,483/1000,79,134.0
2867,E4,176.5,483/1000,79,134.0
2868,E2,176.5,0.25,71,134.0
2869,G#2,176.5,0.25,71,134.0
2870,A4,176.75,0.25,63,134.0
2871,E3,177.0,0.25,95,134.0
2872,E2,177.0,1.0,111,134.0
2873,B1,177.0,0.25,63,134.0
2874,B4,177.0,0.5,95,134.0
2875,G4,177.0,0.5,95,134.0
2876,G3,177.25,0.25,79,134.0
2877,A4,177.25,0.25,39,134.0
2878,B1,177.25,0.25,39,134.0
2879,A3,177.5,1.469,63,134.0
2880,C#4,177.5,1.469,63,134.0
2881,C#4,177.5,123/500,87,134.0
2882,E4,177.5,123/500,87,134.0
2883,E2,177.5,0.25,71,134.0
2884,G#2,177.5,0.25,71,134.0
2885,G4,177.562,1.406,63,134.0
2886,B4,177.562,1.406,63,134.0
2887,E4,177.75,0.75,79,134.0
2888,A4,177.75,0.25,63,134.0
2889,C#4,177.75,123/500,95,134.0
2890,G3,177.75,123/500,95,134.0
2891,A2,178.0,0.5,95,134.0
2892,A2,178.0,1.0,111,134.0
2893,B1,178.0,0.25,63,134.0
2894,A4,178.25,0.25,39,134.0
2895,B1,178.25,0.25,39,134.0
2896,B3,178.5,0.5,95,134.0
2897,G3,178.5,483/1000,79,134.0
2898,C#4,178.5,483/1000,79,134.0
2899,E4,178.5,483/1000,79,134.0
2900,E2,178.5,0.25,71,134.0
2901,G#2,178.5,0.25,71,134.0
2902,A4,178.75,0.25,63,134.0
2903,B2,179.0,1.0,95,134.0
2904,C#4,179.0,0.25,95,134.0
2905,E3,179.0,0.25,95,134.0
2906,G#2,179.0,0.5,111,134.0
2907,B1,179.0,0.25,63,134.0
2908,E4,179.25,0.75,95,134.0
2909,G3,179.25,0.25,79,134.0
2910,A4,179.25,0.25,39,134.0
2911,B1,179.25,0.25,39,134.0
2912,F#2,179.5,0.5,111,134.0
2913,C#4,179.5,123/500,87,134.0
2914,E4,179.5,123/500,87,134.0
2915,E2,179.5,0.5,71,134.0
2916,G#2,179.5,0.5,71,134.0
2917,C#4,179.75,123/500,95,134.0
2918,G3,179.75,123/500,95,134.0
2919,B-4,179.875,0.125,95,134.0
2920,G4,179.875,0.125,95,134.0
2921,E2,180.0,1.0,95,134.0
2922,E2,180.0,1.0,111,134.0
2923,B4,180.0,0.75,95,134.0
2924,G#4,180.0,0.75,95,134.0
2925,E2,180.0,0.984,79,134.0
2926,B2,180.0,0.984,79,134.0
2927,E2,180.0,1.0,71,134.0
2928,G#2,180.0,1.0,71,134.0
2929,C#5,180.75,0.75,95,134.0
2930,A4,180.75,0.75,95,134.0
2931,C#5,181.375,0.125,95,134.0
2932,B4,181.375,0.125,95,134.0
2933,D5,181.5,2.0,95,134.0
2934,B4,181.5,2.0,95,134.0
2935,E2,182.0,0.5,95,134.0
2936,E2,182.0,0.5,127,134.0
2937,E2,182.0,0.5,111,134.0
2938,G#2,182.5,0.5,95,134.0
2939,G#2,182.5,0.5,127,134.0
2940,G#2,182.5,0.5,111,134.0
2941,A2,183.0,0.5,95,134.0
2942,A2,183.0,0.5,127,134.0
2943,A2,183.0,0.5,111,134.0
2944,B-2,183.5,0.5,95,134.0
2945,B-2,183.5,0.5,127,134.0
2946,B-2,183.5,0.5,111,134.0
2947,C#5,183.5,0.5,95,134.0
2948,A4,183.5,0.5,95,134.0
2949,B-4,183.875,0.125,95,134.0
2950,G4,183.875,0.125,95,134.0
2951,B2,184.0,0.5,95,134.0
2952,B2,184.0,0.5,95,134.0
2953,B2,184.0,1.0,111,134.0
2954,B1,184.0,0.25,63,134.0
2955,B4,184.0,0.5,95,134.0
2956,G#4,184.0,0.5,95,134.0
2957,A4,184.25,0.25,39,134.0
2958,B1,184.25,0.25,39,134.0
2959,B3,184.5,0.5,95,134.0
2960,F#4,184.5,1.5,63,134.0
2961,E-4,184.5,1.5,63,134.0
2962,A3,184.5,1.5,63,134.0
2963,E-3,184.5,19/40,83,134.0
2964,A3,184.5,19/40,83,134.0
2965,B3,184.5,19/40,83,134.0
2966,F#4,184.5,19/40,83,134.0
2967,E2,184.5,0.25,71,134.0
2968,G#2,184.5,0.25,71,134.0
2969,A4,184.75,0.25,63,134.0
2970,A2,185.0,1.0,95,134.0
2971,C#4,185.0,0.5,95,134.0
2972,F#2,185.0,0.25,95,134.0
2973,B1,185.0,1.0,111,134.0
2974,B1,185.0,0.25,63,134.0
2975,B3,185.25,121/500,79,134.0
2976,A3,185.25,121/500,79,134.0
2977,E-3,185.25,121/500,79,134.0
2978,A4,185.25,0.25,39,134.0
2979,B1,185.25,0.25,39,134.0
2980,E4,185.5,1.0,95,134.0
2981,A3,185.5,121/500,90,134.0
2982,B3,185.5,121/500,90,134.0
2983,F#4,185.5,121/500,90,134.0
2984,E2,185.5,0.25,71,134.0
2985,G#2,185.5,0.25,71,134.0
2986,A4,185.75,0.25,63,134.0
2987,A3,185.75,123/500,95,134.0
2988,E-3,185.75,123/500,95,134.0
2989,E2,186.0,0.5,95,134.0
2990,B2,186.0,0.5,95,134.0
2991,E2,186.0,1.0,111,134.0
2992,B1,186.0,0.25,63,134.0
2993,A4,186.25,0.25,39,134.0
2994,B1,186.25,0.25,39,134.0
2995,E4,186.5,0.5,63,134.0
2996,B3,186.5,0.5,63,134.0
2997,G#3,186.5,0.5,63,134.0
2998,E3,186.5,19/40,83,134.0
2999,G#3,186.5,19/40,83,134.0
3000,B3,186.5,19/40,83,134.0
3001,E4,186.5,19/40,83,134.0
3002,E2,186.5,0.25,71,134.0
3003,G#2,186.5,0.25,71,134.0
3004,A4,186.75,0.25,63,134.0
3005,E2,187.0,0.25,95,134.0
3006,B1,187.0,1.0,111,134.0
3007,B1,187.0,0.25,63,134.0
3008,E4,187.0,0.5,63,134.0
3009,B3,187.0,0.5,63,134.0
3010,A3,187.0,0.5,63,134.0
3011,B3,187.25,121/500,79,134.0
3012,G#3,187.25,121/500,79,134.0
3013,E3,187.25,121/500,79,134.0
3014,A4,187.25,0.25,39,134.0
3015,B1,187.25,0.25,39,134.0
3016,E4,187.5,0.5,63,134.0
3017,B3,187.5,0.5,63,134.0
3018,B-3,187.5,0.5,63,134.0
3019,G#3,187.5,121/500,90,134.0
3020,B3,187.5,121/500,90,134.0
3021,E4,187.5,121/500,90,134.0
3022,E2,187.5,0.5,71,134.0
3023,G#2,187.5,0.5,71,134.0
3024,G#3,187.75,123/500,95,134.0
3025,E3,187.75,123/500,95,134.0
3026,B-3,188.0,0.25,63,134.0
3027,B2,188.0,0.5,95,134.0
3028,E2,188.0,1.0,111,134.0
3029,B1,188.0,0.25,63,134.0
3030,E4,188.25,0.25,63,134.0
3031,A4,188.25,0.25,39,134.0
3032,B1,188.25,0.25,39,134.0
3033,B3,188.5,0.25,63,134.0
3034,E3,188.5,19/40,83,134.0
3035,G#3,188.5,19/40,83,134.0
3036,B3,188.5,19/40,83,134.0
3037,E4,188.5,19/40,83,134.0
3038,E2,188.5,0.25,71,134.0
3039,G#2,188.5,0.25,71,134.0
3040,E4,188.75,0.25,63,134.0
3041,A4,188.75,0.25,63,134.0
3042,B3,189.0,0.25,63,134.0
3043,E2,189.0,0.25,95,134.0
3044,B1,189.0,1.0,111,134.0
3045,B1,189.0,0.25,63,134.0
3046,B3,189.25,0.25,63,134.0
3047,F4,189.25,0.25,63,134.0
3048,B3,189.25,121/500,79,134.0
3049,G#3,189.25,121/500,79,134.0
3050,E3,189.25,121/500,79,134.0
3051,A4,189.25,0.25,39,134.0
3052,B1,189.25,0.25,39,134.0
3053,E4,189.5,0.25,63,134.0
3054,F#4,189.5,0.25,63,134.0
3055,G#3,189.5,121/500,90,134.0
3056,B3,189.5,121/500,90,134.0
3057,E4,189.5,121/500,90,134.0
3058,E2,189.5,0.25,71,134.0
3059,G#2,189.5,0.25,71,134.0
3060,B3,189.75,0.25,63,134.0
3061,G4,189.75,0.25,63,134.0
3062,A4,189.75,0.25,63,134.0
3063,G#3,189.75,123/500,95,134.0
3064,E3,189.75,123/500,95,134.0
3065,B-3,190.0,0.25,63,134.0
3066,E5,190.0,0.25,95,134.0
3067,B2,190.0,0.5,95,134.0
3068,E2,190.0,1.0,111,134.0
3069,B1,190.0,0.25,63,134.0
3070,E4,190.25,0.25,63,134.0
3071,F#4,190.25,0.25,63,134.0
3072,A4,190.25,0.25,39,134.0
3073,B1,190.25,0.25,39,134.0
3074,B3,190.5,0.25,63,134.0
3075,G4,190.5,0.25,63,134.0
3076,E3,190.5,19/40,83,134.0
3077,G#3,190.5,19/40,83,134.0
3078,B3,190.5,19/40,83,134.0
3079,E4,190.5,19/40,83,134.0
3080,E2,190.5,0.25,71,134.0
3081,G#2,190.5,0.25,71,134.0
3082,E4,190.75,0.25,63,134.0
3083,G#4,190.75,0.25,63,134.0
3084,A4,190.75,0.25,63,134.0
3085,B3,191.0,0.25,63,134.0
3086,F5,191.0,0.25,95,134.0
3087,E2,191.0,0.25,95,134.0
3088,F#2,191.0,0.5,111,134.0
3089,B1,191.0,0.25,63,134.0
3090,B3,191.25,0.25,63,134.0
3091,F4,191.25,0.25,63,134.0
3092,B3,191.25,121/500,79,134.0
3093,G#3,191.25,121/500,79,134.0
3094,E3,191.25,121/500,79,134.0
3095,A4,191.25,0.25,39,134.0
3096,B1,191.25,0.25,39,134.0
3097,E4,191.5,0.25,63,134.0
3098,F#4,191.5,0.25,63,134.0
3099,G#2,191.5,0.5,111,134.0
3100,E3,191.5,119/500,91,134.0
3101,G#3,191.5,119/500,91,134.0
3102,B3,191.5,119/500,91,134.0
3103,E4,191.5,119/500,91,134.0
3104,E2,191.5,0.25,71,134.0
3105,G#2,191.5,0.25,71,134.0
3106,B3,191.75,0.25,63,134.0
3107,G4,191.75,0.25,63,134.0
3108,A4,191.75,0.25,63,134.0
3109,G#3,191.75,123/500,95,134.0
3110,E3,191.75,123/500,95,134.0
3111,B3,192.0,0.25,63,134.0
3112,E5,192.0,0.25,95,134.0
3113,A2,192.0,0.5,95,134.0
3114,A2,192.0,1.0,111,134.0
3115,B1,192.0,0.25,63,134.0
3116,G4,192.25,0.25,63,134.0
3117,E4,192.25,0.25,63,134.0
3118,A4,192.25,0.25,39,134.0
3119,B1,192.25,0.25,39,134.0
3120,B3,192.5,0.25,63,134.0
3121,F4,192.5,0.25,63,134.0
3122,G3,192.5,483/1000,79,134.0
3123,C#4,192.5,483/1000,79,134.0
3124,E4,192.5,483/1000,79,134.0
3125,E2,192.5,0.25,71,134.0
3126,G#2,192.5,0.25,71,134.0
3127,G4,192.75,0.25,63,134.0
3128,F#4,192.75,0.25,63,134.0
3129,A4,192.75,0.25,63,134.0
3130,B3,193.0,0.25,63,134.0
3131,E-5,193.0,0.25,95,134.0
3132,E3,193.0,0.25,95,134.0
3133,E2,193.0,1.0,111,134.0
3134,B1,193.0,0.25,63,134.0
3135,B3,193.25,0.25,63,134.0
3136,E-4,193.25,0.25,63,134.0
3137,G3,193.25,0.25,79,134.0
3138,A4,193.25,0.25,39,134.0
3139,B1,193.25,0.25,39,134.0
3140,G4,193.5,0.25,63,134.0
3141,E4,193.5,0.25,63,134.0
3142,C#4,193.5,123/500,87,134.0
3143,E4,193.5,123/500,87,134.0
3144,E2,193.5,0.25,71,134.0
3145,G#2,193.5,0.25,71,134.0
3146,B3,193.75,0.25,63,134.0
3147,F4,193.75,0.25,63,134.0
3148,A4,193.75,0.25,63,134.0
3149,C#4,193.75,123/500,95,134.0
3150,G3,193.75,123/500,95,134.0
3151,B3,194.0,0.25,63,134.0
3152,D5,194.0,0.25,95,134.0
3153,A2,194.0,0.5,95,134.0
3154,A2,194.0,1.0,111,134.0
3155,B1,194.0,0.25,63,134.0
3156,G4,194.25,0.25,63,134.0
3157,D4,194.25,0.25,63,134.0
3158,A4,194.25,0.25,39,134.0
3159,B1,194.25,0.25,39,134.0
3160,B3,194.5,0.25,63,134.0
3161,E-4,194.5,0.25,63,134.0
3162,G3,194.5,483/1000,79,134.0
3163,C#4,194.5,483/1000,79,134.0
3164,E4,194.5,483/1000,79,134.0
3165,E2,194.5,0.25,71,134.0
3166,G#2,194.5,0.25,71,134.0
3167,G4,194.75,0.25,63,134.0
3168,E4,194.75,0.25,63,134.0
3169,A4,194.75,0.25,63,134.0
3170,B3,195.0,0.25,63,134.0
3171,C#5,195.0,0.25,95,134.0
3172,E3,195.0,0.25,95,134.0
3173,G#2,195.0,0.5,111,134.0
3174,B1,195.0,0.25,63,134.0
3175,B3,195.25,0.25,63,134.0
3176,F4,195.25,0.25,63,134.0
3177,G3,195.25,0.25,79,134.0
3178,A4,195.25,0.25,39,134.0
3179,B1,195.25,0.25,39,134.0
3180,G4,195.5,0.25,63,134.0
3181,F#4,195.5,0.25,63,134.0
3182,F#2,195.5,0.5,111,134.0
3183,C#4,195.5,123/500,87,134.0
3184,E4,195.5,123/500,87,134.0
3185,E2,195.5,0.25,71,134.0
3186,G#2,195.5,0.25,71,134.0
3187,B3,195.75,0.25,63,134.0
3188,G4,195.75,0.25,63,134.0
3189,A4,195.75,0.25,63,134.0
3190,C#4,195.75,123/500,95,134.0
3191,G3,195.75,123/500,95,134.0
3192,B3,196.0,0.25,63,134.0
3193,E5,196.0,0.25,95,134.0
3194,B2,196.0,0.5,95,134.0
3195,E2,196.0,1.0,111,134.0
3196,B1,196.0,0.25,63,134.0
3197,G#4,196.25,0.25,63,134.0
3198,F#4,196.25,0.25,63,134.0
3199,A4,196.25,0.25,39,134.0
3200,B1,196.25,0.25,39,134.0
3201,B3,196.5,0.25,63,134.0
3202,G4,196.5,0.25,63,134.0
3203,E3,196.5,19/40,83,134.0
3204,G#3,196.5,19/40,83,134.0
3205,B3,196.5,19/40,83,134.0
3206,E4,196.5,19/40,83,134.0
3207,E2,196.5,0.25,71,134.0
3208,G#2,196.5,0.25,71,134.0
3209,G#4,196.75,0.25,63,134.0
3210,G#4,196.75,0.25,63,134.0
3211,A4,196.75,0.25,63,134.0
3212,B3,197.0,0.25,63,134.0
3213,F5,197.0,0.25,95,134.0
3214,E2,197.0,0.25,95,134.0
3215,B1,197.0,1.0,111,134.0
3216,B1,197.0,0.25,63,134.0
3217,B3,197.25,0.25,63,134.0
3218,F4,197.25,0.25,63,134.0
3219,B3,197.25,121/500,79,134.0
3220,G#3,197.25,121/500,79,134.0
3221,E3,197.25,121/500,79,134.0
3222,A4,197.25,0.25,39,134.0
3223,B1,197.25,0.25,39,134.0
3224,G#4,197.5,0.25,63,134.0
3225,F#4,197.5,0.25,63,134.0
3226,G#3,197.5,121/500,90,134.0
3227,B3,197.5,121/500,90,134.0
3228,E4,197.5,121/500,90,134.0
3229,E2,197.5,0.25,71,134.0
3230,G#2,197.5,0.25,71,134.0
3231,B3,197.75,0.25,63,134.0
3232,G4,197.75,0.25,63,134.0
3233,A4,197.75,0.25,63,134.0
3234,G#3,197.75,123/500,95,134.0
3235,E3,197.75,123/500,95,134.0
3236,B3,198.0,0.25,63,134.0
3237,E5,198.0,0.25,95,134.0
3238,B2,198.0,0.5,95,134.0
3239,E2,198.0,1.0,111,134.0
3240,B1,198.0,0.25,63,134.0
3241,G#4,198.25,0.25,63,134.0
3242,F#4,198.25,0.25,63,134.0
3243,A4,198.25,0.25,39,134.0
3244,B1,198.25,0.25,39,134.0
3245,B3,198.5,0.25,63,134.0
3246,G4,198.5,0.25,63,134.0
3247,E3,198.5,19/40,83,134.0
3248,G#3,198.5,19/40,83,134.0
3249,B3,198.5,19/40,83,134.0
3250,E4,198.5,19/40,83,134.0
3251,E2,198.5,0.25,71,134.0
3252,G#2,198.5,0.25,71,134.0
3253,G#4,198.75,0.25,63,134.0
3254,G#4,198.75,0.25,63,134.0
3255,A4,198.75,0.25,63,134.0
3256,B3,199.0,0.25,63,134.0
3257,F5,199.0,0.25,95,134.0
3258,E2,199.0,0.25,95,134.0
3259,B1,199.0,0.5,111,134.0
3260,B1,199.0,0.25,63,134.0
3261,B3,199.25,0.25,63,134.0
3262,G#4,199.25,0.25,63,134.0
3263,B3,199.25,121/500,79,134.0
3264,G#3,199.25,121/500,79,134.0
3265,E3,199.25,121/500,79,134.0
3266,A4,199.25,0.25,39,134.0
3267,B1,199.25,0.25,39,134.0
3268,E4,199.5,0.25,63,134.0
3269,A4,199.5,0.25,63,134.0
3270,E2,199.5,0.5,111,134.0
3271,E3,199.5,119/500,91,134.0
3272,G#3,199.5,119/500,91,134.0
3273,B3,199.5,119/500,91,134.0
3274,E4,199.5,119/500,91,134.0
3275,E2,199.5,0.25,71,134.0
3276,G#2,199.5,0.25,71,134.0
3277,B3,199.75,0.25,63,134.0
3278,B-4,199.75,0.25,63,134.0
3279,A4,199.75,0.25,63,134.0
3280,G#3,199.75,123/500,95,134.0
3281,E3,199.75,123/500,95,134.0
3282,B-3,200.0,0.25,63,134.0
3283,G5,200.0,0.25,95,134.0
3284,C#3,200.0,0.5,95,134.0
3285,F#2,200.0,1.0,111,134.0
3286,B1,200.0,0.25,63,134.0
3287,F#4,200.25,0.25,63,134.0
3288,G#4,200.25,0.25,63,134.0
3289,A4,200.25,0.25,39,134.0
3290,B1,200.25,0.25,39,134.0
3291,C#4,200.5,0.25,63,134.0
3292,A4,200.5,0.25,63,134.0
3293,B-3,200.5,483/1000,79,134.0
3294,C#4,200.5,483/1000,79,134.0
3295,F#4,200.5,483/1000,79,134.0
3296,E2,200.5,0.25,71,134.0
3297,G#2,200.5,0.25,71,134.0
3298,E4,200.75,0.25,63,134.0
3299,B-4,200.75,0.25,63,134.0
3300,A4,200.75,0.25,63,134.0
3301,F#4,201.0,0.25,63,134.0
3302,G5,201.0,0.25,95,134.0
3303,F#3,201.0,0.25,95,134.0
3304,C#2,201.0,1.0,111,134.0
3305,B1,201.0,0.25,63,134.0
3306,B-3,201.25,0.25,63,134.0
3307,G4,201.25,0.25,63,134.0
3308,C#4,201.25,123/500,79,134.0
3309,B-3,201.25,123/500,79,134.0
3310,A4,201.25,0.25,39,134.0
3311,B1,201.25,0.25,39,134.0
3312,E4,201.5,0.25,63,134.0
3313,G#4,201.5,0.25,63,134.0
3314,C#4,201.5,123/500,87,134.0
3315,F#4,201.5,123/500,87,134.0
3316,E2,201.5,0.25,71,134.0
3317,G#2,201.5,0.25,71,134.0
3318,B3,201.75,0.25,63,134.0
3319,A4,201.75,0.25,63,134.0
3320,A4,201.75,0.25,63,134.0
3321,C#4,201.75,123/500,95,134.0
3322,B-3,201.75,123/500,95,134.0
3323,C#4,202.0,0.25,63,134.0
3324,F#5,202.0,0.25,95,134.0
3325,B2,202.0,0.5,95,134.0
3326,B1,202.0,0.5,111,134.0
3327,B1,202.0,0.25,63,134.0
3328,B3,202.25,0.25,63,134.0
3329,G4,202.25,0.25,63,134.0
3330,A4,202.25,0.25,39,134.0
3331,B1,202.25,0.25,39,134.0
3332,D4,202.5,0.25,63,134.0
3333,G#4,202.5,0.25,63,134.0
3334,B1,202.5,0.5,111,134.0
3335,A3,202.5,483/1000,79,134.0
3336,E-4,202.5,483/1000,79,134.0
3337,F#4,202.5,483/1000,79,134.0
3338,E2,202.5,0.25,71,134.0
3339,G#2,202.5,0.25,71,134.0
3340,A4,202.75,0.25,63,134.0
3341,A4,202.75,0.25,63,134.0
3342,A4,202.75,0.25,63,134.0
3343,B3,203.0,0.25,63,134.0
3344,F#5,203.0,0.25,95,134.0
3345,F#3,203.0,0.25,95,134.0
3346,C#2,203.0,0.5,111,134.0
3347,B1,203.0,0.25,63,134.0
3348,E-4,203.25,0.25,63,134.0
3349,F4,203.25,0.25,63,134.0
3350,E-4,203.25,123/500,79,134.0
3351,A3,203.25,123/500,79,134.0
3352,A4,203.25,0.25,39,134.0
3353,B1,203.25,0.25,39,134.0
3354,E4,203.5,0.25,63,134.0
3355,F#4,203.5,0.25,63,134.0
3356,E-2,203.5,0.5,111,134.0
3357,E-4,203.5,123/500,87,134.0
3358,F#4,203.5,123/500,87,134.0
3359,E2,203.5,0.25,71,134.0
3360,G#2,203.5,0.25,71,134.0
3361,B3,203.75,0.25,63,134.0
3362,G4,203.75,0.25,63,134.0
3363,A4,203.75,0.25,63,134.0
3364,E-4,203.75,123/500,95,134.0
3365,A3,203.75,123/500,95,134.0
3366,E4,204.0,0.25,63,134.0
3367,E5,204.0,0.25,95,134.0
3368,B2,204.0,0.5,95,134.0
3369,E2,204.0,1.0,111,134.0
3370,B1,204.0,0.25,63,134.0
3371,E4,204.25,0.25,63,134.0
3372,E-4,204.25,0.25,63,134.0
3373,A4,204.25,0.25,39,134.0
3374,B1,204.25,0.25,39,134.0
3375,E-4,204.5,0.25,63,134.0
3376,E4,204.5,0.25,63,134.0
3377,E3,204.5,19/40,83,134.0
3378,G#3,204.5,19/40,83,134.0
3379,B3,204.5,19/40,83,134.0
3380,E4,204.5,19/40,83,134.0
3381,E2,204.5,0.25,71,134.0
3382,G#2,204.5,0.25,71,134.0
3383,E4,204.75,0.25,63,134.0
3384,F4,204.75,0.25,63,134.0
3385,A4,204.75,0.25,63,134.0
3386,B3,205.0,0.25,63,134.0
3387,D5,205.0,0.25,95,134.0
3388,E2,205.0,0.25,95,134.0
3389,B1,205.0,1.0,111,134.0
3390,B1,205.0,0.25,63,134.0
3391,E4,205.25,0.25,63,134.0
3392,D4,205.25,0.25,63,134.0
3393,B3,205.25,121/500,79,134.0
3394,G#3,205.25,121/500,79,134.0
3395,E3,205.25,121/500,79,134.0
3396,A4,205.25,0.25,39,134.0
3397,B1,205.25,0.25,39,134.0
3398,E4,205.5,0.25,63,134.0
3399,E-4,205.5,0.25,63,134.0
3400,G#3,205.5,121/500,90,134.0
3401,B3,205.5,121/500,90,134.0
3402,E4,205.5,121/500,90,134.0
3403,E2,205.5,0.25,71,134.0
3404,G#2,205.5,0.25,71,134.0
3405,B3,205.75,0.25,63,134.0
3406,E4,205.75,0.25,63,134.0
3407,A4,205.75,0.25,63,134.0
3408,G#3,205.75,123/500,95,134.0
3409,E3,205.75,123/500,95,134.0
3410,E4,206.0,0.25,63,134.0
3411,C#5,206.0,0.25,95,134.0
3412,B2,206.0,0.5,95,134.0
3413,E2,206.0,1.0,111,134.0
3414,B1,206.0,0.25,63,134.0
3415,E4,206.25,0.25,63,134.0
3416,C4,206.25,0.25,63,134.0
3417,A4,206.25,0.25,39,134.0
3418,B1,206.25,0.25,39,134.0
3419,E-4,206.5,0.25,63,134.0
3420,C#4,206.5,0.25,63,134.0
3421,E3,206.5,19/40,83,134.0
3422,G#3,206.5,19/40,83,134.0
3423,B3,206.5,19/40,83,134.0
3424,E4,206.5,19/40,83,134.0
3425,E2,206.5,0.25,71,134.0
3426,G#2,206.5,0.25,71,134.0
3427,E4,206.75,0.25,63,134.0
3428,D4,206.75,0.25,63,134.0
3429,A4,206.75,0.25,63,134.0
3430,B3,207.0,0.25,63,134.0
3431,B4,207.0,0.25,95,134.0
3432,E2,207.0,0.25,95,134.0
3433,F#2,207.0,0.5,111,134.0
3434,B1,207.0,0.25,63,134.0
3435,E4,207.25,0.25,63,134.0
3436,B-3,207.25,0.25,63,134.0
3437,B3,207.25,121/500,79,134.0
3438,G#3,207.25,121/500,79,134.0
3439,E3,207.25,121/500,79,134.0
3440,A4,207.25,0.25,39,134.0
3441,B1,207.25,0.25,39,134.0
3442,E4,207.5,0.25,63,134.0
3443,B3,207.5,0.25,63,134.0
3444,G#2,207.5,0.5,111,134.0
3445,E3,207.5,119/500,91,134.0
3446,G#3,207.5,119/500,91,134.0
3447,B3,207.5,119/500,91,134.0
3448,E4,207.5,119/500,91,134.0
3449,E2,207.5,0.25,71,134.0
3450,G#2,207.5,0.25,71,134.0
3451,B3,207.75,0.25,63,134.0
3452,C4,207.75,0.25,63,134.0
3453,A4,207.75,0.25,63,134.0
3454,G#3,207.75,123/500,95,134.0
3455,E3,207.75,123/500,95,134.0
3456,G4,208.0,0.25,63,134.0
3457,A4,208.0,0.25,95,134.0
3458,A2,208.0,0.5,95,134.0
3459,A2,208.0,1.0,111,134.0
3460,B1,208.0,0.25,63,134.0
3461,E4,208.25,0.25,63,134.0
3462,G#3,208.25,0.25,63,134.0
3463,A4,208.25,0.25,39,134.0
3464,B1,208.25,0.25,39,134.0
3465,F#4,208.5,0.25,63,134.0
3466,A3,208.5,0.25,63,134.0
3467,G3,208.5,483/1000,79,134.0
3468,C#4,208.5,483/1000,79,134.0
3469,E4,208.5,483/1000,79,134.0
3470,E2,208.5,0.25,71,134.0
3471,G#2,208.5,0.25,71,134.0
3472,E4,208.75,0.25,63,134.0
3473,B-3,208.75,0.25,63,134.0
3474,A4,208.75,0.25,63,134.0
3475,E4,209.0,0.25,63,134.0
3476,G4,209.0,0.25,95,134.0
3477,E3,209.0,0.25,95,134.0
3478,E2,209.0,1.0,111,134.0
3479,B1,209.0,0.25,63,134.0
3480,C#4,209.25,0.25,63,134.0
3481,G3,209.25,0.25,63,134.0
3482,G3,209.25,0.25,79,134.0
3483,A4,209.25,0.25,39,134.0
3484,B1,209.25,0.25,39,134.0
3485,E4,209.5,0.25,63,134.0
3486,G#3,209.5,0.25,63,134.0
3487,C#4,209.5,123/500,87,134.0
3488,E4,209.5,123/500,87,134.0
3489,E2,209.5,0.25,71,134.0
3490,G#2,209.5,0.25,71,134.0
3491,B3,209.75,0.25,63,134.0
3492,A3,209.75,0.25,63,134.0
3493,A4,209.75,0.25,63,134.0
3494,C#4,209.75,123/500,95,134.0
3495,G3,209.75,123/500,95,134.0
3496,A3,210.0,0.25,63,134.0
3497,F#4,210.0,0.25,95,134.0
3498,A2,210.0,0.5,95,134.0
3499,A2,210.0,1.0,111,134.0
3500,B1,210.0,0.25,63,134.0
3501,C#4,210.25,0.25,63,134.0
3502,G3,210.25,0.25,63,134.0
3503,A4,210.25,0.25,39,134.0
3504,B1,210.25,0.25,39,134.0
3505,A3,210.5,0.25,63,134.0
3506,G#3,210.5,0.25,63,134.0
3507,G3,210.5,483/1000,79,134.0
3508,C#4,210.5,483/1000,79,134.0
3509,E4,210.5,483/1000,79,134.0
3510,E2,210.5,0.25,71,134.0
3511,G#2,210.5,0.25,71,134.0
3512,E4,210.75,0.25,63,134.0
3513,A3,210.75,0.25,63,134.0
3514,A4,210.75,0.25,63,134.0
3515,C#4,211.0,0.25,63,134.0
3516,E4,211.0,1.0,95,134.0
3517,E3,211.0,0.25,95,134.0
3518,G#2,211.0,0.5,111,134.0
3519,B1,211.0,0.25,63,134.0
3520,A3,211.25,0.25,63,134.0
3521,G3,211.25,0.25,79,134.0
3522,A4,211.25,0.25,39,134.0
3523,B1,211.25,0.25,39,134.0
3524,E4,211.5,0.25,63,134.0
3525,F#2,211.5,0.5,111,134.0
3526,C#4,211.5,123/500,87,134.0
3527,E4,211.5,123/500,87,134.0
3528,E2,211.5,0.5,71,134.0
3529,G#2,211.5,0.5,71,134.0
3530,B3,211.75,0.25,63,134.0
3531,C#4,211.75,123/500,95,134.0
3532,G3,211.75,123/500,95,134.0
3533,E-4,211.875,0.125,95,134.0
3534,B3,212.0,0.25,63,134.0
3535,E2,212.0,1.0,111,134.0
3536,E4,212.0,1.0,111,134.0
3537,E4,212.0,1.0,111,134.0
3538,E2,212.0,0.984,79,134.0
3539,B2,212.0,0.984,79,134.0
3540,E2,212.0,1.0,71,134.0
3541,G#2,212.0,1.0,71,134.0
3542,B3,212.25,0.25,63,134.0
3543,B3,212.5,0.25,63,134.0
3544,E4,212.75,0.25,63,134.0
3545,B3,213.0,0.25,63,134.0
3546,E4,213.0,1.0,103,134.0
3547,D4,213.0,1.0,103,134.0
3548,B3,213.25,0.25,63,134.0
3549,E4,213.5,0.25,63,134.0
3550,B3,213.75,0.25,63,134.0
3551,B3,214.0,0.25,63,134.0
3552,A3,214.0,0.125,111,134.0
3553,E2,214.0,0.5,127,134.0
3554,E2,214.0,0.5,111,134.0
3555,E4,214.0,2.0,95,134.0
3556,B3,214.0,2.0,95,134.0
3557,G#3,214.125,0.125,86,134.0
3558,B3,214.25,0.25,63,134.0
3559,G3,214.25,1.75,86,134.0
3560,C#4,214.5,0.25,63,134.0
3561,G#2,214.5,0.5,127,134.0
3562,G#2,214.5,0.5,111,134.0
3563,E4,214.75,0.25,63,134.0
3564,D4,215.0,0.25,63,134.0
3565,A2,215.0,0.5,127,134.0
3566,A2,215.0,0.5,111,134.0
3567,C#4,215.25,0.25,63,134.0
3568,E4,215.5,0.25,63,134.0
3569,B-2,215.5,0.5,127,134.0
3570,B-2,215.5,0.5,111,134.0
3571,B3,215.75,0.25,63,134.0
3572,B3,216.0,0.25,63,134.0
3573,E3,216.0,0.5,111,134.0
3574,B2,216.0,0.5,95,134.0
3575,B2,216.0,1.0,111,134.0
3576,B1,216.0,0.25,63,134.0
3577,B3,216.25,0.25,63,134.0
3578,A4,216.25,0.25,39,134.0
3579,B1,216.25,0.25,39,134.0
3580,B-3,216.5,0.25,63,134.0
3581,D3,216.5,0.5,111,134.0
3582,E-3,216.5,19/40,83,134.0
3583,A3,216.5,19/40,83,134.0
3584,B3,216.5,19/40,83,134.0
3585,F#4,216.5,19/40,83,134.0
3586,E2,216.5,0.25,71,134.0
3587,G#2,216.5,0.25,71,134.0
3588,A4,216.75,0.25,63,134.0
3589,E4,216.75,0.25,63,134.0
3590,A3,216.75,0.25,63,134.0
3591,B3,217.0,0.25,63,134.0
3592,B2,217.0,0.5,111,134.0
3593,F#2,217.0,0.25,95,134.0
3594,B1,217.0,1.0,111,134.0
3595,B1,217.0,0.25,63,134.0
3596,G3,217.25,0.25,63,134.0
3597,B3,217.25,121/500,79,134.0
3598,A3,217.25,121/500,79,134.0
3599,E-3,217.25,121/500,79,134.0
3600,A4,217.25,0.25,39,134.0
3601,B1,217.25,0.25,39,134.0
3602,A2,217.5,0.5,111,134.0
3603,E4,217.5,0.25,50,134.0
3604,G#3,217.5,0.25,50,134.0
3605,A3,217.5,121/500,90,134.0
3606,B3,217.5,121/500,90,134.0
3607,F#4,217.5,121/500,90,134.0
3608,E2,217.5,0.25,71,134.0
3609,G#2,217.5,0.25,71,134.0
3610,B3,217.75,0.25,63,134.0
3611,A4,217.75,0.25,63,134.0
3612,A3,217.75,123/500,95,134.0
3613,E-3,217.75,123/500,95,134.0
3614,E3,218.0,0.5,63,134.0
3615,G2,218.0,1.0,86,134.0
3616,B2,218.0,0.5,95,134.0
3617,E2,218.0,1.0,111,134.0
3618,B1,218.0,0.25,63,134.0
3619,A4,218.25,0.25,39,134.0
3620,B1,218.25,0.25,39,134.0
3621,E4,218.5,0.5,63,134.0
3622,B3,218.5,0.5,63,134.0
3623,G#3,218.5,0.5,63,134.0
3624,E3,218.5,19/40,83,134.0
3625,G#3,218.5,19/40,83,134.0
3626,B3,218.5,19/40,83,134.0
3627,E4,218.5,19/40,83,134.0
3628,E2,218.5,0.25,71,134.0
3629,G#2,218.5,0.25,71,134.0
3630,A4,218.75,0.25,63,134.0
3631,E3,219.0,1.0,63,134.0
3632,E2,219.0,1.0,111,134.0
3633,E2,219.0,0.25,95,134.0
3634,B1,219.0,1.0,111,134.0
3635,B1,219.0,0.25,63,134.0
3636,B3,219.25,121/500,79,134.0
3637,G#3,219.25,121/500,79,134.0
3638,E3,219.25,121/500,79,134.0
3639,A4,219.25,0.25,39,134.0
3640,B1,219.25,0.25,39,134.0
3641,G#3,219.5,121/500,90,134.0
3642,B3,219.5,121/500,90,134.0
3643,E4,219.5,121/500,90,134.0
3644,E2,219.5,0.5,71,134.0
3645,G#2,219.5,0.5,71,134.0
3646,G#3,219.75,123/500,95,134.0
3647,E3,219.75,123/500,95,134.0
3648,C#4,220.0,0.25,63,134.0
3649,C#3,220.0,0.5,79,134.0
3650,C#2,220.0,1.0,111,134.0
3651,B1,220.0,0.25,63,134.0
3652,C#4,220.0,2.0,63,134.0
3653,C#4,220.0,2.0,63,134.0
3654,G#4,220.25,0.25,63,134.0
3655,A4,220.25,0.25,39,134.0
3656,B1,220.25,0.25,39,134.0
3657,F#4,220.5,0.25,63,134.0
3658,G#3,220.5,483/1000,79,134.0
3659,C#4,220.5,483/1000,79,134.0
3660,B3,220.5,483/1000,79,134.0
3661,E2,220.5,0.25,71,134.0
3662,G#2,220.5,0.25,71,134.0
3663,E4,220.75,0.25,63,134.0
3664,G#3,220.75,0.25,127,134.0
3665,A4,220.75,0.25,63,134.0
3666,G#4,221.0,0.25,63,134.0
3667,C#4,221.0,1.5,127,134.0
3668,G#2,221.0,0.25,79,134.0
3669,C#2,221.0,1.0,111,134.0
3670,B1,221.0,0.25,63,134.0
3671,C#4,221.25,0.25,63,134.0
3672,B3,221.25,121/500,79,134.0
3673,C#4,221.25,121/500,79,134.0
3674,G#3,221.25,121/500,79,134.0
3675,A4,221.25,0.25,39,134.0
3676,B1,221.25,0.25,39,134.0
3677,E4,221.5,0.25,63,134.0
3678,C#4,221.5,123/500,79,134.0
3679,B3,221.5,123/500,79,134.0
3680,E2,221.5,0.25,71,134.0
3681,G#2,221.5,0.25,71,134.0
3682,G#4,221.75,0.25,63,134.0
3683,A4,221.75,0.25,63,134.0
3684,C#4,221.75,123/500,79,134.0
3685,G#3,221.75,123/500,79,134.0
3686,C4,222.0,0.25,63,134.0
3687,C#3,222.0,0.5,79,134.0
3688,G#2,222.0,1.0,111,134.0
3689,B1,222.0,0.25,63,134.0
3690,E-4,222.0,2.0,63,134.0
3691,C4,222.0,2.0,63,134.0
3692,G#4,222.25,0.25,63,134.0
3693,A4,222.25,0.25,39,134.0
3694,B1,222.25,0.25,39,134.0
3695,F#4,222.5,0.25,63,134.0
3696,E-4,222.5,0.5,127,134.0
3697,G#3,222.5,19/40,75,134.0
3698,B3,222.5,19/40,75,134.0
3699,E4,222.5,19/40,75,134.0
3700,G#4,222.5,19/40,75,134.0
3701,E2,222.5,0.25,71,134.0
3702,G#2,222.5,0.25,71,134.0
3703,E4,222.75,0.25,63,134.0
3704,A4,222.75,0.25,63,134.0
3705,G#4,223.0,0.25,63,134.0
3706,E4,223.0,0.5,127,134.0
3707,G#2,223.0,0.25,79,134.0
3708,G#2,223.0,1.0,111,134.0
3709,B1,223.0,0.25,63,134.0
3710,C4,223.25,0.25,63,134.0
3711,E4,223.25,121/500,79,134.0
3712,B3,223.25,121/500,79,134.0
3713,G#3,223.25,121/500,79,134.0
3714,A4,223.25,0.25,39,134.0
3715,B1,223.25,0.25,39,134.0
3716,E4,223.5,0.25,63,134.0
3717,F#4,223.5,0.5,127,134.0
3718,G#3,223.5,119/500,75,134.0
3719,B3,223.5,119/500,75,134.0
3720,E4,223.5,119/500,75,134.0
3721,G#4,223.5,119/500,75,134.0
3722,E2,223.5,0.25,71,134.0
3723,G#2,223.5,0.25,71,134.0
3724,G#4,223.75,0.25,63,134.0
3725,A4,223.75,0.25,63,134.0
3726,B3,223.75,123/500,79,134.0
3727,G#3,223.75,123/500,79,134.0
3728,B3,224.0,0.25,63,134.0
3729,G#4,224.0,1.0,127,134.0
3730,C#3,224.0,0.5,79,134.0
3731,C#2,224.0,1.0,111,134.0
3732,B1,224.0,0.25,63,134.0
3733,E4,224.0,2.0,71,134.0
3734,C#4,224.0,2.0,71,134.0
3735,G#4,224.25,0.25,63,134.0
3736,A4,224.25,0.25,39,134.0
3737,B1,224.25,0.25,39,134.0
3738,F#4,224.5,0.25,63,134.0
3739,G#3,224.5,19/40,75,134.0
3740,C#4,224.5,19/40,75,134.0
3741,E4,224.5,19/40,75,134.0
3742,G#4,224.5,19/40,75,134.0
3743,E2,224.5,0.25,71,134.0
3744,G#2,224.5,0.25,71,134.0
3745,E4,224.75,0.25,63,134.0
3746,A4,224.75,0.25,63,134.0
3747,G#4,225.0,0.25,63,134.0
3748,C#5,225.0,0.5,127,134.0
3749,G#2,225.0,0.25,79,134.0
3750,G#2,225.0,0.5,111,134.0
3751,B1,225.0,0.25,63,134.0
3752,B3,225.25,0.25,63,134.0
3753,E4,225.25,121/500,79,134.0
3754,C#4,225.25,121/500,79,134.0
3755,G#3,225.25,121/500,79,134.0
3756,A4,225.25,0.25,39,134.0
3757,B1,225.25,0.25,39,134.0
3758,E4,225.5,0.25,63,134.0
3759,B4,225.5,1.0,127,134.0
3760,C#2,225.5,0.5,111,134.0
3761,G#3,225.5,119/500,75,134.0
3762,C#4,225.5,119/500,75,134.0
3763,E4,225.5,119/500,75,134.0
3764,G#4,225.5,119/500,75,134.0
3765,E2,225.5,0.25,71,134.0
3766,G#2,225.5,0.25,71,134.0
3767,G#4,225.75,0.25,63,134.0
3768,A4,225.75,0.25,63,134.0
3769,C#4,225.75,123/500,79,134.0
3770,G#3,225.75,123/500,79,134.0
3771,B-3,226.0,0.25,63,134.0
3772,B2,226.0,0.5,79,134.0
3773,F#1,226.0,1.0,111,134.0
3774,B1,226.0,0.25,63,134.0
3775,F#4,226.0,2.0,63,134.0
3776,C#4,226.0,2.0,63,134.0
3777,G#4,226.25,0.25,63,134.0
3778,A4,226.25,0.25,39,134.0
3779,B1,226.25,0.25,39,134.0
3780,F#4,226.5,0.25,63,134.0
3781,G#4,226.5,1.0,127,134.0
3782,F#3,226.5,19/40,75,134.0
3783,B-3,226.5,19/40,75,134.0
3784,C#4,226.5,19/40,75,134.0
3785,F#4,226.5,19/40,75,134.0
3786,E2,226.5,0.25,71,134.0
3787,G#2,226.5,0.25,71,134.0
3788,E4,226.75,0.25,63,134.0
3789,A4,226.75,0.25,63,134.0
3790,G#4,227.0,0.25,63,134.0
3791,F#2,227.0,0.25,79,134.0
3792,C#2,227.0,1.0,111,134.0
3793,B1,227.0,0.25,63,134.0
3794,B-3,227.25,0.25,63,134.0
3795,C#4,227.25,121/500,79,134.0
3796,B-3,227.25,121/500,79,134.0
3797,F#3,227.25,121/500,79,134.0
3798,A4,227.25,0.25,39,134.0
3799,B1,227.25,0.25,39,134.0
3800,E4,227.5,0.25,63,134.0
3801,F#4,227.5,0.5,127,134.0
3802,F#3,227.5,119/500,75,134.0
3803,B-3,227.5,119/500,75,134.0
3804,C#4,227.5,119/500,75,134.0
3805,F#4,227.5,119/500,75,134.0
3806,E2,227.5,0.25,71,134.0
3807,G#2,227.5,0.25,71,134.0
3808,G#4,227.75,0.25,63,134.0
3809,A4,227.75,0.25,63,134.0
3810,B-3,227.75,123/500,79,134.0
3811,F#3,227.75,123/500,79,134.0
3812,C4,228.0,0.25,63,134.0
3813,F#4,228.0,3.0,127,134.0
3814,C3,228.0,0.5,79,134.0
3815,C2,228.0,1.0,111,134.0
3816,B1,228.0,0.25,63,134.0
3817,G4,228.0,2.0,71,134.0
3818,E4,228.0,2.0,71,134.0
3819,G4,228.25,0.25,63,134.0
3820,A4,228.25,0.25,39,134.0
3821,B1,228.25,0.25,39,134.0
3822,F#4,228.5,0.25,63,134.0
3823,G3,228.5,19/40,75,134.0
3824,C4,228.5,19/40,75,134.0
3825,E4,228.5,19/40,75,134.0
3826,G4,228.5,19/40,75,134.0
3827,E2,228.5,0.25,71,134.0
3828,G#2,228.5,0.25,71,134.0
3829,E4,228.75,0.25,63,134.0
3830,A4,228.75,0.25,63,134.0
3831,G4,229.0,0.25,63,134.0
3832,G2,229.0,0.25,79,134.0
3833,G2,229.0,1.0,111,134.0
3834,B1,229.0,0.25,63,134.0
3835,C4,229.25,0.25,63,134.0
3836,E4,229.25,121/500,79,134.0
3837,C4,229.25,121/500,79,134.0
3838,G3,229.25,121/500,79,134.0
3839,A4,229.25,0.25,39,134.0
3840,B1,229.25,0.25,39,134.0
3841,E4,229.5,0.25,63,134.0
3842,G3,229.5,119/500,75,134.0
3843,C4,229.5,119/500,75,134.0
3844,E4,229.5,119/500,75,134.0
3845,G4,229.5,119/500,75,134.0
3846,E2,229.5,0.25,71,134.0
3847,G#2,229.5,0.25,71,134.0
3848,G4,229.75,0.25,63,134.0
3849,A4,229.75,0.25,63,134.0
3850,C4,229.75,123/500,79,134.0
3851,G3,229.75,123/500,79,134.0
3852,G4,230.0,0.25,63,134.0
3853,B2,230.0,0.5,79,134.0
3854,B1,230.0,0.5,111,134.0
3855,B1,230.0,0.25,63,134.0
3856,F#4,230.0,2.0,79,134.0
3857,B3,230.0,2.0,79,134.0
3858,G#4,230.25,0.25,63,134.0
3859,A4,230.25,0.25,39,134.0
3860,B1,230.25,0.25,39,134.0
3861,C#4,230.5,0.25,63,134.0
3862,B1,230.5,0.5,111,134.0
3863,F#3,230.5,19/40,75,134.0
3864,B3,230.5,19/40,75,134.0
3865,E-4,230.5,19/40,75,134.0
3866,F#4,230.5,19/40,75,134.0
3867,E2,230.5,0.25,71,134.0
3868,G#2,230.5,0.25,71,134.0
3869,E4,230.75,0.25,63,134.0
3870,A4,230.75,0.25,63,134.0
3871,B3,231.0,0.25,63,134.0
3872,E4,231.0,0.5,127,134.0
3873,G2,231.0,0.25,79,134.0
3874,C#2,231.0,0.5,111,134.0
3875,B1,231.0,0.25,63,134.0
3876,G3,231.25,0.25,63,134.0
3877,E-4,231.25,121/500,79,134.0
3878,B3,231.25,121/500,79,134.0
3879,F#3,231.25,121/500,79,134.0
3880,A4,231.25,0.25,39,134.0
3881,B1,231.25,0.25,39,134.0
3882,F#4,231.5,0.5,102,134.0
3883,E-2,231.5,0.5,111,134.0
3884,E4,231.5,0.25,50,134.0
3885,G#3,231.5,0.25,50,134.0
3886,F#3,231.5,119/500,75,134.0
3887,B3,231.5,119/500,75,134.0
3888,E-4,231.5,119/500,75,134.0
3889,F#4,231.5,119/500,75,134.0
3890,E2,231.5,0.25,71,134.0
3891,G#2,231.5,0.25,71,134.0
3892,B3,231.75,0.25,63,134.0
3893,A4,231.75,0.25,63,134.0
3894,B3,231.75,123/500,79,134.0
3895,F#3,231.75,123/500,79,134.0
3896,E3,232.0,1.0,63,134.0
3897,E4,232.0,1.0,127,134.0
3898,B2,232.0,0.5,79,134.0
3899,E2,232.0,1.0,111,134.0
3900,B1,232.0,0.25,63,134.0
3901,E4,232.0,4.0,71,134.0
3902,G#3,232.0,4.0,71,134.0
3903,A4,232.25,0.25,39,134.0
3904,B1,232.25,0.25,39,134.0
3905,E4,232.5,1.0,63,134.0
3906,B3,232.5,1.0,63,134.0
3907,G#3,232.5,1.0,63,134.0
3908,E3,232.5,19/40,75,134.0
3909,G#3,232.5,19/40,75,134.0
3910,B3,232.5,19/40,75,134.0
3911,E4,232.5,19/40,75,134.0
3912,E2,232.5,0.25,71,134.0
3913,G#2,232.5,0.25,71,134.0
3914,A4,232.75,0.25,63,134.0
3915,E3,233.0,1.0,63,134.0
3916,B3,233.0,0.5,127,134.0
3917,E2,233.0,0.25,79,134.0
3918,E2,233.0,667/1000,111,134.0
3919,B1,233.0,0.25,63,134.0
3920,B3,233.25,121/500,79,134.0
3921,G#3,233.25,121/500,79,134.0
3922,E3,233.25,121/500,79,134.0
3923,A4,233.25,0.25,39,134.0
3924,B1,233.25,0.25,39,134.0
3925,C#4,233.5,0.5,102,134.0
3926,E4,233.5,1.0,63,134.0
3927,B3,233.5,1.0,63,134.0
3928,G#3,233.5,1.0,63,134.0
3929,G#3,233.5,121/500,74,134.0
3930,B3,233.5,121/500,74,134.0
3931,E4,233.5,121/500,74,134.0
3932,E2,233.5,0.25,71,134.0
3933,G#2,233.5,0.25,71,134.0
3934,E2,233.667,333/1000,111,134.0
3935,A4,233.75,0.25,63,134.0
3936,G#3,233.75,123/500,79,134.0
3937,E3,233.75,123/500,79,134.0
3938,E3,234.0,1.0,63,134.0
3939,E4,234.0,0.5,127,134.0
3940,B2,234.0,0.5,79,134.0
3941,E2,234.0,1.0,111,134.0
3942,B1,234.0,0.25,63,134.0
3943,A4,234.25,0.25,39,134.0
3944,B1,234.25,0.25,39,134.0
3945,E4,234.5,1.5,63,134.0
3946,B3,234.5,1.5,63,134.0
3947,G#3,234.5,1.5,63,134.0
3948,E3,234.5,19/40,75,134.0
3949,G#3,234.5,19/40,75,134.0
3950,B3,234.5,19/40,75,134.0
3951,E4,234.5,19/40,75,134.0
3952,E2,234.5,0.25,71,134.0
3953,G#2,234.5,0.25,71,134.0
3954,A4,234.75,0.25,63,134.0
3955,E3,235.0,7/100,63,134.0
3956,B3,235.0,0.5,127,134.0
3957,E2,235.0,0.25,79,134.0
3958,E2,235.0,1.0,111,134.0
3959,B1,235.0,0.25,63,134.0
3960,B3,235.25,121/500,79,134.0
3961,G#3,235.25,121/500,79,134.0
3962,E3,235.25,121/500,79,134.0
3963,A4,235.25,0.25,39,134.0
3964,B1,235.25,0.25,39,134.0
3965,C#4,235.5,0.5,102,134.0
3966,E3,235.5,119/500,75,134.0
3967,G#3,235.5,119/500,75,134.0
3968,B3,235.5,119/500,75,134.0
3969,E4,235.5,119/500,75,134.0
3970,E2,235.5,0.25,71,134.0
3971,G#2,235.5,0.25,71,134.0
3972,A4,235.75,0.25,63,134.0
3973,G#3,235.75,123/500,79,134.0
3974,E3,235.75,123/500,79,134.0
3975,C#4,236.0,0.25,63,134.0
3976,F#4,236.0,0.25,127,134.0
3977,C#3,236.0,0.5,79,134.0
3978,C#2,236.0,1.0,111,134.0
3979,B1,236.0,0.25,63,134.0
3980,C#4,236.0,2.0,63,134.0
3981,C#4,236.0,2.0,63,134.0
3982,G#4,236.25,0.25,63,134.0
3983,G#4,236.25,0.5,127,134.0
3984,A4,236.25,0.25,39,134.0
3985,B1,236.25,0.25,39,134.0
3986,F#4,236.5,0.25,63,134.0
3987,G#3,236.5,483/1000,79,134.0
3988,C#4,236.5,483/1000,79,134.0
3989,B3,236.5,483/1000,79,134.0
3990,E2,236.5,0.25,71,134.0
3991,G#2,236.5,0.25,71,134.0
3992,E4,236.75,0.25,63,134.0
3993,C#5,236.75,2.25,95,134.0
3994,A4,236.75,0.25,63,134.0
3995,G#4,237.0,0.25,63,134.0
3996,G#2,237.0,0.25,79,134.0
3997,C#2,237.0,1.0,111,134.0
3998,B1,237.0,0.25,63,134.0
3999,C#4,237.25,0.25,63,134.0
4000,B3,237.25,121/500,79,134.0
4001,C#4,237.25,121/500,79,134.0
4002,G#3,237.25,121/500,79,134.0
4003,A4,237.25,0.25,39,134.0
4004,B1,237.25,0.25,39,134.0
4005,E4,237.5,0.25,63,134.0
4006,C#4,237.5,123/500,79,134.0
4007,B3,237.5,123/500,79,134.0
4008,E2,237.5,0.25,71,134.0
4009,G#2,237.5,0.25,71,134.0
4010,G#4,237.75,0.25,63,134.0
4011,A4,237.75,0.25,63,134.0
4012,C#4,237.75,123/500,79,134.0
4013,G#3,237.75,123/500,79,134.0
4014,C4,238.0,0.25,63,134.0
4015,C#3,238.0,0.5,79,134.0
4016,G#2,238.0,1.0,111,134.0
4017,B1,238.0,0.25,63,134.0
4018,E-4,238.0,2.0,63,134.0
4019,C4,238.0,2.0,63,134.0
4020,G#4,238.25,0.25,63,134.0
4021,A4,238.25,0.25,39,134.0
4022,B1,238.25,0.25,39,134.0
4023,F#4,238.5,0.25,63,134.0
4024,G#3,238.5,19/40,75,134.0
4025,B3,238.5,19/40,75,134.0
4026,E4,238.5,19/40,75,134.0
4027,G#4,238.5,19/40,75,134.0
4028,E2,238.5,0.25,71,134.0
4029,G#2,238.5,0.25,71,134.0
4030,E4,238.75,0.25,63,134.0
4031,A4,238.75,0.25,63,134.0
4032,G#4,239.0,0.25,63,134.0
4033,G#2,239.0,0.25,79,134.0
4034,G#2,239.0,1.0,111,134.0
4035,B1,239.0,0.25,63,134.0
4036,C4,239.25,0.25,63,134.0
4037,E4,239.25,121/500,79,134.0
4038,B3,239.25,121/500,79,134.0
4039,G#3,239.25,121/500,79,134.0
4040,A4,239.25,0.25,39,134.0
4041,B1,239.25,0.25,39,134.0
4042,E4,239.5,0.25,63,134.0
4043,E4,239.5,0.5,127,134.0
4044,G#3,239.5,119/500,75,134.0
4045,B3,239.5,119/500,75,134.0
4046,E4,239.5,119/500,75,134.0
4047,G#4,239.5,119/500,75,134.0
4048,E2,239.5,0.25,71,134.0
4049,G#2,239.5,0.25,71,134.0
4050,G#4,239.75,0.25,63,134.0
4051,A4,239.75,0.25,63,134.0
4052,B3,239.75,123/500,79,134.0
4053,G#3,239.75,123/500,79,134.0
4054,B3,240.0,0.25,63,134.0
4055,F#4,240.0,1.0,127,134.0
4056,C#3,240.0,0.5,79,134.0
4057,C#2,240.0,1.0,111,134.0
4058,B1,240.0,0.25,63,134.0
4059,E4,240.0,2.0,71,134.0
4060,C#4,240.0,2.0,71,134.0
4061,G#4,240.25,0.25,63,134.0
4062,A4,240.25,0.25,39,134.0
4063,B1,240.25,0.25,39,134.0
4064,F#4,240.5,0.25,63,134.0
4065,G#3,240.5,19/40,75,134.0
4066,C#4,240.5,19/40,75,134.0
4067,E4,240.5,19/40,75,134.0
4068,G#4,240.5,19/40,75,134.0
4069,E2,240.5,0.25,71,134.0
4070,G#2,240.5,0.25,71,134.0
4071,E4,240.75,0.25,63,134.0
4072,A4,240.75,0.25,63,134.0
4073,G#4,241.0,0.25,63,134.0
4074,E4,241.0,2.0,127,134.0
4075,G#2,241.0,0.25,79,134.0
4076,G#2,241.0,0.5,111,134.0
4077,B1,241.0,0.25,63,134.0
4078,B3,241.25,0.25,63,134.0
4079,E4,241.25,121/500,79,134.0
4080,C#4,241.25,121/500,79,134.0
4081,G#3,241.25,121/500,79,134.0
4082,A4,241.25,0.25,39,134.0
4083,B1,241.25,0.25,39,134.0
4084,E4,241.5,0.25,63,134.0
4085,C#2,241.5,0.5,111,134.0
4086,G#3,241.5,119/500,75,134.0
4087,C#4,241.5,119/500,75,134.0
4088,E4,241.5,119/500,75,134.0
4089,G#4,241.5,119/500,75,134.0
4090,E2,241.5,0.25,71,134.0
4091,G#2,241.5,0.25,71,134.0
4092,G#4,241.75,0.25,63,134.0
4093,A4,241.75,0.25,63,134.0
4094,C#4,241.75,123/500,79,134.0
4095,G#3,241.75,123/500,79,134.0
4096,B-3,242.0,0.25,63,134.0
4097,B2,242.0,0.5,79,134.0
4098,F#1,242.0,1.0,111,134.0
4099,B1,242.0,0.25,63,134.0
4100,F#4,242.0,2.0,63,134.0
4101,C#4,242.0,2.0,63,134.0
4102,G#4,242.25,0.25,63,134.0
4103,A4,242.25,0.25,39,134.0
4104,B1,242.25,0.25,39,134.0
4105,F#4,242.5,0.25,63,134.0
4106,F#3,242.5,19/40,75,134.0
4107,B-3,242.5,19/40,75,134.0
4108,C#4,242.5,19/40,75,134.0
4109,F#4,242.5,19/40,75,134.0
4110,E2,242.5,0.25,71,134.0
4111,G#2,242.5,0.25,71,134.0
4112,E4,242.75,0.25,63,134.0
4113,A4,242.75,0.25,63,134.0
4114,G#4,243.0,0.25,63,134.0
4115,F#2,243.0,0.25,79,134.0
4116,C#2,243.0,1.0,111,134.0
4117,B1,243.0,0.25,63,134.0
4118,B-3,243.25,0.25,63,134.0
4119,E4,243.25,0.25,127,134.0
4120,C#4,243.25,121/500,79,134.0
4121,B-3,243.25,121/500,79,134.0
4122,F#3,243.25,121/500,79,134.0
4123,A4,243.25,0.25,39,134.0
4124,B1,243.25,0.25,39,134.0
4125,E4,243.5,0.25,63,134.0
4126,F#4,243.5,0.5,127,134.0
4127,F#3,243.5,119/500,75,134.0
4128,B-3,243.5,119/500,75,134.0
4129,C#4,243.5,119/500,75,134.0
4130,F#4,243.5,119/500,75,134.0
4131,E2,243.5,0.25,71,134.0
4132,G#2,243.5,0.25,71,134.0
4133,B3,243.75,0.25,63,134.0
4134,A4,243.75,0.25,63,134.0
4135,B-3,243.75,123/500,79,134.0
4136,F#3,243.75,123/500,79,134.0
4137,C4,244.0,0.25,63,134.0
4138,F#4,244.0,4.0,127,134.0
4139,C3,244.0,0.5,79,134.0
4140,C2,244.0,1.0,111,134.0
4141,B1,244.0,0.25,63,134.0
4142,C5,244.0,4.0,63,134.0
4143,G4,244.0,4.0,63,134.0
4144,E4,244.0,4.0,63,134.0
4145,G4,244.25,0.25,63,134.0
4146,A4,244.25,0.25,39,134.0
4147,B1,244.25,0.25,39,134.0
4148,F#4,244.5,0.25,63,134.0
4149,G3,244.5,19/40,75,134.0
4150,C4,244.5,19/40,75,134.0
4151,E4,244.5,19/40,75,134.0
4152,G4,244.5,19/40,75,134.0
4153,E2,244.5,0.25,71,134.0
4154,G#2,244.5,0.25,71,134.0
4155,E4,244.75,0.25,63,134.0
4156,A4,244.75,0.25,63,134.0
4157,G4,245.0,0.25,63,134.0
4158,G2,245.0,0.25,79,134.0
4159,E2,245.0,0.5,111,134.0
4160,B1,245.0,0.25,63,134.0
4161,C4,245.25,0.25,63,134.0
4162,E4,245.25,121/500,79,134.0
4163,C4,245.25,121/500,79,134.0
4164,G3,245.25,121/500,79,134.0
4165,A4,245.25,0.25,39,134.0
4166,B1,245.25,0.25,39,134.0
4167,E4,245.5,0.25,63,134.0
4168,G2,245.5,0.5,111,134.0
4169,G3,245.5,119/500,75,134.0
4170,C4,245.5,119/500,75,134.0
4171,E4,245.5,119/500,75,134.0
4172,G4,245.5,119/500,75,134.0
4173,E2,245.5,0.25,71,134.0
4174,G#2,245.5,0.25,71,134.0
4175,B3,245.75,0.25,63,134.0
4176,A4,245.75,0.25,63,134.0
4177,C4,245.75,123/500,79,134.0
4178,G3,245.75,123/500,79,134.0
4179,E-4,246.0,0.25,63,134.0
4180,C3,246.0,0.5,79,134.0
4181,C3,246.0,1.0,111,134.0
4182,B1,246.0,0.25,63,134.0
4183,E4,246.25,0.25,63,134.0
4184,A4,246.25,0.25,39,134.0
4185,B1,246.25,0.25,39,134.0
4186,E-4,246.5,0.25,63,134.0
4187,G3,246.5,19/40,75,134.0
4188,C4,246.5,19/40,75,134.0
4189,E4,246.5,19/40,75,134.0
4190,G4,246.5,19/40,75,134.0
4191,E2,246.5,0.25,71,134.0
4192,G#2,246.5,0.25,71,134.0
4193,A4,246.75,0.25,63,134.0
4194,E4,246.75,0.25,63,134.0
4195,E4,246.75,0.25,63,134.0
4196,B3,247.0,0.25,63,134.0
4197,G2,247.0,0.25,79,134.0
4198,G2,247.0,0.5,111,134.0
4199,B1,247.0,0.25,63,134.0
4200,C4,247.25,0.25,63,134.0
4201,E4,247.25,121/500,79,134.0
4202,C4,247.25,121/500,79,134.0
4203,G3,247.25,121/500,79,134.0
4204,A4,247.25,0.25,39,134.0
4205,B1,247.25,0.25,39,134.0
4206,C3,247.5,0.5,111,134.0
4207,E4,247.5,0.25,63,134.0
4208,B3,247.5,0.25,63,134.0
4209,G3,247.5,119/500,75,134.0
4210,C4,247.5,119/500,75,134.0
4211,E4,247.5,119/500,75,134.0
4212,G4,247.5,119/500,75,134.0
4213,E2,247.5,0.25,71,134.0
4214,G#2,247.5,0.25,71,134.0
4215,B3,247.75,0.25,63,134.0
4216,A4,247.75,0.25,63,134.0
4217,C4,247.75,123/500,79,134.0
4218,G3,247.75,123/500,79,134.0
4219,B3,248.0,0.25,63,134.0
4220,F#4,248.0,2.0,127,134.0
4221,B2,248.0,0.5,79,134.0
4222,B2,248.0,1.0,111,134.0
4223,B1,248.0,0.25,63,134.0
4224,B4,248.0,3.0,63,134.0
4225,F#4,248.0,3.0,63,134.0
4226,E-4,248.0,3.0,63,134.0
4227,B3,248.25,0.25,63,134.0
4228,A4,248.25,0.25,39,134.0
4229,B1,248.25,0.25,39,134.0
4230,C#4,248.5,0.25,63,134.0
4231,F#3,248.5,19/40,75,134.0
4232,B3,248.5,19/40,75,134.0
4233,E-4,248.5,19/40,75,134.0
4234,F#4,248.5,19/40,75,134.0
4235,E2,248.5,0.25,71,134.0
4236,G#2,248.5,0.25,71,134.0
4237,E4,248.75,0.25,63,134.0
4238,A4,248.75,0.25,63,134.0
4239,D4,249.0,0.25,63,134.0
4240,F#2,249.0,0.25,79,134.0
4241,A2,249.0,1.0,111,134.0
4242,B1,249.0,0.25,63,134.0
4243,C#4,249.25,0.25,63,134.0
4244,E-4,249.25,121/500,79,134.0
4245,B3,249.25,121/500,79,134.0
4246,F#3,249.25,121/500,79,134.0
4247,A4,249.25,0.25,39,134.0
4248,B1,249.25,0.25,39,134.0
4249,E4,249.5,0.25,63,134.0
4250,F#3,249.5,119/500,75,134.0
4251,B3,249.5,119/500,75,134.0
4252,E-4,249.5,119/500,75,134.0
4253,F#4,249.5,119/500,75,134.0
4254,E2,249.5,0.25,71,134.0
4255,G#2,249.5,0.25,71,134.0
4256,B3,249.75,0.25,63,134.0
4257,A4,249.75,0.25,63,134.0
4258,B3,249.75,123/500,79,134.0
4259,F#3,249.75,123/500,79,134.0
4260,B3,250.0,0.5,63,134.0
4261,B4,250.0,2.0,127,134.0
4262,B2,250.0,0.5,79,134.0
4263,G#2,250.0,1.0,111,134.0
4264,B1,250.0,0.25,63,134.0
4265,A4,250.25,0.25,39,134.0
4266,B1,250.25,0.25,39,134.0
4267,E4,250.5,0.5,63,134.0
4268,B3,250.5,0.5,63,134.0
4269,F#3,250.5,19/40,75,134.0
4270,B3,250.5,19/40,75,134.0
4271,E-4,250.5,19/40,75,134.0
4272,F#4,250.5,19/40,75,134.0
4273,E2,250.5,0.25,71,134.0
4274,G#2,250.5,0.25,71,134.0
4275,A4,250.75,0.25,63,134.0
4276,F#2,251.0,0.25,79,134.0
4277,F#2,251.0,1.0,111,134.0
4278,B1,251.0,0.25,63,134.0
4279,E4,251.0,0.5,63,134.0
4280,C#4,251.0,0.5,63,134.0
4281,E-4,251.25,121/500,79,134.0
4282,B3,251.25,121/500,79,134.0
4283,F#3,251.25,121/500,79,134.0
4284,A4,251.25,0.25,39,134.0
4285,B1,251.25,0.25,39,134.0
4286,E4,251.5,0.5,63,134.0
4287,E4,251.5,0.5,63,134.0
4288,F#3,251.5,119/500,75,134.0
4289,B3,251.5,119/500,75,134.0
4290,E-4,251.5,119/500,75,134.0
4291,F#4,251.5,119/500,75,134.0
4292,E2,251.5,0.25,71,134.0
4293,G#2,251.5,0.25,71,134.0
4294,A4,251.75,0.25,63,134.0
4295,B3,251.75,123/500,79,134.0
4296,F#3,251.75,123/500,79,134.0
4297,B4,252.0,0.25,95,134.0
4298,B2,252.0,0.5,95,134.0
4299,E2,252.0,1.0,111,134.0
4300,B1,252.0,0.25,63,134.0
4301,A4,252.25,0.25,70,134.0
4302,A4,252.25,0.25,39,134.0
4303,B1,252.25,0.25,39,134.0
4304,G4,252.5,0.25,95,134.0
4305,E3,252.5,19/40,83,134.0
4306,G#3,252.5,19/40,83,134.0
4307,B3,252.5,19/40,83,134.0
4308,E4,252.5,19/40,83,134.0
4309,E2,252.5,0.25,71,134.0
4310,G#2,252.5,0.25,71,134.0
4311,E4,252.75,0.25,79,134.0
4312,A4,252.75,0.25,63,134.0
4313,G#4,253.0,0.25,95,134.0
4314,E2,253.0,0.25,95,134.0
4315,B1,253.0,1.0,111,134.0
4316,B1,253.0,0.25,63,134.0
4317,E4,253.25,0.25,79,134.0
4318,B3,253.25,121/500,79,134.0
4319,G#3,253.25,121/500,79,134.0
4320,E3,253.25,121/500,79,134.0
4321,A4,253.25,0.25,39,134.0
4322,B1,253.25,0.25,39,134.0
4323,F#4,253.5,0.25,95,134.0
4324,G#3,253.5,121/500,90,134.0
4325,B3,253.5,121/500,90,134.0
4326,E4,253.5,121/500,90,134.0
4327,E2,253.5,0.25,71,134.0
4328,G#2,253.5,0.25,71,134.0
4329,E-4,253.75,0.25,95,134.0
4330,A4,253.75,0.25,63,134.0
4331,G#3,253.75,123/500,95,134.0
4332,E3,253.75,123/500,95,134.0
4333,E4,254.0,0.25,79,134.0
4334,B2,254.0,0.5,95,134.0
4335,E2,254.0,1.0,111,134.0
4336,B1,254.0,0.25,63,134.0
4337,B3,254.25,0.25,79,134.0
4338,A4,254.25,0.25,39,134.0
4339,B1,254.25,0.25,39,134.0
4340,D4,254.5,0.25,95,134.0
4341,E3,254.5,19/40,83,134.0
4342,G#3,254.5,19/40,83,134.0
4343,B3,254.5,19/40,83,134.0
4344,E4,254.5,19/40,83,134.0
4345,E2,254.5,0.25,71,134.0
4346,G#2,254.5,0.25,71,134.0
4347,B3,254.75,0.25,79,134.0
4348,A4,254.75,0.25,63,134.0
4349,C#4,255.0,0.25,95,134.0
4350,E2,255.0,0.25,95,134.0
4351,F#2,255.0,0.5,111,134.0
4352,B1,255.0,0.25,63,134.0
4353,B-3,255.25,0.25,95,134.0
4354,B3,255.25,121/500,79,134.0
4355,G#3,255.25,121/500,79,134.0
4356,E3,255.25,121/500,79,134.0
4357,A4,255.25,0.25,39,134.0
4358,B1,255.25,0.25,39,134.0
4359,B3,255.5,0.25,79,134.0
4360,G#2,255.5,0.5,111,134.0
4361,E3,255.5,119/500,91,134.0
4362,G#3,255.5,119/500,91,134.0
4363,B3,255.5,119/500,91,134.0
4364,E4,255.5,119/500,91,134.0
4365,E2,255.5,0.25,71,134.0
4366,G#2,255.5,0.25,71,134.0
4367,G3,255.75,0.25,79,134.0
4368,A4,255.75,0.25,63,134.0
4369,G#3,255.75,123/500,95,134.0
4370,E3,255.75,123/500,95,134.0
4371,A3,256.0,0.25,95,134.0
4372,A2,256.0,0.5,95,134.0
4373,A2,256.0,1.0,111,134.0
4374,B1,256.0,0.25,63,134.0
4375,B3,256.25,0.25,79,134.0
4376,A4,256.25,0.25,39,134.0
4377,B1,256.25,0.25,39,134.0
4378,C#4,256.5,0.25,95,134.0
4379,G3,256.5,483/1000,79,134.0
4380,C#4,256.5,483/1000,79,134.0
4381,E4,256.5,483/1000,79,134.0
4382,E2,256.5,0.25,71,134.0
4383,G#2,256.5,0.25,71,134.0
4384,D4,256.75,0.25,95,134.0
4385,A4,256.75,0.25,63,134.0
4386,E4,257.0,0.25,79,134.0
4387,E3,257.0,0.25,95,134.0
4388,E2,257.0,1.0,111,134.0
4389,B1,257.0,0.25,63,134.0
4390,F#4,257.25,0.25,95,134.0
4391,G3,257.25,0.25,79,134.0
4392,A4,257.25,0.25,39,134.0
4393,B1,257.25,0.25,39,134.0
4394,G4,257.5,0.25,95,134.0
4395,C#4,257.5,123/500,87,134.0
4396,E4,257.5,123/500,87,134.0
4397,E2,257.5,0.25,71,134.0
4398,G#2,257.5,0.25,71,134.0
4399,E4,257.75,0.25,79,134.0
4400,A4,257.75,0.25,63,134.0
4401,C#4,257.75,123/500,95,134.0
4402,G3,257.75,123/500,95,134.0
4403,F#4,258.0,0.25,95,134.0
4404,A2,258.0,0.5,95,134.0
4405,A2,258.0,1.0,111,134.0
4406,B1,258.0,0.25,63,134.0
4407,E-4,258.25,0.25,95,134.0
4408,A4,258.25,0.25,39,134.0
4409,B1,258.25,0.25,39,134.0
4410,E4,258.5,0.25,79,134.0
4411,G3,258.5,483/1000,79,134.0
4412,C#4,258.5,483/1000,79,134.0
4413,E4,258.5,483/1000,79,134.0
4414,E2,258.5,0.25,71,134.0
4415,G#2,258.5,0.25,71,134.0
4416,B3,258.75,0.25,79,134.0
4417,A4,258.75,0.25,63,134.0
4418,C4,259.0,0.25,95,134.0
4419,E3,259.0,0.25,95,134.0
4420,G#2,259.0,0.5,111,134.0
4421,B1,259.0,0.25,63,134.0
4422,C#4,259.25,0.25,95,134.0
4423,G3,259.25,0.25,79,134.0
4424,A4,259.25,0.25,39,134.0
4425,B1,259.25,0.25,39,134.0
4426,E4,259.5,0.5,79,134.0
4427,F#2,259.5,0.5,111,134.0
4428,C#4,259.5,123/500,87,134.0
4429,E4,259.5,123/500,87,134.0
4430,E2,259.5,0.25,71,134.0
4431,G#2,259.5,0.25,71,134.0
4432,A4,259.75,0.25,63,134.0
4433,C#4,259.75,123/500,95,134.0
4434,G3,259.75,123/500,95,134.0
4435,B4,260.0,0.25,95,134.0
4436,B2,260.0,0.5,95,134.0
4437,E2,260.0,1.0,111,134.0
4438,B1,260.0,0.25,63,134.0
4439,A4,260.25,0.25,70,134.0
4440,A4,260.25,0.25,39,134.0
4441,B1,260.25,0.25,39,134.0
4442,G4,260.5,0.25,95,134.0
4443,E3,260.5,19/40,83,134.0
4444,G#3,260.5,19/40,83,134.0
4445,B3,260.5,19/40,83,134.0
4446,E4,260.5,19/40,83,134.0
4447,E2,260.5,0.25,71,134.0
4448,G#2,260.5,0.25,71,134.0
4449,E4,260.75,0.25,79,134.0
4450,A4,260.75,0.25,63,134.0
4451,G#4,261.0,0.25,95,134.0
4452,E2,261.0,0.25,95,134.0
4453,B1,261.0,1.0,111,134.0
4454,B1,261.0,0.25,63,134.0
4455,E4,261.25,0.25,79,134.0
4456,B3,261.25,121/500,79,134.0
4457,G#3,261.25,121/500,79,134.0
4458,E3,261.25,121/500,79,134.0
4459,A4,261.25,0.25,39,134.0
4460,B1,261.25,0.25,39,134.0
4461,F#4,261.5,0.25,95,134.0
4462,G#3,261.5,121/500,90,134.0
4463,B3,261.5,121/500,90,134.0
4464,E4,261.5,121/500,90,134.0
4465,E2,261.5,0.25,71,134.0
4466,G#2,261.5,0.25,71,134.0
4467,E-4,261.75,0.25,95,134.0
4468,A4,261.75,0.25,63,134.0
4469,G#3,261.75,123/500,95,134.0
4470,E3,261.75,123/500,95,134.0
4471,E4,262.0,0.25,79,134.0
4472,B2,262.0,0.5,95,134.0
4473,E2,262.0,1.0,111,134.0
4474,B1,262.0,0.25,63,134.0
4475,B3,262.25,0.25,79,134.0
4476,A4,262.25,0.25,39,134.0
4477,B1,262.25,0.25,39,134.0
4478,D4,262.5,0.25,95,134.0
4479,E3,262.5,19/40,83,134.0
4480,G#3,262.5,19/40,83,134.0
4481,B3,262.5,19/40,83,134.0
4482,E4,262.5,19/40,83,134.0
4483,E2,262.5,0.25,71,134.0
4484,G#2,262.5,0.25,71,134.0
4485,B3,262.75,0.25,79,134.0
4486,A4,262.75,0.25,63,134.0
4487,C#4,263.0,0.25,95,134.0
4488,E2,263.0,0.25,95,134.0
4489,B1,263.0,0.5,111,134.0
4490,B1,263.0,0.25,63,134.0
4491,B-3,263.25,0.25,95,134.0
4492,B3,263.25,121/500,79,134.0
4493,G#3,263.25,121/500,79,134.0
4494,E3,263.25,121/500,79,134.0
4495,A4,263.25,0.25,39,134.0
4496,B1,263.25,0.25,39,134.0
4497,B3,263.5,0.25,79,134.0
4498,E2,263.5,0.5,111,134.0
4499,E3,263.5,119/500,91,134.0
4500,G#3,263.5,119/500,91,134.0
4501,B3,263.5,119/500,91,134.0
4502,E4,263.5,119/500,91,134.0
4503,E2,263.5,0.25,71,134.0
4504,G#2,263.5,0.25,71,134.0
4505,G3,263.75,0.25,79,134.0
4506,A4,263.75,0.25,63,134.0
4507,G#3,263.75,123/500,95,134.0
4508,E3,263.75,123/500,95,134.0
4509,B-3,264.0,0.25,95,134.0
4510,C#3,264.0,0.5,95,134.0
4511,F#2,264.0,1.0,111,134.0
4512,B1,264.0,0.25,63,134.0
4513,F#4,264.25,0.25,95,134.0
4514,A4,264.25,0.25,39,134.0
4515,B1,264.25,0.25,39,134.0
4516,C#4,264.5,0.25,95,134.0
4517,B-3,264.5,483/1000,79,134.0
4518,C#4,264.5,483/1000,79,134.0
4519,F#4,264.5,483/1000,79,134.0
4520,E2,264.5,0.25,71,134.0
4521,G#2,264.5,0.25,71,134.0
4522,E4,264.75,0.25,79,134.0
4523,A4,264.75,0.25,63,134.0
4524,F#4,265.0,0.25,95,134.0
4525,F#3,265.0,0.25,95,134.0
4526,C#2,265.0,1.0,111,134.0
4527,B1,265.0,0.25,63,134.0
4528,B-3,265.25,0.25,95,134.0
4529,C#4,265.25,123/500,79,134.0
4530,B-3,265.25,123/500,79,134.0
4531,A4,265.25,0.25,39,134.0
4532,B1,265.25,0.25,39,134.0
4533,E4,265.5,0.25,79,134.0
4534,C#4,265.5,123/500,87,134.0
4535,F#4,265.5,123/500,87,134.0
4536,E2,265.5,0.25,71,134.0
4537,G#2,265.5,0.25,71,134.0
4538,B3,265.75,0.25,79,134.0
4539,A4,265.75,0.25,63,134.0
4540,C#4,265.75,123/500,95,134.0
4541,B-3,265.75,123/500,95,134.0
4542,C#4,266.0,0.25,95,134.0
4543,B2,266.0,0.5,95,134.0
4544,B1,266.0,0.5,111,134.0
4545,B1,266.0,0.25,63,134.0
4546,B3,266.25,0.25,79,134.0
4547,A4,266.25,0.25,39,134.0
4548,B1,266.25,0.25,39,134.0
4549,D4,266.5,0.25,95,134.0
4550,B1,266.5,0.5,111,134.0
4551,A3,266.5,483/1000,79,134.0
4552,E-4,266.5,483/1000,79,134.0
4553,F#4,266.5,483/1000,79,134.0
4554,E2,266.5,0.25,71,134.0
4555,G#2,266.5,0.25,71,134.0
4556,A4,266.75,0.25,95,134.0
4557,A4,266.75,0.25,63,134.0
4558,B3,267.0,0.25,79,134.0
4559,F#3,267.0,0.25,95,134.0
4560,C#2,267.0,0.5,111,134.0
4561,B1,267.0,0.25,63,134.0
4562,E-4,267.25,0.25,95,134.0
4563,E-4,267.25,123/500,79,134.0
4564,A3,267.25,123/500,79,134.0
4565,A4,267.25,0.25,39,134.0
4566,B1,267.25,0.25,39,134.0
4567,E4,267.5,0.25,79,134.0
4568,E-2,267.5,0.5,111,134.0
4569,E-4,267.5,123/500,87,134.0
4570,F#4,267.5,123/500,87,134.0
4571,E2,267.5,0.25,71,134.0
4572,G#2,267.5,0.25,71,134.0
4573,B3,267.75,0.25,79,134.0
4574,A4,267.75,0.25,63,134.0
4575,E-4,267.75,123/500,95,134.0
4576,A3,267.75,123/500,95,134.0
4577,B4,268.0,0.25,95,134.0
4578,B2,268.0,0.5,95,134.0
4579,E2,268.0,1.0,111,134.0
4580,B1,268.0,0.25,63,134.0
4581,A4,268.25,0.25,70,134.0
4582,A4,268.25,0.25,39,134.0
4583,B1,268.25,0.25,39,134.0
4584,G4,268.5,0.25,95,134.0
4585,E3,268.5,19/40,83,134.0
4586,G#3,268.5,19/40,83,134.0
4587,B3,268.5,19/40,83,134.0
4588,E4,268.5,19/40,83,134.0
4589,E2,268.5,0.25,71,134.0
4590,G#2,268.5,0.25,71,134.0
4591,E4,268.75,0.25,79,134.0
4592,A4,268.75,0.25,63,134.0
4593,G#4,269.0,0.25,95,134.0
4594,E2,269.0,0.25,95,134.0
4595,B1,269.0,1.0,111,134.0
4596,B1,269.0,0.25,63,134.0
4597,E4,269.25,0.25,79,134.0
4598,B3,269.25,121/500,79,134.0
4599,G#3,269.25,121/500,79,134.0
4600,E3,269.25,121/500,79,134.0
4601,A4,269.25,0.25,39,134.0
4602,B1,269.25,0.25,39,134.0
4603,F#4,269.5,0.25,95,134.0
4604,G#3,269.5,121/500,90,134.0
4605,B3,269.5,121/500,90,134.0
4606,E4,269.5,121/500,90,134.0
4607,E2,269.5,0.25,71,134.0
4608,G#2,269.5,0.25,71,134.0
4609,E-4,269.75,0.25,95,134.0
4610,A4,269.75,0.25,63,134.0
4611,G#3,269.75,123/500,95,134.0
4612,E3,269.75,123/500,95,134.0
4613,E4,270.0,0.25,79,134.0
4614,B2,270.0,0.5,95,134.0
4615,E2,270.0,1.0,111,134.0
4616,B1,270.0,0.25,63,134.0
4617,B3,270.25,0.25,79,134.0
4618,A4,270.25,0.25,39,134.0
4619,B1,270.25,0.25,39,134.0
4620,D4,270.5,0.25,95,134.0
4621,E3,270.5,19/40,83,134.0
4622,G#3,270.5,19/40,83,134.0
4623,B3,270.5,19/40,83,134.0
4624,E4,270.5,19/40,83,134.0
4625,E2,270.5,0.25,71,134.0
4626,G#2,270.5,0.25,71,134.0
4627,B3,270.75,0.25,79,134.0
4628,A4,270.75,0.25,63,134.0
4629,C#4,271.0,0.25,95,134.0
4630,E2,271.0,0.25,95,134.0
4631,F#2,271.0,0.5,111,134.0
4632,B1,271.0,0.25,63,134.0
4633,B-3,271.25,0.25,95,134.0
4634,B3,271.25,121/500,79,134.0
4635,G#3,271.25,121/500,79,134.0
4636,E3,271.25,121/500,79,134.0
4637,A4,271.25,0.25,39,134.0
4638,B1,271.25,0.25,39,134.0
4639,B3,271.5,0.25,79,134.0
4640,G#2,271.5,0.5,111,134.0
4641,E3,271.5,119/500,91,134.0
4642,G#3,271.5,119/500,91,134.0
4643,B3,271.5,119/500,91,134.0
4644,E4,271.5,119/500,91,134.0
4645,E2,271.5,0.25,71,134.0
4646,G#2,271.5,0.25,71,134.0
4647,G3,271.75,0.25,95,134.0
4648,A4,271.75,0.25,63,134.0
4649,G#3,271.75,123/500,95,134.0
4650,E3,271.75,123/500,95,134.0
4651,A3,272.0,0.25,95,134.0
4652,A2,272.0,0.5,95,134.0
4653,A2,272.0,1.0,111,134.0
4654,B1,272.0,0.25,63,134.0
4655,B3,272.25,0.25,79,134.0
4656,A4,272.25,0.25,39,134.0
4657,B1,272.25,0.25,39,134.0
4658,C#4,272.5,0.25,95,134.0
4659,G3,272.5,483/1000,79,134.0
4660,C#4,272.5,483/1000,79,134.0
4661,E4,272.5,483/1000,79,134.0
4662,E2,272.5,0.25,71,134.0
4663,G#2,272.5,0.25,71,134.0
4664,D4,272.75,0.25,95,134.0
4665,A4,272.75,0.25,63,134.0
4666,E4,273.0,0.25,79,134.0
4667,E3,273.0,0.25,95,134.0
4668,E2,273.0,1.0,111,134.0
4669,B1,273.0,0.25,63,134.0
4670,F#4,273.25,0.25,95,134.0
4671,G3,273.25,0.25,79,134.0
4672,A4,273.25,0.25,39,134.0
4673,B1,273.25,0.25,39,134.0
4674,G4,273.5,0.25,95,134.0
4675,C#4,273.5,123/500,87,134.0
4676,E4,273.5,123/500,87,134.0
4677,E2,273.5,0.25,71,134.0
4678,G#2,273.5,0.25,71,134.0
4679,E4,273.75,0.25,79,134.0
4680,A4,273.75,0.25,63,134.0
4681,C#4,273.75,123/500,95,134.0
4682,G3,273.75,123/500,95,134.0
4683,F#4,274.0,0.25,95,134.0
4684,A2,274.0,0.5,95,134.0
4685,A2,274.0,1.0,111,134.0
4686,B1,274.0,0.25,63,134.0
4687,E-4,274.25,0.25,95,134.0
4688,A4,274.25,0.25,39,134.0
4689,B1,274.25,0.25,39,134.0
4690,E4,274.5,0.25,79,134.0
4691,G3,274.5,483/1000,79,134.0
4692,C#4,274.5,483/1000,79,134.0
4693,E4,274.5,483/1000,79,134.0
4694,E2,274.5,0.25,71,134.0
4695,G#2,274.5,0.25,71,134.0
4696,B3,274.75,0.25,79,134.0
4697,A4,274.75,0.25,63,134.0
4698,C4,275.0,0.25,95,134.0
4699,E3,275.0,0.25,95,134.0
4700,G#2,275.0,0.5,111,134.0
4701,B1,275.0,0.25,63,134.0
4702,C#4,275.25,0.25,95,134.0
4703,G3,275.25,0.25,79,134.0
4704,A4,275.25,0.25,39,134.0
4705,B1,275.25,0.25,39,134.0
4706,E4,275.5,0.5,79,134.0
4707,F#2,275.5,0.5,111,134.0
4708,C#4,275.5,123/500,87,134.0
4709,E4,275.5,123/500,87,134.0
4710,E2,275.5,0.5,71,134.0
4711,G#2,275.5,0.5,71,134.0
4712,C#4,275.75,123/500,95,134.0
4713,G3,275.75,123/500,95,134.0
4714,E4,276.0,0.25,95,134.0
4715,E2,276.0,1.0,111,134.0
4716,E2,276.0,0.984,79,134.0
4717,B2,276.0,0.984,79,134.0
4718,E2,276.0,1.0,71,134.0
4719,G#2,276.0,1.0,71,134.0
4720,E4,276.25,0.25,79,134.0
4721,E-4,276.5,0.25,95,134.0
4722,E4,276.75,0.25,79,134.0
4723,B3,277.0,0.25,79,134.0
4724,E4,277.25,0.25,95,134.0
4725,E4,277.5,0.25,79,134.0
4726,B3,277.75,0.25,79,134.0
4727,G4,278.0,0.25,95,134.0
4728,E2,278.0,0.5,127,134.0
4729,E2,278.0,0.5,111,134.0
4730,E4,278.25,0.25,79,134.0
4731,G#4,278.5,0.25,95,134.0
4732,G#2,278.5,0.5,127,134.0
4733,G#2,278.5,0.5,111,134.0
4734,E4,278.75,0.25,79,134.0
4735,F#4,279.0,0.25,95,134.0
4736,A2,279.0,0.5,127,134.0
4737,A2,279.0,0.5,111,134.0
4738,E4,279.25,0.25,95,134.0
4739,E4,279.5,0.25,79,134.0
4740,B-2,279.5,0.5,127,134.0
4741,B-2,279.5,0.5,111,134.0
4742,B3,279.75,0.25,79,134.0
4743,B-3,280.0,0.25,79,134.0
4744,B2,280.0,0.5,95,134.0
4745,B2,280.0,1.0,111,134.0
4746,B1,280.0,0.25,63,134.0
4747,B3,280.25,0.25,79,134.0
4748,A4,280.25,0.25,39,134.0
4749,B1,280.25,0.25,39,134.0
4750,B3,280.5,0.25,79,134.0
4751,E-3,280.5,19/40,83,134.0
4752,A3,280.5,19/40,83,134.0
4753,B3,280.5,19/40,83,134.0
4754,F#4,280.5,19/40,83,134.0
4755,E2,280.5,0.25,71,134.0
4756,G#2,280.5,0.25,71,134.0
4757,E4,280.75,0.25,79,134.0
4758,A4,280.75,0.25,63,134.0
4759,B3,281.0,0.25,79,134.0
4760,F#2,281.0,0.25,95,134.0
4761,B1,281.0,1.0,111,134.0
4762,B1,281.0,0.25,63,134.0
4763,G3,281.25,0.25,95,134.0
4764,B3,281.25,121/500,79,134.0
4765,A3,281.25,121/500,79,134.0
4766,E-3,281.25,121/500,79,134.0
4767,A4,281.25,0.25,39,134.0
4768,B1,281.25,0.25,39,134.0
4769,E4,281.5,0.25,58,134.0
4770,G#3,281.5,0.25,58,134.0
4771,A3,281.5,121/500,90,134.0
4772,B3,281.5,121/500,90,134.0
4773,F#4,281.5,121/500,90,134.0
4774,E2,281.5,0.25,71,134.0
4775,G#2,281.5,0.25,71,134.0
4776,B3,281.75,0.25,79,134.0
4777,A4,281.75,0.25,63,134.0
4778,A3,281.75,123/500,95,134.0
4779,E-3,281.75,123/500,95,134.0
4780,E3,282.0,1.0,95,134.0
4781,B2,282.0,0.5,95,134.0
4782,E2,282.0,1.0,111,134.0
4783,B1,282.0,0.25,63,134.0
4784,A4,282.25,0.25,39,134.0
4785,B1,282.25,0.25,39,134.0
4786,E3,282.5,19/40,83,134.0
4787,G#3,282.5,19/40,83,134.0
4788,B3,282.5,19/40,83,134.0
4789,E4,282.5,19/40,83,134.0
4790,E2,282.5,0.25,71,134.0
4791,G#2,282.5,0.25,71,134.0
4792,A4,282.75,0.25,63,134.0
4793,E2,283.0,1.0,95,134.0
4794,B1,283.0,1.0,111,134.0
4795,E2,283.0,0.969,95,134.0
4796,B2,283.0,0.969,95,134.0
4797,E2,283.0,1.0,71,134.0
4798,G#2,283.0,1.0,71,134.0
4799,E3,283.062,0.906,95,134.0
4800,G#3,283.062,0.906,95,134.0
4801,B3,283.125,0.844,95,134.0
4802,E4,283.125,0.844,95,134.0
4803,B4,284.0,0.25,95,134.0
4804,A4,284.25,0.25,70,134.0
4805,G4,284.5,0.25,95,134.0
4806,E4,284.75,0.25,79,134.0
4807,G#4,285.0,0.25,95,134.0
4808,E4,285.25,0.25,79,134.0
4809,F#4,285.5,0.25,95,134.0
4810,E-4,285.75,0.25,95,134.0
4811,E4,286.0,0.25,79,134.0
4812,B3,286.25,0.25,79,134.0
4813,D4,286.5,0.25,95,134.0
4814,B3,286.75,0.25,79,134.0
4815,C#4,287.0,0.25,95,134.0
4816,B-3,287.25,0.25,95,134.0
4817,B3,287.5,0.25,79,134.0
4818,G3,287.75,0.25,95,134.0
4819,E2,288.0,0.5,95,134.0
4820,E2,288.0,0.5,95,134.0
4821,G3,288.5,167/1000,95,134.0
4822,G3,288.5,167/1000,95,134.0
4823,E3,288.667,167/1000,70,134.0
4824,E3,288.667,167/1000,70,134.0
4825,D3,288.833,167/1000,70,134.0
4826,D3,288.833,167/1000,70,134.0
4827,A3,289.0,0.5,95,134.0
4828,A3,289.0,0.5,95,134.0
4829,D4,289.5,0.5,95,134.0
4830,D4,289.5,0.5,95,134.0
4831,A3,290.0,167/1000,95,134.0
4832,A3,290.0,167/1000,95,134.0
4833,G#3,290.167,167/1000,70,134.0
4834,G#3,290.167,167/1000,70,134.0
4835,G3,290.333,167/1000,70,134.0
4836,G3,290.333,167/1000,70,134.0
4837,E3,290.5,0.25,95,134.0
4838,E3,290.5,0.25,95,134.0
4839,D3,290.75,0.25,70,134.0
4840,D3,290.75,0.25,70,134.0
4841,E3,291.0,0.5,95,134.0
4842,E3,291.0,0.5,95,134.0
4843,E3,291.5,0.453,95,134.0
4844,G#3,291.5,0.453,95,134.0
4845,B3,291.5,0.453,95,134.0
4846,E4,291.5,0.453,95,134.0
4847,E3,291.5,0.453,95,134.0
4848,G#3,291.5,0.453,95,134.0
4849,B3,291.5,0.453,95,134.0
4850,E4,291.5,0.453,95,134.0
