,note_name,start_time,duration,velocity,tempo
0,F#4,0.0,4.0,100,106.0
1,D4,0.0,4.0,100,106.0
2,A3,0.0,4.0,100,106.0
3,D2,0.0,4.0,100,106.0
4,F#4,8.0,4.0,100,106.0
5,D4,8.0,4.0,100,106.0
6,A3,8.0,4.0,100,106.0
7,D2,8.0,4.0,100,106.0
8,F#5,11.0,1.0,100,106.0
9,F#5,12.0,1.5,100,106.0
10,F#4,12.0,4.0,100,106.0
11,E4,12.0,4.0,100,106.0
12,C#4,12.0,4.0,100,106.0
13,A3,12.0,4.0,100,106.0
14,F#2,12.0,4.0,100,106.0
15,E5,13.5,0.25,100,106.0
16,D5,13.75,0.25,100,106.0
17,E5,14.0,1.5,100,106.0
18,F#5,15.5,0.5,100,106.0
19,E5,15.875,0.125,100,106.0
20,F#5,16.0,2.0,100,106.0
21,G5,18.0,71/500,100,106.0
22,F#5,18.142,71/500,100,106.0
23,E5,18.283,71/500,100,106.0
24,D5,18.425,71/500,100,106.0
25,B4,18.567,71/500,100,106.0
26,A4,18.708,71/500,100,106.0
27,G4,18.85,71/500,100,106.0
28,F#4,19.0,0.5,100,106.0
29,E4,19.5,0.5,100,106.0
30,D4,20.0,3.0,100,106.0
31,F#4,20.0,4.0,100,106.0
32,E4,20.0,4.0,100,106.0
33,C#4,20.0,4.0,100,106.0
34,A3,20.0,4.0,100,106.0
35,F#2,20.0,4.0,100,106.0
36,E2,24.0,4.0,100,106.0
37,G3,24.0,4.0,100,106.0
38,B3,24.0,4.0,100,106.0
39,D4,24.0,4.0,100,106.0
40,G4,24.0,4.0,100,106.0
41,A4,25.0,0.125,100,106.0
42,B4,25.125,0.125,100,106.0
43,A4,25.25,0.125,100,106.0
44,F#4,25.375,0.125,100,106.0
45,G4,25.5,0.125,100,106.0
46,F#4,25.625,0.125,100,106.0
47,E4,25.75,0.125,100,106.0
48,D4,25.875,0.125,100,106.0
49,E4,26.0,0.125,100,106.0
50,F#4,26.125,0.125,100,106.0
51,G4,26.25,0.125,100,106.0
52,A4,26.375,0.125,100,106.0
53,B4,26.5,0.125,100,106.0
54,A4,26.625,0.125,100,106.0
55,G4,26.75,0.125,100,106.0
56,A4,26.875,0.125,100,106.0
57,B4,27.0,0.125,100,106.0
58,D5,27.125,0.125,100,106.0
59,E5,27.25,0.125,100,106.0
60,D5,27.375,0.125,100,106.0
61,B4,27.5,0.125,100,106.0
62,A4,27.625,0.125,100,106.0
63,B4,27.75,0.125,100,106.0
64,D5,27.875,0.125,100,106.0
65,E5,28.0,0.125,100,106.0
66,G5,28.125,0.125,100,106.0
67,A5,28.25,0.125,100,106.0
68,B5,28.375,0.125,100,106.0
69,A5,28.5,3.5,100,106.0
70,A5,32.0,1.0,100,106.0
71,D2,32.0,1.5,100,106.0
72,C2,32.0,1.0,100,106.0
73,C#3,32.0,2.0,100,106.0
74,F#2,32.0,0.5,100,106.0
75,F#3,32.0,4.0,100,106.0
76,A3,32.0,4.0,100,106.0
77,D4,32.0,4.0,100,106.0
78,D4,32.5,0.25,100,106.0
79,F#2,32.5,0.25,100,106.0
80,D4,32.75,0.25,100,106.0
81,F#2,32.75,0.25,100,106.0
82,D4,33.0,0.5,100,106.0
83,F#2,33.0,0.5,100,106.0
84,C#2,33.0,0.5,100,106.0
85,D4,33.5,0.5,100,106.0
86,D2,33.5,0.5,100,106.0
87,C2,33.5,0.5,100,106.0
88,F#2,33.5,0.5,100,106.0
89,F#2,34.5,0.5,100,106.0
90,A1,35.0,0.5,100,106.0
91,F#2,35.0,0.5,100,106.0
92,C#2,35.0,0.5,100,106.0
93,B1,35.5,0.5,100,106.0
94,C2,35.5,0.5,100,106.0
95,F#2,35.5,0.5,100,106.0
96,D2,36.0,1.5,100,106.0
97,C2,36.0,1.0,100,106.0
98,F#2,36.0,0.5,100,106.0
99,A3,36.0,4.0,100,106.0
100,G3,36.0,4.0,100,106.0
101,D4,36.0,4.0,100,106.0
102,D4,36.5,0.25,100,106.0
103,F#2,36.5,0.25,100,106.0
104,D4,36.75,0.25,100,106.0
105,F#2,36.75,0.25,100,106.0
106,D4,37.0,0.5,100,106.0
107,F#2,37.0,0.5,100,106.0
108,C#2,37.0,0.5,100,106.0
109,D4,37.5,0.5,100,106.0
110,D2,37.5,0.5,100,106.0
111,C2,37.5,0.5,100,106.0
112,F#2,37.5,0.5,100,106.0
113,F#2,38.5,0.5,100,106.0
114,A1,39.0,0.5,100,106.0
115,F#2,39.0,0.5,100,106.0
116,C#2,39.0,0.5,100,106.0
117,B1,39.5,0.5,100,106.0
118,C2,39.5,0.5,100,106.0
119,B-2,39.5,0.5,100,106.0
120,E2,40.0,4.0,100,106.0
121,D2,40.0,1.5,100,106.0
122,C2,40.0,1.0,100,106.0
123,F#2,40.0,0.5,100,106.0
124,G3,40.0,4.0,100,106.0
125,B3,40.0,4.0,100,106.0
126,D4,40.0,4.0,100,106.0
127,G4,40.0,4.0,100,106.0
128,F#3,40.0,4.0,100,106.0
129,A3,40.0,4.0,100,106.0
130,D4,40.0,4.0,100,106.0
131,D4,40.5,0.25,100,106.0
132,F#2,40.5,0.25,100,106.0
133,D4,40.75,0.25,100,106.0
134,F#2,40.75,0.25,100,106.0
135,D4,41.0,0.5,100,106.0
136,F#2,41.0,0.5,100,106.0
137,C#2,41.0,0.5,100,106.0
138,D4,41.5,0.5,100,106.0
139,D2,41.5,1.25,100,106.0
140,F#2,41.5,0.5,100,106.0
141,C2,41.5,0.5,100,106.0
142,F#2,42.5,0.5,100,106.0
143,D2,42.75,0.25,100,106.0
144,A1,43.0,0.5,100,106.0
145,F#2,43.0,0.5,100,106.0
146,C#2,43.0,0.5,100,106.0
147,B1,43.5,0.5,100,106.0
148,C2,43.5,0.5,100,106.0
149,F#2,43.5,0.5,100,106.0
150,A2,44.0,4.0,100,106.0
151,D2,44.0,1.5,100,106.0
152,C2,44.0,1.0,100,106.0
153,F#2,44.0,0.5,100,106.0
154,G3,44.0,4.0,100,106.0
155,B3,44.0,4.0,100,106.0
156,D4,44.0,4.0,100,106.0
157,G4,44.0,4.0,100,106.0
158,G3,44.0,4.0,100,106.0
159,A3,44.0,4.0,100,106.0
160,D4,44.0,4.0,100,106.0
161,D4,44.5,0.25,100,106.0
162,F#2,44.5,0.25,100,106.0
163,D4,44.75,0.25,100,106.0
164,F#2,44.75,0.25,100,106.0
165,D4,45.0,0.5,100,106.0
166,F#2,45.0,0.5,100,106.0
167,C#2,45.0,0.5,100,106.0
168,D4,45.5,0.5,100,106.0
169,D2,45.5,1.5,100,106.0
170,C2,45.5,0.5,100,106.0
171,F#2,45.5,0.5,100,106.0
172,F#2,46.5,0.5,100,106.0
173,F#4,46.75,0.125,100,106.0
174,E4,46.875,0.125,100,106.0
175,D4,47.0,0.5,100,106.0
176,A1,47.0,0.5,100,106.0
177,F#2,47.0,0.5,100,106.0
178,C#2,47.0,0.5,100,106.0
179,E4,47.5,0.5,100,106.0
180,B1,47.5,0.5,100,106.0
181,C2,47.5,0.5,100,106.0
182,F#2,47.5,0.5,100,106.0
183,E4,47.875,0.125,100,106.0
184,F#4,48.0,0.5,100,106.0
185,A2,48.0,4.0,100,106.0
186,D2,48.0,1.5,100,106.0
187,C2,48.0,1.0,100,106.0
188,C#3,48.0,2033/1000,100,106.0
189,F#2,48.0,0.5,100,106.0
190,G3,48.0,4.0,100,106.0
191,B3,48.0,4.0,100,106.0
192,D4,48.0,4.0,100,106.0
193,G4,48.0,4.0,100,106.0
194,F#3,48.0,4.0,100,106.0
195,A3,48.0,4.0,100,106.0
196,D4,48.0,4.0,100,106.0
197,A4,48.5,0.5,100,106.0
198,D4,48.5,0.25,100,106.0
199,F#2,48.5,0.25,100,106.0
200,D4,48.75,0.25,100,106.0
201,F#2,48.75,0.25,100,106.0
202,B4,49.0,0.5,100,106.0
203,D4,49.0,0.5,100,106.0
204,F#2,49.0,0.5,100,106.0
205,C#2,49.0,0.5,100,106.0
206,D5,49.5,1.0,100,106.0
207,D4,49.5,0.5,100,106.0
208,D2,49.5,0.5,100,106.0
209,F#2,49.5,0.5,100,106.0
210,C2,49.5,0.5,100,106.0
211,B4,50.5,0.5,100,106.0
212,F#2,50.5,0.5,100,106.0
213,A1,51.0,0.5,100,106.0
214,F#2,51.0,0.5,100,106.0
215,C#2,51.0,0.5,100,106.0
216,B1,51.5,0.5,100,106.0
217,F#2,51.5,0.5,100,106.0
218,C2,51.5,0.5,100,106.0
219,D2,52.0,1.5,100,106.0
220,F#2,52.0,0.5,100,106.0
221,C2,52.0,1.0,100,106.0
222,G3,52.0,4.0,100,106.0
223,A3,52.0,4.0,100,106.0
224,D4,52.0,4.0,100,106.0
225,D4,52.5,0.25,100,106.0
226,F#2,52.5,0.25,100,106.0
227,D4,52.75,0.25,100,106.0
228,F#2,52.75,0.25,100,106.0
229,D4,53.0,0.5,100,106.0
230,F#2,53.0,0.5,100,106.0
231,C#2,53.0,0.5,100,106.0
232,D4,53.5,0.5,100,106.0
233,D2,53.5,0.5,100,106.0
234,F#2,53.5,0.5,100,106.0
235,C2,53.5,0.5,100,106.0
236,D5,54.0,0.5,100,106.0
237,E5,54.5,0.5,100,106.0
238,F#2,54.5,0.5,100,106.0
239,F#5,55.0,0.5,100,106.0
240,A1,55.0,0.5,100,106.0
241,F#2,55.0,0.5,100,106.0
242,C#2,55.0,0.5,100,106.0
243,G5,55.5,0.5,100,106.0
244,B1,55.5,0.5,100,106.0
245,B-2,55.5,0.5,100,106.0
246,C2,55.5,0.5,100,106.0
247,E5,55.875,0.125,100,106.0
248,F#5,56.0,1.0,100,106.0
249,D2,56.0,1.5,100,106.0
250,C2,56.0,1.0,100,106.0
251,F#2,56.0,0.5,100,106.0
252,F#3,56.0,4.0,100,106.0
253,A3,56.0,4.0,100,106.0
254,D4,56.0,4.0,100,106.0
255,D4,56.5,0.25,100,106.0
256,F#2,56.5,0.25,100,106.0
257,D4,56.75,0.25,100,106.0
258,F#2,56.75,0.25,100,106.0
259,D5,57.0,0.5,100,106.0
260,D4,57.0,0.5,100,106.0
261,F#2,57.0,0.5,100,106.0
262,C#2,57.0,0.5,100,106.0
263,A4,57.5,2.0,100,106.0
264,D4,57.5,0.5,100,106.0
265,D2,57.5,1.25,100,106.0
266,F#2,57.5,0.5,100,106.0
267,C2,57.5,0.5,100,106.0
268,F#2,58.5,0.5,100,106.0
269,D2,58.75,0.25,100,106.0
270,A1,59.0,0.5,100,106.0
271,F#2,59.0,0.5,100,106.0
272,C#2,59.0,0.5,100,106.0
273,B4,59.5,0.5,100,106.0
274,B1,59.5,0.5,100,106.0
275,F#2,59.5,0.5,100,106.0
276,C2,59.5,0.5,100,106.0
277,D2,60.0,1.5,100,106.0
278,F#2,60.0,0.5,100,106.0
279,C2,60.0,1.0,100,106.0
280,G3,60.0,4.0,100,106.0
281,A3,60.0,4.0,100,106.0
282,D4,60.0,4.0,100,106.0
283,D4,60.5,0.25,100,106.0
284,F#2,60.5,0.25,100,106.0
285,D4,60.75,0.25,100,106.0
286,F#2,60.75,0.25,100,106.0
287,D4,61.0,0.5,100,106.0
288,F#2,61.0,0.5,100,106.0
289,C#2,61.0,0.5,100,106.0
290,D4,61.5,0.5,100,106.0
291,D2,61.5,1.5,100,106.0
292,F#2,61.5,0.5,100,106.0
293,C2,61.5,0.5,100,106.0
294,F#2,62.5,0.5,100,106.0
295,F#4,62.75,0.125,100,106.0
296,E4,62.875,0.125,100,106.0
297,D4,63.0,0.5,100,106.0
298,A1,63.0,0.5,100,106.0
299,F#2,63.0,0.5,100,106.0
300,C#2,63.0,0.5,100,106.0
301,E4,63.5,0.5,100,106.0
302,B1,63.5,0.5,100,106.0
303,B-2,63.5,0.5,100,106.0
304,C2,63.5,0.5,100,106.0
305,E4,63.875,0.125,100,106.0
306,F#4,64.0,0.5,100,106.0
307,D2,64.0,1.5,100,106.0
308,C2,64.0,1.0,100,106.0
309,F#2,64.0,0.5,100,106.0
310,F#3,64.0,4.0,100,106.0
311,A3,64.0,4.0,100,106.0
312,D4,64.0,4.0,100,106.0
313,A4,64.5,0.5,100,106.0
314,D4,64.5,0.25,100,106.0
315,F#2,64.5,0.25,100,106.0
316,D4,64.75,0.25,100,106.0
317,F#2,64.75,0.25,100,106.0
318,B4,65.0,0.5,100,106.0
319,D4,65.0,0.5,100,106.0
320,F#2,65.0,0.5,100,106.0
321,C#2,65.0,0.5,100,106.0
322,C#5,65.375,0.125,100,106.0
323,D5,65.5,2.5,100,106.0
324,D4,65.5,0.5,100,106.0
325,D2,65.5,0.5,100,106.0
326,F#2,65.5,0.5,100,106.0
327,C2,65.5,0.5,100,106.0
328,F#2,66.5,0.5,100,106.0
329,A1,67.0,0.5,100,106.0
330,F#2,67.0,0.5,100,106.0
331,C#2,67.0,0.5,100,106.0
332,B1,67.5,0.5,100,106.0
333,F#2,67.5,0.5,100,106.0
334,C2,67.5,0.5,100,106.0
335,D5,68.0,2.0,100,106.0
336,D2,68.0,1.5,100,106.0
337,F#2,68.0,0.5,100,106.0
338,C2,68.0,1.0,100,106.0
339,G3,68.0,4.0,100,106.0
340,A3,68.0,4.0,100,106.0
341,D4,68.0,4.0,100,106.0
342,D4,68.5,0.25,100,106.0
343,F#2,68.5,0.25,100,106.0
344,D4,68.75,0.25,100,106.0
345,F#2,68.75,0.25,100,106.0
346,D4,69.0,0.5,100,106.0
347,F#2,69.0,0.5,100,106.0
348,C#2,69.0,0.5,100,106.0
349,D4,69.5,0.5,100,106.0
350,D2,69.5,0.5,100,106.0
351,F#2,69.5,0.5,100,106.0
352,C2,69.5,0.5,100,106.0
353,C5,70.0,1.25,100,106.0
354,F#2,70.5,0.5,100,106.0
355,A1,71.0,0.5,100,106.0
356,F#2,71.0,0.5,100,106.0
357,C#2,71.0,0.5,100,106.0
358,B4,71.25,0.25,100,106.0
359,A4,71.5,0.25,100,106.0
360,B1,71.5,0.5,100,106.0
361,B-2,71.5,0.5,100,106.0
362,C2,71.5,0.5,100,106.0
363,F#4,71.75,0.25,100,106.0
364,A4,72.0,1.0,100,106.0
365,D2,72.0,1.5,100,106.0
366,C2,72.0,1.0,100,106.0
367,F#2,72.0,0.5,100,106.0
368,F#3,72.0,4.0,100,106.0
369,A3,72.0,4.0,100,106.0
370,D4,72.0,4.0,100,106.0
371,D4,72.5,0.25,100,106.0
372,F#2,72.5,0.25,100,106.0
373,D4,72.75,0.25,100,106.0
374,F#2,72.75,0.25,100,106.0
375,F4,73.0,0.25,100,106.0
376,D4,73.0,0.5,100,106.0
377,F#2,73.0,0.5,100,106.0
378,C#2,73.0,0.5,100,106.0
379,E4,73.25,0.25,100,106.0
380,D4,73.5,1.5,100,106.0
381,D4,73.5,0.5,100,106.0
382,D2,73.5,1.25,100,106.0
383,F#2,73.5,0.5,100,106.0
384,C2,73.5,0.5,100,106.0
385,F#2,74.5,0.5,100,106.0
386,D2,74.75,0.25,100,106.0
387,E4,75.0,0.25,100,106.0
388,A1,75.0,0.5,100,106.0
389,F#2,75.0,0.5,100,106.0
390,C#2,75.0,0.5,100,106.0
391,D4,75.5,0.5,100,106.0
392,B1,75.5,0.5,100,106.0
393,F#2,75.5,0.5,100,106.0
394,C2,75.5,0.5,100,106.0
395,D4,76.0,2.0,100,106.0
396,D2,76.0,1.5,100,106.0
397,F#2,76.0,0.5,100,106.0
398,C2,76.0,1.0,100,106.0
399,G3,76.0,4.0,100,106.0
400,A3,76.0,4.0,100,106.0
401,D4,76.0,4.0,100,106.0
402,D4,76.5,0.25,100,106.0
403,F#2,76.5,0.25,100,106.0
404,D4,76.75,0.25,100,106.0
405,F#2,76.75,0.25,100,106.0
406,D4,77.0,0.5,100,106.0
407,F#2,77.0,0.5,100,106.0
408,C#2,77.0,0.5,100,106.0
409,D4,77.5,0.5,100,106.0
410,D2,77.5,1.5,100,106.0
411,F#2,77.5,0.5,100,106.0
412,C2,77.5,0.5,100,106.0
413,F#2,78.5,0.5,100,106.0
414,F#4,78.75,0.125,100,106.0
415,E4,78.875,0.125,100,106.0
416,D4,79.0,0.5,100,106.0
417,A1,79.0,0.5,100,106.0
418,F#2,79.0,0.5,100,106.0
419,C#2,79.0,0.5,100,106.0
420,E4,79.5,0.5,100,106.0
421,B1,79.5,0.5,100,106.0
422,B-2,79.5,0.5,100,106.0
423,C2,79.5,0.5,100,106.0
424,E4,79.875,0.125,100,106.0
425,F#4,80.0,0.5,100,106.0
426,D2,80.0,1.5,100,106.0
427,C#3,80.0,2.0,100,106.0
428,C2,80.0,1.0,100,106.0
429,F#2,80.0,0.5,100,106.0
430,F#3,80.0,4.0,100,106.0
431,A3,80.0,4.0,100,106.0
432,D4,80.0,4.0,100,106.0
433,A4,80.5,0.5,100,106.0
434,D4,80.5,0.25,100,106.0
435,F#2,80.5,0.25,100,106.0
436,D4,80.75,0.25,100,106.0
437,F#2,80.75,0.25,100,106.0
438,B4,81.0,0.5,100,106.0
439,D4,81.0,0.5,100,106.0
440,F#2,81.0,0.5,100,106.0
441,C#2,81.0,0.5,100,106.0
442,D5,81.5,1.0,100,106.0
443,D4,81.5,0.5,100,106.0
444,D2,81.5,0.5,100,106.0
445,F#2,81.5,0.5,100,106.0
446,C2,81.5,0.5,100,106.0
447,E5,82.5,0.5,100,106.0
448,F#2,82.5,0.5,100,106.0
449,A1,83.0,0.5,100,106.0
450,F#2,83.0,0.5,100,106.0
451,C#2,83.0,0.5,100,106.0
452,B1,83.5,0.5,100,106.0
453,F#2,83.5,0.5,100,106.0
454,C2,83.5,0.5,100,106.0
455,D2,84.0,1.5,100,106.0
456,F#2,84.0,0.5,100,106.0
457,C2,84.0,1.0,100,106.0
458,G3,84.0,4.0,100,106.0
459,B3,84.0,4.0,100,106.0
460,D4,84.0,4.0,100,106.0
461,E4,84.0,4.0,100,106.0
462,D4,84.5,0.25,100,106.0
463,F#2,84.5,0.25,100,106.0
464,D4,84.75,0.25,100,106.0
465,F#2,84.75,0.25,100,106.0
466,D4,85.0,0.5,100,106.0
467,F#2,85.0,0.5,100,106.0
468,C#2,85.0,0.5,100,106.0
469,D4,85.5,0.5,100,106.0
470,D2,85.5,0.5,100,106.0
471,F#2,85.5,0.5,100,106.0
472,C2,85.5,0.5,100,106.0
473,D5,86.0,0.5,100,106.0
474,E5,86.5,0.5,100,106.0
475,F#2,86.5,0.5,100,106.0
476,F#5,87.0,0.5,100,106.0
477,A1,87.0,0.5,100,106.0
478,F#2,87.0,0.5,100,106.0
479,C#2,87.0,0.5,100,106.0
480,G5,87.5,0.5,100,106.0
481,B1,87.5,0.5,100,106.0
482,B-2,87.5,0.5,100,106.0
483,C2,87.5,0.5,100,106.0
484,E5,87.875,0.125,100,106.0
485,F#5,88.0,1.0,100,106.0
486,D2,88.0,1.5,100,106.0
487,C2,88.0,1.0,100,106.0
488,F#2,88.0,0.5,100,106.0
489,F#3,88.0,4.0,100,106.0
490,A3,88.0,4.0,100,106.0
491,D4,88.0,4.0,100,106.0
492,F#4,88.0,4.0,100,106.0
493,D4,88.5,0.25,100,106.0
494,F#2,88.5,0.25,100,106.0
495,D4,88.75,0.25,100,106.0
496,F#2,88.75,0.25,100,106.0
497,D5,89.0,0.5,100,106.0
498,D4,89.0,0.5,100,106.0
499,F#2,89.0,0.5,100,106.0
500,C#2,89.0,0.5,100,106.0
501,A4,89.5,1.5,100,106.0
502,D4,89.5,0.5,100,106.0
503,D2,89.5,1.25,100,106.0
504,F#2,89.5,0.5,100,106.0
505,C2,89.5,0.5,100,106.0
506,F#2,90.5,0.5,100,106.0
507,D2,90.75,0.25,100,106.0
508,A4,90.875,0.125,100,106.0
509,B4,91.0,0.5,100,106.0
510,A1,91.0,0.5,100,106.0
511,F#2,91.0,0.5,100,106.0
512,C#2,91.0,0.5,100,106.0
513,A4,91.5,0.5,100,106.0
514,B1,91.5,0.5,100,106.0
515,F#2,91.5,0.5,100,106.0
516,C2,91.5,0.5,100,106.0
517,A4,92.0,0.5,100,106.0
518,D2,92.0,1.5,100,106.0
519,F#2,92.0,0.5,100,106.0
520,C2,92.0,1.0,100,106.0
521,A3,92.0,4.0,100,106.0
522,G3,92.0,4.0,100,106.0
523,D4,92.0,4.0,100,106.0
524,B4,92.5,0.5,100,106.0
525,D4,92.5,0.25,100,106.0
526,F#2,92.5,0.25,100,106.0
527,D4,92.75,0.25,100,106.0
528,F#2,92.75,0.25,100,106.0
529,D4,93.0,0.5,100,106.0
530,F#2,93.0,0.5,100,106.0
531,C#2,93.0,0.5,100,106.0
532,D4,93.5,0.5,100,106.0
533,D2,93.5,1.5,100,106.0
534,F#2,93.5,0.5,100,106.0
535,C2,93.5,0.5,100,106.0
536,F#2,94.5,0.5,100,106.0
537,F#4,94.75,0.125,100,106.0
538,E4,94.875,0.125,100,106.0
539,D4,95.0,0.5,100,106.0
540,A1,95.0,0.5,100,106.0
541,F#2,95.0,0.5,100,106.0
542,C#2,95.0,0.5,100,106.0
543,E4,95.5,0.5,100,106.0
544,B1,95.5,0.5,100,106.0
545,F#2,95.5,0.5,100,106.0
546,C2,95.5,0.5,100,106.0
547,E4,95.875,0.125,100,106.0
548,F#4,96.0,0.5,100,106.0
549,D2,96.0,1.5,100,106.0
550,C2,96.0,1.0,100,106.0
551,F#2,96.0,0.5,100,106.0
552,F#3,96.0,4.0,100,106.0
553,A3,96.0,4.0,100,106.0
554,D4,96.0,4.0,100,106.0
555,A4,96.5,0.5,100,106.0
556,D4,96.5,0.25,100,106.0
557,F#2,96.5,0.25,100,106.0
558,D4,96.75,0.25,100,106.0
559,F#2,96.75,0.25,100,106.0
560,B4,97.0,0.5,100,106.0
561,D4,97.0,0.5,100,106.0
562,F#2,97.0,0.5,100,106.0
563,C#2,97.0,0.5,100,106.0
564,C#5,97.375,0.125,100,106.0
565,D5,97.5,2.5,100,106.0
566,D4,97.5,0.5,100,106.0
567,D2,97.5,0.5,100,106.0
568,F#2,97.5,0.5,100,106.0
569,C2,97.5,0.5,100,106.0
570,F#2,98.5,0.5,100,106.0
571,A1,99.0,0.5,100,106.0
572,F#2,99.0,0.5,100,106.0
573,C#2,99.0,0.5,100,106.0
574,B1,99.5,0.5,100,106.0
575,F#2,99.5,0.5,100,106.0
576,C2,99.5,0.5,100,106.0
577,D5,100.0,2.0,100,106.0
578,D2,100.0,1.5,100,106.0
579,F#2,100.0,0.5,100,106.0
580,C2,100.0,1.0,100,106.0
581,G3,100.0,4.0,100,106.0
582,B3,100.0,4.0,100,106.0
583,D4,100.0,4.0,100,106.0
584,E4,100.0,4.0,100,106.0
585,D4,100.5,0.25,100,106.0
586,F#2,100.5,0.25,100,106.0
587,D4,100.75,0.25,100,106.0
588,F#2,100.75,0.25,100,106.0
589,D4,101.0,0.5,100,106.0
590,F#2,101.0,0.5,100,106.0
591,C#2,101.0,0.5,100,106.0
592,D4,101.5,0.5,100,106.0
593,D2,101.5,0.5,100,106.0
594,F#2,101.5,0.5,100,106.0
595,C2,101.5,0.5,100,106.0
596,D5,102.0,0.5,100,106.0
597,E5,102.5,0.5,100,106.0
598,F#2,102.5,0.5,100,106.0
599,F#5,103.0,0.5,100,106.0
600,A1,103.0,0.5,100,106.0
601,F#2,103.0,0.5,100,106.0
602,C#2,103.0,0.5,100,106.0
603,G5,103.5,0.5,100,106.0
604,B1,103.5,0.5,100,106.0
605,F#2,103.5,0.5,100,106.0
606,C2,103.5,0.5,100,106.0
607,G5,104.0,0.5,100,106.0
608,D2,104.0,1.5,100,106.0
609,C2,104.0,1.0,100,106.0
610,F#2,104.0,0.5,100,106.0
611,F#4,104.0,3.5,100,106.0
612,F#3,104.0,3.5,100,106.0
613,A3,104.0,3.5,100,106.0
614,D4,104.0,3.5,100,106.0
615,F#5,104.5,1.0,100,106.0
616,D4,104.5,0.25,100,106.0
617,F#2,104.5,0.25,100,106.0
618,D4,104.75,0.25,100,106.0
619,F#2,104.75,0.25,100,106.0
620,D4,105.0,0.5,100,106.0
621,F#2,105.0,0.5,100,106.0
622,C#2,105.0,0.5,100,106.0
623,D5,105.5,1.0,100,106.0
624,D4,105.5,0.5,100,106.0
625,D2,105.5,1.0,100,106.0
626,F#2,105.5,0.5,100,106.0
627,C2,105.5,0.5,100,106.0
628,A4,106.5,0.5,100,106.0
629,A1,106.5,0.5,100,106.0
630,F#2,106.5,0.5,100,106.0
631,A4,106.875,0.125,100,106.0
632,B4,107.0,0.5,100,106.0
633,B1,107.0,0.5,100,106.0
634,F#2,107.0,0.5,100,106.0
635,C#2,107.0,0.5,100,106.0
636,A4,107.5,0.5,100,106.0
637,E2,107.5,0.5,100,106.0
638,G3,107.5,0.5,100,106.0
639,B3,107.5,0.5,100,106.0
640,D4,107.5,0.5,100,106.0
641,E4,107.5,0.5,100,106.0
642,F#2,107.5,0.5,100,106.0
643,C2,107.5,0.5,100,106.0
644,A4,108.0,0.5,100,106.0
645,E2,108.0,1.5,100,106.0
646,F#2,108.0,0.5,100,106.0
647,C2,108.0,1.0,100,106.0
648,B4,108.5,0.5,100,106.0
649,D4,108.5,0.25,100,106.0
650,F#2,108.5,0.25,100,106.0
651,D4,108.75,0.25,100,106.0
652,F#2,108.75,0.25,100,106.0
653,D4,109.0,0.5,100,106.0
654,F#2,109.0,0.5,100,106.0
655,C#2,109.0,0.5,100,106.0
656,D4,109.5,0.5,100,106.0
657,E2,109.5,2.0,100,106.0
658,F#2,109.5,0.5,100,106.0
659,C2,109.5,0.5,100,106.0
660,F#5,110.5,0.5,100,106.0
661,F#2,110.5,0.5,100,106.0
662,G5,111.0,0.5,100,106.0
663,B2,111.0,0.5,100,106.0
664,F#2,111.0,0.5,100,106.0
665,C#2,111.0,0.5,100,106.0
666,A5,111.5,0.5,100,106.0
667,B1,111.5,0.5,100,106.0
668,A2,111.5,0.5,100,106.0
669,F#2,111.5,0.5,100,106.0
670,C2,111.5,0.5,100,106.0
671,A5,112.0,2.5,100,106.0
672,C#2,112.0,1.5,100,106.0
673,C#3,112.0,2.0,100,106.0
674,C2,112.0,1.0,100,106.0
675,F#2,112.0,0.5,100,106.0
676,G3,112.0,4.0,100,106.0
677,B3,112.0,4.0,100,106.0
678,D4,112.0,4.0,100,106.0
679,E4,112.0,4.0,100,106.0
680,A4,112.5,0.5,100,106.0
681,F#2,112.5,0.5,100,106.0
682,C#5,113.0,0.5,100,106.0
683,C#2,113.0,0.5,100,106.0
684,F#2,113.0,0.5,100,106.0
685,E5,113.5,2.5,100,106.0
686,C#2,113.5,2.0,100,106.0
687,F#2,113.5,0.5,100,106.0
688,C2,113.5,0.5,100,106.0
689,F#2,114.0,0.5,100,106.0
690,C#5,114.5,0.5,100,106.0
691,F#2,114.5,0.5,100,106.0
692,E5,115.0,0.5,100,106.0
693,F#2,115.0,0.5,100,106.0
694,C#2,115.0,0.5,100,106.0
695,D5,115.5,0.5,100,106.0
696,C#2,115.5,0.5,100,106.0
697,F#2,115.5,0.5,100,106.0
698,C2,115.5,0.5,100,106.0
699,D5,116.0,0.5,100,106.0
700,B1,116.0,1.5,100,106.0
701,C2,116.0,1.0,100,106.0
702,F#2,116.0,0.5,100,106.0
703,G3,116.0,4.0,100,106.0
704,C#4,116.0,4.0,100,106.0
705,E4,116.0,4.0,100,106.0
706,E5,116.5,0.5,100,106.0
707,A4,116.5,0.5,100,106.0
708,F#2,116.5,0.5,100,106.0
709,D5,117.0,0.5,100,106.0
710,C#2,117.0,0.5,100,106.0
711,F#2,117.0,0.5,100,106.0
712,F#5,117.5,2.5,100,106.0
713,B1,117.5,2.0,100,106.0
714,F#2,117.5,0.5,100,106.0
715,C2,117.5,0.5,100,106.0
716,F#2,118.0,0.5,100,106.0
717,F#2,118.5,0.5,100,106.0
718,B4,118.75,0.25,100,106.0
719,E5,119.0,0.5,100,106.0
720,F#2,119.0,0.5,100,106.0
721,C#2,119.0,0.5,100,106.0
722,F#5,119.5,0.5,100,106.0
723,B1,119.5,0.5,100,106.0
724,F#2,119.5,0.5,100,106.0
725,C2,119.5,0.5,100,106.0
726,G5,120.0,1.0,100,106.0
727,A1,120.0,1.5,100,106.0
728,C2,120.0,1.0,100,106.0
729,F#2,120.0,0.5,100,106.0
730,A3,120.0,4.0,100,106.0
731,B3,120.0,4.0,100,106.0
732,D4,120.0,4.0,100,106.0
733,F#4,120.0,4.0,100,106.0
734,G4,120.5,0.5,100,106.0
735,F#2,120.5,0.5,100,106.0
736,F#5,121.0,0.5,100,106.0
737,B4,121.0,0.5,100,106.0
738,C#2,121.0,0.5,100,106.0
739,F#2,121.0,0.5,100,106.0
740,E5,121.5,1.0,100,106.0
741,E5,121.5,2.5,100,106.0
742,A1,121.5,2.0,100,106.0
743,F#2,121.5,0.5,100,106.0
744,C2,121.5,0.5,100,106.0
745,F#2,122.0,0.5,100,106.0
746,F#5,122.5,0.5,100,106.0
747,F#2,122.5,0.5,100,106.0
748,G5,123.0,1.0,100,106.0
749,F#2,123.0,0.5,100,106.0
750,C#2,123.0,0.5,100,106.0
751,A1,123.5,0.5,100,106.0
752,F#2,123.5,0.5,100,106.0
753,C2,123.5,0.5,100,106.0
754,E5,123.75,0.125,100,106.0
755,F#5,124.0,0.75,100,106.0
756,D4,124.0,1.5,100,106.0
757,A1,124.0,1.5,100,106.0
758,C2,124.0,1.0,100,106.0
759,F#2,124.0,0.5,100,106.0
760,B3,124.0,4.0,100,106.0
761,G4,124.0,4.0,100,106.0
762,G4,124.5,0.5,100,106.0
763,F#2,124.5,0.5,100,106.0
764,G5,124.75,0.25,100,106.0
765,F#5,125.0,0.5,100,106.0
766,B4,125.0,0.5,100,106.0
767,C#2,125.0,0.5,100,106.0
768,F#2,125.0,0.5,100,106.0
769,E5,125.5,1.0,100,106.0
770,E4,125.5,2.5,100,106.0
771,E5,125.5,2.5,100,106.0
772,A1,125.5,2.0,100,106.0
773,F#2,125.5,0.5,100,106.0
774,C2,125.5,0.5,100,106.0
775,F#2,126.0,0.5,100,106.0
776,D5,126.5,0.5,100,106.0
777,B2,126.5,0.5,100,106.0
778,F#2,126.5,0.5,100,106.0
779,E5,127.0,0.5,100,106.0
780,A2,127.0,0.5,100,106.0
781,F#2,127.0,0.5,100,106.0
782,C#2,127.0,0.5,100,106.0
783,B5,127.5,0.5,100,106.0
784,B1,127.5,0.5,100,106.0
785,A2,127.5,0.5,100,106.0
786,F#2,127.5,0.5,100,106.0
787,C2,127.5,0.5,100,106.0
788,A5,128.0,2667/1000,100,106.0
789,F#4,128.0,1.5,100,106.0
790,C#2,128.0,1.5,100,106.0
791,C2,128.0,1.0,100,106.0
792,F#2,128.0,0.5,100,106.0
793,G3,128.0,4.0,100,106.0
794,B3,128.0,4.0,100,106.0
795,D4,128.0,4.0,100,106.0
796,A4,128.5,0.5,100,106.0
797,F#2,128.5,0.5,100,106.0
798,C#5,129.0,0.5,100,106.0
799,C#2,129.0,0.5,100,106.0
800,F#2,129.0,0.5,100,106.0
801,E4,129.5,2.5,100,106.0
802,E5,129.5,2.5,100,106.0
803,C#2,129.5,2.0,100,106.0
804,F#2,129.5,0.5,100,106.0
805,C2,129.5,0.5,100,106.0
806,F#2,130.0,0.5,100,106.0
807,F#2,130.5,0.5,100,106.0
808,B5,130.667,667/1000,100,106.0
809,F#2,131.0,0.5,100,106.0
810,C#2,131.0,0.5,100,106.0
811,A5,131.333,667/1000,100,106.0
812,C#2,131.5,0.5,100,106.0
813,F#2,131.5,0.5,100,106.0
814,C2,131.5,0.5,100,106.0
815,F#5,132.0,1/10,100,106.0
816,B1,132.0,1.5,100,106.0
817,C2,132.0,1.0,100,106.0
818,F#2,132.0,0.5,100,106.0
819,G3,132.0,4.0,100,106.0
820,C#4,132.0,4.0,100,106.0
821,E4,132.0,4.0,100,106.0
822,G3,132.0,4.0,100,106.0
823,C#4,132.0,4.0,100,106.0
824,E4,132.0,4.0,100,106.0
825,E5,132.1,1/10,100,106.0
826,D5,132.2,1/10,100,106.0
827,B4,132.3,1/10,100,106.0
828,D5,132.4,3/5,100,106.0
829,A4,132.5,0.5,100,106.0
830,F#2,132.5,0.5,100,106.0
831,E5,133.0,0.5,100,106.0
832,D5,133.0,0.5,100,106.0
833,C#2,133.0,0.5,100,106.0
834,F#2,133.0,0.5,100,106.0
835,F#5,133.5,2.5,100,106.0
836,B1,133.5,2.0,100,106.0
837,F#2,133.5,0.5,100,106.0
838,C2,133.5,0.5,100,106.0
839,F#2,134.0,0.5,100,106.0
840,F#2,134.5,0.5,100,106.0
841,B4,134.75,0.25,100,106.0
842,E5,135.0,0.5,100,106.0
843,F#2,135.0,0.5,100,106.0
844,C#2,135.0,0.5,100,106.0
845,F#5,135.5,0.5,100,106.0
846,B1,135.5,0.5,100,106.0
847,F#2,135.5,0.5,100,106.0
848,C2,135.5,0.5,100,106.0
849,G5,136.0,1.0,100,106.0
850,A1,136.0,1.5,100,106.0
851,C2,136.0,1.0,100,106.0
852,F#2,136.0,0.5,100,106.0
853,A3,136.0,4.0,100,106.0
854,B3,136.0,4.0,100,106.0
855,D4,136.0,4.0,100,106.0
856,F#4,136.0,4.0,100,106.0
857,B3,136.0,4.0,100,106.0
858,D4,136.0,4.0,100,106.0
859,F#4,136.0,4.0,100,106.0
860,G4,136.5,0.5,100,106.0
861,F#2,136.5,0.5,100,106.0
862,F#5,137.0,0.5,100,106.0
863,B4,137.0,0.5,100,106.0
864,C#2,137.0,0.5,100,106.0
865,F#2,137.0,0.5,100,106.0
866,G5,137.5,1.0,100,106.0
867,E5,137.5,2.5,100,106.0
868,A1,137.5,2.0,100,106.0
869,F#2,137.5,0.5,100,106.0
870,C2,137.5,0.5,100,106.0
871,F#2,138.0,0.5,100,106.0
872,F#5,138.5,0.5,100,106.0
873,F#2,138.5,0.5,100,106.0
874,E5,139.0,0.5,100,106.0
875,F#2,139.0,0.5,100,106.0
876,C#2,139.0,0.5,100,106.0
877,A5,139.5,0.5,100,106.0
878,A1,139.5,0.5,100,106.0
879,F#2,139.5,0.5,100,106.0
880,C2,139.5,0.5,100,106.0
881,A5,140.0,1.0,100,106.0
882,D4,140.0,1.5,100,106.0
883,D4,140.0,1.5,100,106.0
884,A1,140.0,1.5,100,106.0
885,C2,140.0,1.0,100,106.0
886,F#2,140.0,0.5,100,106.0
887,B3,140.0,4.0,100,106.0
888,G4,140.0,4.0,100,106.0
889,B3,140.0,4.0,100,106.0
890,G4,140.0,4.0,100,106.0
891,G4,140.5,0.5,100,106.0
892,B2,140.5,0.5,100,106.0
893,F#2,140.5,0.5,100,106.0
894,A5,140.875,0.125,100,106.0
895,B5,141.0,0.5,100,106.0
896,B4,141.0,0.5,100,106.0
897,A2,141.0,0.5,100,106.0
898,C#2,141.0,0.5,100,106.0
899,F#2,141.0,0.5,100,106.0
900,A5,141.5,1.5,100,106.0
901,E4,141.5,2.5,100,106.0
902,E4,141.5,2.5,100,106.0
903,E5,141.5,2.5,100,106.0
904,A1,141.5,21/20,100,106.0
905,A2,141.5,0.5,100,106.0
906,F#2,141.5,0.5,100,106.0
907,C2,141.5,0.5,100,106.0
908,F#2,142.0,0.5,100,106.0
909,F#1,142.5,0.5,100,106.0
910,B2,142.5,0.5,100,106.0
911,F#2,142.5,0.5,100,106.0
912,B5,143.0,0.25,100,106.0
913,A1,143.0,0.5,100,106.0
914,A2,143.0,0.5,100,106.0
915,F#2,143.0,0.5,100,106.0
916,C#2,143.0,0.5,100,106.0
917,F#5,143.5,0.5,100,106.0
918,E2,143.5,0.5,100,106.0
919,A2,143.5,0.5,100,106.0
920,F#2,143.5,0.5,100,106.0
921,C2,143.5,0.5,100,106.0
922,F#5,144.0,1.0,100,106.0
923,F#4,144.0,1.5,100,106.0
924,F#4,144.0,2.0,100,106.0
925,D2,144.0,1.5,100,106.0
926,C#3,144.0,2.0,100,106.0
927,C2,144.0,1.0,100,106.0
928,F#2,144.0,0.5,100,106.0
929,G3,144.0,4.0,100,106.0
930,B3,144.0,4.0,100,106.0
931,D4,144.0,4.0,100,106.0
932,B3,144.0,4.0,100,106.0
933,D4,144.0,4.0,100,106.0
934,D4,144.0,3.5,100,106.0
935,A3,144.0,3.5,100,106.0
936,F#3,144.0,3.5,100,106.0
937,F#2,144.5,0.5,100,106.0
938,E5,145.0,0.5,100,106.0
939,E2,145.0,0.5,114,106.0
940,F#2,145.0,0.5,114,106.0
941,D5,145.5,1.0,100,106.0
942,E4,145.5,2.5,100,106.0
943,D2,145.5,1.0,100,106.0
944,F#2,145.5,0.5,100,106.0
945,C2,145.5,0.5,100,106.0
946,E4,146.0,2.0,100,106.0
947,F#2,146.0,0.5,100,106.0
948,B4,146.5,0.5,100,106.0
949,A1,146.5,0.5,100,106.0
950,F#2,146.5,0.5,100,106.0
951,D5,147.0,0.5,100,106.0
952,B1,147.0,0.5,100,106.0
953,E2,147.0,0.5,114,106.0
954,F#2,147.0,0.5,114,106.0
955,F#5,147.5,0.5,100,106.0
956,F#1,147.5,0.5,100,106.0
957,E4,147.5,0.5,100,106.0
958,F#3,147.5,0.5,100,106.0
959,A3,147.5,0.5,100,106.0
960,C#4,147.5,0.5,100,106.0
961,F#2,147.5,0.5,100,106.0
962,C2,147.5,0.5,100,106.0
963,F#5,148.0,0.5,100,106.0
964,F#4,148.0,1.0,100,106.0
965,F#1,148.0,1.5,100,106.0
966,C2,148.0,1.0,100,106.0
967,F#2,148.0,0.5,100,106.0
968,G3,148.0,4.0,100,106.0
969,C#4,148.0,4.0,100,106.0
970,E4,148.0,4.0,100,106.0
971,E5,148.5,0.5,100,106.0
972,F#2,148.5,0.5,100,106.0
973,D5,149.0,0.5,100,106.0
974,E4,149.0,0.5,100,106.0
975,E2,149.0,0.5,114,106.0
976,F#2,149.0,0.5,114,106.0
977,E5,149.5,1.0,100,106.0
978,D4,149.5,2.0,100,106.0
979,F#1,149.5,1.0,100,106.0
980,F#2,149.5,0.5,100,106.0
981,C2,149.5,0.5,100,106.0
982,F#2,150.0,0.5,100,106.0
983,F#5,150.5,0.5,100,106.0
984,A1,150.5,0.5,100,106.0
985,F#2,150.5,0.5,100,106.0
986,B1,151.0,0.5,100,106.0
987,E2,151.0,0.5,114,106.0
988,F#2,151.0,0.5,114,106.0
989,F#5,151.5,0.5,100,106.0
990,F#4,151.5,0.5,100,106.0
991,E2,151.5,0.5,100,106.0
992,E4,151.5,3.5,100,106.0
993,F#3,151.5,3.5,100,106.0
994,A3,151.5,3.5,100,106.0
995,C#4,151.5,3.5,100,106.0
996,F#2,151.5,0.5,100,106.0
997,C2,151.5,0.5,100,106.0
998,F#5,152.0,1.0,100,106.0
999,F#4,152.0,0.5,100,106.0
1000,E2,152.0,1.5,100,106.0
1001,C2,152.0,1.0,100,106.0
1002,F#2,152.0,0.5,100,106.0
1003,B3,152.0,4.0,100,106.0
1004,D4,152.0,4.0,100,106.0
1005,F#4,152.0,4.0,100,106.0
1006,E4,152.5,0.5,100,106.0
1007,F#2,152.5,0.5,100,106.0
1008,D5,153.0,0.5,100,106.0
1009,D4,153.0,0.5,100,106.0
1010,E2,153.0,0.5,114,106.0
1011,F#2,153.0,0.5,114,106.0
1012,D5,153.5,1.0,100,106.0
1013,E4,153.5,1.0,100,106.0
1014,E2,153.5,1.0,100,106.0
1015,F#2,153.5,0.5,100,106.0
1016,C2,153.5,0.5,100,106.0
1017,F#2,154.0,0.5,100,106.0
1018,B4,154.5,0.5,100,106.0
1019,F#4,154.5,0.5,100,106.0
1020,A1,154.5,0.5,100,106.0
1021,F#2,154.5,0.5,100,106.0
1022,D5,155.0,0.5,100,106.0
1023,B1,155.0,0.5,100,106.0
1024,E4,155.0,0.5,100,106.0
1025,D4,155.0,0.5,100,106.0
1026,G3,155.0,0.5,100,106.0
1027,B3,155.0,0.5,100,106.0
1028,E2,155.0,0.5,114,106.0
1029,F#2,155.0,0.5,114,106.0
1030,E5,155.5,0.5,100,106.0
1031,F#4,155.5,0.5,100,106.0
1032,A1,155.5,0.5,100,106.0
1033,F#2,155.5,0.5,100,106.0
1034,C2,155.5,0.5,100,106.0
1035,E5,156.0,0.5,100,106.0
1036,D4,156.0,1.5,100,106.0
1037,F#4,156.0,1.0,100,106.0
1038,A1,156.0,1.5,100,106.0
1039,C2,156.0,1.0,100,106.0
1040,F#2,156.0,0.5,100,106.0
1041,B3,156.0,4.0,100,106.0
1042,G4,156.0,4.0,100,106.0
1043,F#5,156.5,0.5,100,106.0
1044,F#2,156.5,0.5,100,106.0
1045,E4,157.0,0.5,100,106.0
1046,E2,157.0,0.5,114,106.0
1047,F#2,157.0,0.5,114,106.0
1048,E4,157.5,2.5,100,106.0
1049,D4,157.5,1.5,100,106.0
1050,A1,157.5,1.0,100,106.0
1051,F#2,157.5,0.5,100,106.0
1052,C2,157.5,0.5,100,106.0
1053,F#2,158.0,0.5,100,106.0
1054,A4,158.5,0.5,100,106.0
1055,A1,158.5,0.5,100,106.0
1056,F#2,158.5,0.5,100,106.0
1057,B4,159.0,0.5,100,106.0
1058,D4,159.0,0.5,100,106.0
1059,B1,159.0,0.5,100,106.0
1060,E4,159.0,3.5,100,106.0
1061,D4,159.0,3.5,100,106.0
1062,G3,159.0,3.5,100,106.0
1063,B3,159.0,3.5,100,106.0
1064,E2,159.0,0.5,114,106.0
1065,F#2,159.0,0.5,114,106.0
1066,F#5,159.5,0.5,100,106.0
1067,E4,159.5,0.5,100,106.0
1068,D2,159.5,0.5,100,106.0
1069,F#2,159.5,0.5,100,106.0
1070,C2,159.5,0.5,100,106.0
1071,F#5,160.0,1.0,100,106.0
1072,F#4,160.0,2.0,100,106.0
1073,E4,160.0,0.5,100,106.0
1074,D2,160.0,1.5,100,106.0
1075,C2,160.0,1.0,100,106.0
1076,F#2,160.0,0.5,100,106.0
1077,B3,160.0,4.0,100,106.0
1078,D4,160.0,4.0,100,106.0
1079,F#4,160.5,1.0,100,106.0
1080,F#2,160.5,0.5,100,106.0
1081,E5,161.0,0.5,100,106.0
1082,E2,161.0,0.5,114,106.0
1083,F#2,161.0,0.5,114,106.0
1084,D5,161.5,1.0,100,106.0
1085,A4,161.5,2.0,100,106.0
1086,D2,161.5,1.0,100,106.0
1087,F#2,161.5,0.5,100,106.0
1088,C2,161.5,0.5,100,106.0
1089,E4,162.0,2.0,100,106.0
1090,F#2,162.0,0.5,100,106.0
1091,B4,162.5,0.5,100,106.0
1092,A1,162.5,0.5,100,106.0
1093,F#2,162.5,0.5,100,106.0
1094,G3,162.5,0.5,100,106.0
1095,B3,162.5,0.5,100,106.0
1096,C#4,162.5,0.5,100,106.0
1097,E4,162.5,0.5,100,106.0
1098,D5,163.0,0.5,100,106.0
1099,B1,163.0,0.5,100,106.0
1100,E2,163.0,0.5,114,106.0
1101,F#2,163.0,0.5,114,106.0
1102,F#5,163.5,0.5,100,106.0
1103,F#4,163.5,0.5,100,106.0
1104,F#2,163.5,0.5,100,106.0
1105,F#2,163.5,0.5,100,106.0
1106,C2,163.5,0.5,100,106.0
1107,F#5,164.0,0.5,100,106.0
1108,F#4,164.0,1.0,100,106.0
1109,F#2,164.0,1.5,100,106.0
1110,C2,164.0,1.0,100,106.0
1111,F#2,164.0,0.5,100,106.0
1112,F#4,164.0,3.5,100,106.0
1113,D4,164.0,3.5,100,106.0
1114,A3,164.0,3.5,100,106.0
1115,E5,164.5,0.5,100,106.0
1116,F#2,164.5,0.5,100,106.0
1117,D5,165.0,0.5,100,106.0
1118,E4,165.0,0.5,100,106.0
1119,E2,165.0,0.5,114,106.0
1120,F#2,165.0,0.5,114,106.0
1121,E5,165.5,1.0,100,106.0
1122,D4,165.5,2.0,100,106.0
1123,F#2,165.5,1.25,100,106.0
1124,F#2,165.5,0.5,100,106.0
1125,C2,165.5,0.5,100,106.0
1126,F#2,166.0,0.5,100,106.0
1127,F#5,166.5,0.5,100,106.0
1128,F#2,166.5,0.5,100,106.0
1129,G3,166.5,3.5,100,106.0
1130,B3,166.5,3.5,100,106.0
1131,C#4,166.5,3.5,100,106.0
1132,E4,166.5,3.5,100,106.0
1133,F#2,166.75,0.25,100,106.0
1134,A1,167.0,0.5,100,106.0
1135,E2,167.0,0.5,114,106.0
1136,F#2,167.0,0.5,114,106.0
1137,F#5,167.5,0.25,100,106.0
1138,F#4,167.5,0.5,100,106.0
1139,B1,167.5,0.5,100,106.0
1140,A3,167.5,0.5,100,106.0
1141,F#4,167.5,0.5,100,106.0
1142,C#4,167.5,0.5,100,106.0
1143,E4,167.5,0.5,100,106.0
1144,F#2,167.5,0.5,100,106.0
1145,C2,167.5,0.5,100,106.0
1146,G5,167.75,0.25,100,106.0
1147,A5,168.0,0.5,100,106.0
1148,F#4,168.0,0.5,100,106.0
1149,E2,168.0,1.5,100,106.0
1150,C2,168.0,1.0,100,106.0
1151,F#2,168.0,0.5,100,106.0
1152,G5,168.5,0.5,100,106.0
1153,E4,168.5,0.5,100,106.0
1154,F#2,168.5,0.5,100,106.0
1155,F#5,169.0,0.5,100,106.0
1156,D4,169.0,0.5,100,106.0
1157,E2,169.0,0.5,114,106.0
1158,F#2,169.0,0.5,114,106.0
1159,D5,169.5,1.0,100,106.0
1160,E4,169.5,1.0,100,106.0
1161,E2,169.5,1.0,100,106.0
1162,F#2,169.5,0.5,100,106.0
1163,C2,169.5,0.5,100,106.0
1164,F#2,170.0,0.5,100,106.0
1165,F#3,170.0,0.5,100,106.0
1166,A3,170.0,0.5,100,106.0
1167,D4,170.0,0.5,100,106.0
1168,A4,170.5,0.5,100,106.0
1169,F#4,170.5,0.5,100,106.0
1170,A1,170.5,0.5,100,106.0
1171,F#2,170.5,0.5,100,106.0
1172,A4,170.875,0.125,100,106.0
1173,B4,171.0,0.5,100,106.0
1174,B1,171.0,0.5,100,106.0
1175,E2,171.0,0.5,114,106.0
1176,F#2,171.0,0.5,114,106.0
1177,A4,171.5,0.5,100,106.0
1178,F#4,171.5,0.25,100,106.0
1179,A1,171.5,0.5,100,106.0
1180,A3,171.5,3.5,100,106.0
1181,F#4,171.5,3.5,100,106.0
1182,C#4,171.5,3.5,100,106.0
1183,E4,171.5,3.5,100,106.0
1184,F#2,171.5,0.5,100,106.0
1185,C2,171.5,0.5,100,106.0
1186,G4,171.75,0.25,100,106.0
1187,A4,172.0,2.0,100,106.0
1188,A4,172.0,0.5,100,106.0
1189,A1,172.0,1.5,100,106.0
1190,C2,172.0,1.0,100,106.0
1191,F#2,172.0,0.5,100,106.0
1192,G4,172.5,0.5,100,106.0
1193,F#2,172.5,0.5,100,106.0
1194,F#4,173.0,0.5,100,106.0
1195,F#2,173.0,0.5,114,106.0
1196,E2,173.0,0.5,114,106.0
1197,D4,173.5,2.5,100,106.0
1198,A1,173.5,0.5,100,106.0
1199,F#2,173.5,0.5,100,106.0
1200,C2,173.5,0.5,100,106.0
1201,A1,174.0,2.0,100,106.0
1202,F#2,174.0,0.5,100,106.0
1203,F#3,174.0,3.5,100,106.0
1204,A3,174.0,3.5,100,106.0
1205,D4,174.0,3.5,100,106.0
1206,B2,174.5,0.5,100,106.0
1207,F#2,174.5,0.5,100,106.0
1208,D4,175.0,0.5,100,106.0
1209,B3,175.0,0.5,100,106.0
1210,D4,175.0,0.5,100,106.0
1211,E4,175.0,0.5,100,106.0
1212,G4,175.0,0.5,100,106.0
1213,A2,175.0,0.5,109,106.0
1214,E2,175.0,0.5,109,106.0
1215,F#2,175.0,0.5,109,106.0
1216,E4,175.5,0.5,100,106.0
1217,A2,175.5,0.5,100,106.0
1218,F#2,175.5,0.5,100,106.0
1219,C2,175.5,0.5,100,106.0
1220,F#4,176.0,0.5,100,106.0
1221,D2,176.0,1.5,100,106.0
1222,C#3,176.0,2.0,100,106.0
1223,C2,176.0,1.0,100,106.0
1224,F#2,176.0,0.5,100,106.0
1225,A4,176.5,0.5,100,106.0
1226,F#2,176.5,0.25,100,106.0
1227,F#2,176.75,0.25,100,106.0
1228,B4,177.0,0.5,100,106.0
1229,F#2,177.0,0.5,100,106.0
1230,C#2,177.0,0.5,100,106.0
1231,D5,177.5,1.0,100,106.0
1232,D2,177.5,0.5,100,106.0
1233,F#3,177.5,0.5,100,106.0
1234,E4,177.5,0.5,100,106.0
1235,A3,177.5,0.5,100,106.0
1236,C#4,177.5,0.5,100,106.0
1237,F#2,177.5,0.5,100,106.0
1238,C2,177.5,0.5,100,106.0
1239,E5,178.5,0.5,100,106.0
1240,F#2,178.5,0.5,100,106.0
1241,A1,179.0,0.5,100,106.0
1242,B3,179.0,3.5,100,106.0
1243,D4,179.0,3.5,100,106.0
1244,E4,179.0,3.5,100,106.0
1245,G4,179.0,3.5,100,106.0
1246,F#2,179.0,0.5,100,106.0
1247,C#2,179.0,0.5,100,106.0
1248,B1,179.5,0.5,100,106.0
1249,F#2,179.5,0.5,100,106.0
1250,C2,179.5,0.5,100,106.0
1251,D2,180.0,1.5,100,106.0
1252,F#2,180.0,0.5,100,106.0
1253,C2,180.0,1.0,100,106.0
1254,F#3,180.0,4.0,100,106.0
1255,A3,180.0,4.0,100,106.0
1256,D4,180.0,4.0,100,106.0
1257,F#2,180.5,0.25,100,106.0
1258,F#2,180.75,0.25,100,106.0
1259,F#2,181.0,0.5,100,106.0
1260,C#2,181.0,0.5,100,106.0
1261,D2,181.5,0.5,100,106.0
1262,F#2,181.5,0.5,100,106.0
1263,C2,181.5,0.5,100,106.0
1264,D5,182.0,0.5,100,106.0
1265,F#3,182.0,4.0,100,106.0
1266,E4,182.0,4.0,100,106.0
1267,A3,182.0,4.0,100,106.0
1268,C#4,182.0,4.0,100,106.0
1269,E5,182.5,0.5,100,106.0
1270,F#2,182.5,0.5,100,106.0
1271,G4,182.5,0.5,100,106.0
1272,B3,182.5,0.5,100,106.0
1273,C#4,182.5,0.5,100,106.0
1274,E4,182.5,0.5,100,106.0
1275,F#5,183.0,0.5,100,106.0
1276,A1,183.0,0.5,100,106.0
1277,F#2,183.0,0.5,100,106.0
1278,C#2,183.0,0.5,100,106.0
1279,G5,183.5,0.5,100,106.0
1280,B1,183.5,0.5,100,106.0
1281,B-2,183.5,0.5,100,106.0
1282,C2,183.5,0.5,100,106.0
1283,E5,183.875,0.125,100,106.0
1284,F#5,184.0,1.0,100,106.0
1285,D2,184.0,1.5,100,106.0
1286,C2,184.0,1.0,100,106.0
1287,F#2,184.0,0.5,100,106.0
1288,G3,184.0,4.0,100,106.0
1289,B3,184.0,4.0,100,106.0
1290,D4,184.0,4.0,100,106.0
1291,E4,184.0,4.0,100,106.0
1292,F#2,184.5,0.25,100,106.0
1293,F#2,184.75,0.25,100,106.0
1294,D5,185.0,0.5,100,106.0
1295,F#2,185.0,0.5,100,106.0
1296,C#2,185.0,0.5,100,106.0
1297,A4,185.5,1.5,100,106.0
1298,D2,185.5,1.25,100,106.0
1299,F#2,185.5,0.5,100,106.0
1300,C2,185.5,0.5,100,106.0
1301,E3,186.0,3.5,100,106.0
1302,G3,186.0,3.5,100,106.0
1303,B3,186.0,3.5,100,106.0
1304,D4,186.0,3.5,100,106.0
1305,F#2,186.5,0.5,100,106.0
1306,G4,186.5,3.5,100,106.0
1307,B3,186.5,3.5,100,106.0
1308,C#4,186.5,3.5,100,106.0
1309,E4,186.5,3.5,100,106.0
1310,D2,186.75,0.25,100,106.0
1311,A4,186.875,0.125,100,106.0
1312,B4,187.0,0.5,100,106.0
1313,A1,187.0,0.5,100,106.0
1314,F#2,187.0,0.5,100,106.0
1315,C#2,187.0,0.5,100,106.0
1316,A4,187.5,0.5,100,106.0
1317,B1,187.5,0.5,100,106.0
1318,F#2,187.5,0.5,100,106.0
1319,C2,187.5,0.5,100,106.0
1320,A4,188.0,0.5,100,106.0
1321,D2,188.0,1.5,100,106.0
1322,F#2,188.0,0.5,100,106.0
1323,C2,188.0,1.0,100,106.0
1324,F#3,188.0,4.0,100,106.0
1325,A3,188.0,4.0,100,106.0
1326,D4,188.0,4.0,100,106.0
1327,F#4,188.0,4.0,100,106.0
1328,B4,188.5,0.5,100,106.0
1329,F#2,188.5,0.25,100,106.0
1330,F#2,188.75,0.25,100,106.0
1331,F#2,189.0,0.5,100,106.0
1332,C#2,189.0,0.5,100,106.0
1333,D2,189.5,1.5,100,106.0
1334,G3,189.5,0.5,100,106.0
1335,B3,189.5,0.5,100,106.0
1336,C#4,189.5,0.5,100,106.0
1337,E4,189.5,0.5,100,106.0
1338,F#2,189.5,0.5,100,106.0
1339,C2,189.5,0.5,100,106.0
1340,A4,190.0,0.5,100,106.0
1341,D4,190.0,0.5,100,106.0
1342,F#4,190.0,0.5,100,106.0
1343,F#2,190.5,0.5,100,106.0
1344,F#4,190.75,0.125,100,106.0
1345,E4,190.875,0.125,100,106.0
1346,D4,191.0,0.5,100,106.0
1347,A1,191.0,0.5,100,106.0
1348,F#2,191.0,0.5,100,106.0
1349,C#2,191.0,0.5,100,106.0
1350,E4,191.5,0.5,100,106.0
1351,B1,191.5,0.5,100,106.0
1352,F#2,191.5,0.5,100,106.0
1353,C2,191.5,0.5,100,106.0
1354,E4,191.875,0.125,100,106.0
1355,F#4,192.0,0.5,100,106.0
1356,D2,192.0,1.5,100,106.0
1357,C2,192.0,1.0,100,106.0
1358,F#2,192.0,0.5,100,106.0
1359,A3,192.0,4.0,100,106.0
1360,G3,192.0,4.0,100,106.0
1361,D4,192.0,4.0,100,106.0
1362,A4,192.5,0.5,100,106.0
1363,F#2,192.5,0.25,100,106.0
1364,F#2,192.75,0.25,100,106.0
1365,B4,193.0,0.5,100,106.0
1366,F#2,193.0,0.5,100,106.0
1367,C#2,193.0,0.5,100,106.0
1368,C#5,193.375,0.125,100,106.0
1369,D5,193.5,2.5,100,106.0
1370,D2,193.5,0.5,100,106.0
1371,F#2,193.5,0.5,100,106.0
1372,C2,193.5,0.5,100,106.0
1373,A4,194.0,3.5,100,106.0
1374,D4,194.0,3.5,100,106.0
1375,F#4,194.0,3.5,100,106.0
1376,G3,194.0,4.0,100,106.0
1377,B3,194.0,4.0,100,106.0
1378,C#4,194.0,4.0,100,106.0
1379,E4,194.0,4.0,100,106.0
1380,F#2,194.5,0.5,100,106.0
1381,A1,195.0,0.5,100,106.0
1382,F#2,195.0,0.5,100,106.0
1383,C#2,195.0,0.5,100,106.0
1384,B1,195.5,0.5,100,106.0
1385,F#2,195.5,0.5,100,106.0
1386,C2,195.5,0.5,100,106.0
1387,D5,196.0,2.0,100,106.0
1388,D2,196.0,1.5,100,106.0
1389,F#2,196.0,0.5,100,106.0
1390,C2,196.0,1.0,100,106.0
1391,F#3,196.0,4.0,100,106.0
1392,A3,196.0,4.0,100,106.0
1393,D4,196.0,4.0,100,106.0
1394,F#2,196.5,0.25,100,106.0
1395,F#2,196.75,0.25,100,106.0
1396,F#2,197.0,0.5,100,106.0
1397,C#2,197.0,0.5,100,106.0
1398,D2,197.5,0.5,100,106.0
1399,C#4,197.5,0.5,100,106.0
1400,E4,197.5,0.5,100,106.0
1401,F#4,197.5,0.5,100,106.0
1402,A4,197.5,0.5,100,106.0
1403,F#2,197.5,0.5,100,106.0
1404,C2,197.5,0.5,100,106.0
1405,D5,198.0,0.5,100,106.0
1406,E5,198.5,0.5,100,106.0
1407,D4,198.5,0.25,100,106.0
1408,F#2,198.5,0.5,100,106.0
1409,D4,198.75,0.25,100,106.0
1410,F#5,199.0,0.5,100,106.0
1411,D4,199.0,0.5,100,106.0
1412,A1,199.0,0.5,100,106.0
1413,F#2,199.0,0.5,100,106.0
1414,C#2,199.0,0.5,100,106.0
1415,G5,199.5,0.5,100,106.0
1416,D4,199.5,0.5,100,106.0
1417,B1,199.5,0.5,100,106.0
1418,F#2,199.5,0.5,100,106.0
1419,C2,199.5,0.5,100,106.0
1420,G5,200.0,0.5,100,106.0
1421,D2,200.0,1.5,100,106.0
1422,C2,200.0,1.0,100,106.0
1423,F#2,200.0,0.5,100,106.0
1424,G3,200.0,4.0,100,106.0
1425,B3,200.0,4.0,100,106.0
1426,D4,200.0,4.0,100,106.0
1427,E4,200.0,4.0,100,106.0
1428,F#5,200.5,1.0,100,106.0
1429,F#2,200.5,0.25,100,106.0
1430,F#2,200.75,0.25,100,106.0
1431,F#2,201.0,0.5,100,106.0
1432,C#2,201.0,0.5,100,106.0
1433,D5,201.5,1.0,100,106.0
1434,D2,201.5,1.0,100,106.0
1435,F#2,201.5,0.5,100,106.0
1436,C2,201.5,0.5,100,106.0
1437,C#4,202.0,4.0,100,106.0
1438,E4,202.0,4.0,100,106.0
1439,F#4,202.0,4.0,100,106.0
1440,A4,202.0,4.0,100,106.0
1441,A4,202.5,0.5,100,106.0
1442,D4,202.5,0.25,100,106.0
1443,A1,202.5,0.5,100,106.0
1444,F#2,202.5,0.5,100,106.0
1445,D4,202.75,0.25,100,106.0
1446,A4,202.875,0.125,100,106.0
1447,B4,203.0,0.5,100,106.0
1448,D4,203.0,0.5,100,106.0
1449,B1,203.0,0.5,100,106.0
1450,F#2,203.0,0.5,100,106.0
1451,C#2,203.0,0.5,100,106.0
1452,A4,203.5,0.5,100,106.0
1453,D4,203.5,0.5,100,106.0
1454,E2,203.5,0.5,100,106.0
1455,F#2,203.5,0.5,100,106.0
1456,C2,203.5,0.5,100,106.0
1457,A4,204.0,0.5,100,106.0
1458,E2,204.0,1.5,100,106.0
1459,F#2,204.0,0.5,100,106.0
1460,C2,204.0,1.0,100,106.0
1461,F#4,204.0,3.5,100,106.0
1462,F#3,204.0,3.5,100,106.0
1463,A3,204.0,3.5,100,106.0
1464,D4,204.0,3.5,100,106.0
1465,B4,204.5,0.5,100,106.0
1466,F#2,204.5,0.25,100,106.0
1467,F#2,204.75,0.25,100,106.0
1468,F#2,205.0,0.5,100,106.0
1469,C#2,205.0,0.5,100,106.0
1470,E2,205.5,2.0,100,106.0
1471,F#2,205.5,0.5,100,106.0
1472,C2,205.5,0.5,100,106.0
1473,D4,206.0,1.5,100,106.0
1474,E4,206.0,1.5,100,106.0
1475,G4,206.0,1.5,100,106.0
1476,B4,206.0,1.5,100,106.0
1477,F#5,206.5,0.5,100,106.0
1478,D4,206.5,0.25,100,106.0
1479,F#2,206.5,0.5,100,106.0
1480,D4,206.75,0.25,100,106.0
1481,G5,207.0,0.5,100,106.0
1482,D4,207.0,0.5,100,106.0
1483,B2,207.0,0.5,100,106.0
1484,F#2,207.0,0.5,100,106.0
1485,C#2,207.0,0.5,100,106.0
1486,A5,207.5,0.5,100,106.0
1487,D4,207.5,0.5,100,106.0
1488,B1,207.5,0.5,100,106.0
1489,D4,207.5,2.0,100,106.0
1490,E4,207.5,2.0,100,106.0
1491,G4,207.5,2.0,100,106.0
1492,B4,207.5,2.0,100,106.0
1493,G3,207.5,0.5,100,106.0
1494,B3,207.5,0.5,100,106.0
1495,D4,207.5,0.5,100,106.0
1496,E4,207.5,0.5,100,106.0
1497,A2,207.5,0.5,100,106.0
1498,F#2,207.5,0.5,100,106.0
1499,C2,207.5,0.5,100,106.0
1500,A5,208.0,2.5,100,106.0
1501,C#2,208.0,1.5,100,106.0
1502,C#3,208.0,2.0,100,106.0
1503,C2,208.0,1.0,100,106.0
1504,F#2,208.0,0.5,100,106.0
1505,F#2,208.5,0.5,100,106.0
1506,C#2,209.0,0.5,100,106.0
1507,F#2,209.0,0.5,100,106.0
1508,C#2,209.5,2.0,100,106.0
1509,B4,209.5,0.5,100,106.0
1510,G4,209.5,0.5,100,106.0
1511,C#4,209.5,0.5,100,106.0
1512,E4,209.5,0.5,100,106.0
1513,F#2,209.5,0.5,100,106.0
1514,C2,209.5,0.5,100,106.0
1515,F#2,210.0,0.5,100,106.0
1516,C#5,210.5,0.5,100,106.0
1517,D4,210.5,0.25,100,106.0
1518,F#2,210.5,0.5,100,106.0
1519,D4,210.75,0.25,100,106.0
1520,E5,211.0,0.5,100,106.0
1521,D4,211.0,0.5,100,106.0
1522,F#2,211.0,0.5,100,106.0
1523,C#2,211.0,0.5,100,106.0
1524,D5,211.5,0.5,100,106.0
1525,D4,211.5,0.5,100,106.0
1526,C#2,211.5,0.5,100,106.0
1527,F#2,211.5,0.5,100,106.0
1528,C2,211.5,0.5,100,106.0
1529,D5,212.0,0.5,100,106.0
1530,B1,212.0,1.5,100,106.0
1531,C2,212.0,1.0,100,106.0
1532,F#2,212.0,0.5,100,106.0
1533,G3,212.0,4.0,100,106.0
1534,B3,212.0,4.0,100,106.0
1535,D4,212.0,4.0,100,106.0
1536,E4,212.0,4.0,100,106.0
1537,E5,212.5,0.5,100,106.0
1538,F#2,212.5,0.5,100,106.0
1539,C#2,213.0,0.5,100,106.0
1540,F#2,213.0,0.5,100,106.0
1541,B1,213.5,2.0,100,106.0
1542,F#2,213.5,0.5,100,106.0
1543,C2,213.5,0.5,100,106.0
1544,F#2,214.0,0.5,100,106.0
1545,B4,214.0,4.0,100,106.0
1546,G4,214.0,4.0,100,106.0
1547,C#4,214.0,4.0,100,106.0
1548,E4,214.0,4.0,100,106.0
1549,D4,214.5,0.25,100,106.0
1550,F#2,214.5,0.5,100,106.0
1551,B4,214.75,0.25,100,106.0
1552,D4,214.75,0.25,100,106.0
1553,E5,215.0,0.5,100,106.0
1554,D4,215.0,0.5,100,106.0
1555,F#2,215.0,0.5,100,106.0
1556,C#2,215.0,0.5,100,106.0
1557,F#5,215.5,0.5,100,106.0
1558,D4,215.5,0.5,100,106.0
1559,B1,215.5,0.5,100,106.0
1560,F#2,215.5,0.5,100,106.0
1561,C2,215.5,0.5,100,106.0
1562,G5,216.0,1.0,100,106.0
1563,A1,216.0,1.5,100,106.0
1564,C2,216.0,1.0,100,106.0
1565,F#2,216.0,0.5,100,106.0
1566,G3,216.0,4.0,100,106.0
1567,C#4,216.0,4.0,100,106.0
1568,E4,216.0,4.0,100,106.0
1569,F#2,216.5,0.5,100,106.0
1570,F#5,217.0,0.5,100,106.0
1571,C#2,217.0,0.5,100,106.0
1572,F#2,217.0,0.5,100,106.0
1573,E5,217.5,1.0,100,106.0
1574,A1,217.5,2.0,100,106.0
1575,F#2,217.5,0.5,100,106.0
1576,C2,217.5,0.5,100,106.0
1577,F#2,218.0,0.5,100,106.0
1578,F#3,218.0,4.0,100,106.0
1579,A3,218.0,4.0,100,106.0
1580,D4,218.0,4.0,100,106.0
1581,F#5,218.5,0.5,100,106.0
1582,D4,218.5,0.25,100,106.0
1583,F#2,218.5,0.5,100,106.0
1584,D4,218.75,0.25,100,106.0
1585,G5,219.0,1.0,100,106.0
1586,D4,219.0,0.5,100,106.0
1587,F#2,219.0,0.5,100,106.0
1588,C#2,219.0,0.5,100,106.0
1589,D4,219.5,0.5,100,106.0
1590,A1,219.5,0.5,100,106.0
1591,F#2,219.5,0.5,100,106.0
1592,C2,219.5,0.5,100,106.0
1593,E5,219.75,0.125,100,106.0
1594,F#5,220.0,0.75,100,106.0
1595,A1,220.0,1.5,100,106.0
1596,C2,220.0,1.0,100,106.0
1597,F#2,220.0,0.5,100,106.0
1598,A3,220.0,4.0,100,106.0
1599,B3,220.0,4.0,100,106.0
1600,D4,220.0,4.0,100,106.0
1601,F#4,220.0,4.0,100,106.0
1602,F#2,220.5,0.5,100,106.0
1603,G5,220.75,0.25,100,106.0
1604,F#5,221.0,0.5,100,106.0
1605,C#2,221.0,0.5,100,106.0
1606,F#2,221.0,0.5,100,106.0
1607,E5,221.5,1.0,100,106.0
1608,A1,221.5,2.0,100,106.0
1609,F#2,221.5,0.5,100,106.0
1610,C2,221.5,0.5,100,106.0
1611,F#2,222.0,0.5,100,106.0
1612,G3,222.0,4.0,100,106.0
1613,B3,222.0,4.0,100,106.0
1614,D4,222.0,4.0,100,106.0
1615,E4,222.0,4.0,100,106.0
1616,D5,222.5,0.5,100,106.0
1617,D4,222.5,0.25,100,106.0
1618,B2,222.5,0.5,100,106.0
1619,F#2,222.5,0.5,100,106.0
1620,D4,222.75,0.25,100,106.0
1621,E5,223.0,0.5,100,106.0
1622,D4,223.0,0.5,100,106.0
1623,A2,223.0,0.5,100,106.0
1624,F#2,223.0,0.5,100,106.0
1625,C#2,223.0,0.5,100,106.0
1626,B5,223.5,0.5,100,106.0
1627,D4,223.5,0.5,100,106.0
1628,B1,223.5,0.5,100,106.0
1629,A2,223.5,0.5,100,106.0
1630,F#2,223.5,0.5,100,106.0
1631,C2,223.5,0.5,100,106.0
1632,A5,224.0,2667/1000,100,106.0
1633,D4,224.0,1.5,100,106.0
1634,C#2,224.0,1.5,100,106.0
1635,C2,224.0,1.0,100,106.0
1636,F#2,224.0,0.5,100,106.0
1637,B3,224.0,4.0,100,106.0
1638,G4,224.0,4.0,100,106.0
1639,F#2,224.5,0.5,100,106.0
1640,C#2,225.0,0.5,100,106.0
1641,F#2,225.0,0.5,100,106.0
1642,E4,225.5,2.5,100,106.0
1643,C#2,225.5,2.0,100,106.0
1644,F#2,225.5,0.5,100,106.0
1645,C2,225.5,0.5,100,106.0
1646,F#2,226.0,0.5,100,106.0
1647,F#3,226.0,4.0,100,106.0
1648,A3,226.0,4.0,100,106.0
1649,D4,226.0,4.0,100,106.0
1650,F#4,226.0,4.0,100,106.0
1651,D4,226.5,0.25,100,106.0
1652,F#2,226.5,0.5,100,106.0
1653,B5,226.667,667/1000,100,106.0
1654,D4,226.75,0.25,100,106.0
1655,D4,227.0,0.5,100,106.0
1656,F#2,227.0,0.5,100,106.0
1657,C#2,227.0,0.5,100,106.0
1658,A5,227.333,667/1000,100,106.0
1659,D4,227.5,0.5,100,106.0
1660,C#2,227.5,0.5,100,106.0
1661,F#2,227.5,0.5,100,106.0
1662,C2,227.5,0.5,100,106.0
1663,F#5,228.0,1/10,100,106.0
1664,F#4,228.0,1.5,100,106.0
1665,B1,228.0,1.5,100,106.0
1666,C2,228.0,1.0,100,106.0
1667,F#2,228.0,0.5,100,106.0
1668,G3,228.0,4.0,100,106.0
1669,B3,228.0,4.0,100,106.0
1670,D4,228.0,4.0,100,106.0
1671,E5,228.1,1/10,100,106.0
1672,D5,228.2,1/10,100,106.0
1673,B4,228.3,1/10,100,106.0
1674,D5,228.4,3/5,100,106.0
1675,F#2,228.5,0.5,100,106.0
1676,E5,229.0,0.5,100,106.0
1677,C#2,229.0,0.5,100,106.0
1678,F#2,229.0,0.5,100,106.0
1679,E4,229.5,2.5,100,106.0
1680,B1,229.5,2.0,100,106.0
1681,F#2,229.5,0.5,100,106.0
1682,C2,229.5,0.5,100,106.0
1683,F#2,230.0,0.5,100,106.0
1684,A3,230.0,4.0,100,106.0
1685,G3,230.0,4.0,100,106.0
1686,D4,230.0,4.0,100,106.0
1687,A4,230.5,0.5,100,106.0
1688,F#2,230.5,0.5,100,106.0
1689,B4,230.75,0.25,100,106.0
1690,E5,231.0,0.5,100,106.0
1691,C#5,231.0,0.5,100,106.0
1692,F#2,231.0,0.5,100,106.0
1693,C#2,231.0,0.5,100,106.0
1694,F#5,231.5,0.5,100,106.0
1695,E5,231.5,2.5,100,106.0
1696,B1,231.5,0.5,100,106.0
1697,F#2,231.5,0.5,100,106.0
1698,C2,231.5,0.5,100,106.0
1699,G5,232.0,1.0,100,106.0
1700,A1,232.0,1.5,100,106.0
1701,C2,232.0,1.0,100,106.0
1702,F#2,232.0,0.5,100,106.0
1703,G3,232.0,4.0,100,106.0
1704,C#4,232.0,4.0,100,106.0
1705,E4,232.0,4.0,100,106.0
1706,F#2,232.5,0.5,100,106.0
1707,F#5,233.0,0.5,100,106.0
1708,C#2,233.0,0.5,100,106.0
1709,F#2,233.0,0.5,100,106.0
1710,G5,233.5,1.0,100,106.0
1711,A1,233.5,2.0,100,106.0
1712,F#2,233.5,0.5,100,106.0
1713,C2,233.5,0.5,100,106.0
1714,F#2,234.0,0.5,100,106.0
1715,F#3,234.0,4.0,100,106.0
1716,A3,234.0,4.0,100,106.0
1717,D4,234.0,4.0,100,106.0
1718,F#5,234.5,0.5,100,106.0
1719,A4,234.5,0.5,100,106.0
1720,F#2,234.5,0.5,100,106.0
1721,E5,235.0,0.5,100,106.0
1722,D5,235.0,0.5,100,106.0
1723,F#2,235.0,0.5,100,106.0
1724,C#2,235.0,0.5,100,106.0
1725,A5,235.5,0.5,100,106.0
1726,F#5,235.5,2.5,100,106.0
1727,A1,235.5,0.5,100,106.0
1728,F#2,235.5,0.5,100,106.0
1729,C2,235.5,0.5,100,106.0
1730,A5,236.0,1.0,100,106.0
1731,A1,236.0,1.5,100,106.0
1732,C2,236.0,1.0,100,106.0
1733,F#2,236.0,0.5,100,106.0
1734,B3,236.0,4.0,100,106.0
1735,D4,236.0,4.0,100,106.0
1736,F#4,236.0,4.0,100,106.0
1737,B2,236.5,0.5,100,106.0
1738,F#2,236.5,0.5,100,106.0
1739,A5,236.875,0.125,100,106.0
1740,B5,237.0,0.5,100,106.0
1741,A2,237.0,0.5,100,106.0
1742,C#2,237.0,0.5,100,106.0
1743,F#2,237.0,0.5,100,106.0
1744,A5,237.5,1.5,100,106.0
1745,A1,237.5,21/20,100,106.0
1746,A2,237.5,0.5,100,106.0
1747,F#2,237.5,0.5,100,106.0
1748,C2,237.5,0.5,100,106.0
1749,F#2,238.0,0.5,100,106.0
1750,G3,238.0,4.0,100,106.0
1751,B3,238.0,4.0,100,106.0
1752,D4,238.0,4.0,100,106.0
1753,E4,238.0,4.0,100,106.0
1754,G4,238.5,0.5,100,106.0
1755,F#1,238.5,0.5,100,106.0
1756,B2,238.5,0.5,100,106.0
1757,F#2,238.5,0.5,100,106.0
1758,B5,239.0,0.25,100,106.0
1759,B4,239.0,0.5,100,106.0
1760,A1,239.0,0.5,100,106.0
1761,A2,239.0,0.5,100,106.0
1762,F#2,239.0,0.5,100,106.0
1763,C#2,239.0,0.5,100,106.0
1764,F#5,239.5,0.5,100,106.0
1765,E5,239.5,2.5,100,106.0
1766,E2,239.5,0.5,100,106.0
1767,A2,239.5,0.5,100,106.0
1768,F#2,239.5,0.5,100,106.0
1769,C2,239.5,0.5,100,106.0
1770,F#5,240.0,1.0,100,106.0
1771,D4,240.0,1.5,100,106.0
1772,D2,240.0,1.5,100,106.0
1773,C#3,240.0,2.0,100,106.0
1774,C2,240.0,1.0,100,106.0
1775,F#2,240.0,0.5,100,106.0
1776,B3,240.0,4.0,100,106.0
1777,G4,240.0,4.0,100,106.0
1778,F#2,240.5,0.5,100,106.0
1779,E5,241.0,0.5,100,106.0
1780,E2,241.0,0.5,114,106.0
1781,F#2,241.0,0.5,114,106.0
1782,D5,241.5,1.0,100,106.0
1783,E4,241.5,2.5,100,106.0
1784,D2,241.5,1.0,100,106.0
1785,F#2,241.5,0.5,100,106.0
1786,C2,241.5,0.5,100,106.0
1787,F#2,242.0,0.5,100,106.0
1788,F#4,242.0,3.5,100,106.0
1789,F#3,242.0,3.5,100,106.0
1790,A3,242.0,3.5,100,106.0
1791,D4,242.0,3.5,100,106.0
1792,B4,242.5,0.5,100,106.0
1793,G4,242.5,0.5,100,106.0
1794,A1,242.5,0.5,100,106.0
1795,F#2,242.5,0.5,100,106.0
1796,D5,243.0,0.5,100,106.0
1797,B4,243.0,0.5,100,106.0
1798,B1,243.0,0.5,100,106.0
1799,E2,243.0,0.5,114,106.0
1800,F#2,243.0,0.5,114,106.0
1801,F#5,243.5,0.5,100,106.0
1802,E5,243.5,2.5,100,106.0
1803,F#1,243.5,0.5,100,106.0
1804,F#2,243.5,0.5,100,106.0
1805,C2,243.5,0.5,100,106.0
1806,F#5,244.0,0.5,100,106.0
1807,F#4,244.0,2.0,100,106.0
1808,F#1,244.0,1.5,100,106.0
1809,C2,244.0,1.0,100,106.0
1810,F#2,244.0,0.5,100,106.0
1811,B3,244.0,4.0,100,106.0
1812,D4,244.0,4.0,100,106.0
1813,E5,244.5,0.5,100,106.0
1814,F#2,244.5,0.5,100,106.0
1815,D5,245.0,0.5,100,106.0
1816,E2,245.0,0.5,114,106.0
1817,F#2,245.0,0.5,114,106.0
1818,E5,245.5,1.0,100,106.0
1819,F#1,245.5,1.0,100,106.0
1820,G3,245.5,0.5,100,106.0
1821,B3,245.5,0.5,100,106.0
1822,D4,245.5,0.5,100,106.0
1823,E4,245.5,0.5,100,106.0
1824,F#2,245.5,0.5,100,106.0
1825,C2,245.5,0.5,100,106.0
1826,E4,246.0,2.0,100,106.0
1827,F#2,246.0,0.5,100,106.0
1828,F#5,246.5,0.5,100,106.0
1829,A4,246.5,0.5,100,106.0
1830,A1,246.5,0.5,100,106.0
1831,F#2,246.5,0.5,100,106.0
1832,C#5,247.0,0.5,100,106.0
1833,B1,247.0,0.5,100,106.0
1834,E2,247.0,0.5,114,106.0
1835,F#2,247.0,0.5,114,106.0
1836,F#5,247.5,0.5,100,106.0
1837,E5,247.5,2.5,100,106.0
1838,E2,247.5,0.5,100,106.0
1839,F#2,247.5,0.5,100,106.0
1840,C2,247.5,0.5,100,106.0
1841,F#5,248.0,1.0,100,106.0
1842,F#4,248.0,1.0,100,106.0
1843,E2,248.0,1.5,100,106.0
1844,C2,248.0,1.0,100,106.0
1845,F#2,248.0,0.5,100,106.0
1846,F#2,248.5,0.5,100,106.0
1847,D5,249.0,0.5,100,106.0
1848,E4,249.0,0.5,100,106.0
1849,E2,249.0,0.5,114,106.0
1850,F#2,249.0,0.5,114,106.0
1851,D5,249.5,1.0,100,106.0
1852,D4,249.5,2.0,100,106.0
1853,E2,249.5,1.0,100,106.0
1854,F#2,249.5,0.5,100,106.0
1855,C2,249.5,0.5,100,106.0
1856,F#2,250.0,0.5,100,106.0
1857,G3,250.0,4.0,100,106.0
1858,B3,250.0,4.0,100,106.0
1859,D4,250.0,4.0,100,106.0
1860,E4,250.0,4.0,100,106.0
1861,B4,250.5,0.5,100,106.0
1862,A4,250.5,0.5,100,106.0
1863,A1,250.5,0.5,100,106.0
1864,F#2,250.5,0.5,100,106.0
1865,D5,251.0,0.5,100,106.0
1866,D5,251.0,0.5,100,106.0
1867,B1,251.0,0.5,100,106.0
1868,E2,251.0,0.5,114,106.0
1869,F#2,251.0,0.5,114,106.0
1870,E5,251.5,0.5,100,106.0
1871,F#4,251.5,0.5,100,106.0
1872,F#5,251.5,2.5,100,106.0
1873,A1,251.5,0.5,100,106.0
1874,F#2,251.5,0.5,100,106.0
1875,C2,251.5,0.5,100,106.0
1876,E5,252.0,0.5,100,106.0
1877,F#4,252.0,0.5,100,106.0
1878,A1,252.0,1.5,100,106.0
1879,C2,252.0,1.0,100,106.0
1880,F#2,252.0,0.5,100,106.0
1881,F#5,252.5,0.5,100,106.0
1882,E4,252.5,0.5,100,106.0
1883,F#2,252.5,0.5,100,106.0
1884,D4,253.0,0.5,100,106.0
1885,E2,253.0,0.5,114,106.0
1886,F#2,253.0,0.5,114,106.0
1887,E4,253.5,1.0,100,106.0
1888,A1,253.5,1.0,100,106.0
1889,F#2,253.5,0.5,100,106.0
1890,C2,253.5,0.5,100,106.0
1891,F#2,254.0,0.5,100,106.0
1892,G3,254.0,4.0,100,106.0
1893,C#4,254.0,4.0,100,106.0
1894,E4,254.0,4.0,100,106.0
1895,A4,254.5,0.5,100,106.0
1896,F#4,254.5,0.5,100,106.0
1897,G4,254.5,0.5,100,106.0
1898,A1,254.5,0.5,100,106.0
1899,F#2,254.5,0.5,100,106.0
1900,B4,255.0,0.5,100,106.0
1901,B4,255.0,0.5,100,106.0
1902,B1,255.0,0.5,100,106.0
1903,E2,255.0,0.5,114,106.0
1904,F#2,255.0,0.5,114,106.0
1905,F#5,255.5,0.5,100,106.0
1906,F#4,255.5,0.5,100,106.0
1907,E5,255.5,2.5,100,106.0
1908,D2,255.5,0.5,100,106.0
1909,F#2,255.5,0.5,100,106.0
1910,C2,255.5,0.5,100,106.0
1911,F#5,256.0,1.0,100,106.0
1912,F#4,256.0,1.0,100,106.0
1913,D2,256.0,1.5,100,106.0
1914,C2,256.0,1.0,100,106.0
1915,F#2,256.0,0.5,100,106.0
1916,F#2,256.5,0.5,100,106.0
1917,E5,257.0,0.5,100,106.0
1918,E4,257.0,0.5,100,106.0
1919,E2,257.0,0.5,114,106.0
1920,F#2,257.0,0.5,114,106.0
1921,D5,257.5,1.0,100,106.0
1922,D4,257.5,1.5,100,106.0
1923,D2,257.5,1.0,100,106.0
1924,F#2,257.5,0.5,100,106.0
1925,C2,257.5,0.5,100,106.0
1926,F#2,258.0,0.5,100,106.0
1927,A3,258.0,4.0,100,106.0
1928,B3,258.0,4.0,100,106.0
1929,D4,258.0,4.0,100,106.0
1930,F#4,258.0,4.0,100,106.0
1931,B4,258.5,0.5,100,106.0
1932,G4,258.5,0.5,100,106.0
1933,A1,258.5,0.5,100,106.0
1934,F#2,258.5,0.5,100,106.0
1935,D5,259.0,0.5,100,106.0
1936,D4,259.0,0.5,100,106.0
1937,B4,259.0,0.5,100,106.0
1938,B1,259.0,0.5,100,106.0
1939,E2,259.0,0.5,114,106.0
1940,F#2,259.0,0.5,114,106.0
1941,F#5,259.5,0.5,100,106.0
1942,E4,259.5,0.5,100,106.0
1943,E5,259.5,2.5,100,106.0
1944,F#2,259.5,0.5,100,106.0
1945,F#2,259.5,0.5,100,106.0
1946,C2,259.5,0.5,100,106.0
1947,F#5,260.0,0.5,100,106.0
1948,E4,260.0,0.5,100,106.0
1949,F#2,260.0,1.5,100,106.0
1950,C2,260.0,1.0,100,106.0
1951,F#2,260.0,0.5,100,106.0
1952,E5,260.5,0.5,100,106.0
1953,F#4,260.5,1.0,100,106.0
1954,F#2,260.5,0.5,100,106.0
1955,D5,261.0,0.5,100,106.0
1956,E2,261.0,0.5,114,106.0
1957,F#2,261.0,0.5,114,106.0
1958,E5,261.5,1.0,100,106.0
1959,A4,261.5,2.0,100,106.0
1960,F#2,261.5,1.25,100,106.0
1961,F#2,261.5,0.5,100,106.0
1962,C2,261.5,0.5,100,106.0
1963,D4,262.0,1.5,100,106.0
1964,F#2,262.0,0.5,100,106.0
1965,B3,262.0,4.0,100,106.0
1966,G4,262.0,4.0,100,106.0
1967,D4,262.0,3.5,100,106.0
1968,A3,262.0,3.5,100,106.0
1969,F#3,262.0,3.5,100,106.0
1970,F#5,262.5,0.5,100,106.0
1971,F#2,262.5,0.5,100,106.0
1972,F#2,262.75,0.25,100,106.0
1973,A1,263.0,0.5,100,106.0
1974,E2,263.0,0.5,114,106.0
1975,F#2,263.0,0.5,114,106.0
1976,F#5,263.5,0.25,100,106.0
1977,E4,263.5,2.5,100,106.0
1978,F#4,263.5,0.5,100,106.0
1979,B1,263.5,0.5,100,106.0
1980,F#2,263.5,0.5,100,106.0
1981,C2,263.5,0.5,100,106.0
1982,G5,263.75,0.25,100,106.0
1983,A5,264.0,0.5,100,106.0
1984,F#4,264.0,1.0,100,106.0
1985,E2,264.0,1.5,100,106.0
1986,C2,264.0,1.0,100,106.0
1987,F#2,264.0,0.5,100,106.0
1988,G5,264.5,0.5,100,106.0
1989,F#2,264.5,0.5,100,106.0
1990,F#5,265.0,0.5,100,106.0
1991,E4,265.0,0.5,100,106.0
1992,E2,265.0,0.5,114,106.0
1993,F#2,265.0,0.5,114,106.0
1994,D5,265.5,1.0,100,106.0
1995,D4,265.5,2.0,100,106.0
1996,E2,265.5,1.0,100,106.0
1997,E4,265.5,0.5,100,106.0
1998,F#3,265.5,0.5,100,106.0
1999,A3,265.5,0.5,100,106.0
2000,C#4,265.5,0.5,100,106.0
2001,F#2,265.5,0.5,100,106.0
2002,C2,265.5,0.5,100,106.0
2003,F#4,266.0,1.5,100,106.0
2004,F#2,266.0,0.5,100,106.0
2005,G3,266.0,4.0,100,106.0
2006,B3,266.0,4.0,100,106.0
2007,D4,266.0,4.0,100,106.0
2008,A5,266.5,0.5,100,106.0
2009,A1,266.5,0.5,100,106.0
2010,F#2,266.5,0.5,100,106.0
2011,A4,266.875,0.125,100,106.0
2012,B5,267.0,0.5,100,106.0
2013,B1,267.0,0.5,100,106.0
2014,E2,267.0,0.5,114,106.0
2015,F#2,267.0,0.5,114,106.0
2016,A5,267.5,0.5,100,106.0
2017,E4,267.5,2.5,100,106.0
2018,F#4,267.5,0.5,100,106.0
2019,A1,267.5,0.5,100,106.0
2020,F#2,267.5,0.5,100,106.0
2021,C2,267.5,0.5,100,106.0
2022,A5,268.0,2.0,100,106.0
2023,F#4,268.0,0.5,100,106.0
2024,A1,268.0,1.5,100,106.0
2025,C2,268.0,1.0,100,106.0
2026,F#2,268.0,0.5,100,106.0
2027,E4,268.5,0.5,100,106.0
2028,F#2,268.5,0.5,100,106.0
2029,D4,269.0,0.5,100,106.0
2030,F#2,269.0,0.5,114,106.0
2031,E2,269.0,0.5,114,106.0
2032,E4,269.5,1.0,100,106.0
2033,A1,269.5,0.5,100,106.0
2034,E4,269.5,3.5,100,106.0
2035,F#3,269.5,3.5,100,106.0
2036,A3,269.5,3.5,100,106.0
2037,C#4,269.5,3.5,100,106.0
2038,F#2,269.5,0.5,100,106.0
2039,C2,269.5,0.5,100,106.0
2040,C6,270.0,1333/1000,100,106.0
2041,A1,270.0,2.0,100,106.0
2042,F#2,270.0,0.5,100,106.0
2043,G3,270.0,4.0,100,106.0
2044,C#4,270.0,4.0,100,106.0
2045,E4,270.0,4.0,100,106.0
2046,F#4,270.5,0.5,100,106.0
2047,B2,270.5,0.5,100,106.0
2048,F#2,270.5,0.5,100,106.0
2049,A2,271.0,0.5,109,106.0
2050,E2,271.0,0.5,109,106.0
2051,F#2,271.0,0.5,109,106.0
2052,A5,271.333,333/1000,100,106.0
2053,F#4,271.5,0.25,100,106.0
2054,A2,271.5,0.5,100,106.0
2055,F#2,271.5,0.5,100,106.0
2056,C2,271.5,0.5,100,106.0
2057,G#5,271.667,333/1000,100,106.0
2058,G4,271.75,0.25,100,106.0
2059,G5,272.0,0.25,100,106.0
2060,A4,272.0,0.5,100,106.0
2061,D2,272.0,1.5,100,106.0
2062,C#3,272.0,2.0,100,106.0
2063,C2,272.0,1.0,100,106.0
2064,F#2,272.0,0.5,100,106.0
2065,F5,272.25,0.25,100,106.0
2066,D5,272.5,0.25,100,106.0
2067,G4,272.5,0.5,100,106.0
2068,F#2,272.5,0.25,100,106.0
2069,C5,272.75,0.25,100,106.0
2070,F#2,272.75,0.25,100,106.0
2071,A4,273.0,0.25,100,106.0
2072,F#4,273.0,0.5,100,106.0
2073,E4,273.0,0.5,100,106.0
2074,D4,273.0,0.5,100,106.0
2075,G3,273.0,0.5,100,106.0
2076,B3,273.0,0.5,100,106.0
2077,F#2,273.0,0.5,100,106.0
2078,C#2,273.0,0.5,100,106.0
2079,G#4,273.25,0.25,100,106.0
2080,G4,273.5,0.25,100,106.0
2081,D4,273.5,2.5,100,106.0
2082,D2,273.5,0.5,100,106.0
2083,F#2,273.5,0.5,100,106.0
2084,C2,273.5,0.5,100,106.0
2085,F4,273.75,0.25,100,106.0
2086,D5,274.0,0.25,100,106.0
2087,B3,274.0,4.0,100,106.0
2088,D4,274.0,4.0,100,106.0
2089,F#4,274.0,4.0,100,106.0
2090,F#5,274.25,1.25,100,106.0
2091,F#2,274.5,0.5,100,106.0
2092,A1,275.0,0.5,100,106.0
2093,F#2,275.0,0.5,100,106.0
2094,C#2,275.0,0.5,100,106.0
2095,B4,275.5,0.25,100,106.0
2096,B1,275.5,0.5,100,106.0
2097,F#2,275.5,0.5,100,106.0
2098,C2,275.5,0.5,100,106.0
2099,A4,275.75,0.25,100,106.0
2100,D5,276.0,1.0,100,106.0
2101,D2,276.0,1.5,100,106.0
2102,F#2,276.0,0.5,100,106.0
2103,C2,276.0,1.0,100,106.0
2104,F#2,276.5,0.25,100,106.0
2105,F#2,276.75,0.25,100,106.0
2106,B4,277.0,0.25,100,106.0
2107,E4,277.0,3.5,100,106.0
2108,D4,277.0,3.5,100,106.0
2109,G3,277.0,3.5,100,106.0
2110,B3,277.0,3.5,100,106.0
2111,F#2,277.0,0.5,100,106.0
2112,C#2,277.0,0.5,100,106.0
2113,A4,277.25,0.25,100,106.0
2114,D5,277.5,1.0,100,106.0
2115,D2,277.5,0.5,100,106.0
2116,F#2,277.5,0.5,100,106.0
2117,C2,277.5,0.5,100,106.0
2118,D4,278.0,1.5,100,106.0
2119,B3,278.0,4.0,100,106.0
2120,G4,278.0,4.0,100,106.0
2121,E5,278.5,0.5,100,106.0
2122,F#2,278.5,0.5,100,106.0
2123,A1,279.0,0.5,100,106.0
2124,F#2,279.0,0.5,100,106.0
2125,C#2,279.0,0.5,100,106.0
2126,E4,279.5,2.5,100,106.0
2127,B1,279.5,0.5,100,106.0
2128,B-2,279.5,0.5,100,106.0
2129,C2,279.5,0.5,100,106.0
2130,D2,280.0,1.5,100,106.0
2131,F#2,280.0,0.5,100,106.0
2132,C2,280.0,1.0,100,106.0
2133,F#3,280.0,4.0,100,106.0
2134,A3,280.0,4.0,100,106.0
2135,D4,280.0,4.0,100,106.0
2136,F#2,280.5,0.25,100,106.0
2137,G3,280.5,0.5,100,106.0
2138,B3,280.5,0.5,100,106.0
2139,C#4,280.5,0.5,100,106.0
2140,E4,280.5,0.5,100,106.0
2141,C5,280.75,0.75,100,106.0
2142,F#2,280.75,0.25,100,106.0
2143,F#2,281.0,0.5,100,106.0
2144,C#2,281.0,0.5,100,106.0
2145,B4,281.5,0.5,100,106.0
2146,D2,281.5,1.25,100,106.0
2147,F#2,281.5,0.5,100,106.0
2148,C2,281.5,0.5,100,106.0
2149,C5,282.0,333/1000,100,106.0
2150,F#4,282.0,2.0,100,106.0
2151,B3,282.0,4.0,100,106.0
2152,D4,282.0,4.0,100,106.0
2153,B4,282.333,333/1000,100,106.0
2154,F#2,282.5,0.5,100,106.0
2155,A4,282.667,833/1000,100,106.0
2156,D2,282.75,0.25,100,106.0
2157,A1,283.0,0.5,100,106.0
2158,F#2,283.0,0.5,100,106.0
2159,C#2,283.0,0.5,100,106.0
2160,G#4,283.5,167/1000,100,106.0
2161,B1,283.5,0.5,100,106.0
2162,C2,283.5,0.5,100,106.0
2163,G4,283.667,167/1000,100,106.0
2164,F4,283.833,167/1000,100,106.0
2165,G4,284.0,0.25,100,106.0
2166,E4,284.0,2.0,100,106.0
2167,D2,284.0,1.5,100,106.0
2168,F#2,284.0,0.5,100,106.0
2169,C2,284.0,1.0,100,106.0
2170,G3,284.0,4.0,100,106.0
2171,A3,284.0,4.0,100,106.0
2172,D4,284.0,4.0,100,106.0
2173,F#4,284.25,0.25,100,106.0
2174,D4,284.5,0.25,100,106.0
2175,F#2,284.5,0.25,100,106.0
2176,G3,284.5,3.5,100,106.0
2177,B3,284.5,3.5,100,106.0
2178,C#4,284.5,3.5,100,106.0
2179,E4,284.5,3.5,100,106.0
2180,G4,284.75,0.25,100,106.0
2181,F#2,284.75,0.25,100,106.0
2182,F#4,285.0,0.5,100,106.0
2183,F#2,285.0,0.5,100,106.0
2184,C#2,285.0,0.5,100,106.0
2185,D4,285.5,1.25,100,106.0
2186,D2,285.5,1.5,100,106.0
2187,F#2,285.5,0.5,100,106.0
2188,C2,285.5,0.5,100,106.0
2189,F#4,286.0,3.5,100,106.0
2190,D4,286.0,3.5,100,106.0
2191,A3,286.0,3.5,100,106.0
2192,F#2,286.5,0.5,100,106.0
2193,D4,286.75,0.25,100,106.0
2194,F#4,287.0,0.25,100,106.0
2195,A1,287.0,0.5,100,106.0
2196,F#2,287.0,0.5,100,106.0
2197,C#2,287.0,0.5,100,106.0
2198,A4,287.25,0.25,100,106.0
2199,B4,287.5,0.25,100,106.0
2200,B1,287.5,0.5,100,106.0
2201,B-2,287.5,0.5,100,106.0
2202,C2,287.5,0.5,100,106.0
2203,D5,287.75,0.25,100,106.0
2204,D5,288.0,0.5,100,106.0
2205,D2,288.0,1.5,100,106.0
2206,C#3,288.0,2.0,100,106.0
2207,C2,288.0,1.0,100,106.0
2208,F#2,288.0,0.5,100,106.0
2209,F#3,288.0,4.0,100,106.0
2210,A3,288.0,4.0,100,106.0
2211,D4,288.0,4.0,100,106.0
2212,F#3,288.0,0.5,100,106.0
2213,A3,288.0,0.5,100,106.0
2214,D4,288.0,0.5,100,106.0
2215,B4,288.5,0.5,100,106.0
2216,F#2,288.5,0.25,100,106.0
2217,F#2,288.75,0.25,100,106.0
2218,F#2,289.0,0.5,100,106.0
2219,C#2,289.0,0.5,100,106.0
2220,D2,289.5,0.5,100,106.0
2221,A3,289.5,0.5,100,106.0
2222,F#4,289.5,0.5,100,106.0
2223,C#4,289.5,0.5,100,106.0
2224,E4,289.5,0.5,100,106.0
2225,F#2,289.5,0.5,100,106.0
2226,C2,289.5,0.5,100,106.0
2227,F#2,290.5,0.5,100,106.0
2228,E5,291.0,0.125,100,106.0
2229,A1,291.0,0.5,100,106.0
2230,F#2,291.0,0.5,100,106.0
2231,C#2,291.0,0.5,100,106.0
2232,F5,291.125,0.125,100,106.0
2233,E5,291.25,0.125,100,106.0
2234,D5,291.375,0.125,100,106.0
2235,B4,291.5,0.25,100,106.0
2236,B1,291.5,0.5,100,106.0
2237,F#2,291.5,0.5,100,106.0
2238,C2,291.5,0.5,100,106.0
2239,D5,291.75,0.25,100,106.0
2240,D5,292.0,0.5,100,106.0
2241,D2,292.0,1.5,100,106.0
2242,F#2,292.0,0.5,100,106.0
2243,C2,292.0,1.0,100,106.0
2244,G3,292.0,4.0,100,106.0
2245,A3,292.0,4.0,100,106.0
2246,D4,292.0,4.0,100,106.0
2247,F#3,292.0,3.5,100,106.0
2248,A3,292.0,3.5,100,106.0
2249,D4,292.0,3.5,100,106.0
2250,E5,292.5,0.5,100,106.0
2251,F#2,292.5,0.25,100,106.0
2252,F#2,292.75,0.25,100,106.0
2253,F#2,293.0,0.5,100,106.0
2254,C#2,293.0,0.5,100,106.0
2255,D2,293.5,0.5,100,106.0
2256,A3,293.5,3.5,100,106.0
2257,F#4,293.5,3.5,100,106.0
2258,C#4,293.5,3.5,100,106.0
2259,E4,293.5,3.5,100,106.0
2260,F#2,293.5,0.5,100,106.0
2261,C2,293.5,0.5,100,106.0
2262,F#2,294.5,0.5,100,106.0
2263,D5,295.0,0.25,100,106.0
2264,A1,295.0,0.5,100,106.0
2265,F#2,295.0,0.5,100,106.0
2266,C#2,295.0,0.5,100,106.0
2267,E5,295.25,0.25,100,106.0
2268,F#5,295.5,0.25,100,106.0
2269,B1,295.5,0.5,100,106.0
2270,F#3,295.5,0.5,100,106.0
2271,E4,295.5,0.5,100,106.0
2272,A3,295.5,0.5,100,106.0
2273,C#4,295.5,0.5,100,106.0
2274,B-2,295.5,0.5,100,106.0
2275,C2,295.5,0.5,100,106.0
2276,G5,295.75,0.25,100,106.0
2277,E5,295.875,0.125,100,106.0
2278,F#5,296.0,1.0,100,106.0
2279,D2,296.0,1.5,100,106.0
2280,C2,296.0,1.0,100,106.0
2281,F#2,296.0,0.5,100,106.0
2282,F#3,296.0,4.0,100,106.0
2283,A3,296.0,4.0,100,106.0
2284,D4,296.0,4.0,100,106.0
2285,F#2,296.5,0.25,100,106.0
2286,F#2,296.75,0.25,100,106.0
2287,D5,297.0,333/1000,100,106.0
2288,B3,297.0,0.5,100,106.0
2289,D4,297.0,0.5,100,106.0
2290,E4,297.0,0.5,100,106.0
2291,G4,297.0,0.5,100,106.0
2292,F#2,297.0,0.5,100,106.0
2293,C#2,297.0,0.5,100,106.0
2294,A4,297.333,333/1000,100,106.0
2295,D2,297.5,1.25,100,106.0
2296,F#2,297.5,0.5,100,106.0
2297,C2,297.5,0.5,100,106.0
2298,A5,297.667,1021/500,100,106.0
2299,F#2,298.5,0.5,100,106.0
2300,D2,298.75,0.25,100,106.0
2301,A1,299.0,0.5,100,106.0
2302,F#2,299.0,0.5,100,106.0
2303,C#2,299.0,0.5,100,106.0
2304,B1,299.5,0.5,100,106.0
2305,F#2,299.5,0.5,100,106.0
2306,C2,299.5,0.5,100,106.0
2307,F#5,299.75,0.25,100,106.0
2308,G5,300.0,0.5,100,106.0
2309,D2,300.0,1.5,100,106.0
2310,F#2,300.0,0.5,100,106.0
2311,C2,300.0,1.0,100,106.0
2312,G3,300.0,4.0,100,106.0
2313,B3,300.0,4.0,100,106.0
2314,D4,300.0,4.0,100,106.0
2315,E4,300.0,4.0,100,106.0
2316,F#3,300.0,4.0,100,106.0
2317,E4,300.0,4.0,100,106.0
2318,A3,300.0,4.0,100,106.0
2319,C#4,300.0,4.0,100,106.0
2320,F#5,300.5,0.5,100,106.0
2321,F#2,300.5,0.25,100,106.0
2322,F#2,300.75,0.25,100,106.0
2323,E5,301.0,0.5,100,106.0
2324,B3,301.0,3.5,100,106.0
2325,D4,301.0,3.5,100,106.0
2326,E4,301.0,3.5,100,106.0
2327,G4,301.0,3.5,100,106.0
2328,F#2,301.0,0.5,100,106.0
2329,C#2,301.0,0.5,100,106.0
2330,D5,301.5,2.0,100,106.0
2331,D2,301.5,1.5,100,106.0
2332,F#2,301.5,0.5,100,106.0
2333,C2,301.5,0.5,100,106.0
2334,F#2,302.5,0.5,100,106.0
2335,A1,303.0,0.5,100,106.0
2336,F#2,303.0,0.5,100,106.0
2337,C#2,303.0,0.5,100,106.0
2338,B4,303.5,0.25,100,106.0
2339,B1,303.5,0.5,100,106.0
2340,F#2,303.5,0.5,100,106.0
2341,C2,303.5,0.5,100,106.0
2342,F#4,303.75,0.25,100,106.0
2343,A4,304.0,1.5,100,106.0
2344,D2,304.0,1.5,100,106.0
2345,C2,304.0,1.0,100,106.0
2346,F#2,304.0,0.5,100,106.0
2347,F#3,304.0,4.0,100,106.0
2348,A3,304.0,4.0,100,106.0
2349,D4,304.0,4.0,100,106.0
2350,F#4,304.0,4.0,100,106.0
2351,E3,304.0,3.5,100,106.0
2352,G3,304.0,3.5,100,106.0
2353,B3,304.0,3.5,100,106.0
2354,D4,304.0,3.5,100,106.0
2355,F#2,304.5,0.25,100,106.0
2356,G4,304.5,0.5,100,106.0
2357,B3,304.5,0.5,100,106.0
2358,C#4,304.5,0.5,100,106.0
2359,E4,304.5,0.5,100,106.0
2360,F#2,304.75,0.25,100,106.0
2361,F#2,305.0,0.5,100,106.0
2362,C#2,305.0,0.5,100,106.0
2363,E5,305.375,0.125,100,106.0
2364,F#5,305.5,1.0,100,106.0
2365,D2,305.5,0.5,100,106.0
2366,F#2,305.5,0.5,100,106.0
2367,C2,305.5,0.5,100,106.0
2368,F5,306.5,167/1000,100,106.0
2369,F#2,306.5,0.5,100,106.0
2370,E5,306.667,167/1000,100,106.0
2371,D5,306.833,167/1000,100,106.0
2372,E5,307.0,0.5,100,106.0
2373,A1,307.0,0.5,100,106.0
2374,F#2,307.0,0.5,100,106.0
2375,C#2,307.0,0.5,100,106.0
2376,D5,307.5,0.25,100,106.0
2377,B1,307.5,0.5,100,106.0
2378,G3,307.5,0.5,100,106.0
2379,B3,307.5,0.5,100,106.0
2380,C#4,307.5,0.5,100,106.0
2381,E4,307.5,0.5,100,106.0
2382,F#2,307.5,0.5,100,106.0
2383,C2,307.5,0.5,100,106.0
2384,E5,307.625,0.125,100,106.0
2385,F#5,307.75,0.25,100,106.0
2386,F#5,308.0,0.25,100,106.0
2387,D2,308.0,1.5,100,106.0
2388,F#2,308.0,0.5,100,106.0
2389,C2,308.0,1.0,100,106.0
2390,A3,308.0,4.0,100,106.0
2391,G3,308.0,4.0,100,106.0
2392,D4,308.0,4.0,100,106.0
2393,D5,308.25,0.75,100,106.0
2394,F#2,308.5,0.25,100,106.0
2395,G4,308.5,3.5,100,106.0
2396,B3,308.5,3.5,100,106.0
2397,C#4,308.5,3.5,100,106.0
2398,E4,308.5,3.5,100,106.0
2399,F#2,308.75,0.25,100,106.0
2400,A4,309.0,1.0,100,106.0
2401,F#2,309.0,0.5,100,106.0
2402,C#2,309.0,0.5,100,106.0
2403,D2,309.5,0.5,100,106.0
2404,F#2,309.5,0.5,100,106.0
2405,C2,309.5,0.5,100,106.0
2406,F#2,310.5,0.5,100,106.0
2407,E5,311.0,167/1000,100,106.0
2408,A1,311.0,0.5,100,106.0
2409,F#2,311.0,0.5,100,106.0
2410,C#2,311.0,0.5,100,106.0
2411,F5,311.167,167/1000,100,106.0
2412,E5,311.333,167/1000,100,106.0
2413,D5,311.5,0.25,100,106.0
2414,B1,311.5,0.5,100,106.0
2415,F#2,311.5,0.5,100,106.0
2416,C2,311.5,0.5,100,106.0
2417,E5,311.75,0.25,100,106.0
2418,E5,311.875,0.125,100,106.0
2419,F#5,312.0,0.5,100,106.0
2420,D2,312.0,1.5,100,106.0
2421,C2,312.0,1.0,100,106.0
2422,F#2,312.0,0.5,100,106.0
2423,A4,312.0,0.5,100,106.0
2424,D4,312.0,0.5,100,106.0
2425,F#4,312.0,0.5,100,106.0
2426,F#3,312.0,4.0,100,106.0
2427,A3,312.0,4.0,100,106.0
2428,D4,312.0,4.0,100,106.0
2429,G3,312.0,4.0,100,106.0
2430,B3,312.0,4.0,100,106.0
2431,C#4,312.0,4.0,100,106.0
2432,E4,312.0,4.0,100,106.0
2433,A5,312.5,0.5,100,106.0
2434,F#2,312.5,0.25,100,106.0
2435,F#2,312.75,0.25,100,106.0
2436,B5,313.0,0.25,100,106.0
2437,F#2,313.0,0.5,100,106.0
2438,C#2,313.0,0.5,100,106.0
2439,A5,313.25,0.25,100,106.0
2440,D6,313.5,2.5,100,106.0
2441,D2,313.5,1.0,100,106.0
2442,F#2,313.5,0.5,100,106.0
2443,C2,313.5,0.5,100,106.0
2444,A1,314.5,0.5,100,106.0
2445,F#2,314.5,0.5,100,106.0
2446,B1,315.0,0.5,100,106.0
2447,F#2,315.0,0.5,100,106.0
2448,C#2,315.0,0.5,100,106.0
2449,E2,315.5,0.5,100,106.0
2450,F#2,315.5,0.5,100,106.0
2451,C2,315.5,0.5,100,106.0
2452,D6,316.0,2.0,100,106.0
2453,E2,316.0,1.5,100,106.0
2454,F#2,316.0,0.5,100,106.0
2455,C2,316.0,1.0,100,106.0
2456,A4,316.0,3.5,100,106.0
2457,D4,316.0,3.5,100,106.0
2458,F#4,316.0,3.5,100,106.0
2459,G3,316.0,4.0,100,106.0
2460,B3,316.0,4.0,100,106.0
2461,D4,316.0,4.0,100,106.0
2462,E4,316.0,4.0,100,106.0
2463,D4,316.5,0.25,100,106.0
2464,F#2,316.5,0.25,100,106.0
2465,D4,316.75,0.25,100,106.0
2466,F#2,316.75,0.25,100,106.0
2467,D4,317.0,0.5,100,106.0
2468,F#2,317.0,0.5,100,106.0
2469,C#2,317.0,0.5,100,106.0
2470,D4,317.5,0.5,100,106.0
2471,E2,317.5,2.0,100,106.0
2472,F#2,317.5,0.5,100,106.0
2473,C2,317.5,0.5,100,106.0
2474,B5,318.0,0.5,100,106.0
2475,A5,318.5,0.5,100,106.0
2476,F#2,318.5,0.5,100,106.0
2477,F#5,319.0,167/1000,100,106.0
2478,B2,319.0,0.5,100,106.0
2479,F#2,319.0,0.5,100,106.0
2480,C#2,319.0,0.5,100,106.0
2481,E5,319.167,167/1000,100,106.0
2482,D5,319.333,167/1000,100,106.0
2483,B4,319.5,0.25,100,106.0
2484,B1,319.5,0.5,100,106.0
2485,C#4,319.5,0.5,100,106.0
2486,E4,319.5,0.5,100,106.0
2487,F#4,319.5,0.5,100,106.0
2488,A4,319.5,0.5,100,106.0
2489,A2,319.5,0.5,100,106.0
2490,F#2,319.5,0.5,100,106.0
2491,C2,319.5,0.5,100,106.0
2492,A5,319.75,0.25,100,106.0
2493,A5,320.0,2.5,100,106.0
2494,C#2,320.0,1.5,100,106.0
2495,C#3,320.0,2.0,100,106.0
2496,C2,320.0,1.0,100,106.0
2497,F#2,320.0,0.5,100,106.0
2498,F#4,320.0,3.5,100,106.0
2499,F#3,320.0,3.5,100,106.0
2500,A3,320.0,3.5,100,106.0
2501,D4,320.0,3.5,100,106.0
2502,D4,320.5,0.25,100,106.0
2503,F#2,320.5,0.5,100,106.0
2504,D4,320.75,0.25,100,106.0
2505,D4,321.0,0.5,100,106.0
2506,C#2,321.0,0.5,100,106.0
2507,F#2,321.0,0.5,100,106.0
2508,D4,321.5,0.5,100,106.0
2509,C#2,321.5,2.0,100,106.0
2510,F#2,321.5,0.5,100,106.0
2511,C2,321.5,0.5,100,106.0
2512,F#2,322.0,0.5,100,106.0
2513,C#5,322.5,0.5,100,106.0
2514,F#2,322.5,0.5,100,106.0
2515,E5,323.0,0.5,100,106.0
2516,F#2,323.0,0.5,100,106.0
2517,C#2,323.0,0.5,100,106.0
2518,D5,323.5,0.5,100,106.0
2519,C#2,323.5,0.5,100,106.0
2520,G3,323.5,0.5,100,106.0
2521,B3,323.5,0.5,100,106.0
2522,D4,323.5,0.5,100,106.0
2523,E4,323.5,0.5,100,106.0
2524,F#2,323.5,0.5,100,106.0
2525,C2,323.5,0.5,100,106.0
2526,D5,324.0,0.5,100,106.0
2527,B1,324.0,1.5,100,106.0
2528,C2,324.0,1.0,100,106.0
2529,F#2,324.0,0.5,100,106.0
2530,C#4,324.0,4.0,100,106.0
2531,E4,324.0,4.0,100,106.0
2532,F#4,324.0,4.0,100,106.0
2533,A4,324.0,4.0,100,106.0
2534,E5,324.5,0.5,100,106.0
2535,D4,324.5,0.25,100,106.0
2536,F#2,324.5,0.5,100,106.0
2537,D4,324.75,0.25,100,106.0
2538,D4,325.0,0.5,100,106.0
2539,C#2,325.0,0.5,100,106.0
2540,F#2,325.0,0.5,100,106.0
2541,D4,325.5,0.5,100,106.0
2542,B1,325.5,2.0,100,106.0
2543,F#2,325.5,0.5,100,106.0
2544,C2,325.5,0.5,100,106.0
2545,F#2,326.0,0.5,100,106.0
2546,F#2,326.5,0.5,100,106.0
2547,B4,326.75,0.25,100,106.0
2548,E5,327.0,0.5,100,106.0
2549,F#2,327.0,0.5,100,106.0
2550,C#2,327.0,0.5,100,106.0
2551,F#5,327.5,0.5,100,106.0
2552,B1,327.5,0.5,100,106.0
2553,F#2,327.5,0.5,100,106.0
2554,C2,327.5,0.5,100,106.0
2555,G5,328.0,1.0,100,106.0
2556,A1,328.0,1.5,100,106.0
2557,C2,328.0,1.0,100,106.0
2558,F#2,328.0,0.5,100,106.0
2559,D4,328.0,1.5,100,106.0
2560,E4,328.0,1.5,100,106.0
2561,G4,328.0,1.5,100,106.0
2562,B4,328.0,1.5,100,106.0
2563,G3,328.0,4.0,100,106.0
2564,B3,328.0,4.0,100,106.0
2565,D4,328.0,4.0,100,106.0
2566,E4,328.0,4.0,100,106.0
2567,D4,328.5,0.25,100,106.0
2568,F#2,328.5,0.5,100,106.0
2569,D4,328.75,0.25,100,106.0
2570,F#5,329.0,0.5,100,106.0
2571,D4,329.0,0.5,100,106.0
2572,C#2,329.0,0.5,100,106.0
2573,F#2,329.0,0.5,100,106.0
2574,E5,329.5,1.0,100,106.0
2575,D4,329.5,0.5,100,106.0
2576,A1,329.5,2.0,100,106.0
2577,D4,329.5,2.0,100,106.0
2578,E4,329.5,2.0,100,106.0
2579,G4,329.5,2.0,100,106.0
2580,B4,329.5,2.0,100,106.0
2581,F#2,329.5,0.5,100,106.0
2582,C2,329.5,0.5,100,106.0
2583,F#2,330.0,0.5,100,106.0
2584,F#5,330.5,0.5,100,106.0
2585,F#2,330.5,0.5,100,106.0
2586,G5,331.0,1.0,100,106.0
2587,F#2,331.0,0.5,100,106.0
2588,C#2,331.0,0.5,100,106.0
2589,A1,331.5,0.5,100,106.0
2590,B4,331.5,0.5,100,106.0
2591,G4,331.5,0.5,100,106.0
2592,C#4,331.5,0.5,100,106.0
2593,E4,331.5,0.5,100,106.0
2594,F#2,331.5,0.5,100,106.0
2595,C2,331.5,0.5,100,106.0
2596,E5,331.75,0.125,100,106.0
2597,F#5,332.0,0.75,100,106.0
2598,A1,332.0,1.5,100,106.0
2599,C2,332.0,1.0,100,106.0
2600,F#2,332.0,0.5,100,106.0
2601,G3,332.0,4.0,100,106.0
2602,C#4,332.0,4.0,100,106.0
2603,E4,332.0,4.0,100,106.0
2604,D4,332.5,0.25,100,106.0
2605,F#2,332.5,0.5,100,106.0
2606,G5,332.75,0.25,100,106.0
2607,D4,332.75,0.25,100,106.0
2608,F#5,333.0,0.5,100,106.0
2609,D4,333.0,0.5,100,106.0
2610,C#2,333.0,0.5,100,106.0
2611,F#2,333.0,0.5,100,106.0
2612,E5,333.5,1.0,100,106.0
2613,D4,333.5,0.5,100,106.0
2614,A1,333.5,2.0,100,106.0
2615,F#2,333.5,0.5,100,106.0
2616,C2,333.5,0.5,100,106.0
2617,F#2,334.0,0.5,100,106.0
2618,D5,334.5,0.5,100,106.0
2619,B2,334.5,0.5,100,106.0
2620,F#2,334.5,0.5,100,106.0
2621,E5,335.0,0.5,100,106.0
2622,A2,335.0,0.5,100,106.0
2623,F#2,335.0,0.5,100,106.0
2624,C#2,335.0,0.5,100,106.0
2625,B5,335.5,0.5,100,106.0
2626,B1,335.5,0.5,100,106.0
2627,A2,335.5,0.5,100,106.0
2628,F#2,335.5,0.5,100,106.0
2629,C2,335.5,0.5,100,106.0
2630,A5,336.0,2667/1000,100,106.0
2631,C#2,336.0,1.5,100,106.0
2632,C2,336.0,1.0,100,106.0
2633,F#2,336.0,0.5,100,106.0
2634,B4,336.0,4.0,100,106.0
2635,G4,336.0,4.0,100,106.0
2636,C#4,336.0,4.0,100,106.0
2637,E4,336.0,4.0,100,106.0
2638,A3,336.0,4.0,100,106.0
2639,B3,336.0,4.0,100,106.0
2640,D4,336.0,4.0,100,106.0
2641,F#4,336.0,4.0,100,106.0
2642,D4,336.5,0.25,100,106.0
2643,F#2,336.5,0.5,100,106.0
2644,D4,336.75,0.25,100,106.0
2645,D4,337.0,0.5,100,106.0
2646,C#2,337.0,0.5,100,106.0
2647,F#2,337.0,0.5,100,106.0
2648,D4,337.5,0.5,100,106.0
2649,C#2,337.5,2.0,100,106.0
2650,F#2,337.5,0.5,100,106.0
2651,C2,337.5,0.5,100,106.0
2652,F#2,338.0,0.5,100,106.0
2653,F#2,338.5,0.5,100,106.0
2654,B5,338.667,667/1000,100,106.0
2655,F#2,339.0,0.5,100,106.0
2656,C#2,339.0,0.5,100,106.0
2657,A5,339.333,667/1000,100,106.0
2658,C#2,339.5,0.5,100,106.0
2659,F#2,339.5,0.5,100,106.0
2660,C2,339.5,0.5,100,106.0
2661,F#5,340.0,1/10,100,106.0
2662,D4,340.0,1.5,100,106.0
2663,B1,340.0,1.5,100,106.0
2664,C2,340.0,1.0,100,106.0
2665,F#2,340.0,0.5,100,106.0
2666,B3,340.0,4.0,100,106.0
2667,G4,340.0,4.0,100,106.0
2668,E5,340.1,1/10,100,106.0
2669,D5,340.2,1/10,100,106.0
2670,B4,340.3,1/10,100,106.0
2671,D5,340.4,3/5,100,106.0
2672,D4,340.5,0.25,100,106.0
2673,F#2,340.5,0.5,100,106.0
2674,D4,340.75,0.25,100,106.0
2675,E5,341.0,0.5,100,106.0
2676,D4,341.0,0.5,100,106.0
2677,C#2,341.0,0.5,100,106.0
2678,F#2,341.0,0.5,100,106.0
2679,E4,341.5,2.5,100,106.0
2680,D4,341.5,0.5,100,106.0
2681,B1,341.5,2.0,100,106.0
2682,F#2,341.5,0.5,100,106.0
2683,C2,341.5,0.5,100,106.0
2684,F#2,342.0,0.5,100,106.0
2685,F#2,342.5,0.5,100,106.0
2686,B4,342.75,0.25,100,106.0
2687,E5,343.0,0.5,100,106.0
2688,F#2,343.0,0.5,100,106.0
2689,C#2,343.0,0.5,100,106.0
2690,F#5,343.5,0.5,100,106.0
2691,B1,343.5,0.5,100,106.0
2692,F#2,343.5,0.5,100,106.0
2693,C2,343.5,0.5,100,106.0
2694,G5,344.0,1.0,100,106.0
2695,F#4,344.0,1.5,100,106.0
2696,A1,344.0,1.5,100,106.0
2697,C2,344.0,1.0,100,106.0
2698,F#2,344.0,0.5,100,106.0
2699,G3,344.0,4.0,100,106.0
2700,B3,344.0,4.0,100,106.0
2701,D4,344.0,4.0,100,106.0
2702,D4,344.5,0.25,100,106.0
2703,F#2,344.5,0.5,100,106.0
2704,D4,344.75,0.25,100,106.0
2705,F#5,345.0,0.5,100,106.0
2706,D4,345.0,0.5,100,106.0
2707,C#2,345.0,0.5,100,106.0
2708,F#2,345.0,0.5,100,106.0
2709,G5,345.5,1.0,100,106.0
2710,E4,345.5,2.5,100,106.0
2711,D4,345.5,0.5,100,106.0
2712,A1,345.5,2.0,100,106.0
2713,F#2,345.5,0.5,100,106.0
2714,C2,345.5,0.5,100,106.0
2715,F#2,346.0,0.5,100,106.0
2716,F#5,346.5,0.5,100,106.0
2717,F#2,346.5,0.5,100,106.0
2718,E5,347.0,0.5,100,106.0
2719,F#2,347.0,0.5,100,106.0
2720,C#2,347.0,0.5,100,106.0
2721,A5,347.5,0.5,100,106.0
2722,A1,347.5,0.5,100,106.0
2723,F#2,347.5,0.5,100,106.0
2724,C2,347.5,0.5,100,106.0
2725,A5,348.0,1.0,100,106.0
2726,A1,348.0,1.5,100,106.0
2727,C2,348.0,1.0,100,106.0
2728,F#2,348.0,0.5,100,106.0
2729,G3,348.0,4.0,100,106.0
2730,C#4,348.0,4.0,100,106.0
2731,E4,348.0,4.0,100,106.0
2732,D4,348.5,0.25,100,106.0
2733,B2,348.5,0.5,100,106.0
2734,F#2,348.5,0.5,100,106.0
2735,D4,348.75,0.25,100,106.0
2736,A5,348.875,0.125,100,106.0
2737,B5,349.0,0.5,100,106.0
2738,D4,349.0,0.5,100,106.0
2739,A2,349.0,0.5,100,106.0
2740,C#2,349.0,0.5,100,106.0
2741,F#2,349.0,0.5,100,106.0
2742,A5,349.5,1.5,100,106.0
2743,D4,349.5,0.5,100,106.0
2744,A1,349.5,21/20,100,106.0
2745,A2,349.5,0.5,100,106.0
2746,F#2,349.5,0.5,100,106.0
2747,C2,349.5,0.5,100,106.0
2748,F#2,350.0,0.5,100,106.0
2749,F#1,350.5,0.5,100,106.0
2750,B2,350.5,0.5,100,106.0
2751,F#2,350.5,0.5,100,106.0
2752,B5,351.0,0.25,100,106.0
2753,A1,351.0,0.5,100,106.0
2754,A2,351.0,0.5,100,106.0
2755,F#2,351.0,0.5,100,106.0
2756,C#2,351.0,0.5,100,106.0
2757,F#5,351.5,0.5,100,106.0
2758,E2,351.5,0.5,100,106.0
2759,A2,351.5,0.5,100,106.0
2760,F#2,351.5,0.5,100,106.0
2761,C2,351.5,0.5,100,106.0
2762,F#5,352.0,1.0,100,106.0
2763,D2,352.0,1.5,100,106.0
2764,C#3,352.0,2.0,100,106.0
2765,C2,352.0,1.0,100,106.0
2766,F#2,352.0,0.5,100,106.0
2767,B3,352.0,4.0,100,106.0
2768,D4,352.0,4.0,100,106.0
2769,F#4,352.0,4.0,100,106.0
2770,D4,352.5,0.25,100,106.0
2771,F#2,352.5,0.5,100,106.0
2772,D4,352.75,0.25,100,106.0
2773,E5,353.0,0.5,100,106.0
2774,D4,353.0,0.5,100,106.0
2775,E2,353.0,0.5,114,106.0
2776,F#2,353.0,0.5,114,106.0
2777,D5,353.5,1.0,100,106.0
2778,D4,353.5,0.5,100,106.0
2779,D2,353.5,1.0,100,106.0
2780,F#2,353.5,0.5,100,106.0
2781,C2,353.5,0.5,100,106.0
2782,F#2,354.0,0.5,100,106.0
2783,B4,354.5,0.5,100,106.0
2784,A1,354.5,0.5,100,106.0
2785,F#2,354.5,0.5,100,106.0
2786,D5,355.0,0.5,100,106.0
2787,B1,355.0,0.5,100,106.0
2788,E2,355.0,0.5,114,106.0
2789,F#2,355.0,0.5,114,106.0
2790,F#5,355.5,0.5,100,106.0
2791,F#1,355.5,0.5,100,106.0
2792,F#2,355.5,0.5,100,106.0
2793,C2,355.5,0.5,100,106.0
2794,F#5,356.0,0.5,100,106.0
2795,D4,356.0,1.5,100,106.0
2796,F#1,356.0,1.5,100,106.0
2797,C2,356.0,1.0,100,106.0
2798,F#2,356.0,0.5,100,106.0
2799,B3,356.0,4.0,100,106.0
2800,G4,356.0,4.0,100,106.0
2801,E5,356.5,0.5,100,106.0
2802,D4,356.5,0.25,100,106.0
2803,F#2,356.5,0.5,100,106.0
2804,D4,356.75,0.25,100,106.0
2805,D5,357.0,0.5,100,106.0
2806,D4,357.0,0.5,100,106.0
2807,E2,357.0,0.5,114,106.0
2808,F#2,357.0,0.5,114,106.0
2809,E5,357.5,1.0,100,106.0
2810,E4,357.5,2.5,100,106.0
2811,D4,357.5,0.5,100,106.0
2812,F#1,357.5,1.0,100,106.0
2813,F#2,357.5,0.5,100,106.0
2814,C2,357.5,0.5,100,106.0
2815,F#2,358.0,0.5,100,106.0
2816,F#5,358.5,0.5,100,106.0
2817,A1,358.5,0.5,100,106.0
2818,F#2,358.5,0.5,100,106.0
2819,B1,359.0,0.5,100,106.0
2820,E2,359.0,0.5,114,106.0
2821,F#2,359.0,0.5,114,106.0
2822,F#5,359.5,0.5,100,106.0
2823,E2,359.5,0.5,100,106.0
2824,F#2,359.5,0.5,100,106.0
2825,C2,359.5,0.5,100,106.0
2826,F#5,360.0,1.0,100,106.0
2827,F#4,360.0,2.0,100,106.0
2828,E2,360.0,1.5,100,106.0
2829,C2,360.0,1.0,100,106.0
2830,F#2,360.0,0.5,100,106.0
2831,B3,360.0,4.0,100,106.0
2832,D4,360.0,4.0,100,106.0
2833,D4,360.5,0.25,100,106.0
2834,F#2,360.5,0.5,100,106.0
2835,D4,360.75,0.25,100,106.0
2836,D5,361.0,0.5,100,106.0
2837,D4,361.0,0.5,100,106.0
2838,E2,361.0,0.5,114,106.0
2839,F#2,361.0,0.5,114,106.0
2840,D5,361.5,1.0,100,106.0
2841,D4,361.5,0.5,100,106.0
2842,E2,361.5,1.0,100,106.0
2843,F#2,361.5,0.5,100,106.0
2844,C2,361.5,0.5,100,106.0
2845,E4,362.0,2.0,100,106.0
2846,F#2,362.0,0.5,100,106.0
2847,B4,362.5,0.5,100,106.0
2848,A1,362.5,0.5,100,106.0
2849,F#2,362.5,0.5,100,106.0
2850,D5,363.0,0.5,100,106.0
2851,B1,363.0,0.5,100,106.0
2852,E2,363.0,0.5,114,106.0
2853,F#2,363.0,0.5,114,106.0
2854,E5,363.5,0.5,100,106.0
2855,A1,363.5,0.5,100,106.0
2856,F#2,363.5,0.5,100,106.0
2857,C2,363.5,0.5,100,106.0
2858,E5,364.0,0.5,100,106.0
2859,F#4,364.0,1.0,100,106.0
2860,A1,364.0,1.5,100,106.0
2861,C2,364.0,1.0,100,106.0
2862,F#2,364.0,0.5,100,106.0
2863,F#5,364.5,0.5,100,106.0
2864,A4,364.5,0.5,100,106.0
2865,F#2,364.5,0.5,100,106.0
2866,E4,365.0,0.5,100,106.0
2867,C#5,365.0,0.5,100,106.0
2868,E2,365.0,0.5,114,106.0
2869,F#2,365.0,0.5,114,106.0
2870,D4,365.5,2.0,100,106.0
2871,E5,365.5,2.5,100,106.0
2872,A1,365.5,1.0,100,106.0
2873,F#2,365.5,0.5,100,106.0
2874,C2,365.5,0.5,100,106.0
2875,F#2,366.0,0.5,100,106.0
2876,A4,366.5,0.5,100,106.0
2877,A1,366.5,0.5,100,106.0
2878,F#2,366.5,0.5,100,106.0
2879,B4,367.0,0.5,100,106.0
2880,B1,367.0,0.5,100,106.0
2881,E2,367.0,0.5,114,106.0
2882,F#2,367.0,0.5,114,106.0
2883,F#5,367.5,0.5,100,106.0
2884,F#4,367.5,0.5,100,106.0
2885,D2,367.5,0.5,100,106.0
2886,F#2,367.5,0.5,100,106.0
2887,C2,367.5,0.5,100,106.0
2888,F#5,368.0,1.0,100,106.0
2889,F#4,368.0,0.5,100,106.0
2890,D2,368.0,1.5,100,106.0
2891,C2,368.0,1.0,100,106.0
2892,F#2,368.0,0.5,100,106.0
2893,E4,368.5,0.5,100,106.0
2894,A4,368.5,0.5,100,106.0
2895,F#2,368.5,0.5,100,106.0
2896,E5,369.0,0.5,100,106.0
2897,D4,369.0,0.5,100,106.0
2898,D5,369.0,0.5,100,106.0
2899,E2,369.0,0.5,114,106.0
2900,F#2,369.0,0.5,114,106.0
2901,D5,369.5,1.0,100,106.0
2902,E4,369.5,1.0,100,106.0
2903,F#5,369.5,2.5,100,106.0
2904,D2,369.5,1.0,100,106.0
2905,F#2,369.5,0.5,100,106.0
2906,C2,369.5,0.5,100,106.0
2907,F#2,370.0,0.5,100,106.0
2908,B4,370.5,0.5,100,106.0
2909,F#4,370.5,0.5,100,106.0
2910,A1,370.5,0.5,100,106.0
2911,F#2,370.5,0.5,100,106.0
2912,D5,371.0,0.5,100,106.0
2913,B1,371.0,0.5,100,106.0
2914,E2,371.0,0.5,114,106.0
2915,F#2,371.0,0.5,114,106.0
2916,F#5,371.5,0.5,100,106.0
2917,F#4,371.5,0.5,100,106.0
2918,F#2,371.5,0.5,100,106.0
2919,F#2,371.5,0.5,100,106.0
2920,C2,371.5,0.5,100,106.0
2921,F#5,372.0,0.5,100,106.0
2922,F#4,372.0,1.0,100,106.0
2923,F#2,372.0,1.5,100,106.0
2924,C2,372.0,1.0,100,106.0
2925,F#2,372.0,0.5,100,106.0
2926,E5,372.5,0.5,100,106.0
2927,G4,372.5,0.5,100,106.0
2928,F#2,372.5,0.5,100,106.0
2929,D5,373.0,0.5,100,106.0
2930,E4,373.0,0.5,100,106.0
2931,B4,373.0,0.5,100,106.0
2932,E2,373.0,0.5,114,106.0
2933,F#2,373.0,0.5,114,106.0
2934,E5,373.5,1.0,100,106.0
2935,D4,373.5,1.5,100,106.0
2936,E5,373.5,2.5,100,106.0
2937,F#2,373.5,1.25,100,106.0
2938,F#2,373.5,0.5,100,106.0
2939,C2,373.5,0.5,100,106.0
2940,F#2,374.0,0.5,100,106.0
2941,F#5,374.5,0.5,100,106.0
2942,F#2,374.5,0.5,100,106.0
2943,F#2,374.75,0.25,100,106.0
2944,D4,375.0,0.5,100,106.0
2945,A1,375.0,0.5,100,106.0
2946,E2,375.0,0.5,114,106.0
2947,F#2,375.0,0.5,114,106.0
2948,F#5,375.5,0.25,100,106.0
2949,E4,375.5,0.5,100,106.0
2950,B1,375.5,0.5,100,106.0
2951,F#2,375.5,0.5,100,106.0
2952,C2,375.5,0.5,100,106.0
2953,G5,375.75,0.25,100,106.0
2954,A5,376.0,0.5,100,106.0
2955,E4,376.0,0.5,100,106.0
2956,E2,376.0,1.5,100,106.0
2957,C#3,376.0,2.0,100,106.0
2958,C2,376.0,1.0,100,106.0
2959,F#2,376.0,0.5,100,106.0
2960,G5,376.5,0.5,100,106.0
2961,F#4,376.5,1.0,100,106.0
2962,G4,376.5,0.5,100,106.0
2963,F#2,376.5,0.25,100,106.0
2964,F#2,376.75,0.25,100,106.0
2965,F#5,377.0,0.5,100,106.0
2966,B4,377.0,0.5,100,106.0
2967,F#2,377.0,0.5,100,106.0
2968,C#2,377.0,0.5,100,106.0
2969,D5,377.5,1.0,100,106.0
2970,A4,377.5,2.0,100,106.0
2971,E5,377.5,2.5,100,106.0
2972,E2,377.5,1.0,100,106.0
2973,F#2,377.5,0.5,100,106.0
2974,C2,377.5,0.5,100,106.0
2975,A5,378.5,0.5,100,106.0
2976,A1,378.5,0.5,100,106.0
2977,F#2,378.5,0.5,100,106.0
2978,A5,378.875,0.125,100,106.0
2979,B5,379.0,0.5,100,106.0
2980,B1,379.0,0.5,100,106.0
2981,F#2,379.0,0.5,100,106.0
2982,C#2,379.0,0.5,100,106.0
2983,A5,379.5,0.5,100,106.0
2984,F#4,379.5,0.5,100,106.0
2985,A1,379.5,0.5,100,106.0
2986,F#2,379.5,0.5,100,106.0
2987,C2,379.5,0.5,100,106.0
2988,A5,380.0,2.0,100,106.0
2989,F#4,380.0,1.0,100,106.0
2990,A1,380.0,1.5,100,106.0
2991,F#2,380.0,0.5,100,106.0
2992,C2,380.0,1.0,100,106.0
2993,A4,380.5,0.5,100,106.0
2994,F#2,380.5,0.25,100,106.0
2995,F#2,380.75,0.25,100,106.0
2996,E4,381.0,0.5,100,106.0
2997,C#5,381.0,0.5,100,106.0
2998,F#2,381.0,0.5,100,106.0
2999,C#2,381.0,0.5,100,106.0
3000,D4,381.5,2.0,100,106.0
3001,E5,381.5,2.5,100,106.0
3002,A1,381.5,0.5,100,106.0
3003,F#2,381.5,0.5,100,106.0
3004,C2,381.5,0.5,100,106.0
3005,A5,381.875,0.125,100,106.0
3006,B5,382.0,0.5,100,106.0
3007,A1,382.0,2.0,100,106.0
3008,A5,382.5,0.5,100,106.0
3009,F#2,382.5,0.5,100,106.0
3010,F#5,383.0,167/1000,100,106.0
3011,F#2,383.0,0.5,100,106.0
3012,C#2,383.0,0.5,100,106.0
3013,E5,383.167,167/1000,100,106.0
3014,D5,383.333,167/1000,100,106.0
3015,B4,383.5,0.5,100,106.0
3016,F#4,383.5,0.5,100,106.0
3017,B-2,383.5,0.5,100,106.0
3018,C2,383.5,0.5,100,106.0
3019,F#5,384.0,1.0,100,106.0
3020,F#4,384.0,0.5,100,106.0
3021,D2,384.0,1.5,100,106.0
3022,F#2,384.0,0.5,100,106.0
3023,C2,384.0,1.0,100,106.0
3024,E4,384.5,0.5,100,106.0
3025,A4,384.5,0.5,100,106.0
3026,F#2,384.5,0.25,100,106.0
3027,F#2,384.75,0.25,100,106.0
3028,E5,385.0,0.5,100,106.0
3029,D4,385.0,0.5,100,106.0
3030,D5,385.0,0.5,100,106.0
3031,F#2,385.0,0.5,100,106.0
3032,C#2,385.0,0.5,100,106.0
3033,D5,385.5,1.0,100,106.0
3034,E4,385.5,1.0,100,106.0
3035,F#5,385.5,2.5,100,106.0
3036,D2,385.5,1.0,100,106.0
3037,F#2,385.5,0.5,100,106.0
3038,C2,385.5,0.5,100,106.0
3039,B4,386.5,0.5,100,106.0
3040,F#4,386.5,0.5,100,106.0
3041,A1,386.5,0.5,100,106.0
3042,F#2,386.5,0.5,100,106.0
3043,D5,387.0,0.5,100,106.0
3044,B1,387.0,0.5,100,106.0
3045,F#2,387.0,0.5,100,106.0
3046,C#2,387.0,0.5,100,106.0
3047,F#5,387.5,0.5,100,106.0
3048,F#4,387.5,0.25,100,106.0
3049,F#1,387.5,0.5,100,106.0
3050,C2,387.5,0.5,100,106.0
3051,G4,387.75,0.25,100,106.0
3052,F#5,388.0,0.5,100,106.0
3053,A4,388.0,0.5,100,106.0
3054,F#1,388.0,1.5,100,106.0
3055,F#2,388.0,0.5,100,106.0
3056,C2,388.0,1.0,100,106.0
3057,G3,388.0,4.0,100,106.0
3058,C#4,388.0,4.0,100,106.0
3059,E4,388.0,4.0,100,106.0
3060,E5,388.5,0.5,100,106.0
3061,G4,388.5,0.5,100,106.0
3062,G4,388.5,0.5,100,106.0
3063,F#2,388.5,0.25,100,106.0
3064,F#2,388.75,0.25,100,106.0
3065,D5,389.0,0.5,100,106.0
3066,F#4,389.0,0.5,100,106.0
3067,B4,389.0,0.5,100,106.0
3068,F#2,389.0,0.5,100,106.0
3069,C#2,389.0,0.5,100,106.0
3070,E5,389.5,1.0,100,106.0
3071,D4,389.5,2.5,100,106.0
3072,E5,389.5,2.5,100,106.0
3073,F#1,389.5,1.0,100,106.0
3074,F#2,389.5,0.5,100,106.0
3075,C2,389.5,0.5,100,106.0
3076,F#5,390.5,0.5,100,106.0
3077,A1,390.5,0.5,100,106.0
3078,F#2,390.5,0.5,100,106.0
3079,B1,391.0,0.5,100,106.0
3080,F#2,391.0,0.5,100,106.0
3081,C#2,391.0,0.5,100,106.0
3082,F#5,391.5,0.5,100,106.0
3083,E2,391.5,0.5,100,106.0
3084,B-2,391.5,0.5,100,106.0
3085,C2,391.5,0.5,100,106.0
3086,F#5,392.0,1.0,100,106.0
3087,E2,392.0,1.5,100,106.0
3088,F#2,392.0,0.5,100,106.0
3089,C2,392.0,1.0,100,106.0
3090,A3,392.0,4.0,100,106.0
3091,B3,392.0,4.0,100,106.0
3092,D4,392.0,4.0,100,106.0
3093,F#4,392.0,4.0,100,106.0
3094,G4,392.5,0.5,100,106.0
3095,F#2,392.5,0.25,100,106.0
3096,F#2,392.75,0.25,100,106.0
3097,E5,393.0,0.5,100,106.0
3098,B4,393.0,0.5,100,106.0
3099,F#2,393.0,0.5,100,106.0
3100,C#2,393.0,0.5,100,106.0
3101,D5,393.5,1.0,100,106.0
3102,E5,393.5,2.5,100,106.0
3103,E2,393.5,1.0,100,106.0
3104,F#2,393.5,0.5,100,106.0
3105,C2,393.5,0.5,100,106.0
3106,B4,394.5,0.5,100,106.0
3107,A1,394.5,0.5,100,106.0
3108,F#2,394.5,0.5,100,106.0
3109,B5,395.0,0.5,100,106.0
3110,B1,395.0,0.5,100,106.0
3111,F#2,395.0,0.5,100,106.0
3112,C#2,395.0,0.5,100,106.0
3113,A5,395.5,0.5,100,106.0
3114,A1,395.5,0.5,100,106.0
3115,C2,395.5,0.5,100,106.0
3116,A5,396.0,1.875,100,106.0
3117,D4,396.0,1.5,100,106.0
3118,F#4,396.0,1.0,100,106.0
3119,A1,396.0,1.5,100,106.0
3120,F#2,396.0,0.5,100,106.0
3121,C2,396.0,1.0,100,106.0
3122,B3,396.0,4.0,100,106.0
3123,G4,396.0,4.0,100,106.0
3124,D4,396.0,3.5,100,106.0
3125,A3,396.0,3.5,100,106.0
3126,F#3,396.0,3.5,100,106.0
3127,F#2,396.5,0.25,100,106.0
3128,F#2,396.75,0.25,100,106.0
3129,E4,397.0,0.5,100,106.0
3130,F#2,397.0,0.5,100,106.0
3131,C#2,397.0,0.5,100,106.0
3132,E4,397.5,2.5,100,106.0
3133,D4,397.5,2.0,100,106.0
3134,A1,397.5,1.0,100,106.0
3135,F#2,397.5,0.5,100,106.0
3136,C2,397.5,0.5,100,106.0
3137,A5,397.75,0.25,100,106.0
3138,G5,397.875,0.125,100,106.0
3139,F#5,398.0,0.5,100,106.0
3140,G5,398.5,0.5,100,106.0
3141,A1,398.5,0.5,100,106.0
3142,F#2,398.5,0.5,100,106.0
3143,A5,399.0,0.25,100,106.0
3144,B1,399.0,0.5,100,106.0
3145,F#2,399.0,0.5,100,106.0
3146,C#2,399.0,0.5,100,106.0
3147,B5,399.25,0.25,100,106.0
3148,F#5,399.5,0.5,100,106.0
3149,F#4,399.5,0.5,100,106.0
3150,D2,399.5,0.5,100,106.0
3151,E4,399.5,0.5,100,106.0
3152,F#3,399.5,0.5,100,106.0
3153,A3,399.5,0.5,100,106.0
3154,C#4,399.5,0.5,100,106.0
3155,B-2,399.5,0.5,100,106.0
3156,C2,399.5,0.5,100,106.0
3157,F#5,400.0,1.0,100,106.0
3158,F#4,400.0,1.5,100,106.0
3159,F#4,400.0,0.5,100,106.0
3160,D2,400.0,1.5,100,106.0
3161,F#2,400.0,0.5,100,106.0
3162,C2,400.0,1.0,100,106.0
3163,G3,400.0,4.0,100,106.0
3164,B3,400.0,4.0,100,106.0
3165,D4,400.0,4.0,100,106.0
3166,E4,400.5,0.5,100,106.0
3167,F#2,400.5,0.25,100,106.0
3168,F#2,400.75,0.25,100,106.0
3169,E5,401.0,0.5,100,106.0
3170,D4,401.0,0.5,100,106.0
3171,F#2,401.0,0.5,100,106.0
3172,C#2,401.0,0.5,100,106.0
3173,D5,401.5,1.0,100,106.0
3174,E4,401.5,2.5,100,106.0
3175,E4,401.5,1.0,100,106.0
3176,D2,401.5,1.0,100,106.0
3177,F#2,401.5,0.5,100,106.0
3178,C2,401.5,0.5,100,106.0
3179,B4,402.5,0.5,100,106.0
3180,F#4,402.5,0.5,100,106.0
3181,A1,402.5,0.5,100,106.0
3182,F#2,402.5,0.5,100,106.0
3183,D5,403.0,0.5,100,106.0
3184,B1,403.0,0.5,100,106.0
3185,F#2,403.0,0.5,100,106.0
3186,C#2,403.0,0.5,100,106.0
3187,F#5,403.5,0.5,100,106.0
3188,F#4,403.5,0.5,100,106.0
3189,F#2,403.5,0.5,100,106.0
3190,C2,403.5,0.5,100,106.0
3191,E4,403.5,3.5,100,106.0
3192,F#3,403.5,3.5,100,106.0
3193,A3,403.5,3.5,100,106.0
3194,C#4,403.5,3.5,100,106.0
3195,F#5,404.0,0.5,100,106.0
3196,F#4,404.0,1.0,100,106.0
3197,F#2,404.0,1.5,100,106.0
3198,F#2,404.0,0.5,100,106.0
3199,C2,404.0,1.0,100,106.0
3200,G3,404.0,4.0,100,106.0
3201,C#4,404.0,4.0,100,106.0
3202,E4,404.0,4.0,100,106.0
3203,E5,404.5,0.5,100,106.0
3204,F#2,404.5,0.25,100,106.0
3205,F#2,404.75,0.25,100,106.0
3206,D5,405.0,0.5,100,106.0
3207,E4,405.0,0.5,100,106.0
3208,F#2,405.0,0.5,100,106.0
3209,C#2,405.0,0.5,100,106.0
3210,E5,405.5,1.0,100,106.0
3211,D4,405.5,1.5,100,106.0
3212,F#2,405.5,1.25,100,106.0
3213,F#2,405.5,0.5,100,106.0
3214,C2,405.5,0.5,100,106.0
3215,F#5,406.5,0.5,100,106.0
3216,F#2,406.5,0.5,100,106.0
3217,F#2,406.75,0.25,100,106.0
3218,A1,407.0,0.5,100,106.0
3219,E4,407.0,0.5,100,106.0
3220,D4,407.0,0.5,100,106.0
3221,G3,407.0,0.5,100,106.0
3222,B3,407.0,0.5,100,106.0
3223,F#2,407.0,0.5,100,106.0
3224,C#2,407.0,0.5,100,106.0
3225,F#5,407.5,0.25,100,106.0
3226,E4,407.5,0.5,100,106.0
3227,B1,407.5,0.5,100,106.0
3228,B-2,407.5,0.5,100,106.0
3229,C2,407.5,0.5,100,106.0
3230,G5,407.75,0.25,100,106.0
3231,A5,408.0,0.5,100,106.0
3232,E4,408.0,0.5,100,106.0
3233,E2,408.0,1.5,100,106.0
3234,F#2,408.0,0.5,100,106.0
3235,C2,408.0,1.0,100,106.0
3236,B3,408.0,4.0,100,106.0
3237,D4,408.0,4.0,100,106.0
3238,F#4,408.0,4.0,100,106.0
3239,G5,408.5,0.5,100,106.0
3240,F#4,408.5,1.0,100,106.0
3241,F#2,408.5,0.25,100,106.0
3242,F#2,408.75,0.25,100,106.0
3243,F#5,409.0,0.5,100,106.0
3244,F#2,409.0,0.5,100,106.0
3245,C#2,409.0,0.5,100,106.0
3246,D5,409.5,1.0,100,106.0
3247,A4,409.5,2.0,100,106.0
3248,E2,409.5,1.0,100,106.0
3249,F#2,409.5,0.5,100,106.0
3250,C2,409.5,0.5,100,106.0
3251,A5,410.5,0.5,100,106.0
3252,A1,410.5,0.5,100,106.0
3253,F#2,410.5,0.5,100,106.0
3254,B5,411.0,0.5,100,106.0
3255,B1,411.0,0.5,100,106.0
3256,E4,411.0,3.5,100,106.0
3257,D4,411.0,3.5,100,106.0
3258,G3,411.0,3.5,100,106.0
3259,B3,411.0,3.5,100,106.0
3260,F#2,411.0,0.5,100,106.0
3261,C#2,411.0,0.5,100,106.0
3262,A5,411.5,0.5,100,106.0
3263,F#4,411.5,0.5,100,106.0
3264,A1,411.5,0.5,100,106.0
3265,C2,411.5,0.5,100,106.0
3266,A5,412.0,2.0,100,106.0
3267,D4,412.0,1.5,100,106.0
3268,F#4,412.0,1.0,100,106.0
3269,A1,412.0,1.5,100,106.0
3270,F#2,412.0,0.5,100,106.0
3271,C2,412.0,1.0,100,106.0
3272,B3,412.0,4.0,100,106.0
3273,G4,412.0,4.0,100,106.0
3274,F#2,412.5,0.25,100,106.0
3275,F#2,412.75,0.25,100,106.0
3276,E4,413.0,0.5,100,106.0
3277,F#2,413.0,0.5,100,106.0
3278,C#2,413.0,0.5,100,106.0
3279,E4,413.5,2.5,100,106.0
3280,D4,413.5,2.0,100,106.0
3281,A1,413.5,0.5,100,106.0
3282,F#2,413.5,0.5,100,106.0
3283,C2,413.5,0.5,100,106.0
3284,C6,414.0,1.5,100,106.0
3285,A1,414.0,2.0,100,106.0
3286,F#2,414.5,0.5,100,106.0
3287,G3,414.5,0.5,100,106.0
3288,B3,414.5,0.5,100,106.0
3289,C#4,414.5,0.5,100,106.0
3290,E4,414.5,0.5,100,106.0
3291,F#2,415.0,0.5,100,106.0
3292,C#2,415.0,0.5,100,106.0
3293,A5,415.5,0.25,100,106.0
3294,F#4,415.5,0.5,100,106.0
3295,B-2,415.5,0.5,100,106.0
3296,C2,415.5,0.5,100,106.0
3297,G#5,415.75,0.25,100,106.0
3298,G5,416.0,0.25,100,106.0
3299,F#4,416.0,2.0,100,106.0
3300,F#4,416.0,0.5,100,106.0
3301,D2,416.0,1.5,100,106.0
3302,C#3,416.0,2.0,100,106.0
3303,C2,416.0,1.0,100,106.0
3304,F#2,416.0,0.5,100,106.0
3305,B3,416.0,4.0,100,106.0
3306,D4,416.0,4.0,100,106.0
3307,F5,416.25,0.25,100,106.0
3308,D5,416.5,0.25,100,106.0
3309,E4,416.5,0.5,100,106.0
3310,F#2,416.5,0.25,100,106.0
3311,C5,416.75,0.25,100,106.0
3312,F#2,416.75,0.25,100,106.0
3313,A4,417.0,0.25,100,106.0
3314,D4,417.0,0.5,100,106.0
3315,F#2,417.0,0.5,100,106.0
3316,C#2,417.0,0.5,100,106.0
3317,G#4,417.25,0.25,100,106.0
3318,G4,417.5,0.25,100,106.0
3319,E4,417.5,1.0,100,106.0
3320,D2,417.5,0.5,100,106.0
3321,F#2,417.5,0.5,100,106.0
3322,C2,417.5,0.5,100,106.0
3323,F4,417.75,0.25,100,106.0
3324,D5,418.0,0.25,100,106.0
3325,E4,418.0,2.0,100,106.0
3326,F#5,418.25,1.25,100,106.0
3327,F#2,418.5,0.5,100,106.0
3328,G3,418.5,3.5,100,106.0
3329,B3,418.5,3.5,100,106.0
3330,C#4,418.5,3.5,100,106.0
3331,E4,418.5,3.5,100,106.0
3332,A1,419.0,0.5,100,106.0
3333,F#2,419.0,0.5,100,106.0
3334,C#2,419.0,0.5,100,106.0
3335,B4,419.5,0.25,100,106.0
3336,F#4,419.5,0.25,100,106.0
3337,B1,419.5,0.5,100,106.0
3338,F#2,419.5,0.5,100,106.0
3339,C2,419.5,0.5,100,106.0
3340,A4,419.75,0.25,100,106.0
3341,G4,419.75,0.25,100,106.0
3342,D5,420.0,1.0,100,106.0
3343,A4,420.0,0.5,100,106.0
3344,D2,420.0,1.5,100,106.0
3345,F#2,420.0,0.5,100,106.0
3346,C2,420.0,1.0,100,106.0
3347,F#4,420.0,3.5,100,106.0
3348,D4,420.0,3.5,100,106.0
3349,A3,420.0,3.5,100,106.0
3350,G4,420.5,0.5,100,106.0
3351,F#2,420.5,0.25,100,106.0
3352,F#2,420.75,0.25,100,106.0
3353,B4,421.0,0.25,100,106.0
3354,F#4,421.0,0.5,100,106.0
3355,F#2,421.0,0.5,100,106.0
3356,C#2,421.0,0.5,100,106.0
3357,A4,421.25,0.25,100,106.0
3358,D5,421.5,1.5,100,106.0
3359,D4,421.5,2.0,100,106.0
3360,D2,421.5,0.5,100,106.0
3361,F#2,421.5,0.5,100,106.0
3362,C2,421.5,0.5,100,106.0
3363,F#3,422.0,0.5,100,106.0
3364,A3,422.0,0.5,100,106.0
3365,D4,422.0,0.5,100,106.0
3366,F#2,422.5,0.5,100,106.0
3367,D5,423.0,0.75,100,106.0
3368,A1,423.0,0.5,100,106.0
3369,F#2,423.0,0.5,100,106.0
3370,C#2,423.0,0.5,100,106.0
3371,B1,423.5,0.5,100,106.0
3372,A3,423.5,0.5,100,106.0
3373,F#4,423.5,0.5,100,106.0
3374,C#4,423.5,0.5,100,106.0
3375,E4,423.5,0.5,100,106.0
3376,B-2,423.5,0.5,100,106.0
3377,C2,423.5,0.5,100,106.0
3378,C5,423.75,0.25,100,106.0
3379,C5,424.0,0.5,100,106.0
3380,D2,424.0,1.5,100,106.0
3381,C2,424.0,1.0,100,106.0
3382,F#2,424.0,0.5,100,106.0
3383,B4,424.5,0.25,100,106.0
3384,F#2,424.5,0.25,100,106.0
3385,A4,424.75,0.25,100,106.0
3386,F#2,424.75,0.25,100,106.0
3387,C5,425.0,0.5,100,106.0
3388,F#2,425.0,0.5,100,106.0
3389,C#2,425.0,0.5,100,106.0
3390,B4,425.5,0.25,100,106.0
3391,D2,425.5,1.25,100,106.0
3392,F#2,425.5,0.5,100,106.0
3393,C2,425.5,0.5,100,106.0
3394,A4,425.75,0.75,100,106.0
3395,F#3,426.0,3.5,100,106.0
3396,A3,426.0,3.5,100,106.0
3397,D4,426.0,3.5,100,106.0
3398,G#4,426.5,167/1000,100,106.0
3399,F#2,426.5,0.5,100,106.0
3400,G4,426.667,167/1000,100,106.0
3401,D2,426.75,0.25,100,106.0
3402,F4,426.833,167/1000,100,106.0
3403,G4,427.0,0.25,100,106.0
3404,A1,427.0,0.5,100,106.0
3405,F#2,427.0,0.5,100,106.0
3406,C#2,427.0,0.5,100,106.0
3407,F4,427.25,0.25,100,106.0
3408,G4,427.5,0.25,100,106.0
3409,B1,427.5,0.5,100,106.0
3410,A3,427.5,3.5,100,106.0
3411,F#4,427.5,3.5,100,106.0
3412,C#4,427.5,3.5,100,106.0
3413,E4,427.5,3.5,100,106.0
3414,F#2,427.5,0.5,100,106.0
3415,C2,427.5,0.5,100,106.0
3416,F4,427.75,0.25,100,106.0
3417,G#4,428.0,167/1000,100,106.0
3418,D2,428.0,1.5,100,106.0
3419,F#2,428.0,0.5,100,106.0
3420,C2,428.0,1.0,100,106.0
3421,F#3,428.0,4.0,100,106.0
3422,A3,428.0,4.0,100,106.0
3423,D4,428.0,4.0,100,106.0
3424,G4,428.167,167/1000,100,106.0
3425,F4,428.333,167/1000,100,106.0
3426,D4,428.5,0.25,100,106.0
3427,F#2,428.5,0.25,100,106.0
3428,G4,428.75,0.25,100,106.0
3429,F#2,428.75,0.25,100,106.0
3430,F4,429.0,0.25,100,106.0
3431,F#2,429.0,0.5,100,106.0
3432,C#2,429.0,0.5,100,106.0
3433,F#4,429.25,0.25,100,106.0
3434,D4,429.5,1.25,100,106.0
3435,D2,429.5,1.5,100,106.0
3436,F#3,429.5,0.5,100,106.0
3437,E4,429.5,0.5,100,106.0
3438,A3,429.5,0.5,100,106.0
3439,C#4,429.5,0.5,100,106.0
3440,F#2,429.5,0.5,100,106.0
3441,C2,429.5,0.5,100,106.0
3442,F#2,430.5,0.5,100,106.0
3443,A3,430.75,0.25,100,106.0
3444,B3,431.0,0.25,100,106.0
3445,A1,431.0,0.5,100,106.0
3446,B3,431.0,0.5,100,106.0
3447,D4,431.0,0.5,100,106.0
3448,E4,431.0,0.5,100,106.0
3449,G4,431.0,0.5,100,106.0
3450,F#2,431.0,0.5,100,106.0
3451,C#2,431.0,0.5,100,106.0
3452,D4,431.25,0.25,100,106.0
3453,E4,431.5,0.25,100,106.0
3454,B1,431.5,0.5,100,106.0
3455,B-2,431.5,0.5,100,106.0
3456,C2,431.5,0.5,100,106.0
3457,D4,431.75,0.25,100,106.0
3458,D4,432.0,1.0,100,106.0
3459,D2,432.0,1.5,100,106.0
3460,C2,432.0,1.0,100,106.0
3461,F#2,432.0,0.5,100,106.0
3462,G3,432.0,4.0,100,106.0
3463,A3,432.0,4.0,100,106.0
3464,D4,432.0,4.0,100,106.0
3465,F#2,432.5,0.25,100,106.0
3466,F#2,432.75,0.25,100,106.0
3467,F#2,433.0,0.5,100,106.0
3468,C#2,433.0,0.5,100,106.0
3469,D2,433.5,0.5,100,106.0
3470,F#2,433.5,0.5,100,106.0
3471,C2,433.5,0.5,100,106.0
3472,F4,433.75,0.25,100,106.0
3473,F4,434.0,0.25,100,106.0
3474,F#3,434.0,4.0,100,106.0
3475,E4,434.0,4.0,100,106.0
3476,A3,434.0,4.0,100,106.0
3477,C#4,434.0,4.0,100,106.0
3478,D4,434.25,0.75,100,106.0
3479,F#2,434.5,0.5,100,106.0
3480,G4,435.0,0.25,100,106.0
3481,A1,435.0,0.5,100,106.0
3482,B3,435.0,3.5,100,106.0
3483,D4,435.0,3.5,100,106.0
3484,E4,435.0,3.5,100,106.0
3485,G4,435.0,3.5,100,106.0
3486,F#2,435.0,0.5,100,106.0
3487,C#2,435.0,0.5,100,106.0
3488,D4,435.25,0.5,100,106.0
3489,B1,435.5,0.5,100,106.0
3490,F#2,435.5,0.5,100,106.0
3491,C2,435.5,0.5,100,106.0
3492,G#4,435.75,0.25,100,106.0
3493,G#4,436.0,0.25,100,106.0
3494,D2,436.0,1.5,100,106.0
3495,F#2,436.0,0.5,100,106.0
3496,C2,436.0,1.0,100,106.0
3497,F#3,436.0,4.0,100,106.0
3498,A3,436.0,4.0,100,106.0
3499,D4,436.0,4.0,100,106.0
3500,D4,436.25,0.5,100,106.0
3501,F#2,436.5,0.25,100,106.0
3502,A4,436.75,0.5,100,106.0
3503,F#2,436.75,0.25,100,106.0
3504,F#2,437.0,0.5,100,106.0
3505,C#2,437.0,0.5,100,106.0
3506,D5,437.25,0.75,100,106.0
3507,D2,437.5,0.5,100,106.0
3508,F#2,437.5,0.5,100,106.0
3509,C2,437.5,0.5,100,106.0
3510,A4,438.0,0.25,100,106.0
3511,E3,438.0,3.5,100,106.0
3512,G3,438.0,3.5,100,106.0
3513,B3,438.0,3.5,100,106.0
3514,D4,438.0,3.5,100,106.0
3515,D5,438.25,0.75,100,106.0
3516,F#2,438.5,0.5,100,106.0
3517,G4,438.5,0.5,100,106.0
3518,B3,438.5,0.5,100,106.0
3519,C#4,438.5,0.5,100,106.0
3520,E4,438.5,0.5,100,106.0
3521,G#4,439.0,83/1000,100,106.0
3522,A1,439.0,0.5,100,106.0
3523,F#2,439.0,0.5,100,106.0
3524,C#2,439.0,0.5,100,106.0
3525,G4,439.083,83/1000,100,106.0
3526,F4,439.167,83/1000,100,106.0
3527,G4,439.5,0.25,100,106.0
3528,B1,439.5,0.5,100,106.0
3529,B-2,439.5,0.5,100,106.0
3530,C2,439.5,0.5,100,106.0
3531,A4,439.75,0.25,100,106.0
3532,F4,440.0,0.25,100,106.0
3533,D2,440.0,1.5,100,106.0
3534,C2,440.0,1.0,100,106.0
3535,F#2,440.0,0.5,100,106.0
3536,G3,440.0,4.0,100,106.0
3537,A3,440.0,4.0,100,106.0
3538,D4,440.0,4.0,100,106.0
3539,F#4,440.25,0.25,100,106.0
3540,D5,440.5,1.0,100,106.0
3541,F#2,440.5,0.25,100,106.0
3542,F#2,440.75,0.25,100,106.0
3543,F#2,441.0,0.5,100,106.0
3544,C#2,441.0,0.5,100,106.0
3545,B4,441.5,0.25,100,106.0
3546,D2,441.5,1.25,100,106.0
3547,G3,441.5,0.5,100,106.0
3548,B3,441.5,0.5,100,106.0
3549,C#4,441.5,0.5,100,106.0
3550,E4,441.5,0.5,100,106.0
3551,F#2,441.5,0.5,100,106.0
3552,C2,441.5,0.5,100,106.0
3553,A4,441.75,0.25,100,106.0
3554,D5,442.0,1.0,100,106.0
3555,F#2,442.5,0.5,100,106.0
3556,G4,442.5,3.5,100,106.0
3557,B3,442.5,3.5,100,106.0
3558,C#4,442.5,3.5,100,106.0
3559,E4,442.5,3.5,100,106.0
3560,D2,442.75,0.25,100,106.0
3561,B4,443.0,0.25,100,106.0
3562,A1,443.0,0.5,100,106.0
3563,F#2,443.0,0.5,100,106.0
3564,C#2,443.0,0.5,100,106.0
3565,A4,443.25,0.25,100,106.0
3566,D5,443.5,0.5,100,106.0
3567,B1,443.5,0.5,100,106.0
3568,F#2,443.5,0.5,100,106.0
3569,C2,443.5,0.5,100,106.0
3570,D5,444.0,0.5,100,106.0
3571,D2,444.0,1.5,100,106.0
3572,F#2,444.0,0.5,100,106.0
3573,C2,444.0,1.0,100,106.0
3574,F#3,444.0,4.0,100,106.0
3575,A3,444.0,4.0,100,106.0
3576,D4,444.0,4.0,100,106.0
3577,E5,444.5,0.5,100,106.0
3578,F#2,444.5,0.25,100,106.0
3579,F#2,444.75,0.25,100,106.0
3580,F#2,445.0,0.5,100,106.0
3581,C#2,445.0,0.5,100,106.0
3582,D2,445.5,1.5,100,106.0
3583,F#2,445.5,0.5,100,106.0
3584,C2,445.5,0.5,100,106.0
3585,B4,445.75,0.25,100,106.0
3586,A4,446.0,0.25,100,106.0
3587,A4,446.0,0.5,100,106.0
3588,D4,446.0,0.5,100,106.0
3589,F#4,446.0,0.5,100,106.0
3590,G3,446.0,4.0,100,106.0
3591,B3,446.0,4.0,100,106.0
3592,C#4,446.0,4.0,100,106.0
3593,E4,446.0,4.0,100,106.0
3594,B4,446.25,0.25,100,106.0
3595,D5,446.5,0.25,100,106.0
3596,F#2,446.5,0.5,100,106.0
3597,E5,446.75,0.25,100,106.0
3598,F5,447.0,0.25,100,106.0
3599,A1,447.0,0.5,100,106.0
3600,F#2,447.0,0.5,100,106.0
3601,C#2,447.0,0.5,100,106.0
3602,F#5,447.25,0.25,100,106.0
3603,G5,447.5,0.25,100,106.0
3604,B1,447.5,0.5,100,106.0
3605,B-2,447.5,0.5,100,106.0
3606,C2,447.5,0.5,100,106.0
3607,G#5,447.75,0.25,100,106.0
3608,A5,448.0,0.25,100,106.0
3609,D2,448.0,1.5,100,106.0
3610,C2,448.0,1.0,100,106.0
3611,F#2,448.0,0.5,100,106.0
3612,G3,448.0,4.0,100,106.0
3613,A3,448.0,4.0,100,106.0
3614,D4,448.0,4.0,100,106.0
3615,C6,448.25,0.75,100,106.0
3616,F#2,448.5,0.25,100,106.0
3617,F#2,448.75,0.25,100,106.0
3618,G#5,449.0,167/1000,100,106.0
3619,F#2,449.0,0.5,100,106.0
3620,C#2,449.0,0.5,100,106.0
3621,G5,449.167,167/1000,100,106.0
3622,F5,449.333,167/1000,100,106.0
3623,G5,449.5,0.25,100,106.0
3624,D2,449.5,0.5,100,106.0
3625,F#2,449.5,0.5,100,106.0
3626,C2,449.5,0.5,100,106.0
3627,A5,449.75,0.25,100,106.0
3628,F5,450.0,0.25,100,106.0
3629,A4,450.0,3.5,100,106.0
3630,D4,450.0,3.5,100,106.0
3631,F#4,450.0,3.5,100,106.0
3632,D4,450.0,3.5,100,106.0
3633,A3,450.0,3.5,100,106.0
3634,F#3,450.0,3.5,100,106.0
3635,F#5,450.25,0.25,100,106.0
3636,D5,450.5,0.25,100,106.0
3637,F#2,450.5,0.5,100,106.0
3638,B4,450.75,0.25,100,106.0
3639,A4,451.0,0.25,100,106.0
3640,A1,451.0,0.5,100,106.0
3641,F#2,451.0,0.5,100,106.0
3642,C#2,451.0,0.5,100,106.0
3643,F#4,451.25,0.25,100,106.0
3644,G#4,451.5,0.25,100,106.0
3645,B1,451.5,0.5,100,106.0
3646,F#2,451.5,0.5,100,106.0
3647,C2,451.5,0.5,100,106.0
3648,F4,451.75,0.25,100,106.0
3649,F#4,452.0,0.25,100,106.0
3650,D2,452.0,1.5,100,106.0
3651,F#2,452.0,0.5,100,106.0
3652,C2,452.0,1.0,100,106.0
3653,F#3,452.0,4.0,100,106.0
3654,A3,452.0,4.0,100,106.0
3655,D4,452.0,4.0,100,106.0
3656,D5,452.25,0.75,100,106.0
3657,F#2,452.5,0.25,100,106.0
3658,F#2,452.75,0.25,100,106.0
3659,B4,453.0,0.25,100,106.0
3660,F#2,453.0,0.5,100,106.0
3661,C#2,453.0,0.5,100,106.0
3662,A4,453.25,0.25,100,106.0
3663,D5,453.5,0.5,100,106.0
3664,D2,453.5,0.5,100,106.0
3665,C#4,453.5,0.5,100,106.0
3666,E4,453.5,0.5,100,106.0
3667,F#4,453.5,0.5,100,106.0
3668,A4,453.5,0.5,100,106.0
3669,E4,453.5,0.5,100,106.0
3670,F#3,453.5,0.5,100,106.0
3671,A3,453.5,0.5,100,106.0
3672,C#4,453.5,0.5,100,106.0
3673,F#2,453.5,0.5,100,106.0
3674,C2,453.5,0.5,100,106.0
3675,F5,454.0,0.5,100,106.0
3676,F#5,454.5,0.5,100,106.0
3677,F#2,454.5,0.5,100,106.0
3678,A1,455.0,0.5,100,106.0
3679,F#2,455.0,0.5,100,106.0
3680,C#2,455.0,0.5,100,106.0
3681,B1,455.5,0.5,100,106.0
3682,B-2,455.5,0.5,100,106.0
3683,C2,455.5,0.5,100,106.0
3684,D2,456.0,1.5,100,106.0
3685,C2,456.0,1.0,100,106.0
3686,F#2,456.0,0.5,100,106.0
3687,G3,456.0,4.0,100,106.0
3688,A3,456.0,4.0,100,106.0
3689,D4,456.0,4.0,100,106.0
3690,F#2,456.5,0.25,100,106.0
3691,F#2,456.75,0.25,100,106.0
3692,F#2,457.0,0.5,100,106.0
3693,C#2,457.0,0.5,100,106.0
3694,D2,457.5,1.25,100,106.0
3695,E4,457.5,3.5,100,106.0
3696,F#3,457.5,3.5,100,106.0
3697,A3,457.5,3.5,100,106.0
3698,C#4,457.5,3.5,100,106.0
3699,F#2,457.5,0.5,100,106.0
3700,C2,457.5,0.5,100,106.0
3701,C#4,458.0,4.0,100,106.0
3702,E4,458.0,4.0,100,106.0
3703,F#4,458.0,4.0,100,106.0
3704,A4,458.0,4.0,100,106.0
3705,F#2,458.5,0.5,100,106.0
3706,D2,458.75,0.25,100,106.0
3707,A1,459.0,0.5,100,106.0
3708,F#2,459.0,0.5,100,106.0
3709,C#2,459.0,0.5,100,106.0
3710,B1,459.5,0.5,100,106.0
3711,F#2,459.5,0.5,100,106.0
3712,C2,459.5,0.5,100,106.0
3713,D2,460.0,1.5,100,106.0
3714,F#2,460.0,0.5,100,106.0
3715,C2,460.0,1.0,100,106.0
3716,F#3,460.0,4.0,100,106.0
3717,A3,460.0,4.0,100,106.0
3718,D4,460.0,4.0,100,106.0
3719,F#2,460.5,0.25,100,106.0
3720,F#2,460.75,0.25,100,106.0
3721,E4,461.0,0.5,100,106.0
3722,D4,461.0,0.5,100,106.0
3723,G3,461.0,0.5,100,106.0
3724,B3,461.0,0.5,100,106.0
3725,F#2,461.0,0.5,100,106.0
3726,C#2,461.0,0.5,100,106.0
3727,D2,461.5,1.5,100,106.0
3728,F#2,461.5,0.5,100,106.0
3729,C2,461.5,0.5,100,106.0
3730,D4,462.0,1.5,100,106.0
3731,E4,462.0,1.5,100,106.0
3732,G4,462.0,1.5,100,106.0
3733,B4,462.0,1.5,100,106.0
3734,F#2,462.5,0.5,100,106.0
3735,A1,463.0,0.5,100,106.0
3736,F#2,463.0,0.5,100,106.0
3737,C#2,463.0,0.5,100,106.0
3738,B1,463.5,0.5,100,106.0
3739,D4,463.5,2.0,100,106.0
3740,E4,463.5,2.0,100,106.0
3741,G4,463.5,2.0,100,106.0
3742,B4,463.5,2.0,100,106.0
3743,B-2,463.5,0.5,100,106.0
3744,C2,463.5,0.5,100,106.0
3745,G3,464.0,4.0,100,106.0
3746,A3,464.0,4.0,100,106.0
3747,D4,464.0,4.0,100,106.0
3748,E4,465.0,3.5,100,106.0
3749,D4,465.0,3.5,100,106.0
3750,G3,465.0,3.5,100,106.0
3751,B3,465.0,3.5,100,106.0
3752,B4,465.5,0.5,100,106.0
3753,G4,465.5,0.5,100,106.0
3754,C#4,465.5,0.5,100,106.0
3755,E4,465.5,0.5,100,106.0
3756,F#3,468.0,4.0,100,106.0
3757,A3,468.0,4.0,100,106.0
3758,D4,468.0,4.0,100,106.0
3759,G3,468.5,0.5,100,106.0
3760,B3,468.5,0.5,100,106.0
3761,C#4,468.5,0.5,100,106.0
3762,E4,468.5,0.5,100,106.0
3763,B4,470.0,4.0,100,106.0
3764,G4,470.0,4.0,100,106.0
3765,C#4,470.0,4.0,100,106.0
3766,E4,470.0,4.0,100,106.0
3767,G3,472.0,4.0,100,106.0
3768,A3,472.0,4.0,100,106.0
3769,D4,472.0,4.0,100,106.0
3770,G3,472.5,3.5,100,106.0
3771,B3,472.5,3.5,100,106.0
3772,C#4,472.5,3.5,100,106.0
3773,E4,472.5,3.5,100,106.0
3774,F#4,474.0,3.5,100,106.0
3775,D4,474.0,3.5,100,106.0
3776,A3,474.0,3.5,100,106.0
3777,D4,476.0,0.5,100,106.0
3778,F#3,476.0,0.5,100,106.0
3779,A3,476.0,0.5,100,106.0
3780,A3,477.5,0.5,100,106.0
3781,F#4,477.5,0.5,100,106.0
3782,C#4,477.5,0.5,100,106.0
3783,E4,477.5,0.5,100,106.0
3784,D4,480.0,3.5,100,106.0
3785,F#3,480.0,3.5,100,106.0
3786,A3,480.0,3.5,100,106.0
3787,A3,481.5,3.5,100,106.0
3788,F#4,481.5,3.5,100,106.0
3789,C#4,481.5,3.5,100,106.0
3790,E4,481.5,3.5,100,106.0
3791,F#3,483.5,0.5,100,106.0
3792,E4,483.5,0.5,100,106.0
3793,A3,483.5,0.5,100,106.0
3794,C#4,483.5,0.5,100,106.0
3795,B3,485.0,0.5,100,106.0
3796,D4,485.0,0.5,100,106.0
3797,E4,485.0,0.5,100,106.0
3798,G4,485.0,0.5,100,106.0
3799,F#3,488.0,4.0,100,106.0
3800,E4,488.0,4.0,100,106.0
3801,A3,488.0,4.0,100,106.0
3802,C#4,488.0,4.0,100,106.0
3803,B3,489.0,3.5,100,106.0
3804,D4,489.0,3.5,100,106.0
3805,E4,489.0,3.5,100,106.0
3806,G4,489.0,3.5,100,106.0
3807,G3,492.0,3.5,100,106.0
3808,B3,492.0,3.5,100,106.0
3809,D4,492.0,3.5,100,106.0
3810,E4,492.0,3.5,100,106.0
3811,G4,492.5,0.5,100,106.0
3812,B3,492.5,0.5,100,106.0
3813,C#4,492.5,0.5,100,106.0
3814,E4,492.5,0.5,100,106.0
3815,G3,495.5,0.5,100,106.0
3816,B3,495.5,0.5,100,106.0
3817,C#4,495.5,0.5,100,106.0
3818,E4,495.5,0.5,100,106.0
3819,G4,496.5,3.5,100,106.0
3820,B3,496.5,3.5,100,106.0
3821,C#4,496.5,3.5,100,106.0
3822,E4,496.5,3.5,100,106.0
3823,G3,499.0,3.0,100,106.0
3824,B3,499.0,3.0,100,106.0
3825,C#4,499.0,3.0,100,106.0
3826,E4,499.0,3.0,100,106.0
3827,D4,500.0,0.5,100,106.0
3828,A4,500.0,0.5,100,106.0
3829,F#4,500.0,0.5,100,106.0
3830,D4,503.5,0.25,100,106.0
3831,D4,503.75,0.25,100,106.0
3832,D4,504.0,0.5,100,106.0
3833,D4,504.0,3.5,100,106.0
3834,A4,504.0,3.5,100,106.0
3835,F#4,504.0,3.5,100,106.0
3836,D4,504.5,0.5,100,106.0
3837,D4,507.5,0.25,100,106.0
3838,A3,507.5,0.5,100,106.0
3839,C#4,507.5,0.5,100,106.0
3840,E4,507.5,0.5,100,106.0
3841,F#4,507.5,0.5,100,106.0
3842,D4,507.75,0.25,100,106.0
3843,D4,508.0,0.5,100,106.0
3844,D4,508.5,0.5,100,106.0
3845,D4,511.5,0.25,100,106.0
3846,D4,511.75,0.25,100,106.0
3847,D4,512.0,0.5,100,106.0
3848,A3,512.0,4.0,100,106.0
3849,C#4,512.0,4.0,100,106.0
3850,E4,512.0,4.0,100,106.0
3851,F#4,512.0,4.0,100,106.0
3852,D4,512.5,0.5,100,106.0
3853,D4,515.5,0.25,100,106.0
3854,D4,515.75,0.25,100,106.0
3855,D4,516.0,0.5,100,106.0
3856,B3,516.0,2.0,100,106.0
3857,D4,516.0,2.0,100,106.0
3858,E4,516.0,2.0,100,106.0
3859,G4,516.0,2.0,100,106.0
3860,D4,516.5,0.5,100,106.0
3861,B3,518.0,1.5,100,106.0
3862,D4,518.0,1.5,100,106.0
3863,E4,518.0,1.5,100,106.0
3864,G4,518.0,1.5,100,106.0
3865,D4,519.5,0.25,100,106.0
3866,B3,519.5,0.5,100,106.0
3867,C#4,519.5,0.5,100,106.0
3868,E4,519.5,0.5,100,106.0
3869,G4,519.5,0.5,100,106.0
3870,D4,519.75,0.25,100,106.0
3871,D4,520.0,0.5,100,106.0
3872,D4,520.5,0.5,100,106.0
3873,D4,523.5,0.25,100,106.0
3874,D4,523.75,0.25,100,106.0
3875,D4,524.0,0.5,100,106.0
3876,B3,524.0,4.0,100,106.0
3877,C#4,524.0,4.0,100,106.0
3878,E4,524.0,4.0,100,106.0
3879,G4,524.0,4.0,100,106.0
3880,D4,524.5,0.5,100,106.0
3881,D4,527.5,0.25,100,106.0
3882,D4,527.75,0.25,100,106.0
3883,D4,528.0,0.5,100,106.0
3884,F#3,528.0,4.0,100,106.0
3885,A3,528.0,4.0,100,106.0
3886,D4,528.0,4.0,100,106.0
3887,D4,528.5,0.5,100,106.0
3888,D4,531.5,0.25,100,106.0
3889,D4,531.75,0.25,100,106.0
3890,D4,532.0,0.5,100,106.0
3891,A3,532.0,4.0,100,106.0
3892,G3,532.0,4.0,100,106.0
3893,D4,532.0,4.0,100,106.0
3894,D4,532.5,0.5,100,106.0
3895,D4,535.5,0.25,100,106.0
3896,D4,535.75,0.25,100,106.0
3897,D4,536.0,0.5,100,106.0
3898,F#3,536.0,4.0,100,106.0
3899,A3,536.0,4.0,100,106.0
3900,D4,536.0,4.0,100,106.0
3901,F#4,536.0,4.0,100,106.0
3902,D4,536.5,0.5,100,106.0
3903,D4,539.5,0.25,100,106.0
3904,D4,539.75,0.25,100,106.0
3905,D4,540.0,0.5,100,106.0
3906,A3,540.0,4.0,100,106.0
3907,G3,540.0,4.0,100,106.0
3908,D4,540.0,4.0,100,106.0
3909,D4,540.5,0.5,100,106.0
3910,D4,543.5,0.25,100,106.0
3911,D4,543.75,0.25,100,106.0
3912,D4,544.0,0.5,100,106.0
3913,F#3,544.0,4.0,100,106.0
3914,A3,544.0,4.0,100,106.0
3915,D4,544.0,4.0,100,106.0
3916,D4,544.5,0.5,100,106.0
3917,D4,547.5,0.25,100,106.0
3918,D4,547.75,0.25,100,106.0
3919,D4,548.0,0.5,100,106.0
3920,A3,548.0,4.0,100,106.0
3921,G3,548.0,4.0,100,106.0
3922,D4,548.0,4.0,100,106.0
3923,D4,548.5,0.5,100,106.0
3924,F#3,552.0,4.0,100,106.0
3925,A3,552.0,4.0,100,106.0
3926,D4,552.0,4.0,100,106.0
3927,F#4,552.0,4.0,100,106.0
3928,A3,556.0,4.0,100,106.0
3929,G3,556.0,4.0,100,106.0
3930,D4,556.0,4.0,100,106.0
3931,F#3,560.0,4.0,100,106.0
3932,A3,560.0,4.0,100,106.0
3933,D4,560.0,4.0,100,106.0
3934,A3,564.0,4.0,100,106.0
3935,G3,564.0,4.0,100,106.0
3936,D4,564.0,4.0,100,106.0
3937,F#3,568.0,4.0,100,106.0
3938,A3,568.0,4.0,100,106.0
3939,D4,568.0,4.0,100,106.0
3940,F#4,568.0,4.0,100,106.0
3941,A3,572.0,4.0,100,106.0
3942,G3,572.0,4.0,100,106.0
3943,D4,572.0,4.0,100,106.0
