,note_name,start_time,duration,velocity,tempo
0,E3,0.0,0.25,95,134.0
1,E2,0.0,1.5,95,134.0
2,E2,0.25,0.25,95,134.0
3,E2,0.5,0.25,95,134.0
4,E3,0.75,0.25,95,134.0
5,E2,1.0,0.25,95,134.0
6,E3,1.25,0.25,95,134.0
7,E2,1.5,0.25,95,134.0
8,E2,1.5,0.5,95,134.0
9,E3,1.75,0.25,95,134.0
10,E2,2.0,0.25,95,134.0
11,E2,2.0,2.0,95,134.0
12,E2,2.25,0.25,95,134.0
13,B2,2.5,0.25,95,134.0
14,E2,2.75,0.25,95,134.0
15,B2,3.0,0.25,95,134.0
16,E2,3.25,0.25,95,134.0
17,C3,3.5,0.25,95,134.0
18,E2,3.75,0.25,95,134.0
19,E3,4.0,0.25,95,134.0
20,E2,4.0,1.5,95,134.0
21,E2,4.25,0.25,95,134.0
22,E2,4.5,0.25,95,134.0
23,E3,4.75,0.25,95,134.0
24,E2,5.0,0.25,95,134.0
25,E3,5.25,0.25,95,134.0
26,E2,5.5,0.25,95,134.0
27,E2,5.5,0.5,95,134.0
28,E3,5.75,0.25,95,134.0
29,E2,6.0,0.25,95,134.0
30,E2,6.0,2.0,95,134.0
31,E2,6.25,0.25,95,134.0
32,B2,6.5,0.25,95,134.0
33,E2,6.75,0.25,95,134.0
34,B2,7.0,0.25,95,134.0
35,E2,7.25,0.25,95,134.0
36,C3,7.5,0.25,95,134.0
37,E2,7.75,0.25,95,134.0
38,E3,8.0,0.25,95,134.0
39,E2,8.0,1.5,95,134.0
40,E2,8.25,0.25,95,134.0
41,E2,8.5,0.25,95,134.0
42,E3,8.75,0.25,95,134.0
43,E2,9.0,0.25,95,134.0
44,E3,9.25,0.25,95,134.0
45,E2,9.5,0.25,95,134.0
46,E2,9.5,0.5,95,134.0
47,E3,9.75,0.25,95,134.0
48,E2,10.0,0.25,95,134.0
49,E2,10.0,2.0,95,134.0
50,E2,10.25,0.25,95,134.0
51,B2,10.5,0.25,95,134.0
52,E2,10.75,0.25,95,134.0
53,B2,11.0,0.25,95,134.0
54,E2,11.25,0.25,95,134.0
55,C3,11.5,0.25,95,134.0
56,E2,11.75,0.25,95,134.0
57,E3,12.0,0.25,95,134.0
58,E2,12.0,1.5,95,134.0
59,E2,12.25,0.25,95,134.0
60,E2,12.5,0.25,95,134.0
61,E3,12.75,0.25,95,134.0
62,E2,13.0,0.25,95,134.0
63,E3,13.25,0.25,95,134.0
64,E2,13.5,0.25,95,134.0
65,E2,13.5,0.5,95,134.0
66,E3,13.75,0.25,95,134.0
67,E2,14.0,0.25,95,134.0
68,E2,14.0,2.0,95,134.0
69,E2,14.25,0.25,95,134.0
70,B2,14.5,0.25,95,134.0
71,E2,14.75,0.25,95,134.0
72,B2,15.0,0.25,95,134.0
73,E2,15.25,0.25,95,134.0
74,C3,15.5,0.25,95,134.0
75,E2,15.75,0.25,95,134.0
76,E3,16.0,0.25,95,134.0
77,E2,16.0,1.5,95,134.0
78,E2,16.25,0.25,95,134.0
79,E2,16.5,0.25,95,134.0
80,E3,16.75,0.25,95,134.0
81,E2,17.0,0.25,95,134.0
82,E3,17.25,0.25,95,134.0
83,E2,17.5,0.25,95,134.0
84,E2,17.5,0.5,95,134.0
85,E3,17.75,0.25,95,134.0
86,E2,18.0,0.25,95,134.0
87,E2,18.0,2.0,95,134.0
88,E2,18.25,0.25,95,134.0
89,B2,18.5,0.25,95,134.0
90,E2,18.75,0.25,95,134.0
91,B2,19.0,0.25,95,134.0
92,E2,19.25,0.25,95,134.0
93,C3,19.5,0.25,95,134.0
94,E2,19.75,0.25,95,134.0
95,E3,20.0,0.25,95,134.0
96,E2,20.0,1.5,95,134.0
97,E2,20.25,0.25,95,134.0
98,E2,20.5,0.25,95,134.0
99,E3,20.75,0.25,95,134.0
100,E2,21.0,0.25,95,134.0
101,E3,21.25,0.25,95,134.0
102,E2,21.5,0.25,95,134.0
103,E2,21.5,0.5,95,134.0
104,E3,21.75,0.25,95,134.0
105,E2,22.0,0.25,95,134.0
106,E2,22.0,2.0,95,134.0
107,E2,22.25,0.25,95,134.0
108,B2,22.5,0.25,95,134.0
109,E2,22.75,0.25,95,134.0
110,B2,23.0,0.25,95,134.0
111,E2,23.25,0.25,95,134.0
112,C3,23.5,0.25,95,134.0
113,E2,23.75,0.25,95,134.0
114,E3,24.0,0.25,95,134.0
115,E2,24.0,1.5,95,134.0
116,E2,24.25,0.25,95,134.0
117,E2,24.5,0.25,95,134.0
118,E3,24.75,0.25,95,134.0
119,E2,25.0,0.25,95,134.0
120,E3,25.25,0.25,95,134.0
121,E2,25.5,0.25,95,134.0
122,E2,25.5,0.5,95,134.0
123,E3,25.75,0.25,95,134.0
124,E2,26.0,0.25,95,134.0
125,E2,26.0,2.0,95,134.0
126,E2,26.25,0.25,95,134.0
127,B2,26.5,0.25,95,134.0
128,E2,26.75,0.25,95,134.0
129,B2,27.0,0.25,95,134.0
130,E2,27.25,0.25,95,134.0
131,C3,27.5,0.25,95,134.0
132,E2,27.75,0.25,95,134.0
133,E3,28.0,0.25,95,134.0
134,E2,28.0,1.5,95,134.0
135,E2,28.25,0.25,95,134.0
136,E2,28.5,0.25,95,134.0
137,E3,28.75,0.25,95,134.0
138,E2,29.0,0.25,95,134.0
139,E3,29.25,0.25,95,134.0
140,E2,29.5,0.25,95,134.0
141,E2,29.5,0.5,95,134.0
142,E3,29.75,0.25,95,134.0
143,E2,30.0,0.25,95,134.0
144,E2,30.0,2.0,95,134.0
145,E2,30.25,0.25,95,134.0
146,B2,30.5,0.25,95,134.0
147,E2,30.75,0.25,95,134.0
148,B2,31.0,0.25,95,134.0
149,E2,31.25,0.25,95,134.0
150,C3,31.5,0.25,95,134.0
151,E2,31.75,0.25,95,134.0
152,E3,32.0,0.25,95,134.0
153,E2,32.0,1.5,95,134.0
154,F#2,32.0,0.5,95,134.0
155,B1,32.0,0.5,95,134.0
156,E2,32.25,0.25,95,134.0
157,E2,32.5,0.25,95,134.0
158,F#2,32.5,0.25,95,134.0
159,B1,32.5,0.25,95,134.0
160,E3,32.75,0.25,95,134.0
161,B1,32.75,0.25,95,134.0
162,E2,33.0,0.25,95,134.0
163,F#2,33.0,0.5,95,134.0
164,D2,33.0,0.5,95,134.0
165,E3,33.25,0.25,95,134.0
166,E2,33.5,0.25,95,134.0
167,E2,33.5,0.5,95,134.0
168,F#2,33.5,0.5,95,134.0
169,B1,33.5,0.5,95,134.0
170,E3,33.75,0.25,95,134.0
171,E2,34.0,0.25,95,134.0
172,E2,34.0,2.0,95,134.0
173,F#2,34.0,0.25,95,134.0
174,B1,34.0,0.25,95,134.0
175,E2,34.25,0.25,95,134.0
176,D2,34.25,0.25,63,134.0
177,B2,34.5,0.25,95,134.0
178,B-2,34.5,0.5,95,134.0
179,B1,34.5,0.5,95,134.0
180,E2,34.75,0.25,95,134.0
181,B2,35.0,0.25,95,134.0
182,B-2,35.0,0.5,95,134.0
183,D2,35.0,0.5,95,134.0
184,E2,35.25,0.25,95,134.0
185,C3,35.5,0.25,95,134.0
186,F#2,35.5,0.5,95,134.0
187,E2,35.75,0.25,95,134.0
188,E3,36.0,0.25,95,134.0
189,E2,36.0,1.5,95,134.0
190,F#2,36.0,0.5,95,134.0
191,B1,36.0,0.5,95,134.0
192,E2,36.25,0.25,95,134.0
193,E2,36.5,0.25,95,134.0
194,F#2,36.5,0.25,95,134.0
195,B1,36.5,0.25,95,134.0
196,E3,36.75,0.25,95,134.0
197,B1,36.75,0.25,95,134.0
198,E2,37.0,0.25,95,134.0
199,F#2,37.0,0.5,95,134.0
200,D2,37.0,0.5,95,134.0
201,E3,37.25,0.25,95,134.0
202,E2,37.5,0.25,95,134.0
203,E2,37.5,0.5,95,134.0
204,F#2,37.5,0.5,95,134.0
205,B1,37.5,0.5,95,134.0
206,E3,37.75,0.25,95,134.0
207,E2,38.0,0.25,95,134.0
208,E2,38.0,2.0,95,134.0
209,F#2,38.0,0.25,95,134.0
210,B1,38.0,0.25,95,134.0
211,E2,38.25,0.25,95,134.0
212,D2,38.25,0.25,63,134.0
213,B2,38.5,0.25,95,134.0
214,B-2,38.5,0.5,95,134.0
215,B1,38.5,0.5,95,134.0
216,E2,38.75,0.25,95,134.0
217,B2,39.0,0.25,95,134.0
218,B-2,39.0,0.5,95,134.0
219,D2,39.0,0.5,95,134.0
220,E2,39.25,0.25,95,134.0
221,C3,39.5,0.25,95,134.0
222,F#2,39.5,0.5,95,134.0
223,E2,39.75,0.25,95,134.0
224,E3,40.0,0.25,95,134.0
225,E2,40.0,1.5,95,134.0
226,F#2,40.0,0.5,95,134.0
227,B1,40.0,0.5,95,134.0
228,E2,40.25,0.25,95,134.0
229,E2,40.5,0.25,95,134.0
230,F#2,40.5,0.25,95,134.0
231,B1,40.5,0.25,95,134.0
232,E3,40.75,0.25,95,134.0
233,B1,40.75,0.25,95,134.0
234,E2,41.0,0.25,95,134.0
235,F#2,41.0,0.5,95,134.0
236,D2,41.0,0.5,95,134.0
237,E3,41.25,0.25,95,134.0
238,E2,41.5,0.25,95,134.0
239,E2,41.5,0.5,95,134.0
240,F#2,41.5,0.5,95,134.0
241,B1,41.5,0.5,95,134.0
242,E3,41.75,0.25,95,134.0
243,E2,42.0,0.25,95,134.0
244,E2,42.0,2.0,95,134.0
245,F#2,42.0,0.25,95,134.0
246,B1,42.0,0.25,95,134.0
247,E2,42.25,0.25,95,134.0
248,D2,42.25,0.25,63,134.0
249,B2,42.5,0.25,95,134.0
250,B-2,42.5,0.5,95,134.0
251,B1,42.5,0.5,95,134.0
252,E2,42.75,0.25,95,134.0
253,B2,43.0,0.25,95,134.0
254,B-2,43.0,0.5,95,134.0
255,D2,43.0,0.5,95,134.0
256,E2,43.25,0.25,95,134.0
257,C3,43.5,0.25,95,134.0
258,F#2,43.5,0.5,95,134.0
259,E2,43.75,0.25,95,134.0
260,B1,44.0,0.5,95,134.0
261,E2,44.5,0.5,95,134.0
262,E2,45.0,0.25,95,134.0
263,E2,45.25,0.25,63,134.0
264,F#2,45.5,0.25,95,134.0
265,E2,45.75,0.25,95,134.0
266,B1,46.0,0.25,95,134.0
267,E2,46.25,0.25,95,134.0
268,F#2,46.5,0.25,95,134.0
269,B1,46.75,0.25,95,134.0
270,E2,47.0,0.25,95,134.0
271,B1,47.25,0.25,95,134.0
272,F#2,47.5,0.25,95,134.0
273,E2,47.75,0.25,95,134.0
274,E3,48.0,0.25,95,134.0
275,E2,48.0,1.5,95,134.0
276,G4,48.0,4.0,95,134.0
277,F#2,48.0,0.5,95,134.0
278,B1,48.0,0.5,95,134.0
279,E2,48.25,0.25,95,134.0
280,E2,48.5,0.25,95,134.0
281,F#2,48.5,0.25,95,134.0
282,B1,48.5,0.25,95,134.0
283,E3,48.75,0.25,95,134.0
284,B1,48.75,0.25,95,134.0
285,E2,49.0,0.25,95,134.0
286,F#2,49.0,0.5,95,134.0
287,D2,49.0,0.5,95,134.0
288,E3,49.25,0.25,95,134.0
289,E2,49.5,0.25,95,134.0
290,E2,49.5,0.5,95,134.0
291,F#2,49.5,0.5,95,134.0
292,B1,49.5,0.5,95,134.0
293,E3,49.75,0.25,95,134.0
294,E2,50.0,0.25,95,134.0
295,E2,50.0,2.0,95,134.0
296,F#2,50.0,0.25,95,134.0
297,B1,50.0,0.25,95,134.0
298,E2,50.25,0.25,95,134.0
299,D2,50.25,0.25,63,134.0
300,B2,50.5,0.25,95,134.0
301,B-2,50.5,0.5,95,134.0
302,B1,50.5,0.5,95,134.0
303,E2,50.75,0.25,95,134.0
304,B2,51.0,0.25,95,134.0
305,B-2,51.0,0.5,95,134.0
306,D2,51.0,0.5,95,134.0
307,E2,51.25,0.25,95,134.0
308,C3,51.5,0.25,95,134.0
309,F#2,51.5,0.5,95,134.0
310,E2,51.75,0.25,95,134.0
311,E3,52.0,0.25,95,134.0
312,E2,52.0,1.5,95,134.0
313,G4,52.0,2.0,95,134.0
314,F#2,52.0,0.5,95,134.0
315,B1,52.0,0.5,95,134.0
316,E2,52.25,0.25,95,134.0
317,E2,52.5,0.25,95,134.0
318,F#2,52.5,0.25,95,134.0
319,B1,52.5,0.25,95,134.0
320,E3,52.75,0.25,95,134.0
321,B1,52.75,0.25,95,134.0
322,E2,53.0,0.25,95,134.0
323,F#2,53.0,0.5,95,134.0
324,D2,53.0,0.5,95,134.0
325,E3,53.25,0.25,95,134.0
326,E2,53.5,0.25,95,134.0
327,E2,53.5,0.5,95,134.0
328,F#2,53.5,0.5,95,134.0
329,B1,53.5,0.5,95,134.0
330,E3,53.75,0.25,95,134.0
331,E2,54.0,0.25,95,134.0
332,E2,54.0,2.0,95,134.0
333,F#2,54.0,0.25,95,134.0
334,B1,54.0,0.25,95,134.0
335,E2,54.25,0.25,95,134.0
336,D2,54.25,0.25,63,134.0
337,B2,54.5,0.25,95,134.0
338,B-2,54.5,0.5,95,134.0
339,B1,54.5,0.5,95,134.0
340,E2,54.75,0.25,95,134.0
341,B2,55.0,0.25,95,134.0
342,B-2,55.0,0.5,95,134.0
343,D2,55.0,0.5,95,134.0
344,E2,55.25,0.25,95,134.0
345,C3,55.5,0.25,95,134.0
346,F#2,55.5,0.5,95,134.0
347,E2,55.75,0.25,95,134.0
348,E3,56.0,0.25,95,134.0
349,E2,56.0,1.5,95,134.0
350,F#2,56.0,0.5,95,134.0
351,B1,56.0,0.5,95,134.0
352,E2,56.25,0.25,95,134.0
353,E2,56.5,0.25,95,134.0
354,F#2,56.5,0.25,95,134.0
355,B1,56.5,0.25,95,134.0
356,E3,56.75,0.25,95,134.0
357,B1,56.75,0.25,95,134.0
358,E2,57.0,0.25,95,134.0
359,F#2,57.0,0.5,95,134.0
360,D2,57.0,0.5,95,134.0
361,E3,57.25,0.25,95,134.0
362,E2,57.5,0.25,95,134.0
363,E2,57.5,0.5,95,134.0
364,F#2,57.5,0.5,95,134.0
365,B1,57.5,0.5,95,134.0
366,E3,57.75,0.25,95,134.0
367,E2,58.0,0.25,95,134.0
368,E2,58.0,2.0,95,134.0
369,F#2,58.0,0.25,95,134.0
370,B1,58.0,0.25,95,134.0
371,E2,58.25,0.25,95,134.0
372,D2,58.25,0.25,63,134.0
373,B2,58.5,0.25,95,134.0
374,B-2,58.5,0.5,95,134.0
375,B1,58.5,0.5,95,134.0
376,E2,58.75,0.25,95,134.0
377,B2,59.0,0.25,95,134.0
378,B-2,59.0,0.5,95,134.0
379,D2,59.0,0.5,95,134.0
380,E2,59.25,0.25,95,134.0
381,C3,59.5,0.25,95,134.0
382,F#2,59.5,0.5,95,134.0
383,E2,59.75,0.25,95,134.0
384,E3,60.0,0.25,95,134.0
385,E2,60.0,1.5,95,134.0
386,F#2,60.0,0.5,95,134.0
387,B1,60.0,0.5,95,134.0
388,E2,60.25,0.25,95,134.0
389,E2,60.5,0.25,95,134.0
390,F#2,60.5,0.25,95,134.0
391,B1,60.5,0.25,95,134.0
392,E3,60.75,0.25,95,134.0
393,B1,60.75,0.25,95,134.0
394,E2,61.0,0.25,95,134.0
395,F#2,61.0,0.5,95,134.0
396,D2,61.0,0.5,95,134.0
397,E3,61.25,0.25,95,134.0
398,E2,61.5,0.25,95,134.0
399,E2,61.5,0.5,95,134.0
400,F#2,61.5,0.5,95,134.0
401,B1,61.5,0.5,95,134.0
402,E3,61.75,0.25,95,134.0
403,E2,62.0,0.25,95,134.0
404,E2,62.0,2.0,95,134.0
405,F#2,62.0,0.25,95,134.0
406,B1,62.0,0.25,95,134.0
407,E2,62.25,0.25,95,134.0
408,D2,62.25,0.25,63,134.0
409,B2,62.5,0.25,95,134.0
410,B-2,62.5,0.5,95,134.0
411,B1,62.5,0.5,95,134.0
412,E2,62.75,0.25,95,134.0
413,B2,63.0,0.25,95,134.0
414,B-2,63.0,0.5,95,134.0
415,D2,63.0,0.5,95,134.0
416,E2,63.25,0.25,95,134.0
417,C3,63.5,0.25,95,134.0
418,F#2,63.5,0.5,95,134.0
419,E2,63.75,0.25,95,134.0
420,G#5,63.75,0.25,95,134.0
421,G5,63.75,0.25,95,134.0
422,G4,64.0,4.0,95,134.0
423,G#5,64.0,4.0,95,134.0
424,G5,64.0,4.0,95,134.0
425,F#2,64.0,0.5,95,134.0
426,B1,64.0,0.5,95,134.0
427,F#2,64.5,0.25,95,134.0
428,B1,64.5,0.25,95,134.0
429,B1,64.75,0.25,95,134.0
430,F#2,65.0,0.5,95,134.0
431,D2,65.0,0.5,95,134.0
432,F#2,65.5,0.5,95,134.0
433,B1,65.5,0.5,95,134.0
434,F#2,66.0,0.25,95,134.0
435,B1,66.0,0.25,95,134.0
436,D2,66.25,0.25,63,134.0
437,B-2,66.5,0.5,95,134.0
438,B1,66.5,0.5,95,134.0
439,B-2,67.0,0.5,95,134.0
440,D2,67.0,0.5,95,134.0
441,F#2,67.5,0.5,95,134.0
442,G4,68.0,2.0,95,134.0
443,F#2,68.0,0.5,95,134.0
444,B1,68.0,0.5,95,134.0
445,F#2,68.5,0.25,95,134.0
446,B1,68.5,0.25,95,134.0
447,B1,68.75,0.25,95,134.0
448,F#2,69.0,0.5,95,134.0
449,D2,69.0,0.5,95,134.0
450,F#2,69.5,0.5,95,134.0
451,B1,69.5,0.5,95,134.0
452,F#2,70.0,0.25,95,134.0
453,B1,70.0,0.25,95,134.0
454,D2,70.25,0.25,63,134.0
455,B-2,70.5,0.5,95,134.0
456,B1,70.5,0.5,95,134.0
457,B-2,71.0,0.5,95,134.0
458,D2,71.0,0.5,95,134.0
459,F#2,71.5,0.5,95,134.0
460,F#2,72.0,0.5,95,134.0
461,B1,72.0,0.5,95,134.0
462,F#2,72.5,0.25,95,134.0
463,B1,72.5,0.25,95,134.0
464,B1,72.75,0.25,95,134.0
465,F#2,73.0,0.5,95,134.0
466,D2,73.0,0.5,95,134.0
467,F#2,73.5,0.5,95,134.0
468,B1,73.5,0.5,95,134.0
469,D3,74.0,0.125,79,134.0
470,G#5,74.0,4.0,95,134.0
471,G5,74.0,4.0,95,134.0
472,F#2,74.0,0.25,95,134.0
473,B1,74.0,0.25,95,134.0
474,G3,74.125,0.125,79,134.0
475,D2,74.25,0.25,63,134.0
476,C4,74.25,0.125,79,134.0
477,E4,74.375,0.125,95,134.0
478,E-4,74.5,0.125,95,134.0
479,B-2,74.5,0.5,95,134.0
480,B1,74.5,0.5,95,134.0
481,D4,74.625,0.125,95,134.0
482,C#4,74.75,0.125,95,134.0
483,C4,74.875,0.125,95,134.0
484,B3,75.0,0.125,95,134.0
485,B-2,75.0,0.5,95,134.0
486,D2,75.0,0.5,95,134.0
487,B-3,75.125,0.125,95,134.0
488,A3,75.25,0.125,95,134.0
489,G#3,75.375,0.125,95,134.0
490,F#2,75.5,0.5,95,134.0
491,G3,75.5,0.125,95,134.0
492,F#3,75.625,0.125,95,134.0
493,F3,75.75,0.125,95,134.0
494,E3,75.875,0.125,95,134.0
495,E-3,76.0,0.125,95,134.0
496,D3,76.125,0.125,95,134.0
497,C#3,76.25,0.125,95,134.0
498,C3,76.375,0.125,95,134.0
499,B2,76.5,0.125,95,134.0
500,B-2,76.625,0.125,95,134.0
501,A2,76.75,0.125,95,134.0
502,G#2,76.875,0.125,95,134.0
503,G2,77.0,0.125,95,134.0
504,F#2,77.125,0.125,95,134.0
505,F2,77.25,0.5,95,134.0
506,F#2,77.75,0.062,95,134.0
507,G2,77.812,0.062,95,134.0
508,A2,77.875,0.062,95,134.0
509,B2,77.938,0.062,95,134.0
510,C#3,78.0,0.062,95,134.0
511,E-3,78.062,0.062,95,134.0
512,F3,78.125,0.062,95,134.0
513,G3,78.188,0.062,95,134.0
514,A3,78.25,0.062,95,134.0
515,B3,78.312,0.062,95,134.0
516,C#4,78.375,0.062,95,134.0
517,E-4,78.438,0.062,95,134.0
518,E3,80.0,0.25,95,134.0
519,E2,80.0,1.5,95,134.0
520,G#5,80.0,2.0,95,134.0
521,G5,80.0,2.0,95,134.0
522,F#2,80.0,0.5,95,134.0
523,B1,80.0,0.5,95,134.0
524,E2,80.25,0.25,95,134.0
525,E2,80.5,0.25,95,134.0
526,F#2,80.5,0.25,95,134.0
527,B1,80.5,0.25,95,134.0
528,E3,80.75,0.25,95,134.0
529,B1,80.75,0.25,95,134.0
530,E2,81.0,0.25,95,134.0
531,F#2,81.0,0.5,95,134.0
532,D2,81.0,0.5,95,134.0
533,E3,81.25,0.25,95,134.0
534,E2,81.5,0.25,95,134.0
535,E2,81.5,0.5,95,134.0
536,F#2,81.5,0.5,95,134.0
537,B1,81.5,0.5,95,134.0
538,E3,81.75,0.25,95,134.0
539,E2,82.0,0.25,95,134.0
540,E2,82.0,2.0,95,134.0
541,D3,82.0,7/100,95,134.0
542,A2,82.0,7/100,95,134.0
543,F#2,82.0,0.25,95,134.0
544,B1,82.0,0.25,95,134.0
545,D3,82.125,7/100,95,134.0
546,A2,82.125,7/100,95,134.0
547,E2,82.25,0.25,95,134.0
548,D2,82.25,0.25,63,134.0
549,D3,82.25,7/100,95,134.0
550,A2,82.25,7/100,95,134.0
551,D5,82.375,0.125,63,134.0
552,A4,82.375,0.125,63,134.0
553,B2,82.5,0.25,95,134.0
554,C#5,82.5,0.125,63,134.0
555,G#4,82.5,0.125,63,134.0
556,B-2,82.5,0.5,95,134.0
557,B1,82.5,0.5,95,134.0
558,C5,82.625,0.125,63,134.0
559,G4,82.625,0.125,63,134.0
560,E2,82.75,0.25,95,134.0
561,B4,82.75,0.125,63,134.0
562,F#4,82.75,0.125,63,134.0
563,B-4,82.875,0.125,63,134.0
564,F4,82.875,0.125,63,134.0
565,B2,83.0,0.25,95,134.0
566,A4,83.0,0.125,63,134.0
567,E4,83.0,0.125,63,134.0
568,B-2,83.0,0.5,95,134.0
569,D2,83.0,0.5,95,134.0
570,G#4,83.125,0.125,63,134.0
571,E-4,83.125,0.125,63,134.0
572,E2,83.25,0.25,95,134.0
573,G4,83.25,0.125,63,134.0
574,D4,83.25,0.125,63,134.0
575,F#4,83.375,0.125,63,134.0
576,C#4,83.375,0.125,63,134.0
577,C3,83.5,0.25,95,134.0
578,F#2,83.5,0.5,95,134.0
579,F4,83.5,0.125,63,134.0
580,C4,83.5,0.125,63,134.0
581,E4,83.625,0.125,63,134.0
582,B3,83.625,0.125,63,134.0
583,E2,83.75,0.25,95,134.0
584,E-4,83.75,0.125,63,134.0
585,B-3,83.75,0.125,63,134.0
586,D4,83.875,0.125,63,134.0
587,A3,83.875,0.125,63,134.0
588,E3,84.0,0.25,95,134.0
589,E2,84.0,1.5,95,134.0
590,C#4,84.0,0.125,63,134.0
591,G#3,84.0,0.125,63,134.0
592,F#2,84.0,0.5,95,134.0
593,B1,84.0,0.5,95,134.0
594,C4,84.125,0.125,63,134.0
595,G3,84.125,0.125,63,134.0
596,E2,84.25,0.25,95,134.0
597,B3,84.25,0.125,63,134.0
598,F#3,84.25,0.125,63,134.0
599,B-3,84.375,0.125,63,134.0
600,F3,84.375,0.125,63,134.0
601,E2,84.5,0.25,95,134.0
602,A3,84.5,0.125,63,134.0
603,E3,84.5,0.125,63,134.0
604,F#2,84.5,0.25,95,134.0
605,B1,84.5,0.25,95,134.0
606,G#3,84.625,0.125,63,134.0
607,E-3,84.625,0.125,63,134.0
608,E3,84.75,0.25,95,134.0
609,B1,84.75,0.25,95,134.0
610,G3,84.75,0.125,63,134.0
611,D3,84.75,0.125,63,134.0
612,F#3,84.875,0.125,63,134.0
613,C#3,84.875,0.125,63,134.0
614,E2,85.0,0.25,95,134.0
615,F3,85.0,0.125,63,134.0
616,C3,85.0,0.125,63,134.0
617,F#2,85.0,0.5,95,134.0
618,D2,85.0,0.5,95,134.0
619,E3,85.125,0.125,63,134.0
620,B2,85.125,0.125,63,134.0
621,E3,85.25,0.25,95,134.0
622,E-3,85.25,0.25,63,134.0
623,B-2,85.25,0.25,63,134.0
624,E2,85.5,0.25,95,134.0
625,E2,85.5,0.5,95,134.0
626,F#2,85.5,0.5,95,134.0
627,B1,85.5,0.5,95,134.0
628,E3,85.75,0.25,95,134.0
629,E2,86.0,0.25,95,134.0
630,E2,86.0,2.0,95,134.0
631,F#2,86.0,0.25,95,134.0
632,B1,86.0,0.25,95,134.0
633,E2,86.25,0.25,95,134.0
634,D2,86.25,0.25,63,134.0
635,B2,86.5,0.25,95,134.0
636,G3,86.5,0.5,79,134.0
637,B-2,86.5,0.5,95,134.0
638,B1,86.5,0.5,95,134.0
639,E2,86.75,0.25,95,134.0
640,B2,87.0,0.25,95,134.0
641,B-2,87.0,0.5,95,134.0
642,D2,87.0,0.5,95,134.0
643,E2,87.25,0.25,95,134.0
644,C3,87.5,0.25,95,134.0
645,F#2,87.5,0.5,95,134.0
646,E2,87.75,0.25,95,134.0
647,E3,88.0,0.25,95,134.0
648,E2,88.0,1.5,95,134.0
649,F#2,88.0,0.5,95,134.0
650,B1,88.0,0.5,95,134.0
651,E2,88.25,0.25,95,134.0
652,E2,88.5,0.25,95,134.0
653,F#2,88.5,0.25,95,134.0
654,B1,88.5,0.25,95,134.0
655,E3,88.75,0.25,95,134.0
656,B1,88.75,0.25,95,134.0
657,E2,89.0,0.25,95,134.0
658,F#2,89.0,0.5,95,134.0
659,D2,89.0,0.5,95,134.0
660,E3,89.25,0.25,95,134.0
661,E2,89.5,0.25,95,134.0
662,E2,89.5,0.5,95,134.0
663,F#2,89.5,0.5,95,134.0
664,B1,89.5,0.5,95,134.0
665,E3,89.75,0.25,95,134.0
666,E2,90.0,0.25,95,134.0
667,E2,90.0,2.0,95,134.0
668,F#2,90.0,0.25,95,134.0
669,B1,90.0,0.25,95,134.0
670,E2,90.25,0.25,95,134.0
671,D2,90.25,0.25,63,134.0
672,B2,90.5,0.25,95,134.0
673,B-2,90.5,0.5,95,134.0
674,B1,90.5,0.5,95,134.0
675,E2,90.75,0.25,95,134.0
676,B2,91.0,0.25,95,134.0
677,B-2,91.0,0.5,95,134.0
678,D2,91.0,0.5,95,134.0
679,E2,91.25,0.25,95,134.0
680,C3,91.5,0.25,95,134.0
681,F#2,91.5,0.5,95,134.0
682,E2,91.75,0.25,95,134.0
683,E3,92.0,0.25,95,134.0
684,E2,92.0,1.5,95,134.0
685,F#2,92.0,0.5,95,134.0
686,B1,92.0,0.5,95,134.0
687,E2,92.25,0.25,95,134.0
688,E2,92.5,0.25,95,134.0
689,F#2,92.5,0.25,95,134.0
690,B1,92.5,0.25,95,134.0
691,E3,92.75,0.25,95,134.0
692,B1,92.75,0.25,95,134.0
693,E2,93.0,0.25,95,134.0
694,F#2,93.0,0.5,95,134.0
695,D2,93.0,0.5,95,134.0
696,E3,93.25,0.25,95,134.0
697,E2,93.5,0.25,95,134.0
698,E2,93.5,0.5,95,134.0
699,F#2,93.5,0.5,95,134.0
700,B1,93.5,0.5,95,134.0
701,E3,93.75,0.25,95,134.0
702,E2,94.0,0.25,95,134.0
703,E2,94.0,2.0,95,134.0
704,F#2,94.0,0.25,95,134.0
705,B1,94.0,0.25,95,134.0
706,E2,94.25,0.25,95,134.0
707,D2,94.25,0.25,63,134.0
708,B2,94.5,0.25,95,134.0
709,B-2,94.5,0.5,95,134.0
710,B1,94.5,0.5,95,134.0
711,E2,94.75,0.25,95,134.0
712,B2,95.0,0.25,95,134.0
713,B-2,95.0,0.5,95,134.0
714,D2,95.0,0.5,95,134.0
715,E2,95.25,0.25,95,134.0
716,C3,95.5,0.25,95,134.0
717,F#2,95.5,0.5,95,134.0
718,E2,95.75,0.25,95,134.0
719,E3,96.0,0.25,95,134.0
720,E2,96.0,1.5,95,134.0
721,G5,96.0,4.0,95,134.0
722,F#2,96.0,0.5,95,134.0
723,B1,96.0,0.5,95,134.0
724,E2,96.25,0.25,95,134.0
725,E2,96.5,0.25,95,134.0
726,F#2,96.5,0.25,95,134.0
727,B1,96.5,0.25,95,134.0
728,E3,96.75,0.25,95,134.0
729,B1,96.75,0.25,95,134.0
730,E2,97.0,0.25,95,134.0
731,F#2,97.0,0.5,95,134.0
732,D2,97.0,0.5,95,134.0
733,E3,97.25,0.25,95,134.0
734,E2,97.5,0.25,95,134.0
735,E2,97.5,0.5,95,134.0
736,F#2,97.5,0.5,95,134.0
737,B1,97.5,0.5,95,134.0
738,E3,97.75,0.25,95,134.0
739,E2,98.0,0.25,95,134.0
740,E2,98.0,2.0,95,134.0
741,F#2,98.0,0.25,95,134.0
742,B1,98.0,0.25,95,134.0
743,E2,98.25,0.25,95,134.0
744,D2,98.25,0.25,63,134.0
745,B2,98.5,0.25,95,134.0
746,B-2,98.5,0.5,95,134.0
747,B1,98.5,0.5,95,134.0
748,E2,98.75,0.25,95,134.0
749,B2,99.0,0.25,95,134.0
750,B-2,99.0,0.5,95,134.0
751,D2,99.0,0.5,95,134.0
752,E2,99.25,0.25,95,134.0
753,C3,99.5,0.25,95,134.0
754,F#2,99.5,0.5,95,134.0
755,E2,99.75,0.25,95,134.0
756,E3,100.0,0.25,95,134.0
757,E2,100.0,1.5,95,134.0
758,F#2,100.0,0.5,95,134.0
759,B1,100.0,0.5,95,134.0
760,E2,100.25,0.25,95,134.0
761,E2,100.5,0.25,95,134.0
762,F#2,100.5,0.25,95,134.0
763,B1,100.5,0.25,95,134.0
764,E3,100.75,0.25,95,134.0
765,B1,100.75,0.25,95,134.0
766,E2,101.0,0.25,95,134.0
767,F#2,101.0,0.5,95,134.0
768,D2,101.0,0.5,95,134.0
769,E3,101.25,0.25,95,134.0
770,E2,101.5,0.25,95,134.0
771,E2,101.5,0.5,95,134.0
772,F#2,101.5,0.5,95,134.0
773,B1,101.5,0.5,95,134.0
774,E3,101.75,0.25,95,134.0
775,E2,102.0,0.25,95,134.0
776,E2,102.0,2.0,95,134.0
777,F#2,102.0,0.25,95,134.0
778,B1,102.0,0.25,95,134.0
779,E2,102.25,0.25,95,134.0
780,D2,102.25,0.25,63,134.0
781,B2,102.5,0.25,95,134.0
782,B-2,102.5,0.5,95,134.0
783,B1,102.5,0.5,95,134.0
784,E2,102.75,0.25,95,134.0
785,B2,103.0,0.25,95,134.0
786,B-2,103.0,0.5,95,134.0
787,D2,103.0,0.5,95,134.0
788,E2,103.25,0.25,95,134.0
789,C3,103.5,0.25,95,134.0
790,F#2,103.5,0.5,95,134.0
791,E2,103.75,0.25,95,134.0
792,E3,104.0,0.25,95,134.0
793,E2,104.0,1.5,95,134.0
794,G4,104.0,4.0,95,134.0
795,F#2,104.0,0.5,95,134.0
796,B1,104.0,0.5,95,134.0
797,E2,104.25,0.25,95,134.0
798,E2,104.5,0.25,95,134.0
799,F#2,104.5,0.25,95,134.0
800,B1,104.5,0.25,95,134.0
801,E3,104.75,0.25,95,134.0
802,B1,104.75,0.25,95,134.0
803,E2,105.0,0.25,95,134.0
804,F#2,105.0,0.5,95,134.0
805,D2,105.0,0.5,95,134.0
806,E3,105.25,0.25,95,134.0
807,E2,105.5,0.25,95,134.0
808,E2,105.5,0.5,95,134.0
809,F#2,105.5,0.5,95,134.0
810,B1,105.5,0.5,95,134.0
811,E3,105.75,0.25,95,134.0
812,E2,106.0,0.25,95,134.0
813,E2,106.0,2.0,95,134.0
814,F#2,106.0,0.25,95,134.0
815,B1,106.0,0.25,95,134.0
816,E2,106.25,0.25,95,134.0
817,D2,106.25,0.25,63,134.0
818,B2,106.5,0.25,95,134.0
819,B-2,106.5,0.5,95,134.0
820,B1,106.5,0.5,95,134.0
821,E2,106.75,0.25,95,134.0
822,B2,107.0,0.25,95,134.0
823,B-2,107.0,0.5,95,134.0
824,D2,107.0,0.5,95,134.0
825,E2,107.25,0.25,95,134.0
826,C3,107.5,0.25,95,134.0
827,F#2,107.5,0.5,95,134.0
828,E2,107.75,0.25,95,134.0
829,E3,108.0,0.25,95,134.0
830,E2,108.0,1.5,95,134.0
831,G4,108.0,2.0,95,134.0
832,F#2,108.0,0.5,95,134.0
833,B1,108.0,0.5,95,134.0
834,E2,108.25,0.25,95,134.0
835,E2,108.5,0.25,95,134.0
836,F#2,108.5,0.25,95,134.0
837,B1,108.5,0.25,95,134.0
838,E3,108.75,0.25,95,134.0
839,B1,108.75,0.25,95,134.0
840,E2,109.0,0.25,95,134.0
841,F#2,109.0,0.5,95,134.0
842,D2,109.0,0.5,95,134.0
843,E3,109.25,0.25,95,134.0
844,E2,109.5,0.25,95,134.0
845,E2,109.5,0.5,95,134.0
846,F#2,109.5,0.5,95,134.0
847,B1,109.5,0.5,95,134.0
848,E3,109.75,0.25,95,134.0
849,E2,110.0,0.25,95,134.0
850,E2,110.0,2.0,95,134.0
851,F#2,110.0,0.25,95,134.0
852,B1,110.0,0.25,95,134.0
853,E2,110.25,0.25,95,134.0
854,D2,110.25,0.25,63,134.0
855,B2,110.5,0.25,95,134.0
856,B-2,110.5,0.5,95,134.0
857,B1,110.5,0.5,95,134.0
858,E2,110.75,0.25,95,134.0
859,B2,111.0,0.25,95,134.0
860,B-2,111.0,0.5,95,134.0
861,D2,111.0,0.5,95,134.0
862,E2,111.25,0.25,95,134.0
863,C3,111.5,0.25,95,134.0
864,F#2,111.5,0.5,95,134.0
865,E2,111.75,0.25,95,134.0
866,E6,112.0,167/1000,95,134.0
867,F#2,112.0,0.5,95,134.0
868,B1,112.0,0.5,95,134.0
869,E6,112.167,167/1000,95,134.0
870,E6,112.333,167/1000,95,134.0
871,E6,112.5,167/1000,95,134.0
872,F#2,112.5,0.25,95,134.0
873,B1,112.5,0.25,95,134.0
874,E6,112.667,167/1000,95,134.0
875,B1,112.75,0.25,95,134.0
876,D6,112.833,167/1000,95,134.0
877,E6,113.0,167/1000,95,134.0
878,F#2,113.0,0.5,95,134.0
879,D2,113.0,0.5,95,134.0
880,D6,113.167,167/1000,95,134.0
881,E6,113.333,167/1000,95,134.0
882,D6,113.5,167/1000,95,134.0
883,F#2,113.5,0.5,95,134.0
884,B1,113.5,0.5,95,134.0
885,B5,113.667,167/1000,95,134.0
886,A5,113.833,167/1000,95,134.0
887,G5,114.0,167/1000,95,134.0
888,F#2,114.0,0.25,95,134.0
889,B1,114.0,0.25,95,134.0
890,F#5,114.167,167/1000,95,134.0
891,D2,114.25,0.25,63,134.0
892,G5,114.333,167/1000,95,134.0
893,A5,114.5,167/1000,95,134.0
894,B-2,114.5,0.5,95,134.0
895,B1,114.5,0.5,95,134.0
896,B5,114.667,167/1000,95,134.0
897,A5,114.833,167/1000,95,134.0
898,G5,115.0,167/1000,95,134.0
899,B-2,115.0,0.5,95,134.0
900,D2,115.0,0.5,95,134.0
901,F#5,115.167,167/1000,95,134.0
902,G5,115.333,167/1000,95,134.0
903,A5,115.5,167/1000,95,134.0
904,F#2,115.5,0.5,95,134.0
905,B5,115.667,167/1000,95,134.0
906,C6,115.833,167/1000,95,134.0
907,B5,116.0,167/1000,95,134.0
908,F#2,116.0,0.5,95,134.0
909,B1,116.0,0.5,95,134.0
910,A5,116.167,167/1000,95,134.0
911,B5,116.333,167/1000,95,134.0
912,D6,116.5,0.5,95,134.0
913,F#2,116.5,0.25,95,134.0
914,B1,116.5,0.25,95,134.0
915,B1,116.75,0.25,95,134.0
916,F5,117.0,167/1000,95,134.0
917,F#2,117.0,0.5,95,134.0
918,D2,117.0,0.5,95,134.0
919,F#5,117.167,167/1000,95,134.0
920,G#5,117.333,167/1000,95,134.0
921,B-5,117.5,167/1000,95,134.0
922,F#2,117.5,0.5,95,134.0
923,B1,117.5,0.5,95,134.0
924,G#5,117.667,167/1000,95,134.0
925,F#5,117.833,167/1000,95,134.0
926,F5,118.0,167/1000,95,134.0
927,F#2,118.0,0.25,95,134.0
928,B1,118.0,0.25,95,134.0
929,G5,118.167,167/1000,95,134.0
930,D2,118.25,0.25,63,134.0
931,F5,118.333,167/1000,95,134.0
932,G5,118.5,167/1000,95,134.0
933,B-2,118.5,0.5,95,134.0
934,B1,118.5,0.5,95,134.0
935,F5,118.667,167/1000,95,134.0
936,E5,118.833,167/1000,95,134.0
937,D5,119.0,167/1000,95,134.0
938,B-2,119.0,0.5,95,134.0
939,D2,119.0,0.5,95,134.0
940,C5,119.167,167/1000,95,134.0
941,B4,119.333,167/1000,95,134.0
942,C5,119.5,167/1000,95,134.0
943,F#2,119.5,0.5,95,134.0
944,D5,119.667,167/1000,95,134.0
945,E-5,119.833,167/1000,95,134.0
946,D5,120.0,167/1000,95,134.0
947,F#2,120.0,0.5,95,134.0
948,B1,120.0,0.5,95,134.0
949,C5,120.167,167/1000,95,134.0
950,B4,120.333,167/1000,95,134.0
951,C5,120.5,167/1000,95,134.0
952,F#2,120.5,0.25,95,134.0
953,B1,120.5,0.25,95,134.0
954,D5,120.667,167/1000,95,134.0
955,B1,120.75,0.25,95,134.0
956,E5,120.833,167/1000,95,134.0
957,E-5,121.0,167/1000,95,134.0
958,F#2,121.0,0.5,95,134.0
959,D2,121.0,0.5,95,134.0
960,E-5,121.167,167/1000,95,134.0
961,E-5,121.333,167/1000,95,134.0
962,F#5,121.5,167/1000,95,134.0
963,F#2,121.5,0.5,95,134.0
964,B1,121.5,0.5,95,134.0
965,E-5,121.667,167/1000,95,134.0
966,F5,121.833,167/1000,95,134.0
967,F#5,122.0,167/1000,95,134.0
968,F#2,122.0,0.25,95,134.0
969,B1,122.0,0.25,95,134.0
970,F5,122.167,167/1000,95,134.0
971,D2,122.25,0.25,63,134.0
972,E-5,122.333,167/1000,95,134.0
973,C#5,122.5,167/1000,95,134.0
974,B-2,122.5,0.5,95,134.0
975,B1,122.5,0.5,95,134.0
976,B4,122.667,167/1000,95,134.0
977,B-4,122.833,167/1000,95,134.0
978,C#5,123.0,167/1000,95,134.0
979,B-2,123.0,0.5,95,134.0
980,D2,123.0,0.5,95,134.0
981,B4,123.167,167/1000,95,134.0
982,C#5,123.333,167/1000,95,134.0
983,B4,123.5,167/1000,95,134.0
984,F#2,123.5,0.5,95,134.0
985,B-4,123.667,167/1000,95,134.0
986,G4,123.833,167/1000,95,134.0
987,F4,124.0,167/1000,95,134.0
988,F#2,124.0,0.5,95,134.0
989,B1,124.0,0.5,95,134.0
990,E4,124.167,167/1000,95,134.0
991,F4,124.333,167/1000,95,134.0
992,G4,124.5,167/1000,95,134.0
993,F#2,124.5,0.25,95,134.0
994,B1,124.5,0.25,95,134.0
995,A4,124.667,167/1000,95,134.0
996,B1,124.75,0.25,95,134.0
997,G4,124.833,167/1000,95,134.0
998,C5,125.0,167/1000,95,134.0
999,F#2,125.0,0.5,95,134.0
1000,D2,125.0,0.5,95,134.0
1001,A4,125.167,167/1000,95,134.0
1002,C5,125.333,167/1000,95,134.0
1003,C5,125.5,2.0,95,134.0
1004,F#2,125.5,0.5,95,134.0
1005,B1,125.5,0.5,95,134.0
1006,F#2,126.0,0.25,95,134.0
1007,B1,126.0,0.25,95,134.0
1008,D2,126.25,0.25,63,134.0
1009,B-2,126.5,0.5,95,134.0
1010,B1,126.5,0.5,95,134.0
1011,B-2,127.0,0.5,95,134.0
1012,D2,127.0,0.5,95,134.0
1013,D5,127.5,167/1000,95,134.0
1014,F#2,127.5,0.5,95,134.0
1015,G4,127.667,167/1000,70,134.0
1016,C#5,127.833,167/1000,95,134.0
1017,F#4,128.0,167/1000,70,134.0
1018,F#2,128.0,0.5,95,134.0
1019,B1,128.0,0.5,95,134.0
1020,C5,128.167,167/1000,95,134.0
1021,F4,128.333,167/1000,70,134.0
1022,F5,128.5,167/1000,95,134.0
1023,F#2,128.5,0.25,95,134.0
1024,B1,128.5,0.25,95,134.0
1025,B-4,128.667,167/1000,70,134.0
1026,B1,128.75,0.25,95,134.0
1027,E5,128.833,167/1000,95,134.0
1028,A4,129.0,167/1000,70,134.0
1029,F#2,129.0,0.5,95,134.0
1030,D2,129.0,0.5,95,134.0
1031,D5,129.167,167/1000,95,134.0
1032,G4,129.333,167/1000,70,134.0
1033,C#5,129.5,167/1000,95,134.0
1034,F#2,129.5,0.5,95,134.0
1035,B1,129.5,0.5,95,134.0
1036,F#4,129.667,167/1000,70,134.0
1037,C5,129.833,167/1000,95,134.0
1038,F4,130.0,0.125,70,134.0
1039,F#2,130.0,0.25,95,134.0
1040,B1,130.0,0.25,95,134.0
1041,G4,130.125,0.125,95,134.0
1042,C4,130.25,0.125,70,134.0
1043,D2,130.25,0.25,63,134.0
1044,F#4,130.375,0.125,95,134.0
1045,G#3,130.5,0.125,70,134.0
1046,B-2,130.5,0.5,95,134.0
1047,B1,130.5,0.5,95,134.0
1048,D4,130.625,0.125,95,134.0
1049,G3,130.75,0.125,70,134.0
1050,C#4,130.875,0.125,95,134.0
1051,F#3,131.0,0.125,70,134.0
1052,B-2,131.0,0.5,95,134.0
1053,D2,131.0,0.5,95,134.0
1054,B3,131.125,0.125,95,134.0
1055,F#3,131.25,0.125,70,134.0
1056,B-3,131.375,0.125,95,134.0
1057,E3,131.5,0.125,70,134.0
1058,F#2,131.5,0.5,95,134.0
1059,C#4,131.625,0.125,95,134.0
1060,B-3,131.75,0.125,70,134.0
1061,D4,131.875,0.125,95,134.0
1062,B-3,132.0,0.125,70,134.0
1063,F#2,132.0,0.5,95,134.0
1064,B1,132.0,0.5,95,134.0
1065,C4,132.125,0.125,95,134.0
1066,A3,132.25,0.125,70,134.0
1067,G#3,132.375,0.125,70,134.0
1068,C4,132.5,0.125,70,134.0
1069,F#2,132.5,0.25,95,134.0
1070,B1,132.5,0.25,95,134.0
1071,F#4,132.625,0.125,95,134.0
1072,E-4,132.75,0.125,70,134.0
1073,B1,132.75,0.25,95,134.0
1074,A4,132.875,0.125,95,134.0
1075,E4,133.0,0.125,70,134.0
1076,F#2,133.0,0.5,95,134.0
1077,D2,133.0,0.5,95,134.0
1078,G#4,133.125,0.125,95,134.0
1079,E4,133.25,0.125,70,134.0
1080,F#4,133.375,0.125,95,134.0
1081,E-4,133.5,0.125,70,134.0
1082,F#2,133.5,0.5,95,134.0
1083,B1,133.5,0.5,95,134.0
1084,E-5,133.625,0.125,95,134.0
1085,B-4,133.75,0.125,70,134.0
1086,C#5,133.875,0.125,95,134.0
1087,A4,134.0,167/1000,70,134.0
1088,F#2,134.0,0.25,95,134.0
1089,B1,134.0,0.25,95,134.0
1090,E5,134.167,167/1000,95,134.0
1091,D2,134.25,0.25,63,134.0
1092,C5,134.333,167/1000,70,134.0
1093,G5,134.5,167/1000,95,134.0
1094,B-2,134.5,0.5,95,134.0
1095,B1,134.5,0.5,95,134.0
1096,D5,134.667,167/1000,70,134.0
1097,F5,134.833,167/1000,95,134.0
1098,C#5,135.0,167/1000,70,134.0
1099,B-2,135.0,0.5,95,134.0
1100,D2,135.0,0.5,95,134.0
1101,A5,135.167,167/1000,95,134.0
1102,F5,135.333,167/1000,70,134.0
1103,C#6,135.5,167/1000,95,134.0
1104,F#2,135.5,0.5,95,134.0
1105,G#5,135.667,167/1000,70,134.0
1106,C6,135.833,167/1000,95,134.0
1107,F#5,136.0,0.25,70,134.0
1108,F#2,136.0,0.5,95,134.0
1109,B1,136.0,0.5,95,134.0
1110,C6,136.25,0.25,95,134.0
1111,E-5,136.5,0.25,70,134.0
1112,F#2,136.5,0.25,95,134.0
1113,B1,136.5,0.25,95,134.0
1114,B-5,136.75,0.25,95,134.0
1115,B1,136.75,0.25,95,134.0
1116,D5,137.0,0.25,70,134.0
1117,F#2,137.0,0.5,95,134.0
1118,D2,137.0,0.5,95,134.0
1119,F5,137.25,0.25,95,134.0
1120,A4,137.5,0.25,70,134.0
1121,F#2,137.5,0.5,95,134.0
1122,B1,137.5,0.5,95,134.0
1123,C5,137.75,0.25,95,134.0
1124,E4,138.0,0.25,70,134.0
1125,F#2,138.0,0.25,95,134.0
1126,B1,138.0,0.25,95,134.0
1127,G5,138.25,0.25,95,134.0
1128,D2,138.25,0.25,63,134.0
1129,B-4,138.5,0.25,70,134.0
1130,B-2,138.5,0.5,95,134.0
1131,B1,138.5,0.5,95,134.0
1132,F5,138.75,0.25,95,134.0
1133,A4,139.0,0.25,70,134.0
1134,B-2,139.0,0.5,95,134.0
1135,D2,139.0,0.5,95,134.0
1136,B4,139.25,0.25,95,134.0
1137,D4,139.5,0.25,70,134.0
1138,F#2,139.5,0.5,95,134.0
1139,E3,144.0,0.25,95,134.0
1140,E2,144.0,1.5,95,134.0
1141,F#2,144.0,0.5,95,134.0
1142,B1,144.0,0.5,95,134.0
1143,E2,144.25,0.25,95,134.0
1144,E2,144.5,0.25,95,134.0
1145,F#2,144.5,0.25,95,134.0
1146,B1,144.5,0.25,95,134.0
1147,E3,144.75,0.25,95,134.0
1148,B1,144.75,0.25,95,134.0
1149,E2,145.0,0.25,95,134.0
1150,F#2,145.0,0.5,95,134.0
1151,D2,145.0,0.5,95,134.0
1152,E3,145.25,0.25,95,134.0
1153,E2,145.5,0.25,95,134.0
1154,E2,145.5,0.5,95,134.0
1155,F#2,145.5,0.5,95,134.0
1156,B1,145.5,0.5,95,134.0
1157,E3,145.75,0.25,95,134.0
1158,E2,146.0,0.25,95,134.0
1159,E2,146.0,2.0,95,134.0
1160,F#2,146.0,0.25,95,134.0
1161,B1,146.0,0.25,95,134.0
1162,E2,146.25,0.25,95,134.0
1163,D2,146.25,0.25,63,134.0
1164,B2,146.5,0.25,95,134.0
1165,B-2,146.5,0.5,95,134.0
1166,B1,146.5,0.5,95,134.0
1167,E2,146.75,0.25,95,134.0
1168,B2,147.0,0.25,95,134.0
1169,B-2,147.0,0.5,95,134.0
1170,D2,147.0,0.5,95,134.0
1171,E2,147.25,0.25,95,134.0
1172,C3,147.5,0.25,95,134.0
1173,F#2,147.5,0.5,95,134.0
1174,E2,147.75,0.25,95,134.0
1175,E3,148.0,0.25,95,134.0
1176,E2,148.0,1.5,95,134.0
1177,F#2,148.0,0.5,95,134.0
1178,B1,148.0,0.5,95,134.0
1179,E2,148.25,0.25,95,134.0
1180,E2,148.5,0.25,95,134.0
1181,F#2,148.5,0.25,95,134.0
1182,B1,148.5,0.25,95,134.0
1183,E3,148.75,0.25,95,134.0
1184,B1,148.75,0.25,95,134.0
1185,E2,149.0,0.25,95,134.0
1186,F#2,149.0,0.5,95,134.0
1187,D2,149.0,0.5,95,134.0
1188,E3,149.25,0.25,95,134.0
1189,E2,149.5,0.25,95,134.0
1190,E2,149.5,0.5,95,134.0
1191,F#2,149.5,0.5,95,134.0
1192,B1,149.5,0.5,95,134.0
1193,E3,149.75,0.25,95,134.0
1194,E2,150.0,0.25,95,134.0
1195,E2,150.0,2.0,95,134.0
1196,F#2,150.0,0.25,95,134.0
1197,B1,150.0,0.25,95,134.0
1198,E2,150.25,0.25,95,134.0
1199,D2,150.25,0.25,63,134.0
1200,B2,150.5,0.25,95,134.0
1201,B-2,150.5,0.5,95,134.0
1202,B1,150.5,0.5,95,134.0
1203,E2,150.75,0.25,95,134.0
1204,B2,151.0,0.25,95,134.0
1205,B-2,151.0,0.5,95,134.0
1206,D2,151.0,0.5,95,134.0
1207,E2,151.25,0.25,95,134.0
1208,C3,151.5,0.25,95,134.0
1209,F#2,151.5,0.5,95,134.0
1210,E2,151.75,0.25,95,134.0
1211,E3,152.0,0.25,95,134.0
1212,E2,152.0,1.5,95,134.0
1213,F#2,152.0,0.5,95,134.0
1214,B1,152.0,0.5,95,134.0
1215,E2,152.25,0.25,95,134.0
1216,E2,152.5,0.25,95,134.0
1217,F#2,152.5,0.25,95,134.0
1218,B1,152.5,0.25,95,134.0
1219,E3,152.75,0.25,95,134.0
1220,B1,152.75,0.25,95,134.0
1221,E2,153.0,0.25,95,134.0
1222,F#2,153.0,0.5,95,134.0
1223,D2,153.0,0.5,95,134.0
1224,E3,153.25,0.25,95,134.0
1225,E2,153.5,0.25,95,134.0
1226,E2,153.5,0.5,95,134.0
1227,F#2,153.5,0.5,95,134.0
1228,B1,153.5,0.5,95,134.0
1229,E3,153.75,0.25,95,134.0
1230,E2,154.0,0.25,95,134.0
1231,E2,154.0,2.0,95,134.0
1232,F#2,154.0,0.25,95,134.0
1233,B1,154.0,0.25,95,134.0
1234,E2,154.25,0.25,95,134.0
1235,D2,154.25,0.25,63,134.0
1236,B2,154.5,0.25,95,134.0
1237,B-2,154.5,0.5,95,134.0
1238,B1,154.5,0.5,95,134.0
1239,E2,154.75,0.25,95,134.0
1240,B2,155.0,0.25,95,134.0
1241,B-2,155.0,0.5,95,134.0
1242,D2,155.0,0.5,95,134.0
1243,E2,155.25,0.25,95,134.0
1244,C3,155.5,0.25,95,134.0
1245,F#2,155.5,0.5,95,134.0
1246,E2,155.75,0.25,95,134.0
1247,E3,156.0,0.25,95,134.0
1248,E2,156.0,1.5,95,134.0
1249,F#2,156.0,0.5,95,134.0
1250,B1,156.0,0.5,95,134.0
1251,E2,156.25,0.25,95,134.0
1252,E2,156.5,0.25,95,134.0
1253,F#2,156.5,0.25,95,134.0
1254,B1,156.5,0.25,95,134.0
1255,E3,156.75,0.25,95,134.0
1256,B1,156.75,0.25,95,134.0
1257,E2,157.0,0.25,95,134.0
1258,F#2,157.0,0.5,95,134.0
1259,D2,157.0,0.5,95,134.0
1260,E3,157.25,0.25,95,134.0
1261,E2,157.5,0.25,95,134.0
1262,E2,157.5,0.5,95,134.0
1263,F#2,157.5,0.5,95,134.0
1264,B1,157.5,0.5,95,134.0
1265,E3,157.75,0.25,95,134.0
1266,E2,158.0,0.25,95,134.0
1267,E2,158.0,2.0,95,134.0
1268,F#2,158.0,0.25,95,134.0
1269,B1,158.0,0.25,95,134.0
1270,E2,158.25,0.25,95,134.0
1271,D2,158.25,0.25,63,134.0
1272,B2,158.5,0.25,95,134.0
1273,B-2,158.5,0.5,95,134.0
1274,B1,158.5,0.5,95,134.0
1275,E2,158.75,0.25,95,134.0
1276,B2,159.0,0.25,95,134.0
1277,B-2,159.0,0.5,95,134.0
1278,D2,159.0,0.5,95,134.0
1279,E2,159.25,0.25,95,134.0
1280,C3,159.5,0.25,95,134.0
1281,F#2,159.5,0.5,95,134.0
1282,E2,159.75,0.25,95,134.0
1283,E3,160.0,0.25,95,134.0
1284,E2,160.0,1.5,95,134.0
1285,G5,160.0,4.0,95,134.0
1286,F#2,160.0,0.5,95,134.0
1287,B1,160.0,0.5,95,134.0
1288,E2,160.25,0.25,95,134.0
1289,E2,160.5,0.25,95,134.0
1290,F#2,160.5,0.25,95,134.0
1291,B1,160.5,0.25,95,134.0
1292,E3,160.75,0.25,95,134.0
1293,B1,160.75,0.25,95,134.0
1294,E2,161.0,0.25,95,134.0
1295,F#2,161.0,0.5,95,134.0
1296,D2,161.0,0.5,95,134.0
1297,E3,161.25,0.25,95,134.0
1298,E2,161.5,0.25,95,134.0
1299,E2,161.5,0.5,95,134.0
1300,F#2,161.5,0.5,95,134.0
1301,B1,161.5,0.5,95,134.0
1302,E3,161.75,0.25,95,134.0
1303,E2,162.0,0.25,95,134.0
1304,E2,162.0,2.0,95,134.0
1305,F#2,162.0,0.25,95,134.0
1306,B1,162.0,0.25,95,134.0
1307,E2,162.25,0.25,95,134.0
1308,D2,162.25,0.25,63,134.0
1309,B2,162.5,0.25,95,134.0
1310,B-2,162.5,0.5,95,134.0
1311,B1,162.5,0.5,95,134.0
1312,E2,162.75,0.25,95,134.0
1313,B2,163.0,0.25,95,134.0
1314,B-2,163.0,0.5,95,134.0
1315,D2,163.0,0.5,95,134.0
1316,E2,163.25,0.25,95,134.0
1317,C3,163.5,0.25,95,134.0
1318,F#2,163.5,0.5,95,134.0
1319,E2,163.75,0.25,95,134.0
1320,E3,164.0,0.25,95,134.0
1321,E2,164.0,1.5,95,134.0
1322,F#2,164.0,0.5,95,134.0
1323,B1,164.0,0.5,95,134.0
1324,E2,164.25,0.25,95,134.0
1325,E2,164.5,0.25,95,134.0
1326,F#2,164.5,0.25,95,134.0
1327,B1,164.5,0.25,95,134.0
1328,E3,164.75,0.25,95,134.0
1329,B1,164.75,0.25,95,134.0
1330,E2,165.0,0.25,95,134.0
1331,F#2,165.0,0.5,95,134.0
1332,D2,165.0,0.5,95,134.0
1333,E3,165.25,0.25,95,134.0
1334,E2,165.5,0.25,95,134.0
1335,E2,165.5,0.5,95,134.0
1336,F#2,165.5,0.5,95,134.0
1337,B1,165.5,0.5,95,134.0
1338,E3,165.75,0.25,95,134.0
1339,E2,166.0,0.25,95,134.0
1340,E2,166.0,2.0,95,134.0
1341,F#2,166.0,0.25,95,134.0
1342,B1,166.0,0.25,95,134.0
1343,E2,166.25,0.25,95,134.0
1344,D2,166.25,0.25,63,134.0
1345,B2,166.5,0.25,95,134.0
1346,B-2,166.5,0.5,95,134.0
1347,B1,166.5,0.5,95,134.0
1348,E2,166.75,0.25,95,134.0
1349,B2,167.0,0.25,95,134.0
1350,B-2,167.0,0.5,95,134.0
1351,D2,167.0,0.5,95,134.0
1352,E2,167.25,0.25,95,134.0
1353,C3,167.5,0.25,95,134.0
1354,F#2,167.5,0.5,95,134.0
1355,E2,167.75,0.25,95,134.0
1356,E3,168.0,0.25,95,134.0
1357,E2,168.0,1.5,95,134.0
1358,F#2,168.0,0.5,95,134.0
1359,B1,168.0,0.5,95,134.0
1360,E2,168.25,0.25,95,134.0
1361,E2,168.5,0.25,95,134.0
1362,F#2,168.5,0.25,95,134.0
1363,B1,168.5,0.25,95,134.0
1364,E3,168.75,0.25,95,134.0
1365,B1,168.75,0.25,95,134.0
1366,E2,169.0,0.25,95,134.0
1367,F#2,169.0,0.5,95,134.0
1368,D2,169.0,0.5,95,134.0
1369,E3,169.25,0.25,95,134.0
1370,E2,169.5,0.25,95,134.0
1371,E2,169.5,0.5,95,134.0
1372,F#2,169.5,0.5,95,134.0
1373,B1,169.5,0.5,95,134.0
1374,E3,169.75,0.25,95,134.0
1375,E2,170.0,0.25,95,134.0
1376,E2,170.0,2.0,95,134.0
1377,F#2,170.0,0.25,95,134.0
1378,B1,170.0,0.25,95,134.0
1379,E2,170.25,0.25,95,134.0
1380,D2,170.25,0.25,63,134.0
1381,B2,170.5,0.25,95,134.0
1382,B-2,170.5,0.5,95,134.0
1383,B1,170.5,0.5,95,134.0
1384,E2,170.75,0.25,95,134.0
1385,B2,171.0,0.25,95,134.0
1386,B-2,171.0,0.5,95,134.0
1387,D2,171.0,0.5,95,134.0
1388,E2,171.25,0.25,95,134.0
1389,C3,171.5,0.25,95,134.0
1390,F#2,171.5,0.5,95,134.0
1391,E2,171.75,0.25,95,134.0
1392,E3,172.0,0.25,95,134.0
1393,E2,172.0,1.5,95,134.0
1394,F#2,172.0,0.5,95,134.0
1395,B1,172.0,0.5,95,134.0
1396,E2,172.25,0.25,95,134.0
1397,E2,172.5,0.25,95,134.0
1398,F#2,172.5,0.25,95,134.0
1399,B1,172.5,0.25,95,134.0
1400,E3,172.75,0.25,95,134.0
1401,B1,172.75,0.25,95,134.0
1402,E2,173.0,0.25,95,134.0
1403,F#2,173.0,0.5,95,134.0
1404,D2,173.0,0.5,95,134.0
1405,E3,173.25,0.25,95,134.0
1406,E2,173.5,0.25,95,134.0
1407,E2,173.5,0.5,95,134.0
1408,F#2,173.5,0.5,95,134.0
1409,B1,173.5,0.5,95,134.0
1410,E3,173.75,0.25,95,134.0
1411,E2,174.0,0.25,95,134.0
1412,E2,174.0,2.0,95,134.0
1413,F#2,174.0,0.25,95,134.0
1414,B1,174.0,0.25,95,134.0
1415,E2,174.25,0.25,95,134.0
1416,D2,174.25,0.25,63,134.0
1417,B2,174.5,0.25,95,134.0
1418,B-2,174.5,0.5,95,134.0
1419,B1,174.5,0.5,95,134.0
1420,E2,174.75,0.25,95,134.0
1421,B2,175.0,0.25,95,134.0
1422,B-2,175.0,0.5,95,134.0
1423,D2,175.0,0.5,95,134.0
1424,E2,175.25,0.25,95,134.0
1425,C3,175.5,0.25,95,134.0
1426,F#2,175.5,0.5,95,134.0
1427,E2,175.75,0.25,95,134.0
1428,E3,176.0,0.25,95,134.0
1429,E2,176.0,1.5,95,134.0
1430,G4,176.0,4.0,95,134.0
1431,F#2,176.0,0.5,95,134.0
1432,B1,176.0,0.5,95,134.0
1433,E2,176.25,0.25,95,134.0
1434,E2,176.5,0.25,95,134.0
1435,F#2,176.5,0.25,95,134.0
1436,B1,176.5,0.25,95,134.0
1437,E3,176.75,0.25,95,134.0
1438,B1,176.75,0.25,95,134.0
1439,E2,177.0,0.25,95,134.0
1440,F#2,177.0,0.5,95,134.0
1441,D2,177.0,0.5,95,134.0
1442,E3,177.25,0.25,95,134.0
1443,E2,177.5,0.25,95,134.0
1444,E2,177.5,0.5,95,134.0
1445,F#2,177.5,0.5,95,134.0
1446,B1,177.5,0.5,95,134.0
1447,E3,177.75,0.25,95,134.0
1448,E2,178.0,0.25,95,134.0
1449,E2,178.0,2.0,95,134.0
1450,F#2,178.0,0.25,95,134.0
1451,B1,178.0,0.25,95,134.0
1452,E2,178.25,0.25,95,134.0
1453,D2,178.25,0.25,63,134.0
1454,B2,178.5,0.25,95,134.0
1455,B-2,178.5,0.5,95,134.0
1456,B1,178.5,0.5,95,134.0
1457,E2,178.75,0.25,95,134.0
1458,B2,179.0,0.25,95,134.0
1459,B-2,179.0,0.5,95,134.0
1460,D2,179.0,0.5,95,134.0
1461,E2,179.25,0.25,95,134.0
1462,C3,179.5,0.25,95,134.0
1463,F#2,179.5,0.5,95,134.0
1464,E2,179.75,0.25,95,134.0
1465,E3,180.0,0.25,95,134.0
1466,E2,180.0,1.5,95,134.0
1467,G4,180.0,2.0,95,134.0
1468,F#2,180.0,0.5,95,134.0
1469,B1,180.0,0.5,95,134.0
1470,E2,180.25,0.25,95,134.0
1471,E2,180.5,0.25,95,134.0
1472,F#2,180.5,0.25,95,134.0
1473,B1,180.5,0.25,95,134.0
1474,E3,180.75,0.25,95,134.0
1475,B1,180.75,0.25,95,134.0
1476,E2,181.0,0.25,95,134.0
1477,F#2,181.0,0.5,95,134.0
1478,D2,181.0,0.5,95,134.0
1479,E3,181.25,0.25,95,134.0
1480,E2,181.5,0.25,95,134.0
1481,E2,181.5,0.5,95,134.0
1482,F#2,181.5,0.5,95,134.0
1483,B1,181.5,0.5,95,134.0
1484,E3,181.75,0.25,95,134.0
1485,E2,182.0,0.25,95,134.0
1486,E2,182.0,2.0,95,134.0
1487,F#2,182.0,0.25,95,134.0
1488,B1,182.0,0.25,95,134.0
1489,E2,182.25,0.25,95,134.0
1490,D2,182.25,0.25,63,134.0
1491,B2,182.5,0.25,95,134.0
1492,B-2,182.5,0.5,95,134.0
1493,B1,182.5,0.5,95,134.0
1494,E2,182.75,0.25,95,134.0
1495,B2,183.0,0.25,95,134.0
1496,B-2,183.0,0.5,95,134.0
1497,D2,183.0,0.5,95,134.0
1498,E2,183.25,0.25,95,134.0
1499,C3,183.5,0.25,95,134.0
1500,F#2,183.5,0.5,95,134.0
1501,E2,183.75,0.25,95,134.0
1502,E3,184.0,0.25,95,134.0
1503,E2,184.0,1.5,95,134.0
1504,G5,184.0,4.0,95,134.0
1505,F#2,184.0,0.5,95,134.0
1506,B1,184.0,0.5,95,134.0
1507,E2,184.25,0.25,95,134.0
1508,E2,184.5,0.25,95,134.0
1509,F#2,184.5,0.25,95,134.0
1510,B1,184.5,0.25,95,134.0
1511,E3,184.75,0.25,95,134.0
1512,B1,184.75,0.25,95,134.0
1513,E2,185.0,0.25,95,134.0
1514,F#2,185.0,0.5,95,134.0
1515,D2,185.0,0.5,95,134.0
1516,E3,185.25,0.25,95,134.0
1517,E2,185.5,0.25,95,134.0
1518,E2,185.5,0.5,95,134.0
1519,F#2,185.5,0.5,95,134.0
1520,B1,185.5,0.5,95,134.0
1521,E3,185.75,0.25,95,134.0
1522,E2,186.0,0.25,95,134.0
1523,E2,186.0,2.0,95,134.0
1524,F#2,186.0,0.25,95,134.0
1525,B1,186.0,0.25,95,134.0
1526,E2,186.25,0.25,95,134.0
1527,D2,186.25,0.25,63,134.0
1528,B2,186.5,0.25,95,134.0
1529,B-2,186.5,0.5,95,134.0
1530,B1,186.5,0.5,95,134.0
1531,E2,186.75,0.25,95,134.0
1532,B2,187.0,0.25,95,134.0
1533,B-2,187.0,0.5,95,134.0
1534,D2,187.0,0.5,95,134.0
1535,E2,187.25,0.25,95,134.0
1536,C3,187.5,0.25,95,134.0
1537,F#2,187.5,0.5,95,134.0
1538,E2,187.75,0.25,95,134.0
1539,E3,188.0,0.25,95,134.0
1540,E2,188.0,1.5,95,134.0
1541,F#2,188.0,0.5,95,134.0
1542,B1,188.0,0.5,95,134.0
1543,E2,188.25,0.25,95,134.0
1544,E2,188.5,0.25,95,134.0
1545,F#2,188.5,0.25,95,134.0
1546,B1,188.5,0.25,95,134.0
1547,E3,188.75,0.25,95,134.0
1548,B1,188.75,0.25,95,134.0
1549,E2,189.0,0.25,95,134.0
1550,F#2,189.0,0.5,95,134.0
1551,D2,189.0,0.5,95,134.0
1552,E3,189.25,0.25,95,134.0
1553,E2,189.5,0.25,95,134.0
1554,E2,189.5,0.5,95,134.0
1555,F#2,189.5,0.5,95,134.0
1556,B1,189.5,0.5,95,134.0
1557,E3,189.75,0.25,95,134.0
1558,E2,190.0,0.25,95,134.0
1559,E2,190.0,2.0,95,134.0
1560,F#2,190.0,0.25,95,134.0
1561,B1,190.0,0.25,95,134.0
1562,E2,190.25,0.25,95,134.0
1563,D2,190.25,0.25,63,134.0
1564,B2,190.5,0.25,95,134.0
1565,B-2,190.5,0.5,95,134.0
1566,B1,190.5,0.5,95,134.0
1567,E2,190.75,0.25,95,134.0
1568,B2,191.0,0.25,95,134.0
1569,B-2,191.0,0.5,95,134.0
1570,D2,191.0,0.5,95,134.0
1571,E2,191.25,0.25,95,134.0
1572,C3,191.5,0.25,95,134.0
1573,F#2,191.5,0.5,95,134.0
1574,E2,191.75,0.25,95,134.0
1575,E3,192.0,0.25,95,134.0
1576,E2,192.0,1.5,95,134.0
1577,G4,192.0,4.0,95,134.0
1578,F#2,192.0,0.5,95,134.0
1579,B1,192.0,0.5,95,134.0
1580,E2,192.25,0.25,95,134.0
1581,E2,192.5,0.25,95,134.0
1582,F#2,192.5,0.25,95,134.0
1583,B1,192.5,0.25,95,134.0
1584,E3,192.75,0.25,95,134.0
1585,B1,192.75,0.25,95,134.0
1586,E2,193.0,0.25,95,134.0
1587,F#2,193.0,0.5,95,134.0
1588,D2,193.0,0.5,95,134.0
1589,E3,193.25,0.25,95,134.0
1590,E2,193.5,0.25,95,134.0
1591,E2,193.5,0.5,95,134.0
1592,F#2,193.5,0.5,95,134.0
1593,B1,193.5,0.5,95,134.0
1594,E3,193.75,0.25,95,134.0
1595,E2,194.0,0.25,95,134.0
1596,E2,194.0,2.0,95,134.0
1597,F#2,194.0,0.25,95,134.0
1598,B1,194.0,0.25,95,134.0
1599,E2,194.25,0.25,95,134.0
1600,D2,194.25,0.25,63,134.0
1601,B2,194.5,0.25,95,134.0
1602,B-2,194.5,0.5,95,134.0
1603,B1,194.5,0.5,95,134.0
1604,E2,194.75,0.25,95,134.0
1605,B2,195.0,0.25,95,134.0
1606,B-2,195.0,0.5,95,134.0
1607,D2,195.0,0.5,95,134.0
1608,E2,195.25,0.25,95,134.0
1609,C3,195.5,0.25,95,134.0
1610,F#2,195.5,0.5,95,134.0
1611,E2,195.75,0.25,95,134.0
1612,E3,196.0,0.25,95,134.0
1613,E2,196.0,1.5,95,134.0
1614,G4,196.0,2.0,95,134.0
1615,F#2,196.0,0.5,95,134.0
1616,B1,196.0,0.5,95,134.0
1617,E2,196.25,0.25,95,134.0
1618,E2,196.5,0.25,95,134.0
1619,F#2,196.5,0.25,95,134.0
1620,B1,196.5,0.25,95,134.0
1621,E3,196.75,0.25,95,134.0
1622,B1,196.75,0.25,95,134.0
1623,E2,197.0,0.25,95,134.0
1624,F#2,197.0,0.5,95,134.0
1625,D2,197.0,0.5,95,134.0
1626,E3,197.25,0.25,95,134.0
1627,E2,197.5,0.25,95,134.0
1628,E2,197.5,0.5,95,134.0
1629,F#2,197.5,0.5,95,134.0
1630,B1,197.5,0.5,95,134.0
1631,E3,197.75,0.25,95,134.0
1632,E2,198.0,0.25,95,134.0
1633,E2,198.0,2.0,95,134.0
1634,F#2,198.0,0.25,95,134.0
1635,B1,198.0,0.25,95,134.0
1636,E2,198.25,0.25,95,134.0
1637,D2,198.25,0.25,63,134.0
1638,B2,198.5,0.25,95,134.0
1639,B-2,198.5,0.5,95,134.0
1640,B1,198.5,0.5,95,134.0
1641,E2,198.75,0.25,95,134.0
1642,B2,199.0,0.25,95,134.0
1643,B-2,199.0,0.5,95,134.0
1644,D2,199.0,0.5,95,134.0
1645,E2,199.25,0.25,95,134.0
1646,C3,199.5,0.25,95,134.0
1647,F#2,199.5,0.5,95,134.0
1648,E2,199.75,0.25,95,134.0
1649,E3,200.0,0.25,95,134.0
1650,E2,200.0,1.5,95,134.0
1651,F#2,200.0,0.5,95,134.0
1652,B1,200.0,0.5,95,134.0
1653,E2,200.25,0.25,95,134.0
1654,E2,200.5,0.25,95,134.0
1655,F#2,200.5,0.25,95,134.0
1656,B1,200.5,0.25,95,134.0
1657,E3,200.75,0.25,95,134.0
1658,B1,200.75,0.25,95,134.0
1659,E2,201.0,0.25,95,134.0
1660,F#2,201.0,0.5,95,134.0
1661,D2,201.0,0.5,95,134.0
1662,E3,201.25,0.25,95,134.0
1663,E2,201.5,0.25,95,134.0
1664,E2,201.5,0.5,95,134.0
1665,F#2,201.5,0.5,95,134.0
1666,B1,201.5,0.5,95,134.0
1667,E3,201.75,0.25,95,134.0
1668,E2,202.0,0.25,95,134.0
1669,E2,202.0,2.0,95,134.0
1670,F#2,202.0,0.25,95,134.0
1671,B1,202.0,0.25,95,134.0
1672,E2,202.25,0.25,95,134.0
1673,D2,202.25,0.25,63,134.0
1674,B2,202.5,0.25,95,134.0
1675,B-2,202.5,0.5,95,134.0
1676,B1,202.5,0.5,95,134.0
1677,E2,202.75,0.25,95,134.0
1678,B2,203.0,0.25,95,134.0
1679,B-2,203.0,0.5,95,134.0
1680,D2,203.0,0.5,95,134.0
1681,E2,203.25,0.25,95,134.0
1682,C3,203.5,0.25,95,134.0
1683,F#2,203.5,0.5,95,134.0
1684,E2,203.75,0.25,95,134.0
1685,E3,204.0,0.25,95,134.0
1686,E2,204.0,1.5,95,134.0
1687,F#2,204.0,0.5,95,134.0
1688,B1,204.0,0.5,95,134.0
1689,E2,204.25,0.25,95,134.0
1690,E2,204.5,0.25,95,134.0
1691,F#2,204.5,0.25,95,134.0
1692,B1,204.5,0.25,95,134.0
1693,E3,204.75,0.25,95,134.0
1694,B1,204.75,0.25,95,134.0
1695,E2,205.0,0.25,95,134.0
1696,F#2,205.0,0.5,95,134.0
1697,D2,205.0,0.5,95,134.0
1698,E3,205.25,0.25,95,134.0
1699,E2,205.5,0.25,95,134.0
1700,E2,205.5,0.5,95,134.0
1701,F#2,205.5,0.5,95,134.0
1702,B1,205.5,0.5,95,134.0
1703,E3,205.75,0.25,95,134.0
1704,E2,206.0,0.25,95,134.0
1705,E2,206.0,2.0,95,134.0
1706,F#2,206.0,0.25,95,134.0
1707,B1,206.0,0.25,95,134.0
1708,E2,206.25,0.25,95,134.0
1709,D2,206.25,0.25,63,134.0
1710,B2,206.5,0.25,95,134.0
1711,B-2,206.5,0.5,95,134.0
1712,B1,206.5,0.5,95,134.0
1713,E2,206.75,0.25,95,134.0
1714,B2,207.0,0.25,95,134.0
1715,B-2,207.0,0.5,95,134.0
1716,D2,207.0,0.5,95,134.0
1717,E2,207.25,0.25,95,134.0
1718,C3,207.5,0.25,95,134.0
1719,F#2,207.5,0.5,95,134.0
1720,E2,207.75,0.25,95,134.0
1721,G5,208.0,167/1000,95,134.0
1722,F#2,208.0,0.5,95,134.0
1723,B1,208.0,0.5,95,134.0
1724,A5,208.167,167/1000,95,134.0
1725,C6,208.333,167/1000,95,134.0
1726,A5,208.5,167/1000,95,134.0
1727,F#2,208.5,0.25,95,134.0
1728,B1,208.5,0.25,95,134.0
1729,B5,208.667,167/1000,95,134.0
1730,B1,208.75,0.25,95,134.0
1731,C6,208.833,167/1000,95,134.0
1732,B5,209.0,167/1000,95,134.0
1733,F#2,209.0,0.5,95,134.0
1734,D2,209.0,0.5,95,134.0
1735,A5,209.167,167/1000,95,134.0
1736,F#5,209.333,167/1000,95,134.0
1737,E5,209.5,167/1000,95,134.0
1738,F#2,209.5,0.5,95,134.0
1739,B1,209.5,0.5,95,134.0
1740,E-5,209.667,167/1000,95,134.0
1741,F#5,209.833,167/1000,95,134.0
1742,E5,210.0,167/1000,95,134.0
1743,F#2,210.0,0.25,95,134.0
1744,B1,210.0,0.25,95,134.0
1745,E-5,210.167,167/1000,95,134.0
1746,D2,210.25,0.25,63,134.0
1747,C#5,210.333,167/1000,95,134.0
1748,B4,210.5,167/1000,95,134.0
1749,B-2,210.5,0.5,95,134.0
1750,B1,210.5,0.5,95,134.0
1751,B-4,210.667,167/1000,95,134.0
1752,B4,210.833,167/1000,95,134.0
1753,C#5,211.0,167/1000,95,134.0
1754,B-2,211.0,0.5,95,134.0
1755,D2,211.0,0.5,95,134.0
1756,D5,211.167,167/1000,95,134.0
1757,C#5,211.333,167/1000,95,134.0
1758,B4,211.5,167/1000,95,134.0
1759,F#2,211.5,0.5,95,134.0
1760,B-4,211.667,167/1000,95,134.0
1761,B4,211.833,167/1000,95,134.0
1762,C#5,212.0,167/1000,95,134.0
1763,F#2,212.0,0.5,95,134.0
1764,B1,212.0,0.5,95,134.0
1765,D5,212.167,167/1000,95,134.0
1766,E-5,212.333,167/1000,95,134.0
1767,D5,212.5,167/1000,95,134.0
1768,F#2,212.5,0.25,95,134.0
1769,B1,212.5,0.25,95,134.0
1770,C#5,212.667,167/1000,95,134.0
1771,B1,212.75,0.25,95,134.0
1772,D5,212.833,167/1000,95,134.0
1773,F5,213.0,167/1000,95,134.0
1774,F#2,213.0,0.5,95,134.0
1775,D2,213.0,0.5,95,134.0
1776,D5,213.167,167/1000,95,134.0
1777,E5,213.333,167/1000,95,134.0
1778,F5,213.5,167/1000,95,134.0
1779,F#2,213.5,0.5,95,134.0
1780,B1,213.5,0.5,95,134.0
1781,E5,213.667,167/1000,95,134.0
1782,D5,213.833,167/1000,95,134.0
1783,C5,214.0,167/1000,95,134.0
1784,F#2,214.0,0.25,95,134.0
1785,B1,214.0,0.25,95,134.0
1786,B-4,214.167,167/1000,95,134.0
1787,D2,214.25,0.25,63,134.0
1788,A4,214.333,167/1000,95,134.0
1789,C5,214.5,167/1000,95,134.0
1790,B-2,214.5,0.5,95,134.0
1791,B1,214.5,0.5,95,134.0
1792,B-4,214.667,167/1000,95,134.0
1793,A4,214.833,167/1000,95,134.0
1794,G4,215.0,167/1000,95,134.0
1795,B-2,215.0,0.5,95,134.0
1796,D2,215.0,0.5,95,134.0
1797,F4,215.167,167/1000,95,134.0
1798,E4,215.333,167/1000,95,134.0
1799,F4,215.5,167/1000,95,134.0
1800,F#2,215.5,0.5,95,134.0
1801,G4,215.667,167/1000,95,134.0
1802,A4,215.833,167/1000,95,134.0
1803,G4,216.0,167/1000,95,134.0
1804,F#3,216.0,4.0,95,134.0
1805,F#2,216.0,0.5,95,134.0
1806,B1,216.0,0.5,95,134.0
1807,F4,216.167,167/1000,95,134.0
1808,E4,216.333,167/1000,95,134.0
1809,C5,216.5,167/1000,95,134.0
1810,F#2,216.5,0.25,95,134.0
1811,B1,216.5,0.25,95,134.0
1812,B-4,216.667,167/1000,95,134.0
1813,B1,216.75,0.25,95,134.0
1814,A4,216.833,167/1000,95,134.0
1815,G4,217.0,167/1000,95,134.0
1816,F#2,217.0,0.5,95,134.0
1817,D2,217.0,0.5,95,134.0
1818,F4,217.167,167/1000,95,134.0
1819,E4,217.333,167/1000,95,134.0
1820,F4,217.5,167/1000,95,134.0
1821,F#2,217.5,0.5,95,134.0
1822,B1,217.5,0.5,95,134.0
1823,G4,217.667,167/1000,95,134.0
1824,G#4,217.833,167/1000,95,134.0
1825,B-4,218.0,167/1000,95,134.0
1826,F#2,218.0,0.25,95,134.0
1827,B1,218.0,0.25,95,134.0
1828,B4,218.167,167/1000,95,134.0
1829,D2,218.25,0.25,63,134.0
1830,C#5,218.333,167/1000,95,134.0
1831,C5,218.5,167/1000,95,134.0
1832,B-2,218.5,0.5,95,134.0
1833,B1,218.5,0.5,95,134.0
1834,D5,218.667,167/1000,95,134.0
1835,E-5,218.833,167/1000,95,134.0
1836,D5,219.0,167/1000,95,134.0
1837,B-2,219.0,0.5,95,134.0
1838,D2,219.0,0.5,95,134.0
1839,C5,219.167,167/1000,95,134.0
1840,B4,219.333,167/1000,95,134.0
1841,F#5,219.5,0.5,95,134.0
1842,F#2,219.5,0.5,95,134.0
1843,F5,220.0,0.5,95,134.0
1844,F#3,220.0,4.0,95,134.0
1845,F#2,220.0,0.5,95,134.0
1846,B1,220.0,0.5,95,134.0
1847,E5,220.5,0.5,95,134.0
1848,F#2,220.5,0.25,95,134.0
1849,B1,220.5,0.25,95,134.0
1850,B1,220.75,0.25,95,134.0
1851,E-5,221.0,0.5,95,134.0
1852,F#2,221.0,0.5,95,134.0
1853,D2,221.0,0.5,95,134.0
1854,C5,221.5,0.5,95,134.0
1855,F#2,221.5,0.5,95,134.0
1856,B1,221.5,0.5,95,134.0
1857,B4,222.0,1.5,95,134.0
1858,F#2,222.0,0.25,95,134.0
1859,B1,222.0,0.25,95,134.0
1860,D2,222.25,0.25,63,134.0
1861,B-2,222.5,0.5,95,134.0
1862,B1,222.5,0.5,95,134.0
1863,B5,223.0,0.5,95,134.0
1864,B-2,223.0,0.5,95,134.0
1865,D2,223.0,0.5,95,134.0
1866,B4,223.5,0.5,95,134.0
1867,F#2,223.5,0.5,95,134.0
1868,B4,224.0,0.25,95,134.0
1869,F#3,224.0,6.0,95,134.0
1870,B4,224.25,0.75,95,134.0
1871,B4,225.0,0.75,95,134.0
1872,B4,225.75,0.75,95,134.0
1873,B4,226.5,0.75,95,134.0
1874,B3,227.25,59/1000,95,134.0
1875,B5,227.25,2.0,95,134.0
1876,B4,227.25,2.0,95,134.0
1877,F#2,230.0,0.75,95,134.0
1878,F#2,230.5,0.75,95,134.0
1879,F#1,230.75,49/1000,95,134.0
1880,E1,231.0,49/1000,95,134.0
1881,E1,231.25,49/1000,95,134.0
1882,E1,231.25,49/1000,95,134.0
1883,F#2,231.5,0.25,95,134.0
1884,E1,231.5,49/1000,95,134.0
1885,F#1,231.75,0.5,95,134.0
1886,E1,231.75,49/1000,95,134.0
1887,F#2,232.0,0.25,95,134.0
1888,E1,232.25,49/1000,95,134.0
1889,F#1,232.25,0.5,95,134.0
1890,E1,232.5,49/1000,95,134.0
1891,E1,232.75,49/1000,95,134.0
1892,E1,232.75,49/1000,95,134.0
1893,A2,233.0,0.5,95,134.0
1894,E1,233.0,49/1000,95,134.0
1895,E1,233.25,49/1000,95,134.0
1896,G2,233.5,49/1000,95,134.0
1897,A2,233.5,0.5,95,134.0
1898,E2,234.0,0.25,95,134.0
1899,G2,234.0,49/1000,95,134.0
1900,F#2,234.25,0.5,70,134.0
1901,E2,234.5,0.25,95,134.0
1902,F#1,234.75,0.25,95,134.0
1903,F#2,234.75,0.5,70,134.0
1904,E1,235.0,49/1000,95,134.0
1905,E1,235.25,49/1000,95,134.0
1906,F#1,235.25,0.25,95,134.0
1907,F#2,235.5,0.25,95,134.0
1908,E1,235.5,49/1000,95,134.0
1909,F#1,235.75,0.5,95,134.0
1910,E1,235.75,49/1000,95,134.0
1911,F#2,236.0,0.25,95,134.0
1912,E1,236.25,49/1000,95,134.0
1913,F#1,236.25,0.5,95,134.0
1914,E1,236.5,49/1000,95,134.0
1915,E1,236.75,49/1000,95,134.0
1916,E1,236.75,49/1000,95,134.0
1917,A2,237.0,0.5,95,134.0
1918,E1,237.0,49/1000,95,134.0
1919,E1,237.25,49/1000,95,134.0
1920,G2,237.5,49/1000,95,134.0
1921,A2,237.5,0.5,95,134.0
1922,F#2,237.5,0.25,111,134.0
1923,C2,237.5,0.25,111,134.0
1924,F#2,237.75,0.25,79,134.0
1925,E2,238.0,0.25,95,134.0
1926,G2,238.0,49/1000,95,134.0
1927,F#2,238.0,0.25,111,134.0
1928,C2,238.0,0.25,111,134.0
1929,F#2,238.25,0.5,70,134.0
1930,F#2,238.25,0.25,63,134.0
1931,E2,238.5,0.25,95,134.0
1932,E2,238.5,0.25,95,134.0
1933,F#1,238.75,0.25,95,134.0
1934,F#2,238.75,0.5,70,134.0
1935,F#2,238.75,0.25,79,134.0
1936,C2,238.75,0.25,79,134.0
1937,E1,239.0,49/1000,95,134.0
1938,F#2,239.0,0.25,47,134.0
1939,E1,239.25,49/1000,95,134.0
1940,F#2,239.25,0.25,47,134.0
1941,F#1,239.25,0.25,95,134.0
1942,F#2,239.5,0.25,95,134.0
1943,E1,239.5,49/1000,95,134.0
1944,F#2,239.5,0.25,111,134.0
1945,C2,239.5,0.25,111,134.0
1946,F#1,239.75,0.5,95,134.0
1947,F#2,239.75,0.25,63,134.0
1948,E1,239.75,49/1000,95,134.0
1949,F#2,240.0,0.25,79,134.0
1950,F#2,240.0,0.25,95,134.0
1951,E1,240.25,49/1000,95,134.0
1952,F#1,240.25,0.5,95,134.0
1953,F#2,240.25,0.25,71,134.0
1954,C2,240.25,0.25,71,134.0
1955,E1,240.5,49/1000,95,134.0
1956,E2,240.5,0.25,95,134.0
1957,E1,240.75,49/1000,95,134.0
1958,F#2,240.75,0.25,63,134.0
1959,E1,240.75,49/1000,95,134.0
1960,A2,241.0,0.5,95,134.0
1961,B-2,241.0,0.5,95,134.0
1962,E1,241.0,49/1000,95,134.0
1963,E1,241.25,49/1000,95,134.0
1964,G2,241.5,49/1000,95,134.0
1965,A2,241.5,0.5,95,134.0
1966,F#2,241.5,0.25,111,134.0
1967,C2,241.5,0.25,111,134.0
1968,F#2,241.75,0.25,63,134.0
1969,E2,242.0,0.25,95,134.0
1970,G2,242.0,49/1000,95,134.0
1971,F#2,242.0,0.25,111,134.0
1972,C2,242.0,0.25,111,134.0
1973,F#2,242.25,0.5,70,134.0
1974,F#2,242.25,0.25,63,134.0
1975,E2,242.5,0.25,95,134.0
1976,E2,242.5,0.25,95,134.0
1977,F#1,242.75,0.25,95,134.0
1978,F#2,242.75,0.5,70,134.0
1979,F#2,242.75,0.25,79,134.0
1980,C2,242.75,0.25,79,134.0
1981,E1,243.0,49/1000,95,134.0
1982,F#2,243.0,0.25,47,134.0
1983,E1,243.25,49/1000,95,134.0
1984,F#2,243.25,0.25,47,134.0
1985,F#1,243.25,0.25,95,134.0
1986,F#2,243.5,0.25,95,134.0
1987,E1,243.5,49/1000,95,134.0
1988,F#2,243.5,0.25,111,134.0
1989,C2,243.5,0.25,111,134.0
1990,F#1,243.75,0.5,95,134.0
1991,F#2,243.75,0.25,63,134.0
1992,E1,243.75,49/1000,95,134.0
1993,F#2,244.0,0.25,79,134.0
1994,F#2,244.0,0.25,95,134.0
1995,E1,244.25,49/1000,95,134.0
1996,F#1,244.25,0.5,95,134.0
1997,F#2,244.25,0.25,71,134.0
1998,C2,244.25,0.25,71,134.0
1999,E1,244.5,49/1000,95,134.0
2000,E2,244.5,0.25,95,134.0
2001,E1,244.75,49/1000,95,134.0
2002,F#2,244.75,0.25,63,134.0
2003,E1,244.75,49/1000,95,134.0
2004,A2,245.0,0.5,95,134.0
2005,B-2,245.0,0.5,95,134.0
2006,E1,245.0,49/1000,95,134.0
2007,E1,245.25,49/1000,95,134.0
2008,G2,245.5,49/1000,95,134.0
2009,A2,245.5,0.5,95,134.0
2010,F#2,245.5,0.25,111,134.0
2011,C2,245.5,0.25,111,134.0
2012,F#2,245.75,0.25,63,134.0
2013,E2,246.0,0.25,95,134.0
2014,G2,246.0,49/1000,95,134.0
2015,F#2,246.0,0.25,111,134.0
2016,C2,246.0,0.25,111,134.0
2017,F#2,246.25,0.5,70,134.0
2018,F#2,246.25,0.25,63,134.0
2019,E2,246.5,0.25,95,134.0
2020,E2,246.5,0.25,95,134.0
2021,F#1,246.75,0.25,95,134.0
2022,F#2,246.75,0.5,70,134.0
2023,F#2,246.75,0.25,79,134.0
2024,C2,246.75,0.25,79,134.0
2025,E1,247.0,49/1000,95,134.0
2026,F#2,247.0,0.25,47,134.0
2027,E1,247.25,49/1000,95,134.0
2028,F#2,247.25,0.25,47,134.0
2029,F#1,247.25,0.25,95,134.0
2030,F#2,247.5,0.25,95,134.0
2031,E1,247.5,49/1000,95,134.0
2032,F#2,247.5,0.25,111,134.0
2033,C2,247.5,0.25,111,134.0
2034,F#1,247.75,0.5,95,134.0
2035,F#2,247.75,0.25,63,134.0
2036,E1,247.75,49/1000,95,134.0
2037,F#2,248.0,0.25,79,134.0
2038,F#2,248.0,0.25,95,134.0
2039,E1,248.25,49/1000,95,134.0
2040,F#1,248.25,0.5,95,134.0
2041,F#2,248.25,0.25,71,134.0
2042,C2,248.25,0.25,71,134.0
2043,E1,248.5,49/1000,95,134.0
2044,E2,248.5,0.25,95,134.0
2045,E1,248.75,49/1000,95,134.0
2046,F#2,248.75,0.25,63,134.0
2047,E1,248.75,49/1000,95,134.0
2048,A2,249.0,0.5,95,134.0
2049,B-2,249.0,0.5,95,134.0
2050,E1,249.0,49/1000,95,134.0
2051,E1,249.25,49/1000,95,134.0
2052,G2,249.5,49/1000,95,134.0
2053,A2,249.5,0.5,95,134.0
2054,F#2,249.5,0.25,111,134.0
2055,C2,249.5,0.25,111,134.0
2056,F#2,249.75,0.25,63,134.0
2057,E2,250.0,0.25,95,134.0
2058,G2,250.0,49/1000,95,134.0
2059,F#2,250.0,0.25,111,134.0
2060,C2,250.0,0.25,111,134.0
2061,F#2,250.25,0.5,70,134.0
2062,F#2,250.25,0.25,63,134.0
2063,E2,250.5,0.25,95,134.0
2064,E2,250.5,0.25,95,134.0
2065,F#1,250.75,0.25,95,134.0
2066,F#2,250.75,0.5,70,134.0
2067,F#2,250.75,0.25,79,134.0
2068,C2,250.75,0.25,79,134.0
2069,E1,251.0,49/1000,95,134.0
2070,F#2,251.0,0.25,47,134.0
2071,E1,251.25,49/1000,95,134.0
2072,F#2,251.25,0.25,47,134.0
2073,F#1,251.25,0.25,95,134.0
2074,F#2,251.5,0.25,95,134.0
2075,E1,251.5,49/1000,95,134.0
2076,F#2,251.5,0.25,111,134.0
2077,C2,251.5,0.25,111,134.0
2078,F#1,251.75,0.5,95,134.0
2079,F#2,251.75,0.25,63,134.0
2080,E1,251.75,49/1000,95,134.0
2081,F#2,252.0,0.25,79,134.0
2082,F#2,252.0,0.25,95,134.0
2083,E1,252.25,49/1000,95,134.0
2084,F#1,252.25,0.5,95,134.0
2085,F#2,252.25,0.25,71,134.0
2086,C2,252.25,0.25,71,134.0
2087,E1,252.5,49/1000,95,134.0
2088,E2,252.5,0.25,95,134.0
2089,E1,252.75,49/1000,95,134.0
2090,F#2,252.75,0.25,63,134.0
2091,E1,252.75,49/1000,95,134.0
2092,A2,253.0,0.5,95,134.0
2093,B-2,253.0,0.5,95,134.0
2094,E1,253.0,49/1000,95,134.0
2095,E1,253.25,49/1000,95,134.0
2096,F#3,253.5,0.5,95,134.0
2097,G2,253.5,49/1000,95,134.0
2098,A2,253.5,0.5,95,134.0
2099,F#2,253.5,0.25,111,134.0
2100,C2,253.5,0.25,111,134.0
2101,F#2,253.75,0.25,63,134.0
2102,F#3,254.0,2.375,95,134.0
2103,E2,254.0,0.25,95,134.0
2104,G2,254.0,49/1000,95,134.0
2105,F#2,254.0,0.25,111,134.0
2106,C2,254.0,0.25,111,134.0
2107,F#2,254.25,0.5,70,134.0
2108,F#2,254.25,0.25,63,134.0
2109,E2,254.5,0.25,95,134.0
2110,E2,254.5,0.25,95,134.0
2111,F#1,254.75,0.25,95,134.0
2112,F#2,254.75,0.5,70,134.0
2113,F#2,254.75,0.25,79,134.0
2114,C2,254.75,0.25,79,134.0
2115,E1,255.0,49/1000,95,134.0
2116,F#2,255.0,0.25,47,134.0
2117,E1,255.25,49/1000,95,134.0
2118,F#2,255.25,0.25,47,134.0
2119,F#1,255.25,0.25,95,134.0
2120,F#2,255.5,0.25,95,134.0
2121,E1,255.5,49/1000,95,134.0
2122,F#2,255.5,0.25,111,134.0
2123,C2,255.5,0.25,111,134.0
2124,F#1,255.75,0.5,95,134.0
2125,F#2,255.75,0.25,63,134.0
2126,E1,255.75,49/1000,95,134.0
2127,F#2,256.0,0.25,79,134.0
2128,F#2,256.0,0.25,95,134.0
2129,E1,256.25,49/1000,95,134.0
2130,F#1,256.25,0.5,95,134.0
2131,F#2,256.25,0.25,71,134.0
2132,C2,256.25,0.25,71,134.0
2133,E1,256.5,49/1000,95,134.0
2134,E2,256.5,0.25,95,134.0
2135,E1,256.75,49/1000,95,134.0
2136,F#2,256.75,0.25,63,134.0
2137,E1,256.75,49/1000,95,134.0
2138,A2,257.0,0.5,95,134.0
2139,B-2,257.0,0.5,95,134.0
2140,E1,257.0,49/1000,95,134.0
2141,E1,257.25,49/1000,95,134.0
2142,F#3,257.5,0.5,95,134.0
2143,G2,257.5,49/1000,95,134.0
2144,A2,257.5,0.5,95,134.0
2145,F#2,257.5,0.25,111,134.0
2146,C2,257.5,0.25,111,134.0
2147,F#2,257.75,0.25,63,134.0
2148,F#3,258.0,2.375,95,134.0
2149,E2,258.0,0.25,95,134.0
2150,G2,258.0,49/1000,95,134.0
2151,F#2,258.0,0.25,111,134.0
2152,C2,258.0,0.25,111,134.0
2153,F#2,258.25,0.5,70,134.0
2154,F#2,258.25,0.25,63,134.0
2155,E2,258.5,0.25,95,134.0
2156,E2,258.5,0.25,95,134.0
2157,F#1,258.75,0.25,95,134.0
2158,F#2,258.75,0.5,70,134.0
2159,F#2,258.75,0.25,79,134.0
2160,C2,258.75,0.25,79,134.0
2161,E1,259.0,49/1000,95,134.0
2162,F#2,259.0,0.25,47,134.0
2163,E1,259.25,49/1000,95,134.0
2164,F#2,259.25,0.25,47,134.0
2165,F#1,259.25,0.25,95,134.0
2166,F#2,259.5,0.25,95,134.0
2167,E1,259.5,49/1000,95,134.0
2168,F#2,259.5,0.25,111,134.0
2169,C2,259.5,0.25,111,134.0
2170,F#1,259.75,0.5,95,134.0
2171,F#2,259.75,0.25,63,134.0
2172,E1,259.75,49/1000,95,134.0
2173,F#2,260.0,0.25,79,134.0
2174,F#2,260.0,0.25,95,134.0
2175,E1,260.25,49/1000,95,134.0
2176,F#1,260.25,0.5,95,134.0
2177,F#2,260.25,0.25,71,134.0
2178,C2,260.25,0.25,71,134.0
2179,E1,260.5,49/1000,95,134.0
2180,E2,260.5,0.25,95,134.0
2181,E1,260.75,49/1000,95,134.0
2182,F#2,260.75,0.25,63,134.0
2183,E1,260.75,49/1000,95,134.0
2184,A2,261.0,0.5,95,134.0
2185,B-2,261.0,0.5,95,134.0
2186,E1,261.0,49/1000,95,134.0
2187,E1,261.25,49/1000,95,134.0
2188,G2,261.5,49/1000,95,134.0
2189,A2,261.5,0.5,95,134.0
2190,F#2,261.5,0.25,111,134.0
2191,C2,261.5,0.25,111,134.0
2192,F#2,261.75,0.25,63,134.0
2193,E2,262.0,0.25,95,134.0
2194,G2,262.0,49/1000,95,134.0
2195,F#2,262.0,0.25,111,134.0
2196,C2,262.0,0.25,111,134.0
2197,F#2,262.25,0.5,70,134.0
2198,F#2,262.25,0.25,63,134.0
2199,E2,262.5,0.25,95,134.0
2200,E2,262.5,0.25,95,134.0
2201,F#1,262.75,0.25,95,134.0
2202,F#2,262.75,0.5,70,134.0
2203,F#2,262.75,0.25,79,134.0
2204,C2,262.75,0.25,79,134.0
2205,E1,263.0,49/1000,95,134.0
2206,F#2,263.0,0.25,47,134.0
2207,E1,263.25,49/1000,95,134.0
2208,F#2,263.25,0.25,47,134.0
2209,F#1,263.25,0.25,95,134.0
2210,F#2,263.5,0.25,95,134.0
2211,E1,263.5,49/1000,95,134.0
2212,F#2,263.5,0.25,111,134.0
2213,C2,263.5,0.25,111,134.0
2214,F#1,263.75,0.5,95,134.0
2215,F#2,263.75,0.25,63,134.0
2216,E1,263.75,49/1000,95,134.0
2217,F#2,264.0,0.25,79,134.0
2218,F#2,264.0,0.25,95,134.0
2219,E1,264.25,49/1000,95,134.0
2220,F#1,264.25,0.5,95,134.0
2221,F#2,264.25,0.25,71,134.0
2222,C2,264.25,0.25,71,134.0
2223,E1,264.5,49/1000,95,134.0
2224,E2,264.5,0.25,95,134.0
2225,E1,264.75,49/1000,95,134.0
2226,F#2,264.75,0.25,63,134.0
2227,E1,264.75,49/1000,95,134.0
2228,A2,265.0,0.5,95,134.0
2229,B-2,265.0,0.5,95,134.0
2230,E1,265.0,49/1000,95,134.0
2231,E1,265.25,49/1000,95,134.0
2232,G2,265.5,49/1000,95,134.0
2233,A2,265.5,0.5,95,134.0
2234,F#2,265.5,0.25,111,134.0
2235,C2,265.5,0.25,111,134.0
2236,F#2,265.75,0.25,63,134.0
2237,E2,266.0,0.25,95,134.0
2238,G2,266.0,49/1000,95,134.0
2239,F#2,266.0,0.25,111,134.0
2240,C2,266.0,0.25,111,134.0
2241,F#2,266.25,0.5,70,134.0
2242,F#2,266.25,0.25,63,134.0
2243,E2,266.5,0.25,95,134.0
2244,E2,266.5,0.25,95,134.0
2245,F#1,266.75,0.25,95,134.0
2246,F#2,266.75,0.5,70,134.0
2247,F#2,266.75,0.25,79,134.0
2248,C2,266.75,0.25,79,134.0
2249,E1,267.0,49/1000,95,134.0
2250,F#2,267.0,0.25,47,134.0
2251,E1,267.25,49/1000,95,134.0
2252,F#2,267.25,0.25,47,134.0
2253,F#1,267.25,0.25,95,134.0
2254,F#2,267.5,0.25,95,134.0
2255,E1,267.5,49/1000,95,134.0
2256,F#2,267.5,0.25,111,134.0
2257,C2,267.5,0.25,111,134.0
2258,F#1,267.75,0.5,95,134.0
2259,F#2,267.75,0.25,63,134.0
2260,E1,267.75,49/1000,95,134.0
2261,F#2,268.0,0.25,79,134.0
2262,F#2,268.0,0.25,95,134.0
2263,E1,268.25,49/1000,95,134.0
2264,F#1,268.25,0.5,95,134.0
2265,F#2,268.25,0.25,71,134.0
2266,C2,268.25,0.25,71,134.0
2267,E1,268.5,49/1000,95,134.0
2268,E2,268.5,0.25,95,134.0
2269,E1,268.75,49/1000,95,134.0
2270,F#2,268.75,0.25,63,134.0
2271,E1,268.75,49/1000,95,134.0
2272,A2,269.0,0.5,95,134.0
2273,B-2,269.0,0.5,95,134.0
2274,E1,269.0,49/1000,95,134.0
2275,E1,269.25,49/1000,95,134.0
2276,F#3,269.5,0.5,95,134.0
2277,G2,269.5,49/1000,95,134.0
2278,A2,269.5,0.5,95,134.0
2279,F#2,269.5,0.25,111,134.0
2280,C2,269.5,0.25,111,134.0
2281,F#2,269.75,0.25,63,134.0
2282,F#3,270.0,2.375,95,134.0
2283,E2,270.0,0.25,95,134.0
2284,G2,270.0,49/1000,95,134.0
2285,F#2,270.0,0.25,111,134.0
2286,C2,270.0,0.25,111,134.0
2287,F#2,270.25,0.5,70,134.0
2288,F#2,270.25,0.25,63,134.0
2289,E2,270.5,0.25,95,134.0
2290,E2,270.5,0.25,95,134.0
2291,F#1,270.75,0.25,95,134.0
2292,F#2,270.75,0.5,70,134.0
2293,F#2,270.75,0.25,79,134.0
2294,C2,270.75,0.25,79,134.0
2295,E1,271.0,49/1000,95,134.0
2296,F#2,271.0,0.25,47,134.0
2297,E1,271.25,49/1000,95,134.0
2298,F#2,271.25,0.25,47,134.0
2299,F#1,271.25,0.25,95,134.0
2300,F#2,271.5,0.25,95,134.0
2301,E1,271.5,49/1000,95,134.0
2302,F#2,271.5,0.25,111,134.0
2303,C2,271.5,0.25,111,134.0
2304,F#1,271.75,0.5,95,134.0
2305,F#2,271.75,0.25,63,134.0
2306,E1,271.75,49/1000,95,134.0
2307,F#2,272.0,0.25,79,134.0
2308,F#2,272.0,0.25,95,134.0
2309,E1,272.25,49/1000,95,134.0
2310,F#1,272.25,0.5,95,134.0
2311,F#2,272.25,0.25,71,134.0
2312,C2,272.25,0.25,71,134.0
2313,E1,272.5,49/1000,95,134.0
2314,E2,272.5,0.25,95,134.0
2315,E1,272.75,49/1000,95,134.0
2316,F#2,272.75,0.25,63,134.0
2317,E1,272.75,49/1000,95,134.0
2318,A2,273.0,0.5,95,134.0
2319,B-2,273.0,0.5,95,134.0
2320,E1,273.0,49/1000,95,134.0
2321,E1,273.25,49/1000,95,134.0
2322,F#3,273.5,0.5,95,134.0
2323,G2,273.5,49/1000,95,134.0
2324,A2,273.5,0.5,95,134.0
2325,F#2,273.5,0.25,111,134.0
2326,C2,273.5,0.25,111,134.0
2327,F#2,273.75,0.25,63,134.0
2328,F#3,274.0,2.375,95,134.0
2329,E2,274.0,0.25,95,134.0
2330,G2,274.0,49/1000,95,134.0
2331,F#2,274.0,0.25,111,134.0
2332,C2,274.0,0.25,111,134.0
2333,F#2,274.25,0.5,70,134.0
2334,F#2,274.25,0.25,63,134.0
2335,E2,274.5,0.25,95,134.0
2336,E2,274.5,0.25,95,134.0
2337,F#1,274.75,0.25,95,134.0
2338,F#2,274.75,0.5,70,134.0
2339,F#2,274.75,0.25,79,134.0
2340,C2,274.75,0.25,79,134.0
2341,E1,275.0,49/1000,95,134.0
2342,F#2,275.0,0.25,47,134.0
2343,E1,275.25,49/1000,95,134.0
2344,F#2,275.25,0.25,47,134.0
2345,F#1,275.25,0.25,95,134.0
2346,F#2,275.5,0.25,95,134.0
2347,E1,275.5,49/1000,95,134.0
2348,F#2,275.5,0.25,111,134.0
2349,C2,275.5,0.25,111,134.0
2350,F#1,275.75,0.5,95,134.0
2351,F#2,275.75,0.25,63,134.0
2352,E1,275.75,49/1000,95,134.0
2353,F#2,276.0,0.25,79,134.0
2354,F#2,276.0,0.25,95,134.0
2355,E1,276.25,49/1000,95,134.0
2356,F#1,276.25,0.5,95,134.0
2357,F#2,276.25,0.25,71,134.0
2358,C2,276.25,0.25,71,134.0
2359,E1,276.5,49/1000,95,134.0
2360,E2,276.5,0.25,95,134.0
2361,E1,276.75,49/1000,95,134.0
2362,F#2,276.75,0.25,63,134.0
2363,E1,276.75,49/1000,95,134.0
2364,A2,277.0,0.5,95,134.0
2365,B-2,277.0,0.5,95,134.0
2366,E1,277.0,49/1000,95,134.0
2367,E1,277.25,49/1000,95,134.0
2368,G2,277.5,49/1000,95,134.0
2369,A2,277.5,0.5,95,134.0
2370,F#2,277.5,0.25,111,134.0
2371,C2,277.5,0.25,111,134.0
2372,F#2,277.75,0.25,63,134.0
2373,E2,278.0,0.25,95,134.0
2374,G2,278.0,49/1000,95,134.0
2375,F#2,278.0,0.25,111,134.0
2376,C2,278.0,0.25,111,134.0
2377,F#2,278.25,0.5,70,134.0
2378,F#2,278.25,0.25,63,134.0
2379,E2,278.5,0.25,95,134.0
2380,E2,278.5,0.25,95,134.0
2381,F#1,278.75,0.25,95,134.0
2382,F#2,278.75,0.5,70,134.0
2383,F#2,278.75,0.25,79,134.0
2384,C2,278.75,0.25,79,134.0
2385,E1,279.0,49/1000,95,134.0
2386,F#2,279.0,0.25,47,134.0
2387,E1,279.25,49/1000,95,134.0
2388,F#2,279.25,0.25,47,134.0
2389,F#1,279.25,0.25,95,134.0
2390,F#2,279.5,0.25,95,134.0
2391,E1,279.5,49/1000,95,134.0
2392,F#2,279.5,0.25,111,134.0
2393,C2,279.5,0.25,111,134.0
2394,F#1,279.75,0.5,95,134.0
2395,F#2,279.75,0.25,63,134.0
2396,E1,279.75,49/1000,95,134.0
2397,F#2,280.0,0.25,79,134.0
2398,F#2,280.0,0.25,95,134.0
2399,E1,280.25,49/1000,95,134.0
2400,F#1,280.25,0.5,95,134.0
2401,F#2,280.25,0.25,71,134.0
2402,C2,280.25,0.25,71,134.0
2403,E1,280.5,49/1000,95,134.0
2404,E2,280.5,0.25,95,134.0
2405,E1,280.75,49/1000,95,134.0
2406,F#2,280.75,0.25,63,134.0
2407,E1,280.75,49/1000,95,134.0
2408,B4,281.0,1.0,95,134.0
2409,A2,281.0,0.5,95,134.0
2410,B-2,281.0,0.5,95,134.0
2411,E1,281.0,49/1000,95,134.0
2412,E1,281.25,49/1000,95,134.0
2413,G2,281.5,49/1000,95,134.0
2414,A2,281.5,0.5,95,134.0
2415,F#2,281.5,0.25,111,134.0
2416,C2,281.5,0.25,111,134.0
2417,F#2,281.75,0.25,63,134.0
2418,B4,282.0,1.0,95,134.0
2419,E2,282.0,0.25,95,134.0
2420,G2,282.0,49/1000,95,134.0
2421,F#2,282.0,0.25,111,134.0
2422,C2,282.0,0.25,111,134.0
2423,F#2,282.25,0.5,70,134.0
2424,F#2,282.25,0.25,63,134.0
2425,E2,282.5,0.25,95,134.0
2426,E2,282.5,0.25,95,134.0
2427,F#1,282.75,0.25,95,134.0
2428,F#2,282.75,0.5,70,134.0
2429,F#2,282.75,0.25,79,134.0
2430,C2,282.75,0.25,79,134.0
2431,B4,283.0,3.0,95,134.0
2432,E1,283.0,49/1000,95,134.0
2433,F#2,283.0,0.25,47,134.0
2434,E1,283.25,49/1000,95,134.0
2435,F#2,283.25,0.25,47,134.0
2436,F#1,283.25,0.25,95,134.0
2437,F#2,283.5,0.25,95,134.0
2438,E1,283.5,49/1000,95,134.0
2439,F#2,283.5,0.25,111,134.0
2440,C2,283.5,0.25,111,134.0
2441,F#1,283.75,0.5,95,134.0
2442,F#2,283.75,0.25,63,134.0
2443,E1,283.75,49/1000,95,134.0
2444,F#2,284.0,0.25,79,134.0
2445,F#2,284.0,0.25,95,134.0
2446,E1,284.25,49/1000,95,134.0
2447,F#1,284.25,0.5,95,134.0
2448,F#2,284.25,0.25,71,134.0
2449,C2,284.25,0.25,71,134.0
2450,E1,284.5,49/1000,95,134.0
2451,E2,284.5,0.25,95,134.0
2452,E1,284.75,49/1000,95,134.0
2453,F#2,284.75,0.25,63,134.0
2454,E1,284.75,49/1000,95,134.0
2455,A2,285.0,0.5,95,134.0
2456,B-2,285.0,0.5,95,134.0
2457,E1,285.0,49/1000,95,134.0
2458,E1,285.25,49/1000,95,134.0
2459,G2,285.5,49/1000,95,134.0
2460,A2,285.5,0.5,95,134.0
2461,F#2,285.5,0.25,111,134.0
2462,C2,285.5,0.25,111,134.0
2463,F#2,285.75,0.25,63,134.0
2464,B4,286.0,2.0,95,134.0
2465,E2,286.0,0.25,95,134.0
2466,G2,286.0,49/1000,95,134.0
2467,F#2,286.0,0.25,111,134.0
2468,C2,286.0,0.25,111,134.0
2469,F#2,286.25,0.5,70,134.0
2470,F#2,286.25,0.25,63,134.0
2471,E2,286.5,0.25,95,134.0
2472,E2,286.5,0.25,95,134.0
2473,F#1,286.75,0.25,95,134.0
2474,F#2,286.75,0.5,70,134.0
2475,F#2,286.75,0.25,79,134.0
2476,C2,286.75,0.25,79,134.0
2477,E1,287.0,49/1000,95,134.0
2478,F#2,287.0,0.25,47,134.0
2479,E1,287.25,49/1000,95,134.0
2480,F#2,287.25,0.25,47,134.0
2481,F#1,287.25,0.25,95,134.0
2482,F#2,287.5,0.25,95,134.0
2483,E1,287.5,49/1000,95,134.0
2484,F#2,287.5,0.25,111,134.0
2485,C2,287.5,0.25,111,134.0
2486,F#1,287.75,0.5,95,134.0
2487,F#2,287.75,0.25,63,134.0
2488,E1,287.75,49/1000,95,134.0
2489,F#2,288.0,0.25,79,134.0
2490,F#2,288.0,0.25,95,134.0
2491,B4,288.0,0.5,58,134.0
2492,B4,288.0,0.5,58,134.0
2493,B5,288.0,0.5,58,134.0
2494,E1,288.25,49/1000,95,134.0
2495,F#1,288.25,0.5,95,134.0
2496,F#2,288.25,0.25,71,134.0
2497,C2,288.25,0.25,71,134.0
2498,C5,288.5,0.125,95,134.0
2499,E1,288.5,49/1000,95,134.0
2500,E2,288.5,0.25,95,134.0
2501,B4,288.625,0.75,70,134.0
2502,E1,288.75,49/1000,95,134.0
2503,F#2,288.75,0.25,63,134.0
2504,E1,288.75,49/1000,95,134.0
2505,A2,289.0,0.5,95,134.0
2506,B-2,289.0,0.5,95,134.0
2507,E1,289.0,49/1000,95,134.0
2508,E1,289.25,49/1000,95,134.0
2509,A4,289.375,0.625,95,134.0
2510,G2,289.5,49/1000,95,134.0
2511,A2,289.5,0.5,95,134.0
2512,F#2,289.5,0.25,111,134.0
2513,C2,289.5,0.25,111,134.0
2514,F#2,289.75,0.25,63,134.0
2515,A4,290.0,1.5,95,134.0
2516,E2,290.0,0.25,95,134.0
2517,G2,290.0,49/1000,95,134.0
2518,F#2,290.0,0.25,111,134.0
2519,C2,290.0,0.25,111,134.0
2520,F#2,290.25,0.5,70,134.0
2521,F#2,290.25,0.25,63,134.0
2522,E2,290.5,0.25,95,134.0
2523,E2,290.5,0.25,95,134.0
2524,F#1,290.75,0.25,95,134.0
2525,F#2,290.75,0.5,70,134.0
2526,F#2,290.75,0.25,79,134.0
2527,C2,290.75,0.25,79,134.0
2528,E1,291.0,49/1000,95,134.0
2529,F#2,291.0,0.25,47,134.0
2530,E1,291.25,49/1000,95,134.0
2531,F#2,291.25,0.25,47,134.0
2532,F#1,291.25,0.25,95,134.0
2533,A4,291.5,2.0,95,134.0
2534,F#2,291.5,0.25,95,134.0
2535,E1,291.5,49/1000,95,134.0
2536,F#2,291.5,0.25,111,134.0
2537,C2,291.5,0.25,111,134.0
2538,F#1,291.75,0.5,95,134.0
2539,F#2,291.75,0.25,63,134.0
2540,E1,291.75,49/1000,95,134.0
2541,F#2,292.0,0.25,79,134.0
2542,F#2,292.0,0.25,95,134.0
2543,E1,292.25,49/1000,95,134.0
2544,F#1,292.25,0.5,95,134.0
2545,F#2,292.25,0.25,71,134.0
2546,C2,292.25,0.25,71,134.0
2547,E1,292.5,49/1000,95,134.0
2548,E2,292.5,0.25,95,134.0
2549,E1,292.75,49/1000,95,134.0
2550,F#2,292.75,0.25,63,134.0
2551,E1,292.75,49/1000,95,134.0
2552,A2,293.0,0.5,95,134.0
2553,B-2,293.0,0.5,95,134.0
2554,E1,293.0,49/1000,95,134.0
2555,E1,293.25,49/1000,95,134.0
2556,A4,293.5,0.5,95,134.0
2557,G2,293.5,49/1000,95,134.0
2558,A2,293.5,0.5,95,134.0
2559,F#2,293.5,0.25,111,134.0
2560,C2,293.5,0.25,111,134.0
2561,F#2,293.75,0.25,63,134.0
2562,E2,294.0,0.25,95,134.0
2563,G2,294.0,49/1000,95,134.0
2564,F#2,294.0,0.25,111,134.0
2565,C2,294.0,0.25,111,134.0
2566,F#2,294.25,0.5,70,134.0
2567,F#2,294.25,0.25,63,134.0
2568,E2,294.5,0.25,95,134.0
2569,E2,294.5,0.25,95,134.0
2570,F#1,294.75,0.25,95,134.0
2571,F#2,294.75,0.5,70,134.0
2572,F#2,294.75,0.25,79,134.0
2573,C2,294.75,0.25,79,134.0
2574,E1,295.0,49/1000,95,134.0
2575,F#2,295.0,0.25,47,134.0
2576,E1,295.25,49/1000,95,134.0
2577,F#2,295.25,0.25,47,134.0
2578,F#1,295.25,0.25,95,134.0
2579,F#2,295.5,0.25,95,134.0
2580,E1,295.5,49/1000,95,134.0
2581,F#2,295.5,0.25,111,134.0
2582,C2,295.5,0.25,111,134.0
2583,C#4,295.75,0.25,95,134.0
2584,F#1,295.75,0.5,95,134.0
2585,F#2,295.75,0.25,63,134.0
2586,E1,295.75,49/1000,95,134.0
2587,E4,296.0,1.5,95,134.0
2588,F#2,296.0,0.25,79,134.0
2589,F#2,296.0,0.25,95,134.0
2590,E1,296.25,49/1000,95,134.0
2591,F#1,296.25,0.5,95,134.0
2592,F#2,296.25,0.25,71,134.0
2593,C2,296.25,0.25,71,134.0
2594,E1,296.5,49/1000,95,134.0
2595,E2,296.5,0.25,95,134.0
2596,E1,296.75,49/1000,95,134.0
2597,F#2,296.75,0.25,63,134.0
2598,E1,296.75,49/1000,95,134.0
2599,A2,297.0,0.5,95,134.0
2600,B-2,297.0,0.5,95,134.0
2601,E1,297.0,49/1000,95,134.0
2602,E1,297.25,49/1000,95,134.0
2603,E4,297.5,0.125,95,134.0
2604,G2,297.5,49/1000,95,134.0
2605,A2,297.5,0.5,95,134.0
2606,F#2,297.5,0.25,111,134.0
2607,C2,297.5,0.25,111,134.0
2608,F#4,297.625,0.375,70,134.0
2609,F#2,297.75,0.25,63,134.0
2610,F#4,298.0,3.5,70,134.0
2611,E2,298.0,0.25,95,134.0
2612,G2,298.0,49/1000,95,134.0
2613,F#2,298.0,0.25,111,134.0
2614,C2,298.0,0.25,111,134.0
2615,F#2,298.25,0.5,70,134.0
2616,F#2,298.25,0.25,63,134.0
2617,E2,298.5,0.25,95,134.0
2618,E2,298.5,0.25,95,134.0
2619,F#1,298.75,0.25,95,134.0
2620,F#2,298.75,0.5,70,134.0
2621,F#2,298.75,0.25,79,134.0
2622,C2,298.75,0.25,79,134.0
2623,E1,299.0,49/1000,95,134.0
2624,F#2,299.0,0.25,47,134.0
2625,E1,299.25,49/1000,95,134.0
2626,F#2,299.25,0.25,47,134.0
2627,F#1,299.25,0.25,95,134.0
2628,F#2,299.5,0.25,95,134.0
2629,E1,299.5,49/1000,95,134.0
2630,F#2,299.5,0.25,111,134.0
2631,C2,299.5,0.25,111,134.0
2632,F#1,299.75,0.5,95,134.0
2633,F#2,299.75,0.25,63,134.0
2634,E1,299.75,49/1000,95,134.0
2635,F#2,300.0,0.25,79,134.0
2636,F#2,300.0,0.25,95,134.0
2637,E1,300.25,49/1000,95,134.0
2638,F#1,300.25,0.5,95,134.0
2639,F#2,300.25,0.25,71,134.0
2640,C2,300.25,0.25,71,134.0
2641,E1,300.5,49/1000,95,134.0
2642,E2,300.5,0.25,95,134.0
2643,E1,300.75,49/1000,95,134.0
2644,F#2,300.75,0.25,63,134.0
2645,E1,300.75,49/1000,95,134.0
2646,A2,301.0,0.5,95,134.0
2647,B-2,301.0,0.5,95,134.0
2648,E1,301.0,49/1000,95,134.0
2649,E1,301.25,49/1000,95,134.0
2650,E4,301.5,0.125,95,134.0
2651,G2,301.5,49/1000,95,134.0
2652,A2,301.5,0.5,95,134.0
2653,F#2,301.5,0.25,111,134.0
2654,C2,301.5,0.25,111,134.0
2655,F#4,301.625,0.125,95,134.0
2656,E4,301.75,0.125,95,134.0
2657,F#2,301.75,0.25,63,134.0
2658,F#4,301.875,0.125,95,134.0
2659,E4,302.0,0.125,95,134.0
2660,E2,302.0,0.25,95,134.0
2661,G2,302.0,49/1000,95,134.0
2662,F#2,302.0,0.25,111,134.0
2663,C2,302.0,0.25,111,134.0
2664,F#4,302.125,0.125,95,134.0
2665,E4,302.25,0.125,95,134.0
2666,F#2,302.25,0.5,70,134.0
2667,F#2,302.25,0.25,63,134.0
2668,F#4,302.375,0.125,95,134.0
2669,E4,302.5,0.125,95,134.0
2670,E2,302.5,0.25,95,134.0
2671,E2,302.5,0.25,95,134.0
2672,F#4,302.625,0.125,95,134.0
2673,E4,302.75,0.125,95,134.0
2674,F#1,302.75,0.25,95,134.0
2675,F#2,302.75,0.5,70,134.0
2676,F#2,302.75,0.25,79,134.0
2677,C2,302.75,0.25,79,134.0
2678,F#4,302.875,0.125,95,134.0
2679,E4,303.0,0.125,95,134.0
2680,E1,303.0,49/1000,95,134.0
2681,F#2,303.0,0.25,47,134.0
2682,F#4,303.125,0.125,95,134.0
2683,E4,303.25,0.125,95,134.0
2684,E1,303.25,49/1000,95,134.0
2685,F#2,303.25,0.25,47,134.0
2686,F#1,303.25,0.25,95,134.0
2687,F#4,303.375,31/250,95,134.0
2688,F#4,303.5,0.75,95,134.0
2689,F#2,303.5,0.25,95,134.0
2690,E1,303.5,49/1000,95,134.0
2691,F#2,303.5,0.25,111,134.0
2692,C2,303.5,0.25,111,134.0
2693,F#1,303.75,0.5,95,134.0
2694,F#2,303.75,0.25,63,134.0
2695,E1,303.75,49/1000,95,134.0
2696,F#2,304.0,0.25,79,134.0
2697,F#2,304.0,0.25,95,134.0
2698,E1,304.25,49/1000,95,134.0
2699,F#1,304.25,0.5,95,134.0
2700,F#2,304.25,0.25,71,134.0
2701,C2,304.25,0.25,71,134.0
2702,B4,304.5,0.5,95,134.0
2703,E1,304.5,49/1000,95,134.0
2704,E2,304.5,0.25,95,134.0
2705,E1,304.75,49/1000,95,134.0
2706,F#2,304.75,0.25,63,134.0
2707,E1,304.75,49/1000,95,134.0
2708,F#5,305.0,0.25,95,134.0
2709,A2,305.0,0.5,95,134.0
2710,B-2,305.0,0.5,95,134.0
2711,E1,305.0,49/1000,95,134.0
2712,C#5,305.25,0.25,95,134.0
2713,E1,305.25,49/1000,95,134.0
2714,E5,305.5,0.5,95,134.0
2715,G2,305.5,49/1000,95,134.0
2716,A2,305.5,0.5,95,134.0
2717,F#2,305.5,0.25,111,134.0
2718,C2,305.5,0.25,111,134.0
2719,F#2,305.75,0.25,63,134.0
2720,E5,306.0,0.5,95,134.0
2721,E2,306.0,0.25,95,134.0
2722,G2,306.0,49/1000,95,134.0
2723,F#2,306.0,0.25,111,134.0
2724,C2,306.0,0.25,111,134.0
2725,F#2,306.25,0.5,70,134.0
2726,F#2,306.25,0.25,63,134.0
2727,E5,306.5,0.75,95,134.0
2728,E2,306.5,0.25,95,134.0
2729,E2,306.5,0.25,95,134.0
2730,F#1,306.75,0.25,95,134.0
2731,F#2,306.75,0.5,70,134.0
2732,F#2,306.75,0.25,79,134.0
2733,C2,306.75,0.25,79,134.0
2734,E1,307.0,49/1000,95,134.0
2735,F#2,307.0,0.25,47,134.0
2736,E5,307.25,1.0,95,134.0
2737,E1,307.25,49/1000,95,134.0
2738,F#2,307.25,0.25,47,134.0
2739,F#1,307.25,0.25,95,134.0
2740,F#2,307.5,0.25,95,134.0
2741,E1,307.5,49/1000,95,134.0
2742,F#2,307.5,0.25,111,134.0
2743,C2,307.5,0.25,111,134.0
2744,F#1,307.75,0.5,95,134.0
2745,F#2,307.75,0.25,63,134.0
2746,E1,307.75,49/1000,95,134.0
2747,F#2,308.0,0.25,79,134.0
2748,F#2,308.0,0.25,95,134.0
2749,E1,308.25,49/1000,95,134.0
2750,F#1,308.25,0.5,95,134.0
2751,F#2,308.25,0.25,71,134.0
2752,C2,308.25,0.25,71,134.0
2753,B4,308.5,0.25,95,134.0
2754,E1,308.5,49/1000,95,134.0
2755,E2,308.5,0.25,95,134.0
2756,C#5,308.75,0.25,95,134.0
2757,E1,308.75,49/1000,95,134.0
2758,F#2,308.75,0.25,63,134.0
2759,E1,308.75,49/1000,95,134.0
2760,F#5,309.0,0.25,95,134.0
2761,A2,309.0,0.5,95,134.0
2762,B-2,309.0,0.5,95,134.0
2763,E1,309.0,49/1000,95,134.0
2764,C#5,309.25,0.25,95,134.0
2765,E1,309.25,49/1000,95,134.0
2766,E5,309.5,0.25,95,134.0
2767,G2,309.5,49/1000,95,134.0
2768,A2,309.5,0.5,95,134.0
2769,F#2,309.5,0.25,111,134.0
2770,C2,309.5,0.25,111,134.0
2771,B4,309.75,0.25,95,134.0
2772,F#2,309.75,0.25,63,134.0
2773,B4,310.0,0.25,95,134.0
2774,E2,310.0,0.25,95,134.0
2775,G2,310.0,49/1000,95,134.0
2776,F#2,310.0,0.25,111,134.0
2777,C2,310.0,0.25,111,134.0
2778,A4,310.25,0.25,95,134.0
2779,F#2,310.25,0.5,70,134.0
2780,F#2,310.25,0.25,63,134.0
2781,B4,310.5,0.25,95,134.0
2782,E2,310.5,0.25,95,134.0
2783,E2,310.5,0.25,95,134.0
2784,B4,310.75,0.5,95,134.0
2785,F#1,310.75,0.25,95,134.0
2786,F#2,310.75,0.5,70,134.0
2787,F#2,310.75,0.25,79,134.0
2788,C2,310.75,0.25,79,134.0
2789,E1,311.0,49/1000,95,134.0
2790,F#2,311.0,0.25,47,134.0
2791,A4,311.25,0.75,95,134.0
2792,E1,311.25,49/1000,95,134.0
2793,F#2,311.25,0.25,47,134.0
2794,F#1,311.25,0.25,95,134.0
2795,F#2,311.5,0.25,95,134.0
2796,E1,311.5,49/1000,95,134.0
2797,F#2,311.5,0.25,111,134.0
2798,C2,311.5,0.25,111,134.0
2799,F#1,311.75,0.5,95,134.0
2800,F#2,311.75,0.25,63,134.0
2801,E1,311.75,49/1000,95,134.0
2802,F#4,312.0,0.5,95,134.0
2803,F#2,312.0,0.25,79,134.0
2804,F#2,312.0,0.25,95,134.0
2805,E1,312.25,49/1000,95,134.0
2806,F#1,312.25,0.5,95,134.0
2807,F#2,312.25,0.25,71,134.0
2808,C2,312.25,0.25,71,134.0
2809,E1,312.5,49/1000,95,134.0
2810,E2,312.5,0.25,95,134.0
2811,E4,312.75,0.125,95,134.0
2812,E1,312.75,49/1000,95,134.0
2813,F#2,312.75,0.25,63,134.0
2814,E1,312.75,49/1000,95,134.0
2815,F#4,312.875,0.125,95,134.0
2816,F#4,313.0,0.25,95,134.0
2817,A2,313.0,0.5,95,134.0
2818,B-2,313.0,0.5,95,134.0
2819,E1,313.0,49/1000,95,134.0
2820,F#4,313.25,0.25,95,134.0
2821,E1,313.25,49/1000,95,134.0
2822,E4,313.5,0.5,95,134.0
2823,G2,313.5,49/1000,95,134.0
2824,A2,313.5,0.5,95,134.0
2825,F#2,313.5,0.25,111,134.0
2826,C2,313.5,0.25,111,134.0
2827,F#2,313.75,0.25,63,134.0
2828,E4,314.0,1.0,95,134.0
2829,E2,314.0,0.25,95,134.0
2830,G2,314.0,49/1000,95,134.0
2831,F#2,314.0,0.25,111,134.0
2832,C2,314.0,0.25,111,134.0
2833,F#2,314.25,0.5,70,134.0
2834,F#2,314.25,0.25,63,134.0
2835,E2,314.5,0.25,95,134.0
2836,E2,314.5,0.25,95,134.0
2837,F#1,314.75,0.25,95,134.0
2838,F#2,314.75,0.5,70,134.0
2839,F#2,314.75,0.25,79,134.0
2840,C2,314.75,0.25,79,134.0
2841,E4,315.0,0.25,95,134.0
2842,E1,315.0,49/1000,95,134.0
2843,F#2,315.0,0.25,47,134.0
2844,F#4,315.25,0.75,70,134.0
2845,E1,315.25,49/1000,95,134.0
2846,F#2,315.25,0.25,47,134.0
2847,F#1,315.25,0.25,95,134.0
2848,F#2,315.5,0.25,95,134.0
2849,E1,315.5,49/1000,95,134.0
2850,F#2,315.5,0.25,111,134.0
2851,C2,315.5,0.25,111,134.0
2852,F#1,315.75,0.5,95,134.0
2853,F#2,315.75,0.25,63,134.0
2854,E1,315.75,49/1000,95,134.0
2855,A4,316.0,0.25,95,134.0
2856,F#2,316.0,0.25,79,134.0
2857,F#2,316.0,0.25,95,134.0
2858,B4,316.25,0.375,70,134.0
2859,E1,316.25,49/1000,95,134.0
2860,F#1,316.25,0.5,95,134.0
2861,F#2,316.25,0.25,71,134.0
2862,C2,316.25,0.25,71,134.0
2863,E1,316.5,49/1000,95,134.0
2864,E2,316.5,0.25,95,134.0
2865,C5,316.625,0.125,95,134.0
2866,B4,316.75,0.125,70,134.0
2867,E1,316.75,49/1000,95,134.0
2868,F#2,316.75,0.25,63,134.0
2869,E1,316.75,49/1000,95,134.0
2870,A4,316.875,0.125,70,134.0
2871,B4,317.0,0.25,95,134.0
2872,A2,317.0,0.5,95,134.0
2873,B-2,317.0,0.5,95,134.0
2874,E1,317.0,49/1000,95,134.0
2875,B4,317.25,0.25,95,134.0
2876,E1,317.25,49/1000,95,134.0
2877,A4,317.5,0.5,95,134.0
2878,G2,317.5,49/1000,95,134.0
2879,A2,317.5,0.5,95,134.0
2880,F#2,317.5,0.25,111,134.0
2881,C2,317.5,0.25,111,134.0
2882,F#2,317.75,0.25,63,134.0
2883,A4,318.0,2.0,95,134.0
2884,E2,318.0,0.25,95,134.0
2885,G2,318.0,49/1000,95,134.0
2886,F#2,318.0,0.25,111,134.0
2887,C2,318.0,0.25,111,134.0
2888,F#2,318.25,0.5,70,134.0
2889,F#2,318.25,0.25,63,134.0
2890,E2,318.5,0.25,95,134.0
2891,E2,318.5,0.25,95,134.0
2892,F#1,318.75,0.25,95,134.0
2893,F#2,318.75,0.5,70,134.0
2894,F#2,318.75,0.25,79,134.0
2895,C2,318.75,0.25,79,134.0
2896,E1,319.0,49/1000,95,134.0
2897,F#2,319.0,0.25,47,134.0
2898,E1,319.25,49/1000,95,134.0
2899,F#2,319.25,0.25,47,134.0
2900,F#1,319.25,0.25,95,134.0
2901,F#2,319.5,0.25,95,134.0
2902,E1,319.5,49/1000,95,134.0
2903,F#2,319.5,0.25,111,134.0
2904,C2,319.5,0.25,111,134.0
2905,F#1,319.75,0.5,95,134.0
2906,F#2,319.75,0.25,63,134.0
2907,E1,319.75,49/1000,95,134.0
2908,A4,320.0,0.5,95,134.0
2909,F#2,320.0,0.25,79,134.0
2910,F#2,320.0,0.25,95,134.0
2911,E1,320.25,49/1000,95,134.0
2912,F#1,320.25,0.5,95,134.0
2913,F#2,320.25,0.25,71,134.0
2914,C2,320.25,0.25,71,134.0
2915,E1,320.5,49/1000,95,134.0
2916,E2,320.5,0.25,95,134.0
2917,E1,320.75,49/1000,95,134.0
2918,F#2,320.75,0.25,63,134.0
2919,E1,320.75,49/1000,95,134.0
2920,A2,321.0,0.5,95,134.0
2921,B-2,321.0,0.5,95,134.0
2922,E1,321.0,49/1000,95,134.0
2923,B3,321.25,0.25,95,134.0
2924,E1,321.25,49/1000,95,134.0
2925,B3,321.5,0.25,95,134.0
2926,G2,321.5,49/1000,95,134.0
2927,A2,321.5,0.5,95,134.0
2928,F#2,321.5,0.25,111,134.0
2929,C2,321.5,0.25,111,134.0
2930,C#4,321.75,0.25,70,134.0
2931,F#2,321.75,0.25,63,134.0
2932,C#4,322.0,0.25,95,134.0
2933,E2,322.0,0.25,95,134.0
2934,G2,322.0,49/1000,95,134.0
2935,F#2,322.0,0.25,111,134.0
2936,C2,322.0,0.25,111,134.0
2937,C#4,322.25,0.25,95,134.0
2938,F#2,322.25,0.5,70,134.0
2939,F#2,322.25,0.25,63,134.0
2940,C#4,322.5,2.375,95,134.0
2941,E2,322.5,0.25,95,134.0
2942,E2,322.5,0.25,95,134.0
2943,F#1,322.75,0.25,95,134.0
2944,F#2,322.75,0.5,70,134.0
2945,F#2,322.75,0.25,79,134.0
2946,C2,322.75,0.25,79,134.0
2947,E1,323.0,49/1000,95,134.0
2948,F#2,323.0,0.25,47,134.0
2949,E1,323.25,49/1000,95,134.0
2950,F#2,323.25,0.25,47,134.0
2951,F#1,323.25,0.25,95,134.0
2952,F#2,323.5,0.25,95,134.0
2953,E1,323.5,49/1000,95,134.0
2954,F#2,323.5,0.25,111,134.0
2955,C2,323.5,0.25,111,134.0
2956,F#1,323.75,0.5,95,134.0
2957,F#2,323.75,0.25,63,134.0
2958,E1,323.75,49/1000,95,134.0
2959,F#2,324.0,0.25,79,134.0
2960,F#2,324.0,0.25,95,134.0
2961,E1,324.25,49/1000,95,134.0
2962,F#1,324.25,0.5,95,134.0
2963,F#2,324.25,0.25,71,134.0
2964,C2,324.25,0.25,71,134.0
2965,E1,324.5,49/1000,95,134.0
2966,E2,324.5,0.25,95,134.0
2967,E1,324.75,49/1000,95,134.0
2968,F#2,324.75,0.25,63,134.0
2969,E1,324.75,49/1000,95,134.0
2970,B3,324.875,0.125,95,134.0
2971,C#4,325.0,0.125,70,134.0
2972,A2,325.0,0.5,95,134.0
2973,B-2,325.0,0.5,95,134.0
2974,E1,325.0,49/1000,95,134.0
2975,B3,325.125,0.125,70,134.0
2976,A3,325.25,0.75,95,134.0
2977,E1,325.25,49/1000,95,134.0
2978,G2,325.5,49/1000,95,134.0
2979,A2,325.5,0.5,95,134.0
2980,F#2,325.5,0.25,111,134.0
2981,C2,325.5,0.25,111,134.0
2982,F#2,325.75,0.25,63,134.0
2983,A3,326.0,3.0,95,134.0
2984,E2,326.0,0.25,95,134.0
2985,G2,326.0,49/1000,95,134.0
2986,F#2,326.0,0.25,111,134.0
2987,C2,326.0,0.25,111,134.0
2988,F#2,326.25,0.5,70,134.0
2989,F#2,326.25,0.25,63,134.0
2990,E2,326.5,0.25,95,134.0
2991,E2,326.5,0.25,95,134.0
2992,F#1,326.75,0.25,95,134.0
2993,F#2,326.75,0.5,70,134.0
2994,F#2,326.75,0.25,79,134.0
2995,C2,326.75,0.25,79,134.0
2996,E1,327.0,49/1000,95,134.0
2997,F#2,327.0,0.25,47,134.0
2998,E1,327.25,49/1000,95,134.0
2999,F#2,327.25,0.25,47,134.0
3000,F#1,327.25,0.25,95,134.0
3001,F#2,327.5,0.25,95,134.0
3002,E1,327.5,49/1000,95,134.0
3003,F#2,327.5,0.25,111,134.0
3004,C2,327.5,0.25,111,134.0
3005,F#1,327.75,0.5,95,134.0
3006,F#2,327.75,0.25,63,134.0
3007,E1,327.75,49/1000,95,134.0
3008,F#2,328.0,0.25,79,134.0
3009,F#2,328.0,0.25,95,134.0
3010,E1,328.25,49/1000,95,134.0
3011,F#1,328.25,0.5,95,134.0
3012,F#2,328.25,0.25,71,134.0
3013,C2,328.25,0.25,71,134.0
3014,E1,328.5,49/1000,95,134.0
3015,E2,328.5,0.25,95,134.0
3016,E1,328.75,49/1000,95,134.0
3017,F#2,328.75,0.25,63,134.0
3018,E1,328.75,49/1000,95,134.0
3019,B3,329.0,0.25,95,134.0
3020,A2,329.0,0.5,95,134.0
3021,B-2,329.0,0.5,95,134.0
3022,E1,329.0,49/1000,95,134.0
3023,C#4,329.25,0.25,70,134.0
3024,E1,329.25,49/1000,95,134.0
3025,E4,329.5,0.5,95,134.0
3026,G2,329.5,49/1000,95,134.0
3027,A2,329.5,0.5,95,134.0
3028,F#2,329.5,0.25,111,134.0
3029,C2,329.5,0.25,111,134.0
3030,F#2,329.75,0.25,63,134.0
3031,E4,330.0,1.5,95,134.0
3032,E2,330.0,0.25,95,134.0
3033,G2,330.0,49/1000,95,134.0
3034,F#2,330.0,0.25,111,134.0
3035,C2,330.0,0.25,111,134.0
3036,F#2,330.25,0.5,70,134.0
3037,F#2,330.25,0.25,63,134.0
3038,E2,330.5,0.25,95,134.0
3039,E2,330.5,0.25,95,134.0
3040,F#1,330.75,0.25,95,134.0
3041,F#2,330.75,0.5,70,134.0
3042,F#2,330.75,0.25,79,134.0
3043,C2,330.75,0.25,79,134.0
3044,E1,331.0,49/1000,95,134.0
3045,F#2,331.0,0.25,47,134.0
3046,E1,331.25,49/1000,95,134.0
3047,F#2,331.25,0.25,47,134.0
3048,F#1,331.25,0.25,95,134.0
3049,F#4,331.5,0.5,95,134.0
3050,F#2,331.5,0.25,95,134.0
3051,E1,331.5,49/1000,95,134.0
3052,F#2,331.5,0.25,111,134.0
3053,C2,331.5,0.25,111,134.0
3054,F#1,331.75,0.5,95,134.0
3055,F#2,331.75,0.25,63,134.0
3056,E1,331.75,49/1000,95,134.0
3057,C#4,332.0,2.0,95,134.0
3058,F#2,332.0,0.25,79,134.0
3059,F#2,332.0,0.25,95,134.0
3060,E1,332.25,49/1000,95,134.0
3061,F#1,332.25,0.5,95,134.0
3062,F#2,332.25,0.25,71,134.0
3063,C2,332.25,0.25,71,134.0
3064,E1,332.5,49/1000,95,134.0
3065,E2,332.5,0.25,95,134.0
3066,E1,332.75,49/1000,95,134.0
3067,F#2,332.75,0.25,63,134.0
3068,E1,332.75,49/1000,95,134.0
3069,A2,333.0,0.5,95,134.0
3070,B-2,333.0,0.5,95,134.0
3071,E1,333.0,49/1000,95,134.0
3072,E1,333.25,49/1000,95,134.0
3073,G2,333.5,49/1000,95,134.0
3074,A2,333.5,0.5,95,134.0
3075,F#2,333.5,0.25,111,134.0
3076,C2,333.5,0.25,111,134.0
3077,F#2,333.75,0.25,63,134.0
3078,C#4,334.0,1.75,95,134.0
3079,E2,334.0,0.25,95,134.0
3080,G2,334.0,49/1000,95,134.0
3081,F#2,334.0,0.25,111,134.0
3082,C2,334.0,0.25,111,134.0
3083,F#2,334.25,0.5,70,134.0
3084,F#2,334.25,0.25,63,134.0
3085,E2,334.5,0.25,95,134.0
3086,E2,334.5,0.25,95,134.0
3087,F#1,334.75,0.25,95,134.0
3088,F#2,334.75,0.5,70,134.0
3089,F#2,334.75,0.25,79,134.0
3090,C2,334.75,0.25,79,134.0
3091,E1,335.0,49/1000,95,134.0
3092,F#2,335.0,0.25,47,134.0
3093,E1,335.25,49/1000,95,134.0
3094,F#2,335.25,0.25,47,134.0
3095,F#1,335.25,0.25,95,134.0
3096,F#2,335.5,0.25,95,134.0
3097,E1,335.5,49/1000,95,134.0
3098,F#2,335.5,0.25,111,134.0
3099,C2,335.5,0.25,111,134.0
3100,C#4,335.75,0.5,95,134.0
3101,F#1,335.75,0.5,95,134.0
3102,F#2,335.75,0.25,63,134.0
3103,E1,335.75,49/1000,95,134.0
3104,A4,336.0,0.25,95,134.0
3105,F#2,336.0,0.25,79,134.0
3106,F#2,336.0,0.25,95,134.0
3107,C#4,336.25,0.5,95,134.0
3108,E1,336.25,49/1000,95,134.0
3109,F#1,336.25,0.5,95,134.0
3110,F#2,336.25,0.25,71,134.0
3111,C2,336.25,0.25,71,134.0
3112,A4,336.5,0.25,95,134.0
3113,E1,336.5,49/1000,95,134.0
3114,E2,336.5,0.25,95,134.0
3115,C#4,336.75,0.5,95,134.0
3116,E1,336.75,49/1000,95,134.0
3117,F#2,336.75,0.25,63,134.0
3118,E1,336.75,49/1000,95,134.0
3119,A4,337.0,0.25,95,134.0
3120,A2,337.0,0.5,95,134.0
3121,B-2,337.0,0.5,95,134.0
3122,E1,337.0,49/1000,95,134.0
3123,C#4,337.25,0.25,95,134.0
3124,E1,337.25,49/1000,95,134.0
3125,G2,337.5,49/1000,95,134.0
3126,A2,337.5,0.5,95,134.0
3127,G#4,337.5,0.5,95,134.0
3128,B3,337.5,0.5,95,134.0
3129,F#2,337.5,0.25,111,134.0
3130,C2,337.5,0.25,111,134.0
3131,F#2,337.75,0.25,63,134.0
3132,E2,338.0,0.25,95,134.0
3133,G2,338.0,49/1000,95,134.0
3134,G#4,338.0,3.5,95,134.0
3135,B3,338.0,3.5,95,134.0
3136,F#2,338.0,0.25,111,134.0
3137,C2,338.0,0.25,111,134.0
3138,F#2,338.25,0.5,70,134.0
3139,F#2,338.25,0.25,63,134.0
3140,E2,338.5,0.25,95,134.0
3141,E2,338.5,0.25,95,134.0
3142,F#1,338.75,0.25,95,134.0
3143,F#2,338.75,0.5,70,134.0
3144,F#2,338.75,0.25,79,134.0
3145,C2,338.75,0.25,79,134.0
3146,E1,339.0,49/1000,95,134.0
3147,F#2,339.0,0.25,47,134.0
3148,E1,339.25,49/1000,95,134.0
3149,F#2,339.25,0.25,47,134.0
3150,F#1,339.25,0.25,95,134.0
3151,F#2,339.5,0.25,95,134.0
3152,E1,339.5,49/1000,95,134.0
3153,F#2,339.5,0.25,111,134.0
3154,C2,339.5,0.25,111,134.0
3155,F#1,339.75,0.5,95,134.0
3156,F#2,339.75,0.25,63,134.0
3157,E1,339.75,49/1000,95,134.0
3158,F#2,340.0,0.25,79,134.0
3159,F#2,340.0,0.25,95,134.0
3160,E1,340.25,49/1000,95,134.0
3161,F#1,340.25,0.5,95,134.0
3162,F#2,340.25,0.25,71,134.0
3163,C2,340.25,0.25,71,134.0
3164,E1,340.5,49/1000,95,134.0
3165,E2,340.5,0.25,95,134.0
3166,E1,340.75,49/1000,95,134.0
3167,F#2,340.75,0.25,63,134.0
3168,E1,340.75,49/1000,95,134.0
3169,A2,341.0,0.5,95,134.0
3170,B-2,341.0,0.5,95,134.0
3171,E1,341.0,49/1000,95,134.0
3172,E1,341.25,49/1000,95,134.0
3173,G#4,341.5,0.5,95,134.0
3174,G2,341.5,49/1000,95,134.0
3175,A2,341.5,0.5,95,134.0
3176,F#2,341.5,0.25,111,134.0
3177,C2,341.5,0.25,111,134.0
3178,F#2,341.75,0.25,63,134.0
3179,G#4,342.0,1.625,95,134.0
3180,E2,342.0,0.25,95,134.0
3181,G2,342.0,49/1000,95,134.0
3182,F#2,342.0,0.25,111,134.0
3183,C2,342.0,0.25,111,134.0
3184,F#2,342.25,0.5,70,134.0
3185,F#2,342.25,0.25,63,134.0
3186,E2,342.5,0.25,95,134.0
3187,E2,342.5,0.25,95,134.0
3188,F#1,342.75,0.25,95,134.0
3189,F#2,342.75,0.5,70,134.0
3190,F#2,342.75,0.25,79,134.0
3191,C2,342.75,0.25,79,134.0
3192,E1,343.0,49/1000,95,134.0
3193,F#2,343.0,0.25,47,134.0
3194,E1,343.25,49/1000,95,134.0
3195,F#2,343.25,0.25,47,134.0
3196,F#1,343.25,0.25,95,134.0
3197,F#2,343.5,0.25,95,134.0
3198,E1,343.5,49/1000,95,134.0
3199,F#2,343.5,0.25,111,134.0
3200,C2,343.5,0.25,111,134.0
3201,G#4,343.625,0.25,95,134.0
3202,F#1,343.75,0.5,95,134.0
3203,F#2,343.75,0.25,63,134.0
3204,E1,343.75,49/1000,95,134.0
3205,F#4,344.0,0.125,95,134.0
3206,F#2,344.0,0.25,79,134.0
3207,F#2,344.0,0.25,95,134.0
3208,G#4,344.125,0.125,70,134.0
3209,F#4,344.25,0.75,70,134.0
3210,E1,344.25,49/1000,95,134.0
3211,F#1,344.25,0.5,95,134.0
3212,F#2,344.25,0.25,71,134.0
3213,C2,344.25,0.25,71,134.0
3214,E1,344.5,49/1000,95,134.0
3215,E2,344.5,0.25,95,134.0
3216,E1,344.75,49/1000,95,134.0
3217,F#2,344.75,0.25,63,134.0
3218,E1,344.75,49/1000,95,134.0
3219,G#4,345.0,1.0,95,134.0
3220,A2,345.0,0.5,95,134.0
3221,B-2,345.0,0.5,95,134.0
3222,E1,345.0,49/1000,95,134.0
3223,E1,345.25,49/1000,95,134.0
3224,G2,345.5,49/1000,95,134.0
3225,A2,345.5,0.5,95,134.0
3226,F#2,345.5,0.25,111,134.0
3227,C2,345.5,0.25,111,134.0
3228,F#2,345.75,0.25,63,134.0
3229,C#4,346.0,2.5,95,134.0
3230,E2,346.0,0.25,95,134.0
3231,G2,346.0,49/1000,95,134.0
3232,F#2,346.0,0.25,111,134.0
3233,C2,346.0,0.25,111,134.0
3234,F#2,346.25,0.5,70,134.0
3235,F#2,346.25,0.25,63,134.0
3236,E2,346.5,0.25,95,134.0
3237,E2,346.5,0.25,95,134.0
3238,F#1,346.75,0.25,95,134.0
3239,F#2,346.75,0.5,70,134.0
3240,F#2,346.75,0.25,79,134.0
3241,C2,346.75,0.25,79,134.0
3242,E1,347.0,49/1000,95,134.0
3243,F#2,347.0,0.25,47,134.0
3244,E1,347.25,49/1000,95,134.0
3245,F#2,347.25,0.25,47,134.0
3246,F#1,347.25,0.25,95,134.0
3247,F#2,347.5,0.25,95,134.0
3248,E1,347.5,49/1000,95,134.0
3249,F#2,347.5,0.25,111,134.0
3250,C2,347.5,0.25,111,134.0
3251,F#1,347.75,0.5,95,134.0
3252,F#2,347.75,0.25,63,134.0
3253,E1,347.75,49/1000,95,134.0
3254,F#2,348.0,0.25,79,134.0
3255,F#2,348.0,0.25,95,134.0
3256,E1,348.25,49/1000,95,134.0
3257,F#1,348.25,0.5,95,134.0
3258,F#2,348.25,0.25,71,134.0
3259,C2,348.25,0.25,71,134.0
3260,A4,348.5,0.5,95,134.0
3261,E1,348.5,49/1000,95,134.0
3262,E2,348.5,0.25,95,134.0
3263,E1,348.75,49/1000,95,134.0
3264,F#2,348.75,0.25,63,134.0
3265,E1,348.75,49/1000,95,134.0
3266,A5,349.0,0.5,95,134.0
3267,A2,349.0,0.5,95,134.0
3268,B-2,349.0,0.5,95,134.0
3269,E1,349.0,49/1000,95,134.0
3270,E1,349.25,49/1000,95,134.0
3271,G#5,349.5,0.5,95,134.0
3272,G2,349.5,49/1000,95,134.0
3273,A2,349.5,0.5,95,134.0
3274,F#2,349.5,0.25,111,134.0
3275,C2,349.5,0.25,111,134.0
3276,F#2,349.75,0.25,63,134.0
3277,G#5,350.0,0.5,95,134.0
3278,E2,350.0,0.25,95,134.0
3279,G2,350.0,49/1000,95,134.0
3280,F#2,350.0,0.25,111,134.0
3281,C2,350.0,0.25,111,134.0
3282,F#2,350.25,0.5,70,134.0
3283,F#2,350.25,0.25,63,134.0
3284,E2,350.5,0.25,95,134.0
3285,E2,350.5,0.25,95,134.0
3286,E5,350.5,0.25,95,134.0
3287,A4,350.5,0.25,95,134.0
3288,A4,350.75,0.25,95,134.0
3289,F#1,350.75,0.25,95,134.0
3290,F#2,350.75,0.5,70,134.0
3291,F#2,350.75,0.25,79,134.0
3292,C2,350.75,0.25,79,134.0
3293,E1,351.0,49/1000,95,134.0
3294,F#2,351.0,0.25,47,134.0
3295,E5,351.0,1.0,95,134.0
3296,B4,351.0,1.0,95,134.0
3297,E1,351.25,49/1000,95,134.0
3298,F#2,351.25,0.25,47,134.0
3299,F#1,351.25,0.25,95,134.0
3300,F#2,351.5,0.25,95,134.0
3301,E1,351.5,49/1000,95,134.0
3302,F#2,351.5,0.25,111,134.0
3303,C2,351.5,0.25,111,134.0
3304,F#1,351.75,0.5,95,134.0
3305,F#2,351.75,0.25,63,134.0
3306,E1,351.75,49/1000,95,134.0
3307,F#2,352.0,0.25,79,134.0
3308,F#2,352.0,0.25,95,134.0
3309,E5,352.0,0.25,95,134.0
3310,C5,352.0,0.25,95,134.0
3311,B4,352.25,83/1000,70,134.0
3312,E1,352.25,49/1000,95,134.0
3313,F#1,352.25,0.5,95,134.0
3314,F#2,352.25,0.25,71,134.0
3315,C2,352.25,0.25,71,134.0
3316,A4,352.333,83/1000,70,134.0
3317,F#4,352.417,83/1000,95,134.0
3318,E1,352.5,49/1000,95,134.0
3319,E2,352.5,0.25,95,134.0
3320,E-5,352.5,0.25,74,134.0
3321,E-6,352.5,0.25,74,134.0
3322,B4,352.5,0.25,74,134.0
3323,F#4,352.75,0.25,95,134.0
3324,E1,352.75,49/1000,95,134.0
3325,F#2,352.75,0.25,63,134.0
3326,E1,352.75,49/1000,95,134.0
3327,A4,353.0,1.0,95,134.0
3328,A2,353.0,0.5,95,134.0
3329,B-2,353.0,0.5,95,134.0
3330,E1,353.0,49/1000,95,134.0
3331,E1,353.25,49/1000,95,134.0
3332,F#3,353.5,0.5,95,134.0
3333,G2,353.5,49/1000,95,134.0
3334,A2,353.5,0.5,95,134.0
3335,F#2,353.5,0.25,111,134.0
3336,C2,353.5,0.25,111,134.0
3337,F#2,353.75,0.25,63,134.0
3338,A4,354.0,1.5,95,134.0
3339,F#3,354.0,2.375,95,134.0
3340,E2,354.0,0.25,95,134.0
3341,G2,354.0,49/1000,95,134.0
3342,F#2,354.0,0.25,111,134.0
3343,C2,354.0,0.25,111,134.0
3344,F#2,354.25,0.5,70,134.0
3345,F#2,354.25,0.25,63,134.0
3346,E2,354.5,0.25,95,134.0
3347,E2,354.5,0.25,95,134.0
3348,F#1,354.75,0.25,95,134.0
3349,F#2,354.75,0.5,70,134.0
3350,F#2,354.75,0.25,79,134.0
3351,C2,354.75,0.25,79,134.0
3352,E1,355.0,49/1000,95,134.0
3353,F#2,355.0,0.25,47,134.0
3354,E1,355.25,49/1000,95,134.0
3355,F#2,355.25,0.25,47,134.0
3356,F#1,355.25,0.25,95,134.0
3357,A4,355.5,0.5,95,134.0
3358,F#2,355.5,0.25,95,134.0
3359,E1,355.5,49/1000,95,134.0
3360,F#2,355.5,0.25,111,134.0
3361,C2,355.5,0.25,111,134.0
3362,F#1,355.75,0.5,95,134.0
3363,F#2,355.75,0.25,63,134.0
3364,E1,355.75,49/1000,95,134.0
3365,F#2,356.0,0.25,79,134.0
3366,F#2,356.0,0.25,95,134.0
3367,E1,356.25,49/1000,95,134.0
3368,F#1,356.25,0.5,95,134.0
3369,F#2,356.25,0.25,71,134.0
3370,C2,356.25,0.25,71,134.0
3371,E1,356.5,49/1000,95,134.0
3372,E2,356.5,0.25,95,134.0
3373,E1,356.75,49/1000,95,134.0
3374,F#2,356.75,0.25,63,134.0
3375,E1,356.75,49/1000,95,134.0
3376,E3,357.0,0.25,95,134.0
3377,A2,357.0,0.5,95,134.0
3378,B-2,357.0,0.5,95,134.0
3379,E1,357.0,49/1000,95,134.0
3380,F#3,357.25,0.75,70,134.0
3381,E1,357.25,49/1000,95,134.0
3382,G2,357.5,49/1000,95,134.0
3383,A2,357.5,0.5,95,134.0
3384,F#2,357.5,0.25,111,134.0
3385,C2,357.5,0.25,111,134.0
3386,F#2,357.75,0.25,63,134.0
3387,A3,358.0,0.5,95,134.0
3388,E2,358.0,0.25,95,134.0
3389,G2,358.0,49/1000,95,134.0
3390,F#2,358.0,0.25,111,134.0
3391,C2,358.0,0.25,111,134.0
3392,F#2,358.25,0.5,70,134.0
3393,F#2,358.25,0.25,63,134.0
3394,B4,358.5,0.5,95,134.0
3395,E2,358.5,0.25,95,134.0
3396,E2,358.5,0.25,95,134.0
3397,F#1,358.75,0.25,95,134.0
3398,F#2,358.75,0.5,70,134.0
3399,F#2,358.75,0.25,79,134.0
3400,C2,358.75,0.25,79,134.0
3401,F#5,359.0,0.25,95,134.0
3402,E1,359.0,49/1000,95,134.0
3403,F#2,359.0,0.25,47,134.0
3404,C#5,359.25,0.25,95,134.0
3405,E1,359.25,49/1000,95,134.0
3406,F#2,359.25,0.25,47,134.0
3407,F#1,359.25,0.25,95,134.0
3408,E5,359.5,0.75,95,134.0
3409,F#2,359.5,0.25,95,134.0
3410,E1,359.5,49/1000,95,134.0
3411,F#2,359.5,0.25,111,134.0
3412,C2,359.5,0.25,111,134.0
3413,F#1,359.75,0.5,95,134.0
3414,F#2,359.75,0.25,63,134.0
3415,E1,359.75,49/1000,95,134.0
3416,F#2,360.0,0.25,79,134.0
3417,F#2,360.0,0.25,95,134.0
3418,F#5,360.25,0.25,95,134.0
3419,E1,360.25,49/1000,95,134.0
3420,F#1,360.25,0.5,95,134.0
3421,F#2,360.25,0.25,71,134.0
3422,C2,360.25,0.25,71,134.0
3423,E5,360.5,0.25,95,134.0
3424,E1,360.5,49/1000,95,134.0
3425,E2,360.5,0.25,95,134.0
3426,C#5,360.75,0.25,95,134.0
3427,E1,360.75,49/1000,95,134.0
3428,F#2,360.75,0.25,63,134.0
3429,E1,360.75,49/1000,95,134.0
3430,B4,361.0,0.25,95,134.0
3431,A2,361.0,0.5,95,134.0
3432,B-2,361.0,0.5,95,134.0
3433,E1,361.0,49/1000,95,134.0
3434,B4,361.25,0.25,95,134.0
3435,E1,361.25,49/1000,95,134.0
3436,A4,361.5,0.25,95,134.0
3437,F#3,361.5,0.5,95,134.0
3438,G2,361.5,49/1000,95,134.0
3439,A2,361.5,0.5,95,134.0
3440,F#2,361.5,0.25,111,134.0
3441,C2,361.5,0.25,111,134.0
3442,B4,361.75,0.25,95,134.0
3443,F#2,361.75,0.25,63,134.0
3444,B4,362.0,0.375,95,134.0
3445,F#3,362.0,2.375,95,134.0
3446,E2,362.0,0.25,95,134.0
3447,G2,362.0,49/1000,95,134.0
3448,F#2,362.0,0.25,111,134.0
3449,C2,362.0,0.25,111,134.0
3450,F#2,362.25,0.5,70,134.0
3451,F#2,362.25,0.25,63,134.0
3452,A4,362.375,0.125,95,134.0
3453,B4,362.5,0.25,95,134.0
3454,E2,362.5,0.25,95,134.0
3455,E2,362.5,0.25,95,134.0
3456,B4,362.75,0.5,95,134.0
3457,F#1,362.75,0.25,95,134.0
3458,F#2,362.75,0.5,70,134.0
3459,F#2,362.75,0.25,79,134.0
3460,C2,362.75,0.25,79,134.0
3461,E1,363.0,49/1000,95,134.0
3462,F#2,363.0,0.25,47,134.0
3463,A4,363.25,0.5,95,134.0
3464,E1,363.25,49/1000,95,134.0
3465,F#2,363.25,0.25,47,134.0
3466,F#1,363.25,0.25,95,134.0
3467,F#2,363.5,0.25,95,134.0
3468,E1,363.5,49/1000,95,134.0
3469,F#2,363.5,0.25,111,134.0
3470,C2,363.5,0.25,111,134.0
3471,F#4,363.75,0.5,95,134.0
3472,F#1,363.75,0.5,95,134.0
3473,F#2,363.75,0.25,63,134.0
3474,E1,363.75,49/1000,95,134.0
3475,F#2,364.0,0.25,79,134.0
3476,F#2,364.0,0.25,95,134.0
3477,A3,364.25,0.5,95,134.0
3478,E1,364.25,49/1000,95,134.0
3479,F#1,364.25,0.5,95,134.0
3480,F#2,364.25,0.25,71,134.0
3481,C2,364.25,0.25,71,134.0
3482,E1,364.5,49/1000,95,134.0
3483,E2,364.5,0.25,95,134.0
3484,A4,364.75,0.25,95,134.0
3485,E1,364.75,49/1000,95,134.0
3486,F#2,364.75,0.25,63,134.0
3487,E1,364.75,49/1000,95,134.0
3488,A2,365.0,0.5,95,134.0
3489,B-2,365.0,0.5,95,134.0
3490,E1,365.0,49/1000,95,134.0
3491,E-5,365.0,0.25,71,134.0
3492,B4,365.0,0.25,71,134.0
3493,B4,365.25,0.25,95,134.0
3494,E1,365.25,49/1000,95,134.0
3495,F#5,365.5,0.25,95,134.0
3496,G2,365.5,49/1000,95,134.0
3497,A2,365.5,0.5,95,134.0
3498,F#2,365.5,0.25,111,134.0
3499,C2,365.5,0.25,111,134.0
3500,B4,365.75,0.25,95,134.0
3501,F#2,365.75,0.25,63,134.0
3502,E5,366.0,0.25,95,134.0
3503,E2,366.0,0.25,95,134.0
3504,G2,366.0,49/1000,95,134.0
3505,F#2,366.0,0.25,111,134.0
3506,C2,366.0,0.25,111,134.0
3507,E5,366.25,0.75,95,134.0
3508,F#2,366.25,0.5,70,134.0
3509,F#2,366.25,0.25,63,134.0
3510,E2,366.5,0.25,95,134.0
3511,E2,366.5,0.25,95,134.0
3512,F#1,366.75,0.25,95,134.0
3513,F#2,366.75,0.5,70,134.0
3514,F#2,366.75,0.25,79,134.0
3515,C2,366.75,0.25,79,134.0
3516,B4,367.0,0.375,95,134.0
3517,E1,367.0,49/1000,95,134.0
3518,F#2,367.0,0.25,47,134.0
3519,E1,367.25,49/1000,95,134.0
3520,F#2,367.25,0.25,47,134.0
3521,F#1,367.25,0.25,95,134.0
3522,A4,367.375,0.125,95,134.0
3523,B4,367.5,0.25,95,134.0
3524,F#2,367.5,0.25,95,134.0
3525,E1,367.5,49/1000,95,134.0
3526,F#2,367.5,0.25,111,134.0
3527,C2,367.5,0.25,111,134.0
3528,B4,367.75,0.25,95,134.0
3529,F#1,367.75,0.5,95,134.0
3530,F#2,367.75,0.25,63,134.0
3531,E1,367.75,49/1000,95,134.0
3532,A4,368.0,1.0,95,134.0
3533,F#2,368.0,0.25,79,134.0
3534,F#2,368.0,0.25,95,134.0
3535,E1,368.25,49/1000,95,134.0
3536,F#1,368.25,0.5,95,134.0
3537,F#2,368.25,0.25,71,134.0
3538,C2,368.25,0.25,71,134.0
3539,E1,368.5,49/1000,95,134.0
3540,E2,368.5,0.25,95,134.0
3541,E1,368.75,49/1000,95,134.0
3542,F#2,368.75,0.25,63,134.0
3543,E1,368.75,49/1000,95,134.0
3544,A4,369.0,0.5,95,134.0
3545,A2,369.0,0.5,95,134.0
3546,B-2,369.0,0.5,95,134.0
3547,E1,369.0,49/1000,95,134.0
3548,E1,369.25,49/1000,95,134.0
3549,A4,369.5,0.5,95,134.0
3550,F#3,369.5,0.5,95,134.0
3551,G2,369.5,49/1000,95,134.0
3552,A2,369.5,0.5,95,134.0
3553,F#2,369.5,0.25,111,134.0
3554,C2,369.5,0.25,111,134.0
3555,F#2,369.75,0.25,63,134.0
3556,A4,370.0,1.0,95,134.0
3557,F#3,370.0,2.375,95,134.0
3558,E2,370.0,0.25,95,134.0
3559,G2,370.0,49/1000,95,134.0
3560,F#2,370.0,0.25,111,134.0
3561,C2,370.0,0.25,111,134.0
3562,F#2,370.25,0.5,70,134.0
3563,F#2,370.25,0.25,63,134.0
3564,E2,370.5,0.25,95,134.0
3565,E2,370.5,0.25,95,134.0
3566,F#1,370.75,0.25,95,134.0
3567,F#2,370.75,0.5,70,134.0
3568,F#2,370.75,0.25,79,134.0
3569,C2,370.75,0.25,79,134.0
3570,A4,371.0,0.5,95,134.0
3571,E1,371.0,49/1000,95,134.0
3572,F#2,371.0,0.25,47,134.0
3573,E1,371.25,49/1000,95,134.0
3574,F#2,371.25,0.25,47,134.0
3575,F#1,371.25,0.25,95,134.0
3576,A4,371.5,1.0,95,134.0
3577,F#2,371.5,0.25,95,134.0
3578,E1,371.5,49/1000,95,134.0
3579,F#2,371.5,0.25,111,134.0
3580,C2,371.5,0.25,111,134.0
3581,F#1,371.75,0.5,95,134.0
3582,F#2,371.75,0.25,63,134.0
3583,E1,371.75,49/1000,95,134.0
3584,F#2,372.0,0.25,79,134.0
3585,F#2,372.0,0.25,95,134.0
3586,E1,372.25,49/1000,95,134.0
3587,F#1,372.25,0.5,95,134.0
3588,F#2,372.25,0.25,71,134.0
3589,C2,372.25,0.25,71,134.0
3590,D5,372.5,0.5,95,134.0
3591,E1,372.5,49/1000,95,134.0
3592,E2,372.5,0.25,95,134.0
3593,E1,372.75,49/1000,95,134.0
3594,F#2,372.75,0.25,63,134.0
3595,E1,372.75,49/1000,95,134.0
3596,G#5,373.0,0.5,95,134.0
3597,A2,373.0,0.5,95,134.0
3598,B-2,373.0,0.5,95,134.0
3599,E1,373.0,49/1000,95,134.0
3600,E1,373.25,49/1000,95,134.0
3601,G#5,373.5,0.5,95,134.0
3602,G2,373.5,49/1000,95,134.0
3603,A2,373.5,0.5,95,134.0
3604,F#2,373.5,0.25,111,134.0
3605,C2,373.5,0.25,111,134.0
3606,F#2,373.75,0.25,63,134.0
3607,G#5,374.0,0.25,95,134.0
3608,E2,374.0,0.25,95,134.0
3609,G2,374.0,49/1000,95,134.0
3610,F#2,374.0,0.25,111,134.0
3611,C2,374.0,0.25,111,134.0
3612,A5,374.25,0.25,95,134.0
3613,F#2,374.25,0.5,70,134.0
3614,F#2,374.25,0.25,63,134.0
3615,G#5,374.5,0.25,95,134.0
3616,E2,374.5,0.25,95,134.0
3617,E2,374.5,0.25,95,134.0
3618,E5,374.75,0.25,95,134.0
3619,F#1,374.75,0.25,95,134.0
3620,F#2,374.75,0.5,70,134.0
3621,F#2,374.75,0.25,79,134.0
3622,C2,374.75,0.25,79,134.0
3623,E5,375.0,1.0,95,134.0
3624,E1,375.0,49/1000,95,134.0
3625,F#2,375.0,0.25,47,134.0
3626,E1,375.25,49/1000,95,134.0
3627,F#2,375.25,0.25,47,134.0
3628,F#1,375.25,0.25,95,134.0
3629,F#2,375.5,0.25,95,134.0
3630,E1,375.5,49/1000,95,134.0
3631,F#2,375.5,0.25,111,134.0
3632,C2,375.5,0.25,111,134.0
3633,F#1,375.75,0.5,95,134.0
3634,F#2,375.75,0.25,63,134.0
3635,E1,375.75,49/1000,95,134.0
3636,E5,376.0,0.25,95,134.0
3637,F#2,376.0,0.25,79,134.0
3638,F#2,376.0,0.25,95,134.0
3639,D5,376.25,0.25,95,134.0
3640,E1,376.25,49/1000,95,134.0
3641,F#1,376.25,0.5,95,134.0
3642,F#2,376.25,0.25,71,134.0
3643,C2,376.25,0.25,71,134.0
3644,C#5,376.5,167/1000,95,134.0
3645,E1,376.5,49/1000,95,134.0
3646,E2,376.5,0.25,95,134.0
3647,D5,376.667,167/1000,70,134.0
3648,E1,376.75,49/1000,95,134.0
3649,F#2,376.75,0.25,63,134.0
3650,E1,376.75,49/1000,95,134.0
3651,E5,376.833,167/1000,70,134.0
3652,F#5,377.0,167/1000,95,134.0
3653,A2,377.0,0.5,95,134.0
3654,B-2,377.0,0.5,95,134.0
3655,E1,377.0,49/1000,95,134.0
3656,E5,377.167,167/1000,95,134.0
3657,E1,377.25,49/1000,95,134.0
3658,D5,377.333,167/1000,70,134.0
3659,C#5,377.5,167/1000,70,134.0
3660,F#3,377.5,0.5,95,134.0
3661,G2,377.5,49/1000,95,134.0
3662,A2,377.5,0.5,95,134.0
3663,F#2,377.5,0.25,111,134.0
3664,C2,377.5,0.25,111,134.0
3665,D5,377.667,167/1000,70,134.0
3666,F#2,377.75,0.25,63,134.0
3667,E5,377.833,167/1000,70,134.0
3668,F#5,378.0,167/1000,95,134.0
3669,F#3,378.0,2.375,95,134.0
3670,E2,378.0,0.25,95,134.0
3671,G2,378.0,49/1000,95,134.0
3672,F#2,378.0,0.25,111,134.0
3673,C2,378.0,0.25,111,134.0
3674,A5,378.167,167/1000,95,134.0
3675,F#2,378.25,0.5,70,134.0
3676,F#2,378.25,0.25,63,134.0
3677,F#5,378.333,167/1000,70,134.0
3678,G#5,378.5,0.125,70,134.0
3679,E2,378.5,0.25,95,134.0
3680,E2,378.5,0.25,95,134.0
3681,A5,378.625,0.125,95,134.0
3682,G#5,378.75,0.125,70,134.0
3683,F#1,378.75,0.25,95,134.0
3684,F#2,378.75,0.5,70,134.0
3685,F#2,378.75,0.25,79,134.0
3686,C2,378.75,0.25,79,134.0
3687,F#5,378.875,0.125,70,134.0
3688,E5,379.0,0.125,95,134.0
3689,E1,379.0,49/1000,95,134.0
3690,F#2,379.0,0.25,47,134.0
3691,D5,379.125,0.125,70,134.0
3692,C#5,379.25,0.125,70,134.0
3693,E1,379.25,49/1000,95,134.0
3694,F#2,379.25,0.25,47,134.0
3695,F#1,379.25,0.25,95,134.0
3696,D5,379.375,0.125,70,134.0
3697,E5,379.5,0.125,70,134.0
3698,F#2,379.5,0.25,95,134.0
3699,E1,379.5,49/1000,95,134.0
3700,F#2,379.5,0.25,111,134.0
3701,C2,379.5,0.25,111,134.0
3702,F#5,379.625,0.125,95,134.0
3703,G#5,379.75,0.125,70,134.0
3704,F#1,379.75,0.5,95,134.0
3705,F#2,379.75,0.25,63,134.0
3706,E1,379.75,49/1000,95,134.0
3707,F#5,379.875,0.125,70,134.0
3708,E5,380.0,0.125,95,134.0
3709,F#2,380.0,0.25,79,134.0
3710,F#2,380.0,0.25,95,134.0
3711,F#5,380.125,0.125,95,134.0
3712,A5,380.25,0.125,95,134.0
3713,E1,380.25,49/1000,95,134.0
3714,F#1,380.25,0.5,95,134.0
3715,F#2,380.25,0.25,71,134.0
3716,C2,380.25,0.25,71,134.0
3717,F#5,380.375,0.125,70,134.0
3718,G#5,380.5,0.125,70,134.0
3719,E1,380.5,49/1000,95,134.0
3720,E2,380.5,0.25,95,134.0
3721,A5,380.625,0.125,95,134.0
3722,G#5,380.75,0.125,70,134.0
3723,E1,380.75,49/1000,95,134.0
3724,F#2,380.75,0.25,63,134.0
3725,E1,380.75,49/1000,95,134.0
3726,F#5,380.875,0.125,70,134.0
3727,E5,381.0,0.125,95,134.0
3728,A2,381.0,0.5,95,134.0
3729,B-2,381.0,0.5,95,134.0
3730,E1,381.0,49/1000,95,134.0
3731,D5,381.125,0.125,70,134.0
3732,C#5,381.25,0.125,70,134.0
3733,E1,381.25,49/1000,95,134.0
3734,D5,381.375,0.125,70,134.0
3735,E5,381.5,0.125,70,134.0
3736,G2,381.5,49/1000,95,134.0
3737,A2,381.5,0.5,95,134.0
3738,F#2,381.5,0.25,111,134.0
3739,C2,381.5,0.25,111,134.0
3740,F#5,381.625,0.125,95,134.0
3741,E5,381.75,0.125,95,134.0
3742,F#2,381.75,0.25,63,134.0
3743,D5,381.875,0.125,70,134.0
3744,C#5,382.0,0.125,70,134.0
3745,E2,382.0,0.25,95,134.0
3746,G2,382.0,49/1000,95,134.0
3747,F#2,382.0,0.25,111,134.0
3748,C2,382.0,0.25,111,134.0
3749,D5,382.125,0.125,70,134.0
3750,E5,382.25,0.125,70,134.0
3751,F#2,382.25,0.5,70,134.0
3752,F#2,382.25,0.25,63,134.0
3753,F#5,382.375,0.125,95,134.0
3754,G#5,382.5,0.125,70,134.0
3755,E2,382.5,0.25,95,134.0
3756,E2,382.5,0.25,95,134.0
3757,F#5,382.625,0.125,70,134.0
3758,E5,382.75,0.125,95,134.0
3759,F#1,382.75,0.25,95,134.0
3760,F#2,382.75,0.5,70,134.0
3761,F#2,382.75,0.25,79,134.0
3762,C2,382.75,0.25,79,134.0
3763,F#5,382.875,0.125,95,134.0
3764,A5,383.0,0.125,95,134.0
3765,E1,383.0,49/1000,95,134.0
3766,F#2,383.0,0.25,47,134.0
3767,F#5,383.125,0.125,70,134.0
3768,G#5,383.25,0.125,70,134.0
3769,E1,383.25,49/1000,95,134.0
3770,F#2,383.25,0.25,47,134.0
3771,F#1,383.25,0.25,95,134.0
3772,A5,383.375,0.125,95,134.0
3773,G#5,383.5,0.125,70,134.0
3774,F#2,383.5,0.25,95,134.0
3775,E1,383.5,49/1000,95,134.0
3776,F#2,383.5,0.25,111,134.0
3777,C2,383.5,0.25,111,134.0
3778,F#5,383.625,0.125,70,134.0
3779,E5,383.75,0.125,95,134.0
3780,F#1,383.75,0.5,95,134.0
3781,F#2,383.75,0.25,63,134.0
3782,E1,383.75,49/1000,95,134.0
3783,D5,383.875,0.125,95,134.0
3784,F#2,384.0,0.25,79,134.0
3785,F#2,384.0,0.25,95,134.0
3786,G#5,384.125,0.125,95,134.0
3787,A5,384.25,0.125,70,134.0
3788,E1,384.25,49/1000,95,134.0
3789,F#1,384.25,0.5,95,134.0
3790,F#2,384.25,0.25,71,134.0
3791,C2,384.25,0.25,71,134.0
3792,C6,384.375,0.125,70,134.0
3793,E5,384.5,167/1000,95,134.0
3794,E1,384.5,49/1000,95,134.0
3795,E2,384.5,0.25,95,134.0
3796,F#5,384.667,167/1000,70,134.0
3797,E1,384.75,49/1000,95,134.0
3798,F#2,384.75,0.25,63,134.0
3799,E1,384.75,49/1000,95,134.0
3800,G#5,384.833,167/1000,70,134.0
3801,C#6,385.0,167/1000,95,134.0
3802,A2,385.0,0.5,95,134.0
3803,B-2,385.0,0.5,95,134.0
3804,E1,385.0,49/1000,95,134.0
3805,A5,385.167,167/1000,95,134.0
3806,E1,385.25,49/1000,95,134.0
3807,F#5,385.333,167/1000,95,134.0
3808,C#6,385.5,167/1000,95,134.0
3809,F#3,385.5,0.5,95,134.0
3810,G2,385.5,49/1000,95,134.0
3811,A2,385.5,0.5,95,134.0
3812,F#2,385.5,0.25,111,134.0
3813,C2,385.5,0.25,111,134.0
3814,A5,385.667,167/1000,95,134.0
3815,F#2,385.75,0.25,63,134.0
3816,C#6,385.833,167/1000,95,134.0
3817,B5,386.0,167/1000,70,134.0
3818,F#3,386.0,2.375,95,134.0
3819,E2,386.0,0.25,95,134.0
3820,G2,386.0,49/1000,95,134.0
3821,F#2,386.0,0.25,111,134.0
3822,C2,386.0,0.25,111,134.0
3823,A5,386.167,167/1000,70,134.0
3824,F#2,386.25,0.5,70,134.0
3825,F#2,386.25,0.25,63,134.0
3826,F#5,386.333,167/1000,95,134.0
3827,G#5,386.5,167/1000,70,134.0
3828,E2,386.5,0.25,95,134.0
3829,E2,386.5,0.25,95,134.0
3830,A5,386.667,167/1000,70,134.0
3831,F#1,386.75,0.25,95,134.0
3832,F#2,386.75,0.5,70,134.0
3833,F#2,386.75,0.25,79,134.0
3834,C2,386.75,0.25,79,134.0
3835,B5,386.833,167/1000,95,134.0
3836,C#6,387.0,0.125,70,134.0
3837,E1,387.0,49/1000,95,134.0
3838,F#2,387.0,0.25,47,134.0
3839,B5,387.125,0.125,70,134.0
3840,A5,387.25,0.125,95,134.0
3841,E1,387.25,49/1000,95,134.0
3842,F#2,387.25,0.25,47,134.0
3843,F#1,387.25,0.25,95,134.0
3844,B5,387.375,0.125,95,134.0
3845,D6,387.5,0.5,95,134.0
3846,F#2,387.5,0.25,95,134.0
3847,E1,387.5,49/1000,95,134.0
3848,F#2,387.5,0.25,111,134.0
3849,C2,387.5,0.25,111,134.0
3850,F#1,387.75,0.5,95,134.0
3851,F#2,387.75,0.25,63,134.0
3852,E1,387.75,49/1000,95,134.0
3853,D6,388.0,0.375,95,134.0
3854,F#2,388.0,0.25,79,134.0
3855,F#2,388.0,0.25,95,134.0
3856,E1,388.25,49/1000,95,134.0
3857,F#1,388.25,0.5,95,134.0
3858,F#2,388.25,0.25,71,134.0
3859,C2,388.25,0.25,71,134.0
3860,D6,388.375,0.25,95,134.0
3861,E1,388.5,49/1000,95,134.0
3862,E2,388.5,0.25,95,134.0
3863,C#6,388.625,0.25,95,134.0
3864,E1,388.75,49/1000,95,134.0
3865,F#2,388.75,0.25,63,134.0
3866,E1,388.75,49/1000,95,134.0
3867,B5,388.875,167/1000,95,134.0
3868,A2,389.0,0.5,95,134.0
3869,B-2,389.0,0.5,95,134.0
3870,E1,389.0,49/1000,95,134.0
3871,D6,389.042,167/1000,95,134.0
3872,C#6,389.208,167/1000,70,134.0
3873,E1,389.25,49/1000,95,134.0
3874,D6,389.375,167/1000,95,134.0
3875,G2,389.5,49/1000,95,134.0
3876,A2,389.5,0.5,95,134.0
3877,F#2,389.5,0.25,111,134.0
3878,C2,389.5,0.25,111,134.0
3879,C#6,389.542,167/1000,70,134.0
3880,B5,389.708,167/1000,70,134.0
3881,F#2,389.75,0.25,63,134.0
3882,A5,389.875,0.125,95,134.0
3883,G#5,390.0,0.125,70,134.0
3884,E2,390.0,0.25,95,134.0
3885,G2,390.0,49/1000,95,134.0
3886,F#2,390.0,0.25,111,134.0
3887,C2,390.0,0.25,111,134.0
3888,F#5,390.125,0.125,70,134.0
3889,G#5,390.25,0.125,70,134.0
3890,F#2,390.25,0.5,70,134.0
3891,F#2,390.25,0.25,63,134.0
3892,A5,390.375,0.125,70,134.0
3893,B5,390.5,0.125,95,134.0
3894,E2,390.5,0.25,95,134.0
3895,E2,390.5,0.25,95,134.0
3896,D6,390.625,0.125,95,134.0
3897,B5,390.75,0.125,95,134.0
3898,F#1,390.75,0.25,95,134.0
3899,F#2,390.75,0.5,70,134.0
3900,F#2,390.75,0.25,79,134.0
3901,C2,390.75,0.25,79,134.0
3902,C#6,390.875,0.125,95,134.0
3903,D6,391.0,0.125,95,134.0
3904,E1,391.0,49/1000,95,134.0
3905,F#2,391.0,0.25,47,134.0
3906,B5,391.125,0.125,95,134.0
3907,D6,391.25,0.125,95,134.0
3908,E1,391.25,49/1000,95,134.0
3909,F#2,391.25,0.25,47,134.0
3910,F#1,391.25,0.25,95,134.0
3911,C#6,391.375,0.125,70,134.0
3912,B5,391.5,0.125,70,134.0
3913,F#2,391.5,0.25,95,134.0
3914,E1,391.5,49/1000,95,134.0
3915,F#2,391.5,0.25,111,134.0
3916,C2,391.5,0.25,111,134.0
3917,A5,391.625,0.125,95,134.0
3918,G#5,391.75,0.125,70,134.0
3919,F#1,391.75,0.5,95,134.0
3920,F#2,391.75,0.25,63,134.0
3921,E1,391.75,49/1000,95,134.0
3922,F#5,391.875,0.125,70,134.0
3923,D6,392.0,0.125,95,134.0
3924,F#2,392.0,0.25,79,134.0
3925,F#2,392.0,0.25,95,134.0
3926,C#6,392.125,0.125,70,134.0
3927,B5,392.25,0.125,70,134.0
3928,E1,392.25,49/1000,95,134.0
3929,F#1,392.25,0.5,95,134.0
3930,F#2,392.25,0.25,71,134.0
3931,C2,392.25,0.25,71,134.0
3932,A5,392.375,0.125,95,134.0
3933,G#5,392.5,0.125,70,134.0
3934,E1,392.5,49/1000,95,134.0
3935,E2,392.5,0.25,95,134.0
3936,F#5,392.625,0.125,70,134.0
3937,D6,392.75,0.125,95,134.0
3938,E1,392.75,49/1000,95,134.0
3939,F#2,392.75,0.25,63,134.0
3940,E1,392.75,49/1000,95,134.0
3941,C#6,392.875,0.125,70,134.0
3942,D6,393.0,0.125,95,134.0
3943,A2,393.0,0.5,95,134.0
3944,B-2,393.0,0.5,95,134.0
3945,E1,393.0,49/1000,95,134.0
3946,C#6,393.125,0.125,70,134.0
3947,D6,393.25,0.125,95,134.0
3948,E1,393.25,49/1000,95,134.0
3949,C#6,393.375,0.125,70,134.0
3950,B5,393.5,0.125,70,134.0
3951,F#3,393.5,0.5,95,134.0
3952,G2,393.5,49/1000,95,134.0
3953,A2,393.5,0.5,95,134.0
3954,F#2,393.5,0.25,111,134.0
3955,C2,393.5,0.25,111,134.0
3956,A5,393.625,0.125,95,134.0
3957,G#5,393.75,0.125,70,134.0
3958,F#2,393.75,0.25,63,134.0
3959,A5,393.875,0.125,95,134.0
3960,G#5,394.0,0.125,70,134.0
3961,F#3,394.0,2.375,95,134.0
3962,E2,394.0,0.25,95,134.0
3963,G2,394.0,49/1000,95,134.0
3964,F#2,394.0,0.25,111,134.0
3965,C2,394.0,0.25,111,134.0
3966,F#5,394.125,0.125,70,134.0
3967,F5,394.25,0.125,95,134.0
3968,F#2,394.25,0.5,70,134.0
3969,F#2,394.25,0.25,63,134.0
3970,D5,394.375,0.125,70,134.0
3971,B4,394.5,167/1000,95,134.0
3972,E2,394.5,0.25,95,134.0
3973,E2,394.5,0.25,95,134.0
3974,D5,394.667,167/1000,95,134.0
3975,F#1,394.75,0.25,95,134.0
3976,F#2,394.75,0.5,70,134.0
3977,F#2,394.75,0.25,79,134.0
3978,C2,394.75,0.25,79,134.0
3979,C#5,394.833,167/1000,70,134.0
3980,D5,395.0,167/1000,70,134.0
3981,E1,395.0,49/1000,95,134.0
3982,F#2,395.0,0.25,47,134.0
3983,C#5,395.167,167/1000,70,134.0
3984,E1,395.25,49/1000,95,134.0
3985,F#2,395.25,0.25,47,134.0
3986,F#1,395.25,0.25,95,134.0
3987,B4,395.333,167/1000,95,134.0
3988,C#5,395.5,1.25,95,134.0
3989,F#2,395.5,0.25,95,134.0
3990,E1,395.5,49/1000,95,134.0
3991,F#2,395.5,0.25,111,134.0
3992,C2,395.5,0.25,111,134.0
3993,F#1,395.75,0.5,95,134.0
3994,F#2,395.75,0.25,63,134.0
3995,E1,395.75,49/1000,95,134.0
3996,F#2,396.0,0.25,79,134.0
3997,F#2,396.0,0.25,95,134.0
3998,E1,396.25,49/1000,95,134.0
3999,F#1,396.25,0.5,95,134.0
4000,F#2,396.25,0.25,71,134.0
4001,C2,396.25,0.25,71,134.0
4002,E1,396.5,49/1000,95,134.0
4003,E2,396.5,0.25,95,134.0
4004,B4,396.75,0.25,95,134.0
4005,E1,396.75,49/1000,95,134.0
4006,F#2,396.75,0.25,63,134.0
4007,E1,396.75,49/1000,95,134.0
4008,C#5,397.0,0.25,95,134.0
4009,A2,397.0,0.5,95,134.0
4010,B-2,397.0,1.0,95,134.0
4011,E1,397.0,49/1000,95,134.0
4012,F#5,397.25,0.25,95,134.0
4013,E1,397.25,49/1000,95,134.0
4014,D5,397.5,0.25,95,134.0
4015,E2,397.5,0.5,95,134.0
4016,A2,397.5,0.5,95,134.0
4017,D5,397.75,0.25,95,134.0
4018,A4,398.0,1.0,95,134.0
4019,C#2,398.0,0.5,95,134.0
4020,F#3,401.5,0.5,95,134.0
4021,F#3,402.0,2.375,95,134.0
4022,C#3,404.5,0.25,95,134.0
4023,F#2,404.5,0.25,95,134.0
4024,F#2,404.5,0.5,95,134.0
4025,B1,404.5,0.5,95,134.0
4026,C#3,404.75,0.25,95,134.0
4027,F#2,404.75,0.25,95,134.0
4028,F#2,405.0,0.25,95,134.0
4029,B1,405.0,0.25,95,134.0
4030,B1,405.25,0.25,95,134.0
4031,C#3,405.25,0.25,95,134.0
4032,F#2,405.25,0.25,95,134.0
4033,F#2,405.5,0.5,95,134.0
4034,D2,405.5,0.5,95,134.0
4035,C#3,406.0,0.25,95,134.0
4036,F#2,406.0,0.25,95,134.0
4037,F#2,406.0,0.5,95,134.0
4038,B1,406.0,0.5,95,134.0
4039,C#3,406.25,0.25,95,134.0
4040,F#2,406.25,0.25,95,134.0
4041,F#2,406.5,0.25,95,134.0
4042,B1,406.5,0.25,95,134.0
4043,D2,406.75,0.25,63,134.0
4044,C#3,406.75,0.25,95,134.0
4045,F#2,406.75,0.25,95,134.0
4046,C#3,407.0,0.25,95,134.0
4047,F#2,407.0,0.25,95,134.0
4048,B-2,407.0,0.5,95,134.0
4049,B1,407.0,0.5,95,134.0
4050,C#3,407.25,0.25,95,134.0
4051,F#2,407.25,0.25,95,134.0
4052,D3,407.5,1.0,95,134.0
4053,G2,407.5,1.0,95,134.0
4054,B-2,407.5,0.5,95,134.0
4055,D2,407.5,0.5,95,134.0
4056,F#2,408.0,0.5,95,134.0
4057,C#3,408.5,0.25,95,134.0
4058,F#2,408.5,0.25,95,134.0
4059,F#2,408.5,0.5,95,134.0
4060,B1,408.5,0.5,95,134.0
4061,C#3,408.75,0.25,95,134.0
4062,F#2,408.75,0.25,95,134.0
4063,F#2,409.0,0.25,95,134.0
4064,B1,409.0,0.25,95,134.0
4065,B1,409.25,0.25,95,134.0
4066,C#3,409.25,0.25,95,134.0
4067,F#2,409.25,0.25,95,134.0
4068,F#2,409.5,0.5,95,134.0
4069,D2,409.5,0.5,95,134.0
4070,C#3,410.0,0.25,95,134.0
4071,F#2,410.0,0.25,95,134.0
4072,F#2,410.0,0.5,95,134.0
4073,B1,410.0,0.5,95,134.0
4074,C#3,410.25,0.25,95,134.0
4075,F#2,410.25,0.25,95,134.0
4076,F#2,410.5,0.25,95,134.0
4077,B1,410.5,0.25,95,134.0
4078,D2,410.75,0.25,63,134.0
4079,C#3,410.75,0.25,95,134.0
4080,F#2,410.75,0.25,95,134.0
4081,C#3,411.0,0.25,95,134.0
4082,F#2,411.0,0.25,95,134.0
4083,B-2,411.0,0.5,95,134.0
4084,B1,411.0,0.5,95,134.0
4085,C#3,411.25,0.25,95,134.0
4086,F#2,411.25,0.25,95,134.0
4087,C#3,411.5,1.0,95,134.0
4088,B-2,411.5,0.5,95,134.0
4089,D2,411.5,0.5,95,134.0
4090,F#2,412.0,0.5,95,134.0
4091,C#3,412.5,0.25,95,134.0
4092,F#2,412.5,0.25,95,134.0
4093,F#2,412.5,0.5,95,134.0
4094,B1,412.5,0.5,95,134.0
4095,C#3,412.75,0.25,95,134.0
4096,F#2,412.75,0.25,95,134.0
4097,F#2,413.0,0.25,95,134.0
4098,B1,413.0,0.25,95,134.0
4099,B1,413.25,0.25,95,134.0
4100,C#3,413.25,0.25,95,134.0
4101,F#2,413.25,0.25,95,134.0
4102,F#2,413.5,0.5,95,134.0
4103,D2,413.5,0.5,95,134.0
4104,C#3,414.0,0.25,95,134.0
4105,F#2,414.0,0.25,95,134.0
4106,F#2,414.0,0.5,95,134.0
4107,B1,414.0,0.5,95,134.0
4108,C#3,414.25,0.25,95,134.0
4109,F#2,414.25,0.25,95,134.0
4110,F#2,414.5,0.25,95,134.0
4111,B1,414.5,0.25,95,134.0
4112,D2,414.75,0.25,63,134.0
4113,C#3,414.75,0.25,95,134.0
4114,F#2,414.75,0.25,95,134.0
4115,C#3,415.0,0.25,95,134.0
4116,F#2,415.0,0.25,95,134.0
4117,B-2,415.0,0.5,95,134.0
4118,B1,415.0,0.5,95,134.0
4119,C#3,415.25,0.25,95,134.0
4120,F#2,415.25,0.25,95,134.0
4121,D3,415.5,1.0,95,134.0
4122,G2,415.5,1.0,95,134.0
4123,B-2,415.5,0.5,95,134.0
4124,D2,415.5,0.5,95,134.0
4125,F#2,416.0,0.5,95,134.0
4126,C#3,416.5,0.25,95,134.0
4127,F#2,416.5,0.25,95,134.0
4128,F#2,416.5,0.5,95,134.0
4129,B1,416.5,0.5,95,134.0
4130,C#3,416.75,0.25,95,134.0
4131,F#2,416.75,0.25,95,134.0
4132,F#2,417.0,0.25,95,134.0
4133,B1,417.0,0.25,95,134.0
4134,B1,417.25,0.25,95,134.0
4135,C#3,417.25,0.25,95,134.0
4136,F#2,417.25,0.25,95,134.0
4137,F#2,417.5,0.5,95,134.0
4138,D2,417.5,0.5,95,134.0
4139,C#3,418.0,0.25,95,134.0
4140,F#2,418.0,0.25,95,134.0
4141,F#2,418.0,0.5,95,134.0
4142,B1,418.0,0.5,95,134.0
4143,C#3,418.25,0.25,95,134.0
4144,F#2,418.25,0.25,95,134.0
4145,F#2,418.5,0.25,95,134.0
4146,B1,418.5,0.25,95,134.0
4147,D2,418.75,0.25,63,134.0
4148,C#3,418.75,0.25,95,134.0
4149,F#2,418.75,0.25,95,134.0
4150,C#3,419.0,0.25,95,134.0
4151,F#2,419.0,0.25,95,134.0
4152,B-2,419.0,0.5,95,134.0
4153,B1,419.0,0.5,95,134.0
4154,C#3,419.25,0.25,95,134.0
4155,F#2,419.25,0.25,95,134.0
4156,C#3,419.5,1.0,95,134.0
4157,B-2,419.5,0.5,95,134.0
4158,D2,419.5,0.5,95,134.0
4159,F#2,420.0,0.5,95,134.0
4160,C#3,420.5,0.25,95,134.0
4161,F#2,420.5,0.25,95,134.0
4162,F#2,420.5,0.5,95,134.0
4163,B1,420.5,0.5,95,134.0
4164,C#3,420.75,0.25,95,134.0
4165,F#2,420.75,0.25,95,134.0
4166,F#2,421.0,0.25,95,134.0
4167,B1,421.0,0.25,95,134.0
4168,B1,421.25,0.25,95,134.0
4169,C#3,421.25,0.25,95,134.0
4170,F#2,421.25,0.25,95,134.0
4171,F#2,421.5,0.5,95,134.0
4172,D2,421.5,0.5,95,134.0
4173,C#3,422.0,0.25,95,134.0
4174,F#2,422.0,0.25,95,134.0
4175,F#2,422.0,0.5,95,134.0
4176,B1,422.0,0.5,95,134.0
4177,C#3,422.25,0.25,95,134.0
4178,F#2,422.25,0.25,95,134.0
4179,F#2,422.5,0.25,95,134.0
4180,B1,422.5,0.25,95,134.0
4181,D2,422.75,0.25,63,134.0
4182,C#3,422.75,0.25,95,134.0
4183,F#2,422.75,0.25,95,134.0
4184,C#3,423.0,0.25,95,134.0
4185,F#2,423.0,0.25,95,134.0
4186,B-2,423.0,0.5,95,134.0
4187,B1,423.0,0.5,95,134.0
4188,C#3,423.25,0.25,95,134.0
4189,F#2,423.25,0.25,95,134.0
4190,D3,423.5,1.0,95,134.0
4191,G2,423.5,1.0,95,134.0
4192,B-2,423.5,0.5,95,134.0
4193,D2,423.5,0.5,95,134.0
4194,F#2,424.0,0.5,95,134.0
4195,C#3,424.5,0.25,95,134.0
4196,F#2,424.5,0.25,95,134.0
4197,F#2,424.5,0.5,95,134.0
4198,B1,424.5,0.5,95,134.0
4199,C#3,424.75,0.25,95,134.0
4200,F#2,424.75,0.25,95,134.0
4201,F#2,425.0,0.25,95,134.0
4202,B1,425.0,0.25,95,134.0
4203,B1,425.25,0.25,95,134.0
4204,C#3,425.25,0.25,95,134.0
4205,F#2,425.25,0.25,95,134.0
4206,F#2,425.5,0.5,95,134.0
4207,D2,425.5,0.5,95,134.0
4208,C#3,426.0,0.25,95,134.0
4209,F#2,426.0,0.25,95,134.0
4210,F#2,426.0,0.5,95,134.0
4211,B1,426.0,0.5,95,134.0
4212,C#3,426.25,0.25,95,134.0
4213,F#2,426.25,0.25,95,134.0
4214,F#2,426.5,0.25,95,134.0
4215,B1,426.5,0.25,95,134.0
4216,D2,426.75,0.25,63,134.0
4217,C#3,426.75,0.25,95,134.0
4218,F#2,426.75,0.25,95,134.0
4219,C#3,427.0,0.25,95,134.0
4220,F#2,427.0,0.25,95,134.0
4221,B-2,427.0,0.5,95,134.0
4222,B1,427.0,0.5,95,134.0
4223,C#3,427.25,0.25,95,134.0
4224,F#2,427.25,0.25,95,134.0
4225,C#3,427.5,1.0,95,134.0
4226,B-2,427.5,0.5,95,134.0
4227,D2,427.5,0.5,95,134.0
4228,F#2,428.0,0.5,95,134.0
4229,G#5,428.25,0.25,95,134.0
4230,G5,428.25,0.25,95,134.0
4231,C#3,428.5,0.25,95,134.0
4232,F#2,428.5,0.25,95,134.0
4233,G#5,428.5,4.0,95,134.0
4234,G5,428.5,4.0,95,134.0
4235,F#2,428.5,0.5,95,134.0
4236,B1,428.5,0.5,95,134.0
4237,C#3,428.75,0.25,95,134.0
4238,F#2,428.75,0.25,95,134.0
4239,F#2,429.0,0.25,95,134.0
4240,B1,429.0,0.25,95,134.0
4241,B1,429.25,0.25,95,134.0
4242,C#3,429.25,0.25,95,134.0
4243,F#2,429.25,0.25,95,134.0
4244,F#2,429.5,0.5,95,134.0
4245,D2,429.5,0.5,95,134.0
4246,C#3,430.0,0.25,95,134.0
4247,F#2,430.0,0.25,95,134.0
4248,F#2,430.0,0.5,95,134.0
4249,B1,430.0,0.5,95,134.0
4250,C#3,430.25,0.25,95,134.0
4251,F#2,430.25,0.25,95,134.0
4252,D3,430.5,0.125,79,134.0
4253,F#2,430.5,0.25,95,134.0
4254,B1,430.5,0.25,95,134.0
4255,G3,430.625,0.125,79,134.0
4256,D2,430.75,0.25,63,134.0
4257,C4,430.75,0.125,79,134.0
4258,C#3,430.75,0.25,95,134.0
4259,F#2,430.75,0.25,95,134.0
4260,E4,430.875,0.125,95,134.0
4261,E-4,431.0,0.125,95,134.0
4262,C#3,431.0,0.25,95,134.0
4263,F#2,431.0,0.25,95,134.0
4264,B-2,431.0,0.5,95,134.0
4265,B1,431.0,0.5,95,134.0
4266,D4,431.125,0.125,95,134.0
4267,C#4,431.25,0.125,95,134.0
4268,C#3,431.25,0.25,95,134.0
4269,F#2,431.25,0.25,95,134.0
4270,C4,431.375,0.125,95,134.0
4271,B3,431.5,0.125,95,134.0
4272,D3,431.5,1.0,95,134.0
4273,G2,431.5,1.0,95,134.0
4274,B-2,431.5,0.5,95,134.0
4275,D2,431.5,0.5,95,134.0
4276,B-3,431.625,0.125,95,134.0
4277,A3,431.75,0.125,95,134.0
4278,G#3,431.875,0.125,95,134.0
4279,F#2,432.0,0.5,95,134.0
4280,G3,432.0,0.125,95,134.0
4281,F#3,432.125,0.125,95,134.0
4282,F3,432.25,0.125,95,134.0
4283,E3,432.375,0.125,95,134.0
4284,E-3,432.5,0.125,95,134.0
4285,D3,432.625,0.125,95,134.0
4286,C#3,432.75,0.125,95,134.0
4287,C3,432.875,0.125,95,134.0
4288,B2,433.0,0.125,95,134.0
4289,B-2,433.125,0.125,95,134.0
4290,A2,433.25,0.125,95,134.0
4291,G#2,433.375,0.125,95,134.0
4292,G2,433.5,0.125,95,134.0
4293,F#2,433.625,0.125,95,134.0
4294,F2,433.75,0.5,95,134.0
4295,F#2,434.25,0.062,95,134.0
4296,G2,434.312,0.062,95,134.0
4297,A2,434.375,0.062,95,134.0
4298,B2,434.438,0.062,95,134.0
4299,C#3,434.5,0.062,95,134.0
4300,E-3,434.562,0.062,95,134.0
4301,F3,434.625,0.062,95,134.0
4302,G3,434.688,0.062,95,134.0
4303,A3,434.75,0.062,95,134.0
4304,B3,434.812,0.062,95,134.0
4305,C#4,434.875,0.062,95,134.0
4306,E-4,434.938,0.062,95,134.0
4307,E3,436.0,0.25,95,134.0
4308,E2,436.0,1.5,95,134.0
4309,F#2,436.0,0.5,95,134.0
4310,B1,436.0,0.5,95,134.0
4311,E2,436.25,0.25,95,134.0
4312,E2,436.5,0.25,95,134.0
4313,F#2,436.5,0.25,95,134.0
4314,B1,436.5,0.25,95,134.0
4315,E3,436.75,0.25,95,134.0
4316,B1,436.75,0.25,95,134.0
4317,E2,437.0,0.25,95,134.0
4318,F#2,437.0,0.5,95,134.0
4319,D2,437.0,0.5,95,134.0
4320,E3,437.25,0.25,95,134.0
4321,E2,437.5,0.25,95,134.0
4322,E2,437.5,0.5,95,134.0
4323,F#2,437.5,0.5,95,134.0
4324,B1,437.5,0.5,95,134.0
4325,E3,437.75,0.25,95,134.0
4326,E2,438.0,0.25,95,134.0
4327,E2,438.0,2.0,95,134.0
4328,F#2,438.0,0.25,95,134.0
4329,B1,438.0,0.25,95,134.0
4330,E2,438.25,0.25,95,134.0
4331,D2,438.25,0.25,63,134.0
4332,B2,438.5,0.25,95,134.0
4333,G#5,438.5,4.0,95,134.0
4334,G5,438.5,4.0,95,134.0
4335,B-2,438.5,0.5,95,134.0
4336,B1,438.5,0.5,95,134.0
4337,E2,438.75,0.25,95,134.0
4338,B2,439.0,0.25,95,134.0
4339,B-2,439.0,0.5,95,134.0
4340,D2,439.0,0.5,95,134.0
4341,E2,439.25,0.25,95,134.0
4342,C3,439.5,0.25,95,134.0
4343,F#2,439.5,0.5,95,134.0
4344,E2,439.75,0.25,95,134.0
4345,E3,440.0,0.25,95,134.0
4346,E2,440.0,1.5,95,134.0
4347,F#2,440.0,0.5,95,134.0
4348,B1,440.0,0.5,95,134.0
4349,E2,440.25,0.25,95,134.0
4350,E2,440.5,0.25,95,134.0
4351,F#2,440.5,0.25,95,134.0
4352,B1,440.5,0.25,95,134.0
4353,E3,440.75,0.25,95,134.0
4354,B1,440.75,0.25,95,134.0
4355,E2,441.0,0.25,95,134.0
4356,F#2,441.0,0.5,95,134.0
4357,D2,441.0,0.5,95,134.0
4358,E3,441.25,0.25,95,134.0
4359,E2,441.5,0.25,95,134.0
4360,E2,441.5,0.5,95,134.0
4361,F#2,441.5,0.5,95,134.0
4362,B1,441.5,0.5,95,134.0
4363,E3,441.75,0.25,95,134.0
4364,E2,442.0,0.25,95,134.0
4365,E2,442.0,2.0,95,134.0
4366,F#2,442.0,0.25,95,134.0
4367,B1,442.0,0.25,95,134.0
4368,E2,442.25,0.25,95,134.0
4369,D2,442.25,0.25,63,134.0
4370,B2,442.5,0.25,95,134.0
4371,B-2,442.5,0.5,95,134.0
4372,B1,442.5,0.5,95,134.0
4373,E2,442.75,0.25,95,134.0
4374,B2,443.0,0.25,95,134.0
4375,B-2,443.0,0.5,95,134.0
4376,D2,443.0,0.5,95,134.0
4377,E2,443.25,0.25,95,134.0
4378,C3,443.5,0.25,95,134.0
4379,F#2,443.5,0.5,95,134.0
4380,E2,443.75,0.25,95,134.0
4381,E3,444.0,0.25,95,134.0
4382,E2,444.0,1.5,95,134.0
4383,F#2,444.0,0.5,95,134.0
4384,B1,444.0,0.5,95,134.0
4385,E2,444.25,0.25,95,134.0
4386,E2,444.5,0.25,95,134.0
4387,G#5,444.5,2.0,95,134.0
4388,G5,444.5,2.0,95,134.0
4389,F#2,444.5,0.25,95,134.0
4390,B1,444.5,0.25,95,134.0
4391,E3,444.75,0.25,95,134.0
4392,B1,444.75,0.25,95,134.0
4393,E2,445.0,0.25,95,134.0
4394,F#2,445.0,0.5,95,134.0
4395,D2,445.0,0.5,95,134.0
4396,E3,445.25,0.25,95,134.0
4397,E2,445.5,0.25,95,134.0
4398,E2,445.5,0.5,95,134.0
4399,F#2,445.5,0.5,95,134.0
4400,B1,445.5,0.5,95,134.0
4401,E3,445.75,0.25,95,134.0
4402,E2,446.0,0.25,95,134.0
4403,E2,446.0,2.0,95,134.0
4404,F#2,446.0,0.25,95,134.0
4405,B1,446.0,0.25,95,134.0
4406,E2,446.25,0.25,95,134.0
4407,D2,446.25,0.25,63,134.0
4408,B2,446.5,0.25,95,134.0
4409,D3,446.5,7/100,95,134.0
4410,A2,446.5,7/100,95,134.0
4411,B-2,446.5,0.5,95,134.0
4412,B1,446.5,0.5,95,134.0
4413,D3,446.625,7/100,95,134.0
4414,A2,446.625,7/100,95,134.0
4415,E2,446.75,0.25,95,134.0
4416,D3,446.75,7/100,95,134.0
4417,A2,446.75,7/100,95,134.0
4418,D5,446.875,0.125,63,134.0
4419,A4,446.875,0.125,63,134.0
4420,B2,447.0,0.25,95,134.0
4421,C#5,447.0,0.125,63,134.0
4422,G#4,447.0,0.125,63,134.0
4423,B-2,447.0,0.5,95,134.0
4424,D2,447.0,0.5,95,134.0
4425,C5,447.125,0.125,63,134.0
4426,G4,447.125,0.125,63,134.0
4427,E2,447.25,0.25,95,134.0
4428,B4,447.25,0.125,63,134.0
4429,F#4,447.25,0.125,63,134.0
4430,B-4,447.375,0.125,63,134.0
4431,F4,447.375,0.125,63,134.0
4432,C3,447.5,0.25,95,134.0
4433,F#2,447.5,0.5,95,134.0
4434,A4,447.5,0.125,63,134.0
4435,E4,447.5,0.125,63,134.0
4436,G#4,447.625,0.125,63,134.0
4437,E-4,447.625,0.125,63,134.0
4438,E2,447.75,0.25,95,134.0
4439,G4,447.75,0.125,63,134.0
4440,D4,447.75,0.125,63,134.0
4441,F#4,447.875,0.125,63,134.0
4442,C#4,447.875,0.125,63,134.0
4443,B1,448.0,0.5,95,134.0
4444,F4,448.0,0.125,63,134.0
4445,C4,448.0,0.125,63,134.0
4446,E4,448.125,0.125,63,134.0
4447,B3,448.125,0.125,63,134.0
4448,E-4,448.25,0.125,63,134.0
4449,B-3,448.25,0.125,63,134.0
4450,D4,448.375,0.125,63,134.0
4451,A3,448.375,0.125,63,134.0
4452,E2,448.5,0.5,95,134.0
4453,C#4,448.5,0.125,63,134.0
4454,G#3,448.5,0.125,63,134.0
4455,C4,448.625,0.125,63,134.0
4456,G3,448.625,0.125,63,134.0
4457,B3,448.75,0.125,63,134.0
4458,F#3,448.75,0.125,63,134.0
4459,B-3,448.875,0.125,63,134.0
4460,F3,448.875,0.125,63,134.0
4461,E2,449.0,0.25,95,134.0
4462,A3,449.0,0.125,63,134.0
4463,E3,449.0,0.125,63,134.0
4464,G#3,449.125,0.125,63,134.0
4465,E-3,449.125,0.125,63,134.0
4466,E2,449.25,0.25,63,134.0
4467,G3,449.25,0.125,63,134.0
4468,D3,449.25,0.125,63,134.0
4469,F#3,449.375,0.125,63,134.0
4470,C#3,449.375,0.125,63,134.0
4471,F#2,449.5,0.25,95,134.0
4472,F3,449.5,0.125,63,134.0
4473,C3,449.5,0.125,63,134.0
4474,E3,449.625,0.125,63,134.0
4475,B2,449.625,0.125,63,134.0
4476,E2,449.75,0.25,95,134.0
4477,E-3,449.75,0.25,63,134.0
4478,B-2,449.75,0.25,63,134.0
4479,B1,450.0,0.25,95,134.0
4480,E2,450.25,0.25,95,134.0
4481,F#2,450.5,0.25,95,134.0
4482,B1,450.75,0.25,95,134.0
4483,G3,451.0,0.5,79,134.0
4484,E2,451.0,0.25,95,134.0
4485,B1,451.25,0.25,95,134.0
4486,F#2,451.5,0.25,95,134.0
4487,E2,451.75,0.25,95,134.0
4488,E3,452.0,0.25,95,134.0
4489,E2,452.0,1.5,95,134.0
4490,G4,452.0,4.0,95,134.0
4491,F#2,452.0,0.5,95,134.0
4492,B1,452.0,0.5,95,134.0
4493,E2,452.25,0.25,95,134.0
4494,E2,452.5,0.25,95,134.0
4495,F#2,452.5,0.25,95,134.0
4496,B1,452.5,0.25,95,134.0
4497,E3,452.75,0.25,95,134.0
4498,B1,452.75,0.25,95,134.0
4499,E2,453.0,0.25,95,134.0
4500,F#2,453.0,0.5,95,134.0
4501,D2,453.0,0.5,95,134.0
4502,E3,453.25,0.25,95,134.0
4503,E2,453.5,0.25,95,134.0
4504,E2,453.5,0.5,95,134.0
4505,F#2,453.5,0.5,95,134.0
4506,B1,453.5,0.5,95,134.0
4507,E3,453.75,0.25,95,134.0
4508,E2,454.0,0.25,95,134.0
4509,E2,454.0,2.0,95,134.0
4510,F#2,454.0,0.25,95,134.0
4511,B1,454.0,0.25,95,134.0
4512,E2,454.25,0.25,95,134.0
4513,D2,454.25,0.25,63,134.0
4514,B2,454.5,0.25,95,134.0
4515,B-2,454.5,0.5,95,134.0
4516,B1,454.5,0.5,95,134.0
4517,E2,454.75,0.25,95,134.0
4518,B2,455.0,0.25,95,134.0
4519,B-2,455.0,0.5,95,134.0
4520,D2,455.0,0.5,95,134.0
4521,E2,455.25,0.25,95,134.0
4522,C3,455.5,0.25,95,134.0
4523,F#2,455.5,0.5,95,134.0
4524,E2,455.75,0.25,95,134.0
4525,E3,456.0,0.25,95,134.0
4526,E2,456.0,1.5,95,134.0
4527,G4,456.0,2.0,95,134.0
4528,F#2,456.0,0.5,95,134.0
4529,B1,456.0,0.5,95,134.0
4530,E2,456.25,0.25,95,134.0
4531,E2,456.5,0.25,95,134.0
4532,F#2,456.5,0.25,95,134.0
4533,B1,456.5,0.25,95,134.0
4534,E3,456.75,0.25,95,134.0
4535,B1,456.75,0.25,95,134.0
4536,E2,457.0,0.25,95,134.0
4537,F#2,457.0,0.5,95,134.0
4538,D2,457.0,0.5,95,134.0
4539,E3,457.25,0.25,95,134.0
4540,E2,457.5,0.25,95,134.0
4541,E2,457.5,0.5,95,134.0
4542,F#2,457.5,0.5,95,134.0
4543,B1,457.5,0.5,95,134.0
4544,E3,457.75,0.25,95,134.0
4545,E2,458.0,0.25,95,134.0
4546,E2,458.0,2.0,95,134.0
4547,F#2,458.0,0.25,95,134.0
4548,B1,458.0,0.25,95,134.0
4549,E2,458.25,0.25,95,134.0
4550,D2,458.25,0.25,63,134.0
4551,B2,458.5,0.25,95,134.0
4552,B-2,458.5,0.5,95,134.0
4553,B1,458.5,0.5,95,134.0
4554,E2,458.75,0.25,95,134.0
4555,B2,459.0,0.25,95,134.0
4556,B-2,459.0,0.5,95,134.0
4557,D2,459.0,0.5,95,134.0
4558,E2,459.25,0.25,95,134.0
4559,C3,459.5,0.25,95,134.0
4560,F#2,459.5,0.5,95,134.0
4561,E2,459.75,0.25,95,134.0
4562,E3,460.0,0.25,95,134.0
4563,E2,460.0,1.5,95,134.0
4564,F#2,460.0,0.5,95,134.0
4565,B1,460.0,0.5,95,134.0
4566,E2,460.25,0.25,95,134.0
4567,E2,460.5,0.25,95,134.0
4568,F#2,460.5,0.25,95,134.0
4569,B1,460.5,0.25,95,134.0
4570,E3,460.75,0.25,95,134.0
4571,B1,460.75,0.25,95,134.0
4572,E2,461.0,0.25,95,134.0
4573,F#2,461.0,0.5,95,134.0
4574,D2,461.0,0.5,95,134.0
4575,E3,461.25,0.25,95,134.0
4576,E2,461.5,0.25,95,134.0
4577,E2,461.5,0.5,95,134.0
4578,F#2,461.5,0.5,95,134.0
4579,B1,461.5,0.5,95,134.0
4580,E3,461.75,0.25,95,134.0
4581,E2,462.0,0.25,95,134.0
4582,E2,462.0,2.0,95,134.0
4583,F#2,462.0,0.25,95,134.0
4584,B1,462.0,0.25,95,134.0
4585,E2,462.25,0.25,95,134.0
4586,D2,462.25,0.25,63,134.0
4587,B2,462.5,0.25,95,134.0
4588,B-2,462.5,0.5,95,134.0
4589,B1,462.5,0.5,95,134.0
4590,E2,462.75,0.25,95,134.0
4591,B2,463.0,0.25,95,134.0
4592,B-2,463.0,0.5,95,134.0
4593,D2,463.0,0.5,95,134.0
4594,E2,463.25,0.25,95,134.0
4595,C3,463.5,0.25,95,134.0
4596,F#2,463.5,0.5,95,134.0
4597,E2,463.75,0.25,95,134.0
4598,E3,464.0,0.25,95,134.0
4599,E2,464.0,1.5,95,134.0
4600,F#2,464.0,0.5,95,134.0
4601,B1,464.0,0.5,95,134.0
4602,E2,464.25,0.25,95,134.0
4603,E2,464.5,0.25,95,134.0
4604,F#2,464.5,0.25,95,134.0
4605,B1,464.5,0.25,95,134.0
4606,E3,464.75,0.25,95,134.0
4607,B1,464.75,0.25,95,134.0
4608,E2,465.0,0.25,95,134.0
4609,F#2,465.0,0.5,95,134.0
4610,D2,465.0,0.5,95,134.0
4611,E3,465.25,0.25,95,134.0
4612,E2,465.5,0.25,95,134.0
4613,E2,465.5,0.5,95,134.0
4614,F#2,465.5,0.5,95,134.0
4615,B1,465.5,0.5,95,134.0
4616,E3,465.75,0.25,95,134.0
4617,E2,466.0,0.25,95,134.0
4618,E2,466.0,2.0,95,134.0
4619,F#2,466.0,0.25,95,134.0
4620,B1,466.0,0.25,95,134.0
4621,E2,466.25,0.25,95,134.0
4622,D2,466.25,0.25,63,134.0
4623,B2,466.5,0.25,95,134.0
4624,B-2,466.5,0.5,95,134.0
4625,B1,466.5,0.5,95,134.0
4626,E2,466.75,0.25,95,134.0
4627,B2,467.0,0.25,95,134.0
4628,B-2,467.0,0.5,95,134.0
4629,D2,467.0,0.5,95,134.0
4630,E2,467.25,0.25,95,134.0
4631,C3,467.5,0.25,95,134.0
4632,F#2,467.5,0.5,95,134.0
4633,E2,467.75,0.25,95,134.0
4634,E3,468.0,0.25,95,134.0
4635,E2,468.0,1.5,95,134.0
4636,G4,468.0,4.0,95,134.0
4637,F#2,468.0,0.5,95,134.0
4638,B1,468.0,0.5,95,134.0
4639,E2,468.25,0.25,95,134.0
4640,E2,468.5,0.25,95,134.0
4641,F#2,468.5,0.25,95,134.0
4642,B1,468.5,0.25,95,134.0
4643,E3,468.75,0.25,95,134.0
4644,B1,468.75,0.25,95,134.0
4645,E2,469.0,0.25,95,134.0
4646,F#2,469.0,0.5,95,134.0
4647,D2,469.0,0.5,95,134.0
4648,E3,469.25,0.25,95,134.0
4649,E2,469.5,0.25,95,134.0
4650,E2,469.5,0.5,95,134.0
4651,F#2,469.5,0.5,95,134.0
4652,B1,469.5,0.5,95,134.0
4653,E3,469.75,0.25,95,134.0
4654,E2,470.0,0.25,95,134.0
4655,E2,470.0,2.0,95,134.0
4656,F#2,470.0,0.25,95,134.0
4657,B1,470.0,0.25,95,134.0
4658,E2,470.25,0.25,95,134.0
4659,D2,470.25,0.25,63,134.0
4660,B2,470.5,0.25,95,134.0
4661,B-2,470.5,0.5,95,134.0
4662,B1,470.5,0.5,95,134.0
4663,E2,470.75,0.25,95,134.0
4664,B2,471.0,0.25,95,134.0
4665,B-2,471.0,0.5,95,134.0
4666,D2,471.0,0.5,95,134.0
4667,E2,471.25,0.25,95,134.0
4668,C3,471.5,0.25,95,134.0
4669,F#2,471.5,0.5,95,134.0
4670,E2,471.75,0.25,95,134.0
4671,E3,472.0,0.25,95,134.0
4672,E2,472.0,1.5,95,134.0
4673,G4,472.0,2.0,95,134.0
4674,F#2,472.0,0.5,95,134.0
4675,B1,472.0,0.5,95,134.0
4676,E2,472.25,0.25,95,134.0
4677,E2,472.5,0.25,95,134.0
4678,F#2,472.5,0.25,95,134.0
4679,B1,472.5,0.25,95,134.0
4680,E3,472.75,0.25,95,134.0
4681,B1,472.75,0.25,95,134.0
4682,E2,473.0,0.25,95,134.0
4683,F#2,473.0,0.5,95,134.0
4684,D2,473.0,0.5,95,134.0
4685,E3,473.25,0.25,95,134.0
4686,E2,473.5,0.25,95,134.0
4687,E2,473.5,0.5,95,134.0
4688,F#2,473.5,0.5,95,134.0
4689,B1,473.5,0.5,95,134.0
4690,E3,473.75,0.25,95,134.0
4691,E2,474.0,0.25,95,134.0
4692,E2,474.0,2.0,95,134.0
4693,F#2,474.0,0.25,95,134.0
4694,B1,474.0,0.25,95,134.0
4695,E2,474.25,0.25,95,134.0
4696,D2,474.25,0.25,63,134.0
4697,B2,474.5,0.25,95,134.0
4698,B-2,474.5,0.5,95,134.0
4699,B1,474.5,0.5,95,134.0
4700,E2,474.75,0.25,95,134.0
4701,B2,475.0,0.25,95,134.0
4702,B-2,475.0,0.5,95,134.0
4703,D2,475.0,0.5,95,134.0
4704,E2,475.25,0.25,95,134.0
4705,C3,475.5,0.25,95,134.0
4706,F#2,475.5,0.5,95,134.0
4707,E2,475.75,0.25,95,134.0
4708,E3,476.0,0.25,95,134.0
4709,E2,476.0,1.5,95,134.0
4710,G5,476.0,4.0,95,134.0
4711,F#2,476.0,0.5,95,134.0
4712,B1,476.0,0.5,95,134.0
4713,E2,476.25,0.25,95,134.0
4714,E2,476.5,0.25,95,134.0
4715,F#2,476.5,0.25,95,134.0
4716,B1,476.5,0.25,95,134.0
4717,E3,476.75,0.25,95,134.0
4718,B1,476.75,0.25,95,134.0
4719,E2,477.0,0.25,95,134.0
4720,F#2,477.0,0.5,95,134.0
4721,D2,477.0,0.5,95,134.0
4722,E3,477.25,0.25,95,134.0
4723,E2,477.5,0.25,95,134.0
4724,E2,477.5,0.5,95,134.0
4725,F#2,477.5,0.5,95,134.0
4726,B1,477.5,0.5,95,134.0
4727,E3,477.75,0.25,95,134.0
4728,E2,478.0,0.25,95,134.0
4729,E2,478.0,2.0,95,134.0
4730,F#2,478.0,0.25,95,134.0
4731,B1,478.0,0.25,95,134.0
4732,E2,478.25,0.25,95,134.0
4733,D2,478.25,0.25,63,134.0
4734,B2,478.5,0.25,95,134.0
4735,B-2,478.5,0.5,95,134.0
4736,B1,478.5,0.5,95,134.0
4737,E2,478.75,0.25,95,134.0
4738,B2,479.0,0.25,95,134.0
4739,B-2,479.0,0.5,95,134.0
4740,D2,479.0,0.5,95,134.0
4741,E2,479.25,0.25,95,134.0
4742,C3,479.5,0.25,95,134.0
4743,F#2,479.5,0.5,95,134.0
4744,E2,479.75,0.25,95,134.0
4745,E3,480.0,0.25,95,134.0
4746,E2,480.0,1.5,95,134.0
4747,F#2,480.0,0.5,95,134.0
4748,B1,480.0,0.5,95,134.0
4749,E2,480.25,0.25,95,134.0
4750,E2,480.5,0.25,95,134.0
4751,F#2,480.5,0.25,95,134.0
4752,B1,480.5,0.25,95,134.0
4753,E3,480.75,0.25,95,134.0
4754,B1,480.75,0.25,95,134.0
4755,E2,481.0,0.25,95,134.0
4756,F#2,481.0,0.5,95,134.0
4757,D2,481.0,0.5,95,134.0
4758,E3,481.25,0.25,95,134.0
4759,E2,481.5,0.25,95,134.0
4760,E2,481.5,0.5,95,134.0
4761,F#2,481.5,0.5,95,134.0
4762,B1,481.5,0.5,95,134.0
4763,E3,481.75,0.25,95,134.0
4764,E2,482.0,0.25,95,134.0
4765,E2,482.0,2.0,95,134.0
4766,F#2,482.0,0.25,95,134.0
4767,B1,482.0,0.25,95,134.0
4768,E2,482.25,0.25,95,134.0
4769,D2,482.25,0.25,63,134.0
4770,B2,482.5,0.25,95,134.0
4771,B-2,482.5,0.5,95,134.0
4772,B1,482.5,0.5,95,134.0
4773,E2,482.75,0.25,95,134.0
4774,B2,483.0,0.25,95,134.0
4775,B-2,483.0,0.5,95,134.0
4776,D2,483.0,0.5,95,134.0
4777,E2,483.25,0.25,95,134.0
4778,C3,483.5,0.25,95,134.0
4779,F#2,483.5,0.5,95,134.0
4780,E2,483.75,0.25,95,134.0
4781,E3,484.0,0.25,95,134.0
4782,E2,484.0,1.5,95,134.0
4783,G4,484.0,4.0,95,134.0
4784,F#2,484.0,0.5,95,134.0
4785,B1,484.0,0.5,95,134.0
4786,E2,484.25,0.25,95,134.0
4787,E2,484.5,0.25,95,134.0
4788,F#2,484.5,0.25,95,134.0
4789,B1,484.5,0.25,95,134.0
4790,E3,484.75,0.25,95,134.0
4791,B1,484.75,0.25,95,134.0
4792,E2,485.0,0.25,95,134.0
4793,F#2,485.0,0.5,95,134.0
4794,D2,485.0,0.5,95,134.0
4795,E3,485.25,0.25,95,134.0
4796,E2,485.5,0.25,95,134.0
4797,E2,485.5,0.5,95,134.0
4798,F#2,485.5,0.5,95,134.0
4799,B1,485.5,0.5,95,134.0
4800,E3,485.75,0.25,95,134.0
4801,E2,486.0,0.25,95,134.0
4802,E2,486.0,2.0,95,134.0
4803,F#2,486.0,0.25,95,134.0
4804,B1,486.0,0.25,95,134.0
4805,E2,486.25,0.25,95,134.0
4806,D2,486.25,0.25,63,134.0
4807,B2,486.5,0.25,95,134.0
4808,B-2,486.5,0.5,95,134.0
4809,B1,486.5,0.5,95,134.0
4810,E2,486.75,0.25,95,134.0
4811,B2,487.0,0.25,95,134.0
4812,B-2,487.0,0.5,95,134.0
4813,D2,487.0,0.5,95,134.0
4814,E2,487.25,0.25,95,134.0
4815,C3,487.5,0.25,95,134.0
4816,F#2,487.5,0.5,95,134.0
4817,E2,487.75,0.25,95,134.0
4818,E3,488.0,0.25,95,134.0
4819,E2,488.0,1.5,95,134.0
4820,G4,488.0,2.0,95,134.0
4821,F#2,488.0,0.5,95,134.0
4822,B1,488.0,0.5,95,134.0
4823,E2,488.25,0.25,95,134.0
4824,E2,488.5,0.25,95,134.0
4825,F#2,488.5,0.25,95,134.0
4826,B1,488.5,0.25,95,134.0
4827,E3,488.75,0.25,95,134.0
4828,B1,488.75,0.25,95,134.0
4829,E2,489.0,0.25,95,134.0
4830,F#2,489.0,0.5,95,134.0
4831,D2,489.0,0.5,95,134.0
4832,E3,489.25,0.25,95,134.0
4833,E2,489.5,0.25,95,134.0
4834,E2,489.5,0.5,95,134.0
4835,F#2,489.5,0.5,95,134.0
4836,B1,489.5,0.5,95,134.0
4837,E3,489.75,0.25,95,134.0
4838,E2,490.0,0.25,95,134.0
4839,E2,490.0,2.0,95,134.0
4840,F#2,490.0,0.25,95,134.0
4841,B1,490.0,0.25,95,134.0
4842,E2,490.25,0.25,95,134.0
4843,D2,490.25,0.25,63,134.0
4844,B2,490.5,0.25,95,134.0
4845,B-2,490.5,0.5,95,134.0
4846,B1,490.5,0.5,95,134.0
4847,E2,490.75,0.25,95,134.0
4848,B2,491.0,0.25,95,134.0
4849,B-2,491.0,0.5,95,134.0
4850,D2,491.0,0.5,95,134.0
4851,E2,491.25,0.25,95,134.0
4852,C3,491.5,0.25,95,134.0
4853,F#2,491.5,0.5,95,134.0
4854,E2,491.75,0.25,95,134.0
4855,E3,492.0,0.25,95,134.0
4856,E2,492.0,1.5,95,134.0
4857,F#2,492.0,0.5,95,134.0
4858,B1,492.0,0.5,95,134.0
4859,E2,492.25,0.25,95,134.0
4860,E2,492.5,0.25,95,134.0
4861,F#2,492.5,0.25,95,134.0
4862,B1,492.5,0.25,95,134.0
4863,E3,492.75,0.25,95,134.0
4864,B1,492.75,0.25,95,134.0
4865,E2,493.0,0.25,95,134.0
4866,F#2,493.0,0.5,95,134.0
4867,D2,493.0,0.5,95,134.0
4868,E3,493.25,0.25,95,134.0
4869,E2,493.5,0.25,95,134.0
4870,E2,493.5,0.5,95,134.0
4871,F#2,493.5,0.5,95,134.0
4872,B1,493.5,0.5,95,134.0
4873,E3,493.75,0.25,95,134.0
4874,E2,494.0,0.25,95,134.0
4875,E2,494.0,2.0,95,134.0
4876,F#2,494.0,0.25,95,134.0
4877,B1,494.0,0.25,95,134.0
4878,E2,494.25,0.25,95,134.0
4879,D2,494.25,0.25,63,134.0
4880,B2,494.5,0.25,95,134.0
4881,B-2,494.5,0.5,95,134.0
4882,B1,494.5,0.5,95,134.0
4883,E2,494.75,0.25,95,134.0
4884,B2,495.0,0.25,95,134.0
4885,B-2,495.0,0.5,95,134.0
4886,D2,495.0,0.5,95,134.0
4887,E2,495.25,0.25,95,134.0
4888,C3,495.5,0.25,95,134.0
4889,F#2,495.5,0.5,95,134.0
4890,E2,495.75,0.25,95,134.0
4891,E3,496.0,0.25,95,134.0
4892,E2,496.0,1.5,95,134.0
4893,F#2,496.0,0.5,95,134.0
4894,B1,496.0,0.5,95,134.0
4895,E2,496.25,0.25,95,134.0
4896,E2,496.5,0.25,95,134.0
4897,F#2,496.5,0.25,95,134.0
4898,B1,496.5,0.25,95,134.0
4899,E3,496.75,0.25,95,134.0
4900,B1,496.75,0.25,95,134.0
4901,E2,497.0,0.25,95,134.0
4902,F#2,497.0,0.5,95,134.0
4903,D2,497.0,0.5,95,134.0
4904,E3,497.25,0.25,95,134.0
4905,E2,497.5,0.25,95,134.0
4906,E2,497.5,0.5,95,134.0
4907,F#2,497.5,0.5,95,134.0
4908,B1,497.5,0.5,95,134.0
4909,E3,497.75,0.25,95,134.0
4910,E2,498.0,0.25,95,134.0
4911,E2,498.0,2.0,95,134.0
4912,F#2,498.0,0.25,95,134.0
4913,B1,498.0,0.25,95,134.0
4914,E2,498.25,0.25,95,134.0
4915,D2,498.25,0.25,63,134.0
4916,B2,498.5,0.25,95,134.0
4917,B-2,498.5,0.5,95,134.0
4918,B1,498.5,0.5,95,134.0
4919,E2,498.75,0.25,95,134.0
4920,B2,499.0,0.25,95,134.0
4921,B-2,499.0,0.5,95,134.0
4922,D2,499.0,0.5,95,134.0
4923,E2,499.25,0.25,95,134.0
4924,C3,499.5,0.25,95,134.0
4925,F#2,499.5,0.5,95,134.0
4926,E2,499.75,0.25,95,134.0
