,note_name,start_time,duration,velocity,tempo
0,A3,0.0,2.0,64,176.0
1,A1,0.0,1.0,64,176.0
2,E-3,0.0,1.0,64,176.0
3,F2,0.0,1.0,64,176.0
4,A4,0.667,0.333,64,176.0
5,A4,0.667,0.033,64,176.0
6,A4,0.667,0.333,64,176.0
7,D3,0.667,0.333,64,176.0
8,A4,0.667,0.333,64,176.0
9,A4,0.667,0.333,64,176.0
10,A3,0.667,0.333,64,176.0
11,A4,0.667,0.333,64,176.0
12,G2,1.0,1.0,64,176.0
13,C#2,1.0,1.0,64,176.0
14,B6,1.0,0.75,64,176.0
15,E-3,1.0,0.75,64,176.0
16,A3,1.667,0.333,64,176.0
17,A3,1.667,0.033,64,176.0
18,A3,1.667,0.333,64,176.0
19,A2,1.667,0.333,64,176.0
20,A3,1.667,0.333,64,176.0
21,A3,1.667,0.333,64,176.0
22,A2,1.667,0.333,64,176.0
23,A3,1.667,0.333,64,176.0
24,E-3,1.75,0.25,64,176.0
25,E2,2.0,1.0,64,176.0
26,E-3,2.0,1.0,64,176.0
27,A2,2.0,1.0,64,176.0
28,A4,2.667,0.333,64,176.0
29,A4,2.667,0.333,64,176.0
30,A4,2.667,0.333,64,176.0
31,C3,2.667,0.333,64,176.0
32,A4,2.667,0.333,64,176.0
33,A4,2.667,0.333,64,176.0
34,A3,2.667,0.333,64,176.0
35,A4,2.667,0.333,64,176.0
36,F#4,3.0,0.667,64,176.0
37,F#4,3.0,0.667,64,176.0
38,F#4,3.0,0.667,64,176.0
39,B2,3.0,0.667,64,176.0
40,B2,3.0,1.0,64,176.0
41,F#2,3.0,1.0,64,176.0
42,F#4,3.0,0.667,64,176.0
43,F#4,3.0,0.667,64,176.0
44,F#3,3.0,0.667,64,176.0
45,F#4,3.0,0.667,64,176.0
46,B6,3.0,0.75,64,176.0
47,E-3,3.0,0.75,64,176.0
48,E4,3.667,0.333,64,176.0
49,E4,3.667,0.033,64,176.0
50,E4,3.667,0.333,64,176.0
51,A2,3.667,0.333,64,176.0
52,E4,3.667,0.333,64,176.0
53,E4,3.667,0.333,64,176.0
54,E3,3.667,0.333,64,176.0
55,E4,3.667,0.333,64,176.0
56,E-3,3.75,0.25,64,176.0
57,G2,4.0,1.0,64,176.0
58,E-3,4.0,1.0,64,176.0
59,B2,4.0,1.0,64,176.0
60,A4,4.667,0.333,64,176.0
61,A4,4.667,0.033,64,176.0
62,A4,4.667,0.333,64,176.0
63,D3,4.667,0.333,64,176.0
64,A4,4.667,0.333,64,176.0
65,A4,4.667,0.333,64,176.0
66,A3,4.667,0.333,64,176.0
67,A4,4.667,0.333,64,176.0
68,A2,5.0,1.0,64,176.0
69,F#2,5.0,1.0,64,176.0
70,B6,5.0,0.75,64,176.0
71,E-3,5.0,0.75,64,176.0
72,A3,5.667,0.333,64,176.0
73,A3,5.667,0.033,64,176.0
74,A3,5.667,0.333,64,176.0
75,A2,5.667,0.333,64,176.0
76,A3,5.667,0.333,64,176.0
77,A3,5.667,0.333,64,176.0
78,A2,5.667,0.333,64,176.0
79,A3,5.667,0.333,64,176.0
80,E-3,5.75,0.25,64,176.0
81,E2,6.0,1.0,64,176.0
82,E-3,6.0,1.0,64,176.0
83,G2,6.0,1.0,64,176.0
84,A4,6.667,0.333,64,176.0
85,A4,6.667,0.333,64,176.0
86,A4,6.667,0.333,64,176.0
87,C3,6.667,0.333,64,176.0
88,A4,6.667,0.333,64,176.0
89,A4,6.667,0.333,64,176.0
90,A3,6.667,0.333,64,176.0
91,A4,6.667,0.333,64,176.0
92,F#4,7.0,0.667,64,176.0
93,F#4,7.0,0.667,64,176.0
94,F#4,7.0,0.667,64,176.0
95,B2,7.0,0.667,64,176.0
96,F2,7.0,1.0,64,176.0
97,C#2,7.0,1.0,64,176.0
98,F#4,7.0,0.667,64,176.0
99,F#4,7.0,0.667,64,176.0
100,F#3,7.0,0.667,64,176.0
101,F#4,7.0,0.667,64,176.0
102,B6,7.0,0.75,64,176.0
103,E-3,7.0,0.75,64,176.0
104,E4,7.667,0.333,64,176.0
105,E4,7.667,0.033,64,176.0
106,E4,7.667,0.333,64,176.0
107,A2,7.667,0.333,64,176.0
108,E4,7.667,0.333,64,176.0
109,E4,7.667,0.333,64,176.0
110,E3,7.667,0.333,64,176.0
111,E4,7.667,0.333,64,176.0
112,E-3,7.75,0.25,64,176.0
113,A1,8.0,1.0,64,176.0
114,E-3,8.0,1.0,64,176.0
115,F2,8.0,1.0,64,176.0
116,A4,8.667,0.333,64,176.0
117,A4,8.667,0.033,64,176.0
118,A4,8.667,0.333,64,176.0
119,D3,8.667,0.333,64,176.0
120,A4,8.667,0.333,64,176.0
121,A4,8.667,0.333,64,176.0
122,A3,8.667,0.333,64,176.0
123,A4,8.667,0.333,64,176.0
124,G2,9.0,1.0,64,176.0
125,C#2,9.0,1.0,64,176.0
126,B6,9.0,0.75,64,176.0
127,E-3,9.0,0.75,64,176.0
128,A3,9.667,0.333,64,176.0
129,A3,9.667,0.033,64,176.0
130,A3,9.667,0.333,64,176.0
131,A2,9.667,0.333,64,176.0
132,A3,9.667,0.333,64,176.0
133,A3,9.667,0.333,64,176.0
134,A2,9.667,0.333,64,176.0
135,A3,9.667,0.333,64,176.0
136,E-3,9.75,0.25,64,176.0
137,E2,10.0,1.0,64,176.0
138,E-3,10.0,1.0,64,176.0
139,A2,10.0,1.0,64,176.0
140,A4,10.667,0.333,64,176.0
141,A4,10.667,0.333,64,176.0
142,A4,10.667,0.333,64,176.0
143,C3,10.667,0.333,64,176.0
144,A4,10.667,0.333,64,176.0
145,A4,10.667,0.333,64,176.0
146,A3,10.667,0.333,64,176.0
147,A4,10.667,0.333,64,176.0
148,F#4,11.0,0.667,64,176.0
149,F#4,11.0,0.667,64,176.0
150,F#4,11.0,0.667,64,176.0
151,B2,11.0,0.667,64,176.0
152,B2,11.0,1.0,64,176.0
153,F#2,11.0,1.0,64,176.0
154,F#4,11.0,0.667,64,176.0
155,F#4,11.0,0.667,64,176.0
156,F#3,11.0,0.667,64,176.0
157,F#4,11.0,0.667,64,176.0
158,B6,11.0,0.75,64,176.0
159,E-3,11.0,0.75,64,176.0
160,E4,11.667,0.333,64,176.0
161,E4,11.667,0.033,64,176.0
162,E4,11.667,0.333,64,176.0
163,A2,11.667,0.333,64,176.0
164,E4,11.667,0.333,64,176.0
165,E4,11.667,0.333,64,176.0
166,E3,11.667,0.333,64,176.0
167,E4,11.667,0.333,64,176.0
168,E-3,11.75,0.25,64,176.0
169,G2,12.0,1.0,64,176.0
170,E-3,12.0,1.0,64,176.0
171,B2,12.0,1.0,64,176.0
172,A4,12.667,0.333,64,176.0
173,A4,12.667,0.033,64,176.0
174,A4,12.667,0.333,64,176.0
175,D3,12.667,0.333,64,176.0
176,A4,12.667,0.333,64,176.0
177,A4,12.667,0.333,64,176.0
178,A3,12.667,0.333,64,176.0
179,A4,12.667,0.333,64,176.0
180,A2,13.0,1.0,64,176.0
181,F#2,13.0,1.0,64,176.0
182,B6,13.0,0.75,64,176.0
183,E-3,13.0,0.75,64,176.0
184,A3,13.667,0.333,64,176.0
185,A3,13.667,0.033,64,176.0
186,A3,13.667,0.333,64,176.0
187,A2,13.667,0.333,64,176.0
188,A3,13.667,0.333,64,176.0
189,A3,13.667,0.333,64,176.0
190,A2,13.667,0.333,64,176.0
191,A3,13.667,0.333,64,176.0
192,E-3,13.75,0.25,64,176.0
193,E2,14.0,1.0,64,176.0
194,E-3,14.0,1.0,64,176.0
195,G2,14.0,1.0,64,176.0
196,A4,14.667,0.333,64,176.0
197,A4,14.667,0.333,64,176.0
198,A4,14.667,0.333,64,176.0
199,C3,14.667,0.333,64,176.0
200,A4,14.667,0.333,64,176.0
201,A4,14.667,0.333,64,176.0
202,A3,14.667,0.333,64,176.0
203,A4,14.667,0.333,64,176.0
204,F#4,15.0,0.667,64,176.0
205,F#4,15.0,0.667,64,176.0
206,F#4,15.0,0.667,64,176.0
207,B2,15.0,0.667,64,176.0
208,F2,15.0,1.0,64,176.0
209,C#2,15.0,1.0,64,176.0
210,F#4,15.0,0.667,64,176.0
211,F#4,15.0,0.667,64,176.0
212,F#3,15.0,0.667,64,176.0
213,F#4,15.0,0.667,64,176.0
214,B6,15.0,0.75,64,176.0
215,E-3,15.0,0.75,64,176.0
216,E4,15.667,0.333,64,176.0
217,E4,15.667,0.033,64,176.0
218,E4,15.667,0.333,64,176.0
219,A2,15.667,0.333,64,176.0
220,E4,15.667,0.333,64,176.0
221,E4,15.667,0.333,64,176.0
222,E3,15.667,0.333,64,176.0
223,E4,15.667,0.333,64,176.0
224,E-3,15.75,0.25,64,176.0
225,E5,16.0,1.0,64,176.0
226,E4,16.0,1.0,64,176.0
227,A1,16.0,1.0,64,176.0
228,E5,16.0,1.0,64,176.0
229,E4,16.0,1.0,64,176.0
230,E4,16.0,1.0,64,176.0
231,E-3,16.0,1.0,64,176.0
232,F2,16.0,1.0,64,176.0
233,E5,17.0,0.667,64,176.0
234,E4,17.0,0.667,64,176.0
235,G2,17.0,1.0,64,176.0
236,C#2,17.0,1.0,64,176.0
237,E5,17.0,0.667,64,176.0
238,E4,17.0,0.667,64,176.0
239,E4,17.0,0.667,64,176.0
240,B6,17.0,0.75,64,176.0
241,E-3,17.0,0.75,64,176.0
242,E5,17.667,1.0,64,176.0
243,E4,17.667,1.0,64,176.0
244,E5,17.667,1.0,64,176.0
245,E4,17.667,1.0,64,176.0
246,E4,17.667,1.0,64,176.0
247,E-3,17.75,0.25,64,176.0
248,E2,18.0,1.0,64,176.0
249,E-3,18.0,1.0,64,176.0
250,A2,18.0,1.0,64,176.0
251,E5,18.667,0.333,64,176.0
252,E4,18.667,0.333,64,176.0
253,E5,18.667,0.333,64,176.0
254,E4,18.667,0.333,64,176.0
255,E4,18.667,0.333,64,176.0
256,B2,19.0,1.0,64,176.0
257,F#2,19.0,1.0,64,176.0
258,B6,19.0,0.75,64,176.0
259,E-3,19.0,0.75,64,176.0
260,E5,19.667,0.333,64,176.0
261,E4,19.667,0.333,64,176.0
262,E5,19.667,0.333,64,176.0
263,E4,19.667,0.333,64,176.0
264,E4,19.667,0.333,64,176.0
265,E-3,19.75,0.25,64,176.0
266,E5,20.0,0.667,64,176.0
267,E4,20.0,0.667,64,176.0
268,A1,20.0,1.0,64,176.0
269,E5,20.0,0.667,64,176.0
270,E4,20.0,0.667,64,176.0
271,E4,20.0,0.667,64,176.0
272,E-3,20.0,1.0,64,176.0
273,B2,20.0,1.0,64,176.0
274,E5,20.667,0.333,64,176.0
275,E4,20.667,0.333,64,176.0
276,E5,20.667,0.333,64,176.0
277,E4,20.667,0.333,64,176.0
278,E4,20.667,0.333,64,176.0
279,A2,21.0,1.0,64,176.0
280,C#2,21.0,1.0,64,176.0
281,B6,21.0,0.75,64,176.0
282,E-3,21.0,0.75,64,176.0
283,D5,21.667,0.333,64,176.0
284,D4,21.667,0.333,64,176.0
285,D5,21.667,0.333,64,176.0
286,D4,21.667,0.333,64,176.0
287,D4,21.667,0.333,64,176.0
288,E-3,21.75,0.25,64,176.0
289,E2,22.0,1.0,64,176.0
290,E-3,22.0,1.0,64,176.0
291,G2,22.0,1.0,64,176.0
292,A4,22.667,0.333,64,176.0
293,A3,22.667,0.333,64,176.0
294,A4,22.667,0.333,64,176.0
295,A3,22.667,0.333,64,176.0
296,A3,22.667,0.333,64,176.0
297,B4,23.0,0.667,64,176.0
298,B3,23.0,0.667,64,176.0
299,F2,23.0,1.0,64,176.0
300,F#2,23.0,1.0,64,176.0
301,B4,23.0,0.667,64,176.0
302,B3,23.0,0.667,64,176.0
303,B3,23.0,0.667,64,176.0
304,B6,23.0,0.75,64,176.0
305,E-3,23.0,0.75,64,176.0
306,C#5,23.667,0.333,64,176.0
307,C#4,23.667,0.333,64,176.0
308,C#5,23.667,0.333,64,176.0
309,C#4,23.667,0.333,64,176.0
310,C#4,23.667,0.333,64,176.0
311,E-3,23.75,0.25,64,176.0
312,A1,24.0,1.0,64,176.0
313,E-3,24.0,1.0,64,176.0
314,F2,24.0,1.0,64,176.0
315,A4,24.667,0.333,64,176.0
316,A4,24.667,0.333,64,176.0
317,D3,24.667,0.333,64,176.0
318,A4,24.667,0.333,64,176.0
319,A4,24.667,0.333,64,176.0
320,A3,24.667,0.333,64,176.0
321,A4,24.667,0.333,64,176.0
322,G2,25.0,1.0,64,176.0
323,C#2,25.0,1.0,64,176.0
324,B6,25.0,0.75,64,176.0
325,E-3,25.0,0.75,64,176.0
326,A3,25.667,0.333,64,176.0
327,A3,25.667,0.333,64,176.0
328,A2,25.667,0.333,64,176.0
329,A3,25.667,0.333,64,176.0
330,A3,25.667,0.333,64,176.0
331,A2,25.667,0.333,64,176.0
332,A3,25.667,0.333,64,176.0
333,E-3,25.75,0.25,64,176.0
334,E2,26.0,1.0,64,176.0
335,E-3,26.0,1.0,64,176.0
336,A2,26.0,1.0,64,176.0
337,A4,26.667,0.333,64,176.0
338,A4,26.667,0.333,64,176.0
339,C3,26.667,0.333,64,176.0
340,A4,26.667,0.333,64,176.0
341,A4,26.667,0.333,64,176.0
342,A3,26.667,0.333,64,176.0
343,A4,26.667,0.333,64,176.0
344,F#4,27.0,0.667,64,176.0
345,F#4,27.0,0.667,64,176.0
346,B2,27.0,0.667,64,176.0
347,B2,27.0,1.0,64,176.0
348,F#2,27.0,1.0,64,176.0
349,F#4,27.0,0.667,64,176.0
350,F#4,27.0,0.667,64,176.0
351,F#3,27.0,0.667,64,176.0
352,F#4,27.0,0.667,64,176.0
353,B6,27.0,0.75,64,176.0
354,E-3,27.0,0.75,64,176.0
355,E4,27.667,0.333,64,176.0
356,E4,27.667,0.333,64,176.0
357,A2,27.667,0.333,64,176.0
358,E4,27.667,0.333,64,176.0
359,E4,27.667,0.333,64,176.0
360,E3,27.667,0.333,64,176.0
361,E4,27.667,0.333,64,176.0
362,E-3,27.75,0.25,64,176.0
363,G2,28.0,1.0,64,176.0
364,E-3,28.0,1.0,64,176.0
365,B2,28.0,1.0,64,176.0
366,A4,28.667,0.333,64,176.0
367,A4,28.667,0.333,64,176.0
368,D3,28.667,0.333,64,176.0
369,A4,28.667,0.333,64,176.0
370,A4,28.667,0.333,64,176.0
371,A3,28.667,0.333,64,176.0
372,A4,28.667,0.333,64,176.0
373,A2,29.0,1.0,64,176.0
374,F#2,29.0,1.0,64,176.0
375,B6,29.0,0.75,64,176.0
376,E-3,29.0,0.75,64,176.0
377,A3,29.667,0.333,64,176.0
378,A3,29.667,0.333,64,176.0
379,A2,29.667,0.333,64,176.0
380,A3,29.667,0.333,64,176.0
381,A3,29.667,0.333,64,176.0
382,A2,29.667,0.333,64,176.0
383,A3,29.667,0.333,64,176.0
384,E-3,29.75,0.25,64,176.0
385,E2,30.0,1.0,64,176.0
386,E-3,30.0,1.0,64,176.0
387,G2,30.0,1.0,64,176.0
388,A4,30.667,0.333,64,176.0
389,A4,30.667,0.333,64,176.0
390,C3,30.667,0.333,64,176.0
391,A4,30.667,0.333,64,176.0
392,A4,30.667,0.333,64,176.0
393,A3,30.667,0.333,64,176.0
394,A4,30.667,0.333,64,176.0
395,F#4,31.0,0.667,64,176.0
396,F#4,31.0,0.667,64,176.0
397,B2,31.0,0.667,64,176.0
398,F2,31.0,1.0,64,176.0
399,C#2,31.0,1.0,64,176.0
400,F#4,31.0,0.667,64,176.0
401,F#4,31.0,0.667,64,176.0
402,F#3,31.0,0.667,64,176.0
403,F#4,31.0,0.667,64,176.0
404,B6,31.0,0.75,64,176.0
405,E-3,31.0,0.75,64,176.0
406,E4,31.667,0.333,64,176.0
407,E4,31.667,0.333,64,176.0
408,A2,31.667,0.333,64,176.0
409,E4,31.667,0.333,64,176.0
410,E4,31.667,0.333,64,176.0
411,E3,31.667,0.333,64,176.0
412,E4,31.667,0.333,64,176.0
413,E-3,31.75,0.25,64,176.0
414,E5,32.0,1.0,64,176.0
415,E4,32.0,1.0,64,176.0
416,D2,32.0,1.0,64,176.0
417,E5,32.0,1.0,64,176.0
418,E4,32.0,1.0,64,176.0
419,E4,32.0,1.0,64,176.0
420,E-3,32.0,1.0,64,176.0
421,F2,32.0,1.0,64,176.0
422,E5,33.0,0.667,64,176.0
423,E4,33.0,0.667,64,176.0
424,G2,33.0,1.0,64,176.0
425,F#2,33.0,1.0,64,176.0
426,E5,33.0,0.667,64,176.0
427,E4,33.0,0.667,64,176.0
428,E4,33.0,0.667,64,176.0
429,B6,33.0,0.75,64,176.0
430,E-3,33.0,0.75,64,176.0
431,E5,33.667,1.0,64,176.0
432,E4,33.667,1.0,64,176.0
433,E5,33.667,1.0,64,176.0
434,E4,33.667,1.0,64,176.0
435,E4,33.667,1.0,64,176.0
436,E-3,33.75,0.25,64,176.0
437,A2,34.0,1.0,64,176.0
438,E-3,34.0,1.0,64,176.0
439,A2,34.0,1.0,64,176.0
440,E5,34.667,0.333,64,176.0
441,E4,34.667,0.333,64,176.0
442,E5,34.667,0.333,64,176.0
443,E4,34.667,0.333,64,176.0
444,E4,34.667,0.333,64,176.0
445,B2,35.0,1.0,64,176.0
446,B2,35.0,1.0,64,176.0
447,B6,35.0,0.75,64,176.0
448,E-3,35.0,0.75,64,176.0
449,E5,35.667,0.333,64,176.0
450,E4,35.667,0.333,64,176.0
451,E5,35.667,0.333,64,176.0
452,E4,35.667,0.333,64,176.0
453,E4,35.667,0.333,64,176.0
454,E-3,35.75,0.25,64,176.0
455,E5,36.0,0.667,64,176.0
456,E4,36.0,0.667,64,176.0
457,C3,36.0,1.0,64,176.0
458,E5,36.0,0.667,64,176.0
459,E4,36.0,0.667,64,176.0
460,E4,36.0,0.667,64,176.0
461,E-3,36.0,1.0,64,176.0
462,B2,36.0,1.0,64,176.0
463,E5,36.667,0.333,64,176.0
464,E4,36.667,0.333,64,176.0
465,E5,36.667,0.333,64,176.0
466,E4,36.667,0.333,64,176.0
467,E4,36.667,0.333,64,176.0
468,A2,37.0,1.0,64,176.0
469,B2,37.0,1.0,64,176.0
470,B6,37.0,0.75,64,176.0
471,E-3,37.0,0.75,64,176.0
472,D5,37.667,0.333,64,176.0
473,D4,37.667,0.333,64,176.0
474,D5,37.667,0.333,64,176.0
475,D4,37.667,0.333,64,176.0
476,D4,37.667,0.333,64,176.0
477,E-3,37.75,0.25,64,176.0
478,A2,38.0,1.0,64,176.0
479,E-3,38.0,1.0,64,176.0
480,G2,38.0,1.0,64,176.0
481,A4,38.667,0.333,64,176.0
482,A3,38.667,0.333,64,176.0
483,A4,38.667,0.333,64,176.0
484,A3,38.667,0.333,64,176.0
485,A3,38.667,0.333,64,176.0
486,B4,39.0,0.667,64,176.0
487,B3,39.0,0.667,64,176.0
488,F2,39.0,1.0,64,176.0
489,F#2,39.0,1.0,64,176.0
490,B4,39.0,0.667,64,176.0
491,B3,39.0,0.667,64,176.0
492,B3,39.0,0.667,64,176.0
493,B6,39.0,0.75,64,176.0
494,E-3,39.0,0.75,64,176.0
495,C#5,39.667,0.333,64,176.0
496,C#4,39.667,0.333,64,176.0
497,C#5,39.667,0.333,64,176.0
498,C#4,39.667,0.333,64,176.0
499,C#4,39.667,0.333,64,176.0
500,E-3,39.75,0.25,64,176.0
501,A1,40.0,1.0,64,176.0
502,E-3,40.0,1.0,64,176.0
503,F2,40.0,1.0,64,176.0
504,A4,40.667,0.333,64,176.0
505,A4,40.667,0.333,64,176.0
506,D3,40.667,0.333,64,176.0
507,A4,40.667,0.333,64,176.0
508,A4,40.667,0.333,64,176.0
509,A3,40.667,0.333,64,176.0
510,A4,40.667,0.333,64,176.0
511,G2,41.0,1.0,64,176.0
512,C#2,41.0,1.0,64,176.0
513,B6,41.0,0.75,64,176.0
514,E-3,41.0,0.75,64,176.0
515,A3,41.667,0.333,64,176.0
516,A3,41.667,0.333,64,176.0
517,A2,41.667,0.333,64,176.0
518,A3,41.667,0.333,64,176.0
519,A3,41.667,0.333,64,176.0
520,A2,41.667,0.333,64,176.0
521,A3,41.667,0.333,64,176.0
522,E-3,41.75,0.25,64,176.0
523,E2,42.0,1.0,64,176.0
524,E-3,42.0,1.0,64,176.0
525,A2,42.0,1.0,64,176.0
526,A4,42.667,0.333,64,176.0
527,A4,42.667,0.333,64,176.0
528,C3,42.667,0.333,64,176.0
529,A4,42.667,0.333,64,176.0
530,A4,42.667,0.333,64,176.0
531,A3,42.667,0.333,64,176.0
532,A4,42.667,0.333,64,176.0
533,F#4,43.0,0.667,64,176.0
534,F#4,43.0,0.667,64,176.0
535,B2,43.0,0.667,64,176.0
536,B2,43.0,1.0,64,176.0
537,F#2,43.0,1.0,64,176.0
538,F#4,43.0,0.667,64,176.0
539,F#4,43.0,0.667,64,176.0
540,F#3,43.0,0.667,64,176.0
541,F#4,43.0,0.667,64,176.0
542,B6,43.0,0.75,64,176.0
543,E-3,43.0,0.75,64,176.0
544,E4,43.667,0.333,64,176.0
545,E4,43.667,0.333,64,176.0
546,A2,43.667,0.333,64,176.0
547,E4,43.667,0.333,64,176.0
548,E4,43.667,0.333,64,176.0
549,E3,43.667,0.333,64,176.0
550,E4,43.667,0.333,64,176.0
551,E-3,43.75,0.25,64,176.0
552,G2,44.0,1.0,64,176.0
553,E-3,44.0,1.0,64,176.0
554,B2,44.0,1.0,64,176.0
555,A4,44.667,0.333,64,176.0
556,A4,44.667,0.333,64,176.0
557,D3,44.667,0.333,64,176.0
558,A4,44.667,0.333,64,176.0
559,A4,44.667,0.333,64,176.0
560,A3,44.667,0.333,64,176.0
561,A4,44.667,0.333,64,176.0
562,A2,45.0,1.0,64,176.0
563,F#2,45.0,1.0,64,176.0
564,B6,45.0,0.75,64,176.0
565,E-3,45.0,0.75,64,176.0
566,A3,45.667,0.333,64,176.0
567,A3,45.667,0.333,64,176.0
568,A2,45.667,0.333,64,176.0
569,A3,45.667,0.333,64,176.0
570,A3,45.667,0.333,64,176.0
571,A2,45.667,0.333,64,176.0
572,A3,45.667,0.333,64,176.0
573,E-3,45.75,0.25,64,176.0
574,E2,46.0,1.0,64,176.0
575,E-3,46.0,1.0,64,176.0
576,G2,46.0,1.0,64,176.0
577,E5,46.667,0.333,64,176.0
578,A4,46.667,0.333,64,176.0
579,E4,46.667,0.333,64,176.0
580,A4,46.667,0.333,64,176.0
581,C3,46.667,0.333,64,176.0
582,E5,46.667,0.333,64,176.0
583,A4,46.667,0.333,64,176.0
584,A4,46.667,0.333,64,176.0
585,A3,46.667,0.333,64,176.0
586,A4,46.667,0.333,64,176.0
587,E4,46.667,0.333,64,176.0
588,E4,46.667,0.333,64,176.0
589,E5,47.0,0.667,64,176.0
590,F#4,47.0,0.667,64,176.0
591,E4,47.0,0.667,64,176.0
592,F#4,47.0,0.667,64,176.0
593,B2,47.0,0.667,64,176.0
594,F2,47.0,1.0,64,176.0
595,C#2,47.0,1.0,64,176.0
596,E5,47.0,0.667,64,176.0
597,F#4,47.0,0.667,64,176.0
598,F#4,47.0,0.667,64,176.0
599,F#3,47.0,0.667,64,176.0
600,F#4,47.0,0.667,64,176.0
601,E4,47.0,0.667,64,176.0
602,E4,47.0,0.667,64,176.0
603,B6,47.0,0.75,64,176.0
604,E-3,47.0,0.75,64,176.0
605,E5,47.667,0.333,64,176.0
606,E4,47.667,0.333,64,176.0
607,E4,47.667,0.333,64,176.0
608,E4,47.667,0.333,64,176.0
609,A2,47.667,0.333,64,176.0
610,E5,47.667,0.333,64,176.0
611,E4,47.667,0.333,64,176.0
612,E4,47.667,0.333,64,176.0
613,E3,47.667,0.333,64,176.0
614,E4,47.667,0.333,64,176.0
615,E4,47.667,0.333,64,176.0
616,E4,47.667,0.333,64,176.0
617,E-3,47.75,0.25,64,176.0
618,E5,48.0,0.667,64,176.0
619,E4,48.0,0.667,64,176.0
620,B1,48.0,1.0,64,176.0
621,E5,48.0,0.667,64,176.0
622,E4,48.0,0.667,64,176.0
623,E4,48.0,0.667,64,176.0
624,E-3,48.0,1.0,64,176.0
625,F2,48.0,1.0,64,176.0
626,E5,48.667,1.0,64,176.0
627,E4,48.667,1.0,64,176.0
628,E5,48.667,1.0,64,176.0
629,E4,48.667,1.0,64,176.0
630,E4,48.667,1.0,64,176.0
631,G2,49.0,1.0,64,176.0
632,C#2,49.0,1.0,64,176.0
633,B6,49.0,0.75,64,176.0
634,E-3,49.0,0.75,64,176.0
635,D5,49.667,1.0,64,176.0
636,D4,49.667,1.0,64,176.0
637,D5,49.667,1.0,64,176.0
638,D4,49.667,1.0,64,176.0
639,D4,49.667,1.0,64,176.0
640,E-3,49.75,0.25,64,176.0
641,D2,50.0,1.0,64,176.0
642,E-3,50.0,1.0,64,176.0
643,A2,50.0,1.0,64,176.0
644,D5,50.667,0.333,64,176.0
645,D4,50.667,0.333,64,176.0
646,D5,50.667,0.333,64,176.0
647,D4,50.667,0.333,64,176.0
648,D4,50.667,0.333,64,176.0
649,D5,51.0,0.667,64,176.0
650,D4,51.0,0.667,64,176.0
651,B2,51.0,1.0,64,176.0
652,E-2,51.0,1.0,64,176.0
653,D5,51.0,0.667,64,176.0
654,D4,51.0,0.667,64,176.0
655,D4,51.0,0.667,64,176.0
656,B6,51.0,0.75,64,176.0
657,E-3,51.0,0.75,64,176.0
658,D5,51.667,0.333,64,176.0
659,D4,51.667,0.333,64,176.0
660,D5,51.667,0.333,64,176.0
661,D4,51.667,0.333,64,176.0
662,D4,51.667,0.333,64,176.0
663,E-3,51.75,0.25,64,176.0
664,E5,52.0,0.667,64,176.0
665,E4,52.0,0.667,64,176.0
666,E2,52.0,1.0,64,176.0
667,E5,52.0,0.667,64,176.0
668,E4,52.0,0.667,64,176.0
669,E4,52.0,0.667,64,176.0
670,E-3,52.0,1.0,64,176.0
671,B2,52.0,1.0,64,176.0
672,E5,52.667,0.333,64,176.0
673,E4,52.667,0.333,64,176.0
674,E5,52.667,0.333,64,176.0
675,E4,52.667,0.333,64,176.0
676,E4,52.667,0.333,64,176.0
677,D5,53.0,1.0,64,176.0
678,D4,53.0,1.0,64,176.0
679,A2,53.0,1.0,64,176.0
680,D2,53.0,1.0,64,176.0
681,D5,53.0,1.0,64,176.0
682,D4,53.0,1.0,64,176.0
683,D4,53.0,1.0,64,176.0
684,B6,53.0,0.75,64,176.0
685,E-3,53.0,0.75,64,176.0
686,E-3,53.75,0.25,64,176.0
687,C5,54.0,1.0,64,176.0
688,C4,54.0,1.0,64,176.0
689,C#2,54.0,1.0,64,176.0
690,C5,54.0,1.0,64,176.0
691,C4,54.0,1.0,64,176.0
692,C4,54.0,1.0,64,176.0
693,E-3,54.0,1.0,64,176.0
694,G2,54.0,1.0,64,176.0
695,A4,55.0,0.667,64,176.0
696,A3,55.0,0.667,64,176.0
697,F2,55.0,1.0,64,176.0
698,B1,55.0,1.0,64,176.0
699,A4,55.0,0.667,64,176.0
700,A3,55.0,0.667,64,176.0
701,A3,55.0,0.667,64,176.0
702,B6,55.0,0.75,64,176.0
703,E-3,55.0,0.75,64,176.0
704,A4,55.667,0.333,64,176.0
705,A3,55.667,0.333,64,176.0
706,A4,55.667,0.333,64,176.0
707,A3,55.667,0.333,64,176.0
708,A3,55.667,0.333,64,176.0
709,E-3,55.75,0.25,64,176.0
710,A4,56.0,1.0,64,176.0
711,A3,56.0,1.0,64,176.0
712,A1,56.0,1.0,64,176.0
713,A4,56.0,1.0,64,176.0
714,E-3,56.0,1.0,64,176.0
715,F2,56.0,1.0,64,176.0
716,A4,56.667,0.333,64,176.0
717,A4,56.667,0.333,64,176.0
718,D3,56.667,0.333,64,176.0
719,A4,56.667,0.333,64,176.0
720,A4,56.667,0.333,64,176.0
721,A3,56.667,0.333,64,176.0
722,A4,56.667,0.333,64,176.0
723,G2,57.0,1.0,64,176.0
724,C#2,57.0,1.0,64,176.0
725,A3,57.0,1.0,64,176.0
726,A3,57.0,1.0,64,176.0
727,B6,57.0,0.75,64,176.0
728,E-3,57.0,0.75,64,176.0
729,A3,57.667,0.333,64,176.0
730,A3,57.667,0.333,64,176.0
731,A2,57.667,0.333,64,176.0
732,A3,57.667,0.333,64,176.0
733,A3,57.667,0.333,64,176.0
734,A2,57.667,0.333,64,176.0
735,A3,57.667,0.333,64,176.0
736,E-3,57.75,0.25,64,176.0
737,E2,58.0,1.0,64,176.0
738,E-3,58.0,1.0,64,176.0
739,A2,58.0,1.0,64,176.0
740,A4,58.667,0.333,64,176.0
741,A4,58.667,0.333,64,176.0
742,C3,58.667,0.333,64,176.0
743,A4,58.667,0.333,64,176.0
744,A4,58.667,0.333,64,176.0
745,A3,58.667,0.333,64,176.0
746,A4,58.667,0.333,64,176.0
747,F#4,59.0,0.667,64,176.0
748,F#4,59.0,0.667,64,176.0
749,B2,59.0,0.667,64,176.0
750,B2,59.0,1.0,64,176.0
751,F#2,59.0,1.0,64,176.0
752,F#4,59.0,0.667,64,176.0
753,F#4,59.0,0.667,64,176.0
754,F#3,59.0,0.667,64,176.0
755,F#4,59.0,0.667,64,176.0
756,B6,59.0,0.75,64,176.0
757,E-3,59.0,0.75,64,176.0
758,E4,59.667,0.333,64,176.0
759,E4,59.667,0.333,64,176.0
760,A2,59.667,0.333,64,176.0
761,E4,59.667,0.333,64,176.0
762,E4,59.667,0.333,64,176.0
763,E3,59.667,0.333,64,176.0
764,E4,59.667,0.333,64,176.0
765,E-3,59.75,0.25,64,176.0
766,G2,60.0,1.0,64,176.0
767,E-3,60.0,1.0,64,176.0
768,B2,60.0,1.0,64,176.0
769,A4,60.667,0.333,64,176.0
770,A4,60.667,0.333,64,176.0
771,D3,60.667,0.333,64,176.0
772,A4,60.667,0.333,64,176.0
773,A4,60.667,0.333,64,176.0
774,A3,60.667,0.333,64,176.0
775,A4,60.667,0.333,64,176.0
776,A2,61.0,1.0,64,176.0
777,F#2,61.0,1.0,64,176.0
778,B6,61.0,0.75,64,176.0
779,E-3,61.0,0.75,64,176.0
780,A3,61.667,0.333,64,176.0
781,A3,61.667,0.333,64,176.0
782,A2,61.667,0.333,64,176.0
783,A3,61.667,0.333,64,176.0
784,A3,61.667,0.333,64,176.0
785,A2,61.667,0.333,64,176.0
786,A3,61.667,0.333,64,176.0
787,E-3,61.75,0.25,64,176.0
788,C5,62.0,1.667,64,176.0
789,E2,62.0,1.0,64,176.0
790,E-3,62.0,1.0,64,176.0
791,G2,62.0,1.0,64,176.0
792,A5,62.667,0.333,64,176.0
793,A4,62.667,0.333,64,176.0
794,A4,62.667,0.333,64,176.0
795,C3,62.667,0.333,64,176.0
796,A4,62.667,0.333,64,176.0
797,A4,62.667,0.333,64,176.0
798,A3,62.667,0.333,64,176.0
799,A4,62.667,0.333,64,176.0
800,A5,63.0,0.667,64,176.0
801,F#4,63.0,0.667,64,176.0
802,F#4,63.0,0.667,64,176.0
803,B2,63.0,0.667,64,176.0
804,F2,63.0,1.0,64,176.0
805,C#2,63.0,1.0,64,176.0
806,F#4,63.0,0.667,64,176.0
807,F#4,63.0,0.667,64,176.0
808,F#3,63.0,0.667,64,176.0
809,F#4,63.0,0.667,64,176.0
810,B6,63.0,0.75,64,176.0
811,E-3,63.0,0.75,64,176.0
812,A5,63.667,0.333,64,176.0
813,E4,63.667,0.333,64,176.0
814,C5,63.667,0.333,64,176.0
815,E4,63.667,0.333,64,176.0
816,A2,63.667,0.333,64,176.0
817,E4,63.667,0.333,64,176.0
818,E4,63.667,0.333,64,176.0
819,E3,63.667,0.333,64,176.0
820,E4,63.667,0.333,64,176.0
821,E-3,63.75,0.25,64,176.0
822,A3,64.0,1.0,64,176.0
823,C5,64.0,0.667,64,176.0
824,C#2,64.0,0.75,64,176.0
825,F2,64.0,1.0,64,176.0
826,A1,64.0,1.0,64,176.0
827,A5,64.667,0.333,64,176.0
828,E4,64.667,0.333,64,176.0
829,E3,64.667,0.333,64,176.0
830,C5,64.667,0.333,64,176.0
831,C#4,64.667,0.333,64,176.0
832,A4,64.667,0.333,64,176.0
833,C#5,64.667,0.333,64,176.0
834,E4,64.667,0.333,64,176.0
835,E4,64.667,0.333,64,176.0
836,A4,64.667,0.333,64,176.0
837,C#2,64.75,0.25,64,176.0
838,C#4,65.0,1.0,64,176.0
839,C#2,65.0,0.75,90,176.0
840,C#2,65.0,1.0,64,176.0
841,G2,65.0,1.0,64,176.0
842,B-6,65.0,1.0,64,176.0
843,C#5,65.667,0.333,64,176.0
844,E4,65.667,0.333,64,176.0
845,C#2,65.75,0.25,64,176.0
846,A5,66.0,1.0,64,176.0
847,E4,66.0,1.0,64,176.0
848,C#4,66.0,1.0,64,176.0
849,A4,66.0,1.0,64,176.0
850,C#2,66.0,0.75,64,176.0
851,A2,66.0,1.0,64,176.0
852,E2,66.0,1.0,64,176.0
853,C#5,66.0,1.0,64,176.0
854,E4,66.0,1.0,64,176.0
855,E3,66.0,1.0,64,176.0
856,E4,66.0,1.0,64,176.0
857,E4,66.0,1.0,64,176.0
858,A4,66.0,1.0,64,176.0
859,C#2,66.75,0.25,64,176.0
860,A5,67.0,1.0,64,176.0
861,E4,67.0,1.0,64,176.0
862,C#4,67.0,1.0,64,176.0
863,A4,67.0,1.0,64,176.0
864,C#2,67.0,0.75,90,176.0
865,F#2,67.0,1.0,64,176.0
866,C#5,67.0,1.0,64,176.0
867,E4,67.0,1.0,64,176.0
868,E3,67.0,1.0,64,176.0
869,F#4,67.0,1.0,64,176.0
870,C#5,67.0,1.0,64,176.0
871,E4,67.0,1.0,64,176.0
872,B2,67.0,1.0,64,176.0
873,B-6,67.0,1.0,64,176.0
874,E4,67.0,1.0,64,176.0
875,A4,67.0,1.0,64,176.0
876,C#2,67.75,0.25,64,176.0
877,G4,68.0,1.0,64,176.0
878,C#2,68.0,0.75,64,176.0
879,B2,68.0,1.0,64,176.0
880,G2,68.0,1.0,64,176.0
881,C#5,68.0,1.0,64,176.0
882,E4,68.0,1.0,64,176.0
883,A5,68.667,0.333,64,176.0
884,E4,68.667,0.333,64,176.0
885,E3,68.667,0.333,64,176.0
886,C#4,68.667,0.333,64,176.0
887,A4,68.667,0.333,64,176.0
888,C#5,68.667,0.333,64,176.0
889,E4,68.667,0.333,64,176.0
890,E4,68.667,0.333,64,176.0
891,A4,68.667,0.333,64,176.0
892,C#2,68.75,0.25,64,176.0
893,F#4,69.0,1.0,64,176.0
894,C#2,69.0,0.75,90,176.0
895,F#2,69.0,1.0,64,176.0
896,A2,69.0,1.0,64,176.0
897,B-6,69.0,1.0,64,176.0
898,A5,69.667,0.333,64,176.0
899,E4,69.667,0.333,64,176.0
900,E3,69.667,0.333,64,176.0
901,C#4,69.667,0.333,64,176.0
902,A4,69.667,0.333,64,176.0
903,C#5,69.667,0.333,64,176.0
904,E4,69.667,0.333,64,176.0
905,C#5,69.667,0.333,64,176.0
906,E4,69.667,0.333,64,176.0
907,E4,69.667,0.333,64,176.0
908,A4,69.667,0.333,64,176.0
909,C#2,69.75,0.25,64,176.0
910,A5,70.0,0.667,64,176.0
911,E4,70.0,0.667,64,176.0
912,E3,70.0,0.667,64,176.0
913,E4,70.0,1.0,64,176.0
914,C#4,70.0,0.667,64,176.0
915,A4,70.0,0.667,64,176.0
916,C#2,70.0,0.667,64,176.0
917,G2,70.0,1.0,64,176.0
918,E2,70.0,1.0,64,176.0
919,C#5,70.0,0.667,64,176.0
920,E4,70.0,0.667,64,176.0
921,E4,70.0,0.667,64,176.0
922,A4,70.0,0.667,64,176.0
923,A5,70.667,0.333,64,176.0
924,E4,70.667,0.333,64,176.0
925,E3,70.667,0.333,64,176.0
926,C#4,70.667,0.333,64,176.0
927,A4,70.667,0.333,64,176.0
928,C#5,70.667,0.333,64,176.0
929,E4,70.667,0.333,64,176.0
930,C#5,70.667,0.333,64,176.0
931,E4,70.667,0.333,64,176.0
932,B6,70.667,0.333,77,176.0
933,D3,70.667,0.333,77,176.0
934,E4,70.667,0.333,64,176.0
935,A4,70.667,0.333,64,176.0
936,A5,71.0,0.667,64,176.0
937,E4,71.0,0.667,64,176.0
938,E3,71.0,0.667,64,176.0
939,C#4,71.0,1.0,64,176.0
940,C#4,71.0,0.667,64,176.0
941,A4,71.0,0.667,64,176.0
942,C#2,71.0,1.0,64,176.0
943,C#5,71.0,0.667,64,176.0
944,E4,71.0,0.667,64,176.0
945,C#5,71.0,0.667,64,176.0
946,E4,71.0,0.667,64,176.0
947,B6,71.0,0.667,77,176.0
948,C3,71.0,0.667,77,176.0
949,F2,71.0,1.0,64,176.0
950,B-6,71.0,1.0,64,176.0
951,E4,71.0,0.667,64,176.0
952,A4,71.0,0.667,64,176.0
953,A5,71.667,0.333,64,176.0
954,E4,71.667,0.333,64,176.0
955,E3,71.667,0.333,64,176.0
956,C#4,71.667,0.333,64,176.0
957,A4,71.667,0.333,64,176.0
958,C#5,71.667,0.333,64,176.0
959,E4,71.667,0.333,64,176.0
960,C#5,71.667,0.333,64,176.0
961,E4,71.667,0.333,64,176.0
962,B6,71.667,0.333,77,176.0
963,B2,71.667,0.333,77,176.0
964,E4,71.667,0.333,64,176.0
965,A4,71.667,0.333,64,176.0
966,A3,72.0,1.0,64,176.0
967,C#2,72.0,0.75,64,176.0
968,F2,72.0,1.0,64,176.0
969,A1,72.0,1.0,64,176.0
970,C#5,72.0,0.667,64,176.0
971,E4,72.0,0.667,64,176.0
972,A5,72.667,0.333,64,176.0
973,E4,72.667,0.333,64,176.0
974,E3,72.667,0.333,64,176.0
975,C#4,72.667,0.333,64,176.0
976,A4,72.667,0.333,64,176.0
977,C#5,72.667,0.333,64,176.0
978,E4,72.667,0.333,64,176.0
979,C#5,72.667,0.333,64,176.0
980,E4,72.667,0.333,64,176.0
981,E4,72.667,0.333,64,176.0
982,A4,72.667,0.333,64,176.0
983,C#2,72.75,0.25,64,176.0
984,C#4,73.0,1.0,64,176.0
985,C#2,73.0,0.75,90,176.0
986,C#2,73.0,1.0,64,176.0
987,G2,73.0,1.0,64,176.0
988,B-6,73.0,1.0,64,176.0
989,C#5,73.667,0.333,64,176.0
990,E4,73.667,0.333,64,176.0
991,C#2,73.75,0.25,64,176.0
992,A5,74.0,1.0,64,176.0
993,E4,74.0,1.0,64,176.0
994,C#4,74.0,1.0,64,176.0
995,A4,74.0,1.0,64,176.0
996,C#2,74.0,0.75,64,176.0
997,A2,74.0,1.0,64,176.0
998,E2,74.0,1.0,64,176.0
999,C#5,74.0,1.0,64,176.0
1000,E4,74.0,1.0,64,176.0
1001,E3,74.0,1.0,64,176.0
1002,E4,74.0,1.0,64,176.0
1003,E4,74.0,1.0,64,176.0
1004,A4,74.0,1.0,64,176.0
1005,C#2,74.75,0.25,64,176.0
1006,A5,75.0,1.0,64,176.0
1007,E4,75.0,1.0,64,176.0
1008,C#4,75.0,1.0,64,176.0
1009,A4,75.0,1.0,64,176.0
1010,C#2,75.0,0.75,90,176.0
1011,F#2,75.0,1.0,64,176.0
1012,C#5,75.0,1.0,64,176.0
1013,E4,75.0,1.0,64,176.0
1014,E3,75.0,1.0,64,176.0
1015,F#4,75.0,1.0,64,176.0
1016,C#5,75.0,1.0,64,176.0
1017,E4,75.0,1.0,64,176.0
1018,B2,75.0,1.0,64,176.0
1019,B-6,75.0,1.0,64,176.0
1020,E4,75.0,1.0,64,176.0
1021,A4,75.0,1.0,64,176.0
1022,C#2,75.75,0.25,64,176.0
1023,G4,76.0,1.0,64,176.0
1024,C#2,76.0,0.75,64,176.0
1025,B2,76.0,1.0,64,176.0
1026,G2,76.0,1.0,64,176.0
1027,C#5,76.0,1.0,64,176.0
1028,E4,76.0,1.0,64,176.0
1029,A5,76.667,0.333,64,176.0
1030,E4,76.667,0.333,64,176.0
1031,E3,76.667,0.333,64,176.0
1032,C#4,76.667,0.333,64,176.0
1033,A4,76.667,0.333,64,176.0
1034,C#5,76.667,0.333,64,176.0
1035,E4,76.667,0.333,64,176.0
1036,E4,76.667,0.333,64,176.0
1037,A4,76.667,0.333,64,176.0
1038,C#2,76.75,0.25,64,176.0
1039,F#4,77.0,1.0,64,176.0
1040,C#2,77.0,0.75,90,176.0
1041,F#2,77.0,1.0,64,176.0
1042,A2,77.0,1.0,64,176.0
1043,B-6,77.0,1.0,64,176.0
1044,A5,77.667,0.333,64,176.0
1045,E4,77.667,0.333,64,176.0
1046,E3,77.667,0.333,64,176.0
1047,C#4,77.667,0.333,64,176.0
1048,A4,77.667,0.333,64,176.0
1049,C#5,77.667,0.333,64,176.0
1050,E4,77.667,0.333,64,176.0
1051,C#5,77.667,0.333,64,176.0
1052,E4,77.667,0.333,64,176.0
1053,E4,77.667,0.333,64,176.0
1054,A4,77.667,0.333,64,176.0
1055,C#2,77.75,0.25,64,176.0
1056,A5,78.0,0.667,64,176.0
1057,E4,78.0,0.667,64,176.0
1058,E3,78.0,0.667,64,176.0
1059,E4,78.0,1.0,64,176.0
1060,C#4,78.0,0.667,64,176.0
1061,A4,78.0,0.667,64,176.0
1062,C#2,78.0,0.667,64,176.0
1063,G2,78.0,1.0,64,176.0
1064,E2,78.0,1.0,64,176.0
1065,C#5,78.0,0.667,64,176.0
1066,E4,78.0,0.667,64,176.0
1067,E4,78.0,0.667,64,176.0
1068,A4,78.0,0.667,64,176.0
1069,A5,78.667,0.333,64,176.0
1070,E4,78.667,0.333,64,176.0
1071,E3,78.667,0.333,64,176.0
1072,C#4,78.667,0.333,64,176.0
1073,A4,78.667,0.333,64,176.0
1074,C#5,78.667,0.333,64,176.0
1075,E4,78.667,0.333,64,176.0
1076,C#5,78.667,0.333,64,176.0
1077,E4,78.667,0.333,64,176.0
1078,B6,78.667,0.333,77,176.0
1079,D3,78.667,0.333,77,176.0
1080,E4,78.667,0.333,64,176.0
1081,A4,78.667,0.333,64,176.0
1082,A5,79.0,0.667,64,176.0
1083,E4,79.0,0.667,64,176.0
1084,E3,79.0,0.667,64,176.0
1085,C#4,79.0,1.0,64,176.0
1086,C#4,79.0,0.667,64,176.0
1087,A4,79.0,0.667,64,176.0
1088,C#2,79.0,1.0,64,176.0
1089,C#5,79.0,0.667,64,176.0
1090,E4,79.0,0.667,64,176.0
1091,C#5,79.0,0.667,64,176.0
1092,E4,79.0,0.667,64,176.0
1093,B6,79.0,0.667,77,176.0
1094,C3,79.0,0.667,77,176.0
1095,F2,79.0,1.0,64,176.0
1096,B-6,79.0,1.0,64,176.0
1097,E4,79.0,0.667,64,176.0
1098,A4,79.0,0.667,64,176.0
1099,A5,79.667,0.333,64,176.0
1100,E4,79.667,0.333,64,176.0
1101,E3,79.667,0.333,64,176.0
1102,C#4,79.667,0.333,64,176.0
1103,A4,79.667,0.333,64,176.0
1104,C#5,79.667,0.333,64,176.0
1105,E4,79.667,0.333,64,176.0
1106,C#5,79.667,0.333,64,176.0
1107,E4,79.667,0.333,64,176.0
1108,B6,79.667,0.333,77,176.0
1109,B2,79.667,0.333,77,176.0
1110,E4,79.667,0.333,64,176.0
1111,A4,79.667,0.333,64,176.0
1112,D4,80.0,1.0,64,176.0
1113,C#2,80.0,0.75,64,176.0
1114,F2,80.0,1.0,64,176.0
1115,D2,80.0,1.0,64,176.0
1116,C#5,80.0,0.667,64,176.0
1117,E4,80.0,0.667,64,176.0
1118,A5,80.667,0.333,64,176.0
1119,F#4,80.667,0.333,64,176.0
1120,F#3,80.667,0.333,64,176.0
1121,C4,80.667,0.333,64,176.0
1122,A4,80.667,0.333,64,176.0
1123,C5,80.667,0.333,64,176.0
1124,F#4,80.667,0.333,64,176.0
1125,C#5,80.667,0.333,64,176.0
1126,E4,80.667,0.333,64,176.0
1127,F#4,80.667,0.333,64,176.0
1128,A4,80.667,0.333,64,176.0
1129,C#2,80.75,0.25,64,176.0
1130,F#4,81.0,1.0,64,176.0
1131,C#2,81.0,0.75,90,176.0
1132,F#2,81.0,1.0,64,176.0
1133,G2,81.0,1.0,64,176.0
1134,B-6,81.0,1.0,64,176.0
1135,C5,81.667,0.333,64,176.0
1136,F#4,81.667,0.333,64,176.0
1137,C#2,81.75,0.25,64,176.0
1138,A5,82.0,1.0,64,176.0
1139,F#4,82.0,1.0,64,176.0
1140,C4,82.0,1.0,64,176.0
1141,A4,82.0,1.0,64,176.0
1142,C#2,82.0,0.75,64,176.0
1143,A2,82.0,1.0,64,176.0
1144,A2,82.0,1.0,64,176.0
1145,C5,82.0,1.0,64,176.0
1146,F#4,82.0,1.0,64,176.0
1147,F#3,82.0,1.0,64,176.0
1148,A4,82.0,1.0,64,176.0
1149,F#4,82.0,1.0,64,176.0
1150,A4,82.0,1.0,64,176.0
1151,C#2,82.75,0.25,64,176.0
1152,A5,83.0,1.0,64,176.0
1153,F#4,83.0,1.0,64,176.0
1154,C4,83.0,1.0,64,176.0
1155,A4,83.0,1.0,64,176.0
1156,C#2,83.0,0.75,90,176.0
1157,B2,83.0,1.0,64,176.0
1158,C5,83.0,1.0,64,176.0
1159,F#4,83.0,1.0,64,176.0
1160,F#3,83.0,1.0,64,176.0
1161,B4,83.0,1.0,64,176.0
1162,C5,83.0,1.0,64,176.0
1163,F#4,83.0,1.0,64,176.0
1164,B2,83.0,1.0,64,176.0
1165,B-6,83.0,1.0,64,176.0
1166,F#4,83.0,1.0,64,176.0
1167,A4,83.0,1.0,64,176.0
1168,C#2,83.75,0.25,64,176.0
1169,C5,84.0,1.0,64,176.0
1170,C#2,84.0,0.75,64,176.0
1171,B2,84.0,1.0,64,176.0
1172,C3,84.0,1.0,64,176.0
1173,C5,84.0,1.0,64,176.0
1174,F#4,84.0,1.0,64,176.0
1175,A5,84.667,0.333,64,176.0
1176,F#4,84.667,0.333,64,176.0
1177,F#3,84.667,0.333,64,176.0
1178,C4,84.667,0.333,64,176.0
1179,A4,84.667,0.333,64,176.0
1180,C5,84.667,0.333,64,176.0
1181,F#4,84.667,0.333,64,176.0
1182,F#4,84.667,0.333,64,176.0
1183,A4,84.667,0.333,64,176.0
1184,C#2,84.75,0.25,64,176.0
1185,B4,85.0,1.0,64,176.0
1186,C#2,85.0,0.75,90,176.0
1187,B2,85.0,1.0,64,176.0
1188,A2,85.0,1.0,64,176.0
1189,B-6,85.0,1.0,64,176.0
1190,A5,85.667,0.333,64,176.0
1191,F#4,85.667,0.333,64,176.0
1192,F#3,85.667,0.333,64,176.0
1193,C4,85.667,0.333,64,176.0
1194,A4,85.667,0.333,64,176.0
1195,C5,85.667,0.333,64,176.0
1196,F#4,85.667,0.333,64,176.0
1197,C5,85.667,0.333,64,176.0
1198,F#4,85.667,0.333,64,176.0
1199,F#4,85.667,0.333,64,176.0
1200,A4,85.667,0.333,64,176.0
1201,C#2,85.75,0.25,64,176.0
1202,A5,86.0,0.667,64,176.0
1203,F#4,86.0,0.667,64,176.0
1204,F#3,86.0,0.667,64,176.0
1205,A4,86.0,1.0,64,176.0
1206,C4,86.0,0.667,64,176.0
1207,A4,86.0,0.667,64,176.0
1208,C#2,86.0,0.667,64,176.0
1209,G2,86.0,1.0,64,176.0
1210,A2,86.0,1.0,64,176.0
1211,C5,86.0,0.667,64,176.0
1212,F#4,86.0,0.667,64,176.0
1213,F#4,86.0,0.667,64,176.0
1214,A4,86.0,0.667,64,176.0
1215,A5,86.667,0.333,64,176.0
1216,F#4,86.667,0.333,64,176.0
1217,F#3,86.667,0.333,64,176.0
1218,C4,86.667,0.333,64,176.0
1219,A4,86.667,0.333,64,176.0
1220,C5,86.667,0.333,64,176.0
1221,F#4,86.667,0.333,64,176.0
1222,C5,86.667,0.333,64,176.0
1223,F#4,86.667,0.333,64,176.0
1224,B6,86.667,0.333,77,176.0
1225,D3,86.667,0.333,77,176.0
1226,F#4,86.667,0.333,64,176.0
1227,A4,86.667,0.333,64,176.0
1228,A5,87.0,0.667,64,176.0
1229,F#4,87.0,0.667,64,176.0
1230,F#3,87.0,0.667,64,176.0
1231,F#4,87.0,1.0,64,176.0
1232,C4,87.0,0.667,64,176.0
1233,A4,87.0,0.667,64,176.0
1234,F#2,87.0,1.0,64,176.0
1235,C5,87.0,0.667,64,176.0
1236,F#4,87.0,0.667,64,176.0
1237,C5,87.0,0.667,64,176.0
1238,F#4,87.0,0.667,64,176.0
1239,B6,87.0,0.667,77,176.0
1240,C3,87.0,0.667,77,176.0
1241,F2,87.0,1.0,64,176.0
1242,B-6,87.0,1.0,64,176.0
1243,F#4,87.0,0.667,64,176.0
1244,A4,87.0,0.667,64,176.0
1245,A5,87.667,0.333,64,176.0
1246,F#4,87.667,0.333,64,176.0
1247,F#3,87.667,0.333,64,176.0
1248,C4,87.667,0.333,64,176.0
1249,A4,87.667,0.333,64,176.0
1250,C5,87.667,0.333,64,176.0
1251,F#4,87.667,0.333,64,176.0
1252,C5,87.667,0.333,64,176.0
1253,F#4,87.667,0.333,64,176.0
1254,B6,87.667,0.333,77,176.0
1255,B2,87.667,0.333,77,176.0
1256,F#4,87.667,0.333,64,176.0
1257,A4,87.667,0.333,64,176.0
1258,A3,88.0,1.0,64,176.0
1259,C#2,88.0,0.75,64,176.0
1260,F2,88.0,1.0,64,176.0
1261,A1,88.0,1.0,64,176.0
1262,C5,88.0,0.667,64,176.0
1263,F#4,88.0,0.667,64,176.0
1264,A5,88.667,0.333,64,176.0
1265,E4,88.667,0.333,64,176.0
1266,E3,88.667,0.333,64,176.0
1267,C#4,88.667,0.333,64,176.0
1268,A4,88.667,0.333,64,176.0
1269,C#5,88.667,0.333,64,176.0
1270,E4,88.667,0.333,64,176.0
1271,C5,88.667,0.333,64,176.0
1272,F#4,88.667,0.333,64,176.0
1273,E4,88.667,0.333,64,176.0
1274,A4,88.667,0.333,64,176.0
1275,C#2,88.75,0.25,64,176.0
1276,C#4,89.0,1.0,64,176.0
1277,C#2,89.0,0.75,90,176.0
1278,C#2,89.0,1.0,64,176.0
1279,G2,89.0,1.0,64,176.0
1280,B-6,89.0,1.0,64,176.0
1281,C#5,89.667,0.333,64,176.0
1282,E4,89.667,0.333,64,176.0
1283,C#2,89.75,0.25,64,176.0
1284,A5,90.0,1.0,64,176.0
1285,E4,90.0,1.0,64,176.0
1286,C#4,90.0,1.0,64,176.0
1287,A4,90.0,1.0,64,176.0
1288,C#2,90.0,0.75,64,176.0
1289,A2,90.0,1.0,64,176.0
1290,E2,90.0,1.0,64,176.0
1291,C#5,90.0,1.0,64,176.0
1292,E4,90.0,1.0,64,176.0
1293,E3,90.0,1.0,64,176.0
1294,E4,90.0,1.0,64,176.0
1295,E4,90.0,1.0,64,176.0
1296,A4,90.0,1.0,64,176.0
1297,C#2,90.75,0.25,64,176.0
1298,A5,91.0,1.0,64,176.0
1299,E4,91.0,1.0,64,176.0
1300,C#4,91.0,1.0,64,176.0
1301,A4,91.0,1.0,64,176.0
1302,C#2,91.0,0.75,90,176.0
1303,F#2,91.0,1.0,64,176.0
1304,C#5,91.0,1.0,64,176.0
1305,E4,91.0,1.0,64,176.0
1306,E3,91.0,1.0,64,176.0
1307,F#4,91.0,1.0,64,176.0
1308,C#5,91.0,1.0,64,176.0
1309,E4,91.0,1.0,64,176.0
1310,B2,91.0,1.0,64,176.0
1311,B-6,91.0,1.0,64,176.0
1312,E4,91.0,1.0,64,176.0
1313,A4,91.0,1.0,64,176.0
1314,C#2,91.75,0.25,64,176.0
1315,G4,92.0,1.0,64,176.0
1316,C#2,92.0,0.75,64,176.0
1317,B2,92.0,1.0,64,176.0
1318,G2,92.0,1.0,64,176.0
1319,C#5,92.0,1.0,64,176.0
1320,E4,92.0,1.0,64,176.0
1321,A5,92.667,0.333,64,176.0
1322,E4,92.667,0.333,64,176.0
1323,E3,92.667,0.333,64,176.0
1324,C#4,92.667,0.333,64,176.0
1325,A4,92.667,0.333,64,176.0
1326,C#5,92.667,0.333,64,176.0
1327,E4,92.667,0.333,64,176.0
1328,E4,92.667,0.333,64,176.0
1329,A4,92.667,0.333,64,176.0
1330,C#2,92.75,0.25,64,176.0
1331,F#4,93.0,1.0,64,176.0
1332,C#2,93.0,0.75,90,176.0
1333,F#2,93.0,1.0,64,176.0
1334,A2,93.0,1.0,64,176.0
1335,B-6,93.0,1.0,64,176.0
1336,A5,93.667,0.333,64,176.0
1337,E4,93.667,0.333,64,176.0
1338,E3,93.667,0.333,64,176.0
1339,C#4,93.667,0.333,64,176.0
1340,A4,93.667,0.333,64,176.0
1341,C#5,93.667,0.333,64,176.0
1342,E4,93.667,0.333,64,176.0
1343,C#5,93.667,0.333,64,176.0
1344,E4,93.667,0.333,64,176.0
1345,E4,93.667,0.333,64,176.0
1346,A4,93.667,0.333,64,176.0
1347,C#2,93.75,0.25,64,176.0
1348,A5,94.0,0.667,64,176.0
1349,E4,94.0,0.667,64,176.0
1350,E3,94.0,0.667,64,176.0
1351,E4,94.0,1.0,64,176.0
1352,C#4,94.0,0.667,64,176.0
1353,A4,94.0,0.667,64,176.0
1354,C#2,94.0,0.667,64,176.0
1355,G2,94.0,1.0,64,176.0
1356,E2,94.0,1.0,64,176.0
1357,C#5,94.0,0.667,64,176.0
1358,E4,94.0,0.667,64,176.0
1359,E4,94.0,0.667,64,176.0
1360,A4,94.0,0.667,64,176.0
1361,A5,94.667,0.333,64,176.0
1362,E4,94.667,0.333,64,176.0
1363,E3,94.667,0.333,64,176.0
1364,C#4,94.667,0.333,64,176.0
1365,A4,94.667,0.333,64,176.0
1366,C#5,94.667,0.333,64,176.0
1367,E4,94.667,0.333,64,176.0
1368,C#5,94.667,0.333,64,176.0
1369,E4,94.667,0.333,64,176.0
1370,B6,94.667,0.333,77,176.0
1371,D3,94.667,0.333,77,176.0
1372,E4,94.667,0.333,64,176.0
1373,A4,94.667,0.333,64,176.0
1374,A5,95.0,0.667,64,176.0
1375,E4,95.0,0.667,64,176.0
1376,E3,95.0,0.667,64,176.0
1377,C#4,95.0,1.0,64,176.0
1378,C#4,95.0,0.667,64,176.0
1379,A4,95.0,0.667,64,176.0
1380,C#2,95.0,1.0,64,176.0
1381,C#5,95.0,0.667,64,176.0
1382,E4,95.0,0.667,64,176.0
1383,C#5,95.0,0.667,64,176.0
1384,E4,95.0,0.667,64,176.0
1385,B6,95.0,0.667,77,176.0
1386,C3,95.0,0.667,77,176.0
1387,F2,95.0,1.0,64,176.0
1388,B-6,95.0,1.0,64,176.0
1389,E4,95.0,0.667,64,176.0
1390,A4,95.0,0.667,64,176.0
1391,A5,95.667,0.333,64,176.0
1392,E4,95.667,0.333,64,176.0
1393,E3,95.667,0.333,64,176.0
1394,C#4,95.667,0.333,64,176.0
1395,A4,95.667,0.333,64,176.0
1396,C#5,95.667,0.333,64,176.0
1397,E4,95.667,0.333,64,176.0
1398,C#5,95.667,0.333,64,176.0
1399,E4,95.667,0.333,64,176.0
1400,B6,95.667,0.333,77,176.0
1401,B2,95.667,0.333,77,176.0
1402,E4,95.667,0.333,64,176.0
1403,A4,95.667,0.333,64,176.0
1404,B3,96.0,1.0,64,176.0
1405,C#2,96.0,0.75,64,176.0
1406,F2,96.0,1.0,64,176.0
1407,B1,96.0,1.0,64,176.0
1408,C#5,96.0,0.667,64,176.0
1409,E4,96.0,0.667,64,176.0
1410,B5,96.667,0.333,64,176.0
1411,G#4,96.667,0.333,64,176.0
1412,G#3,96.667,0.333,64,176.0
1413,D4,96.667,0.333,64,176.0
1414,B4,96.667,0.333,64,176.0
1415,D5,96.667,0.333,64,176.0
1416,G#4,96.667,0.333,64,176.0
1417,C#5,96.667,0.333,64,176.0
1418,E4,96.667,0.333,64,176.0
1419,G#4,96.667,0.333,64,176.0
1420,B4,96.667,0.333,64,176.0
1421,C#2,96.75,0.25,64,176.0
1422,C#4,97.0,1.0,64,176.0
1423,C#2,97.0,0.75,90,176.0
1424,C#2,97.0,1.0,64,176.0
1425,G2,97.0,1.0,64,176.0
1426,B-6,97.0,1.0,64,176.0
1427,D5,97.667,0.333,64,176.0
1428,G#4,97.667,0.333,64,176.0
1429,C#2,97.75,0.25,64,176.0
1430,B5,98.0,1.0,64,176.0
1431,G#4,98.0,1.0,64,176.0
1432,D4,98.0,1.0,64,176.0
1433,B4,98.0,1.0,64,176.0
1434,C#2,98.0,0.75,64,176.0
1435,A2,98.0,1.0,64,176.0
1436,D2,98.0,1.0,64,176.0
1437,D5,98.0,1.0,64,176.0
1438,G#4,98.0,1.0,64,176.0
1439,G#3,98.0,1.0,64,176.0
1440,D4,98.0,1.0,64,176.0
1441,G#4,98.0,1.0,64,176.0
1442,B4,98.0,1.0,64,176.0
1443,C#2,98.75,0.25,64,176.0
1444,B5,99.0,1.0,64,176.0
1445,G#4,99.0,1.0,64,176.0
1446,D4,99.0,1.0,64,176.0
1447,B4,99.0,1.0,64,176.0
1448,C#2,99.0,0.75,90,176.0
1449,E-2,99.0,1.0,64,176.0
1450,D5,99.0,1.0,64,176.0
1451,G#4,99.0,1.0,64,176.0
1452,G#3,99.0,1.0,64,176.0
1453,E-4,99.0,1.0,64,176.0
1454,D5,99.0,1.0,64,176.0
1455,G#4,99.0,1.0,64,176.0
1456,B2,99.0,1.0,64,176.0
1457,B-6,99.0,1.0,64,176.0
1458,G#4,99.0,1.0,64,176.0
1459,B4,99.0,1.0,64,176.0
1460,C#2,99.75,0.25,64,176.0
1461,E4,100.0,1.0,64,176.0
1462,C#2,100.0,0.75,64,176.0
1463,B2,100.0,1.0,64,176.0
1464,E2,100.0,1.0,64,176.0
1465,D5,100.0,1.0,64,176.0
1466,G#4,100.0,1.0,64,176.0
1467,A5,100.667,0.333,64,176.0
1468,F#4,100.667,0.333,64,176.0
1469,F#3,100.667,0.333,64,176.0
1470,C4,100.667,0.333,64,176.0
1471,A4,100.667,0.333,64,176.0
1472,C5,100.667,0.333,64,176.0
1473,F#4,100.667,0.333,64,176.0
1474,F#4,100.667,0.333,64,176.0
1475,A4,100.667,0.333,64,176.0
1476,C#2,100.75,0.25,64,176.0
1477,D4,101.0,1.0,64,176.0
1478,C#2,101.0,0.75,90,176.0
1479,D2,101.0,1.0,64,176.0
1480,A2,101.0,1.0,64,176.0
1481,B-6,101.0,1.0,64,176.0
1482,A5,101.667,0.333,64,176.0
1483,F#4,101.667,0.333,64,176.0
1484,F#3,101.667,0.333,64,176.0
1485,C4,101.667,0.333,64,176.0
1486,A4,101.667,0.333,64,176.0
1487,C5,101.667,0.333,64,176.0
1488,F#4,101.667,0.333,64,176.0
1489,C5,101.667,0.333,64,176.0
1490,F#4,101.667,0.333,64,176.0
1491,F#4,101.667,0.333,64,176.0
1492,A4,101.667,0.333,64,176.0
1493,C#2,101.75,0.25,64,176.0
1494,A5,102.0,1.0,64,176.0
1495,F#4,102.0,1.0,64,176.0
1496,C4,102.0,1.0,64,176.0
1497,A4,102.0,1.0,64,176.0
1498,C#2,102.0,0.667,64,176.0
1499,G2,102.0,1.0,64,176.0
1500,C#2,102.0,1.0,64,176.0
1501,C5,102.0,1.0,64,176.0
1502,F#4,102.0,1.0,64,176.0
1503,F#3,102.0,1.0,64,176.0
1504,C#4,102.0,1.0,64,176.0
1505,F#4,102.0,1.0,64,176.0
1506,A4,102.0,1.0,64,176.0
1507,C5,102.667,0.333,64,176.0
1508,F#4,102.667,0.333,64,176.0
1509,B6,102.667,0.333,77,176.0
1510,D3,102.667,0.333,77,176.0
1511,A5,103.0,0.667,64,176.0
1512,F#4,103.0,0.667,64,176.0
1513,C4,103.0,0.667,64,176.0
1514,A4,103.0,0.667,64,176.0
1515,B1,103.0,0.667,64,176.0
1516,C5,103.0,0.667,64,176.0
1517,F#4,103.0,0.667,64,176.0
1518,F#3,103.0,0.667,64,176.0
1519,B3,103.0,0.667,64,176.0
1520,C5,103.0,1.0,64,176.0
1521,F#4,103.0,1.0,64,176.0
1522,B6,103.0,0.667,77,176.0
1523,C3,103.0,0.667,77,176.0
1524,F2,103.0,1.0,64,176.0
1525,B-6,103.0,1.0,64,176.0
1526,F#4,103.0,0.667,64,176.0
1527,A4,103.0,0.667,64,176.0
1528,A5,103.667,0.333,64,176.0
1529,A3,103.667,0.333,64,176.0
1530,C#4,103.667,0.333,64,176.0
1531,A4,103.667,0.333,64,176.0
1532,A1,103.667,0.333,64,176.0
1533,A4,103.667,0.333,64,176.0
1534,C#5,103.667,0.333,64,176.0
1535,E4,103.667,0.333,64,176.0
1536,E3,103.667,0.333,64,176.0
1537,A3,103.667,0.333,64,176.0
1538,B6,103.667,0.333,77,176.0
1539,B2,103.667,0.333,77,176.0
1540,A5,104.0,1.0,64,176.0
1541,A3,104.0,1.0,64,176.0
1542,C#4,104.0,1.0,64,176.0
1543,A4,104.0,1.0,64,176.0
1544,A1,104.0,1.0,64,176.0
1545,A4,104.0,1.0,64,176.0
1546,C#5,104.0,1.0,64,176.0
1547,E4,104.0,1.0,64,176.0
1548,C5,104.0,0.667,64,176.0
1549,F#4,104.0,0.667,64,176.0
1550,B6,104.0,1.0,64,176.0
1551,A2,104.0,1.0,64,176.0
1552,B2,104.0,1.0,64,176.0
1553,F2,104.0,1.0,64,176.0
1554,G2,104.0,1.0,64,176.0
1555,A2,104.0,1.0,64,176.0
1556,B2,104.0,1.0,64,176.0
1557,B-6,104.0,1.0,64,176.0
1558,C#5,104.667,0.333,64,176.0
1559,E4,104.667,0.333,64,176.0
1560,E3,105.0,1.0,64,176.0
1561,A3,105.0,1.0,64,176.0
1562,C#5,105.0,1.0,64,176.0
1563,E4,105.0,1.0,64,176.0
1564,A2,105.5,1.5,64,176.0
1565,A4,105.667,1.333,64,176.0
1566,A3,105.667,1.333,64,176.0
1567,A2,105.667,1.333,64,176.0
1568,A3,105.667,1.333,64,176.0
1569,A3,105.667,1.333,64,176.0
1570,A2,106.667,1.333,64,176.0
1571,A4,106.667,1.333,64,176.0
1572,A3,106.667,1.333,64,176.0
1573,A3,106.667,1.333,64,176.0
1574,A4,107.667,0.333,64,176.0
1575,A4,107.667,0.333,64,176.0
1576,A5,107.667,0.333,64,176.0
1577,A3,107.667,0.333,64,176.0
1578,A3,107.667,0.333,64,176.0
1579,A3,107.667,0.333,64,176.0
1580,A3,107.667,0.333,64,176.0
1581,A4,108.0,1.0,64,176.0
1582,A4,108.0,1.0,64,176.0
1583,A5,108.0,1.0,64,176.0
1584,A3,108.0,1.0,64,176.0
1585,A3,108.0,1.0,64,176.0
1586,A3,108.0,1.0,64,176.0
1587,A3,108.0,1.0,64,176.0
1588,A3,108.667,0.333,64,176.0
1589,A4,108.667,0.333,64,176.0
1590,A4,108.667,0.333,64,176.0
1591,A3,109.0,1.0,64,176.0
1592,A4,109.0,1.0,64,176.0
1593,A4,109.0,1.0,64,176.0
1594,A6,109.5,1.5,64,176.0
1595,A5,109.667,1.333,64,176.0
1596,A4,109.667,1.0,64,176.0
1597,A4,109.667,1.333,64,176.0
1598,A4,109.667,1.333,64,176.0
1599,A4,109.667,1.333,64,176.0
1600,A5,109.667,1.333,64,176.0
1601,A5,109.667,1.333,64,176.0
1602,B6,110.0,0.333,64,176.0
1603,D3,110.0,0.333,64,176.0
1604,B6,110.333,0.334,64,176.0
1605,D3,110.333,0.334,64,176.0
1606,A3,110.667,0.333,64,176.0
1607,A3,110.667,0.333,64,176.0
1608,A4,110.667,1.333,64,176.0
1609,A5,110.667,1.0,64,176.0
1610,A4,110.667,1.333,64,176.0
1611,B6,110.667,0.333,64,176.0
1612,D3,110.667,0.333,64,176.0
1613,C#4,111.0,0.333,64,176.0
1614,A3,111.0,1.0,64,176.0
1615,B6,111.0,0.333,64,176.0
1616,C3,111.0,0.333,64,176.0
1617,E4,111.333,0.334,64,176.0
1618,B6,111.333,0.334,64,176.0
1619,C3,111.333,0.334,64,176.0
1620,F#4,111.667,0.333,64,176.0
1621,A3,111.667,0.333,64,176.0
1622,B6,111.667,0.333,64,176.0
1623,C3,111.667,0.333,64,176.0
1624,A4,112.0,1.0,64,176.0
1625,C#4,112.0,0.333,64,176.0
1626,A1,112.0,1.0,64,176.0
1627,E-3,112.0,1.0,64,176.0
1628,F2,112.0,1.0,64,176.0
1629,E4,112.333,0.334,64,176.0
1630,F#4,112.667,0.333,64,176.0
1631,A4,113.0,0.667,64,176.0
1632,A3,113.0,1.0,64,176.0
1633,A4,113.0,1.0,64,176.0
1634,G2,113.0,1.0,64,176.0
1635,C#2,113.0,1.0,64,176.0
1636,B6,113.0,0.75,64,176.0
1637,E-3,113.0,0.75,64,176.0
1638,A4,113.667,0.333,64,176.0
1639,E-3,113.75,0.25,64,176.0
1640,G4,114.0,1.0,64,176.0
1641,C#4,114.0,1.0,64,176.0
1642,A4,114.0,0.667,64,176.0
1643,E2,114.0,1.0,64,176.0
1644,E-3,114.0,1.0,64,176.0
1645,A2,114.0,1.0,64,176.0
1646,A4,114.667,0.333,64,176.0
1647,E4,115.0,1.0,64,176.0
1648,E4,115.0,1.0,64,176.0
1649,G4,115.0,1.0,64,176.0
1650,F#2,115.0,1.0,64,176.0
1651,B6,115.0,0.75,64,176.0
1652,E-3,115.0,0.75,64,176.0
1653,B2,115.0,1.0,64,176.0
1654,A3,115.0,1.0,64,176.0
1655,E-3,115.75,0.25,64,176.0
1656,E4,116.0,1.0,64,176.0
1657,F#4,116.0,1.0,64,176.0
1658,E4,116.0,1.0,64,176.0
1659,A1,116.0,1.0,64,176.0
1660,E-3,116.0,1.0,64,176.0
1661,B2,116.0,1.0,64,176.0
1662,A3,117.0,1.0,64,176.0
1663,E4,117.0,1.0,64,176.0
1664,A2,117.0,1.0,64,176.0
1665,C#2,117.0,1.0,64,176.0
1666,B6,117.0,0.75,64,176.0
1667,E-3,117.0,0.75,64,176.0
1668,E-3,117.75,0.25,64,176.0
1669,C#4,118.0,1.0,64,176.0
1670,E2,118.0,1.0,64,176.0
1671,E-3,118.0,1.0,64,176.0
1672,G2,118.0,1.0,64,176.0
1673,A3,118.667,0.333,64,176.0
1674,C#4,119.0,0.333,64,176.0
1675,E4,119.0,1.0,64,176.0
1676,F#2,119.0,1.0,64,176.0
1677,B6,119.0,0.75,64,176.0
1678,E-3,119.0,0.75,64,176.0
1679,F2,119.0,1.0,64,176.0
1680,A3,119.0,1.0,64,176.0
1681,E4,119.333,0.334,64,176.0
1682,F#4,119.667,0.333,64,176.0
1683,A3,119.667,0.333,64,176.0
1684,E-3,119.75,0.25,64,176.0
1685,A4,120.0,1.0,64,176.0
1686,F#4,120.0,1.0,64,176.0
1687,C#4,120.0,0.333,64,176.0
1688,A1,120.0,1.0,64,176.0
1689,E-3,120.0,1.0,64,176.0
1690,F2,120.0,1.0,64,176.0
1691,E4,120.333,0.334,64,176.0
1692,F#4,120.667,0.333,64,176.0
1693,A4,121.0,0.667,64,176.0
1694,A3,121.0,1.0,64,176.0
1695,A4,121.0,1.0,64,176.0
1696,G2,121.0,1.0,64,176.0
1697,C#2,121.0,1.0,64,176.0
1698,B6,121.0,0.75,64,176.0
1699,E-3,121.0,0.75,64,176.0
1700,A4,121.667,0.333,64,176.0
1701,E-3,121.75,0.25,64,176.0
1702,G4,122.0,1.0,64,176.0
1703,C#4,122.0,1.0,64,176.0
1704,A4,122.0,0.667,64,176.0
1705,E2,122.0,1.0,64,176.0
1706,E-3,122.0,1.0,64,176.0
1707,A2,122.0,1.0,64,176.0
1708,A4,122.667,0.333,64,176.0
1709,E4,123.0,1.0,64,176.0
1710,E4,123.0,1.0,64,176.0
1711,G4,123.0,1.0,64,176.0
1712,F#2,123.0,1.0,64,176.0
1713,B6,123.0,0.75,64,176.0
1714,E-3,123.0,0.75,64,176.0
1715,B2,123.0,1.0,64,176.0
1716,A3,123.0,1.0,64,176.0
1717,E-3,123.75,0.25,64,176.0
1718,E4,124.0,1.0,64,176.0
1719,F#4,124.0,1.0,64,176.0
1720,E4,124.0,1.0,64,176.0
1721,G2,124.0,1.0,64,176.0
1722,E-3,124.0,1.0,64,176.0
1723,B2,124.0,1.0,64,176.0
1724,G4,125.0,1.0,64,176.0
1725,E4,125.0,1.0,64,176.0
1726,A2,125.0,1.0,64,176.0
1727,F#2,125.0,1.0,64,176.0
1728,B6,125.0,0.75,64,176.0
1729,E-3,125.0,0.75,64,176.0
1730,E-3,125.75,0.25,64,176.0
1731,F#4,126.0,1.0,64,176.0
1732,E2,126.0,1.0,64,176.0
1733,E-3,126.0,1.0,64,176.0
1734,G2,126.0,1.0,64,176.0
1735,C5,127.0,0.667,64,176.0
1736,E4,127.0,1.0,64,176.0
1737,C#2,127.0,1.0,64,176.0
1738,B6,127.0,0.75,64,176.0
1739,E-3,127.0,0.75,64,176.0
1740,F2,127.0,1.0,64,176.0
1741,A3,127.0,1.0,64,176.0
1742,C5,127.667,0.333,64,176.0
1743,E-3,127.75,0.25,64,176.0
1744,C5,128.0,1.0,64,176.0
1745,C#4,128.0,1.0,64,176.0
1746,C5,128.0,0.667,64,176.0
1747,D2,128.0,1.0,64,176.0
1748,E-3,128.0,1.0,64,176.0
1749,F2,128.0,1.0,64,176.0
1750,C5,128.667,0.333,64,176.0
1751,A4,129.0,0.667,64,176.0
1752,D4,129.0,1.0,64,176.0
1753,C5,129.0,1.0,64,176.0
1754,G2,129.0,1.0,64,176.0
1755,F#2,129.0,1.0,64,176.0
1756,B6,129.0,0.75,64,176.0
1757,E-3,129.0,0.75,64,176.0
1758,A4,129.667,1.333,64,176.0
1759,E-3,129.75,0.25,64,176.0
1760,F#4,130.0,1.0,64,176.0
1761,A4,130.0,0.667,64,176.0
1762,A2,130.0,1.0,64,176.0
1763,E-3,130.0,1.0,64,176.0
1764,A2,130.0,1.0,64,176.0
1765,A4,130.667,1.333,64,176.0
1766,G4,131.0,0.667,64,176.0
1767,A4,131.0,1.0,64,176.0
1768,B2,131.0,1.0,64,176.0
1769,B6,131.0,0.75,64,176.0
1770,E-3,131.0,0.75,64,176.0
1771,B2,131.0,1.0,64,176.0
1772,A3,131.0,1.0,64,176.0
1773,G4,131.667,0.333,64,176.0
1774,E-3,131.75,0.25,64,176.0
1775,G4,132.0,1.0,64,176.0
1776,B4,132.0,1.0,64,176.0
1777,G4,132.0,0.667,64,176.0
1778,C3,132.0,1.0,64,176.0
1779,E-3,132.0,1.0,64,176.0
1780,B2,132.0,1.0,64,176.0
1781,G4,132.667,0.333,64,176.0
1782,E4,133.0,0.667,64,176.0
1783,C5,133.0,1.0,64,176.0
1784,G4,133.0,1.0,64,176.0
1785,A2,133.0,1.0,64,176.0
1786,B2,133.0,1.0,64,176.0
1787,B6,133.0,0.75,64,176.0
1788,E-3,133.0,0.75,64,176.0
1789,E4,133.667,0.333,64,176.0
1790,E-3,133.75,0.25,64,176.0
1791,B4,134.0,1.0,64,176.0
1792,E4,134.0,0.667,64,176.0
1793,A2,134.0,1.0,64,176.0
1794,E-3,134.0,1.0,64,176.0
1795,G2,134.0,1.0,64,176.0
1796,C5,134.667,0.333,64,176.0
1797,E4,134.667,0.333,64,176.0
1798,A4,135.0,1.0,64,176.0
1799,F#2,135.0,1.0,64,176.0
1800,B6,135.0,0.75,64,176.0
1801,E-3,135.0,0.75,64,176.0
1802,F2,135.0,1.0,64,176.0
1803,A3,135.0,1.0,64,176.0
1804,C5,135.667,0.333,64,176.0
1805,C5,135.667,0.333,64,176.0
1806,E-3,135.75,0.25,64,176.0
1807,C5,136.0,1.0,64,176.0
1808,F#4,136.0,1.0,64,176.0
1809,A1,136.0,1.0,64,176.0
1810,E-3,136.0,1.0,64,176.0
1811,F2,136.0,1.0,64,176.0
1812,C5,136.667,0.333,64,176.0
1813,A4,137.0,0.667,64,176.0
1814,A3,137.0,1.0,64,176.0
1815,C5,137.0,1.0,64,176.0
1816,G2,137.0,1.0,64,176.0
1817,C#2,137.0,1.0,64,176.0
1818,B6,137.0,0.75,64,176.0
1819,E-3,137.0,0.75,64,176.0
1820,G4,137.667,0.333,64,176.0
1821,E-3,137.75,0.25,64,176.0
1822,A4,138.0,0.667,64,176.0
1823,C#4,138.0,1.0,64,176.0
1824,A4,138.0,0.667,64,176.0
1825,E2,138.0,1.0,64,176.0
1826,E-3,138.0,1.0,64,176.0
1827,A2,138.0,1.0,64,176.0
1828,G4,138.667,0.333,64,176.0
1829,G4,138.667,0.333,64,176.0
1830,E4,139.0,0.667,64,176.0
1831,E4,139.0,1.0,64,176.0
1832,A4,139.0,0.667,64,176.0
1833,F#2,139.0,1.0,64,176.0
1834,B6,139.0,0.75,64,176.0
1835,E-3,139.0,0.75,64,176.0
1836,B2,139.0,1.0,64,176.0
1837,A3,139.0,1.0,64,176.0
1838,E4,139.667,0.333,64,176.0
1839,G4,139.667,0.333,64,176.0
1840,E-3,139.75,0.25,64,176.0
1841,E4,140.0,0.667,64,176.0
1842,F#4,140.0,1.0,64,176.0
1843,E4,140.0,0.667,64,176.0
1844,G2,140.0,1.0,64,176.0
1845,E-3,140.0,1.0,64,176.0
1846,B2,140.0,1.0,64,176.0
1847,A4,140.667,0.333,64,176.0
1848,E4,140.667,0.333,64,176.0
1849,E4,141.0,0.667,64,176.0
1850,G4,141.0,1.0,64,176.0
1851,E4,141.0,0.667,64,176.0
1852,A2,141.0,1.0,64,176.0
1853,F#2,141.0,1.0,64,176.0
1854,B6,141.0,0.75,64,176.0
1855,E-3,141.0,0.75,64,176.0
1856,D4,141.667,0.333,64,176.0
1857,A4,141.667,0.333,64,176.0
1858,E-3,141.75,0.25,64,176.0
1859,C4,142.0,0.667,64,176.0
1860,F#4,142.0,1.0,64,176.0
1861,E4,142.0,0.667,64,176.0
1862,E2,142.0,1.0,64,176.0
1863,E-3,142.0,1.0,64,176.0
1864,G2,142.0,1.0,64,176.0
1865,A3,142.667,0.333,64,176.0
1866,D4,142.667,0.333,64,176.0
1867,E4,143.0,1.0,64,176.0
1868,C4,143.0,0.667,64,176.0
1869,C#2,143.0,1.0,64,176.0
1870,B6,143.0,0.75,64,176.0
1871,E-3,143.0,0.75,64,176.0
1872,F2,143.0,1.0,64,176.0
1873,A3,143.0,1.0,64,176.0
1874,A3,143.667,0.333,64,176.0
1875,E-3,143.75,0.25,64,176.0
1876,C#4,144.0,1.0,64,176.0
1877,B1,144.0,1.0,64,176.0
1878,E-3,144.0,1.0,64,176.0
1879,F2,144.0,1.0,64,176.0
1880,B3,145.0,1.0,64,176.0
1881,C#2,145.0,1.0,64,176.0
1882,B6,145.0,0.75,64,176.0
1883,E-3,145.0,0.75,64,176.0
1884,G2,145.0,1.0,64,176.0
1885,A3,145.0,1.0,64,176.0
1886,E-3,145.75,0.25,64,176.0
1887,C#4,146.0,1.0,64,176.0
1888,D2,146.0,1.0,64,176.0
1889,E-3,146.0,1.0,64,176.0
1890,A2,146.0,1.0,64,176.0
1891,G4,147.0,1.0,64,176.0
1892,D4,147.0,1.0,64,176.0
1893,E-2,147.0,1.0,64,176.0
1894,B6,147.0,0.75,64,176.0
1895,E-3,147.0,0.75,64,176.0
1896,B2,147.0,1.0,64,176.0
1897,A3,147.0,1.0,64,176.0
1898,E-3,147.75,0.25,64,176.0
1899,G4,148.0,3.0,64,176.0
1900,E-4,148.0,1.0,64,176.0
1901,G4,148.0,1.0,64,176.0
1902,E2,148.0,1.0,64,176.0
1903,E-3,148.0,1.0,64,176.0
1904,B2,148.0,1.0,64,176.0
1905,E4,149.0,1.0,64,176.0
1906,G4,149.0,3.0,64,176.0
1907,D2,149.0,1.0,64,176.0
1908,B6,149.0,0.75,64,176.0
1909,E-3,149.0,0.75,64,176.0
1910,A2,149.0,1.0,64,176.0
1911,A3,149.0,1.0,64,176.0
1912,E-3,149.75,0.25,64,176.0
1913,D4,150.0,1.0,64,176.0
1914,C#2,150.0,1.0,64,176.0
1915,E-3,150.0,1.0,64,176.0
1916,G2,150.0,1.0,64,176.0
1917,E4,151.0,0.667,64,176.0
1918,C#4,151.0,1.0,64,176.0
1919,B1,151.0,1.0,64,176.0
1920,B6,151.0,0.75,64,176.0
1921,E-3,151.0,0.75,64,176.0
1922,F2,151.0,1.0,64,176.0
1923,A3,151.0,1.0,64,176.0
1924,F#4,151.667,0.333,64,176.0
1925,E-3,151.75,0.25,64,176.0
1926,G4,152.0,0.667,64,176.0
1927,B3,152.0,1.0,64,176.0
1928,E4,152.0,0.667,64,176.0
1929,A1,152.0,1.0,64,176.0
1930,E-3,152.0,1.0,64,176.0
1931,F2,152.0,1.0,64,176.0
1932,A4,152.667,0.333,64,176.0
1933,F#4,152.667,0.333,64,176.0
1934,G4,153.0,0.667,64,176.0
1935,A3,153.0,1.0,64,176.0
1936,G4,153.0,0.667,64,176.0
1937,C#2,153.0,1.0,64,176.0
1938,B6,153.0,0.75,64,176.0
1939,E-3,153.0,0.75,64,176.0
1940,G2,153.0,1.0,64,176.0
1941,A3,153.0,1.0,64,176.0
1942,F#4,153.667,0.333,64,176.0
1943,A4,153.667,0.333,64,176.0
1944,E-3,153.75,0.25,64,176.0
1945,E4,154.0,0.667,64,176.0
1946,C#4,154.0,1.0,64,176.0
1947,G4,154.0,0.667,64,176.0
1948,E2,154.0,1.0,64,176.0
1949,E-3,154.0,1.0,64,176.0
1950,A2,154.0,1.0,64,176.0
1951,A3,154.667,0.333,64,176.0
1952,F#4,154.667,0.333,64,176.0
1953,C4,155.0,0.667,64,176.0
1954,E4,155.0,1.0,64,176.0
1955,E4,155.0,0.667,64,176.0
1956,F#2,155.0,1.0,64,176.0
1957,B6,155.0,0.75,64,176.0
1958,E-3,155.0,0.75,64,176.0
1959,B2,155.0,1.0,64,176.0
1960,A3,155.0,1.0,64,176.0
1961,D4,155.667,0.333,64,176.0
1962,A3,155.667,0.333,64,176.0
1963,E-3,155.75,0.25,64,176.0
1964,E-4,156.0,0.667,64,176.0
1965,F#4,156.0,1.0,64,176.0
1966,C4,156.0,0.667,64,176.0
1967,G2,156.0,1.0,64,176.0
1968,E-3,156.0,1.0,64,176.0
1969,B2,156.0,1.0,64,176.0
1970,E4,156.667,1.333,64,176.0
1971,D4,156.667,0.333,64,176.0
1972,G4,157.0,1.0,64,176.0
1973,E-4,157.0,0.667,64,176.0
1974,F#2,157.0,1.0,64,176.0
1975,B6,157.0,0.75,64,176.0
1976,E-3,157.0,0.75,64,176.0
1977,A2,157.0,1.0,64,176.0
1978,A3,157.0,1.0,64,176.0
1979,E4,157.667,1.333,64,176.0
1980,E-3,157.75,0.25,64,176.0
1981,D4,158.0,0.667,64,176.0
1982,F#4,158.0,1.0,64,176.0
1983,E2,158.0,1.0,64,176.0
1984,E-3,158.0,1.0,64,176.0
1985,G2,158.0,1.0,64,176.0
1986,C4,158.667,0.333,64,176.0
1987,A3,159.0,0.667,64,176.0
1988,E4,159.0,1.0,64,176.0
1989,D4,159.0,0.667,64,176.0
1990,C#2,159.0,1.0,64,176.0
1991,B6,159.0,0.75,64,176.0
1992,E-3,159.0,0.75,64,176.0
1993,F2,159.0,1.0,64,176.0
1994,A3,159.0,1.0,64,176.0
1995,A3,159.667,0.333,64,176.0
1996,C4,159.667,0.333,64,176.0
1997,E-3,159.75,0.25,64,176.0
1998,E5,160.0,0.667,64,176.0
1999,C#4,160.0,1.0,64,176.0
2000,A3,160.0,0.667,64,176.0
2001,E4,160.0,0.667,64,176.0
2002,A1,160.0,1.0,64,176.0
2003,E5,160.0,0.667,64,176.0
2004,E-3,160.0,1.0,64,176.0
2005,F2,160.0,1.0,64,176.0
2006,E5,160.667,0.333,64,176.0
2007,A3,160.667,0.333,64,176.0
2008,E4,160.667,0.333,64,176.0
2009,E5,160.667,0.333,64,176.0
2010,E5,161.0,0.667,64,176.0
2011,E4,161.0,0.667,64,176.0
2012,G2,161.0,1.0,64,176.0
2013,C#2,161.0,1.0,64,176.0
2014,E5,161.0,0.667,64,176.0
2015,E4,161.0,0.667,64,176.0
2016,E4,161.0,0.667,64,176.0
2017,B6,161.0,0.75,64,176.0
2018,E-3,161.0,0.75,64,176.0
2019,E5,161.667,0.333,64,176.0
2020,E4,161.667,0.333,64,176.0
2021,E5,161.667,0.333,64,176.0
2022,E4,161.667,0.333,64,176.0
2023,E4,161.667,0.333,64,176.0
2024,E-3,161.75,0.25,64,176.0
2025,E5,162.0,1.0,64,176.0
2026,E4,162.0,1.0,64,176.0
2027,E2,162.0,1.0,64,176.0
2028,E5,162.0,1.0,64,176.0
2029,E4,162.0,0.667,64,176.0
2030,E4,162.0,0.667,64,176.0
2031,E-3,162.0,1.0,64,176.0
2032,A2,162.0,1.0,64,176.0
2033,E4,162.667,0.333,64,176.0
2034,E4,162.667,0.333,64,176.0
2035,E5,163.0,1.0,64,176.0
2036,E4,163.0,1.0,64,176.0
2037,B2,163.0,1.0,64,176.0
2038,F#2,163.0,1.0,64,176.0
2039,E5,163.0,1.0,64,176.0
2040,E4,163.0,1.0,64,176.0
2041,E4,163.0,1.0,64,176.0
2042,B6,163.0,0.75,64,176.0
2043,E-3,163.0,0.75,64,176.0
2044,E-3,163.75,0.25,64,176.0
2045,E5,164.0,0.667,64,176.0
2046,E4,164.0,0.667,64,176.0
2047,A1,164.0,1.0,64,176.0
2048,E5,164.0,0.667,64,176.0
2049,E4,164.0,1.0,64,176.0
2050,E4,164.0,1.0,64,176.0
2051,E-3,164.0,1.0,64,176.0
2052,B2,164.0,1.0,64,176.0
2053,E5,164.667,0.333,64,176.0
2054,E4,164.667,0.333,64,176.0
2055,E5,164.667,0.333,64,176.0
2056,D5,165.0,0.667,64,176.0
2057,D4,165.0,0.667,64,176.0
2058,A2,165.0,1.0,64,176.0
2059,C#2,165.0,1.0,64,176.0
2060,D5,165.0,0.667,64,176.0
2061,E4,165.0,0.667,64,176.0
2062,E4,165.0,0.667,64,176.0
2063,B6,165.0,0.75,64,176.0
2064,E-3,165.0,0.75,64,176.0
2065,D5,165.667,0.333,64,176.0
2066,D4,165.667,0.333,64,176.0
2067,D5,165.667,0.333,64,176.0
2068,E4,165.667,0.333,64,176.0
2069,E4,165.667,0.333,64,176.0
2070,E-3,165.75,0.25,64,176.0
2071,E2,166.0,1.0,64,176.0
2072,D4,166.0,0.667,64,176.0
2073,D4,166.0,0.667,64,176.0
2074,E-3,166.0,1.0,64,176.0
2075,G2,166.0,1.0,64,176.0
2076,A4,166.667,0.333,64,176.0
2077,A3,166.667,0.333,64,176.0
2078,A4,166.667,0.333,64,176.0
2079,D4,166.667,0.333,64,176.0
2080,D4,166.667,0.333,64,176.0
2081,B4,167.0,0.667,64,176.0
2082,B3,167.0,0.667,64,176.0
2083,F2,167.0,1.0,64,176.0
2084,F#2,167.0,1.0,64,176.0
2085,B4,167.0,0.667,64,176.0
2086,B6,167.0,0.75,64,176.0
2087,E-3,167.0,0.75,64,176.0
2088,C#5,167.667,0.333,64,176.0
2089,C#4,167.667,0.333,64,176.0
2090,C#5,167.667,0.333,64,176.0
2091,A3,167.667,0.333,64,176.0
2092,A3,167.667,0.333,64,176.0
2093,E-3,167.75,0.25,64,176.0
2094,A1,168.0,1.0,64,176.0
2095,B3,168.0,0.667,64,176.0
2096,B3,168.0,0.667,64,176.0
2097,E-3,168.0,1.0,64,176.0
2098,F2,168.0,1.0,64,176.0
2099,A4,168.667,0.333,64,176.0
2100,A4,168.667,0.333,64,176.0
2101,D3,168.667,0.333,64,176.0
2102,A4,168.667,0.333,64,176.0
2103,A4,168.667,0.333,64,176.0
2104,C#4,168.667,0.333,64,176.0
2105,C#4,168.667,0.333,64,176.0
2106,G2,169.0,1.0,64,176.0
2107,C#2,169.0,1.0,64,176.0
2108,B6,169.0,0.75,64,176.0
2109,E-3,169.0,0.75,64,176.0
2110,A3,169.667,0.333,64,176.0
2111,A3,169.667,0.333,64,176.0
2112,A2,169.667,0.333,64,176.0
2113,A3,169.667,0.333,64,176.0
2114,A3,169.667,0.333,64,176.0
2115,A3,169.667,0.333,64,176.0
2116,A4,169.667,0.333,64,176.0
2117,E-3,169.75,0.25,64,176.0
2118,E2,170.0,1.0,64,176.0
2119,E-3,170.0,1.0,64,176.0
2120,A2,170.0,1.0,64,176.0
2121,A4,170.667,0.333,64,176.0
2122,A4,170.667,0.333,64,176.0
2123,C3,170.667,0.333,64,176.0
2124,A4,170.667,0.333,64,176.0
2125,A4,170.667,0.333,64,176.0
2126,A2,170.667,0.333,64,176.0
2127,A3,170.667,0.333,64,176.0
2128,F#4,171.0,0.667,64,176.0
2129,F#4,171.0,0.667,64,176.0
2130,B2,171.0,0.667,64,176.0
2131,B2,171.0,1.0,64,176.0
2132,F#2,171.0,1.0,64,176.0
2133,F#4,171.0,0.667,64,176.0
2134,F#4,171.0,0.667,64,176.0
2135,B6,171.0,0.75,64,176.0
2136,E-3,171.0,0.75,64,176.0
2137,E4,171.667,0.333,64,176.0
2138,E4,171.667,0.333,64,176.0
2139,A2,171.667,0.333,64,176.0
2140,E4,171.667,0.333,64,176.0
2141,E4,171.667,0.333,64,176.0
2142,A3,171.667,0.333,64,176.0
2143,A4,171.667,0.333,64,176.0
2144,E-3,171.75,0.25,64,176.0
2145,G2,172.0,1.0,64,176.0
2146,F#3,172.0,0.667,64,176.0
2147,F#4,172.0,0.667,64,176.0
2148,E-3,172.0,1.0,64,176.0
2149,B2,172.0,1.0,64,176.0
2150,A4,172.667,0.333,64,176.0
2151,A4,172.667,0.333,64,176.0
2152,D3,172.667,0.333,64,176.0
2153,A4,172.667,0.333,64,176.0
2154,A4,172.667,0.333,64,176.0
2155,E3,172.667,0.333,64,176.0
2156,E4,172.667,0.333,64,176.0
2157,A2,173.0,1.0,64,176.0
2158,F#2,173.0,1.0,64,176.0
2159,B6,173.0,0.75,64,176.0
2160,E-3,173.0,0.75,64,176.0
2161,A3,173.667,0.333,64,176.0
2162,A3,173.667,0.333,64,176.0
2163,A2,173.667,0.333,64,176.0
2164,A3,173.667,0.333,64,176.0
2165,A3,173.667,0.333,64,176.0
2166,A3,173.667,0.333,64,176.0
2167,A4,173.667,0.333,64,176.0
2168,E-3,173.75,0.25,64,176.0
2169,E2,174.0,1.0,64,176.0
2170,E-3,174.0,1.0,64,176.0
2171,G2,174.0,1.0,64,176.0
2172,A4,174.667,0.333,64,176.0
2173,A4,174.667,0.333,64,176.0
2174,C3,174.667,0.333,64,176.0
2175,A4,174.667,0.333,64,176.0
2176,A4,174.667,0.333,64,176.0
2177,A2,174.667,0.333,64,176.0
2178,A3,174.667,0.333,64,176.0
2179,F#4,175.0,0.667,64,176.0
2180,F#4,175.0,0.667,64,176.0
2181,B2,175.0,0.667,64,176.0
2182,F2,175.0,1.0,64,176.0
2183,C#2,175.0,1.0,64,176.0
2184,F#4,175.0,0.667,64,176.0
2185,F#4,175.0,0.667,64,176.0
2186,B6,175.0,0.75,64,176.0
2187,E-3,175.0,0.75,64,176.0
2188,E4,175.667,0.333,64,176.0
2189,E4,175.667,0.333,64,176.0
2190,A2,175.667,0.333,64,176.0
2191,E4,175.667,0.333,64,176.0
2192,E4,175.667,0.333,64,176.0
2193,A3,175.667,0.333,64,176.0
2194,A4,175.667,0.333,64,176.0
2195,E-3,175.75,0.25,64,176.0
2196,E5,176.0,0.667,64,176.0
2197,E4,176.0,0.667,64,176.0
2198,D2,176.0,1.0,64,176.0
2199,E5,176.0,0.667,64,176.0
2200,F#3,176.0,0.667,64,176.0
2201,F#4,176.0,0.667,64,176.0
2202,E-3,176.0,1.0,64,176.0
2203,F2,176.0,1.0,64,176.0
2204,E5,176.667,0.333,64,176.0
2205,E4,176.667,0.333,64,176.0
2206,E5,176.667,0.333,64,176.0
2207,E3,176.667,0.333,64,176.0
2208,E4,176.667,0.333,64,176.0
2209,E5,177.0,0.667,64,176.0
2210,E4,177.0,0.667,64,176.0
2211,G2,177.0,1.0,64,176.0
2212,F#2,177.0,1.0,64,176.0
2213,E5,177.0,0.667,64,176.0
2214,E4,177.0,0.667,64,176.0
2215,E4,177.0,0.667,64,176.0
2216,B6,177.0,0.75,64,176.0
2217,E-3,177.0,0.75,64,176.0
2218,E5,177.667,0.333,64,176.0
2219,E4,177.667,0.333,64,176.0
2220,E5,177.667,0.333,64,176.0
2221,E4,177.667,0.333,64,176.0
2222,E4,177.667,0.333,64,176.0
2223,E-3,177.75,0.25,64,176.0
2224,E5,178.0,1.0,64,176.0
2225,E4,178.0,1.0,64,176.0
2226,A2,178.0,1.0,64,176.0
2227,E5,178.0,1.0,64,176.0
2228,E4,178.0,0.667,64,176.0
2229,E4,178.0,0.667,64,176.0
2230,E-3,178.0,1.0,64,176.0
2231,A2,178.0,1.0,64,176.0
2232,E4,178.667,0.333,64,176.0
2233,E4,178.667,0.333,64,176.0
2234,E5,179.0,1.0,64,176.0
2235,E4,179.0,1.0,64,176.0
2236,B2,179.0,1.0,64,176.0
2237,B2,179.0,1.0,64,176.0
2238,E5,179.0,1.0,64,176.0
2239,E4,179.0,1.0,64,176.0
2240,E4,179.0,1.0,64,176.0
2241,B6,179.0,0.75,64,176.0
2242,E-3,179.0,0.75,64,176.0
2243,E-3,179.75,0.25,64,176.0
2244,E5,180.0,0.667,64,176.0
2245,E4,180.0,0.667,64,176.0
2246,C3,180.0,1.0,64,176.0
2247,E5,180.0,0.667,64,176.0
2248,E4,180.0,1.0,64,176.0
2249,E4,180.0,1.0,64,176.0
2250,E-3,180.0,1.0,64,176.0
2251,B2,180.0,1.0,64,176.0
2252,E5,180.667,0.333,64,176.0
2253,E4,180.667,0.333,64,176.0
2254,E5,180.667,0.333,64,176.0
2255,D5,181.0,0.667,64,176.0
2256,D4,181.0,0.667,64,176.0
2257,A2,181.0,1.0,64,176.0
2258,B2,181.0,1.0,64,176.0
2259,D5,181.0,0.667,64,176.0
2260,E4,181.0,0.667,64,176.0
2261,E4,181.0,0.667,64,176.0
2262,B6,181.0,0.75,64,176.0
2263,E-3,181.0,0.75,64,176.0
2264,D5,181.667,0.333,64,176.0
2265,D4,181.667,0.333,64,176.0
2266,D5,181.667,0.333,64,176.0
2267,E4,181.667,0.333,64,176.0
2268,E4,181.667,0.333,64,176.0
2269,E-3,181.75,0.25,64,176.0
2270,A2,182.0,1.0,64,176.0
2271,D4,182.0,0.667,64,176.0
2272,D4,182.0,0.667,64,176.0
2273,E-3,182.0,1.0,64,176.0
2274,G2,182.0,1.0,64,176.0
2275,A4,182.667,0.333,64,176.0
2276,A3,182.667,0.333,64,176.0
2277,A4,182.667,0.333,64,176.0
2278,D4,182.667,0.333,64,176.0
2279,D4,182.667,0.333,64,176.0
2280,B4,183.0,0.667,64,176.0
2281,B3,183.0,0.667,64,176.0
2282,F2,183.0,1.0,64,176.0
2283,F#2,183.0,1.0,64,176.0
2284,B4,183.0,0.667,64,176.0
2285,B6,183.0,0.75,64,176.0
2286,E-3,183.0,0.75,64,176.0
2287,C#5,183.667,0.333,64,176.0
2288,C#4,183.667,0.333,64,176.0
2289,C#5,183.667,0.333,64,176.0
2290,A3,183.667,0.333,64,176.0
2291,A3,183.667,0.333,64,176.0
2292,E-3,183.75,0.25,64,176.0
2293,A1,184.0,1.0,64,176.0
2294,B3,184.0,0.667,64,176.0
2295,B3,184.0,0.667,64,176.0
2296,E-3,184.0,1.0,64,176.0
2297,F2,184.0,1.0,64,176.0
2298,A4,184.667,0.333,64,176.0
2299,A4,184.667,0.333,64,176.0
2300,D3,184.667,0.333,64,176.0
2301,A4,184.667,0.333,64,176.0
2302,A4,184.667,0.333,64,176.0
2303,C#4,184.667,0.333,64,176.0
2304,C#4,184.667,0.333,64,176.0
2305,G2,185.0,1.0,64,176.0
2306,C#2,185.0,1.0,64,176.0
2307,B6,185.0,0.75,64,176.0
2308,E-3,185.0,0.75,64,176.0
2309,A3,185.667,0.333,64,176.0
2310,A3,185.667,0.333,64,176.0
2311,A2,185.667,0.333,64,176.0
2312,A3,185.667,0.333,64,176.0
2313,A3,185.667,0.333,64,176.0
2314,A3,185.667,0.333,64,176.0
2315,A4,185.667,0.333,64,176.0
2316,E-3,185.75,0.25,64,176.0
2317,E2,186.0,1.0,64,176.0
2318,E-3,186.0,1.0,64,176.0
2319,A2,186.0,1.0,64,176.0
2320,A4,186.667,0.333,64,176.0
2321,A4,186.667,0.333,64,176.0
2322,C3,186.667,0.333,64,176.0
2323,A4,186.667,0.333,64,176.0
2324,A4,186.667,0.333,64,176.0
2325,A2,186.667,0.333,64,176.0
2326,A3,186.667,0.333,64,176.0
2327,F#4,187.0,0.667,64,176.0
2328,F#4,187.0,0.667,64,176.0
2329,B2,187.0,0.667,64,176.0
2330,B2,187.0,1.0,64,176.0
2331,F#2,187.0,1.0,64,176.0
2332,F#4,187.0,0.667,64,176.0
2333,F#4,187.0,0.667,64,176.0
2334,B6,187.0,0.75,64,176.0
2335,E-3,187.0,0.75,64,176.0
2336,E4,187.667,0.333,64,176.0
2337,E4,187.667,0.333,64,176.0
2338,A2,187.667,0.333,64,176.0
2339,E4,187.667,0.333,64,176.0
2340,E4,187.667,0.333,64,176.0
2341,A3,187.667,0.333,64,176.0
2342,A4,187.667,0.333,64,176.0
2343,E-3,187.75,0.25,64,176.0
2344,G2,188.0,1.0,64,176.0
2345,F#3,188.0,0.667,64,176.0
2346,F#4,188.0,0.667,64,176.0
2347,E-3,188.0,1.0,64,176.0
2348,B2,188.0,1.0,64,176.0
2349,A4,188.667,0.333,64,176.0
2350,A4,188.667,0.333,64,176.0
2351,D3,188.667,0.333,64,176.0
2352,A4,188.667,0.333,64,176.0
2353,A4,188.667,0.333,64,176.0
2354,E3,188.667,0.333,64,176.0
2355,E4,188.667,0.333,64,176.0
2356,A2,189.0,1.0,64,176.0
2357,F#2,189.0,1.0,64,176.0
2358,B6,189.0,0.75,64,176.0
2359,E-3,189.0,0.75,64,176.0
2360,A3,189.667,0.333,64,176.0
2361,A3,189.667,0.333,64,176.0
2362,A2,189.667,0.333,64,176.0
2363,A3,189.667,0.333,64,176.0
2364,A3,189.667,0.333,64,176.0
2365,A3,189.667,0.333,64,176.0
2366,A4,189.667,0.333,64,176.0
2367,E-3,189.75,0.25,64,176.0
2368,E2,190.0,1.0,64,176.0
2369,E-3,190.0,1.0,64,176.0
2370,G2,190.0,1.0,64,176.0
2371,A4,190.667,0.333,64,176.0
2372,A4,190.667,0.333,64,176.0
2373,C3,190.667,0.333,64,176.0
2374,A4,190.667,0.333,64,176.0
2375,A4,190.667,0.333,64,176.0
2376,A2,190.667,0.333,64,176.0
2377,A3,190.667,0.333,64,176.0
2378,F#4,191.0,0.667,64,176.0
2379,F#4,191.0,0.667,64,176.0
2380,B2,191.0,0.667,64,176.0
2381,F2,191.0,1.0,64,176.0
2382,C#2,191.0,1.0,64,176.0
2383,F#4,191.0,0.667,64,176.0
2384,F#4,191.0,0.667,64,176.0
2385,B6,191.0,0.75,64,176.0
2386,E-3,191.0,0.75,64,176.0
2387,E4,191.667,0.333,64,176.0
2388,E4,191.667,0.333,64,176.0
2389,A2,191.667,0.333,64,176.0
2390,E4,191.667,0.333,64,176.0
2391,E4,191.667,0.333,64,176.0
2392,A3,191.667,0.333,64,176.0
2393,A4,191.667,0.333,64,176.0
2394,E-3,191.75,0.25,64,176.0
2395,E5,192.0,0.667,64,176.0
2396,E4,192.0,0.667,64,176.0
2397,B1,192.0,1.0,64,176.0
2398,E5,192.0,0.667,64,176.0
2399,F#3,192.0,0.667,64,176.0
2400,F#4,192.0,0.667,64,176.0
2401,E-3,192.0,1.0,64,176.0
2402,F2,192.0,1.0,64,176.0
2403,E5,192.667,0.333,64,176.0
2404,E4,192.667,0.333,64,176.0
2405,E5,192.667,0.333,64,176.0
2406,E3,192.667,0.333,64,176.0
2407,E4,192.667,0.333,64,176.0
2408,E5,193.0,0.667,64,176.0
2409,E4,193.0,0.667,64,176.0
2410,G2,193.0,1.0,64,176.0
2411,C#2,193.0,1.0,64,176.0
2412,E5,193.0,0.667,64,176.0
2413,E4,193.0,0.667,64,176.0
2414,E4,193.0,0.667,64,176.0
2415,B6,193.0,0.75,64,176.0
2416,E-3,193.0,0.75,64,176.0
2417,E5,193.667,0.333,64,176.0
2418,E4,193.667,0.333,64,176.0
2419,E5,193.667,0.333,64,176.0
2420,E4,193.667,0.333,64,176.0
2421,E4,193.667,0.333,64,176.0
2422,E-3,193.75,0.25,64,176.0
2423,D5,194.0,1.0,64,176.0
2424,D4,194.0,1.0,64,176.0
2425,D2,194.0,1.0,64,176.0
2426,D5,194.0,1.0,64,176.0
2427,E4,194.0,0.667,64,176.0
2428,E4,194.0,0.667,64,176.0
2429,E-3,194.0,1.0,64,176.0
2430,A2,194.0,1.0,64,176.0
2431,E4,194.667,0.333,64,176.0
2432,E4,194.667,0.333,64,176.0
2433,D5,195.0,1.0,64,176.0
2434,D4,195.0,1.0,64,176.0
2435,B2,195.0,1.0,64,176.0
2436,E-2,195.0,1.0,64,176.0
2437,D5,195.0,1.0,64,176.0
2438,D4,195.0,1.0,64,176.0
2439,D4,195.0,1.0,64,176.0
2440,B6,195.0,0.75,64,176.0
2441,E-3,195.0,0.75,64,176.0
2442,E-3,195.75,0.25,64,176.0
2443,E5,196.0,0.667,64,176.0
2444,E4,196.0,0.667,64,176.0
2445,E2,196.0,1.0,64,176.0
2446,E5,196.0,0.667,64,176.0
2447,D4,196.0,1.0,64,176.0
2448,D4,196.0,1.0,64,176.0
2449,E-3,196.0,1.0,64,176.0
2450,B2,196.0,1.0,64,176.0
2451,E5,196.667,0.333,64,176.0
2452,E4,196.667,0.333,64,176.0
2453,E5,196.667,0.333,64,176.0
2454,D5,197.0,1.0,64,176.0
2455,D4,197.0,1.0,64,176.0
2456,A2,197.0,1.0,64,176.0
2457,D2,197.0,1.0,64,176.0
2458,D5,197.0,1.0,64,176.0
2459,E4,197.0,0.667,64,176.0
2460,E4,197.0,0.667,64,176.0
2461,B6,197.0,0.75,64,176.0
2462,E-3,197.0,0.75,64,176.0
2463,E4,197.667,0.333,64,176.0
2464,E4,197.667,0.333,64,176.0
2465,E-3,197.75,0.25,64,176.0
2466,C5,198.0,1.0,64,176.0
2467,C4,198.0,1.0,64,176.0
2468,C#2,198.0,1.0,64,176.0
2469,C5,198.0,1.0,64,176.0
2470,D4,198.0,1.0,64,176.0
2471,D4,198.0,1.0,64,176.0
2472,E-3,198.0,1.0,64,176.0
2473,G2,198.0,1.0,64,176.0
2474,A4,199.0,0.667,64,176.0
2475,A3,199.0,0.667,64,176.0
2476,F2,199.0,1.0,64,176.0
2477,B1,199.0,0.667,64,176.0
2478,A4,199.0,0.667,64,176.0
2479,C4,199.0,1.0,64,176.0
2480,C4,199.0,1.0,64,176.0
2481,B6,199.0,0.75,64,176.0
2482,E-3,199.0,0.75,64,176.0
2483,A4,199.667,0.333,64,176.0
2484,C#4,199.667,0.333,64,176.0
2485,A3,199.667,0.333,64,176.0
2486,E4,199.667,0.333,64,176.0
2487,A1,199.667,0.333,64,176.0
2488,A4,199.667,0.333,64,176.0
2489,E4,199.667,0.333,64,176.0
2490,C#4,199.667,0.333,64,176.0
2491,E-3,199.75,0.25,64,176.0
2492,A4,200.0,1.0,64,176.0
2493,C#4,200.0,1.0,64,176.0
2494,A3,200.0,1.0,64,176.0
2495,E4,200.0,1.0,64,176.0
2496,A1,200.0,1.0,64,176.0
2497,A4,200.0,1.0,64,176.0
2498,E4,200.0,1.0,64,176.0
2499,C#4,200.0,1.0,64,176.0
2500,A3,200.0,0.667,64,176.0
2501,A3,200.0,0.667,64,176.0
2502,E-3,200.0,1.0,64,176.0
2503,F2,200.0,1.0,64,176.0
2504,D3,200.667,0.333,64,176.0
2505,A3,200.667,0.333,64,176.0
2506,A3,200.667,0.333,64,176.0
2507,A3,200.667,0.333,64,176.0
2508,A3,200.667,0.333,64,176.0
2509,G2,201.0,1.0,64,176.0
2510,A3,201.0,1.0,64,176.0
2511,A3,201.0,1.0,64,176.0
2512,B6,201.0,0.75,64,176.0
2513,E-3,201.0,0.75,64,176.0
2514,E-4,201.667,1.333,64,176.0
2515,G4,201.667,1.333,64,176.0
2516,A2,201.667,0.333,64,176.0
2517,C2,201.667,1.333,64,176.0
2518,G4,201.667,1.333,64,176.0
2519,E-4,201.667,1.333,64,176.0
2520,E-3,201.75,0.25,64,176.0
2521,A3,202.0,1.0,64,176.0
2522,A3,202.0,1.0,64,176.0
2523,E-3,202.0,1.0,64,176.0
2524,A2,202.0,1.0,64,176.0
2525,C3,202.667,0.333,64,176.0
2526,C4,202.667,1.333,64,176.0
2527,C4,202.667,1.333,64,176.0
2528,B2,203.0,0.667,64,176.0
2529,B2,203.0,1.0,64,176.0
2530,B6,203.0,0.75,64,176.0
2531,E-3,203.0,0.75,64,176.0
2532,D4,203.667,0.333,64,176.0
2533,F#4,203.667,0.333,64,176.0
2534,A2,203.667,0.333,64,176.0
2535,B1,203.667,0.333,64,176.0
2536,F#4,203.667,0.333,64,176.0
2537,D4,203.667,0.333,64,176.0
2538,E-3,203.75,0.25,64,176.0
2539,D4,204.0,1.0,64,176.0
2540,F#4,204.0,1.0,64,176.0
2541,B1,204.0,1.0,64,176.0
2542,F#4,204.0,1.0,64,176.0
2543,D4,204.0,1.0,64,176.0
2544,E-3,204.0,1.0,64,176.0
2545,B2,204.0,1.0,64,176.0
2546,D3,204.667,0.333,64,176.0
2547,B3,204.667,0.333,64,176.0
2548,B3,204.667,0.333,64,176.0
2549,A2,205.0,1.0,64,176.0
2550,B3,205.0,1.0,64,176.0
2551,B3,205.0,1.0,64,176.0
2552,B6,205.0,0.75,64,176.0
2553,E-3,205.0,0.75,64,176.0
2554,C#4,205.667,1.333,64,176.0
2555,F4,205.667,1.333,64,176.0
2556,A2,205.667,0.333,64,176.0
2557,B-1,205.667,1.333,64,176.0
2558,F4,205.667,1.333,64,176.0
2559,C#4,205.667,1.333,64,176.0
2560,E-3,205.75,0.25,64,176.0
2561,E-3,206.0,1.0,64,176.0
2562,G2,206.0,1.0,64,176.0
2563,A5,206.667,0.333,64,176.0
2564,C3,206.667,0.333,64,176.0
2565,B-3,206.667,1.333,64,176.0
2566,B-3,206.667,1.333,64,176.0
2567,A5,207.0,0.667,64,176.0
2568,C5,207.0,1.667,64,176.0
2569,B6,207.0,0.75,64,176.0
2570,E-3,207.0,0.75,64,176.0
2571,B2,207.0,0.667,64,176.0
2572,F2,207.0,0.667,64,176.0
2573,A5,207.667,0.333,64,176.0
2574,A2,207.667,0.333,64,176.0
2575,E-3,207.75,0.25,64,176.0
2576,C#2,208.0,0.75,64,176.0
2577,F2,208.0,1.0,64,176.0
2578,A1,208.0,1.0,64,176.0
2579,A5,208.667,0.333,64,176.0
2580,E4,208.667,0.333,64,176.0
2581,C5,208.667,0.333,64,176.0
2582,C#4,208.667,0.333,64,176.0
2583,A4,208.667,0.333,64,176.0
2584,C#5,208.667,0.333,64,176.0
2585,E4,208.667,0.333,64,176.0
2586,E4,208.667,0.333,64,176.0
2587,A4,208.667,0.333,64,176.0
2588,C#2,208.75,0.25,64,176.0
2589,A3,209.0,1.0,64,176.0
2590,C5,209.0,0.667,64,176.0
2591,C#2,209.0,0.75,90,176.0
2592,C#2,209.0,1.0,64,176.0
2593,G2,209.0,1.0,64,176.0
2594,B-6,209.0,1.0,64,176.0
2595,E3,209.667,0.333,64,176.0
2596,C5,209.667,0.333,64,176.0
2597,C#2,209.75,0.25,64,176.0
2598,A5,210.0,1.0,64,176.0
2599,E4,210.0,1.0,64,176.0
2600,C#4,210.0,1.0,64,176.0
2601,C#4,210.0,1.0,64,176.0
2602,A4,210.0,1.0,64,176.0
2603,C#2,210.0,0.75,64,176.0
2604,A2,210.0,1.0,64,176.0
2605,E2,210.0,1.0,64,176.0
2606,C#5,210.0,1.0,64,176.0
2607,E4,210.0,1.0,64,176.0
2608,E4,210.0,1.0,64,176.0
2609,A4,210.0,1.0,64,176.0
2610,C#5,210.667,0.333,64,176.0
2611,E4,210.667,0.333,64,176.0
2612,C#2,210.75,0.25,64,176.0
2613,A5,211.0,1.0,64,176.0
2614,E4,211.0,1.0,64,176.0
2615,C#4,211.0,1.0,64,176.0
2616,A4,211.0,1.0,64,176.0
2617,C#2,211.0,0.75,90,176.0
2618,F#2,211.0,1.0,64,176.0
2619,C#5,211.0,1.0,64,176.0
2620,E4,211.0,1.0,64,176.0
2621,E3,211.0,1.0,64,176.0
2622,E4,211.0,1.0,64,176.0
2623,B2,211.0,1.0,64,176.0
2624,B-6,211.0,1.0,64,176.0
2625,E4,211.0,1.0,64,176.0
2626,A4,211.0,1.0,64,176.0
2627,C#2,211.75,0.25,64,176.0
2628,C#2,212.0,0.75,64,176.0
2629,B2,212.0,1.0,64,176.0
2630,G2,212.0,1.0,64,176.0
2631,E3,212.0,1.0,64,176.0
2632,F#4,212.0,1.0,64,176.0
2633,C#5,212.0,1.0,64,176.0
2634,E4,212.0,1.0,64,176.0
2635,A5,212.667,0.333,64,176.0
2636,E4,212.667,0.333,64,176.0
2637,C#4,212.667,0.333,64,176.0
2638,A4,212.667,0.333,64,176.0
2639,C#5,212.667,0.333,64,176.0
2640,E4,212.667,0.333,64,176.0
2641,E4,212.667,0.333,64,176.0
2642,A4,212.667,0.333,64,176.0
2643,C#2,212.75,0.25,64,176.0
2644,G4,213.0,1.0,64,176.0
2645,C#2,213.0,0.75,90,176.0
2646,F#2,213.0,1.0,64,176.0
2647,C#5,213.0,1.0,64,176.0
2648,E4,213.0,1.0,64,176.0
2649,A2,213.0,1.0,64,176.0
2650,B-6,213.0,1.0,64,176.0
2651,A5,213.667,0.333,64,176.0
2652,E4,213.667,0.333,64,176.0
2653,E3,213.667,0.333,64,176.0
2654,C#4,213.667,0.333,64,176.0
2655,A4,213.667,0.333,64,176.0
2656,C#5,213.667,0.333,64,176.0
2657,E4,213.667,0.333,64,176.0
2658,E4,213.667,0.333,64,176.0
2659,A4,213.667,0.333,64,176.0
2660,C#2,213.75,0.25,64,176.0
2661,A5,214.0,0.667,64,176.0
2662,E4,214.0,0.667,64,176.0
2663,F#4,214.0,1.0,64,176.0
2664,C#4,214.0,0.667,64,176.0
2665,A4,214.0,0.667,64,176.0
2666,C#2,214.0,0.667,64,176.0
2667,G2,214.0,1.0,64,176.0
2668,E2,214.0,1.0,64,176.0
2669,C#5,214.0,0.667,64,176.0
2670,E4,214.0,0.667,64,176.0
2671,E4,214.0,0.667,64,176.0
2672,A4,214.0,0.667,64,176.0
2673,A5,214.667,0.333,64,176.0
2674,E4,214.667,0.333,64,176.0
2675,E3,214.667,0.333,64,176.0
2676,C#4,214.667,0.333,64,176.0
2677,A4,214.667,0.333,64,176.0
2678,C#5,214.667,0.333,64,176.0
2679,E4,214.667,0.333,64,176.0
2680,C#5,214.667,0.333,64,176.0
2681,E4,214.667,0.333,64,176.0
2682,B6,214.667,0.333,77,176.0
2683,D3,214.667,0.333,77,176.0
2684,E4,214.667,0.333,64,176.0
2685,A4,214.667,0.333,64,176.0
2686,A5,215.0,0.667,64,176.0
2687,E4,215.0,0.667,64,176.0
2688,E3,215.0,0.667,64,176.0
2689,E4,215.0,1.0,64,176.0
2690,C#4,215.0,0.667,64,176.0
2691,A4,215.0,0.667,64,176.0
2692,C#2,215.0,1.0,64,176.0
2693,C#5,215.0,0.667,64,176.0
2694,E4,215.0,0.667,64,176.0
2695,B6,215.0,0.667,77,176.0
2696,C3,215.0,0.667,77,176.0
2697,F2,215.0,1.0,64,176.0
2698,B-6,215.0,1.0,64,176.0
2699,E4,215.0,0.667,64,176.0
2700,A4,215.0,0.667,64,176.0
2701,A5,215.667,0.333,64,176.0
2702,E4,215.667,0.333,64,176.0
2703,E3,215.667,0.333,64,176.0
2704,C#4,215.667,0.333,64,176.0
2705,A4,215.667,0.333,64,176.0
2706,C#5,215.667,0.333,64,176.0
2707,E4,215.667,0.333,64,176.0
2708,C#5,215.667,0.333,64,176.0
2709,E4,215.667,0.333,64,176.0
2710,B6,215.667,0.333,77,176.0
2711,B2,215.667,0.333,77,176.0
2712,E4,215.667,0.333,64,176.0
2713,A4,215.667,0.333,64,176.0
2714,E3,216.0,0.667,64,176.0
2715,C#4,216.0,1.0,64,176.0
2716,C#2,216.0,0.75,64,176.0
2717,F2,216.0,1.0,64,176.0
2718,A1,216.0,1.0,64,176.0
2719,C#5,216.0,0.667,64,176.0
2720,E4,216.0,0.667,64,176.0
2721,A5,216.667,0.333,64,176.0
2722,E4,216.667,0.333,64,176.0
2723,E3,216.667,0.333,64,176.0
2724,C#4,216.667,0.333,64,176.0
2725,A4,216.667,0.333,64,176.0
2726,C#5,216.667,0.333,64,176.0
2727,E4,216.667,0.333,64,176.0
2728,C#5,216.667,0.333,64,176.0
2729,E4,216.667,0.333,64,176.0
2730,E4,216.667,0.333,64,176.0
2731,A4,216.667,0.333,64,176.0
2732,C#2,216.75,0.25,64,176.0
2733,A3,217.0,1.0,64,176.0
2734,C#2,217.0,0.75,90,176.0
2735,C#2,217.0,1.0,64,176.0
2736,C#5,217.0,0.667,64,176.0
2737,E4,217.0,0.667,64,176.0
2738,G2,217.0,1.0,64,176.0
2739,B-6,217.0,1.0,64,176.0
2740,E3,217.667,0.333,64,176.0
2741,C#5,217.667,0.333,64,176.0
2742,E4,217.667,0.333,64,176.0
2743,C#2,217.75,0.25,64,176.0
2744,A5,218.0,1.0,64,176.0
2745,E4,218.0,1.0,64,176.0
2746,C#4,218.0,1.0,64,176.0
2747,C#4,218.0,1.0,64,176.0
2748,A4,218.0,1.0,64,176.0
2749,C#2,218.0,0.75,64,176.0
2750,A2,218.0,1.0,64,176.0
2751,E2,218.0,1.0,64,176.0
2752,C#5,218.0,1.0,64,176.0
2753,E4,218.0,1.0,64,176.0
2754,E4,218.0,1.0,64,176.0
2755,A4,218.0,1.0,64,176.0
2756,C#5,218.667,0.333,64,176.0
2757,E4,218.667,0.333,64,176.0
2758,C#2,218.75,0.25,64,176.0
2759,A5,219.0,1.0,64,176.0
2760,E4,219.0,1.0,64,176.0
2761,C#4,219.0,1.0,64,176.0
2762,A4,219.0,1.0,64,176.0
2763,C#2,219.0,0.75,90,176.0
2764,F#2,219.0,1.0,64,176.0
2765,C#5,219.0,1.0,64,176.0
2766,E4,219.0,1.0,64,176.0
2767,E3,219.0,1.0,64,176.0
2768,E4,219.0,1.0,64,176.0
2769,B2,219.0,1.0,64,176.0
2770,B-6,219.0,1.0,64,176.0
2771,E4,219.0,1.0,64,176.0
2772,A4,219.0,1.0,64,176.0
2773,C#2,219.75,0.25,64,176.0
2774,C#2,220.0,0.75,64,176.0
2775,B2,220.0,1.0,64,176.0
2776,G2,220.0,1.0,64,176.0
2777,E3,220.0,1.0,64,176.0
2778,F#4,220.0,1.0,64,176.0
2779,C#5,220.0,1.0,64,176.0
2780,E4,220.0,1.0,64,176.0
2781,A5,220.667,0.333,64,176.0
2782,E4,220.667,0.333,64,176.0
2783,C#4,220.667,0.333,64,176.0
2784,A4,220.667,0.333,64,176.0
2785,C#5,220.667,0.333,64,176.0
2786,E4,220.667,0.333,64,176.0
2787,E4,220.667,0.333,64,176.0
2788,A4,220.667,0.333,64,176.0
2789,C#2,220.75,0.25,64,176.0
2790,G4,221.0,1.0,64,176.0
2791,C#2,221.0,0.75,90,176.0
2792,F#2,221.0,1.0,64,176.0
2793,C#5,221.0,1.0,64,176.0
2794,E4,221.0,1.0,64,176.0
2795,A2,221.0,1.0,64,176.0
2796,B-6,221.0,1.0,64,176.0
2797,A5,221.667,0.333,64,176.0
2798,E4,221.667,0.333,64,176.0
2799,E3,221.667,0.333,64,176.0
2800,C#4,221.667,0.333,64,176.0
2801,A4,221.667,0.333,64,176.0
2802,C#5,221.667,0.333,64,176.0
2803,E4,221.667,0.333,64,176.0
2804,E4,221.667,0.333,64,176.0
2805,A4,221.667,0.333,64,176.0
2806,C#2,221.75,0.25,64,176.0
2807,A5,222.0,0.667,64,176.0
2808,E4,222.0,0.667,64,176.0
2809,F#4,222.0,1.0,64,176.0
2810,C#4,222.0,0.667,64,176.0
2811,A4,222.0,0.667,64,176.0
2812,C#2,222.0,0.667,64,176.0
2813,G2,222.0,1.0,64,176.0
2814,E2,222.0,1.0,64,176.0
2815,C#5,222.0,0.667,64,176.0
2816,E4,222.0,0.667,64,176.0
2817,E4,222.0,0.667,64,176.0
2818,A4,222.0,0.667,64,176.0
2819,A5,222.667,0.333,64,176.0
2820,E4,222.667,0.333,64,176.0
2821,E3,222.667,0.333,64,176.0
2822,C#4,222.667,0.333,64,176.0
2823,A4,222.667,0.333,64,176.0
2824,C#5,222.667,0.333,64,176.0
2825,E4,222.667,0.333,64,176.0
2826,C#5,222.667,0.333,64,176.0
2827,E4,222.667,0.333,64,176.0
2828,B6,222.667,0.333,77,176.0
2829,D3,222.667,0.333,77,176.0
2830,E4,222.667,0.333,64,176.0
2831,A4,222.667,0.333,64,176.0
2832,A5,223.0,0.667,64,176.0
2833,E4,223.0,0.667,64,176.0
2834,E3,223.0,0.667,64,176.0
2835,E4,223.0,1.0,64,176.0
2836,C#4,223.0,0.667,64,176.0
2837,A4,223.0,0.667,64,176.0
2838,C#2,223.0,1.0,64,176.0
2839,C#5,223.0,0.667,64,176.0
2840,E4,223.0,0.667,64,176.0
2841,B6,223.0,0.667,77,176.0
2842,C3,223.0,0.667,77,176.0
2843,F2,223.0,1.0,64,176.0
2844,B-6,223.0,1.0,64,176.0
2845,E4,223.0,0.667,64,176.0
2846,A4,223.0,0.667,64,176.0
2847,A5,223.667,0.333,64,176.0
2848,E4,223.667,0.333,64,176.0
2849,E3,223.667,0.333,64,176.0
2850,C#4,223.667,0.333,64,176.0
2851,A4,223.667,0.333,64,176.0
2852,C#5,223.667,0.333,64,176.0
2853,E4,223.667,0.333,64,176.0
2854,C#5,223.667,0.333,64,176.0
2855,E4,223.667,0.333,64,176.0
2856,B6,223.667,0.333,77,176.0
2857,B2,223.667,0.333,77,176.0
2858,E4,223.667,0.333,64,176.0
2859,A4,223.667,0.333,64,176.0
2860,E3,224.0,0.667,64,176.0
2861,C#4,224.0,1.0,64,176.0
2862,C#2,224.0,0.75,64,176.0
2863,F2,224.0,1.0,64,176.0
2864,D2,224.0,1.0,64,176.0
2865,C#5,224.0,0.667,64,176.0
2866,E4,224.0,0.667,64,176.0
2867,A5,224.667,0.333,64,176.0
2868,F#4,224.667,0.333,64,176.0
2869,E3,224.667,0.333,64,176.0
2870,C4,224.667,0.333,64,176.0
2871,A4,224.667,0.333,64,176.0
2872,C5,224.667,0.333,64,176.0
2873,F#4,224.667,0.333,64,176.0
2874,C#5,224.667,0.333,64,176.0
2875,E4,224.667,0.333,64,176.0
2876,F#4,224.667,0.333,64,176.0
2877,A4,224.667,0.333,64,176.0
2878,C#2,224.75,0.25,64,176.0
2879,D4,225.0,1.0,64,176.0
2880,C#2,225.0,0.75,90,176.0
2881,F#2,225.0,1.0,64,176.0
2882,C#5,225.0,0.667,64,176.0
2883,E4,225.0,0.667,64,176.0
2884,G2,225.0,1.0,64,176.0
2885,B-6,225.0,1.0,64,176.0
2886,F#3,225.667,0.333,64,176.0
2887,C#5,225.667,0.333,64,176.0
2888,E4,225.667,0.333,64,176.0
2889,C#2,225.75,0.25,64,176.0
2890,A5,226.0,1.0,64,176.0
2891,F#4,226.0,1.0,64,176.0
2892,F#4,226.0,1.0,64,176.0
2893,C4,226.0,1.0,64,176.0
2894,A4,226.0,1.0,64,176.0
2895,C#2,226.0,0.75,64,176.0
2896,A2,226.0,1.0,64,176.0
2897,A2,226.0,1.0,64,176.0
2898,C5,226.0,1.0,64,176.0
2899,F#4,226.0,1.0,64,176.0
2900,F#4,226.0,1.0,64,176.0
2901,A4,226.0,1.0,64,176.0
2902,C5,226.667,0.333,64,176.0
2903,F#4,226.667,0.333,64,176.0
2904,C#2,226.75,0.25,64,176.0
2905,A5,227.0,1.0,64,176.0
2906,F#4,227.0,1.0,64,176.0
2907,C4,227.0,1.0,64,176.0
2908,A4,227.0,1.0,64,176.0
2909,C#2,227.0,0.75,90,176.0
2910,B2,227.0,1.0,64,176.0
2911,C5,227.0,1.0,64,176.0
2912,F#4,227.0,1.0,64,176.0
2913,F#3,227.0,1.0,64,176.0
2914,A4,227.0,1.0,64,176.0
2915,B2,227.0,1.0,64,176.0
2916,B-6,227.0,1.0,64,176.0
2917,F#4,227.0,1.0,64,176.0
2918,A4,227.0,1.0,64,176.0
2919,C#2,227.75,0.25,64,176.0
2920,C#2,228.0,0.75,64,176.0
2921,B2,228.0,1.0,64,176.0
2922,C3,228.0,1.0,64,176.0
2923,F#3,228.0,1.0,64,176.0
2924,B4,228.0,1.0,64,176.0
2925,C5,228.0,1.0,64,176.0
2926,F#4,228.0,1.0,64,176.0
2927,A5,228.667,0.333,64,176.0
2928,F#4,228.667,0.333,64,176.0
2929,C4,228.667,0.333,64,176.0
2930,A4,228.667,0.333,64,176.0
2931,C5,228.667,0.333,64,176.0
2932,F#4,228.667,0.333,64,176.0
2933,F#4,228.667,0.333,64,176.0
2934,A4,228.667,0.333,64,176.0
2935,C#2,228.75,0.25,64,176.0
2936,C5,229.0,1.0,64,176.0
2937,C#2,229.0,0.75,90,176.0
2938,B2,229.0,1.0,64,176.0
2939,C5,229.0,1.0,64,176.0
2940,F#4,229.0,1.0,64,176.0
2941,A2,229.0,1.0,64,176.0
2942,B-6,229.0,1.0,64,176.0
2943,A5,229.667,0.333,64,176.0
2944,F#4,229.667,0.333,64,176.0
2945,F#3,229.667,0.333,64,176.0
2946,C4,229.667,0.333,64,176.0
2947,A4,229.667,0.333,64,176.0
2948,C5,229.667,0.333,64,176.0
2949,F#4,229.667,0.333,64,176.0
2950,F#4,229.667,0.333,64,176.0
2951,A4,229.667,0.333,64,176.0
2952,C#2,229.75,0.25,64,176.0
2953,A5,230.0,0.667,64,176.0
2954,F#4,230.0,0.667,64,176.0
2955,B4,230.0,1.0,64,176.0
2956,C4,230.0,0.667,64,176.0
2957,A4,230.0,0.667,64,176.0
2958,C#2,230.0,0.667,64,176.0
2959,G2,230.0,1.0,64,176.0
2960,A2,230.0,1.0,64,176.0
2961,C5,230.0,0.667,64,176.0
2962,F#4,230.0,0.667,64,176.0
2963,F#4,230.0,0.667,64,176.0
2964,A4,230.0,0.667,64,176.0
2965,A5,230.667,0.333,64,176.0
2966,F#4,230.667,0.333,64,176.0
2967,F#3,230.667,0.333,64,176.0
2968,C4,230.667,0.333,64,176.0
2969,A4,230.667,0.333,64,176.0
2970,C5,230.667,0.333,64,176.0
2971,F#4,230.667,0.333,64,176.0
2972,C5,230.667,0.333,64,176.0
2973,F#4,230.667,0.333,64,176.0
2974,B6,230.667,0.333,77,176.0
2975,D3,230.667,0.333,77,176.0
2976,F#4,230.667,0.333,64,176.0
2977,A4,230.667,0.333,64,176.0
2978,A5,231.0,0.667,64,176.0
2979,F#4,231.0,0.667,64,176.0
2980,F#3,231.0,0.667,64,176.0
2981,A4,231.0,1.0,64,176.0
2982,C4,231.0,0.667,64,176.0
2983,A4,231.0,0.667,64,176.0
2984,F#2,231.0,1.0,64,176.0
2985,C5,231.0,0.667,64,176.0
2986,F#4,231.0,0.667,64,176.0
2987,B6,231.0,0.667,77,176.0
2988,C3,231.0,0.667,77,176.0
2989,F2,231.0,1.0,64,176.0
2990,B-6,231.0,1.0,64,176.0
2991,F#4,231.0,0.667,64,176.0
2992,A4,231.0,0.667,64,176.0
2993,A5,231.667,0.333,64,176.0
2994,F#4,231.667,0.333,64,176.0
2995,F#3,231.667,0.333,64,176.0
2996,C4,231.667,0.333,64,176.0
2997,A4,231.667,0.333,64,176.0
2998,C5,231.667,0.333,64,176.0
2999,F#4,231.667,0.333,64,176.0
3000,C5,231.667,0.333,64,176.0
3001,F#4,231.667,0.333,64,176.0
3002,B6,231.667,0.333,77,176.0
3003,B2,231.667,0.333,77,176.0
3004,F#4,231.667,0.333,64,176.0
3005,A4,231.667,0.333,64,176.0
3006,F#3,232.0,0.667,64,176.0
3007,F#4,232.0,1.0,64,176.0
3008,C#2,232.0,0.75,64,176.0
3009,F2,232.0,1.0,64,176.0
3010,A1,232.0,1.0,64,176.0
3011,C5,232.0,0.667,64,176.0
3012,F#4,232.0,0.667,64,176.0
3013,A5,232.667,0.333,64,176.0
3014,E4,232.667,0.333,64,176.0
3015,F#3,232.667,0.333,64,176.0
3016,C#4,232.667,0.333,64,176.0
3017,A4,232.667,0.333,64,176.0
3018,C#5,232.667,0.333,64,176.0
3019,E4,232.667,0.333,64,176.0
3020,C5,232.667,0.333,64,176.0
3021,F#4,232.667,0.333,64,176.0
3022,E4,232.667,0.333,64,176.0
3023,A4,232.667,0.333,64,176.0
3024,C#2,232.75,0.25,64,176.0
3025,A3,233.0,1.0,64,176.0
3026,C#2,233.0,0.75,90,176.0
3027,C#2,233.0,1.0,64,176.0
3028,C5,233.0,0.667,64,176.0
3029,F#4,233.0,0.667,64,176.0
3030,G2,233.0,1.0,64,176.0
3031,B-6,233.0,1.0,64,176.0
3032,E3,233.667,0.333,64,176.0
3033,C5,233.667,0.333,64,176.0
3034,F#4,233.667,0.333,64,176.0
3035,C#2,233.75,0.25,64,176.0
3036,A5,234.0,1.0,64,176.0
3037,E4,234.0,1.0,64,176.0
3038,C#4,234.0,1.0,64,176.0
3039,C#4,234.0,1.0,64,176.0
3040,A4,234.0,1.0,64,176.0
3041,C#2,234.0,0.75,64,176.0
3042,A2,234.0,1.0,64,176.0
3043,E2,234.0,1.0,64,176.0
3044,C#5,234.0,1.0,64,176.0
3045,E4,234.0,1.0,64,176.0
3046,E4,234.0,1.0,64,176.0
3047,A4,234.0,1.0,64,176.0
3048,C#5,234.667,0.333,64,176.0
3049,E4,234.667,0.333,64,176.0
3050,C#2,234.75,0.25,64,176.0
3051,A5,235.0,1.0,64,176.0
3052,E4,235.0,1.0,64,176.0
3053,C#4,235.0,1.0,64,176.0
3054,A4,235.0,1.0,64,176.0
3055,C#2,235.0,0.75,90,176.0
3056,F#2,235.0,1.0,64,176.0
3057,C#5,235.0,1.0,64,176.0
3058,E4,235.0,1.0,64,176.0
3059,E3,235.0,1.0,64,176.0
3060,E4,235.0,1.0,64,176.0
3061,B2,235.0,1.0,64,176.0
3062,B-6,235.0,1.0,64,176.0
3063,E4,235.0,1.0,64,176.0
3064,A4,235.0,1.0,64,176.0
3065,C#2,235.75,0.25,64,176.0
3066,C#2,236.0,0.75,64,176.0
3067,B2,236.0,1.0,64,176.0
3068,G2,236.0,1.0,64,176.0
3069,E3,236.0,1.0,64,176.0
3070,F#4,236.0,1.0,64,176.0
3071,C#5,236.0,1.0,64,176.0
3072,E4,236.0,1.0,64,176.0
3073,A5,236.667,0.333,64,176.0
3074,E4,236.667,0.333,64,176.0
3075,C#4,236.667,0.333,64,176.0
3076,A4,236.667,0.333,64,176.0
3077,C#5,236.667,0.333,64,176.0
3078,E4,236.667,0.333,64,176.0
3079,E4,236.667,0.333,64,176.0
3080,A4,236.667,0.333,64,176.0
3081,C#2,236.75,0.25,64,176.0
3082,G4,237.0,1.0,64,176.0
3083,C#2,237.0,0.75,90,176.0
3084,F#2,237.0,1.0,64,176.0
3085,C#5,237.0,1.0,64,176.0
3086,E4,237.0,1.0,64,176.0
3087,A2,237.0,1.0,64,176.0
3088,B-6,237.0,1.0,64,176.0
3089,A5,237.667,0.333,64,176.0
3090,E4,237.667,0.333,64,176.0
3091,E3,237.667,0.333,64,176.0
3092,C#4,237.667,0.333,64,176.0
3093,A4,237.667,0.333,64,176.0
3094,C#5,237.667,0.333,64,176.0
3095,E4,237.667,0.333,64,176.0
3096,E4,237.667,0.333,64,176.0
3097,A4,237.667,0.333,64,176.0
3098,C#2,237.75,0.25,64,176.0
3099,A5,238.0,0.667,64,176.0
3100,E4,238.0,0.667,64,176.0
3101,F#4,238.0,1.0,64,176.0
3102,C#4,238.0,0.667,64,176.0
3103,A4,238.0,0.667,64,176.0
3104,C#2,238.0,0.667,64,176.0
3105,G2,238.0,1.0,64,176.0
3106,E2,238.0,1.0,64,176.0
3107,C#5,238.0,0.667,64,176.0
3108,E4,238.0,0.667,64,176.0
3109,E4,238.0,0.667,64,176.0
3110,A4,238.0,0.667,64,176.0
3111,A5,238.667,0.333,64,176.0
3112,E4,238.667,0.333,64,176.0
3113,E3,238.667,0.333,64,176.0
3114,C#4,238.667,0.333,64,176.0
3115,A4,238.667,0.333,64,176.0
3116,C#5,238.667,0.333,64,176.0
3117,E4,238.667,0.333,64,176.0
3118,C#5,238.667,0.333,64,176.0
3119,E4,238.667,0.333,64,176.0
3120,B6,238.667,0.333,77,176.0
3121,D3,238.667,0.333,77,176.0
3122,E4,238.667,0.333,64,176.0
3123,A4,238.667,0.333,64,176.0
3124,A5,239.0,0.667,64,176.0
3125,E4,239.0,0.667,64,176.0
3126,E3,239.0,0.667,64,176.0
3127,E4,239.0,1.0,64,176.0
3128,C#4,239.0,0.667,64,176.0
3129,A4,239.0,0.667,64,176.0
3130,C#2,239.0,1.0,64,176.0
3131,C#5,239.0,0.667,64,176.0
3132,E4,239.0,0.667,64,176.0
3133,B6,239.0,0.667,77,176.0
3134,C3,239.0,0.667,77,176.0
3135,F2,239.0,1.0,64,176.0
3136,B-6,239.0,1.0,64,176.0
3137,E4,239.0,0.667,64,176.0
3138,A4,239.0,0.667,64,176.0
3139,A5,239.667,0.333,64,176.0
3140,E4,239.667,0.333,64,176.0
3141,E3,239.667,0.333,64,176.0
3142,C#4,239.667,0.333,64,176.0
3143,A4,239.667,0.333,64,176.0
3144,C#5,239.667,0.333,64,176.0
3145,E4,239.667,0.333,64,176.0
3146,C#5,239.667,0.333,64,176.0
3147,E4,239.667,0.333,64,176.0
3148,B6,239.667,0.333,77,176.0
3149,B2,239.667,0.333,77,176.0
3150,E4,239.667,0.333,64,176.0
3151,A4,239.667,0.333,64,176.0
3152,E3,240.0,0.667,64,176.0
3153,C#4,240.0,1.0,64,176.0
3154,C#2,240.0,0.75,64,176.0
3155,F2,240.0,1.0,64,176.0
3156,B1,240.0,1.0,64,176.0
3157,C#5,240.0,0.667,64,176.0
3158,E4,240.0,0.667,64,176.0
3159,B5,240.667,0.333,64,176.0
3160,G#4,240.667,0.333,64,176.0
3161,E3,240.667,0.333,64,176.0
3162,D4,240.667,0.333,64,176.0
3163,D5,240.667,0.333,64,176.0
3164,G#4,240.667,0.333,64,176.0
3165,C#5,240.667,0.333,64,176.0
3166,E4,240.667,0.333,64,176.0
3167,G#3,240.667,0.333,64,176.0
3168,B3,240.667,0.333,64,176.0
3169,G#4,240.667,0.333,64,176.0
3170,B4,240.667,0.333,64,176.0
3171,C#2,240.75,0.25,64,176.0
3172,B3,241.0,1.0,64,176.0
3173,C#2,241.0,0.75,90,176.0
3174,C#2,241.0,1.0,64,176.0
3175,C#5,241.0,0.667,64,176.0
3176,E4,241.0,0.667,64,176.0
3177,G2,241.0,1.0,64,176.0
3178,B-6,241.0,1.0,64,176.0
3179,G#3,241.667,0.333,64,176.0
3180,C#5,241.667,0.333,64,176.0
3181,E4,241.667,0.333,64,176.0
3182,F#3,241.667,0.333,64,176.0
3183,A3,241.667,0.333,64,176.0
3184,C#2,241.75,0.25,64,176.0
3185,B5,242.0,1.0,64,176.0
3186,G#4,242.0,1.0,64,176.0
3187,C#4,242.0,1.0,64,176.0
3188,D4,242.0,1.0,64,176.0
3189,C#2,242.0,0.75,64,176.0
3190,A2,242.0,1.0,64,176.0
3191,D2,242.0,1.0,64,176.0
3192,D5,242.0,1.0,64,176.0
3193,G#4,242.0,1.0,64,176.0
3194,G#3,242.0,1.0,64,176.0
3195,B3,242.0,1.0,64,176.0
3196,G#4,242.0,1.0,64,176.0
3197,B4,242.0,1.0,64,176.0
3198,G#3,242.667,0.333,64,176.0
3199,B3,242.667,0.333,64,176.0
3200,G#4,242.667,0.333,64,176.0
3201,C#2,242.75,0.25,64,176.0
3202,B5,243.0,1.0,64,176.0
3203,G#4,243.0,1.0,64,176.0
3204,D4,243.0,1.0,64,176.0
3205,C#2,243.0,0.75,90,176.0
3206,E-2,243.0,1.0,64,176.0
3207,D5,243.0,1.0,64,176.0
3208,G#4,243.0,1.0,64,176.0
3209,G#3,243.0,1.0,64,176.0
3210,D4,243.0,1.0,64,176.0
3211,B2,243.0,1.0,64,176.0
3212,B-6,243.0,1.0,64,176.0
3213,G#4,243.0,1.0,64,176.0
3214,B4,243.0,1.0,64,176.0
3215,A3,243.667,0.333,64,176.0
3216,F#3,243.667,0.333,64,176.0
3217,A3,243.667,0.333,64,176.0
3218,C#2,243.75,0.25,64,176.0
3219,C#2,244.0,0.75,64,176.0
3220,B2,244.0,1.0,64,176.0
3221,E2,244.0,1.0,64,176.0
3222,G#3,244.0,1.0,64,176.0
3223,E-4,244.0,1.0,64,176.0
3224,G#3,244.0,1.0,64,176.0
3225,B3,244.0,1.0,64,176.0
3226,G#4,244.0,1.0,64,176.0
3227,A5,244.667,0.333,64,176.0
3228,F#4,244.667,0.333,64,176.0
3229,C4,244.667,0.333,64,176.0
3230,F#3,244.667,0.333,64,176.0
3231,C5,244.667,0.333,64,176.0
3232,F#4,244.667,0.333,64,176.0
3233,F#4,244.667,0.333,64,176.0
3234,A4,244.667,0.333,64,176.0
3235,C#2,244.75,0.25,64,176.0
3236,E4,245.0,1.0,64,176.0
3237,G#4,245.0,1.0,64,176.0
3238,A3,245.0,1.0,64,176.0
3239,C#2,245.0,0.75,90,176.0
3240,D2,245.0,1.0,64,176.0
3241,A2,245.0,1.0,64,176.0
3242,B-6,245.0,1.0,64,176.0
3243,A5,245.667,0.333,64,176.0
3244,F#4,245.667,0.333,64,176.0
3245,F#3,245.667,0.333,64,176.0
3246,A4,245.667,0.333,64,176.0
3247,C4,245.667,0.333,64,176.0
3248,C5,245.667,0.333,64,176.0
3249,F#4,245.667,0.333,64,176.0
3250,F#4,245.667,0.333,64,176.0
3251,A4,245.667,0.333,64,176.0
3252,C#2,245.75,0.25,64,176.0
3253,A5,246.0,1.0,64,176.0
3254,F#4,246.0,1.0,64,176.0
3255,D4,246.0,1.0,64,176.0
3256,C4,246.0,1.0,64,176.0
3257,C#2,246.0,0.667,64,176.0
3258,G2,246.0,1.0,64,176.0
3259,C#2,246.0,1.0,64,176.0
3260,C5,246.0,1.0,64,176.0
3261,F#4,246.0,1.0,64,176.0
3262,F#4,246.0,1.0,64,176.0
3263,A4,246.0,1.0,64,176.0
3264,F#3,246.667,0.333,64,176.0
3265,A4,246.667,0.333,64,176.0
3266,B6,246.667,0.333,90,176.0
3267,F#4,246.667,0.333,64,176.0
3268,F#4,246.667,0.333,64,176.0
3269,A5,247.0,0.667,64,176.0
3270,F#4,247.0,0.667,64,176.0
3271,A4,247.0,1.0,64,176.0
3272,C4,247.0,0.667,64,176.0
3273,B6,247.0,0.667,90,176.0
3274,B1,247.0,1.0,64,176.0
3275,C5,247.0,0.667,64,176.0
3276,F#4,247.0,0.667,64,176.0
3277,F#3,247.0,1.0,64,176.0
3278,C#4,247.0,1.0,64,176.0
3279,F2,247.0,1.0,64,176.0
3280,B-6,247.0,1.0,64,176.0
3281,F#4,247.0,0.667,64,176.0
3282,A4,247.0,0.667,64,176.0
3283,A5,247.667,0.333,64,176.0
3284,A3,247.667,0.333,64,176.0
3285,F#4,247.667,0.333,64,176.0
3286,C#4,247.667,0.333,64,176.0
3287,F#4,247.667,0.333,64,176.0
3288,C#5,247.667,0.333,64,176.0
3289,E4,247.667,0.333,64,176.0
3290,B6,247.667,0.333,77,176.0
3291,C3,247.667,0.333,77,176.0
3292,E4,247.667,0.333,64,176.0
3293,A4,247.667,0.333,64,176.0
3294,A5,248.0,1.0,64,176.0
3295,A3,248.0,1.0,64,176.0
3296,F#3,248.0,0.667,64,176.0
3297,B3,248.0,1.0,64,176.0
3298,F#4,248.0,1.0,64,176.0
3299,C#4,248.0,1.0,64,176.0
3300,A4,248.0,1.0,64,176.0
3301,D3,248.0,0.333,64,176.0
3302,A1,248.0,1.0,64,176.0
3303,C#5,248.0,1.0,64,176.0
3304,E4,248.0,1.0,64,176.0
3305,B6,248.0,1.0,64,176.0
3306,F2,248.0,1.0,64,176.0
3307,G2,248.0,1.0,64,176.0
3308,A2,248.0,1.0,64,176.0
3309,B2,248.0,1.0,64,176.0
3310,B-6,248.0,1.0,64,176.0
3311,E4,248.0,1.0,64,176.0
3312,A4,248.0,1.0,64,176.0
3313,C3,248.333,0.334,64,176.0
3314,E3,248.667,0.333,64,176.0
3315,A5,248.667,0.333,64,176.0
3316,B2,248.667,0.333,64,176.0
3317,A3,249.0,1.0,64,176.0
3318,E3,249.0,1.0,64,176.0
3319,F#4,249.0,0.667,64,176.0
3320,A2,249.0,0.333,64,176.0
3321,B2,249.333,0.334,64,176.0
3322,F#5,249.667,0.333,64,176.0
3323,E4,249.667,0.333,64,176.0
3324,C3,249.667,0.333,64,176.0
3325,A5,250.0,1.0,64,176.0
3326,E4,250.0,1.0,64,176.0
3327,D3,250.0,0.333,64,176.0
3328,C3,250.333,0.334,64,176.0
3329,B2,250.667,0.333,64,176.0
3330,A2,251.0,0.333,64,176.0
3331,B2,251.333,0.334,64,176.0
3332,C3,251.667,0.333,64,176.0
3333,D3,252.0,0.333,64,176.0
3334,C3,252.333,0.334,64,176.0
3335,B2,252.667,0.333,64,176.0
3336,A2,253.0,0.333,64,176.0
3337,B2,253.333,0.334,64,176.0
3338,C3,253.667,0.333,64,176.0
3339,B6,254.0,0.333,64,176.0
3340,D3,254.0,0.333,64,176.0
3341,B6,254.333,0.334,64,176.0
3342,C3,254.333,0.334,64,176.0
3343,B6,254.667,0.333,64,176.0
3344,B2,254.667,0.333,64,176.0
3345,B6,255.0,0.333,64,176.0
3346,A2,255.0,0.333,64,176.0
3347,B6,255.333,0.334,64,176.0
3348,B2,255.333,0.334,64,176.0
3349,B6,255.667,0.333,64,176.0
3350,C3,255.667,0.333,64,176.0
3351,B2,256.0,1.0,64,176.0
3352,B6,256.0,0.333,64,176.0
3353,D3,256.0,0.333,64,176.0
3354,B6,256.333,0.334,64,176.0
3355,C3,256.333,0.334,64,176.0
3356,B6,256.667,0.333,64,176.0
3357,B2,256.667,0.333,64,176.0
3358,A2,257.0,1.0,64,176.0
3359,B2,257.0,0.667,64,176.0
3360,B6,257.0,0.333,64,176.0
3361,A2,257.0,0.333,64,176.0
3362,B6,257.333,0.334,64,176.0
3363,B2,257.333,0.667,64,176.0
3364,B6,257.667,0.333,64,176.0
3365,C3,257.667,0.333,64,176.0
3366,B6,258.0,0.333,64,176.0
3367,D3,258.0,0.333,64,176.0
3368,G2,258.0,1.0,64,176.0
3369,A2,258.0,1.0,64,176.0
3370,B2,258.0,1.0,64,176.0
3371,B6,258.333,0.334,64,176.0
3372,C3,258.333,0.334,64,176.0
3373,B6,258.667,0.333,64,176.0
3374,B2,258.667,0.333,64,176.0
3375,B6,259.0,0.667,64,176.0
3376,A2,259.0,0.667,64,176.0
3377,F2,259.0,0.667,64,176.0
3378,G2,259.0,0.667,64,176.0
3379,A2,259.0,0.667,64,176.0
3380,B2,259.0,0.667,64,176.0
3381,B6,259.667,0.333,64,176.0
3382,B2,259.667,0.333,64,176.0
3383,F2,259.667,0.333,64,176.0
3384,G2,259.667,0.333,64,176.0
3385,A2,259.667,0.333,64,176.0
3386,B2,259.667,0.333,64,176.0
3387,G3,260.667,0.333,90,176.0
3388,A4,260.667,0.333,90,176.0
3389,E4,260.667,0.333,90,176.0
3390,A1,260.667,0.333,90,176.0
3391,E5,260.667,0.333,90,176.0
3392,G4,260.667,0.333,90,176.0
3393,A5,260.667,0.333,90,176.0
3394,C#6,260.667,0.333,90,176.0
3395,B6,260.667,0.333,64,176.0
3396,C3,260.667,0.333,64,176.0
3397,D3,260.667,0.333,64,176.0
3398,F2,260.667,0.333,64,176.0
3399,G2,260.667,0.333,64,176.0
3400,A2,260.667,0.333,64,176.0
3401,B2,260.667,0.333,64,176.0
3402,A3,260.667,0.333,64,176.0
3403,A4,260.667,0.333,90,176.0
3404,C#5,260.667,0.333,90,176.0
3405,G3,261.667,1.333,90,176.0
3406,A4,261.667,1.333,90,176.0
3407,E4,261.667,1.333,90,176.0
3408,A1,261.667,1.333,90,176.0
3409,E5,261.667,1.333,90,176.0
3410,G4,261.667,1.333,90,176.0
3411,A5,261.667,1.333,90,176.0
3412,C#6,261.667,1.333,90,176.0
3413,E3,261.667,0.333,90,176.0
3414,A3,261.667,0.333,90,176.0
3415,B6,261.667,0.333,64,176.0
3416,A2,261.667,0.333,64,176.0
3417,B2,261.667,0.333,64,176.0
3418,F2,261.667,0.333,64,176.0
3419,G2,261.667,0.333,64,176.0
3420,A2,261.667,0.333,64,176.0
3421,B2,261.667,0.333,64,176.0
3422,A3,261.667,0.333,64,176.0
3423,A4,261.667,1.333,90,176.0
3424,C#5,261.667,1.333,90,176.0
3425,C#5,262.5,0.5,90,176.0
3426,A4,262.667,0.333,90,176.0
3427,E3,262.667,1.333,90,176.0
3428,A3,262.667,1.333,90,176.0
3429,C#5,263.5,1.5,90,176.0
3430,A4,263.667,1.333,90,176.0
3431,B6,263.667,0.333,64,176.0
3432,C3,263.667,0.333,64,176.0
3433,B2,264.0,1.0,64,176.0
3434,B6,264.0,0.333,64,176.0
3435,D3,264.0,0.333,64,176.0
3436,B6,264.333,0.334,64,176.0
3437,C3,264.333,0.334,64,176.0
3438,B6,264.667,0.333,64,176.0
3439,B2,264.667,0.333,64,176.0
3440,A2,265.0,1.0,64,176.0
3441,B2,265.0,0.667,64,176.0
3442,B6,265.0,0.333,64,176.0
3443,A2,265.0,0.333,64,176.0
3444,B6,265.333,0.334,64,176.0
3445,B2,265.333,0.667,64,176.0
3446,B6,265.667,0.333,64,176.0
3447,C3,265.667,0.333,64,176.0
3448,B6,266.0,0.333,64,176.0
3449,D3,266.0,0.333,64,176.0
3450,G2,266.0,1.0,64,176.0
3451,A2,266.0,1.0,64,176.0
3452,B2,266.0,1.0,64,176.0
3453,B6,266.333,0.334,64,176.0
3454,C3,266.333,0.334,64,176.0
3455,B6,266.667,0.333,64,176.0
3456,B2,266.667,0.333,64,176.0
3457,B6,267.0,0.667,64,176.0
3458,A2,267.0,0.667,64,176.0
3459,F2,267.0,0.667,64,176.0
3460,G2,267.0,0.667,64,176.0
3461,A2,267.0,0.667,64,176.0
3462,B2,267.0,0.667,64,176.0
3463,B6,267.667,0.333,64,176.0
3464,B2,267.667,0.333,64,176.0
3465,F2,267.667,0.333,64,176.0
3466,G2,267.667,0.333,64,176.0
3467,A2,267.667,0.333,64,176.0
3468,B2,267.667,0.333,64,176.0
3469,G3,268.667,0.333,90,176.0
3470,A4,268.667,0.333,90,176.0
3471,E4,268.667,0.333,90,176.0
3472,A1,268.667,0.333,90,176.0
3473,E5,268.667,0.333,90,176.0
3474,G4,268.667,0.333,90,176.0
3475,A5,268.667,0.333,90,176.0
3476,C#6,268.667,0.333,90,176.0
3477,B6,268.667,0.333,64,176.0
3478,C3,268.667,0.333,64,176.0
3479,D3,268.667,0.333,64,176.0
3480,F2,268.667,0.333,64,176.0
3481,G2,268.667,0.333,64,176.0
3482,A2,268.667,0.333,64,176.0
3483,B2,268.667,0.333,64,176.0
3484,A3,268.667,0.333,64,176.0
3485,A4,268.667,0.333,90,176.0
3486,C#5,268.667,0.333,90,176.0
3487,G3,269.667,1.333,90,176.0
3488,A4,269.667,1.333,90,176.0
3489,E4,269.667,1.333,90,176.0
3490,A1,269.667,1.333,90,176.0
3491,E5,269.667,1.333,90,176.0
3492,G4,269.667,1.333,90,176.0
3493,A5,269.667,1.333,90,176.0
3494,C#6,269.667,1.333,90,176.0
3495,E3,269.667,0.333,90,176.0
3496,A3,269.667,0.333,90,176.0
3497,B6,269.667,0.333,64,176.0
3498,A2,269.667,0.333,64,176.0
3499,B2,269.667,0.333,64,176.0
3500,F2,269.667,0.333,64,176.0
3501,G2,269.667,0.333,64,176.0
3502,A2,269.667,0.333,64,176.0
3503,B2,269.667,0.333,64,176.0
3504,A3,269.667,0.333,64,176.0
3505,A4,269.667,1.333,90,176.0
3506,C#5,269.667,1.333,90,176.0
3507,C#5,270.5,0.5,90,176.0
3508,A4,270.667,0.333,90,176.0
3509,E3,270.667,1.333,90,176.0
3510,A3,270.667,1.333,90,176.0
3511,C#5,271.5,1.5,90,176.0
3512,A4,271.667,1.333,90,176.0
3513,B6,271.667,0.333,64,176.0
3514,C3,271.667,0.333,64,176.0
3515,B2,272.0,1.0,64,176.0
3516,B6,272.0,0.333,64,176.0
3517,D3,272.0,0.333,64,176.0
3518,B6,272.333,0.334,64,176.0
3519,C3,272.333,0.334,64,176.0
3520,B6,272.667,0.333,64,176.0
3521,B2,272.667,0.333,64,176.0
3522,A2,273.0,1.0,64,176.0
3523,B2,273.0,0.667,64,176.0
3524,B6,273.0,0.333,64,176.0
3525,A2,273.0,0.333,64,176.0
3526,B6,273.333,0.334,64,176.0
3527,B2,273.333,0.667,64,176.0
3528,B6,273.667,0.333,64,176.0
3529,C3,273.667,0.333,64,176.0
3530,B6,274.0,0.333,64,176.0
3531,D3,274.0,0.333,64,176.0
3532,G2,274.0,1.0,64,176.0
3533,A2,274.0,1.0,64,176.0
3534,B2,274.0,1.0,64,176.0
3535,B6,274.333,0.334,64,176.0
3536,C3,274.333,0.334,64,176.0
3537,B6,274.667,0.333,64,176.0
3538,B2,274.667,0.333,64,176.0
3539,B6,275.0,0.667,64,176.0
3540,A2,275.0,0.667,64,176.0
3541,F2,275.0,0.667,64,176.0
3542,G2,275.0,0.667,64,176.0
3543,A2,275.0,0.667,64,176.0
3544,B2,275.0,0.667,64,176.0
3545,B6,275.667,0.333,64,176.0
3546,B2,275.667,0.333,64,176.0
3547,F2,275.667,0.333,64,176.0
3548,G2,275.667,0.333,64,176.0
3549,A2,275.667,0.333,64,176.0
3550,B2,275.667,0.333,64,176.0
3551,C4,276.667,0.333,90,176.0
3552,A4,276.667,0.333,90,176.0
3553,F#4,276.667,0.333,90,176.0
3554,D2,276.667,0.333,90,176.0
3555,F#5,276.667,0.333,90,176.0
3556,C5,276.667,0.333,90,176.0
3557,A5,276.667,0.333,90,176.0
3558,D6,276.667,0.333,90,176.0
3559,B6,276.667,0.333,64,176.0
3560,C3,276.667,0.333,64,176.0
3561,D3,276.667,0.333,64,176.0
3562,F2,276.667,0.333,64,176.0
3563,G2,276.667,0.333,64,176.0
3564,A2,276.667,0.333,64,176.0
3565,B2,276.667,0.333,64,176.0
3566,A3,276.667,0.333,64,176.0
3567,A4,276.667,0.333,90,176.0
3568,D5,276.667,0.333,90,176.0
3569,C4,277.667,1.333,90,176.0
3570,A4,277.667,1.333,90,176.0
3571,F#4,277.667,1.333,90,176.0
3572,D2,277.667,1.333,90,176.0
3573,F#5,277.667,1.333,90,176.0
3574,C5,277.667,1.333,90,176.0
3575,A5,277.667,1.333,90,176.0
3576,D6,277.667,1.333,90,176.0
3577,F#3,277.667,0.333,90,176.0
3578,D4,277.667,0.333,90,176.0
3579,B6,277.667,0.333,64,176.0
3580,A2,277.667,0.333,64,176.0
3581,B2,277.667,0.333,64,176.0
3582,F2,277.667,0.333,64,176.0
3583,G2,277.667,0.333,64,176.0
3584,A2,277.667,0.333,64,176.0
3585,B2,277.667,0.333,64,176.0
3586,A3,277.667,0.333,64,176.0
3587,A4,277.667,1.333,90,176.0
3588,D5,277.667,1.333,90,176.0
3589,D5,278.5,0.5,90,176.0
3590,A4,278.667,0.333,90,176.0
3591,F#3,278.667,1.333,90,176.0
3592,D4,278.667,1.333,90,176.0
3593,D5,279.5,1.5,90,176.0
3594,A4,279.667,1.333,90,176.0
3595,B6,279.667,0.333,64,176.0
3596,C3,279.667,0.333,64,176.0
3597,B2,280.0,1.0,64,176.0
3598,B6,280.0,0.333,64,176.0
3599,D3,280.0,0.333,64,176.0
3600,B6,280.333,0.334,64,176.0
3601,C3,280.333,0.334,64,176.0
3602,B6,280.667,0.333,64,176.0
3603,B2,280.667,0.333,64,176.0
3604,A2,281.0,1.0,64,176.0
3605,B2,281.0,0.667,64,176.0
3606,B6,281.0,0.333,64,176.0
3607,A2,281.0,0.333,64,176.0
3608,B6,281.333,0.334,64,176.0
3609,B2,281.333,0.667,64,176.0
3610,B6,281.667,0.333,64,176.0
3611,C3,281.667,0.333,64,176.0
3612,B6,282.0,0.333,64,176.0
3613,D3,282.0,0.333,64,176.0
3614,G2,282.0,1.0,64,176.0
3615,A2,282.0,1.0,64,176.0
3616,B2,282.0,1.0,64,176.0
3617,B6,282.333,0.334,64,176.0
3618,C3,282.333,0.334,64,176.0
3619,B6,282.667,0.333,64,176.0
3620,B2,282.667,0.333,64,176.0
3621,B6,283.0,0.667,64,176.0
3622,A2,283.0,0.667,64,176.0
3623,F2,283.0,0.667,64,176.0
3624,G2,283.0,0.667,64,176.0
3625,A2,283.0,0.667,64,176.0
3626,B2,283.0,0.667,64,176.0
3627,B6,283.667,0.333,64,176.0
3628,B2,283.667,0.333,64,176.0
3629,F2,283.667,0.333,64,176.0
3630,G2,283.667,0.333,64,176.0
3631,A2,283.667,0.333,64,176.0
3632,B2,283.667,0.333,64,176.0
3633,G3,284.667,0.333,90,176.0
3634,A4,284.667,0.333,90,176.0
3635,E4,284.667,0.333,90,176.0
3636,A1,284.667,0.333,90,176.0
3637,E5,284.667,0.333,90,176.0
3638,G4,284.667,0.333,90,176.0
3639,A5,284.667,0.333,90,176.0
3640,C#6,284.667,0.333,90,176.0
3641,B6,284.667,0.333,64,176.0
3642,C3,284.667,0.333,64,176.0
3643,D3,284.667,0.333,64,176.0
3644,F2,284.667,0.333,64,176.0
3645,G2,284.667,0.333,64,176.0
3646,A2,284.667,0.333,64,176.0
3647,B2,284.667,0.333,64,176.0
3648,A3,284.667,0.333,64,176.0
3649,A4,284.667,0.333,90,176.0
3650,C#5,284.667,0.333,90,176.0
3651,G3,285.667,1.333,90,176.0
3652,A4,285.667,1.333,90,176.0
3653,E4,285.667,1.333,90,176.0
3654,A1,285.667,1.333,90,176.0
3655,E5,285.667,1.333,90,176.0
3656,G4,285.667,1.333,90,176.0
3657,A5,285.667,1.333,90,176.0
3658,C#6,285.667,1.333,90,176.0
3659,E3,285.667,0.333,90,176.0
3660,A3,285.667,0.333,90,176.0
3661,B6,285.667,0.333,64,176.0
3662,A2,285.667,0.333,64,176.0
3663,B2,285.667,0.333,64,176.0
3664,F2,285.667,0.333,64,176.0
3665,G2,285.667,0.333,64,176.0
3666,A2,285.667,0.333,64,176.0
3667,B2,285.667,0.333,64,176.0
3668,A3,285.667,0.333,64,176.0
3669,A4,285.667,1.333,90,176.0
3670,C#5,285.667,1.333,90,176.0
3671,C#5,286.5,0.5,90,176.0
3672,A4,286.667,0.333,90,176.0
3673,E3,286.667,1.333,90,176.0
3674,A3,286.667,1.333,90,176.0
3675,C#5,287.5,1.5,90,176.0
3676,A4,287.667,1.333,90,176.0
3677,B6,287.667,0.333,64,176.0
3678,C3,287.667,0.333,64,176.0
3679,B6,288.0,0.333,64,176.0
3680,D3,288.0,0.333,64,176.0
3681,F2,288.0,1.0,64,176.0
3682,G2,288.0,1.0,64,176.0
3683,A2,288.0,1.0,64,176.0
3684,B2,288.0,1.0,64,176.0
3685,B6,288.333,0.334,64,176.0
3686,C3,288.333,0.334,64,176.0
3687,B6,288.667,0.333,64,176.0
3688,B2,288.667,0.333,64,176.0
3689,B2,289.0,0.667,64,176.0
3690,B6,289.0,0.333,64,176.0
3691,A2,289.0,0.333,64,176.0
3692,F2,289.0,1.0,64,176.0
3693,G2,289.0,1.0,64,176.0
3694,A2,289.0,1.0,64,176.0
3695,A3,289.0,1.0,64,176.0
3696,B6,289.333,0.334,64,176.0
3697,B2,289.333,0.667,64,176.0
3698,B6,289.667,0.333,64,176.0
3699,C3,289.667,0.333,64,176.0
3700,B6,290.0,0.333,64,176.0
3701,D3,290.0,0.333,64,176.0
3702,F2,290.0,1.0,64,176.0
3703,G2,290.0,1.0,64,176.0
3704,A2,290.0,1.0,64,176.0
3705,B2,290.0,1.0,64,176.0
3706,B6,290.333,0.334,64,176.0
3707,C3,290.333,0.334,64,176.0
3708,B6,290.667,0.333,64,176.0
3709,B2,290.667,0.333,64,176.0
3710,B2,291.0,0.667,64,176.0
3711,B6,291.0,0.333,64,176.0
3712,A2,291.0,0.333,64,176.0
3713,F2,291.0,1.0,64,176.0
3714,G2,291.0,1.0,64,176.0
3715,A2,291.0,1.0,64,176.0
3716,A3,291.0,1.0,64,176.0
3717,B6,291.333,0.334,64,176.0
3718,B2,291.333,0.667,64,176.0
3719,B6,291.667,0.333,64,176.0
3720,C3,291.667,0.333,64,176.0
3721,B6,292.0,0.333,64,176.0
3722,D3,292.0,0.333,64,176.0
3723,F2,292.0,1.0,64,176.0
3724,G2,292.0,1.0,64,176.0
3725,A2,292.0,1.0,64,176.0
3726,B2,292.0,1.0,64,176.0
3727,B6,292.333,0.334,64,176.0
3728,C3,292.333,0.334,64,176.0
3729,B6,292.667,0.333,64,176.0
3730,B2,292.667,0.333,64,176.0
3731,B2,293.0,0.667,64,176.0
3732,B6,293.0,0.333,64,176.0
3733,A2,293.0,0.333,64,176.0
3734,F2,293.0,1.0,64,176.0
3735,G2,293.0,1.0,64,176.0
3736,A2,293.0,1.0,64,176.0
3737,A3,293.0,1.0,64,176.0
3738,B6,293.333,0.334,64,176.0
3739,B2,293.333,0.667,64,176.0
3740,B6,293.667,0.333,64,176.0
3741,C3,293.667,0.333,64,176.0
3742,B6,294.0,0.333,64,176.0
3743,D3,294.0,0.333,64,176.0
3744,F2,294.0,1.0,64,176.0
3745,G2,294.0,1.0,64,176.0
3746,A2,294.0,1.0,64,176.0
3747,B2,294.0,1.0,64,176.0
3748,B6,294.333,0.334,64,176.0
3749,C3,294.333,0.334,64,176.0
3750,A4,294.667,0.333,64,176.0
3751,A3,294.667,0.333,64,176.0
3752,A3,294.667,0.333,64,176.0
3753,A3,294.667,0.333,64,176.0
3754,E1,294.667,0.333,64,176.0
3755,A3,294.667,0.333,64,176.0
3756,A4,294.667,0.333,64,176.0
3757,A3,294.667,0.333,64,176.0
3758,B6,294.667,0.333,64,176.0
3759,B2,294.667,0.333,64,176.0
3760,C#5,295.0,0.333,64,176.0
3761,C#4,295.0,0.333,64,176.0
3762,C#4,295.0,0.333,64,176.0
3763,C#4,295.0,0.333,64,176.0
3764,A3,295.0,1.0,64,176.0
3765,F#1,295.0,1.0,64,176.0
3766,C#4,295.0,0.333,64,176.0
3767,C#5,295.0,0.333,64,176.0
3768,C#4,295.0,0.333,64,176.0
3769,B6,295.0,0.333,64,176.0
3770,A2,295.0,0.333,64,176.0
3771,E5,295.333,0.334,64,176.0
3772,E4,295.333,0.334,64,176.0
3773,E4,295.333,0.334,64,176.0
3774,E4,295.333,0.334,64,176.0
3775,E4,295.333,0.334,64,176.0
3776,E5,295.333,0.334,64,176.0
3777,E4,295.333,0.334,64,176.0
3778,B6,295.333,0.334,64,176.0
3779,B2,295.333,0.334,64,176.0
3780,F#5,295.667,0.333,64,176.0
3781,F#4,295.667,0.333,64,176.0
3782,F#4,295.667,0.333,64,176.0
3783,F#4,295.667,0.333,64,176.0
3784,F#4,295.667,0.333,64,176.0
3785,F#5,295.667,0.333,64,176.0
3786,F#4,295.667,0.333,64,176.0
3787,E3,295.667,0.333,64,176.0
3788,E3,295.667,0.333,64,176.0
3789,B6,295.667,0.333,64,176.0
3790,C3,295.667,0.333,64,176.0
3791,A5,296.0,1.0,64,176.0
3792,A4,296.0,0.667,64,176.0
3793,A4,296.0,1.0,64,176.0
3794,A4,296.0,0.667,64,176.0
3795,D3,296.0,0.667,64,176.0
3796,A1,296.0,1.0,64,176.0
3797,A4,296.0,0.667,64,176.0
3798,A5,296.0,1.0,64,176.0
3799,A4,296.0,1.0,64,176.0
3800,F#3,296.0,1.0,64,176.0
3801,F#3,296.0,1.0,64,176.0
3802,F2,296.0,1.0,64,176.0
3803,G2,296.0,1.0,64,176.0
3804,A2,296.0,1.0,64,176.0
3805,B2,296.0,1.0,64,176.0
3806,A3,296.0,1.0,64,176.0
3807,G#4,296.667,0.333,64,176.0
3808,G#4,296.667,0.333,64,176.0
3809,C3,296.667,0.333,64,176.0
3810,G#4,296.667,0.333,64,176.0
3811,A4,296.667,0.333,64,176.0
3812,A3,296.667,0.333,64,176.0
3813,G4,297.0,0.667,64,176.0
3814,G4,297.0,0.667,64,176.0
3815,B2,297.0,0.667,64,176.0
3816,A1,297.0,1.0,64,176.0
3817,G4,297.0,0.667,64,176.0
3818,A3,297.0,1.0,64,176.0
3819,A3,297.0,1.0,64,176.0
3820,C#5,297.0,0.333,64,176.0
3821,C#4,297.0,0.333,64,176.0
3822,B6,297.0,1.0,64,176.0
3823,F2,297.0,1.0,64,176.0
3824,G2,297.0,1.0,64,176.0
3825,A2,297.0,1.0,64,176.0
3826,B2,297.0,1.0,64,176.0
3827,E5,297.333,0.334,64,176.0
3828,E4,297.333,0.334,64,176.0
3829,F#5,297.667,2.333,64,176.0
3830,F#4,297.667,1.0,64,176.0
3831,F#4,297.667,2.333,64,176.0
3832,F#4,297.667,1.0,64,176.0
3833,A2,297.667,0.333,64,176.0
3834,F#4,297.667,1.0,64,176.0
3835,F#5,297.667,2.333,64,176.0
3836,F#4,297.667,2.333,64,176.0
3837,F#5,297.667,0.333,64,176.0
3838,F#4,297.667,0.333,64,176.0
3839,A3,298.0,1.0,64,176.0
3840,C2,298.0,1.0,64,176.0
3841,A5,298.0,1.0,64,176.0
3842,A4,298.0,1.0,64,176.0
3843,F2,298.0,1.0,64,176.0
3844,G2,298.0,1.0,64,176.0
3845,A2,298.0,1.0,64,176.0
3846,B2,298.0,1.0,64,176.0
3847,A3,298.0,1.0,64,176.0
3848,F#4,298.667,0.333,64,176.0
3849,A3,298.667,1.0,64,176.0
3850,F#4,298.667,0.333,64,176.0
3851,A2,298.667,0.333,64,176.0
3852,F#4,298.667,0.333,64,176.0
3853,F#4,299.0,1.0,64,176.0
3854,C4,299.0,1.0,64,176.0
3855,F#4,299.0,1.0,64,176.0
3856,B2,299.0,0.667,64,176.0
3857,C2,299.0,1.0,64,176.0
3858,F#4,299.0,1.0,64,176.0
3859,B6,299.0,1.0,64,176.0
3860,F2,299.0,1.0,64,176.0
3861,G2,299.0,1.0,64,176.0
3862,A2,299.0,1.0,64,176.0
3863,B2,299.0,1.0,64,176.0
3864,F#3,299.667,0.333,64,176.0
3865,A2,299.667,0.333,64,176.0
3866,F#5,299.667,2.333,64,176.0
3867,F#4,299.667,2.333,64,176.0
3868,G5,300.0,0.667,64,176.0
3869,G4,300.0,0.667,64,176.0
3870,G4,300.0,0.667,64,176.0
3871,G4,300.0,0.667,64,176.0
3872,D3,300.0,0.667,64,176.0
3873,C2,300.0,1.0,64,176.0
3874,G4,300.0,0.667,64,176.0
3875,G5,300.0,0.667,64,176.0
3876,G4,300.0,0.667,64,176.0
3877,A3,300.0,1.0,64,176.0
3878,C4,300.0,1.0,64,176.0
3879,F2,300.0,1.0,64,176.0
3880,G2,300.0,1.0,64,176.0
3881,A2,300.0,1.0,64,176.0
3882,B2,300.0,1.0,64,176.0
3883,A3,300.0,1.0,64,176.0
3884,F5,300.667,0.333,64,176.0
3885,G4,300.667,0.333,64,176.0
3886,F4,300.667,0.333,64,176.0
3887,G4,300.667,0.333,64,176.0
3888,G4,300.667,0.333,64,176.0
3889,F5,300.667,0.333,64,176.0
3890,F4,300.667,0.333,64,176.0
3891,B6,300.667,0.333,64,176.0
3892,C3,300.667,0.333,64,176.0
3893,G5,301.0,0.667,64,176.0
3894,G4,301.0,0.667,64,176.0
3895,D4,301.0,0.667,64,176.0
3896,G4,301.0,0.667,64,176.0
3897,C2,301.0,1.0,64,176.0
3898,F#4,301.0,0.667,64,176.0
3899,D5,301.0,0.667,64,176.0
3900,D4,301.0,0.667,64,176.0
3901,A3,301.0,1.0,64,176.0
3902,C4,301.0,1.0,64,176.0
3903,B6,301.0,0.667,64,176.0
3904,B2,301.0,0.667,64,176.0
3905,F2,301.0,1.0,64,176.0
3906,G2,301.0,1.0,64,176.0
3907,A2,301.0,1.0,64,176.0
3908,B2,301.0,1.0,64,176.0
3909,A3,301.0,1.0,64,176.0
3910,F5,301.667,1.0,64,176.0
3911,F4,301.667,1.0,64,176.0
3912,C4,301.667,1.0,64,176.0
3913,F4,301.667,1.0,64,176.0
3914,F4,301.667,1.0,64,176.0
3915,C5,301.667,1.0,64,176.0
3916,C4,301.667,1.0,64,176.0
3917,B6,301.667,0.333,64,176.0
3918,A2,301.667,0.333,64,176.0
3919,C4,302.0,1.0,64,176.0
3920,B6,302.0,0.667,64,176.0
3921,F2,302.0,1.0,64,176.0
3922,G5,302.0,0.667,64,176.0
3923,G4,302.0,0.667,64,176.0
3924,F2,302.0,1.0,64,176.0
3925,G2,302.0,1.0,64,176.0
3926,A2,302.0,1.0,64,176.0
3927,B2,302.0,1.0,64,176.0
3928,A3,302.0,1.0,64,176.0
3929,F5,302.667,0.333,64,176.0
3930,F4,302.667,0.333,64,176.0
3931,F4,302.667,0.333,64,176.0
3932,F4,302.667,0.333,64,176.0
3933,F4,302.667,0.333,64,176.0
3934,F5,302.667,0.333,64,176.0
3935,F4,302.667,0.333,64,176.0
3936,F5,302.667,0.333,64,176.0
3937,F4,302.667,0.333,64,176.0
3938,B6,302.667,0.333,64,176.0
3939,A2,302.667,0.333,64,176.0
3940,G5,303.0,1.0,64,176.0
3941,G4,303.0,1.0,64,176.0
3942,F4,303.0,1.0,64,176.0
3943,G4,303.0,1.0,64,176.0
3944,G4,303.0,1.0,64,176.0
3945,B6,303.0,0.667,64,176.0
3946,F2,303.0,1.0,64,176.0
3947,G4,303.0,1.0,64,176.0
3948,G5,303.0,1.0,64,176.0
3949,G4,303.0,1.0,64,176.0
3950,G5,303.0,0.667,64,176.0
3951,D4,303.0,0.667,64,176.0
3952,C3,303.0,1.0,64,176.0
3953,F2,303.0,1.0,64,176.0
3954,G2,303.0,1.0,64,176.0
3955,A2,303.0,1.0,64,176.0
3956,B2,303.0,1.0,64,176.0
3957,F3,303.667,0.333,64,176.0
3958,B6,303.667,0.333,64,176.0
3959,F5,303.667,1.0,64,176.0
3960,C4,303.667,1.0,64,176.0
3961,B-5,304.0,1.0,64,176.0
3962,F4,304.0,1.0,64,176.0
3963,F4,304.0,1.0,64,176.0
3964,B-4,304.0,1.0,64,176.0
3965,B-1,304.0,1.0,64,176.0
3966,B-4,304.0,1.0,64,176.0
3967,B-5,304.0,1.0,64,176.0
3968,B-4,304.0,1.0,64,176.0
3969,G3,304.0,1.0,64,176.0
3970,F4,304.0,1.0,64,176.0
3971,E-3,304.0,1.0,64,176.0
3972,C3,304.0,1.0,64,176.0
3973,F2,304.0,1.0,64,176.0
3974,F5,304.667,0.333,64,176.0
3975,F4,304.667,0.333,64,176.0
3976,F5,305.0,0.667,64,176.0
3977,F4,305.0,0.667,64,176.0
3978,F4,305.0,0.667,64,176.0
3979,G2,305.0,1.0,64,176.0
3980,D2,305.0,1.0,64,176.0
3981,F4,305.0,0.667,64,176.0
3982,F3,305.0,1.0,64,176.0
3983,B-3,305.0,1.0,64,176.0
3984,G5,305.0,1.0,64,176.0
3985,G4,305.0,1.0,64,176.0
3986,B6,305.0,0.75,64,176.0
3987,E-3,305.0,0.75,64,176.0
3988,F5,305.667,1.333,64,176.0
3989,F4,305.667,1.333,64,176.0
3990,F4,305.667,1.333,64,176.0
3991,F4,305.667,1.333,64,176.0
3992,E-3,305.75,0.25,64,176.0
3993,F3,306.0,0.667,64,176.0
3994,D4,306.0,1.0,64,176.0
3995,F2,306.0,1.0,64,176.0
3996,B-5,306.0,1.0,64,176.0
3997,B-4,306.0,1.0,64,176.0
3998,E-3,306.0,1.0,64,176.0
3999,A2,306.0,1.0,64,176.0
4000,F3,306.667,1.333,64,176.0
4001,F5,307.0,0.667,64,176.0
4002,F4,307.0,0.667,64,176.0
4003,F4,307.0,1.0,64,176.0
4004,F4,307.0,0.667,64,176.0
4005,B2,307.0,1.0,64,176.0
4006,G2,307.0,1.0,64,176.0
4007,F4,307.0,0.667,64,176.0
4008,F5,307.0,0.667,64,176.0
4009,F4,307.0,0.667,64,176.0
4010,B6,307.0,0.75,64,176.0
4011,E-3,307.0,0.75,64,176.0
4012,F5,307.667,0.333,64,176.0
4013,F4,307.667,0.333,64,176.0
4014,F4,307.667,0.333,64,176.0
4015,F4,307.667,0.333,64,176.0
4016,F5,307.667,1.333,64,176.0
4017,F4,307.667,1.333,64,176.0
4018,E-3,307.75,0.25,64,176.0
4019,F3,308.0,0.667,64,176.0
4020,G4,308.0,1.0,64,176.0
4021,G#2,308.0,1.0,64,176.0
4022,E-3,308.0,1.0,64,176.0
4023,B2,308.0,1.0,64,176.0
4024,F5,308.667,0.333,64,176.0
4025,F4,308.667,0.333,64,176.0
4026,F3,308.667,0.333,64,176.0
4027,F4,308.667,0.333,64,176.0
4028,F4,308.667,0.333,64,176.0
4029,E-5,309.0,0.667,64,176.0
4030,E-4,309.0,0.667,64,176.0
4031,G#4,309.0,1.0,64,176.0
4032,E-4,309.0,0.667,64,176.0
4033,A2,309.0,1.0,64,176.0
4034,G2,309.0,1.0,64,176.0
4035,E-4,309.0,0.667,64,176.0
4036,F5,309.0,0.667,64,176.0
4037,F4,309.0,0.667,64,176.0
4038,B6,309.0,0.75,64,176.0
4039,E-3,309.0,0.75,64,176.0
4040,E-5,309.667,0.333,64,176.0
4041,E-4,309.667,0.333,64,176.0
4042,F3,309.667,0.333,64,176.0
4043,E-4,309.667,0.333,64,176.0
4044,E-4,309.667,0.333,64,176.0
4045,F5,309.667,0.333,64,176.0
4046,F4,309.667,0.333,64,176.0
4047,E-3,309.75,0.25,64,176.0
4048,E-3,310.0,0.667,64,176.0
4049,G4,310.0,1.0,64,176.0
4050,F2,310.0,1.0,64,176.0
4051,E-3,310.0,1.0,64,176.0
4052,G2,310.0,1.0,64,176.0
4053,B-4,310.667,0.333,64,176.0
4054,B-3,310.667,0.333,64,176.0
4055,E-3,310.667,0.333,64,176.0
4056,B-3,310.667,0.333,64,176.0
4057,B-3,310.667,0.333,64,176.0
4058,F5,310.667,0.333,64,176.0
4059,F4,310.667,0.333,64,176.0
4060,C5,311.0,0.667,64,176.0
4061,C4,311.0,0.667,64,176.0
4062,F4,311.0,1.0,64,176.0
4063,C4,311.0,0.667,64,176.0
4064,F2,311.0,1.0,64,176.0
4065,D2,311.0,1.0,64,176.0
4066,C4,311.0,0.667,64,176.0
4067,E-5,311.0,0.667,64,176.0
4068,E-4,311.0,0.667,64,176.0
4069,B6,311.0,0.75,64,176.0
4070,E-3,311.0,0.75,64,176.0
4071,D5,311.667,0.333,64,176.0
4072,D4,311.667,0.333,64,176.0
4073,B-2,311.667,0.333,64,176.0
4074,D4,311.667,0.333,64,176.0
4075,D4,311.667,0.333,64,176.0
4076,E-5,311.667,0.333,64,176.0
4077,E-4,311.667,0.333,64,176.0
4078,E-3,311.75,0.25,64,176.0
4079,C3,312.0,0.667,64,176.0
4080,D4,312.0,1.0,64,176.0
4081,B-1,312.0,1.0,64,176.0
4082,E-3,312.0,1.0,64,176.0
4083,F2,312.0,1.0,64,176.0
4084,B-4,312.667,0.333,64,176.0
4085,D3,312.667,0.333,64,176.0
4086,B-4,312.667,0.333,64,176.0
4087,D3,312.667,0.333,64,176.0
4088,B-4,312.667,0.333,64,176.0
4089,B-4,312.667,0.333,64,176.0
4090,B-4,312.667,0.333,64,176.0
4091,B-3,312.667,0.333,64,176.0
4092,B-3,313.0,1.0,64,176.0
4093,G2,313.0,1.0,64,176.0
4094,D2,313.0,1.0,64,176.0
4095,C5,313.0,0.667,64,176.0
4096,C4,313.0,0.667,64,176.0
4097,B6,313.0,0.75,64,176.0
4098,E-3,313.0,0.75,64,176.0
4099,B-3,313.667,0.333,64,176.0
4100,B-3,313.667,0.333,64,176.0
4101,B-3,313.667,0.333,64,176.0
4102,A2,313.667,0.333,64,176.0
4103,B-3,313.667,0.333,64,176.0
4104,B-3,313.667,0.333,64,176.0
4105,D5,313.667,0.333,64,176.0
4106,D4,313.667,0.333,64,176.0
4107,E-3,313.75,0.25,64,176.0
4108,D4,314.0,1.0,64,176.0
4109,F2,314.0,1.0,64,176.0
4110,E-3,314.0,1.0,64,176.0
4111,A2,314.0,1.0,64,176.0
4112,B-4,314.667,0.333,64,176.0
4113,B-2,314.667,0.333,64,176.0
4114,B-4,314.667,0.333,64,176.0
4115,C3,314.667,0.333,64,176.0
4116,B-4,314.667,0.333,64,176.0
4117,B-4,314.667,0.333,64,176.0
4118,G4,315.0,0.667,64,176.0
4119,F4,315.0,1.0,64,176.0
4120,G4,315.0,0.667,64,176.0
4121,B2,315.0,0.667,64,176.0
4122,B2,315.0,1.0,64,176.0
4123,G2,315.0,1.0,64,176.0
4124,G4,315.0,0.667,64,176.0
4125,G4,315.0,0.667,64,176.0
4126,B6,315.0,0.75,64,176.0
4127,E-3,315.0,0.75,64,176.0
4128,F4,315.667,0.333,64,176.0
4129,B-3,315.667,0.333,64,176.0
4130,F4,315.667,0.333,64,176.0
4131,A2,315.667,0.333,64,176.0
4132,F4,315.667,0.333,64,176.0
4133,F4,315.667,0.333,64,176.0
4134,E-3,315.75,0.25,64,176.0
4135,G3,316.0,0.667,64,176.0
4136,G4,316.0,1.0,64,176.0
4137,G#2,316.0,1.0,64,176.0
4138,E-3,316.0,1.0,64,176.0
4139,B2,316.0,1.0,64,176.0
4140,B-4,316.667,0.333,64,176.0
4141,F3,316.667,0.333,64,176.0
4142,B-4,316.667,0.333,64,176.0
4143,D3,316.667,0.333,64,176.0
4144,B-4,316.667,0.333,64,176.0
4145,B-4,316.667,0.333,64,176.0
4146,G#4,317.0,1.0,64,176.0
4147,A2,317.0,1.0,64,176.0
4148,G2,317.0,1.0,64,176.0
4149,B6,317.0,0.75,64,176.0
4150,E-3,317.0,0.75,64,176.0
4151,B-3,317.667,0.333,64,176.0
4152,B-3,317.667,0.333,64,176.0
4153,B-3,317.667,0.333,64,176.0
4154,A2,317.667,0.333,64,176.0
4155,B-3,317.667,0.333,64,176.0
4156,B-3,317.667,0.333,64,176.0
4157,E-3,317.75,0.25,64,176.0
4158,G4,318.0,1.0,64,176.0
4159,F2,318.0,1.0,64,176.0
4160,E-3,318.0,1.0,64,176.0
4161,G2,318.0,1.0,64,176.0
4162,B-4,318.667,0.333,64,176.0
4163,B-2,318.667,0.333,64,176.0
4164,B-4,318.667,0.333,64,176.0
4165,C3,318.667,0.333,64,176.0
4166,B-4,318.667,0.333,64,176.0
4167,B-4,318.667,0.333,64,176.0
4168,G4,319.0,0.667,64,176.0
4169,F4,319.0,1.0,64,176.0
4170,G4,319.0,0.667,64,176.0
4171,B2,319.0,0.667,64,176.0
4172,F2,319.0,1.0,64,176.0
4173,D2,319.0,1.0,64,176.0
4174,G4,319.0,0.667,64,176.0
4175,G4,319.0,0.667,64,176.0
4176,B6,319.0,0.75,64,176.0
4177,E-3,319.0,0.75,64,176.0
4178,F4,319.667,0.333,64,176.0
4179,B-3,319.667,0.333,64,176.0
4180,F4,319.667,0.333,64,176.0
4181,A2,319.667,0.333,64,176.0
4182,F4,319.667,0.333,64,176.0
4183,F4,319.667,0.333,64,176.0
4184,E-3,319.75,0.25,64,176.0
4185,F5,320.0,1.0,64,176.0
4186,F4,320.0,1.0,64,176.0
4187,G3,320.0,0.667,64,176.0
4188,D4,320.0,1.0,64,176.0
4189,F4,320.0,1.0,64,176.0
4190,E-2,320.0,1.0,64,176.0
4191,F4,320.0,1.0,64,176.0
4192,E-3,320.0,1.0,64,176.0
4193,F2,320.0,1.0,64,176.0
4194,F3,320.667,0.333,64,176.0
4195,F5,321.0,0.667,64,176.0
4196,F4,321.0,0.667,64,176.0
4197,E-4,321.0,1.0,64,176.0
4198,F4,321.0,0.667,64,176.0
4199,G2,321.0,1.0,64,176.0
4200,G2,321.0,1.0,64,176.0
4201,F4,321.0,0.667,64,176.0
4202,B6,321.0,0.75,64,176.0
4203,E-3,321.0,0.75,64,176.0
4204,F5,321.667,1.333,64,176.0
4205,F4,321.667,1.333,64,176.0
4206,F4,321.667,1.333,64,176.0
4207,F4,321.667,1.333,64,176.0
4208,E-3,321.75,0.25,64,176.0
4209,G4,322.0,1.0,64,176.0
4210,B-2,322.0,1.0,64,176.0
4211,F5,322.0,1.0,64,176.0
4212,F4,322.0,1.0,64,176.0
4213,E-3,322.0,1.0,64,176.0
4214,A2,322.0,1.0,64,176.0
4215,F5,323.0,0.667,64,176.0
4216,F4,323.0,0.667,64,176.0
4217,B-4,323.0,1.0,64,176.0
4218,F4,323.0,0.667,64,176.0
4219,B2,323.0,1.0,64,176.0
4220,G2,323.0,1.0,64,176.0
4221,F4,323.0,0.667,64,176.0
4222,F5,323.0,0.667,64,176.0
4223,F4,323.0,0.667,64,176.0
4224,B6,323.0,0.75,64,176.0
4225,E-3,323.0,0.75,64,176.0
4226,F5,323.667,0.333,64,176.0
4227,F4,323.667,0.333,64,176.0
4228,F4,323.667,0.333,64,176.0
4229,F4,323.667,0.333,64,176.0
4230,F5,323.667,1.333,64,176.0
4231,F4,323.667,1.333,64,176.0
4232,E-3,323.75,0.25,64,176.0
4233,G4,324.0,1.0,64,176.0
4234,E-2,324.0,1.0,64,176.0
4235,E-3,324.0,1.0,64,176.0
4236,B2,324.0,1.0,64,176.0
4237,F5,324.667,0.333,64,176.0
4238,F4,324.667,0.333,64,176.0
4239,F4,324.667,0.333,64,176.0
4240,F4,324.667,0.333,64,176.0
4241,E-5,325.0,0.667,64,176.0
4242,E-4,325.0,0.667,64,176.0
4243,E-4,325.0,1.0,64,176.0
4244,E-4,325.0,0.667,64,176.0
4245,A2,325.0,1.0,64,176.0
4246,G2,325.0,1.0,64,176.0
4247,E-4,325.0,0.667,64,176.0
4248,F5,325.0,0.667,64,176.0
4249,F4,325.0,0.667,64,176.0
4250,B6,325.0,0.75,64,176.0
4251,E-3,325.0,0.75,64,176.0
4252,E-5,325.667,0.333,64,176.0
4253,E-4,325.667,0.333,64,176.0
4254,E-4,325.667,0.333,64,176.0
4255,E-4,325.667,0.333,64,176.0
4256,F5,325.667,0.333,64,176.0
4257,F4,325.667,0.333,64,176.0
4258,E-3,325.75,0.25,64,176.0
4259,G4,326.0,1.0,64,176.0
4260,B-2,326.0,1.0,64,176.0
4261,E-3,326.0,1.0,64,176.0
4262,G2,326.0,1.0,64,176.0
4263,B-4,326.667,0.333,64,176.0
4264,B-3,326.667,0.333,64,176.0
4265,B-3,326.667,0.333,64,176.0
4266,B-3,326.667,0.333,64,176.0
4267,F5,326.667,0.333,64,176.0
4268,F4,326.667,0.333,64,176.0
4269,C5,327.0,0.667,64,176.0
4270,C4,327.0,0.667,64,176.0
4271,B-4,327.0,1.0,64,176.0
4272,C4,327.0,0.667,64,176.0
4273,F2,327.0,1.0,64,176.0
4274,G2,327.0,1.0,64,176.0
4275,C4,327.0,0.667,64,176.0
4276,E-5,327.0,0.667,64,176.0
4277,E-4,327.0,0.667,64,176.0
4278,B6,327.0,0.75,64,176.0
4279,E-3,327.0,0.75,64,176.0
4280,D5,327.667,0.333,64,176.0
4281,D4,327.667,0.333,64,176.0
4282,D4,327.667,0.333,64,176.0
4283,D4,327.667,0.333,64,176.0
4284,E-5,327.667,0.333,64,176.0
4285,E-4,327.667,0.333,64,176.0
4286,E-3,327.75,0.25,64,176.0
4287,G4,328.0,1.0,64,176.0
4288,B-1,328.0,1.0,64,176.0
4289,E-3,328.0,1.0,64,176.0
4290,F2,328.0,1.0,64,176.0
4291,B-4,328.667,0.333,64,176.0
4292,B-4,328.667,0.333,64,176.0
4293,D3,328.667,0.333,64,176.0
4294,B-4,328.667,0.333,64,176.0
4295,B-4,328.667,0.333,64,176.0
4296,B-4,328.667,0.333,64,176.0
4297,B-3,328.667,0.333,64,176.0
4298,B-3,329.0,1.0,64,176.0
4299,G2,329.0,1.0,64,176.0
4300,D2,329.0,1.0,64,176.0
4301,C5,329.0,0.667,64,176.0
4302,C4,329.0,0.667,64,176.0
4303,B6,329.0,0.75,64,176.0
4304,E-3,329.0,0.75,64,176.0
4305,B-3,329.667,0.333,64,176.0
4306,B-3,329.667,0.333,64,176.0
4307,B-3,329.667,0.333,64,176.0
4308,A2,329.667,0.333,64,176.0
4309,B-3,329.667,0.333,64,176.0
4310,B-3,329.667,0.333,64,176.0
4311,D5,329.667,0.333,64,176.0
4312,D4,329.667,0.333,64,176.0
4313,E-3,329.75,0.25,64,176.0
4314,D4,330.0,1.0,64,176.0
4315,F2,330.0,1.0,64,176.0
4316,E-3,330.0,1.0,64,176.0
4317,A2,330.0,1.0,64,176.0
4318,B-4,330.667,0.333,64,176.0
4319,B-2,330.667,0.333,64,176.0
4320,B-4,330.667,0.333,64,176.0
4321,C3,330.667,0.333,64,176.0
4322,B-4,330.667,0.333,64,176.0
4323,B-4,330.667,0.333,64,176.0
4324,G4,331.0,0.667,64,176.0
4325,F4,331.0,1.0,64,176.0
4326,G4,331.0,0.667,64,176.0
4327,B2,331.0,0.667,64,176.0
4328,B2,331.0,1.0,64,176.0
4329,G2,331.0,1.0,64,176.0
4330,G4,331.0,0.667,64,176.0
4331,G4,331.0,0.667,64,176.0
4332,B6,331.0,0.75,64,176.0
4333,E-3,331.0,0.75,64,176.0
4334,F4,331.667,0.333,64,176.0
4335,B-3,331.667,0.333,64,176.0
4336,F4,331.667,0.333,64,176.0
4337,A2,331.667,0.333,64,176.0
4338,F4,331.667,0.333,64,176.0
4339,F4,331.667,0.333,64,176.0
4340,E-3,331.75,0.25,64,176.0
4341,G3,332.0,0.667,64,176.0
4342,G4,332.0,1.0,64,176.0
4343,G#2,332.0,1.0,64,176.0
4344,E-3,332.0,1.0,64,176.0
4345,B2,332.0,1.0,64,176.0
4346,B-4,332.667,0.333,64,176.0
4347,F3,332.667,0.333,64,176.0
4348,B-4,332.667,0.333,64,176.0
4349,D3,332.667,0.333,64,176.0
4350,B-4,332.667,0.333,64,176.0
4351,B-4,332.667,0.333,64,176.0
4352,G#4,333.0,1.0,64,176.0
4353,D3,333.0,0.333,64,176.0
4354,A2,333.0,1.0,64,176.0
4355,G2,333.0,1.0,64,176.0
4356,B6,333.0,0.75,64,176.0
4357,E-3,333.0,0.75,64,176.0
4358,C3,333.333,0.334,64,176.0
4359,B-3,333.667,0.333,64,176.0
4360,B-3,333.667,0.333,64,176.0
4361,B-3,333.667,0.333,64,176.0
4362,B2,333.667,0.333,64,176.0
4363,B-3,333.667,0.333,64,176.0
4364,B-3,333.667,0.333,64,176.0
4365,E-3,333.75,0.25,64,176.0
4366,G4,334.0,1.0,64,176.0
4367,G2,334.0,1.0,64,176.0
4368,F2,334.0,1.0,64,176.0
4369,E-3,334.0,0.667,64,176.0
4370,A2,334.0,0.667,64,176.0
4371,G5,334.667,1.333,90,176.0
4372,C#4,334.667,1.333,90,176.0
4373,B-2,334.667,0.333,64,176.0
4374,G#4,334.667,1.333,90,176.0
4375,G#4,334.667,1.333,90,176.0
4376,G#4,334.667,1.333,90,176.0
4377,C#4,334.667,1.333,90,176.0
4378,B6,334.667,1.333,64,176.0
4379,F#2,334.667,1.333,64,176.0
4380,C3,334.667,0.333,64,176.0
4381,D3,334.667,0.333,64,176.0
4382,C#4,334.667,1.333,64,176.0
4383,G4,334.667,1.333,64,176.0
4384,F4,335.0,1.0,64,176.0
4385,F2,335.0,1.0,64,176.0
4386,D2,335.0,1.0,64,176.0
4387,C#4,335.667,1.333,90,176.0
4388,B-5,336.0,1.0,64,176.0
4389,F4,336.0,1.0,64,176.0
4390,D4,336.0,1.0,64,176.0
4391,G4,336.0,1.0,64,176.0
4392,F4,336.0,1.0,64,176.0
4393,A3,336.0,0.367,64,176.0
4394,C2,336.0,1.0,64,176.0
4395,G4,336.0,1.0,64,176.0
4396,C4,336.0,1.0,64,176.0
4397,B6,336.0,1.0,64,176.0
4398,A2,336.0,1.0,64,176.0
4399,B2,336.0,1.0,64,176.0
4400,F2,336.0,1.0,64,176.0
4401,G2,336.0,1.0,64,176.0
4402,A2,336.0,1.0,64,176.0
4403,B2,336.0,1.0,64,176.0
4404,C4,336.0,1.0,64,176.0
4405,B-4,336.0,1.0,64,176.0
4406,G5,336.667,1.333,90,176.0
4407,G4,336.667,1.333,90,176.0
4408,F4,337.0,1.0,64,176.0
4409,F4,337.0,1.0,64,176.0
4410,C4,337.0,1.0,64,176.0
4411,C4,337.0,1.0,64,176.0
4412,E-4,338.0,0.667,64,176.0
4413,E-4,338.0,0.667,64,176.0
4414,B-5,338.0,1.0,64,176.0
4415,B-4,338.0,1.0,64,176.0
4416,E-4,338.667,0.333,64,176.0
4417,E-4,338.667,0.333,64,176.0
4418,E-4,339.0,0.667,64,176.0
4419,E-4,339.0,0.667,64,176.0
4420,E-4,339.667,0.333,64,176.0
4421,E-4,339.667,0.333,64,176.0
4422,D6,340.0,1.0,64,176.0
4423,F4,340.0,1.0,64,176.0
4424,F4,340.0,1.0,64,176.0
4425,F4,340.0,1.0,64,176.0
4426,A3,340.0,0.367,64,176.0
4427,F2,340.0,1.0,64,176.0
4428,F5,340.0,1.0,64,176.0
4429,D5,340.0,1.0,64,176.0
4430,B6,340.0,1.0,64,176.0
4431,C3,340.0,1.0,64,176.0
4432,D3,340.0,1.0,64,176.0
4433,F2,340.0,1.0,64,176.0
4434,G2,340.0,1.0,64,176.0
4435,A2,340.0,1.0,64,176.0
4436,B2,340.0,1.0,64,176.0
4437,F4,340.0,1.0,64,176.0
4438,D5,340.0,1.0,64,176.0
4439,E-4,341.0,0.667,64,176.0
4440,E-4,341.0,0.667,64,176.0
4441,D4,341.0,1.0,64,176.0
4442,F4,341.0,1.0,64,176.0
4443,E-4,341.667,0.333,64,176.0
4444,E-4,341.667,0.333,64,176.0
4445,C#4,342.0,1.0,64,176.0
4446,C#4,342.0,1.0,64,176.0
4447,D5,342.0,1.0,64,176.0
4448,D6,342.0,1.0,64,176.0
4449,D5,342.0,1.0,64,176.0
4450,B-3,343.0,0.667,64,176.0
4451,B-3,343.0,0.667,64,176.0
4452,B-3,343.667,0.333,64,176.0
4453,B-3,343.667,0.333,64,176.0
4454,B-4,344.0,0.667,90,176.0
4455,B-4,344.0,1.5,64,176.0
4456,B-5,344.0,1.5,90,176.0
4457,B-3,344.0,0.667,90,176.0
4458,B-3,344.0,0.667,64,176.0
4459,B-3,344.0,0.667,90,176.0
4460,A3,344.0,1.667,64,176.0
4461,G2,344.0,1.667,90,176.0
4462,B-4,344.0,0.667,90,176.0
4463,B6,344.0,0.667,77,176.0
4464,D3,344.0,0.667,77,176.0
4465,F2,344.0,1.0,64,176.0
4466,G2,344.0,1.0,64,176.0
4467,A2,344.0,1.0,64,176.0
4468,B2,344.0,1.0,64,176.0
4469,F4,344.667,0.333,64,176.0
4470,F3,344.667,0.333,64,176.0
4471,F3,344.667,0.333,64,176.0
4472,F3,344.667,0.333,64,176.0
4473,F4,344.667,0.333,64,176.0
4474,B6,344.667,0.333,64,176.0
4475,C3,344.667,0.333,64,176.0
4476,G4,345.0,0.667,64,176.0
4477,G3,345.0,0.667,64,176.0
4478,B-3,345.0,1.5,90,176.0
4479,G4,345.0,1.667,90,176.0
4480,G3,345.0,0.667,64,176.0
4481,G3,345.0,0.667,64,176.0
4482,G4,345.0,0.667,64,176.0
4483,B6,345.0,0.667,64,176.0
4484,B2,345.0,0.667,64,176.0
4485,B-4,345.5,0.5,64,176.0
4486,B-5,345.5,1.5,90,176.0
4487,B-4,345.667,1.333,90,176.0
4488,B-3,345.667,0.333,90,176.0
4489,B-3,345.667,0.333,64,176.0
4490,B-3,345.667,0.333,90,176.0
4491,A3,345.667,1.333,64,176.0
4492,F#2,345.667,1.333,90,176.0
4493,B-4,345.667,0.333,90,176.0
4494,B6,345.667,0.333,68,176.0
4495,D3,345.667,0.333,68,176.0
4496,F2,345.667,0.333,68,176.0
4497,G2,345.667,0.333,68,176.0
4498,A2,345.667,0.333,68,176.0
4499,B2,345.667,0.333,68,176.0
4500,F4,346.0,0.667,64,176.0
4501,F3,346.0,0.667,64,176.0
4502,B-4,346.0,1.5,90,176.0
4503,F3,346.0,0.667,64,176.0
4504,F3,346.0,0.667,64,176.0
4505,F4,346.0,0.667,64,176.0
4506,B-5,346.0,1.667,90,176.0
4507,B-4,346.0,1.667,90,176.0
4508,B6,346.0,0.667,64,176.0
4509,C3,346.0,0.667,64,176.0
4510,B-3,346.5,1.5,90,176.0
4511,G4,346.667,0.333,64,176.0
4512,G3,346.667,0.333,64,176.0
4513,F#4,346.667,1.333,90,176.0
4514,G3,346.667,0.333,64,176.0
4515,G3,346.667,0.333,64,176.0
4516,G4,346.667,0.333,64,176.0
4517,B6,346.667,0.333,64,176.0
4518,B2,346.667,0.333,64,176.0
4519,B-4,347.0,0.667,90,176.0
4520,B-4,347.0,1.0,64,176.0
4521,B-5,347.0,1.0,90,176.0
4522,B-3,347.0,0.667,90,176.0
4523,B-3,347.0,0.667,64,176.0
4524,B-3,347.0,0.667,90,176.0
4525,A3,347.0,1.0,64,176.0
4526,C2,347.0,1.0,90,176.0
4527,B-4,347.0,0.667,90,176.0
4528,B6,347.0,0.667,77,176.0
4529,D3,347.0,0.667,77,176.0
4530,F2,347.0,1.0,64,176.0
4531,G2,347.0,1.0,64,176.0
4532,A2,347.0,1.0,64,176.0
4533,B2,347.0,1.0,64,176.0
4534,B-4,347.5,1.5,90,176.0
4535,C5,347.667,0.333,64,176.0
4536,C4,347.667,0.333,64,176.0
4537,C4,347.667,0.333,64,176.0
4538,C4,347.667,0.333,64,176.0
4539,C5,347.667,0.333,64,176.0
4540,B-4,347.667,1.333,90,176.0
4541,B-5,347.667,1.333,90,176.0
4542,B6,347.667,0.333,64,176.0
4543,C3,347.667,0.333,64,176.0
4544,C#5,348.0,0.667,64,176.0
4545,B-4,348.0,0.5,64,176.0
4546,B-5,348.0,0.5,90,176.0
4547,C#4,348.0,0.667,64,176.0
4548,B-3,348.0,1.0,90,176.0
4549,C4,348.0,1.0,90,176.0
4550,C#4,348.0,0.667,64,176.0
4551,C#4,348.0,0.667,64,176.0
4552,A3,348.0,0.667,64,176.0
4553,C2,348.0,0.667,90,176.0
4554,C#5,348.0,0.667,64,176.0
4555,B6,348.0,0.667,64,176.0
4556,B2,348.0,0.667,64,176.0
4557,B-4,348.5,1.167,64,176.0
4558,B-5,348.5,1.5,90,176.0
4559,D5,348.667,0.333,90,176.0
4560,D4,348.667,0.333,90,176.0
4561,D4,348.667,0.333,64,176.0
4562,D4,348.667,0.333,90,176.0
4563,A3,348.667,1.333,64,176.0
4564,F#2,348.667,1.333,90,176.0
4565,D5,348.667,0.333,90,176.0
4566,B6,348.667,0.333,77,176.0
4567,D3,348.667,0.333,77,176.0
4568,F2,348.667,1.0,64,176.0
4569,G2,348.667,1.0,64,176.0
4570,A2,348.667,1.0,64,176.0
4571,B2,348.667,1.0,64,176.0
4572,B-4,349.0,1.0,64,176.0
4573,B-3,349.0,0.667,64,176.0
4574,B-3,349.0,0.5,90,176.0
4575,C4,349.0,0.667,90,176.0
4576,B-4,349.0,1.0,90,176.0
4577,B-3,349.0,0.667,64,176.0
4578,B-3,349.0,0.667,64,176.0
4579,B-4,349.0,0.667,64,176.0
4580,B-5,349.0,1.0,90,176.0
4581,B-4,349.0,1.0,90,176.0
4582,B6,349.0,0.667,64,176.0
4583,C3,349.0,0.667,64,176.0
4584,B-3,349.5,1.5,90,176.0
4585,F4,349.667,0.333,64,176.0
4586,F3,349.667,0.333,64,176.0
4587,F#4,349.667,1.333,90,176.0
4588,F3,349.667,0.333,64,176.0
4589,F3,349.667,0.333,64,176.0
4590,F4,349.667,0.333,64,176.0
4591,B6,349.667,0.333,64,176.0
4592,B2,349.667,0.333,64,176.0
4593,B-5,350.0,1.0,64,176.0
4594,E-3,350.0,1.0,64,176.0
4595,E-3,350.0,1.0,64,176.0
4596,E-3,350.0,1.0,64,176.0
4597,F2,350.0,1.0,64,176.0
4598,E-4,350.0,1.0,64,176.0
4599,E-4,350.0,1.0,64,176.0
4600,B-4,350.0,1.0,64,176.0
4601,B6,350.0,1.0,67,176.0
4602,A2,350.0,1.0,67,176.0
4603,B2,350.0,1.0,67,176.0
4604,F2,350.0,1.0,67,176.0
4605,G2,350.0,1.0,67,176.0
4606,A2,350.0,1.0,67,176.0
4607,B2,350.0,1.0,67,176.0
4608,A3,350.0,1.0,67,176.0
4609,B-4,350.667,0.5,90,176.0
4610,B-5,350.667,0.667,90,176.0
4611,B-4,350.667,0.667,90,176.0
4612,D6,351.0,1.0,64,176.0
4613,D3,351.0,1.0,64,176.0
4614,D3,351.0,1.0,64,176.0
4615,D3,351.0,1.0,64,176.0
4616,C2,351.0,1.0,64,176.0
4617,D4,351.0,1.0,64,176.0
4618,D4,351.0,1.0,64,176.0
4619,D5,351.0,1.0,64,176.0
4620,B-3,351.0,1.0,64,176.0
4621,F4,351.0,1.0,64,176.0
4622,B6,351.0,1.0,67,176.0
4623,A2,351.0,1.0,67,176.0
4624,B2,351.0,1.0,67,176.0
4625,F2,351.0,1.0,67,176.0
4626,G2,351.0,1.0,67,176.0
4627,A2,351.0,1.0,67,176.0
4628,B2,351.0,1.0,67,176.0
4629,A3,351.0,1.0,67,176.0
4630,B-4,351.167,1.5,90,176.0
4631,B-4,351.334,1.333,90,176.0
4632,B-5,351.334,1.333,90,176.0
4633,B6,352.0,0.75,64,176.0
4634,A3,352.0,1.0,64,176.0
4635,D4,352.0,1.0,64,176.0
4636,C4,352.0,1.0,64,176.0
4637,B-5,352.667,0.333,64,176.0
4638,F4,352.667,0.333,64,176.0
4639,D4,352.667,0.333,64,176.0
4640,B-4,352.667,0.333,64,176.0
4641,D5,352.667,0.333,64,176.0
4642,F4,352.667,0.333,64,176.0
4643,B-4,352.667,1.0,64,176.0
4644,B-5,352.667,1.0,64,176.0
4645,B-4,352.667,1.0,64,176.0
4646,F4,352.667,0.333,64,176.0
4647,B-4,352.667,0.333,64,176.0
4648,B6,352.75,0.25,64,176.0
4649,B6,353.0,0.75,90,176.0
4650,F3,353.667,0.333,64,176.0
4651,D5,353.667,1.0,64,176.0
4652,D6,353.667,1.0,64,176.0
4653,D5,353.667,1.0,64,176.0
4654,B6,353.75,0.25,64,176.0
4655,B-5,354.0,1.0,64,176.0
4656,F4,354.0,1.0,64,176.0
4657,D4,354.0,1.0,64,176.0
4658,B-4,354.0,1.0,64,176.0
4659,B6,354.0,0.75,64,176.0
4660,D5,354.0,1.0,64,176.0
4661,F4,354.0,1.0,64,176.0
4662,F4,354.0,1.0,64,176.0
4663,B-4,354.0,1.0,64,176.0
4664,B6,354.75,0.25,64,176.0
4665,B-5,355.0,1.0,64,176.0
4666,F4,355.0,1.0,64,176.0
4667,F3,355.0,1.0,64,176.0
4668,D4,355.0,1.0,64,176.0
4669,B-4,355.0,1.0,64,176.0
4670,B6,355.0,0.75,90,176.0
4671,D5,355.0,1.0,64,176.0
4672,F4,355.0,1.0,64,176.0
4673,F4,355.0,1.0,64,176.0
4674,B-4,355.0,1.0,64,176.0
4675,D5,355.334,0.333,64,176.0
4676,F4,355.334,0.333,64,176.0
4677,F2,355.667,0.333,64,176.0
4678,B6,355.75,0.25,64,176.0
4679,F3,356.0,1.0,64,176.0
4680,B6,356.0,0.75,64,176.0
4681,B-5,356.667,0.333,64,176.0
4682,F4,356.667,0.333,64,176.0
4683,D4,356.667,0.333,64,176.0
4684,B-4,356.667,0.333,64,176.0
4685,D5,356.667,0.333,64,176.0
4686,F4,356.667,0.333,64,176.0
4687,D5,356.667,1.0,64,176.0
4688,F4,356.667,1.0,64,176.0
4689,F4,356.667,0.333,64,176.0
4690,B-4,356.667,0.333,64,176.0
4691,B6,356.75,0.25,64,176.0
4692,B6,357.0,0.75,90,176.0
4693,B-5,357.667,0.333,64,176.0
4694,F4,357.667,0.333,64,176.0
4695,F3,357.667,0.333,64,176.0
4696,D4,357.667,0.333,64,176.0
4697,B-4,357.667,0.333,64,176.0
4698,D5,357.667,0.333,64,176.0
4699,F4,357.667,0.333,64,176.0
4700,D5,357.667,1.0,64,176.0
4701,F4,357.667,1.0,64,176.0
4702,F4,357.667,0.333,64,176.0
4703,B-4,357.667,0.333,64,176.0
4704,B6,357.75,0.25,64,176.0
4705,B-5,358.0,0.667,64,176.0
4706,F4,358.0,0.667,64,176.0
4707,D4,358.0,0.667,64,176.0
4708,B-4,358.0,0.667,64,176.0
4709,B6,358.0,0.667,64,176.0
4710,D5,358.0,0.667,64,176.0
4711,F4,358.0,0.667,64,176.0
4712,F4,358.0,0.667,64,176.0
4713,B-4,358.0,0.667,64,176.0
4714,B-5,358.667,0.333,64,176.0
4715,F4,358.667,0.333,64,176.0
4716,F3,358.667,0.333,64,176.0
4717,D4,358.667,0.333,64,176.0
4718,B-4,358.667,0.333,64,176.0
4719,D5,358.667,0.333,64,176.0
4720,F4,358.667,0.333,64,176.0
4721,B6,358.667,0.333,77,176.0
4722,D3,358.667,0.333,77,176.0
4723,F4,358.667,0.333,64,176.0
4724,B-4,358.667,0.333,64,176.0
4725,B-5,359.0,0.667,64,176.0
4726,F4,359.0,0.667,64,176.0
4727,F3,359.0,0.667,64,176.0
4728,D4,359.0,0.667,64,176.0
4729,B-4,359.0,0.667,64,176.0
4730,D5,359.0,0.667,64,176.0
4731,F4,359.0,0.667,64,176.0
4732,B6,359.0,0.667,77,176.0
4733,C3,359.0,0.667,77,176.0
4734,F4,359.0,0.667,64,176.0
4735,B-4,359.0,0.667,64,176.0
4736,D5,359.334,0.333,64,176.0
4737,F4,359.334,0.333,64,176.0
4738,B-5,359.667,0.333,64,176.0
4739,F4,359.667,0.333,64,176.0
4740,F3,359.667,0.333,64,176.0
4741,D4,359.667,0.333,64,176.0
4742,B-4,359.667,0.333,64,176.0
4743,D5,359.667,0.333,64,176.0
4744,F4,359.667,0.333,64,176.0
4745,B6,359.667,0.333,77,176.0
4746,B2,359.667,0.333,77,176.0
4747,F4,359.667,0.333,64,176.0
4748,B-4,359.667,0.333,64,176.0
4749,F3,360.0,0.667,64,176.0
4750,B6,360.0,0.75,64,176.0
4751,D5,360.334,0.333,64,176.0
4752,F4,360.334,0.333,64,176.0
4753,B-5,360.667,0.333,64,176.0
4754,F4,360.667,0.333,64,176.0
4755,F3,360.667,0.333,64,176.0
4756,D4,360.667,0.333,64,176.0
4757,B-4,360.667,0.333,64,176.0
4758,D5,360.667,0.333,64,176.0
4759,F4,360.667,0.333,64,176.0
4760,D5,360.667,0.667,64,176.0
4761,F4,360.667,0.667,64,176.0
4762,F4,360.667,0.333,64,176.0
4763,B-4,360.667,0.333,64,176.0
4764,B6,360.75,0.25,64,176.0
4765,B6,361.0,0.75,90,176.0
4766,D5,361.334,0.333,64,176.0
4767,F4,361.334,0.333,64,176.0
4768,F3,361.667,0.333,64,176.0
4769,D5,361.667,0.667,64,176.0
4770,F4,361.667,0.667,64,176.0
4771,B6,361.75,0.25,64,176.0
4772,B-5,362.0,1.0,64,176.0
4773,F4,362.0,1.0,64,176.0
4774,D4,362.0,1.0,64,176.0
4775,B-4,362.0,1.0,64,176.0
4776,B6,362.0,0.75,64,176.0
4777,D5,362.0,1.0,64,176.0
4778,F4,362.0,1.0,64,176.0
4779,F4,362.0,1.0,64,176.0
4780,B-4,362.0,1.0,64,176.0
4781,D5,362.334,0.333,64,176.0
4782,F4,362.334,0.333,64,176.0
4783,B6,362.75,0.25,64,176.0
4784,B-5,363.0,1.0,64,176.0
4785,F4,363.0,1.0,64,176.0
4786,F3,363.0,1.0,64,176.0
4787,D4,363.0,1.0,64,176.0
4788,B-4,363.0,1.0,64,176.0
4789,B6,363.0,0.75,90,176.0
4790,D5,363.0,1.0,64,176.0
4791,F4,363.0,1.0,64,176.0
4792,F4,363.0,1.0,64,176.0
4793,B-4,363.0,1.0,64,176.0
4794,D5,363.334,0.333,64,176.0
4795,F4,363.334,0.333,64,176.0
4796,F2,363.667,0.333,64,176.0
4797,B6,363.75,0.25,64,176.0
4798,F3,364.0,1.0,64,176.0
4799,B6,364.0,0.75,64,176.0
4800,B-5,364.667,0.333,64,176.0
4801,F4,364.667,0.333,64,176.0
4802,D4,364.667,0.333,64,176.0
4803,B-4,364.667,0.333,64,176.0
4804,D5,364.667,0.333,64,176.0
4805,F4,364.667,0.333,64,176.0
4806,D5,364.667,1.0,64,176.0
4807,F4,364.667,1.0,64,176.0
4808,F4,364.667,0.333,64,176.0
4809,B-4,364.667,0.333,64,176.0
4810,B6,364.75,0.25,64,176.0
4811,B6,365.0,0.75,90,176.0
4812,B-5,365.667,0.333,64,176.0
4813,F4,365.667,0.333,64,176.0
4814,F3,365.667,0.333,64,176.0
4815,D4,365.667,0.333,64,176.0
4816,B-4,365.667,0.333,64,176.0
4817,D5,365.667,0.333,64,176.0
4818,F4,365.667,0.333,64,176.0
4819,D5,365.667,1.0,64,176.0
4820,F4,365.667,1.0,64,176.0
4821,F4,365.667,0.333,64,176.0
4822,B-4,365.667,0.333,64,176.0
4823,B6,365.75,0.25,64,176.0
4824,B-5,366.0,0.667,64,176.0
4825,F4,366.0,0.667,64,176.0
4826,D4,366.0,0.667,64,176.0
4827,B-4,366.0,0.667,64,176.0
4828,B6,366.0,0.667,64,176.0
4829,D5,366.0,0.667,64,176.0
4830,F4,366.0,0.667,64,176.0
4831,F4,366.0,0.667,64,176.0
4832,B-4,366.0,0.667,64,176.0
4833,B-5,366.667,0.333,64,176.0
4834,F4,366.667,0.333,64,176.0
4835,F3,366.667,0.333,64,176.0
4836,D4,366.667,0.333,64,176.0
4837,B-4,366.667,0.333,64,176.0
4838,D5,366.667,0.333,64,176.0
4839,F4,366.667,0.333,64,176.0
4840,B6,366.667,0.333,77,176.0
4841,D3,366.667,0.333,77,176.0
4842,F4,366.667,0.333,64,176.0
4843,B-4,366.667,0.333,64,176.0
4844,B-5,367.0,0.667,64,176.0
4845,F4,367.0,0.667,64,176.0
4846,F3,367.0,0.667,64,176.0
4847,D4,367.0,0.667,64,176.0
4848,B-4,367.0,0.667,64,176.0
4849,D5,367.0,0.667,64,176.0
4850,F4,367.0,0.667,64,176.0
4851,B6,367.0,0.667,77,176.0
4852,C3,367.0,0.667,77,176.0
4853,F4,367.0,0.667,64,176.0
4854,B-4,367.0,0.667,64,176.0
4855,D5,367.334,0.333,64,176.0
4856,F4,367.334,0.333,64,176.0
4857,B-5,367.667,0.333,64,176.0
4858,F4,367.667,0.333,64,176.0
4859,F3,367.667,0.333,64,176.0
4860,D4,367.667,0.333,64,176.0
4861,B-4,367.667,0.333,64,176.0
4862,D5,367.667,0.333,64,176.0
4863,F4,367.667,0.333,64,176.0
4864,B6,367.667,0.333,77,176.0
4865,B2,367.667,0.333,77,176.0
4866,F4,367.667,0.333,64,176.0
4867,B-4,367.667,0.333,64,176.0
4868,F3,368.0,0.667,64,176.0
4869,B6,368.0,0.75,64,176.0
4870,D5,368.334,0.333,64,176.0
4871,F4,368.334,0.333,64,176.0
4872,B-5,368.667,0.333,64,176.0
4873,G4,368.667,0.333,64,176.0
4874,F3,368.667,0.333,64,176.0
4875,C#4,368.667,0.333,64,176.0
4876,B-4,368.667,0.333,64,176.0
4877,C#5,368.667,0.333,64,176.0
4878,G4,368.667,0.333,64,176.0
4879,D5,368.667,0.667,64,176.0
4880,F4,368.667,0.667,64,176.0
4881,G4,368.667,0.333,64,176.0
4882,B-4,368.667,0.333,64,176.0
4883,B6,368.75,0.25,64,176.0
4884,B6,369.0,0.75,90,176.0
4885,D5,369.334,0.333,64,176.0
4886,F4,369.334,0.333,64,176.0
4887,G3,369.667,0.333,64,176.0
4888,D5,369.667,0.667,64,176.0
4889,F4,369.667,0.667,64,176.0
4890,B6,369.75,0.25,64,176.0
4891,B-5,370.0,1.0,64,176.0
4892,G4,370.0,1.0,64,176.0
4893,C#4,370.0,1.0,64,176.0
4894,B-4,370.0,1.0,64,176.0
4895,B6,370.0,0.75,64,176.0
4896,C#5,370.0,1.0,64,176.0
4897,G4,370.0,1.0,64,176.0
4898,G4,370.0,1.0,64,176.0
4899,B-4,370.0,1.0,64,176.0
4900,D5,370.334,0.333,64,176.0
4901,F4,370.334,0.333,64,176.0
4902,B6,370.75,0.25,64,176.0
4903,B-5,371.0,1.0,64,176.0
4904,G4,371.0,1.0,64,176.0
4905,G3,371.0,1.0,64,176.0
4906,C#4,371.0,1.0,64,176.0
4907,B-4,371.0,1.0,64,176.0
4908,B6,371.0,0.75,90,176.0
4909,C#5,371.0,1.0,64,176.0
4910,G4,371.0,1.0,64,176.0
4911,G4,371.0,1.0,64,176.0
4912,B-4,371.0,1.0,64,176.0
4913,C#5,371.334,0.333,64,176.0
4914,G4,371.334,0.333,64,176.0
4915,F2,371.667,0.333,64,176.0
4916,B6,371.75,0.25,64,176.0
4917,G3,372.0,1.0,64,176.0
4918,B6,372.0,0.75,64,176.0
4919,B-5,372.667,0.333,64,176.0
4920,G4,372.667,0.333,64,176.0
4921,C#4,372.667,0.333,64,176.0
4922,B-4,372.667,0.333,64,176.0
4923,C#5,372.667,0.333,64,176.0
4924,G4,372.667,0.333,64,176.0
4925,C#5,372.667,1.0,64,176.0
4926,G4,372.667,1.0,64,176.0
4927,G4,372.667,0.333,64,176.0
4928,B-4,372.667,0.333,64,176.0
4929,B6,372.75,0.25,64,176.0
4930,B6,373.0,0.75,90,176.0
4931,B-5,373.667,0.333,64,176.0
4932,G4,373.667,0.333,64,176.0
4933,G3,373.667,0.333,64,176.0
4934,C#4,373.667,0.333,64,176.0
4935,B-4,373.667,0.333,64,176.0
4936,C#5,373.667,0.333,64,176.0
4937,G4,373.667,0.333,64,176.0
4938,C#5,373.667,1.0,64,176.0
4939,G4,373.667,1.0,64,176.0
4940,G4,373.667,0.333,64,176.0
4941,B-4,373.667,0.333,64,176.0
4942,B6,373.75,0.25,64,176.0
4943,B-5,374.0,0.667,64,176.0
4944,G4,374.0,0.667,64,176.0
4945,C#4,374.0,0.667,64,176.0
4946,B-4,374.0,0.667,64,176.0
4947,B6,374.0,0.667,64,176.0
4948,C#5,374.0,0.667,64,176.0
4949,G4,374.0,0.667,64,176.0
4950,G4,374.0,0.667,64,176.0
4951,B-4,374.0,0.667,64,176.0
4952,B-5,374.667,0.333,64,176.0
4953,G4,374.667,0.333,64,176.0
4954,G3,374.667,0.333,64,176.0
4955,C#4,374.667,0.333,64,176.0
4956,B-4,374.667,0.333,64,176.0
4957,C#5,374.667,0.333,64,176.0
4958,G4,374.667,0.333,64,176.0
4959,B6,374.667,0.333,77,176.0
4960,D3,374.667,0.333,77,176.0
4961,G4,374.667,0.333,64,176.0
4962,B-4,374.667,0.333,64,176.0
4963,B-5,375.0,0.667,64,176.0
4964,G4,375.0,0.667,64,176.0
4965,G3,375.0,0.667,64,176.0
4966,C#4,375.0,0.667,64,176.0
4967,B-4,375.0,0.667,64,176.0
4968,C#5,375.0,0.667,64,176.0
4969,G4,375.0,0.667,64,176.0
4970,B6,375.0,0.667,77,176.0
4971,C3,375.0,0.667,77,176.0
4972,G4,375.0,0.667,64,176.0
4973,B-4,375.0,0.667,64,176.0
4974,C#5,375.334,0.333,64,176.0
4975,G4,375.334,0.333,64,176.0
4976,B-5,375.667,0.333,64,176.0
4977,G4,375.667,0.333,64,176.0
4978,G3,375.667,0.333,64,176.0
4979,C#4,375.667,0.333,64,176.0
4980,B-4,375.667,0.333,64,176.0
4981,C#5,375.667,0.333,64,176.0
4982,G4,375.667,0.333,64,176.0
4983,B6,375.667,0.333,77,176.0
4984,B2,375.667,0.333,77,176.0
4985,G4,375.667,0.333,64,176.0
4986,B-4,375.667,0.333,64,176.0
4987,G3,376.0,0.667,64,176.0
4988,B6,376.0,0.75,64,176.0
4989,C#5,376.334,0.333,64,176.0
4990,G4,376.334,0.333,64,176.0
4991,B-5,376.667,0.333,64,176.0
4992,F4,376.667,0.333,64,176.0
4993,G3,376.667,0.333,64,176.0
4994,D4,376.667,0.333,64,176.0
4995,B-4,376.667,0.333,64,176.0
4996,D5,376.667,0.333,64,176.0
4997,F4,376.667,0.333,64,176.0
4998,C#5,376.667,0.667,64,176.0
4999,G4,376.667,0.667,64,176.0
5000,F4,376.667,0.333,64,176.0
5001,B-4,376.667,0.333,64,176.0
5002,B6,376.75,0.25,64,176.0
5003,B6,377.0,0.75,90,176.0
5004,C#5,377.334,0.333,64,176.0
5005,G4,377.334,0.333,64,176.0
5006,F3,377.667,0.333,64,176.0
5007,C#5,377.667,0.667,64,176.0
5008,G4,377.667,0.667,64,176.0
5009,B6,377.75,0.25,64,176.0
5010,B-5,378.0,1.0,64,176.0
5011,F4,378.0,1.0,64,176.0
5012,D4,378.0,1.0,64,176.0
5013,B-4,378.0,1.0,64,176.0
5014,B6,378.0,0.75,64,176.0
5015,D5,378.0,1.0,64,176.0
5016,F4,378.0,1.0,64,176.0
5017,F4,378.0,1.0,64,176.0
5018,B-4,378.0,1.0,64,176.0
5019,C#5,378.334,0.333,64,176.0
5020,G4,378.334,0.333,64,176.0
5021,B6,378.75,0.25,64,176.0
5022,B-5,379.0,1.0,64,176.0
5023,F4,379.0,1.0,64,176.0
5024,F3,379.0,1.0,64,176.0
5025,D4,379.0,1.0,64,176.0
5026,B-4,379.0,1.0,64,176.0
5027,B6,379.0,0.75,90,176.0
5028,D5,379.0,1.0,64,176.0
5029,F4,379.0,1.0,64,176.0
5030,F4,379.0,1.0,64,176.0
5031,B-4,379.0,1.0,64,176.0
5032,D5,379.334,0.333,64,176.0
5033,F4,379.334,0.333,64,176.0
5034,F2,379.667,0.333,64,176.0
5035,B6,379.75,0.25,64,176.0
5036,F3,380.0,1.0,64,176.0
5037,B6,380.0,0.75,64,176.0
5038,B-5,380.667,0.333,64,176.0
5039,F4,380.667,0.333,64,176.0
5040,D4,380.667,0.333,64,176.0
5041,B-4,380.667,0.333,64,176.0
5042,D5,380.667,0.333,64,176.0
5043,F4,380.667,0.333,64,176.0
5044,D5,380.667,1.0,64,176.0
5045,F4,380.667,1.0,64,176.0
5046,F4,380.667,0.333,64,176.0
5047,B-4,380.667,0.333,64,176.0
5048,B6,380.75,0.25,64,176.0
5049,B6,381.0,0.75,90,176.0
5050,B-5,381.667,0.333,64,176.0
5051,F4,381.667,0.333,64,176.0
5052,F3,381.667,0.333,64,176.0
5053,D4,381.667,0.333,64,176.0
5054,B-4,381.667,0.333,64,176.0
5055,D5,381.667,0.333,64,176.0
5056,F4,381.667,0.333,64,176.0
5057,D5,381.667,1.0,64,176.0
5058,F4,381.667,1.0,64,176.0
5059,F4,381.667,0.333,64,176.0
5060,B-4,381.667,0.333,64,176.0
5061,B6,381.75,0.25,64,176.0
5062,B-5,382.0,0.667,64,176.0
5063,F4,382.0,0.667,64,176.0
5064,D4,382.0,0.667,64,176.0
5065,B-4,382.0,0.667,64,176.0
5066,B6,382.0,0.667,64,176.0
5067,D5,382.0,0.667,64,176.0
5068,F4,382.0,0.667,64,176.0
5069,F4,382.0,0.667,64,176.0
5070,B-4,382.0,0.667,64,176.0
5071,B-5,382.667,0.333,64,176.0
5072,F4,382.667,0.333,64,176.0
5073,F3,382.667,0.333,64,176.0
5074,D4,382.667,0.333,64,176.0
5075,B-4,382.667,0.333,64,176.0
5076,D5,382.667,0.333,64,176.0
5077,F4,382.667,0.333,64,176.0
5078,B6,382.667,0.333,77,176.0
5079,D3,382.667,0.333,77,176.0
5080,F4,382.667,0.333,64,176.0
5081,B-4,382.667,0.333,64,176.0
5082,B-5,383.0,0.667,64,176.0
5083,F4,383.0,0.667,64,176.0
5084,F3,383.0,0.667,64,176.0
5085,D4,383.0,0.667,64,176.0
5086,B-4,383.0,0.667,64,176.0
5087,D5,383.0,0.667,64,176.0
5088,F4,383.0,0.667,64,176.0
5089,B6,383.0,0.667,77,176.0
5090,C3,383.0,0.667,77,176.0
5091,F4,383.0,0.667,64,176.0
5092,B-4,383.0,0.667,64,176.0
5093,D5,383.334,0.333,64,176.0
5094,F4,383.334,0.333,64,176.0
5095,B-5,383.667,0.333,64,176.0
5096,F4,383.667,0.333,64,176.0
5097,F3,383.667,0.333,64,176.0
5098,D4,383.667,0.333,64,176.0
5099,B-4,383.667,0.333,64,176.0
5100,D5,383.667,0.333,64,176.0
5101,F4,383.667,0.333,64,176.0
5102,B6,383.667,0.333,77,176.0
5103,B2,383.667,0.333,77,176.0
5104,F4,383.667,0.333,64,176.0
5105,B-4,383.667,0.333,64,176.0
5106,F3,384.0,0.667,64,176.0
5107,B6,384.0,0.75,64,176.0
5108,D5,384.334,0.333,64,176.0
5109,F4,384.334,0.333,64,176.0
5110,C6,384.667,0.333,64,176.0
5111,A4,384.667,0.333,64,176.0
5112,F3,384.667,0.333,64,176.0
5113,E-4,384.667,0.333,64,176.0
5114,C5,384.667,0.333,64,176.0
5115,E-5,384.667,0.333,64,176.0
5116,A4,384.667,0.333,64,176.0
5117,D5,384.667,0.667,64,176.0
5118,F4,384.667,0.667,64,176.0
5119,A4,384.667,0.333,64,176.0
5120,C5,384.667,0.333,64,176.0
5121,B6,384.75,0.25,64,176.0
5122,B6,385.0,0.75,90,176.0
5123,D5,385.334,0.333,64,176.0
5124,F4,385.334,0.333,64,176.0
5125,A3,385.667,0.333,64,176.0
5126,D5,385.667,0.667,64,176.0
5127,F4,385.667,0.667,64,176.0
5128,B6,385.75,0.25,64,176.0
5129,C6,386.0,1.0,64,176.0
5130,A4,386.0,1.0,64,176.0
5131,E-4,386.0,1.0,64,176.0
5132,C5,386.0,1.0,64,176.0
5133,B6,386.0,0.75,64,176.0
5134,E-5,386.0,1.0,64,176.0
5135,A4,386.0,1.0,64,176.0
5136,A4,386.0,1.0,64,176.0
5137,C5,386.0,1.0,64,176.0
5138,D5,386.334,0.333,64,176.0
5139,F4,386.334,0.333,64,176.0
5140,B6,386.75,0.25,64,176.0
5141,C6,387.0,1.0,64,176.0
5142,A4,387.0,1.0,64,176.0
5143,A3,387.0,1.0,64,176.0
5144,E-4,387.0,1.0,64,176.0
5145,C5,387.0,1.0,64,176.0
5146,B6,387.0,0.75,90,176.0
5147,E-5,387.0,1.0,64,176.0
5148,A4,387.0,1.0,64,176.0
5149,A4,387.0,1.0,64,176.0
5150,C5,387.0,1.0,64,176.0
5151,E-5,387.334,0.333,64,176.0
5152,A4,387.334,0.333,64,176.0
5153,F2,387.667,0.333,64,176.0
5154,B6,387.75,0.25,64,176.0
5155,A3,388.0,1.0,64,176.0
5156,B6,388.0,0.75,64,176.0
5157,B-5,388.667,0.333,64,176.0
5158,G4,388.667,0.333,64,176.0
5159,C#4,388.667,0.333,64,176.0
5160,B-4,388.667,0.333,64,176.0
5161,C#5,388.667,0.333,64,176.0
5162,G4,388.667,0.333,64,176.0
5163,E-5,388.667,1.0,64,176.0
5164,A4,388.667,1.0,64,176.0
5165,G4,388.667,0.333,64,176.0
5166,B-4,388.667,0.333,64,176.0
5167,B6,388.75,0.25,64,176.0
5168,B6,389.0,0.75,90,176.0
5169,B-5,389.667,0.333,64,176.0
5170,G4,389.667,0.333,64,176.0
5171,G3,389.667,0.333,64,176.0
5172,C#4,389.667,0.333,64,176.0
5173,B-4,389.667,0.333,64,176.0
5174,C#5,389.667,0.333,64,176.0
5175,G4,389.667,0.333,64,176.0
5176,E-5,389.667,1.0,64,176.0
5177,A4,389.667,1.0,64,176.0
5178,G4,389.667,0.333,64,176.0
5179,B-4,389.667,0.333,64,176.0
5180,B6,389.75,0.25,64,176.0
5181,B-5,390.0,1.0,64,176.0
5182,G4,390.0,1.0,64,176.0
5183,C#4,390.0,1.0,64,176.0
5184,B-4,390.0,1.0,64,176.0
5185,B6,390.0,0.667,64,176.0
5186,C#5,390.0,1.0,64,176.0
5187,G4,390.0,1.0,64,176.0
5188,G4,390.0,1.0,64,176.0
5189,B-4,390.0,1.0,64,176.0
5190,G3,390.667,0.333,64,176.0
5191,B6,390.667,0.333,77,176.0
5192,D3,390.667,0.333,77,176.0
5193,B-5,391.0,0.667,64,176.0
5194,G4,391.0,0.667,64,176.0
5195,G3,391.0,1.0,64,176.0
5196,C#4,391.0,0.667,64,176.0
5197,B-4,391.0,0.667,64,176.0
5198,C#5,391.0,0.667,64,176.0
5199,G4,391.0,0.667,64,176.0
5200,B6,391.0,0.667,77,176.0
5201,C3,391.0,0.667,77,176.0
5202,G4,391.0,0.667,64,176.0
5203,B-4,391.0,0.667,64,176.0
5204,C#5,391.334,0.333,64,176.0
5205,G4,391.334,0.333,64,176.0
5206,B-5,391.667,0.333,64,176.0
5207,B-3,391.667,0.333,64,176.0
5208,D4,391.667,0.333,64,176.0
5209,B-4,391.667,0.333,64,176.0
5210,B-4,391.667,0.333,64,176.0
5211,D5,391.667,0.333,64,176.0
5212,F4,391.667,0.333,64,176.0
5213,B6,391.667,0.333,77,176.0
5214,B2,391.667,0.333,77,176.0
5215,B-5,392.0,1.0,64,176.0
5216,B-3,392.0,1.0,64,176.0
5217,G3,392.0,0.667,64,176.0
5218,D4,392.0,1.0,64,176.0
5219,B-4,392.0,1.0,64,176.0
5220,C#2,392.0,0.75,64,176.0
5221,B-2,392.0,1.0,64,176.0
5222,F4,392.0,1.0,64,176.0
5223,B-4,392.0,1.0,64,176.0
5224,D5,392.0,1.0,64,176.0
5225,F4,392.0,1.0,64,176.0
5226,F2,392.0,1.0,64,176.0
5227,G2,392.0,1.0,64,176.0
5228,A2,392.0,1.0,64,176.0
5229,B2,392.0,1.0,64,176.0
5230,C#5,392.334,0.333,64,176.0
5231,G4,392.334,0.333,64,176.0
5232,F3,392.667,0.333,64,176.0
5233,C#5,392.667,1.0,64,176.0
5234,G4,392.667,1.0,64,176.0
5235,C#2,392.75,0.25,64,176.0
5236,B-4,393.0,1.0,64,176.0
5237,F3,393.0,1.0,64,176.0
5238,C#2,393.0,0.75,64,176.0
5239,A2,393.0,1.0,64,176.0
5240,C#5,393.667,0.667,64,176.0
5241,G4,393.667,0.667,64,176.0
5242,C#2,393.75,0.25,64,176.0
5243,A4,394.0,1.0,64,176.0
5244,C#2,394.0,0.75,64,176.0
5245,G2,394.0,1.0,64,176.0
5246,D5,394.334,0.333,64,176.0
5247,F4,394.334,0.333,64,176.0
5248,D5,394.667,1.0,64,176.0
5249,F4,394.667,1.0,64,176.0
5250,C#2,394.75,0.25,64,176.0
5251,G4,395.0,1.0,64,176.0
5252,C#2,395.0,0.75,64,176.0
5253,D2,395.0,1.0,64,176.0
5254,C#2,395.75,0.25,64,176.0
5255,D4,396.0,1.0,64,176.0
5256,C#2,396.0,0.75,64,176.0
5257,C2,396.0,1.0,64,176.0
5258,C#2,396.75,0.25,64,176.0
5259,C4,397.0,1.0,64,176.0
5260,C#2,397.0,0.75,64,176.0
5261,E-2,397.0,1.0,64,176.0
5262,C#2,397.75,0.25,64,176.0
5263,E-4,398.0,1.0,64,176.0
5264,F2,398.0,1.0,64,176.0
5265,B6,398.0,0.333,64,176.0
5266,C3,398.0,0.333,64,176.0
5267,B6,398.333,0.334,64,176.0
5268,C3,398.333,0.334,64,176.0
5269,B6,398.667,0.333,64,176.0
5270,C3,398.667,0.333,64,176.0
5271,F4,399.0,1.0,64,176.0
5272,A2,399.0,1.0,64,176.0
5273,B6,399.0,0.333,64,176.0
5274,C3,399.0,0.333,64,176.0
5275,B6,399.333,0.334,64,176.0
5276,C3,399.333,0.334,64,176.0
5277,B6,399.667,0.333,64,176.0
5278,C3,399.667,0.333,64,176.0
5279,A4,400.0,1.0,64,176.0
5280,B-1,400.0,1.0,64,176.0
5281,E-3,400.0,1.0,64,176.0
5282,F2,400.0,1.0,64,176.0
5283,B-5,400.667,0.333,64,176.0
5284,B-4,400.667,0.333,64,176.0
5285,B-4,400.667,0.333,64,176.0
5286,D5,400.667,0.333,64,176.0
5287,F4,400.667,0.333,64,176.0
5288,B-3,401.0,1.0,64,176.0
5289,G2,401.0,1.0,64,176.0
5290,D2,401.0,1.0,64,176.0
5291,B6,401.0,0.75,64,176.0
5292,E-3,401.0,0.75,64,176.0
5293,G4,401.667,0.333,64,176.0
5294,G4,401.667,0.333,64,176.0
5295,E-3,401.75,0.25,64,176.0
5296,B-5,402.0,1.0,64,176.0
5297,B-4,402.0,1.0,64,176.0
5298,D4,402.0,1.0,64,176.0
5299,B-4,402.0,1.0,64,176.0
5300,F2,402.0,1.0,64,176.0
5301,D5,402.0,1.0,64,176.0
5302,F4,402.0,1.0,64,176.0
5303,E-3,402.0,1.0,64,176.0
5304,A2,402.0,1.0,64,176.0
5305,B-5,403.0,1.0,64,176.0
5306,G4,403.0,1.0,64,176.0
5307,F4,403.0,1.0,64,176.0
5308,G4,403.0,1.0,64,176.0
5309,G2,403.0,1.0,64,176.0
5310,D5,403.0,1.0,64,176.0
5311,F4,403.0,1.0,64,176.0
5312,B6,403.0,0.75,64,176.0
5313,E-3,403.0,0.75,64,176.0
5314,B2,403.0,1.0,64,176.0
5315,A3,403.0,1.0,64,176.0
5316,F4,403.334,0.333,64,176.0
5317,D5,403.334,0.333,64,176.0
5318,E-3,403.75,0.25,64,176.0
5319,G4,404.0,1.0,64,176.0
5320,G#2,404.0,1.0,64,176.0
5321,E-3,404.0,1.0,64,176.0
5322,B2,404.0,1.0,64,176.0
5323,B-5,404.667,0.333,64,176.0
5324,B-4,404.667,0.333,64,176.0
5325,B-4,404.667,0.333,64,176.0
5326,D5,404.667,0.333,64,176.0
5327,F4,404.667,0.333,64,176.0
5328,F4,404.667,1.0,64,176.0
5329,D5,404.667,1.0,64,176.0
5330,G#4,405.0,1.0,64,176.0
5331,A2,405.0,1.0,64,176.0
5332,G2,405.0,1.0,64,176.0
5333,B6,405.0,0.75,64,176.0
5334,E-3,405.0,0.75,64,176.0
5335,B-5,405.667,0.333,64,176.0
5336,G4,405.667,0.333,64,176.0
5337,G4,405.667,0.333,64,176.0
5338,D5,405.667,0.333,64,176.0
5339,F4,405.667,0.333,64,176.0
5340,F4,405.667,1.0,64,176.0
5341,D5,405.667,1.0,64,176.0
5342,E-3,405.75,0.25,64,176.0
5343,B-5,406.0,0.667,64,176.0
5344,B-4,406.0,1.0,64,176.0
5345,G4,406.0,1.0,64,176.0
5346,B-4,406.0,1.0,64,176.0
5347,F2,406.0,1.0,64,176.0
5348,D5,406.0,0.667,64,176.0
5349,F4,406.0,0.667,64,176.0
5350,E-3,406.0,1.0,64,176.0
5351,G2,406.0,1.0,64,176.0
5352,B-5,406.667,0.333,64,176.0
5353,F4,406.667,0.333,64,176.0
5354,F4,406.667,0.333,64,176.0
5355,D5,406.667,0.333,64,176.0
5356,F4,406.667,0.333,64,176.0
5357,B-5,407.0,0.667,64,176.0
5358,G4,407.0,1.0,64,176.0
5359,F4,407.0,1.0,64,176.0
5360,G4,407.0,0.667,64,176.0
5361,G4,407.0,1.0,64,176.0
5362,D2,407.0,1.0,64,176.0
5363,G4,407.0,0.667,64,176.0
5364,D5,407.0,0.667,64,176.0
5365,F4,407.0,0.667,64,176.0
5366,B6,407.0,0.75,64,176.0
5367,E-3,407.0,0.75,64,176.0
5368,F2,407.0,1.0,64,176.0
5369,A3,407.0,1.0,64,176.0
5370,F4,407.334,0.333,64,176.0
5371,D5,407.334,0.333,64,176.0
5372,B-5,407.667,0.333,64,176.0
5373,F3,407.667,0.333,64,176.0
5374,B-4,407.667,0.333,64,176.0
5375,B-4,407.667,0.333,64,176.0
5376,D5,407.667,0.333,64,176.0
5377,F4,407.667,0.333,64,176.0
5378,E-3,407.75,0.25,64,176.0
5379,G3,408.0,0.667,64,176.0
5380,D4,408.0,1.0,64,176.0
5381,B-1,408.0,1.0,64,176.0
5382,E-3,408.0,1.0,64,176.0
5383,F2,408.0,1.0,64,176.0
5384,F4,408.334,0.333,64,176.0
5385,D5,408.334,0.333,64,176.0
5386,B-5,408.667,0.333,64,176.0
5387,B-4,408.667,0.333,64,176.0
5388,B-3,408.667,0.333,64,176.0
5389,B-4,408.667,0.333,64,176.0
5390,D5,408.667,0.333,64,176.0
5391,F4,408.667,0.333,64,176.0
5392,F4,408.667,0.667,64,176.0
5393,D5,408.667,0.667,64,176.0
5394,B-3,409.0,1.0,64,176.0
5395,G2,409.0,1.0,64,176.0
5396,D2,409.0,1.0,64,176.0
5397,B6,409.0,0.75,64,176.0
5398,E-3,409.0,0.75,64,176.0
5399,F5,409.334,0.333,64,176.0
5400,F4,409.334,0.333,64,176.0
5401,D5,409.334,0.333,64,176.0
5402,G4,409.667,0.333,64,176.0
5403,G4,409.667,0.333,64,176.0
5404,G5,409.667,0.667,64,176.0
5405,F4,409.667,0.667,64,176.0
5406,D5,409.667,0.667,64,176.0
5407,E-3,409.75,0.25,64,176.0
5408,B-5,410.0,1.0,64,176.0
5409,B-4,410.0,1.0,64,176.0
5410,D4,410.0,1.0,64,176.0
5411,B-4,410.0,1.0,64,176.0
5412,F2,410.0,1.0,64,176.0
5413,D5,410.0,1.0,64,176.0
5414,F4,410.0,1.0,64,176.0
5415,E-3,410.0,1.0,64,176.0
5416,A2,410.0,1.0,64,176.0
5417,B-5,410.334,0.333,64,176.0
5418,F4,410.334,0.333,64,176.0
5419,D5,410.334,0.333,64,176.0
5420,B-5,411.0,1.0,64,176.0
5421,G4,411.0,1.0,64,176.0
5422,F4,411.0,1.0,64,176.0
5423,G4,411.0,1.0,64,176.0
5424,G2,411.0,1.0,64,176.0
5425,D5,411.0,1.0,64,176.0
5426,F4,411.0,1.0,64,176.0
5427,B6,411.0,0.75,64,176.0
5428,E-3,411.0,0.75,64,176.0
5429,B2,411.0,1.0,64,176.0
5430,A3,411.0,1.0,64,176.0
5431,F4,411.334,0.333,64,176.0
5432,D5,411.334,0.333,64,176.0
5433,E-3,411.75,0.25,64,176.0
5434,G4,412.0,1.0,64,176.0
5435,G#2,412.0,1.0,64,176.0
5436,E-3,412.0,1.0,64,176.0
5437,B2,412.0,1.0,64,176.0
5438,B-5,412.667,0.333,64,176.0
5439,B-4,412.667,0.333,64,176.0
5440,B-4,412.667,0.333,64,176.0
5441,D5,412.667,0.333,64,176.0
5442,F4,412.667,0.333,64,176.0
5443,F4,412.667,1.0,64,176.0
5444,D5,412.667,1.0,64,176.0
5445,G#4,413.0,1.0,64,176.0
5446,A2,413.0,1.0,64,176.0
5447,G2,413.0,1.0,64,176.0
5448,B6,413.0,0.75,64,176.0
5449,E-3,413.0,0.75,64,176.0
5450,B-5,413.667,0.333,64,176.0
5451,G4,413.667,0.333,64,176.0
5452,G4,413.667,0.333,64,176.0
5453,D5,413.667,0.333,64,176.0
5454,F4,413.667,0.333,64,176.0
5455,F4,413.667,1.0,64,176.0
5456,D5,413.667,1.0,64,176.0
5457,E-3,413.75,0.25,64,176.0
5458,B-5,414.0,0.667,64,176.0
5459,B-4,414.0,1.0,64,176.0
5460,G4,414.0,1.0,64,176.0
5461,B-4,414.0,1.0,64,176.0
5462,F2,414.0,1.0,64,176.0
5463,D5,414.0,0.667,64,176.0
5464,F4,414.0,0.667,64,176.0
5465,E-3,414.0,1.0,64,176.0
5466,G2,414.0,1.0,64,176.0
5467,B-5,414.667,0.333,64,176.0
5468,F4,414.667,0.333,64,176.0
5469,F4,414.667,0.333,64,176.0
5470,D5,414.667,0.333,64,176.0
5471,F4,414.667,0.333,64,176.0
5472,B-5,415.0,0.667,64,176.0
5473,G4,415.0,1.0,64,176.0
5474,F4,415.0,1.0,64,176.0
5475,G4,415.0,0.667,64,176.0
5476,G4,415.0,1.0,64,176.0
5477,D2,415.0,1.0,64,176.0
5478,G4,415.0,0.667,64,176.0
5479,D5,415.0,0.667,64,176.0
5480,F4,415.0,0.667,64,176.0
5481,B6,415.0,0.75,64,176.0
5482,E-3,415.0,0.75,64,176.0
5483,F2,415.0,1.0,64,176.0
5484,A3,415.0,1.0,64,176.0
5485,F4,415.334,0.333,64,176.0
5486,D5,415.334,0.333,64,176.0
5487,B-5,415.667,0.333,64,176.0
5488,F3,415.667,0.333,64,176.0
5489,B-4,415.667,0.333,64,176.0
5490,B-4,415.667,0.333,64,176.0
5491,D5,415.667,0.333,64,176.0
5492,F4,415.667,0.333,64,176.0
5493,E-3,415.75,0.25,64,176.0
5494,G3,416.0,0.667,64,176.0
5495,D4,416.0,1.0,64,176.0
5496,E-2,416.0,1.0,64,176.0
5497,E-3,416.0,1.0,64,176.0
5498,F2,416.0,1.0,64,176.0
5499,F4,416.334,0.333,64,176.0
5500,D5,416.334,0.333,64,176.0
5501,B-5,416.667,0.333,64,176.0
5502,B-4,416.667,0.333,64,176.0
5503,B-3,416.667,0.333,64,176.0
5504,B-4,416.667,0.333,64,176.0
5505,C#5,416.667,0.333,64,176.0
5506,G4,416.667,0.333,64,176.0
5507,F4,416.667,0.667,64,176.0
5508,D5,416.667,0.667,64,176.0
5509,E-4,417.0,1.0,64,176.0
5510,G2,417.0,1.0,64,176.0
5511,G2,417.0,1.0,64,176.0
5512,B6,417.0,0.75,64,176.0
5513,E-3,417.0,0.75,64,176.0
5514,F5,417.334,0.333,64,176.0
5515,F4,417.334,0.333,64,176.0
5516,D5,417.334,0.333,64,176.0
5517,G4,417.667,0.333,64,176.0
5518,G4,417.667,0.333,64,176.0
5519,G5,417.667,0.667,64,176.0
5520,F4,417.667,0.667,64,176.0
5521,D5,417.667,0.667,64,176.0
5522,E-3,417.75,0.25,64,176.0
5523,B-5,418.0,1.0,64,176.0
5524,B-4,418.0,1.0,64,176.0
5525,G4,418.0,1.0,64,176.0
5526,B-4,418.0,1.0,64,176.0
5527,B-2,418.0,1.0,64,176.0
5528,C#5,418.0,1.0,64,176.0
5529,G4,418.0,1.0,64,176.0
5530,E-3,418.0,1.0,64,176.0
5531,A2,418.0,1.0,64,176.0
5532,B-5,418.334,0.333,64,176.0
5533,F4,418.334,0.333,64,176.0
5534,D5,418.334,0.333,64,176.0
5535,B-5,419.0,1.0,64,176.0
5536,G4,419.0,1.0,64,176.0
5537,B-4,419.0,1.0,64,176.0
5538,G4,419.0,1.0,64,176.0
5539,G2,419.0,1.0,64,176.0
5540,C#5,419.0,1.0,64,176.0
5541,G4,419.0,1.0,64,176.0
5542,B6,419.0,0.75,64,176.0
5543,E-3,419.0,0.75,64,176.0
5544,B2,419.0,1.0,64,176.0
5545,A3,419.0,1.0,64,176.0
5546,G4,419.334,0.333,64,176.0
5547,C#5,419.334,0.333,64,176.0
5548,E-3,419.75,0.25,64,176.0
5549,G4,420.0,1.0,64,176.0
5550,E-2,420.0,1.0,64,176.0
5551,E-3,420.0,1.0,64,176.0
5552,B2,420.0,1.0,64,176.0
5553,B-5,420.667,0.333,64,176.0
5554,B-4,420.667,0.333,64,176.0
5555,B-4,420.667,0.333,64,176.0
5556,C#5,420.667,0.333,64,176.0
5557,G4,420.667,0.333,64,176.0
5558,G4,420.667,1.0,64,176.0
5559,C#5,420.667,1.0,64,176.0
5560,E-4,421.0,1.0,64,176.0
5561,A2,421.0,1.0,64,176.0
5562,G2,421.0,1.0,64,176.0
5563,B6,421.0,0.75,64,176.0
5564,E-3,421.0,0.75,64,176.0
5565,B-5,421.667,0.333,64,176.0
5566,G4,421.667,0.333,64,176.0
5567,G4,421.667,0.333,64,176.0
5568,C#5,421.667,0.333,64,176.0
5569,G4,421.667,0.333,64,176.0
5570,G4,421.667,1.0,64,176.0
5571,C#5,421.667,1.0,64,176.0
5572,E-3,421.75,0.25,64,176.0
5573,B-5,422.0,0.667,64,176.0
5574,B-4,422.0,1.0,64,176.0
5575,G4,422.0,1.0,64,176.0
5576,B-4,422.0,1.0,64,176.0
5577,B-2,422.0,1.0,64,176.0
5578,C#5,422.0,0.667,64,176.0
5579,G4,422.0,0.667,64,176.0
5580,E-3,422.0,1.0,64,176.0
5581,G2,422.0,1.0,64,176.0
5582,B-5,422.667,0.333,64,176.0
5583,F4,422.667,0.333,64,176.0
5584,F4,422.667,0.333,64,176.0
5585,C#5,422.667,0.333,64,176.0
5586,G4,422.667,0.333,64,176.0
5587,B-5,423.0,0.667,64,176.0
5588,G4,423.0,1.0,64,176.0
5589,B-4,423.0,1.0,64,176.0
5590,G4,423.0,0.667,64,176.0
5591,G4,423.0,1.0,64,176.0
5592,G2,423.0,1.0,64,176.0
5593,G4,423.0,0.667,64,176.0
5594,C#5,423.0,0.667,64,176.0
5595,G4,423.0,0.667,64,176.0
5596,B6,423.0,0.75,64,176.0
5597,E-3,423.0,0.75,64,176.0
5598,F2,423.0,1.0,64,176.0
5599,A3,423.0,1.0,64,176.0
5600,G4,423.334,0.333,64,176.0
5601,C#5,423.334,0.333,64,176.0
5602,B-5,423.667,0.333,64,176.0
5603,F3,423.667,0.333,64,176.0
5604,B-4,423.667,0.333,64,176.0
5605,B-4,423.667,0.333,64,176.0
5606,C#5,423.667,0.333,64,176.0
5607,G4,423.667,0.333,64,176.0
5608,E-3,423.75,0.25,64,176.0
5609,G3,424.0,0.667,64,176.0
5610,G4,424.0,1.0,64,176.0
5611,B-1,424.0,1.0,64,176.0
5612,E-3,424.0,1.0,64,176.0
5613,F2,424.0,1.0,64,176.0
5614,G4,424.334,0.333,64,176.0
5615,C#5,424.334,0.333,64,176.0
5616,B-5,424.667,0.333,64,176.0
5617,B-4,424.667,0.333,64,176.0
5618,B-3,424.667,0.333,64,176.0
5619,B-4,424.667,0.333,64,176.0
5620,D5,424.667,0.333,64,176.0
5621,F4,424.667,0.333,64,176.0
5622,G4,424.667,0.667,64,176.0
5623,C#5,424.667,0.667,64,176.0
5624,B-3,425.0,1.0,64,176.0
5625,G2,425.0,1.0,64,176.0
5626,D2,425.0,1.0,64,176.0
5627,B6,425.0,0.75,64,176.0
5628,E-3,425.0,0.75,64,176.0
5629,F5,425.334,0.333,64,176.0
5630,G4,425.334,0.333,64,176.0
5631,C#5,425.334,0.333,64,176.0
5632,G4,425.667,0.333,64,176.0
5633,G4,425.667,0.333,64,176.0
5634,G5,425.667,0.667,64,176.0
5635,G4,425.667,0.667,64,176.0
5636,C#5,425.667,0.667,64,176.0
5637,E-3,425.75,0.25,64,176.0
5638,B-5,426.0,1.0,64,176.0
5639,B-4,426.0,1.0,64,176.0
5640,D4,426.0,1.0,64,176.0
5641,B-4,426.0,1.0,64,176.0
5642,F2,426.0,1.0,64,176.0
5643,D5,426.0,1.0,64,176.0
5644,F4,426.0,1.0,64,176.0
5645,E-3,426.0,1.0,64,176.0
5646,A2,426.0,1.0,64,176.0
5647,B-5,426.334,0.333,64,176.0
5648,G4,426.334,0.333,64,176.0
5649,C#5,426.334,0.333,64,176.0
5650,B-5,427.0,1.0,64,176.0
5651,G4,427.0,1.0,64,176.0
5652,F4,427.0,1.0,64,176.0
5653,G4,427.0,1.0,64,176.0
5654,G2,427.0,1.0,64,176.0
5655,D5,427.0,1.0,64,176.0
5656,F4,427.0,1.0,64,176.0
5657,B6,427.0,0.75,64,176.0
5658,E-3,427.0,0.75,64,176.0
5659,B2,427.0,1.0,64,176.0
5660,A3,427.0,1.0,64,176.0
5661,F4,427.334,0.333,64,176.0
5662,D5,427.334,0.333,64,176.0
5663,E-3,427.75,0.25,64,176.0
5664,G4,428.0,1.0,64,176.0
5665,G#2,428.0,1.0,64,176.0
5666,E-3,428.0,1.0,64,176.0
5667,B2,428.0,1.0,64,176.0
5668,B-5,428.667,0.333,64,176.0
5669,B-4,428.667,0.333,64,176.0
5670,B-4,428.667,0.333,64,176.0
5671,D5,428.667,0.333,64,176.0
5672,F4,428.667,0.333,64,176.0
5673,F4,428.667,1.0,64,176.0
5674,D5,428.667,1.0,64,176.0
5675,G#4,429.0,1.0,64,176.0
5676,A2,429.0,1.0,64,176.0
5677,G2,429.0,1.0,64,176.0
5678,B6,429.0,0.75,64,176.0
5679,E-3,429.0,0.75,64,176.0
5680,B-5,429.667,0.333,64,176.0
5681,G4,429.667,0.333,64,176.0
5682,G4,429.667,0.333,64,176.0
5683,D5,429.667,0.333,64,176.0
5684,F4,429.667,0.333,64,176.0
5685,F4,429.667,1.0,64,176.0
5686,D5,429.667,1.0,64,176.0
5687,E-3,429.75,0.25,64,176.0
5688,B-5,430.0,0.667,64,176.0
5689,B-4,430.0,1.0,64,176.0
5690,G4,430.0,1.0,64,176.0
5691,B-4,430.0,1.0,64,176.0
5692,F2,430.0,1.0,64,176.0
5693,D5,430.0,0.667,64,176.0
5694,F4,430.0,0.667,64,176.0
5695,E-3,430.0,1.0,64,176.0
5696,G2,430.0,1.0,64,176.0
5697,B-5,430.667,0.333,64,176.0
5698,F4,430.667,0.333,64,176.0
5699,F4,430.667,0.333,64,176.0
5700,D5,430.667,0.333,64,176.0
5701,F4,430.667,0.333,64,176.0
5702,B-5,431.0,0.667,64,176.0
5703,G4,431.0,1.0,64,176.0
5704,F4,431.0,1.0,64,176.0
5705,G4,431.0,0.667,64,176.0
5706,G4,431.0,1.0,64,176.0
5707,D2,431.0,1.0,64,176.0
5708,G4,431.0,0.667,64,176.0
5709,D5,431.0,0.667,64,176.0
5710,F4,431.0,0.667,64,176.0
5711,B6,431.0,0.75,64,176.0
5712,E-3,431.0,0.75,64,176.0
5713,F2,431.0,1.0,64,176.0
5714,A3,431.0,1.0,64,176.0
5715,F4,431.334,0.333,64,176.0
5716,D5,431.334,0.333,64,176.0
5717,B-5,431.667,0.333,64,176.0
5718,F3,431.667,0.333,64,176.0
5719,C5,431.667,0.333,64,176.0
5720,C5,431.667,0.333,64,176.0
5721,D5,431.667,0.333,64,176.0
5722,F4,431.667,0.333,64,176.0
5723,E-3,431.75,0.25,64,176.0
5724,G3,432.0,0.667,64,176.0
5725,D4,432.0,1.0,64,176.0
5726,C2,432.0,1.0,64,176.0
5727,E-3,432.0,1.0,64,176.0
5728,F2,432.0,1.0,64,176.0
5729,F4,432.334,0.333,64,176.0
5730,D5,432.334,0.333,64,176.0
5731,C6,432.667,0.333,64,176.0
5732,C4,432.667,0.333,64,176.0
5733,E-5,432.667,0.333,64,176.0
5734,A4,432.667,0.333,64,176.0
5735,F4,432.667,0.667,64,176.0
5736,D5,432.667,0.667,64,176.0
5737,C4,433.0,1.0,64,176.0
5738,D2,433.0,1.0,64,176.0
5739,B6,433.0,0.75,64,176.0
5740,E-3,433.0,0.75,64,176.0
5741,G2,433.0,1.0,64,176.0
5742,A3,433.0,1.0,64,176.0
5743,F5,433.334,0.333,64,176.0
5744,F4,433.334,0.333,64,176.0
5745,D5,433.334,0.333,64,176.0
5746,G5,433.667,0.667,64,176.0
5747,F4,433.667,0.667,64,176.0
5748,D5,433.667,0.667,64,176.0
5749,E-3,433.75,0.25,64,176.0
5750,C6,434.0,1.0,64,176.0
5751,D4,434.0,1.0,64,176.0
5752,E-2,434.0,1.0,64,176.0
5753,E-5,434.0,1.0,64,176.0
5754,A4,434.0,1.0,64,176.0
5755,E-3,434.0,1.0,64,176.0
5756,A2,434.0,1.0,64,176.0
5757,C6,434.334,0.333,64,176.0
5758,F4,434.334,0.333,64,176.0
5759,D5,434.334,0.333,64,176.0
5760,C6,435.0,1.0,64,176.0
5761,E-4,435.0,1.0,64,176.0
5762,E2,435.0,1.0,64,176.0
5763,E-5,435.0,1.0,64,176.0
5764,A4,435.0,1.0,64,176.0
5765,B6,435.0,0.75,64,176.0
5766,E-3,435.0,0.75,64,176.0
5767,B2,435.0,1.0,64,176.0
5768,A3,435.0,1.0,64,176.0
5769,A4,435.334,0.333,64,176.0
5770,E-5,435.334,0.333,64,176.0
5771,E-3,435.75,0.25,64,176.0
5772,E4,436.0,1.0,64,176.0
5773,F2,436.0,1.0,64,176.0
5774,E-3,436.0,1.0,64,176.0
5775,B2,436.0,1.0,64,176.0
5776,B-5,436.667,0.333,64,176.0
5777,C#5,436.667,0.333,64,176.0
5778,G4,436.667,0.333,64,176.0
5779,A4,436.667,1.0,64,176.0
5780,E-5,436.667,1.0,64,176.0
5781,F4,437.0,1.0,64,176.0
5782,E-2,437.0,1.0,64,176.0
5783,B6,437.0,0.75,64,176.0
5784,E-3,437.0,0.75,64,176.0
5785,A2,437.0,1.0,64,176.0
5786,A3,437.0,1.0,64,176.0
5787,B-5,437.667,0.333,64,176.0
5788,C#5,437.667,0.333,64,176.0
5789,G4,437.667,0.333,64,176.0
5790,A4,437.667,1.0,64,176.0
5791,E-5,437.667,1.0,64,176.0
5792,E-3,437.75,0.25,64,176.0
5793,B-5,438.0,1.0,64,176.0
5794,E-4,438.0,1.0,64,176.0
5795,D2,438.0,1.0,64,176.0
5796,C#5,438.0,1.0,64,176.0
5797,G4,438.0,1.0,64,176.0
5798,E-3,438.0,1.0,64,176.0
5799,G2,438.0,1.0,64,176.0
5800,B-5,439.0,0.667,64,176.0
5801,D4,439.0,1.0,64,176.0
5802,C2,439.0,1.0,64,176.0
5803,C#5,439.0,0.667,64,176.0
5804,G4,439.0,0.667,64,176.0
5805,B6,439.0,0.75,64,176.0
5806,E-3,439.0,0.75,64,176.0
5807,F2,439.0,1.0,64,176.0
5808,A3,439.0,1.0,64,176.0
5809,G4,439.334,0.333,64,176.0
5810,C#5,439.334,0.333,64,176.0
5811,B-5,439.667,0.333,64,176.0
5812,B-4,439.667,0.333,64,176.0
5813,B-4,439.667,0.333,64,176.0
5814,D5,439.667,0.333,64,176.0
5815,F4,439.667,0.333,64,176.0
5816,E-3,439.75,0.25,64,176.0
5817,B-5,440.0,1.0,64,176.0
5818,C4,440.0,1.0,64,176.0
5819,B-1,440.0,1.0,64,176.0
5820,D5,440.0,1.0,64,176.0
5821,F4,440.0,1.0,64,176.0
5822,E-3,440.0,1.0,64,176.0
5823,F2,440.0,1.0,64,176.0
5824,G4,440.334,0.333,64,176.0
5825,C#5,440.334,0.333,64,176.0
5826,G4,440.667,1.0,64,176.0
5827,C#5,440.667,1.0,64,176.0
5828,B-3,441.0,1.0,64,176.0
5829,B-1,441.0,1.0,64,176.0
5830,B6,441.0,0.75,64,176.0
5831,E-3,441.0,0.75,64,176.0
5832,G2,441.0,1.0,64,176.0
5833,A3,441.0,1.0,64,176.0
5834,F4,441.667,0.333,64,176.0
5835,B-4,441.667,0.333,64,176.0
5836,G4,441.667,0.667,64,176.0
5837,C#5,441.667,0.667,64,176.0
5838,E-3,441.75,0.25,64,176.0
5839,B-3,442.0,1.0,64,176.0
5840,G1,442.0,1.0,64,176.0
5841,E-3,442.0,1.0,64,176.0
5842,A2,442.0,1.0,64,176.0
5843,B-5,442.334,0.333,64,176.0
5844,F4,442.334,0.333,64,176.0
5845,D5,442.334,0.333,64,176.0
5846,F3,442.667,0.333,64,176.0
5847,F4,442.667,0.333,64,176.0
5848,F4,442.667,1.0,64,176.0
5849,D5,442.667,1.0,64,176.0
5850,G3,443.0,1.0,64,176.0
5851,G1,443.0,1.0,64,176.0
5852,B6,443.0,0.75,64,176.0
5853,E-3,443.0,0.75,64,176.0
5854,B2,443.0,1.0,64,176.0
5855,A3,443.0,1.0,64,176.0
5856,C#5,443.667,0.333,64,176.0
5857,C#5,443.667,0.333,64,176.0
5858,E-3,443.75,0.25,64,176.0
5859,G3,444.0,1.0,64,176.0
5860,C2,444.0,1.0,64,176.0
5861,E-3,444.0,1.0,64,176.0
5862,B2,444.0,1.0,64,176.0
5863,C4,445.0,1.0,64,176.0
5864,C2,445.0,1.0,64,176.0
5865,B6,445.0,0.75,64,176.0
5866,E-3,445.0,0.75,64,176.0
5867,A2,445.0,1.0,64,176.0
5868,A3,445.0,1.0,64,176.0
5869,G#4,445.667,0.333,64,176.0
5870,C#5,445.667,0.333,64,176.0
5871,E-3,445.75,0.25,64,176.0
5872,C4,446.0,1.0,64,176.0
5873,F2,446.0,1.0,64,176.0
5874,E-3,446.0,1.0,64,176.0
5875,G2,446.0,1.0,64,176.0
5876,C#6,446.334,0.333,64,176.0
5877,F3,446.667,0.333,64,176.0
5878,F4,446.667,0.333,64,176.0
5879,F4,447.0,1.0,64,176.0
5880,F2,447.0,1.0,64,176.0
5881,B6,447.0,0.75,64,176.0
5882,E-3,447.0,0.75,64,176.0
5883,F2,447.0,1.0,64,176.0
5884,A3,447.0,1.0,64,176.0
5885,B-4,447.667,0.333,64,176.0
5886,B-4,447.667,0.333,64,176.0
5887,E-3,447.75,0.25,64,176.0
5888,F4,448.0,1.0,64,176.0
5889,B-1,448.0,1.0,64,176.0
5890,E-3,448.0,1.0,64,176.0
5891,F2,448.0,1.0,64,176.0
5892,B-5,448.667,0.333,64,176.0
5893,D5,448.667,0.333,64,176.0
5894,F4,448.667,0.333,64,176.0
5895,B-3,449.0,1.0,64,176.0
5896,D2,449.0,1.0,64,176.0
5897,B6,449.0,0.75,64,176.0
5898,E-3,449.0,0.75,64,176.0
5899,G2,449.0,1.0,64,176.0
5900,A3,449.0,1.0,64,176.0
5901,F4,449.667,0.333,64,176.0
5902,B-4,449.667,0.333,64,176.0
5903,E-3,449.75,0.25,64,176.0
5904,B-5,450.0,1.0,64,176.0
5905,D4,450.0,1.0,64,176.0
5906,F2,450.0,1.0,64,176.0
5907,D5,450.0,1.0,64,176.0
5908,F4,450.0,1.0,64,176.0
5909,E-3,450.0,1.0,64,176.0
5910,A2,450.0,1.0,64,176.0
5911,B-5,450.334,0.333,64,176.0
5912,F3,450.667,0.333,64,176.0
5913,F4,450.667,0.333,64,176.0
5914,B-5,451.0,1.0,64,176.0
5915,F4,451.0,1.0,64,176.0
5916,G2,451.0,1.0,64,176.0
5917,D5,451.0,1.0,64,176.0
5918,F4,451.0,1.0,64,176.0
5919,B6,451.0,0.75,64,176.0
5920,E-3,451.0,0.75,64,176.0
5921,B2,451.0,1.0,64,176.0
5922,A3,451.0,1.0,64,176.0
5923,F4,451.334,0.333,64,176.0
5924,D5,451.334,0.333,64,176.0
5925,C#5,451.667,0.333,64,176.0
5926,C#5,451.667,0.333,64,176.0
5927,E-3,451.75,0.25,64,176.0
5928,G4,452.0,1.0,64,176.0
5929,G#2,452.0,1.0,64,176.0
5930,E-3,452.0,1.0,64,176.0
5931,B2,452.0,1.0,64,176.0
5932,B-5,452.667,0.333,64,176.0
5933,D5,452.667,0.333,64,176.0
5934,F4,452.667,0.333,64,176.0
5935,F4,452.667,1.0,64,176.0
5936,D5,452.667,1.0,64,176.0
5937,G#4,453.0,1.0,64,176.0
5938,G2,453.0,1.0,64,176.0
5939,B6,453.0,0.75,64,176.0
5940,E-3,453.0,0.75,64,176.0
5941,A2,453.0,1.0,64,176.0
5942,A3,453.0,1.0,64,176.0
5943,B-5,453.667,0.333,64,176.0
5944,G#4,453.667,0.333,64,176.0
5945,C#5,453.667,0.333,64,176.0
5946,D5,453.667,0.333,64,176.0
5947,F4,453.667,0.333,64,176.0
5948,F4,453.667,1.0,64,176.0
5949,D5,453.667,1.0,64,176.0
5950,E-3,453.75,0.25,64,176.0
5951,B-5,454.0,0.667,64,176.0
5952,G4,454.0,1.0,64,176.0
5953,F2,454.0,1.0,64,176.0
5954,D5,454.0,0.667,64,176.0
5955,F4,454.0,0.667,64,176.0
5956,E-3,454.0,1.0,64,176.0
5957,G2,454.0,1.0,64,176.0
5958,C#6,454.334,0.333,64,176.0
5959,B-5,454.667,0.333,64,176.0
5960,D5,454.667,0.333,64,176.0
5961,F4,454.667,0.333,64,176.0
5962,F3,454.667,0.333,64,176.0
5963,F4,454.667,0.333,64,176.0
5964,B-5,455.0,0.667,64,176.0
5965,F4,455.0,1.0,64,176.0
5966,D2,455.0,1.0,64,176.0
5967,D5,455.0,0.667,64,176.0
5968,F4,455.0,0.667,64,176.0
5969,B6,455.0,0.75,64,176.0
5970,E-3,455.0,0.75,64,176.0
5971,F2,455.0,1.0,64,176.0
5972,A3,455.0,1.0,64,176.0
5973,F4,455.334,0.333,64,176.0
5974,D5,455.334,0.333,64,176.0
5975,B-5,455.667,0.333,64,176.0
5976,B-4,455.667,0.333,64,176.0
5977,B-4,455.667,0.333,64,176.0
5978,D5,455.667,0.333,64,176.0
5979,F4,455.667,0.333,64,176.0
5980,E-3,455.75,0.25,64,176.0
5981,D4,456.0,1.0,64,176.0
5982,B-1,456.0,1.0,64,176.0
5983,E-3,456.0,1.0,64,176.0
5984,F2,456.0,1.0,64,176.0
5985,F4,456.334,0.333,64,176.0
5986,D5,456.334,0.333,64,176.0
5987,B-5,456.667,0.333,64,176.0
5988,D5,456.667,0.333,64,176.0
5989,F4,456.667,0.333,64,176.0
5990,F4,456.667,0.667,64,176.0
5991,D5,456.667,0.667,64,176.0
5992,B-3,457.0,1.0,64,176.0
5993,D2,457.0,1.0,64,176.0
5994,B6,457.0,0.75,64,176.0
5995,E-3,457.0,0.75,64,176.0
5996,G2,457.0,1.0,64,176.0
5997,A3,457.0,1.0,64,176.0
5998,F4,457.334,0.333,64,176.0
5999,D5,457.334,0.333,64,176.0
6000,F4,457.667,0.333,64,176.0
6001,B-4,457.667,0.333,64,176.0
6002,F4,457.667,0.667,64,176.0
6003,D5,457.667,0.667,64,176.0
6004,E-3,457.75,0.25,64,176.0
6005,B-5,458.0,1.0,64,176.0
6006,D4,458.0,1.0,64,176.0
6007,F2,458.0,1.0,64,176.0
6008,D5,458.0,1.0,64,176.0
6009,F4,458.0,1.0,64,176.0
6010,E-3,458.0,1.0,64,176.0
6011,A2,458.0,1.0,64,176.0
6012,B-5,458.334,0.333,64,176.0
6013,F4,458.334,0.333,64,176.0
6014,D5,458.334,0.333,64,176.0
6015,F3,458.667,0.333,64,176.0
6016,F4,458.667,0.333,64,176.0
6017,B-5,459.0,1.0,64,176.0
6018,F4,459.0,1.0,64,176.0
6019,G2,459.0,1.0,64,176.0
6020,D5,459.0,1.0,64,176.0
6021,F4,459.0,1.0,64,176.0
6022,B6,459.0,0.75,64,176.0
6023,E-3,459.0,0.75,64,176.0
6024,B2,459.0,1.0,64,176.0
6025,A3,459.0,1.0,64,176.0
6026,F4,459.334,0.333,64,176.0
6027,D5,459.334,0.333,64,176.0
6028,C#5,459.667,0.333,64,176.0
6029,C#5,459.667,0.333,64,176.0
6030,E-3,459.75,0.25,64,176.0
6031,G4,460.0,1.0,64,176.0
6032,G#2,460.0,1.0,64,176.0
6033,E-3,460.0,1.0,64,176.0
6034,B2,460.0,1.0,64,176.0
6035,B-5,460.667,0.333,64,176.0
6036,D5,460.667,0.333,64,176.0
6037,F4,460.667,0.333,64,176.0
6038,F4,460.667,1.0,64,176.0
6039,D5,460.667,1.0,64,176.0
6040,G#4,461.0,1.0,64,176.0
6041,G2,461.0,1.0,64,176.0
6042,B6,461.0,0.75,64,176.0
6043,E-3,461.0,0.75,64,176.0
6044,A2,461.0,1.0,64,176.0
6045,A3,461.0,1.0,64,176.0
6046,B-5,461.667,0.333,64,176.0
6047,G#4,461.667,0.333,64,176.0
6048,C#5,461.667,0.333,64,176.0
6049,D5,461.667,0.333,64,176.0
6050,F4,461.667,0.333,64,176.0
6051,F4,461.667,1.0,64,176.0
6052,D5,461.667,1.0,64,176.0
6053,E-3,461.75,0.25,64,176.0
6054,B-5,462.0,0.667,64,176.0
6055,G4,462.0,1.0,64,176.0
6056,F2,462.0,1.0,64,176.0
6057,D5,462.0,0.667,64,176.0
6058,F4,462.0,0.667,64,176.0
6059,E-3,462.0,1.0,64,176.0
6060,G2,462.0,1.0,64,176.0
6061,C#6,462.334,0.333,64,176.0
6062,B-5,462.667,0.333,64,176.0
6063,D5,462.667,0.333,64,176.0
6064,F4,462.667,0.333,64,176.0
6065,F3,462.667,0.333,64,176.0
6066,F4,462.667,0.333,64,176.0
6067,B-5,463.0,0.667,64,176.0
6068,F4,463.0,1.0,64,176.0
6069,D2,463.0,1.0,64,176.0
6070,D5,463.0,0.667,64,176.0
6071,F4,463.0,0.667,64,176.0
6072,B6,463.0,0.75,64,176.0
6073,E-3,463.0,0.75,64,176.0
6074,F2,463.0,1.0,64,176.0
6075,A3,463.0,1.0,64,176.0
6076,F4,463.334,0.333,64,176.0
6077,D5,463.334,0.333,64,176.0
6078,B-5,463.667,0.333,64,176.0
6079,B-4,463.667,0.333,64,176.0
6080,B-4,463.667,0.333,64,176.0
6081,D5,463.667,0.333,64,176.0
6082,F4,463.667,0.333,64,176.0
6083,E-3,463.75,0.25,64,176.0
6084,D4,464.0,1.0,64,176.0
6085,E-2,464.0,1.0,64,176.0
6086,E-3,464.0,1.0,64,176.0
6087,F2,464.0,1.0,64,176.0
6088,F4,464.334,0.333,64,176.0
6089,D5,464.334,0.333,64,176.0
6090,B-5,464.667,0.333,64,176.0
6091,C#5,464.667,0.333,64,176.0
6092,G4,464.667,0.333,64,176.0
6093,F4,464.667,0.667,64,176.0
6094,D5,464.667,0.667,64,176.0
6095,E-4,465.0,1.0,64,176.0
6096,G2,465.0,1.0,64,176.0
6097,B6,465.0,0.75,64,176.0
6098,E-3,465.0,0.75,64,176.0
6099,G2,465.0,1.0,64,176.0
6100,A3,465.0,1.0,64,176.0
6101,F4,465.334,0.333,64,176.0
6102,D5,465.334,0.333,64,176.0
6103,F4,465.667,0.333,64,176.0
6104,B-4,465.667,0.333,64,176.0
6105,F4,465.667,0.667,64,176.0
6106,D5,465.667,0.667,64,176.0
6107,E-3,465.75,0.25,64,176.0
6108,B-5,466.0,1.0,64,176.0
6109,G4,466.0,1.0,64,176.0
6110,B-2,466.0,1.0,64,176.0
6111,C#5,466.0,1.0,64,176.0
6112,G4,466.0,1.0,64,176.0
6113,E-3,466.0,1.0,64,176.0
6114,A2,466.0,1.0,64,176.0
6115,B-5,466.334,0.333,64,176.0
6116,F4,466.334,0.333,64,176.0
6117,D5,466.334,0.333,64,176.0
6118,F3,466.667,0.333,64,176.0
6119,F4,466.667,0.333,64,176.0
6120,B-5,467.0,1.0,64,176.0
6121,B-4,467.0,1.0,64,176.0
6122,G2,467.0,1.0,64,176.0
6123,C#5,467.0,1.0,64,176.0
6124,G4,467.0,1.0,64,176.0
6125,B6,467.0,0.75,64,176.0
6126,E-3,467.0,0.75,64,176.0
6127,B2,467.0,1.0,64,176.0
6128,A3,467.0,1.0,64,176.0
6129,G4,467.334,0.333,64,176.0
6130,C#5,467.334,0.333,64,176.0
6131,C#5,467.667,0.333,64,176.0
6132,C#5,467.667,0.333,64,176.0
6133,E-3,467.75,0.25,64,176.0
6134,G4,468.0,1.0,64,176.0
6135,E-2,468.0,1.0,64,176.0
6136,E-3,468.0,1.0,64,176.0
6137,B2,468.0,1.0,64,176.0
6138,B-5,468.667,0.333,64,176.0
6139,C#5,468.667,0.333,64,176.0
6140,G4,468.667,0.333,64,176.0
6141,G4,468.667,1.0,64,176.0
6142,C#5,468.667,1.0,64,176.0
6143,E-4,469.0,1.0,64,176.0
6144,G2,469.0,1.0,64,176.0
6145,B6,469.0,0.75,64,176.0
6146,E-3,469.0,0.75,64,176.0
6147,A2,469.0,1.0,64,176.0
6148,A3,469.0,1.0,64,176.0
6149,B-5,469.667,0.333,64,176.0
6150,G#4,469.667,0.333,64,176.0
6151,C#5,469.667,0.333,64,176.0
6152,C#5,469.667,0.333,64,176.0
6153,G4,469.667,0.333,64,176.0
6154,G4,469.667,1.0,64,176.0
6155,C#5,469.667,1.0,64,176.0
6156,E-3,469.75,0.25,64,176.0
6157,B-5,470.0,0.667,64,176.0
6158,G4,470.0,1.0,64,176.0
6159,B-2,470.0,1.0,64,176.0
6160,C#5,470.0,0.667,64,176.0
6161,G4,470.0,0.667,64,176.0
6162,E-3,470.0,1.0,64,176.0
6163,G2,470.0,1.0,64,176.0
6164,C#6,470.334,0.333,64,176.0
6165,B-5,470.667,0.333,64,176.0
6166,C#5,470.667,0.333,64,176.0
6167,G4,470.667,0.333,64,176.0
6168,F3,470.667,0.333,64,176.0
6169,F4,470.667,0.333,64,176.0
6170,B-5,471.0,0.667,64,176.0
6171,B-4,471.0,1.0,64,176.0
6172,G2,471.0,1.0,64,176.0
6173,C#5,471.0,0.667,64,176.0
6174,G4,471.0,0.667,64,176.0
6175,B6,471.0,0.75,64,176.0
6176,E-3,471.0,0.75,64,176.0
6177,F2,471.0,1.0,64,176.0
6178,A3,471.0,1.0,64,176.0
6179,G4,471.334,0.333,64,176.0
6180,C#5,471.334,0.333,64,176.0
6181,B-5,471.667,0.333,64,176.0
6182,B-4,471.667,0.333,64,176.0
6183,B-4,471.667,0.333,64,176.0
6184,C#5,471.667,0.333,64,176.0
6185,G4,471.667,0.333,64,176.0
6186,E-3,471.75,0.25,64,176.0
6187,G4,472.0,1.0,64,176.0
6188,B-1,472.0,1.0,64,176.0
6189,E-3,472.0,1.0,64,176.0
6190,F2,472.0,1.0,64,176.0
6191,G4,472.334,0.333,64,176.0
6192,C#5,472.334,0.333,64,176.0
6193,B-5,472.667,0.333,64,176.0
6194,D5,472.667,0.333,64,176.0
6195,F4,472.667,0.333,64,176.0
6196,G4,472.667,0.667,64,176.0
6197,C#5,472.667,0.667,64,176.0
6198,B-3,473.0,1.0,64,176.0
6199,D2,473.0,1.0,64,176.0
6200,B6,473.0,0.75,64,176.0
6201,E-3,473.0,0.75,64,176.0
6202,G2,473.0,1.0,64,176.0
6203,A3,473.0,1.0,64,176.0
6204,G4,473.334,0.333,64,176.0
6205,C#5,473.334,0.333,64,176.0
6206,F4,473.667,0.333,64,176.0
6207,B-4,473.667,0.333,64,176.0
6208,G4,473.667,0.667,64,176.0
6209,C#5,473.667,0.667,64,176.0
6210,E-3,473.75,0.25,64,176.0
6211,B-5,474.0,1.0,64,176.0
6212,D4,474.0,1.0,64,176.0
6213,F2,474.0,1.0,64,176.0
6214,D5,474.0,1.0,64,176.0
6215,F4,474.0,1.0,64,176.0
6216,E-3,474.0,1.0,64,176.0
6217,A2,474.0,1.0,64,176.0
6218,B-5,474.334,0.333,64,176.0
6219,G4,474.334,0.333,64,176.0
6220,C#5,474.334,0.333,64,176.0
6221,F3,474.667,0.333,64,176.0
6222,F4,474.667,0.333,64,176.0
6223,B-5,475.0,1.0,64,176.0
6224,F4,475.0,1.0,64,176.0
6225,G2,475.0,1.0,64,176.0
6226,D5,475.0,1.0,64,176.0
6227,F4,475.0,1.0,64,176.0
6228,B6,475.0,0.75,64,176.0
6229,E-3,475.0,0.75,64,176.0
6230,B2,475.0,1.0,64,176.0
6231,A3,475.0,1.0,64,176.0
6232,F4,475.334,0.333,64,176.0
6233,D5,475.334,0.333,64,176.0
6234,C#5,475.667,0.333,64,176.0
6235,C#5,475.667,0.333,64,176.0
6236,E-3,475.75,0.25,64,176.0
6237,G4,476.0,1.0,64,176.0
6238,G#2,476.0,1.0,64,176.0
6239,E-3,476.0,1.0,64,176.0
6240,B2,476.0,1.0,64,176.0
6241,B-5,476.667,0.333,64,176.0
6242,D5,476.667,0.333,64,176.0
6243,F4,476.667,0.333,64,176.0
6244,F4,476.667,1.0,64,176.0
6245,D5,476.667,1.0,64,176.0
6246,G#4,477.0,1.0,64,176.0
6247,G2,477.0,1.0,64,176.0
6248,B6,477.0,0.75,64,176.0
6249,E-3,477.0,0.75,64,176.0
6250,A2,477.0,1.0,64,176.0
6251,A3,477.0,1.0,64,176.0
6252,B-5,477.667,0.333,64,176.0
6253,G#4,477.667,0.333,64,176.0
6254,C#5,477.667,0.333,64,176.0
6255,D5,477.667,0.333,64,176.0
6256,F4,477.667,0.333,64,176.0
6257,F4,477.667,1.0,64,176.0
6258,D5,477.667,1.0,64,176.0
6259,E-3,477.75,0.25,64,176.0
6260,B-5,478.0,0.667,64,176.0
6261,G4,478.0,1.0,64,176.0
6262,F2,478.0,1.0,64,176.0
6263,D5,478.0,0.667,64,176.0
6264,F4,478.0,0.667,64,176.0
6265,E-3,478.0,1.0,64,176.0
6266,G2,478.0,1.0,64,176.0
6267,C#6,478.334,0.333,64,176.0
6268,B-5,478.667,0.333,64,176.0
6269,D5,478.667,0.333,64,176.0
6270,F4,478.667,0.333,64,176.0
6271,F3,478.667,0.333,64,176.0
6272,F4,478.667,0.333,64,176.0
6273,B-5,479.0,0.667,64,176.0
6274,F4,479.0,1.0,64,176.0
6275,D2,479.0,1.0,64,176.0
6276,D5,479.0,0.667,64,176.0
6277,F4,479.0,0.667,64,176.0
6278,B6,479.0,0.75,64,176.0
6279,E-3,479.0,0.75,64,176.0
6280,F2,479.0,1.0,64,176.0
6281,A3,479.0,1.0,64,176.0
6282,F4,479.334,0.333,64,176.0
6283,D5,479.334,0.333,64,176.0
6284,B-5,479.667,0.333,64,176.0
6285,B-4,479.667,0.333,64,176.0
6286,B-4,479.667,0.333,64,176.0
6287,D5,479.667,0.333,64,176.0
6288,F4,479.667,0.333,64,176.0
6289,E-3,479.75,0.25,64,176.0
6290,D4,480.0,1.0,64,176.0
6291,C2,480.0,1.0,64,176.0
6292,E-3,480.0,1.0,64,176.0
6293,F2,480.0,1.0,64,176.0
6294,F4,480.334,0.333,64,176.0
6295,D5,480.334,0.333,64,176.0
6296,C6,480.667,0.333,64,176.0
6297,E-5,480.667,0.333,64,176.0
6298,A4,480.667,0.333,64,176.0
6299,F4,480.667,0.667,64,176.0
6300,D5,480.667,0.667,64,176.0
6301,C4,481.0,1.0,64,176.0
6302,D2,481.0,1.0,64,176.0
6303,B6,481.0,0.75,64,176.0
6304,E-3,481.0,0.75,64,176.0
6305,G2,481.0,1.0,64,176.0
6306,A3,481.0,1.0,64,176.0
6307,F4,481.334,0.333,64,176.0
6308,D5,481.334,0.333,64,176.0
6309,F4,481.667,0.333,64,176.0
6310,B-4,481.667,0.333,64,176.0
6311,F4,481.667,0.667,64,176.0
6312,D5,481.667,0.667,64,176.0
6313,E-3,481.75,0.25,64,176.0
6314,C6,482.0,1.0,64,176.0
6315,D4,482.0,1.0,64,176.0
6316,E-2,482.0,1.0,64,176.0
6317,E-5,482.0,1.0,64,176.0
6318,A4,482.0,1.0,64,176.0
6319,E-3,482.0,1.0,64,176.0
6320,A2,482.0,1.0,64,176.0
6321,B-5,482.334,0.333,64,176.0
6322,F4,482.334,0.333,64,176.0
6323,D5,482.334,0.333,64,176.0
6324,F3,482.667,0.333,64,176.0
6325,F4,482.667,0.333,64,176.0
6326,C6,483.0,1.0,64,176.0
6327,E-4,483.0,1.0,64,176.0
6328,E2,483.0,1.0,64,176.0
6329,E-5,483.0,1.0,64,176.0
6330,A4,483.0,1.0,64,176.0
6331,B6,483.0,0.75,64,176.0
6332,E-3,483.0,0.75,64,176.0
6333,B2,483.0,1.0,64,176.0
6334,A3,483.0,1.0,64,176.0
6335,A4,483.334,0.333,64,176.0
6336,E-5,483.334,0.333,64,176.0
6337,C#5,483.667,0.333,64,176.0
6338,C#5,483.667,0.333,64,176.0
6339,E-3,483.75,0.25,64,176.0
6340,E4,484.0,1.0,64,176.0
6341,F2,484.0,1.0,64,176.0
6342,E-3,484.0,1.0,64,176.0
6343,B2,484.0,1.0,64,176.0
6344,B-5,484.667,0.333,64,176.0
6345,C#5,484.667,0.333,64,176.0
6346,G4,484.667,0.333,64,176.0
6347,A4,484.667,1.0,64,176.0
6348,E-5,484.667,1.0,64,176.0
6349,F4,485.0,1.0,64,176.0
6350,E-2,485.0,1.0,64,176.0
6351,B6,485.0,0.75,64,176.0
6352,E-3,485.0,0.75,64,176.0
6353,A2,485.0,1.0,64,176.0
6354,A3,485.0,1.0,64,176.0
6355,B-5,485.667,0.333,64,176.0
6356,G#4,485.667,0.333,64,176.0
6357,C#5,485.667,0.333,64,176.0
6358,C#5,485.667,0.333,64,176.0
6359,G4,485.667,0.333,64,176.0
6360,A4,485.667,1.0,64,176.0
6361,E-5,485.667,1.0,64,176.0
6362,E-3,485.75,0.25,64,176.0
6363,B-5,486.0,1.0,64,176.0
6364,E-4,486.0,1.0,64,176.0
6365,D2,486.0,1.0,64,176.0
6366,C#5,486.0,1.0,64,176.0
6367,G4,486.0,1.0,64,176.0
6368,E-3,486.0,1.0,64,176.0
6369,G2,486.0,1.0,64,176.0
6370,C#6,486.334,0.333,64,176.0
6371,F3,486.667,0.333,64,176.0
6372,F4,486.667,0.333,64,176.0
6373,B-5,487.0,0.667,64,176.0
6374,D4,487.0,1.0,64,176.0
6375,C2,487.0,1.0,64,176.0
6376,C#5,487.0,0.667,64,176.0
6377,G4,487.0,0.667,64,176.0
6378,B6,487.0,0.75,64,176.0
6379,E-3,487.0,0.75,64,176.0
6380,F2,487.0,1.0,64,176.0
6381,A3,487.0,1.0,64,176.0
6382,G4,487.334,0.333,64,176.0
6383,C#5,487.334,0.333,64,176.0
6384,B-5,487.667,0.333,64,176.0
6385,B-4,487.667,0.333,64,176.0
6386,B-4,487.667,0.333,64,176.0
6387,D5,487.667,0.333,64,176.0
6388,F4,487.667,0.333,64,176.0
6389,E-3,487.75,0.25,64,176.0
6390,B-5,488.0,1.0,64,176.0
6391,C4,488.0,1.0,64,176.0
6392,B-1,488.0,1.0,64,176.0
6393,D5,488.0,1.0,64,176.0
6394,F4,488.0,1.0,64,176.0
6395,E-3,488.0,1.0,64,176.0
6396,F2,488.0,1.0,64,176.0
6397,G4,488.334,0.333,64,176.0
6398,C#5,488.334,0.333,64,176.0
6399,G#4,488.667,0.333,64,176.0
6400,C#5,488.667,0.333,64,176.0
6401,G4,488.667,1.0,64,176.0
6402,C#5,488.667,1.0,64,176.0
6403,B-3,489.0,1.0,64,176.0
6404,B-1,489.0,1.0,64,176.0
6405,B6,489.0,0.75,64,176.0
6406,E-3,489.0,0.75,64,176.0
6407,G2,489.0,1.0,64,176.0
6408,A3,489.0,1.0,64,176.0
6409,B-4,489.667,0.333,64,176.0
6410,B-4,489.667,0.333,64,176.0
6411,F3,489.667,0.333,64,176.0
6412,F4,489.667,0.333,64,176.0
6413,G4,489.667,0.667,64,176.0
6414,C#5,489.667,0.667,64,176.0
6415,E-3,489.75,0.25,64,176.0
6416,B-3,490.0,1.0,64,176.0
6417,G1,490.0,1.0,64,176.0
6418,E-3,490.0,1.0,64,176.0
6419,A2,490.0,1.0,64,176.0
6420,B-5,490.334,0.333,64,176.0
6421,F4,490.334,0.333,64,176.0
6422,D5,490.334,0.333,64,176.0
6423,G#4,490.667,0.333,64,176.0
6424,C#5,490.667,0.333,64,176.0
6425,F4,490.667,1.0,64,176.0
6426,D5,490.667,1.0,64,176.0
6427,G3,491.0,1.0,64,176.0
6428,G1,491.0,1.0,64,176.0
6429,B6,491.0,0.75,64,176.0
6430,E-3,491.0,0.75,64,176.0
6431,B2,491.0,1.0,64,176.0
6432,A3,491.0,1.0,64,176.0
6433,B-4,491.667,0.333,64,176.0
6434,B-4,491.667,0.333,64,176.0
6435,F3,491.667,0.333,64,176.0
6436,F4,491.667,0.333,64,176.0
6437,E-3,491.75,0.25,64,176.0
6438,G3,492.0,1.0,64,176.0
6439,C2,492.0,1.0,64,176.0
6440,E-3,492.0,1.0,64,176.0
6441,B2,492.0,1.0,64,176.0
6442,B-5,492.334,0.333,64,176.0
6443,G#4,492.667,0.333,64,176.0
6444,C#5,492.667,0.333,64,176.0
6445,C4,493.0,1.0,64,176.0
6446,C2,493.0,1.0,64,176.0
6447,B6,493.0,0.75,64,176.0
6448,E-3,493.0,0.75,64,176.0
6449,A2,493.0,1.0,64,176.0
6450,A3,493.0,1.0,64,176.0
6451,C#5,493.667,0.333,64,176.0
6452,C#5,493.667,0.333,64,176.0
6453,F3,493.667,0.333,64,176.0
6454,F4,493.667,0.333,64,176.0
6455,E-3,493.75,0.25,64,176.0
6456,C4,494.0,1.0,64,176.0
6457,F2,494.0,1.0,64,176.0
6458,E-3,494.0,1.0,64,176.0
6459,G2,494.0,1.0,64,176.0
6460,B-5,494.334,0.333,64,176.0
6461,G#4,494.667,0.333,64,176.0
6462,C#5,494.667,0.333,64,176.0
6463,F4,495.0,1.0,64,176.0
6464,F2,495.0,1.0,64,176.0
6465,B6,495.0,0.75,64,176.0
6466,E-3,495.0,0.75,64,176.0
6467,F2,495.0,1.0,64,176.0
6468,A3,495.0,1.0,64,176.0
6469,B-4,495.667,0.333,64,176.0
6470,B-4,495.667,0.333,64,176.0
6471,F3,495.667,0.333,64,176.0
6472,F4,495.667,0.333,64,176.0
6473,E-3,495.75,0.25,64,176.0
6474,F4,496.0,1.0,64,176.0
6475,B-1,496.0,1.0,64,176.0
6476,E-3,496.0,1.0,64,176.0
6477,F2,496.0,1.0,64,176.0
6478,C#6,496.334,0.333,64,176.0
6479,B-5,496.667,0.333,64,176.0
6480,G#4,496.667,0.333,64,176.0
6481,C#5,496.667,0.333,64,176.0
6482,D5,496.667,0.333,64,176.0
6483,F4,496.667,0.333,64,176.0
6484,B-3,497.0,1.0,64,176.0
6485,D2,497.0,1.0,64,176.0
6486,B6,497.0,0.75,64,176.0
6487,E-3,497.0,0.75,64,176.0
6488,G2,497.0,1.0,64,176.0
6489,A3,497.0,1.0,64,176.0
6490,B-4,497.667,0.333,64,176.0
6491,B-4,497.667,0.333,64,176.0
6492,F3,497.667,0.333,64,176.0
6493,F4,497.667,0.333,64,176.0
6494,E-3,497.75,0.25,64,176.0
6495,B-5,498.0,1.0,64,176.0
6496,D4,498.0,1.0,64,176.0
6497,F2,498.0,1.0,64,176.0
6498,D5,498.0,1.0,64,176.0
6499,F4,498.0,1.0,64,176.0
6500,E-3,498.0,1.0,64,176.0
6501,A2,498.0,1.0,64,176.0
6502,B-5,498.334,0.333,64,176.0
6503,G#4,498.667,0.333,64,176.0
6504,C#5,498.667,0.333,64,176.0
6505,B-5,499.0,1.0,64,176.0
6506,F4,499.0,1.0,64,176.0
6507,G2,499.0,1.0,64,176.0
6508,D5,499.0,1.0,64,176.0
6509,F4,499.0,1.0,64,176.0
6510,B6,499.0,0.75,64,176.0
6511,E-3,499.0,0.75,64,176.0
6512,B2,499.0,1.0,64,176.0
6513,A3,499.0,1.0,64,176.0
6514,F4,499.334,0.333,64,176.0
6515,D5,499.334,0.333,64,176.0
6516,B-4,499.667,0.333,64,176.0
6517,B-4,499.667,0.333,64,176.0
6518,F3,499.667,0.333,64,176.0
6519,F4,499.667,0.333,64,176.0
6520,E-3,499.75,0.25,64,176.0
6521,G4,500.0,1.0,64,176.0
6522,G#2,500.0,1.0,64,176.0
6523,E-3,500.0,1.0,64,176.0
6524,B2,500.0,1.0,64,176.0
6525,B-5,500.334,0.333,64,176.0
6526,B-5,500.667,0.333,64,176.0
6527,G#4,500.667,0.333,64,176.0
6528,C#5,500.667,0.333,64,176.0
6529,D5,500.667,0.333,64,176.0
6530,F4,500.667,0.333,64,176.0
6531,F4,500.667,1.0,64,176.0
6532,D5,500.667,1.0,64,176.0
6533,G#4,501.0,1.0,64,176.0
6534,G2,501.0,1.0,64,176.0
6535,B6,501.0,0.75,64,176.0
6536,E-3,501.0,0.75,64,176.0
6537,A2,501.0,1.0,64,176.0
6538,A3,501.0,1.0,64,176.0
6539,B-5,501.667,0.333,64,176.0
6540,C#5,501.667,0.333,64,176.0
6541,C#5,501.667,0.333,64,176.0
6542,D5,501.667,0.333,64,176.0
6543,F4,501.667,0.333,64,176.0
6544,F3,501.667,0.333,64,176.0
6545,F4,501.667,0.333,64,176.0
6546,F4,501.667,1.0,64,176.0
6547,D5,501.667,1.0,64,176.0
6548,E-3,501.75,0.25,64,176.0
6549,B-5,502.0,0.667,64,176.0
6550,G4,502.0,1.0,64,176.0
6551,F2,502.0,1.0,64,176.0
6552,D5,502.0,0.667,64,176.0
6553,F4,502.0,0.667,64,176.0
6554,E-3,502.0,1.0,64,176.0
6555,G2,502.0,1.0,64,176.0
6556,B-5,502.334,0.333,64,176.0
6557,B-5,502.667,0.333,64,176.0
6558,G#4,502.667,0.333,64,176.0
6559,C#5,502.667,0.333,64,176.0
6560,D5,502.667,0.333,64,176.0
6561,F4,502.667,0.333,64,176.0
6562,B-5,503.0,0.667,64,176.0
6563,F4,503.0,1.0,64,176.0
6564,D2,503.0,1.0,64,176.0
6565,D5,503.0,0.667,64,176.0
6566,F4,503.0,0.667,64,176.0
6567,B6,503.0,0.75,64,176.0
6568,E-3,503.0,0.75,64,176.0
6569,F2,503.0,1.0,64,176.0
6570,A3,503.0,1.0,64,176.0
6571,F4,503.334,0.333,64,176.0
6572,D5,503.334,0.333,64,176.0
6573,B-5,503.667,0.333,64,176.0
6574,B-4,503.667,0.333,64,176.0
6575,B-4,503.667,0.333,64,176.0
6576,D5,503.667,0.333,64,176.0
6577,F4,503.667,0.333,64,176.0
6578,F3,503.667,0.333,64,176.0
6579,F4,503.667,0.333,64,176.0
6580,E-3,503.75,0.25,64,176.0
6581,D4,504.0,1.0,64,176.0
6582,B-1,504.0,1.0,64,176.0
6583,E-3,504.0,1.0,64,176.0
6584,F2,504.0,1.0,64,176.0
6585,C#6,504.334,0.333,64,176.0
6586,F4,504.334,0.333,64,176.0
6587,D5,504.334,0.333,64,176.0
6588,B-5,504.667,0.333,64,176.0
6589,G#4,504.667,0.333,64,176.0
6590,C#5,504.667,0.333,64,176.0
6591,D5,504.667,0.333,64,176.0
6592,F4,504.667,0.333,64,176.0
6593,F4,504.667,0.667,64,176.0
6594,D5,504.667,0.667,64,176.0
6595,B-3,505.0,1.0,64,176.0
6596,D2,505.0,1.0,64,176.0
6597,B6,505.0,0.75,64,176.0
6598,E-3,505.0,0.75,64,176.0
6599,G2,505.0,1.0,64,176.0
6600,A3,505.0,1.0,64,176.0
6601,F4,505.334,0.333,64,176.0
6602,D5,505.334,0.333,64,176.0
6603,B-4,505.667,0.333,64,176.0
6604,B-4,505.667,0.333,64,176.0
6605,F3,505.667,0.333,64,176.0
6606,F4,505.667,0.333,64,176.0
6607,F4,505.667,0.667,64,176.0
6608,D5,505.667,0.667,64,176.0
6609,E-3,505.75,0.25,64,176.0
6610,B-5,506.0,1.0,64,176.0
6611,D4,506.0,1.0,64,176.0
6612,F2,506.0,1.0,64,176.0
6613,D5,506.0,1.0,64,176.0
6614,F4,506.0,1.0,64,176.0
6615,E-3,506.0,1.0,64,176.0
6616,A2,506.0,1.0,64,176.0
6617,B-5,506.334,0.333,64,176.0
6618,F4,506.334,0.333,64,176.0
6619,D5,506.334,0.333,64,176.0
6620,G#4,506.667,0.333,64,176.0
6621,C#5,506.667,0.333,64,176.0
6622,B-5,507.0,1.0,64,176.0
6623,F4,507.0,1.0,64,176.0
6624,G2,507.0,1.0,64,176.0
6625,D5,507.0,1.0,64,176.0
6626,F4,507.0,1.0,64,176.0
6627,B6,507.0,0.75,64,176.0
6628,E-3,507.0,0.75,64,176.0
6629,B2,507.0,1.0,64,176.0
6630,A3,507.0,1.0,64,176.0
6631,F4,507.334,0.333,64,176.0
6632,D5,507.334,0.333,64,176.0
6633,B-4,507.667,0.333,64,176.0
6634,B-4,507.667,0.333,64,176.0
6635,F3,507.667,0.333,64,176.0
6636,F4,507.667,0.333,64,176.0
6637,E-3,507.75,0.25,64,176.0
6638,G4,508.0,1.0,64,176.0
6639,G#2,508.0,1.0,64,176.0
6640,E-3,508.0,1.0,64,176.0
6641,B2,508.0,1.0,64,176.0
6642,B-5,508.334,0.333,64,176.0
6643,B-5,508.667,0.333,64,176.0
6644,G#4,508.667,0.333,64,176.0
6645,C#5,508.667,0.333,64,176.0
6646,D5,508.667,0.333,64,176.0
6647,F4,508.667,0.333,64,176.0
6648,F4,508.667,1.0,64,176.0
6649,D5,508.667,1.0,64,176.0
6650,G#4,509.0,1.0,64,176.0
6651,G2,509.0,1.0,64,176.0
6652,B6,509.0,0.75,64,176.0
6653,E-3,509.0,0.75,64,176.0
6654,A2,509.0,1.0,64,176.0
6655,A3,509.0,1.0,64,176.0
6656,B-5,509.667,0.333,64,176.0
6657,C#5,509.667,0.333,64,176.0
6658,C#5,509.667,0.333,64,176.0
6659,D5,509.667,0.333,64,176.0
6660,F4,509.667,0.333,64,176.0
6661,F3,509.667,0.333,64,176.0
6662,F4,509.667,0.333,64,176.0
6663,F4,509.667,1.0,64,176.0
6664,D5,509.667,1.0,64,176.0
6665,E-3,509.75,0.25,64,176.0
6666,B-5,510.0,0.667,64,176.0
6667,G4,510.0,1.0,64,176.0
6668,F2,510.0,1.0,64,176.0
6669,D5,510.0,0.667,64,176.0
6670,F4,510.0,0.667,64,176.0
6671,E-3,510.0,1.0,64,176.0
6672,G2,510.0,1.0,64,176.0
6673,B-5,510.334,0.333,64,176.0
6674,B-5,510.667,0.333,64,176.0
6675,G#4,510.667,0.333,64,176.0
6676,C#5,510.667,0.333,64,176.0
6677,D5,510.667,0.333,64,176.0
6678,F4,510.667,0.333,64,176.0
6679,B-5,511.0,0.667,64,176.0
6680,F4,511.0,1.0,64,176.0
6681,D2,511.0,1.0,64,176.0
6682,D5,511.0,0.667,64,176.0
6683,F4,511.0,0.667,64,176.0
6684,B6,511.0,0.75,64,176.0
6685,E-3,511.0,0.75,64,176.0
6686,F2,511.0,1.0,64,176.0
6687,A3,511.0,1.0,64,176.0
6688,F4,511.334,0.333,64,176.0
6689,D5,511.334,0.333,64,176.0
6690,B-5,511.667,0.333,64,176.0
6691,B-4,511.667,0.333,64,176.0
6692,B-4,511.667,0.333,64,176.0
6693,D5,511.667,0.333,64,176.0
6694,F4,511.667,0.333,64,176.0
6695,F3,511.667,0.333,64,176.0
6696,F4,511.667,0.333,64,176.0
6697,E-3,511.75,0.25,64,176.0
6698,D4,512.0,1.0,64,176.0
6699,E-2,512.0,1.0,64,176.0
6700,E-3,512.0,1.0,64,176.0
6701,F2,512.0,1.0,64,176.0
6702,C#6,512.334,0.333,64,176.0
6703,F4,512.334,0.333,64,176.0
6704,D5,512.334,0.333,64,176.0
6705,B-5,512.667,0.333,64,176.0
6706,G#4,512.667,0.333,64,176.0
6707,C#5,512.667,0.333,64,176.0
6708,C#5,512.667,0.333,64,176.0
6709,G4,512.667,0.333,64,176.0
6710,F4,512.667,0.667,64,176.0
6711,D5,512.667,0.667,64,176.0
6712,E-4,513.0,1.0,64,176.0
6713,G2,513.0,1.0,64,176.0
6714,B6,513.0,0.75,64,176.0
6715,E-3,513.0,0.75,64,176.0
6716,G2,513.0,1.0,64,176.0
6717,A3,513.0,1.0,64,176.0
6718,F4,513.334,0.333,64,176.0
6719,D5,513.334,0.333,64,176.0
6720,B-4,513.667,0.333,64,176.0
6721,B-4,513.667,0.333,64,176.0
6722,F3,513.667,0.333,64,176.0
6723,F4,513.667,0.333,64,176.0
6724,F4,513.667,0.667,64,176.0
6725,D5,513.667,0.667,64,176.0
6726,E-3,513.75,0.25,64,176.0
6727,B-5,514.0,1.0,64,176.0
6728,G4,514.0,1.0,64,176.0
6729,B-2,514.0,1.0,64,176.0
6730,C#5,514.0,1.0,64,176.0
6731,G4,514.0,1.0,64,176.0
6732,E-3,514.0,1.0,64,176.0
6733,A2,514.0,1.0,64,176.0
6734,B-5,514.334,0.333,64,176.0
6735,F4,514.334,0.333,64,176.0
6736,D5,514.334,0.333,64,176.0
6737,G#4,514.667,0.333,64,176.0
6738,C#5,514.667,0.333,64,176.0
6739,B-5,515.0,1.0,64,176.0
6740,B-4,515.0,1.0,64,176.0
6741,G2,515.0,1.0,64,176.0
6742,C#5,515.0,1.0,64,176.0
6743,G4,515.0,1.0,64,176.0
6744,B6,515.0,0.75,64,176.0
6745,E-3,515.0,0.75,64,176.0
6746,B2,515.0,1.0,64,176.0
6747,A3,515.0,1.0,64,176.0
6748,G4,515.334,0.333,64,176.0
6749,C#5,515.334,0.333,64,176.0
6750,B-4,515.667,0.333,64,176.0
6751,B-4,515.667,0.333,64,176.0
6752,F3,515.667,0.333,64,176.0
6753,F4,515.667,0.333,64,176.0
6754,E-3,515.75,0.25,64,176.0
6755,G4,516.0,1.0,64,176.0
6756,E-2,516.0,1.0,64,176.0
6757,E-3,516.0,1.0,64,176.0
6758,B2,516.0,1.0,64,176.0
6759,B-5,516.334,0.333,64,176.0
6760,B-5,516.667,0.333,64,176.0
6761,G#4,516.667,0.333,64,176.0
6762,C#5,516.667,0.333,64,176.0
6763,C#5,516.667,0.333,64,176.0
6764,G4,516.667,0.333,64,176.0
6765,G4,516.667,1.0,64,176.0
6766,C#5,516.667,1.0,64,176.0
6767,E-4,517.0,1.0,64,176.0
6768,G2,517.0,1.0,64,176.0
6769,B6,517.0,0.75,64,176.0
6770,E-3,517.0,0.75,64,176.0
6771,A2,517.0,1.0,64,176.0
6772,A3,517.0,1.0,64,176.0
6773,B-5,517.667,0.333,64,176.0
6774,C#5,517.667,0.333,64,176.0
6775,C#5,517.667,0.333,64,176.0
6776,C#5,517.667,0.333,64,176.0
6777,G4,517.667,0.333,64,176.0
6778,F3,517.667,0.333,64,176.0
6779,F4,517.667,0.333,64,176.0
6780,G4,517.667,1.0,64,176.0
6781,C#5,517.667,1.0,64,176.0
6782,E-3,517.75,0.25,64,176.0
6783,B-5,518.0,0.667,64,176.0
6784,G4,518.0,1.0,64,176.0
6785,B-2,518.0,1.0,64,176.0
6786,C#5,518.0,0.667,64,176.0
6787,G4,518.0,0.667,64,176.0
6788,E-3,518.0,1.0,64,176.0
6789,G2,518.0,1.0,64,176.0
6790,B-5,518.334,0.333,64,176.0
6791,B-5,518.667,0.333,64,176.0
6792,G#4,518.667,0.333,64,176.0
6793,C#5,518.667,0.333,64,176.0
6794,C#5,518.667,0.333,64,176.0
6795,G4,518.667,0.333,64,176.0
6796,B-5,519.0,0.667,64,176.0
6797,B-4,519.0,1.0,64,176.0
6798,G2,519.0,1.0,64,176.0
6799,C#5,519.0,0.667,64,176.0
6800,G4,519.0,0.667,64,176.0
6801,B6,519.0,0.75,64,176.0
6802,E-3,519.0,0.75,64,176.0
6803,F2,519.0,1.0,64,176.0
6804,A3,519.0,1.0,64,176.0
6805,G4,519.334,0.333,64,176.0
6806,C#5,519.334,0.333,64,176.0
6807,B-5,519.667,0.333,64,176.0
6808,B-4,519.667,0.333,64,176.0
6809,B-4,519.667,0.333,64,176.0
6810,C#5,519.667,0.333,64,176.0
6811,G4,519.667,0.333,64,176.0
6812,F3,519.667,0.333,64,176.0
6813,F4,519.667,0.333,64,176.0
6814,E-3,519.75,0.25,64,176.0
6815,G4,520.0,1.0,64,176.0
6816,B-1,520.0,1.0,64,176.0
6817,E-3,520.0,1.0,64,176.0
6818,F2,520.0,1.0,64,176.0
6819,C#6,520.334,0.333,64,176.0
6820,G4,520.334,0.333,64,176.0
6821,C#5,520.334,0.333,64,176.0
6822,B-5,520.667,0.333,64,176.0
6823,G#4,520.667,0.333,64,176.0
6824,C#5,520.667,0.333,64,176.0
6825,D5,520.667,0.333,64,176.0
6826,F4,520.667,0.333,64,176.0
6827,G4,520.667,0.667,64,176.0
6828,C#5,520.667,0.667,64,176.0
6829,B-3,521.0,1.0,64,176.0
6830,D2,521.0,1.0,64,176.0
6831,B6,521.0,0.75,64,176.0
6832,E-3,521.0,0.75,64,176.0
6833,G2,521.0,1.0,64,176.0
6834,A3,521.0,1.0,64,176.0
6835,G4,521.334,0.333,64,176.0
6836,C#5,521.334,0.333,64,176.0
6837,B-4,521.667,0.333,64,176.0
6838,B-4,521.667,0.333,64,176.0
6839,F3,521.667,0.333,64,176.0
6840,F4,521.667,0.333,64,176.0
6841,G4,521.667,0.667,64,176.0
6842,C#5,521.667,0.667,64,176.0
6843,E-3,521.75,0.25,64,176.0
6844,B-5,522.0,1.0,64,176.0
6845,D4,522.0,1.0,64,176.0
6846,F2,522.0,1.0,64,176.0
6847,D5,522.0,1.0,64,176.0
6848,F4,522.0,1.0,64,176.0
6849,E-3,522.0,1.0,64,176.0
6850,A2,522.0,1.0,64,176.0
6851,B-5,522.334,0.333,64,176.0
6852,G4,522.334,0.333,64,176.0
6853,C#5,522.334,0.333,64,176.0
6854,G#4,522.667,0.333,64,176.0
6855,C#5,522.667,0.333,64,176.0
6856,B-5,523.0,1.0,64,176.0
6857,F4,523.0,1.0,64,176.0
6858,G2,523.0,1.0,64,176.0
6859,D5,523.0,1.0,64,176.0
6860,F4,523.0,1.0,64,176.0
6861,B6,523.0,0.75,64,176.0
6862,E-3,523.0,0.75,64,176.0
6863,B2,523.0,1.0,64,176.0
6864,A3,523.0,1.0,64,176.0
6865,F4,523.334,0.333,64,176.0
6866,D5,523.334,0.333,64,176.0
6867,B-4,523.667,0.333,64,176.0
6868,B-4,523.667,0.333,64,176.0
6869,F3,523.667,0.333,64,176.0
6870,F4,523.667,0.333,64,176.0
6871,E-3,523.75,0.25,64,176.0
6872,G4,524.0,1.0,64,176.0
6873,G#2,524.0,1.0,64,176.0
6874,E-3,524.0,1.0,64,176.0
6875,B2,524.0,1.0,64,176.0
6876,B-5,524.334,0.333,64,176.0
6877,B-5,524.667,0.333,64,176.0
6878,G#4,524.667,0.333,64,176.0
6879,C#5,524.667,0.333,64,176.0
6880,D5,524.667,0.333,64,176.0
6881,F4,524.667,0.333,64,176.0
6882,F4,524.667,1.0,64,176.0
6883,D5,524.667,1.0,64,176.0
6884,G#4,525.0,1.0,64,176.0
6885,G2,525.0,1.0,64,176.0
6886,B6,525.0,0.75,64,176.0
6887,E-3,525.0,0.75,64,176.0
6888,A2,525.0,1.0,64,176.0
6889,A3,525.0,1.0,64,176.0
6890,B-5,525.667,0.333,64,176.0
6891,C#5,525.667,0.333,64,176.0
6892,C#5,525.667,0.333,64,176.0
6893,D5,525.667,0.333,64,176.0
6894,F4,525.667,0.333,64,176.0
6895,F3,525.667,0.333,64,176.0
6896,F4,525.667,0.333,64,176.0
6897,F4,525.667,1.0,64,176.0
6898,D5,525.667,1.0,64,176.0
6899,E-3,525.75,0.25,64,176.0
6900,B-5,526.0,0.667,64,176.0
6901,G4,526.0,1.0,64,176.0
6902,G2,526.0,1.0,64,176.0
6903,F2,526.0,1.0,64,176.0
6904,D5,526.0,0.667,64,176.0
6905,F4,526.0,0.667,64,176.0
6906,B-5,526.334,0.333,64,176.0
6907,B-5,526.667,0.333,64,176.0
6908,G#4,526.667,0.333,64,176.0
6909,C#5,526.667,0.333,64,176.0
6910,B6,526.667,0.333,64,176.0
6911,D5,526.667,0.333,64,176.0
6912,F4,526.667,0.333,64,176.0
6913,B-5,527.0,0.667,64,176.0
6914,F4,527.0,1.0,64,176.0
6915,B6,527.0,0.333,64,176.0
6916,D2,527.0,1.0,64,176.0
6917,D5,527.0,0.667,64,176.0
6918,F4,527.0,0.667,64,176.0
6919,F2,527.0,1.0,64,176.0
6920,A3,527.0,1.0,64,176.0
6921,B6,527.333,0.334,64,176.0
6922,F4,527.334,0.333,64,176.0
6923,D5,527.334,0.333,64,176.0
6924,B-5,527.667,0.333,64,176.0
6925,B-4,527.667,0.333,64,176.0
6926,B6,527.667,0.333,64,176.0
6927,B-4,527.667,0.333,64,176.0
6928,D5,527.667,0.333,64,176.0
6929,F4,527.667,0.333,64,176.0
6930,F3,527.667,0.333,64,176.0
6931,F4,527.667,0.333,64,176.0
6932,D4,528.0,1.0,64,176.0
6933,C#2,528.0,0.667,64,176.0
6934,F2,528.0,1.0,64,176.0
6935,C2,528.0,1.0,64,176.0
6936,C#6,528.334,0.333,64,176.0
6937,F4,528.334,0.333,64,176.0
6938,D5,528.334,0.333,64,176.0
6939,B-4,528.5,1.5,64,176.0
6940,A3,528.5,1.5,64,176.0
6941,G4,528.667,1.333,64,176.0
6942,B-5,528.667,1.333,64,176.0
6943,F4,528.667,1.333,64,176.0
6944,B-4,528.667,1.333,64,176.0
6945,F4,528.667,0.667,64,176.0
6946,D5,528.667,0.667,64,176.0
6947,G4,528.667,1.333,64,176.0
6948,B-4,528.667,1.333,64,176.0
6949,B6,528.667,0.333,64,176.0
6950,D3,528.667,0.333,64,176.0
6951,G4,528.667,1.333,64,176.0
6952,B-4,528.667,1.333,64,176.0
6953,C4,529.0,1.0,64,176.0
6954,G2,529.0,1.0,64,176.0
6955,D2,529.0,1.0,64,176.0
6956,F4,529.334,0.333,64,176.0
6957,D5,529.334,0.333,64,176.0
6958,F3,529.667,1.333,64,176.0
6959,D3,529.667,0.031,64,176.0
6960,C3,529.667,0.166,64,176.0
6961,F4,529.667,0.667,64,176.0
6962,D5,529.667,0.667,64,176.0
6963,B2,529.833,0.167,64,176.0
6964,G4,530.0,0.5,64,176.0
6965,E-4,530.0,0.667,64,176.0
6966,G5,530.0,0.667,64,176.0
6967,C4,530.0,0.667,64,176.0
6968,D4,530.0,1.0,64,176.0
6969,G4,530.0,0.667,64,176.0
6970,E-2,530.0,1.0,64,176.0
6971,E-4,530.0,0.667,64,176.0
6972,G4,530.0,0.667,64,176.0
6973,B6,530.0,0.667,64,176.0
6974,A2,530.0,0.667,64,176.0
6975,A2,530.0,1.0,64,176.0
6976,A3,530.0,1.0,64,176.0
6977,E-4,530.0,0.667,64,176.0
6978,G4,530.0,0.667,64,176.0
6979,B-5,530.334,0.333,64,176.0
6980,F4,530.334,0.333,64,176.0
6981,D5,530.334,0.333,64,176.0
6982,B-4,530.5,0.5,64,176.0
6983,G4,530.667,0.333,64,176.0
6984,F5,530.667,0.333,64,176.0
6985,F4,530.667,0.333,64,176.0
6986,F4,530.667,0.333,64,176.0
6987,G4,530.667,0.333,64,176.0
6988,B-4,530.667,0.333,64,176.0
6989,B6,530.667,0.333,64,176.0
6990,B2,530.667,0.333,64,176.0
6991,G4,530.667,0.333,64,176.0
6992,B-4,530.667,0.333,64,176.0
6993,C3,531.0,0.667,64,176.0
6994,E-4,531.0,1.0,64,176.0
6995,B2,531.0,1.0,64,176.0
6996,E2,531.0,1.0,64,176.0
6997,B-5,531.334,1.333,64,176.0
6998,G4,531.334,1.333,64,176.0
6999,B-4,531.334,1.333,64,176.0
7000,F3,531.667,0.333,64,176.0
7001,E4,532.0,1.0,64,176.0
7002,C#2,532.0,0.667,64,176.0
7003,B2,532.0,1.0,64,176.0
7004,F2,532.0,1.0,64,176.0
7005,B-4,532.5,1.5,64,176.0
7006,A3,532.5,1.5,64,176.0
7007,G4,532.667,1.333,64,176.0
7008,B-5,532.667,1.333,64,176.0
7009,F4,532.667,1.333,64,176.0
7010,B-4,532.667,1.333,64,176.0
7011,G5,532.667,0.667,64,176.0
7012,E-4,532.667,0.667,64,176.0
7013,G4,532.667,0.667,64,176.0
7014,G4,532.667,1.333,64,176.0
7015,B-4,532.667,1.333,64,176.0
7016,B6,532.667,0.333,64,176.0
7017,D3,532.667,0.333,64,176.0
7018,G4,532.667,1.333,64,176.0
7019,B-4,532.667,1.333,64,176.0
7020,F4,533.0,1.0,64,176.0
7021,A2,533.0,1.0,64,176.0
7022,E-2,533.0,1.0,64,176.0
7023,F5,533.334,0.333,64,176.0
7024,G4,533.334,0.333,64,176.0
7025,B-4,533.334,0.333,64,176.0
7026,F3,533.667,1.333,64,176.0
7027,D3,533.667,0.031,64,176.0
7028,C3,533.667,0.166,64,176.0
7029,B2,533.833,0.167,64,176.0
7030,G4,534.0,0.5,64,176.0
7031,E-4,534.0,0.667,64,176.0
7032,G5,534.0,0.667,64,176.0
7033,C4,534.0,0.667,64,176.0
7034,E-4,534.0,1.0,64,176.0
7035,G4,534.0,0.667,64,176.0
7036,D2,534.0,1.0,64,176.0
7037,E-4,534.0,0.667,64,176.0
7038,G4,534.0,0.667,64,176.0
7039,B6,534.0,0.667,64,176.0
7040,A2,534.0,0.667,64,176.0
7041,G2,534.0,1.0,64,176.0
7042,A3,534.0,1.0,64,176.0
7043,E-4,534.0,0.667,64,176.0
7044,G4,534.0,0.667,64,176.0
7045,B-4,534.5,0.5,64,176.0
7046,G4,534.667,0.333,64,176.0
7047,F5,534.667,0.333,64,176.0
7048,F4,534.667,0.333,64,176.0
7049,F4,534.667,0.333,64,176.0
7050,G4,534.667,0.333,64,176.0
7051,B-4,534.667,0.333,64,176.0
7052,B6,534.667,0.333,64,176.0
7053,B2,534.667,0.333,64,176.0
7054,G4,534.667,0.333,64,176.0
7055,B-4,534.667,0.333,64,176.0
7056,C3,535.0,0.667,64,176.0
7057,D4,535.0,1.0,64,176.0
7058,F2,535.0,1.0,64,176.0
7059,C2,535.0,1.0,64,176.0
7060,B-5,535.334,1.333,64,176.0
7061,G4,535.334,1.333,64,176.0
7062,B-4,535.334,1.333,64,176.0
7063,F3,535.667,0.333,64,176.0
7064,B-5,536.0,0.031,64,176.0
7065,B-3,536.0,0.031,64,176.0
7066,C4,536.0,1.0,64,176.0
7067,B-3,536.0,0.031,64,176.0
7068,B-3,536.0,0.031,64,176.0
7069,B-1,536.0,0.031,64,176.0
7070,B-3,536.0,0.031,64,176.0
7071,B-4,536.0,0.031,64,176.0
7072,B-3,536.0,0.031,64,176.0
7073,B6,536.0,1.0,64,176.0
7074,D3,536.0,1.0,64,176.0
7075,F2,536.0,1.0,64,176.0
7076,G2,536.0,1.0,64,176.0
7077,A2,536.0,1.0,64,176.0
7078,B2,536.0,1.0,64,176.0
7079,G5,536.667,0.667,64,176.0
7080,E-4,536.667,0.667,64,176.0
7081,G4,536.667,0.667,64,176.0
7082,B-5,537.0,0.333,64,176.0
7083,B-3,537.0,0.333,64,176.0
7084,B-3,537.0,0.333,64,176.0
7085,B-3,537.0,0.333,64,176.0
7086,B-1,537.0,0.333,64,176.0
7087,B-3,537.0,0.333,64,176.0
7088,B-4,537.0,0.333,64,176.0
7089,B-3,537.0,0.333,64,176.0
7090,B-3,537.0,0.031,64,176.0
7091,B-3,537.0,0.031,64,176.0
7092,B6,537.0,0.333,64,176.0
7093,A2,537.0,0.333,64,176.0
7094,F2,537.0,0.333,64,176.0
7095,G2,537.0,0.333,64,176.0
7096,A2,537.0,0.333,64,176.0
7097,B2,537.0,0.333,64,176.0
7098,C6,537.333,0.334,64,176.0
7099,C4,537.333,0.334,64,176.0
7100,C4,537.333,0.334,64,176.0
7101,C4,537.333,0.334,64,176.0
7102,C2,537.333,0.334,64,176.0
7103,C4,537.333,0.334,64,176.0
7104,C5,537.333,0.334,64,176.0
7105,C4,537.333,0.334,64,176.0
7106,B6,537.333,0.334,64,176.0
7107,B2,537.333,0.334,64,176.0
7108,F2,537.333,0.334,64,176.0
7109,G2,537.333,0.334,64,176.0
7110,A2,537.333,0.334,64,176.0
7111,B2,537.333,0.334,64,176.0
7112,F5,537.334,0.333,64,176.0
7113,G4,537.334,0.333,64,176.0
7114,B-4,537.334,0.333,64,176.0
7115,D6,537.667,0.333,64,176.0
7116,D4,537.667,0.333,64,176.0
7117,D4,537.667,0.333,64,176.0
7118,D4,537.667,0.333,64,176.0
7119,D2,537.667,0.333,64,176.0
7120,D4,537.667,0.333,64,176.0
7121,D5,537.667,0.333,64,176.0
7122,D4,537.667,0.333,64,176.0
7123,B6,537.667,0.333,64,176.0
7124,C3,537.667,0.333,64,176.0
7125,F2,537.667,0.333,64,176.0
7126,G2,537.667,0.333,64,176.0
7127,A2,537.667,0.333,64,176.0
7128,B2,537.667,0.333,64,176.0
7129,F6,538.0,0.367,64,176.0
7130,F4,538.0,0.367,64,176.0
7131,F4,538.0,0.367,64,176.0
7132,F4,538.0,0.367,64,176.0
7133,F2,538.0,0.367,64,176.0
7134,F4,538.0,0.367,64,176.0
7135,F5,538.0,0.367,64,176.0
7136,F4,538.0,0.367,64,176.0
7137,B-3,538.0,0.333,64,176.0
7138,B-3,538.0,0.333,64,176.0
7139,B6,538.0,0.667,64,176.0
7140,D3,538.0,0.667,64,176.0
7141,F2,538.0,0.667,64,176.0
7142,G2,538.0,0.667,64,176.0
7143,A2,538.0,0.667,64,176.0
7144,B2,538.0,0.667,64,176.0
7145,C4,538.333,0.334,64,176.0
7146,C4,538.333,0.334,64,176.0
7147,E-6,538.667,0.333,64,176.0
7148,E-4,538.667,0.333,64,176.0
7149,E-4,538.667,0.333,64,176.0
7150,E-4,538.667,0.333,64,176.0
7151,E-2,538.667,0.333,64,176.0
7152,E-4,538.667,0.333,64,176.0
7153,E-5,538.667,0.333,64,176.0
7154,E-4,538.667,0.333,64,176.0
7155,D4,538.667,0.333,64,176.0
7156,D4,538.667,0.333,64,176.0
7157,B-4,538.667,0.031,64,176.0
7158,B-3,538.667,0.031,64,176.0
7159,B6,538.667,0.333,64,176.0
7160,C3,538.667,0.333,64,176.0
7161,F2,538.667,0.333,64,176.0
7162,G2,538.667,0.333,64,176.0
7163,A2,538.667,0.333,64,176.0
7164,B2,538.667,0.333,64,176.0
7165,B-5,539.0,0.367,64,176.0
7166,B-3,539.0,0.367,64,176.0
7167,B-3,539.0,0.367,64,176.0
7168,B-3,539.0,0.367,64,176.0
7169,B-1,539.0,0.367,64,176.0
7170,B-3,539.0,0.367,64,176.0
7171,B-4,539.0,0.367,64,176.0
7172,B-3,539.0,0.367,64,176.0
7173,F4,539.0,0.367,64,176.0
7174,F4,539.0,0.367,64,176.0
7175,B6,539.0,0.667,64,176.0
7176,B2,539.0,0.667,64,176.0
7177,F2,539.0,0.667,64,176.0
7178,G2,539.0,0.667,64,176.0
7179,A2,539.0,0.667,64,176.0
7180,B2,539.0,0.667,64,176.0
7181,C6,539.667,0.333,64,176.0
7182,C4,539.667,0.333,64,176.0
7183,C4,539.667,0.333,64,176.0
7184,C4,539.667,0.333,64,176.0
7185,C2,539.667,0.333,64,176.0
7186,C4,539.667,0.333,64,176.0
7187,C5,539.667,0.333,64,176.0
7188,C4,539.667,0.333,64,176.0
7189,E-4,539.667,0.333,64,176.0
7190,E-4,539.667,0.333,64,176.0
7191,B-4,539.667,0.333,64,176.0
7192,B-3,539.667,0.333,64,176.0
7193,B6,539.667,0.333,64,176.0
7194,A2,539.667,0.333,64,176.0
7195,F2,539.667,0.333,64,176.0
7196,G2,539.667,0.333,64,176.0
7197,A2,539.667,0.333,64,176.0
7198,B2,539.667,0.333,64,176.0
7199,D6,540.0,0.4,64,176.0
7200,D4,540.0,0.4,64,176.0
7201,D4,540.0,0.4,64,176.0
7202,D4,540.0,0.4,64,176.0
7203,D2,540.0,0.4,64,176.0
7204,D4,540.0,0.4,64,176.0
7205,D5,540.0,0.4,64,176.0
7206,D4,540.0,0.4,64,176.0
7207,B-3,540.0,0.367,64,176.0
7208,B-3,540.0,0.367,64,176.0
7209,C5,540.0,0.334,64,176.0
7210,C4,540.0,0.334,64,176.0
7211,B6,540.0,1.0,64,176.0
7212,A2,540.0,1.0,64,176.0
7213,B2,540.0,1.0,64,176.0
7214,F2,540.0,1.0,64,176.0
7215,G2,540.0,1.0,64,176.0
7216,A2,540.0,1.0,64,176.0
7217,B2,540.0,1.0,64,176.0
7218,D5,540.334,0.333,64,176.0
7219,D4,540.334,0.333,64,176.0
7220,C4,540.667,0.333,64,176.0
7221,C4,540.667,0.333,64,176.0
7222,F5,540.667,0.367,64,176.0
7223,F4,540.667,0.367,64,176.0
7224,F6,541.0,0.667,90,176.0
7225,F4,541.0,0.667,90,176.0
7226,F4,541.0,0.667,90,176.0
7227,F2,541.0,0.667,90,176.0
7228,F4,541.0,0.667,90,176.0
7229,F5,541.0,0.667,90,176.0
7230,F4,541.0,0.667,90,176.0
7231,D4,541.0,0.4,64,176.0
7232,D4,541.0,0.4,64,176.0
7233,C4,541.0,0.667,90,176.0
7234,F4,541.0,0.667,90,176.0
7235,B6,541.0,0.667,64,176.0
7236,B2,541.0,0.667,64,176.0
7237,C3,541.0,0.667,64,176.0
7238,F2,541.0,0.667,64,176.0
7239,G2,541.0,0.667,64,176.0
7240,A2,541.0,0.667,64,176.0
7241,B2,541.0,0.667,64,176.0
7242,A3,541.0,0.667,64,176.0
7243,E-5,541.334,0.333,64,176.0
7244,E-4,541.334,0.333,64,176.0
7245,B-4,541.5,2.5,90,176.0
7246,B-4,541.5,2.5,90,176.0
7247,B-4,541.5,2.5,90,176.0
7248,B-5,541.5,2.5,90,176.0
7249,G#4,541.5,2.5,90,176.0
7250,A3,541.667,0.333,90,176.0
7251,B-5,541.667,2.333,90,176.0
7252,B-6,541.667,2.333,90,176.0
7253,B-4,541.667,0.367,64,176.0
7254,B-3,541.667,0.367,64,176.0
7255,D4,541.667,2.333,90,176.0
7256,B-4,541.667,2.333,90,176.0
7257,B6,541.667,2.333,90,176.0
7258,C3,541.667,2.333,90,176.0
7259,D3,541.667,2.333,90,176.0
7260,F2,541.667,2.333,90,176.0
7261,G2,541.667,2.333,90,176.0
7262,A2,541.667,2.333,90,176.0
7263,B2,541.667,2.333,90,176.0
7264,B-1,541.667,2.333,90,176.0
7265,B-2,541.667,2.333,90,176.0
7266,F4,542.0,0.667,90,176.0
7267,F4,542.0,0.667,90,176.0
7268,C5,542.334,0.333,64,176.0
7269,C4,542.334,0.333,64,176.0
7270,B-3,542.667,2.333,103,176.0
7271,B-4,542.667,2.333,103,176.0
7272,B-3,542.667,2.333,103,176.0
7273,B-4,542.667,2.333,103,176.0
7274,D5,542.667,0.4,64,176.0
7275,D4,542.667,0.4,64,176.0
7276,F5,543.667,0.667,90,176.0
7277,D4,543.667,0.667,90,176.0
7278,B-5,544.167,2.5,90,176.0
7279,F4,544.167,2.5,90,176.0
