,note_name,start_time,duration,velocity,tempo
0,F#2,0.0,1.0,95,110.0
1,F#2,1.0,1.0,95,110.0
2,F#2,2.0,0.5,95,110.0
3,F#2,2.5,0.5,95,110.0
4,F#2,3.0,0.5,95,110.0
5,B-2,3.5,0.5,95,110.0
6,C4,4.0,1.0,95,110.0
7,C2,4.0,1.0,95,110.0
8,G2,4.0,479/500,95,110.0
9,C3,4.0,479/500,95,110.0
10,E3,4.0,479/500,95,110.0
11,G3,4.0,479/500,95,110.0
12,C4,4.0,479/500,95,110.0
13,E4,4.0,479/500,95,110.0
14,G#2,4.0,0.5,95,110.0
15,C2,4.0,0.5,95,110.0
16,G#2,4.5,0.5,95,110.0
17,B-2,4.5,0.5,95,110.0
18,C4,5.0,1.0,95,110.0
19,C3,5.0,483/1000,95,110.0
20,E3,5.0,483/1000,95,110.0
21,G3,5.0,483/1000,95,110.0
22,G#2,5.0,0.5,95,110.0
23,D2,5.0,0.5,95,110.0
24,C2,5.5,23/200,95,110.0
25,E4,5.5,0.969,95,110.0
26,C4,5.5,0.969,95,110.0
27,G3,5.5,0.969,95,110.0
28,G#2,5.5,0.5,95,110.0
29,C2,5.5,0.5,95,110.0
30,G#2,6.0,0.5,95,110.0
31,B3,6.0,0.5,95,110.0
32,C2,6.0,1.0,95,110.0
33,C4,6.5,1.0,95,110.0
34,E4,6.5,123/250,95,110.0
35,C4,6.5,123/250,95,110.0
36,G3,6.5,123/250,95,110.0
37,G#2,6.5,0.5,95,110.0
38,C2,6.5,0.5,95,110.0
39,G1,7.0,1.0,95,110.0
40,C3,7.0,39/40,95,110.0
41,E3,7.0,39/40,95,110.0
42,G3,7.0,39/40,95,110.0
43,C4,7.0,39/40,95,110.0
44,G#2,7.0,0.5,95,110.0
45,D2,7.0,0.5,95,110.0
46,G#2,7.5,0.5,95,110.0
47,B3,7.5,0.5,95,110.0
48,D4,8.0,0.5,95,110.0
49,C2,8.0,1.0,95,110.0
50,G2,8.0,479/500,95,110.0
51,C3,8.0,479/500,95,110.0
52,E3,8.0,479/500,95,110.0
53,G3,8.0,479/500,95,110.0
54,C4,8.0,479/500,95,110.0
55,E4,8.0,479/500,95,110.0
56,G#2,8.0,0.5,95,110.0
57,C2,8.0,0.5,95,110.0
58,C4,8.5,0.5,95,110.0
59,G#2,8.5,0.5,95,110.0
60,B-2,8.5,0.5,95,110.0
61,C4,9.0,3.0,95,110.0
62,C3,9.0,483/1000,95,110.0
63,E3,9.0,483/1000,95,110.0
64,G3,9.0,483/1000,95,110.0
65,G#2,9.0,0.5,95,110.0
66,D2,9.0,0.5,95,110.0
67,C2,9.5,23/200,95,110.0
68,E4,9.5,0.969,95,110.0
69,C4,9.5,0.969,95,110.0
70,G3,9.5,0.969,95,110.0
71,G#2,9.5,0.5,95,110.0
72,C2,9.5,0.5,95,110.0
73,G#2,10.0,0.5,95,110.0
74,C2,10.0,0.5,95,110.0
75,E1,10.5,0.5,95,110.0
76,E4,10.5,123/250,95,110.0
77,C4,10.5,123/250,95,110.0
78,G3,10.5,123/250,95,110.0
79,G#2,10.5,0.5,95,110.0
80,C2,10.5,0.5,95,110.0
81,F1,11.0,1.0,95,110.0
82,C3,11.0,39/40,95,110.0
83,E3,11.0,39/40,95,110.0
84,G3,11.0,39/40,95,110.0
85,C4,11.0,39/40,95,110.0
86,G#2,11.0,0.5,95,110.0
87,D2,11.0,0.5,95,110.0
88,G#2,11.5,0.5,95,110.0
89,B3,12.0,0.5,95,110.0
90,G1,12.0,1.0,95,110.0
91,G2,12.0,967/1000,95,110.0
92,B2,12.0,967/1000,95,110.0
93,D3,12.0,967/1000,95,110.0
94,G3,12.0,967/1000,95,110.0
95,D4,12.0,967/1000,95,110.0
96,G#2,12.0,0.5,95,110.0
97,C2,12.0,0.5,95,110.0
98,C4,12.5,0.5,95,110.0
99,G#2,12.5,0.5,95,110.0
100,B-2,12.5,0.5,95,110.0
101,D4,13.0,1.0,95,110.0
102,D3,13.0,19/40,95,110.0
103,G3,13.0,19/40,95,110.0
104,D4,13.0,19/40,95,110.0
105,G4,13.0,19/40,95,110.0
106,G#2,13.0,0.5,95,110.0
107,D2,13.0,0.5,95,110.0
108,G1,13.5,23/200,95,110.0
109,G4,13.5,0.953,95,110.0
110,D4,13.5,0.953,95,110.0
111,G3,13.5,0.953,95,110.0
112,D3,13.5,0.953,95,110.0
113,G#2,13.5,0.5,95,110.0
114,C2,13.5,0.5,95,110.0
115,G#2,14.0,0.5,95,110.0
116,C4,14.0,0.5,95,110.0
117,G1,14.0,1.0,95,110.0
118,B3,14.5,0.5,95,110.0
119,G4,14.5,61/125,95,110.0
120,D4,14.5,61/125,95,110.0
121,G3,14.5,61/125,95,110.0
122,D3,14.5,61/125,95,110.0
123,G#2,14.5,0.5,95,110.0
124,C2,14.5,0.5,95,110.0
125,A3,15.0,0.5,95,110.0
126,D1,15.0,1.0,95,110.0
127,G2,15.0,967/1000,95,110.0
128,B2,15.0,967/1000,95,110.0
129,D3,15.0,967/1000,95,110.0
130,G3,15.0,967/1000,95,110.0
131,D4,15.0,967/1000,95,110.0
132,G#2,15.0,0.5,95,110.0
133,D2,15.0,0.5,95,110.0
134,G#2,15.5,0.5,95,110.0
135,B3,15.5,0.5,95,110.0
136,A3,16.0,0.5,95,110.0
137,G1,16.0,1.0,95,110.0
138,G2,16.0,967/1000,95,110.0
139,B2,16.0,967/1000,95,110.0
140,D3,16.0,967/1000,95,110.0
141,G3,16.0,967/1000,95,110.0
142,D4,16.0,967/1000,95,110.0
143,G#2,16.0,0.5,95,110.0
144,C2,16.0,0.5,95,110.0
145,G3,16.5,0.5,95,110.0
146,G#2,16.5,0.5,95,110.0
147,B-2,16.5,0.5,95,110.0
148,G3,17.0,1.5,95,110.0
149,D3,17.0,19/40,95,110.0
150,G3,17.0,19/40,95,110.0
151,D4,17.0,19/40,95,110.0
152,G4,17.0,19/40,95,110.0
153,G#2,17.0,0.5,95,110.0
154,D2,17.0,0.5,95,110.0
155,G1,17.5,23/200,95,110.0
156,G4,17.5,0.953,95,110.0
157,D4,17.5,0.953,95,110.0
158,G3,17.5,0.953,95,110.0
159,D3,17.5,0.953,95,110.0
160,G#2,17.5,0.5,95,110.0
161,C2,17.5,0.5,95,110.0
162,G#2,18.0,0.5,95,110.0
163,G1,18.0,1.0,95,110.0
164,F3,18.5,0.5,95,110.0
165,G4,18.5,61/125,95,110.0
166,D4,18.5,61/125,95,110.0
167,G3,18.5,61/125,95,110.0
168,D3,18.5,61/125,95,110.0
169,G#2,18.5,0.5,95,110.0
170,C2,18.5,0.5,95,110.0
171,A3,19.0,1.0,95,110.0
172,D1,19.0,1.0,95,110.0
173,G2,19.0,967/1000,95,110.0
174,B2,19.0,967/1000,95,110.0
175,D3,19.0,967/1000,95,110.0
176,G3,19.0,967/1000,95,110.0
177,D4,19.0,967/1000,95,110.0
178,G#2,19.0,0.5,95,110.0
179,D2,19.0,0.5,95,110.0
180,G#2,19.5,0.5,95,110.0
181,A3,20.0,1.0,95,110.0
182,F1,20.0,1.0,95,110.0
183,F2,20.0,967/1000,95,110.0
184,C3,20.0,967/1000,95,110.0
185,F3,20.0,967/1000,95,110.0
186,A3,20.0,967/1000,95,110.0
187,C4,20.0,967/1000,95,110.0
188,G#2,20.0,0.5,95,110.0
189,C2,20.0,0.5,95,110.0
190,G#2,20.5,0.5,95,110.0
191,B-2,20.5,0.5,95,110.0
192,A3,21.0,1.0,95,110.0
193,E2,21.0,19/40,95,110.0
194,C3,21.0,19/40,95,110.0
195,F3,21.0,19/40,95,110.0
196,A3,21.0,19/40,95,110.0
197,G#2,21.0,0.5,95,110.0
198,D2,21.0,0.5,95,110.0
199,F1,21.5,23/200,95,110.0
200,F4,21.5,0.969,95,110.0
201,C4,21.5,0.969,95,110.0
202,A3,21.5,0.969,95,110.0
203,G#2,21.5,0.5,95,110.0
204,C2,21.5,0.5,95,110.0
205,G#2,22.0,0.5,95,110.0
206,G3,22.0,0.5,95,110.0
207,F1,22.0,1.0,95,110.0
208,A3,22.5,1.0,95,110.0
209,F4,22.5,61/125,95,110.0
210,C4,22.5,61/125,95,110.0
211,A3,22.5,61/125,95,110.0
212,F3,22.5,61/125,95,110.0
213,G#2,22.5,0.5,95,110.0
214,C2,22.5,0.5,95,110.0
215,C1,23.0,1.0,95,110.0
216,C3,23.0,967/1000,95,110.0
217,F3,23.0,967/1000,95,110.0
218,A3,23.0,967/1000,95,110.0
219,C4,23.0,967/1000,95,110.0
220,F4,23.0,967/1000,95,110.0
221,G#2,23.0,0.5,95,110.0
222,D2,23.0,0.5,95,110.0
223,G#2,23.5,0.5,95,110.0
224,F3,23.5,0.5,95,110.0
225,G3,24.0,0.5,95,110.0
226,D1,24.0,1.0,95,110.0
227,D3,24.0,39/40,95,110.0
228,A3,24.0,39/40,95,110.0
229,D4,24.0,39/40,95,110.0
230,F4,24.0,39/40,95,110.0
231,G#2,24.0,0.5,95,110.0
232,C2,24.0,0.5,95,110.0
233,D3,24.5,0.5,95,110.0
234,G#2,24.5,0.5,95,110.0
235,B-2,24.5,0.5,95,110.0
236,D3,25.0,3.0,95,110.0
237,D3,25.0,483/1000,95,110.0
238,A3,25.0,483/1000,95,110.0
239,D4,25.0,483/1000,95,110.0
240,G#2,25.0,0.5,95,110.0
241,D2,25.0,0.5,95,110.0
242,D1,25.5,23/200,95,110.0
243,A4,25.5,0.953,95,110.0
244,F4,25.5,0.953,95,110.0
245,D4,25.5,0.953,95,110.0
246,A3,25.5,0.953,95,110.0
247,G#2,25.5,0.5,95,110.0
248,C2,25.5,0.5,95,110.0
249,G#2,26.0,0.5,95,110.0
250,D1,26.0,1.0,95,110.0
251,A4,26.5,61/125,95,110.0
252,F4,26.5,61/125,95,110.0
253,D4,26.5,61/125,95,110.0
254,A3,26.5,61/125,95,110.0
255,G#2,26.5,0.5,95,110.0
256,C2,26.5,0.5,95,110.0
257,E1,27.0,1.0,95,110.0
258,D3,27.0,967/1000,95,110.0
259,A3,27.0,967/1000,95,110.0
260,D4,27.0,967/1000,95,110.0
261,F4,27.0,967/1000,95,110.0
262,A4,27.0,967/1000,95,110.0
263,G#2,27.0,0.5,95,110.0
264,D2,27.0,0.5,95,110.0
265,G#2,27.5,0.5,95,110.0
266,B2,28.0,0.5,95,110.0
267,G1,28.0,1.0,95,110.0
268,G2,28.0,967/1000,95,110.0
269,B2,28.0,967/1000,95,110.0
270,D3,28.0,967/1000,95,110.0
271,G3,28.0,967/1000,95,110.0
272,D4,28.0,967/1000,95,110.0
273,G#2,28.0,0.5,95,110.0
274,C2,28.0,0.5,95,110.0
275,C3,28.5,0.5,95,110.0
276,G#2,28.5,0.5,95,110.0
277,B-2,28.5,0.5,95,110.0
278,D3,29.0,0.5,95,110.0
279,D3,29.0,19/40,95,110.0
280,G3,29.0,19/40,95,110.0
281,D4,29.0,19/40,95,110.0
282,G4,29.0,19/40,95,110.0
283,G#2,29.0,0.5,95,110.0
284,D2,29.0,0.5,95,110.0
285,G3,29.5,0.5,95,110.0
286,G1,29.5,23/200,95,110.0
287,G4,29.5,0.953,95,110.0
288,D4,29.5,0.953,95,110.0
289,G3,29.5,0.953,95,110.0
290,D3,29.5,0.953,95,110.0
291,G#2,29.5,0.5,95,110.0
292,C2,29.5,0.5,95,110.0
293,G#2,30.0,0.5,95,110.0
294,F3,30.0,0.5,95,110.0
295,G1,30.0,1.0,95,110.0
296,E3,30.5,0.5,95,110.0
297,G4,30.5,61/125,95,110.0
298,D4,30.5,61/125,95,110.0
299,G3,30.5,61/125,95,110.0
300,D3,30.5,61/125,95,110.0
301,G#2,30.5,0.5,95,110.0
302,C2,30.5,0.5,95,110.0
303,D3,31.0,0.5,95,110.0
304,A1,31.0,1.0,95,110.0
305,G2,31.0,967/1000,95,110.0
306,B2,31.0,967/1000,95,110.0
307,D3,31.0,967/1000,95,110.0
308,G3,31.0,967/1000,95,110.0
309,D4,31.0,967/1000,95,110.0
310,G#2,31.0,0.5,95,110.0
311,D2,31.0,0.5,95,110.0
312,G#2,31.5,0.5,95,110.0
313,E3,31.5,0.5,95,110.0
314,D3,32.0,0.5,95,110.0
315,C2,32.0,1.0,95,110.0
316,G2,32.0,479/500,95,110.0
317,C3,32.0,479/500,95,110.0
318,E3,32.0,479/500,95,110.0
319,G3,32.0,479/500,95,110.0
320,C4,32.0,479/500,95,110.0
321,E4,32.0,479/500,95,110.0
322,G#2,32.0,0.5,95,110.0
323,C2,32.0,0.5,95,110.0
324,C3,32.5,0.5,95,110.0
325,G#2,32.5,0.5,95,110.0
326,B-2,32.5,0.5,95,110.0
327,C3,33.0,3.0,95,110.0
328,C3,33.0,483/1000,95,110.0
329,E3,33.0,483/1000,95,110.0
330,G3,33.0,483/1000,95,110.0
331,G#2,33.0,0.5,95,110.0
332,D2,33.0,0.5,95,110.0
333,C2,33.5,23/200,95,110.0
334,E4,33.5,0.969,95,110.0
335,C4,33.5,0.969,95,110.0
336,G3,33.5,0.969,95,110.0
337,G#2,33.5,0.5,95,110.0
338,C2,33.5,0.5,95,110.0
339,G#2,34.0,0.5,95,110.0
340,C2,34.0,1.0,95,110.0
341,E4,34.5,123/250,95,110.0
342,C4,34.5,123/250,95,110.0
343,G3,34.5,123/250,95,110.0
344,G#2,34.5,0.5,95,110.0
345,C2,34.5,0.5,95,110.0
346,G1,35.0,1.0,95,110.0
347,C3,35.0,39/40,95,110.0
348,E3,35.0,39/40,95,110.0
349,G3,35.0,39/40,95,110.0
350,C4,35.0,39/40,95,110.0
351,G#2,35.0,0.5,95,110.0
352,D2,35.0,0.5,95,110.0
353,D2,35.5,0.25,95,110.0
354,G#2,35.75,0.25,95,110.0
355,D2,35.75,0.25,95,110.0
356,E4,36.0,1.0,95,110.0
357,C4,36.0,1.0,95,110.0
358,C2,36.0,1.0,95,110.0
359,G2,36.0,479/500,95,110.0
360,C3,36.0,479/500,95,110.0
361,E3,36.0,479/500,95,110.0
362,G3,36.0,479/500,95,110.0
363,C4,36.0,479/500,95,110.0
364,E4,36.0,479/500,95,110.0
365,G#2,36.0,0.5,95,110.0
366,C2,36.0,0.5,95,110.0
367,G#2,36.5,0.5,95,110.0
368,B-2,36.5,0.5,95,110.0
369,E4,37.0,1.0,95,110.0
370,C4,37.0,1.0,95,110.0
371,C3,37.0,483/1000,95,110.0
372,E3,37.0,483/1000,95,110.0
373,G3,37.0,483/1000,95,110.0
374,G#2,37.0,0.5,95,110.0
375,D2,37.0,0.5,95,110.0
376,C2,37.5,23/200,95,110.0
377,E4,37.5,0.969,95,110.0
378,C4,37.5,0.969,95,110.0
379,G3,37.5,0.969,95,110.0
380,G#2,37.5,0.5,95,110.0
381,C2,37.5,0.5,95,110.0
382,G#2,38.0,0.5,95,110.0
383,D4,38.0,0.5,95,110.0
384,B3,38.0,0.5,95,110.0
385,C2,38.0,1.0,95,110.0
386,E4,38.5,1.0,95,110.0
387,C4,38.5,1.0,95,110.0
388,E4,38.5,123/250,95,110.0
389,C4,38.5,123/250,95,110.0
390,G3,38.5,123/250,95,110.0
391,G#2,38.5,0.5,95,110.0
392,C2,38.5,0.5,95,110.0
393,G1,39.0,1.0,95,110.0
394,C3,39.0,39/40,95,110.0
395,E3,39.0,39/40,95,110.0
396,G3,39.0,39/40,95,110.0
397,C4,39.0,39/40,95,110.0
398,G#2,39.0,0.5,95,110.0
399,D2,39.0,0.5,95,110.0
400,G#2,39.5,0.5,95,110.0
401,D4,39.5,0.5,95,110.0
402,B3,39.5,0.5,95,110.0
403,F4,40.0,0.5,95,110.0
404,D4,40.0,0.5,95,110.0
405,C2,40.0,1.0,95,110.0
406,G2,40.0,479/500,95,110.0
407,C3,40.0,479/500,95,110.0
408,E3,40.0,479/500,95,110.0
409,G3,40.0,479/500,95,110.0
410,C4,40.0,479/500,95,110.0
411,E4,40.0,479/500,95,110.0
412,G#2,40.0,0.5,95,110.0
413,C2,40.0,0.5,95,110.0
414,E4,40.5,0.5,95,110.0
415,C4,40.5,0.5,95,110.0
416,G#2,40.5,0.5,95,110.0
417,B-2,40.5,0.5,95,110.0
418,E4,41.0,3.0,95,110.0
419,C4,41.0,3.0,95,110.0
420,C3,41.0,483/1000,95,110.0
421,E3,41.0,483/1000,95,110.0
422,G3,41.0,483/1000,95,110.0
423,G#2,41.0,0.5,95,110.0
424,D2,41.0,0.5,95,110.0
425,C2,41.5,23/200,95,110.0
426,E4,41.5,0.969,95,110.0
427,C4,41.5,0.969,95,110.0
428,G3,41.5,0.969,95,110.0
429,G#2,41.5,0.5,95,110.0
430,C2,41.5,0.5,95,110.0
431,G#2,42.0,0.5,95,110.0
432,C2,42.0,0.5,95,110.0
433,E1,42.5,0.5,95,110.0
434,E4,42.5,123/250,95,110.0
435,C4,42.5,123/250,95,110.0
436,G3,42.5,123/250,95,110.0
437,G#2,42.5,0.5,95,110.0
438,C2,42.5,0.5,95,110.0
439,F1,43.0,1.0,95,110.0
440,C3,43.0,39/40,95,110.0
441,E3,43.0,39/40,95,110.0
442,G3,43.0,39/40,95,110.0
443,C4,43.0,39/40,95,110.0
444,G#2,43.0,0.5,95,110.0
445,D2,43.0,0.5,95,110.0
446,G#2,43.5,0.5,95,110.0
447,D4,44.0,0.5,95,110.0
448,B3,44.0,0.5,95,110.0
449,G1,44.0,1.0,95,110.0
450,G2,44.0,967/1000,95,110.0
451,B2,44.0,967/1000,95,110.0
452,D3,44.0,967/1000,95,110.0
453,G3,44.0,967/1000,95,110.0
454,D4,44.0,967/1000,95,110.0
455,G#2,44.0,0.5,95,110.0
456,C2,44.0,0.5,95,110.0
457,E4,44.5,0.5,95,110.0
458,C4,44.5,0.5,95,110.0
459,G#2,44.5,0.5,95,110.0
460,B-2,44.5,0.5,95,110.0
461,F4,45.0,1.0,95,110.0
462,D4,45.0,1.0,95,110.0
463,D3,45.0,19/40,95,110.0
464,G3,45.0,19/40,95,110.0
465,D4,45.0,19/40,95,110.0
466,G4,45.0,19/40,95,110.0
467,G#2,45.0,0.5,95,110.0
468,D2,45.0,0.5,95,110.0
469,G1,45.5,23/200,95,110.0
470,G4,45.5,0.953,95,110.0
471,D4,45.5,0.953,95,110.0
472,G3,45.5,0.953,95,110.0
473,D3,45.5,0.953,95,110.0
474,G#2,45.5,0.5,95,110.0
475,C2,45.5,0.5,95,110.0
476,G#2,46.0,0.5,95,110.0
477,E4,46.0,0.5,95,110.0
478,C4,46.0,0.5,95,110.0
479,G1,46.0,1.0,95,110.0
480,D4,46.5,0.5,95,110.0
481,B3,46.5,0.5,95,110.0
482,G4,46.5,61/125,95,110.0
483,D4,46.5,61/125,95,110.0
484,G3,46.5,61/125,95,110.0
485,D3,46.5,61/125,95,110.0
486,G#2,46.5,0.5,95,110.0
487,C2,46.5,0.5,95,110.0
488,C4,47.0,0.5,95,110.0
489,A3,47.0,0.5,95,110.0
490,D1,47.0,1.0,95,110.0
491,G2,47.0,967/1000,95,110.0
492,B2,47.0,967/1000,95,110.0
493,D3,47.0,967/1000,95,110.0
494,G3,47.0,967/1000,95,110.0
495,D4,47.0,967/1000,95,110.0
496,G#2,47.0,0.5,95,110.0
497,D2,47.0,0.5,95,110.0
498,G#2,47.5,0.5,95,110.0
499,D4,47.5,0.5,95,110.0
500,B3,47.5,0.5,95,110.0
501,C4,48.0,0.5,95,110.0
502,A3,48.0,0.5,95,110.0
503,G1,48.0,1.0,95,110.0
504,G2,48.0,967/1000,95,110.0
505,B2,48.0,967/1000,95,110.0
506,D3,48.0,967/1000,95,110.0
507,G3,48.0,967/1000,95,110.0
508,D4,48.0,967/1000,95,110.0
509,G#2,48.0,0.5,95,110.0
510,C2,48.0,0.5,95,110.0
511,B3,48.5,0.5,95,110.0
512,G3,48.5,0.5,95,110.0
513,G#2,48.5,0.5,95,110.0
514,B-2,48.5,0.5,95,110.0
515,B3,49.0,1.5,95,110.0
516,G3,49.0,1.5,95,110.0
517,D3,49.0,19/40,95,110.0
518,G3,49.0,19/40,95,110.0
519,D4,49.0,19/40,95,110.0
520,G4,49.0,19/40,95,110.0
521,G#2,49.0,0.5,95,110.0
522,D2,49.0,0.5,95,110.0
523,G1,49.5,23/200,95,110.0
524,G4,49.5,0.953,95,110.0
525,D4,49.5,0.953,95,110.0
526,G3,49.5,0.953,95,110.0
527,D3,49.5,0.953,95,110.0
528,G#2,49.5,0.5,95,110.0
529,C2,49.5,0.5,95,110.0
530,G#2,50.0,0.5,95,110.0
531,G1,50.0,1.0,95,110.0
532,A3,50.5,0.5,95,110.0
533,F3,50.5,0.5,95,110.0
534,G4,50.5,61/125,95,110.0
535,D4,50.5,61/125,95,110.0
536,G3,50.5,61/125,95,110.0
537,D3,50.5,61/125,95,110.0
538,G#2,50.5,0.5,95,110.0
539,C2,50.5,0.5,95,110.0
540,C4,51.0,0.5,95,110.0
541,A3,51.0,1.0,95,110.0
542,D1,51.0,1.0,95,110.0
543,G2,51.0,967/1000,95,110.0
544,B2,51.0,967/1000,95,110.0
545,D3,51.0,967/1000,95,110.0
546,G3,51.0,967/1000,95,110.0
547,D4,51.0,967/1000,95,110.0
548,G#2,51.0,0.5,95,110.0
549,D2,51.0,0.5,95,110.0
550,G#2,51.5,0.5,95,110.0
551,C4,52.0,1.0,95,110.0
552,A3,52.0,1.0,95,110.0
553,F1,52.0,1.0,95,110.0
554,F2,52.0,967/1000,95,110.0
555,C3,52.0,967/1000,95,110.0
556,F3,52.0,967/1000,95,110.0
557,A3,52.0,967/1000,95,110.0
558,C4,52.0,967/1000,95,110.0
559,G#2,52.0,0.5,95,110.0
560,C2,52.0,0.5,95,110.0
561,G#2,52.5,0.5,95,110.0
562,B-2,52.5,0.5,95,110.0
563,C4,53.0,1.0,95,110.0
564,A3,53.0,1.0,95,110.0
565,E2,53.0,19/40,95,110.0
566,C3,53.0,19/40,95,110.0
567,F3,53.0,19/40,95,110.0
568,A3,53.0,19/40,95,110.0
569,G#2,53.0,0.5,95,110.0
570,D2,53.0,0.5,95,110.0
571,F1,53.5,23/200,95,110.0
572,F4,53.5,0.969,95,110.0
573,C4,53.5,0.969,95,110.0
574,A3,53.5,0.969,95,110.0
575,G#2,53.5,0.5,95,110.0
576,C2,53.5,0.5,95,110.0
577,G#2,54.0,0.5,95,110.0
578,B3,54.0,0.5,95,110.0
579,G3,54.0,0.5,95,110.0
580,F1,54.0,1.0,95,110.0
581,C4,54.5,1.0,95,110.0
582,A3,54.5,1.0,95,110.0
583,F4,54.5,61/125,95,110.0
584,C4,54.5,61/125,95,110.0
585,A3,54.5,61/125,95,110.0
586,F3,54.5,61/125,95,110.0
587,G#2,54.5,0.5,95,110.0
588,C2,54.5,0.5,95,110.0
589,C1,55.0,1.0,95,110.0
590,C3,55.0,967/1000,95,110.0
591,F3,55.0,967/1000,95,110.0
592,A3,55.0,967/1000,95,110.0
593,C4,55.0,967/1000,95,110.0
594,F4,55.0,967/1000,95,110.0
595,G#2,55.0,0.5,95,110.0
596,D2,55.0,0.5,95,110.0
597,G#2,55.5,0.5,95,110.0
598,A3,55.5,0.5,95,110.0
599,F3,55.5,0.5,95,110.0
600,B3,56.0,1.0,95,110.0
601,G3,56.0,0.5,95,110.0
602,D1,56.0,1.0,95,110.0
603,D3,56.0,39/40,95,110.0
604,A3,56.0,39/40,95,110.0
605,D4,56.0,39/40,95,110.0
606,F4,56.0,39/40,95,110.0
607,G#2,56.0,0.5,95,110.0
608,C2,56.0,0.5,95,110.0
609,D3,56.5,0.5,95,110.0
610,G#2,56.5,0.5,95,110.0
611,B-2,56.5,0.5,95,110.0
612,G3,57.0,3.0,95,110.0
613,D3,57.0,3.0,95,110.0
614,D3,57.0,483/1000,95,110.0
615,A3,57.0,483/1000,95,110.0
616,D4,57.0,483/1000,95,110.0
617,G#2,57.0,0.5,95,110.0
618,D2,57.0,0.5,95,110.0
619,D1,57.5,23/200,95,110.0
620,A4,57.5,0.953,95,110.0
621,F4,57.5,0.953,95,110.0
622,D4,57.5,0.953,95,110.0
623,A3,57.5,0.953,95,110.0
624,G#2,57.5,0.5,95,110.0
625,C2,57.5,0.5,95,110.0
626,G#2,58.0,0.5,95,110.0
627,D1,58.0,1.0,95,110.0
628,A4,58.5,61/125,95,110.0
629,F4,58.5,61/125,95,110.0
630,D4,58.5,61/125,95,110.0
631,A3,58.5,61/125,95,110.0
632,G#2,58.5,0.5,95,110.0
633,C2,58.5,0.5,95,110.0
634,E1,59.0,1.0,95,110.0
635,D3,59.0,967/1000,95,110.0
636,A3,59.0,967/1000,95,110.0
637,D4,59.0,967/1000,95,110.0
638,F4,59.0,967/1000,95,110.0
639,A4,59.0,967/1000,95,110.0
640,G#2,59.0,0.5,95,110.0
641,D2,59.0,0.5,95,110.0
642,G#2,59.5,0.5,95,110.0
643,G3,60.0,0.5,95,110.0
644,B2,60.0,0.5,95,110.0
645,G1,60.0,1.0,95,110.0
646,G2,60.0,967/1000,95,110.0
647,B2,60.0,967/1000,95,110.0
648,D3,60.0,967/1000,95,110.0
649,G3,60.0,967/1000,95,110.0
650,D4,60.0,967/1000,95,110.0
651,G#2,60.0,0.5,95,110.0
652,C2,60.0,0.5,95,110.0
653,A3,60.5,0.5,95,110.0
654,C3,60.5,0.5,95,110.0
655,G#2,60.5,0.5,95,110.0
656,B-2,60.5,0.5,95,110.0
657,B3,61.0,1.0,95,110.0
658,D3,61.0,0.5,95,110.0
659,D3,61.0,19/40,95,110.0
660,G3,61.0,19/40,95,110.0
661,D4,61.0,19/40,95,110.0
662,G4,61.0,19/40,95,110.0
663,G#2,61.0,0.5,95,110.0
664,D2,61.0,0.5,95,110.0
665,G3,61.5,0.5,95,110.0
666,G1,61.5,23/200,95,110.0
667,G4,61.5,0.953,95,110.0
668,D4,61.5,0.953,95,110.0
669,G3,61.5,0.953,95,110.0
670,D3,61.5,0.953,95,110.0
671,G#2,61.5,0.5,95,110.0
672,C2,61.5,0.5,95,110.0
673,G#2,62.0,0.5,95,110.0
674,A3,62.0,0.5,95,110.0
675,F3,62.0,0.5,95,110.0
676,G1,62.0,1.0,95,110.0
677,G3,62.5,0.5,95,110.0
678,E3,62.5,0.5,95,110.0
679,G4,62.5,61/125,95,110.0
680,D4,62.5,61/125,95,110.0
681,G3,62.5,61/125,95,110.0
682,D3,62.5,61/125,95,110.0
683,G#2,62.5,0.5,95,110.0
684,C2,62.5,0.5,95,110.0
685,F3,63.0,0.5,95,110.0
686,D3,63.0,0.5,95,110.0
687,A1,63.0,1.0,95,110.0
688,G2,63.0,967/1000,95,110.0
689,B2,63.0,967/1000,95,110.0
690,D3,63.0,967/1000,95,110.0
691,G3,63.0,967/1000,95,110.0
692,D4,63.0,967/1000,95,110.0
693,G#2,63.0,0.5,95,110.0
694,D2,63.0,0.5,95,110.0
695,G#2,63.5,0.5,95,110.0
696,G3,63.5,0.5,95,110.0
697,E3,63.5,0.5,95,110.0
698,F3,64.0,0.5,95,110.0
699,D3,64.0,0.5,95,110.0
700,C2,64.0,1.0,95,110.0
701,G2,64.0,479/500,95,110.0
702,C3,64.0,479/500,95,110.0
703,E3,64.0,479/500,95,110.0
704,G3,64.0,479/500,95,110.0
705,C4,64.0,479/500,95,110.0
706,E4,64.0,479/500,95,110.0
707,G#2,64.0,0.5,95,110.0
708,C2,64.0,0.5,95,110.0
709,E3,64.5,0.5,95,110.0
710,C3,64.5,0.5,95,110.0
711,G#2,64.5,0.5,95,110.0
712,B-2,64.5,0.5,95,110.0
713,E3,65.0,3.0,95,110.0
714,C3,65.0,3.0,95,110.0
715,C3,65.0,483/1000,95,110.0
716,E3,65.0,483/1000,95,110.0
717,G3,65.0,483/1000,95,110.0
718,G#2,65.0,0.5,95,110.0
719,D2,65.0,0.5,95,110.0
720,C2,65.5,23/200,95,110.0
721,E4,65.5,0.969,95,110.0
722,C4,65.5,0.969,95,110.0
723,G3,65.5,0.969,95,110.0
724,G#2,65.5,0.5,95,110.0
725,C2,65.5,0.5,95,110.0
726,G#2,66.0,0.5,95,110.0
727,C2,66.0,1.0,95,110.0
728,E4,66.5,123/250,95,110.0
729,C4,66.5,123/250,95,110.0
730,G3,66.5,123/250,95,110.0
731,G#2,66.5,0.5,95,110.0
732,C2,66.5,0.5,95,110.0
733,G1,67.0,1.0,95,110.0
734,C3,67.0,39/40,95,110.0
735,E3,67.0,39/40,95,110.0
736,G3,67.0,39/40,95,110.0
737,C4,67.0,39/40,95,110.0
738,G#2,67.0,0.5,95,110.0
739,D2,67.0,0.5,95,110.0
740,D2,67.5,0.25,95,110.0
741,G#2,67.75,0.25,95,110.0
742,D2,67.75,0.25,95,110.0
743,E4,68.0,1.0,95,110.0
744,C4,68.0,1.0,95,110.0
745,C2,68.0,1.0,95,110.0
746,G2,68.0,479/500,95,110.0
747,C3,68.0,479/500,95,110.0
748,E3,68.0,479/500,95,110.0
749,G3,68.0,479/500,95,110.0
750,C4,68.0,479/500,95,110.0
751,E4,68.0,479/500,95,110.0
752,G#2,68.0,0.5,95,110.0
753,C2,68.0,0.5,95,110.0
754,G#2,68.5,0.5,95,110.0
755,B-2,68.5,0.5,95,110.0
756,E4,69.0,1.0,95,110.0
757,C4,69.0,1.0,95,110.0
758,C3,69.0,483/1000,95,110.0
759,E3,69.0,483/1000,95,110.0
760,G3,69.0,483/1000,95,110.0
761,G#2,69.0,0.5,95,110.0
762,D2,69.0,0.5,95,110.0
763,C2,69.5,23/200,95,110.0
764,E4,69.5,0.969,95,110.0
765,C4,69.5,0.969,95,110.0
766,G3,69.5,0.969,95,110.0
767,G#2,69.5,0.5,95,110.0
768,C2,69.5,0.5,95,110.0
769,G#2,70.0,0.5,95,110.0
770,D4,70.0,0.5,95,110.0
771,B3,70.0,0.5,95,110.0
772,C2,70.0,1.0,95,110.0
773,E4,70.5,1.0,95,110.0
774,C4,70.5,1.0,95,110.0
775,E4,70.5,123/250,95,110.0
776,C4,70.5,123/250,95,110.0
777,G3,70.5,123/250,95,110.0
778,G#2,70.5,0.5,95,110.0
779,C2,70.5,0.5,95,110.0
780,G1,71.0,1.0,95,110.0
781,C3,71.0,39/40,95,110.0
782,E3,71.0,39/40,95,110.0
783,G3,71.0,39/40,95,110.0
784,C4,71.0,39/40,95,110.0
785,G#2,71.0,0.5,95,110.0
786,D2,71.0,0.5,95,110.0
787,G#2,71.5,0.5,95,110.0
788,D4,71.5,0.5,95,110.0
789,B3,71.5,0.5,95,110.0
790,F4,72.0,0.5,95,110.0
791,D4,72.0,0.5,95,110.0
792,C2,72.0,1.0,95,110.0
793,G2,72.0,479/500,95,110.0
794,C3,72.0,479/500,95,110.0
795,E3,72.0,479/500,95,110.0
796,G3,72.0,479/500,95,110.0
797,C4,72.0,479/500,95,110.0
798,E4,72.0,479/500,95,110.0
799,G#2,72.0,0.5,95,110.0
800,C2,72.0,0.5,95,110.0
801,E4,72.5,0.5,95,110.0
802,C4,72.5,0.5,95,110.0
803,G#2,72.5,0.5,95,110.0
804,B-2,72.5,0.5,95,110.0
805,E4,73.0,3.0,95,110.0
806,C4,73.0,3.0,95,110.0
807,C3,73.0,483/1000,95,110.0
808,E3,73.0,483/1000,95,110.0
809,G3,73.0,483/1000,95,110.0
810,G#2,73.0,0.5,95,110.0
811,D2,73.0,0.5,95,110.0
812,C2,73.5,23/200,95,110.0
813,E4,73.5,0.969,95,110.0
814,C4,73.5,0.969,95,110.0
815,G3,73.5,0.969,95,110.0
816,G#2,73.5,0.5,95,110.0
817,C2,73.5,0.5,95,110.0
818,G#2,74.0,0.5,95,110.0
819,C2,74.0,1.0,95,110.0
820,E4,74.5,123/250,95,110.0
821,C4,74.5,123/250,95,110.0
822,G3,74.5,123/250,95,110.0
823,G#2,74.5,0.5,95,110.0
824,C2,74.5,0.5,95,110.0
825,G1,75.0,1.0,95,110.0
826,C3,75.0,39/40,95,110.0
827,E3,75.0,39/40,95,110.0
828,G3,75.0,39/40,95,110.0
829,C4,75.0,39/40,95,110.0
830,G#2,75.0,0.5,95,110.0
831,D2,75.0,0.5,95,110.0
832,G#2,75.5,0.5,95,110.0
833,G2,76.0,479/500,95,110.0
834,C3,76.0,479/500,95,110.0
835,E3,76.0,479/500,95,110.0
836,G3,76.0,479/500,95,110.0
837,C4,76.0,479/500,95,110.0
838,E4,76.0,479/500,95,110.0
839,G#2,76.0,0.5,95,110.0
840,C2,76.0,0.5,95,110.0
841,G#2,76.5,0.5,95,110.0
842,B-2,76.5,0.5,95,110.0
843,C3,77.0,483/1000,95,110.0
844,E3,77.0,483/1000,95,110.0
845,G3,77.0,483/1000,95,110.0
846,G#2,77.0,0.5,95,110.0
847,D2,77.0,0.5,95,110.0
848,E4,77.5,0.969,95,110.0
849,C4,77.5,0.969,95,110.0
850,G3,77.5,0.969,95,110.0
851,G#2,77.5,0.5,95,110.0
852,C2,77.5,0.5,95,110.0
853,G#2,78.0,0.5,95,110.0
854,E4,78.5,123/250,95,110.0
855,C4,78.5,123/250,95,110.0
856,G3,78.5,123/250,95,110.0
857,G#2,78.5,0.5,95,110.0
858,C2,78.5,0.5,95,110.0
859,C3,79.0,39/40,95,110.0
860,E3,79.0,39/40,95,110.0
861,G3,79.0,39/40,95,110.0
862,C4,79.0,39/40,95,110.0
863,G#2,79.0,0.5,95,110.0
864,D2,79.0,0.5,95,110.0
865,G#2,79.5,0.5,95,110.0
866,G2,80.0,479/500,95,110.0
867,C3,80.0,479/500,95,110.0
868,E3,80.0,479/500,95,110.0
869,G3,80.0,479/500,95,110.0
870,C4,80.0,479/500,95,110.0
871,E4,80.0,479/500,95,110.0
872,G#2,80.0,0.5,95,110.0
873,C2,80.0,0.5,95,110.0
874,G#2,80.5,0.5,95,110.0
875,B-2,80.5,0.5,95,110.0
876,C3,81.0,483/1000,95,110.0
877,E3,81.0,483/1000,95,110.0
878,G3,81.0,483/1000,95,110.0
879,G#2,81.0,0.5,95,110.0
880,D2,81.0,0.5,95,110.0
881,E4,81.5,0.969,95,110.0
882,C4,81.5,0.969,95,110.0
883,G3,81.5,0.969,95,110.0
884,G#2,81.5,0.5,95,110.0
885,C2,81.5,0.5,95,110.0
886,G#2,82.0,0.5,95,110.0
887,E4,82.5,123/250,95,110.0
888,C4,82.5,123/250,95,110.0
889,G3,82.5,123/250,95,110.0
890,G#2,82.5,0.5,95,110.0
891,C2,82.5,0.5,95,110.0
892,C3,83.0,39/40,95,110.0
893,E3,83.0,39/40,95,110.0
894,G3,83.0,39/40,95,110.0
895,C4,83.0,39/40,95,110.0
896,G#2,83.0,0.5,95,110.0
897,D2,83.0,0.5,95,110.0
898,G#2,83.5,0.5,95,110.0
899,F3,84.0,1.0,95,110.0
900,F1,84.0,1.0,95,110.0
901,C4,84.0,1.0,95,110.0
902,A3,84.0,1.0,95,110.0
903,F3,84.0,1.0,95,110.0
904,C3,84.0,1.0,95,110.0
905,F2,84.0,1.0,95,110.0
906,G#2,84.0,0.5,95,110.0
907,C2,84.0,0.5,95,110.0
908,G#2,84.5,0.5,95,110.0
909,B-2,84.5,0.5,95,110.0
910,F3,85.0,1.0,95,110.0
911,F3,85.0,0.5,95,110.0
912,C3,85.0,0.5,95,110.0
913,F2,85.0,0.5,95,110.0
914,G#2,85.0,0.5,95,110.0
915,D2,85.0,0.5,95,110.0
916,F1,85.5,23/200,95,110.0
917,F4,85.5,1.0,95,110.0
918,C4,85.5,1.0,95,110.0
919,A3,85.5,1.0,95,110.0
920,F3,85.5,1.0,95,110.0
921,G#2,85.5,0.5,95,110.0
922,C2,85.5,0.5,95,110.0
923,G#2,86.0,0.5,95,110.0
924,E3,86.0,0.5,95,110.0
925,F1,86.0,1.0,95,110.0
926,F3,86.5,1.0,95,110.0
927,F4,86.5,0.5,95,110.0
928,C4,86.5,0.5,95,110.0
929,A3,86.5,0.5,95,110.0
930,F3,86.5,0.5,95,110.0
931,G#2,86.5,0.5,95,110.0
932,C2,86.5,0.5,95,110.0
933,C1,87.0,1.0,95,110.0
934,C4,87.0,1.0,95,110.0
935,A3,87.0,1.0,95,110.0
936,F3,87.0,1.0,95,110.0
937,C3,87.0,1.0,95,110.0
938,F2,87.0,1.0,95,110.0
939,G#2,87.0,0.5,95,110.0
940,D2,87.0,0.5,95,110.0
941,G#2,87.5,0.5,95,110.0
942,E3,87.5,0.5,95,110.0
943,G3,88.0,0.5,95,110.0
944,F1,88.0,1.0,95,110.0
945,C4,88.0,1.0,95,110.0
946,A3,88.0,1.0,95,110.0
947,F3,88.0,1.0,95,110.0
948,C3,88.0,1.0,95,110.0
949,F2,88.0,1.0,95,110.0
950,G#2,88.0,0.5,95,110.0
951,C2,88.0,0.5,95,110.0
952,F3,88.5,0.5,95,110.0
953,G#2,88.5,0.5,95,110.0
954,B-2,88.5,0.5,95,110.0
955,F3,89.0,3.0,95,110.0
956,F3,89.0,0.5,95,110.0
957,C3,89.0,0.5,95,110.0
958,F2,89.0,0.5,95,110.0
959,G#2,89.0,0.5,95,110.0
960,D2,89.0,0.5,95,110.0
961,F1,89.5,23/200,95,110.0
962,F4,89.5,1.0,95,110.0
963,C4,89.5,1.0,95,110.0
964,A3,89.5,1.0,95,110.0
965,F3,89.5,1.0,95,110.0
966,G#2,89.5,0.5,95,110.0
967,C2,89.5,0.5,95,110.0
968,G#2,90.0,0.5,95,110.0
969,F1,90.0,1.0,95,110.0
970,F4,90.5,0.5,95,110.0
971,C4,90.5,0.5,95,110.0
972,A3,90.5,0.5,95,110.0
973,F3,90.5,0.5,95,110.0
974,G#2,90.5,0.5,95,110.0
975,C2,90.5,0.5,95,110.0
976,C1,91.0,1.0,95,110.0
977,C4,91.0,1.0,95,110.0
978,A3,91.0,1.0,95,110.0
979,F3,91.0,1.0,95,110.0
980,C3,91.0,1.0,95,110.0
981,F2,91.0,1.0,95,110.0
982,G#2,91.0,0.5,95,110.0
983,D2,91.0,0.5,95,110.0
984,G#2,91.5,0.5,95,110.0
985,G3,92.0,1.0,95,110.0
986,C2,92.0,1.0,95,110.0
987,G2,92.0,479/500,95,110.0
988,C3,92.0,479/500,95,110.0
989,E3,92.0,479/500,95,110.0
990,G3,92.0,479/500,95,110.0
991,C4,92.0,479/500,95,110.0
992,E4,92.0,479/500,95,110.0
993,G#2,92.0,0.5,95,110.0
994,C2,92.0,0.5,95,110.0
995,G#2,92.5,0.5,95,110.0
996,B-2,92.5,0.5,95,110.0
997,G3,93.0,1.0,95,110.0
998,C3,93.0,483/1000,95,110.0
999,E3,93.0,483/1000,95,110.0
1000,G3,93.0,483/1000,95,110.0
1001,G#2,93.0,0.5,95,110.0
1002,D2,93.0,0.5,95,110.0
1003,C2,93.5,23/200,95,110.0
1004,E4,93.5,0.969,95,110.0
1005,C4,93.5,0.969,95,110.0
1006,G3,93.5,0.969,95,110.0
1007,G#2,93.5,0.5,95,110.0
1008,C2,93.5,0.5,95,110.0
1009,G#2,94.0,0.5,95,110.0
1010,F#3,94.0,0.5,95,110.0
1011,C2,94.0,1.0,95,110.0
1012,G3,94.5,1.0,95,110.0
1013,E4,94.5,123/250,95,110.0
1014,C4,94.5,123/250,95,110.0
1015,G3,94.5,123/250,95,110.0
1016,G#2,94.5,0.5,95,110.0
1017,C2,94.5,0.5,95,110.0
1018,G1,95.0,1.0,95,110.0
1019,C3,95.0,39/40,95,110.0
1020,E3,95.0,39/40,95,110.0
1021,G3,95.0,39/40,95,110.0
1022,C4,95.0,39/40,95,110.0
1023,G#2,95.0,0.5,95,110.0
1024,D2,95.0,0.5,95,110.0
1025,G#2,95.5,0.5,95,110.0
1026,F#3,95.5,0.5,95,110.0
1027,A3,96.0,0.5,95,110.0
1028,C2,96.0,1.0,95,110.0
1029,G2,96.0,479/500,95,110.0
1030,C3,96.0,479/500,95,110.0
1031,E3,96.0,479/500,95,110.0
1032,G3,96.0,479/500,95,110.0
1033,C4,96.0,479/500,95,110.0
1034,E4,96.0,479/500,95,110.0
1035,G#2,96.0,0.5,95,110.0
1036,C2,96.0,0.5,95,110.0
1037,G3,96.5,0.5,95,110.0
1038,G#2,96.5,0.5,95,110.0
1039,B-2,96.5,0.5,95,110.0
1040,G3,97.0,3.0,95,110.0
1041,C3,97.0,483/1000,95,110.0
1042,E3,97.0,483/1000,95,110.0
1043,G3,97.0,483/1000,95,110.0
1044,G#2,97.0,0.5,95,110.0
1045,D2,97.0,0.5,95,110.0
1046,C2,97.5,23/200,95,110.0
1047,E4,97.5,0.969,95,110.0
1048,C4,97.5,0.969,95,110.0
1049,G3,97.5,0.969,95,110.0
1050,G#2,97.5,0.5,95,110.0
1051,C2,97.5,0.5,95,110.0
1052,G#2,98.0,0.5,95,110.0
1053,C2,98.0,0.5,95,110.0
1054,E1,98.5,0.5,95,110.0
1055,E4,98.5,123/250,95,110.0
1056,C4,98.5,123/250,95,110.0
1057,G3,98.5,123/250,95,110.0
1058,G#2,98.5,0.5,95,110.0
1059,C2,98.5,0.5,95,110.0
1060,F1,99.0,1.0,95,110.0
1061,C3,99.0,39/40,95,110.0
1062,E3,99.0,39/40,95,110.0
1063,G3,99.0,39/40,95,110.0
1064,C4,99.0,39/40,95,110.0
1065,G#2,99.0,0.5,95,110.0
1066,D2,99.0,0.5,95,110.0
1067,G#2,99.5,0.5,95,110.0
1068,B3,100.0,1.0,95,110.0
1069,G1,100.0,1.0,95,110.0
1070,G2,100.0,967/1000,95,110.0
1071,B2,100.0,967/1000,95,110.0
1072,D3,100.0,967/1000,95,110.0
1073,G3,100.0,967/1000,95,110.0
1074,D4,100.0,967/1000,95,110.0
1075,G#2,100.0,0.5,95,110.0
1076,C2,100.0,0.5,95,110.0
1077,G#2,100.5,0.5,95,110.0
1078,B-2,100.5,0.5,95,110.0
1079,B3,101.0,1.0,95,110.0
1080,D3,101.0,19/40,95,110.0
1081,G3,101.0,19/40,95,110.0
1082,D4,101.0,19/40,95,110.0
1083,G4,101.0,19/40,95,110.0
1084,G#2,101.0,0.5,95,110.0
1085,D2,101.0,0.5,95,110.0
1086,G1,101.5,23/200,95,110.0
1087,G4,101.5,0.953,95,110.0
1088,D4,101.5,0.953,95,110.0
1089,G3,101.5,0.953,95,110.0
1090,D3,101.5,0.953,95,110.0
1091,G#2,101.5,0.5,95,110.0
1092,C2,101.5,0.5,95,110.0
1093,G#2,102.0,0.5,95,110.0
1094,A3,102.0,0.5,95,110.0
1095,G1,102.0,1.0,95,110.0
1096,B3,102.5,1.0,95,110.0
1097,G4,102.5,61/125,95,110.0
1098,D4,102.5,61/125,95,110.0
1099,G3,102.5,61/125,95,110.0
1100,D3,102.5,61/125,95,110.0
1101,G#2,102.5,0.5,95,110.0
1102,C2,102.5,0.5,95,110.0
1103,D1,103.0,1.0,95,110.0
1104,G2,103.0,967/1000,95,110.0
1105,B2,103.0,967/1000,95,110.0
1106,D3,103.0,967/1000,95,110.0
1107,G3,103.0,967/1000,95,110.0
1108,D4,103.0,967/1000,95,110.0
1109,G#2,103.0,0.5,95,110.0
1110,D2,103.0,0.5,95,110.0
1111,G#2,103.5,0.5,95,110.0
1112,A3,103.5,0.5,95,110.0
1113,C4,104.0,0.5,95,110.0
1114,G1,104.0,1.0,95,110.0
1115,G2,104.0,967/1000,95,110.0
1116,B2,104.0,967/1000,95,110.0
1117,D3,104.0,967/1000,95,110.0
1118,G3,104.0,967/1000,95,110.0
1119,D4,104.0,967/1000,95,110.0
1120,G#2,104.0,0.5,95,110.0
1121,C2,104.0,0.5,95,110.0
1122,B3,104.5,0.5,95,110.0
1123,G#2,104.5,0.5,95,110.0
1124,B-2,104.5,0.5,95,110.0
1125,B3,105.0,3.0,95,110.0
1126,D3,105.0,19/40,95,110.0
1127,G3,105.0,19/40,95,110.0
1128,D4,105.0,19/40,95,110.0
1129,G4,105.0,19/40,95,110.0
1130,G#2,105.0,0.5,95,110.0
1131,D2,105.0,0.5,95,110.0
1132,G1,105.5,23/200,95,110.0
1133,G4,105.5,0.953,95,110.0
1134,D4,105.5,0.953,95,110.0
1135,G3,105.5,0.953,95,110.0
1136,D3,105.5,0.953,95,110.0
1137,G#2,105.5,0.5,95,110.0
1138,C2,105.5,0.5,95,110.0
1139,G#2,106.0,0.5,95,110.0
1140,G1,106.0,1.0,95,110.0
1141,G4,106.5,61/125,95,110.0
1142,D4,106.5,61/125,95,110.0
1143,G3,106.5,61/125,95,110.0
1144,D3,106.5,61/125,95,110.0
1145,G#2,106.5,0.5,95,110.0
1146,C2,106.5,0.5,95,110.0
1147,D1,107.0,1.0,95,110.0
1148,G2,107.0,967/1000,95,110.0
1149,B2,107.0,967/1000,95,110.0
1150,D3,107.0,967/1000,95,110.0
1151,G3,107.0,967/1000,95,110.0
1152,D4,107.0,967/1000,95,110.0
1153,G#2,107.0,0.5,95,110.0
1154,D2,107.0,0.5,95,110.0
1155,G#2,107.5,0.5,95,110.0
1156,C4,108.0,1.0,95,110.0
1157,C2,108.0,1.0,95,110.0
1158,G2,108.0,479/500,95,110.0
1159,C3,108.0,479/500,95,110.0
1160,E3,108.0,479/500,95,110.0
1161,G3,108.0,479/500,95,110.0
1162,C4,108.0,479/500,95,110.0
1163,E4,108.0,479/500,95,110.0
1164,G#2,108.0,0.5,95,110.0
1165,C2,108.0,0.5,95,110.0
1166,G#2,108.5,0.5,95,110.0
1167,B-2,108.5,0.5,95,110.0
1168,C4,109.0,1.0,95,110.0
1169,C3,109.0,483/1000,95,110.0
1170,E3,109.0,483/1000,95,110.0
1171,G3,109.0,483/1000,95,110.0
1172,G#2,109.0,0.5,95,110.0
1173,D2,109.0,0.5,95,110.0
1174,C2,109.5,23/200,95,110.0
1175,E4,109.5,0.969,95,110.0
1176,C4,109.5,0.969,95,110.0
1177,G3,109.5,0.969,95,110.0
1178,G#2,109.5,0.5,95,110.0
1179,C2,109.5,0.5,95,110.0
1180,G#2,110.0,0.5,95,110.0
1181,B3,110.0,0.5,95,110.0
1182,C2,110.0,1.0,95,110.0
1183,C4,110.5,1.0,95,110.0
1184,E4,110.5,123/250,95,110.0
1185,C4,110.5,123/250,95,110.0
1186,G3,110.5,123/250,95,110.0
1187,G#2,110.5,0.5,95,110.0
1188,C2,110.5,0.5,95,110.0
1189,G1,111.0,1.0,95,110.0
1190,C3,111.0,39/40,95,110.0
1191,E3,111.0,39/40,95,110.0
1192,G3,111.0,39/40,95,110.0
1193,C4,111.0,39/40,95,110.0
1194,G#2,111.0,0.5,95,110.0
1195,D2,111.0,0.5,95,110.0
1196,G#2,111.5,0.5,95,110.0
1197,B3,111.5,0.5,95,110.0
1198,D4,112.0,0.5,95,110.0
1199,C2,112.0,1.0,95,110.0
1200,G2,112.0,479/500,95,110.0
1201,C3,112.0,479/500,95,110.0
1202,E3,112.0,479/500,95,110.0
1203,G3,112.0,479/500,95,110.0
1204,C4,112.0,479/500,95,110.0
1205,E4,112.0,479/500,95,110.0
1206,G#2,112.0,0.5,95,110.0
1207,C2,112.0,0.5,95,110.0
1208,C4,112.5,0.5,95,110.0
1209,G#2,112.5,0.5,95,110.0
1210,B-2,112.5,0.5,95,110.0
1211,C4,113.0,3.0,95,110.0
1212,C3,113.0,483/1000,95,110.0
1213,E3,113.0,483/1000,95,110.0
1214,G3,113.0,483/1000,95,110.0
1215,G#2,113.0,0.5,95,110.0
1216,D2,113.0,0.5,95,110.0
1217,C2,113.5,23/200,95,110.0
1218,E4,113.5,0.969,95,110.0
1219,C4,113.5,0.969,95,110.0
1220,G3,113.5,0.969,95,110.0
1221,G#2,113.5,0.5,95,110.0
1222,C2,113.5,0.5,95,110.0
1223,G#2,114.0,0.5,95,110.0
1224,C2,114.0,1.0,95,110.0
1225,E4,114.5,123/250,95,110.0
1226,C4,114.5,123/250,95,110.0
1227,G3,114.5,123/250,95,110.0
1228,G#2,114.5,0.5,95,110.0
1229,C2,114.5,0.5,95,110.0
1230,G1,115.0,1.0,95,110.0
1231,C3,115.0,39/40,95,110.0
1232,E3,115.0,39/40,95,110.0
1233,G3,115.0,39/40,95,110.0
1234,C4,115.0,39/40,95,110.0
1235,G#2,115.0,0.5,95,110.0
1236,D2,115.0,0.5,95,110.0
1237,G#2,115.5,0.5,95,110.0
1238,A3,116.0,1.0,95,110.0
1239,F3,116.0,1.0,95,110.0
1240,F1,116.0,1.0,95,110.0
1241,C4,116.0,1.0,95,110.0
1242,A3,116.0,1.0,95,110.0
1243,F3,116.0,1.0,95,110.0
1244,C3,116.0,1.0,95,110.0
1245,F2,116.0,1.0,95,110.0
1246,G#2,116.0,0.5,95,110.0
1247,C2,116.0,0.5,95,110.0
1248,G#2,116.5,0.5,95,110.0
1249,B-2,116.5,0.5,95,110.0
1250,A3,117.0,1.0,95,110.0
1251,F3,117.0,1.0,95,110.0
1252,F3,117.0,0.5,95,110.0
1253,C3,117.0,0.5,95,110.0
1254,F2,117.0,0.5,95,110.0
1255,G#2,117.0,0.5,95,110.0
1256,D2,117.0,0.5,95,110.0
1257,F1,117.5,23/200,95,110.0
1258,F4,117.5,1.0,95,110.0
1259,C4,117.5,1.0,95,110.0
1260,A3,117.5,1.0,95,110.0
1261,F3,117.5,1.0,95,110.0
1262,G#2,117.5,0.5,95,110.0
1263,C2,117.5,0.5,95,110.0
1264,G#2,118.0,0.5,95,110.0
1265,G#3,118.0,0.5,95,110.0
1266,E3,118.0,0.5,95,110.0
1267,F1,118.0,1.0,95,110.0
1268,A3,118.5,1.0,95,110.0
1269,F3,118.5,1.0,95,110.0
1270,F4,118.5,0.5,95,110.0
1271,C4,118.5,0.5,95,110.0
1272,A3,118.5,0.5,95,110.0
1273,F3,118.5,0.5,95,110.0
1274,G#2,118.5,0.5,95,110.0
1275,C2,118.5,0.5,95,110.0
1276,C1,119.0,1.0,95,110.0
1277,C4,119.0,1.0,95,110.0
1278,A3,119.0,1.0,95,110.0
1279,F3,119.0,1.0,95,110.0
1280,C3,119.0,1.0,95,110.0
1281,F2,119.0,1.0,95,110.0
1282,G#2,119.0,0.5,95,110.0
1283,D2,119.0,0.5,95,110.0
1284,G#2,119.5,0.5,95,110.0
1285,G#3,119.5,0.5,95,110.0
1286,E3,119.5,0.5,95,110.0
1287,B3,120.0,0.5,95,110.0
1288,G3,120.0,0.5,95,110.0
1289,F1,120.0,1.0,95,110.0
1290,C4,120.0,1.0,95,110.0
1291,A3,120.0,1.0,95,110.0
1292,F3,120.0,1.0,95,110.0
1293,C3,120.0,1.0,95,110.0
1294,F2,120.0,1.0,95,110.0
1295,G#2,120.0,0.5,95,110.0
1296,C2,120.0,0.5,95,110.0
1297,A3,120.5,0.5,95,110.0
1298,F3,120.5,0.5,95,110.0
1299,G#2,120.5,0.5,95,110.0
1300,B-2,120.5,0.5,95,110.0
1301,A3,121.0,3.0,95,110.0
1302,F3,121.0,3.0,95,110.0
1303,F3,121.0,0.5,95,110.0
1304,C3,121.0,0.5,95,110.0
1305,F2,121.0,0.5,95,110.0
1306,G#2,121.0,0.5,95,110.0
1307,D2,121.0,0.5,95,110.0
1308,F1,121.5,23/200,95,110.0
1309,F4,121.5,1.0,95,110.0
1310,C4,121.5,1.0,95,110.0
1311,A3,121.5,1.0,95,110.0
1312,F3,121.5,1.0,95,110.0
1313,G#2,121.5,0.5,95,110.0
1314,C2,121.5,0.5,95,110.0
1315,G#2,122.0,0.5,95,110.0
1316,F1,122.0,1.0,95,110.0
1317,F4,122.5,0.5,95,110.0
1318,C4,122.5,0.5,95,110.0
1319,A3,122.5,0.5,95,110.0
1320,F3,122.5,0.5,95,110.0
1321,G#2,122.5,0.5,95,110.0
1322,C2,122.5,0.5,95,110.0
1323,C1,123.0,1.0,95,110.0
1324,C4,123.0,1.0,95,110.0
1325,A3,123.0,1.0,95,110.0
1326,F3,123.0,1.0,95,110.0
1327,C3,123.0,1.0,95,110.0
1328,F2,123.0,1.0,95,110.0
1329,G#2,123.0,0.5,95,110.0
1330,D2,123.0,0.5,95,110.0
1331,G#2,123.5,0.5,95,110.0
1332,C4,124.0,1.0,95,110.0
1333,G3,124.0,1.0,95,110.0
1334,C2,124.0,1.0,95,110.0
1335,G2,124.0,479/500,95,110.0
1336,C3,124.0,479/500,95,110.0
1337,E3,124.0,479/500,95,110.0
1338,G3,124.0,479/500,95,110.0
1339,C4,124.0,479/500,95,110.0
1340,E4,124.0,479/500,95,110.0
1341,G#2,124.0,0.5,95,110.0
1342,C2,124.0,0.5,95,110.0
1343,G#2,124.5,0.5,95,110.0
1344,B-2,124.5,0.5,95,110.0
1345,C4,125.0,1.0,95,110.0
1346,G3,125.0,1.0,95,110.0
1347,C3,125.0,483/1000,95,110.0
1348,E3,125.0,483/1000,95,110.0
1349,G3,125.0,483/1000,95,110.0
1350,G#2,125.0,0.5,95,110.0
1351,D2,125.0,0.5,95,110.0
1352,C2,125.5,23/200,95,110.0
1353,E4,125.5,0.969,95,110.0
1354,C4,125.5,0.969,95,110.0
1355,G3,125.5,0.969,95,110.0
1356,G#2,125.5,0.5,95,110.0
1357,C2,125.5,0.5,95,110.0
1358,G#2,126.0,0.5,95,110.0
1359,B3,126.0,0.5,95,110.0
1360,F#3,126.0,0.5,95,110.0
1361,C2,126.0,1.0,95,110.0
1362,C4,126.5,1.0,95,110.0
1363,G3,126.5,1.0,95,110.0
1364,E4,126.5,123/250,95,110.0
1365,C4,126.5,123/250,95,110.0
1366,G3,126.5,123/250,95,110.0
1367,G#2,126.5,0.5,95,110.0
1368,C2,126.5,0.5,95,110.0
1369,G1,127.0,1.0,95,110.0
1370,C3,127.0,39/40,95,110.0
1371,E3,127.0,39/40,95,110.0
1372,G3,127.0,39/40,95,110.0
1373,C4,127.0,39/40,95,110.0
1374,G#2,127.0,0.5,95,110.0
1375,D2,127.0,0.5,95,110.0
1376,G#2,127.5,0.5,95,110.0
1377,A3,127.5,0.5,95,110.0
1378,F#3,127.5,0.5,95,110.0
1379,D4,128.0,0.5,95,110.0
1380,A3,128.0,0.5,95,110.0
1381,C2,128.0,1.0,95,110.0
1382,G2,128.0,479/500,95,110.0
1383,C3,128.0,479/500,95,110.0
1384,E3,128.0,479/500,95,110.0
1385,G3,128.0,479/500,95,110.0
1386,C4,128.0,479/500,95,110.0
1387,E4,128.0,479/500,95,110.0
1388,G#2,128.0,0.5,95,110.0
1389,C2,128.0,0.5,95,110.0
1390,C4,128.5,0.5,95,110.0
1391,G3,128.5,0.5,95,110.0
1392,G#2,128.5,0.5,95,110.0
1393,B-2,128.5,0.5,95,110.0
1394,C4,129.0,3.0,95,110.0
1395,G3,129.0,3.0,95,110.0
1396,C3,129.0,483/1000,95,110.0
1397,E3,129.0,483/1000,95,110.0
1398,G3,129.0,483/1000,95,110.0
1399,G#2,129.0,0.5,95,110.0
1400,D2,129.0,0.5,95,110.0
1401,C2,129.5,23/200,95,110.0
1402,E4,129.5,0.969,95,110.0
1403,C4,129.5,0.969,95,110.0
1404,G3,129.5,0.969,95,110.0
1405,G#2,129.5,0.5,95,110.0
1406,C2,129.5,0.5,95,110.0
1407,G#2,130.0,0.5,95,110.0
1408,C2,130.0,0.5,95,110.0
1409,E1,130.5,0.5,95,110.0
1410,E4,130.5,123/250,95,110.0
1411,C4,130.5,123/250,95,110.0
1412,G3,130.5,123/250,95,110.0
1413,G#2,130.5,0.5,95,110.0
1414,C2,130.5,0.5,95,110.0
1415,F1,131.0,1.0,95,110.0
1416,C3,131.0,39/40,95,110.0
1417,E3,131.0,39/40,95,110.0
1418,G3,131.0,39/40,95,110.0
1419,C4,131.0,39/40,95,110.0
1420,G#2,131.0,0.5,95,110.0
1421,D2,131.0,0.5,95,110.0
1422,G#2,131.5,0.5,95,110.0
1423,D4,132.0,1.0,95,110.0
1424,B3,132.0,1.0,95,110.0
1425,G1,132.0,1.0,95,110.0
1426,G2,132.0,967/1000,95,110.0
1427,B2,132.0,967/1000,95,110.0
1428,D3,132.0,967/1000,95,110.0
1429,G3,132.0,967/1000,95,110.0
1430,D4,132.0,967/1000,95,110.0
1431,G#2,132.0,0.5,95,110.0
1432,C2,132.0,0.5,95,110.0
1433,G#2,132.5,0.5,95,110.0
1434,B-2,132.5,0.5,95,110.0
1435,D4,133.0,1.0,95,110.0
1436,B3,133.0,1.0,95,110.0
1437,D3,133.0,19/40,95,110.0
1438,G3,133.0,19/40,95,110.0
1439,D4,133.0,19/40,95,110.0
1440,G4,133.0,19/40,95,110.0
1441,G#2,133.0,0.5,95,110.0
1442,D2,133.0,0.5,95,110.0
1443,G1,133.5,23/200,95,110.0
1444,G4,133.5,0.953,95,110.0
1445,D4,133.5,0.953,95,110.0
1446,G3,133.5,0.953,95,110.0
1447,D3,133.5,0.953,95,110.0
1448,G#2,133.5,0.5,95,110.0
1449,C2,133.5,0.5,95,110.0
1450,G#2,134.0,0.5,95,110.0
1451,D4,134.0,0.5,95,110.0
1452,A3,134.0,0.5,95,110.0
1453,G1,134.0,1.0,95,110.0
1454,D4,134.5,1.0,95,110.0
1455,B3,134.5,1.0,95,110.0
1456,G4,134.5,61/125,95,110.0
1457,D4,134.5,61/125,95,110.0
1458,G3,134.5,61/125,95,110.0
1459,D3,134.5,61/125,95,110.0
1460,G#2,134.5,0.5,95,110.0
1461,C2,134.5,0.5,95,110.0
1462,D1,135.0,1.0,95,110.0
1463,G2,135.0,967/1000,95,110.0
1464,B2,135.0,967/1000,95,110.0
1465,D3,135.0,967/1000,95,110.0
1466,G3,135.0,967/1000,95,110.0
1467,D4,135.0,967/1000,95,110.0
1468,G#2,135.0,0.5,95,110.0
1469,D2,135.0,0.5,95,110.0
1470,G#2,135.5,0.5,95,110.0
1471,C4,135.5,0.5,95,110.0
1472,A3,135.5,0.5,95,110.0
1473,E4,136.0,0.5,95,110.0
1474,C4,136.0,0.5,95,110.0
1475,G1,136.0,1.0,95,110.0
1476,G2,136.0,967/1000,95,110.0
1477,B2,136.0,967/1000,95,110.0
1478,D3,136.0,967/1000,95,110.0
1479,G3,136.0,967/1000,95,110.0
1480,D4,136.0,967/1000,95,110.0
1481,G#2,136.0,0.5,95,110.0
1482,C2,136.0,0.5,95,110.0
1483,D4,136.5,0.5,95,110.0
1484,B3,136.5,0.5,95,110.0
1485,G#2,136.5,0.5,95,110.0
1486,B-2,136.5,0.5,95,110.0
1487,D4,137.0,3.0,95,110.0
1488,B3,137.0,3.0,95,110.0
1489,D3,137.0,19/40,95,110.0
1490,G3,137.0,19/40,95,110.0
1491,D4,137.0,19/40,95,110.0
1492,G4,137.0,19/40,95,110.0
1493,G#2,137.0,0.5,95,110.0
1494,D2,137.0,0.5,95,110.0
1495,G1,137.5,23/200,95,110.0
1496,G4,137.5,0.953,95,110.0
1497,D4,137.5,0.953,95,110.0
1498,G3,137.5,0.953,95,110.0
1499,D3,137.5,0.953,95,110.0
1500,G#2,137.5,0.5,95,110.0
1501,C2,137.5,0.5,95,110.0
1502,G#2,138.0,0.5,95,110.0
1503,G1,138.0,1.0,95,110.0
1504,G4,138.5,61/125,95,110.0
1505,D4,138.5,61/125,95,110.0
1506,G3,138.5,61/125,95,110.0
1507,D3,138.5,61/125,95,110.0
1508,G#2,138.5,0.5,95,110.0
1509,C2,138.5,0.5,95,110.0
1510,D1,139.0,1.0,95,110.0
1511,G2,139.0,967/1000,95,110.0
1512,B2,139.0,967/1000,95,110.0
1513,D3,139.0,967/1000,95,110.0
1514,G3,139.0,967/1000,95,110.0
1515,D4,139.0,967/1000,95,110.0
1516,G#2,139.0,0.5,95,110.0
1517,D2,139.0,0.5,95,110.0
1518,G#2,139.5,0.5,95,110.0
1519,E4,140.0,1.0,95,110.0
1520,C4,140.0,1.0,95,110.0
1521,C2,140.0,1.0,95,110.0
1522,G2,140.0,479/500,95,110.0
1523,C3,140.0,479/500,95,110.0
1524,E3,140.0,479/500,95,110.0
1525,G3,140.0,479/500,95,110.0
1526,C4,140.0,479/500,95,110.0
1527,E4,140.0,479/500,95,110.0
1528,G#2,140.0,0.5,95,110.0
1529,C2,140.0,0.5,95,110.0
1530,G#2,140.5,0.5,95,110.0
1531,B-2,140.5,0.5,95,110.0
1532,E4,141.0,1.0,95,110.0
1533,C4,141.0,1.0,95,110.0
1534,C3,141.0,483/1000,95,110.0
1535,E3,141.0,483/1000,95,110.0
1536,G3,141.0,483/1000,95,110.0
1537,G#2,141.0,0.5,95,110.0
1538,D2,141.0,0.5,95,110.0
1539,C2,141.5,23/200,95,110.0
1540,E4,141.5,0.969,95,110.0
1541,C4,141.5,0.969,95,110.0
1542,G3,141.5,0.969,95,110.0
1543,G#2,141.5,0.5,95,110.0
1544,C2,141.5,0.5,95,110.0
1545,G#2,142.0,0.5,95,110.0
1546,D4,142.0,0.5,95,110.0
1547,B3,142.0,0.5,95,110.0
1548,C2,142.0,1.0,95,110.0
1549,E4,142.5,1.0,95,110.0
1550,C4,142.5,1.0,95,110.0
1551,E4,142.5,123/250,95,110.0
1552,C4,142.5,123/250,95,110.0
1553,G3,142.5,123/250,95,110.0
1554,G#2,142.5,0.5,95,110.0
1555,C2,142.5,0.5,95,110.0
1556,G1,143.0,1.0,95,110.0
1557,C3,143.0,39/40,95,110.0
1558,E3,143.0,39/40,95,110.0
1559,G3,143.0,39/40,95,110.0
1560,C4,143.0,39/40,95,110.0
1561,G#2,143.0,0.5,95,110.0
1562,D2,143.0,0.5,95,110.0
1563,G#2,143.5,0.5,95,110.0
1564,D4,143.5,0.5,95,110.0
1565,B3,143.5,0.5,95,110.0
1566,F4,144.0,0.5,95,110.0
1567,D4,144.0,0.5,95,110.0
1568,C2,144.0,1.0,95,110.0
1569,G2,144.0,479/500,95,110.0
1570,C3,144.0,479/500,95,110.0
1571,E3,144.0,479/500,95,110.0
1572,G3,144.0,479/500,95,110.0
1573,C4,144.0,479/500,95,110.0
1574,E4,144.0,479/500,95,110.0
1575,G#2,144.0,0.5,95,110.0
1576,C2,144.0,0.5,95,110.0
1577,E4,144.5,0.5,95,110.0
1578,C4,144.5,0.5,95,110.0
1579,G#2,144.5,0.5,95,110.0
1580,B-2,144.5,0.5,95,110.0
1581,E4,145.0,3.0,95,110.0
1582,C4,145.0,3.0,95,110.0
1583,C3,145.0,483/1000,95,110.0
1584,E3,145.0,483/1000,95,110.0
1585,G3,145.0,483/1000,95,110.0
1586,G#2,145.0,0.5,95,110.0
1587,D2,145.0,0.5,95,110.0
1588,C2,145.5,23/200,95,110.0
1589,E4,145.5,0.969,95,110.0
1590,C4,145.5,0.969,95,110.0
1591,G3,145.5,0.969,95,110.0
1592,G#2,145.5,0.5,95,110.0
1593,C2,145.5,0.5,95,110.0
1594,G#2,146.0,0.5,95,110.0
1595,C2,146.0,1.0,95,110.0
1596,E4,146.5,123/250,95,110.0
1597,C4,146.5,123/250,95,110.0
1598,G3,146.5,123/250,95,110.0
1599,G#2,146.5,0.5,95,110.0
1600,C2,146.5,0.5,95,110.0
1601,G1,147.0,1.0,95,110.0
1602,C3,147.0,39/40,95,110.0
1603,E3,147.0,39/40,95,110.0
1604,G3,147.0,39/40,95,110.0
1605,C4,147.0,39/40,95,110.0
1606,G#2,147.0,0.5,95,110.0
1607,D2,147.0,0.5,95,110.0
1608,G#2,147.5,0.5,95,110.0
1609,E4,148.0,1.0,95,110.0
1610,C4,148.0,1.0,95,110.0
1611,C2,148.0,1.0,95,110.0
1612,G2,148.0,479/500,95,110.0
1613,C3,148.0,479/500,95,110.0
1614,E3,148.0,479/500,95,110.0
1615,G3,148.0,479/500,95,110.0
1616,C4,148.0,479/500,95,110.0
1617,E4,148.0,479/500,95,110.0
1618,G#2,148.0,0.5,95,110.0
1619,C2,148.0,0.5,95,110.0
1620,G#2,148.5,0.5,95,110.0
1621,B-2,148.5,0.5,95,110.0
1622,E4,149.0,1.0,95,110.0
1623,C4,149.0,1.0,95,110.0
1624,C3,149.0,483/1000,95,110.0
1625,E3,149.0,483/1000,95,110.0
1626,G3,149.0,483/1000,95,110.0
1627,G#2,149.0,0.5,95,110.0
1628,D2,149.0,0.5,95,110.0
1629,C2,149.5,23/200,95,110.0
1630,E4,149.5,0.969,95,110.0
1631,C4,149.5,0.969,95,110.0
1632,G3,149.5,0.969,95,110.0
1633,G#2,149.5,0.5,95,110.0
1634,C2,149.5,0.5,95,110.0
1635,G#2,150.0,0.5,95,110.0
1636,D4,150.0,0.5,95,110.0
1637,B3,150.0,0.5,95,110.0
1638,C2,150.0,1.0,95,110.0
1639,E4,150.5,1.0,95,110.0
1640,C4,150.5,1.0,95,110.0
1641,E4,150.5,123/250,95,110.0
1642,C4,150.5,123/250,95,110.0
1643,G3,150.5,123/250,95,110.0
1644,G#2,150.5,0.5,95,110.0
1645,C2,150.5,0.5,95,110.0
1646,G1,151.0,1.0,95,110.0
1647,C3,151.0,39/40,95,110.0
1648,E3,151.0,39/40,95,110.0
1649,G3,151.0,39/40,95,110.0
1650,C4,151.0,39/40,95,110.0
1651,G#2,151.0,0.5,95,110.0
1652,D2,151.0,0.5,95,110.0
1653,G#2,151.5,0.5,95,110.0
1654,D4,151.5,0.5,95,110.0
1655,B3,151.5,0.5,95,110.0
1656,F4,152.0,0.5,95,110.0
1657,D4,152.0,0.5,95,110.0
1658,C2,152.0,1.0,95,110.0
1659,G2,152.0,479/500,95,110.0
1660,C3,152.0,479/500,95,110.0
1661,E3,152.0,479/500,95,110.0
1662,G3,152.0,479/500,95,110.0
1663,C4,152.0,479/500,95,110.0
1664,E4,152.0,479/500,95,110.0
1665,G#2,152.0,0.5,95,110.0
1666,C2,152.0,0.5,95,110.0
1667,E4,152.5,0.5,95,110.0
1668,C4,152.5,0.5,95,110.0
1669,G#2,152.5,0.5,95,110.0
1670,B-2,152.5,0.5,95,110.0
1671,E4,153.0,3.0,95,110.0
1672,C4,153.0,3.0,95,110.0
1673,C3,153.0,483/1000,95,110.0
1674,E3,153.0,483/1000,95,110.0
1675,G3,153.0,483/1000,95,110.0
1676,G#2,153.0,0.5,95,110.0
1677,D2,153.0,0.5,95,110.0
1678,C2,153.5,23/200,95,110.0
1679,E4,153.5,0.969,95,110.0
1680,C4,153.5,0.969,95,110.0
1681,G3,153.5,0.969,95,110.0
1682,G#2,153.5,0.5,95,110.0
1683,C2,153.5,0.5,95,110.0
1684,G#2,154.0,0.5,95,110.0
1685,C2,154.0,0.5,95,110.0
1686,E1,154.5,0.5,95,110.0
1687,E4,154.5,123/250,95,110.0
1688,C4,154.5,123/250,95,110.0
1689,G3,154.5,123/250,95,110.0
1690,G#2,154.5,0.5,95,110.0
1691,C2,154.5,0.5,95,110.0
1692,F1,155.0,1.0,95,110.0
1693,C3,155.0,39/40,95,110.0
1694,E3,155.0,39/40,95,110.0
1695,G3,155.0,39/40,95,110.0
1696,C4,155.0,39/40,95,110.0
1697,G#2,155.0,0.5,95,110.0
1698,D2,155.0,0.5,95,110.0
1699,G#2,155.5,0.5,95,110.0
1700,D4,156.0,0.5,95,110.0
1701,B3,156.0,0.5,95,110.0
1702,G1,156.0,1.0,95,110.0
1703,G2,156.0,967/1000,95,110.0
1704,B2,156.0,967/1000,95,110.0
1705,D3,156.0,967/1000,95,110.0
1706,G3,156.0,967/1000,95,110.0
1707,D4,156.0,967/1000,95,110.0
1708,G#2,156.0,0.5,95,110.0
1709,C2,156.0,0.5,95,110.0
1710,E4,156.5,0.5,95,110.0
1711,C4,156.5,0.5,95,110.0
1712,G#2,156.5,0.5,95,110.0
1713,B-2,156.5,0.5,95,110.0
1714,F4,157.0,1.0,95,110.0
1715,D4,157.0,1.0,95,110.0
1716,D3,157.0,19/40,95,110.0
1717,G3,157.0,19/40,95,110.0
1718,D4,157.0,19/40,95,110.0
1719,G4,157.0,19/40,95,110.0
1720,G#2,157.0,0.5,95,110.0
1721,D2,157.0,0.5,95,110.0
1722,G1,157.5,23/200,95,110.0
1723,G4,157.5,0.953,95,110.0
1724,D4,157.5,0.953,95,110.0
1725,G3,157.5,0.953,95,110.0
1726,D3,157.5,0.953,95,110.0
1727,G#2,157.5,0.5,95,110.0
1728,C2,157.5,0.5,95,110.0
1729,G#2,158.0,0.5,95,110.0
1730,E4,158.0,0.5,95,110.0
1731,C4,158.0,0.5,95,110.0
1732,G1,158.0,1.0,95,110.0
1733,D4,158.5,0.5,95,110.0
1734,B3,158.5,0.5,95,110.0
1735,G4,158.5,61/125,95,110.0
1736,D4,158.5,61/125,95,110.0
1737,G3,158.5,61/125,95,110.0
1738,D3,158.5,61/125,95,110.0
1739,G#2,158.5,0.5,95,110.0
1740,C2,158.5,0.5,95,110.0
1741,C4,159.0,0.5,95,110.0
1742,A3,159.0,0.5,95,110.0
1743,D1,159.0,1.0,95,110.0
1744,G2,159.0,967/1000,95,110.0
1745,B2,159.0,967/1000,95,110.0
1746,D3,159.0,967/1000,95,110.0
1747,G3,159.0,967/1000,95,110.0
1748,D4,159.0,967/1000,95,110.0
1749,G#2,159.0,0.5,95,110.0
1750,D2,159.0,0.5,95,110.0
1751,G#2,159.5,0.5,95,110.0
1752,D4,159.5,0.5,95,110.0
1753,B3,159.5,0.5,95,110.0
1754,C4,160.0,0.5,95,110.0
1755,A3,160.0,0.5,95,110.0
1756,G1,160.0,1.0,95,110.0
1757,G2,160.0,967/1000,95,110.0
1758,B2,160.0,967/1000,95,110.0
1759,D3,160.0,967/1000,95,110.0
1760,G3,160.0,967/1000,95,110.0
1761,D4,160.0,967/1000,95,110.0
1762,G#2,160.0,0.5,95,110.0
1763,C2,160.0,0.5,95,110.0
1764,B3,160.5,0.5,95,110.0
1765,G3,160.5,0.5,95,110.0
1766,G#2,160.5,0.5,95,110.0
1767,B-2,160.5,0.5,95,110.0
1768,B3,161.0,1.5,95,110.0
1769,G3,161.0,1.5,95,110.0
1770,D3,161.0,19/40,95,110.0
1771,G3,161.0,19/40,95,110.0
1772,D4,161.0,19/40,95,110.0
1773,G4,161.0,19/40,95,110.0
1774,G#2,161.0,0.5,95,110.0
1775,D2,161.0,0.5,95,110.0
1776,G1,161.5,23/200,95,110.0
1777,G4,161.5,0.953,95,110.0
1778,D4,161.5,0.953,95,110.0
1779,G3,161.5,0.953,95,110.0
1780,D3,161.5,0.953,95,110.0
1781,G#2,161.5,0.5,95,110.0
1782,C2,161.5,0.5,95,110.0
1783,G#2,162.0,0.5,95,110.0
1784,G1,162.0,1.0,95,110.0
1785,A3,162.5,0.5,95,110.0
1786,F3,162.5,0.5,95,110.0
1787,G4,162.5,61/125,95,110.0
1788,D4,162.5,61/125,95,110.0
1789,G3,162.5,61/125,95,110.0
1790,D3,162.5,61/125,95,110.0
1791,G#2,162.5,0.5,95,110.0
1792,C2,162.5,0.5,95,110.0
1793,C4,163.0,0.5,95,110.0
1794,A3,163.0,1.0,95,110.0
1795,D1,163.0,1.0,95,110.0
1796,G2,163.0,967/1000,95,110.0
1797,B2,163.0,967/1000,95,110.0
1798,D3,163.0,967/1000,95,110.0
1799,G3,163.0,967/1000,95,110.0
1800,D4,163.0,967/1000,95,110.0
1801,G#2,163.0,0.5,95,110.0
1802,D2,163.0,0.5,95,110.0
1803,G#2,163.5,0.5,95,110.0
1804,C4,164.0,1.0,95,110.0
1805,A3,164.0,1.0,95,110.0
1806,F1,164.0,1.0,95,110.0
1807,F2,164.0,967/1000,95,110.0
1808,C3,164.0,967/1000,95,110.0
1809,F3,164.0,967/1000,95,110.0
1810,A3,164.0,967/1000,95,110.0
1811,C4,164.0,967/1000,95,110.0
1812,G#2,164.0,0.5,95,110.0
1813,C2,164.0,0.5,95,110.0
1814,G#2,164.5,0.5,95,110.0
1815,B-2,164.5,0.5,95,110.0
1816,C4,165.0,1.0,95,110.0
1817,A3,165.0,1.0,95,110.0
1818,E2,165.0,19/40,95,110.0
1819,C3,165.0,19/40,95,110.0
1820,F3,165.0,19/40,95,110.0
1821,A3,165.0,19/40,95,110.0
1822,G#2,165.0,0.5,95,110.0
1823,D2,165.0,0.5,95,110.0
1824,F1,165.5,23/200,95,110.0
1825,F4,165.5,0.969,95,110.0
1826,C4,165.5,0.969,95,110.0
1827,A3,165.5,0.969,95,110.0
1828,G#2,165.5,0.5,95,110.0
1829,C2,165.5,0.5,95,110.0
1830,G#2,166.0,0.5,95,110.0
1831,B3,166.0,0.5,95,110.0
1832,G3,166.0,0.5,95,110.0
1833,F1,166.0,1.0,95,110.0
1834,C4,166.5,1.0,95,110.0
1835,A3,166.5,1.0,95,110.0
1836,F4,166.5,61/125,95,110.0
1837,C4,166.5,61/125,95,110.0
1838,A3,166.5,61/125,95,110.0
1839,F3,166.5,61/125,95,110.0
1840,G#2,166.5,0.5,95,110.0
1841,C2,166.5,0.5,95,110.0
1842,C1,167.0,1.0,95,110.0
1843,C3,167.0,967/1000,95,110.0
1844,F3,167.0,967/1000,95,110.0
1845,A3,167.0,967/1000,95,110.0
1846,C4,167.0,967/1000,95,110.0
1847,F4,167.0,967/1000,95,110.0
1848,G#2,167.0,0.5,95,110.0
1849,D2,167.0,0.5,95,110.0
1850,G#2,167.5,0.5,95,110.0
1851,A3,167.5,0.5,95,110.0
1852,F3,167.5,0.5,95,110.0
1853,B3,168.0,1.0,95,110.0
1854,G3,168.0,0.5,95,110.0
1855,D1,168.0,1.0,95,110.0
1856,D3,168.0,39/40,95,110.0
1857,A3,168.0,39/40,95,110.0
1858,D4,168.0,39/40,95,110.0
1859,F4,168.0,39/40,95,110.0
1860,G#2,168.0,0.5,95,110.0
1861,C2,168.0,0.5,95,110.0
1862,D3,168.5,0.5,95,110.0
1863,G#2,168.5,0.5,95,110.0
1864,B-2,168.5,0.5,95,110.0
1865,G3,169.0,3.0,95,110.0
1866,D3,169.0,3.0,95,110.0
1867,D3,169.0,483/1000,95,110.0
1868,A3,169.0,483/1000,95,110.0
1869,D4,169.0,483/1000,95,110.0
1870,G#2,169.0,0.5,95,110.0
1871,D2,169.0,0.5,95,110.0
1872,D1,169.5,23/200,95,110.0
1873,A4,169.5,0.953,95,110.0
1874,F4,169.5,0.953,95,110.0
1875,D4,169.5,0.953,95,110.0
1876,A3,169.5,0.953,95,110.0
1877,G#2,169.5,0.5,95,110.0
1878,C2,169.5,0.5,95,110.0
1879,G#2,170.0,0.5,95,110.0
1880,D1,170.0,1.0,95,110.0
1881,A4,170.5,61/125,95,110.0
1882,F4,170.5,61/125,95,110.0
1883,D4,170.5,61/125,95,110.0
1884,A3,170.5,61/125,95,110.0
1885,G#2,170.5,0.5,95,110.0
1886,C2,170.5,0.5,95,110.0
1887,E1,171.0,1.0,95,110.0
1888,D3,171.0,967/1000,95,110.0
1889,A3,171.0,967/1000,95,110.0
1890,D4,171.0,967/1000,95,110.0
1891,F4,171.0,967/1000,95,110.0
1892,A4,171.0,967/1000,95,110.0
1893,G#2,171.0,0.5,95,110.0
1894,D2,171.0,0.5,95,110.0
1895,G#2,171.5,0.5,95,110.0
1896,G3,172.0,0.5,95,110.0
1897,B2,172.0,0.5,95,110.0
1898,G1,172.0,1.0,95,110.0
1899,G2,172.0,967/1000,95,110.0
1900,B2,172.0,967/1000,95,110.0
1901,D3,172.0,967/1000,95,110.0
1902,G3,172.0,967/1000,95,110.0
1903,D4,172.0,967/1000,95,110.0
1904,G#2,172.0,0.5,95,110.0
1905,C2,172.0,0.5,95,110.0
1906,A3,172.5,0.5,95,110.0
1907,C3,172.5,0.5,95,110.0
1908,G#2,172.5,0.5,95,110.0
1909,B-2,172.5,0.5,95,110.0
1910,B3,173.0,1.0,95,110.0
1911,D3,173.0,0.5,95,110.0
1912,D3,173.0,19/40,95,110.0
1913,G3,173.0,19/40,95,110.0
1914,D4,173.0,19/40,95,110.0
1915,G4,173.0,19/40,95,110.0
1916,G#2,173.0,0.5,95,110.0
1917,D2,173.0,0.5,95,110.0
1918,G3,173.5,0.5,95,110.0
1919,G1,173.5,23/200,95,110.0
1920,G4,173.5,0.953,95,110.0
1921,D4,173.5,0.953,95,110.0
1922,G3,173.5,0.953,95,110.0
1923,D3,173.5,0.953,95,110.0
1924,G#2,173.5,0.5,95,110.0
1925,C2,173.5,0.5,95,110.0
1926,G#2,174.0,0.5,95,110.0
1927,A3,174.0,0.5,95,110.0
1928,F3,174.0,0.5,95,110.0
1929,G1,174.0,1.0,95,110.0
1930,G3,174.5,0.5,95,110.0
1931,E3,174.5,0.5,95,110.0
1932,G4,174.5,61/125,95,110.0
1933,D4,174.5,61/125,95,110.0
1934,G3,174.5,61/125,95,110.0
1935,D3,174.5,61/125,95,110.0
1936,G#2,174.5,0.5,95,110.0
1937,C2,174.5,0.5,95,110.0
1938,F3,175.0,0.5,95,110.0
1939,D3,175.0,0.5,95,110.0
1940,A1,175.0,1.0,95,110.0
1941,G2,175.0,967/1000,95,110.0
1942,B2,175.0,967/1000,95,110.0
1943,D3,175.0,967/1000,95,110.0
1944,G3,175.0,967/1000,95,110.0
1945,D4,175.0,967/1000,95,110.0
1946,G#2,175.0,0.5,95,110.0
1947,D2,175.0,0.5,95,110.0
1948,G#2,175.5,0.5,95,110.0
1949,G3,175.5,0.5,95,110.0
1950,E3,175.5,0.5,95,110.0
1951,F3,176.0,0.5,95,110.0
1952,D3,176.0,0.5,95,110.0
1953,C2,176.0,1.0,95,110.0
1954,G2,176.0,479/500,95,110.0
1955,C3,176.0,479/500,95,110.0
1956,E3,176.0,479/500,95,110.0
1957,G3,176.0,479/500,95,110.0
1958,C4,176.0,479/500,95,110.0
1959,E4,176.0,479/500,95,110.0
1960,G#2,176.0,0.5,95,110.0
1961,C2,176.0,0.5,95,110.0
1962,E3,176.5,0.5,95,110.0
1963,C3,176.5,0.5,95,110.0
1964,G#2,176.5,0.5,95,110.0
1965,B-2,176.5,0.5,95,110.0
1966,E3,177.0,3.0,95,110.0
1967,C3,177.0,3.0,95,110.0
1968,C3,177.0,483/1000,95,110.0
1969,E3,177.0,483/1000,95,110.0
1970,G3,177.0,483/1000,95,110.0
1971,G#2,177.0,0.5,95,110.0
1972,D2,177.0,0.5,95,110.0
1973,C2,177.5,23/200,95,110.0
1974,E4,177.5,0.969,95,110.0
1975,C4,177.5,0.969,95,110.0
1976,G3,177.5,0.969,95,110.0
1977,G#2,177.5,0.5,95,110.0
1978,C2,177.5,0.5,95,110.0
1979,G#2,178.0,0.5,95,110.0
1980,C2,178.0,1.0,95,110.0
1981,E4,178.5,123/250,95,110.0
1982,C4,178.5,123/250,95,110.0
1983,G3,178.5,123/250,95,110.0
1984,G#2,178.5,0.5,95,110.0
1985,C2,178.5,0.5,95,110.0
1986,G1,179.0,1.0,95,110.0
1987,C3,179.0,39/40,95,110.0
1988,E3,179.0,39/40,95,110.0
1989,G3,179.0,39/40,95,110.0
1990,C4,179.0,39/40,95,110.0
1991,G#2,179.0,0.5,95,110.0
1992,D2,179.0,0.5,95,110.0
1993,G#2,179.5,0.5,95,110.0
1994,E4,180.0,1.0,95,110.0
1995,C5,180.0,1.0,95,110.0
1996,C2,180.0,1.0,95,110.0
1997,G2,180.0,479/500,95,110.0
1998,C3,180.0,479/500,95,110.0
1999,E3,180.0,479/500,95,110.0
2000,G3,180.0,479/500,95,110.0
2001,C4,180.0,479/500,95,110.0
2002,E4,180.0,479/500,95,110.0
2003,G#2,180.0,0.5,95,110.0
2004,C2,180.0,0.5,95,110.0
2005,G#2,180.5,0.5,95,110.0
2006,B-2,180.5,0.5,95,110.0
2007,E4,181.0,1.0,95,110.0
2008,C5,181.0,1.0,95,110.0
2009,C3,181.0,483/1000,95,110.0
2010,E3,181.0,483/1000,95,110.0
2011,G3,181.0,483/1000,95,110.0
2012,G#2,181.0,0.5,95,110.0
2013,D2,181.0,0.5,95,110.0
2014,C2,181.5,23/200,95,110.0
2015,E4,181.5,0.969,95,110.0
2016,C4,181.5,0.969,95,110.0
2017,G3,181.5,0.969,95,110.0
2018,G#2,181.5,0.5,95,110.0
2019,C2,181.5,0.5,95,110.0
2020,G#2,182.0,0.5,95,110.0
2021,D4,182.0,0.5,95,110.0
2022,B4,182.0,0.5,95,110.0
2023,C2,182.0,1.0,95,110.0
2024,E4,182.5,1.0,95,110.0
2025,C5,182.5,1.0,95,110.0
2026,E4,182.5,123/250,95,110.0
2027,C4,182.5,123/250,95,110.0
2028,G3,182.5,123/250,95,110.0
2029,G#2,182.5,0.5,95,110.0
2030,C2,182.5,0.5,95,110.0
2031,G1,183.0,1.0,95,110.0
2032,C3,183.0,39/40,95,110.0
2033,E3,183.0,39/40,95,110.0
2034,G3,183.0,39/40,95,110.0
2035,C4,183.0,39/40,95,110.0
2036,G#2,183.0,0.5,95,110.0
2037,D2,183.0,0.5,95,110.0
2038,G#2,183.5,0.5,95,110.0
2039,D4,183.5,0.5,95,110.0
2040,B4,183.5,0.5,95,110.0
2041,F4,184.0,0.5,95,110.0
2042,D5,184.0,0.5,95,110.0
2043,C2,184.0,1.0,95,110.0
2044,G2,184.0,479/500,95,110.0
2045,C3,184.0,479/500,95,110.0
2046,E3,184.0,479/500,95,110.0
2047,G3,184.0,479/500,95,110.0
2048,C4,184.0,479/500,95,110.0
2049,E4,184.0,479/500,95,110.0
2050,G#2,184.0,0.5,95,110.0
2051,C2,184.0,0.5,95,110.0
2052,E4,184.5,0.5,95,110.0
2053,C5,184.5,0.5,95,110.0
2054,G#2,184.5,0.5,95,110.0
2055,B-2,184.5,0.5,95,110.0
2056,E4,185.0,3.0,95,110.0
2057,C5,185.0,3.0,95,110.0
2058,C3,185.0,483/1000,95,110.0
2059,E3,185.0,483/1000,95,110.0
2060,G3,185.0,483/1000,95,110.0
2061,G#2,185.0,0.5,95,110.0
2062,D2,185.0,0.5,95,110.0
2063,C2,185.5,23/200,95,110.0
2064,E4,185.5,0.969,95,110.0
2065,C4,185.5,0.969,95,110.0
2066,G3,185.5,0.969,95,110.0
2067,G#2,185.5,0.5,95,110.0
2068,C2,185.5,0.5,95,110.0
2069,G#2,186.0,0.5,95,110.0
2070,C2,186.0,1.0,95,110.0
2071,E4,186.5,123/250,95,110.0
2072,C4,186.5,123/250,95,110.0
2073,G3,186.5,123/250,95,110.0
2074,G#2,186.5,0.5,95,110.0
2075,C2,186.5,0.5,95,110.0
2076,G1,187.0,1.0,95,110.0
2077,C3,187.0,39/40,95,110.0
2078,E3,187.0,39/40,95,110.0
2079,G3,187.0,39/40,95,110.0
2080,C4,187.0,39/40,95,110.0
2081,G#2,187.0,0.5,95,110.0
2082,D2,187.0,0.5,95,110.0
2083,G#2,187.5,0.5,95,110.0
2084,A3,188.0,4.0,95,110.0
