,note_name,start_time,duration,velocity,tempo
0,F#2,0.0,1.5,95,200.0
1,F#2,1.5,1.5,95,200.0
2,F#2,3.0,1.0,95,200.0
3,F#2,4.0,1.5,95,200.0
4,F#2,5.5,1.5,95,200.0
5,F#2,7.0,1.0,95,200.0
6,B3,8.0,1.5,95,200.0
7,B1,8.0,1.5,95,200.0
8,F#2,8.0,1.5,95,200.0
9,B3,8.0,4.0,95,200.0
10,F#3,8.0,4.0,95,200.0
11,B2,8.0,4.0,95,200.0
12,E4,9.5,1.5,95,200.0
13,B1,9.5,1.5,95,200.0
14,F#2,9.5,1.5,95,200.0
15,F#4,11.0,1.0,95,200.0
16,B1,11.0,1.0,95,200.0
17,F#2,11.0,1.0,95,200.0
18,G4,12.0,4.0,95,200.0
19,G1,12.0,4.0,95,200.0
20,F#2,12.0,1.5,95,200.0
21,G3,12.0,4.0,95,200.0
22,D3,12.0,4.0,95,200.0
23,G2,12.0,4.0,95,200.0
24,F#2,13.5,1.5,95,200.0
25,F#2,15.0,1.0,95,200.0
26,A4,16.0,1.5,95,200.0
27,A1,16.0,1.5,95,200.0
28,F#2,16.0,1.5,95,200.0
29,A3,16.0,4.0,95,200.0
30,E3,16.0,4.0,95,200.0
31,A2,16.0,4.0,95,200.0
32,G4,17.5,1.5,95,200.0
33,A1,17.5,1.5,95,200.0
34,F#2,17.5,1.5,95,200.0
35,F#4,19.0,1.0,95,200.0
36,A1,19.0,1.0,95,200.0
37,F#2,19.0,1.0,95,200.0
38,G4,20.0,1.5,95,200.0
39,E2,20.0,1.5,95,200.0
40,F#2,20.0,1.5,95,200.0
41,B3,20.0,1.5,95,200.0
42,E3,20.0,1.5,95,200.0
43,F#4,21.5,1.5,95,200.0
44,D2,21.5,1.5,95,200.0
45,F#2,21.5,1.5,95,200.0
46,A3,21.5,1.5,95,200.0
47,D3,21.5,1.5,95,200.0
48,E4,23.0,1.0,95,200.0
49,C2,23.0,1.0,95,200.0
50,F#2,23.0,1.0,95,200.0
51,G3,23.0,1.0,95,200.0
52,C3,23.0,1.0,95,200.0
53,B3,24.0,1.5,95,200.0
54,B1,24.0,1.5,95,200.0
55,B3,24.0,4.0,95,200.0
56,F#3,24.0,4.0,95,200.0
57,B2,24.0,4.0,95,200.0
58,F#2,24.0,1.5,95,200.0
59,C2,24.0,1.5,95,200.0
60,E4,25.5,1.5,95,200.0
61,B1,25.5,1.5,95,200.0
62,F#2,25.5,1.5,95,200.0
63,C2,25.5,1.5,95,200.0
64,F#4,27.0,1.0,95,200.0
65,B1,27.0,1.0,95,200.0
66,F#2,27.0,1.0,95,200.0
67,C2,27.0,1.0,95,200.0
68,G4,28.0,4.0,95,200.0
69,G1,28.0,4.0,95,200.0
70,G4,28.0,4.0,95,200.0
71,D4,28.0,4.0,95,200.0
72,G3,28.0,4.0,95,200.0
73,F#2,28.0,1.5,95,200.0
74,C2,28.0,1.5,95,200.0
75,F#2,29.5,1.5,95,200.0
76,C2,29.5,1.5,95,200.0
77,F#2,31.0,1.0,95,200.0
78,C2,31.0,1.0,95,200.0
79,A4,32.0,1.5,95,200.0
80,A1,32.0,1.5,95,200.0
81,F#2,32.0,1.5,95,200.0
82,A3,32.0,4.0,95,200.0
83,E3,32.0,4.0,95,200.0
84,A2,32.0,4.0,95,200.0
85,B4,33.5,1.5,95,200.0
86,A1,33.5,1.5,95,200.0
87,F#2,33.5,1.5,95,200.0
88,C5,35.0,1.0,95,200.0
89,A1,35.0,1.0,95,200.0
90,F#2,35.0,1.0,95,200.0
91,B4,36.0,4.0,95,200.0
92,A1,36.0,4.0,95,200.0
93,B-2,36.0,4.0,95,200.0
94,B3,40.0,1.5,95,200.0
95,B1,40.0,1.0,95,200.0
96,A3,40.0,4.0,95,200.0
97,E3,40.0,4.0,95,200.0
98,A2,40.0,4.0,95,200.0
99,A3,40.0,0.5,95,200.0
100,B1,40.0,0.5,95,200.0
101,F#2,40.5,0.5,95,200.0
102,B1,41.0,1.0,95,200.0
103,F#2,41.0,0.5,95,200.0
104,E4,41.5,1.5,95,200.0
105,F#2,41.5,0.5,95,200.0
106,B1,42.0,1.0,95,200.0
107,F#2,42.0,0.5,95,200.0
108,D2,42.0,0.5,95,200.0
109,F#2,42.5,0.5,95,200.0
110,F#4,43.0,1.0,95,200.0
111,B1,43.0,1.0,95,200.0
112,F#2,43.0,0.5,95,200.0
113,F#2,43.5,0.5,95,200.0
114,G4,44.0,4.0,95,200.0
115,G1,44.0,1.0,95,200.0
116,B3,44.0,4.0,95,200.0
117,F#3,44.0,4.0,95,200.0
118,B2,44.0,4.0,95,200.0
119,F#2,44.0,0.5,95,200.0
120,B1,44.0,0.5,95,200.0
121,F#2,44.5,0.5,95,200.0
122,G1,45.0,1.0,95,200.0
123,F#2,45.0,0.5,95,200.0
124,F#2,45.5,0.5,95,200.0
125,G1,46.0,1.0,95,200.0
126,F#2,46.0,0.5,95,200.0
127,D2,46.0,0.5,95,200.0
128,F#2,46.5,0.5,95,200.0
129,G1,47.0,1.0,95,200.0
130,F#2,47.0,0.5,95,200.0
131,F#2,47.5,0.5,95,200.0
132,A4,48.0,1.5,95,200.0
133,A1,48.0,1.0,95,200.0
134,G4,48.0,4.0,95,200.0
135,D4,48.0,4.0,95,200.0
136,G3,48.0,4.0,95,200.0
137,A3,48.0,0.5,95,200.0
138,B1,48.0,0.5,95,200.0
139,F#2,48.5,0.5,95,200.0
140,A1,49.0,1.0,95,200.0
141,F#2,49.0,0.5,95,200.0
142,G4,49.5,1.5,95,200.0
143,F#2,49.5,0.5,95,200.0
144,A1,50.0,1.0,95,200.0
145,F#2,50.0,0.5,95,200.0
146,D2,50.0,0.5,95,200.0
147,F#2,50.5,0.5,95,200.0
148,F#4,51.0,1.0,95,200.0
149,A1,51.0,1.0,95,200.0
150,F#2,51.0,0.5,95,200.0
151,F#2,51.5,0.5,95,200.0
152,G4,52.0,1.5,95,200.0
153,E2,52.0,1.5,95,200.0
154,A3,52.0,4.0,95,200.0
155,E3,52.0,4.0,95,200.0
156,A2,52.0,4.0,95,200.0
157,C#3,52.0,1.5,95,200.0
158,C2,52.0,1.5,95,200.0
159,F#4,53.5,1.5,95,200.0
160,D2,53.5,1.5,95,200.0
161,C#3,53.5,1.5,95,200.0
162,D2,53.5,1.5,95,200.0
163,E4,55.0,1.0,95,200.0
164,C2,55.0,1.0,95,200.0
165,C#3,55.0,1.0,95,200.0
166,C2,55.0,1.0,95,200.0
167,B3,56.0,4.0,95,200.0
168,B1,56.0,0.5,95,200.0
169,B3,56.0,1.5,95,200.0
170,E3,56.0,1.5,95,200.0
171,A3,56.0,0.5,95,200.0
172,B1,56.0,0.5,95,200.0
173,B1,56.5,0.5,95,200.0
174,F#2,56.5,0.5,95,200.0
175,B1,57.0,0.5,95,200.0
176,F#2,57.0,0.5,95,200.0
177,B1,57.5,0.5,95,200.0
178,F#2,57.5,0.5,95,200.0
179,A3,57.5,1.5,95,200.0
180,D3,57.5,1.5,95,200.0
181,B1,58.0,0.5,95,200.0
182,F#2,58.0,0.5,95,200.0
183,D2,58.0,0.5,95,200.0
184,B1,58.5,0.5,95,200.0
185,F#2,58.5,0.5,95,200.0
186,B1,59.0,0.5,95,200.0
187,F#2,59.0,0.5,95,200.0
188,G3,59.0,1.0,95,200.0
189,C3,59.0,1.0,95,200.0
190,B1,59.5,0.5,95,200.0
191,F#2,59.5,0.5,95,200.0
192,B3,60.0,4.0,95,200.0
193,B1,60.0,0.5,95,200.0
194,D2,60.0,0.5,95,200.0
195,B3,60.0,4.0,95,200.0
196,F#3,60.0,4.0,95,200.0
197,B2,60.0,4.0,95,200.0
198,B1,60.5,0.5,95,200.0
199,B1,61.0,0.5,95,200.0
200,D2,61.0,0.5,95,200.0
201,B1,61.5,0.5,95,200.0
202,D2,61.5,0.5,95,200.0
203,B1,62.0,0.5,95,200.0
204,D2,62.0,0.5,95,200.0
205,B1,62.5,0.5,95,200.0
206,D3,62.5,0.5,95,200.0
207,B1,63.0,0.5,95,200.0
208,B1,63.5,0.5,95,200.0
209,D3,63.5,0.5,95,200.0
210,C4,64.0,4.0,95,200.0
211,C2,64.0,0.5,95,200.0
212,D3,64.0,0.5,95,200.0
213,C2,64.5,0.5,95,200.0
214,D3,64.5,0.5,95,200.0
215,C2,65.0,0.5,95,200.0
216,C3,65.0,0.25,95,200.0
217,C3,65.25,0.25,95,200.0
218,C2,65.5,0.5,95,200.0
219,C3,65.5,0.25,95,200.0
220,C3,65.75,0.25,95,200.0
221,C2,66.0,0.5,95,200.0
222,C3,66.0,0.25,95,200.0
223,C3,66.25,0.25,95,200.0
224,C2,66.5,0.5,95,200.0
225,C3,66.5,0.25,95,200.0
226,C3,66.75,0.25,95,200.0
227,C2,67.0,0.5,95,200.0
228,B2,67.0,0.25,95,200.0
229,B2,67.25,0.25,95,200.0
230,C2,67.5,0.5,95,200.0
231,B2,67.5,0.25,95,200.0
232,B2,67.75,0.25,95,200.0
233,D4,68.0,4.0,95,200.0
234,D2,68.0,0.5,95,200.0
235,B2,68.0,0.25,95,200.0
236,B3,68.0,4.0,95,200.0
237,F#3,68.0,4.0,95,200.0
238,B2,68.0,4.0,95,200.0
239,B2,68.25,0.25,95,200.0
240,D2,68.5,0.5,95,200.0
241,B2,68.5,0.25,95,200.0
242,B2,68.75,0.25,95,200.0
243,D2,69.0,0.5,95,200.0
244,A2,69.0,0.25,95,200.0
245,A2,69.25,0.25,95,200.0
246,D2,69.5,0.5,95,200.0
247,A2,69.5,0.25,95,200.0
248,A2,69.75,0.25,95,200.0
249,D2,70.0,0.5,95,200.0
250,A2,70.0,0.25,95,200.0
251,A2,70.25,0.25,95,200.0
252,D2,70.5,0.5,95,200.0
253,A2,70.5,0.25,95,200.0
254,A2,70.75,0.25,95,200.0
255,D2,71.0,0.5,95,200.0
256,D2,71.0,1.0,95,200.0
257,D2,71.5,0.5,95,200.0
258,E1,72.0,0.5,95,200.0
259,E4,72.0,1.0,95,200.0
260,B3,72.0,1.0,95,200.0
261,E3,72.0,1.0,95,200.0
262,E2,72.0,1.0,95,200.0
263,C4,72.0,4.0,95,200.0
264,G3,72.0,4.0,95,200.0
265,C3,72.0,4.0,95,200.0
266,B-2,72.0,0.5,95,200.0
267,C2,72.0,0.5,95,200.0
268,E1,72.5,0.5,95,200.0
269,E1,73.0,1.0,95,200.0
270,B3,73.0,1.0,95,200.0
271,E3,73.0,1.0,95,200.0
272,E2,73.0,1.0,95,200.0
273,B-2,73.0,0.5,95,200.0
274,D2,73.0,0.5,95,200.0
275,E2,74.0,0.5,95,200.0
276,E1,74.0,0.5,95,200.0
277,B-2,74.0,0.5,95,200.0
278,C2,74.0,0.5,95,200.0
279,E2,74.5,0.5,95,200.0
280,E1,74.5,0.5,95,200.0
281,E1,75.0,1.0,95,200.0
282,B3,75.0,1.0,95,200.0
283,E3,75.0,1.0,95,200.0
284,E2,75.0,1.0,95,200.0
285,B-2,75.0,0.5,95,200.0
286,D2,75.0,0.5,95,200.0
287,E2,76.0,0.5,95,200.0
288,E1,76.0,0.5,95,200.0
289,D4,76.0,4.0,95,200.0
290,A3,76.0,4.0,95,200.0
291,D3,76.0,4.0,95,200.0
292,B-2,76.0,0.5,95,200.0
293,C2,76.0,0.5,95,200.0
294,E2,76.5,0.5,95,200.0
295,E1,76.5,0.5,95,200.0
296,E1,77.0,1.0,95,200.0
297,B3,77.0,1.0,95,200.0
298,E3,77.0,1.0,95,200.0
299,E2,77.0,1.0,95,200.0
300,B-2,77.0,0.5,95,200.0
301,D2,77.0,0.5,95,200.0
302,E2,78.0,0.5,95,200.0
303,E1,78.0,0.5,95,200.0
304,B-2,78.0,0.5,95,200.0
305,C2,78.0,0.5,95,200.0
306,E2,78.5,0.5,95,200.0
307,E1,78.5,0.5,95,200.0
308,E1,79.0,1.0,95,200.0
309,B3,79.0,1.0,95,200.0
310,E3,79.0,1.0,95,200.0
311,E2,79.0,1.0,95,200.0
312,B-2,79.0,0.5,95,200.0
313,D2,79.0,0.5,95,200.0
314,D3,80.0,0.5,95,200.0
315,E2,80.0,0.5,95,200.0
316,D2,80.0,0.5,95,200.0
317,B-2,80.0,0.5,95,200.0
318,C2,80.0,0.5,95,200.0
319,D3,80.5,0.5,95,200.0
320,E2,80.5,0.5,95,200.0
321,D2,80.5,0.5,95,200.0
322,D2,81.0,1.0,95,200.0
323,A3,81.0,1.0,95,200.0
324,D3,81.0,1.0,95,200.0
325,B3,81.0,1.0,95,200.0
326,E3,81.0,1.0,95,200.0
327,E2,81.0,1.0,95,200.0
328,B-2,81.0,0.5,95,200.0
329,D2,81.0,0.5,95,200.0
330,D3,82.0,0.5,95,200.0
331,E2,82.0,0.5,95,200.0
332,D2,82.0,0.5,95,200.0
333,B-2,82.0,0.5,95,200.0
334,C2,82.0,0.5,95,200.0
335,D3,82.5,0.5,95,200.0
336,E2,82.5,0.5,95,200.0
337,D2,82.5,0.5,95,200.0
338,D2,83.0,1.0,95,200.0
339,A3,83.0,1.0,95,200.0
340,D3,83.0,1.0,95,200.0
341,B3,83.0,1.0,95,200.0
342,E3,83.0,1.0,95,200.0
343,E2,83.0,1.0,95,200.0
344,B-2,83.0,0.5,95,200.0
345,D2,83.0,0.5,95,200.0
346,D3,84.0,0.5,95,200.0
347,E2,84.0,0.5,95,200.0
348,D2,84.0,0.5,95,200.0
349,B-2,84.0,0.5,95,200.0
350,C2,84.0,0.5,95,200.0
351,D3,84.5,0.5,95,200.0
352,E2,84.5,0.5,95,200.0
353,D2,84.5,0.5,95,200.0
354,D2,85.0,1.0,95,200.0
355,A3,85.0,1.0,95,200.0
356,D3,85.0,1.0,95,200.0
357,B3,85.0,1.0,95,200.0
358,E3,85.0,1.0,95,200.0
359,E2,85.0,1.0,95,200.0
360,B-2,85.0,0.5,95,200.0
361,D2,85.0,0.5,95,200.0
362,D3,86.0,0.5,95,200.0
363,E2,86.0,0.5,95,200.0
364,D2,86.0,0.5,95,200.0
365,B-2,86.0,0.5,95,200.0
366,C2,86.0,0.5,95,200.0
367,D3,86.5,0.5,95,200.0
368,E2,86.5,0.5,95,200.0
369,D2,86.5,0.5,95,200.0
370,D2,87.0,1.0,95,200.0
371,A3,87.0,1.0,95,200.0
372,D3,87.0,1.0,95,200.0
373,B3,87.0,1.0,95,200.0
374,E3,87.0,1.0,95,200.0
375,E2,87.0,1.0,95,200.0
376,B-2,87.0,0.5,95,200.0
377,D2,87.0,0.5,95,200.0
378,E2,88.0,0.5,95,200.0
379,D3,88.0,0.5,95,200.0
380,E2,88.0,0.5,95,200.0
381,B-2,88.0,0.5,95,200.0
382,C2,88.0,0.5,95,200.0
383,E2,88.5,0.5,95,200.0
384,D3,88.5,0.5,95,200.0
385,E2,88.5,0.5,95,200.0
386,E2,89.0,1.0,95,200.0
387,B3,89.0,1.0,95,200.0
388,E3,89.0,1.0,95,200.0
389,E2,89.0,1.0,95,200.0
390,A3,89.0,1.0,95,200.0
391,D3,89.0,1.0,95,200.0
392,B-2,89.0,0.5,95,200.0
393,D2,89.0,0.5,95,200.0
394,E2,90.0,0.5,95,200.0
395,D3,90.0,0.5,95,200.0
396,E2,90.0,0.5,95,200.0
397,B-2,90.0,0.5,95,200.0
398,C2,90.0,0.5,95,200.0
399,E2,90.5,0.5,95,200.0
400,D3,90.5,0.5,95,200.0
401,E2,90.5,0.5,95,200.0
402,E2,91.0,1.0,95,200.0
403,B3,91.0,1.0,95,200.0
404,E3,91.0,1.0,95,200.0
405,E2,91.0,1.0,95,200.0
406,A3,91.0,1.0,95,200.0
407,D3,91.0,1.0,95,200.0
408,B-2,91.0,0.5,95,200.0
409,D2,91.0,0.5,95,200.0
410,E2,92.0,0.5,95,200.0
411,D3,92.0,0.5,95,200.0
412,E2,92.0,0.5,95,200.0
413,B-2,92.0,0.5,95,200.0
414,C2,92.0,0.5,95,200.0
415,E2,92.5,0.5,95,200.0
416,D3,92.5,0.5,95,200.0
417,E2,92.5,0.5,95,200.0
418,E2,93.0,1.0,95,200.0
419,B3,93.0,1.0,95,200.0
420,E3,93.0,1.0,95,200.0
421,E2,93.0,1.0,95,200.0
422,A3,93.0,1.0,95,200.0
423,D3,93.0,1.0,95,200.0
424,B-2,93.0,0.5,95,200.0
425,D2,93.0,0.5,95,200.0
426,E2,94.0,0.5,95,200.0
427,D3,94.0,0.5,95,200.0
428,E2,94.0,0.5,95,200.0
429,B-2,94.0,0.5,95,200.0
430,C2,94.0,0.5,95,200.0
431,E2,94.5,0.5,95,200.0
432,D3,94.5,0.5,95,200.0
433,E2,94.5,0.5,95,200.0
434,E2,95.0,1.0,95,200.0
435,B3,95.0,1.0,95,200.0
436,E3,95.0,1.0,95,200.0
437,E2,95.0,1.0,95,200.0
438,A3,95.0,1.0,95,200.0
439,D3,95.0,1.0,95,200.0
440,B-2,95.0,0.5,95,200.0
441,D2,95.0,0.5,95,200.0
442,D3,96.0,0.5,95,200.0
443,E3,96.0,0.5,95,200.0
444,D2,96.0,0.5,95,200.0
445,B-2,96.0,0.5,95,200.0
446,C2,96.0,0.5,95,200.0
447,D3,96.5,0.5,95,200.0
448,E3,96.5,0.5,95,200.0
449,D2,96.5,0.5,95,200.0
450,D2,97.0,0.5,95,200.0
451,A3,97.0,1.0,95,200.0
452,D3,97.0,1.0,95,200.0
453,B3,97.0,1.0,95,200.0
454,E3,97.0,1.0,95,200.0
455,B-2,97.0,0.5,95,200.0
456,D2,97.0,0.5,95,200.0
457,D2,97.5,0.5,95,200.0
458,D3,98.0,0.5,95,200.0
459,E3,98.0,0.5,95,200.0
460,D2,98.0,0.5,95,200.0
461,B-2,98.0,0.5,95,200.0
462,C2,98.0,0.5,95,200.0
463,D3,98.5,0.5,95,200.0
464,E3,98.5,0.5,95,200.0
465,D2,98.5,0.5,95,200.0
466,D2,99.0,0.5,95,200.0
467,A3,99.0,1.0,95,200.0
468,D3,99.0,1.0,95,200.0
469,B3,99.0,1.0,95,200.0
470,E3,99.0,1.0,95,200.0
471,B-2,99.0,0.5,95,200.0
472,D2,99.0,0.5,95,200.0
473,D2,99.5,0.5,95,200.0
474,E3,100.0,0.5,95,200.0
475,D2,100.0,0.5,95,200.0
476,D2,100.0,0.25,95,200.0
477,D2,100.25,0.25,95,200.0
478,E3,100.5,0.5,95,200.0
479,D2,100.5,1.0,95,200.0
480,D2,100.5,0.25,95,200.0
481,A3,100.5,0.5,95,200.0
482,D3,100.5,0.5,95,200.0
483,C3,100.75,0.25,95,200.0
484,C3,101.0,0.25,95,200.0
485,A3,101.0,1.0,95,200.0
486,D3,101.0,1.0,95,200.0
487,B3,101.0,1.0,95,200.0
488,E3,101.0,1.0,95,200.0
489,C3,101.25,0.25,95,200.0
490,D2,101.5,0.5,95,200.0
491,C3,101.5,0.25,95,200.0
492,B2,101.75,0.25,95,200.0
493,D3,102.0,0.5,95,200.0
494,E3,102.0,0.5,95,200.0
495,D2,102.0,1.0,95,200.0
496,B2,102.0,0.25,95,200.0
497,A2,102.25,0.25,95,200.0
498,E3,102.5,0.5,95,200.0
499,A2,102.5,0.25,95,200.0
500,A3,102.5,1.0,95,200.0
501,D3,102.5,1.0,95,200.0
502,A2,102.75,0.25,95,200.0
503,D2,103.0,1.0,95,200.0
504,G2,103.0,0.25,95,200.0
505,B3,103.0,1.0,95,200.0
506,E3,103.0,1.0,95,200.0
507,G2,103.25,0.25,95,200.0
508,F2,103.5,0.25,95,200.0
509,A3,103.5,1.0,95,200.0
510,D3,103.5,1.0,95,200.0
511,F2,103.75,0.25,95,200.0
512,D3,104.0,0.5,95,200.0
513,E2,104.0,1.0,95,200.0
514,B-2,104.0,0.5,95,200.0
515,C2,104.0,0.5,95,200.0
516,D3,104.5,0.5,95,200.0
517,E4,104.5,1.0,95,200.0
518,B3,104.5,1.0,95,200.0
519,E3,104.5,1.0,95,200.0
520,E2,105.0,0.5,95,200.0
521,A3,105.0,1.0,95,200.0
522,D3,105.0,1.0,95,200.0
523,B-2,105.0,0.5,95,200.0
524,D2,105.0,0.5,95,200.0
525,E2,105.5,0.5,95,200.0
526,D3,106.0,0.5,95,200.0
527,E2,106.0,0.5,95,200.0
528,B-2,106.0,0.5,95,200.0
529,C2,106.0,0.5,95,200.0
530,D3,106.5,0.5,95,200.0
531,E2,106.5,0.5,95,200.0
532,E2,107.0,0.5,95,200.0
533,E4,107.0,0.5,95,200.0
534,B3,107.0,0.5,95,200.0
535,E3,107.0,0.5,95,200.0
536,A3,107.0,1.0,95,200.0
537,D3,107.0,1.0,95,200.0
538,B-2,107.0,0.5,95,200.0
539,D2,107.0,0.5,95,200.0
540,E2,107.5,0.5,95,200.0
541,E2,108.0,0.5,95,200.0
542,D2,108.0,0.25,95,200.0
543,D2,108.25,0.25,95,200.0
544,E2,108.5,0.5,95,200.0
545,D2,108.5,0.25,95,200.0
546,E4,108.5,0.5,95,200.0
547,B3,108.5,0.5,95,200.0
548,E3,108.5,0.5,95,200.0
549,A3,108.5,0.5,95,200.0
550,D3,108.5,0.5,95,200.0
551,C3,108.75,0.25,95,200.0
552,E2,109.0,0.5,95,200.0
553,C3,109.0,0.25,95,200.0
554,A3,109.0,1.0,95,200.0
555,D3,109.0,1.0,95,200.0
556,C3,109.25,0.25,95,200.0
557,C3,109.5,1.0,95,200.0
558,C3,109.5,0.25,95,200.0
559,B2,109.75,0.25,95,200.0
560,C5,110.0,1.0,95,200.0
561,D3,110.0,0.5,95,200.0
562,B2,110.0,0.25,95,200.0
563,A2,110.25,0.25,95,200.0
564,B2,110.5,0.5,95,200.0
565,A2,110.5,0.25,95,200.0
566,A3,110.5,1.0,95,200.0
567,D3,110.5,1.0,95,200.0
568,A2,110.75,0.25,95,200.0
569,B4,111.0,0.5,95,200.0
570,A2,111.0,0.5,95,200.0
571,G2,111.0,0.25,95,200.0
572,G2,111.25,0.25,95,200.0
573,A4,111.5,0.5,95,200.0
574,G2,111.5,0.5,95,200.0
575,F2,111.5,0.25,95,200.0
576,A3,111.5,1.0,95,200.0
577,D3,111.5,1.0,95,200.0
578,F2,111.75,0.25,95,200.0
579,G4,112.0,0.5,95,200.0
580,E2,112.0,1.0,95,200.0
581,B-2,112.0,0.5,95,200.0
582,C2,112.0,0.5,95,200.0
583,E4,112.5,1.0,95,200.0
584,B3,112.5,1.0,95,200.0
585,E3,112.5,1.0,95,200.0
586,E4,112.5,1.0,95,200.0
587,B3,112.5,1.0,95,200.0
588,E3,112.5,1.0,95,200.0
589,E2,113.0,0.5,95,200.0
590,B-2,113.0,0.5,95,200.0
591,D2,113.0,0.5,95,200.0
592,E3,113.5,0.5,95,200.0
593,E2,113.5,0.5,95,200.0
594,E3,114.0,0.5,95,200.0
595,E2,114.0,0.5,95,200.0
596,B-2,114.0,0.5,95,200.0
597,C2,114.0,0.5,95,200.0
598,E3,114.5,0.5,95,200.0
599,E2,114.5,0.5,95,200.0
600,E2,115.0,0.5,95,200.0
601,E4,115.0,0.5,95,200.0
602,B3,115.0,0.5,95,200.0
603,E3,115.0,0.5,95,200.0
604,B3,115.0,0.5,95,200.0
605,E3,115.0,0.5,95,200.0
606,B-2,115.0,0.5,95,200.0
607,D2,115.0,0.5,95,200.0
608,E3,115.5,0.5,95,200.0
609,E2,115.5,0.5,95,200.0
610,E3,116.0,0.5,95,200.0
611,E2,116.0,0.5,95,200.0
612,D2,116.0,0.25,95,200.0
613,D2,116.25,0.25,95,200.0
614,E2,116.5,0.5,95,200.0
615,D2,116.5,0.25,95,200.0
616,E4,116.5,0.5,95,200.0
617,B3,116.5,0.5,95,200.0
618,E3,116.5,0.5,95,200.0
619,B3,116.5,0.5,95,200.0
620,E3,116.5,0.5,95,200.0
621,C3,116.75,0.25,95,200.0
622,E3,117.0,0.5,95,200.0
623,E2,117.0,0.5,95,200.0
624,C3,117.0,0.25,95,200.0
625,C3,117.25,0.25,95,200.0
626,E3,117.5,0.5,95,200.0
627,C3,117.5,1.0,95,200.0
628,C3,117.5,0.25,95,200.0
629,B2,117.75,0.25,95,200.0
630,C5,118.0,1.0,95,200.0
631,C4,118.0,1.0,95,200.0
632,B2,118.0,0.25,95,200.0
633,A2,118.25,0.25,95,200.0
634,B2,118.5,0.5,95,200.0
635,A2,118.5,0.25,95,200.0
636,A2,118.75,0.25,95,200.0
637,B4,119.0,0.5,95,200.0
638,B3,119.0,0.5,95,200.0
639,A2,119.0,0.5,95,200.0
640,G2,119.0,0.25,95,200.0
641,G2,119.25,0.25,95,200.0
642,A4,119.5,0.5,95,200.0
643,A3,119.5,0.5,95,200.0
644,G2,119.5,0.5,95,200.0
645,F2,119.5,0.25,95,200.0
646,F2,119.75,0.25,95,200.0
647,G4,120.0,0.5,95,200.0
648,G3,120.0,0.5,95,200.0
649,E1,120.0,1.0,95,200.0
650,A3,120.0,0.5,95,200.0
651,B1,120.0,0.5,95,200.0
652,F#2,120.5,0.5,95,200.0
653,E4,120.5,1.0,95,200.0
654,B3,120.5,1.0,95,200.0
655,E3,120.5,1.0,95,200.0
656,E4,120.5,1.0,95,200.0
657,B3,120.5,1.0,95,200.0
658,E3,120.5,1.0,95,200.0
659,E1,121.0,0.5,95,200.0
660,F#2,121.0,0.5,95,200.0
661,E3,121.5,0.5,95,200.0
662,E1,121.5,0.5,95,200.0
663,F#2,121.5,0.5,95,200.0
664,E3,122.0,0.5,95,200.0
665,E1,122.0,0.5,95,200.0
666,F#2,122.0,0.5,95,200.0
667,D2,122.0,0.5,95,200.0
668,E3,122.5,0.5,95,200.0
669,E1,122.5,0.5,95,200.0
670,F#2,122.5,0.5,95,200.0
671,E1,123.0,0.5,95,200.0
672,F#2,123.0,0.5,95,200.0
673,E4,123.0,0.5,95,200.0
674,B3,123.0,0.5,95,200.0
675,E3,123.0,0.5,95,200.0
676,B3,123.0,0.5,95,200.0
677,E3,123.0,0.5,95,200.0
678,E3,123.5,0.5,95,200.0
679,E1,123.5,0.5,95,200.0
680,F#2,123.5,0.5,95,200.0
681,E3,124.0,0.5,95,200.0
682,E1,124.0,1.0,95,200.0
683,F#2,124.0,0.5,95,200.0
684,B1,124.0,0.5,95,200.0
685,F#2,124.5,0.5,95,200.0
686,E4,124.5,0.5,95,200.0
687,B3,124.5,0.5,95,200.0
688,E3,124.5,0.5,95,200.0
689,B3,124.5,0.5,95,200.0
690,E3,124.5,0.5,95,200.0
691,E3,125.0,0.5,95,200.0
692,E1,125.0,0.5,95,200.0
693,F#2,125.0,0.5,95,200.0
694,E3,125.5,0.5,95,200.0
695,E1,125.5,0.5,95,200.0
696,F#2,125.5,0.5,95,200.0
697,C4,126.0,1.0,95,200.0
698,E1,126.0,0.5,95,200.0
699,F#2,126.0,0.5,95,200.0
700,D2,126.0,0.5,95,200.0
701,E1,126.5,0.5,95,200.0
702,F#2,126.5,0.5,95,200.0
703,B3,127.0,0.5,95,200.0
704,E1,127.0,0.5,95,200.0
705,F#2,127.0,0.5,95,200.0
706,A3,127.5,0.5,95,200.0
707,E1,127.5,0.5,95,200.0
708,F#2,127.5,0.5,95,200.0
709,G3,128.0,0.5,95,200.0
710,E1,128.0,1.0,95,200.0
711,A3,128.0,0.5,95,200.0
712,B1,128.0,0.5,95,200.0
713,F#2,128.5,0.5,95,200.0
714,E4,128.5,1.0,95,200.0
715,B3,128.5,1.0,95,200.0
716,E3,128.5,1.0,95,200.0
717,E1,129.0,0.5,95,200.0
718,F#2,129.0,0.5,95,200.0
719,E1,129.5,0.5,95,200.0
720,F#2,129.5,0.5,95,200.0
721,E1,130.0,0.5,95,200.0
722,F#2,130.0,0.5,95,200.0
723,D2,130.0,0.5,95,200.0
724,E1,130.5,0.5,95,200.0
725,F#2,130.5,0.5,95,200.0
726,E1,131.0,0.5,95,200.0
727,F#2,131.0,0.5,95,200.0
728,E4,131.0,0.5,95,200.0
729,B3,131.0,0.5,95,200.0
730,E3,131.0,0.5,95,200.0
731,E1,131.5,0.5,95,200.0
732,F#2,131.5,0.5,95,200.0
733,E1,132.0,1.0,95,200.0
734,F#2,132.0,0.5,95,200.0
735,B1,132.0,0.5,95,200.0
736,F#2,132.5,0.5,95,200.0
737,E4,132.5,0.5,95,200.0
738,B3,132.5,0.5,95,200.0
739,E3,132.5,0.5,95,200.0
740,E1,133.0,0.5,95,200.0
741,F#2,133.0,0.5,95,200.0
742,E1,133.5,0.5,95,200.0
743,F#2,133.5,0.5,95,200.0
744,E1,134.0,0.5,95,200.0
745,F#2,134.0,0.5,95,200.0
746,D2,134.0,0.5,95,200.0
747,E1,134.5,0.5,95,200.0
748,F#2,134.5,0.5,95,200.0
749,E1,135.0,0.5,95,200.0
750,F#2,135.0,0.5,95,200.0
751,E1,135.5,0.5,95,200.0
752,F#2,135.5,0.5,95,200.0
753,D2,136.0,1.0,95,200.0
754,F#2,136.0,0.5,95,200.0
755,B1,136.0,0.5,95,200.0
756,F#2,136.5,0.5,95,200.0
757,D4,136.5,1.0,95,200.0
758,A3,136.5,1.0,95,200.0
759,D3,136.5,1.0,95,200.0
760,D2,137.0,0.5,95,200.0
761,F#2,137.0,0.5,95,200.0
762,D2,137.5,0.5,95,200.0
763,F#2,137.5,0.5,95,200.0
764,D2,138.0,0.5,95,200.0
765,F#2,138.0,0.5,95,200.0
766,D2,138.0,0.5,95,200.0
767,D2,138.5,0.5,95,200.0
768,F#2,138.5,0.5,95,200.0
769,D2,139.0,0.5,95,200.0
770,F#2,139.0,0.5,95,200.0
771,D4,139.0,0.5,95,200.0
772,A3,139.0,0.5,95,200.0
773,D3,139.0,0.5,95,200.0
774,D2,139.5,0.5,95,200.0
775,F#2,139.5,0.5,95,200.0
776,D2,140.0,1.0,95,200.0
777,F#2,140.0,0.5,95,200.0
778,B1,140.0,0.5,95,200.0
779,F#2,140.5,0.5,95,200.0
780,D4,140.5,0.5,95,200.0
781,A3,140.5,0.5,95,200.0
782,D3,140.5,0.5,95,200.0
783,D2,141.0,0.5,95,200.0
784,F#2,141.0,0.5,95,200.0
785,D2,141.5,0.5,95,200.0
786,F#2,141.5,0.5,95,200.0
787,D2,142.0,0.5,95,200.0
788,F#2,142.0,0.5,95,200.0
789,D2,142.0,0.5,95,200.0
790,D2,142.5,0.5,95,200.0
791,F#2,142.5,0.5,95,200.0
792,D2,143.0,0.5,95,200.0
793,F#2,143.0,0.5,95,200.0
794,D2,143.5,0.5,95,200.0
795,F#2,143.5,0.5,95,200.0
796,D2,144.0,1.0,95,200.0
797,F#2,144.0,0.5,95,200.0
798,B1,144.0,0.5,95,200.0
799,F#2,144.5,0.5,95,200.0
800,D4,144.5,1.0,95,200.0
801,A3,144.5,1.0,95,200.0
802,D3,144.5,1.0,95,200.0
803,D2,145.0,0.5,95,200.0
804,F#2,145.0,0.5,95,200.0
805,D2,145.5,0.5,95,200.0
806,F#2,145.5,0.5,95,200.0
807,D2,146.0,0.5,95,200.0
808,F#2,146.0,0.5,95,200.0
809,D2,146.0,0.5,95,200.0
810,D2,146.5,0.5,95,200.0
811,F#2,146.5,0.5,95,200.0
812,D2,147.0,0.5,95,200.0
813,F#2,147.0,0.5,95,200.0
814,D4,147.0,0.5,95,200.0
815,A3,147.0,0.5,95,200.0
816,D3,147.0,0.5,95,200.0
817,D2,147.5,0.5,95,200.0
818,F#2,147.5,0.5,95,200.0
819,D2,148.0,1.0,95,200.0
820,F#2,148.0,0.5,95,200.0
821,B1,148.0,0.5,95,200.0
822,F#2,148.5,0.5,95,200.0
823,D4,148.5,0.5,95,200.0
824,A3,148.5,0.5,95,200.0
825,D3,148.5,0.5,95,200.0
826,D2,149.0,0.5,95,200.0
827,F#2,149.0,0.5,95,200.0
828,D2,149.5,0.5,95,200.0
829,F#2,149.5,0.5,95,200.0
830,D2,150.0,0.5,95,200.0
831,F#2,150.0,0.5,95,200.0
832,D2,150.0,0.5,95,200.0
833,D2,150.5,0.5,95,200.0
834,F#2,150.5,0.5,95,200.0
835,D2,151.0,0.5,95,200.0
836,F#2,151.0,0.5,95,200.0
837,D2,151.5,0.5,95,200.0
838,F#2,151.5,0.5,95,200.0
839,E1,152.0,1.0,95,200.0
840,A3,152.0,0.5,95,200.0
841,B1,152.0,0.5,95,200.0
842,F#2,152.5,0.5,95,200.0
843,E4,152.5,1.0,95,200.0
844,B3,152.5,1.0,95,200.0
845,E3,152.5,1.0,95,200.0
846,E1,153.0,0.5,95,200.0
847,F#2,153.0,0.5,95,200.0
848,E1,153.5,0.5,95,200.0
849,F#2,153.5,0.5,95,200.0
850,E1,154.0,0.5,95,200.0
851,F#2,154.0,0.5,95,200.0
852,D2,154.0,0.5,95,200.0
853,E1,154.5,0.5,95,200.0
854,F#2,154.5,0.5,95,200.0
855,E1,155.0,0.5,95,200.0
856,F#2,155.0,0.5,95,200.0
857,E4,155.0,0.5,95,200.0
858,B3,155.0,0.5,95,200.0
859,E3,155.0,0.5,95,200.0
860,E1,155.5,0.5,95,200.0
861,F#2,155.5,0.5,95,200.0
862,E1,156.0,1.0,95,200.0
863,F#2,156.0,0.5,95,200.0
864,B1,156.0,0.5,95,200.0
865,F#2,156.5,0.5,95,200.0
866,E4,156.5,0.5,95,200.0
867,B3,156.5,0.5,95,200.0
868,E3,156.5,0.5,95,200.0
869,E1,157.0,0.5,95,200.0
870,F#2,157.0,0.5,95,200.0
871,E1,157.5,0.5,95,200.0
872,F#2,157.5,0.5,95,200.0
873,E1,158.0,0.5,95,200.0
874,F#2,158.0,0.5,95,200.0
875,D2,158.0,0.5,95,200.0
876,E1,158.5,0.5,95,200.0
877,F#2,158.5,0.5,95,200.0
878,E1,159.0,0.5,95,200.0
879,F#2,159.0,0.5,95,200.0
880,E1,159.5,0.5,95,200.0
881,F#2,159.5,0.5,95,200.0
882,E1,160.0,1.0,95,200.0
883,A3,160.0,0.5,95,200.0
884,B1,160.0,0.5,95,200.0
885,F#2,160.5,0.5,95,200.0
886,E4,160.5,1.0,95,200.0
887,B3,160.5,1.0,95,200.0
888,E3,160.5,1.0,95,200.0
889,E1,161.0,0.5,95,200.0
890,F#2,161.0,0.5,95,200.0
891,E1,161.5,0.5,95,200.0
892,F#2,161.5,0.5,95,200.0
893,E1,162.0,0.5,95,200.0
894,F#2,162.0,0.5,95,200.0
895,D2,162.0,0.5,95,200.0
896,E1,162.5,0.5,95,200.0
897,F#2,162.5,0.5,95,200.0
898,E1,163.0,0.5,95,200.0
899,F#2,163.0,0.5,95,200.0
900,E4,163.0,0.5,95,200.0
901,B3,163.0,0.5,95,200.0
902,E3,163.0,0.5,95,200.0
903,E1,163.5,0.5,95,200.0
904,F#2,163.5,0.5,95,200.0
905,E1,164.0,1.0,95,200.0
906,F#2,164.0,0.5,95,200.0
907,B1,164.0,0.5,95,200.0
908,F#2,164.5,0.5,95,200.0
909,E4,164.5,0.5,95,200.0
910,B3,164.5,0.5,95,200.0
911,E3,164.5,0.5,95,200.0
912,E1,165.0,0.5,95,200.0
913,F#2,165.0,0.5,95,200.0
914,E1,165.5,0.5,95,200.0
915,F#2,165.5,0.5,95,200.0
916,E1,166.0,0.5,95,200.0
917,F#2,166.0,0.5,95,200.0
918,D2,166.0,0.5,95,200.0
919,E1,166.5,0.5,95,200.0
920,F#2,166.5,0.5,95,200.0
921,E1,167.0,0.5,95,200.0
922,F#2,167.0,0.5,95,200.0
923,E1,167.5,0.5,95,200.0
924,F#2,167.5,0.5,95,200.0
925,D2,168.0,1.0,95,200.0
926,F#2,168.0,0.5,95,200.0
927,B1,168.0,0.5,95,200.0
928,F#2,168.5,0.5,95,200.0
929,D4,168.5,1.0,95,200.0
930,A3,168.5,1.0,95,200.0
931,D3,168.5,1.0,95,200.0
932,D2,169.0,0.5,95,200.0
933,F#2,169.0,0.5,95,200.0
934,D2,169.5,0.5,95,200.0
935,F#2,169.5,0.5,95,200.0
936,D2,170.0,0.5,95,200.0
937,F#2,170.0,0.5,95,200.0
938,D2,170.0,0.5,95,200.0
939,D2,170.5,0.5,95,200.0
940,F#2,170.5,0.5,95,200.0
941,D2,171.0,0.5,95,200.0
942,F#2,171.0,0.5,95,200.0
943,D4,171.0,0.5,95,200.0
944,A3,171.0,0.5,95,200.0
945,D3,171.0,0.5,95,200.0
946,D2,171.5,0.5,95,200.0
947,F#2,171.5,0.5,95,200.0
948,D2,172.0,1.0,95,200.0
949,F#2,172.0,0.5,95,200.0
950,B1,172.0,0.5,95,200.0
951,F#2,172.5,0.5,95,200.0
952,D4,172.5,0.5,95,200.0
953,A3,172.5,0.5,95,200.0
954,D3,172.5,0.5,95,200.0
955,D2,173.0,0.5,95,200.0
956,F#2,173.0,0.5,95,200.0
957,D2,173.5,0.5,95,200.0
958,F#2,173.5,0.5,95,200.0
959,D2,174.0,0.5,95,200.0
960,F#2,174.0,0.5,95,200.0
961,D2,174.0,0.5,95,200.0
962,D2,174.5,0.5,95,200.0
963,F#2,174.5,0.5,95,200.0
964,D2,175.0,0.5,95,200.0
965,F#2,175.0,0.5,95,200.0
966,D2,175.5,0.5,95,200.0
967,F#2,175.5,0.5,95,200.0
968,D2,176.0,1.0,95,200.0
969,F#2,176.0,0.5,95,200.0
970,B1,176.0,0.5,95,200.0
971,F#2,176.5,0.5,95,200.0
972,D4,176.5,1.0,95,200.0
973,A3,176.5,1.0,95,200.0
974,D3,176.5,1.0,95,200.0
975,D2,177.0,0.5,95,200.0
976,F#2,177.0,0.5,95,200.0
977,D2,177.5,0.5,95,200.0
978,F#2,177.5,0.5,95,200.0
979,D2,178.0,0.5,95,200.0
980,F#2,178.0,0.5,95,200.0
981,D2,178.0,0.5,95,200.0
982,D2,178.5,0.5,95,200.0
983,F#2,178.5,0.5,95,200.0
984,D2,179.0,0.5,95,200.0
985,F#2,179.0,0.5,95,200.0
986,D4,179.0,0.5,95,200.0
987,A3,179.0,0.5,95,200.0
988,D3,179.0,0.5,95,200.0
989,D2,179.5,0.5,95,200.0
990,F#2,179.5,0.5,95,200.0
991,D2,180.0,1.0,95,200.0
992,D2,180.0,0.25,95,200.0
993,D2,180.25,0.25,95,200.0
994,D2,180.5,0.25,95,200.0
995,D4,180.5,0.5,95,200.0
996,A3,180.5,0.5,95,200.0
997,D3,180.5,0.5,95,200.0
998,C3,180.75,0.25,95,200.0
999,D2,181.0,0.5,95,200.0
1000,C3,181.0,0.25,95,200.0
1001,C3,181.25,0.25,95,200.0
1002,D2,181.5,0.5,95,200.0
1003,C3,181.5,0.25,95,200.0
1004,B2,181.75,0.25,95,200.0
1005,D2,182.0,0.5,95,200.0
1006,B2,182.0,0.25,95,200.0
1007,A2,182.25,0.25,95,200.0
1008,D2,182.5,0.5,95,200.0
1009,A2,182.5,0.25,95,200.0
1010,A2,182.75,0.25,95,200.0
1011,D2,183.0,0.5,95,200.0
1012,G2,183.0,0.25,95,200.0
1013,G2,183.25,0.25,95,200.0
1014,D2,183.5,0.5,95,200.0
1015,F2,183.5,0.25,95,200.0
1016,F2,183.75,0.25,95,200.0
1017,B1,184.0,1.0,95,200.0
1018,A3,184.0,0.5,95,200.0
1019,B1,184.0,0.5,95,200.0
1020,B3,184.5,1.5,95,200.0
1021,F#2,184.5,0.5,95,200.0
1022,B1,185.0,1.0,95,200.0
1023,F#2,185.0,0.5,95,200.0
1024,F#2,185.5,0.5,95,200.0
1025,E4,186.0,1.5,95,200.0
1026,B1,186.0,1.0,95,200.0
1027,F#2,186.0,0.5,95,200.0
1028,D2,186.0,0.5,95,200.0
1029,F#2,186.5,0.5,95,200.0
1030,B1,187.0,1.0,95,200.0
1031,F#2,187.0,0.5,95,200.0
1032,F#4,187.5,1.0,95,200.0
1033,F#2,187.5,0.5,95,200.0
1034,G1,188.0,1.0,95,200.0
1035,F#2,188.0,0.5,95,200.0
1036,B1,188.0,0.5,95,200.0
1037,G4,188.5,4.0,95,200.0
1038,F#2,188.5,0.5,95,200.0
1039,G1,189.0,1.0,95,200.0
1040,F#2,189.0,0.5,95,200.0
1041,F#2,189.5,0.5,95,200.0
1042,G1,190.0,1.0,95,200.0
1043,F#2,190.0,0.5,95,200.0
1044,D2,190.0,0.5,95,200.0
1045,F#2,190.5,0.5,95,200.0
1046,G1,191.0,1.0,95,200.0
1047,F#2,191.0,0.5,95,200.0
1048,F#2,191.5,0.5,95,200.0
1049,A1,192.0,1.0,95,200.0
1050,A3,192.0,0.5,95,200.0
1051,B1,192.0,0.5,95,200.0
1052,A4,192.5,1.5,95,200.0
1053,F#2,192.5,0.5,95,200.0
1054,B3,192.5,4.0,95,200.0
1055,F#3,192.5,4.0,95,200.0
1056,B2,192.5,4.0,95,200.0
1057,A1,193.0,1.0,95,200.0
1058,F#2,193.0,0.5,95,200.0
1059,F#2,193.5,0.5,95,200.0
1060,G4,194.0,1.5,95,200.0
1061,A1,194.0,1.0,95,200.0
1062,F#2,194.0,0.5,95,200.0
1063,D2,194.0,0.5,95,200.0
1064,F#2,194.5,0.5,95,200.0
1065,A1,195.0,1.0,95,200.0
1066,F#2,195.0,0.5,95,200.0
1067,F#4,195.5,1.0,95,200.0
1068,F#2,195.5,0.5,95,200.0
1069,E2,196.0,1.5,95,200.0
1070,C#3,196.0,1.5,95,200.0
1071,C2,196.0,1.5,95,200.0
1072,G4,196.5,1.5,95,200.0
1073,G4,196.5,4.0,95,200.0
1074,D4,196.5,4.0,95,200.0
1075,G3,196.5,4.0,95,200.0
1076,D2,197.5,1.5,95,200.0
1077,C#3,197.5,1.5,95,200.0
1078,D2,197.5,1.5,95,200.0
1079,F#4,198.0,1.5,95,200.0
1080,C2,199.0,1.0,95,200.0
1081,C#3,199.0,1.0,95,200.0
1082,C2,199.0,1.0,95,200.0
1083,E4,199.5,1.0,95,200.0
1084,B1,200.0,1.0,95,200.0
1085,A3,200.0,0.5,95,200.0
1086,B1,200.0,0.5,95,200.0
1087,B3,200.5,1.5,95,200.0
1088,F#2,200.5,0.5,95,200.0
1089,A3,200.5,4.0,95,200.0
1090,E3,200.5,4.0,95,200.0
1091,A2,200.5,4.0,95,200.0
1092,B1,201.0,1.0,95,200.0
1093,F#2,201.0,0.5,95,200.0
1094,F#2,201.5,0.5,95,200.0
1095,E4,202.0,1.5,95,200.0
1096,B1,202.0,1.0,95,200.0
1097,F#2,202.0,0.5,95,200.0
1098,D2,202.0,0.5,95,200.0
1099,F#2,202.5,0.5,95,200.0
1100,B1,203.0,1.0,95,200.0
1101,F#2,203.0,0.5,95,200.0
1102,F#4,203.5,1.0,95,200.0
1103,F#2,203.5,0.5,95,200.0
1104,G1,204.0,1.0,95,200.0
1105,F#2,204.0,0.5,95,200.0
1106,B1,204.0,0.5,95,200.0
1107,G4,204.5,4.0,95,200.0
1108,F#2,204.5,0.5,95,200.0
1109,B3,204.5,1.5,95,200.0
1110,E3,204.5,1.5,95,200.0
1111,G1,205.0,1.0,95,200.0
1112,F#2,205.0,0.5,95,200.0
1113,F#2,205.5,0.5,95,200.0
1114,G1,206.0,1.0,95,200.0
1115,A3,206.0,1.5,95,200.0
1116,D3,206.0,1.5,95,200.0
1117,F#2,206.0,0.5,95,200.0
1118,D2,206.0,0.5,95,200.0
1119,F#2,206.5,0.5,95,200.0
1120,G1,207.0,1.0,95,200.0
1121,F#2,207.0,0.5,95,200.0
1122,F#2,207.5,0.5,95,200.0
1123,G3,207.5,1.0,95,200.0
1124,C3,207.5,1.0,95,200.0
1125,A1,208.0,1.5,95,200.0
1126,F#2,208.0,0.5,95,200.0
1127,B1,208.0,0.5,95,200.0
1128,A4,208.5,1.5,95,200.0
1129,F#2,208.5,0.5,95,200.0
1130,B3,208.5,4.0,95,200.0
1131,F#3,208.5,4.0,95,200.0
1132,B2,208.5,4.0,95,200.0
1133,F#2,209.0,0.5,95,200.0
1134,A1,209.5,1.5,95,200.0
1135,F#2,209.5,0.5,95,200.0
1136,B4,210.0,1.5,95,200.0
1137,F#2,210.0,0.5,95,200.0
1138,D2,210.0,0.5,95,200.0
1139,F#2,210.5,0.5,95,200.0
1140,A1,211.0,1.0,95,200.0
1141,F#2,211.0,0.5,95,200.0
1142,C5,211.5,1.0,95,200.0
1143,F#2,211.5,0.5,95,200.0
1144,A1,212.0,4.0,95,200.0
1145,F#2,212.0,0.5,95,200.0
1146,B1,212.0,0.5,95,200.0
1147,B4,212.5,4.0,95,200.0
1148,F#2,212.5,0.5,95,200.0
1149,G4,212.5,4.0,95,200.0
1150,D4,212.5,4.0,95,200.0
1151,G3,212.5,4.0,95,200.0
1152,F#2,213.0,0.5,95,200.0
1153,F#2,213.5,0.5,95,200.0
1154,F#2,214.0,0.5,95,200.0
1155,D2,214.0,0.5,95,200.0
1156,F#2,214.5,0.5,95,200.0
1157,F#2,215.0,0.5,95,200.0
1158,F#2,215.5,0.5,95,200.0
1159,B1,216.0,1.0,95,200.0
1160,A3,216.0,0.5,95,200.0
1161,B1,216.0,0.5,95,200.0
1162,B3,216.5,1.5,95,200.0
1163,F#2,216.5,0.5,95,200.0
1164,A3,216.5,4.0,95,200.0
1165,E3,216.5,4.0,95,200.0
1166,A2,216.5,4.0,95,200.0
1167,B1,217.0,1.0,95,200.0
1168,F#2,217.0,0.5,95,200.0
1169,F#2,217.5,0.5,95,200.0
1170,E4,218.0,1.5,95,200.0
1171,B1,218.0,1.0,95,200.0
1172,F#2,218.0,0.5,95,200.0
1173,D2,218.0,0.5,95,200.0
1174,F#2,218.5,0.5,95,200.0
1175,B1,219.0,1.0,95,200.0
1176,F#2,219.0,0.5,95,200.0
1177,F#4,219.5,1.0,95,200.0
1178,F#2,219.5,0.5,95,200.0
1179,G1,220.0,1.0,95,200.0
1180,F#2,220.0,0.5,95,200.0
1181,B1,220.0,0.5,95,200.0
1182,G4,220.5,4.0,95,200.0
1183,F#2,220.5,0.5,95,200.0
1184,G1,221.0,1.0,95,200.0
1185,F#2,221.0,0.5,95,200.0
1186,F#2,221.5,0.5,95,200.0
1187,G1,222.0,1.0,95,200.0
1188,F#2,222.0,0.5,95,200.0
1189,D2,222.0,0.5,95,200.0
1190,F#2,222.5,0.5,95,200.0
1191,G1,223.0,1.0,95,200.0
1192,F#2,223.0,0.5,95,200.0
1193,F#2,223.5,0.5,95,200.0
1194,A1,224.0,1.0,95,200.0
1195,A3,224.0,0.5,95,200.0
1196,B1,224.0,0.5,95,200.0
1197,A4,224.5,1.5,95,200.0
1198,F#2,224.5,0.5,95,200.0
1199,A3,224.5,4.0,95,200.0
1200,E3,224.5,4.0,95,200.0
1201,A2,224.5,4.0,95,200.0
1202,A1,225.0,1.0,95,200.0
1203,F#2,225.0,0.5,95,200.0
1204,F#2,225.5,0.5,95,200.0
1205,G4,226.0,1.5,95,200.0
1206,A1,226.0,1.0,95,200.0
1207,F#2,226.0,0.5,95,200.0
1208,D2,226.0,0.5,95,200.0
1209,F#2,226.5,0.5,95,200.0
1210,A1,227.0,1.0,95,200.0
1211,F#2,227.0,0.5,95,200.0
1212,F#4,227.5,1.0,95,200.0
1213,F#2,227.5,0.5,95,200.0
1214,E2,228.0,1.5,95,200.0
1215,C#3,228.0,1.5,95,200.0
1216,C2,228.0,1.5,95,200.0
1217,G4,228.5,1.5,95,200.0
1218,B3,228.5,4.0,95,200.0
1219,F#3,228.5,4.0,95,200.0
1220,B2,228.5,4.0,95,200.0
1221,D2,229.5,1.5,95,200.0
1222,C#3,229.5,1.5,95,200.0
1223,D2,229.5,1.5,95,200.0
1224,F#4,230.0,1.5,95,200.0
1225,C2,231.0,1.0,95,200.0
1226,C#3,231.0,1.0,95,200.0
1227,C2,231.0,1.0,95,200.0
1228,E4,231.5,1.0,95,200.0
1229,B1,232.0,1.0,95,200.0
1230,A3,232.0,0.5,95,200.0
1231,B1,232.0,0.5,95,200.0
1232,B3,232.5,1.5,95,200.0
1233,F#2,232.5,0.5,95,200.0
1234,G4,232.5,4.0,95,200.0
1235,D4,232.5,4.0,95,200.0
1236,G3,232.5,4.0,95,200.0
1237,B1,233.0,1.0,95,200.0
1238,F#2,233.0,0.5,95,200.0
1239,F#2,233.5,0.5,95,200.0
1240,E4,234.0,1.5,95,200.0
1241,B1,234.0,1.0,95,200.0
1242,F#2,234.0,0.5,95,200.0
1243,D2,234.0,0.5,95,200.0
1244,F#2,234.5,0.5,95,200.0
1245,B1,235.0,1.0,95,200.0
1246,F#2,235.0,0.5,95,200.0
1247,F#4,235.5,1.0,95,200.0
1248,F#2,235.5,0.5,95,200.0
1249,G1,236.0,1.0,95,200.0
1250,F#2,236.0,0.5,95,200.0
1251,B1,236.0,0.5,95,200.0
1252,G4,236.5,4.0,95,200.0
1253,F#2,236.5,0.5,95,200.0
1254,A3,236.5,4.0,95,200.0
1255,E3,236.5,4.0,95,200.0
1256,A2,236.5,4.0,95,200.0
1257,G1,237.0,1.0,95,200.0
1258,F#2,237.0,0.5,95,200.0
1259,F#2,237.5,0.5,95,200.0
1260,G1,238.0,1.0,95,200.0
1261,F#2,238.0,0.5,95,200.0
1262,D2,238.0,0.5,95,200.0
1263,F#2,238.5,0.5,95,200.0
1264,G1,239.0,1.0,95,200.0
1265,F#2,239.0,0.5,95,200.0
1266,F#2,239.5,0.5,95,200.0
1267,A1,240.0,1.5,95,200.0
1268,F#2,240.0,0.5,95,200.0
1269,B1,240.0,0.5,95,200.0
1270,A4,240.5,1.5,95,200.0
1271,F#2,240.5,0.5,95,200.0
1272,B3,240.5,1.5,95,200.0
1273,E3,240.5,1.5,95,200.0
1274,F#2,241.0,0.5,95,200.0
1275,A1,241.5,1.5,95,200.0
1276,F#2,241.5,0.5,95,200.0
1277,B4,242.0,1.5,95,200.0
1278,A3,242.0,1.5,95,200.0
1279,D3,242.0,1.5,95,200.0
1280,F#2,242.0,0.5,95,200.0
1281,D2,242.0,0.5,95,200.0
1282,F#2,242.5,0.5,95,200.0
1283,A1,243.0,1.0,95,200.0
1284,F#2,243.0,0.5,95,200.0
1285,C5,243.5,1.0,95,200.0
1286,F#2,243.5,0.5,95,200.0
1287,G3,243.5,1.0,95,200.0
1288,C3,243.5,1.0,95,200.0
1289,A1,244.0,4.0,95,200.0
1290,D2,244.0,0.25,95,200.0
1291,D2,244.25,0.25,95,200.0
1292,B4,244.5,4.0,95,200.0
1293,D2,244.5,0.25,95,200.0
1294,B3,244.5,4.0,95,200.0
1295,F#3,244.5,4.0,95,200.0
1296,B2,244.5,4.0,95,200.0
1297,C3,244.75,0.25,95,200.0
1298,C3,245.0,0.25,95,200.0
1299,C3,245.25,0.25,95,200.0
1300,C3,245.5,0.25,95,200.0
1301,B2,245.75,0.25,95,200.0
1302,B2,246.0,0.25,95,200.0
1303,A2,246.25,0.25,95,200.0
1304,A2,246.5,0.25,95,200.0
1305,A2,246.75,0.25,95,200.0
1306,G2,247.0,0.25,95,200.0
1307,G2,247.25,0.25,95,200.0
1308,F2,247.5,0.25,95,200.0
1309,F2,247.75,0.25,95,200.0
1310,E2,248.0,0.5,95,200.0
1311,E1,248.0,0.5,95,200.0
1312,B-2,248.0,0.5,95,200.0
1313,C2,248.0,0.5,95,200.0
1314,B4,248.5,4.0,95,200.0
1315,G4,248.5,4.0,95,200.0
1316,D4,248.5,4.0,95,200.0
1317,G3,248.5,4.0,95,200.0
1318,E2,248.5,0.5,95,200.0
1319,E1,248.5,0.5,95,200.0
1320,E2,249.0,1.0,95,200.0
1321,E1,249.0,1.0,95,200.0
1322,B-2,249.0,0.5,95,200.0
1323,D2,249.0,0.5,95,200.0
1324,E2,250.0,0.5,95,200.0
1325,E1,250.0,0.5,95,200.0
1326,B-2,250.0,0.5,95,200.0
1327,C2,250.0,0.5,95,200.0
1328,E2,250.5,0.5,95,200.0
1329,E1,250.5,0.5,95,200.0
1330,E2,251.0,1.0,95,200.0
1331,E1,251.0,1.0,95,200.0
1332,B-2,251.0,0.5,95,200.0
1333,D2,251.0,0.5,95,200.0
1334,E2,252.0,0.5,95,200.0
1335,E1,252.0,0.5,95,200.0
1336,B-2,252.0,0.5,95,200.0
1337,C2,252.0,0.5,95,200.0
1338,A3,252.5,4.0,95,200.0
1339,E3,252.5,4.0,95,200.0
1340,A2,252.5,4.0,95,200.0
1341,E2,252.5,0.5,95,200.0
1342,E1,252.5,0.5,95,200.0
1343,E2,253.0,1.0,95,200.0
1344,E1,253.0,1.0,95,200.0
1345,B-2,253.0,0.5,95,200.0
1346,D2,253.0,0.5,95,200.0
1347,E2,254.0,0.5,95,200.0
1348,E1,254.0,0.5,95,200.0
1349,B-2,254.0,0.5,95,200.0
1350,C2,254.0,0.5,95,200.0
1351,E2,254.5,0.5,95,200.0
1352,E1,254.5,0.5,95,200.0
1353,E2,255.0,1.0,95,200.0
1354,E1,255.0,1.0,95,200.0
1355,B-2,255.0,0.5,95,200.0
1356,D2,255.0,0.5,95,200.0
1357,D3,256.0,0.5,95,200.0
1358,D2,256.0,0.5,95,200.0
1359,B-2,256.0,0.5,95,200.0
1360,C2,256.0,0.5,95,200.0
1361,D5,256.5,0.5,95,200.0
1362,D3,256.5,0.5,95,200.0
1363,D2,256.5,0.5,95,200.0
1364,E5,257.0,0.5,95,200.0
1365,D3,257.0,1.0,95,200.0
1366,D2,257.0,1.0,95,200.0
1367,B-2,257.0,0.5,95,200.0
1368,D2,257.0,0.5,95,200.0
1369,E5,257.5,0.5,95,200.0
1370,G5,258.0,0.25,95,200.0
1371,D3,258.0,0.5,95,200.0
1372,D2,258.0,0.5,95,200.0
1373,B-2,258.0,0.5,95,200.0
1374,C2,258.0,0.5,95,200.0
1375,E5,258.25,0.25,95,200.0
1376,D5,258.5,0.25,95,200.0
1377,D3,258.5,0.5,95,200.0
1378,D2,258.5,0.5,95,200.0
1379,C#5,258.75,0.25,95,200.0
1380,B4,259.0,0.25,95,200.0
1381,D3,259.0,1.0,95,200.0
1382,D2,259.0,1.0,95,200.0
1383,B-2,259.0,0.5,95,200.0
1384,D2,259.0,0.5,95,200.0
1385,A4,259.25,0.25,95,200.0
1386,G4,259.5,0.25,95,200.0
1387,F#4,259.75,0.25,95,200.0
1388,E4,260.0,0.25,95,200.0
1389,D3,260.0,0.5,95,200.0
1390,D2,260.0,0.5,95,200.0
1391,B-2,260.0,0.5,95,200.0
1392,C2,260.0,0.5,95,200.0
1393,D4,260.25,0.25,95,200.0
1394,C#4,260.5,0.25,95,200.0
1395,A3,260.5,4.0,95,200.0
1396,E3,260.5,4.0,95,200.0
1397,A2,260.5,4.0,95,200.0
1398,D3,260.5,0.5,95,200.0
1399,D2,260.5,0.5,95,200.0
1400,B3,260.75,0.25,95,200.0
1401,A3,261.0,0.25,95,200.0
1402,D3,261.0,1.0,95,200.0
1403,D2,261.0,1.0,95,200.0
1404,B-2,261.0,0.5,95,200.0
1405,D2,261.0,0.5,95,200.0
1406,G#3,261.25,0.25,95,200.0
1407,G3,261.5,0.25,95,200.0
1408,E3,261.75,0.25,95,200.0
1409,E3,262.0,0.5,95,200.0
1410,D3,262.0,0.5,95,200.0
1411,D2,262.0,0.5,95,200.0
1412,B-2,262.0,0.5,95,200.0
1413,C2,262.0,0.5,95,200.0
1414,D3,262.5,0.5,95,200.0
1415,D3,262.5,0.5,95,200.0
1416,D2,262.5,0.5,95,200.0
1417,B2,263.0,0.5,95,200.0
1418,D3,263.0,1.0,95,200.0
1419,D2,263.0,1.0,95,200.0
1420,B-2,263.0,0.5,95,200.0
1421,D2,263.0,0.5,95,200.0
1422,A2,263.5,1.0,95,200.0
1423,E3,264.0,0.5,95,200.0
1424,E2,264.0,0.5,95,200.0
1425,B-2,264.0,0.5,95,200.0
1426,C2,264.0,0.5,95,200.0
1427,D5,264.5,333/1000,95,200.0
1428,E2,264.5,0.5,95,200.0
1429,E3,264.5,0.5,95,200.0
1430,E2,264.5,0.5,95,200.0
1431,D5,264.833,333/1000,95,200.0
1432,E2,265.0,0.5,95,200.0
1433,E3,265.0,1.0,95,200.0
1434,E2,265.0,1.0,95,200.0
1435,B-2,265.0,0.5,95,200.0
1436,D2,265.0,0.5,95,200.0
1437,B4,265.167,333/1000,95,200.0
1438,D5,265.5,333/1000,95,200.0
1439,B3,265.5,1.0,95,200.0
1440,E3,265.5,1.0,95,200.0
1441,E2,265.5,1.0,95,200.0
1442,D5,265.833,333/1000,95,200.0
1443,E3,266.0,0.5,95,200.0
1444,E2,266.0,0.5,95,200.0
1445,B-2,266.0,0.5,95,200.0
1446,C2,266.0,0.5,95,200.0
1447,B4,266.167,333/1000,95,200.0
1448,D5,266.5,333/1000,95,200.0
1449,E2,266.5,0.5,95,200.0
1450,E3,266.5,0.5,95,200.0
1451,E2,266.5,0.5,95,200.0
1452,D5,266.833,333/1000,95,200.0
1453,E2,267.0,0.5,95,200.0
1454,E3,267.0,1.0,95,200.0
1455,E2,267.0,1.0,95,200.0
1456,B-2,267.0,0.5,95,200.0
1457,D2,267.0,0.5,95,200.0
1458,B4,267.167,333/1000,95,200.0
1459,D5,267.5,333/1000,95,200.0
1460,B3,267.5,1.0,95,200.0
1461,E3,267.5,1.0,95,200.0
1462,E2,267.5,1.0,95,200.0
1463,D5,267.833,333/1000,95,200.0
1464,E3,268.0,0.5,95,200.0
1465,E2,268.0,0.5,95,200.0
1466,B-2,268.0,0.5,95,200.0
1467,C2,268.0,0.5,95,200.0
1468,B4,268.167,333/1000,95,200.0
1469,G5,268.5,333/1000,95,200.0
1470,E2,268.5,0.5,95,200.0
1471,E3,268.5,0.5,95,200.0
1472,E2,268.5,0.5,95,200.0
1473,F#5,268.833,333/1000,95,200.0
1474,E2,269.0,0.5,95,200.0
1475,E3,269.0,1.0,95,200.0
1476,E2,269.0,1.0,95,200.0
1477,B-2,269.0,0.5,95,200.0
1478,D2,269.0,0.5,95,200.0
1479,E5,269.167,333/1000,70,200.0
1480,G5,269.5,333/1000,95,200.0
1481,B3,269.5,1.0,95,200.0
1482,E3,269.5,1.0,95,200.0
1483,E2,269.5,1.0,95,200.0
1484,F#5,269.833,333/1000,95,200.0
1485,E3,270.0,0.5,95,200.0
1486,E2,270.0,0.5,95,200.0
1487,B-2,270.0,0.5,95,200.0
1488,C2,270.0,0.5,95,200.0
1489,E5,270.167,333/1000,70,200.0
1490,G5,270.5,333/1000,95,200.0
1491,E2,270.5,0.5,95,200.0
1492,E3,270.5,0.5,95,200.0
1493,E2,270.5,0.5,95,200.0
1494,F#5,270.833,333/1000,95,200.0
1495,E2,271.0,0.5,95,200.0
1496,E3,271.0,1.0,95,200.0
1497,E2,271.0,1.0,95,200.0
1498,B-2,271.0,0.5,95,200.0
1499,D2,271.0,0.5,95,200.0
1500,E5,271.167,333/1000,70,200.0
1501,G5,271.5,333/1000,95,200.0
1502,B3,271.5,1.0,95,200.0
1503,E3,271.5,1.0,95,200.0
1504,E2,271.5,1.0,95,200.0
1505,F#5,271.833,333/1000,95,200.0
1506,D3,272.0,0.5,95,200.0
1507,D2,272.0,0.5,95,200.0
1508,B-2,272.0,0.5,95,200.0
1509,C2,272.0,0.5,95,200.0
1510,E5,272.167,333/1000,70,200.0
1511,E5,272.5,333/1000,95,200.0
1512,D3,272.5,0.5,95,200.0
1513,D3,272.5,0.5,95,200.0
1514,D2,272.5,0.5,95,200.0
1515,D5,272.833,333/1000,95,200.0
1516,D3,273.0,0.5,95,200.0
1517,D3,273.0,0.5,95,200.0
1518,D2,273.0,0.5,95,200.0
1519,B-2,273.0,0.5,95,200.0
1520,D2,273.0,0.5,95,200.0
1521,B4,273.167,333/1000,70,200.0
1522,E5,273.5,333/1000,95,200.0
1523,A3,273.5,1.0,95,200.0
1524,D3,273.5,1.0,95,200.0
1525,D3,273.5,0.5,95,200.0
1526,D2,273.5,0.5,95,200.0
1527,D5,273.833,333/1000,95,200.0
1528,D3,274.0,0.5,95,200.0
1529,D2,274.0,0.5,95,200.0
1530,B-2,274.0,0.5,95,200.0
1531,C2,274.0,0.5,95,200.0
1532,B4,274.167,333/1000,70,200.0
1533,E5,274.5,333/1000,95,200.0
1534,D3,274.5,0.5,95,200.0
1535,D3,274.5,0.5,95,200.0
1536,D2,274.5,0.5,95,200.0
1537,D5,274.833,333/1000,95,200.0
1538,D3,275.0,0.5,95,200.0
1539,D3,275.0,0.5,95,200.0
1540,D2,275.0,0.5,95,200.0
1541,B-2,275.0,0.5,95,200.0
1542,D2,275.0,0.5,95,200.0
1543,B4,275.167,333/1000,70,200.0
1544,E5,275.5,333/1000,95,200.0
1545,A3,275.5,1.0,95,200.0
1546,D3,275.5,1.0,95,200.0
1547,D3,275.5,0.5,95,200.0
1548,D2,275.5,0.5,95,200.0
1549,D5,275.833,333/1000,95,200.0
1550,D2,276.0,0.25,95,200.0
1551,D3,276.0,0.5,95,200.0
1552,D2,276.0,0.5,95,200.0
1553,B4,276.167,333/1000,70,200.0
1554,D2,276.25,0.25,95,200.0
1555,C5,276.5,333/1000,95,200.0
1556,D3,276.5,0.5,95,200.0
1557,D2,276.5,0.25,95,200.0
1558,D3,276.5,1.0,95,200.0
1559,D2,276.5,1.0,95,200.0
1560,C3,276.75,0.25,95,200.0
1561,A4,276.833,333/1000,95,200.0
1562,D3,277.0,0.5,95,200.0
1563,C3,277.0,0.25,95,200.0
1564,G4,277.167,333/1000,70,200.0
1565,C3,277.25,0.25,95,200.0
1566,C5,277.5,333/1000,95,200.0
1567,C3,277.5,0.25,95,200.0
1568,A3,277.5,1.0,95,200.0
1569,D3,277.5,1.0,95,200.0
1570,D3,277.5,0.5,95,200.0
1571,D2,277.5,0.5,95,200.0
1572,B2,277.75,0.25,95,200.0
1573,A4,277.833,333/1000,95,200.0
1574,B2,278.0,0.25,95,200.0
1575,D3,278.0,1.0,95,200.0
1576,D2,278.0,1.0,95,200.0
1577,G4,278.167,333/1000,70,200.0
1578,A2,278.25,0.25,95,200.0
1579,C5,278.5,333/1000,95,200.0
1580,D3,278.5,0.5,95,200.0
1581,A2,278.5,0.25,95,200.0
1582,A2,278.75,0.25,95,200.0
1583,A4,278.833,333/1000,95,200.0
1584,D3,279.0,0.5,95,200.0
1585,G2,279.0,0.25,95,200.0
1586,D3,279.0,1.0,95,200.0
1587,D2,279.0,1.0,95,200.0
1588,G4,279.167,333/1000,70,200.0
1589,G2,279.25,0.25,95,200.0
1590,C5,279.5,333/1000,95,200.0
1591,F2,279.5,0.25,95,200.0
1592,A3,279.5,1.0,95,200.0
1593,D3,279.5,1.0,95,200.0
1594,F2,279.75,0.25,95,200.0
1595,A4,279.833,333/1000,95,200.0
1596,E3,280.0,1.0,95,200.0
1597,E2,280.0,1.0,95,200.0
1598,B-2,280.0,0.5,95,200.0
1599,C2,280.0,0.5,95,200.0
1600,G4,280.167,333/1000,70,200.0
1601,E3,280.5,0.5,95,200.0
1602,C5,280.625,0.25,95,200.0
1603,B4,280.875,83/1000,95,200.0
1604,C5,280.958,83/1000,70,200.0
1605,E3,281.0,0.5,95,200.0
1606,E3,281.0,0.5,95,200.0
1607,E2,281.0,0.5,95,200.0
1608,B-2,281.0,0.5,95,200.0
1609,D2,281.0,0.5,95,200.0
1610,B4,281.042,83/1000,70,200.0
1611,A4,281.125,0.25,95,200.0
1612,B4,281.375,0.125,95,200.0
1613,B4,281.5,3.0,95,200.0
1614,B3,281.5,1.0,95,200.0
1615,E3,281.5,1.0,95,200.0
1616,E3,281.5,0.5,95,200.0
1617,E2,281.5,0.5,95,200.0
1618,E3,282.0,0.5,95,200.0
1619,E2,282.0,0.5,95,200.0
1620,B-2,282.0,0.5,95,200.0
1621,C2,282.0,0.5,95,200.0
1622,E3,282.5,0.5,95,200.0
1623,E3,282.5,0.5,95,200.0
1624,E2,282.5,0.5,95,200.0
1625,E3,283.0,0.5,95,200.0
1626,E3,283.0,0.5,95,200.0
1627,E2,283.0,0.5,95,200.0
1628,B-2,283.0,0.5,95,200.0
1629,D2,283.0,0.5,95,200.0
1630,B3,283.5,1.0,95,200.0
1631,E3,283.5,1.0,95,200.0
1632,E3,283.5,0.5,95,200.0
1633,E2,283.5,0.5,95,200.0
1634,E2,284.0,0.5,95,200.0
1635,D2,284.0,0.25,95,200.0
1636,D2,284.25,0.25,95,200.0
1637,E3,284.5,0.5,95,200.0
1638,E2,284.5,0.5,95,200.0
1639,D2,284.5,0.25,95,200.0
1640,C3,284.75,0.25,95,200.0
1641,E3,285.0,0.5,95,200.0
1642,E2,285.0,0.5,95,200.0
1643,C3,285.0,0.25,95,200.0
1644,C3,285.25,0.25,95,200.0
1645,C3,285.5,1.0,95,200.0
1646,C3,285.5,0.25,95,200.0
1647,B3,285.5,1.0,95,200.0
1648,E3,285.5,1.0,95,200.0
1649,B2,285.75,0.25,95,200.0
1650,B2,286.0,0.25,95,200.0
1651,A2,286.25,0.25,95,200.0
1652,E3,286.5,0.5,95,200.0
1653,B2,286.5,0.5,95,200.0
1654,A2,286.5,0.25,95,200.0
1655,A2,286.75,0.25,95,200.0
1656,E3,287.0,0.5,95,200.0
1657,A2,287.0,0.5,95,200.0
1658,G2,287.0,0.25,95,200.0
1659,G2,287.25,0.25,95,200.0
1660,G2,287.5,0.5,95,200.0
1661,F2,287.5,0.25,95,200.0
1662,B3,287.5,1.0,95,200.0
1663,E3,287.5,1.0,95,200.0
1664,F2,287.75,0.25,95,200.0
1665,E2,288.0,1.0,95,200.0
1666,B-2,288.0,0.5,95,200.0
1667,C2,288.0,0.5,95,200.0
1668,D3,288.5,0.5,95,200.0
1669,D3,289.0,0.5,95,200.0
1670,E2,289.0,0.5,95,200.0
1671,B-2,289.0,0.5,95,200.0
1672,D2,289.0,0.5,95,200.0
1673,E2,289.5,0.5,95,200.0
1674,A3,289.5,1.0,95,200.0
1675,D3,289.5,1.0,95,200.0
1676,E2,290.0,0.5,95,200.0
1677,B-2,290.0,0.5,95,200.0
1678,C2,290.0,0.5,95,200.0
1679,D3,290.5,0.5,95,200.0
1680,E2,290.5,0.5,95,200.0
1681,D3,291.0,0.5,95,200.0
1682,E2,291.0,0.5,95,200.0
1683,B-2,291.0,0.5,95,200.0
1684,D2,291.0,0.5,95,200.0
1685,E2,291.5,0.5,95,200.0
1686,A3,291.5,1.0,95,200.0
1687,D3,291.5,1.0,95,200.0
1688,E2,292.0,0.5,95,200.0
1689,D2,292.0,0.25,95,200.0
1690,D2,292.25,0.25,95,200.0
1691,E2,292.5,0.5,95,200.0
1692,D2,292.5,0.25,95,200.0
1693,C3,292.75,0.25,95,200.0
1694,E2,293.0,0.5,95,200.0
1695,C3,293.0,0.25,95,200.0
1696,A3,293.0,0.5,95,200.0
1697,D3,293.0,0.5,95,200.0
1698,C3,293.25,0.25,95,200.0
1699,C3,293.5,1.0,95,200.0
1700,C3,293.5,0.25,95,200.0
1701,A3,293.5,1.0,95,200.0
1702,D3,293.5,1.0,95,200.0
1703,B2,293.75,0.25,95,200.0
1704,B2,294.0,0.25,95,200.0
1705,A2,294.25,0.25,95,200.0
1706,D3,294.5,0.5,95,200.0
1707,B2,294.5,0.5,95,200.0
1708,A2,294.5,0.25,95,200.0
1709,A2,294.75,0.25,95,200.0
1710,A2,295.0,0.5,95,200.0
1711,G2,295.0,0.25,95,200.0
1712,A3,295.0,1.0,95,200.0
1713,D3,295.0,1.0,95,200.0
1714,G2,295.25,0.25,95,200.0
1715,G2,295.5,0.5,95,200.0
1716,F2,295.5,0.25,95,200.0
1717,F2,295.75,0.25,95,200.0
1718,E1,296.0,1.0,95,200.0
1719,A3,296.0,1.0,95,200.0
1720,D3,296.0,1.0,95,200.0
1721,A3,296.0,0.5,95,200.0
1722,B1,296.0,0.5,95,200.0
1723,F#2,296.5,0.5,95,200.0
1724,E4,296.5,1.0,95,200.0
1725,B3,296.5,1.0,95,200.0
1726,E3,296.5,1.0,95,200.0
1727,E1,297.0,0.5,95,200.0
1728,F#2,297.0,0.5,95,200.0
1729,E4,297.0,1.0,95,200.0
1730,B3,297.0,1.0,95,200.0
1731,E3,297.0,1.0,95,200.0
1732,E1,297.5,0.5,95,200.0
1733,F#2,297.5,0.5,95,200.0
1734,E3,298.0,0.5,95,200.0
1735,E1,298.0,0.5,95,200.0
1736,F#2,298.0,0.5,95,200.0
1737,D2,298.0,0.5,95,200.0
1738,E3,298.5,0.5,95,200.0
1739,E1,298.5,0.5,95,200.0
1740,F#2,298.5,0.5,95,200.0
1741,E3,299.0,0.5,95,200.0
1742,E1,299.0,0.5,95,200.0
1743,F#2,299.0,0.5,95,200.0
1744,E4,299.0,0.5,95,200.0
1745,B3,299.0,0.5,95,200.0
1746,E3,299.0,0.5,95,200.0
1747,E1,299.5,0.5,95,200.0
1748,F#2,299.5,0.5,95,200.0
1749,B3,299.5,0.5,95,200.0
1750,E3,299.5,0.5,95,200.0
1751,E3,300.0,0.5,95,200.0
1752,E1,300.0,1.0,95,200.0
1753,F#2,300.0,0.5,95,200.0
1754,B1,300.0,0.5,95,200.0
1755,E3,300.5,0.5,95,200.0
1756,F#2,300.5,0.5,95,200.0
1757,E4,300.5,0.5,95,200.0
1758,B3,300.5,0.5,95,200.0
1759,E3,300.5,0.5,95,200.0
1760,E1,301.0,0.5,95,200.0
1761,F#2,301.0,0.5,95,200.0
1762,B3,301.0,0.5,95,200.0
1763,E3,301.0,0.5,95,200.0
1764,E3,301.5,0.5,95,200.0
1765,E1,301.5,0.5,95,200.0
1766,F#2,301.5,0.5,95,200.0
1767,E3,302.0,0.5,95,200.0
1768,E1,302.0,0.5,95,200.0
1769,F#2,302.0,0.5,95,200.0
1770,D2,302.0,0.5,95,200.0
1771,C4,302.5,1.0,95,200.0
1772,E1,302.5,0.5,95,200.0
1773,F#2,302.5,0.5,95,200.0
1774,E1,303.0,0.5,95,200.0
1775,F#2,303.0,0.5,95,200.0
1776,B3,303.5,0.5,95,200.0
1777,E1,303.5,0.5,95,200.0
1778,F#2,303.5,0.5,95,200.0
1779,A3,304.0,0.5,95,200.0
1780,E1,304.0,1.0,95,200.0
1781,A3,304.0,0.5,95,200.0
1782,B1,304.0,0.5,95,200.0
1783,G3,304.5,0.5,95,200.0
1784,F#2,304.5,0.5,95,200.0
1785,E4,304.5,1.0,95,200.0
1786,B3,304.5,1.0,95,200.0
1787,E3,304.5,1.0,95,200.0
1788,E1,305.0,0.5,95,200.0
1789,F#2,305.0,0.5,95,200.0
1790,E4,305.0,1.0,95,200.0
1791,B3,305.0,1.0,95,200.0
1792,E3,305.0,1.0,95,200.0
1793,E1,305.5,0.5,95,200.0
1794,F#2,305.5,0.5,95,200.0
1795,E3,306.0,0.5,95,200.0
1796,E1,306.0,0.5,95,200.0
1797,F#2,306.0,0.5,95,200.0
1798,D2,306.0,0.5,95,200.0
1799,E3,306.5,0.5,95,200.0
1800,E1,306.5,0.5,95,200.0
1801,F#2,306.5,0.5,95,200.0
1802,E3,307.0,0.5,95,200.0
1803,E1,307.0,0.5,95,200.0
1804,F#2,307.0,0.5,95,200.0
1805,E4,307.0,0.5,95,200.0
1806,B3,307.0,0.5,95,200.0
1807,E3,307.0,0.5,95,200.0
1808,E1,307.5,0.5,95,200.0
1809,F#2,307.5,0.5,95,200.0
1810,B3,307.5,0.5,95,200.0
1811,E3,307.5,0.5,95,200.0
1812,E3,308.0,0.5,95,200.0
1813,E1,308.0,1.0,95,200.0
1814,F#2,308.0,0.5,95,200.0
1815,B1,308.0,0.5,95,200.0
1816,E3,308.5,0.5,95,200.0
1817,F#2,308.5,0.5,95,200.0
1818,E4,308.5,0.5,95,200.0
1819,B3,308.5,0.5,95,200.0
1820,E3,308.5,0.5,95,200.0
1821,E1,309.0,0.5,95,200.0
1822,F#2,309.0,0.5,95,200.0
1823,B3,309.0,0.5,95,200.0
1824,E3,309.0,0.5,95,200.0
1825,E3,309.5,0.5,95,200.0
1826,E1,309.5,0.5,95,200.0
1827,F#2,309.5,0.5,95,200.0
1828,E3,310.0,0.5,95,200.0
1829,E1,310.0,0.5,95,200.0
1830,F#2,310.0,0.5,95,200.0
1831,D2,310.0,0.5,95,200.0
1832,C4,310.5,1.0,95,200.0
1833,E1,310.5,0.5,95,200.0
1834,F#2,310.5,0.5,95,200.0
1835,E1,311.0,0.5,95,200.0
1836,F#2,311.0,0.5,95,200.0
1837,B3,311.5,0.5,95,200.0
1838,E1,311.5,0.5,95,200.0
1839,F#2,311.5,0.5,95,200.0
1840,A3,312.0,0.5,95,200.0
1841,D2,312.0,1.0,95,200.0
1842,F#2,312.0,0.5,95,200.0
1843,B1,312.0,0.5,95,200.0
1844,G3,312.5,0.5,95,200.0
1845,F#2,312.5,0.5,95,200.0
1846,D4,312.5,1.0,95,200.0
1847,A3,312.5,1.0,95,200.0
1848,D3,312.5,1.0,95,200.0
1849,D2,313.0,0.5,95,200.0
1850,F#2,313.0,0.5,95,200.0
1851,D2,313.5,0.5,95,200.0
1852,F#2,313.5,0.5,95,200.0
1853,D2,314.0,0.5,95,200.0
1854,F#2,314.0,0.5,95,200.0
1855,D2,314.0,0.5,95,200.0
1856,D2,314.5,0.5,95,200.0
1857,F#2,314.5,0.5,95,200.0
1858,D2,315.0,0.5,95,200.0
1859,F#2,315.0,0.5,95,200.0
1860,D4,315.0,0.5,95,200.0
1861,A3,315.0,0.5,95,200.0
1862,D3,315.0,0.5,95,200.0
1863,D2,315.5,0.5,95,200.0
1864,F#2,315.5,0.5,95,200.0
1865,D2,316.0,1.0,95,200.0
1866,F#2,316.0,0.5,95,200.0
1867,B1,316.0,0.5,95,200.0
1868,F#2,316.5,0.5,95,200.0
1869,D4,316.5,0.5,95,200.0
1870,A3,316.5,0.5,95,200.0
1871,D3,316.5,0.5,95,200.0
1872,D2,317.0,0.5,95,200.0
1873,F#2,317.0,0.5,95,200.0
1874,D2,317.5,0.5,95,200.0
1875,F#2,317.5,0.5,95,200.0
1876,D2,318.0,0.5,95,200.0
1877,F#2,318.0,0.5,95,200.0
1878,D2,318.0,0.5,95,200.0
1879,D2,318.5,0.5,95,200.0
1880,F#2,318.5,0.5,95,200.0
1881,D2,319.0,0.5,95,200.0
1882,F#2,319.0,0.5,95,200.0
1883,D2,319.5,0.5,95,200.0
1884,F#2,319.5,0.5,95,200.0
1885,D2,320.0,1.0,95,200.0
1886,F#2,320.0,0.5,95,200.0
1887,B1,320.0,0.5,95,200.0
1888,F#2,320.5,0.5,95,200.0
1889,D4,320.5,1.0,95,200.0
1890,A3,320.5,1.0,95,200.0
1891,D3,320.5,1.0,95,200.0
1892,D2,321.0,0.5,95,200.0
1893,F#2,321.0,0.5,95,200.0
1894,D2,321.5,0.5,95,200.0
1895,F#2,321.5,0.5,95,200.0
1896,D2,322.0,0.5,95,200.0
1897,F#2,322.0,0.5,95,200.0
1898,D2,322.0,0.5,95,200.0
1899,D2,322.5,0.5,95,200.0
1900,F#2,322.5,0.5,95,200.0
1901,D2,323.0,0.5,95,200.0
1902,F#2,323.0,0.5,95,200.0
1903,D4,323.0,0.5,95,200.0
1904,A3,323.0,0.5,95,200.0
1905,D3,323.0,0.5,95,200.0
1906,D2,323.5,0.5,95,200.0
1907,F#2,323.5,0.5,95,200.0
1908,D2,324.0,1.0,95,200.0
1909,F#2,324.0,0.5,95,200.0
1910,B1,324.0,0.5,95,200.0
1911,F#2,324.5,0.5,95,200.0
1912,D4,324.5,0.5,95,200.0
1913,A3,324.5,0.5,95,200.0
1914,D3,324.5,0.5,95,200.0
1915,D2,325.0,0.5,95,200.0
1916,F#2,325.0,0.5,95,200.0
1917,D2,325.5,0.5,95,200.0
1918,F#2,325.5,0.5,95,200.0
1919,D2,326.0,0.5,95,200.0
1920,F#2,326.0,0.5,95,200.0
1921,D2,326.0,0.5,95,200.0
1922,D2,326.5,0.5,95,200.0
1923,F#2,326.5,0.5,95,200.0
1924,D2,327.0,0.5,95,200.0
1925,F#2,327.0,0.5,95,200.0
1926,D2,327.5,0.5,95,200.0
1927,F#2,327.5,0.5,95,200.0
1928,E1,328.0,1.0,95,200.0
1929,A3,328.0,0.5,95,200.0
1930,B1,328.0,0.5,95,200.0
1931,F#2,328.5,0.5,95,200.0
1932,E4,328.5,1.0,95,200.0
1933,B3,328.5,1.0,95,200.0
1934,E3,328.5,1.0,95,200.0
1935,E1,329.0,0.5,95,200.0
1936,F#2,329.0,0.5,95,200.0
1937,E1,329.5,0.5,95,200.0
1938,F#2,329.5,0.5,95,200.0
1939,E1,330.0,0.5,95,200.0
1940,F#2,330.0,0.5,95,200.0
1941,D2,330.0,0.5,95,200.0
1942,E1,330.5,0.5,95,200.0
1943,F#2,330.5,0.5,95,200.0
1944,E1,331.0,0.5,95,200.0
1945,F#2,331.0,0.5,95,200.0
1946,E4,331.0,0.5,95,200.0
1947,B3,331.0,0.5,95,200.0
1948,E3,331.0,0.5,95,200.0
1949,E1,331.5,0.5,95,200.0
1950,F#2,331.5,0.5,95,200.0
1951,E1,332.0,1.0,95,200.0
1952,F#2,332.0,0.5,95,200.0
1953,B1,332.0,0.5,95,200.0
1954,F#2,332.5,0.5,95,200.0
1955,E4,332.5,0.5,95,200.0
1956,B3,332.5,0.5,95,200.0
1957,E3,332.5,0.5,95,200.0
1958,E1,333.0,0.5,95,200.0
1959,F#2,333.0,0.5,95,200.0
1960,E1,333.5,0.5,95,200.0
1961,F#2,333.5,0.5,95,200.0
1962,E1,334.0,0.5,95,200.0
1963,F#2,334.0,0.5,95,200.0
1964,D2,334.0,0.5,95,200.0
1965,E1,334.5,0.5,95,200.0
1966,F#2,334.5,0.5,95,200.0
1967,E1,335.0,0.5,95,200.0
1968,F#2,335.0,0.5,95,200.0
1969,E1,335.5,0.5,95,200.0
1970,F#2,335.5,0.5,95,200.0
1971,E1,336.0,1.0,95,200.0
1972,A3,336.0,0.5,95,200.0
1973,B1,336.0,0.5,95,200.0
1974,F#2,336.5,0.5,95,200.0
1975,E4,336.5,1.0,95,200.0
1976,B3,336.5,1.0,95,200.0
1977,E3,336.5,1.0,95,200.0
1978,E1,337.0,0.5,95,200.0
1979,F#2,337.0,0.5,95,200.0
1980,E1,337.5,0.5,95,200.0
1981,F#2,337.5,0.5,95,200.0
1982,E1,338.0,0.5,95,200.0
1983,F#2,338.0,0.5,95,200.0
1984,D2,338.0,0.5,95,200.0
1985,E1,338.5,0.5,95,200.0
1986,F#2,338.5,0.5,95,200.0
1987,E1,339.0,0.5,95,200.0
1988,F#2,339.0,0.5,95,200.0
1989,E4,339.0,0.5,95,200.0
1990,B3,339.0,0.5,95,200.0
1991,E3,339.0,0.5,95,200.0
1992,E1,339.5,0.5,95,200.0
1993,F#2,339.5,0.5,95,200.0
1994,E1,340.0,1.0,95,200.0
1995,F#2,340.0,0.5,95,200.0
1996,B1,340.0,0.5,95,200.0
1997,F#2,340.5,0.5,95,200.0
1998,E4,340.5,0.5,95,200.0
1999,B3,340.5,0.5,95,200.0
2000,E3,340.5,0.5,95,200.0
2001,E1,341.0,0.5,95,200.0
2002,F#2,341.0,0.5,95,200.0
2003,E1,341.5,0.5,95,200.0
2004,F#2,341.5,0.5,95,200.0
2005,E1,342.0,0.5,95,200.0
2006,F#2,342.0,0.5,95,200.0
2007,D2,342.0,0.5,95,200.0
2008,E1,342.5,0.5,95,200.0
2009,F#2,342.5,0.5,95,200.0
2010,E1,343.0,0.5,95,200.0
2011,F#2,343.0,0.5,95,200.0
2012,E1,343.5,0.5,95,200.0
2013,F#2,343.5,0.5,95,200.0
2014,D2,344.0,1.0,95,200.0
2015,F#2,344.0,0.5,95,200.0
2016,B1,344.0,0.5,95,200.0
2017,F#2,344.5,0.5,95,200.0
2018,D4,344.5,1.0,95,200.0
2019,A3,344.5,1.0,95,200.0
2020,D3,344.5,1.0,95,200.0
2021,D2,345.0,0.5,95,200.0
2022,F#2,345.0,0.5,95,200.0
2023,D2,345.5,0.5,95,200.0
2024,F#2,345.5,0.5,95,200.0
2025,D2,346.0,0.5,95,200.0
2026,F#2,346.0,0.5,95,200.0
2027,D2,346.0,0.5,95,200.0
2028,D2,346.5,0.5,95,200.0
2029,F#2,346.5,0.5,95,200.0
2030,D2,347.0,0.5,95,200.0
2031,F#2,347.0,0.5,95,200.0
2032,D4,347.0,0.5,95,200.0
2033,A3,347.0,0.5,95,200.0
2034,D3,347.0,0.5,95,200.0
2035,D2,347.5,0.5,95,200.0
2036,F#2,347.5,0.5,95,200.0
2037,D2,348.0,1.0,95,200.0
2038,F#2,348.0,0.5,95,200.0
2039,B1,348.0,0.5,95,200.0
2040,F#2,348.5,0.5,95,200.0
2041,D4,348.5,0.5,95,200.0
2042,A3,348.5,0.5,95,200.0
2043,D3,348.5,0.5,95,200.0
2044,D2,349.0,0.5,95,200.0
2045,F#2,349.0,0.5,95,200.0
2046,D2,349.5,0.5,95,200.0
2047,F#2,349.5,0.5,95,200.0
2048,D2,350.0,0.5,95,200.0
2049,F#2,350.0,0.5,95,200.0
2050,D2,350.0,0.5,95,200.0
2051,D2,350.5,0.5,95,200.0
2052,F#2,350.5,0.5,95,200.0
2053,D2,351.0,0.5,95,200.0
2054,F#2,351.0,0.5,95,200.0
2055,D2,351.5,0.5,95,200.0
2056,F#2,351.5,0.5,95,200.0
2057,D2,352.0,1.0,95,200.0
2058,F#2,352.0,0.5,95,200.0
2059,B1,352.0,0.5,95,200.0
2060,F#2,352.5,0.5,95,200.0
2061,D4,352.5,1.0,95,200.0
2062,A3,352.5,1.0,95,200.0
2063,D3,352.5,1.0,95,200.0
2064,D2,353.0,0.5,95,200.0
2065,F#2,353.0,0.5,95,200.0
2066,D2,353.5,0.5,95,200.0
2067,F#2,353.5,0.5,95,200.0
2068,D2,354.0,0.5,95,200.0
2069,F#2,354.0,0.5,95,200.0
2070,D2,354.0,0.5,95,200.0
2071,D2,354.5,0.5,95,200.0
2072,F#2,354.5,0.5,95,200.0
2073,D2,355.0,0.5,95,200.0
2074,F#2,355.0,0.5,95,200.0
2075,D4,355.0,0.5,95,200.0
2076,A3,355.0,0.5,95,200.0
2077,D3,355.0,0.5,95,200.0
2078,D2,355.5,0.5,95,200.0
2079,F#2,355.5,0.5,95,200.0
2080,D2,356.0,1.0,95,200.0
2081,D2,356.0,0.25,95,200.0
2082,D2,356.25,0.25,95,200.0
2083,D2,356.5,0.25,95,200.0
2084,D4,356.5,0.5,95,200.0
2085,A3,356.5,0.5,95,200.0
2086,D3,356.5,0.5,95,200.0
2087,C3,356.75,0.25,95,200.0
2088,D2,357.0,0.5,95,200.0
2089,C3,357.0,0.25,95,200.0
2090,C3,357.25,0.25,95,200.0
2091,D2,357.5,0.5,95,200.0
2092,C3,357.5,0.25,95,200.0
2093,B2,357.75,0.25,95,200.0
2094,D2,358.0,0.5,95,200.0
2095,B2,358.0,0.25,95,200.0
2096,A2,358.25,0.25,95,200.0
2097,D2,358.5,0.5,95,200.0
2098,A2,358.5,0.25,95,200.0
2099,A2,358.75,0.25,95,200.0
2100,D2,359.0,0.5,95,200.0
2101,G2,359.0,0.25,95,200.0
2102,G2,359.25,0.25,95,200.0
2103,D2,359.5,0.5,95,200.0
2104,F2,359.5,0.25,95,200.0
2105,F2,359.75,0.25,95,200.0
2106,B1,360.0,1.0,95,200.0
2107,A3,360.0,0.5,95,200.0
2108,B1,360.0,0.5,95,200.0
2109,B3,360.5,1.5,95,200.0
2110,F#2,360.5,0.5,95,200.0
2111,B1,361.0,1.0,95,200.0
2112,F#2,361.0,0.5,95,200.0
2113,F#2,361.5,0.5,95,200.0
2114,E4,362.0,1.5,95,200.0
2115,B1,362.0,1.0,95,200.0
2116,F#2,362.0,0.5,95,200.0
2117,D2,362.0,0.5,95,200.0
2118,F#2,362.5,0.5,95,200.0
2119,B1,363.0,1.0,95,200.0
2120,F#2,363.0,0.5,95,200.0
2121,F#4,363.5,1.0,95,200.0
2122,F#2,363.5,0.5,95,200.0
2123,G1,364.0,1.0,95,200.0
2124,F#2,364.0,0.5,95,200.0
2125,B1,364.0,0.5,95,200.0
2126,G4,364.5,4.0,95,200.0
2127,F#2,364.5,0.5,95,200.0
2128,G1,365.0,1.0,95,200.0
2129,F#2,365.0,0.5,95,200.0
2130,F#2,365.5,0.5,95,200.0
2131,G1,366.0,1.0,95,200.0
2132,F#2,366.0,0.5,95,200.0
2133,D2,366.0,0.5,95,200.0
2134,F#2,366.5,0.5,95,200.0
2135,G1,367.0,1.0,95,200.0
2136,F#2,367.0,0.5,95,200.0
2137,F#2,367.5,0.5,95,200.0
2138,A1,368.0,1.0,95,200.0
2139,A3,368.0,0.5,95,200.0
2140,B1,368.0,0.5,95,200.0
2141,A4,368.5,1.5,95,200.0
2142,F#2,368.5,0.5,95,200.0
2143,A1,369.0,1.0,95,200.0
2144,F#2,369.0,0.5,95,200.0
2145,F#2,369.5,0.5,95,200.0
2146,G4,370.0,1.5,95,200.0
2147,A1,370.0,1.0,95,200.0
2148,F#2,370.0,0.5,95,200.0
2149,D2,370.0,0.5,95,200.0
2150,F#2,370.5,0.5,95,200.0
2151,A1,371.0,1.0,95,200.0
2152,F#2,371.0,0.5,95,200.0
2153,F#4,371.5,1.0,95,200.0
2154,F#2,371.5,0.5,95,200.0
2155,E2,372.0,1.5,95,200.0
2156,C#3,372.0,1.5,95,200.0
2157,C2,372.0,1.5,95,200.0
2158,G4,372.5,1.5,95,200.0
2159,D2,373.5,1.5,95,200.0
2160,C#3,373.5,1.5,95,200.0
2161,D2,373.5,1.5,95,200.0
2162,F#4,374.0,1.5,95,200.0
2163,C2,375.0,1.0,95,200.0
2164,C#3,375.0,1.0,95,200.0
2165,C2,375.0,1.0,95,200.0
2166,E4,375.5,1.0,95,200.0
2167,B1,376.0,1.0,95,200.0
2168,A3,376.0,0.5,95,200.0
2169,B1,376.0,0.5,95,200.0
2170,B3,376.5,1.5,95,200.0
2171,F#2,376.5,0.5,95,200.0
2172,B1,377.0,1.0,95,200.0
2173,F#2,377.0,0.5,95,200.0
2174,B3,377.0,4.0,95,200.0
2175,F#3,377.0,4.0,95,200.0
2176,B2,377.0,4.0,95,200.0
2177,F#2,377.5,0.5,95,200.0
2178,E4,378.0,1.5,95,200.0
2179,B1,378.0,1.0,95,200.0
2180,F#2,378.0,0.5,95,200.0
2181,D2,378.0,0.5,95,200.0
2182,F#2,378.5,0.5,95,200.0
2183,B1,379.0,1.0,95,200.0
2184,F#2,379.0,0.5,95,200.0
2185,F#4,379.5,1.0,95,200.0
2186,F#2,379.5,0.5,95,200.0
2187,G1,380.0,1.0,95,200.0
2188,F#2,380.0,0.5,95,200.0
2189,B1,380.0,0.5,95,200.0
2190,G4,380.5,4.0,95,200.0
2191,F#2,380.5,0.5,95,200.0
2192,G1,381.0,1.0,95,200.0
2193,F#2,381.0,0.5,95,200.0
2194,G4,381.0,4.0,95,200.0
2195,D4,381.0,4.0,95,200.0
2196,G3,381.0,4.0,95,200.0
2197,F#2,381.5,0.5,95,200.0
2198,G1,382.0,1.0,95,200.0
2199,F#2,382.0,0.5,95,200.0
2200,D2,382.0,0.5,95,200.0
2201,F#2,382.5,0.5,95,200.0
2202,G1,383.0,1.0,95,200.0
2203,F#2,383.0,0.5,95,200.0
2204,F#2,383.5,0.5,95,200.0
2205,A1,384.0,1.5,95,200.0
2206,F#2,384.0,0.5,95,200.0
2207,B1,384.0,0.5,95,200.0
2208,A4,384.5,1.5,95,200.0
2209,F#2,384.5,0.5,95,200.0
2210,F#2,385.0,0.5,95,200.0
2211,A3,385.0,4.0,95,200.0
2212,E3,385.0,4.0,95,200.0
2213,A2,385.0,4.0,95,200.0
2214,A1,385.5,1.5,95,200.0
2215,F#2,385.5,0.5,95,200.0
2216,B4,386.0,1.5,95,200.0
2217,F#2,386.0,0.5,95,200.0
2218,D2,386.0,0.5,95,200.0
2219,F#2,386.5,0.5,95,200.0
2220,A1,387.0,1.0,95,200.0
2221,F#2,387.0,0.5,95,200.0
2222,C5,387.5,1.0,95,200.0
2223,F#2,387.5,0.5,95,200.0
2224,A1,388.0,4.0,95,200.0
2225,F#2,388.0,0.5,95,200.0
2226,B1,388.0,0.5,95,200.0
2227,B4,388.5,4.0,95,200.0
2228,F#2,388.5,0.5,95,200.0
2229,F#2,389.0,0.5,95,200.0
2230,B3,389.0,1.5,95,200.0
2231,E3,389.0,1.5,95,200.0
2232,F#2,389.5,0.5,95,200.0
2233,F#2,390.0,0.5,95,200.0
2234,D2,390.0,0.5,95,200.0
2235,F#2,390.5,0.5,95,200.0
2236,A3,390.5,1.5,95,200.0
2237,D3,390.5,1.5,95,200.0
2238,F#2,391.0,0.5,95,200.0
2239,F#2,391.5,0.5,95,200.0
2240,B1,392.0,1.0,95,200.0
2241,G3,392.0,1.0,95,200.0
2242,C3,392.0,1.0,95,200.0
2243,A3,392.0,0.5,95,200.0
2244,B1,392.0,0.5,95,200.0
2245,B3,392.5,1.5,95,200.0
2246,F#2,392.5,0.5,95,200.0
2247,B1,393.0,1.0,95,200.0
2248,F#2,393.0,0.5,95,200.0
2249,B3,393.0,4.0,95,200.0
2250,F#3,393.0,4.0,95,200.0
2251,B2,393.0,4.0,95,200.0
2252,F#2,393.5,0.5,95,200.0
2253,E4,394.0,1.5,95,200.0
2254,B1,394.0,1.0,95,200.0
2255,F#2,394.0,0.5,95,200.0
2256,D2,394.0,0.5,95,200.0
2257,F#2,394.5,0.5,95,200.0
2258,B1,395.0,1.0,95,200.0
2259,F#2,395.0,0.5,95,200.0
2260,F#4,395.5,1.0,95,200.0
2261,F#2,395.5,0.5,95,200.0
2262,G1,396.0,1.0,95,200.0
2263,F#2,396.0,0.5,95,200.0
2264,B1,396.0,0.5,95,200.0
2265,G4,396.5,4.0,95,200.0
2266,F#2,396.5,0.5,95,200.0
2267,G1,397.0,1.0,95,200.0
2268,F#2,397.0,0.5,95,200.0
2269,G4,397.0,4.0,95,200.0
2270,D4,397.0,4.0,95,200.0
2271,G3,397.0,4.0,95,200.0
2272,F#2,397.5,0.5,95,200.0
2273,G1,398.0,1.0,95,200.0
2274,F#2,398.0,0.5,95,200.0
2275,D2,398.0,0.5,95,200.0
2276,F#2,398.5,0.5,95,200.0
2277,G1,399.0,1.0,95,200.0
2278,F#2,399.0,0.5,95,200.0
2279,F#2,399.5,0.5,95,200.0
2280,A1,400.0,1.0,95,200.0
2281,A3,400.0,0.5,95,200.0
2282,B1,400.0,0.5,95,200.0
2283,A4,400.5,1.5,95,200.0
2284,F#2,400.5,0.5,95,200.0
2285,A1,401.0,1.0,95,200.0
2286,F#2,401.0,0.5,95,200.0
2287,A3,401.0,4.0,95,200.0
2288,E3,401.0,4.0,95,200.0
2289,A2,401.0,4.0,95,200.0
2290,F#2,401.5,0.5,95,200.0
2291,G4,402.0,1.5,95,200.0
2292,A1,402.0,1.0,95,200.0
2293,F#2,402.0,0.5,95,200.0
2294,D2,402.0,0.5,95,200.0
2295,F#2,402.5,0.5,95,200.0
2296,A1,403.0,1.0,95,200.0
2297,F#2,403.0,0.5,95,200.0
2298,F#4,403.5,1.0,95,200.0
2299,F#2,403.5,0.5,95,200.0
2300,E2,404.0,1.5,95,200.0
2301,C#3,404.0,1.5,95,200.0
2302,C2,404.0,1.5,95,200.0
2303,G4,404.5,1.5,95,200.0
2304,D2,405.5,1.5,95,200.0
2305,C#3,405.5,1.5,95,200.0
2306,D2,405.5,1.5,95,200.0
2307,F#4,406.0,1.5,95,200.0
2308,C2,407.0,1.0,95,200.0
2309,C#3,407.0,1.0,95,200.0
2310,C2,407.0,1.0,95,200.0
2311,E4,407.5,1.0,95,200.0
2312,B1,408.0,1.0,95,200.0
2313,A3,408.0,0.5,95,200.0
2314,B1,408.0,0.5,95,200.0
2315,B3,408.5,1.5,95,200.0
2316,F#2,408.5,0.5,95,200.0
2317,B1,409.0,1.0,95,200.0
2318,F#2,409.0,0.5,95,200.0
2319,A3,409.0,4.0,95,200.0
2320,E3,409.0,4.0,95,200.0
2321,A2,409.0,4.0,95,200.0
2322,F#2,409.5,0.5,95,200.0
2323,E4,410.0,1.5,95,200.0
2324,B1,410.0,1.0,95,200.0
2325,F#2,410.0,0.5,95,200.0
2326,D2,410.0,0.5,95,200.0
2327,F#2,410.5,0.5,95,200.0
2328,B1,411.0,1.0,95,200.0
2329,F#2,411.0,0.5,95,200.0
2330,F#4,411.5,1.0,95,200.0
2331,F#2,411.5,0.5,95,200.0
2332,G1,412.0,1.0,95,200.0
2333,F#2,412.0,0.5,95,200.0
2334,B1,412.0,0.5,95,200.0
2335,G4,412.5,4.0,95,200.0
2336,F#2,412.5,0.5,95,200.0
2337,G1,413.0,1.0,95,200.0
2338,F#2,413.0,0.5,95,200.0
2339,B3,413.0,4.0,95,200.0
2340,F#3,413.0,4.0,95,200.0
2341,B2,413.0,4.0,95,200.0
2342,F#2,413.5,0.5,95,200.0
2343,G1,414.0,1.0,95,200.0
2344,F#2,414.0,0.5,95,200.0
2345,D2,414.0,0.5,95,200.0
2346,F#2,414.5,0.5,95,200.0
2347,G1,415.0,1.0,95,200.0
2348,F#2,415.0,0.5,95,200.0
2349,F#2,415.5,0.5,95,200.0
2350,A1,416.0,1.5,95,200.0
2351,F#2,416.0,0.5,95,200.0
2352,B1,416.0,0.5,95,200.0
2353,A4,416.5,1.5,95,200.0
2354,F#2,416.5,0.5,95,200.0
2355,F#2,417.0,0.5,95,200.0
2356,G4,417.0,4.0,95,200.0
2357,D4,417.0,4.0,95,200.0
2358,G3,417.0,4.0,95,200.0
2359,A1,417.5,1.5,95,200.0
2360,F#2,417.5,0.5,95,200.0
2361,B4,418.0,1.5,95,200.0
2362,F#2,418.0,0.5,95,200.0
2363,D2,418.0,0.5,95,200.0
2364,F#2,418.5,0.5,95,200.0
2365,A1,419.0,1.0,95,200.0
2366,F#2,419.0,0.5,95,200.0
2367,C5,419.5,1.0,95,200.0
2368,F#2,419.5,0.5,95,200.0
2369,A1,420.0,4.0,95,200.0
2370,D2,420.0,0.25,95,200.0
2371,D2,420.25,0.25,95,200.0
2372,B4,420.5,4.0,95,200.0
2373,D2,420.5,0.25,95,200.0
2374,C3,420.75,0.25,95,200.0
2375,C3,421.0,0.25,95,200.0
2376,A3,421.0,4.0,95,200.0
2377,E3,421.0,4.0,95,200.0
2378,A2,421.0,4.0,95,200.0
2379,C3,421.25,0.25,95,200.0
2380,C3,421.5,0.25,95,200.0
2381,B2,421.75,0.25,95,200.0
2382,B2,422.0,0.25,95,200.0
2383,A2,422.25,0.25,95,200.0
2384,A2,422.5,0.25,95,200.0
2385,A2,422.75,0.25,95,200.0
2386,G2,423.0,0.25,95,200.0
2387,G2,423.25,0.25,95,200.0
2388,F2,423.5,0.25,95,200.0
2389,F2,423.75,0.25,95,200.0
2390,E1,424.0,0.5,95,200.0
2391,B-2,424.0,0.5,95,200.0
2392,C2,424.0,0.5,95,200.0
2393,B4,424.5,4.0,95,200.0
2394,E1,424.5,0.5,95,200.0
2395,E1,425.0,1.0,95,200.0
2396,B3,425.0,1.5,95,200.0
2397,E3,425.0,1.5,95,200.0
2398,B-2,425.0,0.5,95,200.0
2399,D2,425.0,0.5,95,200.0
2400,E1,426.0,0.5,95,200.0
2401,B-2,426.0,0.5,95,200.0
2402,C2,426.0,0.5,95,200.0
2403,E1,426.5,0.5,95,200.0
2404,A3,426.5,1.5,95,200.0
2405,D3,426.5,1.5,95,200.0
2406,E1,427.0,1.0,95,200.0
2407,B-2,427.0,0.5,95,200.0
2408,D2,427.0,0.5,95,200.0
2409,E1,428.0,0.5,95,200.0
2410,G3,428.0,1.0,95,200.0
2411,C3,428.0,1.0,95,200.0
2412,B-2,428.0,0.5,95,200.0
2413,C2,428.0,0.5,95,200.0
2414,E1,428.5,0.5,95,200.0
2415,E1,429.0,1.0,95,200.0
2416,B3,429.0,4.0,95,200.0
2417,F#3,429.0,4.0,95,200.0
2418,B2,429.0,4.0,95,200.0
2419,B-2,429.0,0.5,95,200.0
2420,D2,429.0,0.5,95,200.0
2421,E1,430.0,0.5,95,200.0
2422,B-2,430.0,0.5,95,200.0
2423,C2,430.0,0.5,95,200.0
2424,E1,430.5,0.5,95,200.0
2425,E1,431.0,1.0,95,200.0
2426,B-2,431.0,0.5,95,200.0
2427,D2,431.0,0.5,95,200.0
2428,D2,432.0,0.5,95,200.0
2429,B-2,432.0,0.5,95,200.0
2430,C2,432.0,0.5,95,200.0
2431,D5,432.5,0.5,95,200.0
2432,D2,432.5,0.5,95,200.0
2433,E5,433.0,0.5,95,200.0
2434,D2,433.0,1.0,95,200.0
2435,G4,433.0,4.0,95,200.0
2436,D4,433.0,4.0,95,200.0
2437,G3,433.0,4.0,95,200.0
2438,B-2,433.0,0.5,95,200.0
2439,D2,433.0,0.5,95,200.0
2440,E5,433.5,0.5,95,200.0
2441,G5,434.0,0.25,95,200.0
2442,D2,434.0,0.5,95,200.0
2443,B-2,434.0,0.5,95,200.0
2444,C2,434.0,0.5,95,200.0
2445,E5,434.25,0.25,95,200.0
2446,D5,434.5,0.25,95,200.0
2447,D2,434.5,0.5,95,200.0
2448,C#5,434.75,0.25,95,200.0
2449,B4,435.0,0.25,95,200.0
2450,D2,435.0,1.0,95,200.0
2451,B-2,435.0,0.5,95,200.0
2452,D2,435.0,0.5,95,200.0
2453,A4,435.25,0.25,95,200.0
2454,G4,435.5,0.25,95,200.0
2455,F#4,435.75,0.25,95,200.0
2456,E4,436.0,0.25,95,200.0
2457,D2,436.0,0.5,95,200.0
2458,B-2,436.0,0.5,95,200.0
2459,C2,436.0,0.5,95,200.0
2460,D4,436.25,0.25,95,200.0
2461,C#4,436.5,0.25,95,200.0
2462,D2,436.5,0.5,95,200.0
2463,B3,436.75,0.25,95,200.0
2464,A3,437.0,0.25,95,200.0
2465,D2,437.0,1.0,95,200.0
2466,A3,437.0,4.0,95,200.0
2467,E3,437.0,4.0,95,200.0
2468,A2,437.0,4.0,95,200.0
2469,B-2,437.0,0.5,95,200.0
2470,D2,437.0,0.5,95,200.0
2471,G#3,437.25,0.25,95,200.0
2472,G3,437.5,0.25,95,200.0
2473,E3,437.75,0.25,95,200.0
2474,E3,438.0,0.5,95,200.0
2475,D2,438.0,0.5,95,200.0
2476,B-2,438.0,0.5,95,200.0
2477,C2,438.0,0.5,95,200.0
2478,D3,438.5,0.5,95,200.0
2479,D2,438.5,0.5,95,200.0
2480,B2,439.0,0.5,95,200.0
2481,D2,439.0,1.0,95,200.0
2482,B-2,439.0,0.5,95,200.0
2483,D2,439.0,0.5,95,200.0
2484,A2,439.5,1.0,95,200.0
2485,E2,440.0,0.5,95,200.0
2486,B-2,440.0,0.5,95,200.0
2487,C2,440.0,0.5,95,200.0
2488,D5,440.5,333/1000,95,200.0
2489,E2,440.5,0.5,95,200.0
2490,D5,440.833,333/1000,95,200.0
2491,E2,441.0,1.0,95,200.0
2492,B-2,441.0,0.5,95,200.0
2493,D2,441.0,0.5,95,200.0
2494,B4,441.167,333/1000,95,200.0
2495,D5,441.5,333/1000,95,200.0
2496,D5,441.833,333/1000,95,200.0
2497,E2,442.0,0.5,95,200.0
2498,B-2,442.0,0.5,95,200.0
2499,C2,442.0,0.5,95,200.0
2500,B4,442.167,333/1000,95,200.0
2501,D5,442.5,333/1000,95,200.0
2502,E2,442.5,0.5,95,200.0
2503,D5,442.833,333/1000,95,200.0
2504,E2,443.0,1.0,95,200.0
2505,B-2,443.0,0.5,95,200.0
2506,D2,443.0,0.5,95,200.0
2507,B4,443.167,333/1000,95,200.0
2508,D5,443.5,333/1000,95,200.0
2509,D5,443.833,333/1000,95,200.0
2510,E2,444.0,0.5,95,200.0
2511,B-2,444.0,0.5,95,200.0
2512,C2,444.0,0.5,95,200.0
2513,B4,444.167,333/1000,95,200.0
2514,G5,444.5,333/1000,95,200.0
2515,E2,444.5,0.5,95,200.0
2516,F#5,444.833,333/1000,95,200.0
2517,E2,445.0,1.0,95,200.0
2518,A3,445.0,4.0,95,200.0
2519,E3,445.0,4.0,95,200.0
2520,A2,445.0,4.0,95,200.0
2521,B-2,445.0,0.5,95,200.0
2522,D2,445.0,0.5,95,200.0
2523,E5,445.167,333/1000,70,200.0
2524,G5,445.5,333/1000,95,200.0
2525,F#5,445.833,333/1000,95,200.0
2526,E2,446.0,0.5,95,200.0
2527,B-2,446.0,0.5,95,200.0
2528,C2,446.0,0.5,95,200.0
2529,E5,446.167,333/1000,70,200.0
2530,G5,446.5,333/1000,95,200.0
2531,E2,446.5,0.5,95,200.0
2532,F#5,446.833,333/1000,95,200.0
2533,E2,447.0,1.0,95,200.0
2534,B-2,447.0,0.5,95,200.0
2535,D2,447.0,0.5,95,200.0
2536,E5,447.167,333/1000,70,200.0
2537,G5,447.5,333/1000,95,200.0
2538,F#5,447.833,333/1000,95,200.0
2539,D2,448.0,0.5,95,200.0
2540,B-2,448.0,0.5,95,200.0
2541,C2,448.0,0.5,95,200.0
2542,E5,448.167,333/1000,70,200.0
2543,E5,448.5,333/1000,95,200.0
2544,D2,448.5,0.5,95,200.0
2545,D5,448.833,333/1000,95,200.0
2546,E2,449.0,0.5,95,200.0
2547,D2,449.0,0.5,95,200.0
2548,B-2,449.0,0.5,95,200.0
2549,D2,449.0,0.5,95,200.0
2550,B4,449.167,333/1000,70,200.0
2551,E5,449.5,333/1000,95,200.0
2552,E2,449.5,0.5,95,200.0
2553,D2,449.5,0.5,95,200.0
2554,D5,449.833,333/1000,95,200.0
2555,D2,450.0,0.5,95,200.0
2556,B3,450.0,1.0,95,200.0
2557,E3,450.0,1.0,95,200.0
2558,E2,450.0,1.0,95,200.0
2559,B-2,450.0,0.5,95,200.0
2560,C2,450.0,0.5,95,200.0
2561,B4,450.167,333/1000,70,200.0
2562,E5,450.5,333/1000,95,200.0
2563,D2,450.5,0.5,95,200.0
2564,D5,450.833,333/1000,95,200.0
2565,E2,451.0,0.5,95,200.0
2566,D2,451.0,0.5,95,200.0
2567,B-2,451.0,0.5,95,200.0
2568,D2,451.0,0.5,95,200.0
2569,B4,451.167,333/1000,70,200.0
2570,E5,451.5,333/1000,95,200.0
2571,E2,451.5,0.5,95,200.0
2572,D2,451.5,0.5,95,200.0
2573,D5,451.833,333/1000,95,200.0
2574,D2,452.0,0.5,95,200.0
2575,D2,452.0,0.25,95,200.0
2576,B3,452.0,1.0,95,200.0
2577,E3,452.0,1.0,95,200.0
2578,E2,452.0,1.0,95,200.0
2579,B4,452.167,333/1000,70,200.0
2580,D2,452.25,0.25,95,200.0
2581,C5,452.5,333/1000,95,200.0
2582,D2,452.5,1.0,95,200.0
2583,D2,452.5,0.25,95,200.0
2584,C3,452.75,0.25,95,200.0
2585,A4,452.833,333/1000,95,200.0
2586,E2,453.0,0.5,95,200.0
2587,C3,453.0,0.25,95,200.0
2588,G4,453.167,333/1000,70,200.0
2589,C3,453.25,0.25,95,200.0
2590,C5,453.5,333/1000,95,200.0
2591,E2,453.5,0.5,95,200.0
2592,D2,453.5,0.5,95,200.0
2593,C3,453.5,0.25,95,200.0
2594,B2,453.75,0.25,95,200.0
2595,A4,453.833,333/1000,95,200.0
2596,D2,454.0,1.0,95,200.0
2597,B2,454.0,0.25,95,200.0
2598,B3,454.0,1.0,95,200.0
2599,E3,454.0,1.0,95,200.0
2600,E2,454.0,1.0,95,200.0
2601,G4,454.167,333/1000,70,200.0
2602,A2,454.25,0.25,95,200.0
2603,C5,454.5,333/1000,95,200.0
2604,A2,454.5,0.25,95,200.0
2605,A2,454.75,0.25,95,200.0
2606,A4,454.833,333/1000,95,200.0
2607,E2,455.0,0.5,95,200.0
2608,D2,455.0,1.0,95,200.0
2609,G2,455.0,0.25,95,200.0
2610,G4,455.167,333/1000,70,200.0
2611,G2,455.25,0.25,95,200.0
2612,C5,455.5,333/1000,95,200.0
2613,E2,455.5,0.5,95,200.0
2614,F2,455.5,0.25,95,200.0
2615,F2,455.75,0.25,95,200.0
2616,A4,455.833,333/1000,95,200.0
2617,E2,456.0,1.0,95,200.0
2618,B3,456.0,1.0,95,200.0
2619,E3,456.0,1.0,95,200.0
2620,E2,456.0,1.0,95,200.0
2621,B-2,456.0,0.5,95,200.0
2622,C2,456.0,0.5,95,200.0
2623,G4,456.167,333/1000,70,200.0
2624,C5,456.625,0.25,95,200.0
2625,B4,456.875,83/1000,95,200.0
2626,C5,456.958,83/1000,70,200.0
2627,D3,457.0,0.5,95,200.0
2628,E2,457.0,0.5,95,200.0
2629,B-2,457.0,0.5,95,200.0
2630,D2,457.0,0.5,95,200.0
2631,B4,457.042,83/1000,70,200.0
2632,A4,457.125,0.25,95,200.0
2633,B4,457.375,0.125,95,200.0
2634,B4,457.5,3.0,95,200.0
2635,D3,457.5,0.5,95,200.0
2636,E2,457.5,0.5,95,200.0
2637,E2,458.0,0.5,95,200.0
2638,A3,458.0,1.0,95,200.0
2639,D3,458.0,1.0,95,200.0
2640,B-2,458.0,0.5,95,200.0
2641,C2,458.0,0.5,95,200.0
2642,E2,458.5,0.5,95,200.0
2643,D3,459.0,0.5,95,200.0
2644,E2,459.0,0.5,95,200.0
2645,B-2,459.0,0.5,95,200.0
2646,D2,459.0,0.5,95,200.0
2647,D3,459.5,0.5,95,200.0
2648,E2,459.5,0.5,95,200.0
2649,E2,460.0,0.5,95,200.0
2650,D2,460.0,0.25,95,200.0
2651,A3,460.0,1.0,95,200.0
2652,D3,460.0,1.0,95,200.0
2653,D2,460.25,0.25,95,200.0
2654,E2,460.5,0.5,95,200.0
2655,D2,460.5,0.25,95,200.0
2656,C3,460.75,0.25,95,200.0
2657,D3,461.0,0.5,95,200.0
2658,E2,461.0,0.5,95,200.0
2659,C3,461.0,0.25,95,200.0
2660,C3,461.25,0.25,95,200.0
2661,D3,461.5,0.5,95,200.0
2662,C3,461.5,1.0,95,200.0
2663,C3,461.5,0.25,95,200.0
2664,B2,461.75,0.25,95,200.0
2665,B2,462.0,0.25,95,200.0
2666,A3,462.0,1.0,95,200.0
2667,D3,462.0,1.0,95,200.0
2668,A2,462.25,0.25,95,200.0
2669,B2,462.5,0.5,95,200.0
2670,A2,462.5,0.25,95,200.0
2671,A2,462.75,0.25,95,200.0
2672,D3,463.0,0.5,95,200.0
2673,A2,463.0,0.5,95,200.0
2674,G2,463.0,0.25,95,200.0
2675,G2,463.25,0.25,95,200.0
2676,D3,463.5,0.5,95,200.0
2677,G2,463.5,0.5,95,200.0
2678,F2,463.5,0.25,95,200.0
2679,F2,463.75,0.25,95,200.0
2680,E2,464.0,1.0,95,200.0
2681,A3,464.0,1.0,95,200.0
2682,D3,464.0,1.0,95,200.0
2683,B-2,464.0,0.5,95,200.0
2684,C2,464.0,0.5,95,200.0
2685,E3,465.0,0.5,95,200.0
2686,E2,465.0,0.5,95,200.0
2687,B-2,465.0,0.5,95,200.0
2688,D2,465.0,0.5,95,200.0
2689,E3,465.5,0.5,95,200.0
2690,E2,465.5,0.5,95,200.0
2691,E2,466.0,0.5,95,200.0
2692,B3,466.0,1.0,95,200.0
2693,E3,466.0,1.0,95,200.0
2694,B-2,466.0,0.5,95,200.0
2695,C2,466.0,0.5,95,200.0
2696,E2,466.5,0.5,95,200.0
2697,E3,467.0,0.5,95,200.0
2698,E2,467.0,0.5,95,200.0
2699,B-2,467.0,0.5,95,200.0
2700,D2,467.0,0.5,95,200.0
2701,E3,467.5,0.5,95,200.0
2702,E2,467.5,0.5,95,200.0
2703,E2,468.0,0.5,95,200.0
2704,D2,468.0,0.25,95,200.0
2705,B3,468.0,1.0,95,200.0
2706,E3,468.0,1.0,95,200.0
2707,D2,468.25,0.25,95,200.0
2708,E2,468.5,0.5,95,200.0
2709,D2,468.5,0.25,95,200.0
2710,C3,468.75,0.25,95,200.0
2711,E3,469.0,0.5,95,200.0
2712,E2,469.0,0.5,95,200.0
2713,C3,469.0,0.25,95,200.0
2714,C3,469.25,0.25,95,200.0
2715,E3,469.5,0.5,95,200.0
2716,C3,469.5,1.0,95,200.0
2717,C3,469.5,0.25,95,200.0
2718,B2,469.75,0.25,95,200.0
2719,B2,470.0,0.25,95,200.0
2720,B3,470.0,1.0,95,200.0
2721,E3,470.0,1.0,95,200.0
2722,A2,470.25,0.25,95,200.0
2723,B2,470.5,0.5,95,200.0
2724,A2,470.5,0.25,95,200.0
2725,A2,470.75,0.25,95,200.0
2726,E3,471.0,0.5,95,200.0
2727,A2,471.0,0.5,95,200.0
2728,G2,471.0,0.25,95,200.0
2729,G2,471.25,0.25,95,200.0
2730,E3,471.5,0.5,95,200.0
2731,G2,471.5,0.5,95,200.0
2732,F2,471.5,0.25,95,200.0
2733,F2,471.75,0.25,95,200.0
2734,E2,472.0,1.0,95,200.0
2735,B3,472.0,1.0,95,200.0
2736,E3,472.0,1.0,95,200.0
2737,B-2,472.0,0.5,95,200.0
2738,C2,472.0,0.5,95,200.0
2739,E4,472.5,1.0,95,200.0
2740,B3,472.5,1.0,95,200.0
2741,E3,472.5,1.0,95,200.0
2742,D3,473.0,0.5,95,200.0
2743,E2,473.0,0.5,95,200.0
2744,B-2,473.0,0.5,95,200.0
2745,D2,473.0,0.5,95,200.0
2746,E3,473.5,0.5,95,200.0
2747,D3,473.5,0.5,95,200.0
2748,E2,473.5,0.5,95,200.0
2749,E3,474.0,0.5,95,200.0
2750,E2,474.0,0.5,95,200.0
2751,A3,474.0,1.0,95,200.0
2752,D3,474.0,1.0,95,200.0
2753,B-2,474.0,0.5,95,200.0
2754,C2,474.0,0.5,95,200.0
2755,E3,474.5,0.5,95,200.0
2756,E2,474.5,0.5,95,200.0
2757,D3,475.0,0.5,95,200.0
2758,E2,475.0,0.5,95,200.0
2759,B3,475.0,0.5,95,200.0
2760,E3,475.0,0.5,95,200.0
2761,B-2,475.0,0.5,95,200.0
2762,D2,475.0,0.5,95,200.0
2763,E3,475.5,0.5,95,200.0
2764,D3,475.5,0.5,95,200.0
2765,E2,475.5,0.5,95,200.0
2766,E3,476.0,0.5,95,200.0
2767,E2,476.0,0.5,95,200.0
2768,D2,476.0,0.25,95,200.0
2769,A3,476.0,1.0,95,200.0
2770,D3,476.0,1.0,95,200.0
2771,D2,476.25,0.25,95,200.0
2772,E2,476.5,0.5,95,200.0
2773,D2,476.5,0.25,95,200.0
2774,B3,476.5,0.5,95,200.0
2775,E3,476.5,0.5,95,200.0
2776,C3,476.75,0.25,95,200.0
2777,E3,477.0,0.5,95,200.0
2778,E2,477.0,0.5,95,200.0
2779,C3,477.0,0.25,95,200.0
2780,C3,477.25,0.25,95,200.0
2781,E3,477.5,0.5,95,200.0
2782,C3,477.5,1.0,95,200.0
2783,C3,477.5,0.25,95,200.0
2784,A3,477.5,0.5,95,200.0
2785,D3,477.5,0.5,95,200.0
2786,B2,477.75,0.25,95,200.0
2787,C4,478.0,1.0,95,200.0
2788,B2,478.0,0.25,95,200.0
2789,A3,478.0,1.0,95,200.0
2790,D3,478.0,1.0,95,200.0
2791,A2,478.25,0.25,95,200.0
2792,B2,478.5,0.5,95,200.0
2793,A2,478.5,0.25,95,200.0
2794,A2,478.75,0.25,95,200.0
2795,B3,479.0,0.5,95,200.0
2796,D3,479.0,0.5,95,200.0
2797,A2,479.0,0.5,95,200.0
2798,G2,479.0,0.25,95,200.0
2799,G2,479.25,0.25,95,200.0
2800,A3,479.5,0.5,95,200.0
2801,G2,479.5,0.5,95,200.0
2802,F2,479.5,0.25,95,200.0
2803,A3,479.5,1.0,95,200.0
2804,D3,479.5,1.0,95,200.0
2805,F2,479.75,0.25,95,200.0
2806,G3,480.0,0.5,95,200.0
2807,E2,480.0,1.0,95,200.0
2808,B-2,480.0,0.5,95,200.0
2809,C2,480.0,0.5,95,200.0
2810,E4,480.5,1.0,95,200.0
2811,B3,480.5,1.0,95,200.0
2812,E3,480.5,1.0,95,200.0
2813,A3,480.5,1.0,95,200.0
2814,D3,480.5,1.0,95,200.0
2815,E2,481.0,0.5,95,200.0
2816,B-2,481.0,0.5,95,200.0
2817,D2,481.0,0.5,95,200.0
2818,E3,481.5,0.5,95,200.0
2819,E2,481.5,0.5,95,200.0
2820,E4,481.5,1.0,95,200.0
2821,B3,481.5,1.0,95,200.0
2822,E3,481.5,1.0,95,200.0
2823,E3,482.0,0.5,95,200.0
2824,E2,482.0,0.5,95,200.0
2825,B-2,482.0,0.5,95,200.0
2826,C2,482.0,0.5,95,200.0
2827,E3,482.5,0.5,95,200.0
2828,E3,482.5,0.5,95,200.0
2829,E2,482.5,0.5,95,200.0
2830,E3,483.0,0.5,95,200.0
2831,E2,483.0,0.5,95,200.0
2832,B3,483.0,0.5,95,200.0
2833,E3,483.0,0.5,95,200.0
2834,B-2,483.0,0.5,95,200.0
2835,D2,483.0,0.5,95,200.0
2836,E3,483.5,0.5,95,200.0
2837,E3,483.5,0.5,95,200.0
2838,E2,483.5,0.5,95,200.0
2839,E3,484.0,0.5,95,200.0
2840,E2,484.0,0.5,95,200.0
2841,D2,484.0,0.25,95,200.0
2842,B3,484.0,0.5,95,200.0
2843,E3,484.0,0.5,95,200.0
2844,D2,484.25,0.25,95,200.0
2845,E3,484.5,0.5,95,200.0
2846,E2,484.5,0.5,95,200.0
2847,D2,484.5,0.25,95,200.0
2848,B3,484.5,0.5,95,200.0
2849,E3,484.5,0.5,95,200.0
2850,C3,484.75,0.25,95,200.0
2851,E3,485.0,0.5,95,200.0
2852,E3,485.0,0.5,95,200.0
2853,E2,485.0,0.5,95,200.0
2854,C3,485.0,0.25,95,200.0
2855,C3,485.25,0.25,95,200.0
2856,E3,485.5,0.5,95,200.0
2857,C3,485.5,1.0,95,200.0
2858,C3,485.5,0.25,95,200.0
2859,B3,485.5,0.5,95,200.0
2860,E3,485.5,0.5,95,200.0
2861,B2,485.75,0.25,95,200.0
2862,C4,486.0,1.0,95,200.0
2863,E3,486.0,0.5,95,200.0
2864,B2,486.0,0.25,95,200.0
2865,A2,486.25,0.25,95,200.0
2866,E3,486.5,0.5,95,200.0
2867,B2,486.5,0.5,95,200.0
2868,A2,486.5,0.25,95,200.0
2869,A2,486.75,0.25,95,200.0
2870,B3,487.0,0.5,95,200.0
2871,C4,487.0,1.0,95,200.0
2872,A2,487.0,0.5,95,200.0
2873,G2,487.0,0.25,95,200.0
2874,G2,487.25,0.25,95,200.0
2875,A3,487.5,0.5,95,200.0
2876,G2,487.5,0.5,95,200.0
2877,F2,487.5,0.25,95,200.0
2878,F2,487.75,0.25,95,200.0
2879,G3,488.0,0.5,95,200.0
2880,B3,488.0,0.5,95,200.0
2881,B1,488.0,1.0,95,200.0
2882,A3,488.0,0.5,95,200.0
2883,B1,488.0,0.5,95,200.0
2884,B3,488.5,1.5,95,200.0
2885,A3,488.5,0.5,95,200.0
2886,F#2,488.5,0.5,95,200.0
2887,G3,489.0,0.5,95,200.0
2888,B1,489.0,1.0,95,200.0
2889,F#2,489.0,0.5,95,200.0
2890,F#2,489.5,0.5,95,200.0
2891,E4,489.5,1.0,95,200.0
2892,B3,489.5,1.0,95,200.0
2893,E3,489.5,1.0,95,200.0
2894,E4,490.0,1.5,95,200.0
2895,B1,490.0,1.0,95,200.0
2896,F#2,490.0,0.5,95,200.0
2897,D2,490.0,0.5,95,200.0
2898,E3,490.5,0.5,95,200.0
2899,F#2,490.5,0.5,95,200.0
2900,E3,491.0,0.5,95,200.0
2901,B1,491.0,1.0,95,200.0
2902,F#2,491.0,0.5,95,200.0
2903,F#4,491.5,1.0,95,200.0
2904,E3,491.5,0.5,95,200.0
2905,F#2,491.5,0.5,95,200.0
2906,G1,492.0,1.0,95,200.0
2907,B3,492.0,0.5,95,200.0
2908,E3,492.0,0.5,95,200.0
2909,F#2,492.0,0.5,95,200.0
2910,B1,492.0,0.5,95,200.0
2911,G4,492.5,4.0,95,200.0
2912,E3,492.5,0.5,95,200.0
2913,F#2,492.5,0.5,95,200.0
2914,E3,493.0,0.5,95,200.0
2915,G1,493.0,1.0,95,200.0
2916,F#2,493.0,0.5,95,200.0
2917,F#2,493.5,0.5,95,200.0
2918,B3,493.5,0.5,95,200.0
2919,E3,493.5,0.5,95,200.0
2920,E3,494.0,0.5,95,200.0
2921,G1,494.0,1.0,95,200.0
2922,F#2,494.0,0.5,95,200.0
2923,D2,494.0,0.5,95,200.0
2924,E3,494.5,0.5,95,200.0
2925,F#2,494.5,0.5,95,200.0
2926,C4,495.0,1.0,95,200.0
2927,G1,495.0,1.0,95,200.0
2928,F#2,495.0,0.5,95,200.0
2929,F#2,495.5,0.5,95,200.0
2930,B3,496.0,0.5,95,200.0
2931,A1,496.0,1.0,95,200.0
2932,A3,496.0,0.5,95,200.0
2933,B1,496.0,0.5,95,200.0
2934,A4,496.5,1.5,95,200.0
2935,A3,496.5,0.5,95,200.0
2936,F#2,496.5,0.5,95,200.0
2937,G3,497.0,0.5,95,200.0
2938,A1,497.0,1.0,95,200.0
2939,F#2,497.0,0.5,95,200.0
2940,F#2,497.5,0.5,95,200.0
2941,E4,497.5,1.0,95,200.0
2942,B3,497.5,1.0,95,200.0
2943,E3,497.5,1.0,95,200.0
2944,G4,498.0,1.5,95,200.0
2945,A1,498.0,1.0,95,200.0
2946,F#2,498.0,0.5,95,200.0
2947,D2,498.0,0.5,95,200.0
2948,E3,498.5,0.5,95,200.0
2949,F#2,498.5,0.5,95,200.0
2950,E3,499.0,0.5,95,200.0
2951,A1,499.0,1.0,95,200.0
2952,F#2,499.0,0.5,95,200.0
2953,F#4,499.5,1.0,95,200.0
2954,E3,499.5,0.5,95,200.0
2955,F#2,499.5,0.5,95,200.0
2956,E2,500.0,1.5,95,200.0
2957,B3,500.0,0.5,95,200.0
2958,E3,500.0,0.5,95,200.0
2959,C#3,500.0,1.5,95,200.0
2960,C2,500.0,1.5,95,200.0
2961,G4,500.5,1.5,95,200.0
2962,E3,500.5,0.5,95,200.0
2963,E3,501.0,0.5,95,200.0
2964,D2,501.5,1.5,95,200.0
2965,B3,501.5,0.5,95,200.0
2966,E3,501.5,0.5,95,200.0
2967,C#3,501.5,1.5,95,200.0
2968,D2,501.5,1.5,95,200.0
2969,F#4,502.0,1.5,95,200.0
2970,E3,502.0,0.5,95,200.0
2971,E3,502.5,0.5,95,200.0
2972,C4,503.0,1.0,95,200.0
2973,C2,503.0,1.0,95,200.0
2974,C#3,503.0,1.0,95,200.0
2975,C2,503.0,1.0,95,200.0
2976,E4,503.5,1.0,95,200.0
2977,B3,504.0,0.5,95,200.0
2978,B1,504.0,1.0,95,200.0
2979,A3,504.0,0.5,95,200.0
2980,B1,504.0,0.5,95,200.0
2981,B3,504.5,1.5,95,200.0
2982,A3,504.5,0.5,95,200.0
2983,F#2,504.5,0.5,95,200.0
2984,G3,505.0,0.5,95,200.0
2985,B1,505.0,1.0,95,200.0
2986,F#2,505.0,0.5,95,200.0
2987,F#2,505.5,0.5,95,200.0
2988,E4,505.5,1.0,95,200.0
2989,B3,505.5,1.0,95,200.0
2990,E3,505.5,1.0,95,200.0
2991,E4,506.0,1.5,95,200.0
2992,B1,506.0,1.0,95,200.0
2993,F#2,506.0,0.5,95,200.0
2994,D2,506.0,0.5,95,200.0
2995,E3,506.5,0.5,95,200.0
2996,F#2,506.5,0.5,95,200.0
2997,E3,507.0,0.5,95,200.0
2998,B1,507.0,1.0,95,200.0
2999,F#2,507.0,0.5,95,200.0
3000,F#4,507.5,1.0,95,200.0
3001,E3,507.5,0.5,95,200.0
3002,F#2,507.5,0.5,95,200.0
3003,G1,508.0,1.0,95,200.0
3004,B3,508.0,0.5,95,200.0
3005,E3,508.0,0.5,95,200.0
3006,F#2,508.0,0.5,95,200.0
3007,B1,508.0,0.5,95,200.0
3008,G4,508.5,4.0,95,200.0
3009,E3,508.5,0.5,95,200.0
3010,F#2,508.5,0.5,95,200.0
3011,E3,509.0,0.5,95,200.0
3012,G1,509.0,1.0,95,200.0
3013,F#2,509.0,0.5,95,200.0
3014,F#2,509.5,0.5,95,200.0
3015,B3,509.5,0.5,95,200.0
3016,E3,509.5,0.5,95,200.0
3017,E3,510.0,0.5,95,200.0
3018,G1,510.0,1.0,95,200.0
3019,F#2,510.0,0.5,95,200.0
3020,D2,510.0,0.5,95,200.0
3021,E3,510.5,0.5,95,200.0
3022,F#2,510.5,0.5,95,200.0
3023,C4,511.0,1.0,95,200.0
3024,G1,511.0,1.0,95,200.0
3025,F#2,511.0,0.5,95,200.0
3026,F#2,511.5,0.5,95,200.0
3027,B3,512.0,0.5,95,200.0
3028,A1,512.0,1.5,95,200.0
3029,F#2,512.0,0.5,95,200.0
3030,B1,512.0,0.5,95,200.0
3031,A4,512.5,1.5,95,200.0
3032,A3,512.5,0.5,95,200.0
3033,F#2,512.5,0.5,95,200.0
3034,G3,513.0,0.5,95,200.0
3035,F#2,513.0,0.5,95,200.0
3036,A1,513.5,1.5,95,200.0
3037,F#2,513.5,0.5,95,200.0
3038,B3,513.5,4.0,95,200.0
3039,F#3,513.5,4.0,95,200.0
3040,B2,513.5,4.0,95,200.0
3041,B4,514.0,1.5,95,200.0
3042,F#2,514.0,0.5,95,200.0
3043,D2,514.0,0.5,95,200.0
3044,F#2,514.5,0.5,95,200.0
3045,A1,515.0,1.0,95,200.0
3046,F#2,515.0,0.5,95,200.0
3047,C5,515.5,1.0,95,200.0
3048,F#2,515.5,0.5,95,200.0
3049,A1,516.0,4.0,95,200.0
3050,F#2,516.0,0.5,95,200.0
3051,B1,516.0,0.5,95,200.0
3052,B4,516.5,4.0,95,200.0
3053,F#2,516.5,0.5,95,200.0
3054,F#2,517.0,0.5,95,200.0
3055,F#2,517.5,0.5,95,200.0
3056,G4,517.5,4.0,95,200.0
3057,D4,517.5,4.0,95,200.0
3058,G3,517.5,4.0,95,200.0
3059,F#2,518.0,0.5,95,200.0
3060,D2,518.0,0.5,95,200.0
3061,F#2,518.5,0.5,95,200.0
3062,F#2,519.0,0.5,95,200.0
3063,F#2,519.5,0.5,95,200.0
3064,B1,520.0,1.0,95,200.0
3065,A3,520.0,0.5,95,200.0
3066,B1,520.0,0.5,95,200.0
3067,B3,520.5,1.5,95,200.0
3068,F#2,520.5,0.5,95,200.0
3069,B1,521.0,1.0,95,200.0
3070,F#2,521.0,0.5,95,200.0
3071,F#2,521.5,0.5,95,200.0
3072,A3,521.5,4.0,95,200.0
3073,E3,521.5,4.0,95,200.0
3074,A2,521.5,4.0,95,200.0
3075,E4,522.0,1.5,95,200.0
3076,B1,522.0,1.0,95,200.0
3077,F#2,522.0,0.5,95,200.0
3078,D2,522.0,0.5,95,200.0
3079,F#2,522.5,0.5,95,200.0
3080,B1,523.0,1.0,95,200.0
3081,F#2,523.0,0.5,95,200.0
3082,F#4,523.5,1.0,95,200.0
3083,F#2,523.5,0.5,95,200.0
3084,G1,524.0,1.0,95,200.0
3085,F#2,524.0,0.5,95,200.0
3086,B1,524.0,0.5,95,200.0
3087,G4,524.5,4.0,95,200.0
3088,F#2,524.5,0.5,95,200.0
3089,G1,525.0,1.0,95,200.0
3090,F#2,525.0,0.5,95,200.0
3091,F#2,525.5,0.5,95,200.0
3092,B3,525.5,1.5,95,200.0
3093,E3,525.5,1.5,95,200.0
3094,G1,526.0,1.0,95,200.0
3095,F#2,526.0,0.5,95,200.0
3096,D2,526.0,0.5,95,200.0
3097,F#2,526.5,0.5,95,200.0
3098,G1,527.0,1.0,95,200.0
3099,F#2,527.0,0.5,95,200.0
3100,A3,527.0,1.5,95,200.0
3101,D3,527.0,1.5,95,200.0
3102,F#2,527.5,0.5,95,200.0
3103,A1,528.0,1.0,95,200.0
3104,A3,528.0,0.5,95,200.0
3105,B1,528.0,0.5,95,200.0
3106,A4,528.5,1.5,95,200.0
3107,F#2,528.5,0.5,95,200.0
3108,G3,528.5,1.0,95,200.0
3109,C3,528.5,1.0,95,200.0
3110,A1,529.0,1.0,95,200.0
3111,F#2,529.0,0.5,95,200.0
3112,F#2,529.5,0.5,95,200.0
3113,B3,529.5,4.0,95,200.0
3114,F#3,529.5,4.0,95,200.0
3115,B2,529.5,4.0,95,200.0
3116,G4,530.0,1.5,95,200.0
3117,A1,530.0,1.0,95,200.0
3118,F#2,530.0,0.5,95,200.0
3119,D2,530.0,0.5,95,200.0
3120,F#2,530.5,0.5,95,200.0
3121,A1,531.0,1.0,95,200.0
3122,F#2,531.0,0.5,95,200.0
3123,F#4,531.5,1.0,95,200.0
3124,F#2,531.5,0.5,95,200.0
3125,E2,532.0,1.5,95,200.0
3126,C#3,532.0,1.5,95,200.0
3127,C2,532.0,1.5,95,200.0
3128,G4,532.5,1.5,95,200.0
3129,D2,533.5,1.5,95,200.0
3130,G4,533.5,4.0,95,200.0
3131,D4,533.5,4.0,95,200.0
3132,G3,533.5,4.0,95,200.0
3133,C#3,533.5,1.5,95,200.0
3134,D2,533.5,1.5,95,200.0
3135,F#4,534.0,1.5,95,200.0
3136,C2,535.0,1.0,95,200.0
3137,C#3,535.0,1.0,95,200.0
3138,C2,535.0,1.0,95,200.0
3139,E4,535.5,1.0,95,200.0
3140,B1,536.0,1.0,95,200.0
3141,A3,536.0,0.5,95,200.0
3142,B1,536.0,0.5,95,200.0
3143,B3,536.5,1.5,95,200.0
3144,F#2,536.5,0.5,95,200.0
3145,B1,537.0,1.0,95,200.0
3146,F#2,537.0,0.5,95,200.0
3147,F#2,537.5,0.5,95,200.0
3148,A3,537.5,4.0,95,200.0
3149,E3,537.5,4.0,95,200.0
3150,A2,537.5,4.0,95,200.0
3151,E4,538.0,1.5,95,200.0
3152,B1,538.0,1.0,95,200.0
3153,F#2,538.0,0.5,95,200.0
3154,D2,538.0,0.5,95,200.0
3155,F#2,538.5,0.5,95,200.0
3156,B1,539.0,1.0,95,200.0
3157,F#2,539.0,0.5,95,200.0
3158,F#4,539.5,1.0,95,200.0
3159,F#2,539.5,0.5,95,200.0
3160,G1,540.0,1.0,95,200.0
3161,F#2,540.0,0.5,95,200.0
3162,B1,540.0,0.5,95,200.0
3163,G4,540.5,4.0,95,200.0
3164,F#2,540.5,0.5,95,200.0
3165,G1,541.0,1.0,95,200.0
3166,F#2,541.0,0.5,95,200.0
3167,F#2,541.5,0.5,95,200.0
3168,G1,542.0,1.0,95,200.0
3169,F#2,542.0,0.5,95,200.0
3170,D2,542.0,0.5,95,200.0
3171,F#2,542.5,0.5,95,200.0
3172,G1,543.0,1.0,95,200.0
3173,F#2,543.0,0.5,95,200.0
3174,F#2,543.5,0.5,95,200.0
3175,A1,544.0,1.5,95,200.0
3176,F#2,544.0,0.5,95,200.0
3177,B1,544.0,0.5,95,200.0
3178,A4,544.5,1.5,95,200.0
3179,F#2,544.5,0.5,95,200.0
3180,F#2,545.0,0.5,95,200.0
3181,A1,545.5,1.5,95,200.0
3182,F#2,545.5,0.5,95,200.0
3183,A3,545.5,4.0,95,200.0
3184,E3,545.5,4.0,95,200.0
3185,A2,545.5,4.0,95,200.0
3186,B4,546.0,1.5,95,200.0
3187,F#2,546.0,0.5,95,200.0
3188,D2,546.0,0.5,95,200.0
3189,F#2,546.5,0.5,95,200.0
3190,A1,547.0,1.0,95,200.0
3191,F#2,547.0,0.5,95,200.0
3192,C5,547.5,1.0,95,200.0
3193,F#2,547.5,0.5,95,200.0
3194,A1,548.0,4.0,95,200.0
3195,D2,548.0,0.25,95,200.0
3196,D2,548.25,0.25,95,200.0
3197,B4,548.5,4.0,95,200.0
3198,D2,548.5,0.25,95,200.0
3199,C3,548.75,0.25,95,200.0
3200,C3,549.0,0.25,95,200.0
3201,C3,549.25,0.25,95,200.0
3202,C3,549.5,0.25,95,200.0
3203,B3,549.5,4.0,95,200.0
3204,F#3,549.5,4.0,95,200.0
3205,B2,549.5,4.0,95,200.0
3206,B2,549.75,0.25,95,200.0
3207,B2,550.0,0.25,95,200.0
3208,A2,550.25,0.25,95,200.0
3209,A2,550.5,0.25,95,200.0
3210,A2,550.75,0.25,95,200.0
3211,G2,551.0,0.25,95,200.0
3212,G2,551.25,0.25,95,200.0
3213,F2,551.5,0.25,95,200.0
3214,F2,551.75,0.25,95,200.0
3215,B1,552.0,1.0,95,200.0
3216,F#2,552.0,2.0,95,200.0
3217,D2,552.0,2.0,95,200.0
3218,C2,552.0,2.0,95,200.0
3219,C#3,552.0,2.0,95,200.0
3220,B3,552.5,1.5,95,200.0
3221,B1,553.0,1.0,95,200.0
3222,G4,553.5,4.0,95,200.0
3223,D4,553.5,4.0,95,200.0
3224,G3,553.5,4.0,95,200.0
3225,E4,554.0,1.5,95,200.0
3226,B1,554.0,1.0,95,200.0
3227,F#2,554.0,2.0,95,200.0
3228,D2,554.0,2.0,95,200.0
3229,C2,554.0,2.0,95,200.0
3230,B1,555.0,1.0,95,200.0
3231,F#4,555.5,1.0,95,200.0
3232,G1,556.0,1.0,95,200.0
3233,F#2,556.0,2.0,95,200.0
3234,D2,556.0,2.0,95,200.0
3235,C2,556.0,2.0,95,200.0
3236,G4,556.5,4.0,95,200.0
3237,G1,557.0,1.0,95,200.0
3238,A3,557.5,4.0,95,200.0
3239,E3,557.5,4.0,95,200.0
3240,A2,557.5,4.0,95,200.0
3241,G1,558.0,1.0,95,200.0
3242,F#2,558.0,2.0,95,200.0
3243,D2,558.0,2.0,95,200.0
3244,C2,558.0,2.0,95,200.0
3245,G1,559.0,1.0,95,200.0
3246,A1,560.0,1.0,95,200.0
3247,F#2,560.0,2.0,95,200.0
3248,D2,560.0,2.0,95,200.0
3249,C2,560.0,2.0,95,200.0
3250,A4,560.5,1.5,95,200.0
3251,A1,561.0,1.0,95,200.0
3252,B3,561.5,1.5,95,200.0
3253,E3,561.5,1.5,95,200.0
3254,G4,562.0,1.5,95,200.0
3255,A1,562.0,1.0,95,200.0
3256,F#2,562.0,2.0,95,200.0
3257,D2,562.0,2.0,95,200.0
3258,C2,562.0,2.0,95,200.0
3259,A1,563.0,1.0,95,200.0
3260,A3,563.0,1.5,95,200.0
3261,D3,563.0,1.5,95,200.0
3262,F#4,563.5,1.0,95,200.0
3263,E2,564.0,1.5,95,200.0
3264,F#2,564.0,2.0,95,200.0
3265,D2,564.0,2.0,95,200.0
3266,C2,564.0,2.0,95,200.0
3267,G4,564.5,1.5,95,200.0
3268,G3,564.5,1.0,95,200.0
3269,C3,564.5,1.0,95,200.0
3270,D2,565.5,1.5,95,200.0
3271,B3,565.5,4.0,95,200.0
3272,F#3,565.5,4.0,95,200.0
3273,B2,565.5,4.0,95,200.0
3274,F#4,566.0,1.5,95,200.0
3275,F#2,566.0,2.0,95,200.0
3276,D2,566.0,2.0,95,200.0
3277,C2,566.0,2.0,95,200.0
3278,C2,567.0,1.0,95,200.0
3279,E4,567.5,1.0,95,200.0
3280,B1,568.0,1.0,95,200.0
3281,F#2,568.0,2.0,95,200.0
3282,D2,568.0,2.0,95,200.0
3283,C2,568.0,2.0,95,200.0
3284,B3,568.5,1.5,95,200.0
3285,B1,569.0,1.0,95,200.0
3286,G4,569.5,4.0,95,200.0
3287,D4,569.5,4.0,95,200.0
3288,G3,569.5,4.0,95,200.0
3289,E4,570.0,1.5,95,200.0
3290,B1,570.0,1.0,95,200.0
3291,F#2,570.0,2.0,95,200.0
3292,D2,570.0,2.0,95,200.0
3293,C2,570.0,2.0,95,200.0
3294,B1,571.0,1.0,95,200.0
3295,F#4,571.5,1.0,95,200.0
3296,G1,572.0,1.0,95,200.0
3297,F#2,572.0,2.0,95,200.0
3298,D2,572.0,2.0,95,200.0
3299,C2,572.0,2.0,95,200.0
3300,G4,572.5,4.0,95,200.0
3301,G1,573.0,1.0,95,200.0
3302,A3,573.5,4.0,95,200.0
3303,E3,573.5,4.0,95,200.0
3304,A2,573.5,4.0,95,200.0
3305,G1,574.0,1.0,95,200.0
3306,F#2,574.0,2.0,95,200.0
3307,D2,574.0,2.0,95,200.0
3308,C2,574.0,2.0,95,200.0
3309,G1,575.0,1.0,95,200.0
3310,A1,576.0,1.5,95,200.0
3311,F#2,576.0,2.0,95,200.0
3312,D2,576.0,2.0,95,200.0
3313,C2,576.0,2.0,95,200.0
3314,A4,576.5,1.5,95,200.0
3315,A1,577.5,1.5,95,200.0
3316,B4,578.0,1.5,95,200.0
3317,F#2,578.0,2.0,95,200.0
3318,D2,578.0,2.0,95,200.0
3319,C2,578.0,2.0,95,200.0
3320,A1,579.0,1.0,95,200.0
3321,C5,579.5,1.0,95,200.0
3322,A1,580.0,4.0,95,200.0
3323,D2,580.0,0.25,95,200.0
3324,D2,580.25,0.25,95,200.0
3325,B4,580.5,4.0,95,200.0
3326,D2,580.5,0.25,95,200.0
3327,C3,580.75,0.25,95,200.0
3328,C3,581.0,0.25,95,200.0
3329,C3,581.25,0.25,95,200.0
3330,C3,581.5,0.25,95,200.0
3331,A3,581.5,4.0,95,200.0
3332,E3,581.5,4.0,95,200.0
3333,A2,581.5,4.0,95,200.0
3334,B2,581.75,0.25,95,200.0
3335,B2,582.0,0.25,95,200.0
3336,A2,582.25,0.25,95,200.0
3337,A2,582.5,0.25,95,200.0
3338,A2,582.75,0.25,95,200.0
3339,G2,583.0,0.25,95,200.0
3340,G2,583.25,0.25,95,200.0
3341,F2,583.5,0.25,95,200.0
3342,F2,583.75,0.25,95,200.0
3343,B1,584.0,1.0,95,200.0
3344,G#2,584.0,2.0,95,200.0
3345,D2,584.0,2.0,95,200.0
3346,C2,584.0,2.0,95,200.0
3347,C#3,584.0,2.0,95,200.0
3348,B3,584.5,1.5,95,200.0
3349,B1,585.0,1.0,95,200.0
3350,B3,585.5,4.0,95,200.0
3351,F#3,585.5,4.0,95,200.0
3352,B2,585.5,4.0,95,200.0
3353,E4,586.0,1.5,95,200.0
3354,B1,586.0,1.0,95,200.0
3355,G#2,586.0,2.0,95,200.0
3356,D2,586.0,2.0,95,200.0
3357,C2,586.0,2.0,95,200.0
3358,C#3,586.0,2.0,95,200.0
3359,B1,587.0,1.0,95,200.0
3360,F#4,587.5,1.0,95,200.0
3361,G1,588.0,1.0,95,200.0
3362,G#2,588.0,2.0,95,200.0
3363,D2,588.0,2.0,95,200.0
3364,C2,588.0,2.0,95,200.0
3365,C#3,588.0,2.0,95,200.0
3366,G4,588.5,4.0,95,200.0
3367,G1,589.0,1.0,95,200.0
3368,G4,589.5,4.0,95,200.0
3369,D4,589.5,4.0,95,200.0
3370,G3,589.5,4.0,95,200.0
3371,G1,590.0,1.0,95,200.0
3372,G#2,590.0,2.0,95,200.0
3373,D2,590.0,2.0,95,200.0
3374,C2,590.0,2.0,95,200.0
3375,C#3,590.0,2.0,95,200.0
3376,G1,591.0,1.0,95,200.0
3377,A1,592.0,1.0,95,200.0
3378,G#2,592.0,2.0,95,200.0
3379,D2,592.0,2.0,95,200.0
3380,C2,592.0,2.0,95,200.0
3381,C#3,592.0,2.0,95,200.0
3382,A4,592.5,1.5,95,200.0
3383,A1,593.0,1.0,95,200.0
3384,A3,593.5,4.0,95,200.0
3385,E3,593.5,4.0,95,200.0
3386,A2,593.5,4.0,95,200.0
3387,G4,594.0,1.5,95,200.0
3388,A1,594.0,1.0,95,200.0
3389,G#2,594.0,2.0,95,200.0
3390,D2,594.0,2.0,95,200.0
3391,C2,594.0,2.0,95,200.0
3392,C#3,594.0,2.0,95,200.0
3393,A1,595.0,1.0,95,200.0
3394,F#4,595.5,1.0,95,200.0
3395,E2,596.0,1.5,95,200.0
3396,G#2,596.0,2.0,95,200.0
3397,D2,596.0,2.0,95,200.0
3398,C2,596.0,2.0,95,200.0
3399,C#3,596.0,2.0,95,200.0
3400,G4,596.5,1.5,95,200.0
3401,D2,597.5,1.5,95,200.0
3402,B3,597.5,1.5,95,200.0
3403,E3,597.5,1.5,95,200.0
3404,F#4,598.0,1.5,95,200.0
3405,G#2,598.0,2.0,95,200.0
3406,D2,598.0,2.0,95,200.0
3407,C2,598.0,2.0,95,200.0
3408,C#3,598.0,2.0,95,200.0
3409,C2,599.0,1.0,95,200.0
3410,A3,599.0,1.5,95,200.0
3411,D3,599.0,1.5,95,200.0
3412,E4,599.5,1.0,95,200.0
3413,B1,600.0,1.0,95,200.0
3414,G#2,600.0,2.0,95,200.0
3415,D2,600.0,2.0,95,200.0
3416,C2,600.0,2.0,95,200.0
3417,C#3,600.0,2.0,95,200.0
3418,B3,600.5,1.5,95,200.0
3419,G3,600.5,1.0,95,200.0
3420,C3,600.5,1.0,95,200.0
3421,B1,601.0,1.0,95,200.0
3422,B3,601.5,4.0,95,200.0
3423,F#3,601.5,4.0,95,200.0
3424,B2,601.5,4.0,95,200.0
3425,E4,602.0,1.5,95,200.0
3426,B1,602.0,1.0,95,200.0
3427,G#2,602.0,2.0,95,200.0
3428,D2,602.0,2.0,95,200.0
3429,C2,602.0,2.0,95,200.0
3430,C#3,602.0,2.0,95,200.0
3431,B1,603.0,1.0,95,200.0
3432,F#4,603.5,1.0,95,200.0
3433,G1,604.0,1.0,95,200.0
3434,G#2,604.0,2.0,95,200.0
3435,D2,604.0,2.0,95,200.0
3436,C2,604.0,2.0,95,200.0
3437,C#3,604.0,2.0,95,200.0
3438,G4,604.5,4.0,95,200.0
3439,G1,605.0,1.0,95,200.0
3440,G4,605.5,4.0,95,200.0
3441,D4,605.5,4.0,95,200.0
3442,G3,605.5,4.0,95,200.0
3443,G1,606.0,1.0,95,200.0
3444,G#2,606.0,2.0,95,200.0
3445,D2,606.0,2.0,95,200.0
3446,C2,606.0,2.0,95,200.0
3447,C#3,606.0,2.0,95,200.0
3448,G1,607.0,1.0,95,200.0
3449,A1,608.0,1.5,95,200.0
3450,G#2,608.0,2.0,95,200.0
3451,D2,608.0,2.0,95,200.0
3452,C2,608.0,2.0,95,200.0
3453,C#3,608.0,2.0,95,200.0
3454,A4,608.5,1.5,95,200.0
3455,A1,609.5,1.5,95,200.0
3456,A3,609.5,4.0,95,200.0
3457,E3,609.5,4.0,95,200.0
3458,A2,609.5,4.0,95,200.0
3459,B4,610.0,1.5,95,200.0
3460,G#2,610.0,2.0,95,200.0
3461,D2,610.0,2.0,95,200.0
3462,C2,610.0,2.0,95,200.0
3463,C#3,610.0,2.0,95,200.0
3464,A1,611.0,1.0,95,200.0
3465,C5,611.5,1.0,95,200.0
3466,D2,612.0,0.25,95,200.0
3467,D2,612.25,0.25,95,200.0
3468,B4,612.5,4.0,95,200.0
3469,D2,612.5,0.25,95,200.0
3470,C3,612.75,0.25,95,200.0
3471,C3,613.0,0.25,95,200.0
3472,C3,613.25,0.25,95,200.0
3473,C3,613.5,0.25,95,200.0
3474,B2,613.75,0.25,95,200.0
3475,B2,614.0,0.25,95,200.0
3476,A2,614.25,0.25,95,200.0
3477,A2,614.5,0.25,95,200.0
3478,A2,614.75,0.25,95,200.0
3479,G2,615.0,0.25,95,200.0
3480,G2,615.25,0.25,95,200.0
3481,F2,615.5,0.25,95,200.0
3482,F2,615.75,0.25,95,200.0
3483,E1,616.0,4.0,95,200.0
3484,G#2,616.0,4.0,95,200.0
3485,C2,616.0,4.0,95,200.0
3486,D2,616.0,4.0,95,200.0
3487,C#3,616.0,4.0,95,200.0
3488,B3,616.5,4.0,95,200.0
3489,E3,616.5,4.0,95,200.0
3490,E2,616.5,4.0,95,200.0
3491,A3,617.5,4.0,95,200.0
3492,E3,617.5,4.0,95,200.0
3493,A2,617.5,4.0,95,200.0
3494,E1,620.0,4.0,95,200.0
3495,B3,621.5,4.0,95,200.0
3496,F#3,621.5,4.0,95,200.0
3497,B2,621.5,4.0,95,200.0
3498,G#2,624.0,4.0,95,200.0
3499,C2,624.0,4.0,95,200.0
3500,D2,624.0,4.0,95,200.0
3501,C#3,624.0,4.0,95,200.0
3502,B3,624.5,4.0,95,200.0
3503,E3,624.5,4.0,95,200.0
3504,E2,624.5,4.0,95,200.0
3505,G4,625.5,4.0,95,200.0
3506,D4,625.5,4.0,95,200.0
3507,G3,625.5,4.0,95,200.0
3508,A3,629.5,4.0,95,200.0
3509,E3,629.5,4.0,95,200.0
3510,A2,629.5,4.0,95,200.0
3511,B3,633.5,1.5,95,200.0
3512,E3,633.5,1.5,95,200.0
3513,A3,635.0,1.5,95,200.0
3514,D3,635.0,1.5,95,200.0
3515,G3,636.5,1.0,95,200.0
3516,C3,636.5,1.0,95,200.0
3517,B3,637.5,4.0,95,200.0
3518,F#3,637.5,4.0,95,200.0
3519,B2,637.5,4.0,95,200.0
3520,G4,641.5,4.0,95,200.0
3521,D4,641.5,4.0,95,200.0
3522,G3,641.5,4.0,95,200.0
3523,A3,645.5,4.0,95,200.0
3524,E3,645.5,4.0,95,200.0
3525,A2,645.5,4.0,95,200.0
3526,A3,653.5,4.0,95,200.0
3527,E3,653.5,4.0,95,200.0
3528,A2,653.5,4.0,95,200.0
3529,B3,657.5,4.0,95,200.0
3530,E3,657.5,4.0,95,200.0
3531,E2,657.5,4.0,95,200.0
3532,B3,665.5,4.0,95,200.0
3533,E3,665.5,4.0,95,200.0
3534,E2,665.5,4.0,95,200.0
