,note_name,start_time,duration,velocity,tempo
0,C3,0.0,4.0,54,100.0
1,C4,0.0,4.0,54,100.0
2,E-3,0.25,0.25,74,100.0
3,E3,0.5,0.5,85,100.0
4,B-3,0.5,0.5,85,100.0
5,E-4,0.5,0.5,85,100.0
6,E-3,1.0,0.25,75,100.0
7,E3,1.25,0.5,86,100.0
8,B-3,1.25,0.5,86,100.0
9,E-4,1.25,0.5,86,100.0
10,E-3,1.75,0.25,75,100.0
11,E3,2.0,0.5,86,100.0
12,B-3,2.0,0.5,86,100.0
13,E-4,2.0,0.5,86,100.0
14,E-3,2.5,0.25,75,100.0
15,E3,2.75,0.5,85,100.0
16,B-3,2.75,0.5,85,100.0
17,E-4,2.75,0.5,85,100.0
18,E-3,3.25,0.25,75,100.0
19,E-4,3.5,0.5,85,100.0
20,B-3,3.5,0.5,85,100.0
21,E3,3.5,0.5,85,100.0
22,C3,4.0,4.0,72,100.0
23,C4,4.0,4.0,72,100.0
24,E-3,4.25,0.25,73,100.0
25,E3,4.5,0.5,82,100.0
26,B-3,4.5,0.5,82,100.0
27,E-4,4.5,0.5,82,100.0
28,F3,5.0,0.75,94,100.0
29,B3,5.0,0.75,94,100.0
30,E4,5.0,0.75,94,100.0
31,E-3,5.75,0.25,85,100.0
32,E3,6.0,0.5,85,100.0
33,E-4,6.0,0.5,85,100.0
34,B-3,6.0,0.5,85,100.0
35,E-3,6.5,0.25,75,100.0
36,E-4,6.75,0.5,85,100.0
37,E3,6.75,0.5,85,100.0
38,B-3,6.75,0.5,85,100.0
39,E-3,7.25,0.25,74,100.0
40,E3,7.5,0.5,85,100.0
41,E-4,7.5,0.5,85,100.0
42,B-3,7.5,0.5,85,100.0
43,E-3,8.0,0.5,64,100.0
44,C2,8.0,1.0,64,100.0
45,C4,8.0,1599/500,83,100.0
46,C3,8.0,1599/500,83,100.0
47,E-3,8.25,0.25,75,100.0
48,G#2,8.5,0.25,64,100.0
49,E-4,8.5,0.5,85,100.0
50,B-3,8.5,0.5,85,100.0
51,E3,8.5,0.5,85,100.0
52,G#2,8.75,0.25,64,100.0
53,E-3,9.0,0.25,75,100.0
54,G#2,9.0,0.5,64,100.0
55,E-4,9.25,0.5,85,100.0
56,B-3,9.25,0.5,85,100.0
57,E3,9.25,0.5,85,100.0
58,G#2,9.5,0.25,64,100.0
59,E-3,9.75,0.25,75,100.0
60,G#2,9.75,0.25,64,100.0
61,G#2,10.0,0.5,64,100.0
62,E-4,10.0,0.5,84,100.0
63,B-3,10.0,0.5,84,100.0
64,E3,10.0,0.5,84,100.0
65,E-3,10.5,0.25,77,100.0
66,G#2,10.5,0.25,64,100.0
67,G#2,10.75,0.25,64,100.0
68,E-4,10.75,0.5,86,100.0
69,B-3,10.75,0.5,86,100.0
70,E3,10.75,0.5,86,100.0
71,G#2,11.0,0.5,64,100.0
72,E-3,11.25,0.25,78,100.0
73,F3,11.25,0.25,83,100.0
74,G3,11.5,0.25,83,100.0
75,G#2,11.5,0.25,64,100.0
76,E3,11.5,0.5,84,100.0
77,B-3,11.5,0.5,84,100.0
78,E-4,11.5,0.5,84,100.0
79,B-3,11.75,0.25,86,100.0
80,G#2,11.75,0.25,64,100.0
81,E-3,12.0,0.5,64,100.0
82,C2,12.0,1.0,64,100.0
83,C3,12.0,1741/500,88,100.0
84,C4,12.0,1741/500,88,100.0
85,E-3,12.25,0.25,76,100.0
86,G#2,12.5,0.25,64,100.0
87,E-4,12.5,0.5,85,100.0
88,B-3,12.5,0.5,85,100.0
89,E3,12.5,0.5,85,100.0
90,G#2,12.75,0.25,64,100.0
91,E-3,13.0,0.25,75,100.0
92,G#2,13.0,0.5,64,100.0
93,E-4,13.25,0.5,85,100.0
94,B-3,13.25,0.5,85,100.0
95,E3,13.25,0.5,85,100.0
96,G#2,13.5,0.25,64,100.0
97,E-3,13.75,0.25,75,100.0
98,G#2,13.75,0.25,64,100.0
99,G#2,14.0,0.5,64,100.0
100,E-4,14.0,0.5,83,100.0
101,B-3,14.0,0.5,83,100.0
102,E3,14.0,0.5,83,100.0
103,E-3,14.5,0.25,75,100.0
104,G#2,14.5,0.25,64,100.0
105,G#2,14.75,0.25,64,100.0
106,E-4,14.75,0.5,84,100.0
107,B-3,14.75,0.5,84,100.0
108,E3,14.75,0.5,84,100.0
109,G#2,15.0,0.5,64,100.0
110,E-3,15.25,0.25,78,100.0
111,G3,15.5,0.25,80,100.0
112,G#2,15.5,0.25,64,100.0
113,E-4,15.5,0.5,82,100.0
114,B-3,15.5,0.5,82,100.0
115,E3,15.5,0.5,82,100.0
116,C4,15.75,0.25,83,100.0
117,G#2,15.75,0.25,64,100.0
118,A1,16.0,0.5,96,100.0
119,E-3,16.0,0.5,64,100.0
120,C2,16.0,1.0,64,100.0
121,G#2,16.5,0.25,64,100.0
122,G#2,16.75,0.25,64,100.0
123,E4,17.0,0.5,60,100.0
124,E4,17.0,0.5,101,100.0
125,G#2,17.0,0.5,64,100.0
126,A3,17.0,0.25,75,100.0
127,C4,17.0,0.25,75,100.0
128,E4,17.0,0.25,75,100.0
129,A4,17.0,0.25,75,100.0
130,C4,17.0,0.25,73,100.0
131,E4,17.0,0.25,73,100.0
132,A5,17.0,0.25,62,100.0
133,C5,17.0,0.25,62,100.0
134,E5,17.0,0.25,62,100.0
135,A4,17.0,0.25,62,100.0
136,A3,17.25,0.25,75,100.0
137,C4,17.25,0.25,75,100.0
138,E4,17.25,0.25,75,100.0
139,A4,17.25,0.25,75,100.0
140,C4,17.25,0.5,72,100.0
141,E4,17.25,0.5,72,100.0
142,A5,17.25,0.25,64,100.0
143,C5,17.25,0.25,64,100.0
144,E5,17.25,0.25,64,100.0
145,A4,17.25,0.25,64,100.0
146,E4,17.5,0.25,64,100.0
147,E2,17.5,0.25,88,100.0
148,E4,17.5,0.25,101,100.0
149,G#2,17.5,0.25,64,100.0
150,F4,17.75,0.5,68,100.0
151,A1,17.75,0.25,80,100.0
152,F4,17.75,0.5,104,100.0
153,G#2,17.75,0.25,64,100.0
154,D4,17.75,0.75,72,100.0
155,F4,17.75,0.75,72,100.0
156,A1,18.0,0.25,72,100.0
157,G#2,18.0,0.5,64,100.0
158,E4,18.25,0.5,72,100.0
159,E4,18.25,0.5,104,100.0
160,G#2,18.5,0.25,64,100.0
161,C4,18.5,0.5,73,100.0
162,E4,18.5,0.5,73,100.0
163,E4,18.75,0.5,72,100.0
164,E4,18.75,0.5,104,100.0
165,G#2,18.75,0.25,64,100.0
166,G#2,19.0,0.5,64,100.0
167,A3,19.0,0.25,65,100.0
168,C4,19.0,0.25,65,100.0
169,E4,19.0,0.25,65,100.0
170,A4,19.0,0.25,65,100.0
171,B3,19.0,0.5,73,100.0
172,D4,19.0,0.5,73,100.0
173,E5,19.0,0.25,64,100.0
174,C5,19.0,0.25,64,100.0
175,A4,19.0,0.25,64,100.0
176,A5,19.0,0.25,64,100.0
177,E4,19.25,0.5,67,100.0
178,E4,19.25,0.5,103,100.0
179,A3,19.25,0.25,60,100.0
180,C4,19.25,0.25,60,100.0
181,E4,19.25,0.25,60,100.0
182,A4,19.25,0.25,60,100.0
183,A5,19.25,0.25,65,100.0
184,E5,19.25,0.25,65,100.0
185,C5,19.25,0.25,65,100.0
186,A4,19.25,0.25,65,100.0
187,A1,19.5,0.5,84,100.0
188,G#2,19.5,0.25,64,100.0
189,E4,19.5,0.5,75,100.0
190,C4,19.5,0.5,75,100.0
191,E4,19.75,0.25,67,100.0
192,E4,19.75,0.25,102,100.0
193,G#2,19.75,0.25,64,100.0
194,E4,20.0,0.25,67,100.0
195,G1,20.0,0.5,84,100.0
196,E4,20.0,0.25,102,100.0
197,E-3,20.0,0.5,76,100.0
198,C2,20.0,1.0,88,100.0
199,D4,20.25,0.5,68,100.0
200,D4,20.25,0.5,101,100.0
201,B3,20.75,0.5,68,100.0
202,B3,20.75,0.5,101,100.0
203,D2,20.75,0.125,76,100.0
204,D2,20.875,0.125,75,100.0
205,D2,21.0,0.25,74,100.0
206,G3,21.0,0.25,77,100.0
207,B3,21.0,0.25,77,100.0
208,D4,21.0,0.25,77,100.0
209,G4,21.0,0.25,77,100.0
210,B3,21.0,0.25,75,100.0
211,D4,21.0,0.25,75,100.0
212,G5,21.0,0.25,66,100.0
213,D5,21.0,0.25,66,100.0
214,B4,21.0,0.25,66,100.0
215,G4,21.0,0.25,66,100.0
216,A3,21.25,0.25,70,100.0
217,D2,21.25,0.25,68,100.0
218,A3,21.25,0.25,102,100.0
219,D2,21.25,0.5,70,100.0
220,G3,21.25,0.25,73,100.0
221,B3,21.25,0.25,73,100.0
222,D4,21.25,0.25,73,100.0
223,G4,21.25,0.25,73,100.0
224,C4,21.25,0.5,75,100.0
225,E4,21.25,0.5,75,100.0
226,D5,21.25,0.25,68,100.0
227,B4,21.25,0.25,68,100.0
228,G5,21.25,0.25,68,100.0
229,G4,21.25,0.25,68,100.0
230,B3,21.5,0.5,72,100.0
231,G1,21.5,0.25,68,100.0
232,B3,21.5,0.5,101,100.0
233,G1,21.75,0.25,68,100.0
234,C3,21.75,0.25,72,100.0
235,F4,21.75,0.75,76,100.0
236,D4,21.75,0.75,76,100.0
237,C3,22.0,0.25,80,100.0
238,C3,22.25,0.5,84,100.0
239,C4,22.5,0.5,78,100.0
240,E4,22.5,0.5,78,100.0
241,A2,22.75,0.5,84,100.0
242,G3,23.0,0.25,72,100.0
243,B3,23.0,0.25,72,100.0
244,D4,23.0,0.25,72,100.0
245,G4,23.0,0.25,72,100.0
246,B3,23.0,0.5,78,100.0
247,D4,23.0,0.5,78,100.0
248,D5,23.0,0.25,66,100.0
249,G4,23.0,0.25,66,100.0
250,G5,23.0,0.25,66,100.0
251,B4,23.0,0.25,66,100.0
252,A2,23.25,0.25,92,100.0
253,G3,23.25,0.25,77,100.0
254,B3,23.25,0.25,77,100.0
255,D4,23.25,0.25,77,100.0
256,G4,23.25,0.25,77,100.0
257,G5,23.25,0.25,70,100.0
258,D5,23.25,0.25,70,100.0
259,B4,23.25,0.25,70,100.0
260,G4,23.25,0.25,70,100.0
261,E4,23.5,0.5,64,100.0
262,G1,23.5,0.5,68,100.0
263,E4,23.5,0.5,99,100.0
264,A2,23.5,0.5,88,100.0
265,E4,23.5,0.5,79,100.0
266,C4,23.5,0.5,79,100.0
267,D4,24.0,0.5,67,100.0
268,F1,24.0,0.5,84,100.0
269,D4,24.0,0.5,99,100.0
270,C2,24.0,1.0,80,100.0
271,G#2,24.0,0.5,84,100.0
272,C4,24.5,0.25,69,100.0
273,C4,24.5,0.25,99,100.0
274,G#2,24.5,0.5,96,100.0
275,A3,24.75,0.5,68,100.0
276,A3,24.75,0.5,99,100.0
277,D4,25.0,0.25,74,100.0
278,G4,25.0,0.25,74,100.0
279,C5,25.0,0.25,74,100.0
280,A3,25.0,0.25,74,100.0
281,D4,25.0,0.25,74,100.0
282,G4,25.0,0.25,74,100.0
283,C6,25.0,0.25,68,100.0
284,D5,25.0,0.25,68,100.0
285,G5,25.0,0.25,68,100.0
286,D2,25.0,0.5,84,100.0
287,G#2,25.0,0.5,84,100.0
288,G3,25.25,0.25,68,100.0
289,C2,25.25,0.25,80,100.0
290,G3,25.25,0.25,99,100.0
291,D4,25.25,0.25,77,100.0
292,G4,25.25,0.25,77,100.0
293,C5,25.25,0.25,77,100.0
294,A3,25.25,0.25,75,100.0
295,D4,25.25,0.25,75,100.0
296,G4,25.25,0.25,75,100.0
297,C6,25.25,0.25,71,100.0
298,G5,25.25,0.25,71,100.0
299,D5,25.25,0.25,71,100.0
300,A3,25.5,0.5,64,100.0
301,F1,25.5,0.25,76,100.0
302,A3,25.5,0.5,99,100.0
303,G#2,25.5,0.25,80,100.0
304,F1,25.75,0.25,80,100.0
305,G#2,25.75,0.25,88,100.0
306,G#2,26.0,0.5,104,100.0
307,G#2,26.5,0.5,96,100.0
308,A3,27.0,0.25,64,100.0
309,A3,27.0,0.25,99,100.0
310,D4,27.0,0.25,79,100.0
311,G4,27.0,0.25,79,100.0
312,C5,27.0,0.25,79,100.0
313,G4,27.0,1.0,71,100.0
314,A3,27.0,1.0,71,100.0
315,D4,27.0,1.0,71,100.0
316,C6,27.0,0.25,69,100.0
317,D5,27.0,0.25,69,100.0
318,G5,27.0,0.25,69,100.0
319,D2,27.0,0.5,88,100.0
320,G#2,27.0,0.5,88,100.0
321,C4,27.25,0.25,68,100.0
322,C4,27.25,0.25,99,100.0
323,D4,27.25,0.25,76,100.0
324,G4,27.25,0.25,76,100.0
325,C5,27.25,0.25,76,100.0
326,C6,27.25,0.25,69,100.0
327,D5,27.25,0.25,69,100.0
328,G5,27.25,0.25,69,100.0
329,D4,27.5,0.25,64,100.0
330,F1,27.5,0.5,88,100.0
331,D4,27.5,0.25,99,100.0
332,G#2,27.5,0.25,72,100.0
333,E4,27.75,0.25,65,100.0
334,E4,27.75,0.25,99,100.0
335,G#2,27.75,0.25,76,100.0
336,E4,28.0,0.5,65,100.0
337,B-1,28.0,0.5,100,100.0
338,E4,28.0,0.5,99,100.0
339,C2,28.0,1.0,80,100.0
340,G#2,28.0,0.5,84,100.0
341,F4,28.5,0.25,67,100.0
342,F4,28.5,0.25,100,100.0
343,G#2,28.5,0.5,96,100.0
344,D4,28.75,154/125,68,100.0
345,D4,28.75,154/125,100,100.0
346,D4,29.0,0.25,82,100.0
347,G4,29.0,0.25,82,100.0
348,C5,29.0,0.25,82,100.0
349,G#3,29.0,0.25,71,100.0
350,D4,29.0,0.25,71,100.0
351,G4,29.0,0.25,71,100.0
352,D5,29.0,0.25,69,100.0
353,C6,29.0,0.25,69,100.0
354,G5,29.0,0.25,69,100.0
355,D2,29.0,0.5,84,100.0
356,G#2,29.0,0.5,84,100.0
357,G#2,29.25,0.25,92,100.0
358,D4,29.25,0.25,82,100.0
359,G4,29.25,0.25,82,100.0
360,C5,29.25,0.25,82,100.0
361,D4,29.25,0.25,71,100.0
362,G4,29.25,0.25,71,100.0
363,G#3,29.25,0.25,71,100.0
364,D5,29.25,0.25,67,100.0
365,C6,29.25,0.25,67,100.0
366,G5,29.25,0.25,67,100.0
367,F2,29.5,0.25,85,100.0
368,G#2,29.5,0.25,80,100.0
369,B-1,29.75,0.25,88,100.0
370,G#2,29.75,0.25,88,100.0
371,G#3,29.75,0.25,70,100.0
372,D4,29.75,0.25,70,100.0
373,G4,29.75,0.25,70,100.0
374,G#2,30.0,0.5,104,100.0
375,G#3,30.25,0.25,69,100.0
376,D4,30.25,0.25,69,100.0
377,G4,30.25,0.25,69,100.0
378,G#2,30.5,0.5,96,100.0
379,D4,30.5,0.25,82,100.0
380,G4,30.5,0.25,82,100.0
381,C5,30.5,0.25,82,100.0
382,C6,30.5,0.25,67,100.0
383,D5,30.5,0.25,67,100.0
384,G5,30.5,0.25,67,100.0
385,D4,30.75,0.25,76,100.0
386,G4,30.75,0.25,76,100.0
387,C5,30.75,0.25,76,100.0
388,C6,30.75,0.25,68,100.0
389,D5,30.75,0.25,68,100.0
390,G5,30.75,0.25,68,100.0
391,D4,31.0,0.25,79,100.0
392,G4,31.0,0.25,79,100.0
393,C5,31.0,0.25,79,100.0
394,G#3,31.0,0.5,69,100.0
395,D4,31.0,0.5,69,100.0
396,G4,31.0,0.5,69,100.0
397,D5,31.0,0.25,68,100.0
398,C6,31.0,0.25,68,100.0
399,G5,31.0,0.25,68,100.0
400,D2,31.0,0.5,88,100.0
401,G#2,31.0,0.5,88,100.0
402,D4,31.25,0.25,78,100.0
403,G4,31.25,0.25,78,100.0
404,C5,31.25,0.25,78,100.0
405,D5,31.25,0.25,67,100.0
406,C6,31.25,0.25,67,100.0
407,G5,31.25,0.25,67,100.0
408,B-1,31.5,0.5,80,100.0
409,G#2,31.5,0.25,72,100.0
410,D4,31.5,0.25,81,100.0
411,G4,31.5,0.25,81,100.0
412,C5,31.5,0.25,81,100.0
413,D4,31.5,0.5,68,100.0
414,G4,31.5,0.5,68,100.0
415,G#3,31.5,0.5,68,100.0
416,C6,31.5,0.25,67,100.0
417,D5,31.5,0.25,67,100.0
418,G5,31.5,0.25,67,100.0
419,G#2,31.75,0.25,76,100.0
420,D4,31.75,0.25,81,100.0
421,G4,31.75,0.25,81,100.0
422,C5,31.75,0.25,81,100.0
423,C6,31.75,0.25,65,100.0
424,D5,31.75,0.25,65,100.0
425,G5,31.75,0.25,65,100.0
426,A1,32.0,0.5,96,100.0
427,C2,32.0,1.0,80,100.0
428,G#2,32.0,0.5,84,100.0
429,G#2,32.5,0.5,96,100.0
430,E4,33.0,0.25,58,100.0
431,E4,33.0,0.25,105,100.0
432,A3,33.0,0.25,70,100.0
433,C4,33.0,0.25,70,100.0
434,E4,33.0,0.25,70,100.0
435,A4,33.0,0.25,70,100.0
436,C4,33.0,0.25,68,100.0
437,E4,33.0,0.25,68,100.0
438,E5,33.0,0.25,65,100.0
439,C5,33.0,0.25,65,100.0
440,A5,33.0,0.25,65,100.0
441,A4,33.0,0.25,65,100.0
442,D2,33.0,0.5,84,100.0
443,G#2,33.0,0.5,84,100.0
444,E4,33.25,0.5,58,100.0
445,E4,33.25,0.5,102,100.0
446,A3,33.25,0.25,69,100.0
447,C4,33.25,0.25,69,100.0
448,E4,33.25,0.25,69,100.0
449,A4,33.25,0.25,69,100.0
450,C4,33.25,0.5,68,100.0
451,E4,33.25,0.5,68,100.0
452,A5,33.25,0.25,59,100.0
453,C5,33.25,0.25,59,100.0
454,E5,33.25,0.25,59,100.0
455,A4,33.25,0.25,59,100.0
456,E2,33.5,0.25,88,100.0
457,G#2,33.5,0.25,80,100.0
458,F4,33.75,0.75,60,100.0
459,A1,33.75,0.25,80,100.0
460,F4,33.75,0.75,100,100.0
461,G#2,33.75,0.25,88,100.0
462,F4,33.75,0.75,68,100.0
463,D4,33.75,0.75,68,100.0
464,A1,34.0,0.25,72,100.0
465,G#2,34.0,0.5,104,100.0
466,E4,34.5,0.5,60,100.0
467,E4,34.5,0.5,98,100.0
468,G#2,34.5,0.5,96,100.0
469,C4,34.5,0.5,67,100.0
470,E4,34.5,0.5,67,100.0
471,E4,35.0,0.5,64,100.0
472,E4,35.0,0.5,95,100.0
473,A3,35.0,0.25,66,100.0
474,C4,35.0,0.25,66,100.0
475,E4,35.0,0.25,66,100.0
476,A4,35.0,0.25,66,100.0
477,B3,35.0,0.5,67,100.0
478,D4,35.0,0.5,67,100.0
479,C5,35.0,0.25,59,100.0
480,E5,35.0,0.25,59,100.0
481,A4,35.0,0.25,59,100.0
482,A5,35.0,0.25,59,100.0
483,D2,35.0,0.5,88,100.0
484,G#2,35.0,0.5,88,100.0
485,A3,35.25,0.25,68,100.0
486,C4,35.25,0.25,68,100.0
487,E4,35.25,0.25,68,100.0
488,A4,35.25,0.25,68,100.0
489,C5,35.25,0.25,61,100.0
490,A5,35.25,0.25,61,100.0
491,A4,35.25,0.25,61,100.0
492,E5,35.25,0.25,61,100.0
493,E4,35.5,0.25,60,100.0
494,A1,35.5,0.5,84,100.0
495,E4,35.5,0.25,94,100.0
496,G#2,35.5,0.25,72,100.0
497,C4,35.5,0.5,66,100.0
498,E4,35.5,0.5,66,100.0
499,E4,35.75,0.25,68,100.0
500,E4,35.75,0.25,93,100.0
501,G#2,35.75,0.25,76,100.0
502,E4,36.0,0.5,68,100.0
503,G1,36.0,0.5,80,100.0
504,E4,36.0,0.5,93,100.0
505,C2,36.0,1.0,80,100.0
506,G#2,36.0,0.5,84,100.0
507,D4,36.5,0.5,68,100.0
508,D4,36.5,0.5,93,100.0
509,G#2,36.5,0.5,96,100.0
510,D4,36.75,0.25,66,100.0
511,B3,36.75,0.25,66,100.0
512,B3,37.0,0.25,64,100.0
513,B3,37.0,0.25,93,100.0
514,G3,37.0,0.25,70,100.0
515,B3,37.0,0.25,70,100.0
516,D4,37.0,0.25,70,100.0
517,G4,37.0,0.25,70,100.0
518,D5,37.0,0.25,62,100.0
519,B4,37.0,0.25,62,100.0
520,G5,37.0,0.25,62,100.0
521,G4,37.0,0.25,62,100.0
522,D2,37.0,0.5,84,100.0
523,G#2,37.0,0.5,84,100.0
524,A3,37.25,0.25,60,100.0
525,D2,37.25,0.25,80,100.0
526,A3,37.25,0.25,93,100.0
527,G3,37.25,0.25,80,100.0
528,B3,37.25,0.25,80,100.0
529,D4,37.25,0.25,80,100.0
530,G4,37.25,0.25,80,100.0
531,C4,37.25,0.5,66,100.0
532,E4,37.25,0.5,66,100.0
533,G5,37.25,0.25,62,100.0
534,D5,37.25,0.25,62,100.0
535,B4,37.25,0.25,62,100.0
536,G4,37.25,0.25,62,100.0
537,B3,37.5,0.5,60,100.0
538,G1,37.5,0.25,77,100.0
539,B3,37.5,0.5,94,100.0
540,G#2,37.5,0.25,80,100.0
541,G1,37.75,0.25,78,100.0
542,G#2,37.75,0.25,88,100.0
543,F4,37.75,0.75,65,100.0
544,D4,37.75,0.75,65,100.0
545,G#2,38.0,0.5,104,100.0
546,G#2,38.5,0.5,96,100.0
547,C4,38.5,0.5,64,100.0
548,E4,38.5,0.5,64,100.0
549,G3,39.0,0.25,70,100.0
550,B3,39.0,0.25,70,100.0
551,D4,39.0,0.25,70,100.0
552,G4,39.0,0.25,70,100.0
553,D4,39.0,0.5,64,100.0
554,B3,39.0,0.5,64,100.0
555,B4,39.0,0.25,61,100.0
556,D5,39.0,0.25,61,100.0
557,G5,39.0,0.25,61,100.0
558,G4,39.0,0.25,61,100.0
559,D2,39.0,0.5,88,100.0
560,G#2,39.0,0.5,88,100.0
561,G3,39.25,0.25,78,100.0
562,B3,39.25,0.25,78,100.0
563,D4,39.25,0.25,78,100.0
564,G4,39.25,0.25,78,100.0
565,G5,39.25,0.25,61,100.0
566,D5,39.25,0.25,61,100.0
567,B4,39.25,0.25,61,100.0
568,G4,39.25,0.25,61,100.0
569,E4,39.5,0.5,64,100.0
570,G1,39.5,0.5,79,100.0
571,E4,39.5,0.5,93,100.0
572,G#2,39.5,0.25,72,100.0
573,C4,39.5,0.5,64,100.0
574,E4,39.5,0.5,64,100.0
575,G#2,39.75,0.25,76,100.0
576,D4,40.0,0.5,64,100.0
577,F1,40.0,0.5,84,100.0
578,D4,40.0,0.5,94,100.0
579,C2,40.0,1.0,80,100.0
580,G#2,40.0,0.5,84,100.0
581,C4,40.5,0.25,68,100.0
582,C4,40.5,0.25,95,100.0
583,G#2,40.5,0.5,96,100.0
584,A3,40.75,0.5,64,100.0
585,A3,40.75,0.5,95,100.0
586,D4,41.0,0.25,71,100.0
587,G4,41.0,0.25,71,100.0
588,C5,41.0,0.25,71,100.0
589,A3,41.0,0.25,64,100.0
590,D4,41.0,0.25,64,100.0
591,G4,41.0,0.25,64,100.0
592,D5,41.0,0.25,59,100.0
593,C6,41.0,0.25,59,100.0
594,G5,41.0,0.25,59,100.0
595,D2,41.0,0.5,84,100.0
596,G#2,41.0,0.5,84,100.0
597,G3,41.25,0.25,68,100.0
598,C2,41.25,0.25,80,100.0
599,G3,41.25,0.25,95,100.0
600,D4,41.25,0.25,79,100.0
601,G4,41.25,0.25,79,100.0
602,C5,41.25,0.25,79,100.0
603,A3,41.25,0.25,65,100.0
604,D4,41.25,0.25,65,100.0
605,G4,41.25,0.25,65,100.0
606,C6,41.25,0.25,62,100.0
607,D5,41.25,0.25,62,100.0
608,G5,41.25,0.25,62,100.0
609,A3,41.5,0.5,72,100.0
610,F1,41.5,0.25,76,100.0
611,A3,41.5,0.5,97,100.0
612,G#2,41.5,0.25,80,100.0
613,F1,41.75,0.25,80,100.0
614,G#2,41.75,0.25,88,100.0
615,G#2,42.0,0.5,104,100.0
616,G#2,42.5,0.5,96,100.0
617,A3,43.0,0.25,69,100.0
618,A3,43.0,0.25,97,100.0
619,D4,43.0,0.25,77,100.0
620,G4,43.0,0.25,77,100.0
621,C5,43.0,0.25,77,100.0
622,A3,43.0,1.0,67,100.0
623,D4,43.0,1.0,67,100.0
624,G4,43.0,1.0,67,100.0
625,D5,43.0,0.25,63,100.0
626,C6,43.0,0.25,63,100.0
627,G5,43.0,0.25,63,100.0
628,D2,43.0,0.5,88,100.0
629,G#2,43.0,0.5,88,100.0
630,C4,43.25,0.25,73,100.0
631,C4,43.25,0.25,97,100.0
632,D4,43.25,0.25,80,100.0
633,G4,43.25,0.25,80,100.0
634,C5,43.25,0.25,80,100.0
635,C6,43.25,0.25,62,100.0
636,D5,43.25,0.25,62,100.0
637,G5,43.25,0.25,62,100.0
638,D4,43.5,0.25,67,100.0
639,F1,43.5,0.5,88,100.0
640,D4,43.5,0.25,97,100.0
641,G#2,43.5,0.25,72,100.0
642,E4,43.75,0.25,70,100.0
643,E4,43.75,0.25,97,100.0
644,G#2,43.75,0.25,76,100.0
645,E4,44.0,0.25,70,100.0
646,B-1,44.0,0.5,87,100.0
647,E4,44.0,0.25,97,100.0
648,C2,44.0,1.0,80,100.0
649,G#2,44.0,0.5,84,100.0
650,F4,44.25,0.25,72,100.0
651,F4,44.25,0.25,97,100.0
652,D4,44.5,0.75,68,100.0
653,D4,44.5,0.75,97,100.0
654,G#2,44.5,0.5,96,100.0
655,D4,45.0,0.25,79,100.0
656,G4,45.0,0.25,79,100.0
657,C5,45.0,0.25,79,100.0
658,G4,45.0,0.25,68,100.0
659,D4,45.0,0.25,68,100.0
660,G#3,45.0,0.25,68,100.0
661,D5,45.0,0.25,61,100.0
662,C6,45.0,0.25,61,100.0
663,G5,45.0,0.25,61,100.0
664,D2,45.0,0.5,84,100.0
665,G#2,45.0,0.5,84,100.0
666,C4,45.25,0.25,69,100.0
667,G#2,45.25,0.25,92,100.0
668,C4,45.25,0.25,97,100.0
669,D4,45.25,0.25,71,100.0
670,G4,45.25,0.25,71,100.0
671,C5,45.25,0.25,71,100.0
672,G#3,45.25,0.25,67,100.0
673,D4,45.25,0.25,67,100.0
674,G4,45.25,0.25,67,100.0
675,D5,45.25,0.25,61,100.0
676,C6,45.25,0.25,61,100.0
677,G5,45.25,0.25,61,100.0
678,D4,45.5,1241/500,67,100.0
679,F2,45.5,0.25,80,100.0
680,D4,45.5,1241/500,95,100.0
681,G#2,45.5,0.25,80,100.0
682,B-1,45.75,0.25,88,100.0
683,G#2,45.75,0.25,88,100.0
684,G#3,45.75,0.25,68,100.0
685,D4,45.75,0.25,68,100.0
686,G4,45.75,0.25,68,100.0
687,G#2,46.0,0.5,104,100.0
688,G4,46.25,0.25,68,100.0
689,D4,46.25,0.25,68,100.0
690,G#3,46.25,0.25,68,100.0
691,G#2,46.5,0.5,96,100.0
692,D4,46.5,0.25,75,100.0
693,G4,46.5,0.25,75,100.0
694,C5,46.5,0.25,75,100.0
695,C6,46.5,0.25,58,100.0
696,G5,46.5,0.25,58,100.0
697,D5,46.5,0.25,58,100.0
698,D4,46.75,0.25,74,100.0
699,G4,46.75,0.25,74,100.0
700,C5,46.75,0.25,74,100.0
701,C6,46.75,0.25,58,100.0
702,D5,46.75,0.25,58,100.0
703,G5,46.75,0.25,58,100.0
704,D4,47.0,0.25,68,100.0
705,G4,47.0,0.25,68,100.0
706,C5,47.0,0.25,68,100.0
707,G4,47.0,0.5,64,100.0
708,G#3,47.0,0.5,64,100.0
709,D4,47.0,0.5,64,100.0
710,C6,47.0,0.25,57,100.0
711,D5,47.0,0.25,57,100.0
712,G5,47.0,0.25,57,100.0
713,D2,47.0,0.5,88,100.0
714,G#2,47.0,0.5,88,100.0
715,D4,47.25,0.25,70,100.0
716,G4,47.25,0.25,70,100.0
717,C5,47.25,0.25,70,100.0
718,D5,47.25,0.25,57,100.0
719,C6,47.25,0.25,57,100.0
720,G5,47.25,0.25,57,100.0
721,B-1,47.5,0.5,80,100.0
722,G#2,47.5,0.25,72,100.0
723,D4,47.5,0.25,69,100.0
724,G4,47.5,0.25,69,100.0
725,C5,47.5,0.25,69,100.0
726,G#3,47.5,0.5,67,100.0
727,D4,47.5,0.5,67,100.0
728,G4,47.5,0.5,67,100.0
729,D5,47.5,0.25,57,100.0
730,C6,47.5,0.25,57,100.0
731,G5,47.5,0.25,57,100.0
732,G#2,47.75,0.25,76,100.0
733,D4,47.75,0.25,70,100.0
734,G4,47.75,0.25,70,100.0
735,C5,47.75,0.25,70,100.0
736,D5,47.75,0.25,58,100.0
737,C6,47.75,0.25,58,100.0
738,G5,47.75,0.25,58,100.0
739,D2,48.0,0.5,88,100.0
740,C2,48.0,1.0,80,100.0
741,G#2,48.0,0.5,84,100.0
742,G#2,48.5,0.5,96,100.0
743,B3,49.0,0.5,62,100.0
744,D4,49.0,0.5,62,100.0
745,D4,49.0,0.5,73,100.0
746,G4,49.0,0.5,73,100.0
747,F3,49.0,0.5,62,100.0
748,A3,49.0,0.5,62,100.0
749,D4,49.0,0.5,62,100.0
750,D5,49.0,0.5,59,100.0
751,G5,49.0,0.5,59,100.0
752,B3,49.0,0.5,95,100.0
753,D4,49.0,0.5,95,100.0
754,D2,49.0,0.5,84,100.0
755,G#2,49.0,0.5,84,100.0
756,A2,49.25,0.25,80,100.0
757,E4,49.5,0.25,60,100.0
758,D2,49.5,0.25,76,100.0
759,G#2,49.5,0.25,80,100.0
760,C4,49.5,0.25,59,100.0
761,E4,49.5,0.25,59,100.0
762,E4,49.5,0.25,70,100.0
763,G4,49.5,0.25,70,100.0
764,G5,49.5,0.25,59,100.0
765,E5,49.5,0.25,59,100.0
766,C4,49.5,0.25,95,100.0
767,E4,49.5,0.25,95,100.0
768,D2,49.75,0.25,92,100.0
769,G#2,49.75,0.25,88,100.0
770,B3,49.75,1.5,64,100.0
771,D4,49.75,1.5,64,100.0
772,D4,49.75,1.5,79,100.0
773,G4,49.75,1.5,79,100.0
774,D4,49.75,277/125,64,100.0
775,B3,49.75,277/125,64,100.0
776,G3,49.75,277/125,64,100.0
777,D5,49.75,1.5,56,100.0
778,G5,49.75,1.5,56,100.0
779,B3,49.75,1.5,95,100.0
780,D4,49.75,1.5,95,100.0
781,G#2,50.0,0.5,104,100.0
782,G#2,50.5,0.5,96,100.0
783,D2,51.0,0.5,88,100.0
784,G#2,51.0,0.5,88,100.0
785,B3,51.25,0.5,65,100.0
786,D4,51.25,0.5,65,100.0
787,D4,51.25,0.5,77,100.0
788,G4,51.25,0.5,77,100.0
789,D5,51.25,0.5,59,100.0
790,G5,51.25,0.5,59,100.0
791,B3,51.25,0.5,95,100.0
792,D4,51.25,0.5,95,100.0
793,D2,51.5,0.5,76,100.0
794,G#2,51.5,0.25,72,100.0
795,G#2,51.75,0.25,76,100.0
796,D4,51.75,0.25,64,100.0
797,B3,51.75,0.25,64,100.0
798,D4,51.75,0.25,79,100.0
799,G4,51.75,0.25,79,100.0
800,G5,51.75,0.25,59,100.0
801,D5,51.75,0.25,59,100.0
802,D4,51.75,0.25,95,100.0
803,B3,51.75,0.25,95,100.0
804,A1,52.0,0.5,96,100.0
805,C2,52.0,1.0,80,100.0
806,G#2,52.0,0.5,84,100.0
807,D4,52.0,0.25,64,100.0
808,B3,52.0,0.25,64,100.0
809,D4,52.0,0.25,79,100.0
810,G4,52.0,0.25,79,100.0
811,G3,52.0,2.0,62,100.0
812,C4,52.0,2.0,62,100.0
813,E4,52.0,2.0,62,100.0
814,G5,52.0,0.25,59,100.0
815,D5,52.0,0.25,59,100.0
816,D4,52.0,0.25,95,100.0
817,B3,52.0,0.25,95,100.0
818,C4,52.25,0.75,64,100.0
819,E4,52.25,0.75,64,100.0
820,E4,52.25,0.25,77,100.0
821,G4,52.25,0.25,77,100.0
822,G5,52.25,0.25,59,100.0
823,E5,52.25,0.25,59,100.0
824,C4,52.25,0.75,96,100.0
825,E4,52.25,0.75,96,100.0
826,G#2,52.5,0.5,96,100.0
827,E4,52.5,0.25,76,100.0
828,G4,52.5,0.25,76,100.0
829,E5,52.5,0.25,57,100.0
830,G5,52.5,0.25,57,100.0
831,E4,52.75,0.25,68,100.0
832,G4,52.75,0.25,68,100.0
833,E5,52.75,0.25,56,100.0
834,G5,52.75,0.25,56,100.0
835,E4,53.0,0.25,68,100.0
836,G4,53.0,0.25,68,100.0
837,E5,53.0,0.25,55,100.0
838,G5,53.0,0.25,55,100.0
839,D2,53.0,0.5,84,100.0
840,G#2,53.0,0.5,84,100.0
841,E2,53.5,0.25,88,100.0
842,G#2,53.5,0.25,80,100.0
843,A1,53.75,0.25,80,100.0
844,G#2,53.75,0.25,88,100.0
845,E4,53.75,0.25,76,100.0
846,G4,53.75,0.25,76,100.0
847,G5,53.75,0.25,58,100.0
848,E5,53.75,0.25,58,100.0
849,A1,54.0,0.25,72,100.0
850,G#2,54.0,0.5,104,100.0
851,E4,54.0,2.0,65,100.0
852,G3,54.0,2.0,65,100.0
853,C4,54.0,2.0,65,100.0
854,E4,54.25,0.25,77,100.0
855,G4,54.25,0.25,77,100.0
856,E5,54.25,0.25,61,100.0
857,G5,54.25,0.25,61,100.0
858,D4,54.333,333/1000,73,100.0
859,D4,54.333,333/1000,95,100.0
860,G#2,54.5,0.5,96,100.0
861,E4,54.667,333/1000,68,100.0
862,E4,54.667,333/1000,94,100.0
863,E4,54.75,0.25,67,100.0
864,G4,54.75,0.25,67,100.0
865,E5,54.75,0.25,60,100.0
866,G5,54.75,0.25,60,100.0
867,F4,55.0,0.25,71,100.0
868,F4,55.0,0.25,94,100.0
869,E4,55.0,0.5,81,100.0
870,G4,55.0,0.5,81,100.0
871,E5,55.0,0.5,57,100.0
872,G5,55.0,0.5,57,100.0
873,D2,55.0,0.5,88,100.0
874,G#2,55.0,0.5,88,100.0
875,E4,55.25,0.5,77,100.0
876,E4,55.25,0.5,92,100.0
877,A1,55.5,0.5,84,100.0
878,G#2,55.5,0.25,72,100.0
879,C4,55.75,0.25,75,100.0
880,C4,55.75,0.25,92,100.0
881,G#2,55.75,0.25,76,100.0
882,C4,56.0,1.0,75,100.0
883,D2,56.0,1.5,80,100.0
884,C4,56.0,1.0,92,100.0
885,C2,56.0,1.0,80,100.0
886,G#2,56.0,0.5,84,100.0
887,F3,56.0,1.5,101,100.0
888,A3,56.0,1.5,101,100.0
889,C4,56.0,1.5,101,100.0
890,A3,56.0,1.5,106,100.0
891,C4,56.0,1.5,106,100.0
892,E4,56.0,1.5,106,100.0
893,G#2,56.5,0.5,96,100.0
894,D2,57.0,0.5,84,100.0
895,G#2,57.0,0.5,84,100.0
896,G2,57.5,0.5,80,100.0
897,G#2,57.5,0.25,80,100.0
898,G3,57.5,0.5,101,100.0
899,B3,57.5,0.5,101,100.0
900,E4,57.5,0.5,101,100.0
901,G3,57.5,0.5,98,100.0
902,B3,57.5,0.5,98,100.0
903,E4,57.5,0.5,98,100.0
904,G#2,57.75,0.25,88,100.0
905,F2,58.0,2.0,76,100.0
906,G#2,58.0,0.5,104,100.0
907,F3,58.0,2.0,101,100.0
908,A3,58.0,2.0,101,100.0
909,D4,58.0,2.0,101,100.0
910,F3,58.0,2.0,97,100.0
911,A3,58.0,2.0,97,100.0
912,D4,58.0,2.0,97,100.0
913,D4,58.333,333/1000,59,100.0
914,D4,58.333,333/1000,93,100.0
915,G#2,58.5,0.5,96,100.0
916,E4,58.667,333/1000,60,100.0
917,E4,58.667,333/1000,93,100.0
918,F4,59.0,0.5,55,100.0
919,F4,59.0,0.5,93,100.0
920,D2,59.0,0.5,88,100.0
921,G#2,59.0,0.5,88,100.0
922,E4,59.5,0.25,60,100.0
923,E4,59.5,0.25,93,100.0
924,G#2,59.5,0.25,72,100.0
925,A4,59.75,0.25,62,100.0
926,A4,59.75,0.25,93,100.0
927,G#2,59.75,0.25,76,100.0
928,A4,60.0,0.25,62,100.0
929,E2,60.0,1.5,92,100.0
930,A4,60.0,0.25,93,100.0
931,C2,60.0,1.0,80,100.0
932,G#2,60.0,0.5,84,100.0
933,G3,60.0,1.5,76,100.0
934,B3,60.0,1.5,76,100.0
935,D4,60.0,1.5,76,100.0
936,G3,60.0,1.5,77,100.0
937,D4,60.0,1.5,77,100.0
938,B3,60.0,1.5,77,100.0
939,G4,60.25,0.75,60,100.0
940,G4,60.25,0.75,93,100.0
941,G#2,60.5,0.5,96,100.0
942,E4,61.0,0.25,61,100.0
943,E4,61.0,0.25,92,100.0
944,D2,61.0,0.5,84,100.0
945,G#2,61.0,0.5,84,100.0
946,E4,61.25,0.75,56,100.0
947,E4,61.25,0.75,92,100.0
948,G4,61.5,0.5,98,100.0
949,A2,61.5,0.5,92,100.0
950,G#2,61.5,0.25,80,100.0
951,E4,61.5,0.5,79,100.0
952,C4,61.5,0.5,79,100.0
953,G3,61.5,0.5,79,100.0
954,G#2,61.75,0.25,88,100.0
955,E4,62.0,0.25,60,100.0
956,A4,62.0,0.75,102,100.0
957,F2,62.0,0.75,84,100.0
958,E4,62.0,0.25,92,100.0
959,G#2,62.0,0.5,104,100.0
960,A3,62.0,0.75,78,100.0
961,C4,62.0,0.75,78,100.0
962,F4,62.0,0.75,78,100.0
963,D4,62.25,0.25,59,100.0
964,D4,62.25,0.25,91,100.0
965,C4,62.5,1.5,60,100.0
966,C4,62.5,1.5,89,100.0
967,G#2,62.5,0.5,96,100.0
968,C5,62.75,0.5,107,100.0
969,E2,62.75,0.75,72,100.0
970,G3,62.75,0.75,80,100.0
971,C4,62.75,0.75,80,100.0
972,E4,62.75,0.75,80,100.0
973,D2,63.0,0.5,88,100.0
974,G#2,63.0,0.5,88,100.0
975,E5,63.25,0.75,111,100.0
976,D2,63.5,0.5,80,100.0
977,G#2,63.5,0.25,72,100.0
978,F3,63.5,0.5,81,100.0
979,A3,63.5,0.5,81,100.0
980,D4,63.5,0.5,81,100.0
981,G#2,63.75,0.25,76,100.0
982,C2,64.0,0.5,88,100.0
983,E-3,64.0,0.75,54,100.0
984,C2,64.0,1.0,84,100.0
985,E-4,64.25,0.25,67,100.0
986,E-4,64.25,0.25,64,100.0
987,B-4,64.5,0.5,71,100.0
988,E4,64.5,0.5,71,100.0
989,E4,64.5,0.5,57,100.0
990,B-4,64.5,0.5,57,100.0
991,C3,64.75,0.25,84,100.0
992,E-4,65.0,0.25,71,100.0
993,E-4,65.0,0.25,60,100.0
994,C3,65.0,0.5,84,100.0
995,D3,65.25,0.25,92,100.0
996,E4,65.25,0.5,72,100.0
997,B-4,65.25,0.5,72,100.0
998,B-4,65.25,0.5,60,100.0
999,E4,65.25,0.5,60,100.0
1000,B2,65.5,0.25,83,100.0
1001,A2,65.5,0.5,84,100.0
1002,E-4,65.75,0.25,72,100.0
1003,E-4,65.75,0.25,76,100.0
1004,C2,65.75,0.25,81,100.0
1005,A2,66.0,0.75,92,100.0
1006,E4,66.0,0.5,69,100.0
1007,B-4,66.0,0.5,69,100.0
1008,B-4,66.0,0.5,54,100.0
1009,E4,66.0,0.5,54,100.0
1010,E-4,66.5,0.25,68,100.0
1011,E-4,66.5,0.25,76,100.0
1012,C3,66.75,0.25,80,100.0
1013,E4,66.75,0.5,67,100.0
1014,B-4,66.75,0.5,67,100.0
1015,B-4,66.75,0.5,65,100.0
1016,E4,66.75,0.5,65,100.0
1017,E-4,67.25,0.25,67,100.0
1018,E-4,67.25,0.25,64,100.0
1019,C3,67.25,0.25,84,100.0
1020,C2,67.5,0.5,80,100.0
1021,A2,67.5,0.5,80,100.0
1022,E4,67.5,0.5,71,100.0
1023,B-4,67.5,0.5,71,100.0
1024,B-4,67.5,0.5,49,100.0
1025,E4,67.5,0.5,49,100.0
1026,C2,68.0,0.5,76,100.0
1027,E-3,68.0,0.75,77,100.0
1028,C2,68.0,1.0,77,100.0
1029,E-4,68.25,0.25,71,100.0
1030,E-4,68.25,0.25,64,100.0
1031,B-4,68.5,0.5,71,100.0
1032,E4,68.5,0.5,71,100.0
1033,E4,68.5,0.5,57,100.0
1034,B-4,68.5,0.5,57,100.0
1035,C3,68.75,0.25,68,100.0
1036,E-4,69.0,0.25,71,100.0
1037,E-4,69.0,0.25,60,100.0
1038,C3,69.0,0.5,80,100.0
1039,B2,69.25,0.25,80,100.0
1040,B-4,69.25,0.5,71,100.0
1041,E4,69.25,0.5,71,100.0
1042,B-4,69.25,0.5,60,100.0
1043,E4,69.25,0.5,60,100.0
1044,G2,69.5,0.25,84,100.0
1045,A2,69.5,0.5,92,100.0
1046,E-4,69.75,0.25,72,100.0
1047,E-4,69.75,0.25,76,100.0
1048,C2,69.75,0.25,92,100.0
1049,A2,70.0,0.75,84,100.0
1050,B-4,70.0,0.5,72,100.0
1051,E4,70.0,0.5,72,100.0
1052,B-4,70.0,0.5,54,100.0
1053,E4,70.0,0.5,54,100.0
1054,E-4,70.5,0.25,73,100.0
1055,E-4,70.5,0.25,76,100.0
1056,A2,70.75,0.25,84,100.0
1057,B-4,70.75,0.5,73,100.0
1058,E4,70.75,0.5,73,100.0
1059,B-4,70.75,0.5,65,100.0
1060,E4,70.75,0.5,65,100.0
1061,E-4,71.25,0.25,71,100.0
1062,E-4,71.25,0.25,64,100.0
1063,D2,71.25,0.25,75,100.0
1064,C2,71.5,0.5,81,100.0
1065,D2,71.5,0.5,74,100.0
1066,E4,71.5,0.5,70,100.0
1067,B-4,71.5,0.5,70,100.0
1068,B-4,71.5,0.5,49,100.0
1069,E4,71.5,0.5,49,100.0
1070,A1,72.0,0.5,89,100.0
1071,G#2,72.0,0.5,72,100.0
1072,C2,72.0,1.0,92,100.0
1073,G#2,72.5,0.5,84,100.0
1074,E4,73.0,0.5,60,100.0
1075,E4,73.0,0.5,95,100.0
1076,A3,73.0,0.25,75,100.0
1077,C4,73.0,0.25,75,100.0
1078,E4,73.0,0.25,75,100.0
1079,A4,73.0,0.25,75,100.0
1080,C4,73.0,0.25,70,100.0
1081,E4,73.0,0.25,70,100.0
1082,A5,73.0,0.25,43,100.0
1083,C5,73.0,0.25,43,100.0
1084,E5,73.0,0.25,43,100.0
1085,A4,73.0,0.25,43,100.0
1086,D2,73.0,0.5,82,100.0
1087,G#2,73.0,0.5,82,100.0
1088,A3,73.25,0.25,75,100.0
1089,C4,73.25,0.25,75,100.0
1090,E4,73.25,0.25,75,100.0
1091,A4,73.25,0.25,75,100.0
1092,C4,73.25,0.5,67,100.0
1093,E4,73.25,0.5,67,100.0
1094,A5,73.25,0.25,44,100.0
1095,C5,73.25,0.25,44,100.0
1096,E5,73.25,0.25,44,100.0
1097,A4,73.25,0.25,44,100.0
1098,E4,73.5,0.25,64,100.0
1099,E2,73.5,0.25,88,100.0
1100,E4,73.5,0.25,95,100.0
1101,G#2,73.5,0.5,92,100.0
1102,F4,73.75,0.5,68,100.0
1103,A1,73.75,0.25,80,100.0
1104,F4,73.75,0.5,95,100.0
1105,C2,73.75,0.25,86,100.0
1106,F4,73.75,0.75,70,100.0
1107,D4,73.75,0.75,70,100.0
1108,A1,74.0,0.25,72,100.0
1109,G#2,74.0,0.5,92,100.0
1110,E4,74.25,0.5,72,100.0
1111,E4,74.25,0.5,95,100.0
1112,C4,74.5,0.5,70,100.0
1113,E4,74.5,0.5,70,100.0
1114,C2,74.5,0.5,92,100.0
1115,G#2,74.5,0.5,92,100.0
1116,E4,74.75,0.5,72,100.0
1117,E4,74.75,0.5,96,100.0
1118,A3,75.0,0.25,65,100.0
1119,C4,75.0,0.25,65,100.0
1120,E4,75.0,0.25,65,100.0
1121,A4,75.0,0.25,65,100.0
1122,B3,75.0,0.5,70,100.0
1123,D4,75.0,0.5,70,100.0
1124,E5,75.0,0.25,45,100.0
1125,C5,75.0,0.25,45,100.0
1126,A4,75.0,0.25,45,100.0
1127,A5,75.0,0.25,45,100.0
1128,D2,75.0,0.5,90,100.0
1129,G#2,75.0,0.5,90,100.0
1130,E4,75.25,0.5,68,100.0
1131,E4,75.25,0.5,96,100.0
1132,A3,75.25,0.25,60,100.0
1133,C4,75.25,0.25,60,100.0
1134,E4,75.25,0.25,60,100.0
1135,A4,75.25,0.25,60,100.0
1136,A5,75.25,0.25,40,100.0
1137,E5,75.25,0.25,40,100.0
1138,C5,75.25,0.25,40,100.0
1139,A4,75.25,0.25,40,100.0
1140,A1,75.5,0.5,84,100.0
1141,G#2,75.5,0.5,100,100.0
1142,C4,75.5,0.5,73,100.0
1143,E4,75.5,0.5,73,100.0
1144,E4,75.75,0.25,69,100.0
1145,E4,75.75,0.25,96,100.0
1146,E4,76.0,0.25,69,100.0
1147,G1,76.0,0.5,84,100.0
1148,E4,76.0,0.25,96,100.0
1149,G#2,76.0,0.5,80,100.0
1150,D4,76.25,0.5,68,100.0
1151,D4,76.25,0.5,97,100.0
1152,G#2,76.5,0.5,104,100.0
1153,B3,76.75,0.5,68,100.0
1154,B3,76.75,0.5,97,100.0
1155,G3,77.0,0.25,77,100.0
1156,B3,77.0,0.25,77,100.0
1157,D4,77.0,0.25,77,100.0
1158,G4,77.0,0.25,77,100.0
1159,B3,77.0,0.25,73,100.0
1160,D4,77.0,0.25,73,100.0
1161,G5,77.0,0.25,53,100.0
1162,D5,77.0,0.25,53,100.0
1163,B4,77.0,0.25,53,100.0
1164,G4,77.0,0.25,53,100.0
1165,G#2,77.0,0.5,82,100.0
1166,D2,77.0,0.5,82,100.0
1167,A3,77.25,0.25,68,100.0
1168,D2,77.25,0.25,81,100.0
1169,A3,77.25,0.25,96,100.0
1170,G3,77.25,0.25,73,100.0
1171,B3,77.25,0.25,73,100.0
1172,D4,77.25,0.25,73,100.0
1173,G4,77.25,0.25,73,100.0
1174,E4,77.25,0.5,74,100.0
1175,C4,77.25,0.5,74,100.0
1176,D5,77.25,0.25,53,100.0
1177,B4,77.25,0.25,53,100.0
1178,G5,77.25,0.25,53,100.0
1179,G4,77.25,0.25,53,100.0
1180,B3,77.5,0.5,72,100.0
1181,G1,77.5,0.25,80,100.0
1182,B3,77.5,0.5,89,100.0
1183,G#2,77.5,0.5,96,100.0
1184,G1,77.75,0.25,80,100.0
1185,D4,77.75,0.75,75,100.0
1186,F4,77.75,0.75,75,100.0
1187,D2,78.0,0.25,89,100.0
1188,D2,78.25,0.25,85,100.0
1189,C3,78.5,0.25,88,100.0
1190,C4,78.5,0.5,75,100.0
1191,E4,78.5,0.5,75,100.0
1192,C3,78.75,0.25,96,100.0
1193,C3,79.0,0.25,88,100.0
1194,G3,79.0,0.25,72,100.0
1195,B3,79.0,0.25,72,100.0
1196,D4,79.0,0.25,72,100.0
1197,G4,79.0,0.25,72,100.0
1198,B3,79.0,0.5,72,100.0
1199,D4,79.0,0.5,72,100.0
1200,D5,79.0,0.25,52,100.0
1201,G4,79.0,0.25,52,100.0
1202,G5,79.0,0.25,52,100.0
1203,B4,79.0,0.25,52,100.0
1204,C3,79.25,0.25,92,100.0
1205,G3,79.25,0.25,77,100.0
1206,B3,79.25,0.25,77,100.0
1207,D4,79.25,0.25,77,100.0
1208,G4,79.25,0.25,77,100.0
1209,G5,79.25,0.25,48,100.0
1210,D5,79.25,0.25,48,100.0
1211,B4,79.25,0.25,48,100.0
1212,G4,79.25,0.25,48,100.0
1213,E4,79.5,0.5,60,100.0
1214,G1,79.5,0.5,78,100.0
1215,E4,79.5,0.5,88,100.0
1216,A2,79.5,0.25,92,100.0
1217,E4,79.5,0.5,68,100.0
1218,C4,79.5,0.5,68,100.0
1219,A2,79.75,0.25,92,100.0
1220,D4,80.0,0.5,59,100.0
1221,F1,80.0,0.5,84,100.0
1222,D4,80.0,0.5,87,100.0
1223,C2,80.0,1.0,80,100.0
1224,G#2,80.0,0.5,84,100.0
1225,C4,80.5,0.5,64,100.0
1226,C4,80.5,0.5,89,100.0
1227,G#2,80.5,0.5,96,100.0
1228,A3,81.0,0.25,58,100.0
1229,A3,81.0,0.25,91,100.0
1230,D4,81.0,0.25,74,100.0
1231,G4,81.0,0.25,74,100.0
1232,C5,81.0,0.25,74,100.0
1233,D4,81.0,0.25,66,100.0
1234,A3,81.0,0.25,66,100.0
1235,G4,81.0,0.25,66,100.0
1236,C6,81.0,0.25,44,100.0
1237,D5,81.0,0.25,44,100.0
1238,G5,81.0,0.25,44,100.0
1239,D2,81.0,0.5,87,100.0
1240,G#2,81.0,0.5,87,100.0
1241,G3,81.25,0.25,60,100.0
1242,C2,81.25,0.25,80,100.0
1243,G3,81.25,0.25,93,100.0
1244,D4,81.25,0.25,77,100.0
1245,G4,81.25,0.25,77,100.0
1246,C5,81.25,0.25,77,100.0
1247,A3,81.25,0.25,67,100.0
1248,D4,81.25,0.25,67,100.0
1249,G4,81.25,0.25,67,100.0
1250,C6,81.25,0.25,55,100.0
1251,G5,81.25,0.25,55,100.0
1252,D5,81.25,0.25,55,100.0
1253,A3,81.5,0.5,58,100.0
1254,F1,81.5,0.25,76,100.0
1255,A3,81.5,0.5,93,100.0
1256,G#2,81.5,0.25,89,100.0
1257,F1,81.75,0.25,80,100.0
1258,G#2,81.75,0.25,88,100.0
1259,G#2,82.0,0.5,104,100.0
1260,G#2,82.5,0.5,90,100.0
1261,A3,83.0,0.25,64,100.0
1262,A3,83.0,0.25,94,100.0
1263,D4,83.0,0.25,79,100.0
1264,G4,83.0,0.25,79,100.0
1265,C5,83.0,0.25,79,100.0
1266,A3,83.0,1.0,67,100.0
1267,D4,83.0,1.0,67,100.0
1268,G4,83.0,1.0,67,100.0
1269,C6,83.0,0.25,61,100.0
1270,D5,83.0,0.25,61,100.0
1271,G5,83.0,0.25,61,100.0
1272,D2,83.0,0.5,95,100.0
1273,G#2,83.0,0.5,95,100.0
1274,C4,83.25,0.25,64,100.0
1275,C4,83.25,0.25,95,100.0
1276,D4,83.25,0.25,76,100.0
1277,G4,83.25,0.25,76,100.0
1278,C5,83.25,0.25,76,100.0
1279,C6,83.25,0.25,56,100.0
1280,D5,83.25,0.25,56,100.0
1281,G5,83.25,0.25,56,100.0
1282,D4,83.5,0.5,68,100.0
1283,F1,83.5,0.5,88,100.0
1284,D4,83.5,0.5,98,100.0
1285,G#2,83.5,0.25,87,100.0
1286,G#2,83.75,0.25,87,100.0
1287,E4,84.0,0.5,68,100.0
1288,B-1,84.0,0.5,100,100.0
1289,E4,84.0,0.5,98,100.0
1290,C2,84.0,1.0,80,100.0
1291,G#2,84.0,0.5,84,100.0
1292,F4,84.5,0.25,56,100.0
1293,F4,84.5,0.25,98,100.0
1294,G#2,84.5,0.5,96,100.0
1295,D4,84.75,0.5,60,100.0
1296,D4,84.75,0.5,99,100.0
1297,D4,85.0,0.25,82,100.0
1298,G4,85.0,0.25,82,100.0
1299,C5,85.0,0.25,82,100.0
1300,G#3,85.0,0.25,67,100.0
1301,D4,85.0,0.25,67,100.0
1302,G4,85.0,0.25,67,100.0
1303,D5,85.0,0.25,62,100.0
1304,C6,85.0,0.25,62,100.0
1305,G5,85.0,0.25,62,100.0
1306,D2,85.0,0.5,89,100.0
1307,G#2,85.0,0.5,89,100.0
1308,D4,85.25,0.5,64,100.0
1309,G#2,85.25,0.25,92,100.0
1310,D4,85.25,0.5,98,100.0
1311,D4,85.25,0.25,82,100.0
1312,G4,85.25,0.25,82,100.0
1313,C5,85.25,0.25,82,100.0
1314,G4,85.25,0.25,67,100.0
1315,D4,85.25,0.25,67,100.0
1316,G#3,85.25,0.25,67,100.0
1317,D5,85.25,0.25,55,100.0
1318,C6,85.25,0.25,55,100.0
1319,G5,85.25,0.25,55,100.0
1320,F2,85.5,0.25,87,100.0
1321,G#2,85.5,0.25,91,100.0
1322,C4,85.75,0.25,64,100.0
1323,B-1,85.75,0.25,88,100.0
1324,C4,85.75,0.25,97,100.0
1325,G#2,85.75,0.25,88,100.0
1326,G#3,85.75,0.25,67,100.0
1327,D4,85.75,0.25,67,100.0
1328,G4,85.75,0.25,67,100.0
1329,E4,86.0,0.25,65,100.0
1330,E4,86.0,0.25,97,100.0
1331,G#2,86.0,0.5,104,100.0
1332,E4,86.25,0.25,60,100.0
1333,E4,86.25,0.25,96,100.0
1334,G4,86.25,0.25,67,100.0
1335,D4,86.25,0.25,67,100.0
1336,G#3,86.25,0.25,67,100.0
1337,D4,86.5,0.25,60,100.0
1338,D4,86.5,0.25,96,100.0
1339,G#2,86.5,0.5,96,100.0
1340,D4,86.5,0.25,82,100.0
1341,G4,86.5,0.25,82,100.0
1342,C5,86.5,0.25,82,100.0
1343,C6,86.5,0.25,49,100.0
1344,D5,86.5,0.25,49,100.0
1345,G5,86.5,0.25,49,100.0
1346,C4,86.75,0.25,64,100.0
1347,C4,86.75,0.25,96,100.0
1348,D4,86.75,0.25,76,100.0
1349,G4,86.75,0.25,76,100.0
1350,C5,86.75,0.25,76,100.0
1351,C6,86.75,0.25,56,100.0
1352,D5,86.75,0.25,56,100.0
1353,G5,86.75,0.25,56,100.0
1354,D4,87.0,0.25,65,100.0
1355,D4,87.0,0.25,96,100.0
1356,D4,87.0,0.25,79,100.0
1357,G4,87.0,0.25,79,100.0
1358,C5,87.0,0.25,79,100.0
1359,G#3,87.0,0.5,68,100.0
1360,D4,87.0,0.5,68,100.0
1361,G4,87.0,0.5,68,100.0
1362,D5,87.0,0.25,56,100.0
1363,C6,87.0,0.25,56,100.0
1364,G5,87.0,0.25,56,100.0
1365,D2,87.0,0.5,88,100.0
1366,G#2,87.0,0.5,88,100.0
1367,D4,87.25,0.25,54,100.0
1368,D4,87.25,0.25,95,100.0
1369,D4,87.25,0.25,78,100.0
1370,G4,87.25,0.25,78,100.0
1371,C5,87.25,0.25,78,100.0
1372,D5,87.25,0.25,48,100.0
1373,C6,87.25,0.25,48,100.0
1374,G5,87.25,0.25,48,100.0
1375,C4,87.5,0.5,66,100.0
1376,B-1,87.5,0.5,89,100.0
1377,C4,87.5,0.5,90,100.0
1378,G#2,87.5,0.25,87,100.0
1379,D4,87.5,0.25,81,100.0
1380,G4,87.5,0.25,81,100.0
1381,C5,87.5,0.25,81,100.0
1382,G#3,87.5,0.5,69,100.0
1383,D4,87.5,0.5,69,100.0
1384,G4,87.5,0.5,69,100.0
1385,C6,87.5,0.25,59,100.0
1386,D5,87.5,0.25,59,100.0
1387,G5,87.5,0.25,59,100.0
1388,G#2,87.75,0.25,76,100.0
1389,D4,87.75,0.25,81,100.0
1390,G4,87.75,0.25,81,100.0
1391,C5,87.75,0.25,81,100.0
1392,C6,87.75,0.25,57,100.0
1393,D5,87.75,0.25,57,100.0
1394,G5,87.75,0.25,57,100.0
1395,A1,88.0,0.5,96,100.0
1396,C2,88.0,1.0,80,100.0
1397,G#2,88.0,0.5,84,100.0
1398,G#2,88.5,0.5,96,100.0
1399,E4,89.0,0.25,53,100.0
1400,C4,89.0,0.25,69,100.0
1401,E4,89.0,0.5,68,100.0
1402,E4,89.0,0.25,95,100.0
1403,A3,89.0,0.25,70,100.0
1404,C4,89.0,0.25,70,100.0
1405,E4,89.0,0.25,70,100.0
1406,A4,89.0,0.25,70,100.0
1407,E5,89.0,0.25,49,100.0
1408,C5,89.0,0.25,49,100.0
1409,A5,89.0,0.25,49,100.0
1410,A4,89.0,0.25,49,100.0
1411,D2,89.0,0.5,84,100.0
1412,G#2,89.0,0.5,84,100.0
1413,E4,89.25,0.5,64,100.0
1414,C4,89.25,0.5,68,100.0
1415,E4,89.25,0.25,69,100.0
1416,E4,89.25,0.5,95,100.0
1417,A3,89.25,0.25,69,100.0
1418,C4,89.25,0.25,69,100.0
1419,E4,89.25,0.25,69,100.0
1420,A4,89.25,0.25,69,100.0
1421,A5,89.25,0.25,50,100.0
1422,C5,89.25,0.25,50,100.0
1423,E5,89.25,0.25,50,100.0
1424,A4,89.25,0.25,50,100.0
1425,E2,89.5,0.25,88,100.0
1426,G#2,89.5,0.25,80,100.0
1427,F4,89.75,0.5,60,100.0
1428,A1,89.75,0.25,80,100.0
1429,F4,89.75,0.5,95,100.0
1430,G#2,89.75,0.25,88,100.0
1431,D4,89.75,0.75,74,100.0
1432,F4,89.75,0.75,74,100.0
1433,A1,90.0,0.25,72,100.0
1434,G#2,90.0,0.5,104,100.0
1435,E4,90.25,0.5,64,100.0
1436,E4,90.25,0.5,95,100.0
1437,G#2,90.5,0.5,96,100.0
1438,C4,90.5,0.5,73,100.0
1439,E4,90.5,0.5,73,100.0
1440,E4,90.75,0.5,64,100.0
1441,E4,90.75,0.5,95,100.0
1442,A3,91.0,0.25,66,100.0
1443,C4,91.0,0.25,66,100.0
1444,E4,91.0,0.25,66,100.0
1445,A4,91.0,0.25,66,100.0
1446,B3,91.0,0.5,71,100.0
1447,D4,91.0,0.5,71,100.0
1448,C5,91.0,0.25,46,100.0
1449,E5,91.0,0.25,46,100.0
1450,A4,91.0,0.25,46,100.0
1451,A5,91.0,0.25,46,100.0
1452,D2,91.0,0.5,88,100.0
1453,G#2,91.0,0.5,88,100.0
1454,E4,91.25,0.5,60,100.0
1455,E4,91.25,0.5,95,100.0
1456,A3,91.25,0.25,68,100.0
1457,C4,91.25,0.25,68,100.0
1458,E4,91.25,0.25,68,100.0
1459,A4,91.25,0.25,68,100.0
1460,C5,91.25,0.25,48,100.0
1461,A5,91.25,0.25,48,100.0
1462,A4,91.25,0.25,48,100.0
1463,E5,91.25,0.25,48,100.0
1464,A1,91.5,0.5,84,100.0
1465,G#2,91.5,0.25,85,100.0
1466,C4,91.5,0.5,70,100.0
1467,E4,91.5,0.5,70,100.0
1468,E4,91.75,0.25,56,100.0
1469,E4,91.75,0.25,95,100.0
1470,G#2,91.75,0.25,83,100.0
1471,E4,92.0,0.25,56,100.0
1472,G1,92.0,0.5,78,100.0
1473,E4,92.0,0.25,95,100.0
1474,C2,92.0,1.0,80,100.0
1475,G#2,92.0,0.5,84,100.0
1476,D4,92.25,0.5,68,100.0
1477,D4,92.25,0.5,95,100.0
1478,G#2,92.5,0.5,96,100.0
1479,B3,92.75,0.5,62,100.0
1480,B3,92.75,0.5,95,100.0
1481,G3,93.0,0.25,70,100.0
1482,B3,93.0,0.25,70,100.0
1483,D4,93.0,0.25,70,100.0
1484,G4,93.0,0.25,70,100.0
1485,D4,93.0,0.25,70,100.0
1486,B3,93.0,0.25,70,100.0
1487,D5,93.0,0.25,50,100.0
1488,B4,93.0,0.25,50,100.0
1489,G5,93.0,0.25,50,100.0
1490,G4,93.0,0.25,50,100.0
1491,D2,93.0,0.5,86,100.0
1492,G#2,93.0,0.5,86,100.0
1493,A3,93.25,0.25,60,100.0
1494,D2,93.25,0.25,79,100.0
1495,A3,93.25,0.25,95,100.0
1496,G3,93.25,0.25,80,100.0
1497,B3,93.25,0.25,80,100.0
1498,D4,93.25,0.25,80,100.0
1499,G4,93.25,0.25,80,100.0
1500,C4,93.25,0.5,69,100.0
1501,E4,93.25,0.5,69,100.0
1502,G5,93.25,0.25,54,100.0
1503,D5,93.25,0.25,54,100.0
1504,B4,93.25,0.25,54,100.0
1505,G4,93.25,0.25,54,100.0
1506,B3,93.5,0.5,64,100.0
1507,G1,93.5,0.25,79,100.0
1508,B3,93.5,0.5,91,100.0
1509,G#2,93.5,0.25,80,100.0
1510,G1,93.75,0.25,68,100.0
1511,G#2,93.75,0.25,88,100.0
1512,D4,93.75,0.75,68,100.0
1513,F4,93.75,0.75,68,100.0
1514,G#2,94.0,0.5,97,100.0
1515,G#2,94.5,0.5,96,100.0
1516,C4,94.5,0.5,69,100.0
1517,E4,94.5,0.5,69,100.0
1518,G3,95.0,0.25,70,100.0
1519,B3,95.0,0.25,70,100.0
1520,D4,95.0,0.25,70,100.0
1521,G4,95.0,0.25,70,100.0
1522,B3,95.0,0.5,69,100.0
1523,D4,95.0,0.5,69,100.0
1524,B4,95.0,0.25,54,100.0
1525,D5,95.0,0.25,54,100.0
1526,G5,95.0,0.25,54,100.0
1527,G4,95.0,0.25,54,100.0
1528,D2,95.0,0.5,88,100.0
1529,G#2,95.0,0.5,88,100.0
1530,G3,95.25,0.25,78,100.0
1531,B3,95.25,0.25,78,100.0
1532,D4,95.25,0.25,78,100.0
1533,G4,95.25,0.25,78,100.0
1534,G5,95.25,0.25,50,100.0
1535,D5,95.25,0.25,50,100.0
1536,B4,95.25,0.25,50,100.0
1537,G4,95.25,0.25,50,100.0
1538,E4,95.5,0.5,59,100.0
1539,G1,95.5,0.5,74,100.0
1540,E4,95.5,0.5,91,100.0
1541,G#2,95.5,0.25,85,100.0
1542,C4,95.5,0.5,71,100.0
1543,E4,95.5,0.5,71,100.0
1544,G#2,95.75,0.25,85,100.0
1545,D4,96.0,0.5,58,100.0
1546,F1,96.0,0.5,84,100.0
1547,D4,96.0,0.5,91,100.0
1548,C2,96.0,1.0,83,100.0
1549,G#2,96.0,0.5,83,100.0
1550,C4,96.5,0.25,65,100.0
1551,C4,96.5,0.25,91,100.0
1552,G#2,96.5,0.5,96,100.0
1553,A3,96.75,0.5,60,100.0
1554,A3,96.75,0.5,90,100.0
1555,D4,97.0,0.25,71,100.0
1556,G4,97.0,0.25,71,100.0
1557,C5,97.0,0.25,71,100.0
1558,A3,97.0,0.25,71,100.0
1559,D4,97.0,0.25,71,100.0
1560,G4,97.0,0.25,71,100.0
1561,D5,97.0,0.25,51,100.0
1562,C6,97.0,0.25,51,100.0
1563,G5,97.0,0.25,51,100.0
1564,D2,97.0,0.5,84,100.0
1565,G#2,97.0,0.5,84,100.0
1566,G3,97.25,0.25,64,100.0
1567,C2,97.25,0.25,80,100.0
1568,G3,97.25,0.25,89,100.0
1569,D4,97.25,0.25,79,100.0
1570,G4,97.25,0.25,79,100.0
1571,C5,97.25,0.25,79,100.0
1572,A3,97.25,0.25,71,100.0
1573,D4,97.25,0.25,71,100.0
1574,G4,97.25,0.25,71,100.0
1575,C6,97.25,0.25,66,100.0
1576,D5,97.25,0.25,66,100.0
1577,G5,97.25,0.25,66,100.0
1578,A3,97.5,0.5,60,100.0
1579,F1,97.5,0.25,76,100.0
1580,A3,97.5,0.5,89,100.0
1581,G#2,97.5,0.25,94,100.0
1582,F1,97.75,0.25,80,100.0
1583,G#2,97.75,0.25,88,100.0
1584,G#2,98.0,0.5,95,100.0
1585,G#2,98.5,0.5,96,100.0
1586,A3,99.0,0.25,57,100.0
1587,A3,99.0,0.25,89,100.0
1588,D4,99.0,0.25,77,100.0
1589,G4,99.0,0.25,77,100.0
1590,C5,99.0,0.25,77,100.0
1591,A3,99.0,1.0,71,100.0
1592,D4,99.0,1.0,71,100.0
1593,G4,99.0,1.0,71,100.0
1594,D5,99.0,0.25,59,100.0
1595,C6,99.0,0.25,59,100.0
1596,G5,99.0,0.25,59,100.0
1597,D2,99.0,0.5,88,100.0
1598,G#2,99.0,0.5,88,100.0
1599,C4,99.25,0.25,54,100.0
1600,C4,99.25,0.25,89,100.0
1601,D4,99.25,0.25,80,100.0
1602,G4,99.25,0.25,80,100.0
1603,C5,99.25,0.25,80,100.0
1604,C6,99.25,0.25,61,100.0
1605,D5,99.25,0.25,61,100.0
1606,G5,99.25,0.25,61,100.0
1607,D4,99.5,0.25,60,100.0
1608,F1,99.5,0.5,88,100.0
1609,D4,99.5,0.25,89,100.0
1610,G#2,99.5,0.25,82,100.0
1611,E4,99.75,0.25,60,100.0
1612,E4,99.75,0.25,90,100.0
1613,G#2,99.75,0.25,76,100.0
1614,E4,100.0,0.5,60,100.0
1615,B-1,100.0,0.5,100,100.0
1616,E4,100.0,0.5,90,100.0
1617,C2,100.0,1.0,80,100.0
1618,G#2,100.0,0.5,84,100.0
1619,F4,100.5,0.25,58,100.0
1620,F4,100.5,0.25,90,100.0
1621,G#2,100.5,0.5,96,100.0
1622,D4,100.75,0.5,58,100.0
1623,D4,100.75,0.5,88,100.0
1624,D4,101.0,0.25,79,100.0
1625,G4,101.0,0.25,79,100.0
1626,C5,101.0,0.25,79,100.0
1627,G#3,101.0,0.25,70,100.0
1628,D4,101.0,0.25,70,100.0
1629,G4,101.0,0.25,70,100.0
1630,D5,101.0,0.25,51,100.0
1631,C6,101.0,0.25,51,100.0
1632,G5,101.0,0.25,51,100.0
1633,D2,101.0,0.5,84,100.0
1634,G#2,101.0,0.5,84,100.0
1635,D4,101.25,0.25,52,100.0
1636,G#2,101.25,0.25,92,100.0
1637,D4,101.25,0.25,90,100.0
1638,D4,101.25,0.25,71,100.0
1639,G4,101.25,0.25,71,100.0
1640,C5,101.25,0.25,71,100.0
1641,D4,101.25,0.25,70,100.0
1642,G4,101.25,0.25,70,100.0
1643,G#3,101.25,0.25,70,100.0
1644,D5,101.25,0.25,59,100.0
1645,C6,101.25,0.25,59,100.0
1646,G5,101.25,0.25,59,100.0
1647,C4,101.5,0.25,58,100.0
1648,F2,101.5,0.25,85,100.0
1649,C4,101.5,0.25,91,100.0
1650,G#2,101.5,0.25,80,100.0
1651,D4,101.75,0.25,48,100.0
1652,B-1,101.75,0.25,88,100.0
1653,D4,101.75,0.25,92,100.0
1654,G#2,101.75,0.25,88,100.0
1655,G#3,101.75,0.25,69,100.0
1656,D4,101.75,0.25,69,100.0
1657,G4,101.75,0.25,69,100.0
1658,D4,102.0,0.25,50,100.0
1659,D4,102.0,0.25,92,100.0
1660,G#2,102.0,0.5,104,100.0
1661,C4,102.25,0.25,66,100.0
1662,C4,102.25,0.25,92,100.0
1663,G#3,102.25,0.25,69,100.0
1664,D4,102.25,0.25,69,100.0
1665,G4,102.25,0.25,69,100.0
1666,E4,102.5,0.25,65,100.0
1667,E4,102.5,0.25,94,100.0
1668,G#2,102.5,0.5,96,100.0
1669,D4,102.5,0.25,75,100.0
1670,G4,102.5,0.25,75,100.0
1671,C5,102.5,0.25,75,100.0
1672,C6,102.5,0.25,55,100.0
1673,G5,102.5,0.25,55,100.0
1674,D5,102.5,0.25,55,100.0
1675,D4,102.75,0.25,74,100.0
1676,G4,102.75,0.25,74,100.0
1677,C5,102.75,0.25,74,100.0
1678,C6,102.75,0.25,51,100.0
1679,D5,102.75,0.25,51,100.0
1680,G5,102.75,0.25,51,100.0
1681,D4,103.0,0.25,68,100.0
1682,G4,103.0,0.25,68,100.0
1683,C5,103.0,0.25,68,100.0
1684,G4,103.0,0.5,68,100.0
1685,D4,103.0,0.5,68,100.0
1686,G#3,103.0,0.5,68,100.0
1687,C6,103.0,0.25,49,100.0
1688,D5,103.0,0.25,49,100.0
1689,G5,103.0,0.25,49,100.0
1690,D2,103.0,0.5,88,100.0
1691,G#2,103.0,0.5,88,100.0
1692,D4,103.25,0.25,70,100.0
1693,G4,103.25,0.25,70,100.0
1694,C5,103.25,0.25,70,100.0
1695,D5,103.25,0.25,48,100.0
1696,C6,103.25,0.25,48,100.0
1697,G5,103.25,0.25,48,100.0
1698,B-1,103.5,0.5,80,100.0
1699,G#2,103.5,0.25,84,100.0
1700,D4,103.5,0.25,69,100.0
1701,G4,103.5,0.25,69,100.0
1702,C5,103.5,0.25,69,100.0
1703,D4,103.5,0.5,66,100.0
1704,G4,103.5,0.5,66,100.0
1705,G#3,103.5,0.5,66,100.0
1706,D5,103.5,0.25,50,100.0
1707,C6,103.5,0.25,50,100.0
1708,G5,103.5,0.25,50,100.0
1709,G#2,103.75,0.25,83,100.0
1710,D4,103.75,0.25,70,100.0
1711,G4,103.75,0.25,70,100.0
1712,C5,103.75,0.25,70,100.0
1713,D5,103.75,0.25,50,100.0
1714,C6,103.75,0.25,50,100.0
1715,G5,103.75,0.25,50,100.0
1716,D2,104.0,0.5,88,100.0
1717,C2,104.0,1.0,80,100.0
1718,G#2,104.0,0.5,84,100.0
1719,G#2,104.5,0.5,96,100.0
1720,B3,105.0,0.5,61,100.0
1721,D4,105.0,0.5,61,100.0
1722,D4,105.0,0.5,73,100.0
1723,G4,105.0,0.5,73,100.0
1724,F3,105.0,0.5,66,100.0
1725,D4,105.0,0.5,66,100.0
1726,A3,105.0,0.5,66,100.0
1727,D5,105.0,0.5,53,100.0
1728,G5,105.0,0.5,53,100.0
1729,B3,105.0,0.5,89,100.0
1730,D4,105.0,0.5,89,100.0
1731,D2,105.0,0.5,84,100.0
1732,G#2,105.0,0.5,84,100.0
1733,A2,105.25,0.25,80,100.0
1734,E4,105.5,0.25,65,100.0
1735,D2,105.5,0.25,78,100.0
1736,G#2,105.5,0.25,87,100.0
1737,C4,105.5,0.25,59,100.0
1738,E4,105.5,0.25,59,100.0
1739,E4,105.5,0.25,70,100.0
1740,G4,105.5,0.25,70,100.0
1741,G5,105.5,0.25,50,100.0
1742,E5,105.5,0.25,50,100.0
1743,C4,105.5,0.25,89,100.0
1744,E4,105.5,0.25,89,100.0
1745,D2,105.75,0.25,92,100.0
1746,G#2,105.75,0.25,88,100.0
1747,B3,105.75,1.5,64,100.0
1748,D4,105.75,1.5,64,100.0
1749,D4,105.75,1.5,79,100.0
1750,G4,105.75,1.5,79,100.0
1751,D4,105.75,277/125,69,100.0
1752,B3,105.75,277/125,69,100.0
1753,G3,105.75,277/125,69,100.0
1754,D5,105.75,1.5,66,100.0
1755,G5,105.75,1.5,66,100.0
1756,B3,105.75,1.5,89,100.0
1757,D4,105.75,1.5,89,100.0
1758,G#2,106.0,0.5,96,100.0
1759,G#2,106.5,0.5,96,100.0
1760,D2,107.0,0.5,88,100.0
1761,G#2,107.0,0.5,88,100.0
1762,B3,107.25,0.5,56,100.0
1763,D4,107.25,0.5,56,100.0
1764,D4,107.25,0.5,77,100.0
1765,G4,107.25,0.5,77,100.0
1766,D5,107.25,0.5,57,100.0
1767,G5,107.25,0.5,57,100.0
1768,B3,107.25,0.5,89,100.0
1769,D4,107.25,0.5,89,100.0
1770,D2,107.5,0.5,76,100.0
1771,G#2,107.5,0.25,87,100.0
1772,G#2,107.75,0.25,76,100.0
1773,D4,107.75,0.25,58,100.0
1774,B3,107.75,0.25,58,100.0
1775,D4,107.75,0.25,79,100.0
1776,G4,107.75,0.25,79,100.0
1777,G5,107.75,0.25,54,100.0
1778,D5,107.75,0.25,54,100.0
1779,D4,107.75,0.25,89,100.0
1780,B3,107.75,0.25,89,100.0
1781,A1,108.0,0.5,90,100.0
1782,C2,108.0,1.0,80,100.0
1783,G#2,108.0,0.5,84,100.0
1784,D4,108.0,0.25,58,100.0
1785,B3,108.0,0.25,58,100.0
1786,D4,108.0,0.25,79,100.0
1787,G4,108.0,0.25,79,100.0
1788,E4,108.0,2.0,69,100.0
1789,G3,108.0,2.0,69,100.0
1790,C4,108.0,2.0,69,100.0
1791,G5,108.0,0.25,54,100.0
1792,D5,108.0,0.25,54,100.0
1793,D4,108.0,0.25,89,100.0
1794,B3,108.0,0.25,89,100.0
1795,C4,108.25,0.75,64,100.0
1796,E4,108.25,0.75,64,100.0
1797,E4,108.25,0.25,77,100.0
1798,G4,108.25,0.25,77,100.0
1799,G5,108.25,0.25,45,100.0
1800,E5,108.25,0.25,45,100.0
1801,C4,108.25,0.75,88,100.0
1802,E4,108.25,0.75,88,100.0
1803,G#2,108.5,0.5,96,100.0
1804,E4,108.5,0.25,76,100.0
1805,G4,108.5,0.25,76,100.0
1806,E5,108.5,0.25,48,100.0
1807,G5,108.5,0.25,48,100.0
1808,E4,108.75,0.25,68,100.0
1809,G4,108.75,0.25,68,100.0
1810,E5,108.75,0.25,40,100.0
1811,G5,108.75,0.25,40,100.0
1812,E4,109.0,0.25,68,100.0
1813,G4,109.0,0.25,68,100.0
1814,E5,109.0,0.25,48,100.0
1815,G5,109.0,0.25,48,100.0
1816,D2,109.0,0.5,86,100.0
1817,G#2,109.0,0.5,86,100.0
1818,E2,109.5,0.25,88,100.0
1819,G#2,109.5,0.25,86,100.0
1820,A1,109.75,0.25,80,100.0
1821,G#2,109.75,0.25,88,100.0
1822,E4,109.75,0.25,76,100.0
1823,G4,109.75,0.25,76,100.0
1824,G5,109.75,0.25,57,100.0
1825,E5,109.75,0.25,57,100.0
1826,A1,110.0,0.25,72,100.0
1827,G#2,110.0,0.5,104,100.0
1828,G3,110.0,2.0,69,100.0
1829,C4,110.0,2.0,69,100.0
1830,E4,110.0,2.0,69,100.0
1831,E4,110.25,0.25,77,100.0
1832,G4,110.25,0.25,77,100.0
1833,E5,110.25,0.25,54,100.0
1834,G5,110.25,0.25,54,100.0
1835,D4,110.333,333/1000,56,100.0
1836,D4,110.333,333/1000,87,100.0
1837,G#2,110.5,0.5,96,100.0
1838,E4,110.667,333/1000,61,100.0
1839,E4,110.667,333/1000,87,100.0
1840,E4,110.75,0.25,67,100.0
1841,G4,110.75,0.25,67,100.0
1842,E5,110.75,0.25,47,100.0
1843,G5,110.75,0.25,47,100.0
1844,F4,111.0,0.25,65,100.0
1845,F4,111.0,0.25,87,100.0
1846,E4,111.0,0.5,82,100.0
1847,G4,111.0,0.5,82,100.0
1848,E5,111.0,0.5,62,100.0
1849,G5,111.0,0.5,62,100.0
1850,D2,111.0,0.5,88,100.0
1851,G#2,111.0,0.5,88,100.0
1852,E4,111.25,0.5,66,100.0
1853,E4,111.25,0.5,87,100.0
1854,A1,111.5,0.5,84,100.0
1855,G#2,111.5,0.25,86,100.0
1856,C4,111.75,0.25,65,100.0
1857,C4,111.75,0.25,86,100.0
1858,G#2,111.75,0.25,76,100.0
1859,C4,112.0,1.0,65,100.0
1860,D2,112.0,1.5,80,100.0
1861,C4,112.0,1.0,86,100.0
1862,C2,112.0,1.0,80,100.0
1863,G#2,112.0,0.5,84,100.0
1864,F3,112.0,1.5,95,100.0
1865,A3,112.0,1.5,95,100.0
1866,C4,112.0,1.5,95,100.0
1867,E4,112.0,1.5,103,100.0
1868,C4,112.0,1.5,103,100.0
1869,A3,112.0,1.5,103,100.0
1870,G#2,112.5,0.5,96,100.0
1871,D2,113.0,0.5,84,100.0
1872,G#2,113.0,0.5,84,100.0
1873,G2,113.5,0.5,80,100.0
1874,G#2,113.5,0.25,80,100.0
1875,G3,113.5,0.5,94,100.0
1876,B3,113.5,0.5,94,100.0
1877,E4,113.5,0.5,94,100.0
1878,G3,113.5,0.5,99,100.0
1879,B3,113.5,0.5,99,100.0
1880,E4,113.5,0.5,99,100.0
1881,G#2,113.75,0.25,88,100.0
1882,F2,114.0,2.0,76,100.0
1883,G#2,114.0,0.5,95,100.0
1884,F3,114.0,2.0,94,100.0
1885,A3,114.0,2.0,94,100.0
1886,D4,114.0,2.0,94,100.0
1887,F3,114.0,2.0,98,100.0
1888,A3,114.0,2.0,98,100.0
1889,D4,114.0,2.0,98,100.0
1890,D4,114.333,333/1000,56,100.0
1891,D4,114.333,333/1000,86,100.0
1892,G#2,114.5,0.5,96,100.0
1893,E4,114.667,333/1000,58,100.0
1894,E4,114.667,333/1000,87,100.0
1895,F4,115.0,0.5,54,100.0
1896,F4,115.0,0.5,87,100.0
1897,D2,115.0,0.5,88,100.0
1898,G#2,115.0,0.5,88,100.0
1899,E4,115.5,0.25,58,100.0
1900,E4,115.5,0.25,86,100.0
1901,G#2,115.5,0.25,83,100.0
1902,A4,115.75,0.25,56,100.0
1903,A4,115.75,0.25,86,100.0
1904,G#2,115.75,0.25,76,100.0
1905,A4,116.0,29/125,56,100.0
1906,E2,116.0,1.5,82,100.0
1907,A4,116.0,29/125,86,100.0
1908,C2,116.0,1.0,80,100.0
1909,G#2,116.0,0.5,84,100.0
1910,G3,116.0,1.5,79,100.0
1911,B3,116.0,1.5,79,100.0
1912,D4,116.0,1.5,79,100.0
1913,G3,116.0,1.5,70,100.0
1914,B3,116.0,1.5,70,100.0
1915,D4,116.0,1.5,70,100.0
1916,G4,116.25,0.75,56,100.0
1917,G4,116.25,0.75,85,100.0
1918,G#2,116.5,0.5,96,100.0
1919,E4,117.0,0.5,60,100.0
1920,E4,117.0,0.5,85,100.0
1921,D2,117.0,0.5,84,100.0
1922,G#2,117.0,0.5,84,100.0
1923,E4,117.5,0.25,57,100.0
1924,G4,117.5,0.5,85,100.0
1925,A2,117.5,0.5,79,100.0
1926,E4,117.5,0.25,86,100.0
1927,G#2,117.5,0.25,95,100.0
1928,G3,117.5,0.5,69,100.0
1929,C4,117.5,0.5,69,100.0
1930,E4,117.5,0.5,69,100.0
1931,D4,117.75,0.75,60,100.0
1932,G4,117.75,0.5,91,100.0
1933,A4,117.75,0.75,91,100.0
1934,D4,117.75,0.75,86,100.0
1935,G#2,117.75,0.25,88,100.0
1936,A4,118.0,0.75,98,100.0
1937,F2,118.0,0.75,76,100.0
1938,G#2,118.0,0.5,94,100.0
1939,C4,118.0,0.75,74,100.0
1940,A3,118.0,0.75,74,100.0
1941,F4,118.0,0.75,74,100.0
1942,C4,118.5,0.25,58,100.0
1943,C5,118.5,0.5,98,100.0
1944,C4,118.5,0.25,86,100.0
1945,G#2,118.5,0.5,96,100.0
1946,D4,118.75,0.5,54,100.0
1947,C5,118.75,0.5,103,100.0
1948,E2,118.75,0.75,75,100.0
1949,D4,118.75,0.5,86,100.0
1950,C4,118.75,0.75,74,100.0
1951,G3,118.75,0.75,74,100.0
1952,E4,118.75,0.75,74,100.0
1953,D2,119.0,0.5,88,100.0
1954,G#2,119.0,0.5,88,100.0
1955,C4,119.25,0.25,58,100.0
1956,C4,119.25,0.25,87,100.0
1957,E5,119.25,0.75,108,100.0
1958,E5,119.25,0.75,108,100.0
1959,D4,119.5,0.5,64,100.0
1960,D2,119.5,0.5,74,100.0
1961,D4,119.5,0.5,91,100.0
1962,G#2,119.5,0.25,86,100.0
1963,F3,119.5,0.5,73,100.0
1964,A3,119.5,0.5,73,100.0
1965,D4,119.5,0.5,73,100.0
1966,G#2,119.75,0.25,87,100.0
1967,C5,120.0,3.0,96,100.0
1968,E-3,120.0,0.75,54,100.0
1969,C2,120.0,1.0,84,100.0
1970,D2,120.021,0.25,73,100.0
1971,D2,120.271,0.5,73,100.0
1972,C3,120.75,0.25,93,100.0
1973,D2,120.771,0.25,73,100.0
1974,C3,121.0,0.5,91,100.0
1975,C4,121.0,0.25,60,100.0
1976,C5,121.0,0.25,60,100.0
1977,A4,121.0,0.25,60,100.0
1978,F4,121.0,0.25,60,100.0
1979,F3,121.0,0.25,73,100.0
1980,A3,121.0,0.25,73,100.0
1981,C4,121.0,0.25,73,100.0
1982,F4,121.0,0.25,91,100.0
1983,A4,121.0,0.25,91,100.0
1984,C5,121.0,0.25,91,100.0
1985,C4,121.0,0.25,91,100.0
1986,A2,121.021,0.25,73,100.0
1987,C4,121.25,0.5,58,100.0
1988,C5,121.25,0.5,58,100.0
1989,F4,121.25,0.5,58,100.0
1990,A4,121.25,0.5,58,100.0
1991,F3,121.25,0.5,73,100.0
1992,A3,121.25,0.5,73,100.0
1993,C4,121.25,0.5,73,100.0
1994,A4,121.25,0.5,91,100.0
1995,F4,121.25,0.5,91,100.0
1996,C5,121.25,0.5,91,100.0
1997,C4,121.25,0.5,91,100.0
1998,A2,121.271,0.25,73,100.0
1999,A2,121.5,0.5,84,100.0
2000,D3,121.521,0.5,74,100.0
2001,D5,121.75,1.25,61,100.0
2002,D5,121.75,1.25,89,100.0
2003,G3,121.75,2.25,69,100.0
2004,B3,121.75,2.25,69,100.0
2005,D4,121.75,2.25,69,100.0
2006,A2,122.0,0.75,92,100.0
2007,E2,122.021,0.25,74,100.0
2008,E2,122.271,0.5,74,100.0
2009,C3,122.75,0.25,86,100.0
2010,E2,122.771,0.25,75,100.0
2011,G5,123.0,0.25,84,100.0
2012,G2,123.021,0.25,75,100.0
2013,G5,123.25,0.5,104,100.0
2014,C3,123.25,0.25,84,100.0
2015,G2,123.271,0.25,76,100.0
2016,A2,123.5,0.5,80,100.0
2017,E3,123.521,479/1000,76,100.0
2018,F5,123.75,0.25,100,100.0
2019,F5,124.0,2.5,100,100.0
2020,E3,124.0,21/1000,76,100.0
2021,E-3,124.0,0.75,81,100.0
2022,C2,124.0,1.0,81,100.0
2023,D2,124.021,0.25,76,100.0
2024,D2,124.271,0.5,75,100.0
2025,C3,124.75,0.25,84,100.0
2026,D2,124.771,0.25,74,100.0
2027,C3,125.0,0.5,80,100.0
2028,C5,125.0,0.25,54,100.0
2029,C4,125.0,0.25,54,100.0
2030,A4,125.0,0.25,54,100.0
2031,F4,125.0,0.25,54,100.0
2032,F3,125.0,0.25,67,100.0
2033,A3,125.0,0.25,67,100.0
2034,C4,125.0,0.25,67,100.0
2035,F4,125.0,0.25,89,100.0
2036,A4,125.0,0.25,89,100.0
2037,C4,125.0,0.25,89,100.0
2038,C5,125.0,0.25,89,100.0
2039,A2,125.021,0.25,73,100.0
2040,A4,125.25,0.5,59,100.0
2041,F4,125.25,0.5,59,100.0
2042,C5,125.25,0.5,59,100.0
2043,C4,125.25,0.5,59,100.0
2044,F3,125.25,0.5,67,100.0
2045,A3,125.25,0.5,67,100.0
2046,C4,125.25,0.5,67,100.0
2047,C4,125.25,0.5,89,100.0
2048,C5,125.25,0.5,89,100.0
2049,F4,125.25,0.5,89,100.0
2050,A4,125.25,0.5,89,100.0
2051,A2,125.271,0.25,73,100.0
2052,A2,125.5,0.5,88,100.0
2053,D3,125.521,0.5,70,100.0
2054,B4,125.75,0.5,59,100.0
2055,G4,125.75,0.5,59,100.0
2056,D4,125.75,0.5,59,100.0
2057,D5,125.75,0.5,59,100.0
2058,G3,125.75,0.5,67,100.0
2059,B3,125.75,0.5,67,100.0
2060,D4,125.75,0.5,67,100.0
2061,D5,125.75,0.5,89,100.0
2062,D4,125.75,0.5,89,100.0
2063,G4,125.75,0.5,89,100.0
2064,B4,125.75,0.5,89,100.0
2065,A2,126.0,0.75,83,100.0
2066,E2,126.021,0.25,70,100.0
2067,G4,126.25,0.5,55,100.0
2068,B4,126.25,0.5,55,100.0
2069,A4,126.25,0.5,55,100.0
2070,D5,126.25,0.5,55,100.0
2071,D4,126.25,0.5,55,100.0
2072,G3,126.25,0.5,68,100.0
2073,B3,126.25,0.5,68,100.0
2074,D4,126.25,0.5,68,100.0
2075,D4,126.25,0.5,88,100.0
2076,D5,126.25,0.5,88,100.0
2077,A4,126.25,0.5,88,100.0
2078,B4,126.25,0.5,88,100.0
2079,G4,126.25,0.5,88,100.0
2080,E2,126.271,0.5,70,100.0
2081,D5,126.5,0.25,96,100.0
2082,E-5,126.75,0.25,96,100.0
2083,A2,126.75,0.25,79,100.0
2084,D4,126.75,0.5,56,100.0
2085,G4,126.75,0.5,56,100.0
2086,B4,126.75,0.5,56,100.0
2087,D5,126.75,0.5,56,100.0
2088,D4,126.75,0.5,68,100.0
2089,B3,126.75,0.5,68,100.0
2090,G3,126.75,0.5,68,100.0
2091,D5,126.75,0.5,87,100.0
2092,B4,126.75,0.5,87,100.0
2093,G4,126.75,0.5,87,100.0
2094,D4,126.75,0.5,87,100.0
2095,E2,126.771,0.25,70,100.0
2096,D5,127.0,0.25,96,100.0
2097,G2,127.021,0.25,70,100.0
2098,C5,127.25,0.25,97,100.0
2099,D2,127.25,0.25,79,100.0
2100,D5,127.25,0.25,60,100.0
2101,B4,127.25,0.25,60,100.0
2102,G4,127.25,0.25,60,100.0
2103,D4,127.25,0.25,60,100.0
2104,G3,127.25,0.25,67,100.0
2105,B3,127.25,0.25,67,100.0
2106,D4,127.25,0.25,67,100.0
2107,D4,127.25,0.25,87,100.0
2108,G4,127.25,0.25,87,100.0
2109,B4,127.25,0.25,87,100.0
2110,D5,127.25,0.25,87,100.0
2111,G2,127.271,0.25,70,100.0
2112,A4,127.5,0.25,97,100.0
2113,D2,127.5,0.5,82,100.0
2114,D4,127.5,0.5,60,100.0
2115,D5,127.5,0.5,60,100.0
2116,G4,127.5,0.5,60,100.0
2117,B4,127.5,0.5,60,100.0
2118,G3,127.5,0.5,68,100.0
2119,B3,127.5,0.5,68,100.0
2120,D4,127.5,0.5,68,100.0
2121,B4,127.5,0.5,87,100.0
2122,G4,127.5,0.5,87,100.0
2123,D5,127.5,0.5,87,100.0
2124,D4,127.5,0.5,87,100.0
2125,E3,127.521,479/1000,71,100.0
2126,C5,127.75,0.25,96,100.0
2127,D5,128.0,0.25,95,100.0
2128,E3,128.0,21/1000,71,100.0
2129,G#2,128.0,0.5,82,100.0
2130,C2,128.008,1.0,80,100.0
2131,D2,128.036,0.25,72,100.0
2132,C5,128.25,3.75,95,100.0
2133,D2,128.286,0.5,72,100.0
2134,G#2,128.5,0.5,80,100.0
2135,D2,128.786,0.25,72,100.0
2136,F4,129.0,0.25,54,100.0
2137,C5,129.0,0.25,54,100.0
2138,C4,129.0,0.25,54,100.0
2139,A4,129.0,0.25,54,100.0
2140,A3,129.0,0.25,68,100.0
2141,F3,129.0,0.25,68,100.0
2142,C4,129.0,0.25,68,100.0
2143,A4,129.0,0.25,85,100.0
2144,C4,129.0,0.25,85,100.0
2145,C5,129.0,0.25,85,100.0
2146,F4,129.0,0.25,85,100.0
2147,D2,129.0,0.5,79,100.0
2148,G#2,129.0,0.5,79,100.0
2149,A2,129.036,0.25,72,100.0
2150,C4,129.25,0.5,59,100.0
2151,C5,129.25,0.5,59,100.0
2152,F4,129.25,0.5,59,100.0
2153,A4,129.25,0.5,59,100.0
2154,F3,129.25,0.5,67,100.0
2155,A3,129.25,0.5,67,100.0
2156,C4,129.25,0.5,67,100.0
2157,A4,129.25,0.5,85,100.0
2158,F4,129.25,0.5,85,100.0
2159,C5,129.25,0.5,85,100.0
2160,C4,129.25,0.5,85,100.0
2161,A2,129.286,0.25,72,100.0
2162,G#2,129.5,0.5,79,100.0
2163,D3,129.536,0.5,72,100.0
2164,D4,129.75,0.75,56,100.0
2165,G4,129.75,0.75,56,100.0
2166,D5,129.75,0.75,56,100.0
2167,B4,129.75,0.75,56,100.0
2168,D4,129.75,0.75,67,100.0
2169,G3,129.75,0.75,67,100.0
2170,B3,129.75,0.75,67,100.0
2171,B4,129.75,0.75,84,100.0
2172,D5,129.75,0.75,84,100.0
2173,G4,129.75,0.75,84,100.0
2174,D4,129.75,0.75,84,100.0
2175,G#2,130.0,0.5,79,100.0
2176,C2,130.008,1.0,79,100.0
2177,E2,130.036,0.25,71,100.0
2178,E2,130.286,0.5,71,100.0
2179,G#2,130.5,0.5,80,100.0
2180,D4,130.5,0.5,59,100.0
2181,B4,130.5,0.5,59,100.0
2182,G4,130.5,0.5,59,100.0
2183,D5,130.5,0.5,59,100.0
2184,B3,130.5,0.5,67,100.0
2185,D4,130.5,0.5,67,100.0
2186,G3,130.5,0.5,67,100.0
2187,D5,130.5,0.5,83,100.0
2188,G4,130.5,0.5,83,100.0
2189,B4,130.5,0.5,83,100.0
2190,D4,130.5,0.5,83,100.0
2191,E2,130.786,0.25,71,100.0
2192,D5,131.0,0.5,56,100.0
2193,G4,131.0,0.5,56,100.0
2194,B4,131.0,0.5,56,100.0
2195,D4,131.0,0.5,56,100.0
2196,G3,131.0,0.5,69,100.0
2197,B3,131.0,0.5,69,100.0
2198,D4,131.0,0.5,69,100.0
2199,D4,131.0,0.5,82,100.0
2200,B4,131.0,0.5,82,100.0
2201,G4,131.0,0.5,82,100.0
2202,D5,131.0,0.5,82,100.0
2203,D2,131.0,0.5,81,100.0
2204,G#2,131.0,0.5,81,100.0
2205,G2,131.036,0.25,71,100.0
2206,G2,131.286,0.25,71,100.0
2207,G#2,131.5,0.5,81,100.0
2208,D4,131.5,0.25,55,100.0
2209,G4,131.5,0.25,55,100.0
2210,D5,131.5,0.25,55,100.0
2211,B4,131.5,0.25,55,100.0
2212,G3,131.5,0.25,70,100.0
2213,B3,131.5,0.25,70,100.0
2214,D4,131.5,0.25,70,100.0
2215,B4,131.5,0.25,82,100.0
2216,D5,131.5,0.25,82,100.0
2217,G4,131.5,0.25,82,100.0
2218,D4,131.5,0.25,82,100.0
2219,E3,131.536,58/125,71,100.0
2220,D5,131.75,0.25,59,100.0
2221,A4,131.75,0.25,59,100.0
2222,C5,131.75,0.25,59,100.0
2223,E-4,131.75,0.25,59,100.0
2224,E-4,131.75,0.25,70,100.0
2225,C4,131.75,0.25,70,100.0
2226,A3,131.75,0.25,70,100.0
2227,E-4,131.75,0.25,93,100.0
2228,C5,131.75,0.25,93,100.0
2229,A4,131.75,0.25,93,100.0
2230,D5,131.75,0.25,93,100.0
2231,E3,132.0,9/250,71,100.0
2232,G#2,132.0,0.5,82,100.0
2233,D5,132.0,0.5,59,100.0
2234,A4,132.0,0.5,59,100.0
2235,C5,132.0,0.5,59,100.0
2236,E-4,132.0,0.5,59,100.0
2237,E-4,132.0,0.5,93,100.0
2238,C5,132.0,0.5,93,100.0
2239,A4,132.0,0.5,93,100.0
2240,D5,132.0,0.5,93,100.0
2241,C2,132.008,1.0,80,100.0
2242,F1,132.036,0.25,71,100.0
2243,F1,132.286,0.5,71,100.0
2244,G#2,132.5,0.5,80,100.0
2245,A3,132.5,0.25,87,100.0
2246,C4,132.5,0.25,87,100.0
2247,E-4,132.5,0.25,87,100.0
2248,A3,132.5,0.5,70,100.0
2249,C4,132.5,0.5,70,100.0
2250,E-4,132.5,0.5,70,100.0
2251,F1,132.786,0.25,71,100.0
2252,G#2,133.0,0.5,79,100.0
2253,D2,133.0,0.5,79,100.0
2254,C2,133.036,0.25,71,100.0
2255,A3,133.25,0.25,86,100.0
2256,C4,133.25,0.25,86,100.0
2257,E-4,133.25,0.25,86,100.0
2258,A3,133.25,0.5,70,100.0
2259,C4,133.25,0.5,70,100.0
2260,E-4,133.25,0.5,70,100.0
2261,C2,133.286,0.25,72,100.0
2262,G#2,133.5,0.5,79,100.0
2263,F2,133.536,0.5,72,100.0
2264,G#2,134.0,0.5,79,100.0
2265,B3,134.0,0.25,86,100.0
2266,D4,134.0,0.25,86,100.0
2267,F4,134.0,0.25,86,100.0
2268,B3,134.0,0.5,70,100.0
2269,D4,134.0,0.5,70,100.0
2270,F4,134.0,0.5,70,100.0
2271,C2,134.008,1.0,79,100.0
2272,G1,134.036,0.25,72,100.0
2273,G1,134.286,0.5,72,100.0
2274,G#2,134.5,0.5,80,100.0
2275,B3,134.75,0.25,84,100.0
2276,D4,134.75,0.25,84,100.0
2277,F4,134.75,0.25,84,100.0
2278,B3,134.75,0.25,70,100.0
2279,D4,134.75,0.25,70,100.0
2280,F4,134.75,0.25,70,100.0
2281,G1,134.786,0.25,71,100.0
2282,G#2,135.0,0.5,81,100.0
2283,D2,135.0,0.5,81,100.0
2284,D2,135.036,0.25,71,100.0
2285,D2,135.286,0.25,70,100.0
2286,G#2,135.5,0.5,81,100.0
2287,B3,135.5,0.25,85,100.0
2288,D4,135.5,0.25,85,100.0
2289,F4,135.5,0.25,85,100.0
2290,B3,135.5,0.5,70,100.0
2291,D4,135.5,0.5,70,100.0
2292,F4,135.5,0.5,70,100.0
2293,G2,135.536,58/125,70,100.0
2294,G2,136.0,9/250,70,100.0
2295,G#2,136.0,0.5,82,100.0
2296,C2,136.008,1.0,80,100.0
2297,C2,136.036,0.25,69,100.0
2298,E-4,136.25,0.25,70,100.0
2299,C2,136.286,0.5,68,100.0
2300,G#2,136.5,0.5,80,100.0
2301,E-4,136.5,0.25,86,100.0
2302,B-4,136.5,0.25,86,100.0
2303,E4,136.5,0.5,70,100.0
2304,B-4,136.5,0.5,70,100.0
2305,B-5,136.5,0.25,74,100.0
2306,E-5,136.5,0.25,74,100.0
2307,C2,136.786,0.25,68,100.0
2308,E-4,137.0,0.25,70,100.0
2309,G#2,137.0,0.5,79,100.0
2310,D2,137.0,0.5,79,100.0
2311,G2,137.036,0.25,68,100.0
2312,E-4,137.25,0.25,86,100.0
2313,B-4,137.25,0.25,86,100.0
2314,B-4,137.25,0.5,70,100.0
2315,E4,137.25,0.5,70,100.0
2316,E-5,137.25,0.25,86,100.0
2317,B-5,137.25,0.25,86,100.0
2318,G2,137.286,0.25,67,100.0
2319,G#2,137.5,0.5,79,100.0
2320,C3,137.536,0.5,65,100.0
2321,E-4,137.75,0.25,69,100.0
2322,G#2,138.0,0.5,79,100.0
2323,E-4,138.0,0.25,85,100.0
2324,B-4,138.0,0.25,85,100.0
2325,E4,138.0,0.5,68,100.0
2326,B-4,138.0,0.5,68,100.0
2327,B-5,138.0,0.25,84,100.0
2328,E-5,138.0,0.25,84,100.0
2329,C2,138.008,1.0,79,100.0
2330,C2,138.036,0.25,66,100.0
2331,C2,138.286,0.5,66,100.0
2332,E-4,138.5,0.25,68,100.0
2333,G#2,138.5,0.5,80,100.0
2334,E-4,138.75,0.25,84,100.0
2335,B-4,138.75,0.25,84,100.0
2336,E4,138.75,0.5,68,100.0
2337,B-4,138.75,0.5,68,100.0
2338,B-5,138.75,0.25,78,100.0
2339,E-5,138.75,0.25,78,100.0
2340,C2,138.786,0.25,66,100.0
2341,G#2,139.0,0.5,81,100.0
2342,D2,139.0,0.5,81,100.0
2343,G2,139.036,0.25,66,100.0
2344,E-4,139.25,0.25,68,100.0
2345,G2,139.286,0.25,66,100.0
2346,G#2,139.5,0.5,81,100.0
2347,E-4,139.5,0.25,86,100.0
2348,B-4,139.5,0.25,86,100.0
2349,E4,139.5,0.5,68,100.0
2350,B-4,139.5,0.5,68,100.0
2351,C3,139.536,58/125,69,100.0
2352,B-5,139.75,0.25,88,100.0
2353,E-5,139.75,0.25,88,100.0
2354,E-4,140.0,0.25,69,100.0
2355,C3,140.0,9/250,69,100.0
2356,G#2,140.0,0.5,82,100.0
2357,C2,140.008,1.0,80,100.0
2358,C2,140.036,0.25,71,100.0
2359,B-4,140.25,0.5,69,100.0
2360,E4,140.25,0.5,69,100.0
2361,C2,140.286,0.5,72,100.0
2362,G#2,140.5,0.5,80,100.0
2363,E-4,140.5,0.25,84,100.0
2364,B-4,140.5,0.25,84,100.0
2365,B-5,140.5,0.25,81,100.0
2366,E-5,140.5,0.25,81,100.0
2367,E-4,140.75,0.25,70,100.0
2368,C2,140.786,0.25,73,100.0
2369,E4,141.0,0.5,71,100.0
2370,B-4,141.0,0.5,71,100.0
2371,G#2,141.0,0.5,79,100.0
2372,D2,141.0,0.5,79,100.0
2373,G2,141.036,0.25,74,100.0
2374,E-4,141.25,0.25,86,100.0
2375,B-4,141.25,0.25,86,100.0
2376,B-5,141.25,0.25,79,100.0
2377,E-5,141.25,0.25,79,100.0
2378,G2,141.286,0.25,75,100.0
2379,E-4,141.5,0.25,76,100.0
2380,G#2,141.5,0.5,79,100.0
2381,C3,141.536,0.5,75,100.0
2382,B-4,141.75,0.5,74,100.0
2383,E4,141.75,0.5,74,100.0
2384,G#2,142.0,0.5,79,100.0
2385,E-4,142.0,0.25,85,100.0
2386,B-4,142.0,0.25,85,100.0
2387,B-5,142.0,0.25,67,100.0
2388,E-5,142.0,0.25,67,100.0
2389,C2,142.008,1.0,79,100.0
2390,C2,142.036,0.25,76,100.0
2391,E-4,142.25,0.25,73,100.0
2392,C2,142.286,0.5,77,100.0
2393,G#2,142.5,0.5,80,100.0
2394,B-4,142.5,0.5,72,100.0
2395,E4,142.5,0.5,72,100.0
2396,E-4,142.75,0.25,86,100.0
2397,B-4,142.75,0.25,86,100.0
2398,B-5,142.75,0.25,81,100.0
2399,E-5,142.75,0.25,81,100.0
2400,C2,142.786,0.25,77,100.0
2401,E-4,143.0,0.25,72,100.0
2402,G#2,143.0,0.5,81,100.0
2403,D2,143.0,0.5,81,100.0
2404,G2,143.036,0.25,76,100.0
2405,B-4,143.25,0.5,68,100.0
2406,E4,143.25,0.5,68,100.0
2407,G2,143.286,0.25,76,100.0
2408,G#2,143.5,0.5,81,100.0
2409,E-4,143.5,0.25,86,100.0
2410,B-4,143.5,0.25,86,100.0
2411,C3,143.536,58/125,76,100.0
2412,A1,144.0,0.5,77,100.0
2413,C3,144.0,9/250,76,100.0
2414,G#2,144.0,0.5,82,100.0
2415,C2,144.008,1.0,80,100.0
2416,G#2,144.5,0.5,80,100.0
2417,E4,145.0,0.5,60,100.0
2418,E4,145.0,0.5,99,100.0
2419,A3,145.0,0.25,75,100.0
2420,C4,145.0,0.25,75,100.0
2421,E4,145.0,0.25,75,100.0
2422,A4,145.0,0.25,75,100.0
2423,C4,145.0,0.25,67,100.0
2424,E4,145.0,0.25,67,100.0
2425,A4,145.0,0.25,43,100.0
2426,E5,145.0,0.25,43,100.0
2427,C5,145.0,0.25,43,100.0
2428,A5,145.0,0.25,43,100.0
2429,G#2,145.0,0.5,79,100.0
2430,D2,145.0,0.5,79,100.0
2431,A3,145.25,0.25,75,100.0
2432,C4,145.25,0.25,75,100.0
2433,E4,145.25,0.25,75,100.0
2434,A4,145.25,0.25,75,100.0
2435,E4,145.25,0.5,66,100.0
2436,C4,145.25,0.5,66,100.0
2437,A4,145.25,0.25,44,100.0
2438,E5,145.25,0.25,44,100.0
2439,C5,145.25,0.25,44,100.0
2440,A5,145.25,0.25,44,100.0
2441,E4,145.5,0.25,64,100.0
2442,E2,145.5,0.25,77,100.0
2443,E4,145.5,0.25,99,100.0
2444,G#2,145.5,0.5,79,100.0
2445,F4,145.75,0.5,68,100.0
2446,A1,145.75,0.25,77,100.0
2447,F4,145.75,0.5,99,100.0
2448,D4,145.75,0.75,66,100.0
2449,F4,145.75,0.75,66,100.0
2450,A1,146.0,0.25,74,100.0
2451,G#2,146.0,0.5,79,100.0
2452,C2,146.008,1.0,79,100.0
2453,E4,146.25,0.5,68,100.0
2454,E4,146.25,0.5,99,100.0
2455,G#2,146.5,0.5,80,100.0
2456,C4,146.5,0.5,66,100.0
2457,E4,146.5,0.5,66,100.0
2458,E4,146.75,0.5,66,100.0
2459,E4,146.75,0.5,99,100.0
2460,A3,147.0,0.25,65,100.0
2461,C4,147.0,0.25,65,100.0
2462,E4,147.0,0.25,65,100.0
2463,A4,147.0,0.25,65,100.0
2464,B3,147.0,0.5,66,100.0
2465,D4,147.0,0.5,66,100.0
2466,A5,147.0,0.25,45,100.0
2467,A4,147.0,0.25,45,100.0
2468,C5,147.0,0.25,45,100.0
2469,E5,147.0,0.25,45,100.0
2470,G#2,147.0,0.5,81,100.0
2471,D2,147.0,0.5,81,100.0
2472,E4,147.25,0.5,66,100.0
2473,E4,147.25,0.5,99,100.0
2474,A3,147.25,0.25,60,100.0
2475,C4,147.25,0.25,60,100.0
2476,E4,147.25,0.25,60,100.0
2477,A4,147.25,0.25,60,100.0
2478,A4,147.25,0.25,40,100.0
2479,C5,147.25,0.25,40,100.0
2480,E5,147.25,0.25,40,100.0
2481,A5,147.25,0.25,40,100.0
2482,A1,147.5,0.5,74,100.0
2483,G#2,147.5,0.5,81,100.0
2484,C4,147.5,0.5,66,100.0
2485,E4,147.5,0.5,66,100.0
2486,E4,147.75,0.25,67,100.0
2487,E4,147.75,0.25,102,100.0
2488,E4,148.0,0.25,67,100.0
2489,G1,148.0,0.5,73,100.0
2490,E4,148.0,0.25,102,100.0
2491,G#2,148.0,0.5,82,100.0
2492,C2,148.008,1.0,80,100.0
2493,D4,148.25,0.5,65,100.0
2494,D4,148.25,0.5,103,100.0
2495,G#2,148.5,0.5,80,100.0
2496,B3,148.75,0.5,65,100.0
2497,B3,148.75,0.5,101,100.0
2498,G3,149.0,0.25,77,100.0
2499,B3,149.0,0.25,77,100.0
2500,D4,149.0,0.25,77,100.0
2501,G4,149.0,0.25,77,100.0
2502,B3,149.0,0.25,66,100.0
2503,D4,149.0,0.25,66,100.0
2504,G4,149.0,0.25,53,100.0
2505,B4,149.0,0.25,53,100.0
2506,D5,149.0,0.25,53,100.0
2507,G5,149.0,0.25,53,100.0
2508,G#2,149.0,0.5,79,100.0
2509,D2,149.0,0.5,79,100.0
2510,A3,149.25,0.25,65,100.0
2511,D2,149.25,0.25,73,100.0
2512,A3,149.25,0.25,99,100.0
2513,G3,149.25,0.25,73,100.0
2514,B3,149.25,0.25,73,100.0
2515,D4,149.25,0.25,73,100.0
2516,G4,149.25,0.25,73,100.0
2517,E4,149.25,0.5,66,100.0
2518,C4,149.25,0.5,66,100.0
2519,G4,149.25,0.25,53,100.0
2520,G5,149.25,0.25,53,100.0
2521,B4,149.25,0.25,53,100.0
2522,D5,149.25,0.25,53,100.0
2523,B3,149.5,0.5,64,100.0
2524,G1,149.5,0.25,73,100.0
2525,B3,149.5,0.5,96,100.0
2526,G#2,149.5,0.5,79,100.0
2527,G1,149.75,0.25,73,100.0
2528,D4,149.75,0.75,66,100.0
2529,F4,149.75,0.75,66,100.0
2530,G#2,150.0,0.5,79,100.0
2531,C2,150.008,1.0,79,100.0
2532,G#2,150.5,0.5,80,100.0
2533,C4,150.5,0.5,67,100.0
2534,E4,150.5,0.5,67,100.0
2535,G3,151.0,0.25,72,100.0
2536,B3,151.0,0.25,72,100.0
2537,D4,151.0,0.25,72,100.0
2538,G4,151.0,0.25,72,100.0
2539,B3,151.0,0.5,67,100.0
2540,D4,151.0,0.5,67,100.0
2541,B4,151.0,0.25,52,100.0
2542,G5,151.0,0.25,52,100.0
2543,G4,151.0,0.25,52,100.0
2544,D5,151.0,0.25,52,100.0
2545,G#2,151.0,0.5,81,100.0
2546,D2,151.0,0.5,81,100.0
2547,G3,151.25,0.25,77,100.0
2548,B3,151.25,0.25,77,100.0
2549,D4,151.25,0.25,77,100.0
2550,G4,151.25,0.25,77,100.0
2551,G4,151.25,0.25,48,100.0
2552,B4,151.25,0.25,48,100.0
2553,D5,151.25,0.25,48,100.0
2554,G5,151.25,0.25,48,100.0
2555,E4,151.5,0.5,64,100.0
2556,G1,151.5,0.5,74,100.0
2557,E4,151.5,0.5,97,100.0
2558,G#2,151.5,0.5,81,100.0
2559,E4,151.5,0.5,67,100.0
2560,C4,151.5,0.5,67,100.0
2561,D4,152.0,0.5,64,100.0
2562,F1,152.0,0.5,79,100.0
2563,D4,152.0,0.5,97,100.0
2564,G#2,152.0,0.5,80,100.0
2565,C2,152.0,1.0,80,100.0
2566,C4,152.5,0.25,65,100.0
2567,C4,152.5,0.25,97,100.0
2568,G#2,152.5,0.5,81,100.0
2569,A3,152.75,0.5,64,100.0
2570,A3,152.75,0.5,92,100.0
2571,D4,153.0,0.25,74,100.0
2572,G4,153.0,0.25,74,100.0
2573,C5,153.0,0.25,74,100.0
2574,D4,153.0,0.25,69,100.0
2575,A3,153.0,0.25,69,100.0
2576,G4,153.0,0.25,69,100.0
2577,G5,153.0,0.25,44,100.0
2578,D5,153.0,0.25,44,100.0
2579,C6,153.0,0.25,44,100.0
2580,G#2,153.0,0.5,82,100.0
2581,D2,153.0,0.5,82,100.0
2582,G3,153.25,0.25,68,100.0
2583,C2,153.25,0.25,79,100.0
2584,G3,153.25,0.25,91,100.0
2585,D4,153.25,0.25,77,100.0
2586,G4,153.25,0.25,77,100.0
2587,C5,153.25,0.25,77,100.0
2588,A3,153.25,0.25,68,100.0
2589,D4,153.25,0.25,68,100.0
2590,G4,153.25,0.25,68,100.0
2591,D5,153.25,0.25,55,100.0
2592,G5,153.25,0.25,55,100.0
2593,C6,153.25,0.25,55,100.0
2594,A3,153.5,0.5,64,100.0
2595,F1,153.5,0.25,79,100.0
2596,A3,153.5,0.5,90,100.0
2597,G#2,153.5,0.25,82,100.0
2598,F1,153.75,0.25,80,100.0
2599,G#2,153.75,0.25,83,100.0
2600,G#2,154.0,0.5,83,100.0
2601,G#2,154.5,0.5,83,100.0
2602,A3,155.0,0.25,64,100.0
2603,A3,155.0,0.25,90,100.0
2604,D4,155.0,0.25,79,100.0
2605,G4,155.0,0.25,79,100.0
2606,C5,155.0,0.25,79,100.0
2607,A3,155.0,1.0,75,100.0
2608,D4,155.0,1.0,75,100.0
2609,G4,155.0,1.0,75,100.0
2610,G5,155.0,0.25,61,100.0
2611,D5,155.0,0.25,61,100.0
2612,C6,155.0,0.25,61,100.0
2613,G#2,155.0,0.5,84,100.0
2614,D2,155.0,0.5,84,100.0
2615,C4,155.25,0.25,65,100.0
2616,C4,155.25,0.25,90,100.0
2617,D4,155.25,0.25,76,100.0
2618,G4,155.25,0.25,76,100.0
2619,C5,155.25,0.25,76,100.0
2620,G5,155.25,0.25,56,100.0
2621,D5,155.25,0.25,56,100.0
2622,C6,155.25,0.25,56,100.0
2623,D4,155.5,0.25,60,100.0
2624,F1,155.5,0.5,82,100.0
2625,D4,155.5,0.25,90,100.0
2626,G#2,155.5,0.25,83,100.0
2627,E4,155.75,0.25,56,100.0
2628,E4,155.75,0.25,90,100.0
2629,G#2,155.75,0.25,82,100.0
2630,E4,156.0,0.5,56,100.0
2631,B-1,156.0,0.5,84,100.0
2632,E4,156.0,0.5,90,100.0
2633,G#2,156.0,0.5,82,100.0
2634,C2,156.0,1.0,82,100.0
2635,F4,156.5,0.25,61,100.0
2636,F4,156.5,0.25,90,100.0
2637,G#2,156.5,0.5,82,100.0
2638,D4,156.75,154/125,59,100.0
2639,D4,156.75,154/125,86,100.0
2640,D4,157.0,0.25,82,100.0
2641,G4,157.0,0.25,82,100.0
2642,C5,157.0,0.25,82,100.0
2643,G#3,157.0,0.25,76,100.0
2644,D4,157.0,0.25,76,100.0
2645,G4,157.0,0.25,76,100.0
2646,G5,157.0,0.25,62,100.0
2647,C6,157.0,0.25,62,100.0
2648,D5,157.0,0.25,62,100.0
2649,G#2,157.0,0.5,82,100.0
2650,D2,157.0,0.5,82,100.0
2651,G#2,157.25,0.25,84,100.0
2652,D4,157.25,0.25,82,100.0
2653,G4,157.25,0.25,82,100.0
2654,C5,157.25,0.25,82,100.0
2655,G#3,157.25,0.25,76,100.0
2656,D4,157.25,0.25,76,100.0
2657,G4,157.25,0.25,76,100.0
2658,G5,157.25,0.25,55,100.0
2659,C6,157.25,0.25,55,100.0
2660,D5,157.25,0.25,55,100.0
2661,F2,157.5,0.25,85,100.0
2662,G#2,157.5,0.25,82,100.0
2663,B-1,157.75,0.25,85,100.0
2664,G#2,157.75,0.25,82,100.0
2665,G#3,157.75,0.25,76,100.0
2666,D4,157.75,0.25,76,100.0
2667,G4,157.75,0.25,76,100.0
2668,G#2,158.0,0.5,82,100.0
2669,D4,158.25,0.25,75,100.0
2670,G4,158.25,0.25,75,100.0
2671,G#3,158.25,0.25,75,100.0
2672,G#2,158.5,0.5,82,100.0
2673,D4,158.5,0.25,82,100.0
2674,G4,158.5,0.25,82,100.0
2675,C5,158.5,0.25,82,100.0
2676,G5,158.5,0.25,49,100.0
2677,D5,158.5,0.25,49,100.0
2678,C6,158.5,0.25,49,100.0
2679,D4,158.75,0.25,76,100.0
2680,G4,158.75,0.25,76,100.0
2681,C5,158.75,0.25,76,100.0
2682,G5,158.75,0.25,56,100.0
2683,D5,158.75,0.25,56,100.0
2684,C6,158.75,0.25,56,100.0
2685,D4,159.0,0.25,79,100.0
2686,G4,159.0,0.25,79,100.0
2687,C5,159.0,0.25,79,100.0
2688,G#3,159.0,0.5,75,100.0
2689,D4,159.0,0.5,75,100.0
2690,G4,159.0,0.5,75,100.0
2691,G5,159.0,0.25,56,100.0
2692,C6,159.0,0.25,56,100.0
2693,D5,159.0,0.25,56,100.0
2694,G#2,159.0,0.5,82,100.0
2695,D2,159.0,0.5,82,100.0
2696,D4,159.25,0.25,78,100.0
2697,G4,159.25,0.25,78,100.0
2698,C5,159.25,0.25,78,100.0
2699,G5,159.25,0.25,48,100.0
2700,C6,159.25,0.25,48,100.0
2701,D5,159.25,0.25,48,100.0
2702,B-1,159.5,0.5,83,100.0
2703,G#2,159.5,0.25,81,100.0
2704,D4,159.5,0.25,81,100.0
2705,G4,159.5,0.25,81,100.0
2706,C5,159.5,0.25,81,100.0
2707,G4,159.5,0.5,74,100.0
2708,D4,159.5,0.5,74,100.0
2709,G#3,159.5,0.5,74,100.0
2710,G5,159.5,0.25,59,100.0
2711,D5,159.5,0.25,59,100.0
2712,C6,159.5,0.25,59,100.0
2713,G#2,159.75,0.25,81,100.0
2714,D4,159.75,0.25,81,100.0
2715,G4,159.75,0.25,81,100.0
2716,C5,159.75,0.25,81,100.0
2717,G5,159.75,0.25,57,100.0
2718,D5,159.75,0.25,57,100.0
2719,C6,159.75,0.25,57,100.0
2720,A1,160.0,0.5,83,100.0
2721,G#2,160.0,0.5,80,100.0
2722,C2,160.0,1.0,80,100.0
2723,G#2,160.5,0.5,79,100.0
2724,E4,161.0,0.25,58,100.0
2725,E4,161.0,0.25,85,100.0
2726,A3,161.0,0.25,70,100.0
2727,C4,161.0,0.25,70,100.0
2728,E4,161.0,0.25,70,100.0
2729,A4,161.0,0.25,70,100.0
2730,C4,161.0,0.25,73,100.0
2731,E4,161.0,0.25,73,100.0
2732,A4,161.0,0.25,49,100.0
2733,A5,161.0,0.25,49,100.0
2734,C5,161.0,0.25,49,100.0
2735,E5,161.0,0.25,49,100.0
2736,G#2,161.0,0.5,80,100.0
2737,D2,161.0,0.5,80,100.0
2738,E4,161.25,0.5,58,100.0
2739,E4,161.25,0.5,83,100.0
2740,A3,161.25,0.25,69,100.0
2741,C4,161.25,0.25,69,100.0
2742,E4,161.25,0.25,69,100.0
2743,A4,161.25,0.25,69,100.0
2744,C4,161.25,0.5,73,100.0
2745,E4,161.25,0.5,73,100.0
2746,A4,161.25,0.25,50,100.0
2747,E5,161.25,0.25,50,100.0
2748,C5,161.25,0.25,50,100.0
2749,A5,161.25,0.25,50,100.0
2750,E2,161.5,0.25,88,100.0
2751,G#2,161.5,0.25,80,100.0
2752,F4,161.75,0.75,60,100.0
2753,A1,161.75,0.25,80,100.0
2754,F4,161.75,0.75,82,100.0
2755,G#2,161.75,0.25,81,100.0
2756,D4,161.75,0.75,71,100.0
2757,F4,161.75,0.75,71,100.0
2758,A1,162.0,0.25,72,100.0
2759,G#2,162.0,0.5,82,100.0
2760,E4,162.5,0.5,60,100.0
2761,E4,162.5,0.5,71,100.0
2762,E4,162.5,0.5,82,100.0
2763,G#2,162.5,0.5,83,100.0
2764,C4,162.75,0.5,71,100.0
2765,E4,163.0,0.5,61,100.0
2766,E4,163.0,0.5,84,100.0
2767,A3,163.0,0.25,66,100.0
2768,C4,163.0,0.25,66,100.0
2769,E4,163.0,0.25,66,100.0
2770,A4,163.0,0.25,66,100.0
2771,B3,163.0,0.5,70,100.0
2772,D4,163.0,0.5,70,100.0
2773,A5,163.0,0.25,46,100.0
2774,A4,163.0,0.25,46,100.0
2775,E5,163.0,0.25,46,100.0
2776,C5,163.0,0.25,46,100.0
2777,G#2,163.0,0.5,84,100.0
2778,D2,163.0,0.5,84,100.0
2779,A3,163.25,0.25,68,100.0
2780,C4,163.25,0.25,68,100.0
2781,E4,163.25,0.25,68,100.0
2782,A4,163.25,0.25,68,100.0
2783,E5,163.25,0.25,48,100.0
2784,A4,163.25,0.25,48,100.0
2785,A5,163.25,0.25,48,100.0
2786,C5,163.25,0.25,48,100.0
2787,E4,163.5,0.25,60,100.0
2788,A1,163.5,0.5,84,100.0
2789,E4,163.5,0.25,84,100.0
2790,G#2,163.5,0.25,84,100.0
2791,C4,163.5,0.5,70,100.0
2792,E4,163.5,0.5,70,100.0
2793,E4,163.75,0.25,57,100.0
2794,E4,163.75,0.25,90,100.0
2795,G#2,163.75,0.25,85,100.0
2796,E4,164.0,0.5,57,100.0
2797,G1,164.0,0.5,74,100.0
2798,E4,164.0,0.5,90,100.0
2799,G#2,164.0,0.5,85,100.0
2800,C2,164.0,1.0,85,100.0
2801,D4,164.5,0.5,59,100.0
2802,D4,164.5,0.5,93,100.0
2803,G#2,164.5,0.5,85,100.0
2804,B3,165.0,0.25,64,100.0
2805,B3,165.0,0.25,93,100.0
2806,G3,165.0,0.25,70,100.0
2807,B3,165.0,0.25,70,100.0
2808,D4,165.0,0.25,70,100.0
2809,G4,165.0,0.25,70,100.0
2810,D4,165.0,0.25,70,100.0
2811,B3,165.0,0.25,70,100.0
2812,G4,165.0,0.25,50,100.0
2813,G5,165.0,0.25,50,100.0
2814,B4,165.0,0.25,50,100.0
2815,D5,165.0,0.25,50,100.0
2816,G#2,165.0,0.5,85,100.0
2817,D2,165.0,0.5,85,100.0
2818,A3,165.25,0.25,49,100.0
2819,D2,165.25,0.25,74,100.0
2820,A3,165.25,0.25,93,100.0
2821,G3,165.25,0.25,80,100.0
2822,B3,165.25,0.25,80,100.0
2823,D4,165.25,0.25,80,100.0
2824,G4,165.25,0.25,80,100.0
2825,C4,165.25,0.5,68,100.0
2826,E4,165.25,0.5,68,100.0
2827,G4,165.25,0.25,54,100.0
2828,B4,165.25,0.25,54,100.0
2829,D5,165.25,0.25,54,100.0
2830,G5,165.25,0.25,54,100.0
2831,B3,165.5,0.5,60,100.0
2832,G1,165.5,0.25,75,100.0
2833,B3,165.5,0.5,91,100.0
2834,G#2,165.5,0.25,84,100.0
2835,G1,165.75,0.25,66,100.0
2836,G#2,165.75,0.25,84,100.0
2837,D4,165.75,0.75,68,100.0
2838,F4,165.75,0.75,68,100.0
2839,G#2,166.0,0.5,82,100.0
2840,G#2,166.5,0.5,83,100.0
2841,C4,166.5,0.5,68,100.0
2842,E4,166.5,0.5,68,100.0
2843,G3,167.0,0.25,70,100.0
2844,B3,167.0,0.25,70,100.0
2845,D4,167.0,0.25,70,100.0
2846,G4,167.0,0.25,70,100.0
2847,B3,167.0,0.5,68,100.0
2848,D4,167.0,0.5,68,100.0
2849,G4,167.0,0.25,54,100.0
2850,G5,167.0,0.25,54,100.0
2851,D5,167.0,0.25,54,100.0
2852,B4,167.0,0.25,54,100.0
2853,G#2,167.0,0.5,83,100.0
2854,D2,167.0,0.5,83,100.0
2855,G3,167.25,0.25,78,100.0
2856,B3,167.25,0.25,78,100.0
2857,D4,167.25,0.25,78,100.0
2858,G4,167.25,0.25,78,100.0
2859,G4,167.25,0.25,50,100.0
2860,B4,167.25,0.25,50,100.0
2861,D5,167.25,0.25,50,100.0
2862,G5,167.25,0.25,50,100.0
2863,E4,167.5,0.5,64,100.0
2864,G1,167.5,0.5,68,100.0
2865,E4,167.5,0.5,101,100.0
2866,G#2,167.5,0.25,83,100.0
2867,C4,167.5,0.5,68,100.0
2868,E4,167.5,0.5,68,100.0
2869,G#2,167.75,0.25,83,100.0
2870,D4,168.0,0.5,64,100.0
2871,F1,168.0,0.5,77,100.0
2872,D4,168.0,0.5,101,100.0
2873,G#2,168.0,0.5,83,100.0
2874,C2,168.0,1.0,83,100.0
2875,C4,168.5,0.25,68,100.0
2876,C4,168.5,0.25,101,100.0
2877,G#2,168.5,0.5,84,100.0
2878,A3,168.75,0.5,64,100.0
2879,A3,168.75,0.5,101,100.0
2880,D4,169.0,0.25,71,100.0
2881,G4,169.0,0.25,71,100.0
2882,C5,169.0,0.25,71,100.0
2883,A3,169.0,0.25,68,100.0
2884,D4,169.0,0.25,68,100.0
2885,G4,169.0,0.25,68,100.0
2886,G5,169.0,0.25,51,100.0
2887,C6,169.0,0.25,51,100.0
2888,D5,169.0,0.25,51,100.0
2889,G#2,169.0,0.5,91,100.0
2890,D2,169.0,0.5,91,100.0
2891,G3,169.25,0.25,68,100.0
2892,C2,169.25,0.25,74,100.0
2893,G3,169.25,0.25,100,100.0
2894,D4,169.25,0.25,79,100.0
2895,G4,169.25,0.25,79,100.0
2896,C5,169.25,0.25,79,100.0
2897,A3,169.25,0.25,70,100.0
2898,D4,169.25,0.25,70,100.0
2899,G4,169.25,0.25,70,100.0
2900,G5,169.25,0.25,66,100.0
2901,D5,169.25,0.25,66,100.0
2902,C6,169.25,0.25,66,100.0
2903,A3,169.5,0.5,64,100.0
2904,F1,169.5,0.25,76,100.0
2905,A3,169.5,0.5,99,100.0
2906,G#2,169.5,0.25,91,100.0
2907,F1,169.75,0.25,74,100.0
2908,G#2,169.75,0.25,91,100.0
2909,G#2,170.0,0.5,91,100.0
2910,G#2,170.5,0.5,91,100.0
2911,A3,171.0,0.25,66,100.0
2912,A3,171.0,0.25,99,100.0
2913,D4,171.0,0.25,77,100.0
2914,G4,171.0,0.25,77,100.0
2915,C5,171.0,0.25,77,100.0
2916,A3,171.0,1.0,76,100.0
2917,D4,171.0,1.0,76,100.0
2918,G4,171.0,1.0,76,100.0
2919,G5,171.0,0.25,59,100.0
2920,C6,171.0,0.25,59,100.0
2921,D5,171.0,0.25,59,100.0
2922,G#2,171.0,0.5,91,100.0
2923,D2,171.0,0.5,91,100.0
2924,C4,171.25,0.25,69,100.0
2925,C4,171.25,0.25,99,100.0
2926,D4,171.25,0.25,80,100.0
2927,G4,171.25,0.25,80,100.0
2928,C5,171.25,0.25,80,100.0
2929,G5,171.25,0.25,61,100.0
2930,D5,171.25,0.25,61,100.0
2931,C6,171.25,0.25,61,100.0
2932,D4,171.5,0.25,65,100.0
2933,F1,171.5,0.5,83,100.0
2934,D4,171.5,0.25,98,100.0
2935,G#2,171.5,0.25,90,100.0
2936,E4,171.75,0.25,60,100.0
2937,E4,171.75,0.25,96,100.0
2938,G#2,171.75,0.25,89,100.0
2939,E4,172.0,0.25,60,100.0
2940,B-1,172.0,0.5,87,100.0
2941,E4,172.0,0.25,96,100.0
2942,G#2,172.0,0.5,89,100.0
2943,C2,172.0,1.0,89,100.0
2944,F4,172.25,0.25,60,100.0
2945,F4,172.25,0.25,96,100.0
2946,D4,172.5,0.75,56,100.0
2947,D4,172.5,0.75,96,100.0
2948,G#2,172.5,0.5,89,100.0
2949,D4,173.0,0.25,79,100.0
2950,G4,173.0,0.25,79,100.0
2951,C5,173.0,0.25,79,100.0
2952,G#3,173.0,0.25,75,100.0
2953,D4,173.0,0.25,75,100.0
2954,G4,173.0,0.25,75,100.0
2955,G5,173.0,0.25,51,100.0
2956,C6,173.0,0.25,51,100.0
2957,D5,173.0,0.25,51,100.0
2958,G#2,173.0,0.5,89,100.0
2959,D2,173.0,0.5,89,100.0
2960,C4,173.25,0.25,66,100.0
2961,G#2,173.25,0.25,92,100.0
2962,C4,173.25,0.25,95,100.0
2963,D4,173.25,0.25,71,100.0
2964,G4,173.25,0.25,71,100.0
2965,C5,173.25,0.25,71,100.0
2966,D4,173.25,0.25,75,100.0
2967,G4,173.25,0.25,75,100.0
2968,G#3,173.25,0.25,75,100.0
2969,G5,173.25,0.25,59,100.0
2970,C6,173.25,0.25,59,100.0
2971,D5,173.25,0.25,59,100.0
2972,D4,173.5,1241/500,55,100.0
2973,F2,173.5,0.25,82,100.0
2974,D4,173.5,1241/500,86,100.0
2975,G#2,173.5,0.25,89,100.0
2976,B-1,173.75,0.25,88,100.0
2977,G#2,173.75,0.25,89,100.0
2978,G#3,173.75,0.25,73,100.0
2979,D4,173.75,0.25,73,100.0
2980,G4,173.75,0.25,73,100.0
2981,G#2,174.0,0.5,88,100.0
2982,G4,174.25,0.25,72,100.0
2983,D4,174.25,0.25,72,100.0
2984,G#3,174.25,0.25,72,100.0
2985,G#2,174.5,0.5,88,100.0
2986,D4,174.5,0.25,97,100.0
2987,G4,174.5,0.25,97,100.0
2988,C5,174.5,0.25,97,100.0
2989,D5,174.5,0.25,55,100.0
2990,G5,174.5,0.25,55,100.0
2991,C6,174.5,0.25,55,100.0
2992,D4,174.75,0.25,95,100.0
2993,G4,174.75,0.25,95,100.0
2994,C5,174.75,0.25,95,100.0
2995,G5,174.75,0.25,51,100.0
2996,D5,174.75,0.25,51,100.0
2997,C6,174.75,0.25,51,100.0
2998,D4,175.0,0.25,94,100.0
2999,G4,175.0,0.25,94,100.0
3000,C5,175.0,0.25,94,100.0
3001,G#3,175.0,0.5,72,100.0
3002,D4,175.0,0.5,72,100.0
3003,G4,175.0,0.5,72,100.0
3004,G5,175.0,0.25,49,100.0
3005,D5,175.0,0.25,49,100.0
3006,C6,175.0,0.25,49,100.0
3007,G#2,175.0,0.5,87,100.0
3008,D2,175.0,0.5,87,100.0
3009,D4,175.25,0.25,95,100.0
3010,G4,175.25,0.25,95,100.0
3011,C5,175.25,0.25,95,100.0
3012,G5,175.25,0.25,48,100.0
3013,C6,175.25,0.25,48,100.0
3014,D5,175.25,0.25,48,100.0
3015,B-1,175.5,0.5,85,100.0
3016,G#2,175.5,0.25,86,100.0
3017,D4,175.5,0.25,96,100.0
3018,G4,175.5,0.25,96,100.0
3019,C5,175.5,0.25,96,100.0
3020,D4,175.5,0.5,73,100.0
3021,G4,175.5,0.5,73,100.0
3022,G#3,175.5,0.5,73,100.0
3023,G5,175.5,0.25,50,100.0
3024,C6,175.5,0.25,50,100.0
3025,D5,175.5,0.25,50,100.0
3026,G#2,175.75,0.25,86,100.0
3027,D4,175.75,0.25,96,100.0
3028,G4,175.75,0.25,96,100.0
3029,C5,175.75,0.25,96,100.0
3030,G5,175.75,0.25,50,100.0
3031,C6,175.75,0.25,50,100.0
3032,D5,175.75,0.25,50,100.0
3033,D2,176.0,0.5,88,100.0
3034,G#2,176.0,0.5,86,100.0
3035,C2,176.0,1.0,86,100.0
3036,G#2,176.5,0.5,86,100.0
3037,D4,177.0,0.5,56,100.0
3038,B3,177.0,0.5,56,100.0
3039,D4,177.0,0.5,95,100.0
3040,G4,177.0,0.5,95,100.0
3041,F3,177.0,0.5,72,100.0
3042,D4,177.0,0.5,72,100.0
3043,A3,177.0,0.5,72,100.0
3044,G5,177.0,0.5,53,100.0
3045,D5,177.0,0.5,53,100.0
3046,D4,177.0,0.5,85,100.0
3047,B3,177.0,0.5,85,100.0
3048,G#2,177.0,0.5,86,100.0
3049,D2,177.0,0.5,86,100.0
3050,A2,177.25,0.25,80,100.0
3051,E4,177.5,0.25,72,100.0
3052,D2,177.5,0.25,83,100.0
3053,G#2,177.5,0.25,86,100.0
3054,E4,177.5,0.25,59,100.0
3055,C4,177.5,0.25,59,100.0
3056,E4,177.5,0.25,94,100.0
3057,G4,177.5,0.25,94,100.0
3058,E5,177.5,0.25,50,100.0
3059,G5,177.5,0.25,50,100.0
3060,E4,177.5,0.25,84,100.0
3061,C4,177.5,0.25,84,100.0
3062,D2,177.75,0.25,92,100.0
3063,G#2,177.75,0.25,86,100.0
3064,D4,177.75,1.5,64,100.0
3065,B3,177.75,1.5,64,100.0
3066,D4,177.75,1.5,86,100.0
3067,G4,177.75,1.5,86,100.0
3068,D4,177.75,277/125,72,100.0
3069,B3,177.75,277/125,72,100.0
3070,G3,177.75,277/125,72,100.0
3071,G5,177.75,1.5,66,100.0
3072,D5,177.75,1.5,66,100.0
3073,D4,177.75,1.5,84,100.0
3074,B3,177.75,1.5,84,100.0
3075,G#2,178.0,0.5,86,100.0
3076,G#2,178.5,0.5,86,100.0
3077,G#2,179.0,0.5,85,100.0
3078,D2,179.0,0.5,85,100.0
3079,D4,179.25,0.5,56,100.0
3080,B3,179.25,0.5,56,100.0
3081,D4,179.25,0.5,91,100.0
3082,G4,179.25,0.5,91,100.0
3083,G5,179.25,0.5,57,100.0
3084,D5,179.25,0.5,57,100.0
3085,D4,179.25,0.5,84,100.0
3086,B3,179.25,0.5,84,100.0
3087,D2,179.5,0.5,76,100.0
3088,G#2,179.5,0.25,85,100.0
3089,G#2,179.75,0.25,85,100.0
3090,B3,179.75,0.25,58,100.0
3091,D4,179.75,0.25,58,100.0
3092,D4,179.75,0.25,97,100.0
3093,G4,179.75,0.25,97,100.0
3094,D5,179.75,0.25,54,100.0
3095,G5,179.75,0.25,54,100.0
3096,B3,179.75,0.25,84,100.0
3097,D4,179.75,0.25,84,100.0
3098,A1,180.0,0.5,86,100.0
3099,G#2,180.0,0.5,84,100.0
3100,C2,180.0,1.0,84,100.0
3101,B3,180.0,0.25,58,100.0
3102,D4,180.0,0.25,58,100.0
3103,D4,180.0,0.25,97,100.0
3104,G4,180.0,0.25,97,100.0
3105,E4,180.0,2.0,71,100.0
3106,G3,180.0,2.0,71,100.0
3107,C4,180.0,2.0,71,100.0
3108,D5,180.0,0.25,54,100.0
3109,G5,180.0,0.25,54,100.0
3110,B3,180.0,0.25,84,100.0
3111,D4,180.0,0.25,84,100.0
3112,E4,180.25,0.75,57,100.0
3113,C4,180.25,0.75,57,100.0
3114,E4,180.25,0.25,98,100.0
3115,G4,180.25,0.25,98,100.0
3116,E5,180.25,0.25,45,100.0
3117,G5,180.25,0.25,45,100.0
3118,E4,180.25,0.75,87,100.0
3119,C4,180.25,0.75,87,100.0
3120,G#2,180.5,0.5,90,100.0
3121,E4,180.5,0.25,98,100.0
3122,G4,180.5,0.25,98,100.0
3123,G5,180.5,0.25,48,100.0
3124,E5,180.5,0.25,48,100.0
3125,E4,180.75,0.25,98,100.0
3126,G4,180.75,0.25,98,100.0
3127,G5,180.75,0.25,40,100.0
3128,E5,180.75,0.25,40,100.0
3129,E4,181.0,0.25,98,100.0
3130,G4,181.0,0.25,98,100.0
3131,G5,181.0,0.25,48,100.0
3132,E5,181.0,0.25,48,100.0
3133,G#2,181.0,0.5,87,100.0
3134,D2,181.0,0.5,87,100.0
3135,E2,181.5,0.25,88,100.0
3136,G#2,181.5,0.25,88,100.0
3137,A1,181.75,0.25,81,100.0
3138,G#2,181.75,0.25,88,100.0
3139,E4,181.75,0.25,97,100.0
3140,G4,181.75,0.25,97,100.0
3141,E5,181.75,0.25,57,100.0
3142,G5,181.75,0.25,57,100.0
3143,A1,182.0,0.25,81,100.0
3144,G#2,182.0,0.5,88,100.0
3145,G3,182.0,2.0,71,100.0
3146,C4,182.0,2.0,71,100.0
3147,E4,182.0,2.0,71,100.0
3148,E4,182.25,0.25,94,100.0
3149,G4,182.25,0.25,94,100.0
3150,G5,182.25,0.25,54,100.0
3151,E5,182.25,0.25,54,100.0
3152,D4,182.333,333/1000,56,100.0
3153,D4,182.333,333/1000,90,100.0
3154,G#2,182.5,0.5,88,100.0
3155,E4,182.667,333/1000,57,100.0
3156,E4,182.667,333/1000,92,100.0
3157,E4,182.75,0.25,88,100.0
3158,G4,182.75,0.25,88,100.0
3159,G5,182.75,0.25,47,100.0
3160,E5,182.75,0.25,47,100.0
3161,F4,183.0,0.75,58,100.0
3162,F4,183.0,0.75,96,100.0
3163,E4,183.0,0.5,95,100.0
3164,G4,183.0,0.5,95,100.0
3165,G#2,183.0,0.5,88,100.0
3166,D2,183.0,0.5,88,100.0
3167,A1,183.5,0.5,84,100.0
3168,G#2,183.5,0.25,88,100.0
3169,E4,183.75,0.25,59,100.0
3170,E4,183.75,0.25,96,100.0
3171,G#2,183.75,0.25,80,100.0
3172,C4,184.0,1.25,60,100.0
3173,D2,184.0,1.5,80,100.0
3174,C4,184.0,1.25,95,100.0
3175,C2,184.0,1.0,86,100.0
3176,G#2,184.0,0.5,86,100.0
3177,F3,184.0,1.5,99,100.0
3178,A3,184.0,1.5,99,100.0
3179,C4,184.0,1.5,99,100.0
3180,C4,184.0,1.5,99,100.0
3181,E4,184.0,1.5,99,100.0
3182,A3,184.0,1.5,99,100.0
3183,G#2,184.5,0.5,86,100.0
3184,D2,185.0,0.5,86,100.0
3185,G#2,185.0,0.5,86,100.0
3186,G2,185.5,0.5,80,100.0
3187,G#2,185.5,0.25,86,100.0
3188,G3,185.5,0.5,97,100.0
3189,B3,185.5,0.5,97,100.0
3190,E4,185.5,0.5,97,100.0
3191,G3,185.5,0.5,96,100.0
3192,B3,185.5,0.5,96,100.0
3193,E4,185.5,0.5,96,100.0
3194,G#2,185.75,0.25,86,100.0
3195,F2,186.0,2.0,76,100.0
3196,G#2,186.0,0.5,87,100.0
3197,F3,186.0,2.0,99,100.0
3198,A3,186.0,2.0,99,100.0
3199,D4,186.0,2.0,99,100.0
3200,A3,186.0,2.0,97,100.0
3201,F3,186.0,2.0,97,100.0
3202,D4,186.0,2.0,97,100.0
3203,D4,186.333,333/1000,56,100.0
3204,D4,186.333,333/1000,94,100.0
3205,G#2,186.5,0.5,87,100.0
3206,E4,186.667,333/1000,58,100.0
3207,E4,186.667,333/1000,93,100.0
3208,F4,187.0,0.5,54,100.0
3209,F4,187.0,0.5,91,100.0
3210,D2,187.0,0.5,87,100.0
3211,G#2,187.0,0.5,87,100.0
3212,E4,187.5,0.25,58,100.0
3213,E4,187.5,0.25,90,100.0
3214,G#2,187.5,0.25,87,100.0
3215,A4,187.75,0.25,57,100.0
3216,A4,187.75,0.25,89,100.0
3217,G#2,187.75,0.25,87,100.0
3218,A4,188.0,0.25,57,100.0
3219,E2,188.0,1.5,80,100.0
3220,A4,188.0,0.25,89,100.0
3221,G#2,188.0,0.5,86,100.0
3222,G3,188.0,1.5,99,100.0
3223,B3,188.0,1.5,99,100.0
3224,D4,188.0,1.5,99,100.0
3225,G3,188.0,1.5,68,100.0
3226,B3,188.0,1.5,68,100.0
3227,D4,188.0,1.5,68,100.0
3228,G4,188.25,0.75,55,100.0
3229,G4,188.25,0.75,88,100.0
3230,G#2,188.5,0.5,86,100.0
3231,E4,189.0,0.5,58,100.0
3232,E4,189.0,0.5,87,100.0
3233,D2,189.0,0.5,86,100.0
3234,G#2,189.0,0.5,86,100.0
3235,E4,189.5,0.25,54,100.0
3236,G4,189.5,0.5,104,100.0
3237,A2,189.5,0.5,81,100.0
3238,E4,189.5,0.25,88,100.0
3239,G#2,189.5,0.25,86,100.0
3240,C4,189.5,0.5,68,100.0
3241,G3,189.5,0.5,68,100.0
3242,E4,189.5,0.5,68,100.0
3243,E4,189.75,0.25,56,100.0
3244,E4,189.75,0.25,89,100.0
3245,G#2,189.75,0.25,86,100.0
3246,D4,190.0,0.25,55,100.0
3247,A4,190.0,0.75,104,100.0
3248,F2,190.0,0.75,80,100.0
3249,D4,190.0,0.25,89,100.0
3250,G#2,190.0,0.5,87,100.0
3251,C4,190.0,0.75,67,100.0
3252,A3,190.0,0.75,67,100.0
3253,F4,190.0,0.75,67,100.0
3254,C4,190.25,0.25,56,100.0
3255,C4,190.25,0.25,89,100.0
3256,D4,190.5,0.25,60,100.0
3257,D4,190.5,0.25,89,100.0
3258,G#2,190.5,0.5,87,100.0
3259,A3,190.75,0.25,55,100.0
3260,C5,190.75,0.5,107,100.0
3261,E2,190.75,0.75,84,100.0
3262,A3,190.75,0.25,89,100.0
3263,C4,190.75,0.75,67,100.0
3264,E4,190.75,0.75,67,100.0
3265,G3,190.75,0.75,67,100.0
3266,C4,191.0,0.25,58,100.0
3267,C4,191.0,0.25,89,100.0
3268,D2,191.0,0.5,87,100.0
3269,G#2,191.0,0.5,87,100.0
3270,D4,191.25,0.25,58,100.0
3271,E5,191.25,0.75,110,100.0
3272,D4,191.25,0.25,89,100.0
3273,C4,191.5,0.5,60,100.0
3274,D2,191.5,0.5,80,100.0
3275,C4,191.5,0.5,93,100.0
3276,G#2,191.5,0.25,87,100.0
3277,F3,191.5,0.5,67,100.0
3278,A3,191.5,0.5,67,100.0
3279,D4,191.5,0.5,67,100.0
3280,G#2,191.75,0.25,87,100.0
3281,C5,192.0,3.0,118,100.0
3282,D2,192.0,0.25,76,100.0
3283,C2,192.0,1.0,84,100.0
3284,E-3,192.0,0.75,92,100.0
3285,D2,192.25,0.5,89,100.0
3286,D2,192.75,0.25,88,100.0
3287,C3,192.75,0.25,84,100.0
3288,A2,193.0,0.25,92,100.0
3289,C3,193.0,0.5,88,100.0
3290,C5,193.0,0.25,66,100.0
3291,A4,193.0,0.25,66,100.0
3292,F4,193.0,0.25,66,100.0
3293,C4,193.0,0.25,66,100.0
3294,C4,193.0,0.25,103,100.0
3295,A3,193.0,0.25,103,100.0
3296,F3,193.0,0.25,103,100.0
3297,C4,193.0,0.25,90,100.0
3298,F4,193.0,0.25,90,100.0
3299,A4,193.0,0.25,90,100.0
3300,C5,193.0,0.25,90,100.0
3301,A2,193.25,0.25,92,100.0
3302,C5,193.25,0.5,75,100.0
3303,F4,193.25,0.5,75,100.0
3304,C4,193.25,0.5,75,100.0
3305,A4,193.25,0.5,75,100.0
3306,F3,193.25,0.5,103,100.0
3307,A3,193.25,0.5,103,100.0
3308,C4,193.25,0.5,103,100.0
3309,A4,193.25,0.5,90,100.0
3310,C4,193.25,0.5,90,100.0
3311,F4,193.25,0.5,90,100.0
3312,C5,193.25,0.5,90,100.0
3313,D3,193.5,0.5,82,100.0
3314,A2,193.5,0.5,80,100.0
3315,D5,193.75,1.25,80,100.0
3316,G4,193.75,1.25,80,100.0
3317,B4,193.75,1.25,80,100.0
3318,D4,193.75,1.25,80,100.0
3319,G3,193.75,2.25,92,100.0
3320,B3,193.75,2.25,92,100.0
3321,D4,193.75,2.25,92,100.0
3322,D4,193.75,1.25,94,100.0
3323,B4,193.75,1.25,94,100.0
3324,G4,193.75,1.25,94,100.0
3325,D5,193.75,1.25,94,100.0
3326,E2,194.0,0.25,96,100.0
3327,A2,194.0,0.75,84,100.0
3328,E2,194.25,0.5,92,100.0
3329,E2,194.75,0.25,92,100.0
3330,C3,194.75,0.25,92,100.0
3331,E5,195.0,0.25,98,100.0
3332,B2,195.0,0.25,82,100.0
3333,E5,195.25,0.5,102,100.0
3334,B2,195.25,0.25,88,100.0
3335,C3,195.25,0.25,96,100.0
3336,E3,195.5,0.5,88,100.0
3337,A2,195.5,0.5,92,100.0
3338,F5,195.75,0.25,109,100.0
3339,F5,196.0,2.5,109,100.0
3340,D2,196.0,0.25,76,100.0
3341,C2,196.0,1.0,92,100.0
3342,E-3,196.0,0.75,84,100.0
3343,D2,196.25,0.5,89,100.0
3344,D2,196.75,0.25,88,100.0
3345,C3,196.75,0.25,92,100.0
3346,A2,197.0,0.25,92,100.0
3347,C3,197.0,0.5,84,100.0
3348,F4,197.0,0.25,75,100.0
3349,C4,197.0,0.25,75,100.0
3350,C5,197.0,0.25,75,100.0
3351,A4,197.0,0.25,75,100.0
3352,F3,197.0,0.25,93,100.0
3353,A3,197.0,0.25,93,100.0
3354,C4,197.0,0.25,93,100.0
3355,A4,197.0,0.25,85,100.0
3356,C5,197.0,0.25,85,100.0
3357,C4,197.0,0.25,85,100.0
3358,F4,197.0,0.25,85,100.0
3359,A2,197.25,0.25,92,100.0
3360,C4,197.25,0.5,71,100.0
3361,C5,197.25,0.5,71,100.0
3362,F4,197.25,0.5,71,100.0
3363,A4,197.25,0.5,71,100.0
3364,C4,197.25,0.5,93,100.0
3365,F3,197.25,0.5,93,100.0
3366,A3,197.25,0.5,93,100.0
3367,A4,197.25,0.5,83,100.0
3368,F4,197.25,0.5,83,100.0
3369,C5,197.25,0.5,83,100.0
3370,C4,197.25,0.5,83,100.0
3371,D3,197.5,0.5,82,100.0
3372,A2,197.5,0.5,92,100.0
3373,D5,197.75,0.5,65,100.0
3374,G4,197.75,0.5,65,100.0
3375,B4,197.75,0.5,65,100.0
3376,D4,197.75,0.5,65,100.0
3377,G3,197.75,0.5,91,100.0
3378,B3,197.75,0.5,91,100.0
3379,D4,197.75,0.5,91,100.0
3380,D4,197.75,0.5,82,100.0
3381,B4,197.75,0.5,82,100.0
3382,G4,197.75,0.5,82,100.0
3383,D5,197.75,0.5,82,100.0
3384,E2,198.0,0.25,96,100.0
3385,A2,198.0,0.75,80,100.0
3386,E2,198.25,0.5,92,100.0
3387,G4,198.25,0.5,69,100.0
3388,D5,198.25,0.5,69,100.0
3389,D4,198.25,0.5,69,100.0
3390,B4,198.25,0.5,69,100.0
3391,D4,198.25,0.5,92,100.0
3392,B3,198.25,0.5,92,100.0
3393,G3,198.25,0.5,92,100.0
3394,B4,198.25,0.5,82,100.0
3395,D4,198.25,0.5,82,100.0
3396,D5,198.25,0.5,82,100.0
3397,G4,198.25,0.5,82,100.0
3398,D5,198.5,0.25,91,100.0
3399,E-5,198.75,0.25,90,100.0
3400,E2,198.75,0.25,92,100.0
3401,A2,198.75,0.25,84,100.0
3402,D5,198.75,0.5,65,100.0
3403,G4,198.75,0.5,65,100.0
3404,D4,198.75,0.5,65,100.0
3405,B4,198.75,0.5,65,100.0
3406,G3,198.75,0.5,92,100.0
3407,B3,198.75,0.5,92,100.0
3408,D4,198.75,0.5,92,100.0
3409,B4,198.75,0.5,86,100.0
3410,D4,198.75,0.5,86,100.0
3411,G4,198.75,0.5,86,100.0
3412,D5,198.75,0.5,86,100.0
3413,D5,199.0,0.25,89,100.0
3414,B2,199.0,0.25,82,100.0
3415,C5,199.25,0.25,87,100.0
3416,B2,199.25,0.25,88,100.0
3417,C3,199.25,0.25,92,100.0
3418,D5,199.25,0.25,71,100.0
3419,G4,199.25,0.25,71,100.0
3420,D4,199.25,0.25,71,100.0
3421,B4,199.25,0.25,71,100.0
3422,D4,199.25,0.25,93,100.0
3423,B3,199.25,0.25,93,100.0
3424,G3,199.25,0.25,93,100.0
3425,B4,199.25,0.25,88,100.0
3426,D4,199.25,0.25,88,100.0
3427,G4,199.25,0.25,88,100.0
3428,D5,199.25,0.25,88,100.0
3429,A4,199.5,0.25,84,100.0
3430,E3,199.5,0.5,88,100.0
3431,C3,199.5,0.5,84,100.0
3432,G4,199.5,0.5,71,100.0
3433,D5,199.5,0.5,71,100.0
3434,D4,199.5,0.5,71,100.0
3435,B4,199.5,0.5,71,100.0
3436,G3,199.5,0.5,100,100.0
3437,B3,199.5,0.5,100,100.0
3438,D4,199.5,0.5,100,100.0
3439,B4,199.5,0.5,91,100.0
3440,D4,199.5,0.5,91,100.0
3441,D5,199.5,0.5,91,100.0
3442,G4,199.5,0.5,91,100.0
3443,C5,199.75,0.25,80,100.0
3444,D5,200.0,0.25,96,100.0
3445,D2,200.0,0.25,76,100.0
3446,G#2,200.0,0.5,88,100.0
3447,C2,200.0,1.0,88,100.0
3448,C5,200.25,3.75,96,100.0
3449,D2,200.25,0.5,81,100.0
3450,G#2,200.5,0.5,88,100.0
3451,D2,200.75,0.25,78,100.0
3452,A2,201.0,0.25,80,100.0
3453,C4,201.0,0.25,76,100.0
3454,F4,201.0,0.25,76,100.0
3455,C5,201.0,0.25,76,100.0
3456,A4,201.0,0.25,76,100.0
3457,F3,201.0,0.25,100,100.0
3458,A3,201.0,0.25,100,100.0
3459,C4,201.0,0.25,100,100.0
3460,A4,201.0,0.25,83,100.0
3461,C5,201.0,0.25,83,100.0
3462,F4,201.0,0.25,83,100.0
3463,C4,201.0,0.25,83,100.0
3464,D2,201.0,0.5,98,100.0
3465,G#2,201.0,0.5,98,100.0
3466,A2,201.25,0.25,82,100.0
3467,C5,201.25,0.5,78,100.0
3468,A4,201.25,0.5,78,100.0
3469,F4,201.25,0.5,78,100.0
3470,C4,201.25,0.5,78,100.0
3471,F3,201.25,0.5,100,100.0
3472,A3,201.25,0.5,100,100.0
3473,C4,201.25,0.5,100,100.0
3474,C4,201.25,0.5,86,100.0
3475,F4,201.25,0.5,86,100.0
3476,A4,201.25,0.5,86,100.0
3477,C5,201.25,0.5,86,100.0
3478,D3,201.5,0.5,74,100.0
3479,G#2,201.5,0.5,92,100.0
3480,D5,201.75,0.5,69,100.0
3481,G4,201.75,0.5,69,100.0
3482,B4,201.75,0.5,69,100.0
3483,D4,201.75,0.5,69,100.0
3484,G3,201.75,0.75,100,100.0
3485,B3,201.75,0.75,100,100.0
3486,D4,201.75,0.75,100,100.0
3487,D4,201.75,0.5,86,100.0
3488,B4,201.75,0.5,86,100.0
3489,G4,201.75,0.5,86,100.0
3490,D5,201.75,0.5,86,100.0
3491,E2,202.0,0.25,82,100.0
3492,G#2,202.0,0.5,97,100.0
3493,C2,202.0,1.0,97,100.0
3494,E2,202.25,0.5,77,100.0
3495,D4,202.25,0.5,68,100.0
3496,D5,202.25,0.5,68,100.0
3497,G4,202.25,0.5,68,100.0
3498,B4,202.25,0.5,68,100.0
3499,B4,202.25,0.5,87,100.0
3500,G4,202.25,0.5,87,100.0
3501,D5,202.25,0.5,87,100.0
3502,D4,202.25,0.5,87,100.0
3503,G#2,202.5,0.5,88,100.0
3504,G3,202.5,0.5,100,100.0
3505,B3,202.5,0.5,100,100.0
3506,D4,202.5,0.5,100,100.0
3507,E2,202.75,0.25,75,100.0
3508,D4,202.75,0.5,69,100.0
3509,D5,202.75,0.5,69,100.0
3510,G4,202.75,0.5,69,100.0
3511,B4,202.75,0.5,69,100.0
3512,B4,202.75,0.5,91,100.0
3513,G4,202.75,0.5,91,100.0
3514,D5,202.75,0.5,91,100.0
3515,D4,202.75,0.5,91,100.0
3516,B2,203.0,0.25,74,100.0
3517,G3,203.0,0.25,100,100.0
3518,B3,203.0,0.25,100,100.0
3519,D4,203.0,0.25,100,100.0
3520,D2,203.0,0.5,94,100.0
3521,G#2,203.0,0.5,94,100.0
3522,B2,203.25,0.25,77,100.0
3523,G4,203.25,0.25,74,100.0
3524,D5,203.25,0.25,74,100.0
3525,D4,203.25,0.25,74,100.0
3526,B4,203.25,0.25,74,100.0
3527,G3,203.25,0.5,101,100.0
3528,B3,203.25,0.5,101,100.0
3529,D4,203.25,0.5,101,100.0
3530,B4,203.25,0.25,84,100.0
3531,D4,203.25,0.25,84,100.0
3532,D5,203.25,0.25,84,100.0
3533,G4,203.25,0.25,84,100.0
3534,E3,203.5,0.5,75,100.0
3535,G#2,203.5,0.5,93,100.0
3536,A4,203.5,0.5,88,100.0
3537,D5,203.5,0.5,88,100.0
3538,C5,203.5,0.5,88,100.0
3539,E-4,203.5,0.5,88,100.0
3540,E-4,203.5,0.5,98,100.0
3541,C5,203.5,0.5,98,100.0
3542,D5,203.5,0.5,98,100.0
3543,A4,203.5,0.5,98,100.0
3544,A3,203.75,0.25,104,100.0
3545,C4,203.75,0.25,104,100.0
3546,E-4,203.75,0.25,104,100.0
3547,F1,204.0,0.25,67,100.0
3548,C2,204.0,1.0,87,100.0
3549,G#2,204.0,0.5,87,100.0
3550,A4,204.0,0.25,88,100.0
3551,D5,204.0,0.25,88,100.0
3552,C5,204.0,0.25,88,100.0
3553,E-4,204.0,0.25,88,100.0
3554,E-4,204.0,0.25,98,100.0
3555,C5,204.0,0.25,98,100.0
3556,D5,204.0,0.25,98,100.0
3557,A4,204.0,0.25,98,100.0
3558,F1,204.25,0.5,77,100.0
3559,G#2,204.5,0.5,84,100.0
3560,A3,204.5,0.25,100,100.0
3561,C4,204.5,0.25,100,100.0
3562,E-4,204.5,0.25,100,100.0
3563,A3,204.5,0.5,72,100.0
3564,C4,204.5,0.5,72,100.0
3565,E-4,204.5,0.5,72,100.0
3566,A2,204.5,0.25,80,100.0
3567,C3,204.5,0.25,80,100.0
3568,E-3,204.5,0.25,80,100.0
3569,F1,204.75,0.25,70,100.0
3570,C2,205.0,0.25,78,100.0
3571,G#2,205.0,0.5,98,100.0
3572,D2,205.0,0.5,98,100.0
3573,C2,205.25,0.25,73,100.0
3574,A3,205.25,0.25,100,100.0
3575,C4,205.25,0.25,100,100.0
3576,E-4,205.25,0.25,100,100.0
3577,A3,205.25,0.5,84,100.0
3578,C4,205.25,0.5,84,100.0
3579,E-4,205.25,0.5,84,100.0
3580,A2,205.25,0.25,80,100.0
3581,C3,205.25,0.25,80,100.0
3582,E-3,205.25,0.25,80,100.0
3583,F2,205.5,0.5,78,100.0
3584,G#2,205.5,0.5,92,100.0
3585,G1,206.0,0.25,80,100.0
3586,C2,206.0,1.0,97,100.0
3587,G#2,206.0,0.5,97,100.0
3588,B3,206.0,0.25,103,100.0
3589,D4,206.0,0.25,103,100.0
3590,F4,206.0,0.25,103,100.0
3591,F4,206.0,0.5,70,100.0
3592,D4,206.0,0.5,70,100.0
3593,B3,206.0,0.5,70,100.0
3594,B2,206.0,0.25,83,100.0
3595,D3,206.0,0.25,83,100.0
3596,F3,206.0,0.25,83,100.0
3597,G1,206.25,0.5,75,100.0
3598,G#2,206.5,0.5,92,100.0
3599,G1,206.75,0.25,78,100.0
3600,B3,206.75,0.25,103,100.0
3601,D4,206.75,0.25,103,100.0
3602,F4,206.75,0.25,103,100.0
3603,B3,206.75,0.25,85,100.0
3604,D4,206.75,0.25,85,100.0
3605,F4,206.75,0.25,85,100.0
3606,B2,206.75,0.25,83,100.0
3607,D3,206.75,0.25,83,100.0
3608,F3,206.75,0.25,83,100.0
3609,D2,207.0,0.25,78,100.0
3610,G#2,207.0,0.5,103,100.0
3611,D2,207.0,0.5,103,100.0
3612,D2,207.25,0.25,81,100.0
3613,G2,207.5,0.5,78,100.0
3614,G#2,207.5,0.5,93,100.0
3615,B3,207.5,0.25,103,100.0
3616,D4,207.5,0.25,103,100.0
3617,F4,207.5,0.25,103,100.0
3618,B3,207.5,0.5,86,100.0
3619,D4,207.5,0.5,86,100.0
3620,F4,207.5,0.5,86,100.0
3621,B2,207.5,0.25,83,100.0
3622,D3,207.5,0.25,83,100.0
3623,F3,207.5,0.25,83,100.0
3624,C2,208.0,0.25,85,100.0
3625,C2,208.0,1.0,88,100.0
3626,G#2,208.0,0.5,88,100.0
3627,E-4,208.25,0.25,86,100.0
3628,C2,208.25,0.5,82,100.0
3629,G#2,208.5,0.5,88,100.0
3630,E-4,208.5,0.25,104,100.0
3631,B-4,208.5,0.25,104,100.0
3632,E4,208.5,0.5,94,100.0
3633,B-4,208.5,0.5,94,100.0
3634,E-3,208.5,0.25,84,100.0
3635,B-3,208.5,0.25,84,100.0
3636,C2,208.75,0.25,83,100.0
3637,E-4,209.0,0.25,88,100.0
3638,G2,209.0,0.25,81,100.0
3639,G#2,209.0,0.5,98,100.0
3640,D2,209.0,0.5,98,100.0
3641,G2,209.25,0.25,83,100.0
3642,E-4,209.25,0.25,104,100.0
3643,B-4,209.25,0.25,104,100.0
3644,E4,209.25,0.5,93,100.0
3645,B-4,209.25,0.5,93,100.0
3646,E-3,209.25,0.25,84,100.0
3647,B-3,209.25,0.25,84,100.0
3648,C3,209.5,0.5,84,100.0
3649,G#2,209.5,0.5,92,100.0
3650,E-4,209.75,0.25,84,100.0
3651,C2,210.0,0.25,80,100.0
3652,C2,210.0,1.0,93,100.0
3653,G#2,210.0,0.5,93,100.0
3654,E-4,210.0,0.25,105,100.0
3655,B-4,210.0,0.25,105,100.0
3656,E4,210.0,0.5,91,100.0
3657,B-4,210.0,0.5,91,100.0
3658,E-3,210.0,0.25,85,100.0
3659,B-3,210.0,0.25,85,100.0
3660,C2,210.25,0.5,80,100.0
3661,E-4,210.5,0.25,81,100.0
3662,G#2,210.5,0.5,92,100.0
3663,C2,210.75,0.25,73,100.0
3664,E-4,210.75,0.25,105,100.0
3665,B-4,210.75,0.25,105,100.0
3666,E4,210.75,0.5,90,100.0
3667,B-4,210.75,0.5,90,100.0
3668,E-3,210.75,0.25,85,100.0
3669,B-3,210.75,0.25,85,100.0
3670,G2,211.0,0.25,80,100.0
3671,G#2,211.0,0.5,96,100.0
3672,D2,211.0,0.5,96,100.0
3673,E-4,211.25,0.25,84,100.0
3674,G2,211.25,0.25,71,100.0
3675,C3,211.5,0.5,76,100.0
3676,G#2,211.5,0.5,93,100.0
3677,E-4,211.5,0.25,105,100.0
3678,B-4,211.5,0.25,105,100.0
3679,B-4,211.5,0.5,91,100.0
3680,E4,211.5,0.5,91,100.0
3681,E-3,211.5,0.25,85,100.0
3682,B-3,211.5,0.25,85,100.0
3683,C2,212.0,0.25,74,100.0
3684,G#2,212.0,0.5,88,100.0
3685,C2,212.0,1.0,88,100.0
3686,E-4,212.25,0.25,79,100.0
3687,C2,212.25,0.5,75,100.0
3688,G#2,212.5,0.5,88,100.0
3689,E-4,212.5,0.25,105,100.0
3690,B-4,212.5,0.25,105,100.0
3691,B-4,212.5,0.5,88,100.0
3692,E4,212.5,0.5,88,100.0
3693,E-3,212.5,0.25,85,100.0
3694,B-3,212.5,0.25,85,100.0
3695,C2,212.75,0.25,73,100.0
3696,E-4,213.0,0.25,77,100.0
3697,G2,213.0,0.25,77,100.0
3698,D2,213.0,0.5,98,100.0
3699,G#2,213.0,0.5,98,100.0
3700,G2,213.25,0.25,78,100.0
3701,E-4,213.25,0.25,104,100.0
3702,B-4,213.25,0.25,104,100.0
3703,B-4,213.25,0.5,89,100.0
3704,E4,213.25,0.5,89,100.0
3705,E-3,213.25,0.25,84,100.0
3706,B-3,213.25,0.25,84,100.0
3707,C3,213.5,0.5,75,100.0
3708,G#2,213.5,0.5,88,100.0
3709,E-4,213.75,0.25,81,100.0
3710,C2,214.0,0.25,78,100.0
3711,G#2,214.0,0.5,91,100.0
3712,C2,214.0,1.0,91,100.0
3713,E-4,214.0,0.25,105,100.0
3714,B-4,214.0,0.25,105,100.0
3715,B-4,214.0,0.5,90,100.0
3716,E4,214.0,0.5,90,100.0
3717,E-3,214.0,0.25,85,100.0
3718,B-3,214.0,0.25,85,100.0
3719,C2,214.25,0.5,82,100.0
3720,E-4,214.5,0.25,79,100.0
3721,G#2,214.5,0.5,85,100.0
3722,C2,214.75,0.25,74,100.0
3723,E-4,214.75,0.25,105,100.0
3724,B-4,214.75,0.25,105,100.0
3725,B-4,214.75,0.5,88,100.0
3726,E4,214.75,0.5,88,100.0
3727,E-3,214.75,0.25,85,100.0
3728,B-3,214.75,0.25,85,100.0
3729,G2,215.0,0.25,72,100.0
3730,D2,215.0,0.5,97,100.0
3731,G#2,215.0,0.5,97,100.0
3732,E-4,215.25,0.25,78,100.0
3733,G2,215.25,0.25,66,100.0
3734,C3,215.5,0.5,74,100.0
3735,G#2,215.5,0.5,97,100.0
3736,E-4,215.5,0.25,104,100.0
3737,B-4,215.5,0.25,104,100.0
3738,E4,215.5,0.5,87,100.0
3739,B-4,215.5,0.5,87,100.0
3740,E-3,215.5,0.25,84,100.0
3741,B-3,215.5,0.25,84,100.0
3742,C2,216.0,1.5,83,100.0
3743,G#2,216.0,0.5,89,100.0
3744,C2,216.0,1.0,89,100.0
3745,C3,216.0,1.5,76,100.0
3746,B-3,216.0,1.5,76,100.0
3747,E-4,216.0,1.5,76,100.0
3748,G#2,216.5,0.5,89,100.0
3749,G3,217.0,0.5,118,100.0
3750,D4,217.0,0.5,118,100.0
3751,D2,217.0,0.5,98,100.0
3752,G#2,217.0,0.5,98,100.0
3753,G2,217.5,1.5,82,100.0
3754,G#2,217.5,0.5,92,100.0
3755,C#4,217.5,1.0,118,100.0
3756,G3,217.5,1.0,118,100.0
3757,C3,217.5,1.5,78,100.0
3758,B-3,217.5,1.5,78,100.0
3759,E-4,217.5,1.5,78,100.0
3760,G#2,218.0,0.5,93,100.0
3761,C2,218.0,1.0,93,100.0
3762,C#4,218.5,0.5,116,100.0
3763,G#2,218.5,0.5,92,100.0
3764,D4,219.0,0.25,117,100.0
3765,C3,219.0,1.0,82,100.0
3766,C3,219.0,1.0,77,100.0
3767,B-3,219.0,1.0,77,100.0
3768,E-4,219.0,1.0,77,100.0
3769,D2,219.0,0.5,103,100.0
3770,G#2,219.0,0.5,103,100.0
3771,E4,219.25,0.5,117,100.0
3772,G#2,219.5,0.5,94,100.0
3773,F4,219.75,0.25,118,100.0
3774,D2,220.0,0.25,77,100.0
3775,C2,220.0,1.0,93,100.0
3776,G#2,220.0,0.5,93,100.0
3777,D2,220.25,0.5,78,100.0
3778,E4,220.5,1.5,127,100.0
3779,G#2,220.5,0.5,93,100.0
3780,D2,220.75,0.25,72,100.0
3781,A2,221.0,0.25,76,100.0
3782,F4,221.0,0.25,73,100.0
3783,C5,221.0,0.25,73,100.0
3784,D4,221.0,0.25,73,100.0
3785,A4,221.0,0.25,73,100.0
3786,G#2,221.0,0.5,98,100.0
3787,D2,221.0,0.5,98,100.0
3788,A2,221.25,0.25,76,100.0
3789,D4,221.25,0.5,105,100.0
3790,F4,221.25,0.5,105,100.0
3791,A4,221.25,0.5,105,100.0
3792,D4,221.25,0.25,73,100.0
3793,C5,221.25,0.25,73,100.0
3794,F4,221.25,0.25,73,100.0
3795,A4,221.25,0.25,73,100.0
3796,D3,221.5,0.5,73,100.0
3797,G#2,221.5,0.5,92,100.0
3798,C4,221.75,2.25,105,100.0
3799,F4,221.75,2.25,105,100.0
3800,A4,221.75,2.25,105,100.0
3801,D4,222.0,0.25,107,100.0
3802,D2,222.0,0.25,68,100.0
3803,C2,222.0,1.0,97,100.0
3804,G#2,222.0,0.5,97,100.0
3805,C4,222.25,0.25,99,100.0
3806,D2,222.25,0.5,72,100.0
3807,A3,222.5,0.25,107,100.0
3808,G#2,222.5,0.5,97,100.0
3809,C4,222.75,0.25,100,100.0
3810,D2,222.75,0.25,76,100.0
3811,E4,223.0,0.25,108,100.0
3812,A2,223.0,0.25,76,100.0
3813,C4,223.0,0.25,72,100.0
3814,E4,223.0,0.25,72,100.0
3815,G4,223.0,0.25,72,100.0
3816,C5,223.0,0.25,72,100.0
3817,G#2,223.0,0.5,103,100.0
3818,D2,223.0,0.5,103,100.0
3819,E4,223.25,0.75,121,100.0
3820,A2,223.25,0.25,74,100.0
3821,C4,223.25,0.25,69,100.0
3822,E4,223.25,0.25,69,100.0
3823,G4,223.25,0.25,69,100.0
3824,C5,223.25,0.25,69,100.0
3825,C3,223.5,0.5,72,100.0
3826,G#2,223.5,0.5,93,100.0
3827,D4,224.0,4.0,123,100.0
3828,B1,224.0,1.5,82,100.0
3829,C2,224.0,1.0,92,100.0
3830,E-3,224.0,0.5,80,100.0
3831,D4,224.0,1.5,79,100.0
3832,B3,224.0,1.5,79,100.0
3833,F4,224.0,1.5,79,100.0
3834,A4,224.0,1.5,79,100.0
3835,D2,224.5,0.25,90,100.0
3836,D2,224.75,0.25,90,100.0
3837,D2,225.0,0.5,90,100.0
3838,A4,225.0,0.5,113,100.0
3839,D4,225.0,0.5,113,100.0
3840,E2,225.5,1.5,82,100.0
3841,D4,225.5,1.0,113,100.0
3842,G#4,225.5,1.0,113,100.0
3843,D4,225.5,1.5,72,100.0
3844,G4,225.5,1.5,72,100.0
3845,B4,225.5,1.5,72,100.0
3846,E5,225.5,1.5,72,100.0
3847,D2,225.5,0.5,81,100.0
3848,C2,225.5,0.5,81,100.0
3849,E-3,225.5,0.5,81,100.0
3850,G#4,226.5,0.5,113,100.0
3851,A4,227.0,0.25,112,100.0
3852,D2,227.0,1.0,83,100.0
3853,C3,227.0,0.25,92,100.0
3854,D2,227.0,0.5,89,100.0
3855,G4,227.0,1.0,80,100.0
3856,D5,227.0,1.0,80,100.0
3857,E4,227.0,1.0,80,100.0
3858,B4,227.0,1.0,80,100.0
3859,B4,227.25,0.5,110,100.0
3860,C3,227.25,0.5,100,100.0
3861,C5,227.75,0.25,111,100.0
3862,C3,227.75,0.25,100,100.0
3863,A1,228.0,0.25,80,100.0
3864,G#2,228.0,0.5,84,100.0
3865,C2,228.0,1.0,96,100.0
3866,A1,228.25,0.5,80,100.0
3867,E4,228.5,0.5,109,100.0
3868,G#2,228.5,0.5,92,100.0
3869,A1,228.75,0.25,72,100.0
3870,G4,229.0,0.25,102,100.0
3871,E2,229.0,0.25,72,100.0
3872,A4,229.0,0.25,105,100.0
3873,C5,229.0,0.25,105,100.0
3874,E5,229.0,0.25,105,100.0
3875,E4,229.0,0.25,76,100.0
3876,C5,229.0,0.25,76,100.0
3877,A3,229.0,0.25,76,100.0
3878,A4,229.0,0.25,76,100.0
3879,D2,229.0,0.5,86,100.0
3880,G#2,229.0,0.5,86,100.0
3881,A4,229.25,0.25,107,100.0
3882,E2,229.25,0.25,73,100.0
3883,A4,229.25,0.5,106,100.0
3884,C5,229.25,0.5,106,100.0
3885,E5,229.25,0.5,106,100.0
3886,A4,229.25,0.25,76,100.0
3887,E4,229.25,0.25,76,100.0
3888,C5,229.25,0.25,76,100.0
3889,A3,229.25,0.25,76,100.0
3890,C5,229.5,0.5,100,100.0
3891,A2,229.5,0.5,74,100.0
3892,G#2,229.5,0.5,92,100.0
3893,G4,229.75,2.25,107,100.0
3894,C5,229.75,2.25,107,100.0
3895,E5,229.75,2.25,107,100.0
3896,E5,230.0,0.5,107,100.0
3897,C2,230.0,0.25,74,100.0
3898,C2,230.0,1.0,92,100.0
3899,G#2,230.0,0.5,96,100.0
3900,C2,230.25,0.5,67,100.0
3901,D5,230.5,0.25,108,100.0
3902,G#2,230.5,0.5,92,100.0
3903,C5,230.75,0.25,99,100.0
3904,C2,230.75,0.25,70,100.0
3905,D5,231.0,0.25,107,100.0
3906,G2,231.0,0.25,70,100.0
3907,C4,231.0,0.25,67,100.0
3908,G4,231.0,0.25,67,100.0
3909,E4,231.0,0.25,67,100.0
3910,C5,231.0,0.25,67,100.0
3911,D2,231.0,0.5,88,100.0
3912,G#2,231.0,0.5,88,100.0
3913,C5,231.25,0.25,95,100.0
3914,G2,231.25,0.25,65,100.0
3915,C4,231.25,0.25,81,100.0
3916,E4,231.25,0.25,81,100.0
3917,G4,231.25,0.25,81,100.0
3918,C5,231.25,0.25,81,100.0
3919,A4,231.5,0.5,106,100.0
3920,C3,231.5,0.5,67,100.0
3921,G#2,231.5,0.5,100,100.0
3922,C5,232.0,0.25,107,100.0
3923,F1,232.0,0.25,72,100.0
3924,C2,232.0,1.0,92,100.0
3925,E-3,232.0,0.5,96,100.0
3926,D5,232.25,0.25,106,100.0
3927,F1,232.25,0.5,67,100.0
3928,C5,232.5,3.25,104,100.0
3929,D2,232.5,0.25,90,100.0
3930,F1,232.75,0.25,69,100.0
3931,D2,232.75,0.25,87,100.0
3932,E5,233.0,0.25,107,100.0
3933,C2,233.0,0.25,75,100.0
3934,D2,233.0,0.5,91,100.0
3935,E4,233.0,0.25,66,100.0
3936,C5,233.0,0.25,66,100.0
3937,A4,233.0,0.25,66,100.0
3938,F3,233.0,0.25,66,100.0
3939,D5,233.25,0.5,107,100.0
3940,C2,233.25,0.25,67,100.0
3941,E4,233.25,0.25,77,100.0
3942,C5,233.25,0.25,77,100.0
3943,A4,233.25,0.25,77,100.0
3944,F3,233.25,0.25,77,100.0
3945,F2,233.5,0.5,64,100.0
3946,E-3,233.5,0.5,100,100.0
3947,D5,233.75,0.5,107,100.0
3948,E1,234.0,0.25,66,100.0
3949,C5,234.25,0.5,107,100.0
3950,E1,234.25,0.5,64,100.0
3951,D2,234.5,0.5,84,100.0
3952,C5,234.75,0.5,107,100.0
3953,E1,234.75,0.25,66,100.0
3954,B1,235.0,0.25,68,100.0
3955,A2,235.0,0.25,100,100.0
3956,G4,235.0,0.25,66,100.0
3957,E3,235.0,0.25,66,100.0
3958,D5,235.0,0.25,66,100.0
3959,B4,235.0,0.25,66,100.0
3960,B4,235.25,0.5,108,100.0
3961,B1,235.25,0.25,73,100.0
3962,A2,235.25,0.5,96,100.0
3963,D5,235.25,0.25,66,100.0
3964,G4,235.25,0.25,66,100.0
3965,B4,235.25,0.25,66,100.0
3966,E3,235.25,0.25,66,100.0
3967,E2,235.5,0.5,68,100.0
3968,E4,235.75,0.25,109,100.0
3969,B4,235.75,0.25,108,100.0
3970,A2,235.75,0.25,104,100.0
3971,F4,236.0,0.25,95,100.0
3972,B4,236.0,0.25,108,100.0
3973,D2,236.0,0.25,78,100.0
3974,C2,236.0,1.0,96,100.0
3975,G#2,236.0,0.5,84,100.0
3976,F4,236.0,0.5,72,100.0
3977,A4,236.0,0.5,72,100.0
3978,D5,236.0,0.5,72,100.0
3979,D4,236.0,0.5,72,100.0
3980,A4,236.25,0.25,108,100.0
3981,C5,236.25,0.5,109,100.0
3982,D2,236.25,0.5,75,100.0
3983,C5,236.5,0.25,98,100.0
3984,G#2,236.5,0.5,92,100.0
3985,F4,236.5,0.5,73,100.0
3986,D5,236.5,0.5,73,100.0
3987,A4,236.5,0.5,73,100.0
3988,D4,236.5,0.5,73,100.0
3989,D5,236.75,0.25,108,100.0
3990,C5,236.75,0.5,112,100.0
3991,D2,236.75,0.25,73,100.0
3992,E-5,237.0,0.25,97,100.0
3993,B1,237.0,0.25,69,100.0
3994,F4,237.0,0.5,73,100.0
3995,B3,237.0,0.5,73,100.0
3996,D5,237.0,0.5,73,100.0
3997,A4,237.0,0.5,73,100.0
3998,G#2,237.0,0.5,86,100.0
3999,D2,237.0,0.5,86,100.0
4000,F#5,237.25,0.25,110,100.0
4001,B4,237.25,0.5,113,100.0
4002,B1,237.25,0.5,70,100.0
4003,E-5,237.5,0.25,102,100.0
4004,G#2,237.5,0.5,92,100.0
4005,F4,237.5,0.5,73,100.0
4006,A4,237.5,0.5,73,100.0
4007,B3,237.5,0.5,73,100.0
4008,D5,237.5,0.5,73,100.0
4009,F#5,237.75,0.25,112,100.0
4010,E4,237.75,0.25,113,100.0
4011,B1,237.75,0.25,73,100.0
4012,G5,238.0,1.0,114,100.0
4013,E1,238.0,0.25,64,100.0
4014,G#2,238.0,0.5,96,100.0
4015,C2,238.0,1.0,92,100.0
4016,E1,238.25,0.5,71,100.0
4017,G#2,238.5,0.5,92,100.0
4018,E1,238.75,0.25,64,100.0
4019,F#5,239.0,1.0,111,100.0
4020,B1,239.0,0.25,67,100.0
4021,G4,239.0,0.25,113,100.0
4022,B4,239.0,0.25,113,100.0
4023,B4,239.0,0.25,59,100.0
4024,D5,239.0,0.25,59,100.0
4025,G4,239.0,0.25,59,100.0
4026,E4,239.0,0.25,59,100.0
4027,G#2,239.0,0.5,88,100.0
4028,D2,239.0,0.5,88,100.0
4029,B1,239.25,0.25,69,100.0
4030,G4,239.25,0.5,113,100.0
4031,B4,239.25,0.5,113,100.0
4032,E4,239.25,0.25,62,100.0
4033,G4,239.25,0.25,62,100.0
4034,B4,239.25,0.25,62,100.0
4035,D5,239.25,0.25,62,100.0
4036,E2,239.5,0.5,68,100.0
4037,G#2,239.5,0.5,100,100.0
4038,A4,239.75,0.75,113,100.0
4039,C5,239.75,0.75,113,100.0
4040,B4,240.0,0.25,109,100.0
4041,E1,240.0,0.25,72,100.0
4042,C2,240.0,1.0,96,100.0
4043,E-3,240.0,0.5,90,100.0
4044,G#2,240.0,0.5,90,100.0
4045,D5,240.25,0.25,109,100.0
4046,E1,240.25,0.5,68,100.0
4047,E5,240.5,0.25,97,100.0
4048,G#2,240.5,0.5,92,100.0
4049,G4,240.5,0.5,111,100.0
4050,B4,240.5,0.5,111,100.0
4051,F#5,240.75,0.25,106,100.0
4052,E1,240.75,0.25,72,100.0
4053,G5,241.0,0.25,93,100.0
4054,B1,241.0,0.25,76,100.0
4055,F#4,241.0,0.5,110,100.0
4056,A4,241.0,0.5,110,100.0
4057,D5,241.0,0.25,62,100.0
4058,E4,241.0,0.25,62,100.0
4059,G4,241.0,0.25,62,100.0
4060,B4,241.0,0.25,62,100.0
4061,D2,241.0,0.5,86,100.0
4062,G#2,241.0,0.5,86,100.0
4063,F#5,241.25,0.25,106,100.0
4064,B1,241.25,0.25,73,100.0
4065,D5,241.25,0.25,66,100.0
4066,G4,241.25,0.25,66,100.0
4067,B4,241.25,0.25,66,100.0
4068,E4,241.25,0.25,66,100.0
4069,F5,241.5,0.25,95,100.0
4070,E2,241.5,0.5,76,100.0
4071,G#2,241.5,0.5,92,100.0
4072,G4,241.5,0.5,102,100.0
4073,B4,241.5,0.5,102,100.0
4074,G4,241.75,0.25,106,100.0
4075,A4,242.0,0.25,97,100.0
4076,D2,242.0,0.25,79,100.0
4077,C2,242.0,1.0,92,100.0
4078,E-3,242.0,0.5,98,100.0
4079,G#2,242.0,0.5,98,100.0
4080,D5,242.25,0.25,107,100.0
4081,D2,242.25,0.5,73,100.0
4082,E5,242.5,0.25,91,100.0
4083,G#2,242.5,0.5,92,100.0
4084,A4,242.75,0.25,104,100.0
4085,D2,242.75,0.25,74,100.0
4086,D5,243.0,0.25,88,100.0
4087,A1,243.0,0.25,76,100.0
4088,F#4,243.0,0.25,101,100.0
4089,A4,243.0,0.25,101,100.0
4090,D4,243.0,0.25,81,100.0
4091,A4,243.0,0.25,81,100.0
4092,F#4,243.0,0.25,81,100.0
4093,D5,243.0,0.25,81,100.0
4094,D2,243.0,0.5,88,100.0
4095,G#2,243.0,0.5,88,100.0
4096,A4,243.25,0.25,101,100.0
4097,A1,243.25,0.25,77,100.0
4098,B4,243.25,0.5,99,100.0
4099,G4,243.25,0.5,99,100.0
4100,A4,243.25,0.25,81,100.0
4101,F#4,243.25,0.25,81,100.0
4102,D5,243.25,0.25,81,100.0
4103,D4,243.25,0.25,81,100.0
4104,D5,243.5,0.25,94,100.0
4105,D2,243.5,0.5,81,100.0
4106,G#2,243.5,0.5,100,100.0
4107,A5,243.75,1.25,107,100.0
4108,A4,243.75,0.75,99,100.0
4109,C5,243.75,0.75,99,100.0
4110,D2,244.0,0.25,79,100.0
4111,C2,244.0,1.0,100,100.0
4112,G#2,244.0,0.5,86,100.0
4113,E-3,244.0,0.5,86,100.0
4114,D2,244.25,0.5,85,100.0
4115,G#2,244.5,0.5,100,100.0
4116,B4,244.5,0.5,98,100.0
4117,G4,244.5,0.5,98,100.0
4118,D2,244.75,0.25,82,100.0
4119,A1,245.0,0.25,81,100.0
4120,F#4,245.0,0.5,99,100.0
4121,A4,245.0,0.5,99,100.0
4122,D4,245.0,0.25,80,100.0
4123,F#4,245.0,0.25,80,100.0
4124,A4,245.0,0.25,80,100.0
4125,D5,245.0,0.25,80,100.0
4126,D2,245.0,0.5,86,100.0
4127,G#2,245.0,0.5,86,100.0
4128,B5,245.25,0.25,101,100.0
4129,A1,245.25,0.25,80,100.0
4130,D4,245.25,0.25,80,100.0
4131,A4,245.25,0.25,80,100.0
4132,F#4,245.25,0.25,80,100.0
4133,D5,245.25,0.25,80,100.0
4134,A5,245.5,0.25,100,100.0
4135,D2,245.5,0.5,84,100.0
4136,G#2,245.5,0.5,100,100.0
4137,G4,245.5,0.5,104,100.0
4138,B4,245.5,0.5,104,100.0
4139,G5,245.75,0.25,101,100.0
4140,A5,246.0,0.5,106,100.0
4141,C2,246.0,0.25,72,100.0
4142,C2,246.0,1.0,96,100.0
4143,E-3,246.0,0.5,90,100.0
4144,G#2,246.0,0.5,90,100.0
4145,C2,246.25,0.5,76,100.0
4146,G5,246.5,0.5,105,100.0
4147,G#2,246.5,0.5,92,100.0
4148,C2,246.75,0.25,76,100.0
4149,D5,247.0,0.5,102,100.0
4150,G2,247.0,0.25,81,100.0
4151,D4,247.0,0.25,104,100.0
4152,E4,247.0,0.25,104,100.0
4153,G4,247.0,0.25,104,100.0
4154,E4,247.0,0.25,66,100.0
4155,C5,247.0,0.25,66,100.0
4156,C4,247.0,0.25,66,100.0
4157,G4,247.0,0.25,66,100.0
4158,D2,247.0,0.5,86,100.0
4159,G#2,247.0,0.5,86,100.0
4160,G2,247.25,0.25,73,100.0
4161,E4,247.25,0.25,106,100.0
4162,D4,247.25,0.25,106,100.0
4163,G4,247.25,0.25,106,100.0
4164,C4,247.25,0.25,63,100.0
4165,G4,247.25,0.25,63,100.0
4166,E4,247.25,0.25,63,100.0
4167,C5,247.25,0.25,63,100.0
4168,G5,247.5,0.25,102,100.0
4169,C3,247.5,0.5,71,100.0
4170,G#2,247.5,0.5,92,100.0
4171,E5,247.75,0.5,102,100.0
4172,C2,248.0,0.25,78,100.0
4173,C2,248.0,1.0,92,100.0
4174,G#2,248.0,0.5,96,100.0
4175,B4,248.25,1.75,106,100.0
4176,C2,248.25,0.5,76,100.0
4177,G#2,248.5,0.5,92,100.0
4178,C2,248.75,0.25,76,100.0
4179,G1,249.0,0.25,75,100.0
4180,D4,249.0,1.0,105,100.0
4181,G4,249.0,1.0,105,100.0
4182,E4,249.0,1.0,105,100.0
4183,C4,249.0,0.25,64,100.0
4184,G4,249.0,0.25,64,100.0
4185,E4,249.0,0.25,64,100.0
4186,C5,249.0,0.25,64,100.0
4187,D2,249.0,0.5,88,100.0
4188,G#2,249.0,0.5,88,100.0
4189,G1,249.25,0.25,83,100.0
4190,G4,249.25,0.25,71,100.0
4191,E4,249.25,0.25,71,100.0
4192,C5,249.25,0.25,71,100.0
4193,C4,249.25,0.25,71,100.0
4194,C2,249.5,0.5,81,100.0
4195,G#2,249.5,0.5,100,100.0
4196,B4,250.0,0.25,100,100.0
4197,E1,250.0,0.25,76,100.0
4198,G#2,250.0,0.5,84,100.0
4199,C2,250.0,1.0,96,100.0
4200,B4,250.0,2.0,105,100.0
4201,E4,250.0,2.0,105,100.0
4202,G4,250.0,2.0,105,100.0
4203,D5,250.25,0.25,109,100.0
4204,E1,250.25,0.5,84,100.0
4205,E5,250.5,0.25,100,100.0
4206,G#2,250.5,0.5,92,100.0
4207,G5,250.75,0.25,108,100.0
4208,E1,250.75,0.25,77,100.0
4209,B5,251.0,0.25,99,100.0
4210,B1,251.0,0.25,84,100.0
4211,G4,251.0,0.25,71,100.0
4212,B4,251.0,0.25,71,100.0
4213,E4,251.0,0.25,71,100.0
4214,D5,251.0,0.25,71,100.0
4215,D2,251.0,0.5,86,100.0
4216,G#2,251.0,0.5,86,100.0
4217,G5,251.25,0.25,106,100.0
4218,B1,251.25,0.25,81,100.0
4219,G4,251.25,0.25,66,100.0
4220,B4,251.25,0.25,66,100.0
4221,D5,251.25,0.25,66,100.0
4222,E4,251.25,0.25,66,100.0
4223,A5,251.5,0.25,97,100.0
4224,E2,251.5,0.5,78,100.0
4225,G#2,251.5,0.5,92,100.0
4226,B5,251.75,0.25,106,100.0
4227,F#5,252.0,0.25,97,100.0
4228,D2,252.0,0.25,76,100.0
4229,C2,252.0,1.0,92,100.0
4230,G#2,252.0,0.5,96,100.0
4231,A4,252.0,2.0,101,100.0
4232,D4,252.0,2.0,101,100.0
4233,F#4,252.0,2.0,101,100.0
4234,D5,252.25,0.25,107,100.0
4235,D2,252.25,0.5,80,100.0
4236,B4,252.5,0.25,98,100.0
4237,G#2,252.5,0.5,92,100.0
4238,A4,252.75,0.25,106,100.0
4239,D2,252.75,0.25,78,100.0
4240,B4,253.0,0.25,99,100.0
4241,A2,253.0,0.25,76,100.0
4242,D4,253.0,0.25,78,100.0
4243,A4,253.0,0.25,78,100.0
4244,F#4,253.0,0.25,78,100.0
4245,E5,253.0,0.25,78,100.0
4246,D2,253.0,0.5,88,100.0
4247,G#2,253.0,0.5,88,100.0
4248,D5,253.25,0.25,108,100.0
4249,A2,253.25,0.25,76,100.0
4250,D4,253.25,0.25,78,100.0
4251,E5,253.25,0.25,78,100.0
4252,A4,253.25,0.25,78,100.0
4253,F#4,253.25,0.25,78,100.0
4254,E5,253.5,0.25,100,100.0
4255,E2,253.5,0.5,75,100.0
4256,G#2,253.5,0.5,100,100.0
4257,G5,253.75,0.25,108,100.0
4258,B5,254.0,0.5,100,100.0
4259,A1,254.0,0.25,67,100.0
4260,C2,254.0,1.0,96,100.0
4261,G#2,254.0,0.5,84,100.0
4262,A1,254.25,0.5,72,100.0
4263,A5,254.5,1.0,106,100.0
4264,G#2,254.5,0.5,92,100.0
4265,A1,254.75,0.25,72,100.0
4266,E2,255.0,0.25,72,100.0
4267,B3,255.0,0.25,101,100.0
4268,D4,255.0,0.25,101,100.0
4269,E4,255.0,0.25,76,100.0
4270,G4,255.0,0.25,76,100.0
4271,C5,255.0,0.25,76,100.0
4272,A3,255.0,0.25,76,100.0
4273,G#2,255.0,0.5,86,100.0
4274,D2,255.0,0.5,86,100.0
4275,E2,255.25,0.25,73,100.0
4276,C4,255.25,0.5,101,100.0
4277,E4,255.25,0.5,101,100.0
4278,E4,255.25,0.25,75,100.0
4279,C5,255.25,0.25,75,100.0
4280,G4,255.25,0.25,75,100.0
4281,A3,255.25,0.25,75,100.0
4282,E4,255.5,0.25,102,100.0
4283,A2,255.5,0.5,65,100.0
4284,G#2,255.5,0.5,92,100.0
4285,A4,255.75,0.25,104,100.0
4286,F4,255.75,0.75,103,100.0
4287,D4,255.75,0.75,103,100.0
4288,C5,256.0,0.5,108,100.0
4289,A1,256.0,0.25,66,100.0
4290,G#2,256.0,0.5,96,100.0
4291,C2,256.0,1.0,92,100.0
4292,A1,256.25,0.5,73,100.0
4293,B4,256.5,0.5,107,100.0
4294,G#2,256.5,0.5,92,100.0
4295,C4,256.547,0.5,102,100.0
4296,E4,256.547,0.5,102,100.0
4297,A1,256.75,0.25,67,100.0
4298,A4,257.0,0.5,98,100.0
4299,E2,257.0,0.25,66,100.0
4300,E4,257.0,0.25,72,100.0
4301,C5,257.0,0.25,72,100.0
4302,G4,257.0,0.25,72,100.0
4303,A3,257.0,0.25,72,100.0
4304,G#2,257.0,0.5,88,100.0
4305,D2,257.0,0.5,88,100.0
4306,B3,257.047,0.5,98,100.0
4307,D4,257.047,0.5,98,100.0
4308,E2,257.25,0.25,69,100.0
4309,E4,257.25,0.25,72,100.0
4310,C5,257.25,0.25,72,100.0
4311,G4,257.25,0.25,72,100.0
4312,A3,257.25,0.25,72,100.0
4313,B4,257.5,0.5,107,100.0
4314,G2,257.5,0.5,67,100.0
4315,G#2,257.5,0.5,100,100.0
4316,E4,257.547,0.453,94,100.0
4317,C4,257.547,0.453,94,100.0
4318,A4,258.0,0.25,101,100.0
4319,G1,258.0,0.25,70,100.0
4320,G#2,258.0,0.5,88,100.0
4321,C2,258.0,1.0,100,100.0
4322,E4,258.0,0.047,94,100.0
4323,C4,258.0,0.047,94,100.0
4324,B4,258.25,0.25,110,100.0
4325,G1,258.25,0.5,74,100.0
4326,G4,258.5,0.25,104,100.0
4327,G#2,258.5,0.5,92,100.0
4328,E4,258.75,0.25,107,100.0
4329,G1,258.75,0.25,64,100.0
4330,D4,259.0,0.25,102,100.0
4331,D2,259.0,0.25,66,100.0
4332,D4,259.0,0.25,97,100.0
4333,B3,259.0,0.25,97,100.0
4334,D4,259.0,0.25,60,100.0
4335,B4,259.0,0.25,60,100.0
4336,G4,259.0,0.25,60,100.0
4337,G3,259.0,0.25,60,100.0
4338,G#2,259.0,0.5,95,100.0
4339,D2,259.0,0.5,95,100.0
4340,D5,259.25,0.5,110,100.0
4341,D2,259.25,0.25,67,100.0
4342,E4,259.25,0.5,105,100.0
4343,C4,259.25,0.5,105,100.0
4344,B4,259.25,0.25,70,100.0
4345,D4,259.25,0.25,70,100.0
4346,G4,259.25,0.25,70,100.0
4347,G3,259.25,0.25,70,100.0
4348,G2,259.5,0.5,70,100.0
4349,G#2,259.5,0.5,88,100.0
4350,D2,259.5,0.25,89,100.0
4351,G4,259.75,1.25,106,100.0
4352,D2,259.75,0.25,96,100.0
4353,D4,259.75,0.75,103,100.0
4354,F4,259.75,0.75,103,100.0
4355,G1,260.0,0.25,77,100.0
4356,A2,260.0,0.25,100,100.0
4357,G1,260.25,0.5,70,100.0
4358,A2,260.25,0.25,96,100.0
4359,C3,260.5,0.25,100,100.0
4360,E4,260.547,0.5,97,100.0
4361,C4,260.547,0.5,97,100.0
4362,G1,260.75,0.25,66,100.0
4363,C3,260.75,0.25,98,100.0
4364,D2,261.0,0.25,70,100.0
4365,B2,261.0,0.25,91,100.0
4366,G3,261.0,0.25,72,100.0
4367,D4,261.0,0.25,72,100.0
4368,G4,261.0,0.25,72,100.0
4369,B4,261.0,0.25,72,100.0
4370,D4,261.047,0.5,99,100.0
4371,B3,261.047,0.5,99,100.0
4372,A3,261.25,0.25,105,100.0
4373,D2,261.25,0.25,65,100.0
4374,B2,261.25,0.25,98,100.0
4375,D4,261.25,0.25,73,100.0
4376,B4,261.25,0.25,73,100.0
4377,G4,261.25,0.25,73,100.0
4378,G3,261.25,0.25,73,100.0
4379,C4,261.5,0.25,94,100.0
4380,G2,261.5,0.5,70,100.0
4381,F2,261.5,0.25,98,100.0
4382,C4,261.547,0.453,90,100.0
4383,E4,261.547,0.453,90,100.0
4384,E4,261.75,0.25,101,100.0
4385,F2,261.75,0.25,92,100.0
4386,G4,262.0,0.25,99,100.0
4387,F1,262.0,0.25,70,100.0
4388,C2,262.0,1.0,96,100.0
4389,C4,262.0,0.047,90,100.0
4390,E4,262.0,0.047,90,100.0
4391,G#2,262.0,0.5,90,100.0
4392,E-3,262.0,0.5,90,100.0
4393,E4,262.25,0.25,89,100.0
4394,F1,262.25,0.5,72,100.0
4395,A4,262.5,0.25,103,100.0
4396,G#2,262.5,0.5,92,100.0
4397,E4,262.75,0.25,91,100.0
4398,F1,262.75,0.25,77,100.0
4399,C5,263.0,0.25,103,100.0
4400,C2,263.0,0.25,73,100.0
4401,C5,263.0,0.25,76,100.0
4402,F4,263.0,0.25,76,100.0
4403,A4,263.0,0.25,76,100.0
4404,F3,263.0,0.25,76,100.0
4405,G#2,263.0,0.5,86,100.0
4406,D2,263.0,0.5,86,100.0
4407,G4,263.047,0.25,91,100.0
4408,D4,263.047,0.25,91,100.0
4409,A3,263.047,0.25,91,100.0
4410,E4,263.25,0.25,91,100.0
4411,C2,263.25,0.25,74,100.0
4412,C5,263.25,0.25,76,100.0
4413,F4,263.25,0.25,76,100.0
4414,A4,263.25,0.25,76,100.0
4415,F3,263.25,0.25,76,100.0
4416,A3,263.297,0.25,93,100.0
4417,G4,263.297,0.25,93,100.0
4418,D4,263.297,0.25,93,100.0
4419,D5,263.5,0.25,100,100.0
4420,F2,263.5,0.5,68,100.0
4421,G#2,263.5,0.5,92,100.0
4422,E4,263.75,0.25,93,100.0
4423,E5,264.0,0.5,107,100.0
4424,F1,264.0,0.25,66,100.0
4425,G#2,264.0,0.5,96,100.0
4426,C2,264.0,1.0,92,100.0
4427,F1,264.25,0.5,70,100.0
4428,A4,264.5,0.25,93,100.0
4429,G#2,264.5,0.5,92,100.0
4430,C5,264.75,1.0,109,100.0
4431,F1,264.75,0.25,72,100.0
4432,C2,265.0,0.25,75,100.0
4433,C5,265.0,0.25,74,100.0
4434,A4,265.0,0.25,74,100.0
4435,F4,265.0,0.25,74,100.0
4436,F3,265.0,0.25,74,100.0
4437,G#2,265.0,0.5,88,100.0
4438,D2,265.0,0.5,88,100.0
4439,G4,265.047,0.953,96,100.0
4440,D4,265.047,0.953,96,100.0
4441,A3,265.047,0.953,96,100.0
4442,C2,265.25,0.25,76,100.0
4443,C5,265.25,0.25,73,100.0
4444,A4,265.25,0.25,73,100.0
4445,F4,265.25,0.25,73,100.0
4446,F3,265.25,0.25,73,100.0
4447,F2,265.5,0.5,69,100.0
4448,G#2,265.5,0.5,100,100.0
4449,D5,265.75,0.25,109,100.0
4450,B-4,266.0,0.25,99,100.0
4451,B-1,266.0,0.25,73,100.0
4452,C2,266.0,1.0,96,100.0
4453,G#2,266.0,0.5,84,100.0
4454,G4,266.0,0.047,96,100.0
4455,D4,266.0,0.047,96,100.0
4456,A3,266.0,0.047,96,100.0
4457,C5,266.25,0.25,111,100.0
4458,B-1,266.25,0.5,78,100.0
4459,G#4,266.5,0.25,104,100.0
4460,G#2,266.5,0.5,92,100.0
4461,C5,266.75,0.25,111,100.0
4462,B-1,266.75,0.25,75,100.0
4463,G4,267.0,0.25,103,100.0
4464,F2,267.0,0.25,73,100.0
4465,F4,267.0,0.25,75,100.0
4466,D4,267.0,0.25,75,100.0
4467,G#4,267.0,0.25,75,100.0
4468,B-3,267.0,0.25,75,100.0
4469,G5,267.0,0.25,75,100.0
4470,G#2,267.0,0.5,86,100.0
4471,D2,267.0,0.5,86,100.0
4472,G#3,267.047,0.25,96,100.0
4473,G4,267.047,0.25,96,100.0
4474,D4,267.047,0.25,96,100.0
4475,E4,267.25,0.25,109,100.0
4476,F2,267.25,0.25,73,100.0
4477,F4,267.25,0.25,77,100.0
4478,D4,267.25,0.25,77,100.0
4479,G#4,267.25,0.25,77,100.0
4480,G5,267.25,0.25,77,100.0
4481,B-3,267.25,0.25,77,100.0
4482,G#3,267.297,0.25,95,100.0
4483,G4,267.297,0.25,95,100.0
4484,D4,267.297,0.25,95,100.0
4485,C4,267.5,0.25,98,100.0
4486,B-2,267.5,0.5,69,100.0
4487,G#2,267.5,0.5,92,100.0
4488,B-3,267.75,0.25,105,100.0
4489,G#3,267.797,0.25,100,100.0
4490,G4,267.797,0.25,100,100.0
4491,D4,267.797,0.25,100,100.0
4492,A3,268.0,2.0,99,100.0
4493,B-1,268.0,0.25,72,100.0
4494,G#2,268.0,0.5,96,100.0
4495,C2,268.0,1.0,92,100.0
4496,B-1,268.25,0.5,71,100.0
4497,G4,268.297,0.25,99,100.0
4498,G#3,268.297,0.25,99,100.0
4499,D4,268.297,0.25,99,100.0
4500,G#2,268.5,0.5,92,100.0
4501,B-1,268.75,0.25,72,100.0
4502,F2,269.0,0.25,72,100.0
4503,F4,269.0,0.25,73,100.0
4504,D4,269.0,0.25,73,100.0
4505,B-3,269.0,0.25,73,100.0
4506,G#4,269.0,0.25,73,100.0
4507,G5,269.0,0.25,73,100.0
4508,G#2,269.0,0.5,88,100.0
4509,D2,269.0,0.5,88,100.0
4510,G#3,269.047,0.5,95,100.0
4511,G4,269.047,0.5,95,100.0
4512,D4,269.047,0.5,95,100.0
4513,F2,269.25,0.25,73,100.0
4514,F4,269.25,0.25,73,100.0
4515,D4,269.25,0.25,73,100.0
4516,B-3,269.25,0.25,73,100.0
4517,G#4,269.25,0.25,73,100.0
4518,G5,269.25,0.25,73,100.0
4519,G#2,269.5,0.5,73,100.0
4520,G#2,269.5,0.5,100,100.0
4521,G#3,269.547,0.453,97,100.0
4522,G4,269.547,0.453,97,100.0
4523,D4,269.547,0.453,97,100.0
4524,D2,270.0,0.25,75,100.0
4525,G#2,270.0,0.5,84,100.0
4526,C2,270.0,1.0,96,100.0
4527,G#3,270.0,0.047,97,100.0
4528,G4,270.0,0.047,97,100.0
4529,D4,270.0,0.047,97,100.0
4530,G#3,270.25,0.25,107,100.0
4531,D2,270.25,0.5,73,100.0
4532,A3,270.5,0.25,103,100.0
4533,G#2,270.5,0.5,92,100.0
4534,C4,270.75,0.25,108,100.0
4535,D2,270.75,0.25,75,100.0
4536,E4,271.0,0.25,98,100.0
4537,A2,271.0,0.25,77,100.0
4538,D4,271.0,0.25,70,100.0
4539,F4,271.0,0.25,70,100.0
4540,C5,271.0,0.25,70,100.0
4541,A4,271.0,0.25,70,100.0
4542,D2,271.0,0.5,86,100.0
4543,G#2,271.0,0.5,86,100.0
4544,A3,271.047,0.5,96,100.0
4545,F3,271.047,0.5,96,100.0
4546,D4,271.047,0.5,96,100.0
4547,C4,271.25,0.25,107,100.0
4548,A2,271.25,0.25,80,100.0
4549,D4,271.25,0.25,69,100.0
4550,A4,271.25,0.25,69,100.0
4551,C5,271.25,0.25,69,100.0
4552,F4,271.25,0.25,69,100.0
4553,D4,271.5,0.25,101,100.0
4554,F2,271.5,0.5,72,100.0
4555,G#2,271.5,0.5,92,100.0
4556,E4,271.547,0.25,95,100.0
4557,C4,271.75,0.25,109,100.0
4558,B3,271.797,2.203,94,100.0
4559,G3,271.797,2.203,94,100.0
4560,D4,271.797,2.203,94,100.0
4561,A3,272.0,0.25,101,100.0
4562,G1,272.0,0.25,79,100.0
4563,C2,272.0,1.0,92,100.0
4564,G#2,272.0,0.5,96,100.0
4565,B3,272.25,0.25,111,100.0
4566,G1,272.25,0.5,75,100.0
4567,D4,272.5,0.25,102,100.0
4568,G#2,272.5,0.5,92,100.0
4569,G4,272.75,0.25,108,100.0
4570,G1,272.75,0.25,77,100.0
4571,D4,273.0,0.25,99,100.0
4572,D2,273.0,0.25,76,100.0
4573,G4,273.0,0.25,69,100.0
4574,B4,273.0,0.25,69,100.0
4575,G3,273.0,0.25,69,100.0
4576,D5,273.0,0.25,69,100.0
4577,D2,273.0,0.5,88,100.0
4578,G#2,273.0,0.5,88,100.0
4579,G4,273.25,0.75,107,100.0
4580,D2,273.25,0.25,80,100.0
4581,B4,273.25,0.25,67,100.0
4582,D5,273.25,0.25,67,100.0
4583,G4,273.25,0.25,67,100.0
4584,G3,273.25,0.25,67,100.0
4585,G2,273.5,0.5,82,100.0
4586,G#2,273.5,0.5,100,100.0
4587,A1,274.0,0.25,80,100.0
4588,G#2,274.0,0.5,84,100.0
4589,C2,274.0,1.0,96,100.0
4590,E4,274.047,2.0,99,100.0
4591,C4,274.047,2.0,99,100.0
4592,G3,274.047,2.0,99,100.0
4593,A1,274.25,0.5,75,100.0
4594,C5,274.5,0.5,103,100.0
4595,G#2,274.5,0.5,92,100.0
4596,A1,274.75,0.25,74,100.0
4597,B4,275.0,1.0,116,100.0
4598,E2,275.0,0.25,82,100.0
4599,C5,275.0,0.25,71,100.0
4600,E4,275.0,0.25,71,100.0
4601,A4,275.0,0.25,71,100.0
4602,A3,275.0,0.25,71,100.0
4603,D2,275.0,0.5,86,100.0
4604,G#2,275.0,0.5,86,100.0
4605,E2,275.25,0.25,75,100.0
4606,C5,275.25,0.25,68,100.0
4607,E4,275.25,0.25,68,100.0
4608,A4,275.25,0.25,68,100.0
4609,A3,275.25,0.25,68,100.0
4610,A2,275.5,0.5,79,100.0
4611,G#2,275.5,0.5,92,100.0
4612,A4,276.0,0.5,106,100.0
4613,C2,276.0,0.25,82,100.0
4614,C2,276.0,1.0,92,100.0
4615,G#2,276.0,0.5,96,100.0
4616,G3,276.047,1.953,96,100.0
4617,C4,276.047,1.953,96,100.0
4618,E4,276.047,1.953,96,100.0
4619,C2,276.25,0.5,81,100.0
4620,E4,276.5,0.5,101,100.0
4621,G#2,276.5,0.5,92,100.0
4622,C2,276.75,0.25,76,100.0
4623,D4,277.0,0.25,94,100.0
4624,G2,277.0,0.25,75,100.0
4625,D4,277.0,0.25,71,100.0
4626,G4,277.0,0.25,71,100.0
4627,B4,277.0,0.25,71,100.0
4628,G3,277.0,0.25,71,100.0
4629,D2,277.0,0.5,88,100.0
4630,G#2,277.0,0.5,88,100.0
4631,D4,277.25,0.25,107,100.0
4632,G2,277.25,0.25,84,100.0
4633,D4,277.25,0.25,71,100.0
4634,B4,277.25,0.25,71,100.0
4635,G4,277.25,0.25,71,100.0
4636,G3,277.25,0.25,71,100.0
4637,E4,277.5,0.5,98,100.0
4638,G1,277.5,0.5,80,100.0
4639,G#2,277.5,0.5,100,100.0
4640,E4,278.0,0.25,98,100.0
4641,D2,278.0,1.5,80,100.0
4642,G#2,278.0,0.5,88,100.0
4643,C2,278.0,1.0,100,100.0
4644,G3,278.0,0.047,96,100.0
4645,C4,278.0,0.047,96,100.0
4646,E4,278.0,0.047,96,100.0
4647,A3,278.047,1.5,98,100.0
4648,F3,278.047,1.5,98,100.0
4649,C4,278.047,1.5,98,100.0
4650,A3,278.25,0.25,102,100.0
4651,D4,278.5,0.25,108,100.0
4652,G#2,278.5,0.5,92,100.0
4653,A3,278.75,0.25,98,100.0
4654,E4,279.0,0.75,109,100.0
4655,G#2,279.0,0.5,95,100.0
4656,D2,279.0,0.5,95,100.0
4657,G2,279.5,0.5,80,100.0
4658,G#2,279.5,0.5,88,100.0
4659,D2,279.5,0.25,89,100.0
4660,E4,279.547,0.5,96,100.0
4661,B3,279.547,0.5,96,100.0
4662,G3,279.547,0.5,96,100.0
4663,A3,279.75,0.25,108,100.0
4664,D2,279.75,0.25,96,100.0
4665,D4,280.0,0.25,103,100.0
4666,F2,280.0,2.0,80,100.0
4667,A2,280.0,0.25,100,100.0
4668,D4,280.047,1.953,102,100.0
4669,A3,280.047,1.953,102,100.0
4670,F3,280.047,1.953,102,100.0
4671,A3,280.25,0.25,110,100.0
4672,A2,280.25,0.25,96,100.0
4673,E4,280.5,0.75,102,100.0
4674,C3,280.5,0.25,100,100.0
4675,C3,280.75,0.25,98,100.0
4676,B2,281.0,0.25,91,100.0
4677,E3,281.25,0.25,110,100.0
4678,B2,281.25,0.25,98,100.0
4679,G3,281.5,0.25,103,100.0
4680,F2,281.5,0.25,98,100.0
4681,A3,281.75,0.25,119,100.0
4682,F2,281.75,0.25,92,100.0
4683,B-3,282.0,0.25,112,100.0
4684,E2,282.0,1.5,78,100.0
4685,C2,282.0,1.0,88,100.0
4686,E-3,282.0,0.5,92,100.0
4687,D4,282.047,1.5,102,100.0
4688,B3,282.047,1.5,102,100.0
4689,G3,282.047,1.5,102,100.0
4690,D4,282.047,0.047,102,100.0
4691,A3,282.047,0.047,102,100.0
4692,F3,282.047,0.047,102,100.0
4693,B3,282.25,0.25,120,100.0
4694,D4,282.5,0.25,111,100.0
4695,B2,282.5,0.25,92,100.0
4696,B3,282.75,0.25,120,100.0
4697,B2,282.75,0.25,88,100.0
4698,C4,283.0,0.25,110,100.0
4699,E4,283.25,0.25,120,100.0
4700,A2,283.25,0.25,92,100.0
4701,G4,283.5,0.25,113,100.0
4702,A2,283.5,0.5,78,100.0
4703,A2,283.5,0.5,96,100.0
4704,C4,283.547,0.5,108,100.0
4705,E4,283.547,0.5,108,100.0
4706,A3,283.547,0.5,108,100.0
4707,G#4,283.75,0.25,121,100.0
4708,A4,284.0,0.25,109,100.0
4709,D2,284.0,0.75,73,100.0
4710,D2,284.0,0.75,96,100.0
4711,G4,284.047,0.75,106,100.0
4712,C4,284.047,0.75,106,100.0
4713,E4,284.047,0.75,106,100.0
4714,C5,284.25,0.25,121,100.0
4715,D5,284.5,0.25,114,100.0
4716,C2,284.75,0.75,74,100.0
4717,D3,284.75,0.25,96,100.0
4718,B4,284.797,0.75,101,100.0
4719,G4,284.797,0.75,101,100.0
4720,E4,284.797,0.75,101,100.0
4721,E-5,285.0,0.25,123,100.0
4722,D5,285.25,0.25,118,100.0
4723,A2,285.25,0.25,104,100.0
4724,C5,285.5,0.25,125,100.0
4725,B1,285.5,0.5,74,100.0
4726,A2,285.5,0.5,96,100.0
4727,D4,285.547,0.5,98,100.0
4728,A4,285.547,0.5,98,100.0
4729,F4,285.547,0.5,98,100.0
4730,B-4,285.75,0.25,116,100.0
4731,B-4,286.0,4.0,116,100.0
4732,C2,286.0,0.25,78,100.0
4733,C2,286.0,1.0,96,100.0
4734,E-3,286.0,0.5,88,100.0
4735,C2,286.25,0.5,78,100.0
4736,G#2,286.5,0.5,92,100.0
4737,E4,286.547,0.75,101,100.0
4738,B-3,286.547,0.75,101,100.0
4739,C2,286.75,0.25,77,100.0
4740,G2,287.0,0.25,81,100.0
4741,G4,287.0,0.25,60,100.0
4742,B4,287.0,0.25,60,100.0
4743,E4,287.0,0.25,60,100.0
4744,E-5,287.0,0.25,60,100.0
4745,C4,287.0,0.25,60,100.0
4746,D2,287.0,0.5,86,100.0
4747,G#2,287.0,0.5,86,100.0
4748,G2,287.25,0.25,77,100.0
4749,C4,287.25,0.25,71,100.0
4750,E4,287.25,0.25,71,100.0
4751,B4,287.25,0.25,71,100.0
4752,E-5,287.25,0.25,71,100.0
4753,G4,287.25,0.25,71,100.0
4754,B-3,287.297,0.75,101,100.0
4755,E4,287.297,0.75,101,100.0
4756,C3,287.5,0.5,78,100.0
4757,G#2,287.5,0.5,92,100.0
4758,C2,288.0,0.25,77,100.0
4759,C2,288.0,1.0,92,100.0
4760,G#2,288.0,0.5,96,100.0
4761,E4,288.047,0.75,101,100.0
4762,B-3,288.047,0.75,101,100.0
4763,C2,288.25,0.5,77,100.0
4764,G#2,288.5,0.5,92,100.0
4765,C2,288.75,0.25,77,100.0
4766,E4,288.797,0.75,102,100.0
4767,B-3,288.797,0.75,102,100.0
4768,G2,289.0,0.25,81,100.0
4769,E4,289.0,0.25,70,100.0
4770,G4,289.0,0.25,70,100.0
4771,C4,289.0,0.25,70,100.0
4772,B4,289.0,0.25,70,100.0
4773,E-5,289.0,0.25,70,100.0
4774,D2,289.0,0.5,88,100.0
4775,G#2,289.0,0.5,88,100.0
4776,G2,289.25,0.25,77,100.0
4777,G4,289.25,0.25,72,100.0
4778,E4,289.25,0.25,72,100.0
4779,B4,289.25,0.25,72,100.0
4780,E-5,289.25,0.25,72,100.0
4781,C4,289.25,0.25,72,100.0
4782,C3,289.5,0.5,76,100.0
4783,G#2,289.5,0.5,100,100.0
4784,E4,289.547,0.5,103,100.0
4785,B-3,289.547,0.5,103,100.0
4786,B-4,290.0,3.0,116,100.0
4787,C2,290.0,0.25,76,100.0
4788,C2,290.0,1.0,96,100.0
4789,G#2,290.0,0.5,84,100.0
4790,C2,290.25,0.5,75,100.0
4791,G#2,290.5,0.5,92,100.0
4792,B-3,290.547,0.75,102,100.0
4793,E4,290.547,0.75,102,100.0
4794,C2,290.75,0.25,78,100.0
4795,G2,291.0,0.25,77,100.0
4796,C4,291.0,0.25,60,100.0
4797,E-5,291.0,0.25,60,100.0
4798,E4,291.0,0.25,60,100.0
4799,B4,291.0,0.25,60,100.0
4800,G4,291.0,0.25,60,100.0
4801,G#2,291.0,0.5,86,100.0
4802,D2,291.0,0.5,86,100.0
4803,G2,291.25,0.25,77,100.0
4804,G4,291.25,0.25,71,100.0
4805,E-5,291.25,0.25,71,100.0
4806,B4,291.25,0.25,71,100.0
4807,E4,291.25,0.25,71,100.0
4808,C4,291.25,0.25,71,100.0
4809,E4,291.297,0.75,102,100.0
4810,B-3,291.297,0.75,102,100.0
4811,C3,291.5,0.5,73,100.0
4812,G#2,291.5,0.5,92,100.0
4813,C2,292.0,0.25,78,100.0
4814,G#2,292.0,0.5,96,100.0
4815,C2,292.0,1.0,92,100.0
4816,B-3,292.047,0.75,102,100.0
4817,E4,292.047,0.75,102,100.0
4818,C2,292.25,0.5,78,100.0
4819,G#2,292.5,0.5,92,100.0
4820,C2,292.75,0.25,75,100.0
4821,B-3,292.797,0.75,102,100.0
4822,E4,292.797,0.75,102,100.0
4823,B-4,293.0,0.25,111,100.0
4824,G2,293.0,0.25,72,100.0
4825,E-5,293.0,0.25,70,100.0
4826,B4,293.0,0.25,70,100.0
4827,C4,293.0,0.25,70,100.0
4828,G4,293.0,0.25,70,100.0
4829,E4,293.0,0.25,70,100.0
4830,G#2,293.0,0.5,88,100.0
4831,D2,293.0,0.5,88,100.0
4832,A4,293.25,0.25,103,100.0
4833,G2,293.25,0.25,77,100.0
4834,C4,293.25,0.25,72,100.0
4835,E-5,293.25,0.25,72,100.0
4836,B4,293.25,0.25,72,100.0
4837,E4,293.25,0.25,72,100.0
4838,G4,293.25,0.25,72,100.0
4839,G4,293.5,0.25,110,100.0
4840,C3,293.5,0.5,76,100.0
4841,G#2,293.5,0.5,100,100.0
4842,B-3,293.547,0.5,102,100.0
4843,E4,293.547,0.5,102,100.0
4844,E4,293.75,0.25,109,100.0
4845,E4,294.0,3.5,109,100.0
4846,C2,294.0,0.25,74,100.0
4847,G#2,294.0,0.5,84,100.0
4848,C2,294.0,1.0,96,100.0
4849,C2,294.25,0.5,78,100.0
4850,G#2,294.5,0.5,92,100.0
4851,B-3,294.547,0.75,101,100.0
4852,E4,294.547,0.75,101,100.0
4853,C2,294.75,0.25,74,100.0
4854,G2,295.0,0.25,73,100.0
4855,C4,295.0,0.25,60,100.0
4856,E-5,295.0,0.25,60,100.0
4857,E4,295.0,0.25,60,100.0
4858,B4,295.0,0.25,60,100.0
4859,G4,295.0,0.25,60,100.0
4860,D2,295.0,0.5,86,100.0
4861,G#2,295.0,0.5,86,100.0
4862,G2,295.25,0.25,76,100.0
4863,G4,295.25,0.25,71,100.0
4864,E-5,295.25,0.25,71,100.0
4865,B4,295.25,0.25,71,100.0
4866,E4,295.25,0.25,71,100.0
4867,C4,295.25,0.25,71,100.0
4868,E4,295.297,0.75,100,100.0
4869,B-3,295.297,0.75,100,100.0
4870,C3,295.5,0.5,77,100.0
4871,G#2,295.5,0.5,92,100.0
4872,C2,296.0,0.25,76,100.0
4873,C2,296.0,1.0,92,100.0
4874,G#2,296.0,0.5,96,100.0
4875,B-3,296.047,0.75,101,100.0
4876,E4,296.047,0.75,101,100.0
4877,C2,296.25,0.5,77,100.0
4878,G#2,296.5,0.5,92,100.0
4879,C2,296.75,0.25,77,100.0
4880,B-3,296.797,0.75,102,100.0
4881,E4,296.797,0.75,102,100.0
4882,G2,297.0,0.25,77,100.0
4883,E-5,297.0,0.25,70,100.0
4884,B4,297.0,0.25,70,100.0
4885,C4,297.0,0.25,70,100.0
4886,G4,297.0,0.25,70,100.0
4887,E4,297.0,0.25,70,100.0
4888,D2,297.0,0.5,88,100.0
4889,G#2,297.0,0.5,88,100.0
4890,G2,297.25,0.25,79,100.0
4891,C4,297.25,0.25,72,100.0
4892,E-5,297.25,0.25,72,100.0
4893,B4,297.25,0.25,72,100.0
4894,E4,297.25,0.25,72,100.0
4895,G4,297.25,0.25,72,100.0
4896,E-4,297.5,0.5,99,100.0
4897,C3,297.5,0.5,76,100.0
4898,G#2,297.5,0.5,100,100.0
4899,B-3,297.547,0.5,102,100.0
4900,E4,297.547,0.5,102,100.0
4901,E4,298.0,0.75,98,100.0
4902,C2,298.0,0.25,81,100.0
4903,D2,298.0,0.25,100,100.0
4904,C2,298.25,0.5,76,100.0
4905,D3,298.25,0.25,93,100.0
4906,D3,298.5,0.25,99,100.0
4907,E4,298.547,0.75,102,100.0
4908,B-3,298.547,0.75,102,100.0
4909,B-4,298.75,1.0,107,100.0
4910,C2,298.75,0.25,77,100.0
4911,D3,298.75,0.25,92,100.0
4912,G2,299.0,0.25,73,100.0
4913,C3,299.0,0.25,100,100.0
4914,C4,299.0,0.25,60,100.0
4915,E-5,299.0,0.25,60,100.0
4916,E4,299.0,0.25,60,100.0
4917,B4,299.0,0.25,60,100.0
4918,G4,299.0,0.25,60,100.0
4919,B2,299.25,0.25,80,100.0
4920,D3,299.25,0.25,92,100.0
4921,G4,299.25,0.25,71,100.0
4922,E-5,299.25,0.25,71,100.0
4923,B4,299.25,0.25,71,100.0
4924,E4,299.25,0.25,71,100.0
4925,C4,299.25,0.25,71,100.0
4926,B-3,299.297,0.75,103,100.0
4927,E4,299.297,0.75,103,100.0
4928,E-3,299.5,0.5,75,100.0
4929,C3,299.5,0.25,100,100.0
4930,E-4,299.75,0.25,108,100.0
4931,C3,299.75,0.25,91,100.0
4932,D4,300.0,0.25,98,100.0
4933,E-3,300.0,0.25,74,100.0
4934,C3,300.0,0.25,101,100.0
4935,E4,300.047,0.75,100,100.0
4936,B-3,300.047,0.75,100,100.0
4937,C4,300.25,0.75,102,100.0
4938,B2,300.25,0.5,72,100.0
4939,A2,300.25,0.25,91,100.0
4940,A2,300.5,0.25,97,100.0
4941,G2,300.75,0.25,74,100.0
4942,A2,300.75,0.25,92,100.0
4943,E4,300.797,0.75,97,100.0
4944,B-3,300.797,0.75,97,100.0
4945,C4,301.0,0.25,109,100.0
4946,G1,301.0,0.25,74,100.0
4947,A2,301.0,0.25,98,100.0
4948,E-5,301.0,0.25,70,100.0
4949,B4,301.0,0.25,70,100.0
4950,C4,301.0,0.25,70,100.0
4951,G4,301.0,0.25,70,100.0
4952,E4,301.0,0.25,70,100.0
4953,D4,301.25,0.25,101,100.0
4954,G1,301.25,0.25,84,100.0
4955,A2,301.25,0.25,92,100.0
4956,C4,301.25,0.25,72,100.0
4957,E-5,301.25,0.25,72,100.0
4958,B4,301.25,0.25,72,100.0
4959,E4,301.25,0.25,72,100.0
4960,G4,301.25,0.25,72,100.0
4961,C4,301.5,0.5,109,100.0
4962,C2,301.5,0.5,76,100.0
4963,A2,301.5,0.25,96,100.0
4964,E4,301.547,0.5,98,100.0
4965,B-3,301.547,0.5,98,100.0
4966,A2,301.75,0.25,90,100.0
4967,A1,302.0,0.5,96,100.0
4968,C2,302.0,1.0,87,100.0
4969,G#2,302.0,0.5,87,100.0
4970,G#2,302.5,0.5,96,100.0
4971,E4,303.0,0.5,60,100.0
4972,E4,303.0,0.5,70,100.0
4973,A3,303.0,0.25,75,100.0
4974,C4,303.0,0.25,75,100.0
4975,E4,303.0,0.25,75,100.0
4976,A4,303.0,0.25,75,100.0
4977,A4,303.0,0.25,62,100.0
4978,E5,303.0,0.25,62,100.0
4979,C5,303.0,0.25,62,100.0
4980,A5,303.0,0.25,62,100.0
4981,D2,303.0,0.5,84,100.0
4982,G#2,303.0,0.5,84,100.0
4983,E4,303.047,0.25,73,100.0
4984,C4,303.047,0.25,73,100.0
4985,A3,303.25,0.25,75,100.0
4986,C4,303.25,0.25,75,100.0
4987,E4,303.25,0.25,75,100.0
4988,A4,303.25,0.25,75,100.0
4989,A4,303.25,0.25,64,100.0
4990,E5,303.25,0.25,64,100.0
4991,C5,303.25,0.25,64,100.0
4992,A5,303.25,0.25,64,100.0
4993,E4,303.297,0.5,72,100.0
4994,C4,303.297,0.5,72,100.0
4995,E4,303.5,0.25,64,100.0
4996,E2,303.5,0.25,88,100.0
4997,E4,303.5,0.25,74,100.0
4998,G#2,303.5,0.25,80,100.0
4999,F4,303.75,0.5,68,100.0
5000,A1,303.75,0.25,80,100.0
5001,F4,303.75,0.5,78,100.0
5002,G#2,303.75,0.25,88,100.0
5003,F4,303.797,0.75,72,100.0
5004,D4,303.797,0.75,72,100.0
5005,A1,304.0,0.25,72,100.0
5006,G#2,304.0,0.5,104,100.0
5007,E4,304.25,0.5,72,100.0
5008,E4,304.25,0.5,82,100.0
5009,G#2,304.5,0.5,96,100.0
5010,E4,304.547,0.5,73,100.0
5011,C4,304.547,0.5,73,100.0
5012,E4,304.75,0.5,72,100.0
5013,E4,304.75,0.5,82,100.0
5014,A3,305.0,0.25,65,100.0
5015,C4,305.0,0.25,65,100.0
5016,E4,305.0,0.25,65,100.0
5017,A4,305.0,0.25,65,100.0
5018,A5,305.0,0.25,64,100.0
5019,A4,305.0,0.25,64,100.0
5020,C5,305.0,0.25,64,100.0
5021,E5,305.0,0.25,64,100.0
5022,D2,305.0,0.5,88,100.0
5023,G#2,305.0,0.5,88,100.0
5024,D4,305.047,0.5,73,100.0
5025,B3,305.047,0.5,73,100.0
5026,E4,305.25,0.5,67,100.0
5027,E4,305.25,0.5,77,100.0
5028,A3,305.25,0.25,60,100.0
5029,C4,305.25,0.25,60,100.0
5030,E4,305.25,0.25,60,100.0
5031,A4,305.25,0.25,60,100.0
5032,A4,305.25,0.25,65,100.0
5033,C5,305.25,0.25,65,100.0
5034,E5,305.25,0.25,65,100.0
5035,A5,305.25,0.25,65,100.0
5036,A1,305.5,0.5,84,100.0
5037,G#2,305.5,0.25,72,100.0
5038,C4,305.547,0.5,75,100.0
5039,E4,305.547,0.5,75,100.0
5040,E4,305.75,0.25,67,100.0
5041,E4,305.75,0.25,77,100.0
5042,G#2,305.75,0.25,76,100.0
5043,E4,306.0,0.25,67,100.0
5044,G1,306.0,0.5,84,100.0
5045,E4,306.0,0.25,77,100.0
5046,C2,306.0,1.0,80,100.0
5047,G#2,306.0,0.5,84,100.0
5048,D4,306.25,0.5,68,100.0
5049,D4,306.25,0.5,78,100.0
5050,G#2,306.5,0.5,96,100.0
5051,B3,306.75,0.5,68,100.0
5052,B3,306.75,0.5,78,100.0
5053,G3,307.0,0.25,77,100.0
5054,B3,307.0,0.25,77,100.0
5055,D4,307.0,0.25,77,100.0
5056,G4,307.0,0.25,77,100.0
5057,G4,307.0,0.25,66,100.0
5058,B4,307.0,0.25,66,100.0
5059,D5,307.0,0.25,66,100.0
5060,G5,307.0,0.25,66,100.0
5061,D2,307.0,0.5,84,100.0
5062,G#2,307.0,0.5,84,100.0
5063,D4,307.047,0.25,75,100.0
5064,B3,307.047,0.25,75,100.0
5065,A3,307.25,0.25,70,100.0
5066,D2,307.25,0.25,68,100.0
5067,A3,307.25,0.25,80,100.0
5068,G3,307.25,0.25,73,100.0
5069,B3,307.25,0.25,73,100.0
5070,D4,307.25,0.25,73,100.0
5071,G4,307.25,0.25,73,100.0
5072,G4,307.25,0.25,68,100.0
5073,G5,307.25,0.25,68,100.0
5074,B4,307.25,0.25,68,100.0
5075,D5,307.25,0.25,68,100.0
5076,E4,307.297,0.5,75,100.0
5077,C4,307.297,0.5,75,100.0
5078,B3,307.5,0.5,72,100.0
5079,G1,307.5,0.25,68,100.0
5080,B3,307.5,0.5,82,100.0
5081,G#2,307.5,0.25,80,100.0
5082,G1,307.75,0.25,68,100.0
5083,G#2,307.75,0.25,88,100.0
5084,D4,307.797,0.75,76,100.0
5085,F4,307.797,0.75,76,100.0
5086,G#2,308.0,0.5,104,100.0
5087,G#2,308.5,0.5,96,100.0
5088,E4,308.547,0.5,78,100.0
5089,C4,308.547,0.5,78,100.0
5090,G3,309.0,0.25,72,100.0
5091,B3,309.0,0.25,72,100.0
5092,D4,309.0,0.25,72,100.0
5093,G4,309.0,0.25,72,100.0
5094,B4,309.0,0.25,66,100.0
5095,G5,309.0,0.25,66,100.0
5096,G4,309.0,0.25,66,100.0
5097,D5,309.0,0.25,66,100.0
5098,D2,309.0,0.5,88,100.0
5099,G#2,309.0,0.5,88,100.0
5100,D4,309.047,0.5,78,100.0
5101,B3,309.047,0.5,78,100.0
5102,G3,309.25,0.25,77,100.0
5103,B3,309.25,0.25,77,100.0
5104,D4,309.25,0.25,77,100.0
5105,G4,309.25,0.25,77,100.0
5106,G4,309.25,0.25,70,100.0
5107,B4,309.25,0.25,70,100.0
5108,D5,309.25,0.25,70,100.0
5109,G5,309.25,0.25,70,100.0
5110,E4,309.5,0.5,64,100.0
5111,G1,309.5,0.5,68,100.0
5112,E4,309.5,0.5,74,100.0
5113,G#2,309.5,0.25,72,100.0
5114,C4,309.547,0.5,79,100.0
5115,E4,309.547,0.5,79,100.0
5116,G#2,309.75,0.25,76,100.0
5117,D4,310.0,0.5,67,100.0
5118,F1,310.0,0.5,84,100.0
5119,D4,310.0,0.5,77,100.0
5120,C2,310.0,1.0,80,100.0
5121,G#2,310.0,0.5,84,100.0
5122,C4,310.5,0.25,69,100.0
5123,C4,310.5,0.25,79,100.0
5124,G#2,310.5,0.5,96,100.0
5125,A3,310.75,0.5,68,100.0
5126,A3,310.75,0.5,78,100.0
5127,D4,311.0,0.25,74,100.0
5128,G4,311.0,0.25,74,100.0
5129,C5,311.0,0.25,74,100.0
5130,G5,311.0,0.25,68,100.0
5131,D5,311.0,0.25,68,100.0
5132,C6,311.0,0.25,68,100.0
5133,D2,311.0,0.5,84,100.0
5134,G#2,311.0,0.5,84,100.0
5135,G4,311.047,0.25,74,100.0
5136,D4,311.047,0.25,74,100.0
5137,A3,311.047,0.25,74,100.0
5138,G3,311.25,0.25,68,100.0
5139,C2,311.25,0.25,80,100.0
5140,G3,311.25,0.25,78,100.0
5141,D4,311.25,0.25,77,100.0
5142,G4,311.25,0.25,77,100.0
5143,C5,311.25,0.25,77,100.0
5144,D5,311.25,0.25,71,100.0
5145,G5,311.25,0.25,71,100.0
5146,C6,311.25,0.25,71,100.0
5147,G4,311.297,0.25,75,100.0
5148,D4,311.297,0.25,75,100.0
5149,A3,311.297,0.25,75,100.0
5150,A3,311.5,0.5,76,100.0
5151,F1,311.5,0.25,76,100.0
5152,A3,311.5,0.5,86,100.0
5153,G#2,311.5,0.25,80,100.0
5154,F1,311.75,0.25,80,100.0
5155,G#2,311.75,0.25,88,100.0
5156,G#2,312.0,0.5,104,100.0
5157,G#2,312.5,0.5,96,100.0
5158,A3,312.75,0.25,75,100.0
5159,A3,312.75,0.25,85,100.0
5160,A3,313.0,0.25,74,100.0
5161,A3,313.0,0.25,84,100.0
5162,D4,313.0,0.25,79,100.0
5163,G4,313.0,0.25,79,100.0
5164,C5,313.0,0.25,79,100.0
5165,G5,313.0,0.25,69,100.0
5166,D5,313.0,0.25,69,100.0
5167,C6,313.0,0.25,69,100.0
5168,D2,313.0,0.5,88,100.0
5169,G#2,313.0,0.5,88,100.0
5170,D4,313.047,1.0,71,100.0
5171,A3,313.047,1.0,71,100.0
5172,G4,313.047,1.0,71,100.0
5173,C4,313.25,0.25,75,100.0
5174,C4,313.25,0.25,85,100.0
5175,D4,313.25,0.25,76,100.0
5176,G4,313.25,0.25,76,100.0
5177,C5,313.25,0.25,76,100.0
5178,G5,313.25,0.25,69,100.0
5179,D5,313.25,0.25,69,100.0
5180,C6,313.25,0.25,69,100.0
5181,D4,313.5,0.5,76,100.0
5182,F1,313.5,0.5,88,100.0
5183,D4,313.5,0.5,86,100.0
5184,G#2,313.5,0.25,72,100.0
5185,G#2,313.75,0.25,76,100.0
5186,E4,314.0,0.25,81,100.0
5187,B-1,314.0,0.5,100,100.0
5188,E4,314.0,0.25,91,100.0
5189,C2,314.0,1.0,80,100.0
5190,G#2,314.0,0.5,84,100.0
5191,F4,314.25,0.25,80,100.0
5192,F4,314.25,0.25,90,100.0
5193,D4,314.5,1.5,80,100.0
5194,D4,314.5,1.5,90,100.0
5195,G#2,314.5,0.5,96,100.0
5196,D4,315.0,0.25,82,100.0
5197,G4,315.0,0.25,82,100.0
5198,C5,315.0,0.25,82,100.0
5199,G5,315.0,0.25,69,100.0
5200,C6,315.0,0.25,69,100.0
5201,D5,315.0,0.25,69,100.0
5202,D2,315.0,0.5,84,100.0
5203,G#2,315.0,0.5,84,100.0
5204,G4,315.047,0.25,71,100.0
5205,D4,315.047,0.25,71,100.0
5206,G#3,315.047,0.25,71,100.0
5207,G#2,315.25,0.25,92,100.0
5208,D4,315.25,0.25,82,100.0
5209,G4,315.25,0.25,82,100.0
5210,C5,315.25,0.25,82,100.0
5211,G5,315.25,0.25,67,100.0
5212,C6,315.25,0.25,67,100.0
5213,D5,315.25,0.25,67,100.0
5214,G#3,315.297,0.25,71,100.0
5215,G4,315.297,0.25,71,100.0
5216,D4,315.297,0.25,71,100.0
5217,F2,315.5,0.25,85,100.0
5218,G#2,315.5,0.25,80,100.0
5219,B-1,315.75,0.25,88,100.0
5220,G#2,315.75,0.25,88,100.0
5221,G4,315.797,0.25,70,100.0
5222,D4,315.797,0.25,70,100.0
5223,G#3,315.797,0.25,70,100.0
5224,G#2,316.0,0.5,104,100.0
5225,G4,316.297,0.25,69,100.0
5226,D4,316.297,0.25,69,100.0
5227,G#3,316.297,0.25,69,100.0
5228,G#2,316.5,0.5,96,100.0
5229,D4,316.5,0.25,82,100.0
5230,G4,316.5,0.25,82,100.0
5231,C5,316.5,0.25,82,100.0
5232,G5,316.5,0.25,67,100.0
5233,D5,316.5,0.25,67,100.0
5234,C6,316.5,0.25,67,100.0
5235,D4,316.75,0.25,76,100.0
5236,G4,316.75,0.25,76,100.0
5237,C5,316.75,0.25,76,100.0
5238,G5,316.75,0.25,68,100.0
5239,D5,316.75,0.25,68,100.0
5240,C6,316.75,0.25,68,100.0
5241,D4,317.0,0.25,79,100.0
5242,G4,317.0,0.25,79,100.0
5243,C5,317.0,0.25,79,100.0
5244,G5,317.0,0.25,68,100.0
5245,C6,317.0,0.25,68,100.0
5246,D5,317.0,0.25,68,100.0
5247,D2,317.0,0.5,88,100.0
5248,G#2,317.0,0.5,88,100.0
5249,G4,317.047,0.5,69,100.0
5250,D4,317.047,0.5,69,100.0
5251,G#3,317.047,0.5,69,100.0
5252,D4,317.25,0.25,78,100.0
5253,G4,317.25,0.25,78,100.0
5254,C5,317.25,0.25,78,100.0
5255,G5,317.25,0.25,67,100.0
5256,C6,317.25,0.25,67,100.0
5257,D5,317.25,0.25,67,100.0
5258,B-1,317.5,0.5,80,100.0
5259,G#2,317.5,0.25,72,100.0
5260,D4,317.5,0.25,81,100.0
5261,G4,317.5,0.25,81,100.0
5262,C5,317.5,0.25,81,100.0
5263,G5,317.5,0.25,67,100.0
5264,D5,317.5,0.25,67,100.0
5265,C6,317.5,0.25,67,100.0
5266,G#3,317.547,0.5,68,100.0
5267,G4,317.547,0.5,68,100.0
5268,D4,317.547,0.5,68,100.0
5269,G#2,317.75,0.25,76,100.0
5270,D4,317.75,0.25,81,100.0
5271,G4,317.75,0.25,81,100.0
5272,C5,317.75,0.25,81,100.0
5273,G5,317.75,0.25,65,100.0
5274,D5,317.75,0.25,65,100.0
5275,C6,317.75,0.25,65,100.0
5276,A1,318.0,0.5,96,100.0
5277,C2,318.0,1.0,80,100.0
5278,G#2,318.0,0.5,84,100.0
5279,G#2,318.5,0.5,96,100.0
5280,A3,319.0,0.25,70,100.0
5281,C4,319.0,0.25,70,100.0
5282,E4,319.0,0.25,70,100.0
5283,A4,319.0,0.25,70,100.0
5284,A4,319.0,0.25,65,100.0
5285,A5,319.0,0.25,65,100.0
5286,C5,319.0,0.25,65,100.0
5287,E5,319.0,0.25,65,100.0
5288,D2,319.0,0.5,84,100.0
5289,G#2,319.0,0.5,84,100.0
5290,E4,319.047,0.25,68,100.0
5291,C4,319.047,0.25,68,100.0
5292,A3,319.25,0.25,69,100.0
5293,C4,319.25,0.25,69,100.0
5294,E4,319.25,0.25,69,100.0
5295,A4,319.25,0.25,69,100.0
5296,A4,319.25,0.25,59,100.0
5297,E5,319.25,0.25,59,100.0
5298,C5,319.25,0.25,59,100.0
5299,A5,319.25,0.25,59,100.0
5300,E4,319.297,0.5,68,100.0
5301,C4,319.297,0.5,68,100.0
5302,E4,319.5,0.25,78,100.0
5303,E2,319.5,0.25,88,100.0
5304,E4,319.5,0.25,88,100.0
5305,G#2,319.5,0.25,80,100.0
5306,E4,319.75,0.25,84,100.0
5307,A1,319.75,0.25,80,100.0
5308,E4,319.75,0.25,94,100.0
5309,G#2,319.75,0.25,88,100.0
5310,D4,319.797,0.75,68,100.0
5311,F4,319.797,0.75,68,100.0
5312,F4,320.0,0.5,92,100.0
5313,A1,320.0,0.25,72,100.0
5314,F4,320.0,0.5,102,100.0
5315,G#2,320.0,0.5,104,100.0
5316,E4,320.5,0.25,75,100.0
5317,E4,320.5,0.25,85,100.0
5318,G#2,320.5,0.5,96,100.0
5319,E4,320.547,0.5,67,100.0
5320,C4,320.547,0.5,67,100.0
5321,E4,320.75,0.25,76,100.0
5322,E4,320.75,0.25,86,100.0
5323,G4,321.0,1.0,92,100.0
5324,G4,321.0,1.0,102,100.0
5325,A3,321.0,0.25,66,100.0
5326,C4,321.0,0.25,66,100.0
5327,E4,321.0,0.25,66,100.0
5328,A4,321.0,0.25,66,100.0
5329,A5,321.0,0.25,59,100.0
5330,A4,321.0,0.25,59,100.0
5331,E5,321.0,0.25,59,100.0
5332,C5,321.0,0.25,59,100.0
5333,D2,321.0,0.5,88,100.0
5334,G#2,321.0,0.5,88,100.0
5335,D4,321.047,0.5,67,100.0
5336,B3,321.047,0.5,67,100.0
5337,A3,321.25,0.25,68,100.0
5338,C4,321.25,0.25,68,100.0
5339,E4,321.25,0.25,68,100.0
5340,A4,321.25,0.25,68,100.0
5341,E5,321.25,0.25,61,100.0
5342,A4,321.25,0.25,61,100.0
5343,A5,321.25,0.25,61,100.0
5344,C5,321.25,0.25,61,100.0
5345,A1,321.5,0.5,84,100.0
5346,G#2,321.5,0.25,72,100.0
5347,E4,321.547,0.5,66,100.0
5348,C4,321.547,0.5,66,100.0
5349,G#2,321.75,0.25,76,100.0
5350,G1,322.0,0.5,80,100.0
5351,C2,322.0,1.0,80,100.0
5352,G#2,322.0,0.5,84,100.0
5353,G#2,322.5,0.5,96,100.0
5354,B3,322.797,0.25,66,100.0
5355,D4,322.797,0.25,66,100.0
5356,G3,323.0,0.25,70,100.0
5357,B3,323.0,0.25,70,100.0
5358,D4,323.0,0.25,70,100.0
5359,G4,323.0,0.25,70,100.0
5360,G4,323.0,0.25,62,100.0
5361,G5,323.0,0.25,62,100.0
5362,B4,323.0,0.25,62,100.0
5363,D5,323.0,0.25,62,100.0
5364,D2,323.0,0.5,84,100.0
5365,G#2,323.0,0.5,84,100.0
5366,D2,323.25,0.25,80,100.0
5367,G3,323.25,0.25,80,100.0
5368,B3,323.25,0.25,80,100.0
5369,D4,323.25,0.25,80,100.0
5370,G4,323.25,0.25,80,100.0
5371,G4,323.25,0.25,62,100.0
5372,B4,323.25,0.25,62,100.0
5373,D5,323.25,0.25,62,100.0
5374,G5,323.25,0.25,62,100.0
5375,E4,323.297,0.5,66,100.0
5376,C4,323.297,0.5,66,100.0
5377,E4,323.5,0.25,64,100.0
5378,G1,323.5,0.25,77,100.0
5379,E4,323.5,0.25,74,100.0
5380,G#2,323.5,0.25,80,100.0
5381,E4,323.75,0.25,66,100.0
5382,G1,323.75,0.25,78,100.0
5383,E4,323.75,0.25,76,100.0
5384,G#2,323.75,0.25,88,100.0
5385,D4,323.797,0.75,65,100.0
5386,F4,323.797,0.75,65,100.0
5387,F4,324.0,0.5,78,100.0
5388,F4,324.0,0.5,88,100.0
5389,G#2,324.0,0.5,104,100.0
5390,E4,324.5,0.25,74,100.0
5391,E4,324.5,0.25,84,100.0
5392,G#2,324.5,0.5,96,100.0
5393,E4,324.547,0.5,64,100.0
5394,C4,324.547,0.5,64,100.0
5395,E4,324.75,0.25,76,100.0
5396,E4,324.75,0.25,86,100.0
5397,A4,325.0,1.0,92,100.0
5398,A4,325.0,1.0,102,100.0
5399,G3,325.0,0.25,70,100.0
5400,B3,325.0,0.25,70,100.0
5401,D4,325.0,0.25,70,100.0
5402,G4,325.0,0.25,70,100.0
5403,G4,325.0,0.25,61,100.0
5404,G5,325.0,0.25,61,100.0
5405,D5,325.0,0.25,61,100.0
5406,B4,325.0,0.25,61,100.0
5407,D2,325.0,0.5,88,100.0
5408,G#2,325.0,0.5,88,100.0
5409,B3,325.047,0.5,64,100.0
5410,D4,325.047,0.5,64,100.0
5411,G3,325.25,0.25,78,100.0
5412,B3,325.25,0.25,78,100.0
5413,D4,325.25,0.25,78,100.0
5414,G4,325.25,0.25,78,100.0
5415,G4,325.25,0.25,61,100.0
5416,B4,325.25,0.25,61,100.0
5417,D5,325.25,0.25,61,100.0
5418,G5,325.25,0.25,61,100.0
5419,G1,325.5,0.5,79,100.0
5420,G#2,325.5,0.25,72,100.0
5421,E4,325.547,0.5,64,100.0
5422,C4,325.547,0.5,64,100.0
5423,G#2,325.75,0.25,76,100.0
5424,A4,326.0,1.0,92,100.0
5425,F1,326.0,0.5,84,100.0
5426,A4,326.0,1.0,102,100.0
5427,C2,326.0,1.0,80,100.0
5428,G#2,326.0,0.5,84,100.0
5429,G#2,326.5,0.5,96,100.0
5430,D4,327.0,0.25,71,100.0
5431,G4,327.0,0.25,71,100.0
5432,C5,327.0,0.25,71,100.0
5433,G5,327.0,0.25,59,100.0
5434,C6,327.0,0.25,59,100.0
5435,D5,327.0,0.25,59,100.0
5436,D2,327.0,0.5,84,100.0
5437,G#2,327.0,0.5,84,100.0
5438,G4,327.047,0.25,64,100.0
5439,D4,327.047,0.25,64,100.0
5440,A3,327.047,0.25,64,100.0
5441,C2,327.25,0.25,80,100.0
5442,D4,327.25,0.25,79,100.0
5443,G4,327.25,0.25,79,100.0
5444,C5,327.25,0.25,79,100.0
5445,G5,327.25,0.25,62,100.0
5446,D5,327.25,0.25,62,100.0
5447,C6,327.25,0.25,62,100.0
5448,G4,327.297,0.25,65,100.0
5449,D4,327.297,0.25,65,100.0
5450,A3,327.297,0.25,65,100.0
5451,F1,327.5,0.25,76,100.0
5452,G#2,327.5,0.25,80,100.0
5453,F1,327.75,0.25,80,100.0
5454,G#2,327.75,0.25,88,100.0
5455,G#2,328.0,0.5,104,100.0
5456,G#2,328.5,0.5,96,100.0
5457,A3,329.0,0.25,81,100.0
5458,A3,329.0,0.25,91,100.0
5459,D4,329.0,0.25,77,100.0
5460,G4,329.0,0.25,77,100.0
5461,C5,329.0,0.25,77,100.0
5462,G5,329.0,0.25,63,100.0
5463,C6,329.0,0.25,63,100.0
5464,D5,329.0,0.25,63,100.0
5465,D2,329.0,0.5,88,100.0
5466,G#2,329.0,0.5,88,100.0
5467,G4,329.047,1.0,67,100.0
5468,D4,329.047,1.0,67,100.0
5469,A3,329.047,1.0,67,100.0
5470,C4,329.25,0.25,84,100.0
5471,C4,329.25,0.25,94,100.0
5472,D4,329.25,0.25,80,100.0
5473,G4,329.25,0.25,80,100.0
5474,C5,329.25,0.25,80,100.0
5475,G5,329.25,0.25,62,100.0
5476,D5,329.25,0.25,62,100.0
5477,C6,329.25,0.25,62,100.0
5478,D4,329.5,0.25,85,100.0
5479,F1,329.5,0.5,88,100.0
5480,D4,329.5,0.25,95,100.0
5481,G#2,329.5,0.25,72,100.0
5482,E4,329.75,0.25,88,100.0
5483,E4,329.75,0.25,98,100.0
5484,G#2,329.75,0.25,76,100.0
5485,E4,330.0,0.5,88,100.0
5486,B-1,330.0,0.5,87,100.0
5487,E4,330.0,0.5,98,100.0
5488,C2,330.0,1.0,80,100.0
5489,G#2,330.0,0.5,84,100.0
5490,F4,330.5,0.25,88,100.0
5491,F4,330.5,0.25,98,100.0
5492,G#2,330.5,0.5,96,100.0
5493,D4,330.75,0.5,88,100.0
5494,D4,330.75,0.5,98,100.0
5495,D4,331.0,0.25,79,100.0
5496,G4,331.0,0.25,79,100.0
5497,C5,331.0,0.25,79,100.0
5498,G5,331.0,0.25,61,100.0
5499,C6,331.0,0.25,61,100.0
5500,D5,331.0,0.25,61,100.0
5501,D2,331.0,0.5,84,100.0
5502,G#2,331.0,0.5,84,100.0
5503,G#3,331.047,0.25,68,100.0
5504,D4,331.047,0.25,68,100.0
5505,G4,331.047,0.25,68,100.0
5506,C4,331.25,0.25,88,100.0
5507,G#2,331.25,0.25,92,100.0
5508,C4,331.25,0.25,98,100.0
5509,D4,331.25,0.25,71,100.0
5510,G4,331.25,0.25,71,100.0
5511,C5,331.25,0.25,71,100.0
5512,G5,331.25,0.25,61,100.0
5513,C6,331.25,0.25,61,100.0
5514,D5,331.25,0.25,61,100.0
5515,G4,331.297,0.25,67,100.0
5516,D4,331.297,0.25,67,100.0
5517,G#3,331.297,0.25,67,100.0
5518,D4,331.5,0.5,84,100.0
5519,F2,331.5,0.25,80,100.0
5520,D4,331.5,0.5,94,100.0
5521,G#2,331.5,0.25,80,100.0
5522,B-1,331.75,0.25,88,100.0
5523,G#2,331.75,0.25,88,100.0
5524,G4,331.797,0.25,68,100.0
5525,D4,331.797,0.25,68,100.0
5526,G#3,331.797,0.25,68,100.0
5527,C4,332.0,0.25,92,100.0
5528,C4,332.0,0.25,102,100.0
5529,G#2,332.0,0.5,104,100.0
5530,D4,332.25,0.5,88,100.0
5531,D4,332.25,0.5,98,100.0
5532,G#3,332.297,0.25,68,100.0
5533,D4,332.297,0.25,68,100.0
5534,G4,332.297,0.25,68,100.0
5535,G#2,332.5,0.5,96,100.0
5536,D4,332.5,0.25,75,100.0
5537,G4,332.5,0.25,75,100.0
5538,C5,332.5,0.25,75,100.0
5539,D5,332.5,0.25,58,100.0
5540,G5,332.5,0.25,58,100.0
5541,C6,332.5,0.25,58,100.0
5542,C4,332.75,0.25,88,100.0
5543,C4,332.75,0.25,98,100.0
5544,D4,332.75,0.25,74,100.0
5545,G4,332.75,0.25,74,100.0
5546,C5,332.75,0.25,74,100.0
5547,G5,332.75,0.25,58,100.0
5548,D5,332.75,0.25,58,100.0
5549,C6,332.75,0.25,58,100.0
5550,E4,333.0,0.5,93,100.0
5551,E4,333.0,0.5,103,100.0
5552,D4,333.0,0.25,68,100.0
5553,G4,333.0,0.25,68,100.0
5554,C5,333.0,0.25,68,100.0
5555,G5,333.0,0.25,57,100.0
5556,D5,333.0,0.25,57,100.0
5557,C6,333.0,0.25,57,100.0
5558,D2,333.0,0.5,88,100.0
5559,G#2,333.0,0.5,88,100.0
5560,D4,333.047,0.5,64,100.0
5561,G#3,333.047,0.5,64,100.0
5562,G4,333.047,0.5,64,100.0
5563,D4,333.25,0.25,70,100.0
5564,G4,333.25,0.25,70,100.0
5565,C5,333.25,0.25,70,100.0
5566,G5,333.25,0.25,57,100.0
5567,C6,333.25,0.25,57,100.0
5568,D5,333.25,0.25,57,100.0
5569,B-1,333.5,0.5,80,100.0
5570,G#2,333.5,0.25,72,100.0
5571,D4,333.5,0.25,69,100.0
5572,G4,333.5,0.25,69,100.0
5573,C5,333.5,0.25,69,100.0
5574,G5,333.5,0.25,57,100.0
5575,C6,333.5,0.25,57,100.0
5576,D5,333.5,0.25,57,100.0
5577,G4,333.547,0.5,67,100.0
5578,D4,333.547,0.5,67,100.0
5579,G#3,333.547,0.5,67,100.0
5580,G#2,333.75,0.25,76,100.0
5581,D4,333.75,0.25,70,100.0
5582,G4,333.75,0.25,70,100.0
5583,C5,333.75,0.25,70,100.0
5584,G5,333.75,0.25,58,100.0
5585,C6,333.75,0.25,58,100.0
5586,D5,333.75,0.25,58,100.0
5587,D2,334.0,0.5,88,100.0
5588,C2,334.0,1.0,80,100.0
5589,G#2,334.0,0.5,84,100.0
5590,G#2,334.5,0.5,96,100.0
5591,D4,335.0,0.5,62,100.0
5592,B3,335.0,0.5,62,100.0
5593,D4,335.0,0.5,73,100.0
5594,G4,335.0,0.5,73,100.0
5595,G5,335.0,0.5,59,100.0
5596,D5,335.0,0.5,59,100.0
5597,D4,335.0,0.5,72,100.0
5598,B3,335.0,0.5,72,100.0
5599,D2,335.0,0.5,84,100.0
5600,G#2,335.0,0.5,84,100.0
5601,D4,335.047,0.5,62,100.0
5602,A3,335.047,0.5,62,100.0
5603,F3,335.047,0.5,62,100.0
5604,A2,335.25,0.25,80,100.0
5605,D2,335.5,0.25,76,100.0
5606,G#2,335.5,0.25,80,100.0
5607,E4,335.5,0.25,59,100.0
5608,C4,335.5,0.25,59,100.0
5609,E4,335.5,0.25,70,100.0
5610,G4,335.5,0.25,70,100.0
5611,E5,335.5,0.25,59,100.0
5612,G5,335.5,0.25,59,100.0
5613,E4,335.5,0.25,75,100.0
5614,C4,335.5,0.25,75,100.0
5615,E4,335.547,0.25,60,100.0
5616,D2,335.75,0.25,92,100.0
5617,G#2,335.75,0.25,88,100.0
5618,D4,335.75,1.5,64,100.0
5619,B3,335.75,1.5,64,100.0
5620,D4,335.75,1.5,79,100.0
5621,G4,335.75,1.5,79,100.0
5622,G5,335.75,1.5,56,100.0
5623,D5,335.75,1.5,56,100.0
5624,D4,335.75,1.5,74,100.0
5625,B3,335.75,1.5,74,100.0
5626,G3,335.797,279/125,64,100.0
5627,B3,335.797,279/125,64,100.0
5628,D4,335.797,279/125,64,100.0
5629,G#2,336.0,0.5,104,100.0
5630,G#2,336.5,0.5,96,100.0
5631,D2,337.0,0.5,88,100.0
5632,G#2,337.0,0.5,88,100.0
5633,D4,337.25,0.5,65,100.0
5634,B3,337.25,0.5,65,100.0
5635,D4,337.25,0.5,77,100.0
5636,G4,337.25,0.5,77,100.0
5637,G5,337.25,0.5,59,100.0
5638,D5,337.25,0.5,59,100.0
5639,D4,337.25,0.5,76,100.0
5640,B3,337.25,0.5,76,100.0
5641,D2,337.5,0.5,76,100.0
5642,G#2,337.5,0.25,72,100.0
5643,G#2,337.75,0.25,76,100.0
5644,B3,337.75,0.25,64,100.0
5645,D4,337.75,0.25,64,100.0
5646,D4,337.75,0.25,79,100.0
5647,G4,337.75,0.25,79,100.0
5648,D5,337.75,0.25,59,100.0
5649,G5,337.75,0.25,59,100.0
5650,B3,337.75,0.25,75,100.0
5651,D4,337.75,0.25,75,100.0
5652,A1,338.0,0.5,96,100.0
5653,C2,338.0,1.0,80,100.0
5654,G#2,338.0,0.5,84,100.0
5655,B3,338.0,0.25,64,100.0
5656,D4,338.0,0.25,64,100.0
5657,D4,338.0,0.25,79,100.0
5658,G4,338.0,0.25,79,100.0
5659,D5,338.0,0.25,59,100.0
5660,G5,338.0,0.25,59,100.0
5661,B3,338.0,0.25,75,100.0
5662,D4,338.0,0.25,75,100.0
5663,E4,338.047,2.0,62,100.0
5664,C4,338.047,2.0,62,100.0
5665,G3,338.047,2.0,62,100.0
5666,E4,338.25,0.75,64,100.0
5667,C4,338.25,0.75,64,100.0
5668,E4,338.25,0.25,77,100.0
5669,G4,338.25,0.25,77,100.0
5670,E5,338.25,0.25,59,100.0
5671,G5,338.25,0.25,59,100.0
5672,E4,338.25,0.75,80,100.0
5673,C4,338.25,0.75,80,100.0
5674,G#2,338.5,0.5,96,100.0
5675,E4,338.5,0.25,76,100.0
5676,G4,338.5,0.25,76,100.0
5677,G5,338.5,0.25,57,100.0
5678,E5,338.5,0.25,57,100.0
5679,E4,338.75,0.25,68,100.0
5680,G4,338.75,0.25,68,100.0
5681,G5,338.75,0.25,56,100.0
5682,E5,338.75,0.25,56,100.0
5683,E4,339.0,0.25,68,100.0
5684,G4,339.0,0.25,68,100.0
5685,G5,339.0,0.25,55,100.0
5686,E5,339.0,0.25,55,100.0
5687,D2,339.0,0.5,84,100.0
5688,G#2,339.0,0.5,84,100.0
5689,E2,339.5,0.25,88,100.0
5690,G#2,339.5,0.25,80,100.0
5691,A1,339.75,0.25,80,100.0
5692,G#2,339.75,0.25,88,100.0
5693,E4,339.75,0.25,76,100.0
5694,G4,339.75,0.25,76,100.0
5695,E5,339.75,0.25,58,100.0
5696,G5,339.75,0.25,58,100.0
5697,A1,340.0,0.25,72,100.0
5698,G#2,340.0,0.5,104,100.0
5699,C4,340.047,2.0,65,100.0
5700,G3,340.047,2.0,65,100.0
5701,E4,340.047,2.0,65,100.0
5702,E4,340.25,0.25,77,100.0
5703,G4,340.25,0.25,77,100.0
5704,G5,340.25,0.25,61,100.0
5705,E5,340.25,0.25,61,100.0
5706,D4,340.333,333/1000,73,100.0
5707,D4,340.333,333/1000,66,100.0
5708,G#2,340.5,0.5,96,100.0
5709,E4,340.667,333/1000,68,100.0
5710,E4,340.667,333/1000,78,100.0
5711,E4,340.75,0.25,67,100.0
5712,G4,340.75,0.25,67,100.0
5713,G5,340.75,0.25,60,100.0
5714,E5,340.75,0.25,60,100.0
5715,F4,341.0,0.25,71,100.0
5716,F4,341.0,0.25,82,100.0
5717,E4,341.0,0.5,81,100.0
5718,G4,341.0,0.5,81,100.0
5719,G5,341.0,0.5,57,100.0
5720,E5,341.0,0.5,57,100.0
5721,D2,341.0,0.5,88,100.0
5722,G#2,341.0,0.5,88,100.0
5723,E4,341.25,0.5,77,100.0
5724,E4,341.25,0.5,81,100.0
5725,A1,341.5,0.5,84,100.0
5726,G#2,341.5,0.25,72,100.0
5727,C4,341.75,0.25,75,100.0
5728,C4,341.75,0.25,84,100.0
5729,G#2,341.75,0.25,76,100.0
5730,C4,342.0,1.0,75,100.0
5731,D2,342.0,1.5,80,100.0
5732,C4,342.0,1.0,84,100.0
5733,E-3,342.0,0.75,54,100.0
5734,C2,342.0,1.0,84,100.0
5735,F3,342.0,1.5,90,100.0
5736,A3,342.0,1.5,90,100.0
5737,C4,342.0,1.5,90,100.0
5738,E4,342.047,1.5,102,100.0
5739,C4,342.047,1.5,102,100.0
5740,A3,342.047,1.5,102,100.0
5741,C3,342.75,0.25,84,100.0
5742,C3,343.0,0.5,84,100.0
5743,G2,343.5,0.5,80,100.0
5744,A2,343.5,0.5,84,100.0
5745,G3,343.5,0.5,90,100.0
5746,B3,343.5,0.5,90,100.0
5747,E4,343.5,0.5,90,100.0
5748,E4,343.547,0.5,97,100.0
5749,B3,343.547,0.5,97,100.0
5750,G3,343.547,0.5,97,100.0
5751,F2,344.0,2.0,76,100.0
5752,A2,344.0,0.75,92,100.0
5753,F3,344.0,2.0,90,100.0
5754,A3,344.0,2.0,90,100.0
5755,D4,344.0,2.0,90,100.0
5756,D4,344.047,2.0,100,100.0
5757,A3,344.047,2.0,100,100.0
5758,F3,344.047,2.0,100,100.0
5759,D4,344.333,333/1000,59,100.0
5760,D4,344.333,333/1000,74,100.0
5761,E4,344.667,333/1000,60,100.0
5762,E4,344.667,333/1000,75,100.0
5763,C3,344.75,0.25,80,100.0
5764,F4,345.0,0.5,55,100.0
5765,F4,345.0,0.5,74,100.0
5766,C3,345.25,0.25,84,100.0
5767,E4,345.5,0.25,60,100.0
5768,E4,345.5,0.25,72,100.0
5769,A2,345.5,0.5,80,100.0
5770,A4,345.75,0.25,62,100.0
5771,A4,345.75,0.25,70,100.0
5772,A4,346.0,0.25,62,100.0
5773,E2,346.0,1.5,80,100.0
5774,A4,346.0,0.25,70,100.0
5775,E-3,346.0,0.75,77,100.0
5776,C2,346.0,1.0,77,100.0
5777,G3,346.0,1.5,95,100.0
5778,B3,346.0,1.5,95,100.0
5779,D4,346.0,1.5,95,100.0
5780,G3,346.047,1.5,92,100.0
5781,D4,346.047,1.5,92,100.0
5782,B3,346.047,1.5,92,100.0
5783,G4,346.25,0.75,60,100.0
5784,G4,346.25,0.75,70,100.0
5785,C3,346.75,0.25,68,100.0
5786,E4,347.0,0.25,61,100.0
5787,E4,347.0,0.25,74,100.0
5788,C3,347.0,0.5,80,100.0
5789,E4,347.25,0.75,56,100.0
5790,E4,347.25,0.75,75,100.0
5791,G4,347.5,0.5,85,100.0
5792,A2,347.5,0.5,84,100.0
5793,A2,347.5,0.5,92,100.0
5794,G3,347.547,0.5,87,100.0
5795,E4,347.547,0.5,87,100.0
5796,C4,347.547,0.5,87,100.0
5797,E4,348.0,0.25,60,100.0
5798,A4,348.0,0.75,87,100.0
5799,F2,348.0,0.75,80,100.0
5800,E4,348.0,0.25,70,100.0
5801,A2,348.0,0.75,84,100.0
5802,F4,348.047,0.75,84,100.0
5803,C4,348.047,0.75,84,100.0
5804,A3,348.047,0.75,84,100.0
5805,D4,348.25,0.25,59,100.0
5806,D4,348.25,0.25,71,100.0
5807,C4,348.5,1.5,60,100.0
5808,C4,348.5,1.5,70,100.0
5809,C5,348.75,0.5,91,100.0
5810,E2,348.75,0.75,84,100.0
5811,A2,348.75,0.25,84,100.0
5812,E4,348.797,0.75,87,100.0
5813,C4,348.797,0.75,87,100.0
5814,G3,348.797,0.75,87,100.0
5815,E5,349.25,0.75,92,100.0
5816,D2,349.25,0.25,75,100.0
5817,D2,349.5,0.5,84,100.0
5818,D2,349.5,0.5,74,100.0
5819,F3,349.547,0.5,85,100.0
5820,D4,349.547,0.5,85,100.0
5821,A3,349.547,0.5,85,100.0
5822,C5,350.0,3.0,103,100.0
5823,D2,350.0,0.25,73,100.0
5824,G#2,350.0,0.5,74,100.0
5825,C2,350.008,1.0,74,100.0
5826,D2,350.25,0.5,73,100.0
5827,G#2,350.5,0.5,74,100.0
5828,G#2,350.5,0.5,74,100.0
5829,D2,350.75,0.25,73,100.0
5830,A2,351.0,0.25,73,100.0
5831,F4,351.0,0.25,60,100.0
5832,A4,351.0,0.25,60,100.0
5833,C5,351.0,0.25,60,100.0
5834,C4,351.0,0.25,60,100.0
5835,C4,351.0,0.25,77,100.0
5836,C5,351.0,0.25,77,100.0
5837,A4,351.0,0.25,77,100.0
5838,F4,351.0,0.25,77,100.0
5839,G#2,351.0,0.5,75,100.0
5840,G#2,351.0,0.5,75,100.0
5841,D2,351.0,0.5,75,100.0
5842,C4,351.047,0.25,73,100.0
5843,A3,351.047,0.25,73,100.0
5844,F3,351.047,0.25,73,100.0
5845,A2,351.25,0.25,73,100.0
5846,A4,351.25,0.5,58,100.0
5847,F4,351.25,0.5,58,100.0
5848,C5,351.25,0.5,58,100.0
5849,C4,351.25,0.5,58,100.0
5850,C4,351.25,0.5,78,100.0
5851,C5,351.25,0.5,78,100.0
5852,F4,351.25,0.5,78,100.0
5853,A4,351.25,0.5,78,100.0
5854,C4,351.297,0.5,73,100.0
5855,A3,351.297,0.5,73,100.0
5856,F3,351.297,0.5,73,100.0
5857,D3,351.5,0.5,74,100.0
5858,G#2,351.5,0.5,75,100.0
5859,G#2,351.5,0.5,75,100.0
5860,D5,351.75,1.25,61,100.0
5861,D5,351.75,1.25,74,100.0
5862,D4,351.797,2.25,69,100.0
5863,B3,351.797,2.25,69,100.0
5864,G3,351.797,2.25,69,100.0
5865,E2,352.0,0.25,74,100.0
5866,G#2,352.0,0.5,76,100.0
5867,G#2,352.0,0.5,76,100.0
5868,C2,352.008,1.0,76,100.0
5869,E2,352.25,0.5,74,100.0
5870,G#2,352.5,0.5,77,100.0
5871,G#2,352.5,0.5,77,100.0
5872,E2,352.75,0.25,75,100.0
5873,G5,353.0,0.25,84,100.0
5874,G2,353.0,0.25,75,100.0
5875,G#2,353.0,0.5,77,100.0
5876,G#2,353.0,0.5,77,100.0
5877,D2,353.0,0.5,77,100.0
5878,G5,353.25,0.5,104,100.0
5879,G2,353.25,0.25,76,100.0
5880,E3,353.5,0.5,76,100.0
5881,G#2,353.5,0.5,76,100.0
5882,G#2,353.5,0.5,76,100.0
5883,F5,353.75,0.25,100,100.0
5884,F5,354.0,2.5,100,100.0
5885,D2,354.0,0.25,76,100.0
5886,G#2,354.0,0.5,74,100.0
5887,C2,354.008,1.0,74,100.0
5888,D2,354.25,0.5,75,100.0
5889,G#2,354.5,0.5,74,100.0
5890,G#2,354.5,0.5,74,100.0
5891,D2,354.75,0.25,74,100.0
5892,A2,355.0,0.25,73,100.0
5893,F4,355.0,0.25,54,100.0
5894,A4,355.0,0.25,54,100.0
5895,C4,355.0,0.25,54,100.0
5896,C5,355.0,0.25,54,100.0
5897,C5,355.0,0.25,70,100.0
5898,C4,355.0,0.25,70,100.0
5899,A4,355.0,0.25,70,100.0
5900,F4,355.0,0.25,70,100.0
5901,D2,355.0,0.5,75,100.0
5902,G#2,355.0,0.5,75,100.0
5903,G#2,355.0,0.5,75,100.0
5904,C4,355.047,0.25,67,100.0
5905,A3,355.047,0.25,67,100.0
5906,F3,355.047,0.25,67,100.0
5907,A2,355.25,0.25,73,100.0
5908,C4,355.25,0.5,59,100.0
5909,C5,355.25,0.5,59,100.0
5910,F4,355.25,0.5,59,100.0
5911,A4,355.25,0.5,59,100.0
5912,A4,355.25,0.5,69,100.0
5913,F4,355.25,0.5,69,100.0
5914,C5,355.25,0.5,69,100.0
5915,C4,355.25,0.5,69,100.0
5916,C4,355.297,0.5,67,100.0
5917,A3,355.297,0.5,67,100.0
5918,F3,355.297,0.5,67,100.0
5919,D3,355.5,0.5,70,100.0
5920,G#2,355.5,0.5,75,100.0
5921,G#2,355.5,0.5,75,100.0
5922,D5,355.75,0.5,59,100.0
5923,D4,355.75,0.5,59,100.0
5924,G4,355.75,0.5,59,100.0
5925,B4,355.75,0.5,59,100.0
5926,B4,355.75,0.5,74,100.0
5927,G4,355.75,0.5,74,100.0
5928,D4,355.75,0.5,74,100.0
5929,D5,355.75,0.5,74,100.0
5930,D4,355.797,0.5,67,100.0
5931,B3,355.797,0.5,67,100.0
5932,G3,355.797,0.5,67,100.0
5933,E2,356.0,0.25,70,100.0
5934,G#2,356.0,0.5,76,100.0
5935,G#2,356.0,0.5,76,100.0
5936,C2,356.008,1.0,76,100.0
5937,E2,356.25,0.5,70,100.0
5938,D4,356.25,0.5,55,100.0
5939,D5,356.25,0.5,55,100.0
5940,A4,356.25,0.5,55,100.0
5941,B4,356.25,0.5,55,100.0
5942,G4,356.25,0.5,55,100.0
5943,G4,356.25,0.5,75,100.0
5944,B4,356.25,0.5,75,100.0
5945,A4,356.25,0.5,75,100.0
5946,D5,356.25,0.5,75,100.0
5947,D4,356.25,0.5,75,100.0
5948,D4,356.297,0.5,68,100.0
5949,B3,356.297,0.5,68,100.0
5950,G3,356.297,0.5,68,100.0
5951,D5,356.5,0.25,96,100.0
5952,G#2,356.5,0.5,77,100.0
5953,G#2,356.5,0.5,77,100.0
5954,E-5,356.75,0.25,96,100.0
5955,E2,356.75,0.25,70,100.0
5956,D5,356.75,0.5,56,100.0
5957,B4,356.75,0.5,56,100.0
5958,G4,356.75,0.5,56,100.0
5959,D4,356.75,0.5,56,100.0
5960,D4,356.75,0.5,75,100.0
5961,G4,356.75,0.5,75,100.0
5962,B4,356.75,0.5,75,100.0
5963,D5,356.75,0.5,75,100.0
5964,G3,356.797,0.5,68,100.0
5965,B3,356.797,0.5,68,100.0
5966,D4,356.797,0.5,68,100.0
5967,D5,357.0,0.25,96,100.0
5968,G2,357.0,0.25,70,100.0
5969,D2,357.0,0.5,77,100.0
5970,G#2,357.0,0.5,77,100.0
5971,G#2,357.0,0.5,77,100.0
5972,C5,357.25,0.25,97,100.0
5973,G2,357.25,0.25,70,100.0
5974,D4,357.25,0.25,60,100.0
5975,G4,357.25,0.25,60,100.0
5976,B4,357.25,0.25,60,100.0
5977,D5,357.25,0.25,60,100.0
5978,D5,357.25,0.25,74,100.0
5979,B4,357.25,0.25,74,100.0
5980,G4,357.25,0.25,74,100.0
5981,D4,357.25,0.25,74,100.0
5982,D4,357.297,0.25,67,100.0
5983,B3,357.297,0.25,67,100.0
5984,G3,357.297,0.25,67,100.0
5985,A4,357.5,0.25,97,100.0
5986,E3,357.5,0.5,71,100.0
5987,B4,357.5,0.5,60,100.0
5988,G4,357.5,0.5,60,100.0
5989,D5,357.5,0.5,60,100.0
5990,D4,357.5,0.5,60,100.0
5991,D4,357.5,0.5,75,100.0
5992,D5,357.5,0.5,75,100.0
5993,G4,357.5,0.5,75,100.0
5994,B4,357.5,0.5,75,100.0
5995,G#2,357.5,0.5,76,100.0
5996,G#2,357.5,0.5,76,100.0
5997,D4,357.547,0.5,68,100.0
5998,B3,357.547,0.5,68,100.0
5999,G3,357.547,0.5,68,100.0
6000,C5,357.75,0.25,96,100.0
6001,D5,358.0,0.25,95,100.0
6002,D2,358.016,0.25,72,100.0
6003,G#2,358.018,0.5,74,100.0
6004,C2,358.026,1.0,74,100.0
6005,C5,358.25,3.75,95,100.0
6006,D2,358.266,0.5,72,100.0
6007,G#2,358.518,0.5,74,100.0
6008,G#2,358.518,0.5,74,100.0
6009,D2,358.766,0.25,72,100.0
6010,A4,359.0,0.25,54,100.0
6011,C4,359.0,0.25,54,100.0
6012,C5,359.0,0.25,54,100.0
6013,F4,359.0,0.25,54,100.0
6014,F4,359.0,0.25,76,100.0
6015,C5,359.0,0.25,76,100.0
6016,C4,359.0,0.25,76,100.0
6017,A4,359.0,0.25,76,100.0
6018,A2,359.016,0.25,72,100.0
6019,D2,359.018,0.5,75,100.0
6020,G#2,359.018,0.5,75,100.0
6021,G#2,359.018,0.5,75,100.0
6022,C4,359.047,0.25,68,100.0
6023,F3,359.047,0.25,68,100.0
6024,A3,359.047,0.25,68,100.0
6025,A4,359.25,0.5,59,100.0
6026,F4,359.25,0.5,59,100.0
6027,C5,359.25,0.5,59,100.0
6028,C4,359.25,0.5,59,100.0
6029,C4,359.25,0.5,76,100.0
6030,C5,359.25,0.5,76,100.0
6031,F4,359.25,0.5,76,100.0
6032,A4,359.25,0.5,76,100.0
6033,A2,359.266,0.25,72,100.0
6034,C4,359.297,0.5,67,100.0
6035,A3,359.297,0.5,67,100.0
6036,F3,359.297,0.5,67,100.0
6037,D3,359.516,0.5,72,100.0
6038,G#2,359.518,0.5,75,100.0
6039,G#2,359.518,0.5,75,100.0
6040,B4,359.75,0.75,56,100.0
6041,D5,359.75,0.75,56,100.0
6042,G4,359.75,0.75,56,100.0
6043,D4,359.75,0.75,56,100.0
6044,D4,359.75,0.75,75,100.0
6045,G4,359.75,0.75,75,100.0
6046,D5,359.75,0.75,75,100.0
6047,B4,359.75,0.75,75,100.0
6048,B3,359.797,0.75,67,100.0
6049,G3,359.797,0.75,67,100.0
6050,D4,359.797,0.75,67,100.0
6051,E2,360.016,0.25,71,100.0
6052,G#2,360.018,0.5,76,100.0
6053,G#2,360.018,0.5,76,100.0
6054,C2,360.026,1.0,76,100.0
6055,E2,360.266,0.5,71,100.0
6056,D5,360.5,0.5,59,100.0
6057,G4,360.5,0.5,59,100.0
6058,B4,360.5,0.5,59,100.0
6059,D4,360.5,0.5,59,100.0
6060,D4,360.5,0.5,74,100.0
6061,B4,360.5,0.5,74,100.0
6062,G4,360.5,0.5,74,100.0
6063,D5,360.5,0.5,74,100.0
6064,G#2,360.518,0.5,77,100.0
6065,G#2,360.518,0.5,77,100.0
6066,G3,360.547,0.5,67,100.0
6067,D4,360.547,0.5,67,100.0
6068,B3,360.547,0.5,67,100.0
6069,E2,360.766,0.25,71,100.0
6070,D4,361.0,0.5,56,100.0
6071,B4,361.0,0.5,56,100.0
6072,G4,361.0,0.5,56,100.0
6073,D5,361.0,0.5,56,100.0
6074,D5,361.0,0.5,80,100.0
6075,G4,361.0,0.5,80,100.0
6076,B4,361.0,0.5,80,100.0
6077,D4,361.0,0.5,80,100.0
6078,G2,361.016,0.25,71,100.0
6079,D2,361.018,0.5,77,100.0
6080,G#2,361.018,0.5,77,100.0
6081,G#2,361.018,0.5,77,100.0
6082,D4,361.047,0.5,69,100.0
6083,B3,361.047,0.5,69,100.0
6084,G3,361.047,0.5,69,100.0
6085,G2,361.266,0.25,71,100.0
6086,B4,361.5,0.25,55,100.0
6087,D5,361.5,0.25,55,100.0
6088,G4,361.5,0.25,55,100.0
6089,D4,361.5,0.25,55,100.0
6090,D4,361.5,0.25,77,100.0
6091,G4,361.5,0.25,77,100.0
6092,D5,361.5,0.25,77,100.0
6093,B4,361.5,0.25,77,100.0
6094,E3,361.516,0.484,71,100.0
6095,G#2,361.518,241/500,76,100.0
6096,G#2,361.518,241/500,76,100.0
6097,D4,361.547,0.25,70,100.0
6098,B3,361.547,0.25,70,100.0
6099,G3,361.547,0.25,70,100.0
6100,E-4,361.75,0.25,59,100.0
6101,C5,361.75,0.25,59,100.0
6102,A4,361.75,0.25,59,100.0
6103,D5,361.75,0.25,59,100.0
6104,D5,361.75,0.25,78,100.0
6105,A4,361.75,0.25,78,100.0
6106,C5,361.75,0.25,78,100.0
6107,E-4,361.75,0.25,78,100.0
6108,A3,361.797,0.25,70,100.0
6109,C4,361.797,0.25,70,100.0
6110,E-4,361.797,0.25,70,100.0
6111,E3,362.0,0.016,71,100.0
6112,E-4,362.0,0.5,59,100.0
6113,C5,362.0,0.5,59,100.0
6114,A4,362.0,0.5,59,100.0
6115,D5,362.0,0.5,59,100.0
6116,D5,362.0,0.5,78,100.0
6117,A4,362.0,0.5,78,100.0
6118,C5,362.0,0.5,78,100.0
6119,E-4,362.0,0.5,78,100.0
6120,G#2,362.0,9/500,76,100.0
6121,G#2,362.0,9/500,76,100.0
6122,F1,362.016,0.25,71,100.0
6123,G#2,362.018,0.5,74,100.0
6124,C2,362.026,1.0,74,100.0
6125,F1,362.266,0.5,71,100.0
6126,A3,362.5,0.25,87,100.0
6127,C4,362.5,0.25,87,100.0
6128,E-4,362.5,0.25,87,100.0
6129,G#2,362.518,0.5,74,100.0
6130,G#2,362.518,0.5,74,100.0
6131,C4,362.547,0.5,80,100.0
6132,E-4,362.547,0.5,80,100.0
6133,A3,362.547,0.5,80,100.0
6134,F1,362.766,0.25,71,100.0
6135,C2,363.016,0.25,71,100.0
6136,G#2,363.018,0.5,75,100.0
6137,G#2,363.018,0.5,75,100.0
6138,D2,363.018,0.5,75,100.0
6139,A3,363.25,0.25,86,100.0
6140,C4,363.25,0.25,86,100.0
6141,E-4,363.25,0.25,86,100.0
6142,C2,363.266,0.25,72,100.0
6143,A3,363.297,0.5,80,100.0
6144,C4,363.297,0.5,80,100.0
6145,E-4,363.297,0.5,80,100.0
6146,F2,363.516,0.5,72,100.0
6147,G#2,363.518,0.5,75,100.0
6148,G#2,363.518,0.5,75,100.0
6149,B3,364.0,0.25,86,100.0
6150,D4,364.0,0.25,86,100.0
6151,F4,364.0,0.25,86,100.0
6152,G1,364.016,0.25,72,100.0
6153,G#2,364.018,0.5,76,100.0
6154,G#2,364.018,0.5,76,100.0
6155,C2,364.026,1.0,76,100.0
6156,D4,364.047,0.5,81,100.0
6157,B3,364.047,0.5,81,100.0
6158,F4,364.047,0.5,81,100.0
6159,G1,364.266,0.5,72,100.0
6160,G#2,364.518,0.5,77,100.0
6161,G#2,364.518,0.5,77,100.0
6162,B3,364.75,0.25,84,100.0
6163,D4,364.75,0.25,84,100.0
6164,F4,364.75,0.25,84,100.0
6165,G1,364.766,0.25,71,100.0
6166,B3,364.797,0.25,80,100.0
6167,D4,364.797,0.25,80,100.0
6168,F4,364.797,0.25,80,100.0
6169,D2,365.016,0.25,71,100.0
6170,G#2,365.018,0.5,77,100.0
6171,G#2,365.018,0.5,77,100.0
6172,D2,365.018,0.5,77,100.0
6173,D2,365.266,0.25,70,100.0
6174,B3,365.5,0.25,85,100.0
6175,D4,365.5,0.25,85,100.0
6176,F4,365.5,0.25,85,100.0
6177,G2,365.516,0.484,70,100.0
6178,G#2,365.518,241/500,76,100.0
6179,G#2,365.518,241/500,76,100.0
6180,D4,365.547,0.5,83,100.0
6181,F4,365.547,0.5,83,100.0
6182,B3,365.547,0.5,83,100.0
6183,C2,366.0,0.25,78,100.0
6184,G2,366.0,0.016,70,100.0
6185,G#2,366.0,9/500,76,100.0
6186,G#2,366.0,9/500,76,100.0
6187,G#2,366.018,0.5,74,100.0
6188,C2,366.026,1.0,74,100.0
6189,C2,366.25,0.5,78,100.0
6190,E-3,366.5,0.25,66,100.0
6191,B-3,366.5,0.25,66,100.0
6192,G#2,366.518,0.5,74,100.0
6193,G#2,366.518,0.5,74,100.0
6194,E-4,366.547,0.25,86,100.0
6195,B-4,366.547,0.25,86,100.0
6196,E3,366.547,0.75,88,100.0
6197,E-4,366.547,0.75,88,100.0
6198,B-3,366.547,0.75,88,100.0
6199,C2,366.75,0.25,77,100.0
6200,G2,367.0,0.25,81,100.0
6201,G#2,367.018,0.5,75,100.0
6202,G#2,367.018,0.5,75,100.0
6203,D2,367.018,0.5,75,100.0
6204,G2,367.25,0.25,77,100.0
6205,E-3,367.25,0.25,66,100.0
6206,B-3,367.25,0.25,66,100.0
6207,E-4,367.297,0.25,86,100.0
6208,B-4,367.297,0.25,86,100.0
6209,E3,367.297,0.75,88,100.0
6210,B-3,367.297,0.75,88,100.0
6211,E-4,367.297,0.75,88,100.0
6212,C3,367.5,0.5,78,100.0
6213,G#2,367.518,0.5,75,100.0
6214,G#2,367.518,0.5,75,100.0
6215,C2,368.0,0.25,77,100.0
6216,E-3,368.0,0.25,65,100.0
6217,B-3,368.0,0.25,65,100.0
6218,G#2,368.018,0.5,76,100.0
6219,G#2,368.018,0.5,76,100.0
6220,C2,368.026,1.0,76,100.0
6221,E-4,368.047,0.25,85,100.0
6222,B-4,368.047,0.25,85,100.0
6223,E3,368.047,0.75,88,100.0
6224,E-4,368.047,0.75,88,100.0
6225,B-3,368.047,0.75,88,100.0
6226,C2,368.25,0.5,77,100.0
6227,G#2,368.518,0.5,77,100.0
6228,G#2,368.518,0.5,77,100.0
6229,C2,368.75,0.25,77,100.0
6230,E-3,368.75,0.25,64,100.0
6231,B-3,368.75,0.25,64,100.0
6232,E-4,368.797,0.25,84,100.0
6233,B-4,368.797,0.25,84,100.0
6234,E3,368.797,0.75,89,100.0
6235,E-4,368.797,0.75,89,100.0
6236,B-3,368.797,0.75,89,100.0
6237,G2,369.0,0.25,81,100.0
6238,G#2,369.018,0.5,77,100.0
6239,G#2,369.018,0.5,77,100.0
6240,D2,369.018,0.5,77,100.0
6241,G2,369.25,0.25,77,100.0
6242,C3,369.5,0.5,76,100.0
6243,E-3,369.5,0.25,66,100.0
6244,B-3,369.5,0.25,66,100.0
6245,G#2,369.518,241/500,76,100.0
6246,G#2,369.518,241/500,76,100.0
6247,E-4,369.547,0.25,86,100.0
6248,B-4,369.547,0.25,86,100.0
6249,E3,369.547,0.5,89,100.0
6250,E-4,369.547,0.5,89,100.0
6251,B-3,369.547,0.5,89,100.0
6252,C2,370.0,0.25,76,100.0
6253,G#2,370.0,9/500,76,100.0
6254,G#2,370.0,9/500,76,100.0
6255,G#2,370.018,0.5,74,100.0
6256,C2,370.026,1.0,74,100.0
6257,C2,370.25,0.5,75,100.0
6258,E-3,370.5,0.25,64,100.0
6259,B-3,370.5,0.25,64,100.0
6260,G#2,370.518,0.5,74,100.0
6261,G#2,370.518,0.5,74,100.0
6262,E-4,370.547,0.25,84,100.0
6263,B-4,370.547,0.25,84,100.0
6264,B-3,370.547,0.75,88,100.0
6265,E-4,370.547,0.75,88,100.0
6266,E3,370.547,0.75,88,100.0
6267,C2,370.75,0.25,78,100.0
6268,G2,371.0,0.25,77,100.0
6269,D2,371.018,0.5,75,100.0
6270,G#2,371.018,0.5,75,100.0
6271,G#2,371.018,0.5,75,100.0
6272,G2,371.25,0.25,77,100.0
6273,E-3,371.25,0.25,66,100.0
6274,B-3,371.25,0.25,66,100.0
6275,E-4,371.297,0.25,86,100.0
6276,B-4,371.297,0.25,86,100.0
6277,E-4,371.297,0.75,88,100.0
6278,B-3,371.297,0.75,88,100.0
6279,E3,371.297,0.75,88,100.0
6280,C3,371.5,0.5,73,100.0
6281,G#2,371.518,0.5,75,100.0
6282,G#2,371.518,0.5,75,100.0
6283,C2,372.0,0.25,78,100.0
6284,E-3,372.0,0.25,65,100.0
6285,B-3,372.0,0.25,65,100.0
6286,G#2,372.018,0.5,76,100.0
6287,G#2,372.018,0.5,76,100.0
6288,C2,372.026,1.0,76,100.0
6289,E-4,372.047,0.25,85,100.0
6290,B-4,372.047,0.25,85,100.0
6291,B-3,372.047,0.75,88,100.0
6292,E-4,372.047,0.75,88,100.0
6293,E3,372.047,0.75,88,100.0
6294,C2,372.25,0.5,78,100.0
6295,G#2,372.518,0.5,77,100.0
6296,G#2,372.518,0.5,77,100.0
6297,C2,372.75,0.25,75,100.0
6298,E-3,372.75,0.25,66,100.0
6299,B-3,372.75,0.25,66,100.0
6300,E-4,372.797,0.25,86,100.0
6301,B-4,372.797,0.25,86,100.0
6302,B-3,372.797,0.75,89,100.0
6303,E-4,372.797,0.75,89,100.0
6304,E3,372.797,0.75,89,100.0
6305,G2,373.0,0.25,72,100.0
6306,D2,373.018,0.5,77,100.0
6307,G#2,373.018,0.5,77,100.0
6308,G#2,373.018,0.5,77,100.0
6309,G2,373.25,0.25,77,100.0
6310,C3,373.5,0.5,76,100.0
6311,E-3,373.5,0.25,66,100.0
6312,B-3,373.5,0.25,66,100.0
6313,G#2,373.518,241/500,76,100.0
6314,G#2,373.518,241/500,76,100.0
6315,E-4,373.547,0.25,86,100.0
6316,B-4,373.547,0.25,86,100.0
6317,B-3,373.547,0.5,89,100.0
6318,E-4,373.547,0.5,89,100.0
6319,E3,373.547,0.5,89,100.0
6320,A4,374.0,1.75,98,100.0
6321,F1,374.0,0.25,80,100.0
6322,G#2,374.0,9/500,76,100.0
6323,G#2,374.0,9/500,76,100.0
6324,G#2,374.018,0.5,74,100.0
6325,C2,374.026,1.0,74,100.0
6326,C4,374.047,1.75,91,100.0
6327,E4,374.047,1.75,91,100.0
6328,A4,374.047,1.75,91,100.0
6329,F1,374.25,0.5,88,100.0
6330,G#2,374.518,0.5,74,100.0
6331,G#2,374.518,0.5,74,100.0
6332,F1,374.75,0.25,84,100.0
6333,E4,375.0,0.25,86,100.0
6334,C2,375.0,0.25,88,100.0
6335,G#2,375.018,0.5,75,100.0
6336,G#2,375.018,0.5,75,100.0
6337,D2,375.018,0.5,75,100.0
6338,D4,375.25,0.5,85,100.0
6339,C2,375.25,0.25,88,100.0
6340,F2,375.5,0.5,84,100.0
6341,G#2,375.518,0.5,75,100.0
6342,G#2,375.518,0.5,75,100.0
6343,G4,375.75,2.0,90,100.0
6344,D4,375.75,0.5,85,100.0
6345,D4,375.797,2.0,89,100.0
6346,G4,375.797,2.0,89,100.0
6347,B3,375.797,2.0,89,100.0
6348,E1,376.0,0.25,96,100.0
6349,G#2,376.018,0.5,76,100.0
6350,G#2,376.018,0.5,76,100.0
6351,C2,376.026,1.0,76,100.0
6352,C4,376.25,0.5,86,100.0
6353,E1,376.25,0.5,68,100.0
6354,G#2,376.518,0.5,77,100.0
6355,G#2,376.518,0.5,77,100.0
6356,C4,376.75,0.5,86,100.0
6357,E1,376.75,0.25,76,100.0
6358,B1,377.0,0.25,84,100.0
6359,G#2,377.018,0.5,77,100.0
6360,G#2,377.018,0.5,77,100.0
6361,D2,377.018,0.5,77,100.0
6362,C4,377.25,0.5,87,100.0
6363,B1,377.25,0.25,84,100.0
6364,E2,377.5,0.5,88,100.0
6365,G#2,377.518,241/500,76,100.0
6366,G#2,377.518,241/500,76,100.0
6367,F4,377.75,0.25,90,100.0
6368,B3,377.75,0.25,88,100.0
6369,A3,377.797,0.25,95,100.0
6370,C4,377.797,0.25,95,100.0
6371,F4,377.797,0.25,95,100.0
6372,B3,378.0,0.25,88,100.0
6373,D2,378.0,0.25,88,100.0
6374,C2,378.0,1.0,84,100.0
6375,G#2,378.0,0.5,84,100.0
6376,G#2,378.0,9/500,76,100.0
6377,G#2,378.0,9/500,76,100.0
6378,F4,378.25,0.25,89,100.0
6379,C4,378.25,0.5,87,100.0
6380,D2,378.25,0.5,96,100.0
6381,G#2,378.5,0.5,80,100.0
6382,F4,378.75,0.25,88,100.0
6383,C4,378.75,0.5,87,100.0
6384,D2,378.75,0.25,84,100.0
6385,A2,379.0,0.25,84,100.0
6386,D2,379.0,0.5,80,100.0
6387,G#2,379.0,0.5,80,100.0
6388,G4,379.25,0.25,88,100.0
6389,B3,379.25,0.5,85,100.0
6390,A2,379.25,0.25,92,100.0
6391,D3,379.5,0.5,80,100.0
6392,G#2,379.5,0.5,88,100.0
6393,E4,379.75,1.5,89,100.0
6394,C4,379.75,1.25,84,100.0
6395,A3,379.797,1.75,95,100.0
6396,C4,379.797,1.75,95,100.0
6397,F4,379.797,1.75,95,100.0
6398,C2,380.0,0.25,79,100.0
6399,D2,380.0,0.5,80,100.0
6400,C2,380.25,0.5,92,100.0
6401,D2,380.5,0.25,86,100.0
6402,E2,380.75,0.5,84,100.0
6403,D2,380.75,0.25,85,100.0
6404,D2,381.0,1.0,88,100.0
6405,G4,381.25,0.25,91,100.0
6406,E1,381.25,0.5,84,100.0
6407,C2,381.25,0.5,84,100.0
6408,E4,381.547,1.5,94,100.0
6409,G3,381.547,1.5,94,100.0
6410,B3,381.547,1.5,94,100.0
6411,A4,381.75,0.25,91,100.0
6412,F1,381.75,0.25,92,100.0
6413,C2,381.75,0.25,83,100.0
6414,A4,382.0,1.75,91,100.0
6415,F1,382.0,1.0,92,100.0
6416,G#2,382.0,0.5,84,100.0
6417,G#2,382.5,0.5,92,100.0
6418,E4,383.0,0.25,83,100.0
6419,C2,383.0,0.25,88,100.0
6420,D2,383.0,0.5,84,100.0
6421,G#2,383.0,0.5,84,100.0
6422,G4,383.047,0.5,93,100.0
6423,D4,383.047,0.5,93,100.0
6424,B3,383.047,0.5,93,100.0
6425,D4,383.25,0.5,83,100.0
6426,C2,383.25,0.25,84,100.0
6427,F2,383.5,0.5,80,100.0
6428,G#2,383.5,0.5,84,100.0
6429,C4,383.547,0.25,96,100.0
6430,E4,383.547,0.25,96,100.0
6431,A4,383.547,0.25,96,100.0
6432,G4,383.75,2.0,90,100.0
6433,D4,383.75,0.5,84,100.0
6434,E1,384.0,0.25,76,100.0
6435,C2,384.0,1.0,82,100.0
6436,G#2,384.0,0.5,82,100.0
6437,C4,384.25,0.5,84,100.0
6438,E1,384.25,0.5,81,100.0
6439,G#2,384.5,0.5,76,100.0
6440,C4,384.75,0.5,84,100.0
6441,E1,384.75,0.25,82,100.0
6442,B1,385.0,0.25,80,100.0
6443,D2,385.0,0.5,85,100.0
6444,G#2,385.0,0.5,85,100.0
6445,C4,385.25,0.5,84,100.0
6446,B1,385.25,0.25,84,100.0
6447,E2,385.5,0.5,83,100.0
6448,G#2,385.5,0.5,84,100.0
6449,C4,385.547,1.75,96,100.0
6450,E4,385.547,1.75,96,100.0
6451,A4,385.547,1.75,96,100.0
6452,F4,385.75,0.25,90,100.0
6453,B3,385.75,0.25,84,100.0
6454,B3,386.0,0.25,84,100.0
6455,D2,386.0,0.25,80,100.0
6456,C2,386.0,1.0,80,100.0
6457,G#2,386.0,0.5,80,100.0
6458,C4,386.25,0.5,84,100.0
6459,D2,386.25,0.5,88,100.0
6460,F4,386.297,0.25,90,100.0
6461,G#2,386.5,0.5,80,100.0
6462,C4,386.75,0.5,84,100.0
6463,D2,386.75,0.25,85,100.0
6464,F4,386.797,0.25,86,100.0
6465,A2,387.0,0.25,87,100.0
6466,D2,387.0,0.5,85,100.0
6467,G#2,387.0,0.5,85,100.0
6468,B3,387.25,0.5,84,100.0
6469,A2,387.25,0.25,87,100.0
6470,G4,387.297,0.25,87,100.0
6471,B3,387.297,2.0,94,100.0
6472,D4,387.297,2.0,94,100.0
6473,G4,387.297,2.0,94,100.0
6474,D3,387.5,0.5,85,100.0
6475,G#2,387.5,0.5,79,100.0
6476,C4,387.75,1.25,84,100.0
6477,E4,387.797,1.5,87,100.0
6478,C2,388.0,0.25,88,100.0
6479,D2,388.0,0.25,81,100.0
6480,C2,388.25,0.5,84,100.0
6481,D2,388.25,0.25,81,100.0
6482,D2,388.5,0.25,79,100.0
6483,C2,388.75,0.5,82,100.0
6484,D2,388.75,0.25,84,100.0
6485,D2,389.0,1.0,85,100.0
6486,E1,389.25,0.5,88,100.0
6487,C2,389.25,0.5,87,100.0
6488,G4,389.297,0.25,84,100.0
6489,A3,389.297,0.25,93,100.0
6490,F4,389.297,0.25,93,100.0
6491,C4,389.297,0.25,93,100.0
6492,E1,389.75,0.25,83,100.0
6493,C2,389.75,0.25,87,100.0
6494,A4,389.797,0.203,82,100.0
6495,A4,390.0,0.047,82,100.0
6496,F1,390.0,0.25,80,100.0
6497,G#2,390.0,0.5,74,100.0
6498,C2,390.008,1.0,74,100.0
6499,A4,390.047,1.75,82,100.0
6500,F1,390.25,0.5,88,100.0
6501,G#2,390.5,0.5,75,100.0
6502,G#2,390.5,0.5,75,100.0
6503,F1,390.75,0.25,84,100.0
6504,E4,391.0,0.25,86,100.0
6505,C2,391.0,0.25,88,100.0
6506,G#2,391.0,0.5,72,100.0
6507,G#2,391.0,0.5,72,100.0
6508,D2,391.0,0.5,72,100.0
6509,D4,391.25,0.5,82,100.0
6510,C2,391.25,0.25,86,100.0
6511,A3,391.297,1.75,93,100.0
6512,F4,391.297,1.75,93,100.0
6513,C4,391.297,1.75,93,100.0
6514,F2,391.5,0.5,84,100.0
6515,G#2,391.5,0.5,69,100.0
6516,G#2,391.5,0.5,69,100.0
6517,D4,391.75,0.5,74,100.0
6518,G4,391.797,2.0,79,100.0
6519,E1,392.0,0.25,82,100.0
6520,G#2,392.0,0.5,68,100.0
6521,G#2,392.0,0.5,68,100.0
6522,C2,392.008,1.0,68,100.0
6523,C4,392.25,0.5,69,100.0
6524,E1,392.25,0.5,79,100.0
6525,G#2,392.5,0.5,65,100.0
6526,G#2,392.5,0.5,65,100.0
6527,C4,392.75,0.5,64,100.0
6528,E1,392.75,0.25,77,100.0
6529,B1,393.0,0.25,75,100.0
6530,G#2,393.0,0.5,64,100.0
6531,G#2,393.0,0.5,64,100.0
6532,D2,393.0,0.5,64,100.0
6533,G3,393.047,1.5,93,100.0
6534,E4,393.047,1.5,93,100.0
6535,B3,393.047,1.5,93,100.0
6536,C4,393.25,0.5,59,100.0
6537,B1,393.25,0.25,72,100.0
6538,E2,393.5,0.5,70,100.0
6539,G#2,393.5,0.5,62,100.0
6540,G#2,393.5,0.5,62,100.0
6541,B3,393.75,0.25,55,100.0
6542,F4,393.797,0.203,76,100.0
6543,F4,394.0,0.047,76,100.0
6544,B3,394.0,0.25,55,100.0
6545,D2,394.0,0.25,70,100.0
6546,G#2,394.0,0.5,61,100.0
6547,C2,394.0,1.0,61,100.0
6548,C4,394.25,0.5,55,100.0
6549,D2,394.25,0.5,68,100.0
6550,F4,394.297,0.25,67,100.0
6551,G#2,394.5,0.5,56,100.0
6552,B3,394.547,0.5,95,100.0
6553,G4,394.547,0.5,95,100.0
6554,D4,394.547,0.5,95,100.0
6555,C4,394.75,0.5,51,100.0
6556,D2,394.75,0.25,66,100.0
6557,F4,394.797,0.25,62,100.0
6558,A2,395.0,0.25,64,100.0
6559,G#2,395.0,0.5,55,100.0
6560,D2,395.0,0.5,55,100.0
6561,F4,395.094,0.203,78,100.0
6562,C4,395.094,0.203,78,100.0
6563,A3,395.094,0.203,78,100.0
6564,B3,395.25,0.5,48,100.0
6565,A2,395.25,0.25,62,100.0
6566,G4,395.297,0.25,56,100.0
6567,F4,395.297,1.797,78,100.0
6568,C4,395.297,1.797,78,100.0
6569,A3,395.297,1.797,78,100.0
6570,D3,395.5,0.5,59,100.0
6571,G#2,395.5,0.5,52,100.0
6572,C4,395.75,1.25,44,100.0
6573,E4,395.797,1.5,48,100.0
6574,C2,396.0,0.25,58,100.0
6575,D2,396.0,0.5,48,100.0
6576,C2,396.25,0.5,57,100.0
6577,D2,396.5,0.25,46,100.0
6578,E2,396.75,0.5,53,100.0
6579,D2,396.75,0.25,44,100.0
6580,D2,397.0,1.0,42,100.0
6581,G3,397.094,1.5,82,100.0
6582,B3,397.094,1.5,82,100.0
6583,E4,397.094,1.5,82,100.0
6584,E1,397.25,0.5,50,100.0
6585,C2,397.25,0.5,41,100.0
6586,G4,397.297,0.25,46,100.0
6587,F1,397.75,0.25,43,100.0
6588,C2,397.75,0.25,38,100.0
6589,A4,397.797,0.203,43,100.0
6590,A4,398.0,1.797,43,100.0
6591,F1,398.0,1.0,43,100.0
6592,G#2,398.0,0.5,36,100.0
6593,G#2,398.5,0.5,33,100.0
6594,B3,398.594,0.5,81,100.0
6595,D4,398.594,0.5,81,100.0
6596,G4,398.594,0.5,81,100.0
6597,E4,399.0,0.25,38,100.0
6598,C2,399.0,0.25,41,100.0
6599,G#2,399.0,0.5,31,100.0
6600,D2,399.0,0.5,31,100.0
6601,F4,399.047,0.25,81,100.0
6602,C4,399.047,0.25,81,100.0
6603,A3,399.047,0.25,81,100.0
6604,D4,399.25,0.5,34,100.0
6605,C2,399.25,0.25,40,100.0
6606,F4,399.297,1.75,81,100.0
6607,C4,399.297,1.75,81,100.0
6608,A3,399.297,1.75,81,100.0
6609,F2,399.5,0.5,39,100.0
6610,G#2,399.5,0.5,31,100.0
6611,D4,399.75,0.5,34,100.0
6612,G4,399.797,2.0,40,100.0
6613,E1,400.0,0.25,38,100.0
6614,G#2,400.0,0.5,27,100.0
6615,C2,400.0,1.0,27,100.0
6616,C4,400.25,0.5,28,100.0
6617,E1,400.25,0.5,35,100.0
6618,G#2,400.5,0.5,25,100.0
6619,C4,400.75,0.5,22,100.0
6620,E1,400.75,0.25,33,100.0
6621,B1,401.0,0.25,32,100.0
6622,G#2,401.0,0.5,23,100.0
6623,D2,401.0,0.5,23,100.0
6624,B3,401.047,1.5,82,100.0
6625,G3,401.047,1.5,82,100.0
6626,E4,401.047,1.5,82,100.0
6627,C4,401.25,0.5,21,100.0
6628,B1,401.25,0.25,31,100.0
6629,E2,401.5,0.5,29,100.0
6630,G#2,401.5,0.5,21,100.0
6631,B3,401.75,0.25,17,100.0
6632,F4,401.797,0.203,39,100.0
6633,F4,402.0,0.047,39,100.0
6634,B3,402.0,0.25,17,100.0
6635,D2,402.0,0.25,27,100.0
6636,G#2,402.0,0.5,20,100.0
6637,C2,402.0,1.0,20,100.0
6638,C4,402.25,0.5,15,100.0
6639,D2,402.25,0.5,25,100.0
6640,F4,402.344,0.25,34,100.0
6641,G#2,402.5,0.5,18,100.0
6642,B3,402.547,0.5,72,100.0
6643,D4,402.547,0.5,72,100.0
6644,G4,402.547,0.5,72,100.0
6645,C4,402.75,0.5,14,100.0
6646,D2,402.75,0.25,24,100.0
6647,F4,402.844,0.25,31,100.0
6648,A2,403.0,0.25,24,100.0
6649,G#2,403.0,0.5,17,100.0
6650,D2,403.0,0.5,17,100.0
6651,A4,403.047,0.25,64,100.0
6652,E4,403.047,0.25,64,100.0
6653,C4,403.047,0.25,64,100.0
6654,B3,403.25,0.5,11,100.0
6655,A2,403.25,0.25,23,100.0
6656,A4,403.297,1.75,64,100.0
6657,E4,403.297,1.75,64,100.0
6658,C4,403.297,1.75,64,100.0
6659,G4,403.344,0.25,29,100.0
6660,D3,403.5,0.5,20,100.0
6661,G#2,403.5,0.5,16,100.0
6662,C4,403.75,1.25,11,100.0
6663,E4,403.844,1.5,30,100.0
6664,C2,404.0,0.25,19,100.0
6665,D2,404.0,0.25,15,100.0
6666,C2,404.25,0.5,17,100.0
6667,D2,404.25,0.25,14,100.0
6668,D2,404.5,0.25,13,100.0
6669,C2,404.75,0.5,14,100.0
6670,D2,404.75,0.25,11,100.0
6671,D2,405.0,1.0,11,100.0
6672,G4,405.047,2.0,53,100.0
6673,D4,405.047,2.0,53,100.0
6674,B3,405.047,2.0,53,100.0
6675,E1,405.25,0.5,11,100.0
6676,C2,405.25,0.5,10,100.0
6677,E1,405.75,0.25,10,100.0
6678,C2,405.75,0.25,10,100.0
6679,C4,407.047,0.25,46,100.0
6680,F4,407.047,0.25,46,100.0
6681,A3,407.047,0.25,46,100.0
6682,C4,407.297,1.75,46,100.0
6683,F4,407.297,1.75,46,100.0
6684,A3,407.297,1.75,46,100.0
6685,B3,409.047,1.5,36,100.0
6686,E4,409.047,1.5,36,100.0
6687,G3,409.047,1.5,36,100.0
