,note_name,start_time,duration,velocity,tempo
0,A4,0.0,0.25,79,102.0
1,E-4,0.0,0.25,79,102.0
2,A4,0.25,0.25,79,102.0
3,A4,0.5,0.25,63,102.0
4,C#4,0.5,0.25,63,102.0
5,A4,0.75,0.25,71,102.0
6,C#4,0.75,0.25,71,102.0
7,A4,1.0,0.25,95,102.0
8,A4,1.25,0.25,79,102.0
9,A4,1.5,0.25,63,102.0
10,E4,1.5,0.25,63,102.0
11,A4,1.75,0.25,79,102.0
12,A4,2.0,0.25,79,102.0
13,C#4,2.0,0.25,79,102.0
14,A4,2.25,0.25,79,102.0
15,A4,2.5,0.25,63,102.0
16,E4,2.5,0.25,63,102.0
17,A4,2.75,0.25,63,102.0
18,C#4,2.75,0.25,63,102.0
19,A4,3.0,0.25,95,102.0
20,A4,3.25,0.25,79,102.0
21,A4,3.5,0.25,63,102.0
22,E-4,3.5,0.25,63,102.0
23,A4,3.75,0.25,71,102.0
24,E4,3.75,0.25,71,102.0
25,A4,4.0,0.25,79,102.0
26,E-4,4.0,0.25,79,102.0
27,A4,4.25,0.25,79,102.0
28,A4,4.5,0.25,63,102.0
29,C#4,4.5,0.25,63,102.0
30,A4,4.75,0.25,71,102.0
31,C#4,4.75,0.25,71,102.0
32,A4,5.0,0.25,95,102.0
33,A4,5.25,0.25,79,102.0
34,A4,5.5,0.25,63,102.0
35,E4,5.5,0.25,63,102.0
36,A4,5.75,0.25,79,102.0
37,A4,6.0,0.25,79,102.0
38,C#4,6.0,0.25,79,102.0
39,A4,6.25,0.25,79,102.0
40,A4,6.5,0.25,63,102.0
41,E4,6.5,0.25,63,102.0
42,A4,6.75,0.25,63,102.0
43,C#4,6.75,0.25,63,102.0
44,A4,7.0,0.25,95,102.0
45,A4,7.25,0.25,79,102.0
46,A4,7.5,0.25,63,102.0
47,E-4,7.5,0.25,63,102.0
48,A4,7.75,0.25,71,102.0
49,E4,7.75,0.25,71,102.0
50,A4,8.0,0.25,79,102.0
51,E-4,8.0,0.25,79,102.0
52,A4,8.25,0.25,79,102.0
53,A4,8.5,0.25,63,102.0
54,C#4,8.5,0.25,63,102.0
55,A4,8.75,0.25,71,102.0
56,C#4,8.75,0.25,71,102.0
57,A4,9.0,0.25,95,102.0
58,A4,9.25,0.25,79,102.0
59,A4,9.5,0.25,63,102.0
60,E4,9.5,0.25,63,102.0
61,A4,9.75,0.25,79,102.0
62,A4,10.0,0.25,79,102.0
63,C#4,10.0,0.25,79,102.0
64,A4,10.25,0.25,79,102.0
65,A4,10.5,0.25,63,102.0
66,E4,10.5,0.25,63,102.0
67,A4,10.75,0.25,63,102.0
68,C#4,10.75,0.25,63,102.0
69,A4,11.0,0.25,95,102.0
70,A4,11.25,0.25,79,102.0
71,A4,11.5,0.25,63,102.0
72,E-4,11.5,0.25,63,102.0
73,A4,11.75,0.25,71,102.0
74,E4,11.75,0.25,71,102.0
75,A4,12.0,0.25,79,102.0
76,E-4,12.0,0.25,79,102.0
77,A4,12.25,0.25,79,102.0
78,A4,12.5,0.25,63,102.0
79,C#4,12.5,0.25,63,102.0
80,A4,12.75,0.25,71,102.0
81,C#4,12.75,0.25,71,102.0
82,A4,13.0,0.25,95,102.0
83,A4,13.25,0.25,79,102.0
84,A4,13.5,0.25,63,102.0
85,E4,13.5,0.25,63,102.0
86,A4,13.75,0.25,79,102.0
87,A4,14.0,0.25,79,102.0
88,C#4,14.0,0.25,79,102.0
89,A4,14.25,0.25,79,102.0
90,A4,14.5,0.25,63,102.0
91,E4,14.5,0.25,63,102.0
92,A4,14.75,0.25,63,102.0
93,C#4,14.75,0.25,63,102.0
94,A4,15.0,0.25,95,102.0
95,A4,15.25,0.25,79,102.0
96,A4,15.5,0.25,63,102.0
97,E-4,15.5,0.25,63,102.0
98,A4,15.75,0.25,71,102.0
99,E4,15.75,0.25,71,102.0
100,C2,16.0,2.0,95,102.0
101,G4,16.0,4.0,95,102.0
102,D4,16.0,4.0,95,102.0
103,C4,16.0,4.0,95,102.0
104,G3,16.0,4.0,95,102.0
105,A4,16.0,0.25,84,102.0
106,E-4,16.0,0.25,84,102.0
107,C2,16.0,0.25,84,102.0
108,A4,16.25,0.25,79,102.0
109,A4,16.5,0.25,63,102.0
110,C#4,16.5,0.25,63,102.0
111,A4,16.75,0.25,71,102.0
112,C#4,16.75,0.25,71,102.0
113,A4,17.0,0.25,95,102.0
114,A4,17.25,0.25,79,102.0
115,A4,17.5,0.25,63,102.0
116,E4,17.5,0.25,63,102.0
117,A4,17.75,0.25,79,102.0
118,B-1,18.0,2.0,95,102.0
119,A4,18.0,0.25,79,102.0
120,C#4,18.0,0.25,79,102.0
121,A4,18.25,0.25,79,102.0
122,A4,18.5,0.25,63,102.0
123,E4,18.5,0.25,63,102.0
124,A4,18.75,0.25,63,102.0
125,C#4,18.75,0.25,63,102.0
126,A4,19.0,0.25,95,102.0
127,A4,19.25,0.25,79,102.0
128,A4,19.5,0.25,63,102.0
129,E-4,19.5,0.25,63,102.0
130,A4,19.75,0.25,71,102.0
131,E4,19.75,0.25,71,102.0
132,B-1,20.0,3.0,95,102.0
133,F4,20.0,3.0,95,102.0
134,C4,20.0,3.0,95,102.0
135,B-3,20.0,3.0,95,102.0
136,F3,20.0,3.0,95,102.0
137,A4,20.0,0.25,84,102.0
138,E-4,20.0,0.25,84,102.0
139,G#3,20.0,0.25,84,102.0
140,A4,20.25,0.25,79,102.0
141,A4,20.5,0.25,63,102.0
142,C#4,20.5,0.25,63,102.0
143,A4,20.75,0.25,71,102.0
144,C#4,20.75,0.25,71,102.0
145,A4,21.0,0.25,95,102.0
146,A4,21.25,0.25,79,102.0
147,A4,21.5,0.25,63,102.0
148,E4,21.5,0.25,63,102.0
149,A4,21.75,0.25,79,102.0
150,A4,22.0,0.25,79,102.0
151,C#4,22.0,0.25,79,102.0
152,A4,22.25,0.25,79,102.0
153,A4,22.5,0.25,63,102.0
154,E4,22.5,0.25,63,102.0
155,A4,22.75,0.25,63,102.0
156,C#4,22.75,0.25,63,102.0
157,B-1,23.0,0.5,95,102.0
158,F4,23.0,0.5,95,102.0
159,C4,23.0,0.5,95,102.0
160,B-3,23.0,0.5,95,102.0
161,F3,23.0,0.5,95,102.0
162,A4,23.0,0.25,95,102.0
163,C2,23.0,0.25,95,102.0
164,A4,23.25,0.25,79,102.0
165,A4,23.5,0.25,63,102.0
166,E-4,23.5,0.25,63,102.0
167,C2,23.75,0.25,95,102.0
168,G4,23.75,0.25,95,102.0
169,D4,23.75,0.25,95,102.0
170,C4,23.75,0.25,95,102.0
171,G3,23.75,0.25,95,102.0
172,A4,23.75,0.25,79,102.0
173,E4,23.75,0.25,79,102.0
174,C2,23.75,0.25,79,102.0
175,C2,24.0,2.0,95,102.0
176,A4,24.0,0.25,95,102.0
177,G4,24.0,4.0,95,102.0
178,D4,24.0,4.0,95,102.0
179,C4,24.0,4.0,95,102.0
180,G3,24.0,4.0,95,102.0
181,A4,24.25,0.25,79,102.0
182,A4,24.5,0.25,63,102.0
183,C#4,24.5,0.25,63,102.0
184,A4,24.75,0.25,71,102.0
185,C#4,24.75,0.25,71,102.0
186,A4,25.0,0.25,95,102.0
187,A4,25.25,0.25,79,102.0
188,A4,25.5,0.25,63,102.0
189,E4,25.5,0.25,63,102.0
190,A4,25.75,0.25,79,102.0
191,B-1,26.0,2.0,95,102.0
192,A4,26.0,0.25,79,102.0
193,C#4,26.0,0.25,79,102.0
194,A4,26.25,0.25,79,102.0
195,A4,26.5,0.25,63,102.0
196,E4,26.5,0.25,63,102.0
197,A4,26.75,0.25,63,102.0
198,C#4,26.75,0.25,63,102.0
199,A4,27.0,0.25,95,102.0
200,A4,27.25,0.25,79,102.0
201,A4,27.5,0.25,63,102.0
202,E-4,27.5,0.25,63,102.0
203,A4,27.75,0.25,71,102.0
204,E4,27.75,0.25,71,102.0
205,B-1,28.0,0.75,95,102.0
206,B-4,28.0,0.75,95,102.0
207,F4,28.0,0.75,95,102.0
208,B-3,28.0,0.75,95,102.0
209,A4,28.0,0.25,84,102.0
210,E-4,28.0,0.25,84,102.0
211,C2,28.0,0.25,84,102.0
212,A4,28.25,0.25,79,102.0
213,A4,28.5,0.25,63,102.0
214,C#4,28.5,0.25,63,102.0
215,B-1,28.75,2.25,95,102.0
216,C5,28.75,2.25,95,102.0
217,F4,28.75,2.25,95,102.0
218,B-3,28.75,2.25,95,102.0
219,A4,28.75,0.25,79,102.0
220,C#4,28.75,0.25,79,102.0
221,C2,28.75,0.25,79,102.0
222,A4,29.0,0.25,95,102.0
223,A4,29.25,0.25,79,102.0
224,A4,29.5,0.25,63,102.0
225,E4,29.5,0.25,63,102.0
226,A4,29.75,0.25,79,102.0
227,A4,30.0,0.25,79,102.0
228,C#4,30.0,0.25,79,102.0
229,A4,30.25,0.25,79,102.0
230,A4,30.5,0.25,63,102.0
231,E4,30.5,0.25,63,102.0
232,A4,30.75,0.25,63,102.0
233,C#4,30.75,0.25,63,102.0
234,B-1,31.0,0.5,95,102.0
235,A4,31.0,0.5,95,102.0
236,F4,31.0,0.5,95,102.0
237,B-3,31.0,0.5,95,102.0
238,A4,31.0,0.25,95,102.0
239,C2,31.0,0.25,95,102.0
240,A4,31.25,0.25,79,102.0
241,A4,31.5,0.25,63,102.0
242,E-4,31.5,0.25,63,102.0
243,C2,31.75,0.25,95,102.0
244,G4,31.75,0.25,95,102.0
245,D4,31.75,0.25,95,102.0
246,C4,31.75,0.25,95,102.0
247,G3,31.75,0.25,95,102.0
248,A4,31.75,0.25,79,102.0
249,E4,31.75,0.25,79,102.0
250,C2,31.75,0.25,79,102.0
251,C2,32.0,2.0,95,102.0
252,G4,32.0,4.0,95,102.0
253,D4,32.0,4.0,95,102.0
254,C4,32.0,4.0,95,102.0
255,G3,32.0,4.0,95,102.0
256,A4,32.0,0.25,79,102.0
257,E-4,32.0,0.25,79,102.0
258,A4,32.25,0.25,79,102.0
259,A4,32.5,0.25,63,102.0
260,C#4,32.5,0.25,63,102.0
261,A4,32.75,0.25,71,102.0
262,C#4,32.75,0.25,71,102.0
263,A4,33.0,0.25,95,102.0
264,A4,33.25,0.25,79,102.0
265,A4,33.5,0.25,63,102.0
266,E4,33.5,0.25,63,102.0
267,A4,33.75,0.25,79,102.0
268,B-1,34.0,2.0,95,102.0
269,A4,34.0,0.25,79,102.0
270,C#4,34.0,0.25,79,102.0
271,A4,34.25,0.25,79,102.0
272,A4,34.5,0.25,63,102.0
273,E4,34.5,0.25,63,102.0
274,A4,34.75,0.25,63,102.0
275,C#4,34.75,0.25,63,102.0
276,A4,35.0,0.25,95,102.0
277,A4,35.25,0.25,79,102.0
278,A4,35.5,0.25,63,102.0
279,E-4,35.5,0.25,63,102.0
280,A4,35.75,0.25,71,102.0
281,E4,35.75,0.25,71,102.0
282,F2,36.0,3.0,95,102.0
283,F4,36.0,3.0,95,102.0
284,C4,36.0,3.0,95,102.0
285,B-3,36.0,3.0,95,102.0
286,F3,36.0,3.0,95,102.0
287,A4,36.0,0.25,84,102.0
288,E-4,36.0,0.25,84,102.0
289,C2,36.0,0.25,84,102.0
290,A4,36.25,0.25,79,102.0
291,A4,36.5,0.25,63,102.0
292,C#4,36.5,0.25,63,102.0
293,A4,36.75,0.25,71,102.0
294,C#4,36.75,0.25,71,102.0
295,A4,37.0,0.25,95,102.0
296,A4,37.25,0.25,79,102.0
297,A4,37.5,0.25,63,102.0
298,E4,37.5,0.25,63,102.0
299,A4,37.75,0.25,79,102.0
300,A4,38.0,0.25,79,102.0
301,C#4,38.0,0.25,79,102.0
302,A4,38.25,0.25,79,102.0
303,A4,38.5,0.25,63,102.0
304,E4,38.5,0.25,63,102.0
305,A4,38.75,0.25,63,102.0
306,C#4,38.75,0.25,63,102.0
307,B-1,39.0,0.5,95,102.0
308,D4,39.0,0.5,95,102.0
309,B-3,39.0,0.5,95,102.0
310,F3,39.0,0.5,95,102.0
311,A4,39.0,0.25,95,102.0
312,C2,39.0,0.25,95,102.0
313,A4,39.25,0.25,79,102.0
314,A4,39.5,0.25,63,102.0
315,E-4,39.5,0.25,63,102.0
316,G#1,39.75,0.25,95,102.0
317,E-4,39.75,0.25,95,102.0
318,C4,39.75,0.25,95,102.0
319,G#3,39.75,0.25,95,102.0
320,A4,39.75,0.25,79,102.0
321,E4,39.75,0.25,79,102.0
322,C2,39.75,0.25,79,102.0
323,G#1,40.0,1.0,95,102.0
324,E-4,40.0,1.0,95,102.0
325,C4,40.0,1.0,95,102.0
326,G#3,40.0,1.0,95,102.0
327,A4,40.0,0.25,79,102.0
328,E-4,40.0,0.25,79,102.0
329,A4,40.25,0.25,79,102.0
330,A4,40.5,0.25,63,102.0
331,C#4,40.5,0.25,63,102.0
332,A4,40.75,0.25,71,102.0
333,C#4,40.75,0.25,71,102.0
334,G1,41.0,0.5,95,102.0
335,F4,41.0,0.5,95,102.0
336,D4,41.0,0.5,95,102.0
337,B-3,41.0,0.5,95,102.0
338,A4,41.0,0.25,95,102.0
339,C2,41.0,0.25,95,102.0
340,A4,41.25,0.25,79,102.0
341,A4,41.5,0.25,63,102.0
342,E4,41.5,0.25,63,102.0
343,F2,41.75,1.25,95,102.0
344,G4,41.75,1.25,100,102.0
345,E-4,41.75,1.25,100,102.0
346,C4,41.75,1.25,100,102.0
347,A4,41.75,0.25,87,102.0
348,C2,41.75,0.25,87,102.0
349,A4,42.0,0.25,79,102.0
350,C#4,42.0,0.25,79,102.0
351,A4,42.25,0.25,79,102.0
352,A4,42.5,0.25,63,102.0
353,E4,42.5,0.25,63,102.0
354,A4,42.75,0.25,63,102.0
355,C#4,42.75,0.25,63,102.0
356,E-2,43.0,0.5,95,102.0
357,G#4,43.0,0.5,100,102.0
358,E-4,43.0,0.5,100,102.0
359,C4,43.0,0.5,100,102.0
360,A4,43.0,0.25,95,102.0
361,C2,43.0,0.25,95,102.0
362,A4,43.25,0.25,79,102.0
363,A4,43.5,0.25,63,102.0
364,E-4,43.5,0.25,63,102.0
365,C#2,43.75,0.25,95,102.0
366,B-4,43.75,0.25,99,102.0
367,G#4,43.75,0.25,99,102.0
368,E-4,43.75,0.25,99,102.0
369,C4,43.75,0.25,99,102.0
370,A4,43.75,0.25,79,102.0
371,E4,43.75,0.25,79,102.0
372,C2,43.75,0.25,79,102.0
373,C#2,44.0,4.0,95,102.0
374,B-4,44.0,4.0,99,102.0
375,G#4,44.0,4.0,99,102.0
376,E-4,44.0,4.0,99,102.0
377,C4,44.0,4.0,99,102.0
378,A4,44.0,0.25,79,102.0
379,E-4,44.0,0.25,79,102.0
380,A4,44.25,0.25,79,102.0
381,A4,44.5,0.25,63,102.0
382,C#4,44.5,0.25,63,102.0
383,A4,44.75,0.25,71,102.0
384,C#4,44.75,0.25,71,102.0
385,A4,45.0,0.25,95,102.0
386,A4,45.25,0.25,79,102.0
387,A4,45.5,0.25,63,102.0
388,E4,45.5,0.25,63,102.0
389,A4,45.75,0.25,79,102.0
390,A4,46.0,0.25,79,102.0
391,C#4,46.0,0.25,79,102.0
392,A4,46.25,0.25,79,102.0
393,A4,46.5,0.25,63,102.0
394,E4,46.5,0.25,63,102.0
395,A4,46.75,0.25,63,102.0
396,C#4,46.75,0.25,63,102.0
397,A4,47.0,0.25,95,102.0
398,A4,47.25,0.25,79,102.0
399,A4,47.5,0.25,63,102.0
400,E-4,47.5,0.25,63,102.0
401,A4,47.75,0.25,71,102.0
402,E4,47.75,0.25,71,102.0
403,G4,48.0,3.5,95,102.0
404,C2,48.0,2.0,95,102.0
405,G4,48.0,4.0,95,102.0
406,D4,48.0,4.0,95,102.0
407,C4,48.0,4.0,95,102.0
408,G3,48.0,4.0,95,102.0
409,A4,48.0,0.25,84,102.0
410,E-4,48.0,0.25,84,102.0
411,C2,48.0,0.25,84,102.0
412,A4,48.25,0.25,79,102.0
413,A4,48.5,0.25,63,102.0
414,C#4,48.5,0.25,63,102.0
415,A4,48.75,0.25,71,102.0
416,C#4,48.75,0.25,71,102.0
417,A4,49.0,0.25,95,102.0
418,A4,49.25,0.25,79,102.0
419,A4,49.5,0.25,63,102.0
420,E4,49.5,0.25,63,102.0
421,A4,49.75,0.25,79,102.0
422,B-1,50.0,2.0,95,102.0
423,A4,50.0,0.25,79,102.0
424,C#4,50.0,0.25,79,102.0
425,A4,50.25,0.25,79,102.0
426,A4,50.5,0.25,63,102.0
427,E4,50.5,0.25,63,102.0
428,A4,50.75,0.25,63,102.0
429,C#4,50.75,0.25,63,102.0
430,A4,51.0,0.25,95,102.0
431,A4,51.25,0.25,79,102.0
432,B-4,51.5,0.5,95,102.0
433,A4,51.5,0.25,63,102.0
434,E-4,51.5,0.25,63,102.0
435,A4,51.75,0.25,71,102.0
436,E4,51.75,0.25,71,102.0
437,B-1,52.0,3.0,95,102.0
438,F4,52.0,3.0,95,102.0
439,C4,52.0,3.0,95,102.0
440,B-3,52.0,3.0,95,102.0
441,F3,52.0,3.0,95,102.0
442,A4,52.0,0.25,84,102.0
443,E-4,52.0,0.25,84,102.0
444,G#3,52.0,0.25,84,102.0
445,A4,52.25,0.25,79,102.0
446,A4,52.5,0.25,63,102.0
447,C#4,52.5,0.25,63,102.0
448,A4,52.75,0.25,71,102.0
449,C#4,52.75,0.25,71,102.0
450,A4,53.0,0.25,95,102.0
451,A4,53.25,0.25,79,102.0
452,A4,53.5,0.25,63,102.0
453,E4,53.5,0.25,63,102.0
454,A4,53.75,0.25,79,102.0
455,A4,54.0,0.25,79,102.0
456,C#4,54.0,0.25,79,102.0
457,A4,54.25,0.25,79,102.0
458,A4,54.5,0.25,63,102.0
459,E4,54.5,0.25,63,102.0
460,A4,54.75,0.25,63,102.0
461,C#4,54.75,0.25,63,102.0
462,F4,55.0,0.75,95,102.0
463,B-1,55.0,0.5,95,102.0
464,F4,55.0,0.5,95,102.0
465,C4,55.0,0.5,95,102.0
466,B-3,55.0,0.5,95,102.0
467,F3,55.0,0.5,95,102.0
468,A4,55.0,0.25,95,102.0
469,C2,55.0,0.25,95,102.0
470,A4,55.25,0.25,79,102.0
471,A4,55.5,0.25,63,102.0
472,E-4,55.5,0.25,63,102.0
473,G4,55.75,0.25,95,102.0
474,C2,55.75,0.25,95,102.0
475,G4,55.75,0.25,95,102.0
476,D4,55.75,0.25,95,102.0
477,C4,55.75,0.25,95,102.0
478,G3,55.75,0.25,95,102.0
479,A4,55.75,0.25,79,102.0
480,E4,55.75,0.25,79,102.0
481,C2,55.75,0.25,79,102.0
482,G4,56.0,2.0,95,102.0
483,C2,56.0,2.0,95,102.0
484,A4,56.0,0.25,95,102.0
485,G4,56.0,4.0,95,102.0
486,D4,56.0,4.0,95,102.0
487,C4,56.0,4.0,95,102.0
488,G3,56.0,4.0,95,102.0
489,A4,56.25,0.25,79,102.0
490,A4,56.5,0.25,63,102.0
491,C#4,56.5,0.25,63,102.0
492,A4,56.75,0.25,71,102.0
493,C#4,56.75,0.25,71,102.0
494,A4,57.0,0.25,95,102.0
495,A4,57.25,0.25,79,102.0
496,A4,57.5,0.25,63,102.0
497,E4,57.5,0.25,63,102.0
498,A4,57.75,0.25,79,102.0
499,B-1,58.0,2.0,95,102.0
500,A4,58.0,0.25,79,102.0
501,C#4,58.0,0.25,79,102.0
502,A4,58.25,0.25,79,102.0
503,A4,58.5,0.25,63,102.0
504,E4,58.5,0.25,63,102.0
505,A4,58.75,0.25,63,102.0
506,C#4,58.75,0.25,63,102.0
507,A4,59.0,0.25,95,102.0
508,A4,59.25,0.25,79,102.0
509,A4,59.5,0.25,63,102.0
510,E-4,59.5,0.25,63,102.0
511,A4,59.75,0.25,71,102.0
512,E4,59.75,0.25,71,102.0
513,B-4,60.0,0.75,95,102.0
514,B-1,60.0,0.75,95,102.0
515,B-4,60.0,0.75,95,102.0
516,F4,60.0,0.75,95,102.0
517,B-3,60.0,0.75,95,102.0
518,A4,60.0,0.25,84,102.0
519,E-4,60.0,0.25,84,102.0
520,C2,60.0,0.25,84,102.0
521,A4,60.25,0.25,79,102.0
522,A4,60.5,0.25,63,102.0
523,C#4,60.5,0.25,63,102.0
524,C5,60.75,2.25,95,102.0
525,B-1,60.75,2.25,95,102.0
526,C5,60.75,2.25,95,102.0
527,F4,60.75,2.25,95,102.0
528,B-3,60.75,2.25,95,102.0
529,A4,60.75,0.25,79,102.0
530,C#4,60.75,0.25,79,102.0
531,C2,60.75,0.25,79,102.0
532,A4,61.0,0.25,95,102.0
533,A4,61.25,0.25,79,102.0
534,A4,61.5,0.25,63,102.0
535,E4,61.5,0.25,63,102.0
536,A4,61.75,0.25,79,102.0
537,A4,62.0,0.25,79,102.0
538,C#4,62.0,0.25,79,102.0
539,A4,62.25,0.25,79,102.0
540,A4,62.5,0.25,63,102.0
541,E4,62.5,0.25,63,102.0
542,A4,62.75,0.25,63,102.0
543,C#4,62.75,0.25,63,102.0
544,A4,63.0,0.75,95,102.0
545,B-1,63.0,0.5,95,102.0
546,A4,63.0,0.5,95,102.0
547,F4,63.0,0.5,95,102.0
548,B-3,63.0,0.5,95,102.0
549,A4,63.0,0.25,95,102.0
550,C2,63.0,0.25,95,102.0
551,A4,63.25,0.25,79,102.0
552,A4,63.5,0.25,63,102.0
553,E-4,63.5,0.25,63,102.0
554,G4,63.75,0.25,95,102.0
555,C2,63.75,0.25,95,102.0
556,G4,63.75,0.25,95,102.0
557,D4,63.75,0.25,95,102.0
558,C4,63.75,0.25,95,102.0
559,G3,63.75,0.25,95,102.0
560,A4,63.75,0.25,79,102.0
561,E4,63.75,0.25,79,102.0
562,C2,63.75,0.25,79,102.0
563,G4,64.0,4.0,95,102.0
564,C2,64.0,2.0,95,102.0
565,G4,64.0,4.0,95,102.0
566,D4,64.0,4.0,95,102.0
567,C4,64.0,4.0,95,102.0
568,G3,64.0,4.0,95,102.0
569,A4,64.0,0.25,79,102.0
570,E-4,64.0,0.25,79,102.0
571,A4,64.25,0.25,79,102.0
572,A4,64.5,0.25,63,102.0
573,C#4,64.5,0.25,63,102.0
574,A4,64.75,0.25,71,102.0
575,C#4,64.75,0.25,71,102.0
576,A4,65.0,0.25,95,102.0
577,A4,65.25,0.25,79,102.0
578,A4,65.5,0.25,63,102.0
579,E4,65.5,0.25,63,102.0
580,A4,65.75,0.25,79,102.0
581,B-1,66.0,2.0,95,102.0
582,A4,66.0,0.25,79,102.0
583,C#4,66.0,0.25,79,102.0
584,A4,66.25,0.25,79,102.0
585,A4,66.5,0.25,63,102.0
586,E4,66.5,0.25,63,102.0
587,A4,66.75,0.25,63,102.0
588,C#4,66.75,0.25,63,102.0
589,A4,67.0,0.25,95,102.0
590,A4,67.25,0.25,79,102.0
591,A4,67.5,0.25,63,102.0
592,E-4,67.5,0.25,63,102.0
593,A4,67.75,0.25,71,102.0
594,E4,67.75,0.25,71,102.0
595,F2,68.0,3.0,95,102.0
596,F4,68.0,3.0,95,102.0
597,C4,68.0,3.0,95,102.0
598,B-3,68.0,3.0,95,102.0
599,F3,68.0,3.0,95,102.0
600,A4,68.0,0.25,84,102.0
601,E-4,68.0,0.25,84,102.0
602,C2,68.0,0.25,84,102.0
603,A4,68.25,0.25,79,102.0
604,A4,68.5,0.25,63,102.0
605,C#4,68.5,0.25,63,102.0
606,A4,68.75,0.25,71,102.0
607,C#4,68.75,0.25,71,102.0
608,A4,69.0,0.25,95,102.0
609,A4,69.25,0.25,79,102.0
610,A4,69.5,0.25,63,102.0
611,E4,69.5,0.25,63,102.0
612,A4,69.75,0.25,79,102.0
613,A4,70.0,0.25,79,102.0
614,C#4,70.0,0.25,79,102.0
615,A4,70.25,0.25,79,102.0
616,A4,70.5,0.25,63,102.0
617,E4,70.5,0.25,63,102.0
618,A4,70.75,0.25,63,102.0
619,C#4,70.75,0.25,63,102.0
620,D4,71.0,0.75,95,102.0
621,B-1,71.0,0.5,95,102.0
622,D4,71.0,0.5,95,102.0
623,B-3,71.0,0.5,95,102.0
624,F3,71.0,0.5,95,102.0
625,A4,71.0,0.25,95,102.0
626,C2,71.0,0.25,95,102.0
627,A4,71.25,0.25,79,102.0
628,A4,71.5,0.25,63,102.0
629,E-4,71.5,0.25,63,102.0
630,E-4,71.75,0.25,95,102.0
631,G#1,71.75,0.25,95,102.0
632,E-4,71.75,0.25,95,102.0
633,C4,71.75,0.25,95,102.0
634,G#3,71.75,0.25,95,102.0
635,A4,71.75,0.25,79,102.0
636,E4,71.75,0.25,79,102.0
637,C2,71.75,0.25,79,102.0
638,E-4,72.0,1.0,95,102.0
639,G#1,72.0,1.0,95,102.0
640,E-4,72.0,1.0,95,102.0
641,C4,72.0,1.0,95,102.0
642,G#3,72.0,1.0,95,102.0
643,A4,72.0,0.25,79,102.0
644,E-4,72.0,0.25,79,102.0
645,A4,72.25,0.25,79,102.0
646,A4,72.5,0.25,63,102.0
647,C#4,72.5,0.25,63,102.0
648,A4,72.75,0.25,71,102.0
649,C#4,72.75,0.25,71,102.0
650,F4,73.0,0.75,95,102.0
651,G1,73.0,0.5,95,102.0
652,F4,73.0,0.5,95,102.0
653,D4,73.0,0.5,95,102.0
654,B-3,73.0,0.5,95,102.0
655,A4,73.0,0.25,95,102.0
656,C2,73.0,0.25,95,102.0
657,A4,73.25,0.25,79,102.0
658,A4,73.5,0.25,63,102.0
659,E4,73.5,0.25,63,102.0
660,G4,73.75,1.25,95,102.0
661,F2,73.75,1.25,95,102.0
662,G4,73.75,1.25,95,102.0
663,E-4,73.75,1.25,95,102.0
664,C4,73.75,1.25,95,102.0
665,A4,73.75,0.25,87,102.0
666,C2,73.75,0.25,87,102.0
667,A4,74.0,0.25,79,102.0
668,C#4,74.0,0.25,79,102.0
669,A4,74.25,0.25,79,102.0
670,A4,74.5,0.25,63,102.0
671,E4,74.5,0.25,63,102.0
672,A4,74.75,0.25,63,102.0
673,C#4,74.75,0.25,63,102.0
674,G#4,75.0,0.75,95,102.0
675,E-2,75.0,0.5,95,102.0
676,G#4,75.0,0.5,95,102.0
677,E-4,75.0,0.5,95,102.0
678,C4,75.0,0.5,95,102.0
679,A4,75.0,0.25,95,102.0
680,C2,75.0,0.25,95,102.0
681,A4,75.25,0.25,79,102.0
682,A4,75.5,0.25,63,102.0
683,E-4,75.5,0.25,63,102.0
684,B-4,75.75,0.25,95,102.0
685,C#2,75.75,0.25,95,102.0
686,B-4,75.75,0.25,95,102.0
687,G#4,75.75,0.25,95,102.0
688,E-4,75.75,0.25,95,102.0
689,C4,75.75,0.25,95,102.0
690,A4,75.75,0.25,79,102.0
691,E4,75.75,0.25,79,102.0
692,C2,75.75,0.25,79,102.0
693,B-4,76.0,4.0,95,102.0
694,C#2,76.0,4.0,95,102.0
695,B-4,76.0,4.0,95,102.0
696,G#4,76.0,4.0,95,102.0
697,E-4,76.0,4.0,95,102.0
698,C4,76.0,4.0,95,102.0
699,A4,76.0,0.25,87,102.0
700,G#3,76.0,0.25,87,102.0
701,A2,76.0,0.25,87,102.0
702,E2,76.0,0.25,87,102.0
703,A4,76.25,0.25,79,102.0
704,A4,76.5,0.25,74,102.0
705,C3,76.5,0.25,74,102.0
706,E2,76.5,0.25,74,102.0
707,A4,76.75,0.25,87,102.0
708,E-4,76.75,0.25,87,102.0
709,A4,77.0,0.25,95,102.0
710,E-4,77.0,0.25,95,102.0
711,A4,77.25,0.25,79,102.0
712,B2,77.25,0.25,79,102.0
713,E2,77.25,0.25,79,102.0
714,A4,77.5,0.25,79,102.0
715,E4,77.5,0.25,79,102.0
716,A4,77.75,0.25,87,102.0
717,E4,77.75,0.25,87,102.0
718,A4,78.0,0.125,79,102.0
719,C3,78.0,0.125,79,102.0
720,E2,78.0,0.125,79,102.0
721,A2,78.125,0.125,55,102.0
722,E2,78.125,0.125,55,102.0
723,A4,78.25,0.25,79,102.0
724,B2,78.25,0.25,79,102.0
725,E2,78.25,0.25,79,102.0
726,A4,78.5,0.25,74,102.0
727,C3,78.5,0.25,74,102.0
728,E2,78.5,0.25,74,102.0
729,A4,78.75,0.25,79,102.0
730,B2,78.75,0.25,79,102.0
731,E2,78.75,0.25,79,102.0
732,A4,79.0,0.25,79,102.0
733,A2,79.0,0.25,79,102.0
734,A4,79.25,0.25,83,102.0
735,C#4,79.25,0.25,83,102.0
736,C3,79.25,0.25,83,102.0
737,E2,79.25,0.25,83,102.0
738,A4,79.5,0.25,79,102.0
739,E-4,79.5,0.25,79,102.0
740,B2,79.5,0.25,79,102.0
741,E2,79.5,0.25,79,102.0
742,A4,79.75,0.25,79,102.0
743,A2,79.75,0.25,79,102.0
744,E2,79.75,0.25,79,102.0
745,C2,80.0,0.25,63,102.0
746,G4,80.0,3.0,95,102.0
747,E-4,80.0,3.0,95,102.0
748,D4,80.0,3.0,95,102.0
749,B-3,80.0,3.0,95,102.0
750,G4,80.0,4.0,95,102.0
751,E-4,80.0,4.0,95,102.0
752,D4,80.0,4.0,95,102.0
753,B-3,80.0,4.0,95,102.0
754,A4,80.0,0.25,87,102.0
755,E-4,80.0,0.25,87,102.0
756,C2,80.0,0.25,87,102.0
757,E3,80.0,0.25,87,102.0
758,C2,80.25,0.25,95,102.0
759,A4,80.25,0.25,95,102.0
760,B-1,80.5,0.25,95,102.0
761,A4,80.5,0.25,63,102.0
762,F#1,80.75,0.25,63,102.0
763,A4,80.75,0.25,79,102.0
764,C2,80.75,0.25,79,102.0
765,E1,81.0,0.25,79,102.0
766,A4,81.0,0.25,95,102.0
767,D2,81.0,0.25,95,102.0
768,F#1,81.25,0.25,95,102.0
769,A4,81.25,0.25,95,102.0
770,E4,81.25,0.25,95,102.0
771,B-1,81.5,0.25,95,102.0
772,A4,81.5,0.25,63,102.0
773,C2,81.75,0.25,95,102.0
774,A4,81.75,0.25,79,102.0
775,C2,81.75,0.25,79,102.0
776,A4,82.0,0.25,63,102.0
777,C2,82.25,0.25,95,102.0
778,A4,82.25,0.25,79,102.0
779,C2,82.25,0.25,79,102.0
780,A4,82.5,0.25,63,102.0
781,C2,82.75,0.25,95,102.0
782,A4,82.75,0.25,79,102.0
783,C2,82.75,0.25,79,102.0
784,B-1,83.0,0.25,79,102.0
785,F4,83.0,1.0,95,102.0
786,D4,83.0,1.0,95,102.0
787,B-3,83.0,1.0,95,102.0
788,A4,83.0,0.25,95,102.0
789,D2,83.0,0.25,95,102.0
790,G1,83.25,0.25,79,102.0
791,A4,83.25,0.25,95,102.0
792,C#4,83.25,0.25,95,102.0
793,F#1,83.5,0.25,63,102.0
794,A4,83.5,0.25,84,102.0
795,E-4,83.5,0.25,84,102.0
796,C2,83.5,0.25,84,102.0
797,E1,83.75,0.25,63,102.0
798,A4,83.75,0.25,95,102.0
799,C2,84.0,0.25,63,102.0
800,G4,84.0,3.0,95,102.0
801,E-4,84.0,3.0,95,102.0
802,D4,84.0,3.0,95,102.0
803,B-3,84.0,3.0,95,102.0
804,G4,84.0,4.0,95,102.0
805,E-4,84.0,4.0,95,102.0
806,D4,84.0,4.0,95,102.0
807,B-3,84.0,4.0,95,102.0
808,A4,84.0,0.25,84,102.0
809,E-4,84.0,0.25,84,102.0
810,C2,84.0,0.25,84,102.0
811,C2,84.25,0.25,95,102.0
812,A4,84.25,0.25,95,102.0
813,B-1,84.5,0.25,95,102.0
814,A4,84.5,0.25,63,102.0
815,F#1,84.75,0.25,63,102.0
816,A4,84.75,0.25,79,102.0
817,C2,84.75,0.25,79,102.0
818,E1,85.0,0.25,79,102.0
819,A4,85.0,0.25,95,102.0
820,D2,85.0,0.25,95,102.0
821,F#1,85.25,0.25,95,102.0
822,A4,85.25,0.25,95,102.0
823,E4,85.25,0.25,95,102.0
824,B-1,85.5,0.25,95,102.0
825,A4,85.5,0.25,63,102.0
826,C2,85.75,0.25,95,102.0
827,A4,85.75,0.25,79,102.0
828,C2,85.75,0.25,79,102.0
829,A4,86.0,0.25,63,102.0
830,C2,86.25,0.25,95,102.0
831,A4,86.25,0.25,79,102.0
832,C2,86.25,0.25,79,102.0
833,A4,86.5,0.25,63,102.0
834,C2,86.75,0.25,95,102.0
835,A4,86.75,0.25,79,102.0
836,C2,86.75,0.25,79,102.0
837,B-1,87.0,0.25,79,102.0
838,F4,87.0,1.0,95,102.0
839,D4,87.0,1.0,95,102.0
840,B-3,87.0,1.0,95,102.0
841,A4,87.0,0.25,95,102.0
842,D2,87.0,0.25,95,102.0
843,G1,87.25,0.25,79,102.0
844,A4,87.25,0.25,95,102.0
845,C#4,87.25,0.25,95,102.0
846,F#1,87.5,0.25,63,102.0
847,A4,87.5,0.25,84,102.0
848,E-4,87.5,0.25,84,102.0
849,C2,87.5,0.25,84,102.0
850,E1,87.75,0.25,63,102.0
851,A4,87.75,0.25,95,102.0
852,C2,88.0,0.25,63,102.0
853,G4,88.0,3.0,95,102.0
854,E-4,88.0,3.0,95,102.0
855,D4,88.0,3.0,95,102.0
856,B-3,88.0,3.0,95,102.0
857,G4,88.0,4.0,95,102.0
858,E-4,88.0,4.0,95,102.0
859,D4,88.0,4.0,95,102.0
860,B-3,88.0,4.0,95,102.0
861,A4,88.0,0.25,84,102.0
862,E-4,88.0,0.25,84,102.0
863,C2,88.0,0.25,84,102.0
864,C2,88.25,0.25,95,102.0
865,A4,88.25,0.25,95,102.0
866,B-1,88.5,0.25,95,102.0
867,A4,88.5,0.25,63,102.0
868,F#1,88.75,0.25,63,102.0
869,A4,88.75,0.25,79,102.0
870,C2,88.75,0.25,79,102.0
871,E1,89.0,0.25,79,102.0
872,A4,89.0,0.25,95,102.0
873,D2,89.0,0.25,95,102.0
874,F#1,89.25,0.25,95,102.0
875,A4,89.25,0.25,95,102.0
876,E4,89.25,0.25,95,102.0
877,B-1,89.5,0.25,95,102.0
878,A4,89.5,0.25,63,102.0
879,C2,89.75,0.25,95,102.0
880,A4,89.75,0.25,79,102.0
881,C2,89.75,0.25,79,102.0
882,A4,90.0,0.25,63,102.0
883,C2,90.25,0.25,95,102.0
884,A4,90.25,0.25,79,102.0
885,C2,90.25,0.25,79,102.0
886,A4,90.5,0.25,63,102.0
887,C2,90.75,0.25,95,102.0
888,A4,90.75,0.25,79,102.0
889,C2,90.75,0.25,79,102.0
890,B-1,91.0,0.25,79,102.0
891,F4,91.0,1.0,95,102.0
892,D4,91.0,1.0,95,102.0
893,B-3,91.0,1.0,95,102.0
894,A4,91.0,0.25,95,102.0
895,D2,91.0,0.25,95,102.0
896,G1,91.25,0.25,79,102.0
897,A4,91.25,0.25,95,102.0
898,C#4,91.25,0.25,95,102.0
899,F#1,91.5,0.25,63,102.0
900,A4,91.5,0.25,84,102.0
901,E-4,91.5,0.25,84,102.0
902,C2,91.5,0.25,84,102.0
903,E1,91.75,0.25,63,102.0
904,A4,91.75,0.25,95,102.0
905,C2,92.0,0.25,63,102.0
906,G4,92.0,2.0,95,102.0
907,E-4,92.0,2.0,95,102.0
908,D4,92.0,2.0,95,102.0
909,B-3,92.0,2.0,95,102.0
910,G4,92.0,4.0,95,102.0
911,E-4,92.0,4.0,95,102.0
912,D4,92.0,4.0,95,102.0
913,B-3,92.0,4.0,95,102.0
914,A4,92.0,0.25,74,102.0
915,E-4,92.0,0.25,74,102.0
916,C2,92.0,0.25,74,102.0
917,C2,92.25,0.25,95,102.0
918,A4,92.25,0.25,95,102.0
919,C2,92.25,0.25,95,102.0
920,B-1,92.5,0.25,95,102.0
921,A4,92.5,0.25,63,102.0
922,F#1,92.75,0.25,63,102.0
923,A4,92.75,0.25,79,102.0
924,C2,92.75,0.25,79,102.0
925,E1,93.0,0.25,79,102.0
926,A4,93.0,0.25,95,102.0
927,D2,93.0,0.25,95,102.0
928,F#1,93.25,0.25,95,102.0
929,A4,93.25,0.25,95,102.0
930,E4,93.25,0.25,95,102.0
931,B-1,93.5,0.25,95,102.0
932,A4,93.5,0.25,63,102.0
933,C2,93.75,0.25,95,102.0
934,A4,93.75,0.25,79,102.0
935,C2,93.75,0.25,79,102.0
936,E-4,94.0,0.75,95,102.0
937,C4,94.0,0.75,95,102.0
938,G#3,94.0,0.75,95,102.0
939,A4,94.0,0.25,74,102.0
940,A2,94.0,0.25,74,102.0
941,D2,94.0,0.25,74,102.0
942,C2,94.25,0.25,95,102.0
943,A4,94.25,0.25,63,102.0
944,A4,94.5,0.25,63,102.0
945,C2,94.75,0.25,95,102.0
946,F4,94.75,0.75,95,102.0
947,D4,94.75,0.75,95,102.0
948,B-3,94.75,0.75,95,102.0
949,A4,94.75,0.25,79,102.0
950,C2,94.75,0.25,79,102.0
951,B-1,95.0,0.25,79,102.0
952,A4,95.0,0.25,84,102.0
953,C3,95.0,0.25,84,102.0
954,D2,95.0,0.25,84,102.0
955,G1,95.25,0.25,79,102.0
956,A4,95.25,0.25,87,102.0
957,C#4,95.25,0.25,87,102.0
958,B2,95.25,0.25,87,102.0
959,E2,95.25,0.25,87,102.0
960,F#1,95.5,0.25,63,102.0
961,G4,95.5,0.25,95,102.0
962,E-4,95.5,0.25,95,102.0
963,D4,95.5,0.25,95,102.0
964,B-3,95.5,0.25,95,102.0
965,A4,95.5,0.25,75,102.0
966,E-4,95.5,0.25,75,102.0
967,A2,95.5,0.25,75,102.0
968,D2,95.5,0.25,75,102.0
969,E1,95.75,0.25,63,102.0
970,A4,95.75,0.25,74,102.0
971,G2,95.75,0.25,74,102.0
972,D2,95.75,0.25,74,102.0
973,C2,96.0,0.25,63,102.0
974,G4,96.0,3.0,95,102.0
975,E-4,96.0,3.0,95,102.0
976,D4,96.0,3.0,95,102.0
977,B-3,96.0,3.0,95,102.0
978,G4,96.0,4.0,95,102.0
979,E-4,96.0,4.0,95,102.0
980,D4,96.0,4.0,95,102.0
981,B-3,96.0,4.0,95,102.0
982,A4,96.0,0.25,87,102.0
983,E-4,96.0,0.25,87,102.0
984,C2,96.0,0.25,87,102.0
985,C#3,96.0,0.25,87,102.0
986,C2,96.25,0.25,95,102.0
987,A4,96.25,0.25,95,102.0
988,B-1,96.5,0.25,95,102.0
989,A4,96.5,0.25,63,102.0
990,F#1,96.75,0.25,63,102.0
991,A4,96.75,0.25,79,102.0
992,C2,96.75,0.25,79,102.0
993,E1,97.0,0.25,79,102.0
994,A4,97.0,0.25,95,102.0
995,D2,97.0,0.25,95,102.0
996,C5,97.25,0.25,95,102.0
997,F#1,97.25,0.25,95,102.0
998,A4,97.25,0.25,95,102.0
999,E4,97.25,0.25,95,102.0
1000,D5,97.5,0.25,95,102.0
1001,B-1,97.5,0.25,95,102.0
1002,A4,97.5,0.25,63,102.0
1003,E-5,97.75,0.5,95,102.0
1004,C2,97.75,0.25,95,102.0
1005,A4,97.75,0.25,79,102.0
1006,C2,97.75,0.25,79,102.0
1007,A4,98.0,0.25,63,102.0
1008,D5,98.25,0.5,95,102.0
1009,C2,98.25,0.25,95,102.0
1010,A4,98.25,0.25,79,102.0
1011,C2,98.25,0.25,79,102.0
1012,A4,98.5,0.25,63,102.0
1013,B-4,98.75,0.5,95,102.0
1014,C2,98.75,0.25,95,102.0
1015,A4,98.75,0.25,79,102.0
1016,C2,98.75,0.25,79,102.0
1017,B-1,99.0,0.25,79,102.0
1018,F4,99.0,1.0,95,102.0
1019,D4,99.0,1.0,95,102.0
1020,B-3,99.0,1.0,95,102.0
1021,A4,99.0,0.25,95,102.0
1022,D2,99.0,0.25,95,102.0
1023,G4,99.25,0.75,95,102.0
1024,G1,99.25,0.25,79,102.0
1025,A4,99.25,0.25,95,102.0
1026,C#4,99.25,0.25,95,102.0
1027,F#1,99.5,0.25,63,102.0
1028,A4,99.5,0.25,84,102.0
1029,E-4,99.5,0.25,84,102.0
1030,C2,99.5,0.25,84,102.0
1031,E1,99.75,0.25,63,102.0
1032,A4,99.75,0.25,95,102.0
1033,G4,100.0,0.75,95,102.0
1034,C2,100.0,0.25,63,102.0
1035,G4,100.0,3.0,95,102.0
1036,E-4,100.0,3.0,95,102.0
1037,D4,100.0,3.0,95,102.0
1038,B-3,100.0,3.0,95,102.0
1039,G4,100.0,4.0,95,102.0
1040,E-4,100.0,4.0,95,102.0
1041,D4,100.0,4.0,95,102.0
1042,B-3,100.0,4.0,95,102.0
1043,A4,100.0,0.25,84,102.0
1044,E-4,100.0,0.25,84,102.0
1045,C2,100.0,0.25,84,102.0
1046,C2,100.25,0.25,95,102.0
1047,A4,100.25,0.25,95,102.0
1048,B-1,100.5,0.25,95,102.0
1049,A4,100.5,0.25,63,102.0
1050,C5,100.75,0.75,95,102.0
1051,F#1,100.75,0.25,63,102.0
1052,A4,100.75,0.25,79,102.0
1053,C2,100.75,0.25,79,102.0
1054,E1,101.0,0.25,79,102.0
1055,A4,101.0,0.25,95,102.0
1056,D2,101.0,0.25,95,102.0
1057,F#1,101.25,0.25,95,102.0
1058,A4,101.25,0.25,95,102.0
1059,E4,101.25,0.25,95,102.0
1060,B-4,101.5,1.0,95,102.0
1061,B-1,101.5,0.25,95,102.0
1062,A4,101.5,0.25,63,102.0
1063,C2,101.75,0.25,95,102.0
1064,A4,101.75,0.25,79,102.0
1065,C2,101.75,0.25,79,102.0
1066,A4,102.0,0.25,63,102.0
1067,C2,102.25,0.25,95,102.0
1068,A4,102.25,0.25,79,102.0
1069,C2,102.25,0.25,79,102.0
1070,A4,102.5,0.25,63,102.0
1071,C2,102.75,0.25,95,102.0
1072,A4,102.75,0.25,79,102.0
1073,C2,102.75,0.25,79,102.0
1074,B-1,103.0,0.25,79,102.0
1075,F4,103.0,1.0,95,102.0
1076,D4,103.0,1.0,95,102.0
1077,B-3,103.0,1.0,95,102.0
1078,A4,103.0,0.25,95,102.0
1079,D2,103.0,0.25,95,102.0
1080,G1,103.25,0.25,79,102.0
1081,A4,103.25,0.25,95,102.0
1082,C#4,103.25,0.25,95,102.0
1083,F#1,103.5,0.25,63,102.0
1084,A4,103.5,0.25,84,102.0
1085,E-4,103.5,0.25,84,102.0
1086,C2,103.5,0.25,84,102.0
1087,E1,103.75,0.25,63,102.0
1088,A4,103.75,0.25,95,102.0
1089,C2,104.0,0.25,63,102.0
1090,G4,104.0,3.0,95,102.0
1091,E-4,104.0,3.0,95,102.0
1092,D4,104.0,3.0,95,102.0
1093,B-3,104.0,3.0,95,102.0
1094,G4,104.0,4.0,95,102.0
1095,E-4,104.0,4.0,95,102.0
1096,D4,104.0,4.0,95,102.0
1097,B-3,104.0,4.0,95,102.0
1098,A4,104.0,0.25,84,102.0
1099,E-4,104.0,0.25,84,102.0
1100,C2,104.0,0.25,84,102.0
1101,C2,104.25,0.25,95,102.0
1102,A4,104.25,0.25,95,102.0
1103,B-1,104.5,0.25,95,102.0
1104,A4,104.5,0.25,63,102.0
1105,F#1,104.75,0.25,63,102.0
1106,A4,104.75,0.25,79,102.0
1107,C2,104.75,0.25,79,102.0
1108,E1,105.0,0.25,79,102.0
1109,A4,105.0,0.25,95,102.0
1110,D2,105.0,0.25,95,102.0
1111,C5,105.25,0.25,95,102.0
1112,F#1,105.25,0.25,95,102.0
1113,A4,105.25,0.25,95,102.0
1114,E4,105.25,0.25,95,102.0
1115,D5,105.5,0.25,95,102.0
1116,B-1,105.5,0.25,95,102.0
1117,A4,105.5,0.25,63,102.0
1118,E-5,105.75,0.5,95,102.0
1119,C2,105.75,0.25,95,102.0
1120,A4,105.75,0.25,79,102.0
1121,C2,105.75,0.25,79,102.0
1122,A4,106.0,0.25,63,102.0
1123,F5,106.25,0.5,95,102.0
1124,C2,106.25,0.25,95,102.0
1125,A4,106.25,0.25,79,102.0
1126,C2,106.25,0.25,79,102.0
1127,A4,106.5,0.25,63,102.0
1128,D5,106.75,0.5,95,102.0
1129,C2,106.75,0.25,95,102.0
1130,A4,106.75,0.25,79,102.0
1131,C2,106.75,0.25,79,102.0
1132,B-1,107.0,0.25,79,102.0
1133,F4,107.0,1.0,95,102.0
1134,D4,107.0,1.0,95,102.0
1135,B-3,107.0,1.0,95,102.0
1136,A4,107.0,0.25,95,102.0
1137,D2,107.0,0.25,95,102.0
1138,B-4,107.25,0.75,95,102.0
1139,G1,107.25,0.25,79,102.0
1140,A4,107.25,0.25,95,102.0
1141,C#4,107.25,0.25,95,102.0
1142,F#1,107.5,0.25,63,102.0
1143,A4,107.5,0.25,84,102.0
1144,E-4,107.5,0.25,84,102.0
1145,C2,107.5,0.25,84,102.0
1146,E1,107.75,0.25,63,102.0
1147,A4,107.75,0.25,95,102.0
1148,G4,108.0,0.75,95,102.0
1149,G#1,108.0,0.25,63,102.0
1150,G4,108.0,3.0,95,102.0
1151,E-4,108.0,3.0,95,102.0
1152,C4,108.0,3.0,95,102.0
1153,G#3,108.0,3.0,95,102.0
1154,G4,108.0,4.0,95,102.0
1155,E-4,108.0,4.0,95,102.0
1156,C4,108.0,4.0,95,102.0
1157,G#3,108.0,4.0,95,102.0
1158,A4,108.0,0.25,84,102.0
1159,E-4,108.0,0.25,84,102.0
1160,C2,108.0,0.25,84,102.0
1161,G#1,108.25,0.25,95,102.0
1162,A4,108.25,0.25,95,102.0
1163,F#1,108.5,0.25,79,102.0
1164,A4,108.5,0.25,63,102.0
1165,C5,108.75,0.75,95,102.0
1166,E1,108.75,0.25,63,102.0
1167,A4,108.75,0.25,79,102.0
1168,C2,108.75,0.25,79,102.0
1169,E1,109.0,0.25,63,102.0
1170,A4,109.0,0.25,95,102.0
1171,D2,109.0,0.25,95,102.0
1172,F#1,109.25,0.25,79,102.0
1173,A4,109.25,0.25,95,102.0
1174,E4,109.25,0.25,95,102.0
1175,B-4,109.5,1.0,95,102.0
1176,F#1,109.5,0.25,79,102.0
1177,A4,109.5,0.25,63,102.0
1178,G#1,109.75,0.25,95,102.0
1179,A4,109.75,0.25,79,102.0
1180,C2,109.75,0.25,79,102.0
1181,A4,110.0,0.25,63,102.0
1182,G#1,110.25,0.25,95,102.0
1183,A4,110.25,0.25,79,102.0
1184,C2,110.25,0.25,79,102.0
1185,A4,110.5,0.25,63,102.0
1186,G#1,110.75,0.25,95,102.0
1187,A4,110.75,0.25,79,102.0
1188,C2,110.75,0.25,79,102.0
1189,F#1,111.0,0.25,95,102.0
1190,G4,111.0,1.0,95,102.0
1191,E-4,111.0,1.0,95,102.0
1192,C4,111.0,1.0,95,102.0
1193,G#3,111.0,1.0,95,102.0
1194,A4,111.0,0.25,95,102.0
1195,D2,111.0,0.25,95,102.0
1196,A4,111.25,0.25,95,102.0
1197,C#4,111.25,0.25,95,102.0
1198,C5,111.5,0.25,95,102.0
1199,E1,111.5,0.5,95,102.0
1200,A4,111.5,0.25,84,102.0
1201,E-4,111.5,0.25,84,102.0
1202,C2,111.5,0.25,84,102.0
1203,D5,111.75,0.25,95,102.0
1204,A4,111.75,0.25,95,102.0
1205,E-5,112.0,0.5,95,102.0
1206,F1,112.0,0.25,63,102.0
1207,G4,112.0,1.0,95,102.0
1208,E-4,112.0,1.0,95,102.0
1209,C4,112.0,1.0,95,102.0
1210,G#3,112.0,1.0,95,102.0
1211,G4,112.0,1.75,95,102.0
1212,E-4,112.0,1.75,95,102.0
1213,C4,112.0,1.75,95,102.0
1214,G#3,112.0,1.75,95,102.0
1215,A4,112.0,0.25,84,102.0
1216,E-4,112.0,0.25,84,102.0
1217,C2,112.0,0.25,84,102.0
1218,F1,112.25,0.25,95,102.0
1219,A4,112.25,0.25,95,102.0
1220,E-5,112.5,0.25,95,102.0
1221,E1,112.5,0.25,63,102.0
1222,A4,112.5,0.25,63,102.0
1223,E-5,112.75,0.5,95,102.0
1224,F1,112.75,0.25,95,102.0
1225,A4,112.75,0.25,79,102.0
1226,C2,112.75,0.25,79,102.0
1227,F1,113.0,0.25,95,102.0
1228,A4,113.0,0.25,95,102.0
1229,D2,113.0,0.25,95,102.0
1230,C5,113.25,0.5,95,102.0
1231,F1,113.25,0.25,95,102.0
1232,G4,113.25,0.25,95,102.0
1233,E-4,113.25,0.25,95,102.0
1234,C4,113.25,0.25,95,102.0
1235,G#3,113.25,0.25,95,102.0
1236,A4,113.25,0.25,95,102.0
1237,E4,113.25,0.25,95,102.0
1238,F1,113.5,0.25,95,102.0
1239,A4,113.5,0.25,63,102.0
1240,D5,113.75,1.0,95,102.0
1241,G1,113.75,0.5,95,102.0
1242,F4,113.75,2.0,95,102.0
1243,D4,113.75,2.0,95,102.0
1244,B-3,113.75,2.0,95,102.0
1245,G3,113.75,2.0,95,102.0
1246,F4,113.75,2.25,95,102.0
1247,D4,113.75,2.25,95,102.0
1248,B-3,113.75,2.25,95,102.0
1249,G3,113.75,2.25,95,102.0
1250,A4,113.75,0.25,79,102.0
1251,C2,113.75,0.25,79,102.0
1252,A4,114.0,0.25,63,102.0
1253,A4,114.25,0.25,79,102.0
1254,C2,114.25,0.25,79,102.0
1255,A4,114.5,0.25,63,102.0
1256,B-1,114.75,0.25,95,102.0
1257,A4,114.75,0.25,79,102.0
1258,C2,114.75,0.25,79,102.0
1259,C#2,115.0,0.25,95,102.0
1260,A4,115.0,0.25,95,102.0
1261,D2,115.0,0.25,95,102.0
1262,A4,115.25,0.25,95,102.0
1263,C#4,115.25,0.25,95,102.0
1264,E-5,115.5,0.25,95,102.0
1265,A4,115.5,0.25,84,102.0
1266,E-4,115.5,0.25,84,102.0
1267,C2,115.5,0.25,84,102.0
1268,F5,115.75,0.25,95,102.0
1269,A4,115.75,0.25,95,102.0
1270,G5,116.0,0.5,95,102.0
1271,G#1,116.0,1.5,95,102.0
1272,G4,116.0,1.0,95,102.0
1273,E-4,116.0,1.0,95,102.0
1274,C4,116.0,1.0,95,102.0
1275,G#3,116.0,1.0,95,102.0
1276,G4,116.0,1.75,95,102.0
1277,E-4,116.0,1.75,95,102.0
1278,C4,116.0,1.75,95,102.0
1279,G#3,116.0,1.75,95,102.0
1280,A4,116.0,0.25,84,102.0
1281,E-4,116.0,0.25,84,102.0
1282,C2,116.0,0.25,84,102.0
1283,A4,116.25,0.25,95,102.0
1284,G#5,116.5,0.25,95,102.0
1285,A4,116.5,0.25,63,102.0
1286,G5,116.75,0.5,95,102.0
1287,A4,116.75,0.25,79,102.0
1288,C2,116.75,0.25,79,102.0
1289,A4,117.0,0.25,95,102.0
1290,D2,117.0,0.25,95,102.0
1291,E-5,117.25,0.5,95,102.0
1292,G4,117.25,0.25,95,102.0
1293,E-4,117.25,0.25,95,102.0
1294,C4,117.25,0.25,95,102.0
1295,G#3,117.25,0.25,95,102.0
1296,A4,117.25,0.25,95,102.0
1297,E4,117.25,0.25,95,102.0
1298,G#1,117.5,0.125,95,102.0
1299,A4,117.5,0.25,63,102.0
1300,F5,117.75,0.5,95,102.0
1301,C2,117.75,0.25,95,102.0
1302,F4,117.75,2.0,95,102.0
1303,D4,117.75,2.0,95,102.0
1304,B-3,117.75,2.0,95,102.0
1305,G3,117.75,2.0,95,102.0
1306,F4,117.75,2.25,95,102.0
1307,D4,117.75,2.25,95,102.0
1308,B-3,117.75,2.25,95,102.0
1309,G3,117.75,2.25,95,102.0
1310,A4,117.75,0.25,79,102.0
1311,C2,117.75,0.25,79,102.0
1312,A4,118.0,0.25,63,102.0
1313,B-5,118.25,0.5,95,102.0
1314,C2,118.25,0.25,95,102.0
1315,A4,118.25,0.25,79,102.0
1316,C2,118.25,0.25,79,102.0
1317,B-1,118.5,0.25,79,102.0
1318,A4,118.5,0.25,63,102.0
1319,B-4,118.75,1.0,95,102.0
1320,C2,118.75,0.25,63,102.0
1321,A4,118.75,0.25,79,102.0
1322,C2,118.75,0.25,79,102.0
1323,D2,119.0,0.25,79,102.0
1324,A4,119.0,0.25,95,102.0
1325,D2,119.0,0.25,95,102.0
1326,C2,119.25,0.25,79,102.0
1327,A4,119.25,0.25,95,102.0
1328,C#4,119.25,0.25,95,102.0
1329,B-1,119.5,0.25,63,102.0
1330,A4,119.5,0.25,84,102.0
1331,E-4,119.5,0.25,84,102.0
1332,C2,119.5,0.25,84,102.0
1333,F#1,119.75,0.25,63,102.0
1334,A4,119.75,0.25,95,102.0
1335,F1,120.0,0.25,63,102.0
1336,G4,120.0,1.0,95,102.0
1337,E-4,120.0,1.0,95,102.0
1338,C4,120.0,1.0,95,102.0
1339,G#3,120.0,1.0,95,102.0
1340,G4,120.0,1.75,95,102.0
1341,E-4,120.0,1.75,95,102.0
1342,C4,120.0,1.75,95,102.0
1343,G#3,120.0,1.75,95,102.0
1344,A4,120.0,0.25,84,102.0
1345,E-4,120.0,0.25,84,102.0
1346,C2,120.0,0.25,84,102.0
1347,E-5,120.25,0.5,95,102.0
1348,F1,120.25,0.25,95,102.0
1349,A4,120.25,0.25,95,102.0
1350,E1,120.5,0.25,63,102.0
1351,A4,120.5,0.25,63,102.0
1352,E-5,120.75,0.5,95,102.0
1353,F1,120.75,0.25,95,102.0
1354,A4,120.75,0.25,79,102.0
1355,C2,120.75,0.25,79,102.0
1356,F1,121.0,0.25,95,102.0
1357,A4,121.0,0.25,95,102.0
1358,D2,121.0,0.25,95,102.0
1359,C5,121.25,0.5,95,102.0
1360,F1,121.25,0.25,95,102.0
1361,G4,121.25,0.25,95,102.0
1362,E-4,121.25,0.25,95,102.0
1363,C4,121.25,0.25,95,102.0
1364,G#3,121.25,0.25,95,102.0
1365,A4,121.25,0.25,95,102.0
1366,E4,121.25,0.25,95,102.0
1367,F1,121.5,0.25,95,102.0
1368,A4,121.5,0.25,63,102.0
1369,F5,121.75,1.0,95,102.0
1370,G1,121.75,0.25,95,102.0
1371,F4,121.75,2.0,95,102.0
1372,D4,121.75,2.0,95,102.0
1373,B-3,121.75,2.0,95,102.0
1374,G3,121.75,2.0,95,102.0
1375,F4,121.75,2.25,95,102.0
1376,D4,121.75,2.25,95,102.0
1377,B-3,121.75,2.25,95,102.0
1378,G3,121.75,2.25,95,102.0
1379,A4,121.75,0.25,79,102.0
1380,C2,121.75,0.25,79,102.0
1381,A4,122.0,0.25,63,102.0
1382,G1,122.25,0.25,95,102.0
1383,A4,122.25,0.25,79,102.0
1384,C2,122.25,0.25,79,102.0
1385,A4,122.5,0.25,63,102.0
1386,G1,122.75,0.25,95,102.0
1387,A4,122.75,0.25,79,102.0
1388,C2,122.75,0.25,79,102.0
1389,B-1,123.0,0.25,95,102.0
1390,A4,123.0,0.25,95,102.0
1391,D2,123.0,0.25,95,102.0
1392,A4,123.25,0.25,95,102.0
1393,C#4,123.25,0.25,95,102.0
1394,E-5,123.5,0.25,95,102.0
1395,A4,123.5,0.25,84,102.0
1396,E-4,123.5,0.25,84,102.0
1397,C2,123.5,0.25,84,102.0
1398,F5,123.75,0.25,95,102.0
1399,A4,123.75,0.25,95,102.0
1400,G5,124.0,0.5,95,102.0
1401,G#1,124.0,0.25,63,102.0
1402,G4,124.0,1.0,95,102.0
1403,E-4,124.0,1.0,95,102.0
1404,C4,124.0,1.0,95,102.0
1405,G#3,124.0,1.0,95,102.0
1406,G4,124.0,1.75,95,102.0
1407,E-4,124.0,1.75,95,102.0
1408,C4,124.0,1.75,95,102.0
1409,G#3,124.0,1.75,95,102.0
1410,A4,124.0,0.25,84,102.0
1411,E-4,124.0,0.25,84,102.0
1412,C2,124.0,0.25,84,102.0
1413,G#1,124.25,0.25,95,102.0
1414,A4,124.25,0.25,95,102.0
1415,G#5,124.5,0.25,95,102.0
1416,F#1,124.5,0.25,63,102.0
1417,A4,124.5,0.25,63,102.0
1418,G5,124.75,0.5,95,102.0
1419,E1,124.75,0.25,95,102.0
1420,A4,124.75,0.25,79,102.0
1421,C2,124.75,0.25,79,102.0
1422,F#1,125.0,0.25,95,102.0
1423,A4,125.0,0.25,95,102.0
1424,D2,125.0,0.25,95,102.0
1425,E-5,125.25,0.5,95,102.0
1426,F#1,125.25,0.25,95,102.0
1427,G4,125.25,0.25,95,102.0
1428,E-4,125.25,0.25,95,102.0
1429,C4,125.25,0.25,95,102.0
1430,G#3,125.25,0.25,95,102.0
1431,A4,125.25,0.25,95,102.0
1432,E4,125.25,0.25,95,102.0
1433,G#1,125.5,0.25,95,102.0
1434,A4,125.5,0.25,63,102.0
1435,F5,125.75,0.5,95,102.0
1436,B-1,125.75,0.25,95,102.0
1437,B-4,125.75,2.0,95,102.0
1438,D4,125.75,2.0,95,102.0
1439,B-3,125.75,2.0,95,102.0
1440,F3,125.75,2.0,95,102.0
1441,F4,125.75,2.25,95,102.0
1442,D4,125.75,2.25,95,102.0
1443,B-3,125.75,2.25,95,102.0
1444,F3,125.75,2.25,95,102.0
1445,A4,125.75,0.25,79,102.0
1446,C2,125.75,0.25,79,102.0
1447,A4,126.0,0.25,63,102.0
1448,B-5,126.25,0.75,95,102.0
1449,B-1,126.25,0.25,95,102.0
1450,A4,126.25,0.25,79,102.0
1451,C2,126.25,0.25,79,102.0
1452,A4,126.5,0.25,63,102.0
1453,B-1,126.75,0.25,95,102.0
1454,A4,126.75,0.25,79,102.0
1455,C2,126.75,0.25,79,102.0
1456,D5,127.0,0.75,95,102.0
1457,B-1,127.0,0.5,95,102.0
1458,A4,127.0,0.25,95,102.0
1459,D2,127.0,0.25,95,102.0
1460,A4,127.25,0.25,95,102.0
1461,C#4,127.25,0.25,95,102.0
1462,A4,127.5,0.25,84,102.0
1463,E-4,127.5,0.25,84,102.0
1464,C2,127.5,0.25,84,102.0
1465,C5,127.75,0.25,95,102.0
1466,A4,127.75,0.25,95,102.0
1467,C5,128.0,1.0,95,102.0
1468,C2,128.0,0.25,63,102.0
1469,C4,128.0,0.75,63,102.0
1470,C3,128.0,0.75,63,102.0
1471,G4,128.0,3.0,95,102.0
1472,E-4,128.0,3.0,95,102.0
1473,D4,128.0,3.0,95,102.0
1474,B-3,128.0,3.0,95,102.0
1475,G4,128.0,4.0,95,102.0
1476,E-4,128.0,4.0,95,102.0
1477,D4,128.0,4.0,95,102.0
1478,B-3,128.0,4.0,95,102.0
1479,A4,128.0,0.25,84,102.0
1480,E-4,128.0,0.25,84,102.0
1481,C2,128.0,0.25,84,102.0
1482,C2,128.25,0.25,95,102.0
1483,A4,128.25,0.25,95,102.0
1484,B-1,128.5,0.25,95,102.0
1485,A4,128.5,0.25,63,102.0
1486,F#1,128.75,0.25,63,102.0
1487,E-4,128.75,0.25,63,102.0
1488,C4,128.75,0.25,63,102.0
1489,C3,128.75,0.25,63,102.0
1490,A4,128.75,0.25,79,102.0
1491,C2,128.75,0.25,79,102.0
1492,E1,129.0,0.25,79,102.0
1493,A4,129.0,0.25,95,102.0
1494,D2,129.0,0.25,95,102.0
1495,F#1,129.25,0.25,95,102.0
1496,F4,129.25,0.25,63,102.0
1497,C4,129.25,0.25,63,102.0
1498,C3,129.25,0.25,63,102.0
1499,A4,129.25,0.25,95,102.0
1500,E4,129.25,0.25,95,102.0
1501,B-1,129.5,0.25,95,102.0
1502,A4,129.5,0.25,63,102.0
1503,C2,129.75,0.25,95,102.0
1504,E-4,129.75,1.0,63,102.0
1505,C4,129.75,1.0,63,102.0
1506,C3,129.75,1.0,63,102.0
1507,A4,129.75,0.25,79,102.0
1508,C2,129.75,0.25,79,102.0
1509,A4,130.0,0.25,63,102.0
1510,C2,130.25,0.25,95,102.0
1511,A4,130.25,0.25,79,102.0
1512,C2,130.25,0.25,79,102.0
1513,A4,130.5,0.25,63,102.0
1514,C2,130.75,0.25,95,102.0
1515,A4,130.75,0.25,79,102.0
1516,C2,130.75,0.25,79,102.0
1517,B-1,131.0,0.25,79,102.0
1518,B-3,131.0,1.0,63,102.0
1519,B-2,131.0,1.0,63,102.0
1520,F4,131.0,1.0,95,102.0
1521,D4,131.0,1.0,95,102.0
1522,B-3,131.0,1.0,95,102.0
1523,A4,131.0,0.25,95,102.0
1524,D2,131.0,0.25,95,102.0
1525,G1,131.25,0.25,79,102.0
1526,A4,131.25,0.25,95,102.0
1527,C#4,131.25,0.25,95,102.0
1528,F#1,131.5,0.25,63,102.0
1529,A4,131.5,0.25,84,102.0
1530,E-4,131.5,0.25,84,102.0
1531,C2,131.5,0.25,84,102.0
1532,E1,131.75,0.25,63,102.0
1533,A4,131.75,0.25,95,102.0
1534,C2,132.0,0.25,63,102.0
1535,C4,132.0,0.75,63,102.0
1536,C3,132.0,0.75,63,102.0
1537,G4,132.0,3.0,95,102.0
1538,E-4,132.0,3.0,95,102.0
1539,D4,132.0,3.0,95,102.0
1540,B-3,132.0,3.0,95,102.0
1541,G4,132.0,4.0,95,102.0
1542,E-4,132.0,4.0,95,102.0
1543,D4,132.0,4.0,95,102.0
1544,B-3,132.0,4.0,95,102.0
1545,A4,132.0,0.25,84,102.0
1546,E-4,132.0,0.25,84,102.0
1547,C2,132.0,0.25,84,102.0
1548,C2,132.25,0.25,95,102.0
1549,A4,132.25,0.25,95,102.0
1550,B-1,132.5,0.25,95,102.0
1551,A4,132.5,0.25,63,102.0
1552,F#1,132.75,0.25,63,102.0
1553,E-4,132.75,0.25,63,102.0
1554,C4,132.75,0.25,63,102.0
1555,C3,132.75,0.25,63,102.0
1556,A4,132.75,0.25,79,102.0
1557,C2,132.75,0.25,79,102.0
1558,E1,133.0,0.25,79,102.0
1559,A4,133.0,0.25,95,102.0
1560,D2,133.0,0.25,95,102.0
1561,F#1,133.25,0.25,95,102.0
1562,F4,133.25,0.25,63,102.0
1563,C4,133.25,0.25,63,102.0
1564,C3,133.25,0.25,63,102.0
1565,A4,133.25,0.25,95,102.0
1566,E4,133.25,0.25,95,102.0
1567,B-1,133.5,0.25,95,102.0
1568,A4,133.5,0.25,63,102.0
1569,C2,133.75,0.25,95,102.0
1570,E-4,133.75,1.0,63,102.0
1571,C4,133.75,1.0,63,102.0
1572,C3,133.75,1.0,63,102.0
1573,A4,133.75,0.25,79,102.0
1574,C2,133.75,0.25,79,102.0
1575,A4,134.0,0.25,63,102.0
1576,C2,134.25,0.25,95,102.0
1577,A4,134.25,0.25,79,102.0
1578,C2,134.25,0.25,79,102.0
1579,A4,134.5,0.25,63,102.0
1580,C2,134.75,0.25,95,102.0
1581,A4,134.75,0.25,79,102.0
1582,C2,134.75,0.25,79,102.0
1583,B-1,135.0,0.25,79,102.0
1584,B-3,135.0,1.0,63,102.0
1585,B-2,135.0,1.0,63,102.0
1586,F4,135.0,1.0,95,102.0
1587,D4,135.0,1.0,95,102.0
1588,B-3,135.0,1.0,95,102.0
1589,A4,135.0,0.25,95,102.0
1590,D2,135.0,0.25,95,102.0
1591,G1,135.25,0.25,79,102.0
1592,A4,135.25,0.25,95,102.0
1593,C#4,135.25,0.25,95,102.0
1594,F#1,135.5,0.25,63,102.0
1595,A4,135.5,0.25,84,102.0
1596,E-4,135.5,0.25,84,102.0
1597,D2,135.5,0.25,84,102.0
1598,E1,135.75,0.25,63,102.0
1599,A4,135.75,0.25,95,102.0
1600,D2,135.75,0.25,95,102.0
1601,C2,136.0,0.25,63,102.0
1602,C4,136.0,2.0,63,102.0
1603,C3,136.0,2.0,63,102.0
1604,G4,136.0,3.0,95,102.0
1605,E-4,136.0,3.0,95,102.0
1606,D4,136.0,3.0,95,102.0
1607,B-3,136.0,3.0,95,102.0
1608,G4,136.0,4.0,95,102.0
1609,E-4,136.0,4.0,95,102.0
1610,D4,136.0,4.0,95,102.0
1611,B-3,136.0,4.0,95,102.0
1612,A4,136.0,0.25,79,102.0
1613,E-4,136.0,0.25,79,102.0
1614,C2,136.0,0.25,79,102.0
1615,E3,136.0,0.25,79,102.0
1616,C2,136.25,0.25,95,102.0
1617,A4,136.25,0.25,95,102.0
1618,B-1,136.5,0.25,95,102.0
1619,A4,136.5,0.25,63,102.0
1620,F#1,136.75,0.25,63,102.0
1621,A4,136.75,0.25,79,102.0
1622,C2,136.75,0.25,79,102.0
1623,E1,137.0,0.25,79,102.0
1624,A4,137.0,0.25,95,102.0
1625,D2,137.0,0.25,95,102.0
1626,F#1,137.25,0.25,95,102.0
1627,C6,137.25,0.25,95,102.0
1628,C5,137.25,0.25,95,102.0
1629,A4,137.25,0.25,95,102.0
1630,E4,137.25,0.25,95,102.0
1631,B-1,137.5,0.25,95,102.0
1632,A4,137.5,0.25,63,102.0
1633,D6,137.5,0.25,95,102.0
1634,D5,137.5,0.25,95,102.0
1635,C2,137.75,0.25,95,102.0
1636,E-6,137.75,0.5,95,102.0
1637,E-5,137.75,0.5,95,102.0
1638,A4,137.75,0.25,79,102.0
1639,C2,137.75,0.25,79,102.0
1640,A4,138.0,0.25,63,102.0
1641,C2,138.25,0.25,95,102.0
1642,D6,138.25,0.5,95,102.0
1643,D5,138.25,0.5,95,102.0
1644,A4,138.25,0.25,79,102.0
1645,C2,138.25,0.25,79,102.0
1646,A4,138.5,0.25,63,102.0
1647,C2,138.75,0.25,95,102.0
1648,B-5,138.75,0.5,95,102.0
1649,B-4,138.75,0.5,95,102.0
1650,A4,138.75,0.25,79,102.0
1651,C2,138.75,0.25,79,102.0
1652,B-1,139.0,0.25,79,102.0
1653,F4,139.0,1.0,95,102.0
1654,D4,139.0,1.0,95,102.0
1655,B-3,139.0,1.0,95,102.0
1656,A4,139.0,0.25,95,102.0
1657,D2,139.0,0.25,95,102.0
1658,G1,139.25,0.25,79,102.0
1659,G5,139.25,0.75,95,102.0
1660,G4,139.25,0.75,95,102.0
1661,A4,139.25,0.25,95,102.0
1662,C#4,139.25,0.25,95,102.0
1663,F#1,139.5,0.25,63,102.0
1664,A4,139.5,0.25,84,102.0
1665,E-4,139.5,0.25,84,102.0
1666,C2,139.5,0.25,84,102.0
1667,E1,139.75,0.25,63,102.0
1668,A4,139.75,0.25,95,102.0
1669,C2,140.0,0.25,63,102.0
1670,G5,140.0,0.75,95,102.0
1671,G4,140.0,0.75,95,102.0
1672,G4,140.0,3.0,95,102.0
1673,E-4,140.0,3.0,95,102.0
1674,D4,140.0,3.0,95,102.0
1675,B-3,140.0,3.0,95,102.0
1676,G4,140.0,4.0,95,102.0
1677,E-4,140.0,4.0,95,102.0
1678,D4,140.0,4.0,95,102.0
1679,B-3,140.0,4.0,95,102.0
1680,A4,140.0,0.25,84,102.0
1681,E-4,140.0,0.25,84,102.0
1682,C2,140.0,0.25,84,102.0
1683,C2,140.25,0.25,95,102.0
1684,A4,140.25,0.25,95,102.0
1685,B-1,140.5,0.25,95,102.0
1686,A4,140.5,0.25,63,102.0
1687,F#1,140.75,0.25,63,102.0
1688,C6,140.75,0.75,95,102.0
1689,C5,140.75,0.75,95,102.0
1690,A4,140.75,0.25,79,102.0
1691,C2,140.75,0.25,79,102.0
1692,E1,141.0,0.25,79,102.0
1693,A4,141.0,0.25,95,102.0
1694,D2,141.0,0.25,95,102.0
1695,F#1,141.25,0.25,95,102.0
1696,A4,141.25,0.25,95,102.0
1697,E4,141.25,0.25,95,102.0
1698,B-1,141.5,0.25,95,102.0
1699,A4,141.5,0.25,63,102.0
1700,B-5,141.5,1.0,95,102.0
1701,B-4,141.5,1.0,95,102.0
1702,C2,141.75,0.25,95,102.0
1703,A4,141.75,0.25,79,102.0
1704,C2,141.75,0.25,79,102.0
1705,A4,142.0,0.25,63,102.0
1706,C2,142.25,0.25,95,102.0
1707,A4,142.25,0.25,79,102.0
1708,C2,142.25,0.25,79,102.0
1709,A4,142.5,0.25,63,102.0
1710,C2,142.75,0.25,95,102.0
1711,B-3,142.75,0.125,63,102.0
1712,B-2,142.75,0.125,63,102.0
1713,A4,142.75,0.25,79,102.0
1714,C2,142.75,0.25,79,102.0
1715,B-1,143.0,0.25,79,102.0
1716,B-3,143.0,1.0,63,102.0
1717,B-2,143.0,1.0,63,102.0
1718,F4,143.0,1.0,95,102.0
1719,D4,143.0,1.0,95,102.0
1720,B-3,143.0,1.0,95,102.0
1721,A4,143.0,0.25,95,102.0
1722,D2,143.0,0.25,95,102.0
1723,G1,143.25,0.25,79,102.0
1724,A4,143.25,0.25,95,102.0
1725,C#4,143.25,0.25,95,102.0
1726,F#1,143.5,0.25,63,102.0
1727,A4,143.5,0.25,84,102.0
1728,E-4,143.5,0.25,84,102.0
1729,C2,143.5,0.25,84,102.0
1730,E1,143.75,0.25,63,102.0
1731,A4,143.75,0.25,95,102.0
1732,C2,144.0,0.25,63,102.0
1733,C4,144.0,2.0,63,102.0
1734,C3,144.0,2.0,63,102.0
1735,G4,144.0,3.0,95,102.0
1736,E-4,144.0,3.0,95,102.0
1737,D4,144.0,3.0,95,102.0
1738,B-3,144.0,3.0,95,102.0
1739,G4,144.0,4.0,95,102.0
1740,E-4,144.0,4.0,95,102.0
1741,D4,144.0,4.0,95,102.0
1742,B-3,144.0,4.0,95,102.0
1743,A4,144.0,0.25,95,102.0
1744,E-4,144.0,0.25,95,102.0
1745,C2,144.0,0.25,95,102.0
1746,C2,144.25,0.25,95,102.0
1747,A4,144.25,0.25,79,102.0
1748,B-1,144.5,0.25,95,102.0
1749,A4,144.5,0.25,63,102.0
1750,F#1,144.75,0.25,63,102.0
1751,A4,144.75,0.25,87,102.0
1752,C2,144.75,0.25,87,102.0
1753,E1,145.0,0.25,79,102.0
1754,A4,145.0,0.25,95,102.0
1755,D2,145.0,0.25,95,102.0
1756,F#1,145.25,0.25,95,102.0
1757,C6,145.25,0.25,95,102.0
1758,C5,145.25,0.25,95,102.0
1759,A4,145.25,0.25,87,102.0
1760,E4,145.25,0.25,87,102.0
1761,B-1,145.5,0.25,95,102.0
1762,A4,145.5,0.25,63,102.0
1763,D6,145.5,0.25,95,102.0
1764,D5,145.5,0.25,95,102.0
1765,C2,145.75,0.25,95,102.0
1766,E-6,145.75,0.5,95,102.0
1767,E-5,145.75,0.5,95,102.0
1768,A4,145.75,0.25,87,102.0
1769,C2,145.75,0.25,87,102.0
1770,A4,146.0,0.25,95,102.0
1771,C2,146.25,0.25,95,102.0
1772,F6,146.25,0.5,95,102.0
1773,F5,146.25,0.5,95,102.0
1774,A4,146.25,0.25,87,102.0
1775,C2,146.25,0.25,87,102.0
1776,A4,146.5,0.25,63,102.0
1777,C2,146.75,0.25,95,102.0
1778,D6,146.75,0.5,95,102.0
1779,D5,146.75,0.5,95,102.0
1780,A4,146.75,0.25,87,102.0
1781,C2,146.75,0.25,87,102.0
1782,B-1,147.0,0.25,79,102.0
1783,F4,147.0,1.0,95,102.0
1784,D4,147.0,1.0,95,102.0
1785,B-3,147.0,1.0,95,102.0
1786,A4,147.0,0.25,95,102.0
1787,D2,147.0,0.25,95,102.0
1788,G1,147.25,0.25,79,102.0
1789,B-5,147.25,0.75,95,102.0
1790,B-4,147.25,0.75,95,102.0
1791,A4,147.25,0.25,87,102.0
1792,C#4,147.25,0.25,87,102.0
1793,F#1,147.5,0.25,63,102.0
1794,A4,147.5,0.25,84,102.0
1795,E-4,147.5,0.25,84,102.0
1796,C2,147.5,0.25,84,102.0
1797,E1,147.75,0.25,63,102.0
1798,A4,147.75,0.25,79,102.0
1799,G#1,148.0,0.25,63,102.0
1800,G5,148.0,0.75,95,102.0
1801,G4,148.0,0.75,95,102.0
1802,G4,148.0,3.0,95,102.0
1803,E-4,148.0,3.0,95,102.0
1804,C4,148.0,3.0,95,102.0
1805,G#3,148.0,3.0,95,102.0
1806,G4,148.0,4.0,95,102.0
1807,E-4,148.0,4.0,95,102.0
1808,C4,148.0,4.0,95,102.0
1809,G#3,148.0,4.0,95,102.0
1810,A4,148.0,0.25,95,102.0
1811,E-4,148.0,0.25,95,102.0
1812,C2,148.0,0.25,95,102.0
1813,G#1,148.25,0.25,95,102.0
1814,A4,148.25,0.25,79,102.0
1815,F#1,148.5,0.25,79,102.0
1816,A4,148.5,0.25,63,102.0
1817,E1,148.75,0.25,63,102.0
1818,C6,148.75,0.75,95,102.0
1819,C5,148.75,0.75,95,102.0
1820,A4,148.75,0.25,87,102.0
1821,C2,148.75,0.25,87,102.0
1822,E1,149.0,0.25,63,102.0
1823,A4,149.0,0.25,95,102.0
1824,D2,149.0,0.25,95,102.0
1825,F#1,149.25,0.25,79,102.0
1826,A4,149.25,0.25,87,102.0
1827,E4,149.25,0.25,87,102.0
1828,F#1,149.5,0.25,79,102.0
1829,A4,149.5,0.25,63,102.0
1830,B-5,149.5,1.0,95,102.0
1831,B-4,149.5,1.0,95,102.0
1832,G#1,149.75,0.25,95,102.0
1833,A4,149.75,0.25,87,102.0
1834,C2,149.75,0.25,87,102.0
1835,A4,150.0,0.25,95,102.0
1836,G#1,150.25,0.25,95,102.0
1837,A4,150.25,0.25,87,102.0
1838,C2,150.25,0.25,87,102.0
1839,A4,150.5,0.25,63,102.0
1840,G#1,150.75,0.25,95,102.0
1841,A4,150.75,0.25,87,102.0
1842,C2,150.75,0.25,87,102.0
1843,F#1,151.0,0.25,95,102.0
1844,G4,151.0,1.0,95,102.0
1845,E-4,151.0,1.0,95,102.0
1846,C4,151.0,1.0,95,102.0
1847,G#3,151.0,1.0,95,102.0
1848,A4,151.0,0.25,95,102.0
1849,D2,151.0,0.25,95,102.0
1850,A4,151.25,0.25,87,102.0
1851,C#4,151.25,0.25,87,102.0
1852,E1,151.5,0.5,95,102.0
1853,C6,151.5,0.25,95,102.0
1854,C5,151.5,0.25,95,102.0
1855,A4,151.5,0.25,84,102.0
1856,E-4,151.5,0.25,84,102.0
1857,C2,151.5,0.25,84,102.0
1858,A4,151.75,0.25,79,102.0
1859,D6,151.75,0.25,95,102.0
1860,D5,151.75,0.25,95,102.0
1861,F1,152.0,0.25,63,102.0
1862,E-6,152.0,0.5,95,102.0
1863,E-5,152.0,0.5,95,102.0
1864,G4,152.0,1.0,95,102.0
1865,E-4,152.0,1.0,95,102.0
1866,C4,152.0,1.0,95,102.0
1867,G#3,152.0,1.0,95,102.0
1868,G4,152.0,1.75,95,102.0
1869,E-4,152.0,1.75,95,102.0
1870,C4,152.0,1.75,95,102.0
1871,G#3,152.0,1.75,95,102.0
1872,A4,152.0,0.25,95,102.0
1873,E-4,152.0,0.25,95,102.0
1874,C2,152.0,0.25,95,102.0
1875,F1,152.25,0.25,95,102.0
1876,A4,152.25,0.25,79,102.0
1877,E1,152.5,0.25,63,102.0
1878,A4,152.5,0.25,63,102.0
1879,E-6,152.5,0.25,95,102.0
1880,E-5,152.5,0.25,95,102.0
1881,F1,152.75,0.25,95,102.0
1882,E-6,152.75,0.5,95,102.0
1883,E-5,152.75,0.5,95,102.0
1884,A4,152.75,0.25,87,102.0
1885,C2,152.75,0.25,87,102.0
1886,F1,153.0,0.25,95,102.0
1887,A4,153.0,0.25,95,102.0
1888,D2,153.0,0.25,95,102.0
1889,F1,153.25,0.25,95,102.0
1890,C6,153.25,0.5,95,102.0
1891,C5,153.25,0.5,95,102.0
1892,G4,153.25,0.25,95,102.0
1893,E-4,153.25,0.25,95,102.0
1894,C4,153.25,0.25,95,102.0
1895,G#3,153.25,0.25,95,102.0
1896,A4,153.25,0.25,87,102.0
1897,E4,153.25,0.25,87,102.0
1898,F1,153.5,0.25,95,102.0
1899,A4,153.5,0.25,63,102.0
1900,G1,153.75,0.5,95,102.0
1901,D6,153.75,1.0,95,102.0
1902,D5,153.75,1.0,95,102.0
1903,F4,153.75,2.0,95,102.0
1904,D4,153.75,2.0,95,102.0
1905,B-3,153.75,2.0,95,102.0
1906,G3,153.75,2.0,95,102.0
1907,F4,153.75,2.25,95,102.0
1908,D4,153.75,2.25,95,102.0
1909,B-3,153.75,2.25,95,102.0
1910,G3,153.75,2.25,95,102.0
1911,A4,153.75,0.25,87,102.0
1912,C2,153.75,0.25,87,102.0
1913,A4,154.0,0.25,95,102.0
1914,A4,154.25,0.25,87,102.0
1915,C2,154.25,0.25,87,102.0
1916,A4,154.5,0.25,63,102.0
1917,B-1,154.75,0.25,95,102.0
1918,A4,154.75,0.25,87,102.0
1919,C2,154.75,0.25,87,102.0
1920,C#2,155.0,0.25,95,102.0
1921,A4,155.0,0.25,95,102.0
1922,D2,155.0,0.25,95,102.0
1923,A4,155.25,0.25,87,102.0
1924,C#4,155.25,0.25,87,102.0
1925,E-6,155.5,0.25,95,102.0
1926,E-5,155.5,0.25,95,102.0
1927,A4,155.5,0.25,84,102.0
1928,E-4,155.5,0.25,84,102.0
1929,C2,155.5,0.25,84,102.0
1930,A4,155.75,0.25,79,102.0
1931,F6,155.75,0.25,95,102.0
1932,F5,155.75,0.25,95,102.0
1933,G#1,156.0,1.5,95,102.0
1934,G6,156.0,0.5,95,102.0
1935,G5,156.0,0.5,95,102.0
1936,G4,156.0,1.0,95,102.0
1937,E-4,156.0,1.0,95,102.0
1938,C4,156.0,1.0,95,102.0
1939,G#3,156.0,1.0,95,102.0
1940,G4,156.0,1.75,95,102.0
1941,E-4,156.0,1.75,95,102.0
1942,C4,156.0,1.75,95,102.0
1943,G#3,156.0,1.75,95,102.0
1944,A4,156.0,0.25,95,102.0
1945,E-4,156.0,0.25,95,102.0
1946,C2,156.0,0.25,95,102.0
1947,A4,156.25,0.25,79,102.0
1948,A4,156.5,0.25,63,102.0
1949,G#6,156.5,0.25,95,102.0
1950,G#5,156.5,0.25,95,102.0
1951,G6,156.75,0.5,95,102.0
1952,G5,156.75,0.5,95,102.0
1953,A4,156.75,0.25,87,102.0
1954,C2,156.75,0.25,87,102.0
1955,A4,157.0,0.25,95,102.0
1956,D2,157.0,0.25,95,102.0
1957,E-6,157.25,0.5,95,102.0
1958,E-5,157.25,0.5,95,102.0
1959,G4,157.25,0.25,95,102.0
1960,E-4,157.25,0.25,95,102.0
1961,C4,157.25,0.25,95,102.0
1962,G#3,157.25,0.25,95,102.0
1963,A4,157.25,0.25,87,102.0
1964,E4,157.25,0.25,87,102.0
1965,G#1,157.5,0.125,95,102.0
1966,A4,157.5,0.25,63,102.0
1967,C2,157.75,0.25,95,102.0
1968,F6,157.75,0.5,95,102.0
1969,F5,157.75,0.5,95,102.0
1970,F4,157.75,2.0,95,102.0
1971,D4,157.75,2.0,95,102.0
1972,B-3,157.75,2.0,95,102.0
1973,G3,157.75,2.0,95,102.0
1974,F4,157.75,2.25,95,102.0
1975,D4,157.75,2.25,95,102.0
1976,B-3,157.75,2.25,95,102.0
1977,G3,157.75,2.25,95,102.0
1978,A4,157.75,0.25,87,102.0
1979,C2,157.75,0.25,87,102.0
1980,A4,158.0,0.25,95,102.0
1981,C2,158.25,0.25,95,102.0
1982,B-6,158.25,0.5,95,102.0
1983,B-5,158.25,0.5,95,102.0
1984,A4,158.25,0.25,87,102.0
1985,C2,158.25,0.25,87,102.0
1986,B-1,158.5,0.25,79,102.0
1987,A4,158.5,0.25,63,102.0
1988,C2,158.75,0.25,63,102.0
1989,A4,158.75,0.25,87,102.0
1990,C2,158.75,0.25,87,102.0
1991,D2,159.0,0.25,79,102.0
1992,B-5,159.0,0.5,95,102.0
1993,B-4,159.0,0.5,95,102.0
1994,A4,159.0,0.25,95,102.0
1995,D2,159.0,0.25,95,102.0
1996,C2,159.25,0.25,79,102.0
1997,A4,159.25,0.25,87,102.0
1998,C#4,159.25,0.25,87,102.0
1999,B-1,159.5,0.25,63,102.0
2000,A4,159.5,0.25,84,102.0
2001,E-4,159.5,0.25,84,102.0
2002,C2,159.5,0.25,84,102.0
2003,F#1,159.75,0.25,63,102.0
2004,A4,159.75,0.25,79,102.0
2005,F1,160.0,0.25,63,102.0
2006,G4,160.0,1.0,95,102.0
2007,E-4,160.0,1.0,95,102.0
2008,C4,160.0,1.0,95,102.0
2009,G#3,160.0,1.0,95,102.0
2010,G4,160.0,1.75,95,102.0
2011,E-4,160.0,1.75,95,102.0
2012,C4,160.0,1.75,95,102.0
2013,G#3,160.0,1.75,95,102.0
2014,A4,160.0,0.25,95,102.0
2015,E-4,160.0,0.25,95,102.0
2016,C2,160.0,0.25,95,102.0
2017,F1,160.25,0.25,95,102.0
2018,A4,160.25,0.25,79,102.0
2019,E-6,160.25,0.5,95,102.0
2020,E-5,160.25,0.5,95,102.0
2021,E1,160.5,0.25,63,102.0
2022,A4,160.5,0.25,63,102.0
2023,F1,160.75,0.25,95,102.0
2024,E-6,160.75,0.5,95,102.0
2025,E-5,160.75,0.5,95,102.0
2026,A4,160.75,0.25,87,102.0
2027,C2,160.75,0.25,87,102.0
2028,F1,161.0,0.25,95,102.0
2029,A4,161.0,0.25,95,102.0
2030,D2,161.0,0.25,95,102.0
2031,F1,161.25,0.25,95,102.0
2032,C6,161.25,0.5,95,102.0
2033,C5,161.25,0.5,95,102.0
2034,G4,161.25,0.25,95,102.0
2035,E-4,161.25,0.25,95,102.0
2036,C4,161.25,0.25,95,102.0
2037,G#3,161.25,0.25,95,102.0
2038,A4,161.25,0.25,87,102.0
2039,E4,161.25,0.25,87,102.0
2040,F1,161.5,0.25,95,102.0
2041,A4,161.5,0.25,63,102.0
2042,G1,161.75,0.25,95,102.0
2043,F6,161.75,1.0,95,102.0
2044,F5,161.75,1.0,95,102.0
2045,F4,161.75,2.0,95,102.0
2046,D4,161.75,2.0,95,102.0
2047,B-3,161.75,2.0,95,102.0
2048,G3,161.75,2.0,95,102.0
2049,F4,161.75,2.25,95,102.0
2050,D4,161.75,2.25,95,102.0
2051,B-3,161.75,2.25,95,102.0
2052,G3,161.75,2.25,95,102.0
2053,A4,161.75,0.25,87,102.0
2054,C2,161.75,0.25,87,102.0
2055,A4,162.0,0.25,95,102.0
2056,G1,162.25,0.25,95,102.0
2057,A4,162.25,0.25,87,102.0
2058,C2,162.25,0.25,87,102.0
2059,A4,162.5,0.25,63,102.0
2060,G1,162.75,0.25,95,102.0
2061,A4,162.75,0.25,87,102.0
2062,C2,162.75,0.25,87,102.0
2063,B-1,163.0,0.25,95,102.0
2064,A4,163.0,0.25,95,102.0
2065,D2,163.0,0.25,95,102.0
2066,A4,163.25,0.25,87,102.0
2067,C#4,163.25,0.25,87,102.0
2068,E-6,163.5,0.25,95,102.0
2069,E-5,163.5,0.25,95,102.0
2070,A4,163.5,0.25,84,102.0
2071,E-4,163.5,0.25,84,102.0
2072,C2,163.5,0.25,84,102.0
2073,A4,163.75,0.25,79,102.0
2074,F6,163.75,0.25,95,102.0
2075,F5,163.75,0.25,95,102.0
2076,G#1,164.0,0.25,63,102.0
2077,G6,164.0,0.5,95,102.0
2078,G5,164.0,0.5,95,102.0
2079,G4,164.0,1.0,95,102.0
2080,E-4,164.0,1.0,95,102.0
2081,C4,164.0,1.0,95,102.0
2082,G#3,164.0,1.0,95,102.0
2083,G4,164.0,1.75,95,102.0
2084,E-4,164.0,1.75,95,102.0
2085,C4,164.0,1.75,95,102.0
2086,G#3,164.0,1.75,95,102.0
2087,A4,164.0,0.25,95,102.0
2088,E-4,164.0,0.25,95,102.0
2089,C2,164.0,0.25,95,102.0
2090,G#1,164.25,0.25,95,102.0
2091,A4,164.25,0.25,79,102.0
2092,F#1,164.5,0.25,63,102.0
2093,A4,164.5,0.25,63,102.0
2094,G#6,164.5,0.25,95,102.0
2095,G#5,164.5,0.25,95,102.0
2096,E1,164.75,0.25,95,102.0
2097,G6,164.75,0.5,95,102.0
2098,G5,164.75,0.5,95,102.0
2099,A4,164.75,0.25,87,102.0
2100,C2,164.75,0.25,87,102.0
2101,F#1,165.0,0.25,95,102.0
2102,A4,165.0,0.25,95,102.0
2103,D2,165.0,0.25,95,102.0
2104,F#1,165.25,0.25,95,102.0
2105,E-6,165.25,0.5,95,102.0
2106,E-5,165.25,0.5,95,102.0
2107,G4,165.25,0.25,95,102.0
2108,E-4,165.25,0.25,95,102.0
2109,C4,165.25,0.25,95,102.0
2110,G#3,165.25,0.25,95,102.0
2111,A4,165.25,0.25,87,102.0
2112,E4,165.25,0.25,87,102.0
2113,G#1,165.5,0.25,95,102.0
2114,A4,165.5,0.25,63,102.0
2115,B-1,165.75,0.25,95,102.0
2116,F6,165.75,0.5,95,102.0
2117,F5,165.75,0.5,95,102.0
2118,B-4,165.75,2.0,95,102.0
2119,D4,165.75,2.0,95,102.0
2120,B-3,165.75,2.0,95,102.0
2121,F3,165.75,2.0,95,102.0
2122,F4,165.75,2.25,95,102.0
2123,D4,165.75,2.25,95,102.0
2124,B-3,165.75,2.25,95,102.0
2125,F3,165.75,2.25,95,102.0
2126,A4,165.75,0.25,87,102.0
2127,C2,165.75,0.25,87,102.0
2128,A4,166.0,0.25,95,102.0
2129,B-1,166.25,0.25,95,102.0
2130,B-6,166.25,0.75,95,102.0
2131,B-5,166.25,0.75,95,102.0
2132,A4,166.25,0.25,87,102.0
2133,C2,166.25,0.25,87,102.0
2134,A4,166.5,0.25,63,102.0
2135,B-1,166.75,0.25,95,102.0
2136,A4,166.75,0.25,87,102.0
2137,C2,166.75,0.25,87,102.0
2138,B-1,167.0,0.5,95,102.0
2139,D6,167.0,0.75,95,102.0
2140,D5,167.0,0.75,95,102.0
2141,A4,167.0,0.25,95,102.0
2142,D2,167.0,0.25,95,102.0
2143,A4,167.25,0.25,87,102.0
2144,C#4,167.25,0.25,87,102.0
2145,A4,167.5,0.25,84,102.0
2146,E-4,167.5,0.25,84,102.0
2147,C2,167.5,0.25,84,102.0
2148,A4,167.75,0.25,79,102.0
2149,C6,167.75,0.25,95,102.0
2150,C5,167.75,0.25,95,102.0
2151,C2,168.0,0.25,63,102.0
2152,C5,168.0,2.0,95,102.0
2153,G4,168.0,2.0,95,102.0
2154,C4,168.0,2.0,95,102.0
2155,G5,168.0,2.0,79,102.0
2156,E-5,168.0,2.0,79,102.0
2157,C5,168.0,2.0,95,102.0
2158,G4,168.0,2.0,95,102.0
2159,C4,168.0,2.0,95,102.0
2160,G4,168.0,2.0,95,102.0
2161,E-4,168.0,2.0,95,102.0
2162,C4,168.0,2.0,95,102.0
2163,B-3,168.0,2.0,95,102.0
2164,G4,168.0,2.0,95,102.0
2165,E-4,168.0,2.0,95,102.0
2166,C4,168.0,2.0,95,102.0
2167,B-3,168.0,2.0,95,102.0
2168,A4,168.0,0.25,95,102.0
2169,E-4,168.0,0.25,95,102.0
2170,C2,168.0,0.25,95,102.0
2171,C2,168.25,0.25,95,102.0
2172,A4,168.25,0.25,79,102.0
2173,B-1,168.5,0.25,95,102.0
2174,A4,168.5,0.25,63,102.0
2175,C2,168.75,0.25,95,102.0
2176,A4,168.75,0.25,87,102.0
2177,C2,168.75,0.25,87,102.0
2178,A4,169.0,0.25,95,102.0
2179,D2,169.0,0.25,95,102.0
2180,C2,169.25,0.25,95,102.0
2181,A4,169.25,0.25,87,102.0
2182,E4,169.25,0.25,87,102.0
2183,B-1,169.5,0.25,95,102.0
2184,A4,169.5,0.25,63,102.0
2185,G1,169.75,0.25,79,102.0
2186,A4,169.75,0.25,87,102.0
2187,C2,169.75,0.25,87,102.0
2188,E-5,170.0,0.5,95,102.0
2189,F1,170.0,0.25,63,102.0
2190,A4,170.0,0.25,95,102.0
2191,D5,170.0,0.5,95,102.0
2192,B-4,170.0,0.5,95,102.0
2193,F4,170.0,0.5,95,102.0
2194,F5,170.0,0.5,84,102.0
2195,B-4,170.0,0.5,84,102.0
2196,F4,170.0,0.5,84,102.0
2197,F4,170.0,0.75,95,102.0
2198,D4,170.0,0.75,95,102.0
2199,C4,170.0,0.75,95,102.0
2200,B-3,170.0,0.75,95,102.0
2201,F4,170.0,0.75,95,102.0
2202,D4,170.0,0.75,95,102.0
2203,C4,170.0,0.75,95,102.0
2204,B-3,170.0,0.75,95,102.0
2205,E1,170.25,0.25,63,102.0
2206,A4,170.25,0.25,87,102.0
2207,C2,170.25,0.25,87,102.0
2208,F1,170.5,0.25,63,102.0
2209,A4,170.5,0.25,63,102.0
2210,F5,170.75,0.25,95,102.0
2211,G1,170.75,0.25,79,102.0
2212,E-5,170.75,0.25,95,102.0
2213,C5,170.75,0.25,95,102.0
2214,G4,170.75,0.25,95,102.0
2215,G5,170.75,0.25,84,102.0
2216,C5,170.75,0.25,84,102.0
2217,G4,170.75,0.25,84,102.0
2218,F4,170.75,0.75,95,102.0
2219,D4,170.75,0.75,95,102.0
2220,C4,170.75,0.75,95,102.0
2221,B-3,170.75,0.75,95,102.0
2222,F4,170.75,0.75,95,102.0
2223,D4,170.75,0.75,95,102.0
2224,C4,170.75,0.75,95,102.0
2225,B-3,170.75,0.75,95,102.0
2226,A4,170.75,0.25,87,102.0
2227,C2,170.75,0.25,87,102.0
2228,B-1,171.0,0.25,79,102.0
2229,A4,171.0,0.25,95,102.0
2230,D2,171.0,0.25,95,102.0
2231,C2,171.25,0.25,79,102.0
2232,D5,171.25,0.75,95,102.0
2233,B-4,171.25,0.75,95,102.0
2234,F4,171.25,0.75,95,102.0
2235,G5,171.25,0.5,79,102.0
2236,E-5,171.25,0.5,79,102.0
2237,F5,171.25,0.75,84,102.0
2238,B-4,171.25,0.75,84,102.0
2239,F4,171.25,0.75,84,102.0
2240,A4,171.25,0.25,87,102.0
2241,C#4,171.25,0.25,87,102.0
2242,B-1,171.5,0.25,79,102.0
2243,F4,171.5,0.5,95,102.0
2244,D4,171.5,0.5,95,102.0
2245,C4,171.5,0.5,95,102.0
2246,B-3,171.5,0.5,95,102.0
2247,F4,171.5,0.5,95,102.0
2248,D4,171.5,0.5,95,102.0
2249,C4,171.5,0.5,95,102.0
2250,B-3,171.5,0.5,95,102.0
2251,A4,171.5,0.25,84,102.0
2252,E-4,171.5,0.25,84,102.0
2253,C2,171.5,0.25,84,102.0
2254,G1,171.75,0.25,63,102.0
2255,A4,171.75,0.25,79,102.0
2256,C2,172.0,0.25,63,102.0
2257,C5,172.0,2.0,95,102.0
2258,E-4,172.0,2.0,95,102.0
2259,C4,172.0,2.0,95,102.0
2260,G5,172.0,2.0,79,102.0
2261,E-5,172.0,2.0,79,102.0
2262,E-5,172.0,2.0,84,102.0
2263,G4,172.0,2.0,84,102.0
2264,C4,172.0,2.0,84,102.0
2265,G4,172.0,2.0,95,102.0
2266,E-4,172.0,2.0,95,102.0
2267,C4,172.0,2.0,95,102.0
2268,B-3,172.0,2.0,95,102.0
2269,G4,172.0,2.0,95,102.0
2270,E-4,172.0,2.0,95,102.0
2271,C4,172.0,2.0,95,102.0
2272,B-3,172.0,2.0,95,102.0
2273,A4,172.0,0.25,84,102.0
2274,E-4,172.0,0.25,84,102.0
2275,C2,172.0,0.25,84,102.0
2276,C2,172.25,0.25,95,102.0
2277,A4,172.25,0.25,95,102.0
2278,B-1,172.5,0.25,95,102.0
2279,A4,172.5,0.25,63,102.0
2280,C2,172.75,0.25,95,102.0
2281,A4,172.75,0.25,79,102.0
2282,C2,172.75,0.25,79,102.0
2283,A4,173.0,0.25,95,102.0
2284,D2,173.0,0.25,95,102.0
2285,C2,173.25,0.25,95,102.0
2286,A4,173.25,0.25,95,102.0
2287,E4,173.25,0.25,95,102.0
2288,B-1,173.5,0.25,95,102.0
2289,A4,173.5,0.25,63,102.0
2290,G1,173.75,0.25,95,102.0
2291,A4,173.75,0.25,79,102.0
2292,C2,173.75,0.25,79,102.0
2293,E-5,174.0,1.25,95,102.0
2294,G#1,174.0,1.25,95,102.0
2295,A4,174.0,0.25,63,102.0
2296,G#4,174.0,1.25,95,102.0
2297,E-4,174.0,1.25,95,102.0
2298,C4,174.0,1.25,95,102.0
2299,G#4,174.0,1.25,95,102.0
2300,E-4,174.0,1.25,95,102.0
2301,C4,174.0,1.25,95,102.0
2302,G4,174.0,1.25,95,102.0
2303,E-4,174.0,1.25,95,102.0
2304,C4,174.0,1.25,95,102.0
2305,B-3,174.0,1.25,95,102.0
2306,G4,174.0,1.25,95,102.0
2307,E-4,174.0,1.25,95,102.0
2308,C4,174.0,1.25,95,102.0
2309,B-3,174.0,1.25,95,102.0
2310,A4,174.25,0.25,79,102.0
2311,C2,174.25,0.25,79,102.0
2312,A4,174.5,0.25,63,102.0
2313,A4,174.75,0.25,79,102.0
2314,C2,174.75,0.25,79,102.0
2315,A4,175.0,0.25,95,102.0
2316,C#2,175.0,0.25,95,102.0
2317,D5,175.25,0.25,95,102.0
2318,B-1,175.25,0.25,95,102.0
2319,B-4,175.25,0.25,95,102.0
2320,F4,175.25,0.25,95,102.0
2321,B-3,175.25,0.25,95,102.0
2322,D5,175.25,0.25,95,102.0
2323,F4,175.25,0.25,95,102.0
2324,B-3,175.25,0.25,95,102.0
2325,F4,175.25,0.25,95,102.0
2326,D4,175.25,0.25,95,102.0
2327,C4,175.25,0.25,95,102.0
2328,B-3,175.25,0.25,95,102.0
2329,F4,175.25,0.25,95,102.0
2330,D4,175.25,0.25,95,102.0
2331,C4,175.25,0.25,95,102.0
2332,B-3,175.25,0.25,95,102.0
2333,A4,175.25,0.25,95,102.0
2334,C2,175.25,0.25,95,102.0
2335,C#3,175.25,0.25,95,102.0
2336,A4,175.5,0.25,63,102.0
2337,C2,175.75,0.25,95,102.0
2338,C5,175.75,0.25,95,102.0
2339,G4,175.75,0.25,95,102.0
2340,C4,175.75,0.25,95,102.0
2341,G5,175.75,0.25,79,102.0
2342,E-5,175.75,0.25,79,102.0
2343,C5,175.75,0.25,95,102.0
2344,G4,175.75,0.25,95,102.0
2345,C4,175.75,0.25,95,102.0
2346,G4,175.75,0.25,95,102.0
2347,E-4,175.75,0.25,95,102.0
2348,C4,175.75,0.25,95,102.0
2349,B-3,175.75,0.25,95,102.0
2350,G4,175.75,0.25,95,102.0
2351,E-4,175.75,0.25,95,102.0
2352,C4,175.75,0.25,95,102.0
2353,B-3,175.75,0.25,95,102.0
2354,A4,175.75,0.25,95,102.0
2355,C2,175.75,0.25,95,102.0
2356,C#3,175.75,0.25,95,102.0
2357,C2,176.0,0.25,95,102.0
2358,C5,176.0,2.0,95,102.0
2359,G4,176.0,2.0,95,102.0
2360,C4,176.0,2.0,95,102.0
2361,G5,176.0,2.0,79,102.0
2362,E-5,176.0,2.0,79,102.0
2363,C5,176.0,2.0,95,102.0
2364,G4,176.0,2.0,95,102.0
2365,C4,176.0,2.0,95,102.0
2366,G4,176.0,2.0,95,102.0
2367,E-4,176.0,2.0,95,102.0
2368,C4,176.0,2.0,95,102.0
2369,B-3,176.0,2.0,95,102.0
2370,G4,176.0,2.0,95,102.0
2371,E-4,176.0,2.0,95,102.0
2372,C4,176.0,2.0,95,102.0
2373,B-3,176.0,2.0,95,102.0
2374,A4,176.0,0.25,95,102.0
2375,E-4,176.0,0.25,95,102.0
2376,C2,176.0,0.25,95,102.0
2377,C2,176.25,0.25,95,102.0
2378,A4,176.25,0.25,79,102.0
2379,B-1,176.5,0.25,95,102.0
2380,A4,176.5,0.25,63,102.0
2381,C2,176.75,0.25,95,102.0
2382,A4,176.75,0.25,87,102.0
2383,C2,176.75,0.25,87,102.0
2384,A4,177.0,0.25,95,102.0
2385,D2,177.0,0.25,95,102.0
2386,C2,177.25,0.25,95,102.0
2387,A4,177.25,0.25,87,102.0
2388,E4,177.25,0.25,87,102.0
2389,B-1,177.5,0.25,95,102.0
2390,A4,177.5,0.25,63,102.0
2391,G1,177.75,0.25,79,102.0
2392,A4,177.75,0.25,87,102.0
2393,C2,177.75,0.25,87,102.0
2394,E-5,178.0,0.5,95,102.0
2395,B-1,178.0,0.75,95,102.0
2396,A4,178.0,0.25,95,102.0
2397,D5,178.0,0.5,95,102.0
2398,B-4,178.0,0.5,95,102.0
2399,F4,178.0,0.5,95,102.0
2400,F5,178.0,0.5,84,102.0
2401,B-4,178.0,0.5,84,102.0
2402,F4,178.0,0.5,84,102.0
2403,F4,178.0,0.75,95,102.0
2404,D4,178.0,0.75,95,102.0
2405,C4,178.0,0.75,95,102.0
2406,B-3,178.0,0.75,95,102.0
2407,F4,178.0,0.75,95,102.0
2408,D4,178.0,0.75,95,102.0
2409,C4,178.0,0.75,95,102.0
2410,B-3,178.0,0.75,95,102.0
2411,A4,178.25,0.25,87,102.0
2412,C2,178.25,0.25,87,102.0
2413,A4,178.5,0.25,63,102.0
2414,E-5,178.75,0.25,95,102.0
2415,F#1,178.75,0.25,95,102.0
2416,E-5,178.75,0.25,95,102.0
2417,C5,178.75,0.25,95,102.0
2418,G4,178.75,0.25,95,102.0
2419,G5,178.75,0.25,84,102.0
2420,C5,178.75,0.25,84,102.0
2421,G4,178.75,0.25,84,102.0
2422,F4,178.75,0.75,95,102.0
2423,D4,178.75,0.75,95,102.0
2424,C4,178.75,0.75,95,102.0
2425,B-3,178.75,0.75,95,102.0
2426,F4,178.75,0.75,95,102.0
2427,D4,178.75,0.75,95,102.0
2428,C4,178.75,0.75,95,102.0
2429,B-3,178.75,0.75,95,102.0
2430,A4,178.75,0.25,87,102.0
2431,C2,178.75,0.25,87,102.0
2432,A4,179.0,0.25,95,102.0
2433,D2,179.0,0.25,95,102.0
2434,D5,179.25,0.5,95,102.0
2435,B-1,179.25,0.25,95,102.0
2436,D5,179.25,0.75,95,102.0
2437,B-4,179.25,0.75,95,102.0
2438,F4,179.25,0.75,95,102.0
2439,F5,179.25,0.75,84,102.0
2440,B-4,179.25,0.75,84,102.0
2441,F4,179.25,0.75,84,102.0
2442,A4,179.25,0.25,87,102.0
2443,C#4,179.25,0.25,87,102.0
2444,F4,179.5,0.5,95,102.0
2445,D4,179.5,0.5,95,102.0
2446,C4,179.5,0.5,95,102.0
2447,B-3,179.5,0.5,95,102.0
2448,F4,179.5,0.5,95,102.0
2449,D4,179.5,0.5,95,102.0
2450,C4,179.5,0.5,95,102.0
2451,B-3,179.5,0.5,95,102.0
2452,A4,179.5,0.25,84,102.0
2453,E-4,179.5,0.25,84,102.0
2454,C2,179.5,0.25,84,102.0
2455,A4,179.75,0.25,79,102.0
2456,C2,180.0,0.25,95,102.0
2457,C5,180.0,3.25,95,102.0
2458,G4,180.0,3.25,95,102.0
2459,C4,180.0,3.25,95,102.0
2460,G5,180.0,3.25,79,102.0
2461,E-5,180.0,3.25,79,102.0
2462,C5,180.0,3.25,95,102.0
2463,G4,180.0,3.25,95,102.0
2464,C4,180.0,3.25,95,102.0
2465,G4,180.0,3.25,95,102.0
2466,E-4,180.0,3.25,95,102.0
2467,C4,180.0,3.25,95,102.0
2468,B-3,180.0,3.25,95,102.0
2469,G4,180.0,3.25,95,102.0
2470,E-4,180.0,3.25,95,102.0
2471,C4,180.0,3.25,95,102.0
2472,B-3,180.0,3.25,95,102.0
2473,A4,180.0,0.25,84,102.0
2474,E-4,180.0,0.25,84,102.0
2475,C2,180.0,0.25,84,102.0
2476,B-1,180.25,0.25,63,102.0
2477,A4,180.25,0.25,95,102.0
2478,C2,180.5,0.25,95,102.0
2479,A4,180.5,0.25,63,102.0
2480,B-1,180.75,0.25,63,102.0
2481,A4,180.75,0.25,79,102.0
2482,C2,180.75,0.25,79,102.0
2483,C2,181.0,0.25,95,102.0
2484,A4,181.0,0.25,95,102.0
2485,D2,181.0,0.25,95,102.0
2486,B-1,181.25,0.25,63,102.0
2487,A4,181.25,0.25,95,102.0
2488,E4,181.25,0.25,95,102.0
2489,A4,181.5,0.25,63,102.0
2490,C2,181.75,0.25,95,102.0
2491,A4,181.75,0.25,79,102.0
2492,C2,181.75,0.25,79,102.0
2493,A4,182.0,0.25,63,102.0
2494,C2,182.25,0.25,95,102.0
2495,A4,182.25,0.25,79,102.0
2496,C2,182.25,0.25,79,102.0
2497,A4,182.5,0.25,63,102.0
2498,C2,182.75,0.5,95,102.0
2499,A4,182.75,0.25,79,102.0
2500,C2,182.75,0.25,79,102.0
2501,A4,183.0,0.25,95,102.0
2502,C#2,183.0,0.25,95,102.0
2503,F5,183.25,0.25,79,102.0
2504,B-1,183.25,0.25,95,102.0
2505,B-4,183.25,0.25,95,102.0
2506,F4,183.25,0.25,95,102.0
2507,B-3,183.25,0.25,95,102.0
2508,D5,183.25,0.25,95,102.0
2509,F4,183.25,0.25,95,102.0
2510,B-3,183.25,0.25,95,102.0
2511,F4,183.25,0.25,95,102.0
2512,D4,183.25,0.25,95,102.0
2513,B-3,183.25,0.25,95,102.0
2514,F4,183.25,0.25,95,102.0
2515,D4,183.25,0.25,95,102.0
2516,B-3,183.25,0.25,95,102.0
2517,A4,183.25,0.25,95,102.0
2518,C2,183.25,0.25,95,102.0
2519,C#3,183.25,0.25,95,102.0
2520,A4,183.5,0.25,63,102.0
2521,E-5,183.75,0.25,95,102.0
2522,G#1,183.75,0.25,95,102.0
2523,G#4,183.75,0.25,95,102.0
2524,E-4,183.75,0.25,95,102.0
2525,C4,183.75,0.25,95,102.0
2526,C5,183.75,0.25,95,102.0
2527,E-4,183.75,0.25,95,102.0
2528,C4,183.75,0.25,95,102.0
2529,E-4,183.75,0.25,95,102.0
2530,C4,183.75,0.25,95,102.0
2531,G#3,183.75,0.25,95,102.0
2532,E-4,183.75,0.25,95,102.0
2533,C4,183.75,0.25,95,102.0
2534,G#3,183.75,0.25,95,102.0
2535,A4,183.75,0.25,95,102.0
2536,C2,183.75,0.25,95,102.0
2537,C#3,183.75,0.25,95,102.0
2538,E-5,184.0,3.25,95,102.0
2539,G#1,184.0,0.25,95,102.0
2540,G#4,184.0,3.25,95,102.0
2541,E-4,184.0,3.25,95,102.0
2542,C4,184.0,3.25,95,102.0
2543,C5,184.0,3.25,95,102.0
2544,E-4,184.0,3.25,95,102.0
2545,C4,184.0,3.25,95,102.0
2546,E-4,184.0,3.25,95,102.0
2547,C4,184.0,3.25,95,102.0
2548,G#3,184.0,3.25,95,102.0
2549,E-4,184.0,3.25,95,102.0
2550,C4,184.0,3.25,95,102.0
2551,G#3,184.0,3.25,95,102.0
2552,A4,184.0,0.25,95,102.0
2553,E-4,184.0,0.25,95,102.0
2554,A4,184.25,0.25,79,102.0
2555,G#1,184.5,0.25,95,102.0
2556,A4,184.5,0.25,63,102.0
2557,G#1,184.75,0.25,63,102.0
2558,A4,184.75,0.25,87,102.0
2559,C2,184.75,0.25,87,102.0
2560,B-1,185.0,0.25,95,102.0
2561,A4,185.0,0.25,95,102.0
2562,D2,185.0,0.25,95,102.0
2563,G#1,185.25,0.25,95,102.0
2564,A4,185.25,0.25,87,102.0
2565,E4,185.25,0.25,87,102.0
2566,A4,185.5,0.25,63,102.0
2567,G#1,185.75,0.25,95,102.0
2568,A4,185.75,0.25,87,102.0
2569,C2,185.75,0.25,87,102.0
2570,A4,186.0,0.25,63,102.0
2571,G#1,186.25,0.25,95,102.0
2572,A4,186.25,0.25,87,102.0
2573,C2,186.25,0.25,87,102.0
2574,A4,186.5,0.25,63,102.0
2575,G#1,186.75,0.25,95,102.0
2576,A4,186.75,0.25,87,102.0
2577,C2,186.75,0.25,87,102.0
2578,A4,187.0,0.25,95,102.0
2579,C#2,187.0,0.25,95,102.0
2580,D5,187.25,0.25,95,102.0
2581,G1,187.25,0.25,95,102.0
2582,B-4,187.25,0.25,95,102.0
2583,F4,187.25,0.25,95,102.0
2584,B-3,187.25,0.25,95,102.0
2585,D5,187.25,0.25,95,102.0
2586,F4,187.25,0.25,95,102.0
2587,B-3,187.25,0.25,95,102.0
2588,F4,187.25,0.25,95,102.0
2589,D4,187.25,0.25,95,102.0
2590,B-3,187.25,0.25,95,102.0
2591,F4,187.25,0.25,95,102.0
2592,D4,187.25,0.25,95,102.0
2593,B-3,187.25,0.25,95,102.0
2594,A4,187.25,0.25,90,102.0
2595,C2,187.25,0.25,90,102.0
2596,C#3,187.25,0.25,90,102.0
2597,A4,187.5,0.25,63,102.0
2598,C5,187.75,0.25,95,102.0
2599,F1,187.75,0.25,95,102.0
2600,G#4,187.75,0.25,95,102.0
2601,E-4,187.75,0.25,95,102.0
2602,C4,187.75,0.25,95,102.0
2603,C5,187.75,0.25,95,102.0
2604,E-4,187.75,0.25,95,102.0
2605,C4,187.75,0.25,95,102.0
2606,E-4,187.75,0.25,95,102.0
2607,C4,187.75,0.25,95,102.0
2608,G#3,187.75,0.25,95,102.0
2609,E-4,187.75,0.25,95,102.0
2610,C4,187.75,0.25,95,102.0
2611,G#3,187.75,0.25,95,102.0
2612,A4,187.75,0.25,90,102.0
2613,C2,187.75,0.25,90,102.0
2614,C#3,187.75,0.25,90,102.0
2615,C5,188.0,4.0,95,102.0
2616,F1,188.0,4.0,95,102.0
2617,G#4,188.0,4.0,95,102.0
2618,E-4,188.0,4.0,95,102.0
2619,C4,188.0,4.0,95,102.0
2620,C5,188.0,4.0,95,102.0
2621,E-4,188.0,4.0,95,102.0
2622,C4,188.0,4.0,95,102.0
2623,E-4,188.0,4.0,95,102.0
2624,C4,188.0,4.0,95,102.0
2625,G#3,188.0,4.0,95,102.0
2626,E-4,188.0,4.0,95,102.0
2627,C4,188.0,4.0,95,102.0
2628,G#3,188.0,4.0,95,102.0
2629,E-5,192.0,0.75,95,102.0
2630,F1,192.0,4.0,95,102.0
2631,D5,192.75,0.75,95,102.0
2632,B-4,193.5,0.5,95,102.0
2633,G4,194.0,0.75,95,102.0
2634,C5,194.75,0.75,95,102.0
2635,B-4,195.5,0.5,95,102.0
2636,G4,196.0,3.5,95,102.0
2637,C2,196.0,2.0,95,102.0
2638,E-4,196.0,4.0,95,102.0
2639,C4,196.0,4.0,95,102.0
2640,G#3,196.0,4.0,95,102.0
2641,E-4,196.0,4.0,95,102.0
2642,C4,196.0,4.0,95,102.0
2643,G#3,196.0,4.0,95,102.0
2644,A4,196.0,4.0,90,102.0
2645,C2,196.0,4.0,90,102.0
2646,C#3,196.0,4.0,90,102.0
2647,B-1,198.0,2.0,95,102.0
2648,B-4,199.5,0.5,95,102.0
2649,B-1,200.0,3.0,95,102.0
2650,G4,200.0,4.0,95,102.0
2651,D4,200.0,4.0,95,102.0
2652,C4,200.0,4.0,95,102.0
2653,G3,200.0,4.0,95,102.0
2654,G4,200.0,4.0,95,102.0
2655,D4,200.0,4.0,95,102.0
2656,C4,200.0,4.0,95,102.0
2657,G3,200.0,4.0,95,102.0
2658,F4,203.0,0.75,95,102.0
2659,B-1,203.0,0.5,95,102.0
2660,G4,203.75,0.25,95,102.0
2661,C2,203.75,0.25,95,102.0
2662,G4,204.0,2.0,95,102.0
2663,C2,204.0,2.0,95,102.0
2664,F4,204.0,3.0,95,102.0
2665,C4,204.0,3.0,95,102.0
2666,B-3,204.0,3.0,95,102.0
2667,F3,204.0,3.0,95,102.0
2668,F4,204.0,3.0,95,102.0
2669,C4,204.0,3.0,95,102.0
2670,B-3,204.0,3.0,95,102.0
2671,F3,204.0,3.0,95,102.0
2672,A4,204.0,4.0,90,102.0
2673,C2,204.0,4.0,90,102.0
2674,C#3,204.0,4.0,90,102.0
2675,B-1,206.0,2.0,95,102.0
2676,F4,207.0,0.5,95,102.0
2677,C4,207.0,0.5,95,102.0
2678,B-3,207.0,0.5,95,102.0
2679,F3,207.0,0.5,95,102.0
2680,F4,207.0,0.5,95,102.0
2681,C4,207.0,0.5,95,102.0
2682,B-3,207.0,0.5,95,102.0
2683,F3,207.0,0.5,95,102.0
2684,G4,207.75,0.25,95,102.0
2685,D4,207.75,0.25,95,102.0
2686,C4,207.75,0.25,95,102.0
2687,G3,207.75,0.25,95,102.0
2688,G4,207.75,0.25,95,102.0
2689,D4,207.75,0.25,95,102.0
2690,C4,207.75,0.25,95,102.0
2691,G3,207.75,0.25,95,102.0
2692,B-4,208.0,0.75,95,102.0
2693,B-1,208.0,0.75,95,102.0
2694,G4,208.0,4.0,95,102.0
2695,D4,208.0,4.0,95,102.0
2696,C4,208.0,4.0,95,102.0
2697,G3,208.0,4.0,95,102.0
2698,G4,208.0,4.0,95,102.0
2699,D4,208.0,4.0,95,102.0
2700,C4,208.0,4.0,95,102.0
2701,G3,208.0,4.0,95,102.0
2702,A4,208.0,0.25,95,102.0
2703,G#3,208.0,0.25,95,102.0
2704,C2,208.0,0.25,95,102.0
2705,A4,208.25,0.25,79,102.0
2706,A4,208.5,0.25,63,102.0
2707,C5,208.75,2.25,95,102.0
2708,B-1,208.75,2.25,95,102.0
2709,A4,208.75,0.25,87,102.0
2710,E-4,208.75,0.25,87,102.0
2711,A4,209.0,0.25,87,102.0
2712,E-4,209.0,0.25,87,102.0
2713,A4,209.25,0.25,79,102.0
2714,A4,209.5,0.25,79,102.0
2715,E4,209.5,0.25,79,102.0
2716,A4,209.75,0.25,87,102.0
2717,E4,209.75,0.25,87,102.0
2718,A4,210.0,0.25,95,102.0
2719,A4,210.25,0.25,79,102.0
2720,A4,210.5,0.25,63,102.0
2721,A4,210.75,0.25,79,102.0
2722,A4,211.0,0.75,95,102.0
2723,B-1,211.0,0.5,95,102.0
2724,A4,211.0,0.25,95,102.0
2725,A4,211.25,0.25,87,102.0
2726,C#4,211.25,0.25,87,102.0
2727,A4,211.5,0.25,79,102.0
2728,E-4,211.5,0.25,79,102.0
2729,G4,211.75,0.25,95,102.0
2730,C2,211.75,0.25,95,102.0
2731,A4,211.75,0.25,79,102.0
2732,G4,212.0,4.0,95,102.0
2733,C2,212.0,2.0,95,102.0
2734,B-4,212.0,0.75,95,102.0
2735,F4,212.0,0.75,95,102.0
2736,B-3,212.0,0.75,95,102.0
2737,B-4,212.0,0.75,95,102.0
2738,F4,212.0,0.75,95,102.0
2739,B-3,212.0,0.75,95,102.0
2740,A4,212.0,0.25,95,102.0
2741,G#3,212.0,0.25,95,102.0
2742,A4,212.25,0.25,79,102.0
2743,A4,212.5,0.25,63,102.0
2744,C5,212.75,2.25,95,102.0
2745,F4,212.75,2.25,95,102.0
2746,B-3,212.75,2.25,95,102.0
2747,C5,212.75,2.25,95,102.0
2748,F4,212.75,2.25,95,102.0
2749,B-3,212.75,2.25,95,102.0
2750,A4,212.75,0.25,87,102.0
2751,E-4,212.75,0.25,87,102.0
2752,A4,213.0,0.25,95,102.0
2753,E-4,213.0,0.25,95,102.0
2754,A4,213.25,0.25,79,102.0
2755,A4,213.5,0.25,79,102.0
2756,E4,213.5,0.25,79,102.0
2757,A4,213.75,0.25,87,102.0
2758,E4,213.75,0.25,87,102.0
2759,B-1,214.0,2.0,95,102.0
2760,A4,214.0,0.25,63,102.0
2761,A4,214.25,0.25,79,102.0
2762,A4,214.5,0.25,63,102.0
2763,A4,214.75,0.25,79,102.0
2764,A4,215.0,0.5,95,102.0
2765,F4,215.0,0.5,95,102.0
2766,B-3,215.0,0.5,95,102.0
2767,A4,215.0,0.5,95,102.0
2768,F4,215.0,0.5,95,102.0
2769,B-3,215.0,0.5,95,102.0
2770,A4,215.0,0.25,95,102.0
2771,C2,215.0,0.25,95,102.0
2772,A4,215.25,0.25,79,102.0
2773,A4,215.5,0.25,63,102.0
2774,G4,215.75,0.25,95,102.0
2775,D4,215.75,0.25,95,102.0
2776,C4,215.75,0.25,95,102.0
2777,G3,215.75,0.25,95,102.0
2778,G4,215.75,0.25,95,102.0
2779,D4,215.75,0.25,95,102.0
2780,C4,215.75,0.25,95,102.0
2781,G3,215.75,0.25,95,102.0
2782,A4,215.75,0.25,87,102.0
2783,C2,215.75,0.25,87,102.0
2784,F2,216.0,3.0,95,102.0
2785,A4,216.0,0.25,95,102.0
2786,G4,216.0,4.0,95,102.0
2787,D4,216.0,4.0,95,102.0
2788,C4,216.0,4.0,95,102.0
2789,G3,216.0,4.0,95,102.0
2790,G4,216.0,4.0,95,102.0
2791,D4,216.0,4.0,95,102.0
2792,C4,216.0,4.0,95,102.0
2793,G3,216.0,4.0,95,102.0
2794,A4,216.25,0.25,79,102.0
2795,A4,216.5,0.25,63,102.0
2796,A4,216.75,0.25,87,102.0
2797,E-4,216.75,0.25,87,102.0
2798,A4,217.0,0.25,87,102.0
2799,E-4,217.0,0.25,87,102.0
2800,A4,217.25,0.25,79,102.0
2801,A4,217.5,0.25,79,102.0
2802,E4,217.5,0.25,79,102.0
2803,A4,217.75,0.25,87,102.0
2804,E4,217.75,0.25,87,102.0
2805,A4,218.0,0.25,95,102.0
2806,A4,218.25,0.25,79,102.0
2807,A4,218.5,0.25,63,102.0
2808,A4,218.75,0.25,79,102.0
2809,D4,219.0,0.75,95,102.0
2810,B-1,219.0,0.5,95,102.0
2811,A4,219.0,0.25,95,102.0
2812,A4,219.25,0.25,87,102.0
2813,C#4,219.25,0.25,87,102.0
2814,A4,219.5,0.25,79,102.0
2815,E-4,219.5,0.25,79,102.0
2816,E-4,219.75,0.25,95,102.0
2817,G#1,219.75,0.25,95,102.0
2818,A4,219.75,0.25,79,102.0
2819,E-4,220.0,1.0,95,102.0
2820,G#1,220.0,1.0,95,102.0
2821,F4,220.0,3.0,95,102.0
2822,C4,220.0,3.0,95,102.0
2823,B-3,220.0,3.0,95,102.0
2824,F3,220.0,3.0,95,102.0
2825,F4,220.0,3.0,95,102.0
2826,C4,220.0,3.0,95,102.0
2827,B-3,220.0,3.0,95,102.0
2828,F3,220.0,3.0,95,102.0
2829,A4,220.0,0.25,95,102.0
2830,G#3,220.0,0.25,95,102.0
2831,C2,220.0,0.25,95,102.0
2832,A4,220.25,0.25,79,102.0
2833,A4,220.5,0.25,63,102.0
2834,A4,220.75,0.25,90,102.0
2835,E-4,220.75,0.25,90,102.0
2836,C2,220.75,0.25,90,102.0
2837,F4,221.0,0.75,95,102.0
2838,G1,221.0,0.5,95,102.0
2839,A4,221.0,0.25,95,102.0
2840,E-4,221.0,0.25,95,102.0
2841,A4,221.25,0.25,79,102.0
2842,A4,221.5,0.25,79,102.0
2843,E4,221.5,0.25,79,102.0
2844,G4,221.75,1.25,95,102.0
2845,F2,221.75,1.25,95,102.0
2846,A4,221.75,0.25,87,102.0
2847,E4,221.75,0.25,87,102.0
2848,A4,222.0,0.25,63,102.0
2849,A4,222.25,0.25,79,102.0
2850,A4,222.5,0.25,63,102.0
2851,A4,222.75,0.25,79,102.0
2852,G#4,223.0,0.75,95,102.0
2853,E-2,223.0,0.5,95,102.0
2854,D4,223.0,0.5,95,102.0
2855,B-3,223.0,0.5,95,102.0
2856,F3,223.0,0.5,95,102.0
2857,D4,223.0,0.5,95,102.0
2858,B-3,223.0,0.5,95,102.0
2859,F3,223.0,0.5,95,102.0
2860,A4,223.0,0.25,95,102.0
2861,C2,223.0,0.25,95,102.0
2862,A4,223.25,0.25,79,102.0
2863,A4,223.5,0.25,63,102.0
2864,B-4,223.75,0.25,95,102.0
2865,C#2,223.75,0.25,95,102.0
2866,E-4,223.75,0.25,95,102.0
2867,C4,223.75,0.25,95,102.0
2868,G#3,223.75,0.25,95,102.0
2869,E-4,223.75,0.25,95,102.0
2870,C4,223.75,0.25,95,102.0
2871,G#3,223.75,0.25,95,102.0
2872,A4,223.75,0.25,87,102.0
2873,C2,223.75,0.25,87,102.0
2874,B-4,224.0,4.0,95,102.0
2875,C#2,224.0,4.0,95,102.0
2876,A4,224.0,0.25,95,102.0
2877,E-4,224.0,1.0,95,102.0
2878,C4,224.0,1.0,95,102.0
2879,G#3,224.0,1.0,95,102.0
2880,E-4,224.0,1.0,95,102.0
2881,C4,224.0,1.0,95,102.0
2882,G#3,224.0,1.0,95,102.0
2883,A4,224.25,0.25,79,102.0
2884,A4,224.5,0.25,63,102.0
2885,A4,224.75,0.25,87,102.0
2886,E-4,224.75,0.25,87,102.0
2887,F4,225.0,0.5,95,102.0
2888,D4,225.0,0.5,95,102.0
2889,B-3,225.0,0.5,95,102.0
2890,F4,225.0,0.5,95,102.0
2891,D4,225.0,0.5,95,102.0
2892,B-3,225.0,0.5,95,102.0
2893,A4,225.0,0.25,87,102.0
2894,E-4,225.0,0.25,87,102.0
2895,A4,225.25,0.25,79,102.0
2896,A4,225.5,0.25,79,102.0
2897,E4,225.5,0.25,79,102.0
2898,G4,225.75,1.25,95,102.0
2899,E-4,225.75,1.25,95,102.0
2900,C4,225.75,1.25,95,102.0
2901,G4,225.75,1.25,95,102.0
2902,E-4,225.75,1.25,95,102.0
2903,C4,225.75,1.25,95,102.0
2904,A4,225.75,0.25,87,102.0
2905,E4,225.75,0.25,87,102.0
2906,A4,226.0,0.25,95,102.0
2907,A4,226.25,0.25,79,102.0
2908,A4,226.5,0.25,63,102.0
2909,A4,226.75,0.25,79,102.0
2910,A4,227.0,0.25,95,102.0
2911,G#4,227.0,0.5,95,102.0
2912,E-4,227.0,0.5,95,102.0
2913,C4,227.0,0.5,95,102.0
2914,G#4,227.0,0.5,95,102.0
2915,E-4,227.0,0.5,95,102.0
2916,C4,227.0,0.5,95,102.0
2917,A4,227.25,0.25,87,102.0
2918,C#4,227.25,0.25,87,102.0
2919,A4,227.5,0.25,79,102.0
2920,E-4,227.5,0.25,79,102.0
2921,A4,227.75,0.25,79,102.0
2922,B-4,227.75,0.25,95,102.0
2923,G#4,227.75,0.25,95,102.0
2924,E-4,227.75,0.25,95,102.0
2925,C4,227.75,0.25,95,102.0
2926,B-4,227.75,0.25,95,102.0
2927,G#4,227.75,0.25,95,102.0
2928,E-4,227.75,0.25,95,102.0
2929,C4,227.75,0.25,95,102.0
2930,D4,228.0,0.75,95,102.0
2931,A1,228.0,0.25,63,102.0
2932,B-4,228.0,4.0,95,102.0
2933,G#4,228.0,4.0,95,102.0
2934,E-4,228.0,4.0,95,102.0
2935,C4,228.0,4.0,95,102.0
2936,B-4,228.0,4.0,95,102.0
2937,G#4,228.0,4.0,95,102.0
2938,E-4,228.0,4.0,95,102.0
2939,C4,228.0,4.0,95,102.0
2940,A4,228.0,0.25,95,102.0
2941,G#3,228.0,0.25,95,102.0
2942,A1,228.25,0.25,95,102.0
2943,A4,228.25,0.25,79,102.0
2944,A1,228.5,0.25,63,102.0
2945,A4,228.5,0.25,63,102.0
2946,A3,228.75,2.0,95,102.0
2947,E1,228.75,0.25,79,102.0
2948,A4,228.75,0.25,87,102.0
2949,E-4,228.75,0.25,87,102.0
2950,G1,229.0,0.25,95,102.0
2951,A4,229.0,0.25,95,102.0
2952,E-4,229.0,0.25,95,102.0
2953,A1,229.25,0.25,95,102.0
2954,A4,229.25,0.25,79,102.0
2955,A4,229.5,0.25,79,102.0
2956,E4,229.5,0.25,79,102.0
2957,A1,229.75,0.25,95,102.0
2958,A4,229.75,0.25,87,102.0
2959,E4,229.75,0.25,87,102.0
2960,A4,230.0,0.25,63,102.0
2961,A1,230.25,0.25,95,102.0
2962,A4,230.25,0.25,79,102.0
2963,A4,230.5,0.25,63,102.0
2964,A1,230.75,0.25,95,102.0
2965,A4,230.75,0.25,79,102.0
2966,G1,231.0,0.25,95,102.0
2967,A4,231.0,0.25,95,102.0
2968,C2,231.0,0.25,95,102.0
2969,F#1,231.25,0.25,79,102.0
2970,A4,231.25,0.25,79,102.0
2971,B-3,231.5,0.5,95,102.0
2972,E1,231.5,0.25,63,102.0
2973,A4,231.5,0.25,63,102.0
2974,F#1,231.75,0.25,79,102.0
2975,A4,231.75,0.25,87,102.0
2976,C2,231.75,0.25,87,102.0
2977,D4,232.0,0.25,95,102.0
2978,A1,232.0,0.25,63,102.0
2979,E4,232.0,1.0,95,102.0
2980,C4,232.0,1.0,95,102.0
2981,A3,232.0,1.0,95,102.0
2982,G3,232.0,1.0,95,102.0
2983,E4,232.0,1.75,95,102.0
2984,C4,232.0,1.75,95,102.0
2985,A3,232.0,1.75,95,102.0
2986,G3,232.0,1.75,95,102.0
2987,A4,232.0,0.25,79,102.0
2988,G#3,232.0,0.25,79,102.0
2989,E4,232.25,0.25,95,102.0
2990,A1,232.25,0.25,95,102.0
2991,A4,232.25,0.25,63,102.0
2992,G4,232.5,0.25,95,102.0
2993,A1,232.5,0.25,63,102.0
2994,A4,232.5,0.25,63,102.0
2995,G4,232.75,2.0,95,102.0
2996,E1,232.75,0.25,79,102.0
2997,A4,232.75,0.25,79,102.0
2998,E-4,232.75,0.25,79,102.0
2999,G1,233.0,0.25,95,102.0
3000,A4,233.0,0.25,95,102.0
3001,E-4,233.0,0.25,95,102.0
3002,C2,233.0,0.25,95,102.0
3003,A1,233.25,0.25,95,102.0
3004,A4,233.25,0.25,95,102.0
3005,E4,233.25,0.25,95,102.0
3006,C4,233.25,0.25,95,102.0
3007,A3,233.25,0.25,95,102.0
3008,G3,233.25,0.25,95,102.0
3009,A4,233.5,0.25,79,102.0
3010,E4,233.5,0.25,79,102.0
3011,A1,233.75,0.25,95,102.0
3012,D4,233.75,1.25,95,102.0
3013,B3,233.75,1.25,95,102.0
3014,A3,233.75,1.25,95,102.0
3015,G3,233.75,1.25,95,102.0
3016,D4,233.75,2.25,95,102.0
3017,B3,233.75,2.25,95,102.0
3018,A3,233.75,2.25,95,102.0
3019,G3,233.75,2.25,95,102.0
3020,A4,233.75,0.25,84,102.0
3021,E4,233.75,0.25,84,102.0
3022,C2,233.75,0.25,84,102.0
3023,A4,234.0,0.25,63,102.0
3024,A1,234.25,0.25,95,102.0
3025,A4,234.25,0.25,63,102.0
3026,A4,234.5,0.25,63,102.0
3027,A1,234.75,0.25,95,102.0
3028,A4,234.75,0.25,63,102.0
3029,G1,235.0,0.25,95,102.0
3030,D4,235.0,1.0,95,102.0
3031,B3,235.0,1.0,95,102.0
3032,A3,235.0,1.0,95,102.0
3033,G3,235.0,1.0,95,102.0
3034,A4,235.0,0.25,95,102.0
3035,C2,235.0,0.25,95,102.0
3036,E4,235.25,0.25,95,102.0
3037,F#1,235.25,0.25,79,102.0
3038,A4,235.25,0.25,95,102.0
3039,C#4,235.25,0.25,95,102.0
3040,A4,235.5,0.25,95,102.0
3041,E1,235.5,0.25,63,102.0
3042,A4,235.5,0.25,79,102.0
3043,E-4,235.5,0.25,79,102.0
3044,B-4,235.75,0.25,95,102.0
3045,F#1,235.75,0.25,47,102.0
3046,A4,235.75,0.25,95,102.0
3047,C2,235.75,0.25,95,102.0
3048,B4,236.0,0.25,95,102.0
3049,A1,236.0,0.25,63,102.0
3050,E4,236.0,1.0,95,102.0
3051,C4,236.0,1.0,95,102.0
3052,A3,236.0,1.0,95,102.0
3053,G3,236.0,1.0,95,102.0
3054,E4,236.0,1.75,95,102.0
3055,C4,236.0,1.75,95,102.0
3056,A3,236.0,1.75,95,102.0
3057,G3,236.0,1.75,95,102.0
3058,A4,236.0,0.25,87,102.0
3059,G#3,236.0,0.25,87,102.0
3060,A2,236.0,0.25,87,102.0
3061,E2,236.0,0.25,87,102.0
3062,G4,236.25,0.25,95,102.0
3063,A1,236.25,0.25,95,102.0
3064,A4,236.25,0.25,79,102.0
3065,A4,236.5,0.25,95,102.0
3066,A1,236.5,0.25,63,102.0
3067,A4,236.5,0.25,74,102.0
3068,C3,236.5,0.25,74,102.0
3069,E2,236.5,0.25,74,102.0
3070,E4,236.75,0.25,95,102.0
3071,E1,236.75,0.25,79,102.0
3072,A4,236.75,0.25,87,102.0
3073,E-4,236.75,0.25,87,102.0
3074,G4,237.0,0.25,95,102.0
3075,G1,237.0,0.25,95,102.0
3076,A4,237.0,0.25,95,102.0
3077,E-4,237.0,0.25,95,102.0
3078,E4,237.25,0.25,95,102.0
3079,A1,237.25,0.25,95,102.0
3080,E4,237.25,0.25,95,102.0
3081,C4,237.25,0.25,95,102.0
3082,A3,237.25,0.25,95,102.0
3083,G3,237.25,0.25,95,102.0
3084,A4,237.25,0.25,79,102.0
3085,B2,237.25,0.25,79,102.0
3086,E2,237.25,0.25,79,102.0
3087,F4,237.5,0.25,95,102.0
3088,A4,237.5,0.25,79,102.0
3089,E4,237.5,0.25,79,102.0
3090,D4,237.75,0.25,95,102.0
3091,A1,237.75,0.25,95,102.0
3092,D4,237.75,1.25,95,102.0
3093,B3,237.75,1.25,95,102.0
3094,A3,237.75,1.25,95,102.0
3095,G3,237.75,1.25,95,102.0
3096,D4,237.75,2.25,95,102.0
3097,B3,237.75,2.25,95,102.0
3098,A3,237.75,2.25,95,102.0
3099,G3,237.75,2.25,95,102.0
3100,A4,237.75,0.25,87,102.0
3101,E4,237.75,0.25,87,102.0
3102,F4,238.0,0.25,95,102.0
3103,A4,238.0,0.125,79,102.0
3104,C3,238.0,0.125,79,102.0
3105,E2,238.0,0.125,79,102.0
3106,A2,238.125,0.125,55,102.0
3107,E2,238.125,0.125,55,102.0
3108,D4,238.25,0.25,95,102.0
3109,A1,238.25,0.25,95,102.0
3110,A4,238.25,0.25,79,102.0
3111,B2,238.25,0.25,79,102.0
3112,E2,238.25,0.25,79,102.0
3113,C4,238.5,0.25,95,102.0
3114,A4,238.5,0.25,74,102.0
3115,C3,238.5,0.25,74,102.0
3116,E2,238.5,0.25,74,102.0
3117,D4,238.75,0.25,95,102.0
3118,A1,238.75,0.25,95,102.0
3119,A4,238.75,0.25,79,102.0
3120,B2,238.75,0.25,79,102.0
3121,E2,238.75,0.25,79,102.0
3122,B3,239.0,0.25,95,102.0
3123,G1,239.0,0.25,95,102.0
3124,D4,239.0,1.0,95,102.0
3125,B3,239.0,1.0,95,102.0
3126,A3,239.0,1.0,95,102.0
3127,G3,239.0,1.0,95,102.0
3128,A4,239.0,0.25,79,102.0
3129,A2,239.0,0.25,79,102.0
3130,G3,239.25,0.25,95,102.0
3131,F#1,239.25,0.25,79,102.0
3132,A4,239.25,0.25,83,102.0
3133,C#4,239.25,0.25,83,102.0
3134,C3,239.25,0.25,83,102.0
3135,E2,239.25,0.25,83,102.0
3136,A3,239.5,0.25,95,102.0
3137,E1,239.5,0.25,63,102.0
3138,A4,239.5,0.25,79,102.0
3139,E-4,239.5,0.25,79,102.0
3140,B2,239.5,0.25,79,102.0
3141,E2,239.5,0.25,79,102.0
3142,B3,239.75,0.25,95,102.0
3143,F#1,239.75,0.25,79,102.0
3144,A4,239.75,0.25,79,102.0
3145,A2,239.75,0.25,79,102.0
3146,E2,239.75,0.25,79,102.0
3147,B3,240.0,0.5,95,102.0
3148,A1,240.0,0.25,63,102.0
3149,E4,240.0,1.0,95,102.0
3150,C4,240.0,1.0,95,102.0
3151,A3,240.0,1.0,95,102.0
3152,G3,240.0,1.0,95,102.0
3153,E4,240.0,1.75,95,102.0
3154,C4,240.0,1.75,95,102.0
3155,A3,240.0,1.75,95,102.0
3156,G3,240.0,1.75,95,102.0
3157,A4,240.0,0.25,87,102.0
3158,E-4,240.0,0.25,87,102.0
3159,C2,240.0,0.25,87,102.0
3160,E3,240.0,0.25,87,102.0
3161,A1,240.25,0.25,95,102.0
3162,A4,240.25,0.25,95,102.0
3163,A3,240.5,0.5,95,102.0
3164,A1,240.5,0.25,63,102.0
3165,A4,240.5,0.25,63,102.0
3166,E1,240.75,0.25,79,102.0
3167,A4,240.75,0.25,79,102.0
3168,C2,240.75,0.25,79,102.0
3169,G1,241.0,0.25,95,102.0
3170,A4,241.0,0.25,95,102.0
3171,D2,241.0,0.25,95,102.0
3172,A1,241.25,0.25,95,102.0
3173,E4,241.25,0.25,95,102.0
3174,C4,241.25,0.25,95,102.0
3175,A3,241.25,0.25,95,102.0
3176,G3,241.25,0.25,95,102.0
3177,A4,241.25,0.25,95,102.0
3178,E4,241.25,0.25,95,102.0
3179,A4,241.5,0.25,63,102.0
3180,A1,241.75,0.25,95,102.0
3181,D4,241.75,1.25,95,102.0
3182,B3,241.75,1.25,95,102.0
3183,A3,241.75,1.25,95,102.0
3184,G3,241.75,1.25,95,102.0
3185,D4,241.75,2.25,95,102.0
3186,B3,241.75,2.25,95,102.0
3187,A3,241.75,2.25,95,102.0
3188,G3,241.75,2.25,95,102.0
3189,A4,241.75,0.25,79,102.0
3190,C2,241.75,0.25,79,102.0
3191,D3,242.0,0.25,63,102.0
3192,A4,242.0,0.25,63,102.0
3193,A1,242.25,0.25,95,102.0
3194,A4,242.25,0.25,79,102.0
3195,C2,242.25,0.25,79,102.0
3196,D3,242.5,0.25,95,102.0
3197,A4,242.5,0.25,63,102.0
3198,E3,242.75,0.25,95,102.0
3199,A1,242.75,0.25,95,102.0
3200,A4,242.75,0.25,79,102.0
3201,C2,242.75,0.25,79,102.0
3202,F3,243.0,0.25,95,102.0
3203,G1,243.0,0.25,95,102.0
3204,D4,243.0,1.0,95,102.0
3205,B3,243.0,1.0,95,102.0
3206,A3,243.0,1.0,95,102.0
3207,G3,243.0,1.0,95,102.0
3208,A4,243.0,0.25,95,102.0
3209,D2,243.0,0.25,95,102.0
3210,G3,243.25,0.25,95,102.0
3211,F#1,243.25,0.25,79,102.0
3212,A4,243.25,0.25,95,102.0
3213,C#4,243.25,0.25,95,102.0
3214,A3,243.5,0.25,95,102.0
3215,E1,243.5,0.25,63,102.0
3216,A4,243.5,0.25,84,102.0
3217,E-4,243.5,0.25,84,102.0
3218,C2,243.5,0.25,84,102.0
3219,B3,243.75,0.25,95,102.0
3220,F#1,243.75,0.25,47,102.0
3221,A4,243.75,0.25,95,102.0
3222,B-3,244.0,0.75,95,102.0
3223,G#1,244.0,0.25,95,102.0
3224,E4,244.0,1.0,95,102.0
3225,C4,244.0,1.0,95,102.0
3226,A3,244.0,1.0,95,102.0
3227,G3,244.0,1.0,95,102.0
3228,E4,244.0,1.75,95,102.0
3229,C4,244.0,1.75,95,102.0
3230,A3,244.0,1.75,95,102.0
3231,G3,244.0,1.75,95,102.0
3232,A4,244.0,0.25,84,102.0
3233,E-4,244.0,0.25,84,102.0
3234,C2,244.0,0.25,84,102.0
3235,G#1,244.25,0.25,63,102.0
3236,A4,244.25,0.25,95,102.0
3237,G#1,244.5,0.25,79,102.0
3238,A4,244.5,0.25,63,102.0
3239,E-4,244.75,0.75,95,102.0
3240,G#1,244.75,0.25,79,102.0
3241,A4,244.75,0.25,79,102.0
3242,C2,244.75,0.25,79,102.0
3243,G#1,245.0,0.25,79,102.0
3244,A4,245.0,0.25,95,102.0
3245,D2,245.0,0.25,95,102.0
3246,G#1,245.25,0.25,79,102.0
3247,E4,245.25,0.25,95,102.0
3248,C4,245.25,0.25,95,102.0
3249,A3,245.25,0.25,95,102.0
3250,G3,245.25,0.25,95,102.0
3251,A4,245.25,0.25,95,102.0
3252,E4,245.25,0.25,95,102.0
3253,C4,245.5,0.25,63,102.0
3254,A4,245.5,0.25,63,102.0
3255,E-4,245.75,0.25,95,102.0
3256,G1,245.75,0.25,95,102.0
3257,D4,245.75,1.25,95,102.0
3258,B3,245.75,1.25,95,102.0
3259,A3,245.75,1.25,95,102.0
3260,G3,245.75,1.25,95,102.0
3261,D4,245.75,2.25,95,102.0
3262,B3,245.75,2.25,95,102.0
3263,A3,245.75,2.25,95,102.0
3264,G3,245.75,2.25,95,102.0
3265,A4,245.75,0.25,79,102.0
3266,C2,245.75,0.25,79,102.0
3267,D4,246.0,0.75,95,102.0
3268,A4,246.0,0.25,63,102.0
3269,G1,246.25,0.25,95,102.0
3270,A4,246.25,0.25,79,102.0
3271,C2,246.25,0.25,79,102.0
3272,A4,246.5,0.25,63,102.0
3273,F4,246.75,1.0,95,102.0
3274,G1,246.75,0.25,95,102.0
3275,A4,246.75,0.25,79,102.0
3276,C2,246.75,0.25,79,102.0
3277,G1,247.0,0.25,95,102.0
3278,D4,247.0,1.0,95,102.0
3279,B3,247.0,1.0,95,102.0
3280,A3,247.0,1.0,95,102.0
3281,G3,247.0,1.0,95,102.0
3282,A4,247.0,0.25,95,102.0
3283,D2,247.0,0.25,95,102.0
3284,A4,247.25,0.25,95,102.0
3285,C#4,247.25,0.25,95,102.0
3286,A4,247.5,0.25,84,102.0
3287,E-4,247.5,0.25,84,102.0
3288,C2,247.5,0.25,84,102.0
3289,G4,247.75,0.25,95,102.0
3290,G1,247.75,0.125,79,102.0
3291,A4,247.75,0.25,95,102.0
3292,B-4,248.0,0.5,95,102.0
3293,G#1,248.0,0.25,63,102.0
3294,G4,248.0,1.0,95,102.0
3295,E-4,248.0,1.0,95,102.0
3296,C4,248.0,1.0,95,102.0
3297,B-3,248.0,1.0,95,102.0
3298,G4,248.0,1.75,95,102.0
3299,E-4,248.0,1.75,95,102.0
3300,C4,248.0,1.75,95,102.0
3301,B-3,248.0,1.75,95,102.0
3302,A4,248.0,0.25,84,102.0
3303,E-4,248.0,0.25,84,102.0
3304,C2,248.0,0.25,84,102.0
3305,G#1,248.25,1.0,95,102.0
3306,A4,248.25,0.25,95,102.0
3307,E-5,248.5,0.25,95,102.0
3308,A4,248.5,0.25,63,102.0
3309,C5,248.75,0.25,95,102.0
3310,A4,248.75,0.25,79,102.0
3311,C2,248.75,0.25,79,102.0
3312,F5,249.0,0.75,95,102.0
3313,A4,249.0,0.25,95,102.0
3314,D2,249.0,0.25,95,102.0
3315,G#1,249.25,0.25,79,102.0
3316,G4,249.25,0.25,95,102.0
3317,E-4,249.25,0.25,95,102.0
3318,C4,249.25,0.25,95,102.0
3319,B-3,249.25,0.25,95,102.0
3320,A4,249.25,0.25,95,102.0
3321,E4,249.25,0.25,95,102.0
3322,A4,249.5,0.25,63,102.0
3323,F5,249.75,0.75,95,102.0
3324,C2,249.75,0.75,95,102.0
3325,F4,249.75,1.25,95,102.0
3326,D4,249.75,1.25,95,102.0
3327,C4,249.75,1.25,95,102.0
3328,B-3,249.75,1.25,95,102.0
3329,F4,249.75,2.25,95,102.0
3330,D4,249.75,2.25,95,102.0
3331,C4,249.75,2.25,95,102.0
3332,B-3,249.75,2.25,95,102.0
3333,A4,249.75,0.25,79,102.0
3334,C2,249.75,0.25,79,102.0
3335,A4,250.0,0.25,63,102.0
3336,A4,250.25,0.25,79,102.0
3337,C2,250.25,0.25,79,102.0
3338,E-5,250.5,0.25,47,102.0
3339,C2,250.5,0.25,95,102.0
3340,A4,250.5,0.25,63,102.0
3341,D5,250.75,0.25,95,102.0
3342,G1,250.75,0.25,95,102.0
3343,A4,250.75,0.25,79,102.0
3344,C2,250.75,0.25,79,102.0
3345,E-5,251.0,0.5,95,102.0
3346,B-1,251.0,0.25,79,102.0
3347,F4,251.0,1.0,95,102.0
3348,D4,251.0,1.0,95,102.0
3349,C4,251.0,1.0,95,102.0
3350,B-3,251.0,1.0,95,102.0
3351,A4,251.0,0.25,95,102.0
3352,D2,251.0,0.25,95,102.0
3353,B-1,251.25,0.25,79,102.0
3354,A4,251.25,0.25,95,102.0
3355,C#4,251.25,0.25,95,102.0
3356,E-5,251.5,0.5,95,102.0
3357,G1,251.5,0.25,63,102.0
3358,A4,251.5,0.25,84,102.0
3359,E-4,251.5,0.25,84,102.0
3360,C2,251.5,0.25,84,102.0
3361,F1,251.75,0.25,63,102.0
3362,A4,251.75,0.25,95,102.0
3363,C5,252.0,0.5,95,102.0
3364,F2,252.0,0.25,63,102.0
3365,G4,252.0,1.0,95,102.0
3366,E-4,252.0,1.0,95,102.0
3367,C4,252.0,1.0,95,102.0
3368,B-3,252.0,1.0,95,102.0
3369,G4,252.0,1.75,95,102.0
3370,E-4,252.0,1.75,95,102.0
3371,C4,252.0,1.75,95,102.0
3372,B-3,252.0,1.75,95,102.0
3373,A4,252.0,0.25,84,102.0
3374,E-4,252.0,0.25,84,102.0
3375,C2,252.0,0.25,84,102.0
3376,F2,252.25,0.25,95,102.0
3377,A4,252.25,0.25,95,102.0
3378,G4,252.5,0.5,95,102.0
3379,F2,252.5,0.25,63,102.0
3380,A4,252.5,0.25,63,102.0
3381,F2,252.75,0.25,95,102.0
3382,A4,252.75,0.25,79,102.0
3383,C2,252.75,0.25,79,102.0
3384,F4,253.0,0.5,95,102.0
3385,F2,253.0,0.25,95,102.0
3386,A4,253.0,0.25,95,102.0
3387,D2,253.0,0.25,95,102.0
3388,F2,253.25,0.25,79,102.0
3389,G4,253.25,0.25,95,102.0
3390,E-4,253.25,0.25,95,102.0
3391,C4,253.25,0.25,95,102.0
3392,B-3,253.25,0.25,95,102.0
3393,A4,253.25,0.25,95,102.0
3394,E4,253.25,0.25,95,102.0
3395,B-4,253.5,0.25,95,102.0
3396,F2,253.5,0.25,63,102.0
3397,A4,253.5,0.25,63,102.0
3398,B-4,253.75,0.75,95,102.0
3399,G1,253.75,0.25,95,102.0
3400,F4,253.75,1.25,95,102.0
3401,D4,253.75,1.25,95,102.0
3402,C4,253.75,1.25,95,102.0
3403,B-3,253.75,1.25,95,102.0
3404,F4,253.75,2.25,95,102.0
3405,D4,253.75,2.25,95,102.0
3406,C4,253.75,2.25,95,102.0
3407,B-3,253.75,2.25,95,102.0
3408,A4,253.75,0.25,79,102.0
3409,C2,253.75,0.25,79,102.0
3410,A4,254.0,0.25,63,102.0
3411,G1,254.25,0.25,95,102.0
3412,A4,254.25,0.25,79,102.0
3413,C2,254.25,0.25,79,102.0
3414,F4,254.5,0.25,95,102.0
3415,A4,254.5,0.25,63,102.0
3416,E-4,254.75,0.25,95,102.0
3417,G1,254.75,0.25,95,102.0
3418,A4,254.75,0.25,79,102.0
3419,C2,254.75,0.25,79,102.0
3420,C4,255.0,0.25,95,102.0
3421,G1,255.0,0.75,95,102.0
3422,F4,255.0,1.0,95,102.0
3423,D4,255.0,1.0,95,102.0
3424,C4,255.0,1.0,95,102.0
3425,B-3,255.0,1.0,95,102.0
3426,A4,255.0,0.25,95,102.0
3427,D2,255.0,0.25,95,102.0
3428,E-4,255.25,0.25,95,102.0
3429,A4,255.25,0.25,95,102.0
3430,C#4,255.25,0.25,95,102.0
3431,D4,255.5,0.25,95,102.0
3432,A4,255.5,0.25,84,102.0
3433,E-4,255.5,0.25,84,102.0
3434,C2,255.5,0.25,84,102.0
3435,E-4,255.75,0.25,95,102.0
3436,G1,255.75,0.125,95,102.0
3437,A4,255.75,0.25,95,102.0
3438,C4,256.0,1.0,95,102.0
3439,G#1,256.0,0.25,95,102.0
3440,G4,256.0,1.0,95,102.0
3441,E-4,256.0,1.0,95,102.0
3442,C4,256.0,1.0,95,102.0
3443,G#3,256.0,1.0,95,102.0
3444,G4,256.0,1.75,95,102.0
3445,E-4,256.0,1.75,95,102.0
3446,C4,256.0,1.75,95,102.0
3447,G#3,256.0,1.75,95,102.0
3448,A4,256.0,0.25,87,102.0
3449,E-4,256.0,0.25,87,102.0
3450,C2,256.0,0.25,87,102.0
3451,E3,256.0,0.25,87,102.0
3452,G#1,256.25,0.25,63,102.0
3453,A4,256.25,0.25,95,102.0
3454,G#1,256.5,0.25,95,102.0
3455,A4,256.5,0.25,63,102.0
3456,G#1,256.75,0.25,63,102.0
3457,A4,256.75,0.25,79,102.0
3458,C2,256.75,0.25,79,102.0
3459,A4,257.0,0.25,95,102.0
3460,D2,257.0,0.25,95,102.0
3461,D4,257.25,0.25,95,102.0
3462,E1,257.25,0.25,95,102.0
3463,G4,257.25,0.25,95,102.0
3464,E-4,257.25,0.25,95,102.0
3465,C4,257.25,0.25,95,102.0
3466,G#3,257.25,0.25,95,102.0
3467,A4,257.25,0.25,95,102.0
3468,E4,257.25,0.25,95,102.0
3469,E-4,257.5,0.25,95,102.0
3470,F#1,257.5,0.25,95,102.0
3471,A4,257.5,0.25,63,102.0
3472,F4,257.75,0.25,95,102.0
3473,B-1,257.75,0.25,95,102.0
3474,F4,257.75,1.25,95,102.0
3475,D4,257.75,1.25,95,102.0
3476,B-3,257.75,1.25,95,102.0
3477,G3,257.75,1.25,95,102.0
3478,F4,257.75,2.25,95,102.0
3479,D4,257.75,2.25,95,102.0
3480,B-3,257.75,2.25,95,102.0
3481,G3,257.75,2.25,95,102.0
3482,A4,257.75,0.25,79,102.0
3483,C2,257.75,0.25,79,102.0
3484,G4,258.0,0.25,95,102.0
3485,A4,258.0,0.25,63,102.0
3486,G#4,258.25,0.25,95,102.0
3487,B-1,258.25,0.25,95,102.0
3488,A4,258.25,0.25,79,102.0
3489,C2,258.25,0.25,79,102.0
3490,F4,258.5,0.25,95,102.0
3491,A4,258.5,0.25,63,102.0
3492,G4,258.75,0.25,95,102.0
3493,B-1,258.75,0.25,95,102.0
3494,A4,258.75,0.25,79,102.0
3495,C2,258.75,0.25,79,102.0
3496,G#4,259.0,0.25,95,102.0
3497,B-1,259.0,1.0,95,102.0
3498,F4,259.0,1.0,95,102.0
3499,D4,259.0,1.0,95,102.0
3500,B-3,259.0,1.0,95,102.0
3501,G3,259.0,1.0,95,102.0
3502,A4,259.0,0.25,95,102.0
3503,D2,259.0,0.25,95,102.0
3504,B-4,259.25,0.25,95,102.0
3505,A4,259.25,0.25,95,102.0
3506,C#4,259.25,0.25,95,102.0
3507,A4,259.5,0.25,95,102.0
3508,A4,259.5,0.25,84,102.0
3509,E-4,259.5,0.25,84,102.0
3510,C2,259.5,0.25,84,102.0
3511,G#4,259.75,0.25,95,102.0
3512,A4,259.75,0.25,95,102.0
3513,C#4,260.0,1.5,95,102.0
3514,A1,260.0,0.25,63,102.0
3515,G4,260.0,1.0,95,102.0
3516,E-4,260.0,1.0,95,102.0
3517,C4,260.0,1.0,95,102.0
3518,G#3,260.0,1.0,95,102.0
3519,G4,260.0,1.75,95,102.0
3520,E-4,260.0,1.75,95,102.0
3521,C4,260.0,1.75,95,102.0
3522,G#3,260.0,1.75,95,102.0
3523,A4,260.0,0.25,84,102.0
3524,E-4,260.0,0.25,84,102.0
3525,C2,260.0,0.25,84,102.0
3526,A1,260.25,0.25,95,102.0
3527,A4,260.25,0.25,95,102.0
3528,A1,260.5,0.25,63,102.0
3529,A4,260.5,0.25,63,102.0
3530,E1,260.75,0.25,79,102.0
3531,A4,260.75,0.25,79,102.0
3532,C2,260.75,0.25,79,102.0
3533,G1,261.0,0.25,95,102.0
3534,A4,261.0,0.25,95,102.0
3535,D2,261.0,0.25,95,102.0
3536,A1,261.25,0.25,95,102.0
3537,G4,261.25,0.25,95,102.0
3538,E-4,261.25,0.25,95,102.0
3539,C4,261.25,0.25,95,102.0
3540,G#3,261.25,0.25,95,102.0
3541,A4,261.25,0.25,95,102.0
3542,E4,261.25,0.25,95,102.0
3543,F#4,261.5,0.25,95,102.0
3544,A4,261.5,0.25,63,102.0
3545,F#4,261.75,1.0,95,102.0
3546,G#1,261.75,0.25,95,102.0
3547,F4,261.75,1.25,95,102.0
3548,D4,261.75,1.25,95,102.0
3549,C4,261.75,1.25,95,102.0
3550,B-3,261.75,1.25,95,102.0
3551,F4,261.75,2.25,95,102.0
3552,D4,261.75,2.25,95,102.0
3553,C4,261.75,2.25,95,102.0
3554,B-3,261.75,2.25,95,102.0
3555,A4,261.75,0.25,79,102.0
3556,C2,261.75,0.25,79,102.0
3557,A4,262.0,0.25,63,102.0
3558,G#1,262.25,0.25,95,102.0
3559,A4,262.25,0.25,79,102.0
3560,C2,262.25,0.25,79,102.0
3561,A4,262.5,0.25,63,102.0
3562,G#1,262.75,0.25,95,102.0
3563,A4,262.75,0.25,79,102.0
3564,C2,262.75,0.25,79,102.0
3565,G1,263.0,0.25,95,102.0
3566,F4,263.0,1.0,95,102.0
3567,D4,263.0,1.0,95,102.0
3568,C4,263.0,1.0,95,102.0
3569,B-3,263.0,1.0,95,102.0
3570,A4,263.0,0.25,95,102.0
3571,D2,263.0,0.25,95,102.0
3572,F#1,263.25,0.25,79,102.0
3573,A4,263.25,0.25,95,102.0
3574,C#4,263.25,0.25,95,102.0
3575,E1,263.5,0.25,63,102.0
3576,A4,263.5,0.25,84,102.0
3577,E-4,263.5,0.25,84,102.0
3578,C2,263.5,0.25,84,102.0
3579,F#1,263.75,0.25,79,102.0
3580,A4,263.75,0.25,95,102.0
3581,F#4,264.0,0.5,95,102.0
3582,A1,264.0,0.25,63,102.0
3583,G#4,264.0,1.0,95,102.0
3584,E4,264.0,1.0,95,102.0
3585,C#4,264.0,1.0,95,102.0
3586,B3,264.0,1.0,95,102.0
3587,G#4,264.0,1.75,95,102.0
3588,E4,264.0,1.75,95,102.0
3589,C#4,264.0,1.75,95,102.0
3590,B3,264.0,1.75,95,102.0
3591,A4,264.0,0.25,84,102.0
3592,E-4,264.0,0.25,84,102.0
3593,C2,264.0,0.25,84,102.0
3594,A1,264.25,0.25,95,102.0
3595,A4,264.25,0.25,95,102.0
3596,C#5,264.5,0.25,95,102.0
3597,A1,264.5,0.25,63,102.0
3598,A4,264.5,0.25,63,102.0
3599,B4,264.75,0.25,95,102.0
3600,E1,264.75,0.25,79,102.0
3601,A4,264.75,0.25,79,102.0
3602,C2,264.75,0.25,79,102.0
3603,C#5,265.0,0.25,95,102.0
3604,G1,265.0,0.25,95,102.0
3605,A4,265.0,0.25,95,102.0
3606,D2,265.0,0.25,95,102.0
3607,E5,265.25,0.25,95,102.0
3608,A1,265.25,0.25,95,102.0
3609,G#4,265.25,0.25,95,102.0
3610,E4,265.25,0.25,95,102.0
3611,C#4,265.25,0.25,95,102.0
3612,B3,265.25,0.25,95,102.0
3613,A4,265.25,0.25,95,102.0
3614,E4,265.25,0.25,95,102.0
3615,C#5,265.5,0.5,95,102.0
3616,A4,265.5,0.25,63,102.0
3617,G#1,265.75,0.25,95,102.0
3618,F#4,265.75,1.25,95,102.0
3619,E-4,265.75,1.25,95,102.0
3620,C#4,265.75,1.25,95,102.0
3621,B3,265.75,1.25,95,102.0
3622,F#4,265.75,2.25,95,102.0
3623,E-4,265.75,2.25,95,102.0
3624,C#4,265.75,2.25,95,102.0
3625,B3,265.75,2.25,95,102.0
3626,A4,265.75,0.25,79,102.0
3627,C2,265.75,0.25,79,102.0
3628,E5,266.0,0.75,95,102.0
3629,A4,266.0,0.25,63,102.0
3630,G#1,266.25,0.25,95,102.0
3631,A4,266.25,0.25,79,102.0
3632,C2,266.25,0.25,79,102.0
3633,A4,266.5,0.25,63,102.0
3634,E5,266.75,0.25,95,102.0
3635,G#1,266.75,0.25,95,102.0
3636,A4,266.75,0.25,79,102.0
3637,C2,266.75,0.25,79,102.0
3638,E-5,267.0,0.25,95,102.0
3639,G1,267.0,0.25,95,102.0
3640,F#4,267.0,1.0,95,102.0
3641,E-4,267.0,1.0,95,102.0
3642,C#4,267.0,1.0,95,102.0
3643,B3,267.0,1.0,95,102.0
3644,A4,267.0,0.25,95,102.0
3645,D2,267.0,0.25,95,102.0
3646,E5,267.25,0.25,95,102.0
3647,F#1,267.25,0.25,79,102.0
3648,A4,267.25,0.25,95,102.0
3649,C#4,267.25,0.25,95,102.0
3650,F#5,267.5,0.25,95,102.0
3651,E1,267.5,0.25,63,102.0
3652,A4,267.5,0.25,84,102.0
3653,E-4,267.5,0.25,84,102.0
3654,C2,267.5,0.25,84,102.0
3655,A5,267.75,0.25,95,102.0
3656,F#1,267.75,0.25,79,102.0
3657,A4,267.75,0.25,95,102.0
3658,A5,268.0,0.25,95,102.0
3659,F#2,268.0,0.25,63,102.0
3660,G#4,268.0,1.0,95,102.0
3661,E4,268.0,1.0,95,102.0
3662,C#4,268.0,1.0,95,102.0
3663,B3,268.0,1.0,95,102.0
3664,G#4,268.0,1.75,95,102.0
3665,E4,268.0,1.75,95,102.0
3666,C#4,268.0,1.75,95,102.0
3667,B3,268.0,1.75,95,102.0
3668,A4,268.0,0.25,84,102.0
3669,E-4,268.0,0.25,84,102.0
3670,C2,268.0,0.25,84,102.0
3671,B5,268.25,0.25,95,102.0
3672,F#2,268.25,0.25,95,102.0
3673,A4,268.25,0.25,95,102.0
3674,G#5,268.5,0.5,95,102.0
3675,E2,268.5,0.25,63,102.0
3676,A4,268.5,0.25,63,102.0
3677,C#2,268.75,0.25,95,102.0
3678,A4,268.75,0.25,79,102.0
3679,C2,268.75,0.25,79,102.0
3680,G#5,269.0,0.25,95,102.0
3681,B1,269.0,0.25,95,102.0
3682,A4,269.0,0.25,95,102.0
3683,D2,269.0,0.25,95,102.0
3684,F#5,269.25,0.5,95,102.0
3685,A1,269.25,0.25,95,102.0
3686,G#4,269.25,0.25,95,102.0
3687,E4,269.25,0.25,95,102.0
3688,C#4,269.25,0.25,95,102.0
3689,B3,269.25,0.25,95,102.0
3690,A4,269.25,0.25,95,102.0
3691,E4,269.25,0.25,95,102.0
3692,A4,269.5,0.25,63,102.0
3693,C#5,269.75,0.25,95,102.0
3694,G1,269.75,0.25,95,102.0
3695,F#4,269.75,1.25,95,102.0
3696,E-4,269.75,1.25,95,102.0
3697,C#4,269.75,1.25,95,102.0
3698,B3,269.75,1.25,95,102.0
3699,F#4,269.75,2.25,95,102.0
3700,E-4,269.75,2.25,95,102.0
3701,C#4,269.75,2.25,95,102.0
3702,B3,269.75,2.25,95,102.0
3703,A4,269.75,0.25,79,102.0
3704,C2,269.75,0.25,79,102.0
3705,B4,270.0,0.5,95,102.0
3706,A4,270.0,0.25,63,102.0
3707,G1,270.25,0.25,95,102.0
3708,A4,270.25,0.25,79,102.0
3709,C2,270.25,0.25,79,102.0
3710,G#4,270.5,0.25,95,102.0
3711,A4,270.5,0.25,63,102.0
3712,G#4,270.75,0.5,95,102.0
3713,G1,270.75,0.25,95,102.0
3714,A4,270.75,0.25,79,102.0
3715,C2,270.75,0.25,79,102.0
3716,G1,271.0,0.25,95,102.0
3717,F#4,271.0,1.0,95,102.0
3718,E-4,271.0,1.0,95,102.0
3719,C#4,271.0,1.0,95,102.0
3720,B3,271.0,1.0,95,102.0
3721,A4,271.0,0.25,95,102.0
3722,D2,271.0,0.25,95,102.0
3723,B4,271.25,0.25,95,102.0
3724,F#1,271.25,0.25,79,102.0
3725,A4,271.25,0.25,95,102.0
3726,C#4,271.25,0.25,95,102.0
3727,A4,271.5,0.5,95,102.0
3728,E1,271.5,0.25,63,102.0
3729,A4,271.5,0.25,84,102.0
3730,E-4,271.5,0.25,84,102.0
3731,C2,271.5,0.25,84,102.0
3732,F#1,271.75,0.25,79,102.0
3733,A4,271.75,0.25,95,102.0
3734,F#4,272.0,0.5,95,102.0
3735,A1,272.0,0.25,63,102.0
3736,G#4,272.0,1.0,95,102.0
3737,E4,272.0,1.0,95,102.0
3738,C#4,272.0,1.0,95,102.0
3739,A3,272.0,1.0,95,102.0
3740,G#4,272.0,1.75,95,102.0
3741,E4,272.0,1.75,95,102.0
3742,C#4,272.0,1.75,95,102.0
3743,A3,272.0,1.75,95,102.0
3744,A4,272.0,0.25,87,102.0
3745,E-4,272.0,0.25,87,102.0
3746,C2,272.0,0.25,87,102.0
3747,E3,272.0,0.25,87,102.0
3748,A1,272.25,0.25,95,102.0
3749,A4,272.25,0.25,95,102.0
3750,G#4,272.5,0.25,95,102.0
3751,A1,272.5,0.25,63,102.0
3752,A4,272.5,0.25,63,102.0
3753,C#4,272.75,0.5,95,102.0
3754,E1,272.75,0.25,79,102.0
3755,A4,272.75,0.25,79,102.0
3756,C2,272.75,0.25,79,102.0
3757,G1,273.0,0.25,95,102.0
3758,A4,273.0,0.25,95,102.0
3759,D2,273.0,0.25,95,102.0
3760,F#4,273.25,0.5,95,102.0
3761,A1,273.25,0.25,95,102.0
3762,G#4,273.25,0.25,95,102.0
3763,E4,273.25,0.25,95,102.0
3764,C#4,273.25,0.25,95,102.0
3765,A3,273.25,0.25,95,102.0
3766,A4,273.25,0.25,95,102.0
3767,E4,273.25,0.25,95,102.0
3768,A4,273.5,0.25,63,102.0
3769,C#4,273.75,2.0,95,102.0
3770,B1,273.75,0.25,95,102.0
3771,F#4,273.75,1.25,95,102.0
3772,E-4,273.75,1.25,95,102.0
3773,B3,273.75,1.25,95,102.0
3774,G#3,273.75,1.25,95,102.0
3775,F#4,273.75,2.25,95,102.0
3776,E-4,273.75,2.25,95,102.0
3777,B3,273.75,2.25,95,102.0
3778,G#3,273.75,2.25,95,102.0
3779,A4,273.75,0.25,79,102.0
3780,C2,273.75,0.25,79,102.0
3781,A4,274.0,0.25,63,102.0
3782,B1,274.25,0.25,95,102.0
3783,A4,274.25,0.25,79,102.0
3784,C2,274.25,0.25,79,102.0
3785,A4,274.5,0.25,63,102.0
3786,B1,274.75,0.25,95,102.0
3787,A4,274.75,0.25,79,102.0
3788,C2,274.75,0.25,79,102.0
3789,B1,275.0,1.0,95,102.0
3790,F#4,275.0,1.0,95,102.0
3791,E-4,275.0,1.0,95,102.0
3792,B3,275.0,1.0,95,102.0
3793,G#3,275.0,1.0,95,102.0
3794,A4,275.0,0.25,95,102.0
3795,D2,275.0,0.25,95,102.0
3796,A4,275.25,0.25,95,102.0
3797,C#4,275.25,0.25,95,102.0
3798,A4,275.5,0.25,84,102.0
3799,E-4,275.5,0.25,84,102.0
3800,C2,275.5,0.25,84,102.0
3801,A4,275.75,0.25,95,102.0
3802,A1,276.0,0.25,63,102.0
3803,G#4,276.0,1.0,95,102.0
3804,E4,276.0,1.0,95,102.0
3805,C#4,276.0,1.0,95,102.0
3806,A3,276.0,1.0,95,102.0
3807,G#4,276.0,1.75,95,102.0
3808,E4,276.0,1.75,95,102.0
3809,C#4,276.0,1.75,95,102.0
3810,A3,276.0,1.75,95,102.0
3811,A4,276.0,0.25,84,102.0
3812,E-4,276.0,0.25,84,102.0
3813,C2,276.0,0.25,84,102.0
3814,A1,276.25,0.25,95,102.0
3815,A4,276.25,0.25,95,102.0
3816,C4,276.5,0.25,63,102.0
3817,A1,276.5,0.25,63,102.0
3818,A4,276.5,0.25,63,102.0
3819,F4,276.75,0.25,95,102.0
3820,E1,276.75,0.25,79,102.0
3821,A4,276.75,0.25,79,102.0
3822,C2,276.75,0.25,79,102.0
3823,E4,277.0,0.25,95,102.0
3824,G1,277.0,0.25,95,102.0
3825,A4,277.0,0.25,95,102.0
3826,D2,277.0,0.25,95,102.0
3827,F4,277.25,0.25,95,102.0
3828,A1,277.25,0.25,95,102.0
3829,G#4,277.25,0.25,95,102.0
3830,E4,277.25,0.25,95,102.0
3831,C#4,277.25,0.25,95,102.0
3832,A3,277.25,0.25,95,102.0
3833,A4,277.25,0.25,95,102.0
3834,E4,277.25,0.25,95,102.0
3835,A4,277.5,0.25,95,102.0
3836,A4,277.5,0.25,63,102.0
3837,C5,277.75,0.25,95,102.0
3838,A1,277.75,0.25,95,102.0
3839,F#4,277.75,1.25,95,102.0
3840,E-4,277.75,1.25,95,102.0
3841,C#4,277.75,1.25,95,102.0
3842,B3,277.75,1.25,95,102.0
3843,F#4,277.75,2.25,95,102.0
3844,E-4,277.75,2.25,95,102.0
3845,C#4,277.75,2.25,95,102.0
3846,B3,277.75,2.25,95,102.0
3847,A4,277.75,0.25,79,102.0
3848,C2,277.75,0.25,79,102.0
3849,A4,278.0,0.5,95,102.0
3850,A4,278.0,0.25,63,102.0
3851,A1,278.25,0.25,95,102.0
3852,A4,278.25,0.25,79,102.0
3853,C2,278.25,0.25,79,102.0
3854,D5,278.5,0.5,95,102.0
3855,A4,278.5,0.25,63,102.0
3856,A1,278.75,0.25,95,102.0
3857,A4,278.75,0.25,79,102.0
3858,C2,278.75,0.25,79,102.0
3859,D5,279.0,0.5,95,102.0
3860,G1,279.0,0.25,95,102.0
3861,F#4,279.0,1.0,95,102.0
3862,E-4,279.0,1.0,95,102.0
3863,C#4,279.0,1.0,95,102.0
3864,B3,279.0,1.0,95,102.0
3865,A4,279.0,0.25,95,102.0
3866,D2,279.0,0.25,95,102.0
3867,F#1,279.25,0.25,79,102.0
3868,A4,279.25,0.25,95,102.0
3869,C#4,279.25,0.25,95,102.0
3870,E5,279.5,0.5,95,102.0
3871,E1,279.5,0.25,63,102.0
3872,A4,279.5,0.25,84,102.0
3873,E-4,279.5,0.25,84,102.0
3874,C2,279.5,0.25,84,102.0
3875,F#1,279.75,0.25,79,102.0
3876,A4,279.75,0.25,95,102.0
3877,G4,280.0,0.5,95,102.0
3878,A1,280.0,0.25,63,102.0
3879,E4,280.0,1.0,95,102.0
3880,C4,280.0,1.0,95,102.0
3881,A3,280.0,1.0,95,102.0
3882,G3,280.0,1.0,95,102.0
3883,E4,280.0,1.75,95,102.0
3884,C4,280.0,1.75,95,102.0
3885,A3,280.0,1.75,95,102.0
3886,G3,280.0,1.75,95,102.0
3887,A4,280.0,0.25,84,102.0
3888,E-4,280.0,0.25,84,102.0
3889,C2,280.0,0.25,84,102.0
3890,A1,280.25,0.25,95,102.0
3891,A4,280.25,0.25,95,102.0
3892,G4,280.5,0.25,95,102.0
3893,A1,280.5,0.25,63,102.0
3894,A4,280.5,0.25,63,102.0
3895,C5,280.75,0.75,95,102.0
3896,E1,280.75,0.25,79,102.0
3897,A4,280.75,0.25,79,102.0
3898,C2,280.75,0.25,79,102.0
3899,G1,281.0,0.25,95,102.0
3900,A4,281.0,0.25,95,102.0
3901,D2,281.0,0.25,95,102.0
3902,A1,281.25,0.25,95,102.0
3903,E4,281.25,0.25,95,102.0
3904,C4,281.25,0.25,95,102.0
3905,A3,281.25,0.25,95,102.0
3906,G3,281.25,0.25,95,102.0
3907,A4,281.25,0.25,95,102.0
3908,E4,281.25,0.25,95,102.0
3909,C5,281.5,0.125,95,102.0
3910,A4,281.5,0.25,63,102.0
3911,A4,281.625,0.125,95,102.0
3912,G4,281.75,0.25,95,102.0
3913,A1,281.75,0.25,95,102.0
3914,D4,281.75,1.25,95,102.0
3915,B3,281.75,1.25,95,102.0
3916,A3,281.75,1.25,95,102.0
3917,G3,281.75,1.25,95,102.0
3918,D4,281.75,2.25,95,102.0
3919,B3,281.75,2.25,95,102.0
3920,A3,281.75,2.25,95,102.0
3921,G3,281.75,2.25,95,102.0
3922,A4,281.75,0.25,79,102.0
3923,C2,281.75,0.25,79,102.0
3924,E4,282.0,0.5,79,102.0
3925,A4,282.0,0.25,63,102.0
3926,A1,282.25,0.25,95,102.0
3927,A4,282.25,0.25,79,102.0
3928,C2,282.25,0.25,79,102.0
3929,E4,282.5,0.25,95,102.0
3930,A4,282.5,0.25,63,102.0
3931,G4,282.75,0.5,63,102.0
3932,A1,282.75,0.25,95,102.0
3933,A4,282.75,0.25,79,102.0
3934,C2,282.75,0.25,79,102.0
3935,G1,283.0,0.25,95,102.0
3936,D4,283.0,1.0,95,102.0
3937,B3,283.0,1.0,95,102.0
3938,A3,283.0,1.0,95,102.0
3939,G3,283.0,1.0,95,102.0
3940,A4,283.0,0.25,95,102.0
3941,D2,283.0,0.25,95,102.0
3942,F4,283.25,0.5,63,102.0
3943,F#1,283.25,0.25,79,102.0
3944,A4,283.25,0.25,95,102.0
3945,C#4,283.25,0.25,95,102.0
3946,E1,283.5,0.25,63,102.0
3947,A4,283.5,0.25,84,102.0
3948,E-4,283.5,0.25,84,102.0
3949,C2,283.5,0.25,84,102.0
3950,F#1,283.75,0.25,47,102.0
3951,A4,283.75,0.25,95,102.0
3952,A1,284.0,0.25,63,102.0
3953,E4,284.0,1.0,95,102.0
3954,C4,284.0,1.0,95,102.0
3955,A3,284.0,1.0,95,102.0
3956,G3,284.0,1.0,95,102.0
3957,E4,284.0,1.75,95,102.0
3958,C4,284.0,1.75,95,102.0
3959,A3,284.0,1.75,95,102.0
3960,G3,284.0,1.75,95,102.0
3961,A4,284.0,0.25,84,102.0
3962,E-4,284.0,0.25,84,102.0
3963,C2,284.0,0.25,84,102.0
3964,A1,284.25,0.25,95,102.0
3965,A4,284.25,0.25,95,102.0
3966,A1,284.5,0.25,63,102.0
3967,A4,284.5,0.25,63,102.0
3968,E1,284.75,0.25,79,102.0
3969,A4,284.75,0.25,79,102.0
3970,C2,284.75,0.25,79,102.0
3971,G1,285.0,0.25,95,102.0
3972,A4,285.0,0.25,95,102.0
3973,D2,285.0,0.25,95,102.0
3974,A1,285.25,0.25,95,102.0
3975,E4,285.25,0.25,95,102.0
3976,C4,285.25,0.25,95,102.0
3977,A3,285.25,0.25,95,102.0
3978,G3,285.25,0.25,95,102.0
3979,A4,285.25,0.25,95,102.0
3980,E4,285.25,0.25,95,102.0
3981,A4,285.5,0.25,63,102.0
3982,A1,285.75,0.25,95,102.0
3983,D4,285.75,1.25,95,102.0
3984,B3,285.75,1.25,95,102.0
3985,A3,285.75,1.25,95,102.0
3986,G3,285.75,1.25,95,102.0
3987,D4,285.75,2.25,95,102.0
3988,B3,285.75,2.25,95,102.0
3989,A3,285.75,2.25,95,102.0
3990,G3,285.75,2.25,95,102.0
3991,A4,285.75,0.25,79,102.0
3992,C2,285.75,0.25,79,102.0
3993,A4,286.0,0.25,63,102.0
3994,A1,286.25,0.25,95,102.0
3995,A4,286.25,0.25,79,102.0
3996,C2,286.25,0.25,79,102.0
3997,A4,286.5,0.25,63,102.0
3998,A1,286.75,0.25,95,102.0
3999,A4,286.75,0.25,79,102.0
4000,C2,286.75,0.25,79,102.0
4001,G1,287.0,0.25,95,102.0
4002,D4,287.0,1.0,95,102.0
4003,B3,287.0,1.0,95,102.0
4004,A3,287.0,1.0,95,102.0
4005,G3,287.0,1.0,95,102.0
4006,A4,287.0,0.25,95,102.0
4007,D2,287.0,0.25,95,102.0
4008,F#1,287.25,0.25,79,102.0
4009,A4,287.25,0.25,95,102.0
4010,C#4,287.25,0.25,95,102.0
4011,E1,287.5,0.25,63,102.0
4012,A4,287.5,0.25,84,102.0
4013,E-4,287.5,0.25,84,102.0
4014,C2,287.5,0.25,84,102.0
4015,F#1,287.75,0.25,79,102.0
4016,A4,287.75,0.25,95,102.0
4017,A1,288.0,0.25,63,102.0
4018,E4,288.0,1.0,95,102.0
4019,C4,288.0,1.0,95,102.0
4020,A3,288.0,1.0,95,102.0
4021,G3,288.0,1.0,95,102.0
4022,E4,288.0,1.75,95,102.0
4023,C4,288.0,1.75,95,102.0
4024,A3,288.0,1.75,95,102.0
4025,G3,288.0,1.75,95,102.0
4026,A4,288.0,0.25,87,102.0
4027,E-4,288.0,0.25,87,102.0
4028,C2,288.0,0.25,87,102.0
4029,E3,288.0,0.25,87,102.0
4030,C4,288.25,0.125,95,102.0
4031,A1,288.25,0.25,95,102.0
4032,A4,288.25,0.25,95,102.0
4033,D4,288.5,0.125,95,102.0
4034,A1,288.5,0.25,63,102.0
4035,A4,288.5,0.25,63,102.0
4036,F4,288.75,0.125,95,102.0
4037,E1,288.75,0.25,79,102.0
4038,A4,288.75,0.25,79,102.0
4039,C2,288.75,0.25,79,102.0
4040,E4,289.0,0.125,95,102.0
4041,G1,289.0,0.25,95,102.0
4042,A4,289.0,0.25,95,102.0
4043,D2,289.0,0.25,95,102.0
4044,F4,289.25,0.125,95,102.0
4045,A1,289.25,0.25,95,102.0
4046,E4,289.25,0.25,95,102.0
4047,C4,289.25,0.25,95,102.0
4048,A3,289.25,0.25,95,102.0
4049,G3,289.25,0.25,95,102.0
4050,A4,289.25,0.25,95,102.0
4051,E4,289.25,0.25,95,102.0
4052,G4,289.5,0.125,95,102.0
4053,A4,289.5,0.25,63,102.0
4054,A4,289.75,0.125,95,102.0
4055,A1,289.75,0.25,95,102.0
4056,D4,289.75,1.25,95,102.0
4057,B3,289.75,1.25,95,102.0
4058,A3,289.75,1.25,95,102.0
4059,G3,289.75,1.25,95,102.0
4060,D4,289.75,2.25,95,102.0
4061,B3,289.75,2.25,95,102.0
4062,A3,289.75,2.25,95,102.0
4063,G3,289.75,2.25,95,102.0
4064,A4,289.75,0.25,79,102.0
4065,C2,289.75,0.25,79,102.0
4066,B4,290.0,0.125,95,102.0
4067,A4,290.0,0.25,63,102.0
4068,C5,290.25,0.125,95,102.0
4069,A1,290.25,0.25,95,102.0
4070,A4,290.25,0.25,79,102.0
4071,C2,290.25,0.25,79,102.0
4072,D5,290.5,0.125,95,102.0
4073,A4,290.5,0.25,63,102.0
4074,E5,290.75,0.125,95,102.0
4075,A1,290.75,0.25,95,102.0
4076,A4,290.75,0.25,79,102.0
4077,C2,290.75,0.25,79,102.0
4078,F5,291.0,0.125,95,102.0
4079,G1,291.0,0.25,95,102.0
4080,D4,291.0,1.0,95,102.0
4081,B3,291.0,1.0,95,102.0
4082,A3,291.0,1.0,95,102.0
4083,G3,291.0,1.0,95,102.0
4084,A4,291.0,0.25,95,102.0
4085,D2,291.0,0.25,95,102.0
4086,G5,291.25,0.125,95,102.0
4087,F#1,291.25,0.25,79,102.0
4088,A4,291.25,0.25,95,102.0
4089,C#4,291.25,0.25,95,102.0
4090,F5,291.5,0.125,95,102.0
4091,E1,291.5,0.25,63,102.0
4092,A4,291.5,0.25,84,102.0
4093,E-4,291.5,0.25,84,102.0
4094,C2,291.5,0.25,84,102.0
4095,C#5,291.75,0.25,95,102.0
4096,F#1,291.75,0.25,47,102.0
4097,A4,291.75,0.25,95,102.0
4098,C#5,292.0,0.125,95,102.0
4099,G#1,292.0,0.25,95,102.0
4100,E4,292.0,1.0,95,102.0
4101,C4,292.0,1.0,95,102.0
4102,A3,292.0,1.0,95,102.0
4103,G3,292.0,1.0,95,102.0
4104,E4,292.0,1.75,95,102.0
4105,C4,292.0,1.75,95,102.0
4106,A3,292.0,1.75,95,102.0
4107,G3,292.0,1.75,95,102.0
4108,A4,292.0,0.25,84,102.0
4109,E-4,292.0,0.25,84,102.0
4110,C2,292.0,0.25,84,102.0
4111,E-5,292.25,0.25,95,102.0
4112,G#1,292.25,0.25,63,102.0
4113,A4,292.25,0.25,95,102.0
4114,C5,292.5,0.5,95,102.0
4115,G#1,292.5,0.25,79,102.0
4116,A4,292.5,0.25,63,102.0
4117,G#1,292.75,0.25,79,102.0
4118,A4,292.75,0.25,79,102.0
4119,C2,292.75,0.25,79,102.0
4120,E-5,293.0,0.25,95,102.0
4121,G#1,293.0,0.25,79,102.0
4122,A4,293.0,0.25,95,102.0
4123,D2,293.0,0.25,95,102.0
4124,B-4,293.25,0.25,95,102.0
4125,G#1,293.25,0.25,79,102.0
4126,E4,293.25,0.25,95,102.0
4127,C4,293.25,0.25,95,102.0
4128,A3,293.25,0.25,95,102.0
4129,G3,293.25,0.25,95,102.0
4130,A4,293.25,0.25,95,102.0
4131,E4,293.25,0.25,95,102.0
4132,G#4,293.5,0.5,95,102.0
4133,A4,293.5,0.25,63,102.0
4134,G1,293.75,0.25,95,102.0
4135,D4,293.75,1.25,95,102.0
4136,B3,293.75,1.25,95,102.0
4137,A3,293.75,1.25,95,102.0
4138,G3,293.75,1.25,95,102.0
4139,D4,293.75,2.25,95,102.0
4140,B3,293.75,2.25,95,102.0
4141,A3,293.75,2.25,95,102.0
4142,G3,293.75,2.25,95,102.0
4143,A4,293.75,0.25,79,102.0
4144,C2,293.75,0.25,79,102.0
4145,G4,294.0,0.5,95,102.0
4146,A4,294.0,0.25,63,102.0
4147,G1,294.25,0.25,95,102.0
4148,A4,294.25,0.25,79,102.0
4149,C2,294.25,0.25,79,102.0
4150,B-4,294.5,0.25,95,102.0
4151,A4,294.5,0.25,63,102.0
4152,G4,294.75,0.25,95,102.0
4153,G1,294.75,0.25,95,102.0
4154,A4,294.75,0.25,79,102.0
4155,C2,294.75,0.25,79,102.0
4156,F4,295.0,0.5,95,102.0
4157,G1,295.0,0.25,95,102.0
4158,D4,295.0,1.0,95,102.0
4159,B3,295.0,1.0,95,102.0
4160,A3,295.0,1.0,95,102.0
4161,G3,295.0,1.0,95,102.0
4162,A4,295.0,0.25,95,102.0
4163,D2,295.0,0.25,95,102.0
4164,A4,295.25,0.25,95,102.0
4165,C#4,295.25,0.25,95,102.0
4166,A4,295.5,0.25,84,102.0
4167,E-4,295.5,0.25,84,102.0
4168,C2,295.5,0.25,84,102.0
4169,G1,295.75,0.125,79,102.0
4170,A4,295.75,0.25,95,102.0
4171,E-4,296.0,0.5,95,102.0
4172,G#1,296.0,0.25,63,102.0
4173,G4,296.0,1.0,95,102.0
4174,E-4,296.0,1.0,95,102.0
4175,C4,296.0,1.0,95,102.0
4176,B-3,296.0,1.0,95,102.0
4177,G4,296.0,1.75,95,102.0
4178,E-4,296.0,1.75,95,102.0
4179,C4,296.0,1.75,95,102.0
4180,B-3,296.0,1.75,95,102.0
4181,A4,296.0,0.25,84,102.0
4182,E-4,296.0,0.25,84,102.0
4183,C2,296.0,0.25,84,102.0
4184,G#1,296.25,1.0,95,102.0
4185,A4,296.25,0.25,95,102.0
4186,A4,296.5,0.25,63,102.0
4187,G4,296.75,0.25,95,102.0
4188,A4,296.75,0.25,79,102.0
4189,C2,296.75,0.25,79,102.0
4190,G#4,297.0,0.5,95,102.0
4191,A4,297.0,0.25,95,102.0
4192,D2,297.0,0.25,95,102.0
4193,G#1,297.25,0.25,79,102.0
4194,G4,297.25,0.25,95,102.0
4195,E-4,297.25,0.25,95,102.0
4196,C4,297.25,0.25,95,102.0
4197,B-3,297.25,0.25,95,102.0
4198,A4,297.25,0.25,95,102.0
4199,E4,297.25,0.25,95,102.0
4200,A4,297.5,0.25,63,102.0
4201,C2,297.75,0.75,95,102.0
4202,F4,297.75,1.25,95,102.0
4203,D4,297.75,1.25,95,102.0
4204,C4,297.75,1.25,95,102.0
4205,B-3,297.75,1.25,95,102.0
4206,F4,297.75,2.25,95,102.0
4207,D4,297.75,2.25,95,102.0
4208,C4,297.75,2.25,95,102.0
4209,B-3,297.75,2.25,95,102.0
4210,A4,297.75,0.25,79,102.0
4211,C2,297.75,0.25,79,102.0
4212,A4,298.0,0.25,63,102.0
4213,A4,298.25,0.25,79,102.0
4214,C2,298.25,0.25,79,102.0
4215,C2,298.5,0.25,95,102.0
4216,A4,298.5,0.25,63,102.0
4217,C5,298.75,0.25,95,102.0
4218,G1,298.75,0.25,95,102.0
4219,A4,298.75,0.25,79,102.0
4220,C2,298.75,0.25,79,102.0
4221,C#5,299.0,0.5,95,102.0
4222,B-1,299.0,0.25,79,102.0
4223,F4,299.0,1.0,95,102.0
4224,D4,299.0,1.0,95,102.0
4225,C4,299.0,1.0,95,102.0
4226,B-3,299.0,1.0,95,102.0
4227,A4,299.0,0.25,95,102.0
4228,D2,299.0,0.25,95,102.0
4229,B-1,299.25,0.25,79,102.0
4230,A4,299.25,0.25,95,102.0
4231,C#4,299.25,0.25,95,102.0
4232,C5,299.5,0.5,95,102.0
4233,G1,299.5,0.25,63,102.0
4234,A4,299.5,0.25,84,102.0
4235,E-4,299.5,0.25,84,102.0
4236,C2,299.5,0.25,84,102.0
4237,F1,299.75,0.25,63,102.0
4238,A4,299.75,0.25,95,102.0
4239,F2,300.0,0.25,63,102.0
4240,G4,300.0,1.0,95,102.0
4241,E-4,300.0,1.0,95,102.0
4242,C4,300.0,1.0,95,102.0
4243,B-3,300.0,1.0,95,102.0
4244,G4,300.0,1.75,95,102.0
4245,E-4,300.0,1.75,95,102.0
4246,C4,300.0,1.75,95,102.0
4247,B-3,300.0,1.75,95,102.0
4248,A4,300.0,0.25,84,102.0
4249,E-4,300.0,0.25,84,102.0
4250,C2,300.0,0.25,84,102.0
4251,F2,300.25,0.25,95,102.0
4252,A4,300.25,0.25,95,102.0
4253,F2,300.5,0.25,63,102.0
4254,A4,300.5,0.25,63,102.0
4255,F5,300.75,0.25,95,102.0
4256,F2,300.75,0.25,95,102.0
4257,A4,300.75,0.25,79,102.0
4258,C2,300.75,0.25,79,102.0
4259,F5,301.0,0.5,95,102.0
4260,F2,301.0,0.25,95,102.0
4261,A4,301.0,0.25,95,102.0
4262,D2,301.0,0.25,95,102.0
4263,F2,301.25,0.25,79,102.0
4264,G4,301.25,0.25,95,102.0
4265,E-4,301.25,0.25,95,102.0
4266,C4,301.25,0.25,95,102.0
4267,B-3,301.25,0.25,95,102.0
4268,A4,301.25,0.25,95,102.0
4269,E4,301.25,0.25,95,102.0
4270,C5,301.5,0.5,95,102.0
4271,F2,301.5,0.25,63,102.0
4272,A4,301.5,0.25,63,102.0
4273,G1,301.75,0.25,95,102.0
4274,F4,301.75,1.25,95,102.0
4275,D4,301.75,1.25,95,102.0
4276,C4,301.75,1.25,95,102.0
4277,B-3,301.75,1.25,95,102.0
4278,F4,301.75,2.25,95,102.0
4279,D4,301.75,2.25,95,102.0
4280,C4,301.75,2.25,95,102.0
4281,B-3,301.75,2.25,95,102.0
4282,A4,301.75,0.25,79,102.0
4283,C2,301.75,0.25,79,102.0
4284,E-5,302.0,0.5,95,102.0
4285,A4,302.0,0.25,63,102.0
4286,G1,302.25,0.25,95,102.0
4287,A4,302.25,0.25,79,102.0
4288,C2,302.25,0.25,79,102.0
4289,F5,302.5,0.5,95,102.0
4290,A4,302.5,0.25,63,102.0
4291,G1,302.75,0.25,95,102.0
4292,A4,302.75,0.25,79,102.0
4293,C2,302.75,0.25,79,102.0
4294,F5,303.0,0.25,95,102.0
4295,G1,303.0,0.75,95,102.0
4296,F4,303.0,1.0,95,102.0
4297,D4,303.0,1.0,95,102.0
4298,C4,303.0,1.0,95,102.0
4299,B-3,303.0,1.0,95,102.0
4300,A4,303.0,0.25,95,102.0
4301,D2,303.0,0.25,95,102.0
4302,E-5,303.25,0.25,95,102.0
4303,A4,303.25,0.25,95,102.0
4304,C#4,303.25,0.25,95,102.0
4305,D5,303.5,0.25,95,102.0
4306,A4,303.5,0.25,84,102.0
4307,E-4,303.5,0.25,84,102.0
4308,C2,303.5,0.25,84,102.0
4309,C5,303.75,0.25,95,102.0
4310,G1,303.75,0.125,95,102.0
4311,A4,303.75,0.25,95,102.0
4312,G#4,304.0,0.5,95,102.0
4313,G#1,304.0,0.25,95,102.0
4314,G4,304.0,1.0,95,102.0
4315,E-4,304.0,1.0,95,102.0
4316,C4,304.0,1.0,95,102.0
4317,G#3,304.0,1.0,95,102.0
4318,G4,304.0,1.75,95,102.0
4319,E-4,304.0,1.75,95,102.0
4320,C4,304.0,1.75,95,102.0
4321,G#3,304.0,1.75,95,102.0
4322,A4,304.0,0.25,87,102.0
4323,E-4,304.0,0.25,87,102.0
4324,C2,304.0,0.25,87,102.0
4325,E3,304.0,0.25,87,102.0
4326,G#1,304.25,0.25,63,102.0
4327,A4,304.25,0.25,95,102.0
4328,G4,304.5,0.25,95,102.0
4329,G#1,304.5,0.25,95,102.0
4330,A4,304.5,0.25,63,102.0
4331,F4,304.75,0.5,95,102.0
4332,G#1,304.75,0.25,63,102.0
4333,A4,304.75,0.25,79,102.0
4334,C2,304.75,0.25,79,102.0
4335,A4,305.0,0.25,95,102.0
4336,D2,305.0,0.25,95,102.0
4337,E-4,305.25,0.5,95,102.0
4338,E1,305.25,0.25,95,102.0
4339,G4,305.25,0.25,95,102.0
4340,E-4,305.25,0.25,95,102.0
4341,C4,305.25,0.25,95,102.0
4342,G#3,305.25,0.25,95,102.0
4343,A4,305.25,0.25,95,102.0
4344,E4,305.25,0.25,95,102.0
4345,F#1,305.5,0.25,95,102.0
4346,A4,305.5,0.25,63,102.0
4347,D4,305.75,0.5,95,102.0
4348,B-1,305.75,0.25,95,102.0
4349,F4,305.75,1.25,95,102.0
4350,D4,305.75,1.25,95,102.0
4351,B-3,305.75,1.25,95,102.0
4352,G3,305.75,1.25,95,102.0
4353,F4,305.75,2.25,95,102.0
4354,D4,305.75,2.25,95,102.0
4355,B-3,305.75,2.25,95,102.0
4356,G3,305.75,2.25,95,102.0
4357,A4,305.75,0.25,79,102.0
4358,C2,305.75,0.25,79,102.0
4359,A4,306.0,0.25,63,102.0
4360,C4,306.25,0.5,95,102.0
4361,B-1,306.25,0.25,95,102.0
4362,A4,306.25,0.25,79,102.0
4363,C2,306.25,0.25,79,102.0
4364,A4,306.5,0.25,63,102.0
4365,B-3,306.75,0.5,79,102.0
4366,B-1,306.75,0.25,95,102.0
4367,A4,306.75,0.25,79,102.0
4368,C2,306.75,0.25,79,102.0
4369,B-1,307.0,1.0,95,102.0
4370,F4,307.0,1.0,95,102.0
4371,D4,307.0,1.0,95,102.0
4372,B-3,307.0,1.0,95,102.0
4373,G3,307.0,1.0,95,102.0
4374,A4,307.0,0.25,95,102.0
4375,D2,307.0,0.25,95,102.0
4376,G3,307.25,0.5,63,102.0
4377,A4,307.25,0.25,95,102.0
4378,C#4,307.25,0.25,95,102.0
4379,A4,307.5,0.25,84,102.0
4380,E-4,307.5,0.25,84,102.0
4381,C2,307.5,0.25,84,102.0
4382,A4,307.75,0.25,95,102.0
4383,A1,308.0,0.25,63,102.0
4384,G4,308.0,1.0,95,102.0
4385,E-4,308.0,1.0,95,102.0
4386,C4,308.0,1.0,95,102.0
4387,G#3,308.0,1.0,95,102.0
4388,G4,308.0,1.75,95,102.0
4389,E-4,308.0,1.75,95,102.0
4390,C4,308.0,1.75,95,102.0
4391,G#3,308.0,1.75,95,102.0
4392,A4,308.0,0.25,84,102.0
4393,E-4,308.0,0.25,84,102.0
4394,C2,308.0,0.25,84,102.0
4395,A3,308.25,0.25,95,102.0
4396,A1,308.25,0.25,95,102.0
4397,A4,308.25,0.25,95,102.0
4398,E4,308.5,0.25,95,102.0
4399,A1,308.5,0.25,63,102.0
4400,A4,308.5,0.25,63,102.0
4401,G#4,308.75,0.25,95,102.0
4402,E1,308.75,0.25,79,102.0
4403,A4,308.75,0.25,79,102.0
4404,C2,308.75,0.25,79,102.0
4405,F#4,309.0,0.25,95,102.0
4406,G1,309.0,0.25,95,102.0
4407,A4,309.0,0.25,95,102.0
4408,D2,309.0,0.25,95,102.0
4409,B4,309.25,0.25,95,102.0
4410,A1,309.25,0.25,95,102.0
4411,G4,309.25,0.25,95,102.0
4412,E-4,309.25,0.25,95,102.0
4413,C4,309.25,0.25,95,102.0
4414,G#3,309.25,0.25,95,102.0
4415,A4,309.25,0.25,95,102.0
4416,E4,309.25,0.25,95,102.0
4417,E5,309.5,0.25,95,102.0
4418,A4,309.5,0.25,63,102.0
4419,F#5,309.75,0.25,95,102.0
4420,G#1,309.75,0.25,95,102.0
4421,F4,309.75,1.25,95,102.0
4422,D4,309.75,1.25,95,102.0
4423,C4,309.75,1.25,95,102.0
4424,B-3,309.75,1.25,95,102.0
4425,F4,309.75,2.25,95,102.0
4426,D4,309.75,2.25,95,102.0
4427,C4,309.75,2.25,95,102.0
4428,B-3,309.75,2.25,95,102.0
4429,A4,309.75,0.25,79,102.0
4430,C2,309.75,0.25,79,102.0
4431,E-5,310.0,0.25,95,102.0
4432,A4,310.0,0.25,63,102.0
4433,B4,310.25,0.25,95,102.0
4434,G#1,310.25,0.25,95,102.0
4435,A4,310.25,0.25,79,102.0
4436,C2,310.25,0.25,79,102.0
4437,E5,310.5,0.125,95,102.0
4438,A4,310.5,0.25,63,102.0
4439,C#5,310.625,0.125,95,102.0
4440,E-5,310.75,0.25,95,102.0
4441,G#1,310.75,0.25,95,102.0
4442,A4,310.75,0.25,79,102.0
4443,C2,310.75,0.25,79,102.0
4444,C#5,311.0,0.125,95,102.0
4445,G1,311.0,0.25,95,102.0
4446,F4,311.0,1.0,95,102.0
4447,D4,311.0,1.0,95,102.0
4448,C4,311.0,1.0,95,102.0
4449,B-3,311.0,1.0,95,102.0
4450,A4,311.0,0.25,95,102.0
4451,D2,311.0,0.25,95,102.0
4452,B4,311.125,0.125,95,102.0
4453,A4,311.25,0.25,95,102.0
4454,F#1,311.25,0.25,79,102.0
4455,A4,311.25,0.25,95,102.0
4456,C#4,311.25,0.25,95,102.0
4457,G#4,311.5,0.25,95,102.0
4458,E1,311.5,0.25,63,102.0
4459,A4,311.5,0.25,84,102.0
4460,E-4,311.5,0.25,84,102.0
4461,C2,311.5,0.25,84,102.0
4462,F#4,311.75,0.25,95,102.0
4463,F#1,311.75,0.25,79,102.0
4464,A4,311.75,0.25,95,102.0
4465,C#4,312.0,0.5,95,102.0
4466,A1,312.0,0.25,63,102.0
4467,G#4,312.0,1.0,95,102.0
4468,E4,312.0,1.0,95,102.0
4469,C#4,312.0,1.0,95,102.0
4470,B3,312.0,1.0,95,102.0
4471,G#4,312.0,1.75,95,102.0
4472,E4,312.0,1.75,95,102.0
4473,C#4,312.0,1.75,95,102.0
4474,B3,312.0,1.75,95,102.0
4475,A4,312.0,0.25,84,102.0
4476,E-4,312.0,0.25,84,102.0
4477,C2,312.0,0.25,84,102.0
4478,A1,312.25,0.25,95,102.0
4479,A4,312.25,0.25,95,102.0
4480,E-4,312.5,0.25,95,102.0
4481,A1,312.5,0.25,63,102.0
4482,A4,312.5,0.25,63,102.0
4483,E4,312.75,0.5,95,102.0
4484,E1,312.75,0.25,79,102.0
4485,A4,312.75,0.25,79,102.0
4486,C2,312.75,0.25,79,102.0
4487,G1,313.0,0.25,95,102.0
4488,A4,313.0,0.25,95,102.0
4489,D2,313.0,0.25,95,102.0
4490,F#4,313.25,0.5,95,102.0
4491,A1,313.25,0.25,95,102.0
4492,G#4,313.25,0.25,95,102.0
4493,E4,313.25,0.25,95,102.0
4494,C#4,313.25,0.25,95,102.0
4495,B3,313.25,0.25,95,102.0
4496,A4,313.25,0.25,95,102.0
4497,E4,313.25,0.25,95,102.0
4498,A4,313.5,0.25,63,102.0
4499,F#4,313.75,1.5,95,102.0
4500,G#1,313.75,0.25,95,102.0
4501,F#4,313.75,1.25,95,102.0
4502,E-4,313.75,1.25,95,102.0
4503,C#4,313.75,1.25,95,102.0
4504,B3,313.75,1.25,95,102.0
4505,F#4,313.75,2.25,95,102.0
4506,E-4,313.75,2.25,95,102.0
4507,C#4,313.75,2.25,95,102.0
4508,B3,313.75,2.25,95,102.0
4509,A4,313.75,0.25,79,102.0
4510,C2,313.75,0.25,79,102.0
4511,A4,314.0,0.25,63,102.0
4512,G#1,314.25,0.25,95,102.0
4513,A4,314.25,0.25,79,102.0
4514,C2,314.25,0.25,79,102.0
4515,A4,314.5,0.25,63,102.0
4516,G#1,314.75,0.25,95,102.0
4517,A4,314.75,0.25,79,102.0
4518,C2,314.75,0.25,79,102.0
4519,G1,315.0,0.25,95,102.0
4520,F#4,315.0,1.0,95,102.0
4521,E-4,315.0,1.0,95,102.0
4522,C#4,315.0,1.0,95,102.0
4523,B3,315.0,1.0,95,102.0
4524,A4,315.0,0.25,95,102.0
4525,D2,315.0,0.25,95,102.0
4526,F#1,315.25,0.25,79,102.0
4527,A4,315.25,0.25,95,102.0
4528,C#4,315.25,0.25,95,102.0
4529,E1,315.5,0.25,63,102.0
4530,A4,315.5,0.25,84,102.0
4531,E-4,315.5,0.25,84,102.0
4532,C2,315.5,0.25,84,102.0
4533,F#1,315.75,0.25,79,102.0
4534,A4,315.75,0.25,95,102.0
4535,C#5,316.0,0.5,95,102.0
4536,F#2,316.0,0.25,63,102.0
4537,G#4,316.0,1.0,95,102.0
4538,E4,316.0,1.0,95,102.0
4539,C#4,316.0,1.0,95,102.0
4540,B3,316.0,1.0,95,102.0
4541,G#4,316.0,1.75,95,102.0
4542,E4,316.0,1.75,95,102.0
4543,C#4,316.0,1.75,95,102.0
4544,B3,316.0,1.75,95,102.0
4545,A4,316.0,0.25,84,102.0
4546,E-4,316.0,0.25,84,102.0
4547,C2,316.0,0.25,84,102.0
4548,F#2,316.25,0.25,95,102.0
4549,A4,316.25,0.25,95,102.0
4550,E5,316.5,0.25,95,102.0
4551,E2,316.5,0.25,63,102.0
4552,A4,316.5,0.25,63,102.0
4553,C#5,316.75,0.25,95,102.0
4554,C#2,316.75,0.25,95,102.0
4555,A4,316.75,0.25,79,102.0
4556,C2,316.75,0.25,79,102.0
4557,E5,317.0,0.75,95,102.0
4558,B1,317.0,0.25,95,102.0
4559,A4,317.0,0.25,95,102.0
4560,D2,317.0,0.25,95,102.0
4561,A1,317.25,0.25,95,102.0
4562,G#4,317.25,0.25,95,102.0
4563,E4,317.25,0.25,95,102.0
4564,C#4,317.25,0.25,95,102.0
4565,B3,317.25,0.25,95,102.0
4566,A4,317.25,0.25,95,102.0
4567,E4,317.25,0.25,95,102.0
4568,A4,317.5,0.25,63,102.0
4569,F#5,317.75,0.75,79,102.0
4570,G1,317.75,0.25,95,102.0
4571,F#4,317.75,1.25,95,102.0
4572,E-4,317.75,1.25,95,102.0
4573,C#4,317.75,1.25,95,102.0
4574,B3,317.75,1.25,95,102.0
4575,F#4,317.75,2.25,95,102.0
4576,E-4,317.75,2.25,95,102.0
4577,C#4,317.75,2.25,95,102.0
4578,B3,317.75,2.25,95,102.0
4579,A4,317.75,0.25,79,102.0
4580,C2,317.75,0.25,79,102.0
4581,A4,318.0,0.25,63,102.0
4582,G1,318.25,0.25,95,102.0
4583,A4,318.25,0.25,79,102.0
4584,C2,318.25,0.25,79,102.0
4585,A4,318.5,0.25,63,102.0
4586,E5,318.75,0.25,95,102.0
4587,G1,318.75,0.25,95,102.0
4588,A4,318.75,0.25,79,102.0
4589,C2,318.75,0.25,79,102.0
4590,B5,319.0,0.25,95,102.0
4591,G1,319.0,0.25,95,102.0
4592,F#4,319.0,1.0,95,102.0
4593,E-4,319.0,1.0,95,102.0
4594,C#4,319.0,1.0,95,102.0
4595,B3,319.0,1.0,95,102.0
4596,A4,319.0,0.25,95,102.0
4597,D2,319.0,0.25,95,102.0
4598,F#5,319.25,0.25,95,102.0
4599,F#1,319.25,0.25,79,102.0
4600,A4,319.25,0.25,95,102.0
4601,C#4,319.25,0.25,95,102.0
4602,A5,319.5,0.5,95,102.0
4603,E1,319.5,0.25,63,102.0
4604,A4,319.5,0.25,84,102.0
4605,E-4,319.5,0.25,84,102.0
4606,C2,319.5,0.25,84,102.0
4607,F#1,319.75,0.25,79,102.0
4608,A4,319.75,0.25,95,102.0
4609,E5,320.0,0.75,95,102.0
4610,A1,320.0,0.25,63,102.0
4611,G#4,320.0,1.0,95,102.0
4612,E4,320.0,1.0,95,102.0
4613,C#4,320.0,1.0,95,102.0
4614,A3,320.0,1.0,95,102.0
4615,G#4,320.0,1.75,95,102.0
4616,E4,320.0,1.75,95,102.0
4617,C#4,320.0,1.75,95,102.0
4618,A3,320.0,1.75,95,102.0
4619,A4,320.0,0.25,84,102.0
4620,E-4,320.0,0.25,84,102.0
4621,C2,320.0,0.25,84,102.0
4622,A1,320.25,0.25,95,102.0
4623,A4,320.25,0.25,95,102.0
4624,A1,320.5,0.25,63,102.0
4625,A4,320.5,0.25,63,102.0
4626,F#5,320.75,0.25,95,102.0
4627,E1,320.75,0.25,79,102.0
4628,A4,320.75,0.25,79,102.0
4629,C2,320.75,0.25,79,102.0
4630,F#5,321.0,0.25,95,102.0
4631,G1,321.0,0.25,95,102.0
4632,A4,321.0,0.25,95,102.0
4633,D2,321.0,0.25,95,102.0
4634,E5,321.25,0.25,95,102.0
4635,A1,321.25,0.25,95,102.0
4636,G#4,321.25,0.25,95,102.0
4637,E4,321.25,0.25,95,102.0
4638,C#4,321.25,0.25,95,102.0
4639,A3,321.25,0.25,95,102.0
4640,A4,321.25,0.25,95,102.0
4641,E4,321.25,0.25,95,102.0
4642,E-5,321.5,0.25,95,102.0
4643,A4,321.5,0.25,63,102.0
4644,C#5,321.75,0.25,63,102.0
4645,B1,321.75,0.25,95,102.0
4646,F#4,321.75,1.25,95,102.0
4647,E-4,321.75,1.25,95,102.0
4648,B3,321.75,1.25,95,102.0
4649,G#3,321.75,1.25,95,102.0
4650,F#4,321.75,2.25,95,102.0
4651,E-4,321.75,2.25,95,102.0
4652,B3,321.75,2.25,95,102.0
4653,G#3,321.75,2.25,95,102.0
4654,A4,321.75,0.25,79,102.0
4655,C2,321.75,0.25,79,102.0
4656,C#5,322.0,1.0,95,102.0
4657,A4,322.0,0.25,63,102.0
4658,B1,322.25,0.25,95,102.0
4659,A4,322.25,0.25,79,102.0
4660,C2,322.25,0.25,79,102.0
4661,A4,322.5,0.25,63,102.0
4662,B1,322.75,0.25,95,102.0
4663,A4,322.75,0.25,79,102.0
4664,C2,322.75,0.25,79,102.0
4665,B1,323.0,1.0,95,102.0
4666,F#4,323.0,1.0,95,102.0
4667,E-4,323.0,1.0,95,102.0
4668,B3,323.0,1.0,95,102.0
4669,G#3,323.0,1.0,95,102.0
4670,A4,323.0,0.25,95,102.0
4671,D2,323.0,0.25,95,102.0
4672,A4,323.25,0.25,95,102.0
4673,C#4,323.25,0.25,95,102.0
4674,A4,323.5,0.25,84,102.0
4675,E-4,323.5,0.25,84,102.0
4676,C2,323.5,0.25,84,102.0
4677,A4,323.75,0.25,95,102.0
4678,A1,324.0,0.25,63,102.0
4679,G#4,324.0,1.0,95,102.0
4680,E4,324.0,1.0,95,102.0
4681,C#4,324.0,1.0,95,102.0
4682,A3,324.0,1.0,95,102.0
4683,G#4,324.0,1.75,95,102.0
4684,E4,324.0,1.75,95,102.0
4685,C#4,324.0,1.75,95,102.0
4686,A3,324.0,1.75,95,102.0
4687,A4,324.0,0.25,84,102.0
4688,E-4,324.0,0.25,84,102.0
4689,C2,324.0,0.25,84,102.0
4690,D4,324.25,0.25,95,102.0
4691,A1,324.25,0.25,95,102.0
4692,A4,324.25,0.25,95,102.0
4693,G4,324.5,0.25,95,102.0
4694,A1,324.5,0.25,63,102.0
4695,A4,324.5,0.25,63,102.0
4696,A4,324.75,0.25,95,102.0
4697,E1,324.75,0.25,79,102.0
4698,A4,324.75,0.25,79,102.0
4699,C2,324.75,0.25,79,102.0
4700,F5,325.0,1.5,95,102.0
4701,G1,325.0,0.25,95,102.0
4702,A4,325.0,0.25,95,102.0
4703,D2,325.0,0.25,95,102.0
4704,A1,325.25,0.25,95,102.0
4705,G#4,325.25,0.25,95,102.0
4706,E4,325.25,0.25,95,102.0
4707,C#4,325.25,0.25,95,102.0
4708,A3,325.25,0.25,95,102.0
4709,A4,325.25,0.25,95,102.0
4710,E4,325.25,0.25,95,102.0
4711,A4,325.5,0.25,63,102.0
4712,A1,325.75,0.25,95,102.0
4713,F#4,325.75,1.25,95,102.0
4714,E-4,325.75,1.25,95,102.0
4715,C#4,325.75,1.25,95,102.0
4716,B3,325.75,1.25,95,102.0
4717,F#4,325.75,2.25,95,102.0
4718,E-4,325.75,2.25,95,102.0
4719,C#4,325.75,2.25,95,102.0
4720,B3,325.75,2.25,95,102.0
4721,A4,325.75,0.25,79,102.0
4722,C2,325.75,0.25,79,102.0
4723,A4,326.0,0.25,63,102.0
4724,A1,326.25,0.25,95,102.0
4725,A4,326.25,0.25,79,102.0
4726,C2,326.25,0.25,79,102.0
4727,G5,326.5,0.25,95,102.0
4728,A4,326.5,0.25,63,102.0
4729,E5,326.75,0.25,95,102.0
4730,A1,326.75,0.25,95,102.0
4731,A4,326.75,0.25,79,102.0
4732,C2,326.75,0.25,79,102.0
4733,G5,327.0,0.5,95,102.0
4734,G1,327.0,0.25,95,102.0
4735,F#4,327.0,1.0,95,102.0
4736,E-4,327.0,1.0,95,102.0
4737,C#4,327.0,1.0,95,102.0
4738,B3,327.0,1.0,95,102.0
4739,A4,327.0,0.25,95,102.0
4740,D2,327.0,0.25,95,102.0
4741,F#1,327.25,0.25,79,102.0
4742,A4,327.25,0.25,95,102.0
4743,C#4,327.25,0.25,95,102.0
4744,C6,327.5,0.5,95,102.0
4745,E1,327.5,0.25,63,102.0
4746,A4,327.5,0.25,84,102.0
4747,E-4,327.5,0.25,84,102.0
4748,C2,327.5,0.25,84,102.0
4749,F#1,327.75,0.25,79,102.0
4750,A4,327.75,0.25,95,102.0
4751,B5,328.0,0.75,95,102.0
4752,A1,328.0,0.25,63,102.0
4753,E4,328.0,1.0,95,102.0
4754,C4,328.0,1.0,95,102.0
4755,A3,328.0,1.0,95,102.0
4756,G3,328.0,1.0,95,102.0
4757,E4,328.0,1.75,95,102.0
4758,C4,328.0,1.75,95,102.0
4759,A3,328.0,1.75,95,102.0
4760,G3,328.0,1.75,95,102.0
4761,A4,328.0,0.25,84,102.0
4762,E-4,328.0,0.25,84,102.0
4763,C2,328.0,0.25,84,102.0
4764,A1,328.25,0.25,95,102.0
4765,A4,328.25,0.25,95,102.0
4766,A1,328.5,0.25,63,102.0
4767,A4,328.5,0.25,63,102.0
4768,G5,328.75,0.5,95,102.0
4769,E1,328.75,0.25,79,102.0
4770,A4,328.75,0.25,79,102.0
4771,C2,328.75,0.25,79,102.0
4772,G1,329.0,0.25,95,102.0
4773,A4,329.0,0.25,95,102.0
4774,D2,329.0,0.25,95,102.0
4775,E5,329.25,0.5,95,102.0
4776,A1,329.25,0.25,95,102.0
4777,E4,329.25,0.25,95,102.0
4778,C4,329.25,0.25,95,102.0
4779,A3,329.25,0.25,95,102.0
4780,G3,329.25,0.25,95,102.0
4781,A4,329.25,0.25,95,102.0
4782,E4,329.25,0.25,95,102.0
4783,A4,329.5,0.25,63,102.0
4784,D5,329.75,0.25,95,102.0
4785,A1,329.75,0.25,95,102.0
4786,D4,329.75,1.25,95,102.0
4787,B3,329.75,1.25,95,102.0
4788,A3,329.75,1.25,95,102.0
4789,G3,329.75,1.25,95,102.0
4790,D4,329.75,2.25,95,102.0
4791,B3,329.75,2.25,95,102.0
4792,A3,329.75,2.25,95,102.0
4793,G3,329.75,2.25,95,102.0
4794,A4,329.75,0.25,79,102.0
4795,C2,329.75,0.25,79,102.0
4796,D5,330.0,0.25,95,102.0
4797,A4,330.0,0.25,63,102.0
4798,B4,330.25,0.25,95,102.0
4799,A1,330.25,0.25,95,102.0
4800,A4,330.25,0.25,79,102.0
4801,C2,330.25,0.25,79,102.0
4802,D5,330.5,0.25,95,102.0
4803,A4,330.5,0.25,63,102.0
4804,E5,330.75,0.25,95,102.0
4805,A1,330.75,0.25,95,102.0
4806,A4,330.75,0.25,79,102.0
4807,C2,330.75,0.25,79,102.0
4808,B4,331.0,0.5,95,102.0
4809,G1,331.0,0.25,95,102.0
4810,D4,331.0,1.0,95,102.0
4811,B3,331.0,1.0,95,102.0
4812,A3,331.0,1.0,95,102.0
4813,G3,331.0,1.0,95,102.0
4814,A4,331.0,0.25,95,102.0
4815,D2,331.0,0.25,95,102.0
4816,F#1,331.25,0.25,79,102.0
4817,A4,331.25,0.25,95,102.0
4818,C#4,331.25,0.25,95,102.0
4819,A4,331.5,0.25,95,102.0
4820,E1,331.5,0.25,63,102.0
4821,A4,331.5,0.25,84,102.0
4822,E-4,331.5,0.25,84,102.0
4823,C2,331.5,0.25,84,102.0
4824,G4,331.75,0.25,95,102.0
4825,F#1,331.75,0.25,47,102.0
4826,A4,331.75,0.25,95,102.0
4827,E4,332.0,0.5,95,102.0
4828,A1,332.0,0.25,63,102.0
4829,E4,332.0,1.0,95,102.0
4830,C4,332.0,1.0,95,102.0
4831,A3,332.0,1.0,95,102.0
4832,G3,332.0,1.0,95,102.0
4833,E4,332.0,1.75,95,102.0
4834,C4,332.0,1.75,95,102.0
4835,A3,332.0,1.75,95,102.0
4836,G3,332.0,1.75,95,102.0
4837,A4,332.0,0.25,84,102.0
4838,E-4,332.0,0.25,84,102.0
4839,C2,332.0,0.25,84,102.0
4840,A1,332.25,0.25,95,102.0
4841,A4,332.25,0.25,95,102.0
4842,A1,332.5,0.25,63,102.0
4843,A4,332.5,0.25,63,102.0
4844,F4,332.75,0.25,95,102.0
4845,E1,332.75,0.25,79,102.0
4846,A4,332.75,0.25,79,102.0
4847,C2,332.75,0.25,79,102.0
4848,F4,333.0,0.5,95,102.0
4849,G1,333.0,0.25,95,102.0
4850,A4,333.0,0.25,95,102.0
4851,D2,333.0,0.25,95,102.0
4852,A1,333.25,0.25,95,102.0
4853,E4,333.25,0.25,95,102.0
4854,C4,333.25,0.25,95,102.0
4855,A3,333.25,0.25,95,102.0
4856,G3,333.25,0.25,95,102.0
4857,A4,333.25,0.25,95,102.0
4858,E4,333.25,0.25,95,102.0
4859,E4,333.5,0.25,95,102.0
4860,A4,333.5,0.25,63,102.0
4861,G4,333.75,0.5,95,102.0
4862,A1,333.75,0.25,95,102.0
4863,D4,333.75,1.25,95,102.0
4864,B3,333.75,1.25,95,102.0
4865,A3,333.75,1.25,95,102.0
4866,G3,333.75,1.25,95,102.0
4867,D4,333.75,2.25,95,102.0
4868,B3,333.75,2.25,95,102.0
4869,A3,333.75,2.25,95,102.0
4870,G3,333.75,2.25,95,102.0
4871,A4,333.75,0.25,79,102.0
4872,C2,333.75,0.25,79,102.0
4873,A4,334.0,0.25,63,102.0
4874,A1,334.25,0.25,95,102.0
4875,A4,334.25,0.25,79,102.0
4876,C2,334.25,0.25,79,102.0
4877,A4,334.5,0.25,63,102.0
4878,A1,334.75,0.25,95,102.0
4879,A4,334.75,0.25,79,102.0
4880,C2,334.75,0.25,79,102.0
4881,G1,335.0,0.25,95,102.0
4882,D4,335.0,1.0,95,102.0
4883,B3,335.0,1.0,95,102.0
4884,A3,335.0,1.0,95,102.0
4885,G3,335.0,1.0,95,102.0
4886,A4,335.0,0.25,95,102.0
4887,D2,335.0,0.25,95,102.0
4888,F#1,335.25,0.25,79,102.0
4889,A4,335.25,0.25,95,102.0
4890,C#4,335.25,0.25,95,102.0
4891,E1,335.5,0.25,63,102.0
4892,A4,335.5,0.25,84,102.0
4893,E-4,335.5,0.25,84,102.0
4894,C2,335.5,0.25,84,102.0
4895,F#1,335.75,0.25,79,102.0
4896,A4,335.75,0.25,95,102.0
4897,A1,336.0,0.25,63,102.0
4898,E4,336.0,1.0,95,102.0
4899,C4,336.0,1.0,95,102.0
4900,A3,336.0,1.0,95,102.0
4901,G3,336.0,1.0,95,102.0
4902,E4,336.0,1.75,95,102.0
4903,C4,336.0,1.75,95,102.0
4904,A3,336.0,1.75,95,102.0
4905,G3,336.0,1.75,95,102.0
4906,A4,336.0,0.25,87,102.0
4907,E-4,336.0,0.25,87,102.0
4908,C2,336.0,0.25,87,102.0
4909,E3,336.0,0.25,87,102.0
4910,G4,336.25,0.25,95,102.0
4911,A1,336.25,0.25,95,102.0
4912,A4,336.25,0.25,95,102.0
4913,F4,336.5,0.5,95,102.0
4914,A1,336.5,0.25,63,102.0
4915,A4,336.5,0.25,63,102.0
4916,E1,336.75,0.25,79,102.0
4917,A4,336.75,0.25,79,102.0
4918,C2,336.75,0.25,79,102.0
4919,E4,337.0,0.5,95,102.0
4920,G1,337.0,0.25,95,102.0
4921,A4,337.0,0.25,95,102.0
4922,D2,337.0,0.25,95,102.0
4923,A1,337.25,0.25,95,102.0
4924,E4,337.25,0.25,95,102.0
4925,C4,337.25,0.25,95,102.0
4926,A3,337.25,0.25,95,102.0
4927,G3,337.25,0.25,95,102.0
4928,A4,337.25,0.25,95,102.0
4929,E4,337.25,0.25,95,102.0
4930,A4,337.5,0.25,63,102.0
4931,C4,337.75,0.25,63,102.0
4932,A1,337.75,0.25,95,102.0
4933,D4,337.75,1.25,95,102.0
4934,B3,337.75,1.25,95,102.0
4935,A3,337.75,1.25,95,102.0
4936,G3,337.75,1.25,95,102.0
4937,D4,337.75,2.25,95,102.0
4938,B3,337.75,2.25,95,102.0
4939,A3,337.75,2.25,95,102.0
4940,G3,337.75,2.25,95,102.0
4941,A4,337.75,0.25,79,102.0
4942,C2,337.75,0.25,79,102.0
4943,D4,338.0,0.25,95,102.0
4944,A4,338.0,0.25,63,102.0
4945,F4,338.25,0.25,95,102.0
4946,A1,338.25,0.25,95,102.0
4947,A4,338.25,0.25,79,102.0
4948,C2,338.25,0.25,79,102.0
4949,G4,338.5,0.25,95,102.0
4950,A4,338.5,0.25,63,102.0
4951,A4,338.75,0.25,95,102.0
4952,A1,338.75,0.25,95,102.0
4953,A4,338.75,0.25,79,102.0
4954,C2,338.75,0.25,79,102.0
4955,B4,339.0,0.25,95,102.0
4956,G1,339.0,0.25,95,102.0
4957,D4,339.0,1.0,95,102.0
4958,B3,339.0,1.0,95,102.0
4959,A3,339.0,1.0,95,102.0
4960,G3,339.0,1.0,95,102.0
4961,A4,339.0,0.25,95,102.0
4962,D2,339.0,0.25,95,102.0
4963,B-4,339.25,0.25,95,102.0
4964,F#1,339.25,0.25,79,102.0
4965,A4,339.25,0.25,95,102.0
4966,C#4,339.25,0.25,95,102.0
4967,D5,339.5,0.25,95,102.0
4968,E1,339.5,0.25,63,102.0
4969,A4,339.5,0.25,84,102.0
4970,E-4,339.5,0.25,84,102.0
4971,C2,339.5,0.25,84,102.0
4972,E5,339.75,0.25,95,102.0
4973,F#1,339.75,0.25,47,102.0
4974,A4,339.75,0.25,95,102.0
4975,E-5,340.0,0.5,95,102.0
4976,G#1,340.0,0.25,95,102.0
4977,E4,340.0,1.0,95,102.0
4978,C4,340.0,1.0,95,102.0
4979,A3,340.0,1.0,95,102.0
4980,G3,340.0,1.0,95,102.0
4981,E4,340.0,1.75,95,102.0
4982,C4,340.0,1.75,95,102.0
4983,A3,340.0,1.75,95,102.0
4984,G3,340.0,1.75,95,102.0
4985,A4,340.0,0.25,84,102.0
4986,E-4,340.0,0.25,84,102.0
4987,C2,340.0,0.25,84,102.0
4988,G4,340.25,0.25,63,102.0
4989,G#1,340.25,0.25,63,102.0
4990,A4,340.25,0.25,95,102.0
4991,B-4,340.5,0.25,95,102.0
4992,G#1,340.5,0.25,79,102.0
4993,A4,340.5,0.25,63,102.0
4994,C#5,340.75,0.25,95,102.0
4995,G#1,340.75,0.25,79,102.0
4996,A4,340.75,0.25,79,102.0
4997,C2,340.75,0.25,79,102.0
4998,C5,341.0,0.25,95,102.0
4999,G#1,341.0,0.25,79,102.0
5000,A4,341.0,0.25,95,102.0
5001,D2,341.0,0.25,95,102.0
5002,D5,341.25,0.25,95,102.0
5003,G#1,341.25,0.25,79,102.0
5004,E4,341.25,0.25,95,102.0
5005,C4,341.25,0.25,95,102.0
5006,A3,341.25,0.25,95,102.0
5007,G3,341.25,0.25,95,102.0
5008,A4,341.25,0.25,95,102.0
5009,E4,341.25,0.25,95,102.0
5010,B-4,341.5,0.25,95,102.0
5011,A4,341.5,0.25,63,102.0
5012,F4,341.75,0.25,95,102.0
5013,G1,341.75,0.25,95,102.0
5014,D4,341.75,1.25,95,102.0
5015,B3,341.75,1.25,95,102.0
5016,A3,341.75,1.25,95,102.0
5017,G3,341.75,1.25,95,102.0
5018,D4,341.75,2.25,95,102.0
5019,B3,341.75,2.25,95,102.0
5020,A3,341.75,2.25,95,102.0
5021,G3,341.75,2.25,95,102.0
5022,A4,341.75,0.25,79,102.0
5023,C2,341.75,0.25,79,102.0
5024,E-5,342.0,0.25,95,102.0
5025,A4,342.0,0.25,63,102.0
5026,D5,342.25,0.25,95,102.0
5027,G1,342.25,0.25,95,102.0
5028,A4,342.25,0.25,79,102.0
5029,C2,342.25,0.25,79,102.0
5030,B-4,342.5,0.25,95,102.0
5031,A4,342.5,0.25,63,102.0
5032,F4,342.75,0.25,95,102.0
5033,G1,342.75,0.25,95,102.0
5034,A4,342.75,0.25,79,102.0
5035,C2,342.75,0.25,79,102.0
5036,E-4,343.0,0.25,95,102.0
5037,G1,343.0,0.25,95,102.0
5038,D4,343.0,1.0,95,102.0
5039,B3,343.0,1.0,95,102.0
5040,A3,343.0,1.0,95,102.0
5041,G3,343.0,1.0,95,102.0
5042,A4,343.0,0.25,95,102.0
5043,D2,343.0,0.25,95,102.0
5044,B-4,343.25,0.25,95,102.0
5045,A4,343.25,0.25,95,102.0
5046,C#4,343.25,0.25,95,102.0
5047,C5,343.5,0.25,95,102.0
5048,A4,343.5,0.25,84,102.0
5049,E-4,343.5,0.25,84,102.0
5050,C2,343.5,0.25,84,102.0
5051,E-5,343.75,0.25,95,102.0
5052,G1,343.75,0.125,79,102.0
5053,A4,343.75,0.25,95,102.0
5054,F5,344.0,0.5,95,102.0
5055,G#1,344.0,0.25,63,102.0
5056,G4,344.0,1.0,95,102.0
5057,E-4,344.0,1.0,95,102.0
5058,C4,344.0,1.0,95,102.0
5059,B-3,344.0,1.0,95,102.0
5060,G4,344.0,1.75,95,102.0
5061,E-4,344.0,1.75,95,102.0
5062,C4,344.0,1.75,95,102.0
5063,B-3,344.0,1.75,95,102.0
5064,A4,344.0,0.25,84,102.0
5065,E-4,344.0,0.25,84,102.0
5066,C2,344.0,0.25,84,102.0
5067,G#1,344.25,1.0,95,102.0
5068,A4,344.25,0.25,95,102.0
5069,G5,344.5,0.25,95,102.0
5070,A4,344.5,0.25,63,102.0
5071,C5,344.75,0.5,95,102.0
5072,A4,344.75,0.25,79,102.0
5073,C2,344.75,0.25,79,102.0
5074,A4,345.0,0.25,95,102.0
5075,D2,345.0,0.25,95,102.0
5076,C5,345.25,0.5,95,102.0
5077,G#1,345.25,0.25,79,102.0
5078,G4,345.25,0.25,95,102.0
5079,E-4,345.25,0.25,95,102.0
5080,C4,345.25,0.25,95,102.0
5081,B-3,345.25,0.25,95,102.0
5082,A4,345.25,0.25,95,102.0
5083,E4,345.25,0.25,95,102.0
5084,A4,345.5,0.25,63,102.0
5085,C5,345.75,0.25,95,102.0
5086,C2,345.75,0.75,95,102.0
5087,F4,345.75,1.25,95,102.0
5088,D4,345.75,1.25,95,102.0
5089,C4,345.75,1.25,95,102.0
5090,B-3,345.75,1.25,95,102.0
5091,F4,345.75,2.25,95,102.0
5092,D4,345.75,2.25,95,102.0
5093,C4,345.75,2.25,95,102.0
5094,B-3,345.75,2.25,95,102.0
5095,A4,345.75,0.25,79,102.0
5096,C2,345.75,0.25,79,102.0
5097,G#5,346.0,0.25,95,102.0
5098,A4,346.0,0.25,63,102.0
5099,B-5,346.25,0.25,95,102.0
5100,A4,346.25,0.25,79,102.0
5101,C2,346.25,0.25,79,102.0
5102,F5,346.5,0.25,95,102.0
5103,C2,346.5,0.25,95,102.0
5104,A4,346.5,0.25,63,102.0
5105,F5,346.75,0.25,95,102.0
5106,G1,346.75,0.25,95,102.0
5107,A4,346.75,0.25,79,102.0
5108,C2,346.75,0.25,79,102.0
5109,D5,347.0,0.25,95,102.0
5110,B-1,347.0,0.25,79,102.0
5111,F4,347.0,1.0,95,102.0
5112,D4,347.0,1.0,95,102.0
5113,C4,347.0,1.0,95,102.0
5114,B-3,347.0,1.0,95,102.0
5115,A4,347.0,0.25,95,102.0
5116,D2,347.0,0.25,95,102.0
5117,D5,347.25,0.25,95,102.0
5118,B-1,347.25,0.25,79,102.0
5119,A4,347.25,0.25,95,102.0
5120,C#4,347.25,0.25,95,102.0
5121,E-5,347.5,0.25,95,102.0
5122,G1,347.5,0.25,63,102.0
5123,A4,347.5,0.25,84,102.0
5124,E-4,347.5,0.25,84,102.0
5125,C2,347.5,0.25,84,102.0
5126,F5,347.75,0.25,63,102.0
5127,F1,347.75,0.25,63,102.0
5128,A4,347.75,0.25,95,102.0
5129,E-5,348.0,0.25,95,102.0
5130,F2,348.0,0.25,63,102.0
5131,G4,348.0,1.0,95,102.0
5132,E-4,348.0,1.0,95,102.0
5133,C4,348.0,1.0,95,102.0
5134,B-3,348.0,1.0,95,102.0
5135,G4,348.0,1.75,95,102.0
5136,E-4,348.0,1.75,95,102.0
5137,C4,348.0,1.75,95,102.0
5138,B-3,348.0,1.75,95,102.0
5139,A4,348.0,0.25,84,102.0
5140,E-4,348.0,0.25,84,102.0
5141,C2,348.0,0.25,84,102.0
5142,E-5,348.25,0.25,63,102.0
5143,F2,348.25,0.25,95,102.0
5144,A4,348.25,0.25,95,102.0
5145,C5,348.5,0.25,95,102.0
5146,F2,348.5,0.25,63,102.0
5147,A4,348.5,0.25,63,102.0
5148,C5,348.75,0.25,63,102.0
5149,F2,348.75,0.25,95,102.0
5150,A4,348.75,0.25,79,102.0
5151,C2,348.75,0.25,79,102.0
5152,G4,349.0,0.25,95,102.0
5153,F2,349.0,0.25,95,102.0
5154,A4,349.0,0.25,95,102.0
5155,D2,349.0,0.25,95,102.0
5156,G4,349.25,0.25,63,102.0
5157,F2,349.25,0.25,79,102.0
5158,G4,349.25,0.25,95,102.0
5159,E-4,349.25,0.25,95,102.0
5160,C4,349.25,0.25,95,102.0
5161,B-3,349.25,0.25,95,102.0
5162,A4,349.25,0.25,95,102.0
5163,E4,349.25,0.25,95,102.0
5164,C5,349.5,0.25,95,102.0
5165,F2,349.5,0.25,63,102.0
5166,A4,349.5,0.25,63,102.0
5167,B-4,349.75,0.75,95,102.0
5168,G1,349.75,0.25,95,102.0
5169,F4,349.75,1.25,95,102.0
5170,D4,349.75,1.25,95,102.0
5171,C4,349.75,1.25,95,102.0
5172,B-3,349.75,1.25,95,102.0
5173,F4,349.75,2.25,95,102.0
5174,D4,349.75,2.25,95,102.0
5175,C4,349.75,2.25,95,102.0
5176,B-3,349.75,2.25,95,102.0
5177,A4,349.75,0.25,79,102.0
5178,C2,349.75,0.25,79,102.0
5179,A4,350.0,0.25,63,102.0
5180,G1,350.25,0.25,95,102.0
5181,A4,350.25,0.25,79,102.0
5182,C2,350.25,0.25,79,102.0
5183,A4,350.5,0.25,63,102.0
5184,G1,350.75,0.25,95,102.0
5185,A4,350.75,0.25,79,102.0
5186,C2,350.75,0.25,79,102.0
5187,G1,351.0,0.75,95,102.0
5188,F4,351.0,1.0,95,102.0
5189,D4,351.0,1.0,95,102.0
5190,C4,351.0,1.0,95,102.0
5191,B-3,351.0,1.0,95,102.0
5192,A4,351.0,0.25,95,102.0
5193,D2,351.0,0.25,95,102.0
5194,A4,351.25,0.25,95,102.0
5195,C#4,351.25,0.25,95,102.0
5196,A4,351.5,0.25,84,102.0
5197,E-4,351.5,0.25,84,102.0
5198,C2,351.5,0.25,84,102.0
5199,G1,351.75,0.125,95,102.0
5200,A4,351.75,0.25,95,102.0
5201,G#1,352.0,0.25,95,102.0
5202,G4,352.0,1.0,95,102.0
5203,E-4,352.0,1.0,95,102.0
5204,C4,352.0,1.0,95,102.0
5205,G#3,352.0,1.0,95,102.0
5206,G4,352.0,1.75,95,102.0
5207,E-4,352.0,1.75,95,102.0
5208,C4,352.0,1.75,95,102.0
5209,G#3,352.0,1.75,95,102.0
5210,A4,352.0,0.25,87,102.0
5211,E-4,352.0,0.25,87,102.0
5212,C2,352.0,0.25,87,102.0
5213,E3,352.0,0.25,87,102.0
5214,F4,352.25,0.125,95,102.0
5215,G#1,352.25,0.25,63,102.0
5216,A4,352.25,0.25,95,102.0
5217,G4,352.375,0.125,95,102.0
5218,G#4,352.5,0.125,95,102.0
5219,G#1,352.5,0.25,95,102.0
5220,A4,352.5,0.25,63,102.0
5221,B-4,352.625,0.125,95,102.0
5222,C5,352.75,0.25,95,102.0
5223,G#1,352.75,0.25,63,102.0
5224,A4,352.75,0.25,79,102.0
5225,C2,352.75,0.25,79,102.0
5226,B-5,353.0,0.5,95,102.0
5227,A4,353.0,0.25,95,102.0
5228,D2,353.0,0.25,95,102.0
5229,E1,353.25,0.25,95,102.0
5230,G4,353.25,0.25,95,102.0
5231,E-4,353.25,0.25,95,102.0
5232,C4,353.25,0.25,95,102.0
5233,G#3,353.25,0.25,95,102.0
5234,A4,353.25,0.25,95,102.0
5235,E4,353.25,0.25,95,102.0
5236,B-5,353.5,0.25,95,102.0
5237,F#1,353.5,0.25,95,102.0
5238,A4,353.5,0.25,63,102.0
5239,F5,353.75,1.0,95,102.0
5240,B-1,353.75,0.25,95,102.0
5241,F4,353.75,1.25,95,102.0
5242,D4,353.75,1.25,95,102.0
5243,B-3,353.75,1.25,95,102.0
5244,G3,353.75,1.25,95,102.0
5245,F4,353.75,2.25,95,102.0
5246,D4,353.75,2.25,95,102.0
5247,B-3,353.75,2.25,95,102.0
5248,G3,353.75,2.25,95,102.0
5249,A4,353.75,0.25,79,102.0
5250,C2,353.75,0.25,79,102.0
5251,A4,354.0,0.25,63,102.0
5252,B-1,354.25,0.25,95,102.0
5253,A4,354.25,0.25,79,102.0
5254,C2,354.25,0.25,79,102.0
5255,A4,354.5,0.25,63,102.0
5256,B-1,354.75,0.25,95,102.0
5257,A4,354.75,0.25,79,102.0
5258,C2,354.75,0.25,79,102.0
5259,B-1,355.0,1.0,95,102.0
5260,F4,355.0,1.0,95,102.0
5261,D4,355.0,1.0,95,102.0
5262,B-3,355.0,1.0,95,102.0
5263,G3,355.0,1.0,95,102.0
5264,A4,355.0,0.25,95,102.0
5265,D2,355.0,0.25,95,102.0
5266,A4,355.25,0.25,95,102.0
5267,C#4,355.25,0.25,95,102.0
5268,A4,355.5,0.25,84,102.0
5269,E-4,355.5,0.25,84,102.0
5270,C2,355.5,0.25,84,102.0
5271,A4,355.75,0.25,95,102.0
5272,C2,356.0,0.25,63,102.0
5273,C5,356.0,2.0,95,102.0
5274,G4,356.0,2.0,95,102.0
5275,C4,356.0,2.0,95,102.0
5276,G5,356.0,2.0,79,102.0
5277,E-5,356.0,2.0,79,102.0
5278,C5,356.0,2.0,95,102.0
5279,G4,356.0,2.0,95,102.0
5280,C4,356.0,2.0,95,102.0
5281,G4,356.0,1.0,95,102.0
5282,E-4,356.0,1.0,95,102.0
5283,C4,356.0,1.0,95,102.0
5284,G#3,356.0,1.0,95,102.0
5285,G4,356.0,1.75,95,102.0
5286,E-4,356.0,1.75,95,102.0
5287,C4,356.0,1.75,95,102.0
5288,G#3,356.0,1.75,95,102.0
5289,A4,356.0,0.25,84,102.0
5290,E-4,356.0,0.25,84,102.0
5291,C2,356.0,0.25,84,102.0
5292,C2,356.25,0.25,95,102.0
5293,A4,356.25,0.25,95,102.0
5294,B-1,356.5,0.25,95,102.0
5295,A4,356.5,0.25,63,102.0
5296,C2,356.75,0.25,95,102.0
5297,A4,356.75,0.25,79,102.0
5298,C2,356.75,0.25,79,102.0
5299,A4,357.0,0.25,95,102.0
5300,D2,357.0,0.25,95,102.0
5301,C2,357.25,0.25,95,102.0
5302,G4,357.25,0.25,95,102.0
5303,E-4,357.25,0.25,95,102.0
5304,C4,357.25,0.25,95,102.0
5305,G#3,357.25,0.25,95,102.0
5306,A4,357.25,0.25,95,102.0
5307,E4,357.25,0.25,95,102.0
5308,B-1,357.5,0.25,95,102.0
5309,A4,357.5,0.25,63,102.0
5310,G1,357.75,0.25,79,102.0
5311,F4,357.75,1.25,95,102.0
5312,D4,357.75,1.25,95,102.0
5313,C4,357.75,1.25,95,102.0
5314,B-3,357.75,1.25,95,102.0
5315,F4,357.75,2.25,95,102.0
5316,D4,357.75,2.25,95,102.0
5317,C4,357.75,2.25,95,102.0
5318,B-3,357.75,2.25,95,102.0
5319,A4,357.75,0.25,79,102.0
5320,C2,357.75,0.25,79,102.0
5321,E-5,358.0,0.5,95,102.0
5322,F1,358.0,0.25,63,102.0
5323,A4,358.0,0.25,63,102.0
5324,D5,358.0,0.5,95,102.0
5325,B-4,358.0,0.5,95,102.0
5326,F4,358.0,0.5,95,102.0
5327,F5,358.0,0.5,84,102.0
5328,B-4,358.0,0.5,84,102.0
5329,F4,358.0,0.5,84,102.0
5330,E1,358.25,0.25,63,102.0
5331,A4,358.25,0.25,79,102.0
5332,C2,358.25,0.25,79,102.0
5333,F1,358.5,0.25,63,102.0
5334,A4,358.5,0.25,63,102.0
5335,F5,358.75,0.25,95,102.0
5336,G1,358.75,0.25,79,102.0
5337,E-5,358.75,0.25,95,102.0
5338,C5,358.75,0.25,95,102.0
5339,G4,358.75,0.25,95,102.0
5340,G5,358.75,0.25,84,102.0
5341,C5,358.75,0.25,84,102.0
5342,G4,358.75,0.25,84,102.0
5343,A4,358.75,0.25,79,102.0
5344,C2,358.75,0.25,79,102.0
5345,B-1,359.0,0.25,79,102.0
5346,F4,359.0,1.0,95,102.0
5347,D4,359.0,1.0,95,102.0
5348,C4,359.0,1.0,95,102.0
5349,B-3,359.0,1.0,95,102.0
5350,A4,359.0,0.25,95,102.0
5351,D2,359.0,0.25,95,102.0
5352,C2,359.25,0.25,79,102.0
5353,D5,359.25,0.75,95,102.0
5354,B-4,359.25,0.75,95,102.0
5355,F4,359.25,0.75,95,102.0
5356,G5,359.25,0.5,79,102.0
5357,E-5,359.25,0.5,79,102.0
5358,F5,359.25,0.75,84,102.0
5359,B-4,359.25,0.75,84,102.0
5360,F4,359.25,0.75,84,102.0
5361,A4,359.25,0.25,95,102.0
5362,C#4,359.25,0.25,95,102.0
5363,B-1,359.5,0.25,79,102.0
5364,A4,359.5,0.25,84,102.0
5365,E-4,359.5,0.25,84,102.0
5366,C2,359.5,0.25,84,102.0
5367,G1,359.75,0.25,63,102.0
5368,A4,359.75,0.25,95,102.0
5369,C2,360.0,0.25,63,102.0
5370,C5,360.0,2.0,95,102.0
5371,E-4,360.0,2.0,95,102.0
5372,C4,360.0,2.0,95,102.0
5373,G5,360.0,2.0,79,102.0
5374,E-5,360.0,2.0,79,102.0
5375,E-5,360.0,2.0,84,102.0
5376,G4,360.0,2.0,84,102.0
5377,C4,360.0,2.0,84,102.0
5378,G4,360.0,2.0,95,102.0
5379,E-4,360.0,2.0,95,102.0
5380,C4,360.0,2.0,95,102.0
5381,B-3,360.0,2.0,95,102.0
5382,G4,360.0,2.0,95,102.0
5383,E-4,360.0,2.0,95,102.0
5384,C4,360.0,2.0,95,102.0
5385,B-3,360.0,2.0,95,102.0
5386,A4,360.0,0.25,84,102.0
5387,E-4,360.0,0.25,84,102.0
5388,C2,360.0,0.25,84,102.0
5389,C2,360.25,0.25,95,102.0
5390,A4,360.25,0.25,95,102.0
5391,B-1,360.5,0.25,95,102.0
5392,A4,360.5,0.25,63,102.0
5393,C2,360.75,0.25,95,102.0
5394,A4,360.75,0.25,79,102.0
5395,C2,360.75,0.25,79,102.0
5396,A4,361.0,0.25,95,102.0
5397,D2,361.0,0.25,95,102.0
5398,C2,361.25,0.25,95,102.0
5399,A4,361.25,0.25,95,102.0
5400,E4,361.25,0.25,95,102.0
5401,B-1,361.5,0.25,95,102.0
5402,A4,361.5,0.25,63,102.0
5403,G1,361.75,0.25,95,102.0
5404,A4,361.75,0.25,79,102.0
5405,C2,361.75,0.25,79,102.0
5406,E-5,362.0,1.25,95,102.0
5407,G#1,362.0,1.25,95,102.0
5408,A4,362.0,0.25,63,102.0
5409,G#4,362.0,1.25,95,102.0
5410,E-4,362.0,1.25,95,102.0
5411,C4,362.0,1.25,95,102.0
5412,G#4,362.0,1.25,95,102.0
5413,E-4,362.0,1.25,95,102.0
5414,C4,362.0,1.25,95,102.0
5415,F4,362.0,0.75,95,102.0
5416,D4,362.0,0.75,95,102.0
5417,C4,362.0,0.75,95,102.0
5418,B-3,362.0,0.75,95,102.0
5419,F4,362.0,0.75,95,102.0
5420,D4,362.0,0.75,95,102.0
5421,C4,362.0,0.75,95,102.0
5422,B-3,362.0,0.75,95,102.0
5423,A4,362.25,0.25,79,102.0
5424,C2,362.25,0.25,79,102.0
5425,A4,362.5,0.25,63,102.0
5426,F4,362.75,0.75,95,102.0
5427,D4,362.75,0.75,95,102.0
5428,C4,362.75,0.75,95,102.0
5429,B-3,362.75,0.75,95,102.0
5430,F4,362.75,0.75,95,102.0
5431,D4,362.75,0.75,95,102.0
5432,C4,362.75,0.75,95,102.0
5433,B-3,362.75,0.75,95,102.0
5434,A4,362.75,0.25,79,102.0
5435,C2,362.75,0.25,79,102.0
5436,A4,363.0,0.25,95,102.0
5437,D2,363.0,0.25,95,102.0
5438,D5,363.25,0.25,95,102.0
5439,B-1,363.25,0.25,95,102.0
5440,B-4,363.25,0.25,95,102.0
5441,F4,363.25,0.25,95,102.0
5442,B-3,363.25,0.25,95,102.0
5443,D5,363.25,0.25,95,102.0
5444,F4,363.25,0.25,95,102.0
5445,B-3,363.25,0.25,95,102.0
5446,A4,363.25,0.25,95,102.0
5447,C#4,363.25,0.25,95,102.0
5448,F4,363.5,0.5,95,102.0
5449,D4,363.5,0.5,95,102.0
5450,C4,363.5,0.5,95,102.0
5451,B-3,363.5,0.5,95,102.0
5452,F4,363.5,0.5,95,102.0
5453,D4,363.5,0.5,95,102.0
5454,C4,363.5,0.5,95,102.0
5455,B-3,363.5,0.5,95,102.0
5456,A4,363.5,0.25,84,102.0
5457,E-4,363.5,0.25,84,102.0
5458,C2,363.5,0.25,84,102.0
5459,C2,363.75,0.25,95,102.0
5460,A4,363.75,0.25,95,102.0
5461,C5,363.75,0.25,95,102.0
5462,G4,363.75,0.25,95,102.0
5463,C4,363.75,0.25,95,102.0
5464,G5,363.75,0.25,79,102.0
5465,E-5,363.75,0.25,79,102.0
5466,C5,363.75,0.25,95,102.0
5467,G4,363.75,0.25,95,102.0
5468,C4,363.75,0.25,95,102.0
5469,C2,364.0,0.25,95,102.0
5470,C5,364.0,2.0,95,102.0
5471,G4,364.0,2.0,95,102.0
5472,C4,364.0,2.0,95,102.0
5473,G5,364.0,2.0,79,102.0
5474,E-5,364.0,2.0,79,102.0
5475,C5,364.0,2.0,95,102.0
5476,G4,364.0,2.0,95,102.0
5477,C4,364.0,2.0,95,102.0
5478,G4,364.0,2.0,95,102.0
5479,E-4,364.0,2.0,95,102.0
5480,C4,364.0,2.0,95,102.0
5481,B-3,364.0,2.0,95,102.0
5482,G4,364.0,2.0,95,102.0
5483,E-4,364.0,2.0,95,102.0
5484,C4,364.0,2.0,95,102.0
5485,B-3,364.0,2.0,95,102.0
5486,A4,364.0,0.25,84,102.0
5487,E-4,364.0,0.25,84,102.0
5488,C2,364.0,0.25,84,102.0
5489,C2,364.25,0.25,95,102.0
5490,A4,364.25,0.25,95,102.0
5491,B-1,364.5,0.25,95,102.0
5492,A4,364.5,0.25,63,102.0
5493,C2,364.75,0.25,95,102.0
5494,A4,364.75,0.25,79,102.0
5495,C2,364.75,0.25,79,102.0
5496,A4,365.0,0.25,95,102.0
5497,D2,365.0,0.25,95,102.0
5498,C2,365.25,0.25,95,102.0
5499,A4,365.25,0.25,95,102.0
5500,E4,365.25,0.25,95,102.0
5501,B-1,365.5,0.25,95,102.0
5502,A4,365.5,0.25,63,102.0
5503,G1,365.75,0.25,79,102.0
5504,A4,365.75,0.25,79,102.0
5505,C2,365.75,0.25,79,102.0
5506,E-5,366.0,0.5,95,102.0
5507,B-1,366.0,0.75,95,102.0
5508,A4,366.0,0.25,95,102.0
5509,D5,366.0,0.5,95,102.0
5510,B-4,366.0,0.5,95,102.0
5511,F4,366.0,0.5,95,102.0
5512,F5,366.0,0.5,84,102.0
5513,B-4,366.0,0.5,84,102.0
5514,F4,366.0,0.5,84,102.0
5515,G4,366.0,1.25,95,102.0
5516,E-4,366.0,1.25,95,102.0
5517,C4,366.0,1.25,95,102.0
5518,B-3,366.0,1.25,95,102.0
5519,G4,366.0,1.25,95,102.0
5520,E-4,366.0,1.25,95,102.0
5521,C4,366.0,1.25,95,102.0
5522,B-3,366.0,1.25,95,102.0
5523,A4,366.25,0.125,68,102.0
5524,C3,366.25,0.125,68,102.0
5525,E2,366.25,0.125,68,102.0
5526,B2,366.375,0.125,71,102.0
5527,E2,366.375,0.125,71,102.0
5528,A4,366.5,0.25,74,102.0
5529,G2,366.5,0.25,74,102.0
5530,E2,366.5,0.25,74,102.0
5531,E-5,366.75,0.25,95,102.0
5532,F#1,366.75,0.25,95,102.0
5533,E-5,366.75,0.25,95,102.0
5534,C5,366.75,0.25,95,102.0
5535,G4,366.75,0.25,95,102.0
5536,G5,366.75,0.25,84,102.0
5537,C5,366.75,0.25,84,102.0
5538,G4,366.75,0.25,84,102.0
5539,A4,366.75,0.25,74,102.0
5540,B2,366.75,0.25,74,102.0
5541,E2,366.75,0.25,74,102.0
5542,A4,367.0,0.25,84,102.0
5543,A2,367.0,0.25,84,102.0
5544,E2,367.0,0.25,84,102.0
5545,D5,367.25,0.5,95,102.0
5546,B-1,367.25,0.25,95,102.0
5547,D5,367.25,0.75,95,102.0
5548,B-4,367.25,0.75,95,102.0
5549,F4,367.25,0.75,95,102.0
5550,F5,367.25,0.75,84,102.0
5551,B-4,367.25,0.75,84,102.0
5552,F4,367.25,0.75,84,102.0
5553,F4,367.25,0.25,95,102.0
5554,D4,367.25,0.25,95,102.0
5555,C4,367.25,0.25,95,102.0
5556,B-3,367.25,0.25,95,102.0
5557,F4,367.25,0.25,95,102.0
5558,D4,367.25,0.25,95,102.0
5559,C4,367.25,0.25,95,102.0
5560,B-3,367.25,0.25,95,102.0
5561,A4,367.25,0.25,87,102.0
5562,C#4,367.25,0.25,87,102.0
5563,C3,367.25,0.25,87,102.0
5564,E2,367.25,0.25,87,102.0
5565,A4,367.5,0.25,79,102.0
5566,E-4,367.5,0.25,79,102.0
5567,B2,367.5,0.25,79,102.0
5568,E2,367.5,0.25,79,102.0
5569,G4,367.75,0.25,95,102.0
5570,E-4,367.75,0.25,95,102.0
5571,C4,367.75,0.25,95,102.0
5572,B-3,367.75,0.25,95,102.0
5573,G4,367.75,0.25,95,102.0
5574,E-4,367.75,0.25,95,102.0
5575,C4,367.75,0.25,95,102.0
5576,B-3,367.75,0.25,95,102.0
5577,A4,367.75,0.25,74,102.0
5578,A2,367.75,0.25,74,102.0
5579,E2,367.75,0.25,74,102.0
5580,C2,368.0,0.25,95,102.0
5581,C5,368.0,3.25,95,102.0
5582,G4,368.0,3.25,95,102.0
5583,C4,368.0,3.25,95,102.0
5584,G5,368.0,3.25,79,102.0
5585,E-5,368.0,3.25,79,102.0
5586,C5,368.0,3.25,95,102.0
5587,G4,368.0,3.25,95,102.0
5588,C4,368.0,3.25,95,102.0
5589,G4,368.0,2.0,95,102.0
5590,E-4,368.0,2.0,95,102.0
5591,C4,368.0,2.0,95,102.0
5592,B-3,368.0,2.0,95,102.0
5593,G4,368.0,2.0,95,102.0
5594,E-4,368.0,2.0,95,102.0
5595,C4,368.0,2.0,95,102.0
5596,B-3,368.0,2.0,95,102.0
5597,A4,368.0,0.25,95,102.0
5598,E-4,368.0,0.25,95,102.0
5599,C2,368.0,0.25,95,102.0
5600,E3,368.0,0.25,95,102.0
5601,B-1,368.25,0.25,63,102.0
5602,A4,368.25,0.25,79,102.0
5603,C2,368.5,0.25,95,102.0
5604,A4,368.5,0.25,63,102.0
5605,B-1,368.75,0.25,63,102.0
5606,A4,368.75,0.25,87,102.0
5607,C2,368.75,0.25,87,102.0
5608,C2,369.0,0.25,95,102.0
5609,A4,369.0,0.25,95,102.0
5610,D2,369.0,0.25,95,102.0
5611,B-1,369.25,0.25,63,102.0
5612,A4,369.25,0.25,87,102.0
5613,E4,369.25,0.25,87,102.0
5614,A4,369.5,0.25,63,102.0
5615,C2,369.75,0.25,95,102.0
5616,A4,369.75,0.25,87,102.0
5617,C2,369.75,0.25,87,102.0
5618,A4,370.0,0.25,95,102.0
5619,F4,370.0,0.75,95,102.0
5620,D4,370.0,0.75,95,102.0
5621,C4,370.0,0.75,95,102.0
5622,B-3,370.0,0.75,95,102.0
5623,F4,370.0,0.75,95,102.0
5624,D4,370.0,0.75,95,102.0
5625,C4,370.0,0.75,95,102.0
5626,B-3,370.0,0.75,95,102.0
5627,C2,370.25,0.25,95,102.0
5628,A4,370.25,0.25,87,102.0
5629,C2,370.25,0.25,87,102.0
5630,A4,370.5,0.25,63,102.0
5631,C2,370.75,0.5,95,102.0
5632,F4,370.75,0.75,95,102.0
5633,D4,370.75,0.75,95,102.0
5634,C4,370.75,0.75,95,102.0
5635,B-3,370.75,0.75,95,102.0
5636,F4,370.75,0.75,95,102.0
5637,D4,370.75,0.75,95,102.0
5638,C4,370.75,0.75,95,102.0
5639,B-3,370.75,0.75,95,102.0
5640,A4,370.75,0.25,87,102.0
5641,C2,370.75,0.25,87,102.0
5642,A4,371.0,0.25,95,102.0
5643,D2,371.0,0.25,95,102.0
5644,F5,371.25,0.25,79,102.0
5645,B-1,371.25,0.25,95,102.0
5646,B-4,371.25,0.25,95,102.0
5647,F4,371.25,0.25,95,102.0
5648,B-3,371.25,0.25,95,102.0
5649,D5,371.25,0.25,95,102.0
5650,F4,371.25,0.25,95,102.0
5651,B-3,371.25,0.25,95,102.0
5652,A4,371.25,0.25,87,102.0
5653,C#4,371.25,0.25,87,102.0
5654,F4,371.5,0.5,95,102.0
5655,D4,371.5,0.5,95,102.0
5656,C4,371.5,0.5,95,102.0
5657,B-3,371.5,0.5,95,102.0
5658,F4,371.5,0.5,95,102.0
5659,D4,371.5,0.5,95,102.0
5660,C4,371.5,0.5,95,102.0
5661,B-3,371.5,0.5,95,102.0
5662,A4,371.5,0.25,84,102.0
5663,E-4,371.5,0.25,84,102.0
5664,C2,371.5,0.25,84,102.0
5665,E-5,371.75,0.25,95,102.0
5666,G#1,371.75,0.25,95,102.0
5667,A4,371.75,0.25,79,102.0
5668,G#4,371.75,0.25,95,102.0
5669,E-4,371.75,0.25,95,102.0
5670,C4,371.75,0.25,95,102.0
5671,C5,371.75,0.25,95,102.0
5672,E-4,371.75,0.25,95,102.0
5673,C4,371.75,0.25,95,102.0
5674,E-5,372.0,3.25,95,102.0
5675,G#1,372.0,0.25,95,102.0
5676,G#4,372.0,3.25,95,102.0
5677,E-4,372.0,3.25,95,102.0
5678,C4,372.0,3.25,95,102.0
5679,C5,372.0,3.25,95,102.0
5680,E-4,372.0,3.25,95,102.0
5681,C4,372.0,3.25,95,102.0
5682,G4,372.0,3.25,95,102.0
5683,E-4,372.0,3.25,95,102.0
5684,C4,372.0,3.25,95,102.0
5685,B-3,372.0,3.25,95,102.0
5686,G4,372.0,3.25,95,102.0
5687,E-4,372.0,3.25,95,102.0
5688,C4,372.0,3.25,95,102.0
5689,B-3,372.0,3.25,95,102.0
5690,A4,372.0,0.25,84,102.0
5691,E-4,372.0,0.25,84,102.0
5692,C2,372.0,0.25,84,102.0
5693,A4,372.25,0.25,95,102.0
5694,G#1,372.5,0.25,95,102.0
5695,A4,372.5,0.25,63,102.0
5696,G#1,372.75,0.25,63,102.0
5697,A4,372.75,0.25,79,102.0
5698,C2,372.75,0.25,79,102.0
5699,B-1,373.0,0.25,95,102.0
5700,A4,373.0,0.25,95,102.0
5701,D2,373.0,0.25,95,102.0
5702,G#1,373.25,0.25,95,102.0
5703,A4,373.25,0.25,95,102.0
5704,E4,373.25,0.25,95,102.0
5705,A4,373.5,0.25,63,102.0
5706,G#1,373.75,0.25,95,102.0
5707,A4,373.75,0.25,79,102.0
5708,C2,373.75,0.25,79,102.0
5709,A4,374.0,0.25,63,102.0
5710,G#1,374.25,0.25,95,102.0
5711,A4,374.25,0.25,79,102.0
5712,C2,374.25,0.25,79,102.0
5713,A4,374.5,0.25,63,102.0
5714,G#1,374.75,0.25,95,102.0
5715,A4,374.75,0.25,79,102.0
5716,C2,374.75,0.25,79,102.0
5717,A4,375.0,0.25,95,102.0
5718,C#2,375.0,0.25,95,102.0
5719,D5,375.25,0.25,95,102.0
5720,G1,375.25,0.25,95,102.0
5721,B-4,375.25,0.25,95,102.0
5722,F4,375.25,0.25,95,102.0
5723,B-3,375.25,0.25,95,102.0
5724,D5,375.25,0.25,95,102.0
5725,F4,375.25,0.25,95,102.0
5726,B-3,375.25,0.25,95,102.0
5727,F4,375.25,0.25,95,102.0
5728,D4,375.25,0.25,95,102.0
5729,B-3,375.25,0.25,95,102.0
5730,F4,375.25,0.25,95,102.0
5731,D4,375.25,0.25,95,102.0
5732,B-3,375.25,0.25,95,102.0
5733,A4,375.25,0.25,95,102.0
5734,C2,375.25,0.25,95,102.0
5735,C#3,375.25,0.25,95,102.0
5736,A4,375.5,0.25,63,102.0
5737,C5,375.75,0.25,95,102.0
5738,F1,375.75,0.25,95,102.0
5739,G#4,375.75,0.25,95,102.0
5740,E-4,375.75,0.25,95,102.0
5741,C4,375.75,0.25,95,102.0
5742,C5,375.75,0.25,95,102.0
5743,E-4,375.75,0.25,95,102.0
5744,C4,375.75,0.25,95,102.0
5745,E-4,375.75,0.25,95,102.0
5746,C4,375.75,0.25,95,102.0
5747,G#3,375.75,0.25,95,102.0
5748,E-4,375.75,0.25,95,102.0
5749,C4,375.75,0.25,95,102.0
5750,G#3,375.75,0.25,95,102.0
5751,A4,375.75,0.25,95,102.0
5752,C2,375.75,0.25,95,102.0
5753,C#3,375.75,0.25,95,102.0
5754,C5,376.0,4.0,95,102.0
5755,F1,376.0,4.0,95,102.0
5756,G#4,376.0,4.0,95,102.0
5757,E-4,376.0,4.0,95,102.0
5758,C4,376.0,4.0,95,102.0
5759,C5,376.0,4.0,95,102.0
5760,E-4,376.0,4.0,95,102.0
5761,C4,376.0,4.0,95,102.0
5762,E-4,376.0,3.25,95,102.0
5763,C4,376.0,3.25,95,102.0
5764,G#3,376.0,3.25,95,102.0
5765,E-4,376.0,3.25,95,102.0
5766,C4,376.0,3.25,95,102.0
5767,G#3,376.0,3.25,95,102.0
5768,A4,376.0,0.25,95,102.0
5769,E-4,376.0,0.25,95,102.0
5770,C2,376.0,0.25,95,102.0
5771,A4,376.25,0.25,79,102.0
5772,A4,376.5,0.25,63,102.0
5773,A4,376.75,0.25,87,102.0
5774,C2,376.75,0.25,87,102.0
5775,A4,377.0,0.25,95,102.0
5776,D2,377.0,0.25,95,102.0
5777,A4,377.25,0.25,87,102.0
5778,E4,377.25,0.25,87,102.0
5779,A4,377.5,0.25,63,102.0
5780,A4,377.75,0.25,87,102.0
5781,C2,377.75,0.25,87,102.0
5782,A4,378.0,0.25,95,102.0
5783,A4,378.25,0.25,87,102.0
5784,C2,378.25,0.25,87,102.0
5785,A4,378.5,0.25,63,102.0
5786,A4,378.75,0.25,87,102.0
5787,C2,378.75,0.25,87,102.0
5788,A4,379.0,0.25,95,102.0
5789,D2,379.0,0.25,95,102.0
5790,F4,379.25,0.25,95,102.0
5791,D4,379.25,0.25,95,102.0
5792,B-3,379.25,0.25,95,102.0
5793,F4,379.25,0.25,95,102.0
5794,D4,379.25,0.25,95,102.0
5795,B-3,379.25,0.25,95,102.0
5796,A4,379.25,0.25,87,102.0
5797,C#4,379.25,0.25,87,102.0
5798,A4,379.5,0.25,84,102.0
5799,E-4,379.5,0.25,84,102.0
5800,C2,379.5,0.25,84,102.0
5801,A4,379.75,0.25,79,102.0
5802,E-4,379.75,0.25,95,102.0
5803,C4,379.75,0.25,95,102.0
5804,G#3,379.75,0.25,95,102.0
5805,E-4,379.75,0.25,95,102.0
5806,C4,379.75,0.25,95,102.0
5807,G#3,379.75,0.25,95,102.0
5808,F1,380.0,4.0,95,102.0
5809,E-6,380.0,0.75,95,102.0
5810,E-5,380.0,0.75,95,102.0
5811,E-4,380.0,4.0,95,102.0
5812,C4,380.0,4.0,95,102.0
5813,G#3,380.0,4.0,95,102.0
5814,E-4,380.0,4.0,95,102.0
5815,C4,380.0,4.0,95,102.0
5816,G#3,380.0,4.0,95,102.0
5817,A4,380.0,0.25,84,102.0
5818,E-4,380.0,0.25,84,102.0
5819,C2,380.0,0.25,84,102.0
5820,A4,380.25,0.25,95,102.0
5821,A4,380.5,0.25,63,102.0
5822,D6,380.75,0.75,95,102.0
5823,D5,380.75,0.75,95,102.0
5824,A4,380.75,0.25,79,102.0
5825,C2,380.75,0.25,79,102.0
5826,A4,381.0,0.25,95,102.0
5827,D2,381.0,0.25,95,102.0
5828,A4,381.25,0.25,95,102.0
5829,E4,381.25,0.25,95,102.0
5830,A4,381.5,0.25,63,102.0
5831,B-5,381.5,0.5,95,102.0
5832,B-4,381.5,0.5,95,102.0
5833,A4,381.75,0.25,79,102.0
5834,C2,381.75,0.25,79,102.0
5835,A4,382.0,0.25,63,102.0
5836,G5,382.0,0.75,95,102.0
5837,G4,382.0,0.75,95,102.0
5838,A4,382.25,0.25,79,102.0
5839,C2,382.25,0.25,79,102.0
5840,A4,382.5,0.25,63,102.0
5841,C6,382.75,0.75,95,102.0
5842,C5,382.75,0.75,95,102.0
5843,A4,382.75,0.25,79,102.0
5844,C2,382.75,0.25,79,102.0
5845,A4,383.0,0.25,95,102.0
5846,C#2,383.0,0.25,95,102.0
5847,A4,383.25,0.25,95,102.0
5848,C2,383.25,0.25,95,102.0
5849,C#3,383.25,0.25,95,102.0
5850,A4,383.5,0.25,63,102.0
5851,B-5,383.5,0.5,95,102.0
5852,B-4,383.5,0.5,95,102.0
5853,A4,383.75,0.25,95,102.0
5854,C2,383.75,0.25,95,102.0
5855,C#3,383.75,0.25,95,102.0
5856,B1,384.0,0.25,63,102.0
5857,A4,384.0,0.25,95,102.0
5858,E-4,384.0,0.25,95,102.0
5859,B1,384.25,0.25,95,102.0
5860,A4,384.25,0.25,79,102.0
5861,A1,384.5,0.25,95,102.0
5862,A4,384.5,0.25,63,102.0
5863,F1,384.75,0.25,63,102.0
5864,A4,384.75,0.25,87,102.0
5865,C2,384.75,0.25,87,102.0
5866,E1,385.0,0.25,95,102.0
5867,A4,385.0,0.25,95,102.0
5868,D2,385.0,0.25,95,102.0
5869,F1,385.25,0.25,95,102.0
5870,B5,385.25,0.25,95,102.0
5871,B4,385.25,0.25,95,102.0
5872,A4,385.25,0.25,87,102.0
5873,E4,385.25,0.25,87,102.0
5874,A1,385.5,0.25,95,102.0
5875,A4,385.5,0.25,63,102.0
5876,C#6,385.5,0.25,95,102.0
5877,C#5,385.5,0.25,95,102.0
5878,B1,385.75,0.25,95,102.0
5879,D6,385.75,0.5,95,102.0
5880,D5,385.75,0.5,95,102.0
5881,A4,385.75,0.25,87,102.0
5882,C2,385.75,0.25,87,102.0
5883,A4,386.0,0.25,63,102.0
5884,B1,386.25,0.25,95,102.0
5885,C#6,386.25,0.5,95,102.0
5886,C#5,386.25,0.5,95,102.0
5887,A4,386.25,0.25,87,102.0
5888,C2,386.25,0.25,87,102.0
5889,A4,386.5,0.25,63,102.0
5890,B1,386.75,0.25,95,102.0
5891,A5,386.75,0.5,95,102.0
5892,A4,386.75,0.5,95,102.0
5893,A4,386.75,0.25,87,102.0
5894,C2,386.75,0.25,87,102.0
5895,A1,387.0,0.25,79,102.0
5896,A4,387.0,0.25,95,102.0
5897,C#2,387.0,0.25,95,102.0
5898,F#1,387.25,0.25,79,102.0
5899,F#5,387.25,0.75,95,102.0
5900,F#4,387.25,0.75,95,102.0
5901,A4,387.25,0.25,90,102.0
5902,C2,387.25,0.25,90,102.0
5903,C#3,387.25,0.25,90,102.0
5904,F1,387.5,0.25,63,102.0
5905,A4,387.5,0.25,63,102.0
5906,F#1,387.75,0.25,95,102.0
5907,A4,387.75,0.25,90,102.0
5908,C2,387.75,0.25,90,102.0
5909,C#3,387.75,0.25,90,102.0
5910,B1,388.0,0.25,63,102.0
5911,F#5,388.0,0.75,95,102.0
5912,F#4,388.0,0.75,95,102.0
5913,E-4,388.0,4.0,95,102.0
5914,C4,388.0,4.0,95,102.0
5915,G#3,388.0,4.0,95,102.0
5916,E-4,388.0,4.0,95,102.0
5917,C4,388.0,4.0,95,102.0
5918,G#3,388.0,4.0,95,102.0
5919,B1,388.25,0.25,95,102.0
5920,A1,388.5,0.25,95,102.0
5921,F1,388.75,0.25,63,102.0
5922,B5,388.75,0.75,95,102.0
5923,B4,388.75,0.75,95,102.0
5924,E1,389.0,0.25,95,102.0
5925,F1,389.25,0.25,95,102.0
5926,A1,389.5,0.25,95,102.0
5927,A5,389.5,1.0,95,102.0
5928,A4,389.5,1.0,95,102.0
5929,B1,389.75,0.25,95,102.0
5930,F#2,390.25,0.25,63,102.0
5931,B1,390.25,0.25,95,102.0
5932,C#4,390.5,0.25,58,102.0
5933,B3,390.5,0.25,58,102.0
5934,B2,390.5,0.25,58,102.0
5935,B1,390.75,0.25,95,102.0
5936,A1,391.0,0.25,79,102.0
5937,C#4,391.0,1.0,58,102.0
5938,B3,391.0,1.0,58,102.0
5939,B2,391.0,1.0,58,102.0
5940,F#1,391.25,0.25,79,102.0
5941,F1,391.5,0.25,63,102.0
5942,E1,391.75,0.25,95,102.0
5943,B1,392.0,0.25,63,102.0
5944,F#4,392.0,3.0,95,102.0
5945,D4,392.0,3.0,95,102.0
5946,C#4,392.0,3.0,95,102.0
5947,A3,392.0,3.0,95,102.0
5948,F#4,392.0,4.0,95,102.0
5949,D4,392.0,4.0,95,102.0
5950,C#4,392.0,4.0,95,102.0
5951,A3,392.0,4.0,95,102.0
5952,B1,392.25,0.25,95,102.0
5953,A1,392.5,0.25,95,102.0
5954,F1,392.75,0.25,63,102.0
5955,A4,392.75,4.0,90,102.0
5956,C2,392.75,4.0,90,102.0
5957,C#3,392.75,4.0,90,102.0
5958,E1,393.0,0.25,95,102.0
5959,F1,393.25,0.25,95,102.0
5960,B5,393.25,0.25,95,102.0
5961,B4,393.25,0.25,95,102.0
5962,A1,393.5,0.25,95,102.0
5963,C#6,393.5,0.25,95,102.0
5964,C#5,393.5,0.25,95,102.0
5965,B1,393.75,0.25,95,102.0
5966,D6,393.75,0.5,95,102.0
5967,D5,393.75,0.5,95,102.0
5968,B1,394.25,0.25,95,102.0
5969,E6,394.25,0.5,95,102.0
5970,E5,394.25,0.5,95,102.0
5971,B1,394.75,0.25,95,102.0
5972,C#6,394.75,0.5,95,102.0
5973,C#5,394.75,0.5,95,102.0
5974,A1,395.0,0.25,79,102.0
5975,E4,395.0,1.0,95,102.0
5976,C#4,395.0,1.0,95,102.0
5977,A3,395.0,1.0,95,102.0
5978,F#1,395.25,0.25,79,102.0
5979,A5,395.25,0.75,95,102.0
5980,A4,395.25,0.75,95,102.0
5981,F1,395.5,0.25,63,102.0
5982,E1,395.75,0.25,95,102.0
5983,G1,396.0,0.25,63,102.0
5984,F#5,396.0,0.75,95,102.0
5985,F#4,396.0,0.75,95,102.0
5986,F#4,396.0,3.0,95,102.0
5987,D4,396.0,3.0,95,102.0
5988,C#4,396.0,3.0,95,102.0
5989,A3,396.0,3.0,95,102.0
5990,F#4,396.0,4.0,95,102.0
5991,D4,396.0,4.0,95,102.0
5992,C#4,396.0,4.0,95,102.0
5993,A3,396.0,4.0,95,102.0
5994,G1,396.25,0.25,95,102.0
5995,F1,396.5,0.25,79,102.0
5996,E1,396.75,0.25,95,102.0
5997,B5,396.75,0.75,95,102.0
5998,B4,396.75,0.75,95,102.0
5999,G1,397.0,0.25,95,102.0
6000,F1,397.25,0.25,79,102.0
6001,F1,397.5,0.25,79,102.0
6002,A5,397.5,1.0,95,102.0
6003,A4,397.5,1.0,95,102.0
6004,A4,397.5,0.75,90,102.0
6005,C2,397.5,0.75,90,102.0
6006,C#3,397.5,0.75,90,102.0
6007,G1,397.75,0.25,95,102.0
6008,F#2,398.25,0.25,63,102.0
6009,G1,398.25,0.25,95,102.0
6010,C3,398.25,0.25,95,102.0
6011,C3,398.5,0.25,95,102.0
6012,C#4,398.5,0.25,58,102.0
6013,B3,398.5,0.25,58,102.0
6014,B2,398.5,0.25,58,102.0
6015,G1,398.75,0.25,95,102.0
6016,F1,399.0,0.25,95,102.0
6017,C#4,399.0,1.0,58,102.0
6018,B3,399.0,1.0,58,102.0
6019,B2,399.0,1.0,58,102.0
6020,E4,399.0,1.0,95,102.0
6021,C#4,399.0,1.0,95,102.0
6022,A3,399.0,1.0,95,102.0
6023,B5,399.5,0.25,95,102.0
6024,B4,399.5,0.25,95,102.0
6025,C#6,399.75,0.25,95,102.0
6026,C#5,399.75,0.25,95,102.0
6027,E1,400.0,0.25,63,102.0
6028,D6,400.0,0.5,95,102.0
6029,D5,400.0,0.5,95,102.0
6030,F#4,400.0,3.0,95,102.0
6031,D4,400.0,3.0,95,102.0
6032,C#4,400.0,3.0,95,102.0
6033,A3,400.0,3.0,95,102.0
6034,F#4,400.0,4.0,95,102.0
6035,D4,400.0,4.0,95,102.0
6036,C#4,400.0,4.0,95,102.0
6037,A3,400.0,4.0,95,102.0
6038,C3,400.125,0.125,47,102.0
6039,E2,400.125,0.125,47,102.0
6040,E1,400.25,0.25,95,102.0
6041,B2,400.25,0.125,63,102.0
6042,E2,400.25,0.125,63,102.0
6043,A2,400.375,0.125,63,102.0
6044,E2,400.375,0.125,63,102.0
6045,F#1,400.5,0.25,95,102.0
6046,D6,400.5,0.25,95,102.0
6047,D5,400.5,0.25,95,102.0
6048,C3,400.5,0.25,79,102.0
6049,E2,400.5,0.25,79,102.0
6050,E1,400.75,0.25,95,102.0
6051,D6,400.75,0.5,95,102.0
6052,D5,400.75,0.5,95,102.0
6053,B2,400.75,0.25,79,102.0
6054,E2,400.75,0.25,79,102.0
6055,E1,401.0,0.25,95,102.0
6056,A2,401.0,0.25,79,102.0
6057,E2,401.0,0.25,79,102.0
6058,E1,401.25,0.25,95,102.0
6059,B5,401.25,0.5,95,102.0
6060,B4,401.25,0.5,95,102.0
6061,G2,401.25,0.25,63,102.0
6062,E2,401.25,0.25,63,102.0
6063,E1,401.5,0.25,95,102.0
6064,A4,401.5,0.25,79,102.0
6065,E-4,401.5,0.25,79,102.0
6066,C2,401.5,0.25,79,102.0
6067,E3,401.5,0.25,79,102.0
6068,F#1,401.75,0.5,95,102.0
6069,A4,401.75,0.25,95,102.0
6070,C#6,401.75,1.0,95,102.0
6071,C#5,401.75,1.0,95,102.0
6072,A4,402.0,0.25,63,102.0
6073,D4,402.25,0.25,63,102.0
6074,A4,402.25,0.25,79,102.0
6075,C2,402.25,0.25,79,102.0
6076,C#4,402.5,0.25,63,102.0
6077,A4,402.5,0.25,95,102.0
6078,D2,402.5,0.25,95,102.0
6079,B3,402.75,0.25,63,102.0
6080,A1,402.75,0.25,95,102.0
6081,A4,402.75,0.25,95,102.0
6082,E4,402.75,0.25,95,102.0
6083,A3,403.0,1.0,63,102.0
6084,C2,403.0,0.25,95,102.0
6085,A4,403.0,0.25,63,102.0
6086,E4,403.0,1.0,95,102.0
6087,C#4,403.0,1.0,95,102.0
6088,A3,403.0,1.0,95,102.0
6089,A4,403.25,0.25,79,102.0
6090,C2,403.25,0.25,79,102.0
6091,A4,403.5,0.25,63,102.0
6092,D6,403.5,0.25,95,102.0
6093,D5,403.5,0.25,95,102.0
6094,E6,403.75,0.25,95,102.0
6095,E5,403.75,0.25,95,102.0
6096,A4,403.75,0.25,79,102.0
6097,C2,403.75,0.25,79,102.0
6098,G1,404.0,1.5,95,102.0
6099,A4,404.0,0.25,63,102.0
6100,F#6,404.0,0.5,95,102.0
6101,F#5,404.0,0.5,95,102.0
6102,F#4,404.0,3.0,95,102.0
6103,D4,404.0,3.0,95,102.0
6104,B3,404.0,3.0,95,102.0
6105,G3,404.0,3.0,95,102.0
6106,F#4,404.0,4.0,95,102.0
6107,D4,404.0,4.0,95,102.0
6108,B3,404.0,4.0,95,102.0
6109,G3,404.0,4.0,95,102.0
6110,A4,404.25,0.25,79,102.0
6111,C2,404.25,0.25,79,102.0
6112,G6,404.5,0.25,95,102.0
6113,G5,404.5,0.25,95,102.0
6114,A4,404.5,0.25,95,102.0
6115,D2,404.5,0.25,95,102.0
6116,F#6,404.75,0.5,95,102.0
6117,F#5,404.75,0.5,95,102.0
6118,A4,404.75,0.25,95,102.0
6119,C#4,404.75,0.25,95,102.0
6120,A4,405.0,0.25,84,102.0
6121,E-4,405.0,0.25,84,102.0
6122,C2,405.0,0.25,84,102.0
6123,A4,405.25,0.25,95,102.0
6124,D6,405.25,0.5,95,102.0
6125,D5,405.25,0.5,95,102.0
6126,G1,405.5,0.125,95,102.0
6127,A4,405.5,0.25,84,102.0
6128,E-4,405.5,0.25,84,102.0
6129,C2,405.5,0.25,84,102.0
6130,B1,405.75,0.25,95,102.0
6131,A4,405.75,0.25,95,102.0
6132,E6,405.75,0.5,95,102.0
6133,E5,405.75,0.5,95,102.0
6134,A4,406.0,0.25,63,102.0
6135,D4,406.25,0.25,63,102.0
6136,B1,406.25,0.25,95,102.0
6137,A6,406.25,0.5,95,102.0
6138,A5,406.25,0.5,95,102.0
6139,A4,406.25,0.25,79,102.0
6140,C2,406.25,0.25,79,102.0
6141,C#4,406.5,0.25,63,102.0
6142,A1,406.5,0.25,79,102.0
6143,A4,406.5,0.25,95,102.0
6144,D2,406.5,0.25,95,102.0
6145,B3,406.75,0.25,63,102.0
6146,B1,406.75,0.25,63,102.0
6147,A4,406.75,0.25,95,102.0
6148,E4,406.75,0.25,95,102.0
6149,A3,407.0,1.0,63,102.0
6150,C#2,407.0,0.25,79,102.0
6151,A4,407.0,0.25,63,102.0
6152,A5,407.0,0.5,95,102.0
6153,A4,407.0,0.5,95,102.0
6154,F#4,407.0,1.0,95,102.0
6155,D4,407.0,1.0,95,102.0
6156,B3,407.0,1.0,95,102.0
6157,G3,407.0,1.0,95,102.0
6158,B1,407.25,0.25,79,102.0
6159,A4,407.25,0.25,79,102.0
6160,C2,407.25,0.25,79,102.0
6161,A1,407.5,0.25,63,102.0
6162,A4,407.5,0.25,63,102.0
6163,F1,407.75,0.25,63,102.0
6164,A4,407.75,0.25,79,102.0
6165,C2,407.75,0.25,79,102.0
6166,E1,408.0,0.25,63,102.0
6167,A4,408.0,0.25,63,102.0
6168,F#4,408.0,1.0,95,102.0
6169,D4,408.0,1.0,95,102.0
6170,B3,408.0,1.0,95,102.0
6171,G3,408.0,1.0,95,102.0
6172,F#4,408.0,1.75,95,102.0
6173,D4,408.0,1.75,95,102.0
6174,B3,408.0,1.75,95,102.0
6175,G3,408.0,1.75,95,102.0
6176,E1,408.25,0.25,95,102.0
6177,D6,408.25,0.5,95,102.0
6178,D5,408.25,0.5,95,102.0
6179,A4,408.25,0.25,79,102.0
6180,C2,408.25,0.25,79,102.0
6181,A4,408.5,0.25,95,102.0
6182,D2,408.5,0.25,95,102.0
6183,E1,408.75,0.25,95,102.0
6184,D6,408.75,0.5,95,102.0
6185,D5,408.75,0.5,95,102.0
6186,A4,408.75,0.25,95,102.0
6187,C#4,408.75,0.25,95,102.0
6188,E1,409.0,0.25,95,102.0
6189,A4,409.0,0.25,84,102.0
6190,E-4,409.0,0.25,84,102.0
6191,C2,409.0,0.25,84,102.0
6192,E1,409.25,0.25,95,102.0
6193,A4,409.25,0.25,95,102.0
6194,B5,409.25,0.5,95,102.0
6195,B4,409.25,0.5,95,102.0
6196,F#4,409.25,0.25,95,102.0
6197,D4,409.25,0.25,95,102.0
6198,B3,409.25,0.25,95,102.0
6199,G3,409.25,0.25,95,102.0
6200,E1,409.5,0.25,95,102.0
6201,A4,409.5,0.25,95,102.0
6202,E-4,409.5,0.25,95,102.0
6203,C2,409.5,0.25,95,102.0
6204,F#1,409.75,0.25,95,102.0
6205,A4,409.75,0.25,79,102.0
6206,E6,409.75,1.0,95,102.0
6207,E5,409.75,1.0,95,102.0
6208,E4,409.75,2.0,95,102.0
6209,C#4,409.75,2.0,95,102.0
6210,A3,409.75,2.0,95,102.0
6211,F#3,409.75,2.0,95,102.0
6212,E4,409.75,2.25,95,102.0
6213,C#4,409.75,2.25,95,102.0
6214,A3,409.75,2.25,95,102.0
6215,F#3,409.75,2.25,95,102.0
6216,A4,410.0,0.25,63,102.0
6217,D4,410.25,0.25,63,102.0
6218,F#1,410.25,0.25,95,102.0
6219,A4,410.25,0.25,87,102.0
6220,C2,410.25,0.25,87,102.0
6221,C#4,410.5,0.25,63,102.0
6222,A4,410.5,0.25,95,102.0
6223,D2,410.5,0.25,95,102.0
6224,B3,410.75,0.25,63,102.0
6225,F#1,410.75,0.25,95,102.0
6226,A4,410.75,0.25,87,102.0
6227,E4,410.75,0.25,87,102.0
6228,A3,411.0,1.0,63,102.0
6229,A1,411.0,0.25,95,102.0
6230,A4,411.0,0.25,63,102.0
6231,A4,411.25,0.25,87,102.0
6232,C2,411.25,0.25,87,102.0
6233,A4,411.5,0.25,95,102.0
6234,D6,411.5,0.25,95,102.0
6235,D5,411.5,0.25,95,102.0
6236,E6,411.75,0.25,95,102.0
6237,E5,411.75,0.25,95,102.0
6238,A4,411.75,0.25,87,102.0
6239,C2,411.75,0.25,87,102.0
6240,G1,412.0,0.25,63,102.0
6241,A4,412.0,0.25,63,102.0
6242,F#6,412.0,0.5,95,102.0
6243,F#5,412.0,0.5,95,102.0
6244,F#4,412.0,1.0,95,102.0
6245,D4,412.0,1.0,95,102.0
6246,B3,412.0,1.0,95,102.0
6247,G3,412.0,1.0,95,102.0
6248,F#4,412.0,1.75,95,102.0
6249,D4,412.0,1.75,95,102.0
6250,B3,412.0,1.75,95,102.0
6251,G3,412.0,1.75,95,102.0
6252,G1,412.25,0.25,95,102.0
6253,A4,412.25,0.25,87,102.0
6254,C2,412.25,0.25,87,102.0
6255,F1,412.5,0.25,63,102.0
6256,G6,412.5,0.25,95,102.0
6257,G5,412.5,0.25,95,102.0
6258,A4,412.5,0.25,95,102.0
6259,D2,412.5,0.25,95,102.0
6260,F#6,412.75,0.5,95,102.0
6261,F#5,412.75,0.5,95,102.0
6262,A4,412.75,0.25,87,102.0
6263,C#4,412.75,0.25,87,102.0
6264,F1,413.0,0.25,95,102.0
6265,A4,413.0,0.25,84,102.0
6266,E-4,413.0,0.25,84,102.0
6267,C2,413.0,0.25,84,102.0
6268,F1,413.25,0.25,95,102.0
6269,A4,413.25,0.25,79,102.0
6270,D6,413.25,0.5,95,102.0
6271,D5,413.25,0.5,95,102.0
6272,F#4,413.25,0.25,95,102.0
6273,D4,413.25,0.25,95,102.0
6274,B3,413.25,0.25,95,102.0
6275,G3,413.25,0.25,95,102.0
6276,G1,413.5,0.25,95,102.0
6277,A4,413.5,0.25,95,102.0
6278,E-4,413.5,0.25,95,102.0
6279,C2,413.5,0.25,95,102.0
6280,A1,413.75,0.25,95,102.0
6281,A4,413.75,0.25,79,102.0
6282,E6,413.75,0.5,95,102.0
6283,E5,413.75,0.5,95,102.0
6284,E4,413.75,2.0,95,102.0
6285,C#4,413.75,2.0,95,102.0
6286,A3,413.75,2.0,95,102.0
6287,F#3,413.75,2.0,95,102.0
6288,E4,413.75,2.25,95,102.0
6289,C#4,413.75,2.25,95,102.0
6290,A3,413.75,2.25,95,102.0
6291,F#3,413.75,2.25,95,102.0
6292,A4,414.0,0.25,63,102.0
6293,D4,414.25,0.25,63,102.0
6294,A1,414.25,0.25,95,102.0
6295,A6,414.25,0.75,95,102.0
6296,A5,414.25,0.75,95,102.0
6297,A4,414.25,0.25,87,102.0
6298,C2,414.25,0.25,87,102.0
6299,C#4,414.5,0.25,63,102.0
6300,A4,414.5,0.25,95,102.0
6301,D2,414.5,0.25,95,102.0
6302,B3,414.75,0.25,63,102.0
6303,A1,414.75,0.25,95,102.0
6304,A4,414.75,0.25,87,102.0
6305,E4,414.75,0.25,87,102.0
6306,A3,415.0,1.0,63,102.0
6307,A1,415.0,0.5,95,102.0
6308,A4,415.0,0.25,63,102.0
6309,C#6,415.0,0.75,95,102.0
6310,C#5,415.0,0.75,95,102.0
6311,A4,415.25,0.25,87,102.0
6312,C2,415.25,0.25,87,102.0
6313,A4,415.5,0.25,95,102.0
6314,B5,415.75,0.25,95,102.0
6315,B4,415.75,0.25,95,102.0
6316,A4,415.75,0.25,87,102.0
6317,C2,415.75,0.25,87,102.0
6318,B1,416.0,0.25,63,102.0
6319,A4,416.0,0.25,63,102.0
6320,B4,416.0,2.0,95,102.0
6321,F#4,416.0,2.0,95,102.0
6322,B3,416.0,2.0,95,102.0
6323,F#5,416.0,2.0,79,102.0
6324,D5,416.0,2.0,79,102.0
6325,B3,416.0,2.0,95,102.0
6326,B4,416.0,2.0,95,102.0
6327,F#4,416.0,2.0,95,102.0
6328,F#4,416.0,1.0,95,102.0
6329,D4,416.0,1.0,95,102.0
6330,B3,416.0,1.0,95,102.0
6331,G3,416.0,1.0,95,102.0
6332,F#4,416.0,1.75,95,102.0
6333,D4,416.0,1.75,95,102.0
6334,B3,416.0,1.75,95,102.0
6335,G3,416.0,1.75,95,102.0
6336,B1,416.25,0.25,95,102.0
6337,A4,416.25,0.25,87,102.0
6338,C2,416.25,0.25,87,102.0
6339,A1,416.5,0.25,95,102.0
6340,A4,416.5,0.25,95,102.0
6341,D2,416.5,0.25,95,102.0
6342,B1,416.75,0.25,95,102.0
6343,A4,416.75,0.25,87,102.0
6344,C#4,416.75,0.25,87,102.0
6345,A4,417.0,0.25,84,102.0
6346,E-4,417.0,0.25,84,102.0
6347,C2,417.0,0.25,84,102.0
6348,B1,417.25,0.25,95,102.0
6349,A4,417.25,0.25,79,102.0
6350,F#4,417.25,0.25,95,102.0
6351,D4,417.25,0.25,95,102.0
6352,B3,417.25,0.25,95,102.0
6353,G3,417.25,0.25,95,102.0
6354,A1,417.5,0.25,95,102.0
6355,A4,417.5,0.25,95,102.0
6356,E-4,417.5,0.25,95,102.0
6357,C2,417.5,0.25,95,102.0
6358,F#1,417.75,0.25,79,102.0
6359,A4,417.75,0.25,79,102.0
6360,E4,417.75,2.0,95,102.0
6361,C#4,417.75,2.0,95,102.0
6362,A3,417.75,2.0,95,102.0
6363,F#3,417.75,2.0,95,102.0
6364,E4,417.75,2.25,95,102.0
6365,C#4,417.75,2.25,95,102.0
6366,A3,417.75,2.25,95,102.0
6367,F#3,417.75,2.25,95,102.0
6368,D5,418.0,0.5,95,102.0
6369,E1,418.0,0.25,63,102.0
6370,A4,418.0,0.25,63,102.0
6371,C#5,418.0,0.5,95,102.0
6372,A4,418.0,0.5,95,102.0
6373,E4,418.0,0.5,95,102.0
6374,G#4,418.0,0.5,95,102.0
6375,A3,418.0,0.5,95,102.0
6376,A4,418.25,0.25,87,102.0
6377,C2,418.25,0.25,87,102.0
6378,E1,418.5,0.25,63,102.0
6379,A4,418.5,0.25,95,102.0
6380,D2,418.5,0.25,95,102.0
6381,E5,418.75,0.25,95,102.0
6382,F#1,418.75,0.25,79,102.0
6383,D5,418.75,0.25,95,102.0
6384,B4,418.75,0.25,95,102.0
6385,F#4,418.75,0.25,95,102.0
6386,A4,418.75,0.25,95,102.0
6387,E4,418.75,0.25,95,102.0
6388,A3,418.75,0.25,95,102.0
6389,A4,418.75,0.25,87,102.0
6390,E4,418.75,0.25,87,102.0
6391,A1,419.0,0.25,79,102.0
6392,A4,419.0,0.25,63,102.0
6393,B1,419.25,0.25,79,102.0
6394,C#5,419.25,0.75,95,102.0
6395,A4,419.25,0.75,95,102.0
6396,E4,419.25,0.75,95,102.0
6397,F#5,419.25,0.5,79,102.0
6398,D5,419.25,0.5,79,102.0
6399,B3,419.25,0.75,95,102.0
6400,B4,419.25,0.75,95,102.0
6401,F#4,419.25,0.75,95,102.0
6402,A4,419.25,0.25,87,102.0
6403,C2,419.25,0.25,87,102.0
6404,A1,419.5,0.25,79,102.0
6405,A4,419.5,0.25,95,102.0
6406,F#1,419.75,0.25,63,102.0
6407,A4,419.75,0.25,87,102.0
6408,C2,419.75,0.25,87,102.0
6409,B1,420.0,0.25,63,102.0
6410,A4,420.0,0.25,63,102.0
6411,B4,420.0,2.0,95,102.0
6412,D4,420.0,2.0,95,102.0
6413,B3,420.0,2.0,95,102.0
6414,F#5,420.0,2.0,79,102.0
6415,D5,420.0,2.0,79,102.0
6416,B3,420.0,2.0,95,102.0
6417,B4,420.0,2.0,95,102.0
6418,F#4,420.0,2.0,95,102.0
6419,F#4,420.0,1.0,95,102.0
6420,D4,420.0,1.0,95,102.0
6421,B3,420.0,1.0,95,102.0
6422,G3,420.0,1.0,95,102.0
6423,F#4,420.0,1.75,95,102.0
6424,D4,420.0,1.75,95,102.0
6425,B3,420.0,1.75,95,102.0
6426,G3,420.0,1.75,95,102.0
6427,B1,420.25,0.25,95,102.0
6428,A4,420.25,0.25,87,102.0
6429,C2,420.25,0.25,87,102.0
6430,A1,420.5,0.25,95,102.0
6431,A4,420.5,0.25,95,102.0
6432,D2,420.5,0.25,95,102.0
6433,B1,420.75,0.25,95,102.0
6434,A4,420.75,0.25,87,102.0
6435,C#4,420.75,0.25,87,102.0
6436,A4,421.0,0.25,84,102.0
6437,E-4,421.0,0.25,84,102.0
6438,C2,421.0,0.25,84,102.0
6439,B1,421.25,0.25,95,102.0
6440,A4,421.25,0.25,79,102.0
6441,F#4,421.25,0.25,95,102.0
6442,D4,421.25,0.25,95,102.0
6443,B3,421.25,0.25,95,102.0
6444,G3,421.25,0.25,95,102.0
6445,A1,421.5,0.25,95,102.0
6446,A4,421.5,0.25,95,102.0
6447,E-4,421.5,0.25,95,102.0
6448,C2,421.5,0.25,95,102.0
6449,F#1,421.75,0.25,95,102.0
6450,A4,421.75,0.25,79,102.0
6451,A4,421.75,2.0,95,102.0
6452,C#4,421.75,2.0,95,102.0
6453,A3,421.75,2.0,95,102.0
6454,E3,421.75,2.0,95,102.0
6455,E4,421.75,2.25,95,102.0
6456,C#4,421.75,2.25,95,102.0
6457,A3,421.75,2.25,95,102.0
6458,E3,421.75,2.25,95,102.0
6459,D5,422.0,1.25,95,102.0
6460,G1,422.0,1.25,95,102.0
6461,A4,422.0,0.25,63,102.0
6462,G4,422.0,1.25,95,102.0
6463,D4,422.0,1.25,95,102.0
6464,B3,422.0,1.25,95,102.0
6465,B3,422.0,1.25,95,102.0
6466,G4,422.0,1.25,95,102.0
6467,D4,422.0,1.25,95,102.0
6468,A4,422.25,0.25,87,102.0
6469,C2,422.25,0.25,87,102.0
6470,A4,422.5,0.25,95,102.0
6471,D2,422.5,0.25,95,102.0
6472,A4,422.75,0.25,87,102.0
6473,E4,422.75,0.25,87,102.0
6474,A4,423.0,0.25,63,102.0
6475,C#5,423.25,0.25,95,102.0
6476,A1,423.25,0.25,95,102.0
6477,A4,423.25,0.25,95,102.0
6478,E4,423.25,0.25,95,102.0
6479,A3,423.25,0.25,95,102.0
6480,A4,423.25,0.25,95,102.0
6481,E4,423.25,0.25,95,102.0
6482,A3,423.25,0.25,95,102.0
6483,A4,423.25,0.25,87,102.0
6484,C2,423.25,0.25,87,102.0
6485,A4,423.5,0.25,95,102.0
6486,B1,423.75,0.25,95,102.0
6487,B4,423.75,0.25,95,102.0
6488,F#4,423.75,0.25,95,102.0
6489,B3,423.75,0.25,95,102.0
6490,F#5,423.75,0.25,79,102.0
6491,D5,423.75,0.25,79,102.0
6492,B3,423.75,0.25,95,102.0
6493,B4,423.75,0.25,95,102.0
6494,F#4,423.75,0.25,95,102.0
6495,A4,423.75,0.25,87,102.0
6496,C2,423.75,0.25,87,102.0
6497,B1,424.0,0.25,95,102.0
6498,A4,424.0,0.25,63,102.0
6499,B4,424.0,2.0,95,102.0
6500,F#4,424.0,2.0,95,102.0
6501,B3,424.0,2.0,95,102.0
6502,F#5,424.0,2.0,79,102.0
6503,D5,424.0,2.0,79,102.0
6504,B3,424.0,2.0,95,102.0
6505,B4,424.0,2.0,95,102.0
6506,F#4,424.0,2.0,95,102.0
6507,B3,424.0,2.0,95,102.0
6508,F#4,424.0,2.0,95,102.0
6509,D4,424.0,2.0,95,102.0
6510,A3,424.0,2.0,95,102.0
6511,B3,424.0,2.0,95,102.0
6512,F#4,424.0,2.0,95,102.0
6513,D4,424.0,2.0,95,102.0
6514,A3,424.0,2.0,95,102.0
6515,B1,424.25,0.25,95,102.0
6516,A4,424.25,0.25,87,102.0
6517,C2,424.25,0.25,87,102.0
6518,A1,424.5,0.25,95,102.0
6519,A4,424.5,0.25,95,102.0
6520,D2,424.5,0.25,95,102.0
6521,B1,424.75,0.25,95,102.0
6522,A4,424.75,0.25,87,102.0
6523,C#4,424.75,0.25,87,102.0
6524,A4,425.0,0.25,84,102.0
6525,E-4,425.0,0.25,84,102.0
6526,C2,425.0,0.25,84,102.0
6527,B1,425.25,0.25,95,102.0
6528,A4,425.25,0.25,79,102.0
6529,A1,425.5,0.25,95,102.0
6530,A4,425.5,0.25,95,102.0
6531,E-4,425.5,0.25,95,102.0
6532,C2,425.5,0.25,95,102.0
6533,F#1,425.75,0.25,79,102.0
6534,A4,425.75,0.25,79,102.0
6535,D5,426.0,0.5,95,102.0
6536,A1,426.0,0.75,95,102.0
6537,A4,426.0,0.25,63,102.0
6538,C#5,426.0,0.5,95,102.0
6539,A4,426.0,0.5,95,102.0
6540,E4,426.0,0.5,95,102.0
6541,G#4,426.0,0.5,95,102.0
6542,E4,426.0,0.5,95,102.0
6543,A3,426.0,0.5,95,102.0
6544,E4,426.0,0.75,95,102.0
6545,B3,426.0,0.75,95,102.0
6546,C#4,426.0,0.75,95,102.0
6547,A3,426.0,0.75,95,102.0
6548,E4,426.0,0.75,95,102.0
6549,B3,426.0,0.75,95,102.0
6550,C#4,426.0,0.75,95,102.0
6551,A3,426.0,0.75,95,102.0
6552,A4,426.25,0.25,87,102.0
6553,C2,426.25,0.25,87,102.0
6554,A4,426.5,0.25,95,102.0
6555,D2,426.5,0.25,95,102.0
6556,D5,426.75,0.25,95,102.0
6557,F1,426.75,0.25,95,102.0
6558,D5,426.75,0.25,95,102.0
6559,B4,426.75,0.25,95,102.0
6560,F#4,426.75,0.25,95,102.0
6561,A4,426.75,0.25,95,102.0
6562,E4,426.75,0.25,95,102.0
6563,A3,426.75,0.25,95,102.0
6564,E4,426.75,0.75,95,102.0
6565,B3,426.75,0.75,95,102.0
6566,C#4,426.75,0.75,95,102.0
6567,A3,426.75,0.75,95,102.0
6568,E4,426.75,0.75,95,102.0
6569,B3,426.75,0.75,95,102.0
6570,C#4,426.75,0.75,95,102.0
6571,A3,426.75,0.75,95,102.0
6572,A4,426.75,0.25,87,102.0
6573,E4,426.75,0.25,87,102.0
6574,A4,427.0,0.25,63,102.0
6575,C#5,427.25,0.5,95,102.0
6576,A1,427.25,0.25,95,102.0
6577,C#5,427.25,0.75,95,102.0
6578,A4,427.25,0.75,95,102.0
6579,E4,427.25,0.75,95,102.0
6580,B4,427.25,0.75,95,102.0
6581,F#4,427.25,0.75,95,102.0
6582,B3,427.25,0.75,95,102.0
6583,A4,427.25,0.25,87,102.0
6584,C2,427.25,0.25,87,102.0
6585,A4,427.5,0.25,95,102.0
6586,E4,427.5,0.5,95,102.0
6587,B3,427.5,0.5,95,102.0
6588,C#4,427.5,0.5,95,102.0
6589,A3,427.5,0.5,95,102.0
6590,E4,427.5,0.5,95,102.0
6591,B3,427.5,0.5,95,102.0
6592,C#4,427.5,0.5,95,102.0
6593,A3,427.5,0.5,95,102.0
6594,A4,427.75,0.25,87,102.0
6595,C2,427.75,0.25,87,102.0
6596,B1,428.0,0.25,95,102.0
6597,A4,428.0,0.25,63,102.0
6598,B4,428.0,3.25,95,102.0
6599,F#4,428.0,3.25,95,102.0
6600,B3,428.0,3.25,95,102.0
6601,F#5,428.0,3.25,79,102.0
6602,D5,428.0,3.25,79,102.0
6603,B3,428.0,3.25,95,102.0
6604,B4,428.0,3.25,95,102.0
6605,F#4,428.0,3.25,95,102.0
6606,B3,428.0,2.0,95,102.0
6607,F#4,428.0,2.0,95,102.0
6608,D4,428.0,2.0,95,102.0
6609,A3,428.0,2.0,95,102.0
6610,B3,428.0,2.0,95,102.0
6611,F#4,428.0,2.0,95,102.0
6612,D4,428.0,2.0,95,102.0
6613,A3,428.0,2.0,95,102.0
6614,A1,428.25,0.25,63,102.0
6615,A4,428.25,0.25,87,102.0
6616,C2,428.25,0.25,87,102.0
6617,B1,428.5,0.25,95,102.0
6618,A4,428.5,0.25,95,102.0
6619,D2,428.5,0.25,95,102.0
6620,A1,428.75,0.25,63,102.0
6621,A4,428.75,0.25,87,102.0
6622,C#4,428.75,0.25,87,102.0
6623,B1,429.0,0.25,95,102.0
6624,A4,429.0,0.25,84,102.0
6625,E-4,429.0,0.25,84,102.0
6626,C2,429.0,0.25,84,102.0
6627,A1,429.25,0.25,63,102.0
6628,A4,429.25,0.25,79,102.0
6629,A4,429.5,0.25,95,102.0
6630,E-4,429.5,0.25,95,102.0
6631,C2,429.5,0.25,95,102.0
6632,B1,429.75,0.25,95,102.0
6633,A4,429.75,0.25,79,102.0
6634,A4,430.0,0.25,63,102.0
6635,B3,430.0,1.25,95,102.0
6636,F#4,430.0,1.25,95,102.0
6637,D4,430.0,1.25,95,102.0
6638,A3,430.0,1.25,95,102.0
6639,B3,430.0,1.25,95,102.0
6640,F#4,430.0,1.25,95,102.0
6641,D4,430.0,1.25,95,102.0
6642,A3,430.0,1.25,95,102.0
6643,B1,430.25,0.25,95,102.0
6644,A4,430.25,0.25,87,102.0
6645,C2,430.25,0.25,87,102.0
6646,A4,430.5,0.25,95,102.0
6647,D2,430.5,0.25,95,102.0
6648,B1,430.75,0.5,95,102.0
6649,A4,430.75,0.25,87,102.0
6650,E4,430.75,0.25,87,102.0
6651,A4,431.0,0.25,63,102.0
6652,E5,431.25,0.25,79,102.0
6653,E4,431.25,0.75,95,102.0
6654,A1,431.25,0.25,95,102.0
6655,A4,431.25,0.25,95,102.0
6656,E4,431.25,0.25,95,102.0
6657,A3,431.25,0.25,95,102.0
6658,A4,431.25,0.25,95,102.0
6659,E4,431.25,0.25,95,102.0
6660,A3,431.25,0.25,95,102.0
6661,B3,431.25,0.25,95,102.0
6662,C#4,431.25,0.25,95,102.0
6663,A3,431.25,0.25,95,102.0
6664,E4,431.25,0.25,95,102.0
6665,B3,431.25,0.25,95,102.0
6666,C#4,431.25,0.25,95,102.0
6667,A3,431.25,0.25,95,102.0
6668,A4,431.25,0.25,87,102.0
6669,C2,431.25,0.25,87,102.0
6670,A4,431.5,0.25,95,102.0
6671,D5,431.75,0.25,95,102.0
6672,D4,431.75,0.25,95,102.0
6673,G1,431.75,0.25,95,102.0
6674,G4,431.75,0.25,95,102.0
6675,D4,431.75,0.25,95,102.0
6676,B3,431.75,0.25,95,102.0
6677,G4,431.75,0.25,95,102.0
6678,D4,431.75,0.25,95,102.0
6679,B3,431.75,0.25,95,102.0
6680,B3,431.75,0.25,95,102.0
6681,F#4,431.75,0.25,95,102.0
6682,A3,431.75,0.25,95,102.0
6683,B3,431.75,0.25,95,102.0
6684,F#4,431.75,0.25,95,102.0
6685,D4,431.75,0.25,95,102.0
6686,A3,431.75,0.25,95,102.0
6687,A4,431.75,0.25,87,102.0
6688,C2,431.75,0.25,87,102.0
6689,D5,432.0,3.25,95,102.0
6690,E4,432.0,2.0,95,102.0
6691,G1,432.0,0.25,95,102.0
6692,A4,432.0,0.25,63,102.0
6693,G4,432.0,3.25,95,102.0
6694,D4,432.0,3.25,95,102.0
6695,B3,432.0,3.25,95,102.0
6696,G4,432.0,3.25,95,102.0
6697,D4,432.0,3.25,95,102.0
6698,B3,432.0,3.25,95,102.0
6699,B3,432.0,2.0,95,102.0
6700,F#4,432.0,2.0,95,102.0
6701,A3,432.0,2.0,95,102.0
6702,B3,432.0,2.0,95,102.0
6703,F#4,432.0,2.0,95,102.0
6704,D4,432.0,2.0,95,102.0
6705,A3,432.0,2.0,95,102.0
6706,A4,432.25,0.25,87,102.0
6707,C2,432.25,0.25,87,102.0
6708,G1,432.5,0.25,95,102.0
6709,A4,432.5,0.25,95,102.0
6710,D2,432.5,0.25,95,102.0
6711,G1,432.75,0.25,63,102.0
6712,A4,432.75,0.25,87,102.0
6713,C#4,432.75,0.25,87,102.0
6714,A1,433.0,0.25,95,102.0
6715,A4,433.0,0.25,84,102.0
6716,E-4,433.0,0.25,84,102.0
6717,C2,433.0,0.25,84,102.0
6718,G1,433.25,0.25,95,102.0
6719,A4,433.25,0.25,79,102.0
6720,A4,433.5,0.25,95,102.0
6721,E-4,433.5,0.25,95,102.0
6722,C2,433.5,0.25,95,102.0
6723,G1,433.75,0.25,95,102.0
6724,A4,433.75,0.25,79,102.0
6725,A4,434.0,0.25,63,102.0
6726,E4,434.0,0.75,95,102.0
6727,B3,434.0,0.75,95,102.0
6728,C#4,434.0,0.75,95,102.0
6729,A3,434.0,0.75,95,102.0
6730,E4,434.0,0.75,95,102.0
6731,B3,434.0,0.75,95,102.0
6732,C#4,434.0,0.75,95,102.0
6733,A3,434.0,0.75,95,102.0
6734,G1,434.25,0.25,95,102.0
6735,A4,434.25,0.25,87,102.0
6736,C2,434.25,0.25,87,102.0
6737,A4,434.5,0.25,95,102.0
6738,D2,434.5,0.25,95,102.0
6739,G1,434.75,0.25,95,102.0
6740,E4,434.75,0.75,95,102.0
6741,B3,434.75,0.75,95,102.0
6742,C#4,434.75,0.75,95,102.0
6743,A3,434.75,0.75,95,102.0
6744,E4,434.75,0.75,95,102.0
6745,B3,434.75,0.75,95,102.0
6746,C#4,434.75,0.75,95,102.0
6747,A3,434.75,0.75,95,102.0
6748,A4,434.75,0.25,87,102.0
6749,E4,434.75,0.25,87,102.0
6750,A4,435.0,0.25,63,102.0
6751,C#5,435.25,0.25,95,102.0
6752,F#1,435.25,0.25,95,102.0
6753,A4,435.25,0.25,95,102.0
6754,E4,435.25,0.25,95,102.0
6755,A3,435.25,0.25,95,102.0
6756,A4,435.25,0.25,95,102.0
6757,E4,435.25,0.25,95,102.0
6758,A3,435.25,0.25,95,102.0
6759,A4,435.25,0.25,87,102.0
6760,C2,435.25,0.25,87,102.0
6761,E4,435.5,0.5,95,102.0
6762,A4,435.5,0.25,95,102.0
6763,B3,435.5,0.5,95,102.0
6764,C#4,435.5,0.5,95,102.0
6765,A3,435.5,0.5,95,102.0
6766,E4,435.5,0.5,95,102.0
6767,B3,435.5,0.5,95,102.0
6768,C#4,435.5,0.5,95,102.0
6769,A3,435.5,0.5,95,102.0
6770,B4,435.75,0.25,95,102.0
6771,E1,435.75,0.25,95,102.0
6772,G4,435.75,0.25,95,102.0
6773,D4,435.75,0.25,95,102.0
6774,B3,435.75,0.25,95,102.0
6775,G4,435.75,0.25,95,102.0
6776,D4,435.75,0.25,95,102.0
6777,B3,435.75,0.25,95,102.0
6778,A4,435.75,0.25,87,102.0
6779,C2,435.75,0.25,87,102.0
6780,B4,436.0,4.0,95,102.0
6781,D4,436.0,3.0,95,102.0
6782,E4,436.0,3.25,95,102.0
6783,E1,436.0,4.0,95,102.0
6784,A4,436.0,0.25,63,102.0
6785,G4,436.0,4.0,95,102.0
6786,D4,436.0,4.0,95,102.0
6787,B3,436.0,4.0,95,102.0
6788,G4,436.0,4.0,95,102.0
6789,D4,436.0,4.0,95,102.0
6790,B3,436.0,4.0,95,102.0
6791,B3,436.0,3.25,95,102.0
6792,F#4,436.0,3.25,95,102.0
6793,A3,436.0,3.25,95,102.0
6794,B3,436.0,3.25,95,102.0
6795,F#4,436.0,3.25,95,102.0
6796,D4,436.0,3.25,95,102.0
6797,A3,436.0,3.25,95,102.0
6798,A4,436.25,0.25,87,102.0
6799,C2,436.25,0.25,87,102.0
6800,A4,436.5,0.25,95,102.0
6801,D2,436.5,0.25,95,102.0
6802,A4,436.75,0.25,87,102.0
6803,C#4,436.75,0.25,87,102.0
6804,A4,437.0,0.25,84,102.0
6805,E-4,437.0,0.25,84,102.0
6806,C2,437.0,0.25,84,102.0
6807,A4,437.25,0.25,79,102.0
6808,A4,437.5,0.25,84,102.0
6809,E-4,437.5,0.25,84,102.0
6810,C2,437.5,0.25,84,102.0
6811,A4,437.75,0.25,95,102.0
6812,A4,438.0,0.25,63,102.0
6813,A4,438.25,0.25,79,102.0
6814,C2,438.25,0.25,79,102.0
6815,A4,438.5,0.25,95,102.0
6816,D2,438.5,0.25,95,102.0
6817,A4,438.75,0.25,95,102.0
6818,E4,438.75,0.25,95,102.0
6819,A4,439.0,0.25,63,102.0
6820,E4,439.25,0.25,95,102.0
6821,C#4,439.25,0.25,95,102.0
6822,A3,439.25,0.25,95,102.0
6823,E4,439.25,0.25,95,102.0
6824,C#4,439.25,0.25,95,102.0
6825,A3,439.25,0.25,95,102.0
6826,A4,439.25,0.25,79,102.0
6827,C2,439.25,0.25,79,102.0
6828,A4,439.5,0.25,63,102.0
6829,D4,439.75,0.25,95,102.0
6830,B3,439.75,0.25,95,102.0
6831,G3,439.75,0.25,95,102.0
6832,D4,439.75,0.25,95,102.0
6833,B3,439.75,0.25,95,102.0
6834,G3,439.75,0.25,95,102.0
6835,A4,439.75,0.25,79,102.0
6836,C2,439.75,0.25,79,102.0
6837,A4,440.0,0.25,63,102.0
6838,D6,440.0,0.75,95,102.0
6839,D5,440.0,0.75,95,102.0
6840,D4,440.0,3.25,95,102.0
6841,B3,440.0,3.25,95,102.0
6842,G3,440.0,3.25,95,102.0
6843,D4,440.0,3.25,95,102.0
6844,B3,440.0,3.25,95,102.0
6845,G3,440.0,3.25,95,102.0
6846,A4,440.25,0.25,79,102.0
6847,C2,440.25,0.25,79,102.0
6848,A4,440.5,0.25,95,102.0
6849,C#2,440.5,0.25,95,102.0
6850,C#6,440.75,0.75,95,102.0
6851,C#5,440.75,0.75,95,102.0
6852,A4,440.75,0.25,95,102.0
6853,C2,440.75,0.25,95,102.0
6854,C#3,440.75,0.25,95,102.0
6855,A4,441.0,0.25,63,102.0
6856,A4,441.25,0.25,95,102.0
6857,C2,441.25,0.25,95,102.0
6858,C#3,441.25,0.25,95,102.0
6859,A5,441.5,0.5,95,102.0
6860,A4,441.5,0.5,95,102.0
6861,A4,441.5,0.25,95,102.0
6862,E-4,441.5,0.25,95,102.0
6863,C2,441.5,0.25,95,102.0
6864,A4,441.75,0.25,79,102.0
6865,A4,442.0,0.25,63,102.0
6866,F#5,442.0,0.75,95,102.0
6867,F#4,442.0,0.75,95,102.0
6868,A4,442.25,0.25,87,102.0
6869,C2,442.25,0.25,87,102.0
6870,A4,442.5,0.25,95,102.0
6871,D2,442.5,0.25,95,102.0
6872,B5,442.75,0.75,95,102.0
6873,B4,442.75,0.75,95,102.0
6874,A4,442.75,0.25,87,102.0
6875,E4,442.75,0.25,87,102.0
6876,A4,443.0,0.25,63,102.0
6877,E4,443.25,0.25,95,102.0
6878,C#4,443.25,0.25,95,102.0
6879,A3,443.25,0.25,95,102.0
6880,E4,443.25,0.25,95,102.0
6881,C#4,443.25,0.25,95,102.0
6882,A3,443.25,0.25,95,102.0
6883,A4,443.25,0.25,87,102.0
6884,C2,443.25,0.25,87,102.0
6885,A4,443.5,0.25,95,102.0
6886,A5,443.5,0.5,95,102.0
6887,A4,443.5,0.5,95,102.0
6888,A4,443.75,0.25,95,102.0
6889,D4,443.75,0.25,95,102.0
6890,B3,443.75,0.25,95,102.0
6891,G3,443.75,0.25,95,102.0
6892,D4,443.75,0.25,95,102.0
6893,B3,443.75,0.25,95,102.0
6894,G3,443.75,0.25,95,102.0
6895,A4,443.75,0.25,87,102.0
6896,C2,443.75,0.25,87,102.0
6897,A4,444.0,3.5,95,102.0
6898,A4,444.0,0.25,63,102.0
6899,D4,444.0,4.0,95,102.0
6900,B3,444.0,4.0,95,102.0
6901,G3,444.0,4.0,95,102.0
6902,D4,444.0,4.0,95,102.0
6903,B3,444.0,4.0,95,102.0
6904,G3,444.0,4.0,95,102.0
6905,A4,444.25,0.25,87,102.0
6906,C2,444.25,0.25,87,102.0
6907,A4,444.5,0.25,95,102.0
6908,D2,444.5,0.25,95,102.0
6909,A4,444.75,0.25,87,102.0
6910,C#4,444.75,0.25,87,102.0
6911,A4,445.0,0.25,84,102.0
6912,E-4,445.0,0.25,84,102.0
6913,C2,445.0,0.25,84,102.0
6914,A4,445.25,0.25,79,102.0
6915,A4,445.5,0.25,84,102.0
6916,E-4,445.5,0.25,84,102.0
6917,C2,445.5,0.25,84,102.0
6918,A4,445.75,0.25,95,102.0
6919,A4,446.0,0.25,63,102.0
6920,A4,446.25,0.25,79,102.0
6921,C2,446.25,0.25,79,102.0
6922,A4,446.5,0.25,95,102.0
6923,D2,446.5,0.25,95,102.0
6924,A4,446.75,0.25,95,102.0
6925,E4,446.75,0.25,95,102.0
6926,A4,447.0,0.25,63,102.0
6927,A4,447.25,0.25,79,102.0
6928,C2,447.25,0.25,79,102.0
6929,A4,447.5,0.25,63,102.0
6930,A4,447.75,0.25,79,102.0
6931,C2,447.75,0.25,79,102.0
6932,A4,448.0,0.25,63,102.0
6933,D4,448.0,4.0,95,102.0
6934,B3,448.0,4.0,95,102.0
6935,G3,448.0,4.0,95,102.0
6936,A4,448.25,0.25,79,102.0
6937,C2,448.25,0.25,79,102.0
6938,A4,448.5,0.25,95,102.0
6939,C#2,448.5,0.25,95,102.0
6940,A4,448.75,0.25,95,102.0
6941,C2,448.75,0.25,95,102.0
6942,C#3,448.75,0.25,95,102.0
6943,A4,449.0,0.25,63,102.0
6944,A4,449.25,0.25,95,102.0
6945,C2,449.25,0.25,95,102.0
6946,C#3,449.25,0.25,95,102.0
6947,A4,449.5,0.25,95,102.0
6948,E-4,449.5,0.25,95,102.0
6949,A4,449.75,0.25,79,102.0
6950,A4,450.0,0.25,63,102.0
6951,A4,450.25,0.25,87,102.0
6952,C2,450.25,0.25,87,102.0
6953,A4,450.5,0.25,95,102.0
6954,D2,450.5,0.25,95,102.0
6955,A4,450.75,0.25,87,102.0
6956,E4,450.75,0.25,87,102.0
6957,A4,451.0,0.25,63,102.0
6958,A4,451.25,0.25,87,102.0
6959,C2,451.25,0.25,87,102.0
6960,A4,451.5,0.25,63,102.0
6961,F4,451.75,0.25,95,102.0
6962,A4,451.75,0.25,87,102.0
6963,C2,451.75,0.25,87,102.0
6964,F4,452.0,2.0,95,102.0
6965,A4,452.0,0.25,63,102.0
6966,D4,452.0,4.0,95,102.0
6967,B3,452.0,4.0,95,102.0
6968,G3,452.0,4.0,95,102.0
6969,A4,452.25,0.25,87,102.0
6970,C2,452.25,0.25,87,102.0
6971,A4,452.5,0.25,95,102.0
6972,C#2,452.5,0.25,95,102.0
6973,A4,452.75,0.25,90,102.0
6974,C2,452.75,0.25,90,102.0
6975,C#3,452.75,0.25,90,102.0
6976,A4,453.0,0.25,63,102.0
6977,A4,453.25,0.25,90,102.0
6978,C2,453.25,0.25,90,102.0
6979,C#3,453.25,0.25,90,102.0
6980,A4,461.5,4.0,90,102.0
6981,C2,461.5,4.0,90,102.0
6982,C#3,461.5,4.0,90,102.0
6983,A4,469.5,4.0,90,102.0
6984,C2,469.5,4.0,90,102.0
6985,C#3,469.5,4.0,90,102.0
6986,A4,473.5,0.25,79,102.0
6987,G#3,473.5,0.25,79,102.0
6988,A4,473.75,0.25,63,102.0
6989,A4,474.0,0.25,63,102.0
6990,A4,474.25,0.25,79,102.0
6991,E-4,474.25,0.25,79,102.0
6992,A4,474.5,0.25,95,102.0
6993,E-4,474.5,0.25,95,102.0
6994,A4,474.75,0.25,95,102.0
6995,A4,475.0,0.25,79,102.0
6996,E4,475.0,0.25,79,102.0
6997,A4,475.25,0.25,79,102.0
6998,E4,475.25,0.25,79,102.0
6999,A4,475.5,0.25,63,102.0
7000,A4,475.75,0.25,63,102.0
7001,A4,476.0,0.25,63,102.0
7002,A4,476.25,0.25,63,102.0
7003,A4,476.5,0.25,95,102.0
7004,A4,476.75,0.25,95,102.0
7005,C#4,476.75,0.25,95,102.0
7006,A4,477.0,0.25,79,102.0
7007,E-4,477.0,0.25,79,102.0
7008,A4,477.25,0.25,95,102.0
7009,A4,477.5,0.25,79,102.0
7010,G#3,477.5,0.25,79,102.0
7011,A4,477.75,0.25,63,102.0
7012,A4,478.0,0.25,63,102.0
7013,A4,478.25,0.25,79,102.0
7014,E-4,478.25,0.25,79,102.0
7015,A4,478.5,0.25,95,102.0
7016,E-4,478.5,0.25,95,102.0
7017,A4,478.75,0.25,95,102.0
7018,A4,479.0,0.25,79,102.0
7019,E4,479.0,0.25,79,102.0
7020,A4,479.25,0.25,79,102.0
7021,E4,479.25,0.25,79,102.0
7022,A4,479.5,0.25,63,102.0
7023,A4,479.75,0.25,63,102.0
7024,A4,480.0,0.25,63,102.0
7025,A4,480.25,0.25,63,102.0
7026,A4,480.5,0.25,95,102.0
7027,A4,480.75,0.25,95,102.0
7028,C#4,480.75,0.25,95,102.0
7029,A4,481.0,0.25,79,102.0
7030,E-4,481.0,0.25,79,102.0
7031,A4,481.25,0.25,95,102.0
7032,A4,481.5,0.25,79,102.0
7033,G#3,481.5,0.25,79,102.0
7034,A4,481.75,0.25,63,102.0
7035,A4,482.0,0.25,63,102.0
7036,A4,482.25,0.25,79,102.0
7037,E-4,482.25,0.25,79,102.0
7038,A4,482.5,0.25,95,102.0
7039,E-4,482.5,0.25,95,102.0
7040,A4,482.75,0.25,95,102.0
7041,A4,483.0,0.25,79,102.0
7042,E4,483.0,0.25,79,102.0
7043,A4,483.25,0.25,79,102.0
7044,E4,483.25,0.25,79,102.0
7045,A4,483.5,0.25,63,102.0
7046,A4,483.75,0.25,63,102.0
7047,A4,484.0,0.25,63,102.0
7048,A4,484.25,0.25,63,102.0
7049,A4,484.5,0.25,95,102.0
7050,A4,484.75,0.25,95,102.0
7051,C#4,484.75,0.25,95,102.0
7052,A4,485.0,0.25,79,102.0
7053,E-4,485.0,0.25,79,102.0
7054,A4,485.25,0.25,95,102.0
7055,F#6,485.5,4.0,95,102.0
