,note_name,start_time,duration,velocity,tempo
0,A2,0.0,0.5,100,127.0
1,C3,0.5,0.5,100,127.0
2,D3,1.0,0.5,100,127.0
3,A2,1.5,1.0,100,127.0
4,A2,2.5,0.5,100,127.0
5,C3,3.0,0.5,100,127.0
6,D3,3.5,0.5,100,127.0
7,F3,4.0,0.5,100,127.0
8,G3,4.5,0.5,100,127.0
9,F#2,5.0,1.0,100,127.0
10,A2,6.0,0.5,100,127.0
11,C3,6.5,0.5,100,127.0
12,D3,7.0,0.5,100,127.0
13,F2,7.5,0.5,100,127.0
14,F2,8.0,203/200,100,127.0
15,C3,8.5,103/200,85,127.0
16,E2,9.0,297/200,100,127.0
17,C3,10.0,97/200,85,127.0
18,F2,10.5,1.5,100,127.0
19,C3,11.5,0.5,85,127.0
20,F2,12.0,3/200,100,127.0
21,G2,12.0,4.0,75,127.0
22,D3,12.0,4.0,75,127.0
23,G3,12.0,4.0,75,127.0
24,D4,12.0,4.0,75,127.0
25,G4,12.0,4.0,75,127.0
26,A2,16.0,0.5,100,127.0
27,A1,16.0,0.5,100,127.0
28,C3,16.5,0.5,100,127.0
29,C2,16.5,0.5,100,127.0
30,D3,17.0,0.5,100,127.0
31,D2,17.0,0.5,100,127.0
32,A2,17.5,1.0,100,127.0
33,A1,17.5,1.0,100,127.0
34,A2,18.5,0.5,100,127.0
35,A1,18.5,0.5,100,127.0
36,C3,19.0,0.5,100,127.0
37,C2,19.0,0.5,100,127.0
38,D3,19.5,0.5,100,127.0
39,D2,19.5,0.5,100,127.0
40,G3,20.0,0.5,100,127.0
41,G2,20.0,0.5,100,127.0
42,F#3,20.5,0.5,100,127.0
43,F#2,20.5,0.5,100,127.0
44,F#2,21.0,1.0,100,127.0
45,F#1,21.0,1.0,100,127.0
46,A2,22.0,0.5,100,127.0
47,A1,22.0,0.5,100,127.0
48,C3,22.5,0.5,100,127.0
49,C2,22.5,0.5,100,127.0
50,D3,23.0,0.5,100,127.0
51,D2,23.0,0.5,100,127.0
52,F2,23.5,0.5,100,127.0
53,F1,23.5,0.5,100,127.0
54,F2,24.0,203/200,100,127.0
55,F1,24.0,0.5,100,127.0
56,C3,24.5,103/200,70,127.0
57,C2,24.5,0.5,100,127.0
58,E2,25.0,297/200,100,127.0
59,E1,25.0,1.0,100,127.0
60,C3,26.0,0.5,70,127.0
61,C2,26.0,0.5,100,127.0
62,F2,26.5,1.5,100,127.0
63,F1,26.5,1.5,100,127.0
64,C3,28.0,0.5,100,127.0
65,F2,28.0,3/200,100,127.0
66,C2,28.0,0.5,100,127.0
67,E2,28.0,83/1000,100,127.0
68,E2,28.083,83/1000,100,127.0
69,G1,28.5,3.5,100,127.0
70,G2,28.5,3.5,100,127.0
71,D3,28.5,3.5,100,127.0
72,C#3,28.5,0.5,100,127.0
73,C2,28.5,0.5,100,127.0
74,C2,29.5,0.5,100,127.0
75,E2,30.0,0.5,100,127.0
76,G3,30.0,0.5,100,127.0
77,E2,30.5,0.25,100,127.0
78,E2,30.75,0.25,100,127.0
79,E2,31.0,0.25,100,127.0
80,E2,31.25,0.25,100,127.0
81,E2,31.5,0.25,100,127.0
82,E2,31.75,0.25,100,127.0
83,A2,32.0,0.5,100,127.0
84,A1,32.0,0.5,100,127.0
85,C2,32.0,0.5,100,127.0
86,C#3,32.0,1.0,100,127.0
87,G2,32.0,3/200,100,127.0
88,D3,32.0,3/200,100,127.0
89,C3,32.5,0.5,100,127.0
90,C2,32.5,0.5,100,127.0
91,C2,32.5,0.5,100,127.0
92,D3,33.0,0.5,100,127.0
93,D2,33.0,0.5,100,127.0
94,E2,33.0,0.5,100,127.0
95,B-2,33.0,1.0,100,127.0
96,A2,33.5,1.0,100,127.0
97,A1,33.5,1.0,100,127.0
98,C2,33.5,1.0,100,127.0
99,B-2,34.0,1.0,100,127.0
100,A2,34.5,0.5,100,127.0
101,A1,34.5,0.5,100,127.0
102,C2,34.5,0.5,100,127.0
103,C3,35.0,0.5,100,127.0
104,C2,35.0,0.5,100,127.0
105,E2,35.0,0.5,100,127.0
106,B-2,35.0,1.0,100,127.0
107,D3,35.5,0.5,100,127.0
108,D2,35.5,0.5,100,127.0
109,C2,35.5,0.5,100,127.0
110,F3,36.0,0.5,100,127.0
111,F2,36.0,0.5,100,127.0
112,C2,36.0,0.5,100,127.0
113,B-2,36.0,1.0,100,127.0
114,G3,36.5,0.5,100,127.0
115,G2,36.5,0.5,100,127.0
116,C2,36.5,0.5,100,127.0
117,F#2,37.0,1.0,100,127.0
118,F#1,37.0,1.0,100,127.0
119,B-2,37.0,1.0,100,127.0
120,E2,37.0,1.0,100,127.0
121,A2,38.0,0.5,100,127.0
122,A1,38.0,0.5,100,127.0
123,C2,38.0,0.5,100,127.0
124,B-2,38.0,1.0,100,127.0
125,C3,38.5,0.5,100,127.0
126,C2,38.5,0.5,100,127.0
127,C2,38.5,0.5,100,127.0
128,D3,39.0,0.5,100,127.0
129,D2,39.0,0.5,100,127.0
130,E2,39.0,0.5,100,127.0
131,B-2,39.0,1.0,100,127.0
132,F2,39.5,0.5,100,127.0
133,F1,39.5,0.5,100,127.0
134,C2,39.5,0.5,100,127.0
135,F2,40.0,203/200,100,127.0
136,F1,40.0,203/200,100,127.0
137,B-2,40.0,1.0,100,127.0
138,C2,40.0,0.5,100,127.0
139,C3,40.5,103/200,70,127.0
140,C2,40.5,103/200,70,127.0
141,C2,40.5,0.5,100,127.0
142,E2,41.0,297/200,100,127.0
143,E1,41.0,297/200,100,127.0
144,B-2,41.0,1.0,100,127.0
145,E2,41.0,297/200,100,127.0
146,C3,42.0,0.5,70,127.0
147,C2,42.0,0.5,70,127.0
148,B-2,42.0,1.0,100,127.0
149,F2,42.5,1.5,100,127.0
150,F1,42.5,1.0,100,127.0
151,C2,42.5,0.5,100,127.0
152,B-2,43.0,1.0,100,127.0
153,E2,43.0,1.0,100,127.0
154,C3,43.5,0.5,70,127.0
155,C2,43.5,0.5,70,127.0
156,F2,44.0,3/200,100,127.0
157,G1,44.0,4.0,100,127.0
158,C2,44.0,0.5,100,127.0
159,B-2,44.0,1.0,100,127.0
160,G2,44.0,4.0,85,127.0
161,D3,44.0,4.0,85,127.0
162,C2,44.5,0.5,100,127.0
163,E2,45.0,0.5,100,127.0
164,B-2,45.0,1.0,100,127.0
165,C2,45.5,1.0,100,127.0
166,B-2,46.0,1.0,100,127.0
167,C2,46.5,0.5,100,127.0
168,E2,47.0,0.5,100,127.0
169,B-2,47.0,1.0,100,127.0
170,E2,47.5,0.25,100,127.0
171,E2,47.75,0.25,100,127.0
172,A2,48.0,0.5,100,127.0
173,A1,48.0,0.5,100,127.0
174,C#3,48.0,1.0,100,127.0
175,C2,48.0,0.5,100,127.0
176,C3,48.5,0.5,100,127.0
177,C2,48.5,0.5,100,127.0
178,C2,48.5,0.5,100,127.0
179,D3,49.0,0.5,100,127.0
180,D2,49.0,0.5,100,127.0
181,E2,49.0,0.5,100,127.0
182,B-2,49.0,1.0,100,127.0
183,A2,49.5,1.0,100,127.0
184,A1,49.5,1.0,100,127.0
185,C2,49.5,1.0,100,127.0
186,B-2,50.0,1.0,100,127.0
187,A2,50.5,0.5,100,127.0
188,A1,50.5,0.5,100,127.0
189,C2,50.5,0.5,100,127.0
190,C3,51.0,0.5,100,127.0
191,C2,51.0,0.5,100,127.0
192,E2,51.0,0.5,100,127.0
193,B-2,51.0,1.0,100,127.0
194,D3,51.5,0.5,100,127.0
195,D2,51.5,0.5,100,127.0
196,C2,51.5,0.5,100,127.0
197,G3,52.0,0.5,100,127.0
198,G2,52.0,0.5,100,127.0
199,E2,52.0,0.5,100,127.0
200,B-2,52.0,1.0,100,127.0
201,F#3,52.5,0.5,100,127.0
202,F#2,52.5,0.5,100,127.0
203,E2,52.5,0.5,100,127.0
204,F#2,53.0,1.0,100,127.0
205,F#1,53.0,1.0,100,127.0
206,C#3,53.0,1.0,100,127.0
207,C2,53.0,1.0,100,127.0
208,A2,54.0,0.5,100,127.0
209,A1,54.0,0.5,100,127.0
210,E2,54.0,61/125,100,127.0
211,B-2,54.0,1.0,100,127.0
212,C3,54.5,0.5,100,127.0
213,C2,54.5,0.5,100,127.0
214,C2,54.5,0.5,100,127.0
215,D3,55.0,0.5,100,127.0
216,D2,55.0,0.5,100,127.0
217,E2,55.0,0.5,100,127.0
218,F2,55.5,0.5,100,127.0
219,F1,55.5,0.5,100,127.0
220,C#3,55.5,0.5,100,127.0
221,C2,55.5,0.5,100,127.0
222,F2,56.0,203/200,100,127.0
223,F1,56.0,203/200,100,127.0
224,B-2,56.0,1.0,100,127.0
225,C2,56.0,0.5,100,127.0
226,C3,56.5,103/200,70,127.0
227,C2,56.5,103/200,70,127.0
228,C2,56.5,0.5,100,127.0
229,E2,57.0,297/200,100,127.0
230,E1,57.0,297/200,100,127.0
231,B-2,57.0,1.0,100,127.0
232,E2,57.0,297/200,100,127.0
233,C3,58.0,0.5,70,127.0
234,C2,58.0,0.5,70,127.0
235,B-2,58.0,1.0,100,127.0
236,F2,58.5,1.5,100,127.0
237,F1,58.5,1.5,100,127.0
238,C2,58.5,0.5,100,127.0
239,E2,59.0,1.0,100,127.0
240,B-2,59.0,1.0,100,127.0
241,F3,59.5,0.062,100,127.0
242,G3,59.562,0.062,100,127.0
243,A3,59.625,0.062,100,127.0
244,B3,59.688,0.062,100,127.0
245,C4,59.75,0.062,100,127.0
246,D4,59.812,0.062,100,127.0
247,E4,59.875,0.062,100,127.0
248,F4,59.938,0.062,100,127.0
249,C3,60.0,0.5,70,127.0
250,F2,60.0,3/200,100,127.0
251,C2,60.0,0.5,70,127.0
252,F1,60.0,3/200,100,127.0
253,D6,60.0,0.5,100,127.0
254,G5,60.0,0.5,100,127.0
255,D5,60.0,0.5,100,127.0
256,G4,60.0,0.5,100,127.0
257,C#3,60.0,0.5,100,127.0
258,C2,60.0,0.5,100,127.0
259,G1,60.5,3.5,100,127.0
260,G2,60.5,3.5,100,127.0
261,D3,60.5,3.5,100,127.0
262,G5,60.5,3.5,100,127.0
263,D5,60.5,3.5,100,127.0
264,G4,60.5,3.5,100,127.0
265,D6,60.5,3.5,100,127.0
266,A3,60.5,0.5,100,127.0
267,C2,60.5,0.5,100,127.0
268,E2,61.0,729/1000,100,127.0
269,B-2,61.0,729/1000,100,127.0
270,E2,61.75,0.25,100,127.0
271,E2,62.0,97/200,100,127.0
272,E2,62.5,103/200,100,127.0
273,E2,63.0,0.25,100,127.0
274,E2,63.25,0.25,100,127.0
275,E2,63.5,0.25,100,127.0
276,E2,63.75,0.25,100,127.0
277,C2,64.0,0.5,100,127.0
278,G1,64.0,3/200,100,127.0
279,C2,64.0,0.25,100,127.0
280,C3,64.0,0.5,100,127.0
281,G3,64.0,0.5,100,127.0
282,G2,64.0,3/200,100,127.0
283,D3,64.0,3/200,100,127.0
284,E2,64.0,1.0,100,127.0
285,G2,64.0,1.0,100,127.0
286,C6,64.015,0.5,100,127.0
287,F5,64.015,0.5,100,127.0
288,C5,64.015,0.5,100,127.0
289,G5,64.015,3/200,100,127.0
290,D5,64.015,3/200,100,127.0
291,G4,64.015,3/200,100,127.0
292,D6,64.015,3/200,100,127.0
293,C2,64.25,0.25,100,127.0
294,D2,64.5,0.5,100,127.0
295,C2,64.5,0.25,100,127.0
296,D3,64.5,0.5,100,127.0
297,A3,64.5,0.5,100,127.0
298,D6,64.515,0.5,100,127.0
299,D5,64.515,0.5,100,127.0
300,A5,64.515,0.5,100,127.0
301,C2,64.75,0.25,100,127.0
302,C2,65.0,0.25,100,127.0
303,C2,65.25,0.25,100,127.0
304,F1,65.5,0.5,100,127.0
305,C2,65.5,0.25,100,127.0
306,C4,65.5,0.5,100,127.0
307,F3,65.5,0.5,100,127.0
308,C5,65.5,0.5,100,127.0
309,C6,65.5,0.5,100,127.0
310,F5,65.5,0.5,100,127.0
311,E2,65.5,1.0,100,127.0
312,G2,65.5,1.0,100,127.0
313,C2,65.75,0.25,100,127.0
314,C2,66.0,0.25,100,127.0
315,C2,66.25,0.25,100,127.0
316,C2,66.5,0.25,100,127.0
317,C2,66.75,0.25,100,127.0
318,G1,67.0,1.0,100,127.0
319,C2,67.0,0.25,100,127.0
320,D3,67.0,1.0,100,127.0
321,G2,67.0,1.0,100,127.0
322,G3,67.0,1.0,100,127.0
323,E2,67.0,1.0,100,127.0
324,C#3,67.0,1.0,100,127.0
325,G6,67.015,1.0,100,127.0
326,D6,67.015,1.0,100,127.0
327,G5,67.015,1.0,100,127.0
328,G4,67.015,1.0,100,127.0
329,G3,67.015,1.0,100,127.0
330,C2,67.25,0.25,100,127.0
331,C2,67.5,0.25,100,127.0
332,C2,67.75,0.25,100,127.0
333,G1,68.0,4.0,100,127.0
334,C2,68.0,0.25,100,127.0
335,D3,68.0,4.0,100,127.0
336,G2,68.0,4.0,100,127.0
337,G3,68.0,4.0,100,127.0
338,E2,68.0,1.0,100,127.0
339,F3,68.0,1.0,100,127.0
340,G6,68.015,4.0,100,127.0
341,D6,68.015,4.0,100,127.0
342,G5,68.015,4.0,100,127.0
343,G4,68.015,4.0,100,127.0
344,G3,68.015,4.0,100,127.0
345,C2,68.25,0.25,100,127.0
346,C2,68.5,0.25,100,127.0
347,G6,68.5,0.5,100,127.0
348,E6,68.5,0.5,100,127.0
349,C2,68.75,0.25,100,127.0
350,C2,69.0,0.25,100,127.0
351,D5,69.0,0.25,100,127.0
352,E2,69.0,1.0,100,127.0
353,F3,69.0,1.0,100,127.0
354,C2,69.25,0.25,100,127.0
355,G5,69.25,0.25,100,127.0
356,C2,69.5,0.25,100,127.0
357,F5,69.5,0.25,100,127.0
358,C2,69.75,0.25,100,127.0
359,A5,69.75,0.25,100,127.0
360,C2,70.0,0.25,100,127.0
361,C5,70.0,0.25,100,127.0
362,E2,70.0,1.0,100,127.0
363,F3,70.0,1.0,100,127.0
364,C2,70.25,0.25,100,127.0
365,F5,70.25,0.25,100,127.0
366,C2,70.5,0.25,100,127.0
367,D5,70.5,0.25,100,127.0
368,C2,70.75,0.25,100,127.0
369,G5,70.75,0.25,100,127.0
370,C2,71.0,0.25,100,127.0
371,C5,71.0,0.25,100,127.0
372,E2,71.0,1.0,100,127.0
373,F3,71.0,1.0,100,127.0
374,C2,71.25,0.25,100,127.0
375,D5,71.25,0.75,100,127.0
376,C2,71.5,0.25,100,127.0
377,C2,71.75,0.25,100,127.0
378,C2,72.0,0.5,100,127.0
379,C2,72.0,0.25,100,127.0
380,D5,72.0,1/125,100,127.0
381,G3,72.0,0.5,100,127.0
382,C3,72.0,0.5,100,127.0
383,G2,72.0,1.0,100,127.0
384,E2,72.0,1.0,100,127.0
385,C5,72.015,0.5,100,127.0
386,C6,72.015,0.5,100,127.0
387,G5,72.015,0.5,100,127.0
388,C2,72.25,0.25,100,127.0
389,D2,72.5,0.5,100,127.0
390,C2,72.5,0.25,100,127.0
391,D3,72.5,0.5,100,127.0
392,A3,72.5,0.5,100,127.0
393,D6,72.515,0.5,100,127.0
394,D5,72.515,0.5,100,127.0
395,A5,72.515,0.5,100,127.0
396,C2,72.75,0.25,100,127.0
397,C2,73.0,0.25,100,127.0
398,C2,73.25,0.25,100,127.0
399,F1,73.5,0.5,100,127.0
400,C2,73.5,0.25,100,127.0
401,C4,73.5,0.5,100,127.0
402,F3,73.5,0.5,100,127.0
403,G5,73.5,0.5,100,127.0
404,C5,73.5,0.5,100,127.0
405,C6,73.5,0.5,100,127.0
406,E2,73.5,1.0,100,127.0
407,G2,73.5,1.0,100,127.0
408,C2,73.75,0.25,100,127.0
409,C2,74.0,0.25,100,127.0
410,C2,74.25,0.25,100,127.0
411,C2,74.5,0.25,100,127.0
412,C2,74.75,0.25,100,127.0
413,C2,75.0,1.0,100,127.0
414,C2,75.0,0.25,100,127.0
415,G2,75.0,1.0,100,127.0
416,G3,75.0,1.0,100,127.0
417,C3,75.0,1.0,100,127.0
418,E2,75.0,1.0,100,127.0
419,C#3,75.0,1.0,100,127.0
420,G5,75.015,1.0,100,127.0
421,C6,75.015,1.0,100,127.0
422,C5,75.015,1.0,100,127.0
423,C4,75.015,1.0,100,127.0
424,C3,75.015,1.0,100,127.0
425,C2,75.25,0.25,100,127.0
426,C2,75.5,0.25,100,127.0
427,C2,75.75,0.25,100,127.0
428,C2,76.0,4.0,100,127.0
429,C2,76.0,0.25,100,127.0
430,E2,76.0,1.0,100,127.0
431,F3,76.0,97/200,100,127.0
432,G2,76.0,4.0,100,127.0
433,G3,76.0,4.0,100,127.0
434,C3,76.0,4.0,100,127.0
435,G5,76.015,4.0,100,127.0
436,C6,76.015,4.0,100,127.0
437,C5,76.015,4.0,100,127.0
438,C4,76.015,4.0,100,127.0
439,C3,76.015,4.0,100,127.0
440,C2,76.25,0.25,100,127.0
441,C2,76.5,0.25,100,127.0
442,F3,76.5,0.25,100,127.0
443,G6,76.5,0.5,100,127.0
444,D6,76.5,0.5,100,127.0
445,C2,76.75,0.25,100,127.0
446,F3,76.75,0.25,100,127.0
447,C2,77.0,0.25,100,127.0
448,E2,77.0,1.0,100,127.0
449,F3,77.0,97/200,100,127.0
450,F6,77.0,97/200,100,127.0
451,D6,77.0,97/200,100,127.0
452,C2,77.25,0.25,100,127.0
453,E6,77.5,0.25,100,127.0
454,C2,77.5,0.25,100,127.0
455,F3,77.5,0.25,100,127.0
456,F6,77.75,0.25,100,127.0
457,C2,77.75,0.25,100,127.0
458,F3,77.75,0.25,100,127.0
459,C2,78.0,0.25,100,127.0
460,E2,78.0,1.0,100,127.0
461,F3,78.0,97/200,100,127.0
462,D6,78.0,97/200,100,127.0
463,C2,78.25,0.25,100,127.0
464,E6,78.5,0.25,100,127.0
465,C2,78.5,0.25,100,127.0
466,F3,78.5,0.25,100,127.0
467,F6,78.75,0.25,100,127.0
468,C2,78.75,0.25,100,127.0
469,F3,78.75,0.25,100,127.0
470,C2,79.0,0.25,100,127.0
471,E2,79.0,1.0,100,127.0
472,F3,79.0,97/200,100,127.0
473,G6,79.0,1.0,100,127.0
474,C2,79.25,0.25,100,127.0
475,C2,79.5,0.25,100,127.0
476,F3,79.5,0.5,100,127.0
477,C2,79.75,0.25,100,127.0
478,C2,80.0,0.5,100,127.0
479,C2,80.0,0.25,100,127.0
480,F3,80.0,3/200,100,127.0
481,G3,80.0,0.5,100,127.0
482,C3,80.0,0.5,100,127.0
483,G2,80.0,1.0,100,127.0
484,E2,80.0,1.0,100,127.0
485,C5,80.015,0.5,100,127.0
486,C6,80.015,0.5,100,127.0
487,G5,80.015,0.5,100,127.0
488,C2,80.25,0.25,100,127.0
489,D2,80.5,0.5,100,127.0
490,C2,80.5,0.25,100,127.0
491,F3,80.5,103/200,100,127.0
492,D3,80.5,0.5,100,127.0
493,A3,80.5,0.5,100,127.0
494,D6,80.515,0.5,100,127.0
495,D5,80.515,0.5,100,127.0
496,A5,80.515,0.5,100,127.0
497,C2,80.75,0.25,100,127.0
498,C2,81.0,0.25,100,127.0
499,F3,81.0,97/200,100,127.0
500,C2,81.25,0.25,100,127.0
501,F1,81.5,0.5,100,127.0
502,C2,81.5,0.25,100,127.0
503,C4,81.5,0.5,100,127.0
504,F3,81.5,0.5,100,127.0
505,C5,81.5,0.5,100,127.0
506,C6,81.5,0.5,100,127.0
507,F5,81.5,0.5,100,127.0
508,E2,81.5,1.0,100,127.0
509,G2,81.5,1.0,100,127.0
510,C2,81.75,0.25,100,127.0
511,C2,82.0,0.25,100,127.0
512,F3,82.0,0.5,100,127.0
513,C2,82.25,0.25,100,127.0
514,C2,82.5,0.25,100,127.0
515,F3,82.5,0.5,100,127.0
516,C2,82.75,0.25,100,127.0
517,G1,83.0,1.0,100,127.0
518,C2,83.0,0.25,100,127.0
519,D3,83.0,1.0,100,127.0
520,G2,83.0,1.0,100,127.0
521,G3,83.0,1.0,100,127.0
522,E2,83.0,1.0,100,127.0
523,C#3,83.0,1.0,100,127.0
524,G6,83.015,1.0,100,127.0
525,D6,83.015,1.0,100,127.0
526,G5,83.015,1.0,100,127.0
527,G4,83.015,1.0,100,127.0
528,G3,83.015,1.0,100,127.0
529,C2,83.25,0.25,100,127.0
530,C2,83.5,0.25,100,127.0
531,C2,83.75,0.25,100,127.0
532,G1,84.0,4.0,100,127.0
533,C2,84.0,0.25,100,127.0
534,E2,84.0,1.0,100,127.0
535,F3,84.0,0.5,100,127.0
536,D3,84.0,4.0,100,127.0
537,G2,84.0,4.0,100,127.0
538,G3,84.0,4.0,100,127.0
539,G6,84.015,4.0,100,127.0
540,D6,84.015,4.0,100,127.0
541,G5,84.015,4.0,100,127.0
542,G4,84.015,4.0,100,127.0
543,G3,84.015,4.0,100,127.0
544,C2,84.25,0.25,100,127.0
545,G5,84.5,0.5,80,127.0
546,C2,84.5,0.25,100,127.0
547,F3,84.5,0.5,100,127.0
548,G5,84.5,0.5,100,127.0
549,C2,84.75,0.25,100,127.0
550,G5,85.0,0.25,80,127.0
551,C2,85.0,0.25,100,127.0
552,E2,85.0,1.0,100,127.0
553,F3,85.0,0.5,100,127.0
554,G5,85.0,0.25,100,127.0
555,G6,85.25,0.25,80,127.0
556,C2,85.25,0.25,100,127.0
557,G6,85.25,0.25,100,127.0
558,F6,85.5,0.25,80,127.0
559,C2,85.5,0.25,100,127.0
560,F3,85.5,0.5,100,127.0
561,F6,85.5,0.25,100,127.0
562,C6,85.75,0.125,80,127.0
563,C2,85.75,0.25,100,127.0
564,C6,85.75,0.125,100,127.0
565,G5,85.875,0.125,80,127.0
566,G5,85.875,0.125,100,127.0
567,F5,86.0,0.25,80,127.0
568,C2,86.0,0.25,100,127.0
569,E2,86.0,1.0,100,127.0
570,F3,86.0,0.5,100,127.0
571,F5,86.0,0.25,100,127.0
572,C5,86.25,0.25,80,127.0
573,C2,86.25,0.25,100,127.0
574,C5,86.25,0.25,100,127.0
575,C5,86.5,0.125,80,127.0
576,C2,86.5,0.25,100,127.0
577,F3,86.5,0.5,100,127.0
578,C5,86.5,0.125,100,127.0
579,E5,86.625,0.125,80,127.0
580,E5,86.625,0.125,100,127.0
581,G5,86.75,0.25,80,127.0
582,C2,86.75,0.25,100,127.0
583,G5,86.75,0.25,100,127.0
584,C6,87.0,0.25,80,127.0
585,C2,87.0,0.25,100,127.0
586,E2,87.0,1.0,100,127.0
587,F3,87.0,0.5,100,127.0
588,C6,87.0,0.25,100,127.0
589,D6,87.25,0.125,80,127.0
590,C2,87.25,0.25,100,127.0
591,D6,87.25,0.125,100,127.0
592,E6,87.375,0.125,80,127.0
593,E6,87.375,0.125,100,127.0
594,D6,87.5,0.5,80,127.0
595,C2,87.5,0.25,100,127.0
596,F3,87.5,0.5,100,127.0
597,D6,87.5,0.5,100,127.0
598,C2,87.75,0.25,100,127.0
599,C2,88.0,0.5,100,127.0
600,D6,88.0,3121/1000,80,127.0
601,C2,88.0,0.25,100,127.0
602,D6,88.0,3121/1000,100,127.0
603,C3,88.0,0.5,100,127.0
604,G3,88.0,0.5,100,127.0
605,E2,88.0,1.0,100,127.0
606,G2,88.0,1.0,100,127.0
607,C5,88.015,0.5,100,127.0
608,C6,88.015,0.5,100,127.0
609,G5,88.015,0.5,100,127.0
610,C2,88.25,0.25,100,127.0
611,D2,88.5,0.5,100,127.0
612,C2,88.5,0.25,100,127.0
613,F3,88.5,103/200,100,127.0
614,D3,88.5,0.5,100,127.0
615,A3,88.5,0.5,100,127.0
616,D6,88.515,0.5,100,127.0
617,D5,88.515,0.5,100,127.0
618,A5,88.515,0.5,100,127.0
619,C2,88.75,0.25,100,127.0
620,C2,89.0,0.25,100,127.0
621,F3,89.0,97/200,100,127.0
622,C2,89.25,0.25,100,127.0
623,F1,89.5,0.5,100,127.0
624,C2,89.5,0.25,100,127.0
625,C4,89.5,0.5,100,127.0
626,F3,89.5,0.5,100,127.0
627,C5,89.5,0.5,100,127.0
628,F5,89.5,0.5,100,127.0
629,C6,89.5,0.5,100,127.0
630,E2,89.5,1.0,100,127.0
631,G2,89.5,1.0,100,127.0
632,C2,89.75,0.25,100,127.0
633,C2,90.0,0.25,100,127.0
634,F3,90.0,0.5,100,127.0
635,C2,90.25,0.25,100,127.0
636,C2,90.5,0.25,100,127.0
637,F3,90.5,0.5,100,127.0
638,C2,90.75,0.25,100,127.0
639,D1,91.0,1.0,100,127.0
640,C2,91.0,0.25,100,127.0
641,D3,91.0,1.0,100,127.0
642,A2,91.0,1.0,100,127.0
643,A3,91.0,1.0,100,127.0
644,D4,91.0,1.0,100,127.0
645,E2,91.0,1.0,100,127.0
646,C#3,91.0,1.0,100,127.0
647,D6,91.015,1.0,100,127.0
648,A5,91.015,1.0,100,127.0
649,D5,91.015,1.0,100,127.0
650,D4,91.015,1.0,100,127.0
651,D3,91.015,1.0,100,127.0
652,D1,92.0,4.0,100,127.0
653,E2,92.0,0.5,100,127.0
654,D3,92.0,4.0,100,127.0
655,A2,92.0,4.0,100,127.0
656,A3,92.0,4.0,100,127.0
657,D4,92.0,4.0,100,127.0
658,D6,92.015,4.0,100,127.0
659,A5,92.015,4.0,100,127.0
660,D5,92.015,4.0,100,127.0
661,D4,92.015,4.0,100,127.0
662,D3,92.015,4.0,100,127.0
663,E2,92.5,0.5,100,127.0
664,B-2,93.0,0.25,100,127.0
665,F#2,93.25,0.25,100,127.0
666,E2,93.5,0.5,100,127.0
667,E2,94.0,0.5,100,127.0
668,E2,94.5,0.5,100,127.0
669,E2,95.0,0.25,100,127.0
670,E2,95.25,0.25,100,127.0
671,E2,95.5,0.25,100,127.0
672,C2,95.75,0.25,100,127.0
673,C#3,95.75,0.25,100,127.0
674,A2,96.0,0.5,100,127.0
675,A1,96.0,0.5,100,127.0
676,C#3,96.0,1.0,100,127.0
677,C2,96.0,0.5,100,127.0
678,A5,96.015,97/200,100,127.0
679,E5,96.015,97/200,100,127.0
680,A4,96.015,97/200,100,127.0
681,C3,96.5,0.5,100,127.0
682,C2,96.5,0.5,100,127.0
683,C2,96.5,0.5,100,127.0
684,D3,97.0,0.5,100,127.0
685,D2,97.0,0.5,100,127.0
686,E2,97.0,0.5,100,127.0
687,B-2,97.0,1.0,100,127.0
688,E-5,97.431,83/1000,100,127.0
689,A2,97.5,1.0,100,127.0
690,A1,97.5,1.0,100,127.0
691,C2,97.5,1.0,100,127.0
692,A5,97.515,303/200,100,127.0
693,E5,97.515,303/200,100,127.0
694,A4,97.515,303/200,100,127.0
695,B-2,98.0,1.0,100,127.0
696,A2,98.5,0.5,100,127.0
697,A1,98.5,0.5,100,127.0
698,C2,98.5,0.5,100,127.0
699,C3,99.0,0.5,100,127.0
700,C2,99.0,0.5,100,127.0
701,E2,99.0,0.5,100,127.0
702,B-2,99.0,1.0,100,127.0
703,A5,99.015,0.25,100,127.0
704,G5,99.265,0.25,100,127.0
705,D3,99.5,0.5,100,127.0
706,D2,99.5,0.5,100,127.0
707,C2,99.5,0.5,100,127.0
708,E-5,99.515,0.25,100,127.0
709,G#5,99.515,0.25,100,127.0
710,G5,99.765,0.25,100,127.0
711,F3,100.0,0.5,100,127.0
712,F2,100.0,0.5,100,127.0
713,C2,100.0,0.5,100,127.0
714,B-2,100.0,1.0,100,127.0
715,C5,100.015,0.25,100,127.0
716,D5,100.265,0.25,100,127.0
717,G3,100.5,0.5,100,127.0
718,G2,100.5,0.5,100,127.0
719,C2,100.5,0.5,100,127.0
720,A4,100.515,0.25,100,127.0
721,C5,100.765,0.25,100,127.0
722,F#2,101.0,1.0,100,127.0
723,F#1,101.0,1.0,100,127.0
724,E2,101.0,1.0,100,127.0
725,C#3,101.0,1.0,100,127.0
726,D6,101.015,621/500,100,127.0
727,A5,101.015,621/500,100,127.0
728,D5,101.015,621/500,100,127.0
729,A2,102.0,0.5,100,127.0
730,A1,102.0,0.5,100,127.0
731,C2,102.0,0.5,100,127.0
732,B-2,102.0,1.0,100,127.0
733,C3,102.5,0.5,100,127.0
734,C2,102.5,0.5,100,127.0
735,C2,102.5,0.5,100,127.0
736,D6,102.515,0.25,100,127.0
737,A5,102.515,0.25,100,127.0
738,C6,102.765,0.25,100,127.0
739,D3,103.0,0.5,100,127.0
740,D2,103.0,0.5,100,127.0
741,E2,103.0,97/200,100,127.0
742,B-2,103.0,97/200,100,127.0
743,A5,103.015,0.25,100,127.0
744,G5,103.265,0.25,100,127.0
745,F2,103.5,0.5,100,127.0
746,F1,103.5,0.5,100,127.0
747,C2,103.5,0.5,100,127.0
748,C#3,103.5,0.5,100,127.0
749,C6,103.515,0.5,100,127.0
750,F5,103.515,0.5,100,127.0
751,C5,103.515,0.5,100,127.0
752,F2,104.0,203/200,100,127.0
753,F1,104.0,0.5,100,127.0
754,B-2,104.0,0.125,100,127.0
755,C2,104.0,0.5,100,127.0
756,C#3,104.0,3/200,100,127.0
757,C6,104.015,1.0,100,127.0
758,F5,104.015,1.0,100,127.0
759,C5,104.015,1.0,100,127.0
760,F#2,104.125,0.125,100,127.0
761,C3,104.5,103/200,70,127.0
762,C2,104.5,0.5,100,127.0
763,C2,104.5,0.5,100,127.0
764,E2,105.0,297/200,100,127.0
765,E1,105.0,1.0,100,127.0
766,B-2,105.0,1.0,100,127.0
767,E2,105.0,97/200,100,127.0
768,C6,105.015,297/200,100,127.0
769,E5,105.015,297/200,100,127.0
770,C5,105.015,297/200,100,127.0
771,C3,106.0,0.5,70,127.0
772,C2,106.0,0.5,100,127.0
773,B-2,106.0,1.0,100,127.0
774,C2,106.0,0.5,100,127.0
775,F2,106.5,1.5,100,127.0
776,F1,106.5,1.0,100,127.0
777,C2,106.5,0.5,100,127.0
778,F5,106.515,0.25,100,127.0
779,C6,106.765,0.25,100,127.0
780,B-2,107.0,1.0,100,127.0
781,E2,107.0,1.0,100,127.0
782,G6,107.015,0.25,100,127.0
783,F6,107.265,0.25,100,127.0
784,C3,107.5,0.5,70,127.0
785,C2,107.5,0.5,100,127.0
786,C6,107.515,0.25,100,127.0
787,D6,107.765,0.25,100,127.0
788,F2,108.0,3/200,100,127.0
789,G1,108.0,4.0,100,127.0
790,E2,108.0,0.5,100,127.0
791,G2,108.0,4.0,85,127.0
792,D3,108.0,4.0,85,127.0
793,G6,108.015,297/200,100,127.0
794,D6,108.015,297/200,100,127.0
795,G5,108.015,297/200,100,127.0
796,C2,108.5,0.5,100,127.0
797,B-2,108.5,0.5,100,127.0
798,E2,109.0,0.5,100,127.0
799,C2,109.5,0.5,100,127.0
800,B-2,109.5,0.5,100,127.0
801,G6,109.515,167/1000,100,127.0
802,D6,109.681,167/1000,100,127.0
803,C6,109.848,167/1000,100,127.0
804,E2,110.0,0.25,100,127.0
805,F5,110.015,167/1000,100,127.0
806,D5,110.181,167/1000,100,127.0
807,E2,110.25,0.25,100,127.0
808,C6,110.348,167/1000,100,127.0
809,E2,110.5,0.25,100,127.0
810,G5,110.515,167/1000,100,127.0
811,F5,110.681,167/1000,100,127.0
812,E2,110.75,0.25,100,127.0
813,C5,110.848,167/1000,100,127.0
814,C2,111.0,0.25,100,127.0
815,B-2,111.0,0.25,100,127.0
816,A4,111.015,167/1000,100,127.0
817,C5,111.181,167/1000,100,127.0
818,G4,111.348,167/1000,100,127.0
819,C#3,111.5,0.5,100,127.0
820,C2,111.5,0.5,100,127.0
821,G5,111.515,167/1000,100,127.0
822,F5,111.681,167/1000,100,127.0
823,C5,111.848,167/1000,100,127.0
824,A2,112.0,0.5,100,127.0
825,A1,112.0,0.5,100,127.0
826,C2,112.0,0.5,100,127.0
827,C#3,112.0,1.0,100,127.0
828,C#3,112.0,3/200,100,127.0
829,C2,112.0,3/200,100,127.0
830,A4,112.015,97/200,100,127.0
831,C3,112.5,0.5,100,127.0
832,C2,112.5,0.5,100,127.0
833,C2,112.5,0.5,100,127.0
834,D3,113.0,0.5,100,127.0
835,D2,113.0,0.5,100,127.0
836,E2,113.0,0.5,100,127.0
837,B-2,113.0,1.0,100,127.0
838,E-5,113.431,83/1000,100,127.0
839,A2,113.5,1.0,100,127.0
840,A1,113.5,1.0,100,127.0
841,C2,113.5,1.0,100,127.0
842,A5,113.515,2.5,100,127.0
843,E5,113.515,2.5,100,127.0
844,A4,113.515,2.5,100,127.0
845,B-2,114.0,1.0,100,127.0
846,A2,114.5,0.5,100,127.0
847,A1,114.5,0.5,100,127.0
848,C2,114.5,0.5,100,127.0
849,C3,115.0,0.5,100,127.0
850,C2,115.0,0.5,100,127.0
851,E2,115.0,0.5,100,127.0
852,B-2,115.0,1.0,100,127.0
853,D3,115.5,0.5,100,127.0
854,D2,115.5,0.5,100,127.0
855,C2,115.5,0.5,100,127.0
856,G3,116.0,0.5,100,127.0
857,G2,116.0,0.5,100,127.0
858,E2,116.0,0.5,100,127.0
859,B-2,116.0,1.0,100,127.0
860,G5,116.015,0.5,100,127.0
861,D5,116.015,0.5,100,127.0
862,G4,116.015,0.5,100,127.0
863,A5,116.015,3/200,100,127.0
864,E5,116.015,3/200,100,127.0
865,A4,116.015,3/200,100,127.0
866,F#3,116.5,0.5,100,127.0
867,F#2,116.5,0.5,100,127.0
868,E2,116.5,0.5,100,127.0
869,F#5,116.515,0.5,100,127.0
870,D5,116.515,0.5,100,127.0
871,F#4,116.515,0.5,100,127.0
872,F#2,117.0,1.0,100,127.0
873,F#1,117.0,1.0,100,127.0
874,C#3,117.0,1.0,100,127.0
875,C2,117.0,1.0,100,127.0
876,A5,117.015,497/200,100,127.0
877,D5,117.015,497/200,100,127.0
878,A4,117.015,497/200,100,127.0
879,A2,118.0,0.5,100,127.0
880,A1,118.0,0.5,100,127.0
881,E2,118.0,61/125,100,127.0
882,B-2,118.0,1.0,100,127.0
883,C3,118.5,0.5,100,127.0
884,C2,118.5,0.5,100,127.0
885,C2,118.5,0.5,100,127.0
886,D3,119.0,0.5,100,127.0
887,D2,119.0,0.5,100,127.0
888,E2,119.0,0.5,100,127.0
889,F2,119.5,0.5,100,127.0
890,F1,119.5,0.5,100,127.0
891,C#3,119.5,0.5,100,127.0
892,C2,119.5,0.5,100,127.0
893,C6,119.515,0.5,100,127.0
894,F5,119.515,0.5,100,127.0
895,C5,119.515,0.5,100,127.0
896,F2,120.0,203/200,100,127.0
897,F1,120.0,0.5,100,127.0
898,B-2,120.0,97/200,100,127.0
899,C2,120.0,0.5,100,127.0
900,C6,120.015,1.0,100,127.0
901,F5,120.015,1.0,100,127.0
902,C5,120.015,1.0,100,127.0
903,C3,120.5,103/200,70,127.0
904,C2,120.5,0.5,100,127.0
905,C2,120.5,0.5,100,127.0
906,F#2,120.5,0.5,100,127.0
907,E2,121.0,297/200,100,127.0
908,E1,121.0,1.0,100,127.0
909,E2,121.0,297/200,100,127.0
910,C6,121.015,297/200,100,127.0
911,E5,121.015,297/200,100,127.0
912,C5,121.015,297/200,100,127.0
913,B-2,121.5,103/200,100,127.0
914,C3,122.0,0.5,70,127.0
915,C2,122.0,0.5,100,127.0
916,C2,122.0,0.5,100,127.0
917,F#2,122.0,0.5,100,127.0
918,F2,122.5,1.5,100,127.0
919,F1,122.5,1.5,100,127.0
920,C2,122.5,0.5,100,127.0
921,C6,122.515,1.5,100,127.0
922,F5,122.515,1.5,100,127.0
923,C5,122.515,1.5,100,127.0
924,B-2,123.0,97/200,100,127.0
925,C2,123.5,0.5,100,127.0
926,F#2,123.5,0.5,100,127.0
927,C3,124.0,0.5,70,127.0
928,F2,124.0,3/200,100,127.0
929,C2,124.0,0.5,70,127.0
930,C2,124.0,167/1000,100,127.0
931,G3,124.0,1.0,100,127.0
932,C6,124.015,0.5,100,127.0
933,G5,124.015,0.5,100,127.0
934,C5,124.015,0.5,100,127.0
935,C6,124.015,3/200,100,127.0
936,F5,124.015,3/200,100,127.0
937,C5,124.015,3/200,100,127.0
938,C2,124.167,167/1000,100,127.0
939,C2,124.333,167/1000,100,127.0
940,G2,124.5,103/200,100,127.0
941,G1,124.5,103/200,100,127.0
942,C2,124.5,0.25,100,127.0
943,G5,124.515,61/250,100,127.0
944,D5,124.515,61/250,100,127.0
945,G4,124.515,61/250,100,127.0
946,C2,124.75,0.25,100,127.0
947,C5,124.765,0.062,80,127.0
948,B4,124.827,0.062,80,127.0
949,A4,124.89,0.062,80,127.0
950,G4,124.952,0.062,80,127.0
951,C2,125.0,0.25,100,127.0
952,G3,125.0,1.0,100,127.0
953,F4,125.015,0.062,80,127.0
954,E4,125.077,0.062,80,127.0
955,D4,125.14,0.062,80,127.0
956,C4,125.202,0.062,80,127.0
957,C2,125.25,0.25,100,127.0
958,B3,125.265,0.062,80,127.0
959,A3,125.327,0.062,80,127.0
960,C2,125.5,0.25,100,127.0
961,C2,125.75,0.25,100,127.0
962,E2,126.0,729/1000,100,127.0
963,G3,126.0,1.0,100,127.0
964,A2,126.015,0.5,100,127.0
965,A1,126.015,0.5,100,127.0
966,A4,126.029,0.5,100,127.0
967,D3,126.515,0.5,100,127.0
968,D2,126.515,0.5,100,127.0
969,D5,126.529,0.5,100,127.0
970,G3,127.0,1.0,100,127.0
971,G3,127.5,0.5,100,127.0
972,G2,127.5,1.0,100,127.0
973,C2,127.5,0.5,100,127.0
974,G5,127.515,0.5,100,127.0
975,G3,128.0,1.0,100,127.0
976,F#3,128.5,0.25,100,127.0
977,F#2,128.5,0.25,100,127.0
978,C2,128.5,0.25,100,127.0
979,F#5,128.515,0.25,100,127.0
980,D3,128.75,271/1000,100,127.0
981,D2,128.75,271/1000,100,127.0
982,C2,128.75,0.25,100,127.0
983,D5,128.765,271/1000,100,127.0
984,C3,129.0,1.0,100,127.0
985,C2,129.0,1.0,100,127.0
986,G3,129.0,1.0,100,127.0
987,C2,129.0,97/200,100,127.0
988,C5,129.015,1.0,100,127.0
989,D3,130.0,0.5,100,127.0
990,D2,130.0,0.5,100,127.0
991,G3,130.0,1.0,100,127.0
992,C2,130.0,0.25,100,127.0
993,D5,130.015,0.5,100,127.0
994,C2,130.25,0.25,100,127.0
995,A2,130.5,1.0,100,127.0
996,A1,130.5,1.0,100,127.0
997,C2,130.5,0.25,100,127.0
998,A4,130.515,1.0,100,127.0
999,C2,130.75,0.25,100,127.0
1000,G3,131.0,1.0,100,127.0
1001,C2,131.0,0.25,100,127.0
1002,C2,131.25,0.25,100,127.0
1003,C3,131.5,0.5,100,127.0
1004,C2,131.5,0.5,100,127.0
1005,C2,131.5,0.25,100,127.0
1006,C5,131.515,0.5,100,127.0
1007,C2,131.75,0.25,100,127.0
1008,G2,132.0,1.0,100,127.0
1009,G1,132.0,1.0,100,127.0
1010,G3,132.0,1.0,100,127.0
1011,E2,132.0,1.0,100,127.0
1012,G4,132.015,1.0,100,127.0
1013,E2,133.0,0.25,100,127.0
1014,E1,133.0,0.25,100,127.0
1015,G3,133.0,1.0,100,127.0
1016,E4,133.015,0.25,100,127.0
1017,F2,133.25,0.25,100,127.0
1018,F1,133.25,0.25,100,127.0
1019,F4,133.265,0.25,100,127.0
1020,F#2,133.5,0.5,100,127.0
1021,F#1,133.5,0.5,100,127.0
1022,C2,133.5,0.5,100,127.0
1023,F#4,133.515,0.5,100,127.0
1024,F#2,134.0,0.5,100,127.0
1025,F#1,134.0,0.5,100,127.0
1026,G3,134.0,1.0,100,127.0
1027,F#4,134.015,0.5,100,127.0
1028,G2,134.5,0.5,100,127.0
1029,G1,134.5,0.5,100,127.0
1030,C2,134.5,0.25,100,127.0
1031,G4,134.515,0.5,100,127.0
1032,C2,134.75,0.25,100,127.0
1033,G#2,135.0,0.5,100,127.0
1034,G#1,135.0,0.5,100,127.0
1035,G3,135.0,1.0,100,127.0
1036,C2,135.0,97/200,100,127.0
1037,G#4,135.015,0.5,100,127.0
1038,A2,135.5,0.5,100,127.0
1039,A1,135.5,0.5,100,127.0
1040,C2,135.5,103/200,100,127.0
1041,A4,135.515,0.5,100,127.0
1042,A3,136.0,97/200,100,127.0
1043,A2,136.0,97/200,100,127.0
1044,G3,136.0,1.0,100,127.0
1045,E2,136.0,0.5,100,127.0
1046,A5,136.015,97/200,100,127.0
1047,G3,136.5,1.5,100,127.0
1048,G2,136.5,1.0,100,127.0
1049,E2,136.5,0.5,100,127.0
1050,G5,136.515,1.5,100,127.0
1051,G3,137.0,1.0,100,127.0
1052,B-1,137.5,0.25,100,127.0
1053,C2,137.5,0.5,100,127.0
1054,B1,137.75,0.25,100,127.0
1055,C3,138.0,0.5,100,127.0
1056,G3,138.0,3/200,100,127.0
1057,C2,138.0,0.5,100,127.0
1058,G3,138.0,1.0,100,127.0
1059,C2,138.0,0.25,100,127.0
1060,C5,138.015,0.5,100,127.0
1061,G5,138.015,3/200,100,127.0
1062,C2,138.25,0.25,100,127.0
1063,G2,138.5,303/200,100,127.0
1064,G1,138.5,303/200,100,127.0
1065,C2,138.5,0.25,100,127.0
1066,G4,138.515,303/200,100,127.0
1067,C2,138.75,0.25,100,127.0
1068,C2,139.0,0.25,100,127.0
1069,G3,139.0,1.0,100,127.0
1070,C2,139.5,0.25,100,127.0
1071,C2,139.75,0.25,100,127.0
1072,E2,140.0,729/1000,100,127.0
1073,G3,140.0,1.0,100,127.0
1074,A2,140.015,0.5,100,127.0
1075,A1,140.015,0.5,100,127.0
1076,A4,140.029,0.5,100,127.0
1077,D3,140.515,0.5,100,127.0
1078,D2,140.515,0.5,100,127.0
1079,D5,140.529,0.5,100,127.0
1080,G3,141.0,1.0,100,127.0
1081,G3,141.5,0.5,100,127.0
1082,G2,141.5,0.5,100,127.0
1083,C2,141.5,0.5,100,127.0
1084,G5,141.515,0.5,100,127.0
1085,G3,142.0,1.0,100,127.0
1086,F#3,142.5,0.25,100,127.0
1087,F#2,142.5,0.25,100,127.0
1088,C2,142.5,0.25,100,127.0
1089,F#5,142.515,0.25,100,127.0
1090,D3,142.75,271/1000,100,127.0
1091,D2,142.75,271/1000,100,127.0
1092,C2,142.75,0.25,100,127.0
1093,D5,142.765,271/1000,100,127.0
1094,C3,143.0,1.0,100,127.0
1095,C2,143.0,1.0,100,127.0
1096,G3,143.0,1.0,100,127.0
1097,C2,143.0,97/200,100,127.0
1098,C5,143.015,1.0,100,127.0
1099,D3,144.0,0.5,100,127.0
1100,D2,144.0,0.5,100,127.0
1101,G3,144.0,1.0,100,127.0
1102,C2,144.0,0.25,100,127.0
1103,D5,144.015,0.5,100,127.0
1104,A5,144.015,0.5,100,127.0
1105,A4,144.015,0.5,100,127.0
1106,C2,144.25,0.25,100,127.0
1107,A2,144.5,1.0,100,127.0
1108,A1,144.5,1.0,100,127.0
1109,C2,144.5,0.25,100,127.0
1110,D5,144.515,1.0,100,127.0
1111,A5,144.515,1.0,100,127.0
1112,A4,144.515,1.0,100,127.0
1113,C2,144.75,0.25,100,127.0
1114,G3,145.0,1.0,100,127.0
1115,C2,145.0,0.25,100,127.0
1116,C2,145.25,0.25,100,127.0
1117,C3,145.5,0.5,100,127.0
1118,C2,145.5,0.5,100,127.0
1119,C2,145.5,0.25,100,127.0
1120,C5,145.515,0.5,100,127.0
1121,G5,145.515,0.5,100,127.0
1122,C2,145.75,0.25,100,127.0
1123,G2,146.0,1.0,100,127.0
1124,G1,146.0,1.0,100,127.0
1125,G3,146.0,1.0,100,127.0
1126,E2,146.0,1.0,100,127.0
1127,G4,146.015,1.0,100,127.0
1128,D5,146.015,1.0,100,127.0
1129,E2,147.0,0.25,100,127.0
1130,E1,147.0,0.25,100,127.0
1131,G3,147.0,1.0,100,127.0
1132,E4,147.015,0.25,100,127.0
1133,F2,147.25,0.25,100,127.0
1134,F1,147.25,0.25,100,127.0
1135,F4,147.265,0.25,100,127.0
1136,F#2,147.5,0.5,100,127.0
1137,F#1,147.5,0.5,100,127.0
1138,C2,147.5,0.5,100,127.0
1139,F#4,147.515,0.5,100,127.0
1140,F#2,148.0,0.5,100,127.0
1141,F#1,148.0,0.5,100,127.0
1142,G3,148.0,1.0,100,127.0
1143,F#4,148.015,0.5,100,127.0
1144,G2,148.5,0.5,100,127.0
1145,G1,148.5,0.5,100,127.0
1146,E2,148.5,103/200,100,127.0
1147,G4,148.515,0.5,100,127.0
1148,G#2,149.0,0.5,100,127.0
1149,G#1,149.0,0.5,100,127.0
1150,G3,149.0,1.0,100,127.0
1151,G#4,149.015,0.5,100,127.0
1152,A2,149.5,0.5,100,127.0
1153,A1,149.5,0.5,100,127.0
1154,C2,149.5,103/200,100,127.0
1155,A4,149.515,0.5,100,127.0
1156,C4,150.0,97/200,100,127.0
1157,D3,150.0,97/200,100,127.0
1158,E2,150.0,0.5,100,127.0
1159,G3,150.0,1.0,100,127.0
1160,D6,150.015,0.5,100,127.0
1161,A5,150.015,0.5,100,127.0
1162,D5,150.015,0.5,100,127.0
1163,C4,150.5,1.5,100,127.0
1164,C3,150.5,1.5,100,127.0
1165,C2,150.5,0.5,100,127.0
1166,E3,150.5,0.5,100,127.0
1167,C6,150.515,1.5,100,127.0
1168,G5,150.515,1.5,100,127.0
1169,C5,150.515,1.5,100,127.0
1170,G3,151.0,1.0,100,127.0
1171,E2,151.5,0.5,100,127.0
1172,C3,152.0,0.5,100,127.0
1173,C4,152.0,3/200,100,127.0
1174,C2,152.0,0.5,100,127.0
1175,C3,152.0,3/200,100,127.0
1176,C#3,152.0,1.0,100,127.0
1177,C2,152.0,0.5,100,127.0
1178,C6,152.015,0.5,100,127.0
1179,G5,152.015,0.5,100,127.0
1180,C5,152.015,0.5,100,127.0
1181,D3,152.5,303/200,100,127.0
1182,D2,152.5,303/200,100,127.0
1183,D5,152.515,1.5,100,127.0
1184,A5,152.515,1.5,100,127.0
1185,D6,152.515,1.5,100,127.0
1186,G3,153.0,1.0,100,127.0
1187,C2,153.0,0.5,100,127.0
1188,C2,153.5,0.5,100,127.0
1189,G2,154.0,0.5,100,127.0
1190,G1,154.0,0.5,100,127.0
1191,G3,154.0,1.0,100,127.0
1192,E2,154.0,0.5,100,127.0
1193,G4,154.015,0.5,100,127.0
1194,G#2,154.5,0.5,100,127.0
1195,G#1,154.5,0.5,100,127.0
1196,G#4,154.515,0.5,100,127.0
1197,A2,155.0,0.5,100,127.0
1198,A1,155.0,0.5,100,127.0
1199,G3,155.0,1.0,100,127.0
1200,A4,155.015,0.5,100,127.0
1201,F3,155.5,0.5,100,127.0
1202,F2,155.5,0.5,100,127.0
1203,C2,155.5,0.5,100,127.0
1204,F5,155.515,0.5,100,127.0
1205,C5,155.515,0.5,100,127.0
1206,F3,156.0,0.5,100,127.0
1207,F2,156.0,0.5,100,127.0
1208,G3,156.0,1.0,100,127.0
1209,D3,156.5,0.25,100,127.0
1210,D2,156.5,0.25,100,127.0
1211,E2,156.5,0.5,100,127.0
1212,F5,156.515,0.5,100,127.0
1213,C5,156.515,0.5,100,127.0
1214,C3,156.75,0.25,100,127.0
1215,C2,156.75,0.25,100,127.0
1216,A2,157.0,0.5,100,127.0
1217,A1,157.0,0.5,100,127.0
1218,G3,157.0,1.0,100,127.0
1219,D5,157.015,0.25,100,127.0
1220,C5,157.265,0.25,100,127.0
1221,E3,157.5,0.5,100,127.0
1222,E2,157.5,0.5,100,127.0
1223,C2,157.5,0.5,100,127.0
1224,A4,157.515,0.5,100,127.0
1225,D3,158.0,0.25,100,127.0
1226,D2,158.0,0.25,100,127.0
1227,G3,158.0,1.0,100,127.0
1228,E2,158.0,0.5,100,127.0
1229,E5,158.015,0.5,100,127.0
1230,C3,158.25,0.25,100,127.0
1231,C2,158.25,0.25,100,127.0
1232,A2,158.5,103/200,100,127.0
1233,A1,158.5,103/200,100,127.0
1234,C2,158.5,0.5,100,127.0
1235,D5,158.515,0.25,100,127.0
1236,C5,158.765,0.25,100,127.0
1237,C3,159.0,0.5,100,127.0
1238,C2,159.0,0.5,100,127.0
1239,G3,159.0,1.0,100,127.0
1240,E2,159.0,0.5,100,127.0
1241,A4,159.015,103/200,100,127.0
1242,D3,159.5,0.5,100,127.0
1243,D2,159.5,0.5,100,127.0
1244,C2,159.5,0.5,100,127.0
1245,C5,159.515,0.5,100,127.0
1246,G#2,160.0,0.5,100,127.0
1247,G#1,160.0,0.5,100,127.0
1248,C2,160.0,0.5,100,127.0
1249,A3,160.0,1.0,100,127.0
1250,D5,160.015,0.5,100,127.0
1251,G2,160.5,1.0,100,127.0
1252,G1,160.5,1.0,100,127.0
1253,C2,160.5,0.5,100,127.0
1254,G#4,160.515,0.5,100,127.0
1255,D5,160.515,0.5,100,127.0
1256,E2,161.0,0.5,100,127.0
1257,G3,161.0,1.0,100,127.0
1258,G4,161.015,1.0,100,127.0
1259,D5,161.015,1.0,100,127.0
1260,F2,161.5,0.5,100,127.0
1261,F1,161.5,0.5,100,127.0
1262,C2,161.5,0.5,100,127.0
1263,D2,162.0,0.5,100,127.0
1264,D1,162.0,0.5,100,127.0
1265,E2,162.0,83/1000,100,127.0
1266,F4,162.015,0.5,100,127.0
1267,E2,162.083,83/1000,100,127.0
1268,E-2,162.5,0.5,100,127.0
1269,E-1,162.5,0.5,100,127.0
1270,C2,162.5,0.5,100,127.0
1271,C#3,162.5,0.5,100,127.0
1272,D4,162.515,0.5,100,127.0
1273,E2,163.0,297/200,100,127.0
1274,E1,163.0,297/200,100,127.0
1275,B5,163.0,2.0,100,127.0
1276,G#5,163.0,2.0,100,127.0
1277,E5,163.0,2.0,100,127.0
1278,E3,163.0,4.0,100,127.0
1279,E2,163.0,4.0,100,127.0
1280,B4,163.0,4.0,100,127.0
1281,B5,163.0,2.0,100,127.0
1282,G#5,163.0,2.0,100,127.0
1283,E5,163.0,2.0,100,127.0
1284,E3,163.0,4.0,100,127.0
1285,E2,163.0,4.0,100,127.0
1286,B4,163.0,4.0,100,127.0
1287,C2,163.0,1.0,100,127.0
1288,C#3,163.0,1.0,100,127.0
1289,E-4,163.015,0.5,100,127.0
1290,E3,164.0,1.0,100,127.0
1291,G#2,164.5,0.5,100,127.0
1292,G#1,164.5,0.5,100,127.0
1293,C2,164.5,0.5,100,127.0
1294,A2,165.0,297/200,100,127.0
1295,A1,165.0,297/200,100,127.0
1296,E2,165.0,0.5,100,127.0
1297,E3,165.0,1.0,100,127.0
1298,B5,165.0,2.0,80,127.0
1299,G#5,165.0,2.0,80,127.0
1300,E5,165.0,2.0,80,127.0
1301,B5,165.0,2.0,80,127.0
1302,G#5,165.0,2.0,80,127.0
1303,E5,165.0,2.0,80,127.0
1304,E3,166.0,1.0,100,127.0
1305,A2,166.5,0.5,100,127.0
1306,A1,166.5,0.5,100,127.0
1307,C2,166.5,0.5,100,127.0
1308,A2,167.0,0.5,100,127.0
1309,A1,167.0,0.5,100,127.0
1310,C2,167.0,0.5,100,127.0
1311,E3,167.0,1.0,100,127.0
1312,B2,167.5,0.5,100,127.0
1313,B1,167.5,0.5,100,127.0
1314,E2,167.5,1.0,100,127.0
1315,D3,168.0,0.5,100,127.0
1316,D2,168.0,0.5,100,127.0
1317,E3,168.0,1.0,100,127.0
1318,E3,168.5,0.5,100,127.0
1319,E2,168.5,0.5,100,127.0
1320,C2,168.5,0.25,100,127.0
1321,D3,169.0,0.5,100,127.0
1322,D2,169.0,0.5,100,127.0
1323,E2,169.0,97/200,100,127.0
1324,E3,169.0,97/200,100,127.0
1325,B5,169.485,497/200,80,127.0
1326,G#5,169.485,497/200,80,127.0
1327,E5,169.485,497/200,80,127.0
1328,E3,169.485,497/200,100,127.0
1329,E2,169.485,497/200,100,127.0
1330,B4,169.485,497/200,100,127.0
1331,B5,169.485,497/200,80,127.0
1332,G#5,169.485,497/200,80,127.0
1333,E5,169.485,497/200,80,127.0
1334,E3,169.485,497/200,100,127.0
1335,E2,169.485,497/200,100,127.0
1336,B4,169.485,497/200,100,127.0
1337,F#2,169.5,1.0,100,127.0
1338,F#1,169.5,1.0,100,127.0
1339,C2,169.5,1.0,100,127.0
1340,C#3,169.5,1.0,100,127.0
1341,G2,170.5,1.0,100,127.0
1342,G1,170.5,1.0,100,127.0
1343,C#3,170.5,1.0,100,127.0
1344,C2,170.5,1.0,100,127.0
1345,D3,171.5,0.5,100,127.0
1346,D2,171.5,0.5,100,127.0
1347,E2,171.5,1.0,100,127.0
1348,F#3,171.985,1.0,100,127.0
1349,F#5,171.985,1.0,100,127.0
1350,D5,171.985,1.0,100,127.0
1351,A4,171.985,1.0,100,127.0
1352,F#2,171.985,1.0,100,127.0
1353,F#3,171.985,1.0,100,127.0
1354,F#5,171.985,1.0,100,127.0
1355,D5,171.985,1.0,100,127.0
1356,A4,171.985,1.0,100,127.0
1357,F#2,171.985,1.0,100,127.0
1358,G3,172.0,0.5,100,127.0
1359,G2,172.0,0.5,100,127.0
1360,E3,172.0,1.0,100,127.0
1361,F#3,172.5,1.0,100,127.0
1362,F#2,172.5,1.0,100,127.0
1363,C2,172.5,103/200,100,127.0
1364,G5,172.985,2.0,100,127.0
1365,D5,172.985,2.0,100,127.0
1366,B4,172.985,2.0,100,127.0
1367,G3,172.985,2.0,100,127.0
1368,G2,172.985,2.0,100,127.0
1369,G5,172.985,2.0,100,127.0
1370,D5,172.985,2.0,100,127.0
1371,B4,172.985,2.0,100,127.0
1372,G3,172.985,2.0,100,127.0
1373,G2,172.985,2.0,100,127.0
1374,E3,173.0,1.0,100,127.0
1375,E2,173.0,1.0,100,127.0
1376,D3,173.5,1.0,100,127.0
1377,D2,173.5,1.0,100,127.0
1378,E3,174.0,0.5,100,127.0
1379,A2,174.5,0.5,100,127.0
1380,A1,174.5,0.5,100,127.0
1381,C2,174.5,0.5,100,127.0
1382,E3,174.5,0.5,100,127.0
1383,F#5,174.985,2.0,100,127.0
1384,D5,174.985,2.0,100,127.0
1385,A4,174.985,2.0,100,127.0
1386,F#3,174.985,2.0,100,127.0
1387,F#2,174.985,2.0,100,127.0
1388,F#5,174.985,2.0,100,127.0
1389,D5,174.985,2.0,100,127.0
1390,A4,174.985,2.0,100,127.0
1391,F#3,174.985,2.0,100,127.0
1392,F#2,174.985,2.0,100,127.0
1393,B2,175.0,0.5,100,127.0
1394,B1,175.0,0.5,100,127.0
1395,E3,175.0,1.0,100,127.0
1396,D3,175.5,103/200,100,127.0
1397,D2,175.5,103/200,100,127.0
1398,E2,175.5,1.0,100,127.0
1399,E3,176.0,0.5,100,127.0
1400,E2,176.0,0.5,100,127.0
1401,E3,176.0,1.0,100,127.0
1402,A2,176.5,1.0,100,127.0
1403,A1,176.5,1.0,100,127.0
1404,C2,176.5,0.5,100,127.0
1405,E2,177.0,83/1000,100,127.0
1406,E2,177.083,83/1000,100,127.0
1407,G2,177.5,0.5,100,127.0
1408,G1,177.5,0.5,100,127.0
1409,C2,177.5,0.5,100,127.0
1410,C#3,177.5,0.5,100,127.0
1411,E2,178.0,297/200,100,127.0
1412,E1,178.0,297/200,100,127.0
1413,C#3,178.0,1.0,100,127.0
1414,C2,178.0,1.0,100,127.0
1415,F#5,178.985,2.0,100,127.0
1416,D5,178.985,2.0,100,127.0
1417,A4,178.985,2.0,100,127.0
1418,F#3,178.985,2.0,100,127.0
1419,F#2,178.985,2.0,100,127.0
1420,F#5,178.985,2.0,100,127.0
1421,D5,178.985,2.0,100,127.0
1422,A4,178.985,2.0,100,127.0
1423,F#3,178.985,2.0,100,127.0
1424,F#2,178.985,2.0,100,127.0
1425,E3,179.0,1.0,100,127.0
1426,G#2,179.5,0.5,100,127.0
1427,G#1,179.5,0.5,100,127.0
1428,C2,179.5,0.5,100,127.0
1429,A2,180.0,297/200,100,127.0
1430,A1,180.0,297/200,100,127.0
1431,E2,180.0,0.5,100,127.0
1432,E3,180.0,1.0,100,127.0
1433,A5,180.985,1.5,100,127.0
1434,E5,180.985,1.5,100,127.0
1435,B4,180.985,1.5,100,127.0
1436,A3,180.985,1.5,100,127.0
1437,A2,180.985,1.5,100,127.0
1438,A5,180.985,1.5,100,127.0
1439,E5,180.985,1.5,100,127.0
1440,B4,180.985,1.5,100,127.0
1441,A3,180.985,1.5,100,127.0
1442,A2,180.985,1.5,100,127.0
1443,E3,181.0,1.0,100,127.0
1444,A2,181.5,0.5,100,127.0
1445,A1,181.5,0.5,100,127.0
1446,C2,181.5,0.5,100,127.0
1447,A2,182.0,0.5,100,127.0
1448,A1,182.0,0.5,100,127.0
1449,C2,182.0,0.5,100,127.0
1450,E3,182.0,1.0,100,127.0
1451,B2,182.5,0.5,100,127.0
1452,B1,182.5,0.5,100,127.0
1453,E2,182.5,1.0,100,127.0
1454,B4,182.5,4.0,100,127.0
1455,E2,182.5,4.0,100,127.0
1456,E3,182.5,4.0,100,127.0
1457,A5,182.5,3/200,100,127.0
1458,E5,182.5,3/200,100,127.0
1459,B4,182.5,3/200,100,127.0
1460,A3,182.5,3/200,100,127.0
1461,A2,182.5,3/200,100,127.0
1462,E5,182.5,2.0,100,127.0
1463,G#5,182.5,2.0,100,127.0
1464,B5,182.5,2.0,100,127.0
1465,B4,182.5,4.0,100,127.0
1466,E2,182.5,4.0,100,127.0
1467,E3,182.5,4.0,100,127.0
1468,A5,182.5,3/200,100,127.0
1469,E5,182.5,3/200,100,127.0
1470,B4,182.5,3/200,100,127.0
1471,A3,182.5,3/200,100,127.0
1472,A2,182.5,3/200,100,127.0
1473,E5,182.5,2.0,100,127.0
1474,G#5,182.5,2.0,100,127.0
1475,B5,182.5,2.0,100,127.0
1476,D3,183.0,0.5,100,127.0
1477,D2,183.0,0.5,100,127.0
1478,E3,183.0,1.0,100,127.0
1479,E3,183.5,0.5,100,127.0
1480,E2,183.5,0.5,100,127.0
1481,C2,183.5,0.25,100,127.0
1482,D3,184.0,0.5,100,127.0
1483,D2,184.0,0.5,100,127.0
1484,E2,184.0,97/200,100,127.0
1485,E3,184.0,97/200,100,127.0
1486,F#2,184.5,1.0,100,127.0
1487,F#1,184.5,1.0,100,127.0
1488,B5,184.5,2.0,80,127.0
1489,G#5,184.5,2.0,80,127.0
1490,E5,184.5,2.0,80,127.0
1491,B5,184.5,2.0,80,127.0
1492,G#5,184.5,2.0,80,127.0
1493,E5,184.5,2.0,80,127.0
1494,C2,184.5,1.0,100,127.0
1495,C#3,184.5,1.0,100,127.0
1496,G2,185.5,1.0,100,127.0
1497,G1,185.5,1.0,100,127.0
1498,C#3,185.5,1.0,100,127.0
1499,C2,185.5,1.0,100,127.0
1500,D3,186.5,0.5,100,127.0
1501,D2,186.5,0.5,100,127.0
1502,E2,186.5,1.0,100,127.0
1503,G3,187.0,0.5,100,127.0
1504,G2,187.0,0.5,100,127.0
1505,E3,187.0,1.0,100,127.0
1506,F#3,187.5,1.0,100,127.0
1507,F#2,187.5,1.0,100,127.0
1508,C2,187.5,103/200,100,127.0
1509,E3,188.0,1.0,100,127.0
1510,E2,188.0,1.0,100,127.0
1511,D3,188.5,1.0,100,127.0
1512,D2,188.5,1.0,100,127.0
1513,B4,188.985,497/200,100,127.0
1514,E2,188.985,497/200,100,127.0
1515,E3,188.985,497/200,100,127.0
1516,B5,188.985,497/200,80,127.0
1517,G#5,188.985,497/200,80,127.0
1518,E5,188.985,497/200,80,127.0
1519,B4,188.985,497/200,100,127.0
1520,E2,188.985,497/200,100,127.0
1521,E3,188.985,497/200,100,127.0
1522,B5,188.985,497/200,80,127.0
1523,G#5,188.985,497/200,80,127.0
1524,E5,188.985,497/200,80,127.0
1525,E3,189.0,0.5,100,127.0
1526,A2,189.5,0.5,100,127.0
1527,A1,189.5,0.5,100,127.0
1528,C2,189.5,0.5,100,127.0
1529,E3,189.5,0.5,100,127.0
1530,B2,190.0,0.5,100,127.0
1531,B1,190.0,0.5,100,127.0
1532,E3,190.0,1.0,100,127.0
1533,C2,190.0,0.5,100,127.0
1534,D3,190.5,103/200,100,127.0
1535,D2,190.5,103/200,100,127.0
1536,E2,190.5,1.0,100,127.0
1537,E3,191.0,0.5,100,127.0
1538,E2,191.0,0.5,100,127.0
1539,E3,191.0,1.0,100,127.0
1540,F#3,191.485,1.0,100,127.0
1541,F#5,191.485,1.0,100,127.0
1542,D5,191.485,1.0,100,127.0
1543,A4,191.485,1.0,100,127.0
1544,F#2,191.485,1.0,100,127.0
1545,F#3,191.485,1.0,100,127.0
1546,F#5,191.485,1.0,100,127.0
1547,D5,191.485,1.0,100,127.0
1548,A4,191.485,1.0,100,127.0
1549,F#2,191.485,1.0,100,127.0
1550,A2,191.5,1.0,100,127.0
1551,A1,191.5,1.0,100,127.0
1552,C2,191.5,0.5,100,127.0
1553,E2,192.0,83/1000,100,127.0
1554,E2,192.083,83/1000,100,127.0
1555,G5,192.485,503/200,100,127.0
1556,D5,192.485,503/200,100,127.0
1557,B4,192.485,503/200,100,127.0
1558,G3,192.485,503/200,100,127.0
1559,G2,192.485,503/200,100,127.0
1560,G5,192.485,503/200,100,127.0
1561,D5,192.485,503/200,100,127.0
1562,B4,192.485,503/200,100,127.0
1563,G3,192.485,503/200,100,127.0
1564,G2,192.485,503/200,100,127.0
1565,G2,192.5,0.5,100,127.0
1566,G1,192.5,0.5,100,127.0
1567,C2,192.5,0.5,100,127.0
1568,C#3,192.5,0.5,100,127.0
1569,E3,193.0,4.0,80,127.0
1570,E1,193.0,4.0,100,127.0
1571,B2,193.0,4.0,80,127.0
1572,E2,193.0,4.0,80,127.0
1573,C#3,193.0,1.0,100,127.0
1574,C2,193.0,1.0,100,127.0
1575,C#2,194.0,1.0,100,127.0
1576,F#2,194.0,0.5,70,127.0
1577,C#2,195.0,1.0,100,127.0
1578,F#2,195.0,0.5,70,127.0
1579,F#5,195.0,297/200,100,127.0
1580,D5,195.0,297/200,100,127.0
1581,A4,195.0,297/200,100,127.0
1582,F#3,195.0,297/200,100,127.0
1583,F#2,195.0,297/200,100,127.0
1584,F#5,195.0,297/200,100,127.0
1585,D5,195.0,297/200,100,127.0
1586,A4,195.0,297/200,100,127.0
1587,F#3,195.0,297/200,100,127.0
1588,F#2,195.0,297/200,100,127.0
1589,F#2,195.5,0.5,85,127.0
1590,C#2,196.0,1.0,100,127.0
1591,F#2,196.0,0.5,70,127.0
1592,F#2,196.5,0.5,85,127.0
1593,E1,197.0,4.0,100,127.0
1594,F#2,197.0,0.5,70,127.0
1595,C#2,197.0,1.0,100,127.0
1596,F#2,197.5,0.5,85,127.0
1597,C#2,198.0,1.0,100,127.0
1598,F#2,198.0,0.5,70,127.0
1599,F#5,198.485,2.0,100,127.0
1600,D5,198.485,2.0,100,127.0
1601,A4,198.485,2.0,100,127.0
1602,F#3,198.485,2.0,100,127.0
1603,F#2,198.485,2.0,100,127.0
1604,F#5,198.485,2.0,100,127.0
1605,D5,198.485,2.0,100,127.0
1606,A4,198.485,2.0,100,127.0
1607,F#3,198.485,2.0,100,127.0
1608,F#2,198.485,2.0,100,127.0
1609,F#2,198.5,0.5,85,127.0
1610,F#2,199.0,0.5,70,127.0
1611,C#2,199.0,1.0,100,127.0
1612,F#2,199.5,0.5,85,127.0
1613,C#2,200.0,1.0,100,127.0
1614,F#2,200.0,0.25,80,127.0
1615,F#2,200.25,0.25,80,127.0
1616,A2,200.485,1.5,100,127.0
1617,A3,200.485,1.5,100,127.0
1618,B4,200.485,1.5,100,127.0
1619,E5,200.485,1.5,100,127.0
1620,A5,200.485,1.5,100,127.0
1621,A2,200.485,1.5,100,127.0
1622,A3,200.485,1.5,100,127.0
1623,B4,200.485,1.5,100,127.0
1624,E5,200.485,1.5,100,127.0
1625,A5,200.485,1.5,100,127.0
1626,B-2,200.5,0.5,85,127.0
1627,E1,201.0,4.0,100,127.0
1628,C#2,201.0,1.0,100,127.0
1629,F#2,201.0,0.5,70,127.0
1630,F#2,201.5,0.5,85,127.0
1631,C#2,202.0,1.0,100,127.0
1632,F#2,202.0,0.5,70,127.0
1633,E2,202.0,2.0,100,127.0
1634,E3,202.0,2.0,100,127.0
1635,E4,202.0,2.0,100,127.0
1636,A2,202.0,3/200,100,127.0
1637,A3,202.0,3/200,100,127.0
1638,B4,202.0,3/200,100,127.0
1639,E5,202.0,3/200,100,127.0
1640,A5,202.0,3/200,100,127.0
1641,A2,202.0,3/200,100,127.0
1642,A3,202.0,3/200,100,127.0
1643,B4,202.0,3/200,100,127.0
1644,E5,202.0,3/200,100,127.0
1645,A5,202.0,3/200,100,127.0
1646,F#2,202.5,0.5,85,127.0
1647,C#2,203.0,1.0,100,127.0
1648,F#2,203.0,0.5,70,127.0
1649,F#2,203.5,0.5,85,127.0
1650,C#2,204.0,1.0,100,127.0
1651,F#2,204.0,0.5,70,127.0
1652,F#4,204.5,0.5,90,127.0
1653,F#2,204.5,0.5,85,127.0
1654,E1,205.0,4.0,100,127.0
1655,G#4,205.0,0.5,90,127.0
1656,F#2,205.0,0.25,80,127.0
1657,C#2,205.0,1.0,100,127.0
1658,F#2,205.25,0.25,80,127.0
1659,B-2,205.5,0.5,85,127.0
1660,A4,205.5,0.5,89,127.0
1661,A2,205.5,0.5,89,127.0
1662,E4,205.5,0.5,89,127.0
1663,A3,205.5,0.5,89,127.0
1664,F#2,206.0,0.25,80,127.0
1665,C#2,206.0,1.0,100,127.0
1666,A4,206.0,0.5,89,127.0
1667,A2,206.0,0.5,89,127.0
1668,E4,206.0,0.5,89,127.0
1669,A3,206.0,0.5,89,127.0
1670,F#2,206.25,0.25,80,127.0
1671,B4,206.5,0.5,100,127.0
1672,B-2,206.5,0.5,85,127.0
1673,C#5,207.0,0.5,100,127.0
1674,F#2,207.0,0.25,80,127.0
1675,C#2,207.0,1.0,100,127.0
1676,F#2,207.25,0.25,80,127.0
1677,B-2,207.5,0.5,85,127.0
1678,D5,207.5,1.0,91,127.0
1679,E4,207.5,1.0,91,127.0
1680,A3,207.5,1.0,91,127.0
1681,F#2,208.0,0.25,80,127.0
1682,C#2,208.0,1.0,100,127.0
1683,F#2,208.25,0.25,80,127.0
1684,C#5,208.5,0.5,100,127.0
1685,B-2,208.5,0.5,85,127.0
1686,E1,209.0,0.5,100,127.0
1687,A4,209.0,1.0,100,127.0
1688,F#3,209.0,1.0,100,127.0
1689,G3,209.0,1.0,100,127.0
1690,C2,209.0,1.0,100,127.0
1691,E3,209.5,4.0,80,127.0
1692,B2,209.5,4.0,80,127.0
1693,E2,209.5,4.0,80,127.0
1694,C#2,210.0,1.0,100,127.0
1695,F#2,210.0,0.5,70,127.0
1696,B4,210.0,0.5,100,127.0
1697,A3,210.0,0.5,100,127.0
1698,E5,210.5,0.5,100,127.0
1699,D5,211.0,0.5,100,127.0
1700,C#2,211.0,1.0,100,127.0
1701,F#2,211.0,0.5,70,127.0
1702,F#2,211.5,0.5,85,127.0
1703,C#5,211.5,1.0,90,127.0
1704,D4,211.5,1.0,90,127.0
1705,A3,211.5,1.0,90,127.0
1706,C#2,212.0,1.0,100,127.0
1707,F#2,212.0,0.5,70,127.0
1708,F#2,212.5,0.5,85,127.0
1709,B4,212.5,0.5,90,127.0
1710,E3,212.5,0.5,90,127.0
1711,A4,213.0,0.5,100,127.0
1712,F#2,213.0,0.5,70,127.0
1713,C#2,213.0,1.0,100,127.0
1714,E3,213.5,4.0,80,127.0
1715,E4,213.5,0.5,100,127.0
1716,F#2,213.5,0.5,85,127.0
1717,B2,213.5,4.0,80,127.0
1718,E2,213.5,4.0,80,127.0
1719,C#2,214.0,1.0,100,127.0
1720,F#2,214.0,0.5,70,127.0
1721,F#4,214.0,0.5,80,127.0
1722,A3,214.0,0.5,80,127.0
1723,D3,214.0,0.5,80,127.0
1724,B4,214.5,0.5,80,127.0
1725,F#2,214.5,0.5,85,127.0
1726,A4,215.0,0.5,80,127.0
1727,F#2,215.0,0.5,70,127.0
1728,C#2,215.0,1.0,100,127.0
1729,F#2,215.5,0.5,85,127.0
1730,G#4,215.5,0.5,85,127.0
1731,E3,215.5,0.5,85,127.0
1732,E2,215.5,0.5,85,127.0
1733,C#2,216.0,1.0,100,127.0
1734,F#2,216.0,0.5,70,127.0
1735,B3,216.125,0.125,80,127.0
1736,E4,216.25,0.125,80,127.0
1737,F#4,216.375,0.125,80,127.0
1738,G#4,216.5,0.125,80,127.0
1739,F#2,216.5,0.5,85,127.0
1740,B4,216.625,0.125,80,127.0
1741,E5,216.75,0.125,80,127.0
1742,F#5,216.875,0.125,80,127.0
1743,G#5,217.0,0.125,80,127.0
1744,C#2,217.0,1.0,100,127.0
1745,F#2,217.0,0.5,70,127.0
1746,B5,217.115,0.125,80,127.0
1747,E6,217.25,0.125,80,127.0
1748,F#6,217.375,0.125,80,127.0
1749,E3,217.5,4.0,80,127.0
1750,G#6,217.5,0.125,80,127.0
1751,F#2,217.5,0.5,85,127.0
1752,B2,217.5,4.0,80,127.0
1753,E2,217.5,4.0,80,127.0
1754,B6,217.625,0.125,80,127.0
1755,E7,217.75,0.125,80,127.0
1756,F#7,217.875,0.125,80,127.0
1757,G#7,218.0,2.25,100,127.0
1758,C#2,218.0,1.0,100,127.0
1759,F#2,218.0,0.5,70,127.0
1760,E2,218.0,297/200,100,127.0
1761,E1,218.0,297/200,100,127.0
1762,F#2,218.5,0.5,85,127.0
1763,C#2,219.0,1.0,100,127.0
1764,F#2,219.0,0.5,70,127.0
1765,B3,219.5,0.25,100,127.0
1766,F#2,219.5,0.5,85,127.0
1767,E4,220.0,0.25,100,127.0
1768,C#2,220.0,1.0,100,127.0
1769,F#2,220.0,0.5,105,127.0
1770,F#2,220.5,0.5,85,127.0
1771,A5,220.5,0.5,100,127.0
1772,A4,220.5,0.5,100,127.0
1773,E5,220.5,0.5,100,127.0
1774,B5,221.0,0.5,100,127.0
1775,E5,221.0,0.5,100,127.0
1776,B4,221.0,0.5,100,127.0
1777,C2,221.0,0.5,40,127.0
1778,G2,221.0,0.5,40,127.0
1779,E3,221.5,0.25,80,127.0
1780,B2,221.5,0.5,80,127.0
1781,E2,221.5,0.5,80,127.0
1782,C#6,221.5,0.5,100,127.0
1783,A5,221.5,0.5,100,127.0
1784,E5,221.5,0.5,100,127.0
1785,C#5,221.5,0.5,100,127.0
1786,A3,221.5,0.5,100,127.0
1787,C#3,221.5,0.5,100,127.0
1788,G2,221.5,0.5,50,127.0
1789,C2,221.5,0.5,50,127.0
1790,C#6,222.0,0.5,100,127.0
1791,A5,222.0,0.5,100,127.0
1792,E5,222.0,0.5,100,127.0
1793,C#5,222.0,0.5,100,127.0
1794,A3,222.0,0.5,100,127.0
1795,C#3,222.0,0.5,100,127.0
1796,E2,222.0,0.5,60,127.0
1797,C2,222.0,0.5,60,127.0
1798,A5,222.5,0.5,100,127.0
1799,D5,222.5,0.5,100,127.0
1800,D6,222.5,0.5,100,127.0
1801,E2,222.5,0.5,70,127.0
1802,C2,222.5,0.5,70,127.0
1803,E6,223.0,0.5,100,127.0
1804,B5,223.0,0.5,100,127.0
1805,E5,223.0,0.5,100,127.0
1806,E2,223.0,0.5,80,127.0
1807,C2,223.0,0.5,80,127.0
1808,F#6,223.5,1.0,100,127.0
1809,F#5,223.5,1.0,100,127.0
1810,D4,223.5,1.0,100,127.0
1811,A3,223.5,1.0,100,127.0
1812,D3,223.5,1.0,100,127.0
1813,E2,223.5,0.5,90,127.0
1814,C2,223.5,0.5,90,127.0
1815,E2,224.0,83/1000,100,127.0
1816,E2,224.083,83/1000,100,127.0
1817,E6,224.5,0.5,100,127.0
1818,E5,224.5,0.5,100,127.0
1819,A3,224.5,0.5,100,127.0
1820,C#3,224.5,0.5,100,127.0
1821,C2,224.5,0.5,100,127.0
1822,E1,225.0,297/200,100,127.0
1823,E4,225.0,2.5,100,127.0
1824,D6,225.0,0.5,100,127.0
1825,D5,225.0,0.5,100,127.0
1826,B3,225.0,0.5,100,127.0
1827,C2,225.0,1.0,100,127.0
1828,C#3,225.0,1.0,100,127.0
1829,F3,226.0,1.0,100,127.0
1830,B5,226.0,0.5,100,127.0
1831,G1,226.0,0.5,100,127.0
1832,G2,226.0,0.5,100,127.0
1833,B1,226.5,103/200,100,127.0
1834,C2,226.5,0.5,100,127.0
1835,A5,226.5,0.5,100,127.0
1836,A2,226.5,0.5,100,127.0
1837,A1,226.5,0.5,100,127.0
1838,E2,227.0,297/200,100,127.0
1839,G5,227.0,0.5,100,127.0
1840,B2,227.0,0.5,100,127.0
1841,B1,227.0,0.5,100,127.0
1842,F3,227.0,1.0,100,127.0
1843,E2,227.0,1.0,100,127.0
1844,F#4,227.5,0.5,100,127.0
1845,E6,227.5,1.0,100,127.0
1846,C6,227.5,1.0,100,127.0
1847,E5,227.5,1.0,100,127.0
1848,G5,227.5,1.0,100,127.0
1849,C3,227.5,2.5,100,127.0
1850,C2,227.5,2.5,100,127.0
1851,G#4,228.0,0.5,100,127.0
1852,F3,228.0,97/200,100,127.0
1853,A1,228.5,0.5,100,127.0
1854,A4,228.5,0.5,100,127.0
1855,D6,228.5,0.5,100,127.0
1856,D5,228.5,0.5,100,127.0
1857,C2,228.5,0.5,100,127.0
1858,C#3,228.5,0.5,100,127.0
1859,A1,229.0,0.5,100,127.0
1860,A4,229.0,0.5,100,127.0
1861,C6,229.0,0.5,100,127.0
1862,C5,229.0,0.5,100,127.0
1863,A1,229.5,0.5,80,127.0
1864,B4,229.5,0.5,100,127.0
1865,C2,229.5,0.5,100,127.0
1866,F3,229.5,1.0,100,127.0
1867,B5,229.5,0.5,100,127.0
1868,B4,229.5,0.5,100,127.0
1869,A1,230.0,0.5,80,127.0
1870,C#5,230.0,0.5,100,127.0
1871,E2,230.0,0.5,100,127.0
1872,F2,230.0,1.0,100,127.0
1873,F1,230.0,1.0,100,127.0
1874,A5,230.0,0.5,85,127.0
1875,F5,230.0,0.5,85,127.0
1876,C5,230.0,0.5,85,127.0
1877,A4,230.0,0.5,85,127.0
1878,C3,230.0,3/200,100,127.0
1879,C2,230.0,3/200,100,127.0
1880,F#1,230.5,1.0,100,127.0
1881,D5,230.5,1.0,100,127.0
1882,G5,230.5,0.5,100,127.0
1883,G4,230.5,0.5,100,127.0
1884,C2,230.5,0.5,100,127.0
1885,A3,230.5,0.5,100,127.0
1886,F5,231.0,0.5,100,127.0
1887,G2,231.0,0.5,100,127.0
1888,F4,231.0,0.5,100,127.0
1889,G1,231.0,0.5,100,127.0
1890,A1,231.5,1.0,100,127.0
1891,C#5,231.5,0.5,100,127.0
1892,E5,231.5,0.5,100,127.0
1893,A2,231.5,0.5,100,127.0
1894,E4,231.5,0.5,100,127.0
1895,A1,231.5,0.5,100,127.0
1896,C2,231.5,103/200,100,127.0
1897,F3,231.5,103/200,100,127.0
1898,A4,232.0,1.0,100,127.0
1899,E2,232.0,97/200,100,127.0
1900,E-5,232.0,2.0,100,127.0
1901,B2,232.0,2.0,100,127.0
1902,E-4,232.0,2.0,100,127.0
1903,B1,232.0,2.0,100,127.0
1904,C2,232.5,0.5,100,127.0
1905,C2,232.5,0.5,85,127.0
1906,C#3,232.5,0.5,85,127.0
1907,G#1,233.0,297/200,100,127.0
1908,B4,233.0,0.5,100,127.0
1909,C#3,233.0,1.0,100,127.0
1910,C2,233.0,1.0,100,127.0
1911,E5,233.5,0.5,100,127.0
1912,F3,233.5,1.0,100,127.0
1913,D5,234.0,0.5,100,127.0
1914,C2,234.0,0.5,100,127.0
1915,G#4,234.0,697/200,100,127.0
1916,E4,234.0,697/200,100,127.0
1917,B3,234.0,697/200,100,127.0
1918,E2,234.0,697/200,100,127.0
1919,A1,234.5,1.0,100,127.0
1920,C#5,234.5,1.0,100,127.0
1921,C2,234.5,0.5,100,127.0
1922,F3,234.5,1.0,100,127.0
1923,E2,235.0,1.0,100,127.0
1924,B1,235.5,1.0,100,127.0
1925,B4,235.5,0.5,100,127.0
1926,F3,235.5,1.0,100,127.0
1927,A4,236.0,0.5,100,127.0
1928,C#2,236.5,0.5,100,127.0
1929,E4,236.5,0.5,100,127.0
1930,F3,236.5,0.5,100,127.0
1931,D2,237.0,297/200,100,127.0
1932,C#2,237.0,3/200,100,127.0
1933,F#4,237.0,0.5,100,127.0
1934,C#3,237.0,0.5,100,127.0
1935,C2,237.0,0.5,100,127.0
1936,D4,237.438,0.062,100,127.0
1937,E4,237.5,2.5,100,127.0
1938,B4,237.5,0.5,100,127.0
1939,E2,237.5,0.5,100,127.0
1940,C#4,237.5,0.5,100,127.0
1941,E4,237.5,0.5,100,127.0
1942,A3,237.5,0.5,100,127.0
1943,A2,237.5,0.5,100,127.0
1944,A4,238.0,0.5,100,127.0
1945,E2,238.0,0.5,100,127.0
1946,C#4,238.0,1.5,100,127.0
1947,E4,238.0,1.5,100,127.0
1948,A3,238.0,1.5,100,127.0
1949,A2,238.0,1.5,100,127.0
1950,E4,238.5,0.125,100,127.0
1951,E1,238.5,297/200,100,127.0
1952,G#4,238.5,2.25,100,127.0
1953,C#3,238.5,1.0,100,127.0
1954,C2,238.5,1.0,100,127.0
1955,F4,238.625,0.125,100,127.0
1956,E4,238.75,2.25,100,127.0
1957,F3,239.5,1.0,100,127.0
1958,F#4,239.5,2.5,100,127.0
1959,F#2,239.5,2.5,100,127.0
1960,A3,239.5,2.5,100,127.0
1961,D4,239.5,2.5,100,127.0
1962,F#4,240.0,0.5,100,127.0
1963,B1,240.0,103/200,100,127.0
1964,C2,240.0,0.5,100,127.0
1965,G#4,240.5,0.5,100,127.0
1966,E2,240.5,297/200,100,127.0
1967,F3,240.5,1.0,100,127.0
1968,E2,240.5,1.0,100,127.0
1969,A4,241.0,0.5,100,127.0
1970,F#4,241.0,0.5,100,127.0
1971,A4,241.0,0.5,100,127.0
1972,A4,241.5,0.5,100,127.0
1973,G#4,241.5,0.5,100,127.0
1974,B4,241.5,0.5,100,127.0
1975,F3,241.5,97/200,100,127.0
1976,B4,242.0,0.5,100,127.0
1977,A4,242.0,0.5,100,127.0
1978,A1,242.0,0.5,100,127.0
1979,C#5,242.0,0.5,100,127.0
1980,C2,242.0,0.5,100,127.0
1981,C#3,242.0,0.5,100,127.0
1982,G#2,242.015,297/200,100,127.0
1983,E4,242.015,297/200,100,127.0
1984,B3,242.015,297/200,100,127.0
1985,G#4,242.015,297/200,100,127.0
1986,F#4,242.015,3/200,100,127.0
1987,F#2,242.015,3/200,100,127.0
1988,A3,242.015,3/200,100,127.0
1989,D4,242.015,3/200,100,127.0
1990,C#5,242.5,0.5,100,127.0
1991,A4,242.5,0.5,100,127.0
1992,A1,242.5,0.5,100,127.0
1993,C#5,242.5,0.5,100,127.0
1994,C#5,243.0,303/200,100,127.0
1995,A1,243.0,0.5,80,127.0
1996,C2,243.0,0.5,100,127.0
1997,F3,243.0,1.0,100,127.0
1998,B4,243.008,0.5,100,127.0
1999,D5,243.008,0.5,100,127.0
2000,C#5,243.5,0.5,100,127.0
2001,A1,243.5,0.5,80,127.0
2002,E5,243.5,0.5,100,127.0
2003,E2,243.5,0.5,100,127.0
2004,A3,243.515,2.5,100,127.0
2005,E4,243.515,2.5,100,127.0
2006,A4,243.515,2.5,100,127.0
2007,A2,243.515,2.5,100,127.0
2008,C#4,243.515,2.5,100,127.0
2009,C5,244.0,1.0,100,127.0
2010,D1,244.0,1.0,100,127.0
2011,F#5,244.0,1.0,100,127.0
2012,C2,244.0,0.5,100,127.0
2013,A3,244.0,1.0,100,127.0
2014,A4,244.5,1.0,100,127.0
2015,C#5,245.0,0.5,100,127.0
2016,E1,245.0,1.0,100,127.0
2017,E5,245.0,0.5,100,127.0
2018,C2,245.0,0.5,100,127.0
2019,F3,245.0,1.0,100,127.0
2020,B4,245.5,0.5,100,127.0
2021,B4,245.5,0.5,100,127.0
2022,D5,245.5,0.5,100,127.0
2023,E2,245.5,97/200,100,127.0
2024,E5,246.0,0.5,100,127.0
2025,F#4,246.0,0.5,100,127.0
2026,F#1,246.0,0.5,100,127.0
2027,A4,246.0,0.5,100,127.0
2028,C2,246.0,0.5,85,127.0
2029,C#3,246.0,0.5,85,127.0
2030,D4,246.015,297/200,100,127.0
2031,A3,246.015,297/200,100,127.0
2032,D2,246.015,297/200,100,127.0
2033,F#4,246.015,297/200,100,127.0
2034,A3,246.015,3/200,100,127.0
2035,E4,246.015,3/200,100,127.0
2036,A4,246.015,3/200,100,127.0
2037,A2,246.015,3/200,100,127.0
2038,C#4,246.015,3/200,100,127.0
2039,D5,246.5,0.5,100,127.0
2040,G4,246.5,0.5,100,127.0
2041,G1,246.5,103/200,100,127.0
2042,B4,246.5,0.5,100,127.0
2043,C2,246.5,97/200,100,127.0
2044,C#3,246.5,97/200,100,127.0
2045,C#5,247.0,1.0,100,127.0
2046,F#4,247.0,0.5,100,127.0
2047,A1,247.0,97/200,100,127.0
2048,A4,247.0,0.5,100,127.0
2049,C2,247.0,0.5,100,127.0
2050,F3,247.0,1.0,100,127.0
2051,E4,247.5,0.5,100,127.0
2052,B1,247.5,0.5,100,127.0
2053,G4,247.5,0.5,100,127.0
2054,E2,247.5,97/200,100,127.0
2055,E2,247.515,697/200,100,127.0
2056,B3,247.515,697/200,100,127.0
2057,E4,247.515,697/200,100,127.0
2058,G#4,247.515,697/200,100,127.0
2059,B4,248.0,0.5,100,127.0
2060,B-4,248.0,1.0,100,127.0
2061,C2,248.0,2.5,100,127.0
2062,E5,248.0,1.0,100,127.0
2063,C2,248.0,0.5,100,127.0
2064,G3,248.0,0.5,100,127.0
2065,A4,248.5,0.5,100,127.0
2066,E4,249.0,0.5,100,127.0
2067,B4,249.0,0.5,100,127.0
2068,D5,249.0,0.5,100,127.0
2069,C2,249.0,0.5,100,127.0
2070,F#4,249.5,0.5,100,127.0
2071,A4,249.5,0.5,100,127.0
2072,C5,249.5,0.5,100,127.0
2073,E2,249.5,0.5,100,127.0
2074,F3,249.5,1.0,100,127.0
2075,B4,250.0,0.5,100,127.0
2076,G4,250.0,0.5,100,127.0
2077,B4,250.0,0.5,100,127.0
2078,C2,250.0,0.5,100,127.0
2079,A4,250.5,0.5,100,127.0
2080,F1,250.5,1.0,100,127.0
2081,C2,250.5,3/200,100,127.0
2082,A4,250.5,0.25,100,127.0
2083,E2,250.5,0.25,100,127.0
2084,C5,250.75,0.25,100,127.0
2085,C2,250.75,0.25,100,127.0
2086,G#4,251.0,0.125,100,127.0
2087,G4,251.0,0.25,100,127.0
2088,C#4,251.015,0.5,100,127.0
2089,E4,251.015,0.5,100,127.0
2090,A3,251.015,0.5,100,127.0
2091,A2,251.015,0.5,100,127.0
2092,A4,251.125,0.125,100,127.0
2093,G#4,251.25,2.25,100,127.0
2094,C5,251.25,0.25,100,127.0
2095,C2,251.25,0.25,100,127.0
2096,G1,251.5,0.25,100,127.0
2097,F4,251.5,0.25,100,127.0
2098,A2,251.5,0.25,100,127.0
2099,C#4,251.515,1.5,100,127.0
2100,E4,251.515,1.5,100,127.0
2101,A3,251.515,1.5,100,127.0
2102,A2,251.515,1.5,100,127.0
2103,C5,251.75,0.25,100,127.0
2104,C2,251.75,0.25,100,127.0
2105,A1,252.0,0.25,100,127.0
2106,E4,252.0,0.25,100,127.0
2107,C5,252.25,0.25,100,127.0
2108,C2,252.25,0.25,100,127.0
2109,B1,252.5,2.0,100,127.0
2110,E-4,252.5,2.0,100,127.0
2111,E2,252.5,97/200,100,127.0
2112,A3,252.5,97/200,100,127.0
2113,F#4,253.015,2.5,100,127.0
2114,A3,253.015,2.5,100,127.0
2115,D4,253.015,2.5,100,127.0
2116,D2,253.015,2.5,100,127.0
2117,E2,253.25,0.25,100,127.0
2118,A4,253.5,0.5,100,127.0
2119,E2,253.5,0.25,100,127.0
2120,B4,254.0,0.5,100,127.0
2121,C2,254.0,0.5,100,127.0
2122,C#5,254.5,0.5,100,127.0
2123,B5,254.5,167/1000,100,127.0
2124,B5,254.5,167/1000,75,127.0
2125,E2,254.5,0.25,100,127.0
2126,C6,254.667,167/1000,100,127.0
2127,C6,254.667,167/1000,75,127.0
2128,C2,254.75,0.25,100,127.0
2129,B5,254.833,167/1000,100,127.0
2130,B5,254.833,167/1000,75,127.0
2131,C#5,255.0,0.5,100,127.0
2132,A5,255.0,167/1000,100,127.0
2133,A5,255.0,167/1000,75,127.0
2134,B2,255.0,0.25,100,127.0
2135,B5,255.167,167/1000,100,127.0
2136,B5,255.167,167/1000,75,127.0
2137,C2,255.25,0.25,100,127.0
2138,A5,255.333,167/1000,100,127.0
2139,A5,255.333,167/1000,75,127.0
2140,G5,255.5,167/1000,100,127.0
2141,G5,255.5,167/1000,75,127.0
2142,F#2,255.5,0.25,100,127.0
2143,D5,255.508,0.5,100,127.0
2144,B3,255.529,1.5,100,127.0
2145,D4,255.529,1.5,100,127.0
2146,G2,255.529,1.5,100,127.0
2147,G4,255.529,1.5,100,127.0
2148,F#4,255.529,3/200,100,127.0
2149,A3,255.529,3/200,100,127.0
2150,D4,255.529,3/200,100,127.0
2151,D2,255.529,3/200,100,127.0
2152,A5,255.667,167/1000,100,127.0
2153,A5,255.667,167/1000,75,127.0
2154,C2,255.75,0.25,100,127.0
2155,G5,255.833,167/1000,100,127.0
2156,G5,255.833,167/1000,75,127.0
2157,E5,256.0,0.5,100,127.0
2158,F5,256.0,167/1000,100,127.0
2159,F5,256.0,167/1000,75,127.0
2160,G5,256.167,167/1000,100,127.0
2161,G5,256.167,167/1000,75,127.0
2162,C2,256.25,0.25,100,127.0
2163,F5,256.333,167/1000,100,127.0
2164,F5,256.333,167/1000,75,127.0
2165,E5,256.5,1.0,100,127.0
2166,E-5,256.5,167/1000,100,127.0
2167,E-5,256.5,167/1000,75,127.0
2168,C#3,256.5,1.0,100,127.0
2169,E2,256.5,1.0,100,127.0
2170,F#5,256.667,167/1000,100,127.0
2171,F#5,256.667,167/1000,75,127.0
2172,B5,256.833,167/1000,100,127.0
2173,B5,256.833,167/1000,75,127.0
2174,A5,257.0,167/1000,100,127.0
2175,A5,257.0,167/1000,75,127.0
2176,E4,257.029,2.5,100,127.0
2177,G4,257.029,2.5,100,127.0
2178,C4,257.029,2.5,100,127.0
2179,G3,257.029,2.5,100,127.0
2180,C2,257.029,2.5,100,127.0
2181,F5,257.167,167/1000,100,127.0
2182,F5,257.167,167/1000,75,127.0
2183,C5,257.333,167/1000,100,127.0
2184,C5,257.333,167/1000,75,127.0
2185,E5,257.5,0.5,100,127.0
2186,B4,257.5,167/1000,100,127.0
2187,B4,257.5,167/1000,75,127.0
2188,A4,257.667,167/1000,100,127.0
2189,A4,257.667,167/1000,75,127.0
2190,F5,257.833,167/1000,100,127.0
2191,F5,257.833,167/1000,75,127.0
2192,D5,258.0,0.5,100,127.0
2193,E-5,258.0,167/1000,100,127.0
2194,E-5,258.0,167/1000,75,127.0
2195,B4,258.167,167/1000,100,127.0
2196,B4,258.167,167/1000,75,127.0
2197,F#4,258.333,167/1000,100,127.0
2198,F#4,258.333,167/1000,75,127.0
2199,A4,258.5,0.5,100,127.0
2200,E-5,258.5,167/1000,100,127.0
2201,E-5,258.5,167/1000,75,127.0
2202,B-2,258.5,167/1000,100,127.0
2203,B4,258.667,167/1000,100,127.0
2204,B4,258.667,167/1000,75,127.0
2205,F#2,258.667,167/1000,70,127.0
2206,E-5,258.833,167/1000,100,127.0
2207,E-5,258.833,167/1000,75,127.0
2208,F#2,258.833,167/1000,70,127.0
2209,B4,259.0,0.5,100,127.0
2210,G5,259.0,167/1000,100,127.0
2211,G5,259.0,167/1000,75,127.0
2212,F#2,259.0,167/1000,70,127.0
2213,E-5,259.167,167/1000,100,127.0
2214,E-5,259.167,167/1000,75,127.0
2215,F#2,259.167,167/1000,70,127.0
2216,G5,259.333,167/1000,100,127.0
2217,G5,259.333,167/1000,75,127.0
2218,F#2,259.333,167/1000,70,127.0
2219,A4,259.5,0.5,100,127.0
2220,B5,259.5,167/1000,100,127.0
2221,B5,259.5,167/1000,75,127.0
2222,B-2,259.5,167/1000,100,127.0
2223,C5,259.529,0.25,120,127.0
2224,A4,259.529,0.25,120,127.0
2225,G5,259.667,167/1000,100,127.0
2226,G5,259.667,167/1000,75,127.0
2227,F#2,259.667,167/1000,70,127.0
2228,B5,259.833,167/1000,100,127.0
2229,B5,259.833,167/1000,75,127.0
2230,F#2,259.833,167/1000,70,127.0
2231,G4,260.0,0.5,100,127.0
2232,C#6,260.0,167/1000,100,127.0
2233,C#6,260.0,167/1000,75,127.0
2234,F#2,260.0,167/1000,70,127.0
2235,G4,260.029,0.25,120,127.0
2236,C5,260.029,0.25,120,127.0
2237,A5,260.167,167/1000,100,127.0
2238,A5,260.167,167/1000,75,127.0
2239,F#2,260.167,167/1000,70,127.0
2240,C#6,260.333,167/1000,100,127.0
2241,C#6,260.333,167/1000,75,127.0
2242,F#2,260.333,167/1000,70,127.0
2243,D5,260.5,1.0,100,127.0
2244,E-6,260.5,167/1000,100,127.0
2245,E-6,260.5,167/1000,75,127.0
2246,F#2,260.5,1.0,100,127.0
2247,F4,260.529,0.25,120,127.0
2248,C5,260.529,0.25,120,127.0
2249,E6,260.667,167/1000,100,127.0
2250,E6,260.667,167/1000,75,127.0
2251,E-6,260.833,167/1000,100,127.0
2252,E-6,260.833,167/1000,75,127.0
2253,C#6,261.0,167/1000,100,127.0
2254,C#6,261.0,167/1000,75,127.0
2255,E4,261.029,0.25,120,127.0
2256,C5,261.029,0.25,120,127.0
2257,E-6,261.167,167/1000,100,127.0
2258,E-6,261.167,167/1000,75,127.0
2259,C#6,261.333,167/1000,100,127.0
2260,C#6,261.333,167/1000,75,127.0
2261,D5,261.5,0.5,100,127.0
2262,B5,261.5,1.0,100,127.0
2263,B5,261.5,1.0,75,127.0
2264,F3,261.5,1.0,100,127.0
2265,E-4,261.529,2.0,120,127.0
2266,C5,262.0,0.5,100,127.0
2267,B4,262.5,0.5,100,127.0
2268,B5,262.5,167/1000,100,127.0
2269,B5,262.5,167/1000,75,127.0
2270,E2,262.5,0.25,100,127.0
2271,C6,262.667,167/1000,100,127.0
2272,C6,262.667,167/1000,75,127.0
2273,C2,262.75,0.25,100,127.0
2274,B5,262.833,167/1000,100,127.0
2275,B5,262.833,167/1000,75,127.0
2276,A4,263.0,0.25,100,127.0
2277,A5,263.0,167/1000,100,127.0
2278,A5,263.0,167/1000,75,127.0
2279,B2,263.0,0.25,100,127.0
2280,B5,263.167,167/1000,100,127.0
2281,B5,263.167,167/1000,75,127.0
2282,C5,263.25,0.25,100,127.0
2283,C2,263.25,0.25,100,127.0
2284,A5,263.333,167/1000,100,127.0
2285,A5,263.333,167/1000,75,127.0
2286,G4,263.5,0.25,100,127.0
2287,G5,263.5,167/1000,100,127.0
2288,G5,263.5,167/1000,75,127.0
2289,F#2,263.5,0.25,100,127.0
2290,A5,263.667,167/1000,100,127.0
2291,A5,263.667,167/1000,75,127.0
2292,C5,263.75,0.25,100,127.0
2293,C2,263.75,0.25,100,127.0
2294,G5,263.833,167/1000,100,127.0
2295,G5,263.833,167/1000,75,127.0
2296,F4,264.0,0.25,100,127.0
2297,F5,264.0,167/1000,100,127.0
2298,F5,264.0,167/1000,75,127.0
2299,G5,264.167,167/1000,100,127.0
2300,G5,264.167,167/1000,75,127.0
2301,C5,264.25,0.25,100,127.0
2302,C2,264.25,0.25,100,127.0
2303,F5,264.333,167/1000,100,127.0
2304,F5,264.333,167/1000,75,127.0
2305,E4,264.5,0.25,100,127.0
2306,E-5,264.5,167/1000,100,127.0
2307,E-5,264.5,167/1000,75,127.0
2308,C#3,264.5,1.0,100,127.0
2309,E2,264.5,1.0,100,127.0
2310,F#5,264.667,167/1000,100,127.0
2311,F#5,264.667,167/1000,75,127.0
2312,C5,264.75,0.25,100,127.0
2313,E-4,265.0,297/200,100,127.0
2314,G#2,265.5,1.0,70,127.0
2315,E-5,266.0,167/1000,100,127.0
2316,E-5,266.0,167/1000,75,127.0
2317,B4,266.167,167/1000,100,127.0
2318,B4,266.167,167/1000,75,127.0
2319,F#4,266.333,167/1000,100,127.0
2320,F#4,266.333,167/1000,75,127.0
2321,D4,266.485,0.062,65,127.0
2322,E-5,266.5,167/1000,100,127.0
2323,E-5,266.5,167/1000,75,127.0
2324,C2,266.5,0.5,100,127.0
2325,G2,266.5,0.5,100,127.0
2326,C#4,266.567,0.062,65,127.0
2327,C4,266.648,0.062,65,127.0
2328,B4,266.667,167/1000,100,127.0
2329,B4,266.667,167/1000,75,127.0
2330,B3,266.729,0.062,65,127.0
2331,B-3,266.81,0.062,65,127.0
2332,E-5,266.833,167/1000,100,127.0
2333,E-5,266.833,167/1000,75,127.0
2334,A3,266.892,0.062,65,127.0
2335,G5,267.0,167/1000,100,127.0
2336,G5,267.0,167/1000,75,127.0
2337,G2,267.0,0.5,100,127.0
2338,C2,267.0,0.5,100,127.0
2339,E-5,267.167,167/1000,100,127.0
2340,E-5,267.167,167/1000,75,127.0
2341,G5,267.333,167/1000,100,127.0
2342,G5,267.333,167/1000,75,127.0
2343,B5,267.5,167/1000,100,127.0
2344,B5,267.5,167/1000,75,127.0
2345,G#2,267.5,0.5,75,127.0
2346,G5,267.667,167/1000,100,127.0
2347,G5,267.667,167/1000,75,127.0
2348,B5,267.833,167/1000,100,127.0
2349,B5,267.833,167/1000,75,127.0
2350,C#6,268.0,167/1000,100,127.0
2351,C#6,268.0,167/1000,75,127.0
2352,G2,268.0,0.5,100,127.0
2353,C2,268.0,0.5,100,127.0
2354,A5,268.167,167/1000,100,127.0
2355,A5,268.167,167/1000,75,127.0
2356,C#6,268.333,167/1000,100,127.0
2357,C#6,268.333,167/1000,75,127.0
2358,E-6,268.5,167/1000,100,127.0
2359,E-6,268.5,167/1000,75,127.0
2360,G2,268.5,0.5,100,127.0
2361,C2,268.5,0.5,100,127.0
2362,E6,268.667,167/1000,100,127.0
2363,E6,268.667,167/1000,75,127.0
2364,E-6,268.833,167/1000,100,127.0
2365,E-6,268.833,167/1000,75,127.0
2366,C#6,269.0,167/1000,100,127.0
2367,C#6,269.0,167/1000,75,127.0
2368,E-6,269.167,167/1000,100,127.0
2369,E-6,269.167,167/1000,75,127.0
2370,C#6,269.333,167/1000,100,127.0
2371,C#6,269.333,167/1000,75,127.0
2372,B5,269.5,97/200,100,127.0
2373,B5,269.5,0.25,100,127.0
2374,G2,269.5,0.5,100,127.0
2375,C2,269.5,0.5,100,127.0
2376,B3,269.508,0.25,55,127.0
2377,A5,270.0,0.5,100,127.0
2378,C2,270.0,0.5,100,127.0
2379,F2,270.0,0.5,100,127.0
2380,A3,270.008,123/250,55,127.0
2381,A3,270.5,127/250,55,127.0
2382,A5,270.5,0.5,100,127.0
2383,G#2,270.5,0.5,75,127.0
2384,E-3,271.0,0.25,100,127.0
2385,G5,271.0,0.25,100,127.0
2386,G2,271.0,0.5,100,127.0
2387,C2,271.0,0.5,100,127.0
2388,G3,271.008,0.25,55,127.0
2389,B2,271.5,0.25,100,127.0
2390,F5,271.5,1.0,100,127.0
2391,F2,271.5,0.5,100,127.0
2392,C2,271.5,0.5,100,127.0
2393,F3,271.508,1.0,55,127.0
2394,C#3,272.0,0.25,100,127.0
2395,A2,272.5,0.25,100,127.0
2396,D5,272.5,1.0,100,127.0
2397,E2,272.5,83/1000,100,127.0
2398,D3,272.508,124/125,55,127.0
2399,E2,272.583,83/1000,100,127.0
2400,B2,273.0,0.25,100,127.0
2401,G3,273.015,83/1000,100,127.0
2402,A3,273.098,83/1000,100,127.0
2403,B3,273.181,83/1000,100,127.0
2404,C4,273.265,83/1000,100,127.0
2405,D4,273.348,83/1000,100,127.0
2406,E4,273.431,83/1000,100,127.0
2407,A2,273.5,0.25,100,127.0
2408,D3,273.5,1/125,55,127.0
2409,A1,273.5,2729/1000,100,127.0
2410,C#3,273.5,0.5,100,127.0
2411,C2,273.5,0.5,100,127.0
2412,F4,273.515,83/1000,100,127.0
2413,G4,273.598,83/1000,100,127.0
2414,A4,273.681,83/1000,100,127.0
2415,B4,273.765,83/1000,100,127.0
2416,C5,273.848,83/1000,100,127.0
2417,D5,273.931,83/1000,100,127.0
2418,G2,274.0,0.25,100,127.0
2419,B-2,274.0,0.5,100,127.0
2420,C6,274.015,2.0,100,127.0
2421,A5,274.015,2.0,100,127.0
2422,E5,274.015,2.0,100,127.0
2423,A3,274.015,2.0,100,127.0
2424,F#2,274.5,0.5,100,127.0
2425,B5,275.0,167/1000,100,127.0
2426,B-2,275.0,0.5,100,127.0
2427,C6,275.167,167/1000,100,127.0
2428,B5,275.333,167/1000,100,127.0
2429,A5,275.5,167/1000,100,127.0
2430,F#2,275.5,0.5,100,127.0
2431,E2,275.5,0.5,100,127.0
2432,B5,275.667,167/1000,100,127.0
2433,A5,275.833,167/1000,100,127.0
2434,G5,276.0,167/1000,100,127.0
2435,B-2,276.0,0.5,100,127.0
2436,A5,276.167,167/1000,100,127.0
2437,A1,276.25,0.25,100,127.0
2438,G5,276.333,167/1000,100,127.0
2439,F5,276.5,167/1000,100,127.0
2440,G1,276.5,97/200,100,127.0
2441,F#2,276.5,0.5,100,127.0
2442,B5,276.515,0.25,100,127.0
2443,G5,276.667,167/1000,100,127.0
2444,A5,276.765,0.25,100,127.0
2445,F5,276.833,167/1000,100,127.0
2446,B4,277.0,167/1000,100,127.0
2447,F1,277.0,0.5,100,127.0
2448,B-2,277.0,0.5,100,127.0
2449,G5,277.015,0.25,100,127.0
2450,E-5,277.167,167/1000,100,127.0
2451,B5,277.265,0.25,100,127.0
2452,G5,277.333,167/1000,100,127.0
2453,B5,277.5,167/1000,100,127.0
2454,F1,277.5,1.5,100,127.0
2455,F#2,277.5,0.5,100,127.0
2456,F3,277.515,0.5,100,127.0
2457,C6,277.515,0.5,100,127.0
2458,A5,277.515,0.5,100,127.0
2459,F5,277.515,0.5,100,127.0
2460,E-6,277.667,167/1000,100,127.0
2461,G6,277.833,167/1000,100,127.0
2462,B6,278.0,0.125,100,127.0
2463,B-2,278.0,0.5,100,127.0
2464,F3,278.015,157/125,100,127.0
2465,C6,278.015,0.5,100,127.0
2466,A5,278.015,0.5,100,127.0
2467,F5,278.015,0.5,100,127.0
2468,G6,278.125,27/200,100,127.0
2469,E-6,278.25,0.125,100,127.0
2470,B5,278.375,0.125,100,127.0
2471,F#5,278.5,0.125,100,127.0
2472,F#2,278.5,0.5,100,127.0
2473,E2,278.5,0.5,100,127.0
2474,B5,278.515,0.5,100,127.0
2475,G5,278.515,0.5,100,127.0
2476,E-5,278.625,0.125,100,127.0
2477,E-5,279.0,167/1000,100,127.0
2478,C2,279.0,0.5,100,127.0
2479,C#3,279.0,0.5,100,127.0
2480,C2,279.0,0.5,100,127.0
2481,A5,279.015,0.5,100,127.0
2482,F5,279.015,0.5,100,127.0
2483,B4,279.167,167/1000,100,127.0
2484,E-5,279.333,167/1000,100,127.0
2485,G5,279.5,167/1000,100,127.0
2486,C6,279.515,0.5,100,127.0
2487,G5,279.515,0.5,100,127.0
2488,E5,279.515,0.5,100,127.0
2489,C4,279.515,0.5,100,127.0
2490,E-5,279.667,167/1000,100,127.0
2491,G5,279.833,167/1000,100,127.0
2492,B5,280.0,167/1000,100,127.0
2493,G1,280.0,1.5,100,127.0
2494,B-2,280.0,0.5,100,127.0
2495,C2,280.0,0.5,100,127.0
2496,G5,280.167,167/1000,100,127.0
2497,B5,280.333,167/1000,100,127.0
2498,C#6,280.5,167/1000,100,127.0
2499,E2,280.5,0.5,100,127.0
2500,F#2,280.5,0.5,100,127.0
2501,D6,280.515,311/250,100,127.0
2502,G5,280.515,311/250,100,127.0
2503,D5,280.515,311/250,100,127.0
2504,G3,280.515,311/250,100,127.0
2505,A5,280.667,167/1000,100,127.0
2506,C#6,280.833,167/1000,100,127.0
2507,E-6,281.0,167/1000,100,127.0
2508,B-2,281.0,0.5,100,127.0
2509,E6,281.167,167/1000,100,127.0
2510,E-6,281.333,167/1000,100,127.0
2511,C#6,281.5,167/1000,100,127.0
2512,B-1,281.5,297/200,100,127.0
2513,G1,281.5,3/200,100,127.0
2514,C2,281.5,0.5,100,127.0
2515,C#3,281.5,0.5,100,127.0
2516,E-6,281.667,167/1000,100,127.0
2517,C#6,281.833,167/1000,100,127.0
2518,B5,282.0,0.25,100,127.0
2519,B-2,282.0,0.5,100,127.0
2520,B-5,282.015,497/200,100,127.0
2521,F5,282.015,497/200,100,127.0
2522,D6,282.015,497/200,100,127.0
2523,B-3,282.015,497/200,100,127.0
2524,A5,282.5,0.5,100,127.0
2525,F#2,282.5,0.5,100,127.0
2526,A5,283.0,0.5,100,127.0
2527,C2,283.0,0.5,100,127.0
2528,B-2,283.0,0.5,100,127.0
2529,G5,283.5,0.25,100,127.0
2530,D2,283.5,0.5,100,127.0
2531,F#2,283.5,0.5,100,127.0
2532,E2,283.5,0.5,100,127.0
2533,F5,284.0,1.0,100,127.0
2534,F1,284.0,1.0,100,127.0
2535,B-2,284.0,0.5,100,127.0
2536,F#2,284.5,0.5,100,127.0
2537,C6,284.515,0.5,100,127.0
2538,F5,284.515,0.5,100,127.0
2539,D5,285.0,1.0,100,127.0
2540,E1,285.0,0.5,100,127.0
2541,B-2,285.0,0.5,100,127.0
2542,D6,285.015,0.25,100,127.0
2543,C6,285.265,0.25,100,127.0
2544,F1,285.5,297/200,100,127.0
2545,C2,285.5,0.5,100,127.0
2546,A3,285.5,0.5,100,127.0
2547,D6,285.515,0.25,100,127.0
2548,E6,285.765,0.25,100,127.0
2549,E2,286.0,0.5,100,127.0
2550,E3,286.0,3.5,90,127.0
2551,A2,286.0,3.5,90,127.0
2552,F6,286.015,0.5,100,127.0
2553,C6,286.015,0.5,100,127.0
2554,E2,286.5,0.5,100,127.0
2555,E6,286.515,0.25,100,127.0
2556,C6,286.515,0.25,100,127.0
2557,F4,287.0,2.5,100,127.0
2558,C2,287.0,2.5,100,127.0
2559,C2,287.0,0.5,100,127.0
2560,C#3,287.0,0.5,100,127.0
2561,D6,287.015,0.25,100,127.0
2562,F5,287.015,0.25,100,127.0
2563,G5,287.515,2.5,100,127.0
2564,C5,287.515,2.5,100,127.0
2565,C6,287.515,2.5,100,127.0
2566,C2,288.0,0.5,100,127.0
2567,B-2,288.0,0.5,100,127.0
2568,E2,288.5,0.25,100,127.0
2569,E2,288.75,0.25,100,127.0
2570,E2,289.0,0.25,100,127.0
2571,E2,289.25,0.25,100,127.0
2572,F4,289.5,3/200,100,127.0
2573,A1,289.5,697/200,100,127.0
2574,C2,289.5,3/200,100,127.0
2575,F3,289.5,0.5,90,127.0
2576,C3,289.5,0.5,90,127.0
2577,A2,289.5,3.5,75,127.0
2578,E3,289.5,3.5,75,127.0
2579,C#3,289.5,0.5,100,127.0
2580,C2,289.5,0.5,100,127.0
2581,B-2,290.0,0.5,100,127.0
2582,A3,290.015,2.0,100,127.0
2583,E5,290.015,2.0,100,127.0
2584,A5,290.015,2.0,100,127.0
2585,C6,290.015,2.0,100,127.0
2586,G5,290.015,3/200,100,127.0
2587,C5,290.015,3/200,100,127.0
2588,C6,290.015,3/200,100,127.0
2589,F#2,290.5,0.5,100,127.0
2590,B-2,291.0,0.5,100,127.0
2591,F3,291.5,1.5,90,127.0
2592,C3,291.5,1.5,90,127.0
2593,F#2,291.5,0.5,100,127.0
2594,E2,291.5,0.5,100,127.0
2595,B-2,292.0,0.5,100,127.0
2596,F#2,292.5,0.5,100,127.0
2597,C6,292.515,0.25,100,127.0
2598,B5,292.765,0.25,100,127.0
2599,F1,293.0,0.5,100,127.0
2600,C4,293.0,0.5,90,127.0
2601,G3,293.0,0.5,90,127.0
2602,C3,293.0,0.5,90,127.0
2603,F3,293.0,0.5,75,127.0
2604,C3,293.0,0.5,75,127.0
2605,C#3,293.0,0.5,100,127.0
2606,C2,293.0,0.5,100,127.0
2607,A5,293.015,0.25,100,127.0
2608,B5,293.265,0.25,100,127.0
2609,F1,293.5,1.5,100,127.0
2610,F3,293.515,0.5,100,127.0
2611,C6,293.515,0.5,100,127.0
2612,A5,293.515,0.5,100,127.0
2613,F5,293.515,0.5,100,127.0
2614,G3,294.0,1.5,90,127.0
2615,D3,294.0,1.5,90,127.0
2616,G2,294.0,1.5,90,127.0
2617,B-2,294.0,0.5,100,127.0
2618,C2,294.0,0.5,100,127.0
2619,F3,294.015,157/125,100,127.0
2620,C6,294.015,0.5,100,127.0
2621,A5,294.015,0.5,100,127.0
2622,F5,294.015,0.5,100,127.0
2623,E2,294.5,0.5,100,127.0
2624,F#2,294.5,0.5,100,127.0
2625,B5,294.515,0.5,100,127.0
2626,G5,294.515,0.5,100,127.0
2627,C2,295.0,0.5,100,127.0
2628,F3,295.0,1.5,75,127.0
2629,C3,295.0,1.5,75,127.0
2630,A3,295.0,0.5,100,127.0
2631,C2,295.0,0.5,100,127.0
2632,A5,295.015,0.5,100,127.0
2633,F5,295.015,0.5,100,127.0
2634,B-3,295.5,4.0,90,127.0
2635,F3,295.5,4.0,90,127.0
2636,B-2,295.5,4.0,90,127.0
2637,C6,295.515,0.5,100,127.0
2638,G5,295.515,0.5,100,127.0
2639,E5,295.515,0.5,100,127.0
2640,C4,295.515,0.5,100,127.0
2641,G1,296.0,1.5,100,127.0
2642,C2,296.0,0.5,100,127.0
2643,B-2,296.0,0.5,100,127.0
2644,C4,296.5,0.5,75,127.0
2645,G3,296.5,0.5,75,127.0
2646,C3,296.5,0.5,75,127.0
2647,E2,296.5,0.5,100,127.0
2648,F#2,296.5,0.5,100,127.0
2649,D6,296.515,311/250,100,127.0
2650,G5,296.515,311/250,100,127.0
2651,G3,296.515,311/250,100,127.0
2652,B5,296.515,311/250,100,127.0
2653,E2,297.0,0.25,100,127.0
2654,E2,297.25,0.25,100,127.0
2655,B-1,297.5,297/200,100,127.0
2656,G1,297.5,3/200,100,127.0
2657,G3,297.5,1.5,75,127.0
2658,D3,297.5,1.5,75,127.0
2659,G2,297.5,1.5,75,127.0
2660,C2,297.5,0.5,100,127.0
2661,C#3,297.5,0.5,100,127.0
2662,B-2,298.0,1.0,100,127.0
2663,B-5,298.015,497/200,100,127.0
2664,D6,298.015,497/200,100,127.0
2665,B-3,298.015,497/200,100,127.0
2666,C2,299.0,0.5,100,127.0
2667,B-2,299.0,1.0,100,127.0
2668,B-3,299.0,4.0,75,127.0
2669,F3,299.0,4.0,75,127.0
2670,B-2,299.0,4.0,75,127.0
2671,D2,299.5,0.5,100,127.0
2672,E2,299.5,1.0,100,127.0
2673,F3,299.5,1.5,90,127.0
2674,C3,299.5,1.5,90,127.0
2675,C4,299.5,1.5,90,127.0
2676,F1,300.0,1.0,100,127.0
2677,B-2,300.0,1.0,100,127.0
2678,C6,300.515,0.5,100,127.0
2679,F5,300.515,0.5,100,127.0
2680,E1,301.0,0.5,100,127.0
2681,B-2,301.0,0.5,100,127.0
2682,C4,301.0,2.5,90,127.0
2683,C3,301.0,2.5,90,127.0
2684,G3,301.0,2.5,90,127.0
2685,D6,301.015,0.25,100,127.0
2686,C6,301.265,0.25,100,127.0
2687,F1,301.5,297/200,100,127.0
2688,B-2,301.5,3/200,100,127.0
2689,C2,301.5,97/200,100,127.0
2690,C#3,301.5,97/200,100,127.0
2691,D6,301.515,0.25,100,127.0
2692,E6,301.765,0.25,100,127.0
2693,E2,302.0,0.5,100,127.0
2694,F6,302.015,0.5,100,127.0
2695,C6,302.015,0.5,100,127.0
2696,E2,302.5,0.5,100,127.0
2697,E6,302.515,0.25,100,127.0
2698,C6,302.515,0.25,100,127.0
2699,C2,303.0,2.5,100,127.0
2700,F3,303.0,1.5,75,127.0
2701,C3,303.0,1.5,75,127.0
2702,C4,303.0,1.5,75,127.0
2703,C2,303.0,0.5,100,127.0
2704,A3,303.0,0.5,100,127.0
2705,D6,303.015,0.25,100,127.0
2706,F5,303.015,0.25,100,127.0
2707,G4,303.5,497/200,100,127.0
2708,B-2,303.5,0.5,100,127.0
2709,C6,303.515,561/250,100,127.0
2710,G5,303.515,561/250,100,127.0
2711,C5,303.515,561/250,100,127.0
2712,E2,304.0,0.5,100,127.0
2713,E2,304.5,0.25,100,127.0
2714,C4,304.5,2.5,75,127.0
2715,C3,304.5,2.5,75,127.0
2716,G3,304.5,2.5,75,127.0
2717,E2,304.75,0.25,100,127.0
2718,E2,305.0,0.5,100,127.0
2719,C#3,305.5,0.5,80,127.0
2720,C#2,305.5,2.0,88,127.0
2721,C2,305.5,3/200,100,127.0
2722,C2,305.5,1.0,100,127.0
2723,C#3,305.5,1.0,100,127.0
2724,B4,305.765,0.062,75,127.0
2725,A4,305.827,0.062,75,127.0
2726,G4,305.89,0.062,75,127.0
2727,F4,305.952,0.062,75,127.0
2728,A4,306.0,0.25,100,127.0
2729,B3,306.0,0.5,80,127.0
2730,G4,306.25,0.25,100,127.0
2731,F4,306.5,0.25,100,127.0
2732,E-4,306.5,0.5,80,127.0
2733,E-3,306.5,1.0,100,127.0
2734,G4,306.75,0.25,100,127.0
2735,A4,307.0,0.5,100,127.0
2736,E4,307.0,0.5,100,127.0
2737,A4,307.5,0.5,100,127.0
2738,D2,307.5,0.5,85,127.0
2739,E-3,307.5,1.0,100,127.0
2740,G4,308.0,0.5,100,127.0
2741,G#2,308.0,0.5,80,127.0
2742,G#2,308.0,1.5,93,127.0
2743,F4,308.5,0.5,100,127.0
2744,G#4,308.5,2.5,60,127.0
2745,B3,308.5,0.5,80,127.0
2746,E-3,308.5,1.0,100,127.0
2747,E4,309.0,0.5,100,127.0
2748,E4,309.0,0.5,100,127.0
2749,G4,309.5,0.5,100,127.0
2750,A2,309.5,0.5,80,127.0
2751,A2,309.5,497/200,100,127.0
2752,G#2,309.5,3/200,93,127.0
2753,E-3,309.5,1.0,100,127.0
2754,A4,310.0,1.5,100,127.0
2755,B3,310.0,0.5,80,127.0
2756,E-4,310.5,0.5,80,127.0
2757,E-3,310.5,1.0,100,127.0
2758,G#4,311.0,203/200,60,127.0
2759,E4,311.0,0.5,100,127.0
2760,A4,311.5,497/200,100,127.0
2761,E-3,311.5,1.0,100,127.0
2762,E3,312.0,0.5,80,127.0
2763,E3,312.0,1.5,82,127.0
2764,B3,312.5,0.5,80,127.0
2765,E-3,312.5,1.0,100,127.0
2766,E4,313.0,0.5,100,127.0
2767,E4,313.5,1.0,70,127.0
2768,E-3,313.5,0.5,80,127.0
2769,E-3,313.5,497/200,93,127.0
2770,E3,313.5,3/200,82,127.0
2771,E-3,313.5,1.0,100,127.0
2772,A4,314.0,0.5,100,127.0
2773,B3,314.0,0.5,80,127.0
2774,B-4,314.5,0.25,100,127.0
2775,E-4,314.5,0.5,80,127.0
2776,E-3,314.5,1.0,100,127.0
2777,A4,314.75,0.25,100,127.0
2778,B-4,315.0,0.25,100,127.0
2779,E4,315.0,0.5,100,127.0
2780,C5,315.25,0.25,100,127.0
2781,G4,315.5,97/200,100,127.0
2782,F#4,315.5,3.5,60,127.0
2783,E-3,315.5,0.25,82,127.0
2784,E-3,315.75,0.25,92,127.0
2785,G4,316.0,0.5,100,127.0
2786,B2,316.0,0.5,80,127.0
2787,B2,316.0,1.5,90,127.0
2788,E-3,316.0,103/200,100,127.0
2789,F4,316.5,0.5,100,127.0
2790,B3,316.5,0.5,80,127.0
2791,E-3,316.5,1.0,100,127.0
2792,D4,317.0,2.0,100,127.0
2793,E4,317.0,0.5,100,127.0
2794,A2,317.5,0.5,70,127.0
2795,B2,317.5,0.5,90,127.0
2796,E-3,317.5,1.0,100,127.0
2797,E-4,318.0,0.5,80,127.0
2798,A2,318.0,303/200,93,127.0
2799,E4,318.5,0.5,100,127.0
2800,E-3,318.5,1.0,100,127.0
2801,D4,319.0,0.062,65,127.0
2802,F#4,319.0,3/200,60,127.0
2803,G#2,319.0,0.5,70,127.0
2804,C#4,319.062,0.062,65,127.0
2805,C4,319.125,0.062,65,127.0
2806,B3,319.196,0.062,65,127.0
2807,B-3,319.258,0.062,65,127.0
2808,A3,319.321,0.062,65,127.0
2809,F#2,319.5,0.5,70,127.0
2810,G#2,319.5,97/200,100,127.0
2811,E-3,319.5,1.0,100,127.0
2812,E2,320.0,0.5,70,127.0
2813,F#2,320.0,103/200,100,127.0
2814,E2,320.5,1.0,100,127.0
2815,E-3,320.5,1.0,100,127.0
2816,E4,321.0,0.5,100,127.0
2817,E-4,321.5,1.0,75,127.0
2818,C#3,321.5,0.5,80,127.0
2819,C#2,321.5,497/200,100,127.0
2820,E-3,321.5,1.0,100,127.0
2821,B3,322.0,0.5,80,127.0
2822,E-4,322.5,0.5,80,127.0
2823,E-3,322.5,1.0,100,127.0
2824,E4,323.0,703/200,60,127.0
2825,E4,323.0,0.5,100,127.0
2826,E-3,323.5,0.25,85,127.0
2827,E-3,323.75,0.25,90,127.0
2828,G#2,324.0,0.5,80,127.0
2829,G#2,324.0,1.5,100,127.0
2830,E-3,324.0,103/200,100,127.0
2831,B3,324.5,0.5,80,127.0
2832,E-3,324.5,1.0,100,127.0
2833,E4,325.0,0.5,100,127.0
2834,A2,325.5,0.5,80,127.0
2835,A2,325.5,297/200,100,127.0
2836,G#2,325.5,3/200,100,127.0
2837,E-3,325.5,1.0,100,127.0
2838,B3,326.0,0.5,80,127.0
2839,E4,326.5,0.5,100,127.0
2840,E-3,326.5,1.0,100,127.0
2841,C#3,327.0,0.5,80,127.0
2842,C#3,327.0,1.5,100,127.0
2843,B4,327.5,303/200,60,127.0
2844,B3,327.5,0.5,80,127.0
2845,E-3,327.5,0.25,83,127.0
2846,E-3,327.75,0.25,88,127.0
2847,E4,328.0,0.5,100,127.0
2848,E-3,328.0,0.5,100,127.0
2849,B2,328.5,0.5,100,127.0
2850,B2,328.5,497/200,100,127.0
2851,C#3,328.5,3/200,100,127.0
2852,E-3,328.5,1.0,100,127.0
2853,E-3,328.5,3/200,100,127.0
2854,B3,329.0,0.5,70,127.0
2855,B3,329.5,0.5,70,127.0
2856,E-3,329.5,1.0,100,127.0
2857,F#4,330.0,3.0,65,127.0
2858,B3,330.0,0.5,70,127.0
2859,E4,330.5,0.5,100,127.0
2860,E-3,330.5,1.0,100,127.0
2861,B3,331.0,0.5,70,127.0
2862,E2,331.0,1.5,100,127.0
2863,B3,331.5,0.5,70,127.0
2864,E2,331.5,83/1000,50,127.0
2865,E2,331.583,83/1000,50,127.0
2866,E2,331.667,83/1000,50,127.0
2867,E2,331.75,83/1000,50,127.0
2868,E2,331.833,83/1000,50,127.0
2869,E2,331.917,83/1000,50,127.0
2870,E2,332.0,83/1000,50,127.0
2871,E2,332.083,83/1000,50,127.0
2872,E2,332.167,83/1000,50,127.0
2873,E2,332.25,83/1000,50,127.0
2874,E2,332.333,83/1000,50,127.0
2875,E2,332.417,83/1000,50,127.0
2876,B3,332.5,0.5,70,127.0
2877,F#2,332.5,4.0,100,127.0
2878,E2,332.5,3/200,100,127.0
2879,E2,332.5,83/1000,50,127.0
2880,G#2,332.5,1.0,90,127.0
2881,E2,332.583,83/1000,50,127.0
2882,E2,332.667,83/1000,50,127.0
2883,E2,332.75,83/1000,50,127.0
2884,E2,332.833,83/1000,50,127.0
2885,E2,332.917,83/1000,50,127.0
2886,E2,333.0,83/1000,50,127.0
2887,E2,333.083,83/1000,50,127.0
2888,E2,333.167,83/1000,50,127.0
2889,E2,333.25,83/1000,50,127.0
2890,E2,333.333,83/1000,50,127.0
2891,E2,333.417,83/1000,50,127.0
2892,E2,333.5,83/1000,50,127.0
2893,G#2,333.5,1.0,90,127.0
2894,E2,333.583,83/1000,50,127.0
2895,E2,333.667,83/1000,50,127.0
2896,E2,333.75,83/1000,50,127.0
2897,E2,333.833,83/1000,50,127.0
2898,E2,333.917,83/1000,50,127.0
2899,F#4,334.0,97/200,50,127.0
2900,E2,334.0,83/1000,50,127.0
2901,E2,334.083,83/1000,50,127.0
2902,E2,334.167,83/1000,50,127.0
2903,E2,334.25,83/1000,50,127.0
2904,E2,334.333,83/1000,50,127.0
2905,E2,334.417,83/1000,50,127.0
2906,E2,334.5,97/200,100,127.0
2907,B2,335.0,103/200,100,127.0
2908,A2,335.5,1.0,100,127.0
2909,C#3,336.5,0.5,80,127.0
2910,C#2,336.5,497/200,100,127.0
2911,C#3,336.5,97/200,100,127.0
2912,C2,336.5,1.0,100,127.0
2913,B3,337.0,0.5,80,127.0
2914,E-3,337.0,1.0,100,127.0
2915,E-4,337.5,0.5,80,127.0
2916,G#2,337.5,2.0,70,127.0
2917,E4,338.0,0.5,100,127.0
2918,E-3,338.0,1.0,100,127.0
2919,E2,338.5,1.0,100,127.0
2920,G#2,339.0,0.5,80,127.0
2921,G#1,339.0,1.5,100,127.0
2922,E-3,339.0,1.0,100,127.0
2923,B3,339.5,0.5,80,127.0
2924,G#2,339.5,1.0,70,127.0
2925,E4,340.0,0.5,100,127.0
2926,E-3,340.0,0.5,100,127.0
2927,A2,340.5,0.5,80,127.0
2928,A1,340.5,497/200,100,127.0
2929,G#1,340.5,3/200,100,127.0
2930,C2,340.5,1.0,100,127.0
2931,E-3,340.5,0.5,100,127.0
2932,G#2,340.5,1.0,70,127.0
2933,B3,341.0,0.5,80,127.0
2934,E-3,341.0,1.0,100,127.0
2935,E-4,341.5,0.5,80,127.0
2936,G#2,341.5,2.0,70,127.0
2937,E4,342.0,0.5,100,127.0
2938,E-3,342.0,1.0,100,127.0
2939,E2,342.5,1.0,100,127.0
2940,E3,343.0,0.5,80,127.0
2941,E2,343.0,1.5,92,127.0
2942,E-3,343.0,1.0,100,127.0
2943,B3,343.5,0.5,80,127.0
2944,G#2,343.5,1.0,70,127.0
2945,E4,344.0,0.5,100,127.0
2946,E-3,344.0,0.5,100,127.0
2947,E-3,344.5,0.5,80,127.0
2948,E-2,344.5,497/200,93,127.0
2949,E2,344.5,3/200,92,127.0
2950,C2,344.5,1.0,100,127.0
2951,G#2,344.5,1.0,70,127.0
2952,E-3,344.5,0.5,100,127.0
2953,B3,345.0,0.5,80,127.0
2954,E-3,345.0,1.0,100,127.0
2955,E-4,345.5,0.5,80,127.0
2956,G#2,345.5,2.0,70,127.0
2957,E4,346.0,0.5,100,127.0
2958,E-3,346.0,1.0,100,127.0
2959,E2,346.5,1.0,100,127.0
2960,B2,347.0,0.5,80,127.0
2961,B1,347.0,1.5,100,127.0
2962,E-3,347.0,1.0,100,127.0
2963,B3,347.5,0.5,80,127.0
2964,G#2,347.5,1.0,70,127.0
2965,E3,348.0,0.5,100,127.0
2966,E4,348.0,0.5,100,127.0
2967,E-3,348.0,0.5,100,127.0
2968,B3,348.5,0.5,100,127.0
2969,A2,348.5,0.5,70,127.0
2970,B1,348.5,0.5,100,127.0
2971,C2,348.5,1.0,100,127.0
2972,G#2,348.5,1.0,70,127.0
2973,E-3,348.5,0.5,100,127.0
2974,C#4,349.0,0.5,100,127.0
2975,E-4,349.0,0.5,80,127.0
2976,A1,349.0,303/200,93,127.0
2977,E-3,349.0,1.0,100,127.0
2978,E-4,349.5,0.5,100,127.0
2979,E4,349.5,0.5,100,127.0
2980,G#2,349.5,2.0,70,127.0
2981,E4,350.0,0.5,100,127.0
2982,G#2,350.0,0.5,70,127.0
2983,E-3,350.0,1.0,100,127.0
2984,E4,350.5,2.5,100,127.0
2985,F#2,350.5,0.5,70,127.0
2986,G#1,350.5,97/200,100,127.0
2987,E2,350.5,1.0,100,127.0
2988,E2,351.0,0.5,70,127.0
2989,F#1,351.0,103/200,100,127.0
2990,E-3,351.0,1.0,100,127.0
2991,E1,351.5,1.0,100,127.0
2992,G#2,351.5,1.0,70,127.0
2993,E4,352.0,0.5,100,127.0
2994,E-3,352.0,0.5,100,127.0
2995,C#3,352.5,0.5,80,127.0
2996,C#1,352.5,497/200,100,127.0
2997,C2,352.5,1.0,100,127.0
2998,C#3,352.5,97/200,100,127.0
2999,E-3,352.5,3/200,100,127.0
3000,F#4,353.0,1379/1000,100,127.0
3001,B3,353.0,0.5,80,127.0
3002,E-3,353.0,1.0,100,127.0
3003,E-4,353.5,0.5,80,127.0
3004,G#2,353.5,2.0,70,127.0
3005,E4,354.0,0.5,100,127.0
3006,E-3,354.0,1.0,100,127.0
3007,F4,354.375,21/500,65,127.0
3008,F#4,354.375,21/500,65,127.0
3009,G4,354.458,21/500,65,127.0
3010,G#4,354.5,2.0,100,127.0
3011,E2,354.5,1.0,100,127.0
3012,G#2,355.0,0.5,80,127.0
3013,G#1,355.0,1.5,100,127.0
3014,E-3,355.0,1.0,100,127.0
3015,B3,355.5,0.5,80,127.0
3016,G#2,355.5,1.0,70,127.0
3017,E4,356.0,0.5,100,127.0
3018,E-3,356.0,0.5,100,127.0
3019,A2,356.5,0.5,80,127.0
3020,A1,356.5,297/200,100,127.0
3021,G#1,356.5,3/200,100,127.0
3022,C2,356.5,1.0,100,127.0
3023,G#2,356.5,1.0,70,127.0
3024,E-3,356.5,0.5,100,127.0
3025,G4,357.0,1.5,95,127.0
3026,B3,357.0,0.5,80,127.0
3027,E-3,357.0,1.0,100,127.0
3028,E4,357.5,0.5,100,127.0
3029,G#2,357.5,2.0,70,127.0
3030,C#3,358.0,0.5,80,127.0
3031,C#2,358.0,1.5,100,127.0
3032,E-3,358.0,1.0,100,127.0
3033,G4,358.5,93/125,95,127.0
3034,B3,358.5,0.5,80,127.0
3035,E2,358.5,1.0,100,127.0
3036,E4,359.0,0.5,100,127.0
3037,E-3,359.0,0.5,100,127.0
3038,F#4,359.233,0.125,100,127.0
3039,G#4,359.375,0.125,85,127.0
3040,F#4,359.5,3.0,100,127.0
3041,B2,359.5,0.5,100,127.0
3042,B1,359.5,497/200,100,127.0
3043,C#2,359.5,3/200,100,127.0
3044,C#3,359.5,97/200,100,127.0
3045,C2,359.5,1.0,100,127.0
3046,E-3,359.5,0.5,100,127.0
3047,B3,360.0,0.5,70,127.0
3048,E-3,360.0,1.0,100,127.0
3049,B3,360.5,0.5,70,127.0
3050,G#2,360.5,2.0,70,127.0
3051,B3,361.0,0.5,70,127.0
3052,E-3,361.0,1.0,100,127.0
3053,E4,361.5,0.5,100,127.0
3054,E2,361.5,1.0,100,127.0
3055,B3,362.0,0.5,70,127.0
3056,E1,362.0,1.5,100,127.0
3057,E-3,362.0,1.0,100,127.0
3058,E4,362.5,13/125,100,127.0
3059,B3,362.5,0.5,70,127.0
3060,G#2,362.5,1.0,70,127.0
3061,E-4,362.604,1.406,100,127.0
3062,E-3,363.0,0.5,100,127.0
3063,B2,363.5,0.5,100,127.0
3064,F#1,363.5,297/200,100,127.0
3065,E1,363.5,3/200,100,127.0
3066,C2,363.5,1.0,100,127.0
3067,E-3,363.5,0.5,100,127.0
3068,G#2,363.5,1.0,70,127.0
3069,E4,364.0,1.0,100,127.0
3070,B3,364.0,0.5,70,127.0
3071,E-3,364.0,1.0,100,127.0
3072,B3,364.5,0.5,70,127.0
3073,G#2,364.5,2.0,70,127.0
3074,B3,365.0,0.5,80,127.0
3075,B3,365.0,0.5,70,127.0
3076,G#1,365.0,1.5,100,127.0
3077,E-3,365.0,1.0,100,127.0
3078,F#4,365.5,0.938,100,127.0
3079,E4,365.5,0.5,100,127.0
3080,E2,365.5,1.0,100,127.0
3081,B3,366.0,0.5,70,127.0
3082,E-3,366.0,1.0,100,127.0
3083,F4,366.438,0.062,60,127.0
3084,F#4,366.5,1.5,100,127.0
3085,B3,366.5,0.5,70,127.0
3086,B1,366.5,0.5,100,127.0
3087,G#2,366.5,1.0,70,127.0
3088,G#1,367.0,0.5,100,127.0
3089,E-3,367.0,0.5,100,127.0
3090,C#3,367.5,0.5,80,127.0
3091,C#2,367.5,497/200,100,127.0
3092,C2,367.5,1.0,100,127.0
3093,C#3,367.5,97/200,100,127.0
3094,E-3,367.5,3/200,100,127.0
3095,F#4,368.0,303/200,100,127.0
3096,B3,368.0,0.5,80,127.0
3097,E-3,368.0,1.0,100,127.0
3098,E-4,368.5,0.5,80,127.0
3099,G#2,368.5,2.0,70,127.0
3100,E4,369.0,0.5,100,127.0
3101,E-3,369.0,1.0,100,127.0
3102,E4,369.5,1.0,100,127.0
3103,E2,369.5,1.0,100,127.0
3104,G#2,370.0,0.5,80,127.0
3105,G#1,370.0,1.5,100,127.0
3106,E-3,370.0,1.0,100,127.0
3107,E4,370.5,1.0,100,127.0
3108,B3,370.5,0.5,80,127.0
3109,G#2,370.5,1.0,70,127.0
3110,E4,371.0,0.5,100,127.0
3111,E-3,371.0,0.5,100,127.0
3112,A2,371.5,0.5,80,127.0
3113,A1,371.5,497/200,100,127.0
3114,G#1,371.5,3/200,100,127.0
3115,C2,371.5,1.0,100,127.0
3116,G#2,371.5,1.0,70,127.0
3117,E-3,371.5,0.5,100,127.0
3118,E-4,372.0,311/250,100,127.0
3119,B3,372.0,0.5,80,127.0
3120,E-3,372.0,1.0,100,127.0
3121,E-4,372.5,0.5,80,127.0
3122,G#2,372.5,2.0,70,127.0
3123,E4,373.0,0.5,100,127.0
3124,E-3,373.0,1.0,100,127.0
3125,C#4,373.25,0.25,100,127.0
3126,B3,373.5,497/200,100,127.0
3127,E2,373.5,1.0,100,127.0
3128,E3,374.0,0.5,80,127.0
3129,E2,374.0,1.5,92,127.0
3130,E-3,374.0,1.0,100,127.0
3131,B3,374.5,0.5,80,127.0
3132,G#2,374.5,1.0,70,127.0
3133,E4,375.0,0.5,100,127.0
3134,E-3,375.0,0.5,100,127.0
3135,E-3,375.5,0.5,80,127.0
3136,E-2,375.5,497/200,93,127.0
3137,E2,375.5,3/200,92,127.0
3138,C2,375.5,1.0,100,127.0
3139,G#2,375.5,1.0,70,127.0
3140,E-3,375.5,0.5,100,127.0
3141,E4,376.0,1.5,100,127.0
3142,B3,376.0,0.5,80,127.0
3143,E-3,376.0,1.0,100,127.0
3144,E-4,376.5,0.5,80,127.0
3145,G#2,376.5,2.0,70,127.0
3146,E4,377.0,0.5,100,127.0
3147,E-3,377.0,1.0,100,127.0
3148,F#4,377.5,297/200,100,127.0
3149,E4,377.5,3/200,100,127.0
3150,E2,377.5,1.0,100,127.0
3151,B2,378.0,0.5,80,127.0
3152,B1,378.0,1.5,100,127.0
3153,E-3,378.0,1.0,100,127.0
3154,B3,378.5,0.5,80,127.0
3155,G#2,378.5,1.0,70,127.0
3156,E4,379.0,0.5,100,127.0
3157,E4,379.0,0.5,100,127.0
3158,E-3,379.0,0.5,100,127.0
3159,B4,379.5,0.5,100,127.0
3160,A2,379.5,0.5,70,127.0
3161,B1,379.5,0.5,100,127.0
3162,C2,379.5,1.0,100,127.0
3163,G#2,379.5,1.0,70,127.0
3164,E-3,379.5,0.5,100,127.0
3165,C#5,380.0,0.5,100,127.0
3166,E-4,380.0,0.5,80,127.0
3167,A1,380.0,303/200,93,127.0
3168,E-3,380.0,1.0,100,127.0
3169,E-5,380.5,0.5,100,127.0
3170,E4,380.5,0.5,100,127.0
3171,G#2,380.5,2.0,70,127.0
3172,F#5,381.0,0.062,100,127.0
3173,G#2,381.0,0.5,70,127.0
3174,E-3,381.0,1.0,100,127.0
3175,E5,381.062,0.438,100,127.0
3176,E5,381.5,627/250,100,127.0
3177,F#2,381.5,0.5,70,127.0
3178,G#1,381.5,97/200,100,127.0
3179,E2,381.5,1.0,100,127.0
3180,E2,382.0,0.5,70,127.0
3181,F#1,382.0,103/200,100,127.0
3182,E-3,382.0,1.0,100,127.0
3183,E1,382.5,1.0,100,127.0
3184,E2,382.5,1.0,100,127.0
3185,E4,383.0,0.5,100,127.0
3186,E-3,383.0,0.5,100,127.0
3187,C#3,383.5,0.5,80,127.0
3188,C#1,383.5,497/200,100,127.0
3189,C#3,383.5,97/200,100,127.0
3190,C2,383.5,1.0,100,127.0
3191,E-3,383.5,3/200,100,127.0
3192,F#5,384.0,1.0,100,127.0
3193,B3,384.0,0.5,80,127.0
3194,E-3,384.0,1.0,100,127.0
3195,E-4,384.5,0.5,80,127.0
3196,G#2,384.5,2.0,70,127.0
3197,B4,385.0,0.5,100,127.0
3198,E4,385.0,0.5,100,127.0
3199,E-3,385.0,1.0,100,127.0
3200,F#5,385.5,2.5,100,127.0
3201,E2,385.5,1.0,100,127.0
3202,G#2,386.0,0.5,80,127.0
3203,G#1,386.0,1.5,100,127.0
3204,E-3,386.0,1.0,100,127.0
3205,B3,386.5,0.5,80,127.0
3206,G#2,386.5,1.0,70,127.0
3207,E4,387.0,0.5,100,127.0
3208,E-3,387.0,0.5,100,127.0
3209,A2,387.5,0.5,80,127.0
3210,A1,387.5,297/200,100,127.0
3211,G#1,387.5,3/200,100,127.0
3212,C2,387.5,1.0,100,127.0
3213,E-3,387.5,0.5,100,127.0
3214,G#2,387.5,1.0,70,127.0
3215,A5,388.0,0.5,100,127.0
3216,B3,388.0,0.5,80,127.0
3217,E-3,388.0,1.0,100,127.0
3218,F#5,388.5,1.0,100,127.0
3219,E4,388.5,0.5,100,127.0
3220,G#2,388.5,2.0,70,127.0
3221,C#3,389.0,0.5,80,127.0
3222,C#2,389.0,1.5,100,127.0
3223,E-3,389.0,1.0,100,127.0
3224,F#5,389.5,0.75,100,127.0
3225,B3,389.5,0.5,80,127.0
3226,E2,389.5,1.0,100,127.0
3227,E4,390.0,0.5,100,127.0
3228,E-3,390.0,0.5,100,127.0
3229,E5,390.25,0.25,100,127.0
3230,F#5,390.5,2.0,100,127.0
3231,B2,390.5,0.5,100,127.0
3232,B1,390.5,497/200,100,127.0
3233,C#2,390.5,3/200,100,127.0
3234,C#3,390.5,97/200,100,127.0
3235,C2,390.5,1.0,100,127.0
3236,E-3,390.5,0.5,100,127.0
3237,B3,391.0,0.5,70,127.0
3238,E-3,391.0,1.0,100,127.0
3239,B3,391.5,0.5,70,127.0
3240,G#2,391.5,2.0,70,127.0
3241,B3,392.0,0.5,70,127.0
3242,E-3,392.0,1.0,100,127.0
3243,E4,392.5,0.5,100,127.0
3244,E2,392.5,1.0,100,127.0
3245,E5,393.0,0.5,100,127.0
3246,B3,393.0,0.5,70,127.0
3247,E1,393.0,1.5,100,127.0
3248,E-3,393.0,1.0,100,127.0
3249,E5,393.5,13/125,100,127.0
3250,B3,393.5,0.5,70,127.0
3251,G#2,393.5,1.0,70,127.0
3252,E-5,393.604,1.406,100,127.0
3253,E-3,394.0,0.5,100,127.0
3254,B3,394.5,0.5,70,127.0
3255,F#1,394.5,297/200,100,127.0
3256,E1,394.5,3/200,100,127.0
3257,C2,394.5,97/200,100,127.0
3258,E-3,394.5,3/200,100,127.0
3259,E5,395.0,1.0,100,127.0
3260,E2,395.0,1.0,100,127.0
3261,E-3,395.5,1.0,100,127.0
3262,C2,395.985,0.5,100,127.0
3263,F#4,396.0,0.5,100,127.0
3264,G#1,396.0,1.5,100,127.0
3265,F#5,396.5,0.5,100,127.0
3266,E2,396.5,83/1000,100,127.0
3267,E2,396.583,83/1000,100,127.0
3268,C2,396.985,0.5,100,127.0
3269,F#4,397.0,0.5,100,127.0
3270,E2,397.485,83/1000,100,127.0
3271,E5,397.5,83/1000,100,127.0
3272,B1,397.5,1.0,100,127.0
3273,E2,397.569,83/1000,100,127.0
3274,F#5,397.583,1417/1000,100,127.0
3275,C2,398.0,0.5,100,127.0
3276,A2,398.5,0.5,80,127.0
3277,A1,398.5,3.0,100,127.0
3278,C#3,398.5,1.0,100,127.0
3279,C2,398.5,1.0,100,127.0
3280,A3,398.5,1.0,100,127.0
3281,G#5,399.0,303/200,100,127.0
3282,B3,399.0,0.5,80,127.0
3283,E-4,399.5,0.5,80,127.0
3284,F3,399.5,1.0,100,127.0
3285,E4,400.0,0.5,100,127.0
3286,C2,400.0,0.5,100,127.0
3287,F#5,400.5,83/1000,70,127.0
3288,E-4,400.5,0.5,100,127.0
3289,F3,400.5,1.0,100,127.0
3290,E2,400.5,1.0,100,127.0
3291,E5,400.583,917/1000,100,127.0
3292,B3,401.0,0.5,86,127.0
3293,E5,401.5,623/500,100,127.0
3294,A2,401.5,0.5,80,127.0
3295,A1,401.5,1.0,100,127.0
3296,F3,401.5,1.0,100,127.0
3297,E-4,402.0,0.5,82,127.0
3298,E2,402.0,0.25,48,127.0
3299,E2,402.25,0.25,48,127.0
3300,A2,402.5,0.5,80,127.0
3301,B1,402.5,2.0,100,127.0
3302,F3,402.5,1.0,100,127.0
3303,C2,402.5,0.5,100,127.0
3304,E-5,403.0,311/250,100,127.0
3305,B3,403.0,0.5,80,127.0
3306,E2,403.0,0.25,48,127.0
3307,B3,403.5,0.5,80,127.0
3308,F3,403.5,1.0,100,127.0
3309,E2,403.5,0.25,48,127.0
3310,B3,404.0,0.5,100,127.0
3311,C2,404.0,0.5,100,127.0
3312,C#5,404.25,0.25,100,127.0
3313,B4,404.5,697/200,100,127.0
3314,E4,404.5,0.5,100,127.0
3315,B1,404.5,0.5,83,127.0
3316,F3,404.5,1.0,100,127.0
3317,E2,404.5,1.0,100,127.0
3318,B3,405.0,0.5,70,127.0
3319,B1,405.0,0.5,88,127.0
3320,B3,405.5,0.5,70,127.0
3321,B1,405.5,0.5,83,127.0
3322,F3,405.5,1.0,100,127.0
3323,B1,406.0,0.5,82,127.0
3324,C2,406.0,0.5,100,127.0
3325,G#1,406.5,1.5,100,127.0
3326,E-4,406.5,297/200,87,127.0
3327,G#2,406.5,297/200,87,127.0
3328,B3,406.5,1323/1000,90,127.0
3329,G#3,406.5,1323/1000,90,127.0
3330,C#3,406.5,1.0,100,127.0
3331,C2,406.5,1.0,100,127.0
3332,E2,407.5,97/200,100,127.0
3333,G#4,408.0,0.5,100,127.0
3334,E4,408.0,0.25,96,127.0
3335,G#1,408.0,1.5,100,127.0
3336,C2,408.0,1.0,100,127.0
3337,A3,408.0,1.0,100,127.0
3338,G#4,408.5,0.5,100,127.0
3339,F#4,409.0,0.5,100,127.0
3340,E4,409.5,0.5,100,127.0
3341,A1,409.5,5.0,100,127.0
3342,A2,409.5,2.0,89,127.0
3343,E3,409.5,2.0,89,127.0
3344,C#3,409.5,1.0,100,127.0
3345,C2,409.5,1.0,100,127.0
3346,A3,409.562,1921/1000,82,127.0
3347,B3,409.562,1921/1000,82,127.0
3348,E4,409.625,2.0,84,127.0
3349,F#4,410.0,0.5,100,127.0
3350,F#4,410.5,0.5,100,127.0
3351,G#2,410.5,1.0,80,127.0
3352,F#4,411.0,0.5,100,127.0
3353,E4,411.5,0.5,100,127.0
3354,G#2,411.5,1.0,80,127.0
3355,E-4,412.0,0.5,100,127.0
3356,E4,412.5,2.0,100,127.0
3357,F#3,412.5,667/1000,100,127.0
3358,F#3,413.167,667/1000,100,127.0
3359,F#3,413.833,667/1000,100,127.0
3360,E4,414.5,0.5,100,127.0
3361,F#2,414.5,0.5,80,127.0
3362,F#1,414.5,1.5,100,127.0
3363,C2,414.5,1.0,100,127.0
3364,C#3,414.5,1.0,100,127.0
3365,B4,415.0,0.5,100,127.0
3366,B3,415.0,0.5,80,127.0
3367,C#5,415.5,0.5,100,127.0
3368,E4,415.5,0.5,80,127.0
3369,F3,415.5,1.0,100,127.0
3370,E-5,416.0,0.5,100,127.0
3371,F#4,416.0,0.5,100,127.0
3372,F#1,416.0,0.5,80,127.0
3373,C2,416.0,0.5,100,127.0
3374,E5,416.5,0.5,100,127.0
3375,E4,416.5,0.5,100,127.0
3376,F#1,416.5,1.0,80,127.0
3377,F3,416.5,1.0,100,127.0
3378,E2,416.5,1.0,100,127.0
3379,E-5,417.0,103/200,100,127.0
3380,B3,417.0,0.5,86,127.0
3381,C#5,417.5,97/200,100,127.0
3382,F#2,417.5,0.5,80,127.0
3383,F#1,417.5,1.0,90,127.0
3384,F3,417.5,1.0,100,127.0
3385,B4,418.0,0.5,100,127.0
3386,E4,418.0,0.5,82,127.0
3387,E2,418.0,0.125,50,127.0
3388,E2,418.125,0.125,50,127.0
3389,E2,418.25,0.25,48,127.0
3390,B4,418.5,297/200,100,127.0
3391,G#2,418.5,0.5,80,127.0
3392,G#1,418.5,1.5,100,127.0
3393,F3,418.5,1.0,100,127.0
3394,C2,418.5,0.5,100,127.0
3395,B3,419.0,0.5,80,127.0
3396,E2,419.0,0.25,48,127.0
3397,E4,419.5,0.5,80,127.0
3398,F3,419.5,1.0,100,127.0
3399,E2,419.5,0.25,48,127.0
3400,F#4,420.0,0.5,86,127.0
3401,F#4,420.0,0.5,100,127.0
3402,G#1,420.0,0.5,85,127.0
3403,C2,420.0,0.5,100,127.0
3404,E-5,420.5,297/200,100,127.0
3405,E4,420.5,0.5,100,127.0
3406,G#1,420.5,2.0,90,127.0
3407,F3,420.5,1.0,100,127.0
3408,E2,420.5,1.0,100,127.0
3409,B3,421.0,0.5,86,127.0
3410,G#2,421.5,0.5,80,127.0
3411,F3,421.5,1.0,100,127.0
3412,E5,422.0,1.0,100,127.0
3413,E4,422.0,0.5,82,127.0
3414,A2,422.5,0.5,80,127.0
3415,A1,422.5,2.0,100,127.0
3416,C2,422.5,1.0,100,127.0
3417,F3,422.5,1.0,100,127.0
3418,F#4,423.0,0.5,100,127.0
3419,B3,423.0,0.5,80,127.0
3420,B4,423.5,4.0,95,127.0
3421,E-4,423.5,0.5,80,127.0
3422,F3,423.5,1.0,100,127.0
3423,E4,424.0,0.5,100,127.0
3424,C2,424.0,0.5,100,127.0
3425,E-4,424.5,0.5,100,127.0
3426,A1,424.5,0.5,83,127.0
3427,F3,424.5,1.0,100,127.0
3428,E2,424.5,1.0,100,127.0
3429,B3,425.0,0.5,86,127.0
3430,A1,425.0,0.5,88,127.0
3431,A2,425.5,0.5,80,127.0
3432,A1,425.5,0.5,83,127.0
3433,F3,425.5,1.0,100,127.0
3434,B3,426.0,0.5,82,127.0
3435,A1,426.0,0.5,82,127.0
3436,E2,426.0,0.25,48,127.0
3437,E2,426.25,0.25,48,127.0
3438,B2,426.5,0.5,80,127.0
3439,B1,426.5,1.5,100,127.0
3440,C2,426.5,1.0,100,127.0
3441,F3,426.5,1.0,100,127.0
3442,B3,427.0,0.5,80,127.0
3443,A4,427.5,0.5,100,127.0
3444,B3,427.5,0.5,80,127.0
3445,F3,427.5,1.0,100,127.0
3446,G#4,428.0,0.5,100,127.0
3447,B3,428.0,0.5,100,127.0
3448,B1,428.0,0.5,90,127.0
3449,C2,428.0,0.5,100,127.0
3450,A4,428.5,497/200,100,127.0
3451,E4,428.5,0.5,100,127.0
3452,B1,428.5,0.5,90,127.0
3453,E2,428.5,83/1000,100,127.0
3454,E2,428.583,83/1000,100,127.0
3455,C2,428.985,0.5,100,127.0
3456,B3,429.0,0.5,70,127.0
3457,A1,429.0,0.5,90,127.0
3458,E2,429.485,83/1000,100,127.0
3459,B3,429.5,0.5,70,127.0
3460,B1,429.5,0.5,90,127.0
3461,E2,429.569,83/1000,100,127.0
3462,G#1,430.0,0.5,90,127.0
3463,C2,430.0,0.5,100,127.0
3464,A2,430.5,0.5,80,127.0
3465,A1,430.5,1.5,100,127.0
3466,C2,430.5,1.0,100,127.0
3467,C#3,430.5,1.0,100,127.0
3468,B4,431.0,103/200,100,127.0
3469,B3,431.0,0.5,80,127.0
3470,F#4,431.5,1.0,88,127.0
3471,E-4,431.5,0.5,80,127.0
3472,F3,431.5,1.0,100,127.0
3473,E4,432.0,0.5,100,127.0
3474,A1,432.0,0.5,80,127.0
3475,C2,432.0,0.5,100,127.0
3476,F#4,432.5,0.5,88,127.0
3477,E-4,432.5,0.5,100,127.0
3478,A1,432.5,97/200,80,127.0
3479,F3,432.5,1.0,100,127.0
3480,E2,432.5,1.0,100,127.0
3481,F#4,433.0,103/200,100,127.0
3482,B3,433.0,0.5,86,127.0
3483,E1,433.0,0.5,100,127.0
3484,E4,433.5,497/200,100,127.0
3485,A2,433.5,0.5,80,127.0
3486,A1,433.5,1.0,100,127.0
3487,F3,433.5,1.0,100,127.0
3488,E-4,434.0,0.5,82,127.0
3489,E2,434.0,0.25,48,127.0
3490,E2,434.25,0.25,48,127.0
3491,A2,434.5,0.5,80,127.0
3492,B1,434.5,1.5,100,127.0
3493,F3,434.5,1.0,100,127.0
3494,C2,434.5,0.5,100,127.0
3495,B3,435.0,0.5,80,127.0
3496,E2,435.0,0.25,48,127.0
3497,B3,435.5,0.5,80,127.0
3498,F3,435.5,1.0,100,127.0
3499,E2,435.5,0.25,48,127.0
3500,G#3,436.0,0.5,100,127.0
3501,B3,436.0,0.5,100,127.0
3502,B1,436.0,0.5,80,127.0
3503,C2,436.0,0.5,100,127.0
3504,E4,436.5,0.5,100,127.0
3505,B1,436.5,2.0,80,127.0
3506,E4,436.5,1.0,80,127.0
3507,C#4,436.5,1.0,80,127.0
3508,F3,436.5,1.0,100,127.0
3509,E2,436.5,1.0,100,127.0
3510,B3,437.0,0.5,70,127.0
3511,B3,437.5,97/200,100,127.0
3512,B3,437.5,0.5,70,127.0
3513,F3,437.5,1.0,100,127.0
3514,G#3,438.0,0.5,100,127.0
3515,C2,438.0,0.5,100,127.0
3516,E3,438.5,0.5,100,127.0
3517,G#1,438.5,1.5,100,127.0
3518,E-4,438.5,297/200,87,127.0
3519,G#2,438.5,297/200,87,127.0
3520,B3,438.5,1323/1000,90,127.0
3521,G#3,438.5,1323/1000,90,127.0
3522,C#3,438.5,97/200,100,127.0
3523,C2,438.5,97/200,100,127.0
3524,F#3,439.0,0.5,100,127.0
3525,C2,439.0,0.5,100,127.0
3526,B-2,439.0,0.5,100,127.0
3527,G#3,439.5,0.5,100,127.0
3528,E2,439.5,0.5,100,127.0
3529,F#2,439.5,0.5,100,127.0
3530,F#3,440.0,0.5,100,127.0
3531,E4,440.0,0.25,96,127.0
3532,G#1,440.0,103/200,100,127.0
3533,A3,440.0,103/200,100,127.0
3534,C2,440.0,103/200,100,127.0
3535,F#3,440.5,1.5,100,127.0
3536,B-2,440.5,0.5,100,127.0
3537,G#1,441.0,0.25,100,127.0
3538,C2,441.0,0.5,100,127.0
3539,A1,441.5,5.0,100,127.0
3540,C#3,441.5,1.0,100,127.0
3541,C2,441.5,97/200,100,127.0
3542,A2,441.5,2.0,98,127.0
3543,E3,441.5,2.0,98,127.0
3544,A3,441.562,1921/1000,93,127.0
3545,B3,441.562,1921/1000,93,127.0
3546,E4,441.625,2.0,97,127.0
3547,F#3,442.0,0.25,90,127.0
3548,E3,442.25,0.25,90,127.0
3549,G#3,442.5,167/1000,100,127.0
3550,G#2,442.5,729/1000,80,127.0
3551,A3,442.667,167/1000,100,127.0
3552,B3,442.833,167/1000,100,127.0
3553,C#4,443.0,167/1000,100,127.0
3554,E-4,443.167,167/1000,100,127.0
3555,E2,443.25,0.25,100,127.0
3556,E4,443.333,167/1000,100,127.0
3557,C#4,443.5,167/1000,100,127.0
3558,E2,443.5,0.25,100,127.0
3559,E-4,443.667,167/1000,100,127.0
3560,E4,443.833,167/1000,100,127.0
3561,F#4,444.0,167/1000,100,127.0
3562,G#4,444.167,167/1000,100,127.0
3563,D3,444.25,0.25,100,127.0
3564,B4,444.333,167/1000,100,127.0
3565,B4,444.5,297/200,100,127.0
3566,D3,444.5,0.25,100,127.0
3567,B2,445.25,0.25,100,127.0
3568,B2,445.5,0.25,100,127.0
3569,A4,446.0,0.5,100,127.0
3570,C2,446.0,0.5,100,127.0
3571,B4,446.485,0.5,100,127.0
3572,F#2,446.5,0.5,80,127.0
3573,F#1,446.5,1.5,100,127.0
3574,C2,446.5,3/200,100,127.0
3575,C#3,446.5,1.0,100,127.0
3576,C2,446.5,1.0,100,127.0
3577,C#5,446.985,0.5,100,127.0
3578,B3,447.0,0.5,80,127.0
3579,E-5,447.5,0.5,100,127.0
3580,E4,447.5,0.5,80,127.0
3581,F3,447.5,1.0,100,127.0
3582,E-5,448.0,0.5,100,127.0
3583,F#4,448.0,0.5,100,127.0
3584,F#1,448.0,0.5,80,127.0
3585,C2,448.0,0.5,100,127.0
3586,E-5,448.5,203/200,100,127.0
3587,E4,448.5,0.5,100,127.0
3588,F#1,448.5,2.0,80,127.0
3589,F3,448.5,1.0,100,127.0
3590,E2,448.5,1.0,100,127.0
3591,B3,449.0,0.5,86,127.0
3592,C#5,449.5,0.5,100,127.0
3593,F#2,449.5,0.5,80,127.0
3594,F3,449.5,1.0,100,127.0
3595,E5,450.0,2.0,100,127.0
3596,E4,450.0,0.5,82,127.0
3597,E2,450.0,0.125,50,127.0
3598,E2,450.125,0.125,50,127.0
3599,E2,450.25,0.25,48,127.0
3600,E2,450.5,0.5,80,127.0
3601,E1,450.5,4.0,100,127.0
3602,F3,450.5,1.0,100,127.0
3603,C2,450.5,0.5,100,127.0
3604,B3,451.0,0.5,80,127.0
3605,E-4,451.5,0.5,80,127.0
3606,F3,451.5,1.0,100,127.0
3607,B4,452.0,0.5,100,127.0
3608,E4,452.0,0.5,100,127.0
3609,C2,452.0,0.5,100,127.0
3610,B5,452.5,1.0,100,127.0
3611,B3,452.5,0.5,100,127.0
3612,E2,452.5,83/1000,86,127.0
3613,E2,452.583,83/1000,86,127.0
3614,C2,452.985,0.5,100,127.0
3615,G#4,453.0,0.5,80,127.0
3616,A2,453.485,83/1000,86,127.0
3617,A5,453.5,0.25,100,127.0
3618,A2,453.569,83/1000,86,127.0
3619,G#5,453.75,0.25,100,127.0
3620,F#5,454.0,1.0,100,127.0
3621,C2,454.0,0.5,100,127.0
3622,E2,454.5,697/200,84,127.0
3623,C2,454.5,2.0,100,127.0
3624,C#3,454.5,2.0,100,127.0
3625,G#5,455.0,0.5,100,127.0
3626,E5,455.5,621/500,100,127.0
3627,G#5,455.5,3/200,100,127.0
3628,B-2,456.5,2.0,100,127.0
3629,E-5,456.754,83/1000,60,127.0
3630,D5,456.837,83/1000,60,127.0
3631,C#5,456.921,83/1000,60,127.0
3632,C5,457.004,83/1000,60,127.0
3633,B4,457.087,83/1000,60,127.0
3634,B-4,457.171,83/1000,60,127.0
3635,A4,457.254,83/1000,60,127.0
3636,E5,457.5,0.25,100,127.0
3637,E-5,457.75,0.25,100,127.0
3638,C#5,458.0,0.25,100,127.0
3639,E-2,458.0,83/1000,69,127.0
3640,D2,458.083,83/1000,69,127.0
3641,C#2,458.167,83/1000,69,127.0
3642,B4,458.25,0.25,100,127.0
3643,C2,458.25,83/1000,69,127.0
3644,B1,458.333,83/1000,69,127.0
3645,B-1,458.417,83/1000,69,127.0
3646,A4,458.5,0.25,100,127.0
3647,A1,458.5,4.0,89,127.0
3648,G#4,458.75,0.25,100,127.0
3649,F#4,459.0,0.25,100,127.0
3650,G#4,459.25,0.25,100,127.0
3651,A4,459.5,0.25,100,127.0
3652,B4,459.75,0.25,100,127.0
3653,C#5,460.0,0.25,100,127.0
3654,E5,460.25,0.25,100,127.0
3655,F#5,460.5,2.0,100,127.0
3656,B-2,460.5,2.0,100,127.0
3657,D2,462.5,3079/1000,85,127.0
3658,C#3,462.5,2.0,100,127.0
3659,C2,462.5,2.0,100,127.0
3660,F5,462.519,83/1000,55,127.0
3661,E5,462.602,83/1000,55,127.0
3662,E-5,462.685,83/1000,55,127.0
3663,D5,462.769,83/1000,55,127.0
3664,C#5,462.852,83/1000,55,127.0
3665,C5,462.935,83/1000,55,127.0
3666,B4,463.019,83/1000,55,127.0
3667,B-4,463.083,83/1000,55,127.0
3668,A4,463.167,83/1000,55,127.0
3669,G#4,463.25,83/1000,55,127.0
3670,E2,463.529,4.0,40,127.0
3671,B4,464.0,0.5,100,127.0
3672,F#5,464.5,497/200,100,127.0
3673,B-2,464.5,2.0,100,127.0
3674,E-2,465.579,83/1000,60,127.0
3675,E2,465.663,83/1000,60,127.0
3676,F2,465.746,83/1000,60,127.0
3677,F#2,465.829,83/1000,60,127.0
3678,G2,465.913,83/1000,60,127.0
3679,G#2,465.996,83/1000,60,127.0
3680,A2,466.079,83/1000,60,127.0
3681,B-2,466.163,83/1000,60,127.0
3682,B2,466.246,83/1000,60,127.0
3683,C3,466.329,83/1000,60,127.0
3684,C#3,466.413,83/1000,60,127.0
3685,D3,466.5,4.0,93,127.0
3686,F5,466.938,83/1000,55,127.0
3687,E5,467.021,83/1000,55,127.0
3688,E-5,467.104,83/1000,55,127.0
3689,D5,467.188,83/1000,55,127.0
3690,C#5,467.271,83/1000,55,127.0
3691,C5,467.354,83/1000,55,127.0
3692,E4,467.5,0.5,90,127.0
3693,B5,467.5,0.25,79,127.0
3694,B4,467.5,0.25,79,127.0
3695,A4,467.529,4.0,40,127.0
3696,E4,467.529,4.0,40,127.0
3697,A3,467.529,4.0,40,127.0
3698,A4,468.0,0.5,90,127.0
3699,B4,468.5,297/200,84,127.0
3700,B-2,468.5,2.0,100,127.0
3701,A5,469.5,0.25,83,127.0
3702,A4,469.5,0.25,83,127.0
3703,C5,470.0,0.5,84,127.0
3704,A4,470.5,2.0,84,127.0
3705,B1,470.5,4.0,86,127.0
3706,D3,470.5,79/1000,93,127.0
3707,C#3,470.5,2.0,100,127.0
3708,C2,470.5,2.0,100,127.0
3709,D3,471.529,4.0,40,127.0
3710,A4,471.529,4.0,40,127.0
3711,D4,471.529,4.0,40,127.0
3712,A4,472.5,297/200,84,127.0
3713,B-2,472.5,297/200,100,127.0
3714,E2,474.0,0.5,100,127.0
3715,G#4,474.031,83/1000,45,127.0
3716,G4,474.115,83/1000,45,127.0
3717,F#4,474.198,83/1000,45,127.0
3718,F4,474.281,83/1000,45,127.0
3719,E4,474.365,83/1000,45,127.0
3720,E-4,474.448,83/1000,45,127.0
3721,B1,474.5,4.0,86,127.0
3722,E2,474.5,0.5,100,127.0
3723,D4,474.531,83/1000,45,127.0
3724,G#4,475.5,1.0,75,127.0
3725,C3,475.5,0.5,100,127.0
3726,C3,476.0,0.5,100,127.0
3727,F#4,476.5,4.0,75,127.0
3728,B2,477.0,0.5,100,127.0
3729,A2,477.5,0.5,100,127.0
3730,E4,478.5,1.5,82,127.0
3731,C#2,478.5,497/200,100,127.0
3732,E3,478.5,497/200,100,127.0
3733,C2,478.5,1.0,100,127.0
3734,C#3,478.5,1.0,100,127.0
3735,B-2,479.5,1.0,100,127.0
3736,D3,479.529,4.0,40,127.0
3737,A4,479.529,4.0,40,127.0
3738,D4,479.529,4.0,40,127.0
3739,E4,480.0,4.0,82,127.0
3740,C2,480.0,0.5,100,127.0
3741,F#4,480.5,621/1000,75,127.0
3742,E2,480.5,0.5,100,127.0
3743,B-2,480.5,1.0,100,127.0
3744,G#1,481.0,1.5,100,127.0
3745,F#3,481.0,0.5,100,127.0
3746,F4,481.156,83/1000,45,127.0
3747,E4,481.24,83/1000,45,127.0
3748,E-4,481.323,83/1000,45,127.0
3749,D4,481.406,83/1000,45,127.0
3750,C#4,481.49,83/1000,45,127.0
3751,G#3,481.5,0.5,100,127.0
3752,B-2,481.5,1.0,100,127.0
3753,C4,481.573,83/1000,45,127.0
3754,B3,481.656,83/1000,45,127.0
3755,A3,482.0,0.5,100,127.0
3756,C2,482.0,0.5,100,127.0
3757,A1,482.5,497/200,100,127.0
3758,G#1,482.5,3/200,100,127.0
3759,A3,482.5,1.5,100,127.0
3760,C2,482.5,3/200,100,127.0
3761,B-2,482.5,1.0,100,127.0
3762,C2,482.5,1.0,100,127.0
3763,B3,483.5,0.5,77,127.0
3764,B-2,483.5,1.0,100,127.0
3765,B2,483.529,4.0,40,127.0
3766,B3,483.529,4.0,40,127.0
3767,F#4,483.529,4.0,40,127.0
3768,E-4,483.529,4.0,40,127.0
3769,E4,484.0,0.5,77,127.0
3770,E4,484.0,4.0,82,127.0
3771,C#4,484.0,1.0,100,127.0
3772,C2,484.0,0.5,100,127.0
3773,E-4,484.5,4.0,82,127.0
3774,B-2,484.5,1.0,100,127.0
3775,E2,484.5,0.5,100,127.0
3776,E2,485.0,1.5,92,127.0
3777,B3,485.0,0.25,100,127.0
3778,A3,485.25,271/1000,100,127.0
3779,B3,485.5,1.0,100,127.0
3780,B-2,485.5,1.0,100,127.0
3781,C2,486.0,0.5,100,127.0
3782,E-2,486.5,497/200,93,127.0
3783,E2,486.5,3/200,92,127.0
3784,B3,486.5,1.0,100,127.0
3785,C2,486.5,1.0,100,127.0
3786,B-2,486.5,1.0,100,127.0
3787,F#4,487.5,2.0,100,127.0
3788,B-2,487.5,1.0,100,127.0
3789,E4,488.0,4.0,82,127.0
3790,C2,488.0,0.5,100,127.0
3791,E-4,488.5,497/200,82,127.0
3792,B-2,488.5,1.0,100,127.0
3793,E2,488.5,0.5,100,127.0
3794,B1,489.0,1.5,100,127.0
3795,F#5,489.5,1.0,100,127.0
3796,B-2,489.5,1.0,100,127.0
3797,C2,490.0,0.5,100,127.0
3798,B1,490.5,0.5,100,127.0
3799,F#5,490.5,81/125,100,127.0
3800,B-2,490.5,1.0,100,127.0
3801,C2,490.5,97/200,100,127.0
3802,A1,491.0,303/200,93,127.0
3803,E2,491.0,0.5,100,127.0
3804,E5,491.167,667/1000,100,127.0
3805,B-2,491.5,1.0,100,127.0
3806,B2,491.529,4.0,40,127.0
3807,B3,491.529,4.0,40,127.0
3808,F#4,491.529,4.0,40,127.0
3809,E-4,491.529,4.0,40,127.0
3810,E-5,491.833,667/1000,100,127.0
3811,E4,492.0,73/500,82,127.0
3812,C2,492.0,0.5,100,127.0
3813,G#1,492.5,97/200,100,127.0
3814,E-5,492.5,297/200,100,127.0
3815,E2,492.5,83/1000,86,127.0
3816,C#3,492.5,2.5,90,127.0
3817,G#3,492.5,2.5,90,127.0
3818,C#4,492.5,2.5,90,127.0
3819,E2,492.583,83/1000,86,127.0
3820,F#1,493.0,103/200,100,127.0
3821,C2,493.0,0.5,100,127.0
3822,A3,493.0,0.5,100,127.0
3823,E1,493.5,1.0,100,127.0
3824,C#3,493.5,0.5,100,127.0
3825,C2,493.5,0.5,100,127.0
3826,C#5,494.0,0.25,100,127.0
3827,B4,494.25,0.25,100,127.0
3828,C#2,494.5,497/200,100,127.0
3829,G#4,494.5,2.0,100,127.0
3830,C2,494.5,1.0,100,127.0
3831,A3,494.5,1.0,100,127.0
3832,G#2,495.0,1.5,90,127.0
3833,E-3,495.0,1.5,90,127.0
3834,G#3,495.0,1.5,90,127.0
3835,B-2,495.5,1.0,100,127.0
3836,C2,496.0,0.5,100,127.0
3837,G#4,496.5,0.5,100,127.0
3838,E2,496.5,0.5,100,127.0
3839,B-2,496.5,1.0,100,127.0
3840,A2,496.5,2.5,90,127.0
3841,A3,496.5,2.5,90,127.0
3842,E3,496.5,2.5,90,127.0
3843,G#1,497.0,1.5,100,127.0
3844,F#4,497.0,0.5,100,127.0
3845,C2,497.0,0.5,100,127.0
3846,E4,497.5,0.5,100,127.0
3847,B-2,497.5,1.0,100,127.0
3848,A4,498.0,0.5,100,127.0
3849,C2,498.0,0.5,100,127.0
3850,A1,498.5,297/200,100,127.0
3851,G#1,498.5,3/200,100,127.0
3852,A4,498.5,1.0,100,127.0
3853,C2,498.5,3/200,100,127.0
3854,C2,498.5,1.0,100,127.0
3855,G3,498.5,1.0,100,127.0
3856,E3,499.0,1.5,90,127.0
3857,B3,499.0,1.5,90,127.0
3858,B4,499.5,0.5,100,127.0
3859,B-2,499.5,1.0,100,127.0
3860,C#2,500.0,1.5,100,127.0
3861,C#5,500.0,0.5,100,127.0
3862,C2,500.0,0.5,100,127.0
3863,E4,500.5,0.5,100,127.0
3864,E2,500.5,83/1000,86,127.0
3865,E-3,500.5,2.5,90,127.0
3866,B3,500.5,2.5,90,127.0
3867,E2,500.583,83/1000,86,127.0
3868,F#4,501.0,0.25,100,127.0
3869,C2,501.0,0.5,100,127.0
3870,G#4,501.25,0.25,100,127.0
3871,B1,501.5,497/200,100,127.0
3872,C#2,501.5,3/200,100,127.0
3873,F#4,501.5,497/200,100,127.0
3874,C2,501.5,1.0,100,127.0
3875,C#3,501.5,1.0,100,127.0
3876,B-2,502.5,1.0,100,127.0
3877,C2,503.0,0.5,100,127.0
3878,B2,503.0,1.5,90,127.0
3879,F#3,503.0,1.5,90,127.0
3880,B3,503.0,1.5,90,127.0
3881,B-2,503.5,1.0,100,127.0
3882,C2,503.5,0.5,100,127.0
3883,E1,504.0,1.5,100,127.0
3884,E4,504.0,0.5,100,127.0
3885,E-4,504.5,0.25,100,127.0
3886,B-2,504.5,1.0,100,127.0
3887,E2,504.5,97/200,100,127.0
3888,C#4,504.75,0.25,100,127.0
3889,B3,505.0,0.5,100,127.0
3890,C2,505.0,0.5,100,127.0
3891,B2,505.0,0.5,90,127.0
3892,F#3,505.0,0.5,90,127.0
3893,B3,505.0,0.5,90,127.0
3894,F#1,505.5,297/200,100,127.0
3895,E1,505.5,3/200,100,127.0
3896,B3,505.5,1.5,100,127.0
3897,B-2,505.5,1.0,100,127.0
3898,A2,505.5,1.5,90,127.0
3899,A3,505.5,1.5,90,127.0
3900,E3,505.5,1.5,90,127.0
3901,C2,506.0,0.5,100,127.0
3902,B-2,506.5,1.0,100,127.0
3903,C2,506.5,0.5,100,127.0
3904,G#2,507.0,0.5,90,127.0
3905,G#1,507.0,1.5,100,127.0
3906,B4,507.0,0.5,100,127.0
3907,F#2,507.5,0.5,90,127.0
3908,A4,507.5,167/1000,100,127.0
3909,B-2,507.5,1.0,100,127.0
3910,G#4,507.667,167/1000,100,127.0
3911,F#4,507.833,167/1000,100,127.0
3912,E2,508.0,1.0,90,127.0
3913,E4,508.0,167/1000,100,127.0
3914,C2,508.0,0.5,100,127.0
3915,E-4,508.167,167/1000,100,127.0
3916,C#4,508.333,167/1000,100,127.0
3917,B1,508.5,0.5,100,127.0
3918,B3,508.5,0.125,100,127.0
3919,B-2,508.5,1.0,100,127.0
3920,E2,508.5,0.5,100,127.0
3921,A3,508.625,0.125,100,127.0
3922,G#3,508.75,0.125,100,127.0
3923,F#3,508.875,0.125,100,127.0
3924,G#1,509.0,0.5,100,127.0
3925,E3,509.0,0.125,100,127.0
3926,C2,509.0,0.5,100,127.0
3927,C#3,509.0,2.5,90,127.0
3928,C#4,509.0,2.5,90,127.0
3929,G#3,509.0,2.5,90,127.0
3930,E-3,509.125,0.125,100,127.0
3931,C#3,509.25,0.125,100,127.0
3932,B2,509.375,0.125,100,127.0
3933,C#2,509.5,497/200,100,127.0
3934,E3,509.5,29/25,100,127.0
3935,C#3,509.5,1.0,100,127.0
3936,C2,509.5,1.0,100,127.0
3937,B-2,510.5,1.0,100,127.0
3938,G#3,510.667,167/1000,100,127.0
3939,C#4,510.833,167/1000,100,127.0
3940,E4,511.0,167/1000,100,127.0
3941,C2,511.0,0.5,100,127.0
3942,G#4,511.167,167/1000,100,127.0
3943,C#5,511.333,167/1000,100,127.0
3944,E5,511.5,0.125,100,127.0
3945,E2,511.5,0.5,100,127.0
3946,B-2,511.5,1.0,100,127.0
3947,G#2,511.5,1.5,90,127.0
3948,E-3,511.5,1.5,90,127.0
3949,G#3,511.5,1.5,90,127.0
3950,G#5,511.625,0.125,100,127.0
3951,C#6,511.75,0.125,100,127.0
3952,E6,511.875,1379/1000,100,127.0
3953,G#1,512.0,1.5,100,127.0
3954,B-2,512.5,1.0,100,127.0
3955,A2,513.0,1.5,90,127.0
3956,E3,513.0,1.5,90,127.0
3957,A3,513.0,1.5,90,127.0
3958,E3,513.25,0.25,100,127.0
3959,A1,513.5,497/200,100,127.0
3960,G#1,513.5,3/200,100,127.0
3961,E3,513.5,0.344,100,127.0
3962,B-2,513.5,1.0,100,127.0
3963,C2,513.5,1.0,100,127.0
3964,A3,513.833,167/1000,100,127.0
3965,C#4,514.0,167/1000,100,127.0
3966,E4,514.167,167/1000,100,127.0
3967,A4,514.333,167/1000,100,127.0
3968,C#5,514.5,167/1000,100,127.0
3969,B-2,514.5,1.0,100,127.0
3970,C#3,514.5,1.5,90,127.0
3971,C#4,514.5,1.5,90,127.0
3972,G#3,514.5,1.5,90,127.0
3973,E5,514.667,167/1000,100,127.0
3974,A5,514.833,167/1000,100,127.0
3975,C#6,515.0,103/200,100,127.0
3976,C2,515.0,0.5,100,127.0
3977,E6,515.5,667/1000,100,127.0
3978,B-2,515.5,1.0,100,127.0
3979,E2,515.5,0.5,100,127.0
3980,E2,516.0,1.5,92,127.0
3981,F#3,516.0,1.5,120,127.0
3982,B2,516.0,2.5,90,127.0
3983,B3,516.0,2.5,90,127.0
3984,F#3,516.0,2.5,90,127.0
3985,E-6,516.167,667/1000,100,127.0
3986,B-2,516.5,1.0,100,127.0
3987,E6,516.833,667/1000,100,127.0
3988,C2,517.0,0.5,100,127.0
3989,E-2,517.5,497/200,93,127.0
3990,E2,517.5,3/200,92,127.0
3991,E3,517.5,2.5,120,127.0
3992,F#6,517.5,3323/1000,100,127.0
3993,C2,517.5,1.0,100,127.0
3994,A3,517.5,1.0,100,127.0
3995,E2,518.5,1.5,90,127.0
3996,B-2,518.5,1.0,100,127.0
3997,C2,519.0,0.5,100,127.0
3998,B-2,519.5,1.0,100,127.0
3999,E2,519.5,0.5,100,127.0
4000,F#2,520.0,1.5,90,127.0
4001,B1,520.0,1.5,100,127.0
4002,E-3,520.0,1.5,120,127.0
4003,B-2,520.5,1.0,100,127.0
4004,F#6,520.833,667/1000,100,127.0
4005,G#2,521.5,1.5,90,127.0
4006,B1,521.5,0.5,100,127.0
4007,E-3,521.5,0.5,120,127.0
4008,E-6,521.5,0.5,100,127.0
4009,F#6,521.5,1/100,100,127.0
4010,B-2,521.5,1.0,100,127.0
4011,C2,521.5,97/200,100,127.0
4012,A1,522.0,303/200,93,127.0
4013,C#3,522.0,1.5,120,127.0
4014,C#6,522.0,0.5,100,127.0
4015,E2,522.0,0.5,100,127.0
4016,B5,522.5,0.5,100,127.0
4017,B-2,522.5,1.0,100,127.0
4018,B2,523.0,0.5,90,127.0
4019,G#5,523.0,0.5,100,127.0
4020,C2,523.0,0.5,100,127.0
4021,G#2,523.5,0.5,90,127.0
4022,G#1,523.5,97/200,100,127.0
4023,B2,523.5,0.5,120,127.0
4024,C#5,523.5,729/1000,100,127.0
4025,E2,523.5,83/1000,86,127.0
4026,E2,523.583,83/1000,86,127.0
4027,F#1,524.0,103/200,100,127.0
4028,A2,524.0,0.5,120,127.0
4029,C#4,524.0,2.5,90,127.0
4030,G#3,524.0,2.5,90,127.0
4031,C#3,524.0,2.5,90,127.0
4032,C2,524.0,0.5,100,127.0
4033,A3,524.0,0.5,100,127.0
4034,C#5,524.25,0.5,100,127.0
4035,E1,524.5,1.0,100,127.0
4036,G#2,524.5,1.0,120,127.0
4037,C#3,524.5,0.5,100,127.0
4038,C2,524.5,0.5,100,127.0
4039,B4,524.75,0.25,100,127.0
4040,E5,525.0,0.5,100,127.0
4041,C#1,525.5,497/200,100,127.0
4042,E5,525.5,331/500,100,127.0
4043,A3,525.5,1.0,100,127.0
4044,C2,525.5,1.0,100,127.0
4045,C#5,526.167,167/1000,100,127.0
4046,G#4,526.333,167/1000,100,127.0
4047,C#5,526.5,0.25,100,127.0
4048,B-2,526.5,1.0,100,127.0
4049,G#2,526.5,1.5,90,127.0
4050,E-3,526.5,1.5,90,127.0
4051,G#3,526.5,1.5,90,127.0
4052,E5,526.75,0.25,100,127.0
4053,C#5,527.0,0.25,100,127.0
4054,C2,527.0,0.5,100,127.0
4055,G#4,527.25,0.25,100,127.0
4056,E4,527.5,167/1000,100,127.0
4057,E2,527.5,0.5,100,127.0
4058,B-2,527.5,1.0,100,127.0
4059,E-5,527.667,167/1000,100,127.0
4060,F#5,527.833,167/1000,100,127.0
4061,G#1,528.0,1.5,100,127.0
4062,E-5,528.0,0.125,100,127.0
4063,A2,528.0,2.5,90,127.0
4064,A3,528.0,2.5,90,127.0
4065,E3,528.0,2.5,90,127.0
4066,G#4,528.125,0.125,100,127.0
4067,E4,528.25,0.125,100,127.0
4068,C#5,528.375,0.125,100,127.0
4069,E5,528.5,0.125,100,127.0
4070,B-2,528.5,1.0,100,127.0
4071,C#5,528.625,0.125,100,127.0
4072,G#4,528.75,0.125,100,127.0
4073,E4,528.875,0.125,100,127.0
4074,E-5,529.0,0.125,100,127.0
4075,C2,529.0,0.5,100,127.0
4076,F#5,529.125,0.125,100,127.0
4077,E-5,529.25,0.125,100,127.0
4078,G#4,529.375,0.125,100,127.0
4079,A1,529.5,297/200,100,127.0
4080,G#1,529.5,3/200,100,127.0
4081,E4,529.5,0.25,100,127.0
4082,C2,529.5,3/200,100,127.0
4083,C2,529.5,1.0,100,127.0
4084,G3,529.5,1.0,100,127.0
4085,G#5,529.75,0.25,100,127.0
4086,C#5,530.0,167/1000,100,127.0
4087,G#4,530.125,0.125,100,127.0
4088,E-5,530.25,0.125,100,127.0
4089,F#5,530.375,0.125,100,127.0
4090,E-5,530.5,0.125,100,127.0
4091,B-2,530.5,1.0,100,127.0
4092,E3,530.5,1.5,90,127.0
4093,B3,530.5,1.5,90,127.0
4094,C#5,530.625,0.125,100,127.0
4095,G#4,530.75,0.125,100,127.0
4096,E5,530.875,0.125,100,127.0
4097,C#2,531.0,1.5,100,127.0
4098,G#5,531.0,167/1000,100,127.0
4099,C2,531.0,0.5,100,127.0
4100,E5,531.167,167/1000,100,127.0
4101,C#5,531.333,167/1000,100,127.0
4102,G#4,531.5,0.125,100,127.0
4103,E2,531.5,83/1000,86,127.0
4104,E2,531.583,83/1000,86,127.0
4105,F#5,531.625,0.125,100,127.0
4106,A5,531.75,0.125,100,127.0
4107,F#5,531.875,0.125,100,127.0
4108,E-5,532.0,27/200,100,127.0
4109,E-3,532.0,2.5,90,127.0
4110,B3,532.0,2.5,90,127.0
4111,C2,532.0,0.5,100,127.0
4112,C#3,532.0,0.5,100,127.0
4113,G#4,532.125,321/1000,100,127.0
4114,B1,532.5,497/200,100,127.0
4115,C#2,532.5,3/200,100,127.0
4116,A5,532.5,297/200,100,127.0
4117,C2,532.5,1.0,100,127.0
4118,C#3,532.5,1.0,100,127.0
4119,B-2,533.5,1.0,100,127.0
4120,A5,534.0,0.25,100,127.0
4121,C2,534.0,0.5,100,127.0
4122,G#5,534.25,0.25,100,127.0
4123,F#5,534.5,2.0,100,127.0
4124,B-2,534.5,1.0,100,127.0
4125,C2,534.5,0.5,100,127.0
4126,B2,534.5,1.5,90,127.0
4127,F#3,534.5,1.5,90,127.0
4128,B3,534.5,1.5,90,127.0
4129,E1,535.0,1.5,100,127.0
4130,B-2,535.5,1.0,100,127.0
4131,E2,535.5,97/200,100,127.0
4132,F#1,536.5,297/200,100,127.0
4133,E1,536.5,3/200,100,127.0
4134,E5,536.5,0.25,100,127.0
4135,B-2,536.5,1.0,100,127.0
4136,B2,536.5,0.5,90,127.0
4137,F#3,536.5,0.5,90,127.0
4138,B3,536.5,0.5,90,127.0
4139,E-5,536.75,0.25,100,127.0
4140,C#5,537.0,167/1000,100,127.0
4141,C2,537.0,0.5,100,127.0
4142,A2,537.0,1.5,90,127.0
4143,A3,537.0,1.5,90,127.0
4144,E3,537.0,1.5,90,127.0
4145,B4,537.167,167/1000,100,127.0
4146,B5,537.333,167/1000,100,127.0
4147,F#5,537.5,167/1000,100,127.0
4148,B-2,537.5,1.0,100,127.0
4149,C2,537.5,0.5,100,127.0
4150,E-5,537.667,167/1000,100,127.0
4151,B4,537.833,167/1000,100,127.0
4152,G#1,538.0,1.5,100,127.0
4153,F#4,538.0,0.125,100,127.0
4154,E2,538.0,1.0,100,127.0
4155,B4,538.125,0.125,100,127.0
4156,F#4,538.25,0.125,100,127.0
4157,E-4,538.375,0.125,100,127.0
4158,G#2,538.5,0.5,90,127.0
4159,B3,538.5,0.125,100,127.0
4160,B-2,538.5,1.0,100,127.0
4161,F#3,538.625,0.125,100,127.0
4162,B3,538.75,0.125,100,127.0
4163,F#3,538.875,0.125,100,127.0
4164,F#2,539.0,0.5,90,127.0
4165,E-3,539.0,0.25,100,127.0
4166,C2,539.0,0.5,100,127.0
4167,B2,539.25,0.25,100,127.0
4168,E2,539.5,1.0,90,127.0
4169,B1,539.5,1.0,100,127.0
4170,F#2,539.5,1.0,100,127.0
4171,E2,539.5,83/1000,86,127.0
4172,E2,539.583,83/1000,86,127.0
4173,C2,540.0,0.5,100,127.0
4174,A3,540.0,0.5,100,127.0
4175,A1,540.5,3.0,100,127.0
4176,E3,540.5,297/200,100,127.0
4177,C#3,540.5,2.5,90,127.0
4178,C#4,540.5,2.5,90,127.0
4179,G#3,540.5,2.5,90,127.0
4180,C2,540.5,1.0,100,127.0
4181,C#3,540.5,1.0,100,127.0
4182,E3,541.5,1.0,100,127.0
4183,C#3,542.0,0.5,100,127.0
4184,C2,542.0,0.5,100,127.0
4185,E3,542.5,0.5,100,127.0
4186,E3,542.5,1.0,100,127.0
4187,E2,542.5,0.5,100,127.0
4188,F#3,543.0,0.5,100,127.0
4189,G#2,543.0,1.5,90,127.0
4190,E-3,543.0,1.5,90,127.0
4191,G#3,543.0,1.5,90,127.0
4192,A1,543.5,1.0,100,127.0
4193,G#3,543.5,0.5,100,127.0
4194,E3,543.5,1.0,100,127.0
4195,F#3,544.0,0.5,100,127.0
4196,C2,544.0,0.5,100,127.0
4197,B1,544.5,2.0,100,127.0
4198,F#3,544.5,1.5,100,127.0
4199,A2,544.5,1.5,90,127.0
4200,E3,544.5,1.5,90,127.0
4201,A3,544.5,1.5,90,127.0
4202,C2,544.5,1.0,100,127.0
4203,A3,544.5,1.0,100,127.0
4204,E3,544.5,1.0,100,127.0
4205,E3,545.5,1.0,100,127.0
4206,E3,546.0,0.5,100,127.0
4207,C2,546.0,0.5,100,127.0
4208,C#3,546.0,1.5,90,127.0
4209,C#4,546.0,1.5,90,127.0
4210,G#3,546.0,1.5,90,127.0
4211,B1,546.5,2.0,83,127.0
4212,E-3,546.5,0.25,100,127.0
4213,E3,546.5,1.0,100,127.0
4214,E2,546.5,0.5,100,127.0
4215,C#3,546.75,0.25,100,127.0
4216,B2,547.0,1.5,100,127.0
4217,E3,547.5,1.0,100,127.0
4218,B2,547.5,2.5,90,127.0
4219,B3,547.5,2.5,90,127.0
4220,F#3,547.5,2.5,90,127.0
4221,C2,548.0,0.5,100,127.0
4222,G#1,548.5,1.5,100,127.0
4223,E-5,548.5,1.5,100,127.0
4224,B2,548.5,3/200,100,127.0
4225,E2,548.5,83/1000,86,127.0
4226,E2,548.583,83/1000,86,127.0
4227,C2,549.0,0.5,100,127.0
4228,C2,549.5,0.5,100,127.0
4229,E2,550.0,1.5,90,127.0
4230,G#1,550.0,1.5,100,127.0
4231,E5,550.0,1.5,100,127.0
4232,E2,550.0,0.5,100,127.0
4233,A3,550.0,0.5,100,127.0
4234,F#2,551.5,1.5,90,127.0
4235,A1,551.5,5.0,100,127.0
4236,B4,551.5,2.5,100,127.0
4237,C#3,551.5,1.0,100,127.0
4238,C2,551.5,1.0,100,127.0
4239,E3,552.5,1.0,100,127.0
4240,G#2,553.0,1.5,90,127.0
4241,C2,553.0,0.5,100,127.0
4242,E3,553.5,1.0,100,127.0
4243,C2,553.5,0.5,100,127.0
4244,B4,554.0,0.25,100,127.0
4245,A4,554.25,0.25,100,127.0
4246,B2,554.5,0.5,90,127.0
4247,B4,554.5,0.5,100,127.0
4248,E3,554.5,1.0,100,127.0
4249,E2,554.5,0.5,100,127.0
4250,G#2,555.0,0.5,90,127.0
4251,E4,555.0,167/1000,100,127.0
4252,A4,555.167,167/1000,100,127.0
4253,C#4,555.333,167/1000,100,127.0
4254,E4,555.5,167/1000,100,127.0
4255,E3,555.5,1.0,100,127.0
4256,A2,555.5,4.0,90,127.0
4257,E3,555.5,4.0,90,127.0
4258,A3,555.5,4.0,90,127.0
4259,A3,555.663,83/1000,100,127.0
4260,B-3,555.746,83/1000,100,127.0
4261,B3,555.829,83/1000,100,127.0
4262,C#4,555.917,83/1000,100,127.0
4263,E3,556.0,0.25,100,127.0
4264,C2,556.0,0.5,100,127.0
4265,C#4,556.25,0.25,100,127.0
4266,F#1,556.5,2.5,100,127.0
4267,B3,556.5,297/200,100,127.0
4268,C#3,556.5,1.0,100,127.0
4269,C2,556.5,1.0,100,127.0
4270,E3,557.5,1.0,100,127.0
4271,B3,558.0,0.125,100,127.0
4272,C2,558.0,0.5,100,127.0
4273,C#4,558.125,0.125,100,127.0
4274,A3,558.25,0.125,100,127.0
4275,A4,558.375,0.125,100,127.0
4276,B4,558.5,323/1000,100,127.0
4277,E3,558.5,1.0,100,127.0
4278,E2,558.5,0.5,100,127.0
4279,E5,558.75,0.125,100,127.0
4280,A5,558.875,0.125,100,127.0
4281,F#1,559.0,0.5,100,127.0
4282,C#6,559.0,0.125,100,127.0
4283,E6,559.125,1.375,100,127.0
4284,F#1,559.5,1.0,90,127.0
4285,E3,559.5,1.0,100,127.0
4286,B2,559.5,4.0,90,127.0
4287,F#3,559.5,4.0,90,127.0
4288,B3,559.5,4.0,90,127.0
4289,C2,560.0,0.5,100,127.0
4290,G#1,560.5,2.0,100,127.0
4291,E6,560.5,123/500,100,127.0
4292,C2,560.5,1.0,100,127.0
4293,A3,560.5,1.0,100,127.0
4294,E3,560.5,1.0,100,127.0
4295,F#6,560.75,879/500,100,127.0
4296,E3,561.5,1.0,100,127.0
4297,C2,562.0,0.5,100,127.0
4298,G#1,562.5,2.0,90,127.0
4299,B5,562.5,2.0,100,127.0
4300,E3,562.5,1.0,100,127.0
4301,E2,562.5,0.5,100,127.0
4302,E3,563.5,1.0,100,127.0
4303,G#3,563.5,297/200,90,127.0
4304,E-3,563.5,297/200,90,127.0
4305,G#2,563.5,297/200,90,127.0
4306,C2,564.0,0.5,100,127.0
4307,A1,564.5,0.5,100,127.0
4308,A5,564.5,0.5,100,127.0
4309,C2,564.5,1.0,100,127.0
4310,C#3,564.5,1.0,100,127.0
4311,E2,565.0,0.5,100,127.0
4312,B5,565.0,0.5,100,127.0
4313,G#3,565.0,1.5,90,127.0
4314,E-3,565.0,1.5,90,127.0
4315,G#2,565.0,1.5,90,127.0
4316,A2,565.5,2.0,100,127.0
4317,C#6,565.5,0.5,100,127.0
4318,E3,565.5,1.0,100,127.0
4319,C#5,566.0,1.0,100,127.0
4320,E2,566.0,0.5,100,127.0
4321,E3,566.5,1.0,100,127.0
4322,A3,566.5,5.0,90,127.0
4323,E3,566.5,5.0,90,127.0
4324,A2,566.5,5.0,90,127.0
4325,E-5,567.0,0.25,100,127.0
4326,C2,567.0,0.5,100,127.0
4327,E5,567.25,0.25,100,127.0
4328,B2,567.5,1.0,100,127.0
4329,E5,567.5,1.0,100,127.0
4330,E3,567.5,1.0,100,127.0
4331,C2,567.5,0.5,100,127.0
4332,B1,568.0,0.5,75,127.0
4333,B2,568.5,1.0,100,127.0
4334,B1,568.5,0.5,75,127.0
4335,E5,568.5,297/200,100,127.0
4336,C2,568.5,1.0,100,127.0
4337,E3,568.5,1.0,100,127.0
4338,B1,569.0,103/200,75,127.0
4339,A2,569.5,97/200,100,127.0
4340,E3,569.5,1.0,100,127.0
4341,B2,570.0,0.5,93,127.0
4342,E5,570.0,0.5,100,127.0
4343,C2,570.0,0.5,100,127.0
4344,B2,570.5,0.5,96,127.0
4345,E-5,570.5,0.25,100,127.0
4346,E3,570.5,1.0,100,127.0
4347,E2,570.5,0.5,100,127.0
4348,C#5,570.75,0.25,100,127.0
4349,B2,571.0,0.5,92,127.0
4350,B4,571.0,1.5,100,127.0
4351,E2,571.25,0.25,100,127.0
4352,B2,571.5,0.5,97,127.0
4353,E2,571.5,97/200,100,127.0
4354,F#2,571.5,4.0,90,127.0
4355,C#3,571.5,4.0,90,127.0
4356,F#3,571.5,4.0,90,127.0
4357,B2,572.0,0.5,92,127.0
4358,C2,572.0,0.5,100,127.0
4359,C#3,572.0,0.5,100,127.0
4360,B2,572.5,0.5,100,127.0
4361,E4,572.5,297/200,100,127.0
4362,B4,572.5,3/200,100,127.0
4363,C2,572.5,1.0,100,127.0
4364,C#3,572.5,1.0,100,127.0
4365,A2,573.0,0.5,100,127.0
4366,A1,573.5,0.5,100,127.0
4367,E3,573.5,1.0,100,127.0
4368,A1,574.0,0.5,100,127.0
4369,C#4,574.0,0.5,100,127.0
4370,C2,574.0,0.5,100,127.0
4371,A1,574.5,1.5,90,127.0
4372,E4,574.5,0.5,100,127.0
4373,E3,574.5,1.0,100,127.0
4374,E2,574.5,0.5,100,127.0
4375,F#4,575.0,0.5,100,127.0
4376,F#4,575.5,0.5,100,127.0
4377,E3,575.5,1.0,100,127.0
4378,G#3,575.5,4.0,90,127.0
4379,E-3,575.5,4.0,90,127.0
4380,G#2,575.5,4.0,90,127.0
4381,A1,576.0,0.5,90,127.0
4382,F#4,576.0,0.5,100,127.0
4383,C2,576.0,0.5,100,127.0
4384,B1,576.5,1.5,100,127.0
4385,F#4,576.5,297/200,100,127.0
4386,C2,576.5,1.0,100,127.0
4387,A3,576.5,1.0,100,127.0
4388,E3,576.5,1.0,100,127.0
4389,E3,577.5,1.0,100,127.0
4390,B1,578.0,0.5,80,127.0
4391,E4,578.0,103/200,100,127.0
4392,C2,578.0,0.5,100,127.0
4393,B1,578.5,297/200,80,127.0
4394,E-4,578.5,0.25,100,127.0
4395,E3,578.5,1.0,100,127.0
4396,E2,578.5,0.5,100,127.0
4397,C#4,578.75,0.25,100,127.0
4398,B3,579.0,1.5,100,127.0
4399,E3,579.5,1.0,100,127.0
4400,A2,579.5,3.0,90,127.0
4401,E3,579.5,3.0,90,127.0
4402,A3,579.5,3.0,90,127.0
4403,B1,580.0,0.5,90,127.0
4404,C2,580.0,0.5,100,127.0
4405,G#1,580.5,1.5,100,127.0
4406,E-4,580.5,0.375,100,127.0
4407,B3,580.5,3/200,100,127.0
4408,E2,580.5,0.5,100,127.0
4409,G3,580.5,0.5,100,127.0
4410,B4,580.875,0.125,100,127.0
4411,E-3,581.0,0.25,100,127.0
4412,C2,581.0,0.5,100,127.0
4413,G#3,581.25,0.125,100,127.0
4414,B3,581.375,0.125,100,127.0
4415,E-4,581.5,0.25,100,127.0
4416,C2,581.5,0.5,100,127.0
4417,B4,581.75,0.125,100,127.0
4418,G#4,581.875,0.125,100,127.0
4419,G#1,582.0,1.5,100,127.0
4420,E-4,582.0,0.125,100,127.0
4421,E2,582.0,0.5,100,127.0
4422,A3,582.0,0.5,100,127.0
4423,B3,582.125,0.125,100,127.0
4424,E-4,582.25,0.125,100,127.0
4425,G#4,582.375,0.125,100,127.0
4426,E-5,582.5,167/1000,100,127.0
4427,C2,582.5,0.5,100,127.0
4428,B2,582.5,1.0,90,127.0
4429,B3,582.5,1.0,90,127.0
4430,F#3,582.5,1.0,90,127.0
4431,B4,582.667,167/1000,100,127.0
4432,G#4,582.833,167/1000,100,127.0
4433,B4,583.0,0.125,100,127.0
4434,C2,583.0,0.5,100,127.0
4435,E-5,583.125,0.125,100,127.0
4436,G#5,583.25,0.25,100,127.0
4437,A1,583.5,3.0,100,127.0
4438,G#1,583.5,3/200,100,127.0
4439,G#5,583.5,1.75,100,127.0
4440,E2,583.5,0.5,100,127.0
4441,G3,583.5,0.5,100,127.0
4442,E2,584.25,0.25,100,127.0
4443,E2,584.5,0.25,100,127.0
4444,B-2,585.0,61/125,100,127.0
4445,C2,585.0,61/125,100,127.0
4446,F#5,585.25,0.25,100,127.0
4447,E5,585.5,0.25,100,127.0
4448,F#2,585.5,0.25,40,127.0
4449,E4,585.75,0.125,100,127.0
4450,E2,585.75,0.25,100,127.0
4451,G#4,585.875,271/1000,100,127.0
4452,E2,586.0,0.25,100,127.0
4453,F#4,586.125,0.125,100,127.0
4454,E4,586.25,0.25,100,127.0
4455,A1,586.5,297/200,100,127.0
4456,E4,586.5,0.125,100,127.0
4457,C2,586.5,64/125,100,127.0
4458,A3,586.5,64/125,100,127.0
4459,F#4,586.625,0.125,100,127.0
4460,G#4,586.75,0.125,100,127.0
4461,A4,586.875,0.25,100,127.0
4462,E5,587.125,0.125,100,127.0
4463,F#5,587.25,0.125,100,127.0
4464,E2,587.25,0.25,100,127.0
4465,G#5,587.375,0.125,100,127.0
4466,A5,587.5,167/1000,100,127.0
4467,E2,587.5,0.25,100,127.0
4468,B2,587.5,4.0,90,127.0
4469,B3,587.5,4.0,90,127.0
4470,F#3,587.5,4.0,90,127.0
4471,B5,587.667,167/1000,100,127.0
4472,C#6,587.833,167/1000,100,127.0
4473,G#1,588.0,0.5,80,127.0
4474,E-6,588.0,167/1000,100,127.0
4475,C2,588.0,0.5,100,127.0
4476,C#3,588.0,0.5,100,127.0
4477,E6,588.167,333/1000,100,127.0
4478,F#1,588.5,3.0,100,127.0
4479,E6,588.5,2.0,100,127.0
4480,C#3,588.5,1.0,100,127.0
4481,C2,588.5,1.0,100,127.0
4482,F#3,588.5,4.0,100,127.0
4483,F#4,588.5,4.0,100,127.0
4484,C#4,588.5,4.0,100,127.0
4485,E3,589.5,1.0,100,127.0
4486,C2,590.0,0.5,100,127.0
4487,C#6,590.5,297/200,100,127.0
4488,E3,590.5,1.0,100,127.0
4489,E2,590.5,0.5,100,127.0
4490,A4,590.5,2.0,100,127.0
4491,F#2,591.0,1.5,60,127.0
4492,F#1,591.5,1.0,70,127.0
4493,E3,591.5,1.0,100,127.0
4494,A3,591.5,4.0,90,127.0
4495,E3,591.5,4.0,90,127.0
4496,A2,591.5,4.0,90,127.0
4497,E-6,592.0,0.25,100,127.0
4498,C2,592.0,0.5,100,127.0
4499,E6,592.25,0.25,100,127.0
4500,E1,592.5,4.0,100,127.0
4501,F#2,592.5,3/200,60,127.0
4502,F#6,592.5,3729/1000,100,127.0
4503,C2,592.5,1.0,100,127.0
4504,A3,592.5,1.0,100,127.0
4505,E3,592.5,1.0,100,127.0
4506,G#4,592.5,4.0,100,127.0
4507,E4,592.5,4.0,100,127.0
4508,B3,592.5,4.0,100,127.0
4509,E5,592.5,4.0,100,127.0
4510,E3,593.5,1.0,100,127.0
4511,C2,594.0,0.5,100,127.0
4512,E2,594.5,83/1000,86,127.0
4513,E2,594.583,83/1000,86,127.0
4514,C3,595.0,0.5,100,127.0
4515,B2,595.5,0.5,100,127.0
4516,B2,595.5,4.0,90,127.0
4517,F#3,595.5,4.0,90,127.0
4518,B3,595.5,4.0,90,127.0
4519,E6,596.25,0.25,100,127.0
4520,A1,596.5,2.0,90,127.0
4521,G6,596.5,4.0,90,127.0
4522,C2,596.5,1.0,100,127.0
4523,C#3,596.5,1.0,100,127.0
4524,E4,596.5,4.0,100,127.0
4525,A4,596.5,4.0,100,127.0
4526,E5,596.5,4.0,100,127.0
4527,E2,598.5,0.5,84,127.0
4528,B-2,598.5,1.0,100,127.0
4529,A2,599.0,0.5,84,127.0
4530,D3,599.5,0.5,84,127.0
4531,G#3,599.5,297/200,90,127.0
4532,E-3,599.5,297/200,90,127.0
4533,G#2,599.5,297/200,90,127.0
4534,E3,600.0,0.5,84,127.0
4535,E3,600.5,4.0,84,127.0
4536,G6,600.5,1.0,90,127.0
4537,G#3,601.0,1.5,90,127.0
4538,E-3,601.0,1.5,90,127.0
4539,G#2,601.0,1.5,90,127.0
4540,E4,601.5,0.5,100,127.0
4541,E4,601.5,0.5,100,127.0
4542,A4,602.0,0.5,100,127.0
4543,A4,602.0,0.5,100,127.0
4544,E4,602.5,0.5,100,127.0
4545,B-2,602.5,1.0,100,127.0
4546,E4,602.5,0.5,100,127.0
4547,A3,602.5,897/200,90,127.0
4548,E3,602.5,897/200,90,127.0
4549,A2,602.5,897/200,90,127.0
4550,D4,603.0,0.5,100,127.0
4551,D4,603.0,0.5,100,127.0
4552,C4,603.5,0.5,100,127.0
4553,C4,603.5,0.5,100,127.0
4554,E4,604.0,0.5,94,127.0
4555,E4,604.0,0.5,94,127.0
4556,D2,604.5,4.0,94,127.0
4557,E3,604.5,3/200,84,127.0
4558,E4,604.5,3.5,94,127.0
4559,E4,604.5,3.5,94,127.0
4560,C#3,604.5,1.0,80,127.0
4561,C2,604.5,1.0,80,127.0
4562,E4,604.5,4.0,100,127.0
4563,A4,604.5,4.0,100,127.0
4564,E5,604.5,4.0,100,127.0
4565,B-2,606.5,1.0,100,127.0
4566,G#2,607.0,0.5,100,127.0
4567,F#2,607.5,4.0,90,127.0
4568,C#3,607.5,4.0,90,127.0
4569,F#3,607.5,4.0,90,127.0
4570,E4,608.0,0.25,80,127.0
4571,E4,608.0,0.25,80,127.0
4572,D4,608.25,0.25,80,127.0
4573,D4,608.25,0.25,80,127.0
4574,D2,608.5,4.0,94,127.0
4575,A3,608.5,2.0,82,127.0
4576,G#2,608.5,0.5,80,127.0
4577,A3,608.5,2.0,82,127.0
4578,A4,608.5,2.0,100,127.0
4579,D4,608.5,4.0,100,127.0
4580,A3,608.5,4.0,100,127.0
4581,D3,609.167,667/1000,86,127.0
4582,D3,609.833,333/1000,86,127.0
4583,D3,610.167,333/1000,86,127.0
4584,F#3,610.5,0.5,83,127.0
4585,C3,610.5,83/1000,86,127.0
4586,F#3,610.5,0.5,83,127.0
4587,F#4,610.5,2.0,100,127.0
4588,C3,610.583,83/1000,86,127.0
4589,G#2,610.833,333/1000,60,127.0
4590,E3,611.0,0.5,83,127.0
4591,E3,611.0,0.5,83,127.0
4592,B2,611.167,83/1000,86,127.0
4593,B2,611.25,83/1000,86,127.0
4594,D3,611.5,0.5,83,127.0
4595,G#2,611.5,333/1000,60,127.0
4596,D3,611.5,0.5,83,127.0
4597,E2,611.5,4.0,90,127.0
4598,B2,611.5,4.0,90,127.0
4599,E3,611.5,4.0,90,127.0
4600,G2,611.833,333/1000,70,127.0
4601,E3,612.0,0.5,83,127.0
4602,E3,612.0,0.5,83,127.0
4603,G2,612.167,333/1000,70,127.0
4604,B1,612.5,4.0,100,127.0
4605,E3,612.5,4.0,83,127.0
4606,E3,612.5,4.0,83,127.0
4607,C2,612.5,1.0,80,127.0
4608,C#3,612.5,1.0,80,127.0
4609,B-2,614.5,1.0,100,127.0
4610,A3,615.5,4.0,75,127.0
4611,E3,615.5,4.0,75,127.0
4612,A2,615.5,4.0,75,127.0
4613,B1,616.5,4.0,100,127.0
4614,B1,616.5,0.25,85,127.0
4615,E3,616.5,3/200,83,127.0
4616,E3,616.5,3/200,83,127.0
4617,E4,616.5,2.0,100,127.0
4618,E2,616.5,0.5,50,127.0
4619,G2,616.5,0.5,50,127.0
4620,D4,616.5,4.0,100,127.0
4621,A3,616.5,4.0,100,127.0
4622,C#2,616.75,0.25,85,127.0
4623,B2,617.0,167/1000,85,127.0
4624,E2,617.0,0.5,60,127.0
4625,G2,617.0,0.5,60,127.0
4626,C#3,617.167,167/1000,85,127.0
4627,E-3,617.333,167/1000,85,127.0
4628,E3,617.5,0.125,85,127.0
4629,E2,617.5,0.5,70,127.0
4630,G2,617.5,0.5,70,127.0
4631,F#3,617.625,0.125,85,127.0
4632,G#3,617.75,0.125,85,127.0
4633,A3,617.875,0.125,85,127.0
4634,B3,618.0,0.125,85,127.0
4635,E2,618.0,0.5,80,127.0
4636,G2,618.0,0.5,80,127.0
4637,C#4,618.125,0.125,85,127.0
4638,E-4,618.25,0.125,85,127.0
4639,E4,618.375,0.125,85,127.0
4640,F#4,618.5,167/1000,85,127.0
4641,A4,618.5,2.0,100,127.0
4642,E2,618.5,0.5,90,127.0
4643,G2,618.5,0.5,90,127.0
4644,G#4,618.667,167/1000,85,127.0
4645,A4,618.833,167/1000,85,127.0
4646,B4,619.0,0.125,85,127.0
4647,E2,619.0,0.5,100,127.0
4648,G2,619.0,0.5,100,127.0
4649,C#5,619.125,0.125,85,127.0
4650,E-5,619.25,0.125,85,127.0
4651,E5,619.375,0.125,85,127.0
4652,F#5,619.5,167/1000,85,127.0
4653,E2,619.5,83/1000,100,127.0
4654,E2,619.583,83/1000,100,127.0
4655,G#5,619.667,167/1000,85,127.0
4656,A5,619.833,167/1000,85,127.0
4657,B5,620.0,167/1000,85,127.0
4658,C2,620.0,0.5,100,127.0
4659,C#6,620.167,167/1000,85,127.0
4660,E-6,620.333,167/1000,85,127.0
4661,E1,620.5,297/200,100,127.0
4662,E6,620.5,4.0,100,127.0
4663,C2,620.5,1.0,100,127.0
4664,C#3,620.5,1.0,100,127.0
4665,F#4,620.5,4.0,60,127.0
4666,B3,620.5,4.0,60,127.0
4667,F#3,620.5,4.0,60,127.0
4668,F3,621.5,1.0,100,127.0
4669,B1,622.0,103/200,100,127.0
4670,C2,622.0,0.5,100,127.0
4671,E3,622.0,697/200,100,127.0
4672,B2,622.0,697/200,100,127.0
4673,E2,622.0,697/200,100,127.0
4674,E2,622.5,297/200,100,127.0
4675,F3,622.5,1.0,100,127.0
4676,E2,622.5,1.0,100,127.0
4677,F#4,623.0,0.5,100,127.0
4678,G#4,623.5,0.5,100,127.0
4679,F3,623.5,97/200,100,127.0
4680,A3,623.5,4.0,75,127.0
4681,E3,623.5,4.0,75,127.0
4682,A2,623.5,4.0,75,127.0
4683,A1,624.0,0.5,100,127.0
4684,A4,624.0,0.5,100,127.0
4685,C2,624.0,0.5,100,127.0
4686,C#3,624.0,0.5,100,127.0
4687,A1,624.5,0.5,100,127.0
4688,A4,624.5,0.5,100,127.0
4689,F3,624.5,1.0,100,127.0
4690,A1,625.0,0.5,80,127.0
4691,B4,625.0,0.5,100,127.0
4692,E2,625.0,0.5,100,127.0
4693,A1,625.5,97/200,80,127.0
4694,C#5,625.5,0.5,100,127.0
4695,A3,625.5,0.5,100,127.0
4696,E3,625.5,0.5,100,127.0
4697,A2,625.5,0.5,100,127.0
4698,E2,625.5,0.5,100,127.0
4699,F3,625.5,0.5,100,127.0
4700,F#1,626.0,1.0,100,127.0
4701,D5,626.0,1.0,100,127.0
4702,A3,626.0,1.5,100,127.0
4703,E3,626.0,1.5,100,127.0
4704,A2,626.0,1.5,100,127.0
4705,C2,626.0,0.5,100,127.0
4706,A3,626.0,0.5,100,127.0
4707,F#1,627.0,0.5,100,127.0
4708,C#5,627.0,0.5,100,127.0
4709,C2,627.0,103/200,100,127.0
4710,F3,627.0,103/200,100,127.0
4711,A1,627.5,97/200,100,127.0
4712,A4,627.5,1.0,100,127.0
4713,E2,627.5,97/200,100,127.0
4714,D3,627.5,4.0,75,127.0
4715,A3,627.5,4.0,75,127.0
4716,D4,627.5,4.0,75,127.0
4717,D3,627.5,1.0,100,127.0
4718,A3,627.5,1.0,100,127.0
4719,D4,627.5,1.0,100,127.0
4720,C2,628.0,0.5,100,127.0
4721,C2,628.0,0.5,100,127.0
4722,F#2,628.5,0.5,100,127.0
4723,G#1,628.5,297/200,100,127.0
4724,B4,628.5,0.5,100,127.0
4725,C#3,628.5,1.0,100,127.0
4726,C2,628.5,1.0,100,127.0
4727,F#4,628.5,4.0,60,127.0
4728,B3,628.5,4.0,60,127.0
4729,F#3,628.5,4.0,60,127.0
4730,A2,629.0,0.5,100,127.0
4731,E5,629.0,0.5,100,127.0
4732,F3,629.0,1.0,100,127.0
4733,C3,629.5,0.5,100,127.0
4734,D5,629.5,0.5,100,127.0
4735,C2,629.5,0.5,100,127.0
4736,G#2,630.0,297/200,100,127.0
4737,A1,630.0,1.0,100,127.0
4738,C#5,630.0,1.0,100,127.0
4739,E2,630.0,0.5,100,127.0
4740,F3,630.0,1.0,100,127.0
4741,B1,631.0,1.0,100,127.0
4742,B4,631.0,0.5,100,127.0
4743,C2,631.0,103/200,100,127.0
4744,A2,631.5,1.0,100,127.0
4745,A4,631.5,0.5,100,127.0
4746,C2,631.5,0.5,100,127.0
4747,F3,631.5,1.0,100,127.0
4748,C#2,632.0,0.5,100,127.0
4749,E4,632.0,0.5,100,127.0
4750,B2,632.5,1.0,100,127.0
4751,D2,632.5,297/200,100,127.0
4752,C#2,632.5,3/200,100,127.0
4753,F#4,632.5,0.5,100,127.0
4754,C#3,632.5,0.5,100,127.0
4755,C2,632.5,0.5,100,127.0
4756,B4,633.0,0.5,100,127.0
4757,E2,633.0,0.5,100,127.0
4758,C#3,633.5,0.5,100,127.0
4759,A4,633.5,0.5,100,127.0
4760,E2,633.5,0.5,100,127.0
4761,D3,634.0,297/200,100,127.0
4762,C#3,634.0,3/200,100,127.0
4763,E1,634.0,297/200,100,127.0
4764,E4,634.0,2.5,100,127.0
4765,C#3,634.0,1.0,100,127.0
4766,C2,634.0,1.0,100,127.0
4767,F3,635.0,1.0,100,127.0
4768,B1,635.5,103/200,100,127.0
4769,C2,635.5,0.5,100,127.0
4770,D3,635.5,4.0,75,127.0
4771,A3,635.5,4.0,75,127.0
4772,D4,635.5,4.0,75,127.0
4773,E2,635.5,697/200,100,127.0
4774,B2,635.5,697/200,100,127.0
4775,E3,635.5,697/200,100,127.0
4776,E2,636.0,297/200,100,127.0
4777,F3,636.0,1.0,100,127.0
4778,E2,636.0,1.0,100,127.0
4779,F#4,636.5,0.5,100,127.0
4780,G#4,637.0,0.5,100,127.0
4781,F3,637.0,97/200,100,127.0
4782,A1,637.5,0.5,100,127.0
4783,A4,637.5,0.5,100,127.0
4784,C2,637.5,0.5,100,127.0
4785,C#3,637.5,0.5,100,127.0
4786,G#4,637.529,697/200,100,127.0
4787,E4,637.529,697/200,100,127.0
4788,B3,637.529,697/200,100,127.0
4789,E2,637.529,697/200,100,127.0
4790,A1,638.0,0.5,100,127.0
4791,A4,638.0,0.5,100,127.0
4792,A1,638.5,0.5,80,127.0
4793,C2,638.5,0.5,100,127.0
4794,F3,638.5,1.0,100,127.0
4795,B4,638.508,0.5,100,127.0
4796,A1,639.0,0.5,80,127.0
4797,C#5,639.0,0.5,100,127.0
4798,E2,639.0,0.5,100,127.0
4799,A3,639.0,0.5,100,127.0
4800,E3,639.0,0.5,100,127.0
4801,A2,639.0,0.5,100,127.0
4802,D1,639.5,1.0,100,127.0
4803,D5,639.5,1.0,100,127.0
4804,B3,639.5,4.0,75,127.0
4805,F#3,639.5,4.0,75,127.0
4806,B2,639.5,4.0,75,127.0
4807,A3,639.5,1.5,100,127.0
4808,E3,639.5,1.5,100,127.0
4809,A2,639.5,1.5,100,127.0
4810,C2,640.0,103/200,100,127.0
4811,G3,640.0,103/200,100,127.0
4812,E1,640.5,1.0,100,127.0
4813,C#5,640.5,0.5,100,127.0
4814,C2,640.5,0.5,100,127.0
4815,F3,640.5,0.5,100,127.0
4816,D2,641.0,1.0,100,127.0
4817,B4,641.0,0.5,100,127.0
4818,E2,641.0,97/200,100,127.0
4819,C#4,641.029,0.5,100,127.0
4820,E4,641.029,0.5,100,127.0
4821,A3,641.029,0.5,100,127.0
4822,A2,641.029,0.5,100,127.0
4823,F#1,641.5,0.5,100,127.0
4824,F#4,641.5,0.5,100,127.0
4825,C2,641.5,0.5,85,127.0
4826,C#3,641.5,0.5,85,127.0
4827,C#4,641.529,1.5,100,127.0
4828,E4,641.529,1.5,100,127.0
4829,A3,641.529,1.5,100,127.0
4830,A2,641.529,1.5,100,127.0
4831,E2,642.0,1.0,100,127.0
4832,G1,642.0,103/200,100,127.0
4833,G4,642.0,0.5,100,127.0
4834,C2,642.0,97/200,100,127.0
4835,C#3,642.0,97/200,100,127.0
4836,A1,642.5,97/200,100,127.0
4837,F#4,642.5,0.5,100,127.0
4838,C2,642.5,0.5,100,127.0
4839,F3,642.5,1.0,100,127.0
4840,F#2,643.0,0.5,100,127.0
4841,B1,643.0,0.5,100,127.0
4842,E4,643.0,0.5,100,127.0
4843,E2,643.0,97/200,100,127.0
4844,F#4,643.029,2.5,100,127.0
4845,F#2,643.029,2.5,100,127.0
4846,A3,643.029,2.5,100,127.0
4847,D4,643.029,2.5,100,127.0
4848,G2,643.5,0.5,100,127.0
4849,C2,643.5,2.0,100,127.0
4850,C5,643.5,1.0,100,127.0
4851,C2,643.5,0.5,100,127.0
4852,G3,643.5,0.5,100,127.0
4853,A2,644.0,0.5,100,127.0
4854,B2,644.5,0.5,100,127.0
4855,B4,644.5,0.5,100,127.0
4856,C2,644.5,0.5,100,127.0
4857,A4,645.0,0.5,100,127.0
4858,E2,645.0,0.5,100,127.0
4859,F3,645.0,1.0,100,127.0
4860,G3,645.0,2.5,100,127.0
4861,C4,645.0,2.5,100,127.0
4862,C3,645.0,2.5,100,127.0
4863,E1,645.5,0.5,100,127.0
4864,G4,645.5,0.5,100,127.0
4865,C2,645.5,0.5,100,127.0
4866,G#2,645.544,297/200,100,127.0
4867,E4,645.544,297/200,100,127.0
4868,B3,645.544,297/200,100,127.0
4869,G#4,645.544,297/200,100,127.0
4870,F#4,645.544,3/200,100,127.0
4871,F#2,645.544,3/200,100,127.0
4872,A3,645.544,3/200,100,127.0
4873,D4,645.544,3/200,100,127.0
4874,F1,646.0,1.0,100,127.0
4875,A4,646.0,0.25,85,127.0
4876,E2,646.0,83/1000,100,127.0
4877,E2,646.083,83/1000,100,127.0
4878,C5,646.25,0.25,85,127.0
4879,G4,646.5,0.25,85,127.0
4880,C2,646.5,0.5,100,127.0
4881,C5,646.75,0.25,85,127.0
4882,G1,647.0,0.25,100,127.0
4883,F4,647.0,0.25,85,127.0
4884,E2,647.0,0.5,100,127.0
4885,B-2,647.0,0.5,100,127.0
4886,A3,647.044,2.5,100,127.0
4887,E4,647.044,2.5,100,127.0
4888,A4,647.044,2.5,100,127.0
4889,A2,647.044,2.5,100,127.0
4890,C#4,647.044,2.5,100,127.0
4891,C5,647.25,0.25,85,127.0
4892,A1,647.5,0.25,100,127.0
4893,E4,647.5,0.25,85,127.0
4894,B3,647.5,4.0,75,127.0
4895,F#3,647.5,4.0,75,127.0
4896,B2,647.5,4.0,75,127.0
4897,C2,647.5,0.5,75,127.0
4898,F#2,647.5,0.5,75,127.0
4899,C3,647.515,2.0,100,127.0
4900,F3,647.515,2.0,100,127.0
4901,F2,647.515,2.0,100,127.0
4902,G3,647.515,3/200,100,127.0
4903,C4,647.515,3/200,100,127.0
4904,C3,647.515,3/200,100,127.0
4905,C5,647.75,0.25,85,127.0
4906,B1,648.0,2.0,100,127.0
4907,E-4,648.0,2.0,85,127.0
4908,C2,648.0,0.5,100,127.0
4909,C#3,648.0,0.5,100,127.0
4910,C#3,649.0,0.5,100,127.0
4911,C2,649.0,0.5,100,127.0
4912,B3,649.515,2.0,100,127.0
4913,F#3,649.515,2.0,100,127.0
4914,B2,649.515,2.0,100,127.0
4915,D4,649.544,297/200,100,127.0
4916,A3,649.544,297/200,100,127.0
4917,D2,649.544,297/200,100,127.0
4918,F#4,649.544,297/200,100,127.0
4919,A3,649.544,3/200,100,127.0
4920,E4,649.544,3/200,100,127.0
4921,A4,649.544,3/200,100,127.0
4922,A2,649.544,3/200,100,127.0
4923,C#4,649.544,3/200,100,127.0
4924,E1,650.0,697/200,100,127.0
4925,C#3,650.0,1.0,100,127.0
4926,C2,650.0,1.0,100,127.0
4927,B-2,651.0,1.0,100,127.0
4928,E2,651.044,697/200,100,127.0
4929,B3,651.044,697/200,100,127.0
4930,E4,651.044,697/200,100,127.0
4931,G#4,651.044,697/200,100,127.0
4932,E4,651.5,2.5,100,127.0
4933,C2,651.5,0.5,100,127.0
4934,E2,651.515,3.5,90,127.0
4935,B2,651.515,3.5,90,127.0
4936,E3,651.515,3.5,90,127.0
4937,E2,652.0,1.0,100,127.0
4938,B-2,652.0,1.0,100,127.0
4939,B-2,653.0,1.0,100,127.0
4940,A1,653.5,0.5,100,127.0
4941,C2,653.5,0.5,100,127.0
4942,F#4,654.0,0.5,100,127.0
4943,A1,654.0,1.5,100,127.0
4944,B-2,654.0,1.0,100,127.0
4945,G#4,654.5,0.5,100,127.0
4946,E2,654.5,0.5,100,127.0
4947,C#4,654.544,0.5,100,127.0
4948,E4,654.544,0.5,100,127.0
4949,A3,654.544,0.5,100,127.0
4950,A2,654.544,0.5,100,127.0
4951,A4,655.0,0.5,100,127.0
4952,E2,655.0,0.5,100,127.0
4953,B-2,655.0,1.0,100,127.0
4954,A2,655.015,0.5,90,127.0
4955,A3,655.015,0.5,90,127.0
4956,E3,655.015,0.5,90,127.0
4957,C#4,655.044,1.5,100,127.0
4958,E4,655.044,1.5,100,127.0
4959,A3,655.044,1.5,100,127.0
4960,A2,655.044,1.5,100,127.0
4961,A4,655.5,0.5,100,127.0
4962,F#1,655.5,2.5,100,127.0
4963,C2,655.5,0.5,100,127.0
4964,B4,656.0,0.5,100,127.0
4965,B-2,656.0,1.0,100,127.0
4966,C#5,656.5,0.5,100,127.0
4967,C2,656.5,0.5,100,127.0
4968,F#4,656.544,2.5,100,127.0
4969,A3,656.544,2.5,100,127.0
4970,D4,656.544,2.5,100,127.0
4971,D2,656.544,2.5,100,127.0
4972,C#5,657.0,303/200,100,127.0
4973,E2,657.0,97/200,100,127.0
4974,B-2,657.0,1.0,100,127.0
4975,A2,657.015,1.5,90,127.0
4976,A3,657.015,1.5,90,127.0
4977,E3,657.015,1.5,90,127.0
4978,G#1,658.0,297/200,100,127.0
4979,F#1,658.0,3/200,100,127.0
4980,C2,658.0,97/200,100,127.0
4981,B-2,658.0,1.0,100,127.0
4982,A4,658.5,1.0,100,127.0
4983,E2,658.5,0.5,100,127.0
4984,D3,658.515,2.5,90,127.0
4985,A3,658.515,2.5,90,127.0
4986,D4,658.515,2.5,90,127.0
4987,B-2,659.0,1.0,100,127.0
4988,E2,659.0,0.5,100,127.0
4989,E2,659.0,697/200,80,127.0
4990,B3,659.0,697/200,80,127.0
4991,E4,659.0,697/200,80,127.0
4992,G#4,659.0,697/200,80,127.0
4993,B3,659.058,1.5,100,127.0
4994,D4,659.058,1.5,100,127.0
4995,G2,659.058,1.5,100,127.0
4996,G4,659.058,1.5,100,127.0
4997,F#4,659.058,3/200,100,127.0
4998,A3,659.058,3/200,100,127.0
4999,D4,659.058,3/200,100,127.0
5000,D2,659.058,3/200,100,127.0
5001,B4,659.5,0.5,100,127.0
5002,A1,659.5,2.5,100,127.0
5003,C2,659.5,0.5,100,127.0
5004,E5,660.0,0.5,100,127.0
5005,B-2,660.0,1.0,100,127.0
5006,D5,660.5,0.5,100,127.0
5007,E2,660.5,103/200,100,127.0
5008,E4,660.558,2.5,100,127.0
5009,G4,660.558,2.5,100,127.0
5010,C4,660.558,2.5,100,127.0
5011,G3,660.558,2.5,100,127.0
5012,C2,660.558,2.5,100,127.0
5013,C#5,661.0,1.0,100,127.0
5014,B-2,661.0,1.0,100,127.0
5015,E2,661.0,0.5,100,127.0
5016,G#2,661.015,1.5,90,127.0
5017,E-3,661.015,1.5,90,127.0
5018,G#3,661.015,1.5,90,127.0
5019,B4,662.0,0.5,100,127.0
5020,D1,662.0,297/200,100,127.0
5021,A1,662.0,3/200,100,127.0
5022,B-2,662.0,1.0,100,127.0
5023,C2,662.0,97/200,100,127.0
5024,A4,662.5,0.5,100,127.0
5025,E2,662.5,0.5,100,127.0
5026,C#4,662.5,0.5,80,127.0
5027,E4,662.5,0.5,80,127.0
5028,A3,662.5,0.5,80,127.0
5029,A2,662.5,0.5,80,127.0
5030,A2,662.515,2.5,90,127.0
5031,A3,662.515,2.5,90,127.0
5032,E3,662.515,2.5,90,127.0
5033,E4,663.0,0.5,100,127.0
5034,B-2,663.0,1.0,100,127.0
5035,E2,663.0,0.5,100,127.0
5036,C#4,663.0,1.5,80,127.0
5037,E4,663.0,1.5,80,127.0
5038,A3,663.0,1.5,80,127.0
5039,A2,663.0,1.5,80,127.0
5040,C5,663.058,0.25,120,127.0
5041,A4,663.058,0.25,120,127.0
5042,F#4,663.5,0.5,100,127.0
5043,E1,663.5,2.5,100,127.0
5044,C2,663.5,0.5,100,127.0
5045,G4,663.558,0.25,120,127.0
5046,C5,663.558,0.25,120,127.0
5047,B4,664.0,0.5,100,127.0
5048,B-2,664.0,1.0,100,127.0
5049,F4,664.058,0.25,120,127.0
5050,C5,664.058,0.25,120,127.0
5051,A4,664.5,0.5,100,127.0
5052,C2,664.5,103/200,100,127.0
5053,F#4,664.5,2.5,80,127.0
5054,F#2,664.5,2.5,80,127.0
5055,A3,664.5,2.5,80,127.0
5056,D4,664.5,2.5,80,127.0
5057,E4,664.558,0.25,120,127.0
5058,C5,664.558,0.25,120,127.0
5059,G#4,665.0,0.125,100,127.0
5060,B-2,665.0,1.0,100,127.0
5061,E2,665.0,0.5,100,127.0
5062,D3,665.015,1.5,90,127.0
5063,A3,665.015,1.5,90,127.0
5064,D4,665.015,1.5,90,127.0
5065,E-4,665.058,2.0,120,127.0
5066,A4,665.125,0.125,100,127.0
5067,G#4,665.25,2.25,100,127.0
5068,E2,665.5,0.25,100,127.0
5069,E2,665.75,0.25,100,127.0
5070,E1,666.0,697/200,100,127.0
5071,C2,666.0,1.0,100,127.0
5072,C#3,666.0,1.0,100,127.0
5073,E3,666.515,2.5,90,127.0
5074,B3,666.515,2.5,90,127.0
5075,E4,666.515,2.5,90,127.0
5076,B-2,667.0,1.0,100,127.0
5077,G#2,667.015,297/200,80,127.0
5078,E4,667.015,297/200,80,127.0
5079,B3,667.015,297/200,80,127.0
5080,G#4,667.015,297/200,80,127.0
5081,F#4,667.015,3/200,80,127.0
5082,F#2,667.015,3/200,80,127.0
5083,A3,667.015,3/200,80,127.0
5084,D4,667.015,3/200,80,127.0
5085,E2,667.058,697/200,80,127.0
5086,B3,667.058,697/200,80,127.0
5087,E4,667.058,697/200,80,127.0
5088,G#4,667.058,697/200,80,127.0
5089,A4,667.5,0.5,100,127.0
5090,C2,667.5,0.5,100,127.0
5091,B4,668.0,0.5,100,127.0
5092,E2,668.0,1.0,100,127.0
5093,B-2,668.0,1.0,100,127.0
5094,C#5,668.5,0.5,100,127.0
5095,A3,668.515,2.5,80,127.0
5096,E4,668.515,2.5,80,127.0
5097,A4,668.515,2.5,80,127.0
5098,A2,668.515,2.5,80,127.0
5099,C#4,668.515,2.5,80,127.0
5100,C#5,669.0,0.5,100,127.0
5101,B-2,669.0,1.0,100,127.0
5102,E3,669.015,3.5,90,127.0
5103,B2,669.015,3.5,90,127.0
5104,E2,669.015,3.5,90,127.0
5105,A1,669.5,0.5,100,127.0
5106,C2,669.5,0.5,100,127.0
5107,D5,669.508,0.5,100,127.0
5108,E5,670.0,0.5,100,127.0
5109,A1,670.0,1.5,100,127.0
5110,B-2,670.0,1.0,100,127.0
5111,E5,670.5,1.0,100,127.0
5112,E2,670.5,0.5,100,127.0
5113,C#4,670.558,0.5,80,127.0
5114,E4,670.558,0.5,80,127.0
5115,A3,670.558,0.5,80,127.0
5116,A2,670.558,0.5,80,127.0
5117,E2,671.0,0.5,100,127.0
5118,B-2,671.0,1.0,100,127.0
5119,D4,671.015,1.5,80,127.0
5120,F#4,671.015,1.5,80,127.0
5121,A4,671.015,1.5,80,127.0
5122,D2,671.015,1.5,80,127.0
5123,A3,671.015,3/200,80,127.0
5124,E4,671.015,3/200,80,127.0
5125,A4,671.015,3/200,80,127.0
5126,A2,671.015,3/200,80,127.0
5127,C#4,671.015,3/200,80,127.0
5128,C#4,671.058,1.5,80,127.0
5129,E4,671.058,1.5,80,127.0
5130,A3,671.058,1.5,80,127.0
5131,A2,671.058,1.5,80,127.0
5132,E5,671.5,0.5,100,127.0
5133,F#1,671.5,2.5,100,127.0
5134,C2,671.5,0.5,100,127.0
5135,D5,672.0,0.5,100,127.0
5136,B-2,672.0,1.0,100,127.0
5137,A4,672.5,0.5,100,127.0
5138,E2,672.5,0.5,100,127.0
5139,A2,672.515,0.5,90,127.0
5140,A3,672.515,0.5,90,127.0
5141,E3,672.515,0.5,90,127.0
5142,E2,672.515,2.5,80,127.0
5143,B4,672.515,2.5,80,127.0
5144,G#4,672.515,2.5,80,127.0
5145,E4,672.515,2.5,80,127.0
5146,F#4,672.558,2.5,80,127.0
5147,F#2,672.558,2.5,80,127.0
5148,A3,672.558,2.5,80,127.0
5149,D4,672.558,2.5,80,127.0
5150,B4,673.0,0.5,100,127.0
5151,E2,673.0,97/200,100,127.0
5152,B-2,673.0,1.0,100,127.0
5153,A4,673.5,0.5,100,127.0
5154,G4,674.0,0.5,100,127.0
5155,G#1,674.0,297/200,100,127.0
5156,F#1,674.0,3/200,100,127.0
5157,B-2,674.0,1.0,100,127.0
5158,C2,674.0,97/200,100,127.0
5159,D5,674.5,1.0,100,127.0
5160,E2,674.5,0.5,100,127.0
5161,A2,674.515,1.5,90,127.0
5162,A3,674.515,1.5,90,127.0
5163,E3,674.515,1.5,90,127.0
5164,B-2,675.0,1.0,100,127.0
5165,E2,675.0,0.5,100,127.0
5166,G#4,675.015,697/200,80,127.0
5167,E4,675.015,697/200,80,127.0
5168,B3,675.015,697/200,80,127.0
5169,E2,675.015,697/200,80,127.0
5170,G#2,675.073,297/200,80,127.0
5171,E4,675.073,297/200,80,127.0
5172,B3,675.073,297/200,80,127.0
5173,G#4,675.073,297/200,80,127.0
5174,F#4,675.073,3/200,80,127.0
5175,F#2,675.073,3/200,80,127.0
5176,A3,675.073,3/200,80,127.0
5177,D4,675.073,3/200,80,127.0
5178,D5,675.5,0.5,100,127.0
5179,A1,675.5,2.5,100,127.0
5180,C2,675.5,0.5,100,127.0
5181,C5,676.0,0.5,100,127.0
5182,B-2,676.0,1.0,100,127.0
5183,D3,676.015,2.5,90,127.0
5184,A3,676.015,2.5,90,127.0
5185,D4,676.015,2.5,90,127.0
5186,B4,676.5,0.5,100,127.0
5187,E2,676.5,103/200,100,127.0
5188,A3,676.573,2.5,80,127.0
5189,E4,676.573,2.5,80,127.0
5190,A4,676.573,2.5,80,127.0
5191,A2,676.573,2.5,80,127.0
5192,C#4,676.573,2.5,80,127.0
5193,A4,677.0,0.5,100,127.0
5194,B-2,677.0,1.0,100,127.0
5195,E2,677.0,0.5,100,127.0
5196,B4,677.5,0.5,100,127.0
5197,C5,678.0,0.5,100,127.0
5198,D2,678.0,297/200,100,127.0
5199,A1,678.0,3/200,100,127.0
5200,C#3,678.0,0.5,100,127.0
5201,C2,678.0,0.5,100,127.0
5202,E-5,678.5,0.5,100,127.0
5203,E2,678.5,0.5,100,127.0
5204,G#2,678.515,1.5,90,127.0
5205,E-3,678.515,1.5,90,127.0
5206,G#3,678.515,1.5,90,127.0
5207,C#4,678.515,0.5,80,127.0
5208,E4,678.515,0.5,80,127.0
5209,A3,678.515,0.5,80,127.0
5210,A2,678.515,0.5,80,127.0
5211,E-5,679.0,297/200,100,127.0
5212,E2,679.0,0.5,100,127.0
5213,C#4,679.015,1.5,80,127.0
5214,E4,679.015,1.5,80,127.0
5215,A3,679.015,1.5,80,127.0
5216,A2,679.015,1.5,80,127.0
5217,D4,679.073,1.5,80,127.0
5218,F#4,679.073,1.5,80,127.0
5219,A4,679.073,1.5,80,127.0
5220,D2,679.073,1.5,80,127.0
5221,A3,679.073,3/200,80,127.0
5222,E4,679.073,3/200,80,127.0
5223,A4,679.073,3/200,80,127.0
5224,A2,679.073,3/200,80,127.0
5225,C#4,679.073,3/200,80,127.0
5226,E2,679.5,2.5,100,127.0
5227,C#3,679.5,0.5,100,127.0
5228,C2,679.5,0.5,100,127.0
5229,E2,680.0,0.25,100,127.0
5230,A2,680.015,2.5,90,127.0
5231,A3,680.015,2.5,90,127.0
5232,E3,680.015,2.5,90,127.0
5233,E2,680.25,0.25,100,127.0
5234,B4,680.5,0.125,100,127.0
5235,E2,680.5,0.25,100,127.0
5236,F#4,680.515,2.5,80,127.0
5237,F#2,680.515,2.5,80,127.0
5238,A3,680.515,2.5,80,127.0
5239,D4,680.515,2.5,80,127.0
5240,E2,680.573,2.5,80,127.0
5241,B4,680.573,2.5,80,127.0
5242,G#4,680.573,2.5,80,127.0
5243,E4,680.573,2.5,80,127.0
5244,C5,680.625,0.125,100,127.0
5245,C#5,680.75,0.125,100,127.0
5246,E2,680.75,0.25,100,127.0
5247,D5,680.875,0.125,100,127.0
5248,E5,681.0,0.75,100,127.0
5249,E2,681.0,97/200,100,127.0
5250,E2,681.5,0.25,100,127.0
5251,E2,681.75,0.25,100,127.0
5252,E-5,681.781,83/1000,50,127.0
5253,D5,681.865,83/1000,50,127.0
5254,C#5,681.948,83/1000,50,127.0
5255,E1,682.0,697/200,100,127.0
5256,E2,682.0,3/200,100,127.0
5257,D6,682.0,1.0,100,127.0
5258,E2,682.0,21/1000,100,127.0
5259,C#3,682.0,1.0,100,127.0
5260,C2,682.0,1.0,100,127.0
5261,C5,682.031,83/1000,50,127.0
5262,B4,682.115,83/1000,50,127.0
5263,B-4,682.115,83/1000,50,127.0
5264,A4,682.25,83/1000,50,127.0
5265,B4,682.5,0.5,100,127.0
5266,D3,682.515,1.5,90,127.0
5267,A3,682.515,1.5,90,127.0
5268,D4,682.515,1.5,90,127.0
5269,E5,683.0,0.5,100,127.0
5270,B-2,683.0,1.0,100,127.0
5271,E2,683.0,1.0,100,127.0
5272,G#2,683.029,297/200,80,127.0
5273,E4,683.029,297/200,80,127.0
5274,B3,683.029,297/200,80,127.0
5275,G#4,683.029,297/200,80,127.0
5276,F#4,683.029,3/200,80,127.0
5277,F#2,683.029,3/200,80,127.0
5278,A3,683.029,3/200,80,127.0
5279,D4,683.029,3/200,80,127.0
5280,C#6,683.031,83/1000,50,127.0
5281,G#4,683.073,697/200,80,127.0
5282,E4,683.073,697/200,80,127.0
5283,B3,683.073,697/200,80,127.0
5284,E2,683.073,697/200,80,127.0
5285,C6,683.115,83/1000,50,127.0
5286,B5,683.198,83/1000,50,127.0
5287,B-5,683.281,83/1000,50,127.0
5288,A5,683.365,83/1000,50,127.0
5289,F#5,683.5,0.5,100,127.0
5290,E4,683.5,0.25,100,127.0
5291,G#4,683.75,0.25,100,127.0
5292,G#5,684.0,0.5,100,127.0
5293,B4,684.0,0.25,100,127.0
5294,B-2,684.0,1.0,100,127.0
5295,C2,684.0,0.5,100,127.0
5296,E3,684.015,2.5,90,127.0
5297,B3,684.015,2.5,90,127.0
5298,E4,684.015,2.5,90,127.0
5299,E5,684.25,0.25,100,127.0
5300,A5,684.5,0.5,100,127.0
5301,G#5,684.5,0.25,100,127.0
5302,C2,684.5,0.5,100,127.0
5303,A3,684.529,2.5,80,127.0
5304,E4,684.529,2.5,80,127.0
5305,A4,684.529,2.5,80,127.0
5306,A2,684.529,2.5,80,127.0
5307,C#4,684.529,2.5,80,127.0
5308,B5,684.75,0.25,100,127.0
5309,A5,685.0,0.5,100,127.0
5310,C#6,685.0,0.25,100,127.0
5311,E2,685.0,97/200,100,127.0
5312,B-2,685.0,97/200,100,127.0
5313,D6,685.25,0.25,100,127.0
5314,B5,685.5,0.5,100,127.0
5315,A1,685.5,0.5,100,127.0
5316,D6,685.5,0.5,100,127.0
5317,C2,685.5,0.5,100,127.0
5318,C#3,685.5,0.5,100,127.0
5319,E5,686.0,0.5,100,127.0
5320,A1,686.0,1.5,100,127.0
5321,D6,686.0,0.5,100,127.0
5322,B-2,686.0,1.0,100,127.0
5323,D5,686.5,1.5,100,127.0
5324,D6,686.5,0.5,100,127.0
5325,C2,686.5,0.5,100,127.0
5326,E3,686.515,3.5,90,127.0
5327,B2,686.515,3.5,90,127.0
5328,E2,686.515,3.5,90,127.0
5329,C#4,686.573,0.5,80,127.0
5330,E4,686.573,0.5,80,127.0
5331,A3,686.573,0.5,80,127.0
5332,A2,686.573,0.5,80,127.0
5333,C#6,687.0,0.5,100,127.0
5334,B-2,687.0,1.0,100,127.0
5335,E2,687.0,97/200,100,127.0
5336,D4,687.029,1.5,80,127.0
5337,F#4,687.029,1.5,80,127.0
5338,A4,687.029,1.5,80,127.0
5339,D2,687.029,1.5,80,127.0
5340,A3,687.029,3/200,80,127.0
5341,E4,687.029,3/200,80,127.0
5342,A4,687.029,3/200,80,127.0
5343,A2,687.029,3/200,80,127.0
5344,C#4,687.029,3/200,80,127.0
5345,C#4,687.073,1.5,80,127.0
5346,E4,687.073,1.5,80,127.0
5347,A3,687.073,1.5,80,127.0
5348,A2,687.073,1.5,80,127.0
5349,F#1,687.5,2.5,100,127.0
5350,A5,687.5,0.75,100,127.0
5351,C2,687.5,0.5,100,127.0
5352,A3,687.5,0.5,100,127.0
5353,D5,688.0,0.25,100,127.0
5354,B-2,688.0,1.0,100,127.0
5355,C#5,688.25,0.25,100,127.0
5356,G#5,688.25,0.25,100,127.0
5357,B4,688.5,0.25,100,127.0
5358,F#5,688.5,0.25,100,127.0
5359,C2,688.5,0.5,100,127.0
5360,E2,688.529,2.5,80,127.0
5361,B4,688.529,2.5,80,127.0
5362,G#4,688.529,2.5,80,127.0
5363,E4,688.529,2.5,80,127.0
5364,F#4,688.573,2.5,80,127.0
5365,F#2,688.573,2.5,80,127.0
5366,A3,688.573,2.5,80,127.0
5367,D4,688.573,2.5,80,127.0
5368,A4,688.75,0.25,100,127.0
5369,D5,688.75,0.25,100,127.0
5370,G#5,689.0,0.25,100,127.0
5371,A4,689.0,0.25,100,127.0
5372,B-2,689.0,1.0,100,127.0
5373,E2,689.0,0.5,100,127.0
5374,E5,689.25,0.25,100,127.0
5375,G#4,689.25,0.25,100,127.0
5376,B4,689.5,0.25,100,127.0
5377,F#4,689.5,0.5,100,127.0
5378,G#4,689.75,0.25,100,127.0
5379,E4,690.0,0.25,100,127.0
5380,G#1,690.0,297/200,100,127.0
5381,F#1,690.0,3/200,100,127.0
5382,B4,690.0,0.25,100,127.0
5383,F#4,690.0,3/200,100,127.0
5384,C2,690.0,0.5,100,127.0
5385,C#3,690.0,0.5,100,127.0
5386,A2,690.015,0.5,90,127.0
5387,A3,690.015,0.5,90,127.0
5388,E3,690.015,0.5,90,127.0
5389,G#4,690.25,0.25,100,127.0
5390,G#4,690.25,0.25,100,127.0
5391,B4,690.5,1.0,100,127.0
5392,C#5,690.5,0.25,100,127.0
5393,C2,690.5,0.5,100,127.0
5394,B-2,690.5,0.5,100,127.0
5395,G#4,690.75,0.25,100,127.0
5396,D5,691.0,0.25,100,127.0
5397,E2,691.0,0.5,100,127.0
5398,F#2,691.0,0.5,100,127.0
5399,G#4,691.029,697/200,80,127.0
5400,E4,691.029,697/200,80,127.0
5401,B3,691.029,697/200,80,127.0
5402,E2,691.029,697/200,80,127.0
5403,G#2,691.087,297/200,80,127.0
5404,E4,691.087,297/200,80,127.0
5405,B3,691.087,297/200,80,127.0
5406,G#4,691.087,297/200,80,127.0
5407,F#4,691.087,3/200,80,127.0
5408,F#2,691.087,3/200,80,127.0
5409,A3,691.087,3/200,80,127.0
5410,D4,691.087,3/200,80,127.0
5411,G#4,691.25,0.25,100,127.0
5412,A1,691.5,2.5,100,127.0
5413,D5,691.5,0.75,100,127.0
5414,C2,691.5,0.5,100,127.0
5415,A3,691.5,0.5,100,127.0
5416,B-4,691.531,83/1000,50,127.0
5417,A4,691.615,83/1000,50,127.0
5418,G#4,691.698,83/1000,50,127.0
5419,G4,691.781,83/1000,50,127.0
5420,F#4,691.865,83/1000,50,127.0
5421,B4,692.0,0.25,100,127.0
5422,B-2,692.0,1.0,100,127.0
5423,A2,692.015,1.5,90,127.0
5424,A3,692.015,1.5,90,127.0
5425,E3,692.015,1.5,90,127.0
5426,E5,692.25,0.25,100,127.0
5427,D5,692.25,0.25,100,127.0
5428,G#5,692.5,0.25,100,127.0
5429,C#5,692.5,103/200,100,127.0
5430,C2,692.5,0.5,100,127.0
5431,A3,692.587,2.5,80,127.0
5432,E4,692.587,2.5,80,127.0
5433,A4,692.587,2.5,80,127.0
5434,A2,692.587,2.5,80,127.0
5435,C#4,692.587,2.5,80,127.0
5436,A5,692.75,0.25,100,127.0
5437,B5,693.0,0.25,100,127.0
5438,E4,693.0,0.25,100,127.0
5439,E2,693.0,0.5,100,127.0
5440,B-2,693.0,1.0,100,127.0
5441,G#5,693.25,0.25,100,127.0
5442,D4,693.25,0.25,100,127.0
5443,G#4,693.5,0.25,100,127.0
5444,C#4,693.5,0.5,100,127.0
5445,D3,693.515,2.5,90,127.0
5446,A3,693.515,2.5,90,127.0
5447,D4,693.515,2.5,90,127.0
5448,A4,693.75,0.25,100,127.0
5449,B4,694.0,0.25,100,127.0
5450,D2,694.0,297/200,100,127.0
5451,A1,694.0,3/200,100,127.0
5452,F#4,694.0,0.25,100,127.0
5453,C#4,694.0,3/200,100,127.0
5454,C2,694.0,97/200,100,127.0
5455,C#3,694.0,97/200,100,127.0
5456,G#4,694.25,0.25,100,127.0
5457,G#4,694.25,0.25,100,127.0
5458,G#3,694.5,0.25,100,127.0
5459,A4,694.5,0.25,100,127.0
5460,C2,694.5,0.5,100,127.0
5461,B-2,694.5,1.0,100,127.0
5462,C#4,694.529,0.5,80,127.0
5463,E4,694.529,0.5,80,127.0
5464,A3,694.529,0.5,80,127.0
5465,A2,694.529,0.5,80,127.0
5466,A3,694.75,0.25,100,127.0
5467,F#5,694.75,0.25,100,127.0
5468,B3,695.0,0.25,100,127.0
5469,B5,695.0,0.25,100,127.0
5470,E2,695.0,0.5,100,127.0
5471,C#4,695.029,1.5,80,127.0
5472,E4,695.029,1.5,80,127.0
5473,A3,695.029,1.5,80,127.0
5474,A2,695.029,1.5,80,127.0
5475,D4,695.087,1.5,80,127.0
5476,F#4,695.087,1.5,80,127.0
5477,A4,695.087,1.5,80,127.0
5478,D2,695.087,1.5,80,127.0
5479,A3,695.087,3/200,80,127.0
5480,E4,695.087,3/200,80,127.0
5481,A4,695.087,3/200,80,127.0
5482,A2,695.087,3/200,80,127.0
5483,C#4,695.087,3/200,80,127.0
5484,E3,695.25,0.25,100,127.0
5485,C#6,695.25,0.25,100,127.0
5486,B3,695.5,1.0,100,127.0
5487,E2,695.5,2.5,100,127.0
5488,B5,695.5,189/250,100,127.0
5489,C2,695.5,0.5,100,127.0
5490,A3,695.5,0.5,100,127.0
5491,B-2,696.0,97/200,100,127.0
5492,G#2,696.015,1.5,90,127.0
5493,E-3,696.015,1.5,90,127.0
5494,G#3,696.015,1.5,90,127.0
5495,C#6,696.25,271/1000,100,127.0
5496,D6,696.5,0.25,100,127.0
5497,C2,696.5,103/200,100,127.0
5498,B-2,696.5,103/200,100,127.0
5499,F#4,696.529,2.5,80,127.0
5500,F#2,696.529,2.5,80,127.0
5501,A3,696.529,2.5,80,127.0
5502,D4,696.529,2.5,80,127.0
5503,B-3,696.531,83/1000,50,127.0
5504,E2,696.587,2.5,80,127.0
5505,E4,696.587,2.5,80,127.0
5506,B4,696.587,2.5,80,127.0
5507,G#4,696.587,2.5,80,127.0
5508,A3,696.615,83/1000,50,127.0
5509,G#3,696.698,83/1000,50,127.0
5510,E6,696.75,1.0,100,127.0
5511,G3,696.781,83/1000,50,127.0
5512,F#3,696.865,83/1000,50,127.0
5513,E3,697.0,0.25,100,127.0
5514,E2,697.0,0.25,100,127.0
5515,D4,697.25,0.25,100,127.0
5516,E2,697.25,0.25,100,127.0
5517,B3,697.5,0.25,100,127.0
5518,E2,697.5,0.25,100,127.0
5519,A2,697.515,2.5,90,127.0
5520,A3,697.515,2.5,90,127.0
5521,E3,697.515,2.5,90,127.0
5522,C#4,697.75,0.25,100,127.0
5523,G5,697.75,83/1000,50,127.0
5524,E2,697.75,0.25,100,127.0
5525,F#5,697.833,83/1000,50,127.0
5526,F5,697.917,83/1000,50,127.0
5527,F5,697.917,83/1000,50,127.0
5528,E4,698.0,0.25,100,127.0
5529,E1,698.0,697/200,100,127.0
5530,E2,698.0,3/200,100,127.0
5531,A5,698.0,0.25,100,127.0
5532,C#3,698.0,1.0,100,127.0
5533,C2,698.0,1.0,100,127.0
5534,F#4,698.25,0.25,100,127.0
5535,B5,698.25,0.125,100,127.0
5536,A5,698.375,0.125,100,127.0
5537,G#4,698.5,167/1000,100,127.0
5538,G#5,698.5,0.25,100,127.0
5539,A4,698.667,167/1000,100,127.0
5540,E5,698.75,0.25,100,127.0
5541,G#4,698.833,167/1000,100,127.0
5542,F#4,699.0,0.25,100,127.0
5543,B4,699.0,0.25,100,127.0
5544,B-2,699.0,1.0,100,127.0
5545,E2,699.0,1.0,100,127.0
5546,G#2,699.044,297/200,80,127.0
5547,E4,699.044,297/200,80,127.0
5548,B3,699.044,297/200,80,127.0
5549,G#4,699.044,297/200,80,127.0
5550,F#4,699.044,3/200,80,127.0
5551,F#2,699.044,3/200,80,127.0
5552,A3,699.044,3/200,80,127.0
5553,D4,699.044,3/200,80,127.0
5554,E2,699.087,3.5,80,127.0
5555,G#4,699.087,3.5,80,127.0
5556,E4,699.087,3.5,80,127.0
5557,B3,699.087,3.5,80,127.0
5558,G#4,699.25,0.25,100,127.0
5559,A4,699.25,0.25,100,127.0
5560,A4,699.5,0.25,100,127.0
5561,E5,699.5,0.25,100,127.0
5562,B4,699.75,0.25,100,127.0
5563,A4,699.75,0.25,100,127.0
5564,C#5,700.0,0.25,100,127.0
5565,G#4,700.0,0.25,100,127.0
5566,C2,700.0,0.5,90,127.0
5567,B-2,700.0,0.5,90,127.0
5568,D3,700.015,1.5,90,127.0
5569,A3,700.015,1.5,90,127.0
5570,D4,700.015,1.5,90,127.0
5571,B4,700.25,0.25,100,127.0
5572,A4,700.25,0.125,100,127.0
5573,G#4,700.375,0.125,100,127.0
5574,D5,700.5,0.25,100,127.0
5575,F#4,700.5,0.25,100,127.0
5576,C2,700.5,0.5,95,127.0
5577,B-2,700.5,0.5,95,127.0
5578,A3,700.544,2.5,80,127.0
5579,E4,700.544,2.5,80,127.0
5580,A4,700.544,2.5,80,127.0
5581,A2,700.544,2.5,80,127.0
5582,C#4,700.544,2.5,80,127.0
5583,C#5,700.75,0.25,100,127.0
5584,E4,700.75,0.25,100,127.0
5585,D5,701.0,0.25,100,127.0
5586,G#4,701.0,0.25,100,127.0
5587,E2,701.0,0.5,100,127.0
5588,B-2,701.0,0.5,100,127.0
5589,E5,701.25,0.25,100,127.0
5590,B4,701.25,0.25,100,127.0
5591,D5,701.5,167/1000,100,127.0
5592,A1,701.5,0.5,100,127.0
5593,C#5,701.5,0.5,100,127.0
5594,C2,701.5,0.5,100,127.0
5595,A3,701.5,0.5,100,127.0
5596,E3,701.515,2.5,90,127.0
5597,B3,701.515,2.5,90,127.0
5598,E4,701.515,2.5,90,127.0
5599,C#5,701.667,167/1000,100,127.0
5600,B4,701.833,167/1000,100,127.0
5601,A4,702.0,0.25,100,127.0
5602,A1,702.0,1.5,100,127.0
5603,C#5,702.0,32/125,100,127.0
5604,G#4,702.25,0.25,100,127.0
5605,E4,702.25,0.25,100,127.0
5606,F#4,702.5,0.25,100,127.0
5607,A4,702.5,0.25,100,127.0
5608,C2,702.5,0.5,100,127.0
5609,B-2,702.5,0.5,100,127.0
5610,A2,702.587,0.5,80,127.0
5611,C#4,702.587,0.5,80,127.0
5612,E4,702.587,0.5,80,127.0
5613,A3,702.587,0.5,80,127.0
5614,E4,702.75,0.25,100,127.0
5615,B4,702.75,0.125,100,127.0
5616,C#5,702.875,0.125,100,127.0
5617,D4,703.0,0.25,100,127.0
5618,E5,703.0,0.25,100,127.0
5619,E2,703.0,0.5,100,127.0
5620,F#2,703.0,0.5,100,127.0
5621,D4,703.044,1.5,80,127.0
5622,F#4,703.044,1.5,80,127.0
5623,A4,703.044,1.5,80,127.0
5624,D2,703.044,1.5,80,127.0
5625,A3,703.044,3/200,80,127.0
5626,E4,703.044,3/200,80,127.0
5627,A4,703.044,3/200,80,127.0
5628,A2,703.044,3/200,80,127.0
5629,C#4,703.044,3/200,80,127.0
5630,E4,703.25,0.25,100,127.0
5631,A5,703.25,0.125,100,127.0
5632,C#6,703.375,0.125,100,127.0
5633,C#4,703.5,0.25,100,127.0
5634,F#1,703.5,2.5,100,127.0
5635,D6,703.5,189/250,100,127.0
5636,C2,703.5,0.5,100,127.0
5637,C#3,703.5,0.5,100,127.0
5638,B3,703.75,0.25,100,127.0
5639,A3,704.0,0.25,100,127.0
5640,E3,704.015,3.5,90,127.0
5641,B2,704.015,3.5,90,127.0
5642,E2,704.015,3.5,90,127.0
5643,B3,704.25,0.25,100,127.0
5644,D4,704.25,0.25,100,127.0
5645,G#3,704.5,0.5,100,127.0
5646,E4,704.5,0.25,100,127.0
5647,C2,704.5,0.5,100,127.0
5648,E2,704.544,2.5,80,127.0
5649,B4,704.544,2.5,80,127.0
5650,G#4,704.544,2.5,80,127.0
5651,E4,704.544,2.5,80,127.0
5652,A2,704.587,1.5,80,127.0
5653,C#4,704.587,1.5,80,127.0
5654,E4,704.587,1.5,80,127.0
5655,A3,704.587,1.5,80,127.0
5656,F#4,704.75,0.25,100,127.0
5657,F#3,705.0,0.125,80,127.0
5658,A4,705.0,0.25,100,127.0
5659,E2,705.0,0.5,100,127.0
5660,B-2,705.0,1.0,100,127.0
5661,E3,705.125,379/1000,100,127.0
5662,D5,705.25,0.25,100,127.0
5663,G#3,705.5,0.25,100,127.0
5664,E5,705.5,0.25,100,127.0
5665,E2,705.5,0.25,100,127.0
5666,A3,705.75,0.25,100,127.0
5667,F#5,705.75,0.25,100,127.0
5668,E2,705.75,0.25,100,127.0
5669,C#4,706.0,0.125,100,127.0
5670,G#1,706.0,297/200,100,127.0
5671,F#1,706.0,3/200,100,127.0
5672,G#5,706.0,0.25,100,127.0
5673,C#3,706.0,0.5,100,127.0
5674,C2,706.0,0.5,100,127.0
5675,F#4,706.087,2.5,80,127.0
5676,F#2,706.087,2.5,80,127.0
5677,A3,706.087,2.5,80,127.0
5678,D4,706.087,2.5,80,127.0
5679,E4,706.125,0.375,100,127.0
5680,F#5,706.25,0.25,100,127.0
5681,G#4,706.5,0.25,100,127.0
5682,E5,706.5,167/1000,100,127.0
5683,C2,706.5,0.5,100,127.0
5684,B-2,706.5,0.5,100,127.0
5685,D6,706.667,167/1000,100,127.0
5686,A4,706.75,0.25,100,127.0
5687,C#6,706.833,167/1000,100,127.0
5688,B4,707.0,0.25,100,127.0
5689,B5,707.0,0.25,100,127.0
5690,E2,707.0,0.5,100,127.0
5691,F#2,707.0,0.5,100,127.0
5692,E2,707.044,697/200,80,127.0
5693,B3,707.044,697/200,80,127.0
5694,E4,707.044,697/200,80,127.0
5695,G#4,707.044,697/200,80,127.0
5696,C#5,707.25,0.25,100,127.0
5697,G#5,707.25,0.25,100,127.0
5698,D5,707.5,0.25,100,127.0
5699,A1,707.5,2.0,100,127.0
5700,E5,707.5,0.25,100,127.0
5701,C2,707.5,0.5,100,127.0
5702,A3,707.5,0.5,100,127.0
5703,A2,707.515,0.5,90,127.0
5704,A3,707.515,0.5,90,127.0
5705,E3,707.515,0.5,90,127.0
5706,E5,707.75,0.25,100,127.0
5707,D5,707.75,0.25,100,127.0
5708,D5,708.0,1.0,100,127.0
5709,C#5,708.0,0.25,100,127.0
5710,B-2,708.0,1.0,100,127.0
5711,E5,708.25,0.25,100,127.0
5712,B4,708.5,0.25,100,127.0
5713,C2,708.5,0.5,100,127.0
5714,G#2,708.602,297/200,80,127.0
5715,E4,708.602,297/200,80,127.0
5716,B3,708.602,297/200,80,127.0
5717,G#4,708.602,297/200,80,127.0
5718,F#4,708.602,3/200,80,127.0
5719,F#2,708.602,3/200,80,127.0
5720,A3,708.602,3/200,80,127.0
5721,D4,708.602,3/200,80,127.0
5722,E5,708.75,27/200,100,127.0
5723,A4,708.875,0.125,100,127.0
5724,D5,709.0,0.5,100,127.0
5725,B4,709.0,0.125,100,127.0
5726,E2,709.0,0.5,100,127.0
5727,B-2,709.0,1.0,100,127.0
5728,C#5,709.125,0.25,100,127.0
5729,E4,709.375,0.625,100,127.0
5730,D5,709.5,0.25,100,127.0
5731,D2,709.5,0.5,100,127.0
5732,C2,709.5,0.5,100,127.0
5733,A2,709.515,1.5,90,127.0
5734,A3,709.515,1.5,90,127.0
5735,E3,709.515,1.5,90,127.0
5736,C#5,709.75,0.25,100,127.0
5737,D5,710.0,0.125,100,127.0
5738,D2,710.0,97/200,100,127.0
5739,D5,710.0,0.25,100,127.0
5740,E4,710.0,1/40,100,127.0
5741,C#3,710.0,0.5,100,127.0
5742,C2,710.0,0.5,100,127.0
5743,A3,710.102,2.5,80,127.0
5744,E4,710.102,2.5,80,127.0
5745,A4,710.102,2.5,80,127.0
5746,A2,710.102,2.5,80,127.0
5747,C#4,710.102,2.5,80,127.0
5748,C#5,710.125,0.125,100,127.0
5749,D5,710.25,0.125,100,127.0
5750,F#4,710.25,0.25,100,127.0
5751,C#5,710.375,0.125,100,127.0
5752,B4,710.5,0.25,100,127.0
5753,F#3,710.5,0.5,100,127.0
5754,A4,710.5,0.25,100,127.0
5755,E2,710.5,0.25,100,127.0
5756,C#4,710.544,0.5,80,127.0
5757,E4,710.544,0.5,80,127.0
5758,A3,710.544,0.5,80,127.0
5759,A2,710.544,0.5,80,127.0
5760,G#4,710.75,0.25,100,127.0
5761,D5,710.75,0.25,100,127.0
5762,E2,710.75,0.25,100,127.0
5763,D5,711.0,0.125,100,127.0
5764,D3,711.0,0.5,100,127.0
5765,F#5,711.0,0.25,100,127.0
5766,C#3,711.0,0.5,100,127.0
5767,C2,711.0,0.5,100,127.0
5768,D3,711.015,2.5,90,127.0
5769,A3,711.015,2.5,90,127.0
5770,D4,711.015,2.5,90,127.0
5771,C#4,711.044,1.5,80,127.0
5772,E4,711.044,1.5,80,127.0
5773,A3,711.044,1.5,80,127.0
5774,A2,711.044,1.5,80,127.0
5775,C#5,711.125,0.125,100,127.0
5776,D5,711.25,0.125,100,127.0
5777,D5,711.25,0.25,100,127.0
5778,C#5,711.375,0.125,100,127.0
5779,B4,711.5,0.25,100,127.0
5780,E3,711.5,0.5,100,127.0
5781,E5,711.5,0.25,100,127.0
5782,C#3,711.5,0.5,100,127.0
5783,C2,711.5,0.5,100,127.0
5784,G#4,711.75,0.25,100,127.0
5785,B5,711.75,0.25,100,127.0
5786,E5,712.0,0.25,100,127.0
5787,E3,712.0,0.5,100,127.0
5788,G#5,712.0,0.125,100,127.0
5789,E2,712.0,0.25,100,127.0
5790,A5,712.125,0.125,100,127.0
5791,B5,712.25,0.25,100,127.0
5792,B5,712.25,0.25,100,127.0
5793,E2,712.25,0.25,100,127.0
5794,G#5,712.5,0.125,100,127.0
5795,E3,712.5,0.5,100,127.0
5796,E5,712.5,0.25,100,127.0
5797,C#3,712.5,0.5,100,127.0
5798,C2,712.5,0.5,100,127.0
5799,F#4,712.544,2.5,80,127.0
5800,F#2,712.544,2.5,80,127.0
5801,A3,712.544,2.5,80,127.0
5802,D4,712.544,2.5,80,127.0
5803,D4,712.602,1.5,80,127.0
5804,F#4,712.602,1.5,80,127.0
5805,A4,712.602,1.5,80,127.0
5806,D2,712.602,1.5,80,127.0
5807,A3,712.602,3/200,80,127.0
5808,E4,712.602,3/200,80,127.0
5809,A4,712.602,3/200,80,127.0
5810,A2,712.602,3/200,80,127.0
5811,C#4,712.602,3/200,80,127.0
5812,A5,712.625,0.125,100,127.0
5813,B5,712.75,0.25,100,127.0
5814,B4,712.75,0.25,100,127.0
5815,A5,713.0,1.0,100,127.0
5816,E3,713.0,0.5,100,127.0
5817,G#4,713.0,0.125,100,127.0
5818,E2,713.0,0.25,100,127.0
5819,F#4,713.125,0.125,100,127.0
5820,E4,713.25,0.25,100,127.0
5821,E2,713.25,0.25,100,127.0
5822,E3,713.5,0.5,100,127.0
5823,E5,713.5,0.125,100,127.0
5824,E2,713.5,0.25,100,127.0
5825,G#2,713.515,1.5,90,127.0
5826,E-3,713.515,1.5,90,127.0
5827,G#3,713.515,1.5,90,127.0
5828,B4,713.625,0.125,100,127.0
5829,D5,713.75,0.125,100,127.0
5830,E2,713.75,0.25,100,127.0
5831,F#5,713.875,0.125,100,127.0
5832,E3,714.0,0.5,100,127.0
5833,G#5,714.0,2.0,100,127.0
5834,C#3,714.0,1.0,100,127.0
5835,C2,714.0,729/1000,100,127.0
5836,B-5,714.031,83/1000,50,127.0
5837,E2,714.102,2.5,80,127.0
5838,B4,714.102,2.5,80,127.0
5839,G#4,714.102,2.5,80,127.0
5840,E4,714.102,2.5,80,127.0
5841,A5,714.115,83/1000,50,127.0
5842,G#5,714.198,83/1000,50,127.0
5843,G5,714.281,83/1000,50,127.0
5844,F#5,714.365,83/1000,50,127.0
5845,B3,714.5,0.25,100,127.0
5846,E3,714.5,0.5,100,127.0
5847,E4,714.75,0.25,100,127.0
5848,C2,714.75,0.25,100,127.0
5849,G#4,715.0,0.25,100,127.0
5850,E3,715.0,0.5,100,127.0
5851,E2,715.0,0.5,100,127.0
5852,F3,715.0,0.5,100,127.0
5853,A2,715.015,2.5,90,127.0
5854,A3,715.015,2.5,90,127.0
5855,E3,715.015,2.5,90,127.0
5856,G#2,715.058,297/200,80,127.0
5857,E4,715.058,297/200,80,127.0
5858,B3,715.058,297/200,80,127.0
5859,G#4,715.058,297/200,80,127.0
5860,F#4,715.058,3/200,80,127.0
5861,F#2,715.058,3/200,80,127.0
5862,A3,715.058,3/200,80,127.0
5863,D4,715.058,3/200,80,127.0
5864,B4,715.25,0.25,100,127.0
5865,E5,715.5,0.25,100,127.0
5866,E3,715.5,0.5,100,127.0
5867,C2,715.5,0.5,100,127.0
5868,F3,715.5,0.5,100,127.0
5869,G#5,715.75,0.25,100,127.0
5870,A5,716.0,0.25,100,127.0
5871,E3,716.0,0.5,100,127.0
5872,F#5,716.0,1.0,100,127.0
5873,E2,716.0,0.5,100,127.0
5874,F3,716.0,0.5,100,127.0
5875,B5,716.25,0.25,100,127.0
5876,B5,716.5,0.5,100,127.0
5877,B2,716.5,0.5,100,127.0
5878,F3,716.5,0.5,100,127.0
5879,A3,716.558,2.5,80,127.0
5880,E4,716.558,2.5,80,127.0
5881,A4,716.558,2.5,80,127.0
5882,A2,716.558,2.5,80,127.0
5883,C#4,716.558,2.5,80,127.0
5884,B3,716.602,697/200,80,127.0
5885,E4,716.602,697/200,80,127.0
5886,G#4,716.602,697/200,80,127.0
5887,E2,716.602,697/200,80,127.0
5888,C2,716.75,0.125,100,127.0
5889,C2,716.875,0.125,100,127.0
5890,B5,717.0,0.5,100,127.0
5891,E1,717.0,0.5,100,127.0
5892,E5,717.0,0.5,100,127.0
5893,E2,717.0,0.5,100,127.0
5894,F3,717.0,0.5,100,127.0
5895,B5,717.5,0.5,100,127.0
5896,A1,717.5,0.5,100,127.0
5897,B5,717.5,0.5,100,127.0
5898,C2,717.5,0.5,100,127.0
5899,A3,717.5,0.5,100,127.0
5900,D3,717.515,1.5,90,127.0
5901,A3,717.515,1.5,90,127.0
5902,D4,717.515,1.5,90,127.0
5903,A5,718.0,0.5,100,127.0
5904,A1,718.0,1.5,100,127.0
5905,B5,718.0,0.5,100,127.0
5906,F3,718.0,0.5,100,127.0
5907,E2,718.0,0.5,100,127.0
5908,F#5,718.5,189/250,100,127.0
5909,B5,718.5,0.5,100,127.0
5910,F3,718.5,0.5,100,127.0
5911,C2,718.75,0.125,100,127.0
5912,C2,718.875,0.125,100,127.0
5913,A5,719.0,0.5,100,127.0
5914,E2,719.0,0.5,100,127.0
5915,F3,719.0,0.5,100,127.0
5916,E3,719.015,2.5,90,127.0
5917,B3,719.015,2.5,90,127.0
5918,E4,719.015,2.5,90,127.0
5919,D4,719.058,1.5,80,127.0
5920,F#4,719.058,1.5,80,127.0
5921,A4,719.058,1.5,80,127.0
5922,D2,719.058,1.5,80,127.0
5923,A3,719.058,3/200,80,127.0
5924,E4,719.058,3/200,80,127.0
5925,A4,719.058,3/200,80,127.0
5926,A2,719.058,3/200,80,127.0
5927,C#4,719.058,3/200,80,127.0
5928,E5,719.25,0.25,100,127.0
5929,D5,719.5,0.25,100,127.0
5930,F#1,719.5,2.5,100,127.0
5931,F#5,719.5,1.0,100,127.0
5932,C2,719.5,0.5,100,127.0
5933,C#3,719.5,0.5,100,127.0
5934,A4,719.75,0.25,100,127.0
5935,F#4,720.0,0.25,100,127.0
5936,F3,720.0,0.5,100,127.0
5937,E2,720.0,0.5,100,127.0
5938,A2,720.102,0.5,80,127.0
5939,C#4,720.102,0.5,80,127.0
5940,E4,720.102,0.5,80,127.0
5941,A3,720.102,0.5,80,127.0
5942,E4,720.25,0.25,100,127.0
5943,D4,720.5,0.5,100,127.0
5944,E5,720.5,0.5,100,127.0
5945,F3,720.5,0.5,100,127.0
5946,E2,720.558,2.5,80,127.0
5947,B4,720.558,2.5,80,127.0
5948,G#4,720.558,2.5,80,127.0
5949,E4,720.558,2.5,80,127.0
5950,A2,720.602,1.5,80,127.0
5951,C#4,720.602,1.5,80,127.0
5952,E4,720.602,1.5,80,127.0
5953,A3,720.602,1.5,80,127.0
5954,G#4,721.0,0.25,100,127.0
5955,D4,721.0,3/200,100,127.0
5956,D5,721.0,1.0,100,127.0
5957,F3,721.0,0.5,100,127.0
5958,E2,721.0,0.5,100,127.0
5959,E4,721.25,0.25,100,127.0
5960,A4,721.5,0.25,100,127.0
5961,F3,721.5,0.5,100,127.0
5962,C2,721.5,0.5,100,127.0
5963,E3,721.515,3.5,90,127.0
5964,B2,721.515,3.5,90,127.0
5965,E2,721.515,3.5,90,127.0
5966,E4,721.75,0.25,100,127.0
5967,B4,722.0,0.25,100,127.0
5968,G#1,722.0,297/200,100,127.0
5969,F#1,722.0,3/200,100,127.0
5970,G#5,722.0,0.5,100,127.0
5971,E2,722.0,0.5,100,127.0
5972,E3,722.0,0.5,100,127.0
5973,F#4,722.102,2.5,80,127.0
5974,F#2,722.102,2.5,80,127.0
5975,A3,722.102,2.5,80,127.0
5976,D4,722.102,2.5,80,127.0
5977,E4,722.25,0.25,100,127.0
5978,B4,722.5,0.75,100,127.0
5979,A5,722.5,0.5,100,127.0
5980,F3,722.5,0.5,100,127.0
5981,C2,722.75,0.125,100,127.0
5982,C2,722.875,0.125,100,127.0
5983,B5,723.0,0.5,100,127.0
5984,E2,723.0,0.5,100,127.0
5985,F3,723.0,0.5,100,127.0
5986,B4,723.25,0.25,100,127.0
5987,A4,723.5,103/200,100,127.0
5988,A1,723.5,1.5,100,127.0
5989,B5,723.5,303/200,100,127.0
5990,C2,723.5,0.5,100,127.0
5991,A3,723.5,0.5,100,127.0
5992,C#4,724.0,0.25,100,127.0
5993,E2,724.021,0.5,100,127.0
5994,F3,724.021,0.5,100,127.0
5995,B3,724.25,0.25,100,127.0
5996,A3,724.5,0.5,100,127.0
5997,F3,724.521,0.5,100,127.0
5998,G#2,724.617,297/200,80,127.0
5999,E4,724.617,297/200,80,127.0
6000,B3,724.617,297/200,80,127.0
6001,G#4,724.617,297/200,80,127.0
6002,F#4,724.617,3/200,80,127.0
6003,F#2,724.617,3/200,80,127.0
6004,A3,724.617,3/200,80,127.0
6005,D4,724.617,3/200,80,127.0
6006,C2,724.771,0.125,100,127.0
6007,C2,724.896,0.125,100,127.0
6008,D4,725.0,0.25,100,127.0
6009,A3,725.0,3/200,100,127.0
6010,A1,725.0,0.5,100,127.0
6011,A5,725.0,0.5,100,127.0
6012,A2,725.015,0.5,90,127.0
6013,A3,725.015,0.5,90,127.0
6014,E3,725.015,0.5,90,127.0
6015,E2,725.021,0.5,100,127.0
6016,F3,725.021,0.5,100,127.0
6017,E4,725.25,0.25,100,127.0
6018,F#4,725.5,0.25,100,127.0
6019,D2,725.5,0.5,100,127.0
6020,E5,725.5,0.5,100,127.0
6021,F3,725.5,0.5,100,127.0
6022,C2,725.5,0.5,100,127.0
6023,D5,725.75,0.25,100,127.0
6024,G#5,726.0,0.25,100,127.0
6025,D2,726.0,0.5,100,127.0
6026,E5,726.0,203/200,100,127.0
6027,E2,726.0,0.5,100,127.0
6028,F3,726.0,0.5,100,127.0
6029,A3,726.117,2.5,80,127.0
6030,E4,726.117,2.5,80,127.0
6031,A4,726.117,2.5,80,127.0
6032,A2,726.117,2.5,80,127.0
6033,C#4,726.117,2.5,80,127.0
6034,A5,726.25,0.25,100,127.0
6035,G#5,726.5,189/250,100,127.0
6036,D2,726.5,0.5,100,127.0
6037,F3,726.5,0.5,100,127.0
6038,C2,726.75,0.125,100,127.0
6039,C2,726.875,0.125,100,127.0
6040,D2,727.0,0.5,100,127.0
6041,D5,727.0,0.5,100,127.0
6042,E2,727.0,0.5,100,127.0
6043,F3,727.0,0.5,100,127.0
6044,A2,727.015,1.5,90,127.0
6045,A3,727.015,1.5,90,127.0
6046,E3,727.015,1.5,90,127.0
6047,A5,727.25,271/1000,100,127.0
6048,B5,727.5,0.25,100,127.0
6049,E2,727.5,0.5,100,127.0
6050,E5,727.5,303/200,100,127.0
6051,C2,727.5,0.5,100,127.0
6052,A3,727.5,0.5,100,127.0
6053,E5,727.75,1.0,100,127.0
6054,E2,728.0,0.5,100,127.0
6055,E2,728.021,0.5,100,127.0
6056,F3,728.021,0.5,100,127.0
6057,E2,728.5,0.5,100,127.0
6058,D3,728.515,2.5,90,127.0
6059,A3,728.515,2.5,90,127.0
6060,D4,728.515,2.5,90,127.0
6061,F3,728.521,0.5,100,127.0
6062,D4,728.617,1.5,80,127.0
6063,F#4,728.617,1.5,80,127.0
6064,A4,728.617,1.5,80,127.0
6065,D2,728.617,1.5,80,127.0
6066,A3,728.617,3/200,80,127.0
6067,E4,728.617,3/200,80,127.0
6068,A4,728.617,3/200,80,127.0
6069,A2,728.617,3/200,80,127.0
6070,C#4,728.617,3/200,80,127.0
6071,E-5,728.75,83/1000,50,127.0
6072,C2,728.75,0.25,100,127.0
6073,D5,728.833,83/1000,50,127.0
6074,C#5,728.917,83/1000,50,127.0
6075,C#5,728.917,83/1000,50,127.0
6076,A5,729.0,0.25,100,127.0
6077,E2,729.0,0.5,100,127.0
6078,B4,729.0,0.25,100,127.0
6079,E2,729.021,0.5,100,127.0
6080,F3,729.021,0.5,100,127.0
6081,B5,729.25,0.125,100,127.0
6082,A4,729.25,0.25,100,127.0
6083,A5,729.375,0.125,100,127.0
6084,G#5,729.5,0.25,100,127.0
6085,E2,729.5,0.5,100,127.0
6086,G#4,729.5,0.25,100,127.0
6087,F3,729.5,0.5,100,127.0
6088,C2,729.5,0.5,100,127.0
6089,E5,729.75,0.25,100,127.0
6090,E4,729.75,0.25,100,127.0
6091,B4,730.0,0.25,100,127.0
6092,E1,730.0,0.5,100,127.0
6093,B5,730.0,2.0,100,127.0
6094,C#3,730.0,1.0,100,127.0
6095,E2,730.0,729/1000,100,127.0
6096,E2,730.117,2.5,80,127.0
6097,B4,730.117,2.5,80,127.0
6098,G#4,730.117,2.5,80,127.0
6099,E4,730.117,2.5,80,127.0
6100,A4,730.25,0.25,100,127.0
6101,E5,730.5,0.25,100,127.0
6102,B1,730.5,0.5,100,127.0
6103,A4,730.75,0.25,100,127.0
6104,C2,730.75,0.125,100,127.0
6105,C2,730.875,0.125,100,127.0
6106,G#4,731.0,0.25,100,127.0
6107,E2,731.0,0.5,100,127.0
6108,E2,731.0,0.5,100,127.0
6109,F3,731.0,0.5,100,127.0
6110,G#2,731.015,1.5,90,127.0
6111,E-3,731.015,1.5,90,127.0
6112,G#3,731.015,1.5,90,127.0
6113,A4,731.25,0.125,100,127.0
6114,G#4,731.375,0.125,100,127.0
6115,F#4,731.5,0.25,100,127.0
6116,E2,731.5,0.5,100,127.0
6117,C2,731.5,0.5,100,127.0
6118,F3,731.5,0.5,100,127.0
6119,E4,731.75,0.25,100,127.0
6120,G#4,732.0,0.25,100,127.0
6121,E2,732.0,0.5,100,127.0
6122,A5,732.0,1.0,100,127.0
6123,E2,732.0,0.5,100,127.0
6124,F3,732.0,0.5,100,127.0
6125,B4,732.25,0.25,100,127.0
6126,C#5,732.5,0.5,100,127.0
6127,E1,732.5,0.5,100,127.0
6128,F3,732.5,0.5,100,127.0
6129,C2,732.5,0.5,100,127.0
6130,A2,732.515,2.5,90,127.0
6131,A3,732.515,2.5,90,127.0
6132,E3,732.515,2.5,90,127.0
6133,E2,732.617,3.5,80,127.0
6134,G#4,732.617,3.5,80,127.0
6135,E4,732.617,3.5,80,127.0
6136,B3,732.617,3.5,80,127.0
6137,C#5,733.0,32/125,100,127.0
6138,E1,733.0,0.5,100,127.0
6139,G#5,733.0,0.5,100,127.0
6140,E2,733.0,0.5,100,127.0
6141,F3,733.0,0.5,100,127.0
6142,E4,733.25,0.25,100,127.0
6143,A4,733.5,0.25,100,127.0
6144,A1,733.5,0.5,100,127.0
6145,D6,733.5,0.5,100,127.0
6146,C2,733.5,0.5,100,127.0
6147,A3,733.5,0.5,100,127.0
6148,B4,733.75,0.125,100,127.0
6149,C#5,733.875,0.125,100,127.0
6150,E5,734.0,0.25,100,127.0
6151,A1,734.0,1.5,100,127.0
6152,D6,734.0,0.5,100,127.0
6153,E2,734.0,0.5,100,127.0
6154,A5,734.25,0.125,100,127.0
6155,C#6,734.375,0.125,100,127.0
6156,D6,734.5,189/250,100,127.0
6157,D6,734.5,0.5,100,127.0
6158,F3,734.5,0.5,100,127.0
6159,C2,734.5,0.5,100,127.0
6160,C#6,735.0,0.5,100,127.0
6161,E2,735.0,0.5,100,127.0
6162,D3,735.015,1.5,90,127.0
6163,A3,735.015,1.5,90,127.0
6164,D4,735.015,1.5,90,127.0
6165,D4,735.25,0.25,100,127.0
6166,E4,735.5,0.25,100,127.0
6167,F#1,735.5,1.0,100,127.0
6168,A5,735.5,1.0,100,127.0
6169,C2,735.5,0.5,100,127.0
6170,G3,735.5,0.5,100,127.0
6171,F#4,735.75,0.25,100,127.0
6172,A4,736.0,0.25,100,127.0
6173,E2,736.0,0.5,100,127.0
6174,A2,736.117,0.5,80,127.0
6175,C#4,736.117,0.5,80,127.0
6176,E4,736.117,0.5,80,127.0
6177,A3,736.117,0.5,80,127.0
6178,D5,736.25,0.25,100,127.0
6179,E5,736.5,0.25,100,127.0
6180,F#1,736.5,0.5,90,127.0
6181,G#5,736.5,0.5,100,127.0
6182,C2,736.5,0.5,100,127.0
6183,E3,736.515,2.5,90,127.0
6184,B3,736.515,2.5,90,127.0
6185,E4,736.515,2.5,90,127.0
6186,F#5,736.75,0.25,100,127.0
6187,G#5,737.0,0.25,100,127.0
6188,F#1,737.0,1.0,90,127.0
6189,F#5,737.0,1.0,100,127.0
6190,F3,737.0,0.5,100,127.0
6191,E2,737.0,0.5,100,127.0
6192,F#5,737.25,0.25,100,127.0
6193,E5,737.5,167/1000,100,127.0
6194,F3,737.5,0.5,100,127.0
6195,C2,737.5,0.5,100,127.0
6196,D6,737.667,167/1000,100,127.0
6197,C#6,737.833,167/1000,100,127.0
6198,B5,738.0,0.25,100,127.0
6199,G#1,738.0,297/200,100,127.0
6200,B5,738.0,0.5,100,127.0
6201,E2,738.0,0.5,100,127.0
6202,E3,738.0,0.5,100,127.0
6203,A2,738.117,1.5,80,127.0
6204,C#4,738.117,1.5,80,127.0
6205,E4,738.117,1.5,80,127.0
6206,A3,738.117,1.5,80,127.0
6207,G#5,738.25,0.25,100,127.0
6208,E5,738.5,0.25,100,127.0
6209,C#6,738.5,0.5,100,127.0
6210,F3,738.5,0.5,100,127.0
6211,D5,738.75,0.25,100,127.0
6212,C2,738.75,0.125,100,127.0
6213,C2,738.875,0.125,100,127.0
6214,C#5,739.0,0.25,100,127.0
6215,D6,739.0,0.5,100,127.0
6216,E2,739.0,0.5,100,127.0
6217,F3,739.0,0.5,100,127.0
6218,E3,739.015,3.5,90,127.0
6219,B2,739.015,3.5,90,127.0
6220,E2,739.015,3.5,90,127.0
6221,E5,739.25,0.25,100,127.0
6222,B4,739.5,0.25,100,127.0
6223,A1,739.5,1.5,100,127.0
6224,D6,739.5,303/200,100,127.0
6225,C2,739.5,0.5,100,127.0
6226,A3,739.5,0.5,100,127.0
6227,F#4,739.617,2.5,80,127.0
6228,F#2,739.617,2.5,80,127.0
6229,A3,739.617,2.5,80,127.0
6230,D4,739.617,2.5,80,127.0
6231,E5,739.75,27/200,100,127.0
6232,A4,739.875,0.125,100,127.0
6233,B4,740.0,0.125,100,127.0
6234,E2,740.021,0.5,100,127.0
6235,C#5,740.125,0.25,100,127.0
6236,E4,740.375,0.625,100,127.0
6237,F3,740.521,0.5,80,127.0
6238,C2,740.771,0.125,100,127.0
6239,C2,740.896,0.125,100,127.0
6240,D5,741.0,0.25,100,127.0
6241,E4,741.0,1/40,100,127.0
6242,A1,741.0,0.5,100,127.0
6243,C#6,741.0,0.5,100,127.0
6244,E2,741.021,0.5,100,127.0
6245,F3,741.021,0.5,100,127.0
6246,F#4,741.25,0.25,100,127.0
6247,A4,741.5,0.25,100,127.0
6248,B0,741.5,0.5,100,127.0
6249,A5,741.5,0.5,100,127.0
6250,F3,741.5,0.5,100,127.0
6251,C2,741.5,0.5,100,127.0
6252,D5,741.75,0.25,100,127.0
6253,F#5,742.0,0.25,100,127.0
6254,D1,742.0,0.5,100,127.0
6255,F#5,742.0,0.5,100,127.0
6256,A5,742.0,3/200,100,127.0
6257,E2,742.0,0.5,100,127.0
6258,G3,742.0,0.5,100,127.0
6259,G#2,742.131,297/200,80,127.0
6260,E4,742.131,297/200,80,127.0
6261,B3,742.131,297/200,80,127.0
6262,G#4,742.131,297/200,80,127.0
6263,F#4,742.131,3/200,80,127.0
6264,F#2,742.131,3/200,80,127.0
6265,A3,742.131,3/200,80,127.0
6266,D4,742.131,3/200,80,127.0
6267,D5,742.25,0.25,100,127.0
6268,E5,742.5,0.25,100,127.0
6269,D1,742.5,0.5,100,127.0
6270,A5,742.5,0.5,100,127.0
6271,E2,742.5,0.25,100,127.0
6272,A2,742.515,0.5,90,127.0
6273,A3,742.515,0.5,90,127.0
6274,E3,742.515,0.5,90,127.0
6275,B5,742.75,0.25,100,127.0
6276,E2,742.75,0.25,100,127.0
6277,G#5,743.0,0.125,100,127.0
6278,D1,743.0,0.5,100,127.0
6279,F#5,743.0,0.5,100,127.0
6280,E2,743.0,0.25,100,127.0
6281,A5,743.125,0.125,100,127.0
6282,B5,743.25,0.25,100,127.0
6283,E2,743.25,0.25,100,127.0
6284,E5,743.5,0.25,100,127.0
6285,E1,743.5,0.5,100,127.0
6286,B5,743.5,303/200,100,127.0
6287,E2,743.5,0.25,100,127.0
6288,A3,743.631,2.5,80,127.0
6289,E4,743.631,2.5,80,127.0
6290,A4,743.631,2.5,80,127.0
6291,A2,743.631,2.5,80,127.0
6292,C#4,743.631,2.5,80,127.0
6293,B4,743.75,0.25,100,127.0
6294,E2,743.75,0.25,100,127.0
6295,G#4,744.0,0.125,100,127.0
6296,E1,744.0,0.5,85,127.0
6297,E2,744.0,0.25,100,127.0
6298,F#4,744.125,0.125,100,127.0
6299,E4,744.25,0.25,100,127.0
6300,E2,744.25,0.25,100,127.0
6301,E5,744.5,0.125,100,127.0
6302,E1,744.5,0.5,85,127.0
6303,D3,744.5,0.25,100,127.0
6304,A2,744.515,1.5,90,127.0
6305,A3,744.515,1.5,90,127.0
6306,E3,744.515,1.5,90,127.0
6307,B4,744.625,0.125,100,127.0
6308,D5,744.75,0.125,100,127.0
6309,D3,744.75,0.25,100,127.0
6310,F#5,744.875,0.125,100,127.0
6311,G#5,745.0,2.0,100,127.0
6312,E1,745.0,0.5,85,127.0
6313,E5,745.0,0.25,100,127.0
6314,C3,745.0,0.25,100,127.0
6315,C#5,745.25,0.25,100,127.0
6316,C3,745.25,0.25,100,127.0
6317,E1,745.5,0.5,85,127.0
6318,B4,745.5,0.25,100,127.0
6319,A2,745.5,0.25,100,127.0
6320,G#4,745.75,0.25,100,127.0
6321,A2,745.75,0.25,100,127.0
6322,E1,746.0,0.5,100,127.0
6323,B5,746.0,2.0,100,127.0
6324,C2,746.0,0.25,100,127.0
6325,C#3,746.0,1.0,100,127.0
6326,D3,746.015,2.5,90,127.0
6327,A3,746.015,2.5,90,127.0
6328,D4,746.015,2.5,90,127.0
6329,D4,746.131,1.5,80,127.0
6330,F#4,746.131,1.5,80,127.0
6331,A4,746.131,1.5,80,127.0
6332,D2,746.131,1.5,80,127.0
6333,A3,746.131,3/200,80,127.0
6334,E4,746.131,3/200,80,127.0
6335,A4,746.131,3/200,80,127.0
6336,A2,746.131,3/200,80,127.0
6337,C#4,746.131,3/200,80,127.0
6338,C2,746.25,0.25,100,127.0
6339,E1,746.5,0.5,100,127.0
6340,C2,746.5,0.25,100,127.0
6341,F3,746.5,0.5,80,127.0
6342,C2,746.75,0.25,100,127.0
6343,F#5,747.0,1.0,100,127.0
6344,E1,747.0,0.5,100,127.0
6345,C2,747.0,0.25,100,127.0
6346,E2,747.0,1.0,100,127.0
6347,F3,747.0,0.5,100,127.0
6348,C2,747.25,0.25,100,127.0
6349,E1,747.5,0.5,100,127.0
6350,C2,747.5,0.25,100,127.0
6351,F3,747.5,0.5,80,127.0
6352,E2,747.631,2.5,80,127.0
6353,B4,747.631,2.5,80,127.0
6354,G#4,747.631,2.5,80,127.0
6355,E4,747.631,2.5,80,127.0
6356,C2,747.75,0.25,100,127.0
6357,E5,748.0,0.5,100,127.0
6358,E1,748.0,0.5,100,127.0
6359,A5,748.0,1.0,100,127.0
6360,C2,748.0,0.25,100,127.0
6361,E2,748.0,1.0,100,127.0
6362,F3,748.0,0.5,100,127.0
6363,C2,748.25,0.25,100,127.0
6364,B5,748.5,0.5,100,127.0
6365,E1,748.5,0.5,100,127.0
6366,C2,748.5,0.25,100,127.0
6367,F3,748.5,0.5,80,127.0
6368,G#2,748.515,1.5,90,127.0
6369,E-3,748.515,1.5,90,127.0
6370,G#3,748.515,1.5,90,127.0
6371,C2,748.75,0.25,100,127.0
6372,B5,749.0,0.5,100,127.0
6373,E1,749.0,0.5,100,127.0
6374,G#5,749.0,0.5,100,127.0
6375,C2,749.0,0.25,100,127.0
6376,E2,749.0,1.0,100,127.0
6377,F3,749.0,0.5,100,127.0
6378,C2,749.25,0.25,100,127.0
6379,B5,749.5,0.5,100,127.0
6380,A1,749.5,0.5,100,127.0
6381,D6,749.5,0.5,100,127.0
6382,C2,749.5,0.25,100,127.0
6383,F3,749.5,0.5,80,127.0
6384,C2,749.75,0.25,100,127.0
6385,A5,750.0,0.5,100,127.0
6386,A1,750.0,1.5,100,127.0
6387,D6,750.0,0.5,100,127.0
6388,C2,750.0,0.25,100,127.0
6389,E2,750.0,1.0,100,127.0
6390,A3,750.0,0.5,90,127.0
6391,A2,750.015,2.5,90,127.0
6392,A3,750.015,2.5,90,127.0
6393,E3,750.015,2.5,90,127.0
6394,E2,750.131,3.5,80,127.0
6395,G#4,750.131,3.5,80,127.0
6396,E4,750.131,3.5,80,127.0
6397,B3,750.131,3.5,80,127.0
6398,C2,750.25,0.25,100,127.0
6399,F#5,750.5,1.0,100,127.0
6400,D6,750.5,0.5,100,127.0
6401,C2,750.5,0.25,100,127.0
6402,F3,750.5,0.5,100,127.0
6403,C2,750.75,0.25,100,127.0
6404,C#6,751.0,0.5,100,127.0
6405,C2,751.0,0.25,100,127.0
6406,E2,751.0,1.0,100,127.0
6407,A3,751.0,0.5,90,127.0
6408,C2,751.25,0.25,100,127.0
6409,E5,751.5,0.5,100,127.0
6410,F#1,751.5,1.0,100,127.0
6411,A5,751.5,1.0,100,127.0
6412,C2,751.5,0.25,100,127.0
6413,F3,751.5,0.5,100,127.0
6414,C2,751.75,0.25,100,127.0
6415,D5,752.0,1.0,100,127.0
6416,C2,752.0,0.25,100,127.0
6417,E2,752.0,1.0,100,127.0
6418,A3,752.0,0.5,90,127.0
6419,C2,752.25,0.25,100,127.0
6420,F#1,752.5,0.5,90,127.0
6421,G#5,752.5,0.5,100,127.0
6422,C2,752.5,0.25,100,127.0
6423,F3,752.5,0.5,100,127.0
6424,C2,752.75,0.25,100,127.0
6425,G#5,753.0,0.5,100,127.0
6426,F#1,753.0,1.0,90,127.0
6427,F#5,753.0,1.0,100,127.0
6428,C2,753.0,0.25,100,127.0
6429,E2,753.0,1.0,100,127.0
6430,A3,753.0,0.5,90,127.0
6431,C2,753.25,0.25,100,127.0
6432,A5,753.5,0.5,100,127.0
6433,C2,753.5,0.25,100,127.0
6434,F3,753.5,0.5,100,127.0
6435,A2,753.631,0.5,80,127.0
6436,C#4,753.631,0.5,80,127.0
6437,E4,753.631,0.5,80,127.0
6438,A3,753.631,0.5,80,127.0
6439,C2,753.75,0.25,100,127.0
6440,B5,754.0,0.5,100,127.0
6441,G#1,754.0,297/200,100,127.0
6442,B5,754.0,0.5,100,127.0
6443,C#3,754.0,1.0,100,127.0
6444,C2,754.0,0.25,100,127.0
6445,C2,754.25,0.25,100,127.0
6446,B5,754.5,303/200,100,127.0
6447,C#6,754.5,0.5,100,127.0
6448,C2,754.5,0.25,100,127.0
6449,F3,754.5,0.5,80,127.0
6450,C2,754.75,0.25,100,127.0
6451,D6,755.0,0.5,100,127.0
6452,C2,755.0,0.25,100,127.0
6453,E2,755.0,1.0,100,127.0
6454,F3,755.0,0.5,100,127.0
6455,C2,755.25,0.25,100,127.0
6456,A1,755.5,1.5,100,127.0
6457,D6,755.5,303/200,100,127.0
6458,C2,755.5,0.25,100,127.0
6459,F3,755.5,0.5,80,127.0
6460,A2,755.631,1.5,80,127.0
6461,C#4,755.631,1.5,80,127.0
6462,E4,755.631,1.5,80,127.0
6463,A3,755.631,1.5,80,127.0
6464,C2,755.75,0.25,100,127.0
6465,A5,756.0,0.5,100,127.0
6466,C2,756.0,0.25,100,127.0
6467,E2,756.0,1.0,100,127.0
6468,F3,756.0,0.5,100,127.0
6469,C2,756.25,0.25,100,127.0
6470,E5,756.5,0.5,100,127.0
6471,C2,756.5,0.25,100,127.0
6472,F3,756.5,0.5,80,127.0
6473,C2,756.75,0.25,100,127.0
6474,E5,757.0,203/200,100,127.0
6475,A1,757.0,0.5,100,127.0
6476,C#6,757.0,0.5,100,127.0
6477,C2,757.0,0.25,100,127.0
6478,E2,757.0,1.0,100,127.0
6479,F3,757.0,0.5,100,127.0
6480,F#4,757.131,2.5,80,127.0
6481,F#2,757.131,2.5,80,127.0
6482,A3,757.131,2.5,80,127.0
6483,D4,757.131,2.5,80,127.0
6484,C2,757.25,0.25,100,127.0
6485,D2,757.5,0.5,100,127.0
6486,A5,757.5,0.5,100,127.0
6487,C2,757.5,0.25,100,127.0
6488,F3,757.5,0.5,80,127.0
6489,C2,757.75,0.25,100,127.0
6490,D5,758.0,0.5,100,127.0
6491,D2,758.0,0.5,100,127.0
6492,F#5,758.0,0.5,100,127.0
6493,A5,758.0,3/200,100,127.0
6494,C2,758.0,0.25,100,127.0
6495,E2,758.0,1.0,100,127.0
6496,A3,758.0,0.5,80,127.0
6497,C2,758.25,0.25,100,127.0
6498,E5,758.5,303/200,100,127.0
6499,D2,758.5,0.5,100,127.0
6500,A5,758.5,0.5,100,127.0
6501,C2,758.5,0.25,100,127.0
6502,F3,758.5,0.5,100,127.0
6503,C2,758.75,0.25,100,127.0
6504,D2,759.0,0.5,100,127.0
6505,F#5,759.0,0.5,100,127.0
6506,C2,759.0,0.25,100,127.0
6507,E2,759.0,1.0,100,127.0
6508,A3,759.0,0.5,90,127.0
6509,C2,759.25,0.25,100,127.0
6510,E2,759.5,0.5,100,127.0
6511,B5,759.5,303/200,100,127.0
6512,C2,759.5,0.25,100,127.0
6513,F3,759.5,0.5,100,127.0
6514,G#2,759.646,297/200,80,127.0
6515,E4,759.646,297/200,80,127.0
6516,B3,759.646,297/200,80,127.0
6517,G#4,759.646,297/200,80,127.0
6518,F#4,759.646,3/200,80,127.0
6519,F#2,759.646,3/200,80,127.0
6520,A3,759.646,3/200,80,127.0
6521,D4,759.646,3/200,80,127.0
6522,C2,759.75,0.25,100,127.0
6523,B4,760.0,0.25,100,127.0
6524,E2,760.0,0.5,85,127.0
6525,C2,760.0,0.25,100,127.0
6526,E2,760.0,1.0,100,127.0
6527,A3,760.0,0.5,90,127.0
6528,A4,760.25,0.25,100,127.0
6529,C2,760.25,0.25,100,127.0
6530,G#4,760.5,0.25,100,127.0
6531,E2,760.5,0.5,85,127.0
6532,C2,760.5,0.25,100,127.0
6533,F3,760.5,0.5,100,127.0
6534,E4,760.75,0.25,100,127.0
6535,C2,760.75,0.25,100,127.0
6536,G#5,761.0,2.0,100,127.0
6537,E2,761.0,0.5,85,127.0
6538,E5,761.0,0.25,100,127.0
6539,C2,761.0,0.25,100,127.0
6540,E2,761.0,1.0,100,127.0
6541,A3,761.0,0.5,90,127.0
6542,A3,761.146,2.5,80,127.0
6543,E4,761.146,2.5,80,127.0
6544,A4,761.146,2.5,80,127.0
6545,A2,761.146,2.5,80,127.0
6546,C#4,761.146,2.5,80,127.0
6547,C#5,761.25,0.25,100,127.0
6548,C2,761.25,0.25,100,127.0
6549,E2,761.5,0.5,85,127.0
6550,B4,761.5,0.25,100,127.0
6551,C2,761.5,0.25,100,127.0
6552,F3,761.5,0.5,100,127.0
6553,G#4,761.75,0.25,100,127.0
6554,C2,761.75,0.25,100,127.0
6555,E1,762.0,0.5,100,127.0
6556,B5,762.0,2.0,100,127.0
6557,C2,762.0,0.25,100,127.0
6558,C#3,762.0,1.0,100,127.0
6559,C2,762.25,0.25,100,127.0
6560,E1,762.5,0.5,100,127.0
6561,C2,762.5,0.25,100,127.0
6562,F3,762.5,0.5,80,127.0
6563,C2,762.75,0.25,100,127.0
6564,F#5,763.0,1.0,100,127.0
6565,E1,763.0,0.5,100,127.0
6566,C2,763.0,0.25,100,127.0
6567,E2,763.0,1.0,100,127.0
6568,F3,763.0,0.5,100,127.0
6569,C2,763.25,0.25,100,127.0
6570,E1,763.5,0.5,100,127.0
6571,C2,763.5,0.25,100,127.0
6572,F3,763.5,0.5,80,127.0
6573,D4,763.646,1.5,80,127.0
6574,F#4,763.646,1.5,80,127.0
6575,A4,763.646,1.5,80,127.0
6576,D2,763.646,1.5,80,127.0
6577,A3,763.646,3/200,80,127.0
6578,E4,763.646,3/200,80,127.0
6579,A4,763.646,3/200,80,127.0
6580,A2,763.646,3/200,80,127.0
6581,C#4,763.646,3/200,80,127.0
6582,C2,763.75,0.25,100,127.0
6583,E5,764.0,0.5,100,127.0
6584,E1,764.0,0.5,100,127.0
6585,A5,764.0,1.0,100,127.0
6586,C2,764.0,0.25,100,127.0
6587,E2,764.0,1.0,100,127.0
6588,F3,764.0,0.5,100,127.0
6589,C2,764.25,0.25,100,127.0
6590,B5,764.5,0.5,100,127.0
6591,E1,764.5,0.5,100,127.0
6592,C2,764.5,0.25,100,127.0
6593,F3,764.5,0.5,80,127.0
6594,C2,764.75,0.25,100,127.0
6595,B5,765.0,0.5,100,127.0
6596,E1,765.0,0.5,100,127.0
6597,B5,765.0,0.5,100,127.0
6598,C2,765.0,0.25,100,127.0
6599,E2,765.0,1.0,100,127.0
6600,F3,765.0,0.5,100,127.0
6601,E2,765.146,2.5,80,127.0
6602,B4,765.146,2.5,80,127.0
6603,G#4,765.146,2.5,80,127.0
6604,E4,765.146,2.5,80,127.0
6605,C2,765.25,0.25,100,127.0
6606,B5,765.5,0.5,100,127.0
6607,A1,765.5,0.5,100,127.0
6608,D6,765.5,0.5,100,127.0
6609,C2,765.5,0.25,100,127.0
6610,F3,765.5,0.5,80,127.0
6611,C2,765.75,0.25,100,127.0
6612,A5,766.0,0.5,100,127.0
6613,A1,766.0,0.5,100,127.0
6614,D6,766.0,0.5,100,127.0
6615,C2,766.0,0.25,100,127.0
6616,E2,766.0,1.0,100,127.0
6617,A3,766.0,0.5,80,127.0
6618,C2,766.25,0.25,100,127.0
6619,F#5,766.5,189/250,100,127.0
6620,A1,766.5,0.5,100,127.0
6621,D6,766.5,0.5,100,127.0
6622,C2,766.5,0.25,100,127.0
6623,F3,766.5,0.5,100,127.0
6624,C2,766.75,0.25,100,127.0
6625,A1,767.0,0.5,100,127.0
6626,C#6,767.0,0.5,100,127.0
6627,C2,767.0,0.25,100,127.0
6628,E2,767.0,1.0,100,127.0
6629,A3,767.0,0.5,90,127.0
6630,E5,767.25,379/500,100,127.0
6631,C2,767.25,0.25,100,127.0
6632,F#1,767.5,0.5,100,127.0
6633,A5,767.5,1.0,100,127.0
6634,C2,767.5,0.25,100,127.0
6635,F3,767.5,0.5,100,127.0
6636,E2,767.646,3.5,80,127.0
6637,G#4,767.646,3.5,80,127.0
6638,E4,767.646,3.5,80,127.0
6639,B3,767.646,3.5,80,127.0
6640,C2,767.75,0.25,100,127.0
6641,D5,768.0,1.0,100,127.0
6642,F#1,768.0,0.5,100,127.0
6643,C2,768.0,0.25,100,127.0
6644,E2,768.0,1.0,100,127.0
6645,A3,768.0,0.5,90,127.0
6646,C2,768.25,0.25,100,127.0
6647,F#1,768.5,0.5,100,127.0
6648,A5,768.5,0.5,100,127.0
6649,C2,768.5,0.25,100,127.0
6650,F3,768.5,0.5,100,127.0
6651,C2,768.75,0.25,100,127.0
6652,G#5,769.0,0.5,100,127.0
6653,F#1,769.0,0.5,100,127.0
6654,G#5,769.0,0.5,100,127.0
6655,C2,769.0,0.25,100,127.0
6656,E2,769.0,1.0,100,127.0
6657,A3,769.0,0.5,90,127.0
6658,C2,769.25,0.25,100,127.0
6659,A5,769.5,0.5,100,127.0
6660,F#1,769.5,0.5,100,127.0
6661,G5,769.5,0.5,100,127.0
6662,C2,769.5,0.25,100,127.0
6663,F3,769.5,0.5,100,127.0
6664,C2,769.75,0.25,100,127.0
6665,B5,770.0,0.5,100,127.0
6666,G#1,770.0,0.5,100,127.0
6667,G5,770.0,0.5,100,127.0
6668,A3,770.0,0.5,80,127.0
6669,E2,770.0,1.0,100,127.0
6670,C2,770.0,0.25,100,127.0
6671,C2,770.25,0.25,100,127.0
6672,B5,770.5,303/200,100,127.0
6673,G#1,770.5,0.5,100,127.0
6674,G#5,770.5,0.5,100,127.0
6675,C2,770.5,0.25,100,127.0
6676,F3,770.5,0.5,100,127.0
6677,C2,770.75,0.25,100,127.0
6678,G#1,771.0,0.5,100,127.0
6679,G#5,771.0,2.0,100,127.0
6680,C2,771.0,0.25,100,127.0
6681,E2,771.0,1.0,100,127.0
6682,A3,771.0,0.5,90,127.0
6683,A2,771.146,0.5,80,127.0
6684,C#4,771.146,0.5,80,127.0
6685,E4,771.146,0.5,80,127.0
6686,A3,771.146,0.5,80,127.0
6687,C2,771.25,0.25,100,127.0
6688,A1,771.5,0.5,100,127.0
6689,C2,771.5,0.25,100,127.0
6690,F3,771.5,0.5,100,127.0
6691,C2,771.75,0.25,100,127.0
6692,A5,772.0,0.5,100,127.0
6693,A1,772.0,0.5,100,127.0
6694,C2,772.0,0.25,100,127.0
6695,E2,772.0,1.0,100,127.0
6696,A3,772.0,0.5,90,127.0
6697,C2,772.25,0.25,100,127.0
6698,E5,772.5,0.5,100,127.0
6699,A1,772.5,0.5,100,127.0
6700,C2,772.5,0.25,100,127.0
6701,F3,772.5,0.5,100,127.0
6702,C2,772.75,0.25,100,127.0
6703,E5,773.0,203/200,100,127.0
6704,A1,773.0,0.5,100,127.0
6705,E5,773.0,0.5,100,127.0
6706,C2,773.0,0.25,100,127.0
6707,E2,773.0,1.0,100,127.0
6708,A3,773.0,0.5,90,127.0
6709,A2,773.146,1.5,80,127.0
6710,C#4,773.146,1.5,80,127.0
6711,E4,773.146,1.5,80,127.0
6712,A3,773.146,1.5,80,127.0
6713,C2,773.25,0.25,100,127.0
6714,D2,773.5,0.5,100,127.0
6715,F#5,773.5,0.5,100,127.0
6716,C2,773.5,0.25,100,127.0
6717,F3,773.5,0.5,100,127.0
6718,C2,773.75,0.25,100,127.0
6719,D5,774.0,0.5,100,127.0
6720,D2,774.0,0.5,100,127.0
6721,F#5,774.0,0.5,100,127.0
6722,A3,774.0,0.5,80,127.0
6723,E2,774.0,1.0,100,127.0
6724,C2,774.0,0.25,100,127.0
6725,C2,774.25,0.25,100,127.0
6726,E5,774.5,303/200,100,127.0
6727,D2,774.5,0.5,100,127.0
6728,E5,774.5,0.5,100,127.0
6729,C2,774.5,0.25,100,127.0
6730,F3,774.5,0.5,100,127.0
6731,F#4,774.646,2.5,80,127.0
6732,F#2,774.646,2.5,80,127.0
6733,A3,774.646,2.5,80,127.0
6734,D4,774.646,2.5,80,127.0
6735,C2,774.75,0.25,100,127.0
6736,D2,775.0,0.5,100,127.0
6737,D5,775.0,0.5,100,127.0
6738,C2,775.0,0.25,100,127.0
6739,E2,775.0,0.25,100,127.0
6740,C2,775.25,0.25,100,127.0
6741,E2,775.25,0.25,100,127.0
6742,E2,775.5,0.5,100,127.0
6743,C#5,775.5,0.5,100,127.0
6744,C2,775.5,0.25,100,127.0
6745,E2,775.5,0.25,100,127.0
6746,C2,775.75,0.25,100,127.0
6747,E2,775.75,0.25,100,127.0
6748,B4,776.0,0.25,100,127.0
6749,E2,776.0,97/200,100,127.0
6750,B4,776.0,1.0,100,127.0
6751,C2,776.0,0.25,100,127.0
6752,C#3,776.0,97/200,100,127.0
6753,A4,776.25,0.25,100,127.0
6754,C2,776.25,0.25,100,127.0
6755,G#4,776.5,0.25,100,127.0
6756,E2,776.5,0.5,100,127.0
6757,C2,776.5,0.25,100,127.0
6758,E2,776.5,0.25,100,127.0
6759,E4,776.75,0.25,100,127.0
6760,C2,776.75,0.25,100,127.0
6761,E2,776.75,0.25,100,127.0
6762,G#5,777.0,2.0,100,127.0
6763,E2,777.0,0.5,100,127.0
6764,A4,777.0,83/1000,60,127.0
6765,C2,777.0,0.25,100,127.0
6766,E2,777.0,0.25,100,127.0
6767,G4,777.083,83/1000,60,127.0
6768,G#2,777.16,297/200,80,127.0
6769,E4,777.16,297/200,80,127.0
6770,B3,777.16,297/200,80,127.0
6771,G#4,777.16,297/200,80,127.0
6772,F#4,777.16,3/200,80,127.0
6773,F#2,777.16,3/200,80,127.0
6774,A3,777.16,3/200,80,127.0
6775,D4,777.16,3/200,80,127.0
6776,F4,777.167,83/1000,60,127.0
6777,E4,777.25,83/1000,60,127.0
6778,C2,777.25,0.25,100,127.0
6779,E2,777.25,0.25,100,127.0
6780,D4,777.333,83/1000,60,127.0
6781,C4,777.417,83/1000,60,127.0
6782,E2,777.5,0.5,100,127.0
6783,B3,777.5,83/1000,60,127.0
6784,C2,777.5,0.25,100,127.0
6785,C#3,777.5,0.5,100,127.0
6786,A3,777.583,83/1000,60,127.0
6787,G3,777.667,83/1000,60,127.0
6788,F3,777.75,83/1000,60,127.0
6789,C2,777.75,0.25,100,127.0
6790,E1,778.0,0.5,100,127.0
6791,E5,778.0,0.25,100,127.0
6792,C2,778.0,0.25,100,127.0
6793,C#3,778.0,1.0,100,127.0
6794,E2,778.0,1.0,100,127.0
6795,B4,778.25,0.25,100,127.0
6796,C2,778.25,0.25,100,127.0
6797,E1,778.5,0.5,100,127.0
6798,F#5,778.5,0.25,100,127.0
6799,C2,778.5,0.25,100,127.0
6800,A3,778.66,2.5,80,127.0
6801,E4,778.66,2.5,80,127.0
6802,A4,778.66,2.5,80,127.0
6803,A2,778.66,2.5,80,127.0
6804,C#4,778.66,2.5,80,127.0
6805,B4,778.75,0.25,100,127.0
6806,C2,778.75,0.25,100,127.0
6807,F#5,779.0,1.0,100,127.0
6808,E1,779.0,0.5,100,127.0
6809,G#5,779.0,0.25,100,127.0
6810,C2,779.0,0.25,100,127.0
6811,E2,779.0,1.0,100,127.0
6812,B-2,779.0,1.0,100,127.0
6813,B4,779.25,0.25,100,127.0
6814,C2,779.25,0.25,100,127.0
6815,E1,779.5,0.5,100,127.0
6816,A5,779.5,0.25,100,127.0
6817,C2,779.5,0.25,100,127.0
6818,B4,779.75,0.25,100,127.0
6819,C2,779.75,0.25,100,127.0
6820,E5,780.0,0.5,100,127.0
6821,E1,780.0,0.5,100,127.0
6822,G#5,780.0,0.25,100,127.0
6823,C2,780.0,0.25,100,127.0
6824,E2,780.0,1.0,100,127.0
6825,B-2,780.0,97/200,100,127.0
6826,B4,780.25,0.25,100,127.0
6827,C2,780.25,0.25,100,127.0
6828,B5,780.5,0.5,100,127.0
6829,E1,780.5,0.5,100,127.0
6830,F#5,780.5,0.25,100,127.0
6831,C2,780.5,0.25,100,127.0
6832,B-2,780.5,0.5,70,127.0
6833,B4,780.75,0.25,100,127.0
6834,C2,780.75,0.25,100,127.0
6835,B5,781.0,0.5,100,127.0
6836,E1,781.0,0.5,100,127.0
6837,E5,781.0,0.25,100,127.0
6838,C2,781.0,0.25,100,127.0
6839,E2,781.0,1.0,100,127.0
6840,B-2,781.0,1.0,100,127.0
6841,D4,781.16,1.5,80,127.0
6842,F#4,781.16,1.5,80,127.0
6843,A4,781.16,1.5,80,127.0
6844,D2,781.16,1.5,80,127.0
6845,A3,781.16,3/200,80,127.0
6846,E4,781.16,3/200,80,127.0
6847,A4,781.16,3/200,80,127.0
6848,A2,781.16,3/200,80,127.0
6849,C#4,781.16,3/200,80,127.0
6850,B4,781.25,0.25,100,127.0
6851,C2,781.25,0.25,100,127.0
6852,B5,781.5,0.5,100,127.0
6853,A1,781.5,0.5,100,127.0
6854,F#5,781.5,0.25,100,127.0
6855,C2,781.5,0.25,100,127.0
6856,B4,781.75,0.25,100,127.0
6857,C2,781.75,0.25,100,127.0
6858,A5,782.0,0.5,100,127.0
6859,A1,782.0,0.5,100,127.0
6860,E5,782.0,0.25,100,127.0
6861,C2,782.0,0.25,100,127.0
6862,E2,782.0,1.0,100,127.0
6863,A3,782.0,1.0,100,127.0
6864,B4,782.25,0.25,100,127.0
6865,C2,782.25,0.25,100,127.0
6866,F#5,782.5,189/250,100,127.0
6867,A1,782.5,0.5,100,127.0
6868,F#5,782.5,0.25,100,127.0
6869,C2,782.5,0.25,100,127.0
6870,E2,782.66,2.5,80,127.0
6871,B4,782.66,2.5,80,127.0
6872,G#4,782.66,2.5,80,127.0
6873,E4,782.66,2.5,80,127.0
6874,B4,782.75,0.25,100,127.0
6875,C2,782.75,0.25,100,127.0
6876,A1,783.0,0.5,100,127.0
6877,G#5,783.0,0.25,100,127.0
6878,C2,783.0,0.25,100,127.0
6879,E2,783.0,1.0,100,127.0
6880,B-2,783.0,97/200,100,127.0
6881,E5,783.25,379/500,100,127.0
6882,B4,783.25,0.25,100,127.0
6883,C2,783.25,0.25,100,127.0
6884,F#1,783.5,0.5,100,127.0
6885,A5,783.5,0.25,100,127.0
6886,C2,783.5,0.25,100,127.0
6887,B-2,783.5,0.5,70,127.0
6888,B4,783.75,0.25,100,127.0
6889,C2,783.75,0.25,100,127.0
6890,D5,784.0,1.0,100,127.0
6891,F#1,784.0,0.5,100,127.0
6892,G#5,784.0,0.25,100,127.0
6893,C2,784.0,0.25,100,127.0
6894,E2,784.0,1.0,100,127.0
6895,B-2,784.0,0.5,100,127.0
6896,B4,784.25,0.25,100,127.0
6897,C2,784.25,0.25,100,127.0
6898,F#1,784.5,0.5,100,127.0
6899,F#5,784.5,0.25,100,127.0
6900,C2,784.5,0.25,100,127.0
6901,B-2,784.5,0.5,80,127.0
6902,B4,784.75,0.25,100,127.0
6903,C2,784.75,0.25,100,127.0
6904,G#5,785.0,0.5,100,127.0
6905,F#1,785.0,0.5,100,127.0
6906,E5,785.0,0.25,100,127.0
6907,C2,785.0,0.25,100,127.0
6908,E2,785.0,0.25,100,127.0
6909,E2,785.16,3.5,80,127.0
6910,G#4,785.16,3.5,80,127.0
6911,E4,785.16,3.5,80,127.0
6912,B3,785.16,3.5,80,127.0
6913,B4,785.25,0.25,100,127.0
6914,C2,785.25,0.25,100,127.0
6915,E2,785.25,0.25,100,127.0
6916,A5,785.5,0.5,100,127.0
6917,F#1,785.5,0.5,100,127.0
6918,F#5,785.5,0.25,100,127.0
6919,C2,785.5,0.25,100,127.0
6920,B-2,785.5,0.5,80,127.0
6921,B4,785.75,0.25,100,127.0
6922,C2,785.75,0.25,100,127.0
6923,B5,786.0,0.5,100,127.0
6924,G#1,786.0,0.5,100,127.0
6925,G#5,786.0,0.25,100,127.0
6926,C2,786.0,0.25,100,127.0
6927,A3,786.0,1.0,100,127.0
6928,E2,786.0,1.0,100,127.0
6929,E5,786.25,0.25,100,127.0
6930,C2,786.25,0.25,100,127.0
6931,B5,786.5,303/200,100,127.0
6932,G#1,786.5,0.5,100,127.0
6933,A5,786.5,0.25,100,127.0
6934,C2,786.5,0.25,100,127.0
6935,E5,786.75,0.25,100,127.0
6936,C2,786.75,0.25,100,127.0
6937,G#1,787.0,0.5,100,127.0
6938,E6,787.0,0.25,100,127.0
6939,C2,787.0,0.25,100,127.0
6940,E2,787.0,1.0,100,127.0
6941,B-2,787.0,97/200,100,127.0
6942,E5,787.25,0.25,100,127.0
6943,C2,787.25,0.25,100,127.0
6944,A1,787.5,0.5,100,127.0
6945,C#6,787.5,0.25,100,127.0
6946,C2,787.5,0.25,100,127.0
6947,B-2,787.5,0.5,60,127.0
6948,E5,787.75,0.25,100,127.0
6949,C2,787.75,0.25,100,127.0
6950,A5,788.0,0.5,100,127.0
6951,A1,788.0,0.5,100,127.0
6952,B5,788.0,0.25,100,127.0
6953,C2,788.0,0.25,100,127.0
6954,E2,788.0,1.0,100,127.0
6955,B-2,788.0,0.5,100,127.0
6956,E5,788.25,0.25,100,127.0
6957,C2,788.25,0.25,100,127.0
6958,E5,788.5,0.5,100,127.0
6959,A1,788.5,0.5,100,127.0
6960,A5,788.5,0.25,100,127.0
6961,C2,788.5,0.25,100,127.0
6962,B-2,788.5,0.5,80,127.0
6963,A2,788.66,0.5,80,127.0
6964,C#4,788.66,0.5,80,127.0
6965,E4,788.66,0.5,80,127.0
6966,A3,788.66,0.5,80,127.0
6967,E5,788.75,0.25,100,127.0
6968,C2,788.75,0.25,100,127.0
6969,E5,789.0,203/200,100,127.0
6970,A1,789.0,0.5,100,127.0
6971,G#5,789.0,0.25,100,127.0
6972,C2,789.0,0.25,100,127.0
6973,E2,789.0,0.25,100,127.0
6974,E5,789.25,0.25,100,127.0
6975,C2,789.25,0.25,100,127.0
6976,E2,789.25,0.25,100,127.0
6977,D2,789.5,0.5,100,127.0
6978,A5,789.5,0.25,100,127.0
6979,C2,789.5,0.25,100,127.0
6980,B-2,789.5,0.5,80,127.0
6981,E5,789.75,0.25,100,127.0
6982,C2,789.75,0.25,100,127.0
6983,D5,790.0,0.5,100,127.0
6984,D2,790.0,0.5,100,127.0
6985,G#5,790.0,0.25,100,127.0
6986,E2,790.0,0.25,100,127.0
6987,C2,790.0,0.25,100,127.0
6988,E5,790.25,0.25,100,127.0
6989,C2,790.25,0.25,100,127.0
6990,E2,790.25,0.25,100,127.0
6991,E5,790.5,303/200,100,127.0
6992,D2,790.5,0.5,100,127.0
6993,A5,790.5,0.25,100,127.0
6994,C2,790.5,0.25,100,127.0
6995,B-2,790.5,0.5,80,127.0
6996,A2,790.66,1.5,80,127.0
6997,C#4,790.66,1.5,80,127.0
6998,E4,790.66,1.5,80,127.0
6999,A3,790.66,1.5,80,127.0
7000,E5,790.75,0.25,100,127.0
7001,C2,790.75,0.25,100,127.0
7002,D2,791.0,0.5,100,127.0
7003,E6,791.0,0.25,100,127.0
7004,C2,791.0,0.25,100,127.0
7005,E2,791.0,0.25,100,127.0
7006,E5,791.25,0.25,100,127.0
7007,C2,791.25,0.25,100,127.0
7008,E2,791.25,0.25,100,127.0
7009,E2,791.5,0.5,100,127.0
7010,C#6,791.5,0.25,100,127.0
7011,C2,791.5,0.25,100,127.0
7012,E2,791.5,0.25,100,127.0
7013,E5,791.75,0.25,100,127.0
7014,C2,791.75,0.25,100,127.0
7015,E2,791.75,0.25,100,127.0
7016,B4,792.0,0.25,100,127.0
7017,E2,792.0,97/200,100,127.0
7018,B5,792.0,0.25,100,127.0
7019,C2,792.0,0.25,100,127.0
7020,C3,792.0,97/200,100,127.0
7021,F#4,792.16,2.5,80,127.0
7022,F#2,792.16,2.5,80,127.0
7023,A3,792.16,2.5,80,127.0
7024,D4,792.16,2.5,80,127.0
7025,A4,792.25,0.25,100,127.0
7026,E5,792.25,0.25,100,127.0
7027,C2,792.25,0.25,100,127.0
7028,G#4,792.5,0.25,100,127.0
7029,E2,792.5,0.5,100,127.0
7030,A5,792.5,0.25,100,127.0
7031,C2,792.5,0.25,100,127.0
7032,E2,792.5,0.25,100,127.0
7033,E4,792.75,0.25,100,127.0
7034,E5,792.75,0.25,100,127.0
7035,C2,792.75,0.25,100,127.0
7036,E2,792.75,0.25,100,127.0
7037,G#5,793.0,2.0,100,127.0
7038,E2,793.0,0.5,100,127.0
7039,G#5,793.0,0.25,100,127.0
7040,C2,793.0,0.25,100,127.0
7041,B-2,793.0,97/200,100,127.0
7042,E5,793.25,0.25,100,127.0
7043,C2,793.25,0.25,100,127.0
7044,E2,793.5,0.5,100,127.0
7045,A5,793.5,0.25,100,127.0
7046,C2,793.5,0.25,100,127.0
7047,E2,793.5,0.25,100,127.0
7048,E5,793.75,0.25,100,127.0
7049,C2,793.75,0.25,100,127.0
7050,E2,793.75,0.25,100,127.0
7051,E1,794.0,0.5,100,127.0
7052,G#5,794.0,0.25,100,127.0
7053,C2,794.021,0.25,100,127.0
7054,E2,794.021,1.0,100,127.0
7055,A3,794.021,1.0,100,127.0
7056,C2,794.021,21/1000,100,127.0
7057,E2,794.021,21/1000,100,127.0
7058,E5,794.25,0.25,100,127.0
7059,C2,794.271,0.25,100,127.0
7060,E1,794.5,0.5,100,127.0
7061,A5,794.5,0.25,100,127.0
7062,C2,794.521,0.25,100,127.0
7063,G#2,794.675,297/200,80,127.0
7064,E4,794.675,297/200,80,127.0
7065,B3,794.675,297/200,80,127.0
7066,G#4,794.675,297/200,80,127.0
7067,F#4,794.675,3/200,80,127.0
7068,F#2,794.675,3/200,80,127.0
7069,A3,794.675,3/200,80,127.0
7070,D4,794.675,3/200,80,127.0
7071,E5,794.75,0.25,100,127.0
7072,C2,794.771,0.25,100,127.0
7073,F#5,795.0,1.0,100,127.0
7074,E1,795.0,0.5,100,127.0
7075,E6,795.0,0.25,100,127.0
7076,C2,795.021,0.25,100,127.0
7077,E2,795.021,1.0,100,127.0
7078,B-2,795.021,97/200,100,127.0
7079,E5,795.25,0.25,100,127.0
7080,C2,795.271,0.25,100,127.0
7081,E1,795.5,0.5,100,127.0
7082,C#6,795.5,0.25,100,127.0
7083,C2,795.521,0.25,100,127.0
7084,B-2,795.521,0.5,60,127.0
7085,E5,795.75,0.25,100,127.0
7086,C2,795.771,0.25,100,127.0
7087,G#5,796.0,0.5,100,127.0
7088,E1,796.0,0.5,100,127.0
7089,B5,796.0,0.25,100,127.0
7090,C2,796.021,0.25,100,127.0
7091,E2,796.021,1.0,100,127.0
7092,B-2,796.021,0.5,100,127.0
7093,A3,796.175,2.5,80,127.0
7094,E4,796.175,2.5,80,127.0
7095,A4,796.175,2.5,80,127.0
7096,A2,796.175,2.5,80,127.0
7097,C#4,796.175,2.5,80,127.0
7098,E5,796.25,0.25,100,127.0
7099,C2,796.271,0.25,100,127.0
7100,B5,796.5,0.5,100,127.0
7101,E1,796.5,0.5,100,127.0
7102,A5,796.5,0.25,100,127.0
7103,C2,796.521,0.25,100,127.0
7104,B-2,796.521,0.5,80,127.0
7105,E5,796.75,0.25,100,127.0
7106,C2,796.771,0.25,100,127.0
7107,B5,797.0,0.5,100,127.0
7108,E1,797.0,0.5,100,127.0
7109,G#5,797.0,0.25,100,127.0
7110,B-2,797.021,0.5,80,127.0
7111,C2,797.021,0.25,100,127.0
7112,E2,797.021,0.25,100,127.0
7113,E5,797.25,0.25,100,127.0
7114,C2,797.271,0.25,100,127.0
7115,B5,797.5,0.5,100,127.0
7116,A1,797.5,0.5,100,127.0
7117,A5,797.5,0.25,100,127.0
7118,C2,797.521,0.5,100,127.0
7119,C#3,797.521,0.5,100,127.0
7120,E5,797.75,0.25,100,127.0
7121,A5,798.0,0.5,100,127.0
7122,A1,798.0,1.5,100,127.0
7123,G#5,798.0,0.25,100,127.0
7124,E5,798.25,0.25,100,127.0
7125,F#5,798.5,1.0,100,127.0
7126,A5,798.5,0.25,100,127.0
7127,E2,798.521,0.5,100,127.0
7128,D4,798.675,1.5,80,127.0
7129,F#4,798.675,1.5,80,127.0
7130,A4,798.675,1.5,80,127.0
7131,D2,798.675,1.5,80,127.0
7132,A3,798.675,3/200,80,127.0
7133,E4,798.675,3/200,80,127.0
7134,A4,798.675,3/200,80,127.0
7135,A2,798.675,3/200,80,127.0
7136,C#4,798.675,3/200,80,127.0
7137,E5,798.75,0.25,100,127.0
7138,E6,799.0,0.25,100,127.0
7139,E2,799.021,0.5,100,127.0
7140,E5,799.25,0.25,100,127.0
7141,F#5,799.5,0.5,100,127.0
7142,F#1,799.5,2.5,100,127.0
7143,C#6,799.5,0.25,100,127.0
7144,C2,799.521,0.5,100,127.0
7145,A3,799.521,0.5,100,127.0
7146,E5,799.75,0.25,100,127.0
7147,E5,800.0,0.5,100,127.0
7148,B5,800.0,0.25,100,127.0
7149,E2,800.175,2.5,80,127.0
7150,B4,800.175,2.5,80,127.0
7151,G#4,800.175,2.5,80,127.0
7152,E4,800.175,2.5,80,127.0
7153,E5,800.25,0.25,100,127.0
7154,E5,800.5,0.5,100,127.0
7155,A5,800.5,0.25,100,127.0
7156,E2,800.521,0.5,100,127.0
7157,E5,800.75,0.25,100,127.0
7158,E5,801.0,0.5,100,127.0
7159,G#5,801.0,0.25,100,127.0
7160,E2,801.021,83/1000,100,127.0
7161,E2,801.104,83/1000,100,127.0
7162,E5,801.25,0.25,100,127.0
7163,E5,801.5,0.5,100,127.0
7164,A5,801.5,0.25,100,127.0
7165,C2,801.521,0.5,100,127.0
7166,E5,801.75,0.25,100,127.0
7167,E5,802.0,2.0,100,127.0
7168,G#1,802.0,297/200,100,127.0
7169,F#1,802.0,3/200,100,127.0
7170,G#5,802.0,0.25,100,127.0
7171,C#3,802.021,0.5,100,127.0
7172,C2,802.021,0.5,100,127.0
7173,E5,802.25,0.25,100,127.0
7174,A5,802.5,0.25,100,127.0
7175,E2,802.521,0.5,100,127.0
7176,B3,802.675,697/200,80,127.0
7177,E4,802.675,697/200,80,127.0
7178,G#4,802.675,697/200,80,127.0
7179,E2,802.675,697/200,80,127.0
7180,E5,802.75,0.25,100,127.0
7181,E6,803.0,0.25,100,127.0
7182,E2,803.021,0.5,100,127.0
7183,E5,803.25,0.25,100,127.0
7184,A1,803.5,2.5,100,127.0
7185,C#6,803.5,0.25,100,127.0
7186,C2,803.521,0.5,100,127.0
7187,A3,803.521,0.5,100,127.0
7188,E5,803.75,0.25,100,127.0
7189,C#5,804.0,0.5,100,127.0
7190,B5,804.0,0.25,100,127.0
7191,E5,804.25,0.25,100,127.0
7192,D5,804.5,0.5,100,127.0
7193,A5,804.5,0.25,100,127.0
7194,C2,804.521,0.5,100,127.0
7195,E5,804.75,0.25,100,127.0
7196,D5,805.0,0.5,100,127.0
7197,G#5,805.0,0.25,100,127.0
7198,E2,805.021,1.0,100,127.0
7199,B-2,805.021,1.0,100,127.0
7200,E5,805.25,0.25,100,127.0
7201,C#5,805.5,0.5,100,127.0
7202,A5,805.5,0.25,100,127.0
7203,E5,805.75,0.25,100,127.0
7204,B4,806.0,0.5,100,127.0
7205,D2,806.0,297/200,100,127.0
7206,A1,806.0,3/200,100,127.0
7207,G#5,806.0,0.25,100,127.0
7208,E2,806.021,83/1000,100,127.0
7209,E2,806.104,83/1000,100,127.0
7210,A2,806.175,0.5,80,127.0
7211,C#4,806.175,0.5,80,127.0
7212,E4,806.175,0.5,80,127.0
7213,A3,806.175,0.5,80,127.0
7214,E5,806.25,0.25,100,127.0
7215,A4,806.5,0.5,100,127.0
7216,A5,806.5,0.25,100,127.0
7217,C2,806.521,0.5,100,127.0
7218,A2,806.675,1.5,80,127.0
7219,C#4,806.675,1.5,80,127.0
7220,E4,806.675,1.5,80,127.0
7221,A3,806.675,1.5,80,127.0
7222,E5,806.75,0.75,100,127.0
7223,G#4,807.0,621/500,100,127.0
7224,C2,807.021,0.5,100,127.0
7225,E2,807.5,2.5,100,127.0
7226,E5,807.5,2.5,100,127.0
7227,C2,807.521,0.5,100,127.0
7228,C#3,807.521,0.5,100,127.0
7229,F#4,808.175,2.5,80,127.0
7230,F#2,808.175,2.5,80,127.0
7231,A3,808.175,2.5,80,127.0
7232,D4,808.175,2.5,80,127.0
7233,E4,808.25,0.25,100,127.0
7234,G#4,808.5,0.125,100,127.0
7235,A4,808.635,0.125,100,127.0
7236,B4,808.75,0.25,100,127.0
7237,E5,809.0,0.25,100,127.0
7238,B4,809.25,0.25,100,127.0
7239,F#5,809.5,0.25,100,127.0
7240,B4,809.75,0.25,100,127.0
7241,G#5,810.0,0.25,100,127.0
7242,E2,810.0,4.0,100,127.0
7243,E5,810.0,4.0,100,127.0
7244,B-2,810.021,0.5,80,127.0
7245,B4,810.25,0.25,100,127.0
7246,A5,810.5,0.25,100,127.0
7247,G#2,810.69,297/200,80,127.0
7248,E4,810.69,297/200,80,127.0
7249,B3,810.69,297/200,80,127.0
7250,G#4,810.69,297/200,80,127.0
7251,F#4,810.69,3/200,80,127.0
7252,F#2,810.69,3/200,80,127.0
7253,A3,810.69,3/200,80,127.0
7254,D4,810.69,3/200,80,127.0
7255,B4,810.75,0.25,100,127.0
7256,G#5,811.0,0.25,100,127.0
7257,B4,811.25,0.25,100,127.0
7258,F#5,811.5,0.25,100,127.0
7259,B4,811.75,0.25,100,127.0
7260,E5,812.0,0.25,100,127.0
7261,A3,812.19,2.5,80,127.0
7262,E4,812.19,2.5,80,127.0
7263,A4,812.19,2.5,80,127.0
7264,A2,812.19,2.5,80,127.0
7265,C#4,812.19,2.5,80,127.0
7266,B4,812.25,0.25,100,127.0
7267,F#5,812.5,0.25,100,127.0
7268,B4,812.75,0.25,100,127.0
7269,E5,813.0,0.25,100,127.0
7270,B4,813.25,0.25,100,127.0
7271,F#5,813.5,0.25,100,127.0
7272,B4,813.75,0.25,100,127.0
7273,G#5,814.0,0.25,100,127.0
7274,E2,814.0,3/200,100,127.0
7275,E5,814.0,3/200,100,127.0
7276,B4,814.25,0.25,100,127.0
7277,A5,814.5,0.25,100,127.0
7278,D4,814.69,1.5,80,127.0
7279,F#4,814.69,1.5,80,127.0
7280,A4,814.69,1.5,80,127.0
7281,D2,814.69,1.5,80,127.0
7282,A3,814.69,3/200,80,127.0
7283,E4,814.69,3/200,80,127.0
7284,A4,814.69,3/200,80,127.0
7285,A2,814.69,3/200,80,127.0
7286,C#4,814.69,3/200,80,127.0
7287,B4,814.75,0.25,100,127.0
7288,G#5,815.0,0.25,100,127.0
7289,B4,815.25,0.25,100,127.0
7290,F#5,815.5,0.25,100,127.0
7291,B4,815.75,0.25,100,127.0
7292,E5,816.0,0.25,100,127.0
7293,E2,816.19,2.5,80,127.0
7294,B4,816.19,2.5,80,127.0
7295,G#4,816.19,2.5,80,127.0
7296,E4,816.19,2.5,80,127.0
7297,B4,816.25,0.25,100,127.0
7298,F#5,816.5,0.25,100,127.0
7299,B4,816.75,0.25,100,127.0
7300,E5,817.0,0.25,100,127.0
7301,B4,817.25,0.25,100,127.0
7302,F#5,817.5,0.25,100,127.0
7303,B4,817.75,0.25,100,127.0
7304,G#5,818.0,0.25,100,127.0
7305,B4,818.25,0.25,100,127.0
7306,A5,818.5,0.25,100,127.0
7307,B3,818.69,697/200,80,127.0
7308,E4,818.69,697/200,80,127.0
7309,G#4,818.69,697/200,80,127.0
7310,E2,818.69,697/200,80,127.0
7311,B4,818.75,0.25,100,127.0
7312,G#5,819.0,0.25,100,127.0
7313,B4,819.25,0.25,100,127.0
7314,F#5,819.5,0.25,100,127.0
7315,B4,819.75,0.25,100,127.0
7316,E5,820.0,0.25,100,127.0
7317,B4,820.25,0.25,100,127.0
7318,F#5,820.5,0.25,100,127.0
7319,B4,820.75,0.25,100,127.0
7320,E5,821.0,0.25,100,127.0
7321,B4,821.25,0.25,100,127.0
7322,F#5,821.5,0.25,100,127.0
7323,B4,821.75,0.25,100,127.0
7324,G#5,822.0,0.25,100,127.0
7325,A2,822.19,0.5,80,127.0
7326,C#4,822.19,0.5,80,127.0
7327,E4,822.19,0.5,80,127.0
7328,A3,822.19,0.5,80,127.0
7329,B4,822.25,0.25,100,127.0
7330,A5,822.5,0.25,100,127.0
7331,A2,822.69,1.5,80,127.0
7332,C#4,822.69,1.5,80,127.0
7333,E4,822.69,1.5,80,127.0
7334,A3,822.69,1.5,80,127.0
7335,B4,822.75,0.25,100,127.0
7336,G#5,823.0,0.25,100,127.0
7337,B4,823.25,0.25,100,127.0
7338,F#5,823.5,0.25,100,127.0
7339,B4,823.75,0.25,100,127.0
7340,E5,824.0,0.25,100,127.0
7341,F#4,824.19,2.5,80,127.0
7342,F#2,824.19,2.5,80,127.0
7343,A3,824.19,2.5,80,127.0
7344,D4,824.19,2.5,80,127.0
7345,B4,824.25,0.25,100,127.0
7346,F#5,824.5,0.25,100,127.0
7347,B4,824.75,0.25,100,127.0
7348,E5,825.0,0.25,100,127.0
7349,B4,825.25,0.25,100,127.0
7350,F#5,825.5,0.25,100,127.0
7351,B4,825.75,0.25,100,127.0
7352,G#5,826.0,0.25,100,127.0
7353,B4,826.25,0.25,100,127.0
7354,A5,826.5,0.25,100,127.0
7355,G#2,826.704,297/200,80,127.0
7356,E4,826.704,297/200,80,127.0
7357,B3,826.704,297/200,80,127.0
7358,G#4,826.704,297/200,80,127.0
7359,F#4,826.704,3/200,80,127.0
7360,F#2,826.704,3/200,80,127.0
7361,A3,826.704,3/200,80,127.0
7362,D4,826.704,3/200,80,127.0
7363,B4,826.75,0.25,100,127.0
7364,G#5,827.0,0.25,100,127.0
7365,B4,827.25,0.25,100,127.0
7366,F#5,827.5,0.25,100,127.0
7367,B4,827.75,0.25,100,127.0
7368,E5,828.0,0.25,100,127.0
7369,A3,828.204,2.5,80,127.0
7370,E4,828.204,2.5,80,127.0
7371,A4,828.204,2.5,80,127.0
7372,A2,828.204,2.5,80,127.0
7373,C#4,828.204,2.5,80,127.0
7374,B4,828.25,0.25,100,127.0
7375,F#5,828.5,0.25,100,127.0
7376,B4,828.75,0.25,100,127.0
7377,E5,829.0,0.25,100,127.0
7378,B4,829.25,0.25,100,127.0
7379,F#5,829.5,0.25,100,127.0
7380,B4,829.75,0.25,100,127.0
7381,G#5,830.0,0.25,100,127.0
7382,B4,830.25,0.25,100,127.0
7383,A5,830.5,0.25,100,127.0
7384,D4,830.704,1.5,80,127.0
7385,F#4,830.704,1.5,80,127.0
7386,A4,830.704,1.5,80,127.0
7387,D2,830.704,1.5,80,127.0
7388,A3,830.704,3/200,80,127.0
7389,E4,830.704,3/200,80,127.0
7390,A4,830.704,3/200,80,127.0
7391,A2,830.704,3/200,80,127.0
7392,C#4,830.704,3/200,80,127.0
7393,B4,830.75,0.25,100,127.0
7394,G#5,831.0,0.25,100,127.0
7395,B4,831.25,0.25,100,127.0
7396,F#5,831.5,0.25,100,127.0
7397,B4,831.75,0.25,100,127.0
7398,E5,832.0,0.25,100,127.0
7399,B4,832.204,2.5,80,127.0
7400,G#4,832.204,2.5,80,127.0
7401,E4,832.204,2.5,80,127.0
7402,E2,832.204,2.5,80,127.0
7403,B4,832.25,0.25,100,127.0
7404,F#5,832.5,0.25,100,127.0
7405,B4,832.75,0.25,100,127.0
7406,E5,833.0,0.25,100,127.0
7407,B4,833.25,0.25,100,127.0
7408,F#5,833.5,0.25,100,127.0
7409,B4,833.75,0.25,100,127.0
7410,G#5,834.0,0.25,100,127.0
7411,B4,834.25,0.25,100,127.0
7412,A5,834.5,0.25,100,127.0
7413,B4,834.75,0.25,100,127.0
7414,G#5,835.0,0.25,100,127.0
7415,B4,835.25,0.25,100,127.0
7416,F#5,835.5,0.25,100,127.0
7417,B4,835.75,0.25,100,127.0
7418,E5,836.0,0.25,100,127.0
7419,B4,836.25,0.25,100,127.0
7420,F#5,836.5,0.25,100,127.0
7421,B4,836.75,0.25,100,127.0
7422,F#5,837.0,0.5,100,127.0
7423,F#5,837.5,0.5,100,127.0
7424,E5,838.0,0.5,100,127.0
7425,E5,838.5,1.0,100,127.0
7426,B4,838.719,4.0,80,127.0
7427,G#4,838.719,4.0,80,127.0
7428,E4,838.719,4.0,80,127.0
7429,E2,838.719,4.0,80,127.0
7430,E5,839.5,1.5,90,127.0
7431,E5,841.0,4.0,90,127.0
7432,B4,842.733,3/200,80,127.0
7433,G#4,842.733,3/200,80,127.0
7434,E4,842.733,3/200,80,127.0
7435,E2,842.733,3/200,80,127.0
7436,E5,845.0,3/200,90,127.0
