,note_name,start_time,duration,velocity,tempo
0,C5,4.5,7/10,88,120
1,C5,5.233,433/1000,70,120
2,B4,5.567,7/10,64,120
3,G4,6.1,0.5,59,120
4,E4,6.633,3/5,48,120
5,E4,7.233,767/1000,51,120
6,G4,7.733,267/1000,40,120
7,C3,7.9,1/10,56,120
8,E3,7.9,1/10,56,120
9,G3,7.967,33/1000,48,120
10,B3,7.967,33/1000,48,120
11,E4,8.0,233/1000,51,120
12,G4,8.0,1733/1000,40,120
13,C3,8.0,3867/1000,56,120
14,E3,8.0,3867/1000,56,120
15,G3,8.0,3933/1000,48,120
16,B3,8.0,3933/1000,48,120
17,E4,10.567,867/1000,64,120
18,G4,11.4,3/10,64,120
19,A4,11.7,3/10,64,120
20,A4,12.0,67/1000,64,120
21,A4,12.1,1/5,36,120
22,G3,12.1,1933/1000,48,120
23,B-3,12.1,1933/1000,48,120
24,D4,12.1,1933/1000,48,120
25,B-4,12.233,333/1000,64,120
26,B-4,12.633,1.0,64,120
27,B-4,13.633,1033/1000,64,120
28,C4,14.067,1833/1000,47,120
29,B-3,14.067,1833/1000,47,120
30,G3,14.067,1833/1000,47,120
31,C5,14.1,1.0,44,120
32,E4,14.567,13/10,36,120
33,B-4,15.5,1/10,40,120
34,B-4,15.633,367/1000,63,120
35,G#4,15.767,233/1000,52,120
36,G4,15.9,1/10,52,120
37,G4,16.0,433/1000,52,120
38,B-4,16.0,167/1000,63,120
39,G#4,16.0,67/1000,52,120
40,G#4,16.1,667/1000,80,120
41,C3,16.133,1933/1000,64,120
42,F2,16.133,1933/1000,64,120
43,F4,16.833,667/1000,55,120
44,C4,16.833,667/1000,55,120
45,G#4,17.533,533/1000,55,120
46,C4,17.533,533/1000,55,120
47,E-4,17.533,533/1000,55,120
48,B-4,18.1,633/1000,67,120
49,D4,18.1,633/1000,67,120
50,B-2,18.1,9/5,64,120
51,D3,18.1,9/5,64,120
52,B-4,18.767,633/1000,86,120
53,D4,18.767,1167/1000,48,120
54,G#4,19.433,567/1000,86,120
55,C2,20.0,1.5,96,120
56,G#4,20.0,33/1000,86,120
57,C2,20.0,0.25,96,120
58,G#2,20.0,0.25,96,120
59,G4,20.0,4.0,64,120
60,E4,20.0,4.0,64,120
61,B3,20.0,4.0,64,120
62,C4,20.0,0.5,64,120
63,E4,20.0,0.5,64,120
64,G4,20.0,0.5,64,120
65,B4,20.0,0.5,64,120
66,G#2,20.25,0.25,96,120
67,G#2,20.5,0.25,96,120
68,C4,20.5,0.5,53,120
69,E4,20.5,0.5,53,120
70,G4,20.5,0.5,53,120
71,B4,20.5,0.5,53,120
72,G#2,20.75,0.25,96,120
73,C#2,21.0,0.25,96,120
74,G#2,21.0,0.25,96,120
75,C4,21.0,0.5,64,120
76,E4,21.0,0.5,64,120
77,G4,21.0,0.5,64,120
78,B4,21.0,0.5,64,120
79,G4,21.0,1.0,64,120
80,D4,21.0,1.0,64,120
81,G#2,21.5,0.25,96,120
82,C2,21.5,0.5,62,120
83,C4,21.5,0.5,62,120
84,E4,21.5,0.5,62,120
85,G4,21.5,0.5,62,120
86,B4,21.5,0.5,62,120
87,G#2,21.75,0.25,96,120
88,C2,22.0,1.5,96,120
89,C2,22.0,0.25,96,120
90,G#2,22.0,0.25,96,120
91,C4,22.0,0.5,64,120
92,E4,22.0,0.5,64,120
93,G4,22.0,0.5,64,120
94,B4,22.0,0.5,64,120
95,G#2,22.25,0.25,96,120
96,G#2,22.5,0.25,96,120
97,C4,22.5,0.5,53,120
98,E4,22.5,0.5,53,120
99,G4,22.5,0.5,53,120
100,B4,22.5,0.5,53,120
101,G4,22.5,1.5,64,120
102,D4,22.5,1.5,64,120
103,C#2,23.0,0.25,96,120
104,G#2,23.0,0.25,96,120
105,C4,23.0,0.5,64,120
106,E4,23.0,0.5,64,120
107,G4,23.0,0.5,64,120
108,B4,23.0,0.5,64,120
109,G#2,23.25,0.25,96,120
110,G#2,23.5,0.25,96,120
111,C2,23.5,0.25,96,120
112,C4,23.5,0.5,53,120
113,E4,23.5,0.5,53,120
114,G4,23.5,0.5,53,120
115,B4,23.5,0.5,53,120
116,G#2,23.75,0.25,86,120
117,C2,23.75,0.25,86,120
118,C2,24.033,0.25,96,120
119,G#2,24.033,0.25,96,120
120,C2,24.033,0.5,69,120
121,C4,24.033,0.5,69,120
122,E4,24.033,0.5,69,120
123,G4,24.033,0.5,69,120
124,B4,24.033,0.5,69,120
125,G4,24.033,0.5,69,120
126,D4,24.033,0.5,69,120
127,G4,24.033,33/1000,64,120
128,E4,24.033,33/1000,64,120
129,B3,24.033,33/1000,64,120
130,G#2,24.533,0.25,96,120
131,C2,24.533,0.5,62,120
132,C4,24.533,0.5,62,120
133,E4,24.533,0.5,62,120
134,G4,24.533,0.5,62,120
135,B4,24.533,0.5,62,120
136,G4,24.533,1.0,64,120
137,D4,24.533,1.0,64,120
138,G#2,24.783,0.25,96,120
139,C#2,25.033,0.25,96,120
140,G#2,25.033,0.25,96,120
141,A1,25.033,0.5,70,120
142,C4,25.033,0.5,70,120
143,E4,25.033,0.5,70,120
144,G4,25.033,0.5,70,120
145,B4,25.033,0.5,70,120
146,G1,25.533,0.5,96,120
147,E-3,25.533,0.25,96,120
148,C2,25.533,0.25,96,120
149,C5,25.533,2.375,64,120
150,F4,25.533,2.375,64,120
151,A4,25.533,2.375,64,120
152,E4,25.533,2.375,64,120
153,G4,25.533,2.375,64,120
154,E4,25.533,2.375,64,120
155,C2,26.033,0.25,96,120
156,G1,26.033,1.5,96,120
157,B3,26.533,0.25,96,120
158,C#2,27.033,0.25,96,120
159,G#2,27.533,0.25,96,120
160,C2,27.533,0.5,96,120
161,G#2,27.783,0.25,96,120
162,C2,28.033,1.5,96,120
163,C2,28.033,0.25,96,120
164,G#2,28.033,0.25,96,120
165,C4,28.033,0.5,64,120
166,E4,28.033,0.5,64,120
167,G4,28.033,0.5,64,120
168,B4,28.033,0.5,64,120
169,G#2,28.283,0.25,96,120
170,G#2,28.533,0.25,96,120
171,C4,28.533,0.5,53,120
172,E4,28.533,0.5,53,120
173,G4,28.533,0.5,53,120
174,B4,28.533,0.5,53,120
175,G4,28.533,0.875,34,120
176,G4,28.533,0.875,34,120
177,E4,28.6,0.875,34,120
178,E4,28.6,0.875,34,120
179,D4,28.667,0.875,34,120
180,D4,28.667,0.875,34,120
181,G#2,28.783,0.25,96,120
182,C#2,29.033,0.25,96,120
183,G#2,29.033,0.25,96,120
184,C4,29.033,0.5,64,120
185,E4,29.033,0.5,64,120
186,G4,29.033,0.5,64,120
187,B4,29.033,0.5,64,120
188,G#2,29.533,0.25,96,120
189,C2,29.533,0.5,62,120
190,C4,29.533,0.5,62,120
191,E4,29.533,0.5,62,120
192,G4,29.533,0.5,62,120
193,B4,29.533,0.5,62,120
194,G4,29.533,0.875,40,120
195,G4,29.533,0.875,40,120
196,E4,29.6,0.875,40,120
197,E4,29.6,0.875,40,120
198,D4,29.667,0.875,40,120
199,D4,29.667,0.875,40,120
200,G#2,29.783,0.25,96,120
201,C2,30.033,1.5,96,120
202,C2,30.033,0.25,96,120
203,G#2,30.033,0.25,96,120
204,C4,30.033,0.5,64,120
205,E4,30.033,0.5,64,120
206,G4,30.033,0.5,64,120
207,B4,30.033,0.5,64,120
208,G#2,30.283,0.25,96,120
209,G#2,30.533,0.25,96,120
210,C4,30.533,0.5,53,120
211,E4,30.533,0.5,53,120
212,G4,30.533,0.5,53,120
213,B4,30.533,0.5,53,120
214,G4,30.533,0.875,46,120
215,G4,30.533,0.875,46,120
216,E4,30.633,0.875,47,120
217,E4,30.633,0.875,47,120
218,D4,30.733,0.875,48,120
219,D4,30.733,0.875,48,120
220,C#2,31.033,0.25,96,120
221,G#2,31.033,0.25,96,120
222,C4,31.033,0.5,64,120
223,E4,31.033,0.5,64,120
224,G4,31.033,0.5,64,120
225,B4,31.033,0.5,64,120
226,G#2,31.283,0.25,96,120
227,G#2,31.533,0.25,96,120
228,C2,31.533,0.5,62,120
229,C4,31.533,0.5,62,120
230,E4,31.533,0.5,62,120
231,G4,31.533,0.5,62,120
232,B4,31.533,0.5,62,120
233,G4,31.533,0.5,52,120
234,G4,31.533,0.5,52,120
235,E4,31.667,367/1000,50,120
236,E4,31.667,367/1000,50,120
237,G#2,31.783,0.25,96,120
238,D4,31.8,233/1000,49,120
239,D4,31.8,233/1000,49,120
240,C2,32.033,3.875,70,120
241,C4,32.033,3.875,70,120
242,E4,32.033,3.875,70,120
243,G4,32.033,3.875,70,120
244,B4,32.033,3.875,70,120
245,C2,32.033,0.25,96,120
246,E-3,32.033,0.25,96,120
247,G4,32.033,3.75,52,120
248,G4,32.033,3.75,52,120
249,E4,32.033,3883/1000,50,120
250,E4,32.033,3883/1000,50,120
251,D4,32.033,4017/1000,49,120
252,D4,32.033,4017/1000,49,120
253,C5,33.517,467/1000,80,120
254,C5,34.033,1/5,80,120
255,B4,34.283,7/20,80,120
256,G4,34.867,283/1000,83,120
257,E4,35.183,233/1000,70,120
258,G4,35.433,3/5,80,120
259,C2,36.05,1.5,96,120
260,G4,36.05,8/5,80,120
261,C2,36.05,0.25,96,120
262,G#2,36.05,0.25,96,120
263,C4,36.05,0.5,64,120
264,E4,36.05,0.5,64,120
265,G4,36.05,0.5,64,120
266,B4,36.05,0.5,64,120
267,G#2,36.3,0.25,96,120
268,G#2,36.55,0.25,96,120
269,C4,36.55,0.5,53,120
270,E4,36.55,0.5,53,120
271,G4,36.55,0.5,53,120
272,B4,36.55,0.5,53,120
273,G#2,36.8,0.25,96,120
274,C#2,37.05,0.25,96,120
275,G#2,37.05,0.25,96,120
276,C4,37.05,0.5,64,120
277,E4,37.05,0.5,64,120
278,G4,37.05,0.5,64,120
279,B4,37.05,0.5,64,120
280,G#2,37.55,0.25,96,120
281,C2,37.55,0.5,62,120
282,C4,37.55,0.5,62,120
283,E4,37.55,0.5,62,120
284,G4,37.55,0.5,62,120
285,B4,37.55,0.5,62,120
286,G#2,37.8,0.25,96,120
287,C2,38.05,2.0,96,120
288,C2,38.05,0.25,96,120
289,G#2,38.05,0.25,96,120
290,C4,38.05,0.5,64,120
291,E4,38.05,0.5,64,120
292,G4,38.05,0.5,64,120
293,B4,38.05,0.5,64,120
294,G#2,38.3,0.25,96,120
295,E4,38.35,17/20,80,120
296,G#2,38.55,0.25,96,120
297,C4,38.55,0.5,53,120
298,E4,38.55,0.5,53,120
299,G4,38.55,0.5,53,120
300,B4,38.55,0.5,53,120
301,C#2,39.05,0.25,96,120
302,G#2,39.05,0.25,96,120
303,C4,39.05,0.5,64,120
304,E4,39.05,0.5,64,120
305,G4,39.05,0.5,64,120
306,B4,39.05,0.5,64,120
307,G4,39.217,483/1000,80,120
308,G#2,39.3,0.25,96,120
309,G#2,39.55,0.25,96,120
310,C4,39.55,0.5,53,120
311,E4,39.55,0.5,53,120
312,G4,39.55,0.5,53,120
313,B4,39.55,0.5,53,120
314,A4,39.683,7/20,80,120
315,G#2,39.8,0.25,96,120
316,G2,40.05,1.5,96,120
317,B-4,40.05,7/10,80,120
318,C2,40.05,0.25,96,120
319,G#2,40.05,0.25,96,120
320,B-4,40.05,0.5,64,120
321,D4,40.05,0.5,64,120
322,F4,40.05,0.5,64,120
323,G3,40.05,0.5,64,120
324,G#2,40.3,0.25,96,120
325,G#2,40.55,0.25,96,120
326,B-4,40.55,0.5,53,120
327,D4,40.55,0.5,53,120
328,F4,40.55,0.5,53,120
329,G3,40.55,0.5,53,120
330,B-4,40.767,683/1000,80,120
331,G#2,40.8,0.25,96,120
332,C#2,41.05,0.25,96,120
333,G#2,41.05,0.25,96,120
334,B-4,41.05,0.5,64,120
335,D4,41.05,0.5,64,120
336,F4,41.05,0.5,64,120
337,G3,41.05,0.5,64,120
338,B-4,41.467,43/20,80,120
339,E-3,41.55,0.25,96,120
340,C2,41.55,0.25,96,120
341,C2,41.55,0.5,62,120
342,B-4,41.55,0.5,62,120
343,D4,41.55,0.5,62,120
344,F4,41.55,0.5,62,120
345,G3,41.55,0.5,62,120
346,C2,42.05,2.0,96,120
347,B-4,42.05,0.5,64,120
348,D4,42.05,0.5,64,120
349,F4,42.05,0.5,64,120
350,G3,42.05,0.5,64,120
351,B3,42.55,0.25,99,120
352,B-4,42.55,0.5,53,120
353,D4,42.55,0.5,53,120
354,F4,42.55,0.5,53,120
355,G3,42.55,0.5,53,120
356,C#2,43.05,0.25,95,120
357,G#2,43.05,0.25,95,120
358,B-4,43.05,0.5,64,120
359,D4,43.05,0.5,64,120
360,F4,43.05,0.5,64,120
361,G3,43.05,0.5,64,120
362,G#2,43.55,0.25,96,120
363,B-4,43.55,0.5,53,120
364,D4,43.55,0.5,53,120
365,F4,43.55,0.5,53,120
366,G3,43.55,0.5,53,120
367,B-4,43.65,383/1000,64,120
368,G#2,43.8,0.25,96,120
369,F2,44.05,1.5,96,120
370,G#4,44.05,633/1000,86,120
371,C2,44.05,0.25,96,120
372,G#2,44.05,0.25,96,120
373,G#4,44.05,0.5,64,120
374,C4,44.05,0.5,64,120
375,E-4,44.05,0.5,64,120
376,F3,44.05,0.5,64,120
377,G#2,44.3,0.25,96,120
378,G#2,44.55,0.25,96,120
379,G#4,44.55,0.5,53,120
380,C4,44.55,0.5,53,120
381,E-4,44.55,0.5,53,120
382,F3,44.55,0.5,53,120
383,G#4,44.717,667/1000,86,120
384,G#2,44.8,0.25,96,120
385,C#2,45.05,0.25,96,120
386,G#2,45.05,0.25,96,120
387,G#4,45.05,0.5,64,120
388,C4,45.05,0.5,64,120
389,E-4,45.05,0.5,64,120
390,F3,45.05,0.5,64,120
391,G#4,45.417,1133/1000,86,120
392,G#2,45.55,0.25,96,120
393,F2,45.55,0.5,62,120
394,G#4,45.55,0.5,62,120
395,C4,45.55,0.5,62,120
396,E-4,45.55,0.5,62,120
397,F3,45.55,0.5,62,120
398,G#2,45.8,0.25,96,120
399,B-1,46.05,1.0,96,120
400,C2,46.05,0.25,96,120
401,G#2,46.05,0.25,96,120
402,G#4,46.05,0.5,64,120
403,C4,46.05,0.5,64,120
404,E-4,46.05,0.5,64,120
405,F3,46.05,0.5,64,120
406,G#2,46.3,0.25,96,120
407,G#2,46.55,0.25,96,120
408,G#4,46.55,0.5,53,120
409,C4,46.55,0.5,53,120
410,E-4,46.55,0.5,53,120
411,F3,46.55,0.5,53,120
412,G#4,46.567,917/1000,86,120
413,C#2,47.05,0.25,96,120
414,G#2,47.05,0.25,96,120
415,B-1,47.05,0.5,70,120
416,G#4,47.05,0.5,70,120
417,C4,47.05,0.5,70,120
418,E-4,47.05,0.5,70,120
419,F3,47.05,0.5,70,120
420,G#2,47.3,0.25,96,120
421,G4,47.517,533/1000,70,120
422,G#2,47.55,0.25,96,120
423,B-1,47.55,0.5,62,120
424,G#4,47.55,0.5,62,120
425,C4,47.55,0.5,62,120
426,E-4,47.55,0.5,62,120
427,F3,47.55,0.5,62,120
428,G#2,47.8,0.25,96,120
429,C2,48.05,1.5,96,120
430,G4,48.05,717/1000,70,120
431,C2,48.05,0.25,96,120
432,G#2,48.05,0.25,96,120
433,C4,48.05,0.5,64,120
434,E4,48.05,0.5,64,120
435,G4,48.05,0.5,64,120
436,B4,48.05,0.5,64,120
437,G#2,48.3,0.25,96,120
438,G#2,48.55,0.25,96,120
439,C4,48.55,0.5,53,120
440,E4,48.55,0.5,53,120
441,G4,48.55,0.5,53,120
442,B4,48.55,0.5,53,120
443,G#2,48.8,0.25,96,120
444,C#2,49.05,0.25,96,120
445,G#2,49.05,0.25,96,120
446,C4,49.05,0.5,64,120
447,E4,49.05,0.5,64,120
448,G4,49.05,0.5,64,120
449,B4,49.05,0.5,64,120
450,E-3,49.55,0.25,96,120
451,C2,49.55,0.25,96,120
452,C2,49.55,483/1000,66,120
453,C4,49.55,483/1000,66,120
454,E4,49.55,483/1000,66,120
455,G4,49.55,483/1000,66,120
456,B4,49.55,483/1000,66,120
457,C5,49.55,483/1000,66,120
458,C2,50.05,233/1000,94,120
459,C5,50.05,233/1000,94,120
460,C4,50.05,0.5,53,120
461,E4,50.05,0.5,53,120
462,G4,50.05,0.5,53,120
463,B4,50.05,0.5,53,120
464,G1,50.3,0.75,96,120
465,B4,50.3,367/1000,91,120
466,B3,50.55,0.25,99,120
467,C4,50.55,0.5,64,120
468,E4,50.55,0.5,64,120
469,C5,50.55,0.5,64,120
470,A4,50.55,0.5,64,120
471,F4,50.8,467/1000,91,120
472,G1,51.05,1.0,94,120
473,C#2,51.05,0.25,95,120
474,G#2,51.05,0.25,95,120
475,C4,51.05,0.5,53,120
476,E4,51.05,0.5,53,120
477,C5,51.05,0.5,53,120
478,A4,51.05,0.5,53,120
479,F4,51.317,733/1000,86,120
480,G#2,51.55,0.25,99,120
481,C4,51.55,0.5,64,120
482,E4,51.55,0.5,64,120
483,C5,51.55,0.5,64,120
484,A4,51.55,0.5,64,120
485,C2,52.05,1.5,96,120
486,F4,52.05,8/5,86,120
487,C2,52.05,0.25,96,120
488,G#2,52.05,0.25,96,120
489,C4,52.05,0.5,64,120
490,E4,52.05,0.5,64,120
491,G4,52.05,0.5,64,120
492,B4,52.05,0.5,64,120
493,G#2,52.3,0.25,96,120
494,G#2,52.55,0.25,96,120
495,C4,52.55,0.5,53,120
496,E4,52.55,0.5,53,120
497,G4,52.55,0.5,53,120
498,B4,52.55,0.5,53,120
499,G#2,52.8,0.25,96,120
500,C#2,53.05,0.25,96,120
501,G#2,53.05,0.25,96,120
502,C4,53.05,0.5,64,120
503,E4,53.05,0.5,64,120
504,G4,53.05,0.5,64,120
505,B4,53.05,0.5,64,120
506,G#2,53.55,0.25,96,120
507,C2,53.55,0.5,62,120
508,C4,53.55,0.5,62,120
509,E4,53.55,0.5,62,120
510,G4,53.55,0.5,62,120
511,B4,53.55,0.5,62,120
512,G#2,53.8,0.25,96,120
513,C2,54.05,1.5,96,120
514,C2,54.05,0.25,96,120
515,G#2,54.05,0.25,96,120
516,C4,54.05,0.5,64,120
517,E4,54.05,0.5,64,120
518,G4,54.05,0.5,64,120
519,B4,54.05,0.5,64,120
520,G#2,54.3,0.25,96,120
521,E4,54.3,1067/1000,83,120
522,G#2,54.55,0.25,96,120
523,C4,54.55,0.5,53,120
524,E4,54.55,0.5,53,120
525,G4,54.55,0.5,53,120
526,B4,54.55,0.5,53,120
527,C#2,55.05,0.25,96,120
528,G#2,55.05,0.25,96,120
529,C4,55.05,0.5,64,120
530,E4,55.05,0.5,64,120
531,G4,55.05,0.5,64,120
532,B4,55.05,0.5,64,120
533,G#2,55.3,0.25,96,120
534,G4,55.383,2/5,83,120
535,G#2,55.55,0.25,96,120
536,A2,55.55,0.5,61,120
537,C4,55.55,0.5,61,120
538,E4,55.55,0.5,61,120
539,G4,55.55,0.5,61,120
540,B4,55.55,0.5,61,120
541,G#2,55.8,233/1000,90,120
542,A4,55.8,233/1000,90,120
543,G2,56.05,1.5,94,120
544,B-4,56.05,733/1000,86,120
545,C2,56.05,0.25,96,120
546,G#2,56.05,0.25,96,120
547,B-4,56.05,0.5,64,120
548,D4,56.05,0.5,64,120
549,F4,56.05,0.5,64,120
550,G3,56.05,0.5,64,120
551,G#2,56.3,0.25,96,120
552,G#2,56.55,0.25,96,120
553,B-4,56.55,0.5,53,120
554,D4,56.55,0.5,53,120
555,F4,56.55,0.5,53,120
556,G3,56.55,0.5,53,120
557,G#2,56.8,0.25,96,120
558,B-4,56.8,733/1000,86,120
559,C#2,57.05,0.25,96,120
560,G#2,57.05,0.25,96,120
561,B-4,57.05,0.5,64,120
562,D4,57.05,0.5,64,120
563,F4,57.05,0.5,64,120
564,G3,57.05,0.5,64,120
565,C2,57.55,1.25,94,120
566,C5,57.55,1733/1000,86,120
567,E-3,57.55,0.25,96,120
568,C2,57.55,0.25,96,120
569,B-4,57.55,0.5,53,120
570,D4,57.55,0.5,53,120
571,F4,57.55,0.5,53,120
572,G3,57.55,0.5,53,120
573,B-4,58.05,0.5,64,120
574,D4,58.05,0.5,64,120
575,F4,58.05,0.5,64,120
576,G3,58.05,0.5,64,120
577,B3,58.55,0.25,99,120
578,B-4,58.55,0.5,53,120
579,D4,58.55,0.5,53,120
580,F4,58.55,0.5,53,120
581,G3,58.55,0.5,53,120
582,C#2,59.05,0.25,95,120
583,G#2,59.05,0.25,95,120
584,B-2,59.05,0.5,70,120
585,B-4,59.05,0.5,70,120
586,D4,59.05,0.5,70,120
587,F4,59.05,0.5,70,120
588,G3,59.05,0.5,70,120
589,B-4,59.317,283/1000,83,120
590,G#2,59.55,0.25,96,120
591,G2,59.55,0.5,61,120
592,B-4,59.55,0.5,61,120
593,D4,59.55,0.5,61,120
594,F4,59.55,0.5,61,120
595,G3,59.55,0.5,61,120
596,G4,59.617,433/1000,83,120
597,G#2,59.8,0.25,96,120
598,F2,60.05,1.5,96,120
599,G4,60.05,683/1000,83,120
600,C2,60.05,0.25,96,120
601,G#2,60.05,0.25,96,120
602,G#4,60.05,0.5,64,120
603,C4,60.05,0.5,64,120
604,E-4,60.05,0.5,64,120
605,F3,60.05,0.5,64,120
606,G#2,60.3,0.25,96,120
607,G#2,60.55,0.25,96,120
608,G#4,60.55,0.5,53,120
609,C4,60.55,0.5,53,120
610,E-4,60.55,0.5,53,120
611,F3,60.55,0.5,53,120
612,G#4,60.767,0.75,80,120
613,G#2,60.8,0.25,96,120
614,C#2,61.05,0.25,96,120
615,G#2,61.05,0.25,96,120
616,G#4,61.05,0.5,64,120
617,C4,61.05,0.5,64,120
618,E-4,61.05,0.5,64,120
619,F3,61.05,0.5,64,120
620,G#2,61.55,0.25,88,120
621,G#4,61.55,0.25,88,120
622,F2,61.55,0.5,62,120
623,G#4,61.55,0.5,62,120
624,C4,61.55,0.5,62,120
625,E-4,61.55,0.5,62,120
626,F3,61.55,0.5,62,120
627,B-4,61.8,517/1000,80,120
628,B-1,62.05,1.0,96,120
629,C2,62.05,0.25,96,120
630,G#2,62.05,0.25,96,120
631,G#4,62.05,0.5,64,120
632,C4,62.05,0.5,64,120
633,E-4,62.05,0.5,64,120
634,F3,62.05,0.5,64,120
635,G#2,62.3,0.25,96,120
636,B-4,62.333,683/1000,80,120
637,G#2,62.55,0.25,96,120
638,G#4,62.55,0.5,53,120
639,C4,62.55,0.5,53,120
640,E-4,62.55,0.5,53,120
641,F3,62.55,0.5,53,120
642,G#2,62.8,0.25,96,120
643,B-1,63.05,0.75,96,120
644,C#2,63.05,0.25,96,120
645,G#2,63.05,0.25,96,120
646,G#4,63.05,0.5,67,120
647,C4,63.05,0.5,67,120
648,E-4,63.05,0.5,67,120
649,F3,63.05,0.5,67,120
650,G#4,63.05,0.5,67,120
651,G#2,63.55,0.25,96,120
652,G#4,63.55,0.5,53,120
653,C4,63.55,0.5,53,120
654,E-4,63.55,0.5,53,120
655,F3,63.55,0.5,53,120
656,G4,63.567,483/1000,75,120
657,G#2,63.8,0.25,96,120
658,B-1,63.8,0.25,96,120
659,C2,64.05,1.5,96,120
660,G4,64.05,1033/1000,75,120
661,C2,64.05,0.25,96,120
662,G#2,64.05,0.25,96,120
663,C4,64.05,0.5,64,120
664,E4,64.05,0.5,64,120
665,G4,64.05,0.5,64,120
666,B4,64.05,0.5,64,120
667,G#2,64.3,0.25,96,120
668,G#2,64.55,0.25,96,120
669,C4,64.55,0.5,53,120
670,E4,64.55,0.5,53,120
671,G4,64.55,0.5,53,120
672,B4,64.55,0.5,53,120
673,G#2,64.8,0.25,96,120
674,C#2,65.05,0.25,96,120
675,G#2,65.05,0.25,96,120
676,C4,65.05,0.5,64,120
677,E4,65.05,0.5,64,120
678,G4,65.05,0.5,64,120
679,B4,65.05,0.5,64,120
680,G#2,65.55,0.25,96,120
681,C2,65.55,0.5,62,120
682,C4,65.55,0.5,62,120
683,E4,65.55,0.5,62,120
684,G4,65.55,0.5,62,120
685,B4,65.55,0.5,62,120
686,G4,66.048,0.5,68,120
687,C4,66.048,0.5,68,120
688,E4,66.048,0.5,68,120
689,G4,66.048,0.5,68,120
690,B4,66.048,0.5,68,120
691,G#2,66.05,0.25,96,120
692,C2,66.05,0.25,96,120
693,C2,66.05,0.25,96,120
694,E2,66.3,0.75,97,120
695,A4,66.548,0.5,62,120
696,C4,66.548,0.5,62,120
697,E4,66.548,0.5,62,120
698,G4,66.548,0.5,62,120
699,B4,66.548,0.5,62,120
700,B-2,66.55,0.25,96,120
701,C5,67.048,0.25,99,120
702,G#2,67.048,0.25,99,120
703,C#2,67.048,0.25,99,120
704,F1,67.05,0.375,96,120
705,C4,67.05,0.5,64,120
706,E4,67.05,0.5,64,120
707,G4,67.05,0.5,64,120
708,B4,67.05,0.5,64,120
709,C#5,67.315,3/20,64,120
710,C#5,67.548,251/500,96,120
711,G#2,67.55,0.25,96,120
712,F#1,67.55,0.375,96,120
713,C4,67.55,0.5,53,120
714,E4,67.55,0.5,53,120
715,G4,67.55,0.5,53,120
716,B4,67.55,0.5,53,120
717,G1,68.05,1.5,99,120
718,C#5,68.05,2481/1000,96,120
719,G#2,68.05,0.25,96,120
720,C2,68.05,0.25,96,120
721,D4,68.05,0.5,64,120
722,F4,68.05,0.5,64,120
723,B3,68.05,0.5,64,120
724,A3,68.05,0.5,64,120
725,F4,68.05,3.875,64,120
726,D4,68.05,3.875,64,120
727,B3,68.05,3.875,64,120
728,A3,68.05,3.875,64,120
729,G3,68.05,3.875,64,120
730,G#2,68.3,0.25,96,120
731,G#2,68.55,0.25,96,120
732,B3,68.55,0.5,53,120
733,D4,68.55,0.5,53,120
734,F4,68.55,0.5,53,120
735,A3,68.55,0.5,53,120
736,G#2,68.8,0.25,96,120
737,G#2,69.05,0.25,96,120
738,C#2,69.05,0.25,96,120
739,B3,69.05,0.5,64,120
740,D4,69.05,0.5,64,120
741,F4,69.05,0.5,64,120
742,A3,69.05,0.5,64,120
743,G#2,69.55,0.25,96,120
744,G1,69.55,0.5,62,120
745,B3,69.55,0.5,62,120
746,D4,69.55,0.5,62,120
747,F4,69.55,0.5,62,120
748,A3,69.55,0.5,62,120
749,G#2,69.8,0.25,96,120
750,G2,70.05,1.0,99,120
751,G#2,70.05,0.25,96,120
752,C2,70.05,0.25,96,120
753,B3,70.05,0.5,64,120
754,D4,70.05,0.5,64,120
755,F4,70.05,0.5,64,120
756,A3,70.05,0.5,64,120
757,G#2,70.3,0.25,96,120
758,C5,70.548,733/1000,96,120
759,G#2,70.55,0.25,96,120
760,B3,70.55,0.5,53,120
761,D4,70.55,0.5,53,120
762,F4,70.55,0.5,53,120
763,A3,70.55,0.5,53,120
764,G2,71.05,0.25,97,120
765,G#2,71.05,0.25,97,120
766,C#2,71.05,0.25,97,120
767,B3,71.05,0.5,64,120
768,D4,71.05,0.5,64,120
769,F4,71.05,0.5,64,120
770,A3,71.05,0.5,64,120
771,F#2,71.3,0.25,98,120
772,G#2,71.3,0.25,98,120
773,B4,71.431,619/1000,81,120
774,G#2,71.55,0.25,96,120
775,F2,71.55,0.5,62,120
776,B3,71.55,0.5,62,120
777,D4,71.55,0.5,62,120
778,F4,71.55,0.5,62,120
779,A3,71.55,0.5,62,120
780,B4,72.05,1831/1000,81,120
781,E2,72.05,1.5,69,120
782,F#4,72.05,1.5,69,120
783,F#4,72.05,1.5,69,120
784,B3,72.05,1.5,69,120
785,G#3,72.05,1.5,69,120
786,D4,72.05,1.5,69,120
787,D4,72.05,1.5,69,120
788,G#2,72.05,0.25,96,120
789,C2,72.05,0.25,96,120
790,F#4,72.05,0.5,64,120
791,F#4,72.05,0.5,64,120
792,B3,72.05,0.5,64,120
793,G#3,72.05,0.5,64,120
794,D4,72.05,0.5,64,120
795,D4,72.05,0.5,64,120
796,G#2,72.3,0.25,96,120
797,G#2,72.55,0.25,96,120
798,F#4,72.55,0.5,53,120
799,F#4,72.55,0.5,53,120
800,B3,72.55,0.5,53,120
801,G#3,72.55,0.5,53,120
802,D4,72.55,0.5,53,120
803,D4,72.55,0.5,53,120
804,G#2,72.8,0.25,96,120
805,G#2,73.05,0.25,96,120
806,C#2,73.05,0.25,96,120
807,F#4,73.05,0.5,64,120
808,F#4,73.05,0.5,64,120
809,B3,73.05,0.5,64,120
810,G#3,73.05,0.5,64,120
811,D4,73.05,0.5,64,120
812,D4,73.05,0.5,64,120
813,B1,73.55,0.25,96,120
814,E-3,73.55,0.25,96,120
815,F#4,73.55,0.5,53,120
816,F#4,73.55,0.5,53,120
817,B3,73.55,0.5,53,120
818,G#3,73.55,0.5,53,120
819,D4,73.55,0.5,53,120
820,D4,73.55,0.5,53,120
821,F#4,73.55,0.375,64,120
822,F#4,73.55,0.375,64,120
823,B3,73.55,0.375,64,120
824,G#3,73.55,0.375,64,120
825,D4,73.55,0.375,64,120
826,D4,73.55,0.375,64,120
827,B-1,73.8,0.25,96,120
828,E1,74.05,1.0,96,120
829,C2,74.05,0.25,96,120
830,F4,74.05,0.5,64,120
831,F4,74.05,0.5,64,120
832,B3,74.05,0.5,64,120
833,G#3,74.05,0.5,64,120
834,D4,74.05,0.5,64,120
835,D4,74.05,0.5,64,120
836,F4,74.05,1.5,64,120
837,F4,74.05,1.5,64,120
838,B3,74.05,1.5,64,120
839,G#3,74.05,1.5,64,120
840,D4,74.05,1.5,64,120
841,D4,74.05,1.5,64,120
842,F5,74.548,767/1000,96,120
843,B3,74.55,0.25,96,120
844,F4,74.55,0.5,53,120
845,F4,74.55,0.5,53,120
846,B3,74.55,0.5,53,120
847,G#3,74.55,0.5,53,120
848,D4,74.55,0.5,53,120
849,D4,74.55,0.5,53,120
850,E2,75.05,1.0,96,120
851,C#2,75.05,0.25,96,120
852,G#2,75.05,0.25,96,120
853,F4,75.05,0.5,64,120
854,F4,75.05,0.5,64,120
855,B3,75.05,0.5,64,120
856,G#3,75.05,0.5,64,120
857,D4,75.05,0.5,64,120
858,D4,75.05,0.5,64,120
859,E5,75.548,251/500,95,120
860,G#2,75.55,0.25,96,120
861,F4,75.55,0.5,53,120
862,F4,75.55,0.5,53,120
863,B3,75.55,0.5,53,120
864,G#3,75.55,0.5,53,120
865,D4,75.55,0.5,53,120
866,D4,75.55,0.5,53,120
867,F4,75.55,0.375,64,120
868,F4,75.55,0.375,64,120
869,B3,75.55,0.375,64,120
870,G#3,75.55,0.375,64,120
871,D4,75.55,0.375,64,120
872,D4,75.55,0.375,64,120
873,G#2,75.8,0.25,96,120
874,A1,76.05,1.375,96,120
875,E5,76.05,249/500,95,120
876,G#2,76.05,0.25,96,120
877,C2,76.05,0.25,96,120
878,A3,76.05,0.5,64,120
879,C4,76.05,0.5,64,120
880,G3,76.05,0.5,64,120
881,E3,76.05,0.5,64,120
882,A3,76.05,1.5,64,120
883,C4,76.05,1.5,64,120
884,G3,76.05,1.5,64,120
885,E3,76.05,1.5,64,120
886,G#2,76.3,0.25,96,120
887,D5,76.548,1751/500,96,120
888,G#2,76.55,0.25,96,120
889,A3,76.55,0.5,53,120
890,C4,76.55,0.5,53,120
891,G3,76.55,0.5,53,120
892,E3,76.55,0.5,53,120
893,G#2,76.8,0.25,96,120
894,G#2,77.05,0.25,96,120
895,C#2,77.05,0.25,96,120
896,A3,77.05,0.5,64,120
897,C4,77.05,0.5,64,120
898,G3,77.05,0.5,64,120
899,E3,77.05,0.5,64,120
900,G#2,77.55,0.25,96,120
901,A2,77.55,0.5,58,120
902,A3,77.55,0.5,58,120
903,C4,77.55,0.5,58,120
904,G3,77.55,0.5,58,120
905,E3,77.55,0.5,58,120
906,A3,77.55,0.5,58,120
907,C4,77.55,0.5,58,120
908,G3,77.55,0.5,58,120
909,E3,77.55,0.5,58,120
910,G#2,77.8,0.25,96,120
911,G2,78.05,1.25,94,120
912,G#2,78.05,0.25,96,120
913,C2,78.05,0.25,96,120
914,A3,78.05,0.5,64,120
915,G3,78.05,0.5,64,120
916,B3,78.05,0.5,64,120
917,D3,78.05,0.5,64,120
918,A3,78.05,1.5,64,120
919,G3,78.05,1.5,64,120
920,B3,78.05,1.5,64,120
921,D3,78.05,1.5,64,120
922,G#2,78.55,0.25,96,120
923,A3,78.55,0.5,53,120
924,G3,78.55,0.5,53,120
925,B3,78.55,0.5,53,120
926,D3,78.55,0.5,53,120
927,G#2,78.8,0.25,96,120
928,C#2,79.05,0.25,96,120
929,G#2,79.05,0.25,96,120
930,A3,79.05,0.5,64,120
931,G3,79.05,0.5,64,120
932,B3,79.05,0.5,64,120
933,D3,79.05,0.5,64,120
934,F#2,79.3,0.25,96,120
935,F2,79.55,0.5,96,120
936,C2,79.55,0.25,100,120
937,E-3,79.55,0.25,100,120
938,E4,79.55,0.5,67,120
939,C4,79.55,0.5,67,120
940,F3,79.55,0.5,67,120
941,A3,79.55,0.5,67,120
942,E4,79.55,0.5,67,120
943,C4,79.55,0.5,67,120
944,F3,79.55,0.5,67,120
945,A3,79.55,0.5,67,120
946,F2,80.05,3.875,96,120
947,D5,80.05,1431/1000,96,120
948,E4,80.05,3.75,67,120
949,C4,80.05,3.75,67,120
950,F3,80.05,3.75,67,120
951,A3,80.05,3.75,67,120
952,E4,80.05,3.75,67,120
953,C4,80.05,3.75,67,120
954,F3,80.05,3.75,67,120
955,A3,80.05,3.75,67,120
956,G4,81.581,133/1000,50,120
957,C5,81.798,0.25,75,120
958,C5,82.315,7/20,75,120
959,A4,82.781,217/1000,75,120
960,G#2,83.05,0.25,64,120
961,A4,83.265,157/200,73,120
962,B-2,84.05,11/40,105,120
963,A4,84.05,2931/1000,73,120
964,F5,84.05,3.875,47,120
965,D5,84.05,3.875,47,120
966,A4,84.05,3.875,47,120
967,B-4,84.05,1.5,54,120
968,D4,84.05,1.5,54,120
969,F4,84.05,1.5,54,120
970,B-3,84.05,1.5,54,120
971,D3,84.55,11/40,105,120
972,F3,85.05,367/1000,105,120
973,B-3,85.55,0.375,105,120
974,B-2,85.55,2.375,78,120
975,B-3,85.55,2.375,78,120
976,G#2,86.05,0.25,64,120
977,G#2,86.55,0.25,64,120
978,G#2,86.8,0.25,64,120
979,G#2,87.05,0.25,64,120
980,A4,87.537,467/1000,93,120
981,G#2,87.55,0.25,64,120
982,A1,88.05,0.25,57,120
983,G#2,88.05,0.25,57,120
984,A3,88.05,0.25,57,120
985,A2,88.05,0.25,57,120
986,E3,88.05,0.25,57,120
987,A1,88.05,0.25,57,120
988,C#3,88.05,0.25,57,120
989,E5,88.05,0.375,71,120
990,C#5,88.05,0.375,71,120
991,A4,88.05,0.375,71,120
992,A4,88.05,0.375,71,120
993,G#2,88.55,0.25,64,120
994,C#2,88.55,1.0,78,120
995,E5,88.55,1.0,78,120
996,C#5,88.55,1.0,78,120
997,A4,88.55,1.0,78,120
998,A3,88.55,1.0,78,120
999,A2,88.55,1.0,78,120
1000,C#3,88.55,1.0,78,120
1001,C#5,88.55,1.0,78,120
1002,E3,88.55,1.0,78,120
1003,C#2,88.55,1.0,78,120
1004,D2,89.55,0.625,105,120
1005,G#2,89.55,0.25,64,120
1006,D5,89.55,1.0,76,120
1007,G4,89.55,1.0,76,120
1008,D5,89.55,1.0,76,120
1009,A3,89.55,1.0,76,120
1010,C3,89.55,1.0,76,120
1011,F3,89.55,1.0,76,120
1012,C4,89.55,1.0,76,120
1013,D2,89.55,1.0,76,120
1014,B-2,90.55,0.25,108,120
1015,C5,90.55,1.5,91,120
1016,E2,90.55,1.375,76,120
1017,C5,90.55,1.375,76,120
1018,G4,90.55,1.375,76,120
1019,E4,90.55,1.375,76,120
1020,E3,90.55,1.375,76,120
1021,C4,90.55,1.375,76,120
1022,G3,90.55,1.375,76,120
1023,E2,90.55,1.375,76,120
1024,E2,91.05,0.25,96,120
1025,E2,91.3,0.25,83,120
1026,D2,91.55,0.25,94,120
1027,F2,92.05,0.25,87,120
1028,C2,92.05,0.25,87,120
1029,E-3,92.05,0.25,87,120
1030,F2,92.05,0.25,87,120
1031,F4,92.05,0.25,87,120
1032,C4,92.05,0.25,87,120
1033,A3,92.05,0.25,87,120
1034,F5,92.05,0.375,72,120
1035,C5,92.05,0.375,72,120
1036,A4,92.05,0.375,72,120
1037,C5,92.05,0.375,72,120
1038,E2,92.55,967/1000,78,120
1039,E5,92.55,967/1000,78,120
1040,G4,92.55,967/1000,78,120
1041,C5,92.55,967/1000,78,120
1042,E2,92.55,967/1000,78,120
1043,E4,92.55,967/1000,78,120
1044,C4,92.55,967/1000,78,120
1045,G3,92.55,967/1000,78,120
1046,D5,92.55,967/1000,78,120
1047,C2,92.55,0.25,96,120
1048,E-3,92.55,0.25,96,120
1049,D2,93.55,0.625,105,120
1050,C2,93.55,0.25,96,120
1051,E-3,93.55,0.25,96,120
1052,D5,93.55,1.0,75,120
1053,F4,93.55,1.0,75,120
1054,A4,93.55,1.0,75,120
1055,E5,93.55,1.0,75,120
1056,D2,93.55,1.0,75,120
1057,A3,93.55,1.0,75,120
1058,D4,93.55,1.0,75,120
1059,F3,93.55,1.0,75,120
1060,G1,94.55,983/1000,78,120
1061,C5,94.55,983/1000,78,120
1062,F4,94.55,983/1000,78,120
1063,A4,94.55,983/1000,78,120
1064,G1,94.55,983/1000,78,120
1065,C4,94.55,983/1000,78,120
1066,A3,94.55,983/1000,78,120
1067,F3,94.55,983/1000,78,120
1068,C5,94.55,983/1000,78,120
1069,C2,94.55,0.25,96,120
1070,E-3,94.55,0.25,96,120
1071,C2,95.55,0.5,83,120
1072,C2,95.55,0.5,83,120
1073,E3,95.55,0.5,83,120
1074,G3,95.55,0.5,83,120
1075,C4,95.55,0.5,83,120
1076,C2,95.55,0.25,96,120
1077,E-3,95.55,0.25,96,120
1078,C5,95.55,0.5,64,120
1079,E4,95.55,0.5,64,120
1080,G4,95.55,0.5,64,120
1081,C5,95.567,483/1000,96,120
1082,C5,96.05,983/1000,96,120
1083,C2,96.05,3.75,83,120
1084,C2,96.05,3.75,83,120
1085,E3,96.05,3.75,83,120
1086,G3,96.05,3.75,83,120
1087,C4,96.05,3.75,83,120
1088,C5,96.05,3.625,64,120
1089,E4,96.05,3.625,64,120
1090,G4,96.05,3.625,64,120
1091,E2,96.55,167/1000,67,120
1092,E2,96.717,167/1000,67,120
1093,E2,96.883,167/1000,67,120
1094,D2,97.05,0.25,96,120
1095,C5,97.537,483/1000,80,120
1096,C5,98.037,467/1000,80,120
1097,G4,98.554,467/1000,80,120
1098,G4,99.037,267/1000,80,120
1099,A4,99.321,729/1000,80,120
1100,B-2,99.55,0.25,64,120
1101,B-2,100.05,1.375,64,120
1102,A4,100.05,1127/500,80,120
1103,B-2,100.05,0.25,84,120
1104,G#2,100.05,0.25,84,120
1105,F5,100.05,3.875,63,120
1106,B-4,100.05,3.875,63,120
1107,D5,100.05,3.875,63,120
1108,D3,100.55,0.25,84,120
1109,G#2,100.55,0.25,84,120
1110,F3,101.05,367/1000,96,120
1111,G#2,101.05,0.25,72,120
1112,B-3,101.55,0.375,96,120
1113,G#2,101.55,0.25,72,120
1114,B-3,101.55,2.375,70,120
1115,B-2,101.55,2.375,70,120
1116,D3,101.55,2.375,70,120
1117,G#2,102.05,0.25,72,120
1118,G#2,102.55,0.25,72,120
1119,G#2,103.05,0.25,72,120
1120,A4,103.537,467/1000,96,120
1121,G#2,103.55,0.25,72,120
1122,G#2,103.8,0.25,54,120
1123,A4,104.037,3/250,73,120
1124,A1,104.037,3/250,73,120
1125,C2,104.037,3/250,73,120
1126,E-3,104.037,3/250,73,120
1127,A3,104.037,3/250,73,120
1128,A2,104.037,3/250,73,120
1129,E3,104.037,3/250,73,120
1130,A1,104.037,3/250,73,120
1131,C#3,104.037,3/250,73,120
1132,E5,104.05,0.375,64,120
1133,C#5,104.05,0.375,64,120
1134,A4,104.05,0.375,64,120
1135,A4,104.05,119/500,73,120
1136,A1,104.05,119/500,73,120
1137,C2,104.05,119/500,73,120
1138,E-3,104.05,119/500,73,120
1139,A3,104.05,119/500,73,120
1140,A2,104.05,119/500,73,120
1141,E3,104.05,119/500,73,120
1142,A1,104.05,119/500,73,120
1143,C#3,104.05,119/500,73,120
1144,C#5,104.537,1.0,80,120
1145,C#2,104.537,1.0,80,120
1146,E5,104.537,1.0,80,120
1147,C#5,104.537,1.0,80,120
1148,A4,104.537,1.0,80,120
1149,A3,104.537,1.0,80,120
1150,A2,104.537,1.0,80,120
1151,C#3,104.537,1.0,80,120
1152,E3,104.537,1.0,80,120
1153,C#2,104.537,1.0,80,120
1154,C2,104.55,0.25,96,120
1155,E-3,104.55,0.25,96,120
1156,D5,105.537,1.0,79,120
1157,D5,105.537,1.0,79,120
1158,G4,105.537,1.0,79,120
1159,A3,105.537,1.0,79,120
1160,C3,105.537,1.0,79,120
1161,F3,105.537,1.0,79,120
1162,C4,105.537,1.0,79,120
1163,D2,105.537,1.0,79,120
1164,D2,105.55,0.625,105,120
1165,C2,105.55,0.25,96,120
1166,E-3,105.55,0.25,96,120
1167,G#2,106.05,0.25,96,120
1168,C5,106.537,1.375,80,120
1169,E2,106.537,1.375,80,120
1170,C5,106.537,1.375,80,120
1171,G4,106.537,1.375,80,120
1172,E4,106.537,1.375,80,120
1173,E3,106.537,1.375,80,120
1174,C4,106.537,1.375,80,120
1175,G3,106.537,1.375,80,120
1176,E2,106.537,1.375,80,120
1177,C2,106.55,0.25,96,120
1178,G#2,106.55,0.25,96,120
1179,E2,107.05,0.25,72,120
1180,E2,107.3,0.25,94,120
1181,D2,107.55,0.25,96,120
1182,C5,108.037,3/250,92,120
1183,F2,108.037,3/250,92,120
1184,C2,108.037,3/250,92,120
1185,E-3,108.037,3/250,92,120
1186,F2,108.037,3/250,92,120
1187,F4,108.037,3/250,92,120
1188,C4,108.037,3/250,92,120
1189,A3,108.037,3/250,92,120
1190,F5,108.05,0.375,64,120
1191,C5,108.05,0.375,64,120
1192,A4,108.05,0.375,64,120
1193,C5,108.05,119/500,92,120
1194,F2,108.05,119/500,92,120
1195,C2,108.05,119/500,92,120
1196,E-3,108.05,119/500,92,120
1197,F2,108.05,119/500,92,120
1198,F4,108.05,119/500,92,120
1199,C4,108.05,119/500,92,120
1200,A3,108.05,119/500,92,120
1201,D5,108.537,1.0,80,120
1202,E2,108.537,1.0,80,120
1203,E5,108.537,1.0,80,120
1204,G4,108.537,1.0,80,120
1205,C5,108.537,1.0,80,120
1206,E2,108.537,1.0,80,120
1207,E4,108.537,1.0,80,120
1208,C4,108.537,1.0,80,120
1209,G3,108.537,1.0,80,120
1210,C2,108.55,0.25,104,120
1211,E-3,108.55,0.25,104,120
1212,D5,109.537,1.0,77,120
1213,D5,109.537,1.0,77,120
1214,F4,109.537,1.0,77,120
1215,A4,109.537,1.0,77,120
1216,D2,109.537,1.0,77,120
1217,A3,109.537,1.0,77,120
1218,D4,109.537,1.0,77,120
1219,F3,109.537,1.0,77,120
1220,D2,109.55,0.5,105,120
1221,C2,109.55,0.25,104,120
1222,E-3,109.55,0.25,104,120
1223,F2,110.519,0.25,95,120
1224,F2,110.519,0.25,95,120
1225,E2,110.519,0.25,95,120
1226,E2,110.785,0.25,95,120
1227,E2,110.785,0.25,95,120
1228,E2,110.785,0.25,95,120
1229,D2,111.019,0.25,91,120
1230,D2,111.019,0.25,91,120
1231,E2,111.019,0.25,91,120
1232,A1,111.519,0.25,95,120
1233,A1,111.519,0.25,95,120
1234,D2,111.519,0.25,95,120
1235,G#1,111.752,1/5,94,120
1236,G#1,111.8,0.25,96,120
1237,D2,111.8,0.25,96,120
1238,G1,112.019,0.031,94,120
1239,G1,112.05,169/1000,94,120
1240,G1,112.05,0.25,90,120
1241,D2,112.05,0.25,90,120
1242,C5,112.537,1.0,81,120
1243,G1,112.537,1.0,81,120
1244,C5,112.537,1.0,81,120
1245,A4,112.537,1.0,81,120
1246,F4,112.537,1.0,81,120
1247,G1,112.537,1.0,81,120
1248,C4,112.537,1.0,81,120
1249,A3,112.537,1.0,81,120
1250,F3,112.537,1.0,81,120
1251,C#3,112.55,0.25,91,120
1252,C2,112.55,0.25,91,120
1253,C2,113.55,1.375,86,120
1254,C2,113.55,2.5,74,120
1255,C5,113.55,2.5,74,120
1256,E4,113.55,2.5,74,120
1257,G4,113.55,2.5,74,120
1258,C#3,113.55,0.25,91,120
1259,C2,113.55,0.25,91,120
1260,E3,113.55,2.375,86,120
1261,G3,113.55,2.375,86,120
1262,C4,113.55,2.375,86,120
1263,C5,113.554,1.0,94,120
1264,E2,114.55,0.25,96,120
1265,D2,115.05,0.25,78,120
1266,C2,115.05,1.0,83,120
1267,E2,115.3,0.25,96,120
1268,D2,115.55,0.25,83,120
1269,C5,116.037,3/250,91,120
1270,F2,116.037,3/250,91,120
1271,C#3,116.037,3/250,91,120
1272,C2,116.037,3/250,91,120
1273,F2,116.037,3/250,91,120
1274,F4,116.037,3/250,91,120
1275,C4,116.037,3/250,91,120
1276,A3,116.037,3/250,91,120
1277,F5,116.05,0.375,64,120
1278,C5,116.05,0.375,64,120
1279,A4,116.05,0.375,64,120
1280,C5,116.05,119/500,91,120
1281,F2,116.05,119/500,91,120
1282,C#3,116.05,119/500,91,120
1283,C2,116.05,119/500,91,120
1284,F2,116.05,119/500,91,120
1285,F4,116.05,119/500,91,120
1286,C4,116.05,119/500,91,120
1287,A3,116.05,119/500,91,120
1288,D5,116.537,1.0,81,120
1289,E2,116.537,1.0,81,120
1290,E5,116.537,1.0,81,120
1291,G4,116.537,1.0,81,120
1292,C5,116.537,1.0,81,120
1293,E2,116.537,1.0,81,120
1294,E4,116.537,1.0,81,120
1295,C4,116.537,1.0,81,120
1296,G3,116.537,1.0,81,120
1297,C#3,116.55,0.25,96,120
1298,C2,116.55,0.25,96,120
1299,D2,117.55,0.625,105,120
1300,C#3,117.55,0.25,96,120
1301,C2,117.55,0.25,96,120
1302,D5,117.55,124/125,78,120
1303,F4,117.55,124/125,78,120
1304,A4,117.55,124/125,78,120
1305,D2,117.55,124/125,78,120
1306,A3,117.55,124/125,78,120
1307,D4,117.55,124/125,78,120
1308,F3,117.55,124/125,78,120
1309,D5,117.55,124/125,78,120
1310,G1,118.55,983/1000,82,120
1311,C5,118.55,983/1000,82,120
1312,A4,118.55,983/1000,82,120
1313,F4,118.55,983/1000,82,120
1314,G1,118.55,983/1000,82,120
1315,C4,118.55,983/1000,82,120
1316,A3,118.55,983/1000,82,120
1317,F3,118.55,983/1000,82,120
1318,C5,118.55,983/1000,82,120
1319,C#3,118.55,0.25,98,120
1320,C2,118.55,0.25,98,120
1321,E-3,118.55,0.25,98,120
1322,C2,119.55,0.5,102,120
1323,A3,119.55,0.25,104,120
1324,C2,119.55,0.25,104,120
1325,C5,119.55,0.5,64,120
1326,G4,119.55,0.5,64,120
1327,E4,119.55,0.5,64,120
1328,C2,119.55,0.5,86,120
1329,E3,119.55,0.5,86,120
1330,G3,119.55,0.5,86,120
1331,C4,119.55,0.5,86,120
1332,C5,119.554,62/125,99,120
1333,C2,120.05,0.875,102,120
1334,C5,120.05,63/125,99,120
1335,C5,120.05,1.875,64,120
1336,G4,120.05,1.875,64,120
1337,E4,120.05,1.875,64,120
1338,C2,120.05,1.0,86,120
1339,E3,120.05,1.0,86,120
1340,G3,120.05,1.0,86,120
1341,C4,120.05,1.0,86,120
1342,E2,120.55,0.25,80,120
1343,E2,120.8,0.25,78,120
1344,G1,121.05,2.875,87,120
1345,G2,121.05,2.875,87,120
1346,G1,121.05,2.875,87,120
1347,C3,121.05,2.875,87,120
1348,A3,121.05,2.875,87,120
1349,F3,121.05,2.875,87,120
1350,C2,121.05,0.25,99,120
1351,D2,121.05,0.25,99,120
1352,G4,122.046,483/1000,96,120
1353,A4,122.546,483/1000,104,120
1354,E2,122.8,0.25,80,120
1355,C5,123.046,0.25,100,120
1356,E2,123.046,0.25,100,120
1357,D5,123.312,217/1000,104,120
1358,D2,123.55,0.25,96,120
1359,E5,123.55,0.5,104,120
1360,G4,124.023,27/1000,85,120
1361,C5,124.023,27/1000,85,120
1362,E4,124.023,27/1000,85,120
1363,C3,124.023,27/1000,85,120
1364,C2,124.023,27/1000,85,120
1365,C5,124.023,27/1000,85,120
1366,G4,124.023,27/1000,85,120
1367,E5,124.023,27/1000,85,120
1368,C2,124.023,27/1000,85,120
1369,E5,124.05,2467/1000,104,120
1370,C2,124.05,0.25,96,120
1371,G#2,124.05,0.25,96,120
1372,C#3,124.05,0.25,96,120
1373,G4,124.05,1473/1000,85,120
1374,C5,124.05,1473/1000,85,120
1375,E4,124.05,1473/1000,85,120
1376,C3,124.05,1473/1000,85,120
1377,C2,124.05,1473/1000,85,120
1378,C5,124.05,1473/1000,85,120
1379,G4,124.05,1473/1000,85,120
1380,E5,124.05,1473/1000,85,120
1381,C2,124.05,1473/1000,85,120
1382,B-2,124.55,0.25,104,120
1383,E-3,124.55,0.25,104,120
1384,G#2,125.05,0.25,104,120
1385,E2,125.05,0.25,104,120
1386,C5,125.523,1.5,90,120
1387,G4,125.523,1.5,90,120
1388,E4,125.523,1.5,90,120
1389,C3,125.523,1.5,90,120
1390,C2,125.523,1.5,90,120
1391,C2,125.523,1.5,90,120
1392,C5,125.531,2433/1000,75,120
1393,G4,125.531,2433/1000,75,120
1394,E5,125.531,2433/1000,75,120
1395,G#2,125.55,0.25,104,120
1396,B-2,125.8,0.25,104,120
1397,C2,126.05,0.25,104,120
1398,G#2,126.05,0.25,104,120
1399,F5,126.546,983/1000,115,120
1400,B-2,126.55,0.25,104,120
1401,E-3,126.55,0.25,104,120
1402,G4,127.023,1.0,87,120
1403,E4,127.023,1.0,87,120
1404,C3,127.023,1.0,87,120
1405,C2,127.023,1.0,87,120
1406,C4,127.023,1.0,87,120
1407,C2,127.05,0.5,104,120
1408,G#2,127.05,0.25,104,120
1409,E2,127.05,0.25,104,120
1410,E5,127.546,63/125,104,120
1411,G#2,127.55,0.25,104,120
1412,D2,127.55,0.5,104,120
1413,B-2,127.8,0.25,104,120
1414,G4,128.019,0.031,87,120
1415,G#4,128.019,0.031,87,120
1416,B4,128.019,0.031,87,120
1417,E3,128.019,0.031,87,120
1418,E2,128.019,0.031,87,120
1419,F5,128.019,0.031,87,120
1420,D5,128.019,0.031,87,120
1421,G#4,128.019,0.031,87,120
1422,B4,128.019,0.031,87,120
1423,F5,128.019,0.031,87,120
1424,D5,128.019,0.031,87,120
1425,E2,128.05,0.75,104,120
1426,E5,128.05,229/1000,104,120
1427,C2,128.05,0.25,104,120
1428,G#2,128.05,0.25,104,120
1429,G4,128.05,287/200,87,120
1430,G#4,128.05,287/200,87,120
1431,B4,128.05,287/200,87,120
1432,E3,128.05,287/200,87,120
1433,E2,128.05,287/200,87,120
1434,F5,128.05,287/200,87,120
1435,D5,128.05,287/200,87,120
1436,G#4,128.05,287/200,87,120
1437,B4,128.05,287/200,87,120
1438,F5,128.05,287/200,87,120
1439,D5,128.05,287/200,87,120
1440,E5,128.312,2483/1000,104,120
1441,B-2,128.55,0.25,104,120
1442,E-3,128.55,0.25,104,120
1443,E2,128.8,0.25,104,120
1444,G#2,129.05,0.25,104,120
1445,E2,129.05,0.25,104,120
1446,E1,129.05,0.25,104,120
1447,F4,129.519,467/1000,86,120
1448,G#4,129.519,467/1000,86,120
1449,B4,129.519,467/1000,86,120
1450,E3,129.519,467/1000,86,120
1451,E2,129.519,467/1000,86,120
1452,F5,129.519,467/1000,86,120
1453,D5,129.519,467/1000,86,120
1454,F5,129.519,467/1000,86,120
1455,D5,129.519,467/1000,86,120
1456,G#2,129.55,0.25,104,120
1457,F#2,129.55,0.25,104,120
1458,G#4,129.556,467/1000,86,120
1459,B4,129.556,467/1000,86,120
1460,F5,129.556,467/1000,86,120
1461,D5,129.556,467/1000,86,120
1462,F2,129.8,0.25,104,120
1463,B-2,129.8,0.25,104,120
1464,E4,130.019,1933/1000,86,120
1465,G#4,130.019,1933/1000,86,120
1466,B4,130.019,1933/1000,86,120
1467,E3,130.019,1933/1000,86,120
1468,E2,130.019,1933/1000,86,120
1469,E5,130.019,1933/1000,86,120
1470,D5,130.019,1933/1000,86,120
1471,E2,130.05,0.5,104,120
1472,C2,130.05,0.25,104,120
1473,G#2,130.05,0.25,104,120
1474,G#4,130.056,9/10,86,120
1475,B4,130.056,9/10,86,120
1476,E5,130.056,9/10,86,120
1477,D5,130.056,9/10,86,120
1478,E4,130.519,1483/1000,60,120
1479,E4,130.519,1483/1000,60,120
1480,E1,130.55,0.5,104,120
1481,B-2,130.55,0.25,104,120
1482,E-3,130.55,0.25,104,120
1483,G#4,131.031,1.0,91,120
1484,E1,131.05,0.75,104,120
1485,G#2,131.05,0.25,104,120
1486,E2,131.05,0.25,104,120
1487,G#2,131.55,0.25,104,120
1488,G#2,131.8,0.25,104,120
1489,E1,131.8,0.25,104,120
1490,A4,132.019,0.031,73,120
1491,E4,132.019,0.031,73,120
1492,C4,132.019,0.031,73,120
1493,A2,132.019,0.031,73,120
1494,E4,132.019,0.031,73,120
1495,C4,132.019,0.031,73,120
1496,D4,132.035,3/200,60,120
1497,D4,132.035,3/200,60,120
1498,A1,132.05,1.5,104,120
1499,C2,132.05,0.25,104,120
1500,G#2,132.05,0.25,104,120
1501,D4,132.05,97/200,60,120
1502,D4,132.05,97/200,60,120
1503,A4,132.05,701/500,73,120
1504,E4,132.05,701/500,73,120
1505,C4,132.05,701/500,73,120
1506,A2,132.05,701/500,73,120
1507,E4,132.05,701/500,73,120
1508,C4,132.05,701/500,73,120
1509,A4,132.052,7/10,86,120
1510,B-2,132.55,0.25,104,120
1511,E-3,132.55,0.25,104,120
1512,C4,132.552,483/1000,61,120
1513,C4,132.552,483/1000,61,120
1514,A4,132.798,667/1000,86,120
1515,A3,133.035,0.5,61,120
1516,A3,133.035,0.5,61,120
1517,G#2,133.05,0.25,104,120
1518,E2,133.05,0.25,104,120
1519,B3,133.485,12/5,66,120
1520,D4,133.485,12/5,66,120
1521,G4,133.485,12/5,66,120
1522,G2,133.485,12/5,66,120
1523,D4,133.535,483/1000,61,120
1524,D4,133.535,483/1000,61,120
1525,G#2,133.55,0.25,104,120
1526,G1,133.55,2.0,104,120
1527,G4,133.552,2433/1000,86,120
1528,D4,133.552,2433/1000,86,120
1529,B3,133.552,2433/1000,86,120
1530,B-2,133.8,0.25,104,120
1531,C4,134.035,483/1000,61,120
1532,C4,134.035,483/1000,61,120
1533,C2,134.05,0.25,104,120
1534,G#2,134.05,0.25,104,120
1535,A3,134.535,483/1000,62,120
1536,A3,134.535,483/1000,62,120
1537,B-2,134.55,0.25,104,120
1538,E-3,134.55,0.25,104,120
1539,C5,135.031,983/1000,70,120
1540,D4,135.031,983/1000,70,120
1541,D4,135.031,983/1000,70,120
1542,G#2,135.05,0.25,104,120
1543,E2,135.05,0.25,104,120
1544,G#2,135.55,0.25,104,120
1545,G2,135.55,0.25,104,120
1546,F#2,135.8,0.25,104,120
1547,B-2,135.8,0.25,104,120
1548,A3,136.019,0.031,76,120
1549,C4,136.019,0.031,76,120
1550,E4,136.019,0.031,76,120
1551,F2,136.019,0.031,76,120
1552,C5,136.019,0.031,76,120
1553,A4,136.019,0.031,76,120
1554,E4,136.019,0.031,76,120
1555,F4,136.019,0.031,76,120
1556,C4,136.019,0.031,76,120
1557,C4,136.035,3/200,62,120
1558,C4,136.035,3/200,62,120
1559,F2,136.05,0.5,104,120
1560,C2,136.05,0.25,104,120
1561,G#2,136.05,0.25,104,120
1562,A3,136.05,387/200,76,120
1563,C4,136.05,387/200,76,120
1564,E4,136.05,387/200,76,120
1565,F2,136.05,387/200,76,120
1566,C5,136.05,387/200,76,120
1567,A4,136.05,387/200,76,120
1568,E4,136.05,387/200,76,120
1569,F4,136.05,387/200,76,120
1570,C4,136.05,387/200,76,120
1571,C4,136.05,1.719,62,120
1572,C4,136.05,1.719,62,120
1573,F2,136.55,0.5,104,120
1574,B-2,136.55,0.25,104,120
1575,E-3,136.55,0.25,104,120
1576,E2,137.05,0.25,104,120
1577,E2,137.05,0.5,104,120
1578,E-2,137.55,0.5,104,120
1579,B-2,137.55,0.25,104,120
1580,E-3,137.55,0.25,104,120
1581,C4,138.019,1933/1000,64,120
1582,G2,138.019,1933/1000,64,120
1583,A4,138.019,1933/1000,64,120
1584,F4,138.019,1933/1000,64,120
1585,A4,138.031,0.5,93,120
1586,G4,138.031,0.5,93,120
1587,D2,138.031,0.5,93,120
1588,B-2,138.05,0.25,104,120
1589,C2,138.05,0.25,104,120
1590,B3,138.05,0.25,104,120
1591,A4,138.531,0.5,93,120
1592,C5,138.531,0.5,93,120
1593,G2,138.531,0.5,93,120
1594,E2,138.55,0.25,104,120
1595,G4,139.031,1/5,86,120
1596,C5,139.048,0.25,100,120
1597,E2,139.048,0.25,100,120
1598,G1,139.048,0.25,100,120
1599,G4,139.298,233/1000,97,120
1600,E2,139.298,233/1000,97,120
1601,G1,139.298,233/1000,97,120
1602,D5,139.298,233/1000,97,120
1603,D2,139.55,0.25,104,120
1604,G1,139.55,0.25,104,120
1605,C5,139.565,433/1000,86,120
1606,E5,139.565,97/200,105,120
1607,G1,139.8,0.25,104,120
1608,G4,140.023,27/1000,82,120
1609,C5,140.023,27/1000,82,120
1610,E4,140.023,27/1000,82,120
1611,C3,140.023,27/1000,82,120
1612,C2,140.023,27/1000,82,120
1613,C5,140.023,27/1000,82,120
1614,G4,140.023,27/1000,82,120
1615,E5,140.023,27/1000,82,120
1616,C2,140.05,0.75,104,120
1617,E5,140.05,503/200,105,120
1618,C2,140.05,0.25,96,120
1619,G#2,140.05,0.25,96,120
1620,C#3,140.05,0.25,96,120
1621,G4,140.05,1.406,82,120
1622,C5,140.05,1.406,82,120
1623,E4,140.05,1.406,82,120
1624,C3,140.05,1.406,82,120
1625,C2,140.05,1.406,82,120
1626,C5,140.05,1.406,82,120
1627,G4,140.05,1.406,82,120
1628,E5,140.05,1.406,82,120
1629,B-2,140.55,0.25,104,120
1630,E-3,140.55,0.25,104,120
1631,F2,140.8,0.5,101,120
1632,G#2,141.05,0.25,104,120
1633,E2,141.05,0.25,104,120
1634,C5,141.523,933/1000,87,120
1635,G4,141.523,933/1000,87,120
1636,E4,141.523,933/1000,87,120
1637,C3,141.523,933/1000,87,120
1638,C2,141.523,933/1000,87,120
1639,C5,141.531,2433/1000,75,120
1640,G4,141.531,2433/1000,75,120
1641,E5,141.531,2433/1000,75,120
1642,G#2,141.55,0.25,104,120
1643,C2,141.55,1.5,104,120
1644,B-2,141.8,0.25,104,120
1645,C2,142.05,0.25,104,120
1646,G#2,142.05,0.25,104,120
1647,B-2,142.55,0.25,104,120
1648,E-3,142.55,0.25,104,120
1649,G5,142.55,667/1000,93,120
1650,C5,142.55,667/1000,93,120
1651,G4,142.55,667/1000,93,120
1652,E4,142.59,633/1000,87,120
1653,C3,142.59,633/1000,87,120
1654,C2,142.59,633/1000,87,120
1655,C2,143.05,0.5,104,120
1656,G#2,143.05,0.25,104,120
1657,E2,143.05,0.25,104,120
1658,G4,143.29,7/10,87,120
1659,E4,143.29,7/10,87,120
1660,C3,143.29,7/10,87,120
1661,C2,143.29,7/10,87,120
1662,D5,143.29,7/10,87,120
1663,E5,143.333,717/1000,105,120
1664,G#2,143.55,0.25,104,120
1665,D2,143.55,0.5,104,120
1666,B-2,143.8,0.25,104,120
1667,G4,144.019,0.031,83,120
1668,G#4,144.019,0.031,83,120
1669,B4,144.019,0.031,83,120
1670,E3,144.019,0.031,83,120
1671,E2,144.019,0.031,83,120
1672,F5,144.019,0.031,83,120
1673,D5,144.019,0.031,83,120
1674,E2,144.019,0.031,83,120
1675,G#4,144.019,0.031,83,120
1676,B4,144.019,0.031,83,120
1677,F5,144.019,0.031,83,120
1678,D5,144.019,0.031,83,120
1679,E5,144.05,2.5,105,120
1680,C2,144.05,0.25,104,120
1681,G#2,144.05,0.25,104,120
1682,G4,144.05,287/200,83,120
1683,G#4,144.05,287/200,83,120
1684,B4,144.05,287/200,83,120
1685,E3,144.05,287/200,83,120
1686,E2,144.05,287/200,83,120
1687,F5,144.05,287/200,83,120
1688,D5,144.05,287/200,83,120
1689,E2,144.05,287/200,83,120
1690,G#4,144.05,287/200,83,120
1691,B4,144.05,287/200,83,120
1692,F5,144.05,287/200,83,120
1693,D5,144.05,287/200,83,120
1694,B-2,144.55,0.25,104,120
1695,E-3,144.55,0.25,104,120
1696,G#2,145.05,0.25,104,120
1697,E2,145.05,0.25,104,120
1698,F4,145.519,467/1000,82,120
1699,G#4,145.519,467/1000,82,120
1700,B4,145.519,467/1000,82,120
1701,E3,145.519,467/1000,82,120
1702,E2,145.519,467/1000,82,120
1703,F5,145.519,467/1000,82,120
1704,D5,145.519,467/1000,82,120
1705,F5,145.519,467/1000,82,120
1706,D5,145.519,467/1000,82,120
1707,G#2,145.55,0.25,104,120
1708,E2,145.55,0.25,104,120
1709,G#4,145.556,467/1000,70,120
1710,B4,145.556,467/1000,70,120
1711,F5,145.556,467/1000,70,120
1712,D5,145.556,467/1000,70,120
1713,B-2,145.8,0.25,104,120
1714,B1,145.8,0.25,104,120
1715,E4,146.019,1933/1000,86,120
1716,G#4,146.019,1933/1000,86,120
1717,B4,146.019,1933/1000,86,120
1718,E3,146.019,1933/1000,86,120
1719,E2,146.019,1933/1000,86,120
1720,E5,146.019,1933/1000,86,120
1721,D5,146.019,1933/1000,86,120
1722,E1,146.05,1.5,104,120
1723,C2,146.05,0.25,104,120
1724,G#2,146.05,0.25,104,120
1725,G#4,146.056,9/10,70,120
1726,B4,146.056,9/10,70,120
1727,E5,146.056,9/10,70,120
1728,D5,146.056,9/10,70,120
1729,E4,146.519,1483/1000,67,120
1730,E4,146.519,1483/1000,67,120
1731,B-2,146.55,0.25,104,120
1732,E-3,146.55,0.25,104,120
1733,G#4,147.031,1.0,70,120
1734,G#2,147.05,0.25,104,120
1735,E2,147.05,0.25,104,120
1736,G#2,147.55,0.25,103,120
1737,E2,147.55,0.25,103,120
1738,G#2,147.8,0.25,104,120
1739,C2,147.8,0.25,104,120
1740,A4,148.019,0.031,79,120
1741,E4,148.019,0.031,79,120
1742,C4,148.019,0.031,79,120
1743,A2,148.019,0.031,79,120
1744,E4,148.019,0.031,79,120
1745,C4,148.019,0.031,79,120
1746,D4,148.035,3/200,67,120
1747,D4,148.035,3/200,67,120
1748,C2,148.05,0.25,104,120
1749,G#2,148.05,0.25,104,120
1750,A1,148.05,1467/1000,84,120
1751,A4,148.05,1467/1000,84,120
1752,A4,148.05,701/500,79,120
1753,E4,148.05,701/500,79,120
1754,C4,148.05,701/500,79,120
1755,A2,148.05,701/500,79,120
1756,E4,148.05,701/500,79,120
1757,C4,148.05,701/500,79,120
1758,D4,148.05,97/200,67,120
1759,D4,148.05,97/200,67,120
1760,B-2,148.55,0.25,104,120
1761,E-3,148.55,0.25,104,120
1762,C4,148.552,483/1000,67,120
1763,C4,148.552,483/1000,67,120
1764,A3,149.035,0.5,67,120
1765,A3,149.035,0.5,67,120
1766,G#2,149.05,0.25,104,120
1767,E2,149.05,0.25,104,120
1768,B3,149.485,12/5,86,120
1769,D4,149.485,12/5,86,120
1770,G4,149.485,12/5,86,120
1771,G2,149.485,12/5,86,120
1772,D4,149.535,483/1000,67,120
1773,D4,149.535,483/1000,67,120
1774,G#2,149.55,0.25,104,120
1775,G2,149.55,2.0,104,120
1776,G4,149.552,2433/1000,53,120
1777,D4,149.552,2433/1000,53,120
1778,B3,149.552,2433/1000,53,120
1779,B-2,149.8,0.25,104,120
1780,C4,150.035,483/1000,68,120
1781,C4,150.035,483/1000,68,120
1782,C2,150.05,0.25,104,120
1783,G#2,150.05,0.25,104,120
1784,A3,150.535,483/1000,68,120
1785,A3,150.535,483/1000,68,120
1786,B-2,150.55,0.25,104,120
1787,E-3,150.55,0.25,104,120
1788,D4,151.035,983/1000,68,120
1789,D4,151.035,983/1000,68,120
1790,G#2,151.05,0.25,104,120
1791,E2,151.05,0.25,104,120
1792,B-2,151.55,0.25,104,120
1793,G2,151.55,0.25,104,120
1794,F#2,151.8,0.25,104,120
1795,A3,152.019,0.031,75,120
1796,C4,152.019,0.031,75,120
1797,E4,152.019,0.031,75,120
1798,F2,152.019,0.031,75,120
1799,C5,152.031,19/1000,48,120
1800,A4,152.031,19/1000,48,120
1801,E4,152.031,19/1000,48,120
1802,F4,152.031,19/1000,48,120
1803,C4,152.031,19/1000,48,120
1804,C4,152.035,3/200,68,120
1805,C4,152.035,3/200,68,120
1806,F2,152.05,1.5,104,120
1807,C2,152.05,0.25,104,120
1808,G#2,152.05,0.25,104,120
1809,A3,152.05,951/500,75,120
1810,C4,152.05,951/500,75,120
1811,E4,152.05,951/500,75,120
1812,F2,152.05,951/500,75,120
1813,C5,152.05,3881/1000,48,120
1814,A4,152.05,3881/1000,48,120
1815,E4,152.05,3881/1000,48,120
1816,F4,152.05,3881/1000,48,120
1817,C4,152.05,3881/1000,48,120
1818,C4,152.05,1.719,68,120
1819,C4,152.05,1.719,68,120
1820,B-2,152.55,0.25,104,120
1821,E-3,152.55,0.25,104,120
1822,G#2,153.05,0.25,92,120
1823,E2,153.05,0.25,92,120
1824,G#2,153.55,0.25,104,120
1825,F2,153.55,0.25,104,120
1826,G#2,153.8,0.25,104,120
1827,F2,153.8,0.25,104,120
1828,G2,154.019,1933/1000,75,120
1829,C5,154.019,1933/1000,75,120
1830,A5,154.019,1933/1000,75,120
1831,F5,154.019,1933/1000,75,120
1832,C5,154.033,0.5,83,120
1833,E-2,154.05,1.0,104,120
1834,C2,154.05,0.25,104,120
1835,G#2,154.05,0.25,104,120
1836,B-2,154.55,0.25,104,120
1837,E-3,154.55,0.25,104,120
1838,D5,154.567,467/1000,83,120
1839,A4,155.033,1017/1000,83,120
1840,E-2,155.05,0.5,102,120
1841,G#2,155.05,0.25,80,120
1842,E2,155.05,0.25,80,120
1843,C3,155.531,433/1000,83,120
1844,G#2,155.55,0.25,104,120
1845,C2,155.55,0.5,102,120
1846,G3,156.031,19/1000,80,120
1847,D3,156.031,19/1000,80,120
1848,A2,156.031,19/1000,80,120
1849,D2,156.05,3.5,103,120
1850,A4,156.05,3883/1000,83,120
1851,E-3,156.05,0.25,78,120
1852,C2,156.05,0.25,78,120
1853,G3,156.05,383/200,80,120
1854,D3,156.05,383/200,80,120
1855,A2,156.05,383/200,80,120
1856,E-3,156.55,0.25,78,120
1857,E-3,157.05,0.25,78,120
1858,E-3,157.55,0.25,78,120
1859,C4,157.565,433/1000,72,120
1860,D3,158.031,1933/1000,78,120
1861,F#3,158.031,1933/1000,78,120
1862,E-3,158.05,0.25,78,120
1863,E-3,158.55,0.25,78,120
1864,E-3,159.05,0.25,78,120
1865,E-3,159.55,0.25,78,120
1866,D2,159.55,0.5,99,120
1867,D4,159.665,167/1000,64,120
1868,C4,159.765,167/1000,64,120
1869,G3,159.898,19/125,64,120
1870,F3,160.031,19/1000,78,120
1871,D3,160.031,19/1000,78,120
1872,G2,160.031,19/1000,78,120
1873,E-3,160.05,0.25,62,120
1874,G1,160.05,3.875,99,120
1875,G3,160.05,3/200,64,120
1876,F3,160.05,3.781,78,120
1877,D3,160.05,3.781,78,120
1878,G2,160.05,3.781,78,120
1879,E-3,160.55,0.25,60,120
1880,E-3,161.05,0.25,57,120
1881,E-3,161.55,0.25,54,120
1882,C5,161.59,2/5,75,120
1883,C5,162.04,467/1000,75,120
1884,E-3,162.05,0.25,51,120
1885,B4,162.523,0.25,62,120
1886,E-3,162.523,0.25,62,120
1887,G4,162.806,9/20,75,120
1888,E-3,163.05,0.25,46,120
1889,G3,163.065,833/1000,75,120
1890,E4,163.29,3/20,64,120
1891,G4,163.523,527/1000,75,120
1892,E-3,163.55,0.25,43,120
1893,E-3,164.05,0.125,96,120
1894,G4,164.05,139/100,75,120
1895,C2,164.05,0.25,96,120
1896,G#2,164.05,0.25,96,120
1897,C2,164.05,1467/1000,65,120
1898,E4,164.05,1467/1000,65,120
1899,C4,164.05,1467/1000,65,120
1900,B3,164.05,1467/1000,65,120
1901,G3,164.05,1467/1000,65,120
1902,C3,164.05,1467/1000,65,120
1903,C4,164.05,0.5,64,120
1904,E4,164.05,0.5,64,120
1905,G4,164.05,0.5,64,120
1906,B4,164.05,0.5,64,120
1907,G#2,164.3,0.25,96,120
1908,G#2,164.55,0.25,96,120
1909,C4,164.55,0.5,53,120
1910,E4,164.55,0.5,53,120
1911,G4,164.55,0.5,53,120
1912,B4,164.55,0.5,53,120
1913,G#2,164.8,0.25,96,120
1914,C#2,165.05,0.25,86,120
1915,G#2,165.05,0.25,86,120
1916,E2,165.05,0.25,86,120
1917,C4,165.05,0.5,64,120
1918,E4,165.05,0.5,64,120
1919,G4,165.05,0.5,64,120
1920,B4,165.05,0.5,64,120
1921,G#2,165.55,0.25,96,120
1922,C2,165.55,0.5,62,120
1923,C4,165.55,0.5,62,120
1924,E4,165.55,0.5,62,120
1925,G4,165.55,0.5,62,120
1926,B4,165.55,0.5,62,120
1927,G4,165.55,12/5,64,120
1928,B3,165.55,12/5,64,120
1929,C3,165.55,12/5,64,120
1930,C4,165.583,12/5,64,120
1931,E4,165.583,12/5,64,120
1932,G#2,165.8,0.25,96,120
1933,C2,166.05,2.0,96,120
1934,C2,166.05,0.25,96,120
1935,G#2,166.05,0.25,96,120
1936,C4,166.05,0.5,64,120
1937,E4,166.05,0.5,64,120
1938,G4,166.05,0.5,64,120
1939,B4,166.05,0.5,64,120
1940,G#2,166.3,0.25,96,120
1941,G#2,166.55,0.25,96,120
1942,C4,166.55,0.5,53,120
1943,E4,166.55,0.5,53,120
1944,G4,166.55,0.5,53,120
1945,B4,166.55,0.5,53,120
1946,E4,166.708,533/1000,72,120
1947,C#2,167.05,0.25,86,120
1948,G#2,167.05,0.25,86,120
1949,E2,167.05,0.25,86,120
1950,C4,167.05,0.5,64,120
1951,E4,167.05,0.5,64,120
1952,G4,167.05,0.5,64,120
1953,B4,167.05,0.5,64,120
1954,G4,167.275,2/5,72,120
1955,G#2,167.3,0.25,96,120
1956,G#2,167.55,0.25,96,120
1957,C4,167.55,0.5,53,120
1958,E4,167.55,0.5,53,120
1959,G4,167.55,0.5,53,120
1960,B4,167.55,0.5,53,120
1961,A4,167.692,333/1000,73,120
1962,G#2,167.8,0.25,96,120
1963,B-4,168.042,1/125,68,120
1964,F4,168.042,1/125,68,120
1965,D4,168.042,1/125,68,120
1966,G3,168.042,1/125,68,120
1967,C2,168.05,0.25,96,120
1968,G#2,168.05,0.25,96,120
1969,G2,168.05,1467/1000,80,120
1970,G2,168.05,1467/1000,80,120
1971,B-4,168.05,0.5,64,120
1972,D4,168.05,0.5,64,120
1973,F4,168.05,0.5,64,120
1974,G3,168.05,0.5,64,120
1975,B-4,168.05,29/40,68,120
1976,F4,168.05,29/40,68,120
1977,D4,168.05,29/40,68,120
1978,G3,168.05,29/40,68,120
1979,G#2,168.3,0.25,96,120
1980,G#2,168.55,0.25,96,120
1981,B-4,168.55,0.5,53,120
1982,D4,168.55,0.5,53,120
1983,F4,168.55,0.5,53,120
1984,G3,168.55,0.5,53,120
1985,B-4,168.792,7/10,68,120
1986,F4,168.792,7/10,68,120
1987,G3,168.792,7/10,68,120
1988,D4,168.792,7/10,68,120
1989,G#2,168.8,0.25,96,120
1990,C#2,169.05,0.25,86,120
1991,G#2,169.05,0.25,86,120
1992,E2,169.05,0.25,86,120
1993,B-4,169.05,0.5,64,120
1994,D4,169.05,0.5,64,120
1995,F4,169.05,0.5,64,120
1996,G3,169.05,0.5,64,120
1997,C5,169.508,43/20,78,120
1998,E-3,169.55,0.25,96,120
1999,C2,169.55,0.25,96,120
2000,B-4,169.55,433/1000,62,120
2001,D4,169.55,433/1000,62,120
2002,F4,169.55,433/1000,62,120
2003,G3,169.55,433/1000,62,120
2004,G2,169.55,433/1000,62,120
2005,F4,169.55,433/1000,62,120
2006,G2,169.55,2/5,64,120
2007,F4,169.55,2/5,64,120
2008,D4,169.55,2/5,64,120
2009,G3,169.617,2/5,64,120
2010,E-4,169.95,1/10,48,120
2011,B-4,170.05,0.5,64,120
2012,D4,170.05,0.5,64,120
2013,F4,170.05,0.5,64,120
2014,G3,170.05,0.5,64,120
2015,C2,170.05,1533/1000,70,120
2016,D4,170.05,1533/1000,70,120
2017,E4,170.05,1533/1000,70,120
2018,G3,170.05,1533/1000,70,120
2019,C3,170.05,1533/1000,70,120
2020,B3,170.55,0.25,99,120
2021,B-4,170.55,0.5,53,120
2022,D4,170.55,0.5,53,120
2023,F4,170.55,0.5,53,120
2024,G3,170.55,0.5,53,120
2025,C#2,171.05,0.25,85,120
2026,G#2,171.05,0.25,85,120
2027,E2,171.05,0.25,85,120
2028,B-4,171.05,0.5,64,120
2029,D4,171.05,0.5,64,120
2030,F4,171.05,0.5,64,120
2031,G3,171.05,0.5,64,120
2032,G#2,171.55,0.25,96,120
2033,D4,171.55,333/1000,54,120
2034,B-4,171.55,0.5,62,120
2035,D4,171.55,0.5,62,120
2036,F4,171.55,0.5,62,120
2037,G3,171.55,0.5,62,120
2038,G2,171.55,0.5,62,120
2039,B-4,171.658,383/1000,78,120
2040,C4,171.717,1/5,54,120
2041,G#2,171.8,0.25,96,120
2042,G3,171.883,167/1000,54,120
2043,G#4,172.042,1/125,62,120
2044,G#3,172.042,1/125,62,120
2045,F2,172.05,1.25,96,120
2046,F3,172.05,7/5,46,120
2047,F2,172.05,1933/1000,46,120
2048,C2,172.05,0.25,96,120
2049,G#2,172.05,0.25,96,120
2050,G#4,172.05,0.5,64,120
2051,C4,172.05,0.5,64,120
2052,E-4,172.05,0.5,64,120
2053,F3,172.05,0.5,64,120
2054,G#4,172.05,173/250,62,120
2055,G#3,172.05,173/250,62,120
2056,G#2,172.3,0.25,96,120
2057,G#2,172.55,0.25,96,120
2058,G#4,172.55,0.5,53,120
2059,C4,172.55,0.5,53,120
2060,E-4,172.55,0.5,53,120
2061,F3,172.55,0.5,53,120
2062,G#4,172.775,667/1000,66,120
2063,G#3,172.775,667/1000,66,120
2064,G#2,172.8,0.25,96,120
2065,C4,172.817,833/1000,54,120
2066,C#2,173.05,0.25,86,120
2067,G#2,173.05,0.25,86,120
2068,E2,173.05,0.25,86,120
2069,G#4,173.05,0.5,64,120
2070,C4,173.05,0.5,64,120
2071,E-4,173.05,0.5,64,120
2072,F3,173.05,0.5,64,120
2073,D4,173.283,633/1000,59,120
2074,B-3,173.283,7/10,59,120
2075,F2,173.3,0.25,96,120
2076,G#4,173.542,1.0,78,120
2077,G#2,173.55,0.25,96,120
2078,C2,173.55,0.25,96,120
2079,G#4,173.55,467/1000,55,120
2080,C4,173.55,467/1000,55,120
2081,E-4,173.55,467/1000,55,120
2082,F3,173.55,467/1000,55,120
2083,E-3,173.55,467/1000,55,120
2084,G#3,173.55,467/1000,62,120
2085,E-3,173.55,467/1000,62,120
2086,E-4,173.783,2/5,65,120
2087,C4,173.783,0.25,86,120
2088,G#2,173.783,0.25,86,120
2089,B1,173.783,0.25,86,120
2090,B-1,174.05,1.0,96,120
2091,C2,174.05,0.25,96,120
2092,G#2,174.05,0.25,96,120
2093,G#4,174.05,0.5,64,120
2094,C4,174.05,0.5,64,120
2095,E-4,174.05,0.5,64,120
2096,F3,174.05,0.5,64,120
2097,D4,174.05,1467/1000,64,120
2098,F3,174.05,1467/1000,64,120
2099,C4,174.05,1467/1000,64,120
2100,G#3,174.05,1467/1000,64,120
2101,G#2,174.3,0.25,96,120
2102,G#2,174.55,0.25,96,120
2103,G#4,174.55,467/1000,58,120
2104,C4,174.55,467/1000,58,120
2105,E-4,174.55,467/1000,58,120
2106,F3,174.55,467/1000,58,120
2107,G#4,174.55,467/1000,58,120
2108,G#4,175.042,0.5,72,120
2109,B-1,175.042,0.5,72,120
2110,G#4,175.042,0.5,72,120
2111,C4,175.042,0.5,72,120
2112,E-4,175.042,0.5,72,120
2113,F3,175.042,0.5,72,120
2114,C#2,175.05,0.25,86,120
2115,G#2,175.05,0.25,86,120
2116,E2,175.05,0.25,86,120
2117,G#2,175.3,0.25,96,120
2118,G4,175.542,127/250,64,120
2119,G#2,175.55,0.25,96,120
2120,G#4,175.55,0.5,62,120
2121,C4,175.55,0.5,62,120
2122,E-4,175.55,0.5,62,120
2123,F3,175.55,0.5,62,120
2124,B1,175.55,0.5,62,120
2125,D4,175.65,133/1000,64,120
2126,C4,175.783,1/10,64,120
2127,G#2,175.8,0.25,96,120
2128,G#3,175.917,1/10,64,120
2129,G4,176.05,53/40,64,120
2130,C2,176.05,0.25,96,120
2131,G#2,176.05,0.25,96,120
2132,C4,176.05,0.5,64,120
2133,E4,176.05,0.5,64,120
2134,G4,176.05,0.5,64,120
2135,B4,176.05,0.5,64,120
2136,C2,176.05,12/5,60,120
2137,G3,176.05,12/5,60,120
2138,E3,176.05,12/5,60,120
2139,B2,176.05,12/5,60,120
2140,G#2,176.3,0.25,96,120
2141,G#2,176.55,0.25,96,120
2142,C4,176.55,0.5,53,120
2143,E4,176.55,0.5,53,120
2144,G4,176.55,0.5,53,120
2145,B4,176.55,0.5,53,120
2146,G#2,176.8,0.25,96,120
2147,C#2,177.05,0.25,86,120
2148,G#2,177.05,0.25,86,120
2149,E2,177.05,0.25,86,120
2150,C4,177.05,0.5,64,120
2151,E4,177.05,0.5,64,120
2152,G4,177.05,0.5,64,120
2153,B4,177.05,0.5,64,120
2154,C5,177.542,0.5,58,120
2155,C4,177.542,0.5,58,120
2156,E4,177.542,0.5,58,120
2157,G4,177.542,0.5,58,120
2158,B4,177.542,0.5,58,120
2159,E-3,177.55,0.25,96,120
2160,C2,177.55,0.25,96,120
2161,C5,178.042,0.25,80,120
2162,C4,178.05,0.5,53,120
2163,E4,178.05,0.5,53,120
2164,G4,178.05,0.5,53,120
2165,B4,178.05,0.5,53,120
2166,B4,178.292,517/1000,80,120
2167,D4,178.517,7/10,59,120
2168,F3,178.517,7/10,59,120
2169,C3,178.517,7/10,59,120
2170,A3,178.517,7/10,59,120
2171,B3,178.55,0.25,99,120
2172,C4,178.55,0.5,70,120
2173,E4,178.55,0.5,70,120
2174,C5,178.55,0.5,70,120
2175,A4,178.55,0.5,70,120
2176,G1,178.55,0.5,70,120
2177,F4,178.825,433/1000,80,120
2178,C#2,179.05,0.25,85,120
2179,G#2,179.05,0.25,85,120
2180,E2,179.05,0.25,85,120
2181,C4,179.05,0.5,61,120
2182,E4,179.05,0.5,61,120
2183,C5,179.05,0.5,61,120
2184,A4,179.05,0.5,61,120
2185,G1,179.05,0.5,61,120
2186,G4,179.275,31/40,75,120
2187,D4,179.283,7/10,80,120
2188,F3,179.283,7/10,80,120
2189,C3,179.283,7/10,80,120
2190,A3,179.283,7/10,80,120
2191,G#2,179.55,0.25,98,120
2192,A1,179.55,0.25,98,120
2193,C4,179.55,0.5,64,120
2194,E4,179.55,0.5,64,120
2195,C5,179.55,0.5,64,120
2196,A4,179.55,0.5,64,120
2197,B1,179.8,0.25,96,120
2198,C2,180.05,1.5,96,120
2199,G4,180.05,73/40,75,120
2200,C2,180.05,0.25,96,120
2201,G#2,180.05,0.25,96,120
2202,C4,180.05,0.5,64,120
2203,E4,180.05,0.5,64,120
2204,G4,180.05,0.5,64,120
2205,B4,180.05,0.5,64,120
2206,B2,180.05,7/5,54,120
2207,E3,180.05,7/5,54,120
2208,G3,180.05,7/5,54,120
2209,G#2,180.3,0.25,96,120
2210,G#2,180.55,0.25,96,120
2211,C4,180.55,0.5,53,120
2212,E4,180.55,0.5,53,120
2213,G4,180.55,0.5,53,120
2214,B4,180.55,0.5,53,120
2215,G#2,180.8,0.25,96,120
2216,C#2,181.05,0.25,85,120
2217,G#2,181.05,0.25,85,120
2218,E2,181.05,0.25,85,120
2219,C4,181.05,0.5,64,120
2220,E4,181.05,0.5,64,120
2221,G4,181.05,0.5,64,120
2222,B4,181.05,0.5,64,120
2223,G#2,181.55,1/5,84,120
2224,G4,181.55,1/5,84,120
2225,C2,181.55,467/1000,63,120
2226,C4,181.55,467/1000,63,120
2227,E4,181.55,467/1000,63,120
2228,G4,181.55,467/1000,63,120
2229,B4,181.55,467/1000,63,120
2230,B4,181.55,467/1000,63,120
2231,G#2,181.8,1/5,67,120
2232,G4,181.8,1/5,67,120
2233,E4,181.8,1/5,67,120
2234,C2,182.05,1.5,96,120
2235,C2,182.05,0.25,96,120
2236,G#2,182.05,0.25,96,120
2237,C4,182.05,0.5,64,120
2238,E4,182.05,0.5,64,120
2239,G4,182.05,0.5,64,120
2240,B4,182.05,0.5,64,120
2241,B4,182.05,1933/1000,78,120
2242,G4,182.05,1933/1000,78,120
2243,E4,182.05,1933/1000,78,120
2244,G#2,182.3,0.25,96,120
2245,G#2,182.55,0.25,96,120
2246,C4,182.55,0.5,53,120
2247,E4,182.55,0.5,53,120
2248,G4,182.55,0.5,53,120
2249,B4,182.55,0.5,53,120
2250,E4,182.558,667/1000,80,120
2251,C#2,183.05,0.25,85,120
2252,G#2,183.05,0.25,85,120
2253,E2,183.05,0.25,85,120
2254,C4,183.05,0.5,64,120
2255,E4,183.05,0.5,64,120
2256,G4,183.05,0.5,64,120
2257,B4,183.05,0.5,64,120
2258,G4,183.208,333/1000,80,120
2259,G#2,183.3,0.25,96,120
2260,A4,183.542,0.5,64,120
2261,A2,183.542,0.5,64,120
2262,C4,183.542,0.5,64,120
2263,E4,183.542,0.5,64,120
2264,G4,183.542,0.5,64,120
2265,B4,183.542,0.5,64,120
2266,G#2,183.55,0.25,96,120
2267,G#2,183.8,0.25,96,120
2268,B-4,184.042,1/125,80,120
2269,G2,184.05,1.5,94,120
2270,B-4,184.05,329/500,80,120
2271,C2,184.05,0.25,96,120
2272,G#2,184.05,0.25,96,120
2273,B-4,184.05,0.5,64,120
2274,D4,184.05,0.5,64,120
2275,F4,184.05,0.5,64,120
2276,G3,184.05,0.5,64,120
2277,G3,184.05,1367/1000,54,120
2278,B-4,184.05,1367/1000,54,120
2279,D4,184.05,1367/1000,54,120
2280,F4,184.05,1367/1000,54,120
2281,G#2,184.3,0.25,96,120
2282,G#2,184.55,0.25,96,120
2283,B-4,184.55,0.5,53,120
2284,D4,184.55,0.5,53,120
2285,F4,184.55,0.5,53,120
2286,G3,184.55,0.5,53,120
2287,B-4,184.742,733/1000,80,120
2288,G#2,184.8,0.25,96,120
2289,C#2,185.05,0.25,85,120
2290,G#2,185.05,0.25,85,120
2291,E2,185.05,0.25,85,120
2292,B-4,185.05,0.5,64,120
2293,D4,185.05,0.5,64,120
2294,F4,185.05,0.5,64,120
2295,G3,185.05,0.5,64,120
2296,B-4,185.517,2.5,54,120
2297,D4,185.517,2.5,54,120
2298,F4,185.517,2.5,54,120
2299,C5,185.525,19/10,94,120
2300,E-3,185.55,0.25,96,120
2301,C2,185.55,0.25,96,120
2302,B-4,185.55,0.5,61,120
2303,D4,185.55,0.5,61,120
2304,F4,185.55,0.5,61,120
2305,G3,185.55,0.5,61,120
2306,D3,185.55,0.5,61,120
2307,C2,186.05,1.0,96,120
2308,B-4,186.05,0.5,64,120
2309,D4,186.05,0.5,64,120
2310,F4,186.05,0.5,64,120
2311,G3,186.05,0.5,64,120
2312,B3,186.55,0.25,99,120
2313,B-4,186.55,0.5,53,120
2314,D4,186.55,0.5,53,120
2315,F4,186.55,0.5,53,120
2316,G3,186.55,0.5,53,120
2317,C#2,187.05,0.25,85,120
2318,G#2,187.05,0.25,85,120
2319,E2,187.05,0.25,85,120
2320,B-2,187.05,0.5,70,120
2321,B-4,187.05,0.5,70,120
2322,D4,187.05,0.5,70,120
2323,F4,187.05,0.5,70,120
2324,G3,187.05,0.5,70,120
2325,B-4,187.442,383/1000,78,120
2326,G#2,187.55,0.25,96,120
2327,G2,187.55,0.5,61,120
2328,B-4,187.55,0.5,61,120
2329,D4,187.55,0.5,61,120
2330,F4,187.55,0.5,61,120
2331,G3,187.55,0.5,61,120
2332,G#2,187.8,0.25,96,120
2333,G#4,187.842,26/125,80,120
2334,G#4,188.05,29/40,80,120
2335,C2,188.05,0.25,96,120
2336,G#2,188.05,0.25,96,120
2337,G#4,188.05,0.5,64,120
2338,C4,188.05,0.5,64,120
2339,E-4,188.05,0.5,64,120
2340,F3,188.05,0.5,64,120
2341,F2,188.05,7/10,72,120
2342,E-4,188.05,7/10,72,120
2343,G#3,188.05,7/10,72,120
2344,C4,188.05,7/10,72,120
2345,G#2,188.3,0.25,96,120
2346,G#2,188.55,0.25,96,120
2347,G#4,188.55,0.5,53,120
2348,C4,188.55,0.5,53,120
2349,E-4,188.55,0.5,53,120
2350,F3,188.55,0.5,53,120
2351,G#2,188.8,0.25,96,120
2352,C2,188.8,0.25,96,120
2353,C4,188.817,9/20,68,120
2354,G#3,188.817,9/20,68,120
2355,F3,188.817,9/20,68,120
2356,G#4,188.817,9/20,68,120
2357,C#2,189.05,0.25,85,120
2358,G#2,189.05,0.25,85,120
2359,E2,189.05,0.25,85,120
2360,G#4,189.05,0.5,70,120
2361,C4,189.05,0.5,70,120
2362,E-4,189.05,0.5,70,120
2363,F3,189.05,0.5,70,120
2364,F2,189.05,0.5,70,120
2365,D4,189.283,467/1000,69,120
2366,G#3,189.283,467/1000,69,120
2367,C4,189.283,467/1000,69,120
2368,G#4,189.283,467/1000,69,120
2369,G#2,189.55,0.25,96,120
2370,F2,189.55,0.25,96,120
2371,G#4,189.55,0.5,53,120
2372,C4,189.55,0.5,53,120
2373,E-4,189.55,0.5,53,120
2374,F3,189.55,0.5,53,120
2375,B-4,189.783,683/1000,76,120
2376,E-4,189.783,0.25,75,120
2377,C4,189.783,0.25,75,120
2378,C2,189.783,0.25,75,120
2379,B-1,190.05,1.5,96,120
2380,C2,190.05,0.25,96,120
2381,G#2,190.05,0.25,96,120
2382,G#4,190.05,0.5,64,120
2383,C4,190.05,0.5,64,120
2384,E-4,190.05,0.5,64,120
2385,F3,190.05,0.5,64,120
2386,D4,190.05,1967/1000,64,120
2387,B-3,190.05,1967/1000,64,120
2388,F3,190.05,1967/1000,64,120
2389,G#2,190.3,0.25,96,120
2390,G#2,190.55,0.25,96,120
2391,G#4,190.55,483/1000,57,120
2392,C4,190.55,483/1000,57,120
2393,E-4,190.55,483/1000,57,120
2394,F3,190.55,483/1000,57,120
2395,B-4,190.55,483/1000,57,120
2396,G#2,190.8,0.25,96,120
2397,C#2,191.05,0.25,85,120
2398,G#2,191.05,0.25,85,120
2399,E2,191.05,0.25,85,120
2400,G#4,191.05,483/1000,66,120
2401,C4,191.05,483/1000,66,120
2402,E-4,191.05,483/1000,66,120
2403,F3,191.05,483/1000,66,120
2404,G#4,191.05,483/1000,66,120
2405,G#2,191.55,0.25,96,120
2406,G#4,191.55,0.5,62,120
2407,C4,191.55,0.5,62,120
2408,E-4,191.55,0.5,62,120
2409,F3,191.55,0.5,62,120
2410,B-1,191.55,0.5,62,120
2411,G4,191.567,483/1000,72,120
2412,G#2,191.8,0.25,96,120
2413,G4,192.05,1217/1000,72,120
2414,C2,192.05,0.25,96,120
2415,G#2,192.05,0.25,96,120
2416,C2,192.05,1.5,72,120
2417,G3,192.05,1.5,72,120
2418,E3,192.05,1.5,72,120
2419,C3,192.05,1.5,72,120
2420,C4,192.05,0.5,64,120
2421,E4,192.05,0.5,64,120
2422,G4,192.05,0.5,64,120
2423,B4,192.05,0.5,64,120
2424,G#2,192.3,0.25,96,120
2425,G#2,192.55,0.25,96,120
2426,C4,192.55,0.5,53,120
2427,E4,192.55,0.5,53,120
2428,G4,192.55,0.5,53,120
2429,B4,192.55,0.5,53,120
2430,G#2,192.8,0.25,96,120
2431,C#2,193.05,0.25,85,120
2432,G#2,193.05,0.25,85,120
2433,E2,193.05,0.25,85,120
2434,C4,193.05,0.5,64,120
2435,E4,193.05,0.5,64,120
2436,G4,193.05,0.5,64,120
2437,B4,193.05,0.5,64,120
2438,G#2,193.55,0.25,96,120
2439,G1,193.55,0.25,96,120
2440,C4,193.55,467/1000,55,120
2441,E4,193.55,467/1000,55,120
2442,G4,193.55,467/1000,55,120
2443,B4,193.55,467/1000,55,120
2444,G4,193.55,467/1000,55,120
2445,D4,193.783,0.25,82,120
2446,G1,193.783,0.25,82,120
2447,C2,194.05,1.0,99,120
2448,E4,194.05,733/1000,64,120
2449,G#2,194.05,0.25,94,120
2450,C2,194.05,0.25,94,120
2451,C4,194.05,467/1000,67,120
2452,E4,194.05,467/1000,67,120
2453,G4,194.05,467/1000,67,120
2454,B4,194.05,467/1000,67,120
2455,G4,194.05,467/1000,67,120
2456,B-2,194.55,0.25,96,120
2457,C4,194.55,483/1000,59,120
2458,E4,194.55,483/1000,59,120
2459,G4,194.55,483/1000,59,120
2460,B4,194.55,483/1000,59,120
2461,A4,194.55,483/1000,59,120
2462,D4,194.783,233/1000,64,120
2463,F1,195.05,0.375,96,120
2464,G#2,195.05,0.25,84,120
2465,C#2,195.05,0.25,84,120
2466,C4,195.05,0.25,84,120
2467,C5,195.05,0.25,84,120
2468,E2,195.05,0.25,84,120
2469,C4,195.05,0.5,64,120
2470,E4,195.05,0.5,64,120
2471,G4,195.05,0.5,64,120
2472,B4,195.05,0.5,64,120
2473,C#5,195.3,1/5,70,120
2474,A3,195.3,1/5,70,120
2475,D5,195.467,583/1000,95,120
2476,D5,195.533,517/1000,95,120
2477,F#1,195.55,0.375,96,120
2478,G#2,195.55,1/5,80,120
2479,G3,195.55,1/5,80,120
2480,C4,195.55,0.5,53,120
2481,E4,195.55,0.5,53,120
2482,G4,195.55,0.5,53,120
2483,B4,195.55,0.5,53,120
2484,E3,195.783,1/5,64,120
2485,G4,196.05,967/1000,64,120
2486,D5,196.05,2.25,95,120
2487,D5,196.05,2183/1000,95,120
2488,G1,196.05,29/20,82,120
2489,B3,196.05,29/20,82,120
2490,G#2,196.05,0.25,96,120
2491,C2,196.05,0.25,96,120
2492,D4,196.05,0.5,64,120
2493,F4,196.05,0.5,64,120
2494,B3,196.05,0.5,64,120
2495,A3,196.05,0.5,64,120
2496,D4,196.05,29/20,64,120
2497,B3,196.05,29/20,64,120
2498,G#2,196.3,0.25,96,120
2499,A4,196.54,0.5,55,120
2500,B3,196.54,0.5,55,120
2501,D4,196.54,0.5,55,120
2502,F4,196.54,0.5,55,120
2503,A3,196.54,0.5,55,120
2504,G#2,196.55,0.25,96,120
2505,G#2,196.8,0.25,96,120
2506,G4,197.04,417/1000,64,120
2507,G#2,197.05,0.25,85,120
2508,C#2,197.05,0.25,85,120
2509,E2,197.05,0.25,85,120
2510,B3,197.05,0.5,64,120
2511,D4,197.05,0.5,64,120
2512,F4,197.05,0.5,64,120
2513,A3,197.05,0.5,64,120
2514,C5,197.506,933/1000,56,120
2515,A4,197.506,933/1000,56,120
2516,D4,197.506,933/1000,56,120
2517,G4,197.506,933/1000,56,120
2518,G#2,197.55,0.25,96,120
2519,B3,197.55,0.5,62,120
2520,D4,197.55,0.5,62,120
2521,F4,197.55,0.5,62,120
2522,A3,197.55,0.5,62,120
2523,G2,197.55,0.5,62,120
2524,G#2,197.8,0.25,96,120
2525,G#2,198.05,0.25,96,120
2526,C2,198.05,0.25,96,120
2527,B3,198.05,0.5,71,120
2528,D4,198.05,0.5,71,120
2529,F4,198.05,0.5,71,120
2530,A3,198.05,0.5,71,120
2531,G2,198.05,0.5,71,120
2532,C5,198.219,733/1000,83,120
2533,C5,198.285,733/1000,83,120
2534,G#2,198.3,0.25,96,120
2535,D4,198.54,151/100,54,120
2536,B3,198.54,151/100,54,120
2537,G4,198.54,151/100,54,120
2538,G#2,198.55,0.25,96,120
2539,B3,198.55,0.5,63,120
2540,D4,198.55,0.5,63,120
2541,F4,198.55,0.5,63,120
2542,A3,198.55,0.5,63,120
2543,G2,198.55,0.5,63,120
2544,B4,198.969,1081/1000,64,120
2545,B4,199.035,203/200,64,120
2546,G2,199.05,0.25,89,120
2547,G#2,199.05,0.25,89,120
2548,C#2,199.05,0.25,89,120
2549,E2,199.05,0.25,89,120
2550,B3,199.05,0.5,64,120
2551,D4,199.05,0.5,64,120
2552,F4,199.05,0.5,64,120
2553,A3,199.05,0.5,64,120
2554,F#2,199.3,0.25,98,120
2555,G#2,199.3,0.25,98,120
2556,G#2,199.55,0.25,96,120
2557,F2,199.55,0.5,62,120
2558,B3,199.55,0.5,62,120
2559,D4,199.55,0.5,62,120
2560,F4,199.55,0.5,62,120
2561,A3,199.55,0.5,62,120
2562,E2,200.05,0.75,96,120
2563,B4,200.05,1869/1000,64,120
2564,B4,200.05,387/200,64,120
2565,G#2,200.05,0.25,96,120
2566,C2,200.05,0.25,96,120
2567,F#4,200.05,0.5,64,120
2568,F#4,200.05,0.5,64,120
2569,B3,200.05,0.5,64,120
2570,G#3,200.05,0.5,64,120
2571,D4,200.05,0.5,64,120
2572,D4,200.05,0.5,64,120
2573,D4,200.05,103/500,54,120
2574,B3,200.05,103/500,54,120
2575,G4,200.05,103/500,54,120
2576,G#2,200.3,0.25,96,120
2577,G#2,200.55,0.25,96,120
2578,F#4,200.55,433/1000,58,120
2579,F#4,200.55,433/1000,58,120
2580,B3,200.55,433/1000,58,120
2581,G#3,200.55,433/1000,58,120
2582,D4,200.55,433/1000,58,120
2583,D4,200.55,433/1000,58,120
2584,F#4,200.55,433/1000,58,120
2585,F#4,200.55,433/1000,58,120
2586,B3,200.55,433/1000,58,120
2587,G#3,200.55,433/1000,58,120
2588,D4,200.55,433/1000,58,120
2589,D4,200.55,433/1000,58,120
2590,G#2,200.8,0.25,96,120
2591,E2,200.8,0.25,96,120
2592,G#2,201.05,0.25,82,120
2593,C#2,201.05,0.25,82,120
2594,F#4,201.05,0.25,82,120
2595,F#4,201.05,0.25,82,120
2596,B3,201.05,0.25,82,120
2597,G#3,201.05,0.25,82,120
2598,D4,201.05,0.25,82,120
2599,D4,201.05,0.25,82,120
2600,E2,201.05,0.25,82,120
2601,F#4,201.05,0.5,69,120
2602,F#4,201.05,0.5,69,120
2603,B3,201.05,0.5,69,120
2604,G#3,201.05,0.5,69,120
2605,D4,201.05,0.5,69,120
2606,D4,201.05,0.5,69,120
2607,B1,201.05,0.5,69,120
2608,F#4,201.433,11/40,64,120
2609,F#4,201.433,11/40,64,120
2610,B3,201.433,11/40,64,120
2611,G#3,201.433,11/40,64,120
2612,D4,201.433,11/40,64,120
2613,D4,201.433,11/40,64,120
2614,E-3,201.55,0.25,96,120
2615,F#4,201.55,0.5,59,120
2616,F#4,201.55,0.5,59,120
2617,B3,201.55,0.5,59,120
2618,G#3,201.55,0.5,59,120
2619,D4,201.55,0.5,59,120
2620,D4,201.55,0.5,59,120
2621,G#1,201.55,0.5,59,120
2622,F#4,201.8,26/125,54,120
2623,F#4,201.8,26/125,54,120
2624,B3,201.8,26/125,54,120
2625,G#3,201.8,26/125,54,120
2626,D4,201.8,26/125,54,120
2627,D4,201.8,26/125,54,120
2628,E1,202.05,1.0,96,120
2629,C2,202.05,0.25,96,120
2630,F4,202.05,0.5,64,120
2631,F4,202.05,0.5,64,120
2632,B3,202.05,0.5,64,120
2633,G#3,202.05,0.5,64,120
2634,D4,202.05,0.5,64,120
2635,D4,202.05,0.5,64,120
2636,F4,202.083,1183/1000,51,120
2637,F4,202.083,1183/1000,51,120
2638,B3,202.083,1183/1000,51,120
2639,G#3,202.083,1183/1000,51,120
2640,D4,202.083,1183/1000,51,120
2641,D4,202.083,1183/1000,51,120
2642,G5,202.485,833/1000,102,120
2643,B3,202.55,0.25,96,120
2644,F4,202.55,0.5,53,120
2645,F4,202.55,0.5,53,120
2646,B3,202.55,0.5,53,120
2647,G#3,202.55,0.5,53,120
2648,D4,202.55,0.5,53,120
2649,D4,202.55,0.5,53,120
2650,G5,202.552,833/1000,102,120
2651,G#1,203.05,1.0,96,120
2652,C#2,203.05,0.25,85,120
2653,G#2,203.05,0.25,85,120
2654,E2,203.05,0.25,85,120
2655,F4,203.05,0.5,64,120
2656,F4,203.05,0.5,64,120
2657,B3,203.05,0.5,64,120
2658,G#3,203.05,0.5,64,120
2659,D4,203.05,0.5,64,120
2660,D4,203.05,0.5,64,120
2661,F4,203.3,177/250,54,120
2662,F4,203.3,177/250,54,120
2663,B3,203.3,177/250,54,120
2664,G#3,203.3,177/250,54,120
2665,D4,203.3,177/250,54,120
2666,D4,203.3,177/250,54,120
2667,F5,203.469,581/1000,103,120
2668,F5,203.535,103/200,103,120
2669,G#2,203.55,0.25,96,120
2670,F4,203.55,0.5,53,120
2671,F4,203.55,0.5,53,120
2672,B3,203.55,0.5,53,120
2673,G#3,203.55,0.5,53,120
2674,D4,203.55,0.5,53,120
2675,D4,203.55,0.5,53,120
2676,G#2,203.8,0.25,96,120
2677,A2,204.04,1/100,64,120
2678,A3,204.04,1/100,64,120
2679,C4,204.04,1/100,64,120
2680,G3,204.04,1/100,64,120
2681,E3,204.04,1/100,64,120
2682,A1,204.05,1.375,96,120
2683,F5,204.05,619/1000,103,120
2684,F5,204.05,137/200,103,120
2685,G#2,204.05,0.25,96,120
2686,C2,204.05,0.25,96,120
2687,A3,204.05,0.5,64,120
2688,C4,204.05,0.5,64,120
2689,G3,204.05,0.5,64,120
2690,E3,204.05,0.5,64,120
2691,A2,204.05,489/250,64,120
2692,A3,204.05,489/250,64,120
2693,C4,204.05,489/250,64,120
2694,G3,204.05,489/250,64,120
2695,E3,204.05,489/250,64,120
2696,G#2,204.3,0.25,96,120
2697,A4,204.54,0.5,55,120
2698,A3,204.54,0.5,55,120
2699,C4,204.54,0.5,55,120
2700,G3,204.54,0.5,55,120
2701,E3,204.54,0.5,55,120
2702,G#2,204.55,0.25,96,120
2703,D5,204.685,673/200,98,120
2704,D5,204.752,1649/500,98,120
2705,G#2,204.8,0.25,96,120
2706,C5,205.04,0.5,64,120
2707,A3,205.04,0.5,64,120
2708,C4,205.04,0.5,64,120
2709,G3,205.04,0.5,64,120
2710,E3,205.04,0.5,64,120
2711,G#2,205.05,0.25,85,120
2712,C#2,205.05,0.25,85,120
2713,E2,205.05,0.25,85,120
2714,D5,205.54,0.5,62,120
2715,A2,205.54,0.5,62,120
2716,A3,205.54,0.5,62,120
2717,C4,205.54,0.5,62,120
2718,G3,205.54,0.5,62,120
2719,E3,205.54,0.5,62,120
2720,G#2,205.55,0.25,96,120
2721,G#2,205.8,0.25,96,120
2722,G2,206.04,1.5,64,120
2723,A3,206.04,1.5,64,120
2724,G3,206.04,1.5,64,120
2725,B3,206.04,1.5,64,120
2726,D3,206.04,1.5,64,120
2727,E5,206.04,0.5,64,120
2728,A3,206.04,0.5,64,120
2729,G3,206.04,0.5,64,120
2730,B3,206.04,0.5,64,120
2731,D3,206.04,0.5,64,120
2732,G2,206.05,1.25,94,120
2733,G#2,206.05,0.25,96,120
2734,C2,206.05,0.25,96,120
2735,D5,206.54,0.5,55,120
2736,A3,206.54,0.5,55,120
2737,G3,206.54,0.5,55,120
2738,B3,206.54,0.5,55,120
2739,D3,206.54,0.5,55,120
2740,G#2,206.55,0.25,96,120
2741,G#2,206.8,0.25,95,120
2742,E2,206.8,0.25,95,120
2743,C5,207.04,0.5,64,120
2744,A3,207.04,0.5,64,120
2745,G3,207.04,0.5,64,120
2746,B3,207.04,0.5,64,120
2747,D3,207.04,0.5,64,120
2748,G#2,207.05,0.25,95,120
2749,E2,207.05,0.25,95,120
2750,F#2,207.3,0.25,96,120
2751,F3,207.54,51/100,67,120
2752,C5,207.54,51/100,67,120
2753,A4,207.54,51/100,67,120
2754,E4,207.54,51/100,67,120
2755,E5,207.54,51/100,67,120
2756,C5,207.54,51/100,67,120
2757,F4,207.54,51/100,67,120
2758,A4,207.54,51/100,67,120
2759,F2,207.55,0.5,96,120
2760,C2,207.55,0.25,100,120
2761,E-3,207.55,0.25,100,120
2762,A5,207.556,247/500,66,120
2763,E5,207.556,247/500,66,120
2764,C5,207.556,247/500,66,120
2765,F4,207.556,247/500,66,120
2766,A4,207.556,247/500,66,120
2767,F2,208.05,3.875,96,120
2768,D5,208.05,169/125,98,120
2769,D5,208.05,1419/1000,98,120
2770,F3,208.05,187/50,67,120
2771,C5,208.05,187/50,67,120
2772,A4,208.05,187/50,67,120
2773,E4,208.05,187/50,67,120
2774,E5,208.05,187/50,67,120
2775,C5,208.05,187/50,67,120
2776,F4,208.05,187/50,67,120
2777,A4,208.05,187/50,67,120
2778,A5,208.05,939/250,66,120
2779,E5,208.05,939/250,66,120
2780,C5,208.05,939/250,66,120
2781,F4,208.05,939/250,66,120
2782,A4,208.05,939/250,66,120
2783,E-3,208.3,0.25,47,120
2784,E-3,208.55,0.25,47,120
2785,E-3,208.8,0.25,47,120
2786,E-3,209.05,0.25,47,120
2787,E-3,209.3,0.25,47,120
2788,G4,209.469,217/1000,64,120
2789,G4,209.535,0.25,56,120
2790,E-3,209.535,0.25,56,120
2791,C5,209.719,233/1000,64,120
2792,C5,209.785,0.25,56,120
2793,E-3,209.785,0.25,56,120
2794,E-3,210.05,0.25,47,120
2795,C5,210.235,417/1000,64,120
2796,E-3,210.3,0.25,47,120
2797,C5,210.302,417/1000,64,120
2798,E-3,210.55,0.25,47,120
2799,G4,210.719,183/1000,64,120
2800,G4,210.785,183/1000,64,120
2801,E-3,210.8,0.25,47,120
2802,E-3,211.05,0.25,47,120
2803,G4,211.219,217/1000,64,120
2804,G4,211.285,0.25,56,120
2805,E-3,211.285,0.25,56,120
2806,A4,211.452,299/500,64,120
2807,A4,211.519,0.531,64,120
2808,E-3,211.55,0.25,47,120
2809,E-3,211.8,0.25,47,120
2810,C5,212.04,1/100,51,120
2811,D5,212.04,1/100,51,120
2812,A4,212.04,1/100,51,120
2813,F4,212.04,1/100,51,120
2814,A4,212.05,487/200,64,120
2815,A4,212.05,1251/500,64,120
2816,B-2,212.05,0.25,92,120
2817,G#2,212.05,0.25,92,120
2818,D4,212.05,2.0,54,120
2819,F4,212.05,2.0,54,120
2820,B-3,212.05,2.0,54,120
2821,C5,212.05,773/200,51,120
2822,D5,212.05,773/200,51,120
2823,A4,212.05,773/200,51,120
2824,F4,212.05,773/200,51,120
2825,D3,212.55,0.25,92,120
2826,G#2,212.55,0.25,92,120
2827,F3,213.05,367/1000,105,120
2828,G#2,213.05,0.25,80,120
2829,B-3,213.55,0.375,105,120
2830,G#2,213.55,0.25,110,120
2831,G#2,214.05,0.25,80,120
2832,G#2,214.3,0.25,80,120
2833,A4,214.54,1417/1000,80,120
2834,B-3,214.54,1417/1000,80,120
2835,D4,214.54,1417/1000,80,120
2836,F4,214.54,1417/1000,80,120
2837,G#2,214.55,0.25,80,120
2838,G#2,214.8,0.25,80,120
2839,G#2,215.05,0.25,80,120
2840,A4,215.469,483/1000,83,120
2841,A4,215.535,483/1000,83,120
2842,G#2,215.55,0.25,88,120
2843,A4,215.969,81/1000,91,120
2844,A4,216.035,3/200,71,120
2845,E5,216.035,3/200,71,120
2846,C#5,216.035,3/200,71,120
2847,A4,216.035,3/200,71,120
2848,A4,216.05,63/250,91,120
2849,A1,216.05,0.25,64,120
2850,G#2,216.05,0.25,64,120
2851,A3,216.05,0.25,64,120
2852,A2,216.05,0.25,64,120
2853,E3,216.05,0.25,64,120
2854,A1,216.05,0.25,64,120
2855,C#3,216.05,0.25,64,120
2856,A4,216.05,9/25,71,120
2857,E5,216.05,9/25,71,120
2858,C#5,216.05,9/25,71,120
2859,A4,216.05,9/25,71,120
2860,G#2,216.3,0.25,83,120
2861,C#5,216.485,1.0,91,120
2862,G#2,216.55,0.25,110,120
2863,C#2,216.55,1.0,78,120
2864,E5,216.55,1.0,78,120
2865,C#5,216.55,1.0,78,120
2866,A4,216.55,1.0,78,120
2867,A3,216.55,1.0,78,120
2868,A2,216.55,1.0,78,120
2869,C#3,216.55,1.0,78,120
2870,E3,216.55,1.0,78,120
2871,C#2,216.55,1.0,78,120
2872,C#5,216.55,1.0,78,120
2873,G#2,216.8,0.25,80,120
2874,G#2,217.05,0.25,80,120
2875,G#2,217.3,0.25,80,120
2876,D5,217.485,1.0,91,120
2877,D2,217.55,0.625,105,120
2878,G#2,217.55,0.25,110,120
2879,D5,217.55,1.0,76,120
2880,G4,217.55,1.0,76,120
2881,A3,217.55,1.0,76,120
2882,C3,217.55,1.0,76,120
2883,F3,217.55,1.0,76,120
2884,C4,217.55,1.0,76,120
2885,D2,217.55,1.0,76,120
2886,D5,217.55,1.0,76,120
2887,G#2,218.05,0.25,80,120
2888,G#2,218.3,0.25,80,120
2889,C5,218.502,1.375,78,120
2890,E2,218.502,1.375,78,120
2891,C5,218.502,1.375,78,120
2892,G4,218.502,1.375,78,120
2893,E4,218.502,1.375,78,120
2894,E3,218.502,1.375,78,120
2895,C4,218.502,1.375,78,120
2896,G3,218.502,1.375,78,120
2897,E2,218.502,1.375,78,120
2898,B-2,218.55,0.25,108,120
2899,C5,218.569,1433/1000,91,120
2900,E2,219.05,0.25,96,120
2901,E2,219.3,0.25,83,120
2902,D2,219.55,0.25,94,120
2903,C5,219.969,81/1000,96,120
2904,C5,220.035,3/200,72,120
2905,F5,220.035,3/200,72,120
2906,C5,220.035,3/200,72,120
2907,A4,220.035,3/200,72,120
2908,C5,220.05,63/250,96,120
2909,F2,220.05,0.25,87,120
2910,C2,220.05,0.25,87,120
2911,E-3,220.05,0.25,87,120
2912,F2,220.05,0.25,87,120
2913,F4,220.05,0.25,87,120
2914,C4,220.05,0.25,87,120
2915,A3,220.05,0.25,87,120
2916,C5,220.05,9/25,72,120
2917,F5,220.05,9/25,72,120
2918,C5,220.05,9/25,72,120
2919,A4,220.05,9/25,72,120
2920,D5,220.469,1.0,96,120
2921,D5,220.535,1.0,78,120
2922,E2,220.535,1.0,78,120
2923,E5,220.535,1.0,78,120
2924,G4,220.535,1.0,78,120
2925,C5,220.535,1.0,78,120
2926,E2,220.535,1.0,78,120
2927,E4,220.535,1.0,78,120
2928,C4,220.535,1.0,78,120
2929,G3,220.535,1.0,78,120
2930,C2,220.55,0.25,96,120
2931,E-3,220.55,0.25,96,120
2932,E5,221.469,967/1000,102,120
2933,E5,221.535,1.0,76,120
2934,D5,221.535,1.0,76,120
2935,F4,221.535,1.0,76,120
2936,A4,221.535,1.0,76,120
2937,D2,221.535,1.0,76,120
2938,A3,221.535,1.0,76,120
2939,D4,221.535,1.0,76,120
2940,F3,221.535,1.0,76,120
2941,D2,221.55,0.625,105,120
2942,C2,221.55,0.25,96,120
2943,E-3,221.55,0.25,96,120
2944,C5,222.469,983/1000,94,120
2945,C5,222.535,1.0,78,120
2946,G1,222.535,1.0,78,120
2947,C5,222.535,1.0,78,120
2948,F4,222.535,1.0,78,120
2949,A4,222.535,1.0,78,120
2950,G1,222.535,1.0,78,120
2951,C4,222.535,1.0,78,120
2952,A3,222.535,1.0,78,120
2953,F3,222.535,1.0,78,120
2954,C2,222.55,0.25,96,120
2955,E-3,222.55,0.25,96,120
2956,C5,223.469,581/1000,80,120
2957,C5,223.535,103/200,80,120
2958,C2,223.55,0.5,83,120
2959,C2,223.55,0.5,83,120
2960,E3,223.55,0.5,83,120
2961,G3,223.55,0.5,83,120
2962,C4,223.55,0.5,83,120
2963,C2,223.55,0.25,96,120
2964,E-3,223.55,0.25,96,120
2965,C5,223.55,0.5,64,120
2966,E4,223.55,0.5,64,120
2967,G4,223.55,0.5,64,120
2968,C5,224.05,919/1000,80,120
2969,C5,224.05,197/200,80,120
2970,C2,224.05,3.75,83,120
2971,C2,224.05,3.75,83,120
2972,E3,224.05,3.75,83,120
2973,G3,224.05,3.75,83,120
2974,C4,224.05,3.75,83,120
2975,C5,224.05,3.625,64,120
2976,E4,224.05,3.625,64,120
2977,G4,224.05,3.625,64,120
2978,E2,224.55,167/1000,67,120
2979,E2,224.717,167/1000,67,120
2980,E2,224.883,167/1000,67,120
2981,D2,225.05,0.25,96,120
2982,G4,225.502,233/1000,64,120
2983,G4,225.569,233/1000,64,120
2984,C5,225.735,267/1000,64,120
2985,C5,225.802,267/1000,64,120
2986,D5,226.269,233/1000,64,120
2987,D5,226.335,233/1000,64,120
2988,G4,226.519,267/1000,55,120
2989,G4,226.585,267/1000,55,120
2990,G4,226.969,217/1000,64,120
2991,G4,227.035,217/1000,64,120
2992,B-4,227.219,267/1000,64,120
2993,B-4,227.285,267/1000,64,120
2994,G#2,227.335,33/1000,64,120
2995,G#2,227.402,33/1000,64,120
2996,G#2,227.469,33/1000,64,120
2997,G4,227.502,137/250,64,120
2998,B-2,227.55,0.25,92,120
2999,G4,227.569,481/1000,64,120
3000,B-2,228.05,276/125,51,120
3001,G4,228.05,1619/1000,64,120
3002,G4,228.05,337/200,64,120
3003,B-2,228.05,0.25,86,120
3004,G#2,228.05,0.25,86,120
3005,F5,228.05,3.875,63,120
3006,B-4,228.05,3.875,63,120
3007,D5,228.05,3.875,63,120
3008,D3,228.55,0.25,86,120
3009,G#2,228.55,0.25,86,120
3010,F3,229.05,367/1000,96,120
3011,G#2,229.05,0.25,75,120
3012,B-3,229.55,0.375,109,120
3013,G#2,229.55,0.25,104,120
3014,G#2,230.05,0.25,78,120
3015,G#2,230.3,0.25,78,120
3016,F4,230.54,1417/1000,83,120
3017,D4,230.54,1417/1000,83,120
3018,A4,230.54,1417/1000,83,120
3019,B-3,230.54,1417/1000,83,120
3020,G#2,230.55,0.25,78,120
3021,G#2,230.8,0.25,78,120
3022,G#2,231.05,0.25,78,120
3023,G#2,231.3,0.25,78,120
3024,A4,231.469,467/1000,83,120
3025,A4,231.535,467/1000,83,120
3026,G#2,231.55,0.25,78,120
3027,B-2,231.8,0.25,80,120
3028,A4,231.969,81/1000,83,120
3029,A4,232.035,3/200,73,120
3030,A1,232.035,3/200,73,120
3031,C2,232.035,3/200,73,120
3032,A3,232.035,3/200,73,120
3033,E3,232.035,3/200,73,120
3034,A1,232.035,3/200,73,120
3035,A2,232.035,3/200,73,120
3036,C#3,232.035,3/200,73,120
3037,E2,232.035,3/200,73,120
3038,G#2,232.035,3/200,73,120
3039,A4,232.05,169/1000,83,120
3040,E5,232.05,0.375,64,120
3041,C#5,232.05,0.375,64,120
3042,A4,232.05,0.375,64,120
3043,A4,232.05,47/200,73,120
3044,A1,232.05,47/200,73,120
3045,C2,232.05,47/200,73,120
3046,A3,232.05,47/200,73,120
3047,E3,232.05,47/200,73,120
3048,A1,232.05,47/200,73,120
3049,A2,232.05,47/200,73,120
3050,C#3,232.05,47/200,73,120
3051,E2,232.05,47/200,73,120
3052,G#2,232.05,47/200,73,120
3053,C#5,232.469,1.0,96,120
3054,C#5,232.535,1.0,81,120
3055,C#2,232.535,1.0,81,120
3056,E5,232.535,1.0,81,120
3057,C#5,232.535,1.0,81,120
3058,A4,232.535,1.0,81,120
3059,A3,232.535,1.0,81,120
3060,A2,232.535,1.0,81,120
3061,C#3,232.535,1.0,81,120
3062,E3,232.535,1.0,81,120
3063,C#2,232.535,1.0,81,120
3064,C2,232.55,0.25,91,120
3065,E-3,232.55,0.25,91,120
3066,E2,232.55,0.25,91,120
3067,D5,233.469,1.0,96,120
3068,D5,233.535,1.0,80,120
3069,D5,233.535,1.0,80,120
3070,G4,233.535,1.0,80,120
3071,A3,233.535,1.0,80,120
3072,C3,233.535,1.0,80,120
3073,F3,233.535,1.0,80,120
3074,C4,233.535,1.0,80,120
3075,D2,233.535,1.0,80,120
3076,D2,233.55,0.625,105,120
3077,C2,233.55,0.25,91,120
3078,E-3,233.55,0.25,91,120
3079,E2,233.55,0.25,91,120
3080,G#2,234.05,0.25,104,120
3081,C5,234.469,1417/1000,94,120
3082,C5,234.535,1.375,80,120
3083,E2,234.535,1.375,80,120
3084,C5,234.535,1.375,80,120
3085,G4,234.535,1.375,80,120
3086,E4,234.535,1.375,80,120
3087,E3,234.535,1.375,80,120
3088,C4,234.535,1.375,80,120
3089,G3,234.535,1.375,80,120
3090,E2,234.535,1.375,80,120
3091,C2,234.55,0.25,91,120
3092,G#2,234.55,0.25,91,120
3093,E2,234.55,0.25,91,120
3094,E2,235.05,0.25,72,120
3095,E2,235.3,0.25,94,120
3096,D2,235.55,0.25,96,120
3097,C5,235.969,81/1000,96,120
3098,C5,236.035,3/200,72,120
3099,F5,236.035,3/200,72,120
3100,C5,236.035,3/200,72,120
3101,A4,236.035,3/200,72,120
3102,E2,236.05,167/1000,99,120
3103,C5,236.05,57/200,96,120
3104,F2,236.05,0.25,88,120
3105,F4,236.05,0.25,88,120
3106,C4,236.05,0.25,88,120
3107,A3,236.05,0.25,88,120
3108,C2,236.05,0.25,88,120
3109,E-3,236.05,0.25,88,120
3110,F2,236.05,0.25,88,120
3111,C5,236.05,9/25,72,120
3112,F5,236.05,9/25,72,120
3113,C5,236.05,9/25,72,120
3114,A4,236.05,9/25,72,120
3115,D5,236.469,1.0,96,120
3116,D5,236.535,1.0,78,120
3117,E2,236.535,1.0,78,120
3118,E4,236.535,1.0,78,120
3119,C4,236.535,1.0,78,120
3120,G3,236.535,1.0,78,120
3121,E5,236.535,1.0,78,120
3122,G4,236.535,1.0,78,120
3123,C5,236.535,1.0,78,120
3124,E2,236.535,1.0,78,120
3125,E2,236.55,167/1000,99,120
3126,C2,236.55,0.25,99,120
3127,E-3,236.55,0.25,99,120
3128,D5,237.469,1083/1000,104,120
3129,D5,237.535,1083/1000,104,120
3130,E2,237.55,167/1000,97,120
3131,D2,237.55,1.0,76,120
3132,A3,237.55,1.0,76,120
3133,D4,237.55,1.0,76,120
3134,F3,237.55,1.0,76,120
3135,D5,237.55,1.0,76,120
3136,F4,237.55,1.0,76,120
3137,A4,237.55,1.0,76,120
3138,D2,237.55,1.0,76,120
3139,C2,237.55,0.25,97,120
3140,E-3,237.55,0.25,97,120
3141,F2,238.55,167/1000,99,120
3142,E2,238.55,167/1000,99,120
3143,F2,238.55,167/1000,99,120
3144,E2,238.717,167/1000,94,120
3145,E2,238.717,167/1000,94,120
3146,E2,238.717,167/1000,94,120
3147,D2,238.883,167/1000,89,120
3148,E2,238.883,167/1000,89,120
3149,D2,238.883,167/1000,89,120
3150,C#2,239.05,167/1000,83,120
3151,D2,239.05,167/1000,83,120
3152,C#2,239.05,167/1000,83,120
3153,C2,239.217,167/1000,78,120
3154,D2,239.217,167/1000,78,120
3155,C2,239.217,167/1000,78,120
3156,B1,239.383,167/1000,76,120
3157,D2,239.383,167/1000,76,120
3158,B1,239.383,167/1000,76,120
3159,B-1,239.55,167/1000,78,120
3160,D2,239.55,167/1000,78,120
3161,B-1,239.55,167/1000,78,120
3162,A1,239.717,167/1000,84,120
3163,D2,239.717,167/1000,84,120
3164,A1,239.717,167/1000,84,120
3165,G#1,239.883,167/1000,91,120
3166,D2,239.883,167/1000,91,120
3167,G#1,239.883,167/1000,91,120
3168,G1,240.05,167/1000,113,120
3169,D2,240.05,167/1000,113,120
3170,G1,240.05,167/1000,113,120
3171,C5,240.469,983/1000,104,120
3172,C5,240.535,1.0,83,120
3173,G1,240.535,1.0,83,120
3174,C4,240.535,1.0,83,120
3175,A3,240.535,1.0,83,120
3176,F3,240.535,1.0,83,120
3177,C5,240.535,1.0,83,120
3178,A4,240.535,1.0,83,120
3179,F4,240.535,1.0,83,120
3180,G1,240.535,1.0,83,120
3181,E2,240.55,167/1000,104,120
3182,C#3,240.55,0.25,84,120
3183,C2,240.55,0.25,84,120
3184,C5,241.469,33/20,104,120
3185,C5,241.535,33/20,104,120
3186,E2,241.55,167/1000,104,120
3187,C2,241.55,149/125,86,120
3188,E3,241.55,2.375,86,120
3189,G3,241.55,2.375,86,120
3190,C4,241.55,2.375,86,120
3191,C5,241.55,1221/500,74,120
3192,E4,241.55,1221/500,74,120
3193,G4,241.55,1221/500,74,120
3194,C2,241.55,1221/500,74,120
3195,A3,241.55,0.25,84,120
3196,C2,241.55,0.25,84,120
3197,D2,242.55,0.25,104,120
3198,G1,242.79,233/1000,80,120
3199,C2,243.05,0.25,92,120
3200,E2,243.05,0.25,92,120
3201,D2,243.3,233/1000,92,120
3202,C2,243.3,233/1000,92,120
3203,G4,243.469,467/1000,87,120
3204,G4,243.535,467/1000,79,120
3205,G1,243.535,467/1000,79,120
3206,E2,243.55,0.25,104,120
3207,C5,243.983,67/1000,96,120
3208,G5,243.983,67/1000,96,120
3209,F2,244.05,0.25,94,120
3210,F4,244.05,0.25,94,120
3211,C4,244.05,0.25,94,120
3212,A3,244.05,0.25,94,120
3213,C#3,244.05,0.25,94,120
3214,C2,244.05,0.25,94,120
3215,F2,244.05,0.25,94,120
3216,F5,244.05,0.375,64,120
3217,C5,244.05,0.375,64,120
3218,A4,244.05,0.375,64,120
3219,C5,244.05,0.25,96,120
3220,G5,244.05,0.25,96,120
3221,D5,244.483,983/1000,92,120
3222,E5,244.483,983/1000,92,120
3223,E2,244.55,1.0,78,120
3224,E4,244.55,1.0,78,120
3225,C4,244.55,1.0,78,120
3226,G3,244.55,1.0,78,120
3227,E5,244.55,1.0,78,120
3228,G4,244.55,1.0,78,120
3229,C5,244.55,1.0,78,120
3230,E2,244.55,1.0,78,120
3231,C#3,244.55,0.25,110,120
3232,C2,244.55,0.25,110,120
3233,E5,245.483,19/20,92,120
3234,E5,245.483,19/20,92,120
3235,D2,245.55,1.0,78,120
3236,A3,245.55,1.0,78,120
3237,D4,245.55,1.0,78,120
3238,F3,245.55,1.0,78,120
3239,D5,245.55,1.0,78,120
3240,F4,245.55,1.0,78,120
3241,A4,245.55,1.0,78,120
3242,D2,245.55,1.0,78,120
3243,C2,245.55,0.25,110,120
3244,A3,245.55,0.25,110,120
3245,C5,246.469,1.0,94,120
3246,C5,246.535,1.0,81,120
3247,G1,246.535,1.0,81,120
3248,C4,246.535,1.0,81,120
3249,A3,246.535,1.0,81,120
3250,F3,246.535,1.0,81,120
3251,C5,246.535,1.0,81,120
3252,A4,246.535,1.0,81,120
3253,F4,246.535,1.0,81,120
3254,G1,246.535,1.0,81,120
3255,C#3,246.55,0.25,110,120
3256,C2,246.55,0.25,110,120
3257,C5,247.469,581/1000,94,120
3258,C5,247.535,103/200,94,120
3259,C2,247.55,0.5,89,120
3260,E3,247.55,0.5,89,120
3261,G3,247.55,0.5,89,120
3262,C4,247.55,0.5,89,120
3263,C2,247.55,0.5,89,120
3264,C5,247.55,0.5,64,120
3265,G4,247.55,0.5,64,120
3266,E4,247.55,0.5,64,120
3267,C#3,247.55,0.25,110,120
3268,C2,247.55,0.25,110,120
3269,C5,248.05,769/1000,94,120
3270,C5,248.05,167/200,94,120
3271,C2,248.05,1.0,89,120
3272,E3,248.05,1.0,89,120
3273,G3,248.05,1.0,89,120
3274,C4,248.05,1.0,89,120
3275,C2,248.05,1.0,89,120
3276,C5,248.05,371/500,64,120
3277,G4,248.05,371/500,64,120
3278,E4,248.05,371/500,64,120
3279,E2,248.819,21/500,63,120
3280,E2,248.894,1/20,57,120
3281,E2,248.969,33/1000,53,120
3282,F#6,248.969,33/1000,53,120
3283,A5,249.029,167/1000,54,120
3284,D6,249.029,1/10,54,120
3285,C6,249.029,1/10,54,120
3286,G#1,249.05,2.875,98,120
3287,C#3,249.05,2.875,98,120
3288,B-3,249.05,2.875,98,120
3289,F#3,249.05,2.875,98,120
3290,C#4,249.05,2.875,98,120
3291,F#4,249.05,2.875,98,120
3292,B-4,249.05,2.875,98,120
3293,C#3,249.05,0.25,115,120
3294,D2,249.05,0.25,115,120
3295,G#1,249.05,2.5,115,120
3296,G#2,249.05,2.5,115,120
3297,E6,249.108,23/200,47,120
3298,D6,249.108,23/200,47,120
3299,C#6,249.167,131/1000,45,120
3300,B5,249.2,33/200,44,120
3301,A5,249.267,133/1000,39,120
3302,G#5,249.267,133/1000,39,120
3303,F#5,249.267,133/1000,39,120
3304,E5,249.352,129/1000,35,120
3305,D5,249.352,129/1000,35,120
3306,C#5,249.435,3/20,32,120
3307,B4,249.435,3/20,32,120
3308,A4,249.519,27/200,28,120
3309,G#4,249.519,27/200,28,120
3310,F#4,249.602,33/200,25,120
3311,E4,249.669,33/200,21,120
3312,E-4,249.733,131/1000,18,120
3313,D4,249.733,131/1000,18,120
3314,C#4,249.785,47/200,16,120
3315,C6,249.963,333/1000,45,120
3316,D6,249.963,67/1000,44,120
3317,F6,249.963,67/1000,44,120
3318,G6,250.01,23/200,41,120
3319,F#6,250.01,23/200,41,120
3320,F6,250.01,23/200,41,120
3321,G#4,250.035,483/1000,98,120
3322,C#3,250.05,0.25,118,120
3323,E6,250.071,133/1000,37,120
3324,E-6,250.071,133/1000,37,120
3325,D6,250.071,133/1000,37,120
3326,C#6,250.156,23/200,32,120
3327,B5,250.156,23/200,32,120
3328,B-5,250.156,23/200,32,120
3329,G#5,250.221,14/125,28,120
3330,G5,250.221,14/125,28,120
3331,F#5,250.221,14/125,28,120
3332,F5,250.221,14/125,28,120
3333,E-5,250.285,23/200,24,120
3334,D5,250.285,23/200,24,120
3335,B4,250.285,23/200,24,120
3336,B-4,250.356,23/200,20,120
3337,G#4,250.356,23/200,20,120
3338,G4,250.356,23/200,20,120
3339,F4,250.406,18/125,17,120
3340,D4,250.406,18/125,17,120
3341,C#4,250.49,0.25,64,120
3342,E2,250.49,0.25,64,120
3343,B-4,250.535,483/1000,98,120
3344,F#6,251.029,1/10,64,120
3345,G#6,251.029,1/10,64,120
3346,C#5,251.035,0.25,106,120
3347,D2,251.035,0.25,106,120
3348,B-6,251.065,131/1000,51,120
3349,E6,251.092,0.312,50,120
3350,G#6,251.131,18/125,47,120
3351,F#6,251.131,18/125,47,120
3352,E-6,251.215,131/1000,43,120
3353,C#6,251.215,131/1000,43,120
3354,B5,251.281,4/25,41,120
3355,D2,251.3,217/1000,109,120
3356,C#3,251.3,217/1000,109,120
3357,E-5,251.3,217/1000,109,120
3358,B-5,251.35,133/1000,36,120
3359,G#5,251.35,133/1000,36,120
3360,F#5,251.35,133/1000,36,120
3361,F5,251.415,133/1000,34,120
3362,E-5,251.448,167/1000,32,120
3363,C#5,251.517,3/20,28,120
3364,B4,251.517,3/20,28,120
3365,E2,251.55,0.25,108,120
3366,B-1,251.55,0.25,108,120
3367,F5,251.552,249/500,98,120
3368,B-4,251.619,23/200,23,120
3369,G#4,251.619,23/200,23,120
3370,F#4,251.683,7/50,20,120
3371,F4,251.683,7/50,20,120
3372,E4,251.775,23/200,16,120
3373,E-4,251.775,23/200,16,120
3374,C2,251.8,0.25,102,120
3375,D4,251.833,123/1000,13,120
3376,C#4,251.833,123/1000,13,120
3377,C4,251.929,121/1000,10,120
3378,B3,251.929,121/1000,10,120
3379,B-3,251.929,121/1000,10,120
3380,A3,252.0,1/20,8,120
3381,G#4,252.023,27/1000,77,120
3382,C#5,252.023,27/1000,77,120
3383,F4,252.023,27/1000,77,120
3384,C#3,252.023,27/1000,77,120
3385,C#2,252.023,27/1000,77,120
3386,C#5,252.023,27/1000,77,120
3387,G#4,252.023,27/1000,77,120
3388,F5,252.023,27/1000,77,120
3389,C#2,252.023,27/1000,77,120
3390,G#3,252.033,17/1000,6,120
3391,A3,252.05,81/1000,8,120
3392,F5,252.05,2377/1000,98,120
3393,G#3,252.05,3/20,6,120
3394,C2,252.05,0.25,96,120
3395,G#2,252.05,0.25,96,120
3396,C#3,252.05,0.25,96,120
3397,C4,252.05,1/100,10,120
3398,B3,252.05,1/100,10,120
3399,B-3,252.05,1/100,10,120
3400,G#4,252.05,1473/1000,77,120
3401,C#5,252.05,1473/1000,77,120
3402,F4,252.05,1473/1000,77,120
3403,C#3,252.05,1473/1000,77,120
3404,C#2,252.05,1473/1000,77,120
3405,C#5,252.05,1473/1000,77,120
3406,G#4,252.05,1473/1000,77,120
3407,F5,252.05,1473/1000,77,120
3408,C#2,252.05,1473/1000,77,120
3409,G3,252.1,117/1000,4,120
3410,B-2,252.55,0.25,104,120
3411,E-3,252.55,0.25,104,120
3412,G#2,253.05,0.25,104,120
3413,E2,253.05,0.25,104,120
3414,C#5,253.523,1.5,77,120
3415,G#4,253.523,1.5,77,120
3416,F4,253.523,1.5,77,120
3417,C#3,253.523,1.5,77,120
3418,C#2,253.523,1.5,77,120
3419,C#2,253.523,1.5,77,120
3420,C#5,253.531,2433/1000,75,120
3421,G#4,253.531,2433/1000,75,120
3422,F5,253.531,2433/1000,75,120
3423,G#2,253.55,0.25,104,120
3424,B-2,253.8,0.25,104,120
3425,C2,254.05,0.25,104,120
3426,G#2,254.05,0.25,104,120
3427,F#5,254.546,983/1000,115,120
3428,B-2,254.55,0.25,104,120
3429,E-3,254.55,0.25,104,120
3430,G#4,255.023,1.0,72,120
3431,F4,255.023,1.0,72,120
3432,C#3,255.023,1.0,72,120
3433,C#2,255.023,1.0,72,120
3434,C#4,255.023,1.0,72,120
3435,C#2,255.05,0.5,104,120
3436,G#2,255.05,0.25,104,120
3437,E2,255.05,0.25,104,120
3438,F5,255.546,63/125,104,120
3439,E-2,255.55,0.5,104,120
3440,G#2,255.55,0.25,104,120
3441,B-2,255.8,0.25,104,120
3442,G#4,256.019,0.031,77,120
3443,A4,256.019,0.031,77,120
3444,C5,256.019,0.031,77,120
3445,F3,256.019,0.031,77,120
3446,F2,256.019,0.031,77,120
3447,F#5,256.019,0.031,77,120
3448,E-5,256.019,0.031,77,120
3449,A5,256.019,0.031,77,120
3450,A5,256.019,0.031,77,120
3451,A4,256.019,0.031,77,120
3452,C5,256.019,0.031,77,120
3453,F#5,256.019,0.031,77,120
3454,E-5,256.019,0.031,77,120
3455,F2,256.05,0.75,104,120
3456,F5,256.05,229/1000,104,120
3457,C2,256.05,0.25,104,120
3458,G#2,256.05,0.25,104,120
3459,G#4,256.05,287/200,77,120
3460,A4,256.05,287/200,77,120
3461,C5,256.05,287/200,77,120
3462,F3,256.05,287/200,77,120
3463,F2,256.05,287/200,77,120
3464,F#5,256.05,287/200,77,120
3465,E-5,256.05,287/200,77,120
3466,A5,256.05,287/200,77,120
3467,A5,256.05,287/200,77,120
3468,A4,256.05,287/200,77,120
3469,C5,256.05,287/200,77,120
3470,F#5,256.05,287/200,77,120
3471,E-5,256.05,287/200,77,120
3472,F5,256.312,2483/1000,104,120
3473,B-2,256.55,0.25,104,120
3474,E-3,256.55,0.25,104,120
3475,F2,256.8,0.25,104,120
3476,G#2,257.05,0.25,104,120
3477,E2,257.05,0.25,104,120
3478,A1,257.05,0.25,104,120
3479,F#4,257.519,467/1000,74,120
3480,A4,257.519,467/1000,74,120
3481,C5,257.519,467/1000,74,120
3482,F3,257.519,467/1000,74,120
3483,F2,257.519,467/1000,74,120
3484,F#5,257.519,467/1000,74,120
3485,E-5,257.519,467/1000,74,120
3486,F#5,257.519,467/1000,74,120
3487,E-5,257.519,467/1000,74,120
3488,G#2,257.55,0.25,104,120
3489,C2,257.55,0.25,104,120
3490,A4,257.556,467/1000,86,120
3491,C5,257.556,467/1000,86,120
3492,F#5,257.556,467/1000,86,120
3493,E-5,257.556,467/1000,86,120
3494,B-2,257.8,0.25,104,120
3495,F4,258.019,1933/1000,70,120
3496,A4,258.019,1933/1000,70,120
3497,C5,258.019,1933/1000,70,120
3498,F3,258.019,1933/1000,70,120
3499,F2,258.019,1933/1000,70,120
3500,F5,258.019,1933/1000,70,120
3501,E-5,258.019,1933/1000,70,120
3502,F2,258.05,0.75,104,120
3503,C2,258.05,0.25,104,120
3504,G#2,258.05,0.25,104,120
3505,A4,258.056,9/10,86,120
3506,C5,258.056,9/10,86,120
3507,F5,258.056,9/10,86,120
3508,E-5,258.056,9/10,86,120
3509,F4,258.519,1483/1000,60,120
3510,F4,258.519,1483/1000,60,120
3511,B-2,258.55,0.25,104,120
3512,E-3,258.55,0.25,104,120
3513,A4,259.031,1.0,91,120
3514,F2,259.05,0.5,102,120
3515,G#2,259.05,0.25,104,120
3516,E2,259.05,0.25,104,120
3517,G#2,259.55,0.25,104,120
3518,G#1,259.55,0.25,104,120
3519,G#2,259.8,0.25,104,120
3520,A1,259.8,0.25,104,120
3521,B-4,260.019,0.031,66,120
3522,F4,260.019,0.031,66,120
3523,C#4,260.019,0.031,66,120
3524,B-2,260.019,0.031,66,120
3525,E-4,260.035,3/200,69,120
3526,E-4,260.035,3/200,69,120
3527,F4,260.035,3/200,69,120
3528,C#5,260.035,3/200,69,120
3529,B-1,260.05,1.5,104,120
3530,C2,260.05,0.25,104,120
3531,G#2,260.05,0.25,104,120
3532,B-4,260.05,1369/1000,66,120
3533,F4,260.05,1369/1000,66,120
3534,C#4,260.05,1369/1000,66,120
3535,B-2,260.05,1369/1000,66,120
3536,E-4,260.05,419/1000,69,120
3537,E-4,260.05,419/1000,69,120
3538,F4,260.05,419/1000,69,120
3539,C#5,260.05,419/1000,69,120
3540,B-4,260.052,433/1000,78,120
3541,F4,260.052,433/1000,78,120
3542,C#5,260.052,433/1000,78,120
3543,B-2,260.55,0.25,104,120
3544,E-3,260.55,0.25,104,120
3545,F4,260.55,933/1000,78,120
3546,C#5,260.55,933/1000,78,120
3547,B-4,260.55,933/1000,78,120
3548,C#4,260.552,483/1000,61,120
3549,C#4,260.552,483/1000,61,120
3550,B-3,261.035,0.5,61,120
3551,B-3,261.035,0.5,61,120
3552,G#2,261.05,0.25,104,120
3553,E2,261.05,0.25,104,120
3554,C4,261.485,12/5,66,120
3555,E-4,261.485,12/5,66,120
3556,G#4,261.485,12/5,66,120
3557,G#2,261.485,12/5,66,120
3558,E-4,261.535,483/1000,61,120
3559,E-4,261.535,483/1000,61,120
3560,G#2,261.55,0.25,104,120
3561,G#2,261.55,2.0,104,120
3562,B-4,261.552,867/1000,78,120
3563,F4,261.552,933/1000,78,120
3564,C#5,261.552,933/1000,78,120
3565,B-2,261.8,0.25,104,120
3566,C#4,262.035,483/1000,61,120
3567,C#4,262.035,483/1000,61,120
3568,C2,262.05,0.25,104,120
3569,G#2,262.05,0.25,104,120
3570,B-3,262.535,0.5,71,120
3571,B-3,262.535,0.5,71,120
3572,B-4,262.535,0.5,71,120
3573,F4,262.535,0.5,71,120
3574,C#5,262.535,0.5,71,120
3575,B-2,262.55,0.25,104,120
3576,E-3,262.55,0.25,104,120
3577,E-4,263.035,933/1000,67,120
3578,E-4,263.035,933/1000,67,120
3579,B-4,263.035,933/1000,67,120
3580,G#2,263.05,0.25,104,120
3581,E2,263.05,0.25,104,120
3582,G#2,263.55,0.25,104,120
3583,G#2,263.55,0.25,104,120
3584,G2,263.8,0.25,104,120
3585,B-2,263.8,0.25,104,120
3586,G#4,264.017,33/1000,70,120
3587,B-3,264.017,33/1000,70,120
3588,C#4,264.017,33/1000,70,120
3589,F4,264.017,33/1000,70,120
3590,F#2,264.017,33/1000,70,120
3591,C#5,264.031,19/1000,78,120
3592,B-4,264.031,19/1000,78,120
3593,F4,264.031,19/1000,78,120
3594,F#4,264.031,19/1000,78,120
3595,C#4,264.031,19/1000,78,120
3596,C#4,264.035,3/200,62,120
3597,C#4,264.035,3/200,62,120
3598,F#2,264.05,0.5,104,120
3599,C2,264.05,0.25,104,120
3600,G#2,264.05,0.25,104,120
3601,G#4,264.05,19/10,70,120
3602,B-3,264.05,19/10,70,120
3603,C#4,264.05,19/10,70,120
3604,F4,264.05,19/10,70,120
3605,F#2,264.05,19/10,70,120
3606,C#5,264.05,3881/1000,78,120
3607,B-4,264.05,3881/1000,78,120
3608,F4,264.05,3881/1000,78,120
3609,F#4,264.05,3881/1000,78,120
3610,C#4,264.05,3881/1000,78,120
3611,C#4,264.05,1.719,62,120
3612,C#4,264.05,1.719,62,120
3613,F#2,264.55,0.5,104,120
3614,B-2,264.55,0.25,104,120
3615,E-3,264.55,0.25,104,120
3616,F2,265.05,0.5,104,120
3617,E2,265.05,0.25,104,120
3618,E2,265.55,0.5,104,120
3619,B-2,265.55,0.25,104,120
3620,E-3,265.55,0.25,104,120
3621,C#4,266.019,1933/1000,64,120
3622,G#2,266.019,1933/1000,64,120
3623,B-4,266.019,1933/1000,64,120
3624,F#4,266.019,1933/1000,64,120
3625,G#4,266.048,0.5,96,120
3626,E-2,266.048,0.5,96,120
3627,B-2,266.05,0.25,104,120
3628,C2,266.05,0.25,104,120
3629,B-4,266.531,0.5,96,120
3630,G#2,266.531,0.5,96,120
3631,E2,266.55,0.25,94,120
3632,C#3,266.55,0.25,94,120
3633,C#5,267.048,0.25,100,120
3634,G#1,267.048,0.25,100,120
3635,E2,267.048,0.25,100,120
3636,G#1,267.3,233/1000,101,120
3637,E2,267.3,233/1000,101,120
3638,E-5,267.3,233/1000,101,120
3639,D2,267.55,0.25,104,120
3640,B-1,267.55,0.25,104,120
3641,F5,267.565,97/200,105,120
3642,D2,267.8,0.25,92,120
3643,C2,267.8,0.25,92,120
3644,G#4,268.023,27/1000,71,120
3645,F4,268.023,27/1000,71,120
3646,C#3,268.023,27/1000,71,120
3647,C#2,268.023,27/1000,71,120
3648,C#5,268.023,27/1000,71,120
3649,G#4,268.023,27/1000,71,120
3650,F4,268.023,27/1000,71,120
3651,C#4,268.023,27/1000,71,120
3652,C#2,268.05,0.75,104,120
3653,F5,268.05,503/200,105,120
3654,C2,268.05,0.25,96,120
3655,G#2,268.05,0.25,96,120
3656,C#3,268.05,0.25,96,120
3657,G#4,268.05,1173/1000,71,120
3658,F4,268.05,1173/1000,71,120
3659,C#3,268.05,1173/1000,71,120
3660,C#2,268.05,1173/1000,71,120
3661,C#5,268.05,1173/1000,71,120
3662,G#4,268.05,1173/1000,71,120
3663,F4,268.05,1173/1000,71,120
3664,C#4,268.05,1173/1000,71,120
3665,B-2,268.55,0.25,104,120
3666,E-3,268.55,0.25,104,120
3667,F1,268.8,0.25,101,120
3668,G#2,269.05,0.25,103,120
3669,E2,269.05,0.25,103,120
3670,G#1,269.05,0.25,103,120
3671,F4,269.283,1/5,74,120
3672,G#4,269.283,1/5,74,120
3673,F4,269.283,1/5,74,120
3674,C#3,269.283,1/5,74,120
3675,C#2,269.283,1/5,74,120
3676,G#4,269.323,233/1000,75,120
3677,F4,269.323,233/1000,75,120
3678,C#3,269.323,233/1000,75,120
3679,C#2,269.323,233/1000,75,120
3680,C#4,269.323,233/1000,75,120
3681,C#5,269.531,2433/1000,75,120
3682,G#4,269.531,2433/1000,75,120
3683,F4,269.531,2433/1000,75,120
3684,G#2,269.55,0.25,104,120
3685,F#2,269.55,0.5,104,120
3686,C#5,269.59,11/10,75,120
3687,G#4,269.59,11/10,75,120
3688,F4,269.59,11/10,75,120
3689,C#3,269.59,11/10,75,120
3690,C#2,269.59,11/10,75,120
3691,B-2,269.8,0.25,104,120
3692,C#2,270.05,0.5,102,120
3693,C2,270.05,0.25,104,120
3694,G#2,270.05,0.25,104,120
3695,G#5,270.55,767/1000,105,120
3696,E-2,270.55,0.5,104,120
3697,B-2,270.55,0.25,104,120
3698,E-3,270.55,0.25,104,120
3699,C#2,271.05,0.5,104,120
3700,G#2,271.05,0.25,104,120
3701,E2,271.05,0.25,104,120
3702,G#4,271.056,9/10,75,120
3703,F4,271.056,9/10,75,120
3704,C#3,271.056,9/10,75,120
3705,C#2,271.056,9/10,75,120
3706,C#5,271.056,9/10,75,120
3707,F5,271.333,717/1000,105,120
3708,E-2,271.55,0.5,104,120
3709,G#2,271.55,0.25,104,120
3710,B-2,271.8,0.25,104,120
3711,G#4,272.019,0.031,75,120
3712,A4,272.019,0.031,75,120
3713,C5,272.019,0.031,75,120
3714,F3,272.019,0.031,75,120
3715,F2,272.019,0.031,75,120
3716,F#5,272.019,0.031,75,120
3717,E-5,272.019,0.031,75,120
3718,A5,272.019,0.031,75,120
3719,A4,272.019,0.031,75,120
3720,C5,272.019,0.031,75,120
3721,F#5,272.019,0.031,75,120
3722,E-5,272.019,0.031,75,120
3723,F5,272.05,2.5,105,120
3724,C2,272.05,0.25,104,120
3725,G#2,272.05,0.25,104,120
3726,F2,272.05,0.25,104,120
3727,A5,272.05,1433/1000,79,120
3728,A5,272.05,1433/1000,79,120
3729,G#4,272.05,287/200,75,120
3730,A4,272.05,287/200,75,120
3731,C5,272.05,287/200,75,120
3732,F3,272.05,287/200,75,120
3733,F2,272.05,287/200,75,120
3734,F#5,272.05,287/200,75,120
3735,E-5,272.05,287/200,75,120
3736,A5,272.05,287/200,75,120
3737,A4,272.05,287/200,75,120
3738,C5,272.05,287/200,75,120
3739,F#5,272.05,287/200,75,120
3740,E-5,272.05,287/200,75,120
3741,A1,272.3,0.25,105,120
3742,B-2,272.55,0.25,104,120
3743,E-3,272.55,0.25,104,120
3744,B-1,272.55,0.25,104,120
3745,G#2,273.05,0.25,103,120
3746,E2,273.05,0.25,103,120
3747,B1,273.05,0.25,103,120
3748,F#4,273.519,467/1000,74,120
3749,A4,273.519,467/1000,74,120
3750,C5,273.519,467/1000,74,120
3751,F3,273.519,467/1000,74,120
3752,F2,273.519,467/1000,74,120
3753,F#5,273.519,467/1000,74,120
3754,E-5,273.519,467/1000,74,120
3755,F#5,273.519,467/1000,74,120
3756,E-5,273.519,467/1000,74,120
3757,G#2,273.55,0.25,104,120
3758,C2,273.55,0.25,104,120
3759,A4,273.556,467/1000,70,120
3760,C5,273.556,467/1000,70,120
3761,F#5,273.556,467/1000,70,120
3762,E-5,273.556,467/1000,70,120
3763,B-2,273.8,0.25,104,120
3764,F4,274.019,1933/1000,75,120
3765,A4,274.019,1933/1000,75,120
3766,C5,274.019,1933/1000,75,120
3767,F3,274.019,1933/1000,75,120
3768,F2,274.019,1933/1000,75,120
3769,F5,274.019,1933/1000,75,120
3770,E-5,274.019,1933/1000,75,120
3771,C#2,274.05,0.5,104,120
3772,C2,274.05,0.25,104,120
3773,G#2,274.05,0.25,104,120
3774,A4,274.056,9/10,70,120
3775,C5,274.056,9/10,70,120
3776,F5,274.056,9/10,70,120
3777,E-5,274.056,9/10,70,120
3778,F4,274.519,1483/1000,67,120
3779,F4,274.519,1483/1000,67,120
3780,F2,274.55,0.5,100,120
3781,B-2,274.55,0.25,104,120
3782,E-3,274.55,0.25,104,120
3783,A4,275.031,1.0,70,120
3784,F2,275.05,0.5,102,120
3785,G#2,275.05,0.25,104,120
3786,E2,275.05,0.25,104,120
3787,G#2,275.55,0.25,103,120
3788,E-2,275.55,0.25,103,120
3789,G#2,275.8,0.25,104,120
3790,F2,275.8,0.25,104,120
3791,B-4,276.019,0.031,79,120
3792,F4,276.019,0.031,79,120
3793,C#4,276.019,0.031,79,120
3794,B-2,276.019,0.031,79,120
3795,F4,276.019,0.031,79,120
3796,C#4,276.019,0.031,79,120
3797,E-4,276.035,3/200,67,120
3798,E-4,276.035,3/200,67,120
3799,C2,276.05,0.25,104,120
3800,G#2,276.05,0.25,104,120
3801,B-2,276.05,1467/1000,84,120
3802,B-4,276.05,1467/1000,84,120
3803,B-4,276.05,701/500,79,120
3804,F4,276.05,701/500,79,120
3805,C#4,276.05,701/500,79,120
3806,B-2,276.05,701/500,79,120
3807,F4,276.05,701/500,79,120
3808,C#4,276.05,701/500,79,120
3809,E-4,276.05,97/200,67,120
3810,E-4,276.05,97/200,67,120
3811,B-2,276.55,0.25,104,120
3812,E-3,276.55,0.25,104,120
3813,C#4,276.552,483/1000,67,120
3814,C#4,276.552,483/1000,67,120
3815,B-3,277.035,0.5,67,120
3816,B-3,277.035,0.5,67,120
3817,G#2,277.05,0.25,104,120
3818,E2,277.05,0.25,104,120
3819,C4,277.485,12/5,86,120
3820,E-4,277.485,12/5,86,120
3821,G#4,277.485,12/5,86,120
3822,G#2,277.485,12/5,86,120
3823,E-4,277.535,483/1000,67,120
3824,E-4,277.535,483/1000,67,120
3825,G#2,277.55,2.0,104,120
3826,G#2,277.55,0.25,104,120
3827,C#5,277.55,2433/1000,57,120
3828,G#4,277.55,2433/1000,57,120
3829,E-4,277.55,2433/1000,57,120
3830,B-2,277.8,0.25,104,120
3831,C#4,278.035,483/1000,68,120
3832,C#4,278.035,483/1000,68,120
3833,C2,278.05,0.25,104,120
3834,G#2,278.05,0.25,104,120
3835,B-3,278.535,483/1000,68,120
3836,B-3,278.535,483/1000,68,120
3837,B-2,278.55,0.25,104,120
3838,E-3,278.55,0.25,104,120
3839,E-4,279.035,983/1000,68,120
3840,E-4,279.035,983/1000,68,120
3841,G#2,279.05,0.25,104,120
3842,E2,279.05,0.25,104,120
3843,G#2,279.55,0.25,104,120
3844,B-2,279.55,0.25,104,120
3845,G2,279.8,0.25,104,120
3846,F#2,280.017,33/1000,78,120
3847,F#2,280.017,33/1000,78,120
3848,C#4,280.035,3/200,62,120
3849,C#4,280.035,3/200,62,120
3850,C2,280.05,0.25,96,120
3851,F#2,280.05,0.75,104,120
3852,C#4,280.05,319/125,62,120
3853,C#4,280.05,319/125,62,120
3854,F#2,280.05,633/1000,78,120
3855,F#2,280.05,633/1000,78,120
3856,C#3,280.3,0.25,98,120
3857,F#2,280.75,233/1000,78,120
3858,F#2,280.75,233/1000,78,120
3859,E2,280.8,0.25,97,120
3860,F#2,280.8,0.25,97,120
3861,C2,280.8,0.25,97,120
3862,F2,281.017,0.375,87,120
3863,F2,281.017,0.375,87,120
3864,C2,281.05,233/1000,91,120
3865,F2,281.05,233/1000,91,120
3866,B-4,281.156,167/1000,64,120
3867,B-5,281.29,967/1000,96,120
3868,A3,281.3,0.25,98,120
3869,E2,281.517,0.375,87,120
3870,E2,281.517,0.375,87,120
3871,E2,281.55,1/5,86,120
3872,E2,281.8,0.25,94,120
3873,C2,281.8,0.25,94,120
3874,E-2,282.017,1/5,78,120
3875,E-2,282.017,1/5,78,120
3876,C2,282.05,1/5,95,120
3877,E-2,282.05,1/5,95,120
3878,E-2,282.05,1/5,95,120
3879,E-2,282.283,1/5,78,120
3880,E-2,282.283,1/5,78,120
3881,B-5,282.29,733/1000,96,120
3882,C#3,282.3,1/5,96,120
3883,E-2,282.3,1/5,96,120
3884,E-2,282.3,1/5,96,120
3885,B-1,282.517,233/1000,87,120
3886,B-1,282.517,233/1000,87,120
3887,B-1,282.517,233/1000,87,120
3888,A1,282.75,233/1000,78,120
3889,A1,282.75,233/1000,78,120
3890,D2,282.8,0.25,97,120
3891,A1,282.8,0.25,97,120
3892,C2,282.8,0.25,97,120
3893,G#1,283.017,167/1000,79,120
3894,G#1,283.017,167/1000,79,120
3895,G#2,283.017,167/1000,79,120
3896,G#5,283.04,7/20,96,120
3897,C2,283.05,0.25,100,120
3898,G#1,283.05,0.25,100,120
3899,G#1,283.25,0.25,90,120
3900,G#1,283.25,0.25,90,120
3901,C#3,283.25,0.25,90,120
3902,G#1,283.25,0.25,90,120
3903,G#2,283.283,767/1000,83,120
3904,F#3,283.283,767/1000,83,120
3905,G#5,283.406,3/5,86,120
3906,B-1,283.517,1/5,78,120
3907,B-1,283.517,1/5,78,120
3908,B-1,283.55,1/5,95,120
3909,B-1,283.55,1/5,95,120
3910,C2,283.75,1/5,78,120
3911,C2,283.75,1/5,78,120
3912,D2,283.8,0.25,97,120
3913,C2,283.8,0.25,97,120
3914,C2,283.8,0.25,97,120
3915,C#2,283.99,3/50,73,120
3916,G#4,283.99,3/50,73,120
3917,C#5,283.99,3/50,73,120
3918,F4,283.99,3/50,73,120
3919,C#3,283.99,3/50,73,120
3920,C#2,283.99,3/50,73,120
3921,C#5,283.99,3/50,73,120
3922,G#4,283.99,3/50,73,120
3923,F5,283.99,3/50,73,120
3924,E-5,284.023,27/1000,88,120
3925,C#2,284.05,0.75,104,120
3926,E-5,284.05,307/125,88,120
3927,C2,284.05,0.25,96,120
3928,G#2,284.05,0.25,96,120
3929,C#3,284.05,0.25,96,120
3930,C#2,284.05,1373/1000,73,120
3931,G#4,284.05,1373/1000,73,120
3932,C#5,284.05,1373/1000,73,120
3933,F4,284.05,1373/1000,73,120
3934,C#3,284.05,1373/1000,73,120
3935,C#2,284.05,1373/1000,73,120
3936,C#5,284.05,1373/1000,73,120
3937,G#4,284.05,1373/1000,73,120
3938,F5,284.05,1373/1000,73,120
3939,G#2,284.05,233/1000,83,120
3940,F#3,284.05,233/1000,83,120
3941,B-2,284.55,0.25,104,120
3942,E-3,284.55,0.25,104,120
3943,C#2,284.8,0.25,102,120
3944,G#2,285.05,0.25,103,120
3945,E2,285.05,0.25,103,120
3946,F1,285.05,0.25,103,120
3947,C#2,285.517,2.0,85,120
3948,C#2,285.517,2.0,85,120
3949,C#5,285.523,1433/1000,72,120
3950,G#4,285.523,1433/1000,72,120
3951,F4,285.523,1433/1000,72,120
3952,C#3,285.523,1433/1000,72,120
3953,C#2,285.523,1433/1000,72,120
3954,C#5,285.531,2433/1000,75,120
3955,G#4,285.531,2433/1000,75,120
3956,F5,285.531,2433/1000,75,120
3957,G#2,285.55,0.25,104,120
3958,B-2,285.8,0.25,104,120
3959,C2,286.05,0.25,104,120
3960,G#2,286.05,0.25,104,120
3961,G#5,286.54,0.75,99,120
3962,B-2,286.55,0.25,104,120
3963,E-3,286.55,0.25,104,120
3964,G#4,287.023,1.0,72,120
3965,F4,287.023,1.0,72,120
3966,C#3,287.023,1.0,72,120
3967,C#2,287.023,1.0,72,120
3968,C#4,287.023,1.0,72,120
3969,G#2,287.05,0.25,104,120
3970,E2,287.05,0.25,104,120
3971,F#5,287.29,19/25,99,120
3972,C#2,287.517,0.25,91,120
3973,G#2,287.517,0.25,91,120
3974,C#2,287.517,0.25,91,120
3975,E-2,287.767,0.25,91,120
3976,B-2,287.767,0.25,91,120
3977,E-2,287.767,0.25,91,120
3978,F2,288.017,33/1000,85,120
3979,F2,288.017,33/1000,85,120
3980,G#4,288.019,0.031,72,120
3981,A4,288.019,0.031,72,120
3982,C5,288.019,0.031,72,120
3983,F3,288.019,0.031,72,120
3984,F2,288.019,0.031,72,120
3985,F#5,288.019,0.031,72,120
3986,E-5,288.019,0.031,72,120
3987,A5,288.019,0.031,72,120
3988,F#5,288.05,9/100,99,120
3989,C2,288.05,0.25,104,120
3990,G#2,288.05,0.25,104,120
3991,F2,288.05,717/1000,85,120
3992,F2,288.05,717/1000,85,120
3993,G#4,288.05,1.469,72,120
3994,A4,288.05,1.469,72,120
3995,C5,288.05,1.469,72,120
3996,F3,288.05,1.469,72,120
3997,F2,288.05,1.469,72,120
3998,F#5,288.05,1.469,72,120
3999,E-5,288.05,1.469,72,120
4000,A5,288.05,1.469,72,120
4001,F5,288.156,49/20,96,120
4002,A4,288.523,967/1000,78,120
4003,C5,288.523,967/1000,78,120
4004,F#5,288.523,967/1000,78,120
4005,E-5,288.523,967/1000,78,120
4006,B-2,288.55,0.25,104,120
4007,E-3,288.55,0.25,104,120
4008,F2,288.767,0.25,86,120
4009,F2,288.767,0.25,86,120
4010,A1,289.017,0.25,95,120
4011,G#2,289.017,0.25,95,120
4012,E2,289.017,0.25,95,120
4013,A1,289.017,0.25,95,120
4014,C2,289.517,0.25,92,120
4015,G#2,289.517,0.25,92,120
4016,C2,289.517,0.25,92,120
4017,F#4,289.519,467/1000,72,120
4018,A4,289.519,467/1000,72,120
4019,C5,289.519,467/1000,72,120
4020,F3,289.519,467/1000,72,120
4021,F2,289.519,467/1000,72,120
4022,F#5,289.519,467/1000,72,120
4023,E-5,289.519,467/1000,72,120
4024,F#5,289.519,467/1000,72,120
4025,E-5,289.519,467/1000,72,120
4026,A4,289.556,467/1000,78,120
4027,C5,289.556,467/1000,78,120
4028,F#5,289.556,467/1000,78,120
4029,E-5,289.556,467/1000,78,120
4030,B-2,289.8,0.25,104,120
4031,F2,290.017,0.75,86,120
4032,F2,290.017,0.75,86,120
4033,F4,290.019,1933/1000,70,120
4034,A4,290.019,1933/1000,70,120
4035,C5,290.019,1933/1000,70,120
4036,F3,290.019,1933/1000,70,120
4037,F2,290.019,1933/1000,70,120
4038,F5,290.019,1933/1000,70,120
4039,E-5,290.019,1933/1000,70,120
4040,C2,290.05,0.25,104,120
4041,G#2,290.05,0.25,104,120
4042,A4,290.056,9/10,78,120
4043,C5,290.056,9/10,78,120
4044,F5,290.056,9/10,78,120
4045,E-5,290.056,9/10,78,120
4046,F4,290.519,1483/1000,60,120
4047,F4,290.519,1483/1000,60,120
4048,B-2,290.55,0.25,104,120
4049,E-3,290.55,0.25,104,120
4050,F2,291.017,0.5,86,120
4051,F2,291.017,0.5,86,120
4052,A4,291.031,1.0,78,120
4053,G#2,291.05,0.25,104,120
4054,E2,291.05,0.25,104,120
4055,G#1,291.517,0.25,92,120
4056,G#2,291.517,0.25,92,120
4057,G#1,291.517,0.25,92,120
4058,A1,291.767,0.25,92,120
4059,G#2,291.767,0.25,92,120
4060,A1,291.767,0.25,92,120
4061,B-1,292.017,33/1000,86,120
4062,B-1,292.017,33/1000,86,120
4063,B-4,292.019,0.031,66,120
4064,F4,292.019,0.031,66,120
4065,C#4,292.019,0.031,66,120
4066,B-2,292.019,0.031,66,120
4067,E-4,292.035,3/200,69,120
4068,E-4,292.035,3/200,69,120
4069,F4,292.035,3/200,69,120
4070,C#5,292.035,3/200,69,120
4071,C2,292.05,0.25,104,120
4072,G#2,292.05,0.25,104,120
4073,B-1,292.05,1467/1000,86,120
4074,B-1,292.05,1467/1000,86,120
4075,B-4,292.05,1369/1000,66,120
4076,F4,292.05,1369/1000,66,120
4077,C#4,292.05,1369/1000,66,120
4078,B-2,292.05,1369/1000,66,120
4079,E-4,292.05,419/1000,69,120
4080,E-4,292.05,419/1000,69,120
4081,F4,292.05,419/1000,69,120
4082,C#5,292.05,419/1000,69,120
4083,B-4,292.052,433/1000,78,120
4084,F4,292.052,433/1000,78,120
4085,C#5,292.052,433/1000,78,120
4086,B-2,292.55,0.25,104,120
4087,E-3,292.55,0.25,104,120
4088,F4,292.55,933/1000,78,120
4089,C#5,292.55,933/1000,78,120
4090,B-4,292.55,933/1000,78,120
4091,C#4,292.552,483/1000,61,120
4092,C#4,292.552,483/1000,61,120
4093,B-3,293.035,0.5,61,120
4094,B-3,293.035,0.5,61,120
4095,G#2,293.05,0.25,104,120
4096,E2,293.05,0.25,104,120
4097,C4,293.485,12/5,66,120
4098,E-4,293.485,12/5,66,120
4099,G#4,293.485,12/5,66,120
4100,G#2,293.485,12/5,66,120
4101,G#2,293.517,1.5,86,120
4102,G#2,293.517,1.5,86,120
4103,E-4,293.535,483/1000,61,120
4104,E-4,293.535,483/1000,61,120
4105,G#2,293.55,0.25,104,120
4106,B-4,293.552,867/1000,78,120
4107,F4,293.552,933/1000,78,120
4108,C#5,293.552,933/1000,78,120
4109,B-2,293.8,0.25,104,120
4110,C#4,294.035,483/1000,61,120
4111,C#4,294.035,483/1000,61,120
4112,C2,294.05,0.25,104,120
4113,G#2,294.05,0.25,104,120
4114,B-3,294.535,0.5,71,120
4115,B-3,294.535,0.5,71,120
4116,B-4,294.535,0.5,71,120
4117,F4,294.535,0.5,71,120
4118,C#5,294.535,0.5,71,120
4119,B-2,294.55,0.25,104,120
4120,E-3,294.55,0.25,104,120
4121,G#2,295.017,0.5,86,120
4122,G#2,295.017,0.5,86,120
4123,E-4,295.035,933/1000,67,120
4124,E-4,295.035,933/1000,67,120
4125,B-4,295.035,933/1000,67,120
4126,G#2,295.05,0.25,104,120
4127,E2,295.05,0.25,104,120
4128,G#2,295.517,0.25,94,120
4129,G#2,295.517,0.25,94,120
4130,E-3,295.517,0.25,94,120
4131,B-2,295.517,0.25,94,120
4132,G2,295.767,0.25,86,120
4133,G2,295.767,0.25,86,120
4134,F#2,296.017,33/1000,87,120
4135,F#2,296.017,33/1000,87,120
4136,F#2,296.017,33/1000,87,120
4137,B-3,296.019,0.031,67,120
4138,C#4,296.019,0.031,67,120
4139,F4,296.019,0.031,67,120
4140,C#5,296.031,19/1000,78,120
4141,B-4,296.031,19/1000,78,120
4142,F4,296.031,19/1000,78,120
4143,F#4,296.031,19/1000,78,120
4144,C#4,296.031,19/1000,78,120
4145,C#4,296.035,3/200,62,120
4146,C#4,296.035,3/200,62,120
4147,C2,296.05,0.25,104,120
4148,G#2,296.05,0.25,104,120
4149,E-3,296.05,0.25,104,120
4150,F#2,296.05,467/1000,87,120
4151,F#2,296.05,467/1000,87,120
4152,F#2,296.05,467/1000,87,120
4153,B-3,296.05,951/500,67,120
4154,C#4,296.05,951/500,67,120
4155,F4,296.05,951/500,67,120
4156,C#5,296.05,3881/1000,78,120
4157,B-4,296.05,3881/1000,78,120
4158,F4,296.05,3881/1000,78,120
4159,F#4,296.05,3881/1000,78,120
4160,C#4,296.05,3881/1000,78,120
4161,C#4,296.05,1.719,62,120
4162,C#4,296.05,1.719,62,120
4163,F#2,296.517,0.25,88,120
4164,B-2,296.517,0.25,88,120
4165,C#3,296.517,0.25,88,120
4166,F#2,296.517,0.25,88,120
4167,F#2,296.517,0.25,88,120
4168,F#2,296.767,0.25,87,120
4169,F#2,296.767,0.25,87,120
4170,F#2,296.767,0.25,87,120
4171,F2,297.017,0.5,87,120
4172,G#4,297.017,0.5,87,120
4173,F2,297.017,0.5,87,120
4174,F2,297.017,0.5,87,120
4175,E2,297.05,0.25,90,120
4176,C#3,297.05,0.25,90,120
4177,E2,297.517,0.5,87,120
4178,G#4,297.517,0.5,87,120
4179,E2,297.517,0.5,87,120
4180,E2,297.517,0.5,87,120
4181,B-2,297.55,0.25,90,120
4182,C#3,297.55,0.25,90,120
4183,E-2,298.017,0.25,90,120
4184,G#4,298.017,0.25,90,120
4185,B-2,298.017,0.25,90,120
4186,C2,298.017,0.25,90,120
4187,C#3,298.017,0.25,90,120
4188,E-2,298.017,0.25,90,120
4189,E-2,298.017,0.25,90,120
4190,C#4,298.019,1933/1000,64,120
4191,G#2,298.019,1933/1000,64,120
4192,B-4,298.019,1933/1000,64,120
4193,F#4,298.019,1933/1000,64,120
4194,E-2,298.267,0.25,88,120
4195,E-2,298.267,0.25,88,120
4196,E-2,298.267,0.25,88,120
4197,B-4,298.288,0.5,88,120
4198,B-1,298.517,0.25,91,120
4199,E2,298.517,0.25,91,120
4200,B-1,298.517,0.25,91,120
4201,B-1,298.517,0.25,91,120
4202,B-1,298.767,0.25,90,120
4203,C#5,298.767,0.25,90,120
4204,E2,298.767,0.25,90,120
4205,B-1,298.767,0.25,90,120
4206,B-1,298.767,0.25,90,120
4207,G#1,299.017,0.25,86,120
4208,E-5,299.017,0.25,86,120
4209,G#1,299.017,0.25,86,120
4210,E2,299.017,0.25,86,120
4211,G#1,299.017,0.25,86,120
4212,E2,299.217,167/1000,83,120
4213,G#1,299.267,0.25,87,120
4214,G#1,299.267,0.25,87,120
4215,G#1,299.267,0.25,87,120
4216,F5,299.304,373/500,96,120
4217,E2,299.383,167/1000,83,120
4218,B-1,299.517,0.25,84,120
4219,B-1,299.517,0.25,84,120
4220,D2,299.517,0.25,84,120
4221,B-1,299.517,0.25,84,120
4222,D2,299.717,167/1000,75,120
4223,C2,299.767,0.25,87,120
4224,C2,299.767,0.25,87,120
4225,C2,299.767,0.25,87,120
4226,D2,299.883,167/1000,75,120
4227,C#2,300.017,33/1000,90,120
4228,C#2,300.017,33/1000,90,120
4229,G#4,300.023,27/1000,71,120
4230,F4,300.023,27/1000,71,120
4231,C#3,300.023,27/1000,71,120
4232,C#2,300.023,27/1000,71,120
4233,C#5,300.023,27/1000,71,120
4234,G#4,300.023,27/1000,71,120
4235,F4,300.023,27/1000,71,120
4236,C#4,300.023,27/1000,71,120
4237,F5,300.05,497/250,96,120
4238,C2,300.05,0.25,96,120
4239,G#2,300.05,0.25,96,120
4240,C#3,300.05,0.25,96,120
4241,C#2,300.05,467/1000,90,120
4242,C#2,300.05,467/1000,90,120
4243,G#4,300.05,1173/1000,71,120
4244,F4,300.05,1173/1000,71,120
4245,C#3,300.05,1173/1000,71,120
4246,C#2,300.05,1173/1000,71,120
4247,C#5,300.05,1173/1000,71,120
4248,G#4,300.05,1173/1000,71,120
4249,F4,300.05,1173/1000,71,120
4250,C#4,300.05,1173/1000,71,120
4251,F1,300.517,0.5,84,120
4252,F1,300.517,0.5,84,120
4253,B-2,300.55,0.25,104,120
4254,E-3,300.55,0.25,104,120
4255,G#1,301.017,0.5,84,120
4256,G#1,301.017,0.5,84,120
4257,G#2,301.05,0.25,104,120
4258,E2,301.05,0.25,104,120
4259,F4,301.283,1/5,74,120
4260,G#4,301.283,1/5,74,120
4261,F4,301.283,1/5,74,120
4262,C#3,301.283,1/5,74,120
4263,C#2,301.283,1/5,74,120
4264,G#4,301.323,233/1000,75,120
4265,F4,301.323,233/1000,75,120
4266,C#3,301.323,233/1000,75,120
4267,C#2,301.323,233/1000,75,120
4268,C#4,301.323,233/1000,75,120
4269,F1,301.517,0.5,85,120
4270,F1,301.517,0.5,85,120
4271,C#5,301.531,2433/1000,75,120
4272,G#4,301.531,2433/1000,75,120
4273,F4,301.531,2433/1000,75,120
4274,G#2,301.55,0.25,104,120
4275,C#5,301.59,11/10,75,120
4276,G#4,301.59,11/10,75,120
4277,F4,301.59,11/10,75,120
4278,C#3,301.59,11/10,75,120
4279,C#2,301.59,11/10,75,120
4280,B-2,301.8,0.25,104,120
4281,E2,302.017,0.25,94,120
4282,C2,302.017,0.25,94,120
4283,G#2,302.017,0.25,94,120
4284,E2,302.017,0.25,94,120
4285,E-2,302.267,0.25,85,120
4286,E-2,302.267,0.25,85,120
4287,C#2,302.517,0.5,82,120
4288,C#2,302.517,0.5,82,120
4289,G#5,302.538,783/1000,102,120
4290,B-2,302.55,0.25,104,120
4291,E-3,302.55,0.25,104,120
4292,C#2,303.017,0.5,85,120
4293,C#2,303.017,0.5,85,120
4294,G#2,303.05,0.25,104,120
4295,E2,303.05,0.25,104,120
4296,G#4,303.056,9/10,75,120
4297,F4,303.056,9/10,75,120
4298,C#3,303.056,9/10,75,120
4299,C#2,303.056,9/10,75,120
4300,C#5,303.056,9/10,75,120
4301,F#5,303.337,683/1000,99,120
4302,E-2,303.517,0.25,92,120
4303,G#2,303.517,0.25,92,120
4304,E-2,303.517,0.25,92,120
4305,E2,303.767,0.25,93,120
4306,B-2,303.767,0.25,93,120
4307,E2,303.767,0.25,93,120
4308,F2,304.017,33/1000,86,120
4309,F2,304.017,33/1000,86,120
4310,G#4,304.019,0.031,75,120
4311,A4,304.019,0.031,75,120
4312,C5,304.019,0.031,75,120
4313,F3,304.019,0.031,75,120
4314,F2,304.019,0.031,75,120
4315,F#5,304.019,0.031,75,120
4316,E-5,304.019,0.031,75,120
4317,A5,304.019,0.031,75,120
4318,A4,304.019,0.031,75,120
4319,C5,304.019,0.031,75,120
4320,F#5,304.019,0.031,75,120
4321,E-5,304.019,0.031,75,120
4322,F5,304.038,3/250,97,120
4323,F5,304.05,2721/1000,97,120
4324,C2,304.05,0.25,104,120
4325,G#2,304.05,0.25,104,120
4326,A5,304.05,1433/1000,79,120
4327,A5,304.05,1433/1000,79,120
4328,F2,304.05,967/1000,86,120
4329,F2,304.05,967/1000,86,120
4330,G#4,304.05,287/200,75,120
4331,A4,304.05,287/200,75,120
4332,C5,304.05,287/200,75,120
4333,F3,304.05,287/200,75,120
4334,F2,304.05,287/200,75,120
4335,F#5,304.05,287/200,75,120
4336,E-5,304.05,287/200,75,120
4337,A5,304.05,287/200,75,120
4338,A4,304.05,287/200,75,120
4339,C5,304.05,287/200,75,120
4340,F#5,304.05,287/200,75,120
4341,E-5,304.05,287/200,75,120
4342,B-2,304.55,0.25,104,120
4343,E-3,304.55,0.25,104,120
4344,G#2,305.05,0.25,104,120
4345,E2,305.05,0.25,104,120
4346,F1,305.517,0.25,91,120
4347,G#2,305.517,0.25,91,120
4348,F1,305.517,0.25,91,120
4349,F#4,305.519,467/1000,74,120
4350,A4,305.519,467/1000,74,120
4351,C5,305.519,467/1000,74,120
4352,F3,305.519,467/1000,74,120
4353,F2,305.519,467/1000,74,120
4354,F#5,305.519,467/1000,74,120
4355,E-5,305.519,467/1000,74,120
4356,F#5,305.519,467/1000,74,120
4357,E-5,305.519,467/1000,74,120
4358,A4,305.556,467/1000,70,120
4359,C5,305.556,467/1000,70,120
4360,F#5,305.556,467/1000,70,120
4361,E-5,305.556,467/1000,70,120
4362,F1,305.767,0.25,91,120
4363,B-2,305.767,0.25,91,120
4364,F1,305.767,0.25,91,120
4365,F1,306.017,1.5,85,120
4366,F1,306.017,1.5,85,120
4367,F4,306.019,1933/1000,75,120
4368,A4,306.019,1933/1000,75,120
4369,C5,306.019,1933/1000,75,120
4370,F3,306.019,1933/1000,75,120
4371,F2,306.019,1933/1000,75,120
4372,F5,306.019,1933/1000,75,120
4373,E-5,306.019,1933/1000,75,120
4374,C2,306.05,0.25,104,120
4375,G#2,306.05,0.25,104,120
4376,A4,306.056,9/10,70,120
4377,C5,306.056,9/10,70,120
4378,F5,306.056,9/10,70,120
4379,E-5,306.056,9/10,70,120
4380,F4,306.519,1483/1000,67,120
4381,F4,306.519,1483/1000,67,120
4382,B-2,306.55,0.25,104,120
4383,E-3,306.55,0.25,104,120
4384,A4,307.031,1.0,70,120
4385,G#2,307.05,0.25,104,120
4386,E2,307.05,0.25,104,120
4387,G#1,307.517,0.25,91,120
4388,G#2,307.517,0.25,91,120
4389,G#1,307.517,0.25,91,120
4390,A1,307.767,0.25,91,120
4391,G#2,307.767,0.25,91,120
4392,A1,307.767,0.25,91,120
4393,B-1,308.017,33/1000,73,120
4394,B-1,308.017,33/1000,73,120
4395,F4,308.017,33/1000,73,120
4396,C#4,308.017,33/1000,73,120
4397,B-4,308.017,33/1000,73,120
4398,B-4,308.019,0.031,79,120
4399,F4,308.019,0.031,79,120
4400,C#4,308.019,0.031,79,120
4401,B-2,308.019,0.031,79,120
4402,F4,308.019,0.031,79,120
4403,C#4,308.019,0.031,79,120
4404,E-4,308.035,3/200,67,120
4405,E-4,308.035,3/200,67,120
4406,C2,308.05,0.25,104,120
4407,G#2,308.05,0.25,104,120
4408,B-1,308.05,1433/1000,73,120
4409,B-1,308.05,1433/1000,73,120
4410,F4,308.05,1433/1000,73,120
4411,C#4,308.05,1433/1000,73,120
4412,B-4,308.05,1433/1000,73,120
4413,B-4,308.05,701/500,79,120
4414,F4,308.05,701/500,79,120
4415,C#4,308.05,701/500,79,120
4416,B-2,308.05,701/500,79,120
4417,F4,308.05,701/500,79,120
4418,C#4,308.05,701/500,79,120
4419,E-4,308.05,97/200,67,120
4420,E-4,308.05,97/200,67,120
4421,B-2,308.55,0.25,104,120
4422,E-3,308.55,0.25,104,120
4423,C#4,308.552,483/1000,67,120
4424,C#4,308.552,483/1000,67,120
4425,B-3,309.035,0.5,67,120
4426,B-3,309.035,0.5,67,120
4427,G#2,309.05,0.25,104,120
4428,E2,309.05,0.25,104,120
4429,E2,309.3,0.25,102,120
4430,C4,309.485,12/5,86,120
4431,E-4,309.485,12/5,86,120
4432,G#4,309.485,12/5,86,120
4433,G#2,309.485,12/5,86,120
4434,G#1,309.517,2.0,86,120
4435,G#1,309.517,2.0,86,120
4436,E-4,309.535,483/1000,67,120
4437,E-4,309.535,483/1000,67,120
4438,G#2,309.55,0.25,104,120
4439,C#5,309.55,2433/1000,57,120
4440,G#4,309.55,2433/1000,57,120
4441,E-4,309.55,2433/1000,57,120
4442,G#2,309.8,0.25,99,120
4443,C#4,310.035,483/1000,68,120
4444,C#4,310.035,483/1000,68,120
4445,C2,310.05,0.25,102,120
4446,G#2,310.05,0.25,102,120
4447,E2,310.05,0.25,102,120
4448,B-3,310.535,483/1000,68,120
4449,B-3,310.535,483/1000,68,120
4450,B-2,310.55,0.25,104,120
4451,E-3,310.55,0.25,104,120
4452,E-4,311.035,983/1000,68,120
4453,E-4,311.035,983/1000,68,120
4454,G#2,311.05,0.25,104,120
4455,E2,311.05,0.25,104,120
4456,G#2,311.517,0.25,96,120
4457,G#2,311.517,0.25,96,120
4458,B-2,311.517,0.25,96,120
4459,E-3,311.517,0.25,96,120
4460,G2,311.767,0.25,89,120
4461,G2,311.767,0.25,89,120
4462,F#2,312.017,33/1000,89,120
4463,F#2,312.017,33/1000,89,120
4464,C#4,312.035,3/200,62,120
4465,C#4,312.035,3/200,62,120
4466,F#2,312.05,667/1000,86,120
4467,C2,312.05,0.25,80,120
4468,D2,312.05,0.25,80,120
4469,C#4,312.05,319/125,62,120
4470,C#4,312.05,319/125,62,120
4471,F#2,312.05,467/1000,89,120
4472,F#2,312.05,467/1000,89,120
4473,F#2,312.517,0.5,89,120
4474,F#2,312.517,0.5,89,120
4475,E2,312.55,0.25,85,120
4476,D2,312.55,0.25,85,120
4477,C#3,312.55,0.25,85,120
4478,F#2,312.783,233/1000,86,120
4479,F2,313.017,0.375,89,120
4480,F2,313.017,0.375,89,120
4481,G#4,313.021,1.0,87,120
4482,F2,313.05,0.25,91,120
4483,D2,313.05,0.25,91,120
4484,E2,313.517,0.375,89,120
4485,E2,313.517,0.375,89,120
4486,E2,313.55,0.25,92,120
4487,A3,313.55,0.25,92,120
4488,E2,313.55,0.25,92,120
4489,E-2,314.017,0.25,90,120
4490,G#4,314.017,0.25,90,120
4491,E-2,314.017,0.25,90,120
4492,E-2,314.017,0.25,90,120
4493,E2,314.017,0.25,90,120
4494,E-2,314.267,1/5,88,120
4495,E-2,314.267,1/5,88,120
4496,E2,314.267,1/5,88,120
4497,E-2,314.267,1/5,88,120
4498,B-4,314.288,467/1000,100,120
4499,B-1,314.517,0.25,88,120
4500,B-1,314.517,0.25,88,120
4501,B-1,314.517,0.25,88,120
4502,E2,314.517,0.25,88,120
4503,B-4,314.754,233/1000,72,120
4504,F#4,314.754,233/1000,72,120
4505,A1,314.754,233/1000,72,120
4506,A1,314.754,233/1000,72,120
4507,C#5,314.788,0.25,97,120
4508,A1,314.788,0.25,97,120
4509,E2,314.788,0.25,97,120
4510,G#1,315.017,0.25,87,120
4511,E-5,315.017,0.25,87,120
4512,G#1,315.017,0.25,87,120
4513,G#1,315.017,0.25,87,120
4514,G#2,315.017,0.25,87,120
4515,E2,315.017,0.25,87,120
4516,C#5,315.021,1.0,64,120
4517,B-4,315.021,1.0,64,120
4518,F#4,315.021,1.0,64,120
4519,G#1,315.267,0.25,86,120
4520,G#1,315.267,0.25,86,120
4521,G#1,315.267,0.25,86,120
4522,D2,315.267,0.25,86,120
4523,G#2,315.283,767/1000,83,120
4524,F#3,315.283,767/1000,83,120
4525,F5,315.321,729/1000,100,120
4526,B-1,315.517,0.25,86,120
4527,B-1,315.517,0.25,86,120
4528,B-1,315.517,0.25,86,120
4529,D2,315.517,0.25,86,120
4530,C2,315.767,0.25,86,120
4531,C2,315.767,0.25,86,120
4532,C2,315.767,0.25,86,120
4533,D2,315.767,0.25,86,120
4534,C#2,316.017,33/1000,75,120
4535,G#4,316.023,27/1000,71,120
4536,F4,316.023,27/1000,71,120
4537,C#3,316.023,27/1000,71,120
4538,C#2,316.023,27/1000,71,120
4539,C#5,316.023,27/1000,71,120
4540,G#4,316.023,27/1000,71,120
4541,F4,316.023,27/1000,71,120
4542,C#4,316.023,27/1000,71,120
4543,C#2,316.05,1.0,104,120
4544,C#2,316.05,467/1000,75,120
4545,F5,316.05,2.438,100,120
4546,C2,316.05,0.25,96,120
4547,G#2,316.05,0.25,96,120
4548,C#3,316.05,0.25,96,120
4549,G#2,316.05,233/1000,83,120
4550,F#3,316.05,233/1000,83,120
4551,G#4,316.05,1173/1000,71,120
4552,F4,316.05,1173/1000,71,120
4553,C#3,316.05,1173/1000,71,120
4554,C#2,316.05,1173/1000,71,120
4555,C#5,316.05,1173/1000,71,120
4556,G#4,316.05,1173/1000,71,120
4557,F4,316.05,1173/1000,71,120
4558,C#4,316.05,1173/1000,71,120
4559,F1,316.517,0.5,66,120
4560,B-2,316.55,0.25,104,120
4561,E-3,316.55,0.25,104,120
4562,G#1,317.017,0.5,66,120
4563,G#2,317.05,0.25,103,120
4564,E2,317.05,0.25,103,120
4565,F1,317.05,0.25,103,120
4566,F4,317.283,1/5,74,120
4567,G#4,317.283,1/5,74,120
4568,F4,317.283,1/5,74,120
4569,C#3,317.283,1/5,74,120
4570,C#2,317.283,1/5,74,120
4571,G#1,317.3,233/1000,80,120
4572,G#4,317.3,233/1000,80,120
4573,F4,317.3,233/1000,80,120
4574,C#3,317.3,233/1000,80,120
4575,C#2,317.3,233/1000,80,120
4576,C#4,317.3,233/1000,80,120
4577,F1,317.517,0.5,66,120
4578,C#5,317.531,2433/1000,75,120
4579,G#4,317.531,2433/1000,75,120
4580,F4,317.531,2433/1000,75,120
4581,G#2,317.55,0.25,104,120
4582,C#2,317.55,0.25,104,120
4583,C#5,317.59,11/10,75,120
4584,G#4,317.59,11/10,75,120
4585,F4,317.59,11/10,75,120
4586,C#3,317.59,11/10,75,120
4587,C#2,317.59,11/10,75,120
4588,B-2,317.8,0.25,103,120
4589,D2,317.8,0.25,103,120
4590,E2,318.017,0.25,94,120
4591,C2,318.017,0.25,94,120
4592,G#2,318.017,0.25,94,120
4593,E-2,318.017,0.25,94,120
4594,E-2,318.267,0.25,85,120
4595,E2,318.267,0.25,85,120
4596,C#2,318.517,0.5,66,120
4597,G#5,318.521,767/1000,99,120
4598,B-2,318.55,0.25,102,120
4599,E-3,318.55,0.25,102,120
4600,F2,318.55,0.25,102,120
4601,C#2,319.017,0.5,85,120
4602,F#2,319.017,0.5,85,120
4603,G#2,319.05,0.25,104,120
4604,E2,319.05,0.25,104,120
4605,G#4,319.056,9/10,75,120
4606,F4,319.056,9/10,75,120
4607,C#3,319.056,9/10,75,120
4608,C#2,319.056,9/10,75,120
4609,C#5,319.056,9/10,75,120
4610,F#5,319.288,7/10,99,120
4611,E-2,319.517,0.25,92,120
4612,G#2,319.517,0.25,92,120
4613,E-2,319.517,0.25,92,120
4614,E2,319.767,0.25,93,120
4615,B-2,319.767,0.25,93,120
4616,E2,319.767,0.25,93,120
4617,F2,320.017,33/1000,67,120
4618,G#4,320.019,0.031,75,120
4619,A4,320.019,0.031,75,120
4620,C5,320.019,0.031,75,120
4621,F3,320.019,0.031,75,120
4622,F2,320.019,0.031,75,120
4623,F#5,320.019,0.031,75,120
4624,E-5,320.019,0.031,75,120
4625,A5,320.019,0.031,75,120
4626,A4,320.019,0.031,75,120
4627,C5,320.019,0.031,75,120
4628,F#5,320.019,0.031,75,120
4629,E-5,320.019,0.031,75,120
4630,F5,320.021,29/1000,99,120
4631,F2,320.05,0.75,104,120
4632,F2,320.05,967/1000,67,120
4633,F5,320.05,2671/1000,99,120
4634,C2,320.05,0.25,104,120
4635,G#2,320.05,0.25,104,120
4636,A5,320.05,1433/1000,79,120
4637,A5,320.05,1433/1000,79,120
4638,G#4,320.05,287/200,75,120
4639,A4,320.05,287/200,75,120
4640,C5,320.05,287/200,75,120
4641,F3,320.05,287/200,75,120
4642,F2,320.05,287/200,75,120
4643,F#5,320.05,287/200,75,120
4644,E-5,320.05,287/200,75,120
4645,A5,320.05,287/200,75,120
4646,A4,320.05,287/200,75,120
4647,C5,320.05,287/200,75,120
4648,F#5,320.05,287/200,75,120
4649,E-5,320.05,287/200,75,120
4650,B-2,320.55,0.25,104,120
4651,E-3,320.55,0.25,104,120
4652,A1,320.8,0.25,102,120
4653,G#2,321.05,0.25,103,120
4654,E2,321.05,0.25,103,120
4655,B-1,321.05,0.25,103,120
4656,F1,321.517,0.25,91,120
4657,G#2,321.517,0.25,91,120
4658,B1,321.517,0.25,91,120
4659,F#4,321.519,467/1000,74,120
4660,A4,321.519,467/1000,74,120
4661,C5,321.519,467/1000,74,120
4662,F3,321.519,467/1000,74,120
4663,F2,321.519,467/1000,74,120
4664,F#5,321.519,467/1000,74,120
4665,E-5,321.519,467/1000,74,120
4666,F#5,321.519,467/1000,74,120
4667,E-5,321.519,467/1000,74,120
4668,A4,321.556,467/1000,70,120
4669,C5,321.556,467/1000,70,120
4670,F#5,321.556,467/1000,70,120
4671,E-5,321.556,467/1000,70,120
4672,F1,321.767,0.25,91,120
4673,B-2,321.767,0.25,91,120
4674,C2,321.767,0.25,91,120
4675,F1,322.017,1.5,68,120
4676,F4,322.019,1933/1000,75,120
4677,A4,322.019,1933/1000,75,120
4678,C5,322.019,1933/1000,75,120
4679,F3,322.019,1933/1000,75,120
4680,F2,322.019,1933/1000,75,120
4681,F5,322.019,1933/1000,75,120
4682,E-5,322.019,1933/1000,75,120
4683,C2,322.05,0.5,102,120
4684,C2,322.05,0.25,104,120
4685,G#2,322.05,0.25,104,120
4686,A4,322.056,9/10,70,120
4687,C5,322.056,9/10,70,120
4688,F5,322.056,9/10,70,120
4689,E-5,322.056,9/10,70,120
4690,F4,322.519,1483/1000,67,120
4691,F4,322.519,1483/1000,67,120
4692,F#2,322.55,0.5,102,120
4693,B-2,322.55,0.25,104,120
4694,E-3,322.55,0.25,104,120
4695,A4,323.031,1.0,70,120
4696,F2,323.05,0.5,104,120
4697,G#2,323.05,0.25,104,120
4698,E2,323.05,0.25,104,120
4699,G#1,323.517,0.25,91,120
4700,G#2,323.517,0.25,91,120
4701,G#2,323.517,0.25,91,120
4702,A1,323.767,0.25,91,120
4703,G#2,323.767,0.25,91,120
4704,A2,323.767,0.25,91,120
4705,B-1,324.017,33/1000,73,120
4706,B-2,324.017,33/1000,73,120
4707,F4,324.017,33/1000,73,120
4708,C#4,324.017,33/1000,73,120
4709,B-4,324.017,33/1000,73,120
4710,B-4,324.019,0.031,79,120
4711,F4,324.019,0.031,79,120
4712,C#4,324.019,0.031,79,120
4713,B-2,324.019,0.031,79,120
4714,F4,324.019,0.031,79,120
4715,C#4,324.019,0.031,79,120
4716,E-4,324.035,3/200,67,120
4717,E-4,324.035,3/200,67,120
4718,C2,324.05,0.25,104,120
4719,G#2,324.05,0.25,104,120
4720,B-1,324.05,1433/1000,73,120
4721,B-2,324.05,1433/1000,73,120
4722,F4,324.05,1433/1000,73,120
4723,C#4,324.05,1433/1000,73,120
4724,B-4,324.05,1433/1000,73,120
4725,B-4,324.05,701/500,79,120
4726,F4,324.05,701/500,79,120
4727,C#4,324.05,701/500,79,120
4728,B-2,324.05,701/500,79,120
4729,F4,324.05,701/500,79,120
4730,C#4,324.05,701/500,79,120
4731,E-4,324.05,97/200,67,120
4732,E-4,324.05,97/200,67,120
4733,B-2,324.55,0.25,104,120
4734,E-3,324.55,0.25,104,120
4735,C#4,324.552,483/1000,67,120
4736,C#4,324.552,483/1000,67,120
4737,B-3,325.035,0.5,67,120
4738,B-3,325.035,0.5,67,120
4739,G#2,325.05,0.25,104,120
4740,E2,325.05,0.25,104,120
4741,C4,325.485,12/5,86,120
4742,E-4,325.485,12/5,86,120
4743,G#4,325.485,12/5,86,120
4744,G#2,325.485,12/5,86,120
4745,G#1,325.517,2.0,68,120
4746,E-4,325.535,0.5,79,120
4747,E-4,325.535,0.5,79,120
4748,B-2,325.535,0.5,79,120
4749,G#2,325.55,0.25,104,120
4750,C#5,325.55,2433/1000,57,120
4751,G#4,325.55,2433/1000,57,120
4752,E-4,325.55,2433/1000,57,120
4753,B-2,325.8,0.25,99,120
4754,C#4,326.035,483/1000,68,120
4755,C#4,326.035,483/1000,68,120
4756,C2,326.05,0.25,102,120
4757,G#2,326.05,1.375,104,120
4758,B-3,326.535,483/1000,68,120
4759,B-3,326.535,483/1000,68,120
4760,B-2,326.55,0.25,104,120
4761,E-3,326.55,0.25,104,120
4762,E-4,327.035,983/1000,68,120
4763,E-4,327.035,983/1000,68,120
4764,E2,327.05,0.25,104,120
4765,G#2,327.517,0.25,96,120
4766,G#2,327.517,0.25,96,120
4767,B-2,327.517,0.25,96,120
4768,E-3,327.517,0.25,96,120
4769,G2,327.767,0.25,89,120
4770,G2,327.767,0.25,89,120
4771,F#2,328.017,33/1000,89,120
4772,F#2,328.017,33/1000,89,120
4773,F#3,328.023,27/1000,64,120
4774,B-3,328.023,27/1000,64,120
4775,C#4,328.023,27/1000,64,120
4776,C#4,328.035,3/200,62,120
4777,C#4,328.035,3/200,62,120
4778,F#2,328.05,667/1000,86,120
4779,C2,328.05,0.25,96,120
4780,F#3,328.05,2773/1000,64,120
4781,B-3,328.05,2773/1000,64,120
4782,C#4,328.05,2773/1000,64,120
4783,F#2,328.05,467/1000,89,120
4784,F#2,328.05,467/1000,89,120
4785,C#4,328.05,319/125,62,120
4786,C#4,328.05,319/125,62,120
4787,C#3,328.3,0.25,98,120
4788,F#2,328.517,0.5,89,120
4789,F#2,328.517,0.5,89,120
4790,B-5,328.554,1933/1000,72,120
4791,F#2,328.783,0.25,91,120
4792,E2,328.783,0.25,91,120
4793,C2,328.783,0.25,91,120
4794,F2,329.017,0.375,89,120
4795,F2,329.017,0.375,89,120
4796,F2,329.05,0.25,91,120
4797,C2,329.05,0.25,91,120
4798,A3,329.3,0.25,98,120
4799,E2,329.517,0.375,89,120
4800,E2,329.517,0.375,89,120
4801,E2,329.55,1/5,86,120
4802,E2,329.8,0.25,94,120
4803,C2,329.8,0.25,94,120
4804,E-2,330.017,0.25,90,120
4805,E-2,330.017,0.25,90,120
4806,E-2,330.017,0.25,90,120
4807,C2,330.017,0.25,90,120
4808,E-2,330.267,1/5,90,120
4809,E-2,330.267,1/5,90,120
4810,C#3,330.267,1/5,90,120
4811,E-2,330.267,1/5,90,120
4812,B-1,330.517,233/1000,88,120
4813,B-1,330.517,233/1000,88,120
4814,B-1,330.517,233/1000,88,120
4815,B-5,330.521,467/1000,56,120
4816,B-4,330.754,233/1000,72,120
4817,F#4,330.754,233/1000,72,120
4818,A1,330.754,233/1000,72,120
4819,A1,330.754,233/1000,72,120
4820,A1,330.8,0.25,97,120
4821,D2,330.8,0.25,97,120
4822,C2,330.8,0.25,97,120
4823,G#1,331.017,0.25,82,120
4824,B-5,331.017,0.25,82,120
4825,G#1,331.017,0.25,82,120
4826,G#1,331.017,0.25,82,120
4827,G#2,331.017,0.25,82,120
4828,C2,331.017,0.25,82,120
4829,C#5,331.021,1.0,64,120
4830,B-4,331.021,1.0,64,120
4831,F#4,331.021,1.0,64,120
4832,G#1,331.267,0.25,83,120
4833,G#1,331.267,0.25,83,120
4834,G#5,331.267,0.25,83,120
4835,G#1,331.267,0.25,83,120
4836,C#3,331.267,0.25,83,120
4837,G#2,331.283,767/1000,83,120
4838,F#3,331.283,767/1000,83,120
4839,B-1,331.517,1/5,79,120
4840,B-1,331.517,1/5,79,120
4841,B-1,331.517,1/5,79,120
4842,G#5,331.517,1/5,79,120
4843,C2,331.767,0.25,84,120
4844,C2,331.767,0.25,84,120
4845,F#5,331.767,0.25,84,120
4846,C2,331.767,0.25,84,120
4847,D2,331.767,0.25,84,120
4848,C2,331.767,0.25,84,120
4849,F5,332.021,29/1000,50,120
4850,F5,332.05,501/250,50,120
4851,G#2,332.05,233/1000,83,120
4852,F#3,332.05,233/1000,83,120
