,note_name,start_time,duration,velocity,tempo
0,C4,0.0,0.25,95,60.0
1,F#4,0.25,0.25,95,60.0
2,B4,0.5,0.25,95,60.0
3,F5,0.75,0.25,95,60.0
4,C4,1.0,0.25,95,60.0
5,G4,1.25,0.25,95,60.0
6,B-4,1.5,0.25,95,60.0
7,F5,1.75,0.25,95,60.0
8,E-4,2.0,0.25,95,60.0
9,G4,2.25,0.25,95,60.0
10,B-4,2.5,0.25,95,60.0
11,D5,2.75,0.25,95,60.0
12,E-4,3.0,0.25,95,60.0
13,F#4,3.25,0.25,95,60.0
14,B4,3.5,0.25,95,60.0
15,D5,3.75,0.25,95,60.0
16,C4,4.0,0.25,95,60.0
17,F#4,4.25,0.25,95,60.0
18,B4,4.5,0.25,95,60.0
19,F5,4.75,0.25,95,60.0
20,C4,5.0,0.25,95,60.0
21,G4,5.25,0.25,95,60.0
22,B-4,5.5,0.25,95,60.0
23,F5,5.75,0.25,95,60.0
24,E-4,6.0,0.25,95,60.0
25,G4,6.25,0.25,95,60.0
26,B-4,6.5,0.25,95,60.0
27,D5,6.75,0.25,95,60.0
28,E-4,7.0,0.25,95,60.0
29,F#4,7.25,0.25,95,60.0
30,B4,7.5,0.25,95,60.0
31,D5,7.75,0.25,95,60.0
32,G3,8.0,0.25,95,60.0
33,C#4,8.25,0.25,95,60.0
34,G4,8.5,0.25,95,60.0
35,C5,8.75,0.25,95,60.0
36,G3,9.0,0.25,95,60.0
37,D4,9.25,0.25,95,60.0
38,F#4,9.5,0.25,95,60.0
39,C5,9.75,0.25,95,60.0
40,B-3,10.0,0.25,95,60.0
41,D4,10.25,0.25,95,60.0
42,F#4,10.5,0.25,95,60.0
43,A4,10.75,0.25,95,60.0
44,B-3,11.0,0.25,95,60.0
45,C#4,11.25,0.25,95,60.0
46,G4,11.5,0.25,95,60.0
47,A4,11.75,0.25,95,60.0
48,G3,12.0,0.25,95,60.0
49,C#4,12.25,0.25,95,60.0
50,G4,12.5,0.25,95,60.0
51,C5,12.75,0.25,95,60.0
52,G3,13.0,0.25,95,60.0
53,D4,13.25,0.25,95,60.0
54,F#4,13.5,0.25,95,60.0
55,C5,13.75,0.25,95,60.0
56,B-3,14.0,0.25,95,60.0
57,D4,14.25,0.25,95,60.0
58,F#4,14.5,0.25,95,60.0
59,A4,14.75,0.25,95,60.0
60,B-3,15.0,0.25,95,60.0
61,C#4,15.25,0.25,95,60.0
62,G4,15.5,0.25,95,60.0
63,A4,15.75,0.25,95,60.0
64,D3,16.0,0.25,95,60.0
65,G#3,16.25,0.25,95,60.0
66,D4,16.5,0.25,95,60.0
67,G#4,16.75,0.25,95,60.0
68,D3,17.0,0.25,95,60.0
69,A3,17.25,0.25,95,60.0
70,C#4,17.5,0.25,95,60.0
71,G#4,17.75,0.25,95,60.0
72,F3,18.0,0.25,95,60.0
73,A3,18.25,0.25,95,60.0
74,C#4,18.5,0.25,95,60.0
75,F4,18.75,0.25,95,60.0
76,F3,19.0,0.25,95,60.0
77,G#3,19.25,0.25,95,60.0
78,D4,19.5,0.25,95,60.0
79,F4,19.75,0.25,95,60.0
80,D3,20.0,0.25,95,60.0
81,G#3,20.25,0.25,95,60.0
82,D4,20.5,0.25,95,60.0
83,G#4,20.75,0.25,95,60.0
84,D3,21.0,0.25,95,60.0
85,A3,21.25,0.25,95,60.0
86,C#4,21.5,0.25,95,60.0
87,G#4,21.75,0.25,95,60.0
88,F3,22.0,0.25,95,60.0
89,A3,22.25,0.25,95,60.0
90,C#4,22.5,0.25,95,60.0
91,F4,22.75,0.25,95,60.0
92,F3,23.0,0.25,95,60.0
93,G#3,23.25,0.25,95,60.0
94,D4,23.5,0.25,95,60.0
95,F4,23.75,0.25,95,60.0
96,C#3,24.0,0.25,95,60.0
97,G#3,24.25,0.25,95,60.0
98,D4,24.5,0.25,95,60.0
99,G#4,24.75,0.25,95,60.0
100,C#3,25.0,0.25,95,60.0
101,A3,25.25,0.25,95,60.0
102,C#4,25.5,0.25,95,60.0
103,G#4,25.75,0.25,95,60.0
104,F3,26.0,0.25,95,60.0
105,A3,26.25,0.25,95,60.0
106,C#4,26.5,0.25,95,60.0
107,E4,26.75,0.25,95,60.0
108,F3,27.0,0.25,95,60.0
109,G#3,27.25,0.25,95,60.0
110,D4,27.5,0.25,95,60.0
111,E4,27.75,0.25,95,60.0
112,C#3,28.0,0.25,95,60.0
113,G#3,28.25,0.25,95,60.0
114,D4,28.5,0.25,95,60.0
115,G#4,28.75,0.25,95,60.0
116,C#3,29.0,0.25,95,60.0
117,A3,29.25,0.25,95,60.0
118,C#4,29.5,0.25,95,60.0
119,G#4,29.75,0.25,95,60.0
120,F3,30.0,0.25,95,60.0
121,A3,30.25,0.25,95,60.0
122,C#4,30.5,0.25,95,60.0
123,E4,30.75,0.25,95,60.0
124,F3,31.0,0.25,95,60.0
125,G#3,31.25,0.25,95,60.0
126,D4,31.5,0.25,95,60.0
127,E4,31.75,0.25,95,60.0
128,F#3,32.0,0.25,95,60.0
129,C#4,32.25,0.25,95,60.0
130,G4,32.5,0.25,95,60.0
131,C5,32.75,0.25,95,60.0
132,F#3,33.0,0.25,95,60.0
133,D4,33.25,0.25,95,60.0
134,F#4,33.5,0.25,95,60.0
135,C5,33.75,0.25,95,60.0
136,B-3,34.0,0.25,95,60.0
137,D4,34.25,0.25,95,60.0
138,F#4,34.5,0.25,95,60.0
139,G#4,34.75,0.25,95,60.0
140,B-3,35.0,0.25,95,60.0
141,C#4,35.25,0.25,95,60.0
142,G4,35.5,0.25,95,60.0
143,G#4,35.75,0.25,95,60.0
144,F#3,36.0,0.25,95,60.0
145,C#4,36.25,0.25,95,60.0
146,G4,36.5,0.25,95,60.0
147,C5,36.75,0.25,95,60.0
148,F#3,37.0,0.25,95,60.0
149,D4,37.25,0.25,95,60.0
150,F#4,37.5,0.25,95,60.0
151,C5,37.75,0.25,95,60.0
152,B-3,38.0,0.25,95,60.0
153,D4,38.25,0.25,95,60.0
154,F#4,38.5,0.25,95,60.0
155,G#4,38.75,0.25,95,60.0
156,B-3,39.0,0.25,95,60.0
157,C#4,39.25,0.25,95,60.0
158,G4,39.5,0.25,95,60.0
159,G#4,39.75,0.25,95,60.0
160,B3,40.0,0.25,95,60.0
161,F#4,40.25,0.25,95,60.0
162,B4,40.5,0.25,95,60.0
163,F5,40.75,0.25,95,60.0
164,B3,41.0,0.25,95,60.0
165,G4,41.25,0.25,95,60.0
166,B-4,41.5,0.25,95,60.0
167,F5,41.75,0.25,95,60.0
168,E-4,42.0,0.25,95,60.0
169,G4,42.25,0.25,95,60.0
170,B-4,42.5,0.25,95,60.0
171,C#5,42.75,0.25,95,60.0
172,E-4,43.0,0.25,95,60.0
173,F#4,43.25,0.25,95,60.0
174,B4,43.5,0.25,95,60.0
175,C#5,43.75,0.25,95,60.0
176,B3,44.0,0.25,95,60.0
177,F#4,44.25,0.25,95,60.0
178,B4,44.5,0.25,95,60.0
179,F5,44.75,0.25,95,60.0
180,B3,45.0,0.25,95,60.0
181,G4,45.25,0.25,95,60.0
182,B-4,45.5,0.25,95,60.0
183,F5,45.75,0.25,95,60.0
184,E-4,46.0,0.25,95,60.0
185,G4,46.25,0.25,95,60.0
186,B-4,46.5,0.25,95,60.0
187,C#5,46.75,0.25,95,60.0
188,E-4,47.0,0.25,95,60.0
189,F#4,47.25,0.25,95,60.0
190,B4,47.5,0.25,95,60.0
191,C#5,47.75,0.25,95,60.0
192,B3,48.0,0.25,95,60.0
193,F4,48.25,0.25,95,60.0
194,B4,48.5,0.25,95,60.0
195,F5,48.75,0.25,95,60.0
196,B3,49.0,0.25,95,60.0
197,G4,49.25,0.25,95,60.0
198,A4,49.5,0.25,95,60.0
199,F5,49.75,0.25,95,60.0
200,E-4,50.0,0.25,95,60.0
201,G4,50.25,0.25,95,60.0
202,A4,50.5,0.25,95,60.0
203,C#5,50.75,0.25,95,60.0
204,E-4,51.0,0.25,95,60.0
205,F4,51.25,0.25,95,60.0
206,B4,51.5,0.25,95,60.0
207,C#5,51.75,0.25,95,60.0
208,B3,52.0,0.25,95,60.0
209,F4,52.25,0.25,95,60.0
210,B4,52.5,0.25,95,60.0
211,F5,52.75,0.25,95,60.0
212,B3,53.0,0.25,95,60.0
213,G4,53.25,0.25,95,60.0
214,A4,53.5,0.25,95,60.0
215,F5,53.75,0.25,95,60.0
216,E-4,54.0,0.25,95,60.0
217,G4,54.25,0.25,95,60.0
218,A4,54.5,0.25,95,60.0
219,C#5,54.75,0.25,95,60.0
220,E-4,55.0,0.25,95,60.0
221,F4,55.25,0.25,95,60.0
222,B4,55.5,0.25,95,60.0
223,C#5,55.75,0.25,95,60.0
224,F#3,56.0,0.25,95,60.0
225,C4,56.25,0.25,95,60.0
226,G4,56.5,0.25,95,60.0
227,C5,56.75,0.25,95,60.0
228,F#3,57.0,0.25,95,60.0
229,D4,57.25,0.25,95,60.0
230,F4,57.5,0.25,95,60.0
231,C5,57.75,0.25,95,60.0
232,B-3,58.0,0.25,95,60.0
233,D4,58.25,0.25,95,60.0
234,F4,58.5,0.25,95,60.0
235,G#4,58.75,0.25,95,60.0
236,B-3,59.0,0.25,95,60.0
237,C4,59.25,0.25,95,60.0
238,G4,59.5,0.25,95,60.0
239,G#4,59.75,0.25,95,60.0
240,F#3,60.0,0.25,95,60.0
241,C4,60.25,0.25,95,60.0
242,G4,60.5,0.25,95,60.0
243,C5,60.75,0.25,95,60.0
244,F#3,61.0,0.25,95,60.0
245,D4,61.25,0.25,95,60.0
246,F4,61.5,0.25,95,60.0
247,C5,61.75,0.25,95,60.0
248,B-3,62.0,0.25,95,60.0
249,D4,62.25,0.25,95,60.0
250,F4,62.5,0.25,95,60.0
251,G#4,62.75,0.25,95,60.0
252,B-3,63.0,0.25,95,60.0
253,C4,63.25,0.25,95,60.0
254,G4,63.5,0.25,95,60.0
255,G#4,63.75,0.25,95,60.0
256,C#3,64.0,0.25,95,60.0
257,G3,64.25,0.25,95,60.0
258,D4,64.5,0.25,95,60.0
259,G#4,64.75,0.25,95,60.0
260,C#3,65.0,0.25,95,60.0
261,A3,65.25,0.25,95,60.0
262,C4,65.5,0.25,95,60.0
263,G#4,65.75,0.25,95,60.0
264,F3,66.0,0.25,95,60.0
265,A3,66.25,0.25,95,60.0
266,C4,66.5,0.25,95,60.0
267,E4,66.75,0.25,95,60.0
268,F3,67.0,0.25,95,60.0
269,G3,67.25,0.25,95,60.0
270,D4,67.5,0.25,95,60.0
271,E4,67.75,0.25,95,60.0
272,C#3,68.0,0.25,95,60.0
273,G3,68.25,0.25,95,60.0
274,D4,68.5,0.25,95,60.0
275,G#4,68.75,0.25,95,60.0
276,C#3,69.0,0.25,95,60.0
277,A3,69.25,0.25,95,60.0
278,C4,69.5,0.25,95,60.0
279,G#4,69.75,0.25,95,60.0
280,F3,70.0,0.25,95,60.0
281,A3,70.25,0.25,95,60.0
282,C4,70.5,0.25,95,60.0
283,E4,70.75,0.25,95,60.0
284,F3,71.0,0.25,95,60.0
285,G3,71.25,0.25,95,60.0
286,D4,71.5,0.25,95,60.0
287,E4,71.75,0.25,95,60.0
288,C#3,72.0,0.25,95,60.0
289,G3,72.25,0.25,95,60.0
290,C#4,72.5,0.25,95,60.0
291,G#4,72.75,0.25,95,60.0
292,C#3,73.0,0.25,95,60.0
293,G#3,73.25,0.25,95,60.0
294,C4,73.5,0.25,95,60.0
295,G#4,73.75,0.25,95,60.0
296,F3,74.0,0.25,95,60.0
297,G#3,74.25,0.25,95,60.0
298,C4,74.5,0.25,95,60.0
299,E4,74.75,0.25,95,60.0
300,F3,75.0,0.25,95,60.0
301,G3,75.25,0.25,95,60.0
302,C#4,75.5,0.25,95,60.0
303,E4,75.75,0.25,95,60.0
304,C#3,76.0,0.25,95,60.0
305,G3,76.25,0.25,95,60.0
306,C#4,76.5,0.25,95,60.0
307,G#4,76.75,0.25,95,60.0
308,C#3,77.0,0.25,95,60.0
309,G#3,77.25,0.25,95,60.0
310,C4,77.5,0.25,95,60.0
311,G#4,77.75,0.25,95,60.0
312,F3,78.0,0.25,95,60.0
313,G#3,78.25,0.25,95,60.0
314,C4,78.5,0.25,95,60.0
315,E4,78.75,0.25,95,60.0
316,F3,79.0,0.25,95,60.0
317,G3,79.25,0.25,95,60.0
318,C#4,79.5,0.25,95,60.0
319,E4,79.75,0.25,95,60.0
320,F#3,80.0,0.25,95,60.0
321,C4,80.25,0.25,95,60.0
322,F#4,80.5,0.25,95,60.0
323,C5,80.75,0.25,95,60.0
324,F#3,81.0,0.25,95,60.0
325,C#4,81.25,0.25,95,60.0
326,F4,81.5,0.25,95,60.0
327,C5,81.75,0.25,95,60.0
328,B-3,82.0,0.25,95,60.0
329,C#4,82.25,0.25,95,60.0
330,F4,82.5,0.25,95,60.0
331,G#4,82.75,0.25,95,60.0
332,B-3,83.0,0.25,95,60.0
333,C4,83.25,0.25,95,60.0
334,F#4,83.5,0.25,95,60.0
335,G#4,83.75,0.25,95,60.0
336,F#3,84.0,0.25,95,60.0
337,C4,84.25,0.25,95,60.0
338,F#4,84.5,0.25,95,60.0
339,C5,84.75,0.25,95,60.0
340,F#3,85.0,0.25,95,60.0
341,C#4,85.25,0.25,95,60.0
342,F4,85.5,0.25,95,60.0
343,C5,85.75,0.25,95,60.0
344,B-3,86.0,0.25,95,60.0
345,C#4,86.25,0.25,95,60.0
346,F4,86.5,0.25,95,60.0
347,G#4,86.75,0.25,95,60.0
348,B-3,87.0,0.25,95,60.0
349,C4,87.25,0.25,95,60.0
350,F#4,87.5,0.25,95,60.0
351,G#4,87.75,0.25,95,60.0
352,B3,88.0,0.25,95,60.0
353,F4,88.25,0.25,95,60.0
354,B-4,88.5,0.25,95,60.0
355,F5,88.75,0.25,95,60.0
356,B3,89.0,0.25,95,60.0
357,F#4,89.25,0.25,95,60.0
358,A4,89.5,0.25,95,60.0
359,F5,89.75,0.25,95,60.0
360,E-4,90.0,0.25,95,60.0
361,F4,90.25,0.25,95,60.0
362,B-4,90.5,0.25,95,60.0
363,C#5,90.75,0.25,95,60.0
364,E-4,91.0,0.25,95,60.0
365,F#4,91.25,0.25,95,60.0
366,A4,91.5,0.25,95,60.0
367,C#5,91.75,0.25,95,60.0
368,B3,92.0,0.25,95,60.0
369,F4,92.25,0.25,95,60.0
370,B-4,92.5,0.25,95,60.0
371,F5,92.75,0.25,95,60.0
372,B3,93.0,0.25,95,60.0
373,F#4,93.25,0.25,95,60.0
374,A4,93.5,0.25,95,60.0
375,F5,93.75,0.25,95,60.0
376,E-4,94.0,0.25,95,60.0
377,F4,94.25,0.25,95,60.0
378,B-4,94.5,0.25,95,60.0
379,C#5,94.75,0.25,95,60.0
380,E-4,95.0,0.25,95,60.0
381,F#4,95.25,0.25,95,60.0
382,A4,95.5,0.25,95,60.0
383,C#5,95.75,0.25,95,60.0
384,B3,96.0,0.969,95,60.0
385,F#4,96.0,0.969,95,60.0
386,B4,96.062,0.906,95,60.0
387,F#5,96.062,0.906,95,60.0
388,B3,97.0,0.969,95,60.0
389,G4,97.0,0.969,95,60.0
390,B-4,97.062,0.906,95,60.0
391,F#5,97.062,0.906,95,60.0
392,E4,98.0,0.969,95,60.0
393,G4,98.0,0.969,95,60.0
394,B-4,98.062,0.906,95,60.0
395,C#5,98.062,0.906,95,60.0
396,E4,99.0,0.969,95,60.0
397,F#4,99.0,0.969,95,60.0
398,B4,99.062,0.906,95,60.0
399,C#5,99.062,0.906,95,60.0
400,F#3,100.0,0.969,95,60.0
401,C#4,100.0,0.969,95,60.0
402,G4,100.062,0.906,95,60.0
403,C#5,100.062,0.906,95,60.0
404,F#3,101.0,0.969,95,60.0
405,D4,101.0,0.969,95,60.0
406,F#4,101.062,0.906,95,60.0
407,C#5,101.062,0.906,95,60.0
408,B3,102.0,0.969,95,60.0
409,D4,102.0,0.969,95,60.0
410,F#4,102.062,0.906,95,60.0
411,G#4,102.062,0.906,95,60.0
412,B3,103.0,0.969,95,60.0
413,C#4,103.0,0.969,95,60.0
414,G4,103.062,0.906,95,60.0
415,G#4,103.062,0.906,95,60.0
416,C#3,104.0,0.969,95,60.0
417,G#3,104.0,0.969,95,60.0
418,D4,104.062,0.906,95,60.0
419,A4,104.062,0.906,95,60.0
420,C#3,105.0,0.969,95,60.0
421,A3,105.0,0.969,95,60.0
422,C#4,105.062,0.906,95,60.0
423,A4,105.062,0.906,95,60.0
424,F#3,106.0,0.969,95,60.0
425,A3,106.0,0.969,95,60.0
426,C#4,106.062,0.906,95,60.0
427,E4,106.062,0.906,95,60.0
428,F#3,107.0,0.969,95,60.0
429,G#3,107.0,0.969,95,60.0
430,D4,107.062,0.906,95,60.0
431,E4,107.062,0.906,95,60.0
432,B3,108.0,0.969,95,60.0
433,F#4,108.0,0.969,95,60.0
434,B4,108.062,0.906,95,60.0
435,F#5,108.062,0.906,95,60.0
436,B3,109.0,0.969,95,60.0
437,G4,109.0,0.969,95,60.0
438,B-4,109.062,0.906,95,60.0
439,F#5,109.062,0.906,95,60.0
440,E4,110.0,0.969,95,60.0
441,G4,110.0,0.969,95,60.0
442,B-4,110.062,0.906,95,60.0
443,C#5,110.062,0.906,95,60.0
444,E4,111.0,0.969,95,60.0
445,F#4,111.0,0.969,95,60.0
446,B4,111.062,0.906,95,60.0
447,C#5,111.062,0.906,95,60.0
448,F#3,112.0,0.969,95,60.0
449,C#4,112.0,0.969,95,60.0
450,G4,112.062,0.906,95,60.0
451,C#5,112.062,0.906,95,60.0
452,F#3,113.0,0.969,95,60.0
453,D4,113.0,0.969,95,60.0
454,F#4,113.062,0.906,95,60.0
455,C#5,113.062,0.906,95,60.0
456,B3,114.0,0.969,95,60.0
457,D4,114.0,0.969,95,60.0
458,F#4,114.062,0.906,95,60.0
459,G#4,114.062,0.906,95,60.0
460,B3,115.0,0.969,95,60.0
461,C#4,115.0,0.969,95,60.0
462,G4,115.062,0.906,95,60.0
463,G#4,115.062,0.906,95,60.0
464,C#3,116.0,0.969,95,60.0
465,G#3,116.0,0.969,95,60.0
466,D4,116.062,0.906,95,60.0
467,A4,116.062,0.906,95,60.0
468,C#3,117.0,0.969,95,60.0
469,A3,117.0,0.969,95,60.0
470,C#4,117.062,0.906,95,60.0
471,A4,117.062,0.906,95,60.0
472,F#3,118.0,0.969,95,60.0
473,A3,118.0,0.969,95,60.0
474,C#4,118.062,0.906,95,60.0
475,E4,118.062,0.906,95,60.0
476,F#3,119.0,0.969,95,60.0
477,G#3,119.0,0.969,95,60.0
478,D4,119.062,0.906,95,60.0
479,E4,119.062,0.906,95,60.0
480,B-3,120.0,0.969,95,60.0
481,F4,120.0,0.969,95,60.0
482,B4,120.062,0.906,95,60.0
483,F#5,120.062,0.906,95,60.0
484,B-3,121.0,0.969,95,60.0
485,G4,121.0,0.969,95,60.0
486,A4,121.062,0.906,95,60.0
487,F#5,121.062,0.906,95,60.0
488,E4,122.0,0.969,95,60.0
489,G4,122.0,0.969,95,60.0
490,A4,122.062,0.906,95,60.0
491,C5,122.062,0.906,95,60.0
492,E4,123.0,0.969,95,60.0
493,F4,123.0,0.969,95,60.0
494,B4,123.062,0.906,95,60.0
495,C5,123.062,0.906,95,60.0
496,F3,124.0,0.969,95,60.0
497,C4,124.0,0.969,95,60.0
498,G4,124.062,0.906,95,60.0
499,C#5,124.062,0.906,95,60.0
500,F3,125.0,0.969,95,60.0
501,D4,125.0,0.969,95,60.0
502,F4,125.062,0.906,95,60.0
503,C#5,125.062,0.906,95,60.0
504,B3,126.0,0.969,95,60.0
505,D4,126.0,0.969,95,60.0
506,F4,126.062,0.906,95,60.0
507,G4,126.062,0.906,95,60.0
508,B3,127.0,0.969,95,60.0
509,C4,127.0,0.969,95,60.0
510,G4,127.062,0.906,95,60.0
511,G4,127.062,0.906,95,60.0
512,C3,128.0,0.969,95,60.0
513,G3,128.0,0.969,95,60.0
514,D4,128.062,0.906,95,60.0
515,A4,128.062,0.906,95,60.0
516,C3,129.0,0.969,95,60.0
517,A3,129.0,0.969,95,60.0
518,C4,129.062,0.906,95,60.0
519,A4,129.062,0.906,95,60.0
520,F#3,130.0,0.969,95,60.0
521,A3,130.0,0.969,95,60.0
522,C4,130.062,0.906,95,60.0
523,E-4,130.062,0.906,95,60.0
524,F#3,131.0,0.969,95,60.0
525,G3,131.0,0.969,95,60.0
526,D4,131.062,0.906,95,60.0
527,E-4,131.062,0.906,95,60.0
528,B-3,132.0,0.969,95,60.0
529,F4,132.0,0.969,95,60.0
530,B4,132.062,0.906,95,60.0
531,F#5,132.062,0.906,95,60.0
532,B-3,133.0,0.969,95,60.0
533,G4,133.0,0.969,95,60.0
534,A4,133.062,0.906,95,60.0
535,F#5,133.062,0.906,95,60.0
536,E4,134.0,0.969,95,60.0
537,G4,134.0,0.969,95,60.0
538,A4,134.062,0.906,95,60.0
539,C5,134.062,0.906,95,60.0
540,E4,135.0,0.969,95,60.0
541,F4,135.0,0.969,95,60.0
542,B4,135.062,0.906,95,60.0
543,C5,135.062,0.906,95,60.0
544,F3,136.0,0.969,95,60.0
545,C4,136.0,0.969,95,60.0
546,G4,136.062,0.906,95,60.0
547,C#5,136.062,0.906,95,60.0
548,F3,137.0,0.969,95,60.0
549,D4,137.0,0.969,95,60.0
550,F4,137.062,0.906,95,60.0
551,C#5,137.062,0.906,95,60.0
552,B3,138.0,0.969,95,60.0
553,D4,138.0,0.969,95,60.0
554,F4,138.062,0.906,95,60.0
555,G4,138.062,0.906,95,60.0
556,B3,139.0,0.969,95,60.0
557,C4,139.0,0.969,95,60.0
558,G4,139.062,0.906,95,60.0
559,G4,139.062,0.906,95,60.0
560,C3,140.0,0.969,95,60.0
561,G3,140.0,0.969,95,60.0
562,D4,140.062,0.906,95,60.0
563,A4,140.062,0.906,95,60.0
564,C3,141.0,0.969,95,60.0
565,A3,141.0,0.969,95,60.0
566,C4,141.062,0.906,95,60.0
567,A4,141.062,0.906,95,60.0
568,F#3,142.0,0.969,95,60.0
569,A3,142.0,0.969,95,60.0
570,C4,142.062,0.906,95,60.0
571,E-4,142.062,0.906,95,60.0
572,F#3,143.0,0.969,95,60.0
573,G3,143.0,0.969,95,60.0
574,D4,143.062,0.906,95,60.0
575,E-4,143.062,0.906,95,60.0
576,B2,144.0,0.25,95,60.0
577,B-3,144.25,0.25,95,60.0
578,E4,144.5,0.25,95,60.0
579,D5,144.75,0.25,95,60.0
580,B2,145.0,0.25,95,60.0
581,B3,145.25,0.25,95,60.0
582,E-4,145.5,0.25,95,60.0
583,D5,145.75,0.25,95,60.0
584,D3,146.0,0.25,95,60.0
585,B3,146.25,0.25,95,60.0
586,E-4,146.5,0.25,95,60.0
587,B4,146.75,0.25,95,60.0
588,D3,147.0,0.25,95,60.0
589,B-3,147.25,0.25,95,60.0
590,E4,147.5,0.25,95,60.0
591,B4,147.75,0.25,95,60.0
592,B-2,148.0,0.25,95,60.0
593,B-3,148.25,0.25,95,60.0
594,E4,148.5,0.25,95,60.0
595,E-5,148.75,0.25,95,60.0
596,B-2,149.0,0.25,95,60.0
597,B3,149.25,0.25,95,60.0
598,E-4,149.5,0.25,95,60.0
599,E-5,149.75,0.25,95,60.0
600,E-3,150.0,0.25,95,60.0
601,B3,150.25,0.25,95,60.0
602,E-4,150.5,0.25,95,60.0
603,B-4,150.75,0.25,95,60.0
604,E-3,151.0,0.25,95,60.0
605,B-3,151.25,0.25,95,60.0
606,E4,151.5,0.25,95,60.0
607,B-4,151.75,0.25,95,60.0
608,A2,152.0,0.25,95,60.0
609,A3,152.25,0.25,95,60.0
610,E4,152.5,0.25,95,60.0
611,E-5,152.75,0.25,95,60.0
612,A2,153.0,0.25,95,60.0
613,B3,153.25,0.25,95,60.0
614,D4,153.5,0.25,95,60.0
615,E-5,153.75,0.25,95,60.0
616,E-3,154.0,0.25,95,60.0
617,B3,154.25,0.25,95,60.0
618,D4,154.5,0.25,95,60.0
619,A4,154.75,0.25,95,60.0
620,E-3,155.0,0.25,95,60.0
621,A3,155.25,0.25,95,60.0
622,E4,155.5,0.25,95,60.0
623,A4,155.75,0.25,95,60.0
624,B2,156.0,0.25,95,60.0
625,B-3,156.25,0.25,95,60.0
626,E4,156.5,0.25,95,60.0
627,D5,156.75,0.25,95,60.0
628,B2,157.0,0.25,95,60.0
629,B3,157.25,0.25,95,60.0
630,E-4,157.5,0.25,95,60.0
631,D5,157.75,0.25,95,60.0
632,D3,158.0,0.25,95,60.0
633,B3,158.25,0.25,95,60.0
634,E-4,158.5,0.25,95,60.0
635,B4,158.75,0.25,95,60.0
636,D3,159.0,0.25,95,60.0
637,B-3,159.25,0.25,95,60.0
638,E4,159.5,0.25,95,60.0
639,B4,159.75,0.25,95,60.0
640,B-2,160.0,0.25,95,60.0
641,B-3,160.25,0.25,95,60.0
642,E4,160.5,0.25,95,60.0
643,E-5,160.75,0.25,95,60.0
644,B-2,161.0,0.25,95,60.0
645,B3,161.25,0.25,95,60.0
646,E-4,161.5,0.25,95,60.0
647,E-5,161.75,0.25,95,60.0
648,E-3,162.0,0.25,95,60.0
649,B3,162.25,0.25,95,60.0
650,E-4,162.5,0.25,95,60.0
651,B-4,162.75,0.25,95,60.0
652,E-3,163.0,0.25,95,60.0
653,B-3,163.25,0.25,95,60.0
654,E4,163.5,0.25,95,60.0
655,B-4,163.75,0.25,95,60.0
656,A2,164.0,0.25,95,60.0
657,A3,164.25,0.25,95,60.0
658,E4,164.5,0.25,95,60.0
659,E-5,164.75,0.25,95,60.0
660,A2,165.0,0.25,95,60.0
661,B3,165.25,0.25,95,60.0
662,D4,165.5,0.25,95,60.0
663,E-5,165.75,0.25,95,60.0
664,E-3,166.0,0.25,95,60.0
665,B3,166.25,0.25,95,60.0
666,D4,166.5,0.25,95,60.0
667,A4,166.75,0.25,95,60.0
668,E-3,167.0,0.25,95,60.0
669,A3,167.25,0.25,95,60.0
670,E4,167.5,0.25,95,60.0
671,A4,167.75,0.25,95,60.0
