,note_name,start_time,duration,velocity,tempo
0,F#2,1.995,0.062,90,114.0
1,F#2,2.995,0.062,90,114.0
2,G#4,3.964,9/250,125,114.0
3,E4,3.979,21/1000,97,114.0
4,B3,3.979,21/1000,97,114.0
5,E3,3.979,21/1000,97,114.0
6,G#4,4.0,987/500,125,114.0
7,G#4,4.0,1.938,125,114.0
8,E4,4.0,909/500,97,114.0
9,B3,4.0,909/500,97,114.0
10,E3,4.0,909/500,97,114.0
11,E4,4.016,1839/1000,97,114.0
12,B3,4.016,1839/1000,97,114.0
13,E3,4.016,1839/1000,97,114.0
14,A4,5.948,1401/1000,113,114.0
15,D4,5.948,1401/1000,113,114.0
16,A3,5.948,1401/1000,113,114.0
17,A4,5.984,1401/1000,113,114.0
18,D4,5.984,1401/1000,113,114.0
19,A3,5.984,1401/1000,113,114.0
20,D3,5.99,677/500,106,114.0
21,D3,6.026,677/500,106,114.0
22,A4,7.536,58/125,125,114.0
23,C4,7.547,0.453,113,114.0
24,G3,7.547,0.453,113,114.0
25,C3,7.568,54/125,109,114.0
26,A4,7.573,427/1000,125,114.0
27,C4,7.583,417/1000,113,114.0
28,G3,7.583,417/1000,113,114.0
29,C3,7.604,99/250,109,114.0
30,A4,8.0,487/125,125,114.0
31,C3,8.0,3651/1000,109,114.0
32,A4,8.0,3.859,125,114.0
33,C3,8.0,723/200,109,114.0
34,C4,8.0,3693/1000,113,114.0
35,G3,8.0,3693/1000,113,114.0
36,C4,8.0,3.656,113,114.0
37,G3,8.0,3.656,113,114.0
38,E4,11.958,21/500,114,114.0
39,B3,11.958,21/500,114,114.0
40,E3,11.958,21/500,114,114.0
41,G#4,11.969,0.031,125,114.0
42,E4,11.995,1/200,114,114.0
43,B3,11.995,1/200,114,114.0
44,E3,11.995,1/200,114,114.0
45,G#4,12.0,1927/1000,125,114.0
46,E4,12.0,1823/1000,114,114.0
47,B3,12.0,1823/1000,114,114.0
48,E3,12.0,1823/1000,114,114.0
49,E4,12.0,893/500,114,114.0
50,B3,12.0,893/500,114,114.0
51,E3,12.0,893/500,114,114.0
52,G#4,12.005,979/500,125,114.0
53,A4,13.953,1.344,125,114.0
54,D4,13.979,1.219,109,114.0
55,A3,13.979,1.219,109,114.0
56,D3,13.979,1.219,109,114.0
57,A4,13.99,1.344,125,114.0
58,D4,14.016,1.219,109,114.0
59,A3,14.016,1.219,109,114.0
60,D3,14.016,1.219,109,114.0
61,A3,15.484,0.516,114,114.0
62,E3,15.484,0.516,114,114.0
63,A2,15.484,0.516,114,114.0
64,A4,15.5,0.5,125,114.0
65,A3,15.521,479/1000,114,114.0
66,E3,15.521,479/1000,114,114.0
67,A2,15.521,479/1000,114,114.0
68,A4,15.536,58/125,125,114.0
69,A4,16.0,473/200,125,114.0
70,A4,16.0,2.328,125,114.0
71,A3,16.0,3927/1000,114,114.0
72,E3,16.0,3927/1000,114,114.0
73,A2,16.0,3927/1000,114,114.0
74,A3,16.0,3.891,114,114.0
75,E3,16.0,3.891,114,114.0
76,A2,16.0,3.891,114,114.0
77,F#4,18.49,0.234,125,114.0
78,F#4,18.526,0.234,125,114.0
79,G4,18.708,151/500,120,114.0
80,G4,18.745,151/500,120,114.0
81,F#4,18.948,58/125,125,114.0
82,F#4,18.984,58/125,125,114.0
83,E4,19.417,0.484,125,114.0
84,E4,19.453,0.484,125,114.0
85,G4,19.953,0.047,125,114.0
86,G5,19.953,0.047,125,114.0
87,G4,19.99,1/100,125,114.0
88,G5,19.99,1/100,125,114.0
89,G1,20.0,73/500,70,114.0
90,G4,20.0,4.0,125,114.0
91,G5,20.0,4.0,125,114.0
92,G4,20.0,4.0,125,114.0
93,G5,20.0,4.0,125,114.0
94,C2,20.01,0.062,127,114.0
95,C#3,20.01,0.062,93,114.0
96,F#2,20.5,0.062,90,114.0
97,G1,20.51,27/200,70,114.0
98,F#2,20.745,0.062,90,114.0
99,G1,20.76,27/200,70,114.0
100,G1,21.0,73/500,70,114.0
101,E2,21.016,0.062,104,114.0
102,F#2,21.016,0.062,90,114.0
103,F#2,21.495,0.062,90,114.0
104,G1,21.5,73/500,70,114.0
105,G1,21.74,0.156,70,114.0
106,F#2,21.745,0.062,90,114.0
107,C2,22.005,0.062,127,114.0
108,F#2,22.005,0.062,90,114.0
109,G1,22.01,27/200,70,114.0
110,F#2,22.495,0.062,90,114.0
111,G1,22.5,73/500,70,114.0
112,F#2,22.745,0.062,90,114.0
113,G1,22.75,73/500,70,114.0
114,E2,23.0,0.062,104,114.0
115,F#2,23.005,0.062,90,114.0
116,G1,23.01,27/200,70,114.0
117,F#2,23.495,0.062,90,114.0
118,G1,23.51,27/200,70,114.0
119,F#2,23.745,0.062,90,114.0
120,G1,23.76,27/200,70,114.0
121,G4,24.0,4.0,125,114.0
122,G5,24.0,4.0,125,114.0
123,G4,24.0,799/200,125,114.0
124,G5,24.0,799/200,125,114.0
125,C2,24.005,0.062,127,114.0
126,F#2,24.005,0.062,114,114.0
127,G1,24.021,0.125,70,114.0
128,G1,24.49,0.156,70,114.0
129,F#2,24.495,0.062,114,114.0
130,G1,24.74,0.156,70,114.0
131,F#2,24.745,0.062,114,114.0
132,E2,24.995,0.062,127,114.0
133,F#2,25.005,0.062,114,114.0
134,G1,25.021,0.125,70,114.0
135,G1,25.49,0.156,70,114.0
136,F#2,25.5,0.062,114,114.0
137,G1,25.729,167/1000,70,114.0
138,F#2,25.755,0.062,114,114.0
139,G1,26.0,73/500,70,114.0
140,C2,26.005,0.062,127,114.0
141,F#2,26.005,0.062,114,114.0
142,F#2,26.5,0.062,114,114.0
143,G1,26.5,73/500,70,114.0
144,G1,26.729,167/1000,70,114.0
145,F#2,26.75,0.062,114,114.0
146,G1,26.99,0.156,70,114.0
147,E2,27.005,0.062,127,114.0
148,F#2,27.005,0.062,114,114.0
149,F#2,27.495,0.062,114,114.0
150,G1,27.51,27/200,70,114.0
151,G1,27.729,167/1000,70,114.0
152,F#2,27.75,0.062,114,114.0
153,B3,28.0,0.375,93,114.0
154,G3,28.0,0.375,93,114.0
155,D4,28.0,0.375,93,114.0
156,G4,28.0,0.031,125,114.0
157,G5,28.0,0.031,125,114.0
158,G4,28.0,37/50,105,114.0
159,B3,28.0,37/50,105,114.0
160,D4,28.0,37/50,105,114.0
161,C#3,28.005,0.062,117,114.0
162,G1,28.01,27/200,70,114.0
163,C2,28.016,0.062,127,114.0
164,G1,28.49,0.156,70,114.0
165,F#2,28.5,0.062,114,114.0
166,B3,28.5,0.125,93,114.0
167,D4,28.5,0.125,93,114.0
168,G3,28.5,0.125,93,114.0
169,F#2,28.745,0.062,114,114.0
170,B3,28.75,0.125,93,114.0
171,G3,28.75,0.125,93,114.0
172,D4,28.75,0.125,93,114.0
173,G1,28.76,27/200,70,114.0
174,E2,28.995,0.062,127,114.0
175,B1,29.01,27/200,70,114.0
176,F#2,29.5,0.062,114,114.0
177,B1,29.5,73/500,70,114.0
178,D4,29.5,0.125,93,114.0
179,G3,29.5,0.125,93,114.0
180,B3,29.5,0.125,93,114.0
181,F#2,29.745,0.062,114,114.0
182,B1,29.75,73/500,70,114.0
183,C2,30.005,0.062,127,114.0
184,D2,30.01,27/200,70,114.0
185,F#2,30.5,0.062,114,114.0
186,D4,30.5,0.125,93,114.0
187,G3,30.5,0.125,93,114.0
188,B3,30.5,0.125,93,114.0
189,D2,30.51,27/200,70,114.0
190,F#2,30.745,0.062,114,114.0
191,D2,30.75,73/500,70,114.0
192,D4,31.0,56/125,114,114.0
193,G2,31.0,73/500,70,114.0
194,G4,31.0,479/1000,112,114.0
195,B3,31.0,479/1000,112,114.0
196,E2,31.005,0.062,127,114.0
197,D4,31.25,0.125,93,114.0
198,G3,31.25,0.125,93,114.0
199,B3,31.25,0.125,93,114.0
200,G2,31.49,0.156,70,114.0
201,F#2,31.495,0.062,114,114.0
202,F#2,31.75,0.062,114,114.0
203,G2,31.76,27/200,70,114.0
204,C2,32.0,0.062,127,114.0
205,E-4,32.0,0.75,111,114.0
206,B3,32.0,0.5,93,114.0
207,F#4,32.0,0.5,93,114.0
208,E-4,32.0,0.5,93,114.0
209,A3,32.0,667/1000,111,114.0
210,F#4,32.0,667/1000,111,114.0
211,F#2,32.016,0.062,114,114.0
212,B1,32.021,0.125,70,114.0
213,F#2,32.5,0.062,114,114.0
214,B1,32.521,0.125,70,114.0
215,F#2,32.734,0.062,114,114.0
216,B1,32.75,73/500,70,114.0
217,E-4,32.75,0.125,93,114.0
218,F#4,32.75,0.125,93,114.0
219,B3,32.75,0.125,93,114.0
220,E2,32.99,0.062,127,114.0
221,F#2,32.99,0.062,114,114.0
222,B3,33.0,0.125,93,114.0
223,F#4,33.0,0.125,93,114.0
224,E-4,33.0,0.125,93,114.0
225,E-2,33.01,27/200,70,114.0
226,E-2,33.479,167/1000,70,114.0
227,F#2,33.5,0.062,114,114.0
228,E-4,33.5,0.125,93,114.0
229,B3,33.5,0.125,93,114.0
230,F#4,33.5,0.125,93,114.0
231,E-2,33.729,167/1000,70,114.0
232,F#2,33.75,0.062,114,114.0
233,E-4,33.75,0.125,93,114.0
234,F#4,33.75,0.125,93,114.0
235,B3,33.75,0.125,93,114.0
236,F#2,34.0,73/500,70,114.0
237,C2,34.005,0.062,127,114.0
238,F#2,34.005,0.062,114,114.0
239,F#2,34.495,0.062,114,114.0
240,F#2,34.5,73/500,70,114.0
241,E-4,34.5,0.125,93,114.0
242,B3,34.5,0.125,93,114.0
243,F#4,34.5,0.125,93,114.0
244,F#2,34.734,0.062,114,114.0
245,F#2,34.75,73/500,70,114.0
246,B2,34.99,0.156,70,114.0
247,A3,35.0,401/1000,115,114.0
248,E-4,35.0,401/1000,115,114.0
249,F#4,35.0,401/1000,115,114.0
250,E2,35.005,0.062,127,114.0
251,F#2,35.005,0.062,114,114.0
252,E-4,35.25,0.125,93,114.0
253,B3,35.25,0.125,93,114.0
254,F#4,35.25,0.125,93,114.0
255,F#2,35.49,0.062,114,114.0
256,B2,35.51,27/200,70,114.0
257,F#2,35.75,0.062,114,114.0
258,B2,35.75,73/500,70,114.0
259,C2,36.0,0.062,127,114.0
260,E1,36.0,73/500,70,114.0
261,E4,36.0,0.5,93,114.0
262,B3,36.0,0.5,93,114.0
263,G3,36.0,0.5,93,114.0
264,G3,36.0,393/500,110,114.0
265,B3,36.0,393/500,110,114.0
266,E4,36.0,393/500,110,114.0
267,F#2,36.016,0.062,114,114.0
268,F#2,36.5,0.062,114,114.0
269,E1,36.5,73/500,70,114.0
270,F#2,36.74,0.062,114,114.0
271,E1,36.74,0.156,70,114.0
272,B3,36.75,0.125,93,114.0
273,G3,36.75,0.125,93,114.0
274,E4,36.75,0.125,93,114.0
275,E2,36.995,0.062,127,114.0
276,G3,37.0,0.125,93,114.0
277,B3,37.0,0.125,93,114.0
278,E4,37.0,0.125,93,114.0
279,F#2,37.01,0.062,114,114.0
280,G1,37.01,27/200,70,114.0
281,F#2,37.495,0.062,114,114.0
282,G1,37.5,73/500,70,114.0
283,G3,37.5,0.125,93,114.0
284,B3,37.5,0.125,93,114.0
285,E4,37.5,0.125,93,114.0
286,F#2,37.745,0.062,114,114.0
287,G1,37.75,73/500,70,114.0
288,B3,37.75,0.125,93,114.0
289,G3,37.75,0.125,93,114.0
290,E4,37.75,0.125,93,114.0
291,C2,38.005,0.062,127,114.0
292,F#2,38.005,0.062,114,114.0
293,B1,38.01,27/200,70,114.0
294,F#2,38.495,0.062,114,114.0
295,E4,38.5,0.125,93,114.0
296,B3,38.5,0.125,93,114.0
297,G3,38.5,0.125,93,114.0
298,B1,38.51,27/200,70,114.0
299,F#2,38.734,0.062,114,114.0
300,B1,38.75,73/500,70,114.0
301,E2,39.0,73/500,70,114.0
302,B3,39.0,54/125,115,114.0
303,G3,39.0,54/125,115,114.0
304,E4,39.0,54/125,115,114.0
305,E2,39.005,0.062,127,114.0
306,F#2,39.005,0.062,114,114.0
307,G3,39.25,0.125,93,114.0
308,E4,39.25,0.125,93,114.0
309,B3,39.25,0.125,93,114.0
310,F#2,39.495,0.062,114,114.0
311,E2,39.5,73/500,70,114.0
312,E2,39.74,0.156,70,114.0
313,F#2,39.75,0.062,114,114.0
314,G4,40.0,0.5,93,114.0
315,E4,40.0,0.5,93,114.0
316,C4,40.0,0.5,93,114.0
317,E4,40.0,181/250,116,114.0
318,G3,40.0,181/250,116,114.0
319,C4,40.0,181/250,116,114.0
320,C2,40.005,0.062,127,114.0
321,F#2,40.016,0.062,114,114.0
322,C2,40.021,0.125,70,114.0
323,F#2,40.5,0.062,114,114.0
324,C2,40.5,73/500,70,114.0
325,F#2,40.745,0.062,114,114.0
326,C2,40.75,73/500,70,114.0
327,E4,40.75,0.125,93,114.0
328,C4,40.75,0.125,93,114.0
329,G4,40.75,0.125,93,114.0
330,E2,40.974,0.062,127,114.0
331,E2,41.0,73/500,70,114.0
332,E4,41.0,0.125,93,114.0
333,G4,41.0,0.125,93,114.0
334,C4,41.0,0.125,93,114.0
335,F#2,41.005,0.062,114,114.0
336,F#2,41.5,0.062,114,114.0
337,E2,41.5,73/500,70,114.0
338,G4,41.5,0.125,93,114.0
339,E4,41.5,0.125,93,114.0
340,C4,41.5,0.125,93,114.0
341,E2,41.729,167/1000,70,114.0
342,E4,41.75,0.125,93,114.0
343,C4,41.75,0.125,93,114.0
344,G4,41.75,0.125,93,114.0
345,F#2,41.76,0.062,114,114.0
346,G2,41.99,0.156,70,114.0
347,C2,42.0,0.062,127,114.0
348,F#2,42.0,0.062,114,114.0
349,F#2,42.5,0.062,114,114.0
350,G2,42.5,73/500,70,114.0
351,G4,42.5,0.125,93,114.0
352,C4,42.5,0.125,93,114.0
353,E4,42.5,0.125,93,114.0
354,G2,42.729,167/1000,70,114.0
355,F#2,42.75,0.062,114,114.0
356,C3,43.0,73/500,70,114.0
357,E4,43.0,0.469,108,114.0
358,C4,43.0,0.469,108,114.0
359,G3,43.0,0.469,108,114.0
360,E2,43.01,0.062,127,114.0
361,F#2,43.01,0.062,114,114.0
362,E4,43.25,0.125,93,114.0
363,G4,43.25,0.125,93,114.0
364,C4,43.25,0.125,93,114.0
365,C3,43.49,0.156,70,114.0
366,F#2,43.495,0.062,114,114.0
367,F#2,43.76,0.062,114,114.0
368,C3,43.76,27/200,70,114.0
369,B3,44.0,0.375,93,114.0
370,G3,44.0,0.375,93,114.0
371,D4,44.0,0.375,93,114.0
372,G4,44.0,0.656,111,114.0
373,B3,44.0,0.656,111,114.0
374,D4,44.0,0.656,111,114.0
375,G1,44.01,27/200,70,114.0
376,C#3,44.016,0.062,117,114.0
377,C2,44.026,0.062,127,114.0
378,F#2,44.5,0.062,114,114.0
379,G1,44.5,73/500,70,114.0
380,B3,44.5,0.125,93,114.0
381,D4,44.5,0.125,93,114.0
382,G3,44.5,0.125,93,114.0
383,F#2,44.74,0.062,114,114.0
384,G1,44.74,0.156,70,114.0
385,B3,44.75,0.125,93,114.0
386,G3,44.75,0.125,93,114.0
387,D4,44.75,0.125,93,114.0
388,E2,44.995,0.062,127,114.0
389,B1,45.01,27/200,70,114.0
390,F#2,45.5,0.062,114,114.0
391,D4,45.5,0.125,93,114.0
392,G3,45.5,0.125,93,114.0
393,B3,45.5,0.125,93,114.0
394,B1,45.51,27/200,70,114.0
395,F#2,45.745,0.062,114,114.0
396,B1,45.75,73/500,70,114.0
397,C2,46.005,0.062,127,114.0
398,D2,46.01,27/200,70,114.0
399,D2,46.49,0.156,70,114.0
400,F#2,46.5,0.062,114,114.0
401,D4,46.5,0.125,93,114.0
402,G3,46.5,0.125,93,114.0
403,B3,46.5,0.125,93,114.0
404,F#2,46.75,0.062,114,114.0
405,D2,46.76,27/200,70,114.0
406,D4,47.0,56/125,99,114.0
407,B3,47.0,56/125,99,114.0
408,G4,47.0,56/125,99,114.0
409,E2,47.005,0.062,127,114.0
410,G2,47.021,0.125,70,114.0
411,D4,47.25,0.125,93,114.0
412,G3,47.25,0.125,93,114.0
413,B3,47.25,0.125,93,114.0
414,F#2,47.495,0.062,114,114.0
415,G2,47.521,0.125,70,114.0
416,G2,47.729,167/1000,70,114.0
417,F#2,47.75,0.062,114,114.0
418,B3,48.0,0.5,93,114.0
419,F#4,48.0,0.5,93,114.0
420,E-4,48.0,0.5,93,114.0
421,A3,48.0,0.609,112,114.0
422,E-4,48.0,0.609,112,114.0
423,F#4,48.0,0.609,112,114.0
424,C2,48.005,0.062,127,114.0
425,B1,48.01,27/200,70,114.0
426,F#2,48.016,0.062,114,114.0
427,F#2,48.5,0.062,114,114.0
428,B1,48.521,0.125,70,114.0
429,B1,48.729,167/1000,70,114.0
430,F#2,48.74,0.062,114,114.0
431,E-4,48.75,0.125,93,114.0
432,F#4,48.75,0.125,93,114.0
433,B3,48.75,0.125,93,114.0
434,E2,48.99,0.062,127,114.0
435,E-2,49.0,73/500,70,114.0
436,B3,49.0,0.125,93,114.0
437,F#4,49.0,0.125,93,114.0
438,E-4,49.0,0.125,93,114.0
439,F#2,49.005,0.062,114,114.0
440,F#2,49.5,0.062,114,114.0
441,E-2,49.5,73/500,70,114.0
442,E-4,49.5,0.125,93,114.0
443,B3,49.5,0.125,93,114.0
444,F#4,49.5,0.125,93,114.0
445,E-2,49.729,167/1000,70,114.0
446,F#2,49.75,0.062,114,114.0
447,E-4,49.75,0.125,93,114.0
448,F#4,49.75,0.125,93,114.0
449,B3,49.75,0.125,93,114.0
450,F#2,49.99,0.156,70,114.0
451,C2,50.005,0.062,127,114.0
452,F#2,50.005,0.062,114,114.0
453,F#2,50.5,0.062,114,114.0
454,F#2,50.5,73/500,70,114.0
455,E-4,50.5,0.125,93,114.0
456,B3,50.5,0.125,93,114.0
457,F#4,50.5,0.125,93,114.0
458,F#2,50.729,167/1000,70,114.0
459,F#2,50.74,0.062,114,114.0
460,A3,51.0,99/200,111,114.0
461,B2,51.0,73/500,70,114.0
462,E-4,51.0,99/250,116,114.0
463,F#4,51.0,99/250,116,114.0
464,E2,51.01,0.062,127,114.0
465,F#2,51.01,0.062,114,114.0
466,E-4,51.25,0.125,93,114.0
467,B3,51.25,0.125,93,114.0
468,F#4,51.25,0.125,93,114.0
469,B2,51.49,0.156,70,114.0
470,F#2,51.505,0.062,114,114.0
471,B2,51.74,0.156,70,114.0
472,F#2,51.75,0.062,114,114.0
473,E4,52.0,0.5,93,114.0
474,B3,52.0,0.5,93,114.0
475,G3,52.0,0.5,93,114.0
476,G3,52.0,0.641,119,114.0
477,E4,52.0,0.641,119,114.0
478,B3,52.0,0.641,119,114.0
479,C2,52.005,0.062,127,114.0
480,F#2,52.005,0.062,114,114.0
481,E1,52.021,0.125,70,114.0
482,F#2,52.495,0.062,114,114.0
483,E1,52.5,73/500,70,114.0
484,F#2,52.75,0.062,114,114.0
485,E1,52.75,73/500,70,114.0
486,B3,52.75,0.125,93,114.0
487,G3,52.75,0.125,93,114.0
488,E4,52.75,0.125,93,114.0
489,G1,52.99,0.156,70,114.0
490,G3,53.0,0.125,93,114.0
491,B3,53.0,0.125,93,114.0
492,E4,53.0,0.125,93,114.0
493,E2,53.005,0.062,127,114.0
494,F#2,53.005,0.062,114,114.0
495,F#2,53.5,0.062,114,114.0
496,G3,53.5,0.125,93,114.0
497,B3,53.5,0.125,93,114.0
498,E4,53.5,0.125,93,114.0
499,G1,53.51,27/200,70,114.0
500,F#2,53.75,0.062,114,114.0
501,G1,53.75,73/500,70,114.0
502,B3,53.75,0.125,93,114.0
503,G3,53.75,0.125,93,114.0
504,E4,53.75,0.125,93,114.0
505,C2,54.01,0.062,127,114.0
506,F#2,54.01,0.062,114,114.0
507,B1,54.021,0.125,70,114.0
508,B1,54.49,0.156,70,114.0
509,F#2,54.5,0.062,114,114.0
510,E4,54.5,0.125,93,114.0
511,B3,54.5,0.125,93,114.0
512,G3,54.5,0.125,93,114.0
513,B1,54.74,0.156,70,114.0
514,F#2,54.755,0.062,114,114.0
515,G3,55.0,49/100,108,114.0
516,B3,55.0,49/100,108,114.0
517,E4,55.0,49/100,108,114.0
518,E2,55.021,0.062,127,114.0
519,F#2,55.021,0.062,114,114.0
520,E2,55.021,0.125,70,114.0
521,G3,55.25,0.125,93,114.0
522,E4,55.25,0.125,93,114.0
523,B3,55.25,0.125,93,114.0
524,F#2,55.495,0.062,114,114.0
525,E2,55.5,73/500,70,114.0
526,E2,55.729,167/1000,70,114.0
527,F#2,55.745,0.062,114,114.0
528,C2,55.99,1/100,70,114.0
529,C2,56.0,73/500,70,114.0
530,G4,56.0,0.5,93,114.0
531,E4,56.0,0.5,93,114.0
532,C4,56.0,0.5,93,114.0
533,G3,56.0,0.781,117,114.0
534,C4,56.0,0.781,117,114.0
535,E4,56.0,0.781,117,114.0
536,C2,56.005,0.062,127,114.0
537,F#2,56.005,0.062,114,114.0
538,F#2,56.495,0.062,114,114.0
539,C2,56.521,0.125,70,114.0
540,F#2,56.745,0.062,114,114.0
541,C2,56.75,73/500,70,114.0
542,E4,56.75,0.125,93,114.0
543,C4,56.75,0.125,93,114.0
544,G4,56.75,0.125,93,114.0
545,E2,56.99,0.156,70,114.0
546,E4,57.0,0.125,93,114.0
547,G4,57.0,0.125,93,114.0
548,C4,57.0,0.125,93,114.0
549,E2,57.005,0.062,127,114.0
550,F#2,57.005,0.062,114,114.0
551,F#2,57.5,0.062,114,114.0
552,E2,57.5,73/500,70,114.0
553,G4,57.5,0.125,93,114.0
554,E4,57.5,0.125,93,114.0
555,C4,57.5,0.125,93,114.0
556,E2,57.729,167/1000,70,114.0
557,F#2,57.75,0.062,114,114.0
558,E4,57.75,0.125,93,114.0
559,C4,57.75,0.125,93,114.0
560,G4,57.75,0.125,93,114.0
561,C2,58.0,0.062,127,114.0
562,F#2,58.0,0.062,114,114.0
563,G2,58.0,73/500,70,114.0
564,G2,58.49,0.156,70,114.0
565,F#2,58.5,0.062,114,114.0
566,G4,58.5,0.125,93,114.0
567,C4,58.5,0.125,93,114.0
568,E4,58.5,0.125,93,114.0
569,F#2,58.74,0.062,114,114.0
570,G2,58.76,27/200,70,114.0
571,C3,59.0,73/500,70,114.0
572,E4,59.0,0.484,120,114.0
573,C4,59.0,0.484,120,114.0
574,G3,59.0,0.484,120,114.0
575,E2,59.01,0.062,127,114.0
576,F#2,59.01,0.062,114,114.0
577,E4,59.25,0.125,93,114.0
578,G4,59.25,0.125,93,114.0
579,C4,59.25,0.125,93,114.0
580,F#2,59.495,0.062,114,114.0
581,C3,59.5,73/500,70,114.0
582,C3,59.74,0.156,70,114.0
583,F#2,59.75,0.062,114,114.0
584,B3,60.0,0.375,93,114.0
585,G3,60.0,0.375,93,114.0
586,D4,60.0,0.375,93,114.0
587,D4,60.0,127/200,109,114.0
588,G4,60.0,127/200,109,114.0
589,B3,60.0,127/200,109,114.0
590,G1,60.01,27/200,70,114.0
591,C2,60.021,0.062,127,114.0
592,F#2,60.026,0.062,114,114.0
593,F#2,60.495,0.062,114,114.0
594,G1,60.5,73/500,70,114.0
595,B3,60.5,0.125,93,114.0
596,D4,60.5,0.125,93,114.0
597,G3,60.5,0.125,93,114.0
598,G1,60.75,73/500,70,114.0
599,B3,60.75,0.125,93,114.0
600,G3,60.75,0.125,93,114.0
601,D4,60.75,0.125,93,114.0
602,F#2,60.755,0.062,114,114.0
603,B1,61.0,73/500,70,114.0
604,E2,61.005,0.062,127,114.0
605,F#2,61.005,0.062,114,114.0
606,B1,61.49,0.156,70,114.0
607,D4,61.5,0.125,93,114.0
608,G3,61.5,0.125,93,114.0
609,B3,61.5,0.125,93,114.0
610,F#2,61.505,0.062,114,114.0
611,F#2,61.745,0.062,114,114.0
612,B1,61.76,27/200,70,114.0
613,C2,62.005,0.062,127,114.0
614,F#2,62.021,0.062,114,114.0
615,D2,62.021,0.125,70,114.0
616,D2,62.5,73/500,70,114.0
617,D4,62.5,0.125,93,114.0
618,G3,62.5,0.125,93,114.0
619,B3,62.5,0.125,93,114.0
620,F#2,62.505,0.062,114,114.0
621,F#2,62.74,0.062,114,114.0
622,D2,62.74,0.156,70,114.0
623,G4,63.0,0.562,111,114.0
624,D4,63.0,58/125,120,114.0
625,B3,63.0,58/125,120,114.0
626,E2,63.01,0.062,127,114.0
627,F#2,63.016,0.062,114,114.0
628,G2,63.021,0.125,70,114.0
629,D4,63.25,0.125,93,114.0
630,G3,63.25,0.125,93,114.0
631,B3,63.25,0.125,93,114.0
632,G2,63.5,73/500,70,114.0
633,F#2,63.505,0.062,114,114.0
634,G2,63.729,167/1000,70,114.0
635,F#2,63.745,0.062,114,114.0
636,C2,64.0,0.062,127,114.0
637,F#2,64.0,0.062,114,114.0
638,B1,64.0,73/500,70,114.0
639,B3,64.0,0.5,93,114.0
640,F#4,64.0,0.5,93,114.0
641,E-4,64.0,0.5,93,114.0
642,A3,64.0,693/1000,116,114.0
643,E-4,64.0,693/1000,116,114.0
644,F#4,64.0,693/1000,116,114.0
645,F#2,64.495,0.062,114,114.0
646,B1,64.521,0.125,70,114.0
647,F#2,64.734,0.062,114,114.0
648,E-4,64.75,0.125,93,114.0
649,F#4,64.75,0.125,93,114.0
650,B3,64.75,0.125,93,114.0
651,B1,64.76,27/200,70,114.0
652,B3,65.0,0.125,93,114.0
653,F#4,65.0,0.125,93,114.0
654,E-4,65.0,0.125,93,114.0
655,E2,65.005,0.062,127,114.0
656,F#2,65.005,0.062,114,114.0
657,E-2,65.021,0.125,70,114.0
658,F#2,65.5,0.062,114,114.0
659,E-2,65.5,73/500,70,114.0
660,E-4,65.5,0.125,93,114.0
661,B3,65.5,0.125,93,114.0
662,F#4,65.5,0.125,93,114.0
663,E-2,65.729,167/1000,70,114.0
664,F#2,65.745,0.062,114,114.0
665,E-4,65.75,0.125,93,114.0
666,F#4,65.75,0.125,93,114.0
667,B3,65.75,0.125,93,114.0
668,F#2,66.0,73/500,70,114.0
669,C2,66.021,0.062,127,114.0
670,F#2,66.021,0.062,114,114.0
671,F#2,66.49,0.156,70,114.0
672,F#2,66.5,0.062,114,114.0
673,E-4,66.5,0.125,93,114.0
674,B3,66.5,0.125,93,114.0
675,F#4,66.5,0.125,93,114.0
676,F#2,66.729,167/1000,70,114.0
677,F#2,66.755,0.062,114,114.0
678,A3,67.0,417/1000,120,114.0
679,E-4,67.0,417/1000,120,114.0
680,F#4,67.0,417/1000,120,114.0
681,E2,67.005,0.062,127,114.0
682,B2,67.01,27/200,70,114.0
683,F#2,67.021,0.062,114,114.0
684,E-4,67.25,0.125,93,114.0
685,B3,67.25,0.125,93,114.0
686,F#4,67.25,0.125,93,114.0
687,F#2,67.5,0.062,114,114.0
688,B2,67.5,73/500,70,114.0
689,F#2,67.75,0.062,114,114.0
690,B2,67.75,73/500,70,114.0
691,E1,67.99,1/100,70,114.0
692,E1,68.0,73/500,70,114.0
693,E4,68.0,0.5,93,114.0
694,B3,68.0,0.5,93,114.0
695,G3,68.0,0.5,93,114.0
696,G3,68.0,151/200,118,114.0
697,B3,68.0,151/200,118,114.0
698,E4,68.0,151/200,118,114.0
699,C2,68.005,0.062,127,114.0
700,F#2,68.005,0.062,114,114.0
701,F#2,68.495,0.062,114,114.0
702,E1,68.51,27/200,70,114.0
703,F#2,68.745,0.062,114,114.0
704,E1,68.75,73/500,70,114.0
705,B3,68.75,0.125,93,114.0
706,G3,68.75,0.125,93,114.0
707,E4,68.75,0.125,93,114.0
708,E2,68.995,0.062,127,114.0
709,G1,69.0,73/500,70,114.0
710,G3,69.0,0.125,93,114.0
711,B3,69.0,0.125,93,114.0
712,E4,69.0,0.125,93,114.0
713,F#2,69.005,0.062,114,114.0
714,G1,69.49,0.156,70,114.0
715,F#2,69.495,0.062,114,114.0
716,G3,69.5,0.125,93,114.0
717,B3,69.5,0.125,93,114.0
718,E4,69.5,0.125,93,114.0
719,F#2,69.745,0.062,114,114.0
720,B3,69.75,0.125,93,114.0
721,G3,69.75,0.125,93,114.0
722,E4,69.75,0.125,93,114.0
723,G1,69.76,27/200,70,114.0
724,C2,70.005,0.062,127,114.0
725,F#2,70.005,0.062,114,114.0
726,B1,70.021,0.125,70,114.0
727,F#2,70.5,0.062,114,114.0
728,B1,70.5,73/500,70,114.0
729,E4,70.5,0.125,93,114.0
730,B3,70.5,0.125,93,114.0
731,G3,70.5,0.125,93,114.0
732,F#2,70.745,0.062,114,114.0
733,B1,70.75,73/500,70,114.0
734,G3,71.0,427/1000,120,114.0
735,E4,71.0,427/1000,120,114.0
736,B3,71.0,427/1000,120,114.0
737,E2,71.01,0.062,127,114.0
738,E2,71.01,27/200,70,114.0
739,F#2,71.021,0.062,114,114.0
740,G3,71.25,0.125,93,114.0
741,E4,71.25,0.125,93,114.0
742,B3,71.25,0.125,93,114.0
743,F#2,71.495,0.062,114,114.0
744,E2,71.51,27/200,70,114.0
745,E2,71.75,73/500,70,114.0
746,F#2,71.755,0.062,114,114.0
747,C2,72.0,73/500,70,114.0
748,G4,72.0,0.5,93,114.0
749,E4,72.0,0.5,93,114.0
750,C4,72.0,0.5,93,114.0
751,G3,72.0,409/500,115,114.0
752,E4,72.0,409/500,115,114.0
753,C4,72.0,409/500,115,114.0
754,C2,72.005,0.062,127,114.0
755,F#2,72.005,0.062,114,114.0
756,F#2,72.5,0.062,114,114.0
757,C2,72.5,73/500,70,114.0
758,F#2,72.75,0.062,114,114.0
759,E4,72.75,0.125,93,114.0
760,C4,72.75,0.125,93,114.0
761,G4,72.75,0.125,93,114.0
762,C2,72.76,27/200,70,114.0
763,E2,72.995,0.062,127,114.0
764,E2,73.0,73/500,70,114.0
765,E4,73.0,0.125,93,114.0
766,G4,73.0,0.125,93,114.0
767,C4,73.0,0.125,93,114.0
768,F#2,73.005,0.062,114,114.0
769,F#2,73.5,0.062,114,114.0
770,E2,73.5,73/500,70,114.0
771,G4,73.5,0.125,93,114.0
772,E4,73.5,0.125,93,114.0
773,C4,73.5,0.125,93,114.0
774,E2,73.729,167/1000,70,114.0
775,F#2,73.75,0.062,114,114.0
776,E4,73.75,0.125,93,114.0
777,C4,73.75,0.125,93,114.0
778,G4,73.75,0.125,93,114.0
779,G2,74.0,73/500,70,114.0
780,C2,74.005,0.062,127,114.0
781,F#2,74.005,0.062,114,114.0
782,F#2,74.5,0.062,114,114.0
783,G2,74.5,73/500,70,114.0
784,G4,74.5,0.125,93,114.0
785,C4,74.5,0.125,93,114.0
786,E4,74.5,0.125,93,114.0
787,G2,74.729,167/1000,70,114.0
788,F#2,74.75,0.062,114,114.0
789,C3,75.0,73/500,70,114.0
790,E4,75.0,443/1000,119,114.0
791,C4,75.0,443/1000,119,114.0
792,G3,75.0,443/1000,119,114.0
793,E2,75.01,0.062,127,114.0
794,F#2,75.01,0.062,114,114.0
795,E4,75.25,0.125,93,114.0
796,G4,75.25,0.125,93,114.0
797,C4,75.25,0.125,93,114.0
798,C3,75.5,73/500,70,114.0
799,F#2,75.505,0.062,114,114.0
800,F#2,75.75,0.062,114,114.0
801,C3,75.75,73/500,70,114.0
802,B3,76.0,0.375,93,114.0
803,G3,76.0,0.375,93,114.0
804,D4,76.0,0.375,93,114.0
805,D4,76.0,0.75,115,114.0
806,G4,76.0,0.75,115,114.0
807,B3,76.0,0.75,115,114.0
808,G1,76.01,27/200,70,114.0
809,C2,76.016,0.062,127,114.0
810,F#2,76.031,0.062,114,114.0
811,F#2,76.5,0.062,114,114.0
812,B3,76.5,0.125,93,114.0
813,D4,76.5,0.125,93,114.0
814,G3,76.5,0.125,93,114.0
815,G1,76.51,27/200,70,114.0
816,F#2,76.745,0.062,114,114.0
817,B3,76.75,0.125,93,114.0
818,G3,76.75,0.125,93,114.0
819,D4,76.75,0.125,93,114.0
820,G1,76.76,27/200,70,114.0
821,B1,77.0,73/500,70,114.0
822,E2,77.005,0.062,127,114.0
823,F#2,77.016,0.062,114,114.0
824,F#2,77.5,0.062,114,114.0
825,B1,77.5,73/500,70,114.0
826,D4,77.5,0.125,93,114.0
827,G3,77.5,0.125,93,114.0
828,B3,77.5,0.125,93,114.0
829,B1,77.74,0.156,70,114.0
830,F#2,77.75,0.062,114,114.0
831,C2,78.005,0.062,127,114.0
832,F#2,78.005,0.062,114,114.0
833,D2,78.021,0.125,70,114.0
834,D2,78.5,73/500,70,114.0
835,D4,78.5,0.125,93,114.0
836,G3,78.5,0.125,93,114.0
837,B3,78.5,0.125,93,114.0
838,F#2,78.505,0.062,114,114.0
839,F#2,78.745,0.062,114,114.0
840,D2,78.75,73/500,70,114.0
841,G4,79.0,101/200,111,114.0
842,D4,79.0,56/125,115,114.0
843,B3,79.0,56/125,115,114.0
844,G2,79.01,27/200,70,114.0
845,E2,79.021,0.062,127,114.0
846,F#2,79.021,0.062,114,114.0
847,D4,79.25,0.125,93,114.0
848,G3,79.25,0.125,93,114.0
849,B3,79.25,0.125,93,114.0
850,F#2,79.5,0.062,114,114.0
851,G2,79.51,27/200,70,114.0
852,F#2,79.75,0.062,114,114.0
853,G2,79.75,73/500,70,114.0
854,B3,80.0,0.5,93,114.0
855,F#4,80.0,0.5,93,114.0
856,E-4,80.0,0.5,93,114.0
857,F#4,80.0,0.844,109,114.0
858,E-4,80.0,0.844,109,114.0
859,A3,80.0,0.844,109,114.0
860,C2,80.005,0.062,127,114.0
861,F#2,80.005,0.062,114,114.0
862,B1,80.021,0.125,70,114.0
863,F#2,80.5,0.062,114,114.0
864,B1,80.521,0.125,70,114.0
865,B1,80.74,0.156,70,114.0
866,E-4,80.75,0.125,93,114.0
867,F#4,80.75,0.125,93,114.0
868,B3,80.75,0.125,93,114.0
869,F#2,80.755,0.062,114,114.0
870,E-2,81.0,73/500,70,114.0
871,B3,81.0,0.125,93,114.0
872,F#4,81.0,0.125,93,114.0
873,E-4,81.0,0.125,93,114.0
874,E2,81.005,0.062,127,114.0
875,F#2,81.005,0.062,114,114.0
876,E-2,81.49,0.156,70,114.0
877,F#2,81.5,0.062,114,114.0
878,E-4,81.5,0.125,93,114.0
879,B3,81.5,0.125,93,114.0
880,F#4,81.5,0.125,93,114.0
881,E-2,81.729,167/1000,70,114.0
882,F#2,81.75,0.062,114,114.0
883,E-4,81.75,0.125,93,114.0
884,F#4,81.75,0.125,93,114.0
885,B3,81.75,0.125,93,114.0
886,F#2,82.0,73/500,70,114.0
887,C2,82.01,0.062,127,114.0
888,F#2,82.01,0.062,114,114.0
889,F#2,82.5,0.062,114,114.0
890,F#2,82.5,73/500,70,114.0
891,E-4,82.5,0.125,93,114.0
892,B3,82.5,0.125,93,114.0
893,F#4,82.5,0.125,93,114.0
894,F#2,82.729,167/1000,70,114.0
895,F#2,82.74,0.062,114,114.0
896,B2,82.99,0.156,70,114.0
897,A3,83.0,0.438,118,114.0
898,F#4,83.0,0.438,118,114.0
899,E-4,83.0,0.438,118,114.0
900,E2,83.005,0.062,127,114.0
901,F#2,83.021,0.062,114,114.0
902,E-4,83.25,0.125,93,114.0
903,B3,83.25,0.125,93,114.0
904,F#4,83.25,0.125,93,114.0
905,F#2,83.5,0.062,114,114.0
906,B2,83.51,27/200,70,114.0
907,F#2,83.75,0.062,114,114.0
908,B2,83.75,73/500,70,114.0
909,E1,84.0,73/500,70,114.0
910,E4,84.0,0.5,93,114.0
911,B3,84.0,0.5,93,114.0
912,G3,84.0,0.5,93,114.0
913,B3,84.0,0.703,114,114.0
914,G3,84.0,0.703,114,114.0
915,E4,84.0,0.703,114,114.0
916,C2,84.005,0.062,127,114.0
917,F#2,84.005,0.062,114,114.0
918,E1,84.49,0.156,70,114.0
919,F#2,84.495,0.062,114,114.0
920,F#2,84.75,0.062,114,114.0
921,B3,84.75,0.125,93,114.0
922,G3,84.75,0.125,93,114.0
923,E4,84.75,0.125,93,114.0
924,E1,84.76,27/200,70,114.0
925,G3,85.0,0.125,93,114.0
926,B3,85.0,0.125,93,114.0
927,E4,85.0,0.125,93,114.0
928,E2,85.021,0.062,127,114.0
929,F#2,85.021,0.062,114,114.0
930,G1,85.021,0.125,70,114.0
931,F#2,85.5,0.062,114,114.0
932,G1,85.5,73/500,70,114.0
933,G3,85.5,0.125,93,114.0
934,B3,85.5,0.125,93,114.0
935,E4,85.5,0.125,93,114.0
936,F#2,85.75,0.062,114,114.0
937,G1,85.75,73/500,70,114.0
938,B3,85.75,0.125,93,114.0
939,G3,85.75,0.125,93,114.0
940,E4,85.75,0.125,93,114.0
941,C2,86.01,0.062,127,114.0
942,F#2,86.01,0.062,114,114.0
943,B1,86.01,27/200,70,114.0
944,F#2,86.495,0.062,114,114.0
945,E4,86.5,0.125,93,114.0
946,B3,86.5,0.125,93,114.0
947,G3,86.5,0.125,93,114.0
948,B1,86.51,27/200,70,114.0
949,B1,86.75,73/500,70,114.0
950,F#2,86.755,0.062,114,114.0
951,B3,87.0,101/200,117,114.0
952,G3,87.0,101/200,117,114.0
953,E4,87.0,101/200,117,114.0
954,E2,87.005,0.062,127,114.0
955,F#2,87.005,0.062,114,114.0
956,E2,87.01,27/200,70,114.0
957,G3,87.25,0.125,93,114.0
958,E4,87.25,0.125,93,114.0
959,B3,87.25,0.125,93,114.0
960,E2,87.49,0.156,70,114.0
961,F#2,87.495,0.062,114,114.0
962,F#2,87.745,0.062,114,114.0
963,E2,87.76,27/200,70,114.0
964,C2,87.99,1/100,70,114.0
965,C2,88.0,73/500,70,114.0
966,G4,88.0,0.5,93,114.0
967,E4,88.0,0.5,93,114.0
968,C4,88.0,0.5,93,114.0
969,G3,88.0,97/125,114,114.0
970,E4,88.0,97/125,114,114.0
971,C4,88.0,97/125,114,114.0
972,C2,88.005,0.062,127,114.0
973,F#2,88.005,0.062,114,114.0
974,F#2,88.5,0.062,114,114.0
975,C2,88.5,73/500,70,114.0
976,F#2,88.74,0.062,114,114.0
977,C2,88.75,73/500,70,114.0
978,E4,88.75,0.125,93,114.0
979,C4,88.75,0.125,93,114.0
980,G4,88.75,0.125,93,114.0
981,E4,89.0,0.125,93,114.0
982,G4,89.0,0.125,93,114.0
983,C4,89.0,0.125,93,114.0
984,E2,89.01,27/200,70,114.0
985,E2,89.016,0.062,127,114.0
986,F#2,89.016,0.062,114,114.0
987,F#2,89.5,0.062,114,114.0
988,G4,89.5,0.125,93,114.0
989,E4,89.5,0.125,93,114.0
990,C4,89.5,0.125,93,114.0
991,E2,89.521,0.125,70,114.0
992,F#2,89.745,0.062,114,114.0
993,E2,89.75,73/500,70,114.0
994,E4,89.75,0.125,93,114.0
995,C4,89.75,0.125,93,114.0
996,G4,89.75,0.125,93,114.0
997,C2,90.005,0.062,127,114.0
998,F#2,90.005,0.062,114,114.0
999,G2,90.021,0.125,70,114.0
1000,F#2,90.5,0.062,114,114.0
1001,G2,90.5,73/500,70,114.0
1002,G4,90.5,0.125,93,114.0
1003,C4,90.5,0.125,93,114.0
1004,E4,90.5,0.125,93,114.0
1005,G2,90.729,167/1000,70,114.0
1006,F#2,90.74,0.062,114,114.0
1007,C3,91.0,73/500,70,114.0
1008,C4,91.0,0.484,116,114.0
1009,G3,91.0,0.484,116,114.0
1010,E4,91.0,0.484,116,114.0
1011,E2,91.005,0.062,127,114.0
1012,F#2,91.005,0.062,114,114.0
1013,E4,91.25,0.125,93,114.0
1014,G4,91.25,0.125,93,114.0
1015,C4,91.25,0.125,93,114.0
1016,F#2,91.495,0.062,114,114.0
1017,C3,91.51,27/200,70,114.0
1018,C3,91.729,167/1000,70,114.0
1019,F#2,91.745,0.062,114,114.0
1020,G1,92.0,73/500,70,114.0
1021,B3,92.0,0.375,93,114.0
1022,G3,92.0,0.375,93,114.0
1023,D4,92.0,0.375,93,114.0
1024,D4,92.0,409/500,124,114.0
1025,B3,92.0,409/500,124,114.0
1026,G3,92.0,409/500,124,114.0
1027,C2,92.016,0.062,127,114.0
1028,F#2,92.016,0.062,114,114.0
1029,F#2,92.5,0.062,114,114.0
1030,G1,92.5,73/500,70,114.0
1031,B3,92.5,0.125,93,114.0
1032,D4,92.5,0.125,93,114.0
1033,G3,92.5,0.125,93,114.0
1034,G1,92.74,0.156,70,114.0
1035,B3,92.75,0.125,93,114.0
1036,G3,92.75,0.125,93,114.0
1037,D4,92.75,0.125,93,114.0
1038,F#2,92.755,0.062,114,114.0
1039,E2,93.005,0.062,127,114.0
1040,F#2,93.005,0.062,114,114.0
1041,B1,93.01,27/200,70,114.0
1042,F#2,93.5,0.062,114,114.0
1043,B1,93.5,73/500,70,114.0
1044,D4,93.5,0.125,93,114.0
1045,G3,93.5,0.125,93,114.0
1046,B3,93.5,0.125,93,114.0
1047,F#2,93.75,0.062,114,114.0
1048,B1,93.75,73/500,70,114.0
1049,C2,94.01,0.062,127,114.0
1050,F#2,94.01,0.062,114,114.0
1051,D2,94.01,27/200,70,114.0
1052,D4,94.5,0.125,93,114.0
1053,G3,94.5,0.125,93,114.0
1054,B3,94.5,0.125,93,114.0
1055,F#2,94.505,0.062,114,114.0
1056,D2,94.51,27/200,70,114.0
1057,D2,94.75,73/500,70,114.0
1058,F#2,94.76,0.062,114,114.0
1059,G4,95.0,0.469,119,114.0
1060,D4,95.0,0.469,119,114.0
1061,B3,95.0,0.469,119,114.0
1062,E2,95.01,0.062,127,114.0
1063,F#2,95.021,0.062,114,114.0
1064,G2,95.021,0.125,70,114.0
1065,D4,95.25,0.125,93,114.0
1066,G3,95.25,0.125,93,114.0
1067,B3,95.25,0.125,93,114.0
1068,F#2,95.495,0.062,114,114.0
1069,G2,95.5,73/500,70,114.0
1070,G2,95.74,0.156,70,114.0
1071,F#2,95.75,0.062,114,114.0
1072,B1,96.0,73/500,70,114.0
1073,B3,96.0,0.5,93,114.0
1074,F#4,96.0,0.5,93,114.0
1075,E-4,96.0,0.5,93,114.0
1076,F#4,96.0,151/250,123,114.0
1077,A3,96.0,151/250,123,114.0
1078,E-4,96.0,151/250,123,114.0
1079,C2,96.005,0.062,127,114.0
1080,F#2,96.005,0.062,114,114.0
1081,F#2,96.5,0.062,114,114.0
1082,B1,96.5,73/500,70,114.0
1083,F#2,96.74,0.062,114,114.0
1084,B1,96.75,73/500,70,114.0
1085,E-4,96.75,0.125,93,114.0
1086,F#4,96.75,0.125,93,114.0
1087,B3,96.75,0.125,93,114.0
1088,B3,97.0,0.125,93,114.0
1089,F#4,97.0,0.125,93,114.0
1090,E-4,97.0,0.125,93,114.0
1091,E2,97.005,0.062,127,114.0
1092,F#2,97.005,0.062,114,114.0
1093,E-2,97.021,0.125,70,114.0
1094,F#2,97.5,0.062,114,114.0
1095,E-2,97.5,73/500,70,114.0
1096,E-4,97.5,0.125,93,114.0
1097,B3,97.5,0.125,93,114.0
1098,F#4,97.5,0.125,93,114.0
1099,E-2,97.729,167/1000,70,114.0
1100,F#2,97.745,0.062,114,114.0
1101,E-4,97.75,0.125,93,114.0
1102,F#4,97.75,0.125,93,114.0
1103,B3,97.75,0.125,93,114.0
1104,F#2,97.99,0.156,70,114.0
1105,C2,98.021,0.062,127,114.0
1106,F#2,98.021,0.062,114,114.0
1107,F#2,98.495,0.062,114,114.0
1108,F#2,98.5,73/500,70,114.0
1109,E-4,98.5,0.125,93,114.0
1110,B3,98.5,0.125,93,114.0
1111,F#4,98.5,0.125,93,114.0
1112,F#2,98.729,167/1000,70,114.0
1113,F#2,98.745,0.062,114,114.0
1114,B2,99.0,73/500,70,114.0
1115,E-4,99.0,0.469,122,114.0
1116,F#4,99.0,0.469,122,114.0
1117,A3,99.0,0.469,122,114.0
1118,E2,99.005,0.062,127,114.0
1119,F#2,99.005,0.062,114,114.0
1120,E-4,99.25,0.125,93,114.0
1121,B3,99.25,0.125,93,114.0
1122,F#4,99.25,0.125,93,114.0
1123,B2,99.49,0.156,70,114.0
1124,F#2,99.495,0.062,114,114.0
1125,F#2,99.75,0.062,114,114.0
1126,B2,99.76,27/200,70,114.0
1127,E4,100.0,0.5,93,114.0
1128,B3,100.0,0.5,93,114.0
1129,G3,100.0,0.5,93,114.0
1130,B3,100.0,0.75,121,114.0
1131,G3,100.0,0.75,121,114.0
1132,E4,100.0,0.75,121,114.0
1133,C2,100.005,0.062,127,114.0
1134,F#2,100.005,0.062,114,114.0
1135,E1,100.021,0.125,70,114.0
1136,F#2,100.5,0.062,114,114.0
1137,E1,100.5,73/500,70,114.0
1138,E1,100.74,0.156,70,114.0
1139,F#2,100.745,0.062,114,114.0
1140,B3,100.75,0.125,93,114.0
1141,G3,100.75,0.125,93,114.0
1142,E4,100.75,0.125,93,114.0
1143,G1,100.99,0.156,70,114.0
1144,G3,101.0,0.125,93,114.0
1145,B3,101.0,0.125,93,114.0
1146,E4,101.0,0.125,93,114.0
1147,E2,101.005,0.062,127,114.0
1148,F#2,101.005,0.062,114,114.0
1149,F#2,101.495,0.062,114,114.0
1150,G1,101.5,73/500,70,114.0
1151,G3,101.5,0.125,93,114.0
1152,B3,101.5,0.125,93,114.0
1153,E4,101.5,0.125,93,114.0
1154,F#2,101.745,0.062,114,114.0
1155,G1,101.75,73/500,70,114.0
1156,B3,101.75,0.125,93,114.0
1157,G3,101.75,0.125,93,114.0
1158,E4,101.75,0.125,93,114.0
1159,B1,102.0,73/500,70,114.0
1160,E2,102.01,0.062,127,114.0
1161,F#2,102.01,0.062,114,114.0
1162,A1,102.49,56/125,66,114.0
1163,C2,102.5,0.062,127,114.0
1164,B-2,102.5,0.062,114,114.0
1165,E4,102.5,0.5,93,114.0
1166,B3,102.5,0.5,93,114.0
1167,G3,102.5,0.5,93,114.0
1168,G3,102.5,0.672,112,114.0
1169,E4,102.5,0.672,112,114.0
1170,G3,103.25,0.5,93,114.0
1171,E4,103.25,0.5,93,114.0
1172,B3,103.25,0.5,93,114.0
1173,A3,103.25,677/1000,103,114.0
1174,F#4,103.25,677/1000,103,114.0
1175,B1,103.271,417/1000,66,114.0
1176,E2,103.495,0.062,127,114.0
1177,C#3,103.495,0.062,117,114.0
1178,E3,104.0,83/1000,78,114.0
1179,B3,104.0,51/200,103,114.0
1180,G4,104.0,3.734,105,114.0
1181,E4,104.0,3.734,105,114.0
1182,B3,104.0,3.734,105,114.0
1183,C2,104.01,27/200,70,114.0
1184,C2,104.016,0.062,127,114.0
1185,C#3,104.016,0.062,117,114.0
1186,E4,104.25,83/1000,78,114.0
1187,C4,104.25,6/25,69,114.0
1188,F#2,104.255,0.062,114,114.0
1189,E4,104.5,83/1000,78,114.0
1190,E4,104.5,49/200,89,114.0
1191,B-2,104.51,0.062,114,114.0
1192,C2,104.521,0.125,70,114.0
1193,E3,104.75,83/1000,78,114.0
1194,B3,104.75,69/250,88,114.0
1195,F#2,104.76,0.062,114,114.0
1196,C2,104.771,0.125,70,114.0
1197,E4,105.0,83/1000,78,114.0
1198,C4,105.0,151/500,88,114.0
1199,E2,105.0,73/500,70,114.0
1200,E2,105.021,0.062,127,114.0
1201,F#2,105.021,0.062,114,114.0
1202,E4,105.25,83/1000,78,114.0
1203,E4,105.25,0.203,73,114.0
1204,F#2,105.255,0.062,114,114.0
1205,E3,105.5,83/1000,78,114.0
1206,B3,105.5,0.328,86,114.0
1207,E2,105.5,73/500,70,114.0
1208,B-2,105.51,0.062,114,114.0
1209,E4,105.75,83/1000,78,114.0
1210,C4,105.75,0.281,85,114.0
1211,E2,105.75,73/500,70,114.0
1212,F#2,105.755,0.062,114,114.0
1213,E3,106.0,83/1000,78,114.0
1214,E4,106.0,49/200,83,114.0
1215,G2,106.0,73/500,70,114.0
1216,C2,106.016,0.062,127,114.0
1217,F#2,106.016,0.062,114,114.0
1218,E4,106.25,83/1000,78,114.0
1219,B3,106.25,339/1000,80,114.0
1220,F#2,106.26,0.062,114,114.0
1221,E4,106.5,83/1000,78,114.0
1222,C4,106.5,69/250,69,114.0
1223,B-2,106.505,0.062,114,114.0
1224,G2,106.51,27/200,70,114.0
1225,E3,106.75,83/1000,78,114.0
1226,E4,106.75,6/25,80,114.0
1227,G2,106.75,73/500,70,114.0
1228,F#2,106.755,0.062,114,114.0
1229,E4,107.0,83/1000,78,114.0
1230,B3,107.0,0.312,96,114.0
1231,C3,107.0,73/500,70,114.0
1232,E2,107.005,0.062,127,114.0
1233,F#2,107.021,0.062,114,114.0
1234,E3,107.25,83/1000,78,114.0
1235,C4,107.25,0.281,76,114.0
1236,F#2,107.26,0.062,114,114.0
1237,B-2,107.495,0.062,114,114.0
1238,E4,107.5,83/1000,78,114.0
1239,E4,107.5,0.234,78,114.0
1240,C3,107.5,73/500,70,114.0
1241,C3,107.74,0.156,70,114.0
1242,F#2,107.745,0.062,114,114.0
1243,E4,107.75,83/1000,78,114.0
1244,B3,107.75,0.25,89,114.0
1245,A2,108.0,83/1000,78,114.0
1246,E4,108.0,3.641,87,114.0
1247,G4,108.0,3.922,95,114.0
1248,B3,108.0,749/200,95,114.0
1249,C4,108.0,69/250,86,114.0
1250,B3,108.0,0.078,89,114.0
1251,A1,108.01,27/200,70,114.0
1252,C2,108.016,0.062,127,114.0
1253,F#2,108.016,0.062,114,114.0
1254,F#2,108.245,0.062,114,114.0
1255,A3,108.25,83/1000,78,114.0
1256,E4,108.25,49/200,76,114.0
1257,A3,108.5,83/1000,78,114.0
1258,B3,108.5,0.312,94,114.0
1259,A1,108.5,73/500,70,114.0
1260,B-2,108.51,0.062,114,114.0
1261,F#2,108.745,0.062,114,114.0
1262,A2,108.75,83/1000,78,114.0
1263,C4,108.75,0.312,76,114.0
1264,A1,108.75,73/500,70,114.0
1265,A3,109.0,83/1000,78,114.0
1266,E4,109.0,49/200,89,114.0
1267,E2,109.005,0.062,127,114.0
1268,F#2,109.005,0.062,114,114.0
1269,C2,109.01,27/200,70,114.0
1270,F#2,109.245,0.062,114,114.0
1271,A2,109.25,83/1000,78,114.0
1272,B3,109.25,0.344,89,114.0
1273,B-2,109.495,0.062,114,114.0
1274,A3,109.5,83/1000,78,114.0
1275,C4,109.5,271/1000,86,114.0
1276,C2,109.51,27/200,70,114.0
1277,F#2,109.745,0.062,114,114.0
1278,A3,109.75,83/1000,78,114.0
1279,E4,109.75,51/200,88,114.0
1280,C2,109.75,73/500,70,114.0
1281,A2,110.0,83/1000,78,114.0
1282,B3,110.0,333/1000,96,114.0
1283,C2,110.005,0.062,127,114.0
1284,F#2,110.005,0.062,114,114.0
1285,E2,110.021,0.125,70,114.0
1286,F#2,110.245,0.062,114,114.0
1287,A3,110.25,83/1000,78,114.0
1288,C4,110.25,69/250,75,114.0
1289,B-2,110.495,0.062,114,114.0
1290,A3,110.5,83/1000,78,114.0
1291,E4,110.5,51/200,88,114.0
1292,E2,110.5,73/500,70,114.0
1293,E2,110.74,0.156,70,114.0
1294,F#2,110.75,0.062,114,114.0
1295,A2,110.75,83/1000,78,114.0
1296,B3,110.75,143/500,103,114.0
1297,E2,111.0,0.062,127,114.0
1298,F#2,111.0,0.062,114,114.0
1299,A3,111.0,83/1000,78,114.0
1300,C4,111.0,0.297,83,114.0
1301,A2,111.021,0.125,70,114.0
1302,F#2,111.245,0.062,114,114.0
1303,A2,111.25,83/1000,78,114.0
1304,E4,111.25,49/200,99,114.0
1305,B-2,111.495,0.062,114,114.0
1306,A3,111.5,83/1000,78,114.0
1307,B3,111.5,143/500,96,114.0
1308,A2,111.5,73/500,70,114.0
1309,F#2,111.75,0.062,114,114.0
1310,A3,111.75,83/1000,78,114.0
1311,C4,111.75,26/125,87,114.0
1312,A2,111.75,73/500,70,114.0
1313,B2,112.0,83/1000,78,114.0
1314,B3,112.0,229/1000,111,114.0
1315,E-4,112.0,3.719,98,114.0
1316,F#4,112.0,3.719,98,114.0
1317,A3,112.0,3.719,98,114.0
1318,C2,112.016,0.062,127,114.0
1319,F#2,112.016,0.062,114,114.0
1320,B1,112.021,0.125,70,114.0
1321,F#2,112.245,0.062,114,114.0
1322,B3,112.25,83/1000,78,114.0
1323,E-4,112.25,0.25,103,114.0
1324,B-2,112.495,0.062,114,114.0
1325,B3,112.5,83/1000,78,114.0
1326,F#4,112.5,107/500,114,114.0
1327,B1,112.5,73/500,70,114.0
1328,B1,112.729,167/1000,70,114.0
1329,F#2,112.734,0.062,114,114.0
1330,B2,112.75,83/1000,78,114.0
1331,B3,112.75,177/500,101,114.0
1332,E-2,112.99,0.156,70,114.0
1333,B3,113.0,83/1000,78,114.0
1334,E-4,113.0,69/250,96,114.0
1335,E2,113.005,0.062,127,114.0
1336,F#2,113.005,0.062,114,114.0
1337,F#2,113.25,0.062,114,114.0
1338,B2,113.25,83/1000,78,114.0
1339,F#4,113.25,26/125,93,114.0
1340,B-2,113.5,0.062,114,114.0
1341,B3,113.5,83/1000,78,114.0
1342,B3,113.5,0.328,89,114.0
1343,E-2,113.521,0.125,70,114.0
1344,F#2,113.745,0.062,114,114.0
1345,B3,113.75,83/1000,78,114.0
1346,E-4,113.75,307/1000,99,114.0
1347,E-2,113.75,73/500,70,114.0
1348,B2,114.0,83/1000,78,114.0
1349,F#4,114.0,0.234,99,114.0
1350,F#2,114.0,73/500,70,114.0
1351,C2,114.005,0.062,127,114.0
1352,F#2,114.021,0.062,114,114.0
1353,F#2,114.25,0.062,114,114.0
1354,B3,114.25,83/1000,78,114.0
1355,B3,114.25,339/1000,101,114.0
1356,F#2,114.49,0.156,70,114.0
1357,B-2,114.495,0.062,114,114.0
1358,B3,114.5,83/1000,78,114.0
1359,E-4,114.5,0.281,97,114.0
1360,F#2,114.75,0.062,114,114.0
1361,B2,114.75,83/1000,78,114.0
1362,F#4,114.75,0.219,103,114.0
1363,F#2,114.75,73/500,70,114.0
1364,B3,115.0,83/1000,78,114.0
1365,B3,115.0,19/50,106,114.0
1366,B2,115.0,73/500,70,114.0
1367,E2,115.005,0.062,127,114.0
1368,F#2,115.005,0.062,114,114.0
1369,F#2,115.245,0.062,114,114.0
1370,B2,115.25,83/1000,78,114.0
1371,E-4,115.25,51/200,103,114.0
1372,B-2,115.495,0.062,114,114.0
1373,B3,115.5,83/1000,78,114.0
1374,F#4,115.5,99/500,110,114.0
1375,B2,115.5,73/500,70,114.0
1376,B2,115.74,0.156,70,114.0
1377,F#2,115.75,0.062,114,114.0
1378,B3,115.75,83/1000,78,114.0
1379,E-4,115.75,91/500,92,114.0
1380,E1,115.99,1/100,70,114.0
1381,E3,116.0,83/1000,78,114.0
1382,G3,116.0,151/500,96,114.0
1383,E1,116.0,73/500,70,114.0
1384,G4,116.0,2.234,95,114.0
1385,E4,116.0,2.234,95,114.0
1386,B3,116.0,2.234,95,114.0
1387,C2,116.016,0.062,127,114.0
1388,F#2,116.016,0.062,114,114.0
1389,E4,116.25,83/1000,78,114.0
1390,B3,116.25,0.297,94,114.0
1391,F#2,116.5,0.062,114,114.0
1392,E4,116.5,83/1000,78,114.0
1393,E4,116.5,28/125,106,114.0
1394,E1,116.5,73/500,70,114.0
1395,F#2,116.75,0.062,114,114.0
1396,E3,116.75,83/1000,78,114.0
1397,G3,116.75,177/500,81,114.0
1398,E1,116.75,73/500,70,114.0
1399,E4,117.0,83/1000,78,114.0
1400,B3,117.0,0.234,106,114.0
1401,G1,117.0,73/500,70,114.0
1402,E2,117.005,0.062,127,114.0
1403,F#2,117.005,0.062,114,114.0
1404,E3,117.25,83/1000,78,114.0
1405,E4,117.25,323/1000,88,114.0
1406,G1,117.49,0.156,70,114.0
1407,F#2,117.5,0.062,114,114.0
1408,G3,117.5,0.312,88,114.0
1409,E4,117.5,83/1000,78,114.0
1410,F#4,117.5,83/1000,78,114.0
1411,F#2,117.75,0.062,114,114.0
1412,E4,117.75,83/1000,78,114.0
1413,B3,117.75,271/1000,78,114.0
1414,G1,117.76,27/200,70,114.0
1415,E3,118.0,83/1000,78,114.0
1416,E4,118.0,69/250,92,114.0
1417,B1,118.0,73/500,70,114.0
1418,E2,118.005,0.062,127,114.0
1419,F#2,118.005,0.062,114,114.0
1420,E4,118.25,83/1000,78,114.0
1421,G3,118.25,339/1000,92,114.0
1422,C2,118.5,0.062,127,114.0
1423,B-2,118.5,0.062,114,114.0
1424,E4,118.5,83/1000,78,114.0
1425,B3,118.5,143/500,92,114.0
1426,B1,118.5,73/500,70,114.0
1427,G3,118.5,341/500,106,114.0
1428,E4,118.5,341/500,106,114.0
1429,B1,118.74,0.156,70,114.0
1430,E3,118.75,83/1000,78,114.0
1431,E4,118.75,159/500,96,114.0
1432,E4,119.0,83/1000,78,114.0
1433,G3,119.0,177/500,94,114.0
1434,E2,119.021,0.125,70,114.0
1435,E3,119.25,83/1000,78,114.0
1436,B3,119.25,0.312,88,114.0
1437,A3,119.25,0.672,104,114.0
1438,F#4,119.25,0.672,104,114.0
1439,E2,119.5,0.062,127,114.0
1440,C#3,119.5,0.062,117,114.0
1441,E4,119.5,83/1000,78,114.0
1442,E4,119.5,151/500,89,114.0
1443,E2,119.5,73/500,70,114.0
1444,E4,119.75,83/1000,78,114.0
1445,G3,119.75,167/1000,89,114.0
1446,E2,119.75,73/500,70,114.0
1447,C2,120.0,0.062,127,114.0
1448,C3,120.0,83/1000,78,114.0
1449,B3,120.0,0.297,93,114.0
1450,G4,120.0,1909/500,94,114.0
1451,E4,120.0,1909/500,94,114.0
1452,B3,120.0,1909/500,94,114.0
1453,C2,120.01,27/200,70,114.0
1454,C#3,120.016,0.062,117,114.0
1455,F#2,120.036,0.062,114,114.0
1456,F#2,120.245,0.062,114,114.0
1457,C4,120.25,83/1000,78,114.0
1458,C4,120.25,229/1000,70,114.0
1459,B-2,120.5,0.062,114,114.0
1460,C4,120.5,83/1000,78,114.0
1461,E4,120.5,51/200,81,114.0
1462,C2,120.51,27/200,70,114.0
1463,E4,120.547,271/1000,127,114.0
1464,E5,120.547,271/1000,127,114.0
1465,F#2,120.75,0.062,114,114.0
1466,C3,120.75,83/1000,78,114.0
1467,B3,120.75,0.328,101,114.0
1468,D4,120.75,229/1000,127,114.0
1469,D5,120.75,229/1000,127,114.0
1470,C2,120.76,27/200,70,114.0
1471,E2,120.99,0.156,70,114.0
1472,C4,121.0,83/1000,78,114.0
1473,C4,121.0,13/50,85,114.0
1474,E2,121.005,0.062,127,114.0
1475,F#2,121.005,0.062,114,114.0
1476,F#2,121.25,0.062,114,114.0
1477,C3,121.25,83/1000,78,114.0
1478,E4,121.25,0.25,86,114.0
1479,D4,121.26,0.281,127,114.0
1480,D5,121.266,99/500,127,114.0
1481,B4,121.469,99/500,127,114.0
1482,B3,121.469,99/500,127,114.0
1483,B-2,121.5,0.062,114,114.0
1484,C4,121.5,83/1000,78,114.0
1485,B3,121.5,323/1000,96,114.0
1486,E2,121.521,0.125,70,114.0
1487,F#2,121.745,0.062,114,114.0
1488,C4,121.75,83/1000,78,114.0
1489,C4,121.75,13/50,81,114.0
1490,E2,121.771,0.125,70,114.0
1491,A3,121.99,193/1000,127,114.0
1492,A4,121.99,193/1000,127,114.0
1493,C3,122.0,83/1000,78,114.0
1494,E4,122.0,143/500,80,114.0
1495,C2,122.016,0.062,127,114.0
1496,F#2,122.016,0.062,114,114.0
1497,G2,122.021,0.125,70,114.0
1498,F#2,122.25,0.062,114,114.0
1499,C4,122.25,83/1000,78,114.0
1500,B3,122.25,177/500,78,114.0
1501,G3,122.458,0.203,127,114.0
1502,G4,122.458,0.203,127,114.0
1503,B-2,122.49,0.062,114,114.0
1504,G2,122.49,0.156,70,114.0
1505,C4,122.5,83/1000,78,114.0
1506,C4,122.5,143/500,74,114.0
1507,F#2,122.75,0.062,114,114.0
1508,C3,122.75,83/1000,78,114.0
1509,E4,122.75,0.281,71,114.0
1510,G2,122.75,73/500,70,114.0
1511,C4,123.0,83/1000,78,114.0
1512,B3,123.0,339/1000,96,114.0
1513,C3,123.0,73/500,70,114.0
1514,E2,123.01,0.062,127,114.0
1515,F#2,123.01,0.062,114,114.0
1516,F#2,123.25,0.062,114,114.0
1517,C3,123.25,83/1000,78,114.0
1518,C4,123.25,151/500,65,114.0
1519,C4,123.5,83/1000,78,114.0
1520,E4,123.5,0.234,76,114.0
1521,C3,123.5,73/500,70,114.0
1522,B-2,123.51,0.062,114,114.0
1523,C4,123.75,83/1000,78,114.0
1524,B3,123.75,0.25,83,114.0
1525,C3,123.75,73/500,70,114.0
1526,F#2,123.766,0.062,114,114.0
1527,A1,123.99,1/100,70,114.0
1528,A2,124.0,83/1000,78,114.0
1529,C4,124.0,13/50,64,114.0
1530,B3,124.0,89/1000,83,114.0
1531,A1,124.0,73/500,70,114.0
1532,B3,124.0,1763/500,95,114.0
1533,E4,124.0,1763/500,95,114.0
1534,G4,124.0,1763/500,95,114.0
1535,C2,124.01,0.062,127,114.0
1536,F#2,124.016,0.062,114,114.0
1537,C#3,124.026,0.062,117,114.0
1538,F#2,124.245,0.062,114,114.0
1539,A3,124.25,83/1000,78,114.0
1540,E4,124.25,73/250,72,114.0
1541,B-2,124.5,0.062,114,114.0
1542,A3,124.5,83/1000,78,114.0
1543,B3,124.5,349/1000,94,114.0
1544,A1,124.5,73/500,70,114.0
1545,E4,124.505,271/1000,127,114.0
1546,E5,124.505,271/1000,127,114.0
1547,D5,124.724,0.203,127,114.0
1548,D4,124.724,0.203,127,114.0
1549,F#2,124.745,0.062,114,114.0
1550,A2,124.75,83/1000,78,114.0
1551,C4,124.75,151/500,73,114.0
1552,A1,124.75,73/500,70,114.0
1553,A3,125.0,83/1000,78,114.0
1554,E4,125.0,0.25,81,114.0
1555,C2,125.0,73/500,70,114.0
1556,E2,125.005,0.062,127,114.0
1557,F#2,125.005,0.062,114,114.0
1558,F#2,125.245,0.062,114,114.0
1559,A2,125.25,83/1000,78,114.0
1560,B3,125.25,0.328,86,114.0
1561,D5,125.25,229/1000,127,114.0
1562,D4,125.255,151/500,127,114.0
1563,C2,125.49,0.156,70,114.0
1564,B-2,125.495,0.062,114,114.0
1565,A3,125.5,83/1000,78,114.0
1566,C4,125.5,143/500,71,114.0
1567,B3,125.5,91/500,127,114.0
1568,B4,125.5,91/500,127,114.0
1569,F#2,125.75,0.062,114,114.0
1570,A3,125.75,83/1000,78,114.0
1571,E4,125.75,73/250,74,114.0
1572,C2,125.76,27/200,70,114.0
1573,A3,125.979,0.266,127,114.0
1574,A4,125.979,0.266,127,114.0
1575,A2,126.0,83/1000,78,114.0
1576,B3,126.0,99/250,86,114.0
1577,C2,126.005,0.062,127,114.0
1578,F#2,126.016,0.062,114,114.0
1579,E2,126.021,0.125,70,114.0
1580,B3,126.182,0.219,127,114.0
1581,B4,126.182,0.219,127,114.0
1582,F#2,126.245,0.062,114,114.0
1583,A3,126.25,83/1000,78,114.0
1584,C4,126.25,0.281,67,114.0
1585,G3,126.448,51/200,127,114.0
1586,G4,126.448,51/200,127,114.0
1587,B-2,126.5,0.062,114,114.0
1588,A3,126.5,83/1000,78,114.0
1589,E4,126.5,0.25,75,114.0
1590,E2,126.5,73/500,70,114.0
1591,F#2,126.745,0.062,114,114.0
1592,A2,126.75,83/1000,78,114.0
1593,B3,126.75,177/500,94,114.0
1594,E2,126.75,73/500,70,114.0
1595,E2,126.995,0.062,127,114.0
1596,F#2,126.995,0.062,114,114.0
1597,A3,127.0,83/1000,78,114.0
1598,C4,127.0,307/1000,78,114.0
1599,A2,127.01,27/200,70,114.0
1600,F#2,127.25,0.062,114,114.0
1601,A2,127.25,83/1000,78,114.0
1602,E4,127.25,49/200,78,114.0
1603,B-2,127.5,0.062,114,114.0
1604,A3,127.5,83/1000,78,114.0
1605,B3,127.5,307/1000,94,114.0
1606,A2,127.51,27/200,70,114.0
1607,F#2,127.75,0.062,114,114.0
1608,A3,127.75,83/1000,78,114.0
1609,C4,127.75,91/500,68,114.0
1610,A2,127.75,73/500,70,114.0
1611,G5,127.974,13/500,127,114.0
1612,B4,127.974,13/500,127,114.0
1613,B5,127.974,13/500,127,114.0
1614,E-5,127.974,13/500,127,114.0
1615,B2,128.0,83/1000,78,114.0
1616,B3,128.0,0.312,116,114.0
1617,B3,128.0,0.562,116,114.0
1618,E-4,128.0,0.562,116,114.0
1619,G4,128.0,0.562,116,114.0
1620,G5,128.0,58/125,127,114.0
1621,B4,128.0,58/125,127,114.0
1622,B5,128.0,58/125,127,114.0
1623,E-5,128.0,58/125,127,114.0
1624,C2,128.005,0.062,127,114.0
1625,F#2,128.005,0.062,114,114.0
1626,B1,128.01,27/200,70,114.0
1627,C#3,128.031,0.062,117,114.0
1628,F#2,128.245,0.062,114,114.0
1629,B3,128.25,83/1000,78,114.0
1630,E-4,128.25,13/50,97,114.0
1631,B1,128.49,0.156,70,114.0
1632,B-2,128.495,0.062,114,114.0
1633,B3,128.5,83/1000,78,114.0
1634,F#4,128.5,0.25,95,114.0
1635,B5,128.62,229/1000,127,114.0
1636,E-5,128.62,229/1000,127,114.0
1637,B4,128.62,229/1000,127,114.0
1638,G5,128.62,229/1000,127,114.0
1639,B3,128.667,49/200,116,114.0
1640,E-4,128.667,49/200,116,114.0
1641,G4,128.667,49/200,116,114.0
1642,F#2,128.745,0.062,114,114.0
1643,B2,128.75,83/1000,78,114.0
1644,B3,128.75,417/1000,88,114.0
1645,B1,128.771,0.125,70,114.0
1646,B3,129.0,83/1000,78,114.0
1647,E-4,129.0,0.344,95,114.0
1648,E2,129.005,0.062,127,114.0
1649,F#2,129.005,0.062,114,114.0
1650,E-2,129.021,0.125,70,114.0
1651,F#2,129.245,0.062,114,114.0
1652,B2,129.25,83/1000,78,114.0
1653,F#4,129.25,6/25,76,114.0
1654,B-2,129.495,0.062,114,114.0
1655,B3,129.5,83/1000,78,114.0
1656,B3,129.5,37/100,99,114.0
1657,E-2,129.5,73/500,70,114.0
1658,F#2,129.75,0.062,114,114.0
1659,B3,129.75,83/1000,78,114.0
1660,E-4,129.75,0.344,103,114.0
1661,E-2,129.75,73/500,70,114.0
1662,B2,130.0,83/1000,78,114.0
1663,F#4,130.0,26/125,110,114.0
1664,C2,130.021,0.062,127,114.0
1665,F#2,130.021,0.062,114,114.0
1666,F#2,130.021,0.125,70,114.0
1667,F#2,130.25,0.062,114,114.0
1668,B3,130.25,83/1000,78,114.0
1669,B3,130.25,0.328,101,114.0
1670,F#2,130.479,167/1000,70,114.0
1671,B-2,130.5,0.062,114,114.0
1672,B3,130.5,83/1000,78,114.0
1673,E-4,130.5,0.328,99,114.0
1674,F#2,130.74,0.156,70,114.0
1675,F#2,130.745,0.062,114,114.0
1676,B2,130.75,83/1000,78,114.0
1677,F#4,130.75,0.266,97,114.0
1678,B3,131.0,83/1000,78,114.0
1679,B3,131.0,401/1000,96,114.0
1680,B2,131.0,73/500,70,114.0
1681,E2,131.005,0.062,127,114.0
1682,F#2,131.005,0.062,114,114.0
1683,F#2,131.245,0.062,114,114.0
1684,B2,131.25,83/1000,78,114.0
1685,E-4,131.25,271/1000,74,114.0
1686,B-2,131.495,0.062,114,114.0
1687,B3,131.5,83/1000,78,114.0
1688,F#4,131.5,0.188,107,114.0
1689,B2,131.5,73/500,70,114.0
1690,F#2,131.745,0.062,114,114.0
1691,B3,131.75,83/1000,78,114.0
1692,B2,131.75,73/500,70,114.0
1693,E3,132.0,83/1000,78,114.0
1694,E3,132.0,99/500,99,114.0
1695,E1,132.0,73/500,70,114.0
1696,G#3,132.0,151/100,84,114.0
1697,E3,132.0,151/100,84,114.0
1698,C2,132.005,0.062,127,114.0
1699,F#2,132.005,0.062,114,114.0
1700,E4,132.25,83/1000,78,114.0
1701,E3,132.25,0.297,88,114.0
1702,F#2,132.26,0.062,114,114.0
1703,B-2,132.495,0.062,114,114.0
1704,E4,132.5,83/1000,78,114.0
1705,G3,132.5,107/500,76,114.0
1706,E1,132.5,73/500,70,114.0
1707,F#2,132.745,0.062,114,114.0
1708,E3,132.75,83/1000,78,114.0
1709,E3,132.75,49/200,66,114.0
1710,E1,132.75,73/500,70,114.0
1711,E4,133.0,83/1000,78,114.0
1712,A3,133.0,0.234,88,114.0
1713,E1,133.0,73/500,70,114.0
1714,E2,133.005,0.062,127,114.0
1715,F#2,133.01,0.062,114,114.0
1716,F#2,133.245,0.062,114,114.0
1717,E3,133.25,83/1000,78,114.0
1718,E3,133.25,143/500,80,114.0
1719,C2,133.5,0.062,127,114.0
1720,B3,133.5,193/1000,99,114.0
1721,D1,133.5,229/1000,70,114.0
1722,D3,133.5,2.453,84,114.0
1723,A3,133.5,2.453,84,114.0
1724,B-2,133.51,0.062,114,114.0
1725,E3,133.75,91/500,94,114.0
1726,F#2,133.771,0.062,114,114.0
1727,D1,134.0,229/1000,70,114.0
1728,C2,134.031,0.062,127,114.0
1729,F#2,134.036,0.062,114,114.0
1730,D2,135.0,112/125,70,114.0
1731,E2,135.005,0.062,127,114.0
1732,C#3,135.01,0.062,117,114.0
1733,B3,136.0,0.375,93,114.0
1734,G3,136.0,0.375,93,114.0
1735,D4,136.0,0.375,93,114.0
1736,G4,136.0,37/50,105,114.0
1737,B3,136.0,37/50,105,114.0
1738,D4,136.0,37/50,105,114.0
1739,G1,136.021,0.125,70,114.0
1740,C#3,136.026,0.062,117,114.0
1741,C2,136.031,0.062,127,114.0
1742,F#2,136.5,0.062,114,114.0
1743,G1,136.5,73/500,70,114.0
1744,B3,136.5,0.125,93,114.0
1745,D4,136.5,0.125,93,114.0
1746,G3,136.5,0.125,93,114.0
1747,G1,136.74,0.156,70,114.0
1748,F#2,136.75,0.062,114,114.0
1749,B3,136.75,0.125,93,114.0
1750,G3,136.75,0.125,93,114.0
1751,D4,136.75,0.125,93,114.0
1752,E2,136.995,0.062,127,114.0
1753,B1,137.021,0.125,70,114.0
1754,F#2,137.5,0.062,114,114.0
1755,B1,137.5,73/500,70,114.0
1756,D4,137.5,0.125,93,114.0
1757,G3,137.5,0.125,93,114.0
1758,B3,137.5,0.125,93,114.0
1759,F#2,137.75,0.062,114,114.0
1760,B1,137.75,73/500,70,114.0
1761,B4,137.995,401/200,117,114.0
1762,C2,138.01,0.062,127,114.0
1763,D2,138.01,27/200,70,114.0
1764,F#2,138.495,0.062,114,114.0
1765,D4,138.5,0.125,93,114.0
1766,G3,138.5,0.125,93,114.0
1767,B3,138.5,0.125,93,114.0
1768,D2,138.51,27/200,70,114.0
1769,F#2,138.74,0.062,114,114.0
1770,D2,138.76,27/200,70,114.0
1771,G2,138.99,0.156,70,114.0
1772,D4,139.0,56/125,114,114.0
1773,G4,139.0,479/1000,112,114.0
1774,B3,139.0,479/1000,112,114.0
1775,E2,139.005,0.062,127,114.0
1776,D4,139.25,0.125,93,114.0
1777,G3,139.25,0.125,93,114.0
1778,B3,139.25,0.125,93,114.0
1779,F#2,139.495,0.062,114,114.0
1780,G2,139.5,73/500,70,114.0
1781,G2,139.729,167/1000,70,114.0
1782,F#2,139.75,0.062,114,114.0
1783,B4,140.0,4.0,117,114.0
1784,E-4,140.0,0.75,111,114.0
1785,B1,140.0,73/500,70,114.0
1786,B3,140.0,0.5,93,114.0
1787,F#4,140.0,0.5,93,114.0
1788,E-4,140.0,0.5,93,114.0
1789,A3,140.0,667/1000,111,114.0
1790,F#4,140.0,667/1000,111,114.0
1791,C2,140.005,0.062,127,114.0
1792,F#2,140.016,0.062,114,114.0
1793,B1,140.49,0.156,70,114.0
1794,F#2,140.495,0.062,114,114.0
1795,B1,140.729,167/1000,70,114.0
1796,F#2,140.734,0.062,114,114.0
1797,E-4,140.75,0.125,93,114.0
1798,F#4,140.75,0.125,93,114.0
1799,B3,140.75,0.125,93,114.0
1800,E-2,141.0,73/500,70,114.0
1801,B3,141.0,0.125,93,114.0
1802,F#4,141.0,0.125,93,114.0
1803,E-4,141.0,0.125,93,114.0
1804,E2,141.005,0.062,127,114.0
1805,F#2,141.005,0.062,114,114.0
1806,F#2,141.5,0.062,114,114.0
1807,E-2,141.5,73/500,70,114.0
1808,E-4,141.5,0.125,93,114.0
1809,B3,141.5,0.125,93,114.0
1810,F#4,141.5,0.125,93,114.0
1811,E-2,141.729,167/1000,70,114.0
1812,F#2,141.75,0.062,114,114.0
1813,E-4,141.75,0.125,93,114.0
1814,F#4,141.75,0.125,93,114.0
1815,B3,141.75,0.125,93,114.0
1816,F#2,141.99,0.156,70,114.0
1817,C2,142.005,0.062,127,114.0
1818,F#2,142.005,0.062,114,114.0
1819,F#2,142.5,0.062,114,114.0
1820,E-4,142.5,0.125,93,114.0
1821,B3,142.5,0.125,93,114.0
1822,F#4,142.5,0.125,93,114.0
1823,F#2,142.51,27/200,70,114.0
1824,F#2,142.745,0.062,114,114.0
1825,F#2,142.75,73/500,70,114.0
1826,B2,143.0,73/500,70,114.0
1827,A3,143.0,401/1000,115,114.0
1828,E-4,143.0,401/1000,115,114.0
1829,F#4,143.0,401/1000,115,114.0
1830,E2,143.005,0.062,127,114.0
1831,F#2,143.005,0.062,114,114.0
1832,E-4,143.25,0.125,93,114.0
1833,B3,143.25,0.125,93,114.0
1834,F#4,143.25,0.125,93,114.0
1835,B2,143.49,0.156,70,114.0
1836,F#2,143.505,0.062,114,114.0
1837,F#2,143.75,0.062,114,114.0
1838,B2,143.76,27/200,70,114.0
1839,B4,144.0,442/125,117,114.0
1840,E4,144.0,0.5,93,114.0
1841,B3,144.0,0.5,93,114.0
1842,G3,144.0,0.5,93,114.0
1843,G3,144.0,393/500,110,114.0
1844,B3,144.0,393/500,110,114.0
1845,E4,144.0,393/500,110,114.0
1846,C2,144.005,0.062,127,114.0
1847,F#2,144.005,0.062,114,114.0
1848,E1,144.021,0.125,70,114.0
1849,F#2,144.495,0.062,114,114.0
1850,E1,144.5,73/500,70,114.0
1851,F#2,144.75,0.062,114,114.0
1852,E1,144.75,73/500,70,114.0
1853,B3,144.75,0.125,93,114.0
1854,G3,144.75,0.125,93,114.0
1855,E4,144.75,0.125,93,114.0
1856,G3,145.0,0.125,93,114.0
1857,B3,145.0,0.125,93,114.0
1858,E4,145.0,0.125,93,114.0
1859,E2,145.005,0.062,127,114.0
1860,F#2,145.005,0.062,114,114.0
1861,G1,145.01,27/200,70,114.0
1862,F#2,145.5,0.062,114,114.0
1863,G3,145.5,0.125,93,114.0
1864,B3,145.5,0.125,93,114.0
1865,E4,145.5,0.125,93,114.0
1866,G1,145.51,27/200,70,114.0
1867,F#2,145.745,0.062,114,114.0
1868,G1,145.75,73/500,70,114.0
1869,B3,145.75,0.125,93,114.0
1870,G3,145.75,0.125,93,114.0
1871,E4,145.75,0.125,93,114.0
1872,C2,146.005,0.062,127,114.0
1873,F#2,146.01,0.062,114,114.0
1874,B1,146.021,0.125,70,114.0
1875,F#2,146.5,0.062,114,114.0
1876,B1,146.5,73/500,70,114.0
1877,E4,146.5,0.125,93,114.0
1878,B3,146.5,0.125,93,114.0
1879,G3,146.5,0.125,93,114.0
1880,B1,146.729,167/1000,70,114.0
1881,F#2,146.74,0.062,114,114.0
1882,E2,147.0,73/500,70,114.0
1883,B3,147.0,54/125,115,114.0
1884,G3,147.0,54/125,115,114.0
1885,E4,147.0,54/125,115,114.0
1886,E2,147.005,0.062,127,114.0
1887,F#2,147.005,0.062,114,114.0
1888,G3,147.25,0.125,93,114.0
1889,E4,147.25,0.125,93,114.0
1890,B3,147.25,0.125,93,114.0
1891,B-4,147.474,6/25,69,114.0
1892,F#2,147.5,0.062,114,114.0
1893,E2,147.5,73/500,70,114.0
1894,E2,147.729,167/1000,70,114.0
1895,B4,147.74,13/50,80,114.0
1896,F#2,147.745,0.062,114,114.0
1897,C5,147.953,0.047,90,114.0
1898,B4,148.0,13/500,80,114.0
1899,C5,148.0,4.0,90,114.0
1900,C2,148.0,73/500,70,114.0
1901,G4,148.0,0.5,93,114.0
1902,E4,148.0,0.5,93,114.0
1903,C4,148.0,0.5,93,114.0
1904,E4,148.0,181/250,116,114.0
1905,G3,148.0,181/250,116,114.0
1906,C4,148.0,181/250,116,114.0
1907,C2,148.005,0.062,127,114.0
1908,F#2,148.005,0.062,114,114.0
1909,F#2,148.495,0.062,114,114.0
1910,C2,148.5,73/500,70,114.0
1911,F#2,148.74,0.062,114,114.0
1912,C2,148.74,0.156,70,114.0
1913,E4,148.75,0.125,93,114.0
1914,C4,148.75,0.125,93,114.0
1915,G4,148.75,0.125,93,114.0
1916,E2,148.99,0.062,127,114.0
1917,E2,149.0,73/500,70,114.0
1918,E4,149.0,0.125,93,114.0
1919,G4,149.0,0.125,93,114.0
1920,C4,149.0,0.125,93,114.0
1921,F#2,149.005,0.062,114,114.0
1922,F#2,149.495,0.062,114,114.0
1923,E2,149.5,73/500,70,114.0
1924,G4,149.5,0.125,93,114.0
1925,E4,149.5,0.125,93,114.0
1926,C4,149.5,0.125,93,114.0
1927,F#2,149.745,0.062,114,114.0
1928,E2,149.75,73/500,70,114.0
1929,E4,149.75,0.125,93,114.0
1930,C4,149.75,0.125,93,114.0
1931,G4,149.75,0.125,93,114.0
1932,G2,150.0,73/500,70,114.0
1933,C2,150.005,0.062,127,114.0
1934,F#2,150.005,0.062,114,114.0
1935,F#2,150.495,0.062,114,114.0
1936,G4,150.5,0.125,93,114.0
1937,C4,150.5,0.125,93,114.0
1938,E4,150.5,0.125,93,114.0
1939,G2,150.51,27/200,70,114.0
1940,F#2,150.74,0.062,114,114.0
1941,G2,150.76,27/200,70,114.0
1942,C3,151.0,73/500,70,114.0
1943,E4,151.0,0.469,108,114.0
1944,C4,151.0,0.469,108,114.0
1945,G3,151.0,0.469,108,114.0
1946,E2,151.005,0.062,127,114.0
1947,F#2,151.005,0.062,114,114.0
1948,E4,151.25,0.125,93,114.0
1949,G4,151.25,0.125,93,114.0
1950,C4,151.25,0.125,93,114.0
1951,F#2,151.495,0.062,114,114.0
1952,C3,151.5,73/500,70,114.0
1953,C3,151.74,0.156,70,114.0
1954,F#2,151.745,0.062,114,114.0
1955,B4,151.979,21/1000,97,114.0
1956,C5,152.0,23/200,90,114.0
1957,B4,152.0,751/200,97,114.0
1958,B3,152.0,0.375,93,114.0
1959,G3,152.0,0.375,93,114.0
1960,D4,152.0,0.375,93,114.0
1961,G4,152.0,0.656,111,114.0
1962,B3,152.0,0.656,111,114.0
1963,D4,152.0,0.656,111,114.0
1964,C2,152.016,0.062,127,114.0
1965,F#2,152.016,0.062,114,114.0
1966,G1,152.021,0.125,70,114.0
1967,F#2,152.5,0.062,114,114.0
1968,G1,152.5,73/500,70,114.0
1969,B3,152.5,0.125,93,114.0
1970,D4,152.5,0.125,93,114.0
1971,G3,152.5,0.125,93,114.0
1972,G1,152.75,73/500,70,114.0
1973,B3,152.75,0.125,93,114.0
1974,G3,152.75,0.125,93,114.0
1975,D4,152.75,0.125,93,114.0
1976,F#2,152.766,0.062,114,114.0
1977,E2,153.005,0.062,127,114.0
1978,F#2,153.005,0.062,114,114.0
1979,B1,153.01,27/200,70,114.0
1980,D4,153.5,0.125,93,114.0
1981,G3,153.5,0.125,93,114.0
1982,B3,153.5,0.125,93,114.0
1983,F#2,153.505,0.062,114,114.0
1984,B1,153.521,0.125,70,114.0
1985,B1,153.729,167/1000,70,114.0
1986,F#2,153.755,0.062,114,114.0
1987,D2,153.99,0.156,70,114.0
1988,C2,154.01,0.062,127,114.0
1989,F#2,154.021,0.062,114,114.0
1990,D2,154.5,73/500,70,114.0
1991,D4,154.5,0.125,93,114.0
1992,G3,154.5,0.125,93,114.0
1993,B3,154.5,0.125,93,114.0
1994,F#2,154.51,0.062,114,114.0
1995,D2,154.729,167/1000,70,114.0
1996,F#2,154.745,0.062,114,114.0
1997,E2,155.0,0.062,127,114.0
1998,F#2,155.0,0.062,114,114.0
1999,G2,155.0,73/500,70,114.0
2000,D4,155.0,56/125,99,114.0
2001,B3,155.0,56/125,99,114.0
2002,G4,155.0,56/125,99,114.0
2003,D4,155.25,0.125,93,114.0
2004,G3,155.25,0.125,93,114.0
2005,B3,155.25,0.125,93,114.0
2006,G2,155.49,0.156,70,114.0
2007,F#2,155.505,0.062,114,114.0
2008,G2,155.729,167/1000,70,114.0
2009,F#2,155.75,0.062,114,114.0
2010,B1,156.0,73/500,70,114.0
2011,B3,156.0,0.5,93,114.0
2012,F#4,156.0,0.5,93,114.0
2013,E-4,156.0,0.5,93,114.0
2014,A3,156.0,0.609,112,114.0
2015,E-4,156.0,0.609,112,114.0
2016,F#4,156.0,0.609,112,114.0
2017,C2,156.005,0.062,127,114.0
2018,F#2,156.005,0.062,114,114.0
2019,B4,156.099,89/1000,90,114.0
2020,F#2,156.5,0.062,114,114.0
2021,B1,156.5,73/500,70,114.0
2022,F#2,156.74,0.062,114,114.0
2023,B1,156.75,73/500,70,114.0
2024,E-4,156.75,0.125,93,114.0
2025,F#4,156.75,0.125,93,114.0
2026,B3,156.75,0.125,93,114.0
2027,B3,157.0,0.125,93,114.0
2028,F#4,157.0,0.125,93,114.0
2029,E-4,157.0,0.125,93,114.0
2030,E2,157.005,0.062,127,114.0
2031,F#2,157.005,0.062,114,114.0
2032,E-2,157.01,27/200,70,114.0
2033,F#2,157.5,0.062,114,114.0
2034,E-4,157.5,0.125,93,114.0
2035,B3,157.5,0.125,93,114.0
2036,F#4,157.5,0.125,93,114.0
2037,E-2,157.51,27/200,70,114.0
2038,F#2,157.75,0.062,114,114.0
2039,E-2,157.75,73/500,70,114.0
2040,E-4,157.75,0.125,93,114.0
2041,F#4,157.75,0.125,93,114.0
2042,B3,157.75,0.125,93,114.0
2043,F#2,158.0,73/500,70,114.0
2044,C2,158.01,0.062,127,114.0
2045,F#2,158.01,0.062,114,114.0
2046,F#2,158.49,0.156,70,114.0
2047,F#2,158.5,0.062,114,114.0
2048,E-4,158.5,0.125,93,114.0
2049,B3,158.5,0.125,93,114.0
2050,F#4,158.5,0.125,93,114.0
2051,F#2,158.734,0.062,114,114.0
2052,F#2,158.76,27/200,70,114.0
2053,A3,159.0,99/200,111,114.0
2054,E-4,159.0,99/250,116,114.0
2055,F#4,159.0,99/250,116,114.0
2056,E2,159.005,0.062,127,114.0
2057,F#2,159.005,0.062,114,114.0
2058,B2,159.021,0.125,70,114.0
2059,E-4,159.25,0.125,93,114.0
2060,B3,159.25,0.125,93,114.0
2061,F#4,159.25,0.125,93,114.0
2062,B2,159.5,73/500,70,114.0
2063,F#2,159.505,0.062,114,114.0
2064,B2,159.74,0.156,70,114.0
2065,F#2,159.75,0.062,114,114.0
2066,E4,160.0,0.5,93,114.0
2067,B3,160.0,0.5,93,114.0
2068,G3,160.0,0.5,93,114.0
2069,G3,160.0,0.641,119,114.0
2070,E4,160.0,0.641,119,114.0
2071,B3,160.0,0.641,119,114.0
2072,C2,160.005,0.062,127,114.0
2073,F#2,160.005,0.062,114,114.0
2074,E1,160.01,27/200,70,114.0
2075,F#2,160.5,0.062,114,114.0
2076,E1,160.51,27/200,70,114.0
2077,F#2,160.75,0.062,114,114.0
2078,E1,160.75,73/500,70,114.0
2079,B3,160.75,0.125,93,114.0
2080,G3,160.75,0.125,93,114.0
2081,E4,160.75,0.125,93,114.0
2082,G3,161.0,0.125,93,114.0
2083,B3,161.0,0.125,93,114.0
2084,E4,161.0,0.125,93,114.0
2085,E2,161.005,0.062,127,114.0
2086,F#2,161.005,0.062,114,114.0
2087,G1,161.021,0.125,70,114.0
2088,G1,161.49,0.156,70,114.0
2089,F#2,161.495,0.062,114,114.0
2090,G3,161.5,0.125,93,114.0
2091,B3,161.5,0.125,93,114.0
2092,E4,161.5,0.125,93,114.0
2093,F#2,161.75,0.062,114,114.0
2094,B3,161.75,0.125,93,114.0
2095,G3,161.75,0.125,93,114.0
2096,E4,161.75,0.125,93,114.0
2097,G1,161.76,27/200,70,114.0
2098,B1,161.99,0.156,70,114.0
2099,C2,162.01,0.062,127,114.0
2100,F#2,162.01,0.062,114,114.0
2101,F#2,162.495,0.062,114,114.0
2102,B1,162.5,73/500,70,114.0
2103,E4,162.5,0.125,93,114.0
2104,B3,162.5,0.125,93,114.0
2105,G3,162.5,0.125,93,114.0
2106,B1,162.729,167/1000,70,114.0
2107,F#2,162.75,0.062,114,114.0
2108,E2,163.0,73/500,70,114.0
2109,G3,163.0,49/100,108,114.0
2110,B3,163.0,49/100,108,114.0
2111,E4,163.0,49/100,108,114.0
2112,E2,163.01,0.062,127,114.0
2113,F#2,163.01,0.062,114,114.0
2114,G3,163.25,0.125,93,114.0
2115,E4,163.25,0.125,93,114.0
2116,B3,163.25,0.125,93,114.0
2117,B-4,163.458,99/500,86,114.0
2118,E2,163.49,0.156,70,114.0
2119,F#2,163.5,0.062,114,114.0
2120,B4,163.703,73/250,90,114.0
2121,E2,163.729,167/1000,70,114.0
2122,F#2,163.745,0.062,114,114.0
2123,C5,163.922,0.078,107,114.0
2124,C5,164.0,3.984,107,114.0
2125,C2,164.0,73/500,70,114.0
2126,G4,164.0,0.5,93,114.0
2127,E4,164.0,0.5,93,114.0
2128,C4,164.0,0.5,93,114.0
2129,G3,164.0,0.781,117,114.0
2130,C4,164.0,0.781,117,114.0
2131,E4,164.0,0.781,117,114.0
2132,C2,164.005,0.062,127,114.0
2133,F#2,164.005,0.062,114,114.0
2134,C2,164.5,73/500,70,114.0
2135,F#2,164.51,0.062,114,114.0
2136,F#2,164.745,0.062,114,114.0
2137,C2,164.75,73/500,70,114.0
2138,E4,164.75,0.125,93,114.0
2139,C4,164.75,0.125,93,114.0
2140,G4,164.75,0.125,93,114.0
2141,E2,165.0,73/500,70,114.0
2142,E4,165.0,0.125,93,114.0
2143,G4,165.0,0.125,93,114.0
2144,C4,165.0,0.125,93,114.0
2145,E2,165.005,0.062,127,114.0
2146,F#2,165.016,0.062,114,114.0
2147,G4,165.5,0.125,93,114.0
2148,E4,165.5,0.125,93,114.0
2149,C4,165.5,0.125,93,114.0
2150,F#2,165.505,0.062,114,114.0
2151,E2,165.51,27/200,70,114.0
2152,E2,165.75,73/500,70,114.0
2153,E4,165.75,0.125,93,114.0
2154,C4,165.75,0.125,93,114.0
2155,G4,165.75,0.125,93,114.0
2156,F#2,165.76,0.062,114,114.0
2157,C2,166.005,0.062,127,114.0
2158,F#2,166.016,0.062,114,114.0
2159,G2,166.021,0.125,70,114.0
2160,G2,166.5,73/500,70,114.0
2161,G4,166.5,0.125,93,114.0
2162,C4,166.5,0.125,93,114.0
2163,E4,166.5,0.125,93,114.0
2164,F#2,166.505,0.062,114,114.0
2165,G2,166.74,0.156,70,114.0
2166,F#2,166.755,0.062,114,114.0
2167,E4,167.0,0.484,120,114.0
2168,C4,167.0,0.484,120,114.0
2169,G3,167.0,0.484,120,114.0
2170,E2,167.01,0.062,127,114.0
2171,C3,167.01,27/200,70,114.0
2172,F#2,167.021,0.062,114,114.0
2173,E4,167.25,0.125,93,114.0
2174,G4,167.25,0.125,93,114.0
2175,C4,167.25,0.125,93,114.0
2176,C3,167.5,73/500,70,114.0
2177,F#2,167.51,0.062,114,114.0
2178,F#2,167.745,0.062,114,114.0
2179,C3,167.75,73/500,70,114.0
2180,B4,167.958,21/500,82,114.0
2181,B4,168.0,272/25,82,114.0
2182,B3,168.0,0.375,93,114.0
2183,G3,168.0,0.375,93,114.0
2184,D4,168.0,0.375,93,114.0
2185,D4,168.0,127/200,109,114.0
2186,G4,168.0,127/200,109,114.0
2187,B3,168.0,127/200,109,114.0
2188,G1,168.01,27/200,70,114.0
2189,C2,168.016,0.062,127,114.0
2190,F#2,168.016,0.062,114,114.0
2191,B3,168.5,0.125,93,114.0
2192,D4,168.5,0.125,93,114.0
2193,G3,168.5,0.125,93,114.0
2194,F#2,168.505,0.062,114,114.0
2195,G1,168.51,27/200,70,114.0
2196,G1,168.75,73/500,70,114.0
2197,B3,168.75,0.125,93,114.0
2198,G3,168.75,0.125,93,114.0
2199,D4,168.75,0.125,93,114.0
2200,F#2,168.771,0.062,114,114.0
2201,E2,169.01,0.062,127,114.0
2202,F#2,169.021,0.062,114,114.0
2203,B1,169.021,0.125,70,114.0
2204,B1,169.49,0.156,70,114.0
2205,D4,169.5,0.125,93,114.0
2206,G3,169.5,0.125,93,114.0
2207,B3,169.5,0.125,93,114.0
2208,F#2,169.505,0.062,114,114.0
2209,B1,169.74,0.156,70,114.0
2210,F#2,169.76,0.062,114,114.0
2211,D2,170.0,73/500,70,114.0
2212,D5,170.005,399/200,92,114.0
2213,C2,170.01,0.062,127,114.0
2214,F#2,170.021,0.062,114,114.0
2215,D4,170.5,0.125,93,114.0
2216,G3,170.5,0.125,93,114.0
2217,B3,170.5,0.125,93,114.0
2218,F#2,170.521,0.062,114,114.0
2219,D2,170.521,0.125,70,114.0
2220,D2,170.729,167/1000,70,114.0
2221,F#2,170.745,0.062,114,114.0
2222,G4,171.0,0.562,111,114.0
2223,G2,171.0,73/500,70,114.0
2224,D4,171.0,58/125,120,114.0
2225,B3,171.0,58/125,120,114.0
2226,E2,171.005,0.062,127,114.0
2227,F#2,171.016,0.062,114,114.0
2228,D4,171.25,0.125,93,114.0
2229,G3,171.25,0.125,93,114.0
2230,B3,171.25,0.125,93,114.0
2231,F#2,171.49,0.062,114,114.0
2232,G2,171.5,73/500,70,114.0
2233,G2,171.729,167/1000,70,114.0
2234,F#2,171.75,0.062,114,114.0
2235,E-5,171.984,0.016,109,114.0
2236,B1,171.99,1/100,70,114.0
2237,B1,172.0,73/500,70,114.0
2238,B3,172.0,0.5,93,114.0
2239,F#4,172.0,0.5,93,114.0
2240,E-4,172.0,0.5,93,114.0
2241,A3,172.0,693/1000,116,114.0
2242,E-4,172.0,693/1000,116,114.0
2243,F#4,172.0,693/1000,116,114.0
2244,C2,172.005,0.062,127,114.0
2245,F#2,172.005,0.062,114,114.0
2246,F#2,172.5,0.062,114,114.0
2247,B1,172.51,27/200,70,114.0
2248,F#2,172.745,0.062,114,114.0
2249,B1,172.75,73/500,70,114.0
2250,E-4,172.75,0.125,93,114.0
2251,F#4,172.75,0.125,93,114.0
2252,B3,172.75,0.125,93,114.0
2253,E-2,173.0,73/500,70,114.0
2254,B3,173.0,0.125,93,114.0
2255,F#4,173.0,0.125,93,114.0
2256,E-4,173.0,0.125,93,114.0
2257,E2,173.005,0.062,127,114.0
2258,F#2,173.016,0.062,114,114.0
2259,E-2,173.49,0.156,70,114.0
2260,F#2,173.495,0.062,114,114.0
2261,E-4,173.5,0.125,93,114.0
2262,B3,173.5,0.125,93,114.0
2263,F#4,173.5,0.125,93,114.0
2264,F#2,173.75,0.062,114,114.0
2265,E-4,173.75,0.125,93,114.0
2266,F#4,173.75,0.125,93,114.0
2267,B3,173.75,0.125,93,114.0
2268,E-2,173.76,27/200,70,114.0
2269,C2,174.01,0.062,127,114.0
2270,F#2,174.01,0.062,114,114.0
2271,F#2,174.021,0.125,70,114.0
2272,F#2,174.5,0.062,114,114.0
2273,F#2,174.5,73/500,70,114.0
2274,E-4,174.5,0.125,93,114.0
2275,B3,174.5,0.125,93,114.0
2276,F#4,174.5,0.125,93,114.0
2277,F#2,174.74,0.062,114,114.0
2278,F#2,174.74,0.156,70,114.0
2279,A3,175.0,417/1000,120,114.0
2280,E-4,175.0,417/1000,120,114.0
2281,F#4,175.0,417/1000,120,114.0
2282,E2,175.005,0.062,127,114.0
2283,B2,175.01,27/200,70,114.0
2284,F#2,175.016,0.062,114,114.0
2285,E-4,175.25,0.125,93,114.0
2286,B3,175.25,0.125,93,114.0
2287,F#4,175.25,0.125,93,114.0
2288,F#2,175.495,0.062,114,114.0
2289,B2,175.5,73/500,70,114.0
2290,B2,175.75,73/500,70,114.0
2291,F#2,175.755,0.062,114,114.0
2292,E4,176.0,0.5,93,114.0
2293,B3,176.0,0.5,93,114.0
2294,G3,176.0,0.5,93,114.0
2295,G3,176.0,151/200,118,114.0
2296,B3,176.0,151/200,118,114.0
2297,E4,176.0,151/200,118,114.0
2298,C2,176.005,0.062,127,114.0
2299,F#2,176.005,0.062,114,114.0
2300,E1,176.021,0.125,70,114.0
2301,F#2,176.495,0.062,114,114.0
2302,E1,176.5,73/500,70,114.0
2303,E1,176.729,167/1000,70,114.0
2304,F#2,176.734,0.062,114,114.0
2305,B3,176.75,0.125,93,114.0
2306,G3,176.75,0.125,93,114.0
2307,E4,176.75,0.125,93,114.0
2308,G3,177.0,0.125,93,114.0
2309,B3,177.0,0.125,93,114.0
2310,E4,177.0,0.125,93,114.0
2311,E2,177.005,0.062,127,114.0
2312,F#2,177.005,0.062,114,114.0
2313,G1,177.021,0.125,70,114.0
2314,F#2,177.5,0.062,114,114.0
2315,G3,177.5,0.125,93,114.0
2316,B3,177.5,0.125,93,114.0
2317,E4,177.5,0.125,93,114.0
2318,G1,177.521,0.125,70,114.0
2319,G1,177.74,0.156,70,114.0
2320,F#2,177.75,0.062,114,114.0
2321,B3,177.75,0.125,93,114.0
2322,G3,177.75,0.125,93,114.0
2323,E4,177.75,0.125,93,114.0
2324,B1,178.0,73/500,70,114.0
2325,C2,178.005,0.062,127,114.0
2326,F#2,178.005,0.062,114,114.0
2327,B1,178.49,0.156,70,114.0
2328,F#2,178.495,0.062,114,114.0
2329,E4,178.5,0.125,93,114.0
2330,B3,178.5,0.125,93,114.0
2331,G3,178.5,0.125,93,114.0
2332,B1,178.729,167/1000,70,114.0
2333,F#2,178.755,0.062,114,114.0
2334,D5,178.88,0.078,92,114.0
2335,E-5,178.88,4.0,109,114.0
2336,E2,179.0,73/500,70,114.0
2337,G3,179.0,427/1000,120,114.0
2338,E4,179.0,427/1000,120,114.0
2339,B3,179.0,427/1000,120,114.0
2340,E2,179.005,0.062,127,114.0
2341,F#2,179.005,0.062,114,114.0
2342,G3,179.25,0.125,93,114.0
2343,E4,179.25,0.125,93,114.0
2344,B3,179.25,0.125,93,114.0
2345,F#2,179.495,0.062,114,114.0
2346,E2,179.5,73/500,70,114.0
2347,E2,179.729,167/1000,70,114.0
2348,F#2,179.745,0.062,114,114.0
2349,C2,179.99,1/100,70,114.0
2350,C2,180.0,73/500,70,114.0
2351,G4,180.0,0.5,93,114.0
2352,E4,180.0,0.5,93,114.0
2353,C4,180.0,0.5,93,114.0
2354,G3,180.0,409/500,115,114.0
2355,E4,180.0,409/500,115,114.0
2356,C4,180.0,409/500,115,114.0
2357,C2,180.005,0.062,127,114.0
2358,F#2,180.005,0.062,114,114.0
2359,F#2,180.5,0.062,114,114.0
2360,C2,180.51,27/200,70,114.0
2361,F#2,180.745,0.062,114,114.0
2362,C2,180.75,73/500,70,114.0
2363,E4,180.75,0.125,93,114.0
2364,C4,180.75,0.125,93,114.0
2365,G4,180.75,0.125,93,114.0
2366,E2,181.0,73/500,70,114.0
2367,E4,181.0,0.125,93,114.0
2368,G4,181.0,0.125,93,114.0
2369,C4,181.0,0.125,93,114.0
2370,E2,181.016,0.062,127,114.0
2371,F#2,181.016,0.062,114,114.0
2372,E2,181.49,0.156,70,114.0
2373,F#2,181.5,0.062,114,114.0
2374,G4,181.5,0.125,93,114.0
2375,E4,181.5,0.125,93,114.0
2376,C4,181.5,0.125,93,114.0
2377,F#2,181.745,0.062,114,114.0
2378,E4,181.75,0.125,93,114.0
2379,C4,181.75,0.125,93,114.0
2380,G4,181.75,0.125,93,114.0
2381,E2,181.76,27/200,70,114.0
2382,C2,182.01,0.062,127,114.0
2383,F#2,182.01,0.062,114,114.0
2384,G2,182.021,0.125,70,114.0
2385,G2,182.5,73/500,70,114.0
2386,G4,182.5,0.125,93,114.0
2387,C4,182.5,0.125,93,114.0
2388,E4,182.5,0.125,93,114.0
2389,F#2,182.505,0.062,114,114.0
2390,F#2,182.745,0.062,114,114.0
2391,G2,182.75,73/500,70,114.0
2392,E-5,182.88,89/1000,109,114.0
2393,E5,182.969,3911/1000,99,114.0
2394,E4,183.0,443/1000,119,114.0
2395,C4,183.0,443/1000,119,114.0
2396,G3,183.0,443/1000,119,114.0
2397,E2,183.005,0.062,127,114.0
2398,C3,183.01,27/200,70,114.0
2399,F#2,183.016,0.062,114,114.0
2400,E4,183.25,0.125,93,114.0
2401,G4,183.25,0.125,93,114.0
2402,C4,183.25,0.125,93,114.0
2403,F#2,183.5,0.062,114,114.0
2404,C3,183.51,27/200,70,114.0
2405,F#2,183.745,0.062,114,114.0
2406,C3,183.75,73/500,70,114.0
2407,B3,184.0,0.375,93,114.0
2408,G3,184.0,0.375,93,114.0
2409,D4,184.0,0.375,93,114.0
2410,D4,184.0,0.75,115,114.0
2411,G4,184.0,0.75,115,114.0
2412,B3,184.0,0.75,115,114.0
2413,C2,184.016,0.062,127,114.0
2414,G1,184.021,0.125,70,114.0
2415,F#2,184.026,0.062,114,114.0
2416,F#2,184.5,0.062,114,114.0
2417,B3,184.5,0.125,93,114.0
2418,D4,184.5,0.125,93,114.0
2419,G3,184.5,0.125,93,114.0
2420,G1,184.521,0.125,70,114.0
2421,B3,184.75,0.125,93,114.0
2422,G3,184.75,0.125,93,114.0
2423,D4,184.75,0.125,93,114.0
2424,G1,184.76,27/200,70,114.0
2425,F#2,184.766,0.062,114,114.0
2426,E2,185.005,0.062,127,114.0
2427,F#2,185.016,0.062,114,114.0
2428,B1,185.021,0.125,70,114.0
2429,B1,185.5,73/500,70,114.0
2430,D4,185.5,0.125,93,114.0
2431,G3,185.5,0.125,93,114.0
2432,B3,185.5,0.125,93,114.0
2433,F#2,185.505,0.062,114,114.0
2434,F#2,185.75,0.062,114,114.0
2435,B1,185.75,73/500,70,114.0
2436,C2,186.005,0.062,127,114.0
2437,F#2,186.016,0.062,114,114.0
2438,D2,186.021,0.125,70,114.0
2439,B-4,186.422,0.266,81,114.0
2440,F#2,186.5,0.062,114,114.0
2441,D2,186.5,73/500,70,114.0
2442,D4,186.5,0.125,93,114.0
2443,G3,186.5,0.125,93,114.0
2444,B3,186.5,0.125,93,114.0
2445,B4,186.667,107/500,83,114.0
2446,D2,186.74,0.156,70,114.0
2447,F#2,186.745,0.062,114,114.0
2448,E5,186.88,823/200,99,114.0
2449,B4,186.88,177/500,83,114.0
2450,C5,186.911,3.969,101,114.0
2451,G2,186.99,0.156,70,114.0
2452,E2,187.0,0.062,127,114.0
2453,F#2,187.0,0.062,114,114.0
2454,G4,187.0,101/200,111,114.0
2455,D4,187.0,56/125,115,114.0
2456,B3,187.0,56/125,115,114.0
2457,D4,187.25,0.125,93,114.0
2458,G3,187.25,0.125,93,114.0
2459,B3,187.25,0.125,93,114.0
2460,F#2,187.495,0.062,114,114.0
2461,G2,187.5,73/500,70,114.0
2462,F#2,187.745,0.062,114,114.0
2463,G2,187.75,73/500,70,114.0
2464,B1,188.0,73/500,70,114.0
2465,B3,188.0,0.5,93,114.0
2466,F#4,188.0,0.5,93,114.0
2467,E-4,188.0,0.5,93,114.0
2468,F#4,188.0,0.844,109,114.0
2469,E-4,188.0,0.844,109,114.0
2470,A3,188.0,0.844,109,114.0
2471,C2,188.005,0.062,127,114.0
2472,F#2,188.005,0.062,114,114.0
2473,F#2,188.5,0.062,114,114.0
2474,B1,188.51,27/200,70,114.0
2475,F#2,188.745,0.062,114,114.0
2476,E-4,188.75,0.125,93,114.0
2477,F#4,188.75,0.125,93,114.0
2478,B3,188.75,0.125,93,114.0
2479,B1,188.76,27/200,70,114.0
2480,B3,189.0,0.125,93,114.0
2481,F#4,189.0,0.125,93,114.0
2482,E-4,189.0,0.125,93,114.0
2483,E2,189.016,0.062,127,114.0
2484,F#2,189.016,0.062,114,114.0
2485,E-2,189.021,0.125,70,114.0
2486,F#2,189.495,0.062,114,114.0
2487,E-2,189.5,73/500,70,114.0
2488,E-4,189.5,0.125,93,114.0
2489,B3,189.5,0.125,93,114.0
2490,F#4,189.5,0.125,93,114.0
2491,E-2,189.74,0.156,70,114.0
2492,F#2,189.75,0.062,114,114.0
2493,E-4,189.75,0.125,93,114.0
2494,F#4,189.75,0.125,93,114.0
2495,B3,189.75,0.125,93,114.0
2496,C2,190.005,0.062,127,114.0
2497,F#2,190.005,0.062,114,114.0
2498,F#2,190.021,0.125,70,114.0
2499,F#2,190.495,0.062,114,114.0
2500,F#2,190.5,73/500,70,114.0
2501,E-4,190.5,0.125,93,114.0
2502,B3,190.5,0.125,93,114.0
2503,F#4,190.5,0.125,93,114.0
2504,F#2,190.729,167/1000,70,114.0
2505,F#2,190.734,0.062,114,114.0
2506,B4,190.833,0.047,67,114.0
2507,D5,190.844,9/250,75,114.0
2508,C5,190.995,23/200,101,114.0
2509,B4,190.995,4.0,67,114.0
2510,D5,190.995,1.734,75,114.0
2511,B2,191.0,73/500,70,114.0
2512,A3,191.0,0.438,118,114.0
2513,F#4,191.0,0.438,118,114.0
2514,E-4,191.0,0.438,118,114.0
2515,E2,191.005,0.062,127,114.0
2516,F#2,191.005,0.062,114,114.0
2517,E-4,191.25,0.125,93,114.0
2518,B3,191.25,0.125,93,114.0
2519,F#4,191.25,0.125,93,114.0
2520,F#2,191.49,0.062,114,114.0
2521,B2,191.5,73/500,70,114.0
2522,F#2,191.745,0.062,114,114.0
2523,B2,191.75,73/500,70,114.0
2524,E1,191.99,1/100,70,114.0
2525,C2,192.0,0.062,127,114.0
2526,F#2,192.0,0.062,114,114.0
2527,E1,192.0,73/500,70,114.0
2528,E4,192.0,0.5,93,114.0
2529,B3,192.0,0.5,93,114.0
2530,G3,192.0,0.5,93,114.0
2531,B3,192.0,0.75,121,114.0
2532,G3,192.0,0.75,121,114.0
2533,E4,192.0,0.75,121,114.0
2534,F#2,192.5,0.062,114,114.0
2535,E1,192.5,73/500,70,114.0
2536,E1,192.729,167/1000,70,114.0
2537,F#2,192.75,0.062,114,114.0
2538,B3,192.75,0.125,93,114.0
2539,G3,192.75,0.125,93,114.0
2540,E4,192.75,0.125,93,114.0
2541,D5,192.958,509/250,82,114.0
2542,G1,193.0,73/500,70,114.0
2543,G3,193.0,0.125,93,114.0
2544,B3,193.0,0.125,93,114.0
2545,E4,193.0,0.125,93,114.0
2546,E2,193.01,0.062,127,114.0
2547,F#2,193.01,0.062,114,114.0
2548,G1,193.49,0.156,70,114.0
2549,F#2,193.5,0.062,114,114.0
2550,G3,193.5,0.125,93,114.0
2551,B3,193.5,0.125,93,114.0
2552,E4,193.5,0.125,93,114.0
2553,F#2,193.745,0.062,114,114.0
2554,B3,193.75,0.125,93,114.0
2555,G3,193.75,0.125,93,114.0
2556,E4,193.75,0.125,93,114.0
2557,G1,193.76,27/200,70,114.0
2558,B1,194.0,73/500,70,114.0
2559,E2,194.005,0.062,127,114.0
2560,F#2,194.005,0.062,114,114.0
2561,A1,194.5,0.438,66,114.0
2562,E4,194.5,0.5,93,114.0
2563,B3,194.5,0.5,93,114.0
2564,G3,194.5,0.5,93,114.0
2565,G3,194.5,0.672,112,114.0
2566,E4,194.5,0.672,112,114.0
2567,C2,194.505,0.062,127,114.0
2568,B-2,194.505,0.062,114,114.0
2569,B4,194.995,3443/1000,67,114.0
2570,D5,194.995,13/125,82,114.0
2571,E-5,195.099,3.266,96,114.0
2572,B1,195.229,229/500,66,114.0
2573,G3,195.25,0.5,93,114.0
2574,E4,195.25,0.5,93,114.0
2575,B3,195.25,0.5,93,114.0
2576,A3,195.25,677/1000,103,114.0
2577,F#4,195.25,677/1000,103,114.0
2578,E2,195.505,0.062,127,114.0
2579,C#3,195.505,0.062,117,114.0
2580,C2,195.995,1/200,127,114.0
2581,C#3,195.995,1/200,117,114.0
2582,C2,196.0,57/1000,127,114.0
2583,C#3,196.0,57/1000,117,114.0
2584,E3,196.0,0.125,78,114.0
2585,B3,196.0,51/200,103,114.0
2586,G4,196.0,3.734,105,114.0
2587,E4,196.0,3.734,105,114.0
2588,B3,196.0,3.734,105,114.0
2589,C2,196.021,0.125,70,114.0
2590,E4,196.25,0.125,78,114.0
2591,C4,196.25,6/25,69,114.0
2592,F#2,196.26,0.062,114,114.0
2593,C2,196.49,0.156,70,114.0
2594,B-2,196.495,0.062,114,114.0
2595,E4,196.5,0.125,78,114.0
2596,E4,196.5,49/200,89,114.0
2597,F#2,196.745,0.062,114,114.0
2598,E3,196.75,0.125,78,114.0
2599,B3,196.75,69/250,88,114.0
2600,C2,196.76,27/200,70,114.0
2601,E4,197.0,0.125,78,114.0
2602,C4,197.0,151/500,88,114.0
2603,E2,197.005,0.062,127,114.0
2604,F#2,197.005,0.062,114,114.0
2605,E2,197.021,0.125,70,114.0
2606,F#2,197.245,0.062,114,114.0
2607,E4,197.25,0.125,78,114.0
2608,E4,197.25,0.203,73,114.0
2609,B-2,197.495,0.062,114,114.0
2610,E3,197.5,0.125,78,114.0
2611,B3,197.5,0.328,86,114.0
2612,E2,197.5,73/500,70,114.0
2613,F#2,197.745,0.062,114,114.0
2614,E4,197.75,0.125,78,114.0
2615,C4,197.75,0.281,85,114.0
2616,E2,197.771,0.125,70,114.0
2617,E3,198.0,0.125,78,114.0
2618,E4,198.0,49/200,83,114.0
2619,C2,198.005,0.062,127,114.0
2620,F#2,198.005,0.062,114,114.0
2621,G2,198.01,27/200,70,114.0
2622,F#2,198.25,0.062,114,114.0
2623,E4,198.25,0.125,78,114.0
2624,B3,198.25,339/1000,80,114.0
2625,B-2,198.5,0.062,114,114.0
2626,E4,198.5,0.125,78,114.0
2627,C4,198.5,69/250,69,114.0
2628,G2,198.521,0.125,70,114.0
2629,G2,198.729,167/1000,70,114.0
2630,F#2,198.75,0.062,114,114.0
2631,E3,198.75,0.125,78,114.0
2632,E4,198.75,6/25,80,114.0
2633,E5,198.943,13/250,82,114.0
2634,B4,198.943,13/250,82,114.0
2635,E5,198.995,2.328,82,114.0
2636,B4,198.995,2.328,82,114.0
2637,E4,199.0,0.125,78,114.0
2638,B3,199.0,0.312,96,114.0
2639,C3,199.0,73/500,70,114.0
2640,E2,199.005,0.062,127,114.0
2641,F#2,199.005,0.062,114,114.0
2642,F#2,199.245,0.062,114,114.0
2643,E3,199.25,0.125,78,114.0
2644,C4,199.25,0.281,76,114.0
2645,B-2,199.495,0.062,114,114.0
2646,E4,199.5,0.125,78,114.0
2647,E4,199.5,0.234,78,114.0
2648,C3,199.5,73/500,70,114.0
2649,F#2,199.75,0.062,114,114.0
2650,E4,199.75,0.125,78,114.0
2651,B3,199.75,0.25,89,114.0
2652,C3,199.75,73/500,70,114.0
2653,C2,200.0,0.062,127,114.0
2654,F#2,200.0,0.062,114,114.0
2655,C#3,200.0,0.062,117,114.0
2656,A2,200.0,0.125,78,114.0
2657,E4,200.0,3.641,87,114.0
2658,G4,200.0,3.922,95,114.0
2659,B3,200.0,749/200,95,114.0
2660,C4,200.0,69/250,86,114.0
2661,B3,200.0,0.078,89,114.0
2662,A1,200.0,73/500,70,114.0
2663,F#2,200.25,0.062,114,114.0
2664,A3,200.25,0.125,78,114.0
2665,E4,200.25,49/200,76,114.0
2666,B-2,200.495,0.062,114,114.0
2667,A3,200.5,0.125,78,114.0
2668,B3,200.5,0.312,94,114.0
2669,A1,200.5,73/500,70,114.0
2670,F#2,200.745,0.062,114,114.0
2671,A2,200.75,0.125,78,114.0
2672,C4,200.75,0.312,76,114.0
2673,A1,200.75,73/500,70,114.0
2674,A3,201.0,0.125,78,114.0
2675,E4,201.0,49/200,89,114.0
2676,C2,201.0,73/500,70,114.0
2677,E2,201.005,0.062,127,114.0
2678,F#2,201.005,0.062,114,114.0
2679,F#2,201.25,0.062,114,114.0
2680,A2,201.25,0.125,78,114.0
2681,B3,201.25,0.344,89,114.0
2682,B-2,201.495,0.062,114,114.0
2683,A3,201.5,0.125,78,114.0
2684,C4,201.5,271/1000,86,114.0
2685,C2,201.5,73/500,70,114.0
2686,C2,201.74,0.156,70,114.0
2687,F#2,201.75,0.062,114,114.0
2688,A3,201.75,0.125,78,114.0
2689,E4,201.75,51/200,88,114.0
2690,A2,202.0,0.125,78,114.0
2691,B3,202.0,333/1000,96,114.0
2692,C2,202.005,0.062,127,114.0
2693,F#2,202.005,0.062,114,114.0
2694,E2,202.01,27/200,70,114.0
2695,F#2,202.245,0.062,114,114.0
2696,A3,202.25,0.125,78,114.0
2697,C4,202.25,69/250,75,114.0
2698,B-2,202.495,0.062,114,114.0
2699,A3,202.5,0.125,78,114.0
2700,E4,202.5,51/200,88,114.0
2701,E2,202.5,73/500,70,114.0
2702,F#2,202.745,0.062,114,114.0
2703,A2,202.75,0.125,78,114.0
2704,B3,202.75,143/500,103,114.0
2705,E2,202.75,73/500,70,114.0
2706,A3,203.0,0.125,78,114.0
2707,C4,203.0,0.297,83,114.0
2708,A2,203.0,73/500,70,114.0
2709,E2,203.005,0.062,127,114.0
2710,F#2,203.005,0.062,114,114.0
2711,F#2,203.245,0.062,114,114.0
2712,A2,203.25,0.125,78,114.0
2713,E4,203.25,49/200,99,114.0
2714,B-2,203.495,0.062,114,114.0
2715,A3,203.5,0.125,78,114.0
2716,B3,203.5,143/500,96,114.0
2717,A2,203.51,27/200,70,114.0
2718,F#2,203.745,0.062,114,114.0
2719,A3,203.75,0.125,78,114.0
2720,C4,203.75,26/125,87,114.0
2721,A2,203.76,27/200,70,114.0
2722,B2,204.0,0.125,78,114.0
2723,B3,204.0,229/1000,111,114.0
2724,E-4,204.0,3.719,98,114.0
2725,F#4,204.0,3.719,98,114.0
2726,A3,204.0,3.719,98,114.0
2727,C2,204.016,0.062,127,114.0
2728,F#2,204.016,0.062,114,114.0
2729,B1,204.021,0.125,70,114.0
2730,C#3,204.026,0.062,117,114.0
2731,B3,204.25,0.125,78,114.0
2732,E-4,204.25,0.25,103,114.0
2733,F#2,204.255,0.062,114,114.0
2734,B-2,204.5,0.062,114,114.0
2735,B3,204.5,0.125,78,114.0
2736,F#4,204.5,107/500,114,114.0
2737,B1,204.5,73/500,70,114.0
2738,B1,204.74,0.156,70,114.0
2739,B2,204.75,0.125,78,114.0
2740,B3,204.75,177/500,101,114.0
2741,F#2,204.76,0.062,114,114.0
2742,B3,205.0,0.125,78,114.0
2743,E-4,205.0,69/250,96,114.0
2744,E2,205.005,0.062,127,114.0
2745,F#2,205.005,0.062,114,114.0
2746,E-2,205.021,0.125,70,114.0
2747,F#2,205.25,0.062,114,114.0
2748,B2,205.25,0.125,78,114.0
2749,F#4,205.25,26/125,93,114.0
2750,B-2,205.5,0.062,114,114.0
2751,B3,205.5,0.125,78,114.0
2752,B3,205.5,0.328,89,114.0
2753,E-2,205.5,73/500,70,114.0
2754,F#2,205.75,0.062,114,114.0
2755,B3,205.75,0.125,78,114.0
2756,E-4,205.75,307/1000,99,114.0
2757,E-2,205.75,73/500,70,114.0
2758,B2,206.0,0.125,78,114.0
2759,F#4,206.0,0.234,99,114.0
2760,C2,206.005,0.062,127,114.0
2761,F#2,206.01,27/200,70,114.0
2762,F#2,206.016,0.062,114,114.0
2763,F#2,206.25,0.062,114,114.0
2764,B3,206.25,0.125,78,114.0
2765,B3,206.25,339/1000,101,114.0
2766,B-2,206.495,0.062,114,114.0
2767,B3,206.5,0.125,78,114.0
2768,E-4,206.5,0.281,97,114.0
2769,F#2,206.51,27/200,70,114.0
2770,F#2,206.729,167/1000,70,114.0
2771,F#2,206.75,0.062,114,114.0
2772,B2,206.75,0.125,78,114.0
2773,F#4,206.75,0.219,103,114.0
2774,B2,206.99,0.156,70,114.0
2775,B3,207.0,0.125,78,114.0
2776,B3,207.0,19/50,106,114.0
2777,E2,207.005,0.062,127,114.0
2778,F#2,207.005,0.062,114,114.0
2779,F#2,207.25,0.062,114,114.0
2780,B2,207.25,0.125,78,114.0
2781,E-4,207.25,51/200,103,114.0
2782,B-2,207.5,0.062,114,114.0
2783,B3,207.5,0.125,78,114.0
2784,F#4,207.5,99/500,110,114.0
2785,B2,207.5,73/500,70,114.0
2786,B3,207.75,0.125,78,114.0
2787,E-4,207.75,91/500,92,114.0
2788,B2,207.75,73/500,70,114.0
2789,F#2,207.755,0.062,114,114.0
2790,E3,208.0,0.125,78,114.0
2791,G3,208.0,151/500,96,114.0
2792,E1,208.0,73/500,70,114.0
2793,G4,208.0,2.234,95,114.0
2794,E4,208.0,2.234,95,114.0
2795,B3,208.0,2.234,95,114.0
2796,C2,208.01,0.062,127,114.0
2797,F#2,208.01,0.062,114,114.0
2798,E4,208.25,0.125,78,114.0
2799,B3,208.25,0.297,94,114.0
2800,E1,208.49,0.156,70,114.0
2801,E4,208.5,0.125,78,114.0
2802,E4,208.5,28/125,106,114.0
2803,F#2,208.51,0.062,114,114.0
2804,E3,208.75,0.125,78,114.0
2805,G3,208.75,177/500,81,114.0
2806,E1,208.75,73/500,70,114.0
2807,F#2,208.755,0.062,114,114.0
2808,E4,209.0,0.125,78,114.0
2809,B3,209.0,0.234,106,114.0
2810,G1,209.0,73/500,70,114.0
2811,E2,209.026,0.062,127,114.0
2812,F#2,209.026,0.062,114,114.0
2813,E3,209.25,0.125,78,114.0
2814,E4,209.25,323/1000,88,114.0
2815,G3,209.5,0.312,88,114.0
2816,G1,209.5,73/500,70,114.0
2817,E4,209.5,0.125,78,114.0
2818,F#4,209.5,0.125,78,114.0
2819,F#2,209.505,0.062,114,114.0
2820,E4,209.75,0.125,78,114.0
2821,B3,209.75,271/1000,78,114.0
2822,G1,209.75,73/500,70,114.0
2823,F#2,209.76,0.062,114,114.0
2824,B1,209.99,0.156,70,114.0
2825,E3,210.0,0.125,78,114.0
2826,E4,210.0,69/250,92,114.0
2827,E2,210.005,0.062,127,114.0
2828,F#2,210.016,0.062,114,114.0
2829,E4,210.25,0.125,78,114.0
2830,G3,210.25,339/1000,92,114.0
2831,C2,210.495,0.062,127,114.0
2832,B-2,210.495,0.062,114,114.0
2833,E4,210.5,0.125,78,114.0
2834,B3,210.5,143/500,92,114.0
2835,G3,210.5,341/500,106,114.0
2836,E4,210.5,341/500,106,114.0
2837,B1,210.51,27/200,70,114.0
2838,E3,210.75,0.125,78,114.0
2839,E4,210.75,159/500,96,114.0
2840,B1,210.75,73/500,70,114.0
2841,E4,211.0,0.125,78,114.0
2842,G3,211.0,177/500,94,114.0
2843,E2,211.01,27/200,70,114.0
2844,E3,211.25,0.125,78,114.0
2845,B3,211.25,0.312,88,114.0
2846,A3,211.25,0.672,104,114.0
2847,F#4,211.25,0.672,104,114.0
2848,E2,211.49,0.156,70,114.0
2849,E2,211.495,0.062,127,114.0
2850,C#3,211.495,0.062,117,114.0
2851,E4,211.5,0.125,78,114.0
2852,E4,211.5,151/500,89,114.0
2853,E4,211.75,0.125,78,114.0
2854,G3,211.75,167/1000,89,114.0
2855,E2,211.76,27/200,70,114.0
2856,C3,212.0,0.125,78,114.0
2857,B3,212.0,0.297,93,114.0
2858,G4,212.0,1909/500,94,114.0
2859,E4,212.0,1909/500,94,114.0
2860,B3,212.0,1909/500,94,114.0
2861,C2,212.005,0.062,127,114.0
2862,C#3,212.016,0.062,117,114.0
2863,C2,212.021,0.125,70,114.0
2864,C4,212.25,0.125,78,114.0
2865,C4,212.25,229/1000,70,114.0
2866,F#2,212.255,0.062,114,114.0
2867,B-2,212.5,0.062,114,114.0
2868,C4,212.5,0.125,78,114.0
2869,E4,212.5,51/200,81,114.0
2870,C2,212.5,73/500,70,114.0
2871,E4,212.547,271/1000,127,114.0
2872,E5,212.547,271/1000,127,114.0
2873,F#2,212.75,0.062,114,114.0
2874,C3,212.75,0.125,78,114.0
2875,B3,212.75,0.328,101,114.0
2876,C2,212.75,73/500,70,114.0
2877,D4,212.75,229/1000,127,114.0
2878,D5,212.75,229/1000,127,114.0
2879,C4,213.0,0.125,78,114.0
2880,C4,213.0,13/50,85,114.0
2881,E2,213.005,0.062,127,114.0
2882,F#2,213.005,0.062,114,114.0
2883,E2,213.01,27/200,70,114.0
2884,F#2,213.25,0.062,114,114.0
2885,C3,213.25,0.125,78,114.0
2886,E4,213.25,0.25,86,114.0
2887,D4,213.26,0.281,127,114.0
2888,D5,213.266,99/500,127,114.0
2889,B4,213.469,99/500,127,114.0
2890,B3,213.469,99/500,127,114.0
2891,B-2,213.5,0.062,114,114.0
2892,C4,213.5,0.125,78,114.0
2893,B3,213.5,323/1000,96,114.0
2894,E2,213.51,27/200,70,114.0
2895,F#2,213.75,0.062,114,114.0
2896,C4,213.75,0.125,78,114.0
2897,C4,213.75,13/50,81,114.0
2898,E2,213.75,73/500,70,114.0
2899,A3,213.99,193/1000,127,114.0
2900,A4,213.99,193/1000,127,114.0
2901,C3,214.0,0.125,78,114.0
2902,E4,214.0,143/500,80,114.0
2903,C2,214.01,0.062,127,114.0
2904,G2,214.01,27/200,70,114.0
2905,F#2,214.016,0.062,114,114.0
2906,F#2,214.25,0.062,114,114.0
2907,C4,214.25,0.125,78,114.0
2908,B3,214.25,177/500,78,114.0
2909,G3,214.458,0.203,127,114.0
2910,G4,214.458,0.203,127,114.0
2911,G2,214.49,0.156,70,114.0
2912,B-2,214.495,0.062,114,114.0
2913,C4,214.5,0.125,78,114.0
2914,C4,214.5,143/500,74,114.0
2915,F#2,214.75,0.062,114,114.0
2916,C3,214.75,0.125,78,114.0
2917,E4,214.75,0.281,71,114.0
2918,G2,214.76,27/200,70,114.0
2919,C4,215.0,0.125,78,114.0
2920,B3,215.0,339/1000,96,114.0
2921,E2,215.005,0.062,127,114.0
2922,F#2,215.005,0.062,114,114.0
2923,C3,215.021,0.125,70,114.0
2924,C3,215.25,0.125,78,114.0
2925,C4,215.25,151/500,65,114.0
2926,F#2,215.266,0.062,114,114.0
2927,B-2,215.5,0.062,114,114.0
2928,C4,215.5,0.125,78,114.0
2929,E4,215.5,0.234,76,114.0
2930,C3,215.521,0.125,70,114.0
2931,C3,215.729,167/1000,70,114.0
2932,F#2,215.75,0.062,114,114.0
2933,C4,215.75,0.125,78,114.0
2934,B3,215.75,0.25,83,114.0
2935,C2,216.0,0.062,127,114.0
2936,F#2,216.0,0.062,114,114.0
2937,A2,216.0,0.125,78,114.0
2938,C4,216.0,13/50,64,114.0
2939,B3,216.0,89/1000,83,114.0
2940,A1,216.0,73/500,70,114.0
2941,B3,216.0,1763/500,95,114.0
2942,E4,216.0,1763/500,95,114.0
2943,G4,216.0,1763/500,95,114.0
2944,C#3,216.016,0.062,117,114.0
2945,F#2,216.245,0.062,114,114.0
2946,A3,216.25,0.125,78,114.0
2947,E4,216.25,73/250,72,114.0
2948,A1,216.49,0.156,70,114.0
2949,B-2,216.5,0.062,114,114.0
2950,A3,216.5,0.125,78,114.0
2951,B3,216.5,349/1000,94,114.0
2952,E4,216.505,271/1000,127,114.0
2953,E5,216.505,271/1000,127,114.0
2954,D5,216.724,0.203,127,114.0
2955,D4,216.724,0.203,127,114.0
2956,A1,216.74,0.156,70,114.0
2957,F#2,216.75,0.062,114,114.0
2958,A2,216.75,0.125,78,114.0
2959,C4,216.75,151/500,73,114.0
2960,A3,217.0,0.125,78,114.0
2961,E4,217.0,0.25,81,114.0
2962,C2,217.0,73/500,70,114.0
2963,E2,217.005,0.062,127,114.0
2964,F#2,217.005,0.062,114,114.0
2965,F#2,217.245,0.062,114,114.0
2966,A2,217.25,0.125,78,114.0
2967,B3,217.25,0.328,86,114.0
2968,D5,217.25,229/1000,127,114.0
2969,D4,217.255,151/500,127,114.0
2970,B-2,217.5,0.062,114,114.0
2971,A3,217.5,0.125,78,114.0
2972,C4,217.5,143/500,71,114.0
2973,C2,217.5,73/500,70,114.0
2974,B3,217.5,91/500,127,114.0
2975,B4,217.5,91/500,127,114.0
2976,F#2,217.75,0.062,114,114.0
2977,A3,217.75,0.125,78,114.0
2978,E4,217.75,73/250,74,114.0
2979,C2,217.75,73/500,70,114.0
2980,A3,217.979,0.266,127,114.0
2981,A4,217.979,0.266,127,114.0
2982,A2,218.0,0.125,78,114.0
2983,B3,218.0,99/250,86,114.0
2984,E2,218.0,73/500,70,114.0
2985,C2,218.005,0.062,127,114.0
2986,F#2,218.005,0.062,114,114.0
2987,B3,218.182,0.219,127,114.0
2988,B4,218.182,0.219,127,114.0
2989,F#2,218.25,0.062,114,114.0
2990,A3,218.25,0.125,78,114.0
2991,C4,218.25,0.281,67,114.0
2992,G3,218.448,51/200,127,114.0
2993,G4,218.448,51/200,127,114.0
2994,B-2,218.5,0.062,114,114.0
2995,A3,218.5,0.125,78,114.0
2996,E4,218.5,0.25,75,114.0
2997,E2,218.51,27/200,70,114.0
2998,F#2,218.75,0.062,114,114.0
2999,A2,218.75,0.125,78,114.0
3000,B3,218.75,177/500,94,114.0
3001,E2,218.75,73/500,70,114.0
3002,A3,219.0,0.125,78,114.0
3003,C4,219.0,307/1000,78,114.0
3004,A2,219.0,73/500,70,114.0
3005,E2,219.01,0.062,127,114.0
3006,F#2,219.01,0.062,114,114.0
3007,F#2,219.245,0.062,114,114.0
3008,A2,219.25,0.125,78,114.0
3009,E4,219.25,49/200,78,114.0
3010,B-2,219.495,0.062,114,114.0
3011,A3,219.5,0.125,78,114.0
3012,B3,219.5,307/1000,94,114.0
3013,A2,219.5,73/500,70,114.0
3014,A2,219.74,0.156,70,114.0
3015,F#2,219.745,0.062,114,114.0
3016,A3,219.75,0.125,78,114.0
3017,C4,219.75,91/500,68,114.0
3018,G5,219.974,13/500,127,114.0
3019,B4,219.974,13/500,127,114.0
3020,B5,219.974,13/500,127,114.0
3021,E-5,219.974,13/500,127,114.0
3022,B2,220.0,0.125,78,114.0
3023,B3,220.0,0.312,116,114.0
3024,B3,220.0,0.562,116,114.0
3025,E-4,220.0,0.562,116,114.0
3026,G4,220.0,0.562,116,114.0
3027,G5,220.0,58/125,127,114.0
3028,B4,220.0,58/125,127,114.0
3029,B5,220.0,58/125,127,114.0
3030,E-5,220.0,58/125,127,114.0
3031,C2,220.01,0.062,127,114.0
3032,F#2,220.01,0.062,114,114.0
3033,B1,220.021,0.125,70,114.0
3034,C#3,220.026,0.062,117,114.0
3035,F#2,220.25,0.062,114,114.0
3036,B3,220.25,0.125,78,114.0
3037,E-4,220.25,13/50,97,114.0
3038,B-2,220.495,0.062,114,114.0
3039,B3,220.5,0.125,78,114.0
3040,F#4,220.5,0.25,95,114.0
3041,B1,220.5,73/500,70,114.0
3042,B5,220.62,229/1000,127,114.0
3043,E-5,220.62,229/1000,127,114.0
3044,B4,220.62,229/1000,127,114.0
3045,G5,220.62,229/1000,127,114.0
3046,B3,220.667,49/200,116,114.0
3047,E-4,220.667,49/200,116,114.0
3048,G4,220.667,49/200,116,114.0
3049,F#2,220.75,0.062,114,114.0
3050,B2,220.75,0.125,78,114.0
3051,B3,220.75,417/1000,88,114.0
3052,B1,220.75,73/500,70,114.0
3053,B3,221.0,0.125,78,114.0
3054,E-4,221.0,0.344,95,114.0
3055,E2,221.01,0.062,127,114.0
3056,F#2,221.01,0.062,114,114.0
3057,E-2,221.01,27/200,70,114.0
3058,F#2,221.25,0.062,114,114.0
3059,B2,221.25,0.125,78,114.0
3060,F#4,221.25,6/25,76,114.0
3061,B-2,221.5,0.062,114,114.0
3062,B3,221.5,0.125,78,114.0
3063,B3,221.5,37/100,99,114.0
3064,E-2,221.51,27/200,70,114.0
3065,F#2,221.745,0.062,114,114.0
3066,B3,221.75,0.125,78,114.0
3067,E-4,221.75,0.344,103,114.0
3068,E-2,221.771,0.125,70,114.0
3069,B2,222.0,0.125,78,114.0
3070,F#4,222.0,26/125,110,114.0
3071,C2,222.01,0.062,127,114.0
3072,F#2,222.01,0.062,114,114.0
3073,F#2,222.021,0.125,70,114.0
3074,F#2,222.245,0.062,114,114.0
3075,B3,222.25,0.125,78,114.0
3076,B3,222.25,0.328,101,114.0
3077,B-2,222.495,0.062,114,114.0
3078,B3,222.5,0.125,78,114.0
3079,E-4,222.5,0.328,99,114.0
3080,F#2,222.5,73/500,70,114.0
3081,F#2,222.75,0.062,114,114.0
3082,B2,222.75,0.125,78,114.0
3083,F#4,222.75,0.266,97,114.0
3084,F#2,222.76,27/200,70,114.0
3085,B3,223.0,0.125,78,114.0
3086,B3,223.0,401/1000,96,114.0
3087,E2,223.005,0.062,127,114.0
3088,F#2,223.005,0.062,114,114.0
3089,B2,223.021,0.125,70,114.0
3090,F#2,223.245,0.062,114,114.0
3091,B2,223.25,0.125,78,114.0
3092,E-4,223.25,271/1000,74,114.0
3093,B2,223.49,0.156,70,114.0
3094,B-2,223.5,0.062,114,114.0
3095,B3,223.5,0.125,78,114.0
3096,F#4,223.5,0.188,107,114.0
3097,F#2,223.75,0.062,114,114.0
3098,B3,223.75,0.125,78,114.0
3099,B2,223.75,73/500,70,114.0
3100,C2,224.0,0.062,127,114.0
3101,F#2,224.0,0.062,114,114.0
3102,E3,224.0,0.125,78,114.0
3103,E3,224.0,99/500,99,114.0
3104,E1,224.0,73/500,70,114.0
3105,E4,224.25,0.125,78,114.0
3106,E3,224.25,0.297,88,114.0
3107,F#2,224.5,0.062,114,114.0
3108,E4,224.5,0.125,78,114.0
3109,G3,224.5,107/500,76,114.0
3110,E1,224.5,73/500,70,114.0
3111,E1,224.74,0.156,70,114.0
3112,F#2,224.745,0.062,114,114.0
3113,E3,224.75,0.125,78,114.0
3114,E3,224.75,49/200,66,114.0
3115,G1,224.99,0.156,70,114.0
3116,E4,225.0,0.125,78,114.0
3117,A3,225.0,0.234,88,114.0
3118,E2,225.01,0.062,127,114.0
3119,F#2,225.01,0.062,114,114.0
3120,E3,225.25,0.125,78,114.0
3121,E3,225.25,143/500,80,114.0
3122,F#2,225.495,0.062,114,114.0
3123,E4,225.5,0.125,78,114.0
3124,B3,225.5,193/1000,99,114.0
3125,G1,225.5,73/500,70,114.0
3126,F#2,225.75,0.062,114,114.0
3127,E4,225.75,0.125,78,114.0
3128,E3,225.75,91/500,94,114.0
3129,G1,225.75,73/500,70,114.0
3130,E3,226.0,0.125,78,114.0
3131,E3,226.0,0.25,95,114.0
3132,B1,226.0,73/500,70,114.0
3133,E2,226.005,0.062,127,114.0
3134,F#2,226.005,0.062,114,114.0
3135,E4,226.25,0.125,78,114.0
3136,E3,226.25,0.25,101,114.0
3137,B1,226.49,0.156,70,114.0
3138,C2,226.495,0.062,127,114.0
3139,B-2,226.495,0.062,114,114.0
3140,E4,226.5,0.125,78,114.0
3141,G3,226.5,0.25,101,114.0
3142,G3,226.5,341/500,106,114.0
3143,E4,226.5,341/500,106,114.0
3144,E3,226.75,0.125,78,114.0
3145,E3,226.75,0.25,95,114.0
3146,B1,226.76,27/200,70,114.0
3147,E4,227.0,0.125,78,114.0
3148,A3,227.0,0.25,92,114.0
3149,E2,227.01,27/200,70,114.0
3150,E3,227.25,0.125,78,114.0
3151,E3,227.25,0.25,90,114.0
3152,A3,227.25,0.672,104,114.0
3153,F#4,227.25,0.672,104,114.0
3154,E2,227.495,0.062,127,114.0
3155,C#3,227.495,0.062,117,114.0
3156,E4,227.5,0.125,78,114.0
3157,B3,227.5,0.25,90,114.0
3158,E2,227.5,73/500,70,114.0
3159,E2,227.74,0.156,70,114.0
3160,E4,227.75,0.125,78,114.0
3161,E3,227.75,0.25,90,114.0
3162,C2,227.99,1/100,70,114.0
3163,C2,228.0,0.25,127,114.0
3164,C#3,228.0,0.25,118,114.0
3165,E3,228.0,0.125,78,114.0
3166,B3,228.0,51/200,103,114.0
3167,C2,228.0,73/500,70,114.0
3168,G4,228.0,3.734,105,114.0
3169,E4,228.0,3.734,105,114.0
3170,B3,228.0,3.734,105,114.0
3171,E4,228.25,0.125,78,114.0
3172,C4,228.25,6/25,69,114.0
3173,F#2,228.26,0.062,114,114.0
3174,B-2,228.495,0.062,114,114.0
3175,E4,228.5,0.125,78,114.0
3176,E4,228.5,49/200,89,114.0
3177,C2,228.51,27/200,70,114.0
3178,F#2,228.745,0.062,114,114.0
3179,E3,228.75,0.125,78,114.0
3180,B3,228.75,69/250,88,114.0
3181,C2,228.75,73/500,70,114.0
3182,E4,229.0,0.125,78,114.0
3183,C4,229.0,151/500,88,114.0
3184,E2,229.005,0.062,127,114.0
3185,F#2,229.005,0.062,114,114.0
3186,E2,229.01,27/200,70,114.0
3187,F#2,229.245,0.062,114,114.0
3188,E4,229.25,0.125,78,114.0
3189,E4,229.25,0.203,73,114.0
3190,E2,229.49,0.156,70,114.0
3191,B-2,229.495,0.062,114,114.0
3192,E3,229.5,0.125,78,114.0
3193,B3,229.5,0.328,86,114.0
3194,F#2,229.745,0.062,114,114.0
3195,E4,229.75,0.125,78,114.0
3196,C4,229.75,0.281,85,114.0
3197,E2,229.76,27/200,70,114.0
3198,E3,230.0,0.125,78,114.0
3199,E4,230.0,49/200,83,114.0
3200,C2,230.005,0.062,127,114.0
3201,F#2,230.005,0.062,114,114.0
3202,G2,230.021,0.125,70,114.0
3203,F#2,230.25,0.062,114,114.0
3204,E4,230.25,0.125,78,114.0
3205,B3,230.25,339/1000,80,114.0
3206,G2,230.479,167/1000,70,114.0
3207,B-2,230.5,0.062,114,114.0
3208,E4,230.5,0.125,78,114.0
3209,C4,230.5,69/250,69,114.0
3210,G2,230.74,0.156,70,114.0
3211,F#2,230.75,0.062,114,114.0
3212,E3,230.75,0.125,78,114.0
3213,E4,230.75,6/25,80,114.0
3214,E4,231.0,0.125,78,114.0
3215,B3,231.0,0.312,96,114.0
3216,C3,231.0,73/500,70,114.0
3217,E2,231.005,0.062,127,114.0
3218,F#2,231.005,0.062,114,114.0
3219,F#2,231.245,0.062,114,114.0
3220,E3,231.25,0.125,78,114.0
3221,C4,231.25,0.281,76,114.0
3222,C3,231.479,167/1000,70,114.0
3223,B-2,231.495,0.062,114,114.0
3224,E4,231.5,0.125,78,114.0
3225,E4,231.5,0.234,78,114.0
3226,F#2,231.75,0.062,114,114.0
3227,E4,231.75,0.125,78,114.0
3228,B3,231.75,0.25,89,114.0
3229,C3,231.75,73/500,70,114.0
3230,C2,232.0,0.062,127,114.0
3231,F#2,232.0,0.062,114,114.0
3232,C#3,232.0,0.062,117,114.0
3233,A2,232.0,0.125,78,114.0
3234,E4,232.0,3.641,87,114.0
3235,G4,232.0,3.922,95,114.0
3236,B3,232.0,749/200,95,114.0
3237,C4,232.0,69/250,86,114.0
3238,B3,232.0,0.078,89,114.0
3239,A1,232.021,0.125,70,114.0
3240,F#2,232.25,0.062,114,114.0
3241,A3,232.25,0.125,78,114.0
3242,E4,232.25,49/200,76,114.0
3243,B-2,232.495,0.062,114,114.0
3244,A3,232.5,0.125,78,114.0
3245,B3,232.5,0.312,94,114.0
3246,A1,232.5,73/500,70,114.0
3247,F#2,232.745,0.062,114,114.0
3248,A2,232.75,0.125,78,114.0
3249,C4,232.75,0.312,76,114.0
3250,A1,232.75,73/500,70,114.0
3251,C2,232.99,0.156,70,114.0
3252,A3,233.0,0.125,78,114.0
3253,E4,233.0,49/200,89,114.0
3254,E2,233.005,0.062,127,114.0
3255,F#2,233.005,0.062,114,114.0
3256,F#2,233.25,0.062,114,114.0
3257,A2,233.25,0.125,78,114.0
3258,B3,233.25,0.344,89,114.0
3259,B-2,233.495,0.062,114,114.0
3260,A3,233.5,0.125,78,114.0
3261,C4,233.5,271/1000,86,114.0
3262,C2,233.5,73/500,70,114.0
3263,F#2,233.75,0.062,114,114.0
3264,A3,233.75,0.125,78,114.0
3265,E4,233.75,51/200,88,114.0
3266,C2,233.75,73/500,70,114.0
3267,A2,234.0,0.125,78,114.0
3268,B3,234.0,333/1000,96,114.0
3269,E2,234.0,73/500,70,114.0
3270,C2,234.005,0.062,127,114.0
3271,F#2,234.005,0.062,114,114.0
3272,F#2,234.245,0.062,114,114.0
3273,A3,234.25,0.125,78,114.0
3274,C4,234.25,69/250,75,114.0
3275,E2,234.49,0.156,70,114.0
3276,B-2,234.495,0.062,114,114.0
3277,A3,234.5,0.125,78,114.0
3278,E4,234.5,51/200,88,114.0
3279,E2,234.74,0.156,70,114.0
3280,F#2,234.745,0.062,114,114.0
3281,A2,234.75,0.125,78,114.0
3282,B3,234.75,143/500,103,114.0
3283,A3,235.0,0.125,78,114.0
3284,C4,235.0,0.297,83,114.0
3285,A2,235.0,73/500,70,114.0
3286,E2,235.005,0.062,127,114.0
3287,F#2,235.005,0.062,114,114.0
3288,F#2,235.245,0.062,114,114.0
3289,A2,235.25,0.125,78,114.0
3290,E4,235.25,49/200,99,114.0
3291,B-2,235.495,0.062,114,114.0
3292,A3,235.5,0.125,78,114.0
3293,B3,235.5,143/500,96,114.0
3294,A2,235.5,73/500,70,114.0
3295,F#2,235.745,0.062,114,114.0
3296,A3,235.75,0.125,78,114.0
3297,C4,235.75,26/125,87,114.0
3298,A2,235.75,73/500,70,114.0
3299,B2,236.0,0.125,78,114.0
3300,B3,236.0,229/1000,111,114.0
3301,B1,236.0,73/500,70,114.0
3302,E-4,236.0,3.719,98,114.0
3303,F#4,236.0,3.719,98,114.0
3304,A3,236.0,3.719,98,114.0
3305,C2,236.016,0.062,127,114.0
3306,F#2,236.016,0.062,114,114.0
3307,C#3,236.026,0.062,117,114.0
3308,B3,236.25,0.125,78,114.0
3309,E-4,236.25,0.25,103,114.0
3310,F#2,236.255,0.062,114,114.0
3311,B-2,236.5,0.062,114,114.0
3312,B3,236.5,0.125,78,114.0
3313,F#4,236.5,107/500,114,114.0
3314,B1,236.51,27/200,70,114.0
3315,B2,236.75,0.125,78,114.0
3316,B3,236.75,177/500,101,114.0
3317,B1,236.75,73/500,70,114.0
3318,F#2,236.76,0.062,114,114.0
3319,B3,237.0,0.125,78,114.0
3320,E-4,237.0,69/250,96,114.0
3321,E-2,237.0,73/500,70,114.0
3322,E2,237.005,0.062,127,114.0
3323,F#2,237.005,0.062,114,114.0
3324,F#2,237.25,0.062,114,114.0
3325,B2,237.25,0.125,78,114.0
3326,F#4,237.25,26/125,93,114.0
3327,E-2,237.49,0.156,70,114.0
3328,B-2,237.5,0.062,114,114.0
3329,B3,237.5,0.125,78,114.0
3330,B3,237.5,0.328,89,114.0
3331,F#2,237.75,0.062,114,114.0
3332,B3,237.75,0.125,78,114.0
3333,E-4,237.75,307/1000,99,114.0
3334,E-2,237.76,27/200,70,114.0
3335,B2,238.0,0.125,78,114.0
3336,F#4,238.0,0.234,99,114.0
3337,C2,238.005,0.062,127,114.0
3338,F#2,238.016,0.062,114,114.0
3339,F#2,238.021,0.125,70,114.0
3340,F#2,238.25,0.062,114,114.0
3341,B3,238.25,0.125,78,114.0
3342,B3,238.25,339/1000,101,114.0
3343,B-2,238.495,0.062,114,114.0
3344,B3,238.5,0.125,78,114.0
3345,E-4,238.5,0.281,97,114.0
3346,F#2,238.5,73/500,70,114.0
3347,F#2,238.75,0.062,114,114.0
3348,B2,238.75,0.125,78,114.0
3349,F#4,238.75,0.219,103,114.0
3350,F#2,238.75,73/500,70,114.0
3351,B3,239.0,0.125,78,114.0
3352,B3,239.0,19/50,106,114.0
3353,E2,239.005,0.062,127,114.0
3354,F#2,239.005,0.062,114,114.0
3355,B2,239.01,27/200,70,114.0
3356,F#2,239.25,0.062,114,114.0
3357,B2,239.25,0.125,78,114.0
3358,E-4,239.25,51/200,103,114.0
3359,B-2,239.5,0.062,114,114.0
3360,B3,239.5,0.125,78,114.0
3361,F#4,239.5,99/500,110,114.0
3362,B2,239.51,27/200,70,114.0
3363,B2,239.729,167/1000,70,114.0
3364,B3,239.75,0.125,78,114.0
3365,E-4,239.75,91/500,92,114.0
3366,F#2,239.755,0.062,114,114.0
3367,E3,240.0,0.125,78,114.0
3368,G3,240.0,151/500,96,114.0
3369,G4,240.0,2.234,95,114.0
3370,E4,240.0,2.234,95,114.0
3371,B3,240.0,2.234,95,114.0
3372,C2,240.01,0.062,127,114.0
3373,F#2,240.01,0.062,114,114.0
3374,E1,240.021,0.125,70,114.0
3375,E4,240.25,0.125,78,114.0
3376,B3,240.25,0.297,94,114.0
3377,E1,240.49,0.156,70,114.0
3378,E4,240.5,0.125,78,114.0
3379,E4,240.5,28/125,106,114.0
3380,F#2,240.51,0.062,114,114.0
3381,E1,240.74,0.156,70,114.0
3382,E3,240.75,0.125,78,114.0
3383,G3,240.75,177/500,81,114.0
3384,F#2,240.755,0.062,114,114.0
3385,G1,240.99,0.156,70,114.0
3386,E4,241.0,0.125,78,114.0
3387,B3,241.0,0.234,106,114.0
3388,E2,241.026,0.062,127,114.0
3389,F#2,241.026,0.062,114,114.0
3390,E3,241.25,0.125,78,114.0
3391,E4,241.25,323/1000,88,114.0
3392,G3,241.5,0.312,88,114.0
3393,G1,241.5,73/500,70,114.0
3394,E4,241.5,0.125,78,114.0
3395,F#4,241.5,0.125,78,114.0
3396,F#2,241.505,0.062,114,114.0
3397,E4,241.75,0.125,78,114.0
3398,B3,241.75,271/1000,78,114.0
3399,G1,241.75,73/500,70,114.0
3400,F#2,241.76,0.062,114,114.0
3401,E3,242.0,0.125,78,114.0
3402,E4,242.0,69/250,92,114.0
3403,E2,242.005,0.062,127,114.0
3404,F#2,242.016,0.062,114,114.0
3405,B1,242.021,0.125,70,114.0
3406,E4,242.25,0.125,78,114.0
3407,G3,242.25,339/1000,92,114.0
3408,C2,242.495,0.062,127,114.0
3409,B-2,242.495,0.062,114,114.0
3410,E4,242.5,0.125,78,114.0
3411,B3,242.5,143/500,92,114.0
3412,B1,242.5,73/500,70,114.0
3413,G3,242.5,341/500,106,114.0
3414,E4,242.5,341/500,106,114.0
3415,B1,242.74,0.156,70,114.0
3416,E3,242.75,0.125,78,114.0
3417,E4,242.75,159/500,96,114.0
3418,E4,243.0,0.125,78,114.0
3419,G3,243.0,177/500,94,114.0
3420,E2,243.0,73/500,70,114.0
3421,E3,243.25,0.125,78,114.0
3422,B3,243.25,0.312,88,114.0
3423,A3,243.25,0.672,104,114.0
3424,F#4,243.25,0.672,104,114.0
3425,E2,243.495,0.062,127,114.0
3426,C#3,243.495,0.062,117,114.0
3427,E4,243.5,0.125,78,114.0
3428,E4,243.5,151/500,89,114.0
3429,E2,243.5,73/500,70,114.0
3430,E4,243.75,0.125,78,114.0
3431,G3,243.75,167/1000,89,114.0
3432,E2,243.75,73/500,70,114.0
3433,C2,244.0,0.062,127,114.0
3434,C#3,244.0,0.062,117,114.0
3435,C3,244.0,0.125,78,114.0
3436,B3,244.0,0.297,93,114.0
3437,C2,244.0,73/500,70,114.0
3438,G4,244.0,1909/500,94,114.0
3439,E4,244.0,1909/500,94,114.0
3440,B3,244.0,1909/500,94,114.0
3441,C4,244.25,0.125,78,114.0
3442,C4,244.25,229/1000,70,114.0
3443,F#2,244.276,0.062,114,114.0
3444,C2,244.49,0.156,70,114.0
3445,C4,244.5,0.125,78,114.0
3446,E4,244.5,51/200,81,114.0
3447,B-2,244.516,0.062,114,114.0
3448,E4,244.547,271/1000,127,114.0
3449,E5,244.547,271/1000,127,114.0
3450,C3,244.75,0.125,78,114.0
3451,B3,244.75,0.328,101,114.0
3452,D4,244.75,229/1000,127,114.0
3453,D5,244.75,229/1000,127,114.0
3454,C2,244.76,27/200,70,114.0
3455,F#2,244.771,0.062,114,114.0
3456,C4,245.0,0.125,78,114.0
3457,C4,245.0,13/50,85,114.0
3458,E2,245.0,73/500,70,114.0
3459,E2,245.016,0.062,127,114.0
3460,F#2,245.016,0.062,114,114.0
3461,C3,245.25,0.125,78,114.0
3462,E4,245.25,0.25,86,114.0
3463,F#2,245.26,0.062,114,114.0
3464,D4,245.26,0.281,127,114.0
3465,D5,245.266,99/500,127,114.0
3466,B4,245.469,99/500,127,114.0
3467,B3,245.469,99/500,127,114.0
3468,C4,245.5,0.125,78,114.0
3469,B3,245.5,323/1000,96,114.0
3470,E2,245.5,73/500,70,114.0
3471,B-2,245.51,0.062,114,114.0
3472,E2,245.74,0.156,70,114.0
3473,C4,245.75,0.125,78,114.0
3474,C4,245.75,13/50,81,114.0
3475,F#2,245.766,0.062,114,114.0
3476,A3,245.99,193/1000,127,114.0
3477,A4,245.99,193/1000,127,114.0
3478,C3,246.0,0.125,78,114.0
3479,E4,246.0,143/500,80,114.0
3480,C2,246.01,0.062,127,114.0
3481,F#2,246.01,0.062,114,114.0
3482,G2,246.01,27/200,70,114.0
3483,F#2,246.25,0.062,114,114.0
3484,C4,246.25,0.125,78,114.0
3485,B3,246.25,177/500,78,114.0
3486,G3,246.458,0.203,127,114.0
3487,G4,246.458,0.203,127,114.0
3488,B-2,246.495,0.062,114,114.0
3489,C4,246.5,0.125,78,114.0
3490,C4,246.5,143/500,74,114.0
3491,G2,246.5,73/500,70,114.0
3492,F#2,246.745,0.062,114,114.0
3493,C3,246.75,0.125,78,114.0
3494,E4,246.75,0.281,71,114.0
3495,G2,246.75,73/500,70,114.0
3496,C4,247.0,0.125,78,114.0
3497,B3,247.0,339/1000,96,114.0
3498,C3,247.01,27/200,70,114.0
3499,E2,247.021,0.062,127,114.0
3500,F#2,247.021,0.062,114,114.0
3501,F#2,247.245,0.062,114,114.0
3502,C3,247.25,0.125,78,114.0
3503,C4,247.25,151/500,65,114.0
3504,C4,247.5,0.125,78,114.0
3505,E4,247.5,0.234,76,114.0
3506,B-2,247.505,0.062,114,114.0
3507,C3,247.51,27/200,70,114.0
3508,C4,247.75,0.125,78,114.0
3509,B3,247.75,0.25,83,114.0
3510,F#2,247.755,0.062,114,114.0
3511,C3,247.76,27/200,70,114.0
3512,A2,248.0,0.125,78,114.0
3513,C4,248.0,13/50,64,114.0
3514,B3,248.0,89/1000,83,114.0
3515,B3,248.0,1763/500,95,114.0
3516,E4,248.0,1763/500,95,114.0
3517,G4,248.0,1763/500,95,114.0
3518,C2,248.016,0.062,127,114.0
3519,F#2,248.016,0.062,114,114.0
3520,A1,248.021,0.125,70,114.0
3521,C#3,248.026,0.062,117,114.0
3522,A3,248.25,0.125,78,114.0
3523,E4,248.25,73/250,72,114.0
3524,F#2,248.26,0.062,114,114.0
3525,A3,248.5,0.125,78,114.0
3526,B3,248.5,349/1000,94,114.0
3527,A1,248.5,73/500,70,114.0
3528,B-2,248.505,0.062,114,114.0
3529,E4,248.505,271/1000,127,114.0
3530,E5,248.505,271/1000,127,114.0
3531,D5,248.724,0.203,127,114.0
3532,D4,248.724,0.203,127,114.0
3533,A1,248.74,0.156,70,114.0
3534,A2,248.75,0.125,78,114.0
3535,C4,248.75,151/500,73,114.0
3536,F#2,248.755,0.062,114,114.0
3537,A3,249.0,0.125,78,114.0
3538,E4,249.0,0.25,81,114.0
3539,E2,249.021,0.062,127,114.0
3540,F#2,249.021,0.062,114,114.0
3541,C2,249.021,0.125,70,114.0
3542,A2,249.25,0.125,78,114.0
3543,B3,249.25,0.328,86,114.0
3544,D5,249.25,229/1000,127,114.0
3545,F#2,249.255,0.062,114,114.0
3546,D4,249.255,151/500,127,114.0
3547,A3,249.5,0.125,78,114.0
3548,C4,249.5,143/500,71,114.0
3549,C2,249.5,73/500,70,114.0
3550,B3,249.5,91/500,127,114.0
3551,B4,249.5,91/500,127,114.0
3552,B-2,249.505,0.062,114,114.0
3553,A3,249.75,0.125,78,114.0
3554,E4,249.75,73/250,74,114.0
3555,C2,249.75,73/500,70,114.0
3556,F#2,249.755,0.062,114,114.0
3557,A3,249.979,0.266,127,114.0
3558,A4,249.979,0.266,127,114.0
3559,A2,250.0,0.125,78,114.0
3560,B3,250.0,99/250,86,114.0
3561,C2,250.005,0.062,127,114.0
3562,E2,250.01,27/200,70,114.0
3563,F#2,250.016,0.062,114,114.0
3564,B3,250.182,0.219,127,114.0
3565,B4,250.182,0.219,127,114.0
3566,F#2,250.245,0.062,114,114.0
3567,A3,250.25,0.125,78,114.0
3568,C4,250.25,0.281,67,114.0
3569,G3,250.448,51/200,127,114.0
3570,G4,250.448,51/200,127,114.0
3571,A3,250.5,0.125,78,114.0
3572,E4,250.5,0.25,75,114.0
3573,B-2,250.51,0.062,114,114.0
3574,E2,250.51,27/200,70,114.0
3575,F#2,250.75,0.062,114,114.0
3576,A2,250.75,0.125,78,114.0
3577,B3,250.75,177/500,94,114.0
3578,E2,250.76,27/200,70,114.0
3579,A3,251.0,0.125,78,114.0
3580,C4,251.0,307/1000,78,114.0
3581,E2,251.01,0.062,127,114.0
3582,F#2,251.021,0.062,114,114.0
3583,A2,251.021,0.125,70,114.0
3584,F#2,251.245,0.062,114,114.0
3585,A2,251.25,0.125,78,114.0
3586,E4,251.25,49/200,78,114.0
3587,B-2,251.5,0.062,114,114.0
3588,A3,251.5,0.125,78,114.0
3589,B3,251.5,307/1000,94,114.0
3590,A2,251.521,0.125,70,114.0
3591,F#2,251.745,0.062,114,114.0
3592,A3,251.75,0.125,78,114.0
3593,C4,251.75,91/500,68,114.0
3594,A2,251.771,0.125,70,114.0
3595,G5,251.974,13/500,127,114.0
3596,B4,251.974,13/500,127,114.0
3597,B5,251.974,13/500,127,114.0
3598,E-5,251.974,13/500,127,114.0
3599,C2,252.0,0.062,127,114.0
3600,F#2,252.0,0.062,114,114.0
3601,C#3,252.0,0.062,117,114.0
3602,B2,252.0,0.125,78,114.0
3603,B3,252.0,0.312,116,114.0
3604,B1,252.0,73/500,70,114.0
3605,B3,252.0,0.562,116,114.0
3606,E-4,252.0,0.562,116,114.0
3607,G4,252.0,0.562,116,114.0
3608,G5,252.0,58/125,127,114.0
3609,B4,252.0,58/125,127,114.0
3610,B5,252.0,58/125,127,114.0
3611,E-5,252.0,58/125,127,114.0
3612,F#2,252.245,0.062,114,114.0
3613,B3,252.25,0.125,78,114.0
3614,E-4,252.25,13/50,97,114.0
3615,B1,252.49,0.156,70,114.0
3616,B-2,252.495,0.062,114,114.0
3617,B3,252.5,0.125,78,114.0
3618,F#4,252.5,0.25,95,114.0
3619,B5,252.62,229/1000,127,114.0
3620,E-5,252.62,229/1000,127,114.0
3621,B4,252.62,229/1000,127,114.0
3622,G5,252.62,229/1000,127,114.0
3623,B3,252.667,49/200,116,114.0
3624,E-4,252.667,49/200,116,114.0
3625,G4,252.667,49/200,116,114.0
3626,F#2,252.75,0.062,114,114.0
3627,B2,252.75,0.125,78,114.0
3628,B3,252.75,417/1000,88,114.0
3629,B1,252.75,73/500,70,114.0
3630,B3,253.0,0.125,78,114.0
3631,E-4,253.0,0.344,95,114.0
3632,E2,253.005,0.062,127,114.0
3633,F#2,253.005,0.062,114,114.0
3634,E-2,253.01,27/200,70,114.0
3635,F#2,253.25,0.062,114,114.0
3636,B2,253.25,0.125,78,114.0
3637,F#4,253.25,6/25,76,114.0
3638,B-2,253.5,0.062,114,114.0
3639,B3,253.5,0.125,78,114.0
3640,B3,253.5,37/100,99,114.0
3641,E-2,253.5,73/500,70,114.0
3642,F#2,253.745,0.062,114,114.0
3643,B3,253.75,0.125,78,114.0
3644,E-4,253.75,0.344,103,114.0
3645,E-2,253.75,73/500,70,114.0
3646,F#2,253.99,0.156,70,114.0
3647,B2,254.0,0.125,78,114.0
3648,F#4,254.0,26/125,110,114.0
3649,C2,254.005,0.062,127,114.0
3650,F#2,254.005,0.062,114,114.0
3651,F#2,254.245,0.062,114,114.0
3652,B3,254.25,0.125,78,114.0
3653,B3,254.25,0.328,101,114.0
3654,B-2,254.495,0.062,114,114.0
3655,B3,254.5,0.125,78,114.0
3656,E-4,254.5,0.328,99,114.0
3657,F#2,254.51,27/200,70,114.0
3658,F#2,254.75,0.062,114,114.0
3659,B2,254.75,0.125,78,114.0
3660,F#4,254.75,0.266,97,114.0
3661,F#2,254.75,73/500,70,114.0
3662,B3,255.0,0.125,78,114.0
3663,B3,255.0,401/1000,96,114.0
3664,B2,255.0,73/500,70,114.0
3665,E2,255.005,0.062,127,114.0
3666,F#2,255.005,0.062,114,114.0
3667,F#2,255.25,0.062,114,114.0
3668,B2,255.25,0.125,78,114.0
3669,E-4,255.25,271/1000,74,114.0
3670,B2,255.49,0.156,70,114.0
3671,B-2,255.5,0.062,114,114.0
3672,B3,255.5,0.125,78,114.0
3673,F#4,255.5,0.188,107,114.0
3674,F#2,255.745,0.062,114,114.0
3675,B3,255.75,0.125,78,114.0
3676,B2,255.76,27/200,70,114.0
3677,E3,256.0,99/500,99,114.0
3678,G#4,256.0,1.25,114,114.0
3679,B4,256.0,1.25,114,114.0
3680,C2,256.005,0.062,127,114.0
3681,C#3,256.005,0.062,117,114.0
3682,E3,256.01,1.516,110,114.0
3683,B3,256.01,1.516,110,114.0
3684,E3,256.01,1.516,110,114.0
3685,E1,256.021,0.125,70,114.0
3686,E3,256.021,299/200,121,114.0
3687,E4,256.021,299/200,121,114.0
3688,B3,256.021,299/200,121,114.0
3689,E4,256.073,299/200,125,114.0
3690,B3,256.073,299/200,125,114.0
3691,E3,256.25,0.297,88,114.0
3692,G3,256.5,107/500,76,114.0
3693,E1,256.5,73/500,70,114.0
3694,F#2,256.505,0.062,114,114.0
3695,E3,256.75,49/200,66,114.0
3696,E1,256.75,73/500,70,114.0
3697,E1,256.99,0.156,70,114.0
3698,F#2,256.995,0.062,114,114.0
3699,A3,257.0,0.234,88,114.0
3700,E3,257.25,143/500,80,114.0
3701,A4,257.458,1.875,114,114.0
3702,F#4,257.458,1.875,114,114.0
3703,D3,257.49,1.922,118,114.0
3704,D4,257.49,1.922,118,114.0
3705,A3,257.49,1.922,118,114.0
3706,B3,257.5,193/1000,99,114.0
3707,C2,257.505,0.062,127,114.0
3708,B-2,257.505,0.062,114,114.0
3709,E1,257.51,27/200,70,114.0
3710,D3,257.521,1.906,106,114.0
3711,A3,257.521,1.906,106,114.0
3712,D3,257.521,1.906,106,114.0
3713,D4,257.521,1.906,106,114.0
3714,A3,257.542,1229/500,120,114.0
3715,E3,257.75,91/500,94,114.0
3716,E1,257.75,73/500,70,114.0
3717,F#2,258.0,0.062,114,114.0
3718,E3,258.0,0.25,95,114.0
3719,D1,258.0,73/500,70,114.0
3720,E3,258.25,0.25,101,114.0
3721,D1,258.49,0.156,70,114.0
3722,F#2,258.5,0.062,114,114.0
3723,G3,258.5,0.25,101,114.0
3724,E3,258.75,0.25,95,114.0
3725,D1,258.76,27/200,70,114.0
3726,A3,259.0,0.25,92,114.0
3727,F#2,259.005,0.062,114,114.0
3728,D1,259.021,0.125,70,114.0
3729,E3,259.25,0.25,90,114.0
3730,C4,259.422,0.578,118,114.0
3731,G3,259.422,0.578,118,114.0
3732,C3,259.427,573/1000,125,114.0
3733,G3,259.427,573/1000,125,114.0
3734,C4,259.458,271/500,118,114.0
3735,G3,259.458,271/500,118,114.0
3736,C3,259.464,67/125,125,114.0
3737,C3,259.495,101/200,97,114.0
3738,B3,259.5,0.25,90,114.0
3739,D1,259.5,73/500,70,114.0
3740,C2,259.505,0.062,127,114.0
3741,C#3,259.505,0.062,117,114.0
3742,E4,259.542,229/500,114,114.0
3743,G4,259.542,229/500,114,114.0
3744,E3,259.75,0.25,90,114.0
3745,D1,259.75,73/500,70,114.0
3746,A3,260.0,187/50,120,114.0
3747,C3,260.0,3.75,125,114.0
3748,C3,260.0,983/250,97,114.0
3749,C2,260.0,73/500,70,114.0
3750,E4,260.0,3667/1000,114,114.0
3751,G4,260.0,3667/1000,114,114.0
3752,C4,260.0,3.859,118,114.0
3753,G3,260.0,3.859,118,114.0
3754,C4,260.0,3823/1000,118,114.0
3755,G3,260.0,3823/1000,118,114.0
3756,C3,260.0,3.828,125,114.0
3757,G3,260.0,3.828,125,114.0
3758,C2,260.5,0.062,127,114.0
3759,C2,260.5,73/500,70,114.0
3760,C2,260.74,0.156,70,114.0
3761,C2,260.99,0.156,70,114.0
3762,C2,261.5,0.062,127,114.0
3763,C2,261.5,73/500,70,114.0
3764,C2,261.75,73/500,70,114.0
3765,C2,262.0,73/500,70,114.0
3766,C2,262.5,0.062,127,114.0
3767,C2,262.51,27/200,70,114.0
3768,C2,262.76,27/200,70,114.0
3769,C2,263.0,73/500,70,114.0
3770,E2,263.005,0.062,127,114.0
3771,B-2,263.005,0.062,114,114.0
3772,C2,263.5,73/500,70,114.0
3773,C2,263.74,0.156,70,114.0
3774,B4,263.958,21/500,114,114.0
3775,G#4,263.958,21/500,114,114.0
3776,E3,263.969,0.031,125,114.0
3777,B3,263.969,0.031,125,114.0
3778,E4,263.969,0.031,125,114.0
3779,B4,264.0,1.25,114,114.0
3780,G#4,264.0,1.25,114,114.0
3781,E3,264.0,1.438,125,114.0
3782,B3,264.0,1.438,125,114.0
3783,E4,264.0,1.438,125,114.0
3784,E3,264.005,1.469,119,114.0
3785,B3,264.005,1.469,119,114.0
3786,E3,264.005,1.469,119,114.0
3787,B3,264.005,1.469,119,114.0
3788,E4,264.005,1.469,119,114.0
3789,C2,264.021,0.062,127,114.0
3790,E1,264.021,0.125,70,114.0
3791,C#3,264.031,0.062,117,114.0
3792,E1,264.5,73/500,70,114.0
3793,F#2,264.505,0.062,114,114.0
3794,E1,264.75,73/500,70,114.0
3795,F#2,265.005,0.062,114,114.0
3796,E1,265.01,27/200,70,114.0
3797,D3,265.49,1.938,120,114.0
3798,C2,265.505,0.062,127,114.0
3799,E-3,265.505,0.062,119,114.0
3800,D4,265.505,2.016,111,114.0
3801,A3,265.51,349/200,116,114.0
3802,E1,265.51,27/200,70,114.0
3803,D3,265.526,1823/1000,114,114.0
3804,D3,265.526,1823/1000,114,114.0
3805,A3,265.526,1823/1000,114,114.0
3806,D4,265.542,2.016,111,114.0
3807,A3,265.542,1.75,100,114.0
3808,A4,265.542,224/125,114,114.0
3809,F#4,265.542,224/125,114,114.0
3810,E1,265.76,27/200,70,114.0
3811,F#2,266.0,0.062,114,114.0
3812,D1,266.021,0.125,70,114.0
3813,F#2,266.5,0.062,114,114.0
3814,D1,266.5,73/500,70,114.0
3815,D1,266.729,167/1000,70,114.0
3816,D1,267.0,73/500,70,114.0
3817,F#2,267.005,0.062,114,114.0
3818,E3,267.438,0.562,105,114.0
3819,A2,267.438,0.562,105,114.0
3820,A3,267.438,0.562,105,114.0
3821,E3,267.474,263/500,95,114.0
3822,A2,267.474,263/500,95,114.0
3823,D1,267.49,0.156,70,114.0
3824,C#4,267.5,0.5,114,114.0
3825,E4,267.5,0.5,114,114.0
3826,C2,267.51,0.062,127,114.0
3827,C#3,267.51,0.062,117,114.0
3828,A3,267.51,49/100,116,114.0
3829,C#3,267.51,49/100,116,114.0
3830,A3,267.542,229/500,106,114.0
3831,D1,267.75,73/500,70,114.0
3832,C#4,268.0,474/125,114,114.0
3833,E4,268.0,4.0,114,114.0
3834,A3,268.0,2013/500,106,114.0
3835,A1,268.0,73/500,70,114.0
3836,E3,268.0,2013/500,95,114.0
3837,A2,268.0,2013/500,95,114.0
3838,A3,268.0,3901/1000,116,114.0
3839,C#3,268.0,3901/1000,116,114.0
3840,E3,268.0,3.953,105,114.0
3841,A2,268.0,3.953,105,114.0
3842,A3,268.0,3.953,105,114.0
3843,C2,268.5,0.062,127,114.0
3844,A1,268.5,73/500,70,114.0
3845,A1,268.75,73/500,70,114.0
3846,A1,268.99,0.156,70,114.0
3847,C2,269.495,0.062,127,114.0
3848,A1,269.5,73/500,70,114.0
3849,A1,269.75,73/500,70,114.0
3850,G4,269.969,521/1000,125,114.0
3851,C2,270.0,73/500,70,114.0
3852,G4,270.005,521/1000,125,114.0
3853,F#4,270.438,58/125,125,114.0
3854,F#4,270.474,58/125,125,114.0
3855,C2,270.49,0.156,70,114.0
3856,C2,270.5,0.062,127,114.0
3857,C2,270.75,73/500,70,114.0
3858,E4,270.917,0.875,125,114.0
3859,E4,270.953,0.875,125,114.0
3860,C2,271.005,0.062,127,114.0
3861,E2,271.005,0.062,127,114.0
3862,C2,271.01,27/200,70,114.0
3863,B-2,271.016,0.062,114,114.0
3864,F2,271.016,0.062,119,114.0
3865,C2,271.5,73/500,70,114.0
3866,C2,271.75,73/500,70,114.0
3867,G1,271.99,1/100,70,114.0
3868,C2,272.0,0.062,127,114.0
3869,C#3,272.0,0.062,117,114.0
3870,G1,272.0,73/500,70,114.0
3871,B3,272.0,0.5,93,114.0
3872,G3,272.0,0.5,93,114.0
3873,D4,272.0,0.5,93,114.0
3874,D4,272.0,0.891,106,114.0
3875,G4,272.0,0.891,106,114.0
3876,B3,272.0,0.891,106,114.0
3877,G4,272.021,1987/500,104,114.0
3878,G5,272.021,1987/500,104,114.0
3879,G4,272.083,3943/1000,104,114.0
3880,G5,272.083,3943/1000,104,114.0
3881,F#2,272.505,0.062,114,114.0
3882,G1,272.51,27/200,70,114.0
3883,F#2,272.75,0.062,114,114.0
3884,G1,272.75,73/500,70,114.0
3885,G3,272.75,0.125,93,114.0
3886,B3,272.75,0.125,93,114.0
3887,D4,272.75,0.125,93,114.0
3888,B1,273.0,73/500,70,114.0
3889,B3,273.0,0.125,93,114.0
3890,G3,273.0,0.125,93,114.0
3891,D4,273.0,0.125,93,114.0
3892,E2,273.005,0.062,127,114.0
3893,B3,273.5,0.125,93,114.0
3894,D4,273.5,0.125,93,114.0
3895,G3,273.5,0.125,93,114.0
3896,B1,273.51,27/200,70,114.0
3897,F#2,273.526,0.062,114,114.0
3898,G3,273.75,0.125,93,114.0
3899,D4,273.75,0.125,93,114.0
3900,B3,273.75,0.125,93,114.0
3901,F#2,273.755,0.062,114,114.0
3902,B1,273.76,27/200,70,114.0
3903,C2,274.005,0.062,127,114.0
3904,D2,274.021,0.125,70,114.0
3905,D2,274.5,73/500,70,114.0
3906,B3,274.5,0.125,93,114.0
3907,D4,274.5,0.125,93,114.0
3908,G3,274.5,0.125,93,114.0
3909,F#2,274.505,0.062,114,114.0
3910,F#2,274.745,0.062,114,114.0
3911,D2,274.75,73/500,70,114.0
3912,B3,275.0,0.375,106,114.0
3913,G4,275.0,0.375,106,114.0
3914,D4,275.0,0.375,106,114.0
3915,E2,275.005,0.062,127,114.0
3916,G2,275.01,27/200,70,114.0
3917,G3,275.25,0.125,93,114.0
3918,D4,275.25,0.125,93,114.0
3919,B3,275.25,0.125,93,114.0
3920,F#2,275.5,0.062,114,114.0
3921,G2,275.5,73/500,70,114.0
3922,G2,275.729,167/1000,70,114.0
3923,F#2,275.75,0.062,114,114.0
3924,C2,275.995,1/200,127,114.0
3925,F#2,275.995,1/200,114,114.0
3926,C2,276.0,57/1000,127,114.0
3927,F#2,276.0,57/1000,114,114.0
3928,D4,276.0,0.5,93,114.0
3929,A3,276.0,0.5,93,114.0
3930,F3,276.0,0.5,93,114.0
3931,A3,276.0,393/500,111,114.0
3932,F4,276.0,393/500,111,114.0
3933,C4,276.0,393/500,111,114.0
3934,F1,276.021,0.125,70,114.0
3935,G4,276.026,0.031,104,114.0
3936,G5,276.026,0.031,104,114.0
3937,F1,276.5,73/500,70,114.0
3938,F#2,276.51,0.062,114,114.0
3939,F1,276.729,167/1000,70,114.0
3940,F#2,276.734,0.062,114,114.0
3941,A3,276.75,0.125,93,114.0
3942,F3,276.75,0.125,93,114.0
3943,C4,276.75,0.125,93,114.0
3944,A1,276.99,0.156,70,114.0
3945,A3,277.0,0.125,93,114.0
3946,F3,277.0,0.125,93,114.0
3947,D4,277.0,0.125,93,114.0
3948,E2,277.005,0.062,127,114.0
3949,F#2,277.016,0.062,114,114.0
3950,F#2,277.5,0.062,114,114.0
3951,A1,277.5,73/500,70,114.0
3952,D4,277.5,0.125,93,114.0
3953,F3,277.5,0.125,93,114.0
3954,A3,277.5,0.125,93,114.0
3955,A1,277.729,167/1000,70,114.0
3956,F#2,277.75,0.062,114,114.0
3957,F3,277.75,0.125,93,114.0
3958,D4,277.75,0.125,93,114.0
3959,A3,277.75,0.125,93,114.0
3960,C2,278.0,73/500,70,114.0
3961,C2,278.01,0.062,127,114.0
3962,F#2,278.01,0.062,114,114.0
3963,F#2,278.5,0.062,114,114.0
3964,C2,278.5,73/500,70,114.0
3965,F3,278.5,0.125,93,114.0
3966,D4,278.5,0.125,93,114.0
3967,A3,278.5,0.125,93,114.0
3968,C2,278.74,0.156,70,114.0
3969,F#2,278.75,0.062,114,114.0
3970,A3,279.0,0.344,101,114.0
3971,C4,279.0,0.344,101,114.0
3972,F4,279.0,0.344,101,114.0
3973,E2,279.01,0.062,127,114.0
3974,F#2,279.01,0.062,114,114.0
3975,F2,279.01,27/200,70,114.0
3976,F3,279.25,0.125,93,114.0
3977,D4,279.25,0.125,93,114.0
3978,A3,279.25,0.125,93,114.0
3979,F#2,279.5,0.062,114,114.0
3980,F2,279.5,73/500,70,114.0
3981,F#2,279.75,0.062,114,114.0
3982,F2,279.75,73/500,70,114.0
3983,G4,280.0,0.5,93,114.0
3984,C4,280.0,0.5,93,114.0
3985,E4,280.0,0.5,93,114.0
3986,C4,280.0,409/500,104,114.0
3987,E4,280.0,409/500,104,114.0
3988,G3,280.0,409/500,104,114.0
3989,C2,280.005,0.062,127,114.0
3990,F#2,280.005,0.062,114,114.0
3991,C2,280.01,27/200,70,114.0
3992,F#2,280.495,0.062,114,114.0
3993,C2,280.51,27/200,70,114.0
3994,C2,280.75,73/500,70,114.0
3995,G4,280.75,0.125,93,114.0
3996,E4,280.75,0.125,93,114.0
3997,C4,280.75,0.125,93,114.0
3998,F#2,280.755,0.062,114,114.0
3999,C4,281.0,0.125,93,114.0
4000,G4,281.0,0.125,93,114.0
4001,E4,281.0,0.125,93,114.0
4002,E2,281.005,0.062,127,114.0
4003,F#2,281.016,0.062,114,114.0
4004,E2,281.021,0.125,70,114.0
4005,F#2,281.495,0.062,114,114.0
4006,E2,281.5,73/500,70,114.0
4007,G4,281.5,0.125,93,114.0
4008,E4,281.5,0.125,93,114.0
4009,C4,281.5,0.125,93,114.0
4010,E2,281.74,0.156,70,114.0
4011,F#2,281.75,0.062,114,114.0
4012,G4,281.75,0.125,93,114.0
4013,C4,281.75,0.125,93,114.0
4014,E4,281.75,0.125,93,114.0
4015,C2,282.005,0.062,127,114.0
4016,F#2,282.005,0.062,114,114.0
4017,G2,282.021,0.125,70,114.0
4018,G2,282.479,167/1000,70,114.0
4019,F#2,282.495,0.062,114,114.0
4020,C4,282.5,0.125,93,114.0
4021,G4,282.5,0.125,93,114.0
4022,E4,282.5,0.125,93,114.0
4023,G2,282.729,167/1000,70,114.0
4024,F#2,282.745,0.062,114,114.0
4025,C3,283.0,73/500,70,114.0
4026,E4,283.0,0.312,110,114.0
4027,C4,283.0,0.312,110,114.0
4028,G3,283.0,0.312,110,114.0
4029,E2,283.005,0.062,127,114.0
4030,F#2,283.005,0.062,114,114.0
4031,C4,283.25,0.125,93,114.0
4032,G4,283.25,0.125,93,114.0
4033,E4,283.25,0.125,93,114.0
4034,F#2,283.495,0.062,114,114.0
4035,C3,283.521,0.125,70,114.0
4036,C3,283.729,167/1000,70,114.0
4037,F#2,283.745,0.062,114,114.0
4038,D2,283.99,1/100,70,114.0
4039,C2,284.0,0.062,127,114.0
4040,F#2,284.0,0.062,114,114.0
4041,D2,284.0,73/500,70,114.0
4042,F#4,284.0,0.5,93,114.0
4043,D4,284.0,0.5,93,114.0
4044,A4,284.0,0.5,93,114.0
4045,A3,284.0,839/1000,100,114.0
4046,F#4,284.0,839/1000,100,114.0
4047,D4,284.0,839/1000,100,114.0
4048,F#2,284.5,0.062,114,114.0
4049,D2,284.5,73/500,70,114.0
4050,F#2,284.75,0.062,114,114.0
4051,D2,284.75,73/500,70,114.0
4052,A4,284.75,0.125,93,114.0
4053,D4,284.75,0.125,93,114.0
4054,F#4,284.75,0.125,93,114.0
4055,F#2,285.0,73/500,70,114.0
4056,A4,285.0,0.125,93,114.0
4057,F#4,285.0,0.125,93,114.0
4058,D4,285.0,0.125,93,114.0
4059,E2,285.005,0.062,127,114.0
4060,F#2,285.021,0.062,114,114.0
4061,F#2,285.49,0.156,70,114.0
4062,F#2,285.5,0.062,114,114.0
4063,F#4,285.5,0.125,93,114.0
4064,D4,285.5,0.125,93,114.0
4065,A4,285.5,0.125,93,114.0
4066,F#2,285.75,0.062,114,114.0
4067,F#4,285.75,0.125,93,114.0
4068,A4,285.75,0.125,93,114.0
4069,D4,285.75,0.125,93,114.0
4070,F#2,285.76,27/200,70,114.0
4071,C2,286.01,0.062,127,114.0
4072,F#2,286.01,0.062,114,114.0
4073,A2,286.01,27/200,70,114.0
4074,F#2,286.495,0.062,114,114.0
4075,A2,286.5,73/500,70,114.0
4076,F#4,286.5,0.125,93,114.0
4077,A4,286.5,0.125,93,114.0
4078,D4,286.5,0.125,93,114.0
4079,A2,286.74,0.156,70,114.0
4080,F#2,286.745,0.062,114,114.0
4081,A3,287.0,427/1000,105,114.0
4082,D4,287.0,427/1000,105,114.0
4083,F#4,287.0,427/1000,105,114.0
4084,E2,287.005,0.062,127,114.0
4085,F#2,287.005,0.062,114,114.0
4086,D3,287.01,27/200,70,114.0
4087,B5,287.031,0.969,109,114.0
4088,B4,287.031,0.969,109,114.0
4089,B5,287.094,233/250,109,114.0
4090,B4,287.094,233/250,109,114.0
4091,A4,287.25,0.125,93,114.0
4092,F#4,287.25,0.125,93,114.0
4093,D4,287.25,0.125,93,114.0
4094,F#2,287.5,0.062,114,114.0
4095,D3,287.5,73/500,70,114.0
4096,F#2,287.745,0.062,114,114.0
4097,D3,287.75,73/500,70,114.0
4098,C2,288.0,0.062,127,114.0
4099,C#3,288.0,0.062,117,114.0
4100,B3,288.0,0.5,93,114.0
4101,G3,288.0,0.5,93,114.0
4102,D4,288.0,0.5,93,114.0
4103,B5,288.0,3.094,109,114.0
4104,B4,288.0,3.094,109,114.0
4105,B3,288.0,177/200,101,114.0
4106,D4,288.0,177/200,101,114.0
4107,G4,288.0,177/200,101,114.0
4108,G1,288.021,0.125,70,114.0
4109,B5,288.026,313/100,109,114.0
4110,B4,288.026,313/100,109,114.0
4111,G1,288.49,0.156,70,114.0
4112,F#2,288.495,0.062,114,114.0
4113,F#2,288.745,0.062,114,114.0
4114,G3,288.75,0.125,93,114.0
4115,B3,288.75,0.125,93,114.0
4116,D4,288.75,0.125,93,114.0
4117,G1,288.76,27/200,70,114.0
4118,E2,288.995,0.062,127,114.0
4119,B3,289.0,0.125,93,114.0
4120,G3,289.0,0.125,93,114.0
4121,D4,289.0,0.125,93,114.0
4122,B1,289.021,0.125,70,114.0
4123,F#2,289.495,0.062,114,114.0
4124,B3,289.5,0.125,93,114.0
4125,D4,289.5,0.125,93,114.0
4126,G3,289.5,0.125,93,114.0
4127,B1,289.521,0.125,70,114.0
4128,B1,289.729,167/1000,70,114.0
4129,F#2,289.75,0.062,114,114.0
4130,G3,289.75,0.125,93,114.0
4131,D4,289.75,0.125,93,114.0
4132,B3,289.75,0.125,93,114.0
4133,D2,289.99,0.156,70,114.0
4134,C2,290.016,0.062,127,114.0
4135,D2,290.49,0.156,70,114.0
4136,F#2,290.5,0.062,114,114.0
4137,B3,290.5,0.125,93,114.0
4138,D4,290.5,0.125,93,114.0
4139,G3,290.5,0.125,93,114.0
4140,D2,290.729,167/1000,70,114.0
4141,F#2,290.76,0.062,114,114.0
4142,G2,291.0,73/500,70,114.0
4143,B3,291.0,401/1000,112,114.0
4144,D4,291.0,401/1000,112,114.0
4145,G4,291.0,401/1000,112,114.0
4146,E2,291.005,0.062,127,114.0
4147,G3,291.25,0.125,93,114.0
4148,D4,291.25,0.125,93,114.0
4149,B3,291.25,0.125,93,114.0
4150,F#2,291.495,0.062,114,114.0
4151,G2,291.5,73/500,70,114.0
4152,G2,291.729,167/1000,70,114.0
4153,F#2,291.755,0.062,114,114.0
4154,F1,292.0,73/500,70,114.0
4155,D4,292.0,0.5,93,114.0
4156,A3,292.0,0.5,93,114.0
4157,F3,292.0,0.5,93,114.0
4158,A3,292.0,0.828,109,114.0
4159,F4,292.0,0.828,109,114.0
4160,C4,292.0,0.828,109,114.0
4161,C2,292.01,0.062,127,114.0
4162,F#2,292.01,0.062,114,114.0
4163,F#2,292.495,0.062,114,114.0
4164,F1,292.51,27/200,70,114.0
4165,F#2,292.745,0.062,114,114.0
4166,F1,292.75,73/500,70,114.0
4167,A3,292.75,0.125,93,114.0
4168,F3,292.75,0.125,93,114.0
4169,C4,292.75,0.125,93,114.0
4170,A1,293.0,73/500,70,114.0
4171,A3,293.0,0.125,93,114.0
4172,F3,293.0,0.125,93,114.0
4173,D4,293.0,0.125,93,114.0
4174,E2,293.005,0.062,127,114.0
4175,F#2,293.005,0.062,114,114.0
4176,A1,293.49,0.156,70,114.0
4177,F#2,293.495,0.062,114,114.0
4178,D4,293.5,0.125,93,114.0
4179,F3,293.5,0.125,93,114.0
4180,A3,293.5,0.125,93,114.0
4181,A1,293.74,0.156,70,114.0
4182,F#2,293.75,0.062,114,114.0
4183,F3,293.75,0.125,93,114.0
4184,D4,293.75,0.125,93,114.0
4185,A3,293.75,0.125,93,114.0
4186,C2,294.005,0.062,127,114.0
4187,F#2,294.005,0.062,114,114.0
4188,C2,294.01,27/200,70,114.0
4189,F#2,294.495,0.062,114,114.0
4190,C2,294.5,73/500,70,114.0
4191,F3,294.5,0.125,93,114.0
4192,D4,294.5,0.125,93,114.0
4193,A3,294.5,0.125,93,114.0
4194,C2,294.75,73/500,70,114.0
4195,F#2,294.755,0.062,114,114.0
4196,F2,294.99,0.156,70,114.0
4197,C4,295.0,99/250,108,114.0
4198,A3,295.0,99/250,108,114.0
4199,F4,295.0,99/250,108,114.0
4200,E2,295.005,0.062,127,114.0
4201,F#2,295.005,0.062,114,114.0
4202,F3,295.25,0.125,93,114.0
4203,D4,295.25,0.125,93,114.0
4204,A3,295.25,0.125,93,114.0
4205,F#2,295.505,0.062,114,114.0
4206,F2,295.51,27/200,70,114.0
4207,F#2,295.75,0.062,114,114.0
4208,F2,295.75,73/500,70,114.0
4209,G4,296.0,0.5,93,114.0
4210,C4,296.0,0.5,93,114.0
4211,E4,296.0,0.5,93,114.0
4212,C4,296.0,201/200,112,114.0
4213,E4,296.0,201/200,112,114.0
4214,G3,296.0,201/200,112,114.0
4215,C2,296.016,0.062,127,114.0
4216,F#2,296.016,0.062,114,114.0
4217,C2,296.021,0.125,70,114.0
4218,C2,296.49,0.156,70,114.0
4219,F#2,296.495,0.062,114,114.0
4220,C2,296.74,0.156,70,114.0
4221,F#2,296.745,0.062,114,114.0
4222,G4,296.75,0.125,93,114.0
4223,E4,296.75,0.125,93,114.0
4224,C4,296.75,0.125,93,114.0
4225,C4,297.0,0.125,93,114.0
4226,G4,297.0,0.125,93,114.0
4227,E4,297.0,0.125,93,114.0
4228,E2,297.005,0.062,127,114.0
4229,F#2,297.005,0.062,114,114.0
4230,E2,297.021,0.125,70,114.0
4231,E2,297.479,167/1000,70,114.0
4232,F#2,297.495,0.062,114,114.0
4233,G4,297.5,0.125,93,114.0
4234,E4,297.5,0.125,93,114.0
4235,C4,297.5,0.125,93,114.0
4236,E2,297.729,167/1000,70,114.0
4237,F#2,297.745,0.062,114,114.0
4238,G4,297.75,0.125,93,114.0
4239,C4,297.75,0.125,93,114.0
4240,E4,297.75,0.125,93,114.0
4241,G2,298.0,73/500,70,114.0
4242,C2,298.005,0.062,127,114.0
4243,F#2,298.005,0.062,114,114.0
4244,F#2,298.495,0.062,114,114.0
4245,G2,298.5,73/500,70,114.0
4246,C4,298.5,0.125,93,114.0
4247,G4,298.5,0.125,93,114.0
4248,E4,298.5,0.125,93,114.0
4249,G2,298.729,167/1000,70,114.0
4250,F#2,298.745,0.062,114,114.0
4251,C3,299.0,73/500,70,114.0
4252,C4,299.0,0.344,110,114.0
4253,E4,299.0,0.344,110,114.0
4254,G3,299.0,0.344,110,114.0
4255,E2,299.005,0.062,127,114.0
4256,F#2,299.005,0.062,114,114.0
4257,C4,299.25,0.125,93,114.0
4258,G4,299.25,0.125,93,114.0
4259,E4,299.25,0.125,93,114.0
4260,F#2,299.505,0.062,114,114.0
4261,C3,299.521,0.125,70,114.0
4262,F#2,299.745,0.062,114,114.0
4263,C3,299.75,73/500,70,114.0
4264,C2,300.0,0.062,127,114.0
4265,F#2,300.0,0.062,114,114.0
4266,D2,300.0,73/500,70,114.0
4267,F#4,300.0,0.5,93,114.0
4268,D4,300.0,0.5,93,114.0
4269,A4,300.0,0.5,93,114.0
4270,A3,300.0,357/500,101,114.0
4271,F#4,300.0,357/500,101,114.0
4272,D4,300.0,357/500,101,114.0
4273,F#2,300.5,0.062,114,114.0
4274,D2,300.51,27/200,70,114.0
4275,F#2,300.75,0.062,114,114.0
4276,A4,300.75,0.125,93,114.0
4277,D4,300.75,0.125,93,114.0
4278,F#4,300.75,0.125,93,114.0
4279,D2,300.76,27/200,70,114.0
4280,F#2,301.0,73/500,70,114.0
4281,A4,301.0,0.125,93,114.0
4282,F#4,301.0,0.125,93,114.0
4283,D4,301.0,0.125,93,114.0
4284,E2,301.005,0.062,127,114.0
4285,F#2,301.005,0.062,114,114.0
4286,F#2,301.495,0.062,114,114.0
4287,F#2,301.5,73/500,70,114.0
4288,F#4,301.5,0.125,93,114.0
4289,D4,301.5,0.125,93,114.0
4290,A4,301.5,0.125,93,114.0
4291,F#2,301.74,0.156,70,114.0
4292,F#2,301.75,0.062,114,114.0
4293,F#4,301.75,0.125,93,114.0
4294,A4,301.75,0.125,93,114.0
4295,D4,301.75,0.125,93,114.0
4296,A2,301.99,0.156,70,114.0
4297,C2,302.01,0.062,127,114.0
4298,F#2,302.01,0.062,114,114.0
4299,F#2,302.495,0.062,114,114.0
4300,A2,302.5,73/500,70,114.0
4301,F#4,302.5,0.125,93,114.0
4302,A4,302.5,0.125,93,114.0
4303,D4,302.5,0.125,93,114.0
4304,A2,302.75,73/500,70,114.0
4305,F#2,302.755,0.062,114,114.0
4306,B4,302.99,101/100,96,114.0
4307,B5,302.99,101/100,96,114.0
4308,A3,303.0,177/500,116,114.0
4309,F#4,303.0,177/500,116,114.0
4310,D4,303.0,177/500,116,114.0
4311,E2,303.005,0.062,127,114.0
4312,F#2,303.005,0.062,114,114.0
4313,D3,303.01,27/200,70,114.0
4314,B4,303.052,487/500,96,114.0
4315,B5,303.052,487/500,96,114.0
4316,A4,303.25,0.125,93,114.0
4317,F#4,303.25,0.125,93,114.0
4318,D4,303.25,0.125,93,114.0
4319,D3,303.49,0.156,70,114.0
4320,F#2,303.495,0.062,114,114.0
4321,F#2,303.75,0.062,114,114.0
4322,D3,303.76,27/200,70,114.0
4323,B3,304.0,0.5,93,114.0
4324,G3,304.0,0.5,93,114.0
4325,D4,304.0,0.5,93,114.0
4326,B4,304.0,3083/1000,96,114.0
4327,B5,304.0,3083/1000,96,114.0
4328,B3,304.0,87/100,104,114.0
4329,D4,304.0,87/100,104,114.0
4330,G4,304.0,87/100,104,114.0
4331,C2,304.01,0.062,127,114.0
4332,C#3,304.01,0.062,117,114.0
4333,G1,304.021,0.125,70,114.0
4334,B4,304.026,78/25,96,114.0
4335,B5,304.026,78/25,96,114.0
4336,F#2,304.5,0.062,114,114.0
4337,G1,304.5,73/500,70,114.0
4338,G1,304.74,0.156,70,114.0
4339,F#2,304.75,0.062,114,114.0
4340,G3,304.75,0.125,93,114.0
4341,B3,304.75,0.125,93,114.0
4342,D4,304.75,0.125,93,114.0
4343,B3,305.0,0.125,93,114.0
4344,G3,305.0,0.125,93,114.0
4345,D4,305.0,0.125,93,114.0
4346,E2,305.016,0.062,127,114.0
4347,B1,305.021,0.125,70,114.0
4348,B1,305.49,0.156,70,114.0
4349,F#2,305.495,0.062,114,114.0
4350,B3,305.5,0.125,93,114.0
4351,D4,305.5,0.125,93,114.0
4352,G3,305.5,0.125,93,114.0
4353,B1,305.729,167/1000,70,114.0
4354,F#2,305.75,0.062,114,114.0
4355,G3,305.75,0.125,93,114.0
4356,D4,305.75,0.125,93,114.0
4357,B3,305.75,0.125,93,114.0
4358,D2,306.0,73/500,70,114.0
4359,C2,306.01,0.062,127,114.0
4360,F#2,306.5,0.062,114,114.0
4361,B3,306.5,0.125,93,114.0
4362,D4,306.5,0.125,93,114.0
4363,G3,306.5,0.125,93,114.0
4364,D2,306.521,0.125,70,114.0
4365,D2,306.729,167/1000,70,114.0
4366,F#2,306.755,0.062,114,114.0
4367,G2,306.99,0.156,70,114.0
4368,D4,307.0,0.406,108,114.0
4369,B3,307.0,0.406,108,114.0
4370,G4,307.0,0.406,108,114.0
4371,E2,307.01,0.062,127,114.0
4372,G3,307.25,0.125,93,114.0
4373,D4,307.25,0.125,93,114.0
4374,B3,307.25,0.125,93,114.0
4375,F#2,307.495,0.062,114,114.0
4376,G2,307.51,27/200,70,114.0
4377,G2,307.729,167/1000,70,114.0
4378,F#2,307.745,0.062,114,114.0
4379,F1,308.0,73/500,70,114.0
4380,D4,308.0,0.5,93,114.0
4381,A3,308.0,0.5,93,114.0
4382,F3,308.0,0.5,93,114.0
4383,F4,308.0,0.719,101,114.0
4384,C4,308.0,0.719,101,114.0
4385,A3,308.0,0.719,101,114.0
4386,C2,308.01,0.062,127,114.0
4387,F#2,308.01,0.062,114,114.0
4388,F1,308.49,0.156,70,114.0
4389,F#2,308.5,0.062,114,114.0
4390,F#2,308.75,0.062,114,114.0
4391,A3,308.75,0.125,93,114.0
4392,F3,308.75,0.125,93,114.0
4393,C4,308.75,0.125,93,114.0
4394,F1,308.76,27/200,70,114.0
4395,A3,309.0,0.125,93,114.0
4396,F3,309.0,0.125,93,114.0
4397,D4,309.0,0.125,93,114.0
4398,E2,309.01,0.062,127,114.0
4399,A1,309.01,27/200,70,114.0
4400,F#2,309.021,0.062,114,114.0
4401,F#2,309.5,0.062,114,114.0
4402,A1,309.5,73/500,70,114.0
4403,D4,309.5,0.125,93,114.0
4404,F3,309.5,0.125,93,114.0
4405,A3,309.5,0.125,93,114.0
4406,F#2,309.75,0.062,114,114.0
4407,A1,309.75,73/500,70,114.0
4408,F3,309.75,0.125,93,114.0
4409,D4,309.75,0.125,93,114.0
4410,A3,309.75,0.125,93,114.0
4411,C2,310.005,0.062,127,114.0
4412,F#2,310.005,0.062,114,114.0
4413,C2,310.01,27/200,70,114.0
4414,F#2,310.5,0.062,114,114.0
4415,F3,310.5,0.125,93,114.0
4416,D4,310.5,0.125,93,114.0
4417,A3,310.5,0.125,93,114.0
4418,C2,310.51,27/200,70,114.0
4419,F#2,310.745,0.062,114,114.0
4420,C2,310.75,73/500,70,114.0
4421,F4,311.0,0.438,115,114.0
4422,A3,311.0,0.438,115,114.0
4423,C4,311.0,0.438,115,114.0
4424,E2,311.005,0.062,127,114.0
4425,F#2,311.005,0.062,114,114.0
4426,F2,311.01,27/200,70,114.0
4427,F3,311.25,0.125,93,114.0
4428,D4,311.25,0.125,93,114.0
4429,A3,311.25,0.125,93,114.0
4430,F2,311.49,0.156,70,114.0
4431,F#2,311.495,0.062,114,114.0
4432,F#2,311.75,0.062,114,114.0
4433,F2,311.76,27/200,70,114.0
4434,G4,312.0,0.5,93,114.0
4435,C4,312.0,0.5,93,114.0
4436,E4,312.0,0.5,93,114.0
4437,E4,312.0,149/200,111,114.0
4438,G3,312.0,149/200,111,114.0
4439,C4,312.0,149/200,111,114.0
4440,C2,312.01,0.062,127,114.0
4441,F#2,312.016,0.062,114,114.0
4442,C2,312.021,0.125,70,114.0
4443,C2,312.479,167/1000,70,114.0
4444,F#2,312.5,0.062,114,114.0
4445,C2,312.729,167/1000,70,114.0
4446,F#2,312.745,0.062,114,114.0
4447,G4,312.75,0.125,93,114.0
4448,E4,312.75,0.125,93,114.0
4449,C4,312.75,0.125,93,114.0
4450,E2,313.0,0.062,127,114.0
4451,E2,313.0,73/500,70,114.0
4452,C4,313.0,0.125,93,114.0
4453,G4,313.0,0.125,93,114.0
4454,E4,313.0,0.125,93,114.0
4455,F#2,313.005,0.062,114,114.0
4456,F#2,313.5,0.062,114,114.0
4457,E2,313.5,73/500,70,114.0
4458,G4,313.5,0.125,93,114.0
4459,E4,313.5,0.125,93,114.0
4460,C4,313.5,0.125,93,114.0
4461,E2,313.729,167/1000,70,114.0
4462,F#2,313.75,0.062,114,114.0
4463,G4,313.75,0.125,93,114.0
4464,C4,313.75,0.125,93,114.0
4465,E4,313.75,0.125,93,114.0
4466,G2,314.0,73/500,70,114.0
4467,C2,314.016,0.062,127,114.0
4468,F#2,314.016,0.062,114,114.0
4469,F#2,314.495,0.062,114,114.0
4470,G2,314.5,73/500,70,114.0
4471,C4,314.5,0.125,93,114.0
4472,G4,314.5,0.125,93,114.0
4473,E4,314.5,0.125,93,114.0
4474,G2,314.75,73/500,70,114.0
4475,F#2,314.755,0.062,114,114.0
4476,C3,314.99,0.156,70,114.0
4477,G3,315.0,99/250,109,114.0
4478,C4,315.0,99/250,109,114.0
4479,E4,315.0,99/250,109,114.0
4480,E2,315.005,0.062,127,114.0
4481,F#2,315.005,0.062,114,114.0
4482,C4,315.25,0.125,93,114.0
4483,G4,315.25,0.125,93,114.0
4484,E4,315.25,0.125,93,114.0
4485,F#2,315.5,0.062,114,114.0
4486,C3,315.51,27/200,70,114.0
4487,F#2,315.75,0.062,114,114.0
4488,C3,315.76,27/200,70,114.0
4489,D2,316.0,73/500,70,114.0
4490,F#4,316.0,0.5,93,114.0
4491,D4,316.0,0.5,93,114.0
4492,A4,316.0,0.5,93,114.0
4493,D4,316.0,0.734,106,114.0
4494,A3,316.0,0.734,106,114.0
4495,F#4,316.0,0.734,106,114.0
4496,C2,316.016,0.062,127,114.0
4497,F#2,316.016,0.062,114,114.0
4498,D2,316.5,73/500,70,114.0
4499,F#2,316.51,0.062,114,114.0
4500,D2,316.74,0.156,70,114.0
4501,A4,316.75,0.125,93,114.0
4502,D4,316.75,0.125,93,114.0
4503,F#4,316.75,0.125,93,114.0
4504,F#2,316.76,0.062,114,114.0
4505,A4,317.0,0.125,93,114.0
4506,F#4,317.0,0.125,93,114.0
4507,D4,317.0,0.125,93,114.0
4508,E2,317.005,0.062,127,114.0
4509,F#2,317.016,0.062,114,114.0
4510,F#2,317.021,0.125,70,114.0
4511,F#2,317.5,73/500,70,114.0
4512,F#4,317.5,0.125,93,114.0
4513,D4,317.5,0.125,93,114.0
4514,A4,317.5,0.125,93,114.0
4515,F#2,317.51,0.062,114,114.0
4516,F#2,317.75,73/500,70,114.0
4517,F#4,317.75,0.125,93,114.0
4518,A4,317.75,0.125,93,114.0
4519,D4,317.75,0.125,93,114.0
4520,F#2,317.76,0.062,114,114.0
4521,A2,318.01,27/200,70,114.0
4522,C2,318.021,0.062,127,114.0
4523,F#2,318.021,0.062,114,114.0
4524,F#4,318.5,0.125,93,114.0
4525,A4,318.5,0.125,93,114.0
4526,D4,318.5,0.125,93,114.0
4527,F#2,318.51,0.062,114,114.0
4528,A2,318.51,27/200,70,114.0
4529,F#2,318.76,0.062,114,114.0
4530,A2,318.76,27/200,70,114.0
4531,B5,318.995,201/200,98,114.0
4532,B4,318.995,201/200,98,114.0
4533,D4,319.0,99/250,115,114.0
4534,A3,319.0,99/250,115,114.0
4535,F#4,319.0,99/250,115,114.0
4536,E2,319.005,0.062,127,114.0
4537,F#2,319.016,0.062,114,114.0
4538,D3,319.021,0.125,70,114.0
4539,B5,319.057,0.969,98,114.0
4540,B4,319.057,0.969,98,114.0
4541,A4,319.25,0.125,93,114.0
4542,F#4,319.25,0.125,93,114.0
4543,D4,319.25,0.125,93,114.0
4544,F#2,319.505,0.062,114,114.0
4545,D3,319.521,0.125,70,114.0
4546,D3,319.74,0.156,70,114.0
4547,F#2,319.76,0.062,114,114.0
4548,G4,320.0,693/1000,114,114.0
4549,G1,320.0,73/500,70,114.0
4550,B3,320.0,0.5,93,114.0
4551,G3,320.0,0.5,93,114.0
4552,D4,320.0,0.5,93,114.0
4553,B5,320.0,3.969,98,114.0
4554,B4,320.0,3.969,98,114.0
4555,B3,320.0,729/1000,110,114.0
4556,D4,320.0,729/1000,110,114.0
4557,C2,320.016,0.062,127,114.0
4558,C#3,320.016,0.062,117,114.0
4559,B5,320.026,4.0,98,114.0
4560,B4,320.026,4.0,98,114.0
4561,G1,320.49,0.156,70,114.0
4562,F#2,320.5,0.062,114,114.0
4563,G1,320.729,167/1000,70,114.0
4564,F#2,320.74,0.062,114,114.0
4565,G3,320.75,0.125,93,114.0
4566,B3,320.75,0.125,93,114.0
4567,D4,320.75,0.125,93,114.0
4568,B1,321.0,73/500,70,114.0
4569,B3,321.0,0.125,93,114.0
4570,G3,321.0,0.125,93,114.0
4571,D4,321.0,0.125,93,114.0
4572,E2,321.01,0.062,127,114.0
4573,F#2,321.495,0.062,114,114.0
4574,B1,321.5,73/500,70,114.0
4575,B3,321.5,0.125,93,114.0
4576,D4,321.5,0.125,93,114.0
4577,G3,321.5,0.125,93,114.0
4578,B1,321.729,167/1000,70,114.0
4579,F#2,321.745,0.062,114,114.0
4580,G3,321.75,0.125,93,114.0
4581,D4,321.75,0.125,93,114.0
4582,B3,321.75,0.125,93,114.0
4583,D2,321.99,0.156,70,114.0
4584,C2,322.005,0.062,127,114.0
4585,B3,322.5,0.125,93,114.0
4586,D4,322.5,0.125,93,114.0
4587,G3,322.5,0.125,93,114.0
4588,F#2,322.51,0.062,114,114.0
4589,D2,322.51,27/200,70,114.0
4590,F#2,322.74,0.062,114,114.0
4591,D2,322.75,73/500,70,114.0
4592,G2,323.0,73/500,70,114.0
4593,G4,323.0,0.5,122,114.0
4594,D4,323.0,0.5,122,114.0
4595,B3,323.0,0.5,122,114.0
4596,E2,323.021,0.062,127,114.0
4597,G3,323.25,0.125,93,114.0
4598,D4,323.25,0.125,93,114.0
4599,B3,323.25,0.125,93,114.0
4600,G2,323.49,0.156,70,114.0
4601,F#2,323.531,0.062,114,114.0
4602,F#2,323.745,0.062,114,114.0
4603,G2,323.76,27/200,70,114.0
4604,F1,324.0,73/500,70,114.0
4605,D4,324.0,0.5,93,114.0
4606,A3,324.0,0.5,93,114.0
4607,F3,324.0,0.5,93,114.0
4608,F4,324.0,839/1000,119,114.0
4609,A3,324.0,839/1000,119,114.0
4610,C4,324.0,839/1000,119,114.0
4611,C2,324.01,0.062,127,114.0
4612,F#2,324.01,0.062,114,114.0
4613,B5,324.031,1/200,98,114.0
4614,B4,324.031,1/200,98,114.0
4615,F#2,324.5,0.062,114,114.0
4616,F1,324.5,73/500,70,114.0
4617,F#2,324.745,0.062,114,114.0
4618,F1,324.75,73/500,70,114.0
4619,A3,324.75,0.125,93,114.0
4620,F3,324.75,0.125,93,114.0
4621,C4,324.75,0.125,93,114.0
4622,E2,324.995,0.062,127,114.0
4623,A3,325.0,0.125,93,114.0
4624,F3,325.0,0.125,93,114.0
4625,D4,325.0,0.125,93,114.0
4626,F#2,325.005,0.062,114,114.0
4627,A1,325.01,27/200,70,114.0
4628,F#2,325.495,0.062,114,114.0
4629,D4,325.5,0.125,93,114.0
4630,F3,325.5,0.125,93,114.0
4631,A3,325.5,0.125,93,114.0
4632,A1,325.51,27/200,70,114.0
4633,F#2,325.75,0.062,114,114.0
4634,A1,325.75,73/500,70,114.0
4635,F3,325.75,0.125,93,114.0
4636,D4,325.75,0.125,93,114.0
4637,A3,325.75,0.125,93,114.0
4638,C2,326.0,0.062,127,114.0
4639,F#2,326.0,0.062,114,114.0
4640,C2,326.021,0.125,70,114.0
4641,C2,326.49,0.156,70,114.0
4642,F#2,326.5,0.062,114,114.0
4643,F3,326.5,0.125,93,114.0
4644,D4,326.5,0.125,93,114.0
4645,A3,326.5,0.125,93,114.0
4646,C2,326.729,167/1000,70,114.0
4647,F#2,326.745,0.062,114,114.0
4648,F2,326.99,0.156,70,114.0
4649,C4,327.0,0.422,117,114.0
4650,F4,327.0,0.422,117,114.0
4651,A3,327.0,0.422,117,114.0
4652,E2,327.01,0.062,127,114.0
4653,F#2,327.01,0.062,114,114.0
4654,F3,327.25,0.125,93,114.0
4655,D4,327.25,0.125,93,114.0
4656,A3,327.25,0.125,93,114.0
4657,F#2,327.495,0.062,114,114.0
4658,F2,327.521,0.125,70,114.0
4659,F2,327.729,167/1000,70,114.0
4660,F#2,327.745,0.062,114,114.0
4661,C2,328.0,0.062,127,114.0
4662,F#2,328.0,0.062,114,114.0
4663,C2,328.0,73/500,70,114.0
4664,G4,328.0,0.5,93,114.0
4665,C4,328.0,0.5,93,114.0
4666,E4,328.0,0.5,93,114.0
4667,G3,328.0,173/200,115,114.0
4668,E4,328.0,173/200,115,114.0
4669,C4,328.0,173/200,115,114.0
4670,C2,328.49,0.156,70,114.0
4671,F#2,328.495,0.062,114,114.0
4672,C2,328.729,167/1000,70,114.0
4673,F#2,328.745,0.062,114,114.0
4674,G4,328.75,0.125,93,114.0
4675,E4,328.75,0.125,93,114.0
4676,C4,328.75,0.125,93,114.0
4677,E2,329.0,73/500,70,114.0
4678,C4,329.0,0.125,93,114.0
4679,G4,329.0,0.125,93,114.0
4680,E4,329.0,0.125,93,114.0
4681,E2,329.005,0.062,127,114.0
4682,F#2,329.005,0.062,114,114.0
4683,F#2,329.495,0.062,114,114.0
4684,E2,329.5,73/500,70,114.0
4685,G4,329.5,0.125,93,114.0
4686,E4,329.5,0.125,93,114.0
4687,C4,329.5,0.125,93,114.0
4688,E2,329.729,167/1000,70,114.0
4689,F#2,329.75,0.062,114,114.0
4690,G4,329.75,0.125,93,114.0
4691,C4,329.75,0.125,93,114.0
4692,E4,329.75,0.125,93,114.0
4693,G2,330.0,73/500,70,114.0
4694,C2,330.01,0.062,127,114.0
4695,F#2,330.01,0.062,114,114.0
4696,F#2,330.495,0.062,114,114.0
4697,C4,330.5,0.125,93,114.0
4698,G4,330.5,0.125,93,114.0
4699,E4,330.5,0.125,93,114.0
4700,G2,330.51,27/200,70,114.0
4701,F#2,330.745,0.062,114,114.0
4702,G2,330.75,73/500,70,114.0
4703,C3,331.0,73/500,70,114.0
4704,G3,331.0,0.375,114,114.0
4705,E4,331.0,0.375,114,114.0
4706,C4,331.0,0.375,114,114.0
4707,E2,331.005,0.062,127,114.0
4708,F#2,331.005,0.062,114,114.0
4709,C4,331.25,0.125,93,114.0
4710,G4,331.25,0.125,93,114.0
4711,E4,331.25,0.125,93,114.0
4712,F#2,331.495,0.062,114,114.0
4713,C3,331.5,73/500,70,114.0
4714,C3,331.74,0.156,70,114.0
4715,F#2,331.75,0.062,114,114.0
4716,C2,332.0,0.062,127,114.0
4717,A3,332.0,771/1000,101,114.0
4718,F#4,332.0,0.5,93,114.0
4719,D4,332.0,0.5,93,114.0
4720,A4,332.0,0.5,93,114.0
4721,F#4,332.0,0.719,119,114.0
4722,D4,332.0,0.719,119,114.0
4723,F#2,332.016,0.062,114,114.0
4724,D2,332.021,0.125,70,114.0
4725,F#2,332.495,0.062,114,114.0
4726,D2,332.521,0.125,70,114.0
4727,F#2,332.75,0.062,114,114.0
4728,D2,332.75,73/500,70,114.0
4729,A4,332.75,0.125,93,114.0
4730,D4,332.75,0.125,93,114.0
4731,F#4,332.75,0.125,93,114.0
4732,E2,332.995,0.062,127,114.0
4733,F#2,332.995,0.062,114,114.0
4734,A4,333.0,0.125,93,114.0
4735,F#4,333.0,0.125,93,114.0
4736,D4,333.0,0.125,93,114.0
4737,A4,333.01,487/500,125,114.0
4738,F#2,333.01,27/200,70,114.0
4739,A4,333.078,487/500,125,114.0
4740,F#2,333.5,0.062,114,114.0
4741,F#4,333.5,0.125,93,114.0
4742,D4,333.5,0.125,93,114.0
4743,A4,333.5,0.125,93,114.0
4744,F#2,333.51,27/200,70,114.0
4745,F#2,333.75,0.062,114,114.0
4746,F#2,333.75,73/500,70,114.0
4747,F#4,333.75,0.125,93,114.0
4748,A4,333.75,0.125,93,114.0
4749,D4,333.75,0.125,93,114.0
4750,B4,333.964,28/125,125,114.0
4751,C2,334.005,0.062,127,114.0
4752,F#2,334.005,0.062,114,114.0
4753,A2,334.021,0.125,70,114.0
4754,B4,334.031,28/125,125,114.0
4755,B4,334.292,159/500,125,114.0
4756,B4,334.359,159/500,125,114.0
4757,A2,334.479,167/1000,70,114.0
4758,F#2,334.495,0.062,114,114.0
4759,F#4,334.5,0.125,93,114.0
4760,A4,334.5,0.125,93,114.0
4761,D4,334.5,0.125,93,114.0
4762,A2,334.729,167/1000,70,114.0
4763,F#2,334.745,0.062,114,114.0
4764,A4,334.781,143/500,125,114.0
4765,A4,334.849,143/500,125,114.0
4766,D3,335.0,73/500,70,114.0
4767,D4,335.0,229/500,114,114.0
4768,A3,335.0,229/500,114,114.0
4769,F#4,335.0,229/500,114,114.0
4770,E2,335.01,0.062,127,114.0
4771,F#2,335.01,0.062,114,114.0
4772,B4,335.021,51/100,125,114.0
4773,B4,335.089,51/100,125,114.0
4774,A4,335.25,0.125,93,114.0
4775,F#4,335.25,0.125,93,114.0
4776,D4,335.25,0.125,93,114.0
4777,F#2,335.495,0.062,114,114.0
4778,D3,335.5,73/500,70,114.0
4779,D5,335.505,479/1000,125,114.0
4780,D5,335.573,229/500,125,114.0
4781,D3,335.729,167/1000,70,114.0
4782,F#2,335.75,0.062,114,114.0
4783,B4,335.99,1/100,125,114.0
4784,B4,336.0,431/250,125,114.0
4785,G1,336.0,73/500,70,114.0
4786,B3,336.0,0.375,93,114.0
4787,G3,336.0,0.375,93,114.0
4788,D4,336.0,0.375,93,114.0
4789,G4,336.0,37/50,105,114.0
4790,B3,336.0,37/50,105,114.0
4791,D4,336.0,37/50,105,114.0
4792,C#3,336.005,0.062,117,114.0
4793,C2,336.016,0.062,127,114.0
4794,D5,336.031,21/1000,125,114.0
4795,B4,336.057,1.734,125,114.0
4796,F#2,336.5,0.062,114,114.0
4797,E-3,336.5,0.062,119,114.0
4798,G1,336.5,73/500,70,114.0
4799,B3,336.5,0.125,93,114.0
4800,D4,336.5,0.125,93,114.0
4801,G3,336.5,0.125,93,114.0
4802,G1,336.729,167/1000,70,114.0
4803,F#2,336.745,0.062,114,114.0
4804,B3,336.75,0.125,93,114.0
4805,G3,336.75,0.125,93,114.0
4806,D4,336.75,0.125,93,114.0
4807,B1,336.99,0.156,70,114.0
4808,E2,337.005,0.062,127,114.0
4809,F#2,337.5,0.062,114,114.0
4810,B1,337.5,73/500,70,114.0
4811,D4,337.5,0.125,93,114.0
4812,G3,337.5,0.125,93,114.0
4813,B3,337.5,0.125,93,114.0
4814,E-3,337.505,0.062,119,114.0
4815,F#2,337.75,0.062,114,114.0
4816,B1,337.75,73/500,70,114.0
4817,B4,338.0,0.641,125,114.0
4818,D2,338.0,73/500,70,114.0
4819,C2,338.005,0.062,127,114.0
4820,B4,338.068,0.641,125,114.0
4821,D2,338.49,0.156,70,114.0
4822,F#2,338.495,0.062,114,114.0
4823,D4,338.5,0.125,93,114.0
4824,G3,338.5,0.125,93,114.0
4825,B3,338.5,0.125,93,114.0
4826,E-3,338.505,0.062,119,114.0
4827,D5,338.661,37/50,125,114.0
4828,D5,338.729,37/50,125,114.0
4829,D2,338.729,167/1000,70,114.0
4830,F#2,338.745,0.062,114,114.0
4831,D4,339.0,56/125,114,114.0
4832,G4,339.0,479/1000,112,114.0
4833,B3,339.0,479/1000,112,114.0
4834,E2,339.005,0.062,127,114.0
4835,G2,339.01,27/200,70,114.0
4836,D4,339.25,0.125,93,114.0
4837,G3,339.25,0.125,93,114.0
4838,B3,339.25,0.125,93,114.0
4839,G5,339.401,599/1000,125,114.0
4840,G5,339.469,0.562,125,114.0
4841,F#2,339.495,0.062,114,114.0
4842,G2,339.5,73/500,70,114.0
4843,E-3,339.505,0.062,119,114.0
4844,G2,339.74,0.156,70,114.0
4845,F#2,339.75,0.062,114,114.0
4846,B1,339.99,1/100,70,114.0
4847,G5,340.0,99/1000,125,114.0
4848,E-4,340.0,0.75,111,114.0
4849,B1,340.0,73/500,70,114.0
4850,B3,340.0,0.5,93,114.0
4851,F#4,340.0,0.5,93,114.0
4852,E-4,340.0,0.5,93,114.0
4853,A3,340.0,667/1000,111,114.0
4854,F#4,340.0,667/1000,111,114.0
4855,C2,340.016,0.062,127,114.0
4856,F#2,340.016,0.062,114,114.0
4857,F#5,340.026,0.797,125,114.0
4858,G5,340.031,27/200,125,114.0
4859,F#5,340.094,0.797,125,114.0
4860,F#2,340.51,0.062,114,114.0
4861,B1,340.51,27/200,70,114.0
4862,E-3,340.516,0.062,119,114.0
4863,F#2,340.75,0.062,114,114.0
4864,B1,340.75,73/500,70,114.0
4865,E-4,340.75,0.125,93,114.0
4866,F#4,340.75,0.125,93,114.0
4867,B3,340.75,0.125,93,114.0
4868,E-5,340.776,661/1000,125,114.0
4869,E-5,340.844,661/1000,125,114.0
4870,B3,341.0,0.125,93,114.0
4871,F#4,341.0,0.125,93,114.0
4872,E-4,341.0,0.125,93,114.0
4873,E2,341.005,0.062,127,114.0
4874,F#2,341.005,0.062,114,114.0
4875,E-2,341.01,27/200,70,114.0
4876,B4,341.448,0.344,125,114.0
4877,E-2,341.49,0.156,70,114.0
4878,F#2,341.495,0.062,114,114.0
4879,E-4,341.5,0.125,93,114.0
4880,B3,341.5,0.125,93,114.0
4881,F#4,341.5,0.125,93,114.0
4882,E-3,341.51,0.062,119,114.0
4883,B4,341.516,0.344,125,114.0
4884,E-4,341.75,0.125,93,114.0
4885,F#4,341.75,0.125,93,114.0
4886,B3,341.75,0.125,93,114.0
4887,F#2,341.76,0.062,114,114.0
4888,E-2,341.76,27/200,70,114.0
4889,C2,342.0,0.062,127,114.0
4890,F#2,342.0,0.062,114,114.0
4891,F#2,342.021,0.125,70,114.0
4892,B4,342.042,233/250,125,114.0
4893,B4,342.109,233/250,125,114.0
4894,F#2,342.5,0.062,114,114.0
4895,F#2,342.5,73/500,70,114.0
4896,E-4,342.5,0.125,93,114.0
4897,B3,342.5,0.125,93,114.0
4898,F#4,342.5,0.125,93,114.0
4899,E-3,342.51,0.062,119,114.0
4900,F#2,342.74,0.156,70,114.0
4901,F#2,342.75,0.062,114,114.0
4902,E5,343.0,1.0,125,114.0
4903,A3,343.0,401/1000,115,114.0
4904,E-4,343.0,401/1000,115,114.0
4905,F#4,343.0,401/1000,115,114.0
4906,E2,343.005,0.062,127,114.0
4907,F#2,343.005,0.062,114,114.0
4908,B2,343.01,27/200,70,114.0
4909,E5,343.068,241/250,125,114.0
4910,E-4,343.25,0.125,93,114.0
4911,B3,343.25,0.125,93,114.0
4912,F#4,343.25,0.125,93,114.0
4913,B2,343.479,167/1000,70,114.0
4914,F#2,343.5,0.062,114,114.0
4915,E-3,343.51,0.062,119,114.0
4916,B2,343.729,167/1000,70,114.0
4917,F#2,343.75,0.062,114,114.0
4918,C2,344.0,0.062,127,114.0
4919,F#2,344.0,0.062,114,114.0
4920,E5,344.0,4.0,125,114.0
4921,E1,344.0,73/500,70,114.0
4922,E4,344.0,0.5,93,114.0
4923,B3,344.0,0.5,93,114.0
4924,G3,344.0,0.5,93,114.0
4925,G3,344.0,393/500,110,114.0
4926,B3,344.0,393/500,110,114.0
4927,E4,344.0,393/500,110,114.0
4928,E5,344.031,2341/500,125,114.0
4929,F#2,344.495,0.062,114,114.0
4930,E1,344.5,73/500,70,114.0
4931,E-3,344.505,0.062,119,114.0
4932,E1,344.729,167/1000,70,114.0
4933,F#2,344.75,0.062,114,114.0
4934,B3,344.75,0.125,93,114.0
4935,G3,344.75,0.125,93,114.0
4936,E4,344.75,0.125,93,114.0
4937,D6,344.995,1.094,116,114.0
4938,G3,345.0,0.125,93,114.0
4939,B3,345.0,0.125,93,114.0
4940,E4,345.0,0.125,93,114.0
4941,G1,345.01,27/200,70,114.0
4942,E2,345.021,0.062,127,114.0
4943,F#2,345.021,0.062,114,114.0
4944,G1,345.5,73/500,70,114.0
4945,G3,345.5,0.125,93,114.0
4946,B3,345.5,0.125,93,114.0
4947,E4,345.5,0.125,93,114.0
4948,F#2,345.526,0.062,114,114.0
4949,E-3,345.536,0.062,119,114.0
4950,G1,345.729,167/1000,70,114.0
4951,F#2,345.75,0.062,114,114.0
4952,B3,345.75,0.125,93,114.0
4953,G3,345.75,0.125,93,114.0
4954,E4,345.75,0.125,93,114.0
4955,B1,346.0,73/500,70,114.0
4956,C2,346.026,0.062,127,114.0
4957,F#2,346.036,0.062,114,114.0
4958,C6,346.057,513/500,116,114.0
4959,B1,346.49,0.156,70,114.0
4960,E4,346.5,0.125,93,114.0
4961,B3,346.5,0.125,93,114.0
4962,G3,346.5,0.125,93,114.0
4963,F#2,346.516,0.062,114,114.0
4964,E-3,346.536,0.062,119,114.0
4965,B1,346.74,0.156,70,114.0
4966,F#2,346.76,0.062,114,114.0
4967,B3,347.0,54/125,115,114.0
4968,G3,347.0,54/125,115,114.0
4969,E4,347.0,54/125,115,114.0
4970,E2,347.01,27/200,70,114.0
4971,E2,347.021,0.062,127,114.0
4972,F#2,347.021,0.062,114,114.0
4973,B5,347.047,0.984,112,114.0
4974,G3,347.25,0.125,93,114.0
4975,E4,347.25,0.125,93,114.0
4976,B3,347.25,0.125,93,114.0
4977,E2,347.5,73/500,70,114.0
4978,F#2,347.521,0.062,114,114.0
4979,E-3,347.526,0.062,119,114.0
4980,E2,347.75,73/500,70,114.0
4981,F#2,347.766,0.062,114,114.0
4982,C2,348.0,0.062,127,114.0
4983,E5,348.0,323/500,125,114.0
4984,G4,348.0,0.5,93,114.0
4985,E4,348.0,0.5,93,114.0
4986,C4,348.0,0.5,93,114.0
4987,E4,348.0,181/250,116,114.0
4988,G3,348.0,181/250,116,114.0
4989,C4,348.0,181/250,116,114.0
4990,C2,348.01,27/200,70,114.0
4991,F#2,348.016,0.062,114,114.0
4992,F#2,348.495,0.062,114,114.0
4993,E-3,348.505,0.062,119,114.0
4994,C2,348.51,27/200,70,114.0
4995,B5,348.714,0.031,112,114.0
4996,G5,348.734,1021/1000,116,114.0
4997,F#2,348.75,0.062,114,114.0
4998,C2,348.75,73/500,70,114.0
4999,E4,348.75,0.125,93,114.0
5000,C4,348.75,0.125,93,114.0
5001,G4,348.75,0.125,93,114.0
5002,E4,349.0,0.125,93,114.0
5003,G4,349.0,0.125,93,114.0
5004,C4,349.0,0.125,93,114.0
5005,E2,349.016,0.062,127,114.0
5006,F#2,349.016,0.062,114,114.0
5007,E2,349.021,0.125,70,114.0
5008,D5,349.031,1021/1000,125,114.0
5009,E2,349.5,73/500,70,114.0
5010,G4,349.5,0.125,93,114.0
5011,E4,349.5,0.125,93,114.0
5012,C4,349.5,0.125,93,114.0
5013,F#2,349.505,0.062,114,114.0
5014,E-3,349.51,0.062,119,114.0
5015,D5,349.688,1.047,115,114.0
5016,E2,349.74,0.156,70,114.0
5017,F#2,349.745,0.062,114,114.0
5018,E4,349.75,0.125,93,114.0
5019,C4,349.75,0.125,93,114.0
5020,G4,349.75,0.125,93,114.0
5021,D5,349.781,1021/1000,125,114.0
5022,C5,349.979,1.094,125,114.0
5023,C2,350.016,0.062,127,114.0
5024,F#2,350.016,0.062,114,114.0
5025,G2,350.021,0.125,70,114.0
5026,G2,350.5,73/500,70,114.0
5027,G4,350.5,0.125,93,114.0
5028,C4,350.5,0.125,93,114.0
5029,E4,350.5,0.125,93,114.0
5030,F#2,350.505,0.062,114,114.0
5031,E-3,350.526,0.062,119,114.0
5032,C5,350.724,201/200,116,114.0
5033,C5,350.729,1.094,125,114.0
5034,G2,350.75,73/500,70,114.0
5035,F#2,350.771,0.062,114,114.0
5036,E4,351.0,0.469,108,114.0
5037,C4,351.0,0.469,108,114.0
5038,G3,351.0,0.469,108,114.0
5039,B4,351.005,199/200,125,114.0
5040,E2,351.01,0.062,127,114.0
5041,F#2,351.01,0.062,114,114.0
5042,C3,351.01,27/200,70,114.0
5043,E4,351.25,0.125,93,114.0
5044,G4,351.25,0.125,93,114.0
5045,C4,351.25,0.125,93,114.0
5046,F#2,351.495,0.062,114,114.0
5047,E-3,351.505,0.062,119,114.0
5048,C3,351.521,0.125,70,114.0
5049,B4,351.672,513/500,109,114.0
5050,C3,351.729,167/1000,70,114.0
5051,F#2,351.745,0.062,114,114.0
5052,B4,351.755,479/500,125,114.0
5053,G1,351.99,1/100,70,114.0
5054,B4,352.0,1/100,125,114.0
5055,G1,352.0,73/500,70,114.0
5056,B3,352.0,0.375,93,114.0
5057,G3,352.0,0.375,93,114.0
5058,D4,352.0,0.375,93,114.0
5059,G4,352.0,0.656,111,114.0
5060,B3,352.0,0.656,111,114.0
5061,D4,352.0,0.656,111,114.0
5062,G4,352.005,393/500,125,114.0
5063,C2,352.036,0.062,127,114.0
5064,F#2,352.036,0.062,114,114.0
5065,F#2,352.5,0.062,114,114.0
5066,G1,352.5,73/500,70,114.0
5067,B3,352.5,0.125,93,114.0
5068,D4,352.5,0.125,93,114.0
5069,G3,352.5,0.125,93,114.0
5070,E-3,352.505,0.062,119,114.0
5071,G4,352.693,21/1000,115,114.0
5072,B4,352.714,0.047,125,114.0
5073,G4,352.714,0.828,115,114.0
5074,G1,352.729,167/1000,70,114.0
5075,F#2,352.75,0.062,114,114.0
5076,B3,352.75,0.125,93,114.0
5077,G3,352.75,0.125,93,114.0
5078,D4,352.75,0.125,93,114.0
5079,G4,352.755,751/200,125,114.0
5080,B1,353.0,73/500,70,114.0
5081,E2,353.01,0.062,127,114.0
5082,F#2,353.01,0.062,114,114.0
5083,B4,353.021,0.984,125,114.0
5084,A4,353.031,13/500,125,114.0
5085,B1,353.49,0.156,70,114.0
5086,D4,353.5,0.125,93,114.0
5087,G3,353.5,0.125,93,114.0
5088,B3,353.5,0.125,93,114.0
5089,F#2,353.51,0.062,114,114.0
5090,E-3,353.516,0.062,119,114.0
5091,F#2,353.76,0.062,114,114.0
5092,B1,353.76,27/200,70,114.0
5093,B4,353.771,0.984,125,114.0
5094,A4,353.781,13/500,125,114.0
5095,D5,353.995,479/500,125,114.0
5096,D2,354.01,27/200,70,114.0
5097,C2,354.016,0.062,127,114.0
5098,F#2,354.016,0.062,114,114.0
5099,D2,354.5,73/500,70,114.0
5100,D4,354.5,0.125,93,114.0
5101,G3,354.5,0.125,93,114.0
5102,B3,354.5,0.125,93,114.0
5103,F#2,354.531,0.062,114,114.0
5104,E-3,354.531,0.062,119,114.0
5105,D2,354.74,0.156,70,114.0
5106,D5,354.745,479/500,125,114.0
5107,F#2,354.771,0.062,114,114.0
5108,G5,354.979,1021/1000,125,114.0
5109,G2,354.99,0.156,70,114.0
5110,D4,355.0,56/125,99,114.0
5111,B3,355.0,56/125,99,114.0
5112,G4,355.0,56/125,99,114.0
5113,E2,355.026,0.062,127,114.0
5114,F#2,355.026,0.062,114,114.0
5115,D4,355.25,0.125,93,114.0
5116,G3,355.25,0.125,93,114.0
5117,B3,355.25,0.125,93,114.0
5118,G2,355.5,73/500,70,114.0
5119,F#2,355.516,0.062,114,114.0
5120,E-3,355.521,0.062,119,114.0
5121,G5,355.729,0.984,125,114.0
5122,F#2,355.745,0.062,114,114.0
5123,G2,355.75,73/500,70,114.0
5124,C2,355.995,1/200,127,114.0
5125,C2,356.0,57/1000,127,114.0
5126,G5,356.0,0.016,125,114.0
5127,B3,356.0,0.5,93,114.0
5128,F#4,356.0,0.5,93,114.0
5129,E-4,356.0,0.5,93,114.0
5130,A3,356.0,0.609,112,114.0
5131,E-4,356.0,0.609,112,114.0
5132,F#4,356.0,0.609,112,114.0
5133,F#2,356.01,0.062,114,114.0
5134,B1,356.01,27/200,70,114.0
5135,F#5,356.057,259/250,125,114.0
5136,G5,356.078,0.031,103,114.0
5137,F#2,356.5,0.062,114,114.0
5138,E-3,356.505,0.062,119,114.0
5139,B1,356.51,27/200,70,114.0
5140,G5,356.714,13/250,125,114.0
5141,F#2,356.75,0.062,114,114.0
5142,E-4,356.75,0.125,93,114.0
5143,F#4,356.75,0.125,93,114.0
5144,B3,356.75,0.125,93,114.0
5145,B1,356.76,27/200,70,114.0
5146,F#5,356.807,259/250,125,114.0
5147,G5,356.828,0.031,103,114.0
5148,E2,356.995,0.062,127,114.0
5149,B3,357.0,0.125,93,114.0
5150,F#4,357.0,0.125,93,114.0
5151,E-4,357.0,0.125,93,114.0
5152,F#2,357.005,0.062,114,114.0
5153,E-2,357.021,0.125,70,114.0
5154,E-5,357.047,583/1000,125,114.0
5155,F#2,357.5,0.062,114,114.0
5156,E-2,357.5,73/500,70,114.0
5157,E-4,357.5,0.125,93,114.0
5158,B3,357.5,0.125,93,114.0
5159,F#4,357.5,0.125,93,114.0
5160,E-3,357.505,0.062,119,114.0
5161,E-2,357.74,0.156,70,114.0
5162,F#2,357.75,0.062,114,114.0
5163,E-4,357.75,0.125,93,114.0
5164,F#4,357.75,0.125,93,114.0
5165,B3,357.75,0.125,93,114.0
5166,E-5,357.797,583/1000,125,114.0
5167,C2,358.005,0.062,127,114.0
5168,F#2,358.01,27/200,70,114.0
5169,F#2,358.021,0.062,114,114.0
5170,B5,358.047,1.953,125,114.0
5171,F#2,358.49,0.156,70,114.0
5172,E-4,358.5,0.125,93,114.0
5173,B3,358.5,0.125,93,114.0
5174,F#4,358.5,0.125,93,114.0
5175,F#2,358.51,0.062,114,114.0
5176,E-3,358.516,0.062,119,114.0
5177,F#2,358.729,167/1000,70,114.0
5178,F#2,358.75,0.062,114,114.0
5179,B5,358.797,1917/1000,125,114.0
5180,A3,359.0,99/200,111,114.0
5181,B2,359.0,73/500,70,114.0
5182,E-4,359.0,99/250,116,114.0
5183,F#4,359.0,99/250,116,114.0
5184,E2,359.005,0.062,127,114.0
5185,F#2,359.005,0.062,114,114.0
5186,E-4,359.25,0.125,93,114.0
5187,B3,359.25,0.125,93,114.0
5188,F#4,359.25,0.125,93,114.0
5189,F#2,359.495,0.062,114,114.0
5190,B2,359.5,73/500,70,114.0
5191,E-3,359.51,0.062,119,114.0
5192,B2,359.729,167/1000,70,114.0
5193,F#2,359.745,0.062,114,114.0
5194,E1,359.99,1/100,70,114.0
5195,C2,360.0,0.062,127,114.0
5196,F#2,360.0,0.062,114,114.0
5197,B5,360.0,1099/500,125,114.0
5198,E1,360.0,73/500,70,114.0
5199,E4,360.0,0.5,93,114.0
5200,B3,360.0,0.5,93,114.0
5201,G3,360.0,0.5,93,114.0
5202,B3,360.0,0.75,121,114.0
5203,G3,360.0,0.75,121,114.0
5204,E4,360.0,0.75,121,114.0
5205,F#2,360.495,0.062,114,114.0
5206,E1,360.51,27/200,70,114.0
5207,B5,360.714,2.234,125,114.0
5208,E1,360.729,167/1000,70,114.0
5209,F#2,360.745,0.062,114,114.0
5210,B3,360.75,0.125,93,114.0
5211,G3,360.75,0.125,93,114.0
5212,E4,360.75,0.125,93,114.0
5213,G3,361.0,0.125,93,114.0
5214,B3,361.0,0.125,93,114.0
5215,E4,361.0,0.125,93,114.0
5216,E2,361.005,0.062,127,114.0
5217,F#2,361.005,0.062,114,114.0
5218,G1,361.021,0.125,70,114.0
5219,G1,361.49,0.156,70,114.0
5220,G3,361.5,0.125,93,114.0
5221,B3,361.5,0.125,93,114.0
5222,E4,361.5,0.125,93,114.0
5223,F#2,361.505,0.062,114,114.0
5224,G1,361.74,0.156,70,114.0
5225,F#2,361.75,0.062,114,114.0
5226,B3,361.75,0.125,93,114.0
5227,G3,361.75,0.125,93,114.0
5228,E4,361.75,0.125,93,114.0
5229,E2,362.005,0.062,127,114.0
5230,F#2,362.005,0.062,114,114.0
5231,B1,362.01,27/200,70,114.0
5232,C2,362.495,0.062,127,114.0
5233,B-2,362.495,0.062,114,114.0
5234,A1,362.5,0.438,66,114.0
5235,E4,362.5,0.5,93,114.0
5236,B3,362.5,0.5,93,114.0
5237,G3,362.5,0.5,93,114.0
5238,E5,362.547,357/500,125,114.0
5239,G3,363.214,0.672,112,114.0
5240,E4,363.214,0.672,112,114.0
5241,B1,363.229,229/500,66,114.0
5242,G3,363.25,0.5,93,114.0
5243,E4,363.25,0.5,93,114.0
5244,B3,363.25,0.5,93,114.0
5245,F#5,363.271,341/500,125,114.0
5246,E5,363.297,357/500,125,114.0
5247,E2,363.495,0.062,127,114.0
5248,C#3,363.495,0.062,117,114.0
5249,G5,363.964,9/250,120,114.0
5250,A3,363.964,341/500,110,114.0
5251,F#4,363.964,341/500,110,114.0
5252,F#5,363.964,341/500,110,114.0
5253,E3,364.0,0.125,78,114.0
5254,G5,364.0,1073/1000,120,114.0
5255,B3,364.0,51/200,103,114.0
5256,C2,364.01,27/200,70,114.0
5257,C2,364.021,0.062,127,114.0
5258,C#3,364.021,0.062,117,114.0
5259,E4,364.25,0.125,78,114.0
5260,C4,364.25,6/25,69,114.0
5261,F#2,364.26,0.062,114,114.0
5262,C2,364.49,0.156,70,114.0
5263,B-2,364.5,0.062,114,114.0
5264,E4,364.5,0.125,78,114.0
5265,E4,364.5,49/200,89,114.0
5266,G5,364.714,1.109,120,114.0
5267,G4,364.714,3.734,105,114.0
5268,E4,364.714,3.734,105,114.0
5269,B3,364.714,3.734,105,114.0
5270,F#2,364.745,0.062,114,114.0
5271,E3,364.75,0.125,78,114.0
5272,B3,364.75,69/250,88,114.0
5273,C2,364.76,27/200,70,114.0
5274,E4,365.0,0.125,78,114.0
5275,C4,365.0,151/500,88,114.0
5276,E2,365.005,0.062,127,114.0
5277,E2,365.01,27/200,70,114.0
5278,F#2,365.016,0.062,114,114.0
5279,F#2,365.245,0.062,114,114.0
5280,E4,365.25,0.125,78,114.0
5281,E4,365.25,0.203,73,114.0
5282,B-2,365.495,0.062,114,114.0
5283,E3,365.5,0.125,78,114.0
5284,B3,365.5,0.328,86,114.0
5285,E2,365.5,73/500,70,114.0
5286,F#2,365.745,0.062,114,114.0
5287,E4,365.75,0.125,78,114.0
5288,C4,365.75,0.281,85,114.0
5289,E2,365.75,73/500,70,114.0
5290,E3,366.0,0.125,78,114.0
5291,E4,366.0,49/200,83,114.0
5292,C2,366.005,0.062,127,114.0
5293,F#2,366.005,0.062,114,114.0
5294,G2,366.01,27/200,70,114.0
5295,F#2,366.245,0.062,114,114.0
5296,E4,366.25,0.125,78,114.0
5297,B3,366.25,339/1000,80,114.0
5298,B-2,366.5,0.062,114,114.0
5299,E4,366.5,0.125,78,114.0
5300,C4,366.5,69/250,69,114.0
5301,G2,366.51,27/200,70,114.0
5302,F#2,366.75,0.062,114,114.0
5303,E3,366.75,0.125,78,114.0
5304,E4,366.75,6/25,80,114.0
5305,G2,366.75,73/500,70,114.0
5306,E4,367.0,0.125,78,114.0
5307,B3,367.0,0.312,96,114.0
5308,E2,367.005,0.062,127,114.0
5309,F#2,367.016,0.062,114,114.0
5310,C3,367.021,0.125,70,114.0
5311,F#2,367.25,0.062,114,114.0
5312,E3,367.25,0.125,78,114.0
5313,C4,367.25,0.281,76,114.0
5314,B-2,367.495,0.062,114,114.0
5315,E4,367.5,0.125,78,114.0
5316,E4,367.5,0.234,78,114.0
5317,C3,367.521,0.125,70,114.0
5318,F#2,367.75,0.062,114,114.0
5319,E4,367.75,0.125,78,114.0
5320,B3,367.75,0.25,89,114.0
5321,C3,367.771,0.125,70,114.0
5322,A2,368.0,0.125,78,114.0
5323,C4,368.0,69/250,86,114.0
5324,B3,368.0,0.078,89,114.0
5325,C2,368.016,0.062,127,114.0
5326,F#2,368.016,0.062,114,114.0
5327,A1,368.021,0.125,70,114.0
5328,C#3,368.026,0.062,117,114.0
5329,F#2,368.245,0.062,114,114.0
5330,A3,368.25,0.125,78,114.0
5331,E4,368.25,49/200,76,114.0
5332,B-2,368.5,0.062,114,114.0
5333,A3,368.5,0.125,78,114.0
5334,B3,368.5,0.312,94,114.0
5335,A1,368.5,73/500,70,114.0
5336,E4,368.714,3.641,87,114.0
5337,G4,368.714,3.922,95,114.0
5338,B3,368.714,749/200,95,114.0
5339,A2,368.75,0.125,78,114.0
5340,C4,368.75,0.312,76,114.0
5341,A1,368.75,73/500,70,114.0
5342,F#2,368.755,0.062,114,114.0
5343,E2,369.0,0.062,127,114.0
5344,F#2,369.0,0.062,114,114.0
5345,A3,369.0,0.125,78,114.0
5346,E4,369.0,49/200,89,114.0
5347,C2,369.0,73/500,70,114.0
5348,F#2,369.25,0.062,114,114.0
5349,A2,369.25,0.125,78,114.0
5350,B3,369.25,0.344,89,114.0
5351,B-2,369.5,0.062,114,114.0
5352,A3,369.5,0.125,78,114.0
5353,C4,369.5,271/1000,86,114.0
5354,C2,369.5,73/500,70,114.0
5355,C2,369.74,0.156,70,114.0
5356,F#2,369.75,0.062,114,114.0
5357,A3,369.75,0.125,78,114.0
5358,E4,369.75,51/200,88,114.0
5359,A2,370.0,0.125,78,114.0
5360,B3,370.0,333/1000,96,114.0
5361,E2,370.0,73/500,70,114.0
5362,C2,370.005,0.062,127,114.0
5363,F#2,370.005,0.062,114,114.0
5364,F#2,370.25,0.062,114,114.0
5365,A3,370.25,0.125,78,114.0
5366,C4,370.25,69/250,75,114.0
5367,B-2,370.5,0.062,114,114.0
5368,A3,370.5,0.125,78,114.0
5369,E4,370.5,51/200,88,114.0
5370,E2,370.5,73/500,70,114.0
5371,F#2,370.745,0.062,114,114.0
5372,A2,370.75,0.125,78,114.0
5373,B3,370.75,143/500,103,114.0
5374,E2,370.75,73/500,70,114.0
5375,A3,371.0,0.125,78,114.0
5376,C4,371.0,0.297,83,114.0
5377,A2,371.0,73/500,70,114.0
5378,E2,371.005,0.062,127,114.0
5379,F#2,371.016,0.062,114,114.0
5380,F#2,371.25,0.062,114,114.0
5381,A2,371.25,0.125,78,114.0
5382,E4,371.25,49/200,99,114.0
5383,B-2,371.5,0.062,114,114.0
5384,A3,371.5,0.125,78,114.0
5385,B3,371.5,143/500,96,114.0
5386,A2,371.51,27/200,70,114.0
5387,F#2,371.75,0.062,114,114.0
5388,A3,371.75,0.125,78,114.0
5389,C4,371.75,26/125,87,114.0
5390,A2,371.76,27/200,70,114.0
5391,C2,372.0,0.062,127,114.0
5392,F#2,372.0,0.062,114,114.0
5393,C#3,372.0,0.062,117,114.0
5394,B2,372.0,0.125,78,114.0
5395,B3,372.0,229/1000,111,114.0
5396,B1,372.0,73/500,70,114.0
5397,F#2,372.245,0.062,114,114.0
5398,B3,372.25,0.125,78,114.0
5399,E-4,372.25,0.25,103,114.0
5400,B-2,372.495,0.062,114,114.0
5401,B3,372.5,0.125,78,114.0
5402,F#4,372.5,107/500,114,114.0
5403,B1,372.5,73/500,70,114.0
5404,E-4,372.714,3.719,98,114.0
5405,F#4,372.714,3.719,98,114.0
5406,A3,372.714,3.719,98,114.0
5407,B1,372.74,0.156,70,114.0
5408,F#2,372.745,0.062,114,114.0
5409,B2,372.75,0.125,78,114.0
5410,B3,372.75,177/500,101,114.0
5411,B3,373.0,0.125,78,114.0
5412,E-4,373.0,69/250,96,114.0
5413,E2,373.005,0.062,127,114.0
5414,E-2,373.01,27/200,70,114.0
5415,F#2,373.021,0.062,114,114.0
5416,F#2,373.25,0.062,114,114.0
5417,B2,373.25,0.125,78,114.0
5418,F#4,373.25,26/125,93,114.0
5419,B-2,373.495,0.062,114,114.0
5420,B3,373.5,0.125,78,114.0
5421,B3,373.5,0.328,89,114.0
5422,E-2,373.5,73/500,70,114.0
5423,F#2,373.75,0.062,114,114.0
5424,B3,373.75,0.125,78,114.0
5425,E-4,373.75,307/1000,99,114.0
5426,E-2,373.75,73/500,70,114.0
5427,B2,374.0,0.125,78,114.0
5428,F#4,374.0,0.234,99,114.0
5429,F#2,374.01,27/200,70,114.0
5430,C2,374.016,0.062,127,114.0
5431,F#2,374.016,0.062,114,114.0
5432,F#2,374.25,0.062,114,114.0
5433,B3,374.25,0.125,78,114.0
5434,B3,374.25,339/1000,101,114.0
5435,B-2,374.5,0.062,114,114.0
5436,B3,374.5,0.125,78,114.0
5437,E-4,374.5,0.281,97,114.0
5438,F#2,374.51,27/200,70,114.0
5439,F#2,374.75,0.062,114,114.0
5440,B2,374.75,0.125,78,114.0
5441,F#4,374.75,0.219,103,114.0
5442,F#2,374.76,27/200,70,114.0
5443,B3,375.0,0.125,78,114.0
5444,B3,375.0,19/50,106,114.0
5445,E2,375.005,0.062,127,114.0
5446,F#2,375.021,0.062,114,114.0
5447,B2,375.021,0.125,70,114.0
5448,F#2,375.25,0.062,114,114.0
5449,B2,375.25,0.125,78,114.0
5450,E-4,375.25,51/200,103,114.0
5451,B2,375.479,167/1000,70,114.0
5452,B-2,375.5,0.062,114,114.0
5453,B3,375.5,0.125,78,114.0
5454,F#4,375.5,99/500,110,114.0
5455,B2,375.729,167/1000,70,114.0
5456,F#2,375.745,0.062,114,114.0
5457,B3,375.75,0.125,78,114.0
5458,E-4,375.75,91/500,92,114.0
5459,E3,376.0,0.125,78,114.0
5460,G3,376.0,151/500,96,114.0
5461,E1,376.0,73/500,70,114.0
5462,C2,376.01,0.062,127,114.0
5463,F#2,376.01,0.062,114,114.0
5464,E4,376.25,0.125,78,114.0
5465,B3,376.25,0.297,94,114.0
5466,E1,376.49,0.156,70,114.0
5467,E4,376.5,0.125,78,114.0
5468,E4,376.5,28/125,106,114.0
5469,F#2,376.51,0.062,114,114.0
5470,E-3,376.51,0.062,119,114.0
5471,G4,376.714,2.234,95,114.0
5472,E4,376.714,2.234,95,114.0
5473,B3,376.714,2.234,95,114.0
5474,F#2,376.75,0.062,114,114.0
5475,E3,376.75,0.125,78,114.0
5476,G3,376.75,177/500,81,114.0
5477,E1,376.75,73/500,70,114.0
5478,E4,377.0,0.125,78,114.0
5479,B3,377.0,0.234,106,114.0
5480,G1,377.0,73/500,70,114.0
5481,E2,377.005,0.062,127,114.0
5482,F#2,377.016,0.062,114,114.0
5483,E3,377.25,0.125,78,114.0
5484,E4,377.25,323/1000,88,114.0
5485,F#2,377.5,0.062,114,114.0
5486,E4,377.5,0.125,78,114.0
5487,G3,377.5,0.312,88,114.0
5488,G1,377.5,73/500,70,114.0
5489,F#2,377.745,0.062,114,114.0
5490,E4,377.75,0.125,78,114.0
5491,B3,377.75,271/1000,78,114.0
5492,G1,377.75,73/500,70,114.0
5493,B1,377.99,0.156,70,114.0
5494,E3,378.0,0.125,78,114.0
5495,E4,378.0,69/250,92,114.0
5496,E2,378.005,0.062,127,114.0
5497,F#2,378.016,0.062,114,114.0
5498,E4,378.25,0.125,78,114.0
5499,G3,378.25,339/1000,92,114.0
5500,C2,378.495,0.062,127,114.0
5501,E4,378.5,0.125,78,114.0
5502,B3,378.5,143/500,92,114.0
5503,B-2,378.505,0.062,114,114.0
5504,B1,378.51,27/200,70,114.0
5505,E3,378.75,0.125,78,114.0
5506,E4,378.75,159/500,96,114.0
5507,B1,378.75,73/500,70,114.0
5508,E4,379.0,0.125,78,114.0
5509,G3,379.0,177/500,94,114.0
5510,E2,379.0,73/500,70,114.0
5511,G3,379.214,341/500,106,114.0
5512,E4,379.214,341/500,106,114.0
5513,E3,379.25,0.125,78,114.0
5514,B3,379.25,0.312,88,114.0
5515,E2,379.49,0.156,70,114.0
5516,E4,379.5,0.125,78,114.0
5517,E4,379.5,151/500,89,114.0
5518,E2,379.516,0.062,127,114.0
5519,C#3,379.516,0.062,117,114.0
5520,E4,379.75,0.125,78,114.0
5521,G3,379.75,167/1000,89,114.0
5522,E2,379.76,27/200,70,114.0
5523,A3,379.964,0.672,104,114.0
5524,F#4,379.964,0.672,104,114.0
5525,C3,380.0,0.125,78,114.0
5526,B3,380.0,0.297,93,114.0
5527,C2,380.005,0.062,127,114.0
5528,C#3,380.005,0.062,117,114.0
5529,C2,380.01,27/200,70,114.0
5530,C4,380.25,0.125,78,114.0
5531,C4,380.25,229/1000,70,114.0
5532,F#2,380.266,0.062,114,114.0
5533,B-2,380.5,0.062,114,114.0
5534,C4,380.5,0.125,78,114.0
5535,E4,380.5,51/200,81,114.0
5536,C2,380.5,73/500,70,114.0
5537,E4,380.547,271/1000,127,114.0
5538,E5,380.547,271/1000,127,114.0
5539,G4,380.714,1909/500,94,114.0
5540,E4,380.714,1909/500,94,114.0
5541,B3,380.714,1909/500,94,114.0
5542,F#2,380.745,0.062,114,114.0
5543,C3,380.75,0.125,78,114.0
5544,B3,380.75,0.328,101,114.0
5545,C2,380.75,73/500,70,114.0
5546,D4,380.75,229/1000,127,114.0
5547,D5,380.75,229/1000,127,114.0
5548,E2,380.99,0.156,70,114.0
5549,C4,381.0,0.125,78,114.0
5550,C4,381.0,13/50,85,114.0
5551,E2,381.005,0.062,127,114.0
5552,F#2,381.005,0.062,114,114.0
5553,F#2,381.25,0.062,114,114.0
5554,C3,381.25,0.125,78,114.0
5555,E4,381.25,0.25,86,114.0
5556,D4,381.26,0.281,127,114.0
5557,D5,381.266,99/500,127,114.0
5558,B4,381.469,99/500,127,114.0
5559,B3,381.469,99/500,127,114.0
5560,B-2,381.5,0.062,114,114.0
5561,C4,381.5,0.125,78,114.0
5562,B3,381.5,323/1000,96,114.0
5563,E2,381.51,27/200,70,114.0
5564,F#2,381.75,0.062,114,114.0
5565,C4,381.75,0.125,78,114.0
5566,C4,381.75,13/50,81,114.0
5567,E2,381.75,73/500,70,114.0
5568,A3,381.99,193/1000,127,114.0
5569,A4,381.99,193/1000,127,114.0
5570,C3,382.0,0.125,78,114.0
5571,E4,382.0,143/500,80,114.0
5572,C2,382.01,0.062,127,114.0
5573,G2,382.01,27/200,70,114.0
5574,F#2,382.016,0.062,114,114.0
5575,F#2,382.245,0.062,114,114.0
5576,C4,382.25,0.125,78,114.0
5577,B3,382.25,177/500,78,114.0
5578,G3,382.458,0.203,127,114.0
5579,G4,382.458,0.203,127,114.0
5580,G2,382.49,0.156,70,114.0
5581,B-2,382.495,0.062,114,114.0
5582,C4,382.5,0.125,78,114.0
5583,C4,382.5,143/500,74,114.0
5584,F#2,382.745,0.062,114,114.0
5585,C3,382.75,0.125,78,114.0
5586,E4,382.75,0.281,71,114.0
5587,G2,382.76,27/200,70,114.0
5588,C4,383.0,0.125,78,114.0
5589,B3,383.0,339/1000,96,114.0
5590,E2,383.005,0.062,127,114.0
5591,F#2,383.005,0.062,114,114.0
5592,C3,383.021,0.125,70,114.0
5593,F#2,383.245,0.062,114,114.0
5594,C3,383.25,0.125,78,114.0
5595,C4,383.25,151/500,65,114.0
5596,B-2,383.5,0.062,114,114.0
5597,C4,383.5,0.125,78,114.0
5598,E4,383.5,0.234,76,114.0
5599,C3,383.5,73/500,70,114.0
5600,F#2,383.75,0.062,114,114.0
5601,C4,383.75,0.125,78,114.0
5602,B3,383.75,0.25,83,114.0
5603,C3,383.75,73/500,70,114.0
5604,C2,384.0,0.062,127,114.0
5605,F#2,384.0,0.062,114,114.0
5606,A2,384.0,0.125,78,114.0
5607,C4,384.0,13/50,64,114.0
5608,B3,384.0,89/1000,83,114.0
5609,A1,384.021,0.125,70,114.0
5610,F#2,384.245,0.062,114,114.0
5611,A3,384.25,0.125,78,114.0
5612,E4,384.25,73/250,72,114.0
5613,A1,384.479,167/1000,70,114.0
5614,B-2,384.495,0.062,114,114.0
5615,A3,384.5,0.125,78,114.0
5616,B3,384.5,349/1000,94,114.0
5617,E4,384.505,271/1000,127,114.0
5618,E5,384.505,271/1000,127,114.0
5619,B3,384.714,1763/500,95,114.0
5620,E4,384.714,1763/500,95,114.0
5621,G4,384.714,1763/500,95,114.0
5622,D5,384.724,0.203,127,114.0
5623,D4,384.724,0.203,127,114.0
5624,A1,384.74,0.156,70,114.0
5625,F#2,384.745,0.062,114,114.0
5626,A2,384.75,0.125,78,114.0
5627,C4,384.75,151/500,73,114.0
5628,E2,384.995,0.062,127,114.0
5629,F#2,384.995,0.062,114,114.0
5630,A3,385.0,0.125,78,114.0
5631,E4,385.0,0.25,81,114.0
5632,C2,385.021,0.125,70,114.0
5633,F#2,385.245,0.062,114,114.0
5634,A2,385.25,0.125,78,114.0
5635,B3,385.25,0.328,86,114.0
5636,D5,385.25,229/1000,127,114.0
5637,D4,385.255,151/500,127,114.0
5638,B-2,385.495,0.062,114,114.0
5639,A3,385.5,0.125,78,114.0
5640,C4,385.5,143/500,71,114.0
5641,B3,385.5,91/500,127,114.0
5642,B4,385.5,91/500,127,114.0
5643,C2,385.51,27/200,70,114.0
5644,F#2,385.745,0.062,114,114.0
5645,A3,385.75,0.125,78,114.0
5646,E4,385.75,73/250,74,114.0
5647,C2,385.75,73/500,70,114.0
5648,A3,385.979,0.266,127,114.0
5649,A4,385.979,0.266,127,114.0
5650,A2,386.0,0.125,78,114.0
5651,B3,386.0,99/250,86,114.0
5652,E2,386.0,73/500,70,114.0
5653,C2,386.005,0.062,127,114.0
5654,F#2,386.005,0.062,114,114.0
5655,B3,386.182,0.219,127,114.0
5656,B4,386.182,0.219,127,114.0
5657,F#2,386.245,0.062,114,114.0
5658,A3,386.25,0.125,78,114.0
5659,C4,386.25,0.281,67,114.0
5660,G3,386.448,51/200,127,114.0
5661,G4,386.448,51/200,127,114.0
5662,B-2,386.495,0.062,114,114.0
5663,A3,386.5,0.125,78,114.0
5664,E4,386.5,0.25,75,114.0
5665,E2,386.5,73/500,70,114.0
5666,F#2,386.745,0.062,114,114.0
5667,A2,386.75,0.125,78,114.0
5668,B3,386.75,177/500,94,114.0
5669,E2,386.75,73/500,70,114.0
5670,A3,387.0,0.125,78,114.0
5671,C4,387.0,307/1000,78,114.0
5672,A2,387.0,73/500,70,114.0
5673,E2,387.005,0.062,127,114.0
5674,F#2,387.005,0.062,114,114.0
5675,F#2,387.245,0.062,114,114.0
5676,A2,387.25,0.125,78,114.0
5677,E4,387.25,49/200,78,114.0
5678,B-2,387.495,0.062,114,114.0
5679,A3,387.5,0.125,78,114.0
5680,B3,387.5,307/1000,94,114.0
5681,A2,387.5,73/500,70,114.0
5682,A2,387.74,0.156,70,114.0
5683,F#2,387.745,0.062,114,114.0
5684,A3,387.75,0.125,78,114.0
5685,C4,387.75,91/500,68,114.0
5686,G5,387.974,13/500,127,114.0
5687,B4,387.974,13/500,127,114.0
5688,B5,387.974,13/500,127,114.0
5689,E-5,387.974,13/500,127,114.0
5690,B2,388.0,0.125,78,114.0
5691,B3,388.0,0.312,116,114.0
5692,G5,388.0,58/125,127,114.0
5693,B4,388.0,58/125,127,114.0
5694,B5,388.0,58/125,127,114.0
5695,E-5,388.0,58/125,127,114.0
5696,C2,388.01,0.062,127,114.0
5697,F#2,388.01,0.062,114,114.0
5698,B1,388.01,27/200,70,114.0
5699,F#2,388.245,0.062,114,114.0
5700,B3,388.25,0.125,78,114.0
5701,E-4,388.25,13/50,97,114.0
5702,B-2,388.5,0.062,114,114.0
5703,B3,388.5,0.125,78,114.0
5704,F#4,388.5,0.25,95,114.0
5705,B1,388.5,73/500,70,114.0
5706,B5,388.62,229/1000,127,114.0
5707,E-5,388.62,229/1000,127,114.0
5708,B4,388.62,229/1000,127,114.0
5709,G5,388.62,229/1000,127,114.0
5710,B3,388.714,0.562,116,114.0
5711,E-4,388.714,0.562,116,114.0
5712,G4,388.714,0.562,116,114.0
5713,F#2,388.75,0.062,114,114.0
5714,B2,388.75,0.125,78,114.0
5715,B3,388.75,417/1000,88,114.0
5716,B1,388.75,73/500,70,114.0
5717,B3,389.0,0.125,78,114.0
5718,E-4,389.0,0.344,95,114.0
5719,E-2,389.0,73/500,70,114.0
5720,E2,389.01,0.062,127,114.0
5721,F#2,389.01,0.062,114,114.0
5722,F#2,389.25,0.062,114,114.0
5723,B2,389.25,0.125,78,114.0
5724,F#4,389.25,6/25,76,114.0
5725,B3,389.38,49/200,116,114.0
5726,E-4,389.38,49/200,116,114.0
5727,G4,389.38,49/200,116,114.0
5728,B3,389.5,0.125,78,114.0
5729,B3,389.5,37/100,99,114.0
5730,B-2,389.51,0.062,114,114.0
5731,E-2,389.51,27/200,70,114.0
5732,F#2,389.745,0.062,114,114.0
5733,B3,389.75,0.125,78,114.0
5734,E-4,389.75,0.344,103,114.0
5735,E-2,389.76,27/200,70,114.0
5736,B2,390.0,0.125,78,114.0
5737,F#4,390.0,26/125,110,114.0
5738,C2,390.005,0.062,127,114.0
5739,F#2,390.005,0.062,114,114.0
5740,F#2,390.021,0.125,70,114.0
5741,F#2,390.245,0.062,114,114.0
5742,B3,390.25,0.125,78,114.0
5743,B3,390.25,0.328,101,114.0
5744,F#2,390.49,0.156,70,114.0
5745,B-2,390.5,0.062,114,114.0
5746,B3,390.5,0.125,78,114.0
5747,E-4,390.5,0.328,99,114.0
5748,F#2,390.74,0.156,70,114.0
5749,F#2,390.745,0.062,114,114.0
5750,B2,390.75,0.125,78,114.0
5751,F#4,390.75,0.266,97,114.0
5752,B3,391.0,0.125,78,114.0
5753,B3,391.0,401/1000,96,114.0
5754,E2,391.005,0.062,127,114.0
5755,F#2,391.005,0.062,114,114.0
5756,B2,391.021,0.125,70,114.0
5757,F#2,391.245,0.062,114,114.0
5758,B2,391.25,0.125,78,114.0
5759,E-4,391.25,271/1000,74,114.0
5760,B-2,391.495,0.062,114,114.0
5761,B3,391.5,0.125,78,114.0
5762,F#4,391.5,0.188,107,114.0
5763,B2,391.5,73/500,70,114.0
5764,F#2,391.745,0.062,114,114.0
5765,B3,391.75,0.125,78,114.0
5766,B2,391.771,0.125,70,114.0
5767,E1,391.99,1/100,70,114.0
5768,E3,392.0,0.125,78,114.0
5769,E3,392.0,99/500,99,114.0
5770,E1,392.0,73/500,70,114.0
5771,C2,392.01,0.062,127,114.0
5772,F#2,392.01,0.062,114,114.0
5773,E4,392.25,0.125,78,114.0
5774,E3,392.25,0.297,88,114.0
5775,F#2,392.5,0.062,114,114.0
5776,E4,392.5,0.125,78,114.0
5777,G3,392.5,107/500,76,114.0
5778,E1,392.5,73/500,70,114.0
5779,F#2,392.75,0.062,114,114.0
5780,E3,392.75,0.125,78,114.0
5781,E3,392.75,49/200,66,114.0
5782,E1,392.771,0.125,70,114.0
5783,G1,392.99,0.156,70,114.0
5784,E2,392.995,0.062,127,114.0
5785,F#2,392.995,0.062,114,114.0
5786,E4,393.0,0.125,78,114.0
5787,A3,393.0,0.234,88,114.0
5788,E3,393.25,0.125,78,114.0
5789,E3,393.25,143/500,80,114.0
5790,F#2,393.5,0.062,114,114.0
5791,E4,393.5,0.125,78,114.0
5792,B3,393.5,193/1000,99,114.0
5793,G1,393.5,73/500,70,114.0
5794,F#2,393.745,0.062,114,114.0
5795,E4,393.75,0.125,78,114.0
5796,E3,393.75,91/500,94,114.0
5797,G1,393.75,73/500,70,114.0
5798,E3,394.0,0.125,78,114.0
5799,E3,394.0,0.25,95,114.0
5800,B1,394.0,73/500,70,114.0
5801,E2,394.005,0.062,127,114.0
5802,F#2,394.005,0.062,114,114.0
5803,E4,394.25,0.125,78,114.0
5804,E3,394.25,0.25,101,114.0
5805,B1,394.49,0.156,70,114.0
5806,C2,394.5,0.062,127,114.0
5807,B-2,394.5,0.062,114,114.0
5808,E4,394.5,0.125,78,114.0
5809,G3,394.5,0.25,101,114.0
5810,E3,394.75,0.125,78,114.0
5811,E3,394.75,0.25,95,114.0
5812,B1,394.75,73/500,70,114.0
5813,E4,395.0,0.125,78,114.0
5814,A3,395.0,0.25,92,114.0
5815,E2,395.0,73/500,70,114.0
5816,G3,395.214,341/500,106,114.0
5817,E4,395.214,341/500,106,114.0
5818,E3,395.25,0.125,78,114.0
5819,E3,395.25,0.25,90,114.0
5820,E2,395.495,0.062,127,114.0
5821,C#3,395.495,0.062,117,114.0
5822,E4,395.5,0.125,78,114.0
5823,B3,395.5,0.25,90,114.0
5824,E2,395.5,73/500,70,114.0
5825,E4,395.75,0.125,78,114.0
5826,E3,395.75,0.25,90,114.0
5827,E2,395.75,73/500,70,114.0
5828,A3,395.964,0.672,104,114.0
5829,F#4,395.964,0.672,104,114.0
5830,C2,395.99,1/100,70,114.0
5831,E3,396.0,0.125,78,114.0
5832,B3,396.0,51/200,103,114.0
5833,C2,396.0,73/500,70,114.0
5834,C2,396.021,0.062,127,114.0
5835,C#3,396.021,0.062,117,114.0
5836,E4,396.25,0.125,78,114.0
5837,C4,396.25,6/25,69,114.0
5838,F#2,396.26,0.062,114,114.0
5839,B-2,396.5,0.062,114,114.0
5840,E4,396.5,0.125,78,114.0
5841,E4,396.5,49/200,89,114.0
5842,C2,396.51,27/200,70,114.0
5843,G4,396.714,3.734,105,114.0
5844,E4,396.714,3.734,105,114.0
5845,B3,396.714,3.734,105,114.0
5846,F#2,396.745,0.062,114,114.0
5847,E3,396.75,0.125,78,114.0
5848,B3,396.75,69/250,88,114.0
5849,C2,396.75,73/500,70,114.0
5850,E4,397.0,0.125,78,114.0
5851,C4,397.0,151/500,88,114.0
5852,E2,397.005,0.062,127,114.0
5853,E2,397.01,27/200,70,114.0
5854,F#2,397.016,0.062,114,114.0
5855,F#2,397.245,0.062,114,114.0
5856,E4,397.25,0.125,78,114.0
5857,E4,397.25,0.203,73,114.0
5858,E2,397.49,0.156,70,114.0
5859,B-2,397.495,0.062,114,114.0
5860,E3,397.5,0.125,78,114.0
5861,B3,397.5,0.328,86,114.0
5862,F#2,397.745,0.062,114,114.0
5863,E4,397.75,0.125,78,114.0
5864,C4,397.75,0.281,85,114.0
5865,E2,397.76,27/200,70,114.0
5866,E3,398.0,0.125,78,114.0
5867,E4,398.0,49/200,83,114.0
5868,C2,398.005,0.062,127,114.0
5869,F#2,398.005,0.062,114,114.0
5870,G2,398.021,0.125,70,114.0
5871,F#2,398.245,0.062,114,114.0
5872,E4,398.25,0.125,78,114.0
5873,B3,398.25,339/1000,80,114.0
5874,B-2,398.5,0.062,114,114.0
5875,E4,398.5,0.125,78,114.0
5876,C4,398.5,69/250,69,114.0
5877,G2,398.5,73/500,70,114.0
5878,F#2,398.75,0.062,114,114.0
5879,E3,398.75,0.125,78,114.0
5880,E4,398.75,6/25,80,114.0
5881,G2,398.75,73/500,70,114.0
5882,E4,399.0,0.125,78,114.0
5883,B3,399.0,0.312,96,114.0
5884,E2,399.005,0.062,127,114.0
5885,C3,399.01,27/200,70,114.0
5886,F#2,399.016,0.062,114,114.0
5887,F#2,399.25,0.062,114,114.0
5888,E3,399.25,0.125,78,114.0
5889,C4,399.25,0.281,76,114.0
5890,B-2,399.495,0.062,114,114.0
5891,E4,399.5,0.125,78,114.0
5892,E4,399.5,0.234,78,114.0
5893,C3,399.5,73/500,70,114.0
5894,F#2,399.75,0.062,114,114.0
5895,E4,399.75,0.125,78,114.0
5896,B3,399.75,0.25,89,114.0
5897,C3,399.75,73/500,70,114.0
5898,A2,400.0,0.125,78,114.0
5899,C4,400.0,69/250,86,114.0
5900,B3,400.0,0.078,89,114.0
5901,A1,400.01,27/200,70,114.0
5902,C2,400.016,0.062,127,114.0
5903,F#2,400.016,0.062,114,114.0
5904,C#3,400.026,0.062,117,114.0
5905,F#2,400.245,0.062,114,114.0
5906,A3,400.25,0.125,78,114.0
5907,E4,400.25,49/200,76,114.0
5908,B-2,400.5,0.062,114,114.0
5909,A3,400.5,0.125,78,114.0
5910,B3,400.5,0.312,94,114.0
5911,A1,400.51,27/200,70,114.0
5912,E4,400.714,3.641,87,114.0
5913,G4,400.714,3.922,95,114.0
5914,B3,400.714,749/200,95,114.0
5915,A1,400.729,167/1000,70,114.0
5916,A2,400.75,0.125,78,114.0
5917,C4,400.75,0.312,76,114.0
5918,F#2,400.755,0.062,114,114.0
5919,E2,401.0,0.062,127,114.0
5920,F#2,401.0,0.062,114,114.0
5921,A3,401.0,0.125,78,114.0
5922,E4,401.0,49/200,89,114.0
5923,C2,401.0,73/500,70,114.0
5924,F#2,401.25,0.062,114,114.0
5925,A2,401.25,0.125,78,114.0
5926,B3,401.25,0.344,89,114.0
5927,B-2,401.5,0.062,114,114.0
5928,A3,401.5,0.125,78,114.0
5929,C4,401.5,271/1000,86,114.0
5930,C2,401.521,0.125,70,114.0
5931,F#2,401.75,0.062,114,114.0
5932,A3,401.75,0.125,78,114.0
5933,E4,401.75,51/200,88,114.0
5934,C2,401.75,73/500,70,114.0
5935,A2,402.0,0.125,78,114.0
5936,B3,402.0,333/1000,96,114.0
5937,E2,402.0,73/500,70,114.0
5938,C2,402.005,0.062,127,114.0
5939,F#2,402.005,0.062,114,114.0
5940,F#2,402.25,0.062,114,114.0
5941,A3,402.25,0.125,78,114.0
5942,C4,402.25,69/250,75,114.0
5943,B-2,402.5,0.062,114,114.0
5944,A3,402.5,0.125,78,114.0
5945,E4,402.5,51/200,88,114.0
5946,E2,402.5,73/500,70,114.0
5947,E2,402.74,0.156,70,114.0
5948,F#2,402.745,0.062,114,114.0
5949,A2,402.75,0.125,78,114.0
5950,B3,402.75,143/500,103,114.0
5951,A3,403.0,0.125,78,114.0
5952,C4,403.0,0.297,83,114.0
5953,E2,403.005,0.062,127,114.0
5954,A2,403.01,27/200,70,114.0
5955,F#2,403.016,0.062,114,114.0
5956,F#2,403.25,0.062,114,114.0
5957,A2,403.25,0.125,78,114.0
5958,E4,403.25,49/200,99,114.0
5959,B-2,403.5,0.062,114,114.0
5960,A3,403.5,0.125,78,114.0
5961,B3,403.5,143/500,96,114.0
5962,A2,403.5,73/500,70,114.0
5963,F#2,403.75,0.062,114,114.0
5964,A3,403.75,0.125,78,114.0
5965,C4,403.75,26/125,87,114.0
5966,A2,403.75,73/500,70,114.0
5967,B1,403.99,1/100,70,114.0
5968,C2,404.0,0.062,127,114.0
5969,F#2,404.0,0.062,114,114.0
5970,C#3,404.0,0.062,117,114.0
5971,B2,404.0,0.125,78,114.0
5972,B3,404.0,229/1000,111,114.0
5973,B1,404.0,73/500,70,114.0
5974,F#2,404.245,0.062,114,114.0
5975,B3,404.25,0.125,78,114.0
5976,E-4,404.25,0.25,103,114.0
5977,B-2,404.495,0.062,114,114.0
5978,B3,404.5,0.125,78,114.0
5979,F#4,404.5,107/500,114,114.0
5980,B1,404.51,27/200,70,114.0
5981,E-4,404.714,3.719,98,114.0
5982,F#4,404.714,3.719,98,114.0
5983,A3,404.714,3.719,98,114.0
5984,F#2,404.745,0.062,114,114.0
5985,B2,404.75,0.125,78,114.0
5986,B3,404.75,177/500,101,114.0
5987,B1,404.76,27/200,70,114.0
5988,B3,405.0,0.125,78,114.0
5989,E-4,405.0,69/250,96,114.0
5990,E-2,405.0,73/500,70,114.0
5991,E2,405.005,0.062,127,114.0
5992,F#2,405.021,0.062,114,114.0
5993,F#2,405.25,0.062,114,114.0
5994,B2,405.25,0.125,78,114.0
5995,F#4,405.25,26/125,93,114.0
5996,E-2,405.49,0.156,70,114.0
5997,B-2,405.495,0.062,114,114.0
5998,B3,405.5,0.125,78,114.0
5999,B3,405.5,0.328,89,114.0
6000,E-2,405.74,0.156,70,114.0
6001,F#2,405.75,0.062,114,114.0
6002,B3,405.75,0.125,78,114.0
6003,E-4,405.75,307/1000,99,114.0
6004,B2,406.0,0.125,78,114.0
6005,F#4,406.0,0.234,99,114.0
6006,C2,406.016,0.062,127,114.0
6007,F#2,406.016,0.062,114,114.0
6008,F#2,406.021,0.125,70,114.0
6009,F#2,406.25,0.062,114,114.0
6010,B3,406.25,0.125,78,114.0
6011,B3,406.25,339/1000,101,114.0
6012,B-2,406.5,0.062,114,114.0
6013,B3,406.5,0.125,78,114.0
6014,E-4,406.5,0.281,97,114.0
6015,F#2,406.5,73/500,70,114.0
6016,F#2,406.75,0.062,114,114.0
6017,B2,406.75,0.125,78,114.0
6018,F#4,406.75,0.219,103,114.0
6019,F#2,406.75,73/500,70,114.0
6020,B3,407.0,0.125,78,114.0
6021,B3,407.0,19/50,106,114.0
6022,E2,407.005,0.062,127,114.0
6023,B2,407.01,27/200,70,114.0
6024,F#2,407.021,0.062,114,114.0
6025,F#2,407.25,0.062,114,114.0
6026,B2,407.25,0.125,78,114.0
6027,E-4,407.25,51/200,103,114.0
6028,B-2,407.5,0.062,114,114.0
6029,B3,407.5,0.125,78,114.0
6030,F#4,407.5,99/500,110,114.0
6031,B2,407.51,27/200,70,114.0
6032,F#2,407.745,0.062,114,114.0
6033,B3,407.75,0.125,78,114.0
6034,E-4,407.75,91/500,92,114.0
6035,B2,407.75,73/500,70,114.0
6036,E3,408.0,0.125,78,114.0
6037,G3,408.0,151/500,96,114.0
6038,C2,408.01,0.062,127,114.0
6039,F#2,408.01,0.062,114,114.0
6040,E1,408.021,0.125,70,114.0
6041,E4,408.25,0.125,78,114.0
6042,B3,408.25,0.297,94,114.0
6043,E1,408.49,0.156,70,114.0
6044,E4,408.5,0.125,78,114.0
6045,E4,408.5,28/125,106,114.0
6046,F#2,408.51,0.062,114,114.0
6047,E-3,408.51,0.062,119,114.0
6048,G4,408.714,2.234,95,114.0
6049,E4,408.714,2.234,95,114.0
6050,B3,408.714,2.234,95,114.0
6051,E1,408.74,0.156,70,114.0
6052,F#2,408.75,0.062,114,114.0
6053,E3,408.75,0.125,78,114.0
6054,G3,408.75,177/500,81,114.0
6055,G1,408.99,0.156,70,114.0
6056,E4,409.0,0.125,78,114.0
6057,B3,409.0,0.234,106,114.0
6058,E2,409.005,0.062,127,114.0
6059,F#2,409.016,0.062,114,114.0
6060,E3,409.25,0.125,78,114.0
6061,E4,409.25,323/1000,88,114.0
6062,G1,409.49,0.156,70,114.0
6063,F#2,409.5,0.062,114,114.0
6064,E4,409.5,0.125,78,114.0
6065,G3,409.5,0.312,88,114.0
6066,F#2,409.745,0.062,114,114.0
6067,E4,409.75,0.125,78,114.0
6068,B3,409.75,271/1000,78,114.0
6069,G1,409.75,73/500,70,114.0
6070,E3,410.0,0.125,78,114.0
6071,E4,410.0,69/250,92,114.0
6072,E2,410.005,0.062,127,114.0
6073,F#2,410.016,0.062,114,114.0
6074,B1,410.021,0.125,70,114.0
6075,E4,410.25,0.125,78,114.0
6076,G3,410.25,339/1000,92,114.0
6077,C2,410.495,0.062,127,114.0
6078,E4,410.5,0.125,78,114.0
6079,B3,410.5,143/500,92,114.0
6080,B-2,410.505,0.062,114,114.0
6081,B1,410.521,0.125,70,114.0
6082,B1,410.74,0.156,70,114.0
6083,E3,410.75,0.125,78,114.0
6084,E4,410.75,159/500,96,114.0
6085,E2,410.99,0.156,70,114.0
6086,E4,411.0,0.125,78,114.0
6087,G3,411.0,177/500,94,114.0
6088,G3,411.214,341/500,106,114.0
6089,E4,411.214,341/500,106,114.0
6090,E3,411.25,0.125,78,114.0
6091,B3,411.25,0.312,88,114.0
6092,E4,411.5,0.125,78,114.0
6093,E4,411.5,151/500,89,114.0
6094,E2,411.5,73/500,70,114.0
6095,E2,411.516,0.062,127,114.0
6096,C#3,411.516,0.062,117,114.0
6097,E4,411.75,0.125,78,114.0
6098,G3,411.75,167/1000,89,114.0
6099,E2,411.75,73/500,70,114.0
6100,A3,411.964,0.672,104,114.0
6101,F#4,411.964,0.672,104,114.0
6102,C2,412.0,0.062,127,114.0
6103,C#3,412.0,0.062,117,114.0
6104,C3,412.0,0.125,78,114.0
6105,B3,412.0,51/200,103,114.0
6106,C2,412.0,73/500,70,114.0
6107,F#2,412.25,0.062,114,114.0
6108,C4,412.25,0.125,78,114.0
6109,C4,412.25,6/25,69,114.0
6110,C2,412.49,0.156,70,114.0
6111,B-2,412.5,0.062,114,114.0
6112,C4,412.5,0.125,78,114.0
6113,E4,412.5,49/200,89,114.0
6114,E4,412.547,271/1000,127,114.0
6115,E5,412.547,271/1000,127,114.0
6116,G4,412.714,1909/500,94,114.0
6117,E4,412.714,1909/500,94,114.0
6118,B3,412.714,1909/500,94,114.0
6119,F#2,412.75,0.062,114,114.0
6120,C3,412.75,0.125,78,114.0
6121,B3,412.75,69/250,88,114.0
6122,D4,412.75,229/1000,127,114.0
6123,D5,412.75,229/1000,127,114.0
6124,C2,412.76,27/200,70,114.0
6125,C4,413.0,0.125,78,114.0
6126,C4,413.0,151/500,88,114.0
6127,E2,413.0,73/500,70,114.0
6128,E2,413.005,0.062,127,114.0
6129,F#2,413.005,0.062,114,114.0
6130,F#2,413.25,0.062,114,114.0
6131,C3,413.25,0.125,78,114.0
6132,E4,413.25,0.203,73,114.0
6133,D4,413.26,0.281,127,114.0
6134,D5,413.266,99/500,127,114.0
6135,B4,413.469,99/500,127,114.0
6136,B3,413.469,99/500,127,114.0
6137,B-2,413.5,0.062,114,114.0
6138,C4,413.5,0.125,78,114.0
6139,B3,413.5,0.328,86,114.0
6140,E2,413.5,73/500,70,114.0
6141,F#2,413.745,0.062,114,114.0
6142,C4,413.75,0.125,78,114.0
6143,C4,413.75,0.281,85,114.0
6144,E2,413.75,73/500,70,114.0
6145,G2,413.99,0.156,70,114.0
6146,A3,413.99,193/1000,127,114.0
6147,A4,413.99,193/1000,127,114.0
6148,C3,414.0,0.125,78,114.0
6149,E4,414.0,49/200,83,114.0
6150,C2,414.021,0.062,127,114.0
6151,F#2,414.021,0.062,114,114.0
6152,F#2,414.25,0.062,114,114.0
6153,C4,414.25,0.125,78,114.0
6154,B3,414.25,339/1000,80,114.0
6155,G3,414.458,0.203,127,114.0
6156,G4,414.458,0.203,127,114.0
6157,B-2,414.5,0.062,114,114.0
6158,C4,414.5,0.125,78,114.0
6159,C4,414.5,69/250,69,114.0
6160,G2,414.5,73/500,70,114.0
6161,F#2,414.75,0.062,114,114.0
6162,C3,414.75,0.125,78,114.0
6163,E4,414.75,6/25,80,114.0
6164,G2,414.75,73/500,70,114.0
6165,C4,415.0,0.125,78,114.0
6166,B3,415.0,0.312,96,114.0
6167,E2,415.005,0.062,127,114.0
6168,F#2,415.005,0.062,114,114.0
6169,C3,415.01,27/200,70,114.0
6170,F#2,415.245,0.062,114,114.0
6171,C3,415.25,0.125,78,114.0
6172,C4,415.25,0.281,76,114.0
6173,C3,415.49,0.156,70,114.0
6174,B-2,415.495,0.062,114,114.0
6175,C4,415.5,0.125,78,114.0
6176,E4,415.5,0.234,78,114.0
6177,F#2,415.745,0.062,114,114.0
6178,C4,415.75,0.125,78,114.0
6179,B3,415.75,0.25,89,114.0
6180,C3,415.76,27/200,70,114.0
6181,C2,416.0,0.062,127,114.0
6182,F#2,416.0,0.062,114,114.0
6183,C#3,416.0,0.062,117,114.0
6184,A2,416.0,0.125,78,114.0
6185,C4,416.0,69/250,86,114.0
6186,B3,416.0,0.078,89,114.0
6187,A1,416.021,0.125,70,114.0
6188,F#2,416.245,0.062,114,114.0
6189,A3,416.25,0.125,78,114.0
6190,E4,416.25,49/200,76,114.0
6191,B-2,416.5,0.062,114,114.0
6192,A3,416.5,0.125,78,114.0
6193,B3,416.5,0.312,94,114.0
6194,A1,416.5,73/500,70,114.0
6195,E4,416.505,271/1000,127,114.0
6196,E5,416.505,271/1000,127,114.0
6197,B3,416.714,1763/500,95,114.0
6198,E4,416.714,1763/500,95,114.0
6199,G4,416.714,1763/500,95,114.0
6200,D5,416.724,0.203,127,114.0
6201,D4,416.724,0.203,127,114.0
6202,A1,416.74,0.156,70,114.0
6203,F#2,416.75,0.062,114,114.0
6204,A2,416.75,0.125,78,114.0
6205,C4,416.75,0.312,76,114.0
6206,A3,417.0,0.125,78,114.0
6207,E4,417.0,49/200,89,114.0
6208,E2,417.005,0.062,127,114.0
6209,F#2,417.005,0.062,114,114.0
6210,C2,417.021,0.125,70,114.0
6211,F#2,417.245,0.062,114,114.0
6212,A2,417.25,0.125,78,114.0
6213,B3,417.25,0.344,89,114.0
6214,D5,417.25,229/1000,127,114.0
6215,D4,417.255,151/500,127,114.0
6216,B-2,417.495,0.062,114,114.0
6217,A3,417.5,0.125,78,114.0
6218,C4,417.5,271/1000,86,114.0
6219,C2,417.5,73/500,70,114.0
6220,B3,417.5,91/500,127,114.0
6221,B4,417.5,91/500,127,114.0
6222,F#2,417.745,0.062,114,114.0
6223,A3,417.75,0.125,78,114.0
6224,E4,417.75,51/200,88,114.0
6225,C2,417.875,0.0,60,114.0
6226,A3,417.979,0.266,127,114.0
6227,A4,417.979,0.266,127,114.0
6228,E2,417.99,27/200,70,114.0
6229,A2,418.0,0.125,78,114.0
6230,B3,418.0,333/1000,96,114.0
6231,C2,418.01,0.062,127,114.0
6232,F#2,418.01,0.062,114,114.0
6233,B3,418.182,0.219,127,114.0
6234,B4,418.182,0.219,127,114.0
6235,F#2,418.245,0.062,114,114.0
6236,A3,418.25,0.125,78,114.0
6237,C4,418.25,69/250,75,114.0
6238,G3,418.448,51/200,127,114.0
6239,G4,418.448,51/200,127,114.0
6240,E2,418.479,73/500,70,114.0
6241,B-2,418.495,0.062,114,114.0
6242,A3,418.5,0.125,78,114.0
6243,E4,418.5,51/200,88,114.0
6244,E2,418.74,27/200,70,114.0
6245,F#2,418.75,0.062,114,114.0
6246,A2,418.75,0.125,78,114.0
6247,B3,418.75,143/500,103,114.0
6248,A2,418.969,0.156,70,114.0
6249,A3,419.0,0.125,78,114.0
6250,C4,419.0,0.297,83,114.0
6251,E2,419.01,0.062,127,114.0
6252,F#2,419.01,0.062,114,114.0
6253,A2,419.25,0.125,78,114.0
6254,E4,419.25,49/200,99,114.0
6255,F#2,419.26,0.062,114,114.0
6256,A2,419.479,73/500,70,114.0
6257,B-2,419.5,0.062,114,114.0
6258,A3,419.5,0.125,78,114.0
6259,B3,419.5,143/500,96,114.0
6260,A2,419.729,73/500,70,114.0
6261,F#2,419.745,0.062,114,114.0
6262,A3,419.75,0.125,78,114.0
6263,C4,419.75,26/125,87,114.0
6264,G5,419.974,13/500,127,114.0
6265,B4,419.974,13/500,127,114.0
6266,B5,419.974,13/500,127,114.0
6267,E-5,419.974,13/500,127,114.0
6268,B1,419.979,21/1000,70,114.0
6269,C2,420.0,0.062,127,114.0
6270,F#2,420.0,0.062,114,114.0
6271,C#3,420.0,0.062,117,114.0
6272,B2,420.0,0.125,78,114.0
6273,B3,420.0,229/1000,111,114.0
6274,B1,420.0,0.125,70,114.0
6275,G5,420.0,58/125,127,114.0
6276,B4,420.0,58/125,127,114.0
6277,B5,420.0,58/125,127,114.0
6278,E-5,420.0,58/125,127,114.0
6279,F#2,420.245,0.062,114,114.0
6280,B3,420.25,0.125,78,114.0
6281,E-4,420.25,0.25,103,114.0
6282,B1,420.469,0.156,70,114.0
6283,B-2,420.495,0.062,114,114.0
6284,B3,420.5,0.125,78,114.0
6285,F#4,420.5,107/500,114,114.0
6286,B5,420.62,229/1000,127,114.0
6287,E-5,420.62,229/1000,127,114.0
6288,B4,420.62,229/1000,127,114.0
6289,G5,420.62,229/1000,127,114.0
6290,B3,420.714,0.562,116,114.0
6291,E-4,420.714,0.562,116,114.0
6292,G4,420.714,0.562,116,114.0
6293,B1,420.719,0.156,70,114.0
6294,F#2,420.745,0.062,114,114.0
6295,B2,420.75,0.125,78,114.0
6296,B3,420.75,177/500,101,114.0
6297,E-2,420.979,73/500,70,114.0
6298,B3,421.0,0.125,78,114.0
6299,E-4,421.0,69/250,96,114.0
6300,E2,421.01,0.062,127,114.0
6301,F#2,421.016,0.062,114,114.0
6302,F#2,421.25,0.062,114,114.0
6303,B2,421.25,0.125,78,114.0
6304,F#4,421.25,26/125,93,114.0
6305,B3,421.38,49/200,116,114.0
6306,E-4,421.38,49/200,116,114.0
6307,G4,421.38,49/200,116,114.0
6308,E-2,421.479,73/500,70,114.0
6309,B-2,421.5,0.062,114,114.0
6310,B3,421.5,0.125,78,114.0
6311,B3,421.5,0.328,89,114.0
6312,E-2,421.729,73/500,70,114.0
6313,F#2,421.75,0.062,114,114.0
6314,B3,421.75,0.125,78,114.0
6315,E-4,421.75,307/1000,99,114.0
6316,F#2,421.969,0.156,70,114.0
6317,B2,422.0,0.125,78,114.0
6318,F#4,422.0,0.234,99,114.0
6319,C2,422.005,0.062,127,114.0
6320,F#2,422.005,0.062,114,114.0
6321,F#2,422.245,0.062,114,114.0
6322,B3,422.25,0.125,78,114.0
6323,B3,422.25,339/1000,101,114.0
6324,F#2,422.49,27/200,70,114.0
6325,B-2,422.5,0.062,114,114.0
6326,B3,422.5,0.125,78,114.0
6327,E-4,422.5,0.281,97,114.0
6328,F#2,422.729,73/500,70,114.0
6329,F#2,422.745,0.062,114,114.0
6330,B2,422.75,0.125,78,114.0
6331,F#4,422.75,0.219,103,114.0
6332,B2,422.979,73/500,70,114.0
6333,B3,423.0,0.125,78,114.0
6334,B3,423.0,19/50,106,114.0
6335,E2,423.016,0.062,127,114.0
6336,F#2,423.016,0.062,114,114.0
6337,F#2,423.245,0.062,114,114.0
6338,B2,423.25,0.125,78,114.0
6339,E-4,423.25,51/200,103,114.0
6340,B2,423.469,0.156,70,114.0
6341,B-2,423.5,0.062,114,114.0
6342,B3,423.5,0.125,78,114.0
6343,F#4,423.5,99/500,110,114.0
6344,B2,423.74,27/200,70,114.0
6345,F#2,423.75,0.062,114,114.0
6346,B3,423.75,0.125,78,114.0
6347,E-4,423.75,91/500,92,114.0
6348,C2,424.0,0.062,127,114.0
6349,C#3,424.0,0.062,117,114.0
6350,G#4,424.0,1.25,114,114.0
6351,B4,424.0,1.25,114,114.0
6352,B3,424.0,1.484,125,114.0
6353,E3,424.0,1.484,125,114.0
6354,E4,424.0,1.484,125,114.0
6355,E3,424.724,1.484,118,114.0
6356,B3,424.724,1.484,118,114.0
6357,B3,424.724,1.484,118,114.0
6358,E3,424.724,1.484,118,114.0
6359,E4,424.724,1.484,118,114.0
6360,A4,425.458,1.875,114,114.0
6361,F#4,425.458,1.875,114,114.0
6362,C2,425.495,0.062,127,114.0
6363,E-3,425.495,0.062,119,114.0
6364,D4,425.505,2021/1000,119,114.0
6365,A3,425.505,2021/1000,119,114.0
6366,D3,425.505,2021/1000,119,114.0
6367,D3,426.234,487/250,109,114.0
6368,A3,426.234,2021/1000,105,114.0
6369,D4,426.234,2021/1000,105,114.0
6370,D3,426.234,2021/1000,105,114.0
6371,A3,426.271,2443/1000,123,114.0
6372,C2,427.5,0.062,127,114.0
6373,C#3,427.5,0.062,117,114.0
6374,C4,427.51,49/100,114,114.0
6375,C3,427.51,49/100,116,114.0
6376,G3,427.51,49/100,116,114.0
6377,E4,427.542,229/500,114,114.0
6378,G4,427.542,229/500,114,114.0
6379,C4,428.0,3901/1000,114,114.0
6380,E4,428.0,3667/1000,114,114.0
6381,G4,428.0,3667/1000,114,114.0
6382,C3,428.0,399/100,116,114.0
6383,G3,428.0,399/100,116,114.0
6384,C3,428.208,101/200,97,114.0
6385,C4,428.26,0.453,114,114.0
6386,C3,428.26,0.453,116,114.0
6387,G3,428.26,0.453,116,114.0
6388,C3,428.714,3.75,97,114.0
6389,A3,428.714,187/50,123,114.0
6390,C4,428.714,3.938,114,114.0
6391,C3,428.714,4.0,116,114.0
6392,G3,428.714,4.0,116,114.0
6393,E2,428.995,0.062,127,114.0
6394,E2,430.5,0.062,127,114.0
6395,C2,431.495,0.062,127,114.0
6396,B4,431.958,21/500,114,114.0
6397,G#4,431.958,21/500,114,114.0
6398,E3,431.995,1/200,121,114.0
6399,B3,431.995,1/200,121,114.0
6400,E4,431.995,1/200,121,114.0
6401,C2,432.0,0.062,127,114.0
6402,C#3,432.0,0.062,117,114.0
6403,B4,432.0,1.25,114,114.0
6404,G#4,432.0,1.25,114,114.0
6405,E3,432.0,401/250,121,114.0
6406,B3,432.0,401/250,121,114.0
6407,E4,432.0,401/250,121,114.0
6408,C3,432.714,13/500,116,114.0
6409,G3,432.714,13/500,116,114.0
6410,E3,432.745,196/125,115,114.0
6411,B3,432.745,196/125,115,114.0
6412,B3,432.745,196/125,115,114.0
6413,E3,432.745,196/125,115,114.0
6414,E4,432.755,196/125,120,114.0
6415,E3,432.755,196/125,120,114.0
6416,C2,433.51,0.062,127,114.0
6417,E-3,433.51,0.062,119,114.0
6418,D4,433.516,1.984,108,114.0
6419,D3,433.516,1.984,108,114.0
6420,A3,433.531,187/100,111,114.0
6421,A4,433.542,224/125,114,114.0
6422,F#4,433.542,224/125,114,114.0
6423,D3,434.25,187/100,106,114.0
6424,A3,434.25,187/100,106,114.0
6425,A3,434.25,187/100,106,114.0
6426,D4,434.266,1.984,108,114.0
6427,D3,434.266,1.984,108,114.0
6428,E3,435.484,0.516,122,114.0
6429,A3,435.484,0.516,122,114.0
6430,A2,435.484,0.516,122,114.0
6431,C#4,435.5,0.5,114,114.0
6432,E4,435.5,0.5,114,114.0
6433,C2,435.51,0.062,127,114.0
6434,C#3,435.51,0.062,117,114.0
6435,C#4,436.0,474/125,114,114.0
6436,E4,436.0,4.0,114,114.0
6437,E3,436.0,3979/1000,122,114.0
6438,A3,436.0,3979/1000,122,114.0
6439,A2,436.0,3979/1000,122,114.0
6440,E3,436.234,479/1000,115,114.0
6441,A2,436.234,479/1000,115,114.0
6442,A3,436.234,479/1000,115,114.0
6443,A3,436.24,237/500,116,114.0
6444,C#3,436.24,237/500,116,114.0
6445,E3,436.714,4.0,115,114.0
6446,A2,436.714,4.0,115,114.0
6447,A3,436.714,4.0,115,114.0
6448,A3,436.714,3917/1000,116,114.0
6449,C#3,436.714,3917/1000,116,114.0
6450,E3,440.714,0.016,115,114.0
6451,A2,440.714,0.016,115,114.0
6452,A3,440.714,0.016,115,114.0
