,note_name,start_time,duration,velocity,tempo
0,D3,0.0,4.0,95,120.0
1,C3,0.0,4.0,95,120.0
2,G2,0.0,4.0,95,120.0
3,D4,0.25,0.25,95,120.0
4,G4,0.5,0.25,95,120.0
5,C5,0.75,0.25,95,120.0
6,D5,1.0,0.25,95,120.0
7,G5,1.25,0.25,95,120.0
8,C6,1.5,0.25,95,120.0
9,D6,1.75,0.25,95,120.0
10,G5,2.0,0.25,95,120.0
11,C6,2.25,0.25,95,120.0
12,C6,2.5,1.5,95,120.0
13,D3,4.0,4.0,95,120.0
14,C3,4.0,4.0,95,120.0
15,G2,4.0,4.0,95,120.0
16,D4,4.25,0.25,95,120.0
17,G4,4.5,0.25,95,120.0
18,C5,4.75,0.25,95,120.0
19,D5,5.0,0.25,95,120.0
20,G5,5.25,0.25,95,120.0
21,C6,5.5,0.25,95,120.0
22,D6,5.75,0.25,95,120.0
23,G5,6.0,0.25,95,120.0
24,C6,6.25,0.25,95,120.0
25,C6,6.5,1.5,95,120.0
26,D3,8.0,4.0,95,120.0
27,C3,8.0,4.0,95,120.0
28,G2,8.0,4.0,95,120.0
29,D4,8.25,0.25,95,120.0
30,G4,8.5,0.25,95,120.0
31,C5,8.75,0.25,95,120.0
32,D5,9.0,0.25,95,120.0
33,G5,9.25,0.25,95,120.0
34,C6,9.5,0.25,95,120.0
35,D6,9.75,0.25,95,120.0
36,G5,10.0,0.25,95,120.0
37,C6,10.25,0.25,95,120.0
38,C6,10.5,1.5,95,120.0
39,D3,12.0,4.0,95,120.0
40,C3,12.0,4.0,95,120.0
41,G2,12.0,4.0,95,120.0
42,D4,12.25,0.25,95,120.0
43,G4,12.5,0.25,95,120.0
44,C5,12.75,0.25,95,120.0
45,D5,13.0,0.25,95,120.0
46,G5,13.25,0.25,95,120.0
47,C6,13.5,0.25,95,120.0
48,D6,13.75,0.25,95,120.0
49,G5,14.0,0.25,95,120.0
50,C6,14.25,0.25,95,120.0
51,C6,14.5,0.5,95,120.0
52,G3,15.0,0.5,95,120.0
53,G4,15.0,0.5,95,120.0
54,G3,15.5,0.5,95,120.0
55,G4,15.5,0.5,95,120.0
56,G4,16.0,0.5,95,120.0
57,G5,16.0,0.5,95,120.0
58,C4,16.0,1.0,95,120.0
59,G3,16.0,1.0,95,120.0
60,E3,16.0,1.0,95,120.0
61,C3,16.0,1.0,95,120.0
62,E4,16.5,0.5,95,120.0
63,E5,16.5,0.5,95,120.0
64,E4,17.0,0.5,95,120.0
65,E5,17.0,0.5,95,120.0
66,C4,17.0,1.0,95,120.0
67,G3,17.0,1.0,95,120.0
68,E3,17.0,1.0,95,120.0
69,C3,17.0,1.0,95,120.0
70,D4,17.5,0.5,95,120.0
71,D5,17.5,0.5,95,120.0
72,E4,18.0,0.5,95,120.0
73,E5,18.0,0.5,95,120.0
74,B3,18.0,1.0,95,120.0
75,G3,18.0,1.0,95,120.0
76,E3,18.0,1.0,95,120.0
77,B2,18.0,1.0,95,120.0
78,B3,18.5,0.5,95,120.0
79,B4,18.5,0.5,95,120.0
80,B3,19.0,0.5,95,120.0
81,B4,19.0,0.5,95,120.0
82,B3,19.0,1.0,95,120.0
83,G3,19.0,1.0,95,120.0
84,E3,19.0,1.0,95,120.0
85,B2,19.0,1.0,95,120.0
86,G3,19.5,0.5,95,120.0
87,G4,19.5,0.5,95,120.0
88,A3,20.0,0.5,95,120.0
89,A4,20.0,0.5,95,120.0
90,A3,20.0,1.0,95,120.0
91,E3,20.0,1.0,95,120.0
92,C3,20.0,1.0,95,120.0
93,A2,20.0,1.0,95,120.0
94,A3,20.5,0.5,95,120.0
95,A4,20.5,0.5,95,120.0
96,B3,21.0,0.5,95,120.0
97,B4,21.0,0.5,95,120.0
98,A3,21.0,1.0,95,120.0
99,E3,21.0,1.0,95,120.0
100,C3,21.0,1.0,95,120.0
101,A2,21.0,1.0,95,120.0
102,G3,21.5,0.5,95,120.0
103,G4,21.5,0.5,95,120.0
104,A3,22.0,1.0,95,120.0
105,A4,22.0,2.0,95,120.0
106,A3,22.0,1.0,95,120.0
107,E3,22.0,1.0,95,120.0
108,C3,22.0,1.0,95,120.0
109,A2,22.0,1.0,95,120.0
110,A3,23.0,1.0,95,120.0
111,E3,23.0,1.0,95,120.0
112,C3,23.0,1.0,95,120.0
113,A2,23.0,1.0,95,120.0
114,A3,24.0,0.5,95,120.0
115,A4,24.0,0.5,95,120.0
116,F4,24.0,0.5,95,120.0
117,D4,24.0,0.5,95,120.0
118,A3,24.5,0.5,95,120.0
119,A4,24.5,0.5,95,120.0
120,A3,25.0,0.5,95,120.0
121,A4,25.0,0.5,95,120.0
122,F4,25.0,0.5,95,120.0
123,D4,25.0,0.5,95,120.0
124,C4,25.5,0.5,95,120.0
125,C5,25.5,0.5,95,120.0
126,B3,26.0,1.0,95,120.0
127,E2,26.0,1.5,95,120.0
128,B4,26.0,1.0,95,120.0
129,G4,26.0,1.0,95,120.0
130,E4,26.0,1.0,95,120.0
131,G4,27.0,0.5,95,120.0
132,E4,27.0,0.5,95,120.0
133,B3,27.5,0.5,95,120.0
134,B4,27.5,0.5,95,120.0
135,E2,27.5,0.5,95,120.0
136,C4,28.0,0.5,95,120.0
137,F2,28.0,1.5,95,120.0
138,C5,28.0,0.5,95,120.0
139,A4,28.0,0.5,95,120.0
140,F4,28.0,0.5,95,120.0
141,C4,28.5,0.5,95,120.0
142,C5,28.5,0.5,95,120.0
143,C4,29.0,0.5,95,120.0
144,C5,29.0,0.5,95,120.0
145,A4,29.0,0.5,95,120.0
146,F4,29.0,0.5,95,120.0
147,E-4,29.5,0.5,95,120.0
148,E-5,29.5,0.5,95,120.0
149,F2,29.5,0.5,95,120.0
150,D4,30.0,0.5,95,120.0
151,G2,30.0,1.0,95,120.0
152,D5,30.0,1.0,95,120.0
153,B4,30.0,1.0,95,120.0
154,G4,30.0,1.0,95,120.0
155,G3,31.0,0.5,95,120.0
156,G4,31.0,0.5,95,120.0
157,G2,31.0,1.0,95,120.0
158,G3,31.5,0.5,95,120.0
159,G4,31.5,0.5,95,120.0
160,G4,32.0,0.5,95,120.0
161,G5,32.0,0.5,95,120.0
162,C4,32.0,1.0,95,120.0
163,G3,32.0,1.0,95,120.0
164,E3,32.0,1.0,95,120.0
165,C3,32.0,1.0,95,120.0
166,E4,32.5,0.5,95,120.0
167,E5,32.5,0.5,95,120.0
168,E4,33.0,0.5,95,120.0
169,E5,33.0,0.5,95,120.0
170,C4,33.0,1.0,95,120.0
171,G3,33.0,1.0,95,120.0
172,E3,33.0,1.0,95,120.0
173,C3,33.0,1.0,95,120.0
174,D4,33.5,0.5,95,120.0
175,D5,33.5,0.5,95,120.0
176,E4,34.0,0.5,95,120.0
177,E5,34.0,0.5,95,120.0
178,B3,34.0,1.0,95,120.0
179,G3,34.0,1.0,95,120.0
180,E3,34.0,1.0,95,120.0
181,B2,34.0,1.0,95,120.0
182,B3,34.5,0.5,95,120.0
183,B4,34.5,0.5,95,120.0
184,B3,35.0,0.5,95,120.0
185,B4,35.0,0.5,95,120.0
186,B3,35.0,1.0,95,120.0
187,G3,35.0,1.0,95,120.0
188,E3,35.0,1.0,95,120.0
189,B2,35.0,1.0,95,120.0
190,G3,35.5,0.5,95,120.0
191,G4,35.5,0.5,95,120.0
192,A3,36.0,1.0,95,120.0
193,A4,36.0,1.0,95,120.0
194,A3,36.0,1.5,95,120.0
195,E3,36.0,1.5,95,120.0
196,C3,36.0,1.5,95,120.0
197,A2,36.0,1.5,95,120.0
198,B3,37.0,0.5,95,120.0
199,B4,37.0,0.5,95,120.0
200,G3,37.5,0.5,95,120.0
201,G4,37.5,0.5,95,120.0
202,A3,37.5,0.5,95,120.0
203,E3,37.5,0.5,95,120.0
204,C3,37.5,0.5,95,120.0
205,A2,37.5,0.5,95,120.0
206,A3,38.0,1.0,95,120.0
207,A4,38.0,2.0,95,120.0
208,A3,38.0,1.0,95,120.0
209,E3,38.0,1.0,95,120.0
210,C3,38.0,1.0,95,120.0
211,A2,38.0,1.0,95,120.0
212,A3,39.0,1.0,95,120.0
213,E3,39.0,1.0,95,120.0
214,C3,39.0,1.0,95,120.0
215,A2,39.0,1.0,95,120.0
216,B-3,40.0,1.0,95,120.0
217,B-4,40.0,1.0,95,120.0
218,F4,40.0,1.0,95,120.0
219,D4,40.0,1.0,95,120.0
220,B-3,40.0,1.5,95,120.0
221,F3,40.0,1.5,95,120.0
222,D3,40.0,1.5,95,120.0
223,B-2,40.0,1.5,95,120.0
224,D4,41.0,0.5,95,120.0
225,D5,41.0,0.5,95,120.0
226,F4,41.5,0.5,95,120.0
227,F5,41.5,0.5,95,120.0
228,B-3,41.5,0.5,95,120.0
229,F3,41.5,0.5,95,120.0
230,D3,41.5,0.5,95,120.0
231,B-2,41.5,0.5,95,120.0
232,E-4,42.0,1.0,95,120.0
233,E-5,42.0,1.0,95,120.0
234,B-4,42.0,1.0,95,120.0
235,G4,42.0,1.0,95,120.0
236,G3,42.0,1.5,95,120.0
237,B-3,42.0,1.5,95,120.0
238,E-3,42.0,1.5,95,120.0
239,G4,43.0,1.0,95,120.0
240,G5,43.0,1.0,95,120.0
241,G3,43.5,0.5,95,120.0
242,B-3,43.5,0.5,95,120.0
243,E-3,43.5,0.5,95,120.0
244,G#4,44.0,0.5,95,120.0
245,G#5,44.0,0.5,95,120.0
246,E-5,44.0,0.5,95,120.0
247,C5,44.0,0.5,95,120.0
248,G#3,44.0,1.5,95,120.0
249,E-3,44.0,1.5,95,120.0
250,G#2,44.0,1.5,95,120.0
251,G#4,44.5,0.5,95,120.0
252,G#5,44.5,0.5,95,120.0
253,E-4,45.0,0.5,95,120.0
254,E-5,45.0,0.5,95,120.0
255,C4,45.5,0.5,95,120.0
256,C5,45.5,0.5,95,120.0
257,G#3,45.5,0.5,95,120.0
258,E-3,45.5,0.5,95,120.0
259,G#2,45.5,0.5,95,120.0
260,G4,46.0,1.0,95,120.0
261,G5,46.0,1.0,95,120.0
262,D5,46.0,1.0,95,120.0
263,B4,46.0,1.0,95,120.0
264,G3,46.0,1.0,95,120.0
265,D3,46.0,1.0,95,120.0
266,G2,47.0,1.0,95,120.0
267,G4,48.0,0.5,95,120.0
268,G5,48.0,0.5,95,120.0
269,C4,48.0,1.0,95,120.0
270,G3,48.0,1.0,95,120.0
271,E3,48.0,1.0,95,120.0
272,C3,48.0,1.0,95,120.0
273,E4,48.5,0.5,95,120.0
274,E5,48.5,0.5,95,120.0
275,E4,49.0,0.5,95,120.0
276,E5,49.0,0.5,95,120.0
277,C4,49.0,1.0,95,120.0
278,G3,49.0,1.0,95,120.0
279,E3,49.0,1.0,95,120.0
280,C3,49.0,1.0,95,120.0
281,D4,49.5,0.5,95,120.0
282,D5,49.5,0.5,95,120.0
283,E4,50.0,0.5,95,120.0
284,E5,50.0,0.5,95,120.0
285,B3,50.0,1.0,95,120.0
286,G3,50.0,1.0,95,120.0
287,E3,50.0,1.0,95,120.0
288,B2,50.0,1.0,95,120.0
289,B3,50.5,0.5,95,120.0
290,B4,50.5,0.5,95,120.0
291,B3,51.0,0.5,95,120.0
292,B4,51.0,0.5,95,120.0
293,B3,51.0,1.0,95,120.0
294,G3,51.0,1.0,95,120.0
295,E3,51.0,1.0,95,120.0
296,B2,51.0,1.0,95,120.0
297,G3,51.5,0.5,95,120.0
298,G4,51.5,0.5,95,120.0
299,A3,52.0,0.5,95,120.0
300,A4,52.0,0.5,95,120.0
301,A3,52.0,1.0,95,120.0
302,E3,52.0,1.0,95,120.0
303,C3,52.0,1.0,95,120.0
304,A2,52.0,1.0,95,120.0
305,A3,52.5,0.5,95,120.0
306,A4,52.5,0.5,95,120.0
307,B3,53.0,0.5,95,120.0
308,B4,53.0,0.5,95,120.0
309,A3,53.0,1.0,95,120.0
310,E3,53.0,1.0,95,120.0
311,C3,53.0,1.0,95,120.0
312,A2,53.0,1.0,95,120.0
313,G3,53.5,0.5,95,120.0
314,G4,53.5,0.5,95,120.0
315,A3,54.0,1.0,95,120.0
316,A4,54.0,2.0,95,120.0
317,A3,54.0,1.0,95,120.0
318,E3,54.0,1.0,95,120.0
319,C3,54.0,1.0,95,120.0
320,A2,54.0,1.0,95,120.0
321,A3,55.0,1.0,95,120.0
322,E3,55.0,1.0,95,120.0
323,C3,55.0,1.0,95,120.0
324,A2,55.0,1.0,95,120.0
325,A3,56.0,0.5,95,120.0
326,A4,56.0,0.5,95,120.0
327,F4,56.0,0.5,95,120.0
328,D4,56.0,0.5,95,120.0
329,A3,56.5,0.5,95,120.0
330,A4,56.5,0.5,95,120.0
331,A3,57.0,0.5,95,120.0
332,A4,57.0,0.5,95,120.0
333,F4,57.0,0.5,95,120.0
334,D4,57.0,0.5,95,120.0
335,C4,57.5,0.5,95,120.0
336,C5,57.5,0.5,95,120.0
337,B3,58.0,1.0,95,120.0
338,E2,58.0,1.5,95,120.0
339,B4,58.0,1.0,95,120.0
340,G4,58.0,1.0,95,120.0
341,E4,58.0,1.0,95,120.0
342,G4,59.0,0.5,95,120.0
343,E4,59.0,0.5,95,120.0
344,B3,59.5,0.5,95,120.0
345,B4,59.5,0.5,95,120.0
346,E2,59.5,0.5,95,120.0
347,C4,60.0,0.5,95,120.0
348,F2,60.0,1.5,95,120.0
349,C5,60.0,0.5,95,120.0
350,A4,60.0,0.5,95,120.0
351,F4,60.0,0.5,95,120.0
352,C4,60.5,0.5,95,120.0
353,C5,60.5,0.5,95,120.0
354,C4,61.0,0.5,95,120.0
355,C5,61.0,0.5,95,120.0
356,A4,61.0,0.5,95,120.0
357,F4,61.0,0.5,95,120.0
358,E-4,61.5,0.5,95,120.0
359,E-5,61.5,0.5,95,120.0
360,F2,61.5,0.5,95,120.0
361,D4,62.0,0.5,95,120.0
362,G2,62.0,1.0,95,120.0
363,D5,62.0,1.0,95,120.0
364,B4,62.0,1.0,95,120.0
365,G4,62.0,1.0,95,120.0
366,G3,63.0,0.5,95,120.0
367,G4,63.0,0.5,95,120.0
368,G2,63.0,1.0,95,120.0
369,G3,63.5,0.5,95,120.0
370,G4,63.5,0.5,95,120.0
371,G4,64.0,0.5,95,120.0
372,G5,64.0,0.5,95,120.0
373,C4,64.0,1.0,95,120.0
374,G3,64.0,1.0,95,120.0
375,E3,64.0,1.0,95,120.0
376,C3,64.0,1.0,95,120.0
377,E4,64.5,0.5,95,120.0
378,E5,64.5,0.5,95,120.0
379,E4,65.0,0.5,95,120.0
380,E5,65.0,0.5,95,120.0
381,C4,65.0,1.0,95,120.0
382,G3,65.0,1.0,95,120.0
383,E3,65.0,1.0,95,120.0
384,C3,65.0,1.0,95,120.0
385,D4,65.5,0.5,95,120.0
386,D5,65.5,0.5,95,120.0
387,E4,66.0,0.5,95,120.0
388,E5,66.0,0.5,95,120.0
389,B3,66.0,1.0,95,120.0
390,G3,66.0,1.0,95,120.0
391,E3,66.0,1.0,95,120.0
392,B2,66.0,1.0,95,120.0
393,B3,66.5,0.5,95,120.0
394,B4,66.5,0.5,95,120.0
395,B3,67.0,0.5,95,120.0
396,B4,67.0,0.5,95,120.0
397,B3,67.0,1.0,95,120.0
398,G3,67.0,1.0,95,120.0
399,E3,67.0,1.0,95,120.0
400,B2,67.0,1.0,95,120.0
401,G3,67.5,0.5,95,120.0
402,G4,67.5,0.5,95,120.0
403,A3,68.0,0.5,95,120.0
404,A4,68.0,1.0,95,120.0
405,A3,68.0,1.5,95,120.0
406,E3,68.0,1.5,95,120.0
407,C3,68.0,1.5,95,120.0
408,A2,68.0,1.5,95,120.0
409,A3,68.5,0.5,95,120.0
410,B3,69.0,0.5,95,120.0
411,B4,69.0,0.5,95,120.0
412,G3,69.5,0.5,95,120.0
413,G4,69.5,0.5,95,120.0
414,A3,69.5,0.5,95,120.0
415,E3,69.5,0.5,95,120.0
416,C3,69.5,0.5,95,120.0
417,A2,69.5,0.5,95,120.0
418,A3,70.0,1.0,95,120.0
419,A4,70.0,2.0,95,120.0
420,A3,70.0,1.0,95,120.0
421,E3,70.0,1.0,95,120.0
422,C3,70.0,1.0,95,120.0
423,A2,70.0,1.0,95,120.0
424,A3,71.0,1.0,95,120.0
425,E3,71.0,1.0,95,120.0
426,C3,71.0,1.0,95,120.0
427,A2,71.0,1.0,95,120.0
428,B-3,72.0,0.5,95,120.0
429,B-4,72.0,0.5,95,120.0
430,F4,72.0,0.5,95,120.0
431,D4,72.0,0.5,95,120.0
432,B-3,72.0,1.5,95,120.0
433,G3,72.0,1.5,95,120.0
434,D3,72.0,1.5,95,120.0
435,B-2,72.0,1.5,95,120.0
436,B-3,72.5,0.5,95,120.0
437,B-4,72.5,0.5,95,120.0
438,D4,73.0,0.5,95,120.0
439,D5,73.0,0.5,95,120.0
440,F4,73.5,0.5,95,120.0
441,F5,73.5,0.5,95,120.0
442,B-3,73.5,0.5,95,120.0
443,G3,73.5,0.5,95,120.0
444,D3,73.5,0.5,95,120.0
445,B-2,73.5,0.5,95,120.0
446,E4,74.0,0.5,95,120.0
447,E5,74.0,0.5,95,120.0
448,C#5,74.0,0.5,95,120.0
449,A4,74.0,0.5,95,120.0
450,A3,74.0,1.5,95,120.0
451,E3,74.0,1.5,95,120.0
452,C#3,74.0,1.5,95,120.0
453,A2,74.0,1.5,95,120.0
454,E4,74.5,0.5,95,120.0
455,E5,74.5,0.5,95,120.0
456,D4,75.0,0.5,95,120.0
457,D5,75.0,0.5,95,120.0
458,E4,75.5,0.5,95,120.0
459,E5,75.5,0.5,95,120.0
460,A3,75.5,0.5,95,120.0
461,E3,75.5,0.5,95,120.0
462,C#3,75.5,0.5,95,120.0
463,A2,75.5,0.5,95,120.0
464,F#4,76.0,2.0,95,120.0
465,F#5,76.0,1.5,95,120.0
466,D5,76.0,1.5,95,120.0
467,A4,76.0,1.5,95,120.0
468,D3,76.0,1.5,95,120.0
469,A2,76.0,1.5,95,120.0
470,D4,77.5,0.5,95,120.0
471,D3,77.5,0.5,95,120.0
472,D4,78.0,1.0,95,120.0
473,D3,78.0,1.0,95,120.0
474,D3,79.0,1.0,95,120.0
475,G4,80.0,1.0,95,120.0
476,G2,80.0,1.0,95,120.0
477,B3,80.0,1.0,95,120.0
478,G4,80.0,1.0,95,120.0
479,D4,80.0,1.0,95,120.0
480,D4,81.0,0.5,95,120.0
481,D4,81.0,0.5,95,120.0
482,G2,81.0,1.0,95,120.0
483,G4,81.5,0.5,95,120.0
484,G4,81.5,0.5,95,120.0
485,A4,82.0,1.0,95,120.0
486,F2,82.0,1.0,95,120.0
487,A4,82.0,1.0,95,120.0
488,F4,82.0,1.0,95,120.0
489,C4,82.0,1.0,95,120.0
490,G4,83.0,0.5,95,120.0
491,G4,83.0,0.5,95,120.0
492,F2,83.0,1.0,95,120.0
493,A4,83.5,0.5,95,120.0
494,A4,83.5,0.5,95,120.0
495,D5,84.0,0.5,95,120.0
496,G2,84.0,1.0,95,120.0
497,D5,84.0,0.5,95,120.0
498,B4,84.0,0.5,95,120.0
499,G4,84.0,0.5,95,120.0
500,D5,84.5,0.5,95,120.0
501,D5,84.5,0.5,95,120.0
502,B4,85.0,0.5,95,120.0
503,B4,85.0,0.5,95,120.0
504,G2,85.0,1.0,95,120.0
505,G4,85.5,0.5,95,120.0
506,G4,85.5,0.5,95,120.0
507,F4,86.0,1.0,95,120.0
508,A2,86.0,1.0,95,120.0
509,F4,86.0,2.0,95,120.0
510,C4,86.0,2.0,95,120.0
511,A3,86.0,2.0,95,120.0
512,A2,87.0,1.0,95,120.0
513,G4,88.0,0.5,95,120.0
514,G2,88.0,1.0,95,120.0
515,B3,88.0,0.5,95,120.0
516,G4,88.0,0.5,95,120.0
517,D4,88.0,0.5,95,120.0
518,G4,88.5,0.5,95,120.0
519,G4,88.5,0.5,95,120.0
520,G4,89.0,0.5,95,120.0
521,G4,89.0,0.5,95,120.0
522,G2,89.0,1.0,95,120.0
523,B4,89.5,0.5,95,120.0
524,B4,89.5,0.5,95,120.0
525,A4,90.0,0.5,95,120.0
526,A2,90.0,1.0,95,120.0
527,E4,90.0,0.5,95,120.0
528,A4,90.0,0.5,95,120.0
529,C4,90.0,0.5,95,120.0
530,A4,90.5,0.5,95,120.0
531,A4,90.5,0.5,95,120.0
532,G4,91.0,0.5,95,120.0
533,G4,91.0,0.5,95,120.0
534,A2,91.0,1.0,95,120.0
535,A4,91.5,0.5,95,120.0
536,A4,91.5,0.5,95,120.0
537,C5,92.0,0.5,95,120.0
538,B2,92.0,1.0,95,120.0
539,C5,92.0,0.5,95,120.0
540,F#4,92.0,0.5,95,120.0
541,D4,92.0,0.5,95,120.0
542,B4,92.5,0.5,95,120.0
543,B4,92.5,0.5,95,120.0
544,A4,93.0,0.5,95,120.0
545,A4,93.0,0.5,95,120.0
546,B2,93.0,1.0,95,120.0
547,G4,93.5,0.5,95,120.0
548,G4,93.5,0.5,95,120.0
549,F#4,94.0,0.5,95,120.0
550,F#4,94.0,0.5,95,120.0
551,C3,94.0,1.0,95,120.0
552,D4,94.5,0.5,95,120.0
553,D4,94.5,0.5,95,120.0
554,D3,95.0,1.0,95,120.0
555,D4,95.5,0.5,95,120.0
556,D4,95.5,0.5,95,120.0
557,G4,96.0,1.0,95,120.0
558,G4,96.0,1.0,95,120.0
559,D4,96.0,1.0,95,120.0
560,B3,96.0,1.0,95,120.0
561,G3,96.0,1.0,95,120.0
562,G2,96.0,1.0,95,120.0
563,D4,97.0,0.5,95,120.0
564,D4,97.0,0.5,95,120.0
565,G3,97.0,1.0,95,120.0
566,G2,97.0,1.0,95,120.0
567,G4,97.5,0.5,95,120.0
568,G4,97.5,0.5,95,120.0
569,A4,98.0,1.0,95,120.0
570,A4,98.0,1.0,95,120.0
571,F4,98.0,1.0,95,120.0
572,C4,98.0,1.0,95,120.0
573,F3,98.0,1.0,95,120.0
574,F2,98.0,1.0,95,120.0
575,G4,99.0,0.5,95,120.0
576,G4,99.0,0.5,95,120.0
577,F3,99.0,1.0,95,120.0
578,F2,99.0,1.0,95,120.0
579,A4,99.5,0.5,95,120.0
580,A4,99.5,0.5,95,120.0
581,B-4,100.0,1.0,95,120.0
582,E-3,100.0,1.0,95,120.0
583,B-4,100.0,1.0,95,120.0
584,G4,100.0,1.0,95,120.0
585,E-4,100.0,1.0,95,120.0
586,A4,101.0,0.5,95,120.0
587,A4,101.0,0.5,95,120.0
588,E-3,101.0,1.0,95,120.0
589,G4,101.5,0.5,95,120.0
590,G4,101.5,0.5,95,120.0
591,D5,102.0,1.0,95,120.0
592,D3,102.0,1.0,95,120.0
593,D5,102.0,2.0,95,120.0
594,F#4,102.0,2.0,95,120.0
595,D4,102.0,2.0,95,120.0
596,D3,103.0,1.0,95,120.0
597,C5,104.0,0.5,127,120.0
598,C3,104.0,1.5,95,120.0
599,C5,104.0,0.5,95,120.0
600,G#4,104.0,0.5,95,120.0
601,F4,104.0,0.5,95,120.0
602,G#4,104.5,0.5,127,120.0
603,G#4,104.5,0.5,95,120.0
604,G#4,105.0,0.5,127,120.0
605,G#4,105.0,0.5,95,120.0
606,F4,105.5,0.5,127,120.0
607,F4,105.5,0.5,95,120.0
608,C3,105.5,0.5,95,120.0
609,G#4,106.0,0.5,127,120.0
610,G#4,106.0,0.5,95,120.0
611,C3,106.0,1.0,95,120.0
612,F4,106.5,0.5,127,120.0
613,F4,106.5,0.5,95,120.0
614,G#4,107.0,0.5,127,120.0
615,G#4,107.0,0.5,95,120.0
616,E-3,107.0,1.0,95,120.0
617,C5,107.5,0.5,127,120.0
618,C5,107.5,0.5,95,120.0
619,G4,108.0,1.0,127,120.0
620,D3,108.0,1.0,95,120.0
621,G4,108.0,1.0,95,120.0
622,D4,108.0,1.0,95,120.0
623,B3,108.0,1.0,95,120.0
624,G3,109.0,0.375,95,120.0
625,G2,109.0,0.375,95,120.0
626,G3,109.375,0.25,95,120.0
627,G2,109.375,0.25,95,120.0
628,G3,109.625,0.375,95,120.0
629,G2,109.625,0.375,95,120.0
630,G3,110.0,1.0,95,120.0
631,G2,110.0,1.0,95,120.0
632,G2,111.0,1.0,95,120.0
633,G4,112.0,0.5,95,120.0
634,G5,112.0,0.5,95,120.0
635,C4,112.0,1.0,95,120.0
636,G3,112.0,1.0,95,120.0
637,E3,112.0,1.0,95,120.0
638,C3,112.0,1.0,95,120.0
639,E4,112.5,0.5,95,120.0
640,E5,112.5,0.5,95,120.0
641,E4,113.0,0.5,95,120.0
642,E5,113.0,0.5,95,120.0
643,C4,113.0,1.0,95,120.0
644,G3,113.0,1.0,95,120.0
645,E3,113.0,1.0,95,120.0
646,C3,113.0,1.0,95,120.0
647,D4,113.5,0.5,95,120.0
648,D5,113.5,0.5,95,120.0
649,E4,114.0,0.5,95,120.0
650,E5,114.0,0.5,95,120.0
651,B3,114.0,1.0,95,120.0
652,G3,114.0,1.0,95,120.0
653,E3,114.0,1.0,95,120.0
654,B2,114.0,1.0,95,120.0
655,B3,114.5,0.5,95,120.0
656,B4,114.5,0.5,95,120.0
657,B3,115.0,0.5,95,120.0
658,B4,115.0,0.5,95,120.0
659,B3,115.0,1.0,95,120.0
660,G3,115.0,1.0,95,120.0
661,E3,115.0,1.0,95,120.0
662,B2,115.0,1.0,95,120.0
663,G3,115.5,0.5,95,120.0
664,G4,115.5,0.5,95,120.0
665,A3,116.0,0.5,95,120.0
666,A4,116.0,0.5,95,120.0
667,A3,116.0,1.0,95,120.0
668,E3,116.0,1.0,95,120.0
669,C3,116.0,1.0,95,120.0
670,A2,116.0,1.0,95,120.0
671,A3,116.5,0.5,95,120.0
672,A4,116.5,0.5,95,120.0
673,B3,117.0,0.5,95,120.0
674,B4,117.0,0.5,95,120.0
675,A3,117.0,1.0,95,120.0
676,E3,117.0,1.0,95,120.0
677,C3,117.0,1.0,95,120.0
678,A2,117.0,1.0,95,120.0
679,G3,117.5,0.5,95,120.0
680,G4,117.5,0.5,95,120.0
681,A3,118.0,1.0,95,120.0
682,A4,118.0,2.0,95,120.0
683,A3,118.0,1.0,95,120.0
684,E3,118.0,1.0,95,120.0
685,C3,118.0,1.0,95,120.0
686,A2,118.0,1.0,95,120.0
687,A3,119.0,1.0,95,120.0
688,E3,119.0,1.0,95,120.0
689,C3,119.0,1.0,95,120.0
690,A2,119.0,1.0,95,120.0
691,A3,119.5,0.5,95,120.0
692,A3,120.0,0.5,95,120.0
693,A4,120.0,0.5,95,120.0
694,F4,120.0,0.5,95,120.0
695,D4,120.0,0.5,95,120.0
696,A3,120.5,0.5,95,120.0
697,A4,120.5,0.5,95,120.0
698,A3,121.0,0.5,95,120.0
699,A4,121.0,0.5,95,120.0
700,F4,121.0,0.5,95,120.0
701,D4,121.0,0.5,95,120.0
702,C4,121.5,0.5,95,120.0
703,C5,121.5,0.5,95,120.0
704,B3,122.0,1.0,95,120.0
705,E2,122.0,1.5,95,120.0
706,B4,122.0,1.0,95,120.0
707,G4,122.0,1.0,95,120.0
708,E4,122.0,1.0,95,120.0
709,E4,123.0,0.5,95,120.0
710,G4,123.0,0.5,95,120.0
711,B4,123.5,0.5,95,120.0
712,E2,123.5,0.5,95,120.0
713,C4,124.0,0.5,95,120.0
714,F2,124.0,1.5,95,120.0
715,C5,124.0,0.5,95,120.0
716,A4,124.0,0.5,95,120.0
717,F4,124.0,0.5,95,120.0
718,C4,124.5,0.5,95,120.0
719,C5,124.5,0.5,95,120.0
720,C4,125.0,0.5,95,120.0
721,C5,125.0,0.5,95,120.0
722,A4,125.0,0.5,95,120.0
723,F4,125.0,0.5,95,120.0
724,E-4,125.5,0.5,95,120.0
725,E-5,125.5,0.5,95,120.0
726,F2,125.5,0.5,95,120.0
727,D4,126.0,0.5,95,120.0
728,G2,126.0,1.0,95,120.0
729,D5,126.0,1.0,95,120.0
730,B4,126.0,1.0,95,120.0
731,G4,126.0,1.0,95,120.0
732,G4,127.0,0.5,95,120.0
733,G2,127.0,1.0,95,120.0
734,G3,127.5,0.5,95,120.0
735,G4,127.5,0.5,95,120.0
736,G4,128.0,0.5,95,120.0
737,G5,128.0,0.5,95,120.0
738,C4,128.0,1.0,95,120.0
739,G3,128.0,1.0,95,120.0
740,E3,128.0,1.0,95,120.0
741,C3,128.0,1.0,95,120.0
742,E4,128.5,0.5,95,120.0
743,E5,128.5,0.5,95,120.0
744,E4,129.0,0.5,95,120.0
745,E5,129.0,0.5,95,120.0
746,C4,129.0,1.0,95,120.0
747,G3,129.0,1.0,95,120.0
748,E3,129.0,1.0,95,120.0
749,C3,129.0,1.0,95,120.0
750,D4,129.5,0.5,95,120.0
751,D5,129.5,0.5,95,120.0
752,E4,130.0,0.5,95,120.0
753,E5,130.0,0.5,95,120.0
754,B3,130.0,1.0,95,120.0
755,G3,130.0,1.0,95,120.0
756,E3,130.0,1.0,95,120.0
757,B2,130.0,1.0,95,120.0
758,B3,130.5,0.5,95,120.0
759,B4,130.5,0.5,95,120.0
760,B3,131.0,0.5,95,120.0
761,B4,131.0,0.5,95,120.0
762,B3,131.0,1.0,95,120.0
763,G3,131.0,1.0,95,120.0
764,E3,131.0,1.0,95,120.0
765,B2,131.0,1.0,95,120.0
766,G3,131.5,0.5,95,120.0
767,G4,131.5,0.5,95,120.0
768,A3,132.0,1.0,95,120.0
769,A4,132.0,1.0,95,120.0
770,A3,132.0,1.5,95,120.0
771,E3,132.0,1.5,95,120.0
772,C3,132.0,1.5,95,120.0
773,A2,132.0,1.5,95,120.0
774,B3,133.0,0.5,95,120.0
775,B4,133.0,0.5,95,120.0
776,G3,133.5,0.5,95,120.0
777,G4,133.5,0.5,95,120.0
778,A3,133.5,0.5,95,120.0
779,E3,133.5,0.5,95,120.0
780,C3,133.5,0.5,95,120.0
781,A2,133.5,0.5,95,120.0
782,A3,134.0,1.0,95,120.0
783,A4,134.0,2.0,95,120.0
784,A3,134.0,1.0,95,120.0
785,E3,134.0,1.0,95,120.0
786,C3,134.0,1.0,95,120.0
787,A2,134.0,1.0,95,120.0
788,A3,135.0,1.0,95,120.0
789,E3,135.0,1.0,95,120.0
790,C3,135.0,1.0,95,120.0
791,A2,135.0,1.0,95,120.0
792,A4,136.0,1.0,127,120.0
793,F2,136.0,1.0,95,120.0
794,A4,136.0,1.0,95,120.0
795,F4,136.0,1.0,95,120.0
796,C4,136.0,1.0,95,120.0
797,A4,137.0,0.5,127,120.0
798,F2,137.0,1.0,95,120.0
799,A4,137.0,0.5,95,120.0
800,F4,137.0,0.5,95,120.0
801,C4,137.0,0.5,95,120.0
802,C5,137.5,0.5,127,120.0
803,C5,137.5,0.5,95,120.0
804,B4,138.0,0.5,127,120.0
805,G2,138.0,1.0,95,120.0
806,B4,138.0,0.5,95,120.0
807,G4,138.0,0.5,95,120.0
808,D4,138.0,0.5,95,120.0
809,A4,138.5,0.5,127,120.0
810,A4,138.5,0.5,95,120.0
811,G4,139.0,1.0,127,120.0
812,G2,139.0,1.0,95,120.0
813,G4,139.0,1.0,95,120.0
814,D4,139.0,1.0,95,120.0
815,A4,140.0,2.0,127,120.0
816,A4,140.0,1.0,95,120.0
817,A3,140.0,2.0,95,120.0
818,E3,140.0,2.0,95,120.0
819,A2,140.0,2.0,95,120.0
820,E4,141.0,2.0,95,120.0
821,C4,141.0,2.0,95,120.0
822,E3,142.0,0.75,95,120.0
823,A2,142.0,0.75,95,120.0
824,E3,142.75,0.25,95,120.0
825,A2,142.75,0.25,95,120.0
826,E3,143.0,0.5,95,120.0
827,A2,143.0,0.5,95,120.0
828,E-5,143.5,0.5,95,120.0
829,E-5,143.5,0.5,95,120.0
830,E5,144.0,0.5,95,120.0
831,E5,144.0,0.5,95,120.0
832,E2,144.0,1.0,95,120.0
833,B4,144.5,0.5,95,120.0
834,B4,144.5,0.5,95,120.0
835,B4,145.0,0.5,95,120.0
836,B4,145.0,0.5,95,120.0
837,G4,145.5,0.5,95,120.0
838,G4,145.5,0.5,95,120.0
839,E4,145.5,0.5,95,120.0
840,B3,145.5,0.5,95,120.0
841,G3,145.5,0.5,95,120.0
842,B4,146.0,1.0,95,120.0
843,B4,146.0,1.0,95,120.0
844,E4,146.0,1.0,95,120.0
845,B3,146.0,1.0,95,120.0
846,G3,146.0,1.0,95,120.0
847,G4,147.0,0.5,95,120.0
848,G4,147.0,0.5,95,120.0
849,B4,147.5,0.5,95,120.0
850,B4,147.5,0.5,95,120.0
851,E3,147.5,0.5,95,120.0
852,A4,148.0,1.0,95,120.0
853,A4,148.0,1.0,95,120.0
854,A2,148.0,1.0,95,120.0
855,B4,149.0,0.5,95,120.0
856,B4,149.0,0.5,95,120.0
857,E5,149.5,0.5,95,120.0
858,E5,149.5,0.5,95,120.0
859,E4,149.5,0.5,95,120.0
860,C#4,149.5,0.5,95,120.0
861,A3,149.5,0.5,95,120.0
862,C#5,150.0,1.0,95,120.0
863,C#5,150.0,1.0,95,120.0
864,E4,150.0,1.0,95,120.0
865,C#4,150.0,1.0,95,120.0
866,A3,150.0,1.0,95,120.0
867,A2,151.0,1.0,95,120.0
868,E-5,151.5,0.5,95,120.0
869,E-5,151.5,0.5,95,120.0
870,E5,152.0,0.5,95,120.0
871,E5,152.0,0.5,95,120.0
872,E2,152.0,1.0,95,120.0
873,B4,152.5,0.5,95,120.0
874,B4,152.5,0.5,95,120.0
875,B4,153.0,0.5,95,120.0
876,B4,153.0,0.5,95,120.0
877,G4,153.5,0.5,95,120.0
878,G4,153.5,0.5,95,120.0
879,E4,153.5,0.5,95,120.0
880,B3,153.5,0.5,95,120.0
881,G3,153.5,0.5,95,120.0
882,B4,154.0,0.5,95,120.0
883,B4,154.0,0.5,95,120.0
884,E4,154.0,1.0,95,120.0
885,B3,154.0,1.0,95,120.0
886,G3,154.0,1.0,95,120.0
887,B4,154.5,0.5,95,120.0
888,B4,154.5,0.5,95,120.0
889,G4,155.0,0.5,95,120.0
890,G4,155.0,0.5,95,120.0
891,B4,155.5,0.5,95,120.0
892,B4,155.5,0.5,95,120.0
893,E3,155.5,0.5,95,120.0
894,A4,156.0,1.0,95,120.0
895,A4,156.0,1.0,95,120.0
896,A2,156.0,1.0,95,120.0
897,E4,157.0,0.375,95,120.0
898,C#4,157.0,0.375,95,120.0
899,A3,157.0,0.375,95,120.0
900,E4,157.375,0.25,95,120.0
901,C#4,157.375,0.25,95,120.0
902,A3,157.375,0.25,95,120.0
903,E4,157.625,0.375,95,120.0
904,C#4,157.625,0.375,95,120.0
905,A3,157.625,0.375,95,120.0
906,E4,158.0,1.0,95,120.0
907,C#4,158.0,1.0,95,120.0
908,A3,158.0,1.0,95,120.0
909,A2,159.0,1.0,95,120.0
910,E-5,159.5,0.5,95,120.0
911,E-5,159.5,0.5,95,120.0
912,E5,160.0,0.5,95,120.0
913,E5,160.0,0.5,95,120.0
914,E2,160.0,1.0,95,120.0
915,B4,160.5,0.5,95,120.0
916,B4,160.5,0.5,95,120.0
917,B4,161.0,0.5,95,120.0
918,B4,161.0,0.5,95,120.0
919,G4,161.5,0.5,95,120.0
920,G4,161.5,0.5,95,120.0
921,E4,161.5,0.5,95,120.0
922,B3,161.5,0.5,95,120.0
923,G3,161.5,0.5,95,120.0
924,B4,162.0,1.0,95,120.0
925,B4,162.0,1.0,95,120.0
926,E4,162.0,1.0,95,120.0
927,B3,162.0,1.0,95,120.0
928,G3,162.0,1.0,95,120.0
929,G4,163.0,0.5,95,120.0
930,G4,163.0,0.5,95,120.0
931,B4,163.5,0.5,95,120.0
932,B4,163.5,0.5,95,120.0
933,E3,163.5,0.5,95,120.0
934,C5,164.0,0.5,95,120.0
935,C5,164.0,0.5,95,120.0
936,G3,164.0,1.5,95,120.0
937,E3,164.0,1.5,95,120.0
938,C3,164.0,1.5,95,120.0
939,C5,164.5,0.5,95,120.0
940,C5,164.5,0.5,95,120.0
941,E5,165.0,0.5,95,120.0
942,E5,165.0,0.5,95,120.0
943,G5,165.5,0.5,95,120.0
944,G5,165.5,0.5,95,120.0
945,G3,165.5,0.5,95,120.0
946,E3,165.5,0.5,95,120.0
947,C3,165.5,0.5,95,120.0
948,F#5,166.0,1.0,95,120.0
949,F#5,166.0,1.0,95,120.0
950,F#3,166.0,1.0,95,120.0
951,E-3,166.0,1.0,95,120.0
952,B2,166.0,1.0,95,120.0
953,F#3,167.0,1.0,95,120.0
954,E-3,167.0,1.0,95,120.0
955,B2,167.0,1.0,95,120.0
956,E-5,167.5,0.5,95,120.0
957,E-5,167.5,0.5,95,120.0
958,E5,168.0,0.5,95,120.0
959,E5,168.0,0.5,95,120.0
960,E2,168.0,1.0,95,120.0
961,B4,168.5,0.5,95,120.0
962,B4,168.5,0.5,95,120.0
963,B4,169.0,0.5,95,120.0
964,B4,169.0,0.5,95,120.0
965,G4,169.5,0.5,95,120.0
966,G4,169.5,0.5,95,120.0
967,E4,169.5,0.5,95,120.0
968,B3,169.5,0.5,95,120.0
969,G3,169.5,0.5,95,120.0
970,B4,170.0,0.5,95,120.0
971,B4,170.0,0.5,95,120.0
972,E4,170.0,1.0,95,120.0
973,B3,170.0,1.0,95,120.0
974,G3,170.0,1.0,95,120.0
975,B4,170.5,0.5,95,120.0
976,B4,170.5,0.5,95,120.0
977,G4,171.0,0.5,95,120.0
978,G4,171.0,0.5,95,120.0
979,B3,171.0,1.0,95,120.0
980,E3,171.0,1.0,95,120.0
981,B2,171.0,1.0,95,120.0
982,B4,171.5,0.5,95,120.0
983,B4,171.5,0.5,95,120.0
984,D5,172.0,2.0,95,120.0
985,D5,172.0,1.0,95,120.0
986,A4,172.0,1.0,95,120.0
987,F#4,172.0,1.0,95,120.0
988,D4,172.0,1.0,95,120.0
989,A3,172.0,1.0,95,120.0
990,D3,172.0,1.0,95,120.0
991,D4,173.0,0.375,95,120.0
992,D3,173.0,0.375,95,120.0
993,D4,173.375,0.25,95,120.0
994,D3,173.375,0.25,95,120.0
995,D4,173.625,0.375,95,120.0
996,D3,173.625,0.375,95,120.0
997,D4,174.0,1.0,95,120.0
998,D3,174.0,1.0,95,120.0
999,D3,175.0,1.0,95,120.0
1000,E2,175.0,1.0,95,120.0
1001,G4,176.0,1.0,95,120.0
1002,G2,176.0,1.0,95,120.0
1003,B3,176.0,1.0,95,120.0
1004,G4,176.0,1.0,95,120.0
1005,D4,176.0,1.0,95,120.0
1006,D4,177.0,0.5,95,120.0
1007,D4,177.0,0.5,95,120.0
1008,G2,177.0,1.0,95,120.0
1009,G4,177.5,0.5,95,120.0
1010,G4,177.5,0.5,95,120.0
1011,A4,178.0,1.0,95,120.0
1012,F2,178.0,1.0,95,120.0
1013,A4,178.0,1.0,95,120.0
1014,F4,178.0,1.0,95,120.0
1015,C4,178.0,1.0,95,120.0
1016,G4,179.0,0.5,95,120.0
1017,G4,179.0,0.5,95,120.0
1018,F2,179.0,1.0,95,120.0
1019,A4,179.5,0.5,95,120.0
1020,A4,179.5,0.5,95,120.0
1021,D5,180.0,0.5,95,120.0
1022,G2,180.0,1.0,95,120.0
1023,D5,180.0,0.5,95,120.0
1024,B4,180.0,0.5,95,120.0
1025,G4,180.0,0.5,95,120.0
1026,D5,180.5,0.5,95,120.0
1027,D5,180.5,0.5,95,120.0
1028,B4,181.0,0.5,95,120.0
1029,B4,181.0,0.5,95,120.0
1030,G2,181.0,1.0,95,120.0
1031,G4,181.5,0.5,95,120.0
1032,G4,181.5,0.5,95,120.0
1033,F4,182.0,1.0,95,120.0
1034,A2,182.0,1.0,95,120.0
1035,F4,182.0,1.0,95,120.0
1036,C4,182.0,1.0,95,120.0
1037,A3,182.0,1.0,95,120.0
1038,A2,183.0,1.0,95,120.0
1039,G4,184.0,0.5,95,120.0
1040,G2,184.0,1.0,95,120.0
1041,B3,184.0,0.5,95,120.0
1042,G4,184.0,0.5,95,120.0
1043,D4,184.0,0.5,95,120.0
1044,G4,184.5,0.5,95,120.0
1045,G4,184.5,0.5,95,120.0
1046,G4,185.0,0.5,95,120.0
1047,G4,185.0,0.5,95,120.0
1048,G2,185.0,1.0,95,120.0
1049,B4,185.5,0.5,95,120.0
1050,B4,185.5,0.5,95,120.0
1051,A4,186.0,0.5,95,120.0
1052,A2,186.0,1.0,95,120.0
1053,E4,186.0,0.5,95,120.0
1054,A4,186.0,0.5,95,120.0
1055,C4,186.0,0.5,95,120.0
1056,A4,186.5,0.5,95,120.0
1057,A4,186.5,0.5,95,120.0
1058,G4,187.0,0.5,95,120.0
1059,G4,187.0,0.5,95,120.0
1060,A2,187.0,1.0,95,120.0
1061,A4,187.5,0.5,95,120.0
1062,A4,187.5,0.5,95,120.0
1063,C5,188.0,0.5,95,120.0
1064,B2,188.0,1.0,95,120.0
1065,C5,188.0,0.5,95,120.0
1066,F#4,188.0,0.5,95,120.0
1067,D4,188.0,0.5,95,120.0
1068,B4,188.5,0.5,95,120.0
1069,B4,188.5,0.5,95,120.0
1070,A4,189.0,0.5,95,120.0
1071,A4,189.0,0.5,95,120.0
1072,B2,189.0,1.0,95,120.0
1073,G4,189.5,0.5,95,120.0
1074,G4,189.5,0.5,95,120.0
1075,F#4,190.0,0.5,95,120.0
1076,F#4,190.0,0.5,95,120.0
1077,C3,190.0,1.0,95,120.0
1078,D4,190.5,0.5,95,120.0
1079,D4,190.5,0.5,95,120.0
1080,C3,191.0,1.0,95,120.0
1081,G4,192.0,1.0,95,120.0
1082,G4,192.0,1.0,95,120.0
1083,D4,192.0,1.0,95,120.0
1084,B3,192.0,1.0,95,120.0
1085,G3,192.0,1.0,95,120.0
1086,G2,192.0,1.0,95,120.0
1087,D4,193.0,0.5,95,120.0
1088,D4,193.0,0.5,95,120.0
1089,G3,193.0,1.0,95,120.0
1090,G2,193.0,1.0,95,120.0
1091,G4,193.5,0.5,95,120.0
1092,G4,193.5,0.5,95,120.0
1093,A4,194.0,1.0,95,120.0
1094,A4,194.0,1.0,95,120.0
1095,F4,194.0,1.0,95,120.0
1096,C4,194.0,1.0,95,120.0
1097,F3,194.0,1.0,95,120.0
1098,F2,194.0,1.0,95,120.0
1099,G4,195.0,0.5,95,120.0
1100,G4,195.0,0.5,95,120.0
1101,F3,195.0,1.0,95,120.0
1102,F2,195.0,1.0,95,120.0
1103,A4,195.5,0.5,95,120.0
1104,A4,195.5,0.5,95,120.0
1105,B-4,196.0,1.0,95,120.0
1106,E-3,196.0,1.0,95,120.0
1107,B-4,196.0,1.0,95,120.0
1108,G4,196.0,1.0,95,120.0
1109,E-4,196.0,1.0,95,120.0
1110,A4,197.0,0.5,95,120.0
1111,A4,197.0,0.5,95,120.0
1112,E-3,197.0,1.0,95,120.0
1113,G4,197.5,0.5,95,120.0
1114,G4,197.5,0.5,95,120.0
1115,D5,198.0,1.0,95,120.0
1116,D3,198.0,1.0,95,120.0
1117,D5,198.0,2.0,95,120.0
1118,F#4,198.0,2.0,95,120.0
1119,D4,198.0,2.0,95,120.0
1120,D3,199.0,1.0,95,120.0
1121,C5,200.0,0.5,127,120.0
1122,C3,200.0,1.5,95,120.0
1123,C5,200.0,0.5,95,120.0
1124,G#4,200.0,0.5,95,120.0
1125,F4,200.0,0.5,95,120.0
1126,G#4,200.5,0.5,127,120.0
1127,G#4,200.5,0.5,95,120.0
1128,G#4,201.0,0.5,127,120.0
1129,G#4,201.0,0.5,95,120.0
1130,F4,201.5,0.5,127,120.0
1131,F4,201.5,0.5,95,120.0
1132,C3,201.5,0.5,95,120.0
1133,G#4,202.0,0.5,127,120.0
1134,G#4,202.0,0.5,95,120.0
1135,C3,202.0,1.0,95,120.0
1136,F4,202.5,0.5,127,120.0
1137,F4,202.5,0.5,95,120.0
1138,G#4,203.0,0.5,127,120.0
1139,G#4,203.0,0.5,95,120.0
1140,E-3,203.0,1.0,95,120.0
1141,C5,203.5,0.5,127,120.0
1142,C5,203.5,0.5,95,120.0
1143,G4,204.0,1.0,127,120.0
1144,D3,204.0,1.0,95,120.0
1145,G4,204.0,1.0,95,120.0
1146,D4,204.0,1.0,95,120.0
1147,B3,204.0,1.0,95,120.0
1148,G3,205.0,0.375,95,120.0
1149,G2,205.0,0.375,95,120.0
1150,G3,205.375,0.25,95,120.0
1151,G2,205.375,0.25,95,120.0
1152,G3,205.625,0.375,95,120.0
1153,G2,205.625,0.375,95,120.0
1154,G3,206.0,1.0,95,120.0
1155,G2,206.0,1.0,95,120.0
1156,G2,207.0,1.0,95,120.0
1157,G4,208.0,0.5,95,120.0
1158,G5,208.0,0.5,95,120.0
1159,C4,208.0,1.0,95,120.0
1160,G3,208.0,1.0,95,120.0
1161,E3,208.0,1.0,95,120.0
1162,C3,208.0,1.0,95,120.0
1163,E4,208.5,0.5,95,120.0
1164,E5,208.5,0.5,95,120.0
1165,E4,209.0,0.5,95,120.0
1166,E5,209.0,0.5,95,120.0
1167,C4,209.0,1.0,95,120.0
1168,G3,209.0,1.0,95,120.0
1169,E3,209.0,1.0,95,120.0
1170,C3,209.0,1.0,95,120.0
1171,D4,209.5,0.5,95,120.0
1172,D5,209.5,0.5,95,120.0
1173,E4,210.0,0.5,95,120.0
1174,E5,210.0,0.5,95,120.0
1175,B3,210.0,1.0,95,120.0
1176,G3,210.0,1.0,95,120.0
1177,E3,210.0,1.0,95,120.0
1178,B2,210.0,1.0,95,120.0
1179,B3,210.5,0.5,95,120.0
1180,B4,210.5,0.5,95,120.0
1181,B3,211.0,0.5,95,120.0
1182,B4,211.0,0.5,95,120.0
1183,B3,211.0,1.0,95,120.0
1184,G3,211.0,1.0,95,120.0
1185,E3,211.0,1.0,95,120.0
1186,B2,211.0,1.0,95,120.0
1187,G3,211.5,0.5,95,120.0
1188,G4,211.5,0.5,95,120.0
1189,A3,212.0,0.5,95,120.0
1190,A4,212.0,0.5,95,120.0
1191,A3,212.0,1.0,95,120.0
1192,E3,212.0,1.0,95,120.0
1193,C3,212.0,1.0,95,120.0
1194,A2,212.0,1.0,95,120.0
1195,A3,212.5,0.5,95,120.0
1196,A4,212.5,0.5,95,120.0
1197,B3,213.0,0.5,95,120.0
1198,B4,213.0,0.5,95,120.0
1199,A3,213.0,1.0,95,120.0
1200,E3,213.0,1.0,95,120.0
1201,C3,213.0,1.0,95,120.0
1202,A2,213.0,1.0,95,120.0
1203,G3,213.5,0.5,95,120.0
1204,G4,213.5,0.5,95,120.0
1205,A3,214.0,1.0,95,120.0
1206,A4,214.0,1.0,95,120.0
1207,A3,214.0,1.0,95,120.0
1208,E3,214.0,1.0,95,120.0
1209,C3,214.0,1.0,95,120.0
1210,A2,214.0,1.0,95,120.0
1211,A3,215.0,1.0,95,120.0
1212,E3,215.0,1.0,95,120.0
1213,C3,215.0,1.0,95,120.0
1214,A2,215.0,1.0,95,120.0
1215,A3,216.0,1.0,95,120.0
1216,D3,216.0,1.5,95,120.0
1217,A4,216.0,1.0,95,120.0
1218,F4,216.0,1.0,95,120.0
1219,D4,216.0,1.0,95,120.0
1220,A3,217.0,0.5,95,120.0
1221,A4,217.0,0.5,95,120.0
1222,F4,217.0,0.5,95,120.0
1223,D4,217.0,0.5,95,120.0
1224,C4,217.5,0.5,95,120.0
1225,C5,217.5,0.5,95,120.0
1226,D3,217.5,0.5,95,120.0
1227,B3,218.0,1.0,95,120.0
1228,B4,218.0,1.0,95,120.0
1229,G4,218.0,1.0,95,120.0
1230,E4,218.0,1.0,95,120.0
1231,E3,218.0,1.5,95,120.0
1232,E2,218.0,1.5,95,120.0
1233,E4,219.0,0.5,95,120.0
1234,G4,219.0,0.5,95,120.0
1235,B3,219.5,0.5,95,120.0
1236,B4,219.5,0.5,95,120.0
1237,E3,219.5,0.5,95,120.0
1238,E2,219.5,0.5,95,120.0
1239,C4,220.0,0.5,95,120.0
1240,C5,220.0,0.5,95,120.0
1241,G#4,220.0,0.5,95,120.0
1242,F4,220.0,0.5,95,120.0
1243,F3,220.0,1.5,95,120.0
1244,F2,220.0,1.5,95,120.0
1245,C4,220.5,0.5,95,120.0
1246,C5,220.5,0.5,95,120.0
1247,C4,221.0,0.5,95,120.0
1248,C5,221.0,0.5,95,120.0
1249,G#4,221.0,0.5,95,120.0
1250,F4,221.0,0.5,95,120.0
1251,E-4,221.5,0.5,95,120.0
1252,E-5,221.5,0.5,95,120.0
1253,F3,221.5,0.5,95,120.0
1254,F2,221.5,0.5,95,120.0
1255,D4,222.0,1.0,95,120.0
1256,D5,222.0,1.0,95,120.0
1257,B4,222.0,1.0,95,120.0
1258,G4,222.0,1.0,95,120.0
1259,G3,222.0,1.0,95,120.0
1260,G2,222.0,1.0,95,120.0
1261,G3,223.0,1.0,95,120.0
1262,G2,223.0,1.0,95,120.0
1263,G4,224.0,0.5,95,120.0
1264,G5,224.0,0.5,95,120.0
1265,C4,224.0,1.0,95,120.0
1266,G3,224.0,1.0,95,120.0
1267,E3,224.0,1.0,95,120.0
1268,C3,224.0,1.0,95,120.0
1269,E4,224.5,0.5,95,120.0
1270,E5,224.5,0.5,95,120.0
1271,E4,225.0,0.5,95,120.0
1272,E5,225.0,0.5,95,120.0
1273,C4,225.0,1.0,95,120.0
1274,G3,225.0,1.0,95,120.0
1275,E3,225.0,1.0,95,120.0
1276,C3,225.0,1.0,95,120.0
1277,D4,225.5,0.5,95,120.0
1278,D5,225.5,0.5,95,120.0
1279,E4,226.0,0.5,95,120.0
1280,E5,226.0,0.5,95,120.0
1281,B3,226.0,1.0,95,120.0
1282,G3,226.0,1.0,95,120.0
1283,E3,226.0,1.0,95,120.0
1284,B2,226.0,1.0,95,120.0
1285,B3,226.5,0.5,95,120.0
1286,B4,226.5,0.5,95,120.0
1287,B3,227.0,0.5,95,120.0
1288,B4,227.0,0.5,95,120.0
1289,B3,227.0,1.0,95,120.0
1290,G3,227.0,1.0,95,120.0
1291,E3,227.0,1.0,95,120.0
1292,B2,227.0,1.0,95,120.0
1293,G3,227.5,0.5,95,120.0
1294,G4,227.5,0.5,95,120.0
1295,A3,228.0,0.5,95,120.0
1296,A4,228.0,0.5,95,120.0
1297,A3,228.0,1.5,95,120.0
1298,E3,228.0,1.5,95,120.0
1299,C3,228.0,1.5,95,120.0
1300,A2,228.0,1.5,95,120.0
1301,A3,228.5,0.5,95,120.0
1302,A4,228.5,0.5,95,120.0
1303,B3,229.0,0.5,95,120.0
1304,B4,229.0,0.5,95,120.0
1305,G3,229.5,0.5,95,120.0
1306,G4,229.5,0.5,95,120.0
1307,A3,229.5,0.5,95,120.0
1308,E3,229.5,0.5,95,120.0
1309,C3,229.5,0.5,95,120.0
1310,A2,229.5,0.5,95,120.0
1311,A3,230.0,1.0,95,120.0
1312,A4,230.0,2.0,95,120.0
1313,A3,230.0,1.0,95,120.0
1314,E3,230.0,1.0,95,120.0
1315,C3,230.0,1.0,95,120.0
1316,A2,230.0,1.0,95,120.0
1317,A3,231.0,1.0,95,120.0
1318,E3,231.0,1.0,95,120.0
1319,C3,231.0,1.0,95,120.0
1320,A2,231.0,1.0,95,120.0
1321,A3,232.0,1.0,95,120.0
1322,A4,232.0,1.0,95,120.0
1323,F4,232.0,1.0,95,120.0
1324,C4,232.0,1.0,95,120.0
1325,F3,232.0,1.0,95,120.0
1326,C3,232.0,1.0,95,120.0
1327,F2,232.0,1.0,95,120.0
1328,A3,233.0,0.5,95,120.0
1329,A4,233.0,0.5,95,120.0
1330,F4,233.0,0.5,95,120.0
1331,C4,233.0,0.5,95,120.0
1332,F3,233.0,1.0,95,120.0
1333,C3,233.0,1.0,95,120.0
1334,F2,233.0,1.0,95,120.0
1335,C4,233.5,0.5,95,120.0
1336,C5,233.5,0.5,95,120.0
1337,B3,234.0,0.5,95,120.0
1338,B4,234.0,0.5,95,120.0
1339,G4,234.0,0.5,95,120.0
1340,D4,234.0,0.5,95,120.0
1341,G3,234.0,1.0,95,120.0
1342,D3,234.0,1.0,95,120.0
1343,G2,234.0,1.0,95,120.0
1344,A3,234.5,0.5,95,120.0
1345,A4,234.5,0.5,95,120.0
1346,G3,235.0,1.0,95,120.0
1347,G4,235.0,1.0,95,120.0
1348,D4,235.0,1.0,95,120.0
1349,G3,235.0,1.0,95,120.0
1350,D3,235.0,1.0,95,120.0
1351,G2,235.0,1.0,95,120.0
1352,A3,236.0,1.0,95,120.0
1353,A4,236.0,1.0,95,120.0
1354,A3,236.0,2.0,95,120.0
1355,E3,236.0,2.0,95,120.0
1356,A2,236.0,2.0,95,120.0
1357,E4,237.0,2.0,95,120.0
1358,C4,237.0,2.0,95,120.0
1359,E3,238.0,0.75,95,120.0
1360,A2,238.0,0.75,95,120.0
1361,E3,238.75,0.25,95,120.0
1362,A2,238.75,0.25,95,120.0
1363,E3,239.0,0.5,95,120.0
1364,A2,239.0,0.5,95,120.0
1365,A3,240.0,1.0,95,120.0
1366,A4,240.0,1.0,95,120.0
1367,F4,240.0,1.0,95,120.0
1368,C4,240.0,1.0,95,120.0
1369,F3,240.0,1.0,95,120.0
1370,C3,240.0,1.0,95,120.0
1371,F2,240.0,1.0,95,120.0
1372,A3,241.0,0.5,95,120.0
1373,A4,241.0,0.5,95,120.0
1374,F4,241.0,0.5,95,120.0
1375,C4,241.0,0.5,95,120.0
1376,F3,241.0,1.0,95,120.0
1377,C3,241.0,1.0,95,120.0
1378,F2,241.0,1.0,95,120.0
1379,C4,241.5,0.5,95,120.0
1380,C5,241.5,0.5,95,120.0
1381,B3,242.0,0.5,95,120.0
1382,B4,242.0,0.5,95,120.0
1383,G4,242.0,0.5,95,120.0
1384,D4,242.0,0.5,95,120.0
1385,G3,242.0,1.0,95,120.0
1386,D3,242.0,1.0,95,120.0
1387,G2,242.0,1.0,95,120.0
1388,A3,242.5,0.5,95,120.0
1389,A4,242.5,0.5,95,120.0
1390,G3,243.0,1.0,95,120.0
1391,G4,243.0,1.0,95,120.0
1392,D4,243.0,1.0,95,120.0
1393,G3,243.0,1.0,95,120.0
1394,D3,243.0,1.0,95,120.0
1395,G2,243.0,1.0,95,120.0
1396,A3,244.0,1.0,95,120.0
1397,A4,244.0,1.0,95,120.0
1398,A3,244.0,2.0,95,120.0
1399,E3,244.0,2.0,95,120.0
1400,A2,244.0,2.0,95,120.0
1401,E4,245.0,2.0,95,120.0
1402,C4,245.0,2.0,95,120.0
1403,E3,246.0,0.75,95,120.0
1404,A2,246.0,0.75,95,120.0
1405,E3,246.75,0.25,95,120.0
1406,A2,246.75,0.25,95,120.0
1407,E3,247.0,0.5,95,120.0
1408,A2,247.0,0.5,95,120.0
1409,A3,248.0,1.0,127,120.0
1410,A5,248.0,1.0,95,120.0
1411,F5,248.0,1.0,95,120.0
1412,C5,248.0,1.0,95,120.0
1413,F3,248.0,1.0,95,120.0
1414,C3,248.0,1.0,95,120.0
1415,F2,248.0,1.0,95,120.0
1416,A3,249.0,0.5,127,120.0
1417,A5,249.0,0.5,95,120.0
1418,F5,249.0,0.5,95,120.0
1419,C5,249.0,0.5,95,120.0
1420,F3,249.0,1.0,95,120.0
1421,C3,249.0,1.0,95,120.0
1422,F2,249.0,1.0,95,120.0
1423,C4,249.5,0.5,127,120.0
1424,C6,249.5,0.5,95,120.0
1425,B3,250.0,0.5,127,120.0
1426,B5,250.0,0.5,95,120.0
1427,G5,250.0,0.5,95,120.0
1428,D5,250.0,0.5,95,120.0
1429,G3,250.0,1.0,95,120.0
1430,D3,250.0,1.0,95,120.0
1431,G2,250.0,1.0,95,120.0
1432,A3,250.5,0.5,127,120.0
1433,A5,250.5,0.5,95,120.0
1434,G3,251.0,1.0,127,120.0
1435,G5,251.0,1.0,95,120.0
1436,D5,251.0,1.0,95,120.0
1437,G3,251.0,1.0,95,120.0
1438,D3,251.0,1.0,95,120.0
1439,G2,251.0,1.0,95,120.0
1440,A3,252.0,4.0,127,120.0
1441,A5,252.0,4.0,95,120.0
1442,E5,252.0,4.0,95,120.0
1443,C#5,252.0,4.0,95,120.0
1444,A3,252.0,4.0,95,120.0
1445,E3,252.0,4.0,95,120.0
1446,A2,252.0,4.0,95,120.0
