,note_name,start_time,duration,velocity,tempo
0,B1,2.0,0.5,127,103.0
1,B1,2.5,0.5,127,103.0
2,B-2,3.0,0.5,127,103.0
3,E2,3.0,0.5,127,103.0
4,B1,4.0,0.5,127,103.0
5,A3,4.25,167/1000,90,103.0
6,D4,4.25,167/1000,90,103.0
7,F#2,4.5,0.25,90,103.0
8,E2,4.75,167/1000,90,103.0
9,F#2,4.75,0.25,90,103.0
10,B1,5.0,0.5,127,103.0
11,A3,5.0,167/1000,90,103.0
12,D4,5.0,167/1000,90,103.0
13,A3,5.25,167/1000,90,103.0
14,D4,5.25,167/1000,90,103.0
15,F#2,5.5,0.25,90,103.0
16,B2,5.75,167/1000,90,103.0
17,B1,6.0,0.5,127,103.0
18,A3,6.0,167/1000,90,103.0
19,D4,6.0,167/1000,90,103.0
20,F#2,6.5,0.25,90,103.0
21,A3,6.5,167/1000,90,103.0
22,D4,6.5,167/1000,90,103.0
23,F#2,6.75,0.25,90,103.0
24,B1,7.0,0.5,127,103.0
25,A3,7.0,167/1000,90,103.0
26,D4,7.0,167/1000,90,103.0
27,B3,7.25,167/1000,90,103.0
28,E4,7.25,167/1000,90,103.0
29,F#2,7.5,0.25,90,103.0
30,E2,7.75,167/1000,90,103.0
31,B1,8.0,0.5,127,103.0
32,D3,8.25,167/1000,90,103.0
33,F#2,8.5,0.25,90,103.0
34,B2,8.75,167/1000,90,103.0
35,F#2,8.75,0.25,90,103.0
36,B1,9.0,0.5,127,103.0
37,D3,9.25,167/1000,90,103.0
38,F#2,9.5,0.25,90,103.0
39,B2,9.75,167/1000,90,103.0
40,D3,10.0,167/1000,90,103.0
41,B1,10.0,0.5,127,103.0
42,D3,10.5,167/1000,90,103.0
43,F#2,10.5,0.25,90,103.0
44,F#2,10.75,0.25,90,103.0
45,D3,11.0,167/1000,90,103.0
46,E2,11.0,0.5,127,103.0
47,B1,11.0,0.5,127,103.0
48,E3,11.25,167/1000,90,103.0
49,B-2,11.5,0.25,90,103.0
50,E2,11.75,167/1000,90,103.0
51,B1,12.0,0.5,127,103.0
52,A3,12.25,167/1000,90,103.0
53,D4,12.25,167/1000,90,103.0
54,F#2,12.5,0.25,90,103.0
55,B2,12.75,167/1000,90,103.0
56,F#2,12.75,0.25,90,103.0
57,B1,13.0,0.5,127,103.0
58,A3,13.0,167/1000,90,103.0
59,D4,13.0,167/1000,90,103.0
60,A3,13.25,167/1000,90,103.0
61,D4,13.25,167/1000,90,103.0
62,F#2,13.5,0.25,90,103.0
63,B2,13.75,167/1000,90,103.0
64,F#2,13.75,0.25,90,103.0
65,B1,14.0,0.5,127,103.0
66,A3,14.0,167/1000,90,103.0
67,D4,14.0,167/1000,90,103.0
68,F#2,14.5,0.25,90,103.0
69,A3,14.5,167/1000,90,103.0
70,D4,14.5,167/1000,90,103.0
71,F#2,14.75,0.25,90,103.0
72,B1,15.0,0.5,127,103.0
73,A3,15.0,167/1000,90,103.0
74,D4,15.0,167/1000,90,103.0
75,B3,15.25,167/1000,90,103.0
76,E4,15.25,167/1000,90,103.0
77,F#2,15.5,0.25,90,103.0
78,E2,15.75,167/1000,90,103.0
79,B1,16.0,0.5,127,103.0
80,B2,16.25,167/1000,90,103.0
81,F#2,16.5,0.25,90,103.0
82,E3,16.75,167/1000,90,103.0
83,F#2,16.75,0.25,90,103.0
84,B1,17.0,0.5,127,103.0
85,A2,17.217,0.25,127,103.0
86,C3,17.217,0.25,127,103.0
87,F#3,17.25,0.5,90,103.0
88,F#2,17.5,0.25,90,103.0
89,E3,17.75,167/1000,90,103.0
90,F#2,17.75,0.25,90,103.0
91,D3,18.0,167/1000,90,103.0
92,B1,18.0,0.5,127,103.0
93,D3,18.5,167/1000,90,103.0
94,F#2,18.5,0.25,90,103.0
95,F#2,18.75,0.25,90,103.0
96,D3,19.0,167/1000,90,103.0
97,E2,19.0,0.25,127,103.0
98,B1,19.0,0.5,127,103.0
99,E3,19.25,167/1000,90,103.0
100,F#2,19.5,0.25,90,103.0
101,E2,19.75,167/1000,90,103.0
102,F#2,19.75,0.25,90,103.0
103,G3,20.0,79/500,127,103.0
104,B1,20.0,0.5,127,103.0
105,A3,20.167,79/500,115,103.0
106,A3,20.25,167/1000,90,103.0
107,D4,20.25,167/1000,90,103.0
108,G3,20.333,79/500,105,103.0
109,A3,20.5,79/500,95,103.0
110,F#2,20.5,0.25,90,103.0
111,G3,20.667,79/500,105,103.0
112,E2,20.75,167/1000,90,103.0
113,F#2,20.75,0.25,90,103.0
114,A3,20.833,79/500,105,103.0
115,G3,21.0,79/500,115,103.0
116,B1,21.0,0.5,127,103.0
117,A3,21.0,167/1000,90,103.0
118,D4,21.0,167/1000,90,103.0
119,A3,21.167,79/500,105,103.0
120,A3,21.25,167/1000,90,103.0
121,D4,21.25,167/1000,90,103.0
122,G3,21.333,3/20,105,103.0
123,A3,21.5,79/500,95,103.0
124,F#2,21.5,0.25,90,103.0
125,G3,21.667,167/1000,105,103.0
126,B2,21.75,167/1000,90,103.0
127,F#2,21.75,0.25,90,103.0
128,A3,21.833,167/1000,105,103.0
129,G3,22.0,167/1000,115,103.0
130,B1,22.0,0.5,127,103.0
131,A3,22.0,167/1000,90,103.0
132,D4,22.0,167/1000,90,103.0
133,A3,22.167,167/1000,105,103.0
134,G3,22.333,167/1000,105,103.0
135,A3,22.5,167/1000,95,103.0
136,A3,22.5,167/1000,90,103.0
137,D4,22.5,167/1000,90,103.0
138,G3,22.667,167/1000,105,103.0
139,F#2,22.75,0.25,90,103.0
140,A3,22.833,167/1000,105,103.0
141,G3,23.0,167/1000,115,103.0
142,B1,23.0,0.5,127,103.0
143,A3,23.0,167/1000,90,103.0
144,D4,23.0,167/1000,90,103.0
145,A3,23.167,167/1000,105,103.0
146,B3,23.25,167/1000,90,103.0
147,E4,23.25,167/1000,90,103.0
148,G3,23.333,167/1000,105,103.0
149,A3,23.5,167/1000,95,103.0
150,F#2,23.5,0.25,90,103.0
151,G3,23.667,167/1000,105,103.0
152,E2,23.75,167/1000,90,103.0
153,F#2,23.75,0.25,90,103.0
154,A3,23.833,167/1000,105,103.0
155,G3,24.0,167/1000,115,103.0
156,B1,24.0,0.5,127,103.0
157,A3,24.167,167/1000,105,103.0
158,D3,24.25,167/1000,90,103.0
159,G3,24.333,167/1000,105,103.0
160,A3,24.5,167/1000,95,103.0
161,F#2,24.5,0.25,90,103.0
162,G3,24.667,167/1000,105,103.0
163,B2,24.75,167/1000,90,103.0
164,F#2,24.75,0.25,90,103.0
165,A3,24.833,167/1000,105,103.0
166,G3,25.0,167/1000,115,103.0
167,B1,25.0,0.5,127,103.0
168,A3,25.167,167/1000,105,103.0
169,D3,25.25,167/1000,90,103.0
170,D3,25.25,0.25,127,103.0
171,G3,25.333,167/1000,105,103.0
172,A3,25.5,167/1000,95,103.0
173,G3,25.667,167/1000,105,103.0
174,B2,25.75,167/1000,90,103.0
175,F#2,25.75,0.25,90,103.0
176,A3,25.833,167/1000,105,103.0
177,G3,26.0,167/1000,115,103.0
178,D3,26.0,167/1000,90,103.0
179,B1,26.0,0.5,127,103.0
180,A3,26.167,167/1000,105,103.0
181,G3,26.333,167/1000,105,103.0
182,A3,26.5,167/1000,95,103.0
183,D3,26.5,167/1000,90,103.0
184,F#2,26.5,0.25,90,103.0
185,G3,26.667,167/1000,105,103.0
186,F#2,26.75,0.25,90,103.0
187,A3,26.833,167/1000,105,103.0
188,F2,26.958,0.25,127,103.0
189,A2,26.958,0.25,127,103.0
190,G3,27.0,167/1000,115,103.0
191,D3,27.0,167/1000,90,103.0
192,B1,27.0,0.5,127,103.0
193,A3,27.167,167/1000,105,103.0
194,E3,27.25,167/1000,90,103.0
195,G3,27.333,167/1000,105,103.0
196,A3,27.5,167/1000,95,103.0
197,F#2,27.5,0.25,90,103.0
198,G3,27.667,167/1000,105,103.0
199,E2,27.75,167/1000,90,103.0
200,F2,27.75,0.25,127,103.0
201,G2,27.75,0.25,127,103.0
202,A3,27.833,167/1000,105,103.0
203,G3,28.0,167/1000,115,103.0
204,B1,28.0,0.5,127,103.0
205,A3,28.167,167/1000,105,103.0
206,A3,28.25,167/1000,90,103.0
207,D4,28.25,167/1000,90,103.0
208,G3,28.333,167/1000,105,103.0
209,A3,28.5,167/1000,95,103.0
210,F#2,28.5,0.25,90,103.0
211,G3,28.667,167/1000,105,103.0
212,B2,28.75,167/1000,90,103.0
213,F#2,28.75,0.25,90,103.0
214,A3,28.833,167/1000,105,103.0
215,G3,29.0,167/1000,115,103.0
216,B1,29.0,0.5,127,103.0
217,A3,29.0,167/1000,90,103.0
218,D4,29.0,167/1000,90,103.0
219,A3,29.167,167/1000,105,103.0
220,A3,29.25,167/1000,90,103.0
221,D4,29.25,167/1000,90,103.0
222,G3,29.333,167/1000,105,103.0
223,A3,29.5,167/1000,95,103.0
224,F#2,29.5,0.25,90,103.0
225,G3,29.667,167/1000,105,103.0
226,B2,29.75,167/1000,90,103.0
227,F#2,29.75,0.25,90,103.0
228,A3,29.833,167/1000,105,103.0
229,G3,30.0,167/1000,115,103.0
230,B1,30.0,0.5,127,103.0
231,A3,30.0,167/1000,90,103.0
232,D4,30.0,167/1000,90,103.0
233,A3,30.167,167/1000,105,103.0
234,G3,30.333,167/1000,105,103.0
235,A3,30.5,167/1000,95,103.0
236,F#2,30.5,0.25,90,103.0
237,A3,30.5,167/1000,90,103.0
238,D4,30.5,167/1000,90,103.0
239,G3,30.667,167/1000,105,103.0
240,A3,30.833,167/1000,105,103.0
241,G3,31.0,167/1000,115,103.0
242,B1,31.0,0.5,127,103.0
243,A3,31.0,167/1000,90,103.0
244,D4,31.0,167/1000,90,103.0
245,A3,31.167,167/1000,105,103.0
246,B3,31.25,167/1000,90,103.0
247,E4,31.25,167/1000,90,103.0
248,G3,31.333,167/1000,105,103.0
249,A3,31.5,167/1000,95,103.0
250,F#2,31.5,0.25,90,103.0
251,G3,31.667,167/1000,105,103.0
252,E2,31.75,167/1000,90,103.0
253,F#2,31.75,0.25,90,103.0
254,A3,31.833,167/1000,105,103.0
255,G3,32.0,167/1000,115,103.0
256,B1,32.0,0.5,127,103.0
257,A3,32.167,167/1000,105,103.0
258,B2,32.25,167/1000,90,103.0
259,G3,32.333,167/1000,105,103.0
260,A3,32.5,167/1000,95,103.0
261,F#2,32.5,0.25,90,103.0
262,G3,32.667,167/1000,105,103.0
263,E3,32.75,167/1000,90,103.0
264,F#2,32.75,0.25,90,103.0
265,A3,32.833,167/1000,105,103.0
266,G3,33.0,167/1000,115,103.0
267,B1,33.0,0.5,127,103.0
268,A3,33.167,167/1000,105,103.0
269,F#3,33.25,0.5,90,103.0
270,G3,33.333,167/1000,105,103.0
271,A3,33.5,0.75,95,103.0
272,E2,33.5,0.5,127,103.0
273,E1,33.625,0.75,95,103.0
274,E3,33.75,167/1000,90,103.0
275,F#2,33.75,0.25,90,103.0
276,G1,34.0,0.5,127,103.0
277,D3,34.0,167/1000,90,103.0
278,B1,34.0,0.5,127,103.0
279,C3,34.25,0.25,127,103.0
280,G2,34.5,0.5,127,103.0
281,G3,34.5,1.5,127,103.0
282,D3,34.5,167/1000,90,103.0
283,F#2,34.5,0.25,90,103.0
284,E2,35.0,1.0,127,103.0
285,D3,35.0,167/1000,90,103.0
286,E2,35.0,0.25,127,103.0
287,B1,35.0,0.5,127,103.0
288,E3,35.25,167/1000,90,103.0
289,D5,35.25,167/1000,127,103.0
290,D5,35.25,167/1000,90,103.0
291,B1,35.5,0.25,127,103.0
292,C#5,35.5,167/1000,127,103.0
293,C#5,35.5,167/1000,90,103.0
294,E2,35.75,167/1000,90,103.0
295,E2,35.75,0.25,127,103.0
296,B4,35.75,167/1000,127,103.0
297,B4,35.75,167/1000,90,103.0
298,F#2,36.0,0.25,122,103.0
299,C#3,36.0,0.25,122,103.0
300,B1,36.0,0.25,122,103.0
301,A3,36.25,167/1000,90,103.0
302,D4,36.25,167/1000,90,103.0
303,E1,36.5,0.5,127,103.0
304,F#2,36.5,0.25,120,103.0
305,E2,36.75,167/1000,90,103.0
306,F#2,36.75,0.25,120,103.0
307,E2,37.0,0.25,127,103.0
308,A4,37.0,167/1000,127,103.0
309,A4,37.0,167/1000,90,103.0
310,A3,37.0,167/1000,90,103.0
311,D4,37.0,167/1000,90,103.0
312,D4,37.25,167/1000,90,103.0
313,A3,37.25,167/1000,90,103.0
314,E1,37.5,0.5,127,103.0
315,F#2,37.5,0.25,120,103.0
316,F#2,37.75,0.25,120,103.0
317,B1,38.0,0.25,127,103.0
318,G#4,38.0,167/1000,127,103.0
319,G#4,38.0,167/1000,90,103.0
320,D4,38.25,167/1000,90,103.0
321,A3,38.25,167/1000,90,103.0
322,E1,38.5,0.5,127,103.0
323,F#2,38.5,0.25,120,103.0
324,F#2,38.75,0.25,120,103.0
325,E2,39.0,0.25,127,103.0
326,E2,39.25,0.25,127,103.0
327,B4,39.25,167/1000,127,103.0
328,B4,39.25,167/1000,90,103.0
329,F#2,39.5,0.25,120,103.0
330,A3,39.5,167/1000,90,103.0
331,D4,39.5,167/1000,90,103.0
332,G2,39.75,0.25,127,103.0
333,F#2,39.75,0.25,120,103.0
334,F#4,39.75,167/1000,127,103.0
335,F#4,39.75,167/1000,90,103.0
336,A3,39.75,167/1000,90,103.0
337,D4,39.75,167/1000,90,103.0
338,F#2,40.0,0.25,124,103.0
339,B1,40.0,0.25,124,103.0
340,D3,40.25,167/1000,90,103.0
341,E1,40.5,0.5,127,103.0
342,F#2,40.5,0.25,120,103.0
343,B2,40.75,167/1000,90,103.0
344,F#2,40.75,0.25,120,103.0
345,E2,41.0,0.25,127,103.0
346,D3,41.25,167/1000,90,103.0
347,E1,41.5,0.5,127,103.0
348,F#2,41.5,0.25,120,103.0
349,B2,41.75,167/1000,90,103.0
350,F#2,41.75,0.25,120,103.0
351,D3,42.0,167/1000,90,103.0
352,B1,42.0,0.25,127,103.0
353,A2,42.5,0.5,127,103.0
354,D3,42.5,167/1000,90,103.0
355,F#2,42.5,0.25,124,103.0
356,B1,42.5,0.25,124,103.0
357,F#2,42.75,0.25,120,103.0
358,G2,43.0,0.25,127,103.0
359,D3,43.0,167/1000,90,103.0
360,E2,43.0,0.25,127,103.0
361,E3,43.25,167/1000,90,103.0
362,D2,43.5,0.25,127,103.0
363,B-2,43.5,0.25,120,103.0
364,E2,43.75,0.25,127,103.0
365,E2,43.75,167/1000,90,103.0
366,F#2,44.0,0.25,124,103.0
367,B1,44.0,0.25,124,103.0
368,A3,44.25,167/1000,90,103.0
369,D4,44.25,167/1000,90,103.0
370,E1,44.5,0.5,127,103.0
371,F#2,44.5,0.25,120,103.0
372,B2,44.75,167/1000,90,103.0
373,F#2,44.75,0.25,120,103.0
374,E2,45.0,0.25,127,103.0
375,A3,45.0,167/1000,90,103.0
376,D4,45.0,167/1000,90,103.0
377,A3,45.25,167/1000,90,103.0
378,D4,45.25,167/1000,90,103.0
379,E1,45.5,0.5,127,103.0
380,F#2,45.5,0.25,120,103.0
381,B2,45.75,167/1000,90,103.0
382,F#2,45.75,0.25,120,103.0
383,B1,46.0,0.25,127,103.0
384,A3,46.0,167/1000,90,103.0
385,D4,46.0,167/1000,90,103.0
386,E1,46.5,0.5,127,103.0
387,F#2,46.5,0.25,120,103.0
388,A3,46.5,167/1000,90,103.0
389,D4,46.5,167/1000,90,103.0
390,F#2,46.75,0.25,120,103.0
391,E2,47.0,0.25,127,103.0
392,A3,47.0,167/1000,90,103.0
393,D4,47.0,167/1000,90,103.0
394,E2,47.25,0.25,127,103.0
395,B3,47.25,167/1000,90,103.0
396,E4,47.25,167/1000,90,103.0
397,F#2,47.5,0.25,120,103.0
398,G2,47.75,0.25,127,103.0
399,E2,47.75,167/1000,90,103.0
400,F#2,47.75,0.25,120,103.0
401,F#2,48.0,0.25,124,103.0
402,B1,48.0,0.25,124,103.0
403,B2,48.25,167/1000,90,103.0
404,E1,48.5,0.5,127,103.0
405,F#2,48.5,0.25,120,103.0
406,E3,48.75,167/1000,90,103.0
407,F#2,48.75,0.25,120,103.0
408,E2,49.0,0.25,127,103.0
409,F#3,49.25,0.5,90,103.0
410,E1,49.5,0.5,127,103.0
411,F#2,49.5,0.25,120,103.0
412,E3,49.75,167/1000,90,103.0
413,F#2,49.75,0.25,120,103.0
414,D3,50.0,167/1000,90,103.0
415,B1,50.0,0.25,127,103.0
416,B1,50.25,21/500,127,103.0
417,A1,50.5,0.5,127,103.0
418,D3,50.5,167/1000,90,103.0
419,F#2,50.5,0.25,124,103.0
420,B1,50.5,0.25,124,103.0
421,F#2,50.75,0.25,120,103.0
422,B1,51.0,0.5,127,103.0
423,D3,51.0,167/1000,90,103.0
424,E2,51.0,0.25,127,103.0
425,E3,51.25,167/1000,90,103.0
426,D5,51.25,167/1000,127,103.0
427,D5,51.25,167/1000,90,103.0
428,D2,51.5,0.25,127,103.0
429,B-2,51.5,0.25,120,103.0
430,C#5,51.5,167/1000,127,103.0
431,C#5,51.5,167/1000,90,103.0
432,E2,51.75,0.25,127,103.0
433,E2,51.75,167/1000,90,103.0
434,B4,51.75,167/1000,127,103.0
435,B4,51.75,167/1000,90,103.0
436,F#2,52.0,0.25,122,103.0
437,C#3,52.0,0.25,122,103.0
438,B1,52.0,0.25,122,103.0
439,A3,52.25,167/1000,90,103.0
440,D4,52.25,167/1000,90,103.0
441,E1,52.5,0.5,127,103.0
442,F#2,52.5,0.25,120,103.0
443,E2,52.75,167/1000,90,103.0
444,F#2,52.75,0.25,120,103.0
445,E2,53.0,0.25,127,103.0
446,A4,53.0,167/1000,127,103.0
447,A4,53.0,167/1000,90,103.0
448,A3,53.0,167/1000,90,103.0
449,D4,53.0,167/1000,90,103.0
450,A3,53.25,167/1000,90,103.0
451,D4,53.25,167/1000,90,103.0
452,E1,53.5,0.5,127,103.0
453,F#2,53.5,0.25,120,103.0
454,B2,53.75,167/1000,90,103.0
455,F#2,53.75,0.25,120,103.0
456,B1,54.0,0.25,127,103.0
457,G#4,54.0,167/1000,127,103.0
458,G#4,54.0,167/1000,90,103.0
459,D4,54.25,167/1000,90,103.0
460,A3,54.25,167/1000,90,103.0
461,E1,54.5,0.5,127,103.0
462,F#2,54.5,0.25,120,103.0
463,F#2,54.75,0.25,120,103.0
464,E2,55.0,0.25,127,103.0
465,E2,55.25,0.25,127,103.0
466,F#2,55.5,0.25,120,103.0
467,D4,55.5,167/1000,90,103.0
468,A3,55.5,167/1000,90,103.0
469,G2,55.75,0.25,127,103.0
470,F#2,55.75,0.25,120,103.0
471,B4,55.75,167/1000,127,103.0
472,B4,55.75,167/1000,90,103.0
473,A3,55.75,167/1000,90,103.0
474,D4,55.75,167/1000,90,103.0
475,F#2,56.0,0.25,124,103.0
476,B1,56.0,0.25,124,103.0
477,D3,56.25,167/1000,90,103.0
478,F#4,56.25,167/1000,127,103.0
479,F#4,56.25,167/1000,90,103.0
480,E1,56.5,0.5,127,103.0
481,F#2,56.5,0.25,120,103.0
482,B2,56.75,167/1000,90,103.0
483,F#2,56.75,0.25,120,103.0
484,E2,57.0,0.25,127,103.0
485,D3,57.25,167/1000,90,103.0
486,E1,57.5,0.5,127,103.0
487,F#2,57.5,0.25,120,103.0
488,B2,57.75,167/1000,90,103.0
489,F#2,57.75,0.25,120,103.0
490,D3,58.0,167/1000,90,103.0
491,B1,58.0,0.25,127,103.0
492,A2,58.5,0.5,127,103.0
493,D3,58.5,167/1000,90,103.0
494,F#2,58.5,0.25,124,103.0
495,B1,58.5,0.25,124,103.0
496,F#2,58.75,0.25,120,103.0
497,G2,59.0,0.25,127,103.0
498,D3,59.0,167/1000,90,103.0
499,E2,59.0,0.25,127,103.0
500,E3,59.25,167/1000,90,103.0
501,D2,59.5,0.25,127,103.0
502,B-2,59.5,0.25,120,103.0
503,E2,59.75,0.25,127,103.0
504,E2,59.75,167/1000,90,103.0
505,F#2,60.0,0.25,124,103.0
506,B1,60.0,0.25,124,103.0
507,A3,60.25,167/1000,90,103.0
508,D4,60.25,167/1000,90,103.0
509,E1,60.5,0.5,127,103.0
510,F#2,60.5,0.25,120,103.0
511,B2,60.75,167/1000,90,103.0
512,F#2,60.75,0.25,120,103.0
513,E2,61.0,0.25,127,103.0
514,A3,61.0,167/1000,90,103.0
515,D4,61.0,167/1000,90,103.0
516,A3,61.25,167/1000,90,103.0
517,D4,61.25,167/1000,90,103.0
518,E1,61.5,0.5,127,103.0
519,F#2,61.5,0.25,120,103.0
520,B2,61.75,167/1000,90,103.0
521,F#2,61.75,0.25,120,103.0
522,B1,62.0,0.25,127,103.0
523,A3,62.0,167/1000,90,103.0
524,D4,62.0,167/1000,90,103.0
525,E1,62.5,0.5,127,103.0
526,F#2,62.5,0.25,120,103.0
527,A3,62.5,167/1000,90,103.0
528,D4,62.5,167/1000,90,103.0
529,F#2,62.75,0.25,120,103.0
530,E2,63.0,0.25,127,103.0
531,A3,63.0,167/1000,90,103.0
532,D4,63.0,167/1000,90,103.0
533,E2,63.25,0.25,127,103.0
534,B3,63.25,167/1000,90,103.0
535,E4,63.25,167/1000,90,103.0
536,F#2,63.5,0.25,120,103.0
537,G2,63.75,0.25,127,103.0
538,E2,63.75,167/1000,90,103.0
539,F#2,63.75,0.25,120,103.0
540,F#2,64.0,0.25,124,103.0
541,B1,64.0,0.25,124,103.0
542,B2,64.25,167/1000,90,103.0
543,E1,64.5,0.5,127,103.0
544,F#2,64.5,0.25,120,103.0
545,E3,64.75,167/1000,90,103.0
546,F#2,64.75,0.25,120,103.0
547,E2,65.0,0.25,127,103.0
548,F#3,65.25,0.5,90,103.0
549,E1,65.5,0.5,127,103.0
550,F#2,65.5,0.25,120,103.0
551,E3,65.75,167/1000,90,103.0
552,F#2,65.75,0.25,120,103.0
553,D3,66.0,167/1000,90,103.0
554,B1,66.0,0.25,127,103.0
555,B1,66.25,21/500,127,103.0
556,A1,66.5,0.5,127,103.0
557,D3,66.5,167/1000,90,103.0
558,F#2,66.5,0.25,124,103.0
559,B1,66.5,0.25,124,103.0
560,F#2,66.75,0.25,120,103.0
561,B1,67.0,0.5,127,103.0
562,D3,67.0,167/1000,90,103.0
563,E2,67.0,0.25,127,103.0
564,E3,67.25,167/1000,90,103.0
565,D5,67.25,167/1000,127,103.0
566,D5,67.25,167/1000,90,103.0
567,D2,67.5,0.25,127,103.0
568,B-2,67.5,0.25,120,103.0
569,C#5,67.5,167/1000,127,103.0
570,C#5,67.5,167/1000,90,103.0
571,E2,67.75,0.25,127,103.0
572,E2,67.75,167/1000,90,103.0
573,E2,67.75,0.25,127,103.0
574,B4,67.75,167/1000,127,103.0
575,B4,67.75,167/1000,90,103.0
576,G3,68.0,1.0,120,103.0
577,F#2,68.0,0.25,124,103.0
578,B1,68.0,0.25,124,103.0
579,E3,68.25,167/1000,90,103.0
580,E1,68.5,0.5,127,103.0
581,E2,68.5,167/1000,90,103.0
582,F#2,68.5,0.25,120,103.0
583,F#2,68.75,0.25,120,103.0
584,E3,69.0,167/1000,90,103.0
585,E2,69.0,0.25,127,103.0
586,A4,69.0,167/1000,127,103.0
587,A4,69.0,167/1000,90,103.0
588,E2,69.5,0.5,127,103.0
589,E2,69.5,167/1000,90,103.0
590,F#2,69.5,0.25,120,103.0
591,F#2,69.75,0.25,120,103.0
592,F#2,70.0,0.5,127,103.0
593,E2,70.0,167/1000,90,103.0
594,B1,70.0,0.25,127,103.0
595,F#3,70.25,167/1000,90,103.0
596,F#1,70.5,0.75,127,103.0
597,F#2,70.5,167/1000,90,103.0
598,F#2,70.5,0.25,120,103.0
599,F#2,70.75,167/1000,90,103.0
600,F#2,70.75,0.25,120,103.0
601,F#3,71.0,167/1000,90,103.0
602,B2,71.0,0.25,124,103.0
603,E2,71.0,0.25,124,103.0
604,F#3,71.25,167/1000,90,103.0
605,F#1,71.5,21/500,127,103.0
606,F#2,71.5,0.25,120,103.0
607,A2,71.75,0.125,127,103.0
608,F#2,71.75,167/1000,90,103.0
609,F#2,71.75,0.25,120,103.0
610,F#2,72.0,0.25,124,103.0
611,B1,72.0,0.25,124,103.0
612,A2,72.25,0.25,127,103.0
613,A3,72.25,167/1000,90,103.0
614,A1,72.5,0.5,127,103.0
615,A2,72.5,167/1000,90,103.0
616,F#2,72.5,0.25,120,103.0
617,A2,72.75,167/1000,90,103.0
618,F#2,72.75,0.25,120,103.0
619,A2,73.0,0.25,127,103.0
620,A3,73.0,167/1000,90,103.0
621,E2,73.0,0.25,127,103.0
622,A3,73.25,167/1000,90,103.0
623,A1,73.5,0.25,127,103.0
624,A1,73.5,167/1000,90,103.0
625,F#2,73.5,0.25,120,103.0
626,A1,73.75,167/1000,90,103.0
627,F#2,73.75,0.25,120,103.0
628,D2,74.0,0.25,127,103.0
629,B1,74.0,0.25,127,103.0
630,D3,74.25,167/1000,90,103.0
631,D2,74.5,0.25,127,103.0
632,D2,74.5,167/1000,90,103.0
633,F#2,74.5,0.25,124,103.0
634,B1,74.5,0.25,124,103.0
635,D2,74.75,167/1000,90,103.0
636,F#2,74.75,0.25,120,103.0
637,D3,75.0,167/1000,90,103.0
638,G2,75.0,0.25,108,103.0
639,E2,75.0,0.25,108,103.0
640,D2,75.25,0.25,127,103.0
641,D3,75.25,167/1000,90,103.0
642,D5,75.25,167/1000,127,103.0
643,D5,75.25,167/1000,90,103.0
644,B-2,75.5,0.25,120,103.0
645,C#5,75.5,167/1000,127,103.0
646,C#5,75.5,167/1000,90,103.0
647,E1,75.75,167/1000,90,103.0
648,A2,75.75,0.25,120,103.0
649,B4,75.75,167/1000,127,103.0
650,B4,75.75,167/1000,90,103.0
651,F#2,76.0,0.25,124,103.0
652,B1,76.0,0.25,124,103.0
653,E3,76.25,167/1000,90,103.0
654,E1,76.5,0.5,127,103.0
655,E2,76.5,167/1000,90,103.0
656,F#2,76.5,0.25,120,103.0
657,F#2,76.75,0.25,120,103.0
658,E3,77.0,167/1000,90,103.0
659,E2,77.0,0.25,127,103.0
660,A4,77.0,167/1000,127,103.0
661,A4,77.0,167/1000,90,103.0
662,E2,77.5,0.5,127,103.0
663,E2,77.5,167/1000,90,103.0
664,F#2,77.5,0.25,120,103.0
665,F#2,77.75,0.25,120,103.0
666,F#2,78.0,0.5,127,103.0
667,B1,78.0,0.25,127,103.0
668,F#3,78.25,167/1000,90,103.0
669,F#1,78.5,0.75,127,103.0
670,F#2,78.5,167/1000,90,103.0
671,F#2,78.5,0.25,120,103.0
672,F#2,78.75,167/1000,90,103.0
673,F#2,78.75,0.25,120,103.0
674,F#3,79.0,167/1000,90,103.0
675,G2,79.0,0.25,124,103.0
676,E2,79.0,0.25,124,103.0
677,F#3,79.25,167/1000,90,103.0
678,F#1,79.5,21/500,127,103.0
679,F#2,79.5,0.25,120,103.0
680,A2,79.75,0.125,127,103.0
681,F#2,79.75,0.25,120,103.0
682,F#2,80.0,0.25,124,103.0
683,B1,80.0,0.25,124,103.0
684,A2,80.25,0.25,127,103.0
685,A3,80.25,167/1000,90,103.0
686,A1,80.5,0.5,127,103.0
687,A2,80.5,167/1000,90,103.0
688,F#2,80.5,0.25,120,103.0
689,A2,80.75,167/1000,90,103.0
690,F#2,80.75,0.25,120,103.0
691,A2,81.0,0.25,127,103.0
692,A3,81.0,167/1000,90,103.0
693,E2,81.0,0.25,127,103.0
694,A3,81.25,167/1000,90,103.0
695,A1,81.5,0.25,127,103.0
696,A1,81.5,167/1000,90,103.0
697,F#2,81.5,0.25,120,103.0
698,A1,81.75,167/1000,90,103.0
699,F#2,81.75,0.25,120,103.0
700,D2,82.0,0.25,127,103.0
701,B1,82.0,0.25,127,103.0
702,D3,82.25,167/1000,90,103.0
703,D2,82.5,0.25,127,103.0
704,D2,82.5,167/1000,90,103.0
705,F#2,82.5,0.25,124,103.0
706,B1,82.5,0.25,124,103.0
707,D2,82.75,167/1000,90,103.0
708,F#2,82.75,0.25,120,103.0
709,D3,83.0,167/1000,90,103.0
710,B2,83.0,0.25,127,103.0
711,E2,83.0,0.25,127,103.0
712,D2,83.25,0.25,127,103.0
713,D3,83.25,167/1000,90,103.0
714,D5,83.25,167/1000,127,103.0
715,D5,83.25,167/1000,90,103.0
716,C#5,83.5,167/1000,127,103.0
717,C#5,83.5,167/1000,90,103.0
718,E2,83.5,0.25,124,103.0
719,B-2,83.5,0.25,124,103.0
720,E1,83.75,167/1000,90,103.0
721,B4,83.75,167/1000,127,103.0
722,B4,83.75,167/1000,90,103.0
723,F#2,84.0,0.25,124,103.0
724,B1,84.0,0.25,124,103.0
725,E3,84.25,167/1000,90,103.0
726,E1,84.5,0.5,127,103.0
727,E2,84.5,167/1000,90,103.0
728,F#2,84.5,0.25,120,103.0
729,F#2,84.75,0.25,120,103.0
730,E3,85.0,167/1000,90,103.0
731,E2,85.0,0.25,127,103.0
732,A4,85.0,167/1000,127,103.0
733,A4,85.0,167/1000,90,103.0
734,E2,85.5,0.5,127,103.0
735,E2,85.5,167/1000,90,103.0
736,F#2,85.5,0.25,120,103.0
737,F#2,85.75,0.25,120,103.0
738,F#2,86.0,0.5,127,103.0
739,B1,86.0,0.25,127,103.0
740,F#3,86.25,167/1000,90,103.0
741,F#1,86.5,0.75,127,103.0
742,F#2,86.5,167/1000,90,103.0
743,F#2,86.5,0.25,120,103.0
744,F#2,86.75,167/1000,90,103.0
745,F#2,86.75,0.25,120,103.0
746,F#3,87.0,167/1000,90,103.0
747,E2,87.0,0.25,127,103.0
748,F#3,87.25,167/1000,90,103.0
749,F#1,87.5,21/500,127,103.0
750,F#2,87.5,0.25,120,103.0
751,A2,87.75,0.125,127,103.0
752,F#2,87.75,167/1000,90,103.0
753,F#2,87.75,0.25,120,103.0
754,F#2,88.0,0.25,124,103.0
755,B1,88.0,0.25,124,103.0
756,A2,88.25,0.25,127,103.0
757,A3,88.25,167/1000,90,103.0
758,A1,88.5,0.5,127,103.0
759,A2,88.5,167/1000,90,103.0
760,F#2,88.5,0.25,120,103.0
761,A2,88.75,167/1000,90,103.0
762,F#2,88.75,0.25,120,103.0
763,A2,89.0,0.25,127,103.0
764,A3,89.0,167/1000,90,103.0
765,E2,89.0,0.25,127,103.0
766,A3,89.25,167/1000,90,103.0
767,A1,89.5,0.25,127,103.0
768,A1,89.5,167/1000,90,103.0
769,F#2,89.5,0.25,120,103.0
770,A1,89.75,167/1000,90,103.0
771,F#2,89.75,0.25,120,103.0
772,D2,90.0,0.25,127,103.0
773,B1,90.0,0.25,127,103.0
774,D3,90.25,167/1000,90,103.0
775,D2,90.5,0.25,127,103.0
776,D2,90.5,167/1000,90,103.0
777,F#2,90.5,0.25,124,103.0
778,B1,90.5,0.25,124,103.0
779,D2,90.75,167/1000,90,103.0
780,F#2,90.75,0.25,120,103.0
781,D3,91.0,167/1000,90,103.0
782,E2,91.0,0.25,127,103.0
783,D2,91.25,0.25,127,103.0
784,D3,91.25,167/1000,90,103.0
785,D5,91.25,167/1000,127,103.0
786,D5,91.25,167/1000,90,103.0
787,B-2,91.5,0.25,120,103.0
788,C#5,91.5,167/1000,127,103.0
789,C#5,91.5,167/1000,90,103.0
790,E1,91.75,167/1000,90,103.0
791,E2,91.75,0.25,127,103.0
792,B4,91.75,167/1000,127,103.0
793,B4,91.75,167/1000,90,103.0
794,F#2,92.0,0.25,124,103.0
795,B1,92.0,0.25,124,103.0
796,E3,92.25,167/1000,90,103.0
797,E1,92.5,0.5,127,103.0
798,E2,92.5,167/1000,90,103.0
799,F#2,92.5,0.25,120,103.0
800,F#2,92.75,0.25,120,103.0
801,E3,93.0,167/1000,90,103.0
802,E2,93.0,0.25,127,103.0
803,A4,93.0,167/1000,127,103.0
804,A4,93.0,167/1000,90,103.0
805,E2,93.5,0.5,127,103.0
806,E2,93.5,167/1000,90,103.0
807,F#2,93.5,0.25,120,103.0
808,F#2,93.75,0.25,120,103.0
809,F#2,94.0,0.5,127,103.0
810,B1,94.0,0.25,127,103.0
811,F#3,94.25,167/1000,90,103.0
812,F#1,94.5,0.75,127,103.0
813,F#2,94.5,167/1000,90,103.0
814,F#2,94.5,0.25,120,103.0
815,F#2,94.75,167/1000,90,103.0
816,F#2,94.75,0.25,120,103.0
817,F#3,95.0,167/1000,90,103.0
818,E2,95.0,0.25,127,103.0
819,F#3,95.25,167/1000,90,103.0
820,F#1,95.5,21/500,127,103.0
821,F#2,95.5,0.25,120,103.0
822,A2,95.75,0.125,127,103.0
823,F#2,95.75,0.25,120,103.0
824,A2,96.0,167/1000,90,103.0
825,F#2,96.0,0.25,124,103.0
826,B1,96.0,0.25,124,103.0
827,A2,96.25,0.25,127,103.0
828,A3,96.25,167/1000,90,103.0
829,F#2,96.5,0.25,120,103.0
830,A1,96.75,0.25,127,103.0
831,A2,96.75,167/1000,90,103.0
832,E2,96.75,0.25,124,103.0
833,F#2,96.75,0.25,124,103.0
834,B1,97.25,0.25,127,103.0
835,B2,97.25,167/1000,90,103.0
836,E2,97.25,0.25,127,103.0
837,D2,97.5,0.25,127,103.0
838,D3,97.5,167/1000,90,103.0
839,E2,97.5,0.25,124,103.0
840,F#2,97.5,0.25,124,103.0
841,E2,98.25,0.25,127,103.0
842,B1,98.5,0.25,127,103.0
843,B1,98.75,0.25,127,103.0
844,B1,99.0,0.25,127,103.0
845,E2,99.25,0.25,127,103.0
846,B1,99.5,0.25,124,103.0
847,B-2,99.5,0.25,124,103.0
848,E2,99.75,0.25,127,103.0
849,E2,100.25,0.25,127,103.0
850,G#4,100.25,1.25,127,103.0
851,E2,100.5,0.25,127,103.0
852,D5,101.25,167/1000,127,103.0
853,D5,101.25,167/1000,90,103.0
854,C#5,101.5,167/1000,127,103.0
855,C#5,101.5,167/1000,90,103.0
856,B4,101.75,167/1000,127,103.0
857,B4,101.75,167/1000,90,103.0
858,G3,101.75,0.25,127,103.0
859,E2,101.75,0.25,127,103.0
860,F#2,102.0,0.25,124,103.0
861,B1,102.0,0.25,124,103.0
862,A3,102.25,167/1000,90,103.0
863,D4,102.25,167/1000,90,103.0
864,E1,102.5,0.5,127,103.0
865,F#2,102.5,0.25,120,103.0
866,E2,102.75,167/1000,90,103.0
867,F#2,102.75,0.25,120,103.0
868,E2,103.0,0.25,127,103.0
869,A4,103.0,167/1000,127,103.0
870,A4,103.0,167/1000,90,103.0
871,A3,103.0,167/1000,90,103.0
872,D4,103.0,167/1000,90,103.0
873,D4,103.25,167/1000,90,103.0
874,A3,103.25,167/1000,90,103.0
875,E1,103.5,0.5,127,103.0
876,F#2,103.5,0.25,120,103.0
877,F#2,103.75,0.25,120,103.0
878,B1,104.0,0.25,127,103.0
879,G#4,104.0,167/1000,127,103.0
880,G#4,104.0,167/1000,90,103.0
881,D4,104.25,167/1000,90,103.0
882,A3,104.25,167/1000,90,103.0
883,E1,104.5,0.5,127,103.0
884,F#2,104.5,0.25,120,103.0
885,F#2,104.75,0.25,120,103.0
886,E2,105.0,0.25,127,103.0
887,E2,105.25,0.25,127,103.0
888,B4,105.25,167/1000,127,103.0
889,B4,105.25,167/1000,90,103.0
890,F#2,105.5,0.25,120,103.0
891,A3,105.5,167/1000,90,103.0
892,D4,105.5,167/1000,90,103.0
893,G2,105.75,0.25,127,103.0
894,F#2,105.75,0.25,120,103.0
895,F#4,105.75,167/1000,127,103.0
896,F#4,105.75,167/1000,90,103.0
897,A3,105.75,167/1000,90,103.0
898,D4,105.75,167/1000,90,103.0
899,F#2,106.0,0.25,124,103.0
900,B1,106.0,0.25,124,103.0
901,D3,106.25,167/1000,90,103.0
902,E1,106.5,0.5,127,103.0
903,F#2,106.5,0.25,120,103.0
904,B2,106.75,167/1000,90,103.0
905,F#2,106.75,0.25,120,103.0
906,E2,107.0,0.25,127,103.0
907,D3,107.25,167/1000,90,103.0
908,E1,107.5,0.5,127,103.0
909,F#2,107.5,0.25,120,103.0
910,B2,107.75,167/1000,90,103.0
911,F#2,107.75,0.25,120,103.0
912,D3,108.0,167/1000,90,103.0
913,B1,108.0,0.25,127,103.0
914,A2,108.5,0.5,127,103.0
915,D3,108.5,167/1000,90,103.0
916,F#2,108.5,0.25,124,103.0
917,B1,108.5,0.25,124,103.0
918,F#2,108.75,0.25,120,103.0
919,G2,109.0,0.25,127,103.0
920,D3,109.0,167/1000,90,103.0
921,E2,109.0,0.25,127,103.0
922,E3,109.25,167/1000,90,103.0
923,D2,109.5,0.25,127,103.0
924,B-2,109.5,0.25,120,103.0
925,E2,109.75,0.25,127,103.0
926,E2,109.75,167/1000,90,103.0
927,F#2,110.0,0.25,124,103.0
928,B1,110.0,0.25,124,103.0
929,A3,110.25,167/1000,90,103.0
930,D4,110.25,167/1000,90,103.0
931,E1,110.5,0.5,127,103.0
932,F#2,110.5,0.25,120,103.0
933,B2,110.75,167/1000,90,103.0
934,F#2,110.75,0.25,120,103.0
935,E2,111.0,0.25,127,103.0
936,A3,111.0,167/1000,90,103.0
937,D4,111.0,167/1000,90,103.0
938,A3,111.25,167/1000,90,103.0
939,D4,111.25,167/1000,90,103.0
940,E1,111.5,0.5,127,103.0
941,F#2,111.5,0.25,120,103.0
942,B2,111.75,167/1000,90,103.0
943,F#2,111.75,0.25,120,103.0
944,B1,112.0,0.25,127,103.0
945,A3,112.0,167/1000,90,103.0
946,D4,112.0,167/1000,90,103.0
947,E1,112.5,0.5,127,103.0
948,F#2,112.5,0.25,120,103.0
949,A3,112.5,167/1000,90,103.0
950,D4,112.5,167/1000,90,103.0
951,F#2,112.75,0.25,120,103.0
952,E2,113.0,0.25,127,103.0
953,A3,113.0,167/1000,90,103.0
954,D4,113.0,167/1000,90,103.0
955,E2,113.25,0.25,127,103.0
956,B3,113.25,167/1000,90,103.0
957,E4,113.25,167/1000,90,103.0
958,F#2,113.5,0.25,120,103.0
959,G2,113.75,0.25,127,103.0
960,E2,113.75,167/1000,90,103.0
961,F#2,113.75,0.25,120,103.0
962,F#2,114.0,0.25,124,103.0
963,B1,114.0,0.25,124,103.0
964,B2,114.25,167/1000,90,103.0
965,E1,114.5,0.5,127,103.0
966,F#2,114.5,0.25,120,103.0
967,E3,114.75,167/1000,90,103.0
968,F#2,114.75,0.25,120,103.0
969,E2,115.0,0.25,127,103.0
970,F#3,115.25,0.5,90,103.0
971,E1,115.5,0.5,127,103.0
972,F#2,115.5,0.25,120,103.0
973,E3,115.75,167/1000,90,103.0
974,F#2,115.75,0.25,120,103.0
975,D3,116.0,167/1000,90,103.0
976,B1,116.0,0.25,127,103.0
977,B1,116.25,21/500,127,103.0
978,A1,116.5,0.5,127,103.0
979,D3,116.5,167/1000,90,103.0
980,F#2,116.5,0.25,124,103.0
981,B1,116.5,0.25,124,103.0
982,F#2,116.75,0.25,120,103.0
983,B1,117.0,0.5,127,103.0
984,D3,117.0,167/1000,90,103.0
985,E2,117.0,0.25,127,103.0
986,E3,117.25,167/1000,90,103.0
987,D5,117.25,167/1000,127,103.0
988,D5,117.25,167/1000,90,103.0
989,D2,117.5,0.25,127,103.0
990,C#5,117.5,167/1000,127,103.0
991,C#5,117.5,167/1000,90,103.0
992,E2,117.5,0.25,124,103.0
993,B-2,117.5,0.25,124,103.0
994,E2,117.75,0.25,127,103.0
995,E2,117.75,167/1000,90,103.0
996,E2,117.75,0.25,127,103.0
997,B4,117.75,167/1000,127,103.0
998,B4,117.75,167/1000,90,103.0
999,F#2,118.0,0.25,122,103.0
1000,C#3,118.0,0.25,122,103.0
1001,B1,118.0,0.25,122,103.0
1002,A3,118.25,167/1000,90,103.0
1003,D4,118.25,167/1000,90,103.0
1004,E1,118.5,0.5,127,103.0
1005,F#2,118.5,0.25,120,103.0
1006,E2,118.75,167/1000,90,103.0
1007,F#2,118.75,0.25,120,103.0
1008,E2,119.0,0.25,127,103.0
1009,A4,119.0,167/1000,127,103.0
1010,A4,119.0,167/1000,90,103.0
1011,A3,119.0,167/1000,90,103.0
1012,D4,119.0,167/1000,90,103.0
1013,A3,119.25,167/1000,90,103.0
1014,D4,119.25,167/1000,90,103.0
1015,E1,119.5,0.5,127,103.0
1016,F#2,119.5,0.25,120,103.0
1017,B2,119.75,167/1000,90,103.0
1018,F#2,119.75,0.25,120,103.0
1019,B1,120.0,0.25,127,103.0
1020,G#4,120.0,167/1000,127,103.0
1021,G#4,120.0,167/1000,90,103.0
1022,D4,120.25,167/1000,90,103.0
1023,A3,120.25,167/1000,90,103.0
1024,E1,120.5,0.5,127,103.0
1025,F#2,120.5,0.25,120,103.0
1026,F#2,120.75,0.25,120,103.0
1027,E2,121.0,0.25,127,103.0
1028,E2,121.25,0.25,127,103.0
1029,F#2,121.5,0.25,120,103.0
1030,D4,121.5,167/1000,90,103.0
1031,A3,121.5,167/1000,90,103.0
1032,G2,121.75,0.25,127,103.0
1033,B4,121.75,167/1000,127,103.0
1034,B4,121.75,167/1000,90,103.0
1035,A3,121.75,167/1000,90,103.0
1036,D4,121.75,167/1000,90,103.0
1037,B-2,121.75,0.25,124,103.0
1038,B1,121.75,0.25,124,103.0
1039,F#2,122.0,0.25,120,103.0
1040,D3,122.25,167/1000,90,103.0
1041,F#4,122.25,167/1000,127,103.0
1042,F#4,122.25,167/1000,90,103.0
1043,B1,122.25,0.25,124,103.0
1044,B-2,122.25,0.25,124,103.0
1045,E1,122.5,0.5,127,103.0
1046,F#2,122.5,0.25,120,103.0
1047,B2,122.75,167/1000,90,103.0
1048,F#2,122.75,0.25,120,103.0
1049,E2,123.0,0.25,127,103.0
1050,D3,123.25,167/1000,90,103.0
1051,E1,123.5,0.5,127,103.0
1052,F#2,123.5,0.25,120,103.0
1053,B2,123.75,167/1000,90,103.0
1054,F#2,123.75,0.25,120,103.0
1055,D3,124.0,167/1000,90,103.0
1056,B1,124.0,0.25,127,103.0
1057,A2,124.5,0.5,127,103.0
1058,D3,124.5,167/1000,90,103.0
1059,F#2,124.5,0.25,124,103.0
1060,B1,124.5,0.25,124,103.0
1061,F#2,124.75,0.25,120,103.0
1062,G2,125.0,0.25,127,103.0
1063,D3,125.0,167/1000,90,103.0
1064,E2,125.0,0.25,127,103.0
1065,E3,125.25,167/1000,90,103.0
1066,D2,125.5,0.25,127,103.0
1067,B-2,125.5,0.25,120,103.0
1068,E2,125.75,0.25,127,103.0
1069,E2,125.75,167/1000,90,103.0
1070,F#2,126.0,0.25,124,103.0
1071,B1,126.0,0.25,124,103.0
1072,A3,126.25,167/1000,90,103.0
1073,D4,126.25,167/1000,90,103.0
1074,E1,126.5,0.5,127,103.0
1075,F#2,126.5,0.25,120,103.0
1076,B2,126.75,167/1000,90,103.0
1077,F#2,126.75,0.25,120,103.0
1078,E2,127.0,0.25,127,103.0
1079,A3,127.0,167/1000,90,103.0
1080,D4,127.0,167/1000,90,103.0
1081,A3,127.25,167/1000,90,103.0
1082,D4,127.25,167/1000,90,103.0
1083,E1,127.5,0.5,127,103.0
1084,F#2,127.5,0.25,120,103.0
1085,B2,127.75,167/1000,90,103.0
1086,F#2,127.75,0.25,120,103.0
1087,B1,128.0,0.25,127,103.0
1088,A3,128.0,167/1000,90,103.0
1089,D4,128.0,167/1000,90,103.0
1090,E1,128.5,0.5,127,103.0
1091,F#2,128.5,0.25,120,103.0
1092,A3,128.5,167/1000,90,103.0
1093,D4,128.5,167/1000,90,103.0
1094,F#2,128.75,0.25,120,103.0
1095,E2,129.0,0.25,127,103.0
1096,A3,129.0,167/1000,90,103.0
1097,D4,129.0,167/1000,90,103.0
1098,E2,129.25,0.25,127,103.0
1099,B3,129.25,167/1000,90,103.0
1100,E4,129.25,167/1000,90,103.0
1101,F#2,129.5,0.25,120,103.0
1102,G2,129.75,0.25,127,103.0
1103,E2,129.75,167/1000,90,103.0
1104,F#2,129.75,0.25,120,103.0
1105,F#2,130.0,0.25,124,103.0
1106,B1,130.0,0.25,124,103.0
1107,E1,130.25,0.25,127,103.0
1108,B2,130.25,0.25,90,103.0
1109,F#2,130.5,0.25,120,103.0
1110,D2,130.75,0.25,127,103.0
1111,D3,130.75,0.25,90,103.0
1112,F#2,130.75,0.25,120,103.0
1113,G3,131.0,0.25,124,103.0
1114,E2,131.0,0.25,124,103.0
1115,E1,131.25,0.25,127,103.0
1116,B2,131.25,0.25,90,103.0
1117,E1,131.5,0.25,127,103.0
1118,E3,131.5,0.25,90,103.0
1119,A2,131.5,0.25,120,103.0
1120,F#2,131.5,0.25,120,103.0
1121,A3,132.0,0.75,110,103.0
1122,A3,132.0,0.75,90,103.0
1123,B3,132.75,0.5,110,103.0
1124,B3,132.75,0.5,90,103.0
1125,D4,133.25,0.25,110,103.0
1126,D4,133.25,0.25,90,103.0
1127,C#3,133.75,0.25,120,103.0
1128,D4,133.75,0.25,110,103.0
1129,D4,133.75,0.25,90,103.0
1130,E-3,134.0,0.25,110,103.0
1131,G#3,134.0,1.0,110,103.0
1132,D4,134.0,1.75,110,103.0
1133,D4,134.0,1.75,90,103.0
1134,A1,134.25,1.0,127,103.0
1135,G4,134.25,0.25,90,103.0
1136,B1,134.25,0.25,127,103.0
1137,D5,134.5,0.25,90,103.0
1138,F#2,134.5,0.25,90,103.0
1139,E5,134.75,0.25,90,103.0
1140,G5,135.0,0.25,90,103.0
1141,E-3,135.0,1.0,110,103.0
1142,G#3,135.0,1.0,110,103.0
1143,A1,135.25,0.25,127,103.0
1144,D6,135.25,0.25,90,103.0
1145,B1,135.25,0.25,127,103.0
1146,A2,135.5,0.25,127,103.0
1147,B5,135.5,0.25,90,103.0
1148,E2,135.5,0.25,108,103.0
1149,F#2,135.5,0.25,108,103.0
1150,G5,135.75,0.25,90,103.0
1151,F#2,135.75,0.25,90,103.0
1152,E5,136.0,0.25,90,103.0
1153,B3,136.0,0.75,110,103.0
1154,B3,136.0,0.75,90,103.0
1155,E-3,136.0,1.0,110,103.0
1156,G#3,136.0,1.0,110,103.0
1157,D5,136.25,0.25,90,103.0
1158,A1,136.5,0.25,127,103.0
1159,B4,136.5,0.25,90,103.0
1160,B1,136.5,0.25,108,103.0
1161,F#2,136.5,0.25,108,103.0
1162,G4,136.75,0.25,90,103.0
1163,D4,136.75,0.75,110,103.0
1164,D4,136.75,0.75,90,103.0
1165,A2,137.0,0.25,127,103.0
1166,E4,137.0,0.5,90,103.0
1167,E2,137.0,0.25,127,103.0
1168,E-3,137.0,1.0,110,103.0
1169,G#3,137.0,1.0,110,103.0
1170,A1,137.25,0.25,127,103.0
1171,D4,137.25,0.25,90,103.0
1172,B1,137.25,0.25,127,103.0
1173,E4,137.25,0.25,110,103.0
1174,E4,137.25,0.25,90,103.0
1175,F#2,137.5,0.25,90,103.0
1176,F#2,137.75,0.25,90,103.0
1177,E4,137.75,0.25,110,103.0
1178,E4,137.75,0.25,90,103.0
1179,E4,138.0,0.5,110,103.0
1180,E4,138.0,0.5,90,103.0
1181,E-3,138.0,1.0,110,103.0
1182,G#3,138.0,1.0,110,103.0
1183,A4,138.25,0.25,90,103.0
1184,B4,138.5,0.25,90,103.0
1185,F#2,138.5,0.25,90,103.0
1186,F#4,138.5,1.5,110,103.0
1187,F#4,138.5,1.5,90,103.0
1188,B1,138.75,0.25,127,103.0
1189,D5,138.75,0.25,90,103.0
1190,B1,138.75,0.25,127,103.0
1191,B2,139.0,0.25,127,103.0
1192,F#5,139.0,0.25,90,103.0
1193,E2,139.0,0.25,127,103.0
1194,E-3,139.0,1.0,110,103.0
1195,G#3,139.0,1.0,110,103.0
1196,B1,139.25,0.25,127,103.0
1197,E6,139.25,0.25,90,103.0
1198,B1,139.25,0.25,127,103.0
1199,B1,139.5,0.25,127,103.0
1200,C#6,139.5,0.25,90,103.0
1201,B1,139.5,0.25,108,103.0
1202,F#2,139.5,0.25,108,103.0
1203,A5,139.75,0.25,90,103.0
1204,F#2,139.75,0.25,90,103.0
1205,F#5,140.0,0.25,90,103.0
1206,D4,140.0,0.75,110,103.0
1207,D4,140.0,0.75,90,103.0
1208,E-3,140.0,1.0,110,103.0
1209,G#3,140.0,1.0,110,103.0
1210,D5,140.25,0.25,90,103.0
1211,B1,140.5,0.25,127,103.0
1212,A4,140.5,0.25,90,103.0
1213,B1,140.5,0.25,108,103.0
1214,F#2,140.5,0.25,108,103.0
1215,F#4,140.75,0.25,90,103.0
1216,F#4,140.75,0.25,110,103.0
1217,F#4,140.75,0.25,90,103.0
1218,E4,141.0,0.5,90,103.0
1219,E2,141.0,0.25,127,103.0
1220,E-3,141.0,1.0,110,103.0
1221,G#3,141.0,1.0,110,103.0
1222,B1,141.25,0.25,127,103.0
1223,A4,141.25,0.75,110,103.0
1224,A4,141.25,0.75,90,103.0
1225,F#2,141.5,0.25,90,103.0
1226,F#2,141.75,0.25,90,103.0
1227,A4,142.0,1.75,110,103.0
1228,A4,142.0,1.75,90,103.0
1229,E-3,142.0,1.0,110,103.0
1230,G#3,142.0,1.0,110,103.0
1231,G4,142.25,0.25,90,103.0
1232,B4,142.5,0.25,90,103.0
1233,F#2,142.5,0.25,90,103.0
1234,C#2,142.75,0.25,127,103.0
1235,E5,142.75,0.25,90,103.0
1236,B1,142.75,0.25,127,103.0
1237,C#3,143.0,0.25,127,103.0
1238,A5,143.0,0.25,90,103.0
1239,E2,143.0,0.25,127,103.0
1240,E-3,143.0,1.0,110,103.0
1241,G#3,143.0,1.0,110,103.0
1242,C#2,143.25,0.25,127,103.0
1243,E6,143.25,0.25,90,103.0
1244,B1,143.25,0.25,127,103.0
1245,C#2,143.5,0.25,127,103.0
1246,C#6,143.5,0.25,90,103.0
1247,B1,143.5,0.25,108,103.0
1248,F#2,143.5,0.25,108,103.0
1249,B5,143.75,0.25,90,103.0
1250,F#2,143.75,0.25,90,103.0
1251,A5,144.0,0.25,90,103.0
1252,E4,144.0,1.0,110,103.0
1253,E4,144.0,1.0,90,103.0
1254,E-3,144.0,1.0,110,103.0
1255,G#3,144.0,1.0,110,103.0
1256,E5,144.25,0.25,90,103.0
1257,C#2,144.5,0.25,127,103.0
1258,B4,144.5,0.25,90,103.0
1259,B1,144.5,0.25,108,103.0
1260,F#2,144.5,0.25,108,103.0
1261,G4,144.75,0.25,90,103.0
1262,E4,145.0,0.5,90,103.0
1263,E2,145.0,0.25,127,103.0
1264,G4,145.0,0.5,110,103.0
1265,G4,145.0,0.5,90,103.0
1266,E-3,145.0,1.0,110,103.0
1267,G#3,145.0,1.0,110,103.0
1268,C#2,145.25,0.25,127,103.0
1269,B1,145.25,0.25,127,103.0
1270,F#2,145.5,0.25,90,103.0
1271,E4,145.5,0.25,110,103.0
1272,E4,145.5,0.25,90,103.0
1273,F#2,145.75,0.25,90,103.0
1274,G4,145.75,0.25,110,103.0
1275,G4,145.75,0.25,90,103.0
1276,G4,146.0,0.5,110,103.0
1277,G4,146.0,0.5,90,103.0
1278,E-3,146.0,1.0,110,103.0
1279,G#3,146.0,1.0,110,103.0
1280,F#6,146.5,0.25,90,103.0
1281,F#2,146.5,0.25,90,103.0
1282,A4,146.5,0.25,110,103.0
1283,A4,146.5,0.25,90,103.0
1284,D2,146.75,0.25,127,103.0
1285,C#6,146.75,0.25,90,103.0
1286,B1,146.75,0.25,127,103.0
1287,D3,147.0,0.75,127,103.0
1288,A5,147.0,0.25,90,103.0
1289,F#4,147.0,1.0,110,103.0
1290,F#4,147.0,0.5,90,103.0
1291,E-3,147.0,1.0,116,103.0
1292,G#3,147.0,1.0,116,103.0
1293,E2,147.0,1.0,116,103.0
1294,F#5,147.25,0.25,90,103.0
1295,E5,147.5,0.25,90,103.0
1296,F#2,147.5,0.25,90,103.0
1297,D5,147.75,0.25,90,103.0
1298,F#2,147.75,0.25,90,103.0
1299,E1,148.0,1.5,120,103.0
1300,B4,148.0,0.25,90,103.0
1301,A3,148.0,0.75,110,103.0
1302,A3,148.0,0.75,90,103.0
1303,E-3,148.0,1.0,110,103.0
1304,G#3,148.0,1.0,110,103.0
1305,B1,148.0,0.25,127,103.0
1306,G3,148.0,0.25,127,103.0
1307,A4,148.25,0.25,90,103.0
1308,B1,148.5,0.25,108,103.0
1309,F#2,148.5,0.25,108,103.0
1310,B3,148.75,0.5,110,103.0
1311,B3,148.75,0.5,90,103.0
1312,E2,149.0,0.25,127,103.0
1313,E-3,149.0,1.0,110,103.0
1314,G#3,149.0,1.0,110,103.0
1315,D4,149.25,0.25,110,103.0
1316,D4,149.25,0.25,90,103.0
1317,F#2,149.5,0.25,90,103.0
1318,D4,149.75,0.25,110,103.0
1319,D4,149.75,0.25,90,103.0
1320,E2,149.75,0.25,108,103.0
1321,F#2,149.75,0.25,108,103.0
1322,G#3,150.0,1.0,110,103.0
1323,D4,150.0,1.75,110,103.0
1324,D4,150.0,1.75,90,103.0
1325,A1,150.25,1.0,127,103.0
1326,G4,150.25,0.25,90,103.0
1327,C#3,150.25,0.25,127,103.0
1328,B1,150.25,0.25,127,103.0
1329,D5,150.5,0.25,90,103.0
1330,F#2,150.5,0.25,90,103.0
1331,E5,150.75,0.25,90,103.0
1332,G5,151.0,0.25,90,103.0
1333,E-3,151.0,1.0,110,103.0
1334,G#3,151.0,1.0,110,103.0
1335,A1,151.25,0.25,127,103.0
1336,D6,151.25,0.25,90,103.0
1337,B1,151.25,0.25,127,103.0
1338,A2,151.5,0.25,127,103.0
1339,B5,151.5,0.25,90,103.0
1340,E2,151.5,0.25,108,103.0
1341,F#2,151.5,0.25,108,103.0
1342,G5,151.75,0.25,90,103.0
1343,F#2,151.75,0.25,90,103.0
1344,E5,152.0,0.25,90,103.0
1345,B3,152.0,0.75,110,103.0
1346,B3,152.0,0.75,90,103.0
1347,E-3,152.0,1.0,110,103.0
1348,G#3,152.0,1.0,110,103.0
1349,D5,152.25,0.25,90,103.0
1350,A1,152.5,0.25,127,103.0
1351,B4,152.5,0.25,90,103.0
1352,B1,152.5,0.25,108,103.0
1353,F#2,152.5,0.25,108,103.0
1354,G4,152.75,0.25,90,103.0
1355,D4,152.75,0.75,110,103.0
1356,D4,152.75,0.75,90,103.0
1357,A2,153.0,0.25,127,103.0
1358,E4,153.0,0.25,90,103.0
1359,E2,153.0,0.25,127,103.0
1360,E-3,153.0,1.0,110,103.0
1361,G#3,153.0,1.0,110,103.0
1362,A1,153.25,0.25,127,103.0
1363,D4,153.25,0.25,90,103.0
1364,B1,153.25,0.25,127,103.0
1365,E4,153.25,0.25,110,103.0
1366,E4,153.25,0.25,90,103.0
1367,F#2,153.5,0.25,90,103.0
1368,F#2,153.75,0.25,90,103.0
1369,E4,153.75,0.25,110,103.0
1370,E4,153.75,0.25,90,103.0
1371,E4,154.0,0.5,110,103.0
1372,E4,154.0,0.5,90,103.0
1373,E-3,154.0,1.0,110,103.0
1374,G#3,154.0,1.0,110,103.0
1375,A4,154.25,0.25,90,103.0
1376,B4,154.5,0.25,90,103.0
1377,F#2,154.5,0.25,90,103.0
1378,F#4,154.5,1.5,110,103.0
1379,F#4,154.5,1.5,90,103.0
1380,B1,154.75,0.25,127,103.0
1381,D5,154.75,0.25,90,103.0
1382,B1,154.75,0.25,127,103.0
1383,B2,155.0,0.25,127,103.0
1384,F#5,155.0,0.25,90,103.0
1385,E2,155.0,0.25,127,103.0
1386,E-3,155.0,1.0,110,103.0
1387,G#3,155.0,1.0,110,103.0
1388,B1,155.25,0.25,127,103.0
1389,E6,155.25,0.25,90,103.0
1390,B1,155.25,0.25,127,103.0
1391,B1,155.5,0.25,127,103.0
1392,C#6,155.5,0.25,90,103.0
1393,B1,155.5,0.25,108,103.0
1394,F#2,155.5,0.25,108,103.0
1395,A5,155.75,0.25,90,103.0
1396,F#2,155.75,0.25,90,103.0
1397,F#5,156.0,0.25,90,103.0
1398,D4,156.0,0.75,110,103.0
1399,D4,156.0,0.75,90,103.0
1400,E-3,156.0,1.0,110,103.0
1401,G#3,156.0,1.0,110,103.0
1402,D5,156.25,0.25,90,103.0
1403,B1,156.5,0.25,127,103.0
1404,A4,156.5,0.25,90,103.0
1405,B1,156.5,0.25,108,103.0
1406,F#2,156.5,0.25,108,103.0
1407,F#4,156.75,0.25,90,103.0
1408,F#4,156.75,0.25,110,103.0
1409,F#4,156.75,0.25,90,103.0
1410,D4,157.0,0.25,90,103.0
1411,E2,157.0,0.25,127,103.0
1412,E-3,157.0,1.0,110,103.0
1413,G#3,157.0,1.0,110,103.0
1414,B1,157.25,0.25,127,103.0
1415,A4,157.25,0.5,110,103.0
1416,A4,157.25,0.5,90,103.0
1417,F#2,157.5,0.25,90,103.0
1418,F#2,157.75,0.25,90,103.0
1419,G4,157.75,0.25,110,103.0
1420,G4,157.75,0.25,90,103.0
1421,G4,158.0,2.0,110,103.0
1422,G4,158.0,2.0,90,103.0
1423,E-3,158.0,1.0,110,103.0
1424,G#3,158.0,1.0,110,103.0
1425,B4,158.25,0.25,90,103.0
1426,E5,158.5,0.25,90,103.0
1427,F#2,158.5,0.25,90,103.0
1428,C2,158.75,0.25,127,103.0
1429,G5,158.75,0.25,90,103.0
1430,B1,158.75,0.25,127,103.0
1431,C3,159.0,0.25,127,103.0
1432,B5,159.0,0.25,90,103.0
1433,E2,159.0,0.25,127,103.0
1434,E-3,159.0,1.0,110,103.0
1435,G#3,159.0,1.0,110,103.0
1436,C2,159.25,0.25,127,103.0
1437,G6,159.25,0.25,90,103.0
1438,B1,159.25,0.25,127,103.0
1439,C2,159.5,0.25,127,103.0
1440,E6,159.5,0.25,90,103.0
1441,B1,159.5,0.25,108,103.0
1442,F#2,159.5,0.25,108,103.0
1443,D6,159.75,0.25,90,103.0
1444,F#2,159.75,0.25,90,103.0
1445,B5,160.0,0.25,90,103.0
1446,E4,160.0,0.25,110,103.0
1447,E4,160.0,0.25,90,103.0
1448,E-3,160.0,1.0,110,103.0
1449,G#3,160.0,1.0,110,103.0
1450,G5,160.25,0.25,90,103.0
1451,G4,160.25,0.25,110,103.0
1452,G4,160.25,0.25,90,103.0
1453,C2,160.5,0.25,127,103.0
1454,E5,160.5,0.25,90,103.0
1455,B1,160.5,0.25,108,103.0
1456,F#2,160.5,0.25,108,103.0
1457,D5,160.75,0.25,90,103.0
1458,C#5,160.75,0.25,110,103.0
1459,C#5,160.75,0.25,90,103.0
1460,B4,161.0,0.25,90,103.0
1461,E2,161.0,0.25,127,103.0
1462,E-3,161.0,1.0,110,103.0
1463,G#3,161.0,1.0,110,103.0
1464,C2,161.25,0.25,127,103.0
1465,G4,161.25,0.25,90,103.0
1466,B1,161.25,0.25,127,103.0
1467,C5,161.25,0.25,110,103.0
1468,C5,161.25,0.25,90,103.0
1469,F#2,161.5,0.25,90,103.0
1470,B4,161.5,0.5,110,103.0
1471,B4,161.5,0.5,90,103.0
1472,D2,161.75,0.25,127,103.0
1473,F#2,161.75,0.25,90,103.0
1474,D2,162.0,1.75,127,103.0
1475,B4,162.0,1.25,110,103.0
1476,B4,162.0,1.25,90,103.0
1477,E-3,162.0,1.0,110,103.0
1478,G#3,162.0,1.0,110,103.0
1479,C5,162.25,0.25,90,103.0
1480,E5,162.5,0.25,90,103.0
1481,F#2,162.5,0.25,90,103.0
1482,G5,162.75,0.25,90,103.0
1483,B1,162.75,0.25,127,103.0
1484,C6,163.0,0.25,90,103.0
1485,C#3,163.0,1.0,118,103.0
1486,E2,163.0,1.0,118,103.0
1487,E6,163.25,0.25,90,103.0
1488,G6,163.5,1.0,90,103.0
1489,F#2,163.5,0.25,90,103.0
1490,F#2,163.75,0.25,90,103.0
1491,D2,164.0,0.25,120,103.0
1492,E2,164.0,0.25,127,103.0
1493,D5,164.0,0.25,90,103.0
1494,G5,164.0,0.25,90,103.0
1495,G5,164.0,0.25,90,103.0
1496,D5,164.0,0.25,90,103.0
1497,D2,164.5,0.25,120,103.0
1498,D5,164.5,0.25,90,103.0
1499,G5,164.5,0.25,90,103.0
1500,E2,164.5,0.25,108,103.0
1501,F#2,164.5,0.25,108,103.0
1502,D5,164.5,0.25,90,103.0
1503,G5,164.5,0.25,90,103.0
1504,D2,165.0,0.25,120,103.0
1505,E2,165.0,0.25,127,103.0
1506,D5,165.0,0.25,90,103.0
1507,G5,165.0,0.25,90,103.0
1508,D5,165.0,0.25,90,103.0
1509,G5,165.0,0.25,90,103.0
1510,D2,165.5,0.25,120,103.0
1511,D5,165.5,0.25,90,103.0
1512,G5,165.5,0.25,90,103.0
1513,E2,165.5,0.25,108,103.0
1514,F#2,165.5,0.25,108,103.0
1515,D5,165.5,0.25,90,103.0
1516,G5,165.5,0.25,90,103.0
1517,E2,165.75,0.25,120,103.0
1518,D5,165.75,0.25,90,103.0
1519,G5,165.75,0.25,90,103.0
1520,E2,165.75,0.25,108,103.0
1521,F#2,165.75,0.25,108,103.0
1522,D5,165.75,0.25,90,103.0
1523,G5,165.75,0.25,90,103.0
1524,F#2,166.0,0.25,122,103.0
1525,C#3,166.0,0.25,122,103.0
1526,B1,166.0,0.25,122,103.0
1527,F#4,166.25,167/1000,127,103.0
1528,A3,166.25,167/1000,90,103.0
1529,D4,166.25,167/1000,90,103.0
1530,E1,166.5,0.5,127,103.0
1531,F#2,166.5,0.25,120,103.0
1532,A4,166.5,167/1000,127,103.0
1533,E2,166.75,167/1000,90,103.0
1534,F#2,166.75,0.25,120,103.0
1535,B4,166.75,167/1000,127,103.0
1536,E2,167.0,0.25,127,103.0
1537,D5,167.0,167/1000,127,103.0
1538,A3,167.0,167/1000,90,103.0
1539,D4,167.0,167/1000,90,103.0
1540,E5,167.25,167/1000,127,103.0
1541,D4,167.25,167/1000,90,103.0
1542,A3,167.25,167/1000,90,103.0
1543,E1,167.5,0.5,127,103.0
1544,F#2,167.5,0.25,120,103.0
1545,D5,167.5,167/1000,127,103.0
1546,F#2,167.75,0.25,120,103.0
1547,F#5,167.75,0.5,127,103.0
1548,B1,168.0,0.25,127,103.0
1549,D4,168.25,167/1000,90,103.0
1550,A3,168.25,167/1000,90,103.0
1551,E1,168.5,0.5,127,103.0
1552,F#2,168.5,0.25,120,103.0
1553,F#2,168.75,0.25,120,103.0
1554,E2,169.0,0.25,127,103.0
1555,E2,169.25,0.25,127,103.0
1556,F#2,169.5,0.25,120,103.0
1557,A3,169.5,167/1000,90,103.0
1558,D4,169.5,167/1000,90,103.0
1559,G2,169.75,0.25,127,103.0
1560,F#2,169.75,0.25,120,103.0
1561,A3,169.75,167/1000,90,103.0
1562,D4,169.75,167/1000,90,103.0
1563,F#2,170.0,0.25,124,103.0
1564,B1,170.0,0.25,124,103.0
1565,D3,170.25,167/1000,90,103.0
1566,F#4,170.25,167/1000,127,103.0
1567,E1,170.5,0.5,127,103.0
1568,F#2,170.5,0.25,120,103.0
1569,A4,170.5,167/1000,127,103.0
1570,B2,170.75,167/1000,90,103.0
1571,F#2,170.75,0.25,120,103.0
1572,B4,170.75,167/1000,127,103.0
1573,E2,171.0,0.25,127,103.0
1574,D5,171.0,167/1000,127,103.0
1575,D3,171.25,167/1000,90,103.0
1576,E5,171.25,167/1000,127,103.0
1577,E1,171.5,0.5,127,103.0
1578,F#2,171.5,0.25,120,103.0
1579,D5,171.5,167/1000,127,103.0
1580,B2,171.75,167/1000,90,103.0
1581,F#2,171.75,0.25,120,103.0
1582,F#5,171.75,333/1000,127,103.0
1583,D3,172.0,167/1000,90,103.0
1584,B1,172.0,0.25,127,103.0
1585,F#5,172.25,0.25,127,103.0
1586,A2,172.5,0.5,127,103.0
1587,D3,172.5,167/1000,90,103.0
1588,E5,172.5,0.25,127,103.0
1589,F#2,172.5,0.25,124,103.0
1590,B1,172.5,0.25,124,103.0
1591,F#2,172.75,0.25,120,103.0
1592,D5,172.75,0.75,127,103.0
1593,G2,173.0,0.25,127,103.0
1594,D3,173.0,167/1000,90,103.0
1595,E2,173.0,0.25,127,103.0
1596,E3,173.25,167/1000,90,103.0
1597,D2,173.5,0.25,127,103.0
1598,B-2,173.5,0.25,120,103.0
1599,B4,173.5,0.5,127,103.0
1600,E2,173.75,0.25,127,103.0
1601,E2,173.75,167/1000,90,103.0
1602,B4,174.0,0.25,127,103.0
1603,F#2,174.0,0.25,124,103.0
1604,B1,174.0,0.25,124,103.0
1605,B4,174.25,0.5,110,103.0
1606,F#5,174.25,0.5,90,103.0
1607,A3,174.25,167/1000,90,103.0
1608,D4,174.25,167/1000,90,103.0
1609,E1,174.5,0.5,127,103.0
1610,F#2,174.5,0.25,120,103.0
1611,B2,174.75,167/1000,90,103.0
1612,F#2,174.75,0.25,120,103.0
1613,A4,174.75,0.25,110,103.0
1614,E5,174.75,0.25,90,103.0
1615,E2,175.0,0.25,127,103.0
1616,F#4,175.0,0.5,110,103.0
1617,D5,175.0,0.5,90,103.0
1618,A3,175.0,167/1000,90,103.0
1619,D4,175.0,167/1000,90,103.0
1620,A3,175.25,167/1000,90,103.0
1621,D4,175.25,167/1000,90,103.0
1622,E1,175.5,0.5,127,103.0
1623,F#2,175.5,0.25,120,103.0
1624,E4,175.5,0.25,110,103.0
1625,B4,175.5,0.25,90,103.0
1626,B2,175.75,167/1000,90,103.0
1627,F#2,175.75,0.25,120,103.0
1628,D4,175.75,0.5,110,103.0
1629,A4,175.75,0.5,90,103.0
1630,B1,176.0,0.25,127,103.0
1631,A3,176.0,167/1000,90,103.0
1632,D4,176.0,167/1000,90,103.0
1633,D4,176.25,0.25,110,103.0
1634,G4,176.25,0.25,90,103.0
1635,E1,176.5,0.5,127,103.0
1636,F#2,176.5,0.25,120,103.0
1637,B3,176.5,0.25,110,103.0
1638,E4,176.5,0.25,90,103.0
1639,A3,176.5,167/1000,90,103.0
1640,D4,176.5,167/1000,90,103.0
1641,F#2,176.75,0.25,120,103.0
1642,E2,177.0,0.25,127,103.0
1643,D4,177.0,417/1000,110,103.0
1644,G4,177.0,0.5,90,103.0
1645,A3,177.0,167/1000,90,103.0
1646,D4,177.0,167/1000,90,103.0
1647,E2,177.25,0.25,127,103.0
1648,B3,177.25,167/1000,90,103.0
1649,E4,177.25,167/1000,90,103.0
1650,F#2,177.5,0.25,120,103.0
1651,B3,177.5,0.25,110,103.0
1652,E4,177.5,0.25,90,103.0
1653,G2,177.75,0.25,127,103.0
1654,E2,177.75,167/1000,90,103.0
1655,F#2,177.75,0.25,120,103.0
1656,D4,177.75,0.25,110,103.0
1657,A4,177.75,0.25,90,103.0
1658,D4,178.0,0.25,110,103.0
1659,A4,178.0,0.25,90,103.0
1660,F#2,178.0,0.25,124,103.0
1661,B1,178.0,0.25,124,103.0
1662,B2,178.25,167/1000,90,103.0
1663,D4,178.25,0.25,110,103.0
1664,G4,178.25,0.25,90,103.0
1665,E1,178.5,0.5,127,103.0
1666,F#2,178.5,0.25,120,103.0
1667,B3,178.5,0.25,110,103.0
1668,E4,178.5,0.25,90,103.0
1669,E3,178.75,167/1000,90,103.0
1670,F#2,178.75,0.25,120,103.0
1671,E2,179.0,0.25,127,103.0
1672,F#3,179.25,0.5,90,103.0
1673,E1,179.5,0.5,127,103.0
1674,F#2,179.5,0.25,120,103.0
1675,E3,179.75,167/1000,90,103.0
1676,F#2,179.75,0.25,120,103.0
1677,D3,180.0,167/1000,90,103.0
1678,B1,180.0,0.25,127,103.0
1679,B1,180.25,21/500,127,103.0
1680,A1,180.5,0.5,127,103.0
1681,D3,180.5,167/1000,90,103.0
1682,F#2,180.5,0.25,124,103.0
1683,B1,180.5,0.25,124,103.0
1684,F#2,180.75,0.25,120,103.0
1685,B1,181.0,0.5,127,103.0
1686,D3,181.0,167/1000,90,103.0
1687,E2,181.0,0.25,127,103.0
1688,E3,181.25,167/1000,90,103.0
1689,G3,181.25,0.25,110,103.0
1690,D2,181.5,0.25,127,103.0
1691,E2,181.5,0.25,124,103.0
1692,B-2,181.5,0.25,124,103.0
1693,E2,181.75,0.25,127,103.0
1694,E2,181.75,167/1000,90,103.0
1695,E2,181.75,0.25,127,103.0
1696,F#2,182.0,0.25,122,103.0
1697,C#3,182.0,0.25,122,103.0
1698,B1,182.0,0.25,122,103.0
1699,F#4,182.25,167/1000,127,103.0
1700,A3,182.25,167/1000,90,103.0
1701,D4,182.25,167/1000,90,103.0
1702,E1,182.5,0.5,127,103.0
1703,F#2,182.5,0.25,120,103.0
1704,A4,182.5,167/1000,127,103.0
1705,E2,182.75,167/1000,90,103.0
1706,F#2,182.75,0.25,120,103.0
1707,B4,182.75,167/1000,127,103.0
1708,E2,183.0,0.25,127,103.0
1709,D5,183.0,167/1000,127,103.0
1710,A3,183.0,167/1000,90,103.0
1711,D4,183.0,167/1000,90,103.0
1712,E5,183.25,167/1000,127,103.0
1713,A3,183.25,167/1000,90,103.0
1714,D4,183.25,167/1000,90,103.0
1715,E1,183.5,0.5,127,103.0
1716,F#2,183.5,0.25,120,103.0
1717,D5,183.5,167/1000,127,103.0
1718,B2,183.75,167/1000,90,103.0
1719,F#2,183.75,0.25,120,103.0
1720,F#5,183.75,0.25,127,103.0
1721,B1,184.0,0.25,127,103.0
1722,D5,184.25,0.5,127,103.0
1723,D4,184.25,167/1000,90,103.0
1724,A3,184.25,167/1000,90,103.0
1725,E1,184.5,0.5,127,103.0
1726,F#2,184.5,0.25,120,103.0
1727,F#2,184.75,0.25,120,103.0
1728,E2,185.0,0.25,127,103.0
1729,E2,185.25,0.25,127,103.0
1730,F#2,185.5,0.25,120,103.0
1731,D4,185.5,167/1000,90,103.0
1732,A3,185.5,167/1000,90,103.0
1733,G2,185.75,0.25,127,103.0
1734,F#2,185.75,0.25,120,103.0
1735,A3,185.75,167/1000,90,103.0
1736,D4,185.75,167/1000,90,103.0
1737,F#2,186.0,0.25,124,103.0
1738,B1,186.0,0.25,124,103.0
1739,D3,186.25,167/1000,90,103.0
1740,B5,186.25,0.5,127,103.0
1741,E1,186.5,0.5,127,103.0
1742,F#2,186.5,0.25,120,103.0
1743,B2,186.75,167/1000,90,103.0
1744,F#2,186.75,0.25,120,103.0
1745,E2,187.0,0.25,127,103.0
1746,G#5,187.0,0.5,127,103.0
1747,D3,187.25,167/1000,90,103.0
1748,E1,187.5,0.5,127,103.0
1749,F#2,187.5,0.25,120,103.0
1750,B2,187.75,167/1000,90,103.0
1751,F#2,187.75,0.25,120,103.0
1752,E5,187.75,1.25,127,103.0
1753,D3,188.0,167/1000,90,103.0
1754,B1,188.0,0.25,127,103.0
1755,A2,188.5,0.5,127,103.0
1756,D3,188.5,167/1000,90,103.0
1757,F#2,188.5,0.25,124,103.0
1758,B1,188.5,0.25,124,103.0
1759,F#2,188.75,0.25,120,103.0
1760,G2,189.0,0.25,127,103.0
1761,D3,189.0,167/1000,90,103.0
1762,E2,189.0,0.25,127,103.0
1763,D5,189.0,0.25,127,103.0
1764,E3,189.25,167/1000,90,103.0
1765,B4,189.25,0.75,127,103.0
1766,D2,189.5,0.25,127,103.0
1767,B-2,189.5,0.25,120,103.0
1768,E2,189.75,0.25,127,103.0
1769,E2,189.75,167/1000,90,103.0
1770,F#2,190.0,0.25,124,103.0
1771,B1,190.0,0.25,124,103.0
1772,B4,190.25,0.5,110,103.0
1773,F#5,190.25,0.5,90,103.0
1774,A3,190.25,167/1000,90,103.0
1775,D4,190.25,167/1000,90,103.0
1776,E1,190.5,0.5,127,103.0
1777,F#2,190.5,0.25,120,103.0
1778,B2,190.75,167/1000,90,103.0
1779,F#2,190.75,0.25,120,103.0
1780,A4,190.75,0.25,110,103.0
1781,E5,190.75,0.25,90,103.0
1782,E2,191.0,0.25,127,103.0
1783,F#4,191.0,0.5,110,103.0
1784,D5,191.0,0.5,90,103.0
1785,A3,191.0,167/1000,90,103.0
1786,D4,191.0,167/1000,90,103.0
1787,A3,191.25,167/1000,90,103.0
1788,D4,191.25,167/1000,90,103.0
1789,E1,191.5,0.5,127,103.0
1790,F#2,191.5,0.25,120,103.0
1791,E4,191.5,0.25,110,103.0
1792,B4,191.5,0.25,90,103.0
1793,B2,191.75,167/1000,90,103.0
1794,F#2,191.75,0.25,120,103.0
1795,D4,191.75,0.5,110,103.0
1796,A4,191.75,0.5,90,103.0
1797,B1,192.0,0.25,127,103.0
1798,A3,192.0,167/1000,90,103.0
1799,D4,192.0,167/1000,90,103.0
1800,D4,192.25,0.25,110,103.0
1801,G4,192.25,0.25,90,103.0
1802,E1,192.5,0.5,127,103.0
1803,F#2,192.5,0.25,120,103.0
1804,B3,192.5,0.25,110,103.0
1805,E4,192.5,0.25,90,103.0
1806,A3,192.5,167/1000,90,103.0
1807,D4,192.5,167/1000,90,103.0
1808,F#2,192.75,0.25,120,103.0
1809,E2,193.0,0.25,127,103.0
1810,D4,193.0,0.5,110,103.0
1811,G4,193.0,0.25,90,103.0
1812,A3,193.0,167/1000,90,103.0
1813,D4,193.0,167/1000,90,103.0
1814,E2,193.25,0.25,127,103.0
1815,B3,193.25,167/1000,90,103.0
1816,E4,193.25,167/1000,90,103.0
1817,F#2,193.5,0.25,120,103.0
1818,B3,193.5,0.25,110,103.0
1819,E4,193.5,0.25,90,103.0
1820,G2,193.75,0.25,127,103.0
1821,E2,193.75,167/1000,90,103.0
1822,F#2,193.75,0.25,120,103.0
1823,D4,193.75,0.25,110,103.0
1824,A4,193.75,0.25,90,103.0
1825,D4,194.0,0.25,110,103.0
1826,A4,194.0,0.25,90,103.0
1827,F#2,194.0,0.25,124,103.0
1828,B1,194.0,0.25,124,103.0
1829,B2,194.25,167/1000,90,103.0
1830,D4,194.25,0.25,110,103.0
1831,G4,194.25,0.25,90,103.0
1832,E1,194.5,0.5,127,103.0
1833,F#2,194.5,0.25,120,103.0
1834,B3,194.5,2.0,110,103.0
1835,E4,194.5,2.5,90,103.0
1836,E3,194.75,167/1000,90,103.0
1837,F#2,194.75,0.25,120,103.0
1838,E2,195.0,0.25,127,103.0
1839,F#3,195.25,0.5,90,103.0
1840,E1,195.5,0.5,127,103.0
1841,F#2,195.5,0.25,120,103.0
1842,E3,195.75,167/1000,90,103.0
1843,F#2,195.75,0.25,120,103.0
1844,D3,196.0,167/1000,90,103.0
1845,B1,196.0,0.25,127,103.0
1846,B1,196.25,21/500,127,103.0
1847,E2,196.25,0.25,127,103.0
1848,A1,196.5,0.5,127,103.0
1849,D3,196.5,167/1000,90,103.0
1850,F#2,196.5,0.25,124,103.0
1851,B1,196.5,0.25,124,103.0
1852,F#2,196.75,0.25,120,103.0
1853,B1,197.0,0.5,127,103.0
1854,D3,197.0,167/1000,90,103.0
1855,E2,197.0,0.25,127,103.0
1856,E3,197.25,167/1000,90,103.0
1857,D5,197.25,167/1000,127,103.0
1858,D5,197.25,167/1000,90,103.0
1859,D2,197.5,0.25,127,103.0
1860,B-2,197.5,0.25,120,103.0
1861,C#5,197.5,167/1000,127,103.0
1862,C#5,197.5,167/1000,90,103.0
1863,E2,197.75,0.25,127,103.0
1864,E2,197.75,167/1000,90,103.0
1865,E2,197.75,0.25,127,103.0
1866,B4,197.75,167/1000,127,103.0
1867,B4,197.75,167/1000,90,103.0
1868,F#2,198.0,0.25,122,103.0
1869,C#3,198.0,0.25,122,103.0
1870,B1,198.0,0.25,122,103.0
1871,A3,198.25,167/1000,90,103.0
1872,D4,198.25,167/1000,90,103.0
1873,E1,198.5,0.5,127,103.0
1874,F#2,198.5,0.25,120,103.0
1875,E2,198.75,167/1000,90,103.0
1876,F#2,198.75,0.25,120,103.0
1877,E2,199.0,0.25,127,103.0
1878,A4,199.0,167/1000,127,103.0
1879,A4,199.0,167/1000,90,103.0
1880,A3,199.0,167/1000,90,103.0
1881,D4,199.0,167/1000,90,103.0
1882,D4,199.25,167/1000,90,103.0
1883,A3,199.25,167/1000,90,103.0
1884,E1,199.5,0.5,127,103.0
1885,F#2,199.5,0.25,120,103.0
1886,F#2,199.75,0.25,120,103.0
1887,B1,200.0,0.25,127,103.0
1888,G#4,200.0,167/1000,127,103.0
1889,G#4,200.0,167/1000,90,103.0
1890,D4,200.25,167/1000,90,103.0
1891,A3,200.25,167/1000,90,103.0
1892,E1,200.5,0.5,127,103.0
1893,F#2,200.5,0.25,120,103.0
1894,F#2,200.75,0.25,120,103.0
1895,E2,201.0,0.25,127,103.0
1896,E2,201.25,0.25,127,103.0
1897,B4,201.25,167/1000,127,103.0
1898,B4,201.25,167/1000,90,103.0
1899,F#2,201.5,0.25,120,103.0
1900,A3,201.5,167/1000,90,103.0
1901,D4,201.5,167/1000,90,103.0
1902,G2,201.75,0.25,127,103.0
1903,F#2,201.75,0.25,120,103.0
1904,F#4,201.75,167/1000,127,103.0
1905,F#4,201.75,167/1000,90,103.0
1906,A3,201.75,167/1000,90,103.0
1907,D4,201.75,167/1000,90,103.0
1908,F#2,202.0,0.25,124,103.0
1909,B1,202.0,0.25,124,103.0
1910,D3,202.25,167/1000,90,103.0
1911,G4,202.25,0.5,90,103.0
1912,E1,202.5,0.5,127,103.0
1913,F#2,202.5,0.25,120,103.0
1914,B2,202.75,167/1000,90,103.0
1915,F#2,202.75,0.25,120,103.0
1916,E2,203.0,0.25,127,103.0
1917,D3,203.25,167/1000,90,103.0
1918,E1,203.5,0.5,127,103.0
1919,F#2,203.5,0.25,120,103.0
1920,B2,203.75,167/1000,90,103.0
1921,F#2,203.75,0.25,120,103.0
1922,D3,204.0,167/1000,90,103.0
1923,B1,204.0,0.25,127,103.0
1924,E4,204.0,0.25,90,103.0
1925,F#4,204.25,0.25,90,103.0
1926,A2,204.5,0.5,127,103.0
1927,D3,204.5,167/1000,90,103.0
1928,G#4,204.5,0.25,90,103.0
1929,F#2,204.5,0.25,124,103.0
1930,B1,204.5,0.25,124,103.0
1931,F#2,204.75,0.25,120,103.0
1932,A4,204.75,0.25,90,103.0
1933,G2,205.0,0.25,127,103.0
1934,D3,205.0,167/1000,90,103.0
1935,E2,205.0,0.25,127,103.0
1936,B4,205.0,0.25,90,103.0
1937,E3,205.25,167/1000,90,103.0
1938,D2,205.5,0.25,127,103.0
1939,B-2,205.5,0.25,120,103.0
1940,A4,205.5,0.25,90,103.0
1941,E2,205.75,0.25,127,103.0
1942,E2,205.75,167/1000,90,103.0
1943,G#4,206.0,0.25,90,103.0
1944,F#2,206.0,0.25,124,103.0
1945,B1,206.0,0.25,124,103.0
1946,F#4,206.25,0.25,90,103.0
1947,A3,206.25,167/1000,90,103.0
1948,D4,206.25,167/1000,90,103.0
1949,E1,206.5,0.5,127,103.0
1950,F#2,206.5,0.25,120,103.0
1951,E4,206.5,0.25,90,103.0
1952,B2,206.75,167/1000,90,103.0
1953,F#2,206.75,0.25,120,103.0
1954,E2,207.0,0.25,127,103.0
1955,E4,207.0,0.25,90,103.0
1956,A3,207.0,167/1000,90,103.0
1957,D4,207.0,167/1000,90,103.0
1958,A3,207.25,167/1000,90,103.0
1959,D4,207.25,167/1000,90,103.0
1960,E1,207.5,0.5,127,103.0
1961,F#2,207.5,0.25,120,103.0
1962,G#4,207.5,0.25,90,103.0
1963,B2,207.75,167/1000,90,103.0
1964,F#2,207.75,0.25,120,103.0
1965,B1,208.0,0.25,127,103.0
1966,F#4,208.0,0.25,90,103.0
1967,A3,208.0,167/1000,90,103.0
1968,D4,208.0,167/1000,90,103.0
1969,E4,208.25,0.25,90,103.0
1970,E1,208.5,0.5,127,103.0
1971,F#2,208.5,0.25,120,103.0
1972,D4,208.5,0.25,90,103.0
1973,A3,208.5,167/1000,90,103.0
1974,D4,208.5,167/1000,90,103.0
1975,F#2,208.75,0.25,120,103.0
1976,E2,209.0,0.25,127,103.0
1977,D4,209.0,0.75,90,103.0
1978,A3,209.0,167/1000,90,103.0
1979,D4,209.0,167/1000,90,103.0
1980,E2,209.25,0.25,127,103.0
1981,B3,209.25,167/1000,90,103.0
1982,E4,209.25,167/1000,90,103.0
1983,F#2,209.5,0.25,120,103.0
1984,G2,209.75,0.25,127,103.0
1985,E2,209.75,167/1000,90,103.0
1986,F#2,209.75,0.25,120,103.0
1987,B3,209.75,0.25,90,103.0
1988,E4,210.0,0.25,90,103.0
1989,F#2,210.0,0.25,124,103.0
1990,B1,210.0,0.25,124,103.0
1991,B2,210.25,167/1000,90,103.0
1992,E1,210.5,0.5,127,103.0
1993,F#2,210.5,0.25,120,103.0
1994,E4,210.5,0.25,90,103.0
1995,E3,210.75,167/1000,90,103.0
1996,F#2,210.75,0.25,120,103.0
1997,D4,210.75,0.25,90,103.0
1998,E2,211.0,0.25,127,103.0
1999,B3,211.0,0.25,90,103.0
2000,F#3,211.25,0.5,90,103.0
2001,E1,211.5,0.5,127,103.0
2002,F#2,211.5,0.25,120,103.0
2003,D4,211.5,0.25,90,103.0
2004,E3,211.75,167/1000,90,103.0
2005,F#2,211.75,0.25,120,103.0
2006,B3,211.75,1.5,90,103.0
2007,D3,212.0,167/1000,90,103.0
2008,B1,212.0,0.25,127,103.0
2009,B1,212.25,21/500,127,103.0
2010,A1,212.5,0.5,127,103.0
2011,D3,212.5,167/1000,90,103.0
2012,F#2,212.5,0.25,124,103.0
2013,B1,212.5,0.25,124,103.0
2014,F#2,212.75,0.25,120,103.0
2015,B1,213.0,0.5,127,103.0
2016,D3,213.0,167/1000,90,103.0
2017,E2,213.0,0.25,127,103.0
2018,E3,213.25,167/1000,90,103.0
2019,D5,213.25,167/1000,127,103.0
2020,D5,213.25,167/1000,90,103.0
2021,D2,213.5,0.25,127,103.0
2022,B-2,213.5,0.25,120,103.0
2023,C#5,213.5,167/1000,127,103.0
2024,C#5,213.5,167/1000,90,103.0
2025,E2,213.75,0.25,127,103.0
2026,E2,213.75,167/1000,90,103.0
2027,B4,213.75,167/1000,127,103.0
2028,B4,213.75,167/1000,90,103.0
2029,F#2,214.0,0.25,122,103.0
2030,C#3,214.0,0.25,122,103.0
2031,B1,214.0,0.25,122,103.0
2032,A3,214.25,167/1000,90,103.0
2033,D4,214.25,167/1000,90,103.0
2034,E1,214.5,0.5,127,103.0
2035,F#2,214.5,0.25,120,103.0
2036,E2,214.75,167/1000,90,103.0
2037,F#2,214.75,0.25,120,103.0
2038,E2,215.0,0.25,127,103.0
2039,A4,215.0,167/1000,127,103.0
2040,A4,215.0,167/1000,90,103.0
2041,A3,215.0,167/1000,90,103.0
2042,D4,215.0,167/1000,90,103.0
2043,A3,215.25,167/1000,90,103.0
2044,D4,215.25,167/1000,90,103.0
2045,E1,215.5,0.5,127,103.0
2046,F#2,215.5,0.25,120,103.0
2047,B2,215.75,167/1000,90,103.0
2048,F#2,215.75,0.25,120,103.0
2049,B1,216.0,0.25,127,103.0
2050,G#4,216.0,167/1000,127,103.0
2051,G#4,216.0,167/1000,90,103.0
2052,D4,216.25,167/1000,90,103.0
2053,A3,216.25,167/1000,90,103.0
2054,E1,216.5,0.5,127,103.0
2055,F#2,216.5,0.25,120,103.0
2056,F#2,216.75,0.25,120,103.0
2057,E2,217.0,0.25,127,103.0
2058,E2,217.25,0.25,127,103.0
2059,F#2,217.5,0.25,120,103.0
2060,D4,217.5,167/1000,90,103.0
2061,A3,217.5,167/1000,90,103.0
2062,G2,217.75,0.25,127,103.0
2063,B4,217.75,167/1000,127,103.0
2064,B4,217.75,167/1000,90,103.0
2065,A3,217.75,167/1000,90,103.0
2066,D4,217.75,167/1000,90,103.0
2067,B-2,217.75,0.25,124,103.0
2068,B1,217.75,0.25,124,103.0
2069,F#2,218.0,0.25,120,103.0
2070,D3,218.25,167/1000,90,103.0
2071,F#4,218.25,167/1000,127,103.0
2072,F#4,218.25,167/1000,90,103.0
2073,B-2,218.25,0.25,127,103.0
2074,B1,218.25,0.25,127,103.0
2075,E1,218.5,0.5,127,103.0
2076,F#2,218.5,0.25,120,103.0
2077,B2,218.75,167/1000,90,103.0
2078,F#2,218.75,0.25,120,103.0
2079,B3,218.75,0.25,90,103.0
2080,E2,219.0,0.25,127,103.0
2081,D3,219.25,167/1000,90,103.0
2082,F#4,219.25,0.25,90,103.0
2083,E1,219.5,0.5,127,103.0
2084,F#2,219.5,0.25,120,103.0
2085,B2,219.75,167/1000,90,103.0
2086,F#2,219.75,0.25,120,103.0
2087,D3,220.0,167/1000,90,103.0
2088,B1,220.0,0.25,127,103.0
2089,C#4,220.0,0.25,90,103.0
2090,A2,220.5,0.5,127,103.0
2091,D3,220.5,167/1000,90,103.0
2092,C#4,220.5,0.25,90,103.0
2093,F#2,220.5,0.25,124,103.0
2094,B1,220.5,0.25,124,103.0
2095,F#2,220.75,0.25,120,103.0
2096,G2,221.0,0.25,127,103.0
2097,D3,221.0,167/1000,90,103.0
2098,E2,221.0,0.25,127,103.0
2099,F#4,221.0,0.25,90,103.0
2100,E3,221.25,167/1000,90,103.0
2101,D2,221.5,0.25,127,103.0
2102,B-2,221.5,0.25,120,103.0
2103,E2,221.75,0.25,127,103.0
2104,E2,221.75,167/1000,90,103.0
2105,E4,222.0,0.25,90,103.0
2106,F#2,222.0,0.25,124,103.0
2107,B1,222.0,0.25,124,103.0
2108,F#4,222.25,0.25,90,103.0
2109,A3,222.25,167/1000,90,103.0
2110,D4,222.25,167/1000,90,103.0
2111,E1,222.5,0.5,127,103.0
2112,F#2,222.5,0.25,120,103.0
2113,A4,222.5,0.25,90,103.0
2114,B2,222.75,167/1000,90,103.0
2115,F#2,222.75,0.25,120,103.0
2116,E2,223.0,0.25,127,103.0
2117,B4,223.0,0.25,90,103.0
2118,A3,223.0,167/1000,90,103.0
2119,D4,223.0,167/1000,90,103.0
2120,A3,223.25,167/1000,90,103.0
2121,D4,223.25,167/1000,90,103.0
2122,E1,223.5,0.5,127,103.0
2123,F#2,223.5,0.25,120,103.0
2124,B4,223.5,0.25,90,103.0
2125,B2,223.75,167/1000,90,103.0
2126,F#2,223.75,0.25,120,103.0
2127,B1,224.0,0.25,127,103.0
2128,A3,224.0,167/1000,90,103.0
2129,D4,224.0,167/1000,90,103.0
2130,F#4,224.25,0.25,90,103.0
2131,E1,224.5,0.5,127,103.0
2132,F#2,224.5,0.25,120,103.0
2133,A3,224.5,167/1000,90,103.0
2134,D4,224.5,167/1000,90,103.0
2135,F#2,224.75,0.25,120,103.0
2136,F#4,224.75,0.25,90,103.0
2137,E2,225.0,0.25,127,103.0
2138,A3,225.0,167/1000,90,103.0
2139,D4,225.0,167/1000,90,103.0
2140,E2,225.25,0.25,127,103.0
2141,B3,225.25,0.25,90,103.0
2142,B3,225.25,167/1000,90,103.0
2143,E4,225.25,167/1000,90,103.0
2144,F#2,225.5,0.25,120,103.0
2145,C#4,225.5,0.25,90,103.0
2146,G2,225.75,0.25,127,103.0
2147,E2,225.75,167/1000,90,103.0
2148,F#2,225.75,0.25,120,103.0
2149,G#4,225.75,0.25,90,103.0
2150,F#4,226.0,0.25,90,103.0
2151,F#2,226.0,0.25,124,103.0
2152,B1,226.0,0.25,124,103.0
2153,B2,226.25,0.25,90,103.0
2154,D4,226.25,0.25,90,103.0
2155,E1,226.5,0.5,127,103.0
2156,F#2,226.5,0.25,120,103.0
2157,B3,226.5,0.25,90,103.0
2158,E3,226.75,0.25,90,103.0
2159,F#2,226.75,0.25,120,103.0
2160,E4,226.75,0.25,90,103.0
2161,E2,227.0,0.25,127,103.0
2162,E4,227.0,0.5,90,103.0
2163,F#3,227.25,0.5,90,103.0
2164,E1,227.5,0.5,127,103.0
2165,F#2,227.5,0.25,120,103.0
2166,D4,227.5,0.25,90,103.0
2167,E3,227.75,0.25,90,103.0
2168,F#2,227.75,0.25,120,103.0
2169,B3,227.75,1.75,90,103.0
2170,D3,228.0,0.25,90,103.0
2171,B1,228.0,0.25,127,103.0
2172,B1,228.25,21/500,127,103.0
2173,A1,228.5,0.5,127,103.0
2174,D3,228.5,0.25,90,103.0
2175,F#2,228.5,0.25,124,103.0
2176,B1,228.5,0.25,124,103.0
2177,F#2,228.75,0.25,120,103.0
2178,B1,229.0,0.5,127,103.0
2179,D3,229.0,0.25,90,103.0
2180,E2,229.0,0.25,127,103.0
2181,E3,229.25,0.25,90,103.0
2182,D5,229.25,167/1000,90,103.0
2183,D2,229.5,0.25,127,103.0
2184,B-2,229.5,0.25,120,103.0
2185,C#5,229.5,167/1000,90,103.0
2186,E2,229.75,0.25,127,103.0
2187,E2,229.75,0.25,90,103.0
2188,E2,229.75,0.25,127,103.0
2189,B4,229.75,167/1000,90,103.0
2190,F#2,230.0,0.25,124,103.0
2191,B1,230.0,0.25,124,103.0
2192,E3,230.25,167/1000,90,103.0
2193,E1,230.5,0.5,127,103.0
2194,E2,230.5,167/1000,90,103.0
2195,F#2,230.5,0.25,120,103.0
2196,F#2,230.75,0.25,120,103.0
2197,E3,231.0,167/1000,90,103.0
2198,E2,231.0,0.25,127,103.0
2199,A4,231.0,167/1000,90,103.0
2200,E2,231.5,0.5,127,103.0
2201,E2,231.5,167/1000,90,103.0
2202,F#2,231.5,0.25,120,103.0
2203,F#2,231.75,0.25,120,103.0
2204,F#2,232.0,0.5,127,103.0
2205,E2,232.0,167/1000,90,103.0
2206,B1,232.0,0.25,127,103.0
2207,F#3,232.25,167/1000,90,103.0
2208,F#1,232.5,0.75,127,103.0
2209,F#2,232.5,167/1000,90,103.0
2210,F#2,232.5,0.25,120,103.0
2211,F#2,232.75,167/1000,90,103.0
2212,F#2,232.75,0.25,120,103.0
2213,F#3,233.0,167/1000,90,103.0
2214,E2,233.0,0.25,127,103.0
2215,A2,233.0,0.25,127,103.0
2216,F#3,233.25,167/1000,90,103.0
2217,F#1,233.5,21/500,127,103.0
2218,F#2,233.5,0.25,120,103.0
2219,A2,233.75,0.125,127,103.0
2220,F#2,233.75,167/1000,90,103.0
2221,F#2,233.75,0.25,120,103.0
2222,D5,233.75,0.25,127,103.0
2223,F#2,234.0,0.25,124,103.0
2224,B1,234.0,0.25,124,103.0
2225,A2,234.25,0.25,127,103.0
2226,A3,234.25,167/1000,90,103.0
2227,F#4,234.25,0.125,127,103.0
2228,A1,234.5,0.5,127,103.0
2229,A2,234.5,167/1000,90,103.0
2230,F#2,234.5,0.25,120,103.0
2231,G4,234.5,0.125,127,103.0
2232,A2,234.75,167/1000,90,103.0
2233,F#2,234.75,0.25,120,103.0
2234,B4,234.75,0.125,127,103.0
2235,A2,235.0,0.25,127,103.0
2236,A3,235.0,167/1000,90,103.0
2237,E2,235.0,0.25,127,103.0
2238,D5,235.0,0.125,127,103.0
2239,A3,235.25,167/1000,90,103.0
2240,B4,235.25,0.125,127,103.0
2241,A1,235.5,0.25,127,103.0
2242,A1,235.5,167/1000,90,103.0
2243,F#2,235.5,0.25,120,103.0
2244,C#5,235.5,0.125,127,103.0
2245,A1,235.75,167/1000,90,103.0
2246,F#2,235.75,0.25,120,103.0
2247,A4,235.75,0.125,127,103.0
2248,D2,236.0,0.25,127,103.0
2249,B1,236.0,0.25,127,103.0
2250,E4,236.0,0.125,127,103.0
2251,D3,236.25,167/1000,90,103.0
2252,B4,236.25,0.125,127,103.0
2253,D2,236.5,0.25,127,103.0
2254,D2,236.5,167/1000,90,103.0
2255,E4,236.5,0.125,127,103.0
2256,F#2,236.5,0.25,124,103.0
2257,B1,236.5,0.25,124,103.0
2258,D2,236.75,167/1000,90,103.0
2259,F#2,236.75,0.25,120,103.0
2260,G4,236.75,0.125,127,103.0
2261,D3,237.0,167/1000,90,103.0
2262,E2,237.0,0.25,127,103.0
2263,F#4,237.0,417/1000,127,103.0
2264,D2,237.25,0.25,127,103.0
2265,D3,237.25,167/1000,90,103.0
2266,D5,237.25,167/1000,90,103.0
2267,B-2,237.5,0.25,120,103.0
2268,C#5,237.5,167/1000,90,103.0
2269,E1,237.75,167/1000,90,103.0
2270,B4,237.75,167/1000,90,103.0
2271,F#2,238.0,0.25,124,103.0
2272,B1,238.0,0.25,124,103.0
2273,E3,238.25,167/1000,90,103.0
2274,E1,238.5,0.5,127,103.0
2275,E2,238.5,167/1000,90,103.0
2276,F#2,238.5,0.25,120,103.0
2277,F#2,238.75,0.25,120,103.0
2278,E3,239.0,167/1000,90,103.0
2279,E2,239.0,0.25,127,103.0
2280,A4,239.0,167/1000,90,103.0
2281,E2,239.5,0.5,127,103.0
2282,E2,239.5,167/1000,90,103.0
2283,F#2,239.5,0.25,120,103.0
2284,F#2,239.75,0.25,120,103.0
2285,F#2,240.0,0.5,127,103.0
2286,B1,240.0,0.25,127,103.0
2287,F#3,240.25,167/1000,90,103.0
2288,F#1,240.5,0.75,127,103.0
2289,F#2,240.5,167/1000,90,103.0
2290,F#2,240.5,0.25,120,103.0
2291,F#2,240.75,167/1000,90,103.0
2292,F#2,240.75,0.25,120,103.0
2293,F#3,241.0,167/1000,90,103.0
2294,A2,241.0,0.25,124,103.0
2295,E2,241.0,0.25,124,103.0
2296,F#3,241.25,167/1000,90,103.0
2297,F#1,241.5,21/500,127,103.0
2298,F#2,241.5,0.25,120,103.0
2299,A2,241.75,0.125,127,103.0
2300,F#2,241.75,0.25,120,103.0
2301,D5,241.75,0.125,127,103.0
2302,E5,242.0,0.125,127,103.0
2303,F#2,242.0,0.25,124,103.0
2304,B1,242.0,0.25,124,103.0
2305,A2,242.25,0.25,127,103.0
2306,A3,242.25,167/1000,90,103.0
2307,G4,242.25,0.125,127,103.0
2308,A1,242.5,0.5,127,103.0
2309,A2,242.5,167/1000,90,103.0
2310,F#2,242.5,0.25,120,103.0
2311,B4,242.5,0.125,127,103.0
2312,A2,242.75,167/1000,90,103.0
2313,F#2,242.75,0.25,120,103.0
2314,D5,242.75,0.125,127,103.0
2315,A2,243.0,0.25,127,103.0
2316,A3,243.0,167/1000,90,103.0
2317,E2,243.0,0.25,127,103.0
2318,C#5,243.0,417/1000,127,103.0
2319,A3,243.25,167/1000,90,103.0
2320,A1,243.5,0.25,127,103.0
2321,A1,243.5,167/1000,90,103.0
2322,F#2,243.5,0.25,120,103.0
2323,A4,243.5,0.125,127,103.0
2324,A1,243.75,167/1000,90,103.0
2325,F#2,243.75,0.25,120,103.0
2326,D2,244.0,0.25,127,103.0
2327,B1,244.0,0.25,127,103.0
2328,G4,244.0,0.125,127,103.0
2329,D3,244.25,167/1000,90,103.0
2330,B4,244.25,0.125,127,103.0
2331,D2,244.5,0.25,127,103.0
2332,D2,244.5,167/1000,90,103.0
2333,E4,244.5,0.125,127,103.0
2334,F#2,244.5,0.25,124,103.0
2335,B1,244.5,0.25,124,103.0
2336,D2,244.75,167/1000,90,103.0
2337,F#2,244.75,0.25,120,103.0
2338,G4,244.75,0.125,127,103.0
2339,D3,245.0,167/1000,90,103.0
2340,E2,245.0,0.25,127,103.0
2341,F#4,245.0,417/1000,127,103.0
2342,D2,245.25,0.25,127,103.0
2343,D3,245.25,167/1000,90,103.0
2344,D5,245.25,167/1000,90,103.0
2345,B-2,245.5,0.25,120,103.0
2346,C#5,245.5,167/1000,90,103.0
2347,E1,245.75,167/1000,90,103.0
2348,B4,245.75,167/1000,90,103.0
2349,F#2,246.0,0.25,124,103.0
2350,B1,246.0,0.25,124,103.0
2351,E3,246.25,167/1000,90,103.0
2352,E1,246.5,0.5,127,103.0
2353,E2,246.5,167/1000,90,103.0
2354,F#2,246.5,0.25,120,103.0
2355,F#2,246.75,0.25,120,103.0
2356,E3,247.0,167/1000,90,103.0
2357,E2,247.0,0.25,127,103.0
2358,A4,247.0,167/1000,90,103.0
2359,E2,247.5,0.5,127,103.0
2360,E2,247.5,167/1000,90,103.0
2361,F#2,247.5,0.25,120,103.0
2362,F#2,247.75,0.25,120,103.0
2363,F#2,248.0,0.5,127,103.0
2364,B1,248.0,0.25,127,103.0
2365,F#3,248.25,167/1000,90,103.0
2366,F#1,248.5,0.75,127,103.0
2367,F#2,248.5,167/1000,90,103.0
2368,B2,248.5,0.25,120,103.0
2369,F#2,248.5,0.25,120,103.0
2370,F#2,248.75,167/1000,90,103.0
2371,F#2,248.75,0.25,120,103.0
2372,F#3,249.0,167/1000,90,103.0
2373,E2,249.0,0.25,127,103.0
2374,F#3,249.25,167/1000,90,103.0
2375,A4,249.25,167/1000,127,103.0
2376,F#1,249.5,21/500,127,103.0
2377,F#2,249.5,0.25,120,103.0
2378,A2,249.75,0.125,127,103.0
2379,F#2,249.75,167/1000,90,103.0
2380,F#2,249.75,0.25,120,103.0
2381,A5,249.75,167/1000,127,103.0
2382,F#2,250.0,0.25,124,103.0
2383,B1,250.0,0.25,124,103.0
2384,A2,250.25,0.25,127,103.0
2385,A3,250.25,167/1000,90,103.0
2386,C#5,250.25,417/1000,127,103.0
2387,A1,250.5,0.5,127,103.0
2388,A2,250.5,167/1000,90,103.0
2389,F#2,250.5,0.25,120,103.0
2390,A2,250.75,167/1000,90,103.0
2391,F#2,250.75,0.25,120,103.0
2392,A4,250.75,0.375,127,103.0
2393,A2,251.0,0.25,127,103.0
2394,A3,251.0,167/1000,90,103.0
2395,E2,251.0,0.25,127,103.0
2396,A3,251.25,167/1000,90,103.0
2397,A1,251.5,0.25,127,103.0
2398,A1,251.5,167/1000,90,103.0
2399,F#2,251.5,0.25,120,103.0
2400,A1,251.75,167/1000,90,103.0
2401,F#2,251.75,0.25,120,103.0
2402,D2,252.0,0.25,127,103.0
2403,B1,252.0,0.25,127,103.0
2404,D3,252.25,167/1000,90,103.0
2405,G4,252.25,0.25,127,103.0
2406,D2,252.5,0.25,127,103.0
2407,D2,252.5,167/1000,90,103.0
2408,F#4,252.5,167/1000,127,103.0
2409,F#2,252.5,0.25,124,103.0
2410,B1,252.5,0.25,124,103.0
2411,D2,252.75,167/1000,90,103.0
2412,F#2,252.75,0.25,120,103.0
2413,D4,252.75,333/1000,127,103.0
2414,D3,253.0,167/1000,90,103.0
2415,E2,253.0,0.25,127,103.0
2416,D2,253.25,0.25,127,103.0
2417,D3,253.25,167/1000,90,103.0
2418,E2,253.25,0.25,120,103.0
2419,D5,253.25,167/1000,90,103.0
2420,B-2,253.5,0.25,120,103.0
2421,C#5,253.5,167/1000,90,103.0
2422,E1,253.75,167/1000,90,103.0
2423,B4,253.75,167/1000,90,103.0
2424,F#2,254.0,0.25,124,103.0
2425,B1,254.0,0.25,124,103.0
2426,E3,254.25,167/1000,90,103.0
2427,E1,254.5,0.5,127,103.0
2428,E2,254.5,167/1000,90,103.0
2429,F#2,254.5,0.25,120,103.0
2430,F#2,254.75,0.25,120,103.0
2431,E3,255.0,167/1000,90,103.0
2432,E2,255.0,0.25,127,103.0
2433,A4,255.0,167/1000,90,103.0
2434,E2,255.5,0.5,127,103.0
2435,E2,255.5,167/1000,90,103.0
2436,F#2,255.5,0.25,120,103.0
2437,F#2,255.75,0.25,120,103.0
2438,F#2,256.0,0.5,127,103.0
2439,B1,256.0,0.25,127,103.0
2440,F#3,256.25,167/1000,90,103.0
2441,F#1,256.5,0.75,127,103.0
2442,F#2,256.5,167/1000,90,103.0
2443,B-2,256.5,0.25,120,103.0
2444,F#2,256.75,167/1000,90,103.0
2445,F#2,256.75,0.25,120,103.0
2446,F#3,257.0,167/1000,90,103.0
2447,A2,257.0,0.25,124,103.0
2448,E2,257.0,0.25,124,103.0
2449,F#3,257.25,167/1000,90,103.0
2450,F#1,257.5,21/500,127,103.0
2451,F#2,257.5,0.25,120,103.0
2452,E5,257.5,0.5,127,103.0
2453,A4,257.5,0.5,90,103.0
2454,A2,257.75,0.125,127,103.0
2455,F#2,257.75,0.25,120,103.0
2456,A2,258.0,167/1000,90,103.0
2457,D5,258.0,0.25,127,103.0
2458,F#2,258.0,0.25,124,103.0
2459,B1,258.0,0.25,124,103.0
2460,D4,258.0,0.25,90,103.0
2461,G4,258.0,0.25,90,103.0
2462,A2,258.25,0.25,127,103.0
2463,A3,258.25,167/1000,90,103.0
2464,E5,258.25,0.25,127,103.0
2465,E4,258.25,0.25,90,103.0
2466,B4,258.25,0.25,90,103.0
2467,F#2,258.5,0.25,120,103.0
2468,G5,258.5,0.25,127,103.0
2469,G4,258.5,0.5,90,103.0
2470,D5,258.5,0.25,90,103.0
2471,A1,258.75,0.25,127,103.0
2472,A2,258.75,167/1000,90,103.0
2473,A5,258.75,0.25,127,103.0
2474,E2,258.75,0.25,124,103.0
2475,F#2,258.75,0.25,124,103.0
2476,A4,258.75,0.25,90,103.0
2477,E5,258.75,0.25,90,103.0
2478,B1,259.25,0.25,127,103.0
2479,B2,259.25,167/1000,90,103.0
2480,E2,259.25,0.25,127,103.0
2481,G5,259.25,0.25,127,103.0
2482,G4,259.25,0.25,90,103.0
2483,E5,259.25,0.25,90,103.0
2484,D2,259.5,0.25,127,103.0
2485,D3,259.5,167/1000,90,103.0
2486,A5,259.5,0.5,127,103.0
2487,E2,259.5,0.25,124,103.0
2488,F#2,259.5,0.25,124,103.0
2489,F#4,259.5,0.5,90,103.0
2490,F#5,259.5,0.5,90,103.0
2491,E2,260.25,0.25,127,103.0
2492,B1,260.5,0.25,127,103.0
2493,B1,260.75,0.25,127,103.0
2494,B1,261.0,0.25,127,103.0
2495,E2,261.25,0.25,127,103.0
2496,B1,261.5,0.25,124,103.0
2497,B-2,261.5,0.25,124,103.0
2498,E2,261.75,0.25,127,103.0
2499,E2,262.25,0.25,127,103.0
2500,E2,262.5,0.25,127,103.0
2501,G#4,262.5,1.25,127,103.0
2502,D5,263.25,167/1000,127,103.0
2503,D5,263.25,167/1000,90,103.0
2504,C#5,263.5,167/1000,127,103.0
2505,C#5,263.5,167/1000,90,103.0
2506,B4,263.75,167/1000,127,103.0
2507,B4,263.75,167/1000,90,103.0
2508,C#3,263.75,0.25,127,103.0
2509,E2,263.75,0.25,127,103.0
2510,F#2,264.0,0.25,124,103.0
2511,B1,264.0,0.25,124,103.0
2512,A3,264.25,167/1000,90,103.0
2513,D4,264.25,167/1000,90,103.0
2514,E1,264.5,0.5,127,103.0
2515,F#2,264.5,0.25,120,103.0
2516,E2,264.75,167/1000,90,103.0
2517,F#2,264.75,0.25,120,103.0
2518,E2,265.0,0.25,127,103.0
2519,A4,265.0,167/1000,127,103.0
2520,A4,265.0,167/1000,90,103.0
2521,A3,265.0,167/1000,90,103.0
2522,D4,265.0,167/1000,90,103.0
2523,D4,265.25,167/1000,90,103.0
2524,A3,265.25,167/1000,90,103.0
2525,E1,265.5,0.5,127,103.0
2526,F#2,265.5,0.25,120,103.0
2527,F#2,265.75,0.25,120,103.0
2528,B1,266.0,0.25,127,103.0
2529,G#4,266.0,167/1000,127,103.0
2530,G#4,266.0,167/1000,90,103.0
2531,D4,266.25,167/1000,90,103.0
2532,A3,266.25,167/1000,90,103.0
2533,E1,266.5,0.5,127,103.0
2534,F#2,266.5,0.25,120,103.0
2535,F#2,266.75,0.25,120,103.0
2536,E2,267.0,0.25,127,103.0
2537,E2,267.25,0.25,127,103.0
2538,B4,267.25,167/1000,127,103.0
2539,B4,267.25,167/1000,90,103.0
2540,F#2,267.5,0.25,120,103.0
2541,A3,267.5,167/1000,90,103.0
2542,D4,267.5,167/1000,90,103.0
2543,G2,267.75,0.25,127,103.0
2544,F#2,267.75,0.25,120,103.0
2545,F#4,267.75,167/1000,127,103.0
2546,F#4,267.75,167/1000,90,103.0
2547,A3,267.75,167/1000,90,103.0
2548,D4,267.75,167/1000,90,103.0
2549,F#2,268.0,0.25,124,103.0
2550,B1,268.0,0.25,124,103.0
2551,D3,268.25,167/1000,90,103.0
2552,E1,268.5,0.5,127,103.0
2553,F#2,268.5,0.25,120,103.0
2554,B2,268.75,167/1000,90,103.0
2555,F#2,268.75,0.25,120,103.0
2556,E2,269.0,0.25,127,103.0
2557,D3,269.25,167/1000,90,103.0
2558,E1,269.5,0.5,127,103.0
2559,F#2,269.5,0.25,120,103.0
2560,B2,269.75,167/1000,90,103.0
2561,F#2,269.75,0.25,120,103.0
2562,D3,270.0,167/1000,90,103.0
2563,B1,270.0,0.25,127,103.0
2564,A2,270.5,0.5,127,103.0
2565,D3,270.5,167/1000,90,103.0
2566,F#2,270.5,0.25,124,103.0
2567,B1,270.5,0.25,124,103.0
2568,F#2,270.75,0.25,120,103.0
2569,G2,271.0,0.25,127,103.0
2570,D3,271.0,167/1000,90,103.0
2571,E2,271.0,0.25,127,103.0
2572,E3,271.25,167/1000,90,103.0
2573,D2,271.5,0.25,127,103.0
2574,B-2,271.5,0.25,120,103.0
2575,E2,271.75,0.25,127,103.0
2576,E2,271.75,167/1000,90,103.0
2577,F#2,272.0,0.25,124,103.0
2578,B1,272.0,0.25,124,103.0
2579,F5,272.25,1.75,110,103.0
2580,A3,272.25,167/1000,90,103.0
2581,D4,272.25,167/1000,90,103.0
2582,E1,272.5,0.5,127,103.0
2583,F#2,272.5,0.25,120,103.0
2584,B2,272.75,167/1000,90,103.0
2585,F#2,272.75,0.25,120,103.0
2586,E2,273.0,0.25,127,103.0
2587,A3,273.0,167/1000,90,103.0
2588,D4,273.0,167/1000,90,103.0
2589,A3,273.25,167/1000,90,103.0
2590,D4,273.25,167/1000,90,103.0
2591,E1,273.5,0.5,127,103.0
2592,F#2,273.5,0.25,120,103.0
2593,B2,273.75,167/1000,90,103.0
2594,F#2,273.75,0.25,120,103.0
2595,B1,274.0,0.25,127,103.0
2596,F5,274.0,0.5,110,103.0
2597,A3,274.0,167/1000,90,103.0
2598,D4,274.0,167/1000,90,103.0
2599,E1,274.5,0.5,127,103.0
2600,F#2,274.5,0.25,120,103.0
2601,E5,274.5,0.25,110,103.0
2602,A3,274.5,167/1000,90,103.0
2603,D4,274.5,167/1000,90,103.0
2604,F#2,274.75,0.25,120,103.0
2605,E2,275.0,0.25,127,103.0
2606,A3,275.0,167/1000,90,103.0
2607,D4,275.0,167/1000,90,103.0
2608,E2,275.25,0.25,127,103.0
2609,B3,275.25,167/1000,90,103.0
2610,E4,275.25,167/1000,90,103.0
2611,F#2,275.5,0.25,120,103.0
2612,G2,275.75,0.25,127,103.0
2613,E2,275.75,167/1000,90,103.0
2614,F#2,275.75,0.25,120,103.0
2615,F#2,276.0,0.25,124,103.0
2616,B1,276.0,0.25,124,103.0
2617,B2,276.25,167/1000,90,103.0
2618,E5,276.25,0.25,110,103.0
2619,E1,276.5,0.5,127,103.0
2620,F#2,276.5,0.25,120,103.0
2621,D5,276.5,0.25,110,103.0
2622,E3,276.75,167/1000,90,103.0
2623,F#2,276.75,0.25,120,103.0
2624,E5,276.75,1.25,110,103.0
2625,E2,277.0,0.25,127,103.0
2626,F#3,277.25,0.5,90,103.0
2627,E1,277.5,0.5,127,103.0
2628,F#2,277.5,0.25,120,103.0
2629,E3,277.75,167/1000,90,103.0
2630,F#2,277.75,0.25,120,103.0
2631,D3,278.0,167/1000,90,103.0
2632,B1,278.0,0.25,127,103.0
2633,E5,278.0,1.0,110,103.0
2634,B1,278.25,21/500,127,103.0
2635,A1,278.5,0.5,127,103.0
2636,D3,278.5,167/1000,90,103.0
2637,F#2,278.5,0.25,124,103.0
2638,B1,278.5,0.25,124,103.0
2639,F#2,278.75,0.25,120,103.0
2640,B1,279.0,0.5,127,103.0
2641,D3,279.0,167/1000,90,103.0
2642,E2,279.0,0.25,127,103.0
2643,E3,279.25,167/1000,90,103.0
2644,D5,279.25,167/1000,127,103.0
2645,D5,279.25,167/1000,90,103.0
2646,D2,279.5,0.25,127,103.0
2647,B-2,279.5,0.25,120,103.0
2648,C#5,279.5,167/1000,127,103.0
2649,C#5,279.5,167/1000,90,103.0
2650,E2,279.75,0.25,127,103.0
2651,E2,279.75,167/1000,90,103.0
2652,B4,279.75,167/1000,127,103.0
2653,B4,279.75,167/1000,90,103.0
2654,F#2,280.0,0.25,122,103.0
2655,C#3,280.0,0.25,122,103.0
2656,B1,280.0,0.25,122,103.0
2657,A3,280.25,167/1000,90,103.0
2658,D4,280.25,167/1000,90,103.0
2659,E1,280.5,0.5,127,103.0
2660,F#2,280.5,0.25,120,103.0
2661,E2,280.75,167/1000,90,103.0
2662,F#2,280.75,0.25,120,103.0
2663,E2,281.0,0.25,127,103.0
2664,A4,281.0,167/1000,127,103.0
2665,A4,281.0,167/1000,90,103.0
2666,A3,281.0,167/1000,90,103.0
2667,D4,281.0,167/1000,90,103.0
2668,A3,281.25,167/1000,90,103.0
2669,D4,281.25,167/1000,90,103.0
2670,E1,281.5,0.5,127,103.0
2671,F#2,281.5,0.25,120,103.0
2672,B2,281.75,167/1000,90,103.0
2673,F#2,281.75,0.25,120,103.0
2674,B1,282.0,0.25,127,103.0
2675,G#4,282.0,167/1000,127,103.0
2676,G#4,282.0,167/1000,90,103.0
2677,D4,282.25,167/1000,90,103.0
2678,A3,282.25,167/1000,90,103.0
2679,E1,282.5,0.5,127,103.0
2680,F#2,282.5,0.25,120,103.0
2681,F#2,282.75,0.25,120,103.0
2682,E2,283.0,0.25,127,103.0
2683,E2,283.25,0.25,127,103.0
2684,F#2,283.5,0.25,120,103.0
2685,D4,283.5,167/1000,90,103.0
2686,A3,283.5,167/1000,90,103.0
2687,G2,283.75,0.25,127,103.0
2688,B4,283.75,167/1000,127,103.0
2689,B4,283.75,167/1000,90,103.0
2690,A3,283.75,167/1000,90,103.0
2691,D4,283.75,167/1000,90,103.0
2692,B-2,283.75,0.25,124,103.0
2693,B1,283.75,0.25,124,103.0
2694,F#2,284.0,0.25,120,103.0
2695,D3,284.25,167/1000,90,103.0
2696,F#4,284.25,167/1000,127,103.0
2697,F#4,284.25,167/1000,90,103.0
2698,B1,284.25,0.25,124,103.0
2699,B-2,284.25,0.25,124,103.0
2700,E1,284.5,0.5,127,103.0
2701,F#2,284.5,0.25,120,103.0
2702,B2,284.75,167/1000,90,103.0
2703,F#2,284.75,0.25,120,103.0
2704,E2,285.0,0.25,127,103.0
2705,D3,285.25,167/1000,90,103.0
2706,E1,285.5,0.5,127,103.0
2707,F#2,285.5,0.25,120,103.0
2708,B2,285.75,167/1000,90,103.0
2709,F#2,285.75,0.25,120,103.0
2710,D3,286.0,167/1000,90,103.0
2711,B1,286.0,0.25,127,103.0
2712,A2,286.5,0.5,127,103.0
2713,D3,286.5,167/1000,90,103.0
2714,F#2,286.5,0.25,124,103.0
2715,B1,286.5,0.25,124,103.0
2716,F#2,286.75,0.25,120,103.0
2717,G2,287.0,0.25,127,103.0
2718,D3,287.0,167/1000,90,103.0
2719,E2,287.0,0.25,127,103.0
2720,E3,287.25,167/1000,90,103.0
2721,D4,287.25,0.25,110,103.0
2722,D2,287.5,0.25,127,103.0
2723,B-2,287.5,0.25,120,103.0
2724,E2,287.75,0.25,127,103.0
2725,E2,287.75,167/1000,90,103.0
2726,E4,287.75,2.25,110,103.0
2727,F#2,288.0,0.25,124,103.0
2728,B1,288.0,0.25,124,103.0
2729,A3,288.25,167/1000,90,103.0
2730,D4,288.25,167/1000,90,103.0
2731,E1,288.5,0.5,127,103.0
2732,F#2,288.5,0.25,120,103.0
2733,B2,288.75,167/1000,90,103.0
2734,F#2,288.75,0.25,120,103.0
2735,E2,289.0,0.25,127,103.0
2736,A3,289.0,167/1000,90,103.0
2737,D4,289.0,167/1000,90,103.0
2738,A3,289.25,167/1000,90,103.0
2739,D4,289.25,167/1000,90,103.0
2740,E1,289.5,0.5,127,103.0
2741,F#2,289.5,0.25,120,103.0
2742,B2,289.75,167/1000,90,103.0
2743,F#2,289.75,0.25,120,103.0
2744,B1,290.0,0.25,127,103.0
2745,E4,290.0,0.25,110,103.0
2746,A3,290.0,167/1000,90,103.0
2747,D4,290.0,167/1000,90,103.0
2748,E1,290.5,0.5,127,103.0
2749,F#2,290.5,0.25,120,103.0
2750,A3,290.5,167/1000,90,103.0
2751,D4,290.5,167/1000,90,103.0
2752,F#2,290.75,0.25,120,103.0
2753,E2,291.0,0.25,127,103.0
2754,A3,291.0,167/1000,90,103.0
2755,D4,291.0,167/1000,90,103.0
2756,E2,291.25,0.25,127,103.0
2757,B3,291.25,167/1000,90,103.0
2758,E4,291.25,167/1000,90,103.0
2759,F#2,291.5,0.25,120,103.0
2760,G2,291.75,0.25,127,103.0
2761,E2,291.75,167/1000,90,103.0
2762,F#2,291.75,0.25,120,103.0
2763,F#2,292.0,0.25,124,103.0
2764,B1,292.0,0.25,124,103.0
2765,E1,292.25,0.25,127,103.0
2766,B2,292.25,0.25,90,103.0
2767,F#2,292.5,0.25,120,103.0
2768,D2,292.75,0.25,127,103.0
2769,D3,292.75,0.25,90,103.0
2770,F#2,292.75,0.25,120,103.0
2771,E2,293.0,0.25,127,103.0
2772,E1,293.25,0.25,127,103.0
2773,B2,293.25,0.25,90,103.0
2774,E1,293.5,0.25,127,103.0
2775,E3,293.5,0.25,90,103.0
2776,F#2,293.5,0.25,120,103.0
2777,F#2,293.75,0.25,120,103.0
2778,A3,294.0,0.75,110,103.0
2779,A3,294.0,0.75,90,103.0
2780,B3,294.75,0.5,110,103.0
2781,B3,294.75,0.5,90,103.0
2782,D4,295.25,0.25,110,103.0
2783,D4,295.25,0.25,90,103.0
2784,C#3,295.75,0.25,120,103.0
2785,D4,295.75,2.0,110,103.0
2786,D4,295.75,2.0,90,103.0
2787,G#3,296.0,1.0,110,103.0
2788,A1,296.25,0.75,127,103.0
2789,A4,296.25,0.25,90,103.0
2790,B1,296.25,0.25,127,103.0
2791,B4,296.5,0.25,90,103.0
2792,F#2,296.5,0.25,90,103.0
2793,E5,296.75,0.25,90,103.0
2794,G5,297.0,0.25,90,103.0
2795,E-3,297.0,1.0,115,103.0
2796,G#3,297.0,1.0,115,103.0
2797,A1,297.25,0.25,127,103.0
2798,D6,297.25,0.25,90,103.0
2799,B1,297.25,0.25,127,103.0
2800,A2,297.5,0.25,127,103.0
2801,B5,297.5,0.25,90,103.0
2802,E2,297.5,0.25,108,103.0
2803,F#2,297.5,0.25,108,103.0
2804,A5,297.75,0.25,90,103.0
2805,F#2,297.75,0.25,90,103.0
2806,G5,298.0,0.25,90,103.0
2807,B3,298.0,0.75,110,103.0
2808,B3,298.0,0.75,90,103.0
2809,E-3,298.0,1.0,115,103.0
2810,G#3,298.0,1.0,115,103.0
2811,E5,298.25,0.25,90,103.0
2812,A1,298.5,0.25,127,103.0
2813,D5,298.5,0.25,90,103.0
2814,B1,298.5,0.25,108,103.0
2815,F#2,298.5,0.25,108,103.0
2816,B4,298.75,0.25,90,103.0
2817,D4,298.75,0.75,110,103.0
2818,D4,298.75,0.75,90,103.0
2819,A2,299.0,0.25,127,103.0
2820,E4,299.0,0.25,90,103.0
2821,E2,299.0,0.25,127,103.0
2822,E-3,299.0,1.0,115,103.0
2823,G#3,299.0,1.0,115,103.0
2824,A1,299.25,0.25,127,103.0
2825,B1,299.25,0.25,127,103.0
2826,E4,299.25,0.25,110,103.0
2827,E4,299.25,0.25,90,103.0
2828,F#2,299.5,0.25,90,103.0
2829,F#2,299.75,0.25,90,103.0
2830,E4,299.75,0.75,110,103.0
2831,E4,299.75,0.75,90,103.0
2832,E-3,300.0,1.0,115,103.0
2833,G#3,300.0,1.0,115,103.0
2834,A4,300.25,0.25,90,103.0
2835,B4,300.5,0.25,90,103.0
2836,F#2,300.5,0.25,90,103.0
2837,F#4,300.5,1.5,110,103.0
2838,F#4,300.5,1.5,90,103.0
2839,B1,300.75,0.25,127,103.0
2840,D5,300.75,0.25,90,103.0
2841,B1,300.75,0.25,127,103.0
2842,B2,301.0,0.25,127,103.0
2843,F#5,301.0,0.25,90,103.0
2844,E2,301.0,0.25,127,103.0
2845,E-3,301.0,1.0,115,103.0
2846,G#3,301.0,1.0,115,103.0
2847,B1,301.25,0.25,127,103.0
2848,E6,301.25,0.25,90,103.0
2849,B1,301.25,0.25,127,103.0
2850,B1,301.5,0.25,127,103.0
2851,C#6,301.5,0.25,90,103.0
2852,B1,301.5,0.25,108,103.0
2853,F#2,301.5,0.25,108,103.0
2854,A5,301.75,0.25,90,103.0
2855,F#2,301.75,0.25,90,103.0
2856,F#5,302.0,0.25,90,103.0
2857,D4,302.0,0.75,110,103.0
2858,D4,302.0,0.75,90,103.0
2859,E-3,302.0,1.0,115,103.0
2860,G#3,302.0,1.0,115,103.0
2861,D5,302.25,0.25,90,103.0
2862,B1,302.5,0.25,127,103.0
2863,A4,302.5,0.25,90,103.0
2864,B1,302.5,0.25,108,103.0
2865,F#2,302.5,0.25,108,103.0
2866,F#4,302.75,0.25,90,103.0
2867,F#4,302.75,0.25,110,103.0
2868,F#4,302.75,0.25,90,103.0
2869,D4,303.0,0.25,90,103.0
2870,E2,303.0,0.25,127,103.0
2871,E-3,303.0,1.0,115,103.0
2872,G#3,303.0,1.0,115,103.0
2873,B1,303.25,0.25,127,103.0
2874,A4,303.25,2.5,110,103.0
2875,A4,303.25,2.5,90,103.0
2876,F#2,303.5,0.25,90,103.0
2877,F#2,303.75,0.25,90,103.0
2878,E-3,304.0,1.0,115,103.0
2879,G#3,304.0,1.0,115,103.0
2880,G4,304.25,0.25,90,103.0
2881,B4,304.5,0.25,90,103.0
2882,F#2,304.5,0.25,90,103.0
2883,C#2,304.75,0.25,127,103.0
2884,E5,304.75,0.25,90,103.0
2885,B1,304.75,0.25,127,103.0
2886,C#3,305.0,0.25,127,103.0
2887,A5,305.0,0.25,90,103.0
2888,E2,305.0,0.25,127,103.0
2889,E-3,305.0,1.0,115,103.0
2890,G#3,305.0,1.0,115,103.0
2891,C#2,305.25,0.25,127,103.0
2892,E6,305.25,0.25,90,103.0
2893,B1,305.25,0.25,127,103.0
2894,C#2,305.5,0.25,127,103.0
2895,C#6,305.5,0.25,90,103.0
2896,B1,305.5,0.25,108,103.0
2897,F#2,305.5,0.25,108,103.0
2898,B5,305.75,0.25,90,103.0
2899,F#2,305.75,0.25,90,103.0
2900,A5,306.0,0.25,90,103.0
2901,E4,306.0,1.0,110,103.0
2902,E4,306.0,1.0,90,103.0
2903,E-3,306.0,1.0,115,103.0
2904,G#3,306.0,1.0,115,103.0
2905,E5,306.25,0.25,90,103.0
2906,C#2,306.5,0.25,127,103.0
2907,B4,306.5,0.25,90,103.0
2908,B1,306.5,0.25,108,103.0
2909,F#2,306.5,0.25,108,103.0
2910,G4,306.75,0.25,90,103.0
2911,E4,307.0,0.25,90,103.0
2912,E2,307.0,0.25,127,103.0
2913,G4,307.0,0.5,110,103.0
2914,G4,307.0,0.5,90,103.0
2915,E-3,307.0,1.0,115,103.0
2916,G#3,307.0,1.0,115,103.0
2917,C#2,307.25,0.25,127,103.0
2918,B1,307.25,0.25,127,103.0
2919,F#2,307.5,0.25,90,103.0
2920,E4,307.5,0.25,110,103.0
2921,E4,307.5,0.25,90,103.0
2922,F#2,307.75,0.25,90,103.0
2923,G4,307.75,0.75,110,103.0
2924,G4,307.75,0.75,90,103.0
2925,E-3,308.0,1.0,115,103.0
2926,G#3,308.0,1.0,115,103.0
2927,F#6,308.5,0.25,90,103.0
2928,F#2,308.5,0.25,90,103.0
2929,A4,308.5,0.25,110,103.0
2930,A4,308.5,0.25,90,103.0
2931,D2,308.75,0.25,127,103.0
2932,D6,308.75,0.25,90,103.0
2933,B1,308.75,0.25,127,103.0
2934,D3,309.0,0.75,127,103.0
2935,A5,309.0,0.25,90,103.0
2936,C#3,309.0,0.25,120,103.0
2937,F#4,309.0,0.5,110,103.0
2938,F#4,309.0,0.5,90,103.0
2939,G#3,309.0,1.0,118,103.0
2940,E2,309.0,1.0,118,103.0
2941,F#5,309.25,0.25,90,103.0
2942,E5,309.5,0.25,90,103.0
2943,F#2,309.5,0.25,90,103.0
2944,D5,309.75,0.25,90,103.0
2945,F#2,309.75,0.25,90,103.0
2946,E1,310.0,1.5,120,103.0
2947,A4,310.0,0.25,90,103.0
2948,G#3,310.0,1.0,110,103.0
2949,A3,310.0,0.75,110,103.0
2950,A3,310.0,0.75,90,103.0
2951,B1,310.0,0.25,127,103.0
2952,G3,310.0,0.25,127,103.0
2953,B1,310.5,0.25,108,103.0
2954,F#2,310.5,0.25,108,103.0
2955,B3,310.75,0.5,110,103.0
2956,B3,310.75,0.5,90,103.0
2957,E2,311.0,0.25,127,103.0
2958,E-3,311.0,1.0,115,103.0
2959,G#3,311.0,1.0,115,103.0
2960,D4,311.25,0.25,110,103.0
2961,D4,311.25,0.25,90,103.0
2962,F#2,311.5,0.25,90,103.0
2963,F#2,311.75,0.25,90,103.0
2964,D4,311.75,2.0,110,103.0
2965,D4,311.75,2.0,90,103.0
2966,E-3,312.0,1.0,115,103.0
2967,G#3,312.0,1.0,115,103.0
2968,A1,312.25,0.75,127,103.0
2969,A4,312.25,0.25,90,103.0
2970,B1,312.25,0.25,127,103.0
2971,B4,312.5,0.25,90,103.0
2972,F#2,312.5,0.25,90,103.0
2973,E5,312.75,0.25,90,103.0
2974,G5,313.0,0.25,90,103.0
2975,E-3,313.0,1.0,115,103.0
2976,G#3,313.0,1.0,115,103.0
2977,A1,313.25,0.25,127,103.0
2978,D6,313.25,0.25,90,103.0
2979,B1,313.25,0.25,127,103.0
2980,A2,313.5,0.25,127,103.0
2981,B5,313.5,0.25,90,103.0
2982,C#3,313.5,0.25,112,103.0
2983,E2,313.5,0.25,112,103.0
2984,F#2,313.5,0.25,112,103.0
2985,A5,313.75,0.25,90,103.0
2986,F#2,313.75,0.25,90,103.0
2987,G5,314.0,0.25,90,103.0
2988,B3,314.0,0.75,110,103.0
2989,B3,314.0,0.75,90,103.0
2990,E-3,314.0,1.0,115,103.0
2991,G#3,314.0,1.0,115,103.0
2992,E5,314.25,0.25,90,103.0
2993,A1,314.5,0.25,127,103.0
2994,B4,314.5,0.25,90,103.0
2995,B1,314.5,0.25,108,103.0
2996,F#2,314.5,0.25,108,103.0
2997,G4,314.75,0.25,90,103.0
2998,D4,314.75,0.75,110,103.0
2999,D4,314.75,0.75,90,103.0
3000,A2,315.0,0.25,127,103.0
3001,E4,315.0,0.25,90,103.0
3002,E2,315.0,0.25,127,103.0
3003,E-3,315.0,1.0,115,103.0
3004,G#3,315.0,1.0,115,103.0
3005,A1,315.25,0.25,127,103.0
3006,B1,315.25,0.25,127,103.0
3007,E4,315.25,0.25,110,103.0
3008,E4,315.25,0.25,90,103.0
3009,F#2,315.5,0.25,90,103.0
3010,F#2,315.75,0.25,90,103.0
3011,E4,315.75,0.75,110,103.0
3012,E4,315.75,0.75,90,103.0
3013,E-3,316.0,1.0,115,103.0
3014,G#3,316.0,1.0,115,103.0
3015,F#4,316.25,0.25,90,103.0
3016,C#5,316.5,0.25,90,103.0
3017,F#2,316.5,0.25,90,103.0
3018,F#4,316.5,1.5,110,103.0
3019,A4,316.5,0.25,90,103.0
3020,B1,316.75,0.25,127,103.0
3021,D5,316.75,0.25,90,103.0
3022,B1,316.75,0.25,127,103.0
3023,B2,317.0,0.25,127,103.0
3024,F#5,317.0,0.25,90,103.0
3025,E2,317.0,0.25,127,103.0
3026,F#4,317.0,1.0,90,103.0
3027,E-3,317.0,1.0,115,103.0
3028,G#3,317.0,1.0,115,103.0
3029,B1,317.25,0.25,127,103.0
3030,E-6,317.25,0.25,90,103.0
3031,B1,317.25,0.25,127,103.0
3032,B1,317.5,0.25,127,103.0
3033,C#6,317.5,0.25,90,103.0
3034,B1,317.5,0.25,108,103.0
3035,F#2,317.5,0.25,108,103.0
3036,B-5,317.75,0.25,90,103.0
3037,F#2,317.75,0.25,90,103.0
3038,G#5,318.0,0.25,90,103.0
3039,E-4,318.0,0.75,120,103.0
3040,E-4,318.0,0.75,90,103.0
3041,E-3,318.0,1.0,115,103.0
3042,G#3,318.0,1.0,115,103.0
3043,F#5,318.25,0.25,90,103.0
3044,B1,318.5,0.25,127,103.0
3045,E-5,318.5,0.25,90,103.0
3046,B1,318.5,0.25,108,103.0
3047,F#2,318.5,0.25,108,103.0
3048,B4,318.75,0.25,90,103.0
3049,F#4,318.75,0.25,120,103.0
3050,F#4,318.75,0.25,90,103.0
3051,E2,319.0,0.25,127,103.0
3052,E-3,319.0,1.0,115,103.0
3053,G#3,319.0,1.0,115,103.0
3054,B1,319.25,0.25,127,103.0
3055,B4,319.25,2.5,120,103.0
3056,B4,319.25,2.5,90,103.0
3057,F#2,319.5,0.25,90,103.0
3058,F#2,319.75,0.25,90,103.0
3059,E-3,320.0,1.0,115,103.0
3060,G#3,320.0,1.0,115,103.0
3061,B4,320.25,0.25,90,103.0
3062,E5,320.5,0.25,90,103.0
3063,F#2,320.5,0.25,90,103.0
3064,A1,320.75,0.25,127,103.0
3065,G5,320.75,0.25,90,103.0
3066,B1,320.75,0.25,127,103.0
3067,A2,321.0,0.25,127,103.0
3068,B5,321.0,0.25,90,103.0
3069,E2,321.0,0.25,127,103.0
3070,E-3,321.0,1.0,115,103.0
3071,G#3,321.0,1.0,115,103.0
3072,A1,321.25,0.25,127,103.0
3073,G6,321.25,0.25,90,103.0
3074,B1,321.25,0.25,127,103.0
3075,A1,321.5,0.25,127,103.0
3076,E6,321.5,0.25,90,103.0
3077,B1,321.5,0.25,108,103.0
3078,F#2,321.5,0.25,108,103.0
3079,D6,321.75,0.25,90,103.0
3080,F#2,321.75,0.25,90,103.0
3081,B5,322.0,0.25,90,103.0
3082,E4,322.0,0.75,120,103.0
3083,E4,322.0,0.75,90,103.0
3084,E-3,322.0,1.0,115,103.0
3085,G#3,322.0,1.0,115,103.0
3086,G5,322.25,0.25,90,103.0
3087,A1,322.5,0.25,127,103.0
3088,E5,322.5,0.25,90,103.0
3089,B1,322.5,0.25,108,103.0
3090,F#2,322.5,0.25,108,103.0
3091,B4,322.75,0.25,90,103.0
3092,G4,322.75,0.25,120,103.0
3093,G4,322.75,0.25,90,103.0
3094,A4,323.0,0.25,90,103.0
3095,E2,323.0,0.25,127,103.0
3096,E-3,323.0,1.0,115,103.0
3097,G#3,323.0,1.0,115,103.0
3098,D2,323.25,0.25,127,103.0
3099,G4,323.25,0.25,90,103.0
3100,A4,323.25,2.75,120,103.0
3101,D5,323.25,2.75,90,103.0
3102,G3,323.25,0.25,124,103.0
3103,B1,323.25,0.25,124,103.0
3104,F#2,323.5,0.25,90,103.0
3105,D2,323.75,2.25,127,103.0
3106,C#3,323.75,0.25,105,103.0
3107,F#2,323.75,0.25,105,103.0
3108,G#3,324.0,1.0,110,103.0
3109,G5,324.25,0.25,90,103.0
3110,B5,324.5,0.25,90,103.0
3111,F#2,324.5,0.25,90,103.0
3112,E6,324.75,0.25,90,103.0
3113,B1,324.75,0.25,127,103.0
3114,G6,325.0,0.25,90,103.0
3115,D3,325.0,1.0,127,103.0
3116,F#2,325.0,0.25,108,103.0
3117,B2,325.0,0.25,108,103.0
3118,A6,325.25,0.25,90,103.0
3119,B6,325.5,0.5,90,103.0
3120,F#2,325.5,0.25,90,103.0
3121,F#2,325.75,0.25,90,103.0
3122,D2,326.0,2.75,127,103.0
3123,B6,326.0,3.5,90,103.0
3124,F#2,326.0,0.25,90,103.0
3125,A4,326.0,2.5,120,103.0
3126,D5,326.0,2.5,90,103.0
3127,B2,326.5,0.25,105,103.0
3128,F#2,326.5,0.25,105,103.0
3129,F#2,327.0,0.25,90,103.0
3130,A2,327.25,0.25,120,103.0
3131,F#2,327.5,0.25,90,103.0
3132,C2,327.75,0.25,105,103.0
3133,F#2,327.75,0.25,105,103.0
3134,G2,328.0,0.25,120,103.0
3135,D3,329.0,0.25,127,103.0
3136,E2,329.0,0.25,120,103.0
3137,D5,329.0,0.25,80,103.0
3138,G5,329.0,0.25,80,103.0
3139,D5,329.0,0.25,90,103.0
3140,G5,329.0,0.25,90,103.0
3141,B2,329.5,0.25,127,103.0
3142,E2,329.5,0.25,120,103.0
3143,D5,329.5,0.25,80,103.0
3144,G5,329.5,0.25,80,103.0
3145,D5,329.5,0.25,90,103.0
3146,G5,329.5,0.25,90,103.0
3147,A2,330.0,0.25,127,103.0
3148,E2,330.0,0.25,120,103.0
3149,D5,330.0,0.25,80,103.0
3150,G5,330.0,0.25,80,103.0
3151,D5,330.0,0.25,90,103.0
3152,G5,330.0,0.25,90,103.0
3153,G2,330.5,0.25,127,103.0
3154,E2,330.5,0.25,120,103.0
3155,D5,330.5,0.25,80,103.0
3156,G5,330.5,0.25,80,103.0
3157,D5,330.5,0.25,90,103.0
3158,G5,330.5,0.25,90,103.0
3159,D2,331.0,0.25,127,103.0
3160,E2,331.0,0.25,120,103.0
3161,D5,331.0,0.25,80,103.0
3162,G5,331.0,0.25,80,103.0
3163,D5,331.0,0.25,90,103.0
3164,G5,331.0,0.25,90,103.0
3165,G1,331.5,0.25,127,103.0
3166,E2,331.5,0.25,120,103.0
3167,D5,331.5,0.25,80,103.0
3168,G5,331.5,0.25,80,103.0
3169,D5,331.5,0.25,90,103.0
3170,G5,331.5,0.25,90,103.0
3171,E1,331.75,0.25,127,103.0
3172,B4,331.75,0.25,80,103.0
3173,E5,331.75,0.25,80,103.0
3174,C#3,331.75,0.25,120,103.0
3175,E2,331.75,0.25,120,103.0
3176,E5,331.75,0.25,90,103.0
3177,B4,331.75,0.25,90,103.0
3178,E1,332.0,0.25,127,103.0
3179,E5,332.0,0.25,90,103.0
3180,B4,332.0,0.25,90,103.0
3181,F#2,336.5,0.25,90,103.0
3182,F#2,337.5,0.25,90,103.0
3183,F#2,337.75,0.25,90,103.0
3184,F#2,338.5,0.25,90,103.0
3185,F#2,339.5,0.25,90,103.0
3186,F#2,339.75,0.25,90,103.0
