,note_name,start_time,duration,velocity,tempo
0,C2,8.0,0.062,108,120.0
1,A4,8.0,0.062,108,120.0
2,B-4,8.5,0.062,92,120.0
3,D2,9.0,0.062,127,120.0
4,B-4,9.5,0.062,91,120.0
5,C2,10.0,0.062,108,120.0
6,A4,10.0,0.062,108,120.0
7,B-4,10.5,0.062,92,120.0
8,D2,11.0,0.062,127,120.0
9,B-4,11.5,0.062,90,120.0
10,C2,12.0,0.062,107,120.0
11,A4,12.0,0.062,107,120.0
12,C#2,12.5,0.062,90,120.0
13,B-4,12.5,0.062,90,120.0
14,D2,13.0,0.062,127,120.0
15,B-4,13.5,0.062,91,120.0
16,C2,14.0,0.062,100,120.0
17,C#2,14.0,0.062,100,120.0
18,A4,14.0,0.062,100,120.0
19,D1,14.5,1.031,107,120.0
20,B-4,14.5,0.062,92,120.0
21,D2,15.0,0.062,127,120.0
22,E-1,15.5,0.5,90,120.0
23,B-4,15.5,0.062,91,120.0
24,G3,15.927,73/1000,94,120.0
25,E4,15.927,73/1000,94,120.0
26,B3,15.927,73/1000,94,120.0
27,G3,16.0,4.0,94,120.0
28,E4,16.0,4.0,94,120.0
29,B3,16.0,4.0,94,120.0
30,C2,16.0,0.062,108,120.0
31,A4,16.0,0.062,108,120.0
32,D1,16.01,271/500,86,120.0
33,E1,16.5,0.312,86,120.0
34,B-4,16.5,0.062,92,120.0
35,D2,17.0,0.062,127,120.0
36,E1,17.5,177/500,86,120.0
37,B3,17.5,0.062,96,120.0
38,B-4,17.5,0.062,96,120.0
39,C2,18.0,0.062,108,120.0
40,A4,18.0,0.062,108,120.0
41,E1,18.5,479/1000,99,120.0
42,B-4,18.5,0.062,92,120.0
43,G1,19.0,49/100,94,120.0
44,D2,19.0,0.062,127,120.0
45,E1,19.5,0.5,88,120.0
46,B-4,19.5,0.062,88,120.0
47,D1,20.0,521/1000,88,120.0
48,E1,20.0,21/1000,88,120.0
49,G3,20.0,4.0,94,120.0
50,E4,20.0,4.0,94,120.0
51,B3,20.0,4.0,94,120.0
52,C2,20.0,0.062,108,120.0
53,A4,20.0,0.062,108,120.0
54,E1,20.5,73/200,88,120.0
55,C#2,20.5,0.062,89,120.0
56,B-4,20.5,0.062,89,120.0
57,D2,21.0,0.062,127,120.0
58,E1,21.5,0.5,88,120.0
59,B-4,21.5,0.062,88,120.0
60,C2,22.0,0.062,101,120.0
61,C#2,22.0,0.062,101,120.0
62,A4,22.0,0.062,101,120.0
63,F#1,22.5,0.5,98,120.0
64,B-4,22.5,0.062,92,120.0
65,G1,23.0,521/1000,102,120.0
66,D2,23.0,0.062,127,120.0
67,A1,23.5,0.5,88,120.0
68,B-4,23.5,0.062,87,120.0
69,A1,24.0,73/1000,88,120.0
70,G3,24.0,4.0,94,120.0
71,E4,24.0,4.0,94,120.0
72,B3,24.0,4.0,94,120.0
73,C2,24.0,0.062,106,120.0
74,A4,24.0,0.062,106,120.0
75,D1,24.01,69/125,86,120.0
76,E1,24.5,0.344,87,120.0
77,B-4,24.5,0.062,90,120.0
78,D2,25.0,0.062,127,120.0
79,E1,25.5,0.344,94,120.0
80,B3,25.5,0.062,95,120.0
81,B-4,25.5,0.062,95,120.0
82,C2,26.0,0.062,108,120.0
83,A4,26.0,0.062,108,120.0
84,E1,26.5,0.531,90,120.0
85,B-4,26.5,0.062,92,120.0
86,G1,27.0,0.5,89,120.0
87,D2,27.0,0.062,127,120.0
88,E1,27.5,0.469,86,120.0
89,B-4,27.5,0.062,91,120.0
90,G3,28.0,3.625,94,120.0
91,E4,28.0,11677/1000,94,120.0
92,B3,28.0,3833/1000,94,120.0
93,C2,28.0,0.062,108,120.0
94,A4,28.0,0.062,108,120.0
95,D1,28.01,0.531,83,120.0
96,C#2,28.5,0.062,89,120.0
97,B-4,28.5,0.062,89,120.0
98,E1,28.51,0.281,85,120.0
99,D2,29.0,0.062,127,120.0
100,E1,29.5,0.312,85,120.0
101,B-4,29.5,0.062,92,120.0
102,C2,30.0,0.062,100,120.0
103,C#2,30.0,0.062,100,120.0
104,A4,30.0,0.062,100,120.0
105,E1,30.5,49/100,89,120.0
106,B-4,30.5,0.062,91,120.0
107,F#1,31.0,0.469,87,120.0
108,D2,31.0,0.062,127,120.0
109,E1,31.5,0.5,88,120.0
110,B-4,31.5,0.062,92,120.0
111,A3,31.854,73/500,94,120.0
112,C4,31.854,73/500,94,120.0
113,C2,32.0,0.062,108,120.0
114,A4,32.0,0.062,108,120.0
115,D1,32.01,479/1000,85,120.0
116,E1,32.5,73/200,86,120.0
117,B-4,32.5,0.062,91,120.0
118,D2,33.0,0.062,127,120.0
119,E1,33.5,0.281,90,120.0
120,B3,33.5,0.062,95,120.0
121,B-4,33.5,0.062,95,120.0
122,C2,34.0,0.062,108,120.0
123,A4,34.0,0.062,108,120.0
124,E1,34.5,49/100,102,120.0
125,B-4,34.5,0.062,92,120.0
126,G1,35.0,49/100,90,120.0
127,D2,35.0,0.062,127,120.0
128,E1,35.5,0.469,97,120.0
129,B-4,35.5,0.062,90,120.0
130,C2,36.0,0.062,108,120.0
131,A4,36.0,0.062,108,120.0
132,D1,36.01,0.594,87,120.0
133,E1,36.5,73/200,89,120.0
134,C#2,36.5,0.062,89,120.0
135,B-4,36.5,0.062,89,120.0
136,D2,37.0,0.062,127,120.0
137,E1,37.5,49/100,94,120.0
138,B-4,37.5,0.062,91,120.0
139,C2,38.0,0.062,101,120.0
140,C#2,38.0,0.062,101,120.0
141,A4,38.0,0.062,101,120.0
142,F#1,38.5,69/125,100,120.0
143,B-4,38.5,0.062,92,120.0
144,G1,39.0,0.5,97,120.0
145,D2,39.0,0.062,127,120.0
146,A1,39.5,0.5,85,120.0
147,B-4,39.5,0.062,93,120.0
148,A3,39.677,4.0,94,120.0
149,C4,39.677,4.0,94,120.0
150,D1,40.0,479/1000,87,120.0
151,A1,40.0,13/250,85,120.0
152,C2,40.0,0.062,108,120.0
153,A4,40.0,0.062,108,120.0
154,E1,40.5,0.312,86,120.0
155,B-4,40.5,0.062,93,120.0
156,D2,41.0,0.062,127,120.0
157,E1,41.5,73/250,90,120.0
158,B3,41.5,0.062,96,120.0
159,B-4,41.5,0.062,96,120.0
160,C2,42.0,0.062,108,120.0
161,A4,42.0,0.062,108,120.0
162,E1,42.5,0.531,97,120.0
163,B-4,42.5,0.062,93,120.0
164,F#1,43.0,479/1000,88,120.0
165,D2,43.0,0.062,127,120.0
166,E1,43.5,0.469,90,120.0
167,B-4,43.5,0.062,91,120.0
168,A3,43.677,901/250,94,120.0
169,C4,43.677,3521/1000,94,120.0
170,C2,44.0,0.062,108,120.0
171,A4,44.0,0.062,108,120.0
172,D1,44.01,229/500,85,120.0
173,E1,44.5,73/200,88,120.0
174,C#2,44.5,0.062,90,120.0
175,B-4,44.5,0.062,90,120.0
176,D2,45.0,0.062,127,120.0
177,D1,45.5,0.375,89,120.0
178,B-4,45.5,0.062,93,120.0
179,C2,46.0,0.062,101,120.0
180,C#2,46.0,0.062,101,120.0
181,A4,46.0,0.062,101,120.0
182,E1,46.5,49/100,90,120.0
183,B-4,46.5,0.062,92,120.0
184,D1,47.0,427/1000,87,120.0
185,D2,47.0,0.062,127,120.0
186,E1,47.5,0.5,88,120.0
187,B-4,47.5,0.062,92,120.0
188,F#4,47.604,73/1000,94,120.0
189,B3,47.604,73/1000,94,120.0
190,A3,47.604,73/1000,94,120.0
191,D4,47.604,73/1000,94,120.0
192,F#4,47.677,4.0,94,120.0
193,B3,47.677,4.0,94,120.0
194,A3,47.677,4.0,94,120.0
195,D4,47.677,4.0,94,120.0
196,C2,48.0,0.062,108,120.0
197,A4,48.0,0.062,108,120.0
198,D1,48.01,0.469,97,120.0
199,E1,48.5,323/1000,92,120.0
200,B-4,48.5,0.062,92,120.0
201,D2,49.0,0.062,127,120.0
202,E1,49.5,0.312,92,120.0
203,B3,49.5,0.062,96,120.0
204,B-4,49.5,0.062,96,120.0
205,C2,50.0,0.062,108,120.0
206,A4,50.0,0.062,108,120.0
207,E1,50.5,573/1000,92,120.0
208,B-4,50.5,0.062,92,120.0
209,F#1,51.0,229/500,92,120.0
210,D2,51.0,0.062,127,120.0
211,G1,51.5,0.5,99,120.0
212,B-4,51.5,0.062,93,120.0
213,F#4,51.677,3.656,94,120.0
214,B3,51.677,3.656,94,120.0
215,A3,51.677,3.656,94,120.0
216,D4,51.677,3.656,94,120.0
217,D1,52.0,0.469,85,120.0
218,G1,52.0,0.031,99,120.0
219,C2,52.0,0.062,108,120.0
220,A4,52.0,0.062,108,120.0
221,C#2,52.5,0.062,90,120.0
222,B-4,52.5,0.062,90,120.0
223,E1,52.51,0.281,85,120.0
224,D2,53.0,0.062,127,120.0
225,E1,53.5,1.062,88,120.0
226,B-4,53.5,0.062,92,120.0
227,C2,54.0,0.062,101,120.0
228,C#2,54.0,0.062,101,120.0
229,A4,54.0,0.062,101,120.0
230,F#1,54.5,583/1000,96,120.0
231,B-4,54.5,0.062,93,120.0
232,G1,55.0,521/1000,102,120.0
233,D2,55.0,0.062,127,120.0
234,A1,55.5,0.5,97,120.0
235,B-4,55.5,0.062,93,120.0
236,B3,55.615,0.062,94,120.0
237,E4,55.646,0.031,94,120.0
238,G3,55.646,0.031,94,120.0
239,B3,55.677,4.0,94,120.0
240,E4,55.677,4.0,94,120.0
241,G3,55.677,4.0,94,120.0
242,A1,56.0,1/100,97,120.0
243,C2,56.0,0.062,108,120.0
244,A4,56.0,0.062,108,120.0
245,D1,56.01,0.5,97,120.0
246,E1,56.5,0.312,89,120.0
247,B-4,56.5,0.062,92,120.0
248,D2,57.0,0.062,127,120.0
249,B4,57.031,0.5,127,120.0
250,E1,57.5,0.312,87,120.0
251,B3,57.5,0.062,96,120.0
252,B-4,57.5,0.062,96,120.0
253,G4,57.542,1.562,127,120.0
254,C2,58.0,0.062,108,120.0
255,A4,58.0,0.062,108,120.0
256,F#1,58.5,51/100,87,120.0
257,B-4,58.5,0.062,92,120.0
258,G1,59.0,0.562,87,120.0
259,D2,59.0,0.062,127,120.0
260,A4,59.021,0.469,127,120.0
261,F#1,59.5,0.5,90,120.0
262,B-4,59.5,0.062,93,120.0
263,E4,59.51,49/100,127,120.0
264,B3,59.677,4.0,94,120.0
265,E4,59.677,4.0,94,120.0
266,G3,59.677,4.0,94,120.0
267,F#1,60.0,21/500,90,120.0
268,E4,60.0,1901/500,127,120.0
269,C2,60.0,0.062,108,120.0
270,A4,60.0,0.062,108,120.0
271,D1,60.01,51/100,84,120.0
272,C#2,60.5,0.062,90,120.0
273,B-4,60.5,0.062,90,120.0
274,E1,60.51,323/1000,86,120.0
275,D2,61.0,0.062,127,120.0
276,E1,61.5,271/1000,92,120.0
277,B-4,61.5,0.062,92,120.0
278,C2,62.0,0.062,101,120.0
279,C#2,62.0,0.062,101,120.0
280,A4,62.0,0.062,101,120.0
281,E1,62.5,51/100,92,120.0
282,B-4,62.5,0.062,92,120.0
283,G1,63.0,49/100,99,120.0
284,D2,63.0,0.062,127,120.0
285,E1,63.5,0.5,86,120.0
286,B-4,63.5,0.062,92,120.0
287,B3,63.677,4.0,94,120.0
288,E4,63.677,4.0,94,120.0
289,G3,63.677,4.0,94,120.0
290,E1,64.0,1/100,86,120.0
291,C2,64.0,0.062,108,120.0
292,A4,64.0,0.062,108,120.0
293,D1,64.01,521/1000,89,120.0
294,E1,64.5,0.375,89,120.0
295,B-4,64.5,0.062,93,120.0
296,D2,65.0,0.062,127,120.0
297,B4,65.021,0.5,127,120.0
298,B3,65.5,0.062,95,120.0
299,B-4,65.5,0.062,95,120.0
300,G4,65.51,1.562,127,120.0
301,E1,65.51,0.344,95,120.0
302,C2,66.0,0.062,108,120.0
303,A4,66.0,0.062,108,120.0
304,F#1,66.5,479/1000,100,120.0
305,B-4,66.5,0.062,91,120.0
306,A4,66.99,69/125,127,120.0
307,G1,67.0,0.5,104,120.0
308,D2,67.0,0.062,127,120.0
309,E4,67.49,51/100,127,120.0
310,A1,67.5,0.5,87,120.0
311,B-4,67.5,0.062,92,120.0
312,B3,67.677,3.938,94,120.0
313,E4,67.677,4.0,94,120.0
314,G3,67.677,3677/1000,94,120.0
315,E4,68.0,1323/500,127,120.0
316,A1,68.0,21/1000,87,120.0
317,C2,68.0,0.062,108,120.0
318,A4,68.0,0.062,108,120.0
319,D1,68.01,521/1000,94,120.0
320,C#2,68.5,0.062,90,120.0
321,B-4,68.5,0.062,90,120.0
322,E1,68.51,323/1000,92,120.0
323,D2,69.0,0.062,127,120.0
324,E1,69.5,0.344,97,120.0
325,B-4,69.5,0.062,92,120.0
326,C2,70.0,0.062,101,120.0
327,C#2,70.0,0.062,101,120.0
328,A4,70.0,0.062,101,120.0
329,E1,70.5,69/125,102,120.0
330,B-4,70.5,0.062,92,120.0
331,G1,71.0,0.531,99,120.0
332,D2,71.0,0.062,127,120.0
333,E1,71.5,0.5,94,120.0
334,B-4,71.5,0.062,92,120.0
335,A3,71.635,21/500,94,120.0
336,C4,71.635,21/500,94,120.0
337,E4,71.677,4.0,94,120.0
338,A3,71.677,4.0,94,120.0
339,C4,71.677,4.0,94,120.0
340,D1,72.0,69/125,90,120.0
341,E1,72.0,1/100,94,120.0
342,C2,72.0,0.062,108,120.0
343,A4,72.0,0.062,108,120.0
344,E1,72.5,0.375,89,120.0
345,B-4,72.5,0.062,92,120.0
346,D2,73.0,0.062,127,120.0
347,B4,73.031,0.469,127,120.0
348,G4,73.49,771/500,127,120.0
349,B3,73.5,0.062,96,120.0
350,B-4,73.5,0.062,96,120.0
351,E1,73.51,333/1000,94,120.0
352,C2,74.0,0.062,108,120.0
353,A4,74.0,0.062,108,120.0
354,E1,74.5,0.594,94,120.0
355,B-4,74.5,0.062,92,120.0
356,A4,74.979,151/250,127,120.0
357,F#1,75.0,0.469,88,120.0
358,D2,75.0,0.062,127,120.0
359,E4,75.427,0.125,107,120.0
360,E1,75.5,479/1000,92,120.0
361,B-4,75.5,0.062,91,120.0
362,F#4,75.573,427/1000,127,120.0
363,E4,75.677,1849/500,94,120.0
364,A3,75.677,3.656,94,120.0
365,C4,75.677,3.656,94,120.0
366,F#4,76.0,249/100,127,120.0
367,C2,76.0,0.062,108,120.0
368,A4,76.0,0.062,108,120.0
369,D1,76.01,0.438,86,120.0
370,E1,76.5,0.312,88,120.0
371,C#2,76.5,0.062,88,120.0
372,B-4,76.5,0.062,88,120.0
373,D2,77.0,0.062,127,120.0
374,D1,77.5,323/1000,97,120.0
375,B-4,77.5,0.062,92,120.0
376,C2,78.0,0.062,102,120.0
377,C#2,78.0,0.062,102,120.0
378,A4,78.0,0.062,102,120.0
379,E1,78.5,51/100,95,120.0
380,B-4,78.5,0.062,93,120.0
381,G4,78.51,0.562,127,120.0
382,F#4,78.969,0.469,127,120.0
383,D1,79.0,99/250,90,120.0
384,D2,79.0,0.062,127,120.0
385,E4,79.479,521/1000,124,120.0
386,E1,79.5,0.469,85,120.0
387,B-4,79.5,0.062,93,120.0
388,F#4,79.625,13/250,94,120.0
389,B3,79.625,13/250,94,120.0
390,A3,79.625,13/250,94,120.0
391,F#4,79.677,4.0,94,120.0
392,B3,79.677,4.0,94,120.0
393,A3,79.677,4.0,94,120.0
394,D4,79.698,3979/1000,94,120.0
395,E4,80.0,401/125,124,120.0
396,D1,80.01,56/125,102,120.0
397,C2,80.01,0.062,108,120.0
398,A4,80.01,0.062,108,120.0
399,E1,80.5,0.375,94,120.0
400,B-4,80.5,0.062,93,120.0
401,D2,81.0,0.062,127,120.0
402,E1,81.5,0.344,97,120.0
403,B3,81.5,0.062,98,120.0
404,B-4,81.5,0.062,98,120.0
405,C2,82.0,0.062,108,120.0
406,A4,82.0,0.062,108,120.0
407,B4,82.01,0.312,127,120.0
408,A4,82.219,13/50,127,120.0
409,G4,82.427,323/500,127,120.0
410,E1,82.5,51/100,97,120.0
411,B-4,82.5,0.062,92,120.0
412,G1,83.0,0.5,99,120.0
413,D2,83.0,0.062,127,120.0
414,A4,83.021,0.344,127,120.0
415,E1,83.5,49/100,87,120.0
416,B-4,83.5,0.062,93,120.0
417,A4,83.552,56/125,127,120.0
418,D4,83.677,1849/500,94,120.0
419,F#4,83.677,3729/1000,94,120.0
420,B3,83.677,3729/1000,94,120.0
421,A3,83.677,3729/1000,94,120.0
422,A4,84.0,21/500,127,120.0
423,C2,84.0,0.062,108,120.0
424,A4,84.0,0.062,108,120.0
425,D1,84.01,521/1000,87,120.0
426,G4,84.031,0.219,127,120.0
427,E4,84.229,2.25,127,120.0
428,E1,84.5,56/125,90,120.0
429,C#2,84.5,0.062,89,120.0
430,B-4,84.5,0.062,89,120.0
431,D2,85.0,0.062,127,120.0
432,F#1,85.5,479/500,94,120.0
433,B-4,85.5,0.062,92,120.0
434,C2,86.0,0.062,103,120.0
435,C#2,86.0,0.062,103,120.0
436,A4,86.0,0.062,103,120.0
437,D4,86.479,26/125,127,120.0
438,G1,86.5,0.531,99,120.0
439,B-4,86.5,0.062,92,120.0
440,B3,86.708,0.219,127,120.0
441,G3,86.917,229/1000,127,120.0
442,A1,87.0,99/100,84,120.0
443,D2,87.0,0.062,127,120.0
444,E3,87.167,0.469,114,120.0
445,B-4,87.5,0.062,91,120.0
446,B3,87.677,4.0,94,120.0
447,E4,87.677,4.0,94,120.0
448,G3,87.677,4.0,94,120.0
449,C2,88.0,0.062,109,120.0
450,A4,88.0,0.062,109,120.0
451,D1,88.01,0.5,99,120.0
452,E1,88.5,73/200,87,120.0
453,B-4,88.5,0.062,91,120.0
454,D2,89.0,0.062,127,120.0
455,B4,89.062,229/500,127,120.0
456,B3,89.5,0.062,96,120.0
457,B-4,89.5,0.062,96,120.0
458,E1,89.51,177/500,88,120.0
459,G4,89.542,1.531,127,120.0
460,C2,90.0,0.062,108,120.0
461,A4,90.0,0.062,108,120.0
462,E1,90.5,0.531,90,120.0
463,B-4,90.5,0.062,92,120.0
464,G1,91.0,49/100,86,120.0
465,D2,91.0,0.062,127,120.0
466,A4,91.021,479/1000,127,120.0
467,E1,91.5,0.5,86,120.0
468,B-4,91.5,0.062,91,120.0
469,E4,91.521,479/1000,127,120.0
470,E1,92.0,1/100,86,120.0
471,E4,92.0,3073/1000,127,120.0
472,C2,92.0,0.062,110,120.0
473,A4,92.0,0.062,110,120.0
474,D1,92.01,479/1000,86,120.0
475,E1,92.5,177/500,86,120.0
476,C#2,92.5,0.062,89,120.0
477,B-4,92.5,0.062,89,120.0
478,D2,93.0,0.062,127,120.0
479,E1,93.5,56/125,90,120.0
480,B-4,93.5,0.062,92,120.0
481,C2,94.0,0.062,101,120.0
482,C#2,94.0,0.062,101,120.0
483,A4,94.0,0.062,101,120.0
484,F#1,94.5,49/100,100,120.0
485,B-4,94.5,0.062,92,120.0
486,G1,95.0,49/100,97,120.0
487,D2,95.0,0.062,127,120.0
488,A1,95.5,0.5,83,120.0
489,B-4,95.5,0.062,91,120.0
490,A1,96.0,1/100,83,120.0
491,C2,96.0,0.062,108,120.0
492,A4,96.0,0.062,108,120.0
493,D1,96.01,0.469,88,120.0
494,E1,96.5,177/500,85,120.0
495,B-4,96.5,0.062,92,120.0
496,B4,97.0,49/100,127,120.0
497,D2,97.0,0.062,127,120.0
498,G4,97.479,349/250,127,120.0
499,E1,97.5,323/1000,88,120.0
500,B3,97.5,0.062,94,120.0
501,B-4,97.5,0.062,94,120.0
502,C2,98.0,0.062,108,120.0
503,A4,98.0,0.062,108,120.0
504,E1,98.5,521/1000,90,120.0
505,B-4,98.5,0.062,93,120.0
506,A4,98.906,0.531,127,120.0
507,G1,99.0,0.5,102,120.0
508,D2,99.0,0.062,127,120.0
509,E4,99.448,69/125,127,120.0
510,E1,99.5,0.469,92,120.0
511,B-4,99.5,0.062,91,120.0
512,E4,100.0,1927/1000,127,120.0
513,C2,100.0,0.062,108,120.0
514,A4,100.0,0.062,108,120.0
515,D1,100.01,271/500,86,120.0
516,C#2,100.5,0.062,90,120.0
517,B-4,100.5,0.062,90,120.0
518,E1,100.51,333/1000,88,120.0
519,D2,101.0,0.062,127,120.0
520,E1,101.5,0.406,99,120.0
521,B-4,101.5,0.062,91,120.0
522,C2,102.0,0.062,101,120.0
523,C#2,102.0,0.062,101,120.0
524,A4,102.0,0.062,101,120.0
525,E1,102.5,0.5,97,120.0
526,B-4,102.5,0.062,92,120.0
527,G1,103.0,0.469,97,120.0
528,D2,103.0,0.062,127,120.0
529,B3,103.26,4.0,94,120.0
530,E4,103.26,4.0,94,120.0
531,G3,103.26,4.0,94,120.0
532,E1,103.5,0.5,86,120.0
533,B-4,103.5,0.062,91,120.0
534,D1,104.0,0.469,94,120.0
535,E1,104.0,1/100,86,120.0
536,C2,104.0,0.062,108,120.0
537,A4,104.0,0.062,108,120.0
538,E1,104.5,271/1000,89,120.0
539,B-4,104.5,0.062,92,120.0
540,D2,105.0,0.062,127,120.0
541,B4,105.042,479/1000,127,120.0
542,B3,105.5,0.062,96,120.0
543,B-4,105.5,0.062,96,120.0
544,D1,105.51,73/250,94,120.0
545,G4,105.521,2083/1000,127,120.0
546,C2,106.0,0.062,109,120.0
547,A4,106.0,0.062,109,120.0
548,E1,106.5,0.594,92,120.0
549,B-4,106.5,0.062,93,120.0
550,F#1,107.0,479/1000,92,120.0
551,D2,107.0,0.062,127,120.0
552,A4,107.01,69/125,127,120.0
553,E4,107.448,0.156,111,120.0
554,E1,107.5,0.5,81,120.0
555,B-4,107.5,0.062,91,120.0
556,F#4,107.51,49/100,127,120.0
557,F#4,108.0,2.438,127,120.0
558,C2,108.0,0.062,109,120.0
559,A4,108.0,0.062,109,120.0
560,D1,108.01,0.438,85,120.0
561,C#2,108.5,0.062,90,120.0
562,B-4,108.5,0.062,90,120.0
563,E1,108.51,323/1000,88,120.0
564,D2,109.0,0.062,127,120.0
565,D1,109.5,13/50,85,120.0
566,B-4,109.5,0.062,90,120.0
567,C2,110.0,0.062,102,120.0
568,C#2,110.0,0.062,102,120.0
569,A4,110.0,0.062,102,120.0
570,G4,110.479,583/1000,127,120.0
571,E1,110.5,51/100,90,120.0
572,B-4,110.5,0.062,92,120.0
573,F#4,110.99,56/125,127,120.0
574,D1,111.0,0.469,87,120.0
575,D2,111.0,0.062,127,120.0
576,E4,111.49,51/100,121,120.0
577,E1,111.5,0.406,84,120.0
578,B-4,111.5,0.062,90,120.0
579,E4,112.0,3021/1000,121,120.0
580,C2,112.0,0.062,110,120.0
581,A4,112.0,0.062,110,120.0
582,D1,112.01,0.469,99,120.0
583,D5,112.469,401/250,127,120.0
584,E1,112.5,0.312,90,120.0
585,B-4,112.5,0.062,92,120.0
586,D2,113.0,0.062,127,120.0
587,B3,113.5,0.062,94,120.0
588,B-4,113.5,0.062,94,120.0
589,E1,113.51,73/250,89,120.0
590,B4,113.969,0.25,127,120.0
591,C2,114.0,0.062,110,120.0
592,A4,114.0,0.062,110,120.0
593,A4,114.167,271/1000,127,120.0
594,G4,114.427,13/50,127,120.0
595,F#1,114.5,0.469,98,120.0
596,B-4,114.5,0.062,91,120.0
597,E4,114.635,271/1000,127,120.0
598,B3,114.844,4.0,94,120.0
599,E4,114.844,4.0,94,120.0
600,G3,114.844,4.0,94,120.0
601,A4,114.896,0.344,127,120.0
602,G1,115.0,49/100,92,120.0
603,D2,115.0,0.062,127,120.0
604,A4,115.438,49/100,127,120.0
605,A1,115.5,0.5,83,120.0
606,B-4,115.5,0.062,90,120.0
607,G4,115.938,0.062,127,120.0
608,G4,116.0,177/1000,127,120.0
609,A1,116.0,1/100,83,120.0
610,C2,116.0,0.062,110,120.0
611,A4,116.0,0.062,110,120.0
612,D1,116.01,0.438,92,120.0
613,E4,116.167,677/250,127,120.0
614,C#2,116.5,0.062,88,120.0
615,B-4,116.5,0.062,88,120.0
616,E1,116.51,177/500,90,120.0
617,D2,117.0,0.062,127,120.0
618,F#1,117.5,479/1000,103,120.0
619,B-4,117.5,0.062,91,120.0
620,C2,118.0,0.062,102,120.0
621,C#2,118.0,0.062,102,120.0
622,A4,118.0,0.062,102,120.0
623,G1,118.01,521/1000,90,120.0
624,E1,118.5,427/1000,97,120.0
625,B-4,118.5,0.062,92,120.0
626,B0,119.0,271/500,102,120.0
627,D2,119.0,0.062,127,120.0
628,D1,119.5,0.5,94,120.0
629,B-4,119.5,0.062,92,120.0
630,D1,120.0,573/1000,94,120.0
631,C2,120.0,0.062,108,120.0
632,A4,120.0,0.062,108,120.0
633,D4,120.396,177/1000,107,120.0
634,E4,120.49,271/500,117,120.0
635,E1,120.5,323/1000,87,120.0
636,B-4,120.5,0.062,92,120.0
637,G4,120.979,271/500,127,120.0
638,D2,121.0,0.062,127,120.0
639,D5,121.479,223/200,121,120.0
640,B3,121.5,0.062,96,120.0
641,B-4,121.5,0.062,96,120.0
642,E1,121.51,333/1000,92,120.0
643,C2,122.0,0.062,109,120.0
644,A4,122.0,0.062,109,120.0
645,B3,122.427,3583/1000,94,120.0
646,E4,122.427,3583/1000,94,120.0
647,G3,122.427,3583/1000,94,120.0
648,E1,122.5,0.531,92,120.0
649,B-4,122.5,0.062,92,120.0
650,E4,122.51,1.0,127,120.0
651,G1,123.0,69/125,95,120.0
652,D2,123.0,0.062,127,120.0
653,E1,123.5,0.5,92,120.0
654,B-4,123.5,0.062,92,120.0
655,G4,123.531,0.469,127,120.0
656,G4,124.0,323/200,127,120.0
657,C2,124.0,0.062,110,120.0
658,A4,124.0,0.062,110,120.0
659,D1,124.01,521/1000,88,120.0
660,E1,124.5,73/200,89,120.0
661,C#2,124.5,0.062,89,120.0
662,B-4,124.5,0.062,89,120.0
663,D2,125.0,0.062,127,120.0
664,E1,125.5,0.344,94,120.0
665,B-4,125.5,0.062,91,120.0
666,C2,126.0,0.062,102,120.0
667,C#2,126.0,0.062,102,120.0
668,A4,126.0,0.062,102,120.0
669,E4,126.323,13/125,94,120.0
670,A3,126.323,13/125,94,120.0
671,C4,126.323,13/125,94,120.0
672,E4,126.427,4.0,94,120.0
673,A3,126.427,4.0,94,120.0
674,C4,126.427,4.0,94,120.0
675,E1,126.5,51/100,99,120.0
676,B-4,126.5,0.062,92,120.0
677,G1,127.0,51/100,95,120.0
678,D2,127.0,0.062,127,120.0
679,E1,127.5,0.5,82,120.0
680,B-4,127.5,0.062,92,120.0
681,C2,128.0,0.062,108,120.0
682,A4,128.0,0.062,108,120.0
683,D1,128.01,0.531,92,120.0
684,D4,128.458,167/1000,127,120.0
685,E1,128.5,73/200,88,120.0
686,B-4,128.5,0.062,92,120.0
687,E4,128.542,521/1000,127,120.0
688,D2,129.0,0.062,127,120.0
689,G4,129.01,229/500,127,120.0
690,D5,129.49,1.0,127,120.0
691,E1,129.5,333/1000,89,120.0
692,B3,129.5,0.062,96,120.0
693,B-4,129.5,0.062,96,120.0
694,C2,130.0,0.062,109,120.0
695,A4,130.0,0.062,109,120.0
696,E4,130.427,1901/500,94,120.0
697,A3,130.427,727/200,94,120.0
698,C4,130.427,727/200,94,120.0
699,E4,130.479,927/1000,127,120.0
700,E1,130.5,0.5,89,120.0
701,B-4,130.5,0.062,92,120.0
702,G1,131.0,51/100,88,120.0
703,D2,131.0,0.062,127,120.0
704,G4,131.479,521/1000,127,120.0
705,E1,131.5,0.5,85,120.0
706,B-4,131.5,0.062,91,120.0
707,G4,132.0,1167/1000,127,120.0
708,C2,132.0,0.062,108,120.0
709,A4,132.0,0.062,108,120.0
710,D1,132.01,583/1000,84,120.0
711,C#2,132.5,0.062,88,120.0
712,B-4,132.5,0.062,88,120.0
713,E1,132.51,177/500,84,120.0
714,D2,133.0,0.062,127,120.0
715,G4,133.208,13/250,122,120.0
716,F#1,133.5,49/100,93,120.0
717,B-4,133.5,0.062,91,120.0
718,C2,134.0,0.062,102,120.0
719,C#2,134.0,0.062,102,120.0
720,A4,134.0,0.062,102,120.0
721,F#4,134.323,13/125,94,120.0
722,B3,134.323,13/125,94,120.0
723,A3,134.323,13/125,94,120.0
724,D4,134.385,21/500,94,120.0
725,D4,134.427,4.0,94,120.0
726,F#4,134.427,4.0,94,120.0
727,B3,134.427,4.0,94,120.0
728,A3,134.427,4.0,94,120.0
729,G1,134.5,151/250,90,120.0
730,B-4,134.5,0.062,92,120.0
731,F#1,135.0,56/125,94,120.0
732,D2,135.0,0.062,127,120.0
733,E1,135.5,479/1000,92,120.0
734,B-4,135.5,0.062,91,120.0
735,C2,136.0,0.062,108,120.0
736,A4,136.0,0.062,108,120.0
737,D1,136.01,49/100,92,120.0
738,D4,136.438,0.156,102,120.0
739,E1,136.5,0.344,89,120.0
740,B-4,136.5,0.062,92,120.0
741,E4,136.521,271/500,110,120.0
742,D2,137.0,0.062,127,120.0
743,G4,137.021,479/1000,114,120.0
744,D5,137.49,101/100,121,120.0
745,B3,137.5,0.062,96,120.0
746,B-4,137.5,0.062,96,120.0
747,E1,137.51,73/200,89,120.0
748,C2,138.0,0.062,108,120.0
749,A4,138.0,0.062,108,120.0
750,D4,138.427,1849/500,94,120.0
751,F#4,138.427,1823/500,94,120.0
752,B3,138.427,1823/500,94,120.0
753,A3,138.427,1823/500,94,120.0
754,E4,138.479,1.156,127,120.0
755,E1,138.5,521/1000,92,120.0
756,B-4,138.5,0.062,92,120.0
757,G1,139.0,0.5,95,120.0
758,D2,139.0,0.062,127,120.0
759,E1,139.5,49/100,88,120.0
760,B-4,139.5,0.062,92,120.0
761,G4,139.583,23/200,92,120.0
762,A4,139.625,0.375,111,120.0
763,A4,140.0,149/100,111,120.0
764,C2,140.0,0.062,110,120.0
765,A4,140.0,0.062,110,120.0
766,D1,140.01,0.531,88,120.0
767,C#2,140.5,0.062,88,120.0
768,B-4,140.5,0.062,88,120.0
769,E1,140.51,77/200,89,120.0
770,D2,141.0,0.062,127,120.0
771,B4,141.479,2.344,127,120.0
772,F#1,141.5,0.438,93,120.0
773,B-4,141.5,0.062,92,120.0
774,C2,142.0,0.062,102,120.0
775,C#2,142.0,0.062,102,120.0
776,A4,142.0,0.062,102,120.0
777,E4,142.448,3979/1000,94,120.0
778,B3,142.448,3979/1000,94,120.0
779,G3,142.448,3979/1000,94,120.0
780,G1,142.5,51/100,99,120.0
781,B-4,142.5,0.062,91,120.0
782,A1,143.0,56/125,81,120.0
783,D2,143.0,0.062,127,120.0
784,B4,143.49,0.438,127,120.0
785,G1,143.5,229/500,85,120.0
786,B-4,143.5,0.062,93,120.0
787,D5,143.958,21/500,127,120.0
788,D5,144.0,0.5,127,120.0
789,D1,144.01,0.5,89,120.0
790,C2,144.01,0.062,108,120.0
791,A4,144.01,0.062,108,120.0
792,E5,144.458,0.562,127,120.0
793,E1,144.5,77/200,85,120.0
794,B-4,144.5,0.062,91,120.0
795,D5,144.938,6/25,127,120.0
796,D2,145.0,0.062,127,120.0
797,B4,145.167,13/50,127,120.0
798,A4,145.417,73/250,127,120.0
799,B3,145.5,0.062,96,120.0
800,B-4,145.5,0.062,96,120.0
801,E1,145.51,0.344,92,120.0
802,G4,145.625,271/1000,127,120.0
803,A4,145.896,6/25,127,120.0
804,C2,146.0,0.062,109,120.0
805,A4,146.0,0.062,109,120.0
806,E4,146.427,4.0,94,120.0
807,B3,146.427,4.0,94,120.0
808,G3,146.427,4.0,94,120.0
809,A4,146.448,0.5,127,120.0
810,F#1,146.5,49/100,92,120.0
811,B-4,146.5,0.062,91,120.0
812,G4,146.99,0.188,127,120.0
813,G1,147.0,271/500,90,120.0
814,D2,147.0,0.062,127,120.0
815,E4,147.198,0.281,127,120.0
816,D4,147.438,49/100,127,120.0
817,F#1,147.5,56/125,90,120.0
818,B-4,147.5,0.062,91,120.0
819,E4,147.969,0.031,127,120.0
820,E4,148.0,0.219,127,120.0
821,C2,148.0,0.062,109,120.0
822,A4,148.0,0.062,109,120.0
823,D1,148.01,271/500,82,120.0
824,E4,148.458,479/1000,125,120.0
825,C#2,148.5,0.062,89,120.0
826,B-4,148.5,0.062,89,120.0
827,E1,148.51,333/1000,87,120.0
828,D4,148.927,229/1000,127,120.0
829,D2,149.0,0.062,127,120.0
830,B3,149.177,323/1000,127,120.0
831,A3,149.427,177/1000,127,120.0
832,E1,149.5,271/500,88,120.0
833,B-4,149.5,0.062,91,120.0
834,G3,149.646,6/25,127,120.0
835,A3,149.906,13/50,127,120.0
836,C2,150.0,0.062,101,120.0
837,C#2,150.0,0.062,101,120.0
838,A4,150.0,0.062,101,120.0
839,G1,150.01,479/1000,92,120.0
840,G3,150.156,229/1000,127,120.0
841,E3,150.427,1.5,118,120.0
842,E4,150.427,4.0,94,120.0
843,B3,150.427,4.0,94,120.0
844,G3,150.427,4.0,94,120.0
845,E1,150.5,521/1000,97,120.0
846,B-4,150.5,0.062,92,120.0
847,B0,151.0,927/1000,92,120.0
848,D2,151.0,0.062,127,120.0
849,B-4,151.5,0.062,91,120.0
850,C2,152.0,0.062,109,120.0
851,A4,152.0,0.062,109,120.0
852,D1,152.01,0.5,97,120.0
853,E1,152.5,99/250,89,120.0
854,B-4,152.5,0.062,92,120.0
855,B4,152.51,479/1000,127,120.0
856,D2,153.0,0.062,127,120.0
857,G5,153.01,0.281,127,120.0
858,E1,153.5,0.344,90,120.0
859,B3,153.5,0.062,96,120.0
860,B-4,153.5,0.062,96,120.0
861,G5,153.51,1021/1000,127,120.0
862,C2,154.0,0.062,109,120.0
863,A4,154.0,0.062,109,120.0
864,E4,154.427,1849/500,94,120.0
865,B3,154.427,3.625,94,120.0
866,G3,154.427,3.625,94,120.0
867,E1,154.5,0.5,88,120.0
868,B-4,154.5,0.062,92,120.0
869,F#5,154.521,0.969,127,120.0
870,G1,155.0,51/100,97,120.0
871,D2,155.0,0.062,127,120.0
872,E1,155.5,56/125,88,120.0
873,B-4,155.5,0.062,91,120.0
874,B4,155.51,49/100,126,120.0
875,B4,156.0,81/25,126,120.0
876,C2,156.0,0.062,108,120.0
877,A4,156.0,0.062,108,120.0
878,D1,156.01,479/1000,82,120.0
879,C#2,156.5,0.062,88,120.0
880,B-4,156.5,0.062,88,120.0
881,E1,156.51,0.375,85,120.0
882,D2,157.0,0.062,127,120.0
883,E1,157.5,177/500,86,120.0
884,B-4,157.5,0.062,92,120.0
885,C2,158.0,0.062,102,120.0
886,C#2,158.0,0.062,102,120.0
887,A4,158.0,0.062,102,120.0
888,A3,158.375,13/250,94,120.0
889,C4,158.375,13/250,94,120.0
890,E4,158.375,13/250,94,120.0
891,A3,158.427,4.0,94,120.0
892,C4,158.427,4.0,94,120.0
893,E4,158.427,4.0,94,120.0
894,F#1,158.5,479/1000,96,120.0
895,B-4,158.5,0.062,91,120.0
896,G1,159.0,49/100,97,120.0
897,D2,159.0,0.062,127,120.0
898,A1,159.5,0.5,87,120.0
899,B-4,159.5,0.062,91,120.0
900,A1,160.0,21/500,87,120.0
901,C2,160.0,0.062,108,120.0
902,A4,160.0,0.062,108,120.0
903,D1,160.01,479/1000,97,120.0
904,B4,160.469,0.469,127,120.0
905,E1,160.5,177/500,89,120.0
906,B-4,160.5,0.062,91,120.0
907,G5,160.979,73/250,127,120.0
908,D2,161.0,0.062,127,120.0
909,G5,161.469,2083/1000,127,120.0
910,E1,161.5,333/1000,92,120.0
911,B3,161.5,0.062,96,120.0
912,B-4,161.5,0.062,96,120.0
913,C2,162.0,0.062,109,120.0
914,A4,162.0,0.062,109,120.0
915,A3,162.427,1823/500,94,120.0
916,C4,162.427,1823/500,94,120.0
917,E4,162.427,1823/500,94,120.0
918,F#5,162.479,101/100,127,120.0
919,E1,162.5,51/100,86,120.0
920,B-4,162.5,0.062,92,120.0
921,G1,163.0,49/100,97,120.0
922,D2,163.0,0.062,127,120.0
923,E5,163.479,521/1000,127,120.0
924,E1,163.5,49/100,92,120.0
925,B-4,163.5,0.062,91,120.0
926,E5,164.0,0.438,127,120.0
927,C2,164.0,0.062,109,120.0
928,A4,164.0,0.062,109,120.0
929,D1,164.01,0.438,84,120.0
930,D5,164.458,229/500,127,120.0
931,E1,164.5,99/250,92,120.0
932,C#2,164.5,0.062,88,120.0
933,B-4,164.5,0.062,88,120.0
934,B4,164.938,167/1000,127,120.0
935,D2,165.0,0.062,127,120.0
936,A4,165.177,26/125,127,120.0
937,G4,165.375,323/500,127,120.0
938,F#1,165.5,323/1000,93,120.0
939,B-4,165.5,0.062,90,120.0
940,F#4,165.938,0.562,127,120.0
941,C2,166.0,0.062,101,120.0
942,C#2,166.0,0.062,101,120.0
943,A4,166.0,0.062,101,120.0
944,F#4,166.333,0.094,94,120.0
945,A3,166.333,0.094,94,120.0
946,B3,166.375,13/250,94,120.0
947,D4,166.375,13/250,94,120.0
948,B3,166.427,4.0,94,120.0
949,D4,166.427,4.0,94,120.0
950,F#4,166.427,4.0,94,120.0
951,A3,166.427,4.0,94,120.0
952,D4,166.458,13/50,122,120.0
953,G1,166.5,69/125,92,120.0
954,B-4,166.5,0.062,90,120.0
955,F#1,167.0,427/1000,98,120.0
956,D2,167.0,0.062,127,120.0
957,E1,167.5,0.469,94,120.0
958,B-4,167.5,0.062,90,120.0
959,C2,168.0,0.062,109,120.0
960,A4,168.0,0.062,109,120.0
961,D1,168.01,0.469,88,120.0
962,E1,168.5,77/200,90,120.0
963,B-4,168.5,0.062,90,120.0
964,B4,168.51,49/100,126,120.0
965,D2,169.0,0.062,127,120.0
966,G5,169.021,0.312,127,120.0
967,B3,169.5,0.062,95,120.0
968,B-4,169.5,0.062,95,120.0
969,E1,169.51,99/250,89,120.0
970,G5,169.542,0.812,127,120.0
971,C2,170.0,0.062,110,120.0
972,A4,170.0,0.062,110,120.0
973,B3,170.427,3.75,94,120.0
974,D4,170.427,1729/500,94,120.0
975,F#4,170.427,3521/1000,94,120.0
976,A3,170.427,3521/1000,94,120.0
977,F#1,170.5,49/100,84,120.0
978,B-4,170.5,0.062,90,120.0
979,F#5,170.531,0.719,127,120.0
980,E1,171.0,0.438,87,120.0
981,D2,171.0,0.062,127,120.0
982,D1,171.5,73/250,85,120.0
983,B-4,171.5,0.062,90,120.0
984,F#5,171.521,479/1000,127,120.0
985,F#5,172.0,51/100,127,120.0
986,C2,172.0,0.062,108,120.0
987,A4,172.0,0.062,108,120.0
988,D1,172.01,229/500,85,120.0
989,C#2,172.5,0.062,88,120.0
990,B-4,172.5,0.062,88,120.0
991,E1,172.51,0.375,89,120.0
992,E5,172.531,667/1000,127,120.0
993,D2,173.0,0.062,127,120.0
994,F#1,173.5,177/500,94,120.0
995,B-4,173.5,0.062,90,120.0
996,E5,173.51,1021/1000,127,120.0
997,C2,174.0,0.062,102,120.0
998,C#2,174.0,0.062,102,120.0
999,A4,174.0,0.062,102,120.0
1000,B3,174.375,13/250,94,120.0
1001,G3,174.375,13/250,94,120.0
1002,E4,174.427,4.0,94,120.0
1003,B3,174.427,4.0,94,120.0
1004,G3,174.427,4.0,94,120.0
1005,E1,174.5,49/100,92,120.0
1006,B-4,174.5,0.062,91,120.0
1007,D5,174.521,19/25,126,120.0
1008,D1,175.0,417/1000,85,120.0
1009,D2,175.0,0.062,127,120.0
1010,E1,175.5,229/500,87,120.0
1011,B-4,175.5,0.062,92,120.0
1012,E5,175.531,0.469,126,120.0
1013,E5,176.0,4.0,126,120.0
1014,C2,176.0,0.062,109,120.0
1015,A4,176.0,0.062,109,120.0
1016,D1,176.01,229/500,99,120.0
1017,E1,176.5,99/250,92,120.0
1018,B-4,176.5,0.062,91,120.0
1019,G5,176.958,151/250,127,120.0
1020,D2,177.0,0.062,127,120.0
1021,F#5,177.479,49/100,127,120.0
1022,E1,177.5,0.312,92,120.0
1023,B3,177.5,0.062,95,120.0
1024,B-4,177.5,0.062,95,120.0
1025,E5,177.979,229/500,127,120.0
1026,C2,178.0,0.062,109,120.0
1027,A4,178.0,0.062,109,120.0
1028,E4,178.427,4.0,94,120.0
1029,B3,178.427,4.0,94,120.0
1030,G3,178.427,4.0,94,120.0
1031,D5,178.448,427/1000,127,120.0
1032,F#1,178.5,51/100,100,120.0
1033,B-4,178.5,0.062,91,120.0
1034,B4,178.958,0.219,127,120.0
1035,G1,179.0,479/1000,89,120.0
1036,D2,179.0,0.062,127,120.0
1037,A4,179.167,6/25,127,120.0
1038,G4,179.417,0.531,127,120.0
1039,F#1,179.5,0.469,94,120.0
1040,B-4,179.5,0.062,90,120.0
1041,A4,179.875,0.125,127,120.0
1042,A4,180.0,1.094,127,120.0
1043,E5,180.0,0.781,126,120.0
1044,C2,180.0,0.062,108,120.0
1045,A4,180.0,0.062,108,120.0
1046,D1,180.01,49/100,89,120.0
1047,C#2,180.5,0.062,90,120.0
1048,B-4,180.5,0.062,90,120.0
1049,E1,180.51,0.375,90,120.0
1050,D2,181.0,0.062,127,120.0
1051,G4,181.052,26/125,127,120.0
1052,E4,181.25,73/250,126,120.0
1053,D4,181.49,49/100,127,120.0
1054,F#1,181.5,1.0,96,120.0
1055,B-4,181.5,0.062,91,120.0
1056,E4,181.969,1.875,116,120.0
1057,C2,182.0,0.062,101,120.0
1058,C#2,182.0,0.062,101,120.0
1059,A4,182.0,0.062,101,120.0
1060,E4,182.427,4.0,94,120.0
1061,B3,182.427,4.0,94,120.0
1062,G3,182.427,4.0,94,120.0
1063,B-4,182.5,0.062,91,120.0
1064,G1,182.51,0.594,90,120.0
1065,F#1,183.0,583/1000,93,120.0
1066,D2,183.0,0.062,127,120.0
1067,B0,183.5,0.5,115,120.0
1068,B-4,183.5,0.062,92,120.0
1069,E4,183.969,0.031,84,120.0
1070,B3,183.969,0.031,84,120.0
1071,G3,183.969,0.031,84,120.0
1072,E4,184.0,4.0,84,120.0
1073,B3,184.0,4.0,84,120.0
1074,G3,184.0,4.0,84,120.0
1075,C2,184.0,0.062,109,120.0
1076,A4,184.0,0.062,109,120.0
1077,D1,184.01,0.562,99,120.0
1078,A4,184.417,0.156,127,120.0
1079,B4,184.458,151/500,127,120.0
1080,E1,184.5,77/200,95,120.0
1081,B-4,184.5,0.062,91,120.0
1082,A4,184.958,0.125,127,120.0
1083,B4,185.0,0.312,127,120.0
1084,D2,185.0,0.062,110,120.0
1085,E-2,185.0,0.062,110,120.0
1086,F#3,185.021,0.062,91,120.0
1087,A4,185.26,271/1000,127,120.0
1088,G4,185.448,271/500,127,120.0
1089,B3,185.5,0.062,95,120.0
1090,B-4,185.5,0.062,95,120.0
1091,E1,185.51,73/200,104,120.0
1092,A4,185.948,0.188,127,120.0
1093,C2,186.0,0.062,109,120.0
1094,A4,186.0,0.062,109,120.0
1095,E4,186.427,3.625,94,120.0
1096,B3,186.427,1771/500,94,120.0
1097,G3,186.427,1771/500,94,120.0
1098,A4,186.469,26/125,127,120.0
1099,E1,186.5,51/100,97,120.0
1100,B-4,186.5,0.062,90,120.0
1101,E4,186.698,651/500,127,120.0
1102,G1,187.0,271/500,104,120.0
1103,D2,187.0,0.062,110,120.0
1104,E-2,187.0,0.062,110,120.0
1105,F#3,187.021,0.062,91,120.0
1106,E1,187.5,0.5,104,120.0
1107,B-4,187.5,0.062,91,120.0
1108,E4,188.0,521/1000,127,120.0
1109,E1,188.0,21/1000,104,120.0
1110,E4,188.0,1487/125,84,120.0
1111,B3,188.0,3917/1000,84,120.0
1112,G3,188.0,3677/1000,84,120.0
1113,C2,188.0,0.062,108,120.0
1114,A4,188.0,0.062,108,120.0
1115,D1,188.01,0.5,90,120.0
1116,G4,188.479,6/25,127,120.0
1117,C#2,188.5,0.062,88,120.0
1118,B-4,188.5,0.062,88,120.0
1119,E1,188.51,0.375,89,120.0
1120,E4,188.708,229/1000,127,120.0
1121,A4,188.938,13/50,127,120.0
1122,D2,189.0,0.062,110,120.0
1123,E-2,189.0,0.062,110,120.0
1124,F#3,189.021,0.062,91,120.0
1125,E4,189.188,6/25,127,120.0
1126,E1,189.5,479/1000,99,120.0
1127,B-4,189.5,0.062,92,120.0
1128,C2,190.0,0.062,101,120.0
1129,C#2,190.0,0.062,101,120.0
1130,A4,190.0,0.062,101,120.0
1131,E4,190.24,271/1000,127,120.0
1132,A3,190.344,83/1000,94,120.0
1133,C4,190.344,83/1000,94,120.0
1134,E4,190.354,73/1000,94,120.0
1135,E4,190.427,4.0,94,120.0
1136,A3,190.427,4.0,94,120.0
1137,C4,190.427,4.0,94,120.0
1138,F#4,190.458,271/1000,127,120.0
1139,F#1,190.5,0.531,94,120.0
1140,B-4,190.5,0.062,92,120.0
1141,G4,190.75,271/1000,127,120.0
1142,A4,190.969,0.25,127,120.0
1143,G1,191.0,49/100,97,120.0
1144,D2,191.0,0.062,110,120.0
1145,E-2,191.0,0.062,110,120.0
1146,F#3,191.031,0.062,91,120.0
1147,B4,191.208,0.219,127,120.0
1148,D5,191.448,13/50,127,120.0
1149,A1,191.5,0.5,87,120.0
1150,B-4,191.5,0.062,91,120.0
1151,B4,191.656,0.25,127,120.0
1152,D5,191.927,73/1000,127,120.0
1153,A3,191.938,0.062,84,120.0
1154,C4,191.969,0.031,84,120.0
1155,D5,192.0,99/100,127,120.0
1156,A1,192.0,1/100,87,120.0
1157,D1,192.01,56/125,97,120.0
1158,A1,192.01,1/100,53,120.0
1159,C2,192.01,0.062,108,120.0
1160,A4,192.01,0.062,108,120.0
1161,E1,192.5,0.375,92,120.0
1162,B-4,192.5,0.062,91,120.0
1163,B4,192.917,51/100,127,120.0
1164,D2,193.0,0.062,110,120.0
1165,E-2,193.0,0.062,110,120.0
1166,F#3,193.021,0.062,91,120.0
1167,A4,193.448,6/25,127,120.0
1168,B3,193.5,0.062,96,120.0
1169,B-4,193.5,0.062,96,120.0
1170,E1,193.51,99/250,95,120.0
1171,B4,193.677,1.469,127,120.0
1172,C2,194.0,0.062,109,120.0
1173,A4,194.0,0.062,109,120.0
1174,E4,194.427,3833/1000,94,120.0
1175,A3,194.427,1849/500,94,120.0
1176,C4,194.427,1849/500,94,120.0
1177,E1,194.5,271/500,99,120.0
1178,B-4,194.5,0.062,92,120.0
1179,G1,195.0,0.531,97,120.0
1180,D2,195.0,0.062,110,120.0
1181,E-2,195.0,0.062,110,120.0
1182,F#3,195.021,0.062,91,120.0
1183,E1,195.5,0.5,94,120.0
1184,B-4,195.5,0.062,92,120.0
1185,E1,196.0,21/1000,94,120.0
1186,C2,196.0,0.062,109,120.0
1187,A4,196.0,0.062,109,120.0
1188,D1,196.01,51/100,92,120.0
1189,G4,196.219,151/500,127,120.0
1190,A4,196.438,323/1000,127,120.0
1191,E1,196.5,229/500,88,120.0
1192,C#2,196.5,0.062,89,120.0
1193,B-4,196.5,0.062,89,120.0
1194,B4,196.677,6/25,127,120.0
1195,D5,196.906,417/1000,127,120.0
1196,D2,197.0,0.062,110,120.0
1197,E-2,197.0,0.062,110,120.0
1198,F#3,197.021,0.062,91,120.0
1199,B4,197.188,0.25,127,120.0
1200,A4,197.417,0.25,127,120.0
1201,F#1,197.5,101/100,93,120.0
1202,B-4,197.5,0.062,92,120.0
1203,G4,197.656,0.312,127,120.0
1204,A4,197.698,0.062,116,120.0
1205,F#4,197.885,0.344,127,120.0
1206,C2,198.0,0.062,102,120.0
1207,C#2,198.0,0.062,102,120.0
1208,A4,198.0,0.062,102,120.0
1209,E4,198.219,73/250,127,120.0
1210,F#4,198.344,83/1000,94,120.0
1211,B3,198.417,1/100,94,120.0
1212,A3,198.417,1/100,94,120.0
1213,F#4,198.427,4.0,94,120.0
1214,B3,198.427,4.0,94,120.0
1215,A3,198.427,4.0,94,120.0
1216,D4,198.469,1979/500,94,120.0
1217,G1,198.5,521/1000,90,120.0
1218,B-4,198.5,0.062,91,120.0
1219,D4,198.667,323/1000,127,120.0
1220,E4,198.938,0.25,127,120.0
1221,A1,199.0,69/125,89,120.0
1222,D2,199.0,0.062,110,120.0
1223,E-2,199.0,0.062,110,120.0
1224,F#3,199.021,0.062,91,120.0
1225,F#4,199.146,13/50,127,120.0
1226,G4,199.448,6/25,127,120.0
1227,G1,199.5,0.5,90,120.0
1228,B-4,199.5,0.062,91,120.0
1229,A4,199.677,0.312,127,120.0
1230,A3,199.896,4.0,84,120.0
1231,C4,199.896,4.0,84,120.0
1232,B-4,199.948,13/250,127,120.0
1233,B-4,200.0,6/25,127,120.0
1234,C2,200.0,0.062,108,120.0
1235,A4,200.0,0.062,108,120.0
1236,D1,200.01,271/500,89,120.0
1237,B4,200.188,271/1000,127,120.0
1238,E1,200.5,73/200,87,120.0
1239,B-4,200.5,0.062,92,120.0
1240,B4,200.688,26/125,127,120.0
1241,D2,201.0,0.062,110,120.0
1242,E-2,201.0,0.062,110,120.0
1243,F#3,201.021,0.062,91,120.0
1244,A4,201.229,0.25,127,120.0
1245,B-4,201.427,0.25,127,120.0
1246,E1,201.5,0.375,94,120.0
1247,B3,201.5,0.062,95,120.0
1248,B-4,201.5,0.062,95,120.0
1249,B4,201.719,0.25,127,120.0
1250,C2,202.0,0.062,108,120.0
1251,A4,202.0,0.062,108,120.0
1252,D5,202.24,0.188,127,120.0
1253,F#4,202.427,927/250,94,120.0
1254,D4,202.427,727/200,94,120.0
1255,B3,202.427,927/250,94,120.0
1256,A3,202.427,927/250,94,120.0
1257,E1,202.5,51/100,92,120.0
1258,B-4,202.5,0.062,92,120.0
1259,E5,202.74,0.25,127,120.0
1260,F#1,203.0,0.469,87,120.0
1261,D2,203.0,0.062,110,120.0
1262,E-2,203.0,0.062,110,120.0
1263,F#3,203.021,0.062,91,120.0
1264,F#5,203.25,26/125,127,120.0
1265,G5,203.479,151/500,127,120.0
1266,E1,203.5,0.469,86,120.0
1267,B-4,203.5,0.062,91,120.0
1268,F#5,203.708,13/50,127,120.0
1269,A3,203.896,3.75,84,120.0
1270,C4,203.896,3667/1000,84,120.0
1271,E5,203.99,1/100,127,120.0
1272,E5,204.0,1177/1000,127,120.0
1273,C2,204.0,0.062,109,120.0
1274,A4,204.0,0.062,109,120.0
1275,D1,204.01,417/1000,87,120.0
1276,C#2,204.5,0.062,90,120.0
1277,B-4,204.5,0.062,90,120.0
1278,E1,204.51,333/1000,87,120.0
1279,D2,205.0,0.062,110,120.0
1280,E-2,205.0,0.062,110,120.0
1281,F#3,205.021,0.062,91,120.0
1282,D5,205.167,0.5,127,120.0
1283,F#1,205.5,0.312,94,120.0
1284,B-4,205.5,0.062,91,120.0
1285,B4,205.656,271/500,127,120.0
1286,C2,206.0,0.062,101,120.0
1287,C#2,206.0,0.062,101,120.0
1288,A4,206.0,0.062,101,120.0
1289,A4,206.198,271/1000,127,120.0
1290,E4,206.458,3.969,94,120.0
1291,B3,206.458,3.969,94,120.0
1292,G3,206.458,3.969,94,120.0
1293,E1,206.5,0.438,90,120.0
1294,B-4,206.5,0.062,90,120.0
1295,G4,206.688,271/500,127,120.0
1296,D1,207.0,229/500,95,120.0
1297,D2,207.0,0.062,110,120.0
1298,E-2,207.0,0.062,110,120.0
1299,F#3,207.021,0.062,91,120.0
1300,F#4,207.219,6/25,127,120.0
1301,E4,207.448,69/125,127,120.0
1302,E1,207.5,99/500,83,120.0
1303,B-4,207.5,0.062,92,120.0
1304,F#4,207.906,399/100,84,120.0
1305,B3,207.906,399/100,84,120.0
1306,D4,207.906,399/100,84,120.0
1307,A3,207.906,399/100,84,120.0
1308,E4,208.0,151/500,127,120.0
1309,C2,208.0,0.062,108,120.0
1310,A4,208.0,0.062,108,120.0
1311,D1,208.01,51/100,99,120.0
1312,F#4,208.229,0.719,127,120.0
1313,E1,208.5,0.406,89,120.0
1314,B-4,208.5,0.062,91,120.0
1315,G4,208.99,729/1000,127,120.0
1316,D2,209.0,0.062,110,120.0
1317,E-2,209.0,0.062,110,120.0
1318,F#3,209.031,0.062,91,120.0
1319,B3,209.5,0.062,95,120.0
1320,B-4,209.5,0.062,95,120.0
1321,E1,209.51,151/500,95,120.0
1322,A4,209.74,177/250,127,120.0
1323,C2,210.0,0.062,108,120.0
1324,A4,210.0,0.062,108,120.0
1325,E4,210.427,4.0,94,120.0
1326,B3,210.427,4.0,94,120.0
1327,G3,210.427,4.0,94,120.0
1328,B4,210.469,0.75,127,120.0
1329,F#1,210.5,0.5,93,120.0
1330,B-4,210.5,0.062,92,120.0
1331,G1,211.0,49/100,88,120.0
1332,D2,211.0,0.062,110,120.0
1333,E-2,211.0,0.062,110,120.0
1334,F#3,211.021,0.062,91,120.0
1335,D5,211.177,771/1000,127,120.0
1336,F#1,211.5,229/500,96,120.0
1337,B-4,211.5,0.062,91,120.0
1338,F#4,211.896,901/250,84,120.0
1339,B3,211.896,3677/1000,84,120.0
1340,D4,211.896,3677/1000,84,120.0
1341,A3,211.896,3677/1000,84,120.0
1342,E5,211.948,13/250,127,120.0
1343,E5,212.0,13/50,127,120.0
1344,C2,212.0,0.062,109,120.0
1345,A4,212.0,0.062,109,120.0
1346,D1,212.01,0.438,86,120.0
1347,D5,212.188,271/1000,127,120.0
1348,E5,212.448,2573/1000,127,120.0
1349,C#2,212.5,0.062,90,120.0
1350,B-4,212.5,0.062,90,120.0
1351,E1,212.51,0.375,97,120.0
1352,D2,213.0,0.062,110,120.0
1353,E-2,213.0,0.062,110,120.0
1354,F#3,213.021,0.062,91,120.0
1355,F#1,213.5,51/100,98,120.0
1356,B-4,213.5,0.062,92,120.0
1357,C2,214.0,0.062,101,120.0
1358,C#2,214.0,0.062,101,120.0
1359,A4,214.0,0.062,101,120.0
1360,G1,214.01,573/1000,89,120.0
1361,E4,214.427,4.0,94,120.0
1362,B3,214.427,4.0,94,120.0
1363,G3,214.427,4.0,94,120.0
1364,F#1,214.5,51/100,103,120.0
1365,B-4,214.5,0.062,92,120.0
1366,D5,214.948,0.188,127,120.0
1367,B0,215.0,271/500,99,120.0
1368,D2,215.0,0.062,110,120.0
1369,E-2,215.0,0.062,110,120.0
1370,F#3,215.021,0.062,91,120.0
1371,B4,215.052,0.188,127,120.0
1372,A4,215.156,27/200,127,120.0
1373,E1,215.5,0.5,83,120.0
1374,B-4,215.5,0.062,92,120.0
1375,E4,215.865,0.031,84,120.0
1376,B3,215.865,0.031,84,120.0
1377,G3,215.865,0.031,84,120.0
1378,E4,215.896,4.0,84,120.0
1379,B3,215.896,4.0,84,120.0
1380,G3,215.896,4.0,84,120.0
1381,E1,216.0,21/1000,83,120.0
1382,C2,216.0,0.062,109,120.0
1383,A4,216.0,0.062,109,120.0
1384,D1,216.01,573/1000,94,120.0
1385,F#5,216.458,729/1000,127,120.0
1386,E1,216.5,0.438,78,120.0
1387,B-4,216.5,0.062,91,120.0
1388,D2,217.0,0.062,110,120.0
1389,E-2,217.0,0.062,110,120.0
1390,F#3,217.021,0.062,91,120.0
1391,D5,217.229,99/500,127,120.0
1392,E1,217.5,417/1000,86,120.0
1393,B3,217.5,0.062,95,120.0
1394,B-4,217.5,0.062,95,120.0
1395,D5,217.74,13/125,123,120.0
1396,F#5,217.927,521/1000,127,120.0
1397,C2,218.0,0.062,109,120.0
1398,A4,218.0,0.062,109,120.0
1399,E4,218.427,927/250,94,120.0
1400,B3,218.427,3.625,94,120.0
1401,G3,218.427,3.625,94,120.0
1402,D5,218.49,0.531,127,120.0
1403,E1,218.5,56/125,88,120.0
1404,B-4,218.5,0.062,92,120.0
1405,B4,218.969,323/1000,127,120.0
1406,G1,219.0,49/100,92,120.0
1407,D2,219.0,0.062,110,120.0
1408,E-2,219.0,0.062,110,120.0
1409,F#3,219.021,0.062,91,120.0
1410,A4,219.24,13/50,127,120.0
1411,B4,219.448,69/125,127,120.0
1412,E1,219.5,49/100,85,120.0
1413,B-4,219.5,0.062,90,120.0
1414,E4,219.896,4.0,84,120.0
1415,B3,219.896,4.0,84,120.0
1416,G3,219.896,4.0,84,120.0
1417,B4,220.0,1.312,127,120.0
1418,C2,220.0,0.062,110,120.0
1419,A4,220.0,0.062,110,120.0
1420,D1,220.01,573/1000,82,120.0
1421,E1,220.5,0.344,82,120.0
1422,C#2,220.5,0.062,88,120.0
1423,B-4,220.5,0.062,88,120.0
1424,D2,221.0,0.062,110,120.0
1425,E-2,221.0,0.062,110,120.0
1426,F#3,221.021,0.062,91,120.0
1427,B4,221.49,229/1000,127,120.0
1428,F#1,221.5,229/500,88,120.0
1429,B-4,221.5,0.062,91,120.0
1430,D5,221.646,0.219,127,120.0
1431,E5,221.781,0.219,127,120.0
1432,G5,221.99,73/200,127,120.0
1433,C2,222.0,0.062,102,120.0
1434,C#2,222.0,0.062,102,120.0
1435,A4,222.0,0.062,102,120.0
1436,F#5,222.25,151/500,127,120.0
1437,A3,222.385,21/500,94,120.0
1438,C4,222.385,21/500,94,120.0
1439,A3,222.427,4.0,94,120.0
1440,C4,222.427,4.0,94,120.0
1441,E4,222.438,399/100,94,120.0
1442,E5,222.458,0.281,127,120.0
1443,G1,222.5,51/100,89,120.0
1444,B-4,222.5,0.062,91,120.0
1445,D5,222.688,323/1000,127,120.0
1446,E5,222.969,0.281,127,120.0
1447,A1,223.0,0.5,79,120.0
1448,D2,223.0,0.062,110,120.0
1449,E-2,223.0,0.062,110,120.0
1450,F#3,223.021,0.062,91,120.0
1451,D5,223.24,229/1000,127,120.0
1452,C5,223.469,151/500,127,120.0
1453,B-4,223.5,0.062,91,120.0
1454,G1,223.51,56/125,82,120.0
1455,B4,223.719,0.281,127,120.0
1456,E4,223.896,4.0,84,120.0
1457,B3,223.896,4.0,84,120.0
1458,G3,223.896,4.0,84,120.0
1459,C5,223.979,21/1000,127,120.0
1460,C5,224.0,0.25,127,120.0
1461,B4,224.0,21/1000,127,120.0
1462,C2,224.0,0.062,110,120.0
1463,A4,224.0,0.062,110,120.0
1464,D1,224.01,521/1000,84,120.0
1465,B4,224.198,271/1000,127,120.0
1466,A4,224.458,77/200,127,120.0
1467,E1,224.5,73/200,85,120.0
1468,B-4,224.5,0.062,90,120.0
1469,G4,224.76,167/1000,127,120.0
1470,D2,225.0,0.062,110,120.0
1471,E-2,225.0,0.062,110,120.0
1472,F#3,225.021,0.062,91,120.0
1473,F#4,225.25,73/500,127,120.0
1474,B3,225.5,0.062,94,120.0
1475,B-4,225.5,0.062,94,120.0
1476,E1,225.51,0.344,87,120.0
1477,D4,225.771,73/250,127,120.0
1478,E4,225.979,151/100,127,120.0
1479,C2,226.0,0.062,110,120.0
1480,A4,226.0,0.062,110,120.0
1481,E4,226.427,3823/1000,94,120.0
1482,A3,226.427,1823/500,94,120.0
1483,C4,226.427,1823/500,94,120.0
1484,F#1,226.5,479/1000,87,120.0
1485,B-4,226.5,0.062,91,120.0
1486,G1,227.0,0.469,83,120.0
1487,D2,227.0,0.062,110,120.0
1488,E-2,227.0,0.062,110,120.0
1489,F#3,227.021,0.062,91,120.0
1490,F#1,227.5,427/1000,90,120.0
1491,B-4,227.5,0.062,91,120.0
1492,F#4,227.51,0.188,127,120.0
1493,F4,227.594,83/1000,115,120.0
1494,G4,227.792,0.188,127,120.0
1495,E4,227.896,4.0,84,120.0
1496,B3,227.896,4.0,84,120.0
1497,G3,227.896,3.688,84,120.0
1498,C2,228.0,0.062,110,120.0
1499,A4,228.0,0.062,110,120.0
1500,D1,228.01,479/1000,82,120.0
1501,A4,228.271,13/50,127,120.0
1502,C#2,228.5,0.062,89,120.0
1503,B-4,228.5,0.062,89,120.0
1504,E1,228.51,0.312,89,120.0
1505,B4,228.75,0.812,127,120.0
1506,D2,229.0,0.062,110,120.0
1507,E-2,229.0,0.062,110,120.0
1508,F#3,229.031,0.062,91,120.0
1509,E1,229.5,333/1000,89,120.0
1510,B-4,229.5,0.062,90,120.0
1511,A4,229.552,0.281,127,120.0
1512,B-4,229.76,13/50,127,120.0
1513,C2,230.0,0.062,102,120.0
1514,C#2,230.0,0.062,102,120.0
1515,A4,230.0,0.062,102,120.0
1516,B4,230.01,73/250,127,120.0
1517,D5,230.292,0.219,127,120.0
1518,B3,230.354,73/1000,94,120.0
1519,F#4,230.354,73/1000,94,120.0
1520,A3,230.354,73/1000,94,120.0
1521,B3,230.427,4.0,94,120.0
1522,F#4,230.427,4.0,94,120.0
1523,A3,230.427,4.0,94,120.0
1524,D4,230.458,3.969,94,120.0
1525,E1,230.5,49/100,92,120.0
1526,B-4,230.5,0.062,91,120.0
1527,B4,230.781,0.281,127,120.0
1528,D5,230.979,271/500,127,120.0
1529,G1,231.0,0.438,95,120.0
1530,D2,231.0,0.062,110,120.0
1531,E-2,231.0,0.062,110,120.0
1532,F#3,231.021,0.062,91,120.0
1533,B4,231.469,0.531,127,120.0
1534,E1,231.5,479/1000,90,120.0
1535,B-4,231.5,0.062,90,120.0
1536,A3,231.854,21/500,84,120.0
1537,C4,231.854,21/500,84,120.0
1538,E4,231.896,4.0,84,120.0
1539,B3,231.896,1/100,84,120.0
1540,A3,231.896,4.0,84,120.0
1541,C4,231.896,4.0,84,120.0
1542,E-5,231.948,13/250,127,120.0
1543,E5,231.99,1/100,127,120.0
1544,B4,232.0,13/250,127,120.0
1545,E5,232.0,151/500,127,120.0
1546,C2,232.0,0.062,110,120.0
1547,A4,232.0,0.062,110,120.0
1548,D1,232.01,69/125,86,120.0
1549,D5,232.219,0.281,127,120.0
1550,E1,232.5,73/200,89,120.0
1551,B-4,232.5,0.062,91,120.0
1552,B4,232.51,0.344,127,120.0
1553,C5,232.542,0.062,127,120.0
1554,D5,232.781,271/1000,127,120.0
1555,D2,233.0,0.062,110,120.0
1556,E-2,233.0,0.062,110,120.0
1557,B4,233.01,271/1000,127,120.0
1558,F#3,233.021,0.062,91,120.0
1559,A4,233.24,73/250,127,120.0
1560,B3,233.5,0.062,94,120.0
1561,B-4,233.5,0.062,94,120.0
1562,F#1,233.51,0.344,93,120.0
1563,C2,234.0,0.062,109,120.0
1564,A4,234.0,0.062,109,120.0
1565,D4,234.427,727/200,94,120.0
1566,B3,234.427,3.594,94,120.0
1567,F#4,234.427,3.594,94,120.0
1568,A3,234.427,3.594,94,120.0
1569,E1,234.5,49/100,94,120.0
1570,B-4,234.5,0.062,90,120.0
1571,A4,234.51,151/500,127,120.0
1572,B4,234.729,0.281,127,120.0
1573,D5,234.927,0.312,127,120.0
1574,D1,235.0,229/500,86,120.0
1575,D2,235.0,0.062,110,120.0
1576,E-2,235.0,0.062,110,120.0
1577,F#3,235.021,0.062,91,120.0
1578,E5,235.188,73/250,127,120.0
1579,E1,235.5,271/1000,85,120.0
1580,B-4,235.5,0.062,91,120.0
1581,F#5,235.656,73/250,127,120.0
1582,E4,235.896,3.844,84,120.0
1583,A3,235.896,727/200,84,120.0
1584,C4,235.896,727/200,84,120.0
1585,C2,236.0,0.062,109,120.0
1586,A4,236.0,0.062,109,120.0
1587,D1,236.01,229/500,95,120.0
1588,G5,236.167,73/250,127,120.0
1589,F#5,236.417,271/1000,127,120.0
1590,C#2,236.5,0.062,89,120.0
1591,B-4,236.5,0.062,89,120.0
1592,E1,236.51,151/500,86,120.0
1593,E5,236.646,151/500,127,120.0
1594,D5,236.896,323/1000,127,120.0
1595,D2,237.0,0.062,110,120.0
1596,E-2,237.0,0.062,110,120.0
1597,F#3,237.031,0.062,91,120.0
1598,E5,237.177,0.25,127,120.0
1599,D5,237.417,0.219,127,120.0
1600,D1,237.5,151/500,95,120.0
1601,B-4,237.5,0.062,91,120.0
1602,B4,237.656,333/1000,127,120.0
1603,D5,237.938,0.312,127,120.0
1604,C2,238.0,0.062,101,120.0
1605,C#2,238.0,0.062,101,120.0
1606,A4,238.0,0.062,101,120.0
1607,B4,238.167,271/1000,127,120.0
1608,G3,238.385,21/500,94,120.0
1609,E4,238.385,21/500,94,120.0
1610,A4,238.427,0.281,127,120.0
1611,G3,238.427,4.0,94,120.0
1612,E4,238.427,4.0,94,120.0
1613,B3,238.438,399/100,94,120.0
1614,E1,238.5,0.5,97,120.0
1615,B-4,238.5,0.062,91,120.0
1616,G4,238.656,0.312,127,120.0
1617,A4,238.917,0.312,127,120.0
1618,D2,239.0,0.062,110,120.0
1619,E-2,239.0,0.062,110,120.0
1620,D1,239.01,0.438,85,120.0
1621,F#3,239.031,0.062,91,120.0
1622,G4,239.177,6/25,127,120.0
1623,E4,239.417,0.312,127,120.0
1624,E1,239.5,56/125,86,120.0
1625,B-4,239.5,0.062,91,120.0
1626,D4,239.646,6/25,127,120.0
1627,F#4,239.854,21/500,84,120.0
1628,B3,239.854,21/500,84,120.0
1629,A3,239.854,21/500,84,120.0
1630,F#4,239.896,4.0,84,120.0
1631,B3,239.896,4.0,84,120.0
1632,A3,239.896,4.0,84,120.0
1633,D4,239.917,3979/1000,84,120.0
1634,E4,239.927,73/1000,127,120.0
1635,E4,240.0,99/500,127,120.0
1636,C2,240.0,0.062,108,120.0
1637,A4,240.0,0.062,108,120.0
1638,D1,240.01,479/1000,99,120.0
1639,E4,240.479,0.312,127,120.0
1640,E1,240.5,0.344,94,120.0
1641,B-4,240.5,0.062,91,120.0
1642,F#4,240.719,521/1000,127,120.0
1643,D2,241.0,0.062,110,120.0
1644,E-2,241.0,0.062,110,120.0
1645,F#3,241.021,0.062,91,120.0
1646,E4,241.26,271/1000,127,120.0
1647,F#4,241.458,0.719,127,120.0
1648,E1,241.5,333/1000,95,120.0
1649,B3,241.5,0.062,95,120.0
1650,B-4,241.5,0.062,95,120.0
1651,C2,242.0,0.062,108,120.0
1652,A4,242.0,0.062,108,120.0
1653,G4,242.24,37/50,127,120.0
1654,B3,242.427,4.0,94,120.0
1655,G3,242.427,4.0,94,120.0
1656,E4,242.427,4.0,94,120.0
1657,F#1,242.5,0.438,100,120.0
1658,B-4,242.5,0.062,90,120.0
1659,A4,242.99,0.656,127,120.0
1660,G1,243.0,0.469,89,120.0
1661,D2,243.0,0.062,110,120.0
1662,E-2,243.0,0.062,110,120.0
1663,F#3,243.021,0.062,91,120.0
1664,F#1,243.5,56/125,100,120.0
1665,B-4,243.5,0.062,91,120.0
1666,B4,243.688,0.312,127,120.0
1667,D4,243.896,187/50,84,120.0
1668,F#4,243.896,3667/1000,84,120.0
1669,B3,243.896,3667/1000,84,120.0
1670,A3,243.896,3667/1000,84,120.0
1671,B4,244.0,0.438,127,120.0
1672,C2,244.0,0.062,110,120.0
1673,A4,244.0,0.062,110,120.0
1674,B0,244.01,0.531,88,120.0
1675,G4,244.479,0.781,127,120.0
1676,D1,244.5,521/1000,94,120.0
1677,C#2,244.5,0.062,90,120.0
1678,B-4,244.5,0.062,90,120.0
1679,D2,245.0,0.062,110,120.0
1680,E-2,245.0,0.062,110,120.0
1681,F#3,245.021,0.062,91,120.0
1682,A4,245.219,19/25,127,120.0
1683,E1,245.5,573/1000,94,120.0
1684,B-4,245.5,0.062,91,120.0
1685,B4,245.969,112/125,127,120.0
1686,C2,246.0,0.062,102,120.0
1687,C#2,246.0,0.062,102,120.0
1688,A4,246.0,0.062,102,120.0
1689,G1,246.01,0.562,90,120.0
1690,B3,246.427,4.0,94,120.0
1691,G3,246.427,4.0,94,120.0
1692,E4,246.427,4.0,94,120.0
1693,F#1,246.5,49/100,98,120.0
1694,B-4,246.5,0.062,91,120.0
1695,B0,247.0,271/500,92,120.0
1696,D2,247.0,0.062,110,120.0
1697,E-2,247.0,0.062,110,120.0
1698,F#3,247.021,0.062,91,120.0
1699,D1,247.5,0.375,90,120.0
1700,B-4,247.5,0.062,91,120.0
1701,E4,247.906,399/100,84,120.0
1702,B3,247.906,399/100,84,120.0
1703,G3,247.938,1979/500,84,120.0
1704,C2,248.0,0.062,109,120.0
1705,A4,248.0,0.062,109,120.0
1706,D1,248.01,0.531,104,120.0
1707,D5,248.219,417/1000,127,120.0
1708,E1,248.5,229/500,88,120.0
1709,B-4,248.5,0.062,91,120.0
1710,B4,248.75,23/200,116,120.0
1711,D5,248.979,56/125,127,120.0
1712,D2,249.0,0.062,110,120.0
1713,E-2,249.0,0.062,110,120.0
1714,F#3,249.021,0.062,91,120.0
1715,E1,249.5,427/1000,88,120.0
1716,B3,249.5,0.062,94,120.0
1717,B-4,249.5,0.062,94,120.0
1718,D5,249.542,0.094,127,120.0
1719,D5,249.75,127/200,127,120.0
1720,C2,250.0,0.062,109,120.0
1721,A4,250.0,0.062,109,120.0
1722,B3,250.427,3.5,94,120.0
1723,G3,250.427,94/25,94,120.0
1724,E4,250.427,94/25,94,120.0
1725,D5,250.479,1521/1000,127,120.0
1726,E1,250.5,271/500,90,120.0
1727,B-4,250.5,0.062,92,120.0
1728,G1,251.0,51/100,90,120.0
1729,D2,251.0,0.062,110,120.0
1730,E-2,251.0,0.062,110,120.0
1731,F#3,251.031,0.062,91,120.0
1732,E1,251.5,49/100,88,120.0
1733,B-4,251.5,0.062,92,120.0
1734,E4,251.896,4.0,84,120.0
1735,B3,251.896,4.0,84,120.0
1736,G3,251.896,4.0,84,120.0
1737,D5,252.0,479/1000,127,120.0
1738,C2,252.0,0.062,110,120.0
1739,A4,252.0,0.062,110,120.0
1740,D1,252.01,521/1000,85,120.0
1741,B4,252.469,271/1000,127,120.0
1742,C#2,252.5,0.062,90,120.0
1743,B-4,252.5,0.062,90,120.0
1744,E1,252.51,333/1000,80,120.0
1745,D5,252.698,0.5,127,120.0
1746,D2,253.0,0.062,110,120.0
1747,E-2,253.0,0.062,110,120.0
1748,F#3,253.021,0.062,91,120.0
1749,B4,253.188,99/125,127,120.0
1750,D5,253.229,0.062,122,120.0
1751,E1,253.5,77/200,90,120.0
1752,B-4,253.5,0.062,91,120.0
1753,A4,253.979,151/500,127,120.0
1754,C2,254.0,0.062,102,120.0
1755,C#2,254.0,0.062,102,120.0
1756,A4,254.0,0.062,102,120.0
1757,G4,254.198,0.281,127,120.0
1758,E4,254.365,0.062,94,120.0
1759,C4,254.396,0.031,94,120.0
1760,A3,254.396,0.031,94,120.0
1761,F#4,254.427,0.594,127,120.0
1762,E4,254.427,4.0,94,120.0
1763,C4,254.427,4.0,94,120.0
1764,A3,254.427,4.0,94,120.0
1765,F#1,254.5,0.5,94,120.0
1766,B-4,254.5,0.062,91,120.0
1767,G1,255.0,583/1000,104,120.0
1768,D2,255.0,0.062,110,120.0
1769,E-2,255.0,0.062,110,120.0
1770,F#3,255.021,0.062,91,120.0
1771,F#4,255.062,77/200,115,120.0
1772,D4,255.49,49/100,127,120.0
1773,A1,255.5,0.5,90,120.0
1774,B-4,255.5,0.062,91,120.0
1775,E4,255.896,4.0,84,120.0
1776,B3,255.896,4.0,84,120.0
1777,G3,255.896,4.0,84,120.0
1778,E4,255.969,0.031,127,120.0
1779,E4,256.0,6/25,127,120.0
1780,A1,256.0,0.125,90,120.0
1781,C2,256.0,0.062,109,120.0
1782,A4,256.0,0.062,109,120.0
1783,D1,256.01,49/100,95,120.0
1784,G4,256.24,177/250,127,120.0
1785,E1,256.5,0.344,83,120.0
1786,B-4,256.5,0.062,92,120.0
1787,E4,256.969,1521/1000,127,120.0
1788,D2,257.0,0.062,110,120.0
1789,E-2,257.0,0.062,110,120.0
1790,F#3,257.021,0.062,91,120.0
1791,E1,257.5,0.312,90,120.0
1792,B3,257.5,0.062,94,120.0
1793,B-4,257.5,0.062,94,120.0
1794,C2,258.0,0.062,109,120.0
1795,A4,258.0,0.062,109,120.0
1796,E4,258.427,3833/1000,94,120.0
1797,C4,258.427,927/250,94,120.0
1798,A3,258.427,927/250,94,120.0
1799,D4,258.479,73/250,127,120.0
1800,E1,258.5,271/500,87,120.0
1801,B-4,258.5,0.062,91,120.0
1802,E4,258.688,13/50,127,120.0
1803,F#4,258.938,0.219,127,120.0
1804,G1,259.0,0.469,97,120.0
1805,D2,259.0,0.062,110,120.0
1806,E-2,259.0,0.062,110,120.0
1807,F#3,259.021,0.062,91,120.0
1808,G4,259.198,0.25,127,120.0
1809,A4,259.406,13/50,127,120.0
1810,E1,259.5,0.5,88,120.0
1811,B-4,259.5,0.062,92,120.0
1812,B4,259.688,0.312,127,120.0
1813,E4,259.896,4.0,84,120.0
1814,B3,259.896,4.0,84,120.0
1815,G3,259.896,94/25,84,120.0
1816,B4,260.0,229/1000,127,120.0
1817,E1,260.0,1/100,88,120.0
1818,C2,260.0,0.062,109,120.0
1819,A4,260.0,0.062,109,120.0
1820,D1,260.01,49/100,90,120.0
1821,A4,260.219,0.281,127,120.0
1822,B4,260.448,87/50,127,120.0
1823,B-4,260.5,0.062,89,120.0
1824,C#2,260.5,0.062,89,120.0
1825,E1,260.51,0.312,88,120.0
1826,D2,261.0,0.062,110,120.0
1827,E-2,261.0,0.062,110,120.0
1828,F#3,261.021,0.062,91,120.0
1829,E1,261.5,417/1000,87,120.0
1830,B-4,261.5,0.062,90,120.0
1831,C2,262.0,0.062,101,120.0
1832,C#2,262.0,0.062,101,120.0
1833,A4,262.0,0.062,101,120.0
1834,G4,262.177,271/1000,127,120.0
1835,F#4,262.375,13/250,94,120.0
1836,B3,262.375,13/250,94,120.0
1837,D4,262.385,21/500,94,120.0
1838,A3,262.385,21/500,94,120.0
1839,B3,262.385,21/500,94,120.0
1840,A4,262.406,51/100,127,120.0
1841,D4,262.427,4.0,94,120.0
1842,F#4,262.427,4.0,94,120.0
1843,B3,262.427,4.0,94,120.0
1844,A3,262.427,4.0,94,120.0
1845,B3,262.427,4.0,94,120.0
1846,F#1,262.5,0.531,94,120.0
1847,B-4,262.5,0.062,91,120.0
1848,B4,262.635,13/250,115,120.0
1849,B4,262.906,151/500,127,120.0
1850,G1,263.0,51/100,94,120.0
1851,D2,263.0,0.062,110,120.0
1852,E-2,263.0,0.062,110,120.0
1853,F#3,263.021,0.062,91,120.0
1854,D5,263.198,49/100,127,120.0
1855,A1,263.5,0.5,89,120.0
1856,B-4,263.5,0.062,91,120.0
1857,B4,263.677,0.25,127,120.0
1858,A3,263.885,1/100,84,120.0
1859,E4,263.896,4.0,84,120.0
1860,A3,263.896,4.0,84,120.0
1861,D5,263.917,83/1000,127,120.0
1862,C4,263.927,3.969,84,120.0
1863,D5,264.0,6/25,127,120.0
1864,A1,264.0,0.094,89,120.0
1865,C2,264.0,0.062,109,120.0
1866,A4,264.0,0.062,109,120.0
1867,D1,264.01,0.531,89,120.0
1868,E4,264.26,323/1000,127,120.0
1869,E1,264.5,0.375,89,120.0
1870,B-4,264.5,0.062,91,120.0
1871,F#4,264.74,27/200,127,120.0
1872,D2,265.0,0.062,110,120.0
1873,E-2,265.0,0.062,110,120.0
1874,F#4,265.01,0.406,127,120.0
1875,F#3,265.021,0.062,91,120.0
1876,B3,265.5,0.062,95,120.0
1877,B-4,265.5,0.062,95,120.0
1878,G4,265.51,0.156,127,120.0
1879,E1,265.51,73/200,90,120.0
1880,G4,265.729,667/1000,127,120.0
1881,C2,266.0,0.062,109,120.0
1882,A4,266.0,0.062,109,120.0
1883,D4,266.427,3.469,94,120.0
1884,F#4,266.427,901/250,94,120.0
1885,B3,266.427,901/250,94,120.0
1886,A3,266.427,723/200,94,120.0
1887,B3,266.427,723/200,94,120.0
1888,A4,266.458,167/1000,127,120.0
1889,E1,266.5,69/125,87,120.0
1890,B-4,266.5,0.062,91,120.0
1891,A4,266.698,729/1000,127,120.0
1892,F#1,267.0,479/1000,86,120.0
1893,D2,267.0,0.062,110,120.0
1894,E-2,267.0,0.062,110,120.0
1895,F#3,267.021,0.062,91,120.0
1896,B4,267.448,0.156,127,120.0
1897,E1,267.5,0.469,88,120.0
1898,B-4,267.5,0.062,91,120.0
1899,B4,267.667,333/1000,127,120.0
1900,E4,267.896,1901/500,84,120.0
1901,A3,267.896,3.781,84,120.0
1902,C4,267.896,3677/1000,84,120.0
1903,B4,268.0,56/125,127,120.0
1904,C2,268.0,0.062,108,120.0
1905,A4,268.0,0.062,108,120.0
1906,D1,268.01,229/500,88,120.0
1907,D5,268.438,167/1000,127,120.0
1908,C#2,268.5,0.062,89,120.0
1909,B-4,268.5,0.062,89,120.0
1910,E1,268.51,323/1000,87,120.0
1911,D5,268.646,0.75,127,120.0
1912,D2,269.0,0.062,110,120.0
1913,E-2,269.0,0.062,110,120.0
1914,F#3,269.021,0.062,91,120.0
1915,B4,269.438,323/200,127,120.0
1916,D1,269.5,0.375,90,120.0
1917,B-4,269.5,0.062,91,120.0
1918,C2,270.0,0.062,102,120.0
1919,C#2,270.0,0.062,102,120.0
1920,A4,270.0,0.062,102,120.0
1921,B3,270.375,13/250,94,120.0
1922,E4,270.375,13/250,94,120.0
1923,G3,270.375,13/250,94,120.0
1924,B3,270.427,4.0,94,120.0
1925,E4,270.427,4.0,94,120.0
1926,G3,270.427,4.0,94,120.0
1927,E1,270.5,0.531,89,120.0
1928,B-4,270.5,0.062,90,120.0
1929,D1,271.0,0.5,92,120.0
1930,D2,271.0,0.062,110,120.0
1931,E-2,271.0,0.062,110,120.0
1932,F#3,271.021,0.062,91,120.0
1933,B4,271.25,271/1000,127,120.0
1934,D5,271.438,323/1000,127,120.0
1935,E1,271.5,479/1000,89,120.0
1936,B-4,271.5,0.062,91,120.0
1937,B4,271.719,0.188,127,120.0
1938,B3,271.865,0.031,84,120.0
1939,F#4,271.865,0.031,84,120.0
1940,A3,271.875,21/1000,84,120.0
1941,D4,271.875,21/1000,84,120.0
1942,B3,271.896,4.0,84,120.0
1943,F#4,271.896,4.0,84,120.0
1944,A3,271.896,4.0,84,120.0
1945,D4,271.896,4.0,84,120.0
1946,E5,271.927,73/1000,127,120.0
1947,E5,272.0,427/500,127,120.0
1948,C2,272.0,0.062,108,120.0
1949,A4,272.0,0.062,108,120.0
1950,D1,272.01,56/125,97,120.0
1951,E1,272.5,333/1000,90,120.0
1952,B-4,272.5,0.062,91,120.0
1953,E5,272.979,177/200,127,120.0
1954,D2,273.0,0.062,110,120.0
1955,E-2,273.0,0.062,110,120.0
1956,F#3,273.021,0.062,91,120.0
1957,B3,273.5,0.062,94,120.0
1958,B-4,273.5,0.062,94,120.0
1959,E1,273.51,177/500,90,120.0
1960,E5,273.938,927/1000,127,120.0
1961,C2,274.0,0.062,110,120.0
1962,A4,274.0,0.062,110,120.0
1963,B3,274.427,4.0,94,120.0
1964,E4,274.427,4.0,94,120.0
1965,G3,274.427,4.0,94,120.0
1966,F#1,274.5,49/100,96,120.0
1967,B-4,274.5,0.062,90,120.0
1968,E5,274.927,479/500,127,120.0
1969,G1,275.0,479/1000,94,120.0
1970,D2,275.0,0.062,110,120.0
1971,E-2,275.0,0.062,110,120.0
1972,F#3,275.031,0.062,91,120.0
1973,A1,275.5,479/1000,87,120.0
1974,B-4,275.5,0.062,91,120.0
1975,B3,275.896,3.656,84,120.0
1976,F#4,275.896,3.656,84,120.0
1977,A3,275.896,1823/500,84,120.0
1978,D4,275.896,1823/500,84,120.0
1979,E5,275.948,13/250,127,120.0
1980,E5,276.0,1/100,127,120.0
1981,C2,276.0,0.062,109,120.0
1982,A4,276.0,0.062,109,120.0
1983,E5,276.01,333/1000,127,120.0
1984,B0,276.01,0.531,87,120.0
1985,E5,276.49,177/500,127,120.0
1986,D1,276.5,0.375,94,120.0
1987,C#2,276.5,0.062,89,120.0
1988,B-4,276.5,0.062,89,120.0
1989,E5,276.979,0.375,127,120.0
1990,D2,277.0,0.062,110,120.0
1991,E-2,277.0,0.062,110,120.0
1992,F#3,277.021,0.062,91,120.0
1993,E5,277.479,771/500,127,120.0
1994,E1,277.5,573/1000,92,120.0
1995,B-4,277.5,0.062,92,120.0
1996,C2,278.0,0.062,101,120.0
1997,C#2,278.0,0.062,101,120.0
1998,A4,278.0,0.062,101,120.0
1999,G1,278.01,573/1000,95,120.0
2000,B3,278.427,4.0,94,120.0
2001,E4,278.427,4.0,94,120.0
2002,G3,278.427,4.0,94,120.0
2003,F#1,278.5,271/500,103,120.0
2004,B-4,278.5,0.062,91,120.0
2005,B0,279.0,0.594,90,120.0
2006,D2,279.0,0.062,110,120.0
2007,E-2,279.0,0.062,110,120.0
2008,D5,279.01,0.219,127,120.0
2009,F#3,279.021,0.062,91,120.0
2010,B4,279.219,13/50,127,120.0
2011,A4,279.469,6/25,127,120.0
2012,D1,279.5,151/500,97,120.0
2013,B-4,279.5,0.062,90,120.0
2014,G4,279.698,167/1000,127,120.0
2015,E4,279.885,23/200,127,120.0
2016,B3,279.917,3979/1000,84,120.0
2017,E4,279.917,3979/1000,84,120.0
2018,G3,279.917,3979/1000,84,120.0
2019,E4,280.0,0.25,127,120.0
2020,C2,280.0,0.062,110,120.0
2021,A4,280.0,0.062,110,120.0
2022,D1,280.01,521/1000,102,120.0
2023,E1,280.5,417/1000,92,120.0
2024,B-4,280.5,0.062,91,120.0
2025,D2,281.0,0.062,110,120.0
2026,E-2,281.0,0.062,110,120.0
2027,F#3,281.021,0.062,91,120.0
2028,B4,281.052,0.469,127,120.0
2029,B3,281.5,0.062,93,120.0
2030,B-4,281.5,0.062,93,120.0
2031,E1,281.51,99/250,90,120.0
2032,G4,281.531,771/500,127,120.0
2033,C2,282.0,0.062,108,120.0
2034,A4,282.0,0.062,108,120.0
2035,B3,282.427,3.531,94,120.0
2036,E4,282.427,3.688,94,120.0
2037,G3,282.427,3.688,94,120.0
2038,E1,282.5,49/100,90,120.0
2039,B-4,282.5,0.062,90,120.0
2040,G1,283.0,51/100,99,120.0
2041,D2,283.0,0.062,110,120.0
2042,E-2,283.0,0.062,110,120.0
2043,F#3,283.021,0.062,91,120.0
2044,A4,283.031,229/500,127,120.0
2045,E1,283.5,0.5,90,120.0
2046,B-4,283.5,0.062,91,120.0
2047,E4,283.531,0.469,121,120.0
2048,B3,283.896,4.0,84,120.0
2049,E4,283.896,4.0,84,120.0
2050,G3,283.896,4.0,84,120.0
2051,E1,284.0,21/1000,90,120.0
2052,E4,284.0,1599/500,121,120.0
2053,C2,284.0,0.062,109,120.0
2054,A4,284.0,0.062,109,120.0
2055,D1,284.01,0.438,87,120.0
2056,E1,284.5,177/500,87,120.0
2057,C#2,284.5,0.062,88,120.0
2058,B-4,284.5,0.062,88,120.0
2059,D2,285.0,0.062,110,120.0
2060,E-2,285.0,0.062,110,120.0
2061,F#3,285.021,0.062,91,120.0
2062,E1,285.5,0.562,90,120.0
2063,B-4,285.5,0.062,91,120.0
2064,C2,286.0,0.062,102,120.0
2065,C#2,286.0,0.062,102,120.0
2066,A4,286.0,0.062,102,120.0
2067,A3,286.365,0.062,94,120.0
2068,C4,286.365,0.062,94,120.0
2069,E4,286.406,21/1000,94,120.0
2070,E4,286.427,4.0,94,120.0
2071,A3,286.427,4.0,94,120.0
2072,C4,286.427,4.0,94,120.0
2073,F#1,286.5,49/100,98,120.0
2074,B-4,286.5,0.062,92,120.0
2075,G1,287.0,56/125,97,120.0
2076,D2,287.0,0.062,110,120.0
2077,E-2,287.0,0.062,110,120.0
2078,F#3,287.031,0.062,91,120.0
2079,A1,287.5,0.5,87,120.0
2080,B-4,287.5,0.062,91,120.0
2081,B3,287.896,4.0,84,120.0
2082,E4,287.896,4.0,84,120.0
2083,G3,287.896,4.0,84,120.0
2084,A1,288.0,1/100,87,120.0
2085,C2,288.0,0.062,109,120.0
2086,A4,288.0,0.062,109,120.0
2087,D1,288.01,77/200,82,120.0
2088,E1,288.5,99/250,85,120.0
2089,B-4,288.5,0.062,92,120.0
2090,B4,288.99,0.469,127,120.0
2091,D2,289.0,0.062,110,120.0
2092,E-2,289.0,0.062,110,120.0
2093,F#3,289.031,0.062,91,120.0
2094,G4,289.469,1.531,127,120.0
2095,B3,289.5,0.062,95,120.0
2096,B-4,289.5,0.062,95,120.0
2097,E1,289.51,229/500,88,120.0
2098,C2,290.0,0.062,110,120.0
2099,A4,290.0,0.062,110,120.0
2100,E4,290.427,927/250,94,120.0
2101,A3,290.427,723/200,94,120.0
2102,C4,290.427,723/200,94,120.0
2103,F#1,290.5,229/500,103,120.0
2104,B-4,290.5,0.062,91,120.0
2105,A4,290.948,49/100,127,120.0
2106,G1,291.0,427/1000,92,120.0
2107,D2,291.0,0.062,110,120.0
2108,E-2,291.0,0.062,110,120.0
2109,F#3,291.021,0.062,91,120.0
2110,E4,291.458,271/500,127,120.0
2111,A1,291.5,49/100,86,120.0
2112,B-4,291.5,0.062,91,120.0
2113,B3,291.896,4.0,84,120.0
2114,E4,291.896,1487/125,84,120.0
2115,G3,291.896,3.781,84,120.0
2116,E4,292.0,199/100,127,120.0
2117,C2,292.0,0.062,110,120.0
2118,A4,292.0,0.062,110,120.0
2119,D1,292.01,0.469,90,120.0
2120,C#2,292.5,0.062,89,120.0
2121,B-4,292.5,0.062,89,120.0
2122,E1,292.51,73/200,81,120.0
2123,D2,293.0,0.062,110,120.0
2124,E-2,293.0,0.062,110,120.0
2125,F#3,293.021,0.062,91,120.0
2126,E1,293.5,99/250,89,120.0
2127,B-4,293.5,0.062,91,120.0
2128,C2,294.0,0.062,102,120.0
2129,C#2,294.0,0.062,102,120.0
2130,A4,294.0,0.062,102,120.0
2131,F#4,294.292,27/200,94,120.0
2132,B3,294.292,27/200,94,120.0
2133,A3,294.292,27/200,94,120.0
2134,D4,294.385,21/500,94,120.0
2135,D4,294.427,4.0,94,120.0
2136,F#4,294.427,4.0,94,120.0
2137,B3,294.427,4.0,94,120.0
2138,A3,294.427,4.0,94,120.0
2139,F#1,294.5,49/100,94,120.0
2140,B-4,294.5,0.062,90,120.0
2141,G1,295.0,521/1000,85,120.0
2142,D2,295.0,0.062,110,120.0
2143,E-2,295.0,0.062,110,120.0
2144,F#3,295.021,0.062,91,120.0
2145,F#1,295.5,229/500,98,120.0
2146,B-4,295.5,0.062,91,120.0
2147,A3,295.854,21/500,84,120.0
2148,C4,295.885,1/100,84,120.0
2149,D1,296.01,56/125,94,120.0
2150,C2,296.01,0.062,109,120.0
2151,A4,296.01,0.062,109,120.0
2152,E1,296.5,73/200,89,120.0
2153,B-4,296.5,0.062,91,120.0
2154,D2,297.0,0.062,110,120.0
2155,E-2,297.0,0.062,110,120.0
2156,F#3,297.021,0.062,91,120.0
2157,B4,297.031,479/1000,126,120.0
2158,D1,297.5,417/1000,90,120.0
2159,B3,297.5,0.062,94,120.0
2160,B-4,297.5,0.062,94,120.0
2161,G4,297.51,149/100,127,120.0
2162,C2,298.0,0.062,110,120.0
2163,A4,298.0,0.062,110,120.0
2164,D4,298.427,901/250,94,120.0
2165,F#4,298.427,3677/1000,94,120.0
2166,B3,298.427,3677/1000,94,120.0
2167,A3,298.427,3677/1000,94,120.0
2168,E1,298.5,0.531,99,120.0
2169,B-4,298.5,0.062,91,120.0
2170,A4,298.958,0.562,124,120.0
2171,D2,299.0,0.062,110,120.0
2172,E-2,299.0,0.062,110,120.0
2173,F#1,299.01,0.438,94,120.0
2174,F#3,299.021,0.062,91,120.0
2175,E4,299.438,27/200,103,120.0
2176,E1,299.5,0.469,89,120.0
2177,B-4,299.5,0.062,91,120.0
2178,F#4,299.562,0.438,114,120.0
2179,F#4,300.0,2.5,114,120.0
2180,C2,300.0,0.062,108,120.0
2181,A4,300.0,0.062,108,120.0
2182,D1,300.01,0.438,87,120.0
2183,E1,300.5,73/200,84,120.0
2184,C#2,300.5,0.062,89,120.0
2185,B-4,300.5,0.062,89,120.0
2186,D2,301.0,0.062,110,120.0
2187,E-2,301.0,0.062,110,120.0
2188,F#3,301.021,0.062,91,120.0
2189,D1,301.5,0.344,92,120.0
2190,B-4,301.5,0.062,91,120.0
2191,C2,302.0,0.062,101,120.0
2192,C#2,302.0,0.062,101,120.0
2193,A4,302.0,0.062,101,120.0
2194,G3,302.396,0.031,94,120.0
2195,B3,302.396,0.031,94,120.0
2196,E4,302.396,0.031,94,120.0
2197,G3,302.427,4.0,94,120.0
2198,B3,302.427,4.0,94,120.0
2199,E4,302.427,4.0,94,120.0
2200,G4,302.49,127/200,127,120.0
2201,B-4,302.5,0.062,91,120.0
2202,E1,302.51,0.469,90,120.0
2203,D1,303.0,0.438,85,120.0
2204,D2,303.0,0.062,110,120.0
2205,E-2,303.0,0.062,110,120.0
2206,F#4,303.021,521/1000,127,120.0
2207,F#3,303.031,0.062,91,120.0
2208,E1,303.5,479/1000,84,120.0
2209,B-4,303.5,0.062,90,120.0
2210,E4,303.562,0.438,111,120.0
2211,A3,303.792,4.0,84,120.0
2212,C4,303.792,4.0,84,120.0
2213,E4,304.0,3573/1000,111,120.0
2214,C2,304.0,0.062,108,120.0
2215,A4,304.0,0.062,108,120.0
2216,D1,304.01,479/1000,95,120.0
2217,E1,304.5,73/200,90,120.0
2218,B-4,304.5,0.062,91,120.0
2219,D2,305.0,0.062,110,120.0
2220,E-2,305.0,0.062,110,120.0
2221,F#3,305.021,0.062,91,120.0
2222,E1,305.5,99/250,92,120.0
2223,B3,305.5,0.062,94,120.0
2224,B-4,305.5,0.062,94,120.0
2225,C2,306.0,0.062,108,120.0
2226,A4,306.0,0.062,108,120.0
2227,G3,306.427,4.0,94,120.0
2228,B3,306.427,4.0,94,120.0
2229,E4,306.427,4.0,94,120.0
2230,B4,306.438,323/500,127,120.0
2231,F#1,306.5,51/100,98,120.0
2232,B-4,306.5,0.062,91,120.0
2233,A4,306.979,73/250,127,120.0
2234,G1,307.0,0.469,94,120.0
2235,D2,307.0,0.062,110,120.0
2236,E-2,307.0,0.062,110,120.0
2237,F#3,307.021,0.062,91,120.0
2238,G4,307.188,6/25,127,120.0
2239,E4,307.417,583/1000,127,120.0
2240,A1,307.5,0.5,83,120.0
2241,B-4,307.5,0.062,92,120.0
2242,A3,307.792,4.0,84,120.0
2243,C4,307.792,927/250,84,120.0
2244,G4,307.948,13/250,127,120.0
2245,G4,308.0,229/500,127,120.0
2246,E4,308.0,0.031,127,120.0
2247,A1,308.0,21/1000,83,120.0
2248,C2,308.0,0.062,108,120.0
2249,A4,308.0,0.062,108,120.0
2250,D1,308.01,479/1000,90,120.0
2251,A4,308.448,0.469,127,120.0
2252,E1,308.5,0.375,89,120.0
2253,C#2,308.5,0.062,88,120.0
2254,B-4,308.5,0.062,88,120.0
2255,E4,308.969,1479/1000,127,120.0
2256,D2,309.0,0.062,110,120.0
2257,E-2,309.0,0.062,110,120.0
2258,F#3,309.021,0.062,91,120.0
2259,F#1,309.5,1.0,93,120.0
2260,B-4,309.5,0.062,91,120.0
2261,C2,310.0,0.062,101,120.0
2262,C#2,310.0,0.062,101,120.0
2263,A4,310.0,0.062,101,120.0
2264,G3,310.427,4.0,94,120.0
2265,B3,310.427,4.0,94,120.0
2266,E4,310.427,4.0,94,120.0
2267,D4,310.469,13/50,127,120.0
2268,G1,310.5,521/1000,89,120.0
2269,B-4,310.5,0.062,91,120.0
2270,B3,310.708,0.25,127,120.0
2271,A3,310.948,0.25,127,120.0
2272,B3,310.99,13/250,107,120.0
2273,B0,311.0,0.531,88,120.0
2274,D2,311.0,0.062,110,120.0
2275,E-2,311.0,0.062,110,120.0
2276,F#3,311.021,0.062,91,120.0
2277,G3,311.219,0.281,127,120.0
2278,E3,311.458,323/1000,127,120.0
2279,D1,311.5,0.5,97,120.0
2280,B-4,311.5,0.062,91,120.0
2281,F#4,311.74,13/250,84,120.0
2282,D4,311.74,13/250,84,120.0
2283,B3,311.74,13/250,84,120.0
2284,A3,311.792,4.0,84,120.0
2285,F#4,311.792,4.0,84,120.0
2286,D4,311.792,4.0,84,120.0
2287,B3,311.792,4.0,84,120.0
2288,D1,312.0,27/200,97,120.0
2289,C2,312.0,0.062,108,120.0
2290,A4,312.0,0.062,108,120.0
2291,E-1,312.01,0.469,92,120.0
2292,E1,312.5,77/200,90,120.0
2293,B-4,312.5,0.062,92,120.0
2294,D2,313.0,0.062,110,120.0
2295,E-2,313.0,0.062,110,120.0
2296,B4,313.01,521/1000,126,120.0
2297,F#3,313.021,0.062,91,120.0
2298,E1,313.5,323/1000,94,120.0
2299,B3,313.5,0.062,94,120.0
2300,B-4,313.5,0.062,94,120.0
2301,G4,313.531,1521/1000,127,120.0
2302,C2,314.0,0.062,108,120.0
2303,A4,314.0,0.062,108,120.0
2304,G3,314.427,1823/500,94,120.0
2305,B3,314.427,1823/500,94,120.0
2306,E4,314.427,1823/500,94,120.0
2307,E1,314.5,0.5,85,120.0
2308,B-4,314.5,0.062,91,120.0
2309,G1,315.0,51/100,89,120.0
2310,D2,315.0,0.062,110,120.0
2311,E-2,315.0,0.062,110,120.0
2312,A4,315.01,56/125,127,120.0
2313,F#3,315.021,0.062,91,120.0
2314,E1,315.5,0.5,89,120.0
2315,B-4,315.5,0.062,91,120.0
2316,E4,315.51,49/100,116,120.0
2317,A3,315.792,3.531,84,120.0
2318,F#4,315.792,723/200,84,120.0
2319,D4,315.792,723/200,84,120.0
2320,B3,315.792,723/200,84,120.0
2321,E4,316.0,1521/500,116,120.0
2322,C2,316.0,0.062,108,120.0
2323,A4,316.0,0.062,108,120.0
2324,D1,316.01,49/100,90,120.0
2325,C#2,316.5,0.062,89,120.0
2326,B-4,316.5,0.062,89,120.0
2327,E1,316.51,333/1000,81,120.0
2328,D2,317.0,0.062,110,120.0
2329,E-2,317.0,0.062,110,120.0
2330,F#3,317.021,0.062,91,120.0
2331,E1,317.5,0.344,87,120.0
2332,B-4,317.5,0.062,92,120.0
2333,C2,318.0,0.062,102,120.0
2334,C#2,318.0,0.062,102,120.0
2335,A4,318.0,0.062,102,120.0
2336,E4,318.344,83/1000,94,120.0
2337,A3,318.344,83/1000,94,120.0
2338,C4,318.344,83/1000,94,120.0
2339,E4,318.427,4.0,94,120.0
2340,A3,318.427,4.0,94,120.0
2341,C4,318.427,4.0,94,120.0
2342,F#1,318.5,49/100,96,120.0
2343,B-4,318.5,0.062,91,120.0
2344,G1,319.0,229/500,94,120.0
2345,D2,319.0,0.062,110,120.0
2346,E-2,319.0,0.062,110,120.0
2347,F#3,319.021,0.062,91,120.0
2348,A1,319.5,0.5,86,120.0
2349,B-4,319.5,0.062,90,120.0
2350,G3,319.812,3979/1000,84,120.0
2351,E4,319.812,3979/1000,84,120.0
2352,B3,319.812,3979/1000,84,120.0
2353,A1,320.0,1/100,86,120.0
2354,C2,320.0,0.062,108,120.0
2355,A4,320.0,0.062,108,120.0
2356,D1,320.01,0.469,90,120.0
2357,E1,320.5,56/125,92,120.0
2358,B-4,320.5,0.062,90,120.0
2359,B4,320.969,56/125,127,120.0
2360,D2,321.0,0.062,110,120.0
2361,E-2,321.0,0.062,110,120.0
2362,F#3,321.021,0.062,91,120.0
2363,G4,321.458,1.5,127,120.0
2364,E1,321.5,0.5,94,120.0
2365,B3,321.5,0.062,92,120.0
2366,B-4,321.5,0.062,92,120.0
2367,C2,322.0,0.062,110,120.0
2368,A4,322.0,0.062,110,120.0
2369,E4,322.427,3.781,94,120.0
2370,A3,322.427,3.656,94,120.0
2371,C4,322.427,3.656,94,120.0
2372,F#1,322.5,56/125,98,120.0
2373,B-4,322.5,0.062,91,120.0
2374,A4,322.917,0.5,127,120.0
2375,G1,323.0,0.438,94,120.0
2376,D2,323.0,0.062,110,120.0
2377,E-2,323.0,0.062,110,120.0
2378,F#3,323.021,0.062,91,120.0
2379,E4,323.427,573/1000,127,120.0
2380,A1,323.5,0.469,86,120.0
2381,B-4,323.5,0.062,90,120.0
2382,G3,323.792,4.0,84,120.0
2383,E4,323.792,4.0,84,120.0
2384,B3,323.792,4.0,84,120.0
2385,E4,324.0,151/100,127,120.0
2386,C2,324.0,0.062,109,120.0
2387,A4,324.0,0.062,109,120.0
2388,D1,324.01,229/500,95,120.0
2389,E1,324.5,73/200,88,120.0
2390,C#2,324.5,0.062,88,120.0
2391,B-4,324.5,0.062,88,120.0
2392,D2,325.0,0.062,110,120.0
2393,E-2,325.0,0.062,110,120.0
2394,F#3,325.021,0.062,91,120.0
2395,E1,325.5,0.469,90,120.0
2396,B-4,325.5,0.062,90,120.0
2397,C2,326.0,0.062,101,120.0
2398,C#2,326.0,0.062,101,120.0
2399,A4,326.0,0.062,101,120.0
2400,F#4,326.365,0.062,94,120.0
2401,A3,326.365,0.062,94,120.0
2402,B3,326.365,0.062,94,120.0
2403,D4,326.427,4.0,94,120.0
2404,F#4,326.427,4.0,94,120.0
2405,A3,326.427,4.0,94,120.0
2406,B3,326.427,4.0,94,120.0
2407,F#1,326.5,56/125,98,120.0
2408,B-4,326.5,0.062,91,120.0
2409,G1,327.0,229/500,95,120.0
2410,D2,327.0,0.062,110,120.0
2411,E-2,327.0,0.062,110,120.0
2412,F#3,327.021,0.062,91,120.0
2413,A1,327.5,49/100,83,120.0
2414,B-4,327.5,0.062,91,120.0
2415,G3,327.792,4.0,84,120.0
2416,E4,327.792,4.0,84,120.0
2417,B3,327.792,4.0,84,120.0
2418,C2,328.0,0.062,109,120.0
2419,A4,328.0,0.062,109,120.0
2420,D1,328.01,56/125,95,120.0
2421,E1,328.5,73/200,84,120.0
2422,B-4,328.5,0.062,91,120.0
2423,D2,329.0,0.062,110,120.0
2424,E-2,329.0,0.062,110,120.0
2425,B4,329.021,51/100,126,120.0
2426,F#3,329.021,0.062,91,120.0
2427,E1,329.5,99/250,88,120.0
2428,B3,329.5,0.062,94,120.0
2429,B-4,329.5,0.062,94,120.0
2430,G4,329.521,1.531,121,120.0
2431,C2,330.0,0.062,108,120.0
2432,A4,330.0,0.062,108,120.0
2433,D4,330.427,677/200,94,120.0
2434,F#4,330.427,3521/1000,94,120.0
2435,A3,330.427,3521/1000,94,120.0
2436,B3,330.427,3521/1000,94,120.0
2437,D1,330.5,271/500,94,120.0
2438,B-4,330.5,0.062,91,120.0
2439,E1,331.0,479/1000,83,120.0
2440,D2,331.0,0.062,110,120.0
2441,E-2,331.0,0.062,110,120.0
2442,A4,331.01,229/500,127,120.0
2443,F#3,331.021,0.062,91,120.0
2444,E4,331.479,0.219,107,120.0
2445,G1,331.5,479/1000,90,120.0
2446,B-4,331.5,0.062,91,120.0
2447,F#4,331.625,0.375,110,120.0
2448,G3,331.792,3677/1000,84,120.0
2449,E4,331.792,5927/500,84,120.0
2450,B3,331.792,987/250,84,120.0
2451,F#4,332.0,2.5,110,120.0
2452,C2,332.0,0.062,109,120.0
2453,A4,332.0,0.062,109,120.0
2454,D1,332.01,479/1000,104,120.0
2455,C#2,332.5,0.062,88,120.0
2456,B-4,332.5,0.062,88,120.0
2457,E1,332.51,479/1000,85,120.0
2458,D2,333.0,0.062,110,120.0
2459,E-2,333.0,0.062,110,120.0
2460,F#3,333.021,0.062,91,120.0
2461,F#1,333.5,77/200,100,120.0
2462,B-4,333.5,0.062,91,120.0
2463,C2,334.0,0.062,102,120.0
2464,C#2,334.0,0.062,102,120.0
2465,A4,334.0,0.062,102,120.0
2466,B3,334.354,73/1000,94,120.0
2467,G3,334.354,73/1000,94,120.0
2468,E4,334.354,73/1000,94,120.0
2469,G3,334.354,73/1000,94,120.0
2470,B3,334.427,4.0,94,120.0
2471,G3,334.427,4.0,94,120.0
2472,E4,334.427,4.0,94,120.0
2473,G3,334.427,4.0,94,120.0
2474,G4,334.49,271/500,127,120.0
2475,E1,334.5,0.281,89,120.0
2476,B-4,334.5,0.062,91,120.0
2477,F#4,334.99,0.531,127,120.0
2478,D2,335.0,0.062,110,120.0
2479,E-2,335.0,0.062,110,120.0
2480,F#3,335.021,0.062,91,120.0
2481,B0,335.5,229/500,104,120.0
2482,B-4,335.5,0.062,91,120.0
2483,E4,335.552,56/125,121,120.0
2484,A3,335.729,0.062,84,120.0
2485,C4,335.771,21/1000,84,120.0
2486,E4,336.0,3.188,121,120.0
2487,D1,336.01,51/100,107,120.0
2488,C2,336.01,0.062,109,120.0
2489,A4,336.01,0.062,109,120.0
2490,E1,336.5,0.406,87,120.0
2491,B-4,336.5,0.062,91,120.0
2492,E3,336.719,73/250,127,120.0
2493,F#3,336.938,51/100,127,120.0
2494,D2,337.0,0.062,110,120.0
2495,E-2,337.0,0.062,110,120.0
2496,F#3,337.021,0.062,91,120.0
2497,G3,337.469,177/500,127,120.0
2498,E1,337.5,51/100,95,120.0
2499,B3,337.5,0.062,94,120.0
2500,B-4,337.5,0.062,94,120.0
2501,C2,338.0,0.062,110,120.0
2502,A4,338.0,0.062,110,120.0
2503,B3,338.427,4.0,94,120.0
2504,G3,338.427,4.0,94,120.0
2505,E4,338.427,4.0,94,120.0
2506,G3,338.427,4.0,94,120.0
2507,F#1,338.5,51/100,96,120.0
2508,B-4,338.5,0.062,91,120.0
2509,A3,338.74,13/50,127,120.0
2510,B3,338.958,0.531,127,120.0
2511,G1,339.0,229/500,89,120.0
2512,D2,339.0,0.062,110,120.0
2513,E-2,339.0,0.062,110,120.0
2514,F#3,339.021,0.062,91,120.0
2515,D4,339.479,73/200,127,120.0
2516,F#1,339.5,229/500,94,120.0
2517,B-4,339.5,0.062,91,120.0
2518,C2,340.0,0.062,109,120.0
2519,A4,340.0,0.062,109,120.0
2520,D1,340.01,3/1000,86,120.0
2521,D1,340.01,0.406,97,120.0
2522,E1,340.5,417/1000,82,120.0
2523,C#2,340.5,0.062,89,120.0
2524,B-4,340.5,0.062,89,120.0
2525,E4,340.74,73/250,127,120.0
2526,F#4,340.979,0.469,127,120.0
2527,D2,341.0,0.062,110,120.0
2528,E-2,341.0,0.062,110,120.0
2529,F#3,341.021,0.062,91,120.0
2530,G4,341.469,49/100,127,120.0
2531,E1,341.5,417/1000,86,120.0
2532,B-4,341.5,0.062,91,120.0
2533,C2,342.0,0.062,102,120.0
2534,C#2,342.0,0.062,102,120.0
2535,A4,342.0,0.062,102,120.0
2536,A4,342.01,99/500,127,120.0
2537,B4,342.198,13/50,127,120.0
2538,B3,342.427,4.0,94,120.0
2539,G3,342.427,4.0,94,120.0
2540,E4,342.427,4.0,94,120.0
2541,G3,342.427,4.0,94,120.0
2542,D5,342.49,263/250,127,120.0
2543,E1,342.5,479/1000,85,120.0
2544,B-4,342.5,0.062,91,120.0
2545,G1,343.0,49/100,87,120.0
2546,D2,343.0,0.062,110,120.0
2547,E-2,343.0,0.062,110,120.0
2548,F#3,343.021,0.062,91,120.0
2549,B4,343.49,51/100,127,120.0
2550,E1,343.5,479/1000,87,120.0
2551,B-4,343.5,0.062,91,120.0
2552,A3,343.646,4.0,84,120.0
2553,C4,343.646,4.0,84,120.0
2554,B4,344.0,323/500,127,120.0
2555,C2,344.0,0.062,110,120.0
2556,A4,344.0,0.062,110,120.0
2557,D1,344.01,0.531,87,120.0
2558,D4,344.438,0.156,100,120.0
2559,E1,344.5,229/500,85,120.0
2560,B-4,344.5,0.062,91,120.0
2561,E4,344.521,271/500,114,120.0
2562,D2,345.0,0.062,110,120.0
2563,E-2,345.0,0.062,110,120.0
2564,G4,345.021,51/100,126,120.0
2565,F#3,345.031,0.062,91,120.0
2566,D5,345.49,138/125,119,120.0
2567,B3,345.5,0.062,94,120.0
2568,B-4,345.5,0.062,94,120.0
2569,F#1,345.51,479/1000,94,120.0
2570,C2,346.0,0.062,109,120.0
2571,A4,346.0,0.062,109,120.0
2572,G1,346.01,0.5,87,120.0
2573,B3,346.427,1849/500,94,120.0
2574,G3,346.427,1849/500,94,120.0
2575,E4,346.427,1849/500,94,120.0
2576,G3,346.427,1849/500,94,120.0
2577,A1,346.5,583/1000,86,120.0
2578,B-4,346.5,0.062,91,120.0
2579,E4,346.552,521/500,119,120.0
2580,G1,347.0,521/1000,90,120.0
2581,D2,347.0,0.062,110,120.0
2582,E-2,347.0,0.062,110,120.0
2583,F#3,347.021,0.062,91,120.0
2584,F#1,347.5,479/1000,100,120.0
2585,B-4,347.5,0.062,90,120.0
2586,G4,347.542,229/500,119,120.0
2587,A3,347.646,11.906,84,120.0
2588,C4,347.646,3.656,84,120.0
2589,G4,348.0,69/25,119,120.0
2590,C2,348.0,0.062,108,120.0
2591,A4,348.0,0.062,108,120.0
2592,D1,348.01,0.5,87,120.0
2593,C#2,348.5,0.062,88,120.0
2594,B-4,348.5,0.062,88,120.0
2595,E1,348.51,0.344,87,120.0
2596,D2,349.0,0.062,110,120.0
2597,E-2,349.0,0.062,110,120.0
2598,F#3,349.021,0.062,91,120.0
2599,E1,349.5,56/125,89,120.0
2600,B-4,349.5,0.062,91,120.0
2601,C2,350.0,0.062,101,120.0
2602,C#2,350.0,0.062,101,120.0
2603,A4,350.0,0.062,101,120.0
2604,A3,350.396,0.031,94,120.0
2605,C4,350.396,0.031,94,120.0
2606,A3,350.427,4.0,94,120.0
2607,C4,350.427,4.0,94,120.0
2608,E4,350.448,3979/1000,94,120.0
2609,E1,350.5,0.5,87,120.0
2610,B-4,350.5,0.062,90,120.0
2611,G1,351.0,49/100,87,120.0
2612,D2,351.0,0.062,110,120.0
2613,E-2,351.0,0.062,110,120.0
2614,F#3,351.021,0.062,91,120.0
2615,E1,351.5,0.5,82,120.0
2616,B-4,351.5,0.062,90,120.0
2617,B3,351.562,83/1000,84,120.0
2618,F#4,351.562,83/1000,84,120.0
2619,D4,351.573,73/1000,84,120.0
2620,C2,352.0,0.062,108,120.0
2621,A4,352.0,0.062,108,120.0
2622,D1,352.01,49/100,85,120.0
2623,E1,352.5,0.406,84,120.0
2624,B-4,352.5,0.062,90,120.0
2625,D4,352.51,229/500,127,120.0
2626,E4,352.99,49/100,127,120.0
2627,D2,353.0,0.062,110,120.0
2628,E-2,353.0,0.062,110,120.0
2629,F#3,353.021,0.062,91,120.0
2630,D5,353.458,1.094,127,120.0
2631,B3,353.5,0.062,94,120.0
2632,B-4,353.5,0.062,94,120.0
2633,E1,353.51,77/200,88,120.0
2634,C2,354.0,0.062,109,120.0
2635,A4,354.0,0.062,109,120.0
2636,E4,354.427,3.875,94,120.0
2637,A3,354.427,927/250,94,120.0
2638,C4,354.427,927/250,94,120.0
2639,D1,354.5,0.531,95,120.0
2640,B-4,354.5,0.062,91,120.0
2641,E4,354.51,0.938,127,120.0
2642,E1,355.0,51/100,88,120.0
2643,D2,355.0,0.062,110,120.0
2644,E-2,355.0,0.062,110,120.0
2645,F#3,355.031,0.062,91,120.0
2646,G4,355.469,0.531,127,120.0
2647,G1,355.5,49/100,88,120.0
2648,B-4,355.5,0.062,91,120.0
2649,G4,356.0,771/500,127,120.0
2650,C2,356.0,0.062,109,120.0
2651,A4,356.0,0.062,109,120.0
2652,D1,356.01,521/1000,90,120.0
2653,E1,356.5,77/200,87,120.0
2654,C#2,356.5,0.062,89,120.0
2655,B-4,356.5,0.062,89,120.0
2656,D2,357.0,0.062,110,120.0
2657,E-2,357.0,0.062,110,120.0
2658,F#3,357.021,0.062,91,120.0
2659,F#1,357.5,51/100,100,120.0
2660,B-4,357.5,0.062,90,120.0
2661,C2,358.0,0.062,102,120.0
2662,C#2,358.0,0.062,102,120.0
2663,A4,358.0,0.062,102,120.0
2664,G1,358.01,0.531,92,120.0
2665,F#4,358.354,73/1000,94,120.0
2666,B3,358.385,21/500,94,120.0
2667,A3,358.385,21/500,94,120.0
2668,F#4,358.427,4.0,94,120.0
2669,B3,358.427,4.0,94,120.0
2670,A3,358.427,4.0,94,120.0
2671,D4,358.448,3979/1000,94,120.0
2672,F#1,358.5,49/100,91,120.0
2673,B-4,358.5,0.062,91,120.0
2674,E1,359.0,0.469,97,120.0
2675,D2,359.0,0.062,110,120.0
2676,E-2,359.0,0.062,110,120.0
2677,F#3,359.021,0.062,91,120.0
2678,D1,359.5,229/1000,90,120.0
2679,B-4,359.5,0.062,91,120.0
2680,B3,359.552,4.0,84,120.0
2681,F#4,359.552,4.0,84,120.0
2682,D4,359.552,4.0,84,120.0
2683,C2,360.0,0.062,108,120.0
2684,A4,360.0,0.062,108,120.0
2685,D1,360.01,427/1000,90,120.0
2686,D4,360.458,0.156,94,120.0
2687,E1,360.5,77/200,87,120.0
2688,B-4,360.5,0.062,91,120.0
2689,E4,360.542,37/50,101,120.0
2690,D2,361.0,0.062,110,120.0
2691,E-2,361.0,0.062,110,120.0
2692,F#3,361.021,0.062,91,120.0
2693,G4,361.031,0.438,126,120.0
2694,D1,361.5,323/1000,94,120.0
2695,B3,361.5,0.062,94,120.0
2696,B-4,361.5,0.062,94,120.0
2697,D5,361.531,1021/1000,126,120.0
2698,C2,362.0,0.062,109,120.0
2699,A4,362.0,0.062,109,120.0
2700,F#4,362.427,1823/500,94,120.0
2701,D4,362.427,927/250,94,120.0
2702,B3,362.427,474/125,94,120.0
2703,A3,362.427,474/125,94,120.0
2704,E1,362.5,271/500,102,120.0
2705,B-4,362.5,0.062,91,120.0
2706,E4,362.51,101/100,114,120.0
2707,F#1,363.0,479/1000,90,120.0
2708,D2,363.0,0.062,110,120.0
2709,E-2,363.0,0.062,110,120.0
2710,F#3,363.021,0.062,91,120.0
2711,G4,363.438,6/25,96,120.0
2712,E1,363.5,56/125,97,120.0
2713,B-4,363.5,0.062,91,120.0
2714,A4,363.552,56/125,106,120.0
2715,B3,363.552,2073/1000,84,120.0
2716,F#4,363.552,1927/500,84,120.0
2717,D4,363.552,3.781,84,120.0
2718,A4,364.0,1521/1000,106,120.0
2719,C2,364.0,0.062,108,120.0
2720,A4,364.0,0.062,108,120.0
2721,D1,364.01,229/500,92,120.0
2722,E1,364.5,0.375,89,120.0
2723,C#2,364.5,0.062,89,120.0
2724,B-4,364.5,0.062,89,120.0
2725,D2,365.0,0.062,110,120.0
2726,E-2,365.0,0.062,110,120.0
2727,F#3,365.021,0.062,91,120.0
2728,B4,365.479,2427/1000,117,120.0
2729,D1,365.5,77/200,94,120.0
2730,B-4,365.5,0.062,91,120.0
2731,C2,366.0,0.062,101,120.0
2732,C#2,366.0,0.062,101,120.0
2733,A4,366.0,0.062,101,120.0
2734,B3,366.427,4.0,94,120.0
2735,G3,366.427,4.0,94,120.0
2736,E4,366.469,1979/500,94,120.0
2737,B0,366.5,49/100,97,120.0
2738,B-4,366.5,0.062,91,120.0
2739,D1,367.0,479/1000,92,120.0
2740,D2,367.0,0.062,110,120.0
2741,E-2,367.0,0.062,110,120.0
2742,F#3,367.021,0.062,91,120.0
2743,B0,367.5,229/500,89,120.0
2744,B-4,367.5,0.062,90,120.0
2745,E4,367.531,21/1000,84,120.0
2746,B3,367.531,21/1000,84,120.0
2747,G3,367.531,21/1000,84,120.0
2748,E4,367.552,4.0,84,120.0
2749,B3,367.552,4.0,84,120.0
2750,G3,367.552,4.0,84,120.0
2751,C2,368.0,0.062,109,120.0
2752,A4,368.0,0.062,109,120.0
2753,D1,368.01,49/100,94,120.0
2754,B4,368.448,0.469,127,120.0
2755,E1,368.5,0.312,88,120.0
2756,B-4,368.5,0.062,91,120.0
2757,B4,368.958,0.438,127,120.0
2758,D2,369.0,0.062,110,120.0
2759,E-2,369.0,0.062,110,120.0
2760,F#3,369.031,0.062,91,120.0
2761,B4,369.438,0.5,127,120.0
2762,E1,369.5,73/200,95,120.0
2763,B3,369.5,0.062,93,120.0
2764,B-4,369.5,0.062,93,120.0
2765,A4,369.958,151/500,127,120.0
2766,C2,370.0,0.062,110,120.0
2767,A4,370.0,0.062,110,120.0
2768,G4,370.177,0.281,127,120.0
2769,E4,370.406,151/250,127,120.0
2770,F#1,370.5,479/1000,93,120.0
2771,B-4,370.5,0.062,91,120.0
2772,G4,370.958,229/1000,127,120.0
2773,G1,371.0,49/100,88,120.0
2774,D2,371.0,0.062,110,120.0
2775,E-2,371.0,0.062,110,120.0
2776,F#3,371.021,0.062,91,120.0
2777,A4,371.188,0.219,127,120.0
2778,E4,371.427,573/1000,126,120.0
2779,F#1,371.5,0.469,94,120.0
2780,B-4,371.5,0.062,91,120.0
2781,E4,371.552,4.0,84,120.0
2782,B3,371.552,4.0,84,120.0
2783,G3,371.552,4.0,84,120.0
2784,E4,372.0,1.0,126,120.0
2785,D1,372.0,0.562,88,120.0
2786,C2,372.0,0.062,108,120.0
2787,A4,372.0,0.062,108,120.0
2788,C#2,372.5,0.062,88,120.0
2789,B-4,372.5,0.062,88,120.0
2790,E1,372.51,0.5,90,120.0
2791,D2,373.0,0.062,110,120.0
2792,E-2,373.0,0.062,110,120.0
2793,D4,373.021,0.219,127,120.0
2794,F#3,373.031,0.062,91,120.0
2795,B3,373.24,0.188,127,120.0
2796,A3,373.469,6/25,127,120.0
2797,F#1,373.5,51/100,98,120.0
2798,B-4,373.5,0.062,91,120.0
2799,G3,373.708,0.344,127,120.0
2800,G1,374.0,0.594,86,120.0
2801,C2,374.0,0.062,102,120.0
2802,C#2,374.0,0.062,102,120.0
2803,A4,374.0,0.062,102,120.0
2804,E3,374.01,979/500,127,120.0
2805,F#1,374.5,229/500,94,120.0
2806,B-4,374.5,0.062,91,120.0
2807,E1,375.0,229/500,89,120.0
2808,D2,375.0,0.062,110,120.0
2809,E-2,375.0,0.062,110,120.0
2810,F#3,375.031,0.062,91,120.0
2811,D1,375.5,0.25,85,120.0
2812,B-4,375.5,0.062,91,120.0
2813,E4,375.552,4.0,84,120.0
2814,B3,375.552,4.0,84,120.0
2815,G3,375.552,4.0,84,120.0
2816,C2,376.0,0.062,108,120.0
2817,A4,376.0,0.062,108,120.0
2818,D1,376.01,417/1000,89,120.0
2819,E1,376.5,0.406,87,120.0
2820,B-4,376.5,0.062,91,120.0
2821,D2,377.0,0.062,110,120.0
2822,E-2,377.0,0.062,110,120.0
2823,F#3,377.021,0.062,91,120.0
2824,B4,377.031,0.5,126,120.0
2825,G4,377.49,1021/1000,117,120.0
2826,E1,377.5,99/250,90,120.0
2827,B-4,377.5,0.062,91,120.0
2828,C2,378.0,0.062,109,120.0
2829,A4,378.0,0.062,109,120.0
2830,D1,378.5,69/125,95,120.0
2831,A4,378.5,479/500,127,120.0
2832,B-4,378.5,0.062,91,120.0
2833,E1,379.0,51/100,97,120.0
2834,D2,379.0,0.062,110,120.0
2835,E-2,379.0,0.062,110,120.0
2836,F#3,379.021,0.062,91,120.0
2837,G1,379.5,0.5,94,120.0
2838,B-4,379.5,0.062,91,120.0
2839,E4,379.51,49/100,127,120.0
2840,E4,379.552,2987/250,84,120.0
2841,B3,379.552,1979/500,84,120.0
2842,G3,379.552,1979/500,84,120.0
2843,E4,380.0,3073/1000,127,120.0
2844,D1,380.01,417/1000,92,120.0
2845,C2,380.01,0.062,108,120.0
2846,A4,380.01,0.062,108,120.0
2847,C#2,380.5,0.062,88,120.0
2848,B-4,380.5,0.062,88,120.0
2849,E1,380.51,0.406,95,120.0
2850,B4,380.958,0.5,127,120.0
2851,D2,381.0,0.062,110,120.0
2852,E-2,381.0,0.062,110,120.0
2853,F#3,381.031,0.062,91,120.0
2854,G4,381.479,101/100,127,120.0
2855,E1,381.5,479/1000,97,120.0
2856,B-4,381.5,0.062,92,120.0
2857,E4,381.99,4.0,94,120.0
2858,B3,381.99,4.0,94,120.0
2859,G3,381.99,4.0,94,120.0
2860,C2,382.0,0.062,102,120.0
2861,C#2,382.0,0.062,102,120.0
2862,A4,382.0,0.062,102,120.0
2863,A4,382.448,0.969,127,120.0
2864,D1,382.5,49/100,97,120.0
2865,B-4,382.5,0.062,91,120.0
2866,E1,383.0,479/1000,99,120.0
2867,D2,383.0,0.062,110,120.0
2868,E-2,383.0,0.062,110,120.0
2869,F#3,383.021,0.062,91,120.0
2870,E4,383.458,271/500,117,120.0
2871,C4,383.479,73/1000,84,120.0
2872,G1,383.5,0.5,89,120.0
2873,B-4,383.5,0.062,91,120.0
2874,A3,383.51,21/500,84,120.0
2875,G#4,383.729,271/1000,101,120.0
2876,B4,383.948,13/250,101,120.0
2877,E4,384.0,771/500,117,120.0
2878,G#4,384.0,4.0,101,120.0
2879,B4,384.0,4.0,101,120.0
2880,E1,384.01,2083/1000,115,120.0
2881,F#5,384.01,399/100,112,120.0
2882,C2,384.01,0.062,107,120.0
2883,A4,384.01,0.062,107,120.0
2884,E4,385.99,4.0,94,120.0
2885,B3,385.99,4.0,94,120.0
2886,G3,385.99,4.0,94,120.0
2887,G#4,388.0,237/125,101,120.0
2888,B4,388.0,1927/1000,101,120.0
2889,F#5,388.0,1021/500,112,120.0
2890,E4,389.99,1849/500,94,120.0
2891,B3,389.99,3.562,94,120.0
2892,G3,389.99,3.562,94,120.0
2893,C4,391.5,4.0,84,120.0
2894,A3,391.5,4.0,84,120.0
2895,C4,393.906,83/1000,94,120.0
2896,A3,393.906,83/1000,94,120.0
2897,E4,393.917,73/1000,94,120.0
2898,E4,393.99,4.0,94,120.0
2899,C4,393.99,4.0,94,120.0
2900,A3,393.99,4.0,94,120.0
2901,C4,395.5,399/100,84,120.0
2902,A3,395.5,12.0,84,120.0
2903,E4,397.99,927/250,94,120.0
2904,C4,397.99,727/200,94,120.0
2905,A3,397.99,727/200,94,120.0
2906,F#4,399.438,0.062,84,120.0
2907,B3,399.438,0.062,84,120.0
2908,D4,399.438,0.062,84,120.0
2909,F#4,401.844,73/500,94,120.0
2910,A3,401.844,73/500,94,120.0
2911,B3,401.844,73/500,94,120.0
2912,D4,401.948,21/500,94,120.0
2913,D4,401.99,4.0,94,120.0
2914,F#4,401.99,4.0,94,120.0
2915,A3,401.99,4.0,94,120.0
2916,B3,401.99,4.0,94,120.0
2917,D4,405.99,1677/500,94,120.0
2918,F#4,405.99,3.594,94,120.0
2919,A3,405.99,3.594,94,120.0
2920,B3,405.99,3.594,94,120.0
2921,F#4,407.5,4.0,84,120.0
2922,B3,407.5,4.0,84,120.0
2923,D4,407.5,4.0,84,120.0
2924,B3,409.969,21/1000,94,120.0
2925,E4,409.969,21/1000,94,120.0
2926,G3,409.969,21/1000,94,120.0
2927,B3,409.99,4.0,94,120.0
2928,E4,409.99,4.0,94,120.0
2929,G3,409.99,4.0,94,120.0
2930,F#4,411.5,673/200,84,120.0
2931,B3,411.5,3.594,84,120.0
2932,D4,411.5,3.594,84,120.0
2933,B3,413.99,3.844,94,120.0
2934,E4,413.99,3.844,94,120.0
2935,G3,413.99,3.844,94,120.0
2936,G3,415.49,1/100,84,120.0
2937,B3,415.49,1/100,84,120.0
2938,E4,415.49,1/100,84,120.0
2939,G3,415.5,4.0,84,120.0
2940,B3,415.5,4.0,84,120.0
2941,E4,415.5,4.0,84,120.0
2942,E4,418.0,399/100,94,120.0
2943,G3,418.0,987/250,94,120.0
2944,C3,418.0,987/250,94,120.0
2945,C4,418.01,3979/1000,94,120.0
2946,G3,419.5,4.0,84,120.0
2947,B3,419.5,3.969,84,120.0
2948,E4,419.5,4.0,84,120.0
2949,A3,421.906,83/1000,94,120.0
2950,A2,421.906,83/1000,94,120.0
2951,E4,421.99,3.469,94,120.0
2952,C4,421.99,1979/500,94,120.0
2953,A3,421.99,3.438,94,120.0
2954,A2,421.99,4.0,94,120.0
2955,C4,423.458,21/500,84,120.0
2956,G3,423.5,3.688,84,120.0
2957,E4,423.5,4.0,84,120.0
2958,C4,423.5,4.0,84,120.0
2959,A2,425.99,0.125,94,120.0
2960,G#3,425.99,4.0,94,120.0
2961,B3,425.99,4.0,94,120.0
2962,E2,425.99,4.0,94,120.0
2963,F#4,426.031,1979/500,94,120.0
2964,A3,427.469,0.031,84,120.0
2965,E4,427.5,3.781,84,120.0
2966,C4,427.5,3521/1000,84,120.0
2967,A3,427.5,3521/1000,84,120.0
2968,G#3,431.469,0.031,84,120.0
2969,B3,431.469,0.031,84,120.0
2970,F#4,431.469,0.031,84,120.0
2971,G#3,431.5,7083/1000,84,120.0
2972,B3,431.5,7083/1000,84,120.0
2973,F#4,431.5,7083/1000,84,120.0
2974,E2,431.531,3.969,84,120.0
2975,E3,431.531,3.969,84,120.0
2976,F#4,434.562,4.0,94,120.0
2977,G#3,434.562,4.0,94,120.0
2978,B3,434.562,4.0,94,120.0
2979,E2,434.562,4.0,94,120.0
2980,F#4,438.562,69/125,94,120.0
2981,G#3,438.562,573/1000,94,120.0
2982,B3,438.562,573/1000,94,120.0
2983,E2,438.562,573/1000,94,120.0
2984,E2,438.583,3167/1000,84,120.0
2985,E3,438.583,3.094,84,120.0
