,note_name,start_time,duration,velocity,tempo
0,D2,4.0,0.5,110,92.0
1,A2,4.75,0.25,110,92.0
2,D3,5.0,0.25,110,92.0
3,C3,5.25,0.25,110,92.0
4,A2,5.75,0.25,110,92.0
5,F2,6.25,0.25,110,92.0
6,D2,6.5,0.25,110,92.0
7,A1,7.0,0.25,110,92.0
8,C2,7.5,0.25,110,92.0
9,D2,8.0,0.5,110,92.0
10,A2,8.75,0.25,110,92.0
11,D3,9.0,0.25,110,92.0
12,C3,9.25,0.25,110,92.0
13,A2,9.75,0.25,110,92.0
14,F2,10.25,0.25,110,92.0
15,D2,10.5,0.25,110,92.0
16,A1,11.0,0.25,110,92.0
17,C2,11.5,0.25,110,92.0
18,D2,12.0,0.5,110,92.0
19,A2,12.75,0.25,110,92.0
20,D3,13.0,0.25,110,92.0
21,C3,13.25,0.25,110,92.0
22,A2,13.75,0.25,110,92.0
23,F2,14.25,0.25,110,92.0
24,D2,14.5,0.25,110,92.0
25,A1,15.0,0.25,110,92.0
26,C2,15.5,0.25,110,92.0
27,D2,16.0,0.5,110,92.0
28,A2,16.75,0.25,110,92.0
29,D3,17.0,0.25,110,92.0
30,C3,17.25,0.25,110,92.0
31,A2,17.75,0.25,110,92.0
32,B-2,18.0,0.25,120,92.0
33,E2,18.0,0.25,120,92.0
34,F2,18.25,0.25,110,92.0
35,D2,18.5,0.25,110,92.0
36,E2,18.75,0.25,120,92.0
37,A1,19.0,0.25,110,92.0
38,E2,19.0,0.25,120,92.0
39,C2,19.5,0.25,110,92.0
40,B1,19.5,0.25,120,92.0
41,D2,20.0,0.5,110,92.0
42,D4,20.0,0.125,95,92.0
43,C4,20.0,4.0,105,92.0
44,A4,20.0,4.0,105,92.0
45,D4,20.0,4.0,105,92.0
46,F4,20.0,4.0,105,92.0
47,D4,20.0,4.0,105,92.0
48,C4,20.0,4.0,105,92.0
49,F4,20.0,4.0,105,92.0
50,A4,20.0,4.0,105,92.0
51,C#3,20.0,1.0,108,92.0
52,E-3,20.0,1.0,108,92.0
53,F#2,20.0,0.25,102,92.0
54,B1,20.0,0.25,102,92.0
55,A4,20.25,0.125,95,92.0
56,D5,20.5,0.125,95,92.0
57,F#2,20.5,0.25,85,92.0
58,A2,20.75,0.25,110,92.0
59,A4,20.75,0.125,95,92.0
60,D3,21.0,0.25,110,92.0
61,D4,21.0,0.125,95,92.0
62,E-3,21.0,1.0,105,92.0
63,F#2,21.0,0.25,102,92.0
64,E2,21.0,0.25,102,92.0
65,C3,21.25,0.25,110,92.0
66,A4,21.25,0.125,95,92.0
67,E5,21.5,0.125,95,92.0
68,F#2,21.5,0.25,85,92.0
69,A2,21.75,0.25,110,92.0
70,C5,21.75,0.125,95,92.0
71,B1,21.75,0.25,120,92.0
72,D4,22.0,0.125,95,92.0
73,F#2,22.0,0.25,85,92.0
74,E-3,22.0,1.0,105,92.0
75,F2,22.25,0.25,110,92.0
76,A4,22.25,0.125,95,92.0
77,D2,22.5,0.25,110,92.0
78,C5,22.5,0.125,95,92.0
79,F#2,22.5,0.25,85,92.0
80,G4,22.75,0.125,95,92.0
81,B1,22.75,0.25,120,92.0
82,A1,23.0,0.25,110,92.0
83,D4,23.0,0.125,95,92.0
84,E-3,23.0,1.0,105,92.0
85,E2,23.0,0.25,102,92.0
86,F#2,23.0,0.25,102,92.0
87,A4,23.25,0.125,95,92.0
88,C2,23.5,0.25,110,92.0
89,D5,23.5,0.125,95,92.0
90,B1,23.5,0.25,102,92.0
91,F#2,23.5,0.25,102,92.0
92,F4,23.75,0.125,95,92.0
93,D2,24.0,0.5,110,92.0
94,D4,24.0,0.125,95,92.0
95,E-3,24.0,1.0,105,92.0
96,F#2,24.0,0.25,102,92.0
97,B1,24.0,0.25,102,92.0
98,A4,24.25,0.125,95,92.0
99,D5,24.5,0.125,95,92.0
100,F#2,24.5,0.25,85,92.0
101,A2,24.75,0.25,110,92.0
102,C5,24.75,0.125,95,92.0
103,D3,25.0,0.25,110,92.0
104,D4,25.0,0.125,95,92.0
105,E-3,25.0,1.0,105,92.0
106,F#2,25.0,0.25,102,92.0
107,E2,25.0,0.25,102,92.0
108,C3,25.25,0.25,110,92.0
109,A4,25.25,0.125,95,92.0
110,F4,25.5,0.125,95,92.0
111,F#2,25.5,0.25,85,92.0
112,A2,25.75,0.25,110,92.0
113,D5,25.75,0.125,95,92.0
114,B1,25.75,0.25,120,92.0
115,D4,26.0,0.125,95,92.0
116,F#2,26.0,0.25,85,92.0
117,E-3,26.0,1.0,105,92.0
118,F2,26.25,0.25,110,92.0
119,C5,26.25,0.125,95,92.0
120,D2,26.5,0.25,110,92.0
121,E5,26.5,0.125,95,92.0
122,F#2,26.5,0.25,85,92.0
123,G4,26.75,0.125,95,92.0
124,B1,26.75,0.25,120,92.0
125,A1,27.0,0.25,110,92.0
126,D4,27.0,0.125,95,92.0
127,E-3,27.0,1.0,105,92.0
128,G4,27.0,1.0,105,92.0
129,E4,27.0,1.0,105,92.0
130,C5,27.0,1.0,105,92.0
131,D4,27.0,3.0,105,92.0
132,C4,27.0,3.0,105,92.0
133,F4,27.0,3.0,105,92.0
134,A4,27.0,3.0,105,92.0
135,E2,27.0,0.25,102,92.0
136,F#2,27.0,0.25,102,92.0
137,A4,27.25,0.125,95,92.0
138,C2,27.5,0.25,110,92.0
139,D5,27.5,0.125,95,92.0
140,B1,27.5,0.25,102,92.0
141,F#2,27.5,0.25,102,92.0
142,F4,27.75,0.125,95,92.0
143,D2,28.0,0.5,110,92.0
144,D4,28.0,0.125,95,92.0
145,E-3,28.0,1.0,105,92.0
146,C4,28.0,4.0,105,92.0
147,D4,28.0,4.0,105,92.0
148,F4,28.0,4.0,105,92.0
149,A4,28.0,4.0,105,92.0
150,F#2,28.0,0.25,102,92.0
151,B1,28.0,0.25,102,92.0
152,A4,28.25,0.125,95,92.0
153,D5,28.5,0.125,95,92.0
154,F#2,28.5,0.25,85,92.0
155,A2,28.75,0.25,110,92.0
156,A4,28.75,0.125,95,92.0
157,A5,28.942,1529/500,90,92.0
158,D3,29.0,0.25,110,92.0
159,D4,29.0,0.125,95,92.0
160,E-3,29.0,1.0,105,92.0
161,F#2,29.0,0.25,102,92.0
162,E2,29.0,0.25,102,92.0
163,C3,29.25,0.25,110,92.0
164,A4,29.25,0.125,95,92.0
165,E5,29.5,0.125,95,92.0
166,F#2,29.5,0.25,85,92.0
167,F5,29.692,577/250,90,92.0
168,A2,29.75,0.25,110,92.0
169,C5,29.75,0.125,95,92.0
170,B1,29.75,0.25,120,92.0
171,D4,30.0,0.125,95,92.0
172,F#2,30.0,0.25,85,92.0
173,E-3,30.0,1.0,105,92.0
174,G4,30.0,1.0,105,92.0
175,E4,30.0,1.0,105,92.0
176,C5,30.0,1.0,105,92.0
177,F2,30.25,0.25,110,92.0
178,A4,30.25,0.125,95,92.0
179,D5,30.5,1.5,90,92.0
180,D2,30.5,0.25,110,92.0
181,C5,30.5,0.125,95,92.0
182,F#2,30.5,0.25,85,92.0
183,G4,30.75,0.125,95,92.0
184,B1,30.75,0.25,120,92.0
185,A1,31.0,0.25,110,92.0
186,D4,31.0,0.125,95,92.0
187,E-3,31.0,1.0,105,92.0
188,C4,31.0,4.0,105,92.0
189,D4,31.0,4.0,105,92.0
190,F4,31.0,4.0,105,92.0
191,A4,31.0,4.0,105,92.0
192,E2,31.0,0.25,102,92.0
193,F#2,31.0,0.25,102,92.0
194,A4,31.25,0.125,95,92.0
195,C2,31.5,0.25,110,92.0
196,D5,31.5,0.125,95,92.0
197,B1,31.5,0.25,102,92.0
198,F#2,31.5,0.25,102,92.0
199,A4,31.6,2/5,90,92.0
200,F4,31.75,0.125,95,92.0
201,A5,31.942,1529/500,90,92.0
202,A5,32.0,471/500,90,92.0
203,F5,32.0,423/250,90,92.0
204,D5,32.0,2.5,90,92.0
205,A4,32.0,18/5,90,92.0
206,D2,32.0,0.5,110,92.0
207,D4,32.0,0.125,95,92.0
208,E-3,32.0,1.0,105,92.0
209,C4,32.0,0.75,105,92.0
210,E4,32.0,0.75,105,92.0
211,G4,32.0,0.75,105,92.0
212,F#2,32.0,0.25,102,92.0
213,B1,32.0,0.25,102,92.0
214,A4,32.25,0.125,95,92.0
215,D5,32.5,0.125,95,92.0
216,F#2,32.5,0.25,85,92.0
217,F5,32.692,577/250,90,92.0
218,A2,32.75,0.25,110,92.0
219,C5,32.75,0.125,95,92.0
220,A3,32.75,1.0,105,92.0
221,D4,32.75,1.0,105,92.0
222,F4,32.75,1.0,105,92.0
223,D3,33.0,0.25,110,92.0
224,D4,33.0,0.125,95,92.0
225,E-3,33.0,1.0,105,92.0
226,F#2,33.0,0.25,102,92.0
227,E2,33.0,0.25,102,92.0
228,C3,33.25,0.25,110,92.0
229,A4,33.25,0.125,95,92.0
230,D5,33.5,1.5,90,92.0
231,F4,33.5,0.125,95,92.0
232,F#2,33.5,0.25,85,92.0
233,A2,33.75,0.25,110,92.0
234,D5,33.75,0.125,95,92.0
235,B1,33.75,0.25,120,92.0
236,G3,33.75,1.0,105,92.0
237,C4,33.75,1.0,105,92.0
238,E4,33.75,1.0,105,92.0
239,D4,34.0,0.125,95,92.0
240,F#2,34.0,0.25,85,92.0
241,E-3,34.0,1.0,105,92.0
242,F2,34.25,0.25,110,92.0
243,C5,34.25,0.125,95,92.0
244,D2,34.5,0.25,110,92.0
245,E5,34.5,0.125,95,92.0
246,F#2,34.5,0.25,85,92.0
247,A4,34.6,2/5,90,92.0
248,G4,34.75,0.125,95,92.0
249,B1,34.75,0.25,120,92.0
250,A3,34.75,1.0,105,92.0
251,D4,34.75,1.0,105,92.0
252,F4,34.75,1.0,105,92.0
253,A1,35.0,0.25,110,92.0
254,A5,35.0,471/500,90,92.0
255,F5,35.0,423/250,90,92.0
256,D5,35.0,2.5,90,92.0
257,A4,35.0,18/5,90,92.0
258,D4,35.0,0.125,95,92.0
259,E-3,35.0,1.0,105,92.0
260,C4,35.0,0.75,105,92.0
261,E4,35.0,0.75,105,92.0
262,G4,35.0,0.75,105,92.0
263,E2,35.0,0.25,102,92.0
264,F#2,35.0,0.25,102,92.0
265,A4,35.25,0.125,95,92.0
266,C2,35.5,0.25,110,92.0
267,D5,35.5,0.125,95,92.0
268,B1,35.5,0.25,102,92.0
269,F#2,35.5,0.25,102,92.0
270,F4,35.75,0.125,95,92.0
271,A3,35.75,1.0,105,92.0
272,D4,35.75,1.0,105,92.0
273,F4,35.75,1.0,105,92.0
274,F4,36.0,3.75,105,92.0
275,D2,36.0,0.5,110,92.0
276,D4,36.0,0.125,95,92.0
277,E-3,36.0,1.0,105,92.0
278,A3,36.0,4.0,105,92.0
279,D4,36.0,4.0,105,92.0
280,C5,36.0,4.0,105,92.0
281,F#2,36.0,0.25,102,92.0
282,B1,36.0,0.25,102,92.0
283,A4,36.25,0.125,95,92.0
284,D5,36.5,0.125,95,92.0
285,F#2,36.5,0.25,85,92.0
286,A2,36.75,0.25,110,92.0
287,A4,36.75,0.125,95,92.0
288,G3,36.75,1.0,105,92.0
289,C4,36.75,1.0,105,92.0
290,E4,36.75,1.0,105,92.0
291,D3,37.0,0.25,110,92.0
292,D4,37.0,0.125,95,92.0
293,E-3,37.0,1.0,105,92.0
294,F#2,37.0,0.25,102,92.0
295,E2,37.0,0.25,102,92.0
296,C3,37.25,0.25,110,92.0
297,A4,37.25,0.125,95,92.0
298,E5,37.5,0.125,95,92.0
299,F#2,37.5,0.25,85,92.0
300,A2,37.75,0.25,110,92.0
301,C5,37.75,0.125,95,92.0
302,B1,37.75,0.25,120,92.0
303,A3,37.75,1.0,105,92.0
304,D4,37.75,1.0,105,92.0
305,F4,37.75,1.0,105,92.0
306,D4,38.0,0.125,95,92.0
307,F#2,38.0,0.25,85,92.0
308,E-3,38.0,1.0,105,92.0
309,F2,38.25,0.25,110,92.0
310,A4,38.25,0.125,95,92.0
311,D2,38.5,0.25,110,92.0
312,C5,38.5,0.125,95,92.0
313,F#2,38.5,0.25,85,92.0
314,G4,38.75,0.125,95,92.0
315,B1,38.75,0.25,120,92.0
316,A1,39.0,0.25,110,92.0
317,F4,39.0,3.75,105,92.0
318,D4,39.0,0.125,95,92.0
319,E-3,39.0,1.0,105,92.0
320,A3,39.0,4.0,105,92.0
321,D4,39.0,4.0,105,92.0
322,C5,39.0,4.0,105,92.0
323,E2,39.0,0.25,102,92.0
324,F#2,39.0,0.25,102,92.0
325,A4,39.25,0.125,95,92.0
326,F4,39.5,0.5,105,92.0
327,C2,39.5,0.25,110,92.0
328,D5,39.5,0.125,95,92.0
329,D5,39.5,0.25,105,92.0
330,A4,39.5,0.25,105,92.0
331,F5,39.5,0.25,105,92.0
332,B1,39.5,0.25,102,92.0
333,F#2,39.5,0.25,102,92.0
334,F4,39.75,0.125,95,92.0
335,D5,39.75,0.25,105,92.0
336,A4,39.75,0.25,105,92.0
337,F5,39.75,0.25,105,92.0
338,F4,39.75,0.25,105,92.0
339,D2,40.0,0.5,110,92.0
340,D4,40.0,0.125,95,92.0
341,E-3,40.0,1.0,105,92.0
342,F#2,40.0,0.25,102,92.0
343,B1,40.0,0.25,102,92.0
344,A4,40.25,0.125,95,92.0
345,D5,40.5,0.125,95,92.0
346,F#2,40.5,0.25,85,92.0
347,A2,40.75,0.25,110,92.0
348,C5,40.75,0.125,95,92.0
349,D3,41.0,0.25,110,92.0
350,D4,41.0,0.125,95,92.0
351,E-3,41.0,1.0,105,92.0
352,F#2,41.0,0.25,102,92.0
353,E2,41.0,0.25,102,92.0
354,C3,41.25,0.25,110,92.0
355,A4,41.25,0.125,95,92.0
356,F4,41.5,0.125,95,92.0
357,F#2,41.5,0.25,85,92.0
358,A2,41.75,0.25,110,92.0
359,D5,41.75,0.125,95,92.0
360,B1,41.75,0.25,120,92.0
361,D4,42.0,0.125,95,92.0
362,F#2,42.0,0.25,85,92.0
363,E-3,42.0,1.0,105,92.0
364,F2,42.25,0.25,110,92.0
365,C5,42.25,0.125,95,92.0
366,D2,42.5,0.25,110,92.0
367,F4,42.5,0.5,105,92.0
368,E5,42.5,0.125,95,92.0
369,F#2,42.5,0.25,85,92.0
370,D5,42.5,0.25,105,92.0
371,A4,42.5,0.25,105,92.0
372,F5,42.5,0.25,105,92.0
373,G4,42.75,0.125,95,92.0
374,B1,42.75,0.25,120,92.0
375,D5,42.75,0.25,105,92.0
376,A4,42.75,0.25,105,92.0
377,F5,42.75,0.25,105,92.0
378,F4,42.75,0.25,105,92.0
379,A1,43.0,0.25,110,92.0
380,D4,43.0,0.125,95,92.0
381,E-3,43.0,1.0,105,92.0
382,E4,43.0,1.0,105,92.0
383,G4,43.0,1.0,105,92.0
384,B-4,43.0,1.0,105,92.0
385,E5,43.0,1.0,105,92.0
386,E2,43.0,0.25,102,92.0
387,F#2,43.0,0.25,102,92.0
388,A4,43.25,0.125,95,92.0
389,C2,43.5,0.25,110,92.0
390,D5,43.5,0.125,95,92.0
391,B1,43.5,0.25,102,92.0
392,F#2,43.5,0.25,102,92.0
393,F4,43.75,0.125,95,92.0
394,D2,44.0,0.5,110,92.0
395,D4,44.0,0.125,95,92.0
396,E-3,44.0,1.0,105,92.0
397,C4,44.0,0.75,105,92.0
398,E4,44.0,0.75,105,92.0
399,G4,44.0,0.75,105,92.0
400,F#2,44.0,0.25,102,92.0
401,B1,44.0,0.25,102,92.0
402,A4,44.25,0.125,95,92.0
403,D5,44.5,0.125,95,92.0
404,F#2,44.5,0.25,85,92.0
405,A2,44.75,0.25,110,92.0
406,A4,44.75,0.125,95,92.0
407,A3,44.75,1.0,105,92.0
408,D4,44.75,1.0,105,92.0
409,F4,44.75,1.0,105,92.0
410,D3,45.0,0.25,110,92.0
411,D4,45.0,0.125,95,92.0
412,E-3,45.0,1.0,105,92.0
413,F#2,45.0,0.25,102,92.0
414,E2,45.0,0.25,102,92.0
415,C3,45.25,0.25,110,92.0
416,A4,45.25,0.125,95,92.0
417,E5,45.5,0.125,95,92.0
418,F#2,45.5,0.25,85,92.0
419,A2,45.75,0.25,110,92.0
420,C5,45.75,0.125,95,92.0
421,B1,45.75,0.25,120,92.0
422,G3,45.75,1.0,105,92.0
423,C4,45.75,1.0,105,92.0
424,E4,45.75,1.0,105,92.0
425,D4,46.0,0.125,95,92.0
426,F#2,46.0,0.25,85,92.0
427,E-3,46.0,1.0,105,92.0
428,E4,46.0,1.0,105,92.0
429,G4,46.0,1.0,105,92.0
430,B-4,46.0,1.0,105,92.0
431,E5,46.0,1.0,105,92.0
432,F2,46.25,0.25,110,92.0
433,A4,46.25,0.125,95,92.0
434,D2,46.5,0.25,110,92.0
435,C5,46.5,0.125,95,92.0
436,F#2,46.5,0.25,85,92.0
437,G4,46.75,0.125,95,92.0
438,B1,46.75,0.25,120,92.0
439,A3,46.75,1.0,105,92.0
440,D4,46.75,1.0,105,92.0
441,F4,46.75,1.0,105,92.0
442,A1,47.0,0.25,110,92.0
443,D4,47.0,0.125,95,92.0
444,E-3,47.0,1.0,105,92.0
445,C4,47.0,0.75,105,92.0
446,E4,47.0,0.75,105,92.0
447,G4,47.0,0.75,105,92.0
448,E2,47.0,0.25,102,92.0
449,F#2,47.0,0.25,102,92.0
450,A4,47.25,0.125,95,92.0
451,C2,47.5,0.25,110,92.0
452,D5,47.5,0.125,95,92.0
453,B1,47.5,0.25,102,92.0
454,F#2,47.5,0.25,102,92.0
455,F4,47.75,0.125,95,92.0
456,A3,47.75,1.0,105,92.0
457,D4,47.75,1.0,105,92.0
458,F4,47.75,1.0,105,92.0
459,C4,47.875,0.125,105,92.0
460,F4,47.875,0.125,105,92.0
461,D2,48.0,0.5,110,92.0
462,D4,48.0,0.125,95,92.0
463,E-3,48.0,1.0,105,92.0
464,E5,48.0,4.0,105,92.0
465,A4,48.0,4.0,105,92.0
466,C4,48.0,3.875,105,92.0
467,F4,48.0,3.875,105,92.0
468,F#2,48.0,0.25,102,92.0
469,B1,48.0,0.25,102,92.0
470,D3,48.25,927/250,127,92.0
471,A4,48.25,0.125,95,92.0
472,G3,48.5,1729/500,104,92.0
473,D5,48.5,0.125,95,92.0
474,F#2,48.5,0.25,85,92.0
475,A3,48.75,401/125,117,92.0
476,A2,48.75,0.25,110,92.0
477,C5,48.75,0.125,95,92.0
478,G3,48.75,1.0,105,92.0
479,C4,48.75,1.0,105,92.0
480,E4,48.75,1.0,105,92.0
481,C4,49.0,1479/500,127,92.0
482,D3,49.0,0.25,110,92.0
483,D4,49.0,0.125,95,92.0
484,E-3,49.0,1.0,105,92.0
485,F#2,49.0,0.25,102,92.0
486,E2,49.0,0.25,102,92.0
487,D4,49.25,333/1000,120,92.0
488,C3,49.25,0.25,110,92.0
489,A4,49.25,0.125,95,92.0
490,G4,49.5,2383/1000,114,92.0
491,F4,49.5,0.125,95,92.0
492,F#2,49.5,0.25,85,92.0
493,E4,49.75,69/40,101,92.0
494,A2,49.75,0.25,110,92.0
495,D5,49.75,0.125,95,92.0
496,B1,49.75,0.25,120,92.0
497,A3,49.75,1.0,105,92.0
498,D4,49.75,1.0,105,92.0
499,F4,49.75,1.0,105,92.0
500,D4,50.0,0.125,95,92.0
501,F#2,50.0,0.25,85,92.0
502,E-3,50.0,1.0,105,92.0
503,D3,50.25,0.25,110,92.0
504,C5,50.25,0.125,95,92.0
505,D2,50.5,0.25,110,92.0
506,E5,50.5,0.125,95,92.0
507,F#2,50.5,0.25,85,92.0
508,G4,50.75,0.125,95,92.0
509,E2,50.75,0.25,120,92.0
510,B1,50.75,0.25,120,92.0
511,D4,50.817,1.0,104,92.0
512,C5,50.817,1.0,104,92.0
513,C4,50.875,0.125,105,92.0
514,F4,50.875,0.125,105,92.0
515,G4,50.883,43/40,104,92.0
516,E5,51.0,1.0,104,92.0
517,A2,51.0,0.25,110,92.0
518,D4,51.0,0.125,95,92.0
519,E-3,51.0,1.0,105,92.0
520,E5,51.0,4.0,105,92.0
521,A4,51.0,4.0,105,92.0
522,C4,51.0,3.875,105,92.0
523,F4,51.0,3.875,105,92.0
524,E2,51.0,0.25,102,92.0
525,F#2,51.0,0.25,102,92.0
526,D3,51.25,927/250,127,92.0
527,A4,51.25,0.125,95,92.0
528,C2,51.5,0.25,110,92.0
529,G3,51.5,1729/500,104,92.0
530,D5,51.5,0.125,95,92.0
531,B1,51.5,0.25,102,92.0
532,F#2,51.5,0.25,102,92.0
533,A3,51.75,401/125,117,92.0
534,F4,51.75,0.125,95,92.0
535,E2,51.75,0.25,120,92.0
536,D2,52.0,0.5,110,92.0
537,C4,52.0,1479/500,127,92.0
538,D4,52.0,0.125,95,92.0
539,C#3,52.0,1.0,110,92.0
540,F#2,52.0,0.25,102,92.0
541,B1,52.0,0.25,102,92.0
542,D4,52.25,333/1000,120,92.0
543,A4,52.25,0.125,95,92.0
544,G4,52.5,2383/1000,114,92.0
545,D5,52.5,0.125,95,92.0
546,F#2,52.5,0.25,85,92.0
547,D2,52.75,0.25,110,92.0
548,E4,52.75,69/40,101,92.0
549,A4,52.75,0.125,95,92.0
550,A4,52.75,0.5,110,92.0
551,A4,52.75,11/20,105,92.0
552,G4,52.75,11/20,105,92.0
553,C4,52.75,11/20,105,92.0
554,D4,52.75,11/20,105,92.0
555,A2,53.0,0.25,110,92.0
556,D4,53.0,0.125,95,92.0
557,F#2,53.0,0.25,102,92.0
558,E2,53.0,0.25,102,92.0
559,C4,53.242,3/40,105,92.0
560,E4,53.242,3/40,105,92.0
561,G4,53.242,3/40,105,92.0
562,B4,53.242,3/40,105,92.0
563,A2,53.25,0.25,110,92.0
564,A4,53.25,0.125,95,92.0
565,B4,53.25,0.25,110,92.0
566,E5,53.5,0.125,95,92.0
567,F#2,53.5,0.25,85,92.0
568,D2,53.75,0.25,110,92.0
569,C5,53.75,0.125,95,92.0
570,B4,53.75,0.5,110,92.0
571,B1,53.75,0.25,120,92.0
572,B4,53.75,0.5,105,92.0
573,C4,53.75,0.5,105,92.0
574,E4,53.75,0.5,105,92.0
575,G4,53.75,0.5,105,92.0
576,D4,53.817,1.0,104,92.0
577,C5,53.817,1.0,104,92.0
578,G4,53.883,43/40,104,92.0
579,E5,54.0,1.0,104,92.0
580,D4,54.0,0.125,95,92.0
581,F#2,54.0,0.25,85,92.0
582,F2,54.25,0.25,110,92.0
583,A4,54.25,0.125,95,92.0
584,C5,54.25,0.25,110,92.0
585,C5,54.25,3/40,105,92.0
586,D4,54.25,3/40,105,92.0
587,F4,54.25,3/40,105,92.0
588,A4,54.25,3/40,105,92.0
589,D2,54.5,0.25,110,92.0
590,C5,54.5,0.125,95,92.0
591,F#2,54.5,0.25,85,92.0
592,D4,54.742,1.25,105,92.0
593,F4,54.742,1.25,105,92.0
594,C5,54.742,1.25,105,92.0
595,A4,54.742,1.25,105,92.0
596,G4,54.75,0.125,95,92.0
597,C5,54.75,1.0,110,92.0
598,B1,54.75,0.25,120,92.0
599,A2,55.0,0.25,110,92.0
600,D4,55.0,0.125,95,92.0
601,E2,55.0,0.25,102,92.0
602,F#2,55.0,0.25,102,92.0
603,A4,55.25,0.125,95,92.0
604,C2,55.5,0.25,110,92.0
605,D5,55.5,0.125,95,92.0
606,B1,55.5,0.25,102,92.0
607,F#2,55.5,0.25,102,92.0
608,F4,55.75,0.125,95,92.0
609,A4,55.75,11/20,105,92.0
610,G4,55.75,11/20,105,92.0
611,C4,55.75,11/20,105,92.0
612,D4,55.75,11/20,105,92.0
613,D2,56.0,0.5,110,92.0
614,D4,56.0,0.125,95,92.0
615,F#2,56.0,0.25,102,92.0
616,B1,56.0,0.25,102,92.0
617,C4,56.242,3/40,105,92.0
618,E4,56.242,3/40,105,92.0
619,G4,56.242,3/40,105,92.0
620,B4,56.242,3/40,105,92.0
621,A4,56.25,0.125,95,92.0
622,D5,56.5,0.125,95,92.0
623,F#2,56.5,0.25,85,92.0
624,D2,56.75,0.25,110,92.0
625,C5,56.75,0.125,95,92.0
626,C5,56.75,0.5,110,92.0
627,C5,56.75,0.5,105,92.0
628,C4,56.75,0.5,105,92.0
629,E4,56.75,0.5,105,92.0
630,G4,56.75,0.5,105,92.0
631,B4,56.75,0.5,105,92.0
632,C4,56.75,0.5,105,92.0
633,E4,56.75,0.5,105,92.0
634,G4,56.75,0.5,105,92.0
635,A2,57.0,0.25,110,92.0
636,D4,57.0,0.125,95,92.0
637,F#2,57.0,0.25,102,92.0
638,E2,57.0,0.25,102,92.0
639,A2,57.25,0.25,110,92.0
640,A4,57.25,0.125,95,92.0
641,D5,57.25,0.25,110,92.0
642,D5,57.25,3/40,105,92.0
643,F4,57.25,3/40,105,92.0
644,A4,57.25,3/40,105,92.0
645,C4,57.25,3/40,105,92.0
646,C5,57.25,3/40,105,92.0
647,D4,57.25,3/40,105,92.0
648,F4,57.25,3/40,105,92.0
649,A4,57.25,3/40,105,92.0
650,F4,57.5,0.125,95,92.0
651,F#2,57.5,0.25,85,92.0
652,D4,57.742,1.25,105,92.0
653,F4,57.742,1.25,105,92.0
654,C5,57.742,1.25,105,92.0
655,A4,57.742,1.25,105,92.0
656,C4,57.75,23/40,105,92.0
657,D2,57.75,0.25,110,92.0
658,D5,57.75,0.125,95,92.0
659,D5,57.75,0.5,110,92.0
660,B1,57.75,0.25,120,92.0
661,D5,57.75,1.0,105,92.0
662,F4,57.75,1.0,105,92.0
663,A4,57.75,1.0,105,92.0
664,D4,58.0,0.125,95,92.0
665,F#2,58.0,0.25,85,92.0
666,G4,58.242,3/40,105,92.0
667,E5,58.242,3/40,105,92.0
668,B4,58.242,3/40,105,92.0
669,E4,58.242,3/40,105,92.0
670,C4,58.25,0.5,105,92.0
671,F2,58.25,0.25,110,92.0
672,C5,58.25,0.125,95,92.0
673,E5,58.25,0.25,110,92.0
674,D2,58.5,0.25,110,92.0
675,E5,58.5,0.125,95,92.0
676,F#2,58.5,0.25,85,92.0
677,C4,58.75,79/500,105,92.0
678,G4,58.75,0.125,95,92.0
679,E5,58.75,1.0,110,92.0
680,B1,58.75,0.25,120,92.0
681,E5,58.75,1.25,105,92.0
682,E4,58.75,1.25,105,92.0
683,G4,58.75,1.25,105,92.0
684,B4,58.75,1.25,105,92.0
685,A2,59.0,0.25,110,92.0
686,D4,59.0,0.125,95,92.0
687,E2,59.0,0.25,102,92.0
688,F#2,59.0,0.25,102,92.0
689,A4,59.25,0.125,95,92.0
690,C2,59.5,0.25,110,92.0
691,D5,59.5,0.125,95,92.0
692,D5,59.5,0.25,110,92.0
693,D4,59.5,0.25,105,92.0
694,D5,59.5,0.25,105,92.0
695,B1,59.5,0.25,102,92.0
696,F#2,59.5,0.25,102,92.0
697,F4,59.75,0.125,95,92.0
698,C5,59.75,0.25,110,92.0
699,C4,59.75,0.25,105,92.0
700,C5,59.75,0.25,105,92.0
701,C5,59.75,0.5,105,92.0
702,C4,59.75,0.5,105,92.0
703,E4,59.75,0.5,105,92.0
704,G4,59.75,0.5,105,92.0
705,B4,60.0,0.5,105,92.0
706,A4,60.0,4.0,105,92.0
707,D2,60.0,0.5,110,92.0
708,D4,60.0,0.125,95,92.0
709,B4,60.0,0.5,110,92.0
710,C4,60.0,4.0,105,92.0
711,D4,60.0,4.0,105,92.0
712,F#2,60.0,0.25,102,92.0
713,B1,60.0,0.25,102,92.0
714,A4,60.25,0.125,95,92.0
715,D5,60.25,3/40,105,92.0
716,F4,60.25,3/40,105,92.0
717,A4,60.25,3/40,105,92.0
718,C4,60.25,3/40,105,92.0
719,G4,60.5,0.25,105,92.0
720,D5,60.5,0.125,95,92.0
721,G4,60.5,0.25,110,92.0
722,F#2,60.5,0.25,85,92.0
723,A4,60.75,3.25,105,92.0
724,A2,60.75,0.25,110,92.0
725,C4,60.75,23/40,105,92.0
726,A4,60.75,0.125,95,92.0
727,A4,60.75,1.25,110,92.0
728,D5,60.75,1.0,105,92.0
729,F4,60.75,1.0,105,92.0
730,A4,60.75,1.0,105,92.0
731,D3,61.0,0.25,110,92.0
732,D4,61.0,0.125,95,92.0
733,F#2,61.0,0.25,102,92.0
734,E2,61.0,0.25,102,92.0
735,G4,61.242,3/40,105,92.0
736,E5,61.242,3/40,105,92.0
737,B4,61.242,3/40,105,92.0
738,E4,61.242,3/40,105,92.0
739,C3,61.25,0.25,110,92.0
740,C4,61.25,0.5,105,92.0
741,A4,61.25,0.125,95,92.0
742,E5,61.5,0.125,95,92.0
743,F#2,61.5,0.25,85,92.0
744,A2,61.75,0.25,110,92.0
745,C4,61.75,79/500,105,92.0
746,C5,61.75,0.125,95,92.0
747,B1,61.75,0.25,120,92.0
748,E5,61.75,1.25,105,92.0
749,E4,61.75,1.25,105,92.0
750,G4,61.75,1.25,105,92.0
751,B4,61.75,1.25,105,92.0
752,D4,62.0,0.125,95,92.0
753,F#2,62.0,0.25,85,92.0
754,F2,62.25,0.25,110,92.0
755,A4,62.25,0.125,95,92.0
756,D2,62.5,0.25,110,92.0
757,C5,62.5,0.125,95,92.0
758,F#2,62.5,0.25,85,92.0
759,D4,62.5,0.25,105,92.0
760,D5,62.5,0.25,105,92.0
761,G4,62.75,0.125,95,92.0
762,B1,62.75,0.25,120,92.0
763,C4,62.75,0.25,105,92.0
764,C5,62.75,0.25,105,92.0
765,A1,63.0,0.25,110,92.0
766,B4,63.0,0.5,105,92.0
767,A4,63.0,4.0,105,92.0
768,D4,63.0,0.125,95,92.0
769,C4,63.0,4.0,105,92.0
770,D4,63.0,4.0,105,92.0
771,E2,63.0,0.25,102,92.0
772,F#2,63.0,0.25,102,92.0
773,A4,63.25,0.125,95,92.0
774,C2,63.5,0.25,110,92.0
775,G4,63.5,0.25,105,92.0
776,D5,63.5,0.125,95,92.0
777,B1,63.5,0.25,102,92.0
778,F#2,63.5,0.25,102,92.0
779,A4,63.75,3.25,105,92.0
780,F4,63.75,0.125,95,92.0
781,D2,64.0,0.5,110,92.0
782,D4,64.0,0.125,95,92.0
783,F#2,64.0,0.25,102,92.0
784,B1,64.0,0.25,102,92.0
785,A4,64.25,0.125,95,92.0
786,D5,64.5,0.125,95,92.0
787,F#2,64.5,0.25,85,92.0
788,A2,64.75,0.25,110,92.0
789,C5,64.75,0.125,95,92.0
790,D3,65.0,0.25,110,92.0
791,D4,65.0,0.125,95,92.0
792,F#2,65.0,0.25,102,92.0
793,E2,65.0,0.25,102,92.0
794,C3,65.25,0.25,110,92.0
795,A4,65.25,0.125,95,92.0
796,F4,65.5,0.125,95,92.0
797,F#2,65.5,0.25,85,92.0
798,A2,65.75,0.25,110,92.0
799,D5,65.75,0.125,95,92.0
800,B1,65.75,0.25,120,92.0
801,A4,66.0,2.0,105,92.0
802,D4,66.0,0.125,95,92.0
803,F#2,66.0,0.25,85,92.0
804,C4,66.0,2.0,105,92.0
805,D4,66.0,2.0,105,92.0
806,F2,66.25,0.25,110,92.0
807,C5,66.25,0.125,95,92.0
808,D2,66.5,0.25,110,92.0
809,E5,66.5,0.125,95,92.0
810,F#2,66.5,0.25,85,92.0
811,G4,66.75,0.125,95,92.0
812,B1,66.75,0.25,120,92.0
813,A2,67.0,0.5,110,92.0
814,D4,67.0,0.125,95,92.0
815,F#2,67.0,0.25,102,92.0
816,E2,67.0,0.25,102,92.0
817,A4,67.25,0.125,95,92.0
818,F2,67.5,0.5,110,92.0
819,D5,67.5,0.125,95,92.0
820,B-2,67.5,0.25,102,92.0
821,B1,67.5,0.25,102,92.0
822,F4,67.75,0.125,95,92.0
823,D2,68.0,0.5,110,92.0
824,D4,68.0,0.125,95,92.0
825,F#2,68.0,0.25,102,92.0
826,B1,68.0,0.25,102,92.0
827,A4,68.25,0.125,95,92.0
828,D5,68.5,0.125,95,92.0
829,F#2,68.5,0.25,85,92.0
830,D2,68.75,0.25,110,92.0
831,A4,68.75,0.125,95,92.0
832,A4,68.75,0.5,110,92.0
833,A2,69.0,0.25,110,92.0
834,A4,69.0,2.0,105,92.0
835,D4,69.0,0.125,95,92.0
836,E4,69.0,1.0,105,92.0
837,G4,69.0,1.0,105,92.0
838,C5,69.0,1.0,105,92.0
839,C4,69.0,2.0,105,92.0
840,D4,69.0,2.0,105,92.0
841,F#2,69.0,0.25,102,92.0
842,E2,69.0,0.25,102,92.0
843,A2,69.25,0.25,110,92.0
844,A4,69.25,0.125,95,92.0
845,B4,69.25,0.25,110,92.0
846,E5,69.5,0.125,95,92.0
847,F#2,69.5,0.25,85,92.0
848,D2,69.75,0.25,110,92.0
849,C5,69.75,0.125,95,92.0
850,B4,69.75,0.5,110,92.0
851,B1,69.75,0.25,120,92.0
852,D4,70.0,0.125,95,92.0
853,F#2,70.0,0.25,85,92.0
854,F2,70.25,0.25,110,92.0
855,A4,70.25,0.125,95,92.0
856,C5,70.25,0.25,110,92.0
857,D2,70.5,0.25,110,92.0
858,C5,70.5,0.125,95,92.0
859,F#2,70.5,0.25,85,92.0
860,G4,70.75,0.125,95,92.0
861,C5,70.75,1.0,110,92.0
862,B1,70.75,0.25,120,92.0
863,A4,70.75,11/20,105,92.0
864,G4,70.75,11/20,105,92.0
865,C4,70.75,11/20,105,92.0
866,D4,70.75,11/20,105,92.0
867,A2,71.0,0.25,110,92.0
868,D4,71.0,0.125,95,92.0
869,E2,71.0,0.25,102,92.0
870,F#2,71.0,0.25,102,92.0
871,C4,71.242,3/40,105,92.0
872,E4,71.242,3/40,105,92.0
873,G4,71.242,3/40,105,92.0
874,B4,71.242,3/40,105,92.0
875,A4,71.25,0.125,95,92.0
876,C2,71.5,0.25,110,92.0
877,D5,71.5,0.125,95,92.0
878,B1,71.5,0.25,102,92.0
879,F#2,71.5,0.25,102,92.0
880,F4,71.75,0.125,95,92.0
881,B4,71.75,0.5,105,92.0
882,C4,71.75,0.5,105,92.0
883,E4,71.75,0.5,105,92.0
884,G4,71.75,0.5,105,92.0
885,D2,72.0,0.5,110,92.0
886,D4,72.0,0.125,95,92.0
887,E4,72.0,1.0,105,92.0
888,G4,72.0,1.0,105,92.0
889,C5,72.0,1.0,105,92.0
890,F#2,72.0,0.25,102,92.0
891,B1,72.0,0.25,102,92.0
892,A4,72.25,0.125,95,92.0
893,C5,72.25,3/40,105,92.0
894,D4,72.25,3/40,105,92.0
895,F4,72.25,3/40,105,92.0
896,A4,72.25,3/40,105,92.0
897,D5,72.5,0.125,95,92.0
898,F#2,72.5,0.25,85,92.0
899,D4,72.742,1.25,105,92.0
900,F4,72.742,1.25,105,92.0
901,C5,72.742,1.25,105,92.0
902,A4,72.742,1.25,105,92.0
903,D2,72.75,0.25,110,92.0
904,C5,72.75,0.125,95,92.0
905,C5,72.75,0.5,110,92.0
906,A2,73.0,0.25,110,92.0
907,D4,73.0,0.125,95,92.0
908,F#2,73.0,0.25,102,92.0
909,E2,73.0,0.25,102,92.0
910,A2,73.25,0.25,110,92.0
911,A4,73.25,0.125,95,92.0
912,D5,73.25,0.25,110,92.0
913,F4,73.5,0.125,95,92.0
914,F#2,73.5,0.25,85,92.0
915,D2,73.75,0.25,110,92.0
916,D5,73.75,0.125,95,92.0
917,D5,73.75,0.5,110,92.0
918,B1,73.75,0.25,120,92.0
919,A4,73.75,11/20,105,92.0
920,G4,73.75,11/20,105,92.0
921,C4,73.75,11/20,105,92.0
922,D4,73.75,11/20,105,92.0
923,D4,74.0,0.125,95,92.0
924,F#2,74.0,0.25,85,92.0
925,C4,74.242,3/40,105,92.0
926,E4,74.242,3/40,105,92.0
927,G4,74.242,3/40,105,92.0
928,B4,74.242,3/40,105,92.0
929,F2,74.25,0.25,110,92.0
930,C5,74.25,0.125,95,92.0
931,E5,74.25,0.25,110,92.0
932,D2,74.5,0.25,110,92.0
933,E5,74.5,0.125,95,92.0
934,F#2,74.5,0.25,85,92.0
935,G4,74.75,0.125,95,92.0
936,E5,74.75,1.0,110,92.0
937,B1,74.75,0.25,120,92.0
938,C5,74.75,0.5,105,92.0
939,C4,74.75,0.5,105,92.0
940,E4,74.75,0.5,105,92.0
941,G4,74.75,0.5,105,92.0
942,B4,74.75,0.5,105,92.0
943,C4,74.75,0.5,105,92.0
944,E4,74.75,0.5,105,92.0
945,G4,74.75,0.5,105,92.0
946,A2,75.0,0.25,110,92.0
947,D4,75.0,0.125,95,92.0
948,E2,75.0,0.25,102,92.0
949,F#2,75.0,0.25,102,92.0
950,A4,75.25,0.125,95,92.0
951,D5,75.25,3/40,105,92.0
952,F4,75.25,3/40,105,92.0
953,A4,75.25,3/40,105,92.0
954,C4,75.25,3/40,105,92.0
955,C5,75.25,3/40,105,92.0
956,D4,75.25,3/40,105,92.0
957,F4,75.25,3/40,105,92.0
958,A4,75.25,3/40,105,92.0
959,C2,75.5,0.25,110,92.0
960,D5,75.5,0.125,95,92.0
961,D5,75.5,0.25,110,92.0
962,B1,75.5,0.25,102,92.0
963,F#2,75.5,0.25,102,92.0
964,D4,75.742,1.25,105,92.0
965,F4,75.742,1.25,105,92.0
966,C5,75.742,1.25,105,92.0
967,A4,75.742,1.25,105,92.0
968,C4,75.75,23/40,105,92.0
969,F4,75.75,0.125,95,92.0
970,C5,75.75,0.25,110,92.0
971,D5,75.75,1.0,105,92.0
972,F4,75.75,1.0,105,92.0
973,A4,75.75,1.0,105,92.0
974,D2,76.0,0.5,110,92.0
975,D4,76.0,0.125,95,92.0
976,B4,76.0,0.5,110,92.0
977,F#2,76.0,0.25,102,92.0
978,B1,76.0,0.25,102,92.0
979,G4,76.242,3/40,105,92.0
980,E5,76.242,3/40,105,92.0
981,B4,76.242,3/40,105,92.0
982,E4,76.242,3/40,105,92.0
983,C4,76.25,0.5,105,92.0
984,A4,76.25,0.125,95,92.0
985,D5,76.5,0.125,95,92.0
986,G4,76.5,0.25,110,92.0
987,F#2,76.5,0.25,85,92.0
988,C4,76.75,79/500,105,92.0
989,A2,76.75,0.25,110,92.0
990,A4,76.75,0.125,95,92.0
991,A4,76.75,1.25,110,92.0
992,E5,76.75,1.25,105,92.0
993,E4,76.75,1.25,105,92.0
994,G4,76.75,1.25,105,92.0
995,B4,76.75,1.25,105,92.0
996,D3,77.0,0.25,110,92.0
997,D4,77.0,0.125,95,92.0
998,F#2,77.0,0.25,102,92.0
999,E2,77.0,0.25,102,92.0
1000,C3,77.25,0.25,110,92.0
1001,A4,77.25,0.125,95,92.0
1002,E5,77.5,0.125,95,92.0
1003,F#2,77.5,0.25,85,92.0
1004,D4,77.5,0.25,105,92.0
1005,D5,77.5,0.25,105,92.0
1006,A2,77.75,0.25,110,92.0
1007,C5,77.75,0.125,95,92.0
1008,B1,77.75,0.25,120,92.0
1009,C4,77.75,0.25,105,92.0
1010,C5,77.75,0.25,105,92.0
1011,C5,77.75,0.5,105,92.0
1012,C4,77.75,0.5,105,92.0
1013,E4,77.75,0.5,105,92.0
1014,G4,77.75,0.5,105,92.0
1015,B4,78.0,0.5,105,92.0
1016,A4,78.0,4.0,105,92.0
1017,D4,78.0,0.125,95,92.0
1018,F#2,78.0,0.25,85,92.0
1019,C4,78.0,4.0,105,92.0
1020,D4,78.0,4.0,105,92.0
1021,F2,78.25,0.25,110,92.0
1022,A4,78.25,0.125,95,92.0
1023,D5,78.25,3/40,105,92.0
1024,F4,78.25,3/40,105,92.0
1025,A4,78.25,3/40,105,92.0
1026,C4,78.25,3/40,105,92.0
1027,G4,78.5,0.25,105,92.0
1028,D2,78.5,0.25,110,92.0
1029,C5,78.5,0.125,95,92.0
1030,B1,78.5,0.25,102,92.0
1031,F#2,78.5,0.25,102,92.0
1032,A4,78.75,3.25,105,92.0
1033,C4,78.75,23/40,105,92.0
1034,G4,78.75,0.125,95,92.0
1035,D5,78.75,1.0,105,92.0
1036,F4,78.75,1.0,105,92.0
1037,A4,78.75,1.0,105,92.0
1038,A1,79.0,0.25,110,92.0
1039,D4,79.0,0.125,95,92.0
1040,E2,79.0,0.25,102,92.0
1041,F#2,79.0,0.25,102,92.0
1042,G4,79.242,3/40,105,92.0
1043,E5,79.242,3/40,105,92.0
1044,B4,79.242,3/40,105,92.0
1045,E4,79.242,3/40,105,92.0
1046,C4,79.25,0.5,105,92.0
1047,A4,79.25,0.125,95,92.0
1048,C2,79.5,0.25,110,92.0
1049,D5,79.5,0.125,95,92.0
1050,B1,79.5,0.25,102,92.0
1051,F#2,79.5,0.25,102,92.0
1052,C4,79.75,79/500,105,92.0
1053,F4,79.75,0.125,95,92.0
1054,E5,79.75,1.25,105,92.0
1055,E4,79.75,1.25,105,92.0
1056,G4,79.75,1.25,105,92.0
1057,B4,79.75,1.25,105,92.0
1058,D2,80.0,0.5,110,92.0
1059,D4,80.0,0.125,95,92.0
1060,F#2,80.0,0.25,102,92.0
1061,B1,80.0,0.25,102,92.0
1062,A4,80.25,0.125,95,92.0
1063,D5,80.5,0.125,95,92.0
1064,F#2,80.5,0.25,85,92.0
1065,D4,80.5,0.25,105,92.0
1066,D5,80.5,0.25,105,92.0
1067,A2,80.75,0.25,110,92.0
1068,C5,80.75,0.125,95,92.0
1069,C4,80.75,0.25,105,92.0
1070,C5,80.75,0.25,105,92.0
1071,D3,81.0,0.25,110,92.0
1072,B4,81.0,0.5,105,92.0
1073,A4,81.0,4.0,105,92.0
1074,D4,81.0,0.125,95,92.0
1075,C4,81.0,4.0,105,92.0
1076,D4,81.0,4.0,105,92.0
1077,F#2,81.0,0.25,102,92.0
1078,E2,81.0,0.25,102,92.0
1079,C3,81.25,0.25,110,92.0
1080,A4,81.25,0.125,95,92.0
1081,G4,81.5,0.25,105,92.0
1082,F4,81.5,0.125,95,92.0
1083,F#2,81.5,0.25,85,92.0
1084,A2,81.75,0.25,110,92.0
1085,A4,81.75,3.25,105,92.0
1086,D5,81.75,0.125,95,92.0
1087,B1,81.75,0.25,120,92.0
1088,D4,82.0,0.125,95,92.0
1089,F#2,82.0,0.25,85,92.0
1090,F2,82.25,0.25,110,92.0
1091,C5,82.25,0.125,95,92.0
1092,D2,82.5,0.25,110,92.0
1093,E5,82.5,0.125,95,92.0
1094,F#2,82.5,0.25,85,92.0
1095,G4,82.75,0.125,95,92.0
1096,B1,82.75,0.25,120,92.0
1097,D3,83.0,124/125,110,92.0
1098,D4,83.0,0.125,95,92.0
1099,A4,83.0,0.25,110,92.0
1100,E2,83.0,0.25,102,92.0
1101,F#2,83.0,0.25,102,92.0
1102,A4,83.25,0.125,95,92.0
1103,B-4,83.25,0.25,110,92.0
1104,E2,83.25,0.25,120,92.0
1105,D5,83.5,0.125,95,92.0
1106,A4,83.5,0.25,110,92.0
1107,F#2,83.5,0.25,85,92.0
1108,F4,83.75,0.125,95,92.0
1109,F4,83.75,0.25,110,92.0
1110,B1,83.75,0.25,120,92.0
1111,A4,84.0,2.0,105,92.0
1112,E-2,84.0,1.75,110,92.0
1113,G4,84.0,0.125,95,92.0
1114,G4,84.0,4.0,110,92.0
1115,C4,84.0,2.0,105,92.0
1116,D4,84.0,2.0,105,92.0
1117,E-4,84.0,4.0,120,92.0
1118,G4,84.0,4.0,120,92.0
1119,B-4,84.0,4.0,120,92.0
1120,D5,84.0,4.0,120,92.0
1121,B-2,84.0,0.25,102,92.0
1122,B1,84.0,0.25,102,92.0
1123,D5,84.25,0.125,95,92.0
1124,F4,84.5,0.125,95,92.0
1125,G4,84.75,0.125,95,92.0
1126,B1,84.75,0.25,120,92.0
1127,E-5,85.0,0.125,95,92.0
1128,E-3,85.0,1.0,105,92.0
1129,E2,85.0,0.25,102,92.0
1130,F#2,85.0,0.25,102,92.0
1131,F4,85.25,0.125,95,92.0
1132,G4,85.5,0.125,95,92.0
1133,F#2,85.5,0.25,85,92.0
1134,E-2,85.75,0.25,110,92.0
1135,F5,85.75,0.125,95,92.0
1136,B1,85.75,0.25,120,92.0
1137,E-2,86.0,2.0,110,92.0
1138,F4,86.0,0.125,95,92.0
1139,E-3,86.0,1.0,105,92.0
1140,F#2,86.0,0.25,102,92.0
1141,B1,86.0,0.25,102,92.0
1142,G4,86.25,0.125,95,92.0
1143,E-5,86.5,0.125,95,92.0
1144,F#2,86.5,0.25,85,92.0
1145,D3,86.75,151/125,112,92.0
1146,F4,86.75,0.125,95,92.0
1147,B1,86.75,0.25,120,92.0
1148,A4,87.0,479/500,112,92.0
1149,A4,87.0,2.0,105,92.0
1150,G4,87.0,0.125,95,92.0
1151,E-3,87.0,1.0,105,92.0
1152,C4,87.0,2.0,105,92.0
1153,D4,87.0,2.0,105,92.0
1154,F#2,87.0,0.25,102,92.0
1155,E2,87.0,0.25,102,92.0
1156,B-4,87.25,717/1000,91,92.0
1157,D5,87.25,0.125,95,92.0
1158,A4,87.5,467/1000,91,92.0
1159,F4,87.5,0.125,95,92.0
1160,F#2,87.5,0.25,85,92.0
1161,F4,87.75,217/1000,106,92.0
1162,G4,87.75,0.125,95,92.0
1163,B-4,88.0,4.0,110,92.0
1164,G4,88.0,3267/1000,110,92.0
1165,E-2,88.0,4.0,106,92.0
1166,G3,88.0,2583/1000,91,92.0
1167,E-2,88.0,0.25,110,92.0
1168,G4,88.0,0.125,95,92.0
1169,E-3,88.0,1.0,105,92.0
1170,B-3,88.0,3.0,102,92.0
1171,D4,88.0,3.0,102,92.0
1172,F#2,88.0,0.25,102,92.0
1173,B1,88.0,0.25,102,92.0
1174,E-2,88.25,0.25,110,92.0
1175,D5,88.25,0.125,95,92.0
1176,E-3,88.5,1633/1000,49,92.0
1177,F4,88.5,0.125,95,92.0
1178,F#2,88.5,0.25,85,92.0
1179,E-2,88.75,2.5,110,92.0
1180,G4,88.75,0.125,95,92.0
1181,B1,88.75,0.25,120,92.0
1182,E-5,89.0,0.125,95,92.0
1183,E-3,89.0,1.0,105,92.0
1184,F#2,89.0,0.25,102,92.0
1185,E2,89.0,0.25,102,92.0
1186,F4,89.25,0.125,95,92.0
1187,G4,89.5,0.125,95,92.0
1188,F#2,89.5,0.25,85,92.0
1189,D3,89.75,151/125,112,92.0
1190,D5,89.75,0.125,95,92.0
1191,B1,89.75,0.25,120,92.0
1192,A4,90.0,479/500,112,92.0
1193,F4,90.0,0.125,95,92.0
1194,E-3,90.0,1.0,105,92.0
1195,B1,90.0,0.25,102,92.0
1196,F#2,90.0,0.25,102,92.0
1197,E-3,90.25,1.75,96,92.0
1198,B-4,90.25,717/1000,91,92.0
1199,G4,90.25,0.125,95,92.0
1200,A4,90.5,467/1000,91,92.0
1201,F5,90.5,0.125,95,92.0
1202,F#2,90.5,0.25,85,92.0
1203,G3,90.75,1.25,84,92.0
1204,F4,90.75,217/1000,106,92.0
1205,F4,90.75,0.125,95,92.0
1206,B1,90.75,0.25,120,92.0
1207,B-4,91.0,4.0,110,92.0
1208,G4,91.0,3267/1000,110,92.0
1209,E-2,91.0,4.0,106,92.0
1210,G3,91.0,2583/1000,91,92.0
1211,G4,91.0,0.125,95,92.0
1212,E-3,91.0,1.0,105,92.0
1213,B-3,91.0,3.0,102,92.0
1214,D4,91.0,3.0,102,92.0
1215,E2,91.0,0.25,102,92.0
1216,F#2,91.0,0.25,102,92.0
1217,D4,91.25,0.75,88,92.0
1218,E-5,91.25,0.125,95,92.0
1219,G4,91.25,0.25,110,92.0
1220,E-3,91.5,1633/1000,49,92.0
1221,F4,91.5,0.125,95,92.0
1222,A4,91.5,0.25,110,92.0
1223,B1,91.5,0.25,102,92.0
1224,F#2,91.5,0.25,102,92.0
1225,F4,91.75,0.25,96,92.0
1226,G4,91.75,0.125,95,92.0
1227,B-4,91.75,0.25,110,92.0
1228,D4,92.0,823/250,88,92.0
1229,F4,92.0,33/10,96,92.0
1230,E-2,92.0,107/40,106,92.0
1231,G3,92.0,127/40,84,92.0
1232,E-3,92.0,723/250,96,92.0
1233,D2,92.0,0.25,110,92.0
1234,F#4,92.0,0.125,95,92.0
1235,A4,92.0,0.5,110,92.0
1236,E-4,92.0,4.0,120,92.0
1237,G4,92.0,4.0,120,92.0
1238,B-4,92.0,4.0,120,92.0
1239,D5,92.0,4.0,120,92.0
1240,F#2,92.0,0.25,102,92.0
1241,B1,92.0,0.25,102,92.0
1242,C#5,92.25,0.125,95,92.0
1243,E4,92.5,0.125,95,92.0
1244,G4,92.5,0.25,110,92.0
1245,F#2,92.5,0.25,85,92.0
1246,D2,92.75,1.25,110,92.0
1247,F#4,92.75,0.125,95,92.0
1248,F#4,92.75,0.25,110,92.0
1249,B1,92.75,0.25,115,92.0
1250,C#3,92.75,0.25,115,92.0
1251,D5,93.0,0.125,95,92.0
1252,E-3,93.25,1.75,96,92.0
1253,E4,93.25,0.125,95,92.0
1254,F#4,93.5,0.125,95,92.0
1255,F#2,93.5,0.25,85,92.0
1256,D2,93.75,0.25,110,92.0
1257,G3,93.75,1.25,84,92.0
1258,E5,93.75,0.125,95,92.0
1259,D2,94.0,2.0,110,92.0
1260,E4,94.0,0.125,95,92.0
1261,E-3,94.0,1.0,105,92.0
1262,F#2,94.0,0.25,102,92.0
1263,B1,94.0,0.25,102,92.0
1264,D4,94.25,0.75,88,92.0
1265,F#4,94.25,0.125,95,92.0
1266,D5,94.5,0.125,95,92.0
1267,F#2,94.5,0.25,85,92.0
1268,E-2,94.75,49/40,126,92.0
1269,F4,94.75,0.25,96,92.0
1270,E4,94.75,0.125,95,92.0
1271,B1,94.75,0.25,120,92.0
1272,E-3,95.0,39/40,127,92.0
1273,D4,95.0,823/250,88,92.0
1274,F4,95.0,33/10,96,92.0
1275,E-2,95.0,107/40,106,92.0
1276,G3,95.0,127/40,84,92.0
1277,E-3,95.0,723/250,96,92.0
1278,F#4,95.0,0.125,95,92.0
1279,E-3,95.0,1.0,105,92.0
1280,F#2,95.0,0.25,102,92.0
1281,E2,95.0,0.25,102,92.0
1282,G4,95.25,29/40,121,92.0
1283,C#5,95.25,0.125,95,92.0
1284,A4,95.5,19/40,85,92.0
1285,E4,95.5,0.125,95,92.0
1286,F#2,95.5,0.25,102,92.0
1287,B1,95.5,0.25,102,92.0
1288,B-4,95.75,9/40,102,92.0
1289,F#4,95.75,0.125,95,92.0
1290,D3,96.0,424/125,115,92.0
1291,D2,96.0,0.5,110,92.0
1292,F#4,96.0,0.125,95,92.0
1293,E-3,96.0,1.0,105,92.0
1294,E4,96.0,1071/500,102,92.0
1295,A4,96.0,1071/500,102,92.0
1296,C#5,96.0,1071/500,102,92.0
1297,D4,96.0,4.0,120,92.0
1298,C#5,96.0,4.0,120,92.0
1299,F#4,96.0,4.0,120,92.0
1300,A4,96.0,4.0,120,92.0
1301,F#2,96.0,0.25,102,92.0
1302,B1,96.0,0.25,102,92.0
1303,A3,96.25,0.5,93,92.0
1304,C#5,96.25,0.125,95,92.0
1305,D4,96.5,0.25,109,92.0
1306,E4,96.5,0.125,95,92.0
1307,F#2,96.5,0.25,85,92.0
1308,F#4,96.75,3133/1000,109,92.0
1309,D2,96.75,0.25,110,92.0
1310,F#4,96.75,0.125,95,92.0
1311,D3,96.75,3.0,110,92.0
1312,A3,96.75,3.0,110,92.0
1313,D4,96.75,3.0,110,92.0
1314,E2,97.0,0.25,110,92.0
1315,D5,97.0,0.125,95,92.0
1316,E-3,97.0,1.0,105,92.0
1317,F#2,97.0,0.25,102,92.0
1318,E2,97.0,0.25,102,92.0
1319,E2,97.25,0.25,110,92.0
1320,E4,97.25,0.125,95,92.0
1321,F#4,97.5,0.125,95,92.0
1322,F#2,97.5,0.25,85,92.0
1323,E2,97.75,0.25,110,92.0
1324,E-2,97.75,49/40,126,92.0
1325,C#5,97.75,0.125,95,92.0
1326,B1,97.75,0.25,120,92.0
1327,F#2,98.0,0.25,110,92.0
1328,E-3,98.0,39/40,127,92.0
1329,E4,98.0,0.125,95,92.0
1330,F#2,98.0,0.25,85,92.0
1331,E-3,98.0,1.0,105,92.0
1332,F#2,98.25,0.25,110,92.0
1333,G4,98.25,29/40,121,92.0
1334,F#4,98.25,0.125,95,92.0
1335,A4,98.5,19/40,85,92.0
1336,E5,98.5,0.125,95,92.0
1337,F#2,98.5,0.25,85,92.0
1338,F#2,98.75,0.25,110,92.0
1339,B-4,98.75,9/40,102,92.0
1340,E4,98.75,0.125,95,92.0
1341,E2,98.75,0.25,120,92.0
1342,B1,98.75,0.25,120,92.0
1343,A2,99.0,0.5,110,92.0
1344,D3,99.0,424/125,115,92.0
1345,F#4,99.0,0.125,95,92.0
1346,A4,99.0,0.25,110,92.0
1347,E4,99.0,1071/500,102,92.0
1348,A4,99.0,1071/500,102,92.0
1349,C#5,99.0,1071/500,102,92.0
1350,E2,99.0,0.25,102,92.0
1351,F#2,99.0,0.25,102,92.0
1352,A3,99.25,0.5,93,92.0
1353,D5,99.25,0.125,95,92.0
1354,B-4,99.25,0.25,110,92.0
1355,D3,99.5,0.5,88,92.0
1356,D2,99.5,0.5,110,92.0
1357,D4,99.5,0.25,109,92.0
1358,E4,99.5,0.125,95,92.0
1359,A4,99.5,0.25,110,92.0
1360,E2,99.5,0.25,108,92.0
1361,B-2,99.5,0.25,108,92.0
1362,B1,99.5,0.25,108,92.0
1363,F#4,99.75,3133/1000,109,92.0
1364,F#4,99.75,0.125,95,92.0
1365,F4,99.75,0.25,110,92.0
1366,D3,99.75,3.0,110,92.0
1367,A3,99.75,3.0,110,92.0
1368,D4,99.75,3.0,110,92.0
1369,D4,100.0,139/40,90,92.0
1370,A4,100.0,149/40,90,92.0
1371,E-2,100.0,0.5,110,92.0
1372,G4,100.0,0.125,95,92.0
1373,G4,100.0,4.0,110,92.0
1374,B-2,100.0,1.0,105,92.0
1375,B1,100.0,0.25,120,92.0
1376,F#4,100.0,4.0,90,92.0
1377,C#5,100.0,4.0,90,92.0
1378,D5,100.25,0.125,95,92.0
1379,F4,100.5,0.125,95,92.0
1380,F#2,100.5,0.25,85,92.0
1381,E-3,100.75,1.0,110,92.0
1382,G4,100.75,0.125,95,92.0
1383,E-5,100.75,3.25,115,92.0
1384,B1,100.75,0.25,115,92.0
1385,C#3,100.75,0.25,115,92.0
1386,E-5,101.0,0.125,95,92.0
1387,F#2,101.0,0.25,85,92.0
1388,E-3,101.0,1.0,105,92.0
1389,F4,101.25,0.125,95,92.0
1390,G4,101.5,0.125,95,92.0
1391,F#2,101.5,0.25,85,92.0
1392,F5,101.75,0.125,95,92.0
1393,B1,101.75,0.25,120,92.0
1394,E-3,102.0,0.25,110,92.0
1395,F4,102.0,0.125,95,92.0
1396,E-3,102.0,1.0,105,92.0
1397,F#2,102.0,0.25,102,92.0
1398,B1,102.0,0.25,102,92.0
1399,C3,102.25,0.25,110,92.0
1400,G4,102.25,0.125,95,92.0
1401,D3,102.5,0.5,88,92.0
1402,E-5,102.5,0.125,95,92.0
1403,F#2,102.5,0.25,85,92.0
1404,D4,102.75,1.25,121,92.0
1405,E-2,102.75,1.25,110,92.0
1406,F4,102.75,0.125,95,92.0
1407,A4,103.0,1.0,121,92.0
1408,D4,103.0,139/40,90,92.0
1409,A4,103.0,149/40,90,92.0
1410,G4,103.0,0.125,95,92.0
1411,E-3,103.0,1.0,105,92.0
1412,F#4,103.0,4.0,90,92.0
1413,C#5,103.0,4.0,90,92.0
1414,F#2,103.0,0.25,102,92.0
1415,E2,103.0,0.25,102,92.0
1416,B-4,103.25,29/40,121,92.0
1417,D5,103.25,0.125,95,92.0
1418,A4,103.5,0.5,121,92.0
1419,F4,103.5,0.125,95,92.0
1420,F#2,103.5,0.25,102,92.0
1421,B1,103.5,0.25,102,92.0
1422,F4,103.75,0.25,121,92.0
1423,G4,103.75,0.125,95,92.0
1424,E-3,104.0,823/250,112,92.0
1425,E-2,104.0,0.25,110,92.0
1426,G4,104.0,0.125,95,92.0
1427,E-5,104.0,3.0,115,92.0
1428,E-3,104.0,1.0,105,92.0
1429,E-4,104.0,0.5,121,92.0
1430,G4,104.0,0.5,121,92.0
1431,D4,104.0,4.0,120,92.0
1432,C#5,104.0,4.0,120,92.0
1433,F#4,104.0,4.0,120,92.0
1434,A4,104.0,4.0,120,92.0
1435,F#2,104.0,0.25,102,92.0
1436,B1,104.0,0.25,102,92.0
1437,B-3,104.25,2283/1000,85,92.0
1438,E-2,104.25,0.25,110,92.0
1439,D5,104.25,0.125,95,92.0
1440,E-4,104.5,12/5,119,92.0
1441,F4,104.5,0.125,95,92.0
1442,F#2,104.5,0.25,85,92.0
1443,D4,104.733,1079/500,106,92.0
1444,E-5,104.733,1079/500,106,92.0
1445,B-4,104.733,1079/500,106,92.0
1446,F4,104.733,1079/500,106,92.0
1447,E-2,104.75,3.0,110,92.0
1448,G4,104.75,0.125,95,92.0
1449,E-5,105.0,0.125,95,92.0
1450,E-3,105.0,1.0,105,92.0
1451,F#2,105.0,0.25,102,92.0
1452,E2,105.0,0.25,102,92.0
1453,F4,105.25,0.125,95,92.0
1454,G4,105.5,0.125,95,92.0
1455,F#2,105.5,0.25,85,92.0
1456,D4,105.75,1.25,121,92.0
1457,D5,105.75,0.125,95,92.0
1458,B1,105.75,0.25,120,92.0
1459,A4,106.0,1.0,121,92.0
1460,F4,106.0,0.125,95,92.0
1461,F#2,106.0,0.25,85,92.0
1462,E-3,106.0,1.0,105,92.0
1463,B-4,106.25,29/40,121,92.0
1464,G4,106.25,0.125,95,92.0
1465,A4,106.5,0.5,121,92.0
1466,F5,106.5,0.125,95,92.0
1467,B1,106.5,0.25,102,92.0
1468,F#2,106.5,0.25,102,92.0
1469,B-3,106.75,271/500,106,92.0
1470,F4,106.75,0.25,121,92.0
1471,F4,106.75,0.125,95,92.0
1472,B1,106.75,0.25,120,92.0
1473,E-3,107.0,823/250,112,92.0
1474,G4,107.0,0.125,95,92.0
1475,E-3,107.0,1.0,105,92.0
1476,D5,107.0,73/250,98,92.0
1477,F4,107.0,73/250,98,92.0
1478,E-4,107.0,73/250,98,92.0
1479,B-4,107.0,73/250,98,92.0
1480,E-4,107.0,0.5,121,92.0
1481,G4,107.0,0.5,121,92.0
1482,E2,107.0,0.25,102,92.0
1483,F#2,107.0,0.25,102,92.0
1484,B-3,107.25,2283/1000,85,92.0
1485,E-5,107.25,0.125,95,92.0
1486,G4,107.25,0.25,110,92.0
1487,E-3,107.5,0.5,99,92.0
1488,E-4,107.5,0.5,96,92.0
1489,E-4,107.5,12/5,119,92.0
1490,F4,107.5,0.125,95,92.0
1491,A4,107.5,0.25,110,92.0
1492,E-5,107.5,0.5,110,92.0
1493,G4,107.5,0.5,110,92.0
1494,B1,107.5,0.25,102,92.0
1495,F#2,107.5,0.25,102,92.0
1496,D4,107.733,1079/500,106,92.0
1497,E-5,107.733,1079/500,106,92.0
1498,B-4,107.733,1079/500,106,92.0
1499,F4,107.733,1079/500,106,92.0
1500,G4,107.75,0.125,95,92.0
1501,B-4,107.75,0.25,110,92.0
1502,E-3,108.0,1829/500,99,92.0
1503,E-4,108.0,223/250,96,92.0
1504,D2,108.0,0.25,110,92.0
1505,F#4,108.0,0.125,95,92.0
1506,A4,108.0,0.5,110,92.0
1507,E-3,108.0,1.0,105,92.0
1508,E-5,108.0,1333/1000,110,92.0
1509,G4,108.0,1333/1000,110,92.0
1510,E-4,108.0,4.0,120,92.0
1511,D5,108.0,4.0,120,92.0
1512,G4,108.0,4.0,120,92.0
1513,B-4,108.0,4.0,120,92.0
1514,F#2,108.0,0.25,102,92.0
1515,B1,108.0,0.25,102,92.0
1516,C#5,108.25,0.125,95,92.0
1517,E4,108.5,0.125,95,92.0
1518,G4,108.5,0.25,110,92.0
1519,F#2,108.5,0.25,85,92.0
1520,D3,108.75,1.25,110,92.0
1521,F#4,108.75,0.125,95,92.0
1522,F#4,108.75,3.25,110,92.0
1523,B1,108.75,0.25,115,92.0
1524,C#3,108.75,0.25,115,92.0
1525,D5,109.0,0.125,95,92.0
1526,F#2,109.0,0.25,85,92.0
1527,E-3,109.0,1.0,105,92.0
1528,E4,109.25,0.125,95,92.0
1529,F#4,109.5,0.125,95,92.0
1530,F#2,109.5,0.25,85,92.0
1531,B-3,109.75,271/500,106,92.0
1532,E5,109.75,0.125,95,92.0
1533,D3,110.0,0.25,110,92.0
1534,E4,110.0,0.125,95,92.0
1535,E-3,110.0,1.0,105,92.0
1536,D5,110.0,73/250,98,92.0
1537,F4,110.0,73/250,98,92.0
1538,E-4,110.0,73/250,98,92.0
1539,B-4,110.0,73/250,98,92.0
1540,F#2,110.0,0.25,102,92.0
1541,B1,110.0,0.25,102,92.0
1542,C#3,110.25,0.25,110,92.0
1543,F#4,110.25,0.125,95,92.0
1544,E-3,110.5,0.5,99,92.0
1545,E-4,110.5,0.5,96,92.0
1546,D5,110.5,0.125,95,92.0
1547,F#2,110.5,0.25,85,92.0
1548,E-5,110.5,0.5,110,92.0
1549,G4,110.5,0.5,110,92.0
1550,A2,110.75,0.25,110,92.0
1551,E4,110.75,0.125,95,92.0
1552,B1,110.75,0.25,120,92.0
1553,E-3,111.0,1829/500,99,92.0
1554,E-4,111.0,223/250,96,92.0
1555,F#4,111.0,0.125,95,92.0
1556,E-3,111.0,1.0,105,92.0
1557,E-5,111.0,1333/1000,110,92.0
1558,G4,111.0,1333/1000,110,92.0
1559,F#2,111.0,0.25,102,92.0
1560,E2,111.0,0.25,102,92.0
1561,G4,111.25,0.75,106,92.0
1562,D2,111.25,0.25,110,92.0
1563,C#5,111.25,0.125,95,92.0
1564,A4,111.5,0.5,106,92.0
1565,F#2,111.5,0.25,110,92.0
1566,E4,111.5,0.125,95,92.0
1567,F#2,111.5,0.25,102,92.0
1568,B1,111.5,0.25,102,92.0
1569,B-4,111.75,0.25,106,92.0
1570,F#4,111.75,0.125,95,92.0
1571,A4,112.0,2.0,106,92.0
1572,D3,112.0,424/125,115,92.0
1573,D2,112.0,0.5,110,92.0
1574,F#4,112.0,0.125,95,92.0
1575,E-3,112.0,1.0,105,92.0
1576,F#2,112.0,0.25,102,92.0
1577,B1,112.0,0.25,102,92.0
1578,A3,112.25,2267/1000,93,92.0
1579,C#5,112.25,0.125,95,92.0
1580,D4,112.5,1179/500,109,92.0
1581,E4,112.5,0.125,95,92.0
1582,F#2,112.5,0.25,85,92.0
1583,D2,112.75,0.25,110,92.0
1584,F#4,112.75,0.125,95,92.0
1585,C#5,112.75,2083/1000,102,92.0
1586,E4,112.75,2083/1000,102,92.0
1587,A4,112.75,2083/1000,102,92.0
1588,E2,113.0,0.25,110,92.0
1589,D5,113.0,0.125,95,92.0
1590,E-3,113.0,1.0,105,92.0
1591,F#2,113.0,0.25,102,92.0
1592,E2,113.0,0.25,102,92.0
1593,E2,113.25,0.25,110,92.0
1594,E4,113.25,0.125,95,92.0
1595,F#4,113.5,0.125,95,92.0
1596,F#2,113.5,0.25,85,92.0
1597,E2,113.75,0.25,110,92.0
1598,C#5,113.75,0.125,95,92.0
1599,B1,113.75,0.25,120,92.0
1600,F#2,114.0,0.25,110,92.0
1601,E4,114.0,0.125,95,92.0
1602,B-2,114.0,0.25,85,92.0
1603,F#2,114.25,0.25,110,92.0
1604,G4,114.25,0.75,106,92.0
1605,F#4,114.25,0.125,95,92.0
1606,E2,114.25,0.25,120,92.0
1607,A4,114.5,0.5,106,92.0
1608,E5,114.5,0.125,95,92.0
1609,B1,114.5,0.25,110,92.0
1610,A3,114.75,2/5,112,92.0
1611,F#2,114.75,0.25,110,92.0
1612,B-4,114.75,0.25,106,92.0
1613,E4,114.75,0.125,95,92.0
1614,E2,114.75,0.25,120,92.0
1615,D4,115.0,1.0,106,92.0
1616,A4,115.0,1.0,109,92.0
1617,A2,115.0,0.5,110,92.0
1618,A4,115.0,2.0,106,92.0
1619,D3,115.0,424/125,115,92.0
1620,F#4,115.0,0.125,95,92.0
1621,E2,115.0,0.25,120,92.0
1622,C#5,115.0,3/10,86,92.0
1623,E4,115.0,3/10,86,92.0
1624,A3,115.25,0.75,102,92.0
1625,A3,115.25,2267/1000,93,92.0
1626,D5,115.25,0.125,95,92.0
1627,B1,115.25,0.25,120,92.0
1628,D5,115.5,0.5,109,92.0
1629,F#4,115.5,0.5,102,92.0
1630,D3,115.5,0.125,88,92.0
1631,D2,115.5,0.5,110,92.0
1632,D4,115.5,1179/500,109,92.0
1633,E4,115.5,0.125,95,92.0
1634,B1,115.5,0.25,120,92.0
1635,F#4,115.75,0.125,95,92.0
1636,C#5,115.75,2083/1000,102,92.0
1637,E4,115.75,2083/1000,102,92.0
1638,A4,115.75,2083/1000,102,92.0
1639,D3,116.0,4.0,112,92.0
1640,A3,116.0,29/500,102,92.0
1641,D5,116.0,2633/1000,109,92.0
1642,F#4,116.0,567/1000,102,92.0
1643,D4,116.0,367/1000,106,92.0
1644,A4,116.0,117/40,109,92.0
1645,D2,116.0,0.5,110,92.0
1646,D4,116.0,0.125,95,92.0
1647,E-4,116.0,4.0,120,92.0
1648,D5,116.0,4.0,120,92.0
1649,G4,116.0,4.0,120,92.0
1650,B-4,116.0,4.0,120,92.0
1651,C#3,116.0,0.25,105,92.0
1652,F#2,116.0,0.25,105,92.0
1653,B1,116.0,0.25,105,92.0
1654,A4,116.25,0.125,95,92.0
1655,D5,116.5,0.125,95,92.0
1656,F#2,116.5,0.25,85,92.0
1657,D2,116.75,0.25,110,92.0
1658,A4,116.75,0.125,95,92.0
1659,A4,116.75,0.5,110,92.0
1660,A2,117.0,0.25,110,92.0
1661,D4,117.0,0.125,95,92.0
1662,F#2,117.0,0.25,102,92.0
1663,E2,117.0,0.25,102,92.0
1664,A2,117.25,0.25,110,92.0
1665,A4,117.25,0.125,95,92.0
1666,B4,117.25,0.25,110,92.0
1667,E5,117.5,0.125,95,92.0
1668,F#2,117.5,0.25,85,92.0
1669,D2,117.75,0.25,110,92.0
1670,A3,117.75,2/5,112,92.0
1671,C5,117.75,0.125,95,92.0
1672,B4,117.75,0.5,110,92.0
1673,B1,117.75,0.25,120,92.0
1674,D4,118.0,1.0,106,92.0
1675,A4,118.0,1.0,109,92.0
1676,D4,118.0,0.125,95,92.0
1677,F#2,118.0,0.25,85,92.0
1678,C#5,118.0,3/10,86,92.0
1679,E4,118.0,3/10,86,92.0
1680,F2,118.25,0.25,110,92.0
1681,A3,118.25,0.75,102,92.0
1682,A4,118.25,0.125,95,92.0
1683,C5,118.25,0.25,110,92.0
1684,D2,118.5,0.25,110,92.0
1685,D5,118.5,0.5,109,92.0
1686,F#4,118.5,0.5,102,92.0
1687,D3,118.5,0.125,88,92.0
1688,C5,118.5,0.125,95,92.0
1689,F#2,118.5,0.25,85,92.0
1690,G4,118.75,0.125,95,92.0
1691,C5,118.75,1.0,110,92.0
1692,B1,118.75,0.25,120,92.0
1693,A2,119.0,0.25,110,92.0
1694,D3,119.0,4.0,112,92.0
1695,A3,119.0,29/500,102,92.0
1696,D5,119.0,2633/1000,109,92.0
1697,F#4,119.0,567/1000,102,92.0
1698,D4,119.0,367/1000,106,92.0
1699,A4,119.0,117/40,109,92.0
1700,D4,119.0,0.125,95,92.0
1701,E2,119.0,0.25,102,92.0
1702,F#2,119.0,0.25,102,92.0
1703,A4,119.25,0.125,95,92.0
1704,C2,119.5,0.25,110,92.0
1705,D5,119.5,0.125,95,92.0
1706,B1,119.5,0.25,102,92.0
1707,F#2,119.5,0.25,102,92.0
1708,F4,119.75,0.125,95,92.0
1709,D2,120.0,0.5,110,92.0
1710,D4,120.0,0.125,95,92.0
1711,C#5,120.0,4.0,120,92.0
1712,D4,120.0,4.0,120,92.0
1713,F#4,120.0,4.0,120,92.0
1714,A4,120.0,4.0,120,92.0
1715,F#2,120.0,0.25,102,92.0
1716,B1,120.0,0.25,102,92.0
1717,A4,120.25,0.125,95,92.0
1718,D5,120.5,0.125,95,92.0
1719,F#2,120.5,0.25,85,92.0
1720,D2,120.75,0.25,110,92.0
1721,C5,120.75,0.125,95,92.0
1722,C5,120.75,0.5,110,92.0
1723,A4,120.75,11/20,105,92.0
1724,G4,120.75,11/20,105,92.0
1725,C4,120.75,11/20,105,92.0
1726,D4,120.75,11/20,105,92.0
1727,A2,121.0,0.25,110,92.0
1728,D4,121.0,0.125,95,92.0
1729,F#2,121.0,0.25,102,92.0
1730,E2,121.0,0.25,102,92.0
1731,C4,121.242,3/40,105,92.0
1732,E4,121.242,3/40,105,92.0
1733,G4,121.242,3/40,105,92.0
1734,B4,121.242,3/40,105,92.0
1735,A2,121.25,0.25,110,92.0
1736,A4,121.25,0.125,95,92.0
1737,D5,121.25,0.25,110,92.0
1738,F4,121.5,0.125,95,92.0
1739,F#2,121.5,0.25,85,92.0
1740,D2,121.75,0.25,110,92.0
1741,D5,121.75,0.125,95,92.0
1742,D5,121.75,0.5,110,92.0
1743,B1,121.75,0.25,120,92.0
1744,B4,121.75,0.5,105,92.0
1745,C4,121.75,0.5,105,92.0
1746,E4,121.75,0.5,105,92.0
1747,G4,121.75,0.5,105,92.0
1748,D4,122.0,0.125,95,92.0
1749,F#2,122.0,0.25,85,92.0
1750,F2,122.25,0.25,110,92.0
1751,C5,122.25,0.125,95,92.0
1752,E5,122.25,0.25,110,92.0
1753,C5,122.25,3/40,105,92.0
1754,D4,122.25,3/40,105,92.0
1755,F4,122.25,3/40,105,92.0
1756,A4,122.25,3/40,105,92.0
1757,D2,122.5,0.25,110,92.0
1758,E5,122.5,0.125,95,92.0
1759,F#2,122.5,0.25,85,92.0
1760,D4,122.742,1.25,105,92.0
1761,F4,122.742,1.25,105,92.0
1762,C5,122.742,1.25,105,92.0
1763,A4,122.742,1.25,105,92.0
1764,G4,122.75,0.125,95,92.0
1765,E5,122.75,1.0,110,92.0
1766,B1,122.75,0.25,120,92.0
1767,A2,123.0,0.25,110,92.0
1768,D4,123.0,0.125,95,92.0
1769,E2,123.0,0.25,102,92.0
1770,F#2,123.0,0.25,102,92.0
1771,A4,123.25,0.125,95,92.0
1772,C2,123.5,0.25,110,92.0
1773,D5,123.5,0.125,95,92.0
1774,D5,123.5,0.25,110,92.0
1775,B1,123.5,0.25,102,92.0
1776,F#2,123.5,0.25,102,92.0
1777,F4,123.75,0.125,95,92.0
1778,C5,123.75,0.25,110,92.0
1779,A4,123.75,11/20,105,92.0
1780,G4,123.75,11/20,105,92.0
1781,C4,123.75,11/20,105,92.0
1782,D4,123.75,11/20,105,92.0
1783,D2,124.0,0.5,110,92.0
1784,D4,124.0,0.125,95,92.0
1785,B4,124.0,0.5,110,92.0
1786,F#2,124.0,0.25,102,92.0
1787,B1,124.0,0.25,102,92.0
1788,C4,124.242,3/40,105,92.0
1789,E4,124.242,3/40,105,92.0
1790,G4,124.242,3/40,105,92.0
1791,B4,124.242,3/40,105,92.0
1792,A4,124.25,0.125,95,92.0
1793,D5,124.5,0.125,95,92.0
1794,G4,124.5,0.25,110,92.0
1795,F#2,124.5,0.25,85,92.0
1796,A2,124.75,0.25,110,92.0
1797,A4,124.75,0.125,95,92.0
1798,A4,124.75,1.25,110,92.0
1799,C5,124.75,0.5,105,92.0
1800,C4,124.75,0.5,105,92.0
1801,E4,124.75,0.5,105,92.0
1802,G4,124.75,0.5,105,92.0
1803,B4,124.75,0.5,105,92.0
1804,C4,124.75,0.5,105,92.0
1805,E4,124.75,0.5,105,92.0
1806,G4,124.75,0.5,105,92.0
1807,D3,125.0,0.25,110,92.0
1808,D4,125.0,0.125,95,92.0
1809,F#2,125.0,0.25,102,92.0
1810,E2,125.0,0.25,102,92.0
1811,C3,125.25,0.25,110,92.0
1812,A4,125.25,0.125,95,92.0
1813,D5,125.25,3/40,105,92.0
1814,F4,125.25,3/40,105,92.0
1815,A4,125.25,3/40,105,92.0
1816,C4,125.25,3/40,105,92.0
1817,C5,125.25,3/40,105,92.0
1818,D4,125.25,3/40,105,92.0
1819,F4,125.25,3/40,105,92.0
1820,A4,125.25,3/40,105,92.0
1821,E5,125.5,0.125,95,92.0
1822,F#2,125.5,0.25,85,92.0
1823,D4,125.742,1.25,105,92.0
1824,F4,125.742,1.25,105,92.0
1825,C5,125.742,1.25,105,92.0
1826,A4,125.742,1.25,105,92.0
1827,C4,125.75,23/40,105,92.0
1828,A2,125.75,0.25,110,92.0
1829,C5,125.75,0.125,95,92.0
1830,B1,125.75,0.25,120,92.0
1831,D5,125.75,1.0,105,92.0
1832,F4,125.75,1.0,105,92.0
1833,A4,125.75,1.0,105,92.0
1834,D4,126.0,0.125,95,92.0
1835,F#2,126.0,0.25,85,92.0
1836,G4,126.242,3/40,105,92.0
1837,E5,126.242,3/40,105,92.0
1838,B4,126.242,3/40,105,92.0
1839,E4,126.242,3/40,105,92.0
1840,C4,126.25,0.5,105,92.0
1841,F2,126.25,0.25,110,92.0
1842,A4,126.25,0.125,95,92.0
1843,D2,126.5,0.25,110,92.0
1844,C5,126.5,0.125,95,92.0
1845,F#2,126.5,0.25,85,92.0
1846,C4,126.75,79/500,105,92.0
1847,G4,126.75,0.125,95,92.0
1848,B1,126.75,0.25,120,92.0
1849,E5,126.75,1.25,105,92.0
1850,E4,126.75,1.25,105,92.0
1851,G4,126.75,1.25,105,92.0
1852,B4,126.75,1.25,105,92.0
1853,A1,127.0,0.25,110,92.0
1854,D4,127.0,0.125,95,92.0
1855,E2,127.0,0.25,102,92.0
1856,F#2,127.0,0.25,102,92.0
1857,A4,127.25,0.125,95,92.0
1858,C2,127.5,0.25,110,92.0
1859,D5,127.5,0.125,95,92.0
1860,D4,127.5,0.25,105,92.0
1861,D5,127.5,0.25,105,92.0
1862,B1,127.5,0.25,102,92.0
1863,F#2,127.5,0.25,102,92.0
1864,F4,127.75,0.125,95,92.0
1865,C4,127.75,0.25,105,92.0
1866,C5,127.75,0.25,105,92.0
1867,C5,127.75,0.5,105,92.0
1868,C4,127.75,0.5,105,92.0
1869,E4,127.75,0.5,105,92.0
1870,G4,127.75,0.5,105,92.0
1871,B4,128.0,0.5,105,92.0
1872,C4,128.0,4.0,105,92.0
1873,D4,128.0,4.0,105,92.0
1874,A4,128.0,4.0,105,92.0
1875,D2,128.0,0.5,110,92.0
1876,D4,128.0,0.125,95,92.0
1877,C#5,128.0,4.0,120,92.0
1878,D4,128.0,4.0,120,92.0
1879,F#4,128.0,4.0,120,92.0
1880,A4,128.0,4.0,120,92.0
1881,F#2,128.0,0.25,102,92.0
1882,B1,128.0,0.25,102,92.0
1883,A4,128.25,0.125,95,92.0
1884,D5,128.25,3/40,105,92.0
1885,F4,128.25,3/40,105,92.0
1886,A4,128.25,3/40,105,92.0
1887,C4,128.25,3/40,105,92.0
1888,G4,128.5,0.25,105,92.0
1889,D5,128.5,0.125,95,92.0
1890,F#2,128.5,0.25,85,92.0
1891,A4,128.75,3.25,105,92.0
1892,A2,128.75,0.25,110,92.0
1893,C4,128.75,23/40,105,92.0
1894,C5,128.75,0.125,95,92.0
1895,D5,128.75,1.0,105,92.0
1896,F4,128.75,1.0,105,92.0
1897,A4,128.75,1.0,105,92.0
1898,D3,129.0,0.25,110,92.0
1899,D4,129.0,0.125,95,92.0
1900,F#2,129.0,0.25,102,92.0
1901,E2,129.0,0.25,102,92.0
1902,G4,129.242,3/40,105,92.0
1903,E5,129.242,3/40,105,92.0
1904,B4,129.242,3/40,105,92.0
1905,E4,129.242,3/40,105,92.0
1906,C3,129.25,0.25,110,92.0
1907,C4,129.25,0.5,105,92.0
1908,A4,129.25,0.125,95,92.0
1909,F4,129.5,0.125,95,92.0
1910,F#2,129.5,0.25,85,92.0
1911,A2,129.75,0.25,110,92.0
1912,C4,129.75,79/500,105,92.0
1913,D5,129.75,0.125,95,92.0
1914,B1,129.75,0.25,120,92.0
1915,E5,129.75,1.25,105,92.0
1916,E4,129.75,1.25,105,92.0
1917,G4,129.75,1.25,105,92.0
1918,B4,129.75,1.25,105,92.0
1919,D4,130.0,0.125,95,92.0
1920,F#2,130.0,0.25,85,92.0
1921,E3,130.25,0.25,110,92.0
1922,C5,130.25,0.125,95,92.0
1923,D3,130.5,0.25,110,92.0
1924,E5,130.5,0.125,95,92.0
1925,F#2,130.5,0.25,85,92.0
1926,D4,130.5,0.25,105,92.0
1927,D5,130.5,0.25,105,92.0
1928,G4,130.75,0.125,95,92.0
1929,B1,130.75,0.25,120,92.0
1930,C4,130.75,0.25,105,92.0
1931,C5,130.75,0.25,105,92.0
1932,A1,131.0,0.25,110,92.0
1933,B4,131.0,0.5,105,92.0
1934,C4,131.0,4.0,105,92.0
1935,D4,131.0,4.0,105,92.0
1936,A4,131.0,4.0,105,92.0
1937,D4,131.0,0.125,95,92.0
1938,F#2,131.0,0.25,85,92.0
1939,A4,131.25,0.125,95,92.0
1940,E2,131.25,0.25,120,92.0
1941,C2,131.5,0.25,110,92.0
1942,G4,131.5,0.25,105,92.0
1943,D5,131.5,0.125,95,92.0
1944,B-2,131.5,0.25,102,92.0
1945,B1,131.5,0.25,102,92.0
1946,A4,131.75,3.25,105,92.0
1947,F4,131.75,0.125,95,92.0
1948,A4,132.0,0.5,105,92.0
1949,C4,132.0,0.5,105,92.0
1950,D4,132.0,0.75,105,92.0
1951,D2,132.0,0.5,110,92.0
1952,D4,132.0,0.125,95,92.0
1953,F#2,132.0,0.25,102,92.0
1954,B1,132.0,0.25,102,92.0
1955,A4,132.25,0.125,95,92.0
1956,C4,132.25,1.75,105,92.0
1957,A4,132.25,1.75,105,92.0
1958,D4,132.5,1.25,105,92.0
1959,C5,132.5,0.25,105,92.0
1960,D5,132.5,0.125,95,92.0
1961,F#2,132.5,0.25,85,92.0
1962,D2,132.75,0.25,110,92.0
1963,A4,132.75,0.125,95,92.0
1964,A4,132.75,0.5,110,92.0
1965,G4,132.75,0.75,105,92.0
1966,G5,132.75,0.75,105,92.0
1967,A2,133.0,0.25,110,92.0
1968,D4,133.0,0.125,95,92.0
1969,F#2,133.0,0.25,102,92.0
1970,E2,133.0,0.25,102,92.0
1971,A2,133.25,0.25,110,92.0
1972,A4,133.25,0.125,95,92.0
1973,B4,133.25,0.25,110,92.0
1974,E4,133.25,0.25,105,92.0
1975,E5,133.25,0.25,105,92.0
1976,D4,133.5,0.5,105,92.0
1977,C5,133.5,0.25,105,92.0
1978,E5,133.5,0.125,95,92.0
1979,F#2,133.5,0.25,85,92.0
1980,D2,133.75,0.25,110,92.0
1981,C5,133.75,0.125,95,92.0
1982,B4,133.75,0.5,110,92.0
1983,B1,133.75,0.25,120,92.0
1984,A4,133.75,1.25,105,92.0
1985,C4,133.75,1.25,105,92.0
1986,D4,134.0,0.125,95,92.0
1987,F#2,134.0,0.25,85,92.0
1988,F2,134.25,0.25,110,92.0
1989,A4,134.25,0.125,95,92.0
1990,C5,134.25,0.25,110,92.0
1991,D2,134.5,0.25,110,92.0
1992,C5,134.5,0.125,95,92.0
1993,F#2,134.5,0.25,85,92.0
1994,D3,134.75,151/125,112,92.0
1995,G4,134.75,0.125,95,92.0
1996,C5,134.75,1.0,110,92.0
1997,B1,134.75,0.25,120,92.0
1998,A3,135.0,479/500,112,92.0
1999,A2,135.0,0.25,110,92.0
2000,A4,135.0,0.5,105,92.0
2001,C4,135.0,0.5,105,92.0
2002,D4,135.0,0.75,105,92.0
2003,D4,135.0,0.125,95,92.0
2004,E2,135.0,0.25,102,92.0
2005,F#2,135.0,0.25,102,92.0
2006,C4,135.25,717/1000,91,92.0
2007,A4,135.25,0.125,95,92.0
2008,C4,135.25,1.75,105,92.0
2009,A4,135.25,1.75,105,92.0
2010,F4,135.5,467/1000,91,92.0
2011,C2,135.5,0.25,110,92.0
2012,D4,135.5,1.25,105,92.0
2013,C5,135.5,0.25,105,92.0
2014,D5,135.5,0.125,95,92.0
2015,B1,135.5,0.25,102,92.0
2016,F#2,135.5,0.25,102,92.0
2017,A4,135.75,217/1000,106,92.0
2018,F4,135.75,0.125,95,92.0
2019,G4,135.75,0.75,105,92.0
2020,G5,135.75,0.75,105,92.0
2021,D2,136.0,0.5,110,92.0
2022,D4,136.0,0.125,95,92.0
2023,F#2,136.0,0.25,102,92.0
2024,B1,136.0,0.25,102,92.0
2025,A4,136.25,0.125,95,92.0
2026,E4,136.25,0.25,105,92.0
2027,E5,136.25,0.25,105,92.0
2028,D4,136.5,0.5,105,92.0
2029,C5,136.5,0.25,105,92.0
2030,D5,136.5,0.125,95,92.0
2031,F#2,136.5,0.25,85,92.0
2032,D2,136.75,0.25,110,92.0
2033,C5,136.75,0.125,95,92.0
2034,C5,136.75,0.5,110,92.0
2035,A4,136.75,11/20,105,92.0
2036,G4,136.75,11/20,105,92.0
2037,C4,136.75,11/20,105,92.0
2038,D4,136.75,11/20,105,92.0
2039,A4,136.75,1.25,105,92.0
2040,C4,136.75,1.25,105,92.0
2041,A2,137.0,0.25,110,92.0
2042,D4,137.0,0.125,95,92.0
2043,F#2,137.0,0.25,102,92.0
2044,E2,137.0,0.25,102,92.0
2045,C4,137.242,3/40,105,92.0
2046,E4,137.242,3/40,105,92.0
2047,G4,137.242,3/40,105,92.0
2048,B4,137.242,3/40,105,92.0
2049,A2,137.25,0.25,110,92.0
2050,A4,137.25,0.125,95,92.0
2051,D5,137.25,0.25,110,92.0
2052,F4,137.5,0.125,95,92.0
2053,F#2,137.5,0.25,85,92.0
2054,D2,137.75,0.25,110,92.0
2055,D3,137.75,151/125,112,92.0
2056,D5,137.75,0.125,95,92.0
2057,D5,137.75,0.5,110,92.0
2058,B1,137.75,0.25,120,92.0
2059,B4,137.75,0.5,105,92.0
2060,C4,137.75,0.5,105,92.0
2061,E4,137.75,0.5,105,92.0
2062,G4,137.75,0.5,105,92.0
2063,A3,138.0,479/500,112,92.0
2064,D4,138.0,0.125,95,92.0
2065,F#2,138.0,0.25,85,92.0
2066,F2,138.25,0.25,110,92.0
2067,C4,138.25,717/1000,91,92.0
2068,C5,138.25,0.125,95,92.0
2069,E5,138.25,0.25,110,92.0
2070,C5,138.25,3/40,105,92.0
2071,D4,138.25,3/40,105,92.0
2072,F4,138.25,3/40,105,92.0
2073,A4,138.25,3/40,105,92.0
2074,D2,138.5,0.25,110,92.0
2075,F4,138.5,467/1000,91,92.0
2076,E5,138.5,0.125,95,92.0
2077,F#2,138.5,0.25,85,92.0
2078,D4,138.742,1.25,105,92.0
2079,F4,138.742,1.25,105,92.0
2080,C5,138.742,1.25,105,92.0
2081,A4,138.742,1.25,105,92.0
2082,A4,138.75,217/1000,106,92.0
2083,G4,138.75,0.125,95,92.0
2084,E5,138.75,1.0,110,92.0
2085,B1,138.75,0.25,120,92.0
2086,A2,139.0,0.25,110,92.0
2087,D4,139.0,0.125,95,92.0
2088,E2,139.0,0.25,102,92.0
2089,F#2,139.0,0.25,102,92.0
2090,A4,139.25,0.125,95,92.0
2091,C2,139.5,0.25,110,92.0
2092,D5,139.5,0.125,95,92.0
2093,D5,139.5,0.25,110,92.0
2094,B1,139.5,0.25,102,92.0
2095,F#2,139.5,0.25,102,92.0
2096,F4,139.75,0.125,95,92.0
2097,C5,139.75,0.25,110,92.0
2098,A4,139.75,11/20,105,92.0
2099,G4,139.75,11/20,105,92.0
2100,C4,139.75,11/20,105,92.0
2101,D4,139.75,11/20,105,92.0
2102,D2,140.0,0.5,110,92.0
2103,D4,140.0,0.125,95,92.0
2104,B4,140.0,0.5,110,92.0
2105,F#2,140.0,0.25,102,92.0
2106,B1,140.0,0.25,102,92.0
2107,C4,140.242,3/40,105,92.0
2108,E4,140.242,3/40,105,92.0
2109,G4,140.242,3/40,105,92.0
2110,B4,140.242,3/40,105,92.0
2111,A4,140.25,0.125,95,92.0
2112,D5,140.5,0.125,95,92.0
2113,G4,140.5,0.25,110,92.0
2114,F#2,140.5,0.25,85,92.0
2115,A2,140.75,0.25,110,92.0
2116,A4,140.75,0.125,95,92.0
2117,A4,140.75,1.25,110,92.0
2118,C5,140.75,0.5,105,92.0
2119,C4,140.75,0.5,105,92.0
2120,E4,140.75,0.5,105,92.0
2121,G4,140.75,0.5,105,92.0
2122,B4,140.75,0.5,105,92.0
2123,C4,140.75,0.5,105,92.0
2124,E4,140.75,0.5,105,92.0
2125,G4,140.75,0.5,105,92.0
2126,D3,141.0,0.25,110,92.0
2127,D4,141.0,0.125,95,92.0
2128,F#2,141.0,0.25,102,92.0
2129,E2,141.0,0.25,102,92.0
2130,C3,141.25,0.25,110,92.0
2131,A4,141.25,0.125,95,92.0
2132,D5,141.25,3/40,105,92.0
2133,F4,141.25,3/40,105,92.0
2134,A4,141.25,3/40,105,92.0
2135,C4,141.25,3/40,105,92.0
2136,C5,141.25,3/40,105,92.0
2137,D4,141.25,3/40,105,92.0
2138,F4,141.25,3/40,105,92.0
2139,A4,141.25,3/40,105,92.0
2140,E5,141.5,0.125,95,92.0
2141,B1,141.5,0.25,102,92.0
2142,F#2,141.5,0.25,102,92.0
2143,D4,141.742,1.25,105,92.0
2144,F4,141.742,1.25,105,92.0
2145,C5,141.742,1.25,105,92.0
2146,A4,141.742,1.25,105,92.0
2147,C4,141.75,23/40,105,92.0
2148,A2,141.75,0.25,110,92.0
2149,C5,141.75,0.125,95,92.0
2150,D5,141.75,1.0,105,92.0
2151,F4,141.75,1.0,105,92.0
2152,A4,141.75,1.0,105,92.0
2153,D4,142.0,0.125,95,92.0
2154,F#2,142.0,0.25,85,92.0
2155,G4,142.242,3/40,105,92.0
2156,E5,142.242,3/40,105,92.0
2157,B4,142.242,3/40,105,92.0
2158,E4,142.242,3/40,105,92.0
2159,C4,142.25,0.5,105,92.0
2160,F2,142.25,0.25,110,92.0
2161,A4,142.25,0.125,95,92.0
2162,B1,142.25,0.25,120,92.0
2163,D2,142.5,0.25,110,92.0
2164,C5,142.5,0.125,95,92.0
2165,F#2,142.5,0.25,85,92.0
2166,C4,142.75,79/500,105,92.0
2167,G4,142.75,0.125,95,92.0
2168,B1,142.75,0.25,120,92.0
2169,E5,142.75,1.25,105,92.0
2170,E4,142.75,1.25,105,92.0
2171,G4,142.75,1.25,105,92.0
2172,B4,142.75,1.25,105,92.0
2173,A1,143.0,0.25,110,92.0
2174,D4,143.0,0.125,95,92.0
2175,E2,143.0,0.25,102,92.0
2176,F#2,143.0,0.25,102,92.0
2177,A4,143.25,0.125,95,92.0
2178,C2,143.5,0.25,110,92.0
2179,D5,143.5,0.125,95,92.0
2180,D4,143.5,0.25,105,92.0
2181,D5,143.5,0.25,105,92.0
2182,B1,143.5,0.25,102,92.0
2183,F#2,143.5,0.25,102,92.0
2184,F4,143.75,0.125,95,92.0
2185,C4,143.75,0.25,105,92.0
2186,C5,143.75,0.25,105,92.0
2187,C5,143.75,0.5,105,92.0
2188,C4,143.75,0.5,105,92.0
2189,E4,143.75,0.5,105,92.0
2190,G4,143.75,0.5,105,92.0
2191,B4,144.0,0.5,105,92.0
2192,D4,144.0,1.75,110,92.0
2193,A4,144.0,1.0,110,92.0
2194,D3,144.0,3883/1000,115,92.0
2195,D2,144.0,0.5,110,92.0
2196,D4,144.0,0.125,95,92.0
2197,C4,144.0,1.5,111,92.0
2198,A4,144.0,1.5,111,92.0
2199,C4,144.0,2.0,112,92.0
2200,D4,144.0,2.0,112,92.0
2201,F#2,144.0,0.25,102,92.0
2202,B1,144.0,0.25,102,92.0
2203,A4,144.25,0.125,95,92.0
2204,D5,144.25,3/40,105,92.0
2205,F4,144.25,3/40,105,92.0
2206,A4,144.25,3/40,105,92.0
2207,C4,144.25,3/40,105,92.0
2208,G4,144.5,0.25,105,92.0
2209,D5,144.5,0.125,95,92.0
2210,F#2,144.5,0.25,85,92.0
2211,A4,144.75,1.25,105,92.0
2212,A2,144.75,0.25,110,92.0
2213,C4,144.75,23/40,105,92.0
2214,C5,144.75,0.125,95,92.0
2215,D5,144.75,1.0,105,92.0
2216,F4,144.75,1.0,105,92.0
2217,A4,144.75,1.0,105,92.0
2218,D3,145.0,0.25,110,92.0
2219,D4,145.0,0.125,95,92.0
2220,F#2,145.0,0.25,102,92.0
2221,E2,145.0,0.25,102,92.0
2222,G4,145.242,3/40,105,92.0
2223,E5,145.242,3/40,105,92.0
2224,B4,145.242,3/40,105,92.0
2225,E4,145.242,3/40,105,92.0
2226,C3,145.25,0.25,110,92.0
2227,C4,145.25,0.5,105,92.0
2228,A4,145.25,0.125,95,92.0
2229,C4,145.25,2.75,105,92.0
2230,A4,145.25,2.75,105,92.0
2231,D4,145.5,2.0,105,92.0
2232,C5,145.5,0.25,105,92.0
2233,F4,145.5,0.125,95,92.0
2234,F#2,145.5,0.25,85,92.0
2235,D2,145.75,2.0,110,92.0
2236,C4,145.75,79/500,105,92.0
2237,D5,145.75,0.125,95,92.0
2238,B1,145.75,0.25,120,92.0
2239,G4,145.75,0.75,105,92.0
2240,G5,145.75,0.75,105,92.0
2241,E5,145.75,1.25,105,92.0
2242,E4,145.75,1.25,105,92.0
2243,G4,145.75,1.25,105,92.0
2244,B4,145.75,1.25,105,92.0
2245,D4,146.0,0.125,95,92.0
2246,B-2,146.0,0.25,85,92.0
2247,C5,146.25,0.125,95,92.0
2248,B1,146.25,0.25,120,92.0
2249,E4,146.25,0.25,105,92.0
2250,E5,146.25,0.25,105,92.0
2251,D4,146.5,1.5,105,92.0
2252,C5,146.5,1.0,105,92.0
2253,E5,146.5,0.125,95,92.0
2254,E2,146.5,0.25,120,92.0
2255,D4,146.5,0.25,105,92.0
2256,D5,146.5,0.25,105,92.0
2257,G4,146.75,0.125,95,92.0
2258,C4,146.75,0.25,105,92.0
2259,C5,146.75,0.25,105,92.0
2260,A1,147.0,0.25,110,92.0
2261,B4,147.0,0.5,105,92.0
2262,D4,147.0,1.75,110,92.0
2263,A4,147.0,1.0,110,92.0
2264,D3,147.0,3883/1000,115,92.0
2265,D4,147.0,0.125,95,92.0
2266,A4,147.0,0.25,110,92.0
2267,E2,147.0,0.25,120,92.0
2268,C4,147.0,1.5,111,92.0
2269,A4,147.0,1.5,111,92.0
2270,C4,147.0,2.0,112,92.0
2271,D4,147.0,2.0,112,92.0
2272,A4,147.25,0.125,95,92.0
2273,B-4,147.25,0.25,110,92.0
2274,E2,147.25,0.25,120,92.0
2275,C2,147.5,0.25,110,92.0
2276,G4,147.5,0.25,105,92.0
2277,D5,147.5,0.125,95,92.0
2278,A4,147.5,0.25,110,92.0
2279,A4,147.75,1.25,105,92.0
2280,F4,147.75,0.125,95,92.0
2281,F4,147.75,0.25,110,92.0
2282,B1,147.75,0.25,120,92.0
2283,E-2,148.0,0.5,110,92.0
2284,G4,148.0,0.125,95,92.0
2285,G4,148.0,4.0,110,92.0
2286,C#3,148.0,1.0,105,92.0
2287,F#2,148.0,0.25,102,92.0
2288,B1,148.0,0.25,102,92.0
2289,D5,148.25,0.125,95,92.0
2290,C4,148.25,0.25,105,92.0
2291,A4,148.25,0.25,105,92.0
2292,C4,148.25,2.75,105,92.0
2293,A4,148.25,2.75,105,92.0
2294,D4,148.5,2.0,105,92.0
2295,C5,148.5,0.25,105,92.0
2296,F4,148.5,0.125,95,92.0
2297,F#2,148.5,0.25,85,92.0
2298,D4,148.5,0.25,105,92.0
2299,C5,148.5,0.25,105,92.0
2300,E-2,148.75,2.0,110,92.0
2301,G4,148.75,0.125,95,92.0
2302,B1,148.75,0.25,120,92.0
2303,G4,148.75,0.75,105,92.0
2304,G5,148.75,0.75,105,92.0
2305,G4,148.75,0.75,105,92.0
2306,G5,148.75,0.75,105,92.0
2307,E-5,149.0,0.125,95,92.0
2308,E-3,149.0,1.0,105,92.0
2309,F#2,149.0,0.25,102,92.0
2310,E2,149.0,0.25,102,92.0
2311,F4,149.25,0.125,95,92.0
2312,E4,149.25,0.25,105,92.0
2313,E5,149.25,0.25,105,92.0
2314,E4,149.25,0.25,105,92.0
2315,E5,149.25,0.25,105,92.0
2316,D4,149.5,1.5,105,92.0
2317,C5,149.5,1.0,105,92.0
2318,G4,149.5,0.125,95,92.0
2319,F#2,149.5,0.25,85,92.0
2320,D4,149.5,0.25,105,92.0
2321,C5,149.5,0.25,105,92.0
2322,F5,149.75,0.125,95,92.0
2323,A4,149.75,1.25,105,92.0
2324,C4,149.75,1.25,105,92.0
2325,F4,150.0,0.125,95,92.0
2326,E-3,150.0,1.0,105,92.0
2327,F#2,150.0,0.25,102,92.0
2328,B1,150.0,0.25,102,92.0
2329,G4,150.25,0.125,95,92.0
2330,E-5,150.5,0.125,95,92.0
2331,B-2,150.5,0.25,85,92.0
2332,D3,150.75,21/20,119,92.0
2333,E-2,150.75,1.0,110,92.0
2334,F4,150.75,0.125,95,92.0
2335,B1,150.75,0.25,120,92.0
2336,A4,151.0,333/1000,110,92.0
2337,G4,151.0,0.125,95,92.0
2338,E-3,151.0,1.0,105,92.0
2339,F#2,151.0,0.25,102,92.0
2340,E2,151.0,0.25,102,92.0
2341,B-4,151.25,333/1000,110,92.0
2342,D5,151.25,0.125,95,92.0
2343,C4,151.25,0.25,105,92.0
2344,A4,151.25,0.25,105,92.0
2345,A4,151.5,13/40,110,92.0
2346,F4,151.5,0.125,95,92.0
2347,D4,151.5,0.25,105,92.0
2348,C5,151.5,0.25,105,92.0
2349,F#2,151.5,0.25,102,92.0
2350,B1,151.5,0.25,102,92.0
2351,F4,151.75,217/1000,106,92.0
2352,G4,151.75,0.125,95,92.0
2353,G4,151.75,0.75,105,92.0
2354,G5,151.75,0.75,105,92.0
2355,D4,152.0,4.0,105,92.0
2356,E-2,152.0,4.0,102,92.0
2357,E-2,152.0,0.25,110,92.0
2358,G4,152.0,0.125,95,92.0
2359,G4,152.0,3.0,110,92.0
2360,G3,152.0,4.0,105,92.0
2361,G4,152.0,4.0,105,92.0
2362,B-4,152.0,4.0,105,92.0
2363,B1,152.0,0.25,102,92.0
2364,F#2,152.0,0.25,102,92.0
2365,D5,152.25,0.125,95,92.0
2366,E4,152.25,0.25,105,92.0
2367,E5,152.25,0.25,105,92.0
2368,F4,152.5,0.125,95,92.0
2369,B-2,152.5,0.25,85,92.0
2370,D4,152.5,0.25,105,92.0
2371,C5,152.5,0.25,105,92.0
2372,E-2,152.75,2.75,110,92.0
2373,G4,152.75,0.125,95,92.0
2374,B1,152.75,0.25,120,92.0
2375,A4,152.75,1.25,105,92.0
2376,C4,152.75,1.25,105,92.0
2377,E-5,153.0,0.125,95,92.0
2378,E2,153.0,0.25,120,92.0
2379,F4,153.25,0.125,95,92.0
2380,G4,153.5,0.125,95,92.0
2381,F#2,153.5,0.25,85,92.0
2382,D3,153.75,21/20,119,92.0
2383,D5,153.75,0.125,95,92.0
2384,E2,153.75,0.25,120,92.0
2385,B1,153.75,0.25,120,92.0
2386,A4,154.0,333/1000,110,92.0
2387,F4,154.0,0.125,95,92.0
2388,E2,154.0,0.25,120,92.0
2389,B-4,154.25,333/1000,110,92.0
2390,G4,154.25,0.125,95,92.0
2391,B-2,154.25,0.25,85,92.0
2392,A4,154.5,13/40,110,92.0
2393,F5,154.5,0.125,95,92.0
2394,F4,154.75,217/1000,106,92.0
2395,F4,154.75,0.125,95,92.0
2396,B1,154.75,0.25,120,92.0
2397,D4,155.0,4.0,105,92.0
2398,E-2,155.0,4.0,102,92.0
2399,G4,155.0,0.125,95,92.0
2400,G3,155.0,4.0,105,92.0
2401,G4,155.0,4.0,105,92.0
2402,B-4,155.0,4.0,105,92.0
2403,F#2,155.0,0.25,102,92.0
2404,E2,155.0,0.25,102,92.0
2405,E-5,155.25,0.125,95,92.0
2406,G4,155.25,0.25,110,92.0
2407,E2,155.25,0.25,120,92.0
2408,F4,155.5,0.125,95,92.0
2409,A4,155.5,0.25,110,92.0
2410,F#2,155.5,0.25,102,92.0
2411,B1,155.5,0.25,102,92.0
2412,G4,155.75,0.125,95,92.0
2413,B-4,155.75,0.25,110,92.0
2414,D4,156.0,67/20,105,92.0
2415,E-2,156.0,23/10,102,92.0
2416,D2,156.0,0.25,110,92.0
2417,F#4,156.0,0.125,95,92.0
2418,A4,156.0,0.5,110,92.0
2419,B-4,156.0,4.0,100,92.0
2420,D5,156.0,4.0,100,92.0
2421,G5,156.0,4.0,100,92.0
2422,B-2,156.0,0.25,102,92.0
2423,B1,156.0,0.25,102,92.0
2424,C#5,156.25,0.125,95,92.0
2425,G#4,156.375,0.125,110,92.0
2426,E4,156.5,0.125,95,92.0
2427,G4,156.5,0.25,110,92.0
2428,D3,156.75,2.25,110,92.0
2429,F#4,156.75,0.125,95,92.0
2430,F#4,156.75,3.25,110,92.0
2431,B1,156.75,0.25,115,92.0
2432,C#3,156.75,0.25,115,92.0
2433,D5,157.0,0.125,95,92.0
2434,E4,157.25,0.125,95,92.0
2435,F#4,157.5,0.125,95,92.0
2436,F#2,157.5,0.25,85,92.0
2437,E5,157.75,0.125,95,92.0
2438,E4,158.0,0.125,95,92.0
2439,E-3,158.0,1.0,105,92.0
2440,F#2,158.0,0.25,102,92.0
2441,B1,158.0,0.25,102,92.0
2442,F#4,158.25,0.125,95,92.0
2443,D5,158.5,0.125,95,92.0
2444,F#2,158.5,0.25,85,92.0
2445,E-2,158.75,1233/1000,126,92.0
2446,E4,158.75,0.125,95,92.0
2447,B1,158.75,0.25,120,92.0
2448,E-3,159.0,983/1000,99,92.0
2449,D4,159.0,67/20,105,92.0
2450,E-2,159.0,23/10,102,92.0
2451,F#4,159.0,0.125,95,92.0
2452,E-3,159.0,1.0,105,92.0
2453,B-4,159.0,4.0,100,92.0
2454,D5,159.0,4.0,100,92.0
2455,G5,159.0,4.0,100,92.0
2456,F#2,159.0,0.25,102,92.0
2457,E2,159.0,0.25,102,92.0
2458,G4,159.25,371/500,115,92.0
2459,D2,159.25,0.25,110,92.0
2460,C#5,159.25,0.125,95,92.0
2461,A4,159.5,483/1000,95,92.0
2462,D2,159.5,0.25,110,92.0
2463,E4,159.5,0.125,95,92.0
2464,F#2,159.5,0.25,102,92.0
2465,B1,159.5,0.25,102,92.0
2466,B-4,159.75,0.25,88,92.0
2467,F#4,159.75,0.125,95,92.0
2468,A4,160.0,483/1000,95,92.0
2469,D2,160.0,0.5,110,92.0
2470,F#4,160.0,0.125,95,92.0
2471,F#4,160.0,3.0,110,92.0
2472,E-3,160.0,1.0,105,92.0
2473,F#2,160.0,0.25,102,92.0
2474,B1,160.0,0.25,102,92.0
2475,D3,160.033,3.5,99,92.0
2476,C#5,160.25,0.125,95,92.0
2477,A3,160.283,3717/1000,102,92.0
2478,E4,160.5,0.125,95,92.0
2479,F#2,160.5,0.25,85,92.0
2480,D4,160.525,173/250,112,92.0
2481,F#4,160.542,883/1000,109,92.0
2482,D4,160.75,2517/1000,100,92.0
2483,F#4,160.75,349/125,100,92.0
2484,D2,160.75,0.25,110,92.0
2485,F#4,160.75,0.125,95,92.0
2486,C#5,160.75,127/40,110,92.0
2487,A4,160.75,127/40,110,92.0
2488,E2,161.0,0.25,110,92.0
2489,D5,161.0,0.125,95,92.0
2490,E-3,161.0,1.0,105,92.0
2491,F#2,161.0,0.25,102,92.0
2492,E2,161.0,0.25,102,92.0
2493,E2,161.25,0.25,110,92.0
2494,E4,161.25,0.125,95,92.0
2495,F#4,161.5,0.125,95,92.0
2496,F#2,161.5,0.25,85,92.0
2497,E2,161.75,0.25,110,92.0
2498,E-2,161.75,1233/1000,126,92.0
2499,C#5,161.75,0.125,95,92.0
2500,B1,161.75,0.25,120,92.0
2501,F#2,162.0,0.25,110,92.0
2502,E-3,162.0,983/1000,99,92.0
2503,E4,162.0,0.125,95,92.0
2504,E2,162.0,0.25,102,92.0
2505,F#2,162.0,0.25,102,92.0
2506,F#2,162.25,0.25,110,92.0
2507,G4,162.25,371/500,115,92.0
2508,F#4,162.25,0.125,95,92.0
2509,B-2,162.25,0.25,108,92.0
2510,B1,162.25,0.25,108,92.0
2511,A4,162.5,483/1000,95,92.0
2512,E5,162.5,0.125,95,92.0
2513,F#2,162.5,0.25,85,92.0
2514,F#2,162.75,0.25,110,92.0
2515,B-4,162.75,0.25,88,92.0
2516,E4,162.75,0.125,95,92.0
2517,B-2,162.75,0.25,108,92.0
2518,B1,162.75,0.25,108,92.0
2519,D4,162.825,273/250,109,92.0
2520,A2,163.0,0.5,110,92.0
2521,A4,163.0,483/1000,95,92.0
2522,F#4,163.0,0.125,95,92.0
2523,A4,163.0,0.25,110,92.0
2524,E2,163.0,0.25,102,92.0
2525,F#2,163.0,0.25,102,92.0
2526,D3,163.033,3.5,99,92.0
2527,G4,163.05,433/1000,127,92.0
2528,D5,163.25,0.125,95,92.0
2529,B-4,163.25,0.25,110,92.0
2530,E2,163.25,0.25,120,92.0
2531,F#4,163.275,13/20,112,92.0
2532,A3,163.283,3717/1000,102,92.0
2533,D2,163.5,0.5,110,92.0
2534,E4,163.5,0.125,95,92.0
2535,A4,163.5,0.25,110,92.0
2536,B-2,163.5,0.25,102,92.0
2537,B1,163.5,0.25,102,92.0
2538,D4,163.525,173/250,112,92.0
2539,E4,163.533,71/500,112,92.0
2540,F#4,163.542,883/1000,109,92.0
2541,D4,163.75,2517/1000,100,92.0
2542,F#4,163.75,349/125,100,92.0
2543,F#4,163.75,0.125,95,92.0
2544,F4,163.75,0.25,110,92.0
2545,C#5,163.75,127/40,110,92.0
2546,A4,163.75,127/40,110,92.0
2547,D4,163.8,0.125,99,92.0
2548,A3,164.0,1/40,102,92.0
2549,E-2,164.0,0.5,110,92.0
2550,G4,164.0,0.125,95,92.0
2551,G4,164.0,0.75,110,92.0
2552,B-2,164.0,1.0,105,92.0
2553,B1,164.0,0.25,120,92.0
2554,E-4,164.0,4.0,120,92.0
2555,G4,164.0,4.0,120,92.0
2556,B-4,164.0,4.0,120,92.0
2557,D5,164.0,4.0,120,92.0
2558,E4,164.033,1771/500,99,92.0
2559,D3,164.042,3933/1000,96,92.0
2560,C#4,164.05,221/500,88,92.0
2561,D5,164.25,0.125,95,92.0
2562,A3,164.325,101/125,102,92.0
2563,F4,164.5,0.125,95,92.0
2564,E2,164.5,0.25,120,92.0
2565,C#4,164.567,47/20,99,92.0
2566,A4,164.75,127/40,119,92.0
2567,E-3,164.75,1.0,110,92.0
2568,G4,164.75,0.125,95,92.0
2569,E-4,164.75,3.25,110,92.0
2570,B1,164.75,0.25,115,92.0
2571,C#3,164.75,0.25,115,92.0
2572,E-5,165.0,0.125,95,92.0
2573,F4,165.25,0.125,95,92.0
2574,A3,165.267,176/125,115,92.0
2575,G4,165.5,0.125,95,92.0
2576,F#2,165.5,0.25,85,92.0
2577,E-2,165.75,0.25,110,92.0
2578,F5,165.75,0.125,95,92.0
2579,D4,165.825,273/250,109,92.0
2580,E-2,166.0,2.0,110,92.0
2581,F4,166.0,0.125,95,92.0
2582,F#2,166.0,0.25,102,92.0
2583,B1,166.0,0.25,102,92.0
2584,G4,166.05,433/1000,127,92.0
2585,G4,166.25,0.125,95,92.0
2586,F#4,166.275,13/20,112,92.0
2587,E-5,166.5,0.125,95,92.0
2588,B-2,166.5,0.25,102,92.0
2589,E2,166.5,0.25,102,92.0
2590,E4,166.533,71/500,112,92.0
2591,F4,166.75,0.125,95,92.0
2592,B1,166.75,0.25,120,92.0
2593,A3,166.783,149/125,106,92.0
2594,D4,166.8,0.125,99,92.0
2595,A4,167.0,1.0,112,92.0
2596,A3,167.0,1/40,102,92.0
2597,G4,167.0,0.125,95,92.0
2598,F#2,167.0,0.25,85,92.0
2599,E4,167.033,1771/500,99,92.0
2600,D3,167.042,3933/1000,96,92.0
2601,C#4,167.05,221/500,88,92.0
2602,B-4,167.25,0.75,112,92.0
2603,D5,167.25,0.125,95,92.0
2604,A3,167.325,101/125,102,92.0
2605,A4,167.5,0.5,112,92.0
2606,F4,167.5,0.125,95,92.0
2607,F#2,167.5,0.25,102,92.0
2608,B1,167.5,0.25,102,92.0
2609,C#4,167.567,47/20,99,92.0
2610,F4,167.75,0.25,112,92.0
2611,A4,167.75,127/40,119,92.0
2612,G4,167.75,0.125,95,92.0
2613,B-2,167.75,0.25,85,92.0
2614,E-2,168.0,4.0,106,92.0
2615,G3,168.0,2583/1000,91,92.0
2616,D4,168.0,3.0,102,92.0
2617,F4,168.0,3267/1000,99,92.0
2618,B-4,168.0,0.25,112,92.0
2619,E-3,168.0,0.25,110,92.0
2620,G4,168.0,0.125,95,92.0
2621,E-4,168.0,3.0,110,92.0
2622,E2,168.0,0.25,120,92.0
2623,C3,168.25,0.25,110,92.0
2624,D5,168.25,0.125,95,92.0
2625,B1,168.25,0.25,120,92.0
2626,A3,168.267,176/125,115,92.0
2627,E-3,168.5,1633/1000,49,92.0
2628,F3,168.5,0.25,110,92.0
2629,F4,168.5,0.125,95,92.0
2630,F#2,168.5,0.25,85,92.0
2631,E-3,168.75,1.5,110,92.0
2632,G4,168.75,0.125,95,92.0
2633,B-2,168.75,0.25,85,92.0
2634,G4,168.75,127/40,119,92.0
2635,B-4,168.75,127/40,119,92.0
2636,D5,168.75,127/40,119,92.0
2637,E-5,169.0,0.125,95,92.0
2638,B1,169.0,0.25,102,92.0
2639,F#2,169.0,0.25,102,92.0
2640,F4,169.25,0.125,95,92.0
2641,E2,169.25,0.25,120,92.0
2642,G4,169.5,0.125,95,92.0
2643,G3,169.5,0.25,85,92.0
2644,D5,169.75,0.125,95,92.0
2645,B1,169.75,0.25,120,92.0
2646,A3,169.783,149/125,106,92.0
2647,E-2,170.0,2.0,110,92.0
2648,A4,170.0,1.0,112,92.0
2649,F4,170.0,0.125,95,92.0
2650,F#2,170.0,0.25,102,92.0
2651,E2,170.0,0.25,102,92.0
2652,E-3,170.25,1.75,96,92.0
2653,B-4,170.25,0.75,112,92.0
2654,G4,170.25,0.125,95,92.0
2655,B1,170.25,0.25,120,92.0
2656,A4,170.5,0.5,112,92.0
2657,F5,170.5,0.125,95,92.0
2658,F#2,170.5,0.25,85,92.0
2659,G3,170.75,1.25,84,92.0
2660,F4,170.75,0.25,112,92.0
2661,F4,170.75,0.125,95,92.0
2662,B-2,170.75,0.25,85,92.0
2663,E-2,171.0,4.0,106,92.0
2664,G3,171.0,2583/1000,91,92.0
2665,D4,171.0,3.0,102,92.0
2666,F4,171.0,3267/1000,99,92.0
2667,B-4,171.0,0.25,112,92.0
2668,G4,171.0,0.125,95,92.0
2669,E2,171.0,0.25,120,92.0
2670,D4,171.25,0.75,88,92.0
2671,E-5,171.25,0.125,95,92.0
2672,G4,171.25,0.25,110,92.0
2673,E2,171.25,0.25,120,92.0
2674,E-3,171.5,1633/1000,49,92.0
2675,F4,171.5,0.125,95,92.0
2676,A4,171.5,0.25,110,92.0
2677,B1,171.5,0.25,120,92.0
2678,F4,171.75,0.25,96,92.0
2679,G4,171.75,0.125,95,92.0
2680,B-4,171.75,0.25,110,92.0
2681,G4,171.75,127/40,119,92.0
2682,B-4,171.75,127/40,119,92.0
2683,D5,171.75,127/40,119,92.0
2684,E-2,172.0,107/40,106,92.0
2685,G3,172.0,127/40,84,92.0
2686,D4,172.0,823/250,88,92.0
2687,F4,172.0,33/10,96,92.0
2688,E-3,172.0,723/250,96,92.0
2689,D2,172.0,0.25,110,92.0
2690,F#4,172.0,0.125,95,92.0
2691,A4,172.0,0.5,110,92.0
2692,B-2,172.0,1.0,105,92.0
2693,B1,172.0,0.25,120,92.0
2694,E-4,172.0,4.0,120,92.0
2695,G4,172.0,4.0,120,92.0
2696,B-4,172.0,4.0,120,92.0
2697,D5,172.0,4.0,120,92.0
2698,C#5,172.25,0.125,95,92.0
2699,E4,172.5,0.125,95,92.0
2700,G4,172.5,0.25,110,92.0
2701,F#2,172.5,0.25,85,92.0
2702,D3,172.75,3.25,110,92.0
2703,F#4,172.75,0.125,95,92.0
2704,F#4,172.75,3.25,110,92.0
2705,B1,172.75,0.25,115,92.0
2706,C#3,172.75,0.25,115,92.0
2707,D5,173.0,0.125,95,92.0
2708,E-3,173.25,1.75,96,92.0
2709,E4,173.25,0.125,95,92.0
2710,F#4,173.5,0.125,95,92.0
2711,F#2,173.5,0.25,85,92.0
2712,D2,173.75,0.25,110,92.0
2713,G3,173.75,1.25,84,92.0
2714,E5,173.75,0.125,95,92.0
2715,E-4,173.833,2.0,105,92.0
2716,G4,173.833,2.0,105,92.0
2717,B-4,173.95,2.0,105,92.0
2718,D5,173.95,2.0,105,92.0
2719,D2,174.0,1.5,110,92.0
2720,E4,174.0,0.125,95,92.0
2721,E-3,174.0,1.0,105,92.0
2722,F#2,174.0,0.25,102,92.0
2723,B1,174.0,0.25,102,92.0
2724,D4,174.25,0.75,88,92.0
2725,F#4,174.25,0.125,95,92.0
2726,D5,174.5,0.125,95,92.0
2727,F#2,174.5,0.25,85,92.0
2728,E-2,174.75,49/40,126,92.0
2729,F4,174.75,0.25,96,92.0
2730,E4,174.75,0.125,95,92.0
2731,B1,174.75,0.25,120,92.0
2732,E-3,175.0,39/40,127,92.0
2733,E-2,175.0,107/40,106,92.0
2734,G3,175.0,127/40,84,92.0
2735,D4,175.0,823/250,88,92.0
2736,F4,175.0,33/10,96,92.0
2737,E-3,175.0,723/250,96,92.0
2738,F#4,175.0,0.125,95,92.0
2739,E-3,175.0,1.0,105,92.0
2740,F#2,175.0,0.25,102,92.0
2741,E2,175.0,0.25,102,92.0
2742,G4,175.25,29/40,121,92.0
2743,D2,175.25,0.5,110,92.0
2744,C#5,175.25,0.125,95,92.0
2745,A4,175.5,19/40,85,92.0
2746,D2,175.5,0.5,110,92.0
2747,E4,175.5,0.125,95,92.0
2748,F#2,175.5,0.25,102,92.0
2749,B1,175.5,0.25,102,92.0
2750,B-4,175.75,9/40,102,92.0
2751,F#4,175.75,0.125,95,92.0
2752,D3,176.0,4.0,106,92.0
2753,C#4,176.0,2583/1000,91,92.0
2754,D2,176.0,0.5,110,92.0
2755,F#4,176.0,0.125,95,92.0
2756,E-3,176.0,1.0,105,92.0
2757,F#4,176.0,2.75,100,92.0
2758,A4,176.0,2.75,100,92.0
2759,D4,176.0,4.0,120,92.0
2760,C#5,176.0,4.0,120,92.0
2761,F#4,176.0,4.0,120,92.0
2762,A4,176.0,4.0,120,92.0
2763,F#2,176.0,0.25,102,92.0
2764,B1,176.0,0.25,102,92.0
2765,C#5,176.25,0.125,95,92.0
2766,E4,176.5,0.125,95,92.0
2767,F#2,176.5,0.25,85,92.0
2768,F#4,176.75,2.25,119,92.0
2769,A4,176.75,2517/1000,119,92.0
2770,C#5,176.75,2.0,119,92.0
2771,D2,176.75,0.25,110,92.0
2772,F#4,176.75,0.125,95,92.0
2773,E-4,176.833,2.0,105,92.0
2774,G4,176.833,2.0,105,92.0
2775,B-4,176.95,2.0,105,92.0
2776,D5,176.95,2.0,105,92.0
2777,E2,177.0,0.25,110,92.0
2778,D5,177.0,0.125,95,92.0
2779,E-3,177.0,1.0,105,92.0
2780,F#2,177.0,0.25,102,92.0
2781,E2,177.0,0.25,102,92.0
2782,E2,177.25,0.25,110,92.0
2783,E4,177.25,0.125,95,92.0
2784,F#4,177.5,0.125,95,92.0
2785,F#2,177.5,0.25,85,92.0
2786,D2,177.75,2.0,110,92.0
2787,E-2,177.75,49/40,126,92.0
2788,C#5,177.75,0.125,95,92.0
2789,B1,177.75,0.25,120,92.0
2790,E-3,178.0,39/40,127,92.0
2791,E4,178.0,0.125,95,92.0
2792,B-2,178.0,0.25,85,92.0
2793,A3,178.25,1.75,96,92.0
2794,G4,178.25,29/40,121,92.0
2795,F#4,178.25,0.125,95,92.0
2796,B1,178.25,0.25,120,92.0
2797,A4,178.5,19/40,85,92.0
2798,E5,178.5,0.125,95,92.0
2799,C#4,178.75,1.25,84,92.0
2800,B-4,178.75,9/40,102,92.0
2801,E4,178.75,0.125,95,92.0
2802,B1,178.75,0.25,120,92.0
2803,E2,178.917,0.125,83,92.0
2804,D3,179.0,4.0,106,92.0
2805,C#4,179.0,2583/1000,91,92.0
2806,F#4,179.0,0.125,95,92.0
2807,E2,179.0,0.25,120,92.0
2808,F#4,179.0,2.75,100,92.0
2809,A4,179.0,2.75,100,92.0
2810,F#4,179.25,0.75,88,92.0
2811,D5,179.25,0.125,95,92.0
2812,E2,179.25,0.25,120,92.0
2813,E4,179.5,0.125,95,92.0
2814,G3,179.5,0.25,100,92.0
2815,A4,179.75,0.25,96,92.0
2816,F#4,179.75,2.25,119,92.0
2817,A4,179.75,2517/1000,119,92.0
2818,C#5,179.75,2.0,119,92.0
2819,F#4,179.75,0.125,95,92.0
2820,B1,179.75,0.25,120,92.0
2821,D3,180.0,107/40,106,92.0
2822,C#4,180.0,127/40,84,92.0
2823,F#4,180.0,823/250,88,92.0
2824,A4,180.0,33/10,96,92.0
2825,A3,180.0,723/250,96,92.0
2826,D2,180.0,0.5,110,92.0
2827,C#3,180.0,0.25,110,92.0
2828,B1,180.0,0.25,110,92.0
2829,F#2,180.5,0.25,75,92.0
2830,D2,180.75,0.25,110,92.0
2831,F2,181.0,0.25,110,92.0
2832,C#2,181.0,0.25,102,92.0
2833,F#2,181.0,0.25,102,92.0
2834,F2,181.25,0.25,110,92.0
2835,A3,181.25,1.75,96,92.0
2836,F#2,181.5,0.25,75,92.0
2837,D2,181.75,0.25,110,92.0
2838,C#4,181.75,1.25,84,92.0
2839,B1,181.75,0.25,120,92.0
2840,E4,181.833,2.0,100,92.0
2841,A4,181.833,2.0,100,92.0
2842,C#5,181.942,2.0,100,92.0
2843,F#5,181.942,2.0,100,92.0
2844,F#2,182.0,0.25,85,92.0
2845,F#4,182.25,0.75,88,92.0
2846,F#2,182.5,0.25,75,92.0
2847,D3,182.75,49/40,126,92.0
2848,A4,182.75,0.25,96,92.0
2849,B1,182.75,0.25,120,92.0
2850,A2,183.0,0.5,110,92.0
2851,D3,183.0,107/40,106,92.0
2852,C#4,183.0,127/40,84,92.0
2853,F#4,183.0,823/250,88,92.0
2854,A4,183.0,33/10,96,92.0
2855,A3,183.0,723/250,96,92.0
2856,C#2,183.0,0.25,102,92.0
2857,F#2,183.0,0.25,102,92.0
2858,C3,183.5,0.5,110,92.0
2859,B1,183.5,0.25,98,92.0
2860,F#2,183.5,0.25,98,92.0
2861,C4,184.0,4.0,105,92.0
2862,E4,184.0,324/125,105,92.0
2863,D2,184.0,0.5,110,92.0
2864,D3,184.0,4.0,105,92.0
2865,A3,184.0,4.0,105,92.0
2866,D4,184.0,4.0,120,92.0
2867,C#5,184.0,4.0,120,92.0
2868,F#4,184.0,4.0,120,92.0
2869,A4,184.0,4.0,120,92.0
2870,F#2,184.0,0.25,102,92.0
2871,B1,184.0,0.25,102,92.0
2872,F#2,184.5,0.25,75,92.0
2873,D2,184.75,0.25,110,92.0
2874,E4,184.833,2.0,100,92.0
2875,A4,184.833,2.0,100,92.0
2876,C#5,184.942,2.0,100,92.0
2877,F#5,184.942,2.0,100,92.0
2878,F2,185.0,0.25,110,92.0
2879,C#2,185.0,0.25,102,92.0
2880,F#2,185.0,0.25,102,92.0
2881,F2,185.25,0.25,110,92.0
2882,F#2,185.5,0.25,75,92.0
2883,D2,185.75,0.25,110,92.0
2884,D3,185.75,49/40,126,92.0
2885,B1,185.75,0.25,120,92.0
2886,D4,185.875,24/125,99,92.0
2887,E-4,185.975,129/500,106,92.0
2888,F#2,186.0,0.25,85,92.0
2889,E4,186.158,921/500,92,92.0
2890,F#2,186.5,0.25,75,92.0
2891,F4,186.617,233/1000,97,92.0
2892,A2,186.75,0.25,110,92.0
2893,B1,186.75,0.25,120,92.0
2894,D4,186.808,24/125,67,92.0
2895,E-4,186.917,217/1000,72,92.0
2896,G2,187.0,0.25,110,92.0
2897,C#2,187.0,0.25,102,92.0
2898,F#2,187.0,0.25,102,92.0
2899,E4,187.075,37/40,99,92.0
2900,F2,187.25,0.25,110,92.0
2901,E2,187.5,0.25,110,92.0
2902,B1,187.5,0.25,98,92.0
2903,F#2,187.5,0.25,98,92.0
2904,C2,187.75,0.25,110,92.0
2905,D2,188.0,0.5,110,92.0
2906,E-4,188.0,4.0,120,92.0
2907,D5,188.0,4.0,120,92.0
2908,G4,188.0,4.0,120,92.0
2909,B-4,188.0,4.0,120,92.0
2910,F#2,188.0,0.25,102,92.0
2911,B1,188.0,0.25,102,92.0
2912,F#2,188.5,0.25,75,92.0
2913,D2,188.75,0.25,110,92.0
2914,F2,189.0,0.25,110,92.0
2915,C#2,189.0,0.25,102,92.0
2916,F#2,189.0,0.25,102,92.0
2917,F2,189.25,0.25,110,92.0
2918,F#2,189.5,0.25,75,92.0
2919,D2,189.75,0.25,110,92.0
2920,B1,189.75,0.25,120,92.0
2921,F#2,190.0,0.25,85,92.0
2922,F#2,190.5,0.25,75,92.0
2923,B1,190.75,0.25,120,92.0
2924,A2,191.0,1.0,110,92.0
2925,C#2,191.0,0.25,102,92.0
2926,F#2,191.0,0.25,102,92.0
2927,B1,191.5,0.25,98,92.0
2928,F#2,191.5,0.25,98,92.0
2929,D2,192.0,0.5,110,92.0
2930,F#2,192.0,0.25,102,92.0
2931,B1,192.0,0.25,102,92.0
2932,F#2,192.5,0.25,75,92.0
2933,D2,192.75,0.25,110,92.0
2934,F2,193.0,0.25,110,92.0
2935,C#2,193.0,0.25,102,92.0
2936,F#2,193.0,0.25,102,92.0
2937,F2,193.25,0.25,110,92.0
2938,F#2,193.5,0.25,75,92.0
2939,D2,193.75,0.25,110,92.0
2940,B1,193.75,0.25,120,92.0
2941,C4,194.0,499/125,105,92.0
2942,E4,194.0,4.0,99,92.0
2943,F#2,194.0,0.25,85,92.0
2944,D3,194.0,4.0,105,92.0
2945,A3,194.0,4.0,105,92.0
2946,F#2,194.5,0.25,75,92.0
2947,B1,194.75,0.25,120,92.0
2948,A2,195.0,0.5,110,92.0
2949,B-2,195.0,0.25,102,92.0
2950,C#2,195.0,0.25,102,92.0
2951,C3,195.5,0.5,110,92.0
2952,B1,195.5,0.25,120,92.0
2953,D2,196.0,0.5,110,92.0
2954,E-4,196.0,4.0,120,92.0
2955,D5,196.0,4.0,120,92.0
2956,G4,196.0,4.0,120,92.0
2957,B-4,196.0,4.0,120,92.0
2958,G3,196.0,0.25,102,92.0
2959,B1,196.0,0.25,102,92.0
2960,F#2,196.5,0.25,75,92.0
2961,D2,196.75,0.25,110,92.0
2962,C#2,196.75,0.25,120,92.0
2963,D4,197.0,467/1000,105,92.0
2964,F2,197.0,0.25,110,92.0
2965,F#2,197.0,0.25,85,92.0
2966,F2,197.25,0.25,110,92.0
2967,C4,197.5,0.5,79,92.0
2968,F#2,197.5,0.25,75,92.0
2969,D2,197.75,0.25,110,92.0
2970,B1,197.75,0.25,120,92.0
2971,D4,198.0,271/500,91,92.0
2972,E4,198.0,117/1000,99,92.0
2973,C4,198.0,1.0,79,92.0
2974,F#2,198.0,0.25,85,92.0
2975,D3,198.0,2.0,105,92.0
2976,A3,198.0,2.0,105,92.0
2977,E4,198.5,333/1000,84,92.0
2978,F#2,198.5,0.25,75,92.0
2979,C4,198.75,483/1000,78,92.0
2980,B1,198.75,0.25,120,92.0
2981,A2,199.0,0.5,110,92.0
2982,C#2,199.0,0.25,102,92.0
2983,F#2,199.0,0.25,102,92.0
2984,D4,199.25,51/125,91,92.0
2985,C3,199.5,0.5,110,92.0
2986,B1,199.5,0.25,98,92.0
2987,F#2,199.5,0.25,98,92.0
2988,A3,199.75,1.25,71,92.0
2989,D2,200.0,0.5,110,92.0
2990,C#5,200.0,4.0,120,92.0
2991,D4,200.0,4.0,120,92.0
2992,F#4,200.0,4.0,120,92.0
2993,A4,200.0,4.0,120,92.0
2994,F#2,200.0,0.25,102,92.0
2995,B1,200.0,0.25,102,92.0
2996,F#2,200.5,0.25,75,92.0
2997,D2,200.75,0.25,110,92.0
2998,A3,201.0,0.5,79,92.0
2999,F2,201.0,0.25,110,92.0
3000,C#2,201.0,0.25,102,92.0
3001,F#2,201.0,0.25,102,92.0
3002,F2,201.25,0.25,110,92.0
3003,G3,201.5,229/500,80,92.0
3004,F#2,201.5,0.25,75,92.0
3005,A3,201.75,0.25,83,92.0
3006,D2,201.75,0.25,110,92.0
3007,B1,201.75,0.25,120,92.0
3008,A3,202.0,0.75,83,92.0
3009,F#2,202.0,0.25,85,92.0
3010,F#2,202.5,0.25,75,92.0
3011,B1,202.75,0.25,120,92.0
3012,A2,203.0,0.5,110,92.0
3013,C#2,203.0,0.25,102,92.0
3014,F#2,203.0,0.25,102,92.0
3015,F2,203.5,0.5,110,92.0
3016,B1,203.5,0.25,98,92.0
3017,F#2,203.5,0.25,98,92.0
3018,D2,204.0,0.5,110,92.0
3019,F#2,204.0,0.25,102,92.0
3020,B1,204.0,0.25,102,92.0
3021,F#2,204.5,0.25,75,92.0
3022,D2,204.75,0.25,110,92.0
3023,E4,204.892,11/40,118,92.0
3024,F2,205.0,0.25,110,92.0
3025,C#2,205.0,0.25,102,92.0
3026,F#2,205.0,0.25,102,92.0
3027,F4,205.117,283/1000,105,92.0
3028,F2,205.25,0.25,110,92.0
3029,G4,205.333,267/1000,97,92.0
3030,F#2,205.5,0.25,75,92.0
3031,D4,205.558,121/500,84,92.0
3032,E-4,205.717,167/1000,82,92.0
3033,D2,205.75,0.25,110,92.0
3034,B1,205.75,0.25,120,92.0
3035,E4,205.85,3/20,99,92.0
3036,C4,206.0,1279/500,80,92.0
3037,E4,206.0,717/1000,99,92.0
3038,F#2,206.0,0.25,85,92.0
3039,D3,206.0,4.0,80,92.0
3040,A3,206.0,4.0,80,92.0
3041,F#2,206.5,0.25,75,92.0
3042,F4,206.7,271/500,70,92.0
3043,B1,206.75,0.25,120,92.0
3044,A2,207.0,0.5,110,92.0
3045,F#2,207.0,0.25,85,92.0
3046,C#2,207.25,0.25,120,92.0
3047,C4,207.258,2017/1000,67,92.0
3048,C3,207.5,0.5,110,92.0
3049,B1,207.5,0.25,98,92.0
3050,F#2,207.5,0.25,98,92.0
3051,D2,208.0,0.5,110,92.0
3052,C#5,208.0,4.0,120,92.0
3053,D4,208.0,4.0,120,92.0
3054,F#4,208.0,4.0,120,92.0
3055,A4,208.0,4.0,120,92.0
3056,F#2,208.0,0.25,102,92.0
3057,B1,208.0,0.25,102,92.0
3058,F#2,208.5,0.25,75,92.0
3059,D2,208.75,0.25,110,92.0
3060,F2,209.0,0.25,110,92.0
3061,C#2,209.0,0.25,102,92.0
3062,F#2,209.0,0.25,102,92.0
3063,C4,209.042,479/500,112,92.0
3064,F2,209.25,0.25,110,92.0
3065,D4,209.283,11/40,108,92.0
3066,F#2,209.5,0.25,75,92.0
3067,E4,209.525,217/1000,118,92.0
3068,D2,209.75,0.25,110,92.0
3069,B1,209.75,0.25,120,92.0
3070,F#2,210.0,0.25,85,92.0
3071,F#2,210.5,0.25,75,92.0
3072,B1,210.75,0.25,120,92.0
3073,A2,211.0,0.5,110,92.0
3074,B-2,211.0,0.25,102,92.0
3075,E2,211.0,0.25,102,92.0
3076,C3,211.5,0.5,110,92.0
3077,B1,211.5,0.25,120,92.0
3078,E-2,212.0,0.5,110,92.0
3079,C#3,212.0,1.0,105,92.0
3080,F#2,212.0,0.25,98,92.0
3081,B1,212.0,0.25,98,92.0
3082,F#2,212.5,0.25,75,92.0
3083,E-2,212.75,0.25,110,92.0
3084,F2,213.0,0.25,110,92.0
3085,E-3,213.0,1.0,105,92.0
3086,F#2,213.0,0.25,102,92.0
3087,E2,213.0,0.25,102,92.0
3088,F2,213.25,0.25,110,92.0
3089,F#2,213.5,0.25,85,92.0
3090,E-2,213.75,0.25,110,92.0
3091,B1,213.75,0.25,120,92.0
3092,F4,214.0,13/40,118,92.0
3093,C4,214.0,4.0,112,92.0
3094,E-3,214.0,1.0,105,92.0
3095,D3,214.0,4.0,80,92.0
3096,A3,214.0,4.0,80,92.0
3097,F#2,214.0,0.25,102,92.0
3098,B1,214.0,0.25,102,92.0
3099,G4,214.5,333/1000,118,92.0
3100,F#2,214.5,0.25,85,92.0
3101,A4,214.75,26/125,118,92.0
3102,B-2,215.0,0.5,110,92.0
3103,E-3,215.0,1.0,105,92.0
3104,F#2,215.0,0.25,102,92.0
3105,E2,215.0,0.25,102,92.0
3106,C3,215.5,0.5,110,92.0
3107,F#2,215.5,0.25,102,92.0
3108,B1,215.5,0.25,102,92.0
3109,E-2,216.0,0.5,110,92.0
3110,E-3,216.0,1.0,105,92.0
3111,F#2,216.0,0.25,102,92.0
3112,B1,216.0,0.25,102,92.0
3113,F#2,216.5,0.25,85,92.0
3114,E-2,216.75,0.25,110,92.0
3115,F2,217.0,0.25,110,92.0
3116,E-3,217.0,1.0,105,92.0
3117,F#2,217.0,0.25,102,92.0
3118,E2,217.0,0.25,102,92.0
3119,E4,217.25,11/40,112,92.0
3120,F2,217.25,0.25,110,92.0
3121,D4,217.5,317/1000,88,92.0
3122,F#2,217.5,0.25,85,92.0
3123,E4,217.75,0.25,92,92.0
3124,E-2,217.75,0.25,110,92.0
3125,B1,217.75,0.25,120,92.0
3126,F4,218.0,0.5,99,92.0
3127,E4,218.0,1/125,92,92.0
3128,E-3,218.0,1.0,105,92.0
3129,B1,218.0,0.25,102,92.0
3130,F#2,218.0,0.25,102,92.0
3131,G4,218.5,0.25,81,92.0
3132,F#2,218.5,0.25,85,92.0
3133,F4,218.75,0.5,70,92.0
3134,B1,218.75,0.25,120,92.0
3135,B-2,219.0,0.5,110,92.0
3136,E-3,219.0,1.0,105,92.0
3137,E2,219.0,0.25,102,92.0
3138,F#2,219.0,0.25,102,92.0
3139,E4,219.25,0.5,97,92.0
3140,F4,219.5,0.5,84,92.0
3141,C3,219.5,0.5,110,92.0
3142,F#2,219.5,0.25,85,92.0
3143,D4,219.75,0.25,84,92.0
3144,B1,219.75,0.25,120,92.0
3145,D2,220.0,0.5,110,92.0
3146,E-3,220.0,1.0,105,92.0
3147,F#2,220.0,0.25,102,92.0
3148,B1,220.0,0.25,102,92.0
3149,C4,220.25,0.25,84,92.0
3150,E4,220.5,0.5,92,92.0
3151,F#2,220.5,0.25,85,92.0
3152,A3,220.75,0.5,88,92.0
3153,D2,220.75,0.25,110,92.0
3154,B1,220.75,0.25,120,92.0
3155,E2,221.0,0.25,110,92.0
3156,E-3,221.0,1.0,105,92.0
3157,F#2,221.0,0.25,102,92.0
3158,E2,221.0,0.25,102,92.0
3159,C4,221.25,0.5,102,92.0
3160,E2,221.25,0.25,110,92.0
3161,F#2,221.5,0.25,85,92.0
3162,D4,221.75,0.25,79,92.0
3163,D2,221.75,0.25,110,92.0
3164,E4,222.0,333/1000,112,92.0
3165,E-3,222.0,1.0,105,92.0
3166,F#2,222.0,0.25,102,92.0
3167,B1,222.0,0.25,102,92.0
3168,G4,222.417,0.375,108,92.0
3169,F#2,222.5,0.25,85,92.0
3170,B1,222.75,0.25,120,92.0
3171,E4,222.8,171/500,92,92.0
3172,A2,223.0,0.5,110,92.0
3173,E-3,223.0,1.0,105,92.0
3174,F#2,223.0,0.25,102,92.0
3175,E2,223.0,0.25,102,92.0
3176,G4,223.142,19/40,86,92.0
3177,F4,223.5,151/125,97,92.0
3178,B2,223.5,0.5,110,92.0
3179,F#2,223.5,0.25,102,92.0
3180,B1,223.5,0.25,102,92.0
3181,D2,224.0,0.5,110,92.0
3182,E-3,224.0,1.0,105,92.0
3183,F#2,224.0,0.25,102,92.0
3184,B1,224.0,0.25,102,92.0
3185,F#2,224.5,0.25,85,92.0
3186,D2,224.75,0.25,110,92.0
3187,E4,224.808,129/500,84,92.0
3188,E2,225.0,0.25,110,92.0
3189,E-3,225.0,1.0,105,92.0
3190,F#2,225.0,0.25,102,92.0
3191,E2,225.0,0.25,102,92.0
3192,D4,225.008,333/1000,78,92.0
3193,E2,225.25,0.25,110,92.0
3194,E4,225.333,333/1000,90,92.0
3195,F#2,225.5,0.25,85,92.0
3196,D4,225.667,333/1000,92,92.0
3197,E2,225.75,0.25,110,92.0
3198,B1,225.75,0.25,120,92.0
3199,E-4,226.0,9/20,106,92.0
3200,F#2,226.0,0.25,110,92.0
3201,F#2,226.0,0.25,85,92.0
3202,E-3,226.0,1.0,105,92.0
3203,F#2,226.25,0.25,110,92.0
3204,D4,226.5,171/500,92,92.0
3205,F#2,226.5,0.25,85,92.0
3206,B-3,226.75,2283/1000,91,92.0
3207,F#2,226.75,0.25,110,92.0
3208,B1,226.75,0.25,120,92.0
3209,A2,227.0,0.5,110,92.0
3210,E-3,227.0,1.0,105,92.0
3211,E2,227.0,0.25,102,92.0
3212,F#2,227.0,0.25,102,92.0
3213,D2,227.5,0.5,110,92.0
3214,B1,227.5,0.25,102,92.0
3215,F#2,227.5,0.25,102,92.0
3216,E-2,228.0,0.5,110,92.0
3217,E-3,228.0,1.0,105,92.0
3218,F#2,228.0,0.25,102,92.0
3219,B1,228.0,0.25,102,92.0
3220,F#2,228.5,0.25,85,92.0
3221,E-2,228.75,0.25,110,92.0
3222,B1,228.75,0.25,120,92.0
3223,D4,229.0,367/1000,94,92.0
3224,F2,229.0,0.25,110,92.0
3225,E-3,229.0,1.0,105,92.0
3226,F#2,229.0,0.25,102,92.0
3227,E2,229.0,0.25,102,92.0
3228,E-4,229.25,217/1000,106,92.0
3229,F2,229.25,0.25,110,92.0
3230,G4,229.5,171/500,115,92.0
3231,F#2,229.5,0.25,85,92.0
3232,B-4,229.75,0.25,115,92.0
3233,E-2,229.75,0.25,110,92.0
3234,B1,229.75,0.25,120,92.0
3235,F4,230.0,127/250,91,92.0
3236,B-4,230.0,23/250,115,92.0
3237,E-3,230.0,1.0,105,92.0
3238,F#2,230.0,0.25,102,92.0
3239,B1,230.0,0.25,102,92.0
3240,G4,230.5,1.0,106,92.0
3241,F#2,230.5,0.25,85,92.0
3242,B1,230.75,0.25,120,92.0
3243,F4,231.0,517/1000,90,92.0
3244,B-2,231.0,0.5,110,92.0
3245,E-3,231.0,1.0,105,92.0
3246,F#2,231.0,0.25,102,92.0
3247,E2,231.0,0.25,102,92.0
3248,B-3,231.25,0.25,91,92.0
3249,E-4,231.5,0.5,101,92.0
3250,C3,231.5,0.5,110,92.0
3251,F#2,231.5,0.25,102,92.0
3252,B1,231.5,0.25,102,92.0
3253,B-3,231.75,123/250,115,92.0
3254,E-2,232.0,0.5,110,92.0
3255,E-3,232.0,1.0,105,92.0
3256,F#2,232.0,0.25,102,92.0
3257,B1,232.0,0.25,102,92.0
3258,G3,232.25,127/250,94,92.0
3259,F#2,232.5,0.25,85,92.0
3260,E-2,232.75,0.25,110,92.0
3261,C4,233.0,383/1000,88,92.0
3262,F2,233.0,0.25,110,92.0
3263,E-3,233.0,1.0,105,92.0
3264,F#2,233.0,0.25,102,92.0
3265,E2,233.0,0.25,102,92.0
3266,D4,233.25,383/1000,88,92.0
3267,F2,233.25,0.25,110,92.0
3268,E-4,233.5,467/1000,118,92.0
3269,F#2,233.5,0.25,85,92.0
3270,D4,233.75,0.25,115,92.0
3271,E-2,233.75,0.25,110,92.0
3272,B1,233.75,0.25,120,92.0
3273,C#4,234.0,2/5,115,92.0
3274,F#2,234.0,0.25,85,92.0
3275,E-3,234.0,1.0,105,92.0
3276,F#4,234.25,0.5,90,92.0
3277,F#3,234.5,0.25,90,92.0
3278,F#2,234.5,0.25,85,92.0
3279,A3,234.75,0.25,90,92.0
3280,B1,234.75,0.25,120,92.0
3281,E4,235.0,0.25,90,92.0
3282,B-2,235.0,0.5,110,92.0
3283,E-3,235.0,1.0,105,92.0
3284,E2,235.0,0.25,102,92.0
3285,F#2,235.0,0.25,102,92.0
3286,F#3,235.25,0.25,90,92.0
3287,A3,235.5,0.25,90,92.0
3288,C3,235.5,0.5,110,92.0
3289,B1,235.5,0.25,102,92.0
3290,F#2,235.5,0.25,102,92.0
3291,D4,235.75,229/500,90,92.0
3292,D2,236.0,0.5,110,92.0
3293,E-3,236.0,1.0,105,92.0
3294,F#2,236.0,0.25,102,92.0
3295,B1,236.0,0.25,102,92.0
3296,F#4,236.25,0.25,90,92.0
3297,D4,236.5,0.25,90,92.0
3298,F#2,236.5,0.25,85,92.0
3299,B3,236.75,0.25,90,92.0
3300,D2,236.75,0.25,110,92.0
3301,B1,236.75,0.25,120,92.0
3302,E2,237.0,0.25,110,92.0
3303,E-3,237.0,1.0,105,92.0
3304,F#2,237.0,0.25,102,92.0
3305,E2,237.0,0.25,102,92.0
3306,F#3,237.042,217/1000,106,92.0
3307,E2,237.25,0.25,110,92.0
3308,D3,237.292,0.25,112,92.0
3309,F#2,237.5,0.25,85,92.0
3310,E3,237.517,317/1000,97,92.0
3311,D2,237.75,0.25,110,92.0
3312,B1,237.75,0.25,120,92.0
3313,F#3,237.783,26/125,111,92.0
3314,E-3,238.0,1.0,105,92.0
3315,F#2,238.0,0.25,102,92.0
3316,B1,238.0,0.25,102,92.0
3317,A3,238.042,3/10,118,92.0
3318,B3,238.483,283/1000,118,92.0
3319,F#2,238.5,0.25,85,92.0
3320,B1,238.75,0.25,120,92.0
3321,F#3,238.8,1617/1000,115,92.0
3322,A2,239.0,0.5,110,92.0
3323,E-3,239.0,1.0,105,92.0
3324,F#2,239.0,0.25,102,92.0
3325,E2,239.0,0.25,102,92.0
3326,B2,239.5,0.5,110,92.0
3327,F#2,239.5,0.25,102,92.0
3328,B1,239.5,0.25,102,92.0
3329,D2,240.0,0.5,110,92.0
3330,E-3,240.0,1.0,105,92.0
3331,F#2,240.0,0.25,102,92.0
3332,B1,240.0,0.25,102,92.0
3333,F#2,240.5,0.25,85,92.0
3334,G3,240.75,11/40,112,92.0
3335,D2,240.75,0.25,110,92.0
3336,E2,240.75,0.25,120,92.0
3337,E2,241.0,0.25,110,92.0
3338,F#2,241.0,0.25,85,92.0
3339,E-3,241.0,1.0,105,92.0
3340,D4,241.033,11/40,112,92.0
3341,E2,241.25,0.25,110,92.0
3342,B1,241.25,0.25,120,92.0
3343,E-4,241.283,267/1000,106,92.0
3344,D4,241.492,11/40,88,92.0
3345,F#2,241.5,0.25,85,92.0
3346,C4,241.75,0.25,70,92.0
3347,E2,241.75,0.25,110,92.0
3348,B1,241.75,0.25,120,92.0
3349,B-3,242.0,0.25,90,92.0
3350,F#2,242.0,0.25,110,92.0
3351,F#2,242.0,0.25,85,92.0
3352,E-3,242.0,1.0,105,92.0
3353,C4,242.25,0.25,93,92.0
3354,F#2,242.25,0.25,110,92.0
3355,D4,242.5,0.25,95,92.0
3356,F#2,242.5,0.25,85,92.0
3357,E-4,242.75,0.25,92,92.0
3358,F#2,242.75,0.25,110,92.0
3359,B1,242.75,0.25,120,92.0
3360,E-3,242.75,2.25,71,92.0
3361,G3,242.75,2.25,71,92.0
3362,F4,243.0,0.25,97,92.0
3363,A2,243.0,0.5,110,92.0
3364,E-3,243.0,1.0,105,92.0
3365,E2,243.0,0.25,102,92.0
3366,F#2,243.0,0.25,102,92.0
3367,D4,243.25,0.25,97,92.0
3368,G4,243.5,0.25,93,92.0
3369,D2,243.5,0.5,110,92.0
3370,E2,243.5,0.25,102,92.0
3371,F#2,243.5,0.25,102,92.0
3372,B-4,243.75,0.25,91,92.0
3373,B-2,243.75,0.25,102,92.0
3374,B1,243.75,0.25,102,92.0
3375,C5,244.0,0.25,91,92.0
3376,D2,244.0,0.5,110,92.0
3377,F#2,244.0,0.25,85,92.0
3378,E-4,244.0,4.0,120,92.0
3379,G4,244.0,4.0,120,92.0
3380,B-4,244.0,4.0,120,92.0
3381,D5,244.0,4.0,120,92.0
3382,G4,244.25,3/10,102,92.0
3383,E-5,244.5,0.5,111,92.0
3384,F#2,244.5,0.25,85,92.0
3385,D5,244.75,0.5,101,92.0
3386,A2,244.75,0.25,110,92.0
3387,D3,245.0,0.25,110,92.0
3388,E-3,245.0,1.0,105,92.0
3389,F#2,245.0,0.25,102,92.0
3390,E2,245.0,0.25,102,92.0
3391,C5,245.25,233/1000,103,92.0
3392,C3,245.25,0.25,110,92.0
3393,G4,245.5,9/40,111,92.0
3394,F#2,245.5,0.25,85,92.0
3395,B-4,245.75,0.25,118,92.0
3396,A2,245.75,0.25,110,92.0
3397,B1,245.75,0.25,120,92.0
3398,B-4,246.0,7/40,118,92.0
3399,F#2,246.0,0.25,85,92.0
3400,E-3,246.0,1.0,105,92.0
3401,G4,246.25,0.25,91,92.0
3402,F2,246.25,0.25,110,92.0
3403,E-4,246.5,2.0,115,92.0
3404,D2,246.5,0.25,110,92.0
3405,F#2,246.5,0.25,85,92.0
3406,B1,246.75,0.25,120,92.0
3407,A1,247.0,0.25,110,92.0
3408,E-3,247.0,1.0,105,92.0
3409,F3,247.0,3.0,71,92.0
3410,B-3,247.0,3.0,71,92.0
3411,D4,247.0,3.0,71,92.0
3412,E2,247.0,0.25,102,92.0
3413,F#2,247.0,0.25,102,92.0
3414,C2,247.5,0.25,110,92.0
3415,B1,247.5,0.25,102,92.0
3416,F#2,247.5,0.25,102,92.0
3417,D2,248.0,0.5,110,92.0
3418,E-3,248.0,1.0,105,92.0
3419,F#2,248.0,0.25,102,92.0
3420,B1,248.0,0.25,102,92.0
3421,E-5,248.5,171/500,115,92.0
3422,F#2,248.5,0.25,85,92.0
3423,D5,248.75,179/500,102,92.0
3424,A2,248.75,0.25,110,92.0
3425,D3,249.0,0.25,110,92.0
3426,E-3,249.0,1.0,105,92.0
3427,F#2,249.0,0.25,102,92.0
3428,E2,249.0,0.25,102,92.0
3429,C5,249.25,24/125,118,92.0
3430,C3,249.25,0.25,110,92.0
3431,B-4,249.5,0.125,111,92.0
3432,F#2,249.5,0.25,85,92.0
3433,C5,249.667,0.125,92,92.0
3434,C#5,249.75,0.25,118,92.0
3435,A2,249.75,0.25,110,92.0
3436,B1,249.75,0.25,120,92.0
3437,C#5,250.0,71/500,118,92.0
3438,F#2,250.0,0.25,85,92.0
3439,E-3,250.0,1.0,105,92.0
3440,E4,250.0,4.0,71,92.0
3441,C#4,250.0,4.0,71,92.0
3442,F#4,250.0,4.0,71,92.0
3443,D5,250.25,2/5,115,92.0
3444,F2,250.25,0.25,110,92.0
3445,A4,250.5,2.625,118,92.0
3446,D2,250.5,0.25,110,92.0
3447,F#2,250.5,0.25,85,92.0
3448,B1,250.75,0.25,120,92.0
3449,A1,251.0,0.25,110,92.0
3450,E-3,251.0,1.0,105,92.0
3451,E2,251.0,0.25,102,92.0
3452,F#2,251.0,0.25,102,92.0
3453,C2,251.5,0.25,110,92.0
3454,B1,251.5,0.25,102,92.0
3455,F#2,251.5,0.25,102,92.0
3456,D2,252.0,0.5,110,92.0
3457,E-3,252.0,1.0,105,92.0
3458,E-4,252.0,4.0,120,92.0
3459,G4,252.0,4.0,120,92.0
3460,B-4,252.0,4.0,120,92.0
3461,D5,252.0,4.0,120,92.0
3462,F#2,252.0,0.25,102,92.0
3463,B1,252.0,0.25,102,92.0
3464,F#2,252.5,0.25,85,92.0
3465,A2,252.75,0.25,110,92.0
3466,D3,253.0,0.25,110,92.0
3467,E-3,253.0,1.0,105,92.0
3468,F#2,253.0,0.25,102,92.0
3469,E2,253.0,0.25,102,92.0
3470,D5,253.25,0.25,118,92.0
3471,C3,253.25,0.25,110,92.0
3472,C#5,253.5,0.25,118,92.0
3473,F#2,253.5,0.25,85,92.0
3474,C5,253.75,0.25,118,92.0
3475,A2,253.75,0.25,110,92.0
3476,B1,253.75,0.25,120,92.0
3477,B4,254.0,0.25,118,92.0
3478,F#2,254.0,0.25,85,92.0
3479,E-3,254.0,1.0,105,92.0
3480,B-4,254.25,0.25,118,92.0
3481,F2,254.25,0.25,110,92.0
3482,A4,254.5,11/40,111,92.0
3483,D2,254.5,0.25,110,92.0
3484,F#2,254.5,0.25,85,92.0
3485,G#4,254.75,11/40,111,92.0
3486,B1,254.75,0.25,120,92.0
3487,G4,255.0,221/500,115,92.0
3488,A1,255.0,0.25,110,92.0
3489,E-3,255.0,1.0,105,92.0
3490,E2,255.0,0.25,102,92.0
3491,F#2,255.0,0.25,102,92.0
3492,D4,255.25,283/1000,105,92.0
3493,E2,255.25,0.25,120,92.0
3494,A4,255.5,11/40,111,92.0
3495,C2,255.5,0.25,110,92.0
3496,F#2,255.5,0.25,85,92.0
3497,F#4,255.75,0.25,100,92.0
3498,B1,255.75,0.25,120,92.0
3499,D4,256.0,123/250,100,92.0
3500,D2,256.0,0.5,110,92.0
3501,E-3,256.0,1.0,105,92.0
3502,D4,256.0,4.0,120,92.0
3503,C#5,256.0,4.0,120,92.0
3504,F#4,256.0,4.0,120,92.0
3505,A4,256.0,4.0,120,92.0
3506,F#2,256.0,0.25,102,92.0
3507,B1,256.0,0.25,102,92.0
3508,F#4,256.275,0.25,106,92.0
3509,A4,256.5,271/500,118,92.0
3510,F#2,256.5,0.25,85,92.0
3511,A3,256.75,0.25,115,92.0
3512,A2,256.75,0.25,110,92.0
3513,C4,257.0,0.25,115,92.0
3514,D3,257.0,0.25,110,92.0
3515,E-3,257.0,1.0,105,92.0
3516,F#2,257.0,0.25,102,92.0
3517,E2,257.0,0.25,102,92.0
3518,D4,257.25,0.375,115,92.0
3519,C3,257.25,0.25,110,92.0
3520,E4,257.5,0.125,91,92.0
3521,F#2,257.5,0.25,85,92.0
3522,F4,257.75,0.25,118,92.0
3523,A2,257.75,0.25,110,92.0
3524,B1,257.75,0.25,120,92.0
3525,F4,258.0,121/500,118,92.0
3526,F#2,258.0,0.25,85,92.0
3527,E-3,258.0,1.0,105,92.0
3528,C3,258.25,0.25,110,92.0
3529,E4,258.308,279/500,115,92.0
3530,A2,258.5,0.25,110,92.0
3531,F#2,258.5,0.25,85,92.0
3532,B1,258.75,0.25,120,92.0
3533,D4,258.817,0.5,118,92.0
3534,C3,259.0,0.25,110,92.0
3535,E-3,259.0,1.0,105,92.0
3536,E2,259.0,0.25,102,92.0
3537,F#2,259.0,0.25,102,92.0
3538,A3,259.358,233/1000,118,92.0
3539,G2,259.5,0.25,110,92.0
3540,B1,259.5,0.25,102,92.0
3541,F#2,259.5,0.25,102,92.0
3542,B-2,259.75,0.25,85,92.0
3543,D2,260.0,0.5,110,92.0
3544,E-3,260.0,1.0,105,92.0
3545,F#2,260.0,0.25,102,92.0
3546,B1,260.0,0.25,102,92.0
3547,F#2,260.5,0.25,85,92.0
3548,C4,260.5,0.25,91,92.0
3549,A3,260.5,0.25,91,92.0
3550,E4,260.5,0.25,91,92.0
3551,A2,260.75,0.25,110,92.0
3552,D3,261.0,0.25,110,92.0
3553,E-3,261.0,1.0,105,92.0
3554,F#2,261.0,0.25,102,92.0
3555,E2,261.0,0.25,102,92.0
3556,C3,261.25,0.25,110,92.0
3557,F#2,261.5,0.25,85,92.0
3558,A2,261.75,0.25,110,92.0
3559,B1,261.75,0.25,120,92.0
3560,A3,261.75,0.25,91,92.0
3561,C4,261.75,0.25,91,92.0
3562,E4,261.75,0.25,91,92.0
3563,F#2,262.0,0.25,85,92.0
3564,E-3,262.0,1.0,105,92.0
3565,F4,262.25,3/10,84,92.0
3566,F2,262.25,0.25,110,92.0
3567,G4,262.5,167/1000,118,92.0
3568,D2,262.5,0.25,110,92.0
3569,F#2,262.5,0.25,85,92.0
3570,D4,262.692,1/5,115,92.0
3571,B1,262.75,0.25,120,92.0
3572,E-4,262.817,23/250,98,92.0
3573,E4,262.917,367/1000,92,92.0
3574,A1,263.0,0.25,110,92.0
3575,E-3,263.0,1.0,105,92.0
3576,E2,263.0,0.25,102,92.0
3577,F#2,263.0,0.25,102,92.0
3578,C4,263.283,23/250,118,92.0
3579,C2,263.5,0.25,110,92.0
3580,B1,263.5,0.25,102,92.0
3581,F#2,263.5,0.25,102,92.0
3582,A3,263.525,233/1000,78,92.0
3583,C4,263.742,21/40,118,92.0
3584,D2,264.0,0.5,110,92.0
3585,E-3,264.0,1.0,105,92.0
3586,D4,264.0,4.0,120,92.0
3587,C#5,264.0,4.0,120,92.0
3588,F#4,264.0,4.0,120,92.0
3589,A4,264.0,4.0,120,92.0
3590,F#2,264.0,0.25,102,92.0
3591,B1,264.0,0.25,102,92.0
3592,D4,264.233,117/1000,118,92.0
3593,F#2,264.5,0.25,85,92.0
3594,A2,264.75,0.25,110,92.0
3595,C4,264.75,0.25,71,92.0
3596,G3,264.75,0.25,71,92.0
3597,A3,264.75,0.25,71,92.0
3598,D3,265.0,0.25,110,92.0
3599,E-3,265.0,1.0,105,92.0
3600,F#2,265.0,0.25,102,92.0
3601,E2,265.0,0.25,102,92.0
3602,C3,265.25,0.25,110,92.0
3603,F#2,265.5,0.25,85,92.0
3604,A2,265.75,0.25,110,92.0
3605,B1,265.75,0.25,120,92.0
3606,G3,265.75,0.25,71,92.0
3607,A3,265.75,0.25,71,92.0
3608,C4,265.75,0.25,71,92.0
3609,F#2,266.0,0.25,85,92.0
3610,E-3,266.0,1.0,105,92.0
3611,F2,266.25,0.25,110,92.0
3612,E4,266.3,3/20,112,92.0
3613,D2,266.5,0.25,110,92.0
3614,F#2,266.5,0.25,85,92.0
3615,F4,266.525,24/125,105,92.0
3616,B1,266.75,0.25,120,92.0
3617,G4,266.783,117/1000,118,92.0
3618,A4,267.0,129/500,118,92.0
3619,A1,267.0,0.25,110,92.0
3620,E-3,267.0,1.0,105,92.0
3621,E2,267.0,0.25,102,92.0
3622,F#2,267.0,0.25,102,92.0
3623,E-4,267.117,1/20,87,92.0
3624,E4,267.225,77/250,118,92.0
3625,C2,267.5,0.25,110,92.0
3626,B1,267.5,0.25,102,92.0
3627,F#2,267.5,0.25,102,92.0
3628,C4,267.533,79/500,112,92.0
3629,A3,267.75,27/250,81,92.0
3630,E2,267.75,0.25,120,92.0
3631,D4,268.0,467/1000,118,92.0
3632,D2,268.0,0.5,110,92.0
3633,E-3,268.0,1.0,105,92.0
3634,E-4,268.0,4.0,120,92.0
3635,D5,268.0,4.0,120,92.0
3636,G4,268.0,4.0,120,92.0
3637,B-4,268.0,4.0,120,92.0
3638,F#2,268.0,0.25,102,92.0
3639,B1,268.0,0.25,102,92.0
3640,C4,268.5,3/20,118,92.0
3641,F#2,268.5,0.25,85,92.0
3642,E4,268.75,0.25,115,92.0
3643,C3,268.75,0.25,110,92.0
3644,E2,268.75,0.25,120,92.0
3645,A2,269.0,0.25,110,92.0
3646,F#2,269.0,0.25,85,92.0
3647,E-3,269.0,1.0,105,92.0
3648,B2,269.25,0.25,110,92.0
3649,G3,269.275,7/40,118,92.0
3650,G#3,269.4,167/1000,118,92.0
3651,F#2,269.5,0.25,85,92.0
3652,G3,269.683,3/40,60,92.0
3653,C3,269.75,0.25,110,92.0
3654,B1,269.75,0.25,120,92.0
3655,F3,269.758,117/1000,115,92.0
3656,F#2,270.0,0.25,85,92.0
3657,E-3,270.0,1.0,105,92.0
3658,G3,270.042,229/500,118,92.0
3659,A2,270.25,0.25,110,92.0
3660,F2,270.5,0.25,110,92.0
3661,F#2,270.5,0.25,85,92.0
3662,F3,270.508,7/40,118,92.0
3663,A3,270.75,24/125,112,92.0
3664,B1,270.75,0.25,120,92.0
3665,A1,271.0,0.25,110,92.0
3666,E-3,271.0,1.0,105,92.0
3667,E2,271.0,0.25,102,92.0
3668,F#2,271.0,0.25,102,92.0
3669,C2,271.5,0.25,110,92.0
3670,A3,271.5,0.25,91,92.0
3671,C4,271.5,0.25,91,92.0
3672,E4,271.5,0.25,91,92.0
3673,B1,271.5,0.25,102,92.0
3674,F#2,271.5,0.25,102,92.0
3675,D2,272.0,0.5,110,92.0
3676,E-3,272.0,1.0,105,92.0
3677,F#2,272.0,0.25,102,92.0
3678,B1,272.0,0.25,102,92.0
3679,D3,272.208,183/1000,115,92.0
3680,F3,272.458,183/1000,108,92.0
3681,F#2,272.5,0.25,85,92.0
3682,G3,272.733,7/40,118,92.0
3683,A2,272.75,0.25,110,92.0
3684,A3,273.0,7/40,118,92.0
3685,D3,273.0,0.25,110,92.0
3686,E-3,273.0,1.0,105,92.0
3687,F#2,273.0,0.25,102,92.0
3688,E2,273.0,0.25,102,92.0
3689,C3,273.25,0.25,110,92.0
3690,B3,273.267,167/1000,118,92.0
3691,C4,273.5,3/20,118,92.0
3692,F#2,273.5,0.25,85,92.0
3693,E3,273.75,0.25,110,92.0
3694,E2,273.75,0.25,120,92.0
3695,D4,273.758,79/500,118,92.0
3696,E4,273.992,1/125,118,92.0
3697,E4,274.0,233/1000,118,92.0
3698,F#2,274.0,0.25,85,92.0
3699,E-3,274.0,1.0,105,92.0
3700,C4,274.25,121/500,118,92.0
3701,D3,274.25,0.25,110,92.0
3702,E2,274.25,0.25,120,92.0
3703,D4,274.5,79/500,118,92.0
3704,C3,274.5,0.25,110,92.0
3705,F#2,274.5,0.25,85,92.0
3706,E4,274.75,79/500,118,92.0
3707,B1,274.75,0.25,120,92.0
3708,F4,275.0,79/500,118,92.0
3709,D3,275.0,124/125,110,92.0
3710,E-3,275.0,1.0,105,92.0
3711,B-2,275.0,0.25,102,92.0
3712,B1,275.0,0.25,102,92.0
3713,G4,275.25,79/500,118,92.0
3714,F3,275.25,0.25,91,92.0
3715,A3,275.25,0.25,91,92.0
3716,C4,275.25,0.25,91,92.0
3717,E4,275.25,0.25,91,92.0
3718,F#2,275.25,0.25,102,92.0
3719,E2,275.25,0.25,102,92.0
3720,A4,275.5,79/500,118,92.0
3721,E2,275.5,0.25,120,92.0
3722,B4,275.75,79/500,118,92.0
3723,B1,275.75,0.25,120,92.0
3724,C5,276.0,79/500,118,92.0
3725,E-2,276.0,0.5,110,92.0
3726,C#3,276.0,1.0,105,92.0
3727,E-4,276.0,4.0,120,92.0
3728,D5,276.0,4.0,120,92.0
3729,G4,276.0,4.0,120,92.0
3730,B-4,276.0,4.0,120,92.0
3731,F#2,276.0,0.25,102,92.0
3732,B1,276.0,0.25,102,92.0
3733,D5,276.25,7/40,118,92.0
3734,A4,276.5,167/1000,118,92.0
3735,F#2,276.5,0.25,85,92.0
3736,E-3,276.75,1.0,110,92.0
3737,G3,276.75,0.25,112,92.0
3738,B1,276.75,0.25,112,92.0
3739,D5,277.0,7/40,118,92.0
3740,F#2,277.0,0.25,85,92.0
3741,A4,277.25,217/1000,118,92.0
3742,B-2,277.25,0.25,105,92.0
3743,D4,277.5,217/1000,118,92.0
3744,F#2,277.5,0.25,85,92.0
3745,B1,277.75,0.25,120,92.0
3746,E-2,278.0,0.25,110,92.0
3747,F#2,278.0,0.25,85,92.0
3748,E-3,278.0,1.0,105,92.0
3749,C5,278.042,0.5,118,92.0
3750,G4,278.25,79/500,118,92.0
3751,E-2,278.25,0.25,110,92.0
3752,B1,278.25,0.25,120,92.0
3753,C4,278.5,0.25,118,92.0
3754,F#2,278.5,0.25,85,92.0
3755,E-2,278.75,1.0,110,92.0
3756,B1,278.75,0.25,120,92.0
3757,B4,279.0,3/10,118,92.0
3758,E-3,279.0,1.0,105,92.0
3759,E2,279.0,0.25,102,92.0
3760,F#2,279.0,0.25,102,92.0
3761,F4,279.25,79/500,118,92.0
3762,B3,279.5,0.25,118,92.0
3763,B1,279.5,0.25,102,92.0
3764,F#2,279.5,0.25,102,92.0
3765,B1,279.75,0.25,120,92.0
3766,A4,280.0,3/10,118,92.0
3767,E-3,280.0,0.25,110,92.0
3768,F#2,280.0,0.25,85,92.0
3769,E-3,280.0,1.0,105,92.0
3770,C#5,280.0,4.0,120,92.0
3771,D4,280.0,4.0,120,92.0
3772,F#4,280.0,4.0,120,92.0
3773,A4,280.0,4.0,120,92.0
3774,E4,280.25,79/500,118,92.0
3775,C3,280.25,0.25,110,92.0
3776,E2,280.5,0.25,102,92.0
3777,F#2,280.5,0.25,102,92.0
3778,E-2,280.75,1.5,110,92.0
3779,E-3,281.0,1.0,105,92.0
3780,A3,281.0,1.0,91,92.0
3781,C4,281.0,1.0,91,92.0
3782,E4,281.0,1.0,91,92.0
3783,G4,281.0,1.0,91,92.0
3784,B1,281.0,0.25,102,92.0
3785,F#2,281.0,0.25,102,92.0
3786,C#5,281.25,24/125,118,92.0
3787,D5,281.458,7/40,118,92.0
3788,F#2,281.5,0.25,85,92.0
3789,E5,281.733,79/500,118,92.0
3790,B1,281.75,0.25,120,92.0
3791,E-3,282.0,2.0,110,92.0
3792,E-3,282.0,1.0,105,92.0
3793,F4,282.0,4.0,91,92.0
3794,A3,282.0,4.0,91,92.0
3795,D4,282.0,4.0,91,92.0
3796,E2,282.0,0.25,102,92.0
3797,F#2,282.0,0.25,102,92.0
3798,F5,282.042,9/20,118,92.0
3799,B-2,282.25,0.25,85,92.0
3800,F#2,282.5,0.25,85,92.0
3801,E5,282.517,117/1000,112,92.0
3802,B1,282.75,0.25,120,92.0
3803,F5,282.792,467/1000,118,92.0
3804,F3,283.0,3.0,91,92.0
3805,E-3,283.0,1.0,105,92.0
3806,E2,283.0,0.25,102,92.0
3807,F#2,283.0,0.25,102,92.0
3808,E5,283.217,7/40,118,92.0
3809,A3,283.25,2.75,91,92.0
3810,E2,283.25,0.25,102,92.0
3811,B-2,283.25,0.25,102,92.0
3812,B1,283.5,0.25,102,92.0
3813,F#2,283.5,0.25,102,92.0
3814,F5,283.708,0.25,91,92.0
3815,G5,283.792,23/40,111,92.0
3816,C4,284.0,2.0,91,92.0
3817,D2,284.0,0.25,110,92.0
3818,C#3,284.0,1.0,105,92.0
3819,F#2,284.0,0.25,102,92.0
3820,B1,284.0,0.25,102,92.0
3821,F5,284.25,26/125,108,92.0
3822,E5,284.5,267/1000,102,92.0
3823,F#2,284.5,0.25,85,92.0
3824,F5,284.75,317/1000,118,92.0
3825,D3,284.75,1.25,110,92.0
3826,E2,284.75,0.25,120,92.0
3827,G5,285.0,26/125,74,92.0
3828,E4,285.0,1.0,91,92.0
3829,F#2,285.0,0.25,85,92.0
3830,E-3,285.0,1.0,105,92.0
3831,D5,285.233,121/500,81,92.0
3832,F#2,285.5,0.25,85,92.0
3833,E5,285.508,73/250,115,92.0
3834,C5,285.75,9/40,112,92.0
3835,B1,285.75,0.25,120,92.0
3836,C4,286.0,2.0,91,92.0
3837,F3,286.0,1.0,91,92.0
3838,A3,286.0,1.25,91,92.0
3839,E4,286.0,2517/1000,91,92.0
3840,D3,286.0,0.25,110,92.0
3841,E-3,286.0,1.0,105,92.0
3842,B1,286.0,0.25,102,92.0
3843,F#2,286.0,0.25,102,92.0
3844,D5,286.058,221/500,118,92.0
3845,C#3,286.25,0.25,110,92.0
3846,E5,286.5,267/1000,118,92.0
3847,F#2,286.5,0.25,85,92.0
3848,A2,286.75,0.25,110,92.0
3849,B1,286.75,0.25,120,92.0
3850,C5,286.792,9/20,118,92.0
3851,E-3,287.0,1.0,105,92.0
3852,E2,287.0,0.25,102,92.0
3853,F#2,287.0,0.25,102,92.0
3854,F4,287.25,0.25,118,92.0
3855,D2,287.25,0.25,110,92.0
3856,G4,287.5,19/40,118,92.0
3857,F#2,287.5,0.25,110,92.0
3858,B1,287.5,0.25,102,92.0
3859,F#2,287.5,0.25,102,92.0
3860,A4,287.725,123/250,118,92.0
3861,D2,288.0,0.5,110,92.0
3862,E-3,288.0,1.0,105,92.0
3863,C#5,288.0,4.0,120,92.0
3864,D4,288.0,4.0,120,92.0
3865,F#4,288.0,4.0,120,92.0
3866,A4,288.0,4.0,120,92.0
3867,F#2,288.0,0.25,102,92.0
3868,B1,288.0,0.25,102,92.0
3869,E4,288.258,371/500,115,92.0
3870,G4,288.492,129/500,118,92.0
3871,F#2,288.5,0.25,85,92.0
3872,D2,288.75,0.25,110,92.0
3873,D4,288.775,0.25,112,92.0
3874,E4,289.0,11/40,118,92.0
3875,E2,289.0,0.25,110,92.0
3876,E-3,289.0,1.0,105,92.0
3877,F#2,289.0,0.25,102,92.0
3878,E2,289.0,0.25,102,92.0
3879,E2,289.25,0.25,110,92.0
3880,C4,289.292,121/500,115,92.0
3881,F#2,289.5,0.25,85,92.0
3882,D4,289.517,121/500,118,92.0
3883,E4,289.75,0.25,118,92.0
3884,E2,289.75,0.25,110,92.0
3885,B1,289.75,0.25,120,92.0
3886,F4,290.0,1.0,118,92.0
3887,E4,290.0,1/125,118,92.0
3888,F#2,290.0,0.25,110,92.0
3889,F#2,290.0,0.25,85,92.0
3890,E-3,290.0,1.0,105,92.0
3891,F#2,290.25,0.25,110,92.0
3892,F#2,290.5,0.25,85,92.0
3893,F#2,290.75,0.25,110,92.0
3894,B1,290.75,0.25,120,92.0
3895,B-3,290.75,0.25,101,92.0
3896,D4,290.75,0.25,101,92.0
3897,E-4,290.75,0.25,101,92.0
3898,A2,291.0,0.5,110,92.0
3899,E-3,291.0,1.0,105,92.0
3900,E2,291.0,0.25,102,92.0
3901,F#2,291.0,0.25,102,92.0
3902,B1,291.25,0.25,120,92.0
3903,D2,291.5,0.5,110,92.0
3904,F#2,291.5,0.25,85,92.0
3905,B1,291.75,0.25,120,92.0
3906,B-3,291.75,0.25,101,92.0
3907,D4,291.75,0.25,101,92.0
3908,E-4,291.75,0.25,101,92.0
3909,F4,292.0,0.25,115,92.0
3910,E-2,292.0,0.5,110,92.0
3911,C#3,292.0,1.0,105,92.0
3912,F#2,292.0,0.25,102,92.0
3913,B1,292.0,0.25,102,92.0
3914,G4,292.25,0.25,115,92.0
3915,F#2,292.5,0.25,85,92.0
3916,E-3,292.75,1.0,110,92.0
3917,B-3,292.75,0.25,101,92.0
3918,D4,292.75,0.25,101,92.0
3919,C#3,292.75,0.25,95,92.0
3920,B1,292.75,0.25,95,92.0
3921,G4,293.0,0.25,115,92.0
3922,F#2,293.0,0.25,85,92.0
3923,B-4,293.25,0.25,115,92.0
3924,B1,293.25,0.25,120,92.0
3925,E2,293.5,0.25,102,92.0
3926,F#2,293.5,0.25,102,92.0
3927,G3,293.75,0.25,101,92.0
3928,B-3,293.75,0.25,101,92.0
3929,D4,293.75,0.25,101,92.0
3930,B-4,294.0,0.25,115,92.0
3931,G3,294.0,0.75,101,92.0
3932,E-3,294.0,0.25,110,92.0
3933,E-3,294.0,1.0,105,92.0
3934,B1,294.0,0.25,102,92.0
3935,F#2,294.0,0.25,102,92.0
3936,C5,294.25,0.25,115,92.0
3937,C3,294.25,0.25,110,92.0
3938,E2,294.25,0.25,120,92.0
3939,D4,294.5,921/500,101,92.0
3940,F#2,294.5,0.25,85,92.0
3941,B-3,294.5,2.5,101,92.0
3942,F3,294.5,2.5,101,92.0
3943,B-2,294.75,0.25,110,92.0
3944,D3,294.75,0.25,102,92.0
3945,B1,294.75,0.25,102,92.0
3946,E-3,295.0,1.0,105,92.0
3947,F4,295.0,0.25,115,92.0
3948,G3,295.0,0.25,115,92.0
3949,E2,295.0,0.25,102,92.0
3950,F#2,295.0,0.25,102,92.0
3951,G4,295.25,0.25,115,92.0
3952,E-2,295.25,0.25,110,92.0
3953,B-2,295.25,0.25,95,92.0
3954,F#2,295.5,0.25,110,92.0
3955,B1,295.5,0.25,102,92.0
3956,F#2,295.5,0.25,102,92.0
3957,A2,295.75,0.25,102,92.0
3958,B1,295.75,0.25,102,92.0
3959,E-2,296.0,0.25,110,92.0
3960,E-3,296.0,1.0,105,92.0
3961,E2,296.0,0.25,102,92.0
3962,B-2,296.0,0.25,102,92.0
3963,D4,296.008,124/125,118,92.0
3964,C3,296.25,0.25,110,92.0
3965,F#2,296.25,0.25,85,92.0
3966,E-4,296.333,333/1000,118,92.0
3967,F3,296.5,0.25,110,92.0
3968,F#2,296.5,0.25,85,92.0
3969,F4,296.667,333/1000,118,92.0
3970,E-3,296.75,1.5,110,92.0
3971,B1,296.75,0.25,120,92.0
3972,E-3,297.0,1.0,105,92.0
3973,F#2,297.0,0.25,102,92.0
3974,E2,297.0,0.25,102,92.0
3975,G4,297.008,333/1000,118,92.0
3976,E2,297.25,0.25,120,92.0
3977,A4,297.333,333/1000,118,92.0
3978,F#2,297.5,0.25,85,92.0
3979,G4,297.667,333/1000,118,92.0
3980,B1,297.75,0.25,120,92.0
3981,E-2,298.0,2.0,110,92.0
3982,F#2,298.0,0.25,85,92.0
3983,E-3,298.0,1.0,105,92.0
3984,C#4,298.0,4.0,101,92.0
3985,A3,298.0,4.0,101,92.0
3986,F#4,298.008,229/500,115,92.0
3987,G4,298.5,49/125,118,92.0
3988,F#2,298.5,0.25,85,92.0
3989,B1,298.75,0.25,120,92.0
3990,F#4,298.808,17/40,115,92.0
3991,E-3,299.0,1.0,105,92.0
3992,E2,299.0,0.25,102,92.0
3993,F#2,299.0,0.25,102,92.0
3994,E2,299.25,0.25,95,92.0
3995,A4,299.292,467/1000,118,92.0
3996,B1,299.5,0.25,102,92.0
3997,F#2,299.5,0.25,102,92.0
3998,D4,299.75,429/500,118,92.0
3999,D2,300.0,0.25,110,92.0
4000,G3,300.0,1.0,105,92.0
4001,F#2,300.0,0.25,102,92.0
4002,B1,300.0,0.25,102,92.0
4003,F#2,300.5,0.25,85,92.0
4004,D4,300.75,233/1000,115,92.0
4005,D3,300.75,1.0,110,92.0
4006,B1,300.75,0.25,120,92.0
4007,E4,301.0,217/1000,118,92.0
4008,E-3,301.0,1.0,105,92.0
4009,F#2,301.0,0.25,102,92.0
4010,E2,301.0,0.25,102,92.0
4011,F#4,301.25,9/40,118,92.0
4012,A4,301.5,167/1000,118,92.0
4013,F#2,301.5,0.25,85,92.0
4014,D4,301.75,217/1000,118,92.0
4015,D2,301.75,0.25,110,92.0
4016,B1,301.75,0.25,120,92.0
4017,E4,302.0,217/1000,118,92.0
4018,D3,302.0,0.25,110,92.0
4019,F#2,302.0,0.25,85,92.0
4020,E-3,302.0,1.0,105,92.0
4021,F#4,302.25,9/40,118,92.0
4022,C#3,302.25,0.25,110,92.0
4023,A4,302.5,9/40,118,92.0
4024,F#2,302.5,0.25,85,92.0
4025,D4,302.75,0.25,118,92.0
4026,A2,302.75,0.25,110,92.0
4027,B1,302.75,0.25,120,92.0
4028,E4,303.0,0.25,118,92.0
4029,E-3,303.0,1.0,105,92.0
4030,E2,303.0,0.25,102,92.0
4031,F#2,303.0,0.25,102,92.0
4032,F#4,303.25,0.375,118,92.0
4033,D2,303.25,0.25,110,92.0
4034,A4,303.5,567/1000,118,92.0
4035,F#2,303.5,0.25,110,92.0
4036,B1,303.5,0.25,102,92.0
4037,F#2,303.5,0.25,102,92.0
4038,D2,304.0,0.5,110,92.0
4039,E-3,304.0,1.0,105,92.0
4040,F#2,304.0,0.25,102,92.0
4041,B1,304.0,0.25,102,92.0
4042,D5,304.25,0.25,102,92.0
4043,C#5,304.5,0.25,101,92.0
4044,F#2,304.5,0.25,85,92.0
4045,C5,304.75,0.25,104,92.0
4046,D2,304.75,0.25,110,92.0
4047,B1,304.75,0.25,120,92.0
4048,B4,305.0,0.25,91,92.0
4049,E2,305.0,0.25,110,92.0
4050,E-3,305.0,1.0,105,92.0
4051,F#2,305.0,0.25,102,92.0
4052,E2,305.0,0.25,102,92.0
4053,A4,305.25,0.25,91,92.0
4054,E2,305.25,0.25,110,92.0
4055,G4,305.5,0.25,91,92.0
4056,F#2,305.5,0.25,85,92.0
4057,F4,305.75,0.25,101,92.0
4058,E2,305.75,0.25,110,92.0
4059,B1,305.75,0.25,120,92.0
4060,G4,306.0,383/1000,118,92.0
4061,F#2,306.0,0.25,110,92.0
4062,B-2,306.0,0.25,95,92.0
4063,F3,306.25,0.25,101,92.0
4064,F#2,306.25,0.25,110,92.0
4065,E2,306.25,0.25,120,92.0
4066,G3,306.5,2.25,101,92.0
4067,E-4,306.6,2.25,114,92.0
4068,G4,306.692,333/1000,118,92.0
4069,B-4,306.733,2.25,117,92.0
4070,D5,306.733,2.25,117,92.0
4071,F#2,306.75,0.25,110,92.0
4072,B1,306.75,0.25,120,92.0
4073,A2,307.0,0.5,110,92.0
4074,E2,307.0,0.25,120,92.0
4075,D3,307.25,0.25,105,92.0
4076,C3,307.5,0.5,110,92.0
4077,B-2,307.5,0.25,85,92.0
4078,B1,307.75,0.25,120,92.0
4079,D3,308.0,371/500,110,92.0
4080,C#3,308.0,0.25,110,92.0
4081,B1,308.0,0.25,110,92.0
4082,F#2,308.5,0.25,75,92.0
4083,D3,308.75,0.25,110,92.0
4084,B1,308.75,0.25,120,92.0
4085,E-5,309.0,9/40,118,92.0
4086,C#2,309.0,0.25,102,92.0
4087,F#2,309.0,0.25,102,92.0
4088,D5,309.25,1/5,115,92.0
4089,C5,309.5,27/250,118,92.0
4090,A3,309.5,121/500,110,92.0
4091,F#2,309.5,0.25,75,92.0
4092,B-4,309.75,0.125,115,92.0
4093,C4,309.75,79/500,110,92.0
4094,C4,310.0,0.5,110,92.0
4095,F#2,310.0,0.25,85,92.0
4096,C5,310.05,121/500,118,92.0
4097,B-4,310.25,1/5,115,92.0
4098,D2,310.25,0.25,110,92.0
4099,B1,310.25,0.25,120,92.0
4100,G4,310.5,217/1000,115,92.0
4101,D4,310.5,0.25,110,92.0
4102,F#2,310.5,0.25,75,92.0
4103,F4,310.75,79/500,118,92.0
4104,F2,310.75,0.25,110,92.0
4105,B1,310.75,0.25,120,92.0
4106,G2,311.0,0.25,110,92.0
4107,D4,311.0,0.5,110,92.0
4108,C#2,311.0,0.25,102,92.0
4109,F#2,311.0,0.25,102,92.0
4110,A4,311.25,1/5,101,92.0
4111,B-4,311.375,3/20,101,92.0
4112,F2,311.5,0.25,110,92.0
4113,E4,311.5,0.25,110,92.0
4114,B1,311.5,0.25,98,92.0
4115,F#2,311.5,0.25,98,92.0
4116,G4,311.75,13/40,101,92.0
4117,G2,311.75,0.25,110,92.0
4118,D2,312.0,0.5,110,92.0
4119,E4,312.0,0.5,110,92.0
4120,F#2,312.0,0.25,102,92.0
4121,B1,312.0,0.25,102,92.0
4122,D4,312.125,327/250,102,92.0
4123,F4,312.5,0.25,110,92.0
4124,F#2,312.5,0.25,75,92.0
4125,D2,312.75,0.25,110,92.0
4126,B1,312.75,0.25,120,92.0
4127,F4,313.0,0.25,110,92.0
4128,C#2,313.0,0.25,102,92.0
4129,F#2,313.0,0.25,102,92.0
4130,G4,313.25,0.25,110,92.0
4131,E-4,313.442,317/1000,103,92.0
4132,F#2,313.5,0.25,75,92.0
4133,G#4,313.75,0.25,110,92.0
4134,D4,313.767,3/20,103,92.0
4135,F#4,314.0,229/500,103,92.0
4136,A4,314.0,0.25,110,92.0
4137,F#2,314.0,0.25,85,92.0
4138,A2,314.25,0.25,110,92.0
4139,C5,314.25,0.25,110,92.0
4140,C#4,314.5,133/1000,104,92.0
4141,F#2,314.5,0.25,75,92.0
4142,C#4,314.75,7/20,104,92.0
4143,G2,314.75,0.25,110,92.0
4144,C5,314.75,123/250,110,92.0
4145,B1,314.75,0.25,120,92.0
4146,A2,315.0,0.25,110,92.0
4147,C#2,315.0,0.25,102,92.0
4148,F#2,315.0,0.25,102,92.0
4149,A3,315.25,133/1000,104,92.0
4150,F2,315.25,0.25,110,92.0
4151,D4,315.5,0.75,105,92.0
4152,D2,315.5,0.25,110,92.0
4153,A4,315.5,0.25,110,92.0
4154,B1,315.5,0.25,98,92.0
4155,F#2,315.5,0.25,98,92.0
4156,D3,316.0,371/500,110,92.0
4157,C#5,316.0,3/40,110,92.0
4158,F#2,316.0,0.25,102,92.0
4159,B1,316.0,0.25,102,92.0
4160,D5,316.042,123/250,110,92.0
4161,C5,316.5,0.25,110,92.0
4162,F#2,316.5,0.25,75,92.0
4163,D3,316.75,0.25,110,92.0
4164,G4,316.75,3/40,110,92.0
4165,B1,316.75,0.25,120,92.0
4166,D4,316.75,0.25,106,92.0
4167,A3,316.75,0.25,106,92.0
4168,G#4,316.792,123/250,110,92.0
4169,C#2,317.0,0.25,102,92.0
4170,F#2,317.0,0.25,102,92.0
4171,F#4,317.25,0.25,106,92.0
4172,G4,317.25,0.25,110,92.0
4173,A4,317.5,0.25,106,92.0
4174,F4,317.5,0.25,110,92.0
4175,F#2,317.5,0.25,75,92.0
4176,D4,317.75,0.25,107,92.0
4177,G4,317.75,23/40,110,92.0
4178,F#2,318.0,0.25,85,92.0
4179,D2,318.25,0.25,110,92.0
4180,B1,318.25,0.25,120,92.0
4181,A4,318.5,417/1000,107,92.0
4182,F#2,318.5,0.25,75,92.0
4183,F#4,318.75,2.0,108,92.0
4184,F2,318.75,0.25,110,92.0
4185,B1,318.75,0.25,120,92.0
4186,G2,319.0,0.25,110,92.0
4187,C#2,319.0,0.25,102,92.0
4188,F#2,319.0,0.25,102,92.0
4189,D4,319.25,2.25,108,92.0
4190,F4,319.25,0.25,110,92.0
4191,A3,319.5,2.25,108,92.0
4192,F2,319.5,0.25,110,92.0
4193,G4,319.5,0.25,110,92.0
4194,B1,319.5,0.25,98,92.0
4195,F#2,319.5,0.25,98,92.0
4196,D3,319.75,2.25,108,92.0
4197,G2,319.75,0.25,110,92.0
4198,F4,319.75,0.25,110,92.0
4199,D2,320.0,0.5,110,92.0
4200,G4,320.0,3/40,110,92.0
4201,F#2,320.0,0.25,102,92.0
4202,B1,320.0,0.25,102,92.0
4203,G#4,320.042,0.25,110,92.0
4204,G4,320.25,3/40,110,92.0
4205,F4,320.333,79/500,110,92.0
4206,D4,320.5,0.25,110,92.0
4207,F#2,320.5,0.25,75,92.0
4208,D2,320.75,0.25,110,92.0
4209,F4,320.75,23/40,110,92.0
4210,B1,320.75,0.25,120,92.0
4211,C#2,321.0,0.25,102,92.0
4212,F#2,321.0,0.25,102,92.0
4213,F#2,321.5,0.25,75,92.0
4214,A3,321.75,0.25,91,92.0
4215,E4,321.883,117/1000,91,92.0
4216,A4,321.883,117/1000,91,92.0
4217,C5,321.983,17/1000,91,92.0
4218,A3,322.0,4.0,91,92.0
4219,C5,322.0,4.0,91,92.0
4220,D3,322.0,0.75,108,92.0
4221,F#2,322.0,0.25,85,92.0
4222,E4,322.0,4.0,91,92.0
4223,A4,322.0,4.0,91,92.0
4224,E5,322.058,1971/500,91,92.0
4225,A2,322.25,0.25,110,92.0
4226,F#2,322.5,0.25,75,92.0
4227,G2,322.75,0.25,110,92.0
4228,B1,322.75,0.25,120,92.0
4229,C3,323.0,0.25,110,92.0
4230,B-2,323.0,0.25,102,92.0
4231,C#2,323.0,0.25,102,92.0
4232,A2,323.25,0.25,110,92.0
4233,B1,323.25,0.25,120,92.0
4234,C3,323.5,0.25,110,92.0
4235,E4,323.5,0.25,110,92.0
4236,F4,323.75,0.25,110,92.0
4237,C#2,323.75,0.25,120,92.0
4238,D3,324.0,371/500,110,92.0
4239,E4,324.0,0.25,110,92.0
4240,E-4,324.0,4.0,120,92.0
4241,G4,324.0,4.0,120,92.0
4242,B-4,324.0,4.0,120,92.0
4243,D5,324.0,4.0,120,92.0
4244,F#2,324.0,0.25,102,92.0
4245,B1,324.0,0.25,102,92.0
4246,D4,324.25,51/125,110,92.0
4247,F#2,324.5,0.25,75,92.0
4248,D3,324.75,0.25,110,92.0
4249,A3,324.75,23/40,110,92.0
4250,B1,324.75,0.25,120,92.0
4251,C#2,325.0,0.25,102,92.0
4252,F#2,325.0,0.25,102,92.0
4253,F#2,325.5,0.25,75,92.0
4254,A3,326.0,3.75,91,92.0
4255,C5,326.0,3983/1000,91,92.0
4256,E5,326.0,4.0,91,92.0
4257,F#2,326.0,0.25,85,92.0
4258,E4,326.0,3883/1000,91,92.0
4259,A4,326.0,3883/1000,91,92.0
4260,D2,326.25,0.25,110,92.0
4261,B1,326.25,0.25,120,92.0
4262,F#2,326.5,0.25,75,92.0
4263,F2,326.75,0.25,110,92.0
4264,B1,326.75,0.25,120,92.0
4265,G2,327.0,0.25,110,92.0
4266,C#2,327.0,0.25,102,92.0
4267,F#2,327.0,0.25,102,92.0
4268,F2,327.5,0.25,110,92.0
4269,B1,327.5,0.25,98,92.0
4270,F#2,327.5,0.25,98,92.0
4271,G2,327.75,0.25,110,92.0
4272,B3,327.75,0.25,110,92.0
4273,D2,328.0,0.5,110,92.0
4274,C4,328.0,0.25,110,92.0
4275,F#2,328.0,0.25,102,92.0
4276,B1,328.0,0.25,102,92.0
4277,A3,328.25,0.25,110,92.0
4278,B3,328.5,0.25,110,92.0
4279,F#2,328.5,0.25,75,92.0
4280,D2,328.75,0.25,110,92.0
4281,C4,328.75,0.25,110,92.0
4282,B1,328.75,0.25,120,92.0
4283,D4,329.0,0.25,110,92.0
4284,C#2,329.0,0.25,102,92.0
4285,F#2,329.0,0.25,102,92.0
4286,E4,329.25,0.25,110,92.0
4287,F#2,329.5,0.25,75,92.0
4288,D4,329.75,0.25,110,92.0
4289,E5,330.0,29/500,91,92.0
4290,E4,330.0,0.25,110,92.0
4291,F#2,330.0,333/1000,85,92.0
4292,A2,330.25,0.25,110,92.0
4293,F4,330.25,0.25,110,92.0
4294,F#2,330.333,333/1000,85,92.0
4295,G4,330.5,0.25,110,92.0
4296,F#2,330.667,333/1000,85,92.0
4297,G2,330.75,0.25,110,92.0
4298,A4,330.75,0.25,110,92.0
4299,B1,330.75,0.25,120,92.0
4300,A2,331.0,0.25,110,92.0
4301,B4,331.0,3/40,110,92.0
4302,F#2,331.0,333/1000,85,92.0
4303,C#2,331.0,0.25,120,92.0
4304,C5,331.042,0.25,110,92.0
4305,F2,331.25,0.25,110,92.0
4306,F#2,331.333,333/1000,85,92.0
4307,E2,331.5,0.25,110,92.0
4308,C5,331.5,0.25,110,92.0
4309,B1,331.5,0.25,120,92.0
4310,F#2,331.667,333/1000,85,92.0
4311,A4,331.75,0.25,110,92.0
4312,D2,332.0,371/500,110,92.0
4313,C#5,332.0,3/40,110,92.0
4314,E-4,332.0,4.0,120,92.0
4315,G4,332.0,4.0,120,92.0
4316,B-4,332.0,4.0,120,92.0
4317,D5,332.0,4.0,120,92.0
4318,B-2,332.0,0.25,102,92.0
4319,B1,332.0,0.25,102,92.0
4320,D5,332.042,0.25,110,92.0
4321,D5,332.5,0.25,110,92.0
4322,D3,332.75,0.25,110,92.0
4323,A4,332.75,0.25,110,92.0
4324,B1,332.75,0.25,120,92.0
4325,C5,333.0,79/500,110,92.0
4326,C#2,333.0,0.25,102,92.0
4327,F#2,333.0,0.25,102,92.0
4328,C5,333.25,0.25,110,92.0
4329,F#2,333.5,0.25,75,92.0
4330,A4,333.75,0.25,110,92.0
4331,D5,334.0,79/500,110,92.0
4332,F#2,334.0,0.25,85,92.0
4333,D2,334.25,0.25,110,92.0
4334,D5,334.25,0.25,110,92.0
4335,B1,334.25,0.25,120,92.0
4336,F#2,334.5,0.25,75,92.0
4337,F2,334.75,0.25,110,92.0
4338,A4,334.75,0.25,110,92.0
4339,B1,334.75,0.25,120,92.0
4340,G2,335.0,0.25,110,92.0
4341,C5,335.0,79/500,110,92.0
4342,F#2,335.0,0.25,85,92.0
4343,C5,335.25,0.25,110,92.0
4344,C#2,335.25,0.25,120,92.0
4345,F2,335.5,0.25,110,92.0
4346,B1,335.5,0.25,98,92.0
4347,F#2,335.5,0.25,98,92.0
4348,G2,335.75,0.25,110,92.0
4349,A4,335.75,0.25,110,92.0
4350,D2,336.0,0.5,110,92.0
4351,C#5,336.0,3/40,110,92.0
4352,D4,336.0,4.0,120,92.0
4353,C#5,336.0,4.0,120,92.0
4354,F#4,336.0,4.0,120,92.0
4355,A4,336.0,4.0,120,92.0
4356,F#2,336.0,0.25,102,92.0
4357,B1,336.0,0.25,102,92.0
4358,D5,336.042,0.25,110,92.0
4359,F5,336.5,0.25,110,92.0
4360,F#2,336.5,0.25,75,92.0
4361,D2,336.75,0.25,110,92.0
4362,E5,336.75,0.25,110,92.0
4363,B1,336.75,0.25,120,92.0
4364,C#2,337.0,0.25,102,92.0
4365,F#2,337.0,0.25,102,92.0
4366,F5,337.25,0.25,110,92.0
4367,E5,337.5,0.25,110,92.0
4368,F#2,337.5,0.25,75,92.0
4369,D5,337.75,0.25,110,92.0
4370,E5,338.0,0.25,110,92.0
4371,F#2,338.0,0.25,85,92.0
4372,D2,338.25,0.25,110,92.0
4373,C5,338.25,0.25,110,92.0
4374,F#2,338.5,0.25,75,92.0
4375,D2,338.75,0.25,110,92.0
4376,A4,338.75,0.25,110,92.0
4377,B1,338.75,0.25,120,92.0
4378,F2,339.0,0.25,110,92.0
4379,B-2,339.0,0.25,102,92.0
4380,E2,339.0,0.25,102,92.0
4381,F2,339.25,0.25,110,92.0
4382,B1,339.5,0.25,120,92.0
4383,F2,339.75,0.25,110,92.0
4384,E-2,340.0,0.5,110,92.0
4385,A4,340.0,3/40,110,92.0
4386,C#3,340.0,1.0,105,92.0
4387,F#2,340.0,0.25,102,92.0
4388,B1,340.0,0.25,102,92.0
4389,B-4,340.042,0.25,110,92.0
4390,G4,340.25,0.25,110,92.0
4391,A4,340.5,0.25,110,92.0
4392,F#2,340.5,0.25,85,92.0
4393,E-2,340.75,0.25,110,92.0
4394,B-4,340.75,0.25,110,92.0
4395,E2,340.75,0.25,120,92.0
4396,F2,341.0,0.25,110,92.0
4397,C5,341.0,0.25,110,92.0
4398,F#2,341.0,0.25,85,92.0
4399,E-3,341.0,1.0,105,92.0
4400,F2,341.25,0.25,110,92.0
4401,C#5,341.25,0.25,110,92.0
4402,D5,341.5,0.25,110,92.0
4403,F#2,341.5,0.25,85,92.0
4404,E-2,341.75,0.25,110,92.0
4405,F5,341.75,0.25,110,92.0
4406,B1,341.75,0.25,120,92.0
4407,F#2,342.0,0.25,85,92.0
4408,E-3,342.0,1.0,105,92.0
4409,E-5,342.25,0.25,110,92.0
4410,D5,342.5,0.25,110,92.0
4411,F#2,342.5,0.25,85,92.0
4412,E-5,342.75,0.25,110,92.0
4413,B1,342.75,0.25,120,92.0
4414,B-2,343.0,0.5,110,92.0
4415,D5,343.0,79/500,110,92.0
4416,E-3,343.0,1.0,105,92.0
4417,E2,343.0,0.25,102,92.0
4418,F#2,343.0,0.25,102,92.0
4419,E-5,343.167,79/500,110,92.0
4420,D5,343.25,0.25,110,92.0
4421,C3,343.5,0.5,110,92.0
4422,C5,343.5,0.25,110,92.0
4423,B1,343.5,0.25,102,92.0
4424,F#2,343.5,0.25,102,92.0
4425,D5,343.75,0.25,110,92.0
4426,E-2,344.0,0.5,110,92.0
4427,E-5,344.0,0.25,110,92.0
4428,E-3,344.0,1.0,105,92.0
4429,D4,344.0,4.0,120,92.0
4430,C#5,344.0,4.0,120,92.0
4431,F#4,344.0,4.0,120,92.0
4432,A4,344.0,4.0,120,92.0
4433,F#2,344.0,0.25,102,92.0
4434,B1,344.0,0.25,102,92.0
4435,D5,344.25,0.25,110,92.0
4436,C5,344.5,0.25,110,92.0
4437,F#2,344.5,0.25,85,92.0
4438,E-2,344.75,0.25,110,92.0
4439,B-4,344.75,0.25,110,92.0
4440,F2,345.0,0.25,110,92.0
4441,G4,345.0,0.25,110,92.0
4442,E-3,345.0,1.0,105,92.0
4443,F#2,345.0,0.25,102,92.0
4444,E2,345.0,0.25,102,92.0
4445,F2,345.25,0.25,110,92.0
4446,A4,345.25,0.25,110,92.0
4447,F#2,345.5,0.25,85,92.0
4448,E-2,345.75,0.25,110,92.0
4449,B-4,345.75,0.25,110,92.0
4450,B1,345.75,0.25,120,92.0
4451,F#2,346.0,0.25,85,92.0
4452,E-3,346.0,1.0,105,92.0
4453,G4,346.25,79/500,110,92.0
4454,G4,346.5,0.25,110,92.0
4455,F#2,346.5,0.25,85,92.0
4456,B1,346.75,0.25,120,92.0
4457,B-2,347.0,0.5,110,92.0
4458,G4,347.0,79/500,110,92.0
4459,E-3,347.0,1.0,105,92.0
4460,E2,347.0,0.25,102,92.0
4461,F#2,347.0,0.25,102,92.0
4462,G4,347.25,0.25,110,92.0
4463,B1,347.25,0.25,120,92.0
4464,C3,347.5,0.5,110,92.0
4465,A4,347.5,0.25,110,92.0
4466,E2,347.5,0.25,102,92.0
4467,F#2,347.5,0.25,102,92.0
4468,B-4,347.75,0.25,110,92.0
4469,B1,347.75,0.25,120,92.0
4470,D2,348.0,0.5,110,92.0
4471,G#4,348.0,121/500,110,92.0
4472,E-3,348.0,1.0,105,92.0
4473,E-4,348.0,4.0,120,92.0
4474,D5,348.0,4.0,120,92.0
4475,G4,348.0,4.0,120,92.0
4476,B-4,348.0,4.0,120,92.0
4477,F#2,348.0,0.25,102,92.0
4478,B1,348.0,0.25,102,92.0
4479,A4,348.25,121/500,110,92.0
4480,F#2,348.5,0.25,85,92.0
4481,D2,348.75,0.25,110,92.0
4482,G4,348.75,0.25,110,92.0
4483,E2,348.75,0.25,120,92.0
4484,E2,349.0,0.25,110,92.0
4485,F#2,349.0,0.25,85,92.0
4486,E-3,349.0,1.0,105,92.0
4487,E2,349.25,0.25,110,92.0
4488,F#4,349.25,0.25,110,92.0
4489,B1,349.5,0.25,102,92.0
4490,F#2,349.5,0.25,102,92.0
4491,D2,349.75,0.25,110,92.0
4492,D4,349.75,79/500,110,92.0
4493,D4,350.0,0.75,110,92.0
4494,F#2,350.0,0.25,85,92.0
4495,E-3,350.0,1.0,105,92.0
4496,F#2,350.5,0.25,85,92.0
4497,B1,350.75,0.25,120,92.0
4498,A2,351.0,0.5,110,92.0
4499,E-3,351.0,1.0,105,92.0
4500,E2,351.0,0.25,102,92.0
4501,F#2,351.0,0.25,102,92.0
4502,C3,351.5,0.5,110,92.0
4503,B1,351.5,0.25,102,92.0
4504,F#2,351.5,0.25,102,92.0
4505,D2,352.0,0.5,110,92.0
4506,E-3,352.0,1.0,105,92.0
4507,F#2,352.0,0.25,102,92.0
4508,B1,352.0,0.25,102,92.0
4509,E-4,352.25,0.25,110,92.0
4510,F#4,352.5,0.25,110,92.0
4511,F#2,352.5,0.25,85,92.0
4512,D2,352.75,0.25,110,92.0
4513,G4,352.75,0.25,110,92.0
4514,E2,353.0,0.25,110,92.0
4515,A4,353.0,0.25,110,92.0
4516,E-3,353.0,1.0,105,92.0
4517,F#2,353.0,0.25,102,92.0
4518,E2,353.0,0.25,102,92.0
4519,E2,353.25,0.25,110,92.0
4520,B-4,353.25,0.25,110,92.0
4521,A4,353.5,0.25,110,92.0
4522,F#2,353.5,0.25,85,92.0
4523,E2,353.75,0.25,110,92.0
4524,G4,353.75,0.25,110,92.0
4525,B1,353.75,0.25,120,92.0
4526,F#2,354.0,0.25,110,92.0
4527,F#4,354.0,0.25,110,92.0
4528,F#2,354.0,0.25,85,92.0
4529,E-3,354.0,1.0,105,92.0
4530,B-3,354.0,4.0,102,92.0
4531,E-4,354.0,4.0,102,92.0
4532,G4,354.0,4.0,102,92.0
4533,D5,354.0,4.0,102,92.0
4534,E-3,354.0,4.0,102,92.0
4535,F#2,354.25,0.25,110,92.0
4536,G4,354.25,0.25,110,92.0
4537,C5,354.5,0.25,110,92.0
4538,F#2,354.5,0.25,85,92.0
4539,F#2,354.75,0.25,110,92.0
4540,B-4,354.75,0.25,110,92.0
4541,B1,354.75,0.25,120,92.0
4542,A2,355.0,0.5,110,92.0
4543,A4,355.0,0.25,110,92.0
4544,E-3,355.0,1.0,105,92.0
4545,E2,355.0,0.25,102,92.0
4546,F#2,355.0,0.25,102,92.0
4547,G4,355.25,0.25,110,92.0
4548,E2,355.25,0.25,120,92.0
4549,D2,355.5,0.5,110,92.0
4550,F#4,355.5,0.25,110,92.0
4551,B1,355.5,0.25,102,92.0
4552,F#2,355.5,0.25,102,92.0
4553,E2,355.75,0.25,120,92.0
4554,E-2,356.0,0.5,110,92.0
4555,E-3,356.0,1.0,105,92.0
4556,E-4,356.0,4.0,120,92.0
4557,D5,356.0,4.0,120,92.0
4558,G4,356.0,4.0,120,92.0
4559,B-4,356.0,4.0,120,92.0
4560,F#2,356.0,0.25,102,92.0
4561,B1,356.0,0.25,102,92.0
4562,A4,356.25,0.25,110,92.0
4563,B-4,356.5,0.25,110,92.0
4564,F#2,356.5,0.25,85,92.0
4565,E-2,356.75,0.25,110,92.0
4566,G4,356.75,0.25,110,92.0
4567,F2,357.0,0.25,110,92.0
4568,A4,357.0,0.25,110,92.0
4569,F#2,357.0,0.25,85,92.0
4570,E-3,357.0,1.0,105,92.0
4571,F2,357.25,0.25,110,92.0
4572,B-4,357.25,0.25,110,92.0
4573,E2,357.25,0.25,120,92.0
4574,C5,357.5,0.25,110,92.0
4575,F#2,357.5,0.25,85,92.0
4576,E-2,357.75,0.25,110,92.0
4577,C#5,357.75,0.25,110,92.0
4578,B1,357.75,0.25,120,92.0
4579,D5,358.0,0.25,110,92.0
4580,F#2,358.0,0.25,85,92.0
4581,E-3,358.0,1.0,105,92.0
4582,D4,358.0,4.0,97,92.0
4583,G4,358.0,4.0,97,92.0
4584,B-4,358.0,4.0,97,92.0
4585,E-5,358.0,4.0,97,92.0
4586,F5,358.25,0.25,110,92.0
4587,E-5,358.5,0.25,110,92.0
4588,F#2,358.5,0.25,85,92.0
4589,D5,358.75,0.25,110,92.0
4590,B1,358.75,0.25,120,92.0
4591,B-2,359.0,0.5,110,92.0
4592,E-5,359.0,0.25,110,92.0
4593,E-3,359.0,1.0,105,92.0
4594,E2,359.0,0.25,102,92.0
4595,F#2,359.0,0.25,102,92.0
4596,F5,359.25,0.25,110,92.0
4597,C3,359.5,0.5,110,92.0
4598,B1,359.5,0.25,102,92.0
4599,F#2,359.5,0.25,102,92.0
4600,G5,359.75,0.25,110,92.0
4601,E-2,360.0,0.5,110,92.0
4602,E-3,360.0,1.0,105,92.0
4603,C#5,360.0,4.0,120,92.0
4604,D4,360.0,4.0,120,92.0
4605,F#4,360.0,4.0,120,92.0
4606,A4,360.0,4.0,120,92.0
4607,F#2,360.0,0.25,102,92.0
4608,B1,360.0,0.25,102,92.0
4609,A5,360.25,0.25,110,92.0
4610,F#2,360.5,0.25,85,92.0
4611,E-2,360.75,0.25,110,92.0
4612,B-5,360.75,0.25,110,92.0
4613,F2,361.0,0.25,110,92.0
4614,E-3,361.0,1.0,105,92.0
4615,F#2,361.0,0.25,102,92.0
4616,E2,361.0,0.25,102,92.0
4617,F2,361.25,0.25,110,92.0
4618,A5,361.25,0.25,110,92.0
4619,F#2,361.5,0.25,85,92.0
4620,E-2,361.75,0.25,110,92.0
4621,B5,361.75,3/40,110,92.0
4622,B1,361.75,0.25,120,92.0
4623,C6,361.792,0.5,110,92.0
4624,F#2,362.0,0.25,85,92.0
4625,E-3,362.0,1.0,105,92.0
4626,A3,362.0,4.0,102,92.0
4627,D4,362.0,4.0,102,92.0
4628,F#4,362.0,4.0,102,92.0
4629,C#5,362.0,4.0,102,92.0
4630,D3,362.0,4.0,102,92.0
4631,B-5,362.25,0.25,110,92.0
4632,F#2,362.5,0.25,85,92.0
4633,A5,362.75,0.5,110,92.0
4634,B1,362.75,0.25,120,92.0
4635,B-2,363.0,0.5,110,92.0
4636,E-3,363.0,1.0,105,92.0
4637,E2,363.0,0.25,102,92.0
4638,F#2,363.0,0.25,102,92.0
4639,B-5,363.25,121/500,110,92.0
4640,E2,363.25,0.25,120,92.0
4641,C3,363.5,0.5,110,92.0
4642,A5,363.5,79/500,110,92.0
4643,B1,363.5,0.25,102,92.0
4644,F#2,363.5,0.25,102,92.0
4645,B-5,363.667,79/500,110,92.0
4646,G5,363.833,3/40,110,92.0
4647,D2,364.0,0.5,110,92.0
4648,A5,364.0,13/40,110,92.0
4649,G3,364.0,1.0,105,92.0
4650,F#2,364.0,0.25,102,92.0
4651,B1,364.0,0.25,102,92.0
4652,G5,364.5,0.25,110,92.0
4653,F#2,364.5,0.25,85,92.0
4654,D2,364.75,0.25,110,92.0
4655,F#5,364.75,0.5,110,92.0
4656,E2,365.0,0.25,110,92.0
4657,E-3,365.0,1.0,105,92.0
4658,F#2,365.0,0.25,102,92.0
4659,E2,365.0,0.25,102,92.0
4660,E2,365.25,0.25,110,92.0
4661,E-5,365.25,0.25,110,92.0
4662,D5,365.5,1.25,110,92.0
4663,F#2,365.5,0.25,85,92.0
4664,D2,365.75,0.25,110,92.0
4665,B1,365.75,0.25,120,92.0
4666,F#2,366.0,0.25,85,92.0
4667,E-3,366.0,1.0,105,92.0
4668,F#2,366.5,0.25,85,92.0
4669,B1,366.75,0.25,120,92.0
4670,F#4,367.0,727/250,94,92.0
4671,A2,367.0,0.5,110,92.0
4672,E-3,367.0,1.0,105,92.0
4673,A3,367.0,3.0,94,92.0
4674,D4,367.0,3.0,94,92.0
4675,A4,367.0,3.0,94,92.0
4676,C#5,367.0,3.0,94,92.0
4677,E2,367.0,0.25,102,92.0
4678,F#2,367.0,0.25,102,92.0
4679,B2,367.5,0.5,110,92.0
4680,B1,367.5,0.25,102,92.0
4681,F#2,367.5,0.25,102,92.0
4682,D2,368.0,0.5,110,92.0
4683,E-3,368.0,1.0,105,92.0
4684,C#5,368.0,4.0,120,92.0
4685,D4,368.0,4.0,120,92.0
4686,F#4,368.0,4.0,120,92.0
4687,A4,368.0,4.0,120,92.0
4688,F#2,368.0,0.25,102,92.0
4689,B1,368.0,0.25,102,92.0
4690,F#5,368.5,0.25,110,92.0
4691,F#2,368.5,0.25,85,92.0
4692,D2,368.75,0.25,110,92.0
4693,G5,368.75,0.25,110,92.0
4694,A3,368.783,1217/1000,101,92.0
4695,E2,369.0,0.25,110,92.0
4696,F#5,369.0,0.25,110,92.0
4697,E-3,369.0,1.0,105,92.0
4698,F#2,369.0,0.25,102,92.0
4699,E2,369.0,0.25,102,92.0
4700,D4,369.042,479/500,125,92.0
4701,E2,369.25,0.25,110,92.0
4702,E-5,369.25,0.25,110,92.0
4703,D5,369.5,0.25,110,92.0
4704,F#2,369.5,0.25,85,92.0
4705,F#4,369.533,467/1000,94,92.0
4706,E2,369.75,0.25,110,92.0
4707,C5,369.75,0.25,110,92.0
4708,B1,369.75,0.25,120,92.0
4709,E-2,370.0,4.0,101,92.0
4710,G3,370.0,2583/1000,86,92.0
4711,D4,370.0,3.0,97,92.0
4712,F#2,370.0,0.25,110,92.0
4713,D5,370.0,0.25,110,92.0
4714,F#2,370.0,0.25,85,92.0
4715,E-3,370.0,1.0,105,92.0
4716,B-4,370.0,3267/1000,94,92.0
4717,D5,370.0,3267/1000,94,92.0
4718,F4,370.0,3267/1000,94,92.0
4719,F#2,370.25,0.25,110,92.0
4720,A4,370.25,0.25,110,92.0
4721,E2,370.25,0.25,120,92.0
4722,F#2,370.5,0.25,85,92.0
4723,F#2,370.75,0.25,110,92.0
4724,A4,370.75,1.0,110,92.0
4725,B1,370.75,0.25,120,92.0
4726,A2,371.0,0.5,110,92.0
4727,E-3,371.0,1.0,105,92.0
4728,E2,371.0,0.25,102,92.0
4729,F#2,371.0,0.25,102,92.0
4730,D2,371.5,0.5,110,92.0
4731,B1,371.5,0.25,102,92.0
4732,F#2,371.5,0.25,102,92.0
4733,E2,371.75,0.25,120,92.0
4734,D2,372.0,0.5,110,92.0
4735,G3,372.0,1.0,105,92.0
4736,F#2,372.0,0.25,102,92.0
4737,B1,372.0,0.25,102,92.0
4738,E-3,372.25,1.75,91,92.0
4739,F#2,372.5,0.25,85,92.0
4740,G3,372.75,1.25,79,92.0
4741,A2,372.75,0.25,110,92.0
4742,D3,373.0,0.25,110,92.0
4743,E-3,373.0,1.0,105,92.0
4744,F#2,373.0,0.25,102,92.0
4745,E2,373.0,0.25,102,92.0
4746,D4,373.25,0.75,83,92.0
4747,C3,373.25,0.25,110,92.0
4748,F#2,373.5,0.25,85,92.0
4749,F4,373.75,0.25,91,92.0
4750,A2,373.75,0.25,110,92.0
4751,B1,373.75,0.25,120,92.0
4752,F4,374.0,33/10,91,92.0
4753,E-2,374.0,107/40,101,92.0
4754,G3,374.0,127/40,79,92.0
4755,D4,374.0,823/250,83,92.0
4756,E-3,374.0,723/250,91,92.0
4757,F#2,374.0,0.25,85,92.0
4758,E-3,374.0,1.0,105,92.0
4759,F2,374.25,0.25,110,92.0
4760,C#4,374.25,0.25,110,92.0
4761,D2,374.5,0.25,110,92.0
4762,D4,374.5,0.25,110,92.0
4763,F#2,374.5,0.25,85,92.0
4764,E4,374.75,0.25,110,92.0
4765,B1,374.75,0.25,120,92.0
4766,A1,375.0,0.25,110,92.0
4767,F4,375.0,0.25,110,92.0
4768,E-3,375.0,1.0,105,92.0
4769,E2,375.0,0.25,102,92.0
4770,F#2,375.0,0.25,102,92.0
4771,E4,375.25,0.25,110,92.0
4772,C2,375.5,0.25,110,92.0
4773,F4,375.5,0.25,110,92.0
4774,B1,375.5,0.25,102,92.0
4775,F#2,375.5,0.25,102,92.0
4776,G4,375.75,0.25,110,92.0
4777,D2,376.0,0.5,110,92.0
4778,G#4,376.0,3/40,110,92.0
4779,E-3,376.0,1.0,105,92.0
4780,F#2,376.0,0.25,102,92.0
4781,B1,376.0,0.25,102,92.0
4782,A4,376.042,0.25,110,92.0
4783,C5,376.5,79/500,110,92.0
4784,F#2,376.5,0.25,85,92.0
4785,E-2,376.75,49/40,121,92.0
4786,A2,376.75,0.25,110,92.0
4787,C5,376.75,0.5,110,92.0
4788,E-3,377.0,39/40,127,92.0
4789,D3,377.0,0.25,110,92.0
4790,E-3,377.0,1.0,105,92.0
4791,F#2,377.0,0.25,102,92.0
4792,E2,377.0,0.25,102,92.0
4793,G3,377.25,29/40,116,92.0
4794,C3,377.25,0.25,110,92.0
4795,A4,377.25,0.25,110,92.0
4796,D4,377.5,19/40,80,92.0
4797,F#2,377.5,0.25,85,92.0
4798,F4,377.75,9/40,97,92.0
4799,A2,377.75,0.25,110,92.0
4800,C#5,377.75,79/500,110,92.0
4801,B1,377.75,0.25,120,92.0
4802,D5,377.792,0.5,110,92.0
4803,D3,378.0,823/250,107,92.0
4804,F#2,378.0,0.25,85,92.0
4805,E-3,378.0,1.0,105,92.0
4806,A3,378.25,2283/1000,80,92.0
4807,F2,378.25,0.25,110,92.0
4808,C5,378.25,0.25,110,92.0
4809,D4,378.5,12/5,114,92.0
4810,D2,378.5,0.25,110,92.0
4811,F#2,378.5,0.25,85,92.0
4812,A4,378.75,523/250,107,92.0
4813,A4,378.75,23/40,110,92.0
4814,B1,378.75,0.25,120,92.0
4815,C#5,378.75,1079/500,98,92.0
4816,E4,378.75,1079/500,98,92.0
4817,A1,379.0,0.25,110,92.0
4818,E-3,379.0,1.0,105,92.0
4819,E2,379.0,0.25,102,92.0
4820,F#2,379.0,0.25,102,92.0
4821,C2,379.5,0.25,110,92.0
4822,B1,379.5,0.25,102,92.0
4823,F#2,379.5,0.25,102,92.0
4824,D2,380.0,0.5,110,92.0
4825,E-3,380.0,1.0,105,92.0
4826,F#2,380.0,0.25,102,92.0
4827,B1,380.0,0.25,102,92.0
4828,E5,380.5,0.25,110,92.0
4829,F#2,380.5,0.25,85,92.0
4830,A3,380.75,271/500,101,92.0
4831,A2,380.75,0.25,110,92.0
4832,F5,380.75,0.25,110,92.0
4833,D3,381.0,0.25,110,92.0
4834,E5,381.0,0.25,110,92.0
4835,E-3,381.0,1.0,105,92.0
4836,C#5,381.0,73/250,92,92.0
4837,E4,381.0,73/250,92,92.0
4838,D4,381.0,73/250,92,92.0
4839,A4,381.0,73/250,92,92.0
4840,F#2,381.0,0.25,102,92.0
4841,E2,381.0,0.25,102,92.0
4842,C3,381.25,0.25,110,92.0
4843,D5,381.25,0.25,110,92.0
4844,D3,381.5,0.5,94,92.0
4845,D4,381.5,0.5,91,92.0
4846,F#2,381.5,0.25,85,92.0
4847,D5,381.5,0.5,106,92.0
4848,F#4,381.5,0.5,106,92.0
4849,A2,381.75,0.25,110,92.0
4850,G5,381.75,0.5,110,92.0
4851,B1,381.75,0.25,120,92.0
4852,D3,382.0,1829/500,94,92.0
4853,D4,382.0,223/250,91,92.0
4854,F#2,382.0,0.25,85,92.0
4855,E-3,382.0,1.0,105,92.0
4856,D5,382.0,1333/1000,106,92.0
4857,F#4,382.0,1333/1000,106,92.0
4858,F2,382.25,0.25,110,92.0
4859,F5,382.25,0.25,110,92.0
4860,D2,382.5,0.25,110,92.0
4861,F#2,382.5,0.25,85,92.0
4862,E5,382.75,13/40,110,92.0
4863,B1,382.75,0.25,120,92.0
4864,A1,383.0,0.25,110,92.0
4865,E-3,383.0,1.0,105,92.0
4866,E2,383.0,0.25,102,92.0
4867,F#2,383.0,0.25,102,92.0
4868,F5,383.25,121/500,110,92.0
4869,C2,383.5,0.25,110,92.0
4870,E5,383.5,3/40,110,92.0
4871,B1,383.5,0.25,102,92.0
4872,F#2,383.5,0.25,102,92.0
4873,F5,383.583,79/500,110,92.0
4874,E5,383.75,3/40,110,92.0
4875,D5,383.833,79/500,110,92.0
4876,D2,384.0,0.5,110,92.0
4877,E5,384.0,0.5,110,92.0
4878,E-3,384.0,1.0,105,92.0
4879,C5,384.0,4.0,120,92.0
4880,E5,384.0,4.0,120,92.0
4881,F#2,384.0,0.25,102,92.0
4882,B1,384.0,0.25,102,92.0
4883,D5,384.5,0.25,110,92.0
4884,F#2,384.5,0.25,85,92.0
4885,D2,384.75,0.25,110,92.0
4886,C5,384.75,0.25,110,92.0
4887,E2,385.0,0.25,110,92.0
4888,E-3,385.0,1.0,105,92.0
4889,F#2,385.0,0.25,102,92.0
4890,E2,385.0,0.25,102,92.0
4891,E2,385.25,0.25,110,92.0
4892,A4,385.25,0.25,110,92.0
4893,F#2,385.5,0.25,85,92.0
4894,E2,385.75,0.25,110,92.0
4895,A4,385.75,23/40,110,92.0
4896,B1,385.75,0.25,120,92.0
4897,F2,386.0,0.25,110,92.0
4898,F#2,386.0,0.25,85,92.0
4899,E-3,386.0,1.0,105,92.0
4900,F2,386.25,0.25,110,92.0
4901,F#2,386.5,0.25,85,92.0
4902,C4,386.5,0.25,95,92.0
4903,A3,386.5,0.25,95,92.0
4904,E4,386.5,0.25,95,92.0
4905,F2,386.75,0.25,110,92.0
4906,B1,386.75,0.25,120,92.0
4907,G2,387.0,0.25,110,92.0
4908,E-3,387.0,1.0,105,92.0
4909,E2,387.0,0.25,102,92.0
4910,F#2,387.0,0.25,102,92.0
4911,G2,387.25,0.25,110,92.0
4912,A4,387.5,0.25,110,92.0
4913,A3,387.5,0.25,95,92.0
4914,C4,387.5,0.25,95,92.0
4915,E4,387.5,0.25,95,92.0
4916,B1,387.5,0.25,102,92.0
4917,F#2,387.5,0.25,102,92.0
4918,G2,387.75,0.25,110,92.0
4919,C5,387.75,0.25,110,92.0
4920,A3,387.75,0.25,95,92.0
4921,C4,387.75,0.25,95,92.0
4922,E4,387.75,0.25,95,92.0
4923,B-2,387.75,0.25,102,92.0
4924,E2,387.75,0.25,102,92.0
4925,A2,388.0,0.25,110,92.0
4926,B4,388.0,0.25,110,92.0
4927,E-3,388.0,1.0,105,92.0
4928,F#2,388.0,0.25,102,92.0
4929,B1,388.0,0.25,102,92.0
4930,A2,388.25,0.25,110,92.0
4931,G4,388.5,79/500,110,92.0
4932,F#2,388.5,0.25,85,92.0
4933,A2,388.75,0.25,110,92.0
4934,G4,388.75,0.5,110,92.0
4935,D3,389.0,0.25,110,92.0
4936,E-3,389.0,1.0,105,92.0
4937,A3,389.0,0.25,95,92.0
4938,C4,389.0,0.25,95,92.0
4939,E4,389.0,0.25,95,92.0
4940,F#2,389.0,0.25,102,92.0
4941,E2,389.0,0.25,102,92.0
4942,C3,389.25,0.25,110,92.0
4943,B-4,389.25,79/500,110,92.0
4944,B4,389.292,123/250,110,92.0
4945,F#2,389.5,0.25,85,92.0
4946,A2,389.75,0.25,110,92.0
4947,A4,389.75,0.5,110,92.0
4948,B1,389.75,0.25,120,92.0
4949,F#2,390.0,0.25,85,92.0
4950,E-3,390.0,1.0,105,92.0
4951,A2,390.25,0.25,110,92.0
4952,F4,390.25,0.25,110,92.0
4953,F2,390.5,0.25,110,92.0
4954,F#2,390.5,0.25,85,92.0
4955,F4,390.75,0.5,110,92.0
4956,G4,390.75,0.25,91,92.0
4957,A3,390.75,0.25,91,92.0
4958,C4,390.75,0.25,91,92.0
4959,E4,390.75,0.25,91,92.0
4960,E2,390.75,0.25,120,92.0
4961,B1,390.75,0.25,120,92.0
4962,A2,391.0,0.25,110,92.0
4963,F#2,391.0,0.25,85,92.0
4964,E-3,391.0,1.0,105,92.0
4965,G#4,391.25,79/500,110,92.0
4966,A4,391.292,0.5,110,92.0
4967,F2,391.5,0.25,110,92.0
4968,B1,391.5,0.25,102,92.0
4969,F#2,391.5,0.25,102,92.0
4970,G4,391.75,0.25,110,92.0
4971,B3,391.75,0.25,93,92.0
4972,D4,391.75,0.25,93,92.0
4973,F4,391.75,0.25,93,92.0
4974,A4,391.75,0.25,93,92.0
4975,D2,392.0,0.5,110,92.0
4976,G4,392.0,0.25,110,92.0
4977,E-3,392.0,1.0,105,92.0
4978,C5,392.0,4.0,120,92.0
4979,E5,392.0,4.0,120,92.0
4980,F#2,392.0,0.25,102,92.0
4981,B1,392.0,0.25,102,92.0
4982,E4,392.25,0.25,110,92.0
4983,F#2,392.5,0.25,85,92.0
4984,A2,392.75,0.25,110,92.0
4985,E4,392.75,0.5,110,92.0
4986,E2,392.75,0.25,120,92.0
4987,D3,393.0,0.25,110,92.0
4988,F#2,393.0,0.25,85,92.0
4989,E-3,393.0,1.0,105,92.0
4990,C4,393.0,1.0,95,92.0
4991,E4,393.0,1.0,95,92.0
4992,G4,393.0,1.0,95,92.0
4993,B4,393.0,1.0,95,92.0
4994,E5,393.0,1.0,95,92.0
4995,C3,393.25,0.25,110,92.0
4996,F#4,393.25,79/500,110,92.0
4997,G4,393.292,0.5,110,92.0
4998,F#2,393.5,0.25,85,92.0
4999,A2,393.75,0.25,110,92.0
5000,F4,393.75,0.5,110,92.0
5001,B1,393.75,0.25,120,92.0
5002,A3,394.0,2383/1000,101,92.0
5003,F#2,394.0,0.25,85,92.0
5004,E-3,394.0,1.0,105,92.0
5005,D4,394.0,4.0,101,92.0
5006,F4,394.0,4.0,101,92.0
5007,A4,394.0,4.0,101,92.0
5008,D5,394.0,4.0,101,92.0
5009,F2,394.25,0.25,110,92.0
5010,D4,394.25,0.25,110,92.0
5011,D2,394.5,0.25,110,92.0
5012,F#2,394.5,0.25,85,92.0
5013,D4,394.75,0.5,110,92.0
5014,B1,394.75,0.25,120,92.0
5015,A1,395.0,0.25,110,92.0
5016,E-3,395.0,1.0,105,92.0
5017,E2,395.0,0.25,102,92.0
5018,F#2,395.0,0.25,102,92.0
5019,E4,395.25,79/500,110,92.0
5020,F4,395.292,177/250,110,92.0
5021,C2,395.5,0.25,110,92.0
5022,B1,395.5,0.25,102,92.0
5023,F#2,395.5,0.25,102,92.0
5024,D2,396.0,0.5,110,92.0
5025,E4,396.0,0.5,110,92.0
5026,F4,396.0,21/500,110,92.0
5027,E-3,396.0,1.0,105,92.0
5028,E5,396.0,4.0,120,92.0
5029,G5,396.0,4.0,120,92.0
5030,F#2,396.0,0.25,102,92.0
5031,B1,396.0,0.25,102,92.0
5032,A3,396.25,1.75,85,92.0
5033,C4,396.25,167/1000,91,92.0
5034,E4,396.25,167/1000,91,92.0
5035,G4,396.25,167/1000,91,92.0
5036,F4,396.5,0.25,110,92.0
5037,F#2,396.5,0.25,85,92.0
5038,A2,396.75,0.25,110,92.0
5039,E4,396.75,0.5,110,92.0
5040,E2,396.75,0.25,120,92.0
5041,D3,397.0,0.25,110,92.0
5042,F#2,397.0,0.25,85,92.0
5043,E-3,397.0,1.0,105,92.0
5044,C3,397.25,0.25,110,92.0
5045,D4,397.25,0.5,110,92.0
5046,E4,397.25,117/1000,88,92.0
5047,C4,397.25,117/1000,88,92.0
5048,G4,397.25,117/1000,88,92.0
5049,B4,397.25,117/1000,88,92.0
5050,F#2,397.5,0.25,85,92.0
5051,A2,397.75,0.25,110,92.0
5052,E4,397.75,0.5,110,92.0
5053,B1,397.75,0.25,120,92.0
5054,F#2,398.0,0.25,85,92.0
5055,E-3,398.0,1.0,105,92.0
5056,F2,398.25,0.25,110,92.0
5057,D4,398.25,0.25,110,92.0
5058,D2,398.5,0.25,110,92.0
5059,A3,398.5,0.75,110,92.0
5060,F#2,398.5,0.25,85,92.0
5061,D4,398.5,0.125,90,92.0
5062,B3,398.5,0.125,90,92.0
5063,F4,398.5,0.125,90,92.0
5064,A4,398.5,0.125,90,92.0
5065,E2,398.75,0.25,120,92.0
5066,B1,398.75,0.25,120,92.0
5067,A1,399.0,0.25,110,92.0
5068,F#2,399.0,0.25,85,92.0
5069,E-3,399.0,1.0,105,92.0
5070,D4,399.0,133/1000,91,92.0
5071,B3,399.0,133/1000,91,92.0
5072,E4,399.0,133/1000,91,92.0
5073,G4,399.0,133/1000,91,92.0
5074,C2,399.5,0.25,110,92.0
5075,B1,399.5,0.25,102,92.0
5076,F#2,399.5,0.25,102,92.0
5077,D4,399.75,133/1000,93,92.0
5078,B3,399.75,133/1000,93,92.0
5079,E4,399.75,133/1000,93,92.0
5080,A4,399.75,133/1000,93,92.0
5081,D2,400.0,0.5,110,92.0
5082,E-3,400.0,1.0,105,92.0
5083,F#2,400.0,0.25,102,92.0
5084,B1,400.0,0.25,102,92.0
5085,B3,400.25,0.25,110,92.0
5086,C4,400.5,0.25,110,92.0
5087,F#2,400.5,0.25,85,92.0
5088,D3,400.75,0.25,110,92.0
5089,A3,400.75,0.25,110,92.0
5090,E2,400.75,0.25,120,92.0
5091,A2,401.0,0.25,110,92.0
5092,B3,401.0,0.25,110,92.0
5093,F#2,401.0,0.25,85,92.0
5094,E-3,401.0,1.0,105,92.0
5095,C3,401.25,0.25,110,92.0
5096,C4,401.25,0.25,110,92.0
5097,F#2,401.5,0.25,85,92.0
5098,B3,401.5,0.5,96,92.0
5099,F4,401.5,0.5,96,92.0
5100,A4,401.5,0.5,96,92.0
5101,D4,401.5,0.5,96,92.0
5102,A2,401.75,0.25,110,92.0
5103,D4,401.75,0.25,110,92.0
5104,B1,401.75,0.25,120,92.0
5105,C3,402.0,0.25,110,92.0
5106,E2,402.0,0.25,102,92.0
5107,B-2,402.0,0.25,102,92.0
5108,D3,402.25,0.25,110,92.0
5109,E4,402.25,0.25,110,92.0
5110,D2,402.5,0.25,110,92.0
5111,E2,402.5,0.25,120,92.0
5112,F4,402.75,0.25,110,92.0
5113,B1,402.75,0.25,120,92.0
5114,D3,403.0,0.25,110,92.0
5115,C4,403.0,26/125,98,92.0
5116,F4,403.0,26/125,98,92.0
5117,A4,403.0,26/125,98,92.0
5118,E2,403.0,0.25,102,92.0
5119,B-2,403.0,0.25,102,92.0
5120,A2,403.25,0.25,110,92.0
5121,D4,403.25,0.25,110,92.0
5122,C3,403.25,0.25,120,92.0
5123,F4,403.25,7/40,82,92.0
5124,C4,403.25,7/40,82,92.0
5125,A4,403.25,7/40,82,92.0
5126,D2,403.5,0.5,110,92.0
5127,B1,403.5,0.25,120,92.0
5128,C4,403.75,1633/1000,59,92.0
5129,E4,403.75,2.25,88,92.0
5130,G4,403.75,2.25,88,92.0
5131,E-2,404.0,0.5,110,92.0
5132,D4,404.0,3/40,110,92.0
5133,C#3,404.0,1.0,105,92.0
5134,E5,404.0,4.0,120,92.0
5135,G5,404.0,4.0,120,92.0
5136,F#2,404.0,0.25,102,92.0
5137,B1,404.0,0.25,102,92.0
5138,E-4,404.042,0.25,110,92.0
5139,C4,404.25,0.25,110,92.0
5140,D4,404.5,0.25,110,92.0
5141,F#2,404.5,0.25,85,92.0
5142,E-3,404.75,1.0,110,92.0
5143,E-4,404.75,0.25,110,92.0
5144,B1,404.75,0.25,112,92.0
5145,G3,404.75,0.25,112,92.0
5146,F4,405.0,0.25,110,92.0
5147,F#2,405.0,0.25,102,92.0
5148,E2,405.0,0.25,102,92.0
5149,G4,405.25,0.25,110,92.0
5150,F#2,405.5,0.25,85,92.0
5151,A4,405.75,0.25,110,92.0
5152,B1,405.75,0.25,120,92.0
5153,E-2,406.0,0.25,110,92.0
5154,F#2,406.0,0.25,85,92.0
5155,E-3,406.0,1.0,105,92.0
5156,E4,406.0,0.75,88,92.0
5157,G4,406.0,0.75,88,92.0
5158,E-2,406.25,0.25,110,92.0
5159,F#4,406.25,0.25,110,92.0
5160,G4,406.5,0.25,110,92.0
5161,F#2,406.5,0.25,85,92.0
5162,E-2,406.75,1.0,110,92.0
5163,A4,406.75,0.25,110,92.0
5164,B1,406.75,0.25,120,92.0
5165,B-4,407.0,0.25,110,92.0
5166,E-3,407.0,1.0,105,92.0
5167,C4,407.0,183/1000,94,92.0
5168,E4,407.0,183/1000,94,92.0
5169,G4,407.0,183/1000,94,92.0
5170,E2,407.0,0.25,102,92.0
5171,F#2,407.0,0.25,102,92.0
5172,E4,407.25,0.125,89,92.0
5173,C4,407.25,0.125,89,92.0
5174,G4,407.25,0.125,89,92.0
5175,A4,407.5,0.25,110,92.0
5176,B1,407.5,0.25,102,92.0
5177,F#2,407.5,0.25,102,92.0
5178,E4,407.75,67/1000,93,92.0
5179,G4,407.75,67/1000,93,92.0
5180,C4,407.75,67/1000,93,92.0
5181,E-3,408.0,0.25,110,92.0
5182,C5,408.0,0.25,110,92.0
5183,E-3,408.0,1.0,105,92.0
5184,F#2,408.0,0.25,102,92.0
5185,B1,408.0,0.25,102,92.0
5186,C3,408.25,0.25,110,92.0
5187,B-4,408.5,0.25,110,92.0
5188,F#2,408.5,0.25,85,92.0
5189,E-2,408.75,1.5,110,92.0
5190,A4,408.75,0.25,110,92.0
5191,E-3,409.0,1.0,105,92.0
5192,C4,409.0,183/1000,94,92.0
5193,E4,409.0,183/1000,94,92.0
5194,G4,409.0,183/1000,94,92.0
5195,F#2,409.0,0.25,102,92.0
5196,E2,409.0,0.25,102,92.0
5197,B-4,409.25,0.25,110,92.0
5198,E4,409.25,0.125,89,92.0
5199,C4,409.25,0.125,89,92.0
5200,G4,409.25,0.125,89,92.0
5201,F#2,409.5,0.25,85,92.0
5202,C#5,409.75,3/40,110,92.0
5203,B1,409.75,0.25,120,92.0
5204,D4,409.75,83/1000,93,92.0
5205,F4,409.75,83/1000,93,92.0
5206,A4,409.75,83/1000,93,92.0
5207,D5,409.792,0.25,110,92.0
5208,E-3,410.0,2.0,110,92.0
5209,F#2,410.0,0.25,85,92.0
5210,E-3,410.0,1.0,105,92.0
5211,B-4,410.25,0.25,110,92.0
5212,F#2,410.5,0.25,85,92.0
5213,G4,410.75,0.25,110,92.0
5214,B1,410.75,0.25,120,92.0
5215,E-4,411.0,121/500,110,92.0
5216,E-3,411.0,1.0,105,92.0
5217,C4,411.0,26/125,98,92.0
5218,F4,411.0,26/125,98,92.0
5219,A4,411.0,26/125,98,92.0
5220,E2,411.0,0.25,102,92.0
5221,F#2,411.0,0.25,102,92.0
5222,F4,411.25,121/500,110,92.0
5223,E2,411.25,0.25,120,92.0
5224,F4,411.25,7/40,82,92.0
5225,C4,411.25,7/40,82,92.0
5226,A4,411.25,7/40,82,92.0
5227,E2,411.5,0.25,102,92.0
5228,F#2,411.5,0.25,102,92.0
5229,G4,411.508,121/500,110,92.0
5230,C4,411.75,1633/1000,59,92.0
5231,B-4,411.75,121/500,110,92.0
5232,B1,411.75,0.25,120,92.0
5233,E4,411.75,2.25,88,92.0
5234,G4,411.75,2.25,88,92.0
5235,D2,412.0,0.25,110,92.0
5236,A4,412.0,0.5,110,92.0
5237,E-4,412.0,4.0,120,92.0
5238,G4,412.0,4.0,120,92.0
5239,B-4,412.0,4.0,120,92.0
5240,D5,412.0,4.0,120,92.0
5241,B-2,412.0,0.25,102,92.0
5242,B1,412.0,0.25,102,92.0
5243,G4,412.5,0.25,110,92.0
5244,F#2,412.5,0.25,85,92.0
5245,D3,412.75,1.25,110,92.0
5246,F#4,412.75,0.25,110,92.0
5247,G3,412.75,0.25,120,92.0
5248,B1,412.75,0.25,120,92.0
5249,F#2,413.0,0.25,85,92.0
5250,E-4,413.25,0.25,110,92.0
5251,D4,413.5,33/40,110,92.0
5252,F#2,413.5,0.25,85,92.0
5253,B1,413.75,0.25,120,92.0
5254,D3,414.0,0.25,110,92.0
5255,F#2,414.0,0.25,85,92.0
5256,E-3,414.0,1.0,105,92.0
5257,E4,414.0,0.75,88,92.0
5258,G4,414.0,0.75,88,92.0
5259,C#3,414.25,0.25,110,92.0
5260,F#2,414.5,0.25,85,92.0
5261,A2,414.75,0.25,110,92.0
5262,B1,414.75,0.25,120,92.0
5263,E-3,415.0,1.0,105,92.0
5264,C4,415.0,183/1000,94,92.0
5265,E4,415.0,183/1000,94,92.0
5266,G4,415.0,183/1000,94,92.0
5267,E2,415.0,0.25,102,92.0
5268,F#2,415.0,0.25,102,92.0
5269,D2,415.25,0.25,110,92.0
5270,E4,415.25,0.125,89,92.0
5271,C4,415.25,0.125,89,92.0
5272,G4,415.25,0.125,89,92.0
5273,F#2,415.5,0.25,110,92.0
5274,B1,415.5,0.25,102,92.0
5275,F#2,415.5,0.25,102,92.0
5276,E4,415.75,67/1000,93,92.0
5277,G4,415.75,67/1000,93,92.0
5278,C4,415.75,67/1000,93,92.0
5279,C4,415.758,121/500,110,92.0
5280,D2,416.0,0.5,110,92.0
5281,D4,416.0,0.25,110,92.0
5282,E-3,416.0,1.0,105,92.0
5283,F#2,416.0,0.25,102,92.0
5284,B1,416.0,0.25,102,92.0
5285,A3,416.25,0.25,110,92.0
5286,C4,416.25,1/10,90,92.0
5287,E4,416.25,1/10,90,92.0
5288,G4,416.25,1/10,90,92.0
5289,F#2,416.5,0.25,85,92.0
5290,D2,416.75,0.25,110,92.0
5291,A3,416.75,0.25,110,92.0
5292,A3,417.0,983/1000,94,92.0
5293,E4,417.0,27/250,101,92.0
5294,E2,417.0,0.25,110,92.0
5295,E-3,417.0,1.0,105,92.0
5296,G4,417.0,217/1000,96,92.0
5297,C4,417.0,217/1000,96,92.0
5298,F#2,417.0,0.25,102,92.0
5299,E2,417.0,0.25,102,92.0
5300,E2,417.25,0.25,110,92.0
5301,C4,417.25,0.25,110,92.0
5302,C4,417.5,483/1000,72,92.0
5303,F#2,417.5,0.25,85,92.0
5304,C4,417.5,2/5,89,92.0
5305,A4,417.5,2/5,89,92.0
5306,F4,417.5,2/5,89,92.0
5307,E2,417.75,0.25,110,92.0
5308,D4,417.75,0.25,110,92.0
5309,B1,417.75,0.25,120,92.0
5310,B-4,418.0,1421/500,107,92.0
5311,D5,418.0,117/40,107,92.0
5312,F#2,418.0,0.25,110,92.0
5313,F#2,418.0,0.25,85,92.0
5314,E-3,418.0,1.0,105,92.0
5315,G4,418.0,823/250,107,92.0
5316,E-3,418.0,823/250,107,92.0
5317,B-3,418.25,2283/1000,80,92.0
5318,F#2,418.25,0.25,110,92.0
5319,F#4,418.25,0.75,110,92.0
5320,E-4,418.5,12/5,114,92.0
5321,F#2,418.5,0.25,85,92.0
5322,F4,418.75,1079/500,101,92.0
5323,F#2,418.75,0.25,110,92.0
5324,B1,418.75,0.25,120,92.0
5325,D5,418.75,1271/500,100,92.0
5326,B-4,418.75,1271/500,100,92.0
5327,A2,419.0,0.5,110,92.0
5328,E-3,419.0,1.0,105,92.0
5329,E2,419.0,0.25,102,92.0
5330,F#2,419.0,0.25,102,92.0
5331,E2,419.25,0.25,120,92.0
5332,D2,419.5,0.5,110,92.0
5333,B1,419.5,0.25,102,92.0
5334,F#2,419.5,0.25,102,92.0
5335,F#4,419.75,0.25,110,92.0
5336,E-2,420.0,0.5,110,92.0
5337,G4,420.0,0.25,110,92.0
5338,E-3,420.0,1.0,105,92.0
5339,E-4,420.0,4.0,120,92.0
5340,G4,420.0,4.0,120,92.0
5341,B-4,420.0,4.0,120,92.0
5342,D5,420.0,4.0,120,92.0
5343,F#2,420.0,0.25,102,92.0
5344,B1,420.0,0.25,102,92.0
5345,D4,420.25,0.25,110,92.0
5346,E-4,420.5,0.25,110,92.0
5347,F#2,420.5,0.25,85,92.0
5348,B-3,420.75,271/500,101,92.0
5349,E-3,420.75,1.0,110,92.0
5350,F4,420.75,0.25,110,92.0
5351,G3,420.75,0.25,120,92.0
5352,E2,420.75,0.25,120,92.0
5353,G4,421.0,0.25,110,92.0
5354,F#2,421.0,0.25,85,92.0
5355,E-3,421.0,1.0,105,92.0
5356,D5,421.0,73/250,92,92.0
5357,F4,421.0,73/250,92,92.0
5358,E-4,421.0,73/250,92,92.0
5359,B-4,421.0,73/250,92,92.0
5360,A4,421.25,0.5,110,92.0
5361,E-3,421.5,0.5,94,92.0
5362,E-4,421.5,0.5,91,92.0
5363,E-5,421.5,0.5,106,92.0
5364,G4,421.5,0.5,106,92.0
5365,B1,421.5,0.25,102,92.0
5366,F#2,421.5,0.25,102,92.0
5367,B-4,421.75,0.5,110,92.0
5368,B1,421.75,0.25,120,92.0
5369,E-3,422.0,1829/500,94,92.0
5370,E-4,422.0,223/250,91,92.0
5371,E-3,422.0,0.25,110,92.0
5372,F#2,422.0,0.25,85,92.0
5373,E-3,422.0,1.0,105,92.0
5374,E-5,422.0,1333/1000,106,92.0
5375,G4,422.0,1333/1000,106,92.0
5376,C3,422.25,0.25,110,92.0
5377,A4,422.25,0.5,110,92.0
5378,F#2,422.5,0.25,85,92.0
5379,B-2,422.75,0.25,110,92.0
5380,C5,422.75,0.5,110,92.0
5381,B1,422.75,0.25,120,92.0
5382,E-3,423.0,1.0,105,92.0
5383,E2,423.0,0.25,102,92.0
5384,F#2,423.0,0.25,102,92.0
5385,E-2,423.25,0.25,110,92.0
5386,B-4,423.25,0.5,110,92.0
5387,F#2,423.5,0.25,110,92.0
5388,B1,423.5,0.25,102,92.0
5389,F#2,423.5,0.25,102,92.0
5390,A4,423.75,0.25,110,92.0
5391,E-2,424.0,0.25,110,92.0
5392,A4,424.0,0.25,110,92.0
5393,E-3,424.0,1.0,105,92.0
5394,D4,424.0,4.0,120,92.0
5395,C#5,424.0,4.0,120,92.0
5396,F#4,424.0,4.0,120,92.0
5397,A4,424.0,4.0,120,92.0
5398,F#2,424.0,0.25,102,92.0
5399,B1,424.0,0.25,102,92.0
5400,C3,424.25,0.25,110,92.0
5401,B-4,424.25,0.5,110,92.0
5402,F3,424.5,0.25,110,92.0
5403,F#2,424.5,0.25,85,92.0
5404,E-3,424.75,1.5,110,92.0
5405,D5,424.75,0.5,110,92.0
5406,E-3,425.0,1.0,105,92.0
5407,F#2,425.0,0.25,102,92.0
5408,E2,425.0,0.25,102,92.0
5409,B-4,425.25,0.5,110,92.0
5410,F#2,425.5,0.25,85,92.0
5411,G4,425.75,0.5,110,92.0
5412,B1,425.75,0.25,120,92.0
5413,D3,426.0,823/250,107,92.0
5414,E-2,426.0,1.25,110,92.0
5415,F#2,426.0,0.25,85,92.0
5416,E-3,426.0,1.0,105,92.0
5417,A3,426.0,87/40,94,92.0
5418,D4,426.0,87/40,94,92.0
5419,A4,426.0,87/40,94,92.0
5420,A3,426.25,2283/1000,80,92.0
5421,D4,426.5,12/5,114,92.0
5422,B1,426.5,0.25,102,92.0
5423,F#2,426.5,0.25,102,92.0
5424,A4,426.75,523/250,107,92.0
5425,B1,426.75,0.25,120,92.0
5426,C#5,426.75,1079/500,98,92.0
5427,E4,426.75,1079/500,98,92.0
5428,C#5,427.0,0.25,110,92.0
5429,E-3,427.0,1.0,105,92.0
5430,E2,427.0,0.25,102,92.0
5431,F#2,427.0,0.25,102,92.0
5432,D5,427.25,0.25,110,92.0
5433,G2,427.5,0.25,110,92.0
5434,C#5,427.5,0.25,110,92.0
5435,B1,427.5,0.25,102,92.0
5436,F#2,427.5,0.25,102,92.0
5437,F2,427.75,0.25,110,92.0
5438,B-4,427.75,0.25,110,92.0
5439,D2,428.0,0.25,110,92.0
5440,A4,428.0,0.5,110,92.0
5441,E-3,428.0,1.0,105,92.0
5442,F#2,428.0,0.25,102,92.0
5443,B1,428.0,0.25,102,92.0
5444,G4,428.5,0.25,110,92.0
5445,F#2,428.5,0.25,85,92.0
5446,A3,428.75,271/500,101,92.0
5447,D3,428.75,1.25,110,92.0
5448,F#4,428.75,0.5,110,92.0
5449,G3,428.75,0.25,120,92.0
5450,B1,428.75,0.25,120,92.0
5451,F#2,429.0,0.25,85,92.0
5452,C#5,429.0,73/250,92,92.0
5453,E4,429.0,73/250,92,92.0
5454,D4,429.0,73/250,92,92.0
5455,A4,429.0,73/250,92,92.0
5456,E-4,429.25,0.25,110,92.0
5457,D3,429.5,0.5,94,92.0
5458,D4,429.5,0.5,91,92.0
5459,D4,429.5,1.5,110,92.0
5460,F#2,429.5,0.25,85,92.0
5461,D5,429.5,0.5,106,92.0
5462,F#4,429.5,0.5,106,92.0
5463,B1,429.75,0.25,120,92.0
5464,D3,430.0,1829/500,94,92.0
5465,D4,430.0,223/250,91,92.0
5466,D3,430.0,0.25,110,92.0
5467,F#2,430.0,0.25,85,92.0
5468,E-3,430.0,1.0,105,92.0
5469,D5,430.0,1333/1000,106,92.0
5470,F#4,430.0,1333/1000,106,92.0
5471,C#3,430.25,0.25,110,92.0
5472,F#2,430.5,0.25,85,92.0
5473,A3,430.75,29/10,104,92.0
5474,A2,430.75,0.25,110,92.0
5475,B1,430.75,0.25,120,92.0
5476,E-3,431.0,1.0,105,92.0
5477,E2,431.0,0.25,102,92.0
5478,F#2,431.0,0.25,102,92.0
5479,D4,431.25,1417/1000,114,92.0
5480,D2,431.25,0.25,110,92.0
5481,E-4,431.25,0.25,110,92.0
5482,F#2,431.5,0.25,110,92.0
5483,F#4,431.5,0.25,110,92.0
5484,B1,431.5,0.25,102,92.0
5485,F#2,431.5,0.25,102,92.0
5486,G4,431.75,0.25,110,92.0
5487,D2,432.0,0.5,110,92.0
5488,F#4,432.0,0.5,110,92.0
5489,E-3,432.0,1.0,105,92.0
5490,D4,432.0,4.0,120,92.0
5491,C#5,432.0,4.0,120,92.0
5492,F#4,432.0,4.0,120,92.0
5493,A4,432.0,4.0,120,92.0
5494,F#2,432.0,0.25,102,92.0
5495,B1,432.0,0.25,102,92.0
5496,E-4,432.5,0.25,110,92.0
5497,F#2,432.5,0.25,85,92.0
5498,D2,432.75,0.25,110,92.0
5499,D4,432.75,0.5,110,92.0
5500,A4,433.0,0.25,75,92.0
5501,E2,433.0,0.25,110,92.0
5502,E-3,433.0,1.0,105,92.0
5503,F#2,433.0,0.25,102,92.0
5504,E2,433.0,0.25,102,92.0
5505,B-4,433.25,0.25,75,92.0
5506,E2,433.25,0.25,110,92.0
5507,C4,433.25,0.25,110,92.0
5508,A4,433.5,0.25,75,92.0
5509,D4,433.5,0.75,110,92.0
5510,F#2,433.5,0.25,85,92.0
5511,F4,433.75,0.25,75,92.0
5512,E2,433.75,0.25,110,92.0
5513,B1,433.75,0.25,120,92.0
5514,G4,434.0,0.25,75,92.0
5515,F#2,434.0,0.25,110,92.0
5516,B-2,434.0,0.25,85,92.0
5517,E-3,434.0,1.0,105,92.0
5518,E-3,434.033,3.5,94,92.0
5519,F#2,434.25,0.25,110,92.0
5520,A3,434.25,1.25,110,92.0
5521,E2,434.25,0.25,120,92.0
5522,B-3,434.283,3717/1000,97,92.0
5523,G3,434.5,0.25,85,92.0
5524,F#2,434.75,0.25,110,92.0
5525,B1,434.75,0.25,120,92.0
5526,B-4,434.75,3.25,106,92.0
5527,E-4,434.75,3.25,106,92.0
5528,G4,434.75,3.25,106,92.0
5529,D5,434.75,3.25,106,92.0
5530,E-5,434.792,2.25,127,92.0
5531,A2,435.0,0.5,110,92.0
5532,E2,435.0,0.25,120,92.0
5533,C3,435.25,0.25,120,92.0
5534,D2,435.5,0.5,110,92.0
5535,C3,435.5,0.25,120,92.0
5536,G3,435.75,0.25,85,92.0
5537,D2,436.0,0.5,110,92.0
5538,C#3,436.0,1.0,105,92.0
5539,E-4,436.0,4.0,120,92.0
5540,D5,436.0,4.0,120,92.0
5541,G4,436.0,4.0,120,92.0
5542,B-4,436.0,4.0,120,92.0
5543,F#2,436.0,0.25,102,92.0
5544,B1,436.0,0.25,102,92.0
5545,F#2,436.5,0.25,85,92.0
5546,A2,436.75,0.25,110,92.0
5547,D3,437.0,0.25,110,92.0
5548,E-3,437.0,1.0,105,92.0
5549,F#2,437.0,0.25,102,92.0
5550,E2,437.0,0.25,102,92.0
5551,C3,437.25,0.25,110,92.0
5552,F#2,437.5,0.25,85,92.0
5553,A2,437.75,0.25,110,92.0
5554,B1,437.75,0.25,120,92.0
5555,B-3,438.0,1/40,97,92.0
5556,F#2,438.0,0.25,85,92.0
5557,E-3,438.0,1.0,105,92.0
5558,D4,438.0,4.0,110,92.0
5559,G4,438.0,4.0,110,92.0
5560,B-4,438.0,4.0,110,92.0
5561,E-5,438.0,4.0,110,92.0
5562,B-5,438.0,4.0,110,92.0
5563,F2,438.25,0.25,110,92.0
5564,C#4,438.25,0.25,100,92.0
5565,D2,438.5,0.25,110,92.0
5566,E4,438.5,0.25,100,92.0
5567,F#2,438.5,0.25,85,92.0
5568,C#4,438.75,0.25,100,92.0
5569,B1,438.75,0.25,120,92.0
5570,A1,439.0,0.25,110,92.0
5571,D4,439.0,0.25,100,92.0
5572,E-3,439.0,1.0,105,92.0
5573,E2,439.0,0.25,102,92.0
5574,F#2,439.0,0.25,102,92.0
5575,E4,439.25,0.25,100,92.0
5576,C2,439.5,0.25,110,92.0
5577,F4,439.5,0.25,100,92.0
5578,B1,439.5,0.25,102,92.0
5579,F#2,439.5,0.25,102,92.0
5580,G4,439.75,0.25,100,92.0
5581,D2,440.0,0.5,110,92.0
5582,G#4,440.0,3/40,100,92.0
5583,E-3,440.0,1.0,105,92.0
5584,B-3,440.0,2.0,94,92.0
5585,E-4,440.0,2.0,94,92.0
5586,F4,440.0,2.0,94,92.0
5587,B-4,440.0,2.0,94,92.0
5588,D5,440.0,2.0,94,92.0
5589,F#2,440.0,0.25,102,92.0
5590,B1,440.0,0.25,102,92.0
5591,A4,440.042,51/125,100,92.0
5592,C5,440.5,79/500,100,92.0
5593,F#2,440.5,0.25,85,92.0
5594,A2,440.75,0.25,110,92.0
5595,C5,440.75,0.5,100,92.0
5596,D3,441.0,0.25,110,92.0
5597,E-3,441.0,1.0,105,92.0
5598,F#2,441.0,0.25,102,92.0
5599,E2,441.0,0.25,102,92.0
5600,C3,441.25,0.25,110,92.0
5601,A4,441.25,0.25,100,92.0
5602,F#2,441.5,0.25,85,92.0
5603,A2,441.75,0.25,110,92.0
5604,C#5,441.75,3/40,100,92.0
5605,B1,441.75,0.25,120,92.0
5606,D5,441.792,0.5,100,92.0
5607,D3,442.0,823/250,107,92.0
5608,F#2,442.0,0.25,85,92.0
5609,E-3,442.0,1.0,105,92.0
5610,A3,442.25,2283/1000,80,92.0
5611,F2,442.25,0.25,110,92.0
5612,C5,442.25,0.25,100,92.0
5613,D4,442.5,12/5,114,92.0
5614,D2,442.5,0.25,110,92.0
5615,F#2,442.5,0.25,85,92.0
5616,A4,442.75,523/250,107,92.0
5617,B1,442.75,0.25,120,92.0
5618,C#5,442.75,1079/500,98,92.0
5619,E4,442.75,1079/500,98,92.0
5620,A1,443.0,0.25,110,92.0
5621,E-3,443.0,1.0,105,92.0
5622,E2,443.0,0.25,102,92.0
5623,F#2,443.0,0.25,102,92.0
5624,G4,443.25,3/40,100,92.0
5625,G#4,443.292,121/500,100,92.0
5626,C2,443.5,0.25,110,92.0
5627,G4,443.5,0.25,100,92.0
5628,B1,443.5,0.25,102,92.0
5629,F#2,443.5,0.25,102,92.0
5630,F4,443.75,0.25,100,92.0
5631,D2,444.0,0.5,110,92.0
5632,G4,444.0,0.5,100,92.0
5633,E-3,444.0,1.0,105,92.0
5634,E-4,444.0,4.0,120,92.0
5635,D5,444.0,4.0,120,92.0
5636,G4,444.0,4.0,120,92.0
5637,B-4,444.0,4.0,120,92.0
5638,F#2,444.0,0.25,102,92.0
5639,B1,444.0,0.25,102,92.0
5640,F4,444.5,0.25,100,92.0
5641,F#2,444.5,0.25,85,92.0
5642,A3,444.75,271/500,101,92.0
5643,A2,444.75,0.25,110,92.0
5644,G4,444.75,0.5,100,92.0
5645,D3,445.0,0.25,110,92.0
5646,E-3,445.0,1.0,105,92.0
5647,C#5,445.0,73/250,92,92.0
5648,E4,445.0,73/250,92,92.0
5649,D4,445.0,73/250,92,92.0
5650,A4,445.0,73/250,92,92.0
5651,F#2,445.0,0.25,102,92.0
5652,E2,445.0,0.25,102,92.0
5653,C3,445.25,0.25,110,92.0
5654,F4,445.25,0.25,100,92.0
5655,D3,445.5,0.5,94,92.0
5656,D4,445.5,0.5,91,92.0
5657,F#2,445.5,0.25,85,92.0
5658,D5,445.5,0.5,106,92.0
5659,F#4,445.5,0.5,106,92.0
5660,A2,445.75,0.25,110,92.0
5661,G#4,445.75,3/40,100,92.0
5662,B1,445.75,0.25,120,92.0
5663,A4,445.792,0.5,100,92.0
5664,D3,446.0,1829/500,94,92.0
5665,D4,446.0,223/250,91,92.0
5666,F#2,446.0,0.25,85,92.0
5667,E-3,446.0,1.0,105,92.0
5668,D5,446.0,1333/1000,106,92.0
5669,F#4,446.0,1333/1000,106,92.0
5670,E4,446.033,1771/500,94,92.0
5671,D3,446.042,3933/1000,91,92.0
5672,C#4,446.05,221/500,83,92.0
5673,F2,446.25,0.25,110,92.0
5674,F4,446.25,0.25,100,92.0
5675,E2,446.25,0.25,120,92.0
5676,A3,446.325,101/125,97,92.0
5677,D2,446.5,0.25,110,92.0
5678,D4,446.5,33/40,100,92.0
5679,F#2,446.5,0.25,85,92.0
5680,C#4,446.567,47/20,94,92.0
5681,B1,446.75,0.25,120,92.0
5682,A4,446.792,127/40,114,92.0
5683,A1,447.0,0.25,110,92.0
5684,E-3,447.0,1.0,105,92.0
5685,E2,447.0,0.25,102,92.0
5686,F#2,447.0,0.25,102,92.0
5687,A3,447.267,176/125,110,92.0
5688,C2,447.5,0.25,110,92.0
5689,D4,447.5,0.25,100,92.0
5690,B1,447.5,0.25,102,92.0
5691,F#2,447.5,0.25,102,92.0
5692,F4,447.75,0.25,100,92.0
5693,D2,448.0,0.5,110,92.0
5694,E4,448.0,0.5,100,92.0
5695,E-3,448.0,1.0,105,92.0
5696,C#5,448.0,4.0,120,92.0
5697,D4,448.0,4.0,120,92.0
5698,F#4,448.0,4.0,120,92.0
5699,A4,448.0,4.0,120,92.0
5700,F#2,448.0,0.25,102,92.0
5701,B1,448.0,0.25,102,92.0
5702,D4,448.5,0.25,100,92.0
5703,F#2,448.5,0.25,85,92.0
5704,A2,448.75,0.25,110,92.0
5705,E4,448.75,0.5,100,92.0
5706,D3,449.0,0.25,110,92.0
5707,E-3,449.0,1.0,105,92.0
5708,F#2,449.0,0.25,102,92.0
5709,E2,449.0,0.25,102,92.0
5710,C3,449.25,0.25,110,92.0
5711,D4,449.25,0.5,100,92.0
5712,F#2,449.5,0.25,85,92.0
5713,E3,449.75,0.25,110,92.0
5714,A3,449.75,1.5,100,92.0
5715,B1,449.75,0.25,120,92.0
5716,D3,450.0,4.0,101,92.0
5717,C4,450.0,4.0,86,92.0
5718,F#2,450.0,0.25,85,92.0
5719,E-3,450.0,1.0,105,92.0
5720,F4,450.0,4.0,96,92.0
5721,A4,450.0,4.0,96,92.0
5722,D3,450.25,0.25,110,92.0
5723,E2,450.25,0.25,120,92.0
5724,C3,450.5,0.25,110,92.0
5725,F#2,450.5,0.25,85,92.0
5726,B1,450.75,0.25,120,92.0
5727,A1,451.0,0.25,110,92.0
5728,E-3,451.0,1.0,105,92.0
5729,E2,451.0,0.25,102,92.0
5730,F#2,451.0,0.25,102,92.0
5731,C2,451.5,0.25,110,92.0
5732,B1,451.5,0.25,102,92.0
5733,F#2,451.5,0.25,102,92.0
5734,D2,452.0,0.5,110,92.0
5735,C#3,452.0,1.0,105,92.0
5736,F#2,452.0,0.25,102,92.0
5737,B1,452.0,0.25,102,92.0
5738,F#2,452.5,0.25,85,92.0
5739,A2,452.75,0.25,110,92.0
5740,E2,452.75,0.25,120,92.0
5741,D3,453.0,0.25,110,92.0
5742,F#2,453.0,0.25,85,92.0
5743,E-3,453.0,1.0,105,92.0
5744,C3,453.25,0.25,110,92.0
5745,F#2,453.5,0.25,85,92.0
5746,A2,453.75,0.25,110,92.0
5747,B1,453.75,0.25,120,92.0
5748,F#2,454.0,0.25,85,92.0
5749,E-3,454.0,1.0,105,92.0
5750,F2,454.25,0.25,110,92.0
5751,D2,454.5,0.25,110,92.0
5752,F#2,454.5,0.25,85,92.0
5753,B1,454.75,0.25,120,92.0
5754,A1,455.0,0.25,110,92.0
5755,E-3,455.0,1.0,105,92.0
5756,E2,455.0,0.25,102,92.0
5757,F#2,455.0,0.25,102,92.0
5758,C2,455.5,0.25,110,92.0
5759,B1,455.5,0.25,102,92.0
5760,F#2,455.5,0.25,102,92.0
5761,D2,456.0,0.5,110,92.0
5762,E-3,456.0,1.0,105,92.0
5763,C#5,456.0,4.0,120,92.0
5764,D4,456.0,4.0,120,92.0
5765,F#4,456.0,4.0,120,92.0
5766,A4,456.0,4.0,120,92.0
5767,F#2,456.0,0.25,102,92.0
5768,B1,456.0,0.25,102,92.0
5769,F#2,456.5,0.25,85,92.0
5770,A2,456.75,0.25,110,92.0
5771,D3,457.0,147/40,101,92.0
5772,C4,457.0,3583/1000,86,92.0
5773,D3,457.0,0.25,110,92.0
5774,F#2,457.0,0.25,85,92.0
5775,E-3,457.0,1.0,105,92.0
5776,F4,457.0,3.0,96,92.0
5777,A4,457.0,3.0,96,92.0
5778,C3,457.25,0.25,110,92.0
5779,E2,457.25,0.25,120,92.0
5780,F#2,457.5,0.25,85,92.0
5781,A2,457.75,0.25,110,92.0
5782,B1,457.75,0.25,120,92.0
5783,F#2,458.0,0.25,85,92.0
5784,E-3,458.0,1.0,105,92.0
5785,F2,458.25,0.25,110,92.0
5786,D2,458.5,0.25,110,92.0
5787,F#2,458.5,0.25,85,92.0
5788,B1,458.75,0.25,120,92.0
5789,A1,459.0,0.25,110,92.0
5790,E-3,459.0,1.0,105,92.0
5791,E2,459.0,0.25,102,92.0
5792,F#2,459.0,0.25,102,92.0
5793,C2,459.5,0.25,110,92.0
5794,B1,459.5,0.25,102,92.0
5795,F#2,459.5,0.25,102,92.0
5796,D3,459.75,49/40,121,92.0
5797,A3,460.0,39/40,127,92.0
5798,D2,460.0,0.5,110,92.0
5799,E-3,460.0,1.0,105,92.0
5800,F#2,460.0,0.25,102,92.0
5801,B1,460.0,0.25,102,92.0
5802,C4,460.25,29/40,116,92.0
5803,F4,460.5,19/40,80,92.0
5804,F#2,460.5,0.25,85,92.0
5805,A4,460.75,9/40,97,92.0
5806,A2,460.75,0.25,110,92.0
5807,D3,461.0,0.25,110,92.0
5808,E-3,461.0,1.0,105,92.0
5809,F#2,461.0,0.25,102,92.0
5810,E2,461.0,0.25,102,92.0
5811,C3,461.25,0.25,110,92.0
5812,E2,461.25,0.25,120,92.0
5813,F#2,461.5,0.25,85,92.0
5814,A2,461.75,0.25,110,92.0
5815,B1,461.75,0.25,120,92.0
5816,F#2,462.0,0.25,85,92.0
5817,E-3,462.0,1.0,105,92.0
5818,C4,462.0,26/125,98,92.0
5819,F4,462.0,26/125,98,92.0
5820,A4,462.0,26/125,98,92.0
5821,F2,462.25,0.25,110,92.0
5822,F4,462.25,7/40,82,92.0
5823,C4,462.25,7/40,82,92.0
5824,A4,462.25,7/40,82,92.0
5825,D2,462.5,0.25,110,92.0
5826,F#2,462.5,0.25,85,92.0
5827,C4,462.75,1633/1000,59,92.0
5828,B1,462.75,0.25,120,92.0
5829,E4,462.75,2.25,88,92.0
5830,G4,462.75,2.25,88,92.0
5831,A1,463.0,0.25,110,92.0
5832,E-3,463.0,1.0,105,92.0
5833,E2,463.0,0.25,102,92.0
5834,F#2,463.0,0.25,102,92.0
5835,C2,463.5,0.25,110,92.0
5836,B1,463.5,0.25,102,92.0
5837,F#2,463.5,0.25,102,92.0
5838,D2,464.0,0.5,110,92.0
5839,E-3,464.0,1.0,105,92.0
5840,F#2,464.0,0.25,102,92.0
5841,B1,464.0,0.25,102,92.0
5842,F#2,464.5,0.25,85,92.0
5843,F2,464.75,0.625,110,92.0
5844,E-3,465.0,1.0,105,92.0
5845,E4,465.0,0.75,88,92.0
5846,G4,465.0,0.75,88,92.0
5847,F#2,465.0,0.25,102,92.0
5848,E2,465.0,0.25,102,92.0
5849,A2,465.5,0.5,110,92.0
5850,F#2,465.5,0.25,85,92.0
5851,B1,465.75,0.25,120,92.0
5852,B-2,466.0,0.25,85,92.0
5853,E-3,466.0,1.0,105,92.0
5854,C4,466.0,183/1000,94,92.0
5855,E4,466.0,183/1000,94,92.0
5856,G4,466.0,183/1000,94,92.0
5857,C3,466.25,0.75,110,92.0
5858,E2,466.25,0.25,120,92.0
5859,G3,466.5,0.25,120,92.0
5860,E4,466.5,71/500,89,92.0
5861,G4,466.5,71/500,89,92.0
5862,C4,466.5,71/500,89,92.0
5863,D3,466.75,0.5,110,92.0
5864,B1,466.75,0.25,120,92.0
5865,E4,466.75,67/1000,93,92.0
5866,G4,466.75,67/1000,93,92.0
5867,C4,466.75,67/1000,93,92.0
5868,E2,467.0,0.25,120,92.0
5869,C3,467.25,0.25,120,92.0
5870,C4,467.25,1/10,90,92.0
5871,E4,467.25,1/10,90,92.0
5872,G4,467.25,1/10,90,92.0
5873,C3,467.5,0.5,110,92.0
5874,B1,467.5,0.25,120,92.0
5875,G3,467.75,0.25,120,92.0
5876,E4,468.0,27/250,101,92.0
5877,E-2,468.0,0.5,110,92.0
5878,C#3,468.0,1.0,105,92.0
5879,G4,468.0,217/1000,96,92.0
5880,C4,468.0,217/1000,96,92.0
5881,F#2,468.0,0.25,102,92.0
5882,B1,468.0,0.25,102,92.0
5883,F#2,468.5,0.25,85,92.0
5884,C4,468.5,2/5,87,92.0
5885,E4,468.5,2/5,87,92.0
5886,G4,468.5,2/5,87,92.0
5887,E-3,468.75,1.0,110,92.0
5888,G3,468.75,0.25,120,92.0
5889,B1,468.75,0.25,120,92.0
5890,F#2,469.0,0.25,85,92.0
5891,E-3,469.0,1.0,105,92.0
5892,E4,469.25,24/125,101,92.0
5893,B-3,469.25,0.25,100,92.0
5894,E2,469.25,0.25,120,92.0
5895,E-4,469.5,0.25,100,92.0
5896,F#2,469.5,0.25,85,92.0
5897,D4,469.525,3/20,101,92.0
5898,C4,469.75,0.25,91,92.0
5899,F4,469.75,0.25,100,92.0
5900,B1,469.75,0.25,120,92.0
5901,A3,470.0,0.25,101,92.0
5902,E-2,470.0,0.25,110,92.0
5903,F4,470.0,0.25,100,92.0
5904,F#2,470.0,0.25,85,92.0
5905,E-3,470.0,1.0,105,92.0
5906,D4,470.25,0.25,101,92.0
5907,E-2,470.25,0.25,110,92.0
5908,G4,470.25,0.25,100,92.0
5909,G4,470.5,127/250,101,92.0
5910,E-4,470.5,0.25,100,92.0
5911,F#2,470.5,0.25,85,92.0
5912,E4,470.75,0.25,101,92.0
5913,E-2,470.75,1.0,110,92.0
5914,F4,470.75,0.25,100,92.0
5915,E2,470.75,0.25,120,92.0
5916,C4,471.0,0.25,101,92.0
5917,B-3,471.0,0.25,100,92.0
5918,E-3,471.0,1.0,105,92.0
5919,E2,471.0,0.25,102,92.0
5920,F#2,471.0,0.25,102,92.0
5921,A3,471.25,3/20,101,92.0
5922,E-4,471.5,0.25,100,92.0
5923,A3,471.5,83/1000,91,92.0
5924,C4,471.5,83/1000,91,92.0
5925,B1,471.5,0.25,102,92.0
5926,F#2,471.5,0.25,102,92.0
5927,F4,471.75,0.125,101,92.0
5928,D4,471.75,0.25,100,92.0
5929,G4,472.0,133/1000,101,92.0
5930,E-3,472.0,0.25,110,92.0
5931,E-4,472.0,0.5,100,92.0
5932,E-3,472.0,1.0,105,92.0
5933,F#2,472.0,0.25,102,92.0
5934,B1,472.0,0.25,102,92.0
5935,C5,472.25,79/500,101,92.0
5936,C3,472.25,0.25,110,92.0
5937,F4,472.5,0.25,100,92.0
5938,F#2,472.5,0.25,85,92.0
5939,E-2,472.75,1.5,110,92.0
5940,G4,472.75,0.5,100,92.0
5941,G4,472.758,121/500,101,92.0
5942,C5,473.0,79/500,101,92.0
5943,G4,473.0,1/125,101,92.0
5944,E-3,473.0,1.0,105,92.0
5945,E4,473.0,0.25,88,92.0
5946,C4,473.0,0.25,88,92.0
5947,A3,473.0,0.25,88,92.0
5948,F#2,473.0,0.25,102,92.0
5949,E2,473.0,0.25,102,92.0
5950,D5,473.25,79/500,101,92.0
5951,G#4,473.25,0.25,100,92.0
5952,F#2,473.5,0.25,85,92.0
5953,A4,473.75,79/500,101,92.0
5954,B-4,473.75,1.25,100,92.0
5955,B1,473.75,0.25,120,92.0
5956,A3,473.75,0.25,88,92.0
5957,C4,473.75,0.25,88,92.0
5958,E4,473.75,0.25,88,92.0
5959,E-3,474.0,2.0,110,92.0
5960,F#2,474.0,0.25,85,92.0
5961,E-3,474.0,1.0,105,92.0
5962,E5,474.25,0.25,101,92.0
5963,D5,474.5,0.25,91,92.0
5964,F#2,474.5,0.25,85,92.0
5965,C5,474.75,0.25,87,92.0
5966,B1,474.75,0.25,120,92.0
5967,G4,475.0,0.25,90,92.0
5968,E-3,475.0,1.0,105,92.0
5969,E2,475.0,0.25,102,92.0
5970,F#2,475.0,0.25,102,92.0
5971,C5,475.25,0.25,87,92.0
5972,B-4,475.25,0.25,100,92.0
5973,E2,475.25,0.25,120,92.0
5974,D5,475.5,0.25,101,92.0
5975,C5,475.5,0.25,100,92.0
5976,B1,475.5,0.25,102,92.0
5977,F#2,475.5,0.25,102,92.0
5978,D5,475.75,0.25,100,92.0
5979,F4,475.775,267/1000,101,92.0
5980,D2,476.0,0.25,110,92.0
5981,E5,476.0,0.5,100,92.0
5982,B-2,476.0,1.0,105,92.0
5983,B1,476.0,0.25,120,92.0
5984,A3,476.0,1.0,91,92.0
5985,C4,476.0,1.0,91,92.0
5986,E4,476.0,1.0,91,92.0
5987,F4,476.25,0.25,101,92.0
5988,G4,476.5,221/500,101,92.0
5989,D5,476.5,0.25,100,92.0
5990,F#2,476.5,0.25,85,92.0
5991,D3,476.75,1.25,110,92.0
5992,C#5,476.75,0.5,100,92.0
5993,C#3,476.75,0.25,120,92.0
5994,B1,476.75,0.25,120,92.0
5995,D4,477.0,0.5,91,92.0
5996,F#2,477.0,0.25,85,92.0
5997,G3,477.0,4.0,91,92.0
5998,A3,477.0,4.0,91,92.0
5999,D4,477.25,1.25,91,92.0
6000,D5,477.25,0.5,100,92.0
6001,F4,477.5,0.25,93,92.0
6002,F#2,477.5,0.25,85,92.0
6003,F#4,477.75,0.25,96,92.0
6004,E5,477.75,0.25,100,92.0
6005,B1,477.75,0.25,120,92.0
6006,G4,478.0,0.25,97,92.0
6007,D3,478.0,0.25,110,92.0
6008,D5,478.0,0.25,100,92.0
6009,F#2,478.0,0.25,85,92.0
6010,E-3,478.0,1.0,105,92.0
6011,D4,478.25,2.75,112,92.0
6012,C#3,478.25,0.25,110,92.0
6013,C#5,478.25,121/500,100,92.0
6014,G4,478.5,0.25,112,92.0
6015,D5,478.5,121/500,100,92.0
6016,F#2,478.5,0.25,85,92.0
6017,G#4,478.75,0.25,115,92.0
6018,A2,478.75,0.25,110,92.0
6019,E-5,478.75,0.25,100,92.0
6020,B1,478.75,0.25,120,92.0
6021,A4,479.0,0.25,115,92.0
6022,E5,479.0,0.25,100,92.0
6023,E-3,479.0,1.0,105,92.0
6024,E2,479.0,0.25,102,92.0
6025,F#2,479.0,0.25,102,92.0
6026,E4,479.25,0.25,118,92.0
6027,D2,479.25,0.25,110,92.0
6028,F#5,479.25,0.5,100,92.0
6029,A4,479.5,0.25,90,92.0
6030,F#2,479.5,0.25,110,92.0
6031,B1,479.5,0.25,102,92.0
6032,F#2,479.5,0.25,102,92.0
6033,B-4,479.75,0.25,118,92.0
6034,A4,479.75,0.25,100,92.0
6035,A5,479.75,0.25,100,92.0
6036,B4,480.0,0.25,118,92.0
6037,D2,480.0,0.5,110,92.0
6038,E-3,480.0,1.0,105,92.0
6039,A4,480.0,0.25,100,92.0
6040,A5,480.0,0.25,100,92.0
6041,F#2,480.0,0.25,102,92.0
6042,B1,480.0,0.25,102,92.0
6043,E5,480.25,0.5,118,92.0
6044,A4,480.25,0.25,100,92.0
6045,A5,480.25,0.25,100,92.0
6046,D5,480.5,0.25,118,92.0
6047,G4,480.5,0.5,91,92.0
6048,F#2,480.5,0.25,85,92.0
6049,A3,480.5,0.5,91,92.0
6050,C4,480.5,0.5,91,92.0
6051,E4,480.5,0.5,91,92.0
6052,F#4,480.5,0.5,100,92.0
6053,F#5,480.5,0.5,100,92.0
6054,D2,480.75,0.25,110,92.0
6055,C5,481.0,0.25,93,92.0
6056,G4,481.0,1.75,91,92.0
6057,E2,481.0,0.25,110,92.0
6058,E-3,481.0,1.0,105,92.0
6059,A3,481.0,2.0,91,92.0
6060,C4,481.0,2.0,91,92.0
6061,E4,481.0,2.0,91,92.0
6062,G4,481.0,0.5,100,92.0
6063,G5,481.0,0.5,100,92.0
6064,F#2,481.0,0.25,102,92.0
6065,E2,481.0,0.25,102,92.0
6066,E2,481.25,0.25,110,92.0
6067,A4,481.5,0.25,110,92.0
6068,F#2,481.5,0.25,85,92.0
6069,E4,481.5,0.25,100,92.0
6070,E5,481.5,0.25,100,92.0
6071,C5,481.75,0.25,118,92.0
6072,E2,481.75,0.25,110,92.0
6073,B1,481.75,0.25,120,92.0
6074,F#4,481.75,123/250,100,92.0
6075,F#5,481.75,123/250,100,92.0
6076,E2,481.875,0.125,75,92.0
6077,F#2,482.0,0.25,110,92.0
6078,E-3,482.0,1.0,105,92.0
6079,B-2,482.0,0.25,102,92.0
6080,E2,482.0,0.25,102,92.0
6081,A4,482.25,0.25,110,92.0
6082,F#2,482.25,0.25,110,92.0
6083,E2,482.25,0.25,120,92.0
6084,D4,482.25,0.25,100,92.0
6085,D5,482.25,0.25,100,92.0
6086,G4,482.5,0.5,89,92.0
6087,D3,482.5,0.25,105,92.0
6088,E4,482.5,0.25,100,92.0
6089,E5,482.5,0.25,100,92.0
6090,A4,482.75,0.25,118,92.0
6091,F#2,482.75,0.25,110,92.0
6092,D3,482.75,0.25,105,92.0
6093,E-4,482.75,0.25,100,92.0
6094,E-5,482.75,0.25,100,92.0
6095,A2,483.0,0.5,110,92.0
6096,C3,483.0,0.25,105,92.0
6097,D4,483.0,0.25,100,92.0
6098,D5,483.0,0.25,100,92.0
6099,G4,483.25,0.25,110,92.0
6100,C3,483.25,0.25,105,92.0
6101,C#4,483.25,0.25,100,92.0
6102,C#5,483.25,0.25,100,92.0
6103,F4,483.5,0.25,102,92.0
6104,D2,483.5,0.5,110,92.0
6105,B2,483.5,0.25,105,92.0
6106,C4,483.5,0.25,100,92.0
6107,C5,483.5,0.25,100,92.0
6108,G4,483.75,0.25,115,92.0
6109,A2,483.75,0.25,105,92.0
6110,B3,483.75,0.25,100,92.0
6111,B4,483.75,0.25,100,92.0
6112,E-2,484.0,0.5,110,92.0
6113,C#3,484.0,1.0,105,92.0
6114,B-3,484.0,4.0,100,92.0
6115,B-4,484.0,4.0,100,92.0
6116,F#2,484.0,0.25,102,92.0
6117,B1,484.0,0.25,102,92.0
6118,F4,484.25,0.25,90,92.0
6119,F#4,484.5,0.5,112,92.0
6120,E2,484.5,0.25,102,92.0
6121,F#2,484.5,0.25,102,92.0
6122,G4,484.75,0.25,112,92.0
6123,E-3,484.75,1.0,110,92.0
6124,C#3,484.75,0.25,120,92.0
6125,B1,484.75,0.25,120,92.0
6126,G4,485.0,57/40,112,92.0
6127,F#2,485.0,0.25,85,92.0
6128,E-3,485.0,1.0,105,92.0
6129,G3,485.0,4.0,91,92.0
6130,B-3,485.0,4.0,91,92.0
6131,D4,485.0,4.0,91,92.0
6132,E-3,485.033,3.5,94,92.0
6133,B1,485.25,0.25,120,92.0
6134,B-3,485.283,3717/1000,97,92.0
6135,E2,485.5,0.25,102,92.0
6136,F#2,485.5,0.25,102,92.0
6137,E-4,485.525,173/250,107,92.0
6138,G4,485.542,2433/1000,104,92.0
6139,B1,485.75,0.25,120,92.0
6140,E-3,486.0,0.25,110,92.0
6141,F#2,486.0,0.25,85,92.0
6142,E-3,486.0,1.0,105,92.0
6143,C3,486.25,0.25,110,92.0
6144,E-4,486.308,13/10,117,92.0
6145,B1,486.5,0.25,102,92.0
6146,F#2,486.5,0.25,102,92.0
6147,G4,486.525,59/40,94,92.0
6148,B-2,486.75,0.25,110,92.0
6149,B1,486.75,0.25,120,92.0
6150,B-4,486.783,1017/1000,114,92.0
6151,E-3,487.0,1.0,105,92.0
6152,E2,487.0,0.25,102,92.0
6153,F#2,487.0,0.25,102,92.0
6154,E-2,487.25,0.25,110,92.0
6155,F#2,487.5,0.25,110,92.0
6156,B1,487.5,0.25,102,92.0
6157,F#2,487.5,0.25,102,92.0
6158,E2,487.75,0.25,120,92.0
6159,F4,488.0,1.0,94,92.0
6160,E-2,488.0,0.25,110,92.0
6161,E-3,488.0,1.0,105,92.0
6162,F#2,488.0,0.25,102,92.0
6163,B1,488.0,0.25,102,92.0
6164,C3,488.25,0.25,110,92.0
6165,F3,488.5,0.25,110,92.0
6166,F#2,488.5,0.25,85,92.0
6167,B-4,488.5,0.5,94,92.0
6168,G4,488.5,0.5,94,92.0
6169,E-3,488.75,1.5,110,92.0
6170,B-3,489.0,1/40,97,92.0
6171,F4,489.0,9/20,94,92.0
6172,E-3,489.0,1.0,105,92.0
6173,B-4,489.0,19/20,94,92.0
6174,G4,489.0,19/20,94,92.0
6175,F#2,489.0,0.25,102,92.0
6176,E2,489.0,0.25,102,92.0
6177,F4,489.033,1771/500,94,92.0
6178,E-3,489.042,3933/1000,91,92.0
6179,E2,489.25,0.25,120,92.0
6180,F#2,489.5,0.25,85,92.0
6181,B1,489.75,0.25,120,92.0
6182,E-2,490.0,2.0,110,92.0
6183,F#2,490.0,0.25,85,92.0
6184,E-3,490.0,1.0,105,92.0
6185,B-4,490.0,29/20,94,92.0
6186,G4,490.0,29/20,94,92.0
6187,E2,490.25,0.25,120,92.0
6188,F#2,490.5,0.25,85,92.0
6189,B1,490.75,0.25,120,92.0
6190,F#2,491.0,0.25,85,92.0
6191,E2,491.25,0.25,120,92.0
6192,G3,491.5,0.25,85,92.0
6193,B1,491.75,0.25,120,92.0
6194,D2,492.0,0.25,110,92.0
6195,E-4,492.0,4.0,120,92.0
6196,G4,492.0,4.0,120,92.0
6197,B-4,492.0,4.0,120,92.0
6198,D5,492.0,4.0,120,92.0
6199,B-2,492.0,0.25,102,92.0
6200,B1,492.0,0.25,102,92.0
6201,F#2,492.5,0.25,85,92.0
6202,D3,492.75,1.25,110,92.0
6203,C#3,492.75,0.25,115,92.0
6204,B1,492.75,0.25,115,92.0
6205,D3,493.0,424/125,110,92.0
6206,F#2,493.0,0.25,85,92.0
6207,F#2,493.5,0.25,85,92.0
6208,B1,493.75,0.25,120,92.0
6209,C#5,493.75,2083/1000,97,92.0
6210,E4,493.75,2083/1000,97,92.0
6211,A4,493.75,2083/1000,97,92.0
6212,D3,494.0,0.25,110,92.0
6213,E-3,494.0,1.0,105,92.0
6214,B1,494.0,0.25,102,92.0
6215,F#2,494.0,0.25,102,92.0
6216,C#3,494.25,0.25,110,92.0
6217,F#2,494.5,0.25,85,92.0
6218,A2,494.75,0.25,110,92.0
6219,B1,494.75,0.25,120,92.0
6220,E-3,495.0,1.0,105,92.0
6221,E2,495.0,0.25,102,92.0
6222,F#2,495.0,0.25,102,92.0
6223,D2,495.25,0.25,110,92.0
6224,F#2,495.5,0.25,110,92.0
6225,B1,495.5,0.25,102,92.0
6226,F#2,495.5,0.25,102,92.0
6227,A3,495.75,2/5,107,92.0
6228,D4,496.0,1.0,101,92.0
6229,A4,496.0,1.0,104,92.0
6230,D2,496.0,0.5,110,92.0
6231,E-3,496.0,1.0,105,92.0
6232,C#5,496.0,3/10,82,92.0
6233,E4,496.0,3/10,82,92.0
6234,F#2,496.0,0.25,102,92.0
6235,B1,496.0,0.25,102,92.0
6236,A3,496.25,0.75,97,92.0
6237,D5,496.5,0.5,104,92.0
6238,F#4,496.5,0.5,97,92.0
6239,D3,496.5,0.125,83,92.0
6240,F#2,496.5,0.25,85,92.0
6241,D2,496.75,0.25,110,92.0
6242,D3,497.0,4.0,107,92.0
6243,D5,497.0,2633/1000,104,92.0
6244,F#4,497.0,567/1000,97,92.0
6245,A3,497.0,29/500,97,92.0
6246,D4,497.0,367/1000,101,92.0
6247,A4,497.0,117/40,104,92.0
6248,E2,497.0,0.25,110,92.0
6249,E-3,497.0,1.0,105,92.0
6250,F#2,497.0,0.25,102,92.0
6251,E2,497.0,0.25,102,92.0
6252,A3,497.25,73/40,88,92.0
6253,E2,497.25,0.25,110,92.0
6254,D4,497.5,1883/1000,107,92.0
6255,F#2,497.5,0.25,85,92.0
6256,E4,497.75,9/5,97,92.0
6257,E2,497.75,0.25,110,92.0
6258,B1,497.75,0.25,120,92.0
6259,F#2,498.0,0.25,110,92.0
6260,B-2,498.0,0.25,85,92.0
6261,F#2,498.25,0.25,110,92.0
6262,B1,498.5,0.25,120,92.0
6263,F#2,498.75,0.25,110,92.0
6264,A2,499.0,0.5,110,92.0
6265,E2,499.0,0.25,120,92.0
6266,A3,499.25,883/1000,106,92.0
6267,E2,499.25,0.25,120,92.0
6268,D4,499.5,1.5,107,92.0
6269,D2,499.5,0.5,110,92.0
6270,C3,499.5,0.25,105,92.0
6271,E4,499.75,983/1000,108,92.0
6272,D2,500.0,0.5,110,92.0
6273,D4,500.0,0.125,95,92.0
6274,E-4,500.0,4.0,120,92.0
6275,G4,500.0,4.0,120,92.0
6276,B-4,500.0,4.0,120,92.0
6277,D5,500.0,4.0,120,92.0
6278,C#3,500.0,0.25,110,92.0
6279,B1,500.0,0.25,110,92.0
6280,A4,500.25,0.125,95,92.0
6281,D5,500.5,0.125,95,92.0
6282,F#2,500.5,0.25,75,92.0
6283,D2,500.75,0.25,110,92.0
6284,A4,500.75,0.125,95,92.0
6285,G3,501.0,2583/1000,86,92.0
6286,D4,501.0,1.75,97,92.0
6287,F4,501.0,3267/1000,94,92.0
6288,F2,501.0,0.25,110,92.0
6289,D4,501.0,0.125,95,92.0
6290,C#2,501.0,0.25,102,92.0
6291,F#2,501.0,0.25,102,92.0
6292,F2,501.25,0.25,110,92.0
6293,A4,501.25,0.125,95,92.0
6294,E5,501.5,0.125,95,92.0
6295,F#2,501.5,0.25,75,92.0
6296,D2,501.75,0.25,110,92.0
6297,C5,501.75,0.125,95,92.0
6298,B1,501.75,0.25,120,92.0
6299,D4,502.0,0.125,95,92.0
6300,F#2,502.0,0.25,85,92.0
6301,E-4,502.0,0.5,108,92.0
6302,E-5,502.0,0.5,108,92.0
6303,A4,502.25,0.125,95,92.0
6304,D4,502.5,1.25,107,92.0
6305,D5,502.5,0.25,107,92.0
6306,C5,502.5,0.125,95,92.0
6307,F#2,502.5,0.25,75,92.0
6308,G4,502.75,0.125,95,92.0
6309,B1,502.75,0.25,120,92.0
6310,A1,503.0,0.5,110,92.0
6311,D4,503.0,0.125,95,92.0
6312,E-4,503.0,0.5,118,92.0
6313,E-5,503.0,0.5,118,92.0
6314,C#2,503.0,0.25,102,92.0
6315,F#2,503.0,0.25,102,92.0
6316,A4,503.25,0.125,95,92.0
6317,D4,503.5,0.5,96,92.0
6318,D5,503.5,0.25,96,92.0
6319,C2,503.5,0.5,110,92.0
6320,D5,503.5,0.125,95,92.0
6321,B1,503.5,0.25,98,92.0
6322,F#2,503.5,0.25,98,92.0
6323,F4,503.75,0.125,95,92.0
6324,E-4,503.75,0.25,108,92.0
6325,E-5,503.75,0.25,108,92.0
6326,D2,504.0,0.5,110,92.0
6327,D4,504.0,0.125,95,92.0
6328,D4,504.0,4.0,120,92.0
6329,C#5,504.0,4.0,120,92.0
6330,F#4,504.0,4.0,120,92.0
6331,A4,504.0,4.0,120,92.0
6332,F#2,504.0,0.25,102,92.0
6333,B1,504.0,0.25,102,92.0
6334,A4,504.25,0.125,95,92.0
6335,F4,504.25,0.25,118,92.0
6336,F5,504.25,0.25,118,92.0
6337,D5,504.5,0.125,95,92.0
6338,F#2,504.5,0.25,75,92.0
6339,D2,504.75,0.25,110,92.0
6340,C5,504.75,0.125,95,92.0
6341,F2,505.0,0.25,110,92.0
6342,D4,505.0,0.125,95,92.0
6343,C4,505.0,0.75,115,92.0
6344,C5,505.0,0.75,115,92.0
6345,C#2,505.0,0.25,102,92.0
6346,F#2,505.0,0.25,102,92.0
6347,F2,505.25,0.25,110,92.0
6348,A4,505.25,0.125,95,92.0
6349,F4,505.5,0.125,95,92.0
6350,F#2,505.5,0.25,75,92.0
6351,D2,505.75,0.25,110,92.0
6352,D5,505.75,0.125,95,92.0
6353,B1,505.75,0.25,120,92.0
6354,D4,506.0,0.125,95,92.0
6355,F#2,506.0,0.25,85,92.0
6356,D4,506.0,0.75,104,92.0
6357,D5,506.0,0.75,104,92.0
6358,C5,506.25,0.125,95,92.0
6359,E5,506.5,0.125,95,92.0
6360,F#2,506.5,0.25,75,92.0
6361,A2,506.75,0.25,110,92.0
6362,G4,506.75,0.125,95,92.0
6363,B1,506.75,0.25,120,92.0
6364,G2,507.0,0.25,110,92.0
6365,D4,507.0,0.125,95,92.0
6366,C#2,507.0,0.25,102,92.0
6367,F#2,507.0,0.25,102,92.0
6368,F2,507.25,0.25,110,92.0
6369,A4,507.25,0.125,95,92.0
6370,E-4,507.25,0.25,108,92.0
6371,E-5,507.25,0.25,108,92.0
6372,E2,507.5,0.25,110,92.0
6373,D5,507.5,0.125,95,92.0
6374,D4,507.5,0.25,98,92.0
6375,D5,507.5,0.25,98,92.0
6376,B1,507.5,0.25,98,92.0
6377,F#2,507.5,0.25,98,92.0
6378,C2,507.75,0.25,110,92.0
6379,F4,507.75,0.125,95,92.0
6380,D2,508.0,0.5,110,92.0
6381,D4,508.0,0.125,95,92.0
6382,C4,508.0,0.25,107,92.0
6383,C5,508.0,0.25,107,92.0
6384,F#2,508.0,0.25,102,92.0
6385,B1,508.0,0.25,102,92.0
6386,A4,508.25,0.125,95,92.0
6387,D5,508.5,0.125,95,92.0
6388,F#2,508.5,0.25,75,92.0
6389,B-3,508.5,0.25,104,92.0
6390,B-4,508.5,0.25,104,92.0
6391,C#5,508.75,0.25,110,92.0
6392,D2,508.75,0.25,110,92.0
6393,A4,508.75,0.125,95,92.0
6394,C#5,509.0,1.0,110,92.0
6395,A4,509.0,2.5,81,92.0
6396,F2,509.0,0.25,110,92.0
6397,D4,509.0,0.125,95,92.0
6398,C#4,509.0,4.0,81,92.0
6399,F#4,509.0,4.0,81,92.0
6400,C#2,509.0,0.25,102,92.0
6401,F#2,509.0,0.25,102,92.0
6402,F2,509.25,0.25,110,92.0
6403,A4,509.25,0.125,95,92.0
6404,E5,509.5,0.125,95,92.0
6405,F#2,509.5,0.25,75,92.0
6406,D2,509.75,0.25,110,92.0
6407,C5,509.75,0.125,95,92.0
6408,B1,509.75,0.25,120,92.0
6409,A4,510.0,3.0,101,92.0
6410,D4,510.0,0.125,95,92.0
6411,F#2,510.0,0.25,85,92.0
6412,A4,510.25,0.125,95,92.0
6413,C5,510.5,0.125,95,92.0
6414,F#2,510.5,0.25,75,92.0
6415,G4,510.75,0.125,95,92.0
6416,B1,510.75,0.25,120,92.0
6417,A1,511.0,1.0,110,92.0
6418,D4,511.0,0.125,95,92.0
6419,C#2,511.0,0.25,102,92.0
6420,F#2,511.0,0.25,102,92.0
6421,C#5,511.25,0.25,104,92.0
6422,A4,511.25,0.125,95,92.0
6423,D5,511.5,0.25,115,92.0
6424,D5,511.5,0.125,95,92.0
6425,B1,511.5,0.25,98,92.0
6426,F#2,511.5,0.25,98,92.0
6427,C#5,511.75,0.0,94,92.0
6428,F4,511.75,0.125,95,92.0
6429,A4,512.0,1.0,110,92.0
6430,D2,512.0,0.5,110,92.0
6431,D4,512.0,0.125,95,92.0
6432,D4,512.0,4.0,120,92.0
6433,C#5,512.0,4.0,120,92.0
6434,F#4,512.0,4.0,120,92.0
6435,A4,512.0,4.0,120,92.0
6436,F#2,512.0,0.25,102,92.0
6437,B1,512.0,0.25,102,92.0
6438,A4,512.25,0.125,95,92.0
6439,D5,512.5,0.125,95,92.0
6440,F#2,512.5,0.25,75,92.0
6441,D2,512.75,0.25,110,92.0
6442,C5,512.75,0.125,95,92.0
6443,F#4,513.0,1.5,101,92.0
6444,A4,513.0,0.75,110,92.0
6445,F2,513.0,0.25,110,92.0
6446,D4,513.0,0.125,95,92.0
6447,C#2,513.0,0.25,102,92.0
6448,F#2,513.0,0.25,102,92.0
6449,F2,513.25,0.25,110,92.0
6450,A4,513.25,0.125,95,92.0
6451,F4,513.5,0.125,95,92.0
6452,F#2,513.5,0.25,75,92.0
6453,F#4,513.75,1.75,102,92.0
6454,D2,513.75,0.25,110,92.0
6455,D5,513.75,0.125,95,92.0
6456,B1,513.75,0.25,120,92.0
6457,D4,514.0,0.125,95,92.0
6458,F#2,514.0,0.25,85,92.0
6459,C5,514.25,0.125,95,92.0
6460,E5,514.5,0.125,95,92.0
6461,F#2,514.5,0.25,75,92.0
6462,G4,514.75,0.125,95,92.0
6463,B1,514.75,0.25,120,92.0
6464,A1,515.0,0.5,110,92.0
6465,D4,515.0,0.125,95,92.0
6466,C#2,515.0,0.25,102,92.0
6467,F#2,515.0,0.25,102,92.0
6468,A4,515.25,0.125,95,92.0
6469,E4,515.5,0.75,94,92.0
6470,C2,515.5,0.5,110,92.0
6471,D5,515.5,0.125,95,92.0
6472,B1,515.5,0.25,98,92.0
6473,F#2,515.5,0.25,98,92.0
6474,F4,515.75,0.125,95,92.0
6475,D2,516.0,0.5,110,92.0
6476,D4,516.0,0.125,95,92.0
6477,E-4,516.0,4.0,120,92.0
6478,D5,516.0,4.0,120,92.0
6479,G4,516.0,4.0,120,92.0
6480,B-4,516.0,4.0,120,92.0
6481,F#2,516.0,0.25,102,92.0
6482,B1,516.0,0.25,102,92.0
6483,D4,516.25,0.75,110,92.0
6484,A4,516.25,0.125,95,92.0
6485,D5,516.5,0.125,95,92.0
6486,F#2,516.5,0.25,75,92.0
6487,D2,516.75,0.25,110,92.0
6488,A4,516.75,0.125,95,92.0
6489,F2,517.0,0.25,110,92.0
6490,D4,517.0,0.125,95,92.0
6491,F4,517.0,4.0,86,92.0
6492,D4,517.0,4.0,86,92.0
6493,A3,517.0,4.0,86,92.0
6494,C4,517.0,4.0,86,92.0
6495,C#2,517.0,0.25,102,92.0
6496,F#2,517.0,0.25,102,92.0
6497,F2,517.25,0.25,110,92.0
6498,A4,517.25,0.125,95,92.0
6499,E5,517.5,0.125,95,92.0
6500,F#2,517.5,0.25,75,92.0
6501,D2,517.75,0.25,110,92.0
6502,C5,517.75,0.125,95,92.0
6503,B1,517.75,0.25,120,92.0
6504,D4,518.0,0.125,95,92.0
6505,F#2,518.0,0.25,85,92.0
6506,A4,518.25,0.125,95,92.0
6507,C5,518.5,0.125,95,92.0
6508,F#2,518.5,0.25,75,92.0
6509,G4,518.75,0.125,95,92.0
6510,B1,518.75,0.25,120,92.0
6511,A1,519.0,0.5,110,92.0
6512,D4,519.0,0.125,95,92.0
6513,C#2,519.0,0.25,102,92.0
6514,F#2,519.0,0.25,102,92.0
6515,A4,519.25,0.125,95,92.0
6516,C2,519.5,0.5,110,92.0
6517,D5,519.5,0.125,95,92.0
6518,B1,519.5,0.25,98,92.0
6519,F#2,519.5,0.25,98,92.0
6520,F4,519.75,0.125,95,92.0
6521,D2,520.0,0.5,110,92.0
6522,D4,520.0,0.125,95,92.0
6523,F#2,520.0,0.25,102,92.0
6524,B1,520.0,0.25,102,92.0
6525,A4,520.25,0.125,95,92.0
6526,D5,520.5,0.125,95,92.0
6527,F#2,520.5,0.25,75,92.0
6528,D2,520.75,0.25,110,92.0
6529,C5,520.75,0.125,95,92.0
6530,F2,521.0,0.25,110,92.0
6531,D4,521.0,0.125,95,92.0
6532,C#2,521.0,0.25,102,92.0
6533,F#2,521.0,0.25,102,92.0
6534,F2,521.25,0.25,110,92.0
6535,A4,521.25,0.125,95,92.0
6536,F4,521.5,0.125,95,92.0
6537,F#2,521.5,0.25,75,92.0
6538,D2,521.75,0.25,110,92.0
6539,D5,521.75,0.125,95,92.0
6540,B1,521.75,0.25,120,92.0
6541,D4,522.0,0.125,95,92.0
6542,F#2,522.0,0.25,85,92.0
6543,C5,522.25,0.125,95,92.0
6544,E5,522.5,0.125,95,92.0
6545,F#2,522.5,0.25,75,92.0
6546,G4,522.75,0.125,95,92.0
6547,B1,522.75,0.25,120,92.0
6548,A2,523.0,0.5,110,92.0
6549,D4,523.0,0.125,95,92.0
6550,C#2,523.0,0.25,102,92.0
6551,F#2,523.0,0.25,102,92.0
6552,A4,523.25,0.125,95,92.0
6553,F2,523.5,0.5,110,92.0
6554,D5,523.5,0.125,95,92.0
6555,B1,523.5,0.25,98,92.0
6556,F#2,523.5,0.25,98,92.0
6557,F4,523.75,0.125,95,92.0
6558,D2,524.0,0.5,110,92.0
6559,D4,524.0,0.125,95,92.0
6560,E-4,524.0,4.0,120,92.0
6561,D5,524.0,4.0,120,92.0
6562,G4,524.0,4.0,120,92.0
6563,B-4,524.0,4.0,120,92.0
6564,F#2,524.0,0.25,102,92.0
6565,B1,524.0,0.25,102,92.0
6566,A4,524.25,0.125,95,92.0
6567,D5,524.5,0.125,95,92.0
6568,F#2,524.5,0.25,75,92.0
6569,D2,524.75,0.25,110,92.0
6570,A4,524.75,0.125,95,92.0
6571,F2,525.0,0.25,110,92.0
6572,D4,525.0,0.125,95,92.0
6573,C#2,525.0,0.25,102,92.0
6574,F#2,525.0,0.25,102,92.0
6575,F2,525.25,0.25,110,92.0
6576,A4,525.25,0.125,95,92.0
6577,E5,525.5,0.125,95,92.0
6578,F#2,525.5,0.25,75,92.0
6579,D2,525.75,0.25,110,92.0
6580,C5,525.75,0.125,95,92.0
6581,B1,525.75,0.25,120,92.0
6582,D4,526.0,0.125,95,92.0
6583,F#2,526.0,0.25,85,92.0
6584,A4,526.033,2/5,60,92.0
6585,A4,526.25,0.125,95,92.0
6586,C5,526.475,73/250,75,92.0
6587,C5,526.5,0.125,95,92.0
6588,F#2,526.5,0.25,75,92.0
6589,G4,526.75,0.125,95,92.0
6590,B1,526.75,0.25,120,92.0
6591,G4,526.783,19/40,78,92.0
6592,A1,527.0,0.5,110,92.0
6593,D4,527.0,0.125,95,92.0
6594,C#2,527.0,0.25,102,92.0
6595,F#2,527.0,0.25,102,92.0
6596,A4,527.242,171/500,73,92.0
6597,A4,527.25,0.125,95,92.0
6598,C2,527.5,0.5,110,92.0
6599,D5,527.5,0.125,95,92.0
6600,B1,527.5,0.25,98,92.0
6601,F#2,527.5,0.25,98,92.0
6602,E4,527.567,221/500,77,92.0
6603,F4,527.75,0.125,95,92.0
6604,G4,528.0,333/1000,75,92.0
6605,D2,528.0,0.5,110,92.0
6606,D4,528.0,0.125,95,92.0
6607,C#5,528.0,4.0,120,92.0
6608,D4,528.0,4.0,120,92.0
6609,F#4,528.0,4.0,120,92.0
6610,A4,528.0,4.0,120,92.0
6611,F#2,528.0,0.25,102,92.0
6612,B1,528.0,0.25,102,92.0
6613,A4,528.25,0.125,95,92.0
6614,D4,528.325,3/5,75,92.0
6615,D5,528.5,0.125,95,92.0
6616,F#2,528.5,0.25,75,92.0
6617,D2,528.75,0.25,110,92.0
6618,C5,528.75,0.125,95,92.0
6619,E4,528.792,26/125,73,92.0
6620,E4,529.0,1/5,73,92.0
6621,F2,529.0,0.25,110,92.0
6622,D4,529.0,0.125,95,92.0
6623,C#2,529.0,0.25,102,92.0
6624,F#2,529.0,0.25,102,92.0
6625,B3,529.183,21/40,68,92.0
6626,F2,529.25,0.25,110,92.0
6627,A4,529.25,0.125,95,92.0
6628,F4,529.5,0.125,95,92.0
6629,F#2,529.5,0.25,75,92.0
6630,D4,529.725,29/20,86,92.0
6631,D2,529.75,0.25,110,92.0
6632,D5,529.75,0.125,95,92.0
6633,B1,529.75,0.25,120,92.0
6634,C3,530.0,0.25,110,92.0
6635,D4,530.0,0.125,95,92.0
6636,E2,530.0,0.25,102,92.0
6637,F#2,530.0,0.25,102,92.0
6638,A1,531.0,1.0,110,92.0
6639,C4,531.125,11/40,81,92.0
6640,B3,531.408,129/500,65,92.0
6641,A3,531.675,73/250,70,92.0
6642,B3,531.958,283/1000,69,92.0
6643,D2,532.0,0.5,110,92.0
6644,D4,532.0,0.125,95,92.0
6645,C#3,532.0,1.0,110,92.0
6646,F#2,532.0,0.25,102,92.0
6647,B1,532.0,0.25,102,92.0
6648,A3,532.192,73/250,81,92.0
6649,A4,532.25,0.125,95,92.0
6650,G3,532.467,3/10,65,92.0
6651,D5,532.5,0.125,95,92.0
6652,F#2,532.5,0.25,85,92.0
6653,F3,532.733,267/1000,78,92.0
6654,D2,532.75,0.25,110,92.0
6655,A4,532.75,0.125,95,92.0
6656,A4,532.75,0.5,110,92.0
6657,F3,533.0,21/500,78,92.0
6658,A2,533.0,0.25,110,92.0
6659,D4,533.0,0.125,95,92.0
6660,F#2,533.0,0.25,102,92.0
6661,E2,533.0,0.25,102,92.0
6662,E3,533.058,13/40,79,92.0
6663,A2,533.25,0.25,110,92.0
6664,A4,533.25,0.125,95,92.0
6665,B4,533.25,0.25,110,92.0
6666,E5,533.5,0.125,95,92.0
6667,F#2,533.5,0.25,85,92.0
6668,E3,533.533,29/40,77,92.0
6669,D2,533.75,0.25,110,92.0
6670,C5,533.75,0.125,95,92.0
6671,B4,533.75,0.5,110,92.0
6672,B1,533.75,0.25,120,92.0
6673,D4,534.0,0.125,95,92.0
6674,F#2,534.0,0.25,85,92.0
6675,F3,534.25,171/500,71,92.0
6676,F2,534.25,0.25,110,92.0
6677,A4,534.25,0.125,95,92.0
6678,C5,534.25,0.25,110,92.0
6679,D2,534.5,0.25,110,92.0
6680,C5,534.5,0.125,95,92.0
6681,F#2,534.5,0.25,85,92.0
6682,D3,534.667,0.25,75,92.0
6683,G4,534.75,0.125,95,92.0
6684,C5,534.75,1.0,110,92.0
6685,B1,534.75,0.25,120,92.0
6686,E-3,534.85,217/1000,94,92.0
6687,A2,535.0,0.25,110,92.0
6688,D4,535.0,0.125,95,92.0
6689,E2,535.0,0.25,102,92.0
6690,F#2,535.0,0.25,102,92.0
6691,E3,535.025,17/20,71,92.0
6692,A4,535.25,0.125,95,92.0
6693,C2,535.5,0.25,110,92.0
6694,D5,535.5,0.125,95,92.0
6695,B1,535.5,0.25,102,92.0
6696,F#2,535.5,0.25,102,92.0
6697,F4,535.75,0.125,95,92.0
6698,F3,535.817,13/40,92,92.0
6699,D2,536.0,0.5,110,92.0
6700,D4,536.0,0.125,95,92.0
6701,C#5,536.0,4.0,120,92.0
6702,D4,536.0,4.0,120,92.0
6703,F#4,536.0,4.0,120,92.0
6704,A4,536.0,4.0,120,92.0
6705,F#2,536.0,0.25,102,92.0
6706,B1,536.0,0.25,102,92.0
6707,D3,536.092,73/250,75,92.0
6708,E-3,536.225,267/1000,58,92.0
6709,A4,536.25,0.125,95,92.0
6710,E3,536.425,51/125,92,92.0
6711,D5,536.5,0.125,95,92.0
6712,F#2,536.5,0.25,85,92.0
6713,D2,536.75,0.25,110,92.0
6714,C5,536.75,0.125,95,92.0
6715,C5,536.75,0.5,110,92.0
6716,G3,536.783,217/1000,90,92.0
6717,G3,537.0,27/250,90,92.0
6718,A2,537.0,0.25,110,92.0
6719,D4,537.0,0.125,95,92.0
6720,F#2,537.0,0.25,102,92.0
6721,E2,537.0,0.25,102,92.0
6722,D3,537.075,77/250,81,92.0
6723,A2,537.25,0.25,110,92.0
6724,A4,537.25,0.125,95,92.0
6725,D5,537.25,0.25,110,92.0
6726,E3,537.333,367/1000,88,92.0
6727,F4,537.5,0.125,95,92.0
6728,F#2,537.5,0.25,85,92.0
6729,C3,537.683,671/500,88,92.0
6730,D2,537.75,0.25,110,92.0
6731,D5,537.75,0.125,95,92.0
6732,D5,537.75,0.5,110,92.0
6733,B1,537.75,0.25,120,92.0
6734,D4,538.0,0.125,95,92.0
6735,F#2,538.0,0.25,85,92.0
6736,C6,538.0,173/250,89,92.0
6737,A5,538.0,173/250,89,92.0
6738,C5,538.0,173/250,89,92.0
6739,F5,538.0,173/250,89,92.0
6740,F2,538.25,0.25,110,92.0
6741,C5,538.25,0.125,95,92.0
6742,E5,538.25,0.25,110,92.0
6743,D2,538.5,0.25,110,92.0
6744,E5,538.5,0.125,95,92.0
6745,F#2,538.5,0.25,85,92.0
6746,G4,538.75,0.125,95,92.0
6747,E5,538.75,1.0,110,92.0
6748,B1,538.75,0.25,120,92.0
6749,A2,539.0,0.25,110,92.0
6750,D4,539.0,0.125,95,92.0
6751,E2,539.0,0.25,102,92.0
6752,F#2,539.0,0.25,102,92.0
6753,A4,539.25,0.125,95,92.0
6754,C2,539.5,0.25,110,92.0
6755,D5,539.5,0.125,95,92.0
6756,D5,539.5,0.25,110,92.0
6757,B1,539.5,0.25,102,92.0
6758,F#2,539.5,0.25,102,92.0
6759,F4,539.75,0.125,95,92.0
6760,C5,539.75,0.25,110,92.0
6761,A4,539.75,11/20,105,92.0
6762,G4,539.75,11/20,105,92.0
6763,C4,539.75,11/20,105,92.0
6764,D4,539.75,11/20,105,92.0
6765,D2,540.0,0.5,110,92.0
6766,D4,540.0,0.125,95,92.0
6767,B4,540.0,0.5,110,92.0
6768,F#2,540.0,0.25,102,92.0
6769,B1,540.0,0.25,102,92.0
6770,C4,540.242,3/40,105,92.0
6771,E4,540.242,3/40,105,92.0
6772,G4,540.242,3/40,105,92.0
6773,B4,540.242,3/40,105,92.0
6774,A4,540.25,0.125,95,92.0
6775,D5,540.5,0.125,95,92.0
6776,G4,540.5,0.25,110,92.0
6777,F#2,540.5,0.25,85,92.0
6778,A2,540.75,0.25,110,92.0
6779,A4,540.75,0.125,95,92.0
6780,A4,540.75,3.25,110,92.0
6781,B4,540.75,0.5,105,92.0
6782,C4,540.75,0.5,105,92.0
6783,E4,540.75,0.5,105,92.0
6784,G4,540.75,0.5,105,92.0
6785,D3,541.0,0.25,110,92.0
6786,D4,541.0,0.125,95,92.0
6787,F#2,541.0,0.25,102,92.0
6788,E2,541.0,0.25,102,92.0
6789,C3,541.25,0.25,110,92.0
6790,A4,541.25,0.125,95,92.0
6791,C5,541.25,3/40,105,92.0
6792,D4,541.25,3/40,105,92.0
6793,F4,541.25,3/40,105,92.0
6794,A4,541.25,3/40,105,92.0
6795,E5,541.5,0.125,95,92.0
6796,F#2,541.5,0.25,85,92.0
6797,D4,541.742,1.25,105,92.0
6798,F4,541.742,1.25,105,92.0
6799,C5,541.742,1.25,105,92.0
6800,A4,541.742,1.25,105,92.0
6801,A2,541.75,0.25,110,92.0
6802,C5,541.75,0.125,95,92.0
6803,B1,541.75,0.25,120,92.0
6804,D4,542.0,0.125,95,92.0
6805,F#2,542.0,0.25,85,92.0
6806,F2,542.25,0.25,110,92.0
6807,A4,542.25,0.125,95,92.0
6808,D2,542.5,0.25,110,92.0
6809,C5,542.5,0.125,95,92.0
6810,F#2,542.5,0.25,85,92.0
6811,G4,542.75,0.125,95,92.0
6812,B1,542.75,0.25,120,92.0
6813,A1,543.0,0.25,110,92.0
6814,D4,543.0,0.125,95,92.0
6815,E2,543.0,0.25,102,92.0
6816,F#2,543.0,0.25,102,92.0
6817,A4,543.25,0.125,95,92.0
6818,G#4,543.25,0.125,110,92.0
6819,G4,543.375,0.125,110,92.0
6820,C2,543.5,0.25,110,92.0
6821,D5,543.5,0.125,95,92.0
6822,F4,543.5,0.25,110,92.0
6823,B1,543.5,0.25,102,92.0
6824,F#2,543.5,0.25,102,92.0
6825,F4,543.75,0.125,95,92.0
6826,G4,543.75,0.25,110,92.0
6827,C5,543.75,0.5,105,92.0
6828,C4,543.75,0.5,105,92.0
6829,E4,543.75,0.5,105,92.0
6830,G4,543.75,0.5,105,92.0
6831,D2,544.0,0.5,110,92.0
6832,D4,544.0,0.125,95,92.0
6833,A4,544.0,0.5,110,92.0
6834,F#2,544.0,0.25,102,92.0
6835,B1,544.0,0.25,102,92.0
6836,A4,544.25,0.125,95,92.0
6837,D5,544.25,3/40,105,92.0
6838,F4,544.25,3/40,105,92.0
6839,A4,544.25,3/40,105,92.0
6840,C4,544.25,3/40,105,92.0
6841,D5,544.5,0.125,95,92.0
6842,G4,544.5,0.25,110,92.0
6843,F#2,544.5,0.25,85,92.0
6844,A2,544.75,0.25,110,92.0
6845,C4,544.75,23/40,105,92.0
6846,C5,544.75,0.125,95,92.0
6847,A4,544.75,2.25,110,92.0
6848,D5,544.75,1.0,105,92.0
6849,F4,544.75,1.0,105,92.0
6850,A4,544.75,1.0,105,92.0
6851,D3,545.0,0.25,110,92.0
6852,D4,545.0,0.125,95,92.0
6853,F#2,545.0,0.25,102,92.0
6854,E2,545.0,0.25,102,92.0
6855,G4,545.242,3/40,105,92.0
6856,E5,545.242,3/40,105,92.0
6857,B4,545.242,3/40,105,92.0
6858,E4,545.242,3/40,105,92.0
6859,C3,545.25,0.25,110,92.0
6860,C4,545.25,0.5,105,92.0
6861,A4,545.25,0.125,95,92.0
6862,F4,545.5,0.125,95,92.0
6863,F#2,545.5,0.25,85,92.0
6864,A2,545.75,0.25,110,92.0
6865,C4,545.75,79/500,105,92.0
6866,D5,545.75,0.125,95,92.0
6867,B1,545.75,0.25,120,92.0
6868,E5,545.75,1.25,105,92.0
6869,E4,545.75,1.25,105,92.0
6870,G4,545.75,1.25,105,92.0
6871,B4,545.75,1.25,105,92.0
6872,D4,546.0,0.125,95,92.0
6873,F#2,546.0,0.25,85,92.0
6874,F2,546.25,0.25,110,92.0
6875,C5,546.25,0.125,95,92.0
6876,D2,546.5,0.25,110,92.0
6877,E5,546.5,0.125,95,92.0
6878,F#2,546.5,0.25,85,92.0
6879,D4,546.5,0.25,105,92.0
6880,D5,546.5,0.25,105,92.0
6881,G4,546.75,0.125,95,92.0
6882,B1,546.75,0.25,120,92.0
6883,C4,546.75,0.25,105,92.0
6884,C5,546.75,0.25,105,92.0
6885,A1,547.0,0.25,110,92.0
6886,B4,547.0,0.5,105,92.0
6887,A4,547.0,4.0,105,92.0
6888,D4,547.0,0.125,95,92.0
6889,C4,547.0,4.0,105,92.0
6890,D4,547.0,4.0,105,92.0
6891,F#2,547.0,0.25,102,92.0
6892,E2,547.0,0.25,102,92.0
6893,A4,547.25,0.125,95,92.0
6894,E2,547.25,0.25,120,92.0
6895,C2,547.5,0.25,110,92.0
6896,G4,547.5,0.25,105,92.0
6897,D5,547.5,0.125,95,92.0
6898,B-2,547.5,0.25,85,92.0
6899,A4,547.75,3.25,105,92.0
6900,F4,547.75,0.125,95,92.0
6901,B1,547.75,0.25,120,92.0
6902,D2,548.0,0.5,110,92.0
6903,D4,548.0,0.125,95,92.0
6904,C6,548.0,173/250,89,92.0
6905,A5,548.0,173/250,89,92.0
6906,C5,548.0,173/250,89,92.0
6907,F5,548.0,173/250,89,92.0
6908,G3,548.0,0.25,110,92.0
6909,B1,548.0,0.25,110,92.0
6910,A4,548.25,0.125,95,92.0
6911,D5,548.5,0.125,95,92.0
6912,F#2,548.5,0.25,85,92.0
6913,D2,548.75,0.25,110,92.0
6914,A4,548.75,0.125,95,92.0
6915,A4,548.75,0.5,110,92.0
6916,A2,549.0,0.25,110,92.0
6917,D4,549.0,0.125,95,92.0
6918,F#2,549.0,0.25,102,92.0
6919,E2,549.0,0.25,102,92.0
6920,A2,549.25,0.25,110,92.0
6921,A4,549.25,0.125,95,92.0
6922,B4,549.25,0.25,110,92.0
6923,E5,549.5,0.125,95,92.0
6924,F#2,549.5,0.25,85,92.0
6925,D2,549.75,0.25,110,92.0
6926,C5,549.75,0.125,95,92.0
6927,B4,549.75,0.5,110,92.0
6928,B1,549.75,0.25,120,92.0
6929,A4,549.75,11/20,105,92.0
6930,G4,549.75,11/20,105,92.0
6931,C4,549.75,11/20,105,92.0
6932,D4,549.75,11/20,105,92.0
6933,D4,550.0,0.125,95,92.0
6934,F#2,550.0,0.25,85,92.0
6935,C4,550.242,3/40,105,92.0
6936,E4,550.242,3/40,105,92.0
6937,G4,550.242,3/40,105,92.0
6938,B4,550.242,3/40,105,92.0
6939,F2,550.25,0.25,110,92.0
6940,A4,550.25,0.125,95,92.0
6941,C5,550.25,0.25,110,92.0
6942,D2,550.5,0.25,110,92.0
6943,C5,550.5,0.125,95,92.0
6944,F#2,550.5,0.25,85,92.0
6945,G4,550.75,0.125,95,92.0
6946,C5,550.75,1.0,110,92.0
6947,B1,550.75,0.25,120,92.0
6948,B4,550.75,0.5,105,92.0
6949,C4,550.75,0.5,105,92.0
6950,E4,550.75,0.5,105,92.0
6951,G4,550.75,0.5,105,92.0
6952,A2,551.0,0.25,110,92.0
6953,D4,551.0,0.125,95,92.0
6954,E2,551.0,0.25,102,92.0
6955,F#2,551.0,0.25,102,92.0
6956,A4,551.25,0.125,95,92.0
6957,C5,551.25,3/40,105,92.0
6958,D4,551.25,3/40,105,92.0
6959,F4,551.25,3/40,105,92.0
6960,A4,551.25,3/40,105,92.0
6961,C2,551.5,0.25,110,92.0
6962,D5,551.5,0.125,95,92.0
6963,B1,551.5,0.25,102,92.0
6964,F#2,551.5,0.25,102,92.0
6965,D4,551.742,1.25,105,92.0
6966,F4,551.742,1.25,105,92.0
6967,C5,551.742,1.25,105,92.0
6968,A4,551.742,1.25,105,92.0
6969,F4,551.75,0.125,95,92.0
6970,D2,552.0,0.5,110,92.0
6971,D4,552.0,0.125,95,92.0
6972,F#2,552.0,0.25,102,92.0
6973,B1,552.0,0.25,102,92.0
6974,A4,552.25,0.125,95,92.0
6975,D5,552.5,0.125,95,92.0
6976,F#2,552.5,0.25,85,92.0
6977,D2,552.75,0.25,110,92.0
6978,C5,552.75,0.125,95,92.0
6979,C5,552.75,0.5,110,92.0
6980,A2,553.0,0.25,110,92.0
6981,A4,553.0,2.0,105,92.0
6982,D4,553.0,0.125,95,92.0
6983,C4,553.0,2.0,105,92.0
6984,D4,553.0,2.0,105,92.0
6985,F#2,553.0,0.25,102,92.0
6986,E2,553.0,0.25,102,92.0
6987,A2,553.25,0.25,110,92.0
6988,A4,553.25,0.125,95,92.0
6989,D5,553.25,0.25,110,92.0
6990,F4,553.5,0.125,95,92.0
6991,F#2,553.5,0.25,85,92.0
6992,D2,553.75,0.25,110,92.0
6993,D5,553.75,0.125,95,92.0
6994,D5,553.75,0.5,110,92.0
6995,B1,553.75,0.25,120,92.0
6996,C5,553.75,0.5,105,92.0
6997,C4,553.75,0.5,105,92.0
6998,E4,553.75,0.5,105,92.0
6999,G4,553.75,0.5,105,92.0
7000,D4,554.0,0.125,95,92.0
7001,F#2,554.0,0.25,85,92.0
7002,F2,554.25,0.25,110,92.0
7003,C5,554.25,0.125,95,92.0
7004,E5,554.25,0.25,110,92.0
7005,D5,554.25,3/40,105,92.0
7006,F4,554.25,3/40,105,92.0
7007,A4,554.25,3/40,105,92.0
7008,C4,554.25,3/40,105,92.0
7009,D2,554.5,0.25,110,92.0
7010,E5,554.5,0.125,95,92.0
7011,F#2,554.5,0.25,85,92.0
7012,C4,554.75,23/40,105,92.0
7013,G4,554.75,0.125,95,92.0
7014,E5,554.75,1.0,110,92.0
7015,B1,554.75,0.25,120,92.0
7016,D5,554.75,1.0,105,92.0
7017,F4,554.75,1.0,105,92.0
7018,A4,554.75,1.0,105,92.0
7019,A2,555.0,0.25,110,92.0
7020,D4,555.0,0.125,95,92.0
7021,E2,555.0,0.25,102,92.0
7022,F#2,555.0,0.25,102,92.0
7023,G4,555.242,3/40,105,92.0
7024,E5,555.242,3/40,105,92.0
7025,B4,555.242,3/40,105,92.0
7026,E4,555.242,3/40,105,92.0
7027,C4,555.25,0.5,105,92.0
7028,A4,555.25,0.125,95,92.0
7029,C2,555.5,0.25,110,92.0
7030,D5,555.5,0.125,95,92.0
7031,D5,555.5,0.25,110,92.0
7032,B1,555.5,0.25,102,92.0
7033,F#2,555.5,0.25,102,92.0
7034,C4,555.75,79/500,105,92.0
7035,F4,555.75,0.125,95,92.0
7036,C5,555.75,0.25,110,92.0
7037,E5,555.75,1.25,105,92.0
7038,E4,555.75,1.25,105,92.0
7039,G4,555.75,1.25,105,92.0
7040,B4,555.75,1.25,105,92.0
7041,D2,556.0,0.5,110,92.0
7042,D4,556.0,0.125,95,92.0
7043,B4,556.0,0.5,110,92.0
7044,E4,556.0,1.0,105,92.0
7045,G4,556.0,1.0,105,92.0
7046,C5,556.0,1.0,105,92.0
7047,F#2,556.0,0.25,102,92.0
7048,B1,556.0,0.25,102,92.0
7049,A4,556.25,0.125,95,92.0
7050,D5,556.5,0.125,95,92.0
7051,G4,556.5,0.25,110,92.0
7052,F#2,556.5,0.25,85,92.0
7053,D4,556.5,0.25,105,92.0
7054,D5,556.5,0.25,105,92.0
7055,A2,556.75,0.25,110,92.0
7056,A4,556.75,0.125,95,92.0
7057,A4,556.75,1.25,110,92.0
7058,C4,556.75,0.25,105,92.0
7059,C5,556.75,0.25,105,92.0
7060,B4,557.0,0.5,105,92.0
7061,A4,557.0,4.0,105,92.0
7062,D3,557.0,0.25,110,92.0
7063,D4,557.0,0.125,95,92.0
7064,C4,557.0,4.0,105,92.0
7065,D4,557.0,4.0,105,92.0
7066,F#2,557.0,0.25,102,92.0
7067,E2,557.0,0.25,102,92.0
7068,C3,557.25,0.25,110,92.0
7069,A4,557.25,0.125,95,92.0
7070,G4,557.5,0.25,105,92.0
7071,E5,557.5,0.125,95,92.0
7072,F#2,557.5,0.25,85,92.0
7073,A4,557.75,3.25,105,92.0
7074,A2,557.75,0.25,110,92.0
7075,C5,557.75,0.125,95,92.0
7076,B1,557.75,0.25,120,92.0
7077,A4,557.75,11/20,105,92.0
7078,G4,557.75,11/20,105,92.0
7079,C4,557.75,11/20,105,92.0
7080,D4,557.75,11/20,105,92.0
7081,D4,558.0,0.125,95,92.0
7082,F#2,558.0,0.25,85,92.0
7083,F4,558.0,333/1000,91,92.0
7084,F5,558.0,333/1000,91,92.0
7085,C4,558.242,3/40,105,92.0
7086,E4,558.242,3/40,105,92.0
7087,G4,558.242,3/40,105,92.0
7088,B4,558.242,3/40,105,92.0
7089,F2,558.25,0.25,110,92.0
7090,A4,558.25,0.125,95,92.0
7091,G4,558.333,333/1000,92,92.0
7092,G5,558.333,333/1000,92,92.0
7093,D2,558.5,0.25,110,92.0
7094,C5,558.5,0.125,95,92.0
7095,B1,558.5,0.25,102,92.0
7096,F#2,558.5,0.25,102,92.0
7097,A4,558.667,333/1000,93,92.0
7098,A5,558.667,333/1000,93,92.0
7099,G4,558.75,0.125,95,92.0
7100,B4,558.75,0.5,105,92.0
7101,C4,558.75,0.5,105,92.0
7102,E4,558.75,0.5,105,92.0
7103,G4,558.75,0.5,105,92.0
7104,A1,559.0,0.25,110,92.0
7105,D4,559.0,0.125,95,92.0
7106,C5,559.0,333/1000,93,92.0
7107,C6,559.0,333/1000,93,92.0
7108,E2,559.0,0.25,102,92.0
7109,F#2,559.0,0.25,102,92.0
7110,A4,559.25,0.125,95,92.0
7111,C5,559.25,3/40,105,92.0
7112,D4,559.25,3/40,105,92.0
7113,F4,559.25,3/40,105,92.0
7114,A4,559.25,3/40,105,92.0
7115,D5,559.333,333/1000,94,92.0
7116,D6,559.333,333/1000,94,92.0
7117,C2,559.5,0.25,110,92.0
7118,D5,559.5,0.125,95,92.0
7119,B1,559.5,0.25,102,92.0
7120,F#2,559.5,0.25,102,92.0
7121,E5,559.667,333/1000,95,92.0
7122,E6,559.667,333/1000,95,92.0
7123,D4,559.742,1.25,105,92.0
7124,F4,559.742,1.25,105,92.0
7125,C5,559.742,1.25,105,92.0
7126,A4,559.742,1.25,105,92.0
7127,F4,559.75,0.125,95,92.0
7128,D2,560.0,0.5,110,92.0
7129,D4,560.0,0.125,95,92.0
7130,G5,560.0,0.5,95,92.0
7131,G6,560.0,0.5,95,92.0
7132,F#2,560.0,0.25,102,92.0
7133,B1,560.0,0.25,102,92.0
7134,A4,560.25,0.125,95,92.0
7135,D5,560.5,0.125,95,92.0
7136,F#2,560.5,0.25,85,92.0
7137,E5,560.5,0.25,96,92.0
7138,E6,560.5,0.25,96,92.0
7139,A2,560.75,0.25,110,92.0
7140,C5,560.75,0.125,95,92.0
7141,C5,560.75,2.25,97,92.0
7142,C6,560.75,2.25,97,92.0
7143,D3,561.0,0.25,110,92.0
7144,D4,561.0,0.125,95,92.0
7145,F#2,561.0,0.25,102,92.0
7146,E2,561.0,0.25,102,92.0
7147,C3,561.25,0.25,110,92.0
7148,A4,561.25,0.125,95,92.0
7149,F4,561.5,0.125,95,92.0
7150,F#2,561.5,0.25,85,92.0
7151,A2,561.75,0.25,110,92.0
7152,D5,561.75,0.125,95,92.0
7153,B1,561.75,0.25,120,92.0
7154,C5,561.75,0.5,105,92.0
7155,C4,561.75,0.5,105,92.0
7156,E4,561.75,0.5,105,92.0
7157,G4,561.75,0.5,105,92.0
7158,D4,562.0,0.125,95,92.0
7159,F#2,562.0,0.25,85,92.0
7160,F2,562.25,0.25,110,92.0
7161,C5,562.25,0.125,95,92.0
7162,D5,562.25,3/40,105,92.0
7163,F4,562.25,3/40,105,92.0
7164,A4,562.25,3/40,105,92.0
7165,C4,562.25,3/40,105,92.0
7166,D2,562.5,0.25,110,92.0
7167,E5,562.5,0.125,95,92.0
7168,F#2,562.5,0.25,85,92.0
7169,C4,562.75,23/40,105,92.0
7170,G4,562.75,0.125,95,92.0
7171,B1,562.75,0.25,120,92.0
7172,D5,562.75,1.0,105,92.0
7173,F4,562.75,1.0,105,92.0
7174,A4,562.75,1.0,105,92.0
7175,A4,563.0,2.0,105,92.0
7176,D3,563.0,124/125,110,92.0
7177,D4,563.0,0.125,95,92.0
7178,A4,563.0,0.25,110,92.0
7179,C4,563.0,2.0,105,92.0
7180,D4,563.0,2.0,105,92.0
7181,E2,563.0,0.25,102,92.0
7182,F#2,563.0,0.25,102,92.0
7183,G4,563.242,3/40,105,92.0
7184,E5,563.242,3/40,105,92.0
7185,B4,563.242,3/40,105,92.0
7186,E4,563.242,3/40,105,92.0
7187,C4,563.25,0.5,105,92.0
7188,A4,563.25,0.125,95,92.0
7189,B-4,563.25,0.25,110,92.0
7190,E2,563.25,0.25,120,92.0
7191,D5,563.5,0.125,95,92.0
7192,A4,563.5,0.25,110,92.0
7193,F#2,563.5,0.25,85,92.0
7194,C4,563.75,79/500,105,92.0
7195,F4,563.75,0.125,95,92.0
7196,F4,563.75,0.25,110,92.0
7197,B1,563.75,0.25,120,92.0
7198,E5,563.75,1.25,105,92.0
7199,E4,563.75,1.25,105,92.0
7200,G4,563.75,1.25,105,92.0
7201,B4,563.75,1.25,105,92.0
7202,E-2,564.0,1.75,110,92.0
7203,G4,564.0,0.125,95,92.0
7204,G4,564.0,4.0,110,92.0
7205,B-2,564.0,0.25,102,92.0
7206,B1,564.0,0.25,102,92.0
7207,D5,564.25,0.125,95,92.0
7208,F4,564.5,0.125,95,92.0
7209,D4,564.5,0.25,105,92.0
7210,D5,564.5,0.25,105,92.0
7211,G4,564.75,0.125,95,92.0
7212,B1,564.75,0.25,120,92.0
7213,C4,564.75,0.25,105,92.0
7214,C5,564.75,0.25,105,92.0
7215,B4,565.0,0.5,105,92.0
7216,A4,565.0,4.0,105,92.0
7217,E-5,565.0,0.125,95,92.0
7218,E-3,565.0,1.0,105,92.0
7219,C4,565.0,4.0,105,92.0
7220,D4,565.0,4.0,105,92.0
7221,E2,565.0,0.25,102,92.0
7222,F#2,565.0,0.25,102,92.0
7223,F4,565.25,0.125,95,92.0
7224,G4,565.5,0.25,105,92.0
7225,G4,565.5,0.125,95,92.0
7226,F#2,565.5,0.25,85,92.0
7227,E-2,565.75,0.25,110,92.0
7228,A4,565.75,3.25,105,92.0
7229,F5,565.75,0.125,95,92.0
7230,E-2,566.0,2.0,110,92.0
7231,F4,566.0,0.125,95,92.0
7232,E-3,566.0,1.0,105,92.0
7233,E4,566.0,1.0,105,92.0
7234,G4,566.0,1.0,105,92.0
7235,C5,566.0,1.0,105,92.0
7236,F#2,566.0,0.25,102,92.0
7237,B1,566.0,0.25,102,92.0
7238,G4,566.25,0.125,95,92.0
7239,B1,566.25,0.25,120,92.0
7240,E-5,566.5,0.125,95,92.0
7241,F#2,566.5,0.25,85,92.0
7242,F4,566.75,0.125,95,92.0
7243,B1,566.75,0.25,120,92.0
7244,G4,567.0,0.125,95,92.0
7245,E-3,567.0,1.0,105,92.0
7246,F#2,567.0,0.25,102,92.0
7247,E2,567.0,0.25,102,92.0
7248,D5,567.25,0.125,95,92.0
7249,F4,567.5,0.125,95,92.0
7250,F#2,567.5,0.25,85,92.0
7251,G4,567.75,0.125,95,92.0
7252,A4,567.75,11/20,105,92.0
7253,G4,567.75,11/20,105,92.0
7254,C4,567.75,11/20,105,92.0
7255,D4,567.75,11/20,105,92.0
7256,E-2,568.0,0.25,110,92.0
7257,G4,568.0,0.125,95,92.0
7258,E-3,568.0,1.0,105,92.0
7259,F#2,568.0,0.25,102,92.0
7260,B1,568.0,0.25,102,92.0
7261,C4,568.242,3/40,105,92.0
7262,E4,568.242,3/40,105,92.0
7263,G4,568.242,3/40,105,92.0
7264,B4,568.242,3/40,105,92.0
7265,E-2,568.25,0.25,110,92.0
7266,D5,568.25,0.125,95,92.0
7267,F4,568.5,0.125,95,92.0
7268,F#2,568.5,0.25,85,92.0
7269,E-2,568.75,2.5,110,92.0
7270,G4,568.75,0.125,95,92.0
7271,B1,568.75,0.25,120,92.0
7272,B4,568.75,0.5,105,92.0
7273,C4,568.75,0.5,105,92.0
7274,E4,568.75,0.5,105,92.0
7275,G4,568.75,0.5,105,92.0
7276,E-5,569.0,0.125,95,92.0
7277,E-3,569.0,1.0,105,92.0
7278,F#2,569.0,0.25,102,92.0
7279,E2,569.0,0.25,102,92.0
7280,F4,569.25,0.125,95,92.0
7281,C5,569.25,3/40,105,92.0
7282,D4,569.25,3/40,105,92.0
7283,F4,569.25,3/40,105,92.0
7284,A4,569.25,3/40,105,92.0
7285,G4,569.5,0.125,95,92.0
7286,F#2,569.5,0.25,85,92.0
7287,D4,569.742,1.25,105,92.0
7288,F4,569.742,1.25,105,92.0
7289,C5,569.742,1.25,105,92.0
7290,A4,569.742,1.25,105,92.0
7291,D5,569.75,0.125,95,92.0
7292,F4,570.0,0.125,95,92.0
7293,E-3,570.0,1.0,105,92.0
7294,B1,570.0,0.25,102,92.0
7295,F#2,570.0,0.25,102,92.0
7296,G4,570.25,0.125,95,92.0
7297,F5,570.5,0.125,95,92.0
7298,F#2,570.5,0.25,85,92.0
7299,F4,570.75,0.125,95,92.0
7300,B1,570.75,0.25,120,92.0
7301,A4,571.0,2.0,105,92.0
7302,G4,571.0,0.125,95,92.0
7303,E-3,571.0,1.0,105,92.0
7304,C4,571.0,2.0,105,92.0
7305,D4,571.0,2.0,105,92.0
7306,E2,571.0,0.25,102,92.0
7307,F#2,571.0,0.25,102,92.0
7308,E-5,571.25,0.125,95,92.0
7309,G4,571.25,0.25,110,92.0
7310,E2,571.25,0.25,120,92.0
7311,F4,571.5,0.125,95,92.0
7312,A4,571.5,0.25,110,92.0
7313,B1,571.5,0.25,102,92.0
7314,F#2,571.5,0.25,102,92.0
7315,G4,571.75,0.125,95,92.0
7316,B-4,571.75,0.25,110,92.0
7317,C5,571.75,0.5,105,92.0
7318,C4,571.75,0.5,105,92.0
7319,E4,571.75,0.5,105,92.0
7320,G4,571.75,0.5,105,92.0
7321,D2,572.0,0.25,110,92.0
7322,F#4,572.0,0.125,95,92.0
7323,A4,572.0,0.5,110,92.0
7324,E-4,572.0,4.0,120,92.0
7325,G4,572.0,4.0,120,92.0
7326,B-4,572.0,4.0,120,92.0
7327,D5,572.0,4.0,120,92.0
7328,F#2,572.0,0.25,102,92.0
7329,B1,572.0,0.25,102,92.0
7330,C#5,572.25,0.125,95,92.0
7331,D5,572.25,3/40,105,92.0
7332,F4,572.25,3/40,105,92.0
7333,A4,572.25,3/40,105,92.0
7334,C4,572.25,3/40,105,92.0
7335,E4,572.5,0.125,95,92.0
7336,G4,572.5,0.25,110,92.0
7337,F#2,572.5,0.25,85,92.0
7338,C4,572.75,23/40,105,92.0
7339,D2,572.75,1.25,110,92.0
7340,F#4,572.75,0.125,95,92.0
7341,F#4,572.75,0.25,110,92.0
7342,D5,572.75,1.0,105,92.0
7343,F4,572.75,1.0,105,92.0
7344,A4,572.75,1.0,105,92.0
7345,B1,572.75,0.25,115,92.0
7346,C#3,572.75,0.25,115,92.0
7347,D5,573.0,0.125,95,92.0
7348,G4,573.242,3/40,105,92.0
7349,E5,573.242,3/40,105,92.0
7350,B4,573.242,3/40,105,92.0
7351,E4,573.242,3/40,105,92.0
7352,C4,573.25,0.5,105,92.0
7353,E4,573.25,0.125,95,92.0
7354,F#4,573.5,0.125,95,92.0
7355,F#2,573.5,0.25,85,92.0
7356,C4,573.75,79/500,105,92.0
7357,D2,573.75,0.25,110,92.0
7358,D3,573.75,151/125,112,92.0
7359,E5,573.75,0.125,95,92.0
7360,E5,573.75,1.25,105,92.0
7361,E4,573.75,1.25,105,92.0
7362,G4,573.75,1.25,105,92.0
7363,B4,573.75,1.25,105,92.0
7364,D2,574.0,2.0,110,92.0
7365,A4,574.0,479/500,112,92.0
7366,E4,574.0,0.125,95,92.0
7367,E-3,574.0,1.0,105,92.0
7368,F#2,574.0,0.25,102,92.0
7369,B1,574.0,0.25,102,92.0
7370,B-4,574.25,717/1000,91,92.0
7371,F#4,574.25,0.125,95,92.0
7372,A4,574.5,467/1000,91,92.0
7373,D5,574.5,0.125,95,92.0
7374,F#2,574.5,0.25,85,92.0
7375,D4,574.5,0.25,105,92.0
7376,D5,574.5,0.25,105,92.0
7377,F4,574.75,217/1000,106,92.0
7378,E4,574.75,0.125,95,92.0
7379,B1,574.75,0.25,120,92.0
7380,C4,574.75,0.25,105,92.0
7381,C5,574.75,0.25,105,92.0
7382,B4,575.0,0.5,105,92.0
7383,A4,575.0,4.0,105,92.0
7384,B-4,575.0,4.0,110,92.0
7385,G4,575.0,3267/1000,110,92.0
7386,E-2,575.0,4.0,106,92.0
7387,G3,575.0,2583/1000,91,92.0
7388,F#4,575.0,0.125,95,92.0
7389,E-3,575.0,1.0,105,92.0
7390,C4,575.0,4.0,105,92.0
7391,D4,575.0,4.0,105,92.0
7392,B-3,575.0,3.0,102,92.0
7393,D4,575.0,3.0,102,92.0
7394,F#2,575.0,0.25,102,92.0
7395,E2,575.0,0.25,102,92.0
7396,C#5,575.25,0.125,95,92.0
7397,G4,575.5,0.25,105,92.0
7398,E-3,575.5,1633/1000,49,92.0
7399,E4,575.5,0.125,95,92.0
7400,F#2,575.5,0.25,102,92.0
7401,B1,575.5,0.25,102,92.0
7402,A4,575.75,3.25,105,92.0
7403,F#4,575.75,0.125,95,92.0
7404,D2,576.0,0.5,110,92.0
7405,F#4,576.0,0.125,95,92.0
7406,E-3,576.0,1.0,105,92.0
7407,F#2,576.0,0.25,102,92.0
7408,B1,576.0,0.25,102,92.0
7409,C#5,576.25,0.125,95,92.0
7410,E4,576.5,0.125,95,92.0
7411,F#2,576.5,0.25,85,92.0
7412,D2,576.75,0.25,110,92.0
7413,F#4,576.75,0.125,95,92.0
7414,E2,577.0,0.25,110,92.0
7415,D5,577.0,0.125,95,92.0
7416,E-3,577.0,1.0,105,92.0
7417,F#2,577.0,0.25,102,92.0
7418,E2,577.0,0.25,102,92.0
7419,E2,577.25,0.25,110,92.0
7420,E-3,577.25,1.75,96,92.0
7421,E4,577.25,0.125,95,92.0
7422,B1,577.25,0.25,120,92.0
7423,F#4,577.5,0.125,95,92.0
7424,F#2,577.5,0.25,85,92.0
7425,E2,577.75,0.25,110,92.0
7426,G3,577.75,1.25,84,92.0
7427,C#5,577.75,0.125,95,92.0
7428,E2,577.75,0.25,120,92.0
7429,F#2,578.0,0.25,110,92.0
7430,E4,578.0,0.125,95,92.0
7431,E-3,578.0,1.0,105,92.0
7432,B1,578.0,0.25,102,92.0
7433,F#2,578.0,0.25,102,92.0
7434,F#2,578.25,0.25,110,92.0
7435,D4,578.25,0.75,88,92.0
7436,F#4,578.25,0.125,95,92.0
7437,B1,578.25,0.25,120,92.0
7438,E5,578.5,0.125,95,92.0
7439,F#2,578.5,0.25,85,92.0
7440,F#2,578.75,0.25,110,92.0
7441,F4,578.75,0.25,96,92.0
7442,E4,578.75,0.125,95,92.0
7443,E2,578.75,0.25,120,92.0
7444,B1,578.75,0.25,120,92.0
7445,A2,579.0,0.5,110,92.0
7446,D4,579.0,823/250,88,92.0
7447,F4,579.0,33/10,96,92.0
7448,E-2,579.0,107/40,106,92.0
7449,G3,579.0,127/40,84,92.0
7450,E-3,579.0,723/250,96,92.0
7451,F#4,579.0,0.125,95,92.0
7452,A4,579.0,0.25,110,92.0
7453,E2,579.0,0.25,102,92.0
7454,F#2,579.0,0.25,102,92.0
7455,D5,579.25,0.125,95,92.0
7456,B-4,579.25,0.25,110,92.0
7457,D2,579.5,0.5,110,92.0
7458,E4,579.5,0.125,95,92.0
7459,A4,579.5,0.25,110,92.0
7460,E2,579.5,0.25,108,92.0
7461,B-2,579.5,0.25,108,92.0
7462,B1,579.5,0.25,108,92.0
7463,F#4,579.75,0.125,95,92.0
7464,F4,579.75,0.25,110,92.0
7465,E-2,580.0,0.5,110,92.0
7466,G4,580.0,0.125,95,92.0
7467,G4,580.0,4.0,110,92.0
7468,B-2,580.0,1.0,105,92.0
7469,B1,580.0,0.25,120,92.0
7470,E-4,580.0,4.0,120,92.0
7471,G4,580.0,4.0,120,92.0
7472,B-4,580.0,4.0,120,92.0
7473,D5,580.0,4.0,120,92.0
7474,D5,580.25,0.125,95,92.0
7475,F4,580.5,0.125,95,92.0
7476,F#2,580.5,0.25,85,92.0
7477,E-3,580.75,1.0,110,92.0
7478,G4,580.75,0.125,95,92.0
7479,E-5,580.75,3.25,115,92.0
7480,B1,580.75,0.25,115,92.0
7481,C#3,580.75,0.25,115,92.0
7482,A4,581.0,2.0,105,92.0
7483,E-5,581.0,0.125,95,92.0
7484,F#2,581.0,0.25,85,92.0
7485,E-3,581.0,1.0,105,92.0
7486,C4,581.0,2.0,105,92.0
7487,D4,581.0,2.0,105,92.0
7488,F4,581.25,0.125,95,92.0
7489,G4,581.5,0.125,95,92.0
7490,F#2,581.5,0.25,85,92.0
7491,E-2,581.75,49/40,126,92.0
7492,F5,581.75,0.125,95,92.0
7493,B1,581.75,0.25,120,92.0
7494,E-3,582.0,0.25,110,92.0
7495,E-3,582.0,39/40,127,92.0
7496,F4,582.0,0.125,95,92.0
7497,E-3,582.0,1.0,105,92.0
7498,F#2,582.0,0.25,102,92.0
7499,B1,582.0,0.25,102,92.0
7500,C3,582.25,0.25,110,92.0
7501,G4,582.25,29/40,121,92.0
7502,G4,582.25,0.125,95,92.0
7503,A4,582.5,19/40,85,92.0
7504,E-5,582.5,0.125,95,92.0
7505,F#2,582.5,0.25,85,92.0
7506,E-2,582.75,1.25,110,92.0
7507,B-4,582.75,9/40,102,92.0
7508,F4,582.75,0.125,95,92.0
7509,D3,583.0,424/125,115,92.0
7510,G4,583.0,0.125,95,92.0
7511,E-3,583.0,1.0,105,92.0
7512,E4,583.0,1071/500,102,92.0
7513,A4,583.0,1071/500,102,92.0
7514,C#5,583.0,1071/500,102,92.0
7515,F#2,583.0,0.25,102,92.0
7516,E2,583.0,0.25,102,92.0
7517,A3,583.25,0.5,93,92.0
7518,D5,583.25,0.125,95,92.0
7519,D4,583.5,0.25,109,92.0
7520,F4,583.5,0.125,95,92.0
7521,F#2,583.5,0.25,102,92.0
7522,B1,583.5,0.25,102,92.0
7523,D3,583.75,151/125,112,92.0
7524,F#4,583.75,3133/1000,109,92.0
7525,G4,583.75,0.125,95,92.0
7526,D3,583.75,3.0,110,92.0
7527,A3,583.75,3.0,110,92.0
7528,D4,583.75,3.0,110,92.0
7529,A4,584.0,479/500,112,92.0
7530,E-2,584.0,0.25,110,92.0
7531,G4,584.0,0.125,95,92.0
7532,E-5,584.0,3.0,115,92.0
7533,E-3,584.0,1.0,105,92.0
7534,D4,584.0,4.0,120,92.0
7535,C#5,584.0,4.0,120,92.0
7536,F#4,584.0,4.0,120,92.0
7537,A4,584.0,4.0,120,92.0
7538,F#2,584.0,0.25,102,92.0
7539,B1,584.0,0.25,102,92.0
7540,B-4,584.25,717/1000,91,92.0
7541,E-2,584.25,0.25,110,92.0
7542,D5,584.25,0.125,95,92.0
7543,A4,584.5,467/1000,91,92.0
7544,F4,584.5,0.125,95,92.0
7545,F#2,584.5,0.25,85,92.0
7546,F4,584.75,217/1000,106,92.0
7547,E-2,584.75,3.0,110,92.0
7548,G4,584.75,0.125,95,92.0
7549,B-4,585.0,4.0,110,92.0
7550,G4,585.0,3267/1000,110,92.0
7551,E-2,585.0,4.0,106,92.0
7552,G3,585.0,2583/1000,91,92.0
7553,E-5,585.0,0.125,95,92.0
7554,E-3,585.0,1.0,105,92.0
7555,B-3,585.0,3.0,102,92.0
7556,D4,585.0,3.0,102,92.0
7557,F#2,585.0,0.25,102,92.0
7558,E2,585.0,0.25,102,92.0
7559,F4,585.25,0.125,95,92.0
7560,E-3,585.5,1633/1000,49,92.0
7561,G4,585.5,0.125,95,92.0
7562,F#2,585.5,0.25,85,92.0
7563,D5,585.75,0.125,95,92.0
7564,B1,585.75,0.25,120,92.0
7565,F4,586.0,0.125,95,92.0
7566,F#2,586.0,0.25,85,92.0
7567,E-3,586.0,1.0,105,92.0
7568,G4,586.25,0.125,95,92.0
7569,D3,586.5,0.5,88,92.0
7570,F5,586.5,0.125,95,92.0
7571,B1,586.5,0.25,102,92.0
7572,F#2,586.5,0.25,102,92.0
7573,F4,586.75,0.125,95,92.0
7574,B1,586.75,0.25,120,92.0
7575,D4,587.0,139/40,90,92.0
7576,A4,587.0,149/40,90,92.0
7577,G4,587.0,0.125,95,92.0
7578,E-3,587.0,1.0,105,92.0
7579,F#4,587.0,4.0,90,92.0
7580,C#5,587.0,4.0,90,92.0
7581,E2,587.0,0.25,102,92.0
7582,F#2,587.0,0.25,102,92.0
7583,E-3,587.25,1.75,96,92.0
7584,E-5,587.25,0.125,95,92.0
7585,G4,587.25,0.25,110,92.0
7586,F4,587.5,0.125,95,92.0
7587,A4,587.5,0.25,110,92.0
7588,B1,587.5,0.25,102,92.0
7589,F#2,587.5,0.25,102,92.0
7590,G3,587.75,1.25,84,92.0
7591,G4,587.75,0.125,95,92.0
7592,B-4,587.75,0.25,110,92.0
7593,D2,588.0,0.25,110,92.0
7594,F#4,588.0,0.125,95,92.0
7595,A4,588.0,0.5,110,92.0
7596,G3,588.0,1.0,105,92.0
7597,F#2,588.0,0.25,102,92.0
7598,B1,588.0,0.25,102,92.0
7599,D4,588.25,0.75,88,92.0
7600,C#5,588.25,0.125,95,92.0
7601,E4,588.5,0.125,95,92.0
7602,G4,588.5,0.25,110,92.0
7603,F#2,588.5,0.25,85,92.0
7604,F4,588.75,0.25,96,92.0
7605,D3,588.75,1.25,110,92.0
7606,F#4,588.75,0.125,95,92.0
7607,F#4,588.75,3.25,110,92.0
7608,B1,588.75,0.25,115,92.0
7609,C#3,588.75,0.25,115,92.0
7610,D4,589.0,823/250,88,92.0
7611,F4,589.0,33/10,96,92.0
7612,E-2,589.0,107/40,106,92.0
7613,G3,589.0,127/40,84,92.0
7614,E-3,589.0,723/250,96,92.0
7615,D5,589.0,0.125,95,92.0
7616,F#2,589.0,0.25,85,92.0
7617,E-3,589.0,1.0,105,92.0
7618,E4,589.25,0.125,95,92.0
7619,F#4,589.5,0.125,95,92.0
7620,F#2,589.5,0.25,85,92.0
7621,D4,589.75,1.25,121,92.0
7622,E5,589.75,0.125,95,92.0
7623,D3,590.0,0.25,110,92.0
7624,A4,590.0,1.0,121,92.0
7625,E4,590.0,0.125,95,92.0
7626,E-3,590.0,1.0,105,92.0
7627,F#2,590.0,0.25,102,92.0
7628,B1,590.0,0.25,102,92.0
7629,C#3,590.25,0.25,110,92.0
7630,B-4,590.25,29/40,121,92.0
7631,F#4,590.25,0.125,95,92.0
7632,A4,590.5,0.5,121,92.0
7633,D5,590.5,0.125,95,92.0
7634,F#2,590.5,0.25,85,92.0
7635,A2,590.75,0.25,110,92.0
7636,F4,590.75,0.25,121,92.0
7637,E4,590.75,0.125,95,92.0
7638,B1,590.75,0.25,120,92.0
7639,E-3,591.0,823/250,112,92.0
7640,F#4,591.0,0.125,95,92.0
7641,E-3,591.0,1.0,105,92.0
7642,E-4,591.0,0.5,121,92.0
7643,G4,591.0,0.5,121,92.0
7644,F#2,591.0,0.25,102,92.0
7645,E2,591.0,0.25,102,92.0
7646,D2,591.25,0.25,110,92.0
7647,B-3,591.25,2283/1000,85,92.0
7648,C#5,591.25,0.125,95,92.0
7649,F#2,591.5,0.25,110,92.0
7650,E-4,591.5,12/5,119,92.0
7651,E4,591.5,0.125,95,92.0
7652,F#2,591.5,0.25,102,92.0
7653,B1,591.5,0.25,102,92.0
7654,D4,591.733,1079/500,106,92.0
7655,E-5,591.733,1079/500,106,92.0
7656,B-4,591.733,1079/500,106,92.0
7657,F4,591.733,1079/500,106,92.0
7658,E-2,591.75,49/40,126,92.0
7659,F#4,591.75,0.125,95,92.0
7660,E-3,592.0,39/40,127,92.0
7661,D2,592.0,0.5,110,92.0
7662,F#4,592.0,0.125,95,92.0
7663,E-3,592.0,1.0,105,92.0
7664,D4,592.0,4.0,120,92.0
7665,C#5,592.0,4.0,120,92.0
7666,F#4,592.0,4.0,120,92.0
7667,A4,592.0,4.0,120,92.0
7668,F#2,592.0,0.25,102,92.0
7669,B1,592.0,0.25,102,92.0
7670,G4,592.25,29/40,121,92.0
7671,C#5,592.25,0.125,95,92.0
7672,A4,592.5,19/40,85,92.0
7673,E4,592.5,0.125,95,92.0
7674,F#2,592.5,0.25,85,92.0
7675,B-4,592.75,9/40,102,92.0
7676,D2,592.75,0.25,110,92.0
7677,F#4,592.75,0.125,95,92.0
7678,D3,593.0,424/125,115,92.0
7679,E2,593.0,0.25,110,92.0
7680,D5,593.0,0.125,95,92.0
7681,E-3,593.0,1.0,105,92.0
7682,E4,593.0,1071/500,102,92.0
7683,A4,593.0,1071/500,102,92.0
7684,C#5,593.0,1071/500,102,92.0
7685,F#2,593.0,0.25,102,92.0
7686,E2,593.0,0.25,102,92.0
7687,A3,593.25,0.5,93,92.0
7688,E2,593.25,0.25,110,92.0
7689,E4,593.25,0.125,95,92.0
7690,D4,593.5,0.25,109,92.0
7691,F#4,593.5,0.125,95,92.0
7692,F#2,593.5,0.25,85,92.0
7693,F#4,593.75,3133/1000,109,92.0
7694,E2,593.75,0.25,110,92.0
7695,B-3,593.75,271/500,106,92.0
7696,C#5,593.75,0.125,95,92.0
7697,B1,593.75,0.25,120,92.0
7698,D3,593.75,3.0,110,92.0
7699,A3,593.75,3.0,110,92.0
7700,D4,593.75,3.0,110,92.0
7701,F#2,594.0,0.25,110,92.0
7702,E4,594.0,0.125,95,92.0
7703,B-2,594.0,0.25,85,92.0
7704,D5,594.0,73/250,98,92.0
7705,F4,594.0,73/250,98,92.0
7706,E-4,594.0,73/250,98,92.0
7707,B-4,594.0,73/250,98,92.0
7708,F#2,594.25,0.25,110,92.0
7709,F#4,594.25,0.125,95,92.0
7710,E2,594.25,0.25,120,92.0
7711,E-3,594.5,0.5,99,92.0
7712,E-4,594.5,0.5,96,92.0
7713,E5,594.5,0.125,95,92.0
7714,B1,594.5,0.25,110,92.0
7715,E-5,594.5,0.5,110,92.0
7716,G4,594.5,0.5,110,92.0
7717,F#2,594.75,0.25,110,92.0
7718,E4,594.75,0.125,95,92.0
7719,E2,594.75,0.25,120,92.0
7720,A2,595.0,0.5,110,92.0
7721,E-3,595.0,1829/500,99,92.0
7722,E-4,595.0,223/250,96,92.0
7723,F#4,595.0,0.125,95,92.0
7724,E2,595.0,0.25,120,92.0
7725,E-5,595.0,1333/1000,110,92.0
7726,G4,595.0,1333/1000,110,92.0
7727,D5,595.25,0.125,95,92.0
7728,B1,595.25,0.25,120,92.0
7729,D2,595.5,0.5,110,92.0
7730,E4,595.5,0.125,95,92.0
7731,B1,595.5,0.25,120,92.0
7732,F#4,595.75,0.125,95,92.0
7733,D2,596.0,0.5,110,92.0
7734,D4,596.0,0.125,95,92.0
7735,E-4,596.0,4.0,120,92.0
7736,D5,596.0,4.0,120,92.0
7737,G4,596.0,4.0,120,92.0
7738,B-4,596.0,4.0,120,92.0
7739,C#3,596.0,0.25,105,92.0
7740,F#2,596.0,0.25,105,92.0
7741,B1,596.0,0.25,105,92.0
7742,A4,596.25,0.125,95,92.0
7743,D3,596.5,0.5,88,92.0
7744,D5,596.5,0.125,95,92.0
7745,F#2,596.5,0.25,85,92.0
7746,D2,596.75,0.25,110,92.0
7747,A4,596.75,0.125,95,92.0
7748,A4,596.75,0.5,110,92.0
7749,D4,597.0,139/40,90,92.0
7750,A4,597.0,149/40,90,92.0
7751,A2,597.0,0.25,110,92.0
7752,D4,597.0,0.125,95,92.0
7753,F#4,597.0,4.0,90,92.0
7754,C#5,597.0,4.0,90,92.0
7755,F#2,597.0,0.25,102,92.0
7756,E2,597.0,0.25,102,92.0
7757,A2,597.25,0.25,110,92.0
7758,A4,597.25,0.125,95,92.0
7759,B4,597.25,0.25,110,92.0
7760,E5,597.5,0.125,95,92.0
7761,F#2,597.5,0.25,85,92.0
7762,D2,597.75,0.25,110,92.0
7763,C5,597.75,0.125,95,92.0
7764,B4,597.75,0.5,110,92.0
7765,B1,597.75,0.25,120,92.0
7766,D4,598.0,0.125,95,92.0
7767,F#2,598.0,0.25,85,92.0
7768,F2,598.25,0.25,110,92.0
7769,G4,598.25,0.75,106,92.0
7770,A4,598.25,0.125,95,92.0
7771,C5,598.25,0.25,110,92.0
7772,D2,598.5,0.25,110,92.0
7773,A4,598.5,0.5,106,92.0
7774,C5,598.5,0.125,95,92.0
7775,F#2,598.5,0.25,85,92.0
7776,B-4,598.75,0.25,106,92.0
7777,G4,598.75,0.125,95,92.0
7778,C5,598.75,1.0,110,92.0
7779,B1,598.75,0.25,120,92.0
7780,A2,599.0,0.25,110,92.0
7781,A4,599.0,2.0,106,92.0
7782,D3,599.0,424/125,115,92.0
7783,D4,599.0,0.125,95,92.0
7784,E2,599.0,0.25,102,92.0
7785,F#2,599.0,0.25,102,92.0
7786,A3,599.25,2267/1000,93,92.0
7787,A4,599.25,0.125,95,92.0
7788,C2,599.5,0.25,110,92.0
7789,D4,599.5,1179/500,109,92.0
7790,D5,599.5,0.125,95,92.0
7791,B1,599.5,0.25,102,92.0
7792,F#2,599.5,0.25,102,92.0
7793,D4,599.75,1.25,121,92.0
7794,F4,599.75,0.125,95,92.0
7795,C#5,599.75,2083/1000,102,92.0
7796,E4,599.75,2083/1000,102,92.0
7797,A4,599.75,2083/1000,102,92.0
7798,A4,600.0,1.0,121,92.0
7799,D2,600.0,0.5,110,92.0
7800,D4,600.0,0.125,95,92.0
7801,F#2,600.0,0.25,102,92.0
7802,B1,600.0,0.25,102,92.0
7803,B-4,600.25,29/40,121,92.0
7804,A4,600.25,0.125,95,92.0
7805,A4,600.5,0.5,121,92.0
7806,D5,600.5,0.125,95,92.0
7807,F#2,600.5,0.25,85,92.0
7808,F4,600.75,0.25,121,92.0
7809,D2,600.75,0.25,110,92.0
7810,C5,600.75,0.125,95,92.0
7811,C5,600.75,0.5,110,92.0
7812,E-3,601.0,823/250,112,92.0
7813,A2,601.0,0.25,110,92.0
7814,D4,601.0,0.125,95,92.0
7815,E-4,601.0,0.5,121,92.0
7816,G4,601.0,0.5,121,92.0
7817,F#2,601.0,0.25,102,92.0
7818,E2,601.0,0.25,102,92.0
7819,B-3,601.25,2283/1000,85,92.0
7820,A2,601.25,0.25,110,92.0
7821,A4,601.25,0.125,95,92.0
7822,D5,601.25,0.25,110,92.0
7823,E-4,601.5,12/5,119,92.0
7824,F4,601.5,0.125,95,92.0
7825,F#2,601.5,0.25,85,92.0
7826,D4,601.733,1079/500,106,92.0
7827,E-5,601.733,1079/500,106,92.0
7828,B-4,601.733,1079/500,106,92.0
7829,F4,601.733,1079/500,106,92.0
7830,D2,601.75,0.25,110,92.0
7831,A3,601.75,2/5,112,92.0
7832,D5,601.75,0.125,95,92.0
7833,D5,601.75,0.5,110,92.0
7834,B1,601.75,0.25,120,92.0
7835,D4,602.0,1.0,106,92.0
7836,A4,602.0,1.0,109,92.0
7837,D4,602.0,0.125,95,92.0
7838,F#2,602.0,0.25,85,92.0
7839,C#5,602.0,3/10,86,92.0
7840,E4,602.0,3/10,86,92.0
7841,F2,602.25,0.25,110,92.0
7842,A3,602.25,0.75,102,92.0
7843,C5,602.25,0.125,95,92.0
7844,E5,602.25,0.25,110,92.0
7845,D2,602.5,0.25,110,92.0
7846,D5,602.5,0.5,109,92.0
7847,F#4,602.5,0.5,102,92.0
7848,D3,602.5,0.125,88,92.0
7849,E5,602.5,0.125,95,92.0
7850,F#2,602.5,0.25,85,92.0
7851,G4,602.75,0.125,95,92.0
7852,E5,602.75,1.0,110,92.0
7853,B1,602.75,0.25,120,92.0
7854,A2,603.0,0.25,110,92.0
7855,D3,603.0,4.0,112,92.0
7856,A3,603.0,29/500,102,92.0
7857,D5,603.0,2633/1000,109,92.0
7858,F#4,603.0,567/1000,102,92.0
7859,D4,603.0,367/1000,106,92.0
7860,A4,603.0,117/40,109,92.0
7861,D4,603.0,0.125,95,92.0
7862,E2,603.0,0.25,102,92.0
7863,F#2,603.0,0.25,102,92.0
7864,A4,603.25,0.125,95,92.0
7865,C3,603.5,0.25,110,92.0
7866,D5,603.5,0.125,95,92.0
7867,D5,603.5,0.25,110,92.0
7868,B1,603.5,0.25,102,92.0
7869,F#2,603.5,0.25,102,92.0
7870,B-3,603.75,271/500,106,92.0
7871,F4,603.75,0.125,95,92.0
7872,C5,603.75,0.25,110,92.0
7873,D2,604.0,0.5,110,92.0
7874,D4,604.0,0.125,95,92.0
7875,B4,604.0,0.5,110,92.0
7876,D5,604.0,73/250,98,92.0
7877,F4,604.0,73/250,98,92.0
7878,E-4,604.0,73/250,98,92.0
7879,B-4,604.0,73/250,98,92.0
7880,E-4,604.0,4.0,120,92.0
7881,D5,604.0,4.0,120,92.0
7882,G4,604.0,4.0,120,92.0
7883,B-4,604.0,4.0,120,92.0
7884,F#2,604.0,0.25,102,92.0
7885,B1,604.0,0.25,102,92.0
7886,A4,604.25,0.125,95,92.0
7887,E-3,604.5,0.5,99,92.0
7888,E-4,604.5,0.5,96,92.0
7889,D5,604.5,0.125,95,92.0
7890,G4,604.5,0.25,110,92.0
7891,F#2,604.5,0.25,85,92.0
7892,E-5,604.5,0.5,110,92.0
7893,G4,604.5,0.5,110,92.0
7894,A2,604.75,0.25,110,92.0
7895,A4,604.75,0.125,95,92.0
7896,A4,604.75,1.25,110,92.0
7897,E-3,605.0,1829/500,99,92.0
7898,E-4,605.0,223/250,96,92.0
7899,D3,605.0,0.25,110,92.0
7900,D4,605.0,0.125,95,92.0
7901,E-5,605.0,1333/1000,110,92.0
7902,G4,605.0,1333/1000,110,92.0
7903,F#2,605.0,0.25,102,92.0
7904,E2,605.0,0.25,102,92.0
7905,C3,605.25,0.25,110,92.0
7906,A4,605.25,0.125,95,92.0
7907,E5,605.5,0.125,95,92.0
7908,F#2,605.5,0.25,85,92.0
7909,A2,605.75,0.25,110,92.0
7910,C5,605.75,0.125,95,92.0
7911,B1,605.75,0.25,120,92.0
7912,D4,606.0,0.125,95,92.0
7913,F#2,606.0,0.25,85,92.0
7914,F2,606.25,0.25,110,92.0
7915,A4,606.25,0.125,95,92.0
7916,D5,606.25,1.75,110,92.0
7917,D2,606.5,0.25,110,92.0
7918,C5,606.5,0.125,95,92.0
7919,C5,606.5,1.5,110,92.0
7920,F#2,606.5,0.25,85,92.0
7921,G4,606.75,0.125,95,92.0
7922,B1,606.75,0.25,120,92.0
7923,A1,607.0,0.25,110,92.0
7924,D4,607.0,0.125,95,92.0
7925,E2,607.0,0.25,102,92.0
7926,F#2,607.0,0.25,102,92.0
7927,A4,607.25,0.125,95,92.0
7928,A4,607.25,0.75,110,92.0
7929,C2,607.5,0.25,110,92.0
7930,D5,607.5,0.125,95,92.0
7931,B1,607.5,0.25,102,92.0
7932,F#2,607.5,0.25,102,92.0
7933,F4,607.75,0.125,95,92.0
7934,A4,607.75,11/20,105,92.0
7935,G4,607.75,11/20,105,92.0
7936,C4,607.75,11/20,105,92.0
7937,D4,607.75,11/20,105,92.0
7938,D2,608.0,0.5,110,92.0
7939,D4,608.0,0.125,95,92.0
7940,D5,608.0,0.5,110,92.0
7941,C5,608.0,0.75,110,92.0
7942,A4,608.0,1.5,110,92.0
7943,C#5,608.0,4.0,120,92.0
7944,D4,608.0,4.0,120,92.0
7945,F#4,608.0,4.0,120,92.0
7946,A4,608.0,4.0,120,92.0
7947,F#2,608.0,0.25,102,92.0
7948,B1,608.0,0.25,102,92.0
7949,C4,608.242,3/40,105,92.0
7950,E4,608.242,3/40,105,92.0
7951,G4,608.242,3/40,105,92.0
7952,B4,608.242,3/40,105,92.0
7953,G4,608.25,0.75,106,92.0
7954,A4,608.25,0.125,95,92.0
7955,A4,608.5,0.5,106,92.0
7956,D5,608.5,0.125,95,92.0
7957,G4,608.5,0.25,110,92.0
7958,F#2,608.5,0.25,85,92.0
7959,B-4,608.75,0.25,106,92.0
7960,A2,608.75,0.25,110,92.0
7961,C5,608.75,0.125,95,92.0
7962,D4,608.75,2.25,110,92.0
7963,B4,608.75,0.5,105,92.0
7964,C4,608.75,0.5,105,92.0
7965,E4,608.75,0.5,105,92.0
7966,G4,608.75,0.5,105,92.0
7967,A4,609.0,2.0,106,92.0
7968,D3,609.0,424/125,115,92.0
7969,D3,609.0,0.25,110,92.0
7970,D4,609.0,0.125,95,92.0
7971,F#2,609.0,0.25,102,92.0
7972,E2,609.0,0.25,102,92.0
7973,A3,609.25,2267/1000,93,92.0
7974,C3,609.25,0.25,110,92.0
7975,A4,609.25,0.125,95,92.0
7976,C5,609.25,3/40,105,92.0
7977,D4,609.25,3/40,105,92.0
7978,F4,609.25,3/40,105,92.0
7979,A4,609.25,3/40,105,92.0
7980,D4,609.5,1179/500,109,92.0
7981,F4,609.5,0.125,95,92.0
7982,F#2,609.5,0.25,85,92.0
7983,D4,609.742,1.25,105,92.0
7984,F4,609.742,1.25,105,92.0
7985,C5,609.742,1.25,105,92.0
7986,A4,609.742,1.25,105,92.0
7987,A2,609.75,0.25,110,92.0
7988,D5,609.75,0.125,95,92.0
7989,B1,609.75,0.25,120,92.0
7990,C#5,609.75,2083/1000,102,92.0
7991,E4,609.75,2083/1000,102,92.0
7992,A4,609.75,2083/1000,102,92.0
7993,D4,610.0,0.125,95,92.0
7994,F#2,610.0,0.25,85,92.0
7995,E3,610.25,0.25,110,92.0
7996,C5,610.25,0.125,95,92.0
7997,D3,610.5,0.25,110,92.0
7998,E5,610.5,0.125,95,92.0
7999,F#2,610.5,0.25,85,92.0
8000,G4,610.75,0.125,95,92.0
8001,B1,610.75,0.25,120,92.0
8002,A1,611.0,0.25,110,92.0
8003,D4,611.0,0.125,95,92.0
8004,E2,611.0,0.25,102,92.0
8005,F#2,611.0,0.25,102,92.0
8006,A4,611.25,0.125,95,92.0
8007,C2,611.5,0.25,110,92.0
8008,D5,611.5,0.125,95,92.0
8009,B-2,611.5,0.25,102,92.0
8010,B1,611.5,0.25,102,92.0
8011,A3,611.75,2/5,112,92.0
8012,F4,611.75,0.125,95,92.0
8013,C5,611.75,0.5,105,92.0
8014,C4,611.75,0.5,105,92.0
8015,E4,611.75,0.5,105,92.0
8016,G4,611.75,0.5,105,92.0
8017,D4,612.0,1.0,106,92.0
8018,A4,612.0,1.0,109,92.0
8019,D2,612.0,0.5,110,92.0
8020,D4,612.0,0.125,95,92.0
8021,C#5,612.0,3/10,86,92.0
8022,E4,612.0,3/10,86,92.0
8023,F#2,612.0,0.25,102,92.0
8024,B1,612.0,0.25,102,92.0
8025,A3,612.25,0.75,102,92.0
8026,A4,612.25,0.125,95,92.0
8027,D5,612.25,3/40,105,92.0
8028,F4,612.25,3/40,105,92.0
8029,A4,612.25,3/40,105,92.0
8030,C4,612.25,3/40,105,92.0
8031,D5,612.5,0.5,109,92.0
8032,F#4,612.5,0.5,102,92.0
8033,D3,612.5,0.125,88,92.0
8034,D5,612.5,0.125,95,92.0
8035,F#2,612.5,0.25,85,92.0
8036,D2,612.75,0.25,110,92.0
8037,C4,612.75,23/40,105,92.0
8038,A4,612.75,0.125,95,92.0
8039,A4,612.75,0.5,110,92.0
8040,D5,612.75,1.0,105,92.0
8041,F4,612.75,1.0,105,92.0
8042,A4,612.75,1.0,105,92.0
8043,D3,613.0,4.0,112,92.0
8044,A3,613.0,29/500,102,92.0
8045,D5,613.0,2633/1000,109,92.0
8046,F#4,613.0,567/1000,102,92.0
8047,D4,613.0,367/1000,106,92.0
8048,A4,613.0,117/40,109,92.0
8049,A2,613.0,0.25,110,92.0
8050,D4,613.0,0.125,95,92.0
8051,F#2,613.0,0.25,102,92.0
8052,E2,613.0,0.25,102,92.0
8053,G4,613.242,3/40,105,92.0
8054,E5,613.242,3/40,105,92.0
8055,B4,613.242,3/40,105,92.0
8056,E4,613.242,3/40,105,92.0
8057,A2,613.25,0.25,110,92.0
8058,C4,613.25,0.5,105,92.0
8059,A4,613.25,0.125,95,92.0
8060,B4,613.25,0.25,110,92.0
8061,E5,613.5,0.125,95,92.0
8062,F#2,613.5,0.25,85,92.0
8063,D2,613.75,0.25,110,92.0
8064,C4,613.75,79/500,105,92.0
8065,C5,613.75,0.125,95,92.0
8066,B4,613.75,0.5,110,92.0
8067,B1,613.75,0.25,120,92.0
8068,E5,613.75,1.25,105,92.0
8069,E4,613.75,1.25,105,92.0
8070,G4,613.75,1.25,105,92.0
8071,B4,613.75,1.25,105,92.0
8072,D4,614.0,0.125,95,92.0
8073,F#2,614.0,0.25,85,92.0
8074,F2,614.25,0.25,110,92.0
8075,A4,614.25,0.125,95,92.0
8076,C5,614.25,0.25,110,92.0
8077,D2,614.5,0.25,110,92.0
8078,C5,614.5,0.125,95,92.0
8079,F#2,614.5,0.25,85,92.0
8080,D4,614.5,0.25,105,92.0
8081,D5,614.5,0.25,105,92.0
8082,G4,614.75,0.125,95,92.0
8083,C5,614.75,1.0,110,92.0
8084,B1,614.75,0.25,120,92.0
8085,C4,614.75,0.25,105,92.0
8086,C5,614.75,0.25,105,92.0
8087,A2,615.0,0.25,110,92.0
8088,B4,615.0,0.5,105,92.0
8089,C4,615.0,4.0,105,92.0
8090,D4,615.0,4.0,105,92.0
8091,A4,615.0,4.0,105,92.0
8092,D4,615.0,0.125,95,92.0
8093,E2,615.0,0.25,102,92.0
8094,F#2,615.0,0.25,102,92.0
8095,A4,615.25,0.125,95,92.0
8096,C2,615.5,0.25,110,92.0
8097,G4,615.5,0.25,105,92.0
8098,D5,615.5,0.125,95,92.0
8099,B1,615.5,0.25,102,92.0
8100,F#2,615.5,0.25,102,92.0
8101,A4,615.75,3.25,105,92.0
8102,F4,615.75,0.125,95,92.0
8103,D2,616.0,0.5,110,92.0
8104,D4,616.0,0.125,95,92.0
8105,C#5,616.0,4.0,120,92.0
8106,D4,616.0,4.0,120,92.0
8107,F#4,616.0,4.0,120,92.0
8108,A4,616.0,4.0,120,92.0
8109,F#2,616.0,0.25,102,92.0
8110,B1,616.0,0.25,102,92.0
8111,A4,616.25,0.125,95,92.0
8112,D5,616.5,0.125,95,92.0
8113,F#2,616.5,0.25,85,92.0
8114,D2,616.75,0.25,110,92.0
8115,C5,616.75,0.125,95,92.0
8116,C5,616.75,0.5,110,92.0
8117,A2,617.0,0.25,110,92.0
8118,D4,617.0,0.125,95,92.0
8119,F#2,617.0,0.25,102,92.0
8120,E2,617.0,0.25,102,92.0
8121,A2,617.25,0.25,110,92.0
8122,A4,617.25,0.125,95,92.0
8123,D5,617.25,0.25,110,92.0
8124,F4,617.5,0.125,95,92.0
8125,F#2,617.5,0.25,85,92.0
8126,D2,617.75,0.25,110,92.0
8127,D5,617.75,0.125,95,92.0
8128,D5,617.75,0.5,110,92.0
8129,B1,617.75,0.25,120,92.0
8130,A4,617.75,11/20,105,92.0
8131,G4,617.75,11/20,105,92.0
8132,C4,617.75,11/20,105,92.0
8133,D4,617.75,11/20,105,92.0
8134,D4,618.0,0.125,95,92.0
8135,F#2,618.0,0.25,85,92.0
8136,C4,618.242,3/40,105,92.0
8137,E4,618.242,3/40,105,92.0
8138,G4,618.242,3/40,105,92.0
8139,B4,618.242,3/40,105,92.0
8140,F2,618.25,0.25,110,92.0
8141,C5,618.25,0.125,95,92.0
8142,E5,618.25,0.25,110,92.0
8143,D2,618.5,0.25,110,92.0
8144,E5,618.5,0.125,95,92.0
8145,F#2,618.5,0.25,85,92.0
8146,G4,618.75,0.125,95,92.0
8147,E5,618.75,1.0,110,92.0
8148,B1,618.75,0.25,120,92.0
8149,B4,618.75,0.5,105,92.0
8150,C4,618.75,0.5,105,92.0
8151,E4,618.75,0.5,105,92.0
8152,G4,618.75,0.5,105,92.0
8153,A2,619.0,0.25,110,92.0
8154,A4,619.0,0.5,105,92.0
8155,C4,619.0,0.5,105,92.0
8156,D4,619.0,0.75,105,92.0
8157,D4,619.0,0.125,95,92.0
8158,E2,619.0,0.25,102,92.0
8159,F#2,619.0,0.25,102,92.0
8160,A4,619.25,0.125,95,92.0
8161,C5,619.25,3/40,105,92.0
8162,D4,619.25,3/40,105,92.0
8163,F4,619.25,3/40,105,92.0
8164,A4,619.25,3/40,105,92.0
8165,C4,619.25,1.75,105,92.0
8166,A4,619.25,1.75,105,92.0
8167,C2,619.5,0.25,110,92.0
8168,D4,619.5,1.25,105,92.0
8169,C5,619.5,0.25,105,92.0
8170,D5,619.5,0.125,95,92.0
8171,D5,619.5,0.25,110,92.0
8172,B1,619.5,0.25,102,92.0
8173,F#2,619.5,0.25,102,92.0
8174,D4,619.742,1.25,105,92.0
8175,F4,619.742,1.25,105,92.0
8176,C5,619.742,1.25,105,92.0
8177,A4,619.742,1.25,105,92.0
8178,F4,619.75,0.125,95,92.0
8179,C5,619.75,0.25,110,92.0
8180,G4,619.75,0.75,105,92.0
8181,G5,619.75,0.75,105,92.0
8182,D2,620.0,0.5,110,92.0
8183,D4,620.0,0.125,95,92.0
8184,B4,620.0,0.5,110,92.0
8185,F#2,620.0,0.25,102,92.0
8186,B1,620.0,0.25,102,92.0
8187,A4,620.25,0.125,95,92.0
8188,E4,620.25,0.25,105,92.0
8189,E5,620.25,0.25,105,92.0
8190,D4,620.5,0.5,105,92.0
8191,C5,620.5,0.25,105,92.0
8192,D5,620.5,0.125,95,92.0
8193,G4,620.5,0.25,110,92.0
8194,F#2,620.5,0.25,85,92.0
8195,A2,620.75,0.25,110,92.0
8196,A4,620.75,0.125,95,92.0
8197,A4,620.75,1.25,110,92.0
8198,A4,620.75,1.25,105,92.0
8199,C4,620.75,1.25,105,92.0
8200,D3,621.0,0.25,110,92.0
8201,D4,621.0,0.125,95,92.0
8202,F#2,621.0,0.25,102,92.0
8203,E2,621.0,0.25,102,92.0
8204,C3,621.25,0.25,110,92.0
8205,A4,621.25,0.125,95,92.0
8206,E5,621.5,0.125,95,92.0
8207,B1,621.5,0.25,102,92.0
8208,F#2,621.5,0.25,102,92.0
8209,A2,621.75,0.25,110,92.0
8210,D3,621.75,151/125,112,92.0
8211,C5,621.75,0.125,95,92.0
8212,C5,621.75,0.5,105,92.0
8213,C4,621.75,0.5,105,92.0
8214,E4,621.75,0.5,105,92.0
8215,G4,621.75,0.5,105,92.0
8216,A3,622.0,479/500,112,92.0
8217,D4,622.0,0.125,95,92.0
8218,F#2,622.0,0.25,85,92.0
8219,F2,622.25,0.25,110,92.0
8220,C4,622.25,717/1000,91,92.0
8221,A4,622.25,0.125,95,92.0
8222,B1,622.25,0.25,120,92.0
8223,D5,622.25,3/40,105,92.0
8224,F4,622.25,3/40,105,92.0
8225,A4,622.25,3/40,105,92.0
8226,C4,622.25,3/40,105,92.0
8227,D2,622.5,0.25,110,92.0
8228,F4,622.5,467/1000,91,92.0
8229,C5,622.5,0.125,95,92.0
8230,F#2,622.5,0.25,85,92.0
8231,C4,622.75,23/40,105,92.0
8232,A4,622.75,217/1000,106,92.0
8233,G4,622.75,0.125,95,92.0
8234,B1,622.75,0.25,120,92.0
8235,D5,622.75,1.0,105,92.0
8236,F4,622.75,1.0,105,92.0
8237,A4,622.75,1.0,105,92.0
8238,A1,623.0,0.25,110,92.0
8239,D4,623.0,0.125,95,92.0
8240,E2,623.0,0.25,102,92.0
8241,F#2,623.0,0.25,102,92.0
8242,G4,623.242,3/40,105,92.0
8243,E5,623.242,3/40,105,92.0
8244,B4,623.242,3/40,105,92.0
8245,E4,623.242,3/40,105,92.0
8246,C4,623.25,0.5,105,92.0
8247,A4,623.25,0.125,95,92.0
8248,C2,623.5,0.25,110,92.0
8249,D5,623.5,0.125,95,92.0
8250,B1,623.5,0.25,102,92.0
8251,F#2,623.5,0.25,102,92.0
8252,C4,623.75,79/500,105,92.0
8253,F4,623.75,0.125,95,92.0
8254,E5,623.75,1.25,105,92.0
8255,E4,623.75,1.25,105,92.0
8256,G4,623.75,1.25,105,92.0
8257,B4,623.75,1.25,105,92.0
8258,A4,623.75,11/20,105,92.0
8259,G4,623.75,11/20,105,92.0
8260,C4,623.75,11/20,105,92.0
8261,D4,623.75,11/20,105,92.0
8262,D2,624.0,0.5,110,92.0
8263,D4,624.0,0.125,95,92.0
8264,F#2,624.0,0.25,102,92.0
8265,B1,624.0,0.25,102,92.0
8266,C4,624.242,3/40,105,92.0
8267,E4,624.242,3/40,105,92.0
8268,G4,624.242,3/40,105,92.0
8269,B4,624.242,3/40,105,92.0
8270,A4,624.25,0.125,95,92.0
8271,D5,624.5,0.125,95,92.0
8272,F#2,624.5,0.25,85,92.0
8273,D4,624.5,0.25,105,92.0
8274,D5,624.5,0.25,105,92.0
8275,A2,624.75,0.25,110,92.0
8276,C5,624.75,0.125,95,92.0
8277,C4,624.75,0.25,105,92.0
8278,C5,624.75,0.25,105,92.0
8279,B4,624.75,0.5,105,92.0
8280,C4,624.75,0.5,105,92.0
8281,E4,624.75,0.5,105,92.0
8282,G4,624.75,0.5,105,92.0
8283,B4,625.0,0.5,105,92.0
8284,C4,625.0,4.0,105,92.0
8285,D4,625.0,4.0,105,92.0
8286,A4,625.0,4.0,105,92.0
8287,D3,625.0,0.25,110,92.0
8288,D4,625.0,0.125,95,92.0
8289,F#2,625.0,0.25,102,92.0
8290,E2,625.0,0.25,102,92.0
8291,C3,625.25,0.25,110,92.0
8292,A4,625.25,0.125,95,92.0
8293,C5,625.25,3/40,105,92.0
8294,D4,625.25,3/40,105,92.0
8295,F4,625.25,3/40,105,92.0
8296,A4,625.25,3/40,105,92.0
8297,G4,625.5,0.25,105,92.0
8298,F4,625.5,0.125,95,92.0
8299,F#2,625.5,0.25,85,92.0
8300,D4,625.742,1.25,105,92.0
8301,F4,625.742,1.25,105,92.0
8302,C5,625.742,1.25,105,92.0
8303,A4,625.742,1.25,105,92.0
8304,A4,625.75,3.25,105,92.0
8305,D2,625.75,2.0,110,92.0
8306,D5,625.75,0.125,95,92.0
8307,B1,625.75,0.25,120,92.0
8308,D4,626.0,0.125,95,92.0
8309,B-2,626.0,0.25,85,92.0
8310,C5,626.25,0.125,95,92.0
8311,E5,626.5,0.125,95,92.0
8312,E2,626.5,0.25,120,92.0
8313,G4,626.75,0.125,95,92.0
8314,A1,627.0,0.25,110,92.0
8315,D4,627.0,0.125,95,92.0
8316,A4,627.0,0.25,110,92.0
8317,E2,627.0,0.25,120,92.0
8318,A4,627.25,0.125,95,92.0
8319,B-4,627.25,0.25,110,92.0
8320,E2,627.25,0.25,120,92.0
8321,C2,627.5,0.25,110,92.0
8322,D5,627.5,0.125,95,92.0
8323,A4,627.5,0.25,110,92.0
8324,F4,627.75,0.125,95,92.0
8325,F4,627.75,0.25,110,92.0
8326,B1,627.75,0.25,120,92.0
8327,C5,627.75,0.5,105,92.0
8328,C4,627.75,0.5,105,92.0
8329,E4,627.75,0.5,105,92.0
8330,G4,627.75,0.5,105,92.0
8331,E-2,628.0,0.5,110,92.0
8332,G4,628.0,0.125,95,92.0
8333,G4,628.0,4.0,110,92.0
8334,G3,628.0,1.0,105,92.0
8335,B1,628.0,0.25,120,92.0
8336,D5,628.25,0.125,95,92.0
8337,D5,628.25,3/40,105,92.0
8338,F4,628.25,3/40,105,92.0
8339,A4,628.25,3/40,105,92.0
8340,C4,628.25,3/40,105,92.0
8341,F4,628.5,0.125,95,92.0
8342,E2,628.5,0.25,120,92.0
8343,E-2,628.75,2.0,110,92.0
8344,C4,628.75,23/40,105,92.0
8345,G4,628.75,0.125,95,92.0
8346,D5,628.75,1.0,105,92.0
8347,F4,628.75,1.0,105,92.0
8348,A4,628.75,1.0,105,92.0
8349,B1,628.75,0.25,115,92.0
8350,C#3,628.75,0.25,115,92.0
8351,A4,629.0,0.5,105,92.0
8352,C4,629.0,0.5,105,92.0
8353,D4,629.0,0.75,105,92.0
8354,E-5,629.0,0.125,95,92.0
8355,G4,629.242,3/40,105,92.0
8356,E5,629.242,3/40,105,92.0
8357,B4,629.242,3/40,105,92.0
8358,E4,629.242,3/40,105,92.0
8359,C4,629.25,0.5,105,92.0
8360,F4,629.25,0.125,95,92.0
8361,C4,629.25,1.75,105,92.0
8362,A4,629.25,1.75,105,92.0
8363,D4,629.5,1.25,105,92.0
8364,C5,629.5,0.25,105,92.0
8365,G4,629.5,0.125,95,92.0
8366,F#2,629.5,0.25,85,92.0
8367,C4,629.75,79/500,105,92.0
8368,F5,629.75,0.125,95,92.0
8369,G4,629.75,0.75,105,92.0
8370,G5,629.75,0.75,105,92.0
8371,E5,629.75,1.25,105,92.0
8372,E4,629.75,1.25,105,92.0
8373,G4,629.75,1.25,105,92.0
8374,B4,629.75,1.25,105,92.0
8375,F4,630.0,0.125,95,92.0
8376,E-3,630.0,1.0,105,92.0
8377,F#2,630.0,0.25,102,92.0
8378,B1,630.0,0.25,102,92.0
8379,G4,630.25,0.125,95,92.0
8380,E4,630.25,0.25,105,92.0
8381,E5,630.25,0.25,105,92.0
8382,D4,630.5,0.5,105,92.0
8383,C5,630.5,0.25,105,92.0
8384,E-5,630.5,0.125,95,92.0
8385,B-2,630.5,0.25,85,92.0
8386,D4,630.5,0.25,105,92.0
8387,D5,630.5,0.25,105,92.0
8388,E-2,630.75,1.0,110,92.0
8389,F4,630.75,0.125,95,92.0
8390,B1,630.75,0.25,120,92.0
8391,A4,630.75,1.25,105,92.0
8392,C4,630.75,1.25,105,92.0
8393,C4,630.75,0.25,105,92.0
8394,C5,630.75,0.25,105,92.0
8395,B4,631.0,0.5,105,92.0
8396,D4,631.0,1.75,110,92.0
8397,A4,631.0,1.0,110,92.0
8398,D3,631.0,3883/1000,115,92.0
8399,G4,631.0,0.125,95,92.0
8400,E-3,631.0,1.0,105,92.0
8401,C4,631.0,1.5,111,92.0
8402,A4,631.0,1.5,111,92.0
8403,C4,631.0,2.0,112,92.0
8404,D4,631.0,2.0,112,92.0
8405,F#2,631.0,0.25,102,92.0
8406,E2,631.0,0.25,102,92.0
8407,D5,631.25,0.125,95,92.0
8408,G4,631.5,0.25,105,92.0
8409,F4,631.5,0.125,95,92.0
8410,F#2,631.5,0.25,102,92.0
8411,B1,631.5,0.25,102,92.0
8412,D3,631.75,151/125,112,92.0
8413,A4,631.75,1.25,105,92.0
8414,G4,631.75,0.125,95,92.0
8415,A3,632.0,479/500,112,92.0
8416,E-2,632.0,0.25,110,92.0
8417,G4,632.0,0.125,95,92.0
8418,G4,632.0,3.0,110,92.0
8419,B1,632.0,0.25,102,92.0
8420,F#2,632.0,0.25,102,92.0
8421,C4,632.25,717/1000,91,92.0
8422,D5,632.25,0.125,95,92.0
8423,C4,632.25,2.75,105,92.0
8424,A4,632.25,2.75,105,92.0
8425,F4,632.5,467/1000,91,92.0
8426,D4,632.5,2.0,105,92.0
8427,C5,632.5,0.25,105,92.0
8428,F4,632.5,0.125,95,92.0
8429,B-2,632.5,0.25,85,92.0
8430,A4,632.75,217/1000,106,92.0
8431,E-2,632.75,2.75,110,92.0
8432,G4,632.75,0.125,95,92.0
8433,B1,632.75,0.25,120,92.0
8434,G4,632.75,0.75,105,92.0
8435,G5,632.75,0.75,105,92.0
8436,E-5,633.0,0.125,95,92.0
8437,E2,633.0,0.25,120,92.0
8438,F4,633.25,0.125,95,92.0
8439,E4,633.25,0.25,105,92.0
8440,E5,633.25,0.25,105,92.0
8441,D4,633.5,1.5,105,92.0
8442,C5,633.5,1.0,105,92.0
8443,G4,633.5,0.125,95,92.0
8444,F#2,633.5,0.25,85,92.0
8445,D5,633.75,0.125,95,92.0
8446,A4,633.75,11/20,105,92.0
8447,G4,633.75,11/20,105,92.0
8448,C4,633.75,11/20,105,92.0
8449,D4,633.75,11/20,105,92.0
8450,E2,633.75,0.25,120,92.0
8451,B1,633.75,0.25,120,92.0
8452,F4,634.0,0.125,95,92.0
8453,E2,634.0,0.25,120,92.0
8454,C4,634.242,3/40,105,92.0
8455,E4,634.242,3/40,105,92.0
8456,G4,634.242,3/40,105,92.0
8457,B4,634.242,3/40,105,92.0
8458,G4,634.25,0.125,95,92.0
8459,B-2,634.25,0.25,85,92.0
8460,F5,634.5,0.125,95,92.0
8461,F4,634.75,0.125,95,92.0
8462,B1,634.75,0.25,120,92.0
8463,B4,634.75,0.5,105,92.0
8464,C4,634.75,0.5,105,92.0
8465,E4,634.75,0.5,105,92.0
8466,G4,634.75,0.5,105,92.0
8467,G4,635.0,0.125,95,92.0
8468,F#2,635.0,0.25,102,92.0
8469,E2,635.0,0.25,102,92.0
8470,E-5,635.25,0.125,95,92.0
8471,G4,635.25,0.25,110,92.0
8472,E2,635.25,0.25,120,92.0
8473,C5,635.25,3/40,105,92.0
8474,D4,635.25,3/40,105,92.0
8475,F4,635.25,3/40,105,92.0
8476,A4,635.25,3/40,105,92.0
8477,C4,635.25,0.25,105,92.0
8478,A4,635.25,0.25,105,92.0
8479,F4,635.5,0.125,95,92.0
8480,A4,635.5,0.25,110,92.0
8481,D4,635.5,0.25,105,92.0
8482,C5,635.5,0.25,105,92.0
8483,F#2,635.5,0.25,102,92.0
8484,B1,635.5,0.25,102,92.0
8485,D4,635.742,1.25,105,92.0
8486,F4,635.742,1.25,105,92.0
8487,C5,635.742,1.25,105,92.0
8488,A4,635.742,1.25,105,92.0
8489,G4,635.75,0.125,95,92.0
8490,B-4,635.75,0.25,110,92.0
8491,G4,635.75,0.75,105,92.0
8492,G5,635.75,0.75,105,92.0
8493,D2,636.0,0.25,110,92.0
8494,F#4,636.0,0.125,95,92.0
8495,A4,636.0,0.5,110,92.0
8496,B-2,636.0,0.25,102,92.0
8497,B1,636.0,0.25,102,92.0
8498,C#5,636.25,0.125,95,92.0
8499,E4,636.25,0.25,105,92.0
8500,E5,636.25,0.25,105,92.0
8501,G#4,636.375,0.125,110,92.0
8502,E4,636.5,0.125,95,92.0
8503,G4,636.5,0.25,110,92.0
8504,D4,636.5,0.25,105,92.0
8505,C5,636.5,0.25,105,92.0
8506,D3,636.75,2.25,110,92.0
8507,F#4,636.75,0.125,95,92.0
8508,F#4,636.75,3.25,110,92.0
8509,A4,636.75,1.25,105,92.0
8510,C4,636.75,1.25,105,92.0
8511,B1,636.75,0.25,115,92.0
8512,C#3,636.75,0.25,115,92.0
8513,D5,637.0,0.125,95,92.0
8514,E4,637.25,0.125,95,92.0
8515,F#4,637.5,0.125,95,92.0
8516,F#2,637.5,0.25,85,92.0
8517,D3,637.75,21/20,119,92.0
8518,E5,637.75,0.125,95,92.0
8519,C5,637.75,0.5,105,92.0
8520,C4,637.75,0.5,105,92.0
8521,E4,637.75,0.5,105,92.0
8522,G4,637.75,0.5,105,92.0
8523,A4,638.0,333/1000,110,92.0
8524,E4,638.0,0.125,95,92.0
8525,E-3,638.0,1.0,105,92.0
8526,F#2,638.0,0.25,102,92.0
8527,B1,638.0,0.25,102,92.0
8528,B-4,638.25,333/1000,110,92.0
8529,F#4,638.25,0.125,95,92.0
8530,D5,638.25,3/40,105,92.0
8531,F4,638.25,3/40,105,92.0
8532,A4,638.25,3/40,105,92.0
8533,C4,638.25,3/40,105,92.0
8534,A4,638.5,13/40,110,92.0
8535,D5,638.5,0.125,95,92.0
8536,F#2,638.5,0.25,85,92.0
8537,C4,638.75,23/40,105,92.0
8538,F4,638.75,217/1000,106,92.0
8539,E4,638.75,0.125,95,92.0
8540,B1,638.75,0.25,120,92.0
8541,D5,638.75,1.0,105,92.0
8542,F4,638.75,1.0,105,92.0
8543,A4,638.75,1.0,105,92.0
8544,B-4,639.0,4.0,105,92.0
8545,D4,639.0,4.0,105,92.0
8546,G4,639.0,467/1000,115,92.0
8547,E-2,639.0,4.0,102,92.0
8548,G3,639.0,76/125,95,92.0
8549,F#4,639.0,0.125,95,92.0
8550,E-3,639.0,1.0,105,92.0
8551,F#2,639.0,0.25,102,92.0
8552,E2,639.0,0.25,102,92.0
8553,G4,639.242,3/40,105,92.0
8554,E5,639.242,3/40,105,92.0
8555,B4,639.242,3/40,105,92.0
8556,E4,639.242,3/40,105,92.0
8557,C4,639.25,0.5,105,92.0
8558,D2,639.25,0.25,110,92.0
8559,F4,639.25,3.75,105,92.0
8560,C#5,639.25,0.125,95,92.0
8561,D2,639.5,0.25,110,92.0
8562,D4,639.5,3.5,105,92.0
8563,E4,639.5,0.125,95,92.0
8564,F#2,639.5,0.25,102,92.0
8565,B1,639.5,0.25,102,92.0
8566,C4,639.75,79/500,105,92.0
8567,G3,639.75,3.25,95,92.0
8568,F#4,639.75,0.125,95,92.0
8569,E5,639.75,1.25,105,92.0
8570,E4,639.75,1.25,105,92.0
8571,G4,639.75,1.25,105,92.0
8572,B4,639.75,1.25,105,92.0
8573,D2,640.0,0.5,110,92.0
8574,F#4,640.0,0.125,95,92.0
8575,F#4,640.0,3.0,110,92.0
8576,E-3,640.0,1.0,105,92.0
8577,F#2,640.0,0.25,102,92.0
8578,B1,640.0,0.25,102,92.0
8579,E-3,640.25,2.75,72,92.0
8580,C#5,640.25,0.125,95,92.0
8581,E2,640.25,0.25,121,92.0
8582,E4,640.5,0.125,95,92.0
8583,F#2,640.5,0.25,85,92.0
8584,D4,640.5,0.25,105,92.0
8585,D5,640.5,0.25,105,92.0
8586,D2,640.75,0.25,110,92.0
8587,F#4,640.75,0.125,95,92.0
8588,B1,640.75,0.25,122,92.0
8589,C4,640.75,0.25,105,92.0
8590,C5,640.75,0.25,105,92.0
8591,B4,641.0,0.5,105,92.0
8592,D4,641.0,1.75,110,92.0
8593,A4,641.0,1.0,110,92.0
8594,D3,641.0,3883/1000,115,92.0
8595,E2,641.0,0.25,110,92.0
8596,D5,641.0,0.125,95,92.0
8597,E-3,641.0,1.0,105,92.0
8598,C4,641.0,1.5,111,92.0
8599,A4,641.0,1.5,111,92.0
8600,C4,641.0,2.0,112,92.0
8601,D4,641.0,2.0,112,92.0
8602,E2,641.0,0.25,122,92.0
8603,B-2,641.0,0.25,122,92.0
8604,E2,641.25,0.25,110,92.0
8605,E4,641.25,0.125,95,92.0
8606,F#2,641.25,0.25,90,92.0
8607,G4,641.5,0.25,105,92.0
8608,F#4,641.5,0.125,95,92.0
8609,E2,641.5,0.25,122,92.0
8610,A4,641.75,1.25,105,92.0
8611,E2,641.75,0.25,110,92.0
8612,C#5,641.75,0.125,95,92.0
8613,B1,641.75,0.25,121,92.0
8614,B-2,641.75,0.25,121,92.0
8615,F#2,642.0,0.25,110,92.0
8616,E4,642.0,0.125,95,92.0
8617,F#2,642.0,0.25,122,92.0
8618,F#2,642.25,0.25,110,92.0
8619,F#4,642.25,0.125,95,92.0
8620,E2,642.25,0.25,122,92.0
8621,C4,642.25,2.75,105,92.0
8622,A4,642.25,2.75,105,92.0
8623,D4,642.5,2.0,105,92.0
8624,C5,642.5,0.25,105,92.0
8625,E5,642.5,0.125,95,92.0
8626,B1,642.5,0.25,118,92.0
8627,B-2,642.5,0.25,118,92.0
8628,F#2,642.75,0.25,110,92.0
8629,E4,642.75,0.125,95,92.0
8630,F#2,642.75,0.25,75,92.0
8631,G4,642.75,0.75,105,92.0
8632,G5,642.75,0.75,105,92.0
8633,A2,643.0,0.5,110,92.0
8634,B-4,643.0,67/20,105,92.0
8635,D4,643.0,3.25,105,92.0
8636,D4,643.0,67/20,105,92.0
8637,E-2,643.0,23/10,102,92.0
8638,G3,643.0,827/250,95,92.0
8639,F4,643.0,18/5,105,92.0
8640,E-3,643.0,91/40,72,92.0
8641,F#4,643.0,0.125,95,92.0
8642,A4,643.0,0.25,110,92.0
8643,F#2,643.0,0.25,110,92.0
8644,E2,643.0,0.25,110,92.0
8645,B-2,643.0,0.25,110,92.0
8646,D5,643.25,0.125,95,92.0
8647,B-4,643.25,0.25,110,92.0
8648,E2,643.25,0.25,115,92.0
8649,E4,643.25,0.25,105,92.0
8650,E5,643.25,0.25,105,92.0
8651,D4,643.5,1.5,105,92.0
8652,C5,643.5,1.0,105,92.0
8653,D2,643.5,0.5,110,92.0
8654,E4,643.5,0.125,95,92.0
8655,A4,643.5,0.25,110,92.0
8656,B-2,643.5,0.25,98,92.0
8657,E2,643.5,0.25,98,92.0
8658,F#4,643.75,0.125,95,92.0
8659,F4,643.75,0.25,110,92.0
8660,F#2,643.75,0.25,92,92.0
8661,B1,643.75,0.25,92,92.0
8662,E-2,644.0,0.5,110,92.0
8663,G4,644.0,0.125,95,92.0
8664,G4,644.0,0.75,110,92.0
8665,B-2,644.0,1.0,105,92.0
8666,B1,644.0,0.25,120,92.0
8667,D5,644.25,0.125,95,92.0
8668,F4,644.5,0.125,95,92.0
8669,E2,644.5,0.25,120,92.0
8670,E-3,644.75,1.0,110,92.0
8671,G4,644.75,0.125,95,92.0
8672,E-4,644.75,3.25,110,92.0
8673,B1,644.75,0.25,115,92.0
8674,C#3,644.75,0.25,115,92.0
8675,E-5,645.0,0.125,95,92.0
8676,F4,645.25,0.125,95,92.0
8677,C4,645.25,0.25,105,92.0
8678,A4,645.25,0.25,105,92.0
8679,G4,645.5,0.125,95,92.0
8680,F#2,645.5,0.25,85,92.0
8681,D4,645.5,0.25,105,92.0
8682,C5,645.5,0.25,105,92.0
8683,E-2,645.75,0.25,110,92.0
8684,E-2,645.75,1233/1000,126,92.0
8685,F5,645.75,0.125,95,92.0
8686,B1,645.75,0.25,115,92.0
8687,G4,645.75,0.75,105,92.0
8688,G5,645.75,0.75,105,92.0
8689,E-2,646.0,2.0,110,92.0
8690,E-3,646.0,983/1000,99,92.0
8691,F4,646.0,0.125,95,92.0
8692,E2,646.0,0.25,122,92.0
8693,B-2,646.0,0.25,122,92.0
8694,G4,646.25,371/500,115,92.0
8695,G4,646.25,0.125,95,92.0
8696,G3,646.25,0.25,115,92.0
8697,E4,646.25,0.25,105,92.0
8698,E5,646.25,0.25,105,92.0
8699,A4,646.5,483/1000,95,92.0
8700,E-5,646.5,0.125,95,92.0
8701,D4,646.5,0.25,105,92.0
8702,C5,646.5,0.25,105,92.0
8703,F#2,646.5,0.25,104,92.0
8704,E2,646.5,0.25,104,92.0
8705,B-4,646.75,121/500,88,92.0
8706,F4,646.75,0.125,95,92.0
8707,B1,646.75,0.25,120,92.0
8708,A4,646.75,1.25,105,92.0
8709,C4,646.75,1.25,105,92.0
8710,A4,647.0,483/1000,95,92.0
8711,G4,647.0,0.125,95,92.0
8712,E2,647.0,0.25,122,92.0
8713,D3,647.033,3.5,99,92.0
8714,D5,647.25,0.125,95,92.0
8715,B-2,647.25,0.25,115,92.0
8716,A3,647.283,3717/1000,102,92.0
8717,F4,647.5,0.125,95,92.0
8718,D4,647.525,173/250,112,92.0
8719,F#4,647.542,883/1000,109,92.0
8720,D3,647.75,21/20,119,92.0
8721,A4,647.75,41/20,119,92.0
8722,G4,647.75,0.125,95,92.0
8723,B1,647.75,0.25,115,92.0
8724,A4,648.0,333/1000,110,92.0
8725,E-3,648.0,0.25,110,92.0
8726,G4,648.0,0.125,95,92.0
8727,E-4,648.0,3.0,110,92.0
8728,F#2,648.0,0.25,107,92.0
8729,B1,648.0,0.25,107,92.0
8730,E2,648.0,0.25,107,92.0
8731,B-4,648.25,333/1000,110,92.0
8732,C3,648.25,0.25,110,92.0
8733,D5,648.25,0.125,95,92.0
8734,E2,648.25,0.25,115,92.0
8735,D4,648.308,13/10,122,92.0
8736,A4,648.5,13/40,110,92.0
8737,F3,648.5,0.25,110,92.0
8738,F4,648.5,0.125,95,92.0
8739,F#2,648.5,0.25,85,92.0
8740,F#4,648.525,29/20,99,92.0
8741,F4,648.75,217/1000,106,92.0
8742,E-3,648.75,1.5,110,92.0
8743,G4,648.75,0.125,95,92.0
8744,E2,648.75,0.25,122,92.0
8745,B1,648.75,0.25,122,92.0
8746,A4,648.783,1071/500,119,92.0
8747,B-4,649.0,4.0,105,92.0
8748,D4,649.0,4.0,105,92.0
8749,G4,649.0,467/1000,115,92.0
8750,E-2,649.0,4.0,102,92.0
8751,G3,649.0,76/125,95,92.0
8752,E-5,649.0,0.125,95,92.0
8753,F#2,649.0,0.25,85,92.0
8754,F4,649.25,3.75,105,92.0
8755,F4,649.25,0.125,95,92.0
8756,D4,649.5,3.5,105,92.0
8757,G4,649.5,0.125,95,92.0
8758,F#2,649.5,0.25,115,92.0
8759,G3,649.75,3.25,95,92.0
8760,D5,649.75,0.125,95,92.0
8761,B1,649.75,0.25,122,92.0
8762,D4,649.825,221/500,109,92.0
8763,E-2,650.0,2.0,110,92.0
8764,F4,650.0,0.125,95,92.0
8765,E2,650.0,333/1000,122,92.0
8766,B-2,650.0,0.25,115,92.0
8767,G4,650.05,433/1000,127,92.0
8768,E-3,650.25,2.75,72,92.0
8769,G4,650.25,0.125,95,92.0
8770,F#4,650.275,267/1000,112,92.0
8771,E2,650.333,333/1000,122,92.0
8772,F5,650.5,0.125,95,92.0
8773,E4,650.533,71/500,112,92.0
8774,C3,650.667,333/1000,122,92.0
8775,F4,650.75,0.125,95,92.0
8776,D4,650.8,117/1000,99,92.0
8777,A3,651.0,1/40,102,92.0
8778,G4,651.0,0.125,95,92.0
8779,C3,651.0,333/1000,115,92.0
8780,E4,651.033,1771/500,99,92.0
8781,D3,651.042,3933/1000,96,92.0
8782,C#4,651.05,221/500,88,92.0
8783,E-5,651.25,0.125,95,92.0
8784,G4,651.25,0.25,110,92.0
8785,A3,651.325,101/125,102,92.0
8786,B2,651.333,333/1000,122,92.0
8787,F4,651.5,0.125,95,92.0
8788,A4,651.5,0.25,110,92.0
8789,C#4,651.567,47/20,99,92.0
8790,A2,651.667,333/1000,122,92.0
8791,A4,651.75,127/40,119,92.0
8792,G4,651.75,0.125,95,92.0
8793,B-4,651.75,0.25,110,92.0
8794,D2,652.0,0.25,110,92.0
8795,A4,652.0,0.5,110,92.0
8796,B-2,652.0,1.0,105,92.0
8797,B1,652.0,0.25,121,92.0
8798,G3,652.0,0.25,121,92.0
8799,A3,652.267,176/125,115,92.0
8800,F#2,652.5,0.25,85,92.0
8801,E2,652.5,333/1000,115,92.0
8802,D2,652.75,0.25,110,92.0
8803,G4,652.75,0.5,110,92.0
8804,C#3,652.75,0.25,116,92.0
8805,B1,652.75,0.25,116,92.0
8806,B-4,653.0,67/20,105,92.0
8807,D4,653.0,3.25,105,92.0
8808,D4,653.0,67/20,105,92.0
8809,E-2,653.0,23/10,102,92.0
8810,G3,653.0,827/250,95,92.0
8811,F4,653.0,18/5,105,92.0
8812,E-3,653.0,91/40,72,92.0
8813,E2,653.25,333/1000,115,92.0
8814,D2,653.5,2.5,110,92.0
8815,F#4,653.5,2.5,110,92.0
8816,B1,653.5,0.25,116,92.0
8817,C#3,653.5,0.25,116,92.0
8818,A3,653.783,149/125,106,92.0
8819,A4,654.0,1.0,112,92.0
8820,B-4,654.25,0.75,112,92.0
8821,A4,654.5,0.5,112,92.0
8822,F4,654.75,0.25,112,92.0
8823,E-2,655.0,4.0,106,92.0
8824,G3,655.0,2583/1000,91,92.0
8825,D4,655.0,3.0,102,92.0
8826,F4,655.0,3267/1000,99,92.0
8827,B-4,655.0,0.25,112,92.0
8828,E-3,655.5,1633/1000,49,92.0
8829,E-2,655.75,1233/1000,126,92.0
8830,G4,655.75,127/40,119,92.0
8831,B-4,655.75,127/40,119,92.0
8832,D5,655.75,127/40,119,92.0
8833,E-3,656.0,983/1000,99,92.0
8834,D2,656.0,4.0,110,92.0
8835,F#4,656.0,0.75,110,92.0
8836,G4,656.25,371/500,115,92.0
8837,A4,656.5,483/1000,95,92.0
8838,B-4,656.75,121/500,88,92.0
8839,A4,657.0,483/1000,95,92.0
8840,D3,657.033,3.5,99,92.0
8841,E-3,657.25,1.75,96,92.0
8842,A3,657.283,3717/1000,102,92.0
8843,D4,657.525,173/250,112,92.0
8844,F#4,657.542,883/1000,109,92.0
8845,A4,657.75,41/20,119,92.0
8846,G3,657.75,1.25,84,92.0
8847,D4,658.25,0.75,88,92.0
8848,D4,658.308,13/10,122,92.0
8849,F#4,658.525,29/20,99,92.0
8850,F4,658.75,0.25,96,92.0
8851,A4,658.783,1071/500,119,92.0
8852,E-2,659.0,107/40,106,92.0
8853,G3,659.0,127/40,84,92.0
8854,D4,659.0,823/250,88,92.0
8855,F4,659.0,33/10,96,92.0
8856,E-3,659.0,723/250,96,92.0
8857,D4,659.825,221/500,109,92.0
8858,D2,660.0,1.75,110,92.0
8859,G4,660.05,433/1000,127,92.0
8860,F#4,660.275,267/1000,112,92.0
8861,E4,660.533,71/500,112,92.0
8862,D4,660.8,117/1000,99,92.0
8863,E-4,660.833,2.0,105,92.0
8864,G4,660.833,2.0,105,92.0
8865,B-4,660.95,2.0,105,92.0
8866,D5,660.95,2.0,105,92.0
8867,A3,661.0,1/40,102,92.0
8868,E4,661.033,1771/500,99,92.0
8869,D3,661.042,3933/1000,96,92.0
8870,C#4,661.05,221/500,88,92.0
8871,A3,661.325,101/125,102,92.0
8872,C#4,661.567,47/20,99,92.0
8873,A4,661.75,127/40,119,92.0
8874,E-2,661.75,49/40,126,92.0
8875,E-3,662.0,39/40,127,92.0
8876,G4,662.25,29/40,121,92.0
8877,A3,662.267,176/125,115,92.0
8878,A4,662.5,19/40,85,92.0
8879,B-4,662.75,9/40,102,92.0
8880,D3,663.0,0.5,100,92.0
8881,C#4,663.0,0.5,100,92.0
8882,A4,663.0,0.5,100,92.0
8883,F#4,663.0,0.5,100,92.0
8884,A3,663.75,0.5,100,92.0
8885,C#4,663.75,0.5,100,92.0
8886,E4,663.75,0.5,100,92.0
8887,G4,663.75,0.5,100,92.0
8888,A3,663.783,149/125,106,92.0
8889,A4,664.0,1.0,112,92.0
8890,B-4,664.25,0.75,112,92.0
8891,A4,664.5,0.5,112,92.0
8892,F#3,664.5,2.5,95,92.0
8893,A3,664.5,2.5,95,92.0
8894,D4,664.5,2.5,95,92.0
8895,F#4,664.5,2.5,95,92.0
8896,F4,664.75,0.25,112,92.0
8897,E-2,665.0,4.0,106,92.0
8898,G3,665.0,2583/1000,91,92.0
8899,D4,665.0,3.0,102,92.0
8900,F4,665.0,3267/1000,99,92.0
8901,B-4,665.0,0.25,112,92.0
8902,A3,665.25,1.75,96,92.0
8903,E-3,665.5,1633/1000,49,92.0
8904,C#4,665.75,1.25,84,92.0
8905,G4,665.75,127/40,119,92.0
8906,B-4,665.75,127/40,119,92.0
8907,D5,665.75,127/40,119,92.0
8908,F#4,666.25,0.75,88,92.0
8909,A4,666.75,0.25,96,92.0
8910,A3,667.0,723/250,96,92.0
8911,C#4,667.0,127/40,84,92.0
8912,F#4,667.0,823/250,88,92.0
8913,A4,667.0,973/250,96,92.0
8914,F#3,667.0,1.75,95,92.0
8915,A3,667.0,1.75,95,92.0
8916,D4,667.0,1.75,95,92.0
8917,F#4,667.0,1.75,95,92.0
8918,E-3,667.25,1.75,96,92.0
8919,G3,667.75,1.25,84,92.0
8920,D4,668.25,0.75,88,92.0
8921,F4,668.75,0.25,96,92.0
8922,E4,668.833,2167/1000,100,92.0
8923,A4,668.892,527/250,100,92.0
8924,C#5,668.942,1029/500,100,92.0
8925,F#5,668.942,1029/500,100,92.0
8926,E-2,669.0,107/40,106,92.0
8927,G3,669.0,127/40,84,92.0
8928,D4,669.0,823/250,88,92.0
8929,F4,669.0,33/10,96,92.0
8930,E-3,669.0,723/250,96,92.0
8931,A5,669.117,1883/1000,100,92.0
8932,D3,669.75,49/40,85,92.0
8933,E-4,670.833,2.0,105,92.0
8934,G4,670.833,2.0,105,92.0
8935,B-4,670.95,2.0,105,92.0
8936,D5,670.95,2.0,105,92.0
8937,E4,671.0,1833/1000,100,92.0
8938,A4,671.0,23/10,100,92.0
8939,A5,671.0,2117/1000,100,92.0
8940,C#5,671.0,971/500,100,92.0
8941,F#5,671.0,971/500,100,92.0
8942,E-2,671.75,49/40,126,92.0
8943,E-3,672.0,39/40,127,92.0
8944,G4,672.25,29/40,121,92.0
8945,A4,672.5,19/40,85,92.0
8946,B-4,672.75,9/40,102,92.0
8947,D3,673.0,0.5,100,92.0
8948,C#4,673.0,0.5,100,92.0
8949,A4,673.0,0.5,100,92.0
8950,F#4,673.0,0.5,100,92.0
8951,A3,673.75,0.5,100,92.0
8952,C#4,673.75,0.5,100,92.0
8953,E4,673.75,0.5,100,92.0
8954,G4,673.75,0.5,100,92.0
8955,F#3,674.5,2.5,95,92.0
8956,A3,674.5,2.5,95,92.0
8957,D4,674.5,2.5,95,92.0
8958,F#4,674.5,2.5,95,92.0
8959,A3,675.25,1.75,96,92.0
8960,C#4,675.75,1.25,84,92.0
8961,F#4,676.25,0.75,88,92.0
8962,A4,676.75,0.25,96,92.0
8963,A3,677.0,723/250,96,92.0
8964,C#4,677.0,127/40,84,92.0
8965,F#4,677.0,823/250,88,92.0
8966,A4,677.0,973/250,96,92.0
8967,F#3,677.0,1.75,95,92.0
8968,A3,677.0,1.75,95,92.0
8969,D4,677.0,1.75,95,92.0
8970,F#4,677.0,1.75,95,92.0
8971,E4,678.833,2167/1000,80,92.0
8972,A4,678.892,527/250,84,92.0
8973,C#5,678.942,1029/500,88,92.0
8974,F#5,678.942,1029/500,88,92.0
8975,A5,679.117,1883/1000,80,92.0
8976,D3,679.75,49/40,85,92.0
8977,E4,681.0,1833/1000,80,92.0
8978,A4,681.0,23/10,84,92.0
8979,A5,681.0,2117/1000,80,92.0
8980,C#5,681.0,971/500,88,92.0
8981,F#5,681.0,971/500,88,92.0
8982,E-4,684.0,4.0,120,92.0
8983,G4,684.0,4.0,120,92.0
8984,B-4,684.0,4.0,120,92.0
8985,D5,684.0,4.0,120,92.0
8986,E-4,692.0,4.0,120,92.0
8987,G4,692.0,4.0,120,92.0
8988,B-4,692.0,4.0,120,92.0
8989,D5,692.0,4.0,120,92.0
8990,D4,696.0,4.0,120,92.0
8991,C#5,696.0,4.0,120,92.0
8992,F#4,696.0,4.0,120,92.0
8993,A4,696.0,4.0,120,92.0
8994,D4,704.0,4.0,120,92.0
8995,C#5,704.0,4.0,120,92.0
8996,F#4,704.0,4.0,120,92.0
8997,A4,704.0,4.0,120,92.0
8998,E-4,708.0,4.0,120,92.0
8999,D5,708.0,4.0,120,92.0
9000,G4,708.0,4.0,120,92.0
9001,B-4,708.0,4.0,120,92.0
9002,E-4,716.0,4.0,120,92.0
9003,D5,716.0,4.0,120,92.0
9004,G4,716.0,4.0,120,92.0
9005,B-4,716.0,4.0,120,92.0
9006,C#5,720.0,4.0,120,92.0
9007,D4,720.0,4.0,120,92.0
9008,F#4,720.0,4.0,120,92.0
9009,A4,720.0,4.0,120,92.0
9010,C#5,728.0,4.0,120,92.0
9011,D4,728.0,4.0,120,92.0
9012,F#4,728.0,4.0,120,92.0
9013,A4,728.0,4.0,120,92.0
9014,E-4,764.0,4.0,120,92.0
9015,G4,764.0,4.0,120,92.0
9016,B-4,764.0,4.0,120,92.0
9017,D5,764.0,4.0,120,92.0
9018,E-4,772.0,4.0,120,92.0
9019,G4,772.0,4.0,120,92.0
9020,B-4,772.0,4.0,120,92.0
9021,D5,772.0,4.0,120,92.0
9022,D4,776.0,4.0,120,92.0
9023,C#5,776.0,4.0,120,92.0
9024,F#4,776.0,4.0,120,92.0
9025,A4,776.0,4.0,120,92.0
9026,D4,784.0,4.0,120,92.0
9027,C#5,784.0,4.0,120,92.0
9028,F#4,784.0,4.0,120,92.0
9029,A4,784.0,4.0,120,92.0
9030,E-4,788.0,4.0,120,92.0
9031,D5,788.0,4.0,120,92.0
9032,G4,788.0,4.0,120,92.0
9033,B-4,788.0,4.0,120,92.0
9034,E-4,796.0,4.0,120,92.0
9035,D5,796.0,4.0,120,92.0
9036,G4,796.0,4.0,120,92.0
9037,B-4,796.0,4.0,120,92.0
9038,C#5,800.0,4.0,120,92.0
9039,D4,800.0,4.0,120,92.0
9040,F#4,800.0,4.0,120,92.0
9041,A4,800.0,4.0,120,92.0
9042,C#5,808.0,4.0,120,92.0
9043,D4,808.0,4.0,120,92.0
9044,F#4,808.0,4.0,120,92.0
9045,A4,808.0,4.0,120,92.0
