,note_name,start_time,duration,velocity,tempo
0,G4,3.5,0.5,79,60.0
1,D4,3.5,0.5,79,60.0
2,B-3,3.521,479/1000,79,60.0
3,A3,3.521,479/1000,79,60.0
4,D3,3.542,229/500,79,60.0
5,G2,4.0,1.5,79,60.0
6,D3,4.0,0.5,79,60.0
7,G4,4.0,349/100,79,60.0
8,D4,4.0,349/100,79,60.0
9,B-3,4.0,99/100,79,60.0
10,A3,4.0,99/100,79,60.0
11,D3,4.5,3.5,79,60.0
12,B-3,5.0,1.0,79,60.0
13,A3,5.0,1.0,79,60.0
14,G2,5.5,1.0,79,60.0
15,B-3,6.0,1.0,79,60.0
16,A3,6.0,1.0,79,60.0
17,G2,6.5,1.0,79,60.0
18,B-3,7.0,1.0,79,60.0
19,A3,7.0,1.0,79,60.0
20,F#3,7.25,417/1000,111,60.0
21,G2,7.5,0.5,79,60.0
22,B-3,7.667,167/1000,111,60.0
23,C4,7.833,167/1000,111,60.0
24,G2,8.0,1.5,79,60.0
25,D3,8.0,1.0,79,60.0
26,D4,8.0,0.25,111,60.0
27,G1,8.0,3.5,95,60.0
28,B-3,8.0,1.0,79,60.0
29,A3,8.0,1.0,79,60.0
30,C#4,8.25,3083/1000,111,60.0
31,B-3,9.0,1.0,79,60.0
32,A3,9.0,1.0,79,60.0
33,G2,9.5,1.0,79,60.0
34,B-3,10.0,1.0,79,60.0
35,A3,10.0,1.0,79,60.0
36,G2,10.5,1.0,79,60.0
37,B-3,11.0,1.0,79,60.0
38,A3,11.0,1.0,79,60.0
39,F4,11.333,333/1000,111,60.0
40,G2,11.5,0.5,79,60.0
41,G1,11.5,0.5,95,60.0
42,G4,11.667,167/1000,89,60.0
43,F2,12.0,1.5,79,60.0
44,C#4,12.0,0.125,111,60.0
45,F1,12.0,1.75,95,60.0
46,A3,12.0,1.0,79,60.0
47,G3,12.0,1.0,79,60.0
48,C4,12.125,0.125,89,60.0
49,B-3,12.25,0.25,89,60.0
50,C3,12.5,3.5,79,60.0
51,C4,12.5,2.25,111,60.0
52,A3,13.0,1.0,79,60.0
53,G3,13.0,1.0,79,60.0
54,F2,13.5,1.0,79,60.0
55,C2,13.75,0.25,95,60.0
56,F1,14.0,0.25,95,60.0
57,A3,14.0,1.0,79,60.0
58,G3,14.0,1.0,79,60.0
59,F2,14.5,1.0,79,60.0
60,F1,14.5,0.75,95,60.0
61,B-3,14.75,83/1000,111,60.0
62,C4,14.833,83/1000,89,60.0
63,B-3,14.917,83/1000,89,60.0
64,A3,15.0,333/1000,89,60.0
65,A3,15.0,1.0,79,60.0
66,G3,15.0,1.0,79,60.0
67,D1,15.25,0.75,95,60.0
68,B-3,15.333,333/1000,89,60.0
69,F2,15.5,0.5,79,60.0
70,C4,15.667,333/1000,111,60.0
71,G2,16.0,1.5,79,60.0
72,C3,16.0,0.5,79,60.0
73,G3,16.0,0.5,79,60.0
74,G1,16.0,1.75,95,60.0
75,B-3,16.0,1.0,79,60.0
76,A3,16.0,1.0,79,60.0
77,D3,16.5,3.5,79,60.0
78,B-3,16.5,83/1000,79,60.0
79,A3,16.583,83/1000,63,60.0
80,G3,16.667,83/1000,63,60.0
81,A3,16.75,2.625,63,60.0
82,B-3,17.0,1.0,79,60.0
83,A3,17.0,1.0,79,60.0
84,G2,17.5,1.0,79,60.0
85,D1,17.75,0.25,95,60.0
86,G1,18.0,0.25,95,60.0
87,B-3,18.0,1.0,79,60.0
88,A3,18.0,1.0,79,60.0
89,D1,18.25,0.25,95,60.0
90,G2,18.5,1.0,79,60.0
91,G1,18.5,1.5,95,60.0
92,B-3,19.0,1.0,79,60.0
93,A3,19.0,1.0,79,60.0
94,G2,19.5,0.5,79,60.0
95,G3,19.625,0.375,79,60.0
96,F2,20.0,0.5,79,60.0
97,D3,20.0,0.5,79,60.0
98,G3,20.0,0.25,79,60.0
99,F1,20.0,1.75,95,60.0
100,A3,20.0,1.0,79,60.0
101,G3,20.0,1.0,79,60.0
102,F3,20.25,2.5,79,60.0
103,F2,20.5,1.0,79,60.0
104,A3,21.0,1.0,79,60.0
105,G3,21.0,1.0,79,60.0
106,F2,21.5,1.0,79,60.0
107,C2,21.75,0.25,95,60.0
108,F2,22.0,0.5,95,60.0
109,A3,22.0,1.0,79,60.0
110,G3,22.0,1.0,79,60.0
111,F2,22.5,1.0,79,60.0
112,F1,22.5,0.75,95,60.0
113,G5,22.75,83/1000,79,60.0
114,D5,22.833,83/1000,79,60.0
115,B-4,22.917,83/1000,79,60.0
116,A3,23.0,1.0,79,60.0
117,G3,23.0,1.0,79,60.0
118,G3,23.0,1.0,38,60.0
119,D1,23.25,0.25,95,60.0
120,F2,23.5,0.5,79,60.0
121,F1,23.5,0.25,95,60.0
122,D1,23.75,0.25,95,60.0
123,G2,24.0,4.0,79,60.0
124,A3,24.0,0.75,79,60.0
125,G3,24.0,0.5,79,60.0
126,G1,24.0,1.75,95,60.0
127,D3,24.25,3.75,79,60.0
128,A3,24.5,3.5,79,60.0
129,B-3,24.75,3.25,79,60.0
130,D4,25.0,3.0,79,60.0
131,C#4,25.167,0.5,79,60.0
132,G4,25.667,167/1000,79,60.0
133,D1,25.75,0.25,95,60.0
134,G4,26.0,2.0,79,60.0
135,G1,26.0,0.25,95,60.0
136,G1,26.5,1.5,95,60.0
137,F2,28.0,4.0,79,60.0
138,D3,28.0,0.25,79,60.0
139,A3,28.0,0.5,79,60.0
140,B-3,28.0,0.75,79,60.0
141,D4,28.0,1.0,79,60.0
142,D4,28.0,4.0,79,60.0
143,F1,28.0,1.75,95,60.0
144,C3,28.25,3.75,79,60.0
145,G3,28.5,3.5,79,60.0
146,A3,28.75,3.25,79,60.0
147,C4,29.0,3.0,79,60.0
148,C1,29.75,0.25,95,60.0
149,F1,30.0,0.25,95,60.0
150,F1,30.5,0.5,95,60.0
151,C2,31.0,0.25,95,60.0
152,F1,31.25,0.75,95,60.0
153,G2,32.0,2.75,79,60.0
154,C3,32.0,0.25,79,60.0
155,G3,32.0,0.5,79,60.0
156,A3,32.0,0.75,79,60.0
157,C4,32.0,1.0,79,60.0
158,G1,32.0,1.75,95,60.0
159,D3,32.25,3.5,79,60.0
160,A3,32.5,3.0,79,60.0
161,B-3,32.75,2.5,79,60.0
162,D4,33.0,2.0,79,60.0
163,C#4,33.167,0.5,79,60.0
164,G4,33.667,167/1000,79,60.0
165,D1,33.75,0.25,95,60.0
166,G4,34.0,1.625,79,60.0
167,G1,34.0,0.25,95,60.0
168,G1,34.5,1.5,95,60.0
169,G2,34.75,1.25,79,60.0
170,D4,35.0,1.0,79,60.0
171,B-3,35.25,0.75,79,60.0
172,A3,35.5,0.5,79,60.0
173,B-4,35.625,0.375,63,60.0
174,D3,35.75,0.25,79,60.0
175,F2,36.0,2.75,79,60.0
176,D3,36.0,0.25,79,60.0
177,A3,36.0,0.5,79,60.0
178,B-3,36.0,0.75,79,60.0
179,D4,36.0,1.0,79,60.0
180,G4,36.0,1.0,79,60.0
181,F1,36.0,1.75,95,60.0
182,C3,36.25,3.5,79,60.0
183,G3,36.5,3.0,79,60.0
184,A3,36.75,2.5,79,60.0
185,C4,37.0,2.0,79,60.0
186,F4,37.0,2.5,79,60.0
187,C2,37.75,0.25,95,60.0
188,G2,38.0,0.25,95,60.0
189,C2,38.25,0.25,95,60.0
190,F2,38.5,1.5,95,60.0
191,F2,38.75,1.25,79,60.0
192,C4,39.0,1.0,79,60.0
193,A3,39.25,0.75,79,60.0
194,G3,39.5,0.5,79,60.0
195,E-4,39.5,83/1000,79,60.0
196,F4,39.583,83/1000,63,60.0
197,E-4,39.667,83/1000,63,60.0
198,C3,39.75,0.25,79,60.0
199,D4,39.75,0.25,63,60.0
200,C3,40.0,4.0,79,60.0
201,C3,40.0,2.75,79,60.0
202,E-4,40.0,1.0,79,60.0
203,C2,40.0,1.75,95,60.0
204,B-3,40.01,1.469,65,60.0
205,E-4,40.01,1.469,65,60.0
206,G4,40.01,1.469,65,60.0
207,B-4,41.0,2.5,79,60.0
208,B-3,41.5,2.0,79,60.0
209,E-4,41.51,87/50,79,60.0
210,G4,41.521,1479/1000,79,60.0
211,G1,41.75,0.25,95,60.0
212,C2,42.0,0.25,95,60.0
213,C2,42.5,1.0,95,60.0
214,C3,42.75,1.25,79,60.0
215,G4,43.0,1.0,79,60.0
216,E-4,43.25,0.75,79,60.0
217,B-3,43.5,0.5,79,60.0
218,E-4,43.625,0.375,79,60.0
219,C2,43.75,21/500,95,60.0
220,D3,44.0,2.75,79,60.0
221,F4,44.0,0.75,79,60.0
222,D2,44.0,1.75,95,60.0
223,C4,44.01,1.469,65,60.0
224,F4,44.01,1.469,65,60.0
225,A4,44.01,1.469,65,60.0
226,C5,45.0,1.25,79,60.0
227,C4,45.5,2.25,79,60.0
228,F4,45.51,199/100,79,60.0
229,A4,45.521,1729/1000,79,60.0
230,A1,45.75,0.25,95,60.0
231,D2,46.0,0.25,95,60.0
232,A1,46.25,0.25,95,60.0
233,D2,46.5,0.25,95,60.0
234,D3,46.75,1.25,79,60.0
235,C5,46.75,1.25,79,60.0
236,C5,47.0,1.0,79,60.0
237,D2,47.0,0.25,95,60.0
238,A4,47.25,0.75,79,60.0
239,B-1,47.25,0.75,95,60.0
240,F4,47.5,0.5,79,60.0
241,C4,47.75,0.25,79,60.0
242,G2,48.0,4.0,79,60.0
243,C4,48.0,0.25,79,60.0
244,F4,48.0,0.5,79,60.0
245,A4,48.0,0.75,79,60.0
246,C5,48.0,3.0,79,60.0
247,C5,48.0,1.25,79,60.0
248,G1,48.0,1.75,95,60.0
249,F3,48.25,3.75,79,60.0
250,B-3,48.5,2.5,79,60.0
251,C4,48.75,2.25,79,60.0
252,B-4,49.25,0.5,79,60.0
253,C5,49.75,0.25,79,60.0
254,D1,49.75,0.25,95,60.0
255,B-4,50.0,1.0,79,60.0
256,G1,50.0,0.25,95,60.0
257,G1,50.5,1.5,95,60.0
258,A4,50.75,0.75,79,60.0
259,B-3,51.0,99/100,79,60.0
260,D4,51.0,99/100,79,60.0
261,A4,51.021,229/1000,79,60.0
262,G4,51.25,0.75,63,60.0
263,G#4,51.5,0.25,79,60.0
264,G4,51.75,0.25,79,60.0
265,E3,52.0,2.75,79,60.0
266,G4,52.0,3.0,63,60.0
267,F#4,52.0,1667/1000,79,60.0
268,E1,52.0,1.75,95,60.0
269,B-3,52.01,349/100,79,60.0
270,D4,52.021,3.219,79,60.0
271,G4,52.021,3.219,79,60.0
272,G4,53.667,167/1000,79,60.0
273,E2,53.75,0.25,95,60.0
274,A4,53.833,167/1000,63,60.0
275,D4,54.0,1.5,79,60.0
276,E1,54.0,0.25,95,60.0
277,E1,54.5,1.25,95,60.0
278,E3,54.75,1.25,79,60.0
279,G4,55.0,1.0,79,60.0
280,D4,55.25,0.75,79,60.0
281,B-3,55.5,0.5,79,60.0
282,E1,55.75,0.25,95,60.0
283,E-3,56.0,1.5,79,60.0
284,C#4,56.0,1.0,79,60.0
285,E-1,56.0,1.5,95,60.0
286,B-3,56.01,1.969,79,60.0
287,F#4,56.01,1.969,79,60.0
288,C#4,56.021,979/1000,79,60.0
289,C#4,57.0,1.0,79,60.0
290,F#4,57.0,2.0,79,60.0
291,E-3,57.5,2.5,79,60.0
292,E-1,57.5,0.5,95,60.0
293,E-2,58.0,1.0,95,60.0
294,B-3,58.0,1979/1000,79,60.0
295,C#4,58.0,1979/1000,79,60.0
296,F#4,58.0,1979/1000,79,60.0
297,E-1,59.0,0.25,95,60.0
298,C4,59.25,0.75,79,60.0
299,E-1,59.25,0.75,95,60.0
300,D3,60.0,1.0,79,60.0
301,C4,60.0,0.5,79,60.0
302,D1,60.0,1.25,95,60.0
303,F#3,60.01,1979/1000,79,60.0
304,C4,60.01,1979/1000,79,60.0
305,E4,60.031,1.469,79,60.0
306,D3,61.0,1.0,79,60.0
307,E4,61.0,1.5,79,60.0
308,D1,61.25,21/500,95,60.0
309,E4,61.5,0.5,79,60.0
310,D1,61.5,0.5,95,60.0
311,D2,62.0,1.0,95,60.0
312,D3,62.0,1979/1000,79,60.0
313,F#3,62.0,1979/1000,79,60.0
314,C4,62.0,1979/1000,79,60.0
315,E-4,62.031,0.969,79,60.0
316,D4,63.0,1.0,79,60.0
317,C4,63.0,167/1000,79,60.0
318,D1,63.0,0.25,95,60.0
319,B-1,63.25,0.75,95,60.0
320,C4,63.333,167/1000,79,60.0
321,B-3,63.667,167/1000,79,60.0
322,G2,64.0,0.5,79,60.0
323,D4,64.0,3.0,79,60.0
324,C4,64.0,0.125,79,60.0
325,G1,64.0,1.25,95,60.0
326,D3,64.01,0.969,79,60.0
327,A3,64.01,0.969,79,60.0
328,B-3,64.01,0.969,79,60.0
329,A3,64.125,0.625,79,60.0
330,G2,64.5,1.5,79,60.0
331,B-3,64.75,83/1000,63,60.0
332,A3,64.833,83/1000,63,60.0
333,G3,64.917,83/1000,63,60.0
334,D3,65.0,0.5,79,60.0
335,A3,65.0,2.0,63,60.0
336,A3,65.01,979/1000,79,60.0
337,B-3,65.01,979/1000,79,60.0
338,G4,65.25,0.25,95,60.0
339,D3,65.5,0.5,79,60.0
340,D4,65.5,0.25,95,60.0
341,D1,65.75,0.25,95,60.0
342,G2,66.0,0.5,79,60.0
343,G1,66.0,0.25,95,60.0
344,D3,66.01,0.969,79,60.0
345,A3,66.01,0.969,79,60.0
346,B-3,66.01,0.969,79,60.0
347,G2,66.5,1.5,79,60.0
348,G1,66.5,0.75,95,60.0
349,D3,67.0,0.5,79,60.0
350,A3,67.01,979/1000,79,60.0
351,B-3,67.01,979/1000,79,60.0
352,B-1,67.25,0.5,95,60.0
353,D3,67.5,0.5,79,60.0
354,G3,67.5,0.25,79,60.0
355,C4,67.75,0.25,79,60.0
356,G1,67.75,0.25,95,60.0
357,C3,68.0,0.5,79,60.0
358,D4,68.0,167/1000,79,60.0
359,C2,68.0,1.75,95,60.0
360,G3,68.01,0.969,79,60.0
361,D4,68.01,0.969,79,60.0
362,E-4,68.01,0.969,79,60.0
363,E-4,68.333,167/1000,79,60.0
364,C3,68.5,1.5,79,60.0
365,D4,68.5,167/1000,63,60.0
366,E-4,68.667,333/1000,79,60.0
367,G3,69.0,0.5,79,60.0
368,D4,69.01,979/1000,79,60.0
369,E-4,69.01,979/1000,79,60.0
370,B-4,69.25,0.25,58,60.0
371,F4,69.25,0.25,58,60.0
372,G3,69.5,0.5,79,60.0
373,B-4,69.5,1.5,79,60.0
374,G1,69.75,0.25,95,60.0
375,C3,70.0,0.5,79,60.0
376,C2,70.0,0.25,95,60.0
377,G3,70.01,0.969,79,60.0
378,D4,70.01,0.969,79,60.0
379,E-4,70.01,0.969,79,60.0
380,G1,70.25,0.25,95,60.0
381,C3,70.5,1.5,79,60.0
382,C2,70.5,0.25,95,60.0
383,D4,70.75,31/125,79,60.0
384,G3,71.0,0.5,79,60.0
385,E-4,71.0,667/1000,63,60.0
386,C2,71.0,0.25,95,60.0
387,D4,71.01,979/1000,79,60.0
388,E-4,71.01,979/1000,79,60.0
389,B-1,71.25,0.75,95,60.0
390,G3,71.5,0.5,79,60.0
391,D4,71.667,167/1000,63,60.0
392,C4,71.833,167/1000,63,60.0
393,G2,72.0,0.5,79,60.0
394,D4,72.0,0.75,79,60.0
395,G1,72.0,1.75,95,60.0
396,D3,72.01,0.969,79,60.0
397,A3,72.01,0.969,79,60.0
398,B-3,72.01,0.969,79,60.0
399,G2,72.5,1.5,79,60.0
400,A4,72.75,0.0,79,60.0
401,G4,72.75,31/125,79,60.0
402,D3,73.0,0.5,79,60.0
403,A4,73.0,0.25,63,60.0
404,A3,73.01,979/1000,79,60.0
405,B-3,73.01,979/1000,79,60.0
406,B-4,73.25,0.125,63,60.0
407,A4,73.375,0.125,63,60.0
408,D3,73.5,0.5,79,60.0
409,G4,73.5,0.25,63,60.0
410,A4,73.75,0.25,79,60.0
411,D1,73.75,0.25,95,60.0
412,G2,74.0,0.5,79,60.0
413,A4,74.0,2.0,79,60.0
414,G1,74.0,0.25,95,60.0
415,D3,74.01,0.969,79,60.0
416,A3,74.01,0.969,79,60.0
417,B-3,74.01,0.969,79,60.0
418,G2,74.5,1.5,79,60.0
419,G1,74.5,1.5,95,60.0
420,D3,75.0,0.5,79,60.0
421,A3,75.01,979/1000,79,60.0
422,B-3,75.01,979/1000,79,60.0
423,D3,75.5,0.5,79,60.0
424,A2,76.0,1.0,79,60.0
425,G2,76.0,4.0,79,60.0
426,F#2,76.0,0.125,79,60.0
427,A1,76.0,0.5,95,60.0
428,G3,76.01,31/25,79,60.0
429,C4,76.021,1479/1000,79,60.0
430,E-4,76.031,1.719,79,60.0
431,A2,76.125,0.125,79,60.0
432,G2,76.25,0.125,79,60.0
433,C3,76.375,0.125,79,60.0
434,E-3,76.5,0.125,79,60.0
435,D2,76.5,21/500,95,60.0
436,D3,76.625,0.125,79,60.0
437,F#3,76.75,0.125,79,60.0
438,D2,76.75,0.25,95,60.0
439,A3,76.875,0.125,79,60.0
440,A2,77.0,1.0,79,60.0
441,G3,77.0,0.125,79,60.0
442,A2,77.0,0.5,95,60.0
443,C4,77.125,0.125,79,60.0
444,G3,77.25,0.75,79,60.0
445,E-4,77.25,0.125,79,60.0
446,D4,77.375,0.125,79,60.0
447,C4,77.5,0.5,79,60.0
448,F#4,77.5,0.125,79,60.0
449,E-3,77.5,0.25,95,60.0
450,A4,77.625,0.125,79,60.0
451,E-4,77.75,0.25,79,60.0
452,G4,77.75,0.125,79,60.0
453,C3,77.75,0.25,95,60.0
454,C5,77.875,0.125,79,60.0
455,A2,78.0,2.0,79,60.0
456,E-5,78.0,0.125,79,60.0
457,D2,78.0,0.25,95,60.0
458,F#3,78.01,199/100,79,60.0
459,C4,78.01,199/100,79,60.0
460,E-4,78.01,199/100,79,60.0
461,C5,78.125,0.125,79,60.0
462,D5,78.25,0.75,79,60.0
463,A1,78.25,0.25,95,60.0
464,D1,78.5,0.5,95,60.0
465,D2,79.0,0.25,95,60.0
466,G4,79.083,83/1000,79,60.0
467,F4,79.167,83/1000,63,60.0
468,E-4,79.25,83/1000,79,60.0
469,D1,79.25,0.25,95,60.0
470,D4,79.333,83/1000,63,60.0
471,E-4,79.417,83/1000,63,60.0
472,D4,79.5,167/1000,63,60.0
473,D1,79.5,0.25,95,60.0
474,G4,79.667,83/1000,79,60.0
475,A4,79.75,0.062,79,60.0
476,C5,79.75,0.25,79,60.0
477,D1,79.75,0.25,95,60.0
478,B-4,79.812,0.062,63,60.0
479,C5,79.875,0.125,63,60.0
480,D5,79.938,0.062,79,60.0
481,C5,80.0,2.75,63,60.0
482,C5,80.0,0.75,79,60.0
483,G1,80.0,1.75,95,60.0
484,D3,80.0,0.75,79,60.0
485,G2,80.0,0.75,79,60.0
486,F#3,80.0,979/1000,79,60.0
487,C4,80.0,979/1000,79,60.0
488,E-4,80.0,979/1000,79,60.0
489,F5,80.75,0.25,63,60.0
490,D3,80.75,0.25,79,60.0
491,G2,80.75,0.25,79,60.0
492,C5,81.0,2.875,79,60.0
493,A3,81.5,1.5,79,60.0
494,D3,81.5,1.5,79,60.0
495,G2,81.5,1.5,79,60.0
496,D1,81.75,0.25,95,60.0
497,G1,82.0,0.25,95,60.0
498,G1,82.5,1.0,95,60.0
499,C5,83.0,1.0,79,60.0
500,A3,83.0,0.5,79,60.0
501,D3,83.0,0.5,79,60.0
502,G2,83.0,0.5,79,60.0
503,D1,83.5,0.5,95,60.0
504,A3,83.5,21/500,79,60.0
505,D3,83.5,21/500,79,60.0
506,G2,83.5,21/500,79,60.0
507,B-4,83.875,0.125,63,60.0
508,C5,84.0,349/125,79,60.0
509,C5,84.0,2.75,79,60.0
510,F1,84.0,1.75,95,60.0
511,G3,84.0,0.75,79,60.0
512,C3,84.0,0.75,79,60.0
513,F2,84.0,0.75,79,60.0
514,C3,84.75,0.25,79,60.0
515,F2,84.75,0.25,79,60.0
516,G3,85.5,1.5,79,60.0
517,C3,85.5,1.5,79,60.0
518,F2,85.5,1.5,79,60.0
519,C2,85.75,0.25,95,60.0
520,F2,86.0,0.25,95,60.0
521,C2,86.25,0.25,95,60.0
522,F1,86.5,0.5,95,60.0
523,C5,86.75,1.25,79,60.0
524,B-4,86.75,1.0,79,60.0
525,C2,87.0,0.25,95,60.0
526,C3,87.0,0.5,79,60.0
527,F2,87.0,0.5,79,60.0
528,F1,87.25,0.75,95,60.0
529,C3,87.5,21/500,79,60.0
530,F2,87.5,21/500,79,60.0
531,A4,87.75,0.25,79,60.0
532,C3,87.75,21/500,79,60.0
533,F2,87.75,21/500,79,60.0
534,B-4,88.0,0.125,79,60.0
535,C5,88.0,4.0,79,60.0
536,G1,88.0,1.75,95,60.0
537,D3,88.0,0.75,79,60.0
538,G2,88.0,0.75,79,60.0
539,A4,88.25,1.5,79,60.0
540,A3,88.75,0.25,79,60.0
541,D3,88.75,0.25,79,60.0
542,G2,88.75,0.25,79,60.0
543,A3,89.5,1.5,79,60.0
544,D3,89.5,1.5,79,60.0
545,G2,89.5,1.5,79,60.0
546,A4,89.75,0.125,79,60.0
547,D1,89.75,0.25,95,60.0
548,B-4,89.875,0.125,63,60.0
549,D5,90.0,0.125,79,60.0
550,G1,90.0,0.25,95,60.0
551,F5,90.125,0.125,79,60.0
552,D5,90.25,0.125,63,60.0
553,B-4,90.375,0.125,79,60.0
554,A4,90.5,0.125,63,60.0
555,G1,90.5,0.5,95,60.0
556,G4,90.625,0.25,79,60.0
557,D4,90.875,0.125,79,60.0
558,B-3,91.0,0.125,79,60.0
559,G1,91.0,1.0,95,60.0
560,A3,91.0,0.75,79,60.0
561,D3,91.0,0.75,79,60.0
562,G2,91.0,0.75,79,60.0
563,A3,91.125,0.125,79,60.0
564,B-3,91.25,0.125,63,60.0
565,D4,91.375,0.125,79,60.0
566,F4,91.5,0.25,79,60.0
567,F4,91.75,0.125,79,60.0
568,A3,91.75,21/500,79,60.0
569,D3,91.75,21/500,79,60.0
570,G2,91.75,21/500,79,60.0
571,D4,91.875,0.125,79,60.0
572,C4,92.0,1.0,79,60.0
573,C5,92.0,6.375,79,60.0
574,F1,92.0,1.75,95,60.0
575,C3,92.0,0.75,79,60.0
576,F2,92.0,0.75,79,60.0
577,C3,92.75,0.25,79,60.0
578,F2,92.75,0.25,79,60.0
579,A3,93.0,1.5,79,60.0
580,G3,93.5,1.5,79,60.0
581,C3,93.5,1.5,79,60.0
582,F2,93.5,1.5,79,60.0
583,C2,93.75,0.25,95,60.0
584,G2,94.0,0.5,95,60.0
585,E3,94.335,0.331,79,60.0
586,F2,94.5,0.5,95,60.0
587,A3,94.667,167/1000,79,60.0
588,B-3,94.833,167/1000,79,60.0
589,D4,95.0,167/1000,79,60.0
590,C2,95.0,0.25,95,60.0
591,C3,95.0,0.5,79,60.0
592,F2,95.0,0.5,79,60.0
593,E-4,95.167,167/1000,79,60.0
594,F1,95.25,0.75,95,60.0
595,F4,95.333,167/1000,79,60.0
596,A4,95.5,167/1000,79,60.0
597,B-4,95.667,167/1000,79,60.0
598,D5,95.833,167/1000,79,60.0
599,C3,96.0,1.0,79,60.0
600,C2,96.0,1.75,95,60.0
601,C3,97.0,0.25,63,60.0
602,C3,97.25,0.25,63,60.0
603,G4,97.5,1.5,79,60.0
604,E-4,97.5,1.5,79,60.0
605,B-3,97.5,1.5,79,60.0
606,G1,97.75,0.25,95,60.0
607,C2,98.0,0.25,95,60.0
608,E-5,98.375,0.75,79,60.0
609,C2,98.5,0.5,95,60.0
610,C3,99.0,0.25,79,60.0
611,G2,99.0,0.25,95,60.0
612,C6,99.125,0.125,79,60.0
613,G5,99.25,0.125,63,60.0
614,C2,99.25,0.75,95,60.0
615,E-4,99.25,0.25,79,60.0
616,B-3,99.25,0.25,79,60.0
617,E-5,99.375,0.125,79,60.0
618,D5,99.5,0.125,79,60.0
619,G3,99.5,21/500,79,60.0
620,C3,99.5,21/500,79,60.0
621,B-5,99.625,0.125,79,60.0
622,G5,99.75,0.125,63,60.0
623,G3,99.75,21/500,79,60.0
624,C3,99.75,21/500,79,60.0
625,A5,99.875,0.125,79,60.0
626,D3,100.0,1.0,79,60.0
627,G5,100.0,0.125,63,60.0
628,D2,100.0,1.75,95,60.0
629,F5,100.125,0.125,79,60.0
630,A3,100.25,2.75,79,60.0
631,E5,100.25,0.125,79,60.0
632,E-5,100.375,0.125,79,60.0
633,D5,100.5,0.125,79,60.0
634,C5,100.625,93/200,79,60.0
635,B-4,100.75,0.125,79,60.0
636,A4,100.875,71/1000,79,60.0
637,B-4,100.946,73/1000,63,60.0
638,D3,101.0,0.25,63,60.0
639,C5,101.019,1.356,63,60.0
640,D5,101.09,71/1000,79,60.0
641,E-5,101.16,71/1000,63,60.0
642,F5,101.231,73/1000,63,60.0
643,D3,101.25,0.25,63,60.0
644,G5,101.304,71/1000,79,60.0
645,A5,101.375,0.05,71,60.0
646,B-5,101.375,0.05,71,60.0
647,A5,101.475,0.05,63,60.0
648,G5,101.475,0.05,63,60.0
649,A4,101.5,1.5,79,60.0
650,F4,101.5,1.5,79,60.0
651,C4,101.5,1.5,79,60.0
652,A5,101.575,0.05,71,60.0
653,B-5,101.575,0.05,71,60.0
654,C6,101.675,0.05,63,60.0
655,B-5,101.675,0.05,63,60.0
656,A1,101.75,0.25,95,60.0
657,A5,101.775,0.05,63,60.0
658,B-5,101.775,0.05,63,60.0
659,C6,101.875,0.05,71,60.0
660,D6,101.875,0.05,71,60.0
661,C6,101.975,0.05,63,60.0
662,B-5,101.975,0.05,63,60.0
663,D2,102.0,0.25,95,60.0
664,A5,102.075,0.05,63,60.0
665,B-5,102.125,0.062,79,60.0
666,C6,102.188,0.062,63,60.0
667,B-5,102.25,0.062,63,60.0
668,A1,102.25,0.25,95,60.0
669,A5,102.312,0.062,63,60.0
670,D6,102.375,0.5,79,60.0
671,C5,102.375,1.5,63,60.0
672,D2,102.5,0.25,95,60.0
673,A5,102.875,0.125,79,60.0
674,D3,103.0,0.25,79,60.0
675,D6,103.0,0.125,79,60.0
676,D2,103.0,0.25,95,60.0
677,A5,103.125,0.125,79,60.0
678,B-2,103.25,0.75,79,60.0
679,F5,103.25,0.125,79,60.0
680,B-1,103.25,0.75,95,60.0
681,D5,103.375,0.125,79,60.0
682,C5,103.5,0.375,79,60.0
683,C5,103.792,2.208,79,60.0
684,G2,104.0,0.75,79,60.0
685,G1,104.0,1.75,95,60.0
686,F4,104.375,0.125,79,60.0
687,A4,104.5,0.125,79,60.0
688,F4,104.625,0.125,63,60.0
689,G2,104.75,0.25,79,60.0
690,D4,104.75,0.125,79,60.0
691,C4,104.875,0.125,79,60.0
692,G2,105.0,0.25,63,60.0
693,A3,105.0,0.125,79,60.0
694,G3,105.125,0.125,79,60.0
695,G2,105.25,0.25,63,60.0
696,F3,105.25,0.125,79,60.0
697,D3,105.375,0.25,79,60.0
698,D4,105.5,1.5,79,60.0
699,B-3,105.5,1.5,79,60.0
700,F3,105.5,1.5,79,60.0
701,F4,105.625,0.25,79,60.0
702,D1,105.75,0.25,95,60.0
703,C5,105.875,0.5,79,60.0
704,B-4,106.0,0.125,63,60.0
705,G1,106.0,0.25,95,60.0
706,G4,106.125,0.125,79,60.0
707,D4,106.125,0.125,79,60.0
708,F4,106.25,0.125,79,60.0
709,G4,106.375,0.75,79,60.0
710,C5,106.375,4.0,79,60.0
711,G1,106.5,0.5,95,60.0
712,G2,107.0,0.5,79,60.0
713,G1,107.0,0.5,95,60.0
714,G3,107.125,0.25,79,60.0
715,F4,107.375,167/1000,79,60.0
716,F#2,107.5,0.25,79,60.0
717,F#1,107.5,0.25,95,60.0
718,F#4,107.542,167/1000,79,60.0
719,G4,107.708,167/1000,79,60.0
720,F2,107.75,0.25,79,60.0
721,F1,107.75,0.25,95,60.0
722,B-4,107.875,0.5,79,60.0
723,E2,108.0,3.0,79,60.0
724,E1,108.0,0.75,95,60.0
725,G4,108.375,0.125,79,60.0
726,E3,108.5,2.5,79,60.0
727,F4,108.5,0.125,63,60.0
728,D4,108.625,0.125,79,60.0
729,C4,108.75,0.125,63,60.0
730,E1,108.75,0.25,95,60.0
731,G4,108.875,0.25,79,60.0
732,E2,108.917,833/1000,95,60.0
733,B-3,109.0,2.0,79,60.0
734,C4,109.125,0.125,79,60.0
735,B-3,109.25,0.125,63,60.0
736,G3,109.375,0.125,79,60.0
737,D4,109.5,1.5,79,60.0
738,F3,109.5,0.125,79,60.0
739,G3,109.625,0.125,79,60.0
740,G3,109.75,0.125,79,60.0
741,E1,109.75,0.25,95,60.0
742,C4,109.875,0.25,79,60.0
743,G4,110.0,1.0,79,60.0
744,E2,110.0,1.0,95,60.0
745,F4,110.125,0.125,79,60.0
746,D4,110.25,0.125,79,60.0
747,B-3,110.375,1.0,79,60.0
748,C5,110.375,15.625,79,60.0
749,G3,110.75,1.0,79,60.0
750,G3,110.75,1.0,79,60.0
751,G2,110.75,1.0,95,60.0
752,D3,111.375,167/1000,79,60.0
753,B-3,111.542,167/1000,79,60.0
754,D4,111.708,167/1000,79,60.0
755,E2,111.75,21/500,79,60.0
756,E2,111.75,21/500,79,60.0
757,E1,111.75,0.25,95,60.0
758,G4,111.875,167/1000,79,60.0
759,E-1,112.0,1.0,95,60.0
760,F#4,112.0,1.0,79,60.0
761,C#4,112.0,1.0,79,60.0
762,G3,112.0,1.0,79,60.0
763,E-3,112.0,1.0,79,60.0
764,F#4,112.0,1.0,79,60.0
765,C#4,112.0,1.0,79,60.0
766,G3,112.0,1.0,79,60.0
767,E-3,112.0,1.0,79,60.0
768,A4,112.042,167/1000,79,60.0
769,B-4,112.208,167/1000,79,60.0
770,F#4,112.375,1.75,79,60.0
771,E-1,113.0,0.25,95,60.0
772,F#4,113.0,21/500,79,60.0
773,C#4,113.0,21/500,79,60.0
774,G3,113.0,21/500,79,60.0
775,E-3,113.0,21/500,79,60.0
776,F#4,113.0,21/500,79,60.0
777,C#4,113.0,21/500,79,60.0
778,G3,113.0,21/500,79,60.0
779,E-3,113.0,21/500,79,60.0
780,E-1,113.25,0.25,95,60.0
781,F#4,113.25,21/500,79,60.0
782,C#4,113.25,21/500,79,60.0
783,G3,113.25,21/500,79,60.0
784,E-3,113.25,21/500,79,60.0
785,F#4,113.25,21/500,79,60.0
786,C#4,113.25,21/500,79,60.0
787,G3,113.25,21/500,79,60.0
788,E-3,113.25,21/500,79,60.0
789,E-2,113.5,1.0,95,60.0
790,F#4,113.5,1.5,79,60.0
791,C#4,113.5,1.5,79,60.0
792,G3,113.5,1.5,79,60.0
793,E-3,113.5,1.5,79,60.0
794,F#4,113.5,1.5,79,60.0
795,C#4,113.5,1.5,79,60.0
796,G3,113.5,1.5,79,60.0
797,E-3,113.5,1.5,79,60.0
798,C#5,114.125,0.25,79,60.0
799,B3,114.125,21/500,79,60.0
800,G3,114.125,21/500,79,60.0
801,D3,114.125,21/500,79,60.0
802,E-1,114.5,0.25,95,60.0
803,C4,114.75,1.25,79,60.0
804,C4,114.75,1.25,79,60.0
805,E-1,114.75,0.25,95,60.0
806,B-1,115.0,0.25,95,60.0
807,C#2,115.25,0.25,95,60.0
808,B-1,115.5,0.25,95,60.0
809,A1,115.75,0.25,95,60.0
810,D1,116.0,1.0,95,60.0
811,E4,116.0,1.0,79,60.0
812,C4,116.0,1.0,79,60.0
813,F#3,116.0,1.0,79,60.0
814,D3,116.0,1.0,79,60.0
815,E4,116.0,1.0,79,60.0
816,C4,116.0,1.0,79,60.0
817,F#3,116.0,1.0,79,60.0
818,D3,116.0,1.0,79,60.0
819,D1,117.0,0.25,95,60.0
820,E4,117.0,21/500,79,60.0
821,C4,117.0,21/500,79,60.0
822,F#3,117.0,21/500,79,60.0
823,D3,117.0,21/500,79,60.0
824,E4,117.0,21/500,79,60.0
825,C4,117.0,21/500,79,60.0
826,F#3,117.0,21/500,79,60.0
827,D3,117.0,21/500,79,60.0
828,D1,117.25,0.25,95,60.0
829,E4,117.25,21/500,79,60.0
830,C4,117.25,21/500,79,60.0
831,F#3,117.25,21/500,79,60.0
832,D3,117.25,21/500,79,60.0
833,E4,117.25,21/500,79,60.0
834,C4,117.25,21/500,79,60.0
835,F#3,117.25,21/500,79,60.0
836,D3,117.25,21/500,79,60.0
837,D2,117.5,1.0,95,60.0
838,E4,117.5,1.5,79,60.0
839,C4,117.5,1.5,79,60.0
840,F#3,117.5,1.5,79,60.0
841,D3,117.5,1.5,79,60.0
842,E4,117.5,1.5,79,60.0
843,C4,117.5,1.5,79,60.0
844,F#3,117.5,1.5,79,60.0
845,D3,117.5,1.5,79,60.0
846,A1,118.5,0.25,95,60.0
847,A1,118.75,0.25,95,60.0
848,C3,119.0,0.25,79,60.0
849,C3,119.0,0.25,79,60.0
850,G1,119.0,0.25,95,60.0
851,B-2,119.25,0.75,79,60.0
852,B-2,119.25,0.75,79,60.0
853,F1,119.25,0.75,95,60.0
854,G1,120.0,0.5,95,60.0
855,G4,120.0,1.5,79,60.0
856,D4,120.0,1.5,79,60.0
857,G3,120.0,1.5,79,60.0
858,D3,120.0,1.5,79,60.0
859,G2,120.0,1.5,79,60.0
860,G4,120.0,1.5,79,60.0
861,D4,120.0,1.5,79,60.0
862,G3,120.0,1.5,79,60.0
863,D3,120.0,1.5,79,60.0
864,G2,120.0,1.5,79,60.0
865,G1,120.5,0.5,95,60.0
866,G1,121.0,0.75,95,60.0
867,G4,121.5,2.5,79,60.0
868,D4,121.5,2.5,79,60.0
869,G3,121.5,2.5,79,60.0
870,D3,121.5,2.5,79,60.0
871,G2,121.5,2.5,79,60.0
872,G4,121.5,2.5,79,60.0
873,D4,121.5,2.5,79,60.0
874,G3,121.5,2.5,79,60.0
875,D3,121.5,2.5,79,60.0
876,G2,121.5,2.5,79,60.0
877,D1,121.75,0.25,95,60.0
878,G1,122.0,0.25,95,60.0
879,G1,122.5,0.5,95,60.0
880,B-1,123.0,0.5,95,60.0
881,G1,123.5,0.25,95,60.0
882,B-1,123.75,0.25,95,60.0
883,C2,124.0,1.0,95,60.0
884,C4,124.0,1.0,79,60.0
885,G3,124.0,1.0,79,60.0
886,C3,124.0,1.0,79,60.0
887,C4,124.0,1.0,79,60.0
888,G3,124.0,1.0,79,60.0
889,C3,124.0,1.0,79,60.0
890,C3,125.0,0.25,63,60.0
891,C3,125.0,0.25,63,60.0
892,C2,125.0,0.75,95,60.0
893,C3,125.25,0.25,63,60.0
894,C3,125.25,0.25,63,60.0
895,C4,125.5,1.5,79,60.0
896,G3,125.5,1.5,79,60.0
897,C3,125.5,1.5,79,60.0
898,C4,125.5,1.5,79,60.0
899,G3,125.5,1.5,79,60.0
900,C3,125.5,1.5,79,60.0
901,G1,125.75,0.25,95,60.0
902,C#5,126.0,0.375,79,60.0
903,C2,126.0,0.25,95,60.0
904,E-5,126.5,167/1000,79,60.0
905,C2,126.5,0.5,95,60.0
906,E5,126.667,167/1000,79,60.0
907,F5,126.833,167/1000,79,60.0
908,F#5,127.0,0.5,79,60.0
909,C3,127.0,0.25,79,60.0
910,C3,127.0,0.25,79,60.0
911,C2,127.0,0.25,95,60.0
912,B-2,127.25,0.75,79,60.0
913,B-2,127.25,0.75,79,60.0
914,B-1,127.25,0.75,95,60.0
915,E-5,127.5,167/1000,79,60.0
916,F#5,127.667,167/1000,79,60.0
917,E-5,127.833,167/1000,79,60.0
918,G5,128.0,167/1000,79,60.0
919,G1,128.0,1.0,95,60.0
920,G4,128.0,1.25,79,60.0
921,D4,128.0,1.25,79,60.0
922,G3,128.0,1.25,79,60.0
923,D3,128.0,1.25,79,60.0
924,G2,128.0,1.25,79,60.0
925,G4,128.0,1.25,79,60.0
926,D4,128.0,1.25,79,60.0
927,G3,128.0,1.25,79,60.0
928,D3,128.0,1.25,79,60.0
929,G2,128.0,1.25,79,60.0
930,E-5,128.167,167/1000,79,60.0
931,F#5,128.333,333/1000,79,60.0
932,E-5,128.667,167/1000,79,60.0
933,C#5,128.708,73/250,79,60.0
934,E-5,129.0,1.0,79,60.0
935,G1,129.0,0.75,95,60.0
936,C#5,129.167,167/1000,79,60.0
937,C6,129.25,0.75,79,60.0
938,F2,129.25,0.25,79,60.0
939,F2,129.25,0.25,79,60.0
940,B-4,129.333,167/1000,79,60.0
941,G3,129.5,1.75,79,60.0
942,D3,129.5,1.75,79,60.0
943,G2,129.5,1.75,79,60.0
944,G3,129.5,1.75,79,60.0
945,D3,129.5,1.75,79,60.0
946,G2,129.5,1.75,79,60.0
947,D1,129.75,0.25,95,60.0
948,E-5,130.0,26.0,79,60.0
949,C6,130.0,0.75,79,60.0
950,G1,130.0,0.25,95,60.0
951,G1,130.5,0.75,95,60.0
952,D5,130.75,0.25,79,60.0
953,D5,131.0,1.75,79,60.0
954,B-1,131.25,0.75,95,60.0
955,B-3,131.25,0.75,79,60.0
956,F3,131.25,0.75,79,60.0
957,B-2,131.25,0.75,79,60.0
958,B-3,131.25,0.75,79,60.0
959,F3,131.25,0.75,79,60.0
960,B-2,131.25,0.75,79,60.0
961,C2,132.0,1.75,95,60.0
962,C4,132.0,1.75,79,60.0
963,G3,132.0,1.75,79,60.0
964,C3,132.0,1.75,79,60.0
965,C4,132.0,1.75,79,60.0
966,G3,132.0,1.75,79,60.0
967,C3,132.0,1.75,79,60.0
968,E5,132.75,0.125,79,60.0
969,D5,132.875,0.0,79,60.0
970,E5,132.875,229/500,79,60.0
971,E5,133.333,167/1000,79,60.0
972,D5,133.667,333/1000,79,60.0
973,F5,133.75,0.25,79,60.0
974,C3,133.75,0.25,63,60.0
975,C3,133.75,0.25,63,60.0
976,G1,133.75,0.25,95,60.0
977,C2,134.0,0.25,95,60.0
978,C4,134.0,0.5,79,60.0
979,G3,134.0,0.5,79,60.0
980,C3,134.0,0.5,79,60.0
981,C4,134.0,0.5,79,60.0
982,G3,134.0,0.5,79,60.0
983,C3,134.0,0.5,79,60.0
984,G1,134.25,0.25,95,60.0
985,C2,134.5,0.5,95,60.0
986,C4,134.5,0.5,79,60.0
987,G3,134.5,0.5,79,60.0
988,C3,134.5,0.5,79,60.0
989,C4,134.5,0.5,79,60.0
990,G3,134.5,0.5,79,60.0
991,C3,134.5,0.5,79,60.0
992,C2,135.0,0.25,95,60.0
993,C4,135.0,0.25,79,60.0
994,G3,135.0,0.25,79,60.0
995,C3,135.0,0.25,79,60.0
996,C4,135.0,0.25,79,60.0
997,G3,135.0,0.25,79,60.0
998,C3,135.0,0.25,79,60.0
999,B-1,135.25,0.75,95,60.0
1000,B-3,135.25,0.75,79,60.0
1001,F3,135.25,0.75,79,60.0
1002,B-2,135.25,0.75,79,60.0
1003,B-3,135.25,0.75,79,60.0
1004,F3,135.25,0.75,79,60.0
1005,B-2,135.25,0.75,79,60.0
1006,E-3,136.0,1.5,79,60.0
1007,E-1,136.0,1.0,95,60.0
1008,E-4,136.0,4.0,63,60.0
1009,B-3,136.0,4.0,63,60.0
1010,E-3,136.0,4.0,63,60.0
1011,E-4,136.0,4.0,63,60.0
1012,B-3,136.0,4.0,63,60.0
1013,E-3,136.0,4.0,63,60.0
1014,B-3,136.5,0.75,79,60.0
1015,G4,136.75,1.0,79,60.0
1016,E-2,137.0,0.75,95,60.0
1017,B-3,137.25,1.0,79,60.0
1018,E-3,137.5,0.25,79,60.0
1019,G#4,137.75,1.0,79,60.0
1020,E-1,137.75,0.25,95,60.0
1021,E-1,138.0,0.25,95,60.0
1022,B-3,138.25,1.0,79,60.0
1023,E-3,138.5,0.25,79,60.0
1024,E-1,138.5,0.5,95,60.0
1025,G4,138.75,1.0,79,60.0
1026,E-2,139.0,1.0,95,60.0
1027,B-3,139.25,0.75,79,60.0
1028,E-3,139.5,0.25,79,60.0
1029,F4,139.75,0.25,79,60.0
1030,B-3,140.0,0.25,79,60.0
1031,F4,140.0,0.75,79,60.0
1032,E-1,140.0,0.5,95,60.0
1033,F5,140.0,2.0,63,60.0
1034,B-4,140.0,2.0,63,60.0
1035,F5,140.0,2.0,63,60.0
1036,B-4,140.0,2.0,63,60.0
1037,B-3,140.25,1.0,79,60.0
1038,B-2,140.5,0.25,79,60.0
1039,E-1,140.5,0.25,95,60.0
1040,F4,140.75,2.5,79,60.0
1041,E-1,140.75,0.25,95,60.0
1042,E-2,141.0,0.75,95,60.0
1043,B-3,141.25,1.0,79,60.0
1044,B-2,141.5,0.25,79,60.0
1045,E-1,141.75,0.0,95,60.0
1046,D4,141.75,1.0,79,60.0
1047,G1,141.75,0.5,95,60.0
1048,D5,142.0,0.75,63,60.0
1049,B-4,142.0,2.0,63,60.0
1050,D5,142.0,0.75,63,60.0
1051,B-4,142.0,2.0,63,60.0
1052,B-3,142.25,1.75,79,60.0
1053,B-1,142.25,0.25,95,60.0
1054,B-2,142.5,0.25,79,60.0
1055,C2,142.5,0.25,95,60.0
1056,E-5,142.75,0.5,63,60.0
1057,E-5,142.75,0.5,63,60.0
1058,E-4,142.75,1.25,79,60.0
1059,E-2,142.75,0.25,95,60.0
1060,C2,143.0,0.25,95,60.0
1061,F5,143.25,0.75,63,60.0
1062,F5,143.25,0.75,63,60.0
1063,F4,143.25,0.75,79,60.0
1064,B-1,143.25,0.25,95,60.0
1065,G1,143.5,0.5,95,60.0
1066,G5,144.0,2.0,79,60.0
1067,E-5,144.0,4.0,79,60.0
1068,G5,144.0,2.0,79,60.0
1069,E-5,144.0,4.0,79,60.0
1070,E-3,144.0,1.5,79,60.0
1071,B-3,144.0,0.5,79,60.0
1072,E-4,144.0,2.75,79,60.0
1073,F4,144.0,0.75,79,60.0
1074,E-1,144.0,0.75,95,60.0
1075,B-3,144.5,0.75,79,60.0
1076,G4,144.75,1.0,79,60.0
1077,E-1,144.75,0.25,95,60.0
1078,E-2,145.0,0.75,95,60.0
1079,B-3,145.25,1.0,79,60.0
1080,E-3,145.5,0.25,79,60.0
1081,G#4,145.75,1.0,79,60.0
1082,E-1,145.75,0.25,95,60.0
1083,G#5,146.0,1.0,79,60.0
1084,G#5,146.0,1.0,79,60.0
1085,E-1,146.0,0.25,95,60.0
1086,B-3,146.25,1.0,79,60.0
1087,E-3,146.5,0.25,79,60.0
1088,E-1,146.5,0.5,95,60.0
1089,G4,146.75,1.0,79,60.0
1090,G5,147.0,1.0,79,60.0
1091,G5,147.0,1.0,79,60.0
1092,E-2,147.0,0.25,95,60.0
1093,B-3,147.25,0.75,79,60.0
1094,E-1,147.25,0.5,95,60.0
1095,E-3,147.5,0.25,79,60.0
1096,B-4,147.75,0.25,79,60.0
1097,B-4,147.75,0.25,79,60.0
1098,F4,147.75,0.25,79,60.0
1099,B-2,147.75,0.25,95,60.0
1100,F5,148.0,2.0,79,60.0
1101,B-4,148.0,4.0,79,60.0
1102,F5,148.0,2.0,79,60.0
1103,B-4,148.0,4.0,79,60.0
1104,B-3,148.0,0.25,79,60.0
1105,F4,148.0,0.75,79,60.0
1106,B-1,148.0,0.75,95,60.0
1107,B-3,148.25,1.0,79,60.0
1108,B-2,148.5,0.25,79,60.0
1109,F4,148.75,2.5,79,60.0
1110,F2,148.75,0.25,95,60.0
1111,E-3,149.0,0.5,95,60.0
1112,B-3,149.25,1.0,79,60.0
1113,B-2,149.5,0.25,79,60.0
1114,B-2,149.5,0.25,95,60.0
1115,D4,149.75,1.0,79,60.0
1116,F2,149.75,0.25,95,60.0
1117,D5,150.0,0.75,79,60.0
1118,D5,150.0,0.75,79,60.0
1119,B-1,150.0,0.25,95,60.0
1120,B-3,150.25,1.75,79,60.0
1121,B-2,150.5,0.25,79,60.0
1122,B-1,150.5,0.5,95,60.0
1123,E-5,150.75,0.5,79,60.0
1124,E-5,150.75,0.5,79,60.0
1125,E-4,150.75,1.25,79,60.0
1126,B-1,151.0,0.25,95,60.0
1127,F5,151.25,0.75,79,60.0
1128,F5,151.25,0.75,79,60.0
1129,F4,151.25,0.75,79,60.0
1130,B-1,151.25,0.25,95,60.0
1131,B-1,151.5,0.5,95,60.0
1132,G5,152.0,2.0,79,60.0
1133,E-5,152.0,4.0,79,60.0
1134,G5,152.0,2.0,79,60.0
1135,E-5,152.0,4.0,79,60.0
1136,E-3,152.0,1.5,79,60.0
1137,B-3,152.0,0.5,79,60.0
1138,E-4,152.0,2.75,79,60.0
1139,F4,152.0,0.75,79,60.0
1140,E-1,152.0,0.5,95,60.0
1141,B-3,152.5,0.75,79,60.0
1142,E-1,152.5,0.25,95,60.0
1143,G4,152.75,1.0,79,60.0
1144,E-1,152.75,0.25,95,60.0
1145,E-2,153.0,0.5,95,60.0
1146,B-3,153.25,1.0,79,60.0
1147,E-3,153.5,0.25,79,60.0
1148,E-1,153.5,0.25,95,60.0
1149,G#4,153.75,1.0,79,60.0
1150,E-1,153.75,0.25,95,60.0
1151,G#5,154.0,1.0,79,60.0
1152,G#5,154.0,1.0,79,60.0
1153,G#1,154.0,0.75,95,60.0
1154,B-3,154.25,1.0,79,60.0
1155,E-3,154.5,0.25,79,60.0
1156,G4,154.75,1.0,79,60.0
1157,G#1,154.75,0.25,95,60.0
1158,G5,155.0,1.0,79,60.0
1159,G5,155.0,1.0,79,60.0
1160,E-1,155.0,0.5,95,60.0
1161,B-3,155.25,0.75,79,60.0
1162,E-3,155.5,0.25,79,60.0
1163,G#1,155.5,0.25,95,60.0
1164,B-4,155.75,0.25,79,60.0
1165,B-4,155.75,0.25,79,60.0
1166,F4,155.75,0.25,79,60.0
1167,E-1,155.75,0.25,95,60.0
1168,D5,156.0,1.25,79,60.0
1169,F5,156.0,0.25,79,60.0
1170,F5,156.0,2.0,79,60.0
1171,B-4,156.0,4.0,79,60.0
1172,F5,156.0,2.0,79,60.0
1173,B-4,156.0,4.0,79,60.0
1174,B-3,156.0,0.25,79,60.0
1175,F4,156.0,0.75,79,60.0
1176,B-1,156.0,1.75,95,60.0
1177,F5,156.25,1.0,79,60.0
1178,B-3,156.25,1.0,79,60.0
1179,B-2,156.5,0.25,79,60.0
1180,F4,156.75,2.5,79,60.0
1181,G5,157.25,83/1000,79,60.0
1182,F5,157.25,167/1000,79,60.0
1183,B-3,157.25,1.0,79,60.0
1184,F5,157.333,417/1000,79,60.0
1185,D5,157.417,1.0,79,60.0
1186,B-2,157.5,0.25,79,60.0
1187,F5,157.75,0.375,79,60.0
1188,D4,157.75,1.0,79,60.0
1189,F1,157.75,0.25,95,60.0
1190,D5,158.0,0.75,79,60.0
1191,D5,158.0,0.75,79,60.0
1192,B-1,158.0,0.25,95,60.0
1193,G5,158.125,0.125,79,60.0
1194,F5,158.25,83/1000,79,60.0
1195,B-3,158.25,1.75,79,60.0
1196,F1,158.25,0.25,95,60.0
1197,D5,158.333,521/500,79,60.0
1198,B-5,158.417,333/1000,79,60.0
1199,B-2,158.5,0.25,79,60.0
1200,B-1,158.5,0.25,95,60.0
1201,B-5,158.75,0.25,79,60.0
1202,E-5,158.75,0.5,79,60.0
1203,E-5,158.75,0.5,79,60.0
1204,E-4,158.75,1.25,79,60.0
1205,G5,159.0,0.125,79,60.0
1206,B-1,159.0,0.5,95,60.0
1207,F5,159.125,0.125,79,60.0
1208,D5,159.25,0.75,79,60.0
1209,F5,159.25,0.75,79,60.0
1210,F5,159.25,0.75,79,60.0
1211,F4,159.25,0.75,79,60.0
1212,C5,159.375,0.625,79,60.0
1213,F1,159.5,0.5,95,60.0
1214,B-4,159.625,0.125,79,60.0
1215,G4,159.75,0.125,79,60.0
1216,F4,159.875,0.125,79,60.0
1217,G4,160.0,0.125,79,60.0
1218,C5,160.0,0.625,79,60.0
1219,D5,160.0,59/10,79,60.0
1220,G5,160.0,2.0,79,60.0
1221,E-5,160.0,4.0,79,60.0
1222,G5,160.0,2.0,79,60.0
1223,E-5,160.0,4.0,79,60.0
1224,E-3,160.0,1.5,79,60.0
1225,B-3,160.0,0.5,79,60.0
1226,E-4,160.0,2.75,79,60.0
1227,F4,160.0,0.75,79,60.0
1228,E-1,160.0,0.5,95,60.0
1229,F4,160.125,0.125,63,60.0
1230,D4,160.25,0.125,79,60.0
1231,C4,160.375,0.125,79,60.0
1232,C5,160.5,3.5,79,60.0
1233,B-3,160.5,0.75,79,60.0
1234,E-1,160.5,0.25,95,60.0
1235,B-4,160.75,0.25,79,60.0
1236,G4,160.75,1.0,79,60.0
1237,E-1,160.75,0.25,95,60.0
1238,G4,161.0,0.125,79,60.0
1239,E-2,161.0,0.75,95,60.0
1240,F4,161.125,0.125,79,60.0
1241,D4,161.25,0.125,79,60.0
1242,B-3,161.25,1.0,79,60.0
1243,C#4,161.375,0.125,79,60.0
1244,C4,161.5,0.062,79,60.0
1245,E-3,161.5,0.25,79,60.0
1246,C#4,161.562,0.062,63,60.0
1247,C4,161.625,0.125,63,60.0
1248,B-3,161.75,0.125,79,60.0
1249,G#4,161.75,1.0,79,60.0
1250,E-1,161.75,0.25,95,60.0
1251,G3,161.875,0.125,79,60.0
1252,G4,162.0,0.75,79,60.0
1253,G#5,162.0,1.0,79,60.0
1254,G#5,162.0,1.0,79,60.0
1255,G#1,162.0,0.25,95,60.0
1256,B-3,162.25,1.0,79,60.0
1257,E-3,162.5,0.25,79,60.0
1258,G#1,162.5,0.5,95,60.0
1259,C4,162.75,0.125,79,60.0
1260,G4,162.75,1.0,79,60.0
1261,D4,162.875,0.125,63,60.0
1262,F4,163.0,0.125,79,60.0
1263,G5,163.0,1.0,79,60.0
1264,G5,163.0,1.0,79,60.0
1265,G#2,163.0,0.75,95,60.0
1266,G4,163.125,0.125,79,60.0
1267,B-4,163.25,0.125,79,60.0
1268,B-3,163.25,0.75,79,60.0
1269,B4,163.375,0.062,63,60.0
1270,B-4,163.438,0.062,63,60.0
1271,G4,163.5,0.375,79,60.0
1272,E-3,163.5,0.25,79,60.0
1273,B-4,163.75,0.25,79,60.0
1274,B-4,163.75,0.25,79,60.0
1275,F4,163.75,0.25,79,60.0
1276,G#1,163.75,0.25,95,60.0
1277,F4,163.875,0.125,79,60.0
1278,F5,164.0,2.0,79,60.0
1279,B-4,164.0,4.0,79,60.0
1280,F5,164.0,2.0,79,60.0
1281,B-4,164.0,4.0,79,60.0
1282,B-3,164.0,0.25,79,60.0
1283,F4,164.0,0.75,79,60.0
1284,B-1,164.0,1.75,95,60.0
1285,B-3,164.25,1.0,79,60.0
1286,B-2,164.5,0.25,79,60.0
1287,F4,164.75,2.5,79,60.0
1288,B-3,165.25,1.0,79,60.0
1289,B-2,165.5,0.25,79,60.0
1290,D4,165.75,1.0,79,60.0
1291,F1,165.75,0.25,95,60.0
1292,C5,165.9,1.125,79,60.0
1293,G4,165.9,0.375,79,60.0
1294,C5,165.9,0.375,79,60.0
1295,D5,166.0,0.75,79,60.0
1296,D5,166.0,0.75,79,60.0
1297,B-1,166.0,0.25,95,60.0
1298,B-3,166.25,1.75,79,60.0
1299,F1,166.25,0.25,95,60.0
1300,B-4,166.275,0.125,63,60.0
1301,G4,166.4,0.125,79,60.0
1302,B-2,166.5,0.25,79,60.0
1303,B-1,166.5,1.0,95,60.0
1304,F4,166.525,0.125,63,60.0
1305,C5,166.65,29/40,79,60.0
1306,G4,166.65,0.375,79,60.0
1307,E-5,166.75,0.5,79,60.0
1308,E-5,166.75,0.5,79,60.0
1309,E-4,166.75,1.25,79,60.0
1310,B-4,167.025,0.0,63,60.0
1311,G4,167.15,0.125,79,60.0
1312,F5,167.25,0.75,79,60.0
1313,F5,167.25,0.75,79,60.0
1314,F4,167.25,0.75,79,60.0
1315,F4,167.275,0.125,63,60.0
1316,C5,167.275,481/500,79,60.0
1317,G5,167.5,1/10,79,60.0
1318,B-1,167.5,0.25,95,60.0
1319,F5,167.6,1/10,79,60.0
1320,C5,167.674,0.877,79,60.0
1321,D5,167.7,0.5,63,60.0
1322,G#1,167.75,0.25,95,60.0
1323,G5,167.9,1/10,79,60.0
1324,C5,167.95,7/10,79,60.0
1325,F5,168.0,1/10,79,60.0
1326,G5,168.0,2.0,79,60.0
1327,E-5,168.0,4.0,79,60.0
1328,G5,168.0,2.0,79,60.0
1329,E-5,168.0,4.0,79,60.0
1330,G2,168.0,2.0,79,60.0
1331,B-3,168.0,0.5,79,60.0
1332,E-4,168.0,0.75,79,60.0
1333,F4,168.0,3.25,79,60.0
1334,G1,168.0,0.75,95,60.0
1335,D5,168.1,111/250,63,60.0
1336,G5,168.299,1/10,79,60.0
1337,F5,168.4,71/1000,79,60.0
1338,D5,168.47,179/500,63,60.0
1339,C5,168.481,0.752,79,60.0
1340,B-3,168.5,0.75,79,60.0
1341,G5,168.614,71/1000,79,60.0
1342,F5,168.685,71/1000,79,60.0
1343,E-4,168.75,2.0,79,60.0
1344,G1,168.75,0.25,95,60.0
1345,D5,168.756,0.394,63,60.0
1346,C5,168.766,1133/1000,79,60.0
1347,G5,168.9,83/1000,79,60.0
1348,C5,168.9,1.0,79,60.0
1349,F5,168.983,83/1000,79,60.0
1350,E-2,169.0,0.5,95,60.0
1351,D5,169.066,73/250,63,60.0
1352,G5,169.233,667/1000,79,60.0
1353,B-3,169.25,1.25,79,60.0
1354,F5,169.316,83/1000,79,60.0
1355,D5,169.4,0.5,63,60.0
1356,C#5,169.483,83/1000,79,60.0
1357,E-3,169.5,0.5,79,60.0
1358,G1,169.5,0.25,95,60.0
1359,B-5,169.525,0.375,79,60.0
1360,B-4,169.566,83/1000,63,60.0
1361,G1,169.75,0.25,95,60.0
1362,D5,169.9,1.75,63,60.0
1363,G5,169.9,1.375,79,60.0
1364,C5,169.9,1.125,79,60.0
1365,C5,169.9,2.0,79,60.0
1366,B-5,169.9,0.75,79,60.0
1367,G#5,170.0,2.0,79,60.0
1368,G#5,170.0,2.0,79,60.0
1369,G#2,170.0,2.0,79,60.0
1370,G#1,170.0,0.5,95,60.0
1371,B-3,170.5,0.75,79,60.0
1372,G#1,170.5,0.25,95,60.0
1373,C5,170.65,1.625,79,60.0
1374,E-4,170.75,1.25,79,60.0
1375,G#1,170.75,0.25,95,60.0
1376,E-2,171.0,0.5,95,60.0
1377,G5,171.15,0.375,79,60.0
1378,F5,171.15,0.25,79,60.0
1379,B-3,171.25,0.75,79,60.0
1380,G5,171.4,0.625,79,60.0
1381,E-3,171.5,0.5,79,60.0
1382,G#1,171.5,0.25,95,60.0
1383,D5,171.525,2.375,79,60.0
1384,F5,171.65,0.0,63,60.0
1385,C5,171.65,2.25,79,60.0
1386,G#1,171.75,0.25,95,60.0
1387,B-5,171.75,0.25,79,60.0
1388,F5,171.75,0.25,79,60.0
1389,B-5,171.75,0.25,79,60.0
1390,F5,171.75,0.25,79,60.0
1391,G5,171.9,2.0,79,60.0
1392,D2,171.917,83/1000,95,60.0
1393,D3,172.0,2.0,79,60.0
1394,G#2,172.0,2.0,79,60.0
1395,E-4,172.0,0.75,79,60.0
1396,B-3,172.0,0.5,79,60.0
1397,D2,172.0,0.75,95,60.0
1398,B-5,172.0,2.0,79,60.0
1399,F5,172.0,2.0,79,60.0
1400,B-5,172.0,2.0,79,60.0
1401,F5,172.0,2.0,79,60.0
1402,B-4,172.025,0.125,79,60.0
1403,C5,172.15,1.75,63,60.0
1404,G4,172.275,0.125,79,60.0
1405,B-4,172.4,1.0,79,60.0
1406,B-3,172.5,0.75,79,60.0
1407,F4,172.75,3.25,79,60.0
1408,D2,172.75,0.25,95,60.0
1409,B-2,173.0,0.5,95,60.0
1410,B-3,173.25,0.75,79,60.0
1411,F5,173.275,0.625,79,60.0
1412,D2,173.5,0.5,95,60.0
1413,E-5,173.9,4.0,79,60.0
1414,D5,173.9,4.0,79,60.0
1415,C5,173.9,4.0,63,60.0
1416,C5,173.9,4.0,79,60.0
1417,G5,173.9,4.0,79,60.0
1418,E-3,174.0,0.5,79,60.0
1419,E-2,174.0,0.25,95,60.0
1420,G5,174.0,1.0,79,60.0
1421,E-5,174.0,1.0,79,60.0
1422,G5,174.0,1.0,79,60.0
1423,E-5,174.0,1.0,79,60.0
1424,B-3,174.25,1.75,79,60.0
1425,B-2,174.25,0.25,95,60.0
1426,E-3,174.5,0.5,79,60.0
1427,E-2,174.5,0.5,95,60.0
1428,D3,175.0,1.0,79,60.0
1429,D2,175.0,0.25,95,60.0
1430,F5,175.0,1.0,79,60.0
1431,D5,175.0,1.0,79,60.0
1432,F5,175.0,1.0,79,60.0
1433,D5,175.0,1.0,79,60.0
1434,B-2,175.25,0.25,95,60.0
1435,D2,175.5,0.5,95,60.0
1436,E-5,175.75,0.25,79,60.0
1437,C5,175.75,0.25,79,60.0
1438,E-5,175.75,0.25,79,60.0
1439,C5,175.75,0.25,79,60.0
1440,F4,176.0,1.5,79,60.0
1441,C2,176.0,0.75,95,60.0
1442,E-5,176.0,1.75,79,60.0
1443,C5,176.0,1.75,79,60.0
1444,E-5,176.0,1.75,79,60.0
1445,C5,176.0,1.75,79,60.0
1446,C4,176.0,1.5,79,60.0
1447,G3,176.0,1.5,79,60.0
1448,C3,176.0,1.5,79,60.0
1449,C2,176.75,0.25,95,60.0
1450,C2,177.0,0.5,95,60.0
1451,C3,177.5,0.25,79,60.0
1452,C2,177.5,0.25,95,60.0
1453,B-2,177.75,0.25,79,60.0
1454,B-1,177.75,0.25,95,60.0
1455,C5,177.75,2.25,79,60.0
1456,A4,177.75,2.25,79,60.0
1457,C5,177.75,2.25,79,60.0
1458,A4,177.75,2.25,79,60.0
1459,E-5,177.9,4.0,79,60.0
1460,D5,177.9,4.0,79,60.0
1461,C5,177.9,4.0,63,60.0
1462,C5,177.9,4.0,79,60.0
1463,G5,177.9,4.0,79,60.0
1464,A2,178.0,2.0,79,60.0
1465,A1,178.0,0.5,95,60.0
1466,F3,178.25,1.25,79,60.0
1467,C4,178.5,0.75,79,60.0
1468,A1,178.5,0.25,95,60.0
1469,F4,178.75,1.25,79,60.0
1470,A1,178.75,0.25,95,60.0
1471,A2,179.0,0.25,95,60.0
1472,C4,179.25,0.75,79,60.0
1473,A1,179.25,0.25,95,60.0
1474,F3,179.5,0.5,79,60.0
1475,A1,179.5,0.25,95,60.0
1476,A1,179.75,0.25,95,60.0
1477,F4,180.0,4.0,79,60.0
1478,B-1,180.0,2.0,95,60.0
1479,B-4,180.0,1.75,79,60.0
1480,D4,180.0,1.75,79,60.0
1481,B-4,180.0,1.75,79,60.0
1482,D4,180.0,1.75,79,60.0
1483,B-3,180.0,2.0,79,60.0
1484,F3,180.0,2.0,79,60.0
1485,B-2,180.0,2.0,79,60.0
1486,D5,181.75,2.25,79,60.0
1487,F#4,181.75,2.25,79,60.0
1488,D5,181.75,2.25,79,60.0
1489,F#4,181.75,2.25,79,60.0
1490,E-5,181.9,4.0,79,60.0
1491,D5,181.9,4.0,79,60.0
1492,C5,181.9,4.0,63,60.0
1493,C5,181.9,4.0,79,60.0
1494,G5,181.9,4.0,79,60.0
1495,D3,182.0,2.0,79,60.0
1496,D1,182.0,2.0,95,60.0
1497,G2,184.0,0.5,15,60.0
1498,G1,184.0,4.0,95,60.0
1499,G5,184.0,4.0,79,60.0
1500,B-4,184.0,4.0,79,60.0
1501,G5,184.0,4.0,79,60.0
1502,B-4,184.0,4.0,79,60.0
1503,G4,184.0,4.0,95,60.0
1504,D4,184.0,4.0,95,60.0
1505,G3,184.0,4.0,95,60.0
1506,D3,184.0,4.0,95,60.0
1507,G2,184.0,4.0,95,60.0
1508,D3,184.01,0.969,15,60.0
1509,A3,184.01,0.969,15,60.0
1510,B-3,184.01,0.969,15,60.0
1511,G2,184.5,1.5,15,60.0
1512,D3,185.0,0.5,31,60.0
1513,A3,185.01,979/1000,31,60.0
1514,B-3,185.01,979/1000,31,60.0
1515,D3,185.5,0.5,31,60.0
1516,E-5,185.9,4.0,79,60.0
1517,D5,185.9,4.0,79,60.0
1518,C5,185.9,4.0,63,60.0
1519,C5,185.9,4.0,79,60.0
1520,G5,185.9,4.0,79,60.0
1521,G2,186.0,0.5,47,60.0
1522,D3,186.01,0.969,47,60.0
1523,A3,186.01,0.969,47,60.0
1524,B-3,186.01,0.969,47,60.0
1525,G2,186.5,1.5,47,60.0
1526,D3,187.0,0.5,63,60.0
1527,A3,187.01,979/1000,63,60.0
1528,B-3,187.01,979/1000,63,60.0
1529,D3,187.5,0.5,63,60.0
1530,F2,188.0,0.5,79,60.0
1531,F1,188.0,3.0,95,60.0
1532,C3,188.01,0.969,79,60.0
1533,G3,188.01,0.969,79,60.0
1534,A3,188.01,0.969,79,60.0
1535,F2,188.5,1.5,79,60.0
1536,C3,189.0,0.5,79,60.0
1537,G3,189.01,979/1000,79,60.0
1538,A3,189.01,979/1000,79,60.0
1539,B-3,189.15,0.75,79,60.0
1540,C3,189.5,0.5,79,60.0
1541,E-3,189.9,1.25,79,60.0
1542,E-5,189.9,4.0,79,60.0
1543,D5,189.9,4.0,79,60.0
1544,C5,189.9,4.0,63,60.0
1545,C5,189.9,4.0,79,60.0
1546,G5,189.9,4.0,79,60.0
1547,F2,190.0,0.5,79,60.0
1548,C3,190.01,0.969,79,60.0
1549,G3,190.01,0.969,79,60.0
1550,A3,190.01,0.969,79,60.0
1551,F2,190.5,1.5,79,60.0
1552,C3,191.0,0.5,79,60.0
1553,D1,191.0,0.5,95,60.0
1554,G3,191.01,979/1000,79,60.0
1555,A3,191.01,979/1000,79,60.0
1556,B-3,191.15,0.25,79,60.0
1557,E-3,191.4,0.25,79,60.0
1558,C3,191.5,0.5,79,60.0
1559,F1,191.5,0.5,95,60.0
1560,B-3,191.65,0.25,79,60.0
1561,E-4,191.9,0.75,79,60.0
1562,G2,192.0,0.5,79,60.0
1563,G1,192.0,2.75,95,60.0
1564,G5,192.0,4.0,79,60.0
1565,B-4,192.0,4.0,79,60.0
1566,G5,192.0,4.0,79,60.0
1567,B-4,192.0,4.0,79,60.0
1568,D3,192.01,0.969,79,60.0
1569,A3,192.01,0.969,79,60.0
1570,B-3,192.01,0.969,79,60.0
1571,G2,192.5,1.5,79,60.0
1572,F4,192.65,0.75,79,60.0
1573,D3,193.0,0.5,79,60.0
1574,A3,193.01,979/1000,79,60.0
1575,B-3,193.01,979/1000,79,60.0
1576,G#4,193.4,0.25,79,60.0
1577,D3,193.5,0.5,79,60.0
1578,F4,193.65,0.25,79,60.0
1579,E-5,193.9,6.75,79,60.0
1580,D5,193.9,1.75,79,60.0
1581,C5,193.9,99.75,63,60.0
1582,C5,193.9,5833/1000,79,60.0
1583,G5,193.9,7.25,79,60.0
1584,F4,193.9,1.25,79,60.0
1585,G2,194.0,0.5,79,60.0
1586,D3,194.01,0.969,79,60.0
1587,A3,194.01,0.969,79,60.0
1588,B-3,194.01,0.969,79,60.0
1589,G2,194.5,1.5,79,60.0
1590,D1,194.75,0.25,95,60.0
1591,D3,195.0,0.5,79,60.0
1592,D1,195.0,0.5,95,60.0
1593,A3,195.01,979/1000,79,60.0
1594,B-3,195.01,979/1000,79,60.0
1595,D5,195.15,2.75,79,60.0
1596,D3,195.5,0.5,79,60.0
1597,G1,195.5,0.5,95,60.0
1598,B-4,195.65,0.25,79,60.0
1599,B-4,195.9,0.5,79,60.0
1600,F2,196.0,0.5,79,60.0
1601,F1,196.0,1.75,95,60.0
1602,C3,196.01,0.969,79,60.0
1603,G3,196.01,0.969,79,60.0
1604,A3,196.01,0.969,79,60.0
1605,B-4,196.4,1.0,79,60.0
1606,F2,196.5,1.5,79,60.0
1607,C3,197.0,0.5,79,60.0
1608,G3,197.01,979/1000,79,60.0
1609,A3,197.01,979/1000,79,60.0
1610,G#4,197.4,0.25,79,60.0
1611,C3,197.5,0.5,79,60.0
1612,G4,197.65,0.25,79,60.0
1613,C1,197.75,0.25,95,60.0
1614,F2,198.0,0.5,79,60.0
1615,C1,198.0,0.25,95,60.0
1616,C3,198.01,0.969,79,60.0
1617,G3,198.01,0.969,79,60.0
1618,A3,198.01,0.969,79,60.0
1619,F2,198.5,1.5,79,60.0
1620,F1,198.5,1.0,95,60.0
1621,C3,199.0,0.5,79,60.0
1622,G3,199.01,99/100,79,60.0
1623,A3,199.021,979/1000,79,60.0
1624,C3,199.5,0.5,79,60.0
1625,G2,199.75,0.25,111,60.0
1626,G2,200.0,4.0,79,60.0
1627,C3,200.0,0.25,79,60.0
1628,G3,200.0,0.5,79,60.0
1629,A3,200.0,0.75,79,60.0
1630,G2,200.0,0.5,111,60.0
1631,D3,200.25,3.75,79,60.0
1632,A3,200.5,3.5,79,60.0
1633,D3,200.5,0.25,111,60.0
1634,B-3,200.75,3.25,79,60.0
1635,D3,200.75,1.0,111,60.0
1636,D4,201.0,3.0,79,60.0
1637,D3,201.75,0.25,111,60.0
1638,D3,202.0,0.5,111,60.0
1639,A3,202.5,0.25,111,60.0
1640,A3,202.75,1.0,111,60.0
1641,B-3,203.75,0.25,111,60.0
1642,F2,204.0,4.0,79,60.0
1643,D3,204.0,0.25,79,60.0
1644,A3,204.0,0.5,79,60.0
1645,B-3,204.0,0.75,79,60.0
1646,D4,204.0,1.0,79,60.0
1647,A3,204.0,333/1000,111,60.0
1648,C3,204.25,3.75,79,60.0
1649,F3,204.333,333/1000,111,60.0
1650,G3,204.5,3.5,79,60.0
1651,F3,204.667,1333/1000,111,60.0
1652,A3,204.75,3.25,79,60.0
1653,C4,205.0,3.0,79,60.0
1654,C4,206.0,0.25,111,60.0
1655,B-3,206.25,0.25,111,60.0
1656,A3,206.5,0.25,89,60.0
1657,F3,206.75,0.25,111,60.0
1658,C3,207.0,0.25,111,60.0
1659,B-2,207.25,0.25,111,60.0
1660,A2,207.5,0.25,111,60.0
1661,B-2,207.75,0.25,111,60.0
1662,G2,208.0,4.0,79,60.0
1663,C3,208.0,0.25,79,60.0
1664,G3,208.0,0.5,79,60.0
1665,A3,208.0,0.75,79,60.0
1666,C4,208.0,1.0,79,60.0
1667,G2,208.0,0.5,111,60.0
1668,D3,208.25,3.75,79,60.0
1669,A3,208.5,3.5,79,60.0
1670,D3,208.5,0.25,111,60.0
1671,B-3,208.75,3.25,79,60.0
1672,D3,208.75,1.0,111,60.0
1673,D4,209.0,3.0,79,60.0
1674,D3,209.75,0.125,111,60.0
1675,D3,209.875,0.125,111,60.0
1676,D3,210.0,0.5,111,60.0
1677,A3,210.5,0.25,111,60.0
1678,A3,210.75,0.75,111,60.0
1679,B-3,211.5,0.25,111,60.0
1680,A3,211.75,0.25,111,60.0
1681,F2,212.0,4.0,79,60.0
1682,D3,212.0,0.25,79,60.0
1683,A3,212.0,0.5,79,60.0
1684,B-3,212.0,0.75,79,60.0
1685,D4,212.0,1.0,79,60.0
1686,B-3,212.0,333/1000,111,60.0
1687,C3,212.25,3.75,79,60.0
1688,D4,212.333,333/1000,111,60.0
1689,G3,212.5,3.5,79,60.0
1690,C4,212.667,333/1000,111,60.0
1691,A3,212.75,3.25,79,60.0
1692,C4,213.0,3.0,79,60.0
1693,A3,213.0,333/1000,111,60.0
1694,F3,213.333,333/1000,111,60.0
1695,F3,213.667,1333/1000,111,60.0
1696,F3,215.0,0.25,111,60.0
1697,G3,215.25,0.25,111,60.0
1698,F3,215.5,0.25,111,60.0
1699,D3,215.75,0.25,111,60.0
1700,C3,216.0,2.75,79,60.0
1701,C3,216.0,1.5,79,60.0
1702,C4,216.0,1.5,79,60.0
1703,E-3,216.0,0.75,111,60.0
1704,B-3,216.01,1479/1000,79,60.0
1705,E-4,216.01,1479/1000,79,60.0
1706,B-3,216.75,2.0,111,60.0
1707,B-3,217.5,2.0,79,60.0
1708,E-4,217.51,87/50,79,60.0
1709,G4,217.521,1479/1000,79,60.0
1710,C3,218.75,1.25,79,60.0
1711,B-3,218.75,21/500,111,60.0
1712,G4,219.0,1.0,79,60.0
1713,B-3,219.0,0.25,111,60.0
1714,E-4,219.25,0.75,79,60.0
1715,A3,219.25,0.25,111,60.0
1716,B-3,219.5,0.5,79,60.0
1717,B-3,219.5,0.25,111,60.0
1718,D4,219.75,0.25,111,60.0
1719,D3,220.0,2.75,79,60.0
1720,G4,220.0,1.5,79,60.0
1721,C4,220.0,333/1000,111,60.0
1722,C4,220.01,1479/1000,79,60.0
1723,F4,220.01,1479/1000,79,60.0
1724,C4,220.333,333/1000,111,60.0
1725,A3,220.667,333/1000,111,60.0
1726,F3,221.0,1.5,111,60.0
1727,C4,221.5,2.25,79,60.0
1728,F4,221.51,199/100,79,60.0
1729,A4,221.521,1479/1000,79,60.0
1730,D4,222.335,457/500,111,60.0
1731,D3,222.75,1.25,79,60.0
1732,A4,223.0,0.125,79,60.0
1733,C5,223.125,0.125,63,60.0
1734,A4,223.25,0.75,63,60.0
1735,C4,223.25,0.25,111,60.0
1736,F4,223.5,0.5,79,60.0
1737,B-3,223.5,0.125,111,60.0
1738,G3,223.625,0.125,111,60.0
1739,C4,223.75,0.25,79,60.0
1740,F3,223.75,0.125,111,60.0
1741,B-3,223.875,0.125,111,60.0
1742,G2,224.0,4.0,79,60.0
1743,C4,224.0,0.25,79,60.0
1744,F4,224.0,0.5,79,60.0
1745,A4,224.0,0.75,63,60.0
1746,G3,224.0,0.75,111,60.0
1747,F3,224.25,3.75,79,60.0
1748,B-3,224.5,2.5,79,60.0
1749,C4,224.75,2.25,79,60.0
1750,B-3,224.75,0.75,111,60.0
1751,C4,225.75,0.125,111,60.0
1752,D4,226.0,0.125,111,60.0
1753,B-3,226.125,0.125,111,60.0
1754,A3,226.25,0.125,111,60.0
1755,G3,226.375,0.125,111,60.0
1756,F3,226.5,0.125,111,60.0
1757,B-3,226.625,0.125,111,60.0
1758,A3,226.75,0.125,111,60.0
1759,G3,226.875,0.125,111,60.0
1760,B-3,227.0,1.0,79,60.0
1761,F3,227.0,0.125,111,60.0
1762,D4,227.01,0.656,79,60.0
1763,A4,227.021,0.312,79,60.0
1764,E3,227.125,0.125,111,60.0
1765,A3,227.25,0.125,111,60.0
1766,G4,227.333,667/1000,63,60.0
1767,G3,227.375,0.125,111,60.0
1768,F3,227.5,0.125,111,60.0
1769,E3,227.625,0.125,111,60.0
1770,D4,227.667,167/1000,79,60.0
1771,D3,227.75,0.125,111,60.0
1772,F3,227.875,0.125,111,60.0
1773,E3,228.0,2.75,79,60.0
1774,G4,228.0,3.0,63,60.0
1775,E3,228.0,0.5,111,60.0
1776,B-3,228.01,3.469,79,60.0
1777,G4,228.01,3.469,79,60.0
1778,D4,228.021,3229/1000,79,60.0
1779,B-2,228.5,0.125,111,60.0
1780,A2,228.625,0.125,111,60.0
1781,G2,228.75,1.25,111,60.0
1782,E2,230.0,0.125,111,60.0
1783,F2,230.125,0.125,111,60.0
1784,G2,230.25,0.125,111,60.0
1785,A2,230.375,0.125,111,60.0
1786,B-2,230.5,0.125,111,60.0
1787,G2,230.625,0.125,111,60.0
1788,E3,230.75,1.25,79,60.0
1789,A2,230.75,0.125,111,60.0
1790,B-2,230.875,0.125,111,60.0
1791,G4,231.0,1.0,79,60.0
1792,C3,231.0,0.125,111,60.0
1793,D3,231.125,0.125,111,60.0
1794,D4,231.25,0.75,79,60.0
1795,E3,231.25,0.125,111,60.0
1796,C3,231.375,0.125,111,60.0
1797,B-3,231.5,0.5,79,60.0
1798,D3,231.5,0.125,111,60.0
1799,E3,231.625,0.125,111,60.0
1800,G3,231.75,0.125,111,60.0
1801,E3,231.875,0.125,111,60.0
1802,E-3,232.0,3.0,79,60.0
1803,F#3,232.0,0.5,111,60.0
1804,B-3,232.01,1.469,79,60.0
1805,C#4,232.01,1.469,79,60.0
1806,F#4,232.01,1.469,79,60.0
1807,E-3,232.5,0.125,111,60.0
1808,C#3,232.625,0.125,111,60.0
1809,E-3,232.75,1.0,111,60.0
1810,B-3,233.5,2.25,79,60.0
1811,C#4,233.51,199/100,79,60.0
1812,F#4,233.521,1729/1000,79,60.0
1813,A3,233.75,21/500,111,60.0
1814,A3,233.875,21/500,111,60.0
1815,A3,234.0,0.125,111,60.0
1816,B-3,234.125,0.125,89,60.0
1817,B-3,234.25,0.125,111,60.0
1818,B-3,234.375,0.125,111,60.0
1819,B-3,234.5,0.125,111,60.0
1820,B-3,234.625,0.125,111,60.0
1821,A3,234.75,0.125,111,60.0
1822,B-3,234.875,0.125,89,60.0
1823,E-3,235.0,1.0,79,60.0
1824,B-3,235.0,0.125,111,60.0
1825,B-3,235.125,0.125,111,60.0
1826,F#4,235.25,0.75,79,60.0
1827,B-3,235.25,0.125,111,60.0
1828,B-3,235.375,0.125,111,60.0
1829,C#4,235.5,0.5,79,60.0
1830,A3,235.5,0.125,111,60.0
1831,G#3,235.625,0.125,111,60.0
1832,B-3,235.75,0.25,79,60.0
1833,G3,235.75,0.125,111,60.0
1834,F#3,235.875,0.125,111,60.0
1835,F3,236.0,0.5,111,60.0
1836,D3,236.0,1.469,79,60.0
1837,F3,236.0,1.469,79,60.0
1838,C4,236.0,1.469,79,60.0
1839,E4,236.0,1.469,79,60.0
1840,D3,236.5,0.125,111,60.0
1841,C3,236.625,0.125,111,60.0
1842,D3,236.75,1.25,111,60.0
1843,D3,237.5,1.469,79,60.0
1844,F#3,237.5,1.469,79,60.0
1845,C4,237.5,1.469,79,60.0
1846,E-4,237.5,1.469,79,60.0
1847,F#3,238.0,0.125,111,60.0
1848,C3,238.125,0.125,111,60.0
1849,E-3,238.25,0.125,111,60.0
1850,F#3,238.375,0.125,111,60.0
1851,A3,238.5,0.125,111,60.0
1852,E-3,238.625,0.125,111,60.0
1853,F#3,238.75,0.125,111,60.0
1854,A3,238.875,0.125,111,60.0
1855,C4,239.0,0.125,111,60.0
1856,F#3,239.125,0.125,111,60.0
1857,A3,239.25,0.125,111,60.0
1858,C4,239.375,0.125,111,60.0
1859,A3,239.5,0.125,111,60.0
1860,E-3,239.625,0.125,111,60.0
1861,F#3,239.75,0.125,111,60.0
1862,A3,239.875,0.125,111,60.0
1863,G1,240.0,1.75,111,60.0
1864,G3,240.0,1.0,111,60.0
1865,D1,241.75,0.25,111,60.0
1866,G1,242.0,0.25,111,60.0
1867,G1,242.5,1.0,111,60.0
1868,D4,243.0,21/500,63,60.0
1869,A3,243.0,21/500,63,60.0
1870,D4,243.0,21/500,63,60.0
1871,A3,243.0,21/500,63,60.0
1872,B-1,243.5,0.5,111,60.0
1873,C2,244.0,1.75,111,60.0
1874,G4,244.0,4.0,63,60.0
1875,D4,244.0,4.0,63,60.0
1876,G3,244.0,4.0,63,60.0
1877,D3,244.0,4.0,63,60.0
1878,G2,244.0,4.0,63,60.0
1879,G4,244.0,4.0,63,60.0
1880,D4,244.0,4.0,63,60.0
1881,G3,244.0,4.0,63,60.0
1882,D3,244.0,4.0,63,60.0
1883,G2,244.0,4.0,63,60.0
1884,G1,245.75,0.25,111,60.0
1885,C2,246.0,0.25,111,60.0
1886,G1,246.25,0.25,111,60.0
1887,C2,246.5,0.25,111,60.0
1888,C2,247.0,0.25,111,60.0
1889,B-1,247.25,0.75,111,60.0
1890,G1,248.0,1.75,111,60.0
1891,C4,248.0,3.0,63,60.0
1892,G3,248.0,3.0,63,60.0
1893,C3,248.0,3.0,63,60.0
1894,G2,248.0,3.0,63,60.0
1895,C4,248.0,3.0,63,60.0
1896,G3,248.0,3.0,63,60.0
1897,C3,248.0,3.0,63,60.0
1898,G2,248.0,3.0,63,60.0
1899,D1,249.75,0.25,111,60.0
1900,G1,250.0,0.25,111,60.0
1901,G1,250.5,1.0,111,60.0
1902,C4,251.0,0.25,63,60.0
1903,G3,251.0,0.25,63,60.0
1904,C3,251.0,0.25,63,60.0
1905,C4,251.0,0.25,63,60.0
1906,G3,251.0,0.25,63,60.0
1907,C3,251.0,0.25,63,60.0
1908,B-3,251.25,0.75,63,60.0
1909,F3,251.25,0.75,63,60.0
1910,B-2,251.25,0.75,63,60.0
1911,B-3,251.25,0.75,63,60.0
1912,F3,251.25,0.75,63,60.0
1913,B-2,251.25,0.75,63,60.0
1914,B-1,251.5,0.5,111,60.0
1915,C2,252.0,0.75,111,60.0
1916,G4,252.0,4.0,63,60.0
1917,D4,252.0,4.0,63,60.0
1918,G3,252.0,4.0,63,60.0
1919,D3,252.0,4.0,63,60.0
1920,G2,252.0,4.0,63,60.0
1921,G4,252.0,4.0,63,60.0
1922,D4,252.0,4.0,63,60.0
1923,G3,252.0,4.0,63,60.0
1924,D3,252.0,4.0,63,60.0
1925,G2,252.0,4.0,63,60.0
1926,C2,252.75,21/500,111,60.0
1927,B-1,253.0,0.25,111,60.0
1928,C2,253.25,0.5,89,60.0
1929,G1,253.75,0.25,111,60.0
1930,C2,254.0,0.25,111,60.0
1931,C2,254.5,0.5,111,60.0
1932,C2,255.0,0.25,111,60.0
1933,B-1,255.25,0.75,111,60.0
1934,G1,256.0,1.75,111,60.0
1935,C4,256.0,3.0,63,60.0
1936,G3,256.0,3.0,63,60.0
1937,C3,256.0,3.0,63,60.0
1938,G2,256.0,3.0,63,60.0
1939,C4,256.0,3.0,63,60.0
1940,G3,256.0,3.0,63,60.0
1941,C3,256.0,3.0,63,60.0
1942,G2,256.0,3.0,63,60.0
1943,D1,257.75,0.25,111,60.0
1944,G1,258.0,0.25,111,60.0
1945,G1,258.5,1.0,111,60.0
1946,C4,259.0,0.25,63,60.0
1947,G3,259.0,0.25,63,60.0
1948,C3,259.0,0.25,63,60.0
1949,C4,259.0,0.25,63,60.0
1950,G3,259.0,0.25,63,60.0
1951,C3,259.0,0.25,63,60.0
1952,B-3,259.25,0.75,63,60.0
1953,F3,259.25,0.75,63,60.0
1954,B-2,259.25,0.75,63,60.0
1955,B-3,259.25,0.75,63,60.0
1956,F3,259.25,0.75,63,60.0
1957,B-2,259.25,0.75,63,60.0
1958,B-1,259.5,0.5,111,60.0
1959,C2,260.0,0.25,111,60.0
1960,G4,260.0,4.0,63,60.0
1961,D4,260.0,4.0,63,60.0
1962,G3,260.0,4.0,63,60.0
1963,D3,260.0,4.0,63,60.0
1964,G2,260.0,4.0,63,60.0
1965,G4,260.0,4.0,63,60.0
1966,D4,260.0,4.0,63,60.0
1967,G3,260.0,4.0,63,60.0
1968,D3,260.0,4.0,63,60.0
1969,G2,260.0,4.0,63,60.0
1970,C2,260.25,0.25,111,60.0
1971,C2,260.5,0.25,111,60.0
1972,C2,260.75,0.25,111,60.0
1973,B-1,261.0,0.25,111,60.0
1974,C2,261.25,0.25,89,60.0
1975,C2,261.5,0.25,111,60.0
1976,G1,261.75,0.25,111,60.0
1977,C2,262.0,0.25,111,60.0
1978,C2,262.5,0.5,111,60.0
1979,C2,263.0,0.25,111,60.0
1980,B-1,263.25,0.75,111,60.0
1981,G1,264.0,1.75,111,60.0
1982,C4,264.0,3.0,63,60.0
1983,G3,264.0,3.0,63,60.0
1984,C3,264.0,3.0,63,60.0
1985,G2,264.0,3.0,63,60.0
1986,C4,264.0,3.0,63,60.0
1987,G3,264.0,3.0,63,60.0
1988,C3,264.0,3.0,63,60.0
1989,G2,264.0,3.0,63,60.0
1990,D1,265.75,0.25,111,60.0
1991,G1,266.0,0.25,111,60.0
1992,G1,266.5,1.5,111,60.0
1993,C4,267.0,0.25,63,60.0
1994,G3,267.0,0.25,63,60.0
1995,C3,267.0,0.25,63,60.0
1996,C4,267.0,0.25,63,60.0
1997,G3,267.0,0.25,63,60.0
1998,C3,267.0,0.25,63,60.0
1999,B-3,267.25,0.75,63,60.0
2000,F3,267.25,0.75,63,60.0
2001,B-2,267.25,0.75,63,60.0
2002,B-3,267.25,0.75,63,60.0
2003,F3,267.25,0.75,63,60.0
2004,B-2,267.25,0.75,63,60.0
2005,A1,268.0,4.0,111,60.0
2006,G4,268.0,4.0,63,60.0
2007,D4,268.0,4.0,63,60.0
2008,G3,268.0,4.0,63,60.0
2009,D3,268.0,4.0,63,60.0
2010,G2,268.0,4.0,63,60.0
2011,G4,268.0,4.0,63,60.0
2012,D4,268.0,4.0,63,60.0
2013,G3,268.0,4.0,63,60.0
2014,D3,268.0,4.0,63,60.0
2015,G2,268.0,4.0,63,60.0
2016,D1,272.0,4.0,111,60.0
2017,E-4,272.0,3.0,63,60.0
2018,C4,272.0,3.0,63,60.0
2019,G3,272.0,3.0,63,60.0
2020,A2,272.0,3.0,63,60.0
2021,E-4,272.0,3.0,63,60.0
2022,C4,272.0,3.0,63,60.0
2023,G3,272.0,3.0,63,60.0
2024,A2,272.0,3.0,63,60.0
2025,F#3,274.75,1.25,63,60.0
2026,F#3,274.75,1.25,63,60.0
2027,G1,276.0,0.5,111,60.0
2028,D4,276.0,4.0,63,60.0
2029,A3,276.0,4.0,63,60.0
2030,D3,276.0,4.0,63,60.0
2031,A2,276.0,4.0,63,60.0
2032,D4,276.0,4.0,63,60.0
2033,A3,276.0,4.0,63,60.0
2034,D3,276.0,4.0,63,60.0
2035,A2,276.0,4.0,63,60.0
2036,G2,276.333,417/1000,111,60.0
2037,D2,276.5,0.25,111,60.0
2038,G1,276.667,333/1000,111,60.0
2039,D2,277.0,0.25,111,60.0
2040,G2,277.125,0.25,111,60.0
2041,D2,277.25,0.25,111,60.0
2042,G2,277.375,0.25,111,60.0
2043,D2,277.5,0.25,111,60.0
2044,G2,277.625,0.25,111,60.0
2045,D2,277.75,0.25,111,60.0
2046,G2,277.875,73/250,111,60.0
2047,D2,278.0,333/1000,111,60.0
2048,G2,278.167,333/1000,111,60.0
2049,D2,278.333,0.25,111,60.0
2050,G1,278.5,0.5,111,60.0
2051,G2,279.0,1.0,111,60.0
2052,G1,280.0,4.0,111,60.0
2053,G4,280.0,987/250,63,60.0
2054,D4,280.0,987/250,63,60.0
2055,B-3,280.0,987/250,63,60.0
2056,G3,280.0,987/250,63,60.0
2057,D3,280.0,987/250,63,60.0
2058,G2,280.0,987/250,63,60.0
2059,G4,280.0,987/250,63,60.0
2060,D4,280.0,987/250,63,60.0
2061,B-3,280.0,987/250,63,60.0
2062,G3,280.0,987/250,63,60.0
2063,D3,280.0,987/250,63,60.0
2064,G2,280.0,987/250,63,60.0
2065,G1,284.0,4.0,111,60.0
2066,D5,293.65,2.0,79,60.0
2067,G4,293.65,1.0,79,60.0
2068,F4,294.65,167/1000,79,60.0
2069,G4,294.816,167/1000,79,60.0
2070,G#4,294.983,167/1000,79,60.0
2071,B-4,295.15,167/1000,79,60.0
2072,C5,295.316,2333/1000,79,60.0
2073,D5,295.483,2167/1000,79,60.0
2074,E-5,295.65,2.0,79,60.0
2075,F5,296.4,0.25,79,60.0
2076,G5,296.65,1.0,79,60.0
2077,G#5,296.9,0.25,79,60.0
2078,F5,297.15,0.5,79,60.0
2079,C5,297.65,92167/1000,79,60.0
2080,D5,297.65,1.75,79,60.0
2081,E-5,297.65,1.5,79,60.0
2082,G5,297.65,5.0,79,60.0
2083,F5,297.65,1.25,79,60.0
2084,E-5,298.9,2.75,79,60.0
2085,D5,299.15,2.5,79,60.0
2086,B-5,299.4,0.75,79,60.0
2087,B-5,300.15,1.0,79,60.0
2088,G#5,301.15,0.25,79,60.0
2089,G5,301.4,0.25,79,60.0
2090,E-5,389.816,1.5,79,60.0
2091,D5,389.816,5.25,79,60.0
2092,G5,389.816,2.75,79,60.0
2093,E-5,391.066,2.5,79,60.0
2094,G5,391.316,1.75,79,60.0
2095,G5,392.566,1.25,79,60.0
2096,E-5,393.316,0.5,79,60.0
2097,F5,393.566,0.25,79,60.0
2098,F5,395.066,1.25,79,60.0
2099,E-5,395.066,5.25,79,60.0
2100,G5,395.066,10.0,79,60.0
2101,D5,396.316,2.5,79,60.0
2102,F5,396.566,1.25,79,60.0
2103,F5,397.816,0.75,79,60.0
2104,D5,398.566,0.5,79,60.0
2105,E-5,398.816,0.25,79,60.0
2106,E-5,405.066,1.75,79,60.0
2107,D5,405.066,1.5,79,60.0
2108,D5,406.316,2.75,79,60.0
2109,E-5,406.566,2.25,79,60.0
2110,F5,406.816,0.75,79,60.0
2111,F5,407.566,1.0,79,60.0
2112,E-5,408.566,0.5,79,60.0
2113,D5,408.816,0.25,79,60.0
2114,D5,409.066,1.0,79,60.0
2115,D5,409.066,4.0,79,60.0
2116,E-5,409.066,179.0,79,60.0
2117,C6,410.066,0.75,79,60.0
2118,A5,410.066,0.75,79,60.0
2119,B-5,410.816,0.25,79,60.0
2120,G5,410.816,2.25,79,60.0
2121,A5,411.066,1.0,79,60.0
2122,F#5,411.066,1.0,79,60.0
2123,F#5,412.066,1.0,79,60.0
2124,D5,412.066,1.0,79,60.0
2125,G5,588.066,4.0,79,60.0
2126,G4,588.066,4.0,79,60.0
2127,G5,588.066,4.0,79,60.0
2128,D5,588.066,406/5,79,60.0
2129,G5,669.266,4.0,79,60.0
2130,G5,673.266,4.0,79,60.0
2131,G5,677.266,4.0,79,60.0
2132,G5,681.266,4.0,79,60.0
2133,G5,685.266,4.0,79,60.0
2134,G5,689.266,4.0,79,60.0
2135,G5,693.266,4.0,79,60.0
2136,G5,697.266,4.0,79,60.0
2137,G5,701.266,4.0,79,60.0
2138,G5,705.266,4.0,79,60.0
2139,G5,709.266,4.0,79,60.0
2140,G5,713.266,4.0,79,60.0
2141,G5,717.266,4.0,79,60.0
2142,F4,721.016,0.25,63,60.0
2143,G5,721.266,23.0,79,60.0
2144,F4,721.266,1.5,63,60.0
2145,G4,722.766,167/1000,63,60.0
2146,F4,722.933,167/1000,63,60.0
2147,C4,723.016,167/1000,63,60.0
2148,D4,723.1,167/1000,63,60.0
2149,D4,723.433,1833/1000,63,60.0
2150,F4,723.516,1.25,63,60.0
2151,G4,723.6,167/1000,63,60.0
2152,G4,724.766,167/1000,63,60.0
2153,F4,724.933,167/1000,63,60.0
2154,C4,725.016,167/1000,63,60.0
2155,D4,725.1,167/1000,63,60.0
2156,D4,744.266,333/1000,63,60.0
2157,D4,744.433,1333/1000,63,60.0
2158,G4,744.6,167/1000,63,60.0
2159,B-4,744.766,0.5,63,60.0
2160,G4,745.266,167/1000,63,60.0
2161,F4,745.433,167/1000,63,60.0
2162,C4,745.516,417/1000,63,60.0
2163,D4,745.6,0.5,63,60.0
2164,D4,745.933,333/1000,63,60.0
2165,D4,746.1,2167/1000,63,60.0
2166,C#4,746.266,0.125,63,60.0
2167,C4,746.391,0.125,50,60.0
2168,B-3,746.516,0.125,63,60.0
2169,G3,746.641,0.125,63,60.0
2170,B-3,746.766,0.5,63,60.0
2171,G3,747.266,167/1000,63,60.0
2172,F3,747.433,167/1000,63,60.0
2173,D3,747.6,167/1000,63,60.0
2174,C#3,747.766,167/1000,63,60.0
2175,C3,747.933,333/1000,63,60.0
2176,B-2,748.1,167/1000,63,60.0
2177,G2,748.266,1.5,63,60.0
2178,C3,748.266,4.0,63,60.0
2179,D4,748.266,4.0,63,60.0
2180,F2,749.766,0.25,63,60.0
2181,G2,750.016,0.25,63,60.0
2182,D3,750.016,0.25,63,60.0
2183,D3,750.266,1.625,63,60.0
2184,D3,751.891,0.125,63,60.0
2185,G3,752.016,0.25,25,60.0
2186,D3,752.016,0.25,25,60.0
2187,C3,752.266,4.0,63,60.0
2188,C3,752.266,1.5,63,60.0
2189,D4,752.266,1833/1000,63,60.0
2190,C4,753.766,167/1000,63,60.0
2191,D4,753.933,2333/1000,63,60.0
2192,F4,754.1,167/1000,63,60.0
2193,G4,754.266,167/1000,63,60.0
2194,B4,754.433,1833/1000,63,60.0
2195,G4,754.6,667/1000,63,60.0
2196,C5,755.266,1.0,63,60.0
2197,F5,756.016,0.25,63,60.0
2198,C5,756.266,0.75,63,60.0
2199,C3,756.266,239333/1000,63,60.0
2200,D4,756.266,21.75,63,60.0
2201,B4,756.266,252333/1000,63,60.0
2202,C5,756.266,0.5,63,60.0
2203,F5,756.266,167/1000,63,60.0
2204,F5,756.433,333/1000,63,60.0
2205,C5,756.6,667/1000,63,60.0
2206,F5,756.766,0.25,63,60.0
2207,C5,756.891,0.625,63,60.0
2208,F5,757.016,0.25,63,60.0
2209,C5,757.141,0.75,63,60.0
2210,F5,757.266,0.25,63,60.0
2211,C5,757.391,0.625,63,60.0
2212,F5,757.516,0.25,63,60.0
2213,C5,757.641,0.625,63,60.0
2214,F5,757.766,0.25,63,60.0
2215,C5,757.891,0.625,63,60.0
2216,F5,758.016,0.25,63,60.0
2217,C5,758.141,0.625,63,60.0
2218,F5,758.266,0.25,63,60.0
2219,C5,758.391,0.875,63,60.0
2220,F5,758.516,0.125,63,60.0
2221,C5,758.641,1.625,63,60.0
2222,C5,758.766,1.5,63,60.0
2223,B-5,759.266,0.75,63,60.0
2224,G4,760.016,0.0,63,60.0
2225,F4,760.141,0.125,63,60.0
2226,F5,1008.6,0.375,63,60.0
2227,C5,1008.6,0.75,63,60.0
2228,C5,1008.6,1.875,63,60.0
2229,C5,1008.975,573/250,63,60.0
2230,B-4,1009.225,0.375,63,60.0
2231,G4,1009.6,0.5,63,60.0
2232,F5,1010.1,0.125,63,60.0
2233,C#5,1010.225,0.125,63,60.0
2234,C5,1010.35,2.25,50,60.0
2235,B-4,1010.475,0.125,63,60.0
2236,G4,1010.6,167/1000,63,60.0
2237,B-4,1010.766,167/1000,63,60.0
2238,C5,1010.933,1667/1000,63,60.0
2239,F5,1011.266,1333/1000,63,60.0
2240,G5,1011.433,1167/1000,63,60.0
2241,B-5,1011.6,0.0,63,60.0
2242,G5,1011.6,1.0,63,60.0
2243,F5,1012.35,0.25,63,60.0
2244,F5,1012.6,0.25,63,60.0
2245,C5,1012.6,3.812,50,60.0
2246,C5,1012.6,4.0,63,60.0
2247,G5,1012.6,0.5,63,60.0
2248,F5,1012.6,0.5,63,60.0
2249,G5,1012.975,0.375,63,60.0
2250,F5,1012.975,0.5,63,60.0
2251,G5,1013.225,0.375,63,60.0
2252,F5,1013.225,19/40,63,60.0
2253,G5,1013.475,0.3,63,60.0
2254,F5,1013.6,2/5,63,60.0
2255,D5,1013.7,2/5,63,60.0
2256,G5,1013.799,0.5,63,60.0
2257,F5,1013.899,0.5,63,60.0
2258,B-5,1013.975,9/40,63,60.0
2259,D5,1013.999,0.375,63,60.0
2260,G5,1014.2,483/1000,63,60.0
2261,F5,1014.299,0.3,63,60.0
2262,F5,1014.374,0.392,63,60.0
2263,D5,1014.399,9/20,63,60.0
2264,G5,1014.6,417/1000,63,60.0
2265,F5,1014.683,417/1000,63,60.0
2266,D5,1014.766,112/125,63,60.0
2267,B-5,1014.85,83/1000,63,60.0
2268,G5,1014.933,0.223,63,60.0
2269,F5,1015.016,1583/1000,63,60.0
2270,G5,1015.1,277/1000,63,60.0
2271,A5,1015.156,7/125,63,60.0
2272,B-5,1015.156,7/125,63,60.0
2273,A5,1015.266,7/125,63,60.0
2274,G5,1015.322,277/1000,63,60.0
2275,A5,1015.377,7/125,63,60.0
2276,B-5,1015.377,7/125,63,60.0
2277,A5,1015.489,27/500,63,60.0
2278,G5,1015.543,132/125,50,60.0
2279,D5,1015.6,0.188,63,60.0
2280,E5,1015.662,0.062,63,60.0
2281,D5,1015.725,0.125,63,60.0
2282,D5,1015.787,0.188,63,60.0
2283,E5,1015.85,0.062,63,60.0
2284,D5,1015.912,0.125,63,60.0
2285,E5,1015.975,0.062,63,60.0
2286,D5,1016.037,0.062,63,60.0
2287,E5,1016.1,0.062,63,60.0
2288,E5,1016.162,0.062,63,60.0
2289,D5,1016.225,0.375,63,60.0
2290,C#5,1016.287,0.062,63,60.0
2291,C5,1016.35,0.25,63,60.0
2292,D5,1016.35,0.25,63,60.0
2293,B-4,1016.412,0.062,63,60.0
2294,B-4,1016.475,0.062,63,60.0
2295,C5,1016.537,0.062,63,60.0
2296,F5,1016.6,264833/1000,63,60.0
2297,D5,1016.6,1.75,63,60.0
2298,G5,1016.6,265887/1000,50,60.0
2299,C5,1016.6,256667/1000,63,60.0
2300,D5,1016.6,2.0,63,60.0
2301,C5,1016.6,267.875,63,60.0
2302,D5,1018.35,2.25,63,60.0
2303,D5,1018.6,2.0,63,60.0
2304,D5,1284.475,4.0,63,60.0
2305,D5,1284.475,1.75,63,60.0
2306,B-4,1286.225,0.75,63,60.0
2307,A4,1286.975,0.5,63,60.0
2308,G4,1287.475,0.5,63,60.0
2309,F#4,1287.975,0.5,63,60.0
2310,G4,1288.475,1.0,63,60.0
2311,D5,1288.475,259.25,63,60.0
2312,D4,1289.475,1.5,63,60.0
2313,D4,1290.225,2.25,63,60.0
2314,C4,1290.975,0.125,63,60.0
2315,C4,1291.225,0.75,63,60.0
2316,B-3,1291.975,0.125,63,60.0
2317,B-3,1292.225,0.25,63,60.0
2318,C4,1547.725,0.5,63,60.0
2319,D4,1547.725,4.0,63,60.0
2320,A3,1548.225,0.125,63,60.0
2321,A3,1548.475,0.75,63,60.0
2322,G3,1549.225,0.125,63,60.0
2323,G3,1549.475,917/1000,63,60.0
2324,F3,1550.391,667/1000,63,60.0
2325,D3,1551.058,83/1000,63,60.0
2326,D3,1551.141,31/125,63,60.0
2327,D3,1551.391,333/1000,63,60.0
2328,G3,1551.725,4.0,50,60.0
2329,D4,1551.725,4.0,63,60.0
2330,D4,1555.725,4.0,63,60.0
2331,D4,1559.725,4.0,63,60.0
2332,D4,1563.725,4.0,63,60.0
2333,D4,1567.725,4.0,63,60.0
2334,D4,1571.725,4.0,63,60.0
2335,D4,1575.725,4.0,63,60.0
2336,D4,1579.725,4.0,63,60.0
2337,D4,1583.725,4.0,63,60.0
2338,D4,1587.725,4.0,63,60.0
2339,D4,1591.725,4.0,63,60.0
2340,D4,1595.725,4.0,63,60.0
2341,D4,1599.725,4.0,63,60.0
2342,D4,1603.725,4.0,63,60.0
2343,D4,1607.725,4.0,63,60.0
2344,D4,1611.725,4.0,63,60.0
2345,D4,1615.725,4.0,63,60.0
2346,D4,1619.725,4.0,63,60.0
2347,D4,1623.725,4.0,63,60.0
2348,D4,1627.725,4.0,63,60.0
2349,D4,1631.725,4.0,63,60.0
2350,D4,1635.725,4.0,63,60.0
2351,D4,1639.725,4.0,63,60.0
2352,D4,1643.725,4.0,63,60.0
2353,D4,1647.725,4.0,63,60.0
2354,D4,1651.725,4.0,63,60.0
2355,D4,1655.725,4.0,63,60.0
2356,D4,1659.725,4.0,63,60.0
2357,D4,1663.725,4.0,63,60.0
2358,D4,1667.725,4.0,63,60.0
2359,D4,1671.725,4.0,63,60.0
2360,D4,1675.725,4.0,63,60.0
2361,D4,1679.725,4.0,63,60.0
2362,D4,1683.725,4.0,63,60.0
2363,D4,1687.725,4.0,63,60.0
2364,D4,1691.725,4.0,63,60.0
2365,D4,1695.725,4.0,63,60.0
2366,D4,1699.725,4.0,63,60.0
2367,D4,1703.725,4.0,63,60.0
2368,D4,1707.725,4.0,63,60.0
2369,D4,1711.725,4.0,63,60.0
2370,D4,1715.725,4.0,63,60.0
2371,D4,1719.725,4.0,63,60.0
2372,D4,1723.725,4.0,63,60.0
2373,D4,1727.725,4.0,63,60.0
2374,D4,1731.725,4.0,63,60.0
2375,D4,1735.725,4.0,63,60.0
2376,D4,1739.725,4.0,63,60.0
2377,D4,1743.725,4.0,63,60.0
2378,D4,1747.725,4.0,63,60.0
2379,D4,1751.725,4.0,63,60.0
2380,D4,1755.725,4.0,63,60.0
2381,D4,1759.725,4.0,63,60.0
2382,D4,1763.725,4.0,63,60.0
2383,D4,1767.725,4.0,63,60.0
2384,D4,1771.725,3333/1000,63,60.0
