,note_name,start_time,duration,velocity,tempo
0,D4,0.0,0.25,44,102.0
1,B4,0.0,4.0,49,102.0
2,B5,0.0,4.0,52,102.0
3,F#4,0.033,0.125,51,102.0
4,G#3,0.033,0.125,51,102.0
5,B3,0.033,0.125,51,102.0
6,E-4,0.033,0.125,51,102.0
7,D4,0.5,0.25,20,102.0
8,G#3,0.792,1/10,67,102.0
9,E-4,0.792,1/10,67,102.0
10,F#4,0.792,1/10,67,102.0
11,B3,0.792,1/10,67,102.0
12,E-4,1.0,0.25,40,102.0
13,C#4,1.483,1229/500,71,102.0
14,B3,1.483,1229/500,71,102.0
15,F#4,1.5,12/5,63,102.0
16,G3,1.5,2333/1000,73,102.0
17,D4,1.5,0.25,6,102.0
18,D4,1.75,0.25,50,102.0
19,D4,2.25,0.25,25,102.0
20,D4,2.5,0.25,32,102.0
21,C#4,3.0,0.25,57,102.0
22,D4,3.5,0.25,9,102.0
23,D4,3.75,0.25,15,102.0
24,D4,4.0,0.25,23,102.0
25,B4,4.0,1779/500,49,102.0
26,B5,4.0,10.125,52,102.0
27,B3,4.0,921/500,69,102.0
28,E-4,4.0,921/500,69,102.0
29,F#3,4.0,921/500,69,102.0
30,D4,4.5,0.25,19,102.0
31,E-4,5.0,0.25,44,102.0
32,D4,5.5,0.25,1,102.0
33,D4,5.75,0.25,34,102.0
34,G#4,5.917,529/500,47,102.0
35,G#5,5.917,529/500,47,102.0
36,E-4,5.983,71/40,46,102.0
37,F3,6.017,33/20,54,102.0
38,B3,6.025,71/40,74,102.0
39,G#3,6.025,71/40,74,102.0
40,D4,6.25,0.25,26,102.0
41,D4,6.5,0.25,39,102.0
42,F#5,6.967,23/40,49,102.0
43,F#4,6.983,733/1000,47,102.0
44,C#4,7.0,0.25,40,102.0
45,D4,7.5,0.25,6,102.0
46,B4,7.658,171/500,55,102.0
47,D4,7.75,0.25,20,102.0
48,D4,8.0,0.25,32,102.0
49,B3,8.05,233/1000,71,102.0
50,F#4,8.05,233/1000,71,102.0
51,G#3,8.05,233/1000,71,102.0
52,E-4,8.058,1/40,100,102.0
53,D4,8.5,0.25,7,102.0
54,G#3,8.75,0.125,67,102.0
55,F#4,8.75,0.125,67,102.0
56,B3,8.75,0.125,67,102.0
57,E-4,8.758,0.125,74,102.0
58,F#4,8.758,0.125,74,102.0
59,B3,8.758,0.125,74,102.0
60,E-4,9.0,0.25,40,102.0
61,B3,9.2,3/40,38,102.0
62,C#4,9.483,299/125,76,102.0
63,B3,9.483,299/125,76,102.0
64,F#4,9.5,89/40,63,102.0
65,G3,9.5,23/10,68,102.0
66,D4,9.5,0.25,3,102.0
67,D4,9.75,0.25,41,102.0
68,D4,10.25,0.25,14,102.0
69,D4,10.5,0.25,26,102.0
70,C#4,11.0,0.25,49,102.0
71,D4,11.5,0.25,1,102.0
72,D4,11.75,0.25,5,102.0
73,B3,11.958,21/500,76,102.0
74,E-4,11.967,33/1000,68,102.0
75,F#3,11.983,17/1000,84,102.0
76,B3,12.0,3833/1000,76,102.0
77,E-4,12.0,473/250,68,102.0
78,F#3,12.0,73/40,84,102.0
79,D4,12.0,0.25,19,102.0
80,D4,12.5,0.5,11,102.0
81,E-4,13.0,0.25,36,102.0
82,D4,13.5,0.25,1,102.0
83,D4,13.75,0.25,34,102.0
84,C#4,14.0,1817/1000,55,102.0
85,E4,14.025,1.375,70,102.0
86,A3,14.025,1567/1000,74,102.0
87,B4,14.125,4.0,55,102.0
88,D4,14.25,0.25,34,102.0
89,D4,14.5,0.25,28,102.0
90,C#4,15.0,0.25,44,102.0
91,D4,15.5,0.25,1,102.0
92,D4,15.75,0.25,6,102.0
93,B3,15.992,1/125,94,102.0
94,B3,16.0,133/1000,94,102.0
95,D4,16.0,0.25,44,102.0
96,G#3,16.008,26/125,74,102.0
97,F#4,16.008,26/125,74,102.0
98,E-4,16.017,17/1000,109,102.0
99,D4,16.5,0.5,30,102.0
100,E-4,16.75,29/500,79,102.0
101,G#3,16.75,29/500,79,102.0
102,F#4,16.75,29/500,79,102.0
103,B3,16.75,29/500,79,102.0
104,E-4,17.0,0.25,44,102.0
105,C#4,17.467,299/125,74,102.0
106,B3,17.467,299/125,74,102.0
107,F#4,17.483,2217/1000,66,102.0
108,G3,17.492,577/250,70,102.0
109,D4,17.75,0.25,32,102.0
110,B4,18.125,43/20,55,102.0
111,D4,18.25,0.25,34,102.0
112,D4,18.5,0.25,37,102.0
113,C#4,19.0,0.25,40,102.0
114,D4,19.5,0.25,1,102.0
115,D4,19.75,0.25,34,102.0
116,E-4,19.975,1/40,82,102.0
117,B3,19.975,1/40,82,102.0
118,F#3,19.975,1/40,82,102.0
119,D4,20.0,0.25,37,102.0
120,E-4,20.0,79/500,82,102.0
121,B3,20.0,79/500,82,102.0
122,F#3,20.0,79/500,82,102.0
123,C#5,20.092,983/1000,59,102.0
124,C#6,20.092,983/1000,59,102.0
125,D4,20.5,0.25,32,102.0
126,F#3,20.775,27/250,79,102.0
127,E-4,20.775,27/250,79,102.0
128,B3,20.775,27/250,79,102.0
129,E-4,21.0,0.25,36,102.0
130,E-6,21.108,21/40,48,102.0
131,E-5,21.108,21/40,48,102.0
132,D4,21.5,0.25,25,102.0
133,B3,21.525,11/5,66,102.0
134,E-4,21.525,11/5,66,102.0
135,G#3,21.525,11/5,66,102.0
136,F3,21.525,11/5,66,102.0
137,B5,21.592,533/1000,58,102.0
138,B4,21.592,533/1000,58,102.0
139,D4,21.75,0.25,34,102.0
140,B5,22.125,4.0,58,102.0
141,B4,22.125,4.0,58,102.0
142,D4,22.25,0.25,22,102.0
143,D4,22.5,0.25,32,102.0
144,C#4,23.0,0.25,40,102.0
145,D4,23.5,0.25,7,102.0
146,D4,23.75,0.25,6,102.0
147,B3,23.95,1/20,70,102.0
148,A3,23.95,1/20,70,102.0
149,G3,23.95,1/20,70,102.0
150,D4,23.95,1/20,70,102.0
151,D4,24.0,0.25,41,102.0
152,B3,24.0,1117/1000,70,102.0
153,A3,24.0,1117/1000,70,102.0
154,G3,24.0,1117/1000,70,102.0
155,D4,24.0,1117/1000,70,102.0
156,D4,24.5,0.5,12,102.0
157,E-4,25.0,0.25,54,102.0
158,D4,25.5,0.25,10,102.0
159,D4,25.75,0.25,37,102.0
160,E4,26.017,1033/1000,76,102.0
161,A3,26.017,1033/1000,76,102.0
162,B3,26.017,1033/1000,76,102.0
163,C#4,26.017,1033/1000,78,102.0
164,A3,26.017,1033/1000,78,102.0
165,B3,26.017,1033/1000,78,102.0
166,B5,26.125,3967/1000,58,102.0
167,B4,26.125,3967/1000,58,102.0
168,D4,26.25,0.25,30,102.0
169,D4,26.5,0.25,30,102.0
170,C#4,27.0,0.25,59,102.0
171,D4,27.5,0.25,6,102.0
172,D4,27.75,0.25,30,102.0
173,E-4,27.95,1/20,75,102.0
174,G#3,27.95,1/20,75,102.0
175,B3,27.95,1/20,75,102.0
176,F#4,27.95,1/20,75,102.0
177,E1,28.0,0.25,83,102.0
178,A5,28.0,0.25,46,102.0
179,D4,28.0,0.25,44,102.0
180,F#3,28.0,0.25,114,102.0
181,E-4,28.0,29/500,75,102.0
182,G#3,28.0,29/500,75,102.0
183,B3,28.0,29/500,75,102.0
184,F#4,28.0,29/500,75,102.0
185,G#2,28.0,0.5,112,102.0
186,C2,28.0,0.5,112,102.0
187,C#6,28.033,717/1000,104,102.0
188,C#5,28.033,717/1000,104,102.0
189,A5,28.25,0.25,1,102.0
190,F#3,28.25,0.25,81,102.0
191,E1,28.5,0.25,83,102.0
192,A5,28.5,0.25,18,102.0
193,D4,28.5,0.5,34,102.0
194,F#2,28.5,0.25,80,102.0
195,F#3,28.5,0.25,80,102.0
196,E-5,28.733,71/500,94,102.0
197,E-6,28.733,71/500,94,102.0
198,E2,28.75,0.5,107,102.0
199,F#2,28.75,0.25,80,102.0
200,F#3,28.75,0.25,80,102.0
201,C2,28.75,0.25,80,102.0
202,G#3,28.758,1/10,81,102.0
203,F#4,28.758,1/10,81,102.0
204,E-4,28.758,1/10,81,102.0
205,B3,28.758,1/10,81,102.0
206,A5,29.0,0.25,25,102.0
207,E-4,29.0,0.25,44,102.0
208,E2,29.0,0.5,104,102.0
209,G#2,29.0,0.25,122,102.0
210,F#3,29.0,0.25,122,102.0
211,B1,29.25,0.25,73,102.0
212,F#2,29.25,0.25,86,102.0
213,F#3,29.25,0.25,86,102.0
214,C#4,29.5,2083/1000,81,102.0
215,E-1,29.5,1.0,109,102.0
216,A5,29.5,0.25,15,102.0
217,D4,29.5,0.25,6,102.0
218,C2,29.5,0.75,97,102.0
219,F#2,29.5,0.25,88,102.0
220,F#3,29.5,0.25,88,102.0
221,F#4,29.508,77/40,76,102.0
222,B3,29.508,77/40,76,102.0
223,G3,29.508,77/40,76,102.0
224,A5,29.75,0.25,27,102.0
225,D4,29.75,0.25,39,102.0
226,F#3,29.75,0.25,86,102.0
227,F#2,29.75,0.25,86,102.0
228,A5,30.0,0.25,13,102.0
229,G#2,30.0,0.25,124,102.0
230,F#3,30.0,0.25,124,102.0
231,D6,30.033,23/250,60,102.0
232,D5,30.033,23/250,60,102.0
233,D6,30.125,39/20,60,102.0
234,D5,30.125,39/20,60,102.0
235,D4,30.25,0.25,28,102.0
236,F#3,30.25,0.25,54,102.0
237,E-2,30.5,0.25,100,102.0
238,A5,30.5,0.25,1,102.0
239,D4,30.5,0.25,37,102.0
240,C2,30.5,0.5,71,102.0
241,F#2,30.5,0.25,72,102.0
242,F#3,30.5,0.25,72,102.0
243,B-1,30.75,0.25,89,102.0
244,A5,30.75,0.25,8,102.0
245,F#2,30.75,0.25,86,102.0
246,F#3,30.75,0.25,86,102.0
247,F#1,31.0,0.25,96,102.0
248,A5,31.0,0.25,50,102.0
249,C#4,31.0,0.25,54,102.0
250,E2,31.0,0.5,107,102.0
251,G#2,31.0,0.25,116,102.0
252,F#3,31.0,0.25,116,102.0
253,F#3,31.25,0.25,60,102.0
254,G1,31.5,0.5,94,102.0
255,A5,31.5,0.25,1,102.0
256,D4,31.5,0.25,6,102.0
257,C2,31.5,0.25,81,102.0
258,F#2,31.5,0.25,81,102.0
259,F#3,31.5,0.25,81,102.0
260,A5,31.75,0.25,7,102.0
261,D4,31.75,0.25,25,102.0
262,F#3,31.75,0.25,94,102.0
263,F#2,31.75,0.25,94,102.0
264,F#3,31.967,33/1000,84,102.0
265,E-4,31.967,33/1000,84,102.0
266,B3,31.967,33/1000,84,102.0
267,G#1,32.0,1.0,119,102.0
268,A5,32.0,0.25,46,102.0
269,D4,32.0,0.25,34,102.0
270,C2,32.0,0.5,82,102.0
271,F#3,32.0,629/500,84,102.0
272,E-4,32.0,629/500,84,102.0
273,B3,32.0,629/500,84,102.0
274,G#2,32.0,0.25,114,102.0
275,F#3,32.0,0.25,114,102.0
276,E6,32.042,81/40,66,102.0
277,E5,32.042,81/40,66,102.0
278,F#3,32.25,0.25,54,102.0
279,A5,32.5,0.25,1,102.0
280,D4,32.5,0.25,32,102.0
281,F#2,32.5,0.25,64,102.0
282,F#3,32.5,0.25,64,102.0
283,A5,32.75,0.25,2,102.0
284,C2,32.75,0.25,86,102.0
285,F#2,32.75,0.25,86,102.0
286,F#3,32.75,0.25,86,102.0
287,G#1,33.0,0.75,100,102.0
288,A5,33.0,0.25,37,102.0
289,E-4,33.0,0.25,44,102.0
290,F#3,33.0,0.25,109,102.0
291,E2,33.0,0.5,110,102.0
292,G#2,33.0,0.5,110,102.0
293,F#3,33.25,0.25,64,102.0
294,A5,33.5,0.25,1,102.0
295,D4,33.5,0.25,1,102.0
296,C2,33.5,0.75,104,102.0
297,F#3,33.5,0.25,72,102.0
298,F#2,33.5,0.25,72,102.0
299,B-1,33.75,0.25,79,102.0
300,A5,33.75,0.25,1,102.0
301,D4,33.75,0.25,41,102.0
302,G#2,33.75,0.25,85,102.0
303,F#3,33.75,0.25,85,102.0
304,B4,33.983,71/500,62,102.0
305,B5,33.983,71/500,62,102.0
306,C#2,34.0,0.75,109,102.0
307,A5,34.0,0.25,34,102.0
308,D4,34.0,0.25,1,102.0
309,G#2,34.0,0.25,119,102.0
310,F#3,34.0,0.25,119,102.0
311,E-4,34.025,124/125,76,102.0
312,B3,34.025,124/125,76,102.0
313,F3,34.025,124/125,76,102.0
314,G#3,34.025,124/125,76,102.0
315,B4,34.125,4.0,62,102.0
316,B5,34.125,4.0,62,102.0
317,D4,34.25,0.25,13,102.0
318,F#2,34.25,0.25,80,102.0
319,F#3,34.25,0.25,80,102.0
320,A5,34.5,0.25,1,102.0
321,D4,34.5,0.25,41,102.0
322,C2,34.5,0.5,101,102.0
323,F#3,34.5,0.25,63,102.0
324,F#2,34.5,0.25,63,102.0
325,F#3,34.5,0.25,63,102.0
326,C#2,34.75,0.25,75,102.0
327,A5,34.75,0.25,1,102.0
328,F#2,34.75,0.25,82,102.0
329,F#3,34.75,0.25,82,102.0
330,E-2,35.0,0.5,92,102.0
331,A5,35.0,0.25,37,102.0
332,C#4,35.0,0.25,40,102.0
333,E2,35.0,0.5,110,102.0
334,G#2,35.0,0.25,114,102.0
335,F#3,35.0,0.25,114,102.0
336,F#3,35.25,0.25,65,102.0
337,F#2,35.25,0.25,65,102.0
338,E-2,35.5,0.25,75,102.0
339,A5,35.5,0.25,1,102.0
340,D4,35.5,0.25,23,102.0
341,C2,35.5,0.25,79,102.0
342,F#2,35.5,0.25,79,102.0
343,F#3,35.5,0.25,79,102.0
344,C#2,35.75,0.25,81,102.0
345,A5,35.75,0.25,4,102.0
346,D4,35.75,0.25,16,102.0
347,F#3,35.75,0.25,82,102.0
348,F#2,35.75,0.25,82,102.0
349,C#6,35.975,1/40,102,102.0
350,C#5,35.975,1/40,102,102.0
351,E1,36.0,0.25,101,102.0
352,A5,36.0,0.25,30,102.0
353,D4,36.0,0.25,28,102.0
354,C2,36.0,0.5,101,102.0
355,C#6,36.0,101/125,102,102.0
356,C#5,36.0,101/125,102,102.0
357,G#2,36.0,0.25,119,102.0
358,F#3,36.0,0.25,119,102.0
359,G#3,36.017,23/250,82,102.0
360,F#4,36.017,23/250,82,102.0
361,E-4,36.017,23/250,82,102.0
362,B3,36.017,23/250,82,102.0
363,F#3,36.25,0.25,66,102.0
364,E1,36.5,0.25,76,102.0
365,A5,36.5,0.25,1,102.0
366,D4,36.5,0.25,41,102.0
367,F#2,36.5,0.25,77,102.0
368,E2,36.75,0.5,107,102.0
369,A5,36.75,0.25,1,102.0
370,C2,36.75,0.25,79,102.0
371,F#2,36.75,0.25,79,102.0
372,F#3,36.75,0.25,79,102.0
373,E-6,36.767,26/125,84,102.0
374,G#3,36.783,83/1000,80,102.0
375,E-4,36.783,83/1000,80,102.0
376,F#4,36.783,83/1000,80,102.0
377,B3,36.783,83/1000,80,102.0
378,E-5,36.808,179/500,96,102.0
379,A5,37.0,0.25,46,102.0
380,E-4,37.0,0.25,54,102.0
381,E2,37.0,0.5,104,102.0
382,G#2,37.0,0.25,119,102.0
383,F#3,37.0,0.25,119,102.0
384,B1,37.25,0.25,66,102.0
385,F#2,37.25,0.25,62,102.0
386,F#6,37.475,2433/1000,86,102.0
387,F#5,37.475,2433/1000,86,102.0
388,E-1,37.5,1.0,100,102.0
389,A5,37.5,0.25,1,102.0
390,D4,37.5,0.25,34,102.0
391,C2,37.5,0.75,101,102.0
392,F#2,37.5,0.25,74,102.0
393,F#3,37.5,0.25,74,102.0
394,C#4,37.525,2.125,76,102.0
395,B3,37.525,2.125,76,102.0
396,F#4,37.533,1.875,72,102.0
397,G3,37.533,1.875,72,102.0
398,A5,37.75,0.25,1,102.0
399,D4,37.75,0.25,41,102.0
400,F#2,37.75,0.25,63,102.0
401,F#3,37.75,0.25,63,102.0
402,A5,38.0,0.25,37,102.0
403,G#2,38.0,0.25,116,102.0
404,F#3,38.0,0.25,116,102.0
405,B4,38.125,2017/1000,62,102.0
406,B5,38.125,2017/1000,62,102.0
407,D4,38.25,0.25,25,102.0
408,F#3,38.25,0.25,17,102.0
409,E-2,38.5,0.25,96,102.0
410,A5,38.5,0.25,1,102.0
411,D4,38.5,0.25,34,102.0
412,C2,38.5,0.5,97,102.0
413,F#2,38.5,0.25,70,102.0
414,F#3,38.5,0.25,70,102.0
415,B-1,38.75,0.25,104,102.0
416,A5,38.75,0.25,1,102.0
417,F#2,38.75,0.25,78,102.0
418,F#3,38.75,0.25,78,102.0
419,F#1,39.0,0.25,100,102.0
420,A5,39.0,0.25,43,102.0
421,C#4,39.0,0.25,49,102.0
422,E2,39.0,0.5,113,102.0
423,F#3,39.0,0.25,114,102.0
424,G#2,39.0,0.25,114,102.0
425,F#2,39.25,0.25,61,102.0
426,F#3,39.25,0.25,61,102.0
427,G1,39.5,0.5,97,102.0
428,A5,39.5,0.25,1,102.0
429,D4,39.5,0.25,32,102.0
430,C2,39.5,0.25,81,102.0
431,F#3,39.5,0.25,81,102.0
432,F#2,39.5,0.25,81,102.0
433,A5,39.75,0.25,1,102.0
434,D4,39.75,0.25,30,102.0
435,F#2,39.75,0.25,72,102.0
436,F#3,39.75,0.25,72,102.0
437,F#3,39.983,17/1000,77,102.0
438,E-4,39.983,17/1000,77,102.0
439,B3,39.983,17/1000,77,102.0
440,G#1,40.0,0.75,114,102.0
441,A5,40.0,0.25,34,102.0
442,D4,40.0,0.25,47,102.0
443,C2,40.0,0.5,61,102.0
444,F#3,40.0,47/40,77,102.0
445,E-4,40.0,47/40,77,102.0
446,B3,40.0,47/40,77,102.0
447,F#3,40.0,0.25,116,102.0
448,G#2,40.0,0.25,116,102.0
449,G#5,40.067,1017/1000,50,102.0
450,G#4,40.067,1017/1000,50,102.0
451,F#3,40.25,0.25,58,102.0
452,A5,40.5,0.25,1,102.0
453,D4,40.5,0.25,39,102.0
454,F#2,40.5,0.25,64,102.0
455,F#3,40.5,0.25,64,102.0
456,A5,40.75,0.25,1,102.0
457,F#3,40.75,0.25,68,102.0
458,F#2,40.75,0.25,68,102.0
459,C2,40.75,0.25,68,102.0
460,F#2,40.75,0.25,68,102.0
461,G#1,41.0,0.5,114,102.0
462,A5,41.0,0.25,37,102.0
463,E-4,41.0,0.25,49,102.0
464,E2,41.0,0.5,101,102.0
465,F#3,41.0,0.25,109,102.0
466,G#2,41.0,0.25,109,102.0
467,F#4,41.025,567/1000,50,102.0
468,F#5,41.025,567/1000,50,102.0
469,F#3,41.25,0.25,53,102.0
470,A5,41.5,0.25,1,102.0
471,D4,41.5,0.25,22,102.0
472,C2,41.5,0.75,97,102.0
473,F#3,41.5,0.25,70,102.0
474,F#2,41.5,0.25,70,102.0
475,B4,41.567,279/500,60,102.0
476,B5,41.583,271/500,58,102.0
477,G#1,41.75,0.25,68,102.0
478,A5,41.75,0.25,1,102.0
479,D4,41.75,0.25,22,102.0
480,F#3,41.75,0.25,63,102.0
481,F#2,41.75,0.25,63,102.0
482,F#3,41.75,0.25,63,102.0
483,B1,42.0,0.75,97,102.0
484,A5,42.0,0.25,30,102.0
485,E4,42.0,521/500,76,102.0
486,A3,42.0,521/500,76,102.0
487,B3,42.0,521/500,76,102.0
488,C#4,42.0,521/500,76,102.0
489,F#3,42.0,0.25,106,102.0
490,G#2,42.0,0.25,106,102.0
491,B4,42.125,4.0,60,102.0
492,B5,42.125,4.0,58,102.0
493,D4,42.25,0.25,37,102.0
494,F#3,42.25,0.25,84,102.0
495,F#2,42.25,0.25,84,102.0
496,A5,42.5,0.25,1,102.0
497,D4,42.5,0.25,39,102.0
498,C2,42.5,0.5,97,102.0
499,F#3,42.5,0.25,74,102.0
500,F#2,42.5,0.25,74,102.0
501,B1,42.75,0.25,66,102.0
502,A5,42.75,0.25,2,102.0
503,F#2,42.75,0.25,70,102.0
504,F#3,42.75,0.25,70,102.0
505,E-1,43.0,0.5,100,102.0
506,A5,43.0,0.25,34,102.0
507,C#4,43.0,0.25,44,102.0
508,E2,43.0,0.5,104,102.0
509,F#3,43.0,0.25,119,102.0
510,G#2,43.0,0.25,119,102.0
511,F#2,43.25,0.25,68,102.0
512,F#3,43.25,0.25,68,102.0
513,E-1,43.5,0.25,79,102.0
514,A5,43.5,0.25,1,102.0
515,D4,43.5,0.25,1,102.0
516,C2,43.5,0.25,78,102.0
517,F#3,43.5,0.25,78,102.0
518,F#2,43.5,0.25,78,102.0
519,E-1,43.75,0.25,75,102.0
520,A5,43.75,0.25,1,102.0
521,D4,43.75,0.25,26,102.0
522,F#2,43.75,0.25,74,102.0
523,F#3,43.75,0.25,74,102.0
524,G#3,43.975,1/40,86,102.0
525,E-4,43.975,1/40,86,102.0
526,F#4,43.975,1/40,86,102.0
527,B3,43.975,1/40,86,102.0
528,C#6,43.992,1/125,104,102.0
529,C#5,43.992,1/125,104,102.0
530,E1,44.0,0.25,86,102.0
531,A5,44.0,0.25,30,102.0
532,D4,44.0,0.25,47,102.0
533,C2,44.0,0.5,92,102.0
534,G#3,44.0,23/250,86,102.0
535,E-4,44.0,23/250,86,102.0
536,F#4,44.0,23/250,86,102.0
537,B3,44.0,23/250,86,102.0
538,C#6,44.0,733/1000,104,102.0
539,C#5,44.0,733/1000,104,102.0
540,G#2,44.0,0.25,112,102.0
541,F#3,44.0,0.25,112,102.0
542,F#2,44.25,0.25,54,102.0
543,F#3,44.25,0.25,54,102.0
544,E1,44.5,0.25,83,102.0
545,A5,44.5,0.25,1,102.0
546,D4,44.5,0.25,14,102.0
547,F#3,44.5,0.25,72,102.0
548,F#2,44.5,0.25,72,102.0
549,E2,44.75,0.5,101,102.0
550,A5,44.75,0.25,1,102.0
551,E-4,44.75,23/250,79,102.0
552,G#3,44.75,23/250,79,102.0
553,B3,44.75,23/250,79,102.0
554,F#2,44.75,0.25,71,102.0
555,F#3,44.75,0.25,71,102.0
556,C2,44.75,0.25,71,102.0
557,F#4,44.758,23/250,74,102.0
558,B3,44.758,23/250,74,102.0
559,E-6,44.767,233/1000,98,102.0
560,E-5,44.767,233/1000,98,102.0
561,A5,45.0,0.25,23,102.0
562,E-4,45.0,0.25,40,102.0
563,E2,45.0,0.5,90,102.0
564,F#3,45.0,0.25,116,102.0
565,G#2,45.0,0.25,116,102.0
566,B1,45.25,0.25,74,102.0
567,F#3,45.25,0.25,72,102.0
568,F#2,45.25,0.25,72,102.0
569,C#4,45.492,89/40,77,102.0
570,E-1,45.5,1.0,92,102.0
571,A5,45.5,0.25,1,102.0
572,D4,45.5,0.25,1,102.0
573,C2,45.5,0.75,99,102.0
574,B3,45.5,527/250,75,102.0
575,G3,45.5,527/250,75,102.0
576,F#3,45.5,0.25,80,102.0
577,F#2,45.5,0.25,80,102.0
578,F#4,45.508,251/125,66,102.0
579,C#5,45.517,2117/1000,104,102.0
580,C#6,45.517,19/10,100,102.0
581,A5,45.75,0.25,1,102.0
582,D4,45.75,0.25,41,102.0
583,F#3,45.75,0.25,72,102.0
584,F#2,45.75,0.25,72,102.0
585,A5,46.0,0.25,25,102.0
586,F#3,46.0,0.25,114,102.0
587,G#2,46.0,0.25,114,102.0
588,B4,46.125,1983/1000,60,102.0
589,B5,46.125,2083/1000,58,102.0
590,D4,46.25,0.25,44,102.0
591,F#2,46.25,0.25,81,102.0
592,E-2,46.5,0.25,109,102.0
593,A5,46.5,0.25,1,102.0
594,D4,46.5,0.25,30,102.0
595,C2,46.5,0.5,99,102.0
596,F#3,46.5,0.25,60,102.0
597,F#2,46.5,0.25,60,102.0
598,B-1,46.75,0.25,92,102.0
599,A5,46.75,0.25,1,102.0
600,F#2,46.75,0.25,74,102.0
601,F#3,46.75,0.25,74,102.0
602,F#1,47.0,0.25,92,102.0
603,A5,47.0,0.25,32,102.0
604,C#4,47.0,0.25,40,102.0
605,E2,47.0,0.5,104,102.0
606,F#3,47.0,0.25,116,102.0
607,G#2,47.0,0.25,116,102.0
608,F#3,47.25,0.25,70,102.0
609,F#2,47.25,0.25,70,102.0
610,G1,47.5,0.5,88,102.0
611,A5,47.5,0.25,1,102.0
612,D4,47.5,0.25,14,102.0
613,F#3,47.5,0.25,76,102.0
614,C2,47.5,0.25,76,102.0
615,F#2,47.5,0.25,76,102.0
616,A5,47.75,0.25,1,102.0
617,D4,47.75,0.25,28,102.0
618,F#3,47.75,0.25,68,102.0
619,F#2,47.75,0.25,68,102.0
620,B4,47.958,21/500,94,102.0
621,B5,47.958,21/500,94,102.0
622,F#3,47.983,17/1000,64,102.0
623,B3,47.983,17/1000,64,102.0
624,E-4,47.983,17/1000,64,102.0
625,G#1,48.0,0.5,114,102.0
626,A5,48.0,0.25,23,102.0
627,D4,48.0,0.25,37,102.0
628,C2,48.0,0.5,90,102.0
629,F#3,48.0,71/500,64,102.0
630,B3,48.0,71/500,64,102.0
631,E-4,48.0,71/500,64,102.0
632,B4,48.0,733/1000,94,102.0
633,B5,48.0,733/1000,94,102.0
634,F#3,48.0,0.25,109,102.0
635,G#2,48.0,0.25,109,102.0
636,C#5,48.067,124/125,49,102.0
637,C#6,48.067,124/125,49,102.0
638,F#3,48.25,0.25,55,102.0
639,F#2,48.25,0.25,55,102.0
640,A5,48.5,0.25,1,102.0
641,D4,48.5,0.25,1,102.0
642,F#3,48.5,0.25,69,102.0
643,F#2,48.5,0.25,69,102.0
644,G#1,48.75,0.5,92,102.0
645,A5,48.75,0.25,3,102.0
646,C2,48.75,0.25,63,102.0
647,F#3,48.75,0.25,63,102.0
648,F#2,48.75,0.25,63,102.0
649,E-5,48.767,177/250,89,102.0
650,E-6,48.767,177/250,89,102.0
651,F#3,48.808,1/10,81,102.0
652,E-4,48.808,1/10,81,102.0
653,B3,48.808,1/10,81,102.0
654,A5,49.0,0.25,32,102.0
655,E-4,49.0,0.25,49,102.0
656,E2,49.0,0.5,99,102.0
657,F#3,49.0,0.25,114,102.0
658,G#2,49.0,0.25,114,102.0
659,E-6,49.025,23/40,50,102.0
660,E-5,49.025,23/40,50,102.0
661,E-2,49.25,0.25,64,102.0
662,F#3,49.25,0.25,52,102.0
663,F#2,49.25,0.25,52,102.0
664,C#6,49.492,2.0,88,102.0
665,C#5,49.492,2.0,88,102.0
666,C#2,49.5,0.75,100,102.0
667,A5,49.5,0.25,1,102.0
668,D4,49.5,0.25,22,102.0
669,C2,49.5,0.75,99,102.0
670,F#3,49.5,0.25,68,102.0
671,F#2,49.5,0.25,68,102.0
672,E-4,49.533,17/10,69,102.0
673,B3,49.533,17/10,69,102.0
674,G#3,49.533,17/10,69,102.0
675,F3,49.55,879/500,66,102.0
676,B5,49.575,11/20,57,102.0
677,B4,49.575,11/20,57,102.0
678,A5,49.75,0.25,4,102.0
679,D4,49.75,0.25,37,102.0
680,F#3,49.75,0.25,66,102.0
681,F#2,49.75,0.25,66,102.0
682,A5,50.0,0.25,27,102.0
683,F#3,50.0,0.25,116,102.0
684,G#2,50.0,0.25,116,102.0
685,B5,50.125,4.0,57,102.0
686,B4,50.125,4.0,57,102.0
687,D4,50.25,0.25,16,102.0
688,F#3,50.25,0.25,64,102.0
689,F#2,50.25,0.25,64,102.0
690,C#2,50.5,0.5,86,102.0
691,A5,50.5,0.25,1,102.0
692,C2,50.5,0.5,104,102.0
693,F#3,50.5,0.25,74,102.0
694,F#2,50.5,0.25,74,102.0
695,A5,50.75,0.25,1,102.0
696,F#3,50.75,0.25,70,102.0
697,F#2,50.75,0.25,70,102.0
698,E-2,51.0,0.5,104,102.0
699,A5,51.0,0.25,30,102.0
700,C#4,51.0,0.25,54,102.0
701,E2,51.0,0.5,107,102.0
702,F#3,51.0,0.25,116,102.0
703,G#2,51.0,0.25,116,102.0
704,F#2,51.25,0.25,81,102.0
705,B4,51.492,77/250,64,102.0
706,B5,51.492,77/250,64,102.0
707,E-2,51.5,0.25,86,102.0
708,A5,51.5,0.25,1,102.0
709,D4,51.5,0.25,1,102.0
710,F#3,51.5,0.25,63,102.0
711,C2,51.5,0.25,63,102.0
712,F#2,51.5,0.25,63,102.0
713,C#2,51.75,0.25,60,102.0
714,A5,51.75,0.25,1,102.0
715,D4,51.75,0.25,11,102.0
716,F#3,51.75,0.25,72,102.0
717,F#2,51.75,0.25,72,102.0
718,C#6,51.775,9/40,96,102.0
719,C#5,51.783,217/1000,84,102.0
720,B3,51.975,1/40,83,102.0
721,D4,51.975,1/40,83,102.0
722,G3,51.975,1/40,83,102.0
723,A3,51.975,1/40,83,102.0
724,E1,52.0,1.5,92,102.0
725,C#6,52.0,1/125,96,102.0
726,C#5,52.0,3/40,84,102.0
727,A5,52.0,0.25,37,102.0
728,D4,52.0,0.25,32,102.0
729,C2,52.0,0.75,94,102.0
730,B3,52.0,37/40,83,102.0
731,D4,52.0,37/40,83,102.0
732,G3,52.0,37/40,83,102.0
733,A3,52.0,37/40,83,102.0
734,F#3,52.0,0.25,114,102.0
735,G#2,52.0,0.25,114,102.0
736,D5,52.05,1833/1000,84,102.0
737,D6,52.05,1833/1000,84,102.0
738,F#3,52.25,0.25,60,102.0
739,F#2,52.25,0.25,60,102.0
740,A5,52.5,0.25,1,102.0
741,D4,52.5,0.25,20,102.0
742,F#3,52.5,0.25,79,102.0
743,F#2,52.5,0.25,79,102.0
744,A5,52.75,0.25,1,102.0
745,F#3,52.75,0.25,74,102.0
746,F#2,52.75,0.25,74,102.0
747,C2,52.75,0.25,74,102.0
748,A5,53.0,0.25,34,102.0
749,E-4,53.0,0.25,54,102.0
750,E2,53.0,0.5,97,102.0
751,F#3,53.0,0.25,114,102.0
752,G#2,53.0,0.25,114,102.0
753,F#3,53.25,0.25,68,102.0
754,F#2,53.25,0.25,68,102.0
755,E2,53.5,0.25,82,102.0
756,A5,53.5,0.25,1,102.0
757,D4,53.5,0.25,22,102.0
758,C2,53.5,0.5,99,102.0
759,F#3,53.5,0.25,88,102.0
760,F#2,53.5,0.25,88,102.0
761,B1,53.75,0.25,43,102.0
762,A5,53.75,0.25,8,102.0
763,D4,53.75,0.25,20,102.0
764,F#3,53.75,0.25,78,102.0
765,F#2,53.75,0.25,78,102.0
766,C#5,53.833,167/1000,46,102.0
767,C#6,53.833,167/1000,46,102.0
768,A3,53.992,124/125,90,102.0
769,E4,53.992,124/125,90,102.0
770,C#4,53.992,124/125,90,102.0
771,B3,53.992,124/125,90,102.0
772,F#1,54.0,1.75,104,102.0
773,A5,54.0,0.25,40,102.0
774,G#2,54.0,0.25,109,102.0
775,F#3,54.0,0.25,109,102.0
776,E6,54.042,979/500,79,102.0
777,E5,54.05,1.875,85,102.0
778,B5,54.125,39/20,57,102.0
779,B4,54.125,39/20,57,102.0
780,D4,54.25,0.25,47,102.0
781,F#3,54.25,0.25,71,102.0
782,F#2,54.25,0.25,71,102.0
783,A5,54.5,0.25,1,102.0
784,D4,54.5,0.25,22,102.0
785,C2,54.5,0.5,74,102.0
786,F#2,54.5,0.25,89,102.0
787,F#3,54.5,0.25,89,102.0
788,A5,54.75,0.25,11,102.0
789,F#2,54.75,0.25,84,102.0
790,F#3,54.75,0.25,84,102.0
791,A5,55.0,0.25,40,102.0
792,C#4,55.0,0.25,54,102.0
793,E2,55.0,0.5,99,102.0
794,G#2,55.0,0.25,100,102.0
795,F#3,55.0,0.25,100,102.0
796,F#3,55.25,0.25,79,102.0
797,F#2,55.25,0.25,79,102.0
798,F#2,55.5,0.25,100,102.0
799,A5,55.5,0.25,1,102.0
800,D4,55.5,0.25,3,102.0
801,C2,55.5,0.25,91,102.0
802,F#3,55.5,0.25,91,102.0
803,F#2,55.5,0.25,91,102.0
804,C#2,55.75,0.25,64,102.0
805,A5,55.75,0.25,12,102.0
806,D4,55.75,0.25,32,102.0
807,F#3,55.75,0.25,78,102.0
808,F#2,55.75,0.25,78,102.0
809,C#5,55.983,1071/500,48,102.0
810,C#6,55.983,1071/500,48,102.0
811,G1,56.0,3.5,101,102.0
812,G#1,56.0,0.25,62,102.0
813,E6,56.0,1/40,79,102.0
814,C#3,56.0,0.25,114,102.0
815,D4,56.0,101/40,94,102.0
816,G3,56.0,101/40,94,102.0
817,A3,56.0,101/40,94,102.0
818,B3,56.0,101/40,94,102.0
819,B5,56.017,3983/1000,90,102.0
820,B4,56.017,3983/1000,90,102.0
821,D5,58.108,17/1000,64,102.0
822,D6,58.108,17/1000,64,102.0
823,C#5,58.125,17/1000,48,102.0
824,C#6,58.125,17/1000,48,102.0
825,D5,58.125,1021/500,64,102.0
826,D6,58.125,1021/500,64,102.0
827,F#1,59.5,0.25,81,102.0
828,E-3,59.5,0.25,96,102.0
829,G1,59.75,0.25,80,102.0
830,E-3,59.75,0.25,96,102.0
831,C#4,59.967,33/1000,72,102.0
832,A3,59.967,33/1000,72,102.0
833,E4,59.967,33/1000,72,102.0
834,B3,59.967,33/1000,72,102.0
835,A1,60.0,3.5,69,102.0
836,A3,60.0,0.25,104,102.0
837,C#4,60.0,89/40,72,102.0
838,A3,60.0,89/40,72,102.0
839,E4,60.0,89/40,72,102.0
840,B3,60.0,89/40,72,102.0
841,B5,60.0,1929/500,90,102.0
842,B4,60.0,1929/500,90,102.0
843,E5,60.108,2017/1000,64,102.0
844,E6,60.108,2017/1000,64,102.0
845,B5,62.025,1/10,59,102.0
846,B4,62.025,1/10,59,102.0
847,E5,62.125,1/40,64,102.0
848,E6,62.125,1/40,64,102.0
849,B5,62.125,3433/1000,59,102.0
850,B4,62.125,3433/1000,59,102.0
851,B4,62.15,159/40,98,102.0
852,B5,62.15,159/40,98,102.0
853,E2,63.5,0.25,117,102.0
854,G#1,64.0,1.0,100,102.0
855,C2,64.0,0.5,113,102.0
856,F#2,64.0,0.25,114,102.0
857,E-4,64.025,677/250,77,102.0
858,F#3,64.025,677/250,77,102.0
859,B3,64.025,677/250,77,102.0
860,F#2,64.25,0.25,96,102.0
861,F#2,64.5,0.25,89,102.0
862,G#2,64.75,0.25,109,102.0
863,C2,64.75,0.25,74,102.0
864,F#2,64.75,0.25,74,102.0
865,E2,65.0,0.25,116,102.0
866,G#2,65.0,0.25,116,102.0
867,F#2,65.25,0.25,89,102.0
868,G#1,65.5,0.75,100,102.0
869,C2,65.5,0.5,99,102.0
870,F#2,65.5,0.25,92,102.0
871,F#2,65.75,0.25,86,102.0
872,F#2,66.0,0.25,109,102.0
873,B4,66.125,4.0,98,102.0
874,B5,66.125,4.0,98,102.0
875,G#2,66.25,0.5,109,102.0
876,F#2,66.25,0.25,73,102.0
877,C2,66.5,0.5,104,102.0
878,F#2,66.5,0.25,92,102.0
879,E-2,66.75,0.25,62,102.0
880,F#2,66.75,0.25,37,102.0
881,B-1,67.0,0.5,109,102.0
882,E2,67.0,0.25,113,102.0
883,G#2,67.0,0.25,113,102.0
884,F#2,67.25,0.25,92,102.0
885,B1,67.5,0.5,74,102.0
886,C2,67.5,0.25,89,102.0
887,F#2,67.5,0.25,89,102.0
888,F#2,67.75,0.25,89,102.0
889,E-2,68.0,1.25,104,102.0
890,C2,68.0,0.5,110,102.0
891,F#2,68.0,0.25,114,102.0
892,F#3,68.042,1433/1000,81,102.0
893,C#4,68.042,1433/1000,81,102.0
894,B-3,68.042,1433/1000,81,102.0
895,F#2,68.25,0.25,84,102.0
896,F#2,68.5,0.25,114,102.0
897,C2,68.75,0.25,54,102.0
898,F#2,68.75,0.25,54,102.0
899,E2,69.0,0.25,106,102.0
900,G#2,69.0,0.25,106,102.0
901,F#2,69.25,0.25,96,102.0
902,E-2,69.5,0.25,86,102.0
903,C2,69.5,0.5,107,102.0
904,F#2,69.5,0.25,104,102.0
905,C#2,69.75,0.25,89,102.0
906,F#2,69.75,0.25,96,102.0
907,G#1,70.0,0.5,100,102.0
908,F#2,70.0,0.25,92,102.0
909,F#3,70.017,1233/1000,54,102.0
910,E-4,70.033,1467/1000,68,102.0
911,B3,70.033,1467/1000,68,102.0
912,B4,70.125,4.0,98,102.0
913,B5,70.125,4.0,98,102.0
914,F#2,70.25,0.25,84,102.0
915,G#2,70.5,1.0,109,102.0
916,C2,70.5,0.25,110,102.0
917,F#2,70.5,0.25,110,102.0
918,F#2,70.75,0.25,32,102.0
919,E2,71.0,0.25,110,102.0
920,G#2,71.0,0.25,110,102.0
921,F#2,71.25,0.25,96,102.0
922,B1,71.5,0.5,117,102.0
923,C2,71.5,0.25,98,102.0
924,F#2,71.5,0.25,98,102.0
925,F#2,71.75,0.25,96,102.0
926,C#2,72.0,0.5,109,102.0
927,C2,72.0,0.5,83,102.0
928,F#2,72.0,0.25,119,102.0
929,B3,72.008,374/125,68,102.0
930,E3,72.025,109/40,60,102.0
931,G#3,72.025,109/40,60,102.0
932,F#2,72.25,0.25,41,102.0
933,F#2,72.5,0.25,104,102.0
934,C#2,72.75,0.25,109,102.0
935,C2,72.75,0.25,62,102.0
936,F#2,72.75,0.25,62,102.0
937,E2,73.0,0.25,112,102.0
938,G#2,73.0,0.25,112,102.0
939,B1,73.25,0.25,76,102.0
940,F#2,73.25,0.25,92,102.0
941,C#2,73.5,0.75,114,102.0
942,C2,73.5,0.75,104,102.0
943,F#2,73.5,0.25,114,102.0
944,F#2,73.75,0.25,96,102.0
945,F#2,74.0,0.25,104,102.0
946,B4,74.125,151/125,98,102.0
947,B5,74.125,151/125,98,102.0
948,F#2,74.25,0.25,96,102.0
949,C#2,74.5,0.5,100,102.0
950,C2,74.5,0.5,101,102.0
951,F#2,74.5,0.25,100,102.0
952,F#2,74.75,0.25,92,102.0
953,E2,75.0,0.5,101,102.0
954,G#2,75.0,0.25,114,102.0
955,C#2,75.25,0.25,104,102.0
956,F#2,75.25,0.25,86,102.0
957,B1,75.5,0.25,85,102.0
958,C2,75.5,0.25,102,102.0
959,F#2,75.5,0.25,102,102.0
960,A1,75.75,0.25,80,102.0
961,F#2,75.75,0.25,46,102.0
962,E1,76.0,0.25,104,102.0
963,C2,76.0,0.5,94,102.0
964,F#2,76.0,0.25,104,102.0
965,E4,76.0,321/500,79,102.0
966,B3,76.0,321/500,79,102.0
967,G#3,76.0,321/500,79,102.0
968,F#2,76.25,0.25,89,102.0
969,F#2,76.5,0.25,114,102.0
970,F#4,76.75,183/1000,57,102.0
971,E2,76.75,0.5,101,102.0
972,C2,76.75,0.25,61,102.0
973,F#2,76.75,0.25,61,102.0
974,E2,77.0,0.25,114,102.0
975,G#2,77.0,0.25,114,102.0
976,B1,77.25,0.25,66,102.0
977,F#2,77.25,0.25,96,102.0
978,E-1,77.5,1.0,104,102.0
979,C2,77.5,0.75,92,102.0
980,F#2,77.5,0.25,104,102.0
981,E-4,77.5,1667/1000,72,102.0
982,B3,77.5,1667/1000,72,102.0
983,G3,77.5,1667/1000,72,102.0
984,F#2,77.75,0.25,96,102.0
985,F#2,78.0,0.25,92,102.0
986,F#2,78.25,0.25,89,102.0
987,E-2,78.5,0.5,114,102.0
988,C2,78.5,0.5,104,102.0
989,F#2,78.5,0.25,109,102.0
990,F#2,78.75,0.25,84,102.0
991,E2,79.0,0.25,107,102.0
992,G#2,79.0,0.25,107,102.0
993,E-2,79.25,0.25,96,102.0
994,F#2,79.25,0.25,92,102.0
995,E-6,79.258,167/1000,71,102.0
996,G#5,79.258,167/1000,71,102.0
997,F#5,79.258,167/1000,71,102.0
998,B5,79.258,167/1000,71,102.0
999,B-1,79.5,0.25,109,102.0
1000,E2,79.5,0.25,104,102.0
1001,F#2,79.5,0.25,104,102.0
1002,E-1,79.75,0.25,96,102.0
1003,E2,79.75,0.25,98,102.0
1004,F#2,79.75,0.25,98,102.0
1005,G#1,80.0,0.75,92,102.0
1006,C2,80.0,0.5,107,102.0
1007,F#2,80.0,0.25,124,102.0
1008,E-4,80.008,79/40,58,102.0
1009,B3,80.008,79/40,58,102.0
1010,F#3,80.008,79/40,58,102.0
1011,F#2,80.25,0.25,37,102.0
1012,F#2,80.5,0.25,92,102.0
1013,G#2,80.75,0.5,114,102.0
1014,C2,80.75,0.25,95,102.0
1015,F#2,80.75,0.25,95,102.0
1016,E2,81.0,0.25,109,102.0
1017,G#2,81.0,0.25,109,102.0
1018,E-2,81.25,0.25,49,102.0
1019,F#2,81.25,0.25,41,102.0
1020,G#1,81.5,1.0,109,102.0
1021,C2,81.5,0.5,92,102.0
1022,F#2,81.5,0.25,114,102.0
1023,F#2,81.75,0.25,92,102.0
1024,F#2,82.0,0.25,109,102.0
1025,F#2,82.25,0.25,92,102.0
1026,G#2,82.5,0.25,100,102.0
1027,C2,82.5,0.5,83,102.0
1028,F#2,82.5,0.25,92,102.0
1029,E-2,82.75,0.25,62,102.0
1030,F#2,82.75,0.25,89,102.0
1031,B-1,83.0,0.5,109,102.0
1032,E2,83.0,0.25,116,102.0
1033,G#2,83.0,0.25,116,102.0
1034,F#2,83.25,0.25,81,102.0
1035,B1,83.5,0.5,75,102.0
1036,C2,83.5,0.25,94,102.0
1037,F#2,83.5,0.25,94,102.0
1038,F#2,83.75,0.25,81,102.0
1039,E-2,84.0,1.25,104,102.0
1040,C2,84.0,0.5,101,102.0
1041,F#2,84.0,0.25,114,102.0
1042,F#3,84.025,6/5,81,102.0
1043,B-3,84.025,6/5,81,102.0
1044,C#4,84.025,6/5,81,102.0
1045,F#2,84.25,0.25,23,102.0
1046,F#2,84.5,0.25,109,102.0
1047,C2,84.75,0.25,87,102.0
1048,F#2,84.75,0.25,87,102.0
1049,E2,85.0,0.25,106,102.0
1050,G#2,85.0,0.25,106,102.0
1051,F#2,85.25,0.25,84,102.0
1052,E-2,85.5,0.25,100,102.0
1053,C2,85.5,0.5,107,102.0
1054,F#2,85.5,0.25,114,102.0
1055,C#2,85.75,0.25,81,102.0
1056,F#2,85.75,0.25,36,102.0
1057,G#1,86.0,0.75,100,102.0
1058,F#2,86.0,0.25,114,102.0
1059,F#3,86.008,151/125,78,102.0
1060,B3,86.008,151/125,78,102.0
1061,E-4,86.008,151/125,78,102.0
1062,F#2,86.25,0.25,81,102.0
1063,G#2,86.5,0.75,104,102.0
1064,C2,86.5,0.5,107,102.0
1065,F#2,86.5,0.25,109,102.0
1066,F#2,86.75,0.25,92,102.0
1067,E2,87.0,0.5,117,102.0
1068,G#2,87.0,0.25,114,102.0
1069,F#2,87.25,0.25,96,102.0
1070,B1,87.5,0.25,101,102.0
1071,C2,87.5,0.25,98,102.0
1072,F#2,87.5,0.25,98,102.0
1073,F#2,87.75,0.25,92,102.0
1074,C#2,88.0,0.5,92,102.0
1075,F#2,88.0,0.25,124,102.0
1076,C2,88.0,0.5,78,102.0
1077,E3,88.0,2917/1000,73,102.0
1078,G#3,88.0,2917/1000,73,102.0
1079,B3,88.0,2917/1000,73,102.0
1080,F#2,88.25,0.25,89,102.0
1081,F#2,88.5,0.25,100,102.0
1082,C#2,88.75,0.25,96,102.0
1083,F#2,88.75,0.25,81,102.0
1084,C2,88.75,0.25,81,102.0
1085,G#2,89.0,0.25,100,102.0
1086,E2,89.0,0.25,100,102.0
1087,B1,89.25,0.25,73,102.0
1088,F#2,89.25,0.25,37,102.0
1089,C#2,89.5,0.75,100,102.0
1090,F#2,89.5,0.25,109,102.0
1091,C2,89.5,0.75,101,102.0
1092,F#2,89.75,0.25,92,102.0
1093,E-5,89.958,121/500,44,102.0
1094,F#2,90.0,0.25,109,102.0
1095,F#2,90.25,0.25,84,102.0
1096,B4,90.267,233/1000,46,102.0
1097,G#4,90.45,9/40,36,102.0
1098,C#2,90.5,0.5,100,102.0
1099,F#2,90.5,0.25,119,102.0
1100,C2,90.5,0.5,104,102.0
1101,F#4,90.7,83/1000,51,102.0
1102,F#2,90.75,0.25,86,102.0
1103,G#2,91.0,0.25,114,102.0
1104,E2,91.0,0.5,117,102.0
1105,E-4,91.008,0.25,51,102.0
1106,C#2,91.25,0.25,104,102.0
1107,F#2,91.25,0.25,86,102.0
1108,B3,91.3,233/1000,49,102.0
1109,G#3,91.467,267/1000,51,102.0
1110,B1,91.5,0.25,72,102.0
1111,F#2,91.5,0.25,95,102.0
1112,C2,91.5,0.25,95,102.0
1113,F#3,91.717,283/1000,72,102.0
1114,A1,91.75,0.25,78,102.0
1115,F#2,91.75,0.25,92,102.0
1116,E1,92.0,0.75,113,102.0
1117,F#3,92.0,33/1000,72,102.0
1118,C2,92.0,0.5,97,102.0
1119,F#2,92.0,0.25,124,102.0
1120,E4,92.0,717/1000,74,102.0
1121,G#3,92.0,717/1000,74,102.0
1122,B3,92.0,717/1000,74,102.0
1123,F#2,92.25,0.25,81,102.0
1124,F#2,92.5,0.25,96,102.0
1125,E2,92.75,0.5,107,102.0
1126,F#2,92.75,0.25,84,102.0
1127,C2,92.75,0.25,84,102.0
1128,F#4,92.792,26/125,58,102.0
1129,E2,93.0,0.25,112,102.0
1130,G#2,93.0,0.25,112,102.0
1131,B1,93.25,0.25,73,102.0
1132,F#2,93.25,0.25,96,102.0
1133,E-1,93.5,1.75,109,102.0
1134,F#2,93.5,0.25,96,102.0
1135,C2,93.5,0.75,85,102.0
1136,E-4,93.55,1683/1000,65,102.0
1137,B3,93.55,1683/1000,65,102.0
1138,G3,93.55,1683/1000,65,102.0
1139,F#2,93.75,0.25,86,102.0
1140,F#2,94.0,0.25,96,102.0
1141,F#2,94.25,0.25,81,102.0
1142,E-2,94.5,0.5,114,102.0
1143,C2,94.5,0.5,110,102.0
1144,F#2,94.5,0.25,114,102.0
1145,F#2,94.75,0.25,77,102.0
1146,E2,95.0,0.25,102,102.0
1147,G#2,95.0,0.25,102,102.0
1148,E-2,95.25,0.25,119,102.0
1149,F#2,95.25,0.25,81,102.0
1150,E-6,95.267,133/1000,70,102.0
1151,F#5,95.267,133/1000,70,102.0
1152,G#5,95.267,133/1000,70,102.0
1153,B5,95.267,133/1000,70,102.0
1154,B-1,95.5,0.25,114,102.0
1155,E2,95.5,0.25,99,102.0
1156,E-1,95.75,0.25,92,102.0
1157,E2,95.75,0.25,88,102.0
1158,B4,95.958,21/500,59,102.0
1159,G#1,96.0,0.75,104,102.0
1160,B4,96.0,4.0,59,102.0
1161,A5,96.0,0.25,46,102.0
1162,C2,96.0,0.5,104,102.0
1163,F#2,96.0,0.25,114,102.0
1164,E-4,96.033,59/20,68,102.0
1165,F#3,96.033,59/20,68,102.0
1166,B3,96.033,59/20,68,102.0
1167,A5,96.25,0.25,1,102.0
1168,F#2,96.25,0.25,75,102.0
1169,A5,96.5,0.25,18,102.0
1170,F#2,96.5,0.25,104,102.0
1171,G#2,96.75,0.5,114,102.0
1172,C2,96.75,0.25,84,102.0
1173,F#2,96.75,0.25,84,102.0
1174,A5,97.0,0.25,25,102.0
1175,E2,97.0,0.5,101,102.0
1176,G#2,97.0,0.25,114,102.0
1177,E-2,97.25,0.25,58,102.0
1178,F#2,97.25,0.25,81,102.0
1179,G#1,97.5,1.25,104,102.0
1180,A5,97.5,0.25,15,102.0
1181,C2,97.5,0.5,107,102.0
1182,F#2,97.5,0.25,109,102.0
1183,A5,97.75,0.25,27,102.0
1184,F#2,97.75,0.25,79,102.0
1185,A5,98.0,0.25,13,102.0
1186,F#2,98.0,0.25,100,102.0
1187,G#2,98.25,0.75,104,102.0
1188,F#2,98.25,0.25,60,102.0
1189,A5,98.5,0.25,1,102.0
1190,C2,98.5,0.5,69,102.0
1191,F#2,98.5,0.25,104,102.0
1192,E-2,98.75,0.25,49,102.0
1193,A5,98.75,0.25,8,102.0
1194,F#2,98.75,0.25,68,102.0
1195,G#1,99.0,0.5,100,102.0
1196,A5,99.0,0.25,50,102.0
1197,E2,99.0,0.5,69,102.0
1198,G#2,99.0,0.25,100,102.0
1199,F#2,99.25,0.25,77,102.0
1200,G#2,99.5,0.5,92,102.0
1201,A5,99.5,0.25,1,102.0
1202,C2,99.5,0.25,94,102.0
1203,F#2,99.5,0.25,94,102.0
1204,A5,99.75,0.25,7,102.0
1205,F#2,99.75,0.25,79,102.0
1206,B-1,100.0,0.75,114,102.0
1207,C#5,100.0,1567/1000,77,102.0
1208,B4,100.0,0.125,59,102.0
1209,A5,100.0,0.25,46,102.0
1210,C2,100.0,0.5,99,102.0
1211,F#2,100.0,0.25,114,102.0
1212,B-3,100.0,39/40,76,102.0
1213,F#4,100.0,39/40,76,102.0
1214,C#4,100.0,39/40,76,102.0
1215,F#2,100.25,0.25,79,102.0
1216,A5,100.5,0.25,1,102.0
1217,F#2,100.5,0.25,104,102.0
1218,B-2,100.75,0.5,104,102.0
1219,A5,100.75,0.25,2,102.0
1220,C2,100.75,0.25,73,102.0
1221,F#2,100.75,0.25,73,102.0
1222,A5,101.0,0.25,37,102.0
1223,E2,101.0,0.25,108,102.0
1224,G#2,101.0,0.25,108,102.0
1225,E-2,101.25,0.25,46,102.0
1226,F#2,101.25,0.25,60,102.0
1227,E-5,101.475,79/40,81,102.0
1228,B1,101.5,2.0,90,102.0
1229,A5,101.5,0.25,1,102.0
1230,C2,101.5,0.5,104,102.0
1231,F#2,101.5,0.25,96,102.0
1232,F#3,101.533,729/500,70,102.0
1233,E-4,101.533,729/500,70,102.0
1234,B3,101.533,729/500,70,102.0
1235,A5,101.75,0.25,1,102.0
1236,F#2,101.75,0.25,79,102.0
1237,A5,102.0,0.25,34,102.0
1238,F#2,102.0,0.25,100,102.0
1239,F#5,102.067,29/500,54,102.0
1240,F#4,102.067,29/500,54,102.0
1241,F#5,102.125,4.0,54,102.0
1242,F#4,102.125,4.0,54,102.0
1243,F#2,102.25,0.25,69,102.0
1244,B2,102.5,0.75,74,102.0
1245,A5,102.5,0.25,1,102.0
1246,C2,102.5,0.5,104,102.0
1247,F#2,102.5,0.25,96,102.0
1248,A5,102.75,0.25,1,102.0
1249,F#2,102.75,0.25,79,102.0
1250,A5,103.0,0.25,37,102.0
1251,E2,103.0,0.5,101,102.0
1252,G#2,103.0,0.25,124,102.0
1253,B2,103.25,0.5,90,102.0
1254,F#2,103.25,0.25,81,102.0
1255,C#5,103.433,171/500,68,102.0
1256,F#2,103.5,0.25,89,102.0
1257,A5,103.5,0.25,1,102.0
1258,C2,103.5,0.25,99,102.0
1259,F#2,103.5,0.25,99,102.0
1260,E-5,103.7,283/1000,86,102.0
1261,B1,103.75,0.25,76,102.0
1262,A5,103.75,0.25,4,102.0
1263,F#2,103.75,0.25,89,102.0
1264,E5,103.95,1/20,75,102.0
1265,C#2,104.0,0.5,124,102.0
1266,E5,104.0,1483/1000,75,102.0
1267,A5,104.0,0.25,30,102.0
1268,C2,104.0,0.5,104,102.0
1269,F#2,104.0,0.25,119,102.0
1270,G#3,104.033,7/10,67,102.0
1271,E4,104.033,7/10,67,102.0
1272,B3,104.033,7/10,67,102.0
1273,F#2,104.25,0.25,75,102.0
1274,A5,104.5,0.25,1,102.0
1275,F#2,104.5,0.25,92,102.0
1276,C#2,104.75,0.5,104,102.0
1277,A5,104.75,0.25,1,102.0
1278,C2,104.75,0.25,60,102.0
1279,F#2,104.75,0.25,60,102.0
1280,A5,105.0,0.25,46,102.0
1281,E2,105.0,0.25,110,102.0
1282,G#2,105.0,0.25,110,102.0
1283,B1,105.25,0.25,75,102.0
1284,F#2,105.25,0.25,86,102.0
1285,B-3,105.467,61/40,67,102.0
1286,C#4,105.467,61/40,67,102.0
1287,F#4,105.475,51/40,75,102.0
1288,E-2,105.5,1.0,100,102.0
1289,A5,105.5,0.25,1,102.0
1290,C2,105.5,0.75,90,102.0
1291,F#2,105.5,0.25,114,102.0
1292,F#5,105.508,2383/1000,69,102.0
1293,A5,105.75,0.25,1,102.0
1294,F#2,105.75,0.25,81,102.0
1295,A5,106.0,0.25,37,102.0
1296,F#2,106.0,0.25,77,102.0
1297,F#2,106.25,0.25,12,102.0
1298,E-2,106.5,1.0,89,102.0
1299,A5,106.5,0.25,1,102.0
1300,C2,106.5,0.5,99,102.0
1301,F#2,106.5,0.25,109,102.0
1302,A5,106.75,0.25,1,102.0
1303,F#2,106.75,0.25,81,102.0
1304,A5,107.0,0.25,43,102.0
1305,E2,107.0,0.5,117,102.0
1306,G#2,107.0,0.25,109,102.0
1307,F#2,107.25,0.25,69,102.0
1308,C#2,107.5,0.25,100,102.0
1309,A5,107.5,0.25,1,102.0
1310,C2,107.5,0.25,102,102.0
1311,F#2,107.5,0.25,102,102.0
1312,E-2,107.75,0.25,100,102.0
1313,A5,107.75,0.25,1,102.0
1314,F#2,107.75,0.25,86,102.0
1315,F#1,108.0,1.0,100,102.0
1316,A5,108.0,0.25,34,102.0
1317,C2,108.0,0.5,107,102.0
1318,F#2,108.0,0.25,119,102.0
1319,F#5,108.017,3583/1000,100,102.0
1320,B3,108.042,59/20,77,102.0
1321,F#4,108.042,59/20,77,102.0
1322,C#4,108.042,59/20,77,102.0
1323,F#2,108.25,0.25,84,102.0
1324,A5,108.5,0.25,1,102.0
1325,F#2,108.5,0.25,100,102.0
1326,A5,108.75,0.25,1,102.0
1327,C2,108.75,0.25,78,102.0
1328,F#2,108.75,0.25,78,102.0
1329,F#2,109.0,0.75,114,102.0
1330,A5,109.0,0.25,37,102.0
1331,E2,109.0,0.25,120,102.0
1332,G#2,109.0,0.25,120,102.0
1333,F#2,109.25,0.25,38,102.0
1334,A5,109.5,0.25,1,102.0
1335,C2,109.5,0.75,107,102.0
1336,F#2,109.5,0.25,114,102.0
1337,C#2,109.75,0.25,46,102.0
1338,A5,109.75,0.25,1,102.0
1339,F#2,109.75,0.25,81,102.0
1340,F#1,110.0,0.25,96,102.0
1341,A5,110.0,0.25,30,102.0
1342,F#2,110.0,0.25,100,102.0
1343,F#2,110.25,0.25,15,102.0
1344,F#1,110.5,0.5,92,102.0
1345,A5,110.5,0.25,1,102.0
1346,C2,110.5,0.25,92,102.0
1347,F#2,110.5,0.25,92,102.0
1348,A5,110.75,0.25,2,102.0
1349,F#2,110.75,0.25,96,102.0
1350,F#2,111.0,0.25,104,102.0
1351,A5,111.0,0.25,34,102.0
1352,E2,111.0,0.25,105,102.0
1353,G#2,111.0,0.25,105,102.0
1354,C#2,111.25,0.5,86,102.0
1355,F#2,111.25,0.25,89,102.0
1356,A5,111.5,0.25,1,102.0
1357,E2,111.5,0.25,100,102.0
1358,F#2,111.5,0.25,100,102.0
1359,B4,111.525,333/1000,80,102.0
1360,F#1,111.75,0.25,77,102.0
1361,A5,111.75,0.25,1,102.0
1362,E2,111.75,0.25,95,102.0
1363,F#2,111.75,0.25,95,102.0
1364,C#5,111.758,217/1000,89,102.0
1365,E-5,111.992,1/125,100,102.0
1366,G#1,112.0,0.75,114,102.0
1367,E-5,112.0,4.0,100,102.0
1368,A5,112.0,0.25,30,102.0
1369,C2,112.0,0.5,107,102.0
1370,F#2,112.0,0.25,119,102.0
1371,E-4,112.025,2717/1000,80,102.0
1372,F#3,112.025,2717/1000,80,102.0
1373,B3,112.025,2717/1000,80,102.0
1374,F#2,112.25,0.25,92,102.0
1375,A5,112.5,0.25,1,102.0
1376,F#2,112.5,0.25,100,102.0
1377,G#2,112.75,0.5,114,102.0
1378,A5,112.75,0.25,1,102.0
1379,C2,112.75,0.25,82,102.0
1380,F#2,112.75,0.25,82,102.0
1381,A5,113.0,0.25,23,102.0
1382,E2,113.0,0.5,104,102.0
1383,G#2,113.0,0.25,124,102.0
1384,E-2,113.25,0.25,43,102.0
1385,F#2,113.25,0.25,89,102.0
1386,G#1,113.5,1.75,114,102.0
1387,A5,113.5,0.25,1,102.0
1388,C2,113.5,0.5,76,102.0
1389,F#2,113.5,0.25,114,102.0
1390,A5,113.75,0.25,1,102.0
1391,F#2,113.75,0.25,89,102.0
1392,A5,114.0,0.25,25,102.0
1393,F#2,114.0,0.25,84,102.0
1394,F#2,114.25,0.25,89,102.0
1395,G#2,114.5,0.5,104,102.0
1396,A5,114.5,0.25,1,102.0
1397,C2,114.5,0.5,85,102.0
1398,F#2,114.5,0.25,119,102.0
1399,A5,114.75,0.25,1,102.0
1400,F#2,114.75,0.25,84,102.0
1401,A5,115.0,0.25,32,102.0
1402,E2,115.0,0.5,104,102.0
1403,G#2,115.0,0.25,109,102.0
1404,G#2,115.25,0.25,100,102.0
1405,F#2,115.25,0.25,79,102.0
1406,E-2,115.5,0.25,100,102.0
1407,A5,115.5,0.25,1,102.0
1408,C2,115.5,0.25,83,102.0
1409,F#2,115.5,0.25,83,102.0
1410,G#1,115.75,0.25,96,102.0
1411,A5,115.75,0.25,1,102.0
1412,F#2,115.75,0.25,79,102.0
1413,C#5,115.958,21/500,92,102.0
1414,C#4,115.975,1/40,62,102.0
1415,F#4,115.975,1/40,62,102.0
1416,B-3,115.975,1/40,62,102.0
1417,B-1,116.0,1.25,100,102.0
1418,E-5,116.0,1/125,100,102.0
1419,C#5,116.0,99/125,92,102.0
1420,A5,116.0,0.25,23,102.0
1421,C2,116.0,0.5,92,102.0
1422,F#2,116.0,0.25,119,102.0
1423,C#4,116.0,29/40,62,102.0
1424,F#4,116.0,29/40,62,102.0
1425,B-3,116.0,29/40,62,102.0
1426,F#2,116.25,0.25,81,102.0
1427,A5,116.5,0.25,1,102.0
1428,F#2,116.5,0.25,96,102.0
1429,F#5,116.733,4/5,54,102.0
1430,B-2,116.75,0.5,84,102.0
1431,A5,116.75,0.25,3,102.0
1432,C2,116.75,0.25,78,102.0
1433,F#2,116.75,0.25,78,102.0
1434,A5,117.0,0.25,32,102.0
1435,E2,117.0,0.5,99,102.0
1436,G#2,117.0,0.25,119,102.0
1437,F#2,117.25,0.25,68,102.0
1438,F#2,117.25,0.25,84,102.0
1439,E-5,117.467,2067/1000,89,102.0
1440,B1,117.5,2.25,94,102.0
1441,A5,117.5,0.25,1,102.0
1442,C2,117.5,0.75,104,102.0
1443,F#2,117.5,0.25,109,102.0
1444,F#3,117.5,621/500,60,102.0
1445,E-4,117.5,621/500,60,102.0
1446,B3,117.517,1483/1000,75,102.0
1447,A5,117.75,0.25,4,102.0
1448,F#2,117.75,0.25,86,102.0
1449,A5,118.0,0.25,27,102.0
1450,F#2,118.0,0.25,114,102.0
1451,F#5,118.133,4.0,54,102.0
1452,F#4,118.133,4.0,54,102.0
1453,F#2,118.25,0.25,84,102.0
1454,B2,118.5,0.75,62,102.0
1455,A5,118.5,0.25,1,102.0
1456,C2,118.5,0.5,94,102.0
1457,F#2,118.5,0.25,96,102.0
1458,A5,118.75,0.25,1,102.0
1459,F#2,118.75,0.25,89,102.0
1460,A5,119.0,0.25,30,102.0
1461,E2,119.0,0.25,102,102.0
1462,G#2,119.0,0.25,102,102.0
1463,F#2,119.25,0.25,89,102.0
1464,C#5,119.483,13/40,89,102.0
1465,B2,119.5,0.25,90,102.0
1466,A5,119.5,0.25,1,102.0
1467,E2,119.5,0.25,98,102.0
1468,F#2,119.5,0.25,98,102.0
1469,F#2,119.75,0.25,84,102.0
1470,A5,119.75,0.25,1,102.0
1471,E2,119.75,0.25,84,102.0
1472,F#2,119.75,0.25,84,102.0
1473,E5,119.8,1/5,99,102.0
1474,E4,119.958,21/500,69,102.0
1475,B3,119.967,33/1000,68,102.0
1476,G#3,119.967,33/1000,58,102.0
1477,E4,120.0,0.5,69,102.0
1478,B3,120.0,0.75,68,102.0
1479,G#3,120.0,1.0,58,102.0
1480,C#2,120.0,0.5,114,102.0
1481,E5,120.0,43/40,99,102.0
1482,A5,120.0,0.25,37,102.0
1483,C2,120.0,0.5,110,102.0
1484,F#2,120.0,0.25,114,102.0
1485,F#2,120.25,0.25,71,102.0
1486,A5,120.5,0.25,1,102.0
1487,F#2,120.5,0.25,86,102.0
1488,C#2,120.75,0.25,104,102.0
1489,A5,120.75,0.25,1,102.0
1490,C2,120.75,0.25,81,102.0
1491,F#2,120.75,0.25,81,102.0
1492,B3,121.0,321/500,69,102.0
1493,E-2,121.0,0.5,114,102.0
1494,A5,121.0,0.25,34,102.0
1495,C#4,121.0,51/125,71,102.0
1496,F#4,121.0,51/125,71,102.0
1497,E2,121.0,0.25,114,102.0
1498,G#2,121.0,0.25,114,102.0
1499,E-5,121.025,1033/1000,109,102.0
1500,F#2,121.25,0.25,86,102.0
1501,A5,121.5,0.25,1,102.0
1502,C2,121.5,0.5,97,102.0
1503,F#2,121.5,0.25,104,102.0
1504,E-2,121.75,0.25,92,102.0
1505,A5,121.75,0.25,8,102.0
1506,F#2,121.75,0.25,89,102.0
1507,E2,122.0,0.5,94,102.0
1508,A5,122.0,0.25,40,102.0
1509,G#2,122.0,0.25,119,102.0
1510,C#5,122.025,1.0,89,102.0
1511,G#3,122.092,321/500,70,102.0
1512,B3,122.092,321/500,70,102.0
1513,E4,122.092,321/500,70,102.0
1514,F#2,122.25,0.25,81,102.0
1515,A5,122.5,0.25,1,102.0
1516,C2,122.5,0.5,104,102.0
1517,F#2,122.5,0.25,86,102.0
1518,E2,122.75,0.25,67,102.0
1519,A5,122.75,0.25,11,102.0
1520,F#2,122.75,0.25,79,102.0
1521,F#2,123.0,0.5,104,102.0
1522,A5,123.0,0.25,40,102.0
1523,E2,123.0,0.5,113,102.0
1524,G#2,123.0,0.25,114,102.0
1525,B4,123.025,39/40,66,102.0
1526,F#3,123.042,221/500,64,102.0
1527,E-4,123.042,221/500,64,102.0
1528,B3,123.042,221/500,64,102.0
1529,F#2,123.25,0.25,86,102.0
1530,A5,123.5,0.25,1,102.0
1531,C2,123.5,0.25,87,102.0
1532,F#2,123.5,0.25,87,102.0
1533,F#2,123.75,0.25,81,102.0
1534,A5,123.75,0.25,12,102.0
1535,F#2,123.75,0.25,84,102.0
1536,C#5,123.983,17/1000,96,102.0
1537,A1,124.0,3.75,107,102.0
1538,B4,124.0,21/500,66,102.0
1539,C#5,124.0,927/250,96,102.0
1540,A5,124.0,0.25,46,102.0
1541,C2,124.0,0.5,117,102.0
1542,F#2,124.0,0.25,114,102.0
1543,C#4,124.033,2467/1000,60,102.0
1544,A3,124.042,677/250,74,102.0
1545,E3,124.042,677/250,74,102.0
1546,A5,124.25,0.25,1,102.0
1547,F#2,124.25,0.25,81,102.0
1548,A5,124.5,0.25,18,102.0
1549,F#2,124.5,0.25,89,102.0
1550,C2,124.75,0.25,77,102.0
1551,F#2,124.75,0.25,77,102.0
1552,A5,125.0,0.25,25,102.0
1553,E2,125.0,0.5,117,102.0
1554,G#2,125.0,0.25,119,102.0
1555,F#2,125.25,0.25,58,102.0
1556,A2,125.5,1.0,76,102.0
1557,A5,125.5,0.25,15,102.0
1558,C2,125.5,0.25,112,102.0
1559,F#2,125.5,0.25,112,102.0
1560,A5,125.75,0.25,27,102.0
1561,F#2,125.75,0.25,86,102.0
1562,A5,126.0,0.25,13,102.0
1563,C2,126.0,0.25,97,102.0
1564,F#2,126.0,0.25,97,102.0
1565,E2,126.25,0.25,100,102.0
1566,F#2,126.25,0.25,100,102.0
1567,A2,126.5,0.75,67,102.0
1568,A5,126.5,0.25,1,102.0
1569,F#2,126.5,0.25,100,102.0
1570,A5,126.75,0.25,8,102.0
1571,C2,126.75,0.25,94,102.0
1572,F#2,126.75,0.25,94,102.0
1573,A5,127.0,0.25,50,102.0
1574,E2,127.0,0.25,109,102.0
1575,G#2,127.0,0.25,109,102.0
1576,F#2,127.25,0.25,92,102.0
1577,A2,127.5,0.25,90,102.0
1578,A5,127.5,0.25,1,102.0
1579,E2,127.5,0.25,100,102.0
1580,F#2,127.5,0.25,100,102.0
1581,E2,127.75,0.25,67,102.0
1582,A5,127.75,0.25,7,102.0
1583,E2,127.75,0.25,87,102.0
1584,F#2,127.75,0.25,87,102.0
1585,E1,128.0,0.25,80,102.0
1586,A5,128.0,0.25,46,102.0
1587,C2,128.0,0.5,104,102.0
1588,G#2,128.0,0.25,119,102.0
1589,E-4,128.0,3/40,80,102.0
1590,G#3,128.0,3/40,80,102.0
1591,F#4,128.0,3/40,80,102.0
1592,B3,128.0,3/40,80,102.0
1593,C#6,128.0,31/40,96,102.0
1594,C#5,128.0,31/40,96,102.0
1595,G#2,128.25,0.25,100,102.0
1596,E1,128.5,0.25,69,102.0
1597,A5,128.5,0.25,1,102.0
1598,F#2,128.5,0.25,92,102.0
1599,E2,128.75,0.5,104,102.0
1600,A5,128.75,0.25,2,102.0
1601,C2,128.75,0.25,90,102.0
1602,F#2,128.75,0.25,90,102.0
1603,E-5,128.758,79/500,86,102.0
1604,E-6,128.758,79/500,86,102.0
1605,E-4,128.775,3/40,77,102.0
1606,G#3,128.775,3/40,77,102.0
1607,F#4,128.775,3/40,77,102.0
1608,B3,128.775,3/40,77,102.0
1609,A5,129.0,0.25,37,102.0
1610,E2,129.0,0.25,113,102.0
1611,G#2,129.0,0.25,113,102.0
1612,B1,129.25,0.25,46,102.0
1613,F#2,129.25,0.25,96,102.0
1614,B3,129.483,1221/500,80,102.0
1615,C#4,129.483,1221/500,80,102.0
1616,F#4,129.483,1221/500,80,102.0
1617,G3,129.492,2333/1000,82,102.0
1618,E-1,129.5,1.0,100,102.0
1619,A5,129.5,0.25,1,102.0
1620,C2,129.5,0.5,110,102.0
1621,F#2,129.5,0.25,104,102.0
1622,A5,129.75,0.25,1,102.0
1623,F#2,129.75,0.25,100,102.0
1624,A5,130.0,0.25,34,102.0
1625,F#2,130.0,0.25,119,102.0
1626,F#5,130.142,4.0,54,102.0
1627,F#4,130.142,4.0,54,102.0
1628,F#2,130.25,0.25,96,102.0
1629,E-2,130.5,0.25,100,102.0
1630,A5,130.5,0.25,1,102.0
1631,C2,130.5,0.5,110,102.0
1632,F#2,130.5,0.25,96,102.0
1633,B-1,130.75,0.25,92,102.0
1634,A5,130.75,0.25,1,102.0
1635,F#2,130.75,0.25,92,102.0
1636,F#1,131.0,0.25,79,102.0
1637,A5,131.0,0.25,37,102.0
1638,E2,131.0,0.25,112,102.0
1639,G#2,131.0,0.25,112,102.0
1640,F#2,131.25,0.25,92,102.0
1641,G1,131.5,0.5,94,102.0
1642,A5,131.5,0.25,1,102.0
1643,C2,131.5,0.25,100,102.0
1644,F#2,131.5,0.25,100,102.0
1645,A5,131.75,0.25,4,102.0
1646,F#2,131.75,0.25,100,102.0
1647,B3,131.967,33/1000,76,102.0
1648,F#3,131.967,33/1000,76,102.0
1649,E-4,131.983,17/1000,96,102.0
1650,E-4,132.0,1867/1000,96,102.0
1651,G#1,132.0,0.75,109,102.0
1652,A5,132.0,0.25,30,102.0
1653,C2,132.0,0.5,107,102.0
1654,F#2,132.0,0.25,124,102.0
1655,B3,132.0,1733/1000,76,102.0
1656,F#3,132.0,1733/1000,76,102.0
1657,F#2,132.25,0.25,77,102.0
1658,A5,132.5,0.25,1,102.0
1659,F#2,132.5,0.25,104,102.0
1660,A5,132.75,0.25,1,102.0
1661,C2,132.75,0.25,92,102.0
1662,F#2,132.75,0.25,92,102.0
1663,G#1,133.0,0.75,96,102.0
1664,A5,133.0,0.25,46,102.0
1665,E2,133.0,0.25,112,102.0
1666,G#2,133.0,0.25,112,102.0
1667,F#2,133.25,0.25,109,102.0
1668,A5,133.5,0.25,1,102.0
1669,C2,133.5,0.5,79,102.0
1670,F#2,133.5,0.25,109,102.0
1671,B-1,133.75,0.25,57,102.0
1672,A5,133.75,0.25,1,102.0
1673,F#2,133.75,0.25,100,102.0
1674,E-4,133.95,779/500,74,102.0
1675,F3,133.95,779/500,74,102.0
1676,B3,133.95,779/500,74,102.0
1677,G#3,133.95,779/500,74,102.0
1678,C#2,134.0,0.5,104,102.0
1679,A5,134.0,0.25,37,102.0
1680,F#2,134.0,0.25,119,102.0
1681,F#2,134.25,0.25,75,102.0
1682,A5,134.5,0.25,1,102.0
1683,C2,134.5,0.5,97,102.0
1684,F#2,134.5,0.25,114,102.0
1685,C#2,134.75,0.25,75,102.0
1686,A5,134.75,0.25,1,102.0
1687,F#2,134.75,0.25,104,102.0
1688,E-2,135.0,0.25,100,102.0
1689,A5,135.0,0.25,43,102.0
1690,E2,135.0,0.25,109,102.0
1691,G#2,135.0,0.25,109,102.0
1692,C2,135.25,0.5,92,102.0
1693,F#2,135.25,0.25,96,102.0
1694,E-2,135.5,0.25,96,102.0
1695,A5,135.5,0.25,1,102.0
1696,F#2,135.5,0.25,114,102.0
1697,B-1,135.75,0.25,79,102.0
1698,A5,135.75,0.25,1,102.0
1699,F#2,135.75,0.25,100,102.0
1700,E1,136.0,0.25,79,102.0
1701,A5,136.0,0.25,34,102.0
1702,C2,136.0,0.5,107,102.0
1703,F#2,136.0,0.25,114,102.0
1704,F#4,136.017,117/1000,63,102.0
1705,E-4,136.017,117/1000,63,102.0
1706,G#3,136.017,117/1000,63,102.0
1707,B3,136.017,117/1000,63,102.0
1708,C#5,136.017,371/500,98,102.0
1709,C#6,136.017,371/500,98,102.0
1710,F#2,136.25,0.25,92,102.0
1711,E1,136.5,0.25,62,102.0
1712,A5,136.5,0.25,1,102.0
1713,F#2,136.5,0.25,119,102.0
1714,E-6,136.733,0.25,79,102.0
1715,E-4,136.733,83/1000,74,102.0
1716,B3,136.733,83/1000,74,102.0
1717,G#3,136.733,83/1000,74,102.0
1718,F#4,136.733,83/1000,74,102.0
1719,E2,136.75,0.5,94,102.0
1720,A5,136.75,0.25,1,102.0
1721,C2,136.75,0.25,83,102.0
1722,F#2,136.75,0.25,83,102.0
1723,E-5,136.767,333/1000,104,102.0
1724,A5,137.0,0.25,37,102.0
1725,E2,137.0,0.25,100,102.0
1726,G#2,137.0,0.25,100,102.0
1727,B1,137.25,0.25,54,102.0
1728,F#2,137.25,0.25,100,102.0
1729,F#6,137.45,51/20,86,102.0
1730,F#5,137.45,51/20,86,102.0
1731,C#4,137.475,2317/1000,58,102.0
1732,B3,137.475,2317/1000,58,102.0
1733,G3,137.475,2317/1000,58,102.0
1734,F#4,137.483,1221/500,62,102.0
1735,E-1,137.5,1.0,96,102.0
1736,A5,137.5,0.25,1,102.0
1737,C2,137.5,0.5,85,102.0
1738,F#2,137.5,0.25,114,102.0
1739,A5,137.75,0.25,1,102.0
1740,F#2,137.75,0.25,100,102.0
1741,A5,138.0,0.25,30,102.0
1742,F#2,138.0,0.25,109,102.0
1743,F#5,138.15,4.0,54,102.0
1744,F#4,138.15,4.0,54,102.0
1745,F#2,138.25,0.25,100,102.0
1746,E-2,138.5,0.25,109,102.0
1747,A5,138.5,0.25,1,102.0
1748,C2,138.5,0.5,97,102.0
1749,F#2,138.5,0.25,114,102.0
1750,B-1,138.75,0.25,100,102.0
1751,A5,138.75,0.25,2,102.0
1752,F#2,138.75,0.25,84,102.0
1753,F#1,139.0,0.25,89,102.0
1754,A5,139.0,0.25,34,102.0
1755,E2,139.0,0.5,113,102.0
1756,G#2,139.0,0.25,114,102.0
1757,F#2,139.25,0.25,92,102.0
1758,G1,139.5,0.5,76,102.0
1759,A5,139.5,0.25,1,102.0
1760,C2,139.5,0.25,90,102.0
1761,F#2,139.5,0.25,90,102.0
1762,A5,139.75,0.25,1,102.0
1763,F#2,139.75,0.25,96,102.0
1764,B3,139.967,33/1000,68,102.0
1765,E-4,139.967,33/1000,68,102.0
1766,F#3,139.983,17/1000,58,102.0
1767,F#3,140.0,1833/1000,58,102.0
1768,G#1,140.0,0.75,114,102.0
1769,A5,140.0,0.25,30,102.0
1770,C2,140.0,0.5,94,102.0
1771,F#2,140.0,0.25,119,102.0
1772,B3,140.0,929/500,68,102.0
1773,E-4,140.0,929/500,68,102.0
1774,F#6,140.0,1817/1000,86,102.0
1775,F#5,140.0,1817/1000,86,102.0
1776,F#2,140.25,0.25,92,102.0
1777,A5,140.5,0.25,1,102.0
1778,F#2,140.5,0.25,114,102.0
1779,A5,140.75,0.25,1,102.0
1780,C2,140.75,0.25,92,102.0
1781,F#2,140.75,0.25,92,102.0
1782,G#1,141.0,0.75,104,102.0
1783,A5,141.0,0.25,23,102.0
1784,E2,141.0,0.5,101,102.0
1785,G#2,141.0,0.25,114,102.0
1786,F#2,141.25,0.25,92,102.0
1787,A5,141.5,0.25,1,102.0
1788,C2,141.5,0.25,102,102.0
1789,F#2,141.5,0.25,102,102.0
1790,A1,141.75,0.25,58,102.0
1791,A5,141.75,0.25,1,102.0
1792,F#2,141.75,0.25,96,102.0
1793,B1,142.0,0.75,101,102.0
1794,A5,142.0,0.25,25,102.0
1795,C2,142.0,0.75,97,102.0
1796,F#2,142.0,0.25,119,102.0
1797,C#4,142.0,33/20,70,102.0
1798,A3,142.0,33/20,70,102.0
1799,B3,142.017,1.75,64,102.0
1800,E4,142.025,377/250,79,102.0
1801,G#4,142.092,29/500,49,102.0
1802,G#4,142.15,29/500,49,102.0
1803,B5,142.15,1979/500,66,102.0
1804,B4,142.15,1979/500,66,102.0
1805,F#5,142.15,1/125,54,102.0
1806,F#4,142.15,1/125,54,102.0
1807,F#2,142.25,0.25,86,102.0
1808,A5,142.5,0.25,1,102.0
1809,F#2,142.5,0.25,119,102.0
1810,B1,142.75,0.25,66,102.0
1811,A5,142.75,0.25,1,102.0
1812,C2,142.75,0.25,89,102.0
1813,F#2,142.75,0.25,89,102.0
1814,E-1,143.0,0.25,86,102.0
1815,A5,143.0,0.25,32,102.0
1816,E2,143.0,0.25,106,102.0
1817,G#2,143.0,0.25,106,102.0
1818,F#2,143.25,0.25,100,102.0
1819,E-1,143.5,0.25,68,102.0
1820,A5,143.5,0.25,1,102.0
1821,E2,143.5,0.25,103,102.0
1822,F#2,143.5,0.25,103,102.0
1823,E-1,143.75,0.25,69,102.0
1824,A5,143.75,0.25,1,102.0
1825,E2,143.75,0.25,91,102.0
1826,F#2,143.75,0.25,91,102.0
1827,E1,144.0,0.25,71,102.0
1828,A5,144.0,0.25,23,102.0
1829,C2,144.0,0.5,110,102.0
1830,F#2,144.0,0.25,119,102.0
1831,C#6,144.0,371/500,106,102.0
1832,C#5,144.0,371/500,106,102.0
1833,E-4,144.017,83/1000,88,102.0
1834,B3,144.017,83/1000,88,102.0
1835,G#3,144.017,83/1000,88,102.0
1836,F#4,144.017,83/1000,88,102.0
1837,F#2,144.25,0.25,84,102.0
1838,E1,144.5,0.25,71,102.0
1839,A5,144.5,0.25,1,102.0
1840,F#2,144.5,0.25,114,102.0
1841,E-4,144.733,3/40,89,102.0
1842,F#4,144.733,3/40,89,102.0
1843,G#3,144.733,3/40,89,102.0
1844,B3,144.733,3/40,89,102.0
1845,E2,144.75,0.5,97,102.0
1846,A5,144.75,0.25,3,102.0
1847,C2,144.75,0.25,86,102.0
1848,F#2,144.75,0.25,86,102.0
1849,E-6,144.8,24/125,98,102.0
1850,E-5,144.8,24/125,98,102.0
1851,A5,145.0,0.25,32,102.0
1852,E2,145.0,0.25,110,102.0
1853,G#2,145.0,0.25,110,102.0
1854,B1,145.25,0.25,64,102.0
1855,F#2,145.25,0.25,86,102.0
1856,C#6,145.492,2383/1000,104,102.0
1857,C#5,145.492,2383/1000,104,102.0
1858,E-1,145.5,1.0,92,102.0
1859,A5,145.5,0.25,1,102.0
1860,C2,145.5,0.5,104,102.0
1861,F#2,145.5,0.25,114,102.0
1862,B3,145.5,1129/500,80,102.0
1863,C#4,145.5,1129/500,80,102.0
1864,F#4,145.5,1129/500,80,102.0
1865,G3,145.5,1129/500,80,102.0
1866,A5,145.75,0.25,4,102.0
1867,F#2,145.75,0.25,89,102.0
1868,A5,146.0,0.25,27,102.0
1869,F#2,146.0,0.25,114,102.0
1870,C#6,146.108,21/500,51,102.0
1871,C#5,146.125,1/40,50,102.0
1872,C#6,146.15,373/250,51,102.0
1873,C#5,146.15,7/5,50,102.0
1874,F#2,146.25,0.25,86,102.0
1875,E-2,146.5,0.25,92,102.0
1876,A5,146.5,0.25,1,102.0
1877,C2,146.5,0.5,99,102.0
1878,F#2,146.5,0.25,119,102.0
1879,B-1,146.75,0.25,89,102.0
1880,A5,146.75,0.25,1,102.0
1881,F#2,146.75,0.25,92,102.0
1882,F#1,147.0,0.25,81,102.0
1883,A5,147.0,0.25,30,102.0
1884,E2,147.0,0.5,107,102.0
1885,G#2,147.0,0.25,119,102.0
1886,F#2,147.25,0.25,96,102.0
1887,G1,147.5,0.5,86,102.0
1888,A5,147.5,0.25,1,102.0
1889,C2,147.5,0.25,104,102.0
1890,F#2,147.5,0.25,104,102.0
1891,E-5,147.533,627/250,47,102.0
1892,E-6,147.6,301/125,56,102.0
1893,A5,147.75,0.25,1,102.0
1894,F#2,147.75,0.25,73,102.0
1895,B4,147.933,67/1000,70,102.0
1896,B5,147.933,67/1000,70,102.0
1897,B3,147.95,1/20,68,102.0
1898,E-4,147.95,1/20,68,102.0
1899,F#3,147.95,1/20,68,102.0
1900,G#1,148.0,0.5,104,102.0
1901,A5,148.0,0.25,37,102.0
1902,C2,148.0,0.5,107,102.0
1903,F#2,148.0,0.25,124,102.0
1904,B3,148.0,1/20,68,102.0
1905,E-4,148.0,1/20,68,102.0
1906,F#3,148.0,1/20,68,102.0
1907,B4,148.0,371/500,70,102.0
1908,B5,148.0,371/500,70,102.0
1909,F#2,148.25,0.25,84,102.0
1910,A5,148.5,0.25,1,102.0
1911,F#2,148.5,0.25,114,102.0
1912,E-5,148.742,667/1000,81,102.0
1913,E-6,148.742,667/1000,81,102.0
1914,G#1,148.75,0.5,104,102.0
1915,A5,148.75,0.25,1,102.0
1916,E-4,148.75,23/250,78,102.0
1917,F#3,148.75,23/250,78,102.0
1918,B3,148.75,23/250,78,102.0
1919,C2,148.75,0.25,93,102.0
1920,F#2,148.75,0.25,93,102.0
1921,A5,149.0,0.25,34,102.0
1922,E2,149.0,0.25,112,102.0
1923,G#2,149.0,0.25,112,102.0
1924,E-2,149.25,0.25,81,102.0
1925,F#2,149.25,0.25,96,102.0
1926,C#5,149.425,1021/500,80,102.0
1927,C#6,149.425,1021/500,80,102.0
1928,B3,149.483,1179/500,70,102.0
1929,G#3,149.483,1179/500,70,102.0
1930,F3,149.483,1179/500,70,102.0
1931,E-4,149.5,23/10,62,102.0
1932,C#2,149.5,0.75,96,102.0
1933,A5,149.5,0.25,1,102.0
1934,C2,149.5,0.5,94,102.0
1935,F#2,149.5,0.25,119,102.0
1936,A5,149.75,0.25,8,102.0
1937,F#2,149.75,0.25,66,102.0
1938,C#5,149.842,11/40,37,102.0
1939,C#6,149.908,9/40,46,102.0
1940,A5,150.0,0.25,40,102.0
1941,F#2,150.0,0.25,109,102.0
1942,E5,150.092,29/500,68,102.0
1943,E6,150.092,29/500,68,102.0
1944,E5,150.15,126/125,68,102.0
1945,E6,150.15,126/125,68,102.0
1946,F#2,150.25,0.25,89,102.0
1947,C#2,150.5,0.5,100,102.0
1948,A5,150.5,0.25,1,102.0
1949,C2,150.5,0.5,101,102.0
1950,F#2,150.5,0.25,119,102.0
1951,A5,150.75,0.25,11,102.0
1952,F#2,150.75,0.25,92,102.0
1953,A5,151.0,0.25,40,102.0
1954,E2,151.0,0.25,106,102.0
1955,G#2,151.0,0.25,106,102.0
1956,E-6,151.108,1117/1000,78,102.0
1957,E-5,151.108,1117/1000,78,102.0
1958,C#2,151.25,0.25,89,102.0
1959,C2,151.25,0.5,104,102.0
1960,F#2,151.25,0.25,96,102.0
1961,B5,151.467,7/20,66,102.0
1962,B4,151.467,7/20,66,102.0
1963,E-2,151.5,0.5,100,102.0
1964,A5,151.5,0.25,1,102.0
1965,F#2,151.5,0.25,114,102.0
1966,C#6,151.733,267/1000,88,102.0
1967,C#5,151.733,267/1000,88,102.0
1968,A5,151.75,0.25,12,102.0
1969,F#2,151.75,0.25,75,102.0
1970,E1,152.0,1.75,85,102.0
1971,A5,152.0,0.25,46,102.0
1972,C2,152.0,0.5,104,102.0
1973,F#2,152.0,0.25,119,102.0
1974,C#6,152.0,1/125,88,102.0
1975,C#5,152.0,1/125,88,102.0
1976,D5,152.008,829/500,90,102.0
1977,D6,152.008,1767/1000,94,102.0
1978,G3,152.008,1767/1000,85,102.0
1979,B3,152.008,1767/1000,85,102.0
1980,D4,152.008,1767/1000,85,102.0
1981,A3,152.025,1767/1000,86,102.0
1982,D4,152.025,1767/1000,86,102.0
1983,C#5,152.142,43/40,75,102.0
1984,C#6,152.142,43/40,75,102.0
1985,A5,152.25,0.25,1,102.0
1986,F#2,152.25,0.25,64,102.0
1987,A5,152.5,0.25,18,102.0
1988,F#2,152.5,0.25,104,102.0
1989,C2,152.75,0.25,90,102.0
1990,F#2,152.75,0.25,90,102.0
1991,E2,153.0,0.5,85,102.0
1992,A5,153.0,0.25,25,102.0
1993,E2,153.0,0.5,94,102.0
1994,G#2,153.0,0.25,119,102.0
1995,B4,153.167,983/1000,72,102.0
1996,B5,153.167,983/1000,72,102.0
1997,F#2,153.25,0.25,96,102.0
1998,E2,153.5,0.25,82,102.0
1999,A5,153.5,0.25,15,102.0
2000,C2,153.5,0.25,100,102.0
2001,F#2,153.5,0.25,100,102.0
2002,C#5,153.65,13/40,54,102.0
2003,B1,153.75,0.25,64,102.0
2004,A5,153.75,0.25,27,102.0
2005,F#2,153.75,0.25,86,102.0
2006,B5,153.775,167/1000,41,102.0
2007,C#6,153.792,129/500,28,102.0
2008,C#4,153.975,1767/1000,86,102.0
2009,E4,153.975,1767/1000,86,102.0
2010,A3,153.975,1767/1000,86,102.0
2011,E5,153.975,979/500,88,102.0
2012,E6,153.975,979/500,88,102.0
2013,F#1,154.0,0.75,100,102.0
2014,A5,154.0,0.25,13,102.0
2015,C2,154.0,0.5,80,102.0
2016,F#2,154.0,0.25,114,102.0
2017,B4,154.15,1/20,72,102.0
2018,B5,154.15,1/20,72,102.0
2019,C#5,154.167,3967/1000,68,102.0
2020,C#6,154.167,3967/1000,68,102.0
2021,F#2,154.25,0.25,89,102.0
2022,A5,154.5,0.25,1,102.0
2023,F#2,154.5,0.25,114,102.0
2024,A5,154.75,0.25,8,102.0
2025,C2,154.75,0.25,92,102.0
2026,F#2,154.75,0.25,92,102.0
2027,F#1,155.0,1.0,100,102.0
2028,A5,155.0,0.25,50,102.0
2029,E2,155.0,0.25,110,102.0
2030,G#2,155.0,0.25,110,102.0
2031,F#2,155.25,0.25,92,102.0
2032,A5,155.5,0.25,1,102.0
2033,E2,155.5,0.25,102,102.0
2034,F#2,155.5,0.25,102,102.0
2035,A5,155.75,0.25,7,102.0
2036,E2,155.75,0.25,90,102.0
2037,F#2,155.75,0.25,90,102.0
2038,C#6,155.975,1/40,99,102.0
2039,C#5,155.975,1/40,99,102.0
2040,E1,156.0,0.25,88,102.0
2041,A5,156.0,0.25,46,102.0
2042,C2,156.0,0.5,110,102.0
2043,F#2,156.0,0.25,119,102.0
2044,F#4,156.0,27/250,86,102.0
2045,B3,156.0,27/250,86,102.0
2046,G#3,156.0,27/250,86,102.0
2047,E-4,156.0,27/250,92,102.0
2048,G#3,156.0,27/250,92,102.0
2049,C#6,156.0,7/10,99,102.0
2050,C#5,156.0,7/10,99,102.0
2051,F#2,156.25,0.25,86,102.0
2052,E1,156.5,0.25,65,102.0
2053,A5,156.5,0.25,1,102.0
2054,F#2,156.5,0.25,109,102.0
2055,E-6,156.708,267/1000,102,102.0
2056,E-5,156.708,267/1000,102,102.0
2057,E2,156.75,0.5,97,102.0
2058,A5,156.75,0.25,2,102.0
2059,C2,156.75,0.25,94,102.0
2060,F#2,156.75,0.25,94,102.0
2061,E-4,156.767,1/10,87,102.0
2062,F#4,156.767,1/10,87,102.0
2063,B3,156.767,1/10,87,102.0
2064,G#3,156.767,1/10,87,102.0
2065,A5,157.0,0.25,37,102.0
2066,E2,157.0,0.25,113,102.0
2067,G#2,157.0,0.25,113,102.0
2068,B1,157.25,0.25,62,102.0
2069,F#2,157.25,0.25,92,102.0
2070,C#4,157.483,2417/1000,78,102.0
2071,B3,157.483,2417/1000,78,102.0
2072,F#4,157.492,93/40,76,102.0
2073,G3,157.492,93/40,76,102.0
2074,E-1,157.5,1.0,81,102.0
2075,A5,157.5,0.25,1,102.0
2076,C2,157.5,0.75,101,102.0
2077,F#2,157.5,0.25,119,102.0
2078,A5,157.75,0.25,1,102.0
2079,F#2,157.75,0.25,89,102.0
2080,A5,158.0,0.25,34,102.0
2081,F#2,158.0,0.25,114,102.0
2082,B4,158.1,1/20,67,102.0
2083,B5,158.1,1/20,67,102.0
2084,B5,158.108,21/500,60,102.0
2085,B4,158.133,17/1000,66,102.0
2086,B4,158.15,4.0,66,102.0
2087,B5,158.15,4.0,60,102.0
2088,B4,158.15,4.0,67,102.0
2089,B5,158.15,4.0,67,102.0
2090,F#2,158.25,0.25,86,102.0
2091,E-2,158.5,0.25,89,102.0
2092,A5,158.5,0.25,1,102.0
2093,C2,158.5,0.5,80,102.0
2094,F#2,158.5,0.25,114,102.0
2095,B-5,158.583,1/40,33,102.0
2096,B-1,158.75,0.25,79,102.0
2097,A5,158.75,0.25,1,102.0
2098,F#2,158.75,0.25,89,102.0
2099,F#1,159.0,0.5,86,102.0
2100,A5,159.0,0.25,37,102.0
2101,E2,159.0,0.25,113,102.0
2102,G#2,159.0,0.25,113,102.0
2103,F#2,159.25,0.25,89,102.0
2104,G1,159.5,0.5,88,102.0
2105,A5,159.5,0.25,1,102.0
2106,C2,159.5,0.25,92,102.0
2107,F#2,159.5,0.25,92,102.0
2108,A5,159.75,0.25,4,102.0
2109,F#2,159.75,0.25,81,102.0
2110,E-4,160.0,1829/500,66,102.0
2111,G#1,160.0,0.75,104,102.0
2112,A5,160.0,0.25,30,102.0
2113,C2,160.0,0.5,86,102.0
2114,F#2,160.0,0.25,124,102.0
2115,B3,160.0,9/5,91,102.0
2116,F#3,160.0,9/5,91,102.0
2117,F#2,160.25,0.25,92,102.0
2118,A5,160.5,0.25,1,102.0
2119,F#2,160.5,0.25,109,102.0
2120,A5,160.75,0.25,1,102.0
2121,C2,160.75,0.25,93,102.0
2122,F#2,160.75,0.25,93,102.0
2123,G#1,161.0,0.75,96,102.0
2124,A5,161.0,0.25,46,102.0
2125,E2,161.0,0.25,102,102.0
2126,G#2,161.0,0.25,102,102.0
2127,F#2,161.25,0.25,81,102.0
2128,A5,161.5,0.25,1,102.0
2129,C2,161.5,0.25,104,102.0
2130,F#2,161.5,0.25,104,102.0
2131,B-1,161.75,0.25,79,102.0
2132,A5,161.75,0.25,1,102.0
2133,F#2,161.75,0.25,63,102.0
2134,B-3,161.958,83/1000,73,102.0
2135,C#2,162.0,0.5,96,102.0
2136,A5,162.0,0.25,37,102.0
2137,C2,162.0,0.5,86,102.0
2138,F#2,162.0,0.25,114,102.0
2139,F3,162.0,201/125,87,102.0
2140,G#3,162.0,201/125,87,102.0
2141,B3,162.0,201/125,87,102.0
2142,B4,162.15,1967/1000,66,102.0
2143,B5,162.15,1579/500,60,102.0
2144,B4,162.15,76/125,67,102.0
2145,B5,162.15,76/125,67,102.0
2146,F#2,162.25,0.25,79,102.0
2147,A5,162.5,0.25,1,102.0
2148,F#2,162.5,0.25,114,102.0
2149,C#2,162.75,0.25,63,102.0
2150,A5,162.75,0.25,1,102.0
2151,C2,162.75,0.25,84,102.0
2152,F#2,162.75,0.25,84,102.0
2153,E-2,163.0,0.25,96,102.0
2154,A5,163.0,0.25,43,102.0
2155,E2,163.0,0.25,106,102.0
2156,G#2,163.0,0.25,106,102.0
2157,F#2,163.25,0.25,89,102.0
2158,E-2,163.5,0.25,89,102.0
2159,A5,163.5,0.25,1,102.0
2160,E2,163.5,0.25,106,102.0
2161,F#2,163.5,0.25,106,102.0
2162,B-1,163.75,0.25,30,102.0
2163,A5,163.75,0.25,1,102.0
2164,E2,163.75,0.25,84,102.0
2165,F#2,163.75,0.25,84,102.0
2166,C#5,163.992,1/125,109,102.0
2167,C#6,163.992,1/125,109,102.0
2168,E1,164.0,0.25,85,102.0
2169,A5,164.0,0.25,34,102.0
2170,C2,164.0,0.5,92,102.0
2171,F#2,164.0,0.25,124,102.0
2172,E-4,164.0,117/1000,88,102.0
2173,B3,164.0,117/1000,88,102.0
2174,G#3,164.0,117/1000,88,102.0
2175,C#5,164.0,0.75,109,102.0
2176,C#6,164.0,0.75,109,102.0
2177,F#4,164.008,117/1000,81,102.0
2178,B3,164.008,117/1000,81,102.0
2179,G#3,164.008,117/1000,81,102.0
2180,G#4,164.067,277/250,73,102.0
2181,G#5,164.067,277/250,73,102.0
2182,F#2,164.25,0.25,89,102.0
2183,E1,164.5,0.25,62,102.0
2184,A5,164.5,0.25,1,102.0
2185,F#2,164.5,0.25,114,102.0
2186,E2,164.75,0.5,97,102.0
2187,A5,164.75,0.25,1,102.0
2188,E-6,164.75,3/20,109,102.0
2189,E-5,164.75,3/20,109,102.0
2190,C2,164.75,0.25,92,102.0
2191,F#2,164.75,0.25,92,102.0
2192,F#4,164.758,1/10,70,102.0
2193,G#3,164.758,1/10,70,102.0
2194,E-4,164.758,3/40,89,102.0
2195,G#3,164.758,3/40,89,102.0
2196,B3,164.758,3/40,89,102.0
2197,A5,165.0,0.25,37,102.0
2198,E2,165.0,0.25,110,102.0
2199,G#2,165.0,0.25,110,102.0
2200,F#4,165.117,0.875,62,102.0
2201,F#5,165.133,533/1000,47,102.0
2202,B1,165.25,0.25,57,102.0
2203,F#2,165.25,0.25,89,102.0
2204,F#6,165.475,2283/1000,98,102.0
2205,F#5,165.475,2283/1000,98,102.0
2206,E-1,165.5,1.0,96,102.0
2207,A5,165.5,0.25,1,102.0
2208,C2,165.5,0.75,79,102.0
2209,F#2,165.5,0.25,114,102.0
2210,C#4,165.508,299/125,87,102.0
2211,B3,165.508,299/125,87,102.0
2212,F#4,165.508,299/125,87,102.0
2213,G3,165.508,299/125,78,102.0
2214,F#4,165.508,299/125,78,102.0
2215,B5,165.633,517/1000,72,102.0
2216,A5,165.75,0.25,1,102.0
2217,F#2,165.75,0.25,96,102.0
2218,A5,166.0,0.25,30,102.0
2219,F#2,166.0,0.25,119,102.0
2220,B4,166.058,23/250,58,102.0
2221,B5,166.15,4.0,72,102.0
2222,B4,166.15,4.0,58,102.0
2223,F#2,166.25,0.25,79,102.0
2224,E-2,166.5,0.25,100,102.0
2225,A5,166.5,0.25,1,102.0
2226,C2,166.5,0.5,97,102.0
2227,F#2,166.5,0.25,109,102.0
2228,B-1,166.75,0.25,21,102.0
2229,A5,166.75,0.25,2,102.0
2230,F#2,166.75,0.25,84,102.0
2231,F#1,167.0,0.25,63,102.0
2232,A5,167.0,0.25,34,102.0
2233,E2,167.0,0.5,104,102.0
2234,G#2,167.0,0.25,119,102.0
2235,F#2,167.25,0.25,77,102.0
2236,G1,167.5,0.5,88,102.0
2237,A5,167.5,0.25,1,102.0
2238,C2,167.5,0.25,75,102.0
2239,F#2,167.5,0.25,75,102.0
2240,A5,167.75,0.25,1,102.0
2241,F#2,167.75,0.25,92,102.0
2242,G#1,168.0,0.75,109,102.0
2243,A5,168.0,0.25,30,102.0
2244,C2,168.0,0.5,97,102.0
2245,F#2,168.0,0.25,124,102.0
2246,B3,168.017,37/20,64,102.0
2247,E-4,168.017,37/20,64,102.0
2248,F#3,168.033,1767/1000,100,102.0
2249,F#2,168.25,0.25,92,102.0
2250,A5,168.5,0.25,1,102.0
2251,F#2,168.5,0.25,92,102.0
2252,A5,168.75,0.25,1,102.0
2253,C2,168.75,0.25,92,102.0
2254,F#2,168.75,0.25,92,102.0
2255,G#1,169.0,0.75,104,102.0
2256,A5,169.0,0.25,23,102.0
2257,E2,169.0,0.25,110,102.0
2258,G#2,169.0,0.25,110,102.0
2259,F#2,169.25,0.25,96,102.0
2260,A5,169.5,0.25,1,102.0
2261,C2,169.5,0.25,108,102.0
2262,F#2,169.5,0.25,108,102.0
2263,B-1,169.75,0.25,77,102.0
2264,A5,169.75,0.25,1,102.0
2265,F#2,169.75,0.25,89,102.0
2266,B1,170.0,0.75,86,102.0
2267,A5,170.0,0.25,25,102.0
2268,C2,170.0,0.5,104,102.0
2269,F#2,170.0,0.25,119,102.0
2270,C#4,170.008,879/500,71,102.0
2271,B3,170.008,879/500,71,102.0
2272,A3,170.008,879/500,71,102.0
2273,E4,170.017,879/500,82,102.0
2274,A3,170.017,879/500,82,102.0
2275,B5,170.15,1029/500,72,102.0
2276,B4,170.15,41/20,58,102.0
2277,F#2,170.25,0.25,75,102.0
2278,A5,170.5,0.25,1,102.0
2279,F#2,170.5,0.25,114,102.0
2280,B1,170.75,0.25,71,102.0
2281,A5,170.75,0.25,1,102.0
2282,C2,170.75,0.25,90,102.0
2283,F#2,170.75,0.25,90,102.0
2284,E-1,171.0,0.25,109,102.0
2285,A5,171.0,0.25,32,102.0
2286,E2,171.0,0.5,101,102.0
2287,G#2,171.0,0.25,126,102.0
2288,F#2,171.25,0.25,89,102.0
2289,E-1,171.5,0.25,69,102.0
2290,A5,171.5,0.25,1,102.0
2291,C2,171.5,0.25,106,102.0
2292,F#2,171.5,0.25,106,102.0
2293,E-1,171.75,0.25,54,102.0
2294,A5,171.75,0.25,1,102.0
2295,F#2,171.75,0.25,92,102.0
2296,C#5,171.975,1/40,104,102.0
2297,C#6,171.975,1/40,104,102.0
2298,E1,172.0,0.25,76,102.0
2299,A5,172.0,0.25,23,102.0
2300,C2,172.0,0.5,101,102.0
2301,F#2,172.0,0.25,124,102.0
2302,C#5,172.0,4/5,104,102.0
2303,C#6,172.0,4/5,104,102.0
2304,B3,172.033,27/250,89,102.0
2305,E-4,172.033,27/250,89,102.0
2306,F#4,172.033,27/250,89,102.0
2307,G#3,172.033,27/250,89,102.0
2308,C#6,172.083,21/20,61,102.0
2309,C#5,172.083,21/20,61,102.0
2310,F#2,172.25,0.25,84,102.0
2311,E1,172.5,0.25,79,102.0
2312,A5,172.5,0.25,1,102.0
2313,F#2,172.5,0.25,109,102.0
2314,E2,172.75,0.5,92,102.0
2315,A5,172.75,0.25,3,102.0
2316,C2,172.75,0.25,88,102.0
2317,F#2,172.75,0.25,88,102.0
2318,G#3,172.758,83/1000,84,102.0
2319,E-4,172.758,83/1000,84,102.0
2320,F#4,172.758,83/1000,84,102.0
2321,B3,172.758,83/1000,84,102.0
2322,E-6,172.783,7/40,114,102.0
2323,E-5,172.783,7/40,114,102.0
2324,A5,173.0,0.25,32,102.0
2325,E2,173.0,0.25,114,102.0
2326,G#2,173.0,0.25,114,102.0
2327,E-6,173.1,0.5,51,102.0
2328,E-5,173.1,0.5,51,102.0
2329,B1,173.25,0.25,66,102.0
2330,F#2,173.25,0.25,84,102.0
2331,C#6,173.442,2483/1000,96,102.0
2332,C#5,173.45,2333/1000,109,102.0
2333,C#4,173.475,577/250,92,102.0
2334,B3,173.475,577/250,92,102.0
2335,F#4,173.492,2183/1000,76,102.0
2336,G3,173.492,2183/1000,76,102.0
2337,E-1,173.5,1.0,96,102.0
2338,A5,173.5,0.25,1,102.0
2339,C2,173.5,0.75,104,102.0
2340,F#2,173.5,0.25,114,102.0
2341,B4,173.575,23/40,65,102.0
2342,B5,173.575,23/40,65,102.0
2343,A5,173.75,0.25,4,102.0
2344,F#2,173.75,0.25,92,102.0
2345,A5,174.0,0.25,27,102.0
2346,F#2,174.0,0.25,119,102.0
2347,B4,174.15,4.0,65,102.0
2348,B5,174.15,4.0,65,102.0
2349,F#2,174.25,0.25,89,102.0
2350,E-2,174.5,0.25,100,102.0
2351,A5,174.5,0.25,1,102.0
2352,C2,174.5,0.5,104,102.0
2353,F#2,174.5,0.25,100,102.0
2354,B-1,174.75,0.25,92,102.0
2355,A5,174.75,0.25,1,102.0
2356,F#2,174.75,0.25,89,102.0
2357,F#1,175.0,0.25,89,102.0
2358,A5,175.0,0.25,30,102.0
2359,E2,175.0,0.25,98,102.0
2360,G#2,175.0,0.25,98,102.0
2361,C2,175.25,0.5,99,102.0
2362,F#2,175.25,0.25,75,102.0
2363,G1,175.5,0.5,76,102.0
2364,A5,175.5,0.25,1,102.0
2365,F#2,175.5,0.25,114,102.0
2366,A5,175.75,0.25,1,102.0
2367,F#2,175.75,0.25,96,102.0
2368,B4,175.933,67/1000,82,102.0
2369,B5,175.933,67/1000,82,102.0
2370,B3,175.95,1/20,80,102.0
2371,E-4,175.95,1/20,80,102.0
2372,F#3,175.95,1/20,80,102.0
2373,G#1,176.0,0.5,109,102.0
2374,A5,176.0,0.25,37,102.0
2375,C2,176.0,0.5,101,102.0
2376,F#2,176.0,0.25,124,102.0
2377,B3,176.0,1/10,80,102.0
2378,E-4,176.0,1/10,80,102.0
2379,F#3,176.0,1/10,80,102.0
2380,B4,176.0,177/250,82,102.0
2381,B5,176.0,177/250,82,102.0
2382,F#2,176.25,0.25,100,102.0
2383,A5,176.5,0.25,1,102.0
2384,F#2,176.5,0.25,109,102.0
2385,F#3,176.725,67/1000,77,102.0
2386,E-4,176.725,67/1000,77,102.0
2387,B3,176.725,67/1000,77,102.0
2388,G#1,176.75,0.5,100,102.0
2389,A5,176.75,0.25,1,102.0
2390,C2,176.75,0.25,87,102.0
2391,F#2,176.75,0.25,87,102.0
2392,E-5,176.758,379/500,70,102.0
2393,E-6,176.758,379/500,70,102.0
2394,A5,177.0,0.25,34,102.0
2395,E2,177.0,0.5,99,102.0
2396,G#2,177.0,0.25,114,102.0
2397,E-2,177.25,0.25,86,102.0
2398,F#2,177.25,0.25,89,102.0
2399,C#5,177.442,2033/1000,92,102.0
2400,C#6,177.442,2033/1000,92,102.0
2401,B3,177.475,2433/1000,66,102.0
2402,F3,177.475,2433/1000,66,102.0
2403,G#3,177.475,2433/1000,66,102.0
2404,E-4,177.5,2283/1000,63,102.0
2405,C#2,177.5,0.75,100,102.0
2406,A5,177.5,0.25,1,102.0
2407,C2,177.5,0.75,104,102.0
2408,F#2,177.5,0.25,109,102.0
2409,A5,177.75,0.25,8,102.0
2410,F#2,177.75,0.25,84,102.0
2411,A5,178.0,0.25,40,102.0
2412,F#2,178.0,0.25,109,102.0
2413,B4,178.15,1771/500,65,102.0
2414,B5,178.15,1771/500,65,102.0
2415,F#2,178.25,0.25,86,102.0
2416,C#2,178.5,0.5,100,102.0
2417,A5,178.5,0.25,1,102.0
2418,C2,178.5,0.5,101,102.0
2419,F#2,178.5,0.25,109,102.0
2420,A5,178.75,0.25,11,102.0
2421,F#2,178.75,0.25,86,102.0
2422,A5,179.0,0.25,40,102.0
2423,E2,179.0,0.5,99,102.0
2424,G#2,179.0,0.25,114,102.0
2425,C#2,179.25,0.25,69,102.0
2426,F#2,179.25,0.25,92,102.0
2427,B4,179.475,3/10,72,102.0
2428,B5,179.475,3/10,72,102.0
2429,E-2,179.5,0.5,89,102.0
2430,A5,179.5,0.25,1,102.0
2431,C2,179.5,0.25,103,102.0
2432,F#2,179.5,0.25,103,102.0
2433,C#5,179.733,267/1000,92,102.0
2434,C#6,179.733,1/5,96,102.0
2435,A5,179.75,0.25,12,102.0
2436,F#2,179.75,0.25,89,102.0
2437,D6,179.992,1/125,94,102.0
2438,E1,180.0,1.75,90,102.0
2439,D5,180.0,423/250,80,102.0
2440,D6,180.0,879/500,94,102.0
2441,A5,180.0,0.25,46,102.0
2442,C2,180.0,0.5,99,102.0
2443,F#2,180.0,0.25,119,102.0
2444,B3,180.042,1667/1000,72,102.0
2445,A3,180.042,1667/1000,72,102.0
2446,G3,180.042,1667/1000,72,102.0
2447,D4,180.042,1667/1000,72,102.0
2448,A5,180.25,0.25,1,102.0
2449,F#2,180.25,0.25,86,102.0
2450,A5,180.5,0.25,18,102.0
2451,F#2,180.5,0.25,109,102.0
2452,C2,180.75,0.25,87,102.0
2453,F#2,180.75,0.25,87,102.0
2454,E2,181.0,0.25,75,102.0
2455,A5,181.0,0.25,25,102.0
2456,E2,181.0,0.5,104,102.0
2457,G#2,181.0,0.25,114,102.0
2458,F#2,181.25,0.25,81,102.0
2459,E2,181.5,0.25,92,102.0
2460,A5,181.5,0.25,15,102.0
2461,C2,181.5,0.25,98,102.0
2462,F#2,181.5,0.25,98,102.0
2463,C#5,181.633,333/1000,52,102.0
2464,C#6,181.65,0.5,59,102.0
2465,C#5,181.65,0.5,59,102.0
2466,B5,181.717,26/125,58,102.0
2467,B1,181.75,0.25,66,102.0
2468,A5,181.75,0.25,27,102.0
2469,F#2,181.75,0.25,92,102.0
2470,C#6,181.808,121/500,43,102.0
2471,D5,181.892,27/250,55,102.0
2472,A3,181.933,201/125,80,102.0
2473,C#4,181.933,201/125,80,102.0
2474,B3,181.95,423/250,78,102.0
2475,E4,181.958,373/250,92,102.0
2476,E5,181.992,427/250,86,102.0
2477,E6,181.992,427/250,86,102.0
2478,F#1,182.0,0.75,119,102.0
2479,A5,182.0,0.25,13,102.0
2480,C2,182.0,0.5,68,102.0
2481,F#2,182.0,0.25,114,102.0
2482,C#6,182.15,33/1000,59,102.0
2483,C#5,182.15,33/1000,59,102.0
2484,D5,182.183,39/20,63,102.0
2485,D6,182.183,39/20,63,102.0
2486,F#2,182.25,0.25,77,102.0
2487,A5,182.5,0.25,1,102.0
2488,F#2,182.5,0.25,104,102.0
2489,A5,182.75,0.25,8,102.0
2490,C2,182.75,0.25,87,102.0
2491,F#2,182.75,0.25,87,102.0
2492,F#1,183.0,0.75,100,102.0
2493,A5,183.0,0.25,50,102.0
2494,E2,183.0,0.25,104,102.0
2495,G#2,183.0,0.25,104,102.0
2496,F#2,183.25,0.25,96,102.0
2497,A5,183.5,0.25,1,102.0
2498,E2,183.5,0.25,100,102.0
2499,F#2,183.5,0.25,100,102.0
2500,A5,183.75,0.25,7,102.0
2501,E2,183.75,0.25,83,102.0
2502,F#2,183.75,0.25,83,102.0
2503,B3,184.0,3.0,100,102.0
2504,G1,184.0,3.5,101,102.0
2505,G#1,184.0,0.25,62,102.0
2506,C#3,184.0,0.25,114,102.0
2507,D4,184.0,627/250,91,102.0
2508,G3,184.0,627/250,91,102.0
2509,B5,184.0,4.0,90,102.0
2510,B4,184.0,4.0,90,102.0
2511,E6,184.133,2017/1000,64,102.0
2512,E5,184.133,2017/1000,64,102.0
2513,B4,186.092,29/500,66,102.0
2514,B5,186.108,21/500,66,102.0
2515,B4,186.15,4.0,66,102.0
2516,B5,186.15,4.0,66,102.0
2517,E6,186.15,1/125,64,102.0
2518,E5,186.15,1/125,64,102.0
2519,F#1,187.5,0.25,81,102.0
2520,E-3,187.5,0.25,96,102.0
2521,G1,187.75,0.25,80,102.0
2522,E-3,187.75,0.25,96,102.0
2523,C#4,187.967,33/1000,72,102.0
2524,A3,187.967,33/1000,72,102.0
2525,E4,187.967,33/1000,72,102.0
2526,B3,187.967,33/1000,72,102.0
2527,A1,188.0,3.5,69,102.0
2528,A3,188.0,0.25,104,102.0
2529,C#4,188.0,89/40,72,102.0
2530,A3,188.0,89/40,72,102.0
2531,E4,188.0,89/40,72,102.0
2532,B3,188.0,89/40,72,102.0
2533,B4,190.15,1967/1000,66,102.0
2534,B5,190.15,1571/500,66,102.0
2535,E2,191.5,0.25,117,102.0
2536,B5,191.842,1921/500,90,102.0
2537,B4,191.842,1921/500,90,102.0
2538,G#1,192.0,1.0,100,102.0
2539,C2,192.0,0.5,113,102.0
2540,F#2,192.0,0.25,114,102.0
2541,E-4,192.025,677/250,77,102.0
2542,F#3,192.025,677/250,77,102.0
2543,B3,192.025,677/250,77,102.0
2544,G#5,192.058,151/125,66,102.0
2545,G#4,192.083,11/10,63,102.0
2546,F#2,192.25,0.25,96,102.0
2547,F#2,192.5,0.25,89,102.0
2548,G#2,192.75,0.25,109,102.0
2549,C2,192.75,0.25,74,102.0
2550,F#2,192.75,0.25,74,102.0
2551,E2,193.0,0.25,116,102.0
2552,G#2,193.0,0.25,116,102.0
2553,F#4,193.133,329/500,73,102.0
2554,F#5,193.15,271/500,50,102.0
2555,F#2,193.25,0.25,89,102.0
2556,G#1,193.5,0.75,100,102.0
2557,C2,193.5,0.5,99,102.0
2558,F#2,193.5,0.25,92,102.0
2559,B5,193.633,517/1000,63,102.0
2560,F#2,193.75,0.25,86,102.0
2561,F#2,194.0,0.25,109,102.0
2562,B4,194.025,0.125,49,102.0
2563,B5,194.15,4.0,63,102.0
2564,B4,194.15,933/1000,49,102.0
2565,G#2,194.25,0.5,109,102.0
2566,F#2,194.25,0.25,73,102.0
2567,C2,194.5,0.5,104,102.0
2568,F#2,194.5,0.25,92,102.0
2569,E-2,194.75,0.25,62,102.0
2570,F#2,194.75,0.25,37,102.0
2571,B-1,195.0,0.5,109,102.0
2572,E2,195.0,0.25,113,102.0
2573,G#2,195.0,0.25,113,102.0
2574,B4,195.217,2933/1000,57,102.0
2575,F#2,195.25,0.25,92,102.0
2576,B1,195.5,0.5,74,102.0
2577,C2,195.5,0.25,89,102.0
2578,F#2,195.5,0.25,89,102.0
2579,F#2,195.75,0.25,89,102.0
2580,E-2,196.0,1.25,104,102.0
2581,C2,196.0,0.5,110,102.0
2582,F#2,196.0,0.25,114,102.0
2583,F#3,196.042,1433/1000,81,102.0
2584,C#4,196.042,1433/1000,81,102.0
2585,B-3,196.042,1433/1000,81,102.0
2586,F#2,196.25,0.25,84,102.0
2587,F#2,196.5,0.25,114,102.0
2588,C2,196.75,0.25,54,102.0
2589,F#2,196.75,0.25,54,102.0
2590,E2,197.0,0.25,106,102.0
2591,G#2,197.0,0.25,106,102.0
2592,F#2,197.25,0.25,96,102.0
2593,E-2,197.5,0.25,86,102.0
2594,C2,197.5,0.5,107,102.0
2595,F#2,197.5,0.25,104,102.0
2596,C#2,197.75,0.25,89,102.0
2597,F#2,197.75,0.25,96,102.0
2598,G#1,198.0,0.5,100,102.0
2599,F#2,198.0,0.25,92,102.0
2600,F#3,198.017,1233/1000,54,102.0
2601,E-4,198.033,1467/1000,68,102.0
2602,B3,198.033,1467/1000,68,102.0
2603,B5,198.15,81/40,63,102.0
2604,B4,198.15,39/20,57,102.0
2605,F#2,198.25,0.25,84,102.0
2606,G#2,198.5,1.0,109,102.0
2607,C2,198.5,0.25,110,102.0
2608,F#2,198.5,0.25,110,102.0
2609,F#2,198.75,0.25,32,102.0
2610,E2,199.0,0.25,110,102.0
2611,G#2,199.0,0.25,110,102.0
2612,F#2,199.25,0.25,96,102.0
2613,B1,199.5,0.5,117,102.0
2614,C2,199.5,0.25,98,102.0
2615,F#2,199.5,0.25,98,102.0
2616,F#2,199.75,0.25,96,102.0
2617,C#2,200.0,0.5,109,102.0
2618,C2,200.0,0.5,83,102.0
2619,F#2,200.0,0.25,119,102.0
2620,B3,200.008,374/125,68,102.0
2621,E3,200.025,109/40,60,102.0
2622,G#3,200.025,109/40,60,102.0
2623,C#6,200.083,43/40,66,102.0
2624,C#5,200.083,43/40,66,102.0
2625,F#2,200.25,0.25,41,102.0
2626,F#2,200.5,0.25,104,102.0
2627,C#2,200.75,0.25,109,102.0
2628,C2,200.75,0.25,62,102.0
2629,F#2,200.75,0.25,62,102.0
2630,E2,201.0,0.25,112,102.0
2631,G#2,201.0,0.25,112,102.0
2632,E-6,201.108,0.5,52,102.0
2633,E-5,201.108,0.5,52,102.0
2634,B1,201.25,0.25,76,102.0
2635,F#2,201.25,0.25,92,102.0
2636,C#2,201.5,0.75,114,102.0
2637,C2,201.5,0.75,104,102.0
2638,F#2,201.5,0.25,114,102.0
2639,B4,201.608,271/500,82,102.0
2640,B5,201.608,271/500,82,102.0
2641,F#2,201.75,0.25,96,102.0
2642,F#2,202.0,0.25,104,102.0
2643,B4,202.15,4.0,82,102.0
2644,B5,202.15,4.0,82,102.0
2645,F#2,202.25,0.25,96,102.0
2646,C#2,202.5,0.5,100,102.0
2647,C2,202.5,0.5,101,102.0
2648,F#2,202.5,0.25,100,102.0
2649,F#2,202.75,0.25,92,102.0
2650,E2,203.0,0.5,101,102.0
2651,G#2,203.0,0.25,114,102.0
2652,C#2,203.25,0.25,104,102.0
2653,F#2,203.25,0.25,86,102.0
2654,B1,203.5,0.25,85,102.0
2655,C2,203.5,0.25,102,102.0
2656,F#2,203.5,0.25,102,102.0
2657,A1,203.75,0.25,80,102.0
2658,F#2,203.75,0.25,46,102.0
2659,E1,204.0,0.25,104,102.0
2660,C2,204.0,0.5,94,102.0
2661,F#2,204.0,0.25,104,102.0
2662,E4,204.0,321/500,79,102.0
2663,B3,204.0,321/500,79,102.0
2664,G#3,204.0,321/500,79,102.0
2665,F#2,204.25,0.25,89,102.0
2666,F#2,204.5,0.25,114,102.0
2667,F#4,204.75,183/1000,57,102.0
2668,E2,204.75,0.5,101,102.0
2669,C2,204.75,0.25,61,102.0
2670,F#2,204.75,0.25,61,102.0
2671,E2,205.0,0.25,114,102.0
2672,G#2,205.0,0.25,114,102.0
2673,B1,205.25,0.25,66,102.0
2674,F#2,205.25,0.25,96,102.0
2675,E-1,205.5,1.0,104,102.0
2676,C2,205.5,0.75,92,102.0
2677,F#2,205.5,0.25,104,102.0
2678,E-4,205.5,1667/1000,72,102.0
2679,B3,205.5,1667/1000,72,102.0
2680,G3,205.5,1667/1000,72,102.0
2681,F#2,205.75,0.25,96,102.0
2682,F#2,206.0,0.25,92,102.0
2683,B4,206.15,3.625,82,102.0
2684,B5,206.15,3.625,82,102.0
2685,F#2,206.25,0.25,89,102.0
2686,E-2,206.5,0.5,114,102.0
2687,C2,206.5,0.5,104,102.0
2688,F#2,206.5,0.25,109,102.0
2689,F#2,206.75,0.25,84,102.0
2690,E2,207.0,0.25,107,102.0
2691,G#2,207.0,0.25,107,102.0
2692,E-2,207.25,0.25,96,102.0
2693,F#2,207.25,0.25,92,102.0
2694,B-1,207.5,0.25,109,102.0
2695,E2,207.5,0.25,104,102.0
2696,F#2,207.5,0.25,104,102.0
2697,E-1,207.75,0.25,96,102.0
2698,E2,207.75,0.25,98,102.0
2699,F#2,207.75,0.25,98,102.0
2700,G#1,208.0,0.75,92,102.0
2701,C2,208.0,0.5,107,102.0
2702,F#2,208.0,0.25,124,102.0
2703,E-4,208.008,79/40,58,102.0
2704,B3,208.008,79/40,58,102.0
2705,F#3,208.008,79/40,58,102.0
2706,F#2,208.25,0.25,37,102.0
2707,F#2,208.5,0.25,92,102.0
2708,G#2,208.75,0.5,114,102.0
2709,C2,208.75,0.25,95,102.0
2710,F#2,208.75,0.25,95,102.0
2711,E2,209.0,0.25,109,102.0
2712,G#2,209.0,0.25,109,102.0
2713,E-2,209.25,0.25,49,102.0
2714,F#2,209.25,0.25,41,102.0
2715,G#1,209.5,1.0,109,102.0
2716,C2,209.5,0.5,92,102.0
2717,F#2,209.5,0.25,114,102.0
2718,C#5,209.667,19/40,57,102.0
2719,C#6,209.667,19/40,57,102.0
2720,F#2,209.75,0.25,92,102.0
2721,F#2,210.0,0.25,109,102.0
2722,D6,210.142,1/125,64,102.0
2723,D5,210.142,1/125,64,102.0
2724,D6,210.15,1883/1000,64,102.0
2725,D5,210.15,1883/1000,64,102.0
2726,F#2,210.25,0.25,92,102.0
2727,G#2,210.5,0.25,100,102.0
2728,C2,210.5,0.5,83,102.0
2729,F#2,210.5,0.25,92,102.0
2730,E-2,210.75,0.25,62,102.0
2731,F#2,210.75,0.25,89,102.0
2732,B-1,211.0,0.5,109,102.0
2733,E2,211.0,0.25,116,102.0
2734,G#2,211.0,0.25,116,102.0
2735,F#2,211.25,0.25,81,102.0
2736,B1,211.5,0.5,75,102.0
2737,C2,211.5,0.25,94,102.0
2738,F#2,211.5,0.25,94,102.0
2739,F#2,211.75,0.25,81,102.0
2740,C#5,211.908,121/500,28,102.0
2741,E-2,212.0,1.25,104,102.0
2742,C2,212.0,0.5,101,102.0
2743,F#2,212.0,0.25,114,102.0
2744,B5,212.008,7/40,42,102.0
2745,F#3,212.025,6/5,81,102.0
2746,B-3,212.025,6/5,81,102.0
2747,C#4,212.025,6/5,81,102.0
2748,E5,212.117,929/500,68,102.0
2749,E6,212.117,929/500,68,102.0
2750,F#2,212.25,0.25,23,102.0
2751,F#2,212.5,0.25,109,102.0
2752,C2,212.75,0.25,87,102.0
2753,F#2,212.75,0.25,87,102.0
2754,E2,213.0,0.25,106,102.0
2755,G#2,213.0,0.25,106,102.0
2756,F#2,213.25,0.25,84,102.0
2757,E-2,213.5,0.25,100,102.0
2758,C2,213.5,0.5,107,102.0
2759,F#2,213.5,0.25,114,102.0
2760,C#2,213.75,0.25,81,102.0
2761,F#2,213.75,0.25,36,102.0
2762,G#1,214.0,0.75,100,102.0
2763,F#2,214.0,0.25,114,102.0
2764,F#3,214.008,151/125,78,102.0
2765,B3,214.008,151/125,78,102.0
2766,E-4,214.008,151/125,78,102.0
2767,B4,214.15,4.0,98,102.0
2768,B5,214.15,4.0,98,102.0
2769,F#2,214.25,0.25,81,102.0
2770,G#2,214.5,0.75,104,102.0
2771,C2,214.5,0.5,107,102.0
2772,F#2,214.5,0.25,109,102.0
2773,F#2,214.75,0.25,92,102.0
2774,E2,215.0,0.5,117,102.0
2775,G#2,215.0,0.25,114,102.0
2776,F#2,215.25,0.25,96,102.0
2777,B1,215.5,0.25,101,102.0
2778,C2,215.5,0.25,98,102.0
2779,F#2,215.5,0.25,98,102.0
2780,F#2,215.75,0.25,92,102.0
2781,C#2,216.0,0.5,92,102.0
2782,F#2,216.0,0.25,124,102.0
2783,C2,216.0,0.5,78,102.0
2784,E3,216.0,2917/1000,73,102.0
2785,G#3,216.0,2917/1000,73,102.0
2786,B3,216.0,2917/1000,73,102.0
2787,F#2,216.25,0.25,89,102.0
2788,F#2,216.5,0.25,100,102.0
2789,C#2,216.75,0.25,96,102.0
2790,F#2,216.75,0.25,81,102.0
2791,C2,216.75,0.25,81,102.0
2792,G#2,217.0,0.25,100,102.0
2793,E2,217.0,0.25,100,102.0
2794,B1,217.25,0.25,73,102.0
2795,F#2,217.25,0.25,37,102.0
2796,C#2,217.5,0.75,100,102.0
2797,F#2,217.5,0.25,109,102.0
2798,C2,217.5,0.75,101,102.0
2799,F#2,217.75,0.25,92,102.0
2800,F#2,218.0,0.25,109,102.0
2801,F#2,218.25,0.25,84,102.0
2802,C#2,218.5,0.5,100,102.0
2803,F#2,218.5,0.25,119,102.0
2804,C2,218.5,0.5,104,102.0
2805,F#2,218.75,0.25,86,102.0
2806,G#2,219.0,0.25,114,102.0
2807,E2,219.0,0.5,117,102.0
2808,C#2,219.25,0.25,104,102.0
2809,F#2,219.25,0.25,86,102.0
2810,B1,219.5,0.25,72,102.0
2811,F#2,219.5,0.25,95,102.0
2812,C2,219.5,0.25,95,102.0
2813,A1,219.75,0.25,78,102.0
2814,F#2,219.75,0.25,92,102.0
2815,E1,220.0,0.75,113,102.0
2816,C2,220.0,0.5,97,102.0
2817,F#2,220.0,0.25,124,102.0
2818,E4,220.0,717/1000,74,102.0
2819,G#3,220.0,717/1000,74,102.0
2820,B3,220.0,717/1000,74,102.0
2821,F#2,220.25,0.25,81,102.0
2822,F#2,220.5,0.25,96,102.0
2823,E2,220.75,0.5,107,102.0
2824,F#2,220.75,0.25,84,102.0
2825,C2,220.75,0.25,84,102.0
2826,F#4,220.792,26/125,58,102.0
2827,C#6,220.842,71/500,114,102.0
2828,C#5,220.842,71/500,114,102.0
2829,E2,221.0,0.25,112,102.0
2830,G#2,221.0,0.25,112,102.0
2831,B1,221.25,0.25,73,102.0
2832,F#2,221.25,0.25,96,102.0
2833,E-1,221.5,1.75,109,102.0
2834,F#2,221.5,0.25,96,102.0
2835,C2,221.5,0.75,85,102.0
2836,E-4,221.55,1683/1000,65,102.0
2837,B3,221.55,1683/1000,65,102.0
2838,G3,221.55,1683/1000,65,102.0
2839,B5,221.567,99/125,106,102.0
2840,B4,221.567,99/125,106,102.0
2841,F#2,221.75,0.25,86,102.0
2842,F#2,222.0,0.25,96,102.0
2843,F#2,222.25,0.25,81,102.0
2844,C#5,222.35,117/1000,116,102.0
2845,C#6,222.35,117/1000,116,102.0
2846,E-2,222.5,0.5,114,102.0
2847,C2,222.5,0.5,110,102.0
2848,F#2,222.5,0.25,114,102.0
2849,F#2,222.75,0.25,77,102.0
2850,E2,223.0,0.25,102,102.0
2851,G#2,223.0,0.25,102,102.0
2852,E-2,223.25,0.25,119,102.0
2853,F#2,223.25,0.25,81,102.0
2854,B-1,223.5,0.25,114,102.0
2855,E2,223.5,0.25,99,102.0
2856,E-1,223.75,0.25,92,102.0
2857,E2,223.75,0.25,88,102.0
2858,G#1,224.0,0.75,104,102.0
2859,A5,224.0,0.25,46,102.0
2860,C2,224.0,0.5,104,102.0
2861,F#2,224.0,0.25,114,102.0
2862,E-4,224.033,59/20,68,102.0
2863,F#3,224.033,59/20,68,102.0
2864,B3,224.033,59/20,68,102.0
2865,A5,224.25,0.25,1,102.0
2866,F#2,224.25,0.25,75,102.0
2867,A5,224.5,0.25,18,102.0
2868,F#2,224.5,0.25,104,102.0
2869,G#2,224.75,0.5,114,102.0
2870,C2,224.75,0.25,84,102.0
2871,F#2,224.75,0.25,84,102.0
2872,A5,225.0,0.25,25,102.0
2873,E2,225.0,0.5,101,102.0
2874,G#2,225.0,0.25,114,102.0
2875,E-2,225.25,0.25,58,102.0
2876,F#2,225.25,0.25,81,102.0
2877,G#1,225.5,1.25,104,102.0
2878,A5,225.5,0.25,15,102.0
2879,C2,225.5,0.5,107,102.0
2880,F#2,225.5,0.25,109,102.0
2881,A5,225.75,0.25,27,102.0
2882,F#2,225.75,0.25,79,102.0
2883,A5,226.0,0.25,13,102.0
2884,F#2,226.0,0.25,100,102.0
2885,G#2,226.25,0.75,104,102.0
2886,F#2,226.25,0.25,60,102.0
2887,A5,226.5,0.25,1,102.0
2888,C2,226.5,0.5,69,102.0
2889,F#2,226.5,0.25,104,102.0
2890,E-2,226.75,0.25,49,102.0
2891,A5,226.75,0.25,8,102.0
2892,F#2,226.75,0.25,68,102.0
2893,G#1,227.0,0.5,100,102.0
2894,A5,227.0,0.25,50,102.0
2895,E2,227.0,0.5,69,102.0
2896,G#2,227.0,0.25,100,102.0
2897,F#2,227.25,0.25,77,102.0
2898,B4,227.333,4.0,98,102.0
2899,B5,227.333,4.0,98,102.0
2900,G#2,227.5,0.5,92,102.0
2901,A5,227.5,0.25,1,102.0
2902,C2,227.5,0.25,94,102.0
2903,F#2,227.5,0.25,94,102.0
2904,A5,227.75,0.25,7,102.0
2905,F#2,227.75,0.25,79,102.0
2906,B4,227.842,4.0,59,102.0
2907,B-1,228.0,0.75,114,102.0
2908,A5,228.0,0.25,46,102.0
2909,C2,228.0,0.5,99,102.0
2910,F#2,228.0,0.25,114,102.0
2911,B-3,228.0,39/40,76,102.0
2912,F#4,228.0,39/40,76,102.0
2913,C#4,228.0,39/40,76,102.0
2914,F#2,228.25,0.25,79,102.0
2915,A5,228.5,0.25,1,102.0
2916,F#2,228.5,0.25,104,102.0
2917,B-2,228.75,0.5,104,102.0
2918,A5,228.75,0.25,2,102.0
2919,C2,228.75,0.25,73,102.0
2920,F#2,228.75,0.25,73,102.0
2921,A5,229.0,0.25,37,102.0
2922,E2,229.0,0.25,108,102.0
2923,G#2,229.0,0.25,108,102.0
2924,E-2,229.25,0.25,46,102.0
2925,F#2,229.25,0.25,60,102.0
2926,B1,229.5,2.0,90,102.0
2927,A5,229.5,0.25,1,102.0
2928,C2,229.5,0.5,104,102.0
2929,F#2,229.5,0.25,96,102.0
2930,F#3,229.533,729/500,70,102.0
2931,E-4,229.533,729/500,70,102.0
2932,B3,229.533,729/500,70,102.0
2933,A5,229.75,0.25,1,102.0
2934,F#2,229.75,0.25,79,102.0
2935,A5,230.0,0.25,34,102.0
2936,F#2,230.0,0.25,100,102.0
2937,F#2,230.25,0.25,69,102.0
2938,B2,230.5,0.75,74,102.0
2939,A5,230.5,0.25,1,102.0
2940,C2,230.5,0.5,104,102.0
2941,F#2,230.5,0.25,96,102.0
2942,A5,230.75,0.25,1,102.0
2943,F#2,230.75,0.25,79,102.0
2944,A5,231.0,0.25,37,102.0
2945,E2,231.0,0.5,101,102.0
2946,G#2,231.0,0.25,124,102.0
2947,B2,231.25,0.5,90,102.0
2948,F#2,231.25,0.25,81,102.0
2949,F#2,231.5,0.25,89,102.0
2950,A5,231.5,0.25,1,102.0
2951,C2,231.5,0.25,99,102.0
2952,F#2,231.5,0.25,99,102.0
2953,B1,231.75,0.25,76,102.0
2954,A5,231.75,0.25,4,102.0
2955,F#2,231.75,0.25,89,102.0
2956,B4,231.842,167/1000,59,102.0
2957,C#5,231.883,1567/1000,77,102.0
2958,C#2,232.0,0.5,124,102.0
2959,A5,232.0,0.25,30,102.0
2960,C2,232.0,0.5,104,102.0
2961,F#2,232.0,0.25,119,102.0
2962,G#3,232.033,7/10,67,102.0
2963,E4,232.033,7/10,67,102.0
2964,B3,232.033,7/10,67,102.0
2965,F#2,232.25,0.25,75,102.0
2966,A5,232.5,0.25,1,102.0
2967,F#2,232.5,0.25,92,102.0
2968,C#2,232.75,0.5,104,102.0
2969,A5,232.75,0.25,1,102.0
2970,C2,232.75,0.25,60,102.0
2971,F#2,232.75,0.25,60,102.0
2972,A5,233.0,0.25,46,102.0
2973,E2,233.0,0.25,110,102.0
2974,G#2,233.0,0.25,110,102.0
2975,B1,233.25,0.25,75,102.0
2976,F#2,233.25,0.25,86,102.0
2977,E-5,233.358,79/40,81,102.0
2978,B-3,233.467,61/40,67,102.0
2979,C#4,233.467,61/40,67,102.0
2980,F#4,233.475,51/40,75,102.0
2981,E-2,233.5,1.0,100,102.0
2982,A5,233.5,0.25,1,102.0
2983,C2,233.5,0.75,90,102.0
2984,F#2,233.5,0.25,114,102.0
2985,A5,233.75,0.25,1,102.0
2986,F#2,233.75,0.25,81,102.0
2987,A5,234.0,0.25,37,102.0
2988,F#2,234.0,0.25,77,102.0
2989,F#2,234.25,0.25,12,102.0
2990,E-2,234.5,1.0,89,102.0
2991,A5,234.5,0.25,1,102.0
2992,C2,234.5,0.5,99,102.0
2993,F#2,234.5,0.25,109,102.0
2994,A5,234.75,0.25,1,102.0
2995,F#2,234.75,0.25,81,102.0
2996,A5,235.0,0.25,43,102.0
2997,E2,235.0,0.5,117,102.0
2998,G#2,235.0,0.25,109,102.0
2999,F#2,235.25,0.25,69,102.0
3000,C#5,235.317,171/500,68,102.0
3001,C#2,235.5,0.25,100,102.0
3002,A5,235.5,0.25,1,102.0
3003,C2,235.5,0.25,102,102.0
3004,F#2,235.5,0.25,102,102.0
3005,E-5,235.583,129/500,86,102.0
3006,E-2,235.75,0.25,100,102.0
3007,A5,235.75,0.25,1,102.0
3008,F#2,235.75,0.25,86,102.0
3009,E5,235.833,1/125,75,102.0
3010,E5,235.842,61/40,75,102.0
3011,E-5,235.842,1/40,86,102.0
3012,F#1,236.0,1.0,100,102.0
3013,A5,236.0,0.25,34,102.0
3014,C2,236.0,0.5,107,102.0
3015,F#2,236.0,0.25,119,102.0
3016,B3,236.042,59/20,77,102.0
3017,F#4,236.042,59/20,77,102.0
3018,C#4,236.042,59/20,77,102.0
3019,F#2,236.25,0.25,84,102.0
3020,A5,236.5,0.25,1,102.0
3021,F#2,236.5,0.25,100,102.0
3022,B4,236.517,4.0,98,102.0
3023,B5,236.517,4.0,98,102.0
3024,A5,236.75,0.25,1,102.0
3025,C2,236.75,0.25,78,102.0
3026,F#2,236.75,0.25,78,102.0
3027,F#2,237.0,0.75,114,102.0
3028,A5,237.0,0.25,37,102.0
3029,E2,237.0,0.25,120,102.0
3030,G#2,237.0,0.25,120,102.0
3031,F#2,237.25,0.25,38,102.0
3032,F#5,237.392,2383/1000,69,102.0
3033,A5,237.5,0.25,1,102.0
3034,C2,237.5,0.75,107,102.0
3035,F#2,237.5,0.25,114,102.0
3036,C#2,237.75,0.25,46,102.0
3037,A5,237.75,0.25,1,102.0
3038,F#2,237.75,0.25,81,102.0
3039,F#1,238.0,0.25,96,102.0
3040,A5,238.0,0.25,30,102.0
3041,F#2,238.0,0.25,100,102.0
3042,F#2,238.25,0.25,15,102.0
3043,F#1,238.5,0.5,92,102.0
3044,A5,238.5,0.25,1,102.0
3045,C2,238.5,0.25,92,102.0
3046,F#2,238.5,0.25,92,102.0
3047,A5,238.75,0.25,2,102.0
3048,F#2,238.75,0.25,96,102.0
3049,F#2,239.0,0.25,104,102.0
3050,A5,239.0,0.25,34,102.0
3051,E2,239.0,0.25,105,102.0
3052,G#2,239.0,0.25,105,102.0
3053,C#2,239.25,0.5,86,102.0
3054,F#2,239.25,0.25,89,102.0
3055,A5,239.5,0.25,1,102.0
3056,E2,239.5,0.25,92,102.0
3057,F#1,239.75,0.25,77,102.0
3058,A5,239.75,0.25,1,102.0
3059,E2,239.75,0.25,101,102.0
3060,F#5,239.9,3583/1000,100,102.0
3061,G#1,240.0,0.75,114,102.0
3062,A5,240.0,0.25,30,102.0
3063,C2,240.0,0.5,107,102.0
3064,F#2,240.0,0.25,119,102.0
3065,E-4,240.025,2717/1000,80,102.0
3066,F#3,240.025,2717/1000,80,102.0
3067,B3,240.025,2717/1000,80,102.0
3068,F#2,240.25,0.25,92,102.0
3069,A5,240.5,0.25,1,102.0
3070,F#2,240.5,0.25,100,102.0
3071,G#2,240.75,0.5,114,102.0
3072,A5,240.75,0.25,1,102.0
3073,C2,240.75,0.25,82,102.0
3074,F#2,240.75,0.25,82,102.0
3075,A5,241.0,0.25,23,102.0
3076,E2,241.0,0.5,104,102.0
3077,G#2,241.0,0.25,124,102.0
3078,E-2,241.25,0.25,43,102.0
3079,F#2,241.25,0.25,89,102.0
3080,G#1,241.5,1.75,114,102.0
3081,A5,241.5,0.25,1,102.0
3082,C2,241.5,0.5,76,102.0
3083,F#2,241.5,0.25,114,102.0
3084,B4,241.7,1183/1000,98,102.0
3085,B5,241.7,1183/1000,98,102.0
3086,A5,241.75,0.25,1,102.0
3087,F#2,241.75,0.25,89,102.0
3088,A5,242.0,0.25,25,102.0
3089,F#2,242.0,0.25,84,102.0
3090,F#2,242.25,0.25,89,102.0
3091,G#2,242.5,0.5,104,102.0
3092,A5,242.5,0.25,1,102.0
3093,C2,242.5,0.5,85,102.0
3094,F#2,242.5,0.25,119,102.0
3095,A5,242.75,0.25,1,102.0
3096,F#2,242.75,0.25,84,102.0
3097,A5,243.0,0.25,32,102.0
3098,E2,243.0,0.5,104,102.0
3099,G#2,243.0,0.25,109,102.0
3100,G#2,243.25,0.25,100,102.0
3101,F#2,243.25,0.25,79,102.0
3102,B4,243.408,333/1000,80,102.0
3103,E-2,243.5,0.25,100,102.0
3104,A5,243.5,0.25,1,102.0
3105,C2,243.5,0.25,83,102.0
3106,F#2,243.5,0.25,83,102.0
3107,C#5,243.642,1/5,89,102.0
3108,G#1,243.75,0.25,96,102.0
3109,A5,243.75,0.25,1,102.0
3110,F#2,243.75,0.25,79,102.0
3111,C#5,243.842,17/1000,89,102.0
3112,E-5,243.875,3967/1000,100,102.0
3113,C#4,243.975,1/40,62,102.0
3114,F#4,243.975,1/40,62,102.0
3115,B-3,243.975,1/40,62,102.0
3116,B-1,244.0,1.25,100,102.0
3117,A5,244.0,0.25,23,102.0
3118,C2,244.0,0.5,92,102.0
3119,F#2,244.0,0.25,119,102.0
3120,C#4,244.0,29/40,62,102.0
3121,F#4,244.0,29/40,62,102.0
3122,B-3,244.0,29/40,62,102.0
3123,F#2,244.25,0.25,81,102.0
3124,A5,244.5,0.25,1,102.0
3125,F#2,244.5,0.25,96,102.0
3126,B-2,244.75,0.5,84,102.0
3127,A5,244.75,0.25,3,102.0
3128,C2,244.75,0.25,78,102.0
3129,F#2,244.75,0.25,78,102.0
3130,A5,245.0,0.25,32,102.0
3131,E2,245.0,0.5,99,102.0
3132,G#2,245.0,0.25,119,102.0
3133,F#2,245.25,0.25,68,102.0
3134,F#2,245.25,0.25,84,102.0
3135,B1,245.5,2.25,94,102.0
3136,A5,245.5,0.25,1,102.0
3137,C2,245.5,0.75,104,102.0
3138,F#2,245.5,0.25,109,102.0
3139,F#3,245.5,621/500,60,102.0
3140,E-4,245.5,621/500,60,102.0
3141,B3,245.517,1483/1000,75,102.0
3142,A5,245.75,0.25,4,102.0
3143,F#2,245.75,0.25,86,102.0
3144,A5,246.0,0.25,27,102.0
3145,F#2,246.0,0.25,114,102.0
3146,F#2,246.25,0.25,84,102.0
3147,B2,246.5,0.75,62,102.0
3148,A5,246.5,0.25,1,102.0
3149,C2,246.5,0.5,94,102.0
3150,F#2,246.5,0.25,96,102.0
3151,A5,246.75,0.25,1,102.0
3152,F#2,246.75,0.25,89,102.0
3153,A5,247.0,0.25,30,102.0
3154,E2,247.0,0.25,102,102.0
3155,G#2,247.0,0.25,102,102.0
3156,F#2,247.25,0.25,89,102.0
3157,B2,247.5,0.25,90,102.0
3158,A5,247.5,0.25,1,102.0
3159,E2,247.5,0.25,98,102.0
3160,F#2,247.5,0.25,98,102.0
3161,F#2,247.75,0.25,84,102.0
3162,A5,247.75,0.25,1,102.0
3163,E2,247.75,0.25,84,102.0
3164,F#2,247.75,0.25,84,102.0
3165,C#5,247.842,833/1000,92,102.0
3166,E-5,247.842,1/20,100,102.0
3167,E4,247.958,21/500,69,102.0
3168,B3,247.967,33/1000,68,102.0
3169,G#3,247.967,33/1000,58,102.0
3170,E4,248.0,0.5,69,102.0
3171,B3,248.0,0.75,68,102.0
3172,G#3,248.0,1.0,58,102.0
3173,C#2,248.0,0.5,114,102.0
3174,A5,248.0,0.25,37,102.0
3175,C2,248.0,0.5,110,102.0
3176,F#2,248.0,0.25,114,102.0
3177,F#2,248.25,0.25,71,102.0
3178,A5,248.5,0.25,1,102.0
3179,F#2,248.5,0.25,86,102.0
3180,F#5,248.617,4/5,54,102.0
3181,C#2,248.75,0.25,104,102.0
3182,A5,248.75,0.25,1,102.0
3183,C2,248.75,0.25,81,102.0
3184,F#2,248.75,0.25,81,102.0
3185,B3,249.0,321/500,69,102.0
3186,E-2,249.0,0.5,114,102.0
3187,A5,249.0,0.25,34,102.0
3188,C#4,249.0,51/125,71,102.0
3189,F#4,249.0,51/125,71,102.0
3190,E2,249.0,0.25,114,102.0
3191,G#2,249.0,0.25,114,102.0
3192,F#2,249.25,0.25,86,102.0
3193,E-5,249.35,2067/1000,89,102.0
3194,A5,249.5,0.25,1,102.0
3195,C2,249.5,0.5,97,102.0
3196,F#2,249.5,0.25,104,102.0
3197,E-2,249.75,0.25,92,102.0
3198,A5,249.75,0.25,8,102.0
3199,F#2,249.75,0.25,89,102.0
3200,E2,250.0,0.5,94,102.0
3201,A5,250.0,0.25,40,102.0
3202,G#2,250.0,0.25,119,102.0
3203,G#3,250.092,321/500,70,102.0
3204,B3,250.092,321/500,70,102.0
3205,E4,250.092,321/500,70,102.0
3206,F#2,250.25,0.25,81,102.0
3207,A5,250.5,0.25,1,102.0
3208,C2,250.5,0.5,104,102.0
3209,F#2,250.5,0.25,86,102.0
3210,E2,250.75,0.25,67,102.0
3211,A5,250.75,0.25,11,102.0
3212,F#2,250.75,0.25,79,102.0
3213,F#2,251.0,0.5,104,102.0
3214,A5,251.0,0.25,40,102.0
3215,E2,251.0,0.5,113,102.0
3216,G#2,251.0,0.25,114,102.0
3217,F#3,251.042,221/500,64,102.0
3218,E-4,251.042,221/500,64,102.0
3219,B3,251.042,221/500,64,102.0
3220,F#2,251.25,0.25,86,102.0
3221,C#5,251.367,13/40,89,102.0
3222,A5,251.5,0.25,1,102.0
3223,C2,251.5,0.25,87,102.0
3224,F#2,251.5,0.25,87,102.0
3225,E5,251.683,79/500,99,102.0
3226,F#2,251.75,0.25,81,102.0
3227,A5,251.75,0.25,12,102.0
3228,F#2,251.75,0.25,84,102.0
3229,E5,251.842,1117/1000,99,102.0
3230,A1,252.0,3.75,107,102.0
3231,A5,252.0,0.25,46,102.0
3232,C2,252.0,0.5,117,102.0
3233,F#2,252.0,0.25,114,102.0
3234,C#4,252.033,2467/1000,60,102.0
3235,A3,252.042,677/250,74,102.0
3236,E3,252.042,677/250,74,102.0
3237,A5,252.25,0.25,1,102.0
3238,F#2,252.25,0.25,81,102.0
3239,A5,252.5,0.25,18,102.0
3240,F#2,252.5,0.25,89,102.0
3241,C2,252.75,0.25,77,102.0
3242,F#2,252.75,0.25,77,102.0
3243,E-5,252.908,1033/1000,109,102.0
3244,A5,253.0,0.25,25,102.0
3245,E2,253.0,0.5,117,102.0
3246,G#2,253.0,0.25,119,102.0
3247,F#2,253.25,0.25,58,102.0
3248,A2,253.5,1.0,76,102.0
3249,A5,253.5,0.25,15,102.0
3250,C2,253.5,0.25,112,102.0
3251,F#2,253.5,0.25,112,102.0
3252,A5,253.75,0.25,27,102.0
3253,F#2,253.75,0.25,86,102.0
3254,C#5,253.908,1.0,89,102.0
3255,A5,254.0,0.25,13,102.0
3256,C2,254.0,0.25,97,102.0
3257,F#2,254.0,0.25,97,102.0
3258,E2,254.25,0.25,104,102.0
3259,A2,254.5,0.75,67,102.0
3260,A5,254.5,0.25,1,102.0
3261,F#2,254.5,0.25,100,102.0
3262,A5,254.75,0.25,8,102.0
3263,C2,254.75,0.25,94,102.0
3264,F#2,254.75,0.25,94,102.0
3265,B4,254.908,933/1000,66,102.0
3266,A5,255.0,0.25,50,102.0
3267,E2,255.0,0.25,109,102.0
3268,G#2,255.0,0.25,109,102.0
3269,F#2,255.25,0.25,92,102.0
3270,A2,255.5,0.25,90,102.0
3271,A5,255.5,0.25,1,102.0
3272,E2,255.5,0.25,99,102.0
3273,E2,255.75,0.25,67,102.0
3274,A5,255.75,0.25,7,102.0
3275,E2,255.75,0.25,78,102.0
3276,B4,255.842,83/1000,66,102.0
3277,C#5,255.867,149/40,96,102.0
3278,E1,256.0,0.25,80,102.0
3279,A5,256.0,0.25,46,102.0
3280,C2,256.0,0.5,104,102.0
3281,G#2,256.0,0.25,119,102.0
3282,E-4,256.0,3/40,80,102.0
3283,G#3,256.0,3/40,80,102.0
3284,F#4,256.0,3/40,80,102.0
3285,B3,256.0,3/40,80,102.0
3286,G#2,256.25,0.25,100,102.0
3287,E1,256.5,0.25,69,102.0
3288,A5,256.5,0.25,1,102.0
3289,F#2,256.5,0.25,92,102.0
3290,E2,256.75,0.5,104,102.0
3291,A5,256.75,0.25,2,102.0
3292,C2,256.75,0.25,90,102.0
3293,F#2,256.75,0.25,90,102.0
3294,E-4,256.775,3/40,77,102.0
3295,G#3,256.775,3/40,77,102.0
3296,F#4,256.775,3/40,77,102.0
3297,B3,256.775,3/40,77,102.0
3298,A5,257.0,0.25,37,102.0
3299,E2,257.0,0.25,113,102.0
3300,G#2,257.0,0.25,113,102.0
3301,B1,257.25,0.25,46,102.0
3302,F#2,257.25,0.25,96,102.0
3303,B3,257.483,1221/500,80,102.0
3304,C#4,257.483,1221/500,80,102.0
3305,F#4,257.483,1221/500,80,102.0
3306,G3,257.492,2333/1000,82,102.0
3307,E-1,257.5,1.0,100,102.0
3308,A5,257.5,0.25,1,102.0
3309,C2,257.5,0.5,110,102.0
3310,F#2,257.5,0.25,104,102.0
3311,A5,257.75,0.25,1,102.0
3312,F#2,257.75,0.25,100,102.0
3313,A5,258.0,0.25,34,102.0
3314,F#2,258.0,0.25,119,102.0
3315,F#2,258.25,0.25,96,102.0
3316,E-2,258.5,0.25,100,102.0
3317,A5,258.5,0.25,1,102.0
3318,C2,258.5,0.5,110,102.0
3319,F#2,258.5,0.25,96,102.0
3320,B-1,258.75,0.25,92,102.0
3321,A5,258.75,0.25,1,102.0
3322,F#2,258.75,0.25,92,102.0
3323,F#1,259.0,0.25,79,102.0
3324,A5,259.0,0.25,37,102.0
3325,E2,259.0,0.25,112,102.0
3326,G#2,259.0,0.25,112,102.0
3327,F#2,259.25,0.25,92,102.0
3328,G1,259.5,0.5,94,102.0
3329,A5,259.5,0.25,1,102.0
3330,C2,259.5,0.25,100,102.0
3331,F#2,259.5,0.25,100,102.0
3332,A5,259.75,0.25,4,102.0
3333,F#2,259.75,0.25,100,102.0
3334,C#6,259.842,31/40,96,102.0
3335,C#5,259.842,31/40,96,102.0
3336,B3,259.967,33/1000,76,102.0
3337,F#3,259.967,33/1000,76,102.0
3338,E-4,259.983,17/1000,96,102.0
3339,E-4,260.0,1867/1000,96,102.0
3340,G#1,260.0,0.75,109,102.0
3341,A5,260.0,0.25,30,102.0
3342,C2,260.0,0.5,107,102.0
3343,F#2,260.0,0.25,124,102.0
3344,B3,260.0,1733/1000,76,102.0
3345,F#3,260.0,1733/1000,76,102.0
3346,F#2,260.25,0.25,77,102.0
3347,A5,260.5,0.25,1,102.0
3348,F#2,260.5,0.25,104,102.0
3349,E-5,260.6,79/500,86,102.0
3350,E-6,260.6,79/500,86,102.0
3351,A5,260.75,0.25,1,102.0
3352,C2,260.75,0.25,92,102.0
3353,F#2,260.75,0.25,92,102.0
3354,G#1,261.0,0.75,96,102.0
3355,A5,261.0,0.25,46,102.0
3356,E2,261.0,0.25,112,102.0
3357,G#2,261.0,0.25,112,102.0
3358,F#2,261.25,0.25,109,102.0
3359,A5,261.5,0.25,1,102.0
3360,C2,261.5,0.5,79,102.0
3361,F#2,261.5,0.25,109,102.0
3362,B-1,261.75,0.25,57,102.0
3363,A5,261.75,0.25,1,102.0
3364,F#2,261.75,0.25,100,102.0
3365,E-4,261.95,779/500,74,102.0
3366,F3,261.95,779/500,74,102.0
3367,B3,261.95,779/500,74,102.0
3368,G#3,261.95,779/500,74,102.0
3369,C#2,262.0,0.5,104,102.0
3370,A5,262.0,0.25,37,102.0
3371,F#2,262.0,0.25,119,102.0
3372,F#2,262.25,0.25,75,102.0
3373,A5,262.5,0.25,1,102.0
3374,C2,262.5,0.5,97,102.0
3375,F#2,262.5,0.25,114,102.0
3376,C#2,262.75,0.25,75,102.0
3377,A5,262.75,0.25,1,102.0
3378,F#2,262.75,0.25,104,102.0
3379,E-2,263.0,0.25,100,102.0
3380,A5,263.0,0.25,43,102.0
3381,E2,263.0,0.25,109,102.0
3382,G#2,263.0,0.25,109,102.0
3383,C2,263.25,0.5,92,102.0
3384,F#2,263.25,0.25,96,102.0
3385,E-2,263.5,0.25,96,102.0
3386,A5,263.5,0.25,1,102.0
3387,F#2,263.5,0.25,114,102.0
3388,B-1,263.75,0.25,79,102.0
3389,A5,263.75,0.25,1,102.0
3390,F#2,263.75,0.25,100,102.0
3391,E1,264.0,0.25,79,102.0
3392,A5,264.0,0.25,34,102.0
3393,C2,264.0,0.5,107,102.0
3394,F#2,264.0,0.25,114,102.0
3395,F#4,264.017,117/1000,63,102.0
3396,E-4,264.017,117/1000,63,102.0
3397,G#3,264.017,117/1000,63,102.0
3398,B3,264.017,117/1000,63,102.0
3399,F#2,264.25,0.25,92,102.0
3400,E1,264.5,0.25,62,102.0
3401,A5,264.5,0.25,1,102.0
3402,F#2,264.5,0.25,119,102.0
3403,E-4,264.733,83/1000,74,102.0
3404,B3,264.733,83/1000,74,102.0
3405,G#3,264.733,83/1000,74,102.0
3406,F#4,264.733,83/1000,74,102.0
3407,E2,264.75,0.5,94,102.0
3408,A5,264.75,0.25,1,102.0
3409,C2,264.75,0.25,83,102.0
3410,F#2,264.75,0.25,83,102.0
3411,A5,265.0,0.25,37,102.0
3412,E2,265.0,0.25,100,102.0
3413,G#2,265.0,0.25,100,102.0
3414,B1,265.25,0.25,54,102.0
3415,F#2,265.25,0.25,100,102.0
3416,C#4,265.475,2317/1000,58,102.0
3417,B3,265.475,2317/1000,58,102.0
3418,G3,265.475,2317/1000,58,102.0
3419,F#4,265.483,1221/500,62,102.0
3420,E-1,265.5,1.0,96,102.0
3421,A5,265.5,0.25,1,102.0
3422,C2,265.5,0.5,85,102.0
3423,F#2,265.5,0.25,114,102.0
3424,A5,265.75,0.25,1,102.0
3425,F#2,265.75,0.25,100,102.0
3426,A5,266.0,0.25,30,102.0
3427,F#2,266.0,0.25,109,102.0
3428,F#2,266.25,0.25,100,102.0
3429,E-2,266.5,0.25,109,102.0
3430,A5,266.5,0.25,1,102.0
3431,C2,266.5,0.5,97,102.0
3432,F#2,266.5,0.25,114,102.0
3433,B-1,266.75,0.25,100,102.0
3434,A5,266.75,0.25,2,102.0
3435,F#2,266.75,0.25,84,102.0
3436,F#1,267.0,0.25,89,102.0
3437,A5,267.0,0.25,34,102.0
3438,E2,267.0,0.5,113,102.0
3439,G#2,267.0,0.25,114,102.0
3440,F#2,267.25,0.25,92,102.0
3441,G1,267.5,0.5,76,102.0
3442,A5,267.5,0.25,1,102.0
3443,C2,267.5,0.25,90,102.0
3444,F#2,267.5,0.25,90,102.0
3445,A5,267.75,0.25,1,102.0
3446,F#2,267.75,0.25,96,102.0
3447,C#5,267.858,371/500,98,102.0
3448,C#6,267.858,371/500,98,102.0
3449,B3,267.967,33/1000,68,102.0
3450,E-4,267.967,33/1000,68,102.0
3451,F#3,267.983,17/1000,58,102.0
3452,F#3,268.0,1833/1000,58,102.0
3453,G#1,268.0,0.75,114,102.0
3454,A5,268.0,0.25,30,102.0
3455,C2,268.0,0.5,94,102.0
3456,F#2,268.0,0.25,119,102.0
3457,B3,268.0,929/500,68,102.0
3458,E-4,268.0,929/500,68,102.0
3459,F#2,268.25,0.25,92,102.0
3460,A5,268.5,0.25,1,102.0
3461,F#2,268.5,0.25,114,102.0
3462,E-6,268.575,0.25,79,102.0
3463,E-5,268.608,333/1000,104,102.0
3464,A5,268.75,0.25,1,102.0
3465,C2,268.75,0.25,92,102.0
3466,F#2,268.75,0.25,92,102.0
3467,G#1,269.0,0.75,104,102.0
3468,A5,269.0,0.25,23,102.0
3469,E2,269.0,0.5,101,102.0
3470,G#2,269.0,0.25,114,102.0
3471,F#2,269.25,0.25,92,102.0
3472,F#6,269.292,51/20,86,102.0
3473,F#5,269.292,51/20,86,102.0
3474,A5,269.5,0.25,1,102.0
3475,C2,269.5,0.25,102,102.0
3476,F#2,269.5,0.25,102,102.0
3477,F#5,269.7,4.0,54,102.0
3478,F#4,269.7,4.0,54,102.0
3479,A1,269.75,0.25,58,102.0
3480,A5,269.75,0.25,1,102.0
3481,F#2,269.75,0.25,96,102.0
3482,B1,270.0,0.5,101,102.0
3483,A5,270.0,0.25,25,102.0
3484,C2,270.0,0.75,97,102.0
3485,F#2,270.0,0.25,119,102.0
3486,C#4,270.0,33/20,70,102.0
3487,A3,270.0,33/20,70,102.0
3488,B3,270.017,1.75,64,102.0
3489,E4,270.025,377/250,79,102.0
3490,F#2,270.25,0.25,86,102.0
3491,A5,270.5,0.25,1,102.0
3492,F#2,270.5,0.25,119,102.0
3493,B1,270.75,0.25,66,102.0
3494,A5,270.75,0.25,1,102.0
3495,C2,270.75,0.25,89,102.0
3496,F#2,270.75,0.25,89,102.0
3497,E-1,271.0,0.25,86,102.0
3498,A5,271.0,0.25,32,102.0
3499,E2,271.0,0.25,106,102.0
3500,G#2,271.0,0.25,106,102.0
3501,F#2,271.25,0.25,100,102.0
3502,E-1,271.5,0.25,68,102.0
3503,A5,271.5,0.25,1,102.0
3504,E2,271.5,0.25,92,102.0
3505,E-1,271.75,0.25,69,102.0
3506,A5,271.75,0.25,1,102.0
3507,E2,271.75,0.25,86,102.0
3508,F#6,271.842,1817/1000,86,102.0
3509,F#5,271.842,1817/1000,86,102.0
3510,E1,272.0,0.25,71,102.0
3511,A5,272.0,0.25,23,102.0
3512,C2,272.0,0.5,110,102.0
3513,F#2,272.0,0.25,119,102.0
3514,E-4,272.017,83/1000,88,102.0
3515,B3,272.017,83/1000,88,102.0
3516,G#3,272.017,83/1000,88,102.0
3517,F#4,272.017,83/1000,88,102.0
3518,F#2,272.25,0.25,84,102.0
3519,E1,272.5,0.25,71,102.0
3520,A5,272.5,0.25,1,102.0
3521,F#2,272.5,0.25,114,102.0
3522,E-4,272.733,3/40,89,102.0
3523,F#4,272.733,3/40,89,102.0
3524,G#3,272.733,3/40,89,102.0
3525,B3,272.733,3/40,89,102.0
3526,E2,272.75,0.5,97,102.0
3527,A5,272.75,0.25,3,102.0
3528,C2,272.75,0.25,86,102.0
3529,F#2,272.75,0.25,86,102.0
3530,A5,273.0,0.25,32,102.0
3531,E2,273.0,0.25,110,102.0
3532,G#2,273.0,0.25,110,102.0
3533,B1,273.25,0.25,64,102.0
3534,F#2,273.25,0.25,86,102.0
3535,E-1,273.5,1.0,92,102.0
3536,A5,273.5,0.25,1,102.0
3537,C2,273.5,0.5,104,102.0
3538,F#2,273.5,0.25,114,102.0
3539,B3,273.5,1129/500,80,102.0
3540,C#4,273.5,1129/500,80,102.0
3541,F#4,273.5,1129/500,80,102.0
3542,G3,273.5,1129/500,80,102.0
3543,A5,273.75,0.25,4,102.0
3544,F#2,273.75,0.25,89,102.0
3545,A5,274.0,0.25,27,102.0
3546,F#2,274.0,0.25,114,102.0
3547,F#2,274.25,0.25,86,102.0
3548,E-2,274.5,0.25,92,102.0
3549,A5,274.5,0.25,1,102.0
3550,C2,274.5,0.5,99,102.0
3551,F#2,274.5,0.25,119,102.0
3552,B-1,274.75,0.25,89,102.0
3553,A5,274.75,0.25,1,102.0
3554,F#2,274.75,0.25,92,102.0
3555,F#1,275.0,0.25,81,102.0
3556,A5,275.0,0.25,30,102.0
3557,E2,275.0,0.5,107,102.0
3558,G#2,275.0,0.25,119,102.0
3559,F#2,275.25,0.25,96,102.0
3560,G1,275.5,0.5,86,102.0
3561,A5,275.5,0.25,1,102.0
3562,C2,275.5,0.25,104,102.0
3563,F#2,275.5,0.25,104,102.0
3564,A5,275.75,0.25,1,102.0
3565,F#2,275.75,0.25,73,102.0
3566,C#6,275.842,371/500,106,102.0
3567,C#5,275.842,371/500,106,102.0
3568,B3,275.95,1/20,68,102.0
3569,E-4,275.95,1/20,68,102.0
3570,F#3,275.95,1/20,68,102.0
3571,G#1,276.0,0.5,104,102.0
3572,A5,276.0,0.25,37,102.0
3573,C2,276.0,0.5,107,102.0
3574,F#2,276.0,0.25,124,102.0
3575,B3,276.0,1/20,68,102.0
3576,E-4,276.0,1/20,68,102.0
3577,F#3,276.0,1/20,68,102.0
3578,F#2,276.25,0.25,84,102.0
3579,A5,276.5,0.25,1,102.0
3580,F#2,276.5,0.25,114,102.0
3581,E-6,276.642,24/125,98,102.0
3582,E-5,276.642,24/125,98,102.0
3583,G#1,276.75,0.5,104,102.0
3584,A5,276.75,0.25,1,102.0
3585,E-4,276.75,23/250,78,102.0
3586,F#3,276.75,23/250,78,102.0
3587,B3,276.75,23/250,78,102.0
3588,C2,276.75,0.25,93,102.0
3589,F#2,276.75,0.25,93,102.0
3590,A5,277.0,0.25,34,102.0
3591,E2,277.0,0.25,112,102.0
3592,G#2,277.0,0.25,112,102.0
3593,E-2,277.25,0.25,81,102.0
3594,F#2,277.25,0.25,96,102.0
3595,C#6,277.333,2383/1000,104,102.0
3596,C#5,277.333,2383/1000,104,102.0
3597,B3,277.483,1179/500,70,102.0
3598,G#3,277.483,1179/500,70,102.0
3599,F3,277.483,1179/500,70,102.0
3600,E-4,277.5,23/10,62,102.0
3601,C#2,277.5,0.75,96,102.0
3602,A5,277.5,0.25,1,102.0
3603,C2,277.5,0.5,94,102.0
3604,F#2,277.5,0.25,119,102.0
3605,A5,277.75,0.25,8,102.0
3606,F#2,277.75,0.25,66,102.0
3607,A5,278.0,0.25,40,102.0
3608,F#2,278.0,0.25,109,102.0
3609,F#2,278.25,0.25,89,102.0
3610,C#2,278.5,0.5,100,102.0
3611,A5,278.5,0.25,1,102.0
3612,C2,278.5,0.5,101,102.0
3613,F#2,278.5,0.25,119,102.0
3614,A5,278.75,0.25,11,102.0
3615,F#2,278.75,0.25,92,102.0
3616,A5,279.0,0.25,40,102.0
3617,E2,279.0,0.25,106,102.0
3618,G#2,279.0,0.25,106,102.0
3619,C#2,279.25,0.25,89,102.0
3620,C2,279.25,0.5,104,102.0
3621,F#2,279.25,0.25,96,102.0
3622,E-2,279.5,0.25,100,102.0
3623,A5,279.5,0.25,1,102.0
3624,F#2,279.5,0.25,114,102.0
3625,A5,279.75,0.25,12,102.0
3626,F#2,279.75,0.25,75,102.0
3627,B4,279.775,67/1000,70,102.0
3628,B5,279.775,67/1000,70,102.0
3629,B4,279.842,371/500,70,102.0
3630,B5,279.842,371/500,70,102.0
3631,E1,280.0,1.75,85,102.0
3632,A5,280.0,0.25,46,102.0
3633,C2,280.0,0.5,104,102.0
3634,F#2,280.0,0.25,119,102.0
3635,G3,280.008,1767/1000,85,102.0
3636,B3,280.008,1767/1000,85,102.0
3637,D4,280.008,1767/1000,85,102.0
3638,A3,280.025,1767/1000,86,102.0
3639,D4,280.025,1767/1000,86,102.0
3640,A5,280.25,0.25,1,102.0
3641,F#2,280.25,0.25,64,102.0
3642,A5,280.5,0.25,18,102.0
3643,F#2,280.5,0.25,104,102.0
3644,E-5,280.583,667/1000,81,102.0
3645,E-6,280.583,667/1000,81,102.0
3646,C2,280.75,0.25,90,102.0
3647,F#2,280.75,0.25,90,102.0
3648,E2,281.0,0.25,85,102.0
3649,A5,281.0,0.25,25,102.0
3650,E2,281.0,0.5,94,102.0
3651,G#2,281.0,0.25,119,102.0
3652,F#2,281.25,0.25,96,102.0
3653,C#5,281.267,1021/500,80,102.0
3654,C#6,281.267,1021/500,80,102.0
3655,E2,281.5,0.25,82,102.0
3656,A5,281.5,0.25,15,102.0
3657,C2,281.5,0.25,100,102.0
3658,F#2,281.5,0.25,100,102.0
3659,B1,281.75,0.25,64,102.0
3660,A5,281.75,0.25,27,102.0
3661,F#2,281.75,0.25,86,102.0
3662,C#4,281.975,1767/1000,86,102.0
3663,E4,281.975,1767/1000,86,102.0
3664,A3,281.975,1767/1000,86,102.0
3665,F#1,282.0,0.75,100,102.0
3666,A5,282.0,0.25,13,102.0
3667,C2,282.0,0.5,80,102.0
3668,F#2,282.0,0.25,114,102.0
3669,F#2,282.25,0.25,89,102.0
3670,A5,282.5,0.25,1,102.0
3671,F#2,282.5,0.25,114,102.0
3672,A5,282.75,0.25,8,102.0
3673,C2,282.75,0.25,92,102.0
3674,F#2,282.75,0.25,92,102.0
3675,F#1,283.0,1.0,100,102.0
3676,A5,283.0,0.25,50,102.0
3677,E2,283.0,0.25,107,102.0
3678,F#2,283.25,0.25,92,102.0
3679,B5,283.308,7/20,66,102.0
3680,B4,283.308,7/20,66,102.0
3681,A5,283.5,0.25,1,102.0
3682,E2,283.5,0.25,86,102.0
3683,C#6,283.575,267/1000,88,102.0
3684,C#5,283.575,267/1000,88,102.0
3685,A5,283.75,0.25,7,102.0
3686,E2,283.75,0.25,94,102.0
3687,C#6,283.842,1/125,88,102.0
3688,C#5,283.842,1/125,88,102.0
3689,D5,283.85,829/500,90,102.0
3690,D6,283.85,1767/1000,94,102.0
3691,E1,284.0,0.25,88,102.0
3692,A5,284.0,0.25,46,102.0
3693,C2,284.0,0.5,110,102.0
3694,F#2,284.0,0.25,119,102.0
3695,F#4,284.0,27/250,86,102.0
3696,B3,284.0,27/250,86,102.0
3697,G#3,284.0,27/250,86,102.0
3698,E-4,284.0,27/250,92,102.0
3699,G#3,284.0,27/250,92,102.0
3700,A5,284.25,0.25,1,102.0
3701,F#2,284.25,0.25,86,102.0
3702,E1,284.5,0.25,65,102.0
3703,A5,284.5,0.25,18,102.0
3704,F#2,284.5,0.25,109,102.0
3705,E2,284.75,0.5,97,102.0
3706,C2,284.75,0.25,94,102.0
3707,F#2,284.75,0.25,94,102.0
3708,E-4,284.767,1/10,87,102.0
3709,F#4,284.767,1/10,87,102.0
3710,B3,284.767,1/10,87,102.0
3711,G#3,284.767,1/10,87,102.0
3712,A5,285.0,0.25,25,102.0
3713,E2,285.0,0.25,113,102.0
3714,G#2,285.0,0.25,113,102.0
3715,B1,285.25,0.25,62,102.0
3716,F#2,285.25,0.25,92,102.0
3717,C#4,285.483,2417/1000,78,102.0
3718,B3,285.483,2417/1000,78,102.0
3719,C#5,285.492,13/40,54,102.0
3720,F#4,285.492,93/40,76,102.0
3721,G3,285.492,93/40,76,102.0
3722,E-1,285.5,1.0,81,102.0
3723,A5,285.5,0.25,15,102.0
3724,C2,285.5,0.75,101,102.0
3725,F#2,285.5,0.25,119,102.0
3726,B5,285.617,167/1000,41,102.0
3727,C#6,285.633,129/500,28,102.0
3728,A5,285.75,0.25,27,102.0
3729,F#2,285.75,0.25,89,102.0
3730,F#5,285.767,4.0,54,102.0
3731,F#4,285.767,4.0,54,102.0
3732,E5,285.817,979/500,88,102.0
3733,E6,285.817,979/500,88,102.0
3734,A5,286.0,0.25,13,102.0
3735,F#2,286.0,0.25,114,102.0
3736,F#2,286.25,0.25,86,102.0
3737,E-2,286.5,0.25,89,102.0
3738,A5,286.5,0.25,1,102.0
3739,C2,286.5,0.5,80,102.0
3740,F#2,286.5,0.25,114,102.0
3741,B-1,286.75,0.25,79,102.0
3742,A5,286.75,0.25,8,102.0
3743,F#2,286.75,0.25,89,102.0
3744,F#1,287.0,0.25,86,102.0
3745,A5,287.0,0.25,50,102.0
3746,E2,287.0,0.25,113,102.0
3747,G#2,287.0,0.25,113,102.0
3748,F#2,287.25,0.25,89,102.0
3749,G1,287.5,0.5,88,102.0
3750,A5,287.5,0.25,1,102.0
3751,C2,287.5,0.25,92,102.0
3752,F#2,287.5,0.25,92,102.0
3753,A5,287.75,0.25,7,102.0
3754,F#2,287.75,0.25,81,102.0
3755,C#6,287.817,1/40,99,102.0
3756,C#5,287.817,1/40,99,102.0
3757,C#6,287.842,7/10,99,102.0
3758,C#5,287.842,7/10,99,102.0
3759,E-4,288.0,1829/500,66,102.0
3760,G#1,288.0,0.75,104,102.0
3761,A5,288.0,0.25,46,102.0
3762,C2,288.0,0.5,86,102.0
3763,F#2,288.0,0.25,124,102.0
3764,B3,288.0,9/5,91,102.0
3765,F#3,288.0,9/5,91,102.0
3766,F#2,288.25,0.25,92,102.0
3767,A5,288.5,0.25,1,102.0
3768,F#2,288.5,0.25,109,102.0
3769,E-6,288.55,267/1000,102,102.0
3770,E-5,288.55,267/1000,102,102.0
3771,A5,288.75,0.25,2,102.0
3772,C2,288.75,0.25,93,102.0
3773,F#2,288.75,0.25,93,102.0
3774,G#1,289.0,0.75,96,102.0
3775,A5,289.0,0.25,37,102.0
3776,E2,289.0,0.25,102,102.0
3777,G#2,289.0,0.25,102,102.0
3778,F#2,289.25,0.25,81,102.0
3779,A5,289.5,0.25,1,102.0
3780,C2,289.5,0.25,104,102.0
3781,F#2,289.5,0.25,104,102.0
3782,B-1,289.75,0.25,79,102.0
3783,A5,289.75,0.25,1,102.0
3784,F#2,289.75,0.25,63,102.0
3785,B-3,289.958,83/1000,73,102.0
3786,C#2,290.0,0.5,96,102.0
3787,A5,290.0,0.25,34,102.0
3788,C2,290.0,0.5,86,102.0
3789,F#2,290.0,0.25,114,102.0
3790,F3,290.0,201/125,87,102.0
3791,G#3,290.0,201/125,87,102.0
3792,B3,290.0,201/125,87,102.0
3793,F#2,290.25,0.25,79,102.0
3794,A5,290.5,0.25,1,102.0
3795,F#2,290.5,0.25,114,102.0
3796,C#2,290.75,0.25,63,102.0
3797,A5,290.75,0.25,1,102.0
3798,C2,290.75,0.25,84,102.0
3799,F#2,290.75,0.25,84,102.0
3800,E-2,291.0,0.25,96,102.0
3801,A5,291.0,0.25,37,102.0
3802,E2,291.0,0.25,106,102.0
3803,G#2,291.0,0.25,106,102.0
3804,F#2,291.25,0.25,89,102.0
3805,E-2,291.5,0.25,89,102.0
3806,A5,291.5,0.25,1,102.0
3807,E2,291.5,0.25,106,102.0
3808,F#2,291.5,0.25,106,102.0
3809,B-1,291.75,0.25,30,102.0
3810,A5,291.75,0.25,4,102.0
3811,E2,291.75,0.25,84,102.0
3812,F#2,291.75,0.25,84,102.0
3813,E1,292.0,0.25,85,102.0
3814,A5,292.0,0.25,30,102.0
3815,C2,292.0,0.5,92,102.0
3816,F#2,292.0,0.25,124,102.0
3817,E-4,292.0,117/1000,88,102.0
3818,B3,292.0,117/1000,88,102.0
3819,G#3,292.0,117/1000,88,102.0
3820,F#4,292.008,117/1000,81,102.0
3821,B3,292.008,117/1000,81,102.0
3822,G#3,292.008,117/1000,81,102.0
3823,F#2,292.25,0.25,89,102.0
3824,E1,292.5,0.25,62,102.0
3825,A5,292.5,0.25,1,102.0
3826,F#2,292.5,0.25,114,102.0
3827,E2,292.75,0.5,97,102.0
3828,A5,292.75,0.25,1,102.0
3829,C2,292.75,0.25,92,102.0
3830,F#2,292.75,0.25,92,102.0
3831,F#4,292.758,1/10,70,102.0
3832,G#3,292.758,1/10,70,102.0
3833,E-4,292.758,3/40,89,102.0
3834,G#3,292.758,3/40,89,102.0
3835,B3,292.758,3/40,89,102.0
3836,A5,293.0,0.25,46,102.0
3837,E2,293.0,0.25,110,102.0
3838,G#2,293.0,0.25,110,102.0
3839,B1,293.25,0.25,57,102.0
3840,F#2,293.25,0.25,89,102.0
3841,E-1,293.5,1.0,96,102.0
3842,A5,293.5,0.25,1,102.0
3843,C2,293.5,0.75,79,102.0
3844,F#2,293.5,0.25,114,102.0
3845,C#4,293.508,299/125,87,102.0
3846,B3,293.508,299/125,87,102.0
3847,F#4,293.508,299/125,87,102.0
3848,G3,293.508,299/125,78,102.0
3849,F#4,293.508,299/125,78,102.0
3850,A5,293.75,0.25,1,102.0
3851,F#2,293.75,0.25,96,102.0
3852,A5,294.0,0.25,37,102.0
3853,F#2,294.0,0.25,119,102.0
3854,F#2,294.25,0.25,79,102.0
3855,E-2,294.5,0.25,100,102.0
3856,A5,294.5,0.25,1,102.0
3857,C2,294.5,0.5,97,102.0
3858,F#2,294.5,0.25,109,102.0
3859,B-1,294.75,0.25,21,102.0
3860,A5,294.75,0.25,1,102.0
3861,F#2,294.75,0.25,84,102.0
3862,F#1,295.0,0.25,63,102.0
3863,A5,295.0,0.25,43,102.0
3864,E2,295.0,0.5,104,102.0
3865,G#2,295.0,0.25,119,102.0
3866,F#2,295.25,0.25,77,102.0
3867,G1,295.5,0.5,88,102.0
3868,A5,295.5,0.25,1,102.0
3869,C2,295.5,0.25,75,102.0
3870,F#2,295.5,0.25,75,102.0
3871,A5,295.75,0.25,1,102.0
3872,F#2,295.75,0.25,92,102.0
3873,C#5,295.833,1/125,109,102.0
3874,C#6,295.833,1/125,109,102.0
3875,C#5,295.842,0.75,109,102.0
3876,C#6,295.842,0.75,109,102.0
3877,G#1,296.0,0.75,109,102.0
3878,A5,296.0,0.25,34,102.0
3879,C2,296.0,0.5,97,102.0
3880,F#2,296.0,0.25,124,102.0
3881,B3,296.017,37/20,64,102.0
3882,E-4,296.017,37/20,64,102.0
3883,F#3,296.033,1767/1000,100,102.0
3884,F#2,296.25,0.25,92,102.0
3885,A5,296.5,0.25,1,102.0
3886,F#2,296.5,0.25,92,102.0
3887,E-6,296.592,3/20,109,102.0
3888,E-5,296.592,3/20,109,102.0
3889,G#1,296.75,1.0,104,102.0
3890,A5,296.75,0.25,1,102.0
3891,C2,296.75,0.25,92,102.0
3892,F#2,296.75,0.25,92,102.0
3893,A5,297.0,0.25,37,102.0
3894,E2,297.0,0.25,110,102.0
3895,G#2,297.0,0.25,110,102.0
3896,F#2,297.25,0.25,96,102.0
3897,F#6,297.317,2283/1000,98,102.0
3898,F#5,297.317,2283/1000,98,102.0
3899,A5,297.5,0.25,1,102.0
3900,C2,297.5,0.25,108,102.0
3901,F#2,297.5,0.25,108,102.0
3902,B-1,297.75,0.25,77,102.0
3903,A5,297.75,0.25,1,102.0
3904,F#2,297.75,0.25,89,102.0
3905,F#5,297.833,4.0,54,102.0
3906,F#4,297.833,4.0,54,102.0
3907,B1,298.0,0.5,86,102.0
3908,A5,298.0,0.25,30,102.0
3909,C2,298.0,0.5,104,102.0
3910,F#2,298.0,0.25,119,102.0
3911,C#4,298.008,879/500,71,102.0
3912,B3,298.008,879/500,71,102.0
3913,A3,298.008,879/500,71,102.0
3914,E4,298.017,879/500,82,102.0
3915,A3,298.017,879/500,82,102.0
3916,F#2,298.25,0.25,75,102.0
3917,A5,298.5,0.25,1,102.0
3918,F#2,298.5,0.25,114,102.0
3919,B1,298.75,0.25,71,102.0
3920,A5,298.75,0.25,2,102.0
3921,C2,298.75,0.25,90,102.0
3922,F#2,298.75,0.25,90,102.0
3923,E-1,299.0,0.25,109,102.0
3924,A5,299.0,0.25,34,102.0
3925,E2,299.0,0.5,101,102.0
3926,G#2,299.0,0.25,126,102.0
3927,F#2,299.25,0.25,89,102.0
3928,E-1,299.5,0.25,69,102.0
3929,A5,299.5,0.25,1,102.0
3930,C2,299.5,0.25,106,102.0
3931,F#2,299.5,0.25,106,102.0
3932,E-1,299.75,0.25,54,102.0
3933,A5,299.75,0.25,1,102.0
3934,F#2,299.75,0.25,92,102.0
3935,E1,300.0,0.25,76,102.0
3936,A5,300.0,0.25,30,102.0
3937,C2,300.0,0.5,101,102.0
3938,F#2,300.0,0.25,124,102.0
3939,B3,300.033,27/250,89,102.0
3940,E-4,300.033,27/250,89,102.0
3941,F#4,300.033,27/250,89,102.0
3942,G#3,300.033,27/250,89,102.0
3943,F#2,300.25,0.25,84,102.0
3944,E1,300.5,0.25,79,102.0
3945,A5,300.5,0.25,1,102.0
3946,F#2,300.5,0.25,109,102.0
3947,E2,300.75,0.5,92,102.0
3948,A5,300.75,0.25,1,102.0
3949,C2,300.75,0.25,88,102.0
3950,F#2,300.75,0.25,88,102.0
3951,G#3,300.758,83/1000,84,102.0
3952,E-4,300.758,83/1000,84,102.0
3953,F#4,300.758,83/1000,84,102.0
3954,B3,300.758,83/1000,84,102.0
3955,A5,301.0,0.25,23,102.0
3956,E2,301.0,0.25,114,102.0
3957,G#2,301.0,0.25,114,102.0
3958,B1,301.25,0.25,66,102.0
3959,F#2,301.25,0.25,84,102.0
3960,C#4,301.475,577/250,92,102.0
3961,B3,301.475,577/250,92,102.0
3962,F#4,301.492,2183/1000,76,102.0
3963,G3,301.492,2183/1000,76,102.0
3964,E-1,301.5,1.0,96,102.0
3965,A5,301.5,0.25,1,102.0
3966,C2,301.5,0.75,104,102.0
3967,F#2,301.5,0.25,114,102.0
3968,A5,301.75,0.25,1,102.0
3969,F#2,301.75,0.25,92,102.0
3970,A5,302.0,0.25,25,102.0
3971,F#2,302.0,0.25,119,102.0
3972,F#2,302.25,0.25,89,102.0
3973,E-2,302.5,0.25,100,102.0
3974,A5,302.5,0.25,1,102.0
3975,C2,302.5,0.5,104,102.0
3976,F#2,302.5,0.25,100,102.0
3977,B-1,302.75,0.25,92,102.0
3978,A5,302.75,0.25,1,102.0
3979,F#2,302.75,0.25,89,102.0
3980,F#1,303.0,0.25,89,102.0
3981,A5,303.0,0.25,32,102.0
3982,E2,303.0,0.25,98,102.0
3983,G#2,303.0,0.25,98,102.0
3984,C2,303.25,0.5,99,102.0
3985,F#2,303.25,0.25,75,102.0
3986,G1,303.5,0.25,76,102.0
3987,A5,303.5,0.25,1,102.0
3988,F#2,303.5,0.25,114,102.0
3989,A5,303.75,0.25,1,102.0
3990,F#2,303.75,0.25,96,102.0
3991,C#5,303.817,1/40,104,102.0
3992,C#6,303.817,1/40,104,102.0
3993,C#5,303.842,4/5,104,102.0
3994,C#6,303.842,4/5,104,102.0
3995,B3,303.95,1/20,80,102.0
3996,E-4,303.95,1/20,80,102.0
3997,F#3,303.95,1/20,80,102.0
3998,G#1,304.0,0.5,109,102.0
3999,A5,304.0,0.25,23,102.0
4000,C2,304.0,0.5,101,102.0
4001,F#2,304.0,0.25,124,102.0
4002,B3,304.0,1/10,80,102.0
4003,E-4,304.0,1/10,80,102.0
4004,F#3,304.0,1/10,80,102.0
4005,F#2,304.25,0.25,100,102.0
4006,A5,304.5,0.25,1,102.0
4007,F#2,304.5,0.25,109,102.0
4008,E-6,304.625,7/40,114,102.0
4009,E-5,304.625,7/40,114,102.0
4010,F#3,304.725,67/1000,77,102.0
4011,E-4,304.725,67/1000,77,102.0
4012,B3,304.725,67/1000,77,102.0
4013,G#1,304.75,0.5,100,102.0
4014,A5,304.75,0.25,3,102.0
4015,C2,304.75,0.25,87,102.0
4016,F#2,304.75,0.25,87,102.0
4017,A5,305.0,0.25,32,102.0
4018,E2,305.0,0.5,99,102.0
4019,G#2,305.0,0.25,114,102.0
4020,E-2,305.25,0.25,86,102.0
4021,F#2,305.25,0.25,89,102.0
4022,C#6,305.283,2483/1000,96,102.0
4023,C#5,305.292,2333/1000,109,102.0
4024,B3,305.475,2433/1000,66,102.0
4025,F3,305.475,2433/1000,66,102.0
4026,G#3,305.475,2433/1000,66,102.0
4027,E-4,305.5,2283/1000,63,102.0
4028,C#2,305.5,0.75,100,102.0
4029,A5,305.5,0.25,1,102.0
4030,C2,305.5,0.75,104,102.0
4031,F#2,305.5,0.25,109,102.0
4032,A5,305.75,0.25,4,102.0
4033,F#2,305.75,0.25,84,102.0
4034,F#5,305.9,4.0,54,102.0
4035,F#4,305.9,4.0,54,102.0
4036,A5,306.0,0.25,27,102.0
4037,F#2,306.0,0.25,109,102.0
4038,F#2,306.25,0.25,86,102.0
4039,C#2,306.5,0.5,100,102.0
4040,A5,306.5,0.25,1,102.0
4041,C2,306.5,0.5,101,102.0
4042,F#2,306.5,0.25,109,102.0
4043,A5,306.75,0.25,1,102.0
4044,F#2,306.75,0.25,86,102.0
4045,A5,307.0,0.25,30,102.0
4046,E2,307.0,0.5,99,102.0
4047,G#2,307.0,0.25,114,102.0
4048,C#2,307.25,0.25,69,102.0
4049,F#2,307.25,0.25,92,102.0
4050,E-2,307.5,0.5,89,102.0
4051,A5,307.5,0.25,1,102.0
4052,C2,307.5,0.25,103,102.0
4053,F#2,307.5,0.25,103,102.0
4054,A5,307.75,0.25,1,102.0
4055,F#2,307.75,0.25,89,102.0
4056,B4,307.775,67/1000,82,102.0
4057,B5,307.775,67/1000,82,102.0
4058,B4,307.842,177/250,82,102.0
4059,B5,307.842,177/250,82,102.0
4060,E1,308.0,1.75,90,102.0
4061,A5,308.0,0.25,37,102.0
4062,C2,308.0,0.5,99,102.0
4063,F#2,308.0,0.25,119,102.0
4064,B3,308.042,1667/1000,72,102.0
4065,A3,308.042,1667/1000,72,102.0
4066,G3,308.042,1667/1000,72,102.0
4067,D4,308.042,1667/1000,72,102.0
4068,F#2,308.25,0.25,86,102.0
4069,A5,308.5,0.25,1,102.0
4070,F#2,308.5,0.25,109,102.0
4071,E-5,308.6,379/500,70,102.0
4072,E-6,308.6,379/500,70,102.0
4073,A5,308.75,0.25,1,102.0
4074,C2,308.75,0.25,87,102.0
4075,F#2,308.75,0.25,87,102.0
4076,E2,309.0,0.25,75,102.0
4077,A5,309.0,0.25,34,102.0
4078,E2,309.0,0.5,104,102.0
4079,G#2,309.0,0.25,114,102.0
4080,F#2,309.25,0.25,81,102.0
4081,C#5,309.283,2033/1000,92,102.0
4082,C#6,309.283,2033/1000,92,102.0
4083,E2,309.5,0.25,92,102.0
4084,A5,309.5,0.25,1,102.0
4085,C2,309.5,0.25,98,102.0
4086,F#2,309.5,0.25,98,102.0
4087,B1,309.75,0.25,66,102.0
4088,A5,309.75,0.25,8,102.0
4089,F#2,309.75,0.25,92,102.0
4090,A3,309.933,201/125,80,102.0
4091,C#4,309.933,201/125,80,102.0
4092,B3,309.95,423/250,78,102.0
4093,E4,309.958,373/250,92,102.0
4094,G#4,309.967,117/1000,49,102.0
4095,F#5,309.967,67/1000,54,102.0
4096,F#4,309.967,67/1000,54,102.0
4097,F#1,310.0,0.75,119,102.0
4098,A5,310.0,0.25,40,102.0
4099,C2,310.0,0.5,68,102.0
4100,F#2,310.0,0.25,114,102.0
4101,B5,310.025,1971/500,66,102.0
4102,B4,310.025,1971/500,66,102.0
4103,F#2,310.25,0.25,77,102.0
4104,A5,310.5,0.25,1,102.0
4105,F#2,310.5,0.25,104,102.0
4106,A5,310.75,0.25,11,102.0
4107,C2,310.75,0.25,87,102.0
4108,F#2,310.75,0.25,87,102.0
4109,F#1,311.0,0.75,100,102.0
4110,A5,311.0,0.25,40,102.0
4111,E2,311.0,0.25,104,102.0
4112,G#2,311.0,0.25,104,102.0
4113,F#2,311.25,0.25,96,102.0
4114,B4,311.317,3/10,72,102.0
4115,B5,311.317,3/10,72,102.0
4116,A5,311.5,0.25,1,102.0
4117,E2,311.5,0.25,100,102.0
4118,F#2,311.5,0.25,100,102.0
4119,C#5,311.575,267/1000,92,102.0
4120,C#6,311.575,1/5,96,102.0
4121,A5,311.75,0.25,12,102.0
4122,E2,311.75,0.25,83,102.0
4123,F#2,311.75,0.25,83,102.0
4124,D6,311.833,1/125,94,102.0
4125,D5,311.842,423/250,80,102.0
4126,D6,311.842,879/500,94,102.0
4127,D4,311.933,67/1000,76,102.0
4128,G3,311.933,67/1000,76,102.0
4129,F#4,311.933,67/1000,76,102.0
4130,B3,311.933,67/1000,76,102.0
4131,A3,311.983,17/1000,117,102.0
4132,D2,312.0,0.25,54,102.0
4133,G1,312.0,3.5,107,102.0
4134,A3,312.0,9/20,117,102.0
4135,D4,312.0,11/5,76,102.0
4136,G3,312.0,11/5,76,102.0
4137,F#4,312.0,11/5,76,102.0
4138,B3,312.0,11/5,76,102.0
4139,C#5,313.475,333/1000,52,102.0
4140,B5,313.558,26/125,58,102.0
4141,C#6,313.65,121/500,43,102.0
4142,D5,313.733,27/250,55,102.0
4143,E5,313.833,427/250,86,102.0
4144,E6,313.833,427/250,86,102.0
4145,B5,313.967,17/1000,66,102.0
4146,B4,313.967,17/1000,66,102.0
4147,C#6,313.983,1533/1000,51,102.0
4148,C#5,314.0,57/40,50,102.0
4149,E-5,315.408,627/250,47,102.0
4150,E-3,315.467,23/250,104,102.0
4151,E-6,315.475,301/125,56,102.0
4152,A1,315.5,0.25,101,102.0
4153,E-3,315.6,67/1000,92,102.0
4154,E-3,315.725,117/1000,96,102.0
4155,B1,315.75,0.25,107,102.0
4156,C#3,315.958,21/500,114,102.0
4157,A1,316.0,4.0,120,102.0
4158,C#3,316.0,29/500,114,102.0
4159,A3,316.008,1479/500,84,102.0
4160,C#4,316.008,1479/500,84,102.0
4161,E4,316.008,1479/500,84,102.0
4162,B3,316.008,1479/500,84,102.0
4163,C#5,317.717,0.25,37,102.0
4164,C#6,317.783,183/1000,46,102.0
4165,C#5,317.967,1/40,37,102.0
4166,C#6,317.967,21/500,46,102.0
4167,E5,317.967,1067/1000,68,102.0
4168,E6,317.967,1067/1000,68,102.0
4169,E-6,318.983,1117/1000,78,102.0
4170,E-5,318.983,1117/1000,78,102.0
4171,B-3,319.983,17/1000,63,102.0
4172,F4,319.983,17/1000,63,102.0
4173,C#4,319.992,1/125,59,102.0
4174,C#4,320.0,1129/500,59,102.0
4175,B-1,320.0,0.5,86,102.0
4176,C2,320.0,0.5,104,102.0
4177,G#2,320.0,0.25,119,102.0
4178,B-3,320.0,2333/1000,63,102.0
4179,F4,320.0,2333/1000,63,102.0
4180,C#5,320.017,43/40,75,102.0
4181,C#6,320.017,43/40,75,102.0
4182,F#3,320.05,133/1000,119,102.0
4183,G#2,320.25,0.25,100,102.0
4184,F#3,320.308,23/250,100,102.0
4185,F#3,320.5,67/1000,84,102.0
4186,F#2,320.5,0.25,92,102.0
4187,F#3,320.725,21/500,79,102.0
4188,B-2,320.75,0.5,109,102.0
4189,C2,320.75,0.25,90,102.0
4190,F#2,320.75,0.25,90,102.0
4191,G#5,320.983,71/500,62,102.0
4192,F#6,320.983,71/500,62,102.0
4193,E2,321.0,0.25,113,102.0
4194,G#2,321.0,0.25,113,102.0
4195,C#6,321.008,871/500,62,102.0
4196,F#3,321.008,7/40,114,102.0
4197,B4,321.042,37/40,72,102.0
4198,B5,321.042,37/40,72,102.0
4199,F6,321.075,1733/1000,101,102.0
4200,F2,321.25,0.25,62,102.0
4201,F#3,321.25,133/1000,81,102.0
4202,F#2,321.25,0.25,96,102.0
4203,F#3,321.483,23/250,81,102.0
4204,B-1,321.5,1.25,81,102.0
4205,C2,321.5,0.5,110,102.0
4206,F#2,321.5,0.25,104,102.0
4207,F#3,321.725,133/1000,71,102.0
4208,F#2,321.75,0.25,100,102.0
4209,B4,321.967,27/250,72,102.0
4210,B5,321.967,27/250,72,102.0
4211,F#3,322.0,7/40,124,102.0
4212,F#2,322.0,0.25,119,102.0
4213,C#5,322.042,157/40,68,102.0
4214,C#6,322.042,157/40,68,102.0
4215,F#3,322.25,3/20,84,102.0
4216,F#2,322.25,0.25,96,102.0
4217,B-2,322.5,0.25,100,102.0
4218,C2,322.5,0.5,110,102.0
4219,F#2,322.5,0.25,96,102.0
4220,F#3,322.508,117/1000,79,102.0
4221,G#5,322.742,317/1000,60,102.0
4222,F2,322.75,0.25,68,102.0
4223,F#2,322.75,0.25,92,102.0
4224,F#3,322.758,167/1000,89,102.0
4225,C#2,323.0,0.5,96,102.0
4226,F#3,323.0,7/40,119,102.0
4227,E2,323.0,0.25,112,102.0
4228,G#2,323.0,0.25,112,102.0
4229,B-5,323.008,0.5,85,102.0
4230,E-6,323.008,0.5,85,102.0
4231,F#2,323.25,0.25,92,102.0
4232,F#3,323.258,167/1000,68,102.0
4233,D2,323.5,0.5,76,102.0
4234,C2,323.5,0.25,100,102.0
4235,F#2,323.5,0.25,100,102.0
4236,F#3,323.508,23/250,71,102.0
4237,C#6,323.508,23/250,76,102.0
4238,G#5,323.508,23/250,76,102.0
4239,F#2,323.75,0.25,100,102.0
4240,F#3,323.758,167/1000,73,102.0
4241,G#5,323.967,33/1000,81,102.0
4242,C#6,323.967,33/1000,109,102.0
4243,E-4,323.992,1/125,72,102.0
4244,G#3,323.992,1/125,72,102.0
4245,B-3,323.992,1/125,72,102.0
4246,G#5,324.0,533/1000,81,102.0
4247,C#6,324.0,17/40,109,102.0
4248,E-2,324.0,0.5,89,102.0
4249,C2,324.0,0.5,107,102.0
4250,E-4,324.0,721/500,72,102.0
4251,G#3,324.0,721/500,72,102.0
4252,B-3,324.0,721/500,72,102.0
4253,F#2,324.0,183/1000,119,102.0
4254,F#3,324.0,183/1000,119,102.0
4255,F#2,324.25,167/1000,75,102.0
4256,F#3,324.25,167/1000,75,102.0
4257,E-6,324.433,0.125,100,102.0
4258,F#2,324.5,0.25,104,102.0
4259,F#3,324.508,83/1000,59,102.0
4260,E-2,324.75,0.5,71,102.0
4261,C2,324.75,0.25,92,102.0
4262,F#2,324.75,0.25,92,102.0
4263,F#3,324.775,71/500,86,102.0
4264,E2,325.0,7/40,112,102.0
4265,G#2,325.0,7/40,112,102.0
4266,F#3,325.0,7/40,112,102.0
4267,B-1,325.25,0.25,59,102.0
4268,F#3,325.25,71/500,84,102.0
4269,F#2,325.25,0.25,109,102.0
4270,E-1,325.5,0.75,100,102.0
4271,C2,325.5,0.5,79,102.0
4272,F#2,325.5,0.25,109,102.0
4273,F#3,325.508,1/10,75,102.0
4274,F#3,325.733,0.25,92,102.0
4275,F#2,325.733,0.25,92,102.0
4276,B5,325.967,4.0,58,102.0
4277,B4,325.967,4.0,58,102.0
4278,C#5,325.967,21/500,68,102.0
4279,C#6,325.967,21/500,68,102.0
4280,B-3,325.975,1383/1000,69,102.0
4281,F#3,325.975,629/500,56,102.0
4282,C#4,325.975,629/500,56,102.0
4283,B5,325.975,499/125,60,102.0
4284,B4,325.975,499/125,60,102.0
4285,F#3,326.0,183/1000,124,102.0
4286,F#2,326.0,0.25,119,102.0
4287,F#3,326.25,0.25,74,102.0
4288,F#2,326.25,0.25,74,102.0
4289,F#5,326.283,26/125,71,102.0
4290,B-5,326.458,1/40,33,102.0
4291,F#3,326.492,117/1000,62,102.0
4292,E-1,326.5,0.5,79,102.0
4293,C2,326.5,0.5,97,102.0
4294,F#2,326.5,0.25,114,102.0
4295,G#5,326.525,24/125,104,102.0
4296,F#5,326.75,3/20,86,102.0
4297,F#2,326.75,0.25,104,102.0
4298,F#3,326.783,3/20,84,102.0
4299,F#3,326.975,24/125,119,102.0
4300,B5,326.983,121/500,85,102.0
4301,B-1,327.0,0.25,96,102.0
4302,E2,327.0,0.25,109,102.0
4303,G#2,327.0,0.25,109,102.0
4304,F#5,327.233,24/125,71,102.0
4305,F#3,327.242,183/1000,71,102.0
4306,E-2,327.25,0.5,114,102.0
4307,C2,327.25,0.5,92,102.0
4308,F#2,327.25,0.25,96,102.0
4309,C#6,327.483,121/500,79,102.0
4310,F#3,327.5,133/1000,57,102.0
4311,F#2,327.5,0.25,114,102.0
4312,F#5,327.725,7/40,68,102.0
4313,B-1,327.75,0.25,54,102.0
4314,F#2,327.75,0.25,100,102.0
4315,F#3,327.758,7/40,55,102.0
4316,F#3,327.975,1/40,58,102.0
4317,B3,327.975,1/40,80,102.0
4318,E-4,327.975,1/40,60,102.0
4319,F#3,328.0,71/20,58,102.0
4320,B3,328.0,927/250,80,102.0
4321,E-4,328.0,3417/1000,60,102.0
4322,G#1,328.0,0.5,109,102.0
4323,C2,328.0,0.5,107,102.0
4324,F#2,328.0,9/40,116,102.0
4325,F#3,328.0,9/40,116,102.0
4326,E-6,328.025,27/40,114,102.0
4327,F#2,328.25,79/500,60,102.0
4328,F#3,328.25,79/500,60,102.0
4329,F#2,328.5,0.25,119,102.0
4330,F#3,328.508,79/500,63,102.0
4331,G#1,328.75,0.25,119,102.0
4332,C2,328.75,24/125,79,102.0
4333,F#2,328.75,24/125,79,102.0
4334,F#3,328.75,24/125,79,102.0
4335,C#6,328.767,24/125,109,102.0
4336,E2,329.0,1/5,107,102.0
4337,G#2,329.0,1/5,107,102.0
4338,F#3,329.0,1/5,107,102.0
4339,B5,329.217,0.125,92,102.0
4340,F#1,329.25,0.25,89,102.0
4341,F#2,329.25,183/1000,81,102.0
4342,F#3,329.25,183/1000,81,102.0
4343,C#6,329.45,11/10,114,102.0
4344,G#1,329.5,1.0,126,102.0
4345,C2,329.5,0.5,85,102.0
4346,F#2,329.5,0.25,114,102.0
4347,F#3,329.525,23/250,64,102.0
4348,F#2,329.75,183/1000,86,102.0
4349,F#3,329.75,183/1000,86,102.0
4350,F#2,330.0,183/1000,112,102.0
4351,F#3,330.0,183/1000,112,102.0
4352,F#2,330.25,0.25,100,102.0
4353,F#3,330.258,167/1000,62,102.0
4354,C2,330.5,0.5,97,102.0
4355,F#2,330.5,0.25,114,102.0
4356,F#3,330.533,133/1000,75,102.0
4357,B5,330.625,329/500,58,102.0
4358,B4,330.625,329/500,58,102.0
4359,B5,330.625,249/125,60,102.0
4360,B4,330.625,249/125,60,102.0
4361,G#1,330.75,0.25,89,102.0
4362,F#2,330.75,26/125,86,102.0
4363,F#3,330.75,26/125,86,102.0
4364,B-1,331.0,0.5,114,102.0
4365,E2,331.0,0.5,113,102.0
4366,G#2,331.0,0.25,114,102.0
4367,F#3,331.017,167/1000,119,102.0
4368,F#2,331.25,24/125,80,102.0
4369,F#3,331.25,24/125,80,102.0
4370,E-6,331.283,24/125,79,102.0
4371,B1,331.5,0.5,79,102.0
4372,C2,331.5,0.25,90,102.0
4373,F#2,331.5,0.25,90,102.0
4374,F#6,331.508,217/1000,81,102.0
4375,F#3,331.525,1/10,79,102.0
4376,E-6,331.733,167/1000,92,102.0
4377,F#2,331.75,0.25,96,102.0
4378,F#3,331.767,167/1000,62,102.0
4379,F#3,331.958,21/500,55,102.0
4380,C#4,331.958,21/500,55,102.0
4381,B3,331.958,21/500,55,102.0
4382,B6,332.0,21/40,80,102.0
4383,C#2,332.0,0.5,86,102.0
4384,C2,332.0,0.5,94,102.0
4385,F#3,332.0,126/125,55,102.0
4386,C#4,332.0,126/125,55,102.0
4387,B3,332.0,126/125,55,102.0
4388,F#2,332.0,26/125,122,102.0
4389,F#3,332.0,26/125,122,102.0
4390,F#2,332.25,183/1000,70,102.0
4391,F#3,332.25,183/1000,70,102.0
4392,F#2,332.5,0.25,114,102.0
4393,B-6,332.508,71/500,86,102.0
4394,F#3,332.508,0.125,64,102.0
4395,G#5,332.583,1083/1000,57,102.0
4396,G#4,332.583,1083/1000,57,102.0
4397,C#2,332.75,0.5,79,102.0
4398,C2,332.75,7/40,84,102.0
4399,F#2,332.75,7/40,84,102.0
4400,F#3,332.75,7/40,84,102.0
4401,G#6,332.775,267/1000,81,102.0
4402,E2,333.0,0.5,101,102.0
4403,G#2,333.0,0.25,114,102.0
4404,F#3,333.008,7/40,119,102.0
4405,F#3,333.233,167/1000,77,102.0
4406,G#1,333.25,0.25,53,102.0
4407,F#2,333.25,0.25,92,102.0
4408,F#6,333.267,67/1000,46,102.0
4409,C#1,333.5,1.0,96,102.0
4410,C2,333.5,0.25,102,102.0
4411,F#2,333.5,0.25,102,102.0
4412,B-6,333.508,124/125,92,102.0
4413,F#3,333.525,1/10,92,102.0
4414,F#4,333.617,2/5,54,102.0
4415,F#5,333.633,229/500,53,102.0
4416,F#3,333.75,3/20,92,102.0
4417,F#2,333.75,0.25,96,102.0
4418,C2,334.0,0.75,97,102.0
4419,F#2,334.0,0.25,119,102.0
4420,F#3,334.008,167/1000,124,102.0
4421,F3,334.017,521/500,69,102.0
4422,C#4,334.017,521/500,69,102.0
4423,G#3,334.017,521/500,69,102.0
4424,B4,334.058,567/1000,58,102.0
4425,B5,334.058,567/1000,58,102.0
4426,F#3,334.242,133/1000,86,102.0
4427,F#2,334.25,0.25,86,102.0
4428,G#6,334.5,421/500,92,102.0
4429,G#1,334.5,0.5,89,102.0
4430,F#2,334.5,0.25,119,102.0
4431,F#3,334.533,27/250,92,102.0
4432,B4,334.625,4.0,58,102.0
4433,B5,334.625,4.0,58,102.0
4434,C2,334.75,0.25,89,102.0
4435,F#2,334.75,0.25,89,102.0
4436,F#3,334.775,21/500,81,102.0
4437,C#2,335.0,0.25,109,102.0
4438,E2,335.0,0.25,106,102.0
4439,G#2,335.0,0.25,106,102.0
4440,F#3,335.042,71/500,114,102.0
4441,F#3,335.25,71/500,75,102.0
4442,F#2,335.25,0.25,100,102.0
4443,C#2,335.5,0.25,92,102.0
4444,E2,335.5,0.25,92,102.0
4445,F#3,335.508,23/250,96,102.0
4446,F#3,335.725,79/500,84,102.0
4447,G#1,335.75,0.25,92,102.0
4448,E2,335.75,0.25,86,102.0
4449,C#4,335.95,1/20,72,102.0
4450,B-3,335.95,1/20,72,102.0
4451,F4,335.958,21/500,78,102.0
4452,A3,335.983,17/1000,104,102.0
4453,F4,336.0,1571/500,78,102.0
4454,B-1,336.0,0.5,96,102.0
4455,C2,336.0,0.5,110,102.0
4456,F#2,336.0,0.25,119,102.0
4457,A3,336.0,71/500,104,102.0
4458,C#4,336.0,1621/500,72,102.0
4459,B-3,336.0,1621/500,72,102.0
4460,F#3,336.233,71/500,62,102.0
4461,F#2,336.25,0.25,84,102.0
4462,B-5,336.475,49/125,51,102.0
4463,C#6,336.475,49/125,51,102.0
4464,F6,336.475,49/125,51,102.0
4465,F#2,336.5,0.25,114,102.0
4466,F#3,336.533,21/500,77,102.0
4467,F#3,336.733,0.125,84,102.0
4468,B-1,336.75,0.25,92,102.0
4469,C2,336.75,0.25,86,102.0
4470,F#2,336.75,0.25,86,102.0
4471,E-6,336.975,126/125,59,102.0
4472,C#6,336.975,126/125,59,102.0
4473,G#5,336.975,126/125,59,102.0
4474,F#3,337.0,117/1000,126,102.0
4475,E2,337.0,0.25,110,102.0
4476,G#2,337.0,0.25,110,102.0
4477,F#3,337.242,167/1000,54,102.0
4478,G#1,337.25,0.25,56,102.0
4479,F#2,337.25,0.25,86,102.0
4480,F#3,337.483,29/500,77,102.0
4481,B-1,337.5,0.75,109,102.0
4482,C2,337.5,0.5,104,102.0
4483,F#2,337.5,0.25,114,102.0
4484,F#3,337.708,7/40,92,102.0
4485,F#2,337.75,0.25,89,102.0
4486,F#3,337.95,167/1000,124,102.0
4487,F#2,338.0,0.25,114,102.0
4488,F#3,338.208,71/500,79,102.0
4489,F#2,338.25,0.25,86,102.0
4490,F#3,338.433,83/1000,75,102.0
4491,B-5,338.483,0.375,59,102.0
4492,C#6,338.483,0.375,59,102.0
4493,F6,338.483,0.375,59,102.0
4494,B-1,338.5,0.25,68,102.0
4495,C2,338.5,0.5,99,102.0
4496,F#2,338.5,0.25,119,102.0
4497,B4,338.625,2017/1000,58,102.0
4498,B5,338.625,2017/1000,58,102.0
4499,F#3,338.7,7/40,89,102.0
4500,F#2,338.75,0.25,92,102.0
4501,F#3,338.958,1/5,124,102.0
4502,G#5,338.983,1017/1000,57,102.0
4503,E-6,338.983,1017/1000,57,102.0
4504,C#6,338.983,1017/1000,57,102.0
4505,C#2,339.0,0.25,109,102.0
4506,E2,339.0,0.5,107,102.0
4507,G#2,339.0,0.25,119,102.0
4508,F#3,339.208,217/1000,86,102.0
4509,F#2,339.25,0.25,96,102.0
4510,D2,339.5,0.25,80,102.0
4511,C2,339.5,0.25,104,102.0
4512,F#2,339.5,0.25,104,102.0
4513,F#3,339.508,0.125,86,102.0
4514,F#3,339.733,0.25,80,102.0
4515,F#2,339.733,0.25,80,102.0
4516,E-2,340.0,0.5,104,102.0
4517,C2,340.0,0.5,107,102.0
4518,F#2,340.0,0.25,124,102.0
4519,G#5,340.0,23/250,57,102.0
4520,E-6,340.0,23/250,57,102.0
4521,C#6,340.0,23/250,57,102.0
4522,F#3,340.017,167/1000,124,102.0
4523,E-4,340.033,33/20,66,102.0
4524,G#3,340.033,33/20,66,102.0
4525,B-3,340.033,33/20,66,102.0
4526,F#3,340.233,183/1000,86,102.0
4527,F#2,340.25,0.25,84,102.0
4528,C#6,340.458,17/40,81,102.0
4529,F6,340.467,3/10,65,102.0
4530,B-5,340.467,3/10,65,102.0
4531,F#3,340.5,27/250,81,102.0
4532,F#2,340.5,0.25,114,102.0
4533,C#5,340.583,1067/1000,60,102.0
4534,C#6,340.583,1067/1000,60,102.0
4535,E-2,340.75,0.5,96,102.0
4536,F#3,340.75,7/40,96,102.0
4537,C2,340.75,0.25,93,102.0
4538,F#2,340.75,0.25,93,102.0
4539,C#6,340.933,233/1000,46,102.0
4540,G#5,340.933,233/1000,46,102.0
4541,E-6,340.933,233/1000,46,102.0
4542,F#3,340.992,167/1000,124,102.0
4543,E2,341.0,0.25,112,102.0
4544,G#2,341.0,0.25,112,102.0
4545,F#3,341.233,7/40,81,102.0
4546,B-1,341.25,0.25,32,102.0
4547,F#2,341.25,0.25,96,102.0
4548,F#6,341.442,2083/1000,73,102.0
4549,C#6,341.442,1121/500,86,102.0
4550,B5,341.45,1933/1000,70,102.0
4551,E-1,341.5,1.0,114,102.0
4552,F#3,341.5,133/1000,100,102.0
4553,C2,341.5,0.5,94,102.0
4554,F#2,341.5,0.25,119,102.0
4555,E-6,341.642,467/1000,52,102.0
4556,E-5,341.642,467/1000,52,102.0
4557,F#3,341.75,21/500,79,102.0
4558,F#2,341.75,0.25,66,102.0
4559,F#3,341.925,721/500,52,102.0
4560,C#4,341.925,721/500,52,102.0
4561,B-3,341.933,373/250,54,102.0
4562,F#2,342.0,0.25,109,102.0
4563,F#3,342.008,167/1000,119,102.0
4564,B4,342.092,533/1000,69,102.0
4565,B5,342.092,533/1000,69,102.0
4566,F#3,342.233,33/1000,96,102.0
4567,F#2,342.25,0.25,89,102.0
4568,B-1,342.5,0.5,100,102.0
4569,C2,342.5,0.5,101,102.0
4570,F#2,342.5,0.25,119,102.0
4571,F#3,342.525,71/500,104,102.0
4572,B4,342.625,4.0,69,102.0
4573,B5,342.625,4.0,69,102.0
4574,F#3,342.725,79/500,96,102.0
4575,F#2,342.75,0.25,92,102.0
4576,E-2,343.0,0.25,114,102.0
4577,E2,343.0,0.25,106,102.0
4578,G#2,343.0,0.25,106,102.0
4579,F#3,343.008,71/500,109,102.0
4580,F#3,343.2,117/1000,96,102.0
4581,C2,343.25,0.5,104,102.0
4582,F#2,343.25,0.25,96,102.0
4583,F#3,343.475,0.125,104,102.0
4584,E-2,343.5,0.25,86,102.0
4585,F#2,343.5,0.25,114,102.0
4586,F#3,343.675,79/500,92,102.0
4587,B-1,343.75,0.25,104,102.0
4588,F#2,343.75,0.25,75,102.0
4589,C#6,343.967,33/1000,82,102.0
4590,F#6,343.967,33/1000,82,102.0
4591,E-6,343.975,1/40,77,102.0
4592,C#3,343.983,17/1000,126,102.0
4593,B3,344.0,3.875,54,102.0
4594,E-6,344.0,7/40,77,102.0
4595,E1,344.0,1.25,101,102.0
4596,F1,344.0,0.25,71,102.0
4597,C2,344.0,0.5,104,102.0
4598,F#2,344.0,0.25,119,102.0
4599,C#3,344.0,83/1000,126,102.0
4600,C#6,344.0,229/500,82,102.0
4601,F#6,344.0,229/500,82,102.0
4602,C#4,344.008,1829/500,79,102.0
4603,F#4,344.017,3.75,62,102.0
4604,F#2,344.25,0.25,64,102.0
4605,F#3,344.258,7/40,86,102.0
4606,E-6,344.408,121/500,57,102.0
4607,F#2,344.5,0.25,104,102.0
4608,C#6,344.583,71/500,41,102.0
4609,F#5,344.675,26/125,38,102.0
4610,E2,344.75,0.5,90,102.0
4611,C2,344.75,0.25,90,102.0
4612,F#2,344.75,0.25,90,102.0
4613,F#3,344.767,3/20,89,102.0
4614,C#6,344.825,217/1000,60,102.0
4615,E-6,344.942,79/500,59,102.0
4616,F#3,345.0,27/250,114,102.0
4617,E2,345.0,0.5,94,102.0
4618,G#2,345.0,0.25,119,102.0
4619,F#6,345.05,2/5,77,102.0
4620,B1,345.25,0.25,53,102.0
4621,F#2,345.25,79/500,79,102.0
4622,F#3,345.25,79/500,79,102.0
4623,E-6,345.358,26/125,75,102.0
4624,C#6,345.483,79/500,54,102.0
4625,E1,345.5,1.75,99,102.0
4626,C2,345.5,0.25,100,102.0
4627,F#2,345.5,0.25,100,102.0
4628,F#3,345.525,21/500,81,102.0
4629,F#5,345.608,24/125,55,102.0
4630,F#2,345.75,0.25,86,102.0
4631,C#6,345.758,1/5,58,102.0
4632,F#3,345.792,0.125,86,102.0
4633,E-6,345.867,7/40,47,102.0
4634,C2,346.0,0.5,80,102.0
4635,F#2,346.0,0.25,114,102.0
4636,F#6,346.017,229/500,81,102.0
4637,F#3,346.017,133/1000,119,102.0
4638,F#2,346.25,0.25,89,102.0
4639,E-6,346.417,121/500,59,102.0
4640,E2,346.5,0.5,83,102.0
4641,F#2,346.5,0.25,114,102.0
4642,F#3,346.517,83/1000,81,102.0
4643,C#6,346.583,13/40,45,102.0
4644,B4,346.625,3267/1000,69,102.0
4645,B5,346.625,3267/1000,69,102.0
4646,F#5,346.658,3/20,43,102.0
4647,F#3,346.742,167/1000,89,102.0
4648,C2,346.75,0.25,92,102.0
4649,F#2,346.75,0.25,92,102.0
4650,B6,346.992,126/125,86,102.0
4651,F#3,346.992,3/20,109,102.0
4652,E2,347.0,0.25,107,102.0
4653,E2,347.25,0.25,104,102.0
4654,F#2,347.25,0.25,92,102.0
4655,F#3,347.275,27/250,21,102.0
4656,B1,347.5,0.25,76,102.0
4657,E2,347.5,0.25,86,102.0
4658,F#3,347.508,1/10,92,102.0
4659,F#3,347.733,133/1000,66,102.0
4660,E1,347.75,0.25,73,102.0
4661,E2,347.75,0.25,94,102.0
4662,F#6,347.967,33/1000,59,102.0
4663,E-6,347.975,1/40,55,102.0
4664,A3,347.992,1/125,123,102.0
4665,B6,348.0,2583/1000,86,102.0
4666,F#6,348.0,1279/500,59,102.0
4667,E-6,348.0,2267/1000,55,102.0
4668,F#1,348.0,1.0,92,102.0
4669,C2,348.0,0.5,110,102.0
4670,F#2,348.0,0.25,119,102.0
4671,A3,348.0,3/20,123,102.0
4672,E-4,348.0,3217/1000,67,102.0
4673,F#4,348.0,3217/1000,67,102.0
4674,C#4,348.0,3217/1000,67,102.0
4675,B3,348.0,3217/1000,67,102.0
4676,F#2,348.25,0.25,86,102.0
4677,F#2,348.5,0.25,109,102.0
4678,F#2,348.75,0.5,114,102.0
4679,C2,348.75,0.25,94,102.0
4680,F#2,348.75,0.25,94,102.0
4681,E2,349.0,0.25,113,102.0
4682,G#2,349.0,0.25,113,102.0
4683,C#2,349.25,0.25,46,102.0
4684,F#2,349.25,0.25,92,102.0
4685,F#1,349.5,2.25,86,102.0
4686,C2,349.5,0.75,101,102.0
4687,F#2,349.5,0.25,119,102.0
4688,F#2,349.75,0.25,89,102.0
4689,F#2,350.0,0.25,114,102.0
4690,B5,350.125,11/40,50,102.0
4691,B4,350.125,11/40,50,102.0
4692,F#2,350.25,0.25,86,102.0
4693,C#5,350.35,121/500,50,102.0
4694,C#6,350.425,1/5,23,102.0
4695,F#2,350.5,0.5,104,102.0
4696,C2,350.5,0.5,80,102.0
4697,F#2,350.5,0.25,114,102.0
4698,E-6,350.575,3/40,31,102.0
4699,D5,350.633,77/40,60,102.0
4700,D6,350.692,224/125,66,102.0
4701,F#2,350.75,0.25,89,102.0
4702,E2,351.0,0.25,113,102.0
4703,G#2,351.0,0.25,113,102.0
4704,B-6,351.008,127/250,92,102.0
4705,F#6,351.008,0.625,96,102.0
4706,C#6,351.017,0.375,79,102.0
4707,F#2,351.25,0.5,114,102.0
4708,F#2,351.25,0.25,89,102.0
4709,G#6,351.458,117/1000,49,102.0
4710,C2,351.5,0.25,92,102.0
4711,F#2,351.5,0.25,92,102.0
4712,E-6,351.55,133/1000,81,102.0
4713,C#6,351.625,83/1000,86,102.0
4714,B-5,351.625,83/1000,86,102.0
4715,G#5,351.708,23/250,94,102.0
4716,F#5,351.708,23/250,94,102.0
4717,C#2,351.75,0.25,40,102.0
4718,F#2,351.75,0.25,81,102.0
4719,E-5,351.783,3/40,96,102.0
4720,C#5,351.783,3/40,96,102.0
4721,B-4,351.85,3/40,102,102.0
4722,G#4,351.85,3/40,102,102.0
4723,F#4,351.917,67/1000,91,102.0
4724,E-4,351.917,67/1000,91,102.0
4725,G#1,352.0,0.75,96,102.0
4726,A5,352.0,0.25,46,102.0
4727,C2,352.0,0.5,104,102.0
4728,F#2,352.0,0.25,114,102.0
4729,E-4,352.0,59/20,68,102.0
4730,F#3,352.0,59/20,68,102.0
4731,B3,352.0,59/20,68,102.0
4732,A5,352.25,0.25,1,102.0
4733,F#2,352.25,0.25,75,102.0
4734,C#5,352.417,1/5,40,102.0
4735,C#6,352.483,23/250,19,102.0
4736,A5,352.5,0.25,18,102.0
4737,F#2,352.5,0.25,104,102.0
4738,B5,352.55,133/1000,16,102.0
4739,E5,352.617,251/125,68,102.0
4740,E6,352.617,251/125,68,102.0
4741,G#2,352.75,0.25,109,102.0
4742,C2,352.75,0.25,84,102.0
4743,F#2,352.75,0.25,84,102.0
4744,A5,353.0,0.25,25,102.0
4745,E2,353.0,0.5,101,102.0
4746,G#2,353.0,0.25,114,102.0
4747,F#2,353.25,0.25,81,102.0
4748,G#1,353.5,2.0,109,102.0
4749,A5,353.5,0.25,15,102.0
4750,C2,353.5,0.5,107,102.0
4751,F#2,353.5,0.25,109,102.0
4752,A5,353.75,0.25,27,102.0
4753,F#2,353.75,0.25,79,102.0
4754,A5,354.0,0.25,13,102.0
4755,F#2,354.0,0.25,100,102.0
4756,F#2,354.25,0.25,60,102.0
4757,G#2,354.5,1.0,109,102.0
4758,A5,354.5,0.25,1,102.0
4759,C2,354.5,0.5,69,102.0
4760,F#2,354.5,0.25,104,102.0
4761,B4,354.592,33/1000,60,102.0
4762,B5,354.617,1/125,59,102.0
4763,B4,354.625,4.0,60,102.0
4764,B5,354.625,4.0,59,102.0
4765,E5,354.625,33/1000,68,102.0
4766,E6,354.625,33/1000,68,102.0
4767,A5,354.75,0.25,8,102.0
4768,F#2,354.75,0.25,68,102.0
4769,A5,355.0,0.25,50,102.0
4770,E2,355.0,0.5,69,102.0
4771,G#2,355.0,0.25,100,102.0
4772,F#2,355.25,0.25,77,102.0
4773,G#2,355.5,0.5,86,102.0
4774,A5,355.5,0.25,1,102.0
4775,C2,355.5,0.25,94,102.0
4776,F#2,355.5,0.25,94,102.0
4777,E-2,355.75,0.25,81,102.0
4778,A5,355.75,0.25,7,102.0
4779,F#2,355.75,0.25,79,102.0
4780,B4,355.842,4.0,59,102.0
4781,B-3,355.967,33/1000,76,102.0
4782,F#4,355.967,33/1000,76,102.0
4783,C#4,355.967,33/1000,76,102.0
4784,B-1,356.0,1.25,114,102.0
4785,A5,356.0,0.25,46,102.0
4786,C2,356.0,0.5,99,102.0
4787,F#2,356.0,0.25,114,102.0
4788,B-3,356.0,471/500,76,102.0
4789,F#4,356.0,471/500,76,102.0
4790,C#4,356.0,471/500,76,102.0
4791,F#2,356.25,0.25,79,102.0
4792,A5,356.5,0.25,1,102.0
4793,F#2,356.5,0.25,104,102.0
4794,B-2,356.75,0.5,92,102.0
4795,A5,356.75,0.25,2,102.0
4796,C2,356.75,0.25,73,102.0
4797,F#2,356.75,0.25,73,102.0
4798,A5,357.0,0.25,37,102.0
4799,E2,357.0,0.25,108,102.0
4800,G#2,357.0,0.25,108,102.0
4801,F2,357.25,0.25,65,102.0
4802,F#2,357.25,0.25,60,102.0
4803,B1,357.5,2.5,66,102.0
4804,A5,357.5,0.25,1,102.0
4805,C2,357.5,0.5,104,102.0
4806,F#2,357.5,0.25,96,102.0
4807,F#3,357.5,729/500,70,102.0
4808,E-4,357.5,729/500,70,102.0
4809,B3,357.5,729/500,70,102.0
4810,A5,357.75,0.25,1,102.0
4811,F#2,357.75,0.25,79,102.0
4812,A5,358.0,0.25,34,102.0
4813,F#2,358.0,0.25,100,102.0
4814,F#2,358.25,0.25,69,102.0
4815,B2,358.5,0.75,94,102.0
4816,A5,358.5,0.25,1,102.0
4817,C2,358.5,0.5,104,102.0
4818,F#2,358.5,0.25,96,102.0
4819,B4,358.625,1967/1000,60,102.0
4820,B5,358.625,1029/500,59,102.0
4821,A5,358.75,0.25,1,102.0
4822,F#2,358.75,0.25,79,102.0
4823,A5,359.0,0.25,37,102.0
4824,E2,359.0,0.5,101,102.0
4825,G#2,359.0,0.25,124,102.0
4826,B2,359.25,0.5,79,102.0
4827,F#2,359.25,0.25,81,102.0
4828,F#2,359.5,0.5,86,102.0
4829,A5,359.5,0.25,1,102.0
4830,C2,359.5,0.25,99,102.0
4831,F#2,359.5,0.25,99,102.0
4832,A5,359.75,0.25,4,102.0
4833,F#2,359.75,0.25,89,102.0
4834,B4,359.842,167/1000,59,102.0
4835,C#5,359.883,1567/1000,77,102.0
4836,C#2,360.0,0.75,119,102.0
4837,A5,360.0,0.25,30,102.0
4838,C2,360.0,0.5,104,102.0
4839,F#2,360.0,0.25,119,102.0
4840,G#3,360.0,7/10,67,102.0
4841,E4,360.0,7/10,67,102.0
4842,B3,360.0,7/10,67,102.0
4843,F#2,360.25,0.25,75,102.0
4844,A5,360.5,0.25,1,102.0
4845,F#2,360.5,0.25,92,102.0
4846,G#5,360.567,277/250,50,102.0
4847,G#4,360.567,277/250,50,102.0
4848,C#2,360.75,0.5,104,102.0
4849,A5,360.75,0.25,1,102.0
4850,C2,360.75,0.25,60,102.0
4851,F#2,360.75,0.25,60,102.0
4852,A5,361.0,0.25,46,102.0
4853,E2,361.0,0.25,110,102.0
4854,G#2,361.0,0.25,110,102.0
4855,E-2,361.25,1.0,81,102.0
4856,F#2,361.25,0.25,86,102.0
4857,E-5,361.358,79/40,81,102.0
4858,B-3,361.433,61/40,67,102.0
4859,C#4,361.433,61/40,67,102.0
4860,F#4,361.442,51/40,75,102.0
4861,A5,361.5,0.25,1,102.0
4862,C2,361.5,0.75,90,102.0
4863,F#2,361.5,0.25,114,102.0
4864,F#4,361.583,229/500,47,102.0
4865,F#5,361.65,221/500,57,102.0
4866,A5,361.75,0.25,1,102.0
4867,F#2,361.75,0.25,81,102.0
4868,A5,362.0,0.25,37,102.0
4869,F#2,362.0,0.25,77,102.0
4870,B5,362.058,567/1000,56,102.0
4871,B4,362.058,567/1000,56,102.0
4872,F#2,362.25,0.25,12,102.0
4873,E-2,362.5,0.75,84,102.0
4874,A5,362.5,0.25,1,102.0
4875,C2,362.5,0.5,99,102.0
4876,F#2,362.5,0.25,109,102.0
4877,B5,362.625,4.0,56,102.0
4878,B4,362.625,4.0,56,102.0
4879,A5,362.75,0.25,1,102.0
4880,F#2,362.75,0.25,81,102.0
4881,A5,363.0,0.25,43,102.0
4882,E2,363.0,0.5,117,102.0
4883,G#2,363.0,0.25,109,102.0
4884,F#2,363.25,0.25,69,102.0
4885,C#5,363.317,171/500,68,102.0
4886,E-2,363.5,0.25,69,102.0
4887,A5,363.5,0.25,1,102.0
4888,C2,363.5,0.25,102,102.0
4889,F#2,363.5,0.25,102,102.0
4890,E-5,363.583,129/500,86,102.0
4891,C#2,363.75,0.25,104,102.0
4892,A5,363.75,0.25,1,102.0
4893,F#2,363.75,0.25,86,102.0
4894,E5,363.833,1/125,75,102.0
4895,E5,363.842,61/40,75,102.0
4896,E-5,363.842,1/40,86,102.0
4897,F#1,364.0,3.25,100,102.0
4898,A5,364.0,0.25,34,102.0
4899,C2,364.0,0.5,107,102.0
4900,F#2,364.0,0.25,119,102.0
4901,B3,364.008,59/20,77,102.0
4902,F#4,364.008,59/20,77,102.0
4903,C#4,364.008,59/20,77,102.0
4904,F#2,364.25,0.25,84,102.0
4905,A5,364.5,0.25,1,102.0
4906,F#2,364.5,0.25,100,102.0
4907,A5,364.75,0.25,1,102.0
4908,C2,364.75,0.25,78,102.0
4909,F#2,364.75,0.25,78,102.0
4910,F#2,365.0,1.25,104,102.0
4911,A5,365.0,0.25,37,102.0
4912,E2,365.0,0.25,120,102.0
4913,G#2,365.0,0.25,120,102.0
4914,F#2,365.25,0.25,38,102.0
4915,F#5,365.392,2383/1000,69,102.0
4916,A5,365.5,0.25,1,102.0
4917,C2,365.5,0.75,107,102.0
4918,F#2,365.5,0.25,114,102.0
4919,A5,365.75,0.25,1,102.0
4920,F#2,365.75,0.25,81,102.0
4921,A5,366.0,0.25,30,102.0
4922,F#2,366.0,0.25,100,102.0
4923,F#2,366.25,0.25,15,102.0
4924,F#2,366.5,0.5,96,102.0
4925,A5,366.5,0.25,1,102.0
4926,C2,366.5,0.25,92,102.0
4927,F#2,366.5,0.25,92,102.0
4928,B5,366.625,41/20,56,102.0
4929,B4,366.625,41/20,56,102.0
4930,A5,366.75,0.25,2,102.0
4931,F#2,366.75,0.25,96,102.0
4932,A5,367.0,0.25,34,102.0
4933,E2,367.0,0.25,105,102.0
4934,G#2,367.0,0.25,105,102.0
4935,F#2,367.25,0.25,100,102.0
4936,F#2,367.25,0.25,89,102.0
4937,C#2,367.5,0.25,100,102.0
4938,A5,367.5,0.25,1,102.0
4939,E2,367.5,0.25,92,102.0
4940,F#1,367.75,0.25,92,102.0
4941,A5,367.75,0.25,1,102.0
4942,E2,367.75,0.25,101,102.0
4943,F#5,367.9,3583/1000,100,102.0
4944,E-4,367.992,1/125,80,102.0
4945,F#3,367.992,1/125,80,102.0
4946,B3,367.992,1/125,80,102.0
4947,G#1,368.0,0.75,100,102.0
4948,A5,368.0,0.25,30,102.0
4949,C2,368.0,0.5,107,102.0
4950,F#2,368.0,0.25,119,102.0
4951,E-4,368.0,677/250,80,102.0
4952,F#3,368.0,677/250,80,102.0
4953,B3,368.0,677/250,80,102.0
4954,F#2,368.25,0.25,92,102.0
4955,A5,368.5,0.25,1,102.0
4956,F#2,368.5,0.25,100,102.0
4957,C#5,368.55,11/10,62,102.0
4958,C#6,368.55,11/10,62,102.0
4959,G#2,368.75,0.5,104,102.0
4960,A5,368.75,0.25,1,102.0
4961,C2,368.75,0.25,82,102.0
4962,F#2,368.75,0.25,82,102.0
4963,A5,369.0,0.25,23,102.0
4964,E2,369.0,0.5,104,102.0
4965,G#2,369.0,0.25,124,102.0
4966,E-2,369.25,0.25,59,102.0
4967,F#2,369.25,0.25,89,102.0
4968,G#1,369.5,2.25,104,102.0
4969,A5,369.5,0.25,1,102.0
4970,C2,369.5,0.5,76,102.0
4971,F#2,369.5,0.25,114,102.0
4972,E-6,369.642,221/500,52,102.0
4973,E-5,369.642,221/500,52,102.0
4974,A5,369.75,0.25,1,102.0
4975,F#2,369.75,0.25,89,102.0
4976,A5,370.0,0.25,25,102.0
4977,F#2,370.0,0.25,84,102.0
4978,B4,370.033,74/125,58,102.0
4979,B5,370.033,74/125,58,102.0
4980,F#2,370.25,0.25,89,102.0
4981,G#2,370.5,0.75,104,102.0
4982,A5,370.5,0.25,1,102.0
4983,C2,370.5,0.5,85,102.0
4984,F#2,370.5,0.25,119,102.0
4985,B4,370.625,4.0,58,102.0
4986,B5,370.625,4.0,58,102.0
4987,A5,370.75,0.25,1,102.0
4988,F#2,370.75,0.25,84,102.0
4989,A5,371.0,0.25,32,102.0
4990,E2,371.0,0.5,104,102.0
4991,G#2,371.0,0.25,109,102.0
4992,F#2,371.25,0.25,79,102.0
4993,B4,371.408,333/1000,80,102.0
4994,G#2,371.5,0.25,96,102.0
4995,A5,371.5,0.25,1,102.0
4996,C2,371.5,0.25,83,102.0
4997,F#2,371.5,0.25,83,102.0
4998,C#5,371.642,1/5,89,102.0
4999,E-2,371.75,0.25,73,102.0
5000,A5,371.75,0.25,1,102.0
5001,F#2,371.75,0.25,79,102.0
5002,C#5,371.842,17/1000,89,102.0
5003,E-5,371.875,3967/1000,100,102.0
5004,C#4,371.942,29/500,62,102.0
5005,F#4,371.942,29/500,62,102.0
5006,B-3,371.942,29/500,62,102.0
5007,B-1,372.0,0.75,119,102.0
5008,A5,372.0,0.25,23,102.0
5009,C2,372.0,0.5,92,102.0
5010,F#2,372.0,0.25,119,102.0
5011,C#4,372.0,173/250,62,102.0
5012,F#4,372.0,173/250,62,102.0
5013,B-3,372.0,173/250,62,102.0
5014,F#2,372.25,0.25,81,102.0
5015,A5,372.5,0.25,1,102.0
5016,F#2,372.5,0.25,96,102.0
5017,B-1,372.75,0.75,109,102.0
5018,A5,372.75,0.25,3,102.0
5019,C2,372.75,0.25,78,102.0
5020,F#2,372.75,0.25,78,102.0
5021,A5,373.0,0.25,32,102.0
5022,E2,373.0,0.5,99,102.0
5023,G#2,373.0,0.25,119,102.0
5024,F#2,373.25,0.25,84,102.0
5025,F#3,373.467,621/500,60,102.0
5026,E-4,373.467,621/500,60,102.0
5027,B3,373.483,1483/1000,75,102.0
5028,B1,373.5,1.75,104,102.0
5029,A5,373.5,0.25,1,102.0
5030,C2,373.5,0.75,104,102.0
5031,F#2,373.5,0.25,109,102.0
5032,A5,373.75,0.25,4,102.0
5033,F#2,373.75,0.25,86,102.0
5034,A5,374.0,0.25,27,102.0
5035,F#2,374.0,0.25,114,102.0
5036,F#2,374.25,0.25,84,102.0
5037,A5,374.5,0.25,1,102.0
5038,C2,374.5,0.5,94,102.0
5039,F#2,374.5,0.25,96,102.0
5040,B4,374.625,3883/1000,58,102.0
5041,B5,374.625,3883/1000,58,102.0
5042,A5,374.75,0.25,1,102.0
5043,F#2,374.75,0.25,89,102.0
5044,A5,375.0,0.25,30,102.0
5045,E2,375.0,0.25,102,102.0
5046,G#2,375.0,0.25,102,102.0
5047,F#2,375.25,0.25,89,102.0
5048,B-1,375.5,0.25,100,102.0
5049,A5,375.5,0.25,1,102.0
5050,E2,375.5,0.25,98,102.0
5051,F#2,375.5,0.25,98,102.0
5052,B1,375.75,0.25,66,102.0
5053,A5,375.75,0.25,1,102.0
5054,E2,375.75,0.25,84,102.0
5055,F#2,375.75,0.25,84,102.0
5056,C-1,375.8,1/5,19,102.0
5057,C-1,375.8,1/5,19,102.0
5058,C-1,375.8,1/5,19,102.0
5059,C#5,375.842,833/1000,92,102.0
5060,E-5,375.842,1/20,100,102.0
5061,C-1,375.917,83/1000,44,102.0
5062,C-1,375.917,83/1000,44,102.0
5063,E4,375.925,3/40,69,102.0
5064,B3,375.933,67/1000,68,102.0
5065,G#3,375.933,67/1000,58,102.0
5066,E4,376.0,467/1000,69,102.0
5067,B3,376.0,717/1000,68,102.0
5068,G#3,376.0,967/1000,58,102.0
5069,C#2,376.0,0.5,96,102.0
5070,A5,376.0,0.25,37,102.0
5071,C2,376.0,0.5,110,102.0
5072,F#2,376.0,0.25,114,102.0
5073,C-1,376.0,4/5,19,102.0
5074,C-1,376.0,4/5,19,102.0
5075,C-1,376.0,4/5,19,102.0
5076,C-1,376.0,917/1000,44,102.0
5077,C-1,376.0,917/1000,44,102.0
5078,C-1,376.183,1.0,51,102.0
5079,F#2,376.25,0.25,71,102.0
5080,A5,376.5,0.25,1,102.0
5081,F#2,376.5,0.25,86,102.0
5082,F#5,376.617,4/5,54,102.0
5083,C-1,376.717,1.0,46,102.0
5084,C#2,376.75,0.25,51,102.0
5085,A5,376.75,0.25,1,102.0
5086,C2,376.75,0.25,81,102.0
5087,F#2,376.75,0.25,81,102.0
5088,B3,376.967,321/500,69,102.0
5089,C#4,376.967,51/125,71,102.0
5090,F#4,376.967,51/125,71,102.0
5091,E-2,377.0,0.75,96,102.0
5092,A5,377.0,0.25,34,102.0
5093,E2,377.0,0.25,114,102.0
5094,G#2,377.0,0.25,114,102.0
5095,C-1,377.158,1.0,40,102.0
5096,C-1,377.158,1.0,40,102.0
5097,C-1,377.25,1.0,32,102.0
5098,F#2,377.25,0.25,86,102.0
5099,E-5,377.35,2067/1000,89,102.0
5100,A5,377.5,0.25,1,102.0
5101,C2,377.5,0.5,97,102.0
5102,F#2,377.5,0.25,104,102.0
5103,E-2,377.75,0.25,60,102.0
5104,A5,377.75,0.25,8,102.0
5105,F#2,377.75,0.25,89,102.0
5106,E2,378.0,0.75,75,102.0
5107,A5,378.0,0.25,40,102.0
5108,G#2,378.0,0.25,119,102.0
5109,G#3,378.058,321/500,70,102.0
5110,B3,378.058,321/500,70,102.0
5111,E4,378.058,321/500,70,102.0
5112,F#2,378.25,0.25,81,102.0
5113,A5,378.5,0.25,1,102.0
5114,C2,378.5,0.5,104,102.0
5115,F#2,378.5,0.25,86,102.0
5116,D6,378.542,83/1000,60,102.0
5117,D5,378.575,1/20,60,102.0
5118,D6,378.625,9/5,60,102.0
5119,D5,378.625,1867/1000,60,102.0
5120,E2,378.75,0.25,79,102.0
5121,A5,378.75,0.25,11,102.0
5122,F#2,378.75,0.25,79,102.0
5123,F#2,379.0,1.0,100,102.0
5124,A5,379.0,0.25,40,102.0
5125,E2,379.0,0.5,113,102.0
5126,G#2,379.0,0.25,114,102.0
5127,F#3,379.008,221/500,64,102.0
5128,E-4,379.008,221/500,64,102.0
5129,B3,379.008,221/500,64,102.0
5130,C-1,379.092,227/250,24,102.0
5131,F#2,379.25,0.25,86,102.0
5132,C#5,379.367,13/40,89,102.0
5133,A5,379.5,0.25,1,102.0
5134,C2,379.5,0.25,87,102.0
5135,F#2,379.5,0.25,87,102.0
5136,E5,379.683,79/500,99,102.0
5137,A5,379.75,0.25,12,102.0
5138,F#2,379.75,0.25,84,102.0
5139,E5,379.842,1117/1000,99,102.0
5140,C#4,380.0,2467/1000,60,102.0
5141,A1,380.0,3.75,107,102.0
5142,C-1,380.0,23/250,24,102.0
5143,A5,380.0,0.25,46,102.0
5144,C2,380.0,0.5,117,102.0
5145,F#2,380.0,0.25,114,102.0
5146,A3,380.008,677/250,74,102.0
5147,E3,380.008,677/250,74,102.0
5148,A5,380.25,0.25,1,102.0
5149,F#2,380.25,0.25,81,102.0
5150,B4,380.383,3/20,42,102.0
5151,B5,380.383,3/20,42,102.0
5152,A5,380.5,0.25,18,102.0
5153,F#2,380.5,0.25,89,102.0
5154,E6,380.525,83/40,63,102.0
5155,E5,380.525,83/40,63,102.0
5156,C2,380.75,0.25,77,102.0
5157,F#2,380.75,0.25,77,102.0
5158,C-1,380.9,1.0,34,102.0
5159,C-1,380.9,1.0,34,102.0
5160,E-5,380.908,1033/1000,109,102.0
5161,A5,381.0,0.25,25,102.0
5162,E2,381.0,0.5,117,102.0
5163,G#2,381.0,0.25,119,102.0
5164,C-1,381.083,1.0,41,102.0
5165,F#2,381.25,0.25,58,102.0
5166,A2,381.5,1.0,82,102.0
5167,A5,381.5,0.25,15,102.0
5168,C2,381.5,0.25,112,102.0
5169,F#2,381.5,0.25,112,102.0
5170,A5,381.75,0.25,27,102.0
5171,F#2,381.75,0.25,86,102.0
5172,C#5,381.908,1.0,89,102.0
5173,A5,382.0,0.25,13,102.0
5174,C2,382.0,0.25,97,102.0
5175,F#2,382.0,0.25,97,102.0
5176,E2,382.25,0.25,104,102.0
5177,A2,382.5,0.5,83,102.0
5178,A5,382.5,0.25,1,102.0
5179,F#2,382.5,0.25,100,102.0
5180,B4,382.533,23/250,57,102.0
5181,B5,382.533,23/250,57,102.0
5182,B3,382.583,21/500,68,102.0
5183,B5,382.592,33/1000,71,102.0
5184,B3,382.625,2267/1000,68,102.0
5185,B5,382.625,4.0,71,102.0
5186,B4,382.625,773/250,57,102.0
5187,B5,382.625,773/250,57,102.0
5188,A5,382.75,0.25,8,102.0
5189,C2,382.75,0.25,94,102.0
5190,F#2,382.75,0.25,94,102.0
5191,B4,382.908,933/1000,66,102.0
5192,A2,383.0,0.25,86,102.0
5193,A5,383.0,0.25,50,102.0
5194,E2,383.0,0.25,109,102.0
5195,G#2,383.0,0.25,109,102.0
5196,F#2,383.25,0.25,92,102.0
5197,A2,383.5,0.25,92,102.0
5198,A5,383.5,0.25,1,102.0
5199,E2,383.5,0.25,99,102.0
5200,E2,383.75,0.25,79,102.0
5201,A5,383.75,0.25,7,102.0
5202,E2,383.75,0.25,78,102.0
5203,B4,383.842,83/1000,66,102.0
5204,C#5,383.867,149/40,96,102.0
5205,E1,384.0,0.25,80,102.0
5206,A5,384.0,0.25,46,102.0
5207,C2,384.0,0.5,104,102.0
5208,G#2,384.0,0.25,119,102.0
5209,E-4,384.0,3/40,80,102.0
5210,G#3,384.0,3/40,80,102.0
5211,F#4,384.0,3/40,80,102.0
5212,B3,384.0,3/40,80,102.0
5213,G#2,384.25,0.25,100,102.0
5214,E1,384.5,0.25,69,102.0
5215,A5,384.5,0.25,1,102.0
5216,F#2,384.5,0.25,92,102.0
5217,E2,384.75,0.5,104,102.0
5218,A5,384.75,0.25,2,102.0
5219,C2,384.75,0.25,90,102.0
5220,F#2,384.75,0.25,90,102.0
5221,E-4,384.775,3/40,77,102.0
5222,G#3,384.775,3/40,77,102.0
5223,F#4,384.775,3/40,77,102.0
5224,B3,384.775,3/40,77,102.0
5225,A5,385.0,0.25,37,102.0
5226,E2,385.0,0.25,113,102.0
5227,G#2,385.0,0.25,113,102.0
5228,B1,385.25,0.25,46,102.0
5229,F#2,385.25,0.25,96,102.0
5230,B3,385.483,1221/500,80,102.0
5231,C#4,385.483,1221/500,80,102.0
5232,F#4,385.483,1221/500,80,102.0
5233,G3,385.492,2333/1000,82,102.0
5234,E-1,385.5,1.0,100,102.0
5235,A5,385.5,0.25,1,102.0
5236,C2,385.5,0.5,110,102.0
5237,F#2,385.5,0.25,104,102.0
5238,A5,385.75,0.25,1,102.0
5239,F#2,385.75,0.25,100,102.0
5240,A5,386.0,0.25,34,102.0
5241,F#2,386.0,0.25,119,102.0
5242,F#2,386.25,0.25,96,102.0
5243,E-2,386.5,0.25,100,102.0
5244,A5,386.5,0.25,1,102.0
5245,C2,386.5,0.5,110,102.0
5246,F#2,386.5,0.25,96,102.0
5247,B5,386.625,4017/1000,71,102.0
5248,B-1,386.75,0.25,92,102.0
5249,A5,386.75,0.25,1,102.0
5250,F#2,386.75,0.25,92,102.0
5251,F#1,387.0,0.25,79,102.0
5252,A5,387.0,0.25,37,102.0
5253,E2,387.0,0.25,112,102.0
5254,G#2,387.0,0.25,112,102.0
5255,F#2,387.25,0.25,92,102.0
5256,G1,387.5,0.5,94,102.0
5257,A5,387.5,0.25,1,102.0
5258,C2,387.5,0.25,100,102.0
5259,F#2,387.5,0.25,100,102.0
5260,A5,387.75,0.25,4,102.0
5261,F#2,387.75,0.25,100,102.0
5262,C#6,387.842,31/40,96,102.0
5263,C#5,387.842,31/40,96,102.0
5264,B3,387.967,33/1000,76,102.0
5265,F#3,387.967,33/1000,76,102.0
5266,E-4,387.983,17/1000,96,102.0
5267,E-4,388.0,1867/1000,96,102.0
5268,G#1,388.0,0.75,109,102.0
5269,A5,388.0,0.25,30,102.0
5270,C2,388.0,0.5,107,102.0
5271,F#2,388.0,0.25,124,102.0
5272,B3,388.0,1733/1000,76,102.0
5273,F#3,388.0,1733/1000,76,102.0
5274,F#2,388.25,0.25,77,102.0
5275,A5,388.5,0.25,1,102.0
5276,F#2,388.5,0.25,104,102.0
5277,E-5,388.6,79/500,86,102.0
5278,E-6,388.6,79/500,86,102.0
5279,A5,388.75,0.25,1,102.0
5280,C2,388.75,0.25,92,102.0
5281,F#2,388.75,0.25,92,102.0
5282,G#1,389.0,0.75,96,102.0
5283,A5,389.0,0.25,46,102.0
5284,E2,389.0,0.25,112,102.0
5285,G#2,389.0,0.25,112,102.0
5286,F#2,389.25,0.25,109,102.0
5287,A5,389.5,0.25,1,102.0
5288,C2,389.5,0.5,79,102.0
5289,F#2,389.5,0.25,109,102.0
5290,B-1,389.75,0.25,57,102.0
5291,A5,389.75,0.25,1,102.0
5292,F#2,389.75,0.25,100,102.0
5293,E-4,389.95,779/500,74,102.0
5294,F3,389.95,779/500,74,102.0
5295,B3,389.95,779/500,74,102.0
5296,G#3,389.95,779/500,74,102.0
5297,C-1,389.958,1.0,48,102.0
5298,C#2,390.0,0.5,104,102.0
5299,A5,390.0,0.25,37,102.0
5300,F#2,390.0,0.25,119,102.0
5301,F#2,390.25,0.25,75,102.0
5302,C-1,390.375,1.0,52,102.0
5303,C-1,390.375,1.0,52,102.0
5304,C-1,390.458,1.0,55,102.0
5305,A5,390.5,0.25,1,102.0
5306,C2,390.5,0.5,97,102.0
5307,F#2,390.5,0.25,114,102.0
5308,C-1,390.542,1.0,60,102.0
5309,C-1,390.542,1.0,60,102.0
5310,G#6,390.558,67/1000,55,102.0
5311,G#5,390.575,1/20,54,102.0
5312,C-1,390.625,1.0,66,102.0
5313,C-1,390.625,1.0,66,102.0
5314,G#6,390.642,4.0,55,102.0
5315,G#5,390.642,4.0,54,102.0
5316,C-1,390.7,1.0,76,102.0
5317,C-1,390.7,1.0,76,102.0
5318,C#2,390.75,0.25,75,102.0
5319,A5,390.75,0.25,1,102.0
5320,F#2,390.75,0.25,104,102.0
5321,C-1,390.85,1.0,82,102.0
5322,E-2,391.0,0.25,100,102.0
5323,A5,391.0,0.25,43,102.0
5324,E2,391.0,0.25,109,102.0
5325,G#2,391.0,0.25,109,102.0
5326,C2,391.25,0.5,92,102.0
5327,F#2,391.25,0.25,96,102.0
5328,E-2,391.5,0.25,96,102.0
5329,A5,391.5,0.25,1,102.0
5330,F#2,391.5,0.25,114,102.0
5331,C-1,391.5,0.5,76,102.0
5332,C-1,391.5,0.5,76,102.0
5333,C-1,391.567,433/1000,68,102.0
5334,C-1,391.567,433/1000,68,102.0
5335,B-1,391.75,0.25,79,102.0
5336,A5,391.75,0.25,1,102.0
5337,F#2,391.75,0.25,100,102.0
5338,E1,392.0,0.25,79,102.0
5339,A5,392.0,0.25,34,102.0
5340,C2,392.0,0.5,107,102.0
5341,F#2,392.0,0.25,114,102.0
5342,C-1,392.0,0.5,76,102.0
5343,C-1,392.0,0.5,76,102.0
5344,C-1,392.0,567/1000,68,102.0
5345,C-1,392.0,567/1000,68,102.0
5346,F#4,392.017,117/1000,63,102.0
5347,E-4,392.017,117/1000,63,102.0
5348,G#3,392.017,117/1000,63,102.0
5349,B3,392.017,117/1000,63,102.0
5350,C-1,392.075,1.0,62,102.0
5351,C-1,392.175,1.0,58,102.0
5352,F#2,392.25,0.25,92,102.0
5353,C-1,392.475,1.0,55,102.0
5354,E1,392.5,0.25,62,102.0
5355,A5,392.5,0.25,1,102.0
5356,F#2,392.5,0.25,119,102.0
5357,C-1,392.542,1.0,52,102.0
5358,C-1,392.65,1.0,53,102.0
5359,E-4,392.733,83/1000,74,102.0
5360,B3,392.733,83/1000,74,102.0
5361,G#3,392.733,83/1000,74,102.0
5362,F#4,392.733,83/1000,74,102.0
5363,E2,392.75,0.5,94,102.0
5364,A5,392.75,0.25,1,102.0
5365,C2,392.75,0.25,83,102.0
5366,F#2,392.75,0.25,83,102.0
5367,C-1,392.767,1.0,50,102.0
5368,A5,393.0,0.25,37,102.0
5369,E2,393.0,0.25,100,102.0
5370,G#2,393.0,0.25,100,102.0
5371,B1,393.25,0.25,54,102.0
5372,F#2,393.25,0.25,100,102.0
5373,C-1,393.333,1.0,48,102.0
5374,C#4,393.475,2317/1000,58,102.0
5375,B3,393.475,2317/1000,58,102.0
5376,G3,393.475,2317/1000,58,102.0
5377,F#4,393.483,1221/500,62,102.0
5378,E-1,393.5,1.0,96,102.0
5379,A5,393.5,0.25,1,102.0
5380,C2,393.5,0.5,85,102.0
5381,F#2,393.5,0.25,114,102.0
5382,A5,393.75,0.25,1,102.0
5383,F#2,393.75,0.25,100,102.0
5384,A5,394.0,0.25,30,102.0
5385,F#2,394.0,0.25,109,102.0
5386,C-1,394.083,1.0,44,102.0
5387,C-1,394.083,1.0,44,102.0
5388,C-1,394.25,1.0,42,102.0
5389,F#2,394.25,0.25,100,102.0
5390,E-2,394.5,0.25,109,102.0
5391,A5,394.5,0.25,1,102.0
5392,C2,394.5,0.5,97,102.0
5393,F#2,394.5,0.25,114,102.0
5394,G#6,394.642,159/40,55,102.0
5395,G#5,394.642,39/20,54,102.0
5396,C-1,394.667,1.0,40,102.0
5397,B-1,394.75,0.25,100,102.0
5398,A5,394.75,0.25,2,102.0
5399,F#2,394.75,0.25,84,102.0
5400,C-1,394.833,1.0,39,102.0
5401,F#1,395.0,0.25,89,102.0
5402,A5,395.0,0.25,34,102.0
5403,E2,395.0,0.5,113,102.0
5404,G#2,395.0,0.25,114,102.0
5405,C-1,395.125,0.875,37,102.0
5406,F#2,395.25,0.25,92,102.0
5407,G1,395.5,0.5,76,102.0
5408,A5,395.5,0.25,1,102.0
5409,C2,395.5,0.25,90,102.0
5410,F#2,395.5,0.25,90,102.0
5411,A5,395.75,0.25,1,102.0
5412,F#2,395.75,0.25,96,102.0
5413,C#5,395.858,371/500,98,102.0
5414,C#6,395.858,371/500,98,102.0
5415,B3,395.967,33/1000,68,102.0
5416,E-4,395.967,33/1000,68,102.0
5417,F#3,395.983,17/1000,58,102.0
5418,F#3,396.0,1833/1000,58,102.0
5419,G#1,396.0,0.75,114,102.0
5420,C-1,396.0,0.125,37,102.0
5421,A5,396.0,0.25,30,102.0
5422,C2,396.0,0.5,94,102.0
5423,F#2,396.0,0.25,119,102.0
5424,B3,396.0,929/500,68,102.0
5425,E-4,396.0,929/500,68,102.0
5426,F#2,396.25,0.25,92,102.0
5427,A5,396.5,0.25,1,102.0
5428,F#2,396.5,0.25,114,102.0
5429,C#6,396.5,2067/1000,48,102.0
5430,C#5,396.5,2067/1000,48,102.0
5431,E-6,396.575,0.25,79,102.0
5432,E-5,396.608,333/1000,104,102.0
5433,A5,396.75,0.25,1,102.0
5434,C2,396.75,0.25,92,102.0
5435,F#2,396.75,0.25,92,102.0
5436,G#1,397.0,0.75,104,102.0
5437,A5,397.0,0.25,23,102.0
5438,E2,397.0,0.5,101,102.0
5439,G#2,397.0,0.25,114,102.0
5440,F#2,397.25,0.25,92,102.0
5441,F#6,397.292,51/20,86,102.0
5442,F#5,397.292,51/20,86,102.0
5443,A5,397.5,0.25,1,102.0
5444,C2,397.5,0.25,102,102.0
5445,F#2,397.5,0.25,102,102.0
5446,A1,397.75,0.25,58,102.0
5447,A5,397.75,0.25,1,102.0
5448,F#2,397.75,0.25,96,102.0
5449,B1,398.0,0.5,101,102.0
5450,A5,398.0,0.25,25,102.0
5451,C2,398.0,0.75,97,102.0
5452,F#2,398.0,0.25,119,102.0
5453,C#4,398.0,33/20,70,102.0
5454,A3,398.0,33/20,70,102.0
5455,B3,398.017,1.75,64,102.0
5456,E4,398.025,377/250,79,102.0
5457,F#2,398.25,0.25,86,102.0
5458,A5,398.5,0.25,1,102.0
5459,F#2,398.5,0.25,119,102.0
5460,E-6,398.542,1/10,68,102.0
5461,E-5,398.542,1/10,68,102.0
5462,E-6,398.642,161/40,68,102.0
5463,E-5,398.642,161/40,68,102.0
5464,B1,398.75,0.25,66,102.0
5465,A5,398.75,0.25,1,102.0
5466,C2,398.75,0.25,89,102.0
5467,F#2,398.75,0.25,89,102.0
5468,E-1,399.0,0.25,86,102.0
5469,A5,399.0,0.25,32,102.0
5470,E2,399.0,0.25,106,102.0
5471,G#2,399.0,0.25,106,102.0
5472,F#2,399.25,0.25,100,102.0
5473,E-1,399.5,0.25,68,102.0
5474,A5,399.5,0.25,1,102.0
5475,E2,399.5,0.25,92,102.0
5476,E-1,399.75,0.25,69,102.0
5477,A5,399.75,0.25,1,102.0
5478,E2,399.75,0.25,86,102.0
5479,F#6,399.842,1817/1000,86,102.0
5480,F#5,399.842,1817/1000,86,102.0
5481,E1,400.0,0.25,71,102.0
5482,A5,400.0,0.25,23,102.0
5483,C2,400.0,0.5,110,102.0
5484,F#2,400.0,0.25,119,102.0
5485,E-4,400.017,83/1000,88,102.0
5486,B3,400.017,83/1000,88,102.0
5487,G#3,400.017,83/1000,88,102.0
5488,F#4,400.017,83/1000,88,102.0
5489,F#2,400.25,0.25,84,102.0
5490,E1,400.5,0.25,71,102.0
5491,A5,400.5,0.25,1,102.0
5492,F#2,400.5,0.25,114,102.0
5493,E-4,400.733,3/40,89,102.0
5494,F#4,400.733,3/40,89,102.0
5495,G#3,400.733,3/40,89,102.0
5496,B3,400.733,3/40,89,102.0
5497,E2,400.75,0.5,97,102.0
5498,A5,400.75,0.25,3,102.0
5499,C2,400.75,0.25,86,102.0
5500,F#2,400.75,0.25,86,102.0
5501,A5,401.0,0.25,32,102.0
5502,E2,401.0,0.25,110,102.0
5503,G#2,401.0,0.25,110,102.0
5504,B1,401.25,0.25,64,102.0
5505,F#2,401.25,0.25,86,102.0
5506,E-1,401.5,1.0,92,102.0
5507,A5,401.5,0.25,1,102.0
5508,C2,401.5,0.5,104,102.0
5509,F#2,401.5,0.25,114,102.0
5510,B3,401.5,1129/500,80,102.0
5511,C#4,401.5,1129/500,80,102.0
5512,F#4,401.5,1129/500,80,102.0
5513,G3,401.5,1129/500,80,102.0
5514,A5,401.75,0.25,4,102.0
5515,F#2,401.75,0.25,89,102.0
5516,A5,402.0,0.25,27,102.0
5517,F#2,402.0,0.25,114,102.0
5518,F#2,402.25,0.25,86,102.0
5519,E-2,402.5,0.25,92,102.0
5520,A5,402.5,0.25,1,102.0
5521,C2,402.5,0.5,99,102.0
5522,F#2,402.5,0.25,119,102.0
5523,C#5,402.608,33/1000,54,102.0
5524,C#6,402.608,33/1000,73,102.0
5525,C#5,402.667,977/250,54,102.0
5526,C#6,402.667,499/125,73,102.0
5527,B-1,402.75,0.25,89,102.0
5528,A5,402.75,0.25,1,102.0
5529,F#2,402.75,0.25,92,102.0
5530,F#1,403.0,0.25,81,102.0
5531,A5,403.0,0.25,30,102.0
5532,E2,403.0,0.5,107,102.0
5533,G#2,403.0,0.25,119,102.0
5534,F#2,403.25,0.25,96,102.0
5535,G1,403.5,0.5,86,102.0
5536,A5,403.5,0.25,1,102.0
5537,C2,403.5,0.25,104,102.0
5538,F#2,403.5,0.25,104,102.0
5539,A5,403.75,0.25,1,102.0
5540,F#2,403.75,0.25,73,102.0
5541,C#6,403.842,371/500,106,102.0
5542,C#5,403.842,371/500,106,102.0
5543,B3,403.95,1/20,68,102.0
5544,E-4,403.95,1/20,68,102.0
5545,F#3,403.95,1/20,68,102.0
5546,G#1,404.0,0.5,104,102.0
5547,A5,404.0,0.25,37,102.0
5548,C2,404.0,0.5,107,102.0
5549,F#2,404.0,0.25,124,102.0
5550,B3,404.0,1/20,68,102.0
5551,E-4,404.0,1/20,68,102.0
5552,F#3,404.0,1/20,68,102.0
5553,F#2,404.25,0.25,84,102.0
5554,A5,404.5,0.25,1,102.0
5555,F#2,404.5,0.25,114,102.0
5556,E-6,404.642,24/125,98,102.0
5557,E-5,404.642,24/125,98,102.0
5558,G#1,404.75,0.5,104,102.0
5559,A5,404.75,0.25,1,102.0
5560,E-4,404.75,23/250,78,102.0
5561,F#3,404.75,23/250,78,102.0
5562,B3,404.75,23/250,78,102.0
5563,C2,404.75,0.25,93,102.0
5564,F#2,404.75,0.25,93,102.0
5565,A5,405.0,0.25,34,102.0
5566,E2,405.0,0.25,112,102.0
5567,G#2,405.0,0.25,112,102.0
5568,E-2,405.25,0.25,81,102.0
5569,F#2,405.25,0.25,96,102.0
5570,C#6,405.333,2383/1000,104,102.0
5571,C#5,405.333,2383/1000,104,102.0
5572,B3,405.483,1179/500,70,102.0
5573,G#3,405.483,1179/500,70,102.0
5574,F3,405.483,1179/500,70,102.0
5575,E-4,405.5,23/10,62,102.0
5576,C#2,405.5,0.75,96,102.0
5577,A5,405.5,0.25,1,102.0
5578,C2,405.5,0.5,94,102.0
5579,F#2,405.5,0.25,119,102.0
5580,A5,405.75,0.25,8,102.0
5581,F#2,405.75,0.25,66,102.0
5582,A5,406.0,0.25,40,102.0
5583,F#2,406.0,0.25,109,102.0
5584,F#2,406.25,0.25,89,102.0
5585,C#2,406.5,0.5,100,102.0
5586,A5,406.5,0.25,1,102.0
5587,C2,406.5,0.5,101,102.0
5588,F#2,406.5,0.25,119,102.0
5589,F6,406.592,3/40,66,102.0
5590,F5,406.592,3/40,55,102.0
5591,F6,406.667,4.0,66,102.0
5592,F5,406.667,4.0,55,102.0
5593,A5,406.75,0.25,11,102.0
5594,F#2,406.75,0.25,92,102.0
5595,A5,407.0,0.25,40,102.0
5596,E2,407.0,0.25,106,102.0
5597,G#2,407.0,0.25,106,102.0
5598,C#2,407.25,0.25,89,102.0
5599,C2,407.25,0.5,104,102.0
5600,F#2,407.25,0.25,96,102.0
5601,E-2,407.5,0.25,100,102.0
5602,A5,407.5,0.25,1,102.0
5603,F#2,407.5,0.25,114,102.0
5604,A5,407.75,0.25,12,102.0
5605,F#2,407.75,0.25,75,102.0
5606,B4,407.775,67/1000,70,102.0
5607,B5,407.775,67/1000,70,102.0
5608,B4,407.842,371/500,70,102.0
5609,B5,407.842,371/500,70,102.0
5610,E1,408.0,1.75,85,102.0
5611,A5,408.0,0.25,46,102.0
5612,C2,408.0,0.5,104,102.0
5613,F#2,408.0,0.25,119,102.0
5614,G3,408.008,1767/1000,85,102.0
5615,B3,408.008,1767/1000,85,102.0
5616,D4,408.008,1767/1000,85,102.0
5617,A3,408.025,1767/1000,86,102.0
5618,D4,408.025,1767/1000,86,102.0
5619,A5,408.25,0.25,1,102.0
5620,F#2,408.25,0.25,64,102.0
5621,A5,408.5,0.25,18,102.0
5622,F#2,408.5,0.25,104,102.0
5623,E-5,408.583,667/1000,81,102.0
5624,E-6,408.583,667/1000,81,102.0
5625,C2,408.75,0.25,90,102.0
5626,F#2,408.75,0.25,90,102.0
5627,E2,409.0,0.25,85,102.0
5628,A5,409.0,0.25,25,102.0
5629,E2,409.0,0.5,94,102.0
5630,G#2,409.0,0.25,119,102.0
5631,F#2,409.25,0.25,96,102.0
5632,C#5,409.267,1021/500,80,102.0
5633,C#6,409.267,1021/500,80,102.0
5634,E2,409.5,0.25,82,102.0
5635,A5,409.5,0.25,15,102.0
5636,C2,409.5,0.25,100,102.0
5637,F#2,409.5,0.25,100,102.0
5638,B1,409.75,0.25,64,102.0
5639,A5,409.75,0.25,27,102.0
5640,F#2,409.75,0.25,86,102.0
5641,C#4,409.975,1767/1000,86,102.0
5642,E4,409.975,1767/1000,86,102.0
5643,A3,409.975,1767/1000,86,102.0
5644,F#1,410.0,0.75,100,102.0
5645,A5,410.0,0.25,13,102.0
5646,C2,410.0,0.5,80,102.0
5647,F#2,410.0,0.25,114,102.0
5648,F#2,410.25,0.25,89,102.0
5649,A5,410.5,0.25,1,102.0
5650,F#2,410.5,0.25,114,102.0
5651,F6,410.667,1979/500,66,102.0
5652,F5,410.667,4.0,55,102.0
5653,A5,410.75,0.25,8,102.0
5654,C2,410.75,0.25,92,102.0
5655,F#2,410.75,0.25,92,102.0
5656,F#1,411.0,1.0,100,102.0
5657,A5,411.0,0.25,50,102.0
5658,E2,411.0,0.25,107,102.0
5659,F#2,411.25,0.25,92,102.0
5660,B5,411.308,7/20,66,102.0
5661,B4,411.308,7/20,66,102.0
5662,A5,411.5,0.25,1,102.0
5663,E2,411.5,0.25,86,102.0
5664,C#6,411.575,267/1000,88,102.0
5665,C#5,411.575,267/1000,88,102.0
5666,A5,411.75,0.25,7,102.0
5667,E2,411.75,0.25,94,102.0
5668,C#6,411.842,1/125,88,102.0
5669,C#5,411.842,1/125,88,102.0
5670,D5,411.85,829/500,90,102.0
5671,D6,411.85,1767/1000,94,102.0
5672,E1,412.0,0.25,88,102.0
5673,A5,412.0,0.25,46,102.0
5674,C2,412.0,0.5,110,102.0
5675,F#2,412.0,0.25,119,102.0
5676,F#4,412.0,27/250,86,102.0
5677,B3,412.0,27/250,86,102.0
5678,G#3,412.0,27/250,86,102.0
5679,E-4,412.0,27/250,92,102.0
5680,G#3,412.0,27/250,92,102.0
5681,A5,412.25,0.25,1,102.0
5682,F#2,412.25,0.25,86,102.0
5683,E1,412.5,0.25,65,102.0
5684,A5,412.5,0.25,18,102.0
5685,F#2,412.5,0.25,109,102.0
5686,E2,412.75,0.5,97,102.0
5687,C2,412.75,0.25,94,102.0
5688,F#2,412.75,0.25,94,102.0
5689,E-4,412.767,1/10,87,102.0
5690,F#4,412.767,1/10,87,102.0
5691,B3,412.767,1/10,87,102.0
5692,G#3,412.767,1/10,87,102.0
5693,A5,413.0,0.25,25,102.0
5694,E2,413.0,0.25,113,102.0
5695,G#2,413.0,0.25,113,102.0
5696,B1,413.25,0.25,62,102.0
5697,F#2,413.25,0.25,92,102.0
5698,C#4,413.483,2417/1000,78,102.0
5699,B3,413.483,2417/1000,78,102.0
5700,C#5,413.492,13/40,54,102.0
5701,F#4,413.492,93/40,76,102.0
5702,G3,413.492,93/40,76,102.0
5703,E-1,413.5,1.0,81,102.0
5704,A5,413.5,0.25,15,102.0
5705,C2,413.5,0.75,101,102.0
5706,F#2,413.5,0.25,119,102.0
5707,B5,413.617,167/1000,41,102.0
5708,C#6,413.633,129/500,28,102.0
5709,A5,413.75,0.25,27,102.0
5710,F#2,413.75,0.25,89,102.0
5711,E5,413.817,979/500,88,102.0
5712,E6,413.817,979/500,88,102.0
5713,A5,414.0,0.25,13,102.0
5714,F#2,414.0,0.25,114,102.0
5715,F#2,414.25,0.25,86,102.0
5716,E-2,414.5,0.25,89,102.0
5717,A5,414.5,0.25,1,102.0
5718,C2,414.5,0.5,80,102.0
5719,F#2,414.5,0.25,114,102.0
5720,F#5,414.592,3/40,70,102.0
5721,F#6,414.592,3/40,70,102.0
5722,F5,414.667,33/1000,55,102.0
5723,F#5,414.667,4.0,70,102.0
5724,F#6,414.667,4.0,70,102.0
5725,B-1,414.75,0.25,79,102.0
5726,A5,414.75,0.25,8,102.0
5727,F#2,414.75,0.25,89,102.0
5728,F#1,415.0,0.25,86,102.0
5729,A5,415.0,0.25,50,102.0
5730,E2,415.0,0.25,113,102.0
5731,G#2,415.0,0.25,113,102.0
5732,F#2,415.25,0.25,89,102.0
5733,G1,415.5,0.5,88,102.0
5734,A5,415.5,0.25,1,102.0
5735,C2,415.5,0.25,92,102.0
5736,F#2,415.5,0.25,92,102.0
5737,A5,415.75,0.25,7,102.0
5738,F#2,415.75,0.25,81,102.0
5739,C#6,415.817,1/40,99,102.0
5740,C#5,415.817,1/40,99,102.0
5741,C#6,415.842,7/10,99,102.0
5742,C#5,415.842,7/10,99,102.0
5743,E-4,416.0,1829/500,66,102.0
5744,G#1,416.0,0.75,104,102.0
5745,A5,416.0,0.25,46,102.0
5746,C2,416.0,0.5,86,102.0
5747,F#2,416.0,0.25,124,102.0
5748,B3,416.0,9/5,91,102.0
5749,F#3,416.0,9/5,91,102.0
5750,F#2,416.25,0.25,92,102.0
5751,A5,416.5,0.25,1,102.0
5752,F#2,416.5,0.25,109,102.0
5753,E-6,416.55,267/1000,102,102.0
5754,E-5,416.55,267/1000,102,102.0
5755,A5,416.75,0.25,2,102.0
5756,C2,416.75,0.25,93,102.0
5757,F#2,416.75,0.25,93,102.0
5758,G#1,417.0,0.75,96,102.0
5759,A5,417.0,0.25,37,102.0
5760,E2,417.0,0.25,102,102.0
5761,G#2,417.0,0.25,102,102.0
5762,F#2,417.25,0.25,81,102.0
5763,A5,417.5,0.25,1,102.0
5764,C2,417.5,0.25,104,102.0
5765,F#2,417.5,0.25,104,102.0
5766,B-1,417.75,0.25,79,102.0
5767,A5,417.75,0.25,1,102.0
5768,F#2,417.75,0.25,63,102.0
5769,B-3,417.958,83/1000,73,102.0
5770,C#2,418.0,0.5,96,102.0
5771,A5,418.0,0.25,34,102.0
5772,C2,418.0,0.5,86,102.0
5773,F#2,418.0,0.25,114,102.0
5774,F3,418.0,201/125,87,102.0
5775,G#3,418.0,201/125,87,102.0
5776,B3,418.0,201/125,87,102.0
5777,F#2,418.25,0.25,79,102.0
5778,A5,418.5,0.25,1,102.0
5779,F#2,418.5,0.25,114,102.0
5780,F#5,418.667,141/40,70,102.0
5781,F#6,418.667,141/40,70,102.0
5782,C#2,418.75,0.25,63,102.0
5783,A5,418.75,0.25,1,102.0
5784,C2,418.75,0.25,84,102.0
5785,F#2,418.75,0.25,84,102.0
5786,E-2,419.0,0.25,96,102.0
5787,A5,419.0,0.25,37,102.0
5788,E2,419.0,0.25,106,102.0
5789,G#2,419.0,0.25,106,102.0
5790,F#2,419.25,0.25,89,102.0
5791,E-2,419.5,0.25,89,102.0
5792,A5,419.5,0.25,1,102.0
5793,E2,419.5,0.25,106,102.0
5794,F#2,419.5,0.25,106,102.0
5795,B-1,419.75,0.25,30,102.0
5796,A5,419.75,0.25,4,102.0
5797,E2,419.75,0.25,84,102.0
5798,F#2,419.75,0.25,84,102.0
5799,E1,420.0,0.25,85,102.0
5800,A5,420.0,0.25,30,102.0
5801,C2,420.0,0.5,92,102.0
5802,F#2,420.0,0.25,124,102.0
5803,E-4,420.0,117/1000,88,102.0
5804,B3,420.0,117/1000,88,102.0
5805,G#3,420.0,117/1000,88,102.0
5806,F#4,420.008,117/1000,81,102.0
5807,B3,420.008,117/1000,81,102.0
5808,G#3,420.008,117/1000,81,102.0
5809,F#2,420.25,0.25,89,102.0
5810,E1,420.5,0.25,62,102.0
5811,A5,420.5,0.25,1,102.0
5812,F#2,420.5,0.25,114,102.0
5813,E2,420.75,0.5,97,102.0
5814,A5,420.75,0.25,1,102.0
5815,C2,420.75,0.25,92,102.0
5816,F#2,420.75,0.25,92,102.0
5817,F#4,420.758,1/10,70,102.0
5818,G#3,420.758,1/10,70,102.0
5819,E-4,420.758,3/40,89,102.0
5820,G#3,420.758,3/40,89,102.0
5821,B3,420.758,3/40,89,102.0
5822,A5,421.0,0.25,46,102.0
5823,E2,421.0,0.25,110,102.0
5824,G#2,421.0,0.25,110,102.0
5825,B1,421.25,0.25,57,102.0
5826,F#2,421.25,0.25,89,102.0
5827,E-1,421.5,1.0,96,102.0
5828,A5,421.5,0.25,1,102.0
5829,C2,421.5,0.75,79,102.0
5830,F#2,421.5,0.25,114,102.0
5831,C#4,421.508,299/125,87,102.0
5832,B3,421.508,299/125,87,102.0
5833,F#4,421.508,299/125,87,102.0
5834,G3,421.508,299/125,78,102.0
5835,F#4,421.508,299/125,78,102.0
5836,A5,421.75,0.25,1,102.0
5837,F#2,421.75,0.25,96,102.0
5838,A5,422.0,0.25,37,102.0
5839,F#2,422.0,0.25,119,102.0
5840,F#2,422.25,0.25,79,102.0
5841,E-2,422.5,0.25,100,102.0
5842,A5,422.5,0.25,1,102.0
5843,C2,422.5,0.5,97,102.0
5844,F#2,422.5,0.25,109,102.0
5845,F#5,422.667,4.0,54,102.0
5846,F#4,422.667,4.0,54,102.0
5847,B-1,422.75,0.25,21,102.0
5848,A5,422.75,0.25,1,102.0
5849,F#2,422.75,0.25,84,102.0
5850,F#1,423.0,0.25,63,102.0
5851,A5,423.0,0.25,43,102.0
5852,E2,423.0,0.5,104,102.0
5853,G#2,423.0,0.25,119,102.0
5854,F#2,423.25,0.25,77,102.0
5855,G1,423.5,0.5,88,102.0
5856,A5,423.5,0.25,1,102.0
5857,C2,423.5,0.25,75,102.0
5858,F#2,423.5,0.25,75,102.0
5859,A5,423.75,0.25,1,102.0
5860,F#2,423.75,0.25,92,102.0
5861,C#5,423.833,1/125,109,102.0
5862,C#6,423.833,1/125,109,102.0
5863,C#5,423.842,0.75,109,102.0
5864,C#6,423.842,0.75,109,102.0
5865,G#1,424.0,0.75,109,102.0
5866,A5,424.0,0.25,34,102.0
5867,C2,424.0,0.5,97,102.0
5868,F#2,424.0,0.25,124,102.0
5869,B3,424.017,37/20,64,102.0
5870,E-4,424.017,37/20,64,102.0
5871,F#3,424.033,1767/1000,100,102.0
5872,F#2,424.25,0.25,92,102.0
5873,A5,424.5,0.25,1,102.0
5874,F#2,424.5,0.25,92,102.0
5875,E-6,424.592,3/20,109,102.0
5876,E-5,424.592,3/20,109,102.0
5877,G#1,424.75,1.0,104,102.0
5878,A5,424.75,0.25,1,102.0
5879,C2,424.75,0.25,92,102.0
5880,F#2,424.75,0.25,92,102.0
5881,A5,425.0,0.25,37,102.0
5882,E2,425.0,0.25,110,102.0
5883,G#2,425.0,0.25,110,102.0
5884,F#2,425.25,0.25,96,102.0
5885,F#6,425.317,2283/1000,98,102.0
5886,F#5,425.317,2283/1000,98,102.0
5887,A5,425.5,0.25,1,102.0
5888,C2,425.5,0.25,108,102.0
5889,F#2,425.5,0.25,108,102.0
5890,B-1,425.75,0.25,77,102.0
5891,A5,425.75,0.25,1,102.0
5892,F#2,425.75,0.25,89,102.0
5893,B1,426.0,0.5,86,102.0
5894,A5,426.0,0.25,30,102.0
5895,C2,426.0,0.5,104,102.0
5896,F#2,426.0,0.25,119,102.0
5897,C#4,426.008,879/500,71,102.0
5898,B3,426.008,879/500,71,102.0
5899,A3,426.008,879/500,71,102.0
5900,E4,426.017,879/500,82,102.0
5901,A3,426.017,879/500,82,102.0
5902,F#2,426.25,0.25,75,102.0
5903,A5,426.5,0.25,1,102.0
5904,F#2,426.5,0.25,114,102.0
5905,B1,426.75,0.25,71,102.0
5906,A5,426.75,0.25,2,102.0
5907,C2,426.75,0.25,90,102.0
5908,F#2,426.75,0.25,90,102.0
5909,E-1,427.0,0.25,109,102.0
5910,A5,427.0,0.25,34,102.0
5911,E2,427.0,0.5,101,102.0
5912,G#2,427.0,0.25,126,102.0
5913,F#2,427.25,0.25,89,102.0
5914,E-1,427.5,0.25,69,102.0
5915,A5,427.5,0.25,1,102.0
5916,C2,427.5,0.25,106,102.0
5917,F#2,427.5,0.25,106,102.0
5918,E-1,427.75,0.25,54,102.0
5919,A5,427.75,0.25,1,102.0
5920,F#2,427.75,0.25,92,102.0
5921,E1,428.0,0.25,76,102.0
5922,A5,428.0,0.25,30,102.0
5923,C2,428.0,0.5,101,102.0
5924,F#2,428.0,0.25,124,102.0
5925,B3,428.033,27/250,89,102.0
5926,E-4,428.033,27/250,89,102.0
5927,F#4,428.033,27/250,89,102.0
5928,G#3,428.033,27/250,89,102.0
5929,F#2,428.25,0.25,84,102.0
5930,E1,428.5,0.25,79,102.0
5931,A5,428.5,0.25,1,102.0
5932,F#2,428.5,0.25,109,102.0
5933,E2,428.75,0.5,92,102.0
5934,A5,428.75,0.25,1,102.0
5935,C2,428.75,0.25,88,102.0
5936,F#2,428.75,0.25,88,102.0
5937,G#3,428.758,83/1000,84,102.0
5938,E-4,428.758,83/1000,84,102.0
5939,F#4,428.758,83/1000,84,102.0
5940,B3,428.758,83/1000,84,102.0
5941,A5,429.0,0.25,23,102.0
5942,E2,429.0,0.25,114,102.0
5943,G#2,429.0,0.25,114,102.0
5944,B1,429.25,0.25,66,102.0
5945,F#2,429.25,0.25,84,102.0
5946,C#4,429.475,577/250,92,102.0
5947,B3,429.475,577/250,92,102.0
5948,F#4,429.492,2183/1000,76,102.0
5949,G3,429.492,2183/1000,76,102.0
5950,E-1,429.5,1.0,96,102.0
5951,A5,429.5,0.25,1,102.0
5952,C2,429.5,0.75,104,102.0
5953,F#2,429.5,0.25,114,102.0
5954,A5,429.75,0.25,1,102.0
5955,F#2,429.75,0.25,92,102.0
5956,A5,430.0,0.25,25,102.0
5957,F#2,430.0,0.25,119,102.0
5958,F#2,430.25,0.25,89,102.0
5959,E-2,430.5,0.25,100,102.0
5960,A5,430.5,0.25,1,102.0
5961,C2,430.5,0.5,104,102.0
5962,F#2,430.5,0.25,100,102.0
5963,B-1,430.75,0.25,92,102.0
5964,A5,430.75,0.25,1,102.0
5965,F#2,430.75,0.25,89,102.0
5966,F#1,431.0,0.25,89,102.0
5967,A5,431.0,0.25,32,102.0
5968,E2,431.0,0.25,98,102.0
5969,G#2,431.0,0.25,98,102.0
5970,C2,431.25,0.5,99,102.0
5971,F#2,431.25,0.25,75,102.0
5972,G1,431.5,0.25,76,102.0
5973,A5,431.5,0.25,1,102.0
5974,F#2,431.5,0.25,114,102.0
5975,A5,431.75,0.25,1,102.0
5976,F#2,431.75,0.25,96,102.0
5977,C#5,431.817,1/40,104,102.0
5978,C#6,431.817,1/40,104,102.0
5979,C#5,431.842,4/5,104,102.0
5980,C#6,431.842,4/5,104,102.0
5981,B3,431.95,1/20,80,102.0
5982,E-4,431.95,1/20,80,102.0
5983,F#3,431.95,1/20,80,102.0
5984,G#1,432.0,0.5,109,102.0
5985,A5,432.0,0.25,23,102.0
5986,C2,432.0,0.5,101,102.0
5987,F#2,432.0,0.25,124,102.0
5988,B3,432.0,1/10,80,102.0
5989,E-4,432.0,1/10,80,102.0
5990,F#3,432.0,1/10,80,102.0
5991,F#2,432.25,0.25,100,102.0
5992,A5,432.5,0.25,1,102.0
5993,F#2,432.5,0.25,109,102.0
5994,E-6,432.625,7/40,114,102.0
5995,E-5,432.625,7/40,114,102.0
5996,F#3,432.725,67/1000,77,102.0
5997,E-4,432.725,67/1000,77,102.0
5998,B3,432.725,67/1000,77,102.0
5999,G#1,432.75,0.5,100,102.0
6000,A5,432.75,0.25,3,102.0
6001,C2,432.75,0.25,87,102.0
6002,F#2,432.75,0.25,87,102.0
6003,A5,433.0,0.25,32,102.0
6004,E2,433.0,0.5,99,102.0
6005,G#2,433.0,0.25,114,102.0
6006,E-2,433.25,0.25,86,102.0
6007,F#2,433.25,0.25,89,102.0
6008,C#6,433.283,2483/1000,96,102.0
6009,C#5,433.292,2333/1000,109,102.0
6010,B3,433.475,2433/1000,66,102.0
6011,F3,433.475,2433/1000,66,102.0
6012,G#3,433.475,2433/1000,66,102.0
6013,E-4,433.5,2283/1000,63,102.0
6014,C#2,433.5,0.75,100,102.0
6015,A5,433.5,0.25,1,102.0
6016,C2,433.5,0.75,104,102.0
6017,F#2,433.5,0.25,109,102.0
6018,A5,433.75,0.25,4,102.0
6019,F#2,433.75,0.25,84,102.0
6020,A5,434.0,0.25,27,102.0
6021,F#2,434.0,0.25,109,102.0
6022,F#2,434.25,0.25,86,102.0
6023,C#2,434.5,0.5,100,102.0
6024,A5,434.5,0.25,1,102.0
6025,C2,434.5,0.5,101,102.0
6026,F#2,434.5,0.25,109,102.0
6027,A5,434.75,0.25,1,102.0
6028,F#2,434.75,0.25,86,102.0
6029,A5,435.0,0.25,30,102.0
6030,E2,435.0,0.5,99,102.0
6031,G#2,435.0,0.25,114,102.0
6032,C#2,435.25,0.25,69,102.0
6033,F#2,435.25,0.25,92,102.0
6034,E-2,435.5,0.5,89,102.0
6035,A5,435.5,0.25,1,102.0
6036,C2,435.5,0.25,103,102.0
6037,F#2,435.5,0.25,103,102.0
6038,A5,435.75,0.25,1,102.0
6039,F#2,435.75,0.25,89,102.0
6040,B4,435.775,67/1000,82,102.0
6041,B5,435.775,67/1000,82,102.0
6042,B4,435.842,177/250,82,102.0
6043,B5,435.842,177/250,82,102.0
6044,E1,436.0,1.75,90,102.0
6045,A5,436.0,0.25,37,102.0
6046,C2,436.0,0.5,99,102.0
6047,F#2,436.0,0.25,119,102.0
6048,B3,436.042,1667/1000,72,102.0
6049,A3,436.042,1667/1000,72,102.0
6050,G3,436.042,1667/1000,72,102.0
6051,D4,436.042,1667/1000,72,102.0
6052,F#2,436.25,0.25,86,102.0
6053,A5,436.5,0.25,1,102.0
6054,F#2,436.5,0.25,109,102.0
6055,E-5,436.6,379/500,70,102.0
6056,E-6,436.6,379/500,70,102.0
6057,A5,436.75,0.25,1,102.0
6058,C2,436.75,0.25,87,102.0
6059,F#2,436.75,0.25,87,102.0
6060,E2,437.0,0.25,75,102.0
6061,A5,437.0,0.25,34,102.0
6062,E2,437.0,0.5,104,102.0
6063,G#2,437.0,0.25,114,102.0
6064,F#2,437.25,0.25,81,102.0
6065,C#5,437.283,2033/1000,92,102.0
6066,C#6,437.283,2033/1000,92,102.0
6067,E2,437.5,0.25,92,102.0
6068,A5,437.5,0.25,1,102.0
6069,C2,437.5,0.25,98,102.0
6070,F#2,437.5,0.25,98,102.0
6071,B1,437.75,0.25,66,102.0
6072,A5,437.75,0.25,8,102.0
6073,F#2,437.75,0.25,92,102.0
6074,A3,437.933,201/125,80,102.0
6075,C#4,437.933,201/125,80,102.0
6076,B3,437.95,423/250,78,102.0
6077,E4,437.958,373/250,92,102.0
6078,F#1,438.0,0.75,119,102.0
6079,A5,438.0,0.25,40,102.0
6080,C2,438.0,0.5,68,102.0
6081,F#2,438.0,0.25,114,102.0
6082,F#2,438.25,0.25,77,102.0
6083,A5,438.5,0.25,1,102.0
6084,F#2,438.5,0.25,104,102.0
6085,F#5,438.733,4.0,54,102.0
6086,F#4,438.733,4.0,54,102.0
6087,A5,438.75,0.25,11,102.0
6088,C2,438.75,0.25,87,102.0
6089,F#2,438.75,0.25,87,102.0
6090,F#1,439.0,0.75,100,102.0
6091,A5,439.0,0.25,40,102.0
6092,E2,439.0,0.25,104,102.0
6093,G#2,439.0,0.25,104,102.0
6094,F#2,439.25,0.25,96,102.0
6095,B4,439.317,3/10,72,102.0
6096,B5,439.317,3/10,72,102.0
6097,A5,439.5,0.25,1,102.0
6098,E2,439.5,0.25,100,102.0
6099,F#2,439.5,0.25,100,102.0
6100,C#5,439.575,267/1000,92,102.0
6101,C#6,439.575,1/5,96,102.0
6102,A5,439.75,0.25,12,102.0
6103,E2,439.75,0.25,83,102.0
6104,F#2,439.75,0.25,83,102.0
6105,D6,439.833,1/125,94,102.0
6106,D5,439.842,423/250,80,102.0
6107,D6,439.842,879/500,94,102.0
6108,E1,440.0,0.25,80,102.0
6109,A5,440.0,0.25,46,102.0
6110,C2,440.0,0.5,104,102.0
6111,G#2,440.0,0.25,119,102.0
6112,E-4,440.0,3/40,80,102.0
6113,G#3,440.0,3/40,80,102.0
6114,F#4,440.0,3/40,80,102.0
6115,B3,440.0,3/40,80,102.0
6116,A5,440.25,0.25,1,102.0
6117,G#2,440.25,0.25,100,102.0
6118,E1,440.5,0.25,69,102.0
6119,A5,440.5,0.25,18,102.0
6120,F#2,440.5,0.25,92,102.0
6121,E2,440.75,0.5,104,102.0
6122,C2,440.75,0.25,90,102.0
6123,F#2,440.75,0.25,90,102.0
6124,E-4,440.775,3/40,77,102.0
6125,G#3,440.775,3/40,77,102.0
6126,F#4,440.775,3/40,77,102.0
6127,B3,440.775,3/40,77,102.0
6128,A5,441.0,0.25,25,102.0
6129,E2,441.0,0.25,113,102.0
6130,G#2,441.0,0.25,113,102.0
6131,B1,441.25,0.25,46,102.0
6132,F#2,441.25,0.25,96,102.0
6133,C#5,441.475,333/1000,52,102.0
6134,B3,441.483,1221/500,80,102.0
6135,C#4,441.483,1221/500,80,102.0
6136,F#4,441.483,1221/500,80,102.0
6137,G3,441.492,2333/1000,82,102.0
6138,E-1,441.5,1.0,100,102.0
6139,A5,441.5,0.25,15,102.0
6140,C2,441.5,0.5,110,102.0
6141,F#2,441.5,0.25,104,102.0
6142,B5,441.558,26/125,58,102.0
6143,C#6,441.65,121/500,43,102.0
6144,D5,441.733,27/250,55,102.0
6145,A5,441.75,0.25,27,102.0
6146,F#2,441.75,0.25,100,102.0
6147,E5,441.833,427/250,86,102.0
6148,E6,441.833,427/250,86,102.0
6149,A5,442.0,0.25,13,102.0
6150,F#2,442.0,0.25,119,102.0
6151,F#2,442.25,0.25,96,102.0
6152,E-2,442.5,0.25,100,102.0
6153,A5,442.5,0.25,1,102.0
6154,C2,442.5,0.5,110,102.0
6155,F#2,442.5,0.25,96,102.0
6156,B-1,442.75,0.25,92,102.0
6157,A5,442.75,0.25,8,102.0
6158,F#2,442.75,0.25,92,102.0
6159,F#1,443.0,0.25,79,102.0
6160,A5,443.0,0.25,50,102.0
6161,E2,443.0,0.25,112,102.0
6162,G#2,443.0,0.25,112,102.0
6163,F#2,443.25,0.25,92,102.0
6164,G1,443.5,0.5,94,102.0
6165,A5,443.5,0.25,1,102.0
6166,C2,443.5,0.25,100,102.0
6167,F#2,443.5,0.25,100,102.0
6168,A5,443.75,0.25,7,102.0
6169,F#2,443.75,0.25,100,102.0
6170,C#6,443.842,31/40,96,102.0
6171,C#5,443.842,31/40,96,102.0
6172,B3,443.967,33/1000,76,102.0
6173,F#3,443.967,33/1000,76,102.0
6174,E-4,443.983,17/1000,96,102.0
6175,E-4,444.0,1867/1000,96,102.0
6176,G#1,444.0,0.75,109,102.0
6177,A5,444.0,0.25,46,102.0
6178,C2,444.0,0.5,107,102.0
6179,F#2,444.0,0.25,124,102.0
6180,B3,444.0,1733/1000,76,102.0
6181,F#3,444.0,1733/1000,76,102.0
6182,F#2,444.25,0.25,77,102.0
6183,A5,444.5,0.25,1,102.0
6184,F#2,444.5,0.25,104,102.0
6185,E-5,444.6,79/500,86,102.0
6186,E-6,444.6,79/500,86,102.0
6187,A5,444.75,0.25,2,102.0
6188,C2,444.75,0.25,92,102.0
6189,F#2,444.75,0.25,92,102.0
6190,G#1,445.0,0.75,96,102.0
6191,A5,445.0,0.25,37,102.0
6192,E2,445.0,0.25,112,102.0
6193,G#2,445.0,0.25,112,102.0
6194,F#2,445.25,0.25,109,102.0
6195,A5,445.5,0.25,1,102.0
6196,C2,445.5,0.5,79,102.0
6197,F#2,445.5,0.25,109,102.0
6198,B-1,445.75,0.25,57,102.0
6199,A5,445.75,0.25,1,102.0
6200,F#2,445.75,0.25,100,102.0
6201,E-4,445.95,779/500,74,102.0
6202,F3,445.95,779/500,74,102.0
6203,B3,445.95,779/500,74,102.0
6204,G#3,445.95,779/500,74,102.0
6205,C#2,446.0,0.5,104,102.0
6206,A5,446.0,0.25,34,102.0
6207,F#2,446.0,0.25,119,102.0
6208,F#2,446.25,0.25,75,102.0
6209,A5,446.5,0.25,1,102.0
6210,C2,446.5,0.5,97,102.0
6211,F#2,446.5,0.25,114,102.0
6212,C#2,446.75,0.25,75,102.0
6213,A5,446.75,0.25,1,102.0
6214,F#2,446.75,0.25,104,102.0
6215,E-2,447.0,0.25,100,102.0
6216,A5,447.0,0.25,37,102.0
6217,E2,447.0,0.25,109,102.0
6218,G#2,447.0,0.25,109,102.0
6219,C2,447.25,0.5,92,102.0
6220,F#2,447.25,0.25,96,102.0
6221,E-2,447.5,0.25,96,102.0
6222,A5,447.5,0.25,1,102.0
6223,F#2,447.5,0.25,114,102.0
6224,B-1,447.75,0.25,79,102.0
6225,A5,447.75,0.25,4,102.0
6226,F#2,447.75,0.25,100,102.0
6227,E1,448.0,0.25,79,102.0
6228,A5,448.0,0.25,30,102.0
6229,C2,448.0,0.5,107,102.0
6230,F#2,448.0,0.25,114,102.0
6231,F#4,448.017,117/1000,63,102.0
6232,E-4,448.017,117/1000,63,102.0
6233,G#3,448.017,117/1000,63,102.0
6234,B3,448.017,117/1000,63,102.0
6235,F#2,448.25,0.25,92,102.0
6236,E1,448.5,0.25,62,102.0
6237,A5,448.5,0.25,1,102.0
6238,F#2,448.5,0.25,119,102.0
6239,E-4,448.733,83/1000,74,102.0
6240,B3,448.733,83/1000,74,102.0
6241,G#3,448.733,83/1000,74,102.0
6242,F#4,448.733,83/1000,74,102.0
6243,E2,448.75,0.5,94,102.0
6244,A5,448.75,0.25,1,102.0
6245,C2,448.75,0.25,83,102.0
6246,F#2,448.75,0.25,83,102.0
6247,A5,449.0,0.25,46,102.0
6248,E2,449.0,0.25,100,102.0
6249,G#2,449.0,0.25,100,102.0
6250,B1,449.25,0.25,54,102.0
6251,F#2,449.25,0.25,100,102.0
6252,C#4,449.475,2317/1000,58,102.0
6253,B3,449.475,2317/1000,58,102.0
6254,G3,449.475,2317/1000,58,102.0
6255,F#4,449.483,1221/500,62,102.0
6256,E-1,449.5,1.0,96,102.0
6257,A5,449.5,0.25,1,102.0
6258,C2,449.5,0.5,85,102.0
6259,F#2,449.5,0.25,114,102.0
6260,A5,449.75,0.25,1,102.0
6261,F#2,449.75,0.25,100,102.0
6262,A5,450.0,0.25,37,102.0
6263,F#2,450.0,0.25,109,102.0
6264,F#2,450.25,0.25,100,102.0
6265,E-2,450.5,0.25,109,102.0
6266,A5,450.5,0.25,1,102.0
6267,C2,450.5,0.5,97,102.0
6268,F#2,450.5,0.25,114,102.0
6269,B-1,450.75,0.25,100,102.0
6270,A5,450.75,0.25,1,102.0
6271,F#2,450.75,0.25,84,102.0
6272,F#5,450.8,4.0,54,102.0
6273,F#4,450.8,4.0,54,102.0
6274,F#1,451.0,0.25,89,102.0
6275,A5,451.0,0.25,43,102.0
6276,E2,451.0,0.5,113,102.0
6277,G#2,451.0,0.25,114,102.0
6278,F#2,451.25,0.25,92,102.0
6279,G1,451.5,0.5,76,102.0
6280,A5,451.5,0.25,1,102.0
6281,C2,451.5,0.25,90,102.0
6282,F#2,451.5,0.25,90,102.0
6283,A5,451.75,0.25,1,102.0
6284,F#2,451.75,0.25,96,102.0
6285,C#5,451.858,371/500,98,102.0
6286,C#6,451.858,371/500,98,102.0
6287,B3,451.967,33/1000,68,102.0
6288,E-4,451.967,33/1000,68,102.0
6289,F#3,451.983,17/1000,58,102.0
6290,F#3,452.0,1833/1000,58,102.0
6291,G#1,452.0,0.75,114,102.0
6292,A5,452.0,0.25,34,102.0
6293,C2,452.0,0.5,94,102.0
6294,F#2,452.0,0.25,119,102.0
6295,B3,452.0,929/500,68,102.0
6296,E-4,452.0,929/500,68,102.0
6297,F#2,452.25,0.25,92,102.0
6298,A5,452.5,0.25,1,102.0
6299,F#2,452.5,0.25,114,102.0
6300,E-6,452.575,0.25,79,102.0
6301,E-5,452.608,333/1000,104,102.0
6302,A5,452.75,0.25,1,102.0
6303,C2,452.75,0.25,92,102.0
6304,F#2,452.75,0.25,92,102.0
6305,G#1,453.0,0.75,104,102.0
6306,A5,453.0,0.25,37,102.0
6307,E2,453.0,0.5,101,102.0
6308,G#2,453.0,0.25,114,102.0
6309,F#2,453.25,0.25,92,102.0
6310,F#6,453.292,51/20,86,102.0
6311,F#5,453.292,51/20,86,102.0
6312,A5,453.5,0.25,1,102.0
6313,C2,453.5,0.25,102,102.0
6314,F#2,453.5,0.25,102,102.0
6315,A1,453.75,0.25,58,102.0
6316,A5,453.75,0.25,1,102.0
6317,F#2,453.75,0.25,96,102.0
6318,B1,454.0,0.5,101,102.0
6319,A5,454.0,0.25,30,102.0
6320,C2,454.0,0.75,97,102.0
6321,F#2,454.0,0.25,119,102.0
6322,C#4,454.0,33/20,70,102.0
6323,A3,454.0,33/20,70,102.0
6324,B3,454.017,1.75,64,102.0
6325,E4,454.025,377/250,79,102.0
6326,F#2,454.25,0.25,86,102.0
6327,A5,454.5,0.25,1,102.0
6328,F#2,454.5,0.25,119,102.0
6329,B1,454.75,0.25,66,102.0
6330,A5,454.75,0.25,2,102.0
6331,C2,454.75,0.25,89,102.0
6332,F#2,454.75,0.25,89,102.0
6333,E-1,455.0,0.25,86,102.0
6334,A5,455.0,0.25,34,102.0
6335,E2,455.0,0.25,106,102.0
6336,G#2,455.0,0.25,106,102.0
6337,F#2,455.25,0.25,100,102.0
6338,E-1,455.5,0.25,68,102.0
6339,A5,455.5,0.25,1,102.0
6340,E2,455.5,0.25,92,102.0
6341,E-1,455.75,0.25,69,102.0
6342,A5,455.75,0.25,1,102.0
6343,E2,455.75,0.25,86,102.0
6344,F#6,455.842,1817/1000,86,102.0
6345,F#5,455.842,1817/1000,86,102.0
6346,E1,456.0,0.25,71,102.0
6347,A5,456.0,0.25,30,102.0
6348,C2,456.0,0.5,110,102.0
6349,F#2,456.0,0.25,119,102.0
6350,E-4,456.017,83/1000,88,102.0
6351,B3,456.017,83/1000,88,102.0
6352,G#3,456.017,83/1000,88,102.0
6353,F#4,456.017,83/1000,88,102.0
6354,F#2,456.25,0.25,84,102.0
6355,E1,456.5,0.25,71,102.0
6356,A5,456.5,0.25,1,102.0
6357,F#2,456.5,0.25,114,102.0
6358,E-4,456.733,3/40,89,102.0
6359,F#4,456.733,3/40,89,102.0
6360,G#3,456.733,3/40,89,102.0
6361,B3,456.733,3/40,89,102.0
6362,E2,456.75,0.5,97,102.0
6363,A5,456.75,0.25,1,102.0
6364,C2,456.75,0.25,86,102.0
6365,F#2,456.75,0.25,86,102.0
6366,A5,457.0,0.25,23,102.0
6367,E2,457.0,0.25,110,102.0
6368,G#2,457.0,0.25,110,102.0
6369,B1,457.25,0.25,64,102.0
6370,F#2,457.25,0.25,86,102.0
6371,E-1,457.5,1.0,92,102.0
6372,A5,457.5,0.25,1,102.0
6373,C2,457.5,0.5,104,102.0
6374,F#2,457.5,0.25,114,102.0
6375,B3,457.5,1129/500,80,102.0
6376,C#4,457.5,1129/500,80,102.0
6377,F#4,457.5,1129/500,80,102.0
6378,G3,457.5,1129/500,80,102.0
6379,A5,457.75,0.25,1,102.0
6380,F#2,457.75,0.25,89,102.0
6381,A5,458.0,0.25,25,102.0
6382,F#2,458.0,0.25,114,102.0
6383,F#2,458.25,0.25,86,102.0
6384,E-2,458.5,0.25,92,102.0
6385,A5,458.5,0.25,1,102.0
6386,C2,458.5,0.5,99,102.0
6387,F#2,458.5,0.25,119,102.0
6388,B-1,458.75,0.25,89,102.0
6389,A5,458.75,0.25,1,102.0
6390,F#2,458.75,0.25,92,102.0
6391,F#5,458.867,4.0,54,102.0
6392,F#4,458.867,4.0,54,102.0
6393,F#1,459.0,0.25,81,102.0
6394,A5,459.0,0.25,32,102.0
6395,E2,459.0,0.5,107,102.0
6396,G#2,459.0,0.25,119,102.0
6397,F#2,459.25,0.25,96,102.0
6398,G1,459.5,0.5,86,102.0
6399,A5,459.5,0.25,1,102.0
6400,C2,459.5,0.25,104,102.0
6401,F#2,459.5,0.25,104,102.0
6402,A5,459.75,0.25,1,102.0
6403,F#2,459.75,0.25,73,102.0
6404,C#6,459.842,371/500,106,102.0
6405,C#5,459.842,371/500,106,102.0
6406,B3,459.95,1/20,68,102.0
6407,E-4,459.95,1/20,68,102.0
6408,F#3,459.95,1/20,68,102.0
6409,G#1,460.0,0.5,104,102.0
6410,A5,460.0,0.25,23,102.0
6411,C2,460.0,0.5,107,102.0
6412,F#2,460.0,0.25,124,102.0
6413,B3,460.0,1/20,68,102.0
6414,E-4,460.0,1/20,68,102.0
6415,F#3,460.0,1/20,68,102.0
6416,F#2,460.25,0.25,84,102.0
6417,A5,460.5,0.25,1,102.0
6418,F#2,460.5,0.25,114,102.0
6419,E-6,460.642,24/125,98,102.0
6420,E-5,460.642,24/125,98,102.0
6421,G#1,460.75,0.5,104,102.0
6422,A5,460.75,0.25,3,102.0
6423,E-4,460.75,23/250,78,102.0
6424,F#3,460.75,23/250,78,102.0
6425,B3,460.75,23/250,78,102.0
6426,C2,460.75,0.25,93,102.0
6427,F#2,460.75,0.25,93,102.0
6428,A5,461.0,0.25,32,102.0
6429,E2,461.0,0.25,112,102.0
6430,G#2,461.0,0.25,112,102.0
6431,E-2,461.25,0.25,81,102.0
6432,F#2,461.25,0.25,96,102.0
6433,C#6,461.333,2383/1000,104,102.0
6434,C#5,461.333,2383/1000,104,102.0
6435,B3,461.483,1179/500,70,102.0
6436,G#3,461.483,1179/500,70,102.0
6437,F3,461.483,1179/500,70,102.0
6438,E-4,461.5,23/10,62,102.0
6439,C#2,461.5,0.75,96,102.0
6440,A5,461.5,0.25,1,102.0
6441,C2,461.5,0.5,94,102.0
6442,F#2,461.5,0.25,119,102.0
6443,A5,461.75,0.25,4,102.0
6444,F#2,461.75,0.25,66,102.0
6445,A5,462.0,0.25,27,102.0
6446,F#2,462.0,0.25,109,102.0
6447,F#2,462.25,0.25,89,102.0
6448,C#2,462.5,0.5,100,102.0
6449,A5,462.5,0.25,1,102.0
6450,C2,462.5,0.5,101,102.0
6451,F#2,462.5,0.25,119,102.0
6452,A5,462.75,0.25,1,102.0
6453,F#2,462.75,0.25,92,102.0
6454,G#4,462.933,117/1000,49,102.0
6455,F#5,462.933,67/1000,54,102.0
6456,F#4,462.933,67/1000,54,102.0
6457,B5,462.992,1971/500,66,102.0
6458,B4,462.992,1971/500,66,102.0
6459,A5,463.0,0.25,30,102.0
6460,E2,463.0,0.25,106,102.0
6461,G#2,463.0,0.25,106,102.0
6462,C#2,463.25,0.25,89,102.0
6463,C2,463.25,0.5,104,102.0
6464,F#2,463.25,0.25,96,102.0
6465,E-2,463.5,0.25,100,102.0
6466,A5,463.5,0.25,1,102.0
6467,F#2,463.5,0.25,114,102.0
6468,A5,463.75,0.25,1,102.0
6469,F#2,463.75,0.25,75,102.0
6470,B4,463.775,67/1000,70,102.0
6471,B5,463.775,67/1000,70,102.0
6472,B4,463.842,371/500,70,102.0
6473,B5,463.842,371/500,70,102.0
6474,E1,464.0,1.75,85,102.0
6475,A5,464.0,0.25,37,102.0
6476,C2,464.0,0.5,104,102.0
6477,F#2,464.0,0.25,119,102.0
6478,G3,464.008,1767/1000,85,102.0
6479,B3,464.008,1767/1000,85,102.0
6480,D4,464.008,1767/1000,85,102.0
6481,A3,464.025,1767/1000,86,102.0
6482,D4,464.025,1767/1000,86,102.0
6483,F#2,464.25,0.25,64,102.0
6484,A5,464.5,0.25,1,102.0
6485,F#2,464.5,0.25,104,102.0
6486,E-5,464.583,667/1000,81,102.0
6487,E-6,464.583,667/1000,81,102.0
6488,A5,464.75,0.25,1,102.0
6489,C2,464.75,0.25,90,102.0
6490,F#2,464.75,0.25,90,102.0
6491,E2,465.0,0.25,85,102.0
6492,A5,465.0,0.25,34,102.0
6493,E2,465.0,0.5,94,102.0
6494,G#2,465.0,0.25,119,102.0
6495,F#2,465.25,0.25,96,102.0
6496,C#5,465.267,1021/500,80,102.0
6497,C#6,465.267,1021/500,80,102.0
6498,E2,465.5,0.25,82,102.0
6499,A5,465.5,0.25,1,102.0
6500,C2,465.5,0.25,100,102.0
6501,F#2,465.5,0.25,100,102.0
6502,B1,465.75,0.25,64,102.0
6503,A5,465.75,0.25,8,102.0
6504,F#2,465.75,0.25,86,102.0
6505,C#4,465.975,1767/1000,86,102.0
6506,E4,465.975,1767/1000,86,102.0
6507,A3,465.975,1767/1000,86,102.0
6508,F#1,466.0,0.75,100,102.0
6509,A5,466.0,0.25,40,102.0
6510,C2,466.0,0.5,80,102.0
6511,F#2,466.0,0.25,114,102.0
6512,F#2,466.25,0.25,89,102.0
6513,A5,466.5,0.25,1,102.0
6514,F#2,466.5,0.25,114,102.0
6515,A5,466.75,0.25,11,102.0
6516,C2,466.75,0.25,92,102.0
6517,F#2,466.75,0.25,92,102.0
6518,B5,466.933,17/1000,66,102.0
6519,B4,466.933,17/1000,66,102.0
6520,C#6,466.95,1533/1000,51,102.0
6521,C#5,466.967,57/40,50,102.0
6522,F#1,467.0,1.0,100,102.0
6523,A5,467.0,0.25,40,102.0
6524,E2,467.0,0.25,107,102.0
6525,F#2,467.25,0.25,92,102.0
6526,B5,467.308,7/20,66,102.0
6527,B4,467.308,7/20,66,102.0
6528,A5,467.5,0.25,1,102.0
6529,E2,467.5,0.25,86,102.0
6530,C#6,467.575,267/1000,88,102.0
6531,C#5,467.575,267/1000,88,102.0
6532,A5,467.75,0.25,12,102.0
6533,E2,467.75,0.25,94,102.0
6534,C#6,467.842,1/125,88,102.0
6535,C#5,467.842,1/125,88,102.0
6536,D5,467.85,829/500,90,102.0
6537,D6,467.85,1767/1000,94,102.0
6538,E1,468.0,0.25,88,102.0
6539,A5,468.0,0.25,46,102.0
6540,C2,468.0,0.5,110,102.0
6541,F#2,468.0,0.25,119,102.0
6542,F#4,468.0,27/250,86,102.0
6543,B3,468.0,27/250,86,102.0
6544,G#3,468.0,27/250,86,102.0
6545,E-4,468.0,27/250,92,102.0
6546,G#3,468.0,27/250,92,102.0
6547,A5,468.25,0.25,1,102.0
6548,F#2,468.25,0.25,86,102.0
6549,E-5,468.375,627/250,47,102.0
6550,E-6,468.442,301/125,56,102.0
6551,E1,468.5,0.25,65,102.0
6552,A5,468.5,0.25,18,102.0
6553,F#2,468.5,0.25,109,102.0
6554,E2,468.75,0.5,97,102.0
6555,C2,468.75,0.25,94,102.0
6556,F#2,468.75,0.25,94,102.0
6557,E-4,468.767,1/10,87,102.0
6558,F#4,468.767,1/10,87,102.0
6559,B3,468.767,1/10,87,102.0
6560,G#3,468.767,1/10,87,102.0
6561,A5,469.0,0.25,25,102.0
6562,E2,469.0,0.25,113,102.0
6563,G#2,469.0,0.25,113,102.0
6564,B1,469.25,0.25,62,102.0
6565,F#2,469.25,0.25,92,102.0
6566,C#4,469.483,2417/1000,78,102.0
6567,B3,469.483,2417/1000,78,102.0
6568,C#5,469.492,13/40,54,102.0
6569,F#4,469.492,93/40,76,102.0
6570,G3,469.492,93/40,76,102.0
6571,E-1,469.5,1.0,81,102.0
6572,A5,469.5,0.25,15,102.0
6573,C2,469.5,0.75,101,102.0
6574,F#2,469.5,0.25,119,102.0
6575,B5,469.617,167/1000,41,102.0
6576,C#6,469.633,129/500,28,102.0
6577,A5,469.75,0.25,27,102.0
6578,F#2,469.75,0.25,89,102.0
6579,E5,469.817,979/500,88,102.0
6580,E6,469.817,979/500,88,102.0
6581,A5,470.0,0.25,13,102.0
6582,F#2,470.0,0.25,114,102.0
6583,F#2,470.25,0.25,86,102.0
6584,E-2,470.5,0.25,89,102.0
6585,A5,470.5,0.25,1,102.0
6586,C2,470.5,0.5,80,102.0
6587,F#2,470.5,0.25,114,102.0
6588,C#5,470.683,0.25,37,102.0
6589,B-1,470.75,0.25,79,102.0
6590,A5,470.75,0.25,8,102.0
6591,F#2,470.75,0.25,89,102.0
6592,C#6,470.75,183/1000,46,102.0
6593,C#5,470.933,1/40,37,102.0
6594,C#6,470.933,21/500,46,102.0
6595,E5,470.933,1067/1000,68,102.0
6596,E6,470.933,1067/1000,68,102.0
6597,F#1,471.0,0.25,86,102.0
6598,A5,471.0,0.25,50,102.0
6599,E2,471.0,0.25,113,102.0
6600,G#2,471.0,0.25,113,102.0
6601,F#2,471.25,0.25,89,102.0
6602,G1,471.5,0.5,88,102.0
6603,A5,471.5,0.25,1,102.0
6604,C2,471.5,0.25,92,102.0
6605,F#2,471.5,0.25,92,102.0
6606,A5,471.75,0.25,7,102.0
6607,F#2,471.75,0.25,81,102.0
6608,C#6,471.817,1/40,99,102.0
6609,C#5,471.817,1/40,99,102.0
6610,C#6,471.842,7/10,99,102.0
6611,C#5,471.842,7/10,99,102.0
6612,E-6,471.95,1117/1000,78,102.0
6613,E-5,471.95,1117/1000,78,102.0
6614,E-4,472.0,1829/500,66,102.0
6615,G#1,472.0,0.75,104,102.0
6616,A5,472.0,0.25,46,102.0
6617,C2,472.0,0.5,86,102.0
6618,F#2,472.0,0.25,124,102.0
6619,B3,472.0,9/5,91,102.0
6620,F#3,472.0,9/5,91,102.0
6621,A5,472.25,0.25,1,102.0
6622,F#2,472.25,0.25,92,102.0
6623,A5,472.5,0.25,18,102.0
6624,F#2,472.5,0.25,109,102.0
6625,E-6,472.55,267/1000,102,102.0
6626,E-5,472.55,267/1000,102,102.0
6627,C2,472.75,0.25,93,102.0
6628,F#2,472.75,0.25,93,102.0
6629,C#5,472.983,43/40,75,102.0
6630,C#6,472.983,43/40,75,102.0
6631,G#1,473.0,0.75,96,102.0
6632,A5,473.0,0.25,25,102.0
6633,E2,473.0,0.25,102,102.0
6634,G#2,473.0,0.25,102,102.0
6635,F#2,473.25,0.25,81,102.0
6636,A5,473.5,0.25,15,102.0
6637,C2,473.5,0.25,104,102.0
6638,F#2,473.5,0.25,104,102.0
6639,B-1,473.75,0.25,79,102.0
6640,A5,473.75,0.25,27,102.0
6641,F#2,473.75,0.25,63,102.0
6642,B-3,473.958,83/1000,73,102.0
6643,C#2,474.0,0.5,96,102.0
6644,A5,474.0,0.25,13,102.0
6645,C2,474.0,0.5,86,102.0
6646,F#2,474.0,0.25,114,102.0
6647,F3,474.0,201/125,87,102.0
6648,G#3,474.0,201/125,87,102.0
6649,B3,474.0,201/125,87,102.0
6650,B4,474.008,37/40,72,102.0
6651,B5,474.008,37/40,72,102.0
6652,F#2,474.25,0.25,79,102.0
6653,A5,474.5,0.25,1,102.0
6654,F#2,474.5,0.25,114,102.0
6655,C#2,474.75,0.25,63,102.0
6656,A5,474.75,0.25,8,102.0
6657,C2,474.75,0.25,84,102.0
6658,F#2,474.75,0.25,84,102.0
6659,B4,474.933,27/250,72,102.0
6660,B5,474.933,27/250,72,102.0
6661,E-2,475.0,0.25,96,102.0
6662,A5,475.0,0.25,50,102.0
6663,E2,475.0,0.25,106,102.0
6664,G#2,475.0,0.25,106,102.0
6665,C#5,475.008,157/40,68,102.0
6666,C#6,475.008,157/40,68,102.0
6667,F#2,475.25,0.25,89,102.0
6668,E-2,475.5,0.25,89,102.0
6669,A5,475.5,0.25,1,102.0
6670,E2,475.5,0.25,106,102.0
6671,F#2,475.5,0.25,106,102.0
6672,B-1,475.75,0.25,30,102.0
6673,A5,475.75,0.25,7,102.0
6674,E2,475.75,0.25,84,102.0
6675,F#2,475.75,0.25,84,102.0
6676,E1,476.0,0.25,85,102.0
6677,A5,476.0,0.25,46,102.0
6678,C2,476.0,0.5,92,102.0
6679,F#2,476.0,0.25,124,102.0
6680,E-4,476.0,117/1000,88,102.0
6681,B3,476.0,117/1000,88,102.0
6682,G#3,476.0,117/1000,88,102.0
6683,F#4,476.008,117/1000,81,102.0
6684,B3,476.008,117/1000,81,102.0
6685,G#3,476.008,117/1000,81,102.0
6686,F#2,476.25,0.25,89,102.0
6687,E1,476.5,0.25,62,102.0
6688,A5,476.5,0.25,1,102.0
6689,F#2,476.5,0.25,114,102.0
6690,E2,476.75,0.5,97,102.0
6691,A5,476.75,0.25,2,102.0
6692,C2,476.75,0.25,92,102.0
6693,F#2,476.75,0.25,92,102.0
6694,F#4,476.758,1/10,70,102.0
6695,G#3,476.758,1/10,70,102.0
6696,E-4,476.758,3/40,89,102.0
6697,G#3,476.758,3/40,89,102.0
6698,B3,476.758,3/40,89,102.0
6699,A5,477.0,0.25,37,102.0
6700,E2,477.0,0.25,110,102.0
6701,G#2,477.0,0.25,110,102.0
6702,B1,477.25,0.25,57,102.0
6703,F#2,477.25,0.25,89,102.0
6704,E-1,477.5,1.0,96,102.0
6705,A5,477.5,0.25,1,102.0
6706,C2,477.5,0.75,79,102.0
6707,F#2,477.5,0.25,114,102.0
6708,C#4,477.508,299/125,87,102.0
6709,B3,477.508,299/125,87,102.0
6710,F#4,477.508,299/125,87,102.0
6711,G3,477.508,299/125,78,102.0
6712,F#4,477.508,299/125,78,102.0
6713,A5,477.75,0.25,1,102.0
6714,F#2,477.75,0.25,96,102.0
6715,A5,478.0,0.25,34,102.0
6716,F#2,478.0,0.25,119,102.0
6717,F#2,478.25,0.25,79,102.0
6718,E-2,478.5,0.25,100,102.0
6719,A5,478.5,0.25,1,102.0
6720,C2,478.5,0.5,97,102.0
6721,F#2,478.5,0.25,109,102.0
6722,B-1,478.75,0.25,21,102.0
6723,A5,478.75,0.25,1,102.0
6724,F#2,478.75,0.25,84,102.0
6725,B5,478.933,4.0,52,102.0
6726,B4,478.933,4.0,52,102.0
6727,C#5,478.933,21/500,68,102.0
6728,C#6,478.933,21/500,68,102.0
6729,F#1,479.0,0.25,63,102.0
6730,A5,479.0,0.25,37,102.0
6731,E2,479.0,0.5,104,102.0
6732,G#2,479.0,0.25,119,102.0
6733,F#2,479.25,0.25,77,102.0
6734,G1,479.5,0.5,88,102.0
6735,A5,479.5,0.25,1,102.0
6736,C2,479.5,0.25,75,102.0
6737,F#2,479.5,0.25,75,102.0
6738,A5,479.75,0.25,4,102.0
6739,F#2,479.75,0.25,92,102.0
6740,C#5,479.833,1/125,109,102.0
6741,C#6,479.833,1/125,109,102.0
6742,C#5,479.842,0.75,109,102.0
6743,C#6,479.842,0.75,109,102.0
6744,G#1,480.0,0.75,109,102.0
6745,A5,480.0,0.25,30,102.0
6746,C2,480.0,0.5,97,102.0
6747,F#2,480.0,0.25,124,102.0
6748,B3,480.017,37/20,64,102.0
6749,E-4,480.017,37/20,64,102.0
6750,F#3,480.033,1767/1000,100,102.0
6751,F#2,480.25,0.25,92,102.0
6752,A5,480.5,0.25,1,102.0
6753,F#2,480.5,0.25,92,102.0
6754,E-6,480.592,3/20,109,102.0
6755,E-5,480.592,3/20,109,102.0
6756,G#1,480.75,1.0,104,102.0
6757,A5,480.75,0.25,1,102.0
6758,C2,480.75,0.25,92,102.0
6759,F#2,480.75,0.25,92,102.0
6760,A5,481.0,0.25,46,102.0
6761,E2,481.0,0.25,110,102.0
6762,G#2,481.0,0.25,110,102.0
6763,F#2,481.25,0.25,96,102.0
6764,F#6,481.317,2283/1000,98,102.0
6765,F#5,481.317,2283/1000,98,102.0
6766,A5,481.5,0.25,1,102.0
6767,C2,481.5,0.25,108,102.0
6768,F#2,481.5,0.25,108,102.0
6769,B-1,481.75,0.25,77,102.0
6770,A5,481.75,0.25,1,102.0
6771,F#2,481.75,0.25,89,102.0
6772,B1,482.0,0.5,86,102.0
6773,A5,482.0,0.25,37,102.0
6774,C2,482.0,0.5,104,102.0
6775,F#2,482.0,0.25,119,102.0
6776,C#4,482.008,879/500,71,102.0
6777,B3,482.008,879/500,71,102.0
6778,A3,482.008,879/500,71,102.0
6779,E4,482.017,879/500,82,102.0
6780,A3,482.017,879/500,82,102.0
6781,F#2,482.25,0.25,75,102.0
6782,A5,482.5,0.25,1,102.0
6783,F#2,482.5,0.25,114,102.0
6784,B1,482.75,0.25,71,102.0
6785,A5,482.75,0.25,1,102.0
6786,C2,482.75,0.25,90,102.0
6787,F#2,482.75,0.25,90,102.0
6788,B5,482.933,1983/1000,52,102.0
6789,B4,482.933,1983/1000,52,102.0
6790,E-1,483.0,0.25,109,102.0
6791,A5,483.0,0.25,43,102.0
6792,E2,483.0,0.5,101,102.0
6793,G#2,483.0,0.25,126,102.0
6794,F#2,483.25,0.25,89,102.0
6795,E-1,483.5,0.25,69,102.0
6796,A5,483.5,0.25,1,102.0
6797,C2,483.5,0.25,106,102.0
6798,F#2,483.5,0.25,106,102.0
6799,E-1,483.75,0.25,54,102.0
6800,A5,483.75,0.25,1,102.0
6801,F#2,483.75,0.25,92,102.0
6802,E1,484.0,0.25,76,102.0
6803,A5,484.0,0.25,34,102.0
6804,C2,484.0,0.5,101,102.0
6805,F#2,484.0,0.25,124,102.0
6806,B3,484.033,27/250,89,102.0
6807,E-4,484.033,27/250,89,102.0
6808,F#4,484.033,27/250,89,102.0
6809,G#3,484.033,27/250,89,102.0
6810,F#2,484.25,0.25,84,102.0
6811,E1,484.5,0.25,79,102.0
6812,A5,484.5,0.25,1,102.0
6813,F#2,484.5,0.25,109,102.0
6814,E2,484.75,0.5,92,102.0
6815,A5,484.75,0.25,1,102.0
6816,C2,484.75,0.25,88,102.0
6817,F#2,484.75,0.25,88,102.0
6818,G#3,484.758,83/1000,84,102.0
6819,E-4,484.758,83/1000,84,102.0
6820,F#4,484.758,83/1000,84,102.0
6821,B3,484.758,83/1000,84,102.0
6822,G#5,484.892,1083/1000,57,102.0
6823,G#4,484.892,1083/1000,57,102.0
6824,A5,485.0,0.25,37,102.0
6825,E2,485.0,0.25,114,102.0
6826,G#2,485.0,0.25,114,102.0
6827,B1,485.25,0.25,66,102.0
6828,F#2,485.25,0.25,84,102.0
6829,C#4,485.475,577/250,92,102.0
6830,B3,485.475,577/250,92,102.0
6831,F#4,485.492,2183/1000,76,102.0
6832,G3,485.492,2183/1000,76,102.0
6833,E-1,485.5,1.0,96,102.0
6834,A5,485.5,0.25,1,102.0
6835,C2,485.5,0.75,104,102.0
6836,F#2,485.5,0.25,114,102.0
6837,A5,485.75,0.25,1,102.0
6838,F#2,485.75,0.25,92,102.0
6839,F#4,485.925,2/5,54,102.0
6840,F#5,485.942,229/500,53,102.0
6841,A5,486.0,0.25,30,102.0
6842,F#2,486.0,0.25,119,102.0
6843,F#2,486.25,0.25,89,102.0
6844,B4,486.367,567/1000,58,102.0
6845,B5,486.367,567/1000,58,102.0
6846,E-2,486.5,0.25,100,102.0
6847,A5,486.5,0.25,1,102.0
6848,C2,486.5,0.5,104,102.0
6849,F#2,486.5,0.25,100,102.0
6850,B-1,486.75,0.25,92,102.0
6851,A5,486.75,0.25,2,102.0
6852,F#2,486.75,0.25,89,102.0
6853,B4,486.933,4.0,58,102.0
6854,B5,486.933,4.0,58,102.0
6855,F#1,487.0,0.25,89,102.0
6856,A5,487.0,0.25,34,102.0
6857,E2,487.0,0.25,98,102.0
6858,G#2,487.0,0.25,98,102.0
6859,C2,487.25,0.5,99,102.0
6860,F#2,487.25,0.25,75,102.0
6861,G1,487.5,0.25,76,102.0
6862,A5,487.5,0.25,1,102.0
6863,F#2,487.5,0.25,114,102.0
6864,A5,487.75,0.25,1,102.0
6865,F#2,487.75,0.25,96,102.0
6866,C#5,487.817,1/40,104,102.0
6867,C#6,487.817,1/40,104,102.0
6868,C#5,487.842,4/5,104,102.0
6869,C#6,487.842,4/5,104,102.0
6870,B3,487.95,1/20,80,102.0
6871,E-4,487.95,1/20,80,102.0
6872,F#3,487.95,1/20,80,102.0
6873,G#1,488.0,0.5,109,102.0
6874,A5,488.0,0.25,30,102.0
6875,C2,488.0,0.5,101,102.0
6876,F#2,488.0,0.25,124,102.0
6877,B3,488.0,1/10,80,102.0
6878,E-4,488.0,1/10,80,102.0
6879,F#3,488.0,1/10,80,102.0
6880,F#2,488.25,0.25,100,102.0
6881,A5,488.5,0.25,1,102.0
6882,F#2,488.5,0.25,109,102.0
6883,E-6,488.625,7/40,114,102.0
6884,E-5,488.625,7/40,114,102.0
6885,F#3,488.725,67/1000,77,102.0
6886,E-4,488.725,67/1000,77,102.0
6887,B3,488.725,67/1000,77,102.0
6888,G#1,488.75,0.5,100,102.0
6889,A5,488.75,0.25,1,102.0
6890,C2,488.75,0.25,87,102.0
6891,F#2,488.75,0.25,87,102.0
6892,A5,489.0,0.25,23,102.0
6893,E2,489.0,0.5,99,102.0
6894,G#2,489.0,0.25,114,102.0
6895,E-2,489.25,0.25,86,102.0
6896,F#2,489.25,0.25,89,102.0
6897,C#6,489.283,2483/1000,96,102.0
6898,C#5,489.292,2333/1000,109,102.0
6899,B3,489.475,2433/1000,66,102.0
6900,F3,489.475,2433/1000,66,102.0
6901,G#3,489.475,2433/1000,66,102.0
6902,E-4,489.5,2283/1000,63,102.0
6903,C#2,489.5,0.75,100,102.0
6904,A5,489.5,0.25,1,102.0
6905,C2,489.5,0.75,104,102.0
6906,F#2,489.5,0.25,109,102.0
6907,A5,489.75,0.25,1,102.0
6908,F#2,489.75,0.25,84,102.0
6909,A5,490.0,0.25,25,102.0
6910,F#2,490.0,0.25,109,102.0
6911,F#2,490.25,0.25,86,102.0
6912,C#2,490.5,0.5,100,102.0
6913,A5,490.5,0.25,1,102.0
6914,C2,490.5,0.5,101,102.0
6915,F#2,490.5,0.25,109,102.0
6916,A5,490.75,0.25,1,102.0
6917,F#2,490.75,0.25,86,102.0
6918,B4,490.933,2017/1000,58,102.0
6919,B5,490.933,2017/1000,58,102.0
6920,A5,491.0,0.25,32,102.0
6921,E2,491.0,0.5,99,102.0
6922,G#2,491.0,0.25,114,102.0
6923,C#2,491.25,0.25,69,102.0
6924,F#2,491.25,0.25,92,102.0
6925,E-2,491.5,0.5,89,102.0
6926,A5,491.5,0.25,1,102.0
6927,C2,491.5,0.25,103,102.0
6928,F#2,491.5,0.25,103,102.0
6929,A5,491.75,0.25,1,102.0
6930,F#2,491.75,0.25,89,102.0
6931,B4,491.775,67/1000,82,102.0
6932,B5,491.775,67/1000,82,102.0
6933,B4,491.842,177/250,82,102.0
6934,B5,491.842,177/250,82,102.0
6935,E1,492.0,1.75,90,102.0
6936,B3,492.008,1267/1000,58,102.0
6937,G3,492.008,1267/1000,58,102.0
6938,A3,492.008,1267/1000,58,102.0
6939,D4,492.008,1267/1000,58,102.0
6940,B3,492.042,1667/1000,72,102.0
6941,A3,492.042,1667/1000,72,102.0
6942,G3,492.042,1667/1000,72,102.0
6943,D4,492.042,1667/1000,72,102.0
6944,E-5,492.6,379/500,70,102.0
6945,E-6,492.6,379/500,70,102.0
6946,C#5,492.892,1067/1000,60,102.0
6947,C#6,492.892,1067/1000,60,102.0
6948,E2,493.0,0.25,75,102.0
6949,C#5,493.283,2033/1000,92,102.0
6950,C#6,493.283,2033/1000,92,102.0
6951,E2,493.5,0.25,92,102.0
6952,B1,493.75,0.25,66,102.0
6953,A3,493.933,373/250,84,102.0
6954,C#4,493.933,373/250,84,102.0
6955,E4,493.933,373/250,84,102.0
6956,B3,493.95,423/250,78,102.0
6957,A3,493.95,8/5,66,102.0
6958,C#4,493.95,8/5,66,102.0
6959,E-6,493.95,467/1000,52,102.0
6960,E-5,493.95,467/1000,52,102.0
6961,E4,493.958,373/250,80,102.0
6962,E4,493.958,373/250,80,102.0
6963,F#1,494.0,0.75,119,102.0
6964,B4,494.4,533/1000,69,102.0
6965,B5,494.4,533/1000,69,102.0
6966,B4,494.933,4.0,69,102.0
6967,B5,494.933,4.0,69,102.0
6968,F#1,495.0,0.75,100,102.0
6969,B4,495.317,3/10,72,102.0
6970,B5,495.317,3/10,72,102.0
6971,C#5,495.575,267/1000,92,102.0
6972,C#6,495.575,1/5,96,102.0
6973,D6,495.833,1/125,94,102.0
6974,D5,495.842,423/250,80,102.0
6975,D6,495.842,879/500,94,102.0
6976,G1,496.0,3.25,107,102.0
6977,D4,496.0,777/250,66,102.0
6978,B3,496.0,777/250,66,102.0
6979,G3,496.0,777/250,66,102.0
6980,A3,496.0,777/250,63,102.0
6981,G3,496.0,777/250,63,102.0
6982,C#5,497.475,333/1000,52,102.0
6983,B5,497.558,26/125,58,102.0
6984,C#6,497.65,121/500,43,102.0
6985,D5,497.733,27/250,55,102.0
6986,E5,497.833,427/250,86,102.0
6987,E6,497.833,427/250,86,102.0
6988,B4,498.933,3267/1000,69,102.0
6989,B5,498.933,3267/1000,69,102.0
6990,A1,499.5,0.25,90,102.0
6991,B1,499.75,0.25,82,102.0
6992,A1,500.0,3.5,110,102.0
6993,A3,500.008,71/20,42,102.0
6994,C#4,500.008,71/20,42,102.0
6995,B3,500.008,71/20,42,102.0
6996,E4,500.008,71/20,42,102.0
6997,B5,502.433,11/40,50,102.0
6998,B4,502.433,11/40,50,102.0
6999,C#5,502.658,121/500,50,102.0
7000,C#6,502.733,1/5,23,102.0
7001,D5,502.942,77/40,60,102.0
7002,D6,503.0,224/125,66,102.0
7003,G1,503.5,0.5,88,102.0
7004,A1,503.75,0.25,80,102.0
7005,B1,504.0,4.0,107,102.0
7006,B3,504.092,3567/1000,33,102.0
7007,E-4,504.092,3567/1000,33,102.0
7008,F#4,504.108,141/40,19,102.0
7009,C#5,504.725,1/5,40,102.0
7010,C#6,504.792,23/250,19,102.0
7011,B5,504.858,133/1000,16,102.0
7012,E5,504.925,251/125,68,102.0
7013,E6,504.925,251/125,68,102.0
7014,B4,506.9,33/1000,60,102.0
7015,B5,506.925,1/125,59,102.0
7016,B4,506.933,4.0,60,102.0
7017,B5,506.933,4.0,59,102.0
7018,E5,506.933,33/1000,68,102.0
7019,E6,506.933,33/1000,68,102.0
7020,B1,508.0,1.5,107,102.0
7021,B4,510.933,1967/1000,60,102.0
7022,B5,510.933,1029/500,59,102.0
7023,G#5,512.875,277/250,50,102.0
7024,G#4,512.875,277/250,50,102.0
7025,F#4,513.892,229/500,47,102.0
7026,F#5,513.958,221/500,57,102.0
7027,B5,514.367,567/1000,56,102.0
7028,B4,514.367,567/1000,56,102.0
7029,B5,514.933,4.0,56,102.0
7030,B4,514.933,4.0,56,102.0
7031,B5,518.933,41/20,56,102.0
7032,B4,518.933,41/20,56,102.0
7033,C#5,520.858,11/10,62,102.0
7034,C#6,520.858,11/10,62,102.0
7035,E-6,521.95,221/500,52,102.0
7036,E-5,521.95,221/500,52,102.0
7037,B4,522.342,74/125,58,102.0
7038,B5,522.342,74/125,58,102.0
7039,B4,522.933,4.0,58,102.0
7040,B5,522.933,4.0,58,102.0
7041,B4,526.933,3883/1000,58,102.0
7042,B5,526.933,3883/1000,58,102.0
7043,D6,530.85,83/1000,60,102.0
7044,D5,530.883,1/20,60,102.0
7045,D6,530.933,9/5,60,102.0
7046,D5,530.933,1867/1000,60,102.0
7047,B4,532.692,3/20,42,102.0
7048,B5,532.692,3/20,42,102.0
7049,E6,532.833,83/40,63,102.0
7050,E5,532.833,83/40,63,102.0
7051,B4,534.842,23/250,57,102.0
7052,B5,534.842,23/250,57,102.0
7053,B5,534.933,4.0,52,102.0
7054,B4,534.933,4.0,52,102.0
7055,B4,534.933,773/250,57,102.0
7056,B5,534.933,773/250,57,102.0
7057,B5,538.933,1983/1000,52,102.0
7058,B4,538.933,1983/1000,52,102.0
7059,G#5,540.892,1083/1000,57,102.0
7060,G#4,540.892,1083/1000,57,102.0
7061,F#4,541.925,2/5,54,102.0
7062,F#5,541.942,229/500,53,102.0
7063,B4,542.367,567/1000,58,102.0
7064,B5,542.367,567/1000,58,102.0
7065,B4,542.933,4.0,58,102.0
7066,B5,542.933,4.0,58,102.0
7067,B4,546.933,2017/1000,58,102.0
7068,B5,546.933,2017/1000,58,102.0
7069,C#5,548.892,1067/1000,60,102.0
7070,C#6,548.892,1067/1000,60,102.0
7071,E-6,549.95,467/1000,52,102.0
7072,E-5,549.95,467/1000,52,102.0
7073,B4,550.4,533/1000,69,102.0
7074,B5,550.4,533/1000,69,102.0
7075,B4,550.933,4.0,69,102.0
7076,B5,550.933,4.0,69,102.0
7077,B4,554.933,3267/1000,69,102.0
7078,B5,554.933,3267/1000,69,102.0
7079,B5,558.433,11/40,50,102.0
7080,B4,558.433,11/40,50,102.0
7081,C#5,558.658,121/500,50,102.0
7082,C#6,558.733,1/5,23,102.0
7083,D5,558.942,77/40,60,102.0
7084,D6,559.0,224/125,66,102.0
7085,C#5,560.725,1/5,40,102.0
7086,C#6,560.792,23/250,19,102.0
7087,B5,560.858,133/1000,16,102.0
7088,E5,560.925,251/125,68,102.0
7089,E6,560.925,251/125,68,102.0
7090,B4,562.9,33/1000,60,102.0
7091,B5,562.925,1/125,59,102.0
7092,B4,562.933,4.0,60,102.0
7093,B5,562.933,4.0,59,102.0
7094,E5,562.933,33/1000,68,102.0
7095,E6,562.933,33/1000,68,102.0
7096,B4,566.933,1967/1000,60,102.0
7097,B5,566.933,1029/500,59,102.0
7098,G#5,568.875,277/250,50,102.0
7099,G#4,568.875,277/250,50,102.0
7100,F#4,569.892,229/500,47,102.0
7101,F#5,569.958,221/500,57,102.0
7102,B5,570.367,567/1000,56,102.0
7103,B4,570.367,567/1000,56,102.0
7104,B5,570.933,4.0,56,102.0
7105,B4,570.933,4.0,56,102.0
7106,B5,574.933,41/20,56,102.0
7107,B4,574.933,41/20,56,102.0
7108,C#5,576.858,11/10,62,102.0
7109,C#6,576.858,11/10,62,102.0
7110,E-6,577.95,221/500,52,102.0
7111,E-5,577.95,221/500,52,102.0
7112,B4,578.342,74/125,58,102.0
7113,B5,578.342,74/125,58,102.0
7114,B4,578.933,4.0,58,102.0
7115,B5,578.933,4.0,58,102.0
7116,B4,582.933,3883/1000,58,102.0
7117,B5,582.933,3883/1000,58,102.0
7118,D6,586.85,83/1000,60,102.0
7119,D5,586.883,1/20,60,102.0
7120,D6,586.933,9/5,60,102.0
7121,D5,586.933,1867/1000,60,102.0
7122,B5,590.792,71/500,60,102.0
7123,B4,590.808,0.125,66,102.0
7124,B5,590.933,4.0,60,102.0
7125,B4,590.933,4.0,66,102.0
7126,B5,594.933,4.0,60,102.0
7127,B4,594.933,4.0,66,102.0
7128,B5,598.933,3233/1000,60,102.0
7129,B4,598.933,1571/500,66,102.0
