,note_name,start_time,duration,velocity,tempo
0,F#4,0.0,0.5,95,140.0
1,D4,0.5,0.5,95,140.0
2,A3,1.0,0.5,95,140.0
3,F#4,1.5,0.5,95,140.0
4,D4,2.0,0.5,95,140.0
5,A3,2.5,0.5,95,140.0
6,G4,3.0,0.5,95,140.0
7,D4,3.5,0.5,95,140.0
8,A3,4.0,0.5,95,140.0
9,E4,4.5,0.5,95,140.0
10,D4,5.0,0.5,95,140.0
11,A3,5.5,0.5,95,140.0
12,E4,6.0,0.5,95,140.0
13,D4,6.5,0.5,95,140.0
14,A3,7.0,0.5,95,140.0
15,D4,7.5,0.5,95,140.0
16,F#4,8.0,0.5,95,140.0
17,D4,8.5,0.5,95,140.0
18,A3,9.0,0.5,95,140.0
19,F#4,9.5,0.5,95,140.0
20,D4,10.0,0.5,95,140.0
21,A3,10.5,0.5,95,140.0
22,G4,11.0,0.5,95,140.0
23,D4,11.5,0.5,95,140.0
24,A3,12.0,0.5,95,140.0
25,E4,12.5,0.5,95,140.0
26,D4,13.0,0.5,95,140.0
27,A3,13.5,0.5,95,140.0
28,E4,14.0,0.5,95,140.0
29,D4,14.5,0.5,95,140.0
30,A3,15.0,0.5,95,140.0
31,F#4,15.5,0.5,95,140.0
32,D2,15.5,0.5,95,140.0
33,F#4,16.0,0.5,95,140.0
34,D2,16.0,4.0,95,140.0
35,D4,16.5,0.5,95,140.0
36,A3,17.0,0.5,95,140.0
37,F#4,17.5,0.5,95,140.0
38,D4,18.0,0.5,95,140.0
39,A3,18.5,0.5,95,140.0
40,G4,19.0,0.5,95,140.0
41,D4,19.5,0.5,95,140.0
42,A3,20.0,0.5,95,140.0
43,D2,20.0,3.0,95,140.0
44,E4,20.5,0.5,95,140.0
45,D4,21.0,0.5,95,140.0
46,A3,21.5,0.5,95,140.0
47,E4,22.0,0.5,95,140.0
48,D4,22.5,0.5,95,140.0
49,A3,23.0,0.5,95,140.0
50,D4,23.5,0.5,95,140.0
51,D2,23.5,0.5,95,140.0
52,F#4,24.0,0.5,95,140.0
53,D2,24.0,4.0,95,140.0
54,D4,24.5,0.5,95,140.0
55,A3,25.0,0.5,95,140.0
56,F#4,25.5,0.5,95,140.0
57,D4,26.0,0.5,95,140.0
58,A3,26.5,0.5,95,140.0
59,G4,27.0,0.5,95,140.0
60,D4,27.5,0.5,95,140.0
61,A3,28.0,0.5,95,140.0
62,D2,28.0,4.0,95,140.0
63,E4,28.5,0.5,95,140.0
64,D4,29.0,0.5,95,140.0
65,A3,29.5,0.5,95,140.0
66,E4,30.0,0.5,95,140.0
67,D4,30.5,0.5,95,140.0
68,A3,31.0,0.5,95,140.0
69,F#4,31.5,0.5,95,140.0
70,F#4,32.0,0.5,95,140.0
71,D2,32.0,0.5,95,140.0
72,F#2,32.0,0.25,95,140.0
73,F#2,32.25,0.25,95,140.0
74,D4,32.5,0.5,95,140.0
75,D2,32.5,0.5,95,140.0
76,F#2,32.5,0.25,95,140.0
77,F#2,32.75,0.25,95,140.0
78,A3,33.0,0.5,95,140.0
79,D2,33.0,0.5,95,140.0
80,F#2,33.0,0.25,95,140.0
81,F#2,33.25,0.25,95,140.0
82,F#4,33.5,0.5,95,140.0
83,D2,33.5,0.5,95,140.0
84,F#2,33.5,0.25,95,140.0
85,F#2,33.75,0.25,95,140.0
86,D4,34.0,0.5,95,140.0
87,D2,34.0,0.5,95,140.0
88,F#2,34.0,0.25,95,140.0
89,F#2,34.25,0.25,95,140.0
90,A3,34.5,0.5,95,140.0
91,D2,34.5,0.5,95,140.0
92,F#2,34.5,0.25,95,140.0
93,F#2,34.75,0.25,95,140.0
94,G4,35.0,0.5,95,140.0
95,D2,35.0,0.5,95,140.0
96,F#2,35.0,0.25,95,140.0
97,F#2,35.25,0.25,95,140.0
98,D4,35.5,0.5,95,140.0
99,D2,35.5,0.5,95,140.0
100,F#2,35.5,0.25,95,140.0
101,F#2,35.75,0.25,95,140.0
102,A3,36.0,0.5,95,140.0
103,D2,36.0,0.5,95,140.0
104,F#2,36.0,0.25,95,140.0
105,F#2,36.25,0.25,95,140.0
106,E4,36.5,0.5,95,140.0
107,D2,36.5,0.5,95,140.0
108,F#2,36.5,0.25,95,140.0
109,F#2,36.75,0.25,95,140.0
110,D4,37.0,0.5,95,140.0
111,D2,37.0,0.5,95,140.0
112,F#2,37.0,0.25,95,140.0
113,F#2,37.25,0.25,95,140.0
114,A3,37.5,0.5,95,140.0
115,D2,37.5,0.5,95,140.0
116,F#2,37.5,0.25,95,140.0
117,F#2,37.75,0.25,95,140.0
118,E4,38.0,0.5,95,140.0
119,D2,38.0,0.5,95,140.0
120,F#2,38.0,0.25,95,140.0
121,F#2,38.25,0.25,95,140.0
122,D4,38.5,0.5,95,140.0
123,D2,38.5,0.5,95,140.0
124,F#2,38.5,0.25,95,140.0
125,F#2,38.75,0.25,95,140.0
126,A3,39.0,0.5,95,140.0
127,D2,39.0,0.5,95,140.0
128,F#2,39.0,0.25,95,140.0
129,F#2,39.25,0.25,95,140.0
130,D4,39.5,0.5,95,140.0
131,D2,39.5,0.5,95,140.0
132,F#2,39.5,0.25,95,140.0
133,F#2,39.75,0.25,95,140.0
134,F#4,40.0,0.5,95,140.0
135,D2,40.0,0.5,95,140.0
136,F#2,40.0,0.25,95,140.0
137,F#2,40.25,0.25,95,140.0
138,D4,40.5,0.5,95,140.0
139,D2,40.5,0.5,95,140.0
140,F#2,40.5,0.25,95,140.0
141,F#2,40.75,0.25,95,140.0
142,A3,41.0,0.5,95,140.0
143,D2,41.0,0.5,95,140.0
144,F#2,41.0,0.25,95,140.0
145,F#2,41.25,0.25,95,140.0
146,F#4,41.5,0.5,95,140.0
147,D2,41.5,0.5,95,140.0
148,F#2,41.5,0.25,95,140.0
149,F#2,41.75,0.25,95,140.0
150,D4,42.0,0.5,95,140.0
151,D2,42.0,0.5,95,140.0
152,F#2,42.0,0.25,95,140.0
153,F#2,42.25,0.25,95,140.0
154,A3,42.5,0.5,95,140.0
155,D2,42.5,0.5,95,140.0
156,F#2,42.5,0.25,95,140.0
157,F#2,42.75,0.25,95,140.0
158,G4,43.0,0.5,95,140.0
159,D2,43.0,0.5,95,140.0
160,F#2,43.0,0.25,95,140.0
161,F#2,43.25,0.25,95,140.0
162,D4,43.5,0.5,95,140.0
163,D2,43.5,0.5,95,140.0
164,F#2,43.5,0.25,95,140.0
165,F#2,43.75,0.25,95,140.0
166,A3,44.0,0.5,95,140.0
167,D2,44.0,0.5,95,140.0
168,F#2,44.0,0.25,95,140.0
169,F#2,44.25,0.25,95,140.0
170,E4,44.5,0.5,95,140.0
171,D2,44.5,0.5,95,140.0
172,F#2,44.5,0.25,95,140.0
173,F#2,44.75,0.25,95,140.0
174,D4,45.0,0.5,95,140.0
175,D2,45.0,0.5,95,140.0
176,F#2,45.0,0.25,95,140.0
177,F#2,45.25,0.25,95,140.0
178,A3,45.5,0.5,95,140.0
179,D2,45.5,0.5,95,140.0
180,F#2,45.5,0.25,95,140.0
181,F#2,45.75,0.25,95,140.0
182,E4,46.0,0.5,95,140.0
183,D2,46.0,0.5,95,140.0
184,F#2,46.0,0.25,95,140.0
185,F#2,46.25,0.25,95,140.0
186,D4,46.5,0.5,95,140.0
187,D2,46.5,0.5,95,140.0
188,F#2,46.5,0.25,95,140.0
189,F#2,46.75,0.25,95,140.0
190,A3,47.0,0.5,95,140.0
191,D2,47.0,0.5,95,140.0
192,F#2,47.0,0.25,95,140.0
193,F#2,47.25,0.25,95,140.0
194,F#4,47.5,0.5,95,140.0
195,D2,47.5,0.5,95,140.0
196,F#2,47.5,0.25,95,140.0
197,F#2,47.75,0.25,95,140.0
198,C2,48.0,0.5,95,140.0
199,F#2,48.0,0.25,95,140.0
200,E4,48.0,0.5,95,140.0
201,C3,48.0,0.5,95,140.0
202,F#2,48.25,0.25,95,140.0
203,B3,48.5,0.5,95,140.0
204,C2,48.5,0.5,95,140.0
205,F#2,48.5,0.25,95,140.0
206,F#2,48.75,0.25,95,140.0
207,G3,49.0,0.5,95,140.0
208,C2,49.0,0.5,95,140.0
209,F#2,49.0,0.25,95,140.0
210,F#2,49.25,0.25,95,140.0
211,E3,49.5,0.5,95,140.0
212,C2,49.5,0.5,95,140.0
213,F#2,49.5,0.25,95,140.0
214,F#2,49.75,0.25,95,140.0
215,C3,50.0,0.5,95,140.0
216,C2,50.0,0.5,95,140.0
217,F#2,50.0,0.25,95,140.0
218,F#2,50.25,0.25,95,140.0
219,B3,50.5,0.5,95,140.0
220,C2,50.5,0.5,95,140.0
221,F#2,50.5,0.25,95,140.0
222,F#2,50.75,0.25,95,140.0
223,G3,51.0,0.5,95,140.0
224,C2,51.0,0.5,95,140.0
225,F#2,51.0,0.25,95,140.0
226,F#2,51.25,0.25,95,140.0
227,E3,51.5,0.5,95,140.0
228,C2,51.5,0.5,95,140.0
229,F#2,51.5,0.25,95,140.0
230,F#2,51.75,0.25,95,140.0
231,C3,52.0,0.5,95,140.0
232,C2,52.0,0.5,95,140.0
233,F#2,52.0,0.25,95,140.0
234,F#2,52.25,0.25,95,140.0
235,E4,52.5,0.5,95,140.0
236,C2,52.5,0.5,95,140.0
237,F#2,52.5,0.25,95,140.0
238,F#2,52.75,0.25,95,140.0
239,E3,53.0,0.5,95,140.0
240,C2,53.0,0.5,95,140.0
241,F#2,53.0,0.25,95,140.0
242,F#2,53.25,0.25,95,140.0
243,C3,53.5,0.5,95,140.0
244,C2,53.5,0.5,95,140.0
245,F#2,53.5,0.25,95,140.0
246,F#2,53.75,0.25,95,140.0
247,F#4,54.0,0.5,95,140.0
248,D2,54.0,0.5,95,140.0
249,F#2,54.0,0.25,95,140.0
250,F#2,54.25,0.25,95,140.0
251,D4,54.5,0.5,95,140.0
252,D2,54.5,0.5,95,140.0
253,F#2,54.5,0.25,95,140.0
254,F#2,54.75,0.25,95,140.0
255,A3,55.0,0.5,95,140.0
256,D2,55.0,0.5,95,140.0
257,F#2,55.0,0.25,95,140.0
258,F#2,55.25,0.25,95,140.0
259,F#4,55.5,0.5,95,140.0
260,D2,55.5,0.5,95,140.0
261,F#2,55.5,0.25,95,140.0
262,F#2,55.75,0.25,95,140.0
263,F#4,56.0,0.5,95,140.0
264,D2,56.0,0.5,95,140.0
265,F#2,56.0,0.25,95,140.0
266,F#2,56.25,0.25,95,140.0
267,D4,56.5,0.5,95,140.0
268,D2,56.5,0.5,95,140.0
269,F#2,56.5,0.25,95,140.0
270,F#2,56.75,0.25,95,140.0
271,A3,57.0,0.5,95,140.0
272,D2,57.0,0.5,95,140.0
273,F#2,57.0,0.25,95,140.0
274,F#2,57.25,0.25,95,140.0
275,F#4,57.5,0.5,95,140.0
276,D2,57.5,0.5,95,140.0
277,F#2,57.5,0.25,95,140.0
278,F#2,57.75,0.25,95,140.0
279,D4,58.0,0.5,95,140.0
280,D2,58.0,0.5,95,140.0
281,F#2,58.0,0.25,95,140.0
282,F#2,58.25,0.25,95,140.0
283,A3,58.5,0.5,95,140.0
284,D2,58.5,0.5,95,140.0
285,F#2,58.5,0.25,95,140.0
286,F#2,58.75,0.25,95,140.0
287,G4,59.0,0.5,95,140.0
288,D2,59.0,0.5,95,140.0
289,F#2,59.0,0.25,95,140.0
290,F#2,59.25,0.25,95,140.0
291,D4,59.5,0.5,95,140.0
292,D2,59.5,0.5,95,140.0
293,F#2,59.5,0.25,95,140.0
294,F#2,59.75,0.25,95,140.0
295,A3,60.0,0.5,95,140.0
296,D2,60.0,0.5,95,140.0
297,F#2,60.0,0.25,95,140.0
298,F#2,60.25,0.25,95,140.0
299,E4,60.5,0.5,95,140.0
300,D2,60.5,0.5,95,140.0
301,F#2,60.5,0.25,95,140.0
302,F#2,60.75,0.25,95,140.0
303,D4,61.0,0.5,95,140.0
304,D2,61.0,0.5,95,140.0
305,F#2,61.0,0.25,95,140.0
306,F#2,61.25,0.25,95,140.0
307,A3,61.5,0.5,95,140.0
308,D2,61.5,0.5,95,140.0
309,F#2,61.5,0.25,95,140.0
310,F#2,61.75,0.25,95,140.0
311,E4,62.0,0.5,95,140.0
312,D2,62.0,0.5,95,140.0
313,F#2,62.0,0.25,95,140.0
314,F#2,62.25,0.25,95,140.0
315,D4,62.5,0.5,95,140.0
316,D2,62.5,0.5,95,140.0
317,F#2,62.5,0.25,95,140.0
318,F#2,62.75,0.25,95,140.0
319,A3,63.0,0.5,95,140.0
320,D2,63.0,0.5,95,140.0
321,F#2,63.0,0.25,95,140.0
322,F#2,63.25,0.25,95,140.0
323,D4,63.5,0.5,95,140.0
324,D2,63.5,0.5,95,140.0
325,F#2,63.5,0.25,95,140.0
326,F#2,63.75,0.25,95,140.0
327,F#4,64.0,0.5,95,140.0
328,D2,64.0,0.5,95,140.0
329,F#2,64.0,0.25,95,140.0
330,F#2,64.25,0.25,95,140.0
331,D4,64.5,0.5,95,140.0
332,D2,64.5,0.5,95,140.0
333,F#2,64.5,0.25,95,140.0
334,F#2,64.75,0.25,95,140.0
335,A3,65.0,0.5,95,140.0
336,D2,65.0,0.5,95,140.0
337,F#2,65.0,0.25,95,140.0
338,F#2,65.25,0.25,95,140.0
339,F#4,65.5,0.5,95,140.0
340,D2,65.5,0.5,95,140.0
341,F#2,65.5,0.25,95,140.0
342,F#2,65.75,0.25,95,140.0
343,D4,66.0,0.5,95,140.0
344,D2,66.0,0.5,95,140.0
345,F#2,66.0,0.25,95,140.0
346,F#2,66.25,0.25,95,140.0
347,A3,66.5,0.5,95,140.0
348,D2,66.5,0.5,95,140.0
349,F#2,66.5,0.25,95,140.0
350,F#2,66.75,0.25,95,140.0
351,G4,67.0,0.5,95,140.0
352,D2,67.0,0.5,95,140.0
353,F#2,67.0,0.25,95,140.0
354,F#2,67.25,0.25,95,140.0
355,D4,67.5,0.5,95,140.0
356,D2,67.5,0.5,95,140.0
357,F#2,67.5,0.25,95,140.0
358,F#2,67.75,0.25,95,140.0
359,A3,68.0,0.5,95,140.0
360,D2,68.0,0.5,95,140.0
361,F#2,68.0,0.25,95,140.0
362,F#2,68.25,0.25,95,140.0
363,E4,68.5,0.5,95,140.0
364,D2,68.5,0.5,95,140.0
365,F#2,68.5,0.25,95,140.0
366,F#2,68.75,0.25,95,140.0
367,D4,69.0,0.5,95,140.0
368,D2,69.0,0.5,95,140.0
369,F#2,69.0,0.25,95,140.0
370,F#2,69.25,0.25,95,140.0
371,A3,69.5,0.5,95,140.0
372,D2,69.5,0.5,95,140.0
373,F#2,69.5,0.25,95,140.0
374,F#2,69.75,0.25,95,140.0
375,E4,70.0,0.5,95,140.0
376,D2,70.0,0.5,95,140.0
377,F#2,70.0,0.25,95,140.0
378,F#2,70.25,0.25,95,140.0
379,D4,70.5,0.5,95,140.0
380,D2,70.5,0.5,95,140.0
381,F#2,70.5,0.25,95,140.0
382,F#2,70.75,0.25,95,140.0
383,A3,71.0,0.5,95,140.0
384,D2,71.0,0.5,95,140.0
385,F#2,71.0,0.25,95,140.0
386,F#2,71.25,0.25,95,140.0
387,F#4,71.5,0.5,95,140.0
388,D2,71.5,0.5,95,140.0
389,F#2,71.5,0.25,95,140.0
390,F#2,71.75,0.25,95,140.0
391,C2,72.0,0.5,95,140.0
392,F#2,72.0,0.25,95,140.0
393,E4,72.0,0.5,95,140.0
394,C3,72.0,0.5,95,140.0
395,F#2,72.25,0.25,95,140.0
396,B3,72.5,0.5,95,140.0
397,C2,72.5,0.5,95,140.0
398,F#2,72.5,0.25,95,140.0
399,F#2,72.75,0.25,95,140.0
400,G3,73.0,0.5,95,140.0
401,C2,73.0,0.5,95,140.0
402,F#2,73.0,0.25,95,140.0
403,F#2,73.25,0.25,95,140.0
404,E3,73.5,0.5,95,140.0
405,C2,73.5,0.5,95,140.0
406,F#2,73.5,0.25,95,140.0
407,F#2,73.75,0.25,95,140.0
408,C3,74.0,0.5,95,140.0
409,C2,74.0,0.5,95,140.0
410,F#2,74.0,0.25,95,140.0
411,F#2,74.25,0.25,95,140.0
412,B3,74.5,0.5,95,140.0
413,C2,74.5,0.5,95,140.0
414,F#2,74.5,0.25,95,140.0
415,F#2,74.75,0.25,95,140.0
416,G3,75.0,0.5,95,140.0
417,C2,75.0,0.5,95,140.0
418,F#2,75.0,0.25,95,140.0
419,F#2,75.25,0.25,95,140.0
420,E3,75.5,0.5,95,140.0
421,C2,75.5,0.5,95,140.0
422,F#2,75.5,0.25,95,140.0
423,F#2,75.75,0.25,95,140.0
424,C2,76.0,0.5,95,140.0
425,F#2,76.0,0.25,95,140.0
426,E4,76.0,0.5,95,140.0
427,C3,76.0,0.5,95,140.0
428,F#2,76.25,0.25,95,140.0
429,B3,76.5,0.5,95,140.0
430,C2,76.5,0.5,95,140.0
431,F#2,76.5,0.25,95,140.0
432,F#2,76.75,0.25,95,140.0
433,G3,77.0,0.5,95,140.0
434,C2,77.0,0.5,95,140.0
435,F#2,77.0,0.25,95,140.0
436,F#2,77.25,0.25,95,140.0
437,E3,77.5,0.5,95,140.0
438,C2,77.5,0.5,95,140.0
439,F#2,77.5,0.25,95,140.0
440,F#2,77.75,0.25,95,140.0
441,C3,78.0,0.5,95,140.0
442,C2,78.0,0.5,95,140.0
443,F#2,78.0,0.25,95,140.0
444,F#2,78.25,0.25,95,140.0
445,B3,78.5,0.5,95,140.0
446,C2,78.5,0.5,95,140.0
447,F#2,78.5,0.25,95,140.0
448,F#2,78.75,0.25,95,140.0
449,G3,79.0,0.5,95,140.0
450,C2,79.0,0.5,95,140.0
451,F#2,79.0,0.25,95,140.0
452,F#2,79.25,0.25,95,140.0
453,E3,79.5,0.5,95,140.0
454,C2,79.5,0.5,95,140.0
455,F#2,79.5,0.25,95,140.0
456,F#2,79.75,0.25,95,140.0
457,G1,80.0,0.5,95,140.0
458,F#2,80.0,0.25,95,140.0
459,E4,80.0,0.5,95,140.0
460,G2,80.0,0.5,95,140.0
461,F#2,80.25,0.25,95,140.0
462,B3,80.5,0.5,95,140.0
463,G1,80.5,0.5,95,140.0
464,F#2,80.5,0.25,95,140.0
465,F#2,80.75,0.25,95,140.0
466,G3,81.0,0.5,95,140.0
467,G1,81.0,0.5,95,140.0
468,F#2,81.0,0.25,95,140.0
469,F#2,81.25,0.25,95,140.0
470,D3,81.5,0.5,95,140.0
471,G1,81.5,0.5,95,140.0
472,F#2,81.5,0.25,95,140.0
473,F#2,81.75,0.25,95,140.0
474,B2,82.0,0.5,95,140.0
475,G1,82.0,0.5,95,140.0
476,F#2,82.0,0.25,95,140.0
477,F#2,82.25,0.25,95,140.0
478,D3,82.5,0.5,95,140.0
479,G1,82.5,0.5,95,140.0
480,F#2,82.5,0.25,95,140.0
481,F#2,82.75,0.25,95,140.0
482,D3,83.0,0.5,95,140.0
483,G1,83.0,0.5,95,140.0
484,F#2,83.0,0.25,95,140.0
485,F#2,83.25,0.25,95,140.0
486,G3,83.5,0.5,95,140.0
487,G1,83.5,0.5,95,140.0
488,F#2,83.5,0.25,95,140.0
489,F#2,83.75,0.25,95,140.0
490,B-2,84.0,4.0,95,140.0
491,B-1,84.0,4.0,95,140.0
492,B-2,84.0,4.0,95,140.0
493,F3,84.062,3.938,95,140.0
494,B-3,84.125,3.875,95,140.0
495,D4,84.188,3.812,95,140.0
496,G4,84.25,3.75,95,140.0
497,F#4,88.0,0.5,95,140.0
498,D2,88.0,0.5,95,140.0
499,F#2,88.0,0.25,95,140.0
500,C2,88.0,0.25,95,140.0
501,F#2,88.25,0.25,95,140.0
502,D4,88.5,0.5,95,140.0
503,D2,88.5,0.5,95,140.0
504,F#2,88.5,0.25,95,140.0
505,F#2,88.75,0.25,95,140.0
506,A3,89.0,0.5,95,140.0
507,D2,89.0,0.5,95,140.0
508,F#2,89.0,0.25,95,140.0
509,F#2,89.25,0.25,95,140.0
510,F#4,89.5,0.5,95,140.0
511,D2,89.5,0.5,95,140.0
512,F#2,89.5,0.25,95,140.0
513,F#2,89.75,0.25,95,140.0
514,D4,90.0,0.5,95,140.0
515,D2,90.0,0.5,95,140.0
516,F#2,90.0,0.25,95,140.0
517,D2,90.0,0.25,95,140.0
518,F#2,90.25,0.25,95,140.0
519,A3,90.5,0.5,95,140.0
520,D2,90.5,0.5,95,140.0
521,F#2,90.5,0.25,95,140.0
522,F#2,90.75,0.25,95,140.0
523,G4,91.0,0.5,95,140.0
524,D2,91.0,0.5,95,140.0
525,F#2,91.0,0.25,95,140.0
526,F#2,91.25,0.25,95,140.0
527,D4,91.5,0.5,95,140.0
528,D2,91.5,0.5,95,140.0
529,F#2,91.5,0.25,95,140.0
530,F#2,91.75,0.25,95,140.0
531,A3,92.0,0.5,95,140.0
532,D2,92.0,0.5,95,140.0
533,F#2,92.0,0.25,95,140.0
534,C2,92.0,0.25,95,140.0
535,F#2,92.25,0.25,95,140.0
536,E4,92.5,0.5,95,140.0
537,D2,92.5,0.5,95,140.0
538,F#2,92.5,0.25,95,140.0
539,F#2,92.75,0.25,95,140.0
540,D4,93.0,0.5,95,140.0
541,D2,93.0,0.5,95,140.0
542,F#2,93.0,0.25,95,140.0
543,F#2,93.25,0.25,95,140.0
544,A3,93.5,0.5,95,140.0
545,D2,93.5,0.5,95,140.0
546,F#2,93.5,0.25,95,140.0
547,F#2,93.75,0.25,95,140.0
548,E4,94.0,0.5,95,140.0
549,D2,94.0,0.5,95,140.0
550,F#2,94.0,0.25,95,140.0
551,D2,94.0,0.25,95,140.0
552,F#2,94.25,0.25,95,140.0
553,D4,94.5,0.5,95,140.0
554,D2,94.5,0.5,95,140.0
555,F#2,94.5,0.25,95,140.0
556,F#2,94.75,0.25,95,140.0
557,A3,95.0,0.5,95,140.0
558,D2,95.0,0.5,95,140.0
559,F#2,95.0,0.25,95,140.0
560,F#2,95.25,0.25,95,140.0
561,D4,95.5,0.5,95,140.0
562,D2,95.5,0.5,95,140.0
563,F#2,95.5,0.25,95,140.0
564,F#2,95.75,0.25,95,140.0
565,F#4,96.0,0.5,95,140.0
566,D2,96.0,0.5,95,140.0
567,F#2,96.0,0.25,95,140.0
568,C2,96.0,0.25,95,140.0
569,F#2,96.25,0.25,95,140.0
570,D4,96.5,0.5,95,140.0
571,D2,96.5,0.5,95,140.0
572,F#2,96.5,0.25,95,140.0
573,F#2,96.75,0.25,95,140.0
574,A3,97.0,0.5,95,140.0
575,D2,97.0,0.5,95,140.0
576,F#2,97.0,0.25,95,140.0
577,F#2,97.25,0.25,95,140.0
578,F#4,97.5,0.5,95,140.0
579,D2,97.5,0.5,95,140.0
580,F#2,97.5,0.25,95,140.0
581,F#2,97.75,0.25,95,140.0
582,D4,98.0,0.5,95,140.0
583,D2,98.0,0.5,95,140.0
584,F#2,98.0,0.25,95,140.0
585,D2,98.0,0.25,95,140.0
586,F#2,98.25,0.25,95,140.0
587,A3,98.5,0.5,95,140.0
588,D2,98.5,0.5,95,140.0
589,F#2,98.5,0.25,95,140.0
590,F#2,98.75,0.25,95,140.0
591,G4,99.0,0.5,95,140.0
592,D2,99.0,0.5,95,140.0
593,F#2,99.0,0.25,95,140.0
594,F#2,99.25,0.25,95,140.0
595,D4,99.5,0.5,95,140.0
596,D2,99.5,0.5,95,140.0
597,F#2,99.5,0.25,95,140.0
598,F#2,99.75,0.25,95,140.0
599,A3,100.0,0.5,95,140.0
600,D2,100.0,0.5,95,140.0
601,F#2,100.0,0.25,95,140.0
602,C2,100.0,0.25,95,140.0
603,F#2,100.25,0.25,95,140.0
604,E4,100.5,0.5,95,140.0
605,D2,100.5,0.5,95,140.0
606,F#2,100.5,0.25,95,140.0
607,F#2,100.75,0.25,95,140.0
608,D4,101.0,0.5,95,140.0
609,D2,101.0,0.5,95,140.0
610,F#2,101.0,0.25,95,140.0
611,F#2,101.25,0.25,95,140.0
612,A3,101.5,0.5,95,140.0
613,D2,101.5,0.5,95,140.0
614,F#2,101.5,0.25,95,140.0
615,F#2,101.75,0.25,95,140.0
616,E4,102.0,0.5,95,140.0
617,D2,102.0,0.5,95,140.0
618,F#2,102.0,0.25,95,140.0
619,D2,102.0,0.25,95,140.0
620,F#2,102.25,0.25,95,140.0
621,D4,102.5,0.5,95,140.0
622,D2,102.5,0.5,95,140.0
623,F#2,102.5,0.25,95,140.0
624,F#2,102.75,0.25,95,140.0
625,A3,103.0,0.5,95,140.0
626,D2,103.0,0.5,95,140.0
627,F#2,103.0,0.25,95,140.0
628,F#2,103.25,0.25,95,140.0
629,F#4,103.5,0.5,95,140.0
630,D2,103.5,0.5,95,140.0
631,F#2,103.5,0.25,95,140.0
632,F#2,103.75,0.25,95,140.0
633,C2,104.0,0.5,95,140.0
634,E4,104.0,0.5,95,140.0
635,C3,104.0,0.5,95,140.0
636,F#2,104.0,0.25,95,140.0
637,C2,104.0,0.25,95,140.0
638,F#2,104.25,0.25,95,140.0
639,B3,104.5,0.5,95,140.0
640,C2,104.5,0.5,95,140.0
641,F#2,104.5,0.25,95,140.0
642,F#2,104.75,0.25,95,140.0
643,G3,105.0,0.5,95,140.0
644,C2,105.0,0.5,95,140.0
645,F#2,105.0,0.25,95,140.0
646,F#2,105.25,0.25,95,140.0
647,E3,105.5,0.5,95,140.0
648,C2,105.5,0.5,95,140.0
649,F#2,105.5,0.25,95,140.0
650,F#2,105.75,0.25,95,140.0
651,C3,106.0,0.5,95,140.0
652,C2,106.0,0.5,95,140.0
653,F#2,106.0,0.25,95,140.0
654,D2,106.0,0.25,95,140.0
655,F#2,106.25,0.25,95,140.0
656,B3,106.5,0.5,95,140.0
657,C2,106.5,0.5,95,140.0
658,F#2,106.5,0.25,95,140.0
659,F#2,106.75,0.25,95,140.0
660,G3,107.0,0.5,95,140.0
661,C2,107.0,0.5,95,140.0
662,F#2,107.0,0.25,95,140.0
663,F#2,107.25,0.25,95,140.0
664,E3,107.5,0.5,95,140.0
665,C2,107.5,0.5,95,140.0
666,F#2,107.5,0.25,95,140.0
667,F#2,107.75,0.25,95,140.0
668,C3,108.0,0.5,95,140.0
669,C2,108.0,0.5,95,140.0
670,F#2,108.0,0.25,95,140.0
671,C2,108.0,0.25,95,140.0
672,F#2,108.25,0.25,95,140.0
673,E4,108.5,0.5,95,140.0
674,C2,108.5,0.5,95,140.0
675,F#2,108.5,0.25,95,140.0
676,F#2,108.75,0.25,95,140.0
677,E3,109.0,0.5,95,140.0
678,C2,109.0,0.5,95,140.0
679,F#2,109.0,0.25,95,140.0
680,F#2,109.25,0.25,95,140.0
681,C3,109.5,0.5,95,140.0
682,C2,109.5,0.5,95,140.0
683,F#2,109.5,0.25,95,140.0
684,F#2,109.75,0.25,95,140.0
685,F#4,110.0,0.5,95,140.0
686,D2,110.0,0.5,95,140.0
687,F#2,110.0,0.25,95,140.0
688,D2,110.0,0.25,95,140.0
689,F#2,110.25,0.25,95,140.0
690,D4,110.5,0.5,95,140.0
691,D2,110.5,0.5,95,140.0
692,F#2,110.5,0.25,95,140.0
693,F#2,110.75,0.25,95,140.0
694,A3,111.0,0.5,95,140.0
695,D2,111.0,0.5,95,140.0
696,F#2,111.0,0.25,95,140.0
697,F#2,111.25,0.25,95,140.0
698,F#4,111.5,0.5,95,140.0
699,D2,111.5,0.5,95,140.0
700,F#2,111.5,0.25,95,140.0
701,F#2,111.75,0.25,95,140.0
702,F#4,112.0,0.5,95,140.0
703,D2,112.0,0.5,95,140.0
704,F#2,112.0,0.25,95,140.0
705,C2,112.0,0.25,95,140.0
706,F#2,112.25,0.25,95,140.0
707,D4,112.5,0.5,95,140.0
708,D2,112.5,0.5,95,140.0
709,F#2,112.5,0.25,95,140.0
710,F#2,112.75,0.25,95,140.0
711,A3,113.0,0.5,95,140.0
712,D2,113.0,0.5,95,140.0
713,F#2,113.0,0.25,95,140.0
714,F#2,113.25,0.25,95,140.0
715,F#4,113.5,0.5,95,140.0
716,D2,113.5,0.5,95,140.0
717,F#2,113.5,0.25,95,140.0
718,F#2,113.75,0.25,95,140.0
719,D4,114.0,0.5,95,140.0
720,D2,114.0,0.5,95,140.0
721,F#2,114.0,0.25,95,140.0
722,D2,114.0,0.25,95,140.0
723,F#2,114.25,0.25,95,140.0
724,A3,114.5,0.5,95,140.0
725,D2,114.5,0.5,95,140.0
726,F#2,114.5,0.25,95,140.0
727,F#2,114.75,0.25,95,140.0
728,G4,115.0,0.5,95,140.0
729,D2,115.0,0.5,95,140.0
730,F#2,115.0,0.25,95,140.0
731,F#2,115.25,0.25,95,140.0
732,D4,115.5,0.5,95,140.0
733,D2,115.5,0.5,95,140.0
734,F#2,115.5,0.25,95,140.0
735,F#2,115.75,0.25,95,140.0
736,A3,116.0,0.5,95,140.0
737,D2,116.0,0.5,95,140.0
738,F#2,116.0,0.25,95,140.0
739,C2,116.0,0.25,95,140.0
740,F#2,116.25,0.25,95,140.0
741,E4,116.5,0.5,95,140.0
742,D2,116.5,0.5,95,140.0
743,F#2,116.5,0.25,95,140.0
744,F#2,116.75,0.25,95,140.0
745,D4,117.0,0.5,95,140.0
746,D2,117.0,0.5,95,140.0
747,F#2,117.0,0.25,95,140.0
748,F#2,117.25,0.25,95,140.0
749,A3,117.5,0.5,95,140.0
750,D2,117.5,0.5,95,140.0
751,F#2,117.5,0.25,95,140.0
752,F#2,117.75,0.25,95,140.0
753,E4,118.0,0.5,95,140.0
754,D2,118.0,0.5,95,140.0
755,F#2,118.0,0.25,95,140.0
756,D2,118.0,0.25,95,140.0
757,F#2,118.25,0.25,95,140.0
758,D4,118.5,0.5,95,140.0
759,D2,118.5,0.5,95,140.0
760,F#2,118.5,0.25,95,140.0
761,F#2,118.75,0.25,95,140.0
762,A3,119.0,0.5,95,140.0
763,D2,119.0,0.5,95,140.0
764,F#2,119.0,0.25,95,140.0
765,F#2,119.25,0.25,95,140.0
766,D4,119.5,0.5,95,140.0
767,D2,119.5,0.5,95,140.0
768,F#2,119.5,0.25,95,140.0
769,F#2,119.75,0.25,95,140.0
770,F#4,120.0,0.5,95,140.0
771,D2,120.0,0.5,95,140.0
772,F#2,120.0,0.25,95,140.0
773,C2,120.0,0.25,95,140.0
774,F#2,120.25,0.25,95,140.0
775,D4,120.5,0.5,95,140.0
776,D2,120.5,0.5,95,140.0
777,F#2,120.5,0.25,95,140.0
778,F#2,120.75,0.25,95,140.0
779,A3,121.0,0.5,95,140.0
780,D2,121.0,0.5,95,140.0
781,F#2,121.0,0.25,95,140.0
782,F#2,121.25,0.25,95,140.0
783,F#4,121.5,0.5,95,140.0
784,D2,121.5,0.5,95,140.0
785,F#2,121.5,0.25,95,140.0
786,F#2,121.75,0.25,95,140.0
787,D4,122.0,0.5,95,140.0
788,D2,122.0,0.5,95,140.0
789,F#2,122.0,0.25,95,140.0
790,D2,122.0,0.25,95,140.0
791,F#2,122.25,0.25,95,140.0
792,A3,122.5,0.5,95,140.0
793,D2,122.5,0.5,95,140.0
794,F#2,122.5,0.25,95,140.0
795,F#2,122.75,0.25,95,140.0
796,G4,123.0,0.5,95,140.0
797,D2,123.0,0.5,95,140.0
798,F#2,123.0,0.25,95,140.0
799,F#2,123.25,0.25,95,140.0
800,D4,123.5,0.5,95,140.0
801,D2,123.5,0.5,95,140.0
802,F#2,123.5,0.25,95,140.0
803,F#2,123.75,0.25,95,140.0
804,A3,124.0,0.5,95,140.0
805,D2,124.0,0.5,95,140.0
806,F#2,124.0,0.25,95,140.0
807,C2,124.0,0.25,95,140.0
808,F#2,124.25,0.25,95,140.0
809,E4,124.5,0.5,95,140.0
810,D2,124.5,0.5,95,140.0
811,F#2,124.5,0.25,95,140.0
812,F#2,124.75,0.25,95,140.0
813,D4,125.0,0.5,95,140.0
814,D2,125.0,0.5,95,140.0
815,F#2,125.0,0.25,95,140.0
816,F#2,125.25,0.25,95,140.0
817,A3,125.5,0.5,95,140.0
818,D2,125.5,0.5,95,140.0
819,F#2,125.5,0.25,95,140.0
820,F#2,125.75,0.25,95,140.0
821,E4,126.0,0.5,95,140.0
822,D2,126.0,0.5,95,140.0
823,F#2,126.0,0.25,95,140.0
824,D2,126.0,0.25,95,140.0
825,F#2,126.25,0.25,95,140.0
826,D4,126.5,0.5,95,140.0
827,D2,126.5,0.5,95,140.0
828,F#2,126.5,0.25,95,140.0
829,F#2,126.75,0.25,95,140.0
830,A3,127.0,0.5,95,140.0
831,D2,127.0,0.5,95,140.0
832,F#2,127.0,0.25,95,140.0
833,F#2,127.25,0.25,95,140.0
834,F#4,127.5,0.5,95,140.0
835,D2,127.5,0.5,95,140.0
836,F#2,127.5,0.25,95,140.0
837,F#2,127.75,0.25,95,140.0
838,C2,128.0,0.5,95,140.0
839,E4,128.0,0.5,95,140.0
840,C3,128.0,0.5,95,140.0
841,F#2,128.0,0.25,95,140.0
842,C2,128.0,0.25,95,140.0
843,F#2,128.25,0.25,95,140.0
844,B3,128.5,0.5,95,140.0
845,C2,128.5,0.5,95,140.0
846,F#2,128.5,0.25,95,140.0
847,F#2,128.75,0.25,95,140.0
848,G3,129.0,0.5,95,140.0
849,C2,129.0,0.5,95,140.0
850,F#2,129.0,0.25,95,140.0
851,F#2,129.25,0.25,95,140.0
852,E3,129.5,0.5,95,140.0
853,C2,129.5,0.5,95,140.0
854,F#2,129.5,0.25,95,140.0
855,F#2,129.75,0.25,95,140.0
856,C3,130.0,0.5,95,140.0
857,C2,130.0,0.5,95,140.0
858,F#2,130.0,0.25,95,140.0
859,D2,130.0,0.25,95,140.0
860,F#2,130.25,0.25,95,140.0
861,B3,130.5,0.5,95,140.0
862,C2,130.5,0.5,95,140.0
863,F#2,130.5,0.25,95,140.0
864,F#2,130.75,0.25,95,140.0
865,G3,131.0,0.5,95,140.0
866,C2,131.0,0.5,95,140.0
867,F#2,131.0,0.25,95,140.0
868,F#2,131.25,0.25,95,140.0
869,E3,131.5,0.5,95,140.0
870,C2,131.5,0.5,95,140.0
871,F#2,131.5,0.25,95,140.0
872,F#2,131.75,0.25,95,140.0
873,C2,132.0,0.5,95,140.0
874,E4,132.0,0.5,95,140.0
875,C3,132.0,0.5,95,140.0
876,F#2,132.0,0.25,95,140.0
877,C2,132.0,0.25,95,140.0
878,F#2,132.25,0.25,95,140.0
879,B3,132.5,0.5,95,140.0
880,C2,132.5,0.5,95,140.0
881,F#2,132.5,0.25,95,140.0
882,F#2,132.75,0.25,95,140.0
883,G3,133.0,0.5,95,140.0
884,C2,133.0,0.5,95,140.0
885,F#2,133.0,0.25,95,140.0
886,F#2,133.25,0.25,95,140.0
887,E3,133.5,0.5,95,140.0
888,C2,133.5,0.5,95,140.0
889,F#2,133.5,0.25,95,140.0
890,F#2,133.75,0.25,95,140.0
891,C3,134.0,0.5,95,140.0
892,C2,134.0,0.5,95,140.0
893,F#2,134.0,0.25,95,140.0
894,D2,134.0,0.25,95,140.0
895,F#2,134.25,0.25,95,140.0
896,B3,134.5,0.5,95,140.0
897,C2,134.5,0.5,95,140.0
898,F#2,134.5,0.25,95,140.0
899,F#2,134.75,0.25,95,140.0
900,G3,135.0,0.5,95,140.0
901,C2,135.0,0.5,95,140.0
902,F#2,135.0,0.25,95,140.0
903,F#2,135.25,0.25,95,140.0
904,E3,135.5,0.5,95,140.0
905,C2,135.5,0.5,95,140.0
906,F#2,135.5,0.25,95,140.0
907,F#2,135.75,0.25,95,140.0
908,G1,136.0,0.5,95,140.0
909,E4,136.0,0.5,95,140.0
910,G2,136.0,0.5,95,140.0
911,F#2,136.0,0.25,95,140.0
912,C2,136.0,0.25,95,140.0
913,F#2,136.25,0.25,95,140.0
914,B3,136.5,0.5,95,140.0
915,G1,136.5,0.5,95,140.0
916,F#2,136.5,0.25,95,140.0
917,F#2,136.75,0.25,95,140.0
918,G3,137.0,0.5,95,140.0
919,G1,137.0,0.5,95,140.0
920,F#2,137.0,0.25,95,140.0
921,F#2,137.25,0.25,95,140.0
922,D3,137.5,0.5,95,140.0
923,G1,137.5,0.5,95,140.0
924,F#2,137.5,0.25,95,140.0
925,F#2,137.75,0.25,95,140.0
926,B2,138.0,0.5,95,140.0
927,G1,138.0,0.5,95,140.0
928,F#2,138.0,0.25,95,140.0
929,D2,138.0,0.25,95,140.0
930,F#2,138.25,0.25,95,140.0
931,D3,138.5,0.5,95,140.0
932,G1,138.5,0.5,95,140.0
933,F#2,138.5,0.25,95,140.0
934,F#2,138.75,0.25,95,140.0
935,D3,139.0,0.5,95,140.0
936,G1,139.0,0.5,95,140.0
937,F#2,139.0,0.25,95,140.0
938,F#2,139.25,0.25,95,140.0
939,G3,139.5,0.5,95,140.0
940,G1,139.5,0.5,95,140.0
941,F#2,139.5,0.25,95,140.0
942,F#2,139.75,0.25,95,140.0
943,B-1,140.0,0.5,95,140.0
944,G4,140.0,0.5,95,140.0
945,B-2,140.0,0.5,95,140.0
946,F#2,140.0,0.25,95,140.0
947,C2,140.0,0.25,95,140.0
948,F#2,140.25,0.25,95,140.0
949,D4,140.5,0.5,95,140.0
950,B-1,140.5,0.5,95,140.0
951,F#2,140.5,0.25,95,140.0
952,F#2,140.75,0.25,95,140.0
953,B-3,141.0,0.5,95,140.0
954,B-1,141.0,0.5,95,140.0
955,F#2,141.0,0.25,95,140.0
956,F#2,141.25,0.25,95,140.0
957,F3,141.5,0.5,95,140.0
958,B-1,141.5,0.5,95,140.0
959,F#2,141.5,0.25,95,140.0
960,F#2,141.75,0.25,95,140.0
961,D4,142.0,0.5,95,140.0
962,B-1,142.0,0.5,95,140.0
963,F#2,142.0,0.25,95,140.0
964,D2,142.0,0.25,95,140.0
965,F#2,142.25,0.25,95,140.0
966,B-3,142.5,0.5,95,140.0
967,B-1,142.5,0.5,95,140.0
968,F#2,142.5,0.25,95,140.0
969,F#2,142.75,0.25,95,140.0
970,F3,143.0,0.5,95,140.0
971,B-1,143.0,0.5,95,140.0
972,F#2,143.0,0.25,95,140.0
973,F#2,143.25,0.25,95,140.0
974,D4,143.5,0.5,95,140.0
975,B-1,143.5,0.5,95,140.0
976,F#2,143.5,0.25,95,140.0
977,F#2,143.75,0.25,95,140.0
978,E2,144.0,0.5,95,140.0
979,E1,144.0,0.5,95,140.0
980,G3,144.0,4.0,95,140.0
981,E3,144.0,4.0,95,140.0
982,B2,144.0,4.0,95,140.0
983,E2,144.0,4.0,95,140.0
984,F#2,144.0,0.5,95,140.0
985,C2,144.0,0.5,95,140.0
986,C#3,144.0,0.5,95,140.0
987,E3,144.5,0.5,95,140.0
988,E1,144.5,0.5,95,140.0
989,F#2,144.5,0.5,95,140.0
990,B2,145.0,0.5,95,140.0
991,E1,145.0,0.5,95,140.0
992,F#2,145.0,0.5,95,140.0
993,G3,145.5,0.5,95,140.0
994,E1,145.5,0.5,95,140.0
995,F#2,145.5,0.5,95,140.0
996,E3,146.0,0.5,95,140.0
997,E1,146.0,0.5,95,140.0
998,F#2,146.0,0.5,95,140.0
999,D2,146.0,0.5,95,140.0
1000,D2,146.0,0.5,95,140.0
1001,G3,146.5,0.5,95,140.0
1002,E1,146.5,0.5,95,140.0
1003,F#2,146.5,0.5,95,140.0
1004,B3,147.0,0.5,95,140.0
1005,E1,147.0,0.5,95,140.0
1006,F#2,147.0,0.5,95,140.0
1007,G3,147.5,0.5,95,140.0
1008,E1,147.5,0.5,95,140.0
1009,F#2,147.5,0.5,95,140.0
1010,E3,148.0,0.5,95,140.0
1011,E1,148.0,0.5,95,140.0
1012,F#2,148.0,0.5,95,140.0
1013,C2,148.0,0.5,95,140.0
1014,B2,148.5,0.5,95,140.0
1015,E1,148.5,0.5,95,140.0
1016,F#2,148.5,0.5,95,140.0
1017,G3,149.0,0.5,95,140.0
1018,E1,149.0,0.5,95,140.0
1019,F#2,149.0,0.5,95,140.0
1020,E3,149.5,0.5,95,140.0
1021,E1,149.5,0.5,95,140.0
1022,F#2,149.5,0.5,95,140.0
1023,B2,150.0,0.5,95,140.0
1024,E1,150.0,0.5,95,140.0
1025,F#2,150.0,0.5,95,140.0
1026,D2,150.0,0.5,95,140.0
1027,D2,150.0,0.5,95,140.0
1028,B3,150.5,0.5,95,140.0
1029,E1,150.5,0.5,95,140.0
1030,F#2,150.5,0.5,95,140.0
1031,G3,151.0,0.5,95,140.0
1032,E1,151.0,0.5,95,140.0
1033,F#2,151.0,0.5,95,140.0
1034,E3,151.5,0.5,95,140.0
1035,E1,151.5,0.5,95,140.0
1036,F#2,151.5,0.5,95,140.0
1037,C3,152.0,0.5,95,140.0
1038,C2,152.0,0.5,95,140.0
1039,G3,152.0,4.0,95,140.0
1040,E3,152.0,4.0,95,140.0
1041,B2,152.0,4.0,95,140.0
1042,E2,152.0,4.0,95,140.0
1043,F#2,152.0,0.5,95,140.0
1044,C2,152.0,0.5,95,140.0
1045,C#3,152.0,0.5,95,140.0
1046,G3,152.5,0.5,95,140.0
1047,C2,152.5,0.5,95,140.0
1048,F#2,152.5,0.5,95,140.0
1049,E3,153.0,0.5,95,140.0
1050,C2,153.0,0.5,95,140.0
1051,F#2,153.0,0.5,95,140.0
1052,B3,153.5,0.5,95,140.0
1053,C2,153.5,0.5,95,140.0
1054,F#2,153.5,0.5,95,140.0
1055,G3,154.0,0.5,95,140.0
1056,C2,154.0,0.5,95,140.0
1057,F#2,154.0,0.5,95,140.0
1058,D2,154.0,0.5,95,140.0
1059,D2,154.0,0.5,95,140.0
1060,B3,154.5,0.5,95,140.0
1061,C2,154.5,0.5,95,140.0
1062,F#2,154.5,0.5,95,140.0
1063,E4,155.0,0.5,95,140.0
1064,C2,155.0,0.5,95,140.0
1065,F#2,155.0,0.5,95,140.0
1066,B3,155.5,0.5,95,140.0
1067,C2,155.5,0.5,95,140.0
1068,F#2,155.5,0.5,95,140.0
1069,E3,156.0,0.5,95,140.0
1070,C2,156.0,0.5,95,140.0
1071,C4,156.0,4.0,95,140.0
1072,G3,156.0,4.0,95,140.0
1073,C3,156.0,4.0,95,140.0
1074,F#2,156.0,0.5,95,140.0
1075,C2,156.0,0.5,95,140.0
1076,C3,156.5,0.5,95,140.0
1077,C2,156.5,0.5,95,140.0
1078,F#2,156.5,0.5,95,140.0
1079,G3,157.0,0.5,95,140.0
1080,C2,157.0,0.5,95,140.0
1081,F#2,157.0,0.5,95,140.0
1082,E3,157.5,0.5,95,140.0
1083,C2,157.5,0.5,95,140.0
1084,F#2,157.5,0.5,95,140.0
1085,C3,158.0,0.5,95,140.0
1086,C2,158.0,0.5,95,140.0
1087,F#2,158.0,0.5,95,140.0
1088,D2,158.0,0.5,95,140.0
1089,D2,158.0,0.5,95,140.0
1090,B3,158.5,0.5,95,140.0
1091,C2,158.5,0.5,95,140.0
1092,F#2,158.5,0.5,95,140.0
1093,G3,159.0,0.5,95,140.0
1094,C2,159.0,0.5,95,140.0
1095,F#2,159.0,0.5,95,140.0
1096,E3,159.5,0.5,95,140.0
1097,C2,159.5,0.5,95,140.0
1098,F#2,159.5,0.5,95,140.0
1099,G2,160.0,0.5,95,140.0
1100,G1,160.0,0.5,95,140.0
1101,F#2,160.0,0.5,95,140.0
1102,C2,160.0,0.5,95,140.0
1103,C#3,160.0,0.5,95,140.0
1104,D3,160.5,0.5,95,140.0
1105,G1,160.5,0.5,95,140.0
1106,F#2,160.5,0.5,95,140.0
1107,B2,161.0,0.5,95,140.0
1108,G1,161.0,0.5,95,140.0
1109,F#2,161.0,0.5,95,140.0
1110,G3,161.5,0.5,95,140.0
1111,G1,161.5,0.5,95,140.0
1112,F#2,161.5,0.5,95,140.0
1113,D3,162.0,0.5,95,140.0
1114,G1,162.0,0.5,95,140.0
1115,F#2,162.0,0.5,95,140.0
1116,D2,162.0,0.5,95,140.0
1117,D2,162.0,0.5,95,140.0
1118,G3,162.5,0.5,95,140.0
1119,G1,162.5,0.5,95,140.0
1120,F#2,162.5,0.5,95,140.0
1121,B3,163.0,0.5,95,140.0
1122,G1,163.0,0.5,95,140.0
1123,F#2,163.0,0.5,95,140.0
1124,G3,163.5,0.5,95,140.0
1125,G1,163.5,0.5,95,140.0
1126,F#2,163.5,0.5,95,140.0
1127,D3,164.0,0.5,95,140.0
1128,G1,164.0,0.5,95,140.0
1129,C4,164.0,4.0,95,140.0
1130,G3,164.0,4.0,95,140.0
1131,C3,164.0,4.0,95,140.0
1132,F#2,164.0,0.5,95,140.0
1133,C2,164.0,0.5,95,140.0
1134,B2,164.5,0.5,95,140.0
1135,G1,164.5,0.5,95,140.0
1136,F#2,164.5,0.5,95,140.0
1137,G3,165.0,0.5,95,140.0
1138,G1,165.0,0.5,95,140.0
1139,F#2,165.0,0.5,95,140.0
1140,E3,165.5,0.5,95,140.0
1141,G1,165.5,0.5,95,140.0
1142,F#2,165.5,0.5,95,140.0
1143,B2,166.0,0.5,95,140.0
1144,G1,166.0,0.5,95,140.0
1145,F#2,166.0,0.5,95,140.0
1146,D2,166.0,0.5,95,140.0
1147,D2,166.0,0.5,95,140.0
1148,B3,166.5,0.5,95,140.0
1149,G1,166.5,0.5,95,140.0
1150,F#2,166.5,0.5,95,140.0
1151,G3,167.0,0.5,95,140.0
1152,G1,167.0,0.5,95,140.0
1153,F#2,167.0,0.5,95,140.0
1154,D3,167.5,0.5,95,140.0
1155,G1,167.5,0.5,95,140.0
1156,F#2,167.5,0.5,95,140.0
1157,D3,168.0,0.5,95,140.0
1158,D2,168.0,0.5,95,140.0
1159,G3,168.0,4.0,95,140.0
1160,D3,168.0,4.0,95,140.0
1161,G2,168.0,4.0,95,140.0
1162,F#2,168.0,0.5,95,140.0
1163,C2,168.0,0.5,95,140.0
1164,C#3,168.0,0.5,95,140.0
1165,A3,168.5,0.5,95,140.0
1166,D2,168.5,0.5,95,140.0
1167,F#2,168.5,0.5,95,140.0
1168,F#4,169.0,0.5,95,140.0
1169,D2,169.0,0.5,95,140.0
1170,F#2,169.0,0.5,95,140.0
1171,D4,169.5,0.5,95,140.0
1172,D2,169.5,0.5,95,140.0
1173,F#2,169.5,0.5,95,140.0
1174,A3,170.0,0.5,95,140.0
1175,D2,170.0,0.5,95,140.0
1176,F#2,170.0,0.5,95,140.0
1177,D2,170.0,0.5,95,140.0
1178,D2,170.0,0.5,95,140.0
1179,F#4,170.5,0.5,95,140.0
1180,D2,170.5,0.5,95,140.0
1181,F#2,170.5,0.5,95,140.0
1182,D4,171.0,0.5,95,140.0
1183,D2,171.0,0.5,95,140.0
1184,F#2,171.0,0.5,95,140.0
1185,A3,171.5,0.5,95,140.0
1186,D2,171.5,0.5,95,140.0
1187,F#2,171.5,0.5,95,140.0
1188,F#4,172.0,0.5,95,140.0
1189,D2,172.0,0.5,95,140.0
1190,F#2,172.0,0.5,95,140.0
1191,C2,172.0,0.5,95,140.0
1192,D4,172.5,0.5,95,140.0
1193,D2,172.5,0.5,95,140.0
1194,F#2,172.5,0.5,95,140.0
1195,A3,173.0,0.5,95,140.0
1196,D2,173.0,0.5,95,140.0
1197,F#2,173.0,0.5,95,140.0
1198,G4,173.5,0.5,95,140.0
1199,D2,173.5,0.5,95,140.0
1200,F#2,173.5,0.5,95,140.0
1201,D4,174.0,0.5,95,140.0
1202,D2,174.0,0.5,95,140.0
1203,F#2,174.0,0.5,95,140.0
1204,D2,174.0,0.5,95,140.0
1205,D2,174.0,0.5,95,140.0
1206,A3,174.5,0.5,95,140.0
1207,D2,174.5,0.5,95,140.0
1208,F#2,174.5,0.5,95,140.0
1209,F#4,175.0,0.5,95,140.0
1210,D2,175.0,0.5,95,140.0
1211,F#2,175.0,0.5,95,140.0
1212,D4,175.5,0.5,95,140.0
1213,D2,175.5,0.5,95,140.0
1214,F#2,175.5,0.5,95,140.0
1215,E2,176.0,0.5,95,140.0
1216,E1,176.0,0.5,95,140.0
1217,G3,176.0,4.0,95,140.0
1218,D3,176.0,4.0,95,140.0
1219,G2,176.0,4.0,95,140.0
1220,F#2,176.0,0.5,95,140.0
1221,C2,176.0,0.5,95,140.0
1222,C#3,176.0,0.5,95,140.0
1223,E3,176.5,0.5,95,140.0
1224,E1,176.5,0.5,95,140.0
1225,F#2,176.5,0.5,95,140.0
1226,B2,177.0,0.5,95,140.0
1227,E1,177.0,0.5,95,140.0
1228,F#2,177.0,0.5,95,140.0
1229,G3,177.5,0.5,95,140.0
1230,E1,177.5,0.5,95,140.0
1231,F#2,177.5,0.5,95,140.0
1232,E3,178.0,0.5,95,140.0
1233,E1,178.0,0.5,95,140.0
1234,F#2,178.0,0.5,95,140.0
1235,D2,178.0,0.5,95,140.0
1236,D2,178.0,0.5,95,140.0
1237,G3,178.5,0.5,95,140.0
1238,E1,178.5,0.5,95,140.0
1239,F#2,178.5,0.5,95,140.0
1240,B3,179.0,0.5,95,140.0
1241,E1,179.0,0.5,95,140.0
1242,F#2,179.0,0.5,95,140.0
1243,G3,179.5,0.5,95,140.0
1244,E1,179.5,0.5,95,140.0
1245,F#2,179.5,0.5,95,140.0
1246,E3,180.0,0.5,95,140.0
1247,E1,180.0,0.5,95,140.0
1248,D4,180.0,4.0,95,140.0
1249,A3,180.0,4.0,95,140.0
1250,D3,180.0,4.0,95,140.0
1251,F#2,180.0,0.5,95,140.0
1252,C2,180.0,0.5,95,140.0
1253,B2,180.5,0.5,95,140.0
1254,E1,180.5,0.5,95,140.0
1255,F#2,180.5,0.5,95,140.0
1256,G3,181.0,0.5,95,140.0
1257,E1,181.0,0.5,95,140.0
1258,F#2,181.0,0.5,95,140.0
1259,E3,181.5,0.5,95,140.0
1260,E1,181.5,0.5,95,140.0
1261,F#2,181.5,0.5,95,140.0
1262,B2,182.0,0.5,95,140.0
1263,E1,182.0,0.5,95,140.0
1264,F#2,182.0,0.5,95,140.0
1265,D2,182.0,0.5,95,140.0
1266,D2,182.0,0.5,95,140.0
1267,B3,182.5,0.5,95,140.0
1268,E1,182.5,0.5,95,140.0
1269,F#2,182.5,0.5,95,140.0
1270,G3,183.0,0.5,95,140.0
1271,E1,183.0,0.5,95,140.0
1272,F#2,183.0,0.5,95,140.0
1273,E3,183.5,0.5,95,140.0
1274,E1,183.5,0.5,95,140.0
1275,F#2,183.5,0.5,95,140.0
1276,C3,184.0,0.5,95,140.0
1277,C2,184.0,0.5,95,140.0
1278,F#2,184.0,0.5,95,140.0
1279,C2,184.0,0.5,95,140.0
1280,C#3,184.0,0.5,95,140.0
1281,G3,184.5,0.5,95,140.0
1282,C2,184.5,0.5,95,140.0
1283,F#2,184.5,0.5,95,140.0
1284,E3,185.0,0.5,95,140.0
1285,C2,185.0,0.5,95,140.0
1286,F#2,185.0,0.5,95,140.0
1287,B3,185.5,0.5,95,140.0
1288,C2,185.5,0.5,95,140.0
1289,F#2,185.5,0.5,95,140.0
1290,G3,186.0,0.5,95,140.0
1291,C2,186.0,0.5,95,140.0
1292,F#2,186.0,0.5,95,140.0
1293,D2,186.0,0.5,95,140.0
1294,D2,186.0,0.5,95,140.0
1295,B3,186.5,0.5,95,140.0
1296,C2,186.5,0.5,95,140.0
1297,F#2,186.5,0.5,95,140.0
1298,E4,187.0,0.5,95,140.0
1299,C2,187.0,0.5,95,140.0
1300,F#2,187.0,0.5,95,140.0
1301,B3,187.5,0.5,95,140.0
1302,C2,187.5,0.5,95,140.0
1303,F#2,187.5,0.5,95,140.0
1304,E3,188.0,0.5,95,140.0
1305,C2,188.0,0.5,95,140.0
1306,D4,188.0,4.0,95,140.0
1307,A3,188.0,4.0,95,140.0
1308,D3,188.0,4.0,95,140.0
1309,F#2,188.0,0.5,95,140.0
1310,C2,188.0,0.5,95,140.0
1311,C3,188.5,0.5,95,140.0
1312,C2,188.5,0.5,95,140.0
1313,F#2,188.5,0.5,95,140.0
1314,G3,189.0,0.5,95,140.0
1315,C2,189.0,0.5,95,140.0
1316,F#2,189.0,0.5,95,140.0
1317,E3,189.5,0.5,95,140.0
1318,C2,189.5,0.5,95,140.0
1319,F#2,189.5,0.5,95,140.0
1320,C3,190.0,0.5,95,140.0
1321,C2,190.0,0.5,95,140.0
1322,F#2,190.0,0.5,95,140.0
1323,D2,190.0,0.5,95,140.0
1324,D2,190.0,0.5,95,140.0
1325,B3,190.5,0.5,95,140.0
1326,C2,190.5,0.5,95,140.0
1327,F#2,190.5,0.5,95,140.0
1328,G3,191.0,0.5,95,140.0
1329,C2,191.0,0.5,95,140.0
1330,F#2,191.0,0.5,95,140.0
1331,E3,191.5,0.5,95,140.0
1332,C2,191.5,0.5,95,140.0
1333,F#2,191.5,0.5,95,140.0
1334,G2,192.0,0.5,95,140.0
1335,G1,192.0,0.5,95,140.0
1336,G3,192.0,4.0,95,140.0
1337,E3,192.0,4.0,95,140.0
1338,B2,192.0,4.0,95,140.0
1339,E2,192.0,4.0,95,140.0
1340,F#2,192.0,0.5,95,140.0
1341,C2,192.0,0.5,95,140.0
1342,C#3,192.0,0.5,95,140.0
1343,D3,192.5,0.5,95,140.0
1344,G1,192.5,0.5,95,140.0
1345,F#2,192.5,0.5,95,140.0
1346,B2,193.0,0.5,95,140.0
1347,G1,193.0,0.5,95,140.0
1348,F#2,193.0,0.5,95,140.0
1349,G3,193.5,0.5,95,140.0
1350,G1,193.5,0.5,95,140.0
1351,F#2,193.5,0.5,95,140.0
1352,D3,194.0,0.5,95,140.0
1353,G1,194.0,0.5,95,140.0
1354,F#2,194.0,0.5,95,140.0
1355,D2,194.0,0.5,95,140.0
1356,D2,194.0,0.5,95,140.0
1357,G3,194.5,0.5,95,140.0
1358,G1,194.5,0.5,95,140.0
1359,F#2,194.5,0.5,95,140.0
1360,B3,195.0,0.5,95,140.0
1361,G1,195.0,0.5,95,140.0
1362,F#2,195.0,0.5,95,140.0
1363,G3,195.5,0.5,95,140.0
1364,G1,195.5,0.5,95,140.0
1365,F#2,195.5,0.5,95,140.0
1366,D3,196.0,0.5,95,140.0
1367,G1,196.0,0.5,95,140.0
1368,F#2,196.0,0.5,95,140.0
1369,C2,196.0,0.5,95,140.0
1370,B2,196.5,0.5,95,140.0
1371,G1,196.5,0.5,95,140.0
1372,F#2,196.5,0.5,95,140.0
1373,G3,197.0,0.5,95,140.0
1374,G1,197.0,0.5,95,140.0
1375,F#2,197.0,0.5,95,140.0
1376,E3,197.5,0.5,95,140.0
1377,G1,197.5,0.5,95,140.0
1378,F#2,197.5,0.5,95,140.0
1379,B2,198.0,0.5,95,140.0
1380,G1,198.0,0.5,95,140.0
1381,F#2,198.0,0.5,95,140.0
1382,D2,198.0,0.5,95,140.0
1383,D2,198.0,0.5,95,140.0
1384,B3,198.5,0.5,95,140.0
1385,G1,198.5,0.5,95,140.0
1386,F#2,198.5,0.5,95,140.0
1387,G3,199.0,0.5,95,140.0
1388,G1,199.0,0.5,95,140.0
1389,F#2,199.0,0.5,95,140.0
1390,D3,199.5,0.5,95,140.0
1391,G1,199.5,0.5,95,140.0
1392,F#2,199.5,0.5,95,140.0
1393,D3,200.0,0.5,95,140.0
1394,D2,200.0,0.5,95,140.0
1395,G3,200.0,4.0,95,140.0
1396,E3,200.0,4.0,95,140.0
1397,B2,200.0,4.0,95,140.0
1398,E2,200.0,4.0,95,140.0
1399,F#2,200.0,0.5,95,140.0
1400,C2,200.0,0.5,95,140.0
1401,C#3,200.0,0.5,95,140.0
1402,A3,200.5,0.5,95,140.0
1403,D2,200.5,0.5,95,140.0
1404,F#2,200.5,0.5,95,140.0
1405,F#4,201.0,0.5,95,140.0
1406,D2,201.0,0.5,95,140.0
1407,F#2,201.0,0.5,95,140.0
1408,D4,201.5,0.5,95,140.0
1409,D2,201.5,0.5,95,140.0
1410,F#2,201.5,0.5,95,140.0
1411,A3,202.0,0.5,95,140.0
1412,D2,202.0,0.5,95,140.0
1413,F#2,202.0,0.5,95,140.0
1414,D2,202.0,0.5,95,140.0
1415,D2,202.0,0.5,95,140.0
1416,F#4,202.5,0.5,95,140.0
1417,D2,202.5,0.5,95,140.0
1418,F#2,202.5,0.5,95,140.0
1419,D4,203.0,0.5,95,140.0
1420,D2,203.0,0.5,95,140.0
1421,F#2,203.0,0.5,95,140.0
1422,A3,203.5,0.5,95,140.0
1423,D2,203.5,0.5,95,140.0
1424,F#2,203.5,0.5,95,140.0
1425,F#4,204.0,0.5,95,140.0
1426,D2,204.0,0.5,95,140.0
1427,C4,204.0,4.0,95,140.0
1428,G3,204.0,4.0,95,140.0
1429,C3,204.0,4.0,95,140.0
1430,B-2,204.0,0.5,95,140.0
1431,C2,204.0,0.5,95,140.0
1432,C#3,204.0,0.5,95,140.0
1433,D4,204.5,0.5,95,140.0
1434,D2,204.5,0.5,95,140.0
1435,B-2,204.5,0.5,95,140.0
1436,A3,205.0,0.5,95,140.0
1437,D2,205.0,0.5,95,140.0
1438,B-2,205.0,0.5,95,140.0
1439,D2,205.0,0.5,95,140.0
1440,G4,205.5,0.5,95,140.0
1441,D2,205.5,0.5,95,140.0
1442,B-2,205.5,0.5,95,140.0
1443,D4,206.0,0.5,95,140.0
1444,D2,206.0,0.5,95,140.0
1445,B-2,206.0,0.5,95,140.0
1446,D2,206.0,0.5,95,140.0
1447,D2,206.0,0.5,95,140.0
1448,A3,206.5,0.5,95,140.0
1449,D2,206.5,0.5,95,140.0
1450,B-2,206.5,0.5,95,140.0
1451,F#4,207.0,0.5,95,140.0
1452,D2,207.0,0.5,95,140.0
1453,B-2,207.0,0.5,95,140.0
1454,D2,207.0,0.5,95,140.0
1455,D4,207.5,0.5,95,140.0
1456,D2,207.5,0.5,95,140.0
1457,B-2,207.5,0.5,95,140.0
1458,D2,208.0,0.5,95,140.0
1459,F#4,208.0,0.5,95,140.0
1460,D4,208.0,0.5,95,140.0
1461,A3,208.0,0.5,95,140.0
1462,D3,208.0,0.5,95,140.0
1463,B-2,208.0,0.5,95,140.0
1464,C2,208.0,0.5,95,140.0
1465,C#3,208.0,0.5,95,140.0
1466,D2,208.5,0.5,95,140.0
1467,B-2,208.5,0.5,95,140.0
1468,F#4,208.5,0.5,95,140.0
1469,D4,208.5,0.5,95,140.0
1470,A3,208.5,0.5,95,140.0
1471,D3,208.5,0.5,95,140.0
1472,B-2,209.0,0.5,95,140.0
1473,E4,209.0,73/1000,95,140.0
1474,B3,209.0,73/1000,95,140.0
1475,G3,209.0,73/1000,95,140.0
1476,D2,209.5,0.5,95,140.0
1477,B-2,209.5,0.5,95,140.0
1478,F#4,209.5,0.5,95,140.0
1479,D4,209.5,0.5,95,140.0
1480,A3,209.5,0.5,95,140.0
1481,D3,209.5,0.5,95,140.0
1482,E4,210.0,73/1000,95,140.0
1483,B3,210.0,73/1000,95,140.0
1484,G3,210.0,73/1000,95,140.0
1485,B-2,210.0,0.5,95,140.0
1486,D2,210.0,0.5,95,140.0
1487,D2,210.5,0.5,95,140.0
1488,B-2,210.5,0.5,95,140.0
1489,F#4,210.5,0.5,95,140.0
1490,D4,210.5,0.5,95,140.0
1491,A3,210.5,0.5,95,140.0
1492,D3,210.5,0.5,95,140.0
1493,B-2,211.0,0.5,95,140.0
1494,E4,211.0,73/1000,95,140.0
1495,B3,211.0,73/1000,95,140.0
1496,G3,211.0,73/1000,95,140.0
1497,D2,211.5,0.5,95,140.0
1498,B-2,211.5,0.5,95,140.0
1499,G4,211.5,0.5,95,140.0
1500,D4,211.5,0.5,95,140.0
1501,A3,211.5,0.5,95,140.0
1502,D3,211.5,0.5,95,140.0
1503,C4,212.0,4.0,95,140.0
1504,G3,212.0,4.0,95,140.0
1505,C3,212.0,4.0,95,140.0
1506,E4,212.0,73/1000,95,140.0
1507,B3,212.0,73/1000,95,140.0
1508,G3,212.0,73/1000,95,140.0
1509,B-2,212.0,0.5,95,140.0
1510,C2,212.0,0.5,95,140.0
1511,C#3,212.0,0.5,95,140.0
1512,D2,212.5,0.5,95,140.0
1513,B-2,212.5,0.5,95,140.0
1514,G4,212.5,0.5,95,140.0
1515,D4,212.5,0.5,95,140.0
1516,A3,212.5,0.5,95,140.0
1517,D3,212.5,0.5,95,140.0
1518,B-2,213.0,0.5,95,140.0
1519,E4,213.0,73/1000,95,140.0
1520,B3,213.0,73/1000,95,140.0
1521,G3,213.0,73/1000,95,140.0
1522,D2,213.5,0.5,95,140.0
1523,B-2,213.5,0.5,95,140.0
1524,E4,213.5,0.5,95,140.0
1525,D4,213.5,0.5,95,140.0
1526,A3,213.5,0.5,95,140.0
1527,D3,213.5,0.5,95,140.0
1528,E4,214.0,73/1000,95,140.0
1529,B3,214.0,73/1000,95,140.0
1530,G3,214.0,73/1000,95,140.0
1531,B-2,214.0,0.5,95,140.0
1532,D2,214.0,0.5,95,140.0
1533,D2,214.5,0.5,95,140.0
1534,B-2,214.5,0.5,95,140.0
1535,E4,214.5,0.5,95,140.0
1536,D4,214.5,0.5,95,140.0
1537,A3,214.5,0.5,95,140.0
1538,D3,214.5,0.5,95,140.0
1539,B-2,215.0,0.5,95,140.0
1540,E4,215.0,73/1000,95,140.0
1541,B3,215.0,73/1000,95,140.0
1542,G3,215.0,73/1000,95,140.0
1543,D2,215.5,0.5,95,140.0
1544,B-2,215.5,0.5,95,140.0
1545,F#4,215.5,0.5,95,140.0
1546,D4,215.5,0.5,95,140.0
1547,A3,215.5,0.5,95,140.0
1548,D3,215.5,0.5,95,140.0
1549,D2,216.0,0.5,95,140.0
1550,G3,216.0,4.0,95,140.0
1551,D3,216.0,4.0,95,140.0
1552,G2,216.0,4.0,95,140.0
1553,F#4,216.0,0.5,95,140.0
1554,D4,216.0,0.5,95,140.0
1555,A3,216.0,0.5,95,140.0
1556,D3,216.0,0.5,95,140.0
1557,B-2,216.0,0.5,95,140.0
1558,C2,216.0,0.5,95,140.0
1559,C#3,216.0,0.5,95,140.0
1560,D2,216.5,0.5,95,140.0
1561,B-2,216.5,0.5,95,140.0
1562,F#4,216.5,0.5,95,140.0
1563,D4,216.5,0.5,95,140.0
1564,A3,216.5,0.5,95,140.0
1565,D3,216.5,0.5,95,140.0
1566,B-2,217.0,0.5,95,140.0
1567,E4,217.0,73/1000,95,140.0
1568,B3,217.0,73/1000,95,140.0
1569,G3,217.0,73/1000,95,140.0
1570,D2,217.5,0.5,95,140.0
1571,B-2,217.5,0.5,95,140.0
1572,F#4,217.5,0.5,95,140.0
1573,D4,217.5,0.5,95,140.0
1574,A3,217.5,0.5,95,140.0
1575,D3,217.5,0.5,95,140.0
1576,E4,218.0,73/1000,95,140.0
1577,B3,218.0,73/1000,95,140.0
1578,G3,218.0,73/1000,95,140.0
1579,B-2,218.0,0.5,95,140.0
1580,D2,218.0,0.5,95,140.0
1581,D2,218.5,0.5,95,140.0
1582,B-2,218.5,0.5,95,140.0
1583,F#4,218.5,0.5,95,140.0
1584,D4,218.5,0.5,95,140.0
1585,A3,218.5,0.5,95,140.0
1586,D3,218.5,0.5,95,140.0
1587,B-2,219.0,0.5,95,140.0
1588,E4,219.0,73/1000,95,140.0
1589,B3,219.0,73/1000,95,140.0
1590,G3,219.0,73/1000,95,140.0
1591,D2,219.5,0.5,95,140.0
1592,B-2,219.5,0.5,95,140.0
1593,G4,219.5,0.5,95,140.0
1594,D4,219.5,0.5,95,140.0
1595,A3,219.5,0.5,95,140.0
1596,D3,219.5,0.5,95,140.0
1597,E4,220.0,73/1000,95,140.0
1598,B3,220.0,73/1000,95,140.0
1599,G3,220.0,73/1000,95,140.0
1600,B-2,220.0,0.5,95,140.0
1601,C2,220.0,0.5,95,140.0
1602,C#3,220.0,0.5,95,140.0
1603,D2,220.5,0.5,95,140.0
1604,B-2,220.5,0.5,95,140.0
1605,G4,220.5,0.5,95,140.0
1606,D4,220.5,0.5,95,140.0
1607,A3,220.5,0.5,95,140.0
1608,D3,220.5,0.5,95,140.0
1609,B-2,221.0,0.5,95,140.0
1610,E4,221.0,73/1000,95,140.0
1611,B3,221.0,73/1000,95,140.0
1612,G3,221.0,73/1000,95,140.0
1613,D2,221.5,0.5,95,140.0
1614,B-2,221.5,0.5,95,140.0
1615,E4,221.5,0.5,95,140.0
1616,D4,221.5,0.5,95,140.0
1617,A3,221.5,0.5,95,140.0
1618,D3,221.5,0.5,95,140.0
1619,E4,222.0,73/1000,95,140.0
1620,B3,222.0,73/1000,95,140.0
1621,G3,222.0,73/1000,95,140.0
1622,B-2,222.0,0.5,95,140.0
1623,D2,222.0,0.5,95,140.0
1624,D2,222.5,0.5,95,140.0
1625,B-2,222.5,0.5,95,140.0
1626,E4,222.5,0.5,95,140.0
1627,D4,222.5,0.5,95,140.0
1628,A3,222.5,0.5,95,140.0
1629,D3,222.5,0.5,95,140.0
1630,B-2,223.0,0.5,95,140.0
1631,E4,223.0,73/1000,95,140.0
1632,B3,223.0,73/1000,95,140.0
1633,G3,223.0,73/1000,95,140.0
1634,D2,223.5,0.5,95,140.0
1635,B-2,223.5,0.5,95,140.0
1636,F#4,223.5,0.5,95,140.0
1637,D4,223.5,0.5,95,140.0
1638,A3,223.5,0.5,95,140.0
1639,D3,223.5,0.5,95,140.0
1640,C2,224.0,0.5,95,140.0
1641,G3,224.0,4.0,95,140.0
1642,D3,224.0,4.0,95,140.0
1643,G2,224.0,4.0,95,140.0
1644,E4,224.0,0.5,95,140.0
1645,B3,224.0,0.5,95,140.0
1646,G3,224.0,0.5,95,140.0
1647,E3,224.0,0.5,95,140.0
1648,C3,224.0,0.5,95,140.0
1649,B-2,224.0,0.5,95,140.0
1650,C2,224.0,0.5,95,140.0
1651,C#3,224.0,0.5,95,140.0
1652,C2,224.5,0.5,95,140.0
1653,B-2,224.5,0.5,95,140.0
1654,E4,224.5,0.5,95,140.0
1655,B3,224.5,0.5,95,140.0
1656,G3,224.5,0.5,95,140.0
1657,E3,224.5,0.5,95,140.0
1658,C3,224.5,0.5,95,140.0
1659,B-2,225.0,0.5,95,140.0
1660,E4,225.0,73/1000,95,140.0
1661,B3,225.0,73/1000,95,140.0
1662,G3,225.0,73/1000,95,140.0
1663,C2,225.5,0.5,95,140.0
1664,B-2,225.5,0.5,95,140.0
1665,E4,225.5,0.5,95,140.0
1666,B3,225.5,0.5,95,140.0
1667,G3,225.5,0.5,95,140.0
1668,E3,225.5,0.5,95,140.0
1669,C3,225.5,0.5,95,140.0
1670,E4,226.0,73/1000,95,140.0
1671,B3,226.0,73/1000,95,140.0
1672,G3,226.0,73/1000,95,140.0
1673,B-2,226.0,0.5,95,140.0
1674,D2,226.0,0.5,95,140.0
1675,C2,226.5,0.5,95,140.0
1676,B-2,226.5,0.5,95,140.0
1677,E4,226.5,0.5,95,140.0
1678,B3,226.5,0.5,95,140.0
1679,G3,226.5,0.5,95,140.0
1680,E3,226.5,0.5,95,140.0
1681,C3,226.5,0.5,95,140.0
1682,B-2,227.0,0.5,95,140.0
1683,E4,227.0,73/1000,95,140.0
1684,B3,227.0,73/1000,95,140.0
1685,G3,227.0,73/1000,95,140.0
1686,C2,227.5,0.5,95,140.0
1687,B-2,227.5,0.5,95,140.0
1688,E4,227.5,0.5,95,140.0
1689,B3,227.5,0.5,95,140.0
1690,G3,227.5,0.5,95,140.0
1691,E3,227.5,0.5,95,140.0
1692,C3,227.5,0.5,95,140.0
1693,D4,228.0,4.0,95,140.0
1694,A3,228.0,4.0,95,140.0
1695,D3,228.0,4.0,95,140.0
1696,E4,228.0,73/1000,95,140.0
1697,B3,228.0,73/1000,95,140.0
1698,G3,228.0,73/1000,95,140.0
1699,B-2,228.0,0.5,95,140.0
1700,C2,228.0,0.5,95,140.0
1701,C#3,228.0,0.5,95,140.0
1702,C2,228.5,0.5,95,140.0
1703,B-2,228.5,0.5,95,140.0
1704,E4,228.5,0.5,95,140.0
1705,B3,228.5,0.5,95,140.0
1706,G3,228.5,0.5,95,140.0
1707,E3,228.5,0.5,95,140.0
1708,C3,228.5,0.5,95,140.0
1709,B-2,229.0,0.5,95,140.0
1710,E4,229.0,73/1000,95,140.0
1711,B3,229.0,73/1000,95,140.0
1712,G3,229.0,73/1000,95,140.0
1713,C2,229.5,0.5,95,140.0
1714,B-2,229.5,0.5,95,140.0
1715,E4,229.5,0.5,95,140.0
1716,B3,229.5,0.5,95,140.0
1717,G3,229.5,0.5,95,140.0
1718,E3,229.5,0.5,95,140.0
1719,C3,229.5,0.5,95,140.0
1720,E4,230.0,73/1000,95,140.0
1721,B3,230.0,73/1000,95,140.0
1722,G3,230.0,73/1000,95,140.0
1723,B-2,230.0,0.5,95,140.0
1724,D2,230.0,0.5,95,140.0
1725,C2,230.5,0.5,95,140.0
1726,B-2,230.5,0.5,95,140.0
1727,E4,230.5,0.5,95,140.0
1728,B3,230.5,0.5,95,140.0
1729,G3,230.5,0.5,95,140.0
1730,E3,230.5,0.5,95,140.0
1731,C3,230.5,0.5,95,140.0
1732,B-2,231.0,0.5,95,140.0
1733,E4,231.0,73/1000,95,140.0
1734,B3,231.0,73/1000,95,140.0
1735,G3,231.0,73/1000,95,140.0
1736,C2,231.5,0.5,95,140.0
1737,B-2,231.5,0.5,95,140.0
1738,E4,231.5,0.5,95,140.0
1739,B3,231.5,0.5,95,140.0
1740,G3,231.5,0.5,95,140.0
1741,E3,231.5,0.5,95,140.0
1742,C3,231.5,0.5,95,140.0
1743,G1,232.0,0.5,95,140.0
1744,E4,232.0,0.5,95,140.0
1745,B3,232.0,0.5,95,140.0
1746,G3,232.0,0.5,95,140.0
1747,D3,232.0,0.5,95,140.0
1748,B2,232.0,0.5,95,140.0
1749,G2,232.0,0.5,95,140.0
1750,B-2,232.0,0.5,95,140.0
1751,C2,232.0,0.5,95,140.0
1752,C#3,232.0,0.5,95,140.0
1753,G1,232.5,0.5,95,140.0
1754,B-2,232.5,0.5,95,140.0
1755,E4,232.5,0.5,95,140.0
1756,B3,232.5,0.5,95,140.0
1757,G3,232.5,0.5,95,140.0
1758,D3,232.5,0.5,95,140.0
1759,B2,232.5,0.5,95,140.0
1760,G2,232.5,0.5,95,140.0
1761,B-2,233.0,0.5,95,140.0
1762,E4,233.0,73/1000,95,140.0
1763,B3,233.0,73/1000,95,140.0
1764,G3,233.0,73/1000,95,140.0
1765,G1,233.5,0.5,95,140.0
1766,B-2,233.5,0.5,95,140.0
1767,E4,233.5,0.5,95,140.0
1768,B3,233.5,0.5,95,140.0
1769,G3,233.5,0.5,95,140.0
1770,D3,233.5,0.5,95,140.0
1771,B2,233.5,0.5,95,140.0
1772,G2,233.5,0.5,95,140.0
1773,E4,234.0,73/1000,95,140.0
1774,B3,234.0,73/1000,95,140.0
1775,G3,234.0,73/1000,95,140.0
1776,B-2,234.0,0.5,95,140.0
1777,D2,234.0,0.5,95,140.0
1778,G1,234.5,0.5,95,140.0
1779,B-2,234.5,0.5,95,140.0
1780,E4,234.5,0.5,95,140.0
1781,B3,234.5,0.5,95,140.0
1782,G3,234.5,0.5,95,140.0
1783,D3,234.5,0.5,95,140.0
1784,B2,234.5,0.5,95,140.0
1785,G2,234.5,0.5,95,140.0
1786,B-2,235.0,0.5,95,140.0
1787,E4,235.0,73/1000,95,140.0
1788,B3,235.0,73/1000,95,140.0
1789,G3,235.0,73/1000,95,140.0
1790,G1,235.5,0.5,95,140.0
1791,B-2,235.5,0.5,95,140.0
1792,E4,235.5,0.5,95,140.0
1793,B3,235.5,0.5,95,140.0
1794,G3,235.5,0.5,95,140.0
1795,D3,235.5,0.5,95,140.0
1796,B2,235.5,0.5,95,140.0
1797,G2,235.5,0.5,95,140.0
1798,B-1,236.0,0.5,95,140.0
1799,D4,236.0,4.0,95,140.0
1800,A3,236.0,4.0,95,140.0
1801,D3,236.0,4.0,95,140.0
1802,E4,236.0,73/1000,95,140.0
1803,B3,236.0,73/1000,95,140.0
1804,G3,236.0,73/1000,95,140.0
1805,D2,236.0,2.0,95,140.0
1806,C2,236.0,2.0,95,140.0
1807,C#3,236.0,2.0,95,140.0
1808,B-1,236.5,0.5,95,140.0
1809,G4,236.5,0.5,95,140.0
1810,D4,236.5,0.5,95,140.0
1811,B-3,236.5,0.5,95,140.0
1812,F3,236.5,0.5,95,140.0
1813,B-2,236.5,0.5,95,140.0
1814,E4,237.0,73/1000,95,140.0
1815,B3,237.0,73/1000,95,140.0
1816,G3,237.0,73/1000,95,140.0
1817,B-1,237.5,0.5,95,140.0
1818,G4,237.5,0.5,95,140.0
1819,D4,237.5,0.5,95,140.0
1820,B-3,237.5,0.5,95,140.0
1821,F3,237.5,0.5,95,140.0
1822,B-2,237.5,0.5,95,140.0
1823,E4,238.0,73/1000,95,140.0
1824,B3,238.0,73/1000,95,140.0
1825,G3,238.0,73/1000,95,140.0
1826,D2,238.0,0.5,95,140.0
1827,F#2,238.0,0.5,95,140.0
1828,B-1,238.5,0.5,95,140.0
1829,G4,238.5,0.5,95,140.0
1830,D4,238.5,0.5,95,140.0
1831,B-3,238.5,0.5,95,140.0
1832,F3,238.5,0.5,95,140.0
1833,B-2,238.5,0.5,95,140.0
1834,E4,239.0,73/1000,95,140.0
1835,B3,239.0,73/1000,95,140.0
1836,G3,239.0,73/1000,95,140.0
1837,D2,239.0,0.5,95,140.0
1838,F#2,239.0,0.5,95,140.0
1839,B-1,239.5,0.5,95,140.0
1840,G4,239.5,0.5,95,140.0
1841,D4,239.5,0.5,95,140.0
1842,B-3,239.5,0.5,95,140.0
1843,F3,239.5,0.5,95,140.0
1844,B-2,239.5,0.5,95,140.0
1845,F#4,240.0,0.5,95,140.0
1846,D2,240.0,0.5,95,140.0
1847,C#3,240.0,0.75,95,140.0
1848,D4,240.0,2.0,95,140.0
1849,A3,240.0,2.0,95,140.0
1850,D3,240.0,2.0,95,140.0
1851,F#2,240.0,0.25,95,140.0
1852,C2,240.0,0.25,95,140.0
1853,F#2,240.25,0.25,95,140.0
1854,D4,240.5,0.5,95,140.0
1855,D2,240.5,0.5,95,140.0
1856,F#2,240.5,0.25,95,140.0
1857,F#2,240.75,0.25,95,140.0
1858,A3,241.0,0.5,95,140.0
1859,D2,241.0,0.5,95,140.0
1860,F#2,241.0,0.25,95,140.0
1861,F#2,241.25,0.25,95,140.0
1862,F#4,241.5,0.5,95,140.0
1863,D2,241.5,0.5,95,140.0
1864,F#2,241.5,0.25,95,140.0
1865,F#2,241.75,0.25,95,140.0
1866,D4,242.0,0.5,95,140.0
1867,D2,242.0,0.5,95,140.0
1868,F#2,242.0,0.25,95,140.0
1869,D2,242.0,0.25,95,140.0
1870,F#2,242.25,0.25,95,140.0
1871,A3,242.5,0.5,95,140.0
1872,D2,242.5,0.5,95,140.0
1873,F#2,242.5,0.25,95,140.0
1874,F#2,242.75,0.25,95,140.0
1875,G4,243.0,0.5,95,140.0
1876,D2,243.0,0.5,95,140.0
1877,F#2,243.0,0.25,95,140.0
1878,F#2,243.25,0.25,95,140.0
1879,D4,243.5,0.5,95,140.0
1880,D2,243.5,0.5,95,140.0
1881,F#2,243.5,0.25,95,140.0
1882,D4,243.5,0.5,95,140.0
1883,A3,243.5,0.5,95,140.0
1884,D3,243.5,0.5,95,140.0
1885,F#2,243.75,0.25,95,140.0
1886,A3,244.0,0.5,95,140.0
1887,D2,244.0,0.5,95,140.0
1888,D4,244.0,4.0,95,140.0
1889,A3,244.0,4.0,95,140.0
1890,D3,244.0,4.0,95,140.0
1891,F#2,244.0,0.25,95,140.0
1892,C2,244.0,0.25,95,140.0
1893,F#2,244.25,0.25,95,140.0
1894,E4,244.5,0.5,95,140.0
1895,D2,244.5,0.5,95,140.0
1896,F#2,244.5,0.25,95,140.0
1897,F#2,244.75,0.25,95,140.0
1898,D4,245.0,0.5,95,140.0
1899,D2,245.0,0.5,95,140.0
1900,F#2,245.0,0.25,95,140.0
1901,F#2,245.25,0.25,95,140.0
1902,A3,245.5,0.5,95,140.0
1903,D2,245.5,0.5,95,140.0
1904,F#2,245.5,0.25,95,140.0
1905,F#2,245.75,0.25,95,140.0
1906,E4,246.0,0.5,95,140.0
1907,D2,246.0,0.5,95,140.0
1908,F#2,246.0,0.25,95,140.0
1909,D2,246.0,0.25,95,140.0
1910,F#2,246.25,0.25,95,140.0
1911,D4,246.5,0.5,95,140.0
1912,D2,246.5,0.5,95,140.0
1913,F#2,246.5,0.25,95,140.0
1914,F#2,246.75,0.25,95,140.0
1915,A3,247.0,0.5,95,140.0
1916,D2,247.0,0.5,95,140.0
1917,F#2,247.0,0.25,95,140.0
1918,F#2,247.25,0.25,95,140.0
1919,D4,247.5,0.5,95,140.0
1920,D2,247.5,0.5,95,140.0
1921,F#2,247.5,0.25,95,140.0
1922,F#2,247.75,0.25,95,140.0
1923,F#4,248.0,0.5,95,140.0
1924,D2,248.0,0.5,95,140.0
1925,D4,248.0,2.0,95,140.0
1926,A3,248.0,2.0,95,140.0
1927,D3,248.0,2.0,95,140.0
1928,F#2,248.0,0.25,95,140.0
1929,C2,248.0,0.25,95,140.0
1930,F#2,248.25,0.25,95,140.0
1931,D4,248.5,0.5,95,140.0
1932,D2,248.5,0.5,95,140.0
1933,F#2,248.5,0.25,95,140.0
1934,F#2,248.75,0.25,95,140.0
1935,A3,249.0,0.5,95,140.0
1936,D2,249.0,0.5,95,140.0
1937,F#2,249.0,0.25,95,140.0
1938,F#2,249.25,0.25,95,140.0
1939,F#4,249.5,0.5,95,140.0
1940,D2,249.5,0.5,95,140.0
1941,F#2,249.5,0.25,95,140.0
1942,F#2,249.75,0.25,95,140.0
1943,D4,250.0,0.5,95,140.0
1944,D2,250.0,0.5,95,140.0
1945,F#2,250.0,0.25,95,140.0
1946,D2,250.0,0.25,95,140.0
1947,F#2,250.25,0.25,95,140.0
1948,A3,250.5,0.5,95,140.0
1949,D2,250.5,0.5,95,140.0
1950,F#2,250.5,0.25,95,140.0
1951,F#2,250.75,0.25,95,140.0
1952,G4,251.0,0.5,95,140.0
1953,D2,251.0,0.5,95,140.0
1954,F#2,251.0,0.25,95,140.0
1955,F#2,251.25,0.25,95,140.0
1956,D4,251.5,0.5,95,140.0
1957,D2,251.5,0.5,95,140.0
1958,F#2,251.5,0.25,95,140.0
1959,D4,251.5,0.5,95,140.0
1960,A3,251.5,0.5,95,140.0
1961,D3,251.5,0.5,95,140.0
1962,F#2,251.75,0.25,95,140.0
1963,A3,252.0,0.5,95,140.0
1964,D2,252.0,0.5,95,140.0
1965,D4,252.0,4.0,95,140.0
1966,A3,252.0,4.0,95,140.0
1967,D3,252.0,4.0,95,140.0
1968,F#2,252.0,0.25,95,140.0
1969,C2,252.0,0.25,95,140.0
1970,F#2,252.25,0.25,95,140.0
1971,E4,252.5,0.5,95,140.0
1972,D2,252.5,0.5,95,140.0
1973,F#2,252.5,0.25,95,140.0
1974,F#2,252.75,0.25,95,140.0
1975,D4,253.0,0.5,95,140.0
1976,D2,253.0,0.5,95,140.0
1977,F#2,253.0,0.25,95,140.0
1978,F#2,253.25,0.25,95,140.0
1979,A3,253.5,0.5,95,140.0
1980,D2,253.5,0.5,95,140.0
1981,F#2,253.5,0.25,95,140.0
1982,F#2,253.75,0.25,95,140.0
1983,E4,254.0,0.5,95,140.0
1984,D2,254.0,0.5,95,140.0
1985,F#2,254.0,0.25,95,140.0
1986,D2,254.0,0.25,95,140.0
1987,F#2,254.25,0.25,95,140.0
1988,D4,254.5,0.5,95,140.0
1989,D2,254.5,0.5,95,140.0
1990,F#2,254.5,0.25,95,140.0
1991,F#2,254.75,0.25,95,140.0
1992,A3,255.0,0.5,95,140.0
1993,D2,255.0,0.5,95,140.0
1994,F#2,255.0,0.25,95,140.0
1995,F#2,255.25,0.25,95,140.0
1996,F#4,255.5,0.5,95,140.0
1997,D2,255.5,0.5,95,140.0
1998,F#2,255.5,0.25,95,140.0
1999,F#2,255.75,0.25,95,140.0
2000,C2,256.0,0.5,95,140.0
2001,E4,256.0,0.5,95,140.0
2002,C3,256.0,0.5,95,140.0
2003,C4,256.0,2.0,95,140.0
2004,G3,256.0,2.0,95,140.0
2005,C3,256.0,2.0,95,140.0
2006,F#2,256.0,0.25,95,140.0
2007,C2,256.0,0.25,95,140.0
2008,F#2,256.25,0.25,95,140.0
2009,B3,256.5,0.5,95,140.0
2010,C2,256.5,0.5,95,140.0
2011,F#2,256.5,0.25,95,140.0
2012,F#2,256.75,0.25,95,140.0
2013,G3,257.0,0.5,95,140.0
2014,C2,257.0,0.5,95,140.0
2015,F#2,257.0,0.25,95,140.0
2016,F#2,257.25,0.25,95,140.0
2017,E3,257.5,0.5,95,140.0
2018,C2,257.5,0.5,95,140.0
2019,F#2,257.5,0.25,95,140.0
2020,F#2,257.75,0.25,95,140.0
2021,C3,258.0,0.5,95,140.0
2022,C2,258.0,0.5,95,140.0
2023,F#2,258.0,0.25,95,140.0
2024,D2,258.0,0.25,95,140.0
2025,F#2,258.25,0.25,95,140.0
2026,B3,258.5,0.5,95,140.0
2027,C2,258.5,0.5,95,140.0
2028,F#2,258.5,0.25,95,140.0
2029,F#2,258.75,0.25,95,140.0
2030,G3,259.0,0.5,95,140.0
2031,C2,259.0,0.5,95,140.0
2032,F#2,259.0,0.25,95,140.0
2033,F#2,259.25,0.25,95,140.0
2034,E3,259.5,0.5,95,140.0
2035,C2,259.5,0.5,95,140.0
2036,F#2,259.5,0.25,95,140.0
2037,C4,259.5,0.5,95,140.0
2038,G3,259.5,0.5,95,140.0
2039,C3,259.5,0.5,95,140.0
2040,F#2,259.75,0.25,95,140.0
2041,C3,260.0,0.5,95,140.0
2042,C2,260.0,0.5,95,140.0
2043,C4,260.0,4.0,95,140.0
2044,G3,260.0,4.0,95,140.0
2045,C3,260.0,4.0,95,140.0
2046,F#2,260.0,0.25,95,140.0
2047,C2,260.0,0.25,95,140.0
2048,F#2,260.25,0.25,95,140.0
2049,E4,260.5,0.5,95,140.0
2050,C2,260.5,0.5,95,140.0
2051,F#2,260.5,0.25,95,140.0
2052,F#2,260.75,0.25,95,140.0
2053,E3,261.0,0.5,95,140.0
2054,C2,261.0,0.5,95,140.0
2055,F#2,261.0,0.25,95,140.0
2056,F#2,261.25,0.25,95,140.0
2057,C3,261.5,0.5,95,140.0
2058,C2,261.5,0.5,95,140.0
2059,F#2,261.5,0.25,95,140.0
2060,F#2,261.75,0.25,95,140.0
2061,F#4,262.0,0.5,95,140.0
2062,D2,262.0,0.5,95,140.0
2063,F#2,262.0,0.25,95,140.0
2064,D2,262.0,0.25,95,140.0
2065,F#2,262.25,0.25,95,140.0
2066,D4,262.5,0.5,95,140.0
2067,D2,262.5,0.5,95,140.0
2068,F#2,262.5,0.25,95,140.0
2069,F#2,262.75,0.25,95,140.0
2070,A3,263.0,0.5,95,140.0
2071,D2,263.0,0.5,95,140.0
2072,F#2,263.0,0.25,95,140.0
2073,F#2,263.25,0.25,95,140.0
2074,F#4,263.5,0.5,95,140.0
2075,D2,263.5,0.5,95,140.0
2076,F#2,263.5,0.25,95,140.0
2077,F#2,263.75,0.25,95,140.0
2078,F#4,264.0,0.5,95,140.0
2079,D2,264.0,0.5,95,140.0
2080,G3,264.0,2.0,95,140.0
2081,D3,264.0,2.0,95,140.0
2082,G2,264.0,2.0,95,140.0
2083,F#2,264.0,0.25,95,140.0
2084,C2,264.0,0.25,95,140.0
2085,F#2,264.25,0.25,95,140.0
2086,D4,264.5,0.5,95,140.0
2087,D2,264.5,0.5,95,140.0
2088,F#2,264.5,0.25,95,140.0
2089,F#2,264.75,0.25,95,140.0
2090,A3,265.0,0.5,95,140.0
2091,D2,265.0,0.5,95,140.0
2092,F#2,265.0,0.25,95,140.0
2093,F#2,265.25,0.25,95,140.0
2094,F#4,265.5,0.5,95,140.0
2095,D2,265.5,0.5,95,140.0
2096,F#2,265.5,0.25,95,140.0
2097,F#2,265.75,0.25,95,140.0
2098,D4,266.0,0.5,95,140.0
2099,D2,266.0,0.5,95,140.0
2100,F#2,266.0,0.25,95,140.0
2101,D2,266.0,0.25,95,140.0
2102,F#2,266.25,0.25,95,140.0
2103,A3,266.5,0.5,95,140.0
2104,D2,266.5,0.5,95,140.0
2105,F#2,266.5,0.25,95,140.0
2106,F#2,266.75,0.25,95,140.0
2107,G4,267.0,0.5,95,140.0
2108,D2,267.0,0.5,95,140.0
2109,F#2,267.0,0.25,95,140.0
2110,F#2,267.25,0.25,95,140.0
2111,D4,267.5,0.5,95,140.0
2112,D2,267.5,0.5,95,140.0
2113,F#2,267.5,0.25,95,140.0
2114,G3,267.5,0.5,95,140.0
2115,D3,267.5,0.5,95,140.0
2116,G2,267.5,0.5,95,140.0
2117,F#2,267.75,0.25,95,140.0
2118,A3,268.0,0.5,95,140.0
2119,D2,268.0,0.5,95,140.0
2120,B-3,268.0,4.0,95,140.0
2121,F3,268.0,4.0,95,140.0
2122,B-2,268.0,4.0,95,140.0
2123,F#2,268.0,0.25,95,140.0
2124,C2,268.0,0.25,95,140.0
2125,F#2,268.25,0.25,95,140.0
2126,E4,268.5,0.5,95,140.0
2127,D2,268.5,0.5,95,140.0
2128,F#2,268.5,0.25,95,140.0
2129,F#2,268.75,0.25,95,140.0
2130,D4,269.0,0.5,95,140.0
2131,D2,269.0,0.5,95,140.0
2132,F#2,269.0,0.25,95,140.0
2133,F#2,269.25,0.25,95,140.0
2134,A3,269.5,0.5,95,140.0
2135,D2,269.5,0.5,95,140.0
2136,F#2,269.5,0.25,95,140.0
2137,F#2,269.75,0.25,95,140.0
2138,E4,270.0,0.5,95,140.0
2139,D2,270.0,0.5,95,140.0
2140,F#2,270.0,0.25,95,140.0
2141,D2,270.0,0.25,95,140.0
2142,F#2,270.25,0.25,95,140.0
2143,D4,270.5,0.5,95,140.0
2144,D2,270.5,0.5,95,140.0
2145,F#2,270.5,0.25,95,140.0
2146,F#2,270.75,0.25,95,140.0
2147,A3,271.0,0.5,95,140.0
2148,D2,271.0,0.5,95,140.0
2149,F#2,271.0,0.25,95,140.0
2150,F#2,271.25,0.25,95,140.0
2151,D4,271.5,0.5,95,140.0
2152,D2,271.5,0.5,95,140.0
2153,F#2,271.5,0.25,95,140.0
2154,F#2,271.75,0.25,95,140.0
2155,F#4,272.0,0.5,95,140.0
2156,D2,272.0,0.5,95,140.0
2157,F#2,272.0,0.25,95,140.0
2158,C2,272.0,0.25,95,140.0
2159,F#2,272.25,0.25,95,140.0
2160,D4,272.5,0.5,95,140.0
2161,D2,272.5,0.5,95,140.0
2162,F#2,272.5,0.25,95,140.0
2163,F#2,272.75,0.25,95,140.0
2164,A3,273.0,0.5,95,140.0
2165,D2,273.0,0.5,95,140.0
2166,F#2,273.0,0.25,95,140.0
2167,F#2,273.25,0.25,95,140.0
2168,F#4,273.5,0.5,95,140.0
2169,D2,273.5,0.5,95,140.0
2170,F#2,273.5,0.25,95,140.0
2171,F#2,273.75,0.25,95,140.0
2172,D4,274.0,0.5,95,140.0
2173,D2,274.0,0.5,95,140.0
2174,F#2,274.0,0.25,95,140.0
2175,D2,274.0,0.25,95,140.0
2176,F#2,274.25,0.25,95,140.0
2177,A3,274.5,0.5,95,140.0
2178,D2,274.5,0.5,95,140.0
2179,F#2,274.5,0.25,95,140.0
2180,F#2,274.75,0.25,95,140.0
2181,G4,275.0,0.5,95,140.0
2182,D2,275.0,0.5,95,140.0
2183,F#2,275.0,0.25,95,140.0
2184,F#2,275.25,0.25,95,140.0
2185,D4,275.5,0.5,95,140.0
2186,D2,275.5,0.5,95,140.0
2187,F#2,275.5,0.25,95,140.0
2188,F#2,275.75,0.25,95,140.0
2189,A3,276.0,0.5,95,140.0
2190,D2,276.0,0.5,95,140.0
2191,F#2,276.0,0.25,95,140.0
2192,C2,276.0,0.25,95,140.0
2193,F#2,276.25,0.25,95,140.0
2194,E4,276.5,0.5,95,140.0
2195,D2,276.5,0.5,95,140.0
2196,F#2,276.5,0.25,95,140.0
2197,F#2,276.75,0.25,95,140.0
2198,D4,277.0,0.5,95,140.0
2199,D2,277.0,0.5,95,140.0
2200,F#2,277.0,0.25,95,140.0
2201,F#2,277.25,0.25,95,140.0
2202,A3,277.5,0.5,95,140.0
2203,D2,277.5,0.5,95,140.0
2204,F#2,277.5,0.25,95,140.0
2205,F#2,277.75,0.25,95,140.0
2206,E4,278.0,0.5,95,140.0
2207,D2,278.0,0.5,95,140.0
2208,F#2,278.0,0.25,95,140.0
2209,D2,278.0,0.25,95,140.0
2210,F#2,278.25,0.25,95,140.0
2211,D4,278.5,0.5,95,140.0
2212,D2,278.5,0.5,95,140.0
2213,F#2,278.5,0.25,95,140.0
2214,F#2,278.75,0.25,95,140.0
2215,A3,279.0,0.5,95,140.0
2216,D2,279.0,0.5,95,140.0
2217,F#2,279.0,0.25,95,140.0
2218,F#2,279.25,0.25,95,140.0
2219,F#4,279.5,0.5,95,140.0
2220,D2,279.5,0.5,95,140.0
2221,F#2,279.5,0.25,95,140.0
2222,F#2,279.75,0.25,95,140.0
2223,C2,280.0,0.5,95,140.0
2224,E4,280.0,0.5,95,140.0
2225,C3,280.0,0.5,95,140.0
2226,F#2,280.0,0.25,95,140.0
2227,C2,280.0,0.25,95,140.0
2228,F#2,280.25,0.25,95,140.0
2229,B3,280.5,0.5,95,140.0
2230,C2,280.5,0.5,95,140.0
2231,F#2,280.5,0.25,95,140.0
2232,F#2,280.75,0.25,95,140.0
2233,G3,281.0,0.5,95,140.0
2234,C2,281.0,0.5,95,140.0
2235,F#2,281.0,0.25,95,140.0
2236,F#2,281.25,0.25,95,140.0
2237,E3,281.5,0.5,95,140.0
2238,C2,281.5,0.5,95,140.0
2239,F#2,281.5,0.25,95,140.0
2240,F#2,281.75,0.25,95,140.0
2241,C3,282.0,0.5,95,140.0
2242,C2,282.0,0.5,95,140.0
2243,F#2,282.0,0.25,95,140.0
2244,D2,282.0,0.25,95,140.0
2245,F#2,282.25,0.25,95,140.0
2246,B3,282.5,0.5,95,140.0
2247,C2,282.5,0.5,95,140.0
2248,F#2,282.5,0.25,95,140.0
2249,F#2,282.75,0.25,95,140.0
2250,G3,283.0,0.5,95,140.0
2251,C2,283.0,0.5,95,140.0
2252,F#2,283.0,0.25,95,140.0
2253,F#2,283.25,0.25,95,140.0
2254,E3,283.5,0.5,95,140.0
2255,C2,283.5,0.5,95,140.0
2256,F#2,283.5,0.25,95,140.0
2257,F#2,283.75,0.25,95,140.0
2258,C2,284.0,0.5,95,140.0
2259,E4,284.0,0.5,95,140.0
2260,C3,284.0,0.5,95,140.0
2261,F#2,284.0,0.25,95,140.0
2262,C2,284.0,0.25,95,140.0
2263,F#2,284.25,0.25,95,140.0
2264,B3,284.5,0.5,95,140.0
2265,C2,284.5,0.5,95,140.0
2266,F#2,284.5,0.25,95,140.0
2267,F#2,284.75,0.25,95,140.0
2268,G3,285.0,0.5,95,140.0
2269,C2,285.0,0.5,95,140.0
2270,F#2,285.0,0.25,95,140.0
2271,F#2,285.25,0.25,95,140.0
2272,E3,285.5,0.5,95,140.0
2273,C2,285.5,0.5,95,140.0
2274,F#2,285.5,0.25,95,140.0
2275,F#2,285.75,0.25,95,140.0
2276,C3,286.0,0.5,95,140.0
2277,C2,286.0,0.5,95,140.0
2278,F#2,286.0,0.25,95,140.0
2279,D2,286.0,0.25,95,140.0
2280,F#2,286.25,0.25,95,140.0
2281,B3,286.5,0.5,95,140.0
2282,C2,286.5,0.5,95,140.0
2283,F#2,286.5,0.25,95,140.0
2284,F#2,286.75,0.25,95,140.0
2285,G3,287.0,0.5,95,140.0
2286,C2,287.0,0.5,95,140.0
2287,F#2,287.0,0.25,95,140.0
2288,F#2,287.25,0.25,95,140.0
2289,E3,287.5,0.5,95,140.0
2290,C2,287.5,0.5,95,140.0
2291,F#2,287.5,0.25,95,140.0
2292,F#2,287.75,0.25,95,140.0
2293,G1,288.0,0.5,95,140.0
2294,E4,288.0,0.5,95,140.0
2295,G2,288.0,0.5,95,140.0
2296,F#2,288.0,0.25,95,140.0
2297,C2,288.0,0.25,95,140.0
2298,F#2,288.25,0.25,95,140.0
2299,B3,288.5,0.5,95,140.0
2300,G1,288.5,0.5,95,140.0
2301,F#2,288.5,0.25,95,140.0
2302,F#2,288.75,0.25,95,140.0
2303,G3,289.0,0.5,95,140.0
2304,G1,289.0,0.5,95,140.0
2305,F#2,289.0,0.25,95,140.0
2306,F#2,289.25,0.25,95,140.0
2307,D3,289.5,0.5,95,140.0
2308,G1,289.5,0.5,95,140.0
2309,F#2,289.5,0.25,95,140.0
2310,F#2,289.75,0.25,95,140.0
2311,B2,290.0,0.5,95,140.0
2312,G1,290.0,0.5,95,140.0
2313,F#2,290.0,0.25,95,140.0
2314,D2,290.0,0.25,95,140.0
2315,F#2,290.25,0.25,95,140.0
2316,D3,290.5,0.5,95,140.0
2317,G1,290.5,0.5,95,140.0
2318,F#2,290.5,0.25,95,140.0
2319,F#2,290.75,0.25,95,140.0
2320,D3,291.0,0.5,95,140.0
2321,G1,291.0,0.5,95,140.0
2322,F#2,291.0,0.25,95,140.0
2323,F#2,291.25,0.25,95,140.0
2324,G3,291.5,0.5,95,140.0
2325,G1,291.5,0.5,95,140.0
2326,F#2,291.5,0.25,95,140.0
2327,F#2,291.75,0.25,95,140.0
2328,B-1,292.0,0.5,95,140.0
2329,G4,292.0,0.5,95,140.0
2330,B-2,292.0,0.5,95,140.0
2331,F#2,292.0,0.25,95,140.0
2332,C2,292.0,0.25,95,140.0
2333,F#2,292.25,0.25,95,140.0
2334,D4,292.5,0.5,95,140.0
2335,B-1,292.5,0.5,95,140.0
2336,F#2,292.5,0.25,95,140.0
2337,F#2,292.75,0.25,95,140.0
2338,B-3,293.0,0.5,95,140.0
2339,B-1,293.0,0.5,95,140.0
2340,F#2,293.0,0.25,95,140.0
2341,F#2,293.25,0.25,95,140.0
2342,F3,293.5,0.5,95,140.0
2343,B-1,293.5,0.5,95,140.0
2344,F#2,293.5,0.25,95,140.0
2345,F#2,293.75,0.25,95,140.0
2346,D4,294.0,0.5,95,140.0
2347,B-1,294.0,0.5,95,140.0
2348,F#2,294.0,0.25,95,140.0
2349,D2,294.0,0.25,95,140.0
2350,F#2,294.25,0.25,95,140.0
2351,B-3,294.5,0.5,95,140.0
2352,B-1,294.5,0.5,95,140.0
2353,F#2,294.5,0.25,95,140.0
2354,F#2,294.75,0.25,95,140.0
2355,F3,295.0,0.5,95,140.0
2356,B-1,295.0,0.5,95,140.0
2357,F#2,295.0,0.25,95,140.0
2358,F#2,295.25,0.25,95,140.0
2359,D4,295.5,0.5,95,140.0
2360,B-1,295.5,0.5,95,140.0
2361,F#2,295.5,0.25,95,140.0
2362,F#2,295.75,0.25,95,140.0
2363,E2,296.0,0.5,95,140.0
2364,E1,296.0,0.5,95,140.0
2365,F#2,296.0,0.5,95,140.0
2366,C2,296.0,0.5,95,140.0
2367,C#3,296.0,0.5,95,140.0
2368,E3,296.5,0.5,95,140.0
2369,E1,296.5,0.5,95,140.0
2370,F#2,296.5,0.5,95,140.0
2371,B2,297.0,0.5,95,140.0
2372,E1,297.0,0.5,95,140.0
2373,F#2,297.0,0.5,95,140.0
2374,G3,297.5,0.5,95,140.0
2375,E1,297.5,0.5,95,140.0
2376,F#2,297.5,0.5,95,140.0
2377,E3,298.0,0.5,95,140.0
2378,E1,298.0,0.5,95,140.0
2379,F#2,298.0,0.5,95,140.0
2380,D2,298.0,0.5,95,140.0
2381,D2,298.0,0.5,95,140.0
2382,G3,298.5,0.5,95,140.0
2383,E1,298.5,0.5,95,140.0
2384,F#2,298.5,0.5,95,140.0
2385,B3,299.0,0.5,95,140.0
2386,E1,299.0,0.5,95,140.0
2387,F#2,299.0,0.5,95,140.0
2388,G3,299.5,0.5,95,140.0
2389,E1,299.5,0.5,95,140.0
2390,F#2,299.5,0.5,95,140.0
2391,E3,300.0,0.5,95,140.0
2392,E1,300.0,0.5,95,140.0
2393,F#2,300.0,0.5,95,140.0
2394,C2,300.0,0.5,95,140.0
2395,B2,300.5,0.5,95,140.0
2396,E1,300.5,0.5,95,140.0
2397,F#2,300.5,0.5,95,140.0
2398,G3,301.0,0.5,95,140.0
2399,E1,301.0,0.5,95,140.0
2400,F#2,301.0,0.5,95,140.0
2401,E3,301.5,0.5,95,140.0
2402,E1,301.5,0.5,95,140.0
2403,F#2,301.5,0.5,95,140.0
2404,B2,302.0,0.5,95,140.0
2405,E1,302.0,0.5,95,140.0
2406,F#2,302.0,0.5,95,140.0
2407,D2,302.0,0.5,95,140.0
2408,D2,302.0,0.5,95,140.0
2409,B3,302.5,0.5,95,140.0
2410,E1,302.5,0.5,95,140.0
2411,F#2,302.5,0.5,95,140.0
2412,G3,303.0,0.5,95,140.0
2413,E1,303.0,0.5,95,140.0
2414,F#2,303.0,0.5,95,140.0
2415,E3,303.5,0.5,95,140.0
2416,E1,303.5,0.5,95,140.0
2417,F#2,303.5,0.5,95,140.0
2418,C3,304.0,0.5,95,140.0
2419,C2,304.0,0.5,95,140.0
2420,F#2,304.0,0.5,95,140.0
2421,C2,304.0,0.5,95,140.0
2422,C#3,304.0,0.5,95,140.0
2423,G3,304.5,0.5,95,140.0
2424,C2,304.5,0.5,95,140.0
2425,F#2,304.5,0.5,95,140.0
2426,E3,305.0,0.5,95,140.0
2427,C2,305.0,0.5,95,140.0
2428,F#2,305.0,0.5,95,140.0
2429,B3,305.5,0.5,95,140.0
2430,C2,305.5,0.5,95,140.0
2431,F#2,305.5,0.5,95,140.0
2432,G3,306.0,0.5,95,140.0
2433,C2,306.0,0.5,95,140.0
2434,F#2,306.0,0.5,95,140.0
2435,D2,306.0,0.5,95,140.0
2436,D2,306.0,0.5,95,140.0
2437,B3,306.5,0.5,95,140.0
2438,C2,306.5,0.5,95,140.0
2439,F#2,306.5,0.5,95,140.0
2440,E4,307.0,0.5,95,140.0
2441,C2,307.0,0.5,95,140.0
2442,F#2,307.0,0.5,95,140.0
2443,B3,307.5,0.5,95,140.0
2444,C2,307.5,0.5,95,140.0
2445,F#2,307.5,0.5,95,140.0
2446,E3,308.0,0.5,95,140.0
2447,C2,308.0,0.5,95,140.0
2448,F#2,308.0,0.5,95,140.0
2449,C2,308.0,0.5,95,140.0
2450,C3,308.5,0.5,95,140.0
2451,C2,308.5,0.5,95,140.0
2452,F#2,308.5,0.5,95,140.0
2453,G3,309.0,0.5,95,140.0
2454,C2,309.0,0.5,95,140.0
2455,F#2,309.0,0.5,95,140.0
2456,E3,309.5,0.5,95,140.0
2457,C2,309.5,0.5,95,140.0
2458,F#2,309.5,0.5,95,140.0
2459,C3,310.0,0.5,95,140.0
2460,C2,310.0,0.5,95,140.0
2461,F#2,310.0,0.5,95,140.0
2462,D2,310.0,0.5,95,140.0
2463,D2,310.0,0.5,95,140.0
2464,B3,310.5,0.5,95,140.0
2465,C2,310.5,0.5,95,140.0
2466,F#2,310.5,0.5,95,140.0
2467,G3,311.0,0.5,95,140.0
2468,C2,311.0,0.5,95,140.0
2469,F#2,311.0,0.5,95,140.0
2470,E3,311.5,0.5,95,140.0
2471,C2,311.5,0.5,95,140.0
2472,F#2,311.5,0.5,95,140.0
2473,G2,312.0,0.5,95,140.0
2474,G1,312.0,0.5,95,140.0
2475,F#2,312.0,0.5,95,140.0
2476,C2,312.0,0.5,95,140.0
2477,C#3,312.0,0.5,95,140.0
2478,D3,312.5,0.5,95,140.0
2479,G1,312.5,0.5,95,140.0
2480,F#2,312.5,0.5,95,140.0
2481,B2,313.0,0.5,95,140.0
2482,G1,313.0,0.5,95,140.0
2483,F#2,313.0,0.5,95,140.0
2484,G3,313.5,0.5,95,140.0
2485,G1,313.5,0.5,95,140.0
2486,F#2,313.5,0.5,95,140.0
2487,D3,314.0,0.5,95,140.0
2488,G1,314.0,0.5,95,140.0
2489,F#2,314.0,0.5,95,140.0
2490,D2,314.0,0.5,95,140.0
2491,D2,314.0,0.5,95,140.0
2492,G3,314.5,0.5,95,140.0
2493,G1,314.5,0.5,95,140.0
2494,F#2,314.5,0.5,95,140.0
2495,B3,315.0,0.5,95,140.0
2496,G1,315.0,0.5,95,140.0
2497,F#2,315.0,0.5,95,140.0
2498,G3,315.5,0.5,95,140.0
2499,G1,315.5,0.5,95,140.0
2500,F#2,315.5,0.5,95,140.0
2501,D3,316.0,0.5,95,140.0
2502,G1,316.0,0.5,95,140.0
2503,F#2,316.0,0.5,95,140.0
2504,C2,316.0,0.5,95,140.0
2505,B2,316.5,0.5,95,140.0
2506,G1,316.5,0.5,95,140.0
2507,F#2,316.5,0.5,95,140.0
2508,G3,317.0,0.5,95,140.0
2509,G1,317.0,0.5,95,140.0
2510,F#2,317.0,0.5,95,140.0
2511,E3,317.5,0.5,95,140.0
2512,G1,317.5,0.5,95,140.0
2513,F#2,317.5,0.5,95,140.0
2514,B2,318.0,0.5,95,140.0
2515,G1,318.0,0.5,95,140.0
2516,F#2,318.0,0.5,95,140.0
2517,D2,318.0,0.5,95,140.0
2518,D2,318.0,0.5,95,140.0
2519,B3,318.5,0.5,95,140.0
2520,G1,318.5,0.5,95,140.0
2521,F#2,318.5,0.5,95,140.0
2522,G3,319.0,0.5,95,140.0
2523,G1,319.0,0.5,95,140.0
2524,F#2,319.0,0.5,95,140.0
2525,D3,319.5,0.5,95,140.0
2526,G1,319.5,0.5,95,140.0
2527,F#2,319.5,0.5,95,140.0
2528,D3,320.0,0.5,95,140.0
2529,D2,320.0,0.5,95,140.0
2530,F#2,320.0,0.5,95,140.0
2531,C2,320.0,0.5,95,140.0
2532,C#3,320.0,0.5,95,140.0
2533,A3,320.5,0.5,95,140.0
2534,D2,320.5,0.5,95,140.0
2535,F#2,320.5,0.5,95,140.0
2536,F#4,321.0,0.5,95,140.0
2537,D2,321.0,0.5,95,140.0
2538,F#2,321.0,0.5,95,140.0
2539,D4,321.5,0.5,95,140.0
2540,D2,321.5,0.5,95,140.0
2541,F#2,321.5,0.5,95,140.0
2542,A3,322.0,0.5,95,140.0
2543,D2,322.0,0.5,95,140.0
2544,F#2,322.0,0.5,95,140.0
2545,D2,322.0,0.5,95,140.0
2546,D2,322.0,0.5,95,140.0
2547,F#4,322.5,0.5,95,140.0
2548,D2,322.5,0.5,95,140.0
2549,F#2,322.5,0.5,95,140.0
2550,D4,323.0,0.5,95,140.0
2551,D2,323.0,0.5,95,140.0
2552,F#2,323.0,0.5,95,140.0
2553,A3,323.5,0.5,95,140.0
2554,D2,323.5,0.5,95,140.0
2555,F#2,323.5,0.5,95,140.0
2556,F#4,324.0,0.5,95,140.0
2557,D2,324.0,0.5,95,140.0
2558,F#2,324.0,0.5,95,140.0
2559,C2,324.0,0.5,95,140.0
2560,D4,324.5,0.5,95,140.0
2561,D2,324.5,0.5,95,140.0
2562,F#2,324.5,0.5,95,140.0
2563,A3,325.0,0.5,95,140.0
2564,D2,325.0,0.5,95,140.0
2565,F#2,325.0,0.5,95,140.0
2566,G4,325.5,0.5,95,140.0
2567,D2,325.5,0.5,95,140.0
2568,F#2,325.5,0.5,95,140.0
2569,D4,326.0,0.5,95,140.0
2570,D2,326.0,0.5,95,140.0
2571,F#2,326.0,0.5,95,140.0
2572,D2,326.0,0.5,95,140.0
2573,D2,326.0,0.5,95,140.0
2574,A3,326.5,0.5,95,140.0
2575,D2,326.5,0.5,95,140.0
2576,F#2,326.5,0.5,95,140.0
2577,F#4,327.0,0.5,95,140.0
2578,D2,327.0,0.5,95,140.0
2579,F#2,327.0,0.5,95,140.0
2580,D4,327.5,0.5,95,140.0
2581,D2,327.5,0.5,95,140.0
2582,F#2,327.5,0.5,95,140.0
2583,E2,328.0,0.5,95,140.0
2584,E1,328.0,0.5,95,140.0
2585,G3,328.0,4.0,95,140.0
2586,E3,328.0,4.0,95,140.0
2587,B2,328.0,4.0,95,140.0
2588,E2,328.0,4.0,95,140.0
2589,F#2,328.0,0.5,95,140.0
2590,C2,328.0,0.5,95,140.0
2591,C#3,328.0,0.5,95,140.0
2592,E3,328.5,0.5,95,140.0
2593,E1,328.5,0.5,95,140.0
2594,F#2,328.5,0.5,95,140.0
2595,B2,329.0,0.5,95,140.0
2596,E1,329.0,0.5,95,140.0
2597,F#2,329.0,0.5,95,140.0
2598,G3,329.5,0.5,95,140.0
2599,E1,329.5,0.5,95,140.0
2600,F#2,329.5,0.5,95,140.0
2601,E3,330.0,0.5,95,140.0
2602,E1,330.0,0.5,95,140.0
2603,F#2,330.0,0.5,95,140.0
2604,D2,330.0,0.5,95,140.0
2605,D2,330.0,0.5,95,140.0
2606,G3,330.5,0.5,95,140.0
2607,E1,330.5,0.5,95,140.0
2608,F#2,330.5,0.5,95,140.0
2609,B3,331.0,0.5,95,140.0
2610,E1,331.0,0.5,95,140.0
2611,F#2,331.0,0.5,95,140.0
2612,G3,331.5,0.5,95,140.0
2613,E1,331.5,0.5,95,140.0
2614,F#2,331.5,0.5,95,140.0
2615,E3,332.0,0.5,95,140.0
2616,E1,332.0,0.5,95,140.0
2617,F#2,332.0,0.5,95,140.0
2618,C2,332.0,0.5,95,140.0
2619,B2,332.5,0.5,95,140.0
2620,E1,332.5,0.5,95,140.0
2621,F#2,332.5,0.5,95,140.0
2622,G3,333.0,0.5,95,140.0
2623,E1,333.0,0.5,95,140.0
2624,F#2,333.0,0.5,95,140.0
2625,E3,333.5,0.5,95,140.0
2626,E1,333.5,0.5,95,140.0
2627,F#2,333.5,0.5,95,140.0
2628,B2,334.0,0.5,95,140.0
2629,E1,334.0,0.5,95,140.0
2630,F#2,334.0,0.5,95,140.0
2631,D2,334.0,0.5,95,140.0
2632,D2,334.0,0.5,95,140.0
2633,B3,334.5,0.5,95,140.0
2634,E1,334.5,0.5,95,140.0
2635,F#2,334.5,0.5,95,140.0
2636,G3,335.0,0.5,95,140.0
2637,E1,335.0,0.5,95,140.0
2638,F#2,335.0,0.5,95,140.0
2639,E3,335.5,0.5,95,140.0
2640,E1,335.5,0.5,95,140.0
2641,F#2,335.5,0.5,95,140.0
2642,C3,336.0,0.5,95,140.0
2643,C2,336.0,0.5,95,140.0
2644,G3,336.0,4.0,95,140.0
2645,E3,336.0,4.0,95,140.0
2646,B2,336.0,4.0,95,140.0
2647,E2,336.0,4.0,95,140.0
2648,F#2,336.0,0.5,95,140.0
2649,C2,336.0,0.5,95,140.0
2650,C#3,336.0,0.5,95,140.0
2651,G3,336.5,0.5,95,140.0
2652,C2,336.5,0.5,95,140.0
2653,F#2,336.5,0.5,95,140.0
2654,E3,337.0,0.5,95,140.0
2655,C2,337.0,0.5,95,140.0
2656,F#2,337.0,0.5,95,140.0
2657,B3,337.5,0.5,95,140.0
2658,C2,337.5,0.5,95,140.0
2659,F#2,337.5,0.5,95,140.0
2660,G3,338.0,0.5,95,140.0
2661,C2,338.0,0.5,95,140.0
2662,F#2,338.0,0.5,95,140.0
2663,D2,338.0,0.5,95,140.0
2664,D2,338.0,0.5,95,140.0
2665,B3,338.5,0.5,95,140.0
2666,C2,338.5,0.5,95,140.0
2667,F#2,338.5,0.5,95,140.0
2668,E4,339.0,0.5,95,140.0
2669,C2,339.0,0.5,95,140.0
2670,F#2,339.0,0.5,95,140.0
2671,B3,339.5,0.5,95,140.0
2672,C2,339.5,0.5,95,140.0
2673,F#2,339.5,0.5,95,140.0
2674,E3,340.0,0.5,95,140.0
2675,C2,340.0,0.5,95,140.0
2676,C4,340.0,4.0,95,140.0
2677,G3,340.0,4.0,95,140.0
2678,C3,340.0,4.0,95,140.0
2679,F#2,340.0,0.5,95,140.0
2680,C2,340.0,0.5,95,140.0
2681,C3,340.5,0.5,95,140.0
2682,C2,340.5,0.5,95,140.0
2683,F#2,340.5,0.5,95,140.0
2684,G3,341.0,0.5,95,140.0
2685,C2,341.0,0.5,95,140.0
2686,F#2,341.0,0.5,95,140.0
2687,E3,341.5,0.5,95,140.0
2688,C2,341.5,0.5,95,140.0
2689,F#2,341.5,0.5,95,140.0
2690,C3,342.0,0.5,95,140.0
2691,C2,342.0,0.5,95,140.0
2692,F#2,342.0,0.5,95,140.0
2693,D2,342.0,0.5,95,140.0
2694,D2,342.0,0.5,95,140.0
2695,B3,342.5,0.5,95,140.0
2696,C2,342.5,0.5,95,140.0
2697,F#2,342.5,0.5,95,140.0
2698,G3,343.0,0.5,95,140.0
2699,C2,343.0,0.5,95,140.0
2700,F#2,343.0,0.5,95,140.0
2701,E3,343.5,0.5,95,140.0
2702,C2,343.5,0.5,95,140.0
2703,F#2,343.5,0.5,95,140.0
2704,G2,344.0,0.5,95,140.0
2705,G1,344.0,0.5,95,140.0
2706,F#2,344.0,0.5,95,140.0
2707,C2,344.0,0.5,95,140.0
2708,C#3,344.0,0.5,95,140.0
2709,D3,344.5,0.5,95,140.0
2710,G1,344.5,0.5,95,140.0
2711,F#2,344.5,0.5,95,140.0
2712,B2,345.0,0.5,95,140.0
2713,G1,345.0,0.5,95,140.0
2714,F#2,345.0,0.5,95,140.0
2715,G3,345.5,0.5,95,140.0
2716,G1,345.5,0.5,95,140.0
2717,F#2,345.5,0.5,95,140.0
2718,D3,346.0,0.5,95,140.0
2719,G1,346.0,0.5,95,140.0
2720,F#2,346.0,0.5,95,140.0
2721,D2,346.0,0.5,95,140.0
2722,D2,346.0,0.5,95,140.0
2723,G3,346.5,0.5,95,140.0
2724,G1,346.5,0.5,95,140.0
2725,F#2,346.5,0.5,95,140.0
2726,B3,347.0,0.5,95,140.0
2727,G1,347.0,0.5,95,140.0
2728,F#2,347.0,0.5,95,140.0
2729,G3,347.5,0.5,95,140.0
2730,G1,347.5,0.5,95,140.0
2731,F#2,347.5,0.5,95,140.0
2732,D3,348.0,0.5,95,140.0
2733,G1,348.0,0.5,95,140.0
2734,C4,348.0,4.0,95,140.0
2735,G3,348.0,4.0,95,140.0
2736,C3,348.0,4.0,95,140.0
2737,F#2,348.0,0.5,95,140.0
2738,C2,348.0,0.5,95,140.0
2739,B2,348.5,0.5,95,140.0
2740,G1,348.5,0.5,95,140.0
2741,F#2,348.5,0.5,95,140.0
2742,G3,349.0,0.5,95,140.0
2743,G1,349.0,0.5,95,140.0
2744,F#2,349.0,0.5,95,140.0
2745,E3,349.5,0.5,95,140.0
2746,G1,349.5,0.5,95,140.0
2747,F#2,349.5,0.5,95,140.0
2748,B2,350.0,0.5,95,140.0
2749,G1,350.0,0.5,95,140.0
2750,F#2,350.0,0.5,95,140.0
2751,D2,350.0,0.5,95,140.0
2752,D2,350.0,0.5,95,140.0
2753,B3,350.5,0.5,95,140.0
2754,G1,350.5,0.5,95,140.0
2755,F#2,350.5,0.5,95,140.0
2756,G3,351.0,0.5,95,140.0
2757,G1,351.0,0.5,95,140.0
2758,F#2,351.0,0.5,95,140.0
2759,D3,351.5,0.5,95,140.0
2760,G1,351.5,0.5,95,140.0
2761,F#2,351.5,0.5,95,140.0
2762,D3,352.0,0.5,95,140.0
2763,D2,352.0,0.5,95,140.0
2764,G3,352.0,4.0,95,140.0
2765,D3,352.0,4.0,95,140.0
2766,G2,352.0,4.0,95,140.0
2767,F#2,352.0,0.5,95,140.0
2768,C2,352.0,0.5,95,140.0
2769,C#3,352.0,0.5,95,140.0
2770,A3,352.5,0.5,95,140.0
2771,D2,352.5,0.5,95,140.0
2772,F#2,352.5,0.5,95,140.0
2773,F#4,353.0,0.5,95,140.0
2774,D2,353.0,0.5,95,140.0
2775,F#2,353.0,0.5,95,140.0
2776,D4,353.5,0.5,95,140.0
2777,D2,353.5,0.5,95,140.0
2778,F#2,353.5,0.5,95,140.0
2779,A3,354.0,0.5,95,140.0
2780,D2,354.0,0.5,95,140.0
2781,F#2,354.0,0.5,95,140.0
2782,D2,354.0,0.5,95,140.0
2783,D2,354.0,0.5,95,140.0
2784,F#4,354.5,0.5,95,140.0
2785,D2,354.5,0.5,95,140.0
2786,F#2,354.5,0.5,95,140.0
2787,D4,355.0,0.5,95,140.0
2788,D2,355.0,0.5,95,140.0
2789,F#2,355.0,0.5,95,140.0
2790,A3,355.5,0.5,95,140.0
2791,D2,355.5,0.5,95,140.0
2792,F#2,355.5,0.5,95,140.0
2793,F#4,356.0,0.5,95,140.0
2794,D2,356.0,0.5,95,140.0
2795,B-2,356.0,0.5,95,140.0
2796,C2,356.0,0.5,95,140.0
2797,C#3,356.0,0.5,95,140.0
2798,D4,356.5,0.5,95,140.0
2799,D2,356.5,0.5,95,140.0
2800,B-2,356.5,0.5,95,140.0
2801,A3,357.0,0.5,95,140.0
2802,D2,357.0,0.5,95,140.0
2803,B-2,357.0,0.5,95,140.0
2804,D2,357.0,0.5,95,140.0
2805,G4,357.5,0.5,95,140.0
2806,D2,357.5,0.5,95,140.0
2807,B-2,357.5,0.5,95,140.0
2808,D4,358.0,0.5,95,140.0
2809,D2,358.0,0.5,95,140.0
2810,B-2,358.0,0.5,95,140.0
2811,D2,358.0,0.5,95,140.0
2812,D2,358.0,0.5,95,140.0
2813,A3,358.5,0.5,95,140.0
2814,D2,358.5,0.5,95,140.0
2815,B-2,358.5,0.5,95,140.0
2816,F#4,359.0,0.5,95,140.0
2817,D2,359.0,0.5,95,140.0
2818,B-2,359.0,0.5,95,140.0
2819,D2,359.0,0.5,95,140.0
2820,D4,359.5,0.5,95,140.0
2821,D2,359.5,0.5,95,140.0
2822,B-2,359.5,0.5,95,140.0
2823,D2,360.0,0.5,95,140.0
2824,G3,360.0,4.0,95,140.0
2825,D3,360.0,4.0,95,140.0
2826,G2,360.0,4.0,95,140.0
2827,F#4,360.0,0.5,95,140.0
2828,D4,360.0,0.5,95,140.0
2829,A3,360.0,0.5,95,140.0
2830,D3,360.0,0.5,95,140.0
2831,B-2,360.0,0.5,95,140.0
2832,C2,360.0,0.5,95,140.0
2833,C#3,360.0,0.5,95,140.0
2834,D2,360.5,0.5,95,140.0
2835,B-2,360.5,0.5,95,140.0
2836,F#4,360.5,0.5,95,140.0
2837,D4,360.5,0.5,95,140.0
2838,A3,360.5,0.5,95,140.0
2839,D3,360.5,0.5,95,140.0
2840,B-2,361.0,0.5,95,140.0
2841,E4,361.0,73/1000,95,140.0
2842,B3,361.0,73/1000,95,140.0
2843,G3,361.0,73/1000,95,140.0
2844,D2,361.5,0.5,95,140.0
2845,B-2,361.5,0.5,95,140.0
2846,F#4,361.5,0.5,95,140.0
2847,D4,361.5,0.5,95,140.0
2848,A3,361.5,0.5,95,140.0
2849,D3,361.5,0.5,95,140.0
2850,E4,362.0,73/1000,95,140.0
2851,B3,362.0,73/1000,95,140.0
2852,G3,362.0,73/1000,95,140.0
2853,B-2,362.0,0.5,95,140.0
2854,D2,362.0,0.5,95,140.0
2855,D2,362.5,0.5,95,140.0
2856,B-2,362.5,0.5,95,140.0
2857,F#4,362.5,0.5,95,140.0
2858,D4,362.5,0.5,95,140.0
2859,A3,362.5,0.5,95,140.0
2860,D3,362.5,0.5,95,140.0
2861,B-2,363.0,0.5,95,140.0
2862,E4,363.0,73/1000,95,140.0
2863,B3,363.0,73/1000,95,140.0
2864,G3,363.0,73/1000,95,140.0
2865,D2,363.5,0.5,95,140.0
2866,B-2,363.5,0.5,95,140.0
2867,G4,363.5,0.5,95,140.0
2868,D4,363.5,0.5,95,140.0
2869,A3,363.5,0.5,95,140.0
2870,D3,363.5,0.5,95,140.0
2871,D4,364.0,4.0,95,140.0
2872,A3,364.0,4.0,95,140.0
2873,D3,364.0,4.0,95,140.0
2874,E4,364.0,73/1000,95,140.0
2875,B3,364.0,73/1000,95,140.0
2876,G3,364.0,73/1000,95,140.0
2877,B-2,364.0,0.5,95,140.0
2878,C2,364.0,0.5,95,140.0
2879,C#3,364.0,0.5,95,140.0
2880,D2,364.5,0.5,95,140.0
2881,B-2,364.5,0.5,95,140.0
2882,G4,364.5,0.5,95,140.0
2883,D4,364.5,0.5,95,140.0
2884,A3,364.5,0.5,95,140.0
2885,D3,364.5,0.5,95,140.0
2886,B-2,365.0,0.5,95,140.0
2887,E4,365.0,73/1000,95,140.0
2888,B3,365.0,73/1000,95,140.0
2889,G3,365.0,73/1000,95,140.0
2890,D2,365.5,0.5,95,140.0
2891,B-2,365.5,0.5,95,140.0
2892,E4,365.5,0.5,95,140.0
2893,D4,365.5,0.5,95,140.0
2894,A3,365.5,0.5,95,140.0
2895,D3,365.5,0.5,95,140.0
2896,E4,366.0,73/1000,95,140.0
2897,B3,366.0,73/1000,95,140.0
2898,G3,366.0,73/1000,95,140.0
2899,B-2,366.0,0.5,95,140.0
2900,D2,366.0,0.5,95,140.0
2901,D2,366.5,0.5,95,140.0
2902,B-2,366.5,0.5,95,140.0
2903,E4,366.5,0.5,95,140.0
2904,D4,366.5,0.5,95,140.0
2905,A3,366.5,0.5,95,140.0
2906,D3,366.5,0.5,95,140.0
2907,B-2,367.0,0.5,95,140.0
2908,E4,367.0,73/1000,95,140.0
2909,B3,367.0,73/1000,95,140.0
2910,G3,367.0,73/1000,95,140.0
2911,D2,367.5,0.5,95,140.0
2912,B-2,367.5,0.5,95,140.0
2913,F#4,367.5,0.5,95,140.0
2914,D4,367.5,0.5,95,140.0
2915,A3,367.5,0.5,95,140.0
2916,D3,367.5,0.5,95,140.0
2917,D2,368.0,0.5,95,140.0
2918,F#4,368.0,0.5,95,140.0
2919,D4,368.0,0.5,95,140.0
2920,A3,368.0,0.5,95,140.0
2921,D3,368.0,0.5,95,140.0
2922,B-2,368.0,0.5,95,140.0
2923,C2,368.0,0.5,95,140.0
2924,C#3,368.0,0.5,95,140.0
2925,D2,368.5,0.5,95,140.0
2926,B-2,368.5,0.5,95,140.0
2927,F#4,368.5,0.5,95,140.0
2928,D4,368.5,0.5,95,140.0
2929,A3,368.5,0.5,95,140.0
2930,D3,368.5,0.5,95,140.0
2931,B-2,369.0,0.5,95,140.0
2932,E4,369.0,73/1000,95,140.0
2933,B3,369.0,73/1000,95,140.0
2934,G3,369.0,73/1000,95,140.0
2935,D2,369.5,0.5,95,140.0
2936,B-2,369.5,0.5,95,140.0
2937,F#4,369.5,0.5,95,140.0
2938,D4,369.5,0.5,95,140.0
2939,A3,369.5,0.5,95,140.0
2940,D3,369.5,0.5,95,140.0
2941,E4,370.0,73/1000,95,140.0
2942,B3,370.0,73/1000,95,140.0
2943,G3,370.0,73/1000,95,140.0
2944,B-2,370.0,0.5,95,140.0
2945,D2,370.0,0.5,95,140.0
2946,D2,370.5,0.5,95,140.0
2947,B-2,370.5,0.5,95,140.0
2948,F#4,370.5,0.5,95,140.0
2949,D4,370.5,0.5,95,140.0
2950,A3,370.5,0.5,95,140.0
2951,D3,370.5,0.5,95,140.0
2952,B-2,371.0,0.5,95,140.0
2953,E4,371.0,73/1000,95,140.0
2954,B3,371.0,73/1000,95,140.0
2955,G3,371.0,73/1000,95,140.0
2956,D2,371.5,0.5,95,140.0
2957,B-2,371.5,0.5,95,140.0
2958,G4,371.5,0.5,95,140.0
2959,D4,371.5,0.5,95,140.0
2960,A3,371.5,0.5,95,140.0
2961,D3,371.5,0.5,95,140.0
2962,D4,372.0,4.0,95,140.0
2963,A3,372.0,4.0,95,140.0
2964,D3,372.0,4.0,95,140.0
2965,E4,372.0,73/1000,95,140.0
2966,B3,372.0,73/1000,95,140.0
2967,G3,372.0,73/1000,95,140.0
2968,B-2,372.0,0.5,95,140.0
2969,C2,372.0,0.5,95,140.0
2970,C#3,372.0,0.5,95,140.0
2971,D2,372.5,0.5,95,140.0
2972,B-2,372.5,0.5,95,140.0
2973,G4,372.5,0.5,95,140.0
2974,D4,372.5,0.5,95,140.0
2975,A3,372.5,0.5,95,140.0
2976,D3,372.5,0.5,95,140.0
2977,B-2,373.0,0.5,95,140.0
2978,E4,373.0,73/1000,95,140.0
2979,B3,373.0,73/1000,95,140.0
2980,G3,373.0,73/1000,95,140.0
2981,D2,373.5,0.5,95,140.0
2982,B-2,373.5,0.5,95,140.0
2983,E4,373.5,0.5,95,140.0
2984,D4,373.5,0.5,95,140.0
2985,A3,373.5,0.5,95,140.0
2986,D3,373.5,0.5,95,140.0
2987,E4,374.0,73/1000,95,140.0
2988,B3,374.0,73/1000,95,140.0
2989,G3,374.0,73/1000,95,140.0
2990,B-2,374.0,0.5,95,140.0
2991,D2,374.0,0.5,95,140.0
2992,D2,374.5,0.5,95,140.0
2993,B-2,374.5,0.5,95,140.0
2994,E4,374.5,0.5,95,140.0
2995,D4,374.5,0.5,95,140.0
2996,A3,374.5,0.5,95,140.0
2997,D3,374.5,0.5,95,140.0
2998,B-2,375.0,0.5,95,140.0
2999,E4,375.0,73/1000,95,140.0
3000,B3,375.0,73/1000,95,140.0
3001,G3,375.0,73/1000,95,140.0
3002,D2,375.5,0.5,95,140.0
3003,B-2,375.5,0.5,95,140.0
3004,F#4,375.5,0.5,95,140.0
3005,D4,375.5,0.5,95,140.0
3006,A3,375.5,0.5,95,140.0
3007,D3,375.5,0.5,95,140.0
3008,C2,376.0,0.5,95,140.0
3009,G3,376.0,4.0,95,140.0
3010,E3,376.0,4.0,95,140.0
3011,B2,376.0,4.0,95,140.0
3012,E2,376.0,4.0,95,140.0
3013,E4,376.0,0.5,95,140.0
3014,B3,376.0,0.5,95,140.0
3015,G3,376.0,0.5,95,140.0
3016,E3,376.0,0.5,95,140.0
3017,C3,376.0,0.5,95,140.0
3018,B-2,376.0,0.5,95,140.0
3019,C2,376.0,0.5,95,140.0
3020,C#3,376.0,0.5,95,140.0
3021,C2,376.5,0.5,95,140.0
3022,B-2,376.5,0.5,95,140.0
3023,E4,376.5,0.5,95,140.0
3024,B3,376.5,0.5,95,140.0
3025,G3,376.5,0.5,95,140.0
3026,E3,376.5,0.5,95,140.0
3027,C3,376.5,0.5,95,140.0
3028,B-2,377.0,0.5,95,140.0
3029,E4,377.0,73/1000,95,140.0
3030,B3,377.0,73/1000,95,140.0
3031,G3,377.0,73/1000,95,140.0
3032,C2,377.5,0.5,95,140.0
3033,B-2,377.5,0.5,95,140.0
3034,E4,377.5,0.5,95,140.0
3035,B3,377.5,0.5,95,140.0
3036,G3,377.5,0.5,95,140.0
3037,E3,377.5,0.5,95,140.0
3038,C3,377.5,0.5,95,140.0
3039,E4,378.0,73/1000,95,140.0
3040,B3,378.0,73/1000,95,140.0
3041,G3,378.0,73/1000,95,140.0
3042,B-2,378.0,0.5,95,140.0
3043,D2,378.0,0.5,95,140.0
3044,C2,378.5,0.5,95,140.0
3045,B-2,378.5,0.5,95,140.0
3046,E4,378.5,0.5,95,140.0
3047,B3,378.5,0.5,95,140.0
3048,G3,378.5,0.5,95,140.0
3049,E3,378.5,0.5,95,140.0
3050,C3,378.5,0.5,95,140.0
3051,B-2,379.0,0.5,95,140.0
3052,E4,379.0,73/1000,95,140.0
3053,B3,379.0,73/1000,95,140.0
3054,G3,379.0,73/1000,95,140.0
3055,C2,379.5,0.5,95,140.0
3056,B-2,379.5,0.5,95,140.0
3057,E4,379.5,0.5,95,140.0
3058,B3,379.5,0.5,95,140.0
3059,G3,379.5,0.5,95,140.0
3060,E3,379.5,0.5,95,140.0
3061,C3,379.5,0.5,95,140.0
3062,E4,380.0,73/1000,95,140.0
3063,B3,380.0,73/1000,95,140.0
3064,G3,380.0,73/1000,95,140.0
3065,B-2,380.0,0.5,95,140.0
3066,C2,380.0,0.5,95,140.0
3067,C#3,380.0,0.5,95,140.0
3068,C2,380.5,0.5,95,140.0
3069,B-2,380.5,0.5,95,140.0
3070,E4,380.5,0.5,95,140.0
3071,B3,380.5,0.5,95,140.0
3072,G3,380.5,0.5,95,140.0
3073,E3,380.5,0.5,95,140.0
3074,C3,380.5,0.5,95,140.0
3075,B-2,381.0,0.5,95,140.0
3076,E4,381.0,73/1000,95,140.0
3077,B3,381.0,73/1000,95,140.0
3078,G3,381.0,73/1000,95,140.0
3079,C2,381.5,0.5,95,140.0
3080,B-2,381.5,0.5,95,140.0
3081,E4,381.5,0.5,95,140.0
3082,B3,381.5,0.5,95,140.0
3083,G3,381.5,0.5,95,140.0
3084,E3,381.5,0.5,95,140.0
3085,C3,381.5,0.5,95,140.0
3086,E4,382.0,73/1000,95,140.0
3087,B3,382.0,73/1000,95,140.0
3088,G3,382.0,73/1000,95,140.0
3089,B-2,382.0,0.5,95,140.0
3090,D2,382.0,0.5,95,140.0
3091,C2,382.5,0.5,95,140.0
3092,B-2,382.5,0.5,95,140.0
3093,E4,382.5,0.5,95,140.0
3094,B3,382.5,0.5,95,140.0
3095,G3,382.5,0.5,95,140.0
3096,E3,382.5,0.5,95,140.0
3097,C3,382.5,0.5,95,140.0
3098,B-2,383.0,0.5,95,140.0
3099,E4,383.0,73/1000,95,140.0
3100,B3,383.0,73/1000,95,140.0
3101,G3,383.0,73/1000,95,140.0
3102,C2,383.5,0.5,95,140.0
3103,B-2,383.5,0.5,95,140.0
3104,E4,383.5,0.5,95,140.0
3105,B3,383.5,0.5,95,140.0
3106,G3,383.5,0.5,95,140.0
3107,E3,383.5,0.5,95,140.0
3108,C3,383.5,0.5,95,140.0
3109,G1,384.0,0.5,95,140.0
3110,G3,384.0,4.0,95,140.0
3111,E3,384.0,4.0,95,140.0
3112,B2,384.0,4.0,95,140.0
3113,E2,384.0,4.0,95,140.0
3114,E4,384.0,0.5,95,140.0
3115,B3,384.0,0.5,95,140.0
3116,G3,384.0,0.5,95,140.0
3117,D3,384.0,0.5,95,140.0
3118,B2,384.0,0.5,95,140.0
3119,G2,384.0,0.5,95,140.0
3120,B-2,384.0,0.5,95,140.0
3121,C2,384.0,0.5,95,140.0
3122,C#3,384.0,0.5,95,140.0
3123,G1,384.5,0.5,95,140.0
3124,B-2,384.5,0.5,95,140.0
3125,E4,384.5,0.5,95,140.0
3126,B3,384.5,0.5,95,140.0
3127,G3,384.5,0.5,95,140.0
3128,D3,384.5,0.5,95,140.0
3129,B2,384.5,0.5,95,140.0
3130,G2,384.5,0.5,95,140.0
3131,B-2,385.0,0.5,95,140.0
3132,E4,385.0,73/1000,95,140.0
3133,B3,385.0,73/1000,95,140.0
3134,G3,385.0,73/1000,95,140.0
3135,G1,385.5,0.5,95,140.0
3136,B-2,385.5,0.5,95,140.0
3137,E4,385.5,0.5,95,140.0
3138,B3,385.5,0.5,95,140.0
3139,G3,385.5,0.5,95,140.0
3140,D3,385.5,0.5,95,140.0
3141,B2,385.5,0.5,95,140.0
3142,G2,385.5,0.5,95,140.0
3143,E4,386.0,73/1000,95,140.0
3144,B3,386.0,73/1000,95,140.0
3145,G3,386.0,73/1000,95,140.0
3146,B-2,386.0,0.5,95,140.0
3147,D2,386.0,0.5,95,140.0
3148,G1,386.5,0.5,95,140.0
3149,B-2,386.5,0.5,95,140.0
3150,E4,386.5,0.5,95,140.0
3151,B3,386.5,0.5,95,140.0
3152,G3,386.5,0.5,95,140.0
3153,D3,386.5,0.5,95,140.0
3154,B2,386.5,0.5,95,140.0
3155,G2,386.5,0.5,95,140.0
3156,B-2,387.0,0.5,95,140.0
3157,E4,387.0,73/1000,95,140.0
3158,B3,387.0,73/1000,95,140.0
3159,G3,387.0,73/1000,95,140.0
3160,G1,387.5,0.5,95,140.0
3161,B-2,387.5,0.5,95,140.0
3162,E4,387.5,0.5,95,140.0
3163,B3,387.5,0.5,95,140.0
3164,G3,387.5,0.5,95,140.0
3165,D3,387.5,0.5,95,140.0
3166,B2,387.5,0.5,95,140.0
3167,G2,387.5,0.5,95,140.0
3168,B-1,388.0,0.5,95,140.0
3169,C4,388.0,4.0,95,140.0
3170,G3,388.0,4.0,95,140.0
3171,C3,388.0,4.0,95,140.0
3172,E4,388.0,73/1000,95,140.0
3173,B3,388.0,73/1000,95,140.0
3174,G3,388.0,73/1000,95,140.0
3175,D2,388.0,2.0,95,140.0
3176,C2,388.0,2.0,95,140.0
3177,C#3,388.0,2.0,95,140.0
3178,B-1,388.5,0.5,95,140.0
3179,G4,388.5,0.5,95,140.0
3180,D4,388.5,0.5,95,140.0
3181,B-3,388.5,0.5,95,140.0
3182,F3,388.5,0.5,95,140.0
3183,B-2,388.5,0.5,95,140.0
3184,E4,389.0,73/1000,95,140.0
3185,B3,389.0,73/1000,95,140.0
3186,G3,389.0,73/1000,95,140.0
3187,B-1,389.5,0.5,95,140.0
3188,G4,389.5,0.5,95,140.0
3189,D4,389.5,0.5,95,140.0
3190,B-3,389.5,0.5,95,140.0
3191,F3,389.5,0.5,95,140.0
3192,B-2,389.5,0.5,95,140.0
3193,E4,390.0,73/1000,95,140.0
3194,B3,390.0,73/1000,95,140.0
3195,G3,390.0,73/1000,95,140.0
3196,D2,390.0,0.5,95,140.0
3197,F#2,390.0,0.5,95,140.0
3198,B-1,390.5,0.5,95,140.0
3199,G4,390.5,0.5,95,140.0
3200,D4,390.5,0.5,95,140.0
3201,B-3,390.5,0.5,95,140.0
3202,F3,390.5,0.5,95,140.0
3203,B-2,390.5,0.5,95,140.0
3204,E4,391.0,73/1000,95,140.0
3205,B3,391.0,73/1000,95,140.0
3206,G3,391.0,73/1000,95,140.0
3207,D2,391.0,0.5,95,140.0
3208,F#2,391.0,0.5,95,140.0
3209,B-1,391.5,0.5,95,140.0
3210,G4,391.5,0.5,95,140.0
3211,D4,391.5,0.5,95,140.0
3212,B-3,391.5,0.5,95,140.0
3213,F3,391.5,0.5,95,140.0
3214,B-2,391.5,0.5,95,140.0
3215,D2,392.0,0.5,95,140.0
3216,F#4,392.0,0.5,95,140.0
3217,D4,392.0,0.5,95,140.0
3218,A3,392.0,0.5,95,140.0
3219,D3,392.0,0.5,95,140.0
3220,B-2,392.0,0.5,95,140.0
3221,C2,392.0,0.5,95,140.0
3222,C#3,392.0,0.5,95,140.0
3223,D2,392.5,0.5,95,140.0
3224,B-2,392.5,0.5,95,140.0
3225,F#4,392.5,0.5,95,140.0
3226,D4,392.5,0.5,95,140.0
3227,A3,392.5,0.5,95,140.0
3228,D3,392.5,0.5,95,140.0
3229,B-2,393.0,0.5,95,140.0
3230,E4,393.0,73/1000,95,140.0
3231,B3,393.0,73/1000,95,140.0
3232,G3,393.0,73/1000,95,140.0
3233,D2,393.5,0.5,95,140.0
3234,B-2,393.5,0.5,95,140.0
3235,F#4,393.5,0.5,95,140.0
3236,D4,393.5,0.5,95,140.0
3237,A3,393.5,0.5,95,140.0
3238,D3,393.5,0.5,95,140.0
3239,E4,394.0,73/1000,95,140.0
3240,B3,394.0,73/1000,95,140.0
3241,G3,394.0,73/1000,95,140.0
3242,B-2,394.0,0.5,95,140.0
3243,D2,394.0,0.5,95,140.0
3244,D2,394.5,0.5,95,140.0
3245,B-2,394.5,0.5,95,140.0
3246,F#4,394.5,0.5,95,140.0
3247,D4,394.5,0.5,95,140.0
3248,A3,394.5,0.5,95,140.0
3249,D3,394.5,0.5,95,140.0
3250,B-2,395.0,0.5,95,140.0
3251,E4,395.0,73/1000,95,140.0
3252,B3,395.0,73/1000,95,140.0
3253,G3,395.0,73/1000,95,140.0
3254,D2,395.5,0.5,95,140.0
3255,B-2,395.5,0.5,95,140.0
3256,G4,395.5,0.5,95,140.0
3257,D4,395.5,0.5,95,140.0
3258,A3,395.5,0.5,95,140.0
3259,D3,395.5,0.5,95,140.0
3260,C4,396.0,4.0,95,140.0
3261,G3,396.0,4.0,95,140.0
3262,C3,396.0,4.0,95,140.0
3263,E4,396.0,73/1000,95,140.0
3264,B3,396.0,73/1000,95,140.0
3265,G3,396.0,73/1000,95,140.0
3266,B-2,396.0,0.5,95,140.0
3267,C2,396.0,0.5,95,140.0
3268,C#3,396.0,0.5,95,140.0
3269,D2,396.5,0.5,95,140.0
3270,B-2,396.5,0.5,95,140.0
3271,G4,396.5,0.5,95,140.0
3272,D4,396.5,0.5,95,140.0
3273,A3,396.5,0.5,95,140.0
3274,D3,396.5,0.5,95,140.0
3275,B-2,397.0,0.5,95,140.0
3276,E4,397.0,73/1000,95,140.0
3277,B3,397.0,73/1000,95,140.0
3278,G3,397.0,73/1000,95,140.0
3279,D2,397.5,0.5,95,140.0
3280,B-2,397.5,0.5,95,140.0
3281,E4,397.5,0.5,95,140.0
3282,D4,397.5,0.5,95,140.0
3283,A3,397.5,0.5,95,140.0
3284,D3,397.5,0.5,95,140.0
3285,E4,398.0,73/1000,95,140.0
3286,B3,398.0,73/1000,95,140.0
3287,G3,398.0,73/1000,95,140.0
3288,B-2,398.0,0.5,95,140.0
3289,D2,398.0,0.5,95,140.0
3290,D2,398.5,0.5,95,140.0
3291,B-2,398.5,0.5,95,140.0
3292,E4,398.5,0.5,95,140.0
3293,D4,398.5,0.5,95,140.0
3294,A3,398.5,0.5,95,140.0
3295,D3,398.5,0.5,95,140.0
3296,B-2,399.0,0.5,95,140.0
3297,E4,399.0,73/1000,95,140.0
3298,B3,399.0,73/1000,95,140.0
3299,G3,399.0,73/1000,95,140.0
3300,D2,399.5,0.5,95,140.0
3301,B-2,399.5,0.5,95,140.0
3302,F#4,399.5,0.5,95,140.0
3303,D4,399.5,0.5,95,140.0
3304,A3,399.5,0.5,95,140.0
3305,D3,399.5,0.5,95,140.0
3306,D2,400.0,0.5,95,140.0
3307,G3,400.0,4.0,95,140.0
3308,D3,400.0,4.0,95,140.0
3309,G2,400.0,4.0,95,140.0
3310,F#4,400.0,0.5,95,140.0
3311,D4,400.0,0.5,95,140.0
3312,A3,400.0,0.5,95,140.0
3313,D3,400.0,0.5,95,140.0
3314,B-2,400.0,0.5,95,140.0
3315,C2,400.0,0.5,95,140.0
3316,C#3,400.0,0.5,95,140.0
3317,D2,400.5,0.5,95,140.0
3318,B-2,400.5,0.5,95,140.0
3319,F#4,400.5,0.5,95,140.0
3320,D4,400.5,0.5,95,140.0
3321,A3,400.5,0.5,95,140.0
3322,D3,400.5,0.5,95,140.0
3323,B-2,401.0,0.5,95,140.0
3324,E4,401.0,73/1000,95,140.0
3325,B3,401.0,73/1000,95,140.0
3326,G3,401.0,73/1000,95,140.0
3327,D2,401.5,0.5,95,140.0
3328,B-2,401.5,0.5,95,140.0
3329,F#4,401.5,0.5,95,140.0
3330,D4,401.5,0.5,95,140.0
3331,A3,401.5,0.5,95,140.0
3332,D3,401.5,0.5,95,140.0
3333,E4,402.0,73/1000,95,140.0
3334,B3,402.0,73/1000,95,140.0
3335,G3,402.0,73/1000,95,140.0
3336,B-2,402.0,0.5,95,140.0
3337,D2,402.0,0.5,95,140.0
3338,D2,402.5,0.5,95,140.0
3339,B-2,402.5,0.5,95,140.0
3340,F#4,402.5,0.5,95,140.0
3341,D4,402.5,0.5,95,140.0
3342,A3,402.5,0.5,95,140.0
3343,D3,402.5,0.5,95,140.0
3344,B-2,403.0,0.5,95,140.0
3345,E4,403.0,73/1000,95,140.0
3346,B3,403.0,73/1000,95,140.0
3347,G3,403.0,73/1000,95,140.0
3348,D2,403.5,0.5,95,140.0
3349,B-2,403.5,0.5,95,140.0
3350,G4,403.5,0.5,95,140.0
3351,D4,403.5,0.5,95,140.0
3352,A3,403.5,0.5,95,140.0
3353,D3,403.5,0.5,95,140.0
3354,E4,404.0,73/1000,95,140.0
3355,B3,404.0,73/1000,95,140.0
3356,G3,404.0,73/1000,95,140.0
3357,B-2,404.0,0.5,95,140.0
3358,C2,404.0,0.5,95,140.0
3359,C#3,404.0,0.5,95,140.0
3360,D2,404.5,0.5,95,140.0
3361,B-2,404.5,0.5,95,140.0
3362,G4,404.5,0.5,95,140.0
3363,D4,404.5,0.5,95,140.0
3364,A3,404.5,0.5,95,140.0
3365,D3,404.5,0.5,95,140.0
3366,B-2,405.0,0.5,95,140.0
3367,E4,405.0,73/1000,95,140.0
3368,B3,405.0,73/1000,95,140.0
3369,G3,405.0,73/1000,95,140.0
3370,D2,405.5,0.5,95,140.0
3371,B-2,405.5,0.5,95,140.0
3372,E4,405.5,0.5,95,140.0
3373,D4,405.5,0.5,95,140.0
3374,A3,405.5,0.5,95,140.0
3375,D3,405.5,0.5,95,140.0
3376,E4,406.0,73/1000,95,140.0
3377,B3,406.0,73/1000,95,140.0
3378,G3,406.0,73/1000,95,140.0
3379,B-2,406.0,0.5,95,140.0
3380,D2,406.0,0.5,95,140.0
3381,D2,406.5,0.5,95,140.0
3382,B-2,406.5,0.5,95,140.0
3383,E4,406.5,0.5,95,140.0
3384,D4,406.5,0.5,95,140.0
3385,A3,406.5,0.5,95,140.0
3386,D3,406.5,0.5,95,140.0
3387,B-2,407.0,0.5,95,140.0
3388,E4,407.0,73/1000,95,140.0
3389,B3,407.0,73/1000,95,140.0
3390,G3,407.0,73/1000,95,140.0
3391,D2,407.5,0.5,95,140.0
3392,B-2,407.5,0.5,95,140.0
3393,F#4,407.5,0.5,95,140.0
3394,D4,407.5,0.5,95,140.0
3395,A3,407.5,0.5,95,140.0
3396,D3,407.5,0.5,95,140.0
3397,C2,408.0,0.5,95,140.0
3398,G3,408.0,4.0,95,140.0
3399,D3,408.0,4.0,95,140.0
3400,G2,408.0,4.0,95,140.0
3401,E4,408.0,0.5,95,140.0
3402,B3,408.0,0.5,95,140.0
3403,G3,408.0,0.5,95,140.0
3404,E3,408.0,0.5,95,140.0
3405,C3,408.0,0.5,95,140.0
3406,B-2,408.0,0.5,95,140.0
3407,C2,408.0,0.5,95,140.0
3408,C#3,408.0,0.5,95,140.0
3409,C2,408.5,0.5,95,140.0
3410,B-2,408.5,0.5,95,140.0
3411,E4,408.5,0.5,95,140.0
3412,B3,408.5,0.5,95,140.0
3413,G3,408.5,0.5,95,140.0
3414,E3,408.5,0.5,95,140.0
3415,C3,408.5,0.5,95,140.0
3416,B-2,409.0,0.5,95,140.0
3417,E4,409.0,73/1000,95,140.0
3418,B3,409.0,73/1000,95,140.0
3419,G3,409.0,73/1000,95,140.0
3420,C2,409.5,0.5,95,140.0
3421,B-2,409.5,0.5,95,140.0
3422,E4,409.5,0.5,95,140.0
3423,B3,409.5,0.5,95,140.0
3424,G3,409.5,0.5,95,140.0
3425,E3,409.5,0.5,95,140.0
3426,C3,409.5,0.5,95,140.0
3427,E4,410.0,73/1000,95,140.0
3428,B3,410.0,73/1000,95,140.0
3429,G3,410.0,73/1000,95,140.0
3430,B-2,410.0,0.5,95,140.0
3431,D2,410.0,0.5,95,140.0
3432,C2,410.5,0.5,95,140.0
3433,B-2,410.5,0.5,95,140.0
3434,E4,410.5,0.5,95,140.0
3435,B3,410.5,0.5,95,140.0
3436,G3,410.5,0.5,95,140.0
3437,E3,410.5,0.5,95,140.0
3438,C3,410.5,0.5,95,140.0
3439,B-2,411.0,0.5,95,140.0
3440,E4,411.0,73/1000,95,140.0
3441,B3,411.0,73/1000,95,140.0
3442,G3,411.0,73/1000,95,140.0
3443,C2,411.5,0.5,95,140.0
3444,B-2,411.5,0.5,95,140.0
3445,E4,411.5,0.5,95,140.0
3446,B3,411.5,0.5,95,140.0
3447,G3,411.5,0.5,95,140.0
3448,E3,411.5,0.5,95,140.0
3449,C3,411.5,0.5,95,140.0
3450,D4,412.0,4.0,95,140.0
3451,A3,412.0,4.0,95,140.0
3452,D3,412.0,4.0,95,140.0
3453,E4,412.0,73/1000,95,140.0
3454,B3,412.0,73/1000,95,140.0
3455,G3,412.0,73/1000,95,140.0
3456,B-2,412.0,0.5,95,140.0
3457,C2,412.0,0.5,95,140.0
3458,C#3,412.0,0.5,95,140.0
3459,C2,412.5,0.5,95,140.0
3460,B-2,412.5,0.5,95,140.0
3461,E4,412.5,0.5,95,140.0
3462,B3,412.5,0.5,95,140.0
3463,G3,412.5,0.5,95,140.0
3464,E3,412.5,0.5,95,140.0
3465,C3,412.5,0.5,95,140.0
3466,B-2,413.0,0.5,95,140.0
3467,E4,413.0,73/1000,95,140.0
3468,B3,413.0,73/1000,95,140.0
3469,G3,413.0,73/1000,95,140.0
3470,C2,413.5,0.5,95,140.0
3471,B-2,413.5,0.5,95,140.0
3472,E4,413.5,0.5,95,140.0
3473,B3,413.5,0.5,95,140.0
3474,G3,413.5,0.5,95,140.0
3475,E3,413.5,0.5,95,140.0
3476,C3,413.5,0.5,95,140.0
3477,E4,414.0,73/1000,95,140.0
3478,B3,414.0,73/1000,95,140.0
3479,G3,414.0,73/1000,95,140.0
3480,B-2,414.0,0.5,95,140.0
3481,D2,414.0,0.5,95,140.0
3482,C2,414.5,0.5,95,140.0
3483,B-2,414.5,0.5,95,140.0
3484,E4,414.5,0.5,95,140.0
3485,B3,414.5,0.5,95,140.0
3486,G3,414.5,0.5,95,140.0
3487,E3,414.5,0.5,95,140.0
3488,C3,414.5,0.5,95,140.0
3489,B-2,415.0,0.5,95,140.0
3490,E4,415.0,73/1000,95,140.0
3491,B3,415.0,73/1000,95,140.0
3492,G3,415.0,73/1000,95,140.0
3493,C2,415.5,0.5,95,140.0
3494,B-2,415.5,0.5,95,140.0
3495,E4,415.5,0.5,95,140.0
3496,B3,415.5,0.5,95,140.0
3497,G3,415.5,0.5,95,140.0
3498,E3,415.5,0.5,95,140.0
3499,C3,415.5,0.5,95,140.0
3500,G1,416.0,0.5,95,140.0
3501,E4,416.0,0.5,95,140.0
3502,B3,416.0,0.5,95,140.0
3503,G3,416.0,0.5,95,140.0
3504,D3,416.0,0.5,95,140.0
3505,B2,416.0,0.5,95,140.0
3506,G2,416.0,0.5,95,140.0
3507,B-2,416.0,0.5,95,140.0
3508,C2,416.0,0.5,95,140.0
3509,C#3,416.0,0.5,95,140.0
3510,G1,416.5,0.5,95,140.0
3511,B-2,416.5,0.5,95,140.0
3512,E4,416.5,0.5,95,140.0
3513,B3,416.5,0.5,95,140.0
3514,G3,416.5,0.5,95,140.0
3515,D3,416.5,0.5,95,140.0
3516,B2,416.5,0.5,95,140.0
3517,G2,416.5,0.5,95,140.0
3518,B-2,417.0,0.5,95,140.0
3519,E4,417.0,73/1000,95,140.0
3520,B3,417.0,73/1000,95,140.0
3521,G3,417.0,73/1000,95,140.0
3522,G1,417.5,0.5,95,140.0
3523,B-2,417.5,0.5,95,140.0
3524,E4,417.5,0.5,95,140.0
3525,B3,417.5,0.5,95,140.0
3526,G3,417.5,0.5,95,140.0
3527,D3,417.5,0.5,95,140.0
3528,B2,417.5,0.5,95,140.0
3529,G2,417.5,0.5,95,140.0
3530,E4,418.0,73/1000,95,140.0
3531,B3,418.0,73/1000,95,140.0
3532,G3,418.0,73/1000,95,140.0
3533,B-2,418.0,0.5,95,140.0
3534,D2,418.0,0.5,95,140.0
3535,G1,418.5,0.5,95,140.0
3536,B-2,418.5,0.5,95,140.0
3537,E4,418.5,0.5,95,140.0
3538,B3,418.5,0.5,95,140.0
3539,G3,418.5,0.5,95,140.0
3540,D3,418.5,0.5,95,140.0
3541,B2,418.5,0.5,95,140.0
3542,G2,418.5,0.5,95,140.0
3543,B-2,419.0,0.5,95,140.0
3544,E4,419.0,73/1000,95,140.0
3545,B3,419.0,73/1000,95,140.0
3546,G3,419.0,73/1000,95,140.0
3547,G1,419.5,0.5,95,140.0
3548,B-2,419.5,0.5,95,140.0
3549,E4,419.5,0.5,95,140.0
3550,B3,419.5,0.5,95,140.0
3551,G3,419.5,0.5,95,140.0
3552,D3,419.5,0.5,95,140.0
3553,B2,419.5,0.5,95,140.0
3554,G2,419.5,0.5,95,140.0
3555,B-1,420.0,0.5,95,140.0
3556,D4,420.0,4.0,95,140.0
3557,A3,420.0,4.0,95,140.0
3558,D3,420.0,4.0,95,140.0
3559,E4,420.0,73/1000,95,140.0
3560,B3,420.0,73/1000,95,140.0
3561,G3,420.0,73/1000,95,140.0
3562,B-2,420.0,0.5,95,140.0
3563,C2,420.0,0.5,95,140.0
3564,C#3,420.0,0.5,95,140.0
3565,B-1,420.5,0.5,95,140.0
3566,B-2,420.5,0.5,95,140.0
3567,G4,420.5,0.5,95,140.0
3568,D4,420.5,0.5,95,140.0
3569,B-3,420.5,0.5,95,140.0
3570,F3,420.5,0.5,95,140.0
3571,B-2,420.5,0.5,95,140.0
3572,B-2,421.0,0.5,95,140.0
3573,E4,421.0,73/1000,95,140.0
3574,B3,421.0,73/1000,95,140.0
3575,G3,421.0,73/1000,95,140.0
3576,B-1,421.5,0.5,95,140.0
3577,B-2,421.5,0.5,95,140.0
3578,G4,421.5,0.5,95,140.0
3579,D4,421.5,0.5,95,140.0
3580,B-3,421.5,0.5,95,140.0
3581,F3,421.5,0.5,95,140.0
3582,B-2,421.5,0.5,95,140.0
3583,E4,422.0,73/1000,95,140.0
3584,B3,422.0,73/1000,95,140.0
3585,G3,422.0,73/1000,95,140.0
3586,B-2,422.0,0.5,95,140.0
3587,D2,422.0,0.5,95,140.0
3588,B-1,422.5,0.5,95,140.0
3589,B-2,422.5,0.5,95,140.0
3590,G4,422.5,0.5,95,140.0
3591,D4,422.5,0.5,95,140.0
3592,B-3,422.5,0.5,95,140.0
3593,F3,422.5,0.5,95,140.0
3594,B-2,422.5,0.5,95,140.0
3595,B-2,423.0,0.5,95,140.0
3596,E4,423.0,73/1000,95,140.0
3597,B3,423.0,73/1000,95,140.0
3598,G3,423.0,73/1000,95,140.0
3599,B-1,423.5,0.5,95,140.0
3600,B-2,423.5,0.5,95,140.0
3601,G4,423.5,0.5,95,140.0
3602,D4,423.5,0.5,95,140.0
3603,B-3,423.5,0.5,95,140.0
3604,F3,423.5,0.5,95,140.0
3605,B-2,423.5,0.5,95,140.0
3606,D2,424.0,0.5,95,140.0
3607,D4,424.0,2.0,95,140.0
3608,A3,424.0,2.0,95,140.0
3609,D3,424.0,2.0,95,140.0
3610,F#4,424.0,0.5,95,140.0
3611,D4,424.0,0.5,95,140.0
3612,A3,424.0,0.5,95,140.0
3613,D3,424.0,0.5,95,140.0
3614,B-2,424.0,0.5,95,140.0
3615,C2,424.0,0.5,95,140.0
3616,C#3,424.0,0.5,95,140.0
3617,D2,424.5,0.5,95,140.0
3618,B-2,424.5,0.5,95,140.0
3619,F#4,424.5,0.5,95,140.0
3620,D4,424.5,0.5,95,140.0
3621,A3,424.5,0.5,95,140.0
3622,D3,424.5,0.5,95,140.0
3623,B-2,425.0,0.5,95,140.0
3624,E4,425.0,73/1000,95,140.0
3625,B3,425.0,73/1000,95,140.0
3626,G3,425.0,73/1000,95,140.0
3627,D2,425.5,0.5,95,140.0
3628,B-2,425.5,0.5,95,140.0
3629,F#4,425.5,0.5,95,140.0
3630,D4,425.5,0.5,95,140.0
3631,A3,425.5,0.5,95,140.0
3632,D3,425.5,0.5,95,140.0
3633,E4,426.0,73/1000,95,140.0
3634,B3,426.0,73/1000,95,140.0
3635,G3,426.0,73/1000,95,140.0
3636,B-2,426.0,0.5,95,140.0
3637,D2,426.0,0.5,95,140.0
3638,D2,426.5,0.5,95,140.0
3639,B-2,426.5,0.5,95,140.0
3640,F#4,426.5,0.5,95,140.0
3641,D4,426.5,0.5,95,140.0
3642,A3,426.5,0.5,95,140.0
3643,D3,426.5,0.5,95,140.0
3644,B-2,427.0,0.5,95,140.0
3645,E4,427.0,73/1000,95,140.0
3646,B3,427.0,73/1000,95,140.0
3647,G3,427.0,73/1000,95,140.0
3648,D2,427.5,0.5,95,140.0
3649,B-2,427.5,0.5,95,140.0
3650,D4,427.5,0.5,95,140.0
3651,A3,427.5,0.5,95,140.0
3652,D3,427.5,0.5,95,140.0
3653,G4,427.5,0.5,95,140.0
3654,D4,427.5,0.5,95,140.0
3655,A3,427.5,0.5,95,140.0
3656,D3,427.5,0.5,95,140.0
3657,D4,428.0,4.0,95,140.0
3658,A3,428.0,4.0,95,140.0
3659,D3,428.0,4.0,95,140.0
3660,E4,428.0,73/1000,95,140.0
3661,B3,428.0,73/1000,95,140.0
3662,G3,428.0,73/1000,95,140.0
3663,B-2,428.0,0.5,95,140.0
3664,C2,428.0,0.5,95,140.0
3665,C#3,428.0,0.5,95,140.0
3666,D2,428.5,0.5,95,140.0
3667,B-2,428.5,0.5,95,140.0
3668,G4,428.5,0.5,95,140.0
3669,D4,428.5,0.5,95,140.0
3670,A3,428.5,0.5,95,140.0
3671,D3,428.5,0.5,95,140.0
3672,B-2,429.0,0.5,95,140.0
3673,E4,429.0,73/1000,95,140.0
3674,B3,429.0,73/1000,95,140.0
3675,G3,429.0,73/1000,95,140.0
3676,D2,429.5,0.5,95,140.0
3677,B-2,429.5,0.5,95,140.0
3678,E4,429.5,0.5,95,140.0
3679,D4,429.5,0.5,95,140.0
3680,A3,429.5,0.5,95,140.0
3681,D3,429.5,0.5,95,140.0
3682,E4,430.0,73/1000,95,140.0
3683,B3,430.0,73/1000,95,140.0
3684,G3,430.0,73/1000,95,140.0
3685,B-2,430.0,0.5,95,140.0
3686,D2,430.0,0.5,95,140.0
3687,D2,430.5,0.5,95,140.0
3688,B-2,430.5,0.5,95,140.0
3689,E4,430.5,0.5,95,140.0
3690,D4,430.5,0.5,95,140.0
3691,A3,430.5,0.5,95,140.0
3692,D3,430.5,0.5,95,140.0
3693,B-2,431.0,0.5,95,140.0
3694,E4,431.0,73/1000,95,140.0
3695,B3,431.0,73/1000,95,140.0
3696,G3,431.0,73/1000,95,140.0
3697,D2,431.5,0.5,95,140.0
3698,B-2,431.5,0.5,95,140.0
3699,F#4,431.5,0.5,95,140.0
3700,D4,431.5,0.5,95,140.0
3701,A3,431.5,0.5,95,140.0
3702,D3,431.5,0.5,95,140.0
3703,D2,432.0,0.5,95,140.0
3704,D4,432.0,2.0,95,140.0
3705,A3,432.0,2.0,95,140.0
3706,D3,432.0,2.0,95,140.0
3707,F#4,432.0,0.5,95,140.0
3708,D4,432.0,0.5,95,140.0
3709,A3,432.0,0.5,95,140.0
3710,D3,432.0,0.5,95,140.0
3711,B-2,432.0,0.5,95,140.0
3712,C2,432.0,0.5,95,140.0
3713,C#3,432.0,0.5,95,140.0
3714,D2,432.5,0.5,95,140.0
3715,B-2,432.5,0.5,95,140.0
3716,F#4,432.5,0.5,95,140.0
3717,D4,432.5,0.5,95,140.0
3718,A3,432.5,0.5,95,140.0
3719,D3,432.5,0.5,95,140.0
3720,B-2,433.0,0.5,95,140.0
3721,E4,433.0,73/1000,95,140.0
3722,B3,433.0,73/1000,95,140.0
3723,G3,433.0,73/1000,95,140.0
3724,D2,433.5,0.5,95,140.0
3725,B-2,433.5,0.5,95,140.0
3726,F#4,433.5,0.5,95,140.0
3727,D4,433.5,0.5,95,140.0
3728,A3,433.5,0.5,95,140.0
3729,D3,433.5,0.5,95,140.0
3730,E4,434.0,73/1000,95,140.0
3731,B3,434.0,73/1000,95,140.0
3732,G3,434.0,73/1000,95,140.0
3733,B-2,434.0,0.5,95,140.0
3734,D2,434.0,0.5,95,140.0
3735,D2,434.5,0.5,95,140.0
3736,B-2,434.5,0.5,95,140.0
3737,F#4,434.5,0.5,95,140.0
3738,D4,434.5,0.5,95,140.0
3739,A3,434.5,0.5,95,140.0
3740,D3,434.5,0.5,95,140.0
3741,B-2,435.0,0.5,95,140.0
3742,E4,435.0,73/1000,95,140.0
3743,B3,435.0,73/1000,95,140.0
3744,G3,435.0,73/1000,95,140.0
3745,D2,435.5,0.5,95,140.0
3746,B-2,435.5,0.5,95,140.0
3747,D4,435.5,0.5,95,140.0
3748,A3,435.5,0.5,95,140.0
3749,D3,435.5,0.5,95,140.0
3750,G4,435.5,0.5,95,140.0
3751,D4,435.5,0.5,95,140.0
3752,A3,435.5,0.5,95,140.0
3753,D3,435.5,0.5,95,140.0
3754,D4,436.0,4.0,95,140.0
3755,A3,436.0,4.0,95,140.0
3756,D3,436.0,4.0,95,140.0
3757,E4,436.0,73/1000,95,140.0
3758,B3,436.0,73/1000,95,140.0
3759,G3,436.0,73/1000,95,140.0
3760,B-2,436.0,0.5,95,140.0
3761,C2,436.0,0.5,95,140.0
3762,C#3,436.0,0.5,95,140.0
3763,D2,436.5,0.5,95,140.0
3764,B-2,436.5,0.5,95,140.0
3765,G4,436.5,0.5,95,140.0
3766,D4,436.5,0.5,95,140.0
3767,A3,436.5,0.5,95,140.0
3768,D3,436.5,0.5,95,140.0
3769,B-2,437.0,0.5,95,140.0
3770,E4,437.0,73/1000,95,140.0
3771,B3,437.0,73/1000,95,140.0
3772,G3,437.0,73/1000,95,140.0
3773,D2,437.5,0.5,95,140.0
3774,B-2,437.5,0.5,95,140.0
3775,E4,437.5,0.5,95,140.0
3776,D4,437.5,0.5,95,140.0
3777,A3,437.5,0.5,95,140.0
3778,D3,437.5,0.5,95,140.0
3779,E4,438.0,73/1000,95,140.0
3780,B3,438.0,73/1000,95,140.0
3781,G3,438.0,73/1000,95,140.0
3782,B-2,438.0,0.5,95,140.0
3783,D2,438.0,0.5,95,140.0
3784,D2,438.5,0.5,95,140.0
3785,B-2,438.5,0.5,95,140.0
3786,E4,438.5,0.5,95,140.0
3787,D4,438.5,0.5,95,140.0
3788,A3,438.5,0.5,95,140.0
3789,D3,438.5,0.5,95,140.0
3790,B-2,439.0,0.5,95,140.0
3791,E4,439.0,73/1000,95,140.0
3792,B3,439.0,73/1000,95,140.0
3793,G3,439.0,73/1000,95,140.0
3794,D2,439.5,0.5,95,140.0
3795,B-2,439.5,0.5,95,140.0
3796,F#4,439.5,0.5,95,140.0
3797,D4,439.5,0.5,95,140.0
3798,A3,439.5,0.5,95,140.0
3799,D3,439.5,0.5,95,140.0
3800,C2,440.0,0.5,95,140.0
3801,C4,440.0,2.0,95,140.0
3802,G3,440.0,2.0,95,140.0
3803,C3,440.0,2.0,95,140.0
3804,E4,440.0,0.5,95,140.0
3805,B3,440.0,0.5,95,140.0
3806,G3,440.0,0.5,95,140.0
3807,E3,440.0,0.5,95,140.0
3808,C3,440.0,0.5,95,140.0
3809,B-2,440.0,0.5,95,140.0
3810,C2,440.0,0.5,95,140.0
3811,C#3,440.0,0.5,95,140.0
3812,C2,440.5,0.5,95,140.0
3813,B-2,440.5,0.5,95,140.0
3814,E4,440.5,0.5,95,140.0
3815,B3,440.5,0.5,95,140.0
3816,G3,440.5,0.5,95,140.0
3817,E3,440.5,0.5,95,140.0
3818,C3,440.5,0.5,95,140.0
3819,B-2,441.0,0.5,95,140.0
3820,E4,441.0,73/1000,95,140.0
3821,B3,441.0,73/1000,95,140.0
3822,G3,441.0,73/1000,95,140.0
3823,C2,441.5,0.5,95,140.0
3824,B-2,441.5,0.5,95,140.0
3825,E4,441.5,0.5,95,140.0
3826,B3,441.5,0.5,95,140.0
3827,G3,441.5,0.5,95,140.0
3828,E3,441.5,0.5,95,140.0
3829,C3,441.5,0.5,95,140.0
3830,E4,442.0,73/1000,95,140.0
3831,B3,442.0,73/1000,95,140.0
3832,G3,442.0,73/1000,95,140.0
3833,B-2,442.0,0.5,95,140.0
3834,D2,442.0,0.5,95,140.0
3835,C2,442.5,0.5,95,140.0
3836,B-2,442.5,0.5,95,140.0
3837,E4,442.5,0.5,95,140.0
3838,B3,442.5,0.5,95,140.0
3839,G3,442.5,0.5,95,140.0
3840,E3,442.5,0.5,95,140.0
3841,C3,442.5,0.5,95,140.0
3842,B-2,443.0,0.5,95,140.0
3843,E4,443.0,73/1000,95,140.0
3844,B3,443.0,73/1000,95,140.0
3845,G3,443.0,73/1000,95,140.0
3846,C2,443.5,0.5,95,140.0
3847,B-2,443.5,0.5,95,140.0
3848,C4,443.5,0.5,95,140.0
3849,G3,443.5,0.5,95,140.0
3850,C3,443.5,0.5,95,140.0
3851,E4,443.5,0.5,95,140.0
3852,B3,443.5,0.5,95,140.0
3853,G3,443.5,0.5,95,140.0
3854,E3,443.5,0.5,95,140.0
3855,C3,443.5,0.5,95,140.0
3856,C4,444.0,4.0,95,140.0
3857,G3,444.0,4.0,95,140.0
3858,C3,444.0,4.0,95,140.0
3859,E4,444.0,73/1000,95,140.0
3860,B3,444.0,73/1000,95,140.0
3861,G3,444.0,73/1000,95,140.0
3862,B-2,444.0,0.5,95,140.0
3863,C2,444.0,0.5,95,140.0
3864,C#3,444.0,0.5,95,140.0
3865,C2,444.5,0.5,95,140.0
3866,B-2,444.5,0.5,95,140.0
3867,E4,444.5,0.5,95,140.0
3868,B3,444.5,0.5,95,140.0
3869,G3,444.5,0.5,95,140.0
3870,E3,444.5,0.5,95,140.0
3871,C3,444.5,0.5,95,140.0
3872,B-2,445.0,0.5,95,140.0
3873,E4,445.0,73/1000,95,140.0
3874,B3,445.0,73/1000,95,140.0
3875,G3,445.0,73/1000,95,140.0
3876,C2,445.5,0.5,95,140.0
3877,B-2,445.5,0.5,95,140.0
3878,E4,445.5,0.5,95,140.0
3879,B3,445.5,0.5,95,140.0
3880,G3,445.5,0.5,95,140.0
3881,E3,445.5,0.5,95,140.0
3882,C3,445.5,0.5,95,140.0
3883,E4,446.0,73/1000,95,140.0
3884,B3,446.0,73/1000,95,140.0
3885,G3,446.0,73/1000,95,140.0
3886,B-2,446.0,0.5,95,140.0
3887,D2,446.0,0.5,95,140.0
3888,C2,446.5,0.5,95,140.0
3889,B-2,446.5,0.5,95,140.0
3890,E4,446.5,0.5,95,140.0
3891,B3,446.5,0.5,95,140.0
3892,G3,446.5,0.5,95,140.0
3893,E3,446.5,0.5,95,140.0
3894,C3,446.5,0.5,95,140.0
3895,B-2,447.0,0.5,95,140.0
3896,E4,447.0,73/1000,95,140.0
3897,B3,447.0,73/1000,95,140.0
3898,G3,447.0,73/1000,95,140.0
3899,C2,447.5,0.5,95,140.0
3900,B-2,447.5,0.5,95,140.0
3901,E4,447.5,0.5,95,140.0
3902,B3,447.5,0.5,95,140.0
3903,G3,447.5,0.5,95,140.0
3904,E3,447.5,0.5,95,140.0
3905,C3,447.5,0.5,95,140.0
3906,G1,448.0,0.5,95,140.0
3907,G3,448.0,2.0,95,140.0
3908,D3,448.0,2.0,95,140.0
3909,G2,448.0,2.0,95,140.0
3910,E4,448.0,0.5,95,140.0
3911,B3,448.0,0.5,95,140.0
3912,G3,448.0,0.5,95,140.0
3913,D3,448.0,0.5,95,140.0
3914,B2,448.0,0.5,95,140.0
3915,G2,448.0,0.5,95,140.0
3916,B-2,448.0,0.5,95,140.0
3917,C2,448.0,0.5,95,140.0
3918,C#3,448.0,0.5,95,140.0
3919,G1,448.5,0.5,95,140.0
3920,B-2,448.5,0.5,95,140.0
3921,E4,448.5,0.5,95,140.0
3922,B3,448.5,0.5,95,140.0
3923,G3,448.5,0.5,95,140.0
3924,D3,448.5,0.5,95,140.0
3925,B2,448.5,0.5,95,140.0
3926,G2,448.5,0.5,95,140.0
3927,B-2,449.0,0.5,95,140.0
3928,E4,449.0,73/1000,95,140.0
3929,B3,449.0,73/1000,95,140.0
3930,G3,449.0,73/1000,95,140.0
3931,G1,449.5,0.5,95,140.0
3932,B-2,449.5,0.5,95,140.0
3933,E4,449.5,0.5,95,140.0
3934,B3,449.5,0.5,95,140.0
3935,G3,449.5,0.5,95,140.0
3936,D3,449.5,0.5,95,140.0
3937,B2,449.5,0.5,95,140.0
3938,G2,449.5,0.5,95,140.0
3939,E4,450.0,73/1000,95,140.0
3940,B3,450.0,73/1000,95,140.0
3941,G3,450.0,73/1000,95,140.0
3942,B-2,450.0,0.5,95,140.0
3943,D2,450.0,0.5,95,140.0
3944,G1,450.5,0.5,95,140.0
3945,B-2,450.5,0.5,95,140.0
3946,E4,450.5,0.5,95,140.0
3947,B3,450.5,0.5,95,140.0
3948,G3,450.5,0.5,95,140.0
3949,D3,450.5,0.5,95,140.0
3950,B2,450.5,0.5,95,140.0
3951,G2,450.5,0.5,95,140.0
3952,B-2,451.0,0.5,95,140.0
3953,E4,451.0,73/1000,95,140.0
3954,B3,451.0,73/1000,95,140.0
3955,G3,451.0,73/1000,95,140.0
3956,G1,451.5,0.5,95,140.0
3957,B-2,451.5,0.5,95,140.0
3958,G3,451.5,0.5,95,140.0
3959,D3,451.5,0.5,95,140.0
3960,G2,451.5,0.5,95,140.0
3961,E4,451.5,0.5,95,140.0
3962,B3,451.5,0.5,95,140.0
3963,G3,451.5,0.5,95,140.0
3964,D3,451.5,0.5,95,140.0
3965,B2,451.5,0.5,95,140.0
3966,G2,451.5,0.5,95,140.0
3967,B-1,452.0,0.5,95,140.0
3968,B-3,452.0,4.0,95,140.0
3969,F3,452.0,4.0,95,140.0
3970,B-2,452.0,4.0,95,140.0
3971,E4,452.0,73/1000,95,140.0
3972,B3,452.0,73/1000,95,140.0
3973,G3,452.0,73/1000,95,140.0
3974,B-2,452.0,0.5,95,140.0
3975,C2,452.0,0.5,95,140.0
3976,C#3,452.0,0.5,95,140.0
3977,B-1,452.5,0.5,95,140.0
3978,B-2,452.5,0.5,95,140.0
3979,G4,452.5,0.5,95,140.0
3980,D4,452.5,0.5,95,140.0
3981,B-3,452.5,0.5,95,140.0
3982,F3,452.5,0.5,95,140.0
3983,B-2,452.5,0.5,95,140.0
3984,B-2,453.0,0.5,95,140.0
3985,E4,453.0,73/1000,95,140.0
3986,B3,453.0,73/1000,95,140.0
3987,G3,453.0,73/1000,95,140.0
3988,B-1,453.5,0.5,95,140.0
3989,B-2,453.5,0.5,95,140.0
3990,G4,453.5,0.5,95,140.0
3991,D4,453.5,0.5,95,140.0
3992,B-3,453.5,0.5,95,140.0
3993,F3,453.5,0.5,95,140.0
3994,B-2,453.5,0.5,95,140.0
3995,E4,454.0,73/1000,95,140.0
3996,B3,454.0,73/1000,95,140.0
3997,G3,454.0,73/1000,95,140.0
3998,B-2,454.0,0.5,95,140.0
3999,D2,454.0,0.5,95,140.0
4000,B-1,454.5,0.5,95,140.0
4001,B-2,454.5,0.5,95,140.0
4002,G4,454.5,0.5,95,140.0
4003,D4,454.5,0.5,95,140.0
4004,B-3,454.5,0.5,95,140.0
4005,F3,454.5,0.5,95,140.0
4006,B-2,454.5,0.5,95,140.0
4007,B-2,455.0,0.5,95,140.0
4008,E4,455.0,73/1000,95,140.0
4009,B3,455.0,73/1000,95,140.0
4010,G3,455.0,73/1000,95,140.0
4011,B-1,455.5,0.5,95,140.0
4012,B-2,455.5,0.5,95,140.0
4013,G4,455.5,0.5,95,140.0
4014,D4,455.5,0.5,95,140.0
4015,B-3,455.5,0.5,95,140.0
4016,F3,455.5,0.5,95,140.0
4017,B-2,455.5,0.5,95,140.0
4018,D2,456.0,0.5,95,140.0
4019,F#4,456.0,0.5,95,140.0
4020,D4,456.0,0.5,95,140.0
4021,A3,456.0,0.5,95,140.0
4022,D3,456.0,0.5,95,140.0
4023,B-2,456.0,0.5,95,140.0
4024,C2,456.0,0.5,95,140.0
4025,C#3,456.0,0.5,95,140.0
4026,D2,456.5,0.5,95,140.0
4027,B-2,456.5,0.5,95,140.0
4028,F#4,456.5,0.5,95,140.0
4029,D4,456.5,0.5,95,140.0
4030,A3,456.5,0.5,95,140.0
4031,D3,456.5,0.5,95,140.0
4032,B-2,457.0,0.5,95,140.0
4033,E4,457.0,73/1000,95,140.0
4034,B3,457.0,73/1000,95,140.0
4035,G3,457.0,73/1000,95,140.0
4036,D2,457.5,0.5,95,140.0
4037,B-2,457.5,0.5,95,140.0
4038,F#4,457.5,0.5,95,140.0
4039,D4,457.5,0.5,95,140.0
4040,A3,457.5,0.5,95,140.0
4041,D3,457.5,0.5,95,140.0
4042,E4,458.0,73/1000,95,140.0
4043,B3,458.0,73/1000,95,140.0
4044,G3,458.0,73/1000,95,140.0
4045,B-2,458.0,0.5,95,140.0
4046,D2,458.0,0.5,95,140.0
4047,D2,458.5,0.5,95,140.0
4048,B-2,458.5,0.5,95,140.0
4049,F#4,458.5,0.5,95,140.0
4050,D4,458.5,0.5,95,140.0
4051,A3,458.5,0.5,95,140.0
4052,D3,458.5,0.5,95,140.0
4053,B-2,459.0,0.5,95,140.0
4054,E4,459.0,73/1000,95,140.0
4055,B3,459.0,73/1000,95,140.0
4056,G3,459.0,73/1000,95,140.0
4057,D2,459.5,0.5,95,140.0
4058,B-2,459.5,0.5,95,140.0
4059,G4,459.5,0.5,95,140.0
4060,D4,459.5,0.5,95,140.0
4061,A3,459.5,0.5,95,140.0
4062,D3,459.5,0.5,95,140.0
4063,E4,460.0,73/1000,95,140.0
4064,B3,460.0,73/1000,95,140.0
4065,G3,460.0,73/1000,95,140.0
4066,B-2,460.0,0.5,95,140.0
4067,C2,460.0,0.5,95,140.0
4068,C#3,460.0,0.5,95,140.0
4069,D2,460.5,0.5,95,140.0
4070,B-2,460.5,0.5,95,140.0
4071,G4,460.5,0.5,95,140.0
4072,D4,460.5,0.5,95,140.0
4073,A3,460.5,0.5,95,140.0
4074,D3,460.5,0.5,95,140.0
4075,B-2,461.0,0.5,95,140.0
4076,E4,461.0,73/1000,95,140.0
4077,B3,461.0,73/1000,95,140.0
4078,G3,461.0,73/1000,95,140.0
4079,D2,461.5,0.5,95,140.0
4080,B-2,461.5,0.5,95,140.0
4081,E4,461.5,0.5,95,140.0
4082,D4,461.5,0.5,95,140.0
4083,A3,461.5,0.5,95,140.0
4084,D3,461.5,0.5,95,140.0
4085,E4,462.0,73/1000,95,140.0
4086,B3,462.0,73/1000,95,140.0
4087,G3,462.0,73/1000,95,140.0
4088,B-2,462.0,0.5,95,140.0
4089,D2,462.0,0.5,95,140.0
4090,D2,462.5,0.5,95,140.0
4091,B-2,462.5,0.5,95,140.0
4092,E4,462.5,0.5,95,140.0
4093,D4,462.5,0.5,95,140.0
4094,A3,462.5,0.5,95,140.0
4095,D3,462.5,0.5,95,140.0
4096,B-2,463.0,0.5,95,140.0
4097,E4,463.0,73/1000,95,140.0
4098,B3,463.0,73/1000,95,140.0
4099,G3,463.0,73/1000,95,140.0
4100,C3,463.5,0.5,95,140.0
4101,D2,463.5,0.5,95,140.0
4102,B-2,463.5,0.5,95,140.0
4103,F#4,463.5,0.5,95,140.0
4104,D4,463.5,0.5,95,140.0
4105,A3,463.5,0.5,95,140.0
4106,D3,463.5,0.5,95,140.0
4107,D3,464.0,4.0,95,140.0
4108,D2,464.0,0.5,95,140.0
4109,F#4,464.0,0.5,95,140.0
4110,D4,464.0,0.5,95,140.0
4111,A3,464.0,0.5,95,140.0
4112,D3,464.0,0.5,95,140.0
4113,B-2,464.0,0.5,95,140.0
4114,C2,464.0,0.5,95,140.0
4115,C#3,464.0,0.5,95,140.0
4116,D2,464.5,0.5,95,140.0
4117,B-2,464.5,0.5,95,140.0
4118,F#4,464.5,0.5,95,140.0
4119,D4,464.5,0.5,95,140.0
4120,A3,464.5,0.5,95,140.0
4121,D3,464.5,0.5,95,140.0
4122,B-2,465.0,0.5,95,140.0
4123,E4,465.0,73/1000,95,140.0
4124,B3,465.0,73/1000,95,140.0
4125,G3,465.0,73/1000,95,140.0
4126,D2,465.5,0.5,95,140.0
4127,B-2,465.5,0.5,95,140.0
4128,F#4,465.5,0.5,95,140.0
4129,D4,465.5,0.5,95,140.0
4130,A3,465.5,0.5,95,140.0
4131,D3,465.5,0.5,95,140.0
4132,E4,466.0,73/1000,95,140.0
4133,B3,466.0,73/1000,95,140.0
4134,G3,466.0,73/1000,95,140.0
4135,B-2,466.0,0.5,95,140.0
4136,D2,466.0,0.5,95,140.0
4137,D2,466.5,0.5,95,140.0
4138,B-2,466.5,0.5,95,140.0
4139,F#4,466.5,0.5,95,140.0
4140,D4,466.5,0.5,95,140.0
4141,A3,466.5,0.5,95,140.0
4142,D3,466.5,0.5,95,140.0
4143,B-2,467.0,0.5,95,140.0
4144,E4,467.0,73/1000,95,140.0
4145,B3,467.0,73/1000,95,140.0
4146,G3,467.0,73/1000,95,140.0
4147,D2,467.5,0.5,95,140.0
4148,B-2,467.5,0.5,95,140.0
4149,G4,467.5,0.5,95,140.0
4150,D4,467.5,0.5,95,140.0
4151,A3,467.5,0.5,95,140.0
4152,D3,467.5,0.5,95,140.0
4153,D3,468.0,4.0,95,140.0
4154,E4,468.0,73/1000,95,140.0
4155,B3,468.0,73/1000,95,140.0
4156,G3,468.0,73/1000,95,140.0
4157,B-2,468.0,0.5,95,140.0
4158,C2,468.0,0.5,95,140.0
4159,C#3,468.0,0.5,95,140.0
4160,D2,468.5,0.5,95,140.0
4161,B-2,468.5,0.5,95,140.0
4162,G4,468.5,0.5,95,140.0
4163,D4,468.5,0.5,95,140.0
4164,A3,468.5,0.5,95,140.0
4165,D3,468.5,0.5,95,140.0
4166,B-2,469.0,0.5,95,140.0
4167,E4,469.0,73/1000,95,140.0
4168,B3,469.0,73/1000,95,140.0
4169,G3,469.0,73/1000,95,140.0
4170,D2,469.5,0.5,95,140.0
4171,B-2,469.5,0.5,95,140.0
4172,E4,469.5,0.5,95,140.0
4173,D4,469.5,0.5,95,140.0
4174,A3,469.5,0.5,95,140.0
4175,D3,469.5,0.5,95,140.0
4176,E4,470.0,73/1000,95,140.0
4177,B3,470.0,73/1000,95,140.0
4178,G3,470.0,73/1000,95,140.0
4179,B-2,470.0,0.5,95,140.0
4180,D2,470.0,0.5,95,140.0
4181,D2,470.5,0.5,95,140.0
4182,B-2,470.5,0.5,95,140.0
4183,E4,470.5,0.5,95,140.0
4184,D4,470.5,0.5,95,140.0
4185,A3,470.5,0.5,95,140.0
4186,D3,470.5,0.5,95,140.0
4187,B-2,471.0,0.5,95,140.0
4188,E4,471.0,73/1000,95,140.0
4189,B3,471.0,73/1000,95,140.0
4190,G3,471.0,73/1000,95,140.0
4191,D2,471.5,0.5,95,140.0
4192,B-2,471.5,0.5,95,140.0
4193,F#4,471.5,0.5,95,140.0
4194,D4,471.5,0.5,95,140.0
4195,A3,471.5,0.5,95,140.0
4196,D3,471.5,0.5,95,140.0
4197,C3,472.0,0.25,95,140.0
4198,C2,472.0,0.5,95,140.0
4199,E4,472.0,0.5,95,140.0
4200,B3,472.0,0.5,95,140.0
4201,G3,472.0,0.5,95,140.0
4202,E3,472.0,0.5,95,140.0
4203,C3,472.0,0.5,95,140.0
4204,B-2,472.0,0.5,95,140.0
4205,C2,472.0,0.5,95,140.0
4206,C#3,472.0,0.5,95,140.0
4207,D3,472.25,0.25,95,140.0
4208,E3,472.5,0.25,95,140.0
4209,C2,472.5,0.5,95,140.0
4210,B-2,472.5,0.5,95,140.0
4211,E4,472.5,0.5,95,140.0
4212,B3,472.5,0.5,95,140.0
4213,G3,472.5,0.5,95,140.0
4214,E3,472.5,0.5,95,140.0
4215,C3,472.5,0.5,95,140.0
4216,G3,472.75,0.25,95,140.0
4217,A3,473.0,3.0,95,140.0
4218,B-2,473.0,0.5,95,140.0
4219,E4,473.0,73/1000,95,140.0
4220,B3,473.0,73/1000,95,140.0
4221,G3,473.0,73/1000,95,140.0
4222,C2,473.5,0.5,95,140.0
4223,B-2,473.5,0.5,95,140.0
4224,E4,473.5,0.5,95,140.0
4225,B3,473.5,0.5,95,140.0
4226,G3,473.5,0.5,95,140.0
4227,E3,473.5,0.5,95,140.0
4228,C3,473.5,0.5,95,140.0
4229,E4,474.0,73/1000,95,140.0
4230,B3,474.0,73/1000,95,140.0
4231,G3,474.0,73/1000,95,140.0
4232,B-2,474.0,0.5,95,140.0
4233,D2,474.0,0.5,95,140.0
4234,C2,474.5,0.5,95,140.0
4235,B-2,474.5,0.5,95,140.0
4236,E4,474.5,0.5,95,140.0
4237,B3,474.5,0.5,95,140.0
4238,G3,474.5,0.5,95,140.0
4239,E3,474.5,0.5,95,140.0
4240,C3,474.5,0.5,95,140.0
4241,B-2,475.0,0.5,95,140.0
4242,E4,475.0,73/1000,95,140.0
4243,B3,475.0,73/1000,95,140.0
4244,G3,475.0,73/1000,95,140.0
4245,C2,475.5,0.5,95,140.0
4246,B-2,475.5,0.5,95,140.0
4247,E4,475.5,0.5,95,140.0
4248,B3,475.5,0.5,95,140.0
4249,G3,475.5,0.5,95,140.0
4250,E3,475.5,0.5,95,140.0
4251,C3,475.5,0.5,95,140.0
4252,A3,476.0,4.0,95,140.0
4253,E4,476.0,73/1000,95,140.0
4254,B3,476.0,73/1000,95,140.0
4255,G3,476.0,73/1000,95,140.0
4256,B-2,476.0,0.5,95,140.0
4257,C2,476.0,0.5,95,140.0
4258,C#3,476.0,0.5,95,140.0
4259,C2,476.5,0.5,95,140.0
4260,B-2,476.5,0.5,95,140.0
4261,E4,476.5,0.5,95,140.0
4262,B3,476.5,0.5,95,140.0
4263,G3,476.5,0.5,95,140.0
4264,E3,476.5,0.5,95,140.0
4265,C3,476.5,0.5,95,140.0
4266,B-2,477.0,0.5,95,140.0
4267,E4,477.0,73/1000,95,140.0
4268,B3,477.0,73/1000,95,140.0
4269,G3,477.0,73/1000,95,140.0
4270,C2,477.5,0.5,95,140.0
4271,B-2,477.5,0.5,95,140.0
4272,E4,477.5,0.5,95,140.0
4273,B3,477.5,0.5,95,140.0
4274,G3,477.5,0.5,95,140.0
4275,E3,477.5,0.5,95,140.0
4276,C3,477.5,0.5,95,140.0
4277,E4,478.0,73/1000,95,140.0
4278,B3,478.0,73/1000,95,140.0
4279,G3,478.0,73/1000,95,140.0
4280,B-2,478.0,0.5,95,140.0
4281,D2,478.0,0.5,95,140.0
4282,C2,478.5,0.5,95,140.0
4283,B-2,478.5,0.5,95,140.0
4284,E4,478.5,0.5,95,140.0
4285,B3,478.5,0.5,95,140.0
4286,G3,478.5,0.5,95,140.0
4287,E3,478.5,0.5,95,140.0
4288,C3,478.5,0.5,95,140.0
4289,B-2,479.0,0.5,95,140.0
4290,E4,479.0,73/1000,95,140.0
4291,B3,479.0,73/1000,95,140.0
4292,G3,479.0,73/1000,95,140.0
4293,C2,479.5,0.5,95,140.0
4294,B-2,479.5,0.5,95,140.0
4295,E4,479.5,0.5,95,140.0
4296,B3,479.5,0.5,95,140.0
4297,G3,479.5,0.5,95,140.0
4298,E3,479.5,0.5,95,140.0
4299,C3,479.5,0.5,95,140.0
4300,D4,480.0,4.0,95,140.0
4301,G1,480.0,0.5,95,140.0
4302,E4,480.0,0.5,95,140.0
4303,B3,480.0,0.5,95,140.0
4304,G3,480.0,0.5,95,140.0
4305,D3,480.0,0.5,95,140.0
4306,B2,480.0,0.5,95,140.0
4307,G2,480.0,0.5,95,140.0
4308,B-2,480.0,0.5,95,140.0
4309,C2,480.0,0.5,95,140.0
4310,C#3,480.0,0.5,95,140.0
4311,G1,480.5,0.5,95,140.0
4312,B-2,480.5,0.5,95,140.0
4313,E4,480.5,0.5,95,140.0
4314,B3,480.5,0.5,95,140.0
4315,G3,480.5,0.5,95,140.0
4316,D3,480.5,0.5,95,140.0
4317,B2,480.5,0.5,95,140.0
4318,G2,480.5,0.5,95,140.0
4319,B-2,481.0,0.5,95,140.0
4320,E4,481.0,73/1000,95,140.0
4321,B3,481.0,73/1000,95,140.0
4322,G3,481.0,73/1000,95,140.0
4323,G1,481.5,0.5,95,140.0
4324,B-2,481.5,0.5,95,140.0
4325,E4,481.5,0.5,95,140.0
4326,B3,481.5,0.5,95,140.0
4327,G3,481.5,0.5,95,140.0
4328,D3,481.5,0.5,95,140.0
4329,B2,481.5,0.5,95,140.0
4330,G2,481.5,0.5,95,140.0
4331,E4,482.0,73/1000,95,140.0
4332,B3,482.0,73/1000,95,140.0
4333,G3,482.0,73/1000,95,140.0
4334,B-2,482.0,0.5,95,140.0
4335,D2,482.0,0.5,95,140.0
4336,G1,482.5,0.5,95,140.0
4337,B-2,482.5,0.5,95,140.0
4338,E4,482.5,0.5,95,140.0
4339,B3,482.5,0.5,95,140.0
4340,G3,482.5,0.5,95,140.0
4341,D3,482.5,0.5,95,140.0
4342,B2,482.5,0.5,95,140.0
4343,G2,482.5,0.5,95,140.0
4344,B-2,483.0,0.5,95,140.0
4345,E4,483.0,73/1000,95,140.0
4346,B3,483.0,73/1000,95,140.0
4347,G3,483.0,73/1000,95,140.0
4348,G1,483.5,0.5,95,140.0
4349,B-2,483.5,0.5,95,140.0
4350,E4,483.5,0.5,95,140.0
4351,B3,483.5,0.5,95,140.0
4352,G3,483.5,0.5,95,140.0
4353,D3,483.5,0.5,95,140.0
4354,B2,483.5,0.5,95,140.0
4355,G2,483.5,0.5,95,140.0
4356,D4,484.0,0.5,95,140.0
4357,B-1,484.0,0.5,95,140.0
4358,E4,484.0,73/1000,95,140.0
4359,B3,484.0,73/1000,95,140.0
4360,G3,484.0,73/1000,95,140.0
4361,B-2,484.0,0.5,95,140.0
4362,C2,484.0,0.5,95,140.0
4363,C#3,484.0,0.5,95,140.0
4364,D4,484.5,1.0,95,140.0
4365,B-1,484.5,0.5,95,140.0
4366,B-2,484.5,0.5,95,140.0
4367,G4,484.5,0.5,95,140.0
4368,D4,484.5,0.5,95,140.0
4369,B-3,484.5,0.5,95,140.0
4370,F3,484.5,0.5,95,140.0
4371,B-2,484.5,0.5,95,140.0
4372,B-2,485.0,0.5,95,140.0
4373,E4,485.0,73/1000,95,140.0
4374,B3,485.0,73/1000,95,140.0
4375,G3,485.0,73/1000,95,140.0
4376,D4,485.5,1.0,95,140.0
4377,B-1,485.5,0.5,95,140.0
4378,B-2,485.5,0.5,95,140.0
4379,G4,485.5,0.5,95,140.0
4380,D4,485.5,0.5,95,140.0
4381,B-3,485.5,0.5,95,140.0
4382,F3,485.5,0.5,95,140.0
4383,B-2,485.5,0.5,95,140.0
4384,E4,486.0,73/1000,95,140.0
4385,B3,486.0,73/1000,95,140.0
4386,G3,486.0,73/1000,95,140.0
4387,B-2,486.0,0.5,95,140.0
4388,D2,486.0,0.5,95,140.0
4389,D4,486.5,1.0,95,140.0
4390,B-1,486.5,0.5,95,140.0
4391,B-2,486.5,0.5,95,140.0
4392,G4,486.5,0.5,95,140.0
4393,D4,486.5,0.5,95,140.0
4394,B-3,486.5,0.5,95,140.0
4395,F3,486.5,0.5,95,140.0
4396,B-2,486.5,0.5,95,140.0
4397,B-2,487.0,0.5,95,140.0
4398,E4,487.0,73/1000,95,140.0
4399,B3,487.0,73/1000,95,140.0
4400,G3,487.0,73/1000,95,140.0
4401,D4,487.5,0.5,95,140.0
4402,B-1,487.5,0.5,95,140.0
4403,B-2,487.5,0.5,95,140.0
4404,G4,487.5,0.5,95,140.0
4405,D4,487.5,0.5,95,140.0
4406,B-3,487.5,0.5,95,140.0
4407,F3,487.5,0.5,95,140.0
4408,B-2,487.5,0.5,95,140.0
4409,G4,488.0,0.5,95,140.0
4410,A4,488.5,3.5,95,140.0
4411,G4,492.0,0.5,95,140.0
4412,D5,492.5,0.25,95,140.0
4413,A4,492.5,0.25,95,140.0
4414,D5,492.75,0.25,95,140.0
4415,A4,492.75,0.25,95,140.0
4416,D5,493.0,0.25,95,140.0
4417,A4,493.0,0.25,95,140.0
4418,D5,493.25,0.5,95,140.0
4419,A4,493.25,0.5,95,140.0
4420,G4,493.75,0.5,95,140.0
4421,D5,494.25,0.25,95,140.0
4422,A4,494.25,0.25,95,140.0
4423,D5,494.5,0.25,95,140.0
4424,A4,494.5,0.25,95,140.0
4425,D5,494.75,0.25,95,140.0
4426,A4,494.75,0.25,95,140.0
4427,D5,495.0,0.25,95,140.0
4428,A4,495.0,0.25,95,140.0
4429,C5,495.25,0.75,95,140.0
4430,F5,496.0,0.5,95,140.0
4431,D5,496.5,0.5,95,140.0
4432,C5,497.0,0.25,95,140.0
4433,A4,497.25,0.25,95,140.0
4434,G4,497.5,2.0,95,140.0
4435,A4,499.5,0.5,95,140.0
4436,G4,500.0,0.5,95,140.0
4437,F4,500.5,0.5,95,140.0
4438,D4,501.0,0.5,95,140.0
4439,D4,501.5,0.5,95,140.0
4440,C4,502.0,1.0,95,140.0
4441,D4,503.0,1.0,95,140.0
4442,D3,504.0,0.25,95,140.0
4443,E3,504.25,0.25,95,140.0
4444,G3,504.5,0.25,95,140.0
4445,A3,504.75,0.25,95,140.0
4446,C4,505.0,0.25,95,140.0
4447,D4,505.25,0.25,95,140.0
4448,F4,505.5,0.25,95,140.0
4449,G4,505.75,0.25,95,140.0
4450,A4,506.0,0.25,95,140.0
4451,C5,506.25,1.0,95,140.0
4452,F5,507.25,0.5,95,140.0
4453,D5,507.75,0.25,95,140.0
4454,F5,508.0,0.25,95,140.0
4455,D5,508.25,0.25,95,140.0
4456,C5,508.5,0.25,95,140.0
4457,A4,508.75,0.25,95,140.0
4458,F5,509.0,0.25,95,140.0
4459,D5,509.25,0.25,95,140.0
4460,C5,509.5,0.25,95,140.0
4461,A4,509.75,0.25,95,140.0
4462,F5,510.0,0.25,95,140.0
4463,D5,510.25,0.25,95,140.0
4464,C5,510.5,0.25,95,140.0
4465,A4,510.75,0.25,95,140.0
4466,F5,511.0,0.25,95,140.0
4467,D5,511.25,0.25,95,140.0
4468,C5,511.5,0.25,95,140.0
4469,A4,511.75,0.25,95,140.0
4470,F5,512.0,0.25,95,140.0
4471,D5,512.25,0.25,95,140.0
4472,C5,512.5,0.25,95,140.0
4473,A4,512.75,0.25,95,140.0
4474,F5,513.0,0.25,95,140.0
4475,D5,513.25,0.25,95,140.0
4476,C5,513.5,0.25,95,140.0
4477,A4,513.75,0.25,95,140.0
4478,F5,514.0,0.25,95,140.0
4479,D5,514.25,0.25,95,140.0
4480,C5,514.5,0.25,95,140.0
4481,A4,514.75,0.25,95,140.0
4482,F5,515.0,0.25,95,140.0
4483,D5,515.25,0.25,95,140.0
4484,C5,515.5,0.25,95,140.0
4485,A4,515.75,0.25,95,140.0
4486,D5,516.0,0.5,95,140.0
4487,D5,516.5,1.0,95,140.0
4488,D5,517.5,1.0,95,140.0
4489,D5,518.5,1.0,95,140.0
4490,D5,519.5,0.5,95,140.0
4491,D5,520.0,167/1000,95,140.0
4492,E5,520.167,167/1000,70,140.0
4493,F5,520.333,167/1000,95,140.0
4494,D5,520.5,167/1000,95,140.0
4495,E5,520.667,167/1000,70,140.0
4496,F5,520.833,167/1000,95,140.0
4497,D5,521.0,167/1000,95,140.0
4498,E5,521.167,167/1000,70,140.0
4499,F5,521.333,167/1000,95,140.0
4500,D5,521.5,167/1000,95,140.0
4501,E5,521.667,167/1000,70,140.0
4502,F5,521.833,167/1000,95,140.0
4503,D5,522.0,167/1000,95,140.0
4504,E5,522.167,167/1000,70,140.0
4505,F5,522.333,167/1000,95,140.0
4506,D5,522.5,167/1000,95,140.0
4507,E5,522.667,167/1000,70,140.0
4508,F5,522.833,167/1000,95,140.0
4509,D5,523.0,167/1000,95,140.0
4510,E5,523.167,167/1000,70,140.0
4511,F5,523.333,167/1000,95,140.0
4512,D5,523.5,167/1000,95,140.0
4513,E5,523.667,167/1000,70,140.0
4514,F5,523.833,167/1000,95,140.0
4515,A4,524.0,167/1000,95,140.0
4516,C5,524.167,167/1000,95,140.0
4517,D5,524.333,167/1000,95,140.0
4518,A4,524.5,167/1000,95,140.0
4519,C5,524.667,167/1000,95,140.0
4520,D5,524.833,167/1000,95,140.0
4521,A4,525.0,167/1000,95,140.0
4522,C5,525.167,167/1000,95,140.0
4523,D5,525.333,167/1000,95,140.0
4524,F4,525.5,167/1000,95,140.0
4525,G4,525.667,167/1000,95,140.0
4526,A4,525.833,167/1000,95,140.0
4527,F4,526.0,167/1000,95,140.0
4528,G4,526.167,167/1000,95,140.0
4529,A4,526.333,167/1000,95,140.0
4530,F4,526.5,167/1000,95,140.0
4531,G4,526.667,167/1000,95,140.0
4532,A4,526.833,167/1000,95,140.0
4533,F4,527.0,167/1000,95,140.0
4534,G4,527.167,167/1000,95,140.0
4535,A4,527.333,167/1000,95,140.0
4536,C4,527.5,167/1000,95,140.0
4537,D4,527.667,167/1000,95,140.0
4538,E4,527.833,167/1000,95,140.0
4539,C4,528.0,167/1000,95,140.0
4540,D4,528.167,167/1000,95,140.0
4541,E4,528.333,167/1000,95,140.0
4542,C4,528.5,167/1000,95,140.0
4543,D4,528.667,167/1000,95,140.0
4544,E4,528.833,167/1000,95,140.0
4545,C4,529.0,167/1000,95,140.0
4546,D4,529.167,167/1000,95,140.0
4547,E4,529.333,167/1000,95,140.0
4548,G3,529.5,167/1000,95,140.0
4549,A3,529.667,167/1000,95,140.0
4550,B3,529.833,167/1000,95,140.0
4551,G3,530.0,167/1000,95,140.0
4552,A3,530.167,167/1000,95,140.0
4553,B3,530.333,167/1000,95,140.0
4554,G3,530.5,167/1000,95,140.0
4555,A3,530.667,167/1000,95,140.0
4556,B3,530.833,167/1000,95,140.0
4557,G3,531.0,167/1000,95,140.0
4558,A3,531.167,167/1000,95,140.0
4559,B3,531.333,167/1000,95,140.0
