,note_name,start_time,duration,velocity,tempo
0,F4,1.0,1.0,95,240.0
1,G4,2.0,1.0,95,240.0
2,A4,3.0,1.0,95,240.0
3,B-4,4.0,0.25,95,240.0
4,A4,4.25,0.25,95,240.0
5,G#4,4.5,0.25,95,240.0
6,G4,4.75,0.25,95,240.0
7,F4,5.0,0.25,95,240.0
8,E4,5.25,0.25,95,240.0
9,E-4,5.5,0.25,95,240.0
10,D4,5.75,0.25,95,240.0
11,G4,6.0,333/1000,95,240.0
12,F#4,6.333,333/1000,95,240.0
13,F4,6.667,333/1000,95,240.0
14,D4,7.0,333/1000,95,240.0
15,C#4,7.333,333/1000,95,240.0
16,C4,7.667,333/1000,95,240.0
17,B-3,8.0,333/1000,95,240.0
18,A3,8.333,333/1000,95,240.0
19,G3,8.667,333/1000,95,240.0
20,F3,9.0,333/1000,95,240.0
21,E3,9.333,333/1000,95,240.0
22,D3,9.667,333/1000,95,240.0
23,B-2,10.0,2.0,95,240.0
24,D4,12.0,4.0,95,240.0
25,B-3,12.0,4.0,95,240.0
26,E3,12.0,4.0,95,240.0
27,C3,12.0,4.0,95,240.0
28,C4,16.0,4.0,95,240.0
29,A3,16.0,4.0,95,240.0
30,F3,16.0,4.0,95,240.0
31,C3,16.0,4.0,95,240.0
32,D3,20.0,667/1000,95,240.0
33,B-2,20.0,1.0,95,240.0
34,B-3,20.667,333/1000,95,240.0
35,G4,21.0,667/1000,95,240.0
36,F4,21.0,1.0,95,240.0
37,D4,21.0,1.0,95,240.0
38,B-3,21.0,1.0,95,240.0
39,D3,21.667,333/1000,95,240.0
40,B-3,22.0,667/1000,95,240.0
41,B-2,22.0,1.0,95,240.0
42,F4,22.667,333/1000,95,240.0
43,D3,23.0,667/1000,95,240.0
44,F4,23.0,1.0,95,240.0
45,D4,23.0,1.0,95,240.0
46,B-3,23.0,1.0,95,240.0
47,B-3,23.667,333/1000,95,240.0
48,D4,24.0,667/1000,95,240.0
49,B-2,24.0,1.0,95,240.0
50,D3,24.667,333/1000,95,240.0
51,B-3,25.0,667/1000,95,240.0
52,F4,25.0,1.0,95,240.0
53,D4,25.0,1.0,95,240.0
54,B-3,25.0,1.0,95,240.0
55,G3,25.667,333/1000,95,240.0
56,D3,26.0,667/1000,95,240.0
57,B-2,26.0,1.0,95,240.0
58,B-3,26.667,333/1000,95,240.0
59,D4,27.0,1.0,95,240.0
60,F4,27.0,1.0,95,240.0
61,D4,27.0,1.0,95,240.0
62,B-3,27.0,1.0,95,240.0
63,D3,28.0,667/1000,95,240.0
64,B-2,28.0,1.0,95,240.0
65,B-3,28.667,333/1000,95,240.0
66,G4,29.0,667/1000,95,240.0
67,F4,29.0,1.0,95,240.0
68,D4,29.0,1.0,95,240.0
69,B-3,29.0,1.0,95,240.0
70,D3,29.667,333/1000,95,240.0
71,B-3,30.0,667/1000,95,240.0
72,B-2,30.0,1.0,95,240.0
73,F4,30.667,333/1000,95,240.0
74,D3,31.0,667/1000,95,240.0
75,F4,31.0,1.0,95,240.0
76,D4,31.0,1.0,95,240.0
77,B-3,31.0,1.0,95,240.0
78,B-3,31.667,333/1000,95,240.0
79,D4,32.0,667/1000,95,240.0
80,B-2,32.0,1.0,95,240.0
81,D3,32.667,333/1000,95,240.0
82,B-3,33.0,667/1000,95,240.0
83,F4,33.0,1.0,95,240.0
84,D4,33.0,1.0,95,240.0
85,B-3,33.0,1.0,95,240.0
86,G3,33.667,333/1000,95,240.0
87,D3,34.0,667/1000,95,240.0
88,B-2,34.0,1.0,95,240.0
89,B-3,34.667,333/1000,95,240.0
90,D4,35.0,1.0,95,240.0
91,F4,35.0,1.0,95,240.0
92,D4,35.0,1.0,95,240.0
93,B-3,35.0,1.0,95,240.0
94,D3,36.0,667/1000,95,240.0
95,F3,36.0,1.0,95,240.0
96,A3,36.667,333/1000,95,240.0
97,G4,37.0,667/1000,95,240.0
98,G4,37.0,1.0,95,240.0
99,E-4,37.0,1.0,95,240.0
100,A3,37.0,1.0,95,240.0
101,D3,37.667,333/1000,95,240.0
102,A3,38.0,667/1000,95,240.0
103,F3,38.0,1.0,95,240.0
104,F4,38.667,333/1000,95,240.0
105,D3,39.0,667/1000,95,240.0
106,G4,39.0,1.0,95,240.0
107,E-4,39.0,1.0,95,240.0
108,A3,39.0,1.0,95,240.0
109,A3,39.667,333/1000,95,240.0
110,D4,40.0,667/1000,95,240.0
111,F3,40.0,1.0,95,240.0
112,D3,40.667,333/1000,95,240.0
113,A3,41.0,667/1000,95,240.0
114,G4,41.0,1.0,95,240.0
115,E-4,41.0,1.0,95,240.0
116,A3,41.0,1.0,95,240.0
117,G3,41.667,333/1000,95,240.0
118,D3,42.0,667/1000,95,240.0
119,F3,42.0,1.0,95,240.0
120,A3,42.667,333/1000,95,240.0
121,D4,43.0,1.0,95,240.0
122,G4,43.0,1.0,95,240.0
123,E-4,43.0,1.0,95,240.0
124,A3,43.0,1.0,95,240.0
125,B-3,44.0,333/1000,95,240.0
126,B-2,44.0,1.0,95,240.0
127,A3,44.333,333/1000,95,240.0
128,G3,44.667,333/1000,95,240.0
129,F3,45.0,333/1000,95,240.0
130,F4,45.0,1.0,95,240.0
131,D4,45.0,1.0,95,240.0
132,B-3,45.0,1.0,95,240.0
133,E3,45.333,333/1000,95,240.0
134,D3,45.667,333/1000,95,240.0
135,B-3,46.0,333/1000,95,240.0
136,B-2,46.0,1.0,95,240.0
137,A3,46.333,333/1000,95,240.0
138,G3,46.667,333/1000,95,240.0
139,F3,47.0,333/1000,95,240.0
140,F4,47.0,1.0,95,240.0
141,D4,47.0,1.0,95,240.0
142,B-3,47.0,1.0,95,240.0
143,E3,47.333,333/1000,95,240.0
144,D3,47.667,333/1000,95,240.0
145,B-3,48.0,333/1000,95,240.0
146,B-2,48.0,1.0,95,240.0
147,A3,48.333,333/1000,95,240.0
148,G3,48.667,333/1000,95,240.0
149,F3,49.0,333/1000,95,240.0
150,F4,49.0,1.0,95,240.0
151,D4,49.0,1.0,95,240.0
152,B-3,49.0,1.0,95,240.0
153,E3,49.333,333/1000,95,240.0
154,D3,49.667,333/1000,95,240.0
155,B-3,50.0,2.0,95,240.0
156,B-2,50.0,1.0,95,240.0
157,F4,51.0,1.0,95,240.0
158,D4,51.0,1.0,95,240.0
159,B-3,51.0,1.0,95,240.0
160,D3,52.0,667/1000,95,240.0
161,B-2,52.0,1.0,95,240.0
162,B-3,52.667,333/1000,95,240.0
163,G4,53.0,667/1000,95,240.0
164,F4,53.0,1.0,95,240.0
165,D4,53.0,1.0,95,240.0
166,B-3,53.0,1.0,95,240.0
167,D3,53.667,333/1000,95,240.0
168,B-3,54.0,667/1000,95,240.0
169,B-2,54.0,1.0,95,240.0
170,F4,54.667,333/1000,95,240.0
171,D3,55.0,667/1000,95,240.0
172,F4,55.0,1.0,95,240.0
173,D4,55.0,1.0,95,240.0
174,B-3,55.0,1.0,95,240.0
175,B-3,55.667,333/1000,95,240.0
176,D4,56.0,667/1000,95,240.0
177,B-2,56.0,1.0,95,240.0
178,D3,56.667,333/1000,95,240.0
179,B-3,57.0,667/1000,95,240.0
180,F4,57.0,1.0,95,240.0
181,D4,57.0,1.0,95,240.0
182,B-3,57.0,1.0,95,240.0
183,G3,57.667,333/1000,95,240.0
184,D3,58.0,667/1000,95,240.0
185,B-2,58.0,1.0,95,240.0
186,B-3,58.667,333/1000,95,240.0
187,D4,59.0,1.0,95,240.0
188,F4,59.0,1.0,95,240.0
189,D4,59.0,1.0,95,240.0
190,B-3,59.0,1.0,95,240.0
191,D3,60.0,667/1000,95,240.0
192,B-2,60.0,1.0,95,240.0
193,B-3,60.667,333/1000,95,240.0
194,G4,61.0,667/1000,95,240.0
195,F4,61.0,1.0,95,240.0
196,D4,61.0,1.0,95,240.0
197,B-3,61.0,1.0,95,240.0
198,D3,61.667,333/1000,95,240.0
199,B-3,62.0,667/1000,95,240.0
200,B-2,62.0,1.0,95,240.0
201,F4,62.667,333/1000,95,240.0
202,D3,63.0,667/1000,95,240.0
203,F4,63.0,1.0,95,240.0
204,D4,63.0,1.0,95,240.0
205,B-3,63.0,1.0,95,240.0
206,B-3,63.667,333/1000,95,240.0
207,D4,64.0,667/1000,95,240.0
208,B-2,64.0,1.0,95,240.0
209,D3,64.667,333/1000,95,240.0
210,B-3,65.0,667/1000,95,240.0
211,F4,65.0,1.0,95,240.0
212,D4,65.0,1.0,95,240.0
213,B-3,65.0,1.0,95,240.0
214,G3,65.667,333/1000,95,240.0
215,D3,66.0,667/1000,95,240.0
216,B-2,66.0,1.0,95,240.0
217,B-3,66.667,333/1000,95,240.0
218,D4,67.0,1.0,95,240.0
219,F4,67.0,1.0,95,240.0
220,D4,67.0,1.0,95,240.0
221,B-3,67.0,1.0,95,240.0
222,D3,68.0,667/1000,95,240.0
223,F3,68.0,1.0,95,240.0
224,A3,68.667,333/1000,95,240.0
225,G4,69.0,667/1000,95,240.0
226,G4,69.0,1.0,95,240.0
227,E-4,69.0,1.0,95,240.0
228,A3,69.0,1.0,95,240.0
229,D3,69.667,333/1000,95,240.0
230,A3,70.0,667/1000,95,240.0
231,F3,70.0,1.0,95,240.0
232,F4,70.667,333/1000,95,240.0
233,D3,71.0,667/1000,95,240.0
234,G4,71.0,1.0,95,240.0
235,E-4,71.0,1.0,95,240.0
236,A3,71.0,1.0,95,240.0
237,A3,71.667,333/1000,95,240.0
238,D4,72.0,667/1000,95,240.0
239,F3,72.0,1.0,95,240.0
240,D3,72.667,333/1000,95,240.0
241,A3,73.0,667/1000,95,240.0
242,G4,73.0,1.0,95,240.0
243,E-4,73.0,1.0,95,240.0
244,A3,73.0,1.0,95,240.0
245,G3,73.667,333/1000,95,240.0
246,D3,74.0,667/1000,95,240.0
247,F3,74.0,1.0,95,240.0
248,A3,74.667,333/1000,95,240.0
249,D4,75.0,1.0,95,240.0
250,G4,75.0,1.0,95,240.0
251,E-4,75.0,1.0,95,240.0
252,A3,75.0,1.0,95,240.0
253,B-3,76.0,333/1000,95,240.0
254,B-2,76.0,1.0,95,240.0
255,A3,76.333,333/1000,95,240.0
256,G3,76.667,333/1000,95,240.0
257,F3,77.0,333/1000,95,240.0
258,F4,77.0,1.0,95,240.0
259,D4,77.0,1.0,95,240.0
260,B-3,77.0,1.0,95,240.0
261,E3,77.333,333/1000,95,240.0
262,D3,77.667,333/1000,95,240.0
263,B-3,78.0,333/1000,95,240.0
264,B-2,78.0,1.0,95,240.0
265,A3,78.333,333/1000,95,240.0
266,G3,78.667,333/1000,95,240.0
267,F3,79.0,333/1000,95,240.0
268,F4,79.0,1.0,95,240.0
269,D4,79.0,1.0,95,240.0
270,B-3,79.0,1.0,95,240.0
271,E3,79.333,333/1000,95,240.0
272,D3,79.667,333/1000,95,240.0
273,B-3,80.0,333/1000,95,240.0
274,B-2,80.0,1.0,95,240.0
275,A3,80.333,333/1000,95,240.0
276,G3,80.667,333/1000,95,240.0
277,F3,81.0,333/1000,95,240.0
278,F4,81.0,1.0,95,240.0
279,D4,81.0,1.0,95,240.0
280,B-3,81.0,1.0,95,240.0
281,E3,81.333,333/1000,95,240.0
282,D3,81.667,333/1000,95,240.0
283,B-3,82.0,1.0,95,240.0
284,B-2,82.0,1.0,95,240.0
285,G3,83.0,1.0,95,240.0
286,F4,83.0,1.0,95,240.0
287,D4,83.0,1.0,95,240.0
288,B-3,83.0,1.0,95,240.0
289,G2,84.0,1.0,95,240.0
290,B4,84.0,1.0,95,240.0
291,G4,84.0,1.0,95,240.0
292,G3,85.0,1.0,95,240.0
293,D4,85.0,1.0,95,240.0
294,B3,85.0,1.0,95,240.0
295,F3,85.0,1.0,95,240.0
296,G2,86.0,1.0,95,240.0
297,A4,86.0,1.0,95,240.0
298,F4,86.0,1.0,95,240.0
299,G3,87.0,1.0,95,240.0
300,D4,87.0,1.0,95,240.0
301,B3,87.0,1.0,95,240.0
302,F3,87.0,1.0,95,240.0
303,G2,88.0,1.0,95,240.0
304,B4,88.0,1.0,95,240.0
305,G4,88.0,1.0,95,240.0
306,G3,89.0,1.0,95,240.0
307,D4,89.0,1.0,95,240.0
308,B3,89.0,1.0,95,240.0
309,F3,89.0,1.0,95,240.0
310,G2,90.0,1.0,95,240.0
311,A4,90.0,1.0,95,240.0
312,F4,90.0,1.0,95,240.0
313,G3,91.0,1.0,95,240.0
314,D4,91.0,1.0,95,240.0
315,B3,91.0,1.0,95,240.0
316,F3,91.0,1.0,95,240.0
317,G2,92.0,1.0,95,240.0
318,F4,92.0,4.0,95,240.0
319,D4,92.0,4.0,95,240.0
320,D4,93.0,1.0,95,240.0
321,B3,93.0,1.0,95,240.0
322,F3,93.0,1.0,95,240.0
323,G2,94.0,1.0,95,240.0
324,D4,95.0,1.0,95,240.0
325,B3,95.0,1.0,95,240.0
326,F3,95.0,1.0,95,240.0
327,G2,96.0,1.0,95,240.0
328,G3,97.0,667/1000,95,240.0
329,D4,97.0,1.0,95,240.0
330,B3,97.0,1.0,95,240.0
331,F3,97.0,1.0,95,240.0
332,G3,97.667,333/1000,95,240.0
333,G3,98.0,333/1000,95,240.0
334,G2,98.0,1.0,95,240.0
335,G3,98.333,333/1000,95,240.0
336,G3,98.667,333/1000,95,240.0
337,G3,99.0,333/1000,95,240.0
338,D4,99.0,1.0,95,240.0
339,B3,99.0,1.0,95,240.0
340,F3,99.0,1.0,95,240.0
341,G3,99.333,333/1000,95,240.0
342,G3,99.667,333/1000,95,240.0
343,C3,100.0,1.0,95,240.0
344,B-4,100.0,1.0,95,240.0
345,G4,100.0,1.0,95,240.0
346,G3,101.0,1.0,95,240.0
347,C4,101.0,1.0,95,240.0
348,B-3,101.0,1.0,95,240.0
349,E3,101.0,1.0,95,240.0
350,C3,102.0,1.0,95,240.0
351,G4,102.0,1.0,95,240.0
352,E4,102.0,1.0,95,240.0
353,G3,103.0,1.0,95,240.0
354,C4,103.0,1.0,95,240.0
355,B-3,103.0,1.0,95,240.0
356,E3,103.0,1.0,95,240.0
357,C3,104.0,1.0,95,240.0
358,B-4,104.0,1.0,95,240.0
359,G4,104.0,1.0,95,240.0
360,G3,105.0,1.0,95,240.0
361,C4,105.0,1.0,95,240.0
362,B-3,105.0,1.0,95,240.0
363,E3,105.0,1.0,95,240.0
364,C3,106.0,1.0,95,240.0
365,G4,106.0,1.0,95,240.0
366,E4,106.0,1.0,95,240.0
367,G3,107.0,1.0,95,240.0
368,C4,107.0,1.0,95,240.0
369,B-3,107.0,1.0,95,240.0
370,E3,107.0,1.0,95,240.0
371,F2,108.0,1.0,95,240.0
372,G4,108.0,4.0,95,240.0
373,E-4,108.0,4.0,95,240.0
374,C4,109.0,1.0,95,240.0
375,A3,109.0,1.0,95,240.0
376,E-3,109.0,1.0,95,240.0
377,F2,110.0,1.0,95,240.0
378,C4,111.0,1.0,95,240.0
379,A3,111.0,1.0,95,240.0
380,E-3,111.0,1.0,95,240.0
381,F2,112.0,1.0,95,240.0
382,F4,112.0,4.0,95,240.0
383,A3,112.0,4.0,95,240.0
384,C4,113.0,1.0,95,240.0
385,A3,113.0,1.0,95,240.0
386,E-3,113.0,1.0,95,240.0
387,F2,114.0,1.0,95,240.0
388,C4,115.0,1.0,95,240.0
389,A3,115.0,1.0,95,240.0
390,E-3,115.0,1.0,95,240.0
391,D3,116.0,667/1000,95,240.0
392,B-2,116.0,1.0,95,240.0
393,B-3,116.667,333/1000,95,240.0
394,G4,117.0,667/1000,95,240.0
395,F4,117.0,1.0,95,240.0
396,D4,117.0,1.0,95,240.0
397,B-3,117.0,1.0,95,240.0
398,D3,117.667,333/1000,95,240.0
399,B-3,118.0,667/1000,95,240.0
400,B-2,118.0,1.0,95,240.0
401,F4,118.667,333/1000,95,240.0
402,D3,119.0,667/1000,95,240.0
403,F4,119.0,1.0,95,240.0
404,D4,119.0,1.0,95,240.0
405,B-3,119.0,1.0,95,240.0
406,B-3,119.667,333/1000,95,240.0
407,D4,120.0,667/1000,95,240.0
408,B-2,120.0,1.0,95,240.0
409,D3,120.667,333/1000,95,240.0
410,B-3,121.0,667/1000,95,240.0
411,F4,121.0,1.0,95,240.0
412,D4,121.0,1.0,95,240.0
413,B-3,121.0,1.0,95,240.0
414,G3,121.667,333/1000,95,240.0
415,D3,122.0,667/1000,95,240.0
416,B-2,122.0,1.0,95,240.0
417,B-3,122.667,333/1000,95,240.0
418,D4,123.0,1.0,95,240.0
419,F4,123.0,1.0,95,240.0
420,D4,123.0,1.0,95,240.0
421,B-3,123.0,1.0,95,240.0
422,D3,124.0,667/1000,95,240.0
423,B-2,124.0,1.0,95,240.0
424,B-3,124.667,333/1000,95,240.0
425,G4,125.0,667/1000,95,240.0
426,F4,125.0,1.0,95,240.0
427,D4,125.0,1.0,95,240.0
428,B-3,125.0,1.0,95,240.0
429,D3,125.667,333/1000,95,240.0
430,B-3,126.0,667/1000,95,240.0
431,B-2,126.0,1.0,95,240.0
432,F4,126.667,333/1000,95,240.0
433,D3,127.0,667/1000,95,240.0
434,F4,127.0,1.0,95,240.0
435,D4,127.0,1.0,95,240.0
436,B-3,127.0,1.0,95,240.0
437,B-3,127.667,333/1000,95,240.0
438,D4,128.0,667/1000,95,240.0
439,B-2,128.0,1.0,95,240.0
440,D3,128.667,333/1000,95,240.0
441,B-3,129.0,667/1000,95,240.0
442,F4,129.0,1.0,95,240.0
443,D4,129.0,1.0,95,240.0
444,B-3,129.0,1.0,95,240.0
445,G3,129.667,333/1000,95,240.0
446,D3,130.0,667/1000,95,240.0
447,B-2,130.0,1.0,95,240.0
448,B-3,130.667,333/1000,95,240.0
449,D4,131.0,1.0,95,240.0
450,F4,131.0,1.0,95,240.0
451,D4,131.0,1.0,95,240.0
452,B-3,131.0,1.0,95,240.0
453,D3,132.0,667/1000,95,240.0
454,F3,132.0,1.0,95,240.0
455,A3,132.667,333/1000,95,240.0
456,G4,133.0,667/1000,95,240.0
457,G4,133.0,1.0,95,240.0
458,E-4,133.0,1.0,95,240.0
459,A3,133.0,1.0,95,240.0
460,D3,133.667,333/1000,95,240.0
461,A3,134.0,667/1000,95,240.0
462,F3,134.0,1.0,95,240.0
463,F4,134.667,333/1000,95,240.0
464,D3,135.0,667/1000,95,240.0
465,G4,135.0,1.0,95,240.0
466,E-4,135.0,1.0,95,240.0
467,A3,135.0,1.0,95,240.0
468,A3,135.667,333/1000,95,240.0
469,D4,136.0,667/1000,95,240.0
470,F3,136.0,1.0,95,240.0
471,D3,136.667,333/1000,95,240.0
472,A3,137.0,667/1000,95,240.0
473,G4,137.0,1.0,95,240.0
474,E-4,137.0,1.0,95,240.0
475,A3,137.0,1.0,95,240.0
476,G3,137.667,333/1000,95,240.0
477,D3,138.0,667/1000,95,240.0
478,F3,138.0,1.0,95,240.0
479,A3,138.667,333/1000,95,240.0
480,D4,139.0,1.0,95,240.0
481,G4,139.0,1.0,95,240.0
482,E-4,139.0,1.0,95,240.0
483,A3,139.0,1.0,95,240.0
484,B-3,140.0,333/1000,95,240.0
485,B-2,140.0,1.0,95,240.0
486,A3,140.333,333/1000,95,240.0
487,G3,140.667,333/1000,95,240.0
488,F3,141.0,333/1000,95,240.0
489,F4,141.0,1.0,95,240.0
490,D4,141.0,1.0,95,240.0
491,B-3,141.0,1.0,95,240.0
492,E3,141.333,333/1000,95,240.0
493,D3,141.667,333/1000,95,240.0
494,B-3,142.0,333/1000,95,240.0
495,B-2,142.0,1.0,95,240.0
496,A3,142.333,333/1000,95,240.0
497,G3,142.667,333/1000,95,240.0
498,F3,143.0,333/1000,95,240.0
499,F4,143.0,1.0,95,240.0
500,D4,143.0,1.0,95,240.0
501,B-3,143.0,1.0,95,240.0
502,E3,143.333,333/1000,95,240.0
503,D3,143.667,333/1000,95,240.0
504,B-3,144.0,333/1000,95,240.0
505,B-2,144.0,1.0,95,240.0
506,A3,144.333,333/1000,95,240.0
507,G3,144.667,333/1000,95,240.0
508,F3,145.0,333/1000,95,240.0
509,F4,145.0,1.0,95,240.0
510,D4,145.0,1.0,95,240.0
511,B-3,145.0,1.0,95,240.0
512,E3,145.333,333/1000,95,240.0
513,D3,145.667,333/1000,95,240.0
514,B-3,146.0,333/1000,95,240.0
515,B-2,146.0,1.0,95,240.0
516,A3,146.333,333/1000,95,240.0
517,G3,146.667,333/1000,95,240.0
518,F3,147.0,333/1000,95,240.0
519,F4,147.0,1.0,95,240.0
520,D4,147.0,1.0,95,240.0
521,B-3,147.0,1.0,95,240.0
522,E3,147.333,333/1000,95,240.0
523,D3,147.667,333/1000,95,240.0
524,B-3,148.0,333/1000,95,240.0
525,B-2,148.0,1.0,95,240.0
526,A3,148.333,333/1000,95,240.0
527,G3,148.667,333/1000,95,240.0
528,F3,149.0,333/1000,95,240.0
529,F4,149.0,1.0,95,240.0
530,D4,149.0,1.0,95,240.0
531,B-3,149.0,1.0,95,240.0
532,E3,149.333,333/1000,95,240.0
533,D3,149.667,333/1000,95,240.0
534,B-3,150.0,333/1000,95,240.0
535,B-2,150.0,1.0,95,240.0
536,A3,150.333,333/1000,95,240.0
537,G3,150.667,333/1000,95,240.0
538,F3,151.0,333/1000,95,240.0
539,F4,151.0,1.0,95,240.0
540,D4,151.0,1.0,95,240.0
541,B-3,151.0,1.0,95,240.0
542,E3,151.333,333/1000,95,240.0
543,D3,151.667,333/1000,95,240.0
544,B-3,152.0,333/1000,95,240.0
545,B-2,152.0,1.0,95,240.0
546,A3,152.333,333/1000,95,240.0
547,G3,152.667,333/1000,95,240.0
548,F3,153.0,333/1000,95,240.0
549,F4,153.0,1.0,95,240.0
550,D4,153.0,1.0,95,240.0
551,B-3,153.0,1.0,95,240.0
552,E3,153.333,333/1000,95,240.0
553,D3,153.667,333/1000,95,240.0
554,B-3,154.0,333/1000,95,240.0
555,B-2,154.0,1.0,95,240.0
556,A3,154.333,333/1000,95,240.0
557,G3,154.667,333/1000,95,240.0
558,F3,155.0,333/1000,95,240.0
559,F4,155.0,1.0,95,240.0
560,D4,155.0,1.0,95,240.0
561,B-3,155.0,1.0,95,240.0
562,E3,155.333,333/1000,95,240.0
563,D3,155.667,333/1000,95,240.0
564,B-3,156.0,1.0,95,240.0
565,B-2,156.0,1.0,95,240.0
566,C4,157.0,1.0,95,240.0
567,F4,157.0,1.0,95,240.0
568,D4,157.0,1.0,95,240.0
569,B-3,157.0,1.0,95,240.0
570,C#4,158.0,1.0,95,240.0
571,B-2,158.0,1.0,95,240.0
572,B-3,159.0,1.0,95,240.0
573,F4,159.0,1.0,95,240.0
574,D4,159.0,1.0,95,240.0
575,B-3,159.0,1.0,95,240.0
576,C4,160.0,1.0,95,240.0
577,B-2,160.0,1.0,95,240.0
578,B-3,161.0,1.0,95,240.0
579,F4,161.0,1.0,95,240.0
580,D4,161.0,1.0,95,240.0
581,B-3,161.0,1.0,95,240.0
582,G3,162.0,1.0,95,240.0
583,B-2,162.0,1.0,95,240.0
584,F3,163.0,1.0,95,240.0
585,F4,163.0,1.0,95,240.0
586,D4,163.0,1.0,95,240.0
587,B-3,163.0,1.0,95,240.0
588,G4,164.0,667/1000,95,240.0
589,F3,164.0,1.0,95,240.0
590,F#4,164.667,333/1000,95,240.0
591,F4,165.0,667/1000,95,240.0
592,G4,165.0,1.0,95,240.0
593,E-4,165.0,1.0,95,240.0
594,A3,165.0,1.0,95,240.0
595,E-4,165.667,333/1000,95,240.0
596,D4,166.0,667/1000,95,240.0
597,F3,166.0,1.0,95,240.0
598,C#4,166.667,333/1000,95,240.0
599,A4,167.0,667/1000,95,240.0
600,G4,167.0,1.0,95,240.0
601,E-4,167.0,1.0,95,240.0
602,A3,167.0,1.0,95,240.0
603,G#4,167.667,333/1000,95,240.0
604,G4,168.0,1.0,95,240.0
605,F3,168.0,1.0,95,240.0
606,F4,169.0,667/1000,95,240.0
607,G4,169.0,1.0,95,240.0
608,E-4,169.0,1.0,95,240.0
609,A3,169.0,1.0,95,240.0
610,E4,169.667,333/1000,95,240.0
611,E-4,170.0,1.0,95,240.0
612,F3,170.0,1.0,95,240.0
613,G4,171.0,1.0,95,240.0
614,E-4,171.0,1.0,95,240.0
615,A3,171.0,1.0,95,240.0
616,A3,171.667,333/1000,95,240.0
617,D4,172.0,667/1000,95,240.0
618,B-2,172.0,1.0,95,240.0
619,F4,172.667,333/1000,95,240.0
620,G4,173.0,1.0,95,240.0
621,F4,173.0,1.0,95,240.0
622,D4,173.0,1.0,95,240.0
623,B-3,173.0,1.0,95,240.0
624,B-4,174.0,1.0,95,240.0
625,B-2,174.0,1.0,95,240.0
626,F4,175.0,1.0,95,240.0
627,D4,175.0,1.0,95,240.0
628,B-3,175.0,1.0,95,240.0
629,A3,175.667,333/1000,95,240.0
630,B-3,176.0,667/1000,95,240.0
631,B-2,176.0,1.0,95,240.0
632,C4,176.667,333/1000,95,240.0
633,D4,177.0,1.0,95,240.0
634,F4,177.0,1.0,95,240.0
635,D4,177.0,1.0,95,240.0
636,B-3,177.0,1.0,95,240.0
637,F4,178.0,1.0,95,240.0
638,B-2,178.0,1.0,95,240.0
639,F4,179.0,1.0,95,240.0
640,D4,179.0,1.0,95,240.0
641,B-3,179.0,1.0,95,240.0
642,G3,179.667,333/1000,95,240.0
643,C4,180.0,667/1000,95,240.0
644,B-2,180.0,1.0,95,240.0
645,B-3,180.667,333/1000,95,240.0
646,A3,181.0,667/1000,95,240.0
647,F4,181.0,1.0,95,240.0
648,D4,181.0,1.0,95,240.0
649,B-3,181.0,1.0,95,240.0
650,B-3,181.667,333/1000,95,240.0
651,E-4,182.0,667/1000,95,240.0
652,B-2,182.0,1.0,95,240.0
653,D4,182.667,333/1000,95,240.0
654,C#4,183.0,667/1000,95,240.0
655,F4,183.0,1.0,95,240.0
656,D4,183.0,1.0,95,240.0
657,B-3,183.0,1.0,95,240.0
658,D4,183.667,333/1000,95,240.0
659,G4,184.0,667/1000,95,240.0
660,B-2,184.0,1.0,95,240.0
661,F4,184.667,333/1000,95,240.0
662,E4,185.0,667/1000,95,240.0
663,F4,185.0,1.0,95,240.0
664,D4,185.0,1.0,95,240.0
665,B-3,185.0,1.0,95,240.0
666,F4,185.667,333/1000,95,240.0
667,C5,186.0,667/1000,95,240.0
668,B-2,186.0,1.0,95,240.0
669,B-4,186.667,333/1000,95,240.0
670,A4,187.0,667/1000,95,240.0
671,F4,187.0,1.0,95,240.0
672,D4,187.0,1.0,95,240.0
673,B-3,187.0,1.0,95,240.0
674,B-4,187.667,333/1000,95,240.0
675,C#5,188.0,667/1000,95,240.0
676,B-2,188.0,1.0,95,240.0
677,C5,188.667,333/1000,95,240.0
678,B-4,189.0,667/1000,95,240.0
679,F4,189.0,1.0,95,240.0
680,D4,189.0,1.0,95,240.0
681,B-3,189.0,1.0,95,240.0
682,G#4,189.667,333/1000,95,240.0
683,G4,190.0,667/1000,95,240.0
684,B-2,190.0,1.0,95,240.0
685,F4,190.667,333/1000,95,240.0
686,C#4,191.0,667/1000,95,240.0
687,F4,191.0,1.0,95,240.0
688,D4,191.0,1.0,95,240.0
689,B-3,191.0,1.0,95,240.0
690,C4,191.667,333/1000,95,240.0
691,B-3,192.0,1.0,95,240.0
692,B-2,192.0,1.0,95,240.0
693,A3,193.0,1.0,95,240.0
694,F4,193.0,1.0,95,240.0
695,D4,193.0,1.0,95,240.0
696,B-3,193.0,1.0,95,240.0
697,G#3,194.0,2.0,95,240.0
698,B-2,194.0,1.0,95,240.0
699,F4,195.0,1.0,95,240.0
700,D4,195.0,1.0,95,240.0
701,B-3,195.0,1.0,95,240.0
702,A3,196.0,1.0,95,240.0
703,F3,196.0,1.0,95,240.0
704,C5,197.0,2.0,95,240.0
705,G4,197.0,2.0,95,240.0
706,E-4,197.0,2.0,95,240.0
707,G4,197.0,1.0,95,240.0
708,E-4,197.0,1.0,95,240.0
709,A3,197.0,1.0,95,240.0
710,F3,198.0,1.0,95,240.0
711,F3,199.0,0.25,95,240.0
712,G4,199.0,1.0,95,240.0
713,E-4,199.0,1.0,95,240.0
714,A3,199.0,1.0,95,240.0
715,A3,199.25,0.25,95,240.0
716,E-4,199.5,0.25,95,240.0
717,F4,199.75,0.25,95,240.0
718,C#5,200.0,1.0,95,240.0
719,F3,200.0,1.0,95,240.0
720,C5,201.0,1.0,95,240.0
721,G4,201.0,1.0,95,240.0
722,E-4,201.0,1.0,95,240.0
723,A3,201.0,1.0,95,240.0
724,B-4,202.0,1.0,95,240.0
725,F3,202.0,1.0,95,240.0
726,G4,203.0,1.0,95,240.0
727,G4,203.0,1.0,95,240.0
728,E-4,203.0,1.0,95,240.0
729,A3,203.0,1.0,95,240.0
730,B-4,204.0,1.0,95,240.0
731,B-2,204.0,1.0,95,240.0
732,B-4,205.0,1.0,95,240.0
733,F4,205.0,1.0,95,240.0
734,D4,205.0,1.0,95,240.0
735,B-3,205.0,1.0,95,240.0
736,B-4,206.0,1.0,95,240.0
737,B-2,206.0,1.0,95,240.0
738,B-4,207.0,1.0,95,240.0
739,F4,207.0,1.0,95,240.0
740,D4,207.0,1.0,95,240.0
741,B-3,207.0,1.0,95,240.0
742,B-4,208.0,1.0,95,240.0
743,B-2,208.0,1.0,95,240.0
744,B-4,209.0,1.0,95,240.0
745,F4,209.0,1.0,95,240.0
746,D4,209.0,1.0,95,240.0
747,B-3,209.0,1.0,95,240.0
748,B-4,210.0,1.0,95,240.0
749,B-2,210.0,1.0,95,240.0
750,B-4,211.0,1.0,95,240.0
751,F4,211.0,1.0,95,240.0
752,D4,211.0,1.0,95,240.0
753,B-3,211.0,1.0,95,240.0
754,G2,212.0,1.0,95,240.0
755,A4,212.0,3.0,95,240.0
756,F4,212.0,3.0,95,240.0
757,D4,213.0,1.0,95,240.0
758,B3,213.0,1.0,95,240.0
759,F3,213.0,1.0,95,240.0
760,G2,214.0,1.0,95,240.0
761,D4,215.0,1.0,95,240.0
762,D4,215.0,1.0,95,240.0
763,B3,215.0,1.0,95,240.0
764,F3,215.0,1.0,95,240.0
765,G2,216.0,1.0,95,240.0
766,A4,216.0,3.0,95,240.0
767,F4,216.0,3.0,95,240.0
768,D4,217.0,1.0,95,240.0
769,B3,217.0,1.0,95,240.0
770,F3,217.0,1.0,95,240.0
771,G2,218.0,1.0,95,240.0
772,D4,219.0,1.0,95,240.0
773,D4,219.0,1.0,95,240.0
774,B3,219.0,1.0,95,240.0
775,F3,219.0,1.0,95,240.0
776,G2,220.0,1.0,95,240.0
777,A4,220.0,1.0,95,240.0
778,F4,220.0,1.0,95,240.0
779,D4,221.0,1.0,95,240.0
780,D4,221.0,1.0,95,240.0
781,B3,221.0,1.0,95,240.0
782,F3,221.0,1.0,95,240.0
783,G2,222.0,1.0,95,240.0
784,A4,222.0,1.0,95,240.0
785,F4,222.0,1.0,95,240.0
786,D4,223.0,1.0,95,240.0
787,D4,223.0,1.0,95,240.0
788,B3,223.0,1.0,95,240.0
789,F3,223.0,1.0,95,240.0
790,G2,224.0,1.0,95,240.0
791,D4,224.0,3.0,95,240.0
792,B3,224.0,3.0,95,240.0
793,D4,225.0,1.0,95,240.0
794,B3,225.0,1.0,95,240.0
795,F3,225.0,1.0,95,240.0
796,G2,226.0,1.0,95,240.0
797,B3,227.0,333/1000,95,240.0
798,D4,227.0,1.0,95,240.0
799,B3,227.0,1.0,95,240.0
800,F3,227.0,1.0,95,240.0
801,C4,227.333,333/1000,95,240.0
802,C#4,227.667,333/1000,95,240.0
803,D4,228.0,333/1000,95,240.0
804,C3,228.0,1.0,95,240.0
805,C#4,228.333,333/1000,95,240.0
806,C4,228.667,333/1000,95,240.0
807,B-3,229.0,333/1000,95,240.0
808,C4,229.0,1.0,95,240.0
809,B-3,229.0,1.0,95,240.0
810,E3,229.0,1.0,95,240.0
811,A3,229.333,333/1000,95,240.0
812,G3,229.667,333/1000,95,240.0
813,D4,230.0,333/1000,95,240.0
814,C3,230.0,1.0,95,240.0
815,C#4,230.333,333/1000,95,240.0
816,C4,230.667,333/1000,95,240.0
817,B-3,231.0,333/1000,95,240.0
818,C4,231.0,1.0,95,240.0
819,B-3,231.0,1.0,95,240.0
820,E3,231.0,1.0,95,240.0
821,A3,231.333,333/1000,95,240.0
822,G3,231.667,333/1000,95,240.0
823,D4,232.0,333/1000,95,240.0
824,C3,232.0,1.0,95,240.0
825,C#4,232.333,333/1000,95,240.0
826,C4,232.667,333/1000,95,240.0
827,B-3,233.0,333/1000,95,240.0
828,C4,233.0,1.0,95,240.0
829,B-3,233.0,1.0,95,240.0
830,E3,233.0,1.0,95,240.0
831,A3,233.333,333/1000,95,240.0
832,G3,233.667,333/1000,95,240.0
833,D4,234.0,333/1000,95,240.0
834,C3,234.0,1.0,95,240.0
835,C#4,234.333,333/1000,95,240.0
836,C4,234.667,333/1000,95,240.0
837,B-3,235.0,333/1000,95,240.0
838,C4,235.0,1.0,95,240.0
839,B-3,235.0,1.0,95,240.0
840,E3,235.0,1.0,95,240.0
841,A3,235.333,333/1000,95,240.0
842,G3,235.667,333/1000,95,240.0
843,G4,236.0,3.0,95,240.0
844,F2,236.0,1.0,95,240.0
845,C4,237.0,1.0,95,240.0
846,A3,237.0,1.0,95,240.0
847,E-3,237.0,1.0,95,240.0
848,F2,238.0,1.0,95,240.0
849,C#4,239.0,1.0,95,240.0
850,C4,239.0,1.0,95,240.0
851,A3,239.0,1.0,95,240.0
852,E-3,239.0,1.0,95,240.0
853,F4,240.0,3.0,95,240.0
854,F2,240.0,1.0,95,240.0
855,C4,241.0,1.0,95,240.0
856,A3,241.0,1.0,95,240.0
857,E-3,241.0,1.0,95,240.0
858,F2,242.0,1.0,95,240.0
859,C4,243.0,1.0,95,240.0
860,A3,243.0,1.0,95,240.0
861,E-3,243.0,1.0,95,240.0
862,D3,244.0,667/1000,95,240.0
863,B-2,244.0,1.0,95,240.0
864,B-3,244.667,333/1000,95,240.0
865,B-4,245.0,667/1000,95,240.0
866,F4,245.0,1.0,95,240.0
867,D4,245.0,1.0,95,240.0
868,B-3,245.0,1.0,95,240.0
869,D3,245.667,333/1000,95,240.0
870,B-3,246.0,667/1000,95,240.0
871,B-2,246.0,1.0,95,240.0
872,A4,246.667,333/1000,95,240.0
873,D3,247.0,667/1000,95,240.0
874,F4,247.0,1.0,95,240.0
875,D4,247.0,1.0,95,240.0
876,B-3,247.0,1.0,95,240.0
877,B-3,247.667,333/1000,95,240.0
878,G4,248.0,667/1000,95,240.0
879,B-2,248.0,1.0,95,240.0
880,D3,248.667,333/1000,95,240.0
881,B-3,249.0,667/1000,95,240.0
882,F4,249.0,1.0,95,240.0
883,D4,249.0,1.0,95,240.0
884,B-3,249.0,1.0,95,240.0
885,F4,249.667,333/1000,95,240.0
886,D3,250.0,667/1000,95,240.0
887,B-2,250.0,1.0,95,240.0
888,B-3,250.667,333/1000,95,240.0
889,D4,251.0,1.0,95,240.0
890,F4,251.0,1.0,95,240.0
891,D4,251.0,1.0,95,240.0
892,B-3,251.0,1.0,95,240.0
893,D3,252.0,667/1000,95,240.0
894,B-2,252.0,1.0,95,240.0
895,B-3,252.667,333/1000,95,240.0
896,B-4,253.0,667/1000,95,240.0
897,F4,253.0,1.0,95,240.0
898,D4,253.0,1.0,95,240.0
899,B-3,253.0,1.0,95,240.0
900,D3,253.667,333/1000,95,240.0
901,B-3,254.0,667/1000,95,240.0
902,B-2,254.0,1.0,95,240.0
903,A4,254.667,333/1000,95,240.0
904,D3,255.0,667/1000,95,240.0
905,F4,255.0,1.0,95,240.0
906,D4,255.0,1.0,95,240.0
907,B-3,255.0,1.0,95,240.0
908,B-3,255.667,333/1000,95,240.0
909,G4,256.0,667/1000,95,240.0
910,B-2,256.0,1.0,95,240.0
911,D3,256.667,333/1000,95,240.0
912,B-3,257.0,667/1000,95,240.0
913,F4,257.0,1.0,95,240.0
914,D4,257.0,1.0,95,240.0
915,B-3,257.0,1.0,95,240.0
916,F4,257.667,333/1000,95,240.0
917,D3,258.0,667/1000,95,240.0
918,B-2,258.0,1.0,95,240.0
919,B-3,258.667,333/1000,95,240.0
920,D4,259.0,1.0,95,240.0
921,F4,259.0,1.0,95,240.0
922,D4,259.0,1.0,95,240.0
923,B-3,259.0,1.0,95,240.0
924,F3,260.0,1.0,95,240.0
925,G4,261.0,1.0,95,240.0
926,E-4,261.0,1.0,95,240.0
927,A3,261.0,1.0,95,240.0
928,C4,261.5,0.125,95,240.0
929,F4,261.625,0.125,95,240.0
930,A4,261.75,0.125,95,240.0
931,C5,261.875,0.125,95,240.0
932,E-5,262.0,1.0,95,240.0
933,F3,262.0,1.0,95,240.0
934,D5,263.0,1.0,95,240.0
935,G4,263.0,1.0,95,240.0
936,E-4,263.0,1.0,95,240.0
937,A3,263.0,1.0,95,240.0
938,F3,264.0,1.0,95,240.0
939,G4,265.0,1.0,95,240.0
940,E-4,265.0,1.0,95,240.0
941,A3,265.0,1.0,95,240.0
942,F3,265.5,0.25,95,240.0
943,B-3,265.75,0.25,95,240.0
944,C#4,266.0,1.0,95,240.0
945,F3,266.0,1.0,95,240.0
946,C5,267.0,1.0,95,240.0
947,G4,267.0,1.0,95,240.0
948,E-4,267.0,1.0,95,240.0
949,A3,267.0,1.0,95,240.0
950,B-4,268.0,1.0,95,240.0
951,B-2,268.0,1.0,95,240.0
952,G4,269.0,1.0,95,240.0
953,F4,269.0,1.0,95,240.0
954,D4,269.0,1.0,95,240.0
955,B-3,269.0,1.0,95,240.0
956,F4,270.0,1.0,95,240.0
957,B-2,270.0,1.0,95,240.0
958,E-4,271.0,667/1000,95,240.0
959,F4,271.0,1.0,95,240.0
960,D4,271.0,1.0,95,240.0
961,B-3,271.0,1.0,95,240.0
962,C#4,271.667,333/1000,95,240.0
963,D4,272.0,667/1000,95,240.0
964,B-2,272.0,1.0,95,240.0
965,F4,272.667,333/1000,95,240.0
966,G4,273.0,1.0,95,240.0
967,F4,273.0,1.0,95,240.0
968,D4,273.0,1.0,95,240.0
969,B-3,273.0,1.0,95,240.0
970,B-4,274.0,1.0,95,240.0
971,B-2,274.0,1.0,95,240.0
972,F4,275.0,1.0,95,240.0
973,D4,275.0,1.0,95,240.0
974,B-3,275.0,1.0,95,240.0
975,F4,276.0,4.0,95,240.0
976,D4,276.0,4.0,95,240.0
977,B-3,276.0,4.0,95,240.0
978,B-2,276.0,4.0,95,240.0
