,note_name,start_time,duration,velocity,tempo
0,C#2,0.0,1.0,84,90.0
1,C#2,2.0,1.0,84,90.0
2,C#2,4.0,1.0,64,90.0
3,C#2,5.0,1.0,84,90.0
4,C#2,6.0,1.0,64,90.0
5,C#2,7.0,1.0,84,90.0
6,F2,8.0,0.5,88,90.0
7,G#3,8.0,7/5,59,90.0
8,F3,8.0,2.0,42,90.0
9,B1,8.0,0.25,86,90.0
10,F#2,8.0,0.25,86,90.0
11,C#3,8.0,0.25,86,90.0
12,E-4,8.0,4.0,86,90.0
13,G4,8.0,4.0,86,90.0
14,G#3,8.0,4.0,86,90.0
15,C4,8.0,4.0,86,90.0
16,F#2,8.25,0.25,31,90.0
17,E-2,8.5,317/1000,69,90.0
18,F#2,8.5,0.25,108,90.0
19,F#2,8.75,0.25,118,90.0
20,C4,8.75,933/1000,76,90.0
21,E-4,8.75,1.875,70,90.0
22,F2,8.817,3/20,93,90.0
23,D2,9.0,0.25,96,90.0
24,G#3,9.0,0.25,96,90.0
25,E-4,9.058,9/40,110,90.0
26,F#2,9.25,0.25,33,90.0
27,F#2,9.5,0.25,84,90.0
28,F4,9.525,9/40,102,90.0
29,F#2,9.75,0.25,71,90.0
30,G#3,9.75,583/1000,68,90.0
31,C4,9.75,31/40,91,90.0
32,B1,10.0,0.25,98,90.0
33,F#2,10.0,0.25,98,90.0
34,G4,10.017,233/1000,107,90.0
35,F#2,10.25,0.25,33,90.0
36,F3,10.25,817/1000,78,90.0
37,F4,10.483,121/500,95,90.0
38,F#2,10.5,0.25,76,90.0
39,G#3,10.5,99/125,58,90.0
40,C2,10.75,77/250,57,90.0
41,F#2,10.75,0.25,105,90.0
42,E-4,10.75,1.25,87,90.0
43,C4,10.75,767/1000,76,90.0
44,E-4,10.8,6/5,87,90.0
45,E-2,11.0,221/500,87,90.0
46,D2,11.0,0.25,96,90.0
47,G#3,11.0,0.25,96,90.0
48,F#2,11.25,0.25,33,90.0
49,F3,11.25,467/1000,74,90.0
50,B1,11.5,0.5,52,90.0
51,F#2,11.5,0.25,108,90.0
52,G#3,11.5,0.5,66,90.0
53,F#2,11.75,0.25,93,90.0
54,C4,11.75,0.25,72,90.0
55,B-1,12.0,221/500,99,90.0
56,F3,12.0,3/5,60,90.0
57,E-4,12.0,223/250,87,90.0
58,B1,12.0,0.25,82,90.0
59,F#2,12.0,0.25,82,90.0
60,G#3,12.0,4.0,86,90.0
61,C4,12.0,4.0,86,90.0
62,E-4,12.0,4.0,86,90.0
63,G4,12.0,4.0,86,90.0
64,F#2,12.25,0.25,31,90.0
65,G#3,12.25,4/5,52,90.0
66,G#1,12.5,0.25,81,90.0
67,F#2,12.5,0.25,108,90.0
68,C4,12.5,29/40,68,90.0
69,B-1,12.75,0.125,93,90.0
70,F#2,12.75,0.25,118,90.0
71,F3,12.75,101/125,66,90.0
72,D2,13.0,0.25,96,90.0
73,G#3,13.0,0.25,96,90.0
74,E-4,13.025,0.25,105,90.0
75,F#2,13.25,0.25,33,90.0
76,G#3,13.25,867/1000,47,90.0
77,F#2,13.5,0.25,84,90.0
78,C4,13.5,29/40,58,90.0
79,F4,13.508,233/1000,98,90.0
80,F#2,13.75,0.25,71,90.0
81,F3,13.75,27/40,68,90.0
82,B1,14.0,0.25,98,90.0
83,F#2,14.0,0.25,98,90.0
84,G4,14.033,233/1000,107,90.0
85,F#2,14.25,0.25,33,90.0
86,G#3,14.25,471/500,53,90.0
87,F#2,14.5,0.25,76,90.0
88,C4,14.5,221/500,74,90.0
89,F4,14.542,121/500,91,90.0
90,F1,14.75,0.25,73,90.0
91,F#2,14.75,0.25,105,90.0
92,F3,14.75,379/500,55,90.0
93,G#1,15.0,127/250,78,90.0
94,E-4,15.0,867/1000,68,90.0
95,D2,15.0,0.25,96,90.0
96,G#3,15.0,0.25,96,90.0
97,E-4,15.033,11/40,102,90.0
98,F#2,15.25,0.25,33,90.0
99,C4,15.25,13/20,57,90.0
100,F#2,15.5,0.25,108,90.0
101,D2,15.508,2/5,88,90.0
102,G#3,15.508,11/40,51,90.0
103,F4,15.517,267/1000,89,90.0
104,F#2,15.75,0.25,93,90.0
105,F3,15.75,0.25,59,90.0
106,G4,15.817,183/1000,91,90.0
107,E-2,16.0,221/500,99,90.0
108,G3,16.0,7/5,59,90.0
109,E-3,16.0,2.0,42,90.0
110,G4,16.0,4.0,91,90.0
111,B1,16.0,0.25,82,90.0
112,F#2,16.0,0.25,82,90.0
113,D4,16.0,4.0,86,90.0
114,F4,16.0,4.0,86,90.0
115,G3,16.0,4.0,86,90.0
116,B-3,16.0,4.0,86,90.0
117,F#2,16.25,0.25,31,90.0
118,D2,16.5,0.25,81,90.0
119,F#2,16.5,0.25,108,90.0
120,E-2,16.75,0.125,93,90.0
121,F#2,16.75,0.25,118,90.0
122,B-3,16.75,933/1000,76,90.0
123,D4,16.75,1.875,70,90.0
124,D2,17.0,0.25,96,90.0
125,G#3,17.0,0.25,96,90.0
126,F#2,17.25,0.25,33,90.0
127,F#2,17.5,0.25,84,90.0
128,F#2,17.75,0.25,71,90.0
129,G3,17.75,583/1000,68,90.0
130,B-3,17.75,31/40,91,90.0
131,B1,18.0,0.25,98,90.0
132,F#2,18.0,0.25,98,90.0
133,F#2,18.25,0.25,33,90.0
134,E-3,18.25,817/1000,78,90.0
135,F#2,18.5,0.25,76,90.0
136,G3,18.5,99/125,58,90.0
137,B-1,18.75,0.25,73,90.0
138,F#2,18.75,0.25,105,90.0
139,D4,18.75,1.25,87,90.0
140,B-3,18.75,767/1000,76,90.0
141,D2,19.0,127/250,78,90.0
142,D2,19.0,0.25,96,90.0
143,G#3,19.0,0.25,96,90.0
144,F#2,19.25,0.25,33,90.0
145,E-3,19.25,467/1000,74,90.0
146,F#2,19.5,0.25,108,90.0
147,G3,19.5,0.5,66,90.0
148,C2,19.508,2/5,88,90.0
149,F#2,19.75,0.25,93,90.0
150,B-3,19.75,0.25,72,90.0
151,C#2,20.0,0.625,82,90.0
152,G4,20.0,113/40,91,90.0
153,B1,20.0,0.25,68,90.0
154,F#2,20.0,0.25,68,90.0
155,B3,20.0,2.0,86,90.0
156,E-4,20.0,2.0,86,90.0
157,F3,20.0,2.0,86,90.0
158,B-4,20.0,2.0,86,90.0
159,F#2,20.25,0.25,48,90.0
160,G#3,20.25,933/1000,48,90.0
161,F#2,20.5,0.25,99,90.0
162,B3,20.5,37/40,63,90.0
163,C#2,20.75,0.875,89,90.0
164,F#2,20.75,0.25,122,90.0
165,E-4,20.75,633/1000,74,90.0
166,D2,21.0,0.25,96,90.0
167,G#3,21.0,0.25,96,90.0
168,F#2,21.25,0.25,50,90.0
169,G#3,21.25,0.75,46,90.0
170,F#2,21.5,0.25,84,90.0
171,F4,21.5,0.5,85,90.0
172,C#2,21.75,23/250,48,90.0
173,F#2,21.75,0.25,113,90.0
174,C2,22.0,33/20,87,90.0
175,B1,22.0,0.25,98,90.0
176,F#2,22.0,0.25,98,90.0
177,G4,22.0,2.0,78,90.0
178,C#4,22.0,2.0,78,90.0
179,E4,22.0,2.0,78,90.0
180,B-3,22.0,2.0,78,90.0
181,F#2,22.25,0.25,33,90.0
182,G3,22.25,377/250,60,90.0
183,F#2,22.5,0.25,76,90.0
184,B-3,22.5,47/40,40,90.0
185,B-2,22.75,0.25,98,90.0
186,C#4,22.75,37/40,74,90.0
187,D2,23.0,0.25,70,90.0
188,F#2,23.0,0.25,70,90.0
189,G#3,23.0,0.25,70,90.0
190,F#2,23.25,0.25,33,90.0
191,B-2,23.5,0.25,119,90.0
192,C2,23.75,0.25,85,90.0
193,F2,24.0,221/500,99,90.0
194,G#3,24.0,7/5,59,90.0
195,F3,24.0,2.0,42,90.0
196,B1,24.0,0.25,82,90.0
197,F#2,24.0,0.25,82,90.0
198,E-3,24.0,4.0,86,90.0
199,G4,24.0,4.0,86,90.0
200,G#3,24.0,4.0,86,90.0
201,C4,24.0,4.0,86,90.0
202,F#2,24.25,0.25,31,90.0
203,E-2,24.5,0.25,81,90.0
204,F#2,24.5,0.25,108,90.0
205,F2,24.75,0.125,93,90.0
206,F#2,24.75,0.25,118,90.0
207,C4,24.75,933/1000,76,90.0
208,E-4,24.75,1.875,70,90.0
209,D2,25.0,0.25,96,90.0
210,G#3,25.0,0.25,96,90.0
211,F#2,25.25,0.25,33,90.0
212,E-4,25.258,3/20,85,90.0
213,F#2,25.5,0.25,84,90.0
214,F4,25.517,26/125,87,90.0
215,F#2,25.75,0.25,71,90.0
216,G#3,25.75,583/1000,68,90.0
217,C4,25.75,31/40,91,90.0
218,G4,25.783,1/5,105,90.0
219,B1,26.0,0.25,98,90.0
220,F#2,26.0,0.25,98,90.0
221,G4,26.225,26/125,102,90.0
222,F#2,26.25,0.25,33,90.0
223,F3,26.25,817/1000,78,90.0
224,F#2,26.5,0.25,76,90.0
225,G#3,26.5,99/125,58,90.0
226,E-4,26.508,373/250,66,90.0
227,C2,26.75,0.25,73,90.0
228,F#2,26.75,0.25,105,90.0
229,E-4,26.75,1.25,87,90.0
230,C4,26.75,767/1000,76,90.0
231,E-2,27.0,127/250,78,90.0
232,D2,27.0,0.25,96,90.0
233,G#3,27.0,0.25,96,90.0
234,F#2,27.25,0.25,33,90.0
235,F3,27.25,467/1000,74,90.0
236,F#2,27.5,0.25,108,90.0
237,G#3,27.5,0.5,66,90.0
238,A1,27.508,2/5,88,90.0
239,F#2,27.75,0.25,93,90.0
240,C4,27.75,0.25,72,90.0
241,B-1,28.0,0.5,88,90.0
242,F3,28.0,23/20,72,90.0
243,E-4,28.0,371/500,66,90.0
244,B1,28.0,0.25,67,90.0
245,F#2,28.0,0.25,67,90.0
246,G#3,28.0,4.0,86,90.0
247,C5,28.0,4.0,86,90.0
248,E-4,28.0,4.0,86,90.0
249,F4,28.0,4.0,86,90.0
250,F#2,28.25,0.25,51,90.0
251,G#1,28.5,317/1000,69,90.0
252,F#2,28.5,0.25,92,90.0
253,G#3,28.5,933/1000,49,90.0
254,B-2,28.75,0.25,90,90.0
255,E-4,28.75,226/125,70,90.0
256,B-1,28.817,3/20,93,90.0
257,D2,29.0,0.25,80,90.0
258,F#2,29.0,0.25,80,90.0
259,G#3,29.0,0.25,80,90.0
260,E-4,29.017,267/1000,105,90.0
261,F#2,29.25,0.25,42,90.0
262,F3,29.25,31/40,60,90.0
263,F#2,29.5,0.25,93,90.0
264,F4,29.525,121/500,78,90.0
265,G#3,29.75,0.5,60,90.0
266,F#2,29.75,0.25,102,90.0
267,B-2,29.75,0.25,102,90.0
268,B1,30.0,0.25,92,90.0
269,F#2,30.0,0.25,92,90.0
270,G4,30.008,267/1000,107,90.0
271,F#2,30.25,0.25,33,90.0
272,F3,30.25,53/40,56,90.0
273,F#2,30.5,0.25,79,90.0
274,G#3,30.5,183/1000,58,90.0
275,F4,30.55,26/125,98,90.0
276,F1,30.75,77/250,57,90.0
277,F#2,30.75,0.25,127,90.0
278,G#1,31.0,221/500,87,90.0
279,E-4,31.0,1.0,85,90.0
280,D2,31.0,0.25,90,90.0
281,G#3,31.0,0.25,90,90.0
282,E-4,31.058,0.25,98,90.0
283,F#2,31.25,0.25,42,90.0
284,E2,31.5,0.5,52,90.0
285,F#2,31.5,0.25,81,90.0
286,G#3,31.5,367/1000,60,90.0
287,F4,31.508,3/10,87,90.0
288,F#2,31.75,0.25,127,90.0
289,F3,31.75,71/500,74,90.0
290,G4,31.825,7/40,91,90.0
291,E-2,32.0,0.5,88,90.0
292,E-3,32.0,23/20,72,90.0
293,G4,32.0,3233/1000,91,90.0
294,B1,32.0,0.25,82,90.0
295,F#2,32.0,0.25,82,90.0
296,D4,32.0,4.0,86,90.0
297,F4,32.0,4.0,86,90.0
298,G3,32.0,4.0,86,90.0
299,B-4,32.0,4.0,86,90.0
300,F#2,32.25,0.25,31,90.0
301,D2,32.5,317/1000,69,90.0
302,F#2,32.5,0.25,108,90.0
303,G3,32.5,933/1000,49,90.0
304,F#2,32.75,0.25,118,90.0
305,D4,32.75,226/125,70,90.0
306,E-2,32.817,3/20,93,90.0
307,D2,33.0,0.25,96,90.0
308,G#3,33.0,0.25,96,90.0
309,F#2,33.25,0.25,33,90.0
310,E-3,33.25,31/40,60,90.0
311,F#2,33.5,0.25,84,90.0
312,F#2,33.75,0.25,71,90.0
313,G3,33.75,0.5,60,90.0
314,B1,34.0,0.25,98,90.0
315,F#2,34.0,0.25,98,90.0
316,F#2,34.25,0.25,33,90.0
317,E-3,34.25,53/40,56,90.0
318,F#2,34.5,0.25,76,90.0
319,G3,34.5,183/1000,58,90.0
320,B-1,34.75,77/250,57,90.0
321,F#2,34.75,0.25,105,90.0
322,D2,35.0,221/500,87,90.0
323,D4,35.0,1.0,85,90.0
324,D2,35.0,0.25,96,90.0
325,G#3,35.0,0.25,96,90.0
326,F#2,35.25,0.25,33,90.0
327,B-4,35.258,71/500,82,90.0
328,B-1,35.5,0.5,52,90.0
329,F#2,35.5,0.25,108,90.0
330,G3,35.5,367/1000,60,90.0
331,C5,35.533,267/1000,59,90.0
332,F#2,35.75,0.25,93,90.0
333,E-3,35.75,71/500,74,90.0
334,E-5,35.783,217/1000,74,90.0
335,A1,36.0,0.5,90,90.0
336,E3,36.0,1.125,68,90.0
337,C#4,36.0,1279/500,63,90.0
338,E-5,36.0,129/40,74,90.0
339,B1,36.0,0.25,82,90.0
340,F#2,36.0,0.25,82,90.0
341,G3,36.0,4.0,86,90.0
342,B3,36.0,4.0,86,90.0
343,C#4,36.0,4.0,86,90.0
344,E4,36.0,4.0,86,90.0
345,F#2,36.25,0.25,31,90.0
346,G1,36.5,3/10,76,90.0
347,G3,36.5,867/1000,52,90.0
348,F#2,36.5,0.25,68,90.0
349,A4,36.5,0.25,68,90.0
350,B3,36.75,7/10,61,90.0
351,F#2,36.75,0.25,85,90.0
352,D4,36.75,0.25,85,90.0
353,A1,36.8,0.125,103,90.0
354,D2,37.0,0.25,96,90.0
355,G#3,37.0,0.25,96,90.0
356,F#2,37.25,0.25,33,90.0
357,E3,37.25,99/125,87,90.0
358,G3,37.5,429/500,54,90.0
359,F#2,37.5,0.25,60,90.0
360,D4,37.5,0.25,60,90.0
361,A4,37.5,0.25,60,90.0
362,F#2,37.75,0.25,71,90.0
363,B3,37.75,633/1000,68,90.0
364,B1,38.0,0.25,82,90.0
365,F#2,38.0,0.25,82,90.0
366,E-4,38.0,0.25,82,90.0
367,B-2,38.25,0.25,58,90.0
368,E3,38.25,101/125,72,90.0
369,G3,38.5,27/40,56,90.0
370,F#2,38.5,0.25,58,90.0
371,E-4,38.5,0.25,58,90.0
372,A4,38.5,0.25,58,90.0
373,E1,38.75,0.25,68,90.0
374,B-2,38.75,0.25,76,90.0
375,B3,38.75,0.75,72,90.0
376,C#4,38.75,1.25,57,90.0
377,G1,39.0,2/5,84,90.0
378,D2,39.0,0.25,79,90.0
379,G#3,39.0,0.25,79,90.0
380,E-4,39.0,0.25,79,90.0
381,E3,39.25,123/250,64,90.0
382,D2,39.25,0.25,52,90.0
383,E-4,39.25,0.25,52,90.0
384,E2,39.5,0.5,64,90.0
385,G3,39.5,49/125,57,90.0
386,D2,39.5,0.25,77,90.0
387,D4,39.5,0.25,77,90.0
388,A4,39.5,0.25,77,90.0
389,B3,39.75,0.25,70,90.0
390,D4,39.75,0.25,41,90.0
391,A4,39.75,0.25,41,90.0
392,G#2,40.0,483/1000,98,90.0
393,B1,40.0,0.25,78,90.0
394,F#2,40.0,0.25,78,90.0
395,C#3,40.0,0.25,78,90.0
396,E-4,40.0,0.25,78,90.0
397,G4,40.0,267/1000,87,90.0
398,C4,40.0,267/1000,87,90.0
399,G4,40.0,4.0,39,90.0
400,C4,40.0,4.0,39,90.0
401,F#2,40.25,0.25,32,90.0
402,E-4,40.25,0.25,32,90.0
403,F#2,40.5,0.25,90,90.0
404,B-4,40.5,0.25,90,90.0
405,C4,40.5,267/1000,92,90.0
406,G4,40.5,267/1000,92,90.0
407,F#2,40.75,0.25,118,90.0
408,D4,40.75,0.25,118,90.0
409,D2,41.0,0.25,78,90.0
410,E-4,41.0,0.25,78,90.0
411,G4,41.042,9/40,116,90.0
412,F#2,41.25,0.25,40,90.0
413,G#3,41.25,0.25,40,90.0
414,E-4,41.25,0.25,40,90.0
415,F#3,41.25,0.25,40,90.0
416,G4,41.25,133/1000,91,90.0
417,C4,41.25,133/1000,91,90.0
418,G4,41.475,283/1000,82,90.0
419,F#2,41.5,0.25,58,90.0
420,G#3,41.5,0.25,58,90.0
421,E-4,41.5,0.25,58,90.0
422,F#3,41.5,0.25,58,90.0
423,B-4,41.5,0.25,58,90.0
424,G#2,41.75,933/1000,89,90.0
425,B1,41.75,0.25,62,90.0
426,F#2,41.75,0.25,62,90.0
427,E-4,41.75,0.25,62,90.0
428,A4,41.75,0.25,62,90.0
429,E-4,41.775,89/40,93,90.0
430,B1,42.0,0.25,80,90.0
431,F#2,42.0,0.25,80,90.0
432,A4,42.0,0.25,80,90.0
433,G#2,42.25,167/1000,80,90.0
434,F#2,42.25,0.25,58,90.0
435,D4,42.25,0.25,58,90.0
436,F#2,42.5,0.25,76,90.0
437,B-4,42.5,0.25,76,90.0
438,G#1,42.75,3/20,74,90.0
439,G#2,42.75,23/250,93,90.0
440,F#2,42.75,0.25,71,90.0
441,E-4,42.75,0.25,71,90.0
442,G#2,43.0,49/125,85,90.0
443,D2,43.0,0.25,113,90.0
444,G4,43.0,13/40,91,90.0
445,C4,43.0,13/40,91,90.0
446,F#2,43.25,0.25,54,90.0
447,E-4,43.25,0.25,54,90.0
448,G4,43.5,0.375,89,90.0
449,C4,43.5,3/10,87,90.0
450,F#2,43.5,0.25,92,90.0
451,E-4,43.5,0.25,92,90.0
452,B-4,43.5,0.25,92,90.0
453,F#2,43.75,0.25,92,90.0
454,E-4,43.75,0.25,92,90.0
455,B-4,43.75,0.25,92,90.0
456,G2,44.0,483/1000,95,90.0
457,E-4,44.0,779/500,93,90.0
458,B1,44.0,0.25,70,90.0
459,F#2,44.0,0.25,70,90.0
460,E-4,44.0,0.25,70,90.0
461,F3,44.0,1/10,105,90.0
462,G4,44.0,1/10,105,90.0
463,B-3,44.0,1/10,105,90.0
464,D4,44.0,1/10,105,90.0
465,F4,44.0,4.0,40,90.0
466,B-4,44.0,4.0,40,90.0
467,F#2,44.25,0.25,43,90.0
468,E-4,44.25,0.25,43,90.0
469,F3,44.25,23/250,74,90.0
470,G4,44.25,23/250,74,90.0
471,B-3,44.25,23/250,74,90.0
472,D4,44.25,23/250,74,90.0
473,G2,44.5,217/1000,87,90.0
474,F#2,44.5,0.25,81,90.0
475,E-4,44.5,0.25,81,90.0
476,B-4,44.5,0.25,81,90.0
477,F#2,44.75,0.25,108,90.0
478,D4,44.75,0.25,108,90.0
479,D2,45.0,0.25,71,90.0
480,E-4,45.0,0.25,71,90.0
481,F#2,45.25,0.25,36,90.0
482,G#3,45.25,0.25,36,90.0
483,E-4,45.25,0.25,36,90.0
484,F#3,45.25,0.25,36,90.0
485,F3,45.25,117/1000,89,90.0
486,G4,45.25,117/1000,89,90.0
487,B-3,45.25,117/1000,89,90.0
488,D4,45.25,117/1000,89,90.0
489,F#2,45.5,0.25,62,90.0
490,G#3,45.5,0.25,62,90.0
491,E-4,45.5,0.25,62,90.0
492,F#3,45.5,0.25,62,90.0
493,B-4,45.5,0.25,62,90.0
494,G2,45.75,19/20,87,90.0
495,G2,45.75,9/40,95,90.0
496,B1,45.75,0.25,75,90.0
497,F#2,45.75,0.25,75,90.0
498,E-4,45.75,0.25,75,90.0
499,A4,45.75,0.25,75,90.0
500,E-4,45.758,24/125,98,90.0
501,B1,46.0,0.25,81,90.0
502,F#2,46.0,0.25,81,90.0
503,A4,46.0,0.25,81,90.0
504,B-4,46.075,267/1000,107,90.0
505,E-4,46.1,29/500,57,90.0
506,F#2,46.25,0.25,33,90.0
507,F3,46.25,23/250,80,90.0
508,G4,46.25,23/250,80,90.0
509,B-3,46.25,23/250,80,90.0
510,D4,46.25,23/250,80,90.0
511,F#2,46.5,0.25,63,90.0
512,E-4,46.5,0.25,63,90.0
513,B-4,46.5,0.25,63,90.0
514,B-4,46.533,11/40,102,90.0
515,G1,46.75,26/125,82,90.0
516,G2,46.75,23/250,82,90.0
517,F#2,46.75,0.25,102,90.0
518,D4,46.75,0.25,102,90.0
519,D2,47.0,767/1000,68,90.0
520,D2,47.0,0.25,84,90.0
521,E-4,47.0,0.25,84,90.0
522,F3,47.0,121/500,82,90.0
523,G4,47.0,121/500,82,90.0
524,B-3,47.0,121/500,82,90.0
525,D4,47.0,121/500,82,90.0
526,F#4,47.033,133/1000,102,90.0
527,G4,47.15,129/500,107,90.0
528,F#2,47.25,0.25,42,90.0
529,E-4,47.25,0.25,42,90.0
530,F#2,47.5,0.25,100,90.0
531,E-4,47.5,0.25,100,90.0
532,B-4,47.5,0.25,100,90.0
533,F3,47.5,71/500,80,90.0
534,G4,47.5,71/500,80,90.0
535,B-3,47.5,71/500,80,90.0
536,D4,47.5,71/500,80,90.0
537,E-4,47.592,24/125,85,90.0
538,F#2,47.75,0.25,80,90.0
539,E-4,47.75,0.25,80,90.0
540,B-4,47.75,0.25,80,90.0
541,F2,48.0,1633/1000,91,90.0
542,B1,48.0,0.25,70,90.0
543,F#2,48.0,0.25,70,90.0
544,E-4,48.0,0.25,70,90.0
545,E-4,48.0,4.0,39,90.0
546,G#3,48.0,4.0,39,90.0
547,E-3,48.025,27/250,99,90.0
548,F4,48.025,27/250,99,90.0
549,G#3,48.025,27/250,99,90.0
550,C4,48.025,27/250,99,90.0
551,F4,48.067,3317/1000,89,90.0
552,F#2,48.25,0.25,43,90.0
553,E-4,48.25,0.25,43,90.0
554,E-3,48.25,0.125,81,90.0
555,F4,48.25,0.125,81,90.0
556,G#3,48.25,0.125,81,90.0
557,C4,48.25,0.125,81,90.0
558,F#2,48.5,0.25,81,90.0
559,E-4,48.5,0.25,81,90.0
560,B-4,48.5,0.25,81,90.0
561,F#2,48.75,0.25,108,90.0
562,D4,48.75,0.25,108,90.0
563,D2,49.0,0.25,71,90.0
564,E-4,49.0,0.25,71,90.0
565,F#2,49.25,0.25,36,90.0
566,G#3,49.25,0.25,36,90.0
567,E-4,49.25,0.25,36,90.0
568,F#3,49.25,0.25,36,90.0
569,E-3,49.258,23/250,97,90.0
570,F4,49.258,23/250,97,90.0
571,G#3,49.258,23/250,97,90.0
572,C4,49.258,23/250,97,90.0
573,F#2,49.5,0.25,62,90.0
574,G#3,49.5,0.25,62,90.0
575,E-4,49.5,0.25,62,90.0
576,F#3,49.5,0.25,62,90.0
577,B-4,49.5,0.25,62,90.0
578,F2,49.75,1.5,85,90.0
579,B1,49.75,0.25,75,90.0
580,F#2,49.75,0.25,75,90.0
581,E-4,49.75,0.25,75,90.0
582,A4,49.75,0.25,75,90.0
583,F2,49.758,233/1000,94,90.0
584,B1,50.0,0.25,81,90.0
585,F#2,50.0,0.25,81,90.0
586,A4,50.0,0.25,81,90.0
587,F#2,50.25,0.25,33,90.0
588,E-3,50.292,1/10,88,90.0
589,F4,50.292,1/10,88,90.0
590,G#3,50.292,1/10,88,90.0
591,C4,50.292,1/10,88,90.0
592,F#2,50.5,0.25,63,90.0
593,E-4,50.5,0.25,63,90.0
594,B-4,50.5,0.25,63,90.0
595,F#2,50.75,0.25,102,90.0
596,D4,50.75,0.25,102,90.0
597,F2,50.758,3/40,88,90.0
598,D2,51.0,0.25,84,90.0
599,E-4,51.0,0.25,84,90.0
600,E-3,51.042,233/1000,86,90.0
601,F4,51.042,233/1000,86,90.0
602,G#3,51.042,233/1000,86,90.0
603,C4,51.042,233/1000,86,90.0
604,C2,51.25,129/500,57,90.0
605,F#2,51.25,0.25,42,90.0
606,E-4,51.25,0.25,42,90.0
607,F#2,51.5,0.25,100,90.0
608,E-4,51.5,0.25,100,90.0
609,B-4,51.5,0.25,100,90.0
610,F2,51.508,51/125,87,90.0
611,E-3,51.508,79/500,97,90.0
612,F4,51.508,79/500,97,90.0
613,G#3,51.508,79/500,97,90.0
614,C4,51.508,79/500,97,90.0
615,F#2,51.75,0.25,80,90.0
616,E-4,51.75,0.25,80,90.0
617,B-4,51.75,0.25,80,90.0
618,F4,51.808,167/1000,58,90.0
619,C2,52.0,1633/1000,91,90.0
620,B1,52.0,0.25,70,90.0
621,F#2,52.0,0.25,70,90.0
622,E-4,52.0,0.25,70,90.0
623,E-4,52.0,267/1000,87,90.0
624,B-3,52.0,267/1000,87,90.0
625,E-4,52.0,4.0,40,90.0
626,B-4,52.0,4.0,40,90.0
627,G4,52.075,11/40,119,90.0
628,F#2,52.25,0.25,43,90.0
629,E-4,52.25,0.25,43,90.0
630,F#2,52.5,0.25,81,90.0
631,E-4,52.5,0.25,81,90.0
632,B-4,52.5,0.25,81,90.0
633,B-3,52.5,267/1000,92,90.0
634,E-4,52.5,267/1000,92,90.0
635,G4,52.542,121/500,87,90.0
636,F#2,52.75,0.25,108,90.0
637,D4,52.75,0.25,108,90.0
638,F4,52.842,26/125,85,90.0
639,D2,53.0,0.25,71,90.0
640,E-4,53.0,0.25,71,90.0
641,F#2,53.25,0.25,36,90.0
642,G#3,53.25,0.25,36,90.0
643,E-4,53.25,0.25,36,90.0
644,F#3,53.25,0.25,36,90.0
645,E-4,53.25,133/1000,91,90.0
646,B-3,53.25,133/1000,91,90.0
647,F4,53.308,283/1000,89,90.0
648,F#2,53.5,0.25,62,90.0
649,G#3,53.5,0.25,62,90.0
650,E-4,53.5,0.25,62,90.0
651,F#3,53.5,0.25,62,90.0
652,B-4,53.5,0.25,62,90.0
653,C2,53.75,1.5,85,90.0
654,B1,53.75,0.25,75,90.0
655,F#2,53.75,0.25,75,90.0
656,E-4,53.75,0.25,75,90.0
657,A4,53.75,0.25,75,90.0
658,E-4,53.775,26/125,87,90.0
659,B1,54.0,0.25,81,90.0
660,F#2,54.0,0.25,81,90.0
661,A4,54.0,0.25,81,90.0
662,F#2,54.25,0.25,33,90.0
663,C2,54.25,7/40,92,90.0
664,C3,54.25,7/40,92,90.0
665,E-4,54.267,1/5,95,90.0
666,F#2,54.5,0.25,63,90.0
667,E-4,54.5,0.25,63,90.0
668,B-4,54.5,0.25,63,90.0
669,E-4,54.75,3/20,82,90.0
670,F#2,54.75,0.25,102,90.0
671,D4,54.75,0.25,102,90.0
672,C3,54.75,117/1000,86,90.0
673,C2,54.75,117/1000,86,90.0
674,C4,54.992,3/10,55,90.0
675,D2,55.0,0.25,84,90.0
676,E-4,55.0,0.25,84,90.0
677,E-4,55.0,13/40,91,90.0
678,B-3,55.0,13/40,91,90.0
679,G1,55.25,129/500,57,90.0
680,F#2,55.25,0.25,42,90.0
681,E-4,55.25,0.25,42,90.0
682,E-4,55.275,167/1000,62,90.0
683,E-4,55.5,0.375,89,90.0
684,B-3,55.5,3/10,87,90.0
685,F#2,55.5,0.25,100,90.0
686,E-4,55.5,0.25,100,90.0
687,B-4,55.5,0.25,100,90.0
688,C2,55.508,51/125,87,90.0
689,F4,55.55,26/125,110,90.0
690,F#2,55.75,0.25,80,90.0
691,E-4,55.75,0.25,80,90.0
692,B-4,55.75,0.25,80,90.0
693,G#2,56.0,7/20,89,90.0
694,B1,56.0,0.25,70,90.0
695,F#2,56.0,0.25,70,90.0
696,E-4,56.0,0.25,70,90.0
697,G3,56.0,1/10,97,90.0
698,B-3,56.0,1/10,97,90.0
699,C4,56.0,1/10,97,90.0
700,E-4,56.0,1/10,97,90.0
701,G4,56.0,4.0,40,90.0
702,C5,56.0,4.0,40,90.0
703,F#2,56.25,0.25,43,90.0
704,E-4,56.25,0.25,43,90.0
705,F#2,56.5,0.25,81,90.0
706,E-4,56.5,0.25,81,90.0
707,B-4,56.5,0.25,81,90.0
708,G3,56.5,1/10,99,90.0
709,B-3,56.5,1/10,99,90.0
710,C4,56.5,1/10,99,90.0
711,E-4,56.5,1/10,99,90.0
712,F#2,56.75,0.25,108,90.0
713,D4,56.75,0.25,108,90.0
714,D2,57.0,0.25,71,90.0
715,E-4,57.0,0.25,71,90.0
716,F#4,57.033,117/1000,107,90.0
717,G4,57.142,233/1000,82,90.0
718,F4,57.15,1/20,68,90.0
719,F#2,57.25,0.25,36,90.0
720,G#3,57.25,0.25,36,90.0
721,E-4,57.25,0.25,36,90.0
722,F#3,57.25,0.25,36,90.0
723,G3,57.25,117/1000,88,90.0
724,B-3,57.25,117/1000,88,90.0
725,C4,57.25,117/1000,88,90.0
726,E-4,57.25,117/1000,88,90.0
727,G4,57.5,121/500,98,90.0
728,F#2,57.5,0.25,62,90.0
729,G#3,57.5,0.25,62,90.0
730,E-4,57.5,0.25,62,90.0
731,F#3,57.5,0.25,62,90.0
732,B-4,57.5,0.25,62,90.0
733,G#1,57.75,26/125,78,90.0
734,G#2,57.75,77/250,85,90.0
735,B1,57.75,0.25,75,90.0
736,F#2,57.75,0.25,75,90.0
737,E-4,57.75,0.25,75,90.0
738,A4,57.75,0.25,75,90.0
739,E-4,57.8,11/5,87,90.0
740,G#2,58.0,367/1000,87,90.0
741,B1,58.0,0.25,81,90.0
742,F#2,58.0,0.25,81,90.0
743,A4,58.0,0.25,81,90.0
744,F#2,58.25,0.25,33,90.0
745,G3,58.25,0.125,103,90.0
746,B-3,58.25,0.125,103,90.0
747,C4,58.25,0.125,103,90.0
748,E-4,58.25,0.125,103,90.0
749,F#2,58.5,0.25,63,90.0
750,E-4,58.5,0.25,63,90.0
751,B-4,58.5,0.25,63,90.0
752,G#1,58.75,133/1000,60,90.0
753,G#2,58.75,26/125,67,90.0
754,F#2,58.75,0.25,102,90.0
755,D4,58.75,0.25,102,90.0
756,E-2,59.0,429/500,72,90.0
757,D2,59.0,0.25,84,90.0
758,E-4,59.0,0.25,84,90.0
759,G3,59.0,9/20,95,90.0
760,B-3,59.0,9/20,95,90.0
761,C4,59.0,9/20,95,90.0
762,E-4,59.0,9/20,95,90.0
763,F#2,59.25,0.25,42,90.0
764,E-4,59.25,0.25,42,90.0
765,G#2,59.5,79/500,78,90.0
766,F#2,59.5,0.25,100,90.0
767,E-4,59.5,0.25,100,90.0
768,B-4,59.5,0.25,100,90.0
769,F#2,59.75,0.25,80,90.0
770,E-4,59.75,0.25,80,90.0
771,B-4,59.75,0.25,80,90.0
772,G#2,60.0,427/250,93,90.0
773,E-4,60.0,1383/1000,87,90.0
774,B1,60.0,0.25,85,90.0
775,F#2,60.0,0.25,85,90.0
776,G#3,60.0,0.25,85,90.0
777,D4,60.0,0.25,85,90.0
778,F#2,60.25,0.25,43,90.0
779,E-4,60.25,0.25,43,90.0
780,F#2,60.5,0.25,78,90.0
781,G#3,60.5,0.25,78,90.0
782,D4,60.5,0.25,78,90.0
783,B-4,60.5,0.25,78,90.0
784,F#2,60.75,0.25,100,90.0
785,D4,60.75,0.25,100,90.0
786,D2,61.0,0.25,71,90.0
787,E-4,61.0,0.25,71,90.0
788,F#2,61.25,0.25,43,90.0
789,G#3,61.25,0.25,43,90.0
790,E-4,61.25,0.25,43,90.0
791,F#3,61.25,0.25,43,90.0
792,A4,61.25,0.25,43,90.0
793,F#2,61.5,0.25,66,90.0
794,E-4,61.5,0.25,66,90.0
795,F#3,61.5,0.25,66,90.0
796,B-4,61.5,0.25,66,90.0
797,A4,61.5,0.25,66,90.0
798,E-4,61.533,9/40,102,90.0
799,B1,61.75,0.25,74,90.0
800,F#2,61.75,0.25,74,90.0
801,G#3,61.75,0.25,74,90.0
802,E-4,61.75,0.25,74,90.0
803,A4,61.75,0.25,74,90.0
804,B-4,61.825,49/125,105,90.0
805,G#2,62.0,73/250,95,90.0
806,B1,62.0,0.25,81,90.0
807,F#2,62.0,0.25,81,90.0
808,A4,62.0,0.25,81,90.0
809,F#2,62.25,0.25,33,90.0
810,G3,62.25,23/250,97,90.0
811,B-3,62.25,23/250,97,90.0
812,C4,62.25,23/250,97,90.0
813,E-4,62.25,23/250,97,90.0
814,B-4,62.317,49/125,98,90.0
815,F#2,62.5,0.25,80,90.0
816,E-4,62.5,0.25,80,90.0
817,B-4,62.5,0.25,80,90.0
818,G#1,62.75,27/250,64,90.0
819,G#2,62.75,79/500,79,90.0
820,F#2,62.75,0.25,93,90.0
821,G#3,62.75,0.25,93,90.0
822,D4,62.75,0.25,93,90.0
823,F#4,62.767,23/250,70,90.0
824,G4,62.8,177/250,98,90.0
825,E-2,63.0,77/250,70,90.0
826,D2,63.0,0.25,84,90.0
827,E-4,63.0,0.25,84,90.0
828,G3,63.0,3/40,99,90.0
829,B-3,63.0,3/40,99,90.0
830,C4,63.0,3/40,99,90.0
831,E-4,63.0,3/40,99,90.0
832,G#1,63.25,1/20,58,90.0
833,F#2,63.25,0.25,42,90.0
834,E-4,63.25,0.25,42,90.0
835,G3,63.25,1/10,99,90.0
836,B-3,63.25,1/10,99,90.0
837,C4,63.25,1/10,99,90.0
838,E-4,63.25,1/10,99,90.0
839,G2,63.5,13/40,91,90.0
840,G#2,63.5,71/500,79,90.0
841,F#2,63.5,0.25,91,90.0
842,G#3,63.5,0.25,91,90.0
843,E-4,63.5,0.25,91,90.0
844,B-4,63.5,0.25,91,90.0
845,E-4,63.567,433/1000,89,90.0
846,F#2,63.75,0.25,80,90.0
847,E-4,63.75,0.25,80,90.0
848,B-4,63.75,0.25,80,90.0
849,C#2,64.0,1633/1000,91,90.0
850,E-4,64.0,21/500,89,90.0
851,B1,64.0,0.25,76,90.0
852,F#2,64.0,0.25,76,90.0
853,D4,64.0,0.25,76,90.0
854,G4,64.0,4.0,40,90.0
855,C5,64.0,4.0,40,90.0
856,B3,64.025,27/250,99,90.0
857,E-4,64.025,27/250,99,90.0
858,F3,64.025,27/250,99,90.0
859,B-4,64.025,27/250,99,90.0
860,F4,64.042,29/10,95,90.0
861,F#2,64.25,0.25,42,90.0
862,D4,64.25,0.25,42,90.0
863,B3,64.25,0.125,81,90.0
864,E-4,64.25,0.125,81,90.0
865,F3,64.25,0.125,81,90.0
866,B-4,64.25,0.125,81,90.0
867,F#2,64.5,0.25,47,90.0
868,E-4,64.5,0.25,47,90.0
869,B-4,64.5,0.25,47,90.0
870,F#2,64.75,0.25,98,90.0
871,D4,64.75,0.25,98,90.0
872,D2,65.0,0.25,71,90.0
873,E-4,65.0,0.25,71,90.0
874,F#2,65.25,0.25,50,90.0
875,G#3,65.25,0.25,50,90.0
876,D4,65.25,0.25,50,90.0
877,F#3,65.25,0.25,50,90.0
878,B3,65.258,23/250,97,90.0
879,E-4,65.258,23/250,97,90.0
880,F3,65.258,23/250,97,90.0
881,B-4,65.258,23/250,97,90.0
882,F#2,65.5,0.25,54,90.0
883,G#3,65.5,0.25,54,90.0
884,E-4,65.5,0.25,54,90.0
885,F#3,65.5,0.25,54,90.0
886,B-4,65.5,0.25,54,90.0
887,C#2,65.75,1.5,85,90.0
888,B1,65.75,0.25,74,90.0
889,F#2,65.75,0.25,74,90.0
890,E-4,65.75,0.25,74,90.0
891,A4,65.75,0.25,74,90.0
892,C#2,65.758,233/1000,91,90.0
893,C#3,65.758,233/1000,91,90.0
894,B1,66.0,0.25,58,90.0
895,F#2,66.0,0.25,58,90.0
896,A4,66.0,0.25,58,90.0
897,B-4,66.25,1.75,10,90.0
898,F#2,66.25,0.25,60,90.0
899,E-4,66.25,0.25,60,90.0
900,B3,66.292,1/10,88,90.0
901,E-4,66.292,1/10,88,90.0
902,F3,66.292,1/10,88,90.0
903,B-4,66.292,1/10,88,90.0
904,F#2,66.5,0.25,72,90.0
905,E-4,66.5,0.25,72,90.0
906,B-4,66.5,0.25,72,90.0
907,F#2,66.75,0.25,114,90.0
908,D4,66.75,0.25,114,90.0
909,C#2,66.758,3/40,87,90.0
910,C#3,66.758,3/40,87,90.0
911,D2,67.0,0.25,85,90.0
912,E-4,67.0,0.25,85,90.0
913,B3,67.042,233/1000,86,90.0
914,E-4,67.042,233/1000,86,90.0
915,F3,67.042,233/1000,86,90.0
916,B-4,67.042,233/1000,86,90.0
917,G4,67.05,121/500,105,90.0
918,G#1,67.25,129/500,57,90.0
919,F#2,67.25,0.25,52,90.0
920,E-4,67.25,0.25,52,90.0
921,B-2,67.5,0.25,86,90.0
922,E-4,67.5,0.25,86,90.0
923,B-4,67.5,0.25,86,90.0
924,C#2,67.508,51/125,87,90.0
925,B3,67.508,79/500,97,90.0
926,E-4,67.508,79/500,97,90.0
927,F3,67.508,79/500,97,90.0
928,B-4,67.508,79/500,97,90.0
929,F4,67.542,11/40,98,90.0
930,E-4,67.75,0.25,73,90.0
931,B-4,67.75,0.25,73,90.0
932,C2,68.0,483/1000,98,90.0
933,B-3,68.0,2767/1000,85,90.0
934,C3,68.0,4.0,82,90.0
935,B1,68.0,0.25,58,90.0
936,F#2,68.0,0.25,58,90.0
937,B-4,68.0,0.25,58,90.0
938,A4,68.0,0.25,58,90.0
939,F4,68.0,4.0,40,90.0
940,B4,68.0,4.0,40,90.0
941,E-4,68.083,129/500,93,90.0
942,F#2,68.25,0.25,31,90.0
943,E4,68.25,13/5,68,90.0
944,F#2,68.5,0.25,108,90.0
945,G4,68.5,2.375,72,90.0
946,C4,68.533,121/500,74,90.0
947,C#5,68.75,3.25,87,90.0
948,F#2,68.75,0.25,70,90.0
949,B-4,68.75,0.25,70,90.0
950,A4,68.75,0.25,70,90.0
951,D2,69.0,0.25,75,90.0
952,G#3,69.0,0.25,75,90.0
953,B-4,69.0,0.25,75,90.0
954,A4,69.0,0.25,75,90.0
955,C4,69.058,433/1000,80,90.0
956,B1,69.25,0.25,58,90.0
957,B-2,69.25,0.25,58,90.0
958,D4,69.25,0.25,58,90.0
959,F#2,69.5,0.25,69,90.0
960,E-4,69.5,0.25,69,90.0
961,B-3,69.508,0.25,60,90.0
962,C2,69.75,933/1000,89,90.0
963,B1,69.75,0.25,93,90.0
964,B-2,69.75,0.25,93,90.0
965,D4,69.75,0.25,93,90.0
966,A4,69.75,0.25,93,90.0
967,C4,69.792,276/125,82,90.0
968,F#2,70.0,0.25,93,90.0
969,F#2,70.25,0.25,34,90.0
970,G#3,70.25,0.25,34,90.0
971,F#3,70.25,0.25,34,90.0
972,A4,70.25,0.25,34,90.0
973,F#2,70.5,0.25,62,90.0
974,G#3,70.5,0.25,62,90.0
975,F#3,70.5,0.25,62,90.0
976,B-4,70.5,0.25,62,90.0
977,C1,70.75,3/20,74,90.0
978,A2,70.75,0.25,68,90.0
979,D4,70.75,0.25,68,90.0
980,C2,71.0,49/125,85,90.0
981,B-2,71.0,0.25,68,90.0
982,A2,71.0,0.25,68,90.0
983,G4,71.0,24/125,101,90.0
984,B-3,71.0,24/125,101,90.0
985,E4,71.0,24/125,101,90.0
986,A4,71.25,0.25,23,90.0
987,E4,71.25,23/250,72,90.0
988,B-3,71.25,23/250,72,90.0
989,G4,71.25,23/250,72,90.0
990,F2,71.5,0.25,73,90.0
991,E-4,71.5,0.25,73,90.0
992,D4,71.5,0.25,73,90.0
993,B-4,71.5,0.25,73,90.0
994,A4,71.5,0.25,73,90.0
995,E-4,71.75,0.25,92,90.0
996,F2,72.0,221/500,99,90.0
997,G#3,72.0,521/500,68,90.0
998,C4,72.0,23/250,82,90.0
999,B1,72.0,0.25,86,90.0
1000,F#2,72.0,0.25,86,90.0
1001,C#3,72.0,0.25,86,90.0
1002,E-3,72.0,4.0,86,90.0
1003,F4,72.0,4.0,86,90.0
1004,G#3,72.0,4.0,86,90.0
1005,C4,72.0,4.0,86,90.0
1006,E4,72.0,4.0,40,90.0
1007,B-4,72.0,4.0,40,90.0
1008,F#2,72.25,0.25,31,90.0
1009,E-2,72.5,0.25,81,90.0
1010,F#2,72.5,0.25,108,90.0
1011,E-4,72.5,833/1000,58,90.0
1012,F2,72.75,0.125,93,90.0
1013,F#2,72.75,0.25,118,90.0
1014,F4,72.75,0.625,76,90.0
1015,D2,73.0,0.25,96,90.0
1016,G#3,73.0,0.25,96,90.0
1017,F#2,73.25,0.25,33,90.0
1018,G#3,73.25,99/125,62,90.0
1019,E-4,73.308,167/1000,100,90.0
1020,F#2,73.5,0.25,84,90.0
1021,E-4,73.5,833/1000,41,90.0
1022,F#2,73.75,0.25,71,90.0
1023,C5,73.75,2.25,87,90.0
1024,F4,73.775,121/500,105,90.0
1025,B1,74.0,0.25,98,90.0
1026,F#2,74.0,0.25,98,90.0
1027,G4,74.108,0.25,98,90.0
1028,F#2,74.25,0.25,33,90.0
1029,G#3,74.25,833/1000,60,90.0
1030,F#2,74.5,0.25,76,90.0
1031,E-4,74.5,421/500,59,90.0
1032,F4,74.558,3/10,72,90.0
1033,C2,74.75,0.25,73,90.0
1034,F#2,74.75,0.25,105,90.0
1035,F4,74.75,3/5,80,90.0
1036,E-2,75.0,127/250,78,90.0
1037,D2,75.0,0.25,96,90.0
1038,G#3,75.0,0.25,96,90.0
1039,E-4,75.067,933/1000,85,90.0
1040,F#2,75.25,0.25,33,90.0
1041,G#3,75.25,76/125,59,90.0
1042,F#2,75.5,0.25,108,90.0
1043,E-4,75.5,0.5,57,90.0
1044,A1,75.508,2/5,88,90.0
1045,F#2,75.75,0.25,93,90.0
1046,F4,75.75,0.25,66,90.0
1047,B-1,76.0,221/500,99,90.0
1048,F3,76.0,23/20,72,90.0
1049,E-4,76.0,1.125,85,90.0
1050,B1,76.0,0.25,76,90.0
1051,F#2,76.0,0.25,76,90.0
1052,G#3,76.0,4.0,86,90.0
1053,C4,76.0,4.0,86,90.0
1054,E-4,76.0,4.0,86,90.0
1055,G4,76.0,4.0,86,90.0
1056,F#2,76.25,0.25,31,90.0
1057,G#1,76.5,0.25,81,90.0
1058,F#2,76.5,0.25,80,90.0
1059,G#3,76.5,933/1000,49,90.0
1060,B-1,76.75,0.125,93,90.0
1061,F#2,76.75,0.25,111,90.0
1062,E-4,76.75,226/125,70,90.0
1063,D2,77.0,0.25,96,90.0
1064,G#3,77.0,0.25,96,90.0
1065,F#2,77.25,0.25,52,90.0
1066,F3,77.25,31/40,60,90.0
1067,E-4,77.3,183/1000,105,90.0
1068,F#2,77.5,0.25,84,90.0
1069,F#2,77.75,0.25,127,90.0
1070,G#3,77.75,0.5,60,90.0
1071,F4,77.75,129/500,98,90.0
1072,B1,78.0,0.25,66,90.0
1073,F#2,78.0,0.25,66,90.0
1074,G4,78.117,0.25,89,90.0
1075,F#2,78.25,0.25,57,90.0
1076,F3,78.25,53/40,56,90.0
1077,F#2,78.5,0.25,84,90.0
1078,G#3,78.5,183/1000,58,90.0
1079,F4,78.567,121/500,85,90.0
1080,F1,78.75,0.25,73,90.0
1081,F#2,78.75,0.25,121,90.0
1082,G#1,79.0,127/250,78,90.0
1083,E-4,79.0,1.0,85,90.0
1084,D2,79.0,0.25,100,90.0
1085,G#3,79.0,0.25,100,90.0
1086,E-4,79.075,49/125,89,90.0
1087,F#2,79.25,0.25,46,90.0
1088,F#2,79.5,0.25,80,90.0
1089,G#3,79.5,367/1000,60,90.0
1090,D2,79.508,2/5,88,90.0
1091,F4,79.542,317/1000,76,90.0
1092,F#2,79.75,0.25,127,90.0
1093,F3,79.75,71/500,74,90.0
1094,G4,79.842,79/500,98,90.0
1095,E-2,80.0,221/500,99,90.0
1096,G3,80.0,521/500,68,90.0
1097,G4,80.0,4.0,98,90.0
1098,B1,80.0,0.25,82,90.0
1099,F#2,80.0,0.25,82,90.0
1100,D4,80.0,4.0,86,90.0
1101,F4,80.0,4.0,86,90.0
1102,G3,80.0,4.0,86,90.0
1103,B-4,80.0,4.0,86,90.0
1104,F#2,80.25,0.25,31,90.0
1105,D2,80.5,0.25,81,90.0
1106,F#2,80.5,0.25,108,90.0
1107,D4,80.5,833/1000,58,90.0
1108,E-2,80.75,0.125,93,90.0
1109,F#2,80.75,0.25,118,90.0
1110,F4,80.75,0.625,76,90.0
1111,D2,81.0,0.25,96,90.0
1112,G#3,81.0,0.25,96,90.0
1113,F#2,81.25,0.25,33,90.0
1114,G3,81.25,99/125,62,90.0
1115,F#2,81.5,0.25,84,90.0
1116,D4,81.5,833/1000,41,90.0
1117,F#2,81.75,0.25,71,90.0
1118,B-4,81.75,2.25,87,90.0
1119,B1,82.0,0.25,98,90.0
1120,F#2,82.0,0.25,98,90.0
1121,F#2,82.25,0.25,33,90.0
1122,G3,82.25,833/1000,60,90.0
1123,F#2,82.5,0.25,76,90.0
1124,D4,82.5,421/500,59,90.0
1125,B-1,82.75,0.25,73,90.0
1126,F#2,82.75,0.25,105,90.0
1127,F4,82.75,3/5,80,90.0
1128,D2,83.0,127/250,78,90.0
1129,D2,83.0,0.25,96,90.0
1130,G#3,83.0,0.25,96,90.0
1131,F#2,83.25,0.25,33,90.0
1132,G3,83.25,76/125,59,90.0
1133,F#2,83.5,0.25,108,90.0
1134,D4,83.5,0.5,57,90.0
1135,C2,83.508,2/5,88,90.0
1136,F#2,83.75,0.25,93,90.0
1137,F4,83.75,0.25,66,90.0
1138,C#2,84.0,33/20,87,90.0
1139,G4,84.0,33/1000,98,90.0
1140,B1,84.0,0.25,68,90.0
1141,F#2,84.0,0.25,68,90.0
1142,B3,84.0,2.0,86,90.0
1143,E-4,84.0,2.0,86,90.0
1144,F3,84.0,2.0,86,90.0
1145,G#3,84.0,2.0,86,90.0
1146,F#2,84.25,0.25,48,90.0
1147,G#3,84.25,933/1000,48,90.0
1148,F#2,84.5,0.25,99,90.0
1149,B3,84.5,37/40,63,90.0
1150,F#2,84.75,0.25,122,90.0
1151,E-4,84.75,633/1000,74,90.0
1152,D2,85.0,0.25,96,90.0
1153,G#3,85.0,0.25,96,90.0
1154,F#2,85.25,0.25,50,90.0
1155,G#3,85.25,0.75,46,90.0
1156,F#2,85.5,0.25,84,90.0
1157,F4,85.5,0.5,85,90.0
1158,C#2,85.75,0.25,85,90.0
1159,F#2,85.75,0.25,113,90.0
1160,C2,86.0,33/20,87,90.0
1161,B1,86.0,0.25,98,90.0
1162,F#2,86.0,0.25,98,90.0
1163,B-3,86.0,2.0,86,90.0
1164,C#4,86.0,2.0,86,90.0
1165,E3,86.0,2.0,86,90.0
1166,G#3,86.0,2.0,86,90.0
1167,F#2,86.25,0.25,33,90.0
1168,G3,86.25,377/250,60,90.0
1169,F#2,86.5,0.25,76,90.0
1170,B-3,86.5,47/40,40,90.0
1171,B-2,86.75,0.25,98,90.0
1172,C#4,86.75,37/40,74,90.0
1173,D2,87.0,0.25,70,90.0
1174,F#2,87.0,0.25,70,90.0
1175,G#3,87.0,0.25,70,90.0
1176,F#2,87.25,0.25,33,90.0
1177,B-2,87.5,0.25,119,90.0
1178,C2,87.75,0.25,85,90.0
1179,F2,88.0,0.5,90,90.0
1180,F3,88.0,23/20,72,90.0
1181,B1,88.0,0.25,82,90.0
1182,F#2,88.0,0.25,82,90.0
1183,E-3,88.0,4.0,86,90.0
1184,G3,88.0,4.0,86,90.0
1185,G#3,88.0,4.0,86,90.0
1186,C4,88.0,4.0,86,90.0
1187,F#2,88.25,0.25,31,90.0
1188,E-2,88.5,3/10,76,90.0
1189,F#2,88.5,0.25,108,90.0
1190,G#3,88.5,933/1000,49,90.0
1191,F#2,88.75,0.25,118,90.0
1192,E-4,88.75,226/125,70,90.0
1193,F2,88.8,0.125,103,90.0
1194,D2,89.0,0.25,96,90.0
1195,G#3,89.0,0.25,96,90.0
1196,E-4,89.033,283/1000,100,90.0
1197,F#2,89.25,0.25,33,90.0
1198,F3,89.25,31/40,60,90.0
1199,F#2,89.5,0.25,84,90.0
1200,F4,89.525,121/500,91,90.0
1201,F#2,89.75,0.25,71,90.0
1202,G#3,89.75,0.5,60,90.0
1203,B1,90.0,0.25,98,90.0
1204,F#2,90.0,0.25,98,90.0
1205,G4,90.05,121/500,102,90.0
1206,F#2,90.25,0.25,33,90.0
1207,F3,90.25,53/40,56,90.0
1208,F#2,90.5,0.25,76,90.0
1209,G#3,90.5,183/1000,58,90.0
1210,F4,90.517,283/1000,85,90.0
1211,C2,90.75,0.25,68,90.0
1212,F#2,90.75,0.25,105,90.0
1213,E-4,90.85,23/20,89,90.0
1214,E-2,91.0,2/5,84,90.0
1215,E-4,91.0,1.0,85,90.0
1216,D2,91.0,0.25,96,90.0
1217,G#3,91.0,0.25,96,90.0
1218,F#2,91.25,0.25,33,90.0
1219,C2,91.5,0.5,64,90.0
1220,F#2,91.5,0.25,108,90.0
1221,G#3,91.5,367/1000,60,90.0
1222,F#2,91.75,0.25,93,90.0
1223,F3,91.75,71/500,74,90.0
1224,B-1,92.0,0.5,90,90.0
1225,F3,92.0,3/5,60,90.0
1226,E-4,92.0,571/500,89,90.0
1227,B1,92.0,0.25,76,90.0
1228,F#2,92.0,0.25,76,90.0
1229,F4,92.0,4.0,78,90.0
1230,C4,92.0,4.0,78,90.0
1231,E-4,92.0,4.0,78,90.0
1232,G#3,92.0,4.0,78,90.0
1233,F#2,92.25,0.25,31,90.0
1234,G#3,92.25,4/5,52,90.0
1235,G#1,92.5,3/10,76,90.0
1236,F#2,92.5,0.25,80,90.0
1237,C4,92.5,29/40,68,90.0
1238,F#2,92.75,0.25,111,90.0
1239,F3,92.75,101/125,66,90.0
1240,B-1,92.8,0.125,103,90.0
1241,D2,93.0,0.25,96,90.0
1242,G#3,93.0,0.25,96,90.0
1243,F#2,93.25,0.25,52,90.0
1244,G#3,93.25,867/1000,47,90.0
1245,E-4,93.325,26/125,107,90.0
1246,F#2,93.5,0.25,84,90.0
1247,C4,93.5,29/40,58,90.0
1248,F#2,93.75,0.25,127,90.0
1249,F3,93.75,27/40,68,90.0
1250,F4,93.792,26/125,98,90.0
1251,B1,94.0,0.25,66,90.0
1252,F#2,94.0,0.25,66,90.0
1253,G4,94.117,121/500,91,90.0
1254,F#2,94.25,0.25,57,90.0
1255,G#3,94.25,471/500,53,90.0
1256,F#2,94.5,0.25,84,90.0
1257,C4,94.5,221/500,74,90.0
1258,F4,94.542,7/40,91,90.0
1259,F1,94.75,0.25,68,90.0
1260,F#2,94.75,0.25,121,90.0
1261,F3,94.75,379/500,55,90.0
1262,G#1,95.0,2/5,84,90.0
1263,E-4,95.0,867/1000,68,90.0
1264,D2,95.0,0.25,100,90.0
1265,G#3,95.0,0.25,100,90.0
1266,E-4,95.017,383/1000,98,90.0
1267,F#2,95.25,0.25,46,90.0
1268,C4,95.25,13/20,57,90.0
1269,F4,95.483,73/250,85,90.0
1270,F2,95.5,0.5,64,90.0
1271,F#2,95.5,0.25,80,90.0
1272,G#3,95.508,11/40,51,90.0
1273,F#2,95.75,0.25,127,90.0
1274,F3,95.75,0.25,59,90.0
1275,G4,95.783,217/1000,95,90.0
1276,E-2,96.0,221/500,99,90.0
1277,E-3,96.0,1.125,68,90.0
1278,D4,96.0,1279/500,63,90.0
1279,G4,96.0,1579/500,95,90.0
1280,B1,96.0,0.25,82,90.0
1281,F#2,96.0,0.25,82,90.0
1282,D4,96.0,4.0,86,90.0
1283,F4,96.0,4.0,86,90.0
1284,G3,96.0,4.0,86,90.0
1285,B-3,96.0,4.0,86,90.0
1286,F#2,96.25,0.25,31,90.0
1287,D2,96.5,0.25,81,90.0
1288,F#2,96.5,0.25,108,90.0
1289,G3,96.5,867/1000,52,90.0
1290,E-2,96.75,0.125,93,90.0
1291,F#2,96.75,0.25,118,90.0
1292,B-3,96.75,7/10,61,90.0
1293,D2,97.0,0.25,96,90.0
1294,G#3,97.0,0.25,96,90.0
1295,F#2,97.25,0.25,33,90.0
1296,E-3,97.25,99/125,87,90.0
1297,F#2,97.5,0.25,84,90.0
1298,G3,97.5,429/500,54,90.0
1299,F#2,97.75,0.25,71,90.0
1300,B-3,97.75,633/1000,68,90.0
1301,B1,98.0,0.25,98,90.0
1302,F#2,98.0,0.25,98,90.0
1303,F#2,98.25,0.25,33,90.0
1304,E-3,98.25,101/125,72,90.0
1305,F#2,98.5,0.25,76,90.0
1306,G3,98.5,27/40,56,90.0
1307,B-1,98.75,0.25,73,90.0
1308,F#2,98.75,0.25,105,90.0
1309,B-3,98.75,0.75,72,90.0
1310,D4,98.75,1.25,57,90.0
1311,D2,99.0,127/250,78,90.0
1312,D2,99.0,0.25,96,90.0
1313,G#3,99.0,0.25,96,90.0
1314,F#2,99.25,0.25,33,90.0
1315,E-3,99.25,123/250,64,90.0
1316,B-4,99.258,79/500,68,90.0
1317,F#2,99.5,0.25,108,90.0
1318,G3,99.5,49/125,57,90.0
1319,G#1,99.508,2/5,88,90.0
1320,C5,99.508,129/500,66,90.0
1321,F#2,99.75,0.25,93,90.0
1322,B-3,99.75,0.25,70,90.0
1323,E-5,99.783,217/1000,80,90.0
1324,A1,100.0,0.5,90,90.0
1325,E3,100.0,273/250,66,90.0
1326,E-5,100.0,476/125,80,90.0
1327,B1,100.0,0.25,82,90.0
1328,F#2,100.0,0.25,82,90.0
1329,G3,100.0,4.0,86,90.0
1330,B3,100.0,4.0,86,90.0
1331,C#4,100.0,4.0,86,90.0
1332,F#4,100.0,4.0,86,90.0
1333,G3,100.25,277/250,53,90.0
1334,F#2,100.25,0.25,44,90.0
1335,B-4,100.25,0.25,44,90.0
1336,G1,100.5,3/10,76,90.0
1337,B3,100.5,1017/1000,59,90.0
1338,F#2,100.5,0.25,75,90.0
1339,E-4,100.5,0.25,75,90.0
1340,C#4,100.75,27/10,70,90.0
1341,F#2,100.75,0.25,84,90.0
1342,B-4,100.75,0.25,84,90.0
1343,A1,100.8,0.125,103,90.0
1344,D2,101.0,0.25,81,90.0
1345,G#3,101.0,0.25,81,90.0
1346,E-4,101.0,0.25,81,90.0
1347,E3,101.25,833/1000,57,90.0
1348,F#2,101.25,0.25,44,90.0
1349,G#3,101.25,0.25,44,90.0
1350,F#3,101.25,0.25,44,90.0
1351,B-4,101.25,0.25,44,90.0
1352,G3,101.5,817/1000,53,90.0
1353,F#2,101.5,0.25,71,90.0
1354,G#3,101.5,0.25,71,90.0
1355,F#3,101.5,0.25,71,90.0
1356,B3,101.75,13/20,68,90.0
1357,B1,101.75,0.25,63,90.0
1358,F#2,101.75,0.25,63,90.0
1359,D4,101.75,0.25,63,90.0
1360,B-4,101.75,0.25,63,90.0
1361,B1,102.0,0.25,87,90.0
1362,F#2,102.0,0.25,87,90.0
1363,B-4,102.0,0.25,87,90.0
1364,E3,102.25,31/40,68,90.0
1365,F#2,102.25,0.25,33,90.0
1366,B-4,102.25,0.25,33,90.0
1367,A4,102.25,0.25,33,90.0
1368,G3,102.5,101/125,47,90.0
1369,F#2,102.5,0.25,51,90.0
1370,E-4,102.5,0.25,51,90.0
1371,A4,102.5,0.25,51,90.0
1372,E1,102.75,0.25,68,90.0
1373,B3,102.75,321/500,70,90.0
1374,D2,102.75,0.25,62,90.0
1375,F#2,102.75,0.25,62,90.0
1376,E-4,102.75,0.25,62,90.0
1377,B-4,102.75,0.25,62,90.0
1378,G1,103.0,2/5,84,90.0
1379,D2,103.0,0.25,86,90.0
1380,B-2,103.0,0.25,86,90.0
1381,G#3,103.0,0.25,86,90.0
1382,E3,103.25,533/1000,68,90.0
1383,B1,103.25,0.25,55,90.0
1384,E-4,103.25,0.25,55,90.0
1385,B-4,103.25,0.25,55,90.0
1386,E2,103.5,0.5,64,90.0
1387,G3,103.5,0.5,53,90.0
1388,C#4,103.5,171/500,10,90.0
1389,D2,103.5,0.25,90,90.0
1390,B-2,103.5,0.25,90,90.0
1391,A4,103.5,0.25,90,90.0
1392,E-4,103.75,0.25,57,90.0
1393,B3,103.75,0.25,53,90.0
1394,G#2,104.0,483/1000,98,90.0
1395,C4,104.0,2767/1000,85,90.0
1396,G#2,104.0,4.0,82,90.0
1397,B1,104.0,0.25,78,90.0
1398,F#2,104.0,0.25,78,90.0
1399,C#3,104.0,0.25,78,90.0
1400,E-4,104.0,0.25,78,90.0
1401,G4,104.25,13/5,68,90.0
1402,F#2,104.25,0.25,32,90.0
1403,E-4,104.25,0.25,32,90.0
1404,B-4,104.5,2.375,72,90.0
1405,F#2,104.5,0.25,90,90.0
1406,B-4,104.5,0.25,90,90.0
1407,E-5,104.75,3.25,87,90.0
1408,F#2,104.75,0.25,118,90.0
1409,D4,104.75,0.25,118,90.0
1410,D2,105.0,0.25,78,90.0
1411,E-4,105.0,0.25,78,90.0
1412,G4,105.033,129/500,105,90.0
1413,F#2,105.25,0.25,40,90.0
1414,G#3,105.25,0.25,40,90.0
1415,E-4,105.25,0.25,40,90.0
1416,F#3,105.25,0.25,40,90.0
1417,C4,105.5,121/500,82,90.0
1418,F#2,105.5,0.25,58,90.0
1419,G#3,105.5,0.25,58,90.0
1420,E-4,105.5,0.25,58,90.0
1421,F#3,105.5,0.25,58,90.0
1422,B-4,105.5,0.25,58,90.0
1423,G#2,105.75,933/1000,89,90.0
1424,B1,105.75,0.25,62,90.0
1425,F#2,105.75,0.25,62,90.0
1426,E-4,105.75,0.25,62,90.0
1427,A4,105.75,0.25,62,90.0
1428,E-4,105.775,89/40,82,90.0
1429,B1,106.0,0.25,80,90.0
1430,F#2,106.0,0.25,80,90.0
1431,A4,106.0,0.25,80,90.0
1432,F#2,106.25,0.25,58,90.0
1433,D4,106.25,0.25,58,90.0
1434,F#2,106.5,0.25,76,90.0
1435,B-4,106.5,0.25,76,90.0
1436,G#1,106.75,3/20,74,90.0
1437,F#2,106.75,0.25,71,90.0
1438,E-4,106.75,0.25,71,90.0
1439,G#2,107.0,49/125,85,90.0
1440,D2,107.0,0.25,113,90.0
1441,B-4,107.0,24/125,101,90.0
1442,C4,107.0,24/125,101,90.0
1443,G4,107.0,24/125,101,90.0
1444,F#2,107.25,0.25,54,90.0
1445,E-4,107.25,0.25,54,90.0
1446,G4,107.25,23/250,72,90.0
1447,C4,107.25,23/250,72,90.0
1448,B-4,107.25,23/250,72,90.0
1449,F#2,107.5,0.25,92,90.0
1450,E-4,107.5,0.25,92,90.0
1451,B-4,107.5,0.25,92,90.0
1452,F#2,107.75,0.25,92,90.0
1453,E-4,107.75,0.25,92,90.0
1454,B-4,107.75,0.25,92,90.0
1455,G2,108.0,483/1000,98,90.0
1456,B-3,108.0,2767/1000,85,90.0
1457,G2,108.0,4.0,82,90.0
1458,E-4,108.0,321/500,82,90.0
1459,B1,108.0,0.25,76,90.0
1460,F#2,108.0,0.25,76,90.0
1461,D4,108.0,0.25,76,90.0
1462,G4,108.0,4.0,40,90.0
1463,C5,108.0,4.0,40,90.0
1464,F4,108.25,13/5,68,90.0
1465,F#2,108.25,0.25,42,90.0
1466,D4,108.25,0.25,42,90.0
1467,G4,108.5,2.375,72,90.0
1468,F#2,108.5,0.25,47,90.0
1469,E-4,108.5,0.25,47,90.0
1470,B-4,108.5,0.25,47,90.0
1471,D5,108.75,3.25,87,90.0
1472,F#2,108.75,0.25,98,90.0
1473,D4,108.75,0.25,98,90.0
1474,D2,109.0,0.25,71,90.0
1475,E-4,109.0,0.25,71,90.0
1476,F#2,109.25,0.25,50,90.0
1477,G#3,109.25,0.25,50,90.0
1478,D4,109.25,0.25,50,90.0
1479,F#3,109.25,0.25,50,90.0
1480,F#2,109.5,0.25,54,90.0
1481,G#3,109.5,0.25,54,90.0
1482,E-4,109.5,0.25,54,90.0
1483,F#3,109.5,0.25,54,90.0
1484,B-4,109.5,0.25,54,90.0
1485,G2,109.75,933/1000,89,90.0
1486,B1,109.75,0.25,74,90.0
1487,F#2,109.75,0.25,74,90.0
1488,E-4,109.75,0.25,74,90.0
1489,A4,109.75,0.25,74,90.0
1490,B-4,109.783,233/1000,107,90.0
1491,B1,110.0,0.25,58,90.0
1492,F#2,110.0,0.25,58,90.0
1493,A4,110.0,0.25,58,90.0
1494,F#2,110.25,0.25,60,90.0
1495,E-4,110.25,0.25,60,90.0
1496,B-4,110.258,9/40,100,90.0
1497,F#2,110.5,0.25,72,90.0
1498,E-4,110.5,0.25,72,90.0
1499,B-4,110.5,0.25,72,90.0
1500,G1,110.75,3/20,74,90.0
1501,F#2,110.75,0.25,114,90.0
1502,D4,110.75,0.25,114,90.0
1503,F#4,110.775,117/1000,102,90.0
1504,G4,110.858,9/40,102,90.0
1505,G2,111.0,49/125,85,90.0
1506,D2,111.0,0.25,85,90.0
1507,E-4,111.0,0.25,85,90.0
1508,G4,111.0,24/125,101,90.0
1509,B-3,111.0,24/125,101,90.0
1510,F4,111.0,24/125,101,90.0
1511,G4,111.25,0.5,102,90.0
1512,F#2,111.25,0.25,52,90.0
1513,E-4,111.25,0.25,52,90.0
1514,F4,111.25,23/250,72,90.0
1515,B-3,111.25,23/250,72,90.0
1516,G4,111.25,23/250,72,90.0
1517,B-2,111.5,0.25,86,90.0
1518,E-4,111.5,0.25,86,90.0
1519,B-4,111.5,0.25,86,90.0
1520,E-4,111.75,0.25,73,90.0
1521,B-4,111.75,0.25,73,90.0
1522,F2,112.0,9/20,89,90.0
1523,F4,112.0,823/250,100,90.0
1524,B1,112.0,0.25,70,90.0
1525,F#2,112.0,0.25,70,90.0
1526,E-4,112.0,0.25,70,90.0
1527,E-4,112.0,267/1000,87,90.0
1528,G#3,112.0,267/1000,87,90.0
1529,F4,112.0,4.0,40,90.0
1530,B-4,112.0,4.0,40,90.0
1531,F#2,112.25,0.25,43,90.0
1532,E-4,112.25,0.25,43,90.0
1533,F#2,112.5,0.25,81,90.0
1534,E-4,112.5,0.25,81,90.0
1535,B-4,112.5,0.25,81,90.0
1536,G#3,112.5,267/1000,92,90.0
1537,E-4,112.5,267/1000,92,90.0
1538,F#2,112.75,0.25,108,90.0
1539,D4,112.75,0.25,108,90.0
1540,D2,113.0,0.25,71,90.0
1541,E-4,113.0,0.25,71,90.0
1542,F#2,113.25,0.25,36,90.0
1543,G#3,113.25,0.25,36,90.0
1544,E-4,113.25,0.25,36,90.0
1545,F#3,113.25,0.25,36,90.0
1546,E-4,113.25,133/1000,91,90.0
1547,G#3,113.25,133/1000,91,90.0
1548,F#2,113.5,0.25,62,90.0
1549,G#3,113.5,0.25,62,90.0
1550,E-4,113.5,0.25,62,90.0
1551,F#3,113.5,0.25,62,90.0
1552,B-4,113.5,0.25,62,90.0
1553,F2,113.75,1.0,85,90.0
1554,B1,113.75,0.25,75,90.0
1555,F#2,113.75,0.25,75,90.0
1556,E-4,113.75,0.25,75,90.0
1557,A4,113.75,0.25,75,90.0
1558,B1,114.0,0.25,81,90.0
1559,F#2,114.0,0.25,81,90.0
1560,A4,114.0,0.25,81,90.0
1561,F#2,114.25,0.25,33,90.0
1562,F2,114.25,167/1000,80,90.0
1563,F#2,114.5,0.25,63,90.0
1564,E-4,114.5,0.25,63,90.0
1565,B-4,114.5,0.25,63,90.0
1566,C2,114.75,1/5,80,90.0
1567,F2,114.75,23/250,93,90.0
1568,F#2,114.75,0.25,102,90.0
1569,D4,114.75,0.25,102,90.0
1570,E-2,115.0,229/500,91,90.0
1571,D2,115.0,0.25,84,90.0
1572,E-4,115.0,0.25,84,90.0
1573,E-4,115.0,13/40,91,90.0
1574,G#3,115.0,13/40,91,90.0
1575,F#2,115.25,0.25,42,90.0
1576,E-4,115.25,0.25,42,90.0
1577,F2,115.5,179/500,95,90.0
1578,E-4,115.5,0.375,89,90.0
1579,G#3,115.5,3/10,87,90.0
1580,F#2,115.5,0.25,100,90.0
1581,E-4,115.5,0.25,100,90.0
1582,B-4,115.5,0.25,100,90.0
1583,E-4,115.558,167/1000,56,90.0
1584,F#2,115.75,0.25,80,90.0
1585,E-4,115.75,0.25,80,90.0
1586,B-4,115.75,0.25,80,90.0
1587,F4,115.833,167/1000,68,90.0
1588,C2,116.0,9/20,89,90.0
1589,B-3,116.0,2767/1000,85,90.0
1590,C3,116.0,4.0,82,90.0
1591,F4,116.0,1/40,68,90.0
1592,B1,116.0,0.25,93,90.0
1593,F#2,116.0,0.25,93,90.0
1594,E-4,116.0,0.25,93,90.0
1595,E-4,116.0,4.0,40,90.0
1596,G#4,116.0,4.0,40,90.0
1597,G4,116.083,129/500,102,90.0
1598,E-4,116.25,13/5,68,90.0
1599,F#2,116.25,0.25,43,90.0
1600,E-4,116.25,0.25,43,90.0
1601,G4,116.5,2.375,72,90.0
1602,F#2,116.5,0.25,59,90.0
1603,E-4,116.5,0.25,59,90.0
1604,B-4,116.5,0.25,59,90.0
1605,G4,116.525,7/40,63,90.0
1606,C5,116.75,3.25,87,90.0
1607,F#2,116.75,0.25,112,90.0
1608,D4,116.75,0.25,112,90.0
1609,F4,116.825,9/40,100,90.0
1610,D2,117.0,0.25,71,90.0
1611,E-4,117.0,0.25,71,90.0
1612,F#2,117.25,0.25,36,90.0
1613,G#3,117.25,0.25,36,90.0
1614,E-4,117.25,0.25,36,90.0
1615,F#3,117.25,0.25,36,90.0
1616,F4,117.275,283/1000,85,90.0
1617,F#2,117.5,0.25,71,90.0
1618,G#3,117.5,0.25,71,90.0
1619,E-4,117.5,0.25,71,90.0
1620,F#3,117.5,0.25,71,90.0
1621,B-4,117.5,0.25,71,90.0
1622,C2,117.75,1.0,85,90.0
1623,B1,117.75,0.25,67,90.0
1624,F#2,117.75,0.25,67,90.0
1625,E-4,117.75,0.25,67,90.0
1626,A4,117.75,0.25,67,90.0
1627,E-4,117.783,9/40,91,90.0
1628,B1,118.0,0.25,65,90.0
1629,F#2,118.0,0.25,65,90.0
1630,A4,118.0,0.25,65,90.0
1631,F#2,118.25,0.25,127,90.0
1632,E-4,118.292,129/500,93,90.0
1633,F#2,118.5,0.25,50,90.0
1634,E-4,118.5,0.25,50,90.0
1635,B-4,118.5,0.25,50,90.0
1636,G1,118.75,1/5,80,90.0
1637,F#2,118.75,0.25,69,90.0
1638,D4,118.75,0.25,69,90.0
1639,E-4,118.808,24/125,102,90.0
1640,B-1,119.0,229/500,91,90.0
1641,D2,119.0,0.25,84,90.0
1642,E-4,119.0,0.25,84,90.0
1643,G4,119.0,24/125,101,90.0
1644,B-3,119.0,24/125,101,90.0
1645,E-4,119.0,24/125,101,90.0
1646,C4,119.042,9/40,72,90.0
1647,F#2,119.25,0.25,70,90.0
1648,E-4,119.25,0.25,70,90.0
1649,E-4,119.25,23/250,72,90.0
1650,B-3,119.25,23/250,72,90.0
1651,G4,119.25,23/250,72,90.0
1652,E-4,119.3,26/125,98,90.0
1653,C2,119.5,179/500,95,90.0
1654,F#2,119.5,0.25,83,90.0
1655,E-4,119.5,0.25,83,90.0
1656,B-4,119.5,0.25,83,90.0
1657,F4,119.558,26/125,102,90.0
1658,B-2,119.75,0.25,79,90.0
1659,E-4,119.75,0.25,79,90.0
1660,B-4,119.75,0.25,79,90.0
1661,G#2,120.0,23/20,102,90.0
1662,B1,120.0,0.25,83,90.0
1663,F#2,120.0,0.25,83,90.0
1664,E-4,120.0,0.25,83,90.0
1665,E-4,120.0,4.0,40,90.0
1666,B-4,120.0,4.0,40,90.0
1667,G4,120.025,27/250,99,90.0
1668,B-4,120.025,27/250,99,90.0
1669,C4,120.025,27/250,99,90.0
1670,E-4,120.025,27/250,99,90.0
1671,E-4,120.05,0.375,102,90.0
1672,F#2,120.25,0.25,43,90.0
1673,E-4,120.25,0.25,43,90.0
1674,G4,120.25,0.125,81,90.0
1675,B-4,120.25,0.125,81,90.0
1676,C4,120.25,0.125,81,90.0
1677,E-4,120.25,0.125,81,90.0
1678,F#2,120.5,0.25,81,90.0
1679,E-4,120.5,0.25,81,90.0
1680,B-4,120.5,0.25,81,90.0
1681,F#2,120.75,0.25,112,90.0
1682,D4,120.75,0.25,112,90.0
1683,D2,121.0,0.25,70,90.0
1684,E-4,121.0,0.25,70,90.0
1685,F#4,121.075,79/500,110,90.0
1686,G4,121.133,0.25,100,90.0
1687,G2,121.25,1/10,82,90.0
1688,B-2,121.25,0.25,41,90.0
1689,G#3,121.25,0.25,41,90.0
1690,E-4,121.25,0.25,41,90.0
1691,F#3,121.25,0.25,41,90.0
1692,G4,121.258,23/250,97,90.0
1693,B-4,121.258,23/250,97,90.0
1694,C4,121.258,23/250,97,90.0
1695,E-4,121.258,23/250,97,90.0
1696,G2,121.5,167/1000,63,90.0
1697,F#2,121.5,0.25,62,90.0
1698,G#3,121.5,0.25,62,90.0
1699,E-4,121.5,0.25,62,90.0
1700,F#3,121.5,0.25,62,90.0
1701,B-4,121.5,0.25,62,90.0
1702,C4,121.533,9/40,85,90.0
1703,G#2,121.75,1.0,89,90.0
1704,B1,121.75,0.25,67,90.0
1705,F#2,121.75,0.25,67,90.0
1706,E-4,121.75,0.25,67,90.0
1707,A4,121.75,0.25,67,90.0
1708,G#2,121.758,233/1000,94,90.0
1709,E-4,121.825,87/40,85,90.0
1710,B1,122.0,0.25,84,90.0
1711,F#2,122.0,0.25,84,90.0
1712,A4,122.0,0.25,84,90.0
1713,F#2,122.25,0.25,33,90.0
1714,G4,122.292,1/10,88,90.0
1715,B-4,122.292,1/10,88,90.0
1716,C4,122.292,1/10,88,90.0
1717,E-4,122.292,1/10,88,90.0
1718,F#2,122.5,0.25,63,90.0
1719,E-4,122.5,0.25,63,90.0
1720,B-4,122.5,0.25,63,90.0
1721,E-2,122.75,71/500,72,90.0
1722,F#2,122.75,0.25,99,90.0
1723,D4,122.75,0.25,99,90.0
1724,G#2,122.758,3/40,88,90.0
1725,G2,123.0,3/10,85,90.0
1726,D2,123.0,0.25,71,90.0
1727,F#2,123.0,0.25,71,90.0
1728,E-4,123.0,0.25,71,90.0
1729,G4,123.042,233/1000,86,90.0
1730,B-4,123.042,233/1000,86,90.0
1731,C4,123.042,233/1000,86,90.0
1732,E-4,123.042,233/1000,86,90.0
1733,E-2,123.25,183/1000,55,90.0
1734,F#2,123.25,0.25,42,90.0
1735,E-4,123.25,0.25,42,90.0
1736,G2,123.5,3/10,80,90.0
1737,F#2,123.5,0.25,106,90.0
1738,E-4,123.5,0.25,106,90.0
1739,B-4,123.5,0.25,106,90.0
1740,G4,123.508,79/500,97,90.0
1741,B-4,123.508,79/500,97,90.0
1742,C4,123.508,79/500,97,90.0
1743,E-4,123.508,79/500,97,90.0
1744,F#2,123.75,0.25,80,90.0
1745,E-4,123.75,0.25,80,90.0
1746,B-4,123.75,0.25,80,90.0
1747,E-2,123.8,7/40,51,90.0
1748,G#2,124.0,317/1000,87,90.0
1749,E-4,124.0,17/10,85,90.0
1750,B1,124.0,0.25,93,90.0
1751,F#2,124.0,0.25,93,90.0
1752,E-4,124.0,0.25,93,90.0
1753,G4,124.0,4.0,40,90.0
1754,C5,124.0,4.0,40,90.0
1755,F#2,124.25,0.25,43,90.0
1756,E-4,124.25,0.25,43,90.0
1757,F#2,124.5,0.25,59,90.0
1758,E-4,124.5,0.25,59,90.0
1759,B-4,124.5,0.25,59,90.0
1760,F#2,124.75,0.25,112,90.0
1761,D4,124.75,0.25,112,90.0
1762,D2,125.0,0.25,71,90.0
1763,E-4,125.0,0.25,71,90.0
1764,F#2,125.25,0.25,36,90.0
1765,G#3,125.25,0.25,36,90.0
1766,E-4,125.25,0.25,36,90.0
1767,F#3,125.25,0.25,36,90.0
1768,F#2,125.5,0.25,71,90.0
1769,G#3,125.5,0.25,71,90.0
1770,E-4,125.5,0.25,71,90.0
1771,F#3,125.5,0.25,71,90.0
1772,B-4,125.5,0.25,71,90.0
1773,G#1,125.75,0.25,56,90.0
1774,B1,125.75,0.25,67,90.0
1775,F#2,125.75,0.25,67,90.0
1776,E-4,125.75,0.25,67,90.0
1777,A4,125.75,0.25,67,90.0
1778,E-4,125.775,0.25,78,90.0
1779,G#2,126.0,77/250,87,90.0
1780,B-2,126.0,3/40,40,90.0
1781,B1,126.0,0.25,65,90.0
1782,F#2,126.0,0.25,65,90.0
1783,A4,126.0,0.25,65,90.0
1784,B-4,126.1,3/10,102,90.0
1785,F#2,126.25,0.25,127,90.0
1786,B-4,126.492,283/1000,100,90.0
1787,F#2,126.5,0.25,50,90.0
1788,E-4,126.5,0.25,50,90.0
1789,B-4,126.5,0.25,50,90.0
1790,F#2,126.75,0.25,69,90.0
1791,D4,126.75,0.25,69,90.0
1792,G#2,126.783,133/1000,67,90.0
1793,F#4,126.792,121/500,91,90.0
1794,G4,126.867,9/40,100,90.0
1795,D2,127.0,0.25,84,90.0
1796,E-4,127.0,0.25,84,90.0
1797,G4,127.05,3/20,104,90.0
1798,B-4,127.05,3/20,104,90.0
1799,C4,127.05,3/20,104,90.0
1800,E-4,127.05,3/20,104,90.0
1801,B-2,127.25,0.25,52,90.0
1802,E-4,127.25,0.25,52,90.0
1803,G4,127.292,19/40,68,90.0
1804,G4,127.292,23/250,67,90.0
1805,B-4,127.292,23/250,67,90.0
1806,C4,127.292,23/250,67,90.0
1807,E-4,127.292,23/250,67,90.0
1808,F4,127.3,217/1000,85,90.0
1809,F#2,127.5,0.25,83,90.0
1810,E-4,127.5,0.25,83,90.0
1811,B-4,127.5,0.25,83,90.0
1812,G#2,127.75,23/250,76,90.0
1813,F4,127.75,0.25,89,90.0
1814,F#2,127.75,0.25,84,90.0
1815,B-2,127.75,0.25,84,90.0
1816,E-4,127.75,0.25,84,90.0
1817,B-4,127.75,0.25,84,90.0
1818,C#2,128.0,483/1000,98,90.0
1819,F4,128.0,2967/1000,89,90.0
1820,B1,128.0,0.25,70,90.0
1821,F#2,128.0,0.25,70,90.0
1822,E-4,128.0,0.25,70,90.0
1823,B3,128.0,0.125,98,90.0
1824,E-5,128.0,0.125,98,90.0
1825,F4,128.0,0.125,98,90.0
1826,B-4,128.0,0.125,98,90.0
1827,F#2,128.25,0.25,43,90.0
1828,E-4,128.25,0.25,43,90.0
1829,F#2,128.5,0.25,81,90.0
1830,E-4,128.5,0.25,81,90.0
1831,B-4,128.5,0.25,81,90.0
1832,B3,128.5,0.125,102,90.0
1833,E-5,128.5,0.125,102,90.0
1834,F4,128.5,0.125,102,90.0
1835,B-4,128.5,0.125,102,90.0
1836,F#2,128.75,0.25,108,90.0
1837,D4,128.75,0.25,108,90.0
1838,D2,129.0,0.25,71,90.0
1839,E-4,129.0,0.25,71,90.0
1840,F#2,129.25,0.25,36,90.0
1841,G#3,129.25,0.25,36,90.0
1842,E-4,129.25,0.25,36,90.0
1843,F#3,129.25,0.25,36,90.0
1844,B3,129.25,1/10,105,90.0
1845,E-5,129.25,1/10,105,90.0
1846,F4,129.25,1/10,105,90.0
1847,B-4,129.25,1/10,105,90.0
1848,F#2,129.5,0.25,62,90.0
1849,G#3,129.5,0.25,62,90.0
1850,E-4,129.5,0.25,62,90.0
1851,F#3,129.5,0.25,62,90.0
1852,B-4,129.5,0.25,62,90.0
1853,C#2,129.75,933/1000,89,90.0
1854,B1,129.75,0.25,75,90.0
1855,F#2,129.75,0.25,75,90.0
1856,E-4,129.75,0.25,75,90.0
1857,A4,129.75,0.25,75,90.0
1858,C#3,129.75,26/125,88,90.0
1859,C#2,129.75,26/125,88,90.0
1860,B1,130.0,0.25,81,90.0
1861,F#2,130.0,0.25,81,90.0
1862,A4,130.0,0.25,81,90.0
1863,F#2,130.25,0.25,33,90.0
1864,B3,130.25,23/250,102,90.0
1865,E-5,130.25,23/250,102,90.0
1866,F4,130.25,23/250,102,90.0
1867,B-4,130.25,23/250,102,90.0
1868,F#2,130.5,0.25,63,90.0
1869,E-4,130.5,0.25,63,90.0
1870,B-4,130.5,0.25,63,90.0
1871,C#1,130.75,3/20,74,90.0
1872,F#2,130.75,0.25,102,90.0
1873,D4,130.75,0.25,102,90.0
1874,C#3,130.75,183/1000,78,90.0
1875,C#2,130.75,183/1000,78,90.0
1876,C#2,131.0,49/125,85,90.0
1877,D2,131.0,0.25,84,90.0
1878,E-4,131.0,0.25,84,90.0
1879,B3,131.0,133/1000,110,90.0
1880,E-5,131.0,133/1000,110,90.0
1881,F4,131.0,133/1000,110,90.0
1882,B-4,131.0,133/1000,110,90.0
1883,G4,131.025,9/40,105,90.0
1884,F#2,131.25,0.25,42,90.0
1885,E-4,131.25,0.25,42,90.0
1886,F#2,131.5,0.25,100,90.0
1887,E-4,131.5,0.25,100,90.0
1888,B-4,131.5,0.25,100,90.0
1889,C#3,131.5,73/250,87,90.0
1890,C#2,131.5,73/250,87,90.0
1891,F4,131.525,233/1000,102,90.0
1892,F#2,131.75,0.25,80,90.0
1893,E-4,131.75,0.25,80,90.0
1894,B-4,131.75,0.25,80,90.0
1895,C2,132.0,1633/1000,91,90.0
1896,B1,132.0,0.25,82,90.0
1897,F#2,132.0,0.25,82,90.0
1898,E4,132.0,267/1000,87,90.0
1899,B-3,132.0,267/1000,87,90.0
1900,G4,132.0,4.0,40,90.0
1901,C5,132.0,4.0,40,90.0
1902,E-4,132.05,7/40,98,90.0
1903,F#2,132.25,0.25,31,90.0
1904,C4,132.3,129/500,74,90.0
1905,F#2,132.5,0.25,108,90.0
1906,B-3,132.5,267/1000,92,90.0
1907,E4,132.5,267/1000,92,90.0
1908,F#2,132.75,0.25,118,90.0
1909,C4,132.783,12/5,82,90.0
1910,D2,133.0,0.25,96,90.0
1911,G#3,133.0,0.25,96,90.0
1912,F#2,133.25,0.25,33,90.0
1913,E4,133.25,133/1000,91,90.0
1914,B-3,133.25,133/1000,91,90.0
1915,F#2,133.5,0.25,84,90.0
1916,C2,133.75,1.5,85,90.0
1917,D2,133.75,0.25,72,90.0
1918,D2,134.0,0.25,120,90.0
1919,B-2,134.0,0.25,120,90.0
1920,B-4,134.25,1.75,10,90.0
1921,B1,134.25,0.25,60,90.0
1922,F#2,134.25,0.25,60,90.0
1923,C2,134.25,7/40,92,90.0
1924,C3,134.25,7/40,92,90.0
1925,B1,134.5,0.25,96,90.0
1926,C3,134.75,0.25,92,90.0
1927,C3,134.75,117/1000,86,90.0
1928,C2,134.75,117/1000,86,90.0
1929,G#3,135.0,0.25,66,90.0
1930,E4,135.0,13/40,91,90.0
1931,B-3,135.0,13/40,91,90.0
1932,G1,135.25,129/500,57,90.0
1933,A2,135.25,0.25,62,90.0
1934,E4,135.5,0.375,89,90.0
1935,B-3,135.5,3/10,87,90.0
1936,B1,135.5,0.25,78,90.0
1937,C#3,135.5,0.25,78,90.0
1938,C2,135.508,51/125,87,90.0
1939,F2,136.0,9/20,89,90.0
1940,B1,136.0,0.25,78,90.0
1941,F#2,136.0,0.25,78,90.0
1942,C#3,136.0,0.25,78,90.0
1943,E-4,136.0,0.25,78,90.0
1944,E-4,136.0,267/1000,87,90.0
1945,G#3,136.0,267/1000,87,90.0
1946,F4,136.0,4.0,39,90.0
1947,B3,136.0,4.0,39,90.0
1948,F#2,136.25,0.25,32,90.0
1949,E-4,136.25,0.25,32,90.0
1950,F#2,136.5,0.25,90,90.0
1951,B-4,136.5,0.25,90,90.0
1952,G#3,136.5,267/1000,92,90.0
1953,E-4,136.5,267/1000,92,90.0
1954,B-4,136.567,26/125,47,90.0
1955,F#2,136.75,0.25,118,90.0
1956,D4,136.75,0.25,118,90.0
1957,C5,136.825,3/20,82,90.0
1958,D2,137.0,0.25,78,90.0
1959,E-4,137.0,0.25,78,90.0
1960,E-5,137.075,317/1000,105,90.0
1961,F#2,137.25,0.25,40,90.0
1962,G#3,137.25,0.25,40,90.0
1963,E-4,137.25,0.25,40,90.0
1964,F#3,137.25,0.25,40,90.0
1965,E-4,137.25,133/1000,91,90.0
1966,G#3,137.25,133/1000,91,90.0
1967,F#2,137.5,0.25,58,90.0
1968,G#3,137.5,0.25,58,90.0
1969,E-4,137.5,0.25,58,90.0
1970,F#3,137.5,0.25,58,90.0
1971,B-4,137.5,0.25,58,90.0
1972,C5,137.542,1/5,52,90.0
1973,F2,137.75,1.0,85,90.0
1974,B1,137.75,0.25,62,90.0
1975,F#2,137.75,0.25,62,90.0
1976,E-4,137.75,0.25,62,90.0
1977,A4,137.75,0.25,62,90.0
1978,E-5,137.825,9/40,98,90.0
1979,B1,138.0,0.25,80,90.0
1980,F#2,138.0,0.25,80,90.0
1981,A4,138.0,0.25,80,90.0
1982,F2,138.25,167/1000,80,90.0
1983,F#2,138.25,0.25,58,90.0
1984,D4,138.25,0.25,58,90.0
1985,F5,138.292,9/40,93,90.0
1986,F#2,138.5,0.25,76,90.0
1987,B-4,138.5,0.25,76,90.0
1988,C2,138.75,1/5,80,90.0
1989,F2,138.75,23/250,93,90.0
1990,F#2,138.75,0.25,71,90.0
1991,E-4,138.75,0.25,71,90.0
1992,E-5,138.758,617/1000,100,90.0
1993,E-2,139.0,229/500,91,90.0
1994,D2,139.0,0.25,113,90.0
1995,E-4,139.0,13/40,91,90.0
1996,G#3,139.0,13/40,91,90.0
1997,F#2,139.25,0.25,54,90.0
1998,E-4,139.25,0.25,54,90.0
1999,F2,139.5,179/500,95,90.0
2000,E-4,139.5,0.375,89,90.0
2001,G#3,139.5,3/10,87,90.0
2002,F#2,139.5,0.25,92,90.0
2003,E-4,139.5,0.25,92,90.0
2004,B-4,139.5,0.25,92,90.0
2005,F#2,139.75,0.25,92,90.0
2006,E-4,139.75,0.25,92,90.0
2007,B-4,139.75,0.25,92,90.0
2008,B-1,140.0,9/20,89,90.0
2009,B1,140.0,0.25,93,90.0
2010,F#2,140.0,0.25,93,90.0
2011,E-4,140.0,0.25,93,90.0
2012,G#3,140.0,0.125,98,90.0
2013,C4,140.0,0.125,98,90.0
2014,E-4,140.0,0.125,98,90.0
2015,F4,140.0,0.125,98,90.0
2016,E4,140.0,4.0,40,90.0
2017,B-4,140.0,4.0,40,90.0
2018,F#5,140.033,3/40,64,90.0
2019,G5,140.092,79/500,89,90.0
2020,F#2,140.25,0.25,43,90.0
2021,E-4,140.25,0.25,43,90.0
2022,B-5,140.308,3/20,102,90.0
2023,F#2,140.5,0.25,59,90.0
2024,E-4,140.5,0.25,59,90.0
2025,B-4,140.5,0.25,59,90.0
2026,G#3,140.5,0.125,102,90.0
2027,C4,140.5,0.125,102,90.0
2028,E-4,140.5,0.125,102,90.0
2029,F4,140.5,0.125,102,90.0
2030,B-5,140.55,7/40,95,90.0
2031,F#2,140.75,0.25,112,90.0
2032,D4,140.75,0.25,112,90.0
2033,G5,140.783,3/20,57,90.0
2034,D2,141.0,0.25,71,90.0
2035,E-4,141.0,0.25,71,90.0
2036,C6,141.058,26/125,105,90.0
2037,F#2,141.25,0.25,36,90.0
2038,G#3,141.25,0.25,36,90.0
2039,E-4,141.25,0.25,36,90.0
2040,F#3,141.25,0.25,36,90.0
2041,G#3,141.25,1/10,105,90.0
2042,C4,141.25,1/10,105,90.0
2043,E-4,141.25,1/10,105,90.0
2044,F4,141.25,1/10,105,90.0
2045,G5,141.458,1/5,63,90.0
2046,F#2,141.5,0.25,71,90.0
2047,G#3,141.5,0.25,71,90.0
2048,E-4,141.5,0.25,71,90.0
2049,F#3,141.5,0.25,71,90.0
2050,B-4,141.5,0.25,71,90.0
2051,B-1,141.75,1.0,85,90.0
2052,B-5,141.75,273/250,87,90.0
2053,B1,141.75,0.25,67,90.0
2054,F#2,141.75,0.25,67,90.0
2055,E-4,141.75,0.25,67,90.0
2056,A4,141.75,0.25,67,90.0
2057,B-2,141.75,26/125,88,90.0
2058,B-1,141.75,26/125,88,90.0
2059,B1,142.0,0.25,65,90.0
2060,F#2,142.0,0.25,65,90.0
2061,A4,142.0,0.25,65,90.0
2062,F#2,142.25,0.25,127,90.0
2063,G#3,142.25,23/250,102,90.0
2064,C4,142.25,23/250,102,90.0
2065,E-4,142.25,23/250,102,90.0
2066,F4,142.25,23/250,102,90.0
2067,F#2,142.5,0.25,50,90.0
2068,E-4,142.5,0.25,50,90.0
2069,B-4,142.5,0.25,50,90.0
2070,F1,142.75,1/5,80,90.0
2071,F#2,142.75,0.25,69,90.0
2072,D4,142.75,0.25,69,90.0
2073,B-2,142.75,183/1000,78,90.0
2074,B-1,142.75,183/1000,78,90.0
2075,G#1,143.0,229/500,91,90.0
2076,D2,143.0,0.25,84,90.0
2077,E-4,143.0,0.25,84,90.0
2078,G#3,143.0,133/1000,110,90.0
2079,C4,143.0,133/1000,110,90.0
2080,E-4,143.0,133/1000,110,90.0
2081,F4,143.0,133/1000,110,90.0
2082,B-2,143.25,0.25,52,90.0
2083,E-4,143.25,0.25,52,90.0
2084,G5,143.275,183/1000,105,90.0
2085,B-1,143.5,179/500,95,90.0
2086,F#2,143.5,0.25,83,90.0
2087,E-4,143.5,0.25,83,90.0
2088,B-4,143.5,0.25,83,90.0
2089,B-2,143.5,73/250,87,90.0
2090,B-1,143.5,73/250,87,90.0
2091,F5,143.533,3/20,66,90.0
2092,F#2,143.75,0.25,84,90.0
2093,B-2,143.75,0.25,84,90.0
2094,E-4,143.75,0.25,84,90.0
2095,B-4,143.75,0.25,84,90.0
2096,E-5,143.775,167/1000,80,90.0
2097,E-2,144.0,9/20,89,90.0
2098,G3,144.0,2767/1000,85,90.0
2099,E-2,144.0,4.0,82,90.0
2100,B1,144.0,0.25,83,90.0
2101,F#2,144.0,0.25,83,90.0
2102,E-4,144.0,0.25,83,90.0
2103,E-4,144.0,4.0,40,90.0
2104,G#4,144.0,4.0,40,90.0
2105,D5,144.042,7/20,102,90.0
2106,D4,144.25,13/5,68,90.0
2107,F#2,144.25,0.25,43,90.0
2108,E-4,144.25,0.25,43,90.0
2109,F4,144.5,2.375,72,90.0
2110,F#2,144.5,0.25,81,90.0
2111,E-4,144.5,0.25,81,90.0
2112,B-4,144.5,0.25,81,90.0
2113,E-5,144.558,7/40,102,90.0
2114,B-4,144.75,3.25,87,90.0
2115,F#2,144.75,0.25,112,90.0
2116,D4,144.75,0.25,112,90.0
2117,C5,144.825,121/500,85,90.0
2118,D2,145.0,0.25,70,90.0
2119,E-4,145.0,0.25,70,90.0
2120,F#2,145.25,0.25,39,90.0
2121,B-2,145.25,0.25,39,90.0
2122,G#3,145.25,0.25,39,90.0
2123,E-4,145.25,0.25,39,90.0
2124,F#3,145.25,0.25,39,90.0
2125,D5,145.308,24/125,95,90.0
2126,F#2,145.5,0.25,62,90.0
2127,G#3,145.5,0.25,62,90.0
2128,E-4,145.5,0.25,62,90.0
2129,F#3,145.5,0.25,62,90.0
2130,B-4,145.5,0.25,62,90.0
2131,E-2,145.75,1.0,85,90.0
2132,B1,145.75,0.25,67,90.0
2133,F#2,145.75,0.25,67,90.0
2134,E-4,145.75,0.25,67,90.0
2135,A4,145.75,0.25,67,90.0
2136,B-4,145.775,233/1000,91,90.0
2137,B1,146.0,0.25,84,90.0
2138,F#2,146.0,0.25,84,90.0
2139,A4,146.0,0.25,84,90.0
2140,F#2,146.25,0.25,33,90.0
2141,C5,146.25,183/1000,105,90.0
2142,F#2,146.5,0.25,63,90.0
2143,E-4,146.5,0.25,63,90.0
2144,B-4,146.5,0.25,63,90.0
2145,G4,146.717,1/5,68,90.0
2146,B-1,146.75,1/5,80,90.0
2147,F#2,146.75,0.25,99,90.0
2148,D4,146.75,0.25,99,90.0
2149,D2,147.0,229/500,91,90.0
2150,D2,147.0,0.25,71,90.0
2151,F#2,147.0,0.25,71,90.0
2152,E-4,147.0,0.25,71,90.0
2153,F4,147.0,24/125,101,90.0
2154,G3,147.0,24/125,101,90.0
2155,D4,147.0,24/125,101,90.0
2156,B-4,147.017,179/500,107,90.0
2157,F#2,147.25,0.25,42,90.0
2158,E-4,147.25,0.25,42,90.0
2159,D4,147.25,23/250,72,90.0
2160,G3,147.25,23/250,72,90.0
2161,F4,147.25,23/250,72,90.0
2162,E-2,147.5,179/500,95,90.0
2163,F#2,147.5,0.25,106,90.0
2164,E-4,147.5,0.25,106,90.0
2165,B-4,147.5,0.25,106,90.0
2166,F#2,147.75,0.25,80,90.0
2167,E-4,147.75,0.25,80,90.0
2168,B-4,147.75,0.25,80,90.0
2169,C#2,148.0,283/1000,91,90.0
2170,B1,148.0,0.25,70,90.0
2171,F#2,148.0,0.25,70,90.0
2172,E-4,148.0,0.25,70,90.0
2173,B3,148.0,7/40,88,90.0
2174,E-4,148.0,7/40,88,90.0
2175,F3,148.0,7/40,88,90.0
2176,B-3,148.0,7/40,88,90.0
2177,E-4,148.0,4.0,40,90.0
2178,G#4,148.0,4.0,40,90.0
2179,F#2,148.25,0.25,43,90.0
2180,E-4,148.25,0.25,43,90.0
2181,B-4,148.292,1/5,93,90.0
2182,G#4,148.475,26/125,66,90.0
2183,C#2,148.5,7/20,98,90.0
2184,F#2,148.5,0.25,81,90.0
2185,E-4,148.5,0.25,81,90.0
2186,B-4,148.5,0.25,81,90.0
2187,B3,148.5,0.125,86,90.0
2188,E-4,148.5,0.125,86,90.0
2189,F3,148.5,0.125,86,90.0
2190,B-3,148.5,0.125,86,90.0
2191,E-4,148.7,133/1000,63,90.0
2192,F#2,148.75,0.25,108,90.0
2193,D4,148.75,0.25,108,90.0
2194,B3,148.808,7/40,85,90.0
2195,D2,149.0,0.25,71,90.0
2196,E-4,149.0,0.25,71,90.0
2197,B-3,149.058,26/125,95,90.0
2198,C#2,149.25,9/40,105,90.0
2199,F#2,149.25,0.25,36,90.0
2200,G#3,149.25,0.25,36,90.0
2201,E-4,149.25,0.25,36,90.0
2202,F#3,149.25,0.25,36,90.0
2203,B3,149.25,0.125,79,90.0
2204,E-4,149.25,0.125,79,90.0
2205,F3,149.25,0.125,79,90.0
2206,B-3,149.25,0.125,79,90.0
2207,G#3,149.3,24/125,100,90.0
2208,F#2,149.5,0.25,62,90.0
2209,G#3,149.5,0.25,62,90.0
2210,E-4,149.5,0.25,62,90.0
2211,F#3,149.5,0.25,62,90.0
2212,B-4,149.5,0.25,62,90.0
2213,G3,149.508,1/5,74,90.0
2214,B1,149.75,0.25,75,90.0
2215,F#2,149.75,0.25,75,90.0
2216,E-4,149.75,0.25,75,90.0
2217,A4,149.75,0.25,75,90.0
2218,F3,149.767,26/125,102,90.0
2219,B1,150.0,0.25,81,90.0
2220,F#2,150.0,0.25,81,90.0
2221,A4,150.0,0.25,81,90.0
2222,C2,150.0,9/40,72,90.0
2223,C3,150.0,9/40,72,90.0
2224,E3,150.05,49/125,100,90.0
2225,C2,150.25,117/1000,85,90.0
2226,F#2,150.25,0.25,33,90.0
2227,B-3,150.25,27/250,85,90.0
2228,C#4,150.25,27/250,85,90.0
2229,E3,150.25,27/250,85,90.0
2230,G#3,150.25,27/250,85,90.0
2231,C2,150.5,183/1000,87,90.0
2232,F#2,150.5,0.25,63,90.0
2233,E-4,150.5,0.25,63,90.0
2234,B-4,150.5,0.25,63,90.0
2235,G3,150.517,24/125,98,90.0
2236,F#2,150.75,0.25,102,90.0
2237,D4,150.75,0.25,102,90.0
2238,C2,150.75,283/1000,69,90.0
2239,C3,150.75,283/1000,69,90.0
2240,B-3,150.783,129/500,70,90.0
2241,C2,151.0,27/40,98,90.0
2242,D2,151.0,0.25,84,90.0
2243,E-4,151.0,0.25,84,90.0
2244,B-3,151.017,229/500,88,90.0
2245,C#4,151.017,229/500,88,90.0
2246,E3,151.017,229/500,88,90.0
2247,G#3,151.017,229/500,88,90.0
2248,F#2,151.25,0.25,42,90.0
2249,E-4,151.25,0.25,42,90.0
2250,C#4,151.267,24/125,110,90.0
2251,F#2,151.5,0.25,100,90.0
2252,E-4,151.5,0.25,100,90.0
2253,B-4,151.5,0.25,100,90.0
2254,C2,151.5,0.125,76,90.0
2255,C3,151.5,0.125,76,90.0
2256,C4,151.533,1/5,89,90.0
2257,C2,151.75,3/40,72,90.0
2258,F#2,151.75,0.25,80,90.0
2259,E-4,151.75,0.25,80,90.0
2260,B-4,151.75,0.25,80,90.0
2261,B-3,151.775,217/1000,64,90.0
2262,F2,152.0,1633/1000,91,90.0
2263,B1,152.0,0.25,70,90.0
2264,F#2,152.0,0.25,70,90.0
2265,E-4,152.0,0.25,70,90.0
2266,E-3,152.0,0.125,98,90.0
2267,F4,152.0,0.125,98,90.0
2268,G#3,152.0,0.125,98,90.0
2269,C4,152.0,0.125,98,90.0
2270,D4,152.0,4.0,40,90.0
2271,G4,152.0,4.0,40,90.0
2272,G#3,152.033,317/1000,98,90.0
2273,F#2,152.25,0.25,43,90.0
2274,E-4,152.25,0.25,43,90.0
2275,F#2,152.5,0.25,81,90.0
2276,E-4,152.5,0.25,81,90.0
2277,B-4,152.5,0.25,81,90.0
2278,E-3,152.5,0.125,102,90.0
2279,F4,152.5,0.125,102,90.0
2280,G#3,152.5,0.125,102,90.0
2281,C4,152.5,0.125,102,90.0
2282,F#2,152.75,0.25,108,90.0
2283,D4,152.75,0.25,108,90.0
2284,D2,153.0,0.25,71,90.0
2285,E-4,153.0,0.25,71,90.0
2286,F#2,153.25,0.25,36,90.0
2287,G#3,153.25,0.25,36,90.0
2288,E-4,153.25,0.25,36,90.0
2289,F#3,153.25,0.25,36,90.0
2290,E-3,153.25,1/10,105,90.0
2291,F4,153.25,1/10,105,90.0
2292,G#3,153.25,1/10,105,90.0
2293,C4,153.25,1/10,105,90.0
2294,F#2,153.5,0.25,62,90.0
2295,G#3,153.5,0.25,62,90.0
2296,E-4,153.5,0.25,62,90.0
2297,F#3,153.5,0.25,62,90.0
2298,B-4,153.5,0.25,62,90.0
2299,F2,153.75,1.5,85,90.0
2300,F2,153.75,24/125,89,90.0
2301,B1,153.75,0.25,75,90.0
2302,F#2,153.75,0.25,75,90.0
2303,E-4,153.75,0.25,75,90.0
2304,A4,153.75,0.25,75,90.0
2305,B1,154.0,0.25,81,90.0
2306,F#2,154.0,0.25,81,90.0
2307,A4,154.0,0.25,81,90.0
2308,E-4,154.033,3/10,107,90.0
2309,F#2,154.25,0.25,33,90.0
2310,E-3,154.25,23/250,102,90.0
2311,F4,154.25,23/250,102,90.0
2312,G#3,154.25,23/250,102,90.0
2313,C4,154.25,23/250,102,90.0
2314,F#2,154.5,0.25,63,90.0
2315,E-4,154.5,0.25,63,90.0
2316,B-4,154.5,0.25,63,90.0
2317,F4,154.508,9/40,82,90.0
2318,F2,154.75,183/1000,82,90.0
2319,F#2,154.75,0.25,102,90.0
2320,D4,154.75,0.25,102,90.0
2321,G4,154.808,9/40,98,90.0
2322,D2,155.0,0.25,84,90.0
2323,E-4,155.0,0.25,84,90.0
2324,E-3,155.0,133/1000,110,90.0
2325,F4,155.0,133/1000,110,90.0
2326,G#3,155.0,133/1000,110,90.0
2327,C4,155.0,133/1000,110,90.0
2328,C2,155.25,129/500,57,90.0
2329,F#2,155.25,0.25,42,90.0
2330,E-4,155.25,0.25,42,90.0
2331,F4,155.325,233/1000,89,90.0
2332,F2,155.5,73/250,85,90.0
2333,F#2,155.5,0.25,100,90.0
2334,E-4,155.5,0.25,100,90.0
2335,B-4,155.5,0.25,100,90.0
2336,F2,155.508,51/125,87,90.0
2337,F#2,155.75,0.25,80,90.0
2338,E-4,155.75,0.25,80,90.0
2339,B-4,155.75,0.25,80,90.0
2340,E-4,155.833,167/1000,76,90.0
2341,B-1,156.0,483/1000,98,90.0
2342,E-4,156.0,629/500,76,90.0
2343,B1,156.0,0.25,93,90.0
2344,F#2,156.0,0.25,93,90.0
2345,E-4,156.0,0.25,93,90.0
2346,E-4,156.0,267/1000,87,90.0
2347,G#3,156.0,267/1000,87,90.0
2348,F4,156.0,2.0,40,90.0
2349,B4,156.0,2.0,40,90.0
2350,F#2,156.25,0.25,43,90.0
2351,E-4,156.25,0.25,43,90.0
2352,F#2,156.5,0.25,59,90.0
2353,E-4,156.5,0.25,59,90.0
2354,B-4,156.5,0.25,59,90.0
2355,G#3,156.5,267/1000,92,90.0
2356,E-4,156.5,267/1000,92,90.0
2357,F#2,156.75,0.25,112,90.0
2358,D4,156.75,0.25,112,90.0
2359,D2,157.0,0.25,71,90.0
2360,E-4,157.0,0.25,71,90.0
2361,F#2,157.25,0.25,36,90.0
2362,G#3,157.25,0.25,36,90.0
2363,E-4,157.25,0.25,36,90.0
2364,F#3,157.25,0.25,36,90.0
2365,E-4,157.25,133/1000,91,90.0
2366,G#3,157.25,133/1000,91,90.0
2367,F4,157.317,433/1000,74,90.0
2368,F#2,157.5,0.25,71,90.0
2369,G#3,157.5,0.25,71,90.0
2370,E-4,157.5,0.25,71,90.0
2371,F#3,157.5,0.25,71,90.0
2372,B-4,157.5,0.25,71,90.0
2373,B-1,157.75,933/1000,89,90.0
2374,G4,157.75,177/250,89,90.0
2375,B1,157.75,0.25,67,90.0
2376,F#2,157.75,0.25,67,90.0
2377,E-4,157.75,0.25,67,90.0
2378,A4,157.75,0.25,67,90.0
2379,B1,158.0,0.25,65,90.0
2380,F#2,158.0,0.25,65,90.0
2381,A4,158.0,0.25,65,90.0
2382,E4,158.0,2.0,40,90.0
2383,B-4,158.0,2.0,40,90.0
2384,F#2,158.25,0.25,127,90.0
2385,B-1,158.25,7/40,92,90.0
2386,B-2,158.25,7/40,92,90.0
2387,F#2,158.5,0.25,50,90.0
2388,E-4,158.5,0.25,50,90.0
2389,B-4,158.5,0.25,50,90.0
2390,F4,158.533,11/40,70,90.0
2391,B-0,158.75,3/20,74,90.0
2392,F#2,158.75,0.25,69,90.0
2393,D4,158.75,0.25,69,90.0
2394,B-2,158.75,117/1000,86,90.0
2395,B-1,158.75,117/1000,86,90.0
2396,B-1,159.0,49/125,85,90.0
2397,D2,159.0,0.25,84,90.0
2398,E-4,159.0,0.25,84,90.0
2399,E-4,159.0,13/40,91,90.0
2400,G#3,159.0,13/40,91,90.0
2401,E-4,159.042,317/1000,85,90.0
2402,F#2,159.25,0.25,70,90.0
2403,E-4,159.25,0.25,70,90.0
2404,E-4,159.5,0.375,89,90.0
2405,G#3,159.5,3/10,87,90.0
2406,F#2,159.5,0.25,83,90.0
2407,E-4,159.5,0.25,83,90.0
2408,B-4,159.5,0.25,83,90.0
2409,F4,159.542,9/40,80,90.0
2410,B-2,159.75,0.25,79,90.0
2411,E-4,159.75,0.25,79,90.0
2412,B-4,159.75,0.25,79,90.0
2413,E-2,160.0,483/1000,95,90.0
2414,G3,160.0,2767/1000,85,90.0
2415,E-2,160.0,4.0,82,90.0
2416,B1,160.0,0.25,76,90.0
2417,F#2,160.0,0.25,76,90.0
2418,D4,160.0,0.25,76,90.0
2419,E-4,160.0,4.0,40,90.0
2420,G#4,160.0,4.0,40,90.0
2421,F#4,160.05,27/250,82,90.0
2422,G4,160.158,171/500,87,90.0
2423,D4,160.25,13/5,68,90.0
2424,F#2,160.25,0.25,42,90.0
2425,D4,160.25,0.25,42,90.0
2426,B-4,160.483,11/40,95,90.0
2427,F4,160.5,2.375,72,90.0
2428,F#2,160.5,0.25,47,90.0
2429,E-4,160.5,0.25,47,90.0
2430,B-4,160.5,0.25,47,90.0
2431,B-4,160.75,3.25,87,90.0
2432,F#2,160.75,0.25,98,90.0
2433,D4,160.75,0.25,98,90.0
2434,D2,161.0,0.25,71,90.0
2435,E-4,161.0,0.25,71,90.0
2436,B-4,161.008,1867/1000,98,90.0
2437,F#2,161.25,0.25,50,90.0
2438,G#3,161.25,0.25,50,90.0
2439,D4,161.25,0.25,50,90.0
2440,F#3,161.25,0.25,50,90.0
2441,F#2,161.5,0.25,54,90.0
2442,G#3,161.5,0.25,54,90.0
2443,E-4,161.5,0.25,54,90.0
2444,F#3,161.5,0.25,54,90.0
2445,B-4,161.5,0.25,54,90.0
2446,E-2,161.75,19/20,87,90.0
2447,B1,161.75,0.25,65,90.0
2448,B-2,161.75,0.25,65,90.0
2449,E-4,161.75,0.25,65,90.0
2450,A4,161.75,0.25,65,90.0
2451,B1,162.0,0.25,58,90.0
2452,F#2,162.0,0.25,58,90.0
2453,A4,162.0,0.25,58,90.0
2454,F#2,162.25,0.25,60,90.0
2455,E-4,162.25,0.25,60,90.0
2456,F#2,162.5,0.25,72,90.0
2457,E-4,162.5,0.25,72,90.0
2458,B-4,162.5,0.25,72,90.0
2459,E-1,162.75,26/125,82,90.0
2460,F#2,162.75,0.25,114,90.0
2461,D4,162.75,0.25,114,90.0
2462,B-1,163.0,767/1000,68,90.0
2463,D2,163.0,0.25,85,90.0
2464,E-4,163.0,0.25,85,90.0
2465,F4,163.0,24/125,101,90.0
2466,G3,163.0,24/125,101,90.0
2467,D4,163.0,24/125,101,90.0
2468,F#2,163.25,0.25,52,90.0
2469,E-4,163.25,0.25,52,90.0
2470,D4,163.25,23/250,72,90.0
2471,G3,163.25,23/250,72,90.0
2472,F4,163.25,23/250,72,90.0
2473,B-4,163.267,7/40,66,90.0
2474,B-2,163.5,0.25,86,90.0
2475,E-4,163.5,0.25,86,90.0
2476,B-4,163.5,0.25,86,90.0
2477,C5,163.567,9/40,38,90.0
2478,E-4,163.75,0.25,73,90.0
2479,B-4,163.75,0.25,73,90.0
2480,E-5,163.775,9/40,95,90.0
2481,A1,164.0,483/1000,95,90.0
2482,E-5,164.0,1921/500,95,90.0
2483,B1,164.0,0.25,120,90.0
2484,F#2,164.0,0.25,120,90.0
2485,C#4,164.0,267/1000,87,90.0
2486,G3,164.0,267/1000,87,90.0
2487,E-4,164.0,4.0,40,90.0
2488,G#4,164.0,4.0,40,90.0
2489,F#2,164.25,0.25,71,90.0
2490,B1,164.5,0.25,86,90.0
2491,B-2,164.5,0.25,86,90.0
2492,G3,164.5,267/1000,92,90.0
2493,C#4,164.5,267/1000,92,90.0
2494,D2,164.75,0.25,64,90.0
2495,F#2,164.75,0.25,64,90.0
2496,G#3,165.0,0.25,80,90.0
2497,D2,165.25,0.25,44,90.0
2498,C#4,165.25,133/1000,91,90.0
2499,G3,165.25,133/1000,91,90.0
2500,D2,165.5,0.25,96,90.0
2501,B-2,165.5,0.25,96,90.0
2502,A1,165.75,19/20,87,90.0
2503,A2,165.75,0.25,61,90.0
2504,A2,166.0,0.25,91,90.0
2505,D2,166.25,0.25,37,90.0
2506,A2,166.25,167/1000,80,90.0
2507,D2,166.5,0.25,58,90.0
2508,A0,166.75,26/125,82,90.0
2509,F2,166.75,0.25,76,90.0
2510,A2,166.75,23/250,93,90.0
2511,E1,167.0,767/1000,68,90.0
2512,G#3,167.0,0.25,98,90.0
2513,F2,167.0,0.25,98,90.0
2514,C#4,167.0,13/40,91,90.0
2515,G3,167.0,13/40,91,90.0
2516,D2,167.25,0.25,27,90.0
2517,D2,167.5,0.25,109,90.0
2518,C#4,167.5,0.375,89,90.0
2519,G3,167.5,3/10,87,90.0
2520,F2,167.75,0.25,116,90.0
2521,G#2,168.0,1633/1000,91,90.0
2522,B1,168.0,0.25,78,90.0
2523,F#2,168.0,0.25,78,90.0
2524,C#3,168.0,0.25,78,90.0
2525,E-4,168.0,0.25,78,90.0
2526,G3,168.0,1/10,97,90.0
2527,B-3,168.0,1/10,97,90.0
2528,C4,168.0,1/10,97,90.0
2529,E-4,168.0,1/10,97,90.0
2530,D4,168.0,4.0,39,90.0
2531,G3,168.0,4.0,39,90.0
2532,F#2,168.25,0.25,32,90.0
2533,E-4,168.25,0.25,32,90.0
2534,F#2,168.5,0.25,90,90.0
2535,B-4,168.5,0.25,90,90.0
2536,G3,168.5,1/10,99,90.0
2537,B-3,168.5,1/10,99,90.0
2538,C4,168.5,1/10,99,90.0
2539,E-4,168.5,1/10,99,90.0
2540,F#2,168.75,0.25,118,90.0
2541,D4,168.75,0.25,118,90.0
2542,D2,169.0,0.25,78,90.0
2543,E-4,169.0,0.25,78,90.0
2544,G5,169.042,11/40,100,90.0
2545,F#2,169.25,0.25,40,90.0
2546,G#3,169.25,0.25,40,90.0
2547,E-4,169.25,0.25,40,90.0
2548,F#3,169.25,0.25,40,90.0
2549,G3,169.25,117/1000,88,90.0
2550,B-3,169.25,117/1000,88,90.0
2551,C4,169.25,117/1000,88,90.0
2552,E-4,169.25,117/1000,88,90.0
2553,G5,169.492,73/250,72,90.0
2554,F#2,169.5,0.25,58,90.0
2555,G#3,169.5,0.25,58,90.0
2556,E-4,169.5,0.25,58,90.0
2557,F#3,169.5,0.25,58,90.0
2558,B-4,169.5,0.25,58,90.0
2559,G#2,169.75,1.5,85,90.0
2560,G#2,169.75,77/250,85,90.0
2561,B1,169.75,0.25,62,90.0
2562,F#2,169.75,0.25,62,90.0
2563,E-4,169.75,0.25,62,90.0
2564,A4,169.75,0.25,62,90.0
2565,E-5,169.808,274/125,78,90.0
2566,B1,170.0,0.25,80,90.0
2567,F#2,170.0,0.25,80,90.0
2568,A4,170.0,0.25,80,90.0
2569,F#2,170.25,0.25,58,90.0
2570,D4,170.25,0.25,58,90.0
2571,G3,170.25,0.125,103,90.0
2572,B-3,170.25,0.125,103,90.0
2573,C4,170.25,0.125,103,90.0
2574,E-4,170.25,0.125,103,90.0
2575,F#2,170.5,0.25,76,90.0
2576,B-4,170.5,0.25,76,90.0
2577,G#2,170.75,26/125,67,90.0
2578,F#2,170.75,0.25,71,90.0
2579,E-4,170.75,0.25,71,90.0
2580,D2,171.0,0.25,113,90.0
2581,G3,171.0,9/20,95,90.0
2582,B-3,171.0,9/20,95,90.0
2583,C4,171.0,9/20,95,90.0
2584,E-4,171.0,9/20,95,90.0
2585,E-2,171.25,129/500,57,90.0
2586,F#2,171.25,0.25,54,90.0
2587,E-4,171.25,0.25,54,90.0
2588,G#2,171.5,79/500,78,90.0
2589,F#2,171.5,0.25,92,90.0
2590,E-4,171.5,0.25,92,90.0
2591,B-4,171.5,0.25,92,90.0
2592,G#2,171.508,51/125,87,90.0
2593,F#2,171.75,0.25,92,90.0
2594,E-4,171.75,0.25,92,90.0
2595,B-4,171.75,0.25,92,90.0
2596,G2,172.0,9/20,89,90.0
2597,E-5,172.0,89/40,78,90.0
2598,B1,172.0,0.25,70,90.0
2599,F#2,172.0,0.25,70,90.0
2600,E-4,172.0,0.25,70,90.0
2601,F3,172.0,1/10,105,90.0
2602,G4,172.0,1/10,105,90.0
2603,B-3,172.0,1/10,105,90.0
2604,D4,172.0,1/10,105,90.0
2605,C#4,172.0,4.0,39,90.0
2606,G3,172.0,4.0,39,90.0
2607,F#2,172.25,0.25,43,90.0
2608,E-4,172.25,0.25,43,90.0
2609,F3,172.25,23/250,74,90.0
2610,G4,172.25,23/250,74,90.0
2611,B-3,172.25,23/250,74,90.0
2612,D4,172.25,23/250,74,90.0
2613,G2,172.5,217/1000,87,90.0
2614,F#2,172.5,0.25,81,90.0
2615,E-4,172.5,0.25,81,90.0
2616,B-4,172.5,0.25,81,90.0
2617,F#2,172.75,0.25,108,90.0
2618,D4,172.75,0.25,108,90.0
2619,D2,173.0,0.25,71,90.0
2620,E-4,173.0,0.25,71,90.0
2621,F#2,173.25,0.25,36,90.0
2622,G#3,173.25,0.25,36,90.0
2623,E-4,173.25,0.25,36,90.0
2624,F#3,173.25,0.25,36,90.0
2625,F3,173.25,117/1000,89,90.0
2626,G4,173.25,117/1000,89,90.0
2627,B-3,173.25,117/1000,89,90.0
2628,D4,173.25,117/1000,89,90.0
2629,F#2,173.5,0.25,62,90.0
2630,G#3,173.5,0.25,62,90.0
2631,E-4,173.5,0.25,62,90.0
2632,F#3,173.5,0.25,62,90.0
2633,B-4,173.5,0.25,62,90.0
2634,G2,173.75,1.0,85,90.0
2635,G2,173.75,9/40,95,90.0
2636,B1,173.75,0.25,75,90.0
2637,F#2,173.75,0.25,75,90.0
2638,E-4,173.75,0.25,75,90.0
2639,A4,173.75,0.25,75,90.0
2640,B1,174.0,0.25,81,90.0
2641,F#2,174.0,0.25,81,90.0
2642,A4,174.0,0.25,81,90.0
2643,B-5,174.042,73/250,95,90.0
2644,F#2,174.25,0.25,33,90.0
2645,F3,174.25,23/250,80,90.0
2646,G4,174.25,23/250,80,90.0
2647,B-3,174.25,23/250,80,90.0
2648,D4,174.25,23/250,80,90.0
2649,F#2,174.5,0.25,63,90.0
2650,E-4,174.5,0.25,63,90.0
2651,B-4,174.5,0.25,63,90.0
2652,B-5,174.542,3/10,87,90.0
2653,D2,174.75,1/5,80,90.0
2654,G2,174.75,23/250,82,90.0
2655,F#2,174.75,0.25,102,90.0
2656,D4,174.75,0.25,102,90.0
2657,F2,175.0,229/500,91,90.0
2658,D2,175.0,0.25,84,90.0
2659,E-4,175.0,0.25,84,90.0
2660,F3,175.0,121/500,82,90.0
2661,G4,175.0,121/500,82,90.0
2662,B-3,175.0,121/500,82,90.0
2663,D4,175.0,121/500,82,90.0
2664,G5,175.033,3/10,82,90.0
2665,F#2,175.25,0.25,42,90.0
2666,E-4,175.25,0.25,42,90.0
2667,G2,175.5,179/500,95,90.0
2668,F#2,175.5,0.25,100,90.0
2669,E-4,175.5,0.25,100,90.0
2670,B-4,175.5,0.25,100,90.0
2671,F3,175.5,71/500,80,90.0
2672,G4,175.5,71/500,80,90.0
2673,B-3,175.5,71/500,80,90.0
2674,D4,175.5,71/500,80,90.0
2675,E-5,175.55,26/125,82,90.0
2676,F#2,175.75,0.25,80,90.0
2677,E-4,175.75,0.25,80,90.0
2678,B-4,175.75,0.25,80,90.0
2679,F2,176.0,483/1000,98,90.0
2680,B1,176.0,0.25,76,90.0
2681,F#2,176.0,0.25,76,90.0
2682,D4,176.0,0.25,76,90.0
2683,E-3,176.0,1/10,105,90.0
2684,G3,176.0,1/10,105,90.0
2685,G#3,176.0,1/10,105,90.0
2686,C4,176.0,1/10,105,90.0
2687,G4,176.0,4.0,40,90.0
2688,C5,176.0,4.0,40,90.0
2689,F5,176.058,3317/1000,82,90.0
2690,F#2,176.25,0.25,42,90.0
2691,D4,176.25,0.25,42,90.0
2692,E-3,176.25,23/250,74,90.0
2693,G3,176.25,23/250,74,90.0
2694,G#3,176.25,23/250,74,90.0
2695,C4,176.25,23/250,74,90.0
2696,F2,176.5,217/1000,87,90.0
2697,F#2,176.5,0.25,47,90.0
2698,E-4,176.5,0.25,47,90.0
2699,B-4,176.5,0.25,47,90.0
2700,F#2,176.75,0.25,98,90.0
2701,D4,176.75,0.25,98,90.0
2702,D2,177.0,0.25,71,90.0
2703,E-4,177.0,0.25,71,90.0
2704,F#2,177.25,0.25,50,90.0
2705,G#3,177.25,0.25,50,90.0
2706,D4,177.25,0.25,50,90.0
2707,F#3,177.25,0.25,50,90.0
2708,E-3,177.25,117/1000,89,90.0
2709,G3,177.25,117/1000,89,90.0
2710,G#3,177.25,117/1000,89,90.0
2711,C4,177.25,117/1000,89,90.0
2712,F#2,177.5,0.25,54,90.0
2713,G#3,177.5,0.25,54,90.0
2714,E-4,177.5,0.25,54,90.0
2715,F#3,177.5,0.25,54,90.0
2716,B-4,177.5,0.25,54,90.0
2717,F2,177.75,933/1000,89,90.0
2718,F2,177.75,9/40,95,90.0
2719,B1,177.75,0.25,74,90.0
2720,F#2,177.75,0.25,74,90.0
2721,E-4,177.75,0.25,74,90.0
2722,A4,177.75,0.25,74,90.0
2723,B1,178.0,0.25,58,90.0
2724,F#2,178.0,0.25,58,90.0
2725,A4,178.0,0.25,58,90.0
2726,F#2,178.25,0.25,60,90.0
2727,E-4,178.25,0.25,60,90.0
2728,E-3,178.25,23/250,80,90.0
2729,G3,178.25,23/250,80,90.0
2730,G#3,178.25,23/250,80,90.0
2731,C4,178.25,23/250,80,90.0
2732,F#2,178.5,0.25,72,90.0
2733,E-4,178.5,0.25,72,90.0
2734,B-4,178.5,0.25,72,90.0
2735,F1,178.75,3/20,74,90.0
2736,F2,178.75,23/250,82,90.0
2737,F#2,178.75,0.25,114,90.0
2738,D4,178.75,0.25,114,90.0
2739,F2,179.0,49/125,85,90.0
2740,D2,179.0,0.25,85,90.0
2741,E-4,179.0,0.25,85,90.0
2742,E-3,179.0,121/500,82,90.0
2743,G3,179.0,121/500,82,90.0
2744,G#3,179.0,121/500,82,90.0
2745,C4,179.0,121/500,82,90.0
2746,F#2,179.25,0.25,52,90.0
2747,E-4,179.25,0.25,52,90.0
2748,B-2,179.5,0.25,86,90.0
2749,E-4,179.5,0.25,86,90.0
2750,B-4,179.5,0.25,86,90.0
2751,E-3,179.5,71/500,80,90.0
2752,G3,179.5,71/500,80,90.0
2753,G#3,179.5,71/500,80,90.0
2754,C4,179.5,71/500,80,90.0
2755,E-5,179.508,3/20,57,90.0
2756,E-4,179.75,0.25,73,90.0
2757,B-4,179.75,0.25,73,90.0
2758,F5,179.783,217/1000,70,90.0
2759,C2,180.0,1633/1000,91,90.0
2760,F5,180.0,1/125,70,90.0
2761,B1,180.0,0.25,76,90.0
2762,F#2,180.0,0.25,76,90.0
2763,D4,180.0,0.25,76,90.0
2764,B-3,180.0,1/10,105,90.0
2765,D4,180.0,1/10,105,90.0
2766,E-3,180.0,1/10,105,90.0
2767,G3,180.0,1/10,105,90.0
2768,F4,180.0,4.0,40,90.0
2769,B-4,180.0,4.0,40,90.0
2770,G5,180.05,3/10,93,90.0
2771,F#2,180.25,0.25,42,90.0
2772,D4,180.25,0.25,42,90.0
2773,B-3,180.25,23/250,74,90.0
2774,D4,180.25,23/250,74,90.0
2775,E-3,180.25,23/250,74,90.0
2776,G3,180.25,23/250,74,90.0
2777,F#2,180.5,0.25,47,90.0
2778,E-4,180.5,0.25,47,90.0
2779,B-4,180.5,0.25,47,90.0
2780,C2,180.5,217/1000,86,90.0
2781,C3,180.5,217/1000,86,90.0
2782,G5,180.55,7/40,42,90.0
2783,F#2,180.75,0.25,98,90.0
2784,D4,180.75,0.25,98,90.0
2785,F5,180.833,9/40,100,90.0
2786,D2,181.0,0.25,71,90.0
2787,E-4,181.0,0.25,71,90.0
2788,F#2,181.25,0.25,50,90.0
2789,G#3,181.25,0.25,50,90.0
2790,D4,181.25,0.25,50,90.0
2791,F#3,181.25,0.25,50,90.0
2792,B-3,181.25,117/1000,89,90.0
2793,D4,181.25,117/1000,89,90.0
2794,E-3,181.25,117/1000,89,90.0
2795,G3,181.25,117/1000,89,90.0
2796,F5,181.3,233/1000,89,90.0
2797,F#2,181.5,0.25,54,90.0
2798,G#3,181.5,0.25,54,90.0
2799,E-4,181.5,0.25,54,90.0
2800,F#3,181.5,0.25,54,90.0
2801,B-4,181.5,0.25,54,90.0
2802,C2,181.75,1.5,85,90.0
2803,B1,181.75,0.25,74,90.0
2804,F#2,181.75,0.25,74,90.0
2805,E-4,181.75,0.25,74,90.0
2806,A4,181.75,0.25,74,90.0
2807,C2,181.75,9/40,100,90.0
2808,C3,181.75,9/40,100,90.0
2809,E-5,181.808,183/1000,102,90.0
2810,B1,182.0,0.25,58,90.0
2811,F#2,182.0,0.25,58,90.0
2812,A4,182.0,0.25,58,90.0
2813,F#2,182.25,0.25,60,90.0
2814,E-4,182.25,0.25,60,90.0
2815,B-3,182.25,23/250,80,90.0
2816,D4,182.25,23/250,80,90.0
2817,E-3,182.25,23/250,80,90.0
2818,G3,182.25,23/250,80,90.0
2819,E-5,182.3,183/1000,102,90.0
2820,F#2,182.5,0.25,72,90.0
2821,E-4,182.5,0.25,72,90.0
2822,B-4,182.5,0.25,72,90.0
2823,E-5,182.75,183/1000,98,90.0
2824,F#2,182.75,0.25,114,90.0
2825,D4,182.75,0.25,114,90.0
2826,C3,182.75,71/500,82,90.0
2827,C2,182.75,71/500,82,90.0
2828,D2,183.0,0.25,85,90.0
2829,E-4,183.0,0.25,85,90.0
2830,B-3,183.0,121/500,82,90.0
2831,D4,183.0,121/500,82,90.0
2832,E-3,183.0,121/500,82,90.0
2833,G3,183.0,121/500,82,90.0
2834,C5,183.025,24/125,60,90.0
2835,G1,183.25,129/500,57,90.0
2836,F#2,183.25,0.25,52,90.0
2837,E-4,183.25,0.25,52,90.0
2838,E-5,183.308,167/1000,87,90.0
2839,B-2,183.5,0.25,86,90.0
2840,E-4,183.5,0.25,86,90.0
2841,B-4,183.5,0.25,86,90.0
2842,B-3,183.5,71/500,80,90.0
2843,D4,183.5,71/500,80,90.0
2844,E-3,183.5,71/500,80,90.0
2845,G3,183.5,71/500,80,90.0
2846,C2,183.508,51/125,87,90.0
2847,F5,183.55,24/125,100,90.0
2848,E-4,183.75,0.25,73,90.0
2849,B-4,183.75,0.25,73,90.0
2850,G#2,184.0,23/20,102,90.0
2851,B1,184.0,0.25,76,90.0
2852,F#2,184.0,0.25,76,90.0
2853,D4,184.0,0.25,76,90.0
2854,G4,184.0,267/1000,87,90.0
2855,C4,184.0,267/1000,87,90.0
2856,E-4,184.0,4.0,39,90.0
2857,G#3,184.0,4.0,39,90.0
2858,E-5,184.042,7/20,102,90.0
2859,F#2,184.25,0.25,42,90.0
2860,D4,184.25,0.25,42,90.0
2861,F#2,184.5,0.25,47,90.0
2862,E-4,184.5,0.25,47,90.0
2863,B-4,184.5,0.25,47,90.0
2864,C4,184.5,267/1000,92,90.0
2865,G4,184.5,267/1000,92,90.0
2866,F#2,184.75,0.25,98,90.0
2867,D4,184.75,0.25,98,90.0
2868,D2,185.0,0.25,71,90.0
2869,E-4,185.0,0.25,71,90.0
2870,F#4,185.033,167/1000,107,90.0
2871,G4,185.2,26/125,87,90.0
2872,G2,185.25,1/10,82,90.0
2873,F#2,185.25,0.25,50,90.0
2874,G#3,185.25,0.25,50,90.0
2875,D4,185.25,0.25,50,90.0
2876,F#3,185.25,0.25,50,90.0
2877,G4,185.25,133/1000,91,90.0
2878,C4,185.25,133/1000,91,90.0
2879,G2,185.5,167/1000,63,90.0
2880,C4,185.5,121/500,85,90.0
2881,F#2,185.5,0.25,54,90.0
2882,G#3,185.5,0.25,54,90.0
2883,E-4,185.5,0.25,54,90.0
2884,F#3,185.5,0.25,54,90.0
2885,B-4,185.5,0.25,54,90.0
2886,G#2,185.75,1.0,89,90.0
2887,B1,185.75,0.25,74,90.0
2888,F#2,185.75,0.25,74,90.0
2889,E-4,185.75,0.25,74,90.0
2890,A4,185.75,0.25,74,90.0
2891,E-4,185.817,2183/1000,98,90.0
2892,B1,186.0,0.25,58,90.0
2893,F#2,186.0,0.25,58,90.0
2894,A4,186.0,0.25,58,90.0
2895,G#2,186.25,167/1000,80,90.0
2896,F#2,186.25,0.25,60,90.0
2897,E-4,186.25,0.25,60,90.0
2898,F#2,186.5,0.25,72,90.0
2899,E-4,186.5,0.25,72,90.0
2900,B-4,186.5,0.25,72,90.0
2901,E-2,186.75,71/500,72,90.0
2902,G#2,186.75,23/250,93,90.0
2903,F#2,186.75,0.25,114,90.0
2904,D4,186.75,0.25,114,90.0
2905,G2,187.0,3/10,85,90.0
2906,D2,187.0,0.25,85,90.0
2907,E-4,187.0,0.25,85,90.0
2908,G4,187.0,13/40,91,90.0
2909,C4,187.0,13/40,91,90.0
2910,E-2,187.25,183/1000,55,90.0
2911,F#2,187.25,0.25,52,90.0
2912,E-4,187.25,0.25,52,90.0
2913,G2,187.5,3/10,80,90.0
2914,G4,187.5,0.375,89,90.0
2915,C4,187.5,3/10,87,90.0
2916,B-2,187.5,0.25,86,90.0
2917,E-4,187.5,0.25,86,90.0
2918,B-4,187.5,0.25,86,90.0
2919,E-4,187.75,0.25,73,90.0
2920,B-4,187.75,0.25,73,90.0
2921,E-2,187.8,7/40,51,90.0
2922,G#2,188.0,317/1000,87,90.0
2923,E-4,188.0,1783/1000,98,90.0
2924,B1,188.0,0.25,83,90.0
2925,F#2,188.0,0.25,83,90.0
2926,E-4,188.0,0.25,83,90.0
2927,E-4,188.0,4.0,40,90.0
2928,B-4,188.0,4.0,40,90.0
2929,F#2,188.25,0.25,43,90.0
2930,E-4,188.25,0.25,43,90.0
2931,F#2,188.5,0.25,81,90.0
2932,E-4,188.5,0.25,81,90.0
2933,B-4,188.5,0.25,81,90.0
2934,F#2,188.75,0.25,112,90.0
2935,D4,188.75,0.25,112,90.0
2936,D2,189.0,0.25,70,90.0
2937,E-4,189.0,0.25,70,90.0
2938,F#2,189.25,0.25,39,90.0
2939,B-2,189.25,0.25,39,90.0
2940,G#3,189.25,0.25,39,90.0
2941,E-4,189.25,0.25,39,90.0
2942,F#3,189.25,0.25,39,90.0
2943,F#2,189.5,0.25,62,90.0
2944,G#3,189.5,0.25,62,90.0
2945,E-4,189.5,0.25,62,90.0
2946,F#3,189.5,0.25,62,90.0
2947,B-4,189.5,0.25,62,90.0
2948,G#1,189.75,0.25,56,90.0
2949,B1,189.75,0.25,67,90.0
2950,F#2,189.75,0.25,67,90.0
2951,E-4,189.75,0.25,67,90.0
2952,A4,189.75,0.25,67,90.0
2953,B-4,189.808,633/1000,105,90.0
2954,G#2,190.0,77/250,87,90.0
2955,B-2,190.0,3/40,40,90.0
2956,B1,190.0,0.25,84,90.0
2957,F#2,190.0,0.25,84,90.0
2958,A4,190.0,0.25,84,90.0
2959,F#2,190.25,0.25,33,90.0
2960,G3,190.25,3/20,80,90.0
2961,B-3,190.25,3/20,80,90.0
2962,C4,190.25,3/20,80,90.0
2963,E-4,190.25,3/20,80,90.0
2964,F#2,190.5,0.25,63,90.0
2965,E-4,190.5,0.25,63,90.0
2966,B-4,190.5,0.25,63,90.0
2967,B-4,190.55,171/500,100,90.0
2968,G#2,190.75,27/250,72,90.0
2969,F#2,190.75,0.25,99,90.0
2970,D4,190.75,0.25,99,90.0
2971,D2,191.0,0.25,71,90.0
2972,F#2,191.0,0.25,71,90.0
2973,E-4,191.0,0.25,71,90.0
2974,G3,191.0,317/1000,98,90.0
2975,B-3,191.0,317/1000,98,90.0
2976,C4,191.0,317/1000,98,90.0
2977,E-4,191.0,317/1000,98,90.0
2978,F#4,191.025,0.125,100,90.0
2979,G4,191.133,179/500,100,90.0
2980,F#2,191.25,0.25,42,90.0
2981,E-4,191.25,0.25,42,90.0
2982,F#2,191.5,0.25,106,90.0
2983,E-4,191.5,0.25,106,90.0
2984,B-4,191.5,0.25,106,90.0
2985,E-4,191.55,9/20,78,90.0
2986,G#2,191.75,23/250,76,90.0
2987,F#2,191.75,0.25,80,90.0
2988,E-4,191.75,0.25,80,90.0
2989,B-4,191.75,0.25,80,90.0
2990,C#2,192.0,1633/1000,91,90.0
2991,E-4,192.0,17/1000,78,90.0
2992,B1,192.0,0.25,76,90.0
2993,F#2,192.0,0.25,76,90.0
2994,D4,192.0,0.25,76,90.0
2995,B3,192.0,1/10,105,90.0
2996,E-4,192.0,1/10,105,90.0
2997,F3,192.0,1/10,105,90.0
2998,G#4,192.0,1/10,105,90.0
2999,G4,192.0,4.0,40,90.0
3000,C5,192.0,4.0,40,90.0
3001,F4,192.05,2867/1000,87,90.0
3002,F#2,192.25,0.25,42,90.0
3003,D4,192.25,0.25,42,90.0
3004,B3,192.25,23/250,74,90.0
3005,E-4,192.25,23/250,74,90.0
3006,F3,192.25,23/250,74,90.0
3007,G#4,192.25,23/250,74,90.0
3008,F#2,192.5,0.25,47,90.0
3009,E-4,192.5,0.25,47,90.0
3010,B-4,192.5,0.25,47,90.0
3011,C#2,192.5,217/1000,86,90.0
3012,C#3,192.5,217/1000,86,90.0
3013,F#2,192.75,0.25,98,90.0
3014,D4,192.75,0.25,98,90.0
3015,D2,193.0,0.25,71,90.0
3016,E-4,193.0,0.25,71,90.0
3017,F#2,193.25,0.25,50,90.0
3018,G#3,193.25,0.25,50,90.0
3019,D4,193.25,0.25,50,90.0
3020,F#3,193.25,0.25,50,90.0
3021,B3,193.25,117/1000,89,90.0
3022,E-4,193.25,117/1000,89,90.0
3023,F3,193.25,117/1000,89,90.0
3024,G#4,193.25,117/1000,89,90.0
3025,F#2,193.5,0.25,54,90.0
3026,G#3,193.5,0.25,54,90.0
3027,E-4,193.5,0.25,54,90.0
3028,F#3,193.5,0.25,54,90.0
3029,B-4,193.5,0.25,54,90.0
3030,C#2,193.75,1.5,85,90.0
3031,B1,193.75,0.25,74,90.0
3032,F#2,193.75,0.25,74,90.0
3033,E-4,193.75,0.25,74,90.0
3034,A4,193.75,0.25,74,90.0
3035,C#2,193.75,9/40,100,90.0
3036,C#3,193.75,9/40,100,90.0
3037,B1,194.0,0.25,58,90.0
3038,F#2,194.0,0.25,58,90.0
3039,A4,194.0,0.25,58,90.0
3040,F#2,194.25,0.25,60,90.0
3041,E-4,194.25,0.25,60,90.0
3042,B3,194.25,23/250,80,90.0
3043,E-4,194.25,23/250,80,90.0
3044,F3,194.25,23/250,80,90.0
3045,G#4,194.25,23/250,80,90.0
3046,F#2,194.5,0.25,72,90.0
3047,E-4,194.5,0.25,72,90.0
3048,B-4,194.5,0.25,72,90.0
3049,F#2,194.75,0.25,114,90.0
3050,D4,194.75,0.25,114,90.0
3051,C#3,194.75,71/500,82,90.0
3052,C#2,194.75,71/500,82,90.0
3053,G4,194.992,333/1000,95,90.0
3054,D2,195.0,0.25,85,90.0
3055,E-4,195.0,0.25,85,90.0
3056,B3,195.0,121/500,82,90.0
3057,E-4,195.0,121/500,82,90.0
3058,F3,195.0,121/500,82,90.0
3059,G#4,195.0,121/500,82,90.0
3060,G#1,195.25,129/500,57,90.0
3061,F#2,195.25,0.25,52,90.0
3062,E-4,195.25,0.25,52,90.0
3063,B-2,195.5,0.25,86,90.0
3064,E-4,195.5,0.25,86,90.0
3065,B-4,195.5,0.25,86,90.0
3066,B3,195.5,71/500,80,90.0
3067,E-4,195.5,71/500,80,90.0
3068,F3,195.5,71/500,80,90.0
3069,G#4,195.5,71/500,80,90.0
3070,C#2,195.508,51/125,87,90.0
3071,F4,195.533,121/500,85,90.0
3072,E-4,195.75,0.25,73,90.0
3073,B-4,195.75,0.25,73,90.0
3074,C2,196.0,483/1000,98,90.0
3075,B-3,196.0,2767/1000,85,90.0
3076,C3,196.0,4.0,82,90.0
3077,B1,196.0,0.25,58,90.0
3078,F#2,196.0,0.25,58,90.0
3079,B-4,196.0,0.25,58,90.0
3080,A4,196.0,0.25,58,90.0
3081,E-4,196.058,2/5,82,90.0
3082,F#2,196.25,0.25,31,90.0
3083,E4,196.25,13/5,68,90.0
3084,F#2,196.5,0.25,108,90.0
3085,G4,196.5,2.375,72,90.0
3086,C4,196.533,11/40,74,90.0
3087,C#5,196.75,3.25,87,90.0
3088,F#2,196.75,0.25,70,90.0
3089,B-4,196.75,0.25,70,90.0
3090,A4,196.75,0.25,70,90.0
3091,D2,197.0,0.25,75,90.0
3092,G#3,197.0,0.25,75,90.0
3093,B-4,197.0,0.25,75,90.0
3094,A4,197.0,0.25,75,90.0
3095,C4,197.05,0.375,80,90.0
3096,B1,197.25,0.25,58,90.0
3097,B-2,197.25,0.25,58,90.0
3098,D4,197.25,0.25,58,90.0
3099,B-3,197.483,129/500,53,90.0
3100,F#2,197.5,0.25,69,90.0
3101,E-4,197.5,0.25,69,90.0
3102,C2,197.75,933/1000,89,90.0
3103,B1,197.75,0.25,93,90.0
3104,B-2,197.75,0.25,93,90.0
3105,D4,197.75,0.25,93,90.0
3106,A4,197.75,0.25,93,90.0
3107,C4,197.8,11/5,80,90.0
3108,F#2,198.0,0.25,93,90.0
3109,F#2,198.25,0.25,34,90.0
3110,G#3,198.25,0.25,34,90.0
3111,F#3,198.25,0.25,34,90.0
3112,A4,198.25,0.25,34,90.0
3113,F#2,198.5,0.25,62,90.0
3114,G#3,198.5,0.25,62,90.0
3115,F#3,198.5,0.25,62,90.0
3116,B-4,198.5,0.25,62,90.0
3117,C1,198.75,3/20,74,90.0
3118,A2,198.75,0.25,68,90.0
3119,D4,198.75,0.25,68,90.0
3120,C2,199.0,49/125,85,90.0
3121,B-2,199.0,0.25,68,90.0
3122,A2,199.0,0.25,68,90.0
3123,G4,199.0,24/125,101,90.0
3124,B-3,199.0,24/125,101,90.0
3125,E4,199.0,24/125,101,90.0
3126,A4,199.25,0.25,23,90.0
3127,E4,199.25,23/250,72,90.0
3128,B-3,199.25,23/250,72,90.0
3129,G4,199.25,23/250,72,90.0
3130,F2,199.5,0.25,73,90.0
3131,E-4,199.5,0.25,73,90.0
3132,D4,199.5,0.25,73,90.0
3133,B-4,199.5,0.25,73,90.0
3134,A4,199.5,0.25,73,90.0
3135,E-4,199.75,0.25,92,90.0
3136,F2,200.0,9/20,89,90.0
3137,C4,200.0,23/250,80,90.0
3138,B1,200.0,0.25,78,90.0
3139,F#2,200.0,0.25,78,90.0
3140,C#3,200.0,0.25,78,90.0
3141,E-4,200.0,0.25,78,90.0
3142,E-3,200.0,0.125,98,90.0
3143,G3,200.0,0.125,98,90.0
3144,G#3,200.0,0.125,98,90.0
3145,C4,200.0,0.125,98,90.0
3146,G4,200.0,4.0,40,90.0
3147,C5,200.0,4.0,40,90.0
3148,F#2,200.25,0.25,32,90.0
3149,E-4,200.25,0.25,32,90.0
3150,F#2,200.5,0.25,90,90.0
3151,B-4,200.5,0.25,90,90.0
3152,E-3,200.5,0.125,102,90.0
3153,G3,200.5,0.125,102,90.0
3154,G#3,200.5,0.125,102,90.0
3155,C4,200.5,0.125,102,90.0
3156,F#2,200.75,0.25,118,90.0
3157,D4,200.75,0.25,118,90.0
3158,D2,201.0,0.25,78,90.0
3159,E-4,201.0,0.25,78,90.0
3160,F#2,201.25,0.25,40,90.0
3161,G#3,201.25,0.25,40,90.0
3162,E-4,201.25,0.25,40,90.0
3163,F#3,201.25,0.25,40,90.0
3164,E-3,201.25,1/10,105,90.0
3165,G3,201.25,1/10,105,90.0
3166,G#3,201.25,1/10,105,90.0
3167,C4,201.25,1/10,105,90.0
3168,E-4,201.3,3/20,64,90.0
3169,F#2,201.5,0.25,58,90.0
3170,G#3,201.5,0.25,58,90.0
3171,E-4,201.5,0.25,58,90.0
3172,F#3,201.5,0.25,58,90.0
3173,B-4,201.5,0.25,58,90.0
3174,F4,201.533,9/40,82,90.0
3175,F2,201.75,1.0,85,90.0
3176,F2,201.75,24/125,89,90.0
3177,B1,201.75,0.25,62,90.0
3178,F#2,201.75,0.25,62,90.0
3179,E-4,201.75,0.25,62,90.0
3180,A4,201.75,0.25,62,90.0
3181,G4,201.808,129/500,102,90.0
3182,B1,202.0,0.25,80,90.0
3183,F#2,202.0,0.25,80,90.0
3184,A4,202.0,0.25,80,90.0
3185,B-4,202.25,1.75,10,90.0
3186,F#2,202.25,0.25,58,90.0
3187,D4,202.25,0.25,58,90.0
3188,E-3,202.25,23/250,102,90.0
3189,G3,202.25,23/250,102,90.0
3190,G#3,202.25,23/250,102,90.0
3191,C4,202.25,23/250,102,90.0
3192,G4,202.292,24/125,100,90.0
3193,F#2,202.5,0.25,76,90.0
3194,B-4,202.5,0.25,76,90.0
3195,E-4,202.6,7/5,82,90.0
3196,C2,202.75,1/5,80,90.0
3197,F2,202.75,183/1000,82,90.0
3198,F#2,202.75,0.25,71,90.0
3199,E-4,202.75,0.25,71,90.0
3200,E-2,203.0,229/500,91,90.0
3201,D2,203.0,0.25,113,90.0
3202,E-3,203.0,133/1000,110,90.0
3203,G3,203.0,133/1000,110,90.0
3204,G#3,203.0,133/1000,110,90.0
3205,C4,203.0,133/1000,110,90.0
3206,F#2,203.25,0.25,54,90.0
3207,E-4,203.25,0.25,54,90.0
3208,F2,203.5,179/500,95,90.0
3209,F2,203.5,73/250,85,90.0
3210,F#2,203.5,0.25,92,90.0
3211,E-4,203.5,0.25,92,90.0
3212,B-4,203.5,0.25,92,90.0
3213,F#2,203.75,0.25,92,90.0
3214,E-4,203.75,0.25,92,90.0
3215,B-4,203.75,0.25,92,90.0
3216,B-1,204.0,1633/1000,91,90.0
3217,E-4,204.0,47/40,82,90.0
3218,B1,204.0,0.25,93,90.0
3219,F#2,204.0,0.25,93,90.0
3220,E-4,204.0,0.25,93,90.0
3221,E-4,204.0,267/1000,87,90.0
3222,G#3,204.0,267/1000,87,90.0
3223,F4,204.0,4.0,40,90.0
3224,B4,204.0,4.0,40,90.0
3225,F#2,204.25,0.25,43,90.0
3226,E-4,204.25,0.25,43,90.0
3227,F#2,204.5,0.25,59,90.0
3228,E-4,204.5,0.25,59,90.0
3229,B-4,204.5,0.25,59,90.0
3230,G#3,204.5,267/1000,92,90.0
3231,E-4,204.5,267/1000,92,90.0
3232,F#2,204.75,0.25,112,90.0
3233,D4,204.75,0.25,112,90.0
3234,D2,205.0,0.25,71,90.0
3235,E-4,205.0,0.25,71,90.0
3236,F#2,205.25,0.25,36,90.0
3237,G#3,205.25,0.25,36,90.0
3238,E-4,205.25,0.25,36,90.0
3239,F#3,205.25,0.25,36,90.0
3240,E-4,205.25,133/1000,91,90.0
3241,G#3,205.25,133/1000,91,90.0
3242,E-4,205.275,133/1000,87,90.0
3243,F#2,205.5,0.25,71,90.0
3244,G#3,205.5,0.25,71,90.0
3245,E-4,205.5,0.25,71,90.0
3246,F#3,205.5,0.25,71,90.0
3247,B-4,205.5,0.25,71,90.0
3248,F4,205.533,26/125,62,90.0
3249,B-1,205.75,1.5,85,90.0
3250,B1,205.75,0.25,67,90.0
3251,F#2,205.75,0.25,67,90.0
3252,E-4,205.75,0.25,67,90.0
3253,A4,205.75,0.25,67,90.0
3254,G4,205.817,617/1000,102,90.0
3255,B1,206.0,0.25,65,90.0
3256,F#2,206.0,0.25,65,90.0
3257,A4,206.0,0.25,65,90.0
3258,F#2,206.25,0.25,127,90.0
3259,B-1,206.25,7/40,92,90.0
3260,B-2,206.25,7/40,92,90.0
3261,F#2,206.5,0.25,50,90.0
3262,E-4,206.5,0.25,50,90.0
3263,B-4,206.5,0.25,50,90.0
3264,F4,206.533,9/40,62,90.0
3265,F#2,206.75,0.25,69,90.0
3266,D4,206.75,0.25,69,90.0
3267,B-2,206.75,117/1000,86,90.0
3268,B-1,206.75,117/1000,86,90.0
3269,D2,207.0,0.25,84,90.0
3270,E-4,207.0,0.25,84,90.0
3271,E-4,207.0,13/40,91,90.0
3272,G#3,207.0,13/40,91,90.0
3273,E-4,207.033,317/1000,85,90.0
3274,F1,207.25,129/500,57,90.0
3275,F#2,207.25,0.25,70,90.0
3276,E-4,207.25,0.25,70,90.0
3277,E-4,207.5,0.375,89,90.0
3278,G#3,207.5,3/10,87,90.0
3279,F#2,207.5,0.25,83,90.0
3280,E-4,207.5,0.25,83,90.0
3281,B-4,207.5,0.25,83,90.0
3282,B-1,207.508,51/125,87,90.0
3283,F4,207.525,3/10,78,90.0
3284,F#2,207.75,0.25,84,90.0
3285,B-2,207.75,0.25,84,90.0
3286,E-4,207.75,0.25,84,90.0
3287,B-4,207.75,0.25,84,90.0
3288,E-2,208.0,9/20,89,90.0
3289,B1,208.0,0.25,83,90.0
3290,F#2,208.0,0.25,83,90.0
3291,E-4,208.0,0.25,83,90.0
3292,E4,208.0,4.0,40,90.0
3293,B-4,208.0,4.0,40,90.0
3294,D4,208.025,27/250,99,90.0
3295,F4,208.025,27/250,99,90.0
3296,G3,208.025,27/250,99,90.0
3297,B-3,208.025,27/250,99,90.0
3298,G4,208.042,3317/1000,85,90.0
3299,F#2,208.25,0.25,43,90.0
3300,E-4,208.25,0.25,43,90.0
3301,D4,208.25,0.125,81,90.0
3302,F4,208.25,0.125,81,90.0
3303,G3,208.25,0.125,81,90.0
3304,B-3,208.25,0.125,81,90.0
3305,F#2,208.5,0.25,81,90.0
3306,E-4,208.5,0.25,81,90.0
3307,B-4,208.5,0.25,81,90.0
3308,F#2,208.75,0.25,112,90.0
3309,D4,208.75,0.25,112,90.0
3310,D2,209.0,0.25,70,90.0
3311,E-4,209.0,0.25,70,90.0
3312,F#2,209.25,0.25,39,90.0
3313,B-2,209.25,0.25,39,90.0
3314,G#3,209.25,0.25,39,90.0
3315,E-4,209.25,0.25,39,90.0
3316,F#3,209.25,0.25,39,90.0
3317,D4,209.258,23/250,97,90.0
3318,F4,209.258,23/250,97,90.0
3319,G3,209.258,23/250,97,90.0
3320,B-3,209.258,23/250,97,90.0
3321,F#2,209.5,0.25,62,90.0
3322,G#3,209.5,0.25,62,90.0
3323,E-4,209.5,0.25,62,90.0
3324,F#3,209.5,0.25,62,90.0
3325,B-4,209.5,0.25,62,90.0
3326,E-2,209.75,1.0,85,90.0
3327,B1,209.75,0.25,67,90.0
3328,F#2,209.75,0.25,67,90.0
3329,E-4,209.75,0.25,67,90.0
3330,A4,209.75,0.25,67,90.0
3331,E-2,209.758,233/1000,94,90.0
3332,B1,210.0,0.25,84,90.0
3333,F#2,210.0,0.25,84,90.0
3334,A4,210.0,0.25,84,90.0
3335,F#2,210.25,0.25,33,90.0
3336,D4,210.292,1/10,88,90.0
3337,F4,210.292,1/10,88,90.0
3338,G3,210.292,1/10,88,90.0
3339,B-3,210.292,1/10,88,90.0
3340,F#2,210.5,0.25,63,90.0
3341,E-4,210.5,0.25,63,90.0
3342,B-4,210.5,0.25,63,90.0
3343,B-1,210.75,1/5,80,90.0
3344,F#2,210.75,0.25,99,90.0
3345,D4,210.75,0.25,99,90.0
3346,E-2,210.758,3/40,88,90.0
3347,D2,211.0,229/500,91,90.0
3348,D2,211.0,0.25,71,90.0
3349,F#2,211.0,0.25,71,90.0
3350,E-4,211.0,0.25,71,90.0
3351,D4,211.042,233/1000,86,90.0
3352,F4,211.042,233/1000,86,90.0
3353,G3,211.042,233/1000,86,90.0
3354,B-3,211.042,233/1000,86,90.0
3355,F#2,211.25,0.25,42,90.0
3356,E-4,211.25,0.25,42,90.0
3357,G4,211.475,183/1000,63,90.0
3358,E-2,211.5,179/500,95,90.0
3359,F#2,211.5,0.25,106,90.0
3360,E-4,211.5,0.25,106,90.0
3361,B-4,211.5,0.25,106,90.0
3362,D4,211.508,79/500,97,90.0
3363,F4,211.508,79/500,97,90.0
3364,G3,211.508,79/500,97,90.0
3365,B-3,211.508,79/500,97,90.0
3366,F4,211.658,117/1000,14,90.0
3367,E-4,211.733,26/125,62,90.0
3368,F#2,211.75,0.25,80,90.0
3369,E-4,211.75,0.25,80,90.0
3370,B-4,211.75,0.25,80,90.0
3371,D4,211.842,79/500,72,90.0
3372,C#2,212.0,283/1000,91,90.0
3373,D4,212.0,1/20,72,90.0
3374,B1,212.0,0.25,76,90.0
3375,F#2,212.0,0.25,76,90.0
3376,D4,212.0,0.25,76,90.0
3377,B3,212.0,7/40,88,90.0
3378,E-4,212.0,7/40,88,90.0
3379,F3,212.0,7/40,88,90.0
3380,B-4,212.0,7/40,88,90.0
3381,E-4,212.0,4.0,39,90.0
3382,G#3,212.0,4.0,39,90.0
3383,E-4,212.05,1367/1000,107,90.0
3384,F#2,212.25,0.25,42,90.0
3385,D4,212.25,0.25,42,90.0
3386,C#2,212.5,7/20,98,90.0
3387,F#2,212.5,0.25,47,90.0
3388,E-4,212.5,0.25,47,90.0
3389,B-4,212.5,0.25,47,90.0
3390,B3,212.5,0.125,86,90.0
3391,E-4,212.5,0.125,86,90.0
3392,F3,212.5,0.125,86,90.0
3393,B-4,212.5,0.125,86,90.0
3394,F#2,212.75,0.25,98,90.0
3395,D4,212.75,0.25,98,90.0
3396,D2,213.0,0.25,71,90.0
3397,E-4,213.0,0.25,71,90.0
3398,C#2,213.25,9/40,105,90.0
3399,F#2,213.25,0.25,50,90.0
3400,G#3,213.25,0.25,50,90.0
3401,D4,213.25,0.25,50,90.0
3402,F#3,213.25,0.25,50,90.0
3403,B3,213.25,0.125,79,90.0
3404,E-4,213.25,0.125,79,90.0
3405,F3,213.25,0.125,79,90.0
3406,B-4,213.25,0.125,79,90.0
3407,F#2,213.5,0.25,54,90.0
3408,G#3,213.5,0.25,54,90.0
3409,E-4,213.5,0.25,54,90.0
3410,F#3,213.5,0.25,54,90.0
3411,B-4,213.5,0.25,54,90.0
3412,E-4,213.592,67/1000,58,90.0
3413,D4,213.667,167/1000,66,90.0
3414,B1,213.75,0.25,74,90.0
3415,F#2,213.75,0.25,74,90.0
3416,E-4,213.75,0.25,74,90.0
3417,A4,213.75,0.25,74,90.0
3418,C#4,213.792,133/1000,68,90.0
3419,C4,213.908,1667/1000,53,90.0
3420,B1,214.0,0.25,58,90.0
3421,F#2,214.0,0.25,58,90.0
3422,A4,214.0,0.25,58,90.0
3423,C2,214.0,9/40,72,90.0
3424,C3,214.0,9/40,72,90.0
3425,C2,214.25,117/1000,85,90.0
3426,F#2,214.25,0.25,60,90.0
3427,E-4,214.25,0.25,60,90.0
3428,B-3,214.25,27/250,85,90.0
3429,C#4,214.25,27/250,85,90.0
3430,E3,214.25,27/250,85,90.0
3431,G#4,214.25,27/250,85,90.0
3432,C2,214.5,183/1000,87,90.0
3433,F#2,214.5,0.25,72,90.0
3434,E-4,214.5,0.25,72,90.0
3435,B-4,214.5,0.25,72,90.0
3436,F#2,214.75,0.25,114,90.0
3437,D4,214.75,0.25,114,90.0
3438,C2,214.75,283/1000,69,90.0
3439,C3,214.75,283/1000,69,90.0
3440,C2,215.0,27/40,98,90.0
3441,D2,215.0,0.25,85,90.0
3442,E-4,215.0,0.25,85,90.0
3443,B-3,215.017,229/500,88,90.0
3444,C#4,215.017,229/500,88,90.0
3445,E3,215.017,229/500,88,90.0
3446,G#4,215.017,229/500,88,90.0
3447,F#2,215.25,0.25,52,90.0
3448,E-4,215.25,0.25,52,90.0
3449,B-2,215.5,0.25,86,90.0
3450,E-4,215.5,0.25,86,90.0
3451,B-4,215.5,0.25,86,90.0
3452,C2,215.5,0.125,76,90.0
3453,C3,215.5,0.125,76,90.0
3454,E-4,215.533,0.25,91,90.0
3455,C2,215.75,3/40,72,90.0
3456,E-4,215.75,0.25,73,90.0
3457,B-4,215.75,0.25,73,90.0
3458,F2,216.0,9/20,89,90.0
3459,G#3,216.0,2767/1000,85,90.0
3460,F2,216.0,4.0,82,90.0
3461,B1,216.0,0.25,83,90.0
3462,F#2,216.0,0.25,83,90.0
3463,E-4,216.0,0.25,83,90.0
3464,E-4,216.0,4.0,40,90.0
3465,G#4,216.0,4.0,40,90.0
3466,C4,216.058,3/5,70,90.0
3467,E-4,216.25,13/5,68,90.0
3468,F#2,216.25,0.25,43,90.0
3469,E-4,216.25,0.25,43,90.0
3470,F4,216.5,2.375,72,90.0
3471,F#2,216.5,0.25,81,90.0
3472,E-4,216.5,0.25,81,90.0
3473,B-4,216.5,0.25,81,90.0
3474,C5,216.75,3.25,87,90.0
3475,F#2,216.75,0.25,112,90.0
3476,D4,216.75,0.25,112,90.0
3477,D2,217.0,0.25,70,90.0
3478,E-4,217.0,0.25,70,90.0
3479,E-4,217.05,283/1000,100,90.0
3480,F#2,217.25,0.25,39,90.0
3481,B-2,217.25,0.25,39,90.0
3482,G#3,217.25,0.25,39,90.0
3483,E-4,217.25,0.25,39,90.0
3484,F#3,217.25,0.25,39,90.0
3485,F#2,217.5,0.25,62,90.0
3486,G#3,217.5,0.25,62,90.0
3487,E-4,217.5,0.25,62,90.0
3488,F#3,217.5,0.25,62,90.0
3489,B-4,217.5,0.25,62,90.0
3490,F4,217.517,233/1000,72,90.0
3491,F2,217.75,1.0,85,90.0
3492,B1,217.75,0.25,67,90.0
3493,F#2,217.75,0.25,67,90.0
3494,E-4,217.75,0.25,67,90.0
3495,A4,217.75,0.25,67,90.0
3496,G4,217.817,267/1000,98,90.0
3497,B1,218.0,0.25,84,90.0
3498,F#2,218.0,0.25,84,90.0
3499,A4,218.0,0.25,84,90.0
3500,F#2,218.25,0.25,33,90.0
3501,F4,218.325,26/125,87,90.0
3502,F#2,218.5,0.25,63,90.0
3503,E-4,218.5,0.25,63,90.0
3504,B-4,218.5,0.25,63,90.0
3505,C2,218.75,1/5,80,90.0
3506,F#2,218.75,0.25,99,90.0
3507,D4,218.75,0.25,99,90.0
3508,E-4,218.792,151/125,80,90.0
3509,E-2,219.0,229/500,91,90.0
3510,D2,219.0,0.25,71,90.0
3511,F#2,219.0,0.25,71,90.0
3512,E-4,219.0,0.25,71,90.0
3513,F4,219.0,24/125,101,90.0
3514,G#3,219.0,24/125,101,90.0
3515,E-4,219.0,24/125,101,90.0
3516,F#2,219.25,0.25,42,90.0
3517,E-4,219.25,0.25,42,90.0
3518,E-4,219.25,23/250,72,90.0
3519,G#3,219.25,23/250,72,90.0
3520,F4,219.25,23/250,72,90.0
3521,F2,219.5,179/500,95,90.0
3522,F#2,219.5,0.25,106,90.0
3523,E-4,219.5,0.25,106,90.0
3524,B-4,219.5,0.25,106,90.0
3525,F#2,219.75,0.25,80,90.0
3526,E-4,219.75,0.25,80,90.0
3527,B-4,219.75,0.25,80,90.0
3528,B-1,220.0,9/20,89,90.0
3529,E-4,220.0,1083/1000,80,90.0
3530,B1,220.0,0.25,76,90.0
3531,F#2,220.0,0.25,76,90.0
3532,D4,220.0,0.25,76,90.0
3533,G#3,220.0,1/10,105,90.0
3534,C4,220.0,1/10,105,90.0
3535,E-4,220.0,1/10,105,90.0
3536,F4,220.0,1/10,105,90.0
3537,D4,220.0,4.0,39,90.0
3538,G3,220.0,4.0,39,90.0
3539,F#2,220.25,0.25,42,90.0
3540,D4,220.25,0.25,42,90.0
3541,G#3,220.25,23/250,74,90.0
3542,C4,220.25,23/250,74,90.0
3543,E-4,220.25,23/250,74,90.0
3544,F4,220.25,23/250,74,90.0
3545,F#2,220.5,0.25,47,90.0
3546,E-4,220.5,0.25,47,90.0
3547,B-4,220.5,0.25,47,90.0
3548,B-1,220.5,217/1000,86,90.0
3549,B-2,220.5,217/1000,86,90.0
3550,F#2,220.75,0.25,98,90.0
3551,D4,220.75,0.25,98,90.0
3552,D2,221.0,0.25,71,90.0
3553,E-4,221.0,0.25,71,90.0
3554,F#2,221.25,0.25,50,90.0
3555,G#3,221.25,0.25,50,90.0
3556,D4,221.25,0.25,50,90.0
3557,F#3,221.25,0.25,50,90.0
3558,G#3,221.25,117/1000,89,90.0
3559,C4,221.25,117/1000,89,90.0
3560,E-4,221.25,117/1000,89,90.0
3561,F4,221.25,117/1000,89,90.0
3562,E-4,221.267,167/1000,93,90.0
3563,F#2,221.5,0.25,54,90.0
3564,G#3,221.5,0.25,54,90.0
3565,E-4,221.5,0.25,54,90.0
3566,F#3,221.5,0.25,54,90.0
3567,B-4,221.5,0.25,54,90.0
3568,F4,221.533,1/5,72,90.0
3569,B-1,221.75,1.0,85,90.0
3570,B1,221.75,0.25,65,90.0
3571,B-2,221.75,0.25,65,90.0
3572,E-4,221.75,0.25,65,90.0
3573,A4,221.75,0.25,65,90.0
3574,B-1,221.75,9/40,100,90.0
3575,B-2,221.75,9/40,100,90.0
3576,G4,221.825,24/125,98,90.0
3577,B1,222.0,0.25,58,90.0
3578,F#2,222.0,0.25,58,90.0
3579,A4,222.0,0.25,58,90.0
3580,F#2,222.25,0.25,60,90.0
3581,E-4,222.25,0.25,60,90.0
3582,G#3,222.25,23/250,80,90.0
3583,C4,222.25,23/250,80,90.0
3584,E-4,222.25,23/250,80,90.0
3585,F4,222.25,23/250,80,90.0
3586,F4,222.292,183/1000,87,90.0
3587,F#2,222.5,0.25,72,90.0
3588,E-4,222.5,0.25,72,90.0
3589,B-4,222.5,0.25,72,90.0
3590,F1,222.75,1/5,80,90.0
3591,F#2,222.75,0.25,114,90.0
3592,D4,222.75,0.25,114,90.0
3593,B-2,222.75,71/500,82,90.0
3594,B-1,222.75,71/500,82,90.0
3595,E-4,222.783,29/40,91,90.0
3596,G#1,223.0,229/500,91,90.0
3597,D2,223.0,0.25,85,90.0
3598,E-4,223.0,0.25,85,90.0
3599,G#3,223.0,121/500,82,90.0
3600,C4,223.0,121/500,82,90.0
3601,E-4,223.0,121/500,82,90.0
3602,F4,223.0,121/500,82,90.0
3603,F#2,223.25,0.25,52,90.0
3604,E-4,223.25,0.25,52,90.0
3605,B-1,223.5,179/500,95,90.0
3606,B-2,223.5,0.25,86,90.0
3607,E-4,223.5,0.25,86,90.0
3608,B-4,223.5,0.25,86,90.0
3609,G#3,223.5,71/500,80,90.0
3610,C4,223.5,71/500,80,90.0
3611,E-4,223.5,71/500,80,90.0
3612,F4,223.5,71/500,80,90.0
3613,F4,223.55,9/40,91,90.0
3614,E-4,223.75,0.25,73,90.0
3615,B-4,223.75,0.25,73,90.0
3616,E-2,224.0,1633/1000,91,90.0
3617,B1,224.0,0.25,70,90.0
3618,F#2,224.0,0.25,70,90.0
3619,E-4,224.0,0.25,70,90.0
3620,D4,224.0,1/10,97,90.0
3621,F4,224.0,1/10,97,90.0
3622,G3,224.0,1/10,97,90.0
3623,B-3,224.0,1/10,97,90.0
3624,F4,224.0,2.0,40,90.0
3625,B4,224.0,2.0,40,90.0
3626,F#4,224.042,27/250,78,90.0
3627,G4,224.133,317/1000,95,90.0
3628,F#2,224.25,0.25,43,90.0
3629,E-4,224.25,0.25,43,90.0
3630,F#2,224.5,0.25,81,90.0
3631,E-4,224.5,0.25,81,90.0
3632,B-4,224.5,0.25,81,90.0
3633,D4,224.5,1/10,99,90.0
3634,F4,224.5,1/10,99,90.0
3635,G3,224.5,1/10,99,90.0
3636,B-3,224.5,1/10,99,90.0
3637,B-4,224.542,26/125,87,90.0
3638,F#2,224.75,0.25,108,90.0
3639,D4,224.75,0.25,108,90.0
3640,D2,225.0,0.25,71,90.0
3641,E-4,225.0,0.25,71,90.0
3642,B-4,225.033,517/1000,100,90.0
3643,F#2,225.25,0.25,36,90.0
3644,G#3,225.25,0.25,36,90.0
3645,E-4,225.25,0.25,36,90.0
3646,F#3,225.25,0.25,36,90.0
3647,D4,225.25,117/1000,88,90.0
3648,F4,225.25,117/1000,88,90.0
3649,G3,225.25,117/1000,88,90.0
3650,B-3,225.25,117/1000,88,90.0
3651,G4,225.475,267/1000,66,90.0
3652,F#2,225.5,0.25,62,90.0
3653,G#3,225.5,0.25,62,90.0
3654,E-4,225.5,0.25,62,90.0
3655,F#3,225.5,0.25,62,90.0
3656,B-4,225.5,0.25,62,90.0
3657,E-2,225.75,1.5,85,90.0
3658,B1,225.75,0.25,75,90.0
3659,F#2,225.75,0.25,75,90.0
3660,E-4,225.75,0.25,75,90.0
3661,A4,225.75,0.25,75,90.0
3662,E-2,225.75,7/20,83,90.0
3663,E-3,225.75,7/20,83,90.0
3664,C5,225.758,9/40,87,90.0
3665,B1,226.0,0.25,81,90.0
3666,F#2,226.0,0.25,81,90.0
3667,A4,226.0,0.25,81,90.0
3668,E4,226.0,2.0,40,90.0
3669,B-4,226.0,2.0,40,90.0
3670,F#2,226.25,0.25,33,90.0
3671,D4,226.25,0.125,103,90.0
3672,F4,226.25,0.125,103,90.0
3673,G3,226.25,0.125,103,90.0
3674,B-3,226.25,0.125,103,90.0
3675,G4,226.3,0.25,87,90.0
3676,F#2,226.5,0.25,63,90.0
3677,E-4,226.5,0.25,63,90.0
3678,B-4,226.5,0.25,63,90.0
3679,F#2,226.75,0.25,102,90.0
3680,D4,226.75,0.25,102,90.0
3681,E-3,226.75,129/500,66,90.0
3682,E-2,226.75,129/500,66,90.0
3683,B-4,226.758,121/500,89,90.0
3684,D2,227.0,0.25,84,90.0
3685,E-4,227.0,0.25,84,90.0
3686,D4,227.0,9/20,95,90.0
3687,F4,227.0,9/20,95,90.0
3688,G3,227.0,9/20,95,90.0
3689,B-3,227.0,9/20,95,90.0
3690,B-4,227.225,67/1000,80,90.0
3691,B-1,227.25,129/500,57,90.0
3692,F#2,227.25,0.25,42,90.0
3693,E-4,227.25,0.25,42,90.0
3694,F#2,227.5,0.25,100,90.0
3695,E-4,227.5,0.25,100,90.0
3696,B-4,227.5,0.25,100,90.0
3697,E-3,227.5,79/500,76,90.0
3698,E-2,227.5,79/500,76,90.0
3699,E-2,227.508,51/125,87,90.0
3700,C5,227.542,23/250,76,90.0
3701,B4,227.542,23/250,76,90.0
3702,F#2,227.75,0.25,80,90.0
3703,E-4,227.75,0.25,80,90.0
3704,B-4,227.75,0.25,80,90.0
3705,E-5,227.8,1/5,93,90.0
3706,A1,228.0,483/1000,95,90.0
3707,E-5,228.0,0.125,93,90.0
3708,B1,228.0,0.25,82,90.0
3709,F#2,228.0,0.25,82,90.0
3710,C#4,228.0,267/1000,87,90.0
3711,G3,228.0,267/1000,87,90.0
3712,E-4,228.0,4.0,40,90.0
3713,G#4,228.0,4.0,40,90.0
3714,F#2,228.25,0.25,31,90.0
3715,B-4,228.275,3/20,56,90.0
3716,F#2,228.5,0.25,108,90.0
3717,G3,228.5,267/1000,92,90.0
3718,C#4,228.5,267/1000,92,90.0
3719,C5,228.567,167/1000,60,90.0
3720,F#2,228.75,0.25,118,90.0
3721,E-5,228.833,26/125,105,90.0
3722,D2,229.0,0.25,96,90.0
3723,G#3,229.0,0.25,96,90.0
3724,F#2,229.25,0.25,46,90.0
3725,D4,229.25,0.25,46,90.0
3726,A4,229.25,0.25,46,90.0
3727,C#4,229.25,133/1000,91,90.0
3728,G3,229.25,133/1000,91,90.0
3729,B-4,229.267,167/1000,61,90.0
3730,F#2,229.5,0.25,70,90.0
3731,A4,229.5,0.25,70,90.0
3732,C5,229.525,167/1000,80,90.0
3733,A1,229.75,19/20,87,90.0
3734,D2,229.75,0.25,65,90.0
3735,F#2,229.75,0.25,65,90.0
3736,G#3,229.75,0.25,65,90.0
3737,E-4,229.75,0.25,65,90.0
3738,F#3,229.75,0.25,65,90.0
3739,E-5,229.783,26/125,102,90.0
3740,B1,230.0,0.25,80,90.0
3741,F#2,230.0,0.25,80,90.0
3742,G#3,230.0,0.25,80,90.0
3743,F#3,230.0,0.25,80,90.0
3744,A2,230.25,167/1000,80,90.0
3745,B-4,230.25,7/40,58,90.0
3746,D2,230.25,0.25,51,90.0
3747,F#2,230.25,0.25,51,90.0
3748,E-4,230.25,0.25,51,90.0
3749,B-4,230.25,0.25,51,90.0
3750,C5,230.5,3/20,70,90.0
3751,D2,230.5,0.25,115,90.0
3752,B-2,230.5,0.25,115,90.0
3753,B-4,230.5,0.25,115,90.0
3754,A0,230.75,26/125,82,90.0
3755,A2,230.75,23/250,93,90.0
3756,E-5,230.783,1/5,95,90.0
3757,E1,231.0,767/1000,68,90.0
3758,G#3,231.0,0.25,80,90.0
3759,C#4,231.0,13/40,91,90.0
3760,G3,231.0,13/40,91,90.0
3761,C5,231.225,7/40,68,90.0
3762,A2,231.25,0.25,112,90.0
3763,F2,231.5,0.25,124,90.0
3764,C#4,231.5,0.375,89,90.0
3765,G3,231.5,3/10,87,90.0
3766,E-5,231.508,26/125,89,90.0
3767,G#2,232.0,483/1000,98,90.0
3768,B1,232.0,0.25,78,90.0
3769,F#2,232.0,0.25,78,90.0
3770,C#3,232.0,0.25,78,90.0
3771,E-4,232.0,0.25,78,90.0
3772,G4,232.0,267/1000,87,90.0
3773,C4,232.0,267/1000,87,90.0
3774,E-4,232.0,4.0,40,90.0
3775,G#4,232.0,4.0,40,90.0
3776,F#2,232.25,0.25,32,90.0
3777,E-4,232.25,0.25,32,90.0
3778,F#2,232.5,0.25,90,90.0
3779,B-4,232.5,0.25,90,90.0
3780,C4,232.5,267/1000,92,90.0
3781,G4,232.5,267/1000,92,90.0
3782,F#2,232.75,0.25,118,90.0
3783,D4,232.75,0.25,118,90.0
3784,D2,233.0,0.25,78,90.0
3785,E-4,233.0,0.25,78,90.0
3786,G5,233.05,3/10,95,90.0
3787,F#2,233.25,0.25,40,90.0
3788,G#3,233.25,0.25,40,90.0
3789,E-4,233.25,0.25,40,90.0
3790,F#3,233.25,0.25,40,90.0
3791,G4,233.25,133/1000,91,90.0
3792,C4,233.25,133/1000,91,90.0
3793,F#2,233.5,0.25,58,90.0
3794,G#3,233.5,0.25,58,90.0
3795,E-4,233.5,0.25,58,90.0
3796,F#3,233.5,0.25,58,90.0
3797,B-4,233.5,0.25,58,90.0
3798,C5,233.517,233/1000,66,90.0
3799,G#2,233.75,933/1000,89,90.0
3800,B1,233.75,0.25,62,90.0
3801,F#2,233.75,0.25,62,90.0
3802,E-4,233.75,0.25,62,90.0
3803,A4,233.75,0.25,62,90.0
3804,E-5,233.8,11/5,87,90.0
3805,B1,234.0,0.25,80,90.0
3806,F#2,234.0,0.25,80,90.0
3807,A4,234.0,0.25,80,90.0
3808,G#2,234.25,167/1000,80,90.0
3809,F#2,234.25,0.25,58,90.0
3810,D4,234.25,0.25,58,90.0
3811,F#2,234.5,0.25,76,90.0
3812,B-4,234.5,0.25,76,90.0
3813,G#1,234.75,3/20,74,90.0
3814,G#2,234.75,23/250,93,90.0
3815,F#2,234.75,0.25,71,90.0
3816,E-4,234.75,0.25,71,90.0
3817,G#2,235.0,49/125,85,90.0
3818,D2,235.0,0.25,113,90.0
3819,G4,235.0,13/40,91,90.0
3820,C4,235.0,13/40,91,90.0
3821,F#2,235.25,0.25,54,90.0
3822,E-4,235.25,0.25,54,90.0
3823,G4,235.5,0.375,89,90.0
3824,C4,235.5,3/10,87,90.0
3825,F#2,235.5,0.25,92,90.0
3826,E-4,235.5,0.25,92,90.0
3827,B-4,235.5,0.25,92,90.0
3828,F#2,235.75,0.25,92,90.0
3829,E-4,235.75,0.25,92,90.0
3830,B-4,235.75,0.25,92,90.0
3831,G2,236.0,483/1000,95,90.0
3832,E-5,236.0,151/125,87,90.0
3833,B1,236.0,0.25,93,90.0
3834,F#2,236.0,0.25,93,90.0
3835,E-4,236.0,0.25,93,90.0
3836,D4,236.0,4.0,40,90.0
3837,G4,236.0,4.0,40,90.0
3838,F3,236.025,27/250,99,90.0
3839,G4,236.025,27/250,99,90.0
3840,B-3,236.025,27/250,99,90.0
3841,D4,236.025,27/250,99,90.0
3842,F#2,236.25,0.25,43,90.0
3843,E-4,236.25,0.25,43,90.0
3844,F3,236.25,0.125,81,90.0
3845,G4,236.25,0.125,81,90.0
3846,B-3,236.25,0.125,81,90.0
3847,D4,236.25,0.125,81,90.0
3848,F#2,236.5,0.25,59,90.0
3849,E-4,236.5,0.25,59,90.0
3850,B-4,236.5,0.25,59,90.0
3851,F#2,236.75,0.25,112,90.0
3852,D4,236.75,0.25,112,90.0
3853,D2,237.0,0.25,71,90.0
3854,E-4,237.0,0.25,71,90.0
3855,F#2,237.25,0.25,36,90.0
3856,G#3,237.25,0.25,36,90.0
3857,E-4,237.25,0.25,36,90.0
3858,F#3,237.25,0.25,36,90.0
3859,F3,237.258,23/250,97,90.0
3860,G4,237.258,23/250,97,90.0
3861,B-3,237.258,23/250,97,90.0
3862,D4,237.258,23/250,97,90.0
3863,F#2,237.5,0.25,71,90.0
3864,G#3,237.5,0.25,71,90.0
3865,E-4,237.5,0.25,71,90.0
3866,F#3,237.5,0.25,71,90.0
3867,B-4,237.5,0.25,71,90.0
3868,G2,237.75,19/20,87,90.0
3869,B1,237.75,0.25,67,90.0
3870,F#2,237.75,0.25,67,90.0
3871,E-4,237.75,0.25,67,90.0
3872,A4,237.75,0.25,67,90.0
3873,G2,237.758,233/1000,94,90.0
3874,E-5,237.758,233/1000,93,90.0
3875,B1,238.0,0.25,65,90.0
3876,F#2,238.0,0.25,65,90.0
3877,A4,238.0,0.25,65,90.0
3878,B-5,238.075,11/40,87,90.0
3879,F#2,238.25,0.25,127,90.0
3880,F3,238.292,1/10,88,90.0
3881,G4,238.292,1/10,88,90.0
3882,B-3,238.292,1/10,88,90.0
3883,D4,238.292,1/10,88,90.0
3884,F#2,238.5,0.25,50,90.0
3885,E-4,238.5,0.25,50,90.0
3886,B-4,238.5,0.25,50,90.0
3887,B-5,238.517,2/5,85,90.0
3888,G1,238.75,26/125,82,90.0
3889,F#2,238.75,0.25,69,90.0
3890,D4,238.75,0.25,69,90.0
3891,G2,238.758,3/40,88,90.0
3892,G5,238.842,129/500,85,90.0
3893,D2,239.0,767/1000,68,90.0
3894,D2,239.0,0.25,84,90.0
3895,E-4,239.0,0.25,84,90.0
3896,F3,239.042,233/1000,86,90.0
3897,G4,239.042,233/1000,86,90.0
3898,B-3,239.042,233/1000,86,90.0
3899,D4,239.042,233/1000,86,90.0
3900,F#2,239.25,0.25,70,90.0
3901,E-4,239.25,0.25,70,90.0
3902,G5,239.292,7/20,89,90.0
3903,F#2,239.5,0.25,83,90.0
3904,E-4,239.5,0.25,83,90.0
3905,B-4,239.5,0.25,83,90.0
3906,F3,239.508,79/500,97,90.0
3907,G4,239.508,79/500,97,90.0
3908,B-3,239.508,79/500,97,90.0
3909,D4,239.508,79/500,97,90.0
3910,F#2,239.75,0.25,84,90.0
3911,B-2,239.75,0.25,84,90.0
3912,E-4,239.75,0.25,84,90.0
3913,B-4,239.75,0.25,84,90.0
3914,F5,239.767,233/1000,85,90.0
3915,F2,240.0,9/20,89,90.0
3916,F5,240.0,67/20,85,90.0
3917,B1,240.0,0.25,76,90.0
3918,F#2,240.0,0.25,76,90.0
3919,D4,240.0,0.25,76,90.0
3920,E-3,240.0,0.125,98,90.0
3921,F4,240.0,0.125,98,90.0
3922,G#3,240.0,0.125,98,90.0
3923,C4,240.0,0.125,98,90.0
3924,C#4,240.0,4.0,40,90.0
3925,G4,240.0,4.0,40,90.0
3926,F#2,240.25,0.25,42,90.0
3927,D4,240.25,0.25,42,90.0
3928,F#2,240.5,0.25,47,90.0
3929,E-4,240.5,0.25,47,90.0
3930,B-4,240.5,0.25,47,90.0
3931,E-3,240.5,0.125,102,90.0
3932,F4,240.5,0.125,102,90.0
3933,G#3,240.5,0.125,102,90.0
3934,C4,240.5,0.125,102,90.0
3935,F#2,240.75,0.25,98,90.0
3936,D4,240.75,0.25,98,90.0
3937,D2,241.0,0.25,71,90.0
3938,E-4,241.0,0.25,71,90.0
3939,F#2,241.25,0.25,50,90.0
3940,G#3,241.25,0.25,50,90.0
3941,D4,241.25,0.25,50,90.0
3942,F#3,241.25,0.25,50,90.0
3943,E-3,241.25,1/10,105,90.0
3944,F4,241.25,1/10,105,90.0
3945,G#3,241.25,1/10,105,90.0
3946,C4,241.25,1/10,105,90.0
3947,F#2,241.5,0.25,54,90.0
3948,G#3,241.5,0.25,54,90.0
3949,E-4,241.5,0.25,54,90.0
3950,F#3,241.5,0.25,54,90.0
3951,B-4,241.5,0.25,54,90.0
3952,F2,241.75,1.0,85,90.0
3953,F2,241.75,24/125,89,90.0
3954,B1,241.75,0.25,74,90.0
3955,F#2,241.75,0.25,74,90.0
3956,E-4,241.75,0.25,74,90.0
3957,A4,241.75,0.25,74,90.0
3958,B1,242.0,0.25,58,90.0
3959,F#2,242.0,0.25,58,90.0
3960,A4,242.0,0.25,58,90.0
3961,F#2,242.25,0.25,60,90.0
3962,E-4,242.25,0.25,60,90.0
3963,E-3,242.25,23/250,102,90.0
3964,F4,242.25,23/250,102,90.0
3965,G#3,242.25,23/250,102,90.0
3966,C4,242.25,23/250,102,90.0
3967,F#2,242.5,0.25,72,90.0
3968,E-4,242.5,0.25,72,90.0
3969,B-4,242.5,0.25,72,90.0
3970,C2,242.75,1/5,80,90.0
3971,F2,242.75,183/1000,82,90.0
3972,F#2,242.75,0.25,114,90.0
3973,D4,242.75,0.25,114,90.0
3974,E-2,243.0,229/500,91,90.0
3975,D2,243.0,0.25,85,90.0
3976,E-4,243.0,0.25,85,90.0
3977,E-3,243.0,133/1000,110,90.0
3978,F4,243.0,133/1000,110,90.0
3979,G#3,243.0,133/1000,110,90.0
3980,C4,243.0,133/1000,110,90.0
3981,F#2,243.25,0.25,52,90.0
3982,E-4,243.25,0.25,52,90.0
3983,F2,243.5,179/500,95,90.0
3984,F2,243.5,73/250,85,90.0
3985,B-2,243.5,0.25,86,90.0
3986,E-4,243.5,0.25,86,90.0
3987,B-4,243.5,0.25,86,90.0
3988,E-5,243.6,71/500,45,90.0
3989,E-4,243.75,0.25,73,90.0
3990,B-4,243.75,0.25,73,90.0
3991,F5,243.817,183/1000,68,90.0
3992,C2,244.0,1633/1000,91,90.0
3993,F5,244.0,1/125,68,90.0
3994,B1,244.0,0.25,83,90.0
3995,F#2,244.0,0.25,83,90.0
3996,E-4,244.0,0.25,83,90.0
3997,B-3,244.0,1/10,105,90.0
3998,D4,244.0,1/10,105,90.0
3999,E-3,244.0,1/10,105,90.0
4000,G4,244.0,1/10,105,90.0
4001,G4,244.0,4.0,40,90.0
4002,C5,244.0,4.0,40,90.0
4003,G5,244.083,267/1000,100,90.0
4004,F#2,244.25,0.25,43,90.0
4005,E-4,244.25,0.25,43,90.0
4006,B-3,244.25,23/250,74,90.0
4007,D4,244.25,23/250,74,90.0
4008,E-3,244.25,23/250,74,90.0
4009,G4,244.25,23/250,74,90.0
4010,F#2,244.5,0.25,81,90.0
4011,E-4,244.5,0.25,81,90.0
4012,B-4,244.5,0.25,81,90.0
4013,C2,244.5,217/1000,86,90.0
4014,C3,244.5,217/1000,86,90.0
4015,G5,244.533,26/125,74,90.0
4016,F#2,244.75,0.25,112,90.0
4017,D4,244.75,0.25,112,90.0
4018,F5,244.817,11/40,85,90.0
4019,D2,245.0,0.25,70,90.0
4020,E-4,245.0,0.25,70,90.0
4021,F#2,245.25,0.25,39,90.0
4022,B-2,245.25,0.25,39,90.0
4023,G#3,245.25,0.25,39,90.0
4024,E-4,245.25,0.25,39,90.0
4025,F#3,245.25,0.25,39,90.0
4026,B-3,245.25,117/1000,89,90.0
4027,D4,245.25,117/1000,89,90.0
4028,E-3,245.25,117/1000,89,90.0
4029,G4,245.25,117/1000,89,90.0
4030,F5,245.3,121/500,66,90.0
4031,F#2,245.5,0.25,62,90.0
4032,G#3,245.5,0.25,62,90.0
4033,E-4,245.5,0.25,62,90.0
4034,F#3,245.5,0.25,62,90.0
4035,B-4,245.5,0.25,62,90.0
4036,C2,245.75,1.5,85,90.0
4037,B1,245.75,0.25,67,90.0
4038,F#2,245.75,0.25,67,90.0
4039,E-4,245.75,0.25,67,90.0
4040,A4,245.75,0.25,67,90.0
4041,C2,245.75,9/40,100,90.0
4042,C3,245.75,9/40,100,90.0
4043,E-5,245.783,2217/1000,78,90.0
4044,B1,246.0,0.25,84,90.0
4045,F#2,246.0,0.25,84,90.0
4046,A4,246.0,0.25,84,90.0
4047,F#2,246.25,0.25,33,90.0
4048,B-3,246.25,23/250,80,90.0
4049,D4,246.25,23/250,80,90.0
4050,E-3,246.25,23/250,80,90.0
4051,G4,246.25,23/250,80,90.0
4052,F#2,246.5,0.25,63,90.0
4053,E-4,246.5,0.25,63,90.0
4054,B-4,246.5,0.25,63,90.0
4055,F#2,246.75,0.25,99,90.0
4056,D4,246.75,0.25,99,90.0
4057,C3,246.75,71/500,82,90.0
4058,C2,246.75,71/500,82,90.0
4059,D2,247.0,0.25,71,90.0
4060,F#2,247.0,0.25,71,90.0
4061,E-4,247.0,0.25,71,90.0
4062,B-3,247.0,121/500,82,90.0
4063,D4,247.0,121/500,82,90.0
4064,E-3,247.0,121/500,82,90.0
4065,G4,247.0,121/500,82,90.0
4066,G1,247.25,129/500,57,90.0
4067,F#2,247.25,0.25,42,90.0
4068,E-4,247.25,0.25,42,90.0
4069,F#2,247.5,0.25,106,90.0
4070,E-4,247.5,0.25,106,90.0
4071,B-4,247.5,0.25,106,90.0
4072,B-3,247.5,71/500,80,90.0
4073,D4,247.5,71/500,80,90.0
4074,E-3,247.5,71/500,80,90.0
4075,G4,247.5,71/500,80,90.0
4076,C2,247.508,51/125,87,90.0
4077,F#2,247.75,0.25,80,90.0
4078,E-4,247.75,0.25,80,90.0
4079,B-4,247.75,0.25,80,90.0
4080,G#2,248.0,533/1000,102,90.0
4081,E-5,248.0,467/1000,78,90.0
4082,B1,248.0,0.25,83,90.0
4083,F#2,248.0,0.25,83,90.0
4084,E-4,248.0,0.25,83,90.0
4085,F4,248.0,4.0,40,90.0
4086,B-4,248.0,4.0,40,90.0
4087,G3,248.025,27/250,99,90.0
4088,B-4,248.025,27/250,99,90.0
4089,C4,248.025,27/250,99,90.0
4090,E-4,248.025,27/250,99,90.0
4091,F#2,248.25,0.25,43,90.0
4092,E-4,248.25,0.25,43,90.0
4093,G3,248.25,0.125,81,90.0
4094,B-4,248.25,0.125,81,90.0
4095,C4,248.25,0.125,81,90.0
4096,E-4,248.25,0.125,81,90.0
4097,F#2,248.5,0.25,81,90.0
4098,E-4,248.5,0.25,81,90.0
4099,B-4,248.5,0.25,81,90.0
4100,F#2,248.75,0.25,112,90.0
4101,D4,248.75,0.25,112,90.0
4102,D2,249.0,0.25,70,90.0
4103,E-4,249.0,0.25,70,90.0
4104,F#4,249.042,117/1000,102,90.0
4105,G4,249.158,267/1000,82,90.0
4106,G2,249.25,167/1000,85,90.0
4107,F#2,249.25,0.25,39,90.0
4108,B-2,249.25,0.25,39,90.0
4109,G#3,249.25,0.25,39,90.0
4110,E-4,249.25,0.25,39,90.0
4111,F#3,249.25,0.25,39,90.0
4112,G3,249.258,23/250,97,90.0
4113,B-4,249.258,23/250,97,90.0
4114,C4,249.258,23/250,97,90.0
4115,E-4,249.258,23/250,97,90.0
4116,G2,249.5,217/1000,78,90.0
4117,F#2,249.5,0.25,62,90.0
4118,G#3,249.5,0.25,62,90.0
4119,E-4,249.5,0.25,62,90.0
4120,F#3,249.5,0.25,62,90.0
4121,B-4,249.5,0.25,62,90.0
4122,C4,249.508,0.25,102,90.0
4123,G#2,249.75,933/1000,85,90.0
4124,B1,249.75,0.25,67,90.0
4125,F#2,249.75,0.25,67,90.0
4126,E-4,249.75,0.25,67,90.0
4127,A4,249.75,0.25,67,90.0
4128,G#2,249.758,233/1000,94,90.0
4129,E-4,249.833,2167/1000,91,90.0
4130,B1,250.0,0.25,84,90.0
4131,F#2,250.0,0.25,84,90.0
4132,A4,250.0,0.25,84,90.0
4133,F#2,250.25,0.25,33,90.0
4134,G3,250.292,1/10,88,90.0
4135,B-4,250.292,1/10,88,90.0
4136,C4,250.292,1/10,88,90.0
4137,E-4,250.292,1/10,88,90.0
4138,F#2,250.5,0.25,63,90.0
4139,E-4,250.5,0.25,63,90.0
4140,B-4,250.5,0.25,63,90.0
4141,E-2,250.75,117/1000,74,90.0
4142,F#2,250.75,0.25,99,90.0
4143,D4,250.75,0.25,99,90.0
4144,G#2,250.758,3/40,88,90.0
4145,G2,251.0,17/40,78,90.0
4146,D2,251.0,0.25,71,90.0
4147,F#2,251.0,0.25,71,90.0
4148,E-4,251.0,0.25,71,90.0
4149,G3,251.042,233/1000,86,90.0
4150,B-4,251.042,233/1000,86,90.0
4151,C4,251.042,233/1000,86,90.0
4152,E-4,251.042,233/1000,86,90.0
4153,F#2,251.25,0.25,42,90.0
4154,E-4,251.25,0.25,42,90.0
4155,G2,251.5,417/1000,74,90.0
4156,F#2,251.5,0.25,106,90.0
4157,E-4,251.5,0.25,106,90.0
4158,B-4,251.5,0.25,106,90.0
4159,G3,251.508,79/500,97,90.0
4160,B-4,251.508,79/500,97,90.0
4161,C4,251.508,79/500,97,90.0
4162,E-4,251.508,79/500,97,90.0
4163,F#2,251.75,0.25,80,90.0
4164,E-4,251.75,0.25,80,90.0
4165,B-4,251.75,0.25,80,90.0
4166,G#2,252.0,17/40,87,90.0
4167,E-4,252.0,379/500,91,90.0
4168,B1,252.0,0.25,85,90.0
4169,F#2,252.0,0.25,85,90.0
4170,G#3,252.0,0.25,85,90.0
4171,D4,252.0,0.25,85,90.0
4172,E-4,252.0,4.0,40,90.0
4173,G#4,252.0,4.0,40,90.0
4174,F#2,252.25,0.25,43,90.0
4175,E-4,252.25,0.25,43,90.0
4176,F#2,252.5,0.25,78,90.0
4177,G#3,252.5,0.25,78,90.0
4178,D4,252.5,0.25,78,90.0
4179,B-4,252.5,0.25,78,90.0
4180,F#2,252.75,0.25,100,90.0
4181,D4,252.75,0.25,100,90.0
4182,D2,253.0,0.25,71,90.0
4183,E-4,253.0,0.25,71,90.0
4184,G2,253.25,79/500,60,90.0
4185,F#2,253.25,0.25,43,90.0
4186,G#3,253.25,0.25,43,90.0
4187,E-4,253.25,0.25,43,90.0
4188,F#3,253.25,0.25,43,90.0
4189,A4,253.25,0.25,43,90.0
4190,G2,253.5,183/1000,63,90.0
4191,F#2,253.5,0.25,66,90.0
4192,E-4,253.5,0.25,66,90.0
4193,F#3,253.5,0.25,66,90.0
4194,B-4,253.5,0.25,66,90.0
4195,A4,253.5,0.25,66,90.0
4196,E-4,253.725,9/40,100,90.0
4197,G#2,253.75,477/250,89,90.0
4198,B1,253.75,0.25,74,90.0
4199,F#2,253.75,0.25,74,90.0
4200,G#3,253.75,0.25,74,90.0
4201,E-4,253.75,0.25,74,90.0
4202,A4,253.75,0.25,74,90.0
4203,B1,254.0,0.25,81,90.0
4204,F#2,254.0,0.25,81,90.0
4205,A4,254.0,0.25,81,90.0
4206,B-4,254.042,267/1000,102,90.0
4207,F#2,254.25,0.25,33,90.0
4208,B-4,254.417,121/500,100,90.0
4209,F#2,254.5,0.25,80,90.0
4210,E-4,254.5,0.25,80,90.0
4211,B-4,254.5,0.25,80,90.0
4212,G4,254.742,129/500,85,90.0
4213,F#2,254.75,0.25,93,90.0
4214,G#3,254.75,0.25,93,90.0
4215,D4,254.75,0.25,93,90.0
4216,G#2,254.783,133/1000,67,90.0
4217,D2,255.0,0.25,84,90.0
4218,E-4,255.0,0.25,84,90.0
4219,G3,255.05,3/20,104,90.0
4220,B-4,255.05,3/20,104,90.0
4221,C4,255.05,3/20,104,90.0
4222,E-4,255.05,3/20,104,90.0
4223,F#2,255.25,0.25,42,90.0
4224,E-4,255.25,0.25,42,90.0
4225,G4,255.283,51/125,87,90.0
4226,G3,255.292,23/250,67,90.0
4227,B-4,255.292,23/250,67,90.0
4228,C4,255.292,23/250,67,90.0
4229,E-4,255.292,23/250,67,90.0
4230,F#2,255.5,0.25,91,90.0
4231,G#3,255.5,0.25,91,90.0
4232,E-4,255.5,0.25,91,90.0
4233,B-4,255.5,0.25,91,90.0
4234,G#2,255.75,117/1000,82,90.0
4235,F#2,255.75,0.25,80,90.0
4236,E-4,255.75,0.25,80,90.0
4237,B-4,255.75,0.25,80,90.0
4238,F4,255.783,217/1000,82,90.0
4239,C#2,256.0,483/1000,98,90.0
4240,F4,256.0,1729/500,82,90.0
4241,B1,256.0,0.25,76,90.0
4242,F#2,256.0,0.25,76,90.0
4243,D4,256.0,0.25,76,90.0
4244,B3,256.0,1/10,97,90.0
4245,E-4,256.0,1/10,97,90.0
4246,F3,256.0,1/10,97,90.0
4247,B-4,256.0,1/10,97,90.0
4248,E-4,256.0,4.0,40,90.0
4249,B-4,256.0,4.0,40,90.0
4250,F#2,256.25,0.25,42,90.0
4251,D4,256.25,0.25,42,90.0
4252,F#2,256.5,0.25,47,90.0
4253,E-4,256.5,0.25,47,90.0
4254,B-4,256.5,0.25,47,90.0
4255,B3,256.5,1/10,99,90.0
4256,E-4,256.5,1/10,99,90.0
4257,F3,256.5,1/10,99,90.0
4258,B-4,256.5,1/10,99,90.0
4259,F#2,256.75,0.25,98,90.0
4260,D4,256.75,0.25,98,90.0
4261,D2,257.0,0.25,71,90.0
4262,E-4,257.0,0.25,71,90.0
4263,F#2,257.25,0.25,50,90.0
4264,G#3,257.25,0.25,50,90.0
4265,D4,257.25,0.25,50,90.0
4266,F#3,257.25,0.25,50,90.0
4267,B3,257.25,117/1000,88,90.0
4268,E-4,257.25,117/1000,88,90.0
4269,F3,257.25,117/1000,88,90.0
4270,B-4,257.25,117/1000,88,90.0
4271,F#2,257.5,0.25,54,90.0
4272,G#3,257.5,0.25,54,90.0
4273,E-4,257.5,0.25,54,90.0
4274,F#3,257.5,0.25,54,90.0
4275,B-4,257.5,0.25,54,90.0
4276,C#2,257.75,933/1000,89,90.0
4277,B1,257.75,0.25,74,90.0
4278,F#2,257.75,0.25,74,90.0
4279,E-4,257.75,0.25,74,90.0
4280,A4,257.75,0.25,74,90.0
4281,C#2,257.75,7/20,83,90.0
4282,C#3,257.75,7/20,83,90.0
4283,B1,258.0,0.25,58,90.0
4284,F#2,258.0,0.25,58,90.0
4285,A4,258.0,0.25,58,90.0
4286,F#2,258.25,0.25,60,90.0
4287,E-4,258.25,0.25,60,90.0
4288,B3,258.25,0.125,103,90.0
4289,E-4,258.25,0.125,103,90.0
4290,F3,258.25,0.125,103,90.0
4291,B-4,258.25,0.125,103,90.0
4292,F#2,258.5,0.25,72,90.0
4293,E-4,258.5,0.25,72,90.0
4294,B-4,258.5,0.25,72,90.0
4295,C#1,258.75,3/20,74,90.0
4296,F#2,258.75,0.25,114,90.0
4297,D4,258.75,0.25,114,90.0
4298,C#3,258.75,129/500,66,90.0
4299,C#2,258.75,129/500,66,90.0
4300,C#2,259.0,49/125,85,90.0
4301,D2,259.0,0.25,85,90.0
4302,E-4,259.0,0.25,85,90.0
4303,B3,259.0,9/20,95,90.0
4304,E-4,259.0,9/20,95,90.0
4305,F3,259.0,9/20,95,90.0
4306,B-4,259.0,9/20,95,90.0
4307,F#2,259.25,0.25,52,90.0
4308,E-4,259.25,0.25,52,90.0
4309,B-2,259.5,0.25,86,90.0
4310,E-4,259.5,0.25,86,90.0
4311,B-4,259.5,0.25,86,90.0
4312,C#3,259.5,79/500,76,90.0
4313,C#2,259.5,79/500,76,90.0
4314,G4,259.517,3/20,84,90.0
4315,A4,259.517,3/20,84,90.0
4316,E-4,259.75,0.25,73,90.0
4317,B-4,259.75,0.25,73,90.0
4318,F4,259.808,24/125,64,90.0
4319,C2,260.0,1633/1000,91,90.0
4320,B1,260.0,0.25,58,90.0
4321,F#2,260.0,0.25,58,90.0
4322,B-4,260.0,0.25,58,90.0
4323,A4,260.0,0.25,58,90.0
4324,B-3,260.0,0.125,98,90.0
4325,C#4,260.0,0.125,98,90.0
4326,E3,260.0,0.125,98,90.0
4327,G#3,260.0,0.125,98,90.0
4328,G4,260.0,4.0,40,90.0
4329,C5,260.0,4.0,40,90.0
4330,E-4,260.033,24/125,85,90.0
4331,F#2,260.25,0.25,31,90.0
4332,E-4,260.317,1/10,72,90.0
4333,C4,260.45,183/1000,43,90.0
4334,F#2,260.5,0.25,108,90.0
4335,B-3,260.5,0.125,102,90.0
4336,C#4,260.5,0.125,102,90.0
4337,E3,260.5,0.125,102,90.0
4338,G#3,260.5,0.125,102,90.0
4339,F#2,260.75,0.25,70,90.0
4340,B-4,260.75,0.25,70,90.0
4341,A4,260.75,0.25,70,90.0
4342,C4,260.792,121/500,85,90.0
4343,D2,261.0,0.25,75,90.0
4344,G#3,261.0,0.25,75,90.0
4345,B-4,261.0,0.25,75,90.0
4346,A4,261.0,0.25,75,90.0
4347,B1,261.25,0.25,58,90.0
4348,B-2,261.25,0.25,58,90.0
4349,D4,261.25,0.25,58,90.0
4350,B-3,261.25,1/10,105,90.0
4351,C#4,261.25,1/10,105,90.0
4352,E3,261.25,1/10,105,90.0
4353,G#3,261.25,1/10,105,90.0
4354,C4,261.275,129/500,74,90.0
4355,F#2,261.5,0.25,69,90.0
4356,E-4,261.5,0.25,69,90.0
4357,C2,261.75,1.5,85,90.0
4358,B1,261.75,0.25,93,90.0
4359,B-2,261.75,0.25,93,90.0
4360,D4,261.75,0.25,93,90.0
4361,A4,261.75,0.25,93,90.0
4362,C3,261.75,26/125,88,90.0
4363,C2,261.75,26/125,88,90.0
4364,C4,261.758,329/500,74,90.0
4365,F#2,262.0,0.25,93,90.0
4366,F#2,262.25,0.25,34,90.0
4367,G#3,262.25,0.25,34,90.0
4368,F#3,262.25,0.25,34,90.0
4369,A4,262.25,0.25,34,90.0
4370,B-3,262.25,23/250,102,90.0
4371,C#4,262.25,23/250,102,90.0
4372,E3,262.25,23/250,102,90.0
4373,G#3,262.25,23/250,102,90.0
4374,F#2,262.5,0.25,62,90.0
4375,G#3,262.5,0.25,62,90.0
4376,F#3,262.5,0.25,62,90.0
4377,B-4,262.5,0.25,62,90.0
4378,A2,262.75,0.25,68,90.0
4379,D4,262.75,0.25,68,90.0
4380,C3,262.75,183/1000,78,90.0
4381,C2,262.75,183/1000,78,90.0
4382,B-2,263.0,0.25,68,90.0
4383,A2,263.0,0.25,68,90.0
4384,B-3,263.0,133/1000,110,90.0
4385,C#4,263.0,133/1000,110,90.0
4386,E3,263.0,133/1000,110,90.0
4387,G#3,263.0,133/1000,110,90.0
4388,G1,263.25,129/500,57,90.0
4389,A4,263.25,0.25,23,90.0
4390,F2,263.5,0.25,73,90.0
4391,E-4,263.5,0.25,73,90.0
4392,D4,263.5,0.25,73,90.0
4393,B-4,263.5,0.25,73,90.0
4394,A4,263.5,0.25,73,90.0
4395,C3,263.5,73/250,87,90.0
4396,C2,263.5,73/250,87,90.0
4397,C2,263.508,51/125,87,90.0
4398,E-4,263.75,0.25,92,90.0
4399,F2,264.0,0.5,86,90.0
4400,G#3,264.0,7/5,59,90.0
4401,F3,264.0,2.0,42,90.0
4402,B1,264.0,0.25,86,90.0
4403,F#2,264.0,0.25,86,90.0
4404,C#3,264.0,0.25,86,90.0
4405,E-3,264.0,4.0,86,90.0
4406,F4,264.0,4.0,86,90.0
4407,G#3,264.0,4.0,86,90.0
4408,C4,264.0,4.0,86,90.0
4409,F#2,264.25,0.25,31,90.0
4410,E-2,264.5,13/40,74,90.0
4411,F#2,264.5,0.25,108,90.0
4412,F2,264.75,133/1000,97,90.0
4413,F#2,264.75,0.25,118,90.0
4414,C4,264.75,933/1000,76,90.0
4415,E-4,264.75,1.875,70,90.0
4416,D2,265.0,0.25,96,90.0
4417,G#3,265.0,0.25,96,90.0
4418,F#2,265.25,0.25,33,90.0
4419,E-4,265.317,167/1000,105,90.0
4420,F#2,265.5,0.25,84,90.0
4421,F#2,265.75,0.25,71,90.0
4422,G#3,265.75,583/1000,68,90.0
4423,C4,265.75,31/40,91,90.0
4424,F4,265.767,0.25,102,90.0
4425,B1,266.0,0.25,98,90.0
4426,F#2,266.0,0.25,98,90.0
4427,G4,266.092,121/500,100,90.0
4428,F#2,266.25,0.25,33,90.0
4429,F3,266.25,817/1000,78,90.0
4430,F#2,266.5,0.25,76,90.0
4431,G#3,266.5,99/125,58,90.0
4432,F4,266.533,9/40,98,90.0
4433,C2,266.75,267/1000,76,90.0
4434,F#2,266.75,0.25,105,90.0
4435,E-4,266.75,1.25,87,90.0
4436,C4,266.75,767/1000,76,90.0
4437,E-2,267.0,17/40,93,90.0
4438,D2,267.0,0.25,96,90.0
4439,G#3,267.0,0.25,96,90.0
4440,E-4,267.058,471/500,82,90.0
4441,F#2,267.25,0.25,33,90.0
4442,F3,267.25,467/1000,74,90.0
4443,B-1,267.5,417/1000,85,90.0
4444,F#2,267.5,0.25,108,90.0
4445,G#3,267.5,0.5,66,90.0
4446,F#2,267.75,0.25,93,90.0
4447,C4,267.75,0.25,72,90.0
4448,B-1,268.0,221/500,99,90.0
4449,F3,268.0,1.125,68,90.0
4450,E-4,268.0,1279/500,63,90.0
4451,E-4,268.0,11/10,82,90.0
4452,B1,268.0,0.25,76,90.0
4453,F#2,268.0,0.25,76,90.0
4454,G#3,268.0,4.0,86,90.0
4455,C5,268.0,4.0,86,90.0
4456,E-4,268.0,4.0,86,90.0
4457,G4,268.0,4.0,86,90.0
4458,G4,268.0,4.0,40,90.0
4459,C5,268.0,4.0,40,90.0
4460,F#2,268.25,0.25,31,90.0
4461,G#1,268.5,0.25,81,90.0
4462,F#2,268.5,0.25,80,90.0
4463,G#3,268.5,867/1000,52,90.0
4464,B-1,268.75,0.125,93,90.0
4465,F#2,268.75,0.25,111,90.0
4466,C4,268.75,7/10,61,90.0
4467,D2,269.0,0.25,96,90.0
4468,G#3,269.0,0.25,96,90.0
4469,F#2,269.25,0.25,52,90.0
4470,F3,269.25,99/125,87,90.0
4471,E-4,269.325,129/500,100,90.0
4472,F#2,269.5,0.25,84,90.0
4473,G#3,269.5,429/500,54,90.0
4474,F4,269.733,233/1000,87,90.0
4475,F#2,269.75,0.25,127,90.0
4476,C4,269.75,633/1000,68,90.0
4477,B1,270.0,0.25,66,90.0
4478,F#2,270.0,0.25,66,90.0
4479,G4,270.075,179/500,87,90.0
4480,F#2,270.25,0.25,57,90.0
4481,F3,270.25,101/125,72,90.0
4482,B-4,270.25,1.75,10,90.0
4483,F#2,270.5,0.25,84,90.0
4484,G#3,270.5,27/40,56,90.0
4485,F4,270.508,129/500,89,90.0
4486,F1,270.75,0.25,73,90.0
4487,F#2,270.75,0.25,121,90.0
4488,C4,270.75,0.75,72,90.0
4489,E-4,270.75,1.25,57,90.0
4490,G#1,271.0,127/250,78,90.0
4491,D2,271.0,0.25,100,90.0
4492,G#3,271.0,0.25,100,90.0
4493,E-4,271.033,17/40,98,90.0
4494,F#2,271.25,0.25,46,90.0
4495,F3,271.25,123/250,64,90.0
4496,F#2,271.5,0.25,80,90.0
4497,G#3,271.5,49/125,57,90.0
4498,D2,271.508,2/5,88,90.0
4499,F4,271.517,317/1000,80,90.0
4500,F#2,271.75,0.25,127,90.0
4501,C4,271.75,0.25,70,90.0
4502,G4,271.85,3/20,91,90.0
4503,E-2,272.0,221/500,99,90.0
4504,G3,272.0,521/500,68,90.0
4505,G4,272.0,159/40,91,90.0
4506,B1,272.0,0.25,82,90.0
4507,F#2,272.0,0.25,82,90.0
4508,D4,272.0,4.0,86,90.0
4509,F4,272.0,4.0,86,90.0
4510,G3,272.0,4.0,86,90.0
4511,B-4,272.0,4.0,86,90.0
4512,F4,272.0,4.0,40,90.0
4513,B4,272.0,4.0,40,90.0
4514,F#2,272.25,0.25,31,90.0
4515,D2,272.5,0.25,81,90.0
4516,F#2,272.5,0.25,108,90.0
4517,D4,272.5,833/1000,58,90.0
4518,E-2,272.75,0.125,93,90.0
4519,F#2,272.75,0.25,118,90.0
4520,F4,272.75,0.625,76,90.0
4521,D2,273.0,0.25,96,90.0
4522,G#3,273.0,0.25,96,90.0
4523,F#2,273.25,0.25,33,90.0
4524,G3,273.25,99/125,62,90.0
4525,F#2,273.5,0.25,84,90.0
4526,D4,273.5,833/1000,41,90.0
4527,F#2,273.75,0.25,71,90.0
4528,B-4,273.75,2.25,87,90.0
4529,B1,274.0,0.25,98,90.0
4530,F#2,274.0,0.25,98,90.0
4531,F#2,274.25,0.25,33,90.0
4532,G3,274.25,833/1000,60,90.0
4533,F#2,274.5,0.25,76,90.0
4534,D4,274.5,421/500,59,90.0
4535,B-1,274.75,0.25,73,90.0
4536,F#2,274.75,0.25,105,90.0
4537,F4,274.75,3/5,80,90.0
4538,D2,275.0,127/250,78,90.0
4539,D2,275.0,0.25,96,90.0
4540,G#3,275.0,0.25,96,90.0
4541,F#2,275.25,0.25,33,90.0
4542,G3,275.25,76/125,59,90.0
4543,F#2,275.5,0.25,108,90.0
4544,D4,275.5,0.5,57,90.0
4545,C2,275.508,2/5,88,90.0
4546,F#2,275.75,0.25,93,90.0
4547,F4,275.75,0.25,66,90.0
4548,C#2,276.0,33/20,87,90.0
4549,B1,276.0,0.25,68,90.0
4550,F#2,276.0,0.25,68,90.0
4551,G#4,276.0,2.0,78,90.0
4552,E-4,276.0,2.0,78,90.0
4553,F4,276.0,2.0,78,90.0
4554,B3,276.0,2.0,78,90.0
4555,E4,276.0,4.0,40,90.0
4556,B-4,276.0,4.0,40,90.0
4557,F#2,276.25,0.25,48,90.0
4558,G#3,276.25,933/1000,48,90.0
4559,F#2,276.5,0.25,99,90.0
4560,B3,276.5,37/40,63,90.0
4561,F#2,276.75,0.25,122,90.0
4562,E-4,276.75,633/1000,74,90.0
4563,D2,277.0,0.25,96,90.0
4564,G#3,277.0,0.25,96,90.0
4565,F#2,277.25,0.25,50,90.0
4566,G#3,277.25,0.75,46,90.0
4567,F#2,277.5,0.25,84,90.0
4568,F4,277.5,0.5,85,90.0
4569,C#2,277.75,0.25,85,90.0
4570,F#2,277.75,0.25,113,90.0
4571,C2,278.0,33/20,87,90.0
4572,C3,278.0,1867/1000,63,90.0
4573,E4,278.0,224/125,59,90.0
4574,B1,278.0,0.25,98,90.0
4575,F#2,278.0,0.25,98,90.0
4576,B-3,278.0,2.0,86,90.0
4577,C#4,278.0,2.0,86,90.0
4578,E3,278.0,2.0,86,90.0
4579,G#3,278.0,2.0,86,90.0
4580,F#2,278.25,0.25,33,90.0
4581,G3,278.25,1483/1000,66,90.0
4582,F#2,278.5,0.25,76,90.0
4583,B-3,278.5,629/500,56,90.0
4584,B-2,278.75,0.25,98,90.0
4585,C#4,278.75,983/1000,80,90.0
4586,D2,279.0,0.25,70,90.0
4587,F#2,279.0,0.25,70,90.0
4588,G#3,279.0,0.25,70,90.0
4589,B1,279.25,0.25,66,90.0
4590,F#2,279.25,0.25,66,90.0
4591,B-2,279.5,0.25,119,90.0
4592,C2,279.75,0.25,85,90.0
4593,F2,280.0,0.5,88,90.0
4594,F3,280.0,3/5,60,90.0
4595,B1,280.0,0.25,82,90.0
4596,F#2,280.0,0.25,82,90.0
4597,E-3,280.0,4.0,86,90.0
4598,G4,280.0,4.0,86,90.0
4599,G#3,280.0,4.0,86,90.0
4600,C4,280.0,4.0,86,90.0
4601,F#2,280.25,0.25,31,90.0
4602,G#3,280.25,4/5,52,90.0
4603,E-2,280.5,317/1000,69,90.0
4604,F#2,280.5,0.25,108,90.0
4605,C4,280.5,29/40,68,90.0
4606,F#2,280.75,0.25,118,90.0
4607,F3,280.75,101/125,66,90.0
4608,F2,280.817,3/20,93,90.0
4609,D2,281.0,0.25,96,90.0
4610,G#3,281.0,0.25,96,90.0
4611,F#2,281.25,0.25,33,90.0
4612,G#3,281.25,867/1000,47,90.0
4613,F#2,281.5,0.25,84,90.0
4614,C4,281.5,29/40,58,90.0
4615,E-4,281.5,121/500,91,90.0
4616,F#2,281.75,0.25,71,90.0
4617,F3,281.75,27/40,68,90.0
4618,G4,281.817,26/125,102,90.0
4619,B1,282.0,0.25,98,90.0
4620,F#2,282.0,0.25,98,90.0
4621,F#2,282.25,0.25,33,90.0
4622,G#3,282.25,471/500,53,90.0
4623,G4,282.25,9/40,100,90.0
4624,F#2,282.5,0.25,76,90.0
4625,C4,282.5,221/500,74,90.0
4626,E-4,282.55,29/20,87,90.0
4627,C2,282.75,77/250,57,90.0
4628,F#2,282.75,0.25,105,90.0
4629,F3,282.75,379/500,55,90.0
4630,E-2,283.0,221/500,87,90.0
4631,E-4,283.0,867/1000,68,90.0
4632,D2,283.0,0.25,96,90.0
4633,G#3,283.0,0.25,96,90.0
4634,F#2,283.25,0.25,33,90.0
4635,C4,283.25,13/20,57,90.0
4636,B1,283.5,0.5,52,90.0
4637,F#2,283.5,0.25,108,90.0
4638,G#3,283.508,11/40,51,90.0
4639,F#2,283.75,0.25,93,90.0
4640,F3,283.75,0.25,59,90.0
4641,B-1,284.0,221/500,99,90.0
4642,F3,284.0,273/250,66,90.0
4643,E-4,284.0,273/250,87,90.0
4644,B1,284.0,0.25,67,90.0
4645,F#2,284.0,0.25,67,90.0
4646,F4,284.0,4.0,78,90.0
4647,C4,284.0,4.0,78,90.0
4648,E-4,284.0,4.0,78,90.0
4649,G#3,284.0,4.0,78,90.0
4650,B-2,284.25,0.25,54,90.0
4651,G#3,284.25,277/250,53,90.0
4652,G#1,284.5,0.25,81,90.0
4653,F#2,284.5,0.25,92,90.0
4654,C4,284.5,1017/1000,59,90.0
4655,B-1,284.75,0.125,93,90.0
4656,F#2,284.75,0.25,127,90.0
4657,E-4,284.75,27/10,70,90.0
4658,D2,285.0,0.25,80,90.0
4659,F#2,285.0,0.25,80,90.0
4660,G#3,285.0,0.25,80,90.0
4661,F#2,285.25,0.25,42,90.0
4662,F3,285.25,833/1000,57,90.0
4663,E-4,285.3,9/40,107,90.0
4664,F#2,285.5,0.25,93,90.0
4665,G#3,285.5,817/1000,53,90.0
4666,F4,285.717,121/500,91,90.0
4667,C4,285.75,13/20,68,90.0
4668,F#2,285.75,0.25,102,90.0
4669,B-2,285.75,0.25,102,90.0
4670,B1,286.0,0.25,92,90.0
4671,F#2,286.0,0.25,92,90.0
4672,G4,286.067,129/500,95,90.0
4673,F#2,286.25,0.25,33,90.0
4674,F3,286.25,31/40,68,90.0
4675,F#2,286.5,0.25,79,90.0
4676,G#3,286.5,101/125,47,90.0
4677,F4,286.533,283/1000,85,90.0
4678,F1,286.75,0.25,73,90.0
4679,F#2,286.75,0.25,127,90.0
4680,C4,286.75,321/500,70,90.0
4681,G#1,287.0,127/250,78,90.0
4682,D2,287.0,0.25,90,90.0
4683,G#3,287.0,0.25,90,90.0
4684,E-4,287.025,49/125,93,90.0
4685,F#2,287.25,0.25,42,90.0
4686,F3,287.25,533/1000,68,90.0
4687,F#2,287.5,0.25,81,90.0
4688,G#3,287.5,0.5,53,90.0
4689,E-4,287.5,171/500,10,90.0
4690,D2,287.508,2/5,88,90.0
4691,F4,287.508,317/1000,85,90.0
4692,F#2,287.75,0.25,127,90.0
4693,C4,287.75,0.25,53,90.0
4694,G4,287.825,7/40,93,90.0
4695,E-2,288.0,221/500,99,90.0
4696,E-3,288.0,273/250,66,90.0
4697,G4,288.0,3183/1000,93,90.0
4698,B1,288.0,0.25,82,90.0
4699,F#2,288.0,0.25,82,90.0
4700,D4,288.0,4.0,86,90.0
4701,F4,288.0,4.0,86,90.0
4702,G3,288.0,4.0,86,90.0
4703,B-3,288.0,4.0,86,90.0
4704,F#2,288.25,0.25,31,90.0
4705,G3,288.25,277/250,53,90.0
4706,D2,288.5,0.25,81,90.0
4707,F#2,288.5,0.25,108,90.0
4708,B-3,288.5,1017/1000,59,90.0
4709,E-2,288.75,0.125,93,90.0
4710,F#2,288.75,0.25,118,90.0
4711,D4,288.75,27/10,70,90.0
4712,D2,289.0,0.25,96,90.0
4713,G#3,289.0,0.25,96,90.0
4714,F#2,289.25,0.25,33,90.0
4715,E-3,289.25,833/1000,57,90.0
4716,F#2,289.5,0.25,84,90.0
4717,G3,289.5,817/1000,53,90.0
4718,F#2,289.75,0.25,71,90.0
4719,B-3,289.75,13/20,68,90.0
4720,B1,290.0,0.25,98,90.0
4721,F#2,290.0,0.25,98,90.0
4722,F#2,290.25,0.25,33,90.0
4723,E-3,290.25,31/40,68,90.0
4724,F#2,290.5,0.25,76,90.0
4725,G3,290.5,101/125,47,90.0
4726,B-1,290.75,0.25,73,90.0
4727,F#2,290.75,0.25,105,90.0
4728,B-3,290.75,321/500,70,90.0
4729,D2,291.0,127/250,78,90.0
4730,D2,291.0,0.25,96,90.0
4731,G#3,291.0,0.25,96,90.0
4732,F#2,291.25,0.25,33,90.0
4733,E-3,291.25,533/1000,68,90.0
4734,B-3,291.292,9/40,60,90.0
4735,F#2,291.5,0.25,108,90.0
4736,G3,291.5,0.5,53,90.0
4737,D4,291.5,171/500,10,90.0
4738,G#1,291.508,2/5,88,90.0
4739,C4,291.55,283/1000,80,90.0
4740,F#2,291.75,0.25,93,90.0
4741,B-3,291.75,0.25,53,90.0
4742,E-4,291.817,183/1000,102,90.0
4743,A1,292.0,0.5,86,90.0
4744,E3,292.0,3/5,60,90.0
4745,E-4,292.0,3/40,102,90.0
4746,B1,292.0,0.25,82,90.0
4747,F#2,292.0,0.25,82,90.0
4748,G3,292.0,4.0,86,90.0
4749,B4,292.0,4.0,86,90.0
4750,C#4,292.0,4.0,86,90.0
4751,F#4,292.0,4.0,86,90.0
4752,F#2,292.25,0.25,31,90.0
4753,G3,292.25,4/5,52,90.0
4754,B-3,292.3,9/40,57,90.0
4755,G1,292.5,13/40,74,90.0
4756,B3,292.5,29/40,68,90.0
4757,F#2,292.5,0.25,90,90.0
4758,B-4,292.5,0.25,90,90.0
4759,C4,292.567,129/500,72,90.0
4760,A1,292.75,133/1000,97,90.0
4761,F#2,292.75,0.25,118,90.0
4762,E3,292.75,101/125,66,90.0
4763,E-4,292.808,267/1000,105,90.0
4764,D2,293.0,0.25,121,90.0
4765,G3,293.25,867/1000,47,90.0
4766,F#2,293.25,0.25,35,90.0
4767,G#3,293.25,0.25,35,90.0
4768,F#3,293.25,0.25,35,90.0
4769,B-3,293.258,26/125,59,90.0
4770,B3,293.5,29/40,58,90.0
4771,F#2,293.5,0.25,62,90.0
4772,G#3,293.5,0.25,62,90.0
4773,F#3,293.5,0.25,62,90.0
4774,B-4,293.5,0.25,62,90.0
4775,C4,293.525,167/1000,63,90.0
4776,E3,293.75,27/40,68,90.0
4777,B1,293.75,0.25,66,90.0
4778,F#2,293.75,0.25,66,90.0
4779,E-4,293.8,121/500,100,90.0
4780,B1,294.0,0.25,98,90.0
4781,F#2,294.0,0.25,98,90.0
4782,F#2,294.25,0.25,33,90.0
4783,G3,294.25,471/500,53,90.0
4784,E-4,294.292,9/40,98,90.0
4785,B3,294.5,221/500,74,90.0
4786,F#2,294.5,0.25,66,90.0
4787,B-4,294.5,0.25,66,90.0
4788,E1,294.75,267/1000,76,90.0
4789,F#2,294.75,0.25,127,90.0
4790,E3,294.75,379/500,55,90.0
4791,C4,294.758,167/1000,70,90.0
4792,G1,295.0,17/40,93,90.0
4793,D2,295.0,0.25,106,90.0
4794,C#4,295.0,867/1000,68,90.0
4795,E-4,295.042,73/250,100,90.0
4796,F#2,295.25,0.25,33,90.0
4797,B3,295.25,13/20,57,90.0
4798,G#2,295.5,417/1000,85,90.0
4799,D2,295.5,0.25,90,90.0
4800,B-4,295.5,0.25,90,90.0
4801,G3,295.508,11/40,51,90.0
4802,F4,295.542,121/500,102,90.0
4803,E3,295.75,0.25,59,90.0
4804,D2,295.75,0.25,106,90.0
4805,B-4,295.75,0.25,106,90.0
4806,G#2,296.0,483/1000,98,90.0
4807,B1,296.0,0.25,78,90.0
4808,F#2,296.0,0.25,78,90.0
4809,C#3,296.0,0.25,78,90.0
4810,E-4,296.0,0.25,78,90.0
4811,G3,296.0,1/10,97,90.0
4812,B-3,296.0,1/10,97,90.0
4813,C4,296.0,1/10,97,90.0
4814,E-4,296.0,1/10,97,90.0
4815,E-4,296.05,3/20,68,90.0
4816,F#2,296.25,0.25,32,90.0
4817,E-4,296.25,0.25,32,90.0
4818,F#2,296.5,0.25,90,90.0
4819,B-4,296.5,0.25,90,90.0
4820,G3,296.5,1/10,99,90.0
4821,B-3,296.5,1/10,99,90.0
4822,C4,296.5,1/10,99,90.0
4823,E-4,296.5,1/10,99,90.0
4824,F#2,296.75,0.25,118,90.0
4825,D4,296.75,0.25,118,90.0
4826,D2,297.0,0.25,78,90.0
4827,E-4,297.0,0.25,78,90.0
4828,F#4,297.025,133/1000,102,90.0
4829,G4,297.158,1/5,100,90.0
4830,F#2,297.25,0.25,40,90.0
4831,G#3,297.25,0.25,40,90.0
4832,E-4,297.25,0.25,40,90.0
4833,F#3,297.25,0.25,40,90.0
4834,G3,297.25,117/1000,88,90.0
4835,B-3,297.25,117/1000,88,90.0
4836,C4,297.25,117/1000,88,90.0
4837,E-4,297.25,117/1000,88,90.0
4838,C4,297.492,24/125,85,90.0
4839,F#2,297.5,0.25,58,90.0
4840,G#3,297.5,0.25,58,90.0
4841,E-4,297.5,0.25,58,90.0
4842,F#3,297.5,0.25,58,90.0
4843,B-4,297.5,0.25,58,90.0
4844,G#2,297.75,933/1000,89,90.0
4845,G#2,297.75,77/250,85,90.0
4846,B1,297.75,0.25,62,90.0
4847,F#2,297.75,0.25,62,90.0
4848,E-4,297.75,0.25,62,90.0
4849,A4,297.75,0.25,62,90.0
4850,E-4,297.825,1.875,85,90.0
4851,B1,298.0,0.25,80,90.0
4852,F#2,298.0,0.25,80,90.0
4853,A4,298.0,0.25,80,90.0
4854,F#2,298.25,0.25,58,90.0
4855,D4,298.25,0.25,58,90.0
4856,G3,298.25,0.125,103,90.0
4857,B-3,298.25,0.125,103,90.0
4858,C4,298.25,0.125,103,90.0
4859,E-4,298.25,0.125,103,90.0
4860,F#2,298.5,0.25,76,90.0
4861,B-4,298.5,0.25,76,90.0
4862,G#1,298.75,3/20,74,90.0
4863,G#2,298.75,26/125,67,90.0
4864,F#2,298.75,0.25,71,90.0
4865,E-4,298.75,0.25,71,90.0
4866,G#2,299.0,49/125,85,90.0
4867,D2,299.0,0.25,113,90.0
4868,G3,299.0,9/20,95,90.0
4869,B-3,299.0,9/20,95,90.0
4870,C4,299.0,9/20,95,90.0
4871,E-4,299.0,9/20,95,90.0
4872,F#2,299.25,0.25,54,90.0
4873,E-4,299.25,0.25,54,90.0
4874,G#2,299.5,79/500,78,90.0
4875,F#2,299.5,0.25,92,90.0
4876,E-4,299.5,0.25,92,90.0
4877,B-4,299.5,0.25,92,90.0
4878,F#2,299.75,0.25,92,90.0
4879,E-4,299.75,0.25,92,90.0
4880,B-4,299.75,0.25,92,90.0
4881,G2,300.0,483/1000,95,90.0
4882,B1,300.0,0.25,76,90.0
4883,F#2,300.0,0.25,76,90.0
4884,D4,300.0,0.25,76,90.0
4885,F4,300.0,267/1000,87,90.0
4886,B-3,300.0,267/1000,87,90.0
4887,F#2,300.25,0.25,42,90.0
4888,D4,300.25,0.25,42,90.0
4889,F#2,300.5,0.25,47,90.0
4890,E-4,300.5,0.25,47,90.0
4891,B-4,300.5,0.25,47,90.0
4892,B-3,300.5,267/1000,92,90.0
4893,F4,300.5,267/1000,92,90.0
4894,F#2,300.75,0.25,98,90.0
4895,D4,300.75,0.25,98,90.0
4896,D2,301.0,0.25,71,90.0
4897,E-4,301.0,0.25,71,90.0
4898,F#2,301.25,0.25,50,90.0
4899,G#3,301.25,0.25,50,90.0
4900,D4,301.25,0.25,50,90.0
4901,F#3,301.25,0.25,50,90.0
4902,F4,301.25,133/1000,91,90.0
4903,B-3,301.25,133/1000,91,90.0
4904,F#2,301.5,0.25,54,90.0
4905,G#3,301.5,0.25,54,90.0
4906,E-4,301.5,0.25,54,90.0
4907,F#3,301.5,0.25,54,90.0
4908,B-4,301.5,0.25,54,90.0
4909,G2,301.75,19/20,87,90.0
4910,B1,301.75,0.25,74,90.0
4911,F#2,301.75,0.25,74,90.0
4912,E-4,301.75,0.25,74,90.0
4913,A4,301.75,0.25,74,90.0
4914,E-4,301.8,183/1000,63,90.0
4915,B1,302.0,0.25,58,90.0
4916,F#2,302.0,0.25,58,90.0
4917,A4,302.0,0.25,58,90.0
4918,B-4,302.042,121/500,100,90.0
4919,G2,302.25,167/1000,80,90.0
4920,F#2,302.25,0.25,60,90.0
4921,E-4,302.25,0.25,60,90.0
4922,E-4,302.3,133/1000,53,90.0
4923,F#2,302.5,0.25,72,90.0
4924,E-4,302.5,0.25,72,90.0
4925,B-4,302.5,0.25,72,90.0
4926,B-4,302.525,13/40,100,90.0
4927,G1,302.75,26/125,82,90.0
4928,G2,302.75,23/250,93,90.0
4929,F#2,302.75,0.25,114,90.0
4930,D4,302.75,0.25,114,90.0
4931,D2,303.0,767/1000,68,90.0
4932,D2,303.0,0.25,85,90.0
4933,E-4,303.0,0.25,85,90.0
4934,F4,303.0,13/40,91,90.0
4935,B-3,303.0,13/40,91,90.0
4936,G4,303.017,283/1000,87,90.0
4937,F#2,303.25,0.25,52,90.0
4938,E-4,303.25,0.25,52,90.0
4939,F4,303.5,0.375,89,90.0
4940,B-3,303.5,3/10,87,90.0
4941,G4,303.5,0.25,85,90.0
4942,B-2,303.5,0.25,86,90.0
4943,E-4,303.5,0.25,86,90.0
4944,B-4,303.5,0.25,86,90.0
4945,E-4,303.75,0.25,73,90.0
4946,B-4,303.75,0.25,73,90.0
4947,F4,303.825,7/40,91,90.0
4948,F2,304.0,483/1000,95,90.0
4949,F4,304.0,1679/500,91,90.0
4950,B1,304.0,0.25,70,90.0
4951,F#2,304.0,0.25,70,90.0
4952,E-4,304.0,0.25,70,90.0
4953,E-4,304.0,0.125,98,90.0
4954,F4,304.0,0.125,98,90.0
4955,G#3,304.0,0.125,98,90.0
4956,C5,304.0,0.125,98,90.0
4957,F#2,304.25,0.25,43,90.0
4958,E-4,304.25,0.25,43,90.0
4959,F#2,304.5,0.25,81,90.0
4960,E-4,304.5,0.25,81,90.0
4961,B-4,304.5,0.25,81,90.0
4962,E-4,304.5,0.125,102,90.0
4963,F4,304.5,0.125,102,90.0
4964,G#3,304.5,0.125,102,90.0
4965,C5,304.5,0.125,102,90.0
4966,F#2,304.75,0.25,108,90.0
4967,D4,304.75,0.25,108,90.0
4968,D2,305.0,0.25,71,90.0
4969,E-4,305.0,0.25,71,90.0
4970,F#2,305.25,0.25,36,90.0
4971,G#3,305.25,0.25,36,90.0
4972,E-4,305.25,0.25,36,90.0
4973,F#3,305.25,0.25,36,90.0
4974,E-4,305.25,1/10,105,90.0
4975,F4,305.25,1/10,105,90.0
4976,G#3,305.25,1/10,105,90.0
4977,C5,305.25,1/10,105,90.0
4978,F#2,305.5,0.25,62,90.0
4979,G#3,305.5,0.25,62,90.0
4980,E-4,305.5,0.25,62,90.0
4981,F#3,305.5,0.25,62,90.0
4982,B-4,305.5,0.25,62,90.0
4983,F2,305.75,19/20,87,90.0
4984,F2,305.75,24/125,89,90.0
4985,B1,305.75,0.25,75,90.0
4986,F#2,305.75,0.25,75,90.0
4987,E-4,305.75,0.25,75,90.0
4988,A4,305.75,0.25,75,90.0
4989,B1,306.0,0.25,81,90.0
4990,F#2,306.0,0.25,81,90.0
4991,A4,306.0,0.25,81,90.0
4992,F#2,306.25,0.25,33,90.0
4993,E-4,306.25,23/250,102,90.0
4994,F4,306.25,23/250,102,90.0
4995,G#3,306.25,23/250,102,90.0
4996,C5,306.25,23/250,102,90.0
4997,F#2,306.5,0.25,63,90.0
4998,E-4,306.5,0.25,63,90.0
4999,B-4,306.5,0.25,63,90.0
5000,F1,306.75,26/125,82,90.0
5001,F2,306.75,183/1000,82,90.0
5002,F#2,306.75,0.25,102,90.0
5003,D4,306.75,0.25,102,90.0
5004,C2,307.0,767/1000,68,90.0
5005,D2,307.0,0.25,84,90.0
5006,E-4,307.0,0.25,84,90.0
5007,E-4,307.0,133/1000,110,90.0
5008,F4,307.0,133/1000,110,90.0
5009,G#3,307.0,133/1000,110,90.0
5010,C5,307.0,133/1000,110,90.0
5011,F#2,307.25,0.25,42,90.0
5012,E-4,307.25,0.25,42,90.0
5013,F2,307.5,73/250,85,90.0
5014,F#2,307.5,0.25,100,90.0
5015,E-4,307.5,0.25,100,90.0
5016,B-4,307.5,0.25,100,90.0
5017,F#2,307.75,0.25,80,90.0
5018,E-4,307.75,0.25,80,90.0
5019,B-4,307.75,0.25,80,90.0
5020,C2,308.0,1633/1000,91,90.0
5021,B-3,308.0,2767/1000,85,90.0
5022,C3,308.0,4.0,82,90.0
5023,B1,308.0,0.25,83,90.0
5024,F#2,308.0,0.25,83,90.0
5025,E-4,308.0,0.25,83,90.0
5026,E-4,308.25,13/5,68,90.0
5027,F#2,308.25,0.25,43,90.0
5028,E-4,308.25,0.25,43,90.0
5029,G4,308.5,2.375,72,90.0
5030,F#2,308.5,0.25,81,90.0
5031,E-4,308.5,0.25,81,90.0
5032,B-4,308.5,0.25,81,90.0
5033,E-4,308.542,27/250,55,90.0
5034,C5,308.75,3.25,87,90.0
5035,F#2,308.75,0.25,112,90.0
5036,D4,308.75,0.25,112,90.0
5037,F4,308.783,24/125,74,90.0
5038,D2,309.0,0.25,70,90.0
5039,E-4,309.0,0.25,70,90.0
5040,G4,309.05,73/250,105,90.0
5041,B-2,309.25,0.25,41,90.0
5042,G#3,309.25,0.25,41,90.0
5043,E-4,309.25,0.25,41,90.0
5044,F#3,309.25,0.25,41,90.0
5045,F#2,309.5,0.25,62,90.0
5046,G#3,309.5,0.25,62,90.0
5047,E-4,309.5,0.25,62,90.0
5048,F#3,309.5,0.25,62,90.0
5049,B-4,309.5,0.25,62,90.0
5050,G4,309.508,26/125,87,90.0
5051,C2,309.75,1.5,85,90.0
5052,B1,309.75,0.25,67,90.0
5053,F#2,309.75,0.25,67,90.0
5054,E-4,309.75,0.25,67,90.0
5055,A4,309.75,0.25,67,90.0
5056,F4,309.792,0.25,102,90.0
5057,B1,310.0,0.25,84,90.0
5058,F#2,310.0,0.25,84,90.0
5059,A4,310.0,0.25,84,90.0
5060,F#2,310.25,0.25,33,90.0
5061,F4,310.267,11/40,95,90.0
5062,F#2,310.5,0.25,63,90.0
5063,E-4,310.5,0.25,63,90.0
5064,B-4,310.5,0.25,63,90.0
5065,B-2,310.75,0.25,95,90.0
5066,D4,310.75,0.25,95,90.0
5067,E-4,310.792,217/1000,85,90.0
5068,D2,311.0,0.25,71,90.0
5069,F#2,311.0,0.25,71,90.0
5070,E-4,311.0,0.25,71,90.0
5071,G4,311.0,24/125,101,90.0
5072,B-3,311.0,24/125,101,90.0
5073,E-4,311.0,24/125,101,90.0
5074,G1,311.25,129/500,57,90.0
5075,F#2,311.25,0.25,42,90.0
5076,E-4,311.25,0.25,42,90.0
5077,E-4,311.25,23/250,72,90.0
5078,B-3,311.25,23/250,72,90.0
5079,G4,311.25,23/250,72,90.0
5080,C4,311.258,167/1000,63,90.0
5081,F#2,311.5,0.25,106,90.0
5082,E-4,311.5,0.25,106,90.0
5083,B-4,311.5,0.25,106,90.0
5084,C2,311.508,51/125,87,90.0
5085,E-4,311.517,3/20,68,90.0
5086,F4,311.742,26/125,87,90.0
5087,F#2,311.75,0.25,80,90.0
5088,E-4,311.75,0.25,80,90.0
5089,B-4,311.75,0.25,80,90.0
5090,G#2,312.0,17/20,91,90.0
5091,B1,312.0,0.25,76,90.0
5092,F#2,312.0,0.25,76,90.0
5093,D4,312.0,0.25,76,90.0
5094,G4,312.0,0.125,98,90.0
5095,B-4,312.0,0.125,98,90.0
5096,C4,312.0,0.125,98,90.0
5097,E-5,312.0,0.125,98,90.0
5098,G4,312.0,4.0,40,90.0
5099,C5,312.0,4.0,40,90.0
5100,E-4,312.058,73/250,102,90.0
5101,F#2,312.25,0.25,42,90.0
5102,D4,312.25,0.25,42,90.0
5103,F#2,312.5,0.25,47,90.0
5104,E-4,312.5,0.25,47,90.0
5105,B-4,312.5,0.25,47,90.0
5106,G4,312.5,0.125,102,90.0
5107,B-4,312.5,0.125,102,90.0
5108,C4,312.5,0.125,102,90.0
5109,E-5,312.5,0.125,102,90.0
5110,F#2,312.75,0.25,98,90.0
5111,D4,312.75,0.25,98,90.0
5112,D2,313.0,0.25,71,90.0
5113,E-4,313.0,0.25,71,90.0
5114,F#2,313.25,0.25,50,90.0
5115,G#3,313.25,0.25,50,90.0
5116,D4,313.25,0.25,50,90.0
5117,F#3,313.25,0.25,50,90.0
5118,G4,313.25,1/10,105,90.0
5119,B-4,313.25,1/10,105,90.0
5120,C4,313.25,1/10,105,90.0
5121,E-5,313.25,1/10,105,90.0
5122,F#2,313.5,0.25,54,90.0
5123,G#3,313.5,0.25,54,90.0
5124,E-4,313.5,0.25,54,90.0
5125,F#3,313.5,0.25,54,90.0
5126,B-4,313.5,0.25,54,90.0
5127,G#1,313.75,183/1000,85,90.0
5128,G#2,313.75,24/125,89,90.0
5129,B1,313.75,0.25,74,90.0
5130,F#2,313.75,0.25,74,90.0
5131,E-4,313.75,0.25,74,90.0
5132,A4,313.75,0.25,74,90.0
5133,E-2,314.0,283/1000,80,90.0
5134,B1,314.0,0.25,58,90.0
5135,F#2,314.0,0.25,58,90.0
5136,A4,314.0,0.25,58,90.0
5137,F#4,314.083,121/500,100,90.0
5138,G#1,314.25,79/500,82,90.0
5139,F#2,314.25,0.25,60,90.0
5140,E-4,314.25,0.25,60,90.0
5141,G4,314.25,23/250,102,90.0
5142,B-4,314.25,23/250,102,90.0
5143,C4,314.25,23/250,102,90.0
5144,E-5,314.25,23/250,102,90.0
5145,G4,314.325,24/125,85,90.0
5146,G2,314.5,171/500,76,90.0
5147,F#2,314.5,0.25,72,90.0
5148,E-4,314.5,0.25,72,90.0
5149,B-4,314.5,0.25,72,90.0
5150,C4,314.55,9/40,87,90.0
5151,G#2,314.75,183/1000,82,90.0
5152,F#2,314.75,0.25,114,90.0
5153,D4,314.75,0.25,114,90.0
5154,E-4,314.817,1183/1000,82,90.0
5155,G#2,315.0,433/1000,98,90.0
5156,D2,315.0,0.25,85,90.0
5157,E-4,315.0,0.25,85,90.0
5158,G4,315.0,133/1000,110,90.0
5159,B-4,315.0,133/1000,110,90.0
5160,C4,315.0,133/1000,110,90.0
5161,E-5,315.0,133/1000,110,90.0
5162,F#2,315.25,0.25,52,90.0
5163,E-4,315.25,0.25,52,90.0
5164,G2,315.5,1/5,87,90.0
5165,G#2,315.5,73/250,85,90.0
5166,B-2,315.5,0.25,86,90.0
5167,E-4,315.5,0.25,86,90.0
5168,B-4,315.5,0.25,86,90.0
5169,G#2,315.75,0.25,89,90.0
5170,E-4,315.75,0.25,73,90.0
5171,B-4,315.75,0.25,73,90.0
5172,G#2,316.0,0.375,89,90.0
5173,E-4,316.0,126/125,82,90.0
5174,B1,316.0,0.25,93,90.0
5175,F#2,316.0,0.25,93,90.0
5176,E-4,316.0,0.25,93,90.0
5177,F4,316.0,4.0,40,90.0
5178,B-4,316.0,4.0,40,90.0
5179,F#2,316.25,0.25,43,90.0
5180,E-4,316.25,0.25,43,90.0
5181,F#2,316.5,0.25,59,90.0
5182,E-4,316.5,0.25,59,90.0
5183,B-4,316.5,0.25,59,90.0
5184,F#2,316.75,0.25,112,90.0
5185,D4,316.75,0.25,112,90.0
5186,D2,317.0,0.25,71,90.0
5187,E-4,317.0,0.25,71,90.0
5188,F#2,317.25,0.25,36,90.0
5189,G#3,317.25,0.25,36,90.0
5190,E-4,317.25,0.25,36,90.0
5191,F#3,317.25,0.25,36,90.0
5192,E-4,317.492,167/1000,66,90.0
5193,F#2,317.5,0.25,71,90.0
5194,G#3,317.5,0.25,71,90.0
5195,E-4,317.5,0.25,71,90.0
5196,F#3,317.5,0.25,71,90.0
5197,B-4,317.5,0.25,71,90.0
5198,G#1,317.75,13/40,74,90.0
5199,B1,317.75,0.25,67,90.0
5200,F#2,317.75,0.25,67,90.0
5201,E-4,317.75,0.25,67,90.0
5202,A4,317.75,0.25,67,90.0
5203,B-4,317.758,129/500,102,90.0
5204,B1,318.0,0.25,65,90.0
5205,F#2,318.0,0.25,65,90.0
5206,A4,318.0,0.25,65,90.0
5207,F#2,318.25,0.25,127,90.0
5208,G4,318.25,0.125,100,90.0
5209,B-4,318.25,0.125,100,90.0
5210,C4,318.25,0.125,100,90.0
5211,E-5,318.25,0.125,100,90.0
5212,B-4,318.275,121/500,102,90.0
5213,F#2,318.5,0.25,50,90.0
5214,E-4,318.5,0.25,50,90.0
5215,B-4,318.5,0.25,50,90.0
5216,G#1,318.75,27/250,68,90.0
5217,G#2,318.75,0.125,80,90.0
5218,F#2,318.75,0.25,69,90.0
5219,D4,318.75,0.25,69,90.0
5220,F#4,318.767,3/20,80,90.0
5221,G4,318.8,3/5,89,90.0
5222,E-2,319.0,171/500,85,90.0
5223,D2,319.0,0.25,84,90.0
5224,E-4,319.0,0.25,84,90.0
5225,G4,319.0,27/250,102,90.0
5226,B-4,319.0,27/250,102,90.0
5227,C4,319.0,27/250,102,90.0
5228,E-5,319.0,27/250,102,90.0
5229,F#2,319.25,0.25,70,90.0
5230,E-4,319.25,0.25,70,90.0
5231,G4,319.25,117/1000,82,90.0
5232,B-4,319.25,117/1000,82,90.0
5233,C4,319.25,117/1000,82,90.0
5234,E-5,319.25,117/1000,82,90.0
5235,G2,319.5,217/1000,87,90.0
5236,F#2,319.5,0.25,83,90.0
5237,E-4,319.5,0.25,83,90.0
5238,B-4,319.5,0.25,83,90.0
5239,G4,319.533,7/20,80,90.0
5240,G#2,319.75,1/5,93,90.0
5241,F#2,319.75,0.25,84,90.0
5242,B-2,319.75,0.25,84,90.0
5243,E-4,319.75,0.25,84,90.0
5244,B-4,319.75,0.25,84,90.0
5245,G4,319.75,1/40,89,90.0
5246,B-4,319.75,1/40,89,90.0
5247,C4,319.75,1/40,89,90.0
5248,E-5,319.75,1/40,89,90.0
5249,C#2,320.0,483/1000,95,90.0
5250,B3,320.0,2767/1000,85,90.0
5251,C#3,320.0,4.0,82,90.0
5252,B1,320.0,0.25,76,90.0
5253,F#2,320.0,0.25,76,90.0
5254,D4,320.0,0.25,76,90.0
5255,E-4,320.0,4.0,40,90.0
5256,G#4,320.0,4.0,40,90.0
5257,F4,320.075,111/40,89,90.0
5258,F4,320.25,13/5,68,90.0
5259,F#2,320.25,0.25,42,90.0
5260,D4,320.25,0.25,42,90.0
5261,G#4,320.5,2.375,72,90.0
5262,F#2,320.5,0.25,47,90.0
5263,E-4,320.5,0.25,47,90.0
5264,B-4,320.5,0.25,47,90.0
5265,E-5,320.75,3.25,87,90.0
5266,F#2,320.75,0.25,98,90.0
5267,D4,320.75,0.25,98,90.0
5268,D2,321.0,0.25,71,90.0
5269,E-4,321.0,0.25,71,90.0
5270,F#2,321.25,0.25,50,90.0
5271,G#3,321.25,0.25,50,90.0
5272,D4,321.25,0.25,50,90.0
5273,F#3,321.25,0.25,50,90.0
5274,F#2,321.5,0.25,54,90.0
5275,G#3,321.5,0.25,54,90.0
5276,E-4,321.5,0.25,54,90.0
5277,F#3,321.5,0.25,54,90.0
5278,B-4,321.5,0.25,54,90.0
5279,C#2,321.75,19/20,87,90.0
5280,B1,321.75,0.25,74,90.0
5281,F#2,321.75,0.25,74,90.0
5282,E-4,321.75,0.25,74,90.0
5283,A4,321.75,0.25,74,90.0
5284,B1,322.0,0.25,58,90.0
5285,F#2,322.0,0.25,58,90.0
5286,A4,322.0,0.25,58,90.0
5287,F#2,322.25,0.25,60,90.0
5288,E-4,322.25,0.25,60,90.0
5289,F#2,322.5,0.25,72,90.0
5290,E-4,322.5,0.25,72,90.0
5291,B-4,322.5,0.25,72,90.0
5292,C#1,322.75,26/125,82,90.0
5293,F#2,322.75,0.25,114,90.0
5294,D4,322.75,0.25,114,90.0
5295,G#1,323.0,767/1000,68,90.0
5296,D2,323.0,0.25,85,90.0
5297,E-4,323.0,0.25,85,90.0
5298,G#4,323.0,24/125,101,90.0
5299,B3,323.0,24/125,101,90.0
5300,F4,323.0,24/125,101,90.0
5301,G4,323.033,121/500,91,90.0
5302,F#2,323.25,0.25,52,90.0
5303,E-4,323.25,0.25,52,90.0
5304,F4,323.25,23/250,72,90.0
5305,B3,323.25,23/250,72,90.0
5306,G#4,323.25,23/250,72,90.0
5307,B-2,323.5,0.25,86,90.0
5308,E-4,323.5,0.25,86,90.0
5309,B-4,323.5,0.25,86,90.0
5310,F4,323.517,0.25,85,90.0
5311,E-4,323.75,0.25,73,90.0
5312,B-4,323.75,0.25,73,90.0
5313,C2,324.0,1633/1000,91,90.0
5314,B-3,324.0,2767/1000,85,90.0
5315,C3,324.0,4.0,82,90.0
5316,B1,324.0,0.25,82,90.0
5317,F#2,324.0,0.25,82,90.0
5318,E-4,324.0,4.0,40,90.0
5319,B-4,324.0,4.0,40,90.0
5320,E-4,324.025,7/40,87,90.0
5321,F#2,324.25,0.25,31,90.0
5322,E4,324.25,13/5,68,90.0
5323,C4,324.325,121/500,56,90.0
5324,F#2,324.5,0.25,108,90.0
5325,G4,324.5,2.375,72,90.0
5326,F#2,324.75,0.25,118,90.0
5327,C#5,324.75,3.25,87,90.0
5328,C4,324.775,26/125,78,90.0
5329,D2,325.0,0.25,96,90.0
5330,G#3,325.0,0.25,96,90.0
5331,F#2,325.25,0.25,33,90.0
5332,B-3,325.258,233/1000,59,90.0
5333,F#2,325.5,0.25,84,90.0
5334,C4,325.717,17/40,80,90.0
5335,C2,325.75,1.5,85,90.0
5336,D2,325.75,0.25,72,90.0
5337,D2,326.0,0.25,120,90.0
5338,B-2,326.0,0.25,120,90.0
5339,B1,326.25,0.25,60,90.0
5340,F#2,326.25,0.25,60,90.0
5341,B1,326.5,0.25,96,90.0
5342,C3,326.75,0.25,92,90.0
5343,G#3,327.0,0.25,66,90.0
5344,G4,327.0,24/125,101,90.0
5345,B-3,327.0,24/125,101,90.0
5346,E4,327.0,24/125,101,90.0
5347,G1,327.25,129/500,57,90.0
5348,A2,327.25,0.25,62,90.0
5349,E4,327.25,23/250,72,90.0
5350,B-3,327.25,23/250,72,90.0
5351,G4,327.25,23/250,72,90.0
5352,B1,327.5,0.25,80,90.0
5353,B-2,327.5,0.25,80,90.0
5354,C2,327.508,51/125,87,90.0
5355,F2,328.0,0.5,90,90.0
5356,F3,328.0,3/5,60,90.0
5357,B1,328.0,0.25,86,90.0
5358,F#2,328.0,0.25,86,90.0
5359,C#3,328.0,0.25,86,90.0
5360,E-4,328.0,4.0,86,90.0
5361,F4,328.0,4.0,86,90.0
5362,G#3,328.0,4.0,86,90.0
5363,C5,328.0,4.0,86,90.0
5364,G4,328.0,4.0,40,90.0
5365,C5,328.0,4.0,40,90.0
5366,F#2,328.25,0.25,31,90.0
5367,G#3,328.25,4/5,52,90.0
5368,E-2,328.5,3/10,76,90.0
5369,F#2,328.5,0.25,108,90.0
5370,C4,328.5,29/40,68,90.0
5371,F#2,328.75,0.25,118,90.0
5372,F3,328.75,101/125,66,90.0
5373,F2,328.8,0.125,103,90.0
5374,D2,329.0,0.25,96,90.0
5375,G#3,329.0,0.25,96,90.0
5376,E-4,329.067,283/1000,100,90.0
5377,F#2,329.25,0.25,33,90.0
5378,G#3,329.25,867/1000,47,90.0
5379,F#2,329.5,0.25,84,90.0
5380,C4,329.5,29/40,58,90.0
5381,F4,329.533,7/20,87,90.0
5382,F#2,329.75,0.25,71,90.0
5383,F3,329.75,27/40,68,90.0
5384,B1,330.0,0.25,98,90.0
5385,F#2,330.0,0.25,98,90.0
5386,G4,330.033,0.25,87,90.0
5387,F#2,330.25,0.25,33,90.0
5388,G#3,330.25,471/500,53,90.0
5389,F4,330.467,3/10,76,90.0
5390,F#2,330.5,0.25,76,90.0
5391,C4,330.5,221/500,74,90.0
5392,C2,330.75,0.25,68,90.0
5393,F#2,330.75,0.25,105,90.0
5394,F3,330.75,379/500,55,90.0
5395,E-4,330.808,149/125,89,90.0
5396,E-2,331.0,2/5,84,90.0
5397,E-4,331.0,867/1000,68,90.0
5398,D2,331.0,0.25,96,90.0
5399,G#3,331.0,0.25,96,90.0
5400,F#2,331.25,0.25,33,90.0
5401,C4,331.25,13/20,57,90.0
5402,C2,331.5,0.5,64,90.0
5403,F#2,331.5,0.25,108,90.0
5404,G#3,331.508,11/40,51,90.0
5405,F#2,331.75,0.25,93,90.0
5406,F3,331.75,0.25,59,90.0
5407,B-1,332.0,221/500,99,90.0
5408,F3,332.0,273/250,66,90.0
5409,E-4,332.0,23/20,89,90.0
5410,B1,332.0,0.25,82,90.0
5411,F#2,332.0,0.25,82,90.0
5412,F4,332.0,4.0,78,90.0
5413,C4,332.0,4.0,78,90.0
5414,E-4,332.0,4.0,78,90.0
5415,G#3,332.0,4.0,78,90.0
5416,F#2,332.25,0.25,31,90.0
5417,G#3,332.25,277/250,53,90.0
5418,G#1,332.5,0.25,81,90.0
5419,F#2,332.5,0.25,108,90.0
5420,C4,332.5,1017/1000,59,90.0
5421,B-1,332.75,0.125,93,90.0
5422,F#2,332.75,0.25,118,90.0
5423,E-4,332.75,27/10,70,90.0
5424,D2,333.0,0.25,96,90.0
5425,G#3,333.0,0.25,96,90.0
5426,F#2,333.25,0.25,33,90.0
5427,F3,333.25,833/1000,57,90.0
5428,E-4,333.3,121/500,102,90.0
5429,F#2,333.5,0.25,84,90.0
5430,G#3,333.5,817/1000,53,90.0
5431,F#2,333.75,0.25,71,90.0
5432,C4,333.75,13/20,68,90.0
5433,F4,333.75,121/500,87,90.0
5434,B1,334.0,0.25,98,90.0
5435,F#2,334.0,0.25,98,90.0
5436,G4,334.067,317/1000,87,90.0
5437,F#2,334.25,0.25,33,90.0
5438,F3,334.25,31/40,68,90.0
5439,F#2,334.5,0.25,76,90.0
5440,G#3,334.5,101/125,47,90.0
5441,F4,334.533,9/40,85,90.0
5442,F1,334.75,0.25,73,90.0
5443,F#2,334.75,0.25,105,90.0
5444,C4,334.75,321/500,70,90.0
5445,G#1,335.0,127/250,78,90.0
5446,D2,335.0,0.25,96,90.0
5447,G#3,335.0,0.25,96,90.0
5448,E-4,335.033,417/1000,85,90.0
5449,F#2,335.25,0.25,33,90.0
5450,F3,335.25,533/1000,68,90.0
5451,F#2,335.5,0.25,108,90.0
5452,G#3,335.5,0.5,53,90.0
5453,E-4,335.5,171/500,10,90.0
5454,D2,335.508,2/5,88,90.0
5455,F4,335.558,26/125,82,90.0
5456,F#2,335.75,0.25,93,90.0
5457,C4,335.75,0.25,53,90.0
5458,G4,335.858,71/500,76,90.0
5459,E-2,336.0,221/500,99,90.0
5460,E-3,336.0,23/20,72,90.0
5461,G4,336.0,4.0,76,90.0
5462,B1,336.0,0.25,82,90.0
5463,F#2,336.0,0.25,82,90.0
5464,D4,336.0,4.0,86,90.0
5465,F4,336.0,4.0,86,90.0
5466,G3,336.0,4.0,86,90.0
5467,B-3,336.0,4.0,86,90.0
5468,G4,336.0,4.0,40,90.0
5469,C5,336.0,4.0,40,90.0
5470,F#2,336.25,0.25,31,90.0
5471,D2,336.5,0.25,81,90.0
5472,F#2,336.5,0.25,108,90.0
5473,G3,336.5,933/1000,49,90.0
5474,E-2,336.75,0.125,93,90.0
5475,F#2,336.75,0.25,118,90.0
5476,D4,336.75,226/125,70,90.0
5477,D2,337.0,0.25,96,90.0
5478,G#3,337.0,0.25,96,90.0
5479,F#2,337.25,0.25,33,90.0
5480,E-3,337.25,31/40,60,90.0
5481,F#2,337.5,0.25,84,90.0
5482,F#2,337.75,0.25,71,90.0
5483,G3,337.75,0.5,60,90.0
5484,B1,338.0,0.25,98,90.0
5485,F#2,338.0,0.25,98,90.0
5486,F#2,338.25,0.25,33,90.0
5487,E-3,338.25,53/40,56,90.0
5488,B-4,338.25,1.75,10,90.0
5489,F#2,338.5,0.25,76,90.0
5490,G3,338.5,183/1000,58,90.0
5491,B-1,338.75,0.25,73,90.0
5492,F#2,338.75,0.25,105,90.0
5493,D2,339.0,127/250,78,90.0
5494,D4,339.0,1.0,85,90.0
5495,D2,339.0,0.25,96,90.0
5496,G#3,339.0,0.25,96,90.0
5497,F#2,339.25,0.25,33,90.0
5498,F#2,339.5,0.25,108,90.0
5499,G3,339.5,367/1000,60,90.0
5500,C2,339.508,2/5,88,90.0
5501,F#2,339.75,0.25,93,90.0
5502,E-3,339.75,71/500,74,90.0
5503,C#2,340.0,33/20,87,90.0
5504,G4,340.0,777/250,76,90.0
5505,B1,340.0,0.25,76,90.0
5506,F#2,340.0,0.25,76,90.0
5507,B3,340.0,2.0,86,90.0
5508,E-4,340.0,2.0,86,90.0
5509,F3,340.0,2.0,86,90.0
5510,B-4,340.0,2.0,86,90.0
5511,F4,340.0,4.0,40,90.0
5512,B4,340.0,4.0,40,90.0
5513,F#2,340.25,0.25,31,90.0
5514,G#3,340.25,933/1000,48,90.0
5515,F#2,340.5,0.25,80,90.0
5516,B3,340.5,37/40,63,90.0
5517,F#2,340.75,0.25,111,90.0
5518,E-4,340.75,633/1000,74,90.0
5519,D2,341.0,0.25,96,90.0
5520,G#3,341.0,0.25,96,90.0
5521,F#2,341.25,0.25,52,90.0
5522,G#3,341.25,0.75,46,90.0
5523,F#2,341.5,0.25,84,90.0
5524,F4,341.5,0.5,85,90.0
5525,C#2,341.75,0.25,85,90.0
5526,F#2,341.75,0.25,127,90.0
5527,C2,342.0,33/20,87,90.0
5528,B1,342.0,0.25,66,90.0
5529,F#2,342.0,0.25,66,90.0
5530,B-3,342.0,2.0,86,90.0
5531,C#4,342.0,2.0,86,90.0
5532,E3,342.0,2.0,86,90.0
5533,G#4,342.0,2.0,86,90.0
5534,F#2,342.25,0.25,57,90.0
5535,G3,342.25,933/1000,48,90.0
5536,F#2,342.5,0.25,84,90.0
5537,B-3,342.5,37/40,63,90.0
5538,F#2,342.75,0.25,121,90.0
5539,C#4,342.75,633/1000,74,90.0
5540,D2,343.0,0.25,100,90.0
5541,G#3,343.0,0.25,100,90.0
5542,F#2,343.25,0.25,46,90.0
5543,G3,343.25,0.75,46,90.0
5544,F#2,343.5,0.25,80,90.0
5545,E4,343.5,0.5,85,90.0
5546,C2,343.75,0.25,85,90.0
5547,B-2,343.75,0.25,90,90.0
5548,F2,344.0,0.5,88,90.0
5549,G#3,344.0,521/500,68,90.0
5550,B1,344.0,0.25,82,90.0
5551,F#2,344.0,0.25,82,90.0
5552,F4,344.0,4.0,78,90.0
5553,C4,344.0,4.0,78,90.0
5554,E-4,344.0,4.0,78,90.0
5555,G#3,344.0,4.0,78,90.0
5556,E4,344.0,4.0,40,90.0
5557,B-4,344.0,4.0,40,90.0
5558,F#2,344.25,0.25,31,90.0
5559,E-2,344.5,317/1000,69,90.0
5560,F#2,344.5,0.25,108,90.0
5561,E-4,344.5,833/1000,58,90.0
5562,F#2,344.75,0.25,118,90.0
5563,F4,344.75,0.625,76,90.0
5564,F2,344.817,3/20,93,90.0
5565,D2,345.0,0.25,96,90.0
5566,G#3,345.0,0.25,96,90.0
5567,F#2,345.25,0.25,33,90.0
5568,G#3,345.25,99/125,62,90.0
5569,E-4,345.317,7/40,102,90.0
5570,F#2,345.5,0.25,84,90.0
5571,E-4,345.5,833/1000,41,90.0
5572,F#2,345.75,0.25,71,90.0
5573,C5,345.75,2.25,87,90.0
5574,F4,345.767,9/40,98,90.0
5575,B1,346.0,0.25,98,90.0
5576,F#2,346.0,0.25,98,90.0
5577,G4,346.083,121/500,100,90.0
5578,F#2,346.25,0.25,33,90.0
5579,G#3,346.25,833/1000,60,90.0
5580,F#2,346.5,0.25,76,90.0
5581,E-4,346.5,421/500,59,90.0
5582,F4,346.55,0.25,87,90.0
5583,C2,346.75,77/250,57,90.0
5584,F#2,346.75,0.25,105,90.0
5585,F4,346.75,3/5,80,90.0
5586,E-2,347.0,221/500,87,90.0
5587,D2,347.0,0.25,96,90.0
5588,G#3,347.0,0.25,96,90.0
5589,E-4,347.042,479/500,82,90.0
5590,F#2,347.25,0.25,33,90.0
5591,G#3,347.25,76/125,59,90.0
5592,B1,347.5,0.5,52,90.0
5593,F#2,347.5,0.25,108,90.0
5594,E-4,347.5,0.5,57,90.0
5595,F#2,347.75,0.25,93,90.0
5596,F4,347.75,0.25,66,90.0
5597,B-1,348.0,0.5,88,90.0
5598,F3,348.0,3/5,60,90.0
5599,E-4,348.0,323/250,82,90.0
5600,B1,348.0,0.25,76,90.0
5601,F#2,348.0,0.25,76,90.0
5602,F4,348.0,4.0,78,90.0
5603,C4,348.0,4.0,78,90.0
5604,E-4,348.0,4.0,78,90.0
5605,G#3,348.0,4.0,78,90.0
5606,F#2,348.25,0.25,31,90.0
5607,G#3,348.25,4/5,52,90.0
5608,G#1,348.5,317/1000,69,90.0
5609,F#2,348.5,0.25,80,90.0
5610,C4,348.5,29/40,68,90.0
5611,F#2,348.75,0.25,111,90.0
5612,F3,348.75,101/125,66,90.0
5613,B-1,348.817,3/20,93,90.0
5614,D2,349.0,0.25,96,90.0
5615,G#3,349.0,0.25,96,90.0
5616,F#2,349.25,0.25,52,90.0
5617,G#3,349.25,867/1000,47,90.0
5618,F#2,349.5,0.25,84,90.0
5619,C4,349.5,29/40,58,90.0
5620,E-4,349.508,9/40,105,90.0
5621,F#2,349.75,0.25,127,90.0
5622,F3,349.75,27/40,68,90.0
5623,F4,349.808,233/1000,87,90.0
5624,B1,350.0,0.25,66,90.0
5625,F#2,350.0,0.25,66,90.0
5626,G4,350.117,121/500,98,90.0
5627,F#2,350.25,0.25,57,90.0
5628,G#3,350.25,471/500,53,90.0
5629,F4,350.483,9/40,93,90.0
5630,F#2,350.5,0.25,84,90.0
5631,C4,350.5,221/500,74,90.0
5632,F1,350.75,77/250,57,90.0
5633,F#2,350.75,0.25,121,90.0
5634,F3,350.75,379/500,55,90.0
5635,E-4,350.808,633/1000,85,90.0
5636,G#1,351.0,221/500,87,90.0
5637,E-4,351.0,867/1000,68,90.0
5638,D2,351.0,0.25,100,90.0
5639,G#3,351.0,0.25,100,90.0
5640,F#2,351.25,0.25,46,90.0
5641,C4,351.25,13/20,57,90.0
5642,E2,351.5,0.5,52,90.0
5643,F#2,351.5,0.25,80,90.0
5644,F4,351.5,3/10,80,90.0
5645,G#3,351.508,11/40,51,90.0
5646,B-2,351.75,0.25,90,90.0
5647,F3,351.75,0.25,59,90.0
5648,G4,351.817,183/1000,98,90.0
5649,E-2,352.0,0.5,88,90.0
5650,E-3,352.0,1.125,68,90.0
5651,D4,352.0,1279/500,63,90.0
5652,G4,352.0,4.0,98,90.0
5653,B1,352.0,0.25,82,90.0
5654,F#2,352.0,0.25,82,90.0
5655,D4,352.0,4.0,86,90.0
5656,F4,352.0,4.0,86,90.0
5657,G3,352.0,4.0,86,90.0
5658,B-3,352.0,4.0,86,90.0
5659,F#2,352.25,0.25,31,90.0
5660,D2,352.5,317/1000,69,90.0
5661,F#2,352.5,0.25,108,90.0
5662,G3,352.5,867/1000,52,90.0
5663,F#2,352.75,0.25,118,90.0
5664,B-3,352.75,7/10,61,90.0
5665,E-2,352.817,3/20,93,90.0
5666,D2,353.0,0.25,96,90.0
5667,G#3,353.0,0.25,96,90.0
5668,F#2,353.25,0.25,33,90.0
5669,E-3,353.25,99/125,87,90.0
5670,F#2,353.5,0.25,84,90.0
5671,G3,353.5,429/500,54,90.0
5672,F#2,353.75,0.25,71,90.0
5673,B-3,353.75,633/1000,68,90.0
5674,B1,354.0,0.25,98,90.0
5675,F#2,354.0,0.25,98,90.0
5676,F#2,354.25,0.25,33,90.0
5677,E-3,354.25,101/125,72,90.0
5678,F#2,354.5,0.25,76,90.0
5679,G3,354.5,27/40,56,90.0
5680,B-1,354.75,77/250,57,90.0
5681,F#2,354.75,0.25,105,90.0
5682,B-3,354.75,0.75,72,90.0
5683,D4,354.75,1.25,57,90.0
5684,D2,355.0,221/500,87,90.0
5685,D2,355.0,0.25,96,90.0
5686,G#3,355.0,0.25,96,90.0
5687,F#2,355.25,0.25,33,90.0
5688,E-3,355.25,123/250,64,90.0
5689,B-1,355.5,0.5,52,90.0
5690,F#2,355.5,0.25,108,90.0
5691,G3,355.5,49/125,57,90.0
5692,F#2,355.75,0.25,93,90.0
5693,B-3,355.75,0.25,70,90.0
5694,A1,356.0,0.5,90,90.0
5695,E3,356.0,23/20,72,90.0
5696,G4,356.0,71/500,98,90.0
5697,B1,356.0,0.25,82,90.0
5698,F#2,356.0,0.25,82,90.0
5699,E4,356.0,4.0,78,90.0
5700,B3,356.0,4.0,78,90.0
5701,C#4,356.0,4.0,78,90.0
5702,G3,356.0,4.0,78,90.0
5703,F#2,356.25,0.25,31,90.0
5704,G1,356.5,3/10,76,90.0
5705,F#2,356.5,0.25,108,90.0
5706,G3,356.5,933/1000,49,90.0
5707,F#2,356.75,0.25,118,90.0
5708,C#4,356.75,226/125,70,90.0
5709,A1,356.8,0.125,103,90.0
5710,D2,357.0,0.25,96,90.0
5711,G#3,357.0,0.25,96,90.0
5712,E3,357.25,31/40,60,90.0
5713,F#2,357.25,0.25,46,90.0
5714,D4,357.25,0.25,46,90.0
5715,A4,357.25,0.25,46,90.0
5716,F#2,357.5,0.25,70,90.0
5717,A4,357.5,0.25,70,90.0
5718,G3,357.75,0.5,60,90.0
5719,D2,357.75,0.25,65,90.0
5720,F#2,357.75,0.25,65,90.0
5721,G#3,357.75,0.25,65,90.0
5722,E-4,357.75,0.25,65,90.0
5723,F#3,357.75,0.25,65,90.0
5724,B1,358.0,0.25,80,90.0
5725,F#2,358.0,0.25,80,90.0
5726,G#3,358.0,0.25,80,90.0
5727,F#3,358.0,0.25,80,90.0
5728,E3,358.25,53/40,56,90.0
5729,D2,358.25,0.25,51,90.0
5730,F#2,358.25,0.25,51,90.0
5731,E-4,358.25,0.25,51,90.0
5732,B-4,358.25,0.25,51,90.0
5733,G3,358.5,183/1000,58,90.0
5734,D2,358.5,0.25,115,90.0
5735,B-2,358.5,0.25,115,90.0
5736,B-4,358.5,0.25,115,90.0
5737,E1,358.75,0.25,68,90.0
5738,G1,359.0,2/5,84,90.0
5739,G#3,359.0,0.25,80,90.0
5740,C#4,359.0,1.0,85,90.0
5741,A2,359.25,0.25,112,90.0
5742,E2,359.5,0.5,64,90.0
5743,F2,359.5,0.25,124,90.0
5744,G3,359.5,367/1000,60,90.0
5745,E3,359.75,71/500,74,90.0
5746,G#2,360.0,1633/1000,91,90.0
5747,B1,360.0,0.25,78,90.0
5748,F#2,360.0,0.25,78,90.0
5749,C#3,360.0,0.25,78,90.0
5750,E-4,360.0,0.25,78,90.0
5751,G3,360.0,1/10,97,90.0
5752,B-4,360.0,1/10,97,90.0
5753,C4,360.0,1/10,97,90.0
5754,E-4,360.0,1/10,97,90.0
5755,F#2,360.25,0.25,32,90.0
5756,E-4,360.25,0.25,32,90.0
5757,F#2,360.5,0.25,90,90.0
5758,B-4,360.5,0.25,90,90.0
5759,G3,360.5,1/10,99,90.0
5760,B-4,360.5,1/10,99,90.0
5761,C4,360.5,1/10,99,90.0
5762,E-4,360.5,1/10,99,90.0
5763,F#2,360.75,0.25,118,90.0
5764,D4,360.75,0.25,118,90.0
5765,D2,361.0,0.25,78,90.0
5766,E-4,361.0,0.25,78,90.0
5767,G4,361.042,267/1000,105,90.0
5768,F#2,361.25,0.25,40,90.0
5769,G#3,361.25,0.25,40,90.0
5770,E-4,361.25,0.25,40,90.0
5771,F#3,361.25,0.25,40,90.0
5772,G3,361.25,117/1000,88,90.0
5773,B-4,361.25,117/1000,88,90.0
5774,C4,361.25,117/1000,88,90.0
5775,E-4,361.25,117/1000,88,90.0
5776,F#2,361.5,0.25,58,90.0
5777,G#3,361.5,0.25,58,90.0
5778,E-4,361.5,0.25,58,90.0
5779,F#3,361.5,0.25,58,90.0
5780,B-4,361.5,0.25,58,90.0
5781,G4,361.508,121/500,89,90.0
5782,G#2,361.75,1.5,85,90.0
5783,G#2,361.75,77/250,85,90.0
5784,B1,361.75,0.25,62,90.0
5785,F#2,361.75,0.25,62,90.0
5786,E-4,361.75,0.25,62,90.0
5787,A4,361.75,0.25,62,90.0
5788,E-4,361.8,11/5,85,90.0
5789,B1,362.0,0.25,80,90.0
5790,F#2,362.0,0.25,80,90.0
5791,A4,362.0,0.25,80,90.0
5792,F#2,362.25,0.25,58,90.0
5793,D4,362.25,0.25,58,90.0
5794,G3,362.25,0.125,103,90.0
5795,B-4,362.25,0.125,103,90.0
5796,C4,362.25,0.125,103,90.0
5797,E-4,362.25,0.125,103,90.0
5798,F#2,362.5,0.25,76,90.0
5799,B-4,362.5,0.25,76,90.0
5800,G#2,362.75,26/125,67,90.0
5801,F#2,362.75,0.25,71,90.0
5802,E-4,362.75,0.25,71,90.0
5803,D2,363.0,0.25,113,90.0
5804,G3,363.0,9/20,95,90.0
5805,B-4,363.0,9/20,95,90.0
5806,C4,363.0,9/20,95,90.0
5807,E-4,363.0,9/20,95,90.0
5808,E-2,363.25,129/500,57,90.0
5809,F#2,363.25,0.25,54,90.0
5810,E-4,363.25,0.25,54,90.0
5811,G#2,363.5,79/500,78,90.0
5812,F#2,363.5,0.25,92,90.0
5813,E-4,363.5,0.25,92,90.0
5814,B-4,363.5,0.25,92,90.0
5815,G#2,363.508,51/125,87,90.0
5816,F#2,363.75,0.25,92,90.0
5817,E-4,363.75,0.25,92,90.0
5818,B-4,363.75,0.25,92,90.0
5819,G2,364.0,9/20,89,90.0
5820,E-4,364.0,199/125,85,90.0
5821,B1,364.0,0.25,93,90.0
5822,F#2,364.0,0.25,93,90.0
5823,E-4,364.0,0.25,93,90.0
5824,F3,364.025,27/250,99,90.0
5825,G3,364.025,27/250,99,90.0
5826,B-3,364.025,27/250,99,90.0
5827,D4,364.025,27/250,99,90.0
5828,F#2,364.25,0.25,43,90.0
5829,E-4,364.25,0.25,43,90.0
5830,F3,364.25,0.125,81,90.0
5831,G3,364.25,0.125,81,90.0
5832,B-3,364.25,0.125,81,90.0
5833,D4,364.25,0.125,81,90.0
5834,F#2,364.5,0.25,59,90.0
5835,E-4,364.5,0.25,59,90.0
5836,B-4,364.5,0.25,59,90.0
5837,F#2,364.75,0.25,112,90.0
5838,D4,364.75,0.25,112,90.0
5839,D2,365.0,0.25,71,90.0
5840,E-4,365.0,0.25,71,90.0
5841,F#2,365.25,0.25,36,90.0
5842,G#3,365.25,0.25,36,90.0
5843,E-4,365.25,0.25,36,90.0
5844,F#3,365.25,0.25,36,90.0
5845,F3,365.258,23/250,97,90.0
5846,G3,365.258,23/250,97,90.0
5847,B-3,365.258,23/250,97,90.0
5848,D4,365.258,23/250,97,90.0
5849,F#2,365.5,0.25,71,90.0
5850,G#3,365.5,0.25,71,90.0
5851,E-4,365.5,0.25,71,90.0
5852,F#3,365.5,0.25,71,90.0
5853,B-4,365.5,0.25,71,90.0
5854,G2,365.75,1.0,85,90.0
5855,B1,365.75,0.25,67,90.0
5856,F#2,365.75,0.25,67,90.0
5857,E-4,365.75,0.25,67,90.0
5858,A4,365.75,0.25,67,90.0
5859,G2,365.758,233/1000,94,90.0
5860,E-4,365.817,121/500,63,90.0
5861,B1,366.0,0.25,65,90.0
5862,F#2,366.0,0.25,65,90.0
5863,A4,366.0,0.25,65,90.0
5864,B-4,366.067,3/10,105,90.0
5865,F#2,366.25,0.25,127,90.0
5866,F3,366.292,1/10,88,90.0
5867,G3,366.292,1/10,88,90.0
5868,B-3,366.292,1/10,88,90.0
5869,D4,366.292,1/10,88,90.0
5870,F#2,366.5,0.25,50,90.0
5871,E-4,366.5,0.25,50,90.0
5872,B-4,366.5,0.25,50,90.0
5873,B-4,366.533,73/250,87,90.0
5874,D2,366.75,1/5,80,90.0
5875,F#2,366.75,0.25,69,90.0
5876,D4,366.75,0.25,69,90.0
5877,G2,366.758,3/40,88,90.0
5878,G4,366.867,129/500,85,90.0
5879,F2,367.0,229/500,91,90.0
5880,D2,367.0,0.25,84,90.0
5881,E-4,367.0,0.25,84,90.0
5882,F3,367.042,233/1000,86,90.0
5883,G3,367.042,233/1000,86,90.0
5884,B-3,367.042,233/1000,86,90.0
5885,D4,367.042,233/1000,86,90.0
5886,B-2,367.25,0.25,52,90.0
5887,E-4,367.25,0.25,52,90.0
5888,G4,367.35,3/10,91,90.0
5889,G2,367.5,179/500,95,90.0
5890,F#2,367.5,0.25,83,90.0
5891,E-4,367.5,0.25,83,90.0
5892,B-4,367.5,0.25,83,90.0
5893,F3,367.508,79/500,97,90.0
5894,G3,367.508,79/500,97,90.0
5895,B-3,367.508,79/500,97,90.0
5896,D4,367.508,79/500,97,90.0
5897,F#2,367.75,0.25,84,90.0
5898,B-2,367.75,0.25,84,90.0
5899,E-4,367.75,0.25,84,90.0
5900,B-4,367.75,0.25,84,90.0
5901,F4,367.8,1/5,82,90.0
5902,F2,368.0,1633/1000,91,90.0
5903,F4,368.0,3483/1000,82,90.0
5904,B1,368.0,0.25,76,90.0
5905,F#2,368.0,0.25,76,90.0
5906,D4,368.0,0.25,76,90.0
5907,E-4,368.0,1/10,105,90.0
5908,F4,368.0,1/10,105,90.0
5909,G#3,368.0,1/10,105,90.0
5910,C4,368.0,1/10,105,90.0
5911,F#2,368.25,0.25,42,90.0
5912,D4,368.25,0.25,42,90.0
5913,E-4,368.25,23/250,74,90.0
5914,F4,368.25,23/250,74,90.0
5915,G#3,368.25,23/250,74,90.0
5916,C4,368.25,23/250,74,90.0
5917,F2,368.5,217/1000,87,90.0
5918,F#2,368.5,0.25,47,90.0
5919,E-4,368.5,0.25,47,90.0
5920,B-4,368.5,0.25,47,90.0
5921,F#2,368.75,0.25,98,90.0
5922,D4,368.75,0.25,98,90.0
5923,D2,369.0,0.25,71,90.0
5924,E-4,369.0,0.25,71,90.0
5925,F#2,369.25,0.25,50,90.0
5926,G#3,369.25,0.25,50,90.0
5927,D4,369.25,0.25,50,90.0
5928,F#3,369.25,0.25,50,90.0
5929,E-4,369.25,117/1000,89,90.0
5930,F4,369.25,117/1000,89,90.0
5931,G#3,369.25,117/1000,89,90.0
5932,C4,369.25,117/1000,89,90.0
5933,F#2,369.5,0.25,54,90.0
5934,G#3,369.5,0.25,54,90.0
5935,E-4,369.5,0.25,54,90.0
5936,F#3,369.5,0.25,54,90.0
5937,B-4,369.5,0.25,54,90.0
5938,F2,369.75,1.5,85,90.0
5939,F2,369.75,9/40,95,90.0
5940,B1,369.75,0.25,74,90.0
5941,F#2,369.75,0.25,74,90.0
5942,E-4,369.75,0.25,74,90.0
5943,A4,369.75,0.25,74,90.0
5944,B1,370.0,0.25,58,90.0
5945,F#2,370.0,0.25,58,90.0
5946,A4,370.0,0.25,58,90.0
5947,F#2,370.25,0.25,60,90.0
5948,E-4,370.25,0.25,60,90.0
5949,E-4,370.25,23/250,80,90.0
5950,F4,370.25,23/250,80,90.0
5951,G#3,370.25,23/250,80,90.0
5952,C4,370.25,23/250,80,90.0
5953,F#2,370.5,0.25,72,90.0
5954,E-4,370.5,0.25,72,90.0
5955,B-4,370.5,0.25,72,90.0
5956,F2,370.75,23/250,82,90.0
5957,F#2,370.75,0.25,114,90.0
5958,D4,370.75,0.25,114,90.0
5959,D2,371.0,0.25,85,90.0
5960,E-4,371.0,0.25,85,90.0
5961,E-4,371.0,121/500,82,90.0
5962,F4,371.0,121/500,82,90.0
5963,G#3,371.0,121/500,82,90.0
5964,C4,371.0,121/500,82,90.0
5965,C2,371.25,129/500,57,90.0
5966,F#2,371.25,0.25,52,90.0
5967,E-4,371.25,0.25,52,90.0
5968,B-2,371.5,0.25,86,90.0
5969,E-4,371.5,0.25,86,90.0
5970,B-4,371.5,0.25,86,90.0
5971,E-4,371.5,71/500,80,90.0
5972,F4,371.5,71/500,80,90.0
5973,G#3,371.5,71/500,80,90.0
5974,C4,371.5,71/500,80,90.0
5975,F2,371.508,51/125,87,90.0
5976,E-4,371.583,167/1000,55,90.0
5977,E-4,371.75,0.25,73,90.0
5978,B-4,371.75,0.25,73,90.0
5979,G4,371.8,1/5,102,90.0
5980,C2,372.0,1633/1000,91,90.0
5981,G4,372.0,4.0,102,90.0
5982,B1,372.0,0.25,93,90.0
5983,F#2,372.0,0.25,93,90.0
5984,E-4,372.0,0.25,93,90.0
5985,B-3,372.0,0.125,98,90.0
5986,D5,372.0,0.125,98,90.0
5987,E-4,372.0,0.125,98,90.0
5988,G4,372.0,0.125,98,90.0
5989,F#2,372.25,0.25,43,90.0
5990,E-4,372.25,0.25,43,90.0
5991,F#2,372.5,0.25,59,90.0
5992,E-4,372.5,0.25,59,90.0
5993,B-4,372.5,0.25,59,90.0
5994,B-3,372.5,0.125,102,90.0
5995,D5,372.5,0.125,102,90.0
5996,E-4,372.5,0.125,102,90.0
5997,G4,372.5,0.125,102,90.0
5998,F#2,372.75,0.25,112,90.0
5999,D4,372.75,0.25,112,90.0
6000,D2,373.0,0.25,71,90.0
6001,E-4,373.0,0.25,71,90.0
6002,F#2,373.25,0.25,36,90.0
6003,G#3,373.25,0.25,36,90.0
6004,E-4,373.25,0.25,36,90.0
6005,F#3,373.25,0.25,36,90.0
6006,B-3,373.25,1/10,105,90.0
6007,D5,373.25,1/10,105,90.0
6008,E-4,373.25,1/10,105,90.0
6009,G4,373.25,1/10,105,90.0
6010,F#2,373.5,0.25,71,90.0
6011,G#3,373.5,0.25,71,90.0
6012,E-4,373.5,0.25,71,90.0
6013,F#3,373.5,0.25,71,90.0
6014,B-4,373.5,0.25,71,90.0
6015,C2,373.75,1.5,85,90.0
6016,B1,373.75,0.25,67,90.0
6017,F#2,373.75,0.25,67,90.0
6018,E-4,373.75,0.25,67,90.0
6019,A4,373.75,0.25,67,90.0
6020,C3,373.75,26/125,88,90.0
6021,C2,373.75,26/125,88,90.0
6022,B1,374.0,0.25,65,90.0
6023,F#2,374.0,0.25,65,90.0
6024,A4,374.0,0.25,65,90.0
6025,F#2,374.25,0.25,127,90.0
6026,B-3,374.25,23/250,102,90.0
6027,D5,374.25,23/250,102,90.0
6028,E-4,374.25,23/250,102,90.0
6029,G4,374.25,23/250,102,90.0
6030,F#2,374.5,0.25,50,90.0
6031,E-4,374.5,0.25,50,90.0
6032,B-4,374.5,0.25,50,90.0
6033,F#2,374.75,0.25,69,90.0
6034,D4,374.75,0.25,69,90.0
6035,C3,374.75,183/1000,78,90.0
6036,C2,374.75,183/1000,78,90.0
6037,D2,375.0,0.25,84,90.0
6038,E-4,375.0,0.25,84,90.0
6039,B-3,375.0,133/1000,110,90.0
6040,D5,375.0,133/1000,110,90.0
6041,E-4,375.0,133/1000,110,90.0
6042,G4,375.0,133/1000,110,90.0
6043,G1,375.25,129/500,57,90.0
6044,F#2,375.25,0.25,70,90.0
6045,E-4,375.25,0.25,70,90.0
6046,F#2,375.5,0.25,83,90.0
6047,E-4,375.5,0.25,83,90.0
6048,B-4,375.5,0.25,83,90.0
6049,C3,375.5,73/250,87,90.0
6050,C2,375.5,73/250,87,90.0
6051,C2,375.508,51/125,87,90.0
6052,F#2,375.75,0.25,84,90.0
6053,B-2,375.75,0.25,84,90.0
6054,E-4,375.75,0.25,84,90.0
6055,B-4,375.75,0.25,84,90.0
6056,G#2,376.0,17/20,91,90.0
6057,G4,376.0,24/125,102,90.0
6058,B1,376.0,0.25,83,90.0
6059,F#2,376.0,0.25,83,90.0
6060,E-4,376.0,0.25,83,90.0
6061,G4,376.0,1/10,97,90.0
6062,B-4,376.0,1/10,97,90.0
6063,C4,376.0,1/10,97,90.0
6064,E-4,376.0,1/10,97,90.0
6065,F#2,376.25,0.25,43,90.0
6066,E-4,376.25,0.25,43,90.0
6067,F#2,376.5,0.25,81,90.0
6068,E-4,376.5,0.25,81,90.0
6069,B-4,376.5,0.25,81,90.0
6070,G4,376.5,1/10,99,90.0
6071,B-4,376.5,1/10,99,90.0
6072,C4,376.5,1/10,99,90.0
6073,E-4,376.5,1/10,99,90.0
6074,F#2,376.75,0.25,112,90.0
6075,D4,376.75,0.25,112,90.0
6076,D2,377.0,0.25,70,90.0
6077,E-4,377.0,0.25,70,90.0
6078,G4,377.033,11/40,102,90.0
6079,F#2,377.25,0.25,39,90.0
6080,B-2,377.25,0.25,39,90.0
6081,G#3,377.25,0.25,39,90.0
6082,E-4,377.25,0.25,39,90.0
6083,F#3,377.25,0.25,39,90.0
6084,G4,377.25,117/1000,88,90.0
6085,B-4,377.25,117/1000,88,90.0
6086,C4,377.25,117/1000,88,90.0
6087,E-4,377.25,117/1000,88,90.0
6088,F#2,377.5,0.25,62,90.0
6089,G#3,377.5,0.25,62,90.0
6090,E-4,377.5,0.25,62,90.0
6091,F#3,377.5,0.25,62,90.0
6092,B-4,377.5,0.25,62,90.0
6093,G4,377.517,121/500,98,90.0
6094,G#1,377.75,183/1000,85,90.0
6095,G#2,377.75,77/250,85,90.0
6096,B1,377.75,0.25,67,90.0
6097,F#2,377.75,0.25,67,90.0
6098,E-4,377.75,0.25,67,90.0
6099,A4,377.75,0.25,67,90.0
6100,E-4,377.8,11/5,82,90.0
6101,E-2,378.0,283/1000,80,90.0
6102,B1,378.0,0.25,84,90.0
6103,F#2,378.0,0.25,84,90.0
6104,A4,378.0,0.25,84,90.0
6105,G#1,378.25,79/500,82,90.0
6106,F#2,378.25,0.25,33,90.0
6107,G4,378.25,0.125,103,90.0
6108,B-4,378.25,0.125,103,90.0
6109,C4,378.25,0.125,103,90.0
6110,E-4,378.25,0.125,103,90.0
6111,G2,378.5,171/500,76,90.0
6112,F#2,378.5,0.25,63,90.0
6113,E-4,378.5,0.25,63,90.0
6114,B-4,378.5,0.25,63,90.0
6115,G#2,378.75,26/125,67,90.0
6116,F#2,378.75,0.25,99,90.0
6117,D4,378.75,0.25,99,90.0
6118,G#2,379.0,433/1000,98,90.0
6119,D2,379.0,0.25,71,90.0
6120,F#2,379.0,0.25,71,90.0
6121,E-4,379.0,0.25,71,90.0
6122,G4,379.0,9/20,95,90.0
6123,B-4,379.0,9/20,95,90.0
6124,C4,379.0,9/20,95,90.0
6125,E-4,379.0,9/20,95,90.0
6126,F#2,379.25,0.25,42,90.0
6127,E-4,379.25,0.25,42,90.0
6128,G2,379.5,1/5,87,90.0
6129,G#2,379.5,79/500,78,90.0
6130,F#2,379.5,0.25,106,90.0
6131,E-4,379.5,0.25,106,90.0
6132,B-4,379.5,0.25,106,90.0
6133,G#2,379.75,0.25,89,90.0
6134,F#2,379.75,0.25,80,90.0
6135,E-4,379.75,0.25,80,90.0
6136,B-4,379.75,0.25,80,90.0
6137,G#2,380.0,0.375,89,90.0
6138,E-4,380.0,37/40,82,90.0
6139,B1,380.0,0.25,93,90.0
6140,F#2,380.0,0.25,93,90.0
6141,E-4,380.0,0.25,93,90.0
6142,G4,380.0,4.0,40,90.0
6143,C5,380.0,4.0,40,90.0
6144,F#2,380.25,0.25,43,90.0
6145,E-4,380.25,0.25,43,90.0
6146,F#2,380.5,0.25,59,90.0
6147,E-4,380.5,0.25,59,90.0
6148,B-4,380.5,0.25,59,90.0
6149,F#2,380.75,0.25,112,90.0
6150,D4,380.75,0.25,112,90.0
6151,D2,381.0,0.25,71,90.0
6152,E-4,381.0,0.25,71,90.0
6153,F#2,381.25,0.25,36,90.0
6154,G#3,381.25,0.25,36,90.0
6155,E-4,381.25,0.25,36,90.0
6156,F#3,381.25,0.25,36,90.0
6157,F#2,381.5,0.25,71,90.0
6158,G#3,381.5,0.25,71,90.0
6159,E-4,381.5,0.25,71,90.0
6160,F#3,381.5,0.25,71,90.0
6161,B-4,381.5,0.25,71,90.0
6162,G#1,381.75,13/40,74,90.0
6163,B1,381.75,0.25,67,90.0
6164,F#2,381.75,0.25,67,90.0
6165,E-4,381.75,0.25,67,90.0
6166,A4,381.75,0.25,67,90.0
6167,B-4,381.792,683/1000,98,90.0
6168,B1,382.0,0.25,65,90.0
6169,F#2,382.0,0.25,65,90.0
6170,A4,382.0,0.25,65,90.0
6171,F#2,382.25,0.25,127,90.0
6172,G4,382.25,23/250,97,90.0
6173,B-4,382.25,23/250,97,90.0
6174,C4,382.25,23/250,97,90.0
6175,E-4,382.25,23/250,97,90.0
6176,F#2,382.5,0.25,50,90.0
6177,E-4,382.5,0.25,50,90.0
6178,B-4,382.5,0.25,50,90.0
6179,B-4,382.558,73/250,85,90.0
6180,G#1,382.75,27/250,68,90.0
6181,G#2,382.75,79/500,79,90.0
6182,F#2,382.75,0.25,69,90.0
6183,D4,382.75,0.25,69,90.0
6184,E-2,383.0,171/500,85,90.0
6185,D2,383.0,0.25,84,90.0
6186,E-4,383.0,0.25,84,90.0
6187,G4,383.0,3/40,99,90.0
6188,B-4,383.0,3/40,99,90.0
6189,C4,383.0,3/40,99,90.0
6190,E-4,383.0,3/40,99,90.0
6191,F#4,383.042,3/40,93,90.0
6192,G4,383.1,129/500,100,90.0
6193,B-2,383.25,0.25,52,90.0
6194,E-4,383.25,0.25,52,90.0
6195,G4,383.25,1/10,99,90.0
6196,B-4,383.25,1/10,99,90.0
6197,C4,383.25,1/10,99,90.0
6198,E-4,383.25,1/10,99,90.0
6199,G2,383.5,217/1000,87,90.0
6200,G#2,383.5,71/500,79,90.0
6201,F#2,383.5,0.25,83,90.0
6202,E-4,383.5,0.25,83,90.0
6203,B-4,383.5,0.25,83,90.0
6204,G4,383.55,317/1000,87,90.0
6205,G#2,383.75,1/5,93,90.0
6206,F#2,383.75,0.25,84,90.0
6207,B-2,383.75,0.25,84,90.0
6208,E-4,383.75,0.25,84,90.0
6209,B-4,383.75,0.25,84,90.0
6210,C#2,384.0,9/20,89,90.0
6211,B1,384.0,0.25,70,90.0
6212,F#2,384.0,0.25,70,90.0
6213,E-4,384.0,0.25,70,90.0
6214,B3,384.0,1/10,105,90.0
6215,E-5,384.0,1/10,105,90.0
6216,F4,384.0,1/10,105,90.0
6217,B-4,384.0,1/10,105,90.0
6218,F4,384.0,4.0,40,90.0
6219,B-4,384.0,4.0,40,90.0
6220,F4,384.05,79/20,87,90.0
6221,F#2,384.25,0.25,43,90.0
6222,E-4,384.25,0.25,43,90.0
6223,B3,384.25,23/250,74,90.0
6224,E-5,384.25,23/250,74,90.0
6225,F4,384.25,23/250,74,90.0
6226,B-4,384.25,23/250,74,90.0
6227,F#2,384.5,0.25,81,90.0
6228,E-4,384.5,0.25,81,90.0
6229,B-4,384.5,0.25,81,90.0
6230,C#2,384.5,217/1000,86,90.0
6231,C#3,384.5,217/1000,86,90.0
6232,F#2,384.75,0.25,108,90.0
6233,D4,384.75,0.25,108,90.0
6234,D2,385.0,0.25,71,90.0
6235,E-4,385.0,0.25,71,90.0
6236,F#2,385.25,0.25,36,90.0
6237,G#3,385.25,0.25,36,90.0
6238,E-4,385.25,0.25,36,90.0
6239,F#3,385.25,0.25,36,90.0
6240,B3,385.25,117/1000,89,90.0
6241,E-5,385.25,117/1000,89,90.0
6242,F4,385.25,117/1000,89,90.0
6243,B-4,385.25,117/1000,89,90.0
6244,F#2,385.5,0.25,62,90.0
6245,G#3,385.5,0.25,62,90.0
6246,E-4,385.5,0.25,62,90.0
6247,F#3,385.5,0.25,62,90.0
6248,B-4,385.5,0.25,62,90.0
6249,C#2,385.75,1.0,85,90.0
6250,B1,385.75,0.25,75,90.0
6251,F#2,385.75,0.25,75,90.0
6252,E-4,385.75,0.25,75,90.0
6253,A4,385.75,0.25,75,90.0
6254,C#2,385.75,9/40,100,90.0
6255,C#3,385.75,9/40,100,90.0
6256,B1,386.0,0.25,81,90.0
6257,F#2,386.0,0.25,81,90.0
6258,A4,386.0,0.25,81,90.0
6259,F#2,386.25,0.25,33,90.0
6260,B3,386.25,23/250,80,90.0
6261,E-5,386.25,23/250,80,90.0
6262,F4,386.25,23/250,80,90.0
6263,B-4,386.25,23/250,80,90.0
6264,F#2,386.5,0.25,63,90.0
6265,E-4,386.5,0.25,63,90.0
6266,B-4,386.5,0.25,63,90.0
6267,G#1,386.75,1/5,80,90.0
6268,F#2,386.75,0.25,102,90.0
6269,D4,386.75,0.25,102,90.0
6270,C#3,386.75,71/500,82,90.0
6271,C#2,386.75,71/500,82,90.0
6272,B1,387.0,229/500,91,90.0
6273,D2,387.0,0.25,84,90.0
6274,E-4,387.0,0.25,84,90.0
6275,B3,387.0,121/500,82,90.0
6276,E-5,387.0,121/500,82,90.0
6277,F4,387.0,121/500,82,90.0
6278,B-4,387.0,121/500,82,90.0
6279,F#2,387.25,0.25,42,90.0
6280,E-4,387.25,0.25,42,90.0
6281,C#2,387.5,179/500,95,90.0
6282,F#2,387.5,0.25,100,90.0
6283,E-4,387.5,0.25,100,90.0
6284,B-4,387.5,0.25,100,90.0
6285,B3,387.5,71/500,80,90.0
6286,E-5,387.5,71/500,80,90.0
6287,F4,387.5,71/500,80,90.0
6288,B-4,387.5,71/500,80,90.0
6289,F#2,387.75,0.25,80,90.0
6290,E-4,387.75,0.25,80,90.0
6291,B-4,387.75,0.25,80,90.0
6292,C2,388.0,483/1000,98,90.0
6293,F4,388.0,1/125,87,90.0
6294,B1,388.0,0.25,82,90.0
6295,F#2,388.0,0.25,82,90.0
6296,E4,388.0,267/1000,87,90.0
6297,B-3,388.0,267/1000,87,90.0
6298,E-4,388.0,4.0,40,90.0
6299,G#4,388.0,4.0,40,90.0
6300,E-4,388.042,129/500,82,90.0
6301,F#2,388.25,0.25,31,90.0
6302,C4,388.342,26/125,76,90.0
6303,F#2,388.5,0.25,108,90.0
6304,B-3,388.5,267/1000,92,90.0
6305,E4,388.5,267/1000,92,90.0
6306,F#2,388.75,0.25,118,90.0
6307,C4,388.808,51/20,78,90.0
6308,D2,389.0,0.25,96,90.0
6309,G#3,389.0,0.25,96,90.0
6310,F#2,389.25,0.25,46,90.0
6311,D4,389.25,0.25,46,90.0
6312,A4,389.25,0.25,46,90.0
6313,E4,389.25,133/1000,91,90.0
6314,B-3,389.25,133/1000,91,90.0
6315,F#2,389.5,0.25,70,90.0
6316,A4,389.5,0.25,70,90.0
6317,C2,389.75,933/1000,89,90.0
6318,D2,389.75,0.25,65,90.0
6319,F#2,389.75,0.25,65,90.0
6320,G#3,389.75,0.25,65,90.0
6321,E-4,389.75,0.25,65,90.0
6322,F#3,389.75,0.25,65,90.0
6323,B1,390.0,0.25,80,90.0
6324,F#2,390.0,0.25,80,90.0
6325,G#3,390.0,0.25,80,90.0
6326,F#3,390.0,0.25,80,90.0
6327,D2,390.25,0.25,51,90.0
6328,F#2,390.25,0.25,51,90.0
6329,E-4,390.25,0.25,51,90.0
6330,B-4,390.25,0.25,51,90.0
6331,C2,390.25,7/40,92,90.0
6332,C3,390.25,7/40,92,90.0
6333,D2,390.5,0.25,115,90.0
6334,B-2,390.5,0.25,115,90.0
6335,B-4,390.5,0.25,115,90.0
6336,C1,390.75,3/20,74,90.0
6337,C3,390.75,117/1000,86,90.0
6338,C2,390.75,117/1000,86,90.0
6339,C2,391.0,49/125,85,90.0
6340,G#3,391.0,0.25,80,90.0
6341,E4,391.0,13/40,91,90.0
6342,B-3,391.0,13/40,91,90.0
6343,A2,391.25,0.25,112,90.0
6344,F2,391.5,0.25,124,90.0
6345,E4,391.5,0.375,89,90.0
6346,B-3,391.5,3/10,87,90.0
6347,C4,391.808,3/20,51,90.0
6348,F2,392.0,221/500,99,90.0
6349,G#3,392.0,7/5,59,90.0
6350,F3,392.0,2.0,42,90.0
6351,B1,392.0,0.25,82,90.0
6352,F#2,392.0,0.25,82,90.0
6353,E-4,392.0,4.0,86,90.0
6354,G4,392.0,4.0,86,90.0
6355,G#3,392.0,4.0,86,90.0
6356,C4,392.0,4.0,86,90.0
6357,E-4,392.0,4.0,40,90.0
6358,B-4,392.0,4.0,40,90.0
6359,E-4,392.033,11/40,89,90.0
6360,F#2,392.25,0.25,31,90.0
6361,E-2,392.5,0.25,81,90.0
6362,F#2,392.5,0.25,108,90.0
6363,E-4,392.517,9/40,89,90.0
6364,F2,392.75,0.125,93,90.0
6365,F#2,392.75,0.25,118,90.0
6366,C4,392.75,933/1000,76,90.0
6367,E-4,392.75,1.875,70,90.0
6368,D2,393.0,0.25,96,90.0
6369,G#3,393.0,0.25,96,90.0
6370,E-4,393.042,333/1000,100,90.0
6371,F#2,393.25,0.25,33,90.0
6372,C4,393.492,26/125,60,90.0
6373,F#2,393.5,0.25,84,90.0
6374,F#2,393.75,0.25,71,90.0
6375,G#3,393.75,583/1000,68,90.0
6376,C4,393.75,31/40,91,90.0
6377,G4,393.825,121/500,95,90.0
6378,B1,394.0,0.25,98,90.0
6379,F#2,394.0,0.25,98,90.0
6380,F#2,394.25,0.25,33,90.0
6381,F3,394.25,817/1000,78,90.0
6382,F#2,394.5,0.25,76,90.0
6383,G#3,394.5,99/125,58,90.0
6384,C2,394.75,0.25,73,90.0
6385,F#2,394.75,0.25,105,90.0
6386,E-4,394.75,1.25,87,90.0
6387,C4,394.75,767/1000,76,90.0
6388,E-2,395.0,127/250,78,90.0
6389,D2,395.0,0.25,96,90.0
6390,G#3,395.0,0.25,96,90.0
6391,F#2,395.25,0.25,33,90.0
6392,F3,395.25,467/1000,74,90.0
6393,F#2,395.5,0.25,108,90.0
6394,G#3,395.5,0.5,66,90.0
6395,A1,395.508,2/5,88,90.0
6396,F#2,395.75,0.25,93,90.0
6397,C4,395.75,0.25,72,90.0
6398,C4,395.792,117/1000,87,90.0
6399,B-1,396.0,0.5,88,90.0
6400,G#3,396.0,521/500,68,90.0
6401,B1,396.0,0.25,67,90.0
6402,F#2,396.0,0.25,67,90.0
6403,F4,396.0,4.0,78,90.0
6404,C4,396.0,4.0,78,90.0
6405,E-4,396.0,4.0,78,90.0
6406,G#3,396.0,4.0,78,90.0
6407,G4,396.0,4.0,40,90.0
6408,C5,396.0,4.0,40,90.0
6409,E-4,396.042,129/500,100,90.0
6410,F#2,396.25,0.25,51,90.0
6411,G#1,396.5,317/1000,69,90.0
6412,F#2,396.5,0.25,92,90.0
6413,E-4,396.5,833/1000,58,90.0
6414,E-4,396.525,129/500,95,90.0
6415,B-2,396.75,0.25,90,90.0
6416,F4,396.75,0.625,76,90.0
6417,B-1,396.817,3/20,93,90.0
6418,D2,397.0,0.25,80,90.0
6419,F#2,397.0,0.25,80,90.0
6420,G#3,397.0,0.25,80,90.0
6421,E-4,397.05,283/1000,107,90.0
6422,F#2,397.25,0.25,42,90.0
6423,G#3,397.25,99/125,62,90.0
6424,F#2,397.5,0.25,93,90.0
6425,E-4,397.5,833/1000,41,90.0
6426,F4,397.5,9/40,78,90.0
6427,C5,397.75,2.25,87,90.0
6428,F#2,397.75,0.25,102,90.0
6429,B-2,397.75,0.25,102,90.0
6430,G4,397.775,3/10,98,90.0
6431,B1,398.0,0.25,92,90.0
6432,F#2,398.0,0.25,92,90.0
6433,F#2,398.25,0.25,33,90.0
6434,G#3,398.25,833/1000,60,90.0
6435,F#2,398.5,0.25,79,90.0
6436,E-4,398.5,421/500,59,90.0
6437,F1,398.75,77/250,57,90.0
6438,F#2,398.75,0.25,127,90.0
6439,F4,398.75,3/5,80,90.0
6440,G#1,399.0,221/500,87,90.0
6441,D2,399.0,0.25,90,90.0
6442,G#3,399.0,0.25,90,90.0
6443,F#2,399.25,0.25,42,90.0
6444,G#3,399.25,76/125,59,90.0
6445,C4,399.258,24/125,72,90.0
6446,E2,399.5,0.5,52,90.0
6447,F#2,399.5,0.25,81,90.0
6448,E-4,399.5,0.5,57,90.0
6449,D4,399.525,183/1000,98,90.0
6450,F#2,399.75,0.25,127,90.0
6451,F4,399.75,0.25,66,90.0
6452,E-4,399.767,183/1000,95,90.0
6453,E-2,400.0,0.5,90,90.0
6454,E-3,400.0,273/250,66,90.0
6455,B1,400.0,0.25,82,90.0
6456,F#2,400.0,0.25,82,90.0
6457,D4,400.0,4.0,86,90.0
6458,F4,400.0,4.0,86,90.0
6459,G3,400.0,4.0,86,90.0
6460,B-4,400.0,4.0,86,90.0
6461,C#4,400.05,0.125,87,90.0
6462,D4,400.158,3/10,87,90.0
6463,F#2,400.25,0.25,31,90.0
6464,G3,400.25,277/250,53,90.0
6465,D2,400.5,3/10,76,90.0
6466,F#2,400.5,0.25,108,90.0
6467,B-3,400.5,1017/1000,59,90.0
6468,B-3,400.517,9/40,87,90.0
6469,F#2,400.75,0.25,118,90.0
6470,D4,400.75,27/10,70,90.0
6471,E-2,400.8,0.125,103,90.0
6472,D2,401.0,0.25,96,90.0
6473,G#3,401.0,0.25,96,90.0
6474,B-3,401.017,123/250,100,90.0
6475,F#2,401.25,0.25,33,90.0
6476,E-3,401.25,833/1000,57,90.0
6477,G3,401.492,121/500,61,90.0
6478,F#2,401.5,0.25,84,90.0
6479,G3,401.5,817/1000,53,90.0
6480,F#2,401.75,0.25,71,90.0
6481,B-3,401.75,13/20,68,90.0
6482,B-3,401.767,883/1000,76,90.0
6483,B1,402.0,0.25,98,90.0
6484,F#2,402.0,0.25,98,90.0
6485,F#2,402.25,0.25,33,90.0
6486,E-3,402.25,31/40,68,90.0
6487,F#2,402.5,0.25,76,90.0
6488,G3,402.5,101/125,47,90.0
6489,D4,402.55,0.25,80,90.0
6490,B-1,402.75,0.25,68,90.0
6491,F#2,402.75,0.25,105,90.0
6492,B-3,402.75,321/500,70,90.0
6493,D2,403.0,2/5,84,90.0
6494,D2,403.0,0.25,96,90.0
6495,G#3,403.0,0.25,96,90.0
6496,B-3,403.042,21/40,80,90.0
6497,F#2,403.25,0.25,33,90.0
6498,E-3,403.25,533/1000,68,90.0
6499,B-1,403.5,0.5,64,90.0
6500,F#2,403.5,0.25,108,90.0
6501,G3,403.5,0.5,53,90.0
6502,D4,403.5,171/500,10,90.0
6503,D4,403.55,26/125,85,90.0
6504,F#2,403.75,0.25,93,90.0
6505,B-3,403.75,0.25,53,90.0
6506,C#2,404.0,33/20,87,90.0
6507,B1,404.0,0.25,68,90.0
6508,F#2,404.0,0.25,68,90.0
6509,B3,404.0,2.0,86,90.0
6510,E-4,404.0,2.0,86,90.0
6511,F3,404.0,2.0,86,90.0
6512,G#3,404.0,2.0,86,90.0
6513,G4,404.0,4.0,40,90.0
6514,C5,404.0,4.0,40,90.0
6515,F#2,404.25,0.25,48,90.0
6516,G#3,404.25,933/1000,48,90.0
6517,F#2,404.5,0.25,99,90.0
6518,B3,404.5,37/40,63,90.0
6519,F#2,404.75,0.25,122,90.0
6520,E-4,404.75,633/1000,74,90.0
6521,D2,405.0,0.25,96,90.0
6522,G#3,405.0,0.25,96,90.0
6523,F#2,405.25,0.25,50,90.0
6524,G#3,405.25,0.75,46,90.0
6525,F#2,405.5,0.25,84,90.0
6526,F4,405.5,0.5,85,90.0
6527,C#2,405.75,0.25,85,90.0
6528,F#2,405.75,0.25,113,90.0
6529,C2,406.0,0.625,82,90.0
6530,B1,406.0,0.25,98,90.0
6531,F#2,406.0,0.25,98,90.0
6532,B-3,406.0,2.0,86,90.0
6533,C#4,406.0,2.0,86,90.0
6534,E3,406.0,2.0,86,90.0
6535,G#4,406.0,2.0,86,90.0
6536,F#2,406.25,0.25,33,90.0
6537,G3,406.25,377/250,60,90.0
6538,B-4,406.25,1.75,10,90.0
6539,F#2,406.5,0.25,76,90.0
6540,B-3,406.5,47/40,40,90.0
6541,C2,406.75,0.875,89,90.0
6542,B-2,406.75,0.25,98,90.0
6543,C#4,406.75,37/40,74,90.0
6544,D2,407.0,0.25,70,90.0
6545,F#2,407.0,0.25,70,90.0
6546,G#3,407.0,0.25,70,90.0
6547,F#2,407.25,0.25,33,90.0
6548,B-2,407.5,0.25,119,90.0
6549,C2,407.75,23/250,48,90.0
6550,F2,408.0,221/500,99,90.0
6551,G#3,408.0,7/5,59,90.0
6552,F3,408.0,2.0,42,90.0
6553,B1,408.0,0.25,82,90.0
6554,F#2,408.0,0.25,82,90.0
6555,F4,408.0,4.0,78,90.0
6556,C4,408.0,4.0,78,90.0
6557,E-4,408.0,4.0,78,90.0
6558,G#3,408.0,4.0,78,90.0
6559,F4,408.0,4.0,40,90.0
6560,B4,408.0,4.0,40,90.0
6561,F#2,408.25,0.25,31,90.0
6562,E-2,408.5,0.25,81,90.0
6563,F#2,408.5,0.25,108,90.0
6564,F2,408.75,0.125,93,90.0
6565,F#2,408.75,0.25,118,90.0
6566,C4,408.75,933/1000,76,90.0
6567,E-4,408.75,1.875,70,90.0
6568,D2,409.0,0.25,96,90.0
6569,G#3,409.0,0.25,96,90.0
6570,E-4,409.033,267/1000,107,90.0
6571,F#2,409.25,0.25,33,90.0
6572,F#2,409.5,0.25,84,90.0
6573,F4,409.542,11/40,89,90.0
6574,F#2,409.75,0.25,71,90.0
6575,G#3,409.75,583/1000,68,90.0
6576,C4,409.75,31/40,91,90.0
6577,B1,410.0,0.25,98,90.0
6578,F#2,410.0,0.25,98,90.0
6579,G4,410.05,129/500,102,90.0
6580,F#2,410.25,0.25,33,90.0
6581,F3,410.25,817/1000,78,90.0
6582,F#2,410.5,0.25,76,90.0
6583,G#3,410.5,99/125,58,90.0
6584,F4,410.517,129/500,87,90.0
6585,C2,410.75,0.25,73,90.0
6586,F#2,410.75,0.25,105,90.0
6587,E-4,410.75,1.25,87,90.0
6588,C4,410.75,767/1000,76,90.0
6589,E-4,410.833,1167/1000,87,90.0
6590,E-2,411.0,127/250,78,90.0
6591,D2,411.0,0.25,96,90.0
6592,G#3,411.0,0.25,96,90.0
6593,F#2,411.25,0.25,33,90.0
6594,F3,411.25,467/1000,74,90.0
6595,F#2,411.5,0.25,108,90.0
6596,G#3,411.5,0.5,66,90.0
6597,A1,411.508,2/5,88,90.0
6598,F#2,411.75,0.25,93,90.0
6599,C4,411.75,0.25,72,90.0
6600,B-1,412.0,0.5,88,90.0
6601,F3,412.0,273/250,66,90.0
6602,E-4,412.0,517/1000,87,90.0
6603,B1,412.0,0.25,58,90.0
6604,F#2,412.0,0.25,58,90.0
6605,B-4,412.0,0.25,58,90.0
6606,A4,412.0,0.25,58,90.0
6607,F4,412.0,4.0,78,90.0
6608,C4,412.0,4.0,78,90.0
6609,E-4,412.0,4.0,78,90.0
6610,G#3,412.0,4.0,78,90.0
6611,E4,412.0,4.0,40,90.0
6612,B-4,412.0,4.0,40,90.0
6613,F#2,412.25,0.25,31,90.0
6614,G#3,412.25,277/250,53,90.0
6615,G#1,412.5,317/1000,69,90.0
6616,F#2,412.5,0.25,108,90.0
6617,C4,412.5,1017/1000,59,90.0
6618,E-4,412.75,27/10,70,90.0
6619,F#2,412.75,0.25,70,90.0
6620,B-4,412.75,0.25,70,90.0
6621,A4,412.75,0.25,70,90.0
6622,B-1,412.817,3/20,93,90.0
6623,D2,413.0,0.25,75,90.0
6624,G#3,413.0,0.25,75,90.0
6625,B-4,413.0,0.25,75,90.0
6626,A4,413.0,0.25,75,90.0
6627,E-4,413.058,267/1000,105,90.0
6628,F3,413.25,833/1000,57,90.0
6629,B1,413.25,0.25,58,90.0
6630,B-2,413.25,0.25,58,90.0
6631,D4,413.25,0.25,58,90.0
6632,G#3,413.5,817/1000,53,90.0
6633,F#2,413.5,0.25,69,90.0
6634,E-4,413.5,0.25,69,90.0
6635,F4,413.533,129/500,87,90.0
6636,C4,413.75,13/20,68,90.0
6637,B1,413.75,0.25,93,90.0
6638,B-2,413.75,0.25,93,90.0
6639,D4,413.75,0.25,93,90.0
6640,A4,413.75,0.25,93,90.0
6641,F#2,414.0,0.25,93,90.0
6642,G4,414.0,121/500,100,90.0
6643,F3,414.25,31/40,68,90.0
6644,F#2,414.25,0.25,34,90.0
6645,G#3,414.25,0.25,34,90.0
6646,F#3,414.25,0.25,34,90.0
6647,A4,414.25,0.25,34,90.0
6648,G#3,414.5,101/125,47,90.0
6649,F#2,414.5,0.25,62,90.0
6650,G#3,414.5,0.25,62,90.0
6651,F#3,414.5,0.25,62,90.0
6652,B-4,414.5,0.25,62,90.0
6653,F4,414.517,233/1000,95,90.0
6654,F1,414.75,77/250,57,90.0
6655,C4,414.75,321/500,70,90.0
6656,A2,414.75,0.25,68,90.0
6657,D4,414.75,0.25,68,90.0
6658,G#1,415.0,221/500,87,90.0
6659,B-2,415.0,0.25,68,90.0
6660,A2,415.0,0.25,68,90.0
6661,E-4,415.008,317/1000,100,90.0
6662,A4,415.25,0.25,23,90.0
6663,F3,415.25,533/1000,68,90.0
6664,F#2,415.5,0.5,52,90.0
6665,G#3,415.5,0.5,53,90.0
6666,E-4,415.5,171/500,10,90.0
6667,F2,415.5,0.25,73,90.0
6668,E-4,415.5,0.25,73,90.0
6669,D4,415.5,0.25,73,90.0
6670,B-4,415.5,0.25,73,90.0
6671,A4,415.5,0.25,73,90.0
6672,C4,415.533,467/1000,89,90.0
6673,E-4,415.75,0.25,92,90.0
6674,C4,415.75,0.25,53,90.0
6675,E-2,416.0,1/5,108,90.0
6676,C4,416.0,33/1000,89,90.0
6677,B1,416.0,0.25,82,90.0
6678,F#2,416.0,0.25,82,90.0
6679,D4,416.0,0.125,81,90.0
6680,F4,416.0,0.125,81,90.0
6681,G3,416.0,0.125,81,90.0
6682,B-4,416.0,0.125,81,90.0
6683,D4,416.0,0.125,81,90.0
6684,F4,416.0,0.125,81,90.0
6685,G3,416.0,0.125,81,90.0
6686,B-4,416.0,0.125,81,90.0
6687,D4,416.117,1879/500,85,90.0
6688,F#2,416.25,0.25,31,90.0
6689,E-2,416.5,3/20,105,90.0
6690,F#2,416.5,0.25,108,90.0
6691,D4,416.5,3/20,79,90.0
6692,F4,416.5,3/20,79,90.0
6693,G3,416.5,3/20,79,90.0
6694,B-4,416.5,3/20,79,90.0
6695,D4,416.5,3/20,79,90.0
6696,F4,416.5,3/20,79,90.0
6697,G3,416.5,3/20,79,90.0
6698,B-4,416.5,3/20,79,90.0
6699,F#2,416.75,0.25,118,90.0
6700,D2,417.0,0.25,96,90.0
6701,G#3,417.0,0.25,96,90.0
6702,B-2,417.25,117/1000,95,90.0
6703,F#2,417.25,0.25,33,90.0
6704,D4,417.25,27/250,85,90.0
6705,F4,417.25,27/250,85,90.0
6706,G3,417.25,27/250,85,90.0
6707,B-4,417.25,27/250,85,90.0
6708,D4,417.25,27/250,85,90.0
6709,F4,417.25,27/250,85,90.0
6710,G3,417.25,27/250,85,90.0
6711,B-4,417.25,27/250,85,90.0
6712,F#2,417.5,0.25,84,90.0
6713,E-3,417.75,117/1000,103,90.0
6714,F#2,417.75,0.25,71,90.0
6715,D4,417.75,249/125,93,90.0
6716,F4,417.75,249/125,93,90.0
6717,G3,417.75,249/125,93,90.0
6718,B-4,417.75,249/125,93,90.0
6719,D4,417.75,249/125,93,90.0
6720,F4,417.75,249/125,93,90.0
6721,G3,417.75,249/125,93,90.0
6722,B-4,417.75,249/125,93,90.0
6723,B1,418.0,0.25,98,90.0
6724,F#2,418.0,0.25,98,90.0
6725,F#2,418.25,0.25,33,90.0
6726,F#2,418.5,0.25,76,90.0
6727,B-1,418.75,167/1000,79,90.0
6728,F#2,418.75,0.25,105,90.0
6729,D2,419.0,123/250,99,90.0
6730,D2,419.0,0.25,96,90.0
6731,G#3,419.0,0.25,96,90.0
6732,F#2,419.25,0.25,33,90.0
6733,D2,419.5,333/1000,85,90.0
6734,F#2,419.5,0.25,108,90.0
6735,F#2,419.75,0.25,93,90.0
6736,E-4,419.875,0.125,82,90.0
6737,E-2,420.0,3/20,118,90.0
6738,E-4,420.0,67/1000,82,90.0
6739,B1,420.0,0.25,99,90.0
6740,D2,420.0,0.25,99,90.0
6741,F#2,420.0,0.25,99,90.0
6742,E-4,420.0,0.25,99,90.0
6743,D4,420.0,0.25,99,90.0
6744,B-4,420.0,0.25,99,90.0
6745,D4,420.0,23/250,113,90.0
6746,F4,420.0,23/250,113,90.0
6747,G3,420.0,23/250,113,90.0
6748,B-4,420.0,23/250,113,90.0
6749,D4,420.0,23/250,113,90.0
6750,F4,420.0,23/250,113,90.0
6751,G3,420.0,23/250,113,90.0
6752,B-4,420.0,23/250,113,90.0
6753,D4,420.067,183/1000,87,90.0
6754,G3,440.0,4.0,43,90.0
6755,D4,440.0,4.0,43,90.0
6756,G3,444.192,24/125,43,90.0
6757,D4,444.192,24/125,43,90.0
