,note_name,start_time,duration,velocity,tempo
0,E4,3.0,1.0,95,110.0
1,C5,4.0,1.5,95,110.0
2,A2,4.0,0.5,95,110.0
3,E4,4.5,0.5,95,110.0
4,C4,4.5,0.5,95,110.0
5,E4,5.5,0.5,95,110.0
6,C4,5.5,0.5,95,110.0
7,B4,6.0,1.0,95,110.0
8,E2,6.0,0.5,95,110.0
9,E4,6.5,0.5,95,110.0
10,C4,6.5,0.5,95,110.0
11,A4,7.0,1.0,95,110.0
12,A2,7.0,0.5,95,110.0
13,E4,7.5,0.5,95,110.0
14,C4,7.5,0.5,95,110.0
15,A4,8.0,1.5,95,110.0
16,F3,8.0,0.5,95,110.0
17,D4,8.5,0.5,95,110.0
18,B3,8.5,0.5,95,110.0
19,D4,9.5,0.5,95,110.0
20,B3,9.5,0.5,95,110.0
21,G#4,10.0,1.0,95,110.0
22,E3,10.0,0.5,95,110.0
23,D4,10.5,0.5,95,110.0
24,B3,10.5,0.5,95,110.0
25,B4,11.0,1.0,95,110.0
26,D3,11.0,0.5,95,110.0
27,D4,11.5,0.5,95,110.0
28,B3,11.5,0.5,95,110.0
29,E4,12.0,1.5,95,110.0
30,A2,12.0,0.5,95,110.0
31,C4,12.5,0.5,95,110.0
32,A3,12.5,0.5,95,110.0
33,C4,13.5,0.5,95,110.0
34,A3,13.5,0.5,95,110.0
35,E2,14.0,0.5,95,110.0
36,C4,14.5,0.5,95,110.0
37,A3,14.5,0.5,95,110.0
38,A2,15.0,0.5,95,110.0
39,C4,15.5,0.5,95,110.0
40,A3,15.5,0.5,95,110.0
41,B2,16.0,0.5,95,110.0
42,D4,16.5,0.5,95,110.0
43,A3,16.5,0.5,95,110.0
44,D4,17.5,0.5,95,110.0
45,A3,17.5,0.5,95,110.0
46,B-2,18.0,0.5,95,110.0
47,C4,18.5,0.5,95,110.0
48,G#3,18.5,0.5,95,110.0
49,E4,19.0,1.0,95,110.0
50,E2,19.0,1.0,95,110.0
51,C5,20.0,1.5,95,110.0
52,A2,20.0,0.5,95,110.0
53,E4,20.5,0.5,95,110.0
54,C4,20.5,0.5,95,110.0
55,E4,21.5,0.5,95,110.0
56,C4,21.5,0.5,95,110.0
57,B4,22.0,1.0,95,110.0
58,E2,22.0,0.5,95,110.0
59,E4,22.5,0.5,95,110.0
60,C4,22.5,0.5,95,110.0
61,A4,23.0,1.0,95,110.0
62,A2,23.0,0.5,95,110.0
63,E4,23.5,0.5,95,110.0
64,C4,23.5,0.5,95,110.0
65,A4,24.0,0.5,95,110.0
66,D3,24.0,0.5,95,110.0
67,F4,24.5,0.5,95,110.0
68,C4,24.5,0.5,95,110.0
69,F4,25.5,0.5,95,110.0
70,C4,25.5,0.5,95,110.0
71,G4,26.0,1.0,95,110.0
72,G3,26.0,0.5,95,110.0
73,F4,26.5,0.5,95,110.0
74,B3,26.5,0.5,95,110.0
75,B4,27.0,1.0,95,110.0
76,F4,27.5,0.5,95,110.0
77,B3,27.5,0.5,95,110.0
78,E4,28.0,1.5,95,110.0
79,C3,28.0,0.5,95,110.0
80,B3,28.5,0.5,95,110.0
81,G3,28.5,0.5,95,110.0
82,B3,29.5,0.5,95,110.0
83,G3,29.5,0.5,95,110.0
84,B3,30.0,1.0,95,110.0
85,E3,30.0,0.5,95,110.0
86,C3,30.0,0.5,95,110.0
87,G3,30.5,0.5,95,110.0
88,C4,31.0,1.0,95,110.0
89,E3,31.0,0.5,95,110.0
90,G3,31.5,0.5,95,110.0
91,E4,32.0,0.5,95,110.0
92,C#3,32.5,0.5,95,110.0
93,G3,33.0,0.5,95,110.0
94,B-3,33.5,0.5,95,110.0
95,E4,34.0,667/1000,95,110.0
96,C#4,34.0,2.0,95,110.0
97,G3,34.0,2.0,95,110.0
98,A2,34.0,2.0,95,110.0
99,F4,34.667,667/1000,95,110.0
100,G4,35.333,667/1000,95,110.0
101,A4,36.0,1.5,95,110.0
102,D3,36.0,0.5,95,110.0
103,F4,36.5,0.5,95,110.0
104,C4,36.5,0.5,95,110.0
105,D4,37.5,0.5,95,110.0
106,C3,38.0,0.5,95,110.0
107,F3,38.5,0.5,95,110.0
108,A3,39.0,0.5,95,110.0
109,D4,39.5,0.5,95,110.0
110,B2,40.0,0.5,95,110.0
111,F3,40.5,0.5,95,110.0
112,G3,41.0,0.5,95,110.0
113,B3,41.5,0.5,95,110.0
114,D4,42.0,667/1000,95,110.0
115,G2,42.0,667/1000,95,110.0
116,E4,42.667,667/1000,95,110.0
117,F4,43.333,667/1000,95,110.0
118,G4,44.0,1.5,95,110.0
119,E2,44.0,0.5,95,110.0
120,C4,44.5,0.5,95,110.0
121,A3,44.5,0.5,95,110.0
122,G3,45.5,0.5,95,110.0
123,C3,46.0,0.5,95,110.0
124,E3,46.5,0.5,95,110.0
125,G3,47.0,0.5,95,110.0
126,B3,47.5,0.5,95,110.0
127,F2,48.0,0.5,95,110.0
128,E3,48.5,0.5,95,110.0
129,A3,49.0,0.5,95,110.0
130,C4,49.5,0.5,95,110.0
131,C4,50.0,667/1000,95,110.0
132,A3,50.0,667/1000,95,110.0
133,F3,50.0,667/1000,95,110.0
134,D4,50.667,667/1000,95,110.0
135,E4,51.333,667/1000,95,110.0
136,F4,52.0,1.5,95,110.0
137,B2,52.0,0.5,95,110.0
138,D4,52.5,0.5,95,110.0
139,A3,52.5,0.5,95,110.0
140,B3,53.5,0.5,95,110.0
141,F2,54.0,0.5,95,110.0
142,D3,54.5,0.5,95,110.0
143,A3,55.0,0.5,95,110.0
144,B3,55.5,0.5,95,110.0
145,E2,56.0,0.5,95,110.0
146,D3,56.5,0.5,95,110.0
147,G#3,57.0,0.5,95,110.0
148,E4,57.5,0.5,95,110.0
149,B3,58.0,667/1000,95,110.0
150,E3,58.0,667/1000,95,110.0
151,C4,58.667,667/1000,95,110.0
152,D4,59.333,667/1000,95,110.0
153,E4,60.0,1.5,95,110.0
154,A2,60.0,0.5,95,110.0
155,C4,60.5,0.5,95,110.0
156,A3,60.5,0.5,95,110.0
157,C4,61.5,0.5,95,110.0
158,A3,61.5,0.5,95,110.0
159,E2,62.0,0.5,95,110.0
160,C4,62.5,0.5,95,110.0
161,A3,62.5,0.5,95,110.0
162,A2,63.0,0.5,95,110.0
163,C4,63.5,0.5,95,110.0
164,A3,63.5,0.5,95,110.0
165,B2,64.0,0.5,95,110.0
166,D4,64.5,0.5,95,110.0
167,A3,64.5,0.5,95,110.0
168,D4,65.5,0.5,95,110.0
169,A3,65.5,0.5,95,110.0
170,B-2,66.0,0.5,95,110.0
171,C4,66.5,0.5,95,110.0
172,G#3,66.5,0.5,95,110.0
173,E4,67.0,1.0,95,110.0
174,C5,68.0,1.5,95,110.0
175,A2,68.0,0.5,95,110.0
176,E4,68.5,0.5,95,110.0
177,C4,68.5,0.5,95,110.0
178,E4,69.5,0.5,95,110.0
179,C4,69.5,0.5,95,110.0
180,B4,70.0,1.0,95,110.0
181,E2,70.0,0.5,95,110.0
182,E4,70.5,0.5,95,110.0
183,C4,70.5,0.5,95,110.0
184,A4,71.0,1.0,95,110.0
185,A2,71.0,0.5,95,110.0
186,E4,71.5,0.5,95,110.0
187,C4,71.5,0.5,95,110.0
188,A4,72.0,1.5,95,110.0
189,F3,72.0,0.5,95,110.0
190,D4,72.5,0.5,95,110.0
191,B3,72.5,0.5,95,110.0
192,D4,73.5,0.5,95,110.0
193,B3,73.5,0.5,95,110.0
194,G#4,74.0,1.0,95,110.0
195,E3,74.0,0.5,95,110.0
196,D4,74.5,0.5,95,110.0
197,B3,74.5,0.5,95,110.0
198,B4,75.0,1.0,95,110.0
199,D3,75.0,0.5,95,110.0
200,D4,75.5,0.5,95,110.0
201,B3,75.5,0.5,95,110.0
202,E4,76.0,1.5,95,110.0
203,A2,76.0,0.5,95,110.0
204,C4,76.5,0.5,95,110.0
205,A3,76.5,0.5,95,110.0
206,C4,77.5,0.5,95,110.0
207,A3,77.5,0.5,95,110.0
208,E2,78.0,0.5,95,110.0
209,C4,78.5,0.5,95,110.0
210,A3,78.5,0.5,95,110.0
211,A2,79.0,0.5,95,110.0
212,C4,79.5,0.5,95,110.0
213,A3,79.5,0.5,95,110.0
214,B2,80.0,0.5,95,110.0
215,D4,80.5,0.5,95,110.0
216,A3,80.5,0.5,95,110.0
217,D4,81.5,0.5,95,110.0
218,A3,81.5,0.5,95,110.0
219,B-2,82.0,0.5,95,110.0
220,C4,82.5,0.5,95,110.0
221,G#3,82.5,0.5,95,110.0
222,E4,83.0,1.0,95,110.0
223,C4,83.5,0.5,95,110.0
224,G#3,83.5,0.5,95,110.0
225,B-4,84.0,1.5,95,110.0
226,G3,84.0,0.5,95,110.0
227,E4,84.5,0.5,95,110.0
228,D4,84.5,0.5,95,110.0
229,E4,85.5,0.5,95,110.0
230,D4,85.5,0.5,95,110.0
231,A4,86.0,1.0,95,110.0
232,E2,86.0,0.5,95,110.0
233,D4,86.5,0.5,95,110.0
234,B-3,86.5,0.5,95,110.0
235,G4,87.0,1.0,95,110.0
236,D4,87.5,0.5,95,110.0
237,B-3,87.5,0.5,95,110.0
238,G4,88.0,1.5,95,110.0
239,A2,88.0,0.5,95,110.0
240,C#4,88.5,0.5,95,110.0
241,A3,88.5,0.5,95,110.0
242,C#4,89.5,0.5,95,110.0
243,A3,89.5,0.5,95,110.0
244,F4,90.0,1.0,95,110.0
245,A2,90.0,0.5,95,110.0
246,C#4,90.5,0.5,95,110.0
247,G3,90.5,0.5,95,110.0
248,E4,91.0,1.0,95,110.0
249,C#4,91.5,0.5,95,110.0
250,G3,91.5,0.5,95,110.0
251,A4,92.0,1.5,95,110.0
252,D3,92.0,0.5,95,110.0
253,F4,92.5,0.5,95,110.0
254,D4,92.5,0.5,95,110.0
255,F4,93.5,0.5,95,110.0
256,D4,93.5,0.5,95,110.0
257,A2,94.0,0.5,95,110.0
258,F4,94.5,0.5,95,110.0
259,D4,94.5,0.5,95,110.0
260,A2,95.0,0.5,95,110.0
261,F4,95.5,0.5,95,110.0
262,D4,95.5,0.5,95,110.0
263,D3,96.0,0.5,95,110.0
264,F4,96.5,0.5,95,110.0
265,D4,96.5,0.5,95,110.0
266,A4,97.0,1.0,95,110.0
267,F4,97.5,0.5,95,110.0
268,D4,97.5,0.5,95,110.0
269,F4,98.0,1.0,95,110.0
270,A2,98.0,0.5,95,110.0
271,D4,99.0,1.0,95,110.0
272,D3,99.0,1.0,95,110.0
273,D4,100.0,0.5,95,110.0
274,F3,100.0,0.5,95,110.0
275,A3,100.5,0.5,95,110.0
276,D4,101.0,1.0,95,110.0
277,A3,101.5,0.5,95,110.0
278,E4,102.0,1.0,95,110.0
279,C3,102.0,0.5,95,110.0
280,D4,102.5,0.5,95,110.0
281,A3,102.5,0.5,95,110.0
282,F4,103.0,1.0,95,110.0
283,D4,103.5,0.5,95,110.0
284,A3,103.5,0.5,95,110.0
285,B4,104.0,1.5,95,110.0
286,B2,104.0,0.5,95,110.0
287,F4,104.5,0.5,95,110.0
288,D4,104.5,0.5,95,110.0
289,F4,105.5,0.5,95,110.0
290,D4,105.5,0.5,95,110.0
291,E3,106.0,0.5,95,110.0
292,F4,106.5,0.5,95,110.0
293,D4,106.5,0.5,95,110.0
294,E4,107.0,1.0,95,110.0
295,F4,107.5,0.5,95,110.0
296,D4,107.5,0.5,95,110.0
297,A2,108.0,0.5,95,110.0
298,A3,108.5,0.5,95,110.0
299,E3,108.5,0.5,95,110.0
300,C4,109.0,1.0,95,110.0
301,A3,109.5,0.5,95,110.0
302,E3,109.5,0.5,95,110.0
303,D4,110.0,1.0,95,110.0
304,G2,110.0,0.5,95,110.0
305,A3,110.5,0.5,95,110.0
306,E3,110.5,0.5,95,110.0
307,E4,111.0,1.0,95,110.0
308,A3,111.5,0.5,95,110.0
309,E3,111.5,0.5,95,110.0
310,A4,112.0,1.5,95,110.0
311,F3,112.0,0.5,95,110.0
312,E4,112.5,0.5,95,110.0
313,C4,112.5,0.5,95,110.0
314,E4,113.5,0.5,95,110.0
315,C4,113.5,0.5,95,110.0
316,C3,114.0,0.5,95,110.0
317,E4,114.5,0.5,95,110.0
318,C4,114.5,0.5,95,110.0
319,A4,115.0,0.5,95,110.0
320,B3,115.0,0.5,95,110.0
321,F3,115.0,0.5,95,110.0
322,G#4,115.5,0.5,70,110.0
323,E4,116.0,1.5,95,110.0
324,B2,116.0,0.5,95,110.0
325,D4,116.5,0.5,95,110.0
326,A3,116.5,0.5,95,110.0
327,D4,117.5,0.5,95,110.0
328,A3,117.5,0.5,95,110.0
329,F3,118.0,0.5,95,110.0
330,D4,118.5,0.5,95,110.0
331,A3,118.5,0.5,95,110.0
332,B2,119.0,0.5,95,110.0
333,D4,119.5,0.5,95,110.0
334,A3,119.5,0.5,95,110.0
335,E4,120.0,1.0,95,110.0
336,E3,120.0,0.5,95,110.0
337,D4,120.5,0.5,95,110.0
338,G#3,120.5,0.5,95,110.0
339,E4,121.0,1.0,95,110.0
340,D4,121.5,0.5,95,110.0
341,G#3,121.5,0.5,95,110.0
342,G#4,122.0,1.0,95,110.0
343,E2,122.0,0.5,95,110.0
344,D4,122.5,0.5,95,110.0
345,G#3,122.5,0.5,95,110.0
346,B4,123.0,1.0,95,110.0
347,D4,123.5,0.5,95,110.0
348,G#3,123.5,0.5,95,110.0
349,A4,124.0,1.5,95,110.0
350,A2,124.0,0.5,95,110.0
351,E4,124.5,1.0,95,110.0
352,C4,124.5,1.0,95,110.0
353,E4,125.5,1.0,95,110.0
354,C4,125.5,0.5,95,110.0
355,E-4,126.0,0.5,95,110.0
356,E2,126.0,0.5,95,110.0
357,E4,126.5,1.0,95,110.0
358,C4,126.5,167/1000,95,110.0
359,D4,126.667,667/1000,95,110.0
360,E2,127.0,333/1000,95,110.0
361,C4,127.333,167/1000,95,110.0
362,E4,127.5,0.5,95,110.0
363,C4,127.5,0.5,95,110.0
364,A3,128.0,0.5,95,110.0
365,A2,128.0,0.5,95,110.0
366,E4,128.5,0.5,95,110.0
367,C4,128.5,0.5,95,110.0
368,E4,129.5,0.5,95,110.0
369,C4,129.5,0.5,95,110.0
370,A2,130.0,667/1000,95,110.0
371,A4,130.667,667/1000,95,110.0
372,B4,131.333,667/1000,95,110.0
373,D3,132.0,979/500,95,110.0
374,D4,132.0,979/500,95,110.0
375,F4,132.0,979/500,95,110.0
376,C5,132.062,151/250,95,110.0
377,D5,132.667,667/1000,95,110.0
378,C5,133.333,667/1000,95,110.0
379,A2,134.0,979/500,95,110.0
380,C4,134.0,979/500,95,110.0
381,E4,134.0,979/500,95,110.0
382,B4,134.062,151/250,95,110.0
383,A4,134.667,667/1000,95,110.0
384,B4,135.333,667/1000,95,110.0
385,D3,136.0,979/500,95,110.0
386,D4,136.0,979/500,95,110.0
387,F4,136.0,979/500,95,110.0
388,C5,136.062,151/250,95,110.0
389,D5,136.667,667/1000,95,110.0
390,C5,137.333,667/1000,95,110.0
391,A2,138.0,979/500,95,110.0
392,C4,138.0,979/500,95,110.0
393,E4,138.0,979/500,95,110.0
394,B4,138.062,151/250,95,110.0
395,A4,138.667,667/1000,95,110.0
396,B4,139.333,667/1000,95,110.0
397,D3,140.0,979/500,95,110.0
398,D4,140.0,979/500,95,110.0
399,F4,140.0,979/500,95,110.0
400,C5,140.062,151/250,95,110.0
401,D5,140.667,667/1000,95,110.0
402,C5,141.333,667/1000,95,110.0
403,E2,142.0,1979/1000,95,110.0
404,E4,142.0,1979/1000,95,110.0
405,G4,142.042,0.625,95,110.0
406,B4,142.062,1.938,95,110.0
407,A4,142.667,667/1000,95,110.0
408,G4,143.333,667/1000,95,110.0
409,A4,144.0,1.5,95,110.0
410,A2,144.0,0.5,95,110.0
411,E4,144.5,0.5,95,110.0
412,C4,144.5,0.5,95,110.0
413,E4,145.5,0.5,95,110.0
414,C4,145.5,0.5,95,110.0
415,E2,146.0,0.5,95,110.0
416,E4,146.5,0.5,95,110.0
417,C4,146.5,0.5,95,110.0
418,E2,147.0,0.5,95,110.0
419,E4,147.5,0.5,95,110.0
420,C4,147.5,0.5,95,110.0
421,A2,148.0,0.5,95,110.0
422,E4,148.5,0.5,95,110.0
423,C4,148.5,0.5,95,110.0
424,E4,149.5,0.5,95,110.0
425,C4,149.5,0.5,95,110.0
426,E2,150.0,0.5,95,110.0
427,E4,150.5,0.5,95,110.0
428,C4,150.5,0.5,95,110.0
429,E4,151.0,1.0,95,110.0
430,E4,151.5,0.5,95,110.0
431,C4,151.5,0.5,95,110.0
432,C5,152.0,1.5,95,110.0
433,E4,152.0,0.5,95,110.0
434,A2,152.0,0.5,95,110.0
435,E4,152.5,0.5,95,110.0
436,C4,152.5,0.5,95,110.0
437,E4,153.5,0.5,95,110.0
438,C4,153.5,0.5,95,110.0
439,B4,154.0,1.0,95,110.0
440,E4,154.0,0.5,95,110.0
441,E2,154.0,0.5,95,110.0
442,E4,154.5,0.5,95,110.0
443,C4,154.5,0.5,95,110.0
444,A4,155.0,1.0,95,110.0
445,E4,155.0,0.5,95,110.0
446,A2,155.0,0.5,95,110.0
447,E4,155.5,0.5,95,110.0
448,C4,155.5,0.5,95,110.0
449,A4,156.0,1.5,95,110.0
450,D4,156.0,0.5,95,110.0
451,F3,156.0,0.5,95,110.0
452,D4,156.5,0.5,95,110.0
453,B3,156.5,0.5,95,110.0
454,D4,157.5,0.5,95,110.0
455,B3,157.5,0.5,95,110.0
456,G#4,158.0,1.0,95,110.0
457,D4,158.0,0.5,95,110.0
458,E3,158.0,0.5,95,110.0
459,D4,158.5,0.5,95,110.0
460,B3,158.5,0.5,95,110.0
461,B4,159.0,1.0,95,110.0
462,D4,159.0,0.5,95,110.0
463,D3,159.0,0.5,95,110.0
464,D4,159.5,0.5,95,110.0
465,B3,159.5,0.5,95,110.0
466,E4,160.0,1.5,95,110.0
467,C4,160.0,0.5,95,110.0
468,A2,160.0,0.5,95,110.0
469,C4,160.5,0.5,95,110.0
470,A3,160.5,0.5,95,110.0
471,C4,161.5,0.5,95,110.0
472,A3,161.5,0.5,95,110.0
473,E2,162.0,0.5,95,110.0
474,C4,162.5,0.5,95,110.0
475,A3,162.5,0.5,95,110.0
476,A2,163.0,0.5,95,110.0
477,C4,163.5,0.5,95,110.0
478,A3,163.5,0.5,95,110.0
479,B2,164.0,0.5,95,110.0
480,D4,164.5,0.5,95,110.0
481,A3,164.5,0.5,95,110.0
482,D4,165.5,0.5,95,110.0
483,A3,165.5,0.5,95,110.0
484,B-2,166.0,0.5,95,110.0
485,C4,166.5,0.5,95,110.0
486,G#3,166.5,0.5,95,110.0
487,E4,167.0,1.0,95,110.0
488,E2,167.0,1.0,95,110.0
489,C5,168.0,1.5,95,110.0
490,E4,168.0,0.5,95,110.0
491,A2,168.0,0.5,95,110.0
492,E4,168.5,0.5,95,110.0
493,C4,168.5,0.5,95,110.0
494,E4,169.5,0.5,95,110.0
495,C4,169.5,0.5,95,110.0
496,B4,170.0,1.0,95,110.0
497,E4,170.0,0.5,95,110.0
498,E2,170.0,0.5,95,110.0
499,E4,170.5,0.5,95,110.0
500,C4,170.5,0.5,95,110.0
501,A4,171.0,1.0,95,110.0
502,E4,171.0,0.5,95,110.0
503,A2,171.0,0.5,95,110.0
504,E4,171.5,0.5,95,110.0
505,C4,171.5,0.5,95,110.0
506,A4,172.0,0.5,95,110.0
507,F4,172.0,0.5,95,110.0
508,D3,172.0,0.5,95,110.0
509,F4,172.5,0.5,95,110.0
510,C4,172.5,0.5,95,110.0
511,F4,173.5,0.5,95,110.0
512,C4,173.5,0.5,95,110.0
513,G4,174.0,1.0,95,110.0
514,F4,174.0,0.5,95,110.0
515,G3,174.0,0.5,95,110.0
516,F4,174.5,0.5,95,110.0
517,B3,174.5,0.5,95,110.0
518,B4,175.0,1.0,95,110.0
519,F4,175.0,0.5,95,110.0
520,F4,175.5,0.5,95,110.0
521,B3,175.5,0.5,95,110.0
522,E4,176.0,1.5,95,110.0
523,B3,176.0,0.5,95,110.0
524,C3,176.0,0.5,95,110.0
525,B3,176.5,0.5,95,110.0
526,G3,176.5,0.5,95,110.0
527,B3,177.5,0.5,95,110.0
528,G3,177.5,0.5,95,110.0
529,B3,178.0,1.0,95,110.0
530,E3,178.0,0.5,95,110.0
531,C3,178.0,0.5,95,110.0
532,G3,178.5,0.5,95,110.0
533,C4,179.0,1.0,95,110.0
534,E3,179.0,0.5,95,110.0
535,G3,179.5,0.5,95,110.0
536,E4,180.0,0.5,95,110.0
537,C#3,180.5,0.5,95,110.0
538,G3,181.0,0.5,95,110.0
539,B-3,181.5,0.5,95,110.0
540,E4,182.0,667/1000,95,110.0
541,C#4,182.0,667/1000,95,110.0
542,G3,182.0,2.0,95,110.0
543,A2,182.0,2.0,95,110.0
544,F4,182.667,667/1000,95,110.0
545,D4,182.667,667/1000,95,110.0
546,G4,183.333,667/1000,95,110.0
547,E4,183.333,667/1000,95,110.0
548,A4,184.0,2.0,95,110.0
549,F4,184.0,667/1000,95,110.0
550,D3,184.0,667/1000,95,110.0
551,G4,184.667,667/1000,95,110.0
552,E4,184.667,667/1000,95,110.0
553,F4,185.333,667/1000,95,110.0
554,D4,185.333,667/1000,95,110.0
555,A4,186.0,0.5,95,110.0
556,F4,186.0,0.5,95,110.0
557,C3,186.0,0.5,95,110.0
558,C4,186.5,1.0,95,110.0
559,A3,186.5,1.0,95,110.0
560,C3,187.5,0.5,95,110.0
561,B2,188.0,0.5,95,110.0
562,F3,188.5,0.5,95,110.0
563,G3,189.0,0.5,95,110.0
564,B3,189.5,0.5,95,110.0
565,D4,190.0,667/1000,95,110.0
566,B3,190.0,667/1000,95,110.0
567,G2,190.0,667/1000,95,110.0
568,E4,190.667,667/1000,95,110.0
569,C4,190.667,667/1000,95,110.0
570,F4,191.333,667/1000,95,110.0
571,D4,191.333,667/1000,95,110.0
572,G4,192.0,0.5,95,110.0
573,E4,192.0,0.5,95,110.0
574,E2,192.0,0.5,95,110.0
575,C4,192.5,0.5,95,110.0
576,C5,193.0,1.0,95,110.0
577,A4,193.0,1.0,95,110.0
578,G4,194.0,1.0,95,110.0
579,E4,194.0,1.0,95,110.0
580,C3,194.0,1.0,95,110.0
581,C4,195.0,0.5,95,110.0
582,A3,195.0,0.5,95,110.0
583,E3,195.5,0.5,95,110.0
584,C4,196.0,0.5,95,110.0
585,A3,196.0,0.5,95,110.0
586,F2,196.0,0.5,95,110.0
587,F3,196.5,0.5,95,110.0
588,A3,197.0,0.5,95,110.0
589,C4,197.5,0.5,95,110.0
590,C4,198.0,667/1000,95,110.0
591,A3,198.0,667/1000,95,110.0
592,F3,198.0,667/1000,95,110.0
593,D4,198.667,667/1000,95,110.0
594,B3,198.667,667/1000,95,110.0
595,E4,199.333,667/1000,95,110.0
596,C4,199.333,667/1000,95,110.0
597,F4,200.0,0.5,95,110.0
598,D4,200.0,0.5,95,110.0
599,B2,200.0,0.5,95,110.0
600,A3,200.5,0.5,95,110.0
601,C5,201.0,1.0,95,110.0
602,A4,201.0,1.0,95,110.0
603,F4,202.0,0.5,95,110.0
604,D4,202.0,0.5,95,110.0
605,F2,202.0,0.5,95,110.0
606,D3,202.5,0.5,95,110.0
607,B3,203.0,0.5,95,110.0
608,G#3,203.0,0.5,95,110.0
609,D3,203.5,0.5,95,110.0
610,B3,204.0,0.5,95,110.0
611,G#3,204.0,0.5,95,110.0
612,E2,204.0,0.5,95,110.0
613,D3,204.5,0.5,95,110.0
614,G#3,205.0,0.5,95,110.0
615,B3,205.5,0.5,95,110.0
616,G4,206.0,0.5,95,110.0
617,B3,206.0,0.5,95,110.0
618,E3,206.0,0.5,95,110.0
619,B3,206.5,1.0,95,110.0
620,G#3,206.5,1.0,95,110.0
621,F4,207.5,0.5,95,110.0
622,B3,207.5,0.5,95,110.0
623,G#3,207.5,0.5,95,110.0
624,E4,208.0,1.5,95,110.0
625,A2,208.0,0.5,95,110.0
626,C4,208.5,0.5,95,110.0
627,A3,208.5,0.5,95,110.0
628,D4,209.5,0.5,95,110.0
629,A3,209.5,0.5,95,110.0
630,C4,210.0,0.5,82,110.0
631,E2,210.0,0.5,82,110.0
632,D4,210.5,0.5,95,110.0
633,A3,210.5,0.5,95,110.0
634,E4,211.0,0.5,95,110.0
635,A2,211.0,0.5,95,110.0
636,C4,211.5,0.5,95,110.0
637,A3,211.5,0.5,95,110.0
638,B2,212.0,0.5,95,110.0
639,D4,212.5,0.5,95,110.0
640,A3,212.5,0.5,95,110.0
641,D4,213.5,0.5,95,110.0
642,A3,213.5,0.5,95,110.0
643,B-2,214.0,0.5,95,110.0
644,C4,214.5,0.5,95,110.0
645,G#3,214.5,0.5,95,110.0
646,E4,215.0,1.0,95,110.0
647,C5,216.0,1.5,95,110.0
648,E4,216.0,0.5,95,110.0
649,A2,216.0,0.5,95,110.0
650,E4,216.5,0.5,95,110.0
651,C4,216.5,0.5,95,110.0
652,E4,217.5,0.5,95,110.0
653,C4,217.5,0.5,95,110.0
654,B4,218.0,1.0,95,110.0
655,E4,218.0,0.5,95,110.0
656,E2,218.0,0.5,95,110.0
657,E4,218.5,0.5,95,110.0
658,C4,218.5,0.5,95,110.0
659,A4,219.0,1.0,95,110.0
660,E4,219.0,0.5,95,110.0
661,A2,219.0,0.5,95,110.0
662,E4,219.5,0.5,95,110.0
663,C4,219.5,0.5,95,110.0
664,A4,220.0,1.5,95,110.0
665,D4,220.0,0.5,95,110.0
666,F3,220.0,0.5,95,110.0
667,D4,220.5,0.5,95,110.0
668,B3,220.5,0.5,95,110.0
669,D4,221.5,0.5,95,110.0
670,B3,221.5,0.5,95,110.0
671,G#4,222.0,1.0,95,110.0
672,D4,222.0,0.5,95,110.0
673,E3,222.0,0.5,95,110.0
674,D4,222.5,0.5,95,110.0
675,B3,222.5,0.5,95,110.0
676,B4,223.0,1.0,95,110.0
677,D4,223.0,0.5,95,110.0
678,D3,223.0,0.5,95,110.0
679,D4,223.5,0.5,95,110.0
680,B3,223.5,0.5,95,110.0
681,E4,224.0,1.5,95,110.0
682,C4,224.0,0.5,95,110.0
683,A2,224.0,0.5,95,110.0
684,C4,224.5,0.5,95,110.0
685,A3,224.5,0.5,95,110.0
686,C4,225.5,0.5,95,110.0
687,A3,225.5,0.5,95,110.0
688,E2,226.0,0.5,95,110.0
689,C4,226.5,0.5,95,110.0
690,A3,226.5,0.5,95,110.0
691,A2,227.0,0.5,95,110.0
692,C4,227.5,0.5,95,110.0
693,A3,227.5,0.5,95,110.0
694,B2,228.0,0.5,95,110.0
695,D4,228.5,0.5,95,110.0
696,A3,228.5,0.5,95,110.0
697,D4,229.5,0.5,95,110.0
698,A3,229.5,0.5,95,110.0
699,B-2,230.0,0.5,95,110.0
700,C4,230.5,0.5,95,110.0
701,G#3,230.5,0.5,95,110.0
702,E4,231.0,1.0,95,110.0
703,C4,231.5,0.5,95,110.0
704,G#3,231.5,0.5,95,110.0
705,B-4,232.0,1.5,95,110.0
706,E4,232.0,0.5,95,110.0
707,G3,232.0,0.5,95,110.0
708,E4,232.5,0.5,95,110.0
709,D4,232.5,0.5,95,110.0
710,E4,233.5,0.5,95,110.0
711,D4,233.5,0.5,95,110.0
712,A4,234.0,1.0,95,110.0
713,E4,234.0,0.5,95,110.0
714,E2,234.0,0.5,95,110.0
715,D4,234.5,0.5,95,110.0
716,B-3,234.5,0.5,95,110.0
717,G4,235.0,1.0,95,110.0
718,D4,235.0,0.5,95,110.0
719,D4,235.5,0.5,95,110.0
720,B-3,235.5,0.5,95,110.0
721,G4,236.0,1.5,95,110.0
722,C#4,236.0,0.5,95,110.0
723,A2,236.0,0.5,95,110.0
724,C#4,236.5,0.5,95,110.0
725,A3,236.5,0.5,95,110.0
726,C#4,237.5,0.5,95,110.0
727,A3,237.5,0.5,95,110.0
728,F4,238.0,1.0,95,110.0
729,C#4,238.0,0.5,95,110.0
730,A2,238.0,0.5,95,110.0
731,C#4,238.5,0.5,95,110.0
732,G3,238.5,0.5,95,110.0
733,E4,239.0,1.0,95,110.0
734,C#4,239.0,0.5,95,110.0
735,C#4,239.5,0.5,95,110.0
736,G3,239.5,0.5,95,110.0
737,A4,240.0,1.5,95,110.0
738,F4,240.0,0.5,95,110.0
739,D3,240.0,0.5,95,110.0
740,F4,240.5,0.5,95,110.0
741,D4,240.5,0.5,95,110.0
742,F4,241.5,0.5,95,110.0
743,D4,241.5,0.5,95,110.0
744,A2,242.0,0.5,95,110.0
745,F4,242.5,0.5,95,110.0
746,D4,242.5,0.5,95,110.0
747,A2,243.0,0.5,95,110.0
748,F4,243.5,0.5,95,110.0
749,D4,243.5,0.5,95,110.0
750,D3,244.0,0.5,95,110.0
751,F4,244.5,0.5,95,110.0
752,D4,244.5,0.5,95,110.0
753,A4,245.0,1.0,95,110.0
754,F4,245.0,0.5,95,110.0
755,F4,245.5,0.5,95,110.0
756,D4,245.5,0.5,95,110.0
757,F4,246.0,1.0,95,110.0
758,D4,246.0,0.5,95,110.0
759,A2,246.0,0.5,95,110.0
760,D4,247.0,1.0,95,110.0
761,D3,247.0,1.0,95,110.0
762,D4,248.0,0.5,95,110.0
763,F3,248.0,0.5,95,110.0
764,A3,248.5,0.5,95,110.0
765,D4,249.0,1.0,95,110.0
766,A3,249.5,0.5,95,110.0
767,E4,250.0,1.0,95,110.0
768,D4,250.0,0.5,95,110.0
769,C3,250.0,0.5,95,110.0
770,D4,250.5,0.5,95,110.0
771,A3,250.5,0.5,95,110.0
772,F4,251.0,1.0,95,110.0
773,D4,251.0,0.5,95,110.0
774,D4,251.5,0.5,95,110.0
775,A3,251.5,0.5,95,110.0
776,B4,252.0,1.5,95,110.0
777,F4,252.0,0.5,95,110.0
778,B2,252.0,0.5,95,110.0
779,F4,252.5,0.5,95,110.0
780,D4,252.5,0.5,95,110.0
781,F4,253.5,0.5,95,110.0
782,D4,253.5,0.5,95,110.0
783,E3,254.0,0.5,95,110.0
784,F4,254.5,0.5,95,110.0
785,D4,254.5,0.5,95,110.0
786,E4,255.0,1.0,95,110.0
787,F4,255.5,0.5,95,110.0
788,D4,255.5,0.5,95,110.0
789,A2,256.0,0.5,95,110.0
790,A3,256.5,0.5,95,110.0
791,E3,256.5,0.5,95,110.0
792,C4,257.0,1.0,95,110.0
793,A3,257.5,0.5,95,110.0
794,E3,257.5,0.5,95,110.0
795,D4,258.0,1.0,95,110.0
796,G2,258.0,0.5,95,110.0
797,A3,258.5,0.5,95,110.0
798,E3,258.5,0.5,95,110.0
799,E4,259.0,1.0,95,110.0
800,A3,259.5,0.5,95,110.0
801,E3,259.5,0.5,95,110.0
802,A4,260.0,1.5,95,110.0
803,E4,260.0,0.5,95,110.0
804,F3,260.0,0.5,95,110.0
805,E4,260.5,0.5,95,110.0
806,C4,260.5,0.5,95,110.0
807,E4,261.5,0.5,95,110.0
808,C4,261.5,0.5,95,110.0
809,C3,262.0,0.5,95,110.0
810,E4,262.5,0.5,95,110.0
811,C4,262.5,0.5,95,110.0
812,A4,263.0,0.5,95,110.0
813,B3,263.0,0.5,95,110.0
814,F3,263.0,0.5,95,110.0
815,G#4,263.5,0.5,70,110.0
816,E4,264.0,1.5,95,110.0
817,D4,264.0,0.5,95,110.0
818,B2,264.0,0.5,95,110.0
819,D4,264.5,0.5,95,110.0
820,A3,264.5,0.5,95,110.0
821,D4,265.5,0.5,95,110.0
822,A3,265.5,0.5,95,110.0
823,F3,266.0,0.5,95,110.0
824,D4,266.5,0.5,95,110.0
825,A3,266.5,0.5,95,110.0
826,B2,267.0,0.5,95,110.0
827,D4,267.5,0.5,95,110.0
828,A3,267.5,0.5,95,110.0
829,E4,268.0,1.0,95,110.0
830,B3,268.0,0.5,95,110.0
831,E3,268.0,0.5,95,110.0
832,D4,268.5,0.5,95,110.0
833,G#3,268.5,0.5,95,110.0
834,E4,269.0,1.0,95,110.0
835,B3,269.0,0.5,95,110.0
836,D4,269.5,0.5,95,110.0
837,G#3,269.5,0.5,95,110.0
838,G#4,270.0,1.0,95,110.0
839,E4,270.0,0.5,95,110.0
840,E2,270.0,0.5,95,110.0
841,D4,270.5,0.5,95,110.0
842,G#3,270.5,0.5,95,110.0
843,B4,271.0,1.0,95,110.0
844,G#4,271.0,0.5,95,110.0
845,D4,271.5,0.5,95,110.0
846,G#3,271.5,0.5,95,110.0
847,A4,272.0,1.5,95,110.0
848,A2,272.0,0.5,95,110.0
849,E4,272.5,1.0,95,110.0
850,C4,272.5,1.0,95,110.0
851,E4,273.5,1.0,95,110.0
852,C4,273.5,0.5,95,110.0
853,E-4,274.0,0.5,95,110.0
854,E2,274.0,0.5,95,110.0
855,E4,274.5,1.0,95,110.0
856,C4,274.5,167/1000,95,110.0
857,D4,274.667,667/1000,95,110.0
858,E2,275.0,333/1000,95,110.0
859,C4,275.333,167/1000,95,110.0
860,E4,275.5,0.5,95,110.0
861,C4,275.5,0.5,95,110.0
862,A3,276.0,1.0,95,110.0
863,A2,276.0,0.5,95,110.0
864,E4,276.5,0.5,95,110.0
865,C4,276.5,0.5,95,110.0
866,E4,277.5,0.5,95,110.0
867,C4,277.5,0.5,95,110.0
868,A2,278.0,667/1000,95,110.0
869,A4,278.667,667/1000,95,110.0
870,B4,279.333,667/1000,95,110.0
871,D3,280.0,979/500,95,110.0
872,D4,280.0,979/500,95,110.0
873,F4,280.0,979/500,95,110.0
874,C5,280.062,151/250,95,110.0
875,D5,280.667,667/1000,95,110.0
876,C5,281.333,667/1000,95,110.0
877,A2,282.0,979/500,95,110.0
878,C4,282.0,979/500,95,110.0
879,E4,282.0,979/500,95,110.0
880,B4,282.062,151/250,95,110.0
881,A4,282.667,667/1000,95,110.0
882,B4,283.333,667/1000,95,110.0
883,D3,284.0,979/500,95,110.0
884,D4,284.0,979/500,95,110.0
885,F4,284.0,979/500,95,110.0
886,C5,284.062,151/250,95,110.0
887,D5,284.667,667/1000,95,110.0
888,C5,285.333,667/1000,95,110.0
889,A2,286.0,979/500,95,110.0
890,C4,286.0,979/500,95,110.0
891,E4,286.0,979/500,95,110.0
892,B4,286.062,151/250,95,110.0
893,A4,286.667,667/1000,95,110.0
894,B4,287.333,667/1000,95,110.0
895,D3,288.0,979/500,95,110.0
896,D4,288.0,979/500,95,110.0
897,F4,288.0,979/500,95,110.0
898,C5,288.062,151/250,95,110.0
899,D5,288.667,667/1000,95,110.0
900,C5,289.333,667/1000,95,110.0
901,E2,290.0,1979/1000,95,110.0
902,E4,290.0,1979/1000,95,110.0
903,G4,290.042,0.625,95,110.0
904,B4,290.062,1.938,95,110.0
905,A4,290.667,667/1000,95,110.0
906,G4,291.333,667/1000,95,110.0
907,A4,292.0,1.5,95,110.0
908,A2,292.0,0.5,95,110.0
909,E4,292.5,0.5,95,110.0
910,C4,292.5,0.5,95,110.0
911,E4,293.5,0.5,95,110.0
912,C4,293.5,0.5,95,110.0
913,E2,294.0,0.5,95,110.0
914,E4,294.5,0.5,95,110.0
915,C4,294.5,0.5,95,110.0
916,E2,295.0,0.5,95,110.0
917,E4,295.5,0.5,95,110.0
918,C4,295.5,0.5,95,110.0
919,A2,296.0,0.5,95,110.0
920,E4,296.5,0.5,95,110.0
921,C4,296.5,0.5,95,110.0
922,E4,297.5,0.5,95,110.0
923,C4,297.5,0.5,95,110.0
924,E2,298.0,0.5,95,110.0
925,E4,298.5,0.5,95,110.0
926,C4,298.5,0.5,95,110.0
927,E2,299.0,0.5,95,110.0
928,E4,299.5,0.5,95,110.0
929,C4,299.5,0.5,95,110.0
930,A2,300.0,0.5,95,110.0
931,E4,300.5,0.5,95,110.0
932,C4,300.5,0.5,95,110.0
933,E4,301.5,0.5,95,110.0
934,C4,301.5,0.5,95,110.0
935,E3,302.0,1.0,95,110.0
936,B4,303.0,1.0,95,110.0
937,A4,304.0,4.0,95,110.0
938,A2,308.0,4.0,95,110.0
939,C4,308.125,3.875,95,110.0
940,B3,308.25,3.75,95,110.0
