,note_name,start_time,duration,velocity,tempo
0,E4,0.0,0.5,95,135.0
1,B3,0.0,0.5,95,135.0
2,G3,0.0,0.5,95,135.0
3,E3,0.0,0.5,95,135.0
4,B2,0.0,0.5,95,135.0
5,E2,0.0,0.5,95,135.0
6,E4,0.5,0.25,95,135.0
7,B3,0.5,0.25,95,135.0
8,G3,0.5,0.25,95,135.0
9,E3,0.5,0.25,95,135.0
10,B2,0.5,0.25,95,135.0
11,E2,0.5,0.25,95,135.0
12,E4,0.75,0.25,95,135.0
13,B3,0.75,0.25,95,135.0
14,G3,0.75,0.25,95,135.0
15,E3,0.75,0.25,95,135.0
16,B2,0.75,0.25,95,135.0
17,E2,0.75,0.25,95,135.0
18,E4,1.0,0.5,95,135.0
19,B3,1.0,0.5,95,135.0
20,G3,1.0,0.5,95,135.0
21,E3,1.0,0.5,95,135.0
22,B2,1.0,0.5,95,135.0
23,E2,1.0,0.5,95,135.0
24,E4,1.5,0.5,95,135.0
25,B3,1.5,0.5,95,135.0
26,G3,1.5,0.5,95,135.0
27,E3,1.5,0.5,95,135.0
28,B2,1.5,0.5,95,135.0
29,E2,1.5,0.5,95,135.0
30,E4,2.0,0.25,95,135.0
31,B3,2.0,0.25,95,135.0
32,G3,2.0,0.25,95,135.0
33,E3,2.0,0.25,95,135.0
34,B2,2.0,0.25,95,135.0
35,E2,2.0,0.25,95,135.0
36,E4,2.25,0.25,95,135.0
37,B3,2.25,0.25,95,135.0
38,G3,2.25,0.25,95,135.0
39,E3,2.25,0.25,95,135.0
40,B2,2.25,0.25,95,135.0
41,E2,2.25,0.25,95,135.0
42,E4,2.5,0.5,95,135.0
43,B3,2.5,0.5,95,135.0
44,G3,2.5,0.5,95,135.0
45,E3,2.5,0.5,95,135.0
46,B2,2.5,0.5,95,135.0
47,E2,2.5,0.5,95,135.0
48,E4,3.0,0.5,95,135.0
49,C4,3.0,0.5,95,135.0
50,G3,3.0,0.5,95,135.0
51,E3,3.0,0.5,95,135.0
52,C3,3.0,0.5,95,135.0
53,E4,3.5,0.25,95,135.0
54,C4,3.5,0.25,95,135.0
55,G3,3.5,0.25,95,135.0
56,E3,3.5,0.25,95,135.0
57,C3,3.5,0.25,95,135.0
58,E4,3.75,0.25,95,135.0
59,C4,3.75,0.25,95,135.0
60,G3,3.75,0.25,95,135.0
61,E3,3.75,0.25,95,135.0
62,C3,3.75,0.25,95,135.0
63,E4,4.0,0.5,95,135.0
64,C4,4.0,0.5,95,135.0
65,G3,4.0,0.5,95,135.0
66,E3,4.0,0.5,95,135.0
67,C3,4.0,0.5,95,135.0
68,E4,4.5,0.5,95,135.0
69,C4,4.5,0.5,95,135.0
70,G3,4.5,0.5,95,135.0
71,E3,4.5,0.5,95,135.0
72,C3,4.5,0.5,95,135.0
73,E4,5.0,0.25,95,135.0
74,C4,5.0,0.25,95,135.0
75,G3,5.0,0.25,95,135.0
76,E3,5.0,0.25,95,135.0
77,C3,5.0,0.25,95,135.0
78,E4,5.25,0.25,95,135.0
79,C4,5.25,0.25,95,135.0
80,G3,5.25,0.25,95,135.0
81,E3,5.25,0.25,95,135.0
82,C3,5.25,0.25,95,135.0
83,E4,5.5,0.5,95,135.0
84,C4,5.5,0.5,95,135.0
85,G3,5.5,0.5,95,135.0
86,E3,5.5,0.5,95,135.0
87,C3,5.5,0.5,95,135.0
88,E4,6.0,0.5,95,135.0
89,C4,6.0,0.5,95,135.0
90,A3,6.0,0.5,95,135.0
91,E3,6.0,0.5,95,135.0
92,A2,6.0,0.5,95,135.0
93,E4,6.5,0.25,95,135.0
94,C4,6.5,0.25,95,135.0
95,A3,6.5,0.25,95,135.0
96,E3,6.5,0.25,95,135.0
97,A2,6.5,0.25,95,135.0
98,E4,6.75,0.25,95,135.0
99,C4,6.75,0.25,95,135.0
100,A3,6.75,0.25,95,135.0
101,E3,6.75,0.25,95,135.0
102,A2,6.75,0.25,95,135.0
103,E4,7.0,0.5,95,135.0
104,C4,7.0,0.5,95,135.0
105,A3,7.0,0.5,95,135.0
106,E3,7.0,0.5,95,135.0
107,A2,7.0,0.5,95,135.0
108,E4,7.5,0.5,95,135.0
109,C4,7.5,0.5,95,135.0
110,A3,7.5,0.5,95,135.0
111,E3,7.5,0.5,95,135.0
112,A2,7.5,0.5,95,135.0
113,E4,8.0,0.25,95,135.0
114,C4,8.0,0.25,95,135.0
115,A3,8.0,0.25,95,135.0
116,E3,8.0,0.25,95,135.0
117,A2,8.0,0.25,95,135.0
118,E4,8.25,0.25,95,135.0
119,C4,8.25,0.25,95,135.0
120,A3,8.25,0.25,95,135.0
121,E3,8.25,0.25,95,135.0
122,A2,8.25,0.25,95,135.0
123,E4,8.5,0.5,95,135.0
124,C4,8.5,0.5,95,135.0
125,A3,8.5,0.5,95,135.0
126,E3,8.5,0.5,95,135.0
127,A2,8.5,0.5,95,135.0
128,F#4,9.0,0.5,95,135.0
129,D4,9.0,0.5,95,135.0
130,A3,9.0,0.5,95,135.0
131,D3,9.0,0.5,95,135.0
132,F#4,9.5,0.25,95,135.0
133,D4,9.5,0.25,95,135.0
134,A3,9.5,0.25,95,135.0
135,D3,9.5,0.25,95,135.0
136,F#4,9.75,0.25,95,135.0
137,D4,9.75,0.25,95,135.0
138,A3,9.75,0.25,95,135.0
139,D3,9.75,0.25,95,135.0
140,F#4,10.0,0.5,95,135.0
141,D4,10.0,0.5,95,135.0
142,A3,10.0,0.5,95,135.0
143,D3,10.0,0.5,95,135.0
144,F#4,10.5,0.5,95,135.0
145,D4,10.5,0.5,95,135.0
146,A3,10.5,0.5,95,135.0
147,D3,10.5,0.5,95,135.0
148,F#4,11.0,0.25,95,135.0
149,D4,11.0,0.25,95,135.0
150,A3,11.0,0.25,95,135.0
151,D3,11.0,0.25,95,135.0
152,F#4,11.25,0.25,95,135.0
153,D4,11.25,0.25,95,135.0
154,A3,11.25,0.25,95,135.0
155,D3,11.25,0.25,95,135.0
156,F#4,11.5,0.5,95,135.0
157,D4,11.5,0.5,95,135.0
158,A3,11.5,0.5,95,135.0
159,D3,11.5,0.5,95,135.0
160,E4,12.0,0.5,95,135.0
161,B3,12.0,0.5,95,135.0
162,G3,12.0,0.5,95,135.0
163,E3,12.0,0.5,95,135.0
164,B2,12.0,0.5,95,135.0
165,E2,12.0,0.5,95,135.0
166,E4,12.5,0.25,95,135.0
167,B3,12.5,0.25,95,135.0
168,G3,12.5,0.25,95,135.0
169,E3,12.5,0.25,95,135.0
170,B2,12.5,0.25,95,135.0
171,E2,12.5,0.25,95,135.0
172,E4,12.75,0.25,95,135.0
173,B3,12.75,0.25,95,135.0
174,G3,12.75,0.25,95,135.0
175,E3,12.75,0.25,95,135.0
176,B2,12.75,0.25,95,135.0
177,E2,12.75,0.25,95,135.0
178,E4,13.0,0.5,95,135.0
179,B3,13.0,0.5,95,135.0
180,G3,13.0,0.5,95,135.0
181,E3,13.0,0.5,95,135.0
182,B2,13.0,0.5,95,135.0
183,E2,13.0,0.5,95,135.0
184,E4,13.5,0.5,95,135.0
185,B3,13.5,0.5,95,135.0
186,G3,13.5,0.5,95,135.0
187,E3,13.5,0.5,95,135.0
188,B2,13.5,0.5,95,135.0
189,E2,13.5,0.5,95,135.0
190,E4,14.0,0.25,95,135.0
191,B3,14.0,0.25,95,135.0
192,G3,14.0,0.25,95,135.0
193,E3,14.0,0.25,95,135.0
194,B2,14.0,0.25,95,135.0
195,E2,14.0,0.25,95,135.0
196,E4,14.25,0.25,95,135.0
197,B3,14.25,0.25,95,135.0
198,G3,14.25,0.25,95,135.0
199,E3,14.25,0.25,95,135.0
200,B2,14.25,0.25,95,135.0
201,E2,14.25,0.25,95,135.0
202,E4,14.5,0.5,95,135.0
203,B3,14.5,0.5,95,135.0
204,G3,14.5,0.5,95,135.0
205,E3,14.5,0.5,95,135.0
206,B2,14.5,0.5,95,135.0
207,E2,14.5,0.5,95,135.0
208,E4,15.0,0.5,95,135.0
209,C4,15.0,0.5,95,135.0
210,G3,15.0,0.5,95,135.0
211,E3,15.0,0.5,95,135.0
212,C3,15.0,0.5,95,135.0
213,E4,15.5,0.25,95,135.0
214,C4,15.5,0.25,95,135.0
215,G3,15.5,0.25,95,135.0
216,E3,15.5,0.25,95,135.0
217,C3,15.5,0.25,95,135.0
218,E4,15.75,0.25,95,135.0
219,C4,15.75,0.25,95,135.0
220,G3,15.75,0.25,95,135.0
221,E3,15.75,0.25,95,135.0
222,C3,15.75,0.25,95,135.0
223,E4,16.0,0.5,95,135.0
224,C4,16.0,0.5,95,135.0
225,G3,16.0,0.5,95,135.0
226,E3,16.0,0.5,95,135.0
227,C3,16.0,0.5,95,135.0
228,E4,16.5,0.5,95,135.0
229,C4,16.5,0.5,95,135.0
230,G3,16.5,0.5,95,135.0
231,E3,16.5,0.5,95,135.0
232,C3,16.5,0.5,95,135.0
233,E4,17.0,0.25,95,135.0
234,C4,17.0,0.25,95,135.0
235,G3,17.0,0.25,95,135.0
236,E3,17.0,0.25,95,135.0
237,C3,17.0,0.25,95,135.0
238,E4,17.25,0.25,95,135.0
239,C4,17.25,0.25,95,135.0
240,G3,17.25,0.25,95,135.0
241,E3,17.25,0.25,95,135.0
242,C3,17.25,0.25,95,135.0
243,E4,17.5,0.5,95,135.0
244,C4,17.5,0.5,95,135.0
245,G3,17.5,0.5,95,135.0
246,E3,17.5,0.5,95,135.0
247,C3,17.5,0.5,95,135.0
248,E4,18.0,0.5,95,135.0
249,C4,18.0,0.5,95,135.0
250,A3,18.0,0.5,95,135.0
251,E3,18.0,0.5,95,135.0
252,A2,18.0,0.5,95,135.0
253,E4,18.5,0.25,95,135.0
254,C4,18.5,0.25,95,135.0
255,A3,18.5,0.25,95,135.0
256,E3,18.5,0.25,95,135.0
257,A2,18.5,0.25,95,135.0
258,E4,18.75,0.25,95,135.0
259,C4,18.75,0.25,95,135.0
260,A3,18.75,0.25,95,135.0
261,E3,18.75,0.25,95,135.0
262,A2,18.75,0.25,95,135.0
263,E4,19.0,0.5,95,135.0
264,C4,19.0,0.5,95,135.0
265,A3,19.0,0.5,95,135.0
266,E3,19.0,0.5,95,135.0
267,A2,19.0,0.5,95,135.0
268,E4,19.5,0.5,95,135.0
269,C4,19.5,0.5,95,135.0
270,A3,19.5,0.5,95,135.0
271,E3,19.5,0.5,95,135.0
272,A2,19.5,0.5,95,135.0
273,E4,20.0,0.25,95,135.0
274,C4,20.0,0.25,95,135.0
275,A3,20.0,0.25,95,135.0
276,E3,20.0,0.25,95,135.0
277,A2,20.0,0.25,95,135.0
278,E4,20.25,0.25,95,135.0
279,C4,20.25,0.25,95,135.0
280,A3,20.25,0.25,95,135.0
281,E3,20.25,0.25,95,135.0
282,A2,20.25,0.25,95,135.0
283,E4,20.5,0.5,95,135.0
284,C4,20.5,0.5,95,135.0
285,A3,20.5,0.5,95,135.0
286,E3,20.5,0.5,95,135.0
287,A2,20.5,0.5,95,135.0
288,F#4,21.0,0.5,95,135.0
289,D4,21.0,0.5,95,135.0
290,A3,21.0,0.5,95,135.0
291,D3,21.0,0.5,95,135.0
292,F#4,21.5,0.25,95,135.0
293,D4,21.5,0.25,95,135.0
294,A3,21.5,0.25,95,135.0
295,D3,21.5,0.25,95,135.0
296,F#4,21.75,0.25,95,135.0
297,D4,21.75,0.25,95,135.0
298,A3,21.75,0.25,95,135.0
299,D3,21.75,0.25,95,135.0
300,F#4,22.0,0.5,95,135.0
301,D4,22.0,0.5,95,135.0
302,A3,22.0,0.5,95,135.0
303,D3,22.0,0.5,95,135.0
304,F#4,22.5,0.5,95,135.0
305,D4,22.5,0.5,95,135.0
306,A3,22.5,0.5,95,135.0
307,D3,22.5,0.5,95,135.0
308,F#4,23.0,0.25,95,135.0
309,D4,23.0,0.25,95,135.0
310,A3,23.0,0.25,95,135.0
311,D3,23.0,0.25,95,135.0
312,F#4,23.25,0.25,95,135.0
313,D4,23.25,0.25,95,135.0
314,A3,23.25,0.25,95,135.0
315,D3,23.25,0.25,95,135.0
316,F#4,23.5,0.5,95,135.0
317,D4,23.5,0.5,95,135.0
318,A3,23.5,0.5,95,135.0
319,D3,23.5,0.5,95,135.0
320,E3,24.0,0.5,95,135.0
321,E2,24.0,0.5,95,135.0
322,E4,24.0,0.5,95,135.0
323,B3,24.0,0.5,95,135.0
324,G3,24.0,0.5,95,135.0
325,E3,24.0,0.5,95,135.0
326,B2,24.0,0.5,95,135.0
327,E2,24.0,0.5,95,135.0
328,G#2,24.0,0.5,95,135.0
329,C2,24.0,0.5,95,135.0
330,E3,24.5,0.5,95,135.0
331,E2,24.5,0.5,95,135.0
332,G#2,24.5,0.5,95,135.0
333,E4,24.5,0.25,95,135.0
334,B3,24.5,0.25,95,135.0
335,G3,24.5,0.25,95,135.0
336,E3,24.5,0.25,95,135.0
337,B2,24.5,0.25,95,135.0
338,E2,24.5,0.25,95,135.0
339,E4,24.75,0.25,95,135.0
340,B3,24.75,0.25,95,135.0
341,G3,24.75,0.25,95,135.0
342,E3,24.75,0.25,95,135.0
343,B2,24.75,0.25,95,135.0
344,E2,24.75,0.25,95,135.0
345,E3,25.0,0.5,95,135.0
346,E2,25.0,0.5,95,135.0
347,E4,25.0,0.5,95,135.0
348,B3,25.0,0.5,95,135.0
349,G3,25.0,0.5,95,135.0
350,E3,25.0,0.5,95,135.0
351,B2,25.0,0.5,95,135.0
352,E2,25.0,0.5,95,135.0
353,G#2,25.0,0.5,95,135.0
354,C2,25.0,0.5,95,135.0
355,E3,25.5,0.5,95,135.0
356,E2,25.5,0.5,95,135.0
357,E4,25.5,0.5,95,135.0
358,B3,25.5,0.5,95,135.0
359,G3,25.5,0.5,95,135.0
360,E3,25.5,0.5,95,135.0
361,B2,25.5,0.5,95,135.0
362,E2,25.5,0.5,95,135.0
363,G#2,25.5,0.5,95,135.0
364,D2,25.5,0.5,95,135.0
365,D3,26.0,0.5,95,135.0
366,E2,26.0,0.5,95,135.0
367,G#2,26.0,0.5,95,135.0
368,E4,26.0,0.25,95,135.0
369,B3,26.0,0.25,95,135.0
370,G3,26.0,0.25,95,135.0
371,E3,26.0,0.25,95,135.0
372,B2,26.0,0.25,95,135.0
373,E2,26.0,0.25,95,135.0
374,E4,26.25,0.25,95,135.0
375,B3,26.25,0.25,95,135.0
376,G3,26.25,0.25,95,135.0
377,E3,26.25,0.25,95,135.0
378,B2,26.25,0.25,95,135.0
379,E2,26.25,0.25,95,135.0
380,E3,26.5,0.5,95,135.0
381,E2,26.5,0.5,95,135.0
382,G#2,26.5,0.5,95,135.0
383,E4,26.5,0.5,95,135.0
384,B3,26.5,0.5,95,135.0
385,G3,26.5,0.5,95,135.0
386,E3,26.5,0.5,95,135.0
387,B2,26.5,0.5,95,135.0
388,E2,26.5,0.5,95,135.0
389,G3,27.0,0.5,95,135.0
390,C2,27.0,0.5,95,135.0
391,E4,27.0,0.5,95,135.0
392,C4,27.0,0.5,95,135.0
393,G3,27.0,0.5,95,135.0
394,E3,27.0,0.5,95,135.0
395,C3,27.0,0.5,95,135.0
396,G#2,27.0,0.5,95,135.0
397,C2,27.0,0.5,95,135.0
398,G3,27.5,0.5,95,135.0
399,C2,27.5,0.5,95,135.0
400,G#2,27.5,0.5,95,135.0
401,E4,27.5,0.25,95,135.0
402,C4,27.5,0.25,95,135.0
403,G3,27.5,0.25,95,135.0
404,E3,27.5,0.25,95,135.0
405,C3,27.5,0.25,95,135.0
406,E4,27.75,0.25,95,135.0
407,C4,27.75,0.25,95,135.0
408,G3,27.75,0.25,95,135.0
409,E3,27.75,0.25,95,135.0
410,C3,27.75,0.25,95,135.0
411,G3,28.0,0.5,95,135.0
412,C2,28.0,0.5,95,135.0
413,E4,28.0,0.5,95,135.0
414,C4,28.0,0.5,95,135.0
415,G3,28.0,0.5,95,135.0
416,E3,28.0,0.5,95,135.0
417,C3,28.0,0.5,95,135.0
418,G#2,28.0,0.5,95,135.0
419,C2,28.0,0.5,95,135.0
420,G3,28.5,0.5,95,135.0
421,C2,28.5,0.5,95,135.0
422,E4,28.5,0.5,95,135.0
423,C4,28.5,0.5,95,135.0
424,G3,28.5,0.5,95,135.0
425,E3,28.5,0.5,95,135.0
426,C3,28.5,0.5,95,135.0
427,G#2,28.5,0.5,95,135.0
428,D2,28.5,0.5,95,135.0
429,F#3,29.0,0.5,95,135.0
430,C2,29.0,0.5,95,135.0
431,G#2,29.0,0.5,95,135.0
432,E4,29.0,0.25,95,135.0
433,C4,29.0,0.25,95,135.0
434,G3,29.0,0.25,95,135.0
435,E3,29.0,0.25,95,135.0
436,C3,29.0,0.25,95,135.0
437,E4,29.25,0.25,95,135.0
438,C4,29.25,0.25,95,135.0
439,G3,29.25,0.25,95,135.0
440,E3,29.25,0.25,95,135.0
441,C3,29.25,0.25,95,135.0
442,G3,29.5,0.5,95,135.0
443,C2,29.5,0.5,95,135.0
444,G#2,29.5,0.5,95,135.0
445,E4,29.5,0.5,95,135.0
446,C4,29.5,0.5,95,135.0
447,G3,29.5,0.5,95,135.0
448,E3,29.5,0.5,95,135.0
449,C3,29.5,0.5,95,135.0
450,A3,30.0,0.5,95,135.0
451,A1,30.0,0.5,95,135.0
452,E4,30.0,0.5,95,135.0
453,C4,30.0,0.5,95,135.0
454,A3,30.0,0.5,95,135.0
455,E3,30.0,0.5,95,135.0
456,A2,30.0,0.5,95,135.0
457,G#2,30.0,0.5,95,135.0
458,C2,30.0,0.5,95,135.0
459,A3,30.5,0.5,95,135.0
460,A1,30.5,0.5,95,135.0
461,G#2,30.5,0.5,95,135.0
462,E4,30.5,0.25,95,135.0
463,C4,30.5,0.25,95,135.0
464,A3,30.5,0.25,95,135.0
465,E3,30.5,0.25,95,135.0
466,A2,30.5,0.25,95,135.0
467,E4,30.75,0.25,95,135.0
468,C4,30.75,0.25,95,135.0
469,A3,30.75,0.25,95,135.0
470,E3,30.75,0.25,95,135.0
471,A2,30.75,0.25,95,135.0
472,A3,31.0,0.5,95,135.0
473,A1,31.0,0.5,95,135.0
474,E4,31.0,0.5,95,135.0
475,C4,31.0,0.5,95,135.0
476,A3,31.0,0.5,95,135.0
477,E3,31.0,0.5,95,135.0
478,A2,31.0,0.5,95,135.0
479,G#2,31.0,0.5,95,135.0
480,C2,31.0,0.5,95,135.0
481,G3,31.5,0.5,95,135.0
482,A1,31.5,0.5,95,135.0
483,E4,31.5,0.5,95,135.0
484,C4,31.5,0.5,95,135.0
485,A3,31.5,0.5,95,135.0
486,E3,31.5,0.5,95,135.0
487,A2,31.5,0.5,95,135.0
488,G#2,31.5,0.5,95,135.0
489,D2,31.5,0.5,95,135.0
490,G3,32.0,0.5,95,135.0
491,A1,32.0,0.5,95,135.0
492,G#2,32.0,0.5,95,135.0
493,E4,32.0,0.25,95,135.0
494,C4,32.0,0.25,95,135.0
495,A3,32.0,0.25,95,135.0
496,E3,32.0,0.25,95,135.0
497,A2,32.0,0.25,95,135.0
498,E4,32.25,0.25,95,135.0
499,C4,32.25,0.25,95,135.0
500,A3,32.25,0.25,95,135.0
501,E3,32.25,0.25,95,135.0
502,A2,32.25,0.25,95,135.0
503,G3,32.5,0.5,95,135.0
504,A1,32.5,0.5,95,135.0
505,G#2,32.5,0.5,95,135.0
506,E4,32.5,0.5,95,135.0
507,C4,32.5,0.5,95,135.0
508,A3,32.5,0.5,95,135.0
509,E3,32.5,0.5,95,135.0
510,A2,32.5,0.5,95,135.0
511,F#3,33.0,0.5,95,135.0
512,D2,33.0,0.5,95,135.0
513,F#4,33.0,0.5,95,135.0
514,D4,33.0,0.5,95,135.0
515,A3,33.0,0.5,95,135.0
516,D3,33.0,0.5,95,135.0
517,G#2,33.0,0.5,95,135.0
518,C2,33.0,0.5,95,135.0
519,G3,33.5,0.5,95,135.0
520,D2,33.5,0.5,95,135.0
521,G#2,33.5,0.5,95,135.0
522,F#4,33.5,0.25,95,135.0
523,D4,33.5,0.25,95,135.0
524,A3,33.5,0.25,95,135.0
525,D3,33.5,0.25,95,135.0
526,F#4,33.75,0.25,95,135.0
527,D4,33.75,0.25,95,135.0
528,A3,33.75,0.25,95,135.0
529,D3,33.75,0.25,95,135.0
530,F#3,34.0,0.5,95,135.0
531,D2,34.0,0.5,95,135.0
532,F#4,34.0,0.5,95,135.0
533,D4,34.0,0.5,95,135.0
534,A3,34.0,0.5,95,135.0
535,D3,34.0,0.5,95,135.0
536,G#2,34.0,0.5,95,135.0
537,C2,34.0,0.5,95,135.0
538,E3,34.5,0.5,95,135.0
539,F#2,34.5,0.5,95,135.0
540,F#4,34.5,0.5,95,135.0
541,D4,34.5,0.5,95,135.0
542,A3,34.5,0.5,95,135.0
543,D3,34.5,0.5,95,135.0
544,G#2,34.5,0.5,95,135.0
545,D2,34.5,0.5,95,135.0
546,D3,35.0,0.5,95,135.0
547,G2,35.0,0.5,95,135.0
548,G#2,35.0,0.5,95,135.0
549,F#4,35.0,0.25,95,135.0
550,D4,35.0,0.25,95,135.0
551,A3,35.0,0.25,95,135.0
552,D3,35.0,0.25,95,135.0
553,F#4,35.25,0.25,95,135.0
554,D4,35.25,0.25,95,135.0
555,A3,35.25,0.25,95,135.0
556,D3,35.25,0.25,95,135.0
557,B2,35.5,0.5,95,135.0
558,A2,35.5,0.5,95,135.0
559,G#2,35.5,0.5,95,135.0
560,F#4,35.5,0.5,95,135.0
561,D4,35.5,0.5,95,135.0
562,A3,35.5,0.5,95,135.0
563,D3,35.5,0.5,95,135.0
564,E3,36.0,0.5,95,135.0
565,E2,36.0,0.5,95,135.0
566,E4,36.0,0.5,95,135.0
567,B3,36.0,0.5,95,135.0
568,G3,36.0,0.5,95,135.0
569,E3,36.0,0.5,95,135.0
570,B2,36.0,0.5,95,135.0
571,E2,36.0,0.5,95,135.0
572,G#2,36.0,0.5,95,135.0
573,C2,36.0,0.5,95,135.0
574,E3,36.5,0.5,95,135.0
575,E2,36.5,0.5,95,135.0
576,G#2,36.5,0.5,95,135.0
577,E4,36.5,0.25,95,135.0
578,B3,36.5,0.25,95,135.0
579,G3,36.5,0.25,95,135.0
580,E3,36.5,0.25,95,135.0
581,B2,36.5,0.25,95,135.0
582,E2,36.5,0.25,95,135.0
583,E4,36.75,0.25,95,135.0
584,B3,36.75,0.25,95,135.0
585,G3,36.75,0.25,95,135.0
586,E3,36.75,0.25,95,135.0
587,B2,36.75,0.25,95,135.0
588,E2,36.75,0.25,95,135.0
589,E3,37.0,0.5,95,135.0
590,E2,37.0,0.5,95,135.0
591,E4,37.0,0.5,95,135.0
592,B3,37.0,0.5,95,135.0
593,G3,37.0,0.5,95,135.0
594,E3,37.0,0.5,95,135.0
595,B2,37.0,0.5,95,135.0
596,E2,37.0,0.5,95,135.0
597,G#2,37.0,0.5,95,135.0
598,C2,37.0,0.5,95,135.0
599,E3,37.5,0.5,95,135.0
600,E2,37.5,0.5,95,135.0
601,E4,37.5,0.5,95,135.0
602,B3,37.5,0.5,95,135.0
603,G3,37.5,0.5,95,135.0
604,E3,37.5,0.5,95,135.0
605,B2,37.5,0.5,95,135.0
606,E2,37.5,0.5,95,135.0
607,G#2,37.5,0.5,95,135.0
608,D2,37.5,0.5,95,135.0
609,D3,38.0,0.5,95,135.0
610,E2,38.0,0.5,95,135.0
611,G#2,38.0,0.5,95,135.0
612,E4,38.0,0.25,95,135.0
613,B3,38.0,0.25,95,135.0
614,G3,38.0,0.25,95,135.0
615,E3,38.0,0.25,95,135.0
616,B2,38.0,0.25,95,135.0
617,E2,38.0,0.25,95,135.0
618,E4,38.25,0.25,95,135.0
619,B3,38.25,0.25,95,135.0
620,G3,38.25,0.25,95,135.0
621,E3,38.25,0.25,95,135.0
622,B2,38.25,0.25,95,135.0
623,E2,38.25,0.25,95,135.0
624,E3,38.5,0.5,95,135.0
625,E2,38.5,0.5,95,135.0
626,G#2,38.5,0.5,95,135.0
627,E4,38.5,0.5,95,135.0
628,B3,38.5,0.5,95,135.0
629,G3,38.5,0.5,95,135.0
630,E3,38.5,0.5,95,135.0
631,B2,38.5,0.5,95,135.0
632,E2,38.5,0.5,95,135.0
633,G3,39.0,0.5,95,135.0
634,C2,39.0,0.5,95,135.0
635,E4,39.0,0.5,95,135.0
636,C4,39.0,0.5,95,135.0
637,G3,39.0,0.5,95,135.0
638,E3,39.0,0.5,95,135.0
639,C3,39.0,0.5,95,135.0
640,G#2,39.0,0.5,95,135.0
641,C2,39.0,0.5,95,135.0
642,G3,39.5,0.5,95,135.0
643,C2,39.5,0.5,95,135.0
644,G#2,39.5,0.5,95,135.0
645,E4,39.5,0.25,95,135.0
646,C4,39.5,0.25,95,135.0
647,G3,39.5,0.25,95,135.0
648,E3,39.5,0.25,95,135.0
649,C3,39.5,0.25,95,135.0
650,E4,39.75,0.25,95,135.0
651,C4,39.75,0.25,95,135.0
652,G3,39.75,0.25,95,135.0
653,E3,39.75,0.25,95,135.0
654,C3,39.75,0.25,95,135.0
655,G3,40.0,0.5,95,135.0
656,C2,40.0,0.5,95,135.0
657,E4,40.0,0.5,95,135.0
658,C4,40.0,0.5,95,135.0
659,G3,40.0,0.5,95,135.0
660,E3,40.0,0.5,95,135.0
661,C3,40.0,0.5,95,135.0
662,G#2,40.0,0.5,95,135.0
663,C2,40.0,0.5,95,135.0
664,G3,40.5,0.5,95,135.0
665,C2,40.5,0.5,95,135.0
666,E4,40.5,0.5,95,135.0
667,C4,40.5,0.5,95,135.0
668,G3,40.5,0.5,95,135.0
669,E3,40.5,0.5,95,135.0
670,C3,40.5,0.5,95,135.0
671,G#2,40.5,0.5,95,135.0
672,D2,40.5,0.5,95,135.0
673,F#3,41.0,0.5,95,135.0
674,C2,41.0,0.5,95,135.0
675,G#2,41.0,0.5,95,135.0
676,E4,41.0,0.25,95,135.0
677,C4,41.0,0.25,95,135.0
678,G3,41.0,0.25,95,135.0
679,E3,41.0,0.25,95,135.0
680,C3,41.0,0.25,95,135.0
681,E4,41.25,0.25,95,135.0
682,C4,41.25,0.25,95,135.0
683,G3,41.25,0.25,95,135.0
684,E3,41.25,0.25,95,135.0
685,C3,41.25,0.25,95,135.0
686,G3,41.5,0.5,95,135.0
687,C2,41.5,0.5,95,135.0
688,G#2,41.5,0.5,95,135.0
689,E4,41.5,0.5,95,135.0
690,C4,41.5,0.5,95,135.0
691,G3,41.5,0.5,95,135.0
692,E3,41.5,0.5,95,135.0
693,C3,41.5,0.5,95,135.0
694,A3,42.0,0.5,95,135.0
695,A1,42.0,0.5,95,135.0
696,E4,42.0,0.5,95,135.0
697,C4,42.0,0.5,95,135.0
698,A3,42.0,0.5,95,135.0
699,E3,42.0,0.5,95,135.0
700,A2,42.0,0.5,95,135.0
701,G#2,42.0,0.5,95,135.0
702,C2,42.0,0.5,95,135.0
703,A3,42.5,0.5,95,135.0
704,A1,42.5,0.5,95,135.0
705,G#2,42.5,0.5,95,135.0
706,E4,42.5,0.25,95,135.0
707,C4,42.5,0.25,95,135.0
708,A3,42.5,0.25,95,135.0
709,E3,42.5,0.25,95,135.0
710,A2,42.5,0.25,95,135.0
711,E4,42.75,0.25,95,135.0
712,C4,42.75,0.25,95,135.0
713,A3,42.75,0.25,95,135.0
714,E3,42.75,0.25,95,135.0
715,A2,42.75,0.25,95,135.0
716,A3,43.0,0.5,95,135.0
717,A1,43.0,0.5,95,135.0
718,E4,43.0,0.5,95,135.0
719,C4,43.0,0.5,95,135.0
720,A3,43.0,0.5,95,135.0
721,E3,43.0,0.5,95,135.0
722,A2,43.0,0.5,95,135.0
723,G#2,43.0,0.5,95,135.0
724,C2,43.0,0.5,95,135.0
725,G3,43.5,0.5,95,135.0
726,A1,43.5,0.5,95,135.0
727,E4,43.5,0.5,95,135.0
728,C4,43.5,0.5,95,135.0
729,A3,43.5,0.5,95,135.0
730,E3,43.5,0.5,95,135.0
731,A2,43.5,0.5,95,135.0
732,G#2,43.5,0.5,95,135.0
733,D2,43.5,0.5,95,135.0
734,G3,44.0,0.5,95,135.0
735,A1,44.0,0.5,95,135.0
736,G#2,44.0,0.5,95,135.0
737,E4,44.0,0.25,95,135.0
738,C4,44.0,0.25,95,135.0
739,A3,44.0,0.25,95,135.0
740,E3,44.0,0.25,95,135.0
741,A2,44.0,0.25,95,135.0
742,E4,44.25,0.25,95,135.0
743,C4,44.25,0.25,95,135.0
744,A3,44.25,0.25,95,135.0
745,E3,44.25,0.25,95,135.0
746,A2,44.25,0.25,95,135.0
747,G3,44.5,0.5,95,135.0
748,A1,44.5,0.5,95,135.0
749,G#2,44.5,0.5,95,135.0
750,E4,44.5,0.5,95,135.0
751,C4,44.5,0.5,95,135.0
752,A3,44.5,0.5,95,135.0
753,E3,44.5,0.5,95,135.0
754,A2,44.5,0.5,95,135.0
755,F#3,45.0,0.5,95,135.0
756,D2,45.0,0.5,95,135.0
757,F#4,45.0,0.5,95,135.0
758,D4,45.0,0.5,95,135.0
759,A3,45.0,0.5,95,135.0
760,D3,45.0,0.5,95,135.0
761,G#2,45.0,0.5,95,135.0
762,C2,45.0,0.5,95,135.0
763,G3,45.5,0.5,95,135.0
764,D2,45.5,0.5,95,135.0
765,G#2,45.5,0.5,95,135.0
766,F#4,45.5,0.25,95,135.0
767,D4,45.5,0.25,95,135.0
768,A3,45.5,0.25,95,135.0
769,D3,45.5,0.25,95,135.0
770,F#4,45.75,0.25,95,135.0
771,D4,45.75,0.25,95,135.0
772,A3,45.75,0.25,95,135.0
773,D3,45.75,0.25,95,135.0
774,F#3,46.0,0.5,95,135.0
775,D2,46.0,0.5,95,135.0
776,F#4,46.0,0.5,95,135.0
777,D4,46.0,0.5,95,135.0
778,A3,46.0,0.5,95,135.0
779,D3,46.0,0.5,95,135.0
780,G#2,46.0,0.5,95,135.0
781,C2,46.0,0.5,95,135.0
782,E3,46.5,0.5,95,135.0
783,F#2,46.5,0.5,95,135.0
784,F#4,46.5,0.5,95,135.0
785,D4,46.5,0.5,95,135.0
786,A3,46.5,0.5,95,135.0
787,D3,46.5,0.5,95,135.0
788,G#2,46.5,0.5,95,135.0
789,D2,46.5,0.5,95,135.0
790,D3,47.0,0.5,95,135.0
791,G2,47.0,0.5,95,135.0
792,G#2,47.0,0.5,95,135.0
793,F#4,47.0,0.25,95,135.0
794,D4,47.0,0.25,95,135.0
795,A3,47.0,0.25,95,135.0
796,D3,47.0,0.25,95,135.0
797,F#4,47.25,0.25,95,135.0
798,D4,47.25,0.25,95,135.0
799,A3,47.25,0.25,95,135.0
800,D3,47.25,0.25,95,135.0
801,B2,47.5,0.5,95,135.0
802,A2,47.5,0.5,95,135.0
803,G#2,47.5,0.5,95,135.0
804,F#4,47.5,0.5,95,135.0
805,D4,47.5,0.5,95,135.0
806,A3,47.5,0.5,95,135.0
807,D3,47.5,0.5,95,135.0
808,E3,48.0,0.5,95,135.0
809,E2,48.0,0.5,95,135.0
810,E4,48.0,0.5,95,135.0
811,B3,48.0,0.5,95,135.0
812,G3,48.0,0.5,95,135.0
813,E3,48.0,0.5,95,135.0
814,B2,48.0,0.5,95,135.0
815,E2,48.0,0.5,95,135.0
816,G#2,48.0,0.5,95,135.0
817,C2,48.0,0.5,95,135.0
818,E3,48.5,0.5,95,135.0
819,E2,48.5,0.5,95,135.0
820,G#2,48.5,0.5,95,135.0
821,E4,48.5,0.25,95,135.0
822,B3,48.5,0.25,95,135.0
823,G3,48.5,0.25,95,135.0
824,E3,48.5,0.25,95,135.0
825,B2,48.5,0.25,95,135.0
826,E2,48.5,0.25,95,135.0
827,E4,48.75,0.25,95,135.0
828,B3,48.75,0.25,95,135.0
829,G3,48.75,0.25,95,135.0
830,E3,48.75,0.25,95,135.0
831,B2,48.75,0.25,95,135.0
832,E2,48.75,0.25,95,135.0
833,E3,49.0,0.5,95,135.0
834,E2,49.0,0.5,95,135.0
835,E4,49.0,0.5,95,135.0
836,B3,49.0,0.5,95,135.0
837,G3,49.0,0.5,95,135.0
838,E3,49.0,0.5,95,135.0
839,B2,49.0,0.5,95,135.0
840,E2,49.0,0.5,95,135.0
841,G#2,49.0,0.5,95,135.0
842,C2,49.0,0.5,95,135.0
843,E3,49.5,0.5,95,135.0
844,E2,49.5,0.5,95,135.0
845,E4,49.5,0.5,95,135.0
846,B3,49.5,0.5,95,135.0
847,G3,49.5,0.5,95,135.0
848,E3,49.5,0.5,95,135.0
849,B2,49.5,0.5,95,135.0
850,E2,49.5,0.5,95,135.0
851,G#2,49.5,0.5,95,135.0
852,D2,49.5,0.5,95,135.0
853,D3,50.0,0.5,95,135.0
854,E2,50.0,0.5,95,135.0
855,G#2,50.0,0.5,95,135.0
856,E4,50.0,0.25,95,135.0
857,B3,50.0,0.25,95,135.0
858,G3,50.0,0.25,95,135.0
859,E3,50.0,0.25,95,135.0
860,B2,50.0,0.25,95,135.0
861,E2,50.0,0.25,95,135.0
862,E4,50.25,0.25,95,135.0
863,B3,50.25,0.25,95,135.0
864,G3,50.25,0.25,95,135.0
865,E3,50.25,0.25,95,135.0
866,B2,50.25,0.25,95,135.0
867,E2,50.25,0.25,95,135.0
868,E3,50.5,0.5,95,135.0
869,E2,50.5,0.5,95,135.0
870,G#2,50.5,0.5,95,135.0
871,E4,50.5,0.5,95,135.0
872,B3,50.5,0.5,95,135.0
873,G3,50.5,0.5,95,135.0
874,E3,50.5,0.5,95,135.0
875,B2,50.5,0.5,95,135.0
876,E2,50.5,0.5,95,135.0
877,G3,51.0,0.5,95,135.0
878,C2,51.0,0.5,95,135.0
879,E4,51.0,0.5,95,135.0
880,C4,51.0,0.5,95,135.0
881,G3,51.0,0.5,95,135.0
882,E3,51.0,0.5,95,135.0
883,C3,51.0,0.5,95,135.0
884,G#2,51.0,0.5,95,135.0
885,C2,51.0,0.5,95,135.0
886,G3,51.5,0.5,95,135.0
887,C2,51.5,0.5,95,135.0
888,G#2,51.5,0.5,95,135.0
889,E4,51.5,0.25,95,135.0
890,C4,51.5,0.25,95,135.0
891,G3,51.5,0.25,95,135.0
892,E3,51.5,0.25,95,135.0
893,C3,51.5,0.25,95,135.0
894,E4,51.75,0.25,95,135.0
895,C4,51.75,0.25,95,135.0
896,G3,51.75,0.25,95,135.0
897,E3,51.75,0.25,95,135.0
898,C3,51.75,0.25,95,135.0
899,G3,52.0,0.5,95,135.0
900,C2,52.0,0.5,95,135.0
901,E4,52.0,0.5,95,135.0
902,C4,52.0,0.5,95,135.0
903,G3,52.0,0.5,95,135.0
904,E3,52.0,0.5,95,135.0
905,C3,52.0,0.5,95,135.0
906,G#2,52.0,0.5,95,135.0
907,C2,52.0,0.5,95,135.0
908,G3,52.5,0.5,95,135.0
909,C2,52.5,0.5,95,135.0
910,E4,52.5,0.5,95,135.0
911,C4,52.5,0.5,95,135.0
912,G3,52.5,0.5,95,135.0
913,E3,52.5,0.5,95,135.0
914,C3,52.5,0.5,95,135.0
915,G#2,52.5,0.5,95,135.0
916,D2,52.5,0.5,95,135.0
917,F#3,53.0,0.5,95,135.0
918,C2,53.0,0.5,95,135.0
919,G#2,53.0,0.5,95,135.0
920,E4,53.0,0.25,95,135.0
921,C4,53.0,0.25,95,135.0
922,G3,53.0,0.25,95,135.0
923,E3,53.0,0.25,95,135.0
924,C3,53.0,0.25,95,135.0
925,E4,53.25,0.25,95,135.0
926,C4,53.25,0.25,95,135.0
927,G3,53.25,0.25,95,135.0
928,E3,53.25,0.25,95,135.0
929,C3,53.25,0.25,95,135.0
930,G3,53.5,0.5,95,135.0
931,C2,53.5,0.5,95,135.0
932,G#2,53.5,0.5,95,135.0
933,E4,53.5,0.5,95,135.0
934,C4,53.5,0.5,95,135.0
935,G3,53.5,0.5,95,135.0
936,E3,53.5,0.5,95,135.0
937,C3,53.5,0.5,95,135.0
938,A3,54.0,0.5,95,135.0
939,A1,54.0,0.5,95,135.0
940,E4,54.0,0.5,95,135.0
941,C4,54.0,0.5,95,135.0
942,A3,54.0,0.5,95,135.0
943,E3,54.0,0.5,95,135.0
944,A2,54.0,0.5,95,135.0
945,G#2,54.0,0.5,95,135.0
946,C2,54.0,0.5,95,135.0
947,A3,54.5,0.5,95,135.0
948,A1,54.5,0.5,95,135.0
949,G#2,54.5,0.5,95,135.0
950,E4,54.5,0.25,95,135.0
951,C4,54.5,0.25,95,135.0
952,A3,54.5,0.25,95,135.0
953,E3,54.5,0.25,95,135.0
954,A2,54.5,0.25,95,135.0
955,E4,54.75,0.25,95,135.0
956,C4,54.75,0.25,95,135.0
957,A3,54.75,0.25,95,135.0
958,E3,54.75,0.25,95,135.0
959,A2,54.75,0.25,95,135.0
960,A3,55.0,0.5,95,135.0
961,A1,55.0,0.5,95,135.0
962,E4,55.0,0.5,95,135.0
963,C4,55.0,0.5,95,135.0
964,A3,55.0,0.5,95,135.0
965,E3,55.0,0.5,95,135.0
966,A2,55.0,0.5,95,135.0
967,G#2,55.0,0.5,95,135.0
968,C2,55.0,0.5,95,135.0
969,G3,55.5,0.5,95,135.0
970,A1,55.5,0.5,95,135.0
971,E4,55.5,0.5,95,135.0
972,C4,55.5,0.5,95,135.0
973,A3,55.5,0.5,95,135.0
974,E3,55.5,0.5,95,135.0
975,A2,55.5,0.5,95,135.0
976,G#2,55.5,0.5,95,135.0
977,D2,55.5,0.5,95,135.0
978,G3,56.0,0.5,95,135.0
979,A1,56.0,0.5,95,135.0
980,G#2,56.0,0.5,95,135.0
981,E4,56.0,0.25,95,135.0
982,C4,56.0,0.25,95,135.0
983,A3,56.0,0.25,95,135.0
984,E3,56.0,0.25,95,135.0
985,A2,56.0,0.25,95,135.0
986,E4,56.25,0.25,95,135.0
987,C4,56.25,0.25,95,135.0
988,A3,56.25,0.25,95,135.0
989,E3,56.25,0.25,95,135.0
990,A2,56.25,0.25,95,135.0
991,G3,56.5,0.5,95,135.0
992,A1,56.5,0.5,95,135.0
993,G#2,56.5,0.5,95,135.0
994,E4,56.5,0.5,95,135.0
995,C4,56.5,0.5,95,135.0
996,A3,56.5,0.5,95,135.0
997,E3,56.5,0.5,95,135.0
998,A2,56.5,0.5,95,135.0
999,F#3,57.0,0.5,95,135.0
1000,D2,57.0,0.5,95,135.0
1001,F#4,57.0,0.5,95,135.0
1002,D4,57.0,0.5,95,135.0
1003,A3,57.0,0.5,95,135.0
1004,D3,57.0,0.5,95,135.0
1005,G#2,57.0,0.5,95,135.0
1006,C2,57.0,0.5,95,135.0
1007,G3,57.5,0.5,95,135.0
1008,D2,57.5,0.5,95,135.0
1009,G#2,57.5,0.5,95,135.0
1010,F#4,57.5,0.25,95,135.0
1011,D4,57.5,0.25,95,135.0
1012,A3,57.5,0.25,95,135.0
1013,D3,57.5,0.25,95,135.0
1014,F#4,57.75,0.25,95,135.0
1015,D4,57.75,0.25,95,135.0
1016,A3,57.75,0.25,95,135.0
1017,D3,57.75,0.25,95,135.0
1018,F#3,58.0,0.5,95,135.0
1019,D2,58.0,0.5,95,135.0
1020,F#4,58.0,0.5,95,135.0
1021,D4,58.0,0.5,95,135.0
1022,A3,58.0,0.5,95,135.0
1023,D3,58.0,0.5,95,135.0
1024,G#2,58.0,0.5,95,135.0
1025,C2,58.0,0.5,95,135.0
1026,E3,58.5,0.5,95,135.0
1027,F#2,58.5,0.5,95,135.0
1028,F#4,58.5,0.5,95,135.0
1029,D4,58.5,0.5,95,135.0
1030,A3,58.5,0.5,95,135.0
1031,D3,58.5,0.5,95,135.0
1032,G#2,58.5,0.5,95,135.0
1033,D2,58.5,0.5,95,135.0
1034,D3,59.0,0.5,95,135.0
1035,G2,59.0,0.5,95,135.0
1036,G#2,59.0,0.5,95,135.0
1037,F#4,59.0,0.25,95,135.0
1038,D4,59.0,0.25,95,135.0
1039,A3,59.0,0.25,95,135.0
1040,D3,59.0,0.25,95,135.0
1041,F#4,59.25,0.25,95,135.0
1042,D4,59.25,0.25,95,135.0
1043,A3,59.25,0.25,95,135.0
1044,D3,59.25,0.25,95,135.0
1045,B2,59.5,0.5,95,135.0
1046,A2,59.5,0.5,95,135.0
1047,G#2,59.5,0.5,95,135.0
1048,F#4,59.5,0.5,95,135.0
1049,D4,59.5,0.5,95,135.0
1050,A3,59.5,0.5,95,135.0
1051,D3,59.5,0.5,95,135.0
1052,E3,60.0,0.5,95,135.0
1053,E2,60.0,0.5,95,135.0
1054,E4,60.0,0.5,95,135.0
1055,B3,60.0,0.5,95,135.0
1056,G3,60.0,0.5,95,135.0
1057,E3,60.0,0.5,95,135.0
1058,B2,60.0,0.5,95,135.0
1059,E2,60.0,0.5,95,135.0
1060,G#2,60.0,0.5,95,135.0
1061,C2,60.0,0.5,95,135.0
1062,E3,60.5,0.5,95,135.0
1063,E2,60.5,0.5,95,135.0
1064,G#2,60.5,0.5,95,135.0
1065,E4,60.5,0.25,95,135.0
1066,B3,60.5,0.25,95,135.0
1067,G3,60.5,0.25,95,135.0
1068,E3,60.5,0.25,95,135.0
1069,B2,60.5,0.25,95,135.0
1070,E2,60.5,0.25,95,135.0
1071,E4,60.75,0.25,95,135.0
1072,B3,60.75,0.25,95,135.0
1073,G3,60.75,0.25,95,135.0
1074,E3,60.75,0.25,95,135.0
1075,B2,60.75,0.25,95,135.0
1076,E2,60.75,0.25,95,135.0
1077,E3,61.0,0.5,95,135.0
1078,E2,61.0,0.5,95,135.0
1079,E4,61.0,0.5,95,135.0
1080,B3,61.0,0.5,95,135.0
1081,G3,61.0,0.5,95,135.0
1082,E3,61.0,0.5,95,135.0
1083,B2,61.0,0.5,95,135.0
1084,E2,61.0,0.5,95,135.0
1085,G#2,61.0,0.5,95,135.0
1086,C2,61.0,0.5,95,135.0
1087,E3,61.5,0.5,95,135.0
1088,E2,61.5,0.5,95,135.0
1089,E4,61.5,0.5,95,135.0
1090,B3,61.5,0.5,95,135.0
1091,G3,61.5,0.5,95,135.0
1092,E3,61.5,0.5,95,135.0
1093,B2,61.5,0.5,95,135.0
1094,E2,61.5,0.5,95,135.0
1095,G#2,61.5,0.5,95,135.0
1096,D2,61.5,0.5,95,135.0
1097,D3,62.0,0.5,95,135.0
1098,E2,62.0,0.5,95,135.0
1099,G#2,62.0,0.5,95,135.0
1100,E4,62.0,0.25,95,135.0
1101,B3,62.0,0.25,95,135.0
1102,G3,62.0,0.25,95,135.0
1103,E3,62.0,0.25,95,135.0
1104,B2,62.0,0.25,95,135.0
1105,E2,62.0,0.25,95,135.0
1106,E4,62.25,0.25,95,135.0
1107,B3,62.25,0.25,95,135.0
1108,G3,62.25,0.25,95,135.0
1109,E3,62.25,0.25,95,135.0
1110,B2,62.25,0.25,95,135.0
1111,E2,62.25,0.25,95,135.0
1112,E3,62.5,0.5,95,135.0
1113,E2,62.5,0.5,95,135.0
1114,G#2,62.5,0.5,95,135.0
1115,E4,62.5,0.5,95,135.0
1116,B3,62.5,0.5,95,135.0
1117,G3,62.5,0.5,95,135.0
1118,E3,62.5,0.5,95,135.0
1119,B2,62.5,0.5,95,135.0
1120,E2,62.5,0.5,95,135.0
1121,G3,63.0,0.5,95,135.0
1122,C2,63.0,0.5,95,135.0
1123,E4,63.0,0.5,95,135.0
1124,C4,63.0,0.5,95,135.0
1125,G3,63.0,0.5,95,135.0
1126,E3,63.0,0.5,95,135.0
1127,C3,63.0,0.5,95,135.0
1128,G#2,63.0,0.5,95,135.0
1129,C2,63.0,0.5,95,135.0
1130,G3,63.5,0.5,95,135.0
1131,C2,63.5,0.5,95,135.0
1132,G#2,63.5,0.5,95,135.0
1133,E4,63.5,0.25,95,135.0
1134,C4,63.5,0.25,95,135.0
1135,G3,63.5,0.25,95,135.0
1136,E3,63.5,0.25,95,135.0
1137,C3,63.5,0.25,95,135.0
1138,E4,63.75,0.25,95,135.0
1139,C4,63.75,0.25,95,135.0
1140,G3,63.75,0.25,95,135.0
1141,E3,63.75,0.25,95,135.0
1142,C3,63.75,0.25,95,135.0
1143,G3,64.0,0.5,95,135.0
1144,C2,64.0,0.5,95,135.0
1145,E4,64.0,0.5,95,135.0
1146,C4,64.0,0.5,95,135.0
1147,G3,64.0,0.5,95,135.0
1148,E3,64.0,0.5,95,135.0
1149,C3,64.0,0.5,95,135.0
1150,G#2,64.0,0.5,95,135.0
1151,C2,64.0,0.5,95,135.0
1152,G3,64.5,0.5,95,135.0
1153,C2,64.5,0.5,95,135.0
1154,E4,64.5,0.5,95,135.0
1155,C4,64.5,0.5,95,135.0
1156,G3,64.5,0.5,95,135.0
1157,E3,64.5,0.5,95,135.0
1158,C3,64.5,0.5,95,135.0
1159,G#2,64.5,0.5,95,135.0
1160,D2,64.5,0.5,95,135.0
1161,F#3,65.0,0.5,95,135.0
1162,C2,65.0,0.5,95,135.0
1163,G#2,65.0,0.5,95,135.0
1164,E4,65.0,0.25,95,135.0
1165,C4,65.0,0.25,95,135.0
1166,G3,65.0,0.25,95,135.0
1167,E3,65.0,0.25,95,135.0
1168,C3,65.0,0.25,95,135.0
1169,E4,65.25,0.25,95,135.0
1170,C4,65.25,0.25,95,135.0
1171,G3,65.25,0.25,95,135.0
1172,E3,65.25,0.25,95,135.0
1173,C3,65.25,0.25,95,135.0
1174,G3,65.5,0.5,95,135.0
1175,C2,65.5,0.5,95,135.0
1176,G#2,65.5,0.5,95,135.0
1177,E4,65.5,0.5,95,135.0
1178,C4,65.5,0.5,95,135.0
1179,G3,65.5,0.5,95,135.0
1180,E3,65.5,0.5,95,135.0
1181,C3,65.5,0.5,95,135.0
1182,A3,66.0,0.5,95,135.0
1183,A1,66.0,0.5,95,135.0
1184,E4,66.0,0.5,95,135.0
1185,C4,66.0,0.5,95,135.0
1186,A3,66.0,0.5,95,135.0
1187,E3,66.0,0.5,95,135.0
1188,A2,66.0,0.5,95,135.0
1189,G#2,66.0,0.5,95,135.0
1190,C2,66.0,0.5,95,135.0
1191,A3,66.5,0.5,95,135.0
1192,A1,66.5,0.5,95,135.0
1193,G#2,66.5,0.5,95,135.0
1194,E4,66.5,0.25,95,135.0
1195,C4,66.5,0.25,95,135.0
1196,A3,66.5,0.25,95,135.0
1197,E3,66.5,0.25,95,135.0
1198,A2,66.5,0.25,95,135.0
1199,E4,66.75,0.25,95,135.0
1200,C4,66.75,0.25,95,135.0
1201,A3,66.75,0.25,95,135.0
1202,E3,66.75,0.25,95,135.0
1203,A2,66.75,0.25,95,135.0
1204,A3,67.0,0.5,95,135.0
1205,A1,67.0,0.5,95,135.0
1206,E4,67.0,0.5,95,135.0
1207,C4,67.0,0.5,95,135.0
1208,A3,67.0,0.5,95,135.0
1209,E3,67.0,0.5,95,135.0
1210,A2,67.0,0.5,95,135.0
1211,G#2,67.0,0.5,95,135.0
1212,C2,67.0,0.5,95,135.0
1213,G3,67.5,0.5,95,135.0
1214,A1,67.5,0.5,95,135.0
1215,E4,67.5,0.5,95,135.0
1216,C4,67.5,0.5,95,135.0
1217,A3,67.5,0.5,95,135.0
1218,E3,67.5,0.5,95,135.0
1219,A2,67.5,0.5,95,135.0
1220,G#2,67.5,0.5,95,135.0
1221,D2,67.5,0.5,95,135.0
1222,G3,68.0,0.5,95,135.0
1223,A1,68.0,0.5,95,135.0
1224,G#2,68.0,0.5,95,135.0
1225,E4,68.0,0.25,95,135.0
1226,C4,68.0,0.25,95,135.0
1227,A3,68.0,0.25,95,135.0
1228,E3,68.0,0.25,95,135.0
1229,A2,68.0,0.25,95,135.0
1230,E4,68.25,0.25,95,135.0
1231,C4,68.25,0.25,95,135.0
1232,A3,68.25,0.25,95,135.0
1233,E3,68.25,0.25,95,135.0
1234,A2,68.25,0.25,95,135.0
1235,G3,68.5,0.5,95,135.0
1236,A1,68.5,0.5,95,135.0
1237,G#2,68.5,0.5,95,135.0
1238,E4,68.5,0.5,95,135.0
1239,C4,68.5,0.5,95,135.0
1240,A3,68.5,0.5,95,135.0
1241,E3,68.5,0.5,95,135.0
1242,A2,68.5,0.5,95,135.0
1243,F#3,69.0,0.5,95,135.0
1244,D2,69.0,0.5,95,135.0
1245,F#4,69.0,0.5,95,135.0
1246,D4,69.0,0.5,95,135.0
1247,A3,69.0,0.5,95,135.0
1248,D3,69.0,0.5,95,135.0
1249,G#2,69.0,0.5,95,135.0
1250,C2,69.0,0.5,95,135.0
1251,G3,69.5,0.5,95,135.0
1252,D2,69.5,0.5,95,135.0
1253,G#2,69.5,0.5,95,135.0
1254,F#4,69.5,0.25,95,135.0
1255,D4,69.5,0.25,95,135.0
1256,A3,69.5,0.25,95,135.0
1257,D3,69.5,0.25,95,135.0
1258,F#4,69.75,0.25,95,135.0
1259,D4,69.75,0.25,95,135.0
1260,A3,69.75,0.25,95,135.0
1261,D3,69.75,0.25,95,135.0
1262,F#3,70.0,0.5,95,135.0
1263,D2,70.0,0.5,95,135.0
1264,F#4,70.0,0.5,95,135.0
1265,D4,70.0,0.5,95,135.0
1266,A3,70.0,0.5,95,135.0
1267,D3,70.0,0.5,95,135.0
1268,G#2,70.0,0.5,95,135.0
1269,C2,70.0,0.5,95,135.0
1270,E3,70.5,0.5,95,135.0
1271,F#2,70.5,0.5,95,135.0
1272,F#4,70.5,0.5,95,135.0
1273,D4,70.5,0.5,95,135.0
1274,A3,70.5,0.5,95,135.0
1275,D3,70.5,0.5,95,135.0
1276,G#2,70.5,0.5,95,135.0
1277,D2,70.5,0.5,95,135.0
1278,D3,71.0,0.5,95,135.0
1279,G2,71.0,0.5,95,135.0
1280,F#4,71.0,0.25,95,135.0
1281,D4,71.0,0.25,95,135.0
1282,A3,71.0,0.25,95,135.0
1283,D3,71.0,0.25,95,135.0
1284,G#2,71.0,0.5,95,135.0
1285,C2,71.0,0.5,95,135.0
1286,F#4,71.25,0.25,95,135.0
1287,D4,71.25,0.25,95,135.0
1288,A3,71.25,0.25,95,135.0
1289,D3,71.25,0.25,95,135.0
1290,B2,71.5,0.5,95,135.0
1291,A2,71.5,0.5,95,135.0
1292,F#4,71.5,0.5,95,135.0
1293,D4,71.5,0.5,95,135.0
1294,A3,71.5,0.5,95,135.0
1295,D3,71.5,0.5,95,135.0
1296,G#2,71.5,0.5,95,135.0
1297,C2,71.5,0.5,95,135.0
1298,E3,72.0,2.0,95,135.0
1299,E2,72.0,0.5,95,135.0
1300,E4,72.0,0.5,95,135.0
1301,B3,72.0,0.5,95,135.0
1302,G3,72.0,0.5,95,135.0
1303,E3,72.0,0.5,95,135.0
1304,B2,72.0,0.5,95,135.0
1305,E2,72.0,0.5,95,135.0
1306,G#2,72.0,0.5,95,135.0
1307,C2,72.0,0.5,95,135.0
1308,C#3,72.0,0.5,95,135.0
1309,E2,72.5,0.5,95,135.0
1310,G#2,72.5,0.5,95,135.0
1311,E4,72.5,0.25,95,135.0
1312,B3,72.5,0.25,95,135.0
1313,G3,72.5,0.25,95,135.0
1314,E3,72.5,0.25,95,135.0
1315,B2,72.5,0.25,95,135.0
1316,E2,72.5,0.25,95,135.0
1317,E4,72.75,0.25,95,135.0
1318,B3,72.75,0.25,95,135.0
1319,G3,72.75,0.25,95,135.0
1320,E3,72.75,0.25,95,135.0
1321,B2,72.75,0.25,95,135.0
1322,E2,72.75,0.25,95,135.0
1323,E2,73.0,0.5,95,135.0
1324,E4,73.0,0.5,95,135.0
1325,B3,73.0,0.5,95,135.0
1326,G3,73.0,0.5,95,135.0
1327,E3,73.0,0.5,95,135.0
1328,B2,73.0,0.5,95,135.0
1329,E2,73.0,0.5,95,135.0
1330,G#2,73.0,0.5,95,135.0
1331,C2,73.0,0.5,95,135.0
1332,E2,73.5,0.5,95,135.0
1333,E4,73.5,0.5,95,135.0
1334,B3,73.5,0.5,95,135.0
1335,G3,73.5,0.5,95,135.0
1336,E3,73.5,0.5,95,135.0
1337,B2,73.5,0.5,95,135.0
1338,E2,73.5,0.5,95,135.0
1339,G#2,73.5,0.5,95,135.0
1340,D2,73.5,0.5,95,135.0
1341,E2,74.0,0.5,95,135.0
1342,G#2,74.0,0.5,95,135.0
1343,E4,74.0,0.25,95,135.0
1344,B3,74.0,0.25,95,135.0
1345,G3,74.0,0.25,95,135.0
1346,E3,74.0,0.25,95,135.0
1347,B2,74.0,0.25,95,135.0
1348,E2,74.0,0.25,95,135.0
1349,E4,74.25,0.25,95,135.0
1350,B3,74.25,0.25,95,135.0
1351,G3,74.25,0.25,95,135.0
1352,E3,74.25,0.25,95,135.0
1353,B2,74.25,0.25,95,135.0
1354,E2,74.25,0.25,95,135.0
1355,E2,74.5,0.5,95,135.0
1356,G#2,74.5,0.5,95,135.0
1357,E4,74.5,0.5,95,135.0
1358,B3,74.5,0.5,95,135.0
1359,G3,74.5,0.5,95,135.0
1360,E3,74.5,0.5,95,135.0
1361,B2,74.5,0.5,95,135.0
1362,E2,74.5,0.5,95,135.0
1363,C2,75.0,0.5,95,135.0
1364,E4,75.0,0.5,95,135.0
1365,C4,75.0,0.5,95,135.0
1366,G3,75.0,0.5,95,135.0
1367,E3,75.0,0.5,95,135.0
1368,C3,75.0,0.5,95,135.0
1369,G#2,75.0,0.5,95,135.0
1370,C2,75.0,0.5,95,135.0
1371,C2,75.5,0.5,95,135.0
1372,G#2,75.5,0.5,95,135.0
1373,E4,75.5,0.25,95,135.0
1374,C4,75.5,0.25,95,135.0
1375,G3,75.5,0.25,95,135.0
1376,E3,75.5,0.25,95,135.0
1377,C3,75.5,0.25,95,135.0
1378,E4,75.75,0.25,95,135.0
1379,C4,75.75,0.25,95,135.0
1380,G3,75.75,0.25,95,135.0
1381,E3,75.75,0.25,95,135.0
1382,C3,75.75,0.25,95,135.0
1383,C2,76.0,0.5,95,135.0
1384,E4,76.0,0.5,95,135.0
1385,C4,76.0,0.5,95,135.0
1386,G3,76.0,0.5,95,135.0
1387,E3,76.0,0.5,95,135.0
1388,C3,76.0,0.5,95,135.0
1389,G#2,76.0,0.5,95,135.0
1390,C2,76.0,0.5,95,135.0
1391,C2,76.5,0.5,95,135.0
1392,E4,76.5,0.5,95,135.0
1393,C4,76.5,0.5,95,135.0
1394,G3,76.5,0.5,95,135.0
1395,E3,76.5,0.5,95,135.0
1396,C3,76.5,0.5,95,135.0
1397,G#2,76.5,0.5,95,135.0
1398,D2,76.5,0.5,95,135.0
1399,C2,77.0,0.5,95,135.0
1400,G#2,77.0,0.5,95,135.0
1401,E4,77.0,0.25,95,135.0
1402,C4,77.0,0.25,95,135.0
1403,G3,77.0,0.25,95,135.0
1404,E3,77.0,0.25,95,135.0
1405,C3,77.0,0.25,95,135.0
1406,E4,77.25,0.25,95,135.0
1407,C4,77.25,0.25,95,135.0
1408,G3,77.25,0.25,95,135.0
1409,E3,77.25,0.25,95,135.0
1410,C3,77.25,0.25,95,135.0
1411,C2,77.5,0.5,95,135.0
1412,G#2,77.5,0.5,95,135.0
1413,E4,77.5,0.5,95,135.0
1414,C4,77.5,0.5,95,135.0
1415,G3,77.5,0.5,95,135.0
1416,E3,77.5,0.5,95,135.0
1417,C3,77.5,0.5,95,135.0
1418,A1,78.0,0.5,95,135.0
1419,E4,78.0,0.5,95,135.0
1420,C4,78.0,0.5,95,135.0
1421,A3,78.0,0.5,95,135.0
1422,E3,78.0,0.5,95,135.0
1423,A2,78.0,0.5,95,135.0
1424,G#2,78.0,0.5,95,135.0
1425,C2,78.0,0.5,95,135.0
1426,A1,78.5,0.5,95,135.0
1427,G#2,78.5,0.5,95,135.0
1428,E4,78.5,0.25,95,135.0
1429,C4,78.5,0.25,95,135.0
1430,A3,78.5,0.25,95,135.0
1431,E3,78.5,0.25,95,135.0
1432,A2,78.5,0.25,95,135.0
1433,E4,78.75,0.25,95,135.0
1434,C4,78.75,0.25,95,135.0
1435,A3,78.75,0.25,95,135.0
1436,E3,78.75,0.25,95,135.0
1437,A2,78.75,0.25,95,135.0
1438,A1,79.0,0.5,95,135.0
1439,E4,79.0,0.5,95,135.0
1440,C4,79.0,0.5,95,135.0
1441,A3,79.0,0.5,95,135.0
1442,E3,79.0,0.5,95,135.0
1443,A2,79.0,0.5,95,135.0
1444,G#2,79.0,0.5,95,135.0
1445,C2,79.0,0.5,95,135.0
1446,A1,79.5,0.5,95,135.0
1447,E4,79.5,0.5,95,135.0
1448,C4,79.5,0.5,95,135.0
1449,A3,79.5,0.5,95,135.0
1450,E3,79.5,0.5,95,135.0
1451,A2,79.5,0.5,95,135.0
1452,G#2,79.5,0.5,95,135.0
1453,D2,79.5,0.5,95,135.0
1454,A1,80.0,0.5,95,135.0
1455,G#2,80.0,0.5,95,135.0
1456,E4,80.0,0.25,95,135.0
1457,C4,80.0,0.25,95,135.0
1458,A3,80.0,0.25,95,135.0
1459,E3,80.0,0.25,95,135.0
1460,A2,80.0,0.25,95,135.0
1461,E4,80.25,0.25,95,135.0
1462,C4,80.25,0.25,95,135.0
1463,A3,80.25,0.25,95,135.0
1464,E3,80.25,0.25,95,135.0
1465,A2,80.25,0.25,95,135.0
1466,A1,80.5,0.5,95,135.0
1467,G#2,80.5,0.5,95,135.0
1468,E4,80.5,0.5,95,135.0
1469,C4,80.5,0.5,95,135.0
1470,A3,80.5,0.5,95,135.0
1471,E3,80.5,0.5,95,135.0
1472,A2,80.5,0.5,95,135.0
1473,D2,81.0,0.5,95,135.0
1474,F#4,81.0,0.5,95,135.0
1475,D4,81.0,0.5,95,135.0
1476,A3,81.0,0.5,95,135.0
1477,D3,81.0,0.5,95,135.0
1478,G#2,81.0,0.5,95,135.0
1479,C2,81.0,0.5,95,135.0
1480,D2,81.5,0.5,95,135.0
1481,G#2,81.5,0.5,95,135.0
1482,F#4,81.5,0.25,95,135.0
1483,D4,81.5,0.25,95,135.0
1484,A3,81.5,0.25,95,135.0
1485,D3,81.5,0.25,95,135.0
1486,F#4,81.75,0.25,95,135.0
1487,D4,81.75,0.25,95,135.0
1488,A3,81.75,0.25,95,135.0
1489,D3,81.75,0.25,95,135.0
1490,D2,82.0,0.5,95,135.0
1491,F#4,82.0,0.5,95,135.0
1492,D4,82.0,0.5,95,135.0
1493,A3,82.0,0.5,95,135.0
1494,D3,82.0,0.5,95,135.0
1495,G#2,82.0,0.5,95,135.0
1496,C2,82.0,0.5,95,135.0
1497,F#2,82.5,0.5,95,135.0
1498,F#4,82.5,0.5,95,135.0
1499,D4,82.5,0.5,95,135.0
1500,A3,82.5,0.5,95,135.0
1501,D3,82.5,0.5,95,135.0
1502,G#2,82.5,0.5,95,135.0
1503,D2,82.5,0.5,95,135.0
1504,G2,83.0,0.5,95,135.0
1505,G#2,83.0,0.5,95,135.0
1506,F#4,83.0,0.25,95,135.0
1507,D4,83.0,0.25,95,135.0
1508,A3,83.0,0.25,95,135.0
1509,D3,83.0,0.25,95,135.0
1510,F#4,83.25,0.25,95,135.0
1511,D4,83.25,0.25,95,135.0
1512,A3,83.25,0.25,95,135.0
1513,D3,83.25,0.25,95,135.0
1514,A2,83.5,0.5,95,135.0
1515,G#2,83.5,0.5,95,135.0
1516,F#4,83.5,0.5,95,135.0
1517,D4,83.5,0.5,95,135.0
1518,A3,83.5,0.5,95,135.0
1519,D3,83.5,0.5,95,135.0
1520,E2,84.0,0.5,95,135.0
1521,E4,84.0,0.5,95,135.0
1522,B3,84.0,0.5,95,135.0
1523,G3,84.0,0.5,95,135.0
1524,E3,84.0,0.5,95,135.0
1525,B2,84.0,0.5,95,135.0
1526,E2,84.0,0.5,95,135.0
1527,G#2,84.0,0.5,95,135.0
1528,C2,84.0,0.5,95,135.0
1529,E2,84.5,0.5,95,135.0
1530,G#2,84.5,0.5,95,135.0
1531,E4,84.5,0.25,95,135.0
1532,B3,84.5,0.25,95,135.0
1533,G3,84.5,0.25,95,135.0
1534,E3,84.5,0.25,95,135.0
1535,B2,84.5,0.25,95,135.0
1536,E2,84.5,0.25,95,135.0
1537,E4,84.75,0.25,95,135.0
1538,B3,84.75,0.25,95,135.0
1539,G3,84.75,0.25,95,135.0
1540,E3,84.75,0.25,95,135.0
1541,B2,84.75,0.25,95,135.0
1542,E2,84.75,0.25,95,135.0
1543,E2,85.0,0.5,95,135.0
1544,E4,85.0,0.5,95,135.0
1545,B3,85.0,0.5,95,135.0
1546,G3,85.0,0.5,95,135.0
1547,E3,85.0,0.5,95,135.0
1548,B2,85.0,0.5,95,135.0
1549,E2,85.0,0.5,95,135.0
1550,G#2,85.0,0.5,95,135.0
1551,C2,85.0,0.5,95,135.0
1552,E2,85.5,0.5,95,135.0
1553,E4,85.5,0.5,95,135.0
1554,B3,85.5,0.5,95,135.0
1555,G3,85.5,0.5,95,135.0
1556,E3,85.5,0.5,95,135.0
1557,B2,85.5,0.5,95,135.0
1558,E2,85.5,0.5,95,135.0
1559,G#2,85.5,0.5,95,135.0
1560,D2,85.5,0.5,95,135.0
1561,E2,86.0,0.5,95,135.0
1562,G#2,86.0,0.5,95,135.0
1563,E4,86.0,0.25,95,135.0
1564,B3,86.0,0.25,95,135.0
1565,G3,86.0,0.25,95,135.0
1566,E3,86.0,0.25,95,135.0
1567,B2,86.0,0.25,95,135.0
1568,E2,86.0,0.25,95,135.0
1569,E4,86.25,0.25,95,135.0
1570,B3,86.25,0.25,95,135.0
1571,G3,86.25,0.25,95,135.0
1572,E3,86.25,0.25,95,135.0
1573,B2,86.25,0.25,95,135.0
1574,E2,86.25,0.25,95,135.0
1575,E2,86.5,0.5,95,135.0
1576,G#2,86.5,0.5,95,135.0
1577,E4,86.5,0.5,95,135.0
1578,B3,86.5,0.5,95,135.0
1579,G3,86.5,0.5,95,135.0
1580,E3,86.5,0.5,95,135.0
1581,B2,86.5,0.5,95,135.0
1582,E2,86.5,0.5,95,135.0
1583,C2,87.0,0.5,95,135.0
1584,E4,87.0,0.5,95,135.0
1585,C4,87.0,0.5,95,135.0
1586,G3,87.0,0.5,95,135.0
1587,E3,87.0,0.5,95,135.0
1588,C3,87.0,0.5,95,135.0
1589,G#2,87.0,0.5,95,135.0
1590,C2,87.0,0.5,95,135.0
1591,C2,87.5,0.5,95,135.0
1592,G#2,87.5,0.5,95,135.0
1593,E4,87.5,0.25,95,135.0
1594,C4,87.5,0.25,95,135.0
1595,G3,87.5,0.25,95,135.0
1596,E3,87.5,0.25,95,135.0
1597,C3,87.5,0.25,95,135.0
1598,E4,87.75,0.25,95,135.0
1599,C4,87.75,0.25,95,135.0
1600,G3,87.75,0.25,95,135.0
1601,E3,87.75,0.25,95,135.0
1602,C3,87.75,0.25,95,135.0
1603,C2,88.0,0.5,95,135.0
1604,E4,88.0,0.5,95,135.0
1605,C4,88.0,0.5,95,135.0
1606,G3,88.0,0.5,95,135.0
1607,E3,88.0,0.5,95,135.0
1608,C3,88.0,0.5,95,135.0
1609,G#2,88.0,0.5,95,135.0
1610,C2,88.0,0.5,95,135.0
1611,C2,88.5,0.5,95,135.0
1612,E4,88.5,0.5,95,135.0
1613,C4,88.5,0.5,95,135.0
1614,G3,88.5,0.5,95,135.0
1615,E3,88.5,0.5,95,135.0
1616,C3,88.5,0.5,95,135.0
1617,G#2,88.5,0.5,95,135.0
1618,D2,88.5,0.5,95,135.0
1619,C2,89.0,0.5,95,135.0
1620,G#2,89.0,0.5,95,135.0
1621,E4,89.0,0.25,95,135.0
1622,C4,89.0,0.25,95,135.0
1623,G3,89.0,0.25,95,135.0
1624,E3,89.0,0.25,95,135.0
1625,C3,89.0,0.25,95,135.0
1626,E4,89.25,0.25,95,135.0
1627,C4,89.25,0.25,95,135.0
1628,G3,89.25,0.25,95,135.0
1629,E3,89.25,0.25,95,135.0
1630,C3,89.25,0.25,95,135.0
1631,C2,89.5,0.5,95,135.0
1632,G#2,89.5,0.5,95,135.0
1633,E4,89.5,0.5,95,135.0
1634,C4,89.5,0.5,95,135.0
1635,G3,89.5,0.5,95,135.0
1636,E3,89.5,0.5,95,135.0
1637,C3,89.5,0.5,95,135.0
1638,A1,90.0,0.5,95,135.0
1639,E4,90.0,0.5,95,135.0
1640,C4,90.0,0.5,95,135.0
1641,A3,90.0,0.5,95,135.0
1642,E3,90.0,0.5,95,135.0
1643,A2,90.0,0.5,95,135.0
1644,G#2,90.0,0.5,95,135.0
1645,C2,90.0,0.5,95,135.0
1646,A1,90.5,0.5,95,135.0
1647,G#2,90.5,0.5,95,135.0
1648,E4,90.5,0.25,95,135.0
1649,C4,90.5,0.25,95,135.0
1650,A3,90.5,0.25,95,135.0
1651,E3,90.5,0.25,95,135.0
1652,A2,90.5,0.25,95,135.0
1653,E4,90.75,0.25,95,135.0
1654,C4,90.75,0.25,95,135.0
1655,A3,90.75,0.25,95,135.0
1656,E3,90.75,0.25,95,135.0
1657,A2,90.75,0.25,95,135.0
1658,A1,91.0,0.5,95,135.0
1659,E4,91.0,0.5,95,135.0
1660,C4,91.0,0.5,95,135.0
1661,A3,91.0,0.5,95,135.0
1662,E3,91.0,0.5,95,135.0
1663,A2,91.0,0.5,95,135.0
1664,G#2,91.0,0.5,95,135.0
1665,C2,91.0,0.5,95,135.0
1666,A1,91.5,0.5,95,135.0
1667,E4,91.5,0.5,95,135.0
1668,C4,91.5,0.5,95,135.0
1669,A3,91.5,0.5,95,135.0
1670,E3,91.5,0.5,95,135.0
1671,A2,91.5,0.5,95,135.0
1672,G#2,91.5,0.5,95,135.0
1673,D2,91.5,0.5,95,135.0
1674,A1,92.0,0.5,95,135.0
1675,G#2,92.0,0.5,95,135.0
1676,E4,92.0,0.25,95,135.0
1677,C4,92.0,0.25,95,135.0
1678,A3,92.0,0.25,95,135.0
1679,E3,92.0,0.25,95,135.0
1680,A2,92.0,0.25,95,135.0
1681,E4,92.25,0.25,95,135.0
1682,C4,92.25,0.25,95,135.0
1683,A3,92.25,0.25,95,135.0
1684,E3,92.25,0.25,95,135.0
1685,A2,92.25,0.25,95,135.0
1686,A1,92.5,0.5,95,135.0
1687,G#2,92.5,0.5,95,135.0
1688,E4,92.5,0.5,95,135.0
1689,C4,92.5,0.5,95,135.0
1690,A3,92.5,0.5,95,135.0
1691,E3,92.5,0.5,95,135.0
1692,A2,92.5,0.5,95,135.0
1693,D2,93.0,0.5,95,135.0
1694,F#4,93.0,0.5,95,135.0
1695,D4,93.0,0.5,95,135.0
1696,A3,93.0,0.5,95,135.0
1697,D3,93.0,0.5,95,135.0
1698,G#2,93.0,0.5,95,135.0
1699,C2,93.0,0.5,95,135.0
1700,D2,93.5,0.5,95,135.0
1701,G#2,93.5,0.5,95,135.0
1702,F#4,93.5,0.25,95,135.0
1703,D4,93.5,0.25,95,135.0
1704,A3,93.5,0.25,95,135.0
1705,D3,93.5,0.25,95,135.0
1706,F#4,93.75,0.25,95,135.0
1707,D4,93.75,0.25,95,135.0
1708,A3,93.75,0.25,95,135.0
1709,D3,93.75,0.25,95,135.0
1710,D2,94.0,0.5,95,135.0
1711,F#4,94.0,0.5,95,135.0
1712,D4,94.0,0.5,95,135.0
1713,A3,94.0,0.5,95,135.0
1714,D3,94.0,0.5,95,135.0
1715,G#2,94.0,0.5,95,135.0
1716,C2,94.0,0.5,95,135.0
1717,F#2,94.5,0.5,95,135.0
1718,F#4,94.5,0.5,95,135.0
1719,D4,94.5,0.5,95,135.0
1720,A3,94.5,0.5,95,135.0
1721,D3,94.5,0.5,95,135.0
1722,G#2,94.5,0.5,95,135.0
1723,D2,94.5,0.5,95,135.0
1724,G2,95.0,0.5,95,135.0
1725,G#2,95.0,0.5,95,135.0
1726,F#4,95.0,0.25,95,135.0
1727,D4,95.0,0.25,95,135.0
1728,A3,95.0,0.25,95,135.0
1729,D3,95.0,0.25,95,135.0
1730,F#4,95.25,0.25,95,135.0
1731,D4,95.25,0.25,95,135.0
1732,A3,95.25,0.25,95,135.0
1733,D3,95.25,0.25,95,135.0
1734,A2,95.5,0.5,95,135.0
1735,G#2,95.5,0.5,95,135.0
1736,F#4,95.5,0.5,95,135.0
1737,D4,95.5,0.5,95,135.0
1738,A3,95.5,0.5,95,135.0
1739,D3,95.5,0.5,95,135.0
1740,E2,96.0,0.5,95,135.0
1741,E4,96.0,0.5,95,135.0
1742,B3,96.0,0.5,95,135.0
1743,G3,96.0,0.5,95,135.0
1744,E3,96.0,0.5,95,135.0
1745,B2,96.0,0.5,95,135.0
1746,E2,96.0,0.5,95,135.0
1747,G#2,96.0,0.5,95,135.0
1748,C2,96.0,0.5,95,135.0
1749,E2,96.5,0.5,95,135.0
1750,G#2,96.5,0.5,95,135.0
1751,E4,96.5,0.25,95,135.0
1752,B3,96.5,0.25,95,135.0
1753,G3,96.5,0.25,95,135.0
1754,E3,96.5,0.25,95,135.0
1755,B2,96.5,0.25,95,135.0
1756,E2,96.5,0.25,95,135.0
1757,E4,96.75,0.25,95,135.0
1758,B3,96.75,0.25,95,135.0
1759,G3,96.75,0.25,95,135.0
1760,E3,96.75,0.25,95,135.0
1761,B2,96.75,0.25,95,135.0
1762,E2,96.75,0.25,95,135.0
1763,E2,97.0,0.5,95,135.0
1764,E4,97.0,0.5,95,135.0
1765,B3,97.0,0.5,95,135.0
1766,G3,97.0,0.5,95,135.0
1767,E3,97.0,0.5,95,135.0
1768,B2,97.0,0.5,95,135.0
1769,E2,97.0,0.5,95,135.0
1770,G#2,97.0,0.5,95,135.0
1771,C2,97.0,0.5,95,135.0
1772,E2,97.5,0.5,95,135.0
1773,E4,97.5,0.5,95,135.0
1774,B3,97.5,0.5,95,135.0
1775,G3,97.5,0.5,95,135.0
1776,E3,97.5,0.5,95,135.0
1777,B2,97.5,0.5,95,135.0
1778,E2,97.5,0.5,95,135.0
1779,G#2,97.5,0.5,95,135.0
1780,D2,97.5,0.5,95,135.0
1781,E2,98.0,0.5,95,135.0
1782,G#2,98.0,0.5,95,135.0
1783,E4,98.0,0.25,95,135.0
1784,B3,98.0,0.25,95,135.0
1785,G3,98.0,0.25,95,135.0
1786,E3,98.0,0.25,95,135.0
1787,B2,98.0,0.25,95,135.0
1788,E2,98.0,0.25,95,135.0
1789,E4,98.25,0.25,95,135.0
1790,B3,98.25,0.25,95,135.0
1791,G3,98.25,0.25,95,135.0
1792,E3,98.25,0.25,95,135.0
1793,B2,98.25,0.25,95,135.0
1794,E2,98.25,0.25,95,135.0
1795,E2,98.5,0.5,95,135.0
1796,G#2,98.5,0.5,95,135.0
1797,E4,98.5,0.5,95,135.0
1798,B3,98.5,0.5,95,135.0
1799,G3,98.5,0.5,95,135.0
1800,E3,98.5,0.5,95,135.0
1801,B2,98.5,0.5,95,135.0
1802,E2,98.5,0.5,95,135.0
1803,C2,99.0,0.5,95,135.0
1804,E4,99.0,0.5,95,135.0
1805,C4,99.0,0.5,95,135.0
1806,G3,99.0,0.5,95,135.0
1807,E3,99.0,0.5,95,135.0
1808,C3,99.0,0.5,95,135.0
1809,G#2,99.0,0.5,95,135.0
1810,C2,99.0,0.5,95,135.0
1811,C2,99.5,0.5,95,135.0
1812,G#2,99.5,0.5,95,135.0
1813,E4,99.5,0.25,95,135.0
1814,C4,99.5,0.25,95,135.0
1815,G3,99.5,0.25,95,135.0
1816,E3,99.5,0.25,95,135.0
1817,C3,99.5,0.25,95,135.0
1818,E4,99.75,0.25,95,135.0
1819,C4,99.75,0.25,95,135.0
1820,G3,99.75,0.25,95,135.0
1821,E3,99.75,0.25,95,135.0
1822,C3,99.75,0.25,95,135.0
1823,C2,100.0,0.5,95,135.0
1824,E4,100.0,0.5,95,135.0
1825,C4,100.0,0.5,95,135.0
1826,G3,100.0,0.5,95,135.0
1827,E3,100.0,0.5,95,135.0
1828,C3,100.0,0.5,95,135.0
1829,G#2,100.0,0.5,95,135.0
1830,C2,100.0,0.5,95,135.0
1831,C2,100.5,0.5,95,135.0
1832,E4,100.5,0.5,95,135.0
1833,C4,100.5,0.5,95,135.0
1834,G3,100.5,0.5,95,135.0
1835,E3,100.5,0.5,95,135.0
1836,C3,100.5,0.5,95,135.0
1837,G#2,100.5,0.5,95,135.0
1838,D2,100.5,0.5,95,135.0
1839,C2,101.0,0.5,95,135.0
1840,G#2,101.0,0.5,95,135.0
1841,E4,101.0,0.25,95,135.0
1842,C4,101.0,0.25,95,135.0
1843,G3,101.0,0.25,95,135.0
1844,E3,101.0,0.25,95,135.0
1845,C3,101.0,0.25,95,135.0
1846,E4,101.25,0.25,95,135.0
1847,C4,101.25,0.25,95,135.0
1848,G3,101.25,0.25,95,135.0
1849,E3,101.25,0.25,95,135.0
1850,C3,101.25,0.25,95,135.0
1851,C2,101.5,0.5,95,135.0
1852,G#2,101.5,0.5,95,135.0
1853,E4,101.5,0.5,95,135.0
1854,C4,101.5,0.5,95,135.0
1855,G3,101.5,0.5,95,135.0
1856,E3,101.5,0.5,95,135.0
1857,C3,101.5,0.5,95,135.0
1858,A1,102.0,0.5,95,135.0
1859,E4,102.0,0.5,95,135.0
1860,C4,102.0,0.5,95,135.0
1861,A3,102.0,0.5,95,135.0
1862,E3,102.0,0.5,95,135.0
1863,A2,102.0,0.5,95,135.0
1864,G#2,102.0,0.5,95,135.0
1865,C2,102.0,0.5,95,135.0
1866,A1,102.5,0.5,95,135.0
1867,G#2,102.5,0.5,95,135.0
1868,E4,102.5,0.25,95,135.0
1869,C4,102.5,0.25,95,135.0
1870,A3,102.5,0.25,95,135.0
1871,E3,102.5,0.25,95,135.0
1872,A2,102.5,0.25,95,135.0
1873,E4,102.75,0.25,95,135.0
1874,C4,102.75,0.25,95,135.0
1875,A3,102.75,0.25,95,135.0
1876,E3,102.75,0.25,95,135.0
1877,A2,102.75,0.25,95,135.0
1878,A1,103.0,0.5,95,135.0
1879,E4,103.0,0.5,95,135.0
1880,C4,103.0,0.5,95,135.0
1881,A3,103.0,0.5,95,135.0
1882,E3,103.0,0.5,95,135.0
1883,A2,103.0,0.5,95,135.0
1884,G#2,103.0,0.5,95,135.0
1885,C2,103.0,0.5,95,135.0
1886,A1,103.5,0.5,95,135.0
1887,E4,103.5,0.5,95,135.0
1888,C4,103.5,0.5,95,135.0
1889,A3,103.5,0.5,95,135.0
1890,E3,103.5,0.5,95,135.0
1891,A2,103.5,0.5,95,135.0
1892,G#2,103.5,0.5,95,135.0
1893,D2,103.5,0.5,95,135.0
1894,A1,104.0,0.5,95,135.0
1895,G#2,104.0,0.5,95,135.0
1896,E4,104.0,0.25,95,135.0
1897,C4,104.0,0.25,95,135.0
1898,A3,104.0,0.25,95,135.0
1899,E3,104.0,0.25,95,135.0
1900,A2,104.0,0.25,95,135.0
1901,E4,104.25,0.25,95,135.0
1902,C4,104.25,0.25,95,135.0
1903,A3,104.25,0.25,95,135.0
1904,E3,104.25,0.25,95,135.0
1905,A2,104.25,0.25,95,135.0
1906,A1,104.5,0.5,95,135.0
1907,G#2,104.5,0.5,95,135.0
1908,E4,104.5,0.5,95,135.0
1909,C4,104.5,0.5,95,135.0
1910,A3,104.5,0.5,95,135.0
1911,E3,104.5,0.5,95,135.0
1912,A2,104.5,0.5,95,135.0
1913,D2,105.0,0.5,95,135.0
1914,F#4,105.0,0.5,95,135.0
1915,D4,105.0,0.5,95,135.0
1916,A3,105.0,0.5,95,135.0
1917,D3,105.0,0.5,95,135.0
1918,G#2,105.0,0.5,95,135.0
1919,C2,105.0,0.5,95,135.0
1920,D2,105.5,0.5,95,135.0
1921,G#2,105.5,0.5,95,135.0
1922,F#4,105.5,0.25,95,135.0
1923,D4,105.5,0.25,95,135.0
1924,A3,105.5,0.25,95,135.0
1925,D3,105.5,0.25,95,135.0
1926,F#4,105.75,0.25,95,135.0
1927,D4,105.75,0.25,95,135.0
1928,A3,105.75,0.25,95,135.0
1929,D3,105.75,0.25,95,135.0
1930,D2,106.0,0.5,95,135.0
1931,F#4,106.0,0.5,95,135.0
1932,D4,106.0,0.5,95,135.0
1933,A3,106.0,0.5,95,135.0
1934,D3,106.0,0.5,95,135.0
1935,G#2,106.0,0.5,95,135.0
1936,C2,106.0,0.5,95,135.0
1937,F#2,106.5,0.5,95,135.0
1938,F#4,106.5,0.5,95,135.0
1939,D4,106.5,0.5,95,135.0
1940,A3,106.5,0.5,95,135.0
1941,D3,106.5,0.5,95,135.0
1942,G#2,106.5,0.5,95,135.0
1943,D2,106.5,0.5,95,135.0
1944,G2,107.0,0.5,95,135.0
1945,G#2,107.0,0.5,95,135.0
1946,F#4,107.0,0.25,95,135.0
1947,D4,107.0,0.25,95,135.0
1948,A3,107.0,0.25,95,135.0
1949,D3,107.0,0.25,95,135.0
1950,F#4,107.25,0.25,95,135.0
1951,D4,107.25,0.25,95,135.0
1952,A3,107.25,0.25,95,135.0
1953,D3,107.25,0.25,95,135.0
1954,A2,107.5,0.5,95,135.0
1955,G#2,107.5,0.5,95,135.0
1956,F#4,107.5,0.5,95,135.0
1957,D4,107.5,0.5,95,135.0
1958,A3,107.5,0.5,95,135.0
1959,D3,107.5,0.5,95,135.0
1960,E2,108.0,0.5,95,135.0
1961,E4,108.0,0.5,95,135.0
1962,B3,108.0,0.5,95,135.0
1963,G3,108.0,0.5,95,135.0
1964,E3,108.0,0.5,95,135.0
1965,B2,108.0,0.5,95,135.0
1966,E2,108.0,0.5,95,135.0
1967,G#2,108.0,0.5,95,135.0
1968,C2,108.0,0.5,95,135.0
1969,E2,108.5,0.5,95,135.0
1970,G#2,108.5,0.5,95,135.0
1971,E4,108.5,0.25,95,135.0
1972,B3,108.5,0.25,95,135.0
1973,G3,108.5,0.25,95,135.0
1974,E3,108.5,0.25,95,135.0
1975,B2,108.5,0.25,95,135.0
1976,E2,108.5,0.25,95,135.0
1977,E4,108.75,0.25,95,135.0
1978,B3,108.75,0.25,95,135.0
1979,G3,108.75,0.25,95,135.0
1980,E3,108.75,0.25,95,135.0
1981,B2,108.75,0.25,95,135.0
1982,E2,108.75,0.25,95,135.0
1983,E2,109.0,0.5,95,135.0
1984,E4,109.0,0.5,95,135.0
1985,B3,109.0,0.5,95,135.0
1986,G3,109.0,0.5,95,135.0
1987,E3,109.0,0.5,95,135.0
1988,B2,109.0,0.5,95,135.0
1989,E2,109.0,0.5,95,135.0
1990,G#2,109.0,0.5,95,135.0
1991,C2,109.0,0.5,95,135.0
1992,E2,109.5,0.5,95,135.0
1993,E4,109.5,0.5,95,135.0
1994,B3,109.5,0.5,95,135.0
1995,G3,109.5,0.5,95,135.0
1996,E3,109.5,0.5,95,135.0
1997,B2,109.5,0.5,95,135.0
1998,E2,109.5,0.5,95,135.0
1999,G#2,109.5,0.5,95,135.0
2000,D2,109.5,0.5,95,135.0
2001,E2,110.0,0.5,95,135.0
2002,G#2,110.0,0.5,95,135.0
2003,E4,110.0,0.25,95,135.0
2004,B3,110.0,0.25,95,135.0
2005,G3,110.0,0.25,95,135.0
2006,E3,110.0,0.25,95,135.0
2007,B2,110.0,0.25,95,135.0
2008,E2,110.0,0.25,95,135.0
2009,E4,110.25,0.25,95,135.0
2010,B3,110.25,0.25,95,135.0
2011,G3,110.25,0.25,95,135.0
2012,E3,110.25,0.25,95,135.0
2013,B2,110.25,0.25,95,135.0
2014,E2,110.25,0.25,95,135.0
2015,E2,110.5,0.5,95,135.0
2016,G#2,110.5,0.5,95,135.0
2017,E4,110.5,0.5,95,135.0
2018,B3,110.5,0.5,95,135.0
2019,G3,110.5,0.5,95,135.0
2020,E3,110.5,0.5,95,135.0
2021,B2,110.5,0.5,95,135.0
2022,E2,110.5,0.5,95,135.0
2023,C2,111.0,0.5,95,135.0
2024,E4,111.0,0.5,95,135.0
2025,C4,111.0,0.5,95,135.0
2026,G3,111.0,0.5,95,135.0
2027,E3,111.0,0.5,95,135.0
2028,C3,111.0,0.5,95,135.0
2029,G#2,111.0,0.5,95,135.0
2030,C2,111.0,0.5,95,135.0
2031,C2,111.5,0.5,95,135.0
2032,G#2,111.5,0.5,95,135.0
2033,E4,111.5,0.25,95,135.0
2034,C4,111.5,0.25,95,135.0
2035,G3,111.5,0.25,95,135.0
2036,E3,111.5,0.25,95,135.0
2037,C3,111.5,0.25,95,135.0
2038,E4,111.75,0.25,95,135.0
2039,C4,111.75,0.25,95,135.0
2040,G3,111.75,0.25,95,135.0
2041,E3,111.75,0.25,95,135.0
2042,C3,111.75,0.25,95,135.0
2043,C2,112.0,0.5,95,135.0
2044,E4,112.0,0.5,95,135.0
2045,C4,112.0,0.5,95,135.0
2046,G3,112.0,0.5,95,135.0
2047,E3,112.0,0.5,95,135.0
2048,C3,112.0,0.5,95,135.0
2049,G#2,112.0,0.5,95,135.0
2050,C2,112.0,0.5,95,135.0
2051,C2,112.5,0.5,95,135.0
2052,E4,112.5,0.5,95,135.0
2053,C4,112.5,0.5,95,135.0
2054,G3,112.5,0.5,95,135.0
2055,E3,112.5,0.5,95,135.0
2056,C3,112.5,0.5,95,135.0
2057,G#2,112.5,0.5,95,135.0
2058,D2,112.5,0.5,95,135.0
2059,C2,113.0,0.5,95,135.0
2060,G#2,113.0,0.5,95,135.0
2061,E4,113.0,0.25,95,135.0
2062,C4,113.0,0.25,95,135.0
2063,G3,113.0,0.25,95,135.0
2064,E3,113.0,0.25,95,135.0
2065,C3,113.0,0.25,95,135.0
2066,E4,113.25,0.25,95,135.0
2067,C4,113.25,0.25,95,135.0
2068,G3,113.25,0.25,95,135.0
2069,E3,113.25,0.25,95,135.0
2070,C3,113.25,0.25,95,135.0
2071,C2,113.5,0.5,95,135.0
2072,G#2,113.5,0.5,95,135.0
2073,E4,113.5,0.5,95,135.0
2074,C4,113.5,0.5,95,135.0
2075,G3,113.5,0.5,95,135.0
2076,E3,113.5,0.5,95,135.0
2077,C3,113.5,0.5,95,135.0
2078,A1,114.0,0.5,95,135.0
2079,E4,114.0,0.5,95,135.0
2080,C4,114.0,0.5,95,135.0
2081,A3,114.0,0.5,95,135.0
2082,E3,114.0,0.5,95,135.0
2083,A2,114.0,0.5,95,135.0
2084,G#2,114.0,0.5,95,135.0
2085,C2,114.0,0.5,95,135.0
2086,A1,114.5,0.5,95,135.0
2087,G#2,114.5,0.5,95,135.0
2088,E4,114.5,0.25,95,135.0
2089,C4,114.5,0.25,95,135.0
2090,A3,114.5,0.25,95,135.0
2091,E3,114.5,0.25,95,135.0
2092,A2,114.5,0.25,95,135.0
2093,E4,114.75,0.25,95,135.0
2094,C4,114.75,0.25,95,135.0
2095,A3,114.75,0.25,95,135.0
2096,E3,114.75,0.25,95,135.0
2097,A2,114.75,0.25,95,135.0
2098,A1,115.0,0.5,95,135.0
2099,E4,115.0,0.5,95,135.0
2100,C4,115.0,0.5,95,135.0
2101,A3,115.0,0.5,95,135.0
2102,E3,115.0,0.5,95,135.0
2103,A2,115.0,0.5,95,135.0
2104,G#2,115.0,0.5,95,135.0
2105,C2,115.0,0.5,95,135.0
2106,A1,115.5,0.5,95,135.0
2107,E4,115.5,0.5,95,135.0
2108,C4,115.5,0.5,95,135.0
2109,A3,115.5,0.5,95,135.0
2110,E3,115.5,0.5,95,135.0
2111,A2,115.5,0.5,95,135.0
2112,G#2,115.5,0.5,95,135.0
2113,D2,115.5,0.5,95,135.0
2114,A1,116.0,0.5,95,135.0
2115,G#2,116.0,0.5,95,135.0
2116,E4,116.0,0.25,95,135.0
2117,C4,116.0,0.25,95,135.0
2118,A3,116.0,0.25,95,135.0
2119,E3,116.0,0.25,95,135.0
2120,A2,116.0,0.25,95,135.0
2121,E4,116.25,0.25,95,135.0
2122,C4,116.25,0.25,95,135.0
2123,A3,116.25,0.25,95,135.0
2124,E3,116.25,0.25,95,135.0
2125,A2,116.25,0.25,95,135.0
2126,A1,116.5,0.5,95,135.0
2127,G#2,116.5,0.5,95,135.0
2128,E4,116.5,0.5,95,135.0
2129,C4,116.5,0.5,95,135.0
2130,A3,116.5,0.5,95,135.0
2131,E3,116.5,0.5,95,135.0
2132,A2,116.5,0.5,95,135.0
2133,D2,117.0,0.5,95,135.0
2134,F#4,117.0,0.5,95,135.0
2135,D4,117.0,0.5,95,135.0
2136,A3,117.0,0.5,95,135.0
2137,D3,117.0,0.5,95,135.0
2138,G#2,117.0,0.5,95,135.0
2139,C2,117.0,0.5,95,135.0
2140,D2,117.5,0.5,95,135.0
2141,G#2,117.5,0.5,95,135.0
2142,F#4,117.5,0.25,95,135.0
2143,D4,117.5,0.25,95,135.0
2144,A3,117.5,0.25,95,135.0
2145,D3,117.5,0.25,95,135.0
2146,F#4,117.75,0.25,95,135.0
2147,D4,117.75,0.25,95,135.0
2148,A3,117.75,0.25,95,135.0
2149,D3,117.75,0.25,95,135.0
2150,D2,118.0,0.5,95,135.0
2151,F#4,118.0,0.5,95,135.0
2152,D4,118.0,0.5,95,135.0
2153,A3,118.0,0.5,95,135.0
2154,D3,118.0,0.5,95,135.0
2155,G#2,118.0,0.5,95,135.0
2156,C2,118.0,0.5,95,135.0
2157,F#2,118.5,0.5,95,135.0
2158,F#4,118.5,0.5,95,135.0
2159,D4,118.5,0.5,95,135.0
2160,A3,118.5,0.5,95,135.0
2161,D3,118.5,0.5,95,135.0
2162,G#2,118.5,0.5,95,135.0
2163,D2,118.5,0.5,95,135.0
2164,G2,119.0,0.5,95,135.0
2165,F#4,119.0,0.25,95,135.0
2166,D4,119.0,0.25,95,135.0
2167,A3,119.0,0.25,95,135.0
2168,D3,119.0,0.25,95,135.0
2169,G#2,119.0,0.5,95,135.0
2170,C2,119.0,0.5,95,135.0
2171,F#4,119.25,0.25,95,135.0
2172,D4,119.25,0.25,95,135.0
2173,A3,119.25,0.25,95,135.0
2174,D3,119.25,0.25,95,135.0
2175,A2,119.5,0.5,95,135.0
2176,F#4,119.5,0.5,95,135.0
2177,D4,119.5,0.5,95,135.0
2178,A3,119.5,0.5,95,135.0
2179,D3,119.5,0.5,95,135.0
2180,G#2,119.5,0.5,95,135.0
2181,D2,119.5,0.5,95,135.0
2182,B4,120.0,0.25,95,135.0
2183,G1,120.0,0.5,95,135.0
2184,G4,120.0,0.5,95,135.0
2185,D4,120.0,0.5,95,135.0
2186,G3,120.0,0.5,95,135.0
2187,D3,120.0,0.5,95,135.0
2188,B2,120.0,0.5,95,135.0
2189,G2,120.0,0.5,95,135.0
2190,G#2,120.0,0.5,95,135.0
2191,C2,120.0,0.5,95,135.0
2192,C#3,120.0,0.5,95,135.0
2193,C5,120.25,0.25,95,135.0
2194,A4,120.5,0.25,95,135.0
2195,G1,120.5,0.5,95,135.0
2196,G#2,120.5,0.5,95,135.0
2197,G4,120.5,0.25,95,135.0
2198,D4,120.5,0.25,95,135.0
2199,G3,120.5,0.25,95,135.0
2200,D3,120.5,0.25,95,135.0
2201,B2,120.5,0.25,95,135.0
2202,G2,120.5,0.25,95,135.0
2203,B4,120.75,0.25,95,135.0
2204,G4,120.75,0.25,95,135.0
2205,D4,120.75,0.25,95,135.0
2206,G3,120.75,0.25,95,135.0
2207,D3,120.75,0.25,95,135.0
2208,B2,120.75,0.25,95,135.0
2209,G2,120.75,0.25,95,135.0
2210,G4,121.0,0.25,95,135.0
2211,G1,121.0,0.5,95,135.0
2212,G4,121.0,0.5,95,135.0
2213,D4,121.0,0.5,95,135.0
2214,G3,121.0,0.5,95,135.0
2215,D3,121.0,0.5,95,135.0
2216,B2,121.0,0.5,95,135.0
2217,G2,121.0,0.5,95,135.0
2218,G#2,121.0,0.5,95,135.0
2219,C2,121.0,0.5,95,135.0
2220,A4,121.25,0.25,95,135.0
2221,F#4,121.5,0.25,95,135.0
2222,G1,121.5,0.5,95,135.0
2223,G4,121.5,0.5,95,135.0
2224,D4,121.5,0.5,95,135.0
2225,G3,121.5,0.5,95,135.0
2226,D3,121.5,0.5,95,135.0
2227,B2,121.5,0.5,95,135.0
2228,G2,121.5,0.5,95,135.0
2229,G#2,121.5,0.5,95,135.0
2230,D2,121.5,0.5,95,135.0
2231,G4,121.75,0.25,95,135.0
2232,E4,122.0,0.25,95,135.0
2233,G1,122.0,0.5,95,135.0
2234,G#2,122.0,0.5,95,135.0
2235,G4,122.0,0.25,95,135.0
2236,D4,122.0,0.25,95,135.0
2237,G3,122.0,0.25,95,135.0
2238,D3,122.0,0.25,95,135.0
2239,B2,122.0,0.25,95,135.0
2240,G2,122.0,0.25,95,135.0
2241,F#4,122.25,0.25,95,135.0
2242,G4,122.25,0.25,95,135.0
2243,D4,122.25,0.25,95,135.0
2244,G3,122.25,0.25,95,135.0
2245,D3,122.25,0.25,95,135.0
2246,B2,122.25,0.25,95,135.0
2247,G2,122.25,0.25,95,135.0
2248,D4,122.5,0.25,95,135.0
2249,G1,122.5,0.5,95,135.0
2250,G#2,122.5,0.5,95,135.0
2251,G4,122.5,0.5,95,135.0
2252,D4,122.5,0.5,95,135.0
2253,G3,122.5,0.5,95,135.0
2254,D3,122.5,0.5,95,135.0
2255,B2,122.5,0.5,95,135.0
2256,G2,122.5,0.5,95,135.0
2257,E4,122.75,0.25,95,135.0
2258,F#4,123.0,0.125,95,135.0
2259,D2,123.0,0.5,95,135.0
2260,F#4,123.0,0.5,95,135.0
2261,D4,123.0,0.5,95,135.0
2262,A3,123.0,0.5,95,135.0
2263,D3,123.0,0.5,95,135.0
2264,G#2,123.0,0.5,95,135.0
2265,C2,123.0,0.5,95,135.0
2266,F#4,123.125,0.125,95,135.0
2267,F#4,123.25,0.125,95,135.0
2268,F#4,123.375,0.125,95,135.0
2269,F#4,123.5,0.125,95,135.0
2270,D2,123.5,0.5,95,135.0
2271,G#2,123.5,0.5,95,135.0
2272,F#4,123.5,0.25,95,135.0
2273,D4,123.5,0.25,95,135.0
2274,A3,123.5,0.25,95,135.0
2275,D3,123.5,0.25,95,135.0
2276,F#4,123.625,0.125,95,135.0
2277,F#4,123.75,0.125,95,135.0
2278,F#4,123.75,0.25,95,135.0
2279,D4,123.75,0.25,95,135.0
2280,A3,123.75,0.25,95,135.0
2281,D3,123.75,0.25,95,135.0
2282,F#4,123.875,0.125,95,135.0
2283,F#4,124.0,0.125,95,135.0
2284,D2,124.0,0.5,95,135.0
2285,F#4,124.0,0.5,95,135.0
2286,D4,124.0,0.5,95,135.0
2287,A3,124.0,0.5,95,135.0
2288,D3,124.0,0.5,95,135.0
2289,G#2,124.0,0.5,95,135.0
2290,C2,124.0,0.5,95,135.0
2291,F#4,124.125,0.125,95,135.0
2292,F#4,124.25,0.125,95,135.0
2293,F#4,124.375,31/250,95,135.0
2294,A4,124.5,0.125,95,135.0
2295,D2,124.5,0.5,95,135.0
2296,F#4,124.5,0.5,95,135.0
2297,D4,124.5,0.5,95,135.0
2298,A3,124.5,0.5,95,135.0
2299,D3,124.5,0.5,95,135.0
2300,G#2,124.5,0.5,95,135.0
2301,D2,124.5,0.5,95,135.0
2302,A4,124.625,0.125,95,135.0
2303,A4,124.75,0.125,95,135.0
2304,A4,124.875,0.125,95,135.0
2305,A4,125.0,0.125,95,135.0
2306,D2,125.0,0.5,95,135.0
2307,G#2,125.0,0.5,95,135.0
2308,F#4,125.0,0.25,95,135.0
2309,D4,125.0,0.25,95,135.0
2310,A3,125.0,0.25,95,135.0
2311,D3,125.0,0.25,95,135.0
2312,A4,125.125,0.125,95,135.0
2313,A4,125.25,0.125,95,135.0
2314,F#4,125.25,0.25,95,135.0
2315,D4,125.25,0.25,95,135.0
2316,A3,125.25,0.25,95,135.0
2317,D3,125.25,0.25,95,135.0
2318,A4,125.375,0.125,95,135.0
2319,A4,125.5,0.125,95,135.0
2320,D2,125.5,0.5,95,135.0
2321,G#2,125.5,0.5,95,135.0
2322,F#4,125.5,0.5,95,135.0
2323,D4,125.5,0.5,95,135.0
2324,A3,125.5,0.5,95,135.0
2325,D3,125.5,0.5,95,135.0
2326,A4,125.625,0.125,95,135.0
2327,A4,125.75,0.125,95,135.0
2328,A4,125.875,31/250,95,135.0
2329,G4,126.0,0.125,95,135.0
2330,C2,126.0,0.5,95,135.0
2331,E4,126.0,0.5,95,135.0
2332,C4,126.0,0.5,95,135.0
2333,G3,126.0,0.5,95,135.0
2334,E3,126.0,0.5,95,135.0
2335,C3,126.0,0.5,95,135.0
2336,G#2,126.0,0.5,95,135.0
2337,C2,126.0,0.5,95,135.0
2338,G4,126.125,0.125,95,135.0
2339,G4,126.25,0.125,95,135.0
2340,G4,126.375,0.125,95,135.0
2341,G4,126.5,0.125,95,135.0
2342,C2,126.5,0.5,95,135.0
2343,G#2,126.5,0.5,95,135.0
2344,E4,126.5,0.25,95,135.0
2345,C4,126.5,0.25,95,135.0
2346,G3,126.5,0.25,95,135.0
2347,E3,126.5,0.25,95,135.0
2348,C3,126.5,0.25,95,135.0
2349,G4,126.625,0.125,95,135.0
2350,G4,126.75,0.125,95,135.0
2351,E4,126.75,0.25,95,135.0
2352,C4,126.75,0.25,95,135.0
2353,G3,126.75,0.25,95,135.0
2354,E3,126.75,0.25,95,135.0
2355,C3,126.75,0.25,95,135.0
2356,G4,126.875,0.125,95,135.0
2357,G4,127.0,0.125,95,135.0
2358,C2,127.0,0.5,95,135.0
2359,E4,127.0,0.5,95,135.0
2360,C4,127.0,0.5,95,135.0
2361,G3,127.0,0.5,95,135.0
2362,E3,127.0,0.5,95,135.0
2363,C3,127.0,0.5,95,135.0
2364,G#2,127.0,0.5,95,135.0
2365,C2,127.0,0.5,95,135.0
2366,G4,127.125,0.125,95,135.0
2367,G4,127.25,0.125,95,135.0
2368,G4,127.375,31/250,95,135.0
2369,C5,127.5,0.125,95,135.0
2370,C2,127.5,0.5,95,135.0
2371,E4,127.5,0.5,95,135.0
2372,C4,127.5,0.5,95,135.0
2373,G3,127.5,0.5,95,135.0
2374,E3,127.5,0.5,95,135.0
2375,C3,127.5,0.5,95,135.0
2376,G#2,127.5,0.5,95,135.0
2377,D2,127.5,0.5,95,135.0
2378,C5,127.625,0.125,95,135.0
2379,C5,127.75,0.125,95,135.0
2380,C5,127.875,0.125,95,135.0
2381,C5,128.0,0.125,95,135.0
2382,C2,128.0,0.5,95,135.0
2383,G#2,128.0,0.5,95,135.0
2384,E4,128.0,0.25,95,135.0
2385,C4,128.0,0.25,95,135.0
2386,G3,128.0,0.25,95,135.0
2387,E3,128.0,0.25,95,135.0
2388,C3,128.0,0.25,95,135.0
2389,C5,128.125,0.125,95,135.0
2390,C5,128.25,0.125,95,135.0
2391,E4,128.25,0.25,95,135.0
2392,C4,128.25,0.25,95,135.0
2393,G3,128.25,0.25,95,135.0
2394,E3,128.25,0.25,95,135.0
2395,C3,128.25,0.25,95,135.0
2396,C5,128.375,0.125,95,135.0
2397,C5,128.5,0.125,95,135.0
2398,C2,128.5,0.5,95,135.0
2399,G#2,128.5,0.5,95,135.0
2400,E4,128.5,0.5,95,135.0
2401,C4,128.5,0.5,95,135.0
2402,G3,128.5,0.5,95,135.0
2403,E3,128.5,0.5,95,135.0
2404,C3,128.5,0.5,95,135.0
2405,C5,128.625,0.125,95,135.0
2406,C5,128.75,0.125,95,135.0
2407,C5,128.875,31/250,95,135.0
2408,A4,129.0,0.125,95,135.0
2409,D2,129.0,0.5,95,135.0
2410,F#4,129.0,0.5,95,135.0
2411,D4,129.0,0.5,95,135.0
2412,A3,129.0,0.5,95,135.0
2413,D3,129.0,0.5,95,135.0
2414,G#2,129.0,0.5,95,135.0
2415,C2,129.0,0.5,95,135.0
2416,A4,129.125,0.125,95,135.0
2417,A4,129.25,0.125,95,135.0
2418,A4,129.375,0.125,95,135.0
2419,A4,129.5,0.125,95,135.0
2420,D2,129.5,0.5,95,135.0
2421,G#2,129.5,0.5,95,135.0
2422,F#4,129.5,0.25,95,135.0
2423,D4,129.5,0.25,95,135.0
2424,A3,129.5,0.25,95,135.0
2425,D3,129.5,0.25,95,135.0
2426,A4,129.625,0.125,95,135.0
2427,A4,129.75,0.125,95,135.0
2428,F#4,129.75,0.25,95,135.0
2429,D4,129.75,0.25,95,135.0
2430,A3,129.75,0.25,95,135.0
2431,D3,129.75,0.25,95,135.0
2432,A4,129.875,0.125,95,135.0
2433,A4,130.0,0.125,95,135.0
2434,D2,130.0,0.5,95,135.0
2435,F#4,130.0,0.5,95,135.0
2436,D4,130.0,0.5,95,135.0
2437,A3,130.0,0.5,95,135.0
2438,D3,130.0,0.5,95,135.0
2439,G#2,130.0,0.5,95,135.0
2440,C2,130.0,0.5,95,135.0
2441,A4,130.125,0.125,95,135.0
2442,A4,130.25,0.125,95,135.0
2443,A4,130.375,31/250,95,135.0
2444,D5,130.5,0.125,95,135.0
2445,D2,130.5,0.5,95,135.0
2446,F#4,130.5,0.5,95,135.0
2447,D4,130.5,0.5,95,135.0
2448,A3,130.5,0.5,95,135.0
2449,D3,130.5,0.5,95,135.0
2450,G#2,130.5,0.5,95,135.0
2451,D2,130.5,0.5,95,135.0
2452,D5,130.625,0.125,95,135.0
2453,D5,130.75,0.125,95,135.0
2454,D5,130.875,0.125,95,135.0
2455,D5,131.0,0.125,95,135.0
2456,D2,131.0,0.5,95,135.0
2457,G#2,131.0,0.5,95,135.0
2458,F#4,131.0,0.25,95,135.0
2459,D4,131.0,0.25,95,135.0
2460,A3,131.0,0.25,95,135.0
2461,D3,131.0,0.25,95,135.0
2462,D5,131.125,0.125,95,135.0
2463,D5,131.25,0.125,95,135.0
2464,F#4,131.25,0.25,95,135.0
2465,D4,131.25,0.25,95,135.0
2466,A3,131.25,0.25,95,135.0
2467,D3,131.25,0.25,95,135.0
2468,D5,131.375,0.125,95,135.0
2469,D5,131.5,0.125,95,135.0
2470,D2,131.5,0.5,95,135.0
2471,G#2,131.5,0.5,95,135.0
2472,F#4,131.5,0.5,95,135.0
2473,D4,131.5,0.5,95,135.0
2474,A3,131.5,0.5,95,135.0
2475,D3,131.5,0.5,95,135.0
2476,D5,131.625,0.125,95,135.0
2477,D5,131.75,0.125,95,135.0
2478,D5,131.875,31/250,95,135.0
2479,G1,132.0,0.5,95,135.0
2480,G4,132.0,0.5,95,135.0
2481,D4,132.0,0.5,95,135.0
2482,G3,132.0,0.5,95,135.0
2483,D3,132.0,0.5,95,135.0
2484,B2,132.0,0.5,95,135.0
2485,G2,132.0,0.5,95,135.0
2486,B4,132.0,3.0,95,135.0
2487,G4,132.0,3.0,95,135.0
2488,G#2,132.0,0.5,95,135.0
2489,C2,132.0,0.5,95,135.0
2490,G1,132.5,0.5,95,135.0
2491,G#2,132.5,0.5,95,135.0
2492,G4,132.5,0.25,95,135.0
2493,D4,132.5,0.25,95,135.0
2494,G3,132.5,0.25,95,135.0
2495,D3,132.5,0.25,95,135.0
2496,B2,132.5,0.25,95,135.0
2497,G2,132.5,0.25,95,135.0
2498,G4,132.75,0.25,95,135.0
2499,D4,132.75,0.25,95,135.0
2500,G3,132.75,0.25,95,135.0
2501,D3,132.75,0.25,95,135.0
2502,B2,132.75,0.25,95,135.0
2503,G2,132.75,0.25,95,135.0
2504,G1,133.0,0.5,95,135.0
2505,G4,133.0,0.5,95,135.0
2506,D4,133.0,0.5,95,135.0
2507,G3,133.0,0.5,95,135.0
2508,D3,133.0,0.5,95,135.0
2509,B2,133.0,0.5,95,135.0
2510,G2,133.0,0.5,95,135.0
2511,G#2,133.0,0.5,95,135.0
2512,C2,133.0,0.5,95,135.0
2513,G1,133.5,0.5,95,135.0
2514,G4,133.5,0.5,95,135.0
2515,D4,133.5,0.5,95,135.0
2516,G3,133.5,0.5,95,135.0
2517,D3,133.5,0.5,95,135.0
2518,B2,133.5,0.5,95,135.0
2519,G2,133.5,0.5,95,135.0
2520,G#2,133.5,0.5,95,135.0
2521,D2,133.5,0.5,95,135.0
2522,G1,134.0,0.5,95,135.0
2523,G#2,134.0,0.5,95,135.0
2524,G4,134.0,0.25,95,135.0
2525,D4,134.0,0.25,95,135.0
2526,G3,134.0,0.25,95,135.0
2527,D3,134.0,0.25,95,135.0
2528,B2,134.0,0.25,95,135.0
2529,G2,134.0,0.25,95,135.0
2530,G4,134.25,0.25,95,135.0
2531,D4,134.25,0.25,95,135.0
2532,G3,134.25,0.25,95,135.0
2533,D3,134.25,0.25,95,135.0
2534,B2,134.25,0.25,95,135.0
2535,G2,134.25,0.25,95,135.0
2536,G1,134.5,0.5,95,135.0
2537,G#2,134.5,0.5,95,135.0
2538,G4,134.5,0.5,95,135.0
2539,D4,134.5,0.5,95,135.0
2540,G3,134.5,0.5,95,135.0
2541,D3,134.5,0.5,95,135.0
2542,B2,134.5,0.5,95,135.0
2543,G2,134.5,0.5,95,135.0
2544,D2,135.0,0.5,95,135.0
2545,F#4,135.0,0.5,95,135.0
2546,D4,135.0,0.5,95,135.0
2547,A3,135.0,0.5,95,135.0
2548,D3,135.0,0.5,95,135.0
2549,D5,135.0,3.0,95,135.0
2550,A4,135.0,3.0,95,135.0
2551,G#2,135.0,0.5,95,135.0
2552,C2,135.0,0.5,95,135.0
2553,D2,135.5,0.5,95,135.0
2554,G#2,135.5,0.5,95,135.0
2555,F#4,135.5,0.25,95,135.0
2556,D4,135.5,0.25,95,135.0
2557,A3,135.5,0.25,95,135.0
2558,D3,135.5,0.25,95,135.0
2559,F#4,135.75,0.25,95,135.0
2560,D4,135.75,0.25,95,135.0
2561,A3,135.75,0.25,95,135.0
2562,D3,135.75,0.25,95,135.0
2563,D2,136.0,0.5,95,135.0
2564,F#4,136.0,0.5,95,135.0
2565,D4,136.0,0.5,95,135.0
2566,A3,136.0,0.5,95,135.0
2567,D3,136.0,0.5,95,135.0
2568,G#2,136.0,0.5,95,135.0
2569,C2,136.0,0.5,95,135.0
2570,D2,136.5,0.5,95,135.0
2571,F#4,136.5,0.5,95,135.0
2572,D4,136.5,0.5,95,135.0
2573,A3,136.5,0.5,95,135.0
2574,D3,136.5,0.5,95,135.0
2575,G#2,136.5,0.5,95,135.0
2576,D2,136.5,0.5,95,135.0
2577,D2,137.0,0.5,95,135.0
2578,G#2,137.0,0.5,95,135.0
2579,F#4,137.0,0.25,95,135.0
2580,D4,137.0,0.25,95,135.0
2581,A3,137.0,0.25,95,135.0
2582,D3,137.0,0.25,95,135.0
2583,F#4,137.25,0.25,95,135.0
2584,D4,137.25,0.25,95,135.0
2585,A3,137.25,0.25,95,135.0
2586,D3,137.25,0.25,95,135.0
2587,D2,137.5,0.5,95,135.0
2588,G#2,137.5,0.5,95,135.0
2589,F#4,137.5,0.5,95,135.0
2590,D4,137.5,0.5,95,135.0
2591,A3,137.5,0.5,95,135.0
2592,D3,137.5,0.5,95,135.0
2593,C2,138.0,0.5,95,135.0
2594,E4,138.0,0.5,95,135.0
2595,C4,138.0,0.5,95,135.0
2596,G3,138.0,0.5,95,135.0
2597,E3,138.0,0.5,95,135.0
2598,C3,138.0,0.5,95,135.0
2599,C5,138.0,3.0,95,135.0
2600,G4,138.0,3.0,95,135.0
2601,G#2,138.0,0.5,95,135.0
2602,C2,138.0,0.5,95,135.0
2603,C2,138.5,0.5,95,135.0
2604,G#2,138.5,0.5,95,135.0
2605,E4,138.5,0.25,95,135.0
2606,C4,138.5,0.25,95,135.0
2607,G3,138.5,0.25,95,135.0
2608,E3,138.5,0.25,95,135.0
2609,C3,138.5,0.25,95,135.0
2610,E4,138.75,0.25,95,135.0
2611,C4,138.75,0.25,95,135.0
2612,G3,138.75,0.25,95,135.0
2613,E3,138.75,0.25,95,135.0
2614,C3,138.75,0.25,95,135.0
2615,C2,139.0,0.5,95,135.0
2616,E4,139.0,0.5,95,135.0
2617,C4,139.0,0.5,95,135.0
2618,G3,139.0,0.5,95,135.0
2619,E3,139.0,0.5,95,135.0
2620,C3,139.0,0.5,95,135.0
2621,G#2,139.0,0.5,95,135.0
2622,C2,139.0,0.5,95,135.0
2623,C2,139.5,0.5,95,135.0
2624,E4,139.5,0.5,95,135.0
2625,C4,139.5,0.5,95,135.0
2626,G3,139.5,0.5,95,135.0
2627,E3,139.5,0.5,95,135.0
2628,C3,139.5,0.5,95,135.0
2629,G#2,139.5,0.5,95,135.0
2630,D2,139.5,0.5,95,135.0
2631,C2,140.0,0.5,95,135.0
2632,G#2,140.0,0.5,95,135.0
2633,E4,140.0,0.25,95,135.0
2634,C4,140.0,0.25,95,135.0
2635,G3,140.0,0.25,95,135.0
2636,E3,140.0,0.25,95,135.0
2637,C3,140.0,0.25,95,135.0
2638,E4,140.25,0.25,95,135.0
2639,C4,140.25,0.25,95,135.0
2640,G3,140.25,0.25,95,135.0
2641,E3,140.25,0.25,95,135.0
2642,C3,140.25,0.25,95,135.0
2643,C2,140.5,0.5,95,135.0
2644,G#2,140.5,0.5,95,135.0
2645,E4,140.5,0.5,95,135.0
2646,C4,140.5,0.5,95,135.0
2647,G3,140.5,0.5,95,135.0
2648,E3,140.5,0.5,95,135.0
2649,C3,140.5,0.5,95,135.0
2650,D2,141.0,0.5,95,135.0
2651,F#4,141.0,0.5,95,135.0
2652,D4,141.0,0.5,95,135.0
2653,A3,141.0,0.5,95,135.0
2654,D3,141.0,0.5,95,135.0
2655,D5,141.0,3.0,95,135.0
2656,A4,141.0,3.0,95,135.0
2657,G#2,141.0,0.5,95,135.0
2658,C2,141.0,0.5,95,135.0
2659,D2,141.5,0.5,95,135.0
2660,G#2,141.5,0.5,95,135.0
2661,F#4,141.5,0.25,95,135.0
2662,D4,141.5,0.25,95,135.0
2663,A3,141.5,0.25,95,135.0
2664,D3,141.5,0.25,95,135.0
2665,F#4,141.75,0.25,95,135.0
2666,D4,141.75,0.25,95,135.0
2667,A3,141.75,0.25,95,135.0
2668,D3,141.75,0.25,95,135.0
2669,D2,142.0,0.5,95,135.0
2670,F#4,142.0,0.5,95,135.0
2671,D4,142.0,0.5,95,135.0
2672,A3,142.0,0.5,95,135.0
2673,D3,142.0,0.5,95,135.0
2674,G#2,142.0,0.5,95,135.0
2675,C2,142.0,0.5,95,135.0
2676,D2,142.5,0.5,95,135.0
2677,F#4,142.5,0.5,95,135.0
2678,D4,142.5,0.5,95,135.0
2679,A3,142.5,0.5,95,135.0
2680,D3,142.5,0.5,95,135.0
2681,G#2,142.5,0.5,95,135.0
2682,D2,142.5,0.5,95,135.0
2683,D2,143.0,0.5,95,135.0
2684,G#2,143.0,0.5,95,135.0
2685,F#4,143.0,0.25,95,135.0
2686,D4,143.0,0.25,95,135.0
2687,A3,143.0,0.25,95,135.0
2688,D3,143.0,0.25,95,135.0
2689,F#4,143.25,0.25,95,135.0
2690,D4,143.25,0.25,95,135.0
2691,A3,143.25,0.25,95,135.0
2692,D3,143.25,0.25,95,135.0
2693,D2,143.5,0.5,95,135.0
2694,G#2,143.5,0.5,95,135.0
2695,F#4,143.5,0.5,95,135.0
2696,D4,143.5,0.5,95,135.0
2697,A3,143.5,0.5,95,135.0
2698,D3,143.5,0.5,95,135.0
2699,G1,144.0,0.5,95,135.0
2700,G4,144.0,0.5,95,135.0
2701,D4,144.0,0.5,95,135.0
2702,G3,144.0,0.5,95,135.0
2703,D3,144.0,0.5,95,135.0
2704,B2,144.0,0.5,95,135.0
2705,G2,144.0,0.5,95,135.0
2706,B4,144.0,3.0,95,135.0
2707,G4,144.0,3.0,95,135.0
2708,G#2,144.0,0.5,95,135.0
2709,C2,144.0,0.5,95,135.0
2710,G1,144.5,0.5,95,135.0
2711,G#2,144.5,0.5,95,135.0
2712,G4,144.5,0.25,95,135.0
2713,D4,144.5,0.25,95,135.0
2714,G3,144.5,0.25,95,135.0
2715,D3,144.5,0.25,95,135.0
2716,B2,144.5,0.25,95,135.0
2717,G2,144.5,0.25,95,135.0
2718,G4,144.75,0.25,95,135.0
2719,D4,144.75,0.25,95,135.0
2720,G3,144.75,0.25,95,135.0
2721,D3,144.75,0.25,95,135.0
2722,B2,144.75,0.25,95,135.0
2723,G2,144.75,0.25,95,135.0
2724,G1,145.0,0.5,95,135.0
2725,G4,145.0,0.5,95,135.0
2726,D4,145.0,0.5,95,135.0
2727,G3,145.0,0.5,95,135.0
2728,D3,145.0,0.5,95,135.0
2729,B2,145.0,0.5,95,135.0
2730,G2,145.0,0.5,95,135.0
2731,G#2,145.0,0.5,95,135.0
2732,C2,145.0,0.5,95,135.0
2733,G1,145.5,0.5,95,135.0
2734,G4,145.5,0.5,95,135.0
2735,D4,145.5,0.5,95,135.0
2736,G3,145.5,0.5,95,135.0
2737,D3,145.5,0.5,95,135.0
2738,B2,145.5,0.5,95,135.0
2739,G2,145.5,0.5,95,135.0
2740,G#2,145.5,0.5,95,135.0
2741,D2,145.5,0.5,95,135.0
2742,G1,146.0,0.5,95,135.0
2743,G#2,146.0,0.5,95,135.0
2744,G4,146.0,0.25,95,135.0
2745,D4,146.0,0.25,95,135.0
2746,G3,146.0,0.25,95,135.0
2747,D3,146.0,0.25,95,135.0
2748,B2,146.0,0.25,95,135.0
2749,G2,146.0,0.25,95,135.0
2750,G4,146.25,0.25,95,135.0
2751,D4,146.25,0.25,95,135.0
2752,G3,146.25,0.25,95,135.0
2753,D3,146.25,0.25,95,135.0
2754,B2,146.25,0.25,95,135.0
2755,G2,146.25,0.25,95,135.0
2756,G1,146.5,0.5,95,135.0
2757,G#2,146.5,0.5,95,135.0
2758,G4,146.5,0.5,95,135.0
2759,D4,146.5,0.5,95,135.0
2760,G3,146.5,0.5,95,135.0
2761,D3,146.5,0.5,95,135.0
2762,B2,146.5,0.5,95,135.0
2763,G2,146.5,0.5,95,135.0
2764,D2,147.0,0.5,95,135.0
2765,F#4,147.0,0.5,95,135.0
2766,D4,147.0,0.5,95,135.0
2767,A3,147.0,0.5,95,135.0
2768,D3,147.0,0.5,95,135.0
2769,D5,147.0,3.0,95,135.0
2770,A4,147.0,3.0,95,135.0
2771,G#2,147.0,0.5,95,135.0
2772,C2,147.0,0.5,95,135.0
2773,D2,147.5,0.5,95,135.0
2774,G#2,147.5,0.5,95,135.0
2775,F#4,147.5,0.25,95,135.0
2776,D4,147.5,0.25,95,135.0
2777,A3,147.5,0.25,95,135.0
2778,D3,147.5,0.25,95,135.0
2779,F#4,147.75,0.25,95,135.0
2780,D4,147.75,0.25,95,135.0
2781,A3,147.75,0.25,95,135.0
2782,D3,147.75,0.25,95,135.0
2783,D2,148.0,0.5,95,135.0
2784,F#4,148.0,0.5,95,135.0
2785,D4,148.0,0.5,95,135.0
2786,A3,148.0,0.5,95,135.0
2787,D3,148.0,0.5,95,135.0
2788,G#2,148.0,0.5,95,135.0
2789,C2,148.0,0.5,95,135.0
2790,D2,148.5,0.5,95,135.0
2791,F#4,148.5,0.5,95,135.0
2792,D4,148.5,0.5,95,135.0
2793,A3,148.5,0.5,95,135.0
2794,D3,148.5,0.5,95,135.0
2795,G#2,148.5,0.5,95,135.0
2796,D2,148.5,0.5,95,135.0
2797,D2,149.0,0.5,95,135.0
2798,G#2,149.0,0.5,95,135.0
2799,F#4,149.0,0.25,95,135.0
2800,D4,149.0,0.25,95,135.0
2801,A3,149.0,0.25,95,135.0
2802,D3,149.0,0.25,95,135.0
2803,F#4,149.25,0.25,95,135.0
2804,D4,149.25,0.25,95,135.0
2805,A3,149.25,0.25,95,135.0
2806,D3,149.25,0.25,95,135.0
2807,D2,149.5,0.5,95,135.0
2808,G#2,149.5,0.5,95,135.0
2809,F#4,149.5,0.5,95,135.0
2810,D4,149.5,0.5,95,135.0
2811,A3,149.5,0.5,95,135.0
2812,D3,149.5,0.5,95,135.0
2813,C2,150.0,0.5,95,135.0
2814,E4,150.0,0.5,95,135.0
2815,C4,150.0,0.5,95,135.0
2816,G3,150.0,0.5,95,135.0
2817,E3,150.0,0.5,95,135.0
2818,C3,150.0,0.5,95,135.0
2819,C5,150.0,3.0,95,135.0
2820,G4,150.0,3.0,95,135.0
2821,G#2,150.0,0.5,95,135.0
2822,C2,150.0,0.5,95,135.0
2823,C2,150.5,0.5,95,135.0
2824,G#2,150.5,0.5,95,135.0
2825,E4,150.5,0.25,95,135.0
2826,C4,150.5,0.25,95,135.0
2827,G3,150.5,0.25,95,135.0
2828,E3,150.5,0.25,95,135.0
2829,C3,150.5,0.25,95,135.0
2830,E4,150.75,0.25,95,135.0
2831,C4,150.75,0.25,95,135.0
2832,G3,150.75,0.25,95,135.0
2833,E3,150.75,0.25,95,135.0
2834,C3,150.75,0.25,95,135.0
2835,C2,151.0,0.5,95,135.0
2836,E4,151.0,0.5,95,135.0
2837,C4,151.0,0.5,95,135.0
2838,G3,151.0,0.5,95,135.0
2839,E3,151.0,0.5,95,135.0
2840,C3,151.0,0.5,95,135.0
2841,G#2,151.0,0.5,95,135.0
2842,C2,151.0,0.5,95,135.0
2843,C2,151.5,0.5,95,135.0
2844,E4,151.5,0.5,95,135.0
2845,C4,151.5,0.5,95,135.0
2846,G3,151.5,0.5,95,135.0
2847,E3,151.5,0.5,95,135.0
2848,C3,151.5,0.5,95,135.0
2849,G#2,151.5,0.5,95,135.0
2850,D2,151.5,0.5,95,135.0
2851,C2,152.0,0.5,95,135.0
2852,G#2,152.0,0.5,95,135.0
2853,E4,152.0,0.25,95,135.0
2854,C4,152.0,0.25,95,135.0
2855,G3,152.0,0.25,95,135.0
2856,E3,152.0,0.25,95,135.0
2857,C3,152.0,0.25,95,135.0
2858,E4,152.25,0.25,95,135.0
2859,C4,152.25,0.25,95,135.0
2860,G3,152.25,0.25,95,135.0
2861,E3,152.25,0.25,95,135.0
2862,C3,152.25,0.25,95,135.0
2863,C2,152.5,0.5,95,135.0
2864,G#2,152.5,0.5,95,135.0
2865,E4,152.5,0.5,95,135.0
2866,C4,152.5,0.5,95,135.0
2867,G3,152.5,0.5,95,135.0
2868,E3,152.5,0.5,95,135.0
2869,C3,152.5,0.5,95,135.0
2870,D2,153.0,0.5,95,135.0
2871,G#2,153.0,0.5,95,135.0
2872,F#4,153.0,0.5,95,135.0
2873,D4,153.0,0.5,95,135.0
2874,A3,153.0,0.5,95,135.0
2875,D3,153.0,0.5,95,135.0
2876,D5,153.0,3.0,95,135.0
2877,A4,153.0,3.0,95,135.0
2878,D2,153.5,0.5,95,135.0
2879,G#2,153.5,0.5,95,135.0
2880,F#4,153.5,0.25,95,135.0
2881,D4,153.5,0.25,95,135.0
2882,A3,153.5,0.25,95,135.0
2883,D3,153.5,0.25,95,135.0
2884,F#4,153.75,0.25,95,135.0
2885,D4,153.75,0.25,95,135.0
2886,A3,153.75,0.25,95,135.0
2887,D3,153.75,0.25,95,135.0
2888,D2,154.0,0.5,95,135.0
2889,F#4,154.0,0.5,95,135.0
2890,D4,154.0,0.5,95,135.0
2891,A3,154.0,0.5,95,135.0
2892,D3,154.0,0.5,95,135.0
2893,G#2,154.0,0.5,95,135.0
2894,C2,154.0,0.5,95,135.0
2895,D2,154.5,0.5,95,135.0
2896,F#4,154.5,0.5,95,135.0
2897,D4,154.5,0.5,95,135.0
2898,A3,154.5,0.5,95,135.0
2899,D3,154.5,0.5,95,135.0
2900,G#2,154.5,0.5,95,135.0
2901,D2,154.5,0.5,95,135.0
2902,D2,155.0,0.5,95,135.0
2903,G#2,155.0,0.5,95,135.0
2904,F#4,155.0,0.25,95,135.0
2905,D4,155.0,0.25,95,135.0
2906,A3,155.0,0.25,95,135.0
2907,D3,155.0,0.25,95,135.0
2908,F#4,155.25,0.25,95,135.0
2909,D4,155.25,0.25,95,135.0
2910,A3,155.25,0.25,95,135.0
2911,D3,155.25,0.25,95,135.0
2912,D2,155.5,0.5,95,135.0
2913,G#2,155.5,0.5,95,135.0
2914,F#4,155.5,0.5,95,135.0
2915,D4,155.5,0.5,95,135.0
2916,A3,155.5,0.5,95,135.0
2917,D3,155.5,0.5,95,135.0
2918,G1,156.0,0.5,95,135.0
2919,G4,156.0,0.5,95,135.0
2920,D4,156.0,0.5,95,135.0
2921,G3,156.0,0.5,95,135.0
2922,D3,156.0,0.5,95,135.0
2923,B2,156.0,0.5,95,135.0
2924,G2,156.0,0.5,95,135.0
2925,B4,156.0,3.0,95,135.0
2926,G4,156.0,3.0,95,135.0
2927,G#2,156.0,0.5,95,135.0
2928,C2,156.0,0.5,95,135.0
2929,G1,156.5,0.5,95,135.0
2930,G#2,156.5,0.5,95,135.0
2931,G4,156.5,0.25,95,135.0
2932,D4,156.5,0.25,95,135.0
2933,G3,156.5,0.25,95,135.0
2934,D3,156.5,0.25,95,135.0
2935,B2,156.5,0.25,95,135.0
2936,G2,156.5,0.25,95,135.0
2937,G4,156.75,0.25,95,135.0
2938,D4,156.75,0.25,95,135.0
2939,G3,156.75,0.25,95,135.0
2940,D3,156.75,0.25,95,135.0
2941,B2,156.75,0.25,95,135.0
2942,G2,156.75,0.25,95,135.0
2943,G1,157.0,0.5,95,135.0
2944,G4,157.0,0.5,95,135.0
2945,D4,157.0,0.5,95,135.0
2946,G3,157.0,0.5,95,135.0
2947,D3,157.0,0.5,95,135.0
2948,B2,157.0,0.5,95,135.0
2949,G2,157.0,0.5,95,135.0
2950,G#2,157.0,0.5,95,135.0
2951,C2,157.0,0.5,95,135.0
2952,G1,157.5,0.5,95,135.0
2953,G4,157.5,0.5,95,135.0
2954,D4,157.5,0.5,95,135.0
2955,G3,157.5,0.5,95,135.0
2956,D3,157.5,0.5,95,135.0
2957,B2,157.5,0.5,95,135.0
2958,G2,157.5,0.5,95,135.0
2959,G#2,157.5,0.5,95,135.0
2960,D2,157.5,0.5,95,135.0
2961,G1,158.0,0.5,95,135.0
2962,G#2,158.0,0.5,95,135.0
2963,G4,158.0,0.25,95,135.0
2964,D4,158.0,0.25,95,135.0
2965,G3,158.0,0.25,95,135.0
2966,D3,158.0,0.25,95,135.0
2967,B2,158.0,0.25,95,135.0
2968,G2,158.0,0.25,95,135.0
2969,G4,158.25,0.25,95,135.0
2970,D4,158.25,0.25,95,135.0
2971,G3,158.25,0.25,95,135.0
2972,D3,158.25,0.25,95,135.0
2973,B2,158.25,0.25,95,135.0
2974,G2,158.25,0.25,95,135.0
2975,G1,158.5,0.5,95,135.0
2976,G#2,158.5,0.5,95,135.0
2977,G4,158.5,0.5,95,135.0
2978,D4,158.5,0.5,95,135.0
2979,G3,158.5,0.5,95,135.0
2980,D3,158.5,0.5,95,135.0
2981,B2,158.5,0.5,95,135.0
2982,G2,158.5,0.5,95,135.0
2983,D2,159.0,0.5,95,135.0
2984,F#4,159.0,0.5,95,135.0
2985,D4,159.0,0.5,95,135.0
2986,A3,159.0,0.5,95,135.0
2987,D3,159.0,0.5,95,135.0
2988,D5,159.0,3.0,95,135.0
2989,A4,159.0,3.0,95,135.0
2990,G#2,159.0,0.5,95,135.0
2991,C2,159.0,0.5,95,135.0
2992,D2,159.5,0.5,95,135.0
2993,G#2,159.5,0.5,95,135.0
2994,F#4,159.5,0.25,95,135.0
2995,D4,159.5,0.25,95,135.0
2996,A3,159.5,0.25,95,135.0
2997,D3,159.5,0.25,95,135.0
2998,F#4,159.75,0.25,95,135.0
2999,D4,159.75,0.25,95,135.0
3000,A3,159.75,0.25,95,135.0
3001,D3,159.75,0.25,95,135.0
3002,D2,160.0,0.5,95,135.0
3003,F#4,160.0,0.5,95,135.0
3004,D4,160.0,0.5,95,135.0
3005,A3,160.0,0.5,95,135.0
3006,D3,160.0,0.5,95,135.0
3007,G#2,160.0,0.5,95,135.0
3008,C2,160.0,0.5,95,135.0
3009,D2,160.5,0.5,95,135.0
3010,F#4,160.5,0.5,95,135.0
3011,D4,160.5,0.5,95,135.0
3012,A3,160.5,0.5,95,135.0
3013,D3,160.5,0.5,95,135.0
3014,G#2,160.5,0.5,95,135.0
3015,D2,160.5,0.5,95,135.0
3016,D2,161.0,0.5,95,135.0
3017,G#2,161.0,0.5,95,135.0
3018,F#4,161.0,0.25,95,135.0
3019,D4,161.0,0.25,95,135.0
3020,A3,161.0,0.25,95,135.0
3021,D3,161.0,0.25,95,135.0
3022,F#4,161.25,0.25,95,135.0
3023,D4,161.25,0.25,95,135.0
3024,A3,161.25,0.25,95,135.0
3025,D3,161.25,0.25,95,135.0
3026,D2,161.5,0.5,95,135.0
3027,G#2,161.5,0.5,95,135.0
3028,F#4,161.5,0.5,95,135.0
3029,D4,161.5,0.5,95,135.0
3030,A3,161.5,0.5,95,135.0
3031,D3,161.5,0.5,95,135.0
3032,C2,162.0,0.5,95,135.0
3033,E4,162.0,0.5,95,135.0
3034,C4,162.0,0.5,95,135.0
3035,G3,162.0,0.5,95,135.0
3036,E3,162.0,0.5,95,135.0
3037,C3,162.0,0.5,95,135.0
3038,C5,162.0,1.0,95,135.0
3039,G4,162.0,1.0,95,135.0
3040,G#2,162.0,0.5,95,135.0
3041,C2,162.0,0.5,95,135.0
3042,C2,162.5,0.5,95,135.0
3043,G#2,162.5,0.5,95,135.0
3044,E4,162.5,0.25,95,135.0
3045,C4,162.5,0.25,95,135.0
3046,G3,162.5,0.25,95,135.0
3047,E3,162.5,0.25,95,135.0
3048,C3,162.5,0.25,95,135.0
3049,E4,162.75,0.25,95,135.0
3050,C4,162.75,0.25,95,135.0
3051,G3,162.75,0.25,95,135.0
3052,E3,162.75,0.25,95,135.0
3053,C3,162.75,0.25,95,135.0
3054,C2,163.0,0.5,95,135.0
3055,E4,163.0,0.5,95,135.0
3056,C4,163.0,0.5,95,135.0
3057,G3,163.0,0.5,95,135.0
3058,E3,163.0,0.5,95,135.0
3059,C3,163.0,0.5,95,135.0
3060,G#2,163.0,0.5,95,135.0
3061,C2,163.0,0.5,95,135.0
3062,B4,163.5,0.25,95,135.0
3063,C2,163.5,0.5,95,135.0
3064,E4,163.5,0.5,95,135.0
3065,C4,163.5,0.5,95,135.0
3066,G3,163.5,0.5,95,135.0
3067,E3,163.5,0.5,95,135.0
3068,C3,163.5,0.5,95,135.0
3069,G#2,163.5,0.5,95,135.0
3070,D2,163.5,0.5,95,135.0
3071,C5,163.75,0.25,95,135.0
3072,B4,164.0,0.25,95,135.0
3073,C2,164.0,0.5,95,135.0
3074,G#2,164.0,0.5,95,135.0
3075,E4,164.0,0.25,95,135.0
3076,C4,164.0,0.25,95,135.0
3077,G3,164.0,0.25,95,135.0
3078,E3,164.0,0.25,95,135.0
3079,C3,164.0,0.25,95,135.0
3080,A4,164.25,0.25,95,135.0
3081,E4,164.25,0.25,95,135.0
3082,C4,164.25,0.25,95,135.0
3083,G3,164.25,0.25,95,135.0
3084,E3,164.25,0.25,95,135.0
3085,C3,164.25,0.25,95,135.0
3086,G4,164.5,0.25,95,135.0
3087,C2,164.5,0.5,95,135.0
3088,G#2,164.5,0.5,95,135.0
3089,E4,164.5,0.5,95,135.0
3090,C4,164.5,0.5,95,135.0
3091,G3,164.5,0.5,95,135.0
3092,E3,164.5,0.5,95,135.0
3093,C3,164.5,0.5,95,135.0
3094,F#4,164.75,0.25,95,135.0
3095,F#4,165.0,0.5,95,135.0
3096,F#2,165.0,0.5,95,135.0
3097,F#4,165.0,0.5,95,135.0
3098,E-4,165.0,0.5,95,135.0
3099,B3,165.0,0.5,95,135.0
3100,F#3,165.0,0.5,95,135.0
3101,B2,165.0,0.5,95,135.0
3102,G#2,165.0,0.5,95,135.0
3103,C2,165.0,0.5,95,135.0
3104,E-4,165.5,0.5,95,135.0
3105,E-2,165.5,0.5,95,135.0
3106,G#2,165.5,0.5,95,135.0
3107,F#4,165.5,0.5,95,135.0
3108,E-4,165.5,0.5,95,135.0
3109,B3,165.5,0.5,95,135.0
3110,F#3,165.5,0.5,95,135.0
3111,B2,165.5,0.5,95,135.0
3112,B3,166.0,0.5,95,135.0
3113,B1,166.0,0.5,95,135.0
3114,F#4,166.0,0.5,95,135.0
3115,E-4,166.0,0.5,95,135.0
3116,B3,166.0,0.5,95,135.0
3117,F#3,166.0,0.5,95,135.0
3118,B2,166.0,0.5,95,135.0
3119,G#2,166.0,0.5,95,135.0
3120,C2,166.0,0.5,95,135.0
3121,F#4,166.5,0.5,95,135.0
3122,F#2,166.5,0.5,95,135.0
3123,F#4,166.5,0.5,95,135.0
3124,E-4,166.5,0.5,95,135.0
3125,B3,166.5,0.5,95,135.0
3126,F#3,166.5,0.5,95,135.0
3127,B2,166.5,0.5,95,135.0
3128,G#2,166.5,0.5,95,135.0
3129,D2,166.5,0.5,95,135.0
3130,E-4,167.0,0.5,95,135.0
3131,E-2,167.0,0.5,95,135.0
3132,G#2,167.0,0.5,95,135.0
3133,F#4,167.0,0.5,95,135.0
3134,E-4,167.0,0.5,95,135.0
3135,B3,167.0,0.5,95,135.0
3136,F#3,167.0,0.5,95,135.0
3137,B2,167.0,0.5,95,135.0
3138,B3,167.5,0.5,95,135.0
3139,B1,167.5,0.5,95,135.0
3140,G#2,167.5,0.5,95,135.0
3141,F#4,167.5,0.5,95,135.0
3142,E-4,167.5,0.5,95,135.0
3143,B3,167.5,0.5,95,135.0
3144,F#3,167.5,0.5,95,135.0
3145,B2,167.5,0.5,95,135.0
3146,E3,168.0,0.5,95,135.0
3147,E2,168.0,0.5,95,135.0
3148,E4,168.0,0.5,95,135.0
3149,B3,168.0,0.5,95,135.0
3150,G3,168.0,0.5,95,135.0
3151,E3,168.0,0.5,95,135.0
3152,B2,168.0,0.5,95,135.0
3153,E2,168.0,0.5,95,135.0
3154,G#2,168.0,0.5,95,135.0
3155,C2,168.0,0.5,95,135.0
3156,E3,168.5,0.5,95,135.0
3157,E2,168.5,0.5,95,135.0
3158,G#2,168.5,0.5,95,135.0
3159,E4,168.5,0.25,95,135.0
3160,B3,168.5,0.25,95,135.0
3161,G3,168.5,0.25,95,135.0
3162,E3,168.5,0.25,95,135.0
3163,B2,168.5,0.25,95,135.0
3164,E2,168.5,0.25,95,135.0
3165,E4,168.75,0.25,95,135.0
3166,B3,168.75,0.25,95,135.0
3167,G3,168.75,0.25,95,135.0
3168,E3,168.75,0.25,95,135.0
3169,B2,168.75,0.25,95,135.0
3170,E2,168.75,0.25,95,135.0
3171,E3,169.0,0.5,95,135.0
3172,E2,169.0,0.5,95,135.0
3173,E4,169.0,0.5,95,135.0
3174,B3,169.0,0.5,95,135.0
3175,G3,169.0,0.5,95,135.0
3176,E3,169.0,0.5,95,135.0
3177,B2,169.0,0.5,95,135.0
3178,E2,169.0,0.5,95,135.0
3179,G#2,169.0,0.5,95,135.0
3180,C2,169.0,0.5,95,135.0
3181,E3,169.5,0.5,95,135.0
3182,E2,169.5,0.5,95,135.0
3183,E4,169.5,0.5,95,135.0
3184,B3,169.5,0.5,95,135.0
3185,G3,169.5,0.5,95,135.0
3186,E3,169.5,0.5,95,135.0
3187,B2,169.5,0.5,95,135.0
3188,E2,169.5,0.5,95,135.0
3189,G#2,169.5,0.5,95,135.0
3190,D2,169.5,0.5,95,135.0
3191,D3,170.0,0.5,95,135.0
3192,E2,170.0,0.5,95,135.0
3193,G#2,170.0,0.5,95,135.0
3194,E4,170.0,0.25,95,135.0
3195,B3,170.0,0.25,95,135.0
3196,G3,170.0,0.25,95,135.0
3197,E3,170.0,0.25,95,135.0
3198,B2,170.0,0.25,95,135.0
3199,E2,170.0,0.25,95,135.0
3200,E4,170.25,0.25,95,135.0
3201,B3,170.25,0.25,95,135.0
3202,G3,170.25,0.25,95,135.0
3203,E3,170.25,0.25,95,135.0
3204,B2,170.25,0.25,95,135.0
3205,E2,170.25,0.25,95,135.0
3206,E3,170.5,0.5,95,135.0
3207,E2,170.5,0.5,95,135.0
3208,G#2,170.5,0.5,95,135.0
3209,E4,170.5,0.5,95,135.0
3210,B3,170.5,0.5,95,135.0
3211,G3,170.5,0.5,95,135.0
3212,E3,170.5,0.5,95,135.0
3213,B2,170.5,0.5,95,135.0
3214,E2,170.5,0.5,95,135.0
3215,G3,171.0,0.5,95,135.0
3216,C2,171.0,0.5,95,135.0
3217,E4,171.0,0.5,95,135.0
3218,C4,171.0,0.5,95,135.0
3219,G3,171.0,0.5,95,135.0
3220,E3,171.0,0.5,95,135.0
3221,C3,171.0,0.5,95,135.0
3222,G#2,171.0,0.5,95,135.0
3223,C2,171.0,0.5,95,135.0
3224,G3,171.5,0.5,95,135.0
3225,C2,171.5,0.5,95,135.0
3226,G#2,171.5,0.5,95,135.0
3227,E4,171.5,0.25,95,135.0
3228,C4,171.5,0.25,95,135.0
3229,G3,171.5,0.25,95,135.0
3230,E3,171.5,0.25,95,135.0
3231,C3,171.5,0.25,95,135.0
3232,E4,171.75,0.25,95,135.0
3233,C4,171.75,0.25,95,135.0
3234,G3,171.75,0.25,95,135.0
3235,E3,171.75,0.25,95,135.0
3236,C3,171.75,0.25,95,135.0
3237,G3,172.0,0.5,95,135.0
3238,C2,172.0,0.5,95,135.0
3239,E4,172.0,0.5,95,135.0
3240,C4,172.0,0.5,95,135.0
3241,G3,172.0,0.5,95,135.0
3242,E3,172.0,0.5,95,135.0
3243,C3,172.0,0.5,95,135.0
3244,G#2,172.0,0.5,95,135.0
3245,C2,172.0,0.5,95,135.0
3246,G3,172.5,0.5,95,135.0
3247,C2,172.5,0.5,95,135.0
3248,E4,172.5,0.5,95,135.0
3249,C4,172.5,0.5,95,135.0
3250,G3,172.5,0.5,95,135.0
3251,E3,172.5,0.5,95,135.0
3252,C3,172.5,0.5,95,135.0
3253,G#2,172.5,0.5,95,135.0
3254,D2,172.5,0.5,95,135.0
3255,F#3,173.0,0.5,95,135.0
3256,C2,173.0,0.5,95,135.0
3257,G#2,173.0,0.5,95,135.0
3258,E4,173.0,0.25,95,135.0
3259,C4,173.0,0.25,95,135.0
3260,G3,173.0,0.25,95,135.0
3261,E3,173.0,0.25,95,135.0
3262,C3,173.0,0.25,95,135.0
3263,E4,173.25,0.25,95,135.0
3264,C4,173.25,0.25,95,135.0
3265,G3,173.25,0.25,95,135.0
3266,E3,173.25,0.25,95,135.0
3267,C3,173.25,0.25,95,135.0
3268,G3,173.5,0.5,95,135.0
3269,C2,173.5,0.5,95,135.0
3270,G#2,173.5,0.5,95,135.0
3271,E4,173.5,0.5,95,135.0
3272,C4,173.5,0.5,95,135.0
3273,G3,173.5,0.5,95,135.0
3274,E3,173.5,0.5,95,135.0
3275,C3,173.5,0.5,95,135.0
3276,A3,174.0,0.5,95,135.0
3277,A1,174.0,0.5,95,135.0
3278,E4,174.0,0.5,95,135.0
3279,C4,174.0,0.5,95,135.0
3280,A3,174.0,0.5,95,135.0
3281,E3,174.0,0.5,95,135.0
3282,A2,174.0,0.5,95,135.0
3283,G#2,174.0,0.5,95,135.0
3284,C2,174.0,0.5,95,135.0
3285,A3,174.5,0.5,95,135.0
3286,A1,174.5,0.5,95,135.0
3287,G#2,174.5,0.5,95,135.0
3288,E4,174.5,0.25,95,135.0
3289,C4,174.5,0.25,95,135.0
3290,A3,174.5,0.25,95,135.0
3291,E3,174.5,0.25,95,135.0
3292,A2,174.5,0.25,95,135.0
3293,E4,174.75,0.25,95,135.0
3294,C4,174.75,0.25,95,135.0
3295,A3,174.75,0.25,95,135.0
3296,E3,174.75,0.25,95,135.0
3297,A2,174.75,0.25,95,135.0
3298,A3,175.0,0.5,95,135.0
3299,A1,175.0,0.5,95,135.0
3300,E4,175.0,0.5,95,135.0
3301,C4,175.0,0.5,95,135.0
3302,A3,175.0,0.5,95,135.0
3303,E3,175.0,0.5,95,135.0
3304,A2,175.0,0.5,95,135.0
3305,G#2,175.0,0.5,95,135.0
3306,C2,175.0,0.5,95,135.0
3307,G3,175.5,0.5,95,135.0
3308,A1,175.5,0.5,95,135.0
3309,E4,175.5,0.5,95,135.0
3310,C4,175.5,0.5,95,135.0
3311,A3,175.5,0.5,95,135.0
3312,E3,175.5,0.5,95,135.0
3313,A2,175.5,0.5,95,135.0
3314,G#2,175.5,0.5,95,135.0
3315,D2,175.5,0.5,95,135.0
3316,G3,176.0,0.5,95,135.0
3317,A1,176.0,0.5,95,135.0
3318,G#2,176.0,0.5,95,135.0
3319,E4,176.0,0.25,95,135.0
3320,C4,176.0,0.25,95,135.0
3321,A3,176.0,0.25,95,135.0
3322,E3,176.0,0.25,95,135.0
3323,A2,176.0,0.25,95,135.0
3324,E4,176.25,0.25,95,135.0
3325,C4,176.25,0.25,95,135.0
3326,A3,176.25,0.25,95,135.0
3327,E3,176.25,0.25,95,135.0
3328,A2,176.25,0.25,95,135.0
3329,G3,176.5,0.5,95,135.0
3330,A1,176.5,0.5,95,135.0
3331,G#2,176.5,0.5,95,135.0
3332,E4,176.5,0.5,95,135.0
3333,C4,176.5,0.5,95,135.0
3334,A3,176.5,0.5,95,135.0
3335,E3,176.5,0.5,95,135.0
3336,A2,176.5,0.5,95,135.0
3337,F#3,177.0,0.5,95,135.0
3338,D2,177.0,0.5,95,135.0
3339,F#4,177.0,0.5,95,135.0
3340,D4,177.0,0.5,95,135.0
3341,A3,177.0,0.5,95,135.0
3342,D3,177.0,0.5,95,135.0
3343,G#2,177.0,0.5,95,135.0
3344,C2,177.0,0.5,95,135.0
3345,G3,177.5,0.5,95,135.0
3346,D2,177.5,0.5,95,135.0
3347,G#2,177.5,0.5,95,135.0
3348,F#4,177.5,0.25,95,135.0
3349,D4,177.5,0.25,95,135.0
3350,A3,177.5,0.25,95,135.0
3351,D3,177.5,0.25,95,135.0
3352,F#4,177.75,0.25,95,135.0
3353,D4,177.75,0.25,95,135.0
3354,A3,177.75,0.25,95,135.0
3355,D3,177.75,0.25,95,135.0
3356,F#3,178.0,0.5,95,135.0
3357,D2,178.0,0.5,95,135.0
3358,F#4,178.0,0.5,95,135.0
3359,D4,178.0,0.5,95,135.0
3360,A3,178.0,0.5,95,135.0
3361,D3,178.0,0.5,95,135.0
3362,G#2,178.0,0.5,95,135.0
3363,C2,178.0,0.5,95,135.0
3364,E3,178.5,0.5,95,135.0
3365,F#2,178.5,0.5,95,135.0
3366,F#4,178.5,0.5,95,135.0
3367,D4,178.5,0.5,95,135.0
3368,A3,178.5,0.5,95,135.0
3369,D3,178.5,0.5,95,135.0
3370,G#2,178.5,0.5,95,135.0
3371,D2,178.5,0.5,95,135.0
3372,D3,179.0,0.5,95,135.0
3373,G2,179.0,0.5,95,135.0
3374,G#2,179.0,0.5,95,135.0
3375,F#4,179.0,0.25,95,135.0
3376,D4,179.0,0.25,95,135.0
3377,A3,179.0,0.25,95,135.0
3378,D3,179.0,0.25,95,135.0
3379,F#4,179.25,0.25,95,135.0
3380,D4,179.25,0.25,95,135.0
3381,A3,179.25,0.25,95,135.0
3382,D3,179.25,0.25,95,135.0
3383,B2,179.5,0.5,95,135.0
3384,A2,179.5,0.5,95,135.0
3385,G#2,179.5,0.5,95,135.0
3386,F#4,179.5,0.5,95,135.0
3387,D4,179.5,0.5,95,135.0
3388,A3,179.5,0.5,95,135.0
3389,D3,179.5,0.5,95,135.0
3390,E3,180.0,0.5,95,135.0
3391,E2,180.0,0.5,95,135.0
3392,E4,180.0,0.5,95,135.0
3393,B3,180.0,0.5,95,135.0
3394,G3,180.0,0.5,95,135.0
3395,E3,180.0,0.5,95,135.0
3396,B2,180.0,0.5,95,135.0
3397,E2,180.0,0.5,95,135.0
3398,G#2,180.0,0.5,95,135.0
3399,C2,180.0,0.5,95,135.0
3400,E3,180.5,0.5,95,135.0
3401,E2,180.5,0.5,95,135.0
3402,G#2,180.5,0.5,95,135.0
3403,E4,180.5,0.25,95,135.0
3404,B3,180.5,0.25,95,135.0
3405,G3,180.5,0.25,95,135.0
3406,E3,180.5,0.25,95,135.0
3407,B2,180.5,0.25,95,135.0
3408,E2,180.5,0.25,95,135.0
3409,E4,180.75,0.25,95,135.0
3410,B3,180.75,0.25,95,135.0
3411,G3,180.75,0.25,95,135.0
3412,E3,180.75,0.25,95,135.0
3413,B2,180.75,0.25,95,135.0
3414,E2,180.75,0.25,95,135.0
3415,E3,181.0,0.5,95,135.0
3416,E2,181.0,0.5,95,135.0
3417,E4,181.0,0.5,95,135.0
3418,B3,181.0,0.5,95,135.0
3419,G3,181.0,0.5,95,135.0
3420,E3,181.0,0.5,95,135.0
3421,B2,181.0,0.5,95,135.0
3422,E2,181.0,0.5,95,135.0
3423,G#2,181.0,0.5,95,135.0
3424,C2,181.0,0.5,95,135.0
3425,E3,181.5,0.5,95,135.0
3426,E2,181.5,0.5,95,135.0
3427,E4,181.5,0.5,95,135.0
3428,B3,181.5,0.5,95,135.0
3429,G3,181.5,0.5,95,135.0
3430,E3,181.5,0.5,95,135.0
3431,B2,181.5,0.5,95,135.0
3432,E2,181.5,0.5,95,135.0
3433,G#2,181.5,0.5,95,135.0
3434,D2,181.5,0.5,95,135.0
3435,D3,182.0,0.5,95,135.0
3436,E2,182.0,0.5,95,135.0
3437,G#2,182.0,0.5,95,135.0
3438,E4,182.0,0.25,95,135.0
3439,B3,182.0,0.25,95,135.0
3440,G3,182.0,0.25,95,135.0
3441,E3,182.0,0.25,95,135.0
3442,B2,182.0,0.25,95,135.0
3443,E2,182.0,0.25,95,135.0
3444,E4,182.25,0.25,95,135.0
3445,B3,182.25,0.25,95,135.0
3446,G3,182.25,0.25,95,135.0
3447,E3,182.25,0.25,95,135.0
3448,B2,182.25,0.25,95,135.0
3449,E2,182.25,0.25,95,135.0
3450,E3,182.5,0.5,95,135.0
3451,E2,182.5,0.5,95,135.0
3452,G#2,182.5,0.5,95,135.0
3453,E4,182.5,0.5,95,135.0
3454,B3,182.5,0.5,95,135.0
3455,G3,182.5,0.5,95,135.0
3456,E3,182.5,0.5,95,135.0
3457,B2,182.5,0.5,95,135.0
3458,E2,182.5,0.5,95,135.0
3459,G3,183.0,0.5,95,135.0
3460,C2,183.0,0.5,95,135.0
3461,E4,183.0,0.5,95,135.0
3462,C4,183.0,0.5,95,135.0
3463,G3,183.0,0.5,95,135.0
3464,E3,183.0,0.5,95,135.0
3465,C3,183.0,0.5,95,135.0
3466,G#2,183.0,0.5,95,135.0
3467,C2,183.0,0.5,95,135.0
3468,G3,183.5,0.5,95,135.0
3469,C2,183.5,0.5,95,135.0
3470,G#2,183.5,0.5,95,135.0
3471,E4,183.5,0.25,95,135.0
3472,C4,183.5,0.25,95,135.0
3473,G3,183.5,0.25,95,135.0
3474,E3,183.5,0.25,95,135.0
3475,C3,183.5,0.25,95,135.0
3476,E4,183.75,0.25,95,135.0
3477,C4,183.75,0.25,95,135.0
3478,G3,183.75,0.25,95,135.0
3479,E3,183.75,0.25,95,135.0
3480,C3,183.75,0.25,95,135.0
3481,G3,184.0,0.5,95,135.0
3482,C2,184.0,0.5,95,135.0
3483,E4,184.0,0.5,95,135.0
3484,C4,184.0,0.5,95,135.0
3485,G3,184.0,0.5,95,135.0
3486,E3,184.0,0.5,95,135.0
3487,C3,184.0,0.5,95,135.0
3488,G#2,184.0,0.5,95,135.0
3489,C2,184.0,0.5,95,135.0
3490,G3,184.5,0.5,95,135.0
3491,C2,184.5,0.5,95,135.0
3492,E4,184.5,0.5,95,135.0
3493,C4,184.5,0.5,95,135.0
3494,G3,184.5,0.5,95,135.0
3495,E3,184.5,0.5,95,135.0
3496,C3,184.5,0.5,95,135.0
3497,G#2,184.5,0.5,95,135.0
3498,D2,184.5,0.5,95,135.0
3499,F#3,185.0,0.5,95,135.0
3500,C2,185.0,0.5,95,135.0
3501,G#2,185.0,0.5,95,135.0
3502,E4,185.0,0.25,95,135.0
3503,C4,185.0,0.25,95,135.0
3504,G3,185.0,0.25,95,135.0
3505,E3,185.0,0.25,95,135.0
3506,C3,185.0,0.25,95,135.0
3507,E4,185.25,0.25,95,135.0
3508,C4,185.25,0.25,95,135.0
3509,G3,185.25,0.25,95,135.0
3510,E3,185.25,0.25,95,135.0
3511,C3,185.25,0.25,95,135.0
3512,G3,185.5,0.5,95,135.0
3513,C2,185.5,0.5,95,135.0
3514,G#2,185.5,0.5,95,135.0
3515,E4,185.5,0.5,95,135.0
3516,C4,185.5,0.5,95,135.0
3517,G3,185.5,0.5,95,135.0
3518,E3,185.5,0.5,95,135.0
3519,C3,185.5,0.5,95,135.0
3520,A3,186.0,0.5,95,135.0
3521,A1,186.0,0.5,95,135.0
3522,E4,186.0,0.5,95,135.0
3523,C4,186.0,0.5,95,135.0
3524,A3,186.0,0.5,95,135.0
3525,E3,186.0,0.5,95,135.0
3526,A2,186.0,0.5,95,135.0
3527,G#2,186.0,0.5,95,135.0
3528,C2,186.0,0.5,95,135.0
3529,A3,186.5,0.5,95,135.0
3530,A1,186.5,0.5,95,135.0
3531,G#2,186.5,0.5,95,135.0
3532,E4,186.5,0.25,95,135.0
3533,C4,186.5,0.25,95,135.0
3534,A3,186.5,0.25,95,135.0
3535,E3,186.5,0.25,95,135.0
3536,A2,186.5,0.25,95,135.0
3537,E4,186.75,0.25,95,135.0
3538,C4,186.75,0.25,95,135.0
3539,A3,186.75,0.25,95,135.0
3540,E3,186.75,0.25,95,135.0
3541,A2,186.75,0.25,95,135.0
3542,A3,187.0,0.5,95,135.0
3543,A1,187.0,0.5,95,135.0
3544,E4,187.0,0.5,95,135.0
3545,C4,187.0,0.5,95,135.0
3546,A3,187.0,0.5,95,135.0
3547,E3,187.0,0.5,95,135.0
3548,A2,187.0,0.5,95,135.0
3549,G#2,187.0,0.5,95,135.0
3550,C2,187.0,0.5,95,135.0
3551,G3,187.5,0.5,95,135.0
3552,A1,187.5,0.5,95,135.0
3553,E4,187.5,0.5,95,135.0
3554,C4,187.5,0.5,95,135.0
3555,A3,187.5,0.5,95,135.0
3556,E3,187.5,0.5,95,135.0
3557,A2,187.5,0.5,95,135.0
3558,G#2,187.5,0.5,95,135.0
3559,D2,187.5,0.5,95,135.0
3560,G3,188.0,0.5,95,135.0
3561,A1,188.0,0.5,95,135.0
3562,G#2,188.0,0.5,95,135.0
3563,E4,188.0,0.25,95,135.0
3564,C4,188.0,0.25,95,135.0
3565,A3,188.0,0.25,95,135.0
3566,E3,188.0,0.25,95,135.0
3567,A2,188.0,0.25,95,135.0
3568,E4,188.25,0.25,95,135.0
3569,C4,188.25,0.25,95,135.0
3570,A3,188.25,0.25,95,135.0
3571,E3,188.25,0.25,95,135.0
3572,A2,188.25,0.25,95,135.0
3573,G3,188.5,0.5,95,135.0
3574,A1,188.5,0.5,95,135.0
3575,G#2,188.5,0.5,95,135.0
3576,E4,188.5,0.5,95,135.0
3577,C4,188.5,0.5,95,135.0
3578,A3,188.5,0.5,95,135.0
3579,E3,188.5,0.5,95,135.0
3580,A2,188.5,0.5,95,135.0
3581,F#3,189.0,0.5,95,135.0
3582,D2,189.0,0.5,95,135.0
3583,F#4,189.0,0.5,95,135.0
3584,D4,189.0,0.5,95,135.0
3585,A3,189.0,0.5,95,135.0
3586,D3,189.0,0.5,95,135.0
3587,G#2,189.0,0.5,95,135.0
3588,C2,189.0,0.5,95,135.0
3589,G3,189.5,0.5,95,135.0
3590,D2,189.5,0.5,95,135.0
3591,G#2,189.5,0.5,95,135.0
3592,F#4,189.5,0.25,95,135.0
3593,D4,189.5,0.25,95,135.0
3594,A3,189.5,0.25,95,135.0
3595,D3,189.5,0.25,95,135.0
3596,F#4,189.75,0.25,95,135.0
3597,D4,189.75,0.25,95,135.0
3598,A3,189.75,0.25,95,135.0
3599,D3,189.75,0.25,95,135.0
3600,F#3,190.0,0.5,95,135.0
3601,D2,190.0,0.5,95,135.0
3602,F#4,190.0,0.5,95,135.0
3603,D4,190.0,0.5,95,135.0
3604,A3,190.0,0.5,95,135.0
3605,D3,190.0,0.5,95,135.0
3606,G#2,190.0,0.5,95,135.0
3607,C2,190.0,0.5,95,135.0
3608,E3,190.5,0.5,95,135.0
3609,F#2,190.5,0.5,95,135.0
3610,F#4,190.5,0.5,95,135.0
3611,D4,190.5,0.5,95,135.0
3612,A3,190.5,0.5,95,135.0
3613,D3,190.5,0.5,95,135.0
3614,G#2,190.5,0.5,95,135.0
3615,D2,190.5,0.5,95,135.0
3616,D3,191.0,0.5,95,135.0
3617,G2,191.0,0.5,95,135.0
3618,G#2,191.0,0.5,95,135.0
3619,F#4,191.0,0.25,95,135.0
3620,D4,191.0,0.25,95,135.0
3621,A3,191.0,0.25,95,135.0
3622,D3,191.0,0.25,95,135.0
3623,F#4,191.25,0.25,95,135.0
3624,D4,191.25,0.25,95,135.0
3625,A3,191.25,0.25,95,135.0
3626,D3,191.25,0.25,95,135.0
3627,B2,191.5,0.5,95,135.0
3628,A2,191.5,0.5,95,135.0
3629,G#2,191.5,0.5,95,135.0
3630,F#4,191.5,0.5,95,135.0
3631,D4,191.5,0.5,95,135.0
3632,A3,191.5,0.5,95,135.0
3633,D3,191.5,0.5,95,135.0
3634,E4,192.0,0.25,95,135.0
3635,E2,192.0,0.5,95,135.0
3636,E4,192.0,0.5,95,135.0
3637,B3,192.0,0.5,95,135.0
3638,G3,192.0,0.5,95,135.0
3639,E3,192.0,0.5,95,135.0
3640,B2,192.0,0.5,95,135.0
3641,E2,192.0,0.5,95,135.0
3642,G#2,192.0,0.5,95,135.0
3643,C2,192.0,0.5,95,135.0
3644,D4,192.25,0.25,95,135.0
3645,E4,192.5,0.25,95,135.0
3646,E2,192.5,0.5,95,135.0
3647,G#2,192.5,0.5,95,135.0
3648,E4,192.5,0.25,95,135.0
3649,B3,192.5,0.25,95,135.0
3650,G3,192.5,0.25,95,135.0
3651,E3,192.5,0.25,95,135.0
3652,B2,192.5,0.25,95,135.0
3653,E2,192.5,0.25,95,135.0
3654,G4,192.75,0.25,95,135.0
3655,E4,192.75,0.25,95,135.0
3656,B3,192.75,0.25,95,135.0
3657,G3,192.75,0.25,95,135.0
3658,E3,192.75,0.25,95,135.0
3659,B2,192.75,0.25,95,135.0
3660,E2,192.75,0.25,95,135.0
3661,E4,193.0,0.25,95,135.0
3662,E2,193.0,0.5,95,135.0
3663,E4,193.0,0.5,95,135.0
3664,B3,193.0,0.5,95,135.0
3665,G3,193.0,0.5,95,135.0
3666,E3,193.0,0.5,95,135.0
3667,B2,193.0,0.5,95,135.0
3668,E2,193.0,0.5,95,135.0
3669,G#2,193.0,0.5,95,135.0
3670,C2,193.0,0.5,95,135.0
3671,D4,193.25,0.25,95,135.0
3672,E4,193.5,0.5,95,135.0
3673,E2,193.5,0.5,95,135.0
3674,E4,193.5,0.5,95,135.0
3675,B3,193.5,0.5,95,135.0
3676,G3,193.5,0.5,95,135.0
3677,E3,193.5,0.5,95,135.0
3678,B2,193.5,0.5,95,135.0
3679,E2,193.5,0.5,95,135.0
3680,G#2,193.5,0.5,95,135.0
3681,D2,193.5,0.5,95,135.0
3682,F#4,194.0,0.5,95,135.0
3683,E2,194.0,0.5,95,135.0
3684,G#2,194.0,0.5,95,135.0
3685,E4,194.0,0.25,95,135.0
3686,B3,194.0,0.25,95,135.0
3687,G3,194.0,0.25,95,135.0
3688,E3,194.0,0.25,95,135.0
3689,B2,194.0,0.25,95,135.0
3690,E2,194.0,0.25,95,135.0
3691,E4,194.25,0.25,95,135.0
3692,B3,194.25,0.25,95,135.0
3693,G3,194.25,0.25,95,135.0
3694,E3,194.25,0.25,95,135.0
3695,B2,194.25,0.25,95,135.0
3696,E2,194.25,0.25,95,135.0
3697,G4,194.5,0.5,95,135.0
3698,E2,194.5,0.5,95,135.0
3699,G#2,194.5,0.5,95,135.0
3700,E4,194.5,0.5,95,135.0
3701,B3,194.5,0.5,95,135.0
3702,G3,194.5,0.5,95,135.0
3703,E3,194.5,0.5,95,135.0
3704,B2,194.5,0.5,95,135.0
3705,E2,194.5,0.5,95,135.0
3706,D5,195.0,0.25,95,135.0
3707,C2,195.0,0.5,95,135.0
3708,E4,195.0,0.5,95,135.0
3709,C4,195.0,0.5,95,135.0
3710,G3,195.0,0.5,95,135.0
3711,E3,195.0,0.5,95,135.0
3712,C3,195.0,0.5,95,135.0
3713,G#2,195.0,0.5,95,135.0
3714,C2,195.0,0.5,95,135.0
3715,C5,195.25,0.5,95,135.0
3716,C2,195.5,0.5,95,135.0
3717,G#2,195.5,0.5,95,135.0
3718,E4,195.5,0.25,95,135.0
3719,C4,195.5,0.25,95,135.0
3720,G3,195.5,0.25,95,135.0
3721,E3,195.5,0.25,95,135.0
3722,C3,195.5,0.25,95,135.0
3723,B4,195.75,0.25,95,135.0
3724,E4,195.75,0.25,95,135.0
3725,C4,195.75,0.25,95,135.0
3726,G3,195.75,0.25,95,135.0
3727,E3,195.75,0.25,95,135.0
3728,C3,195.75,0.25,95,135.0
3729,G4,196.0,0.25,95,135.0
3730,C2,196.0,0.5,95,135.0
3731,E4,196.0,0.5,95,135.0
3732,C4,196.0,0.5,95,135.0
3733,G3,196.0,0.5,95,135.0
3734,E3,196.0,0.5,95,135.0
3735,C3,196.0,0.5,95,135.0
3736,G#2,196.0,0.5,95,135.0
3737,C2,196.0,0.5,95,135.0
3738,F#4,196.25,0.25,95,135.0
3739,G4,196.5,1.0,95,135.0
3740,C2,196.5,0.5,95,135.0
3741,E4,196.5,0.5,95,135.0
3742,C4,196.5,0.5,95,135.0
3743,G3,196.5,0.5,95,135.0
3744,E3,196.5,0.5,95,135.0
3745,C3,196.5,0.5,95,135.0
3746,G#2,196.5,0.5,95,135.0
3747,D2,196.5,0.5,95,135.0
3748,C2,197.0,0.5,95,135.0
3749,G#2,197.0,0.5,95,135.0
3750,E4,197.0,0.25,95,135.0
3751,C4,197.0,0.25,95,135.0
3752,G3,197.0,0.25,95,135.0
3753,E3,197.0,0.25,95,135.0
3754,C3,197.0,0.25,95,135.0
3755,E4,197.25,0.25,95,135.0
3756,C4,197.25,0.25,95,135.0
3757,G3,197.25,0.25,95,135.0
3758,E3,197.25,0.25,95,135.0
3759,C3,197.25,0.25,95,135.0
3760,C2,197.5,0.5,95,135.0
3761,G#2,197.5,0.5,95,135.0
3762,E4,197.5,0.5,95,135.0
3763,C4,197.5,0.5,95,135.0
3764,G3,197.5,0.5,95,135.0
3765,E3,197.5,0.5,95,135.0
3766,C3,197.5,0.5,95,135.0
3767,C#5,198.0,0.25,95,135.0
3768,A1,198.0,0.5,95,135.0
3769,E4,198.0,0.5,95,135.0
3770,C4,198.0,0.5,95,135.0
3771,A3,198.0,0.5,95,135.0
3772,E3,198.0,0.5,95,135.0
3773,A2,198.0,0.5,95,135.0
3774,G#2,198.0,0.5,95,135.0
3775,C2,198.0,0.5,95,135.0
3776,B4,198.25,0.25,95,135.0
3777,C#5,198.5,0.25,95,135.0
3778,A1,198.5,0.5,95,135.0
3779,G#2,198.5,0.5,95,135.0
3780,E4,198.5,0.25,95,135.0
3781,C4,198.5,0.25,95,135.0
3782,A3,198.5,0.25,95,135.0
3783,E3,198.5,0.25,95,135.0
3784,A2,198.5,0.25,95,135.0
3785,E5,198.75,0.25,95,135.0
3786,E4,198.75,0.25,95,135.0
3787,C4,198.75,0.25,95,135.0
3788,A3,198.75,0.25,95,135.0
3789,E3,198.75,0.25,95,135.0
3790,A2,198.75,0.25,95,135.0
3791,C#5,199.0,0.25,95,135.0
3792,A1,199.0,0.5,95,135.0
3793,E4,199.0,0.5,95,135.0
3794,C4,199.0,0.5,95,135.0
3795,A3,199.0,0.5,95,135.0
3796,E3,199.0,0.5,95,135.0
3797,A2,199.0,0.5,95,135.0
3798,G#2,199.0,0.5,95,135.0
3799,C2,199.0,0.5,95,135.0
3800,B4,199.25,0.25,95,135.0
3801,A4,199.5,0.5,95,135.0
3802,A1,199.5,0.5,95,135.0
3803,E4,199.5,0.5,95,135.0
3804,C4,199.5,0.5,95,135.0
3805,A3,199.5,0.5,95,135.0
3806,E3,199.5,0.5,95,135.0
3807,A2,199.5,0.5,95,135.0
3808,G#2,199.5,0.5,95,135.0
3809,D2,199.5,0.5,95,135.0
3810,B4,200.0,0.5,95,135.0
3811,A1,200.0,0.5,95,135.0
3812,G#2,200.0,0.5,95,135.0
3813,E4,200.0,0.25,95,135.0
3814,C4,200.0,0.25,95,135.0
3815,A3,200.0,0.25,95,135.0
3816,E3,200.0,0.25,95,135.0
3817,A2,200.0,0.25,95,135.0
3818,E4,200.25,0.25,95,135.0
3819,C4,200.25,0.25,95,135.0
3820,A3,200.25,0.25,95,135.0
3821,E3,200.25,0.25,95,135.0
3822,A2,200.25,0.25,95,135.0
3823,C#5,200.5,0.5,95,135.0
3824,A1,200.5,0.5,95,135.0
3825,G#2,200.5,0.5,95,135.0
3826,E4,200.5,0.5,95,135.0
3827,C4,200.5,0.5,95,135.0
3828,A3,200.5,0.5,95,135.0
3829,E3,200.5,0.5,95,135.0
3830,A2,200.5,0.5,95,135.0
3831,E5,201.0,0.25,95,135.0
3832,D2,201.0,0.5,95,135.0
3833,F#4,201.0,0.5,95,135.0
3834,D4,201.0,0.5,95,135.0
3835,A3,201.0,0.5,95,135.0
3836,D3,201.0,0.5,95,135.0
3837,G#2,201.0,0.5,95,135.0
3838,C2,201.0,0.5,95,135.0
3839,D5,201.25,0.25,95,135.0
3840,C#5,201.5,0.25,95,135.0
3841,D2,201.5,0.5,95,135.0
3842,G#2,201.5,0.5,95,135.0
3843,F#4,201.5,0.25,95,135.0
3844,D4,201.5,0.25,95,135.0
3845,A3,201.5,0.25,95,135.0
3846,D3,201.5,0.25,95,135.0
3847,D5,201.75,0.5,95,135.0
3848,F#4,201.75,0.25,95,135.0
3849,D4,201.75,0.25,95,135.0
3850,A3,201.75,0.25,95,135.0
3851,D3,201.75,0.25,95,135.0
3852,D2,202.0,0.5,95,135.0
3853,F#4,202.0,0.5,95,135.0
3854,D4,202.0,0.5,95,135.0
3855,A3,202.0,0.5,95,135.0
3856,D3,202.0,0.5,95,135.0
3857,G#2,202.0,0.5,95,135.0
3858,C2,202.0,0.5,95,135.0
3859,B4,202.25,0.25,95,135.0
3860,F#4,202.5,1.5,95,135.0
3861,F#2,202.5,0.5,95,135.0
3862,F#4,202.5,0.5,95,135.0
3863,D4,202.5,0.5,95,135.0
3864,A3,202.5,0.5,95,135.0
3865,D3,202.5,0.5,95,135.0
3866,G#2,202.5,0.5,95,135.0
3867,D2,202.5,0.5,95,135.0
3868,G2,203.0,0.5,95,135.0
3869,G#2,203.0,0.5,95,135.0
3870,F#4,203.0,0.25,95,135.0
3871,D4,203.0,0.25,95,135.0
3872,A3,203.0,0.25,95,135.0
3873,D3,203.0,0.25,95,135.0
3874,F#4,203.25,0.25,95,135.0
3875,D4,203.25,0.25,95,135.0
3876,A3,203.25,0.25,95,135.0
3877,D3,203.25,0.25,95,135.0
3878,A2,203.5,0.5,95,135.0
3879,G#2,203.5,0.5,95,135.0
3880,F#4,203.5,0.5,95,135.0
3881,D4,203.5,0.5,95,135.0
3882,A3,203.5,0.5,95,135.0
3883,D3,203.5,0.5,95,135.0
3884,E4,204.0,0.25,95,135.0
3885,E2,204.0,0.5,95,135.0
3886,E4,204.0,0.5,95,135.0
3887,B3,204.0,0.5,95,135.0
3888,G3,204.0,0.5,95,135.0
3889,E3,204.0,0.5,95,135.0
3890,B2,204.0,0.5,95,135.0
3891,E2,204.0,0.5,95,135.0
3892,G#2,204.0,0.5,95,135.0
3893,C2,204.0,0.5,95,135.0
3894,D4,204.25,0.25,95,135.0
3895,E4,204.5,0.25,95,135.0
3896,E2,204.5,0.5,95,135.0
3897,G#2,204.5,0.5,95,135.0
3898,E4,204.5,0.25,95,135.0
3899,B3,204.5,0.25,95,135.0
3900,G3,204.5,0.25,95,135.0
3901,E3,204.5,0.25,95,135.0
3902,B2,204.5,0.25,95,135.0
3903,E2,204.5,0.25,95,135.0
3904,G4,204.75,0.25,95,135.0
3905,E4,204.75,0.25,95,135.0
3906,B3,204.75,0.25,95,135.0
3907,G3,204.75,0.25,95,135.0
3908,E3,204.75,0.25,95,135.0
3909,B2,204.75,0.25,95,135.0
3910,E2,204.75,0.25,95,135.0
3911,E4,205.0,0.25,95,135.0
3912,E2,205.0,0.5,95,135.0
3913,E4,205.0,0.5,95,135.0
3914,B3,205.0,0.5,95,135.0
3915,G3,205.0,0.5,95,135.0
3916,E3,205.0,0.5,95,135.0
3917,B2,205.0,0.5,95,135.0
3918,E2,205.0,0.5,95,135.0
3919,G#2,205.0,0.5,95,135.0
3920,C2,205.0,0.5,95,135.0
3921,D4,205.25,0.25,95,135.0
3922,E4,205.5,0.5,95,135.0
3923,E2,205.5,0.5,95,135.0
3924,E4,205.5,0.5,95,135.0
3925,B3,205.5,0.5,95,135.0
3926,G3,205.5,0.5,95,135.0
3927,E3,205.5,0.5,95,135.0
3928,B2,205.5,0.5,95,135.0
3929,E2,205.5,0.5,95,135.0
3930,G#2,205.5,0.5,95,135.0
3931,D2,205.5,0.5,95,135.0
3932,F#4,206.0,0.5,95,135.0
3933,E2,206.0,0.5,95,135.0
3934,G#2,206.0,0.5,95,135.0
3935,E4,206.0,0.25,95,135.0
3936,B3,206.0,0.25,95,135.0
3937,G3,206.0,0.25,95,135.0
3938,E3,206.0,0.25,95,135.0
3939,B2,206.0,0.25,95,135.0
3940,E2,206.0,0.25,95,135.0
3941,E4,206.25,0.25,95,135.0
3942,B3,206.25,0.25,95,135.0
3943,G3,206.25,0.25,95,135.0
3944,E3,206.25,0.25,95,135.0
3945,B2,206.25,0.25,95,135.0
3946,E2,206.25,0.25,95,135.0
3947,G4,206.5,0.5,95,135.0
3948,E2,206.5,0.5,95,135.0
3949,G#2,206.5,0.5,95,135.0
3950,E4,206.5,0.5,95,135.0
3951,B3,206.5,0.5,95,135.0
3952,G3,206.5,0.5,95,135.0
3953,E3,206.5,0.5,95,135.0
3954,B2,206.5,0.5,95,135.0
3955,E2,206.5,0.5,95,135.0
3956,D5,207.0,0.25,95,135.0
3957,C2,207.0,0.5,95,135.0
3958,E4,207.0,0.5,95,135.0
3959,C4,207.0,0.5,95,135.0
3960,G3,207.0,0.5,95,135.0
3961,E3,207.0,0.5,95,135.0
3962,C3,207.0,0.5,95,135.0
3963,G#2,207.0,0.5,95,135.0
3964,C2,207.0,0.5,95,135.0
3965,C5,207.25,0.25,95,135.0
3966,B4,207.5,0.25,95,135.0
3967,C2,207.5,0.5,95,135.0
3968,G#2,207.5,0.5,95,135.0
3969,E4,207.5,0.25,95,135.0
3970,C4,207.5,0.25,95,135.0
3971,G3,207.5,0.25,95,135.0
3972,E3,207.5,0.25,95,135.0
3973,C3,207.5,0.25,95,135.0
3974,A4,207.75,0.25,95,135.0
3975,E4,207.75,0.25,95,135.0
3976,C4,207.75,0.25,95,135.0
3977,G3,207.75,0.25,95,135.0
3978,E3,207.75,0.25,95,135.0
3979,C3,207.75,0.25,95,135.0
3980,G4,208.0,0.25,95,135.0
3981,C2,208.0,0.5,95,135.0
3982,E4,208.0,0.5,95,135.0
3983,C4,208.0,0.5,95,135.0
3984,G3,208.0,0.5,95,135.0
3985,E3,208.0,0.5,95,135.0
3986,C3,208.0,0.5,95,135.0
3987,G#2,208.0,0.5,95,135.0
3988,C2,208.0,0.5,95,135.0
3989,F#4,208.25,0.25,95,135.0
3990,G4,208.5,1.0,95,135.0
3991,C2,208.5,0.5,95,135.0
3992,E4,208.5,0.5,95,135.0
3993,C4,208.5,0.5,95,135.0
3994,G3,208.5,0.5,95,135.0
3995,E3,208.5,0.5,95,135.0
3996,C3,208.5,0.5,95,135.0
3997,G#2,208.5,0.5,95,135.0
3998,D2,208.5,0.5,95,135.0
3999,C2,209.0,0.5,95,135.0
4000,G#2,209.0,0.5,95,135.0
4001,E4,209.0,0.25,95,135.0
4002,C4,209.0,0.25,95,135.0
4003,G3,209.0,0.25,95,135.0
4004,E3,209.0,0.25,95,135.0
4005,C3,209.0,0.25,95,135.0
4006,E4,209.25,0.25,95,135.0
4007,C4,209.25,0.25,95,135.0
4008,G3,209.25,0.25,95,135.0
4009,E3,209.25,0.25,95,135.0
4010,C3,209.25,0.25,95,135.0
4011,C2,209.5,0.5,95,135.0
4012,G#2,209.5,0.5,95,135.0
4013,E4,209.5,0.5,95,135.0
4014,C4,209.5,0.5,95,135.0
4015,G3,209.5,0.5,95,135.0
4016,E3,209.5,0.5,95,135.0
4017,C3,209.5,0.5,95,135.0
4018,C#5,210.0,0.25,95,135.0
4019,A1,210.0,0.5,95,135.0
4020,E4,210.0,0.5,95,135.0
4021,C4,210.0,0.5,95,135.0
4022,A3,210.0,0.5,95,135.0
4023,E3,210.0,0.5,95,135.0
4024,A2,210.0,0.5,95,135.0
4025,G#2,210.0,0.5,95,135.0
4026,C2,210.0,0.5,95,135.0
4027,B4,210.25,0.25,95,135.0
4028,C#5,210.5,0.25,95,135.0
4029,A1,210.5,0.5,95,135.0
4030,G#2,210.5,0.5,95,135.0
4031,E4,210.5,0.25,95,135.0
4032,C4,210.5,0.25,95,135.0
4033,A3,210.5,0.25,95,135.0
4034,E3,210.5,0.25,95,135.0
4035,A2,210.5,0.25,95,135.0
4036,E5,210.75,0.25,95,135.0
4037,E4,210.75,0.25,95,135.0
4038,C4,210.75,0.25,95,135.0
4039,A3,210.75,0.25,95,135.0
4040,E3,210.75,0.25,95,135.0
4041,A2,210.75,0.25,95,135.0
4042,C#5,211.0,0.25,95,135.0
4043,A1,211.0,0.5,95,135.0
4044,E4,211.0,0.5,95,135.0
4045,C4,211.0,0.5,95,135.0
4046,A3,211.0,0.5,95,135.0
4047,E3,211.0,0.5,95,135.0
4048,A2,211.0,0.5,95,135.0
4049,G#2,211.0,0.5,95,135.0
4050,C2,211.0,0.5,95,135.0
4051,B4,211.25,0.25,95,135.0
4052,A4,211.5,0.5,95,135.0
4053,A1,211.5,0.5,95,135.0
4054,E4,211.5,0.5,95,135.0
4055,C4,211.5,0.5,95,135.0
4056,A3,211.5,0.5,95,135.0
4057,E3,211.5,0.5,95,135.0
4058,A2,211.5,0.5,95,135.0
4059,G#2,211.5,0.5,95,135.0
4060,D2,211.5,0.5,95,135.0
4061,B4,212.0,0.5,95,135.0
4062,A1,212.0,0.5,95,135.0
4063,G#2,212.0,0.5,95,135.0
4064,E4,212.0,0.25,95,135.0
4065,C4,212.0,0.25,95,135.0
4066,A3,212.0,0.25,95,135.0
4067,E3,212.0,0.25,95,135.0
4068,A2,212.0,0.25,95,135.0
4069,E4,212.25,0.25,95,135.0
4070,C4,212.25,0.25,95,135.0
4071,A3,212.25,0.25,95,135.0
4072,E3,212.25,0.25,95,135.0
4073,A2,212.25,0.25,95,135.0
4074,C#5,212.5,0.5,95,135.0
4075,A1,212.5,0.5,95,135.0
4076,G#2,212.5,0.5,95,135.0
4077,E4,212.5,0.5,95,135.0
4078,C4,212.5,0.5,95,135.0
4079,A3,212.5,0.5,95,135.0
4080,E3,212.5,0.5,95,135.0
4081,A2,212.5,0.5,95,135.0
4082,E5,213.0,0.25,95,135.0
4083,D2,213.0,0.5,95,135.0
4084,F#4,213.0,0.5,95,135.0
4085,D4,213.0,0.5,95,135.0
4086,A3,213.0,0.5,95,135.0
4087,D3,213.0,0.5,95,135.0
4088,G#2,213.0,0.5,95,135.0
4089,C2,213.0,0.5,95,135.0
4090,D5,213.25,0.25,95,135.0
4091,C#5,213.5,0.25,95,135.0
4092,D2,213.5,0.5,95,135.0
4093,G#2,213.5,0.5,95,135.0
4094,F#4,213.5,0.25,95,135.0
4095,D4,213.5,0.25,95,135.0
4096,A3,213.5,0.25,95,135.0
4097,D3,213.5,0.25,95,135.0
4098,D5,213.75,0.5,95,135.0
4099,F#4,213.75,0.25,95,135.0
4100,D4,213.75,0.25,95,135.0
4101,A3,213.75,0.25,95,135.0
4102,D3,213.75,0.25,95,135.0
4103,D2,214.0,0.5,95,135.0
4104,F#4,214.0,0.5,95,135.0
4105,D4,214.0,0.5,95,135.0
4106,A3,214.0,0.5,95,135.0
4107,D3,214.0,0.5,95,135.0
4108,G#2,214.0,0.5,95,135.0
4109,C2,214.0,0.5,95,135.0
4110,B4,214.25,0.25,95,135.0
4111,F#4,214.5,1.5,95,135.0
4112,F#2,214.5,0.5,95,135.0
4113,F#4,214.5,0.5,95,135.0
4114,D4,214.5,0.5,95,135.0
4115,A3,214.5,0.5,95,135.0
4116,D3,214.5,0.5,95,135.0
4117,G#2,214.5,0.5,95,135.0
4118,D2,214.5,0.5,95,135.0
4119,G2,215.0,0.5,95,135.0
4120,G#2,215.0,0.5,95,135.0
4121,F#4,215.0,0.25,95,135.0
4122,D4,215.0,0.25,95,135.0
4123,A3,215.0,0.25,95,135.0
4124,D3,215.0,0.25,95,135.0
4125,F#4,215.25,0.25,95,135.0
4126,D4,215.25,0.25,95,135.0
4127,A3,215.25,0.25,95,135.0
4128,D3,215.25,0.25,95,135.0
4129,A2,215.5,0.5,95,135.0
4130,G#2,215.5,0.5,95,135.0
4131,F#4,215.5,0.5,95,135.0
4132,D4,215.5,0.5,95,135.0
4133,A3,215.5,0.5,95,135.0
4134,D3,215.5,0.5,95,135.0
4135,B4,216.0,0.25,95,135.0
4136,E2,216.0,0.5,95,135.0
4137,E4,216.0,0.5,95,135.0
4138,B3,216.0,0.5,95,135.0
4139,G3,216.0,0.5,95,135.0
4140,E3,216.0,0.5,95,135.0
4141,B2,216.0,0.5,95,135.0
4142,E2,216.0,0.5,95,135.0
4143,G#2,216.0,0.5,95,135.0
4144,C2,216.0,0.5,95,135.0
4145,D5,216.25,0.25,70,135.0
4146,B4,216.5,0.25,70,135.0
4147,E2,216.5,0.5,95,135.0
4148,G#2,216.5,0.5,95,135.0
4149,E4,216.5,0.25,95,135.0
4150,B3,216.5,0.25,95,135.0
4151,G3,216.5,0.25,95,135.0
4152,E3,216.5,0.25,95,135.0
4153,B2,216.5,0.25,95,135.0
4154,E2,216.5,0.25,95,135.0
4155,D5,216.75,0.25,70,135.0
4156,E4,216.75,0.25,95,135.0
4157,B3,216.75,0.25,95,135.0
4158,G3,216.75,0.25,95,135.0
4159,E3,216.75,0.25,95,135.0
4160,B2,216.75,0.25,95,135.0
4161,E2,216.75,0.25,95,135.0
4162,B4,217.0,0.25,70,135.0
4163,E2,217.0,0.5,95,135.0
4164,E4,217.0,0.5,95,135.0
4165,B3,217.0,0.5,95,135.0
4166,G3,217.0,0.5,95,135.0
4167,E3,217.0,0.5,95,135.0
4168,B2,217.0,0.5,95,135.0
4169,E2,217.0,0.5,95,135.0
4170,G#2,217.0,0.5,95,135.0
4171,C2,217.0,0.5,95,135.0
4172,D5,217.25,0.25,70,135.0
4173,B4,217.5,0.25,70,135.0
4174,E2,217.5,0.5,95,135.0
4175,E4,217.5,0.5,95,135.0
4176,B3,217.5,0.5,95,135.0
4177,G3,217.5,0.5,95,135.0
4178,E3,217.5,0.5,95,135.0
4179,B2,217.5,0.5,95,135.0
4180,E2,217.5,0.5,95,135.0
4181,G#2,217.5,0.5,95,135.0
4182,D2,217.5,0.5,95,135.0
4183,D5,217.75,0.25,70,135.0
4184,B4,218.0,0.25,70,135.0
4185,E2,218.0,0.5,95,135.0
4186,G#2,218.0,0.5,95,135.0
4187,E4,218.0,0.25,95,135.0
4188,B3,218.0,0.25,95,135.0
4189,G3,218.0,0.25,95,135.0
4190,E3,218.0,0.25,95,135.0
4191,B2,218.0,0.25,95,135.0
4192,E2,218.0,0.25,95,135.0
4193,D5,218.25,0.25,70,135.0
4194,E4,218.25,0.25,95,135.0
4195,B3,218.25,0.25,95,135.0
4196,G3,218.25,0.25,95,135.0
4197,E3,218.25,0.25,95,135.0
4198,B2,218.25,0.25,95,135.0
4199,E2,218.25,0.25,95,135.0
4200,B4,218.5,0.25,70,135.0
4201,E2,218.5,0.5,95,135.0
4202,G#2,218.5,0.5,95,135.0
4203,E4,218.5,0.5,95,135.0
4204,B3,218.5,0.5,95,135.0
4205,G3,218.5,0.5,95,135.0
4206,E3,218.5,0.5,95,135.0
4207,B2,218.5,0.5,95,135.0
4208,E2,218.5,0.5,95,135.0
4209,D5,218.75,0.25,70,135.0
4210,C5,219.0,0.25,70,135.0
4211,C2,219.0,0.5,95,135.0
4212,E4,219.0,0.5,95,135.0
4213,C4,219.0,0.5,95,135.0
4214,G3,219.0,0.5,95,135.0
4215,E3,219.0,0.5,95,135.0
4216,C3,219.0,0.5,95,135.0
4217,G#2,219.0,0.5,95,135.0
4218,C2,219.0,0.5,95,135.0
4219,E5,219.25,0.25,70,135.0
4220,C5,219.5,0.25,70,135.0
4221,C2,219.5,0.5,95,135.0
4222,G#2,219.5,0.5,95,135.0
4223,E4,219.5,0.25,95,135.0
4224,C4,219.5,0.25,95,135.0
4225,G3,219.5,0.25,95,135.0
4226,E3,219.5,0.25,95,135.0
4227,C3,219.5,0.25,95,135.0
4228,E5,219.75,0.25,70,135.0
4229,E4,219.75,0.25,95,135.0
4230,C4,219.75,0.25,95,135.0
4231,G3,219.75,0.25,95,135.0
4232,E3,219.75,0.25,95,135.0
4233,C3,219.75,0.25,95,135.0
4234,C5,220.0,0.25,70,135.0
4235,C2,220.0,0.5,95,135.0
4236,E4,220.0,0.5,95,135.0
4237,C4,220.0,0.5,95,135.0
4238,G3,220.0,0.5,95,135.0
4239,E3,220.0,0.5,95,135.0
4240,C3,220.0,0.5,95,135.0
4241,G#2,220.0,0.5,95,135.0
4242,C2,220.0,0.5,95,135.0
4243,E5,220.25,0.25,70,135.0
4244,C5,220.5,0.25,70,135.0
4245,C2,220.5,0.5,95,135.0
4246,E4,220.5,0.5,95,135.0
4247,C4,220.5,0.5,95,135.0
4248,G3,220.5,0.5,95,135.0
4249,E3,220.5,0.5,95,135.0
4250,C3,220.5,0.5,95,135.0
4251,G#2,220.5,0.5,95,135.0
4252,D2,220.5,0.5,95,135.0
4253,E5,220.75,0.25,70,135.0
4254,C5,221.0,0.25,70,135.0
4255,C2,221.0,0.5,95,135.0
4256,G#2,221.0,0.5,95,135.0
4257,E4,221.0,0.25,95,135.0
4258,C4,221.0,0.25,95,135.0
4259,G3,221.0,0.25,95,135.0
4260,E3,221.0,0.25,95,135.0
4261,C3,221.0,0.25,95,135.0
4262,E5,221.25,0.25,70,135.0
4263,E4,221.25,0.25,95,135.0
4264,C4,221.25,0.25,95,135.0
4265,G3,221.25,0.25,95,135.0
4266,E3,221.25,0.25,95,135.0
4267,C3,221.25,0.25,95,135.0
4268,C5,221.5,0.25,70,135.0
4269,C2,221.5,0.5,95,135.0
4270,G#2,221.5,0.5,95,135.0
4271,E4,221.5,0.5,95,135.0
4272,C4,221.5,0.5,95,135.0
4273,G3,221.5,0.5,95,135.0
4274,E3,221.5,0.5,95,135.0
4275,C3,221.5,0.5,95,135.0
4276,E5,221.75,0.25,70,135.0
4277,C#5,222.0,0.25,70,135.0
4278,A1,222.0,0.5,95,135.0
4279,E4,222.0,0.5,95,135.0
4280,C4,222.0,0.5,95,135.0
4281,A3,222.0,0.5,95,135.0
4282,E3,222.0,0.5,95,135.0
4283,A2,222.0,0.5,95,135.0
4284,G#2,222.0,0.5,95,135.0
4285,C2,222.0,0.5,95,135.0
4286,E5,222.25,0.25,70,135.0
4287,C#5,222.5,0.25,70,135.0
4288,A1,222.5,0.5,95,135.0
4289,G#2,222.5,0.5,95,135.0
4290,E4,222.5,0.25,95,135.0
4291,C4,222.5,0.25,95,135.0
4292,A3,222.5,0.25,95,135.0
4293,E3,222.5,0.25,95,135.0
4294,A2,222.5,0.25,95,135.0
4295,E5,222.75,0.25,70,135.0
4296,E4,222.75,0.25,95,135.0
4297,C4,222.75,0.25,95,135.0
4298,A3,222.75,0.25,95,135.0
4299,E3,222.75,0.25,95,135.0
4300,A2,222.75,0.25,95,135.0
4301,C#5,223.0,0.25,70,135.0
4302,A1,223.0,0.5,95,135.0
4303,E4,223.0,0.5,95,135.0
4304,C4,223.0,0.5,95,135.0
4305,A3,223.0,0.5,95,135.0
4306,E3,223.0,0.5,95,135.0
4307,A2,223.0,0.5,95,135.0
4308,G#2,223.0,0.5,95,135.0
4309,C2,223.0,0.5,95,135.0
4310,E5,223.25,0.25,70,135.0
4311,C#5,223.5,0.25,70,135.0
4312,A1,223.5,0.5,95,135.0
4313,E4,223.5,0.5,95,135.0
4314,C4,223.5,0.5,95,135.0
4315,A3,223.5,0.5,95,135.0
4316,E3,223.5,0.5,95,135.0
4317,A2,223.5,0.5,95,135.0
4318,G#2,223.5,0.5,95,135.0
4319,D2,223.5,0.5,95,135.0
4320,E5,223.75,0.25,70,135.0
4321,C#5,224.0,0.25,70,135.0
4322,A1,224.0,0.5,95,135.0
4323,G#2,224.0,0.5,95,135.0
4324,E4,224.0,0.25,95,135.0
4325,C4,224.0,0.25,95,135.0
4326,A3,224.0,0.25,95,135.0
4327,E3,224.0,0.25,95,135.0
4328,A2,224.0,0.25,95,135.0
4329,E5,224.25,0.25,70,135.0
4330,E4,224.25,0.25,95,135.0
4331,C4,224.25,0.25,95,135.0
4332,A3,224.25,0.25,95,135.0
4333,E3,224.25,0.25,95,135.0
4334,A2,224.25,0.25,95,135.0
4335,C#5,224.5,0.25,70,135.0
4336,A1,224.5,0.5,95,135.0
4337,G#2,224.5,0.5,95,135.0
4338,E4,224.5,0.5,95,135.0
4339,C4,224.5,0.5,95,135.0
4340,A3,224.5,0.5,95,135.0
4341,E3,224.5,0.5,95,135.0
4342,A2,224.5,0.5,95,135.0
4343,E5,224.75,0.25,70,135.0
4344,D5,225.0,0.25,70,135.0
4345,D2,225.0,0.5,95,135.0
4346,F#4,225.0,0.5,95,135.0
4347,D4,225.0,0.5,95,135.0
4348,A3,225.0,0.5,95,135.0
4349,D3,225.0,0.5,95,135.0
4350,G#2,225.0,0.5,95,135.0
4351,C2,225.0,0.5,95,135.0
4352,F#5,225.25,0.25,70,135.0
4353,D5,225.5,0.25,70,135.0
4354,D2,225.5,0.5,95,135.0
4355,G#2,225.5,0.5,95,135.0
4356,F#4,225.5,0.25,95,135.0
4357,D4,225.5,0.25,95,135.0
4358,A3,225.5,0.25,95,135.0
4359,D3,225.5,0.25,95,135.0
4360,F#5,225.75,0.25,70,135.0
4361,F#4,225.75,0.25,95,135.0
4362,D4,225.75,0.25,95,135.0
4363,A3,225.75,0.25,95,135.0
4364,D3,225.75,0.25,95,135.0
4365,D5,226.0,0.25,70,135.0
4366,D2,226.0,0.5,95,135.0
4367,F#4,226.0,0.5,95,135.0
4368,D4,226.0,0.5,95,135.0
4369,A3,226.0,0.5,95,135.0
4370,D3,226.0,0.5,95,135.0
4371,G#2,226.0,0.5,95,135.0
4372,C2,226.0,0.5,95,135.0
4373,F#5,226.25,0.25,70,135.0
4374,D5,226.5,0.25,70,135.0
4375,F#2,226.5,0.5,95,135.0
4376,F#4,226.5,0.5,95,135.0
4377,D4,226.5,0.5,95,135.0
4378,A3,226.5,0.5,95,135.0
4379,D3,226.5,0.5,95,135.0
4380,G#2,226.5,0.5,95,135.0
4381,D2,226.5,0.5,95,135.0
4382,F#5,226.75,0.25,70,135.0
4383,D5,227.0,0.25,70,135.0
4384,G2,227.0,0.5,95,135.0
4385,G#2,227.0,0.5,95,135.0
4386,F#4,227.0,0.25,95,135.0
4387,D4,227.0,0.25,95,135.0
4388,A3,227.0,0.25,95,135.0
4389,D3,227.0,0.25,95,135.0
4390,D5,227.25,0.25,95,135.0
4391,F#4,227.25,0.25,95,135.0
4392,D4,227.25,0.25,95,135.0
4393,A3,227.25,0.25,95,135.0
4394,D3,227.25,0.25,95,135.0
4395,D5,227.5,0.5,95,135.0
4396,A2,227.5,0.5,95,135.0
4397,G#2,227.5,0.5,95,135.0
4398,F#4,227.5,0.5,95,135.0
4399,D4,227.5,0.5,95,135.0
4400,A3,227.5,0.5,95,135.0
4401,D3,227.5,0.5,95,135.0
4402,E5,228.0,0.25,95,135.0
4403,E2,228.0,0.5,95,135.0
4404,E4,228.0,0.5,95,135.0
4405,B3,228.0,0.5,95,135.0
4406,G3,228.0,0.5,95,135.0
4407,E3,228.0,0.5,95,135.0
4408,B2,228.0,0.5,95,135.0
4409,E2,228.0,0.5,95,135.0
4410,G#2,228.0,0.5,95,135.0
4411,C2,228.0,0.5,95,135.0
4412,E5,228.25,0.25,95,135.0
4413,E5,228.5,0.5,95,135.0
4414,E2,228.5,0.5,95,135.0
4415,G#2,228.5,0.5,95,135.0
4416,E4,228.5,0.25,95,135.0
4417,B3,228.5,0.25,95,135.0
4418,G3,228.5,0.25,95,135.0
4419,E3,228.5,0.25,95,135.0
4420,B2,228.5,0.25,95,135.0
4421,E2,228.5,0.25,95,135.0
4422,E4,228.75,0.25,95,135.0
4423,B3,228.75,0.25,95,135.0
4424,G3,228.75,0.25,95,135.0
4425,E3,228.75,0.25,95,135.0
4426,B2,228.75,0.25,95,135.0
4427,E2,228.75,0.25,95,135.0
4428,B4,229.0,0.5,95,135.0
4429,E2,229.0,0.5,95,135.0
4430,E4,229.0,0.5,95,135.0
4431,B3,229.0,0.5,95,135.0
4432,G3,229.0,0.5,95,135.0
4433,E3,229.0,0.5,95,135.0
4434,B2,229.0,0.5,95,135.0
4435,E2,229.0,0.5,95,135.0
4436,G#2,229.0,0.5,95,135.0
4437,C2,229.0,0.5,95,135.0
4438,G4,229.5,1.5,95,135.0
4439,E2,229.5,0.5,95,135.0
4440,E4,229.5,0.5,95,135.0
4441,B3,229.5,0.5,95,135.0
4442,G3,229.5,0.5,95,135.0
4443,E3,229.5,0.5,95,135.0
4444,B2,229.5,0.5,95,135.0
4445,E2,229.5,0.5,95,135.0
4446,G#2,229.5,0.5,95,135.0
4447,D2,229.5,0.5,95,135.0
4448,E2,230.0,0.5,95,135.0
4449,G#2,230.0,0.5,95,135.0
4450,E4,230.0,0.25,95,135.0
4451,B3,230.0,0.25,95,135.0
4452,G3,230.0,0.25,95,135.0
4453,E3,230.0,0.25,95,135.0
4454,B2,230.0,0.25,95,135.0
4455,E2,230.0,0.25,95,135.0
4456,E4,230.25,0.25,95,135.0
4457,B3,230.25,0.25,95,135.0
4458,G3,230.25,0.25,95,135.0
4459,E3,230.25,0.25,95,135.0
4460,B2,230.25,0.25,95,135.0
4461,E2,230.25,0.25,95,135.0
4462,E2,230.5,0.5,95,135.0
4463,G#2,230.5,0.5,95,135.0
4464,E4,230.5,0.5,95,135.0
4465,B3,230.5,0.5,95,135.0
4466,G3,230.5,0.5,95,135.0
4467,E3,230.5,0.5,95,135.0
4468,B2,230.5,0.5,95,135.0
4469,E2,230.5,0.5,95,135.0
4470,E5,231.0,0.25,95,135.0
4471,C2,231.0,0.5,95,135.0
4472,E4,231.0,0.5,95,135.0
4473,C4,231.0,0.5,95,135.0
4474,G3,231.0,0.5,95,135.0
4475,E3,231.0,0.5,95,135.0
4476,C3,231.0,0.5,95,135.0
4477,G#2,231.0,0.5,95,135.0
4478,C2,231.0,0.5,95,135.0
4479,E5,231.25,0.25,95,135.0
4480,E5,231.5,0.5,95,135.0
4481,C2,231.5,0.5,95,135.0
4482,G#2,231.5,0.5,95,135.0
4483,E4,231.5,0.25,95,135.0
4484,C4,231.5,0.25,95,135.0
4485,G3,231.5,0.25,95,135.0
4486,E3,231.5,0.25,95,135.0
4487,C3,231.5,0.25,95,135.0
4488,E4,231.75,0.25,95,135.0
4489,C4,231.75,0.25,95,135.0
4490,G3,231.75,0.25,95,135.0
4491,E3,231.75,0.25,95,135.0
4492,C3,231.75,0.25,95,135.0
4493,C5,232.0,0.5,95,135.0
4494,C2,232.0,0.5,95,135.0
4495,E4,232.0,0.5,95,135.0
4496,C4,232.0,0.5,95,135.0
4497,G3,232.0,0.5,95,135.0
4498,E3,232.0,0.5,95,135.0
4499,C3,232.0,0.5,95,135.0
4500,G#2,232.0,0.5,95,135.0
4501,C2,232.0,0.5,95,135.0
4502,G4,232.5,1.5,95,135.0
4503,C2,232.5,0.5,95,135.0
4504,E4,232.5,0.5,95,135.0
4505,C4,232.5,0.5,95,135.0
4506,G3,232.5,0.5,95,135.0
4507,E3,232.5,0.5,95,135.0
4508,C3,232.5,0.5,95,135.0
4509,G#2,232.5,0.5,95,135.0
4510,D2,232.5,0.5,95,135.0
4511,C2,233.0,0.5,95,135.0
4512,G#2,233.0,0.5,95,135.0
4513,E4,233.0,0.25,95,135.0
4514,C4,233.0,0.25,95,135.0
4515,G3,233.0,0.25,95,135.0
4516,E3,233.0,0.25,95,135.0
4517,C3,233.0,0.25,95,135.0
4518,E4,233.25,0.25,95,135.0
4519,C4,233.25,0.25,95,135.0
4520,G3,233.25,0.25,95,135.0
4521,E3,233.25,0.25,95,135.0
4522,C3,233.25,0.25,95,135.0
4523,C2,233.5,0.5,95,135.0
4524,G#2,233.5,0.5,95,135.0
4525,E4,233.5,0.5,95,135.0
4526,C4,233.5,0.5,95,135.0
4527,G3,233.5,0.5,95,135.0
4528,E3,233.5,0.5,95,135.0
4529,C3,233.5,0.5,95,135.0
4530,E5,234.0,0.25,95,135.0
4531,A1,234.0,0.5,95,135.0
4532,E4,234.0,0.5,95,135.0
4533,C4,234.0,0.5,95,135.0
4534,A3,234.0,0.5,95,135.0
4535,E3,234.0,0.5,95,135.0
4536,A2,234.0,0.5,95,135.0
4537,G#2,234.0,0.5,95,135.0
4538,C2,234.0,0.5,95,135.0
4539,E5,234.25,0.25,95,135.0
4540,E5,234.5,0.5,95,135.0
4541,A1,234.5,0.5,95,135.0
4542,G#2,234.5,0.5,95,135.0
4543,E4,234.5,0.25,95,135.0
4544,C4,234.5,0.25,95,135.0
4545,A3,234.5,0.25,95,135.0
4546,E3,234.5,0.25,95,135.0
4547,A2,234.5,0.25,95,135.0
4548,E4,234.75,0.25,95,135.0
4549,C4,234.75,0.25,95,135.0
4550,A3,234.75,0.25,95,135.0
4551,E3,234.75,0.25,95,135.0
4552,A2,234.75,0.25,95,135.0
4553,C#5,235.0,0.5,95,135.0
4554,A1,235.0,0.5,95,135.0
4555,E4,235.0,0.5,95,135.0
4556,C4,235.0,0.5,95,135.0
4557,A3,235.0,0.5,95,135.0
4558,E3,235.0,0.5,95,135.0
4559,A2,235.0,0.5,95,135.0
4560,G#2,235.0,0.5,95,135.0
4561,C2,235.0,0.5,95,135.0
4562,A4,235.5,1.5,95,135.0
4563,A1,235.5,0.5,95,135.0
4564,E4,235.5,0.5,95,135.0
4565,C4,235.5,0.5,95,135.0
4566,A3,235.5,0.5,95,135.0
4567,E3,235.5,0.5,95,135.0
4568,A2,235.5,0.5,95,135.0
4569,G#2,235.5,0.5,95,135.0
4570,D2,235.5,0.5,95,135.0
4571,A1,236.0,0.5,95,135.0
4572,G#2,236.0,0.5,95,135.0
4573,E4,236.0,0.25,95,135.0
4574,C4,236.0,0.25,95,135.0
4575,A3,236.0,0.25,95,135.0
4576,E3,236.0,0.25,95,135.0
4577,A2,236.0,0.25,95,135.0
4578,E4,236.25,0.25,95,135.0
4579,C4,236.25,0.25,95,135.0
4580,A3,236.25,0.25,95,135.0
4581,E3,236.25,0.25,95,135.0
4582,A2,236.25,0.25,95,135.0
4583,A1,236.5,0.5,95,135.0
4584,G#2,236.5,0.5,95,135.0
4585,E4,236.5,0.5,95,135.0
4586,C4,236.5,0.5,95,135.0
4587,A3,236.5,0.5,95,135.0
4588,E3,236.5,0.5,95,135.0
4589,A2,236.5,0.5,95,135.0
4590,D5,237.0,0.25,95,135.0
4591,D2,237.0,0.5,95,135.0
4592,F#4,237.0,0.5,95,135.0
4593,D4,237.0,0.5,95,135.0
4594,A3,237.0,0.5,95,135.0
4595,D3,237.0,0.5,95,135.0
4596,G#2,237.0,0.5,95,135.0
4597,C2,237.0,0.5,95,135.0
4598,D5,237.25,0.25,95,135.0
4599,D5,237.5,0.5,95,135.0
4600,D2,237.5,0.5,95,135.0
4601,G#2,237.5,0.5,95,135.0
4602,F#4,237.5,0.25,95,135.0
4603,D4,237.5,0.25,95,135.0
4604,A3,237.5,0.25,95,135.0
4605,D3,237.5,0.25,95,135.0
4606,F#4,237.75,0.25,95,135.0
4607,D4,237.75,0.25,95,135.0
4608,A3,237.75,0.25,95,135.0
4609,D3,237.75,0.25,95,135.0
4610,B4,238.0,0.5,95,135.0
4611,D2,238.0,0.5,95,135.0
4612,F#4,238.0,0.5,95,135.0
4613,D4,238.0,0.5,95,135.0
4614,A3,238.0,0.5,95,135.0
4615,D3,238.0,0.5,95,135.0
4616,G#2,238.0,0.5,95,135.0
4617,C2,238.0,0.5,95,135.0
4618,F#4,238.5,1.5,95,135.0
4619,F#2,238.5,0.5,95,135.0
4620,F#4,238.5,0.5,95,135.0
4621,D4,238.5,0.5,95,135.0
4622,A3,238.5,0.5,95,135.0
4623,D3,238.5,0.5,95,135.0
4624,G#2,238.5,0.5,95,135.0
4625,D2,238.5,0.5,95,135.0
4626,G2,239.0,0.5,95,135.0
4627,G#2,239.0,0.5,95,135.0
4628,F#4,239.0,0.25,95,135.0
4629,D4,239.0,0.25,95,135.0
4630,A3,239.0,0.25,95,135.0
4631,D3,239.0,0.25,95,135.0
4632,F#4,239.25,0.25,95,135.0
4633,D4,239.25,0.25,95,135.0
4634,A3,239.25,0.25,95,135.0
4635,D3,239.25,0.25,95,135.0
4636,A2,239.5,0.5,95,135.0
4637,G#2,239.5,0.5,95,135.0
4638,F#4,239.5,0.5,95,135.0
4639,D4,239.5,0.5,95,135.0
4640,A3,239.5,0.5,95,135.0
4641,D3,239.5,0.5,95,135.0
4642,B4,240.0,0.25,95,135.0
4643,G1,240.0,0.5,95,135.0
4644,G4,240.0,0.5,95,135.0
4645,D4,240.0,0.5,95,135.0
4646,G3,240.0,0.5,95,135.0
4647,D3,240.0,0.5,95,135.0
4648,B2,240.0,0.5,95,135.0
4649,G2,240.0,0.5,95,135.0
4650,G#2,240.0,0.5,95,135.0
4651,C2,240.0,0.5,95,135.0
4652,C5,240.25,0.25,95,135.0
4653,A4,240.5,0.25,95,135.0
4654,G1,240.5,0.5,95,135.0
4655,G#2,240.5,0.5,95,135.0
4656,G4,240.5,0.25,95,135.0
4657,D4,240.5,0.25,95,135.0
4658,G3,240.5,0.25,95,135.0
4659,D3,240.5,0.25,95,135.0
4660,B2,240.5,0.25,95,135.0
4661,G2,240.5,0.25,95,135.0
4662,B4,240.75,0.25,95,135.0
4663,G4,240.75,0.25,95,135.0
4664,D4,240.75,0.25,95,135.0
4665,G3,240.75,0.25,95,135.0
4666,D3,240.75,0.25,95,135.0
4667,B2,240.75,0.25,95,135.0
4668,G2,240.75,0.25,95,135.0
4669,G4,241.0,0.25,95,135.0
4670,G1,241.0,0.5,95,135.0
4671,G4,241.0,0.5,95,135.0
4672,D4,241.0,0.5,95,135.0
4673,G3,241.0,0.5,95,135.0
4674,D3,241.0,0.5,95,135.0
4675,B2,241.0,0.5,95,135.0
4676,G2,241.0,0.5,95,135.0
4677,G#2,241.0,0.5,95,135.0
4678,C2,241.0,0.5,95,135.0
4679,A4,241.25,0.25,95,135.0
4680,F#4,241.5,0.25,95,135.0
4681,G1,241.5,0.5,95,135.0
4682,G4,241.5,0.5,95,135.0
4683,D4,241.5,0.5,95,135.0
4684,G3,241.5,0.5,95,135.0
4685,D3,241.5,0.5,95,135.0
4686,B2,241.5,0.5,95,135.0
4687,G2,241.5,0.5,95,135.0
4688,G#2,241.5,0.5,95,135.0
4689,D2,241.5,0.5,95,135.0
4690,G4,241.75,0.25,95,135.0
4691,E4,242.0,0.25,95,135.0
4692,G1,242.0,0.5,95,135.0
4693,G#2,242.0,0.5,95,135.0
4694,G4,242.0,0.25,95,135.0
4695,D4,242.0,0.25,95,135.0
4696,G3,242.0,0.25,95,135.0
4697,D3,242.0,0.25,95,135.0
4698,B2,242.0,0.25,95,135.0
4699,G2,242.0,0.25,95,135.0
4700,F#4,242.25,0.25,95,135.0
4701,G4,242.25,0.25,95,135.0
4702,D4,242.25,0.25,95,135.0
4703,G3,242.25,0.25,95,135.0
4704,D3,242.25,0.25,95,135.0
4705,B2,242.25,0.25,95,135.0
4706,G2,242.25,0.25,95,135.0
4707,D4,242.5,0.25,95,135.0
4708,G1,242.5,0.5,95,135.0
4709,G#2,242.5,0.5,95,135.0
4710,G4,242.5,0.5,95,135.0
4711,D4,242.5,0.5,95,135.0
4712,G3,242.5,0.5,95,135.0
4713,D3,242.5,0.5,95,135.0
4714,B2,242.5,0.5,95,135.0
4715,G2,242.5,0.5,95,135.0
4716,E4,242.75,0.25,95,135.0
4717,F#4,243.0,0.125,95,135.0
4718,D2,243.0,0.5,95,135.0
4719,F#4,243.0,0.5,95,135.0
4720,D4,243.0,0.5,95,135.0
4721,A3,243.0,0.5,95,135.0
4722,D3,243.0,0.5,95,135.0
4723,G#2,243.0,0.5,95,135.0
4724,C2,243.0,0.5,95,135.0
4725,F#4,243.125,0.125,95,135.0
4726,F#4,243.25,0.125,95,135.0
4727,F#4,243.375,0.125,95,135.0
4728,F#4,243.5,0.125,95,135.0
4729,D2,243.5,0.5,95,135.0
4730,G#2,243.5,0.5,95,135.0
4731,F#4,243.5,0.25,95,135.0
4732,D4,243.5,0.25,95,135.0
4733,A3,243.5,0.25,95,135.0
4734,D3,243.5,0.25,95,135.0
4735,F#4,243.625,0.125,95,135.0
4736,F#4,243.75,0.125,95,135.0
4737,F#4,243.75,0.25,95,135.0
4738,D4,243.75,0.25,95,135.0
4739,A3,243.75,0.25,95,135.0
4740,D3,243.75,0.25,95,135.0
4741,F#4,243.875,0.125,95,135.0
4742,F#4,244.0,0.125,95,135.0
4743,D2,244.0,0.5,95,135.0
4744,F#4,244.0,0.5,95,135.0
4745,D4,244.0,0.5,95,135.0
4746,A3,244.0,0.5,95,135.0
4747,D3,244.0,0.5,95,135.0
4748,G#2,244.0,0.5,95,135.0
4749,C2,244.0,0.5,95,135.0
4750,F#4,244.125,0.125,95,135.0
4751,F#4,244.25,0.125,95,135.0
4752,F#4,244.375,31/250,95,135.0
4753,A4,244.5,0.125,95,135.0
4754,D2,244.5,0.5,95,135.0
4755,F#4,244.5,0.5,95,135.0
4756,D4,244.5,0.5,95,135.0
4757,A3,244.5,0.5,95,135.0
4758,D3,244.5,0.5,95,135.0
4759,G#2,244.5,0.5,95,135.0
4760,D2,244.5,0.5,95,135.0
4761,A4,244.625,0.125,95,135.0
4762,A4,244.75,0.125,95,135.0
4763,A4,244.875,0.125,95,135.0
4764,A4,245.0,0.125,95,135.0
4765,D2,245.0,0.5,95,135.0
4766,G#2,245.0,0.5,95,135.0
4767,F#4,245.0,0.25,95,135.0
4768,D4,245.0,0.25,95,135.0
4769,A3,245.0,0.25,95,135.0
4770,D3,245.0,0.25,95,135.0
4771,A4,245.125,0.125,95,135.0
4772,A4,245.25,0.125,95,135.0
4773,F#4,245.25,0.25,95,135.0
4774,D4,245.25,0.25,95,135.0
4775,A3,245.25,0.25,95,135.0
4776,D3,245.25,0.25,95,135.0
4777,A4,245.375,0.125,95,135.0
4778,A4,245.5,0.125,95,135.0
4779,D2,245.5,0.5,95,135.0
4780,G#2,245.5,0.5,95,135.0
4781,F#4,245.5,0.5,95,135.0
4782,D4,245.5,0.5,95,135.0
4783,A3,245.5,0.5,95,135.0
4784,D3,245.5,0.5,95,135.0
4785,A4,245.625,0.125,95,135.0
4786,A4,245.75,0.125,95,135.0
4787,A4,245.875,31/250,95,135.0
4788,G4,246.0,0.125,95,135.0
4789,C2,246.0,0.5,95,135.0
4790,E4,246.0,0.5,95,135.0
4791,C4,246.0,0.5,95,135.0
4792,G3,246.0,0.5,95,135.0
4793,E3,246.0,0.5,95,135.0
4794,C3,246.0,0.5,95,135.0
4795,G#2,246.0,0.5,95,135.0
4796,C2,246.0,0.5,95,135.0
4797,G4,246.125,0.125,95,135.0
4798,G4,246.25,0.125,95,135.0
4799,G4,246.375,0.125,95,135.0
4800,G4,246.5,0.125,95,135.0
4801,C2,246.5,0.5,95,135.0
4802,G#2,246.5,0.5,95,135.0
4803,E4,246.5,0.25,95,135.0
4804,C4,246.5,0.25,95,135.0
4805,G3,246.5,0.25,95,135.0
4806,E3,246.5,0.25,95,135.0
4807,C3,246.5,0.25,95,135.0
4808,G4,246.625,0.125,95,135.0
4809,G4,246.75,0.125,95,135.0
4810,E4,246.75,0.25,95,135.0
4811,C4,246.75,0.25,95,135.0
4812,G3,246.75,0.25,95,135.0
4813,E3,246.75,0.25,95,135.0
4814,C3,246.75,0.25,95,135.0
4815,G4,246.875,0.125,95,135.0
4816,G4,247.0,0.125,95,135.0
4817,C2,247.0,0.5,95,135.0
4818,E4,247.0,0.5,95,135.0
4819,C4,247.0,0.5,95,135.0
4820,G3,247.0,0.5,95,135.0
4821,E3,247.0,0.5,95,135.0
4822,C3,247.0,0.5,95,135.0
4823,G#2,247.0,0.5,95,135.0
4824,C2,247.0,0.5,95,135.0
4825,G4,247.125,0.125,95,135.0
4826,G4,247.25,0.125,95,135.0
4827,G4,247.375,31/250,95,135.0
4828,C5,247.5,0.125,95,135.0
4829,C2,247.5,0.5,95,135.0
4830,E4,247.5,0.5,95,135.0
4831,C4,247.5,0.5,95,135.0
4832,G3,247.5,0.5,95,135.0
4833,E3,247.5,0.5,95,135.0
4834,C3,247.5,0.5,95,135.0
4835,G#2,247.5,0.5,95,135.0
4836,D2,247.5,0.5,95,135.0
4837,C5,247.625,0.125,95,135.0
4838,C5,247.75,0.125,95,135.0
4839,C5,247.875,0.125,95,135.0
4840,C5,248.0,0.125,95,135.0
4841,C2,248.0,0.5,95,135.0
4842,G#2,248.0,0.5,95,135.0
4843,E4,248.0,0.25,95,135.0
4844,C4,248.0,0.25,95,135.0
4845,G3,248.0,0.25,95,135.0
4846,E3,248.0,0.25,95,135.0
4847,C3,248.0,0.25,95,135.0
4848,C5,248.125,0.125,95,135.0
4849,C5,248.25,0.125,95,135.0
4850,E4,248.25,0.25,95,135.0
4851,C4,248.25,0.25,95,135.0
4852,G3,248.25,0.25,95,135.0
4853,E3,248.25,0.25,95,135.0
4854,C3,248.25,0.25,95,135.0
4855,C5,248.375,0.125,95,135.0
4856,C5,248.5,0.125,95,135.0
4857,C2,248.5,0.5,95,135.0
4858,G#2,248.5,0.5,95,135.0
4859,E4,248.5,0.5,95,135.0
4860,C4,248.5,0.5,95,135.0
4861,G3,248.5,0.5,95,135.0
4862,E3,248.5,0.5,95,135.0
4863,C3,248.5,0.5,95,135.0
4864,C5,248.625,0.125,95,135.0
4865,C5,248.75,0.125,95,135.0
4866,C5,248.875,31/250,95,135.0
4867,A4,249.0,0.125,95,135.0
4868,D2,249.0,0.5,95,135.0
4869,F#4,249.0,0.5,95,135.0
4870,D4,249.0,0.5,95,135.0
4871,A3,249.0,0.5,95,135.0
4872,D3,249.0,0.5,95,135.0
4873,G#2,249.0,0.5,95,135.0
4874,C2,249.0,0.5,95,135.0
4875,A4,249.125,0.125,95,135.0
4876,A4,249.25,0.125,95,135.0
4877,A4,249.375,0.125,95,135.0
4878,A4,249.5,0.125,95,135.0
4879,D2,249.5,0.5,95,135.0
4880,G#2,249.5,0.5,95,135.0
4881,F#4,249.5,0.25,95,135.0
4882,D4,249.5,0.25,95,135.0
4883,A3,249.5,0.25,95,135.0
4884,D3,249.5,0.25,95,135.0
4885,A4,249.625,0.125,95,135.0
4886,A4,249.75,0.125,95,135.0
4887,F#4,249.75,0.25,95,135.0
4888,D4,249.75,0.25,95,135.0
4889,A3,249.75,0.25,95,135.0
4890,D3,249.75,0.25,95,135.0
4891,A4,249.875,0.125,95,135.0
4892,A4,250.0,0.125,95,135.0
4893,D2,250.0,0.5,95,135.0
4894,F#4,250.0,0.5,95,135.0
4895,D4,250.0,0.5,95,135.0
4896,A3,250.0,0.5,95,135.0
4897,D3,250.0,0.5,95,135.0
4898,G#2,250.0,0.5,95,135.0
4899,C2,250.0,0.5,95,135.0
4900,A4,250.125,0.125,95,135.0
4901,A4,250.25,0.125,95,135.0
4902,A4,250.375,31/250,95,135.0
4903,D5,250.5,0.125,95,135.0
4904,D2,250.5,0.5,95,135.0
4905,F#4,250.5,0.5,95,135.0
4906,D4,250.5,0.5,95,135.0
4907,A3,250.5,0.5,95,135.0
4908,D3,250.5,0.5,95,135.0
4909,G#2,250.5,0.5,95,135.0
4910,D2,250.5,0.5,95,135.0
4911,D5,250.625,0.125,95,135.0
4912,D5,250.75,0.125,95,135.0
4913,D5,250.875,0.125,95,135.0
4914,D5,251.0,0.125,95,135.0
4915,D2,251.0,0.5,95,135.0
4916,G#2,251.0,0.5,95,135.0
4917,F#4,251.0,0.25,95,135.0
4918,D4,251.0,0.25,95,135.0
4919,A3,251.0,0.25,95,135.0
4920,D3,251.0,0.25,95,135.0
4921,D5,251.125,0.125,95,135.0
4922,D5,251.25,0.125,95,135.0
4923,F#4,251.25,0.25,95,135.0
4924,D4,251.25,0.25,95,135.0
4925,A3,251.25,0.25,95,135.0
4926,D3,251.25,0.25,95,135.0
4927,D5,251.375,0.125,95,135.0
4928,D5,251.5,0.125,95,135.0
4929,D2,251.5,0.5,95,135.0
4930,G#2,251.5,0.5,95,135.0
4931,F#4,251.5,0.5,95,135.0
4932,D4,251.5,0.5,95,135.0
4933,A3,251.5,0.5,95,135.0
4934,D3,251.5,0.5,95,135.0
4935,D5,251.625,0.125,95,135.0
4936,D5,251.75,0.125,95,135.0
4937,D5,251.875,31/250,95,135.0
4938,G1,252.0,0.5,95,135.0
4939,G4,252.0,0.5,95,135.0
4940,D4,252.0,0.5,95,135.0
4941,G3,252.0,0.5,95,135.0
4942,D3,252.0,0.5,95,135.0
4943,B2,252.0,0.5,95,135.0
4944,G2,252.0,0.5,95,135.0
4945,B4,252.0,3.0,95,135.0
4946,G4,252.0,3.0,95,135.0
4947,G#2,252.0,0.5,95,135.0
4948,C2,252.0,0.5,95,135.0
4949,G1,252.5,0.5,95,135.0
4950,G#2,252.5,0.5,95,135.0
4951,G4,252.5,0.25,95,135.0
4952,D4,252.5,0.25,95,135.0
4953,G3,252.5,0.25,95,135.0
4954,D3,252.5,0.25,95,135.0
4955,B2,252.5,0.25,95,135.0
4956,G2,252.5,0.25,95,135.0
4957,G4,252.75,0.25,95,135.0
4958,D4,252.75,0.25,95,135.0
4959,G3,252.75,0.25,95,135.0
4960,D3,252.75,0.25,95,135.0
4961,B2,252.75,0.25,95,135.0
4962,G2,252.75,0.25,95,135.0
4963,G1,253.0,0.5,95,135.0
4964,G4,253.0,0.5,95,135.0
4965,D4,253.0,0.5,95,135.0
4966,G3,253.0,0.5,95,135.0
4967,D3,253.0,0.5,95,135.0
4968,B2,253.0,0.5,95,135.0
4969,G2,253.0,0.5,95,135.0
4970,G#2,253.0,0.5,95,135.0
4971,C2,253.0,0.5,95,135.0
4972,G1,253.5,0.5,95,135.0
4973,G4,253.5,0.5,95,135.0
4974,D4,253.5,0.5,95,135.0
4975,G3,253.5,0.5,95,135.0
4976,D3,253.5,0.5,95,135.0
4977,B2,253.5,0.5,95,135.0
4978,G2,253.5,0.5,95,135.0
4979,G#2,253.5,0.5,95,135.0
4980,D2,253.5,0.5,95,135.0
4981,G1,254.0,0.5,95,135.0
4982,G#2,254.0,0.5,95,135.0
4983,G4,254.0,0.25,95,135.0
4984,D4,254.0,0.25,95,135.0
4985,G3,254.0,0.25,95,135.0
4986,D3,254.0,0.25,95,135.0
4987,B2,254.0,0.25,95,135.0
4988,G2,254.0,0.25,95,135.0
4989,G4,254.25,0.25,95,135.0
4990,D4,254.25,0.25,95,135.0
4991,G3,254.25,0.25,95,135.0
4992,D3,254.25,0.25,95,135.0
4993,B2,254.25,0.25,95,135.0
4994,G2,254.25,0.25,95,135.0
4995,G1,254.5,0.5,95,135.0
4996,G#2,254.5,0.5,95,135.0
4997,G4,254.5,0.5,95,135.0
4998,D4,254.5,0.5,95,135.0
4999,G3,254.5,0.5,95,135.0
5000,D3,254.5,0.5,95,135.0
5001,B2,254.5,0.5,95,135.0
5002,G2,254.5,0.5,95,135.0
5003,D2,255.0,0.5,95,135.0
5004,F#4,255.0,0.5,95,135.0
5005,D4,255.0,0.5,95,135.0
5006,A3,255.0,0.5,95,135.0
5007,D3,255.0,0.5,95,135.0
5008,D5,255.0,3.0,95,135.0
5009,A4,255.0,3.0,95,135.0
5010,G#2,255.0,0.5,95,135.0
5011,C2,255.0,0.5,95,135.0
5012,D2,255.5,0.5,95,135.0
5013,G#2,255.5,0.5,95,135.0
5014,F#4,255.5,0.25,95,135.0
5015,D4,255.5,0.25,95,135.0
5016,A3,255.5,0.25,95,135.0
5017,D3,255.5,0.25,95,135.0
5018,F#4,255.75,0.25,95,135.0
5019,D4,255.75,0.25,95,135.0
5020,A3,255.75,0.25,95,135.0
5021,D3,255.75,0.25,95,135.0
5022,D2,256.0,0.5,95,135.0
5023,F#4,256.0,0.5,95,135.0
5024,D4,256.0,0.5,95,135.0
5025,A3,256.0,0.5,95,135.0
5026,D3,256.0,0.5,95,135.0
5027,G#2,256.0,0.5,95,135.0
5028,C2,256.0,0.5,95,135.0
5029,D2,256.5,0.5,95,135.0
5030,F#4,256.5,0.5,95,135.0
5031,D4,256.5,0.5,95,135.0
5032,A3,256.5,0.5,95,135.0
5033,D3,256.5,0.5,95,135.0
5034,G#2,256.5,0.5,95,135.0
5035,D2,256.5,0.5,95,135.0
5036,D2,257.0,0.5,95,135.0
5037,G#2,257.0,0.5,95,135.0
5038,F#4,257.0,0.25,95,135.0
5039,D4,257.0,0.25,95,135.0
5040,A3,257.0,0.25,95,135.0
5041,D3,257.0,0.25,95,135.0
5042,F#4,257.25,0.25,95,135.0
5043,D4,257.25,0.25,95,135.0
5044,A3,257.25,0.25,95,135.0
5045,D3,257.25,0.25,95,135.0
5046,D2,257.5,0.5,95,135.0
5047,G#2,257.5,0.5,95,135.0
5048,F#4,257.5,0.5,95,135.0
5049,D4,257.5,0.5,95,135.0
5050,A3,257.5,0.5,95,135.0
5051,D3,257.5,0.5,95,135.0
5052,C2,258.0,0.5,95,135.0
5053,E4,258.0,0.5,95,135.0
5054,C4,258.0,0.5,95,135.0
5055,G3,258.0,0.5,95,135.0
5056,E3,258.0,0.5,95,135.0
5057,C3,258.0,0.5,95,135.0
5058,C5,258.0,3.0,95,135.0
5059,G4,258.0,3.0,95,135.0
5060,G#2,258.0,0.5,95,135.0
5061,C2,258.0,0.5,95,135.0
5062,C2,258.5,0.5,95,135.0
5063,G#2,258.5,0.5,95,135.0
5064,E4,258.5,0.25,95,135.0
5065,C4,258.5,0.25,95,135.0
5066,G3,258.5,0.25,95,135.0
5067,E3,258.5,0.25,95,135.0
5068,C3,258.5,0.25,95,135.0
5069,E4,258.75,0.25,95,135.0
5070,C4,258.75,0.25,95,135.0
5071,G3,258.75,0.25,95,135.0
5072,E3,258.75,0.25,95,135.0
5073,C3,258.75,0.25,95,135.0
5074,C2,259.0,0.5,95,135.0
5075,E4,259.0,0.5,95,135.0
5076,C4,259.0,0.5,95,135.0
5077,G3,259.0,0.5,95,135.0
5078,E3,259.0,0.5,95,135.0
5079,C3,259.0,0.5,95,135.0
5080,G#2,259.0,0.5,95,135.0
5081,C2,259.0,0.5,95,135.0
5082,C2,259.5,0.5,95,135.0
5083,E4,259.5,0.5,95,135.0
5084,C4,259.5,0.5,95,135.0
5085,G3,259.5,0.5,95,135.0
5086,E3,259.5,0.5,95,135.0
5087,C3,259.5,0.5,95,135.0
5088,G#2,259.5,0.5,95,135.0
5089,D2,259.5,0.5,95,135.0
5090,C2,260.0,0.5,95,135.0
5091,G#2,260.0,0.5,95,135.0
5092,E4,260.0,0.25,95,135.0
5093,C4,260.0,0.25,95,135.0
5094,G3,260.0,0.25,95,135.0
5095,E3,260.0,0.25,95,135.0
5096,C3,260.0,0.25,95,135.0
5097,E4,260.25,0.25,95,135.0
5098,C4,260.25,0.25,95,135.0
5099,G3,260.25,0.25,95,135.0
5100,E3,260.25,0.25,95,135.0
5101,C3,260.25,0.25,95,135.0
5102,C2,260.5,0.5,95,135.0
5103,G#2,260.5,0.5,95,135.0
5104,E4,260.5,0.5,95,135.0
5105,C4,260.5,0.5,95,135.0
5106,G3,260.5,0.5,95,135.0
5107,E3,260.5,0.5,95,135.0
5108,C3,260.5,0.5,95,135.0
5109,D2,261.0,0.5,95,135.0
5110,F#4,261.0,0.5,95,135.0
5111,D4,261.0,0.5,95,135.0
5112,A3,261.0,0.5,95,135.0
5113,D3,261.0,0.5,95,135.0
5114,D5,261.0,3.0,95,135.0
5115,A4,261.0,3.0,95,135.0
5116,G#2,261.0,0.5,95,135.0
5117,C2,261.0,0.5,95,135.0
5118,D2,261.5,0.5,95,135.0
5119,G#2,261.5,0.5,95,135.0
5120,F#4,261.5,0.25,95,135.0
5121,D4,261.5,0.25,95,135.0
5122,A3,261.5,0.25,95,135.0
5123,D3,261.5,0.25,95,135.0
5124,F#4,261.75,0.25,95,135.0
5125,D4,261.75,0.25,95,135.0
5126,A3,261.75,0.25,95,135.0
5127,D3,261.75,0.25,95,135.0
5128,D2,262.0,0.5,95,135.0
5129,F#4,262.0,0.5,95,135.0
5130,D4,262.0,0.5,95,135.0
5131,A3,262.0,0.5,95,135.0
5132,D3,262.0,0.5,95,135.0
5133,G#2,262.0,0.5,95,135.0
5134,C2,262.0,0.5,95,135.0
5135,D2,262.5,0.5,95,135.0
5136,F#4,262.5,0.5,95,135.0
5137,D4,262.5,0.5,95,135.0
5138,A3,262.5,0.5,95,135.0
5139,D3,262.5,0.5,95,135.0
5140,G#2,262.5,0.5,95,135.0
5141,D2,262.5,0.5,95,135.0
5142,D2,263.0,0.5,95,135.0
5143,G#2,263.0,0.5,95,135.0
5144,F#4,263.0,0.25,95,135.0
5145,D4,263.0,0.25,95,135.0
5146,A3,263.0,0.25,95,135.0
5147,D3,263.0,0.25,95,135.0
5148,F#4,263.25,0.25,95,135.0
5149,D4,263.25,0.25,95,135.0
5150,A3,263.25,0.25,95,135.0
5151,D3,263.25,0.25,95,135.0
5152,D2,263.5,0.5,95,135.0
5153,G#2,263.5,0.5,95,135.0
5154,F#4,263.5,0.5,95,135.0
5155,D4,263.5,0.5,95,135.0
5156,A3,263.5,0.5,95,135.0
5157,D3,263.5,0.5,95,135.0
5158,G1,264.0,0.5,95,135.0
5159,G4,264.0,0.5,95,135.0
5160,D4,264.0,0.5,95,135.0
5161,G3,264.0,0.5,95,135.0
5162,D3,264.0,0.5,95,135.0
5163,B2,264.0,0.5,95,135.0
5164,G2,264.0,0.5,95,135.0
5165,B4,264.0,3.0,95,135.0
5166,G4,264.0,3.0,95,135.0
5167,G#2,264.0,0.5,95,135.0
5168,C2,264.0,0.5,95,135.0
5169,G1,264.5,0.5,95,135.0
5170,G#2,264.5,0.5,95,135.0
5171,G4,264.5,0.25,95,135.0
5172,D4,264.5,0.25,95,135.0
5173,G3,264.5,0.25,95,135.0
5174,D3,264.5,0.25,95,135.0
5175,B2,264.5,0.25,95,135.0
5176,G2,264.5,0.25,95,135.0
5177,G4,264.75,0.25,95,135.0
5178,D4,264.75,0.25,95,135.0
5179,G3,264.75,0.25,95,135.0
5180,D3,264.75,0.25,95,135.0
5181,B2,264.75,0.25,95,135.0
5182,G2,264.75,0.25,95,135.0
5183,G1,265.0,0.5,95,135.0
5184,G4,265.0,0.5,95,135.0
5185,D4,265.0,0.5,95,135.0
5186,G3,265.0,0.5,95,135.0
5187,D3,265.0,0.5,95,135.0
5188,B2,265.0,0.5,95,135.0
5189,G2,265.0,0.5,95,135.0
5190,G#2,265.0,0.5,95,135.0
5191,C2,265.0,0.5,95,135.0
5192,G1,265.5,0.5,95,135.0
5193,G4,265.5,0.5,95,135.0
5194,D4,265.5,0.5,95,135.0
5195,G3,265.5,0.5,95,135.0
5196,D3,265.5,0.5,95,135.0
5197,B2,265.5,0.5,95,135.0
5198,G2,265.5,0.5,95,135.0
5199,G#2,265.5,0.5,95,135.0
5200,D2,265.5,0.5,95,135.0
5201,G1,266.0,0.5,95,135.0
5202,G#2,266.0,0.5,95,135.0
5203,G4,266.0,0.25,95,135.0
5204,D4,266.0,0.25,95,135.0
5205,G3,266.0,0.25,95,135.0
5206,D3,266.0,0.25,95,135.0
5207,B2,266.0,0.25,95,135.0
5208,G2,266.0,0.25,95,135.0
5209,G4,266.25,0.25,95,135.0
5210,D4,266.25,0.25,95,135.0
5211,G3,266.25,0.25,95,135.0
5212,D3,266.25,0.25,95,135.0
5213,B2,266.25,0.25,95,135.0
5214,G2,266.25,0.25,95,135.0
5215,G1,266.5,0.5,95,135.0
5216,G#2,266.5,0.5,95,135.0
5217,G4,266.5,0.5,95,135.0
5218,D4,266.5,0.5,95,135.0
5219,G3,266.5,0.5,95,135.0
5220,D3,266.5,0.5,95,135.0
5221,B2,266.5,0.5,95,135.0
5222,G2,266.5,0.5,95,135.0
5223,D2,267.0,0.5,95,135.0
5224,F#4,267.0,0.5,95,135.0
5225,D4,267.0,0.5,95,135.0
5226,A3,267.0,0.5,95,135.0
5227,D3,267.0,0.5,95,135.0
5228,D5,267.0,3.0,95,135.0
5229,A4,267.0,3.0,95,135.0
5230,G#2,267.0,0.5,95,135.0
5231,C2,267.0,0.5,95,135.0
5232,D2,267.5,0.5,95,135.0
5233,G#2,267.5,0.5,95,135.0
5234,F#4,267.5,0.25,95,135.0
5235,D4,267.5,0.25,95,135.0
5236,A3,267.5,0.25,95,135.0
5237,D3,267.5,0.25,95,135.0
5238,F#4,267.75,0.25,95,135.0
5239,D4,267.75,0.25,95,135.0
5240,A3,267.75,0.25,95,135.0
5241,D3,267.75,0.25,95,135.0
5242,D2,268.0,0.5,95,135.0
5243,F#4,268.0,0.5,95,135.0
5244,D4,268.0,0.5,95,135.0
5245,A3,268.0,0.5,95,135.0
5246,D3,268.0,0.5,95,135.0
5247,G#2,268.0,0.5,95,135.0
5248,C2,268.0,0.5,95,135.0
5249,D2,268.5,0.5,95,135.0
5250,F#4,268.5,0.5,95,135.0
5251,D4,268.5,0.5,95,135.0
5252,A3,268.5,0.5,95,135.0
5253,D3,268.5,0.5,95,135.0
5254,G#2,268.5,0.5,95,135.0
5255,D2,268.5,0.5,95,135.0
5256,D2,269.0,0.5,95,135.0
5257,G#2,269.0,0.5,95,135.0
5258,F#4,269.0,0.25,95,135.0
5259,D4,269.0,0.25,95,135.0
5260,A3,269.0,0.25,95,135.0
5261,D3,269.0,0.25,95,135.0
5262,F#4,269.25,0.25,95,135.0
5263,D4,269.25,0.25,95,135.0
5264,A3,269.25,0.25,95,135.0
5265,D3,269.25,0.25,95,135.0
5266,D2,269.5,0.5,95,135.0
5267,G#2,269.5,0.5,95,135.0
5268,F#4,269.5,0.5,95,135.0
5269,D4,269.5,0.5,95,135.0
5270,A3,269.5,0.5,95,135.0
5271,D3,269.5,0.5,95,135.0
5272,C2,270.0,0.5,95,135.0
5273,E4,270.0,0.5,95,135.0
5274,C4,270.0,0.5,95,135.0
5275,G3,270.0,0.5,95,135.0
5276,E3,270.0,0.5,95,135.0
5277,C3,270.0,0.5,95,135.0
5278,C5,270.0,3.0,95,135.0
5279,G4,270.0,3.0,95,135.0
5280,G#2,270.0,0.5,95,135.0
5281,C2,270.0,0.5,95,135.0
5282,C2,270.5,0.5,95,135.0
5283,G#2,270.5,0.5,95,135.0
5284,E4,270.5,0.25,95,135.0
5285,C4,270.5,0.25,95,135.0
5286,G3,270.5,0.25,95,135.0
5287,E3,270.5,0.25,95,135.0
5288,C3,270.5,0.25,95,135.0
5289,E4,270.75,0.25,95,135.0
5290,C4,270.75,0.25,95,135.0
5291,G3,270.75,0.25,95,135.0
5292,E3,270.75,0.25,95,135.0
5293,C3,270.75,0.25,95,135.0
5294,C2,271.0,0.5,95,135.0
5295,E4,271.0,0.5,95,135.0
5296,C4,271.0,0.5,95,135.0
5297,G3,271.0,0.5,95,135.0
5298,E3,271.0,0.5,95,135.0
5299,C3,271.0,0.5,95,135.0
5300,G#2,271.0,0.5,95,135.0
5301,C2,271.0,0.5,95,135.0
5302,C2,271.5,0.5,95,135.0
5303,E4,271.5,0.5,95,135.0
5304,C4,271.5,0.5,95,135.0
5305,G3,271.5,0.5,95,135.0
5306,E3,271.5,0.5,95,135.0
5307,C3,271.5,0.5,95,135.0
5308,G#2,271.5,0.5,95,135.0
5309,D2,271.5,0.5,95,135.0
5310,C2,272.0,0.5,95,135.0
5311,G#2,272.0,0.5,95,135.0
5312,E4,272.0,0.25,95,135.0
5313,C4,272.0,0.25,95,135.0
5314,G3,272.0,0.25,95,135.0
5315,E3,272.0,0.25,95,135.0
5316,C3,272.0,0.25,95,135.0
5317,E4,272.25,0.25,95,135.0
5318,C4,272.25,0.25,95,135.0
5319,G3,272.25,0.25,95,135.0
5320,E3,272.25,0.25,95,135.0
5321,C3,272.25,0.25,95,135.0
5322,C2,272.5,0.5,95,135.0
5323,G#2,272.5,0.5,95,135.0
5324,E4,272.5,0.5,95,135.0
5325,C4,272.5,0.5,95,135.0
5326,G3,272.5,0.5,95,135.0
5327,E3,272.5,0.5,95,135.0
5328,C3,272.5,0.5,95,135.0
5329,D2,273.0,0.5,95,135.0
5330,F#4,273.0,0.5,95,135.0
5331,D4,273.0,0.5,95,135.0
5332,A3,273.0,0.5,95,135.0
5333,D3,273.0,0.5,95,135.0
5334,D5,273.0,3.0,95,135.0
5335,A4,273.0,3.0,95,135.0
5336,G#2,273.0,0.5,95,135.0
5337,C2,273.0,0.5,95,135.0
5338,D2,273.5,0.5,95,135.0
5339,G#2,273.5,0.5,95,135.0
5340,F#4,273.5,0.25,95,135.0
5341,D4,273.5,0.25,95,135.0
5342,A3,273.5,0.25,95,135.0
5343,D3,273.5,0.25,95,135.0
5344,F#4,273.75,0.25,95,135.0
5345,D4,273.75,0.25,95,135.0
5346,A3,273.75,0.25,95,135.0
5347,D3,273.75,0.25,95,135.0
5348,D2,274.0,0.5,95,135.0
5349,F#4,274.0,0.5,95,135.0
5350,D4,274.0,0.5,95,135.0
5351,A3,274.0,0.5,95,135.0
5352,D3,274.0,0.5,95,135.0
5353,G#2,274.0,0.5,95,135.0
5354,C2,274.0,0.5,95,135.0
5355,D2,274.5,0.5,95,135.0
5356,F#4,274.5,0.5,95,135.0
5357,D4,274.5,0.5,95,135.0
5358,A3,274.5,0.5,95,135.0
5359,D3,274.5,0.5,95,135.0
5360,G#2,274.5,0.5,95,135.0
5361,D2,274.5,0.5,95,135.0
5362,D2,275.0,0.5,95,135.0
5363,G#2,275.0,0.5,95,135.0
5364,F#4,275.0,0.25,95,135.0
5365,D4,275.0,0.25,95,135.0
5366,A3,275.0,0.25,95,135.0
5367,D3,275.0,0.25,95,135.0
5368,F#4,275.25,0.25,95,135.0
5369,D4,275.25,0.25,95,135.0
5370,A3,275.25,0.25,95,135.0
5371,D3,275.25,0.25,95,135.0
5372,D2,275.5,0.5,95,135.0
5373,G#2,275.5,0.5,95,135.0
5374,F#4,275.5,0.5,95,135.0
5375,D4,275.5,0.5,95,135.0
5376,A3,275.5,0.5,95,135.0
5377,D3,275.5,0.5,95,135.0
5378,G1,276.0,0.5,95,135.0
5379,G4,276.0,0.5,95,135.0
5380,D4,276.0,0.5,95,135.0
5381,G3,276.0,0.5,95,135.0
5382,D3,276.0,0.5,95,135.0
5383,B2,276.0,0.5,95,135.0
5384,G2,276.0,0.5,95,135.0
5385,B4,276.0,3.0,95,135.0
5386,G4,276.0,3.0,95,135.0
5387,G#2,276.0,0.5,95,135.0
5388,C2,276.0,0.5,95,135.0
5389,G1,276.5,0.5,95,135.0
5390,G#2,276.5,0.5,95,135.0
5391,G4,276.5,0.25,95,135.0
5392,D4,276.5,0.25,95,135.0
5393,G3,276.5,0.25,95,135.0
5394,D3,276.5,0.25,95,135.0
5395,B2,276.5,0.25,95,135.0
5396,G2,276.5,0.25,95,135.0
5397,G4,276.75,0.25,95,135.0
5398,D4,276.75,0.25,95,135.0
5399,G3,276.75,0.25,95,135.0
5400,D3,276.75,0.25,95,135.0
5401,B2,276.75,0.25,95,135.0
5402,G2,276.75,0.25,95,135.0
5403,G1,277.0,0.5,95,135.0
5404,G4,277.0,0.5,95,135.0
5405,D4,277.0,0.5,95,135.0
5406,G3,277.0,0.5,95,135.0
5407,D3,277.0,0.5,95,135.0
5408,B2,277.0,0.5,95,135.0
5409,G2,277.0,0.5,95,135.0
5410,G#2,277.0,0.5,95,135.0
5411,C2,277.0,0.5,95,135.0
5412,G1,277.5,0.5,95,135.0
5413,G4,277.5,0.5,95,135.0
5414,D4,277.5,0.5,95,135.0
5415,G3,277.5,0.5,95,135.0
5416,D3,277.5,0.5,95,135.0
5417,B2,277.5,0.5,95,135.0
5418,G2,277.5,0.5,95,135.0
5419,G#2,277.5,0.5,95,135.0
5420,D2,277.5,0.5,95,135.0
5421,G1,278.0,0.5,95,135.0
5422,G#2,278.0,0.5,95,135.0
5423,G4,278.0,0.25,95,135.0
5424,D4,278.0,0.25,95,135.0
5425,G3,278.0,0.25,95,135.0
5426,D3,278.0,0.25,95,135.0
5427,B2,278.0,0.25,95,135.0
5428,G2,278.0,0.25,95,135.0
5429,G4,278.25,0.25,95,135.0
5430,D4,278.25,0.25,95,135.0
5431,G3,278.25,0.25,95,135.0
5432,D3,278.25,0.25,95,135.0
5433,B2,278.25,0.25,95,135.0
5434,G2,278.25,0.25,95,135.0
5435,G1,278.5,0.5,95,135.0
5436,G#2,278.5,0.5,95,135.0
5437,G4,278.5,0.5,95,135.0
5438,D4,278.5,0.5,95,135.0
5439,G3,278.5,0.5,95,135.0
5440,D3,278.5,0.5,95,135.0
5441,B2,278.5,0.5,95,135.0
5442,G2,278.5,0.5,95,135.0
5443,D2,279.0,0.5,95,135.0
5444,F#4,279.0,0.5,95,135.0
5445,D4,279.0,0.5,95,135.0
5446,A3,279.0,0.5,95,135.0
5447,D3,279.0,0.5,95,135.0
5448,D5,279.0,3.0,95,135.0
5449,A4,279.0,3.0,95,135.0
5450,G#2,279.0,0.5,95,135.0
5451,C2,279.0,0.5,95,135.0
5452,D2,279.5,0.5,95,135.0
5453,G#2,279.5,0.5,95,135.0
5454,F#4,279.5,0.25,95,135.0
5455,D4,279.5,0.25,95,135.0
5456,A3,279.5,0.25,95,135.0
5457,D3,279.5,0.25,95,135.0
5458,F#4,279.75,0.25,95,135.0
5459,D4,279.75,0.25,95,135.0
5460,A3,279.75,0.25,95,135.0
5461,D3,279.75,0.25,95,135.0
5462,D2,280.0,0.5,95,135.0
5463,F#4,280.0,0.5,95,135.0
5464,D4,280.0,0.5,95,135.0
5465,A3,280.0,0.5,95,135.0
5466,D3,280.0,0.5,95,135.0
5467,G#2,280.0,0.5,95,135.0
5468,C2,280.0,0.5,95,135.0
5469,D2,280.5,0.5,95,135.0
5470,F#4,280.5,0.5,95,135.0
5471,D4,280.5,0.5,95,135.0
5472,A3,280.5,0.5,95,135.0
5473,D3,280.5,0.5,95,135.0
5474,G#2,280.5,0.5,95,135.0
5475,D2,280.5,0.5,95,135.0
5476,D2,281.0,0.5,95,135.0
5477,G#2,281.0,0.5,95,135.0
5478,F#4,281.0,0.25,95,135.0
5479,D4,281.0,0.25,95,135.0
5480,A3,281.0,0.25,95,135.0
5481,D3,281.0,0.25,95,135.0
5482,F#4,281.25,0.25,95,135.0
5483,D4,281.25,0.25,95,135.0
5484,A3,281.25,0.25,95,135.0
5485,D3,281.25,0.25,95,135.0
5486,D2,281.5,0.5,95,135.0
5487,G#2,281.5,0.5,95,135.0
5488,F#4,281.5,0.5,95,135.0
5489,D4,281.5,0.5,95,135.0
5490,A3,281.5,0.5,95,135.0
5491,D3,281.5,0.5,95,135.0
5492,C2,282.0,0.5,95,135.0
5493,E4,282.0,0.5,95,135.0
5494,C4,282.0,0.5,95,135.0
5495,G3,282.0,0.5,95,135.0
5496,E3,282.0,0.5,95,135.0
5497,C3,282.0,0.5,95,135.0
5498,C5,282.0,1.0,95,135.0
5499,G4,282.0,1.0,95,135.0
5500,G#2,282.0,0.5,95,135.0
5501,C2,282.0,0.5,95,135.0
5502,C2,282.5,0.5,95,135.0
5503,G#2,282.5,0.5,95,135.0
5504,E4,282.5,0.25,95,135.0
5505,C4,282.5,0.25,95,135.0
5506,G3,282.5,0.25,95,135.0
5507,E3,282.5,0.25,95,135.0
5508,C3,282.5,0.25,95,135.0
5509,E4,282.75,0.25,95,135.0
5510,C4,282.75,0.25,95,135.0
5511,G3,282.75,0.25,95,135.0
5512,E3,282.75,0.25,95,135.0
5513,C3,282.75,0.25,95,135.0
5514,C2,283.0,0.5,95,135.0
5515,E4,283.0,0.5,95,135.0
5516,C4,283.0,0.5,95,135.0
5517,G3,283.0,0.5,95,135.0
5518,E3,283.0,0.5,95,135.0
5519,C3,283.0,0.5,95,135.0
5520,G#2,283.0,0.5,95,135.0
5521,C2,283.0,0.5,95,135.0
5522,B4,283.5,0.25,95,135.0
5523,C2,283.5,0.5,95,135.0
5524,E4,283.5,0.5,95,135.0
5525,C4,283.5,0.5,95,135.0
5526,G3,283.5,0.5,95,135.0
5527,E3,283.5,0.5,95,135.0
5528,C3,283.5,0.5,95,135.0
5529,G#2,283.5,0.5,95,135.0
5530,D2,283.5,0.5,95,135.0
5531,C5,283.75,0.25,95,135.0
5532,B4,284.0,0.25,95,135.0
5533,C2,284.0,0.5,95,135.0
5534,G#2,284.0,0.5,95,135.0
5535,E4,284.0,0.25,95,135.0
5536,C4,284.0,0.25,95,135.0
5537,G3,284.0,0.25,95,135.0
5538,E3,284.0,0.25,95,135.0
5539,C3,284.0,0.25,95,135.0
5540,A4,284.25,0.25,95,135.0
5541,E4,284.25,0.25,95,135.0
5542,C4,284.25,0.25,95,135.0
5543,G3,284.25,0.25,95,135.0
5544,E3,284.25,0.25,95,135.0
5545,C3,284.25,0.25,95,135.0
5546,G4,284.5,0.25,95,135.0
5547,C2,284.5,0.5,95,135.0
5548,G#2,284.5,0.5,95,135.0
5549,E4,284.5,0.5,95,135.0
5550,C4,284.5,0.5,95,135.0
5551,G3,284.5,0.5,95,135.0
5552,E3,284.5,0.5,95,135.0
5553,C3,284.5,0.5,95,135.0
5554,F#4,284.75,0.25,95,135.0
5555,F#4,285.0,0.5,95,135.0
5556,F#2,285.0,0.5,95,135.0
5557,F#4,285.0,0.5,95,135.0
5558,E-4,285.0,0.5,95,135.0
5559,B3,285.0,0.5,95,135.0
5560,F#3,285.0,0.5,95,135.0
5561,B2,285.0,0.5,95,135.0
5562,G#2,285.0,0.5,95,135.0
5563,C2,285.0,0.5,95,135.0
5564,E-4,285.5,0.5,95,135.0
5565,E-2,285.5,0.5,95,135.0
5566,G#2,285.5,0.5,95,135.0
5567,F#4,285.5,0.5,95,135.0
5568,E-4,285.5,0.5,95,135.0
5569,B3,285.5,0.5,95,135.0
5570,F#3,285.5,0.5,95,135.0
5571,B2,285.5,0.5,95,135.0
5572,B3,286.0,0.5,95,135.0
5573,B1,286.0,0.5,95,135.0
5574,F#4,286.0,0.5,95,135.0
5575,E-4,286.0,0.5,95,135.0
5576,B3,286.0,0.5,95,135.0
5577,F#3,286.0,0.5,95,135.0
5578,B2,286.0,0.5,95,135.0
5579,G#2,286.0,0.5,95,135.0
5580,C2,286.0,0.5,95,135.0
5581,F#4,286.5,0.5,95,135.0
5582,F#2,286.5,0.5,95,135.0
5583,F#4,286.5,0.5,95,135.0
5584,E-4,286.5,0.5,95,135.0
5585,B3,286.5,0.5,95,135.0
5586,F#3,286.5,0.5,95,135.0
5587,B2,286.5,0.5,95,135.0
5588,G#2,286.5,0.5,95,135.0
5589,D2,286.5,0.5,95,135.0
5590,E-4,287.0,0.5,95,135.0
5591,E-2,287.0,0.5,95,135.0
5592,G#2,287.0,0.5,95,135.0
5593,F#4,287.0,0.5,95,135.0
5594,E-4,287.0,0.5,95,135.0
5595,B3,287.0,0.5,95,135.0
5596,F#3,287.0,0.5,95,135.0
5597,B2,287.0,0.5,95,135.0
5598,B3,287.5,0.5,95,135.0
5599,B1,287.5,0.5,95,135.0
5600,G#2,287.5,0.5,95,135.0
5601,F#4,287.5,0.5,95,135.0
5602,E-4,287.5,0.5,95,135.0
5603,B3,287.5,0.5,95,135.0
5604,F#3,287.5,0.5,95,135.0
5605,B2,287.5,0.5,95,135.0
5606,E3,288.0,3.0,95,135.0
5607,E2,288.0,0.5,95,135.0
5608,E4,288.0,0.5,95,135.0
5609,B3,288.0,0.5,95,135.0
5610,G3,288.0,0.5,95,135.0
5611,E3,288.0,0.5,95,135.0
5612,B2,288.0,0.5,95,135.0
5613,E2,288.0,0.5,95,135.0
5614,G#2,288.0,0.5,95,135.0
5615,C2,288.0,0.5,95,135.0
5616,E2,288.5,0.5,95,135.0
5617,G#2,288.5,0.5,95,135.0
5618,E4,288.5,0.25,95,135.0
5619,B3,288.5,0.25,95,135.0
5620,G3,288.5,0.25,95,135.0
5621,E3,288.5,0.25,95,135.0
5622,B2,288.5,0.25,95,135.0
5623,E2,288.5,0.25,95,135.0
5624,E4,288.75,0.25,95,135.0
5625,B3,288.75,0.25,95,135.0
5626,G3,288.75,0.25,95,135.0
5627,E3,288.75,0.25,95,135.0
5628,B2,288.75,0.25,95,135.0
5629,E2,288.75,0.25,95,135.0
5630,E2,289.0,0.5,95,135.0
5631,E4,289.0,0.5,95,135.0
5632,B3,289.0,0.5,95,135.0
5633,G3,289.0,0.5,95,135.0
5634,E3,289.0,0.5,95,135.0
5635,B2,289.0,0.5,95,135.0
5636,E2,289.0,0.5,95,135.0
5637,G#2,289.0,0.5,95,135.0
5638,C2,289.0,0.5,95,135.0
5639,E2,289.5,0.5,95,135.0
5640,E4,289.5,0.5,95,135.0
5641,B3,289.5,0.5,95,135.0
5642,G3,289.5,0.5,95,135.0
5643,E3,289.5,0.5,95,135.0
5644,B2,289.5,0.5,95,135.0
5645,E2,289.5,0.5,95,135.0
5646,G#2,289.5,0.5,95,135.0
5647,D2,289.5,0.5,95,135.0
5648,E2,290.0,0.5,95,135.0
5649,G#2,290.0,0.5,95,135.0
5650,E4,290.0,0.25,95,135.0
5651,B3,290.0,0.25,95,135.0
5652,G3,290.0,0.25,95,135.0
5653,E3,290.0,0.25,95,135.0
5654,B2,290.0,0.25,95,135.0
5655,E2,290.0,0.25,95,135.0
5656,E4,290.25,0.25,95,135.0
5657,B3,290.25,0.25,95,135.0
5658,G3,290.25,0.25,95,135.0
5659,E3,290.25,0.25,95,135.0
5660,B2,290.25,0.25,95,135.0
5661,E2,290.25,0.25,95,135.0
5662,E2,290.5,0.5,95,135.0
5663,G#2,290.5,0.5,95,135.0
5664,E4,290.5,0.5,95,135.0
5665,B3,290.5,0.5,95,135.0
5666,G3,290.5,0.5,95,135.0
5667,E3,290.5,0.5,95,135.0
5668,B2,290.5,0.5,95,135.0
5669,E2,290.5,0.5,95,135.0
5670,C2,291.0,0.5,95,135.0
5671,E4,291.0,0.5,95,135.0
5672,C4,291.0,0.5,95,135.0
5673,G3,291.0,0.5,95,135.0
5674,E3,291.0,0.5,95,135.0
5675,C3,291.0,0.5,95,135.0
5676,G#2,291.0,0.5,95,135.0
5677,C2,291.0,0.5,95,135.0
5678,C2,291.5,0.5,95,135.0
5679,G#2,291.5,0.5,95,135.0
5680,E4,291.5,0.25,95,135.0
5681,C4,291.5,0.25,95,135.0
5682,G3,291.5,0.25,95,135.0
5683,E3,291.5,0.25,95,135.0
5684,C3,291.5,0.25,95,135.0
5685,E4,291.75,0.25,95,135.0
5686,C4,291.75,0.25,95,135.0
5687,G3,291.75,0.25,95,135.0
5688,E3,291.75,0.25,95,135.0
5689,C3,291.75,0.25,95,135.0
5690,C2,292.0,0.5,95,135.0
5691,E4,292.0,0.5,95,135.0
5692,C4,292.0,0.5,95,135.0
5693,G3,292.0,0.5,95,135.0
5694,E3,292.0,0.5,95,135.0
5695,C3,292.0,0.5,95,135.0
5696,G#2,292.0,0.5,95,135.0
5697,C2,292.0,0.5,95,135.0
5698,C2,292.5,0.5,95,135.0
5699,E4,292.5,0.5,95,135.0
5700,C4,292.5,0.5,95,135.0
5701,G3,292.5,0.5,95,135.0
5702,E3,292.5,0.5,95,135.0
5703,C3,292.5,0.5,95,135.0
5704,G#2,292.5,0.5,95,135.0
5705,D2,292.5,0.5,95,135.0
5706,C2,293.0,0.5,95,135.0
5707,G#2,293.0,0.5,95,135.0
5708,E4,293.0,0.25,95,135.0
5709,C4,293.0,0.25,95,135.0
5710,G3,293.0,0.25,95,135.0
5711,E3,293.0,0.25,95,135.0
5712,C3,293.0,0.25,95,135.0
5713,E4,293.25,0.25,95,135.0
5714,C4,293.25,0.25,95,135.0
5715,G3,293.25,0.25,95,135.0
5716,E3,293.25,0.25,95,135.0
5717,C3,293.25,0.25,95,135.0
5718,C2,293.5,0.5,95,135.0
5719,G#2,293.5,0.5,95,135.0
5720,E4,293.5,0.5,95,135.0
5721,C4,293.5,0.5,95,135.0
5722,G3,293.5,0.5,95,135.0
5723,E3,293.5,0.5,95,135.0
5724,C3,293.5,0.5,95,135.0
5725,A1,294.0,0.5,95,135.0
5726,E4,294.0,0.5,95,135.0
5727,C4,294.0,0.5,95,135.0
5728,A3,294.0,0.5,95,135.0
5729,E3,294.0,0.5,95,135.0
5730,A2,294.0,0.5,95,135.0
5731,G#2,294.0,0.5,95,135.0
5732,C2,294.0,0.5,95,135.0
5733,A1,294.5,0.5,95,135.0
5734,G#2,294.5,0.5,95,135.0
5735,E4,294.5,0.25,95,135.0
5736,C4,294.5,0.25,95,135.0
5737,A3,294.5,0.25,95,135.0
5738,E3,294.5,0.25,95,135.0
5739,A2,294.5,0.25,95,135.0
5740,E4,294.75,0.25,95,135.0
5741,C4,294.75,0.25,95,135.0
5742,A3,294.75,0.25,95,135.0
5743,E3,294.75,0.25,95,135.0
5744,A2,294.75,0.25,95,135.0
5745,A1,295.0,0.5,95,135.0
5746,E4,295.0,0.5,95,135.0
5747,C4,295.0,0.5,95,135.0
5748,A3,295.0,0.5,95,135.0
5749,E3,295.0,0.5,95,135.0
5750,A2,295.0,0.5,95,135.0
5751,G#2,295.0,0.5,95,135.0
5752,C2,295.0,0.5,95,135.0
5753,A1,295.5,0.5,95,135.0
5754,E4,295.5,0.5,95,135.0
5755,C4,295.5,0.5,95,135.0
5756,A3,295.5,0.5,95,135.0
5757,E3,295.5,0.5,95,135.0
5758,A2,295.5,0.5,95,135.0
5759,G#2,295.5,0.5,95,135.0
5760,D2,295.5,0.5,95,135.0
5761,A1,296.0,0.5,95,135.0
5762,G#2,296.0,0.5,95,135.0
5763,E4,296.0,0.25,95,135.0
5764,C4,296.0,0.25,95,135.0
5765,A3,296.0,0.25,95,135.0
5766,E3,296.0,0.25,95,135.0
5767,A2,296.0,0.25,95,135.0
5768,E4,296.25,0.25,95,135.0
5769,C4,296.25,0.25,95,135.0
5770,A3,296.25,0.25,95,135.0
5771,E3,296.25,0.25,95,135.0
5772,A2,296.25,0.25,95,135.0
5773,A1,296.5,0.5,95,135.0
5774,G#2,296.5,0.5,95,135.0
5775,E4,296.5,0.5,95,135.0
5776,C4,296.5,0.5,95,135.0
5777,A3,296.5,0.5,95,135.0
5778,E3,296.5,0.5,95,135.0
5779,A2,296.5,0.5,95,135.0
5780,D2,297.0,0.5,95,135.0
5781,F#4,297.0,0.5,95,135.0
5782,D4,297.0,0.5,95,135.0
5783,A3,297.0,0.5,95,135.0
5784,D3,297.0,0.5,95,135.0
5785,G#2,297.0,0.5,95,135.0
5786,C2,297.0,0.5,95,135.0
5787,D2,297.5,0.5,95,135.0
5788,G#2,297.5,0.5,95,135.0
5789,F#4,297.5,0.25,95,135.0
5790,D4,297.5,0.25,95,135.0
5791,A3,297.5,0.25,95,135.0
5792,D3,297.5,0.25,95,135.0
5793,F#4,297.75,0.25,95,135.0
5794,D4,297.75,0.25,95,135.0
5795,A3,297.75,0.25,95,135.0
5796,D3,297.75,0.25,95,135.0
5797,D2,298.0,0.5,95,135.0
5798,F#4,298.0,0.5,95,135.0
5799,D4,298.0,0.5,95,135.0
5800,A3,298.0,0.5,95,135.0
5801,D3,298.0,0.5,95,135.0
5802,G#2,298.0,0.5,95,135.0
5803,C2,298.0,0.5,95,135.0
5804,F#2,298.5,0.5,95,135.0
5805,F#4,298.5,0.5,95,135.0
5806,D4,298.5,0.5,95,135.0
5807,A3,298.5,0.5,95,135.0
5808,D3,298.5,0.5,95,135.0
5809,G#2,298.5,0.5,95,135.0
5810,D2,298.5,0.5,95,135.0
5811,G2,299.0,0.5,95,135.0
5812,G#2,299.0,0.5,95,135.0
5813,F#4,299.0,0.25,95,135.0
5814,D4,299.0,0.25,95,135.0
5815,A3,299.0,0.25,95,135.0
5816,D3,299.0,0.25,95,135.0
5817,F#4,299.25,0.25,95,135.0
5818,D4,299.25,0.25,95,135.0
5819,A3,299.25,0.25,95,135.0
5820,D3,299.25,0.25,95,135.0
5821,A2,299.5,0.5,95,135.0
5822,G#2,299.5,0.5,95,135.0
5823,F#4,299.5,0.5,95,135.0
5824,D4,299.5,0.5,95,135.0
5825,A3,299.5,0.5,95,135.0
5826,D3,299.5,0.5,95,135.0
5827,E2,300.0,0.5,95,135.0
5828,E4,300.0,0.5,95,135.0
5829,B3,300.0,0.5,95,135.0
5830,G3,300.0,0.5,95,135.0
5831,E3,300.0,0.5,95,135.0
5832,B2,300.0,0.5,95,135.0
5833,E2,300.0,0.5,95,135.0
5834,G#2,300.0,0.5,95,135.0
5835,C2,300.0,0.5,95,135.0
5836,E2,300.5,0.5,95,135.0
5837,G#2,300.5,0.5,95,135.0
5838,E4,300.5,0.25,95,135.0
5839,B3,300.5,0.25,95,135.0
5840,G3,300.5,0.25,95,135.0
5841,E3,300.5,0.25,95,135.0
5842,B2,300.5,0.25,95,135.0
5843,E2,300.5,0.25,95,135.0
5844,E4,300.75,0.25,95,135.0
5845,B3,300.75,0.25,95,135.0
5846,G3,300.75,0.25,95,135.0
5847,E3,300.75,0.25,95,135.0
5848,B2,300.75,0.25,95,135.0
5849,E2,300.75,0.25,95,135.0
5850,E2,301.0,0.5,95,135.0
5851,E4,301.0,0.5,95,135.0
5852,B3,301.0,0.5,95,135.0
5853,G3,301.0,0.5,95,135.0
5854,E3,301.0,0.5,95,135.0
5855,B2,301.0,0.5,95,135.0
5856,E2,301.0,0.5,95,135.0
5857,G#2,301.0,0.5,95,135.0
5858,C2,301.0,0.5,95,135.0
5859,E2,301.5,0.5,95,135.0
5860,E4,301.5,0.5,95,135.0
5861,B3,301.5,0.5,95,135.0
5862,G3,301.5,0.5,95,135.0
5863,E3,301.5,0.5,95,135.0
5864,B2,301.5,0.5,95,135.0
5865,E2,301.5,0.5,95,135.0
5866,G#2,301.5,0.5,95,135.0
5867,D2,301.5,0.5,95,135.0
5868,E2,302.0,0.5,95,135.0
5869,G#2,302.0,0.5,95,135.0
5870,E4,302.0,0.25,95,135.0
5871,B3,302.0,0.25,95,135.0
5872,G3,302.0,0.25,95,135.0
5873,E3,302.0,0.25,95,135.0
5874,B2,302.0,0.25,95,135.0
5875,E2,302.0,0.25,95,135.0
5876,E4,302.25,0.25,95,135.0
5877,B3,302.25,0.25,95,135.0
5878,G3,302.25,0.25,95,135.0
5879,E3,302.25,0.25,95,135.0
5880,B2,302.25,0.25,95,135.0
5881,E2,302.25,0.25,95,135.0
5882,E2,302.5,0.5,95,135.0
5883,G#2,302.5,0.5,95,135.0
5884,E4,302.5,0.5,95,135.0
5885,B3,302.5,0.5,95,135.0
5886,G3,302.5,0.5,95,135.0
5887,E3,302.5,0.5,95,135.0
5888,B2,302.5,0.5,95,135.0
5889,E2,302.5,0.5,95,135.0
5890,C2,303.0,0.5,95,135.0
5891,E4,303.0,0.5,95,135.0
5892,C4,303.0,0.5,95,135.0
5893,G3,303.0,0.5,95,135.0
5894,E3,303.0,0.5,95,135.0
5895,C3,303.0,0.5,95,135.0
5896,G#2,303.0,0.5,95,135.0
5897,C2,303.0,0.5,95,135.0
5898,C2,303.5,0.5,95,135.0
5899,G#2,303.5,0.5,95,135.0
5900,E4,303.5,0.25,95,135.0
5901,C4,303.5,0.25,95,135.0
5902,G3,303.5,0.25,95,135.0
5903,E3,303.5,0.25,95,135.0
5904,C3,303.5,0.25,95,135.0
5905,E4,303.75,0.25,95,135.0
5906,C4,303.75,0.25,95,135.0
5907,G3,303.75,0.25,95,135.0
5908,E3,303.75,0.25,95,135.0
5909,C3,303.75,0.25,95,135.0
5910,C2,304.0,0.5,95,135.0
5911,E4,304.0,0.5,95,135.0
5912,C4,304.0,0.5,95,135.0
5913,G3,304.0,0.5,95,135.0
5914,E3,304.0,0.5,95,135.0
5915,C3,304.0,0.5,95,135.0
5916,G#2,304.0,0.5,95,135.0
5917,C2,304.0,0.5,95,135.0
5918,C2,304.5,0.5,95,135.0
5919,E4,304.5,0.5,95,135.0
5920,C4,304.5,0.5,95,135.0
5921,G3,304.5,0.5,95,135.0
5922,E3,304.5,0.5,95,135.0
5923,C3,304.5,0.5,95,135.0
5924,G#2,304.5,0.5,95,135.0
5925,D2,304.5,0.5,95,135.0
5926,C2,305.0,0.5,95,135.0
5927,G#2,305.0,0.5,95,135.0
5928,E4,305.0,0.25,95,135.0
5929,C4,305.0,0.25,95,135.0
5930,G3,305.0,0.25,95,135.0
5931,E3,305.0,0.25,95,135.0
5932,C3,305.0,0.25,95,135.0
5933,E4,305.25,0.25,95,135.0
5934,C4,305.25,0.25,95,135.0
5935,G3,305.25,0.25,95,135.0
5936,E3,305.25,0.25,95,135.0
5937,C3,305.25,0.25,95,135.0
5938,C2,305.5,0.5,95,135.0
5939,G#2,305.5,0.5,95,135.0
5940,E4,305.5,0.5,95,135.0
5941,C4,305.5,0.5,95,135.0
5942,G3,305.5,0.5,95,135.0
5943,E3,305.5,0.5,95,135.0
5944,C3,305.5,0.5,95,135.0
5945,A1,306.0,0.5,95,135.0
5946,E4,306.0,0.5,95,135.0
5947,C4,306.0,0.5,95,135.0
5948,A3,306.0,0.5,95,135.0
5949,E3,306.0,0.5,95,135.0
5950,A2,306.0,0.5,95,135.0
5951,G#2,306.0,0.5,95,135.0
5952,C2,306.0,0.5,95,135.0
5953,A1,306.5,0.5,95,135.0
5954,G#2,306.5,0.5,95,135.0
5955,E4,306.5,0.25,95,135.0
5956,C4,306.5,0.25,95,135.0
5957,A3,306.5,0.25,95,135.0
5958,E3,306.5,0.25,95,135.0
5959,A2,306.5,0.25,95,135.0
5960,E4,306.75,0.25,95,135.0
5961,C4,306.75,0.25,95,135.0
5962,A3,306.75,0.25,95,135.0
5963,E3,306.75,0.25,95,135.0
5964,A2,306.75,0.25,95,135.0
5965,A1,307.0,0.5,95,135.0
5966,E4,307.0,0.5,95,135.0
5967,C4,307.0,0.5,95,135.0
5968,A3,307.0,0.5,95,135.0
5969,E3,307.0,0.5,95,135.0
5970,A2,307.0,0.5,95,135.0
5971,G#2,307.0,0.5,95,135.0
5972,C2,307.0,0.5,95,135.0
5973,A1,307.5,0.5,95,135.0
5974,E4,307.5,0.5,95,135.0
5975,C4,307.5,0.5,95,135.0
5976,A3,307.5,0.5,95,135.0
5977,E3,307.5,0.5,95,135.0
5978,A2,307.5,0.5,95,135.0
5979,G#2,307.5,0.5,95,135.0
5980,D2,307.5,0.5,95,135.0
5981,A1,308.0,0.5,95,135.0
5982,G#2,308.0,0.5,95,135.0
5983,E4,308.0,0.25,95,135.0
5984,C4,308.0,0.25,95,135.0
5985,A3,308.0,0.25,95,135.0
5986,E3,308.0,0.25,95,135.0
5987,A2,308.0,0.25,95,135.0
5988,E4,308.25,0.25,95,135.0
5989,C4,308.25,0.25,95,135.0
5990,A3,308.25,0.25,95,135.0
5991,E3,308.25,0.25,95,135.0
5992,A2,308.25,0.25,95,135.0
5993,A1,308.5,0.5,95,135.0
5994,G#2,308.5,0.5,95,135.0
5995,E4,308.5,0.5,95,135.0
5996,C4,308.5,0.5,95,135.0
5997,A3,308.5,0.5,95,135.0
5998,E3,308.5,0.5,95,135.0
5999,A2,308.5,0.5,95,135.0
6000,D2,309.0,0.5,95,135.0
6001,F#4,309.0,0.5,95,135.0
6002,D4,309.0,0.5,95,135.0
6003,A3,309.0,0.5,95,135.0
6004,D3,309.0,0.5,95,135.0
6005,G#2,309.0,0.5,95,135.0
6006,C2,309.0,0.5,95,135.0
6007,D2,309.5,0.5,95,135.0
6008,G#2,309.5,0.5,95,135.0
6009,F#4,309.5,0.25,95,135.0
6010,D4,309.5,0.25,95,135.0
6011,A3,309.5,0.25,95,135.0
6012,D3,309.5,0.25,95,135.0
6013,F#4,309.75,0.25,95,135.0
6014,D4,309.75,0.25,95,135.0
6015,A3,309.75,0.25,95,135.0
6016,D3,309.75,0.25,95,135.0
6017,D2,310.0,0.5,95,135.0
6018,F#4,310.0,0.5,95,135.0
6019,D4,310.0,0.5,95,135.0
6020,A3,310.0,0.5,95,135.0
6021,D3,310.0,0.5,95,135.0
6022,G#2,310.0,0.5,95,135.0
6023,C2,310.0,0.5,95,135.0
6024,F#2,310.5,0.5,95,135.0
6025,F#4,310.5,0.5,95,135.0
6026,D4,310.5,0.5,95,135.0
6027,A3,310.5,0.5,95,135.0
6028,D3,310.5,0.5,95,135.0
6029,G#2,310.5,0.5,95,135.0
6030,D2,310.5,0.5,95,135.0
6031,G2,311.0,0.5,95,135.0
6032,G#2,311.0,0.5,95,135.0
6033,F#4,311.0,0.25,95,135.0
6034,D4,311.0,0.25,95,135.0
6035,A3,311.0,0.25,95,135.0
6036,D3,311.0,0.25,95,135.0
6037,F#4,311.25,0.25,95,135.0
6038,D4,311.25,0.25,95,135.0
6039,A3,311.25,0.25,95,135.0
6040,D3,311.25,0.25,95,135.0
6041,A2,311.5,0.5,95,135.0
6042,G#2,311.5,0.5,95,135.0
6043,F#4,311.5,0.5,95,135.0
6044,D4,311.5,0.5,95,135.0
6045,A3,311.5,0.5,95,135.0
6046,D3,311.5,0.5,95,135.0
6047,E2,312.0,0.5,95,135.0
6048,E4,312.0,0.5,95,135.0
6049,B3,312.0,0.5,95,135.0
6050,G3,312.0,0.5,95,135.0
6051,E3,312.0,0.5,95,135.0
6052,B2,312.0,0.5,95,135.0
6053,E2,312.0,0.5,95,135.0
6054,G#2,312.0,0.5,95,135.0
6055,C2,312.0,0.5,95,135.0
6056,E2,312.5,0.5,95,135.0
6057,G#2,312.5,0.5,95,135.0
6058,E4,312.5,0.25,95,135.0
6059,B3,312.5,0.25,95,135.0
6060,G3,312.5,0.25,95,135.0
6061,E3,312.5,0.25,95,135.0
6062,B2,312.5,0.25,95,135.0
6063,E2,312.5,0.25,95,135.0
6064,E4,312.75,0.25,95,135.0
6065,B3,312.75,0.25,95,135.0
6066,G3,312.75,0.25,95,135.0
6067,E3,312.75,0.25,95,135.0
6068,B2,312.75,0.25,95,135.0
6069,E2,312.75,0.25,95,135.0
6070,E2,313.0,0.5,95,135.0
6071,E4,313.0,0.5,95,135.0
6072,B3,313.0,0.5,95,135.0
6073,G3,313.0,0.5,95,135.0
6074,E3,313.0,0.5,95,135.0
6075,B2,313.0,0.5,95,135.0
6076,E2,313.0,0.5,95,135.0
6077,G#2,313.0,0.5,95,135.0
6078,C2,313.0,0.5,95,135.0
6079,E2,313.5,0.5,95,135.0
6080,E4,313.5,0.5,95,135.0
6081,B3,313.5,0.5,95,135.0
6082,G3,313.5,0.5,95,135.0
6083,E3,313.5,0.5,95,135.0
6084,B2,313.5,0.5,95,135.0
6085,E2,313.5,0.5,95,135.0
6086,G#2,313.5,0.5,95,135.0
6087,D2,313.5,0.5,95,135.0
6088,E2,314.0,0.5,95,135.0
6089,G#2,314.0,0.5,95,135.0
6090,E4,314.0,0.25,95,135.0
6091,B3,314.0,0.25,95,135.0
6092,G3,314.0,0.25,95,135.0
6093,E3,314.0,0.25,95,135.0
6094,B2,314.0,0.25,95,135.0
6095,E2,314.0,0.25,95,135.0
6096,E4,314.25,0.25,95,135.0
6097,B3,314.25,0.25,95,135.0
6098,G3,314.25,0.25,95,135.0
6099,E3,314.25,0.25,95,135.0
6100,B2,314.25,0.25,95,135.0
6101,E2,314.25,0.25,95,135.0
6102,E2,314.5,0.5,95,135.0
6103,G#2,314.5,0.5,95,135.0
6104,E4,314.5,0.5,95,135.0
6105,B3,314.5,0.5,95,135.0
6106,G3,314.5,0.5,95,135.0
6107,E3,314.5,0.5,95,135.0
6108,B2,314.5,0.5,95,135.0
6109,E2,314.5,0.5,95,135.0
6110,C2,315.0,0.5,95,135.0
6111,E4,315.0,0.5,95,135.0
6112,C4,315.0,0.5,95,135.0
6113,G3,315.0,0.5,95,135.0
6114,E3,315.0,0.5,95,135.0
6115,C3,315.0,0.5,95,135.0
6116,G#2,315.0,0.5,95,135.0
6117,C2,315.0,0.5,95,135.0
6118,C2,315.5,0.5,95,135.0
6119,G#2,315.5,0.5,95,135.0
6120,E4,315.5,0.25,95,135.0
6121,C4,315.5,0.25,95,135.0
6122,G3,315.5,0.25,95,135.0
6123,E3,315.5,0.25,95,135.0
6124,C3,315.5,0.25,95,135.0
6125,E4,315.75,0.25,95,135.0
6126,C4,315.75,0.25,95,135.0
6127,G3,315.75,0.25,95,135.0
6128,E3,315.75,0.25,95,135.0
6129,C3,315.75,0.25,95,135.0
6130,C2,316.0,0.5,95,135.0
6131,E4,316.0,0.5,95,135.0
6132,C4,316.0,0.5,95,135.0
6133,G3,316.0,0.5,95,135.0
6134,E3,316.0,0.5,95,135.0
6135,C3,316.0,0.5,95,135.0
6136,G#2,316.0,0.5,95,135.0
6137,C2,316.0,0.5,95,135.0
6138,C2,316.5,0.5,95,135.0
6139,E4,316.5,0.5,95,135.0
6140,C4,316.5,0.5,95,135.0
6141,G3,316.5,0.5,95,135.0
6142,E3,316.5,0.5,95,135.0
6143,C3,316.5,0.5,95,135.0
6144,G#2,316.5,0.5,95,135.0
6145,D2,316.5,0.5,95,135.0
6146,C2,317.0,0.5,95,135.0
6147,G#2,317.0,0.5,95,135.0
6148,E4,317.0,0.25,95,135.0
6149,C4,317.0,0.25,95,135.0
6150,G3,317.0,0.25,95,135.0
6151,E3,317.0,0.25,95,135.0
6152,C3,317.0,0.25,95,135.0
6153,E4,317.25,0.25,95,135.0
6154,C4,317.25,0.25,95,135.0
6155,G3,317.25,0.25,95,135.0
6156,E3,317.25,0.25,95,135.0
6157,C3,317.25,0.25,95,135.0
6158,C2,317.5,0.5,95,135.0
6159,G#2,317.5,0.5,95,135.0
6160,E4,317.5,0.5,95,135.0
6161,C4,317.5,0.5,95,135.0
6162,G3,317.5,0.5,95,135.0
6163,E3,317.5,0.5,95,135.0
6164,C3,317.5,0.5,95,135.0
6165,A1,318.0,0.5,95,135.0
6166,E4,318.0,0.5,95,135.0
6167,C4,318.0,0.5,95,135.0
6168,A3,318.0,0.5,95,135.0
6169,E3,318.0,0.5,95,135.0
6170,A2,318.0,0.5,95,135.0
6171,G#2,318.0,0.5,95,135.0
6172,C2,318.0,0.5,95,135.0
6173,A1,318.5,0.5,95,135.0
6174,G#2,318.5,0.5,95,135.0
6175,E4,318.5,0.25,95,135.0
6176,C4,318.5,0.25,95,135.0
6177,A3,318.5,0.25,95,135.0
6178,E3,318.5,0.25,95,135.0
6179,A2,318.5,0.25,95,135.0
6180,E4,318.75,0.25,95,135.0
6181,C4,318.75,0.25,95,135.0
6182,A3,318.75,0.25,95,135.0
6183,E3,318.75,0.25,95,135.0
6184,A2,318.75,0.25,95,135.0
6185,A1,319.0,0.5,95,135.0
6186,E4,319.0,0.5,95,135.0
6187,C4,319.0,0.5,95,135.0
6188,A3,319.0,0.5,95,135.0
6189,E3,319.0,0.5,95,135.0
6190,A2,319.0,0.5,95,135.0
6191,G#2,319.0,0.5,95,135.0
6192,C2,319.0,0.5,95,135.0
6193,A1,319.5,0.5,95,135.0
6194,E4,319.5,0.5,95,135.0
6195,C4,319.5,0.5,95,135.0
6196,A3,319.5,0.5,95,135.0
6197,E3,319.5,0.5,95,135.0
6198,A2,319.5,0.5,95,135.0
6199,G#2,319.5,0.5,95,135.0
6200,D2,319.5,0.5,95,135.0
6201,A1,320.0,0.5,95,135.0
6202,G#2,320.0,0.5,95,135.0
6203,E4,320.0,0.25,95,135.0
6204,C4,320.0,0.25,95,135.0
6205,A3,320.0,0.25,95,135.0
6206,E3,320.0,0.25,95,135.0
6207,A2,320.0,0.25,95,135.0
6208,E4,320.25,0.25,95,135.0
6209,C4,320.25,0.25,95,135.0
6210,A3,320.25,0.25,95,135.0
6211,E3,320.25,0.25,95,135.0
6212,A2,320.25,0.25,95,135.0
6213,A1,320.5,0.5,95,135.0
6214,G#2,320.5,0.5,95,135.0
6215,E4,320.5,0.5,95,135.0
6216,C4,320.5,0.5,95,135.0
6217,A3,320.5,0.5,95,135.0
6218,E3,320.5,0.5,95,135.0
6219,A2,320.5,0.5,95,135.0
6220,D2,321.0,0.5,95,135.0
6221,F#4,321.0,0.5,95,135.0
6222,D4,321.0,0.5,95,135.0
6223,A3,321.0,0.5,95,135.0
6224,D3,321.0,0.5,95,135.0
6225,G#2,321.0,0.5,95,135.0
6226,C2,321.0,0.5,95,135.0
6227,D2,321.5,0.5,95,135.0
6228,G#2,321.5,0.5,95,135.0
6229,F#4,321.5,0.25,95,135.0
6230,D4,321.5,0.25,95,135.0
6231,A3,321.5,0.25,95,135.0
6232,D3,321.5,0.25,95,135.0
6233,F#4,321.75,0.25,95,135.0
6234,D4,321.75,0.25,95,135.0
6235,A3,321.75,0.25,95,135.0
6236,D3,321.75,0.25,95,135.0
6237,D2,322.0,0.5,95,135.0
6238,F#4,322.0,0.5,95,135.0
6239,D4,322.0,0.5,95,135.0
6240,A3,322.0,0.5,95,135.0
6241,D3,322.0,0.5,95,135.0
6242,G#2,322.0,0.5,95,135.0
6243,C2,322.0,0.5,95,135.0
6244,F#2,322.5,0.5,95,135.0
6245,F#4,322.5,0.5,95,135.0
6246,D4,322.5,0.5,95,135.0
6247,A3,322.5,0.5,95,135.0
6248,D3,322.5,0.5,95,135.0
6249,G#2,322.5,0.5,95,135.0
6250,D2,322.5,0.5,95,135.0
6251,G2,323.0,0.5,95,135.0
6252,G#2,323.0,0.5,95,135.0
6253,F#4,323.0,0.25,95,135.0
6254,D4,323.0,0.25,95,135.0
6255,A3,323.0,0.25,95,135.0
6256,D3,323.0,0.25,95,135.0
6257,F#4,323.25,0.25,95,135.0
6258,D4,323.25,0.25,95,135.0
6259,A3,323.25,0.25,95,135.0
6260,D3,323.25,0.25,95,135.0
6261,A2,323.5,0.5,95,135.0
6262,G#2,323.5,0.5,95,135.0
6263,F#4,323.5,0.5,95,135.0
6264,D4,323.5,0.5,95,135.0
6265,A3,323.5,0.5,95,135.0
6266,D3,323.5,0.5,95,135.0
6267,E2,324.0,0.5,95,135.0
6268,E4,324.0,0.5,95,135.0
6269,B3,324.0,0.5,95,135.0
6270,G3,324.0,0.5,95,135.0
6271,E3,324.0,0.5,95,135.0
6272,B2,324.0,0.5,95,135.0
6273,E2,324.0,0.5,95,135.0
6274,G#2,324.0,0.5,95,135.0
6275,C2,324.0,0.5,95,135.0
6276,E2,324.5,0.5,95,135.0
6277,G#2,324.5,0.5,95,135.0
6278,E4,324.5,0.25,95,135.0
6279,B3,324.5,0.25,95,135.0
6280,G3,324.5,0.25,95,135.0
6281,E3,324.5,0.25,95,135.0
6282,B2,324.5,0.25,95,135.0
6283,E2,324.5,0.25,95,135.0
6284,E4,324.75,0.25,95,135.0
6285,B3,324.75,0.25,95,135.0
6286,G3,324.75,0.25,95,135.0
6287,E3,324.75,0.25,95,135.0
6288,B2,324.75,0.25,95,135.0
6289,E2,324.75,0.25,95,135.0
6290,E2,325.0,0.5,95,135.0
6291,E4,325.0,0.5,95,135.0
6292,B3,325.0,0.5,95,135.0
6293,G3,325.0,0.5,95,135.0
6294,E3,325.0,0.5,95,135.0
6295,B2,325.0,0.5,95,135.0
6296,E2,325.0,0.5,95,135.0
6297,G#2,325.0,0.5,95,135.0
6298,C2,325.0,0.5,95,135.0
6299,E2,325.5,0.5,95,135.0
6300,E4,325.5,0.5,95,135.0
6301,B3,325.5,0.5,95,135.0
6302,G3,325.5,0.5,95,135.0
6303,E3,325.5,0.5,95,135.0
6304,B2,325.5,0.5,95,135.0
6305,E2,325.5,0.5,95,135.0
6306,G#2,325.5,0.5,95,135.0
6307,D2,325.5,0.5,95,135.0
6308,E2,326.0,0.5,95,135.0
6309,G#2,326.0,0.5,95,135.0
6310,E4,326.0,0.25,95,135.0
6311,B3,326.0,0.25,95,135.0
6312,G3,326.0,0.25,95,135.0
6313,E3,326.0,0.25,95,135.0
6314,B2,326.0,0.25,95,135.0
6315,E2,326.0,0.25,95,135.0
6316,E4,326.25,0.25,95,135.0
6317,B3,326.25,0.25,95,135.0
6318,G3,326.25,0.25,95,135.0
6319,E3,326.25,0.25,95,135.0
6320,B2,326.25,0.25,95,135.0
6321,E2,326.25,0.25,95,135.0
6322,E2,326.5,0.5,95,135.0
6323,G#2,326.5,0.5,95,135.0
6324,E4,326.5,0.5,95,135.0
6325,B3,326.5,0.5,95,135.0
6326,G3,326.5,0.5,95,135.0
6327,E3,326.5,0.5,95,135.0
6328,B2,326.5,0.5,95,135.0
6329,E2,326.5,0.5,95,135.0
6330,C2,327.0,0.5,95,135.0
6331,E4,327.0,0.5,95,135.0
6332,C4,327.0,0.5,95,135.0
6333,G3,327.0,0.5,95,135.0
6334,E3,327.0,0.5,95,135.0
6335,C3,327.0,0.5,95,135.0
6336,G#2,327.0,0.5,95,135.0
6337,C2,327.0,0.5,95,135.0
6338,C2,327.5,0.5,95,135.0
6339,G#2,327.5,0.5,95,135.0
6340,E4,327.5,0.25,95,135.0
6341,C4,327.5,0.25,95,135.0
6342,G3,327.5,0.25,95,135.0
6343,E3,327.5,0.25,95,135.0
6344,C3,327.5,0.25,95,135.0
6345,E4,327.75,0.25,95,135.0
6346,C4,327.75,0.25,95,135.0
6347,G3,327.75,0.25,95,135.0
6348,E3,327.75,0.25,95,135.0
6349,C3,327.75,0.25,95,135.0
6350,C2,328.0,0.5,95,135.0
6351,E4,328.0,0.5,95,135.0
6352,C4,328.0,0.5,95,135.0
6353,G3,328.0,0.5,95,135.0
6354,E3,328.0,0.5,95,135.0
6355,C3,328.0,0.5,95,135.0
6356,G#2,328.0,0.5,95,135.0
6357,C2,328.0,0.5,95,135.0
6358,C2,328.5,0.5,95,135.0
6359,E4,328.5,0.5,95,135.0
6360,C4,328.5,0.5,95,135.0
6361,G3,328.5,0.5,95,135.0
6362,E3,328.5,0.5,95,135.0
6363,C3,328.5,0.5,95,135.0
6364,G#2,328.5,0.5,95,135.0
6365,D2,328.5,0.5,95,135.0
6366,C2,329.0,0.5,95,135.0
6367,G#2,329.0,0.5,95,135.0
6368,E4,329.0,0.25,95,135.0
6369,C4,329.0,0.25,95,135.0
6370,G3,329.0,0.25,95,135.0
6371,E3,329.0,0.25,95,135.0
6372,C3,329.0,0.25,95,135.0
6373,E4,329.25,0.25,95,135.0
6374,C4,329.25,0.25,95,135.0
6375,G3,329.25,0.25,95,135.0
6376,E3,329.25,0.25,95,135.0
6377,C3,329.25,0.25,95,135.0
6378,C2,329.5,0.5,95,135.0
6379,G#2,329.5,0.5,95,135.0
6380,E4,329.5,0.5,95,135.0
6381,C4,329.5,0.5,95,135.0
6382,G3,329.5,0.5,95,135.0
6383,E3,329.5,0.5,95,135.0
6384,C3,329.5,0.5,95,135.0
6385,A1,330.0,0.5,95,135.0
6386,E4,330.0,0.5,95,135.0
6387,C4,330.0,0.5,95,135.0
6388,A3,330.0,0.5,95,135.0
6389,E3,330.0,0.5,95,135.0
6390,A2,330.0,0.5,95,135.0
6391,G#2,330.0,0.5,95,135.0
6392,C2,330.0,0.5,95,135.0
6393,A1,330.5,0.5,95,135.0
6394,G#2,330.5,0.5,95,135.0
6395,E4,330.5,0.25,95,135.0
6396,C4,330.5,0.25,95,135.0
6397,A3,330.5,0.25,95,135.0
6398,E3,330.5,0.25,95,135.0
6399,A2,330.5,0.25,95,135.0
6400,E4,330.75,0.25,95,135.0
6401,C4,330.75,0.25,95,135.0
6402,A3,330.75,0.25,95,135.0
6403,E3,330.75,0.25,95,135.0
6404,A2,330.75,0.25,95,135.0
6405,A1,331.0,0.5,95,135.0
6406,E4,331.0,0.5,95,135.0
6407,C4,331.0,0.5,95,135.0
6408,A3,331.0,0.5,95,135.0
6409,E3,331.0,0.5,95,135.0
6410,A2,331.0,0.5,95,135.0
6411,G#2,331.0,0.5,95,135.0
6412,C2,331.0,0.5,95,135.0
6413,A1,331.5,0.5,95,135.0
6414,E4,331.5,0.5,95,135.0
6415,C4,331.5,0.5,95,135.0
6416,A3,331.5,0.5,95,135.0
6417,E3,331.5,0.5,95,135.0
6418,A2,331.5,0.5,95,135.0
6419,G#2,331.5,0.5,95,135.0
6420,D2,331.5,0.5,95,135.0
6421,A1,332.0,0.5,95,135.0
6422,G#2,332.0,0.5,95,135.0
6423,E4,332.0,0.25,95,135.0
6424,C4,332.0,0.25,95,135.0
6425,A3,332.0,0.25,95,135.0
6426,E3,332.0,0.25,95,135.0
6427,A2,332.0,0.25,95,135.0
6428,E4,332.25,0.25,95,135.0
6429,C4,332.25,0.25,95,135.0
6430,A3,332.25,0.25,95,135.0
6431,E3,332.25,0.25,95,135.0
6432,A2,332.25,0.25,95,135.0
6433,A1,332.5,0.5,95,135.0
6434,G#2,332.5,0.5,95,135.0
6435,E4,332.5,0.5,95,135.0
6436,C4,332.5,0.5,95,135.0
6437,A3,332.5,0.5,95,135.0
6438,E3,332.5,0.5,95,135.0
6439,A2,332.5,0.5,95,135.0
6440,D2,333.0,0.5,95,135.0
6441,F#4,333.0,0.5,95,135.0
6442,D4,333.0,0.5,95,135.0
6443,A3,333.0,0.5,95,135.0
6444,D3,333.0,0.5,95,135.0
6445,G#2,333.0,0.5,95,135.0
6446,C2,333.0,0.5,95,135.0
6447,D2,333.5,0.5,95,135.0
6448,G#2,333.5,0.5,95,135.0
6449,F#4,333.5,0.25,95,135.0
6450,D4,333.5,0.25,95,135.0
6451,A3,333.5,0.25,95,135.0
6452,D3,333.5,0.25,95,135.0
6453,F#4,333.75,0.25,95,135.0
6454,D4,333.75,0.25,95,135.0
6455,A3,333.75,0.25,95,135.0
6456,D3,333.75,0.25,95,135.0
6457,D2,334.0,0.5,95,135.0
6458,F#4,334.0,0.5,95,135.0
6459,D4,334.0,0.5,95,135.0
6460,A3,334.0,0.5,95,135.0
6461,D3,334.0,0.5,95,135.0
6462,G#2,334.0,0.5,95,135.0
6463,C2,334.0,0.5,95,135.0
6464,F#2,334.5,0.5,95,135.0
6465,F#4,334.5,0.5,95,135.0
6466,D4,334.5,0.5,95,135.0
6467,A3,334.5,0.5,95,135.0
6468,D3,334.5,0.5,95,135.0
6469,G#2,334.5,0.5,95,135.0
6470,D2,334.5,0.5,95,135.0
6471,G2,335.0,0.5,95,135.0
6472,G#2,335.0,0.5,95,135.0
6473,F#4,335.0,0.25,95,135.0
6474,D4,335.0,0.25,95,135.0
6475,A3,335.0,0.25,95,135.0
6476,D3,335.0,0.25,95,135.0
6477,F#4,335.25,0.25,95,135.0
6478,D4,335.25,0.25,95,135.0
6479,A3,335.25,0.25,95,135.0
6480,D3,335.25,0.25,95,135.0
6481,A2,335.5,0.5,95,135.0
6482,G#2,335.5,0.5,95,135.0
6483,F#4,335.5,0.5,95,135.0
6484,D4,335.5,0.5,95,135.0
6485,A3,335.5,0.5,95,135.0
6486,D3,335.5,0.5,95,135.0
6487,B4,336.0,0.25,95,135.0
6488,G1,336.0,0.5,95,135.0
6489,G4,336.0,0.5,95,135.0
6490,D4,336.0,0.5,95,135.0
6491,G3,336.0,0.5,95,135.0
6492,D3,336.0,0.5,95,135.0
6493,B2,336.0,0.5,95,135.0
6494,G2,336.0,0.5,95,135.0
6495,G#2,336.0,0.5,95,135.0
6496,C2,336.0,0.5,95,135.0
6497,C5,336.25,0.25,95,135.0
6498,A4,336.5,0.25,95,135.0
6499,G1,336.5,0.5,95,135.0
6500,G#2,336.5,0.5,95,135.0
6501,G4,336.5,0.25,95,135.0
6502,D4,336.5,0.25,95,135.0
6503,G3,336.5,0.25,95,135.0
6504,D3,336.5,0.25,95,135.0
6505,B2,336.5,0.25,95,135.0
6506,G2,336.5,0.25,95,135.0
6507,B4,336.75,0.25,95,135.0
6508,G4,336.75,0.25,95,135.0
6509,D4,336.75,0.25,95,135.0
6510,G3,336.75,0.25,95,135.0
6511,D3,336.75,0.25,95,135.0
6512,B2,336.75,0.25,95,135.0
6513,G2,336.75,0.25,95,135.0
6514,G4,337.0,0.25,95,135.0
6515,G1,337.0,0.5,95,135.0
6516,G4,337.0,0.5,95,135.0
6517,D4,337.0,0.5,95,135.0
6518,G3,337.0,0.5,95,135.0
6519,D3,337.0,0.5,95,135.0
6520,B2,337.0,0.5,95,135.0
6521,G2,337.0,0.5,95,135.0
6522,G#2,337.0,0.5,95,135.0
6523,C2,337.0,0.5,95,135.0
6524,A4,337.25,0.25,95,135.0
6525,F#4,337.5,0.25,95,135.0
6526,G1,337.5,0.5,95,135.0
6527,G4,337.5,0.5,95,135.0
6528,D4,337.5,0.5,95,135.0
6529,G3,337.5,0.5,95,135.0
6530,D3,337.5,0.5,95,135.0
6531,B2,337.5,0.5,95,135.0
6532,G2,337.5,0.5,95,135.0
6533,G#2,337.5,0.5,95,135.0
6534,D2,337.5,0.5,95,135.0
6535,G4,337.75,0.25,95,135.0
6536,E4,338.0,0.25,95,135.0
6537,G1,338.0,0.5,95,135.0
6538,G#2,338.0,0.5,95,135.0
6539,G4,338.0,0.25,95,135.0
6540,D4,338.0,0.25,95,135.0
6541,G3,338.0,0.25,95,135.0
6542,D3,338.0,0.25,95,135.0
6543,B2,338.0,0.25,95,135.0
6544,G2,338.0,0.25,95,135.0
6545,F#4,338.25,0.25,95,135.0
6546,G4,338.25,0.25,95,135.0
6547,D4,338.25,0.25,95,135.0
6548,G3,338.25,0.25,95,135.0
6549,D3,338.25,0.25,95,135.0
6550,B2,338.25,0.25,95,135.0
6551,G2,338.25,0.25,95,135.0
6552,D4,338.5,0.25,95,135.0
6553,G1,338.5,0.5,95,135.0
6554,G#2,338.5,0.5,95,135.0
6555,G4,338.5,0.5,95,135.0
6556,D4,338.5,0.5,95,135.0
6557,G3,338.5,0.5,95,135.0
6558,D3,338.5,0.5,95,135.0
6559,B2,338.5,0.5,95,135.0
6560,G2,338.5,0.5,95,135.0
6561,E4,338.75,0.25,95,135.0
6562,F#4,339.0,0.125,95,135.0
6563,D2,339.0,0.5,95,135.0
6564,F#4,339.0,0.5,95,135.0
6565,D4,339.0,0.5,95,135.0
6566,A3,339.0,0.5,95,135.0
6567,D3,339.0,0.5,95,135.0
6568,G#2,339.0,0.5,95,135.0
6569,C2,339.0,0.5,95,135.0
6570,F#4,339.125,0.125,95,135.0
6571,F#4,339.25,0.125,95,135.0
6572,F#4,339.375,0.125,95,135.0
6573,F#4,339.5,0.125,95,135.0
6574,D2,339.5,0.5,95,135.0
6575,G#2,339.5,0.5,95,135.0
6576,F#4,339.5,0.25,95,135.0
6577,D4,339.5,0.25,95,135.0
6578,A3,339.5,0.25,95,135.0
6579,D3,339.5,0.25,95,135.0
6580,F#4,339.625,0.125,95,135.0
6581,F#4,339.75,0.125,95,135.0
6582,F#4,339.75,0.25,95,135.0
6583,D4,339.75,0.25,95,135.0
6584,A3,339.75,0.25,95,135.0
6585,D3,339.75,0.25,95,135.0
6586,F#4,339.875,0.125,95,135.0
6587,F#4,340.0,0.125,95,135.0
6588,D2,340.0,0.5,95,135.0
6589,F#4,340.0,0.5,95,135.0
6590,D4,340.0,0.5,95,135.0
6591,A3,340.0,0.5,95,135.0
6592,D3,340.0,0.5,95,135.0
6593,G#2,340.0,0.5,95,135.0
6594,C2,340.0,0.5,95,135.0
6595,F#4,340.125,0.125,95,135.0
6596,F#4,340.25,0.125,95,135.0
6597,F#4,340.375,31/250,95,135.0
6598,A4,340.5,0.125,95,135.0
6599,D2,340.5,0.5,95,135.0
6600,F#4,340.5,0.5,95,135.0
6601,D4,340.5,0.5,95,135.0
6602,A3,340.5,0.5,95,135.0
6603,D3,340.5,0.5,95,135.0
6604,G#2,340.5,0.5,95,135.0
6605,D2,340.5,0.5,95,135.0
6606,A4,340.625,0.125,95,135.0
6607,A4,340.75,0.125,95,135.0
6608,A4,340.875,0.125,95,135.0
6609,A4,341.0,0.125,95,135.0
6610,D2,341.0,0.5,95,135.0
6611,G#2,341.0,0.5,95,135.0
6612,F#4,341.0,0.25,95,135.0
6613,D4,341.0,0.25,95,135.0
6614,A3,341.0,0.25,95,135.0
6615,D3,341.0,0.25,95,135.0
6616,A4,341.125,0.125,95,135.0
6617,A4,341.25,0.125,95,135.0
6618,F#4,341.25,0.25,95,135.0
6619,D4,341.25,0.25,95,135.0
6620,A3,341.25,0.25,95,135.0
6621,D3,341.25,0.25,95,135.0
6622,A4,341.375,0.125,95,135.0
6623,A4,341.5,0.125,95,135.0
6624,D2,341.5,0.5,95,135.0
6625,G#2,341.5,0.5,95,135.0
6626,F#4,341.5,0.5,95,135.0
6627,D4,341.5,0.5,95,135.0
6628,A3,341.5,0.5,95,135.0
6629,D3,341.5,0.5,95,135.0
6630,A4,341.625,0.125,95,135.0
6631,A4,341.75,0.125,95,135.0
6632,A4,341.875,31/250,95,135.0
6633,G4,342.0,0.5,95,135.0
6634,C2,342.0,0.5,95,135.0
6635,E4,342.0,0.5,95,135.0
6636,C4,342.0,0.5,95,135.0
6637,G3,342.0,0.5,95,135.0
6638,E3,342.0,0.5,95,135.0
6639,C3,342.0,0.5,95,135.0
6640,G#2,342.0,0.5,95,135.0
6641,C2,342.0,0.5,95,135.0
6642,G4,342.5,0.5,95,135.0
6643,C2,342.5,0.5,95,135.0
6644,G#2,342.5,0.5,95,135.0
6645,E4,342.5,0.25,95,135.0
6646,C4,342.5,0.25,95,135.0
6647,G3,342.5,0.25,95,135.0
6648,E3,342.5,0.25,95,135.0
6649,C3,342.5,0.25,95,135.0
6650,E4,342.75,0.25,95,135.0
6651,C4,342.75,0.25,95,135.0
6652,G3,342.75,0.25,95,135.0
6653,E3,342.75,0.25,95,135.0
6654,C3,342.75,0.25,95,135.0
6655,G4,343.0,0.5,95,135.0
6656,C2,343.0,0.5,95,135.0
6657,E4,343.0,0.5,95,135.0
6658,C4,343.0,0.5,95,135.0
6659,G3,343.0,0.5,95,135.0
6660,E3,343.0,0.5,95,135.0
6661,C3,343.0,0.5,95,135.0
6662,G#2,343.0,0.5,95,135.0
6663,C2,343.0,0.5,95,135.0
6664,C5,343.5,0.5,95,135.0
6665,C2,343.5,0.5,95,135.0
6666,E4,343.5,0.5,95,135.0
6667,C4,343.5,0.5,95,135.0
6668,G3,343.5,0.5,95,135.0
6669,E3,343.5,0.5,95,135.0
6670,C3,343.5,0.5,95,135.0
6671,G#2,343.5,0.5,95,135.0
6672,D2,343.5,0.5,95,135.0
6673,C5,344.0,0.5,95,135.0
6674,C2,344.0,0.5,95,135.0
6675,G#2,344.0,0.5,95,135.0
6676,E4,344.0,0.25,95,135.0
6677,C4,344.0,0.25,95,135.0
6678,G3,344.0,0.25,95,135.0
6679,E3,344.0,0.25,95,135.0
6680,C3,344.0,0.25,95,135.0
6681,E4,344.25,0.25,95,135.0
6682,C4,344.25,0.25,95,135.0
6683,G3,344.25,0.25,95,135.0
6684,E3,344.25,0.25,95,135.0
6685,C3,344.25,0.25,95,135.0
6686,C5,344.5,0.5,95,135.0
6687,C2,344.5,0.5,95,135.0
6688,G#2,344.5,0.5,95,135.0
6689,E4,344.5,0.5,95,135.0
6690,C4,344.5,0.5,95,135.0
6691,G3,344.5,0.5,95,135.0
6692,E3,344.5,0.5,95,135.0
6693,C3,344.5,0.5,95,135.0
6694,A4,345.0,0.5,95,135.0
6695,D2,345.0,0.5,95,135.0
6696,F#4,345.0,0.5,95,135.0
6697,D4,345.0,0.5,95,135.0
6698,A3,345.0,0.5,95,135.0
6699,D3,345.0,0.5,95,135.0
6700,G#2,345.0,0.5,95,135.0
6701,C2,345.0,0.5,95,135.0
6702,A4,345.5,0.5,95,135.0
6703,D2,345.5,0.5,95,135.0
6704,G#2,345.5,0.5,95,135.0
6705,F#4,345.5,0.25,95,135.0
6706,D4,345.5,0.25,95,135.0
6707,A3,345.5,0.25,95,135.0
6708,D3,345.5,0.25,95,135.0
6709,F#4,345.75,0.25,95,135.0
6710,D4,345.75,0.25,95,135.0
6711,A3,345.75,0.25,95,135.0
6712,D3,345.75,0.25,95,135.0
6713,A4,346.0,0.5,95,135.0
6714,D2,346.0,0.5,95,135.0
6715,F#4,346.0,0.5,95,135.0
6716,D4,346.0,0.5,95,135.0
6717,A3,346.0,0.5,95,135.0
6718,D3,346.0,0.5,95,135.0
6719,G#2,346.0,0.5,95,135.0
6720,C2,346.0,0.5,95,135.0
6721,D5,346.5,0.5,95,135.0
6722,D2,346.5,0.5,95,135.0
6723,F#4,346.5,0.5,95,135.0
6724,D4,346.5,0.5,95,135.0
6725,A3,346.5,0.5,95,135.0
6726,D3,346.5,0.5,95,135.0
6727,G#2,346.5,0.5,95,135.0
6728,D2,346.5,0.5,95,135.0
6729,D5,347.0,0.5,95,135.0
6730,D2,347.0,0.5,95,135.0
6731,G#2,347.0,0.5,95,135.0
6732,F#4,347.0,0.25,95,135.0
6733,D4,347.0,0.25,95,135.0
6734,A3,347.0,0.25,95,135.0
6735,D3,347.0,0.25,95,135.0
6736,F#4,347.25,0.25,95,135.0
6737,D4,347.25,0.25,95,135.0
6738,A3,347.25,0.25,95,135.0
6739,D3,347.25,0.25,95,135.0
6740,D2,347.5,0.5,95,135.0
6741,G#2,347.5,0.5,95,135.0
6742,F#4,347.5,0.5,95,135.0
6743,D4,347.5,0.5,95,135.0
6744,A3,347.5,0.5,95,135.0
6745,D3,347.5,0.5,95,135.0
6746,G1,348.0,0.5,95,135.0
6747,G4,348.0,0.5,95,135.0
6748,D4,348.0,0.5,95,135.0
6749,G3,348.0,0.5,95,135.0
6750,D3,348.0,0.5,95,135.0
6751,B2,348.0,0.5,95,135.0
6752,G2,348.0,0.5,95,135.0
6753,B4,348.0,3.0,95,135.0
6754,G4,348.0,3.0,95,135.0
6755,G#2,348.0,0.5,95,135.0
6756,C2,348.0,0.5,95,135.0
6757,G1,348.5,0.5,95,135.0
6758,G#2,348.5,0.5,95,135.0
6759,G4,348.5,0.25,95,135.0
6760,D4,348.5,0.25,95,135.0
6761,G3,348.5,0.25,95,135.0
6762,D3,348.5,0.25,95,135.0
6763,B2,348.5,0.25,95,135.0
6764,G2,348.5,0.25,95,135.0
6765,G4,348.75,0.25,95,135.0
6766,D4,348.75,0.25,95,135.0
6767,G3,348.75,0.25,95,135.0
6768,D3,348.75,0.25,95,135.0
6769,B2,348.75,0.25,95,135.0
6770,G2,348.75,0.25,95,135.0
6771,G1,349.0,0.5,95,135.0
6772,G4,349.0,0.5,95,135.0
6773,D4,349.0,0.5,95,135.0
6774,G3,349.0,0.5,95,135.0
6775,D3,349.0,0.5,95,135.0
6776,B2,349.0,0.5,95,135.0
6777,G2,349.0,0.5,95,135.0
6778,G#2,349.0,0.5,95,135.0
6779,C2,349.0,0.5,95,135.0
6780,G1,349.5,0.5,95,135.0
6781,G4,349.5,0.5,95,135.0
6782,D4,349.5,0.5,95,135.0
6783,G3,349.5,0.5,95,135.0
6784,D3,349.5,0.5,95,135.0
6785,B2,349.5,0.5,95,135.0
6786,G2,349.5,0.5,95,135.0
6787,G#2,349.5,0.5,95,135.0
6788,D2,349.5,0.5,95,135.0
6789,G1,350.0,0.5,95,135.0
6790,G#2,350.0,0.5,95,135.0
6791,G4,350.0,0.25,95,135.0
6792,D4,350.0,0.25,95,135.0
6793,G3,350.0,0.25,95,135.0
6794,D3,350.0,0.25,95,135.0
6795,B2,350.0,0.25,95,135.0
6796,G2,350.0,0.25,95,135.0
6797,G4,350.25,0.25,95,135.0
6798,D4,350.25,0.25,95,135.0
6799,G3,350.25,0.25,95,135.0
6800,D3,350.25,0.25,95,135.0
6801,B2,350.25,0.25,95,135.0
6802,G2,350.25,0.25,95,135.0
6803,G1,350.5,0.5,95,135.0
6804,G#2,350.5,0.5,95,135.0
6805,G4,350.5,0.5,95,135.0
6806,D4,350.5,0.5,95,135.0
6807,G3,350.5,0.5,95,135.0
6808,D3,350.5,0.5,95,135.0
6809,B2,350.5,0.5,95,135.0
6810,G2,350.5,0.5,95,135.0
6811,D2,351.0,0.5,95,135.0
6812,F#4,351.0,0.5,95,135.0
6813,D4,351.0,0.5,95,135.0
6814,A3,351.0,0.5,95,135.0
6815,D3,351.0,0.5,95,135.0
6816,D5,351.0,3.0,95,135.0
6817,A4,351.0,3.0,95,135.0
6818,G#2,351.0,0.5,95,135.0
6819,C2,351.0,0.5,95,135.0
6820,D2,351.5,0.5,95,135.0
6821,G#2,351.5,0.5,95,135.0
6822,F#4,351.5,0.25,95,135.0
6823,D4,351.5,0.25,95,135.0
6824,A3,351.5,0.25,95,135.0
6825,D3,351.5,0.25,95,135.0
6826,F#4,351.75,0.25,95,135.0
6827,D4,351.75,0.25,95,135.0
6828,A3,351.75,0.25,95,135.0
6829,D3,351.75,0.25,95,135.0
6830,D2,352.0,0.5,95,135.0
6831,F#4,352.0,0.5,95,135.0
6832,D4,352.0,0.5,95,135.0
6833,A3,352.0,0.5,95,135.0
6834,D3,352.0,0.5,95,135.0
6835,G#2,352.0,0.5,95,135.0
6836,C2,352.0,0.5,95,135.0
6837,D2,352.5,0.5,95,135.0
6838,F#4,352.5,0.5,95,135.0
6839,D4,352.5,0.5,95,135.0
6840,A3,352.5,0.5,95,135.0
6841,D3,352.5,0.5,95,135.0
6842,G#2,352.5,0.5,95,135.0
6843,D2,352.5,0.5,95,135.0
6844,D2,353.0,0.5,95,135.0
6845,G#2,353.0,0.5,95,135.0
6846,F#4,353.0,0.25,95,135.0
6847,D4,353.0,0.25,95,135.0
6848,A3,353.0,0.25,95,135.0
6849,D3,353.0,0.25,95,135.0
6850,F#4,353.25,0.25,95,135.0
6851,D4,353.25,0.25,95,135.0
6852,A3,353.25,0.25,95,135.0
6853,D3,353.25,0.25,95,135.0
6854,D2,353.5,0.5,95,135.0
6855,G#2,353.5,0.5,95,135.0
6856,F#4,353.5,0.5,95,135.0
6857,D4,353.5,0.5,95,135.0
6858,A3,353.5,0.5,95,135.0
6859,D3,353.5,0.5,95,135.0
6860,C2,354.0,0.5,95,135.0
6861,E4,354.0,0.5,95,135.0
6862,C4,354.0,0.5,95,135.0
6863,G3,354.0,0.5,95,135.0
6864,E3,354.0,0.5,95,135.0
6865,C3,354.0,0.5,95,135.0
6866,C5,354.0,3.0,95,135.0
6867,G4,354.0,3.0,95,135.0
6868,G#2,354.0,0.5,95,135.0
6869,C2,354.0,0.5,95,135.0
6870,C2,354.5,0.5,95,135.0
6871,G#2,354.5,0.5,95,135.0
6872,E4,354.5,0.25,95,135.0
6873,C4,354.5,0.25,95,135.0
6874,G3,354.5,0.25,95,135.0
6875,E3,354.5,0.25,95,135.0
6876,C3,354.5,0.25,95,135.0
6877,E4,354.75,0.25,95,135.0
6878,C4,354.75,0.25,95,135.0
6879,G3,354.75,0.25,95,135.0
6880,E3,354.75,0.25,95,135.0
6881,C3,354.75,0.25,95,135.0
6882,C2,355.0,0.5,95,135.0
6883,E4,355.0,0.5,95,135.0
6884,C4,355.0,0.5,95,135.0
6885,G3,355.0,0.5,95,135.0
6886,E3,355.0,0.5,95,135.0
6887,C3,355.0,0.5,95,135.0
6888,G#2,355.0,0.5,95,135.0
6889,C2,355.0,0.5,95,135.0
6890,C2,355.5,0.5,95,135.0
6891,E4,355.5,0.5,95,135.0
6892,C4,355.5,0.5,95,135.0
6893,G3,355.5,0.5,95,135.0
6894,E3,355.5,0.5,95,135.0
6895,C3,355.5,0.5,95,135.0
6896,G#2,355.5,0.5,95,135.0
6897,D2,355.5,0.5,95,135.0
6898,C2,356.0,0.5,95,135.0
6899,G#2,356.0,0.5,95,135.0
6900,E4,356.0,0.25,95,135.0
6901,C4,356.0,0.25,95,135.0
6902,G3,356.0,0.25,95,135.0
6903,E3,356.0,0.25,95,135.0
6904,C3,356.0,0.25,95,135.0
6905,E4,356.25,0.25,95,135.0
6906,C4,356.25,0.25,95,135.0
6907,G3,356.25,0.25,95,135.0
6908,E3,356.25,0.25,95,135.0
6909,C3,356.25,0.25,95,135.0
6910,C2,356.5,0.5,95,135.0
6911,G#2,356.5,0.5,95,135.0
6912,E4,356.5,0.5,95,135.0
6913,C4,356.5,0.5,95,135.0
6914,G3,356.5,0.5,95,135.0
6915,E3,356.5,0.5,95,135.0
6916,C3,356.5,0.5,95,135.0
6917,D2,357.0,0.5,95,135.0
6918,F#4,357.0,0.5,95,135.0
6919,D4,357.0,0.5,95,135.0
6920,A3,357.0,0.5,95,135.0
6921,D3,357.0,0.5,95,135.0
6922,D5,357.0,3.0,95,135.0
6923,A4,357.0,3.0,95,135.0
6924,G#2,357.0,0.5,95,135.0
6925,C2,357.0,0.5,95,135.0
6926,D2,357.5,0.5,95,135.0
6927,G#2,357.5,0.5,95,135.0
6928,F#4,357.5,0.25,95,135.0
6929,D4,357.5,0.25,95,135.0
6930,A3,357.5,0.25,95,135.0
6931,D3,357.5,0.25,95,135.0
6932,F#4,357.75,0.25,95,135.0
6933,D4,357.75,0.25,95,135.0
6934,A3,357.75,0.25,95,135.0
6935,D3,357.75,0.25,95,135.0
6936,D2,358.0,0.5,95,135.0
6937,F#4,358.0,0.5,95,135.0
6938,D4,358.0,0.5,95,135.0
6939,A3,358.0,0.5,95,135.0
6940,D3,358.0,0.5,95,135.0
6941,G#2,358.0,0.5,95,135.0
6942,C2,358.0,0.5,95,135.0
6943,D2,358.5,0.5,95,135.0
6944,F#4,358.5,0.5,95,135.0
6945,D4,358.5,0.5,95,135.0
6946,A3,358.5,0.5,95,135.0
6947,D3,358.5,0.5,95,135.0
6948,G#2,358.5,0.5,95,135.0
6949,D2,358.5,0.5,95,135.0
6950,D2,359.0,0.5,95,135.0
6951,G#2,359.0,0.5,95,135.0
6952,F#4,359.0,0.25,95,135.0
6953,D4,359.0,0.25,95,135.0
6954,A3,359.0,0.25,95,135.0
6955,D3,359.0,0.25,95,135.0
6956,F#4,359.25,0.25,95,135.0
6957,D4,359.25,0.25,95,135.0
6958,A3,359.25,0.25,95,135.0
6959,D3,359.25,0.25,95,135.0
6960,D2,359.5,0.5,95,135.0
6961,G#2,359.5,0.5,95,135.0
6962,F#4,359.5,0.5,95,135.0
6963,D4,359.5,0.5,95,135.0
6964,A3,359.5,0.5,95,135.0
6965,D3,359.5,0.5,95,135.0
6966,G1,360.0,0.5,95,135.0
6967,G4,360.0,0.5,95,135.0
6968,D4,360.0,0.5,95,135.0
6969,G3,360.0,0.5,95,135.0
6970,D3,360.0,0.5,95,135.0
6971,B2,360.0,0.5,95,135.0
6972,G2,360.0,0.5,95,135.0
6973,B4,360.0,3.0,95,135.0
6974,G4,360.0,3.0,95,135.0
6975,G#2,360.0,0.5,95,135.0
6976,C2,360.0,0.5,95,135.0
6977,G1,360.5,0.5,95,135.0
6978,G#2,360.5,0.5,95,135.0
6979,G4,360.5,0.25,95,135.0
6980,D4,360.5,0.25,95,135.0
6981,G3,360.5,0.25,95,135.0
6982,D3,360.5,0.25,95,135.0
6983,B2,360.5,0.25,95,135.0
6984,G2,360.5,0.25,95,135.0
6985,G4,360.75,0.25,95,135.0
6986,D4,360.75,0.25,95,135.0
6987,G3,360.75,0.25,95,135.0
6988,D3,360.75,0.25,95,135.0
6989,B2,360.75,0.25,95,135.0
6990,G2,360.75,0.25,95,135.0
6991,G1,361.0,0.5,95,135.0
6992,G4,361.0,0.5,95,135.0
6993,D4,361.0,0.5,95,135.0
6994,G3,361.0,0.5,95,135.0
6995,D3,361.0,0.5,95,135.0
6996,B2,361.0,0.5,95,135.0
6997,G2,361.0,0.5,95,135.0
6998,G#2,361.0,0.5,95,135.0
6999,C2,361.0,0.5,95,135.0
7000,G1,361.5,0.5,95,135.0
7001,G4,361.5,0.5,95,135.0
7002,D4,361.5,0.5,95,135.0
7003,G3,361.5,0.5,95,135.0
7004,D3,361.5,0.5,95,135.0
7005,B2,361.5,0.5,95,135.0
7006,G2,361.5,0.5,95,135.0
7007,G#2,361.5,0.5,95,135.0
7008,D2,361.5,0.5,95,135.0
7009,G1,362.0,0.5,95,135.0
7010,G#2,362.0,0.5,95,135.0
7011,G4,362.0,0.25,95,135.0
7012,D4,362.0,0.25,95,135.0
7013,G3,362.0,0.25,95,135.0
7014,D3,362.0,0.25,95,135.0
7015,B2,362.0,0.25,95,135.0
7016,G2,362.0,0.25,95,135.0
7017,G4,362.25,0.25,95,135.0
7018,D4,362.25,0.25,95,135.0
7019,G3,362.25,0.25,95,135.0
7020,D3,362.25,0.25,95,135.0
7021,B2,362.25,0.25,95,135.0
7022,G2,362.25,0.25,95,135.0
7023,G1,362.5,0.5,95,135.0
7024,G#2,362.5,0.5,95,135.0
7025,G4,362.5,0.5,95,135.0
7026,D4,362.5,0.5,95,135.0
7027,G3,362.5,0.5,95,135.0
7028,D3,362.5,0.5,95,135.0
7029,B2,362.5,0.5,95,135.0
7030,G2,362.5,0.5,95,135.0
7031,D2,363.0,0.5,95,135.0
7032,F#4,363.0,0.5,95,135.0
7033,D4,363.0,0.5,95,135.0
7034,A3,363.0,0.5,95,135.0
7035,D3,363.0,0.5,95,135.0
7036,D5,363.0,3.0,95,135.0
7037,A4,363.0,3.0,95,135.0
7038,G#2,363.0,0.5,95,135.0
7039,C2,363.0,0.5,95,135.0
7040,D2,363.5,0.5,95,135.0
7041,G#2,363.5,0.5,95,135.0
7042,F#4,363.5,0.25,95,135.0
7043,D4,363.5,0.25,95,135.0
7044,A3,363.5,0.25,95,135.0
7045,D3,363.5,0.25,95,135.0
7046,F#4,363.75,0.25,95,135.0
7047,D4,363.75,0.25,95,135.0
7048,A3,363.75,0.25,95,135.0
7049,D3,363.75,0.25,95,135.0
7050,D2,364.0,0.5,95,135.0
7051,F#4,364.0,0.5,95,135.0
7052,D4,364.0,0.5,95,135.0
7053,A3,364.0,0.5,95,135.0
7054,D3,364.0,0.5,95,135.0
7055,G#2,364.0,0.5,95,135.0
7056,C2,364.0,0.5,95,135.0
7057,D2,364.5,0.5,95,135.0
7058,F#4,364.5,0.5,95,135.0
7059,D4,364.5,0.5,95,135.0
7060,A3,364.5,0.5,95,135.0
7061,D3,364.5,0.5,95,135.0
7062,G#2,364.5,0.5,95,135.0
7063,D2,364.5,0.5,95,135.0
7064,D2,365.0,0.5,95,135.0
7065,G#2,365.0,0.5,95,135.0
7066,F#4,365.0,0.25,95,135.0
7067,D4,365.0,0.25,95,135.0
7068,A3,365.0,0.25,95,135.0
7069,D3,365.0,0.25,95,135.0
7070,F#4,365.25,0.25,95,135.0
7071,D4,365.25,0.25,95,135.0
7072,A3,365.25,0.25,95,135.0
7073,D3,365.25,0.25,95,135.0
7074,D2,365.5,0.5,95,135.0
7075,G#2,365.5,0.5,95,135.0
7076,F#4,365.5,0.5,95,135.0
7077,D4,365.5,0.5,95,135.0
7078,A3,365.5,0.5,95,135.0
7079,D3,365.5,0.5,95,135.0
7080,C2,366.0,0.5,95,135.0
7081,E4,366.0,0.5,95,135.0
7082,C4,366.0,0.5,95,135.0
7083,G3,366.0,0.5,95,135.0
7084,E3,366.0,0.5,95,135.0
7085,C3,366.0,0.5,95,135.0
7086,C5,366.0,3.0,95,135.0
7087,G4,366.0,3.0,95,135.0
7088,G#2,366.0,0.5,95,135.0
7089,C2,366.0,0.5,95,135.0
7090,C2,366.5,0.5,95,135.0
7091,G#2,366.5,0.5,95,135.0
7092,E4,366.5,0.25,95,135.0
7093,C4,366.5,0.25,95,135.0
7094,G3,366.5,0.25,95,135.0
7095,E3,366.5,0.25,95,135.0
7096,C3,366.5,0.25,95,135.0
7097,E4,366.75,0.25,95,135.0
7098,C4,366.75,0.25,95,135.0
7099,G3,366.75,0.25,95,135.0
7100,E3,366.75,0.25,95,135.0
7101,C3,366.75,0.25,95,135.0
7102,C2,367.0,0.5,95,135.0
7103,E4,367.0,0.5,95,135.0
7104,C4,367.0,0.5,95,135.0
7105,G3,367.0,0.5,95,135.0
7106,E3,367.0,0.5,95,135.0
7107,C3,367.0,0.5,95,135.0
7108,G#2,367.0,0.5,95,135.0
7109,C2,367.0,0.5,95,135.0
7110,C2,367.5,0.5,95,135.0
7111,E4,367.5,0.5,95,135.0
7112,C4,367.5,0.5,95,135.0
7113,G3,367.5,0.5,95,135.0
7114,E3,367.5,0.5,95,135.0
7115,C3,367.5,0.5,95,135.0
7116,G#2,367.5,0.5,95,135.0
7117,D2,367.5,0.5,95,135.0
7118,C2,368.0,0.5,95,135.0
7119,G#2,368.0,0.5,95,135.0
7120,E4,368.0,0.25,95,135.0
7121,C4,368.0,0.25,95,135.0
7122,G3,368.0,0.25,95,135.0
7123,E3,368.0,0.25,95,135.0
7124,C3,368.0,0.25,95,135.0
7125,E4,368.25,0.25,95,135.0
7126,C4,368.25,0.25,95,135.0
7127,G3,368.25,0.25,95,135.0
7128,E3,368.25,0.25,95,135.0
7129,C3,368.25,0.25,95,135.0
7130,C2,368.5,0.5,95,135.0
7131,G#2,368.5,0.5,95,135.0
7132,E4,368.5,0.5,95,135.0
7133,C4,368.5,0.5,95,135.0
7134,G3,368.5,0.5,95,135.0
7135,E3,368.5,0.5,95,135.0
7136,C3,368.5,0.5,95,135.0
7137,D2,369.0,0.5,95,135.0
7138,F#4,369.0,0.5,95,135.0
7139,D4,369.0,0.5,95,135.0
7140,A3,369.0,0.5,95,135.0
7141,D3,369.0,0.5,95,135.0
7142,D5,369.0,3.0,95,135.0
7143,A4,369.0,3.0,95,135.0
7144,G#2,369.0,0.5,95,135.0
7145,C2,369.0,0.5,95,135.0
7146,D2,369.5,0.5,95,135.0
7147,G#2,369.5,0.5,95,135.0
7148,F#4,369.5,0.25,95,135.0
7149,D4,369.5,0.25,95,135.0
7150,A3,369.5,0.25,95,135.0
7151,D3,369.5,0.25,95,135.0
7152,F#4,369.75,0.25,95,135.0
7153,D4,369.75,0.25,95,135.0
7154,A3,369.75,0.25,95,135.0
7155,D3,369.75,0.25,95,135.0
7156,D2,370.0,0.5,95,135.0
7157,F#4,370.0,0.5,95,135.0
7158,D4,370.0,0.5,95,135.0
7159,A3,370.0,0.5,95,135.0
7160,D3,370.0,0.5,95,135.0
7161,G#2,370.0,0.5,95,135.0
7162,C2,370.0,0.5,95,135.0
7163,D2,370.5,0.5,95,135.0
7164,F#4,370.5,0.5,95,135.0
7165,D4,370.5,0.5,95,135.0
7166,A3,370.5,0.5,95,135.0
7167,D3,370.5,0.5,95,135.0
7168,G#2,370.5,0.5,95,135.0
7169,D2,370.5,0.5,95,135.0
7170,D2,371.0,0.5,95,135.0
7171,G#2,371.0,0.5,95,135.0
7172,F#4,371.0,0.25,95,135.0
7173,D4,371.0,0.25,95,135.0
7174,A3,371.0,0.25,95,135.0
7175,D3,371.0,0.25,95,135.0
7176,F#4,371.25,0.25,95,135.0
7177,D4,371.25,0.25,95,135.0
7178,A3,371.25,0.25,95,135.0
7179,D3,371.25,0.25,95,135.0
7180,D2,371.5,0.5,95,135.0
7181,G#2,371.5,0.5,95,135.0
7182,F#4,371.5,0.5,95,135.0
7183,D4,371.5,0.5,95,135.0
7184,A3,371.5,0.5,95,135.0
7185,D3,371.5,0.5,95,135.0
7186,G1,372.0,0.5,95,135.0
7187,G4,372.0,0.5,95,135.0
7188,D4,372.0,0.5,95,135.0
7189,G3,372.0,0.5,95,135.0
7190,D3,372.0,0.5,95,135.0
7191,B2,372.0,0.5,95,135.0
7192,G2,372.0,0.5,95,135.0
7193,B4,372.0,3.0,95,135.0
7194,G4,372.0,3.0,95,135.0
7195,G#2,372.0,0.5,95,135.0
7196,C2,372.0,0.5,95,135.0
7197,G1,372.5,0.5,95,135.0
7198,G#2,372.5,0.5,95,135.0
7199,G4,372.5,0.25,95,135.0
7200,D4,372.5,0.25,95,135.0
7201,G3,372.5,0.25,95,135.0
7202,D3,372.5,0.25,95,135.0
7203,B2,372.5,0.25,95,135.0
7204,G2,372.5,0.25,95,135.0
7205,G4,372.75,0.25,95,135.0
7206,D4,372.75,0.25,95,135.0
7207,G3,372.75,0.25,95,135.0
7208,D3,372.75,0.25,95,135.0
7209,B2,372.75,0.25,95,135.0
7210,G2,372.75,0.25,95,135.0
7211,G1,373.0,0.5,95,135.0
7212,G4,373.0,0.5,95,135.0
7213,D4,373.0,0.5,95,135.0
7214,G3,373.0,0.5,95,135.0
7215,D3,373.0,0.5,95,135.0
7216,B2,373.0,0.5,95,135.0
7217,G2,373.0,0.5,95,135.0
7218,G#2,373.0,0.5,95,135.0
7219,C2,373.0,0.5,95,135.0
7220,G1,373.5,0.5,95,135.0
7221,G4,373.5,0.5,95,135.0
7222,D4,373.5,0.5,95,135.0
7223,G3,373.5,0.5,95,135.0
7224,D3,373.5,0.5,95,135.0
7225,B2,373.5,0.5,95,135.0
7226,G2,373.5,0.5,95,135.0
7227,G#2,373.5,0.5,95,135.0
7228,D2,373.5,0.5,95,135.0
7229,G1,374.0,0.5,95,135.0
7230,G#2,374.0,0.5,95,135.0
7231,G4,374.0,0.25,95,135.0
7232,D4,374.0,0.25,95,135.0
7233,G3,374.0,0.25,95,135.0
7234,D3,374.0,0.25,95,135.0
7235,B2,374.0,0.25,95,135.0
7236,G2,374.0,0.25,95,135.0
7237,G4,374.25,0.25,95,135.0
7238,D4,374.25,0.25,95,135.0
7239,G3,374.25,0.25,95,135.0
7240,D3,374.25,0.25,95,135.0
7241,B2,374.25,0.25,95,135.0
7242,G2,374.25,0.25,95,135.0
7243,G1,374.5,0.5,95,135.0
7244,G#2,374.5,0.5,95,135.0
7245,G4,374.5,0.5,95,135.0
7246,D4,374.5,0.5,95,135.0
7247,G3,374.5,0.5,95,135.0
7248,D3,374.5,0.5,95,135.0
7249,B2,374.5,0.5,95,135.0
7250,G2,374.5,0.5,95,135.0
7251,D2,375.0,0.5,95,135.0
7252,F#4,375.0,0.5,95,135.0
7253,D4,375.0,0.5,95,135.0
7254,A3,375.0,0.5,95,135.0
7255,D3,375.0,0.5,95,135.0
7256,D5,375.0,3.0,95,135.0
7257,A4,375.0,3.0,95,135.0
7258,G#2,375.0,0.5,95,135.0
7259,C2,375.0,0.5,95,135.0
7260,D2,375.5,0.5,95,135.0
7261,G#2,375.5,0.5,95,135.0
7262,F#4,375.5,0.25,95,135.0
7263,D4,375.5,0.25,95,135.0
7264,A3,375.5,0.25,95,135.0
7265,D3,375.5,0.25,95,135.0
7266,F#4,375.75,0.25,95,135.0
7267,D4,375.75,0.25,95,135.0
7268,A3,375.75,0.25,95,135.0
7269,D3,375.75,0.25,95,135.0
7270,D2,376.0,0.5,95,135.0
7271,F#4,376.0,0.5,95,135.0
7272,D4,376.0,0.5,95,135.0
7273,A3,376.0,0.5,95,135.0
7274,D3,376.0,0.5,95,135.0
7275,G#2,376.0,0.5,95,135.0
7276,C2,376.0,0.5,95,135.0
7277,D2,376.5,0.5,95,135.0
7278,F#4,376.5,0.5,95,135.0
7279,D4,376.5,0.5,95,135.0
7280,A3,376.5,0.5,95,135.0
7281,D3,376.5,0.5,95,135.0
7282,G#2,376.5,0.5,95,135.0
7283,D2,376.5,0.5,95,135.0
7284,D2,377.0,0.5,95,135.0
7285,G#2,377.0,0.5,95,135.0
7286,F#4,377.0,0.25,95,135.0
7287,D4,377.0,0.25,95,135.0
7288,A3,377.0,0.25,95,135.0
7289,D3,377.0,0.25,95,135.0
7290,F#4,377.25,0.25,95,135.0
7291,D4,377.25,0.25,95,135.0
7292,A3,377.25,0.25,95,135.0
7293,D3,377.25,0.25,95,135.0
7294,D2,377.5,0.5,95,135.0
7295,G#2,377.5,0.5,95,135.0
7296,F#4,377.5,0.5,95,135.0
7297,D4,377.5,0.5,95,135.0
7298,A3,377.5,0.5,95,135.0
7299,D3,377.5,0.5,95,135.0
7300,C2,378.0,0.5,95,135.0
7301,E4,378.0,0.5,95,135.0
7302,C4,378.0,0.5,95,135.0
7303,G3,378.0,0.5,95,135.0
7304,E3,378.0,0.5,95,135.0
7305,C3,378.0,0.5,95,135.0
7306,C5,378.0,1.0,95,135.0
7307,G4,378.0,1.0,95,135.0
7308,G#2,378.0,0.5,95,135.0
7309,C2,378.0,0.5,95,135.0
7310,C2,378.5,0.5,95,135.0
7311,G#2,378.5,0.5,95,135.0
7312,E4,378.5,0.25,95,135.0
7313,C4,378.5,0.25,95,135.0
7314,G3,378.5,0.25,95,135.0
7315,E3,378.5,0.25,95,135.0
7316,C3,378.5,0.25,95,135.0
7317,E4,378.75,0.25,95,135.0
7318,C4,378.75,0.25,95,135.0
7319,G3,378.75,0.25,95,135.0
7320,E3,378.75,0.25,95,135.0
7321,C3,378.75,0.25,95,135.0
7322,C2,379.0,0.5,95,135.0
7323,E4,379.0,0.5,95,135.0
7324,C4,379.0,0.5,95,135.0
7325,G3,379.0,0.5,95,135.0
7326,E3,379.0,0.5,95,135.0
7327,C3,379.0,0.5,95,135.0
7328,G#2,379.0,0.5,95,135.0
7329,C2,379.0,0.5,95,135.0
7330,B4,379.5,0.25,95,135.0
7331,C2,379.5,0.5,95,135.0
7332,E4,379.5,0.5,95,135.0
7333,C4,379.5,0.5,95,135.0
7334,G3,379.5,0.5,95,135.0
7335,E3,379.5,0.5,95,135.0
7336,C3,379.5,0.5,95,135.0
7337,G#2,379.5,0.5,95,135.0
7338,D2,379.5,0.5,95,135.0
7339,C5,379.75,0.25,95,135.0
7340,B4,380.0,0.25,95,135.0
7341,C2,380.0,0.5,95,135.0
7342,G#2,380.0,0.5,95,135.0
7343,E4,380.0,0.25,95,135.0
7344,C4,380.0,0.25,95,135.0
7345,G3,380.0,0.25,95,135.0
7346,E3,380.0,0.25,95,135.0
7347,C3,380.0,0.25,95,135.0
7348,A4,380.25,0.25,95,135.0
7349,E4,380.25,0.25,95,135.0
7350,C4,380.25,0.25,95,135.0
7351,G3,380.25,0.25,95,135.0
7352,E3,380.25,0.25,95,135.0
7353,C3,380.25,0.25,95,135.0
7354,G4,380.5,0.25,95,135.0
7355,C2,380.5,0.5,95,135.0
7356,G#2,380.5,0.5,95,135.0
7357,E4,380.5,0.5,95,135.0
7358,C4,380.5,0.5,95,135.0
7359,G3,380.5,0.5,95,135.0
7360,E3,380.5,0.5,95,135.0
7361,C3,380.5,0.5,95,135.0
7362,F#4,380.75,0.25,95,135.0
7363,F#4,381.0,0.5,95,135.0
7364,F#2,381.0,0.5,95,135.0
7365,F#4,381.0,0.5,95,135.0
7366,E-4,381.0,0.5,95,135.0
7367,B3,381.0,0.5,95,135.0
7368,F#3,381.0,0.5,95,135.0
7369,B2,381.0,0.5,95,135.0
7370,G#2,381.0,0.5,95,135.0
7371,C2,381.0,0.5,95,135.0
7372,E-4,381.5,0.5,95,135.0
7373,E-2,381.5,0.5,95,135.0
7374,G#2,381.5,0.5,95,135.0
7375,F#4,381.5,0.5,95,135.0
7376,E-4,381.5,0.5,95,135.0
7377,B3,381.5,0.5,95,135.0
7378,F#3,381.5,0.5,95,135.0
7379,B2,381.5,0.5,95,135.0
7380,B3,382.0,0.5,95,135.0
7381,B1,382.0,0.5,95,135.0
7382,F#4,382.0,0.5,95,135.0
7383,E-4,382.0,0.5,95,135.0
7384,B3,382.0,0.5,95,135.0
7385,F#3,382.0,0.5,95,135.0
7386,B2,382.0,0.5,95,135.0
7387,G#2,382.0,0.5,95,135.0
7388,C2,382.0,0.5,95,135.0
7389,F#4,382.5,0.5,95,135.0
7390,F#2,382.5,0.5,95,135.0
7391,F#4,382.5,0.5,95,135.0
7392,E-4,382.5,0.5,95,135.0
7393,B3,382.5,0.5,95,135.0
7394,F#3,382.5,0.5,95,135.0
7395,B2,382.5,0.5,95,135.0
7396,G#2,382.5,0.5,95,135.0
7397,D2,382.5,0.5,95,135.0
7398,E-4,383.0,0.5,95,135.0
7399,E-2,383.0,0.5,95,135.0
7400,G#2,383.0,0.5,95,135.0
7401,F#4,383.0,0.5,95,135.0
7402,E-4,383.0,0.5,95,135.0
7403,B3,383.0,0.5,95,135.0
7404,F#3,383.0,0.5,95,135.0
7405,B2,383.0,0.5,95,135.0
7406,B3,383.5,0.5,95,135.0
7407,B1,383.5,0.5,95,135.0
7408,G#2,383.5,0.5,95,135.0
7409,F#4,383.5,0.5,95,135.0
7410,E-4,383.5,0.5,95,135.0
7411,B3,383.5,0.5,95,135.0
7412,F#3,383.5,0.5,95,135.0
7413,B2,383.5,0.5,95,135.0
7414,E3,384.0,0.5,95,135.0
7415,E2,384.0,0.5,95,135.0
7416,G#2,384.0,0.5,95,135.0
7417,C2,384.0,0.5,95,135.0
7418,E3,384.5,0.5,95,135.0
7419,E2,384.5,0.5,95,135.0
7420,G#2,384.5,0.5,95,135.0
7421,E3,385.0,0.5,95,135.0
7422,E2,385.0,0.5,95,135.0
7423,G#2,385.0,0.5,95,135.0
7424,C2,385.0,0.5,95,135.0
7425,E3,385.5,0.5,95,135.0
7426,E2,385.5,0.5,95,135.0
7427,G#2,385.5,0.5,95,135.0
7428,D2,385.5,0.5,95,135.0
7429,D3,386.0,0.5,95,135.0
7430,E2,386.0,0.5,95,135.0
7431,G#2,386.0,0.5,95,135.0
7432,E3,386.5,0.5,95,135.0
7433,E2,386.5,0.5,95,135.0
7434,G#2,386.5,0.5,95,135.0
7435,G3,387.0,0.5,95,135.0
7436,C2,387.0,0.5,95,135.0
7437,G#2,387.0,0.5,95,135.0
7438,C2,387.0,0.5,95,135.0
7439,G3,387.5,0.5,95,135.0
7440,C2,387.5,0.5,95,135.0
7441,G#2,387.5,0.5,95,135.0
7442,G3,388.0,0.5,95,135.0
7443,C2,388.0,0.5,95,135.0
7444,G#2,388.0,0.5,95,135.0
7445,C2,388.0,0.5,95,135.0
7446,G3,388.5,0.5,95,135.0
7447,C2,388.5,0.5,95,135.0
7448,G#2,388.5,0.5,95,135.0
7449,D2,388.5,0.5,95,135.0
7450,F#3,389.0,0.5,95,135.0
7451,C2,389.0,0.5,95,135.0
7452,G#2,389.0,0.5,95,135.0
7453,G3,389.5,0.5,95,135.0
7454,C2,389.5,0.5,95,135.0
7455,G#2,389.5,0.5,95,135.0
7456,A3,390.0,0.5,95,135.0
7457,A1,390.0,0.5,95,135.0
7458,G#2,390.0,0.5,95,135.0
7459,C2,390.0,0.5,95,135.0
7460,A3,390.5,0.5,95,135.0
7461,A1,390.5,0.5,95,135.0
7462,G#2,390.5,0.5,95,135.0
7463,A3,391.0,0.5,95,135.0
7464,A1,391.0,0.5,95,135.0
7465,G#2,391.0,0.5,95,135.0
7466,C2,391.0,0.5,95,135.0
7467,G3,391.5,0.5,95,135.0
7468,A1,391.5,0.5,95,135.0
7469,G#2,391.5,0.5,95,135.0
7470,D2,391.5,0.5,95,135.0
7471,G3,392.0,0.5,95,135.0
7472,A1,392.0,0.5,95,135.0
7473,G#2,392.0,0.5,95,135.0
7474,G3,392.5,0.5,95,135.0
7475,A1,392.5,0.5,95,135.0
7476,G#2,392.5,0.5,95,135.0
7477,F#3,393.0,0.5,95,135.0
7478,D2,393.0,0.5,95,135.0
7479,G#2,393.0,0.5,95,135.0
7480,C2,393.0,0.5,95,135.0
7481,G3,393.5,0.5,95,135.0
7482,D2,393.5,0.5,95,135.0
7483,G#2,393.5,0.5,95,135.0
7484,F#3,394.0,0.5,95,135.0
7485,D2,394.0,0.5,95,135.0
7486,G#2,394.0,0.5,95,135.0
7487,C2,394.0,0.5,95,135.0
7488,E3,394.5,0.5,95,135.0
7489,F#2,394.5,0.5,95,135.0
7490,G#2,394.5,0.5,95,135.0
7491,D2,394.5,0.5,95,135.0
7492,D3,395.0,0.5,95,135.0
7493,G2,395.0,0.5,95,135.0
7494,G#2,395.0,0.5,95,135.0
7495,B2,395.5,0.5,95,135.0
7496,A2,395.5,0.5,95,135.0
7497,G#2,395.5,0.5,95,135.0
7498,E3,396.0,0.5,95,135.0
7499,E2,396.0,0.5,95,135.0
7500,G#2,396.0,0.5,95,135.0
7501,C2,396.0,0.5,95,135.0
7502,E3,396.5,0.5,95,135.0
7503,E2,396.5,0.5,95,135.0
7504,G#2,396.5,0.5,95,135.0
7505,E3,397.0,0.5,95,135.0
7506,E2,397.0,0.5,95,135.0
7507,G#2,397.0,0.5,95,135.0
7508,C2,397.0,0.5,95,135.0
7509,E3,397.5,0.5,95,135.0
7510,E2,397.5,0.5,95,135.0
7511,G#2,397.5,0.5,95,135.0
7512,D2,397.5,0.5,95,135.0
7513,D3,398.0,0.5,95,135.0
7514,E2,398.0,0.5,95,135.0
7515,G#2,398.0,0.5,95,135.0
7516,E3,398.5,0.5,95,135.0
7517,E2,398.5,0.5,95,135.0
7518,G#2,398.5,0.5,95,135.0
7519,G3,399.0,0.5,95,135.0
7520,C2,399.0,0.5,95,135.0
7521,G#2,399.0,0.5,95,135.0
7522,C2,399.0,0.5,95,135.0
7523,G3,399.5,0.5,95,135.0
7524,C2,399.5,0.5,95,135.0
7525,G#2,399.5,0.5,95,135.0
7526,G3,400.0,0.5,95,135.0
7527,C2,400.0,0.5,95,135.0
7528,G#2,400.0,0.5,95,135.0
7529,C2,400.0,0.5,95,135.0
7530,G3,400.5,0.5,95,135.0
7531,C2,400.5,0.5,95,135.0
7532,G#2,400.5,0.5,95,135.0
7533,D2,400.5,0.5,95,135.0
7534,F#3,401.0,0.5,95,135.0
7535,C2,401.0,0.5,95,135.0
7536,G#2,401.0,0.5,95,135.0
7537,G3,401.5,0.5,95,135.0
7538,C2,401.5,0.5,95,135.0
7539,G#2,401.5,0.5,95,135.0
7540,A3,402.0,0.5,95,135.0
7541,A1,402.0,0.5,95,135.0
7542,G#2,402.0,0.5,95,135.0
7543,C2,402.0,0.5,95,135.0
7544,A3,402.5,0.5,95,135.0
7545,A1,402.5,0.5,95,135.0
7546,G#2,402.5,0.5,95,135.0
7547,A3,403.0,0.5,95,135.0
7548,A1,403.0,0.5,95,135.0
7549,G#2,403.0,0.5,95,135.0
7550,C2,403.0,0.5,95,135.0
7551,G3,403.5,0.5,95,135.0
7552,A1,403.5,0.5,95,135.0
7553,G#2,403.5,0.5,95,135.0
7554,D2,403.5,0.5,95,135.0
7555,G3,404.0,0.5,95,135.0
7556,A1,404.0,0.5,95,135.0
7557,G#2,404.0,0.5,95,135.0
7558,G3,404.5,0.5,95,135.0
7559,A1,404.5,0.5,95,135.0
7560,G#2,404.5,0.5,95,135.0
7561,F#3,405.0,0.5,95,135.0
7562,D2,405.0,0.5,95,135.0
7563,G#2,405.0,0.5,95,135.0
7564,C2,405.0,0.5,95,135.0
7565,G3,405.5,0.5,95,135.0
7566,D2,405.5,0.5,95,135.0
7567,G#2,405.5,0.5,95,135.0
7568,F#3,406.0,0.5,95,135.0
7569,D2,406.0,0.5,95,135.0
7570,G#2,406.0,0.5,95,135.0
7571,C2,406.0,0.5,95,135.0
7572,E3,406.5,0.5,95,135.0
7573,F#2,406.5,0.5,95,135.0
7574,G#2,406.5,0.5,95,135.0
7575,D2,406.5,0.5,95,135.0
7576,D3,407.0,0.5,95,135.0
7577,G2,407.0,0.5,95,135.0
7578,G#2,407.0,0.5,95,135.0
7579,B2,407.5,0.5,95,135.0
7580,A2,407.5,0.5,95,135.0
7581,G#2,407.5,0.5,95,135.0
7582,E3,408.0,0.5,95,135.0
7583,G5,408.0,0.25,95,135.0
7584,E2,408.0,0.5,95,135.0
7585,G#2,408.0,0.5,95,135.0
7586,C2,408.0,0.5,95,135.0
7587,E5,408.25,0.25,95,135.0
7588,E3,408.5,0.5,95,135.0
7589,D5,408.5,0.25,95,135.0
7590,E2,408.5,0.5,95,135.0
7591,G#2,408.5,0.5,95,135.0
7592,E5,408.75,0.25,95,135.0
7593,E3,409.0,0.5,95,135.0
7594,D5,409.0,0.25,95,135.0
7595,E2,409.0,0.5,95,135.0
7596,G#2,409.0,0.5,95,135.0
7597,C2,409.0,0.5,95,135.0
7598,B4,409.25,0.25,95,135.0
7599,E3,409.5,0.5,95,135.0
7600,E4,409.5,0.25,95,135.0
7601,E2,409.5,0.5,95,135.0
7602,G#2,409.5,0.5,95,135.0
7603,D2,409.5,0.5,95,135.0
7604,G4,409.75,0.25,95,135.0
7605,D3,410.0,0.5,95,135.0
7606,A4,410.0,0.25,95,135.0
7607,E2,410.0,0.5,95,135.0
7608,G#2,410.0,0.5,95,135.0
7609,G4,410.25,0.25,95,135.0
7610,E3,410.5,0.5,95,135.0
7611,A4,410.5,0.25,95,135.0
7612,E2,410.5,0.5,95,135.0
7613,G#2,410.5,0.5,95,135.0
7614,G4,410.75,0.25,95,135.0
7615,G3,411.0,0.5,95,135.0
7616,E4,411.0,1.0,95,135.0
7617,C2,411.0,0.5,95,135.0
7618,G#2,411.0,0.5,95,135.0
7619,C2,411.0,0.5,95,135.0
7620,G3,411.5,0.5,95,135.0
7621,C2,411.5,0.5,95,135.0
7622,G#2,411.5,0.5,95,135.0
7623,G3,412.0,0.5,95,135.0
7624,D4,412.0,0.5,95,135.0
7625,C2,412.0,0.5,95,135.0
7626,G#2,412.0,0.5,95,135.0
7627,C2,412.0,0.5,95,135.0
7628,G3,412.5,0.5,95,135.0
7629,B3,412.5,0.5,95,135.0
7630,C2,412.5,0.5,95,135.0
7631,G#2,412.5,0.5,95,135.0
7632,D2,412.5,0.5,95,135.0
7633,F#3,413.0,0.5,95,135.0
7634,G4,413.0,1.0,95,135.0
7635,C2,413.0,0.5,95,135.0
7636,G#2,413.0,0.5,95,135.0
7637,G3,413.5,0.5,95,135.0
7638,C2,413.5,0.5,95,135.0
7639,G#2,413.5,0.5,95,135.0
7640,A3,414.0,0.5,95,135.0
7641,B4,414.0,1.0,95,135.0
7642,A1,414.0,0.5,95,135.0
7643,G#2,414.0,0.5,95,135.0
7644,C2,414.0,0.5,95,135.0
7645,A3,414.5,0.5,95,135.0
7646,A1,414.5,0.5,95,135.0
7647,G#2,414.5,0.5,95,135.0
7648,A3,415.0,0.5,95,135.0
7649,D5,415.0,0.5,95,135.0
7650,A1,415.0,0.5,95,135.0
7651,G#2,415.0,0.5,95,135.0
7652,C2,415.0,0.5,95,135.0
7653,G3,415.5,0.5,95,135.0
7654,A4,415.5,1.0,47,135.0
7655,A1,415.5,0.5,95,135.0
7656,G#2,415.5,0.5,95,135.0
7657,D2,415.5,0.5,95,135.0
7658,G3,416.0,0.5,95,135.0
7659,A1,416.0,0.5,95,135.0
7660,G#2,416.0,0.5,95,135.0
7661,G3,416.5,0.5,95,135.0
7662,A4,416.5,0.5,47,135.0
7663,A1,416.5,0.5,95,135.0
7664,G#2,416.5,0.5,95,135.0
7665,F#3,417.0,0.5,95,135.0
7666,D2,417.0,0.5,95,135.0
7667,G#2,417.0,0.5,95,135.0
7668,C2,417.0,0.5,95,135.0
7669,G3,417.5,0.5,95,135.0
7670,D4,417.5,0.25,95,135.0
7671,D2,417.5,0.5,95,135.0
7672,G#2,417.5,0.5,95,135.0
7673,E4,417.75,0.25,95,135.0
7674,F#3,418.0,0.5,95,135.0
7675,G4,418.0,0.25,95,135.0
7676,D2,418.0,0.5,95,135.0
7677,G#2,418.0,0.5,95,135.0
7678,C2,418.0,0.5,95,135.0
7679,A4,418.25,0.25,95,135.0
7680,E3,418.5,0.5,95,135.0
7681,B4,418.5,0.25,95,135.0
7682,F#2,418.5,0.5,95,135.0
7683,G#2,418.5,0.5,95,135.0
7684,D2,418.5,0.5,95,135.0
7685,D5,418.75,0.25,95,135.0
7686,D3,419.0,0.5,95,135.0
7687,E5,419.0,0.25,95,135.0
7688,G2,419.0,0.5,95,135.0
7689,G#2,419.0,0.5,95,135.0
7690,G5,419.25,0.25,95,135.0
7691,B2,419.5,0.5,95,135.0
7692,F#5,419.5,0.25,95,135.0
7693,A2,419.5,0.5,95,135.0
7694,G#2,419.5,0.5,95,135.0
7695,E3,420.0,0.5,95,135.0
7696,E5,420.0,1.0,95,135.0
7697,E2,420.0,0.5,95,135.0
7698,G#2,420.0,0.5,95,135.0
7699,C2,420.0,0.5,95,135.0
7700,E3,420.5,0.5,95,135.0
7701,E2,420.5,0.5,95,135.0
7702,G#2,420.5,0.5,95,135.0
7703,E3,421.0,0.5,95,135.0
7704,E2,421.0,0.5,95,135.0
7705,G#2,421.0,0.5,95,135.0
7706,C2,421.0,0.5,95,135.0
7707,E3,421.5,0.5,95,135.0
7708,A5,421.5,1.0,95,135.0
7709,E2,421.5,0.5,95,135.0
7710,G#2,421.5,0.5,95,135.0
7711,D2,421.5,0.5,95,135.0
7712,D3,422.0,0.5,95,135.0
7713,E2,422.0,0.5,95,135.0
7714,G#2,422.0,0.5,95,135.0
7715,E3,422.5,0.5,95,135.0
7716,G5,422.5,0.5,95,135.0
7717,E2,422.5,0.5,95,135.0
7718,G#2,422.5,0.5,95,135.0
7719,G3,423.0,0.5,95,135.0
7720,E5,423.0,1.0,95,135.0
7721,C2,423.0,0.5,95,135.0
7722,G#2,423.0,0.5,95,135.0
7723,C2,423.0,0.5,95,135.0
7724,G3,423.5,0.5,95,135.0
7725,C2,423.5,0.5,95,135.0
7726,G#2,423.5,0.5,95,135.0
7727,G3,424.0,0.5,95,135.0
7728,C2,424.0,0.5,95,135.0
7729,G#2,424.0,0.5,95,135.0
7730,C2,424.0,0.5,95,135.0
7731,G3,424.5,0.5,95,135.0
7732,C2,424.5,0.5,95,135.0
7733,G#2,424.5,0.5,95,135.0
7734,D2,424.5,0.5,95,135.0
7735,F#3,425.0,0.5,95,135.0
7736,C2,425.0,0.5,95,135.0
7737,G#2,425.0,0.5,95,135.0
7738,G3,425.5,0.5,95,135.0
7739,E4,425.5,0.5,95,135.0
7740,C2,425.5,0.5,95,135.0
7741,G#2,425.5,0.5,95,135.0
7742,A3,426.0,0.5,95,135.0
7743,G4,426.0,3.0,95,135.0
7744,A1,426.0,0.5,95,135.0
7745,G#2,426.0,0.5,95,135.0
7746,C2,426.0,0.5,95,135.0
7747,A3,426.5,0.5,95,135.0
7748,A1,426.5,0.5,95,135.0
7749,G#2,426.5,0.5,95,135.0
7750,A3,427.0,0.5,95,135.0
7751,A1,427.0,0.5,95,135.0
7752,G#2,427.0,0.5,95,135.0
7753,C2,427.0,0.5,95,135.0
7754,G3,427.5,0.5,95,135.0
7755,A1,427.5,0.5,95,135.0
7756,G#2,427.5,0.5,95,135.0
7757,D2,427.5,0.5,95,135.0
7758,G3,428.0,0.5,95,135.0
7759,A1,428.0,0.5,95,135.0
7760,G#2,428.0,0.5,95,135.0
7761,G3,428.5,0.5,95,135.0
7762,A1,428.5,0.5,95,135.0
7763,G#2,428.5,0.5,95,135.0
7764,F#3,429.0,0.5,95,135.0
7765,D2,429.0,0.5,95,135.0
7766,G#2,429.0,0.5,95,135.0
7767,C2,429.0,0.5,95,135.0
7768,G3,429.5,0.5,95,135.0
7769,G5,429.5,0.5,95,135.0
7770,D2,429.5,0.5,95,135.0
7771,G#2,429.5,0.5,95,135.0
7772,F#3,430.0,0.5,95,135.0
7773,F#5,430.0,0.5,95,135.0
7774,D2,430.0,0.5,95,135.0
7775,G#2,430.0,0.5,95,135.0
7776,C2,430.0,0.5,95,135.0
7777,E3,430.5,0.5,95,135.0
7778,E5,430.5,0.5,95,135.0
7779,F#2,430.5,0.5,95,135.0
7780,G#2,430.5,0.5,95,135.0
7781,D2,430.5,0.5,95,135.0
7782,D3,431.0,0.5,95,135.0
7783,D5,431.0,0.5,95,135.0
7784,G2,431.0,0.5,95,135.0
7785,G#2,431.0,0.5,95,135.0
7786,B2,431.5,0.5,95,135.0
7787,B4,431.5,0.5,95,135.0
7788,A2,431.5,0.5,95,135.0
7789,G#2,431.5,0.5,95,135.0
7790,E3,432.0,0.5,95,135.0
7791,E4,432.0,0.5,95,135.0
7792,E2,432.0,0.5,95,135.0
7793,G#2,432.0,0.5,95,135.0
7794,C2,432.0,0.5,95,135.0
7795,E3,432.5,0.5,95,135.0
7796,G4,432.5,0.25,95,135.0
7797,E2,432.5,0.5,95,135.0
7798,G#2,432.5,0.5,95,135.0
7799,A4,432.75,0.25,95,135.0
7800,E3,433.0,0.5,95,135.0
7801,B4,433.0,0.5,95,135.0
7802,E2,433.0,0.5,95,135.0
7803,G#2,433.0,0.5,95,135.0
7804,C2,433.0,0.5,95,135.0
7805,E3,433.5,0.5,95,135.0
7806,E4,433.5,0.5,95,135.0
7807,E2,433.5,0.5,95,135.0
7808,G#2,433.5,0.5,95,135.0
7809,D2,433.5,0.5,95,135.0
7810,D3,434.0,0.5,95,135.0
7811,E5,434.0,0.5,95,135.0
7812,E2,434.0,0.5,95,135.0
7813,G#2,434.0,0.5,95,135.0
7814,E3,434.5,0.5,95,135.0
7815,D5,434.5,0.5,95,135.0
7816,E2,434.5,0.5,95,135.0
7817,G#2,434.5,0.5,95,135.0
7818,G3,435.0,0.5,95,135.0
7819,B4,435.0,0.5,95,135.0
7820,C2,435.0,0.5,95,135.0
7821,G#2,435.0,0.5,95,135.0
7822,C2,435.0,0.5,95,135.0
7823,G3,435.5,0.5,95,135.0
7824,D5,435.5,0.25,95,135.0
7825,C2,435.5,0.5,95,135.0
7826,G#2,435.5,0.5,95,135.0
7827,C#5,435.75,0.25,95,135.0
7828,G3,436.0,0.5,95,135.0
7829,B4,436.0,0.5,95,135.0
7830,C2,436.0,0.5,95,135.0
7831,G#2,436.0,0.5,95,135.0
7832,C2,436.0,0.5,95,135.0
7833,G3,436.5,0.5,95,135.0
7834,B4,436.5,0.5,95,135.0
7835,C2,436.5,0.5,95,135.0
7836,G#2,436.5,0.5,95,135.0
7837,D2,436.5,0.5,95,135.0
7838,F#3,437.0,0.5,95,135.0
7839,A4,437.0,0.5,95,135.0
7840,C2,437.0,0.5,95,135.0
7841,G#2,437.0,0.5,95,135.0
7842,G3,437.5,0.5,95,135.0
7843,E4,437.5,0.5,95,135.0
7844,C2,437.5,0.5,95,135.0
7845,G#2,437.5,0.5,95,135.0
7846,A3,438.0,0.5,95,135.0
7847,A1,438.0,0.5,95,135.0
7848,G#2,438.0,0.5,95,135.0
7849,C2,438.0,0.5,95,135.0
7850,A3,438.5,0.5,95,135.0
7851,G5,438.5,0.25,95,135.0
7852,A1,438.5,0.5,95,135.0
7853,G#2,438.5,0.5,95,135.0
7854,G5,438.75,0.25,95,135.0
7855,A3,439.0,0.5,95,135.0
7856,G5,439.0,2.0,95,135.0
7857,A1,439.0,0.5,95,135.0
7858,G#2,439.0,0.5,95,135.0
7859,C2,439.0,0.5,95,135.0
7860,G3,439.5,0.5,95,135.0
7861,A1,439.5,0.5,95,135.0
7862,G#2,439.5,0.5,95,135.0
7863,D2,439.5,0.5,95,135.0
7864,G3,440.0,0.5,95,135.0
7865,A1,440.0,0.5,95,135.0
7866,G#2,440.0,0.5,95,135.0
7867,G3,440.5,0.5,95,135.0
7868,A1,440.5,0.5,95,135.0
7869,G#2,440.5,0.5,95,135.0
7870,F#3,441.0,0.5,95,135.0
7871,F#5,441.0,1.0,95,135.0
7872,D2,441.0,0.5,95,135.0
7873,G#2,441.0,0.5,95,135.0
7874,C2,441.0,0.5,95,135.0
7875,G3,441.5,0.5,95,135.0
7876,D2,441.5,0.5,95,135.0
7877,G#2,441.5,0.5,95,135.0
7878,F#3,442.0,0.5,95,135.0
7879,E5,442.0,0.5,95,135.0
7880,D2,442.0,0.5,95,135.0
7881,G#2,442.0,0.5,95,135.0
7882,C2,442.0,0.5,95,135.0
7883,E3,442.5,0.5,95,135.0
7884,D5,442.5,0.5,95,135.0
7885,F#2,442.5,0.5,95,135.0
7886,G#2,442.5,0.5,95,135.0
7887,D2,442.5,0.5,95,135.0
7888,D3,443.0,0.5,95,135.0
7889,B4,443.0,0.5,95,135.0
7890,G2,443.0,0.5,95,135.0
7891,G#2,443.0,0.5,95,135.0
7892,B2,443.5,0.5,95,135.0
7893,A4,443.5,0.5,95,135.0
7894,A2,443.5,0.5,95,135.0
7895,G#2,443.5,0.5,95,135.0
7896,E3,444.0,0.5,95,135.0
7897,E2,444.0,0.5,95,135.0
7898,G#2,444.0,0.5,95,135.0
7899,C2,444.0,0.5,95,135.0
7900,E3,444.5,0.5,95,135.0
7901,D4,444.5,0.25,95,135.0
7902,E2,444.5,0.5,95,135.0
7903,G#2,444.5,0.5,95,135.0
7904,E4,444.75,0.25,95,135.0
7905,E3,445.0,0.5,95,135.0
7906,G4,445.0,0.25,95,135.0
7907,E2,445.0,0.5,95,135.0
7908,G#2,445.0,0.5,95,135.0
7909,C2,445.0,0.5,95,135.0
7910,A4,445.25,0.25,95,135.0
7911,E3,445.5,0.5,95,135.0
7912,B4,445.5,0.25,95,135.0
7913,E2,445.5,0.5,95,135.0
7914,G#2,445.5,0.5,95,135.0
7915,D2,445.5,0.5,95,135.0
7916,D5,445.75,0.25,95,135.0
7917,D3,446.0,0.5,95,135.0
7918,E5,446.0,0.25,95,135.0
7919,E2,446.0,0.5,95,135.0
7920,G#2,446.0,0.5,95,135.0
7921,G5,446.25,0.75,95,135.0
7922,E3,446.5,0.5,95,135.0
7923,E2,446.5,0.5,95,135.0
7924,G#2,446.5,0.5,95,135.0
7925,G3,447.0,0.5,95,135.0
7926,F#5,447.0,2.0,47,135.0
7927,C2,447.0,0.5,95,135.0
7928,G#2,447.0,0.5,95,135.0
7929,C2,447.0,0.5,95,135.0
7930,G3,447.5,0.5,95,135.0
7931,C2,447.5,0.5,95,135.0
7932,G#2,447.5,0.5,95,135.0
7933,G3,448.0,0.5,95,135.0
7934,C2,448.0,0.5,95,135.0
7935,G#2,448.0,0.5,95,135.0
7936,C2,448.0,0.5,95,135.0
7937,G3,448.5,0.5,95,135.0
7938,C2,448.5,0.5,95,135.0
7939,G#2,448.5,0.5,95,135.0
7940,D2,448.5,0.5,95,135.0
7941,F#3,449.0,0.5,95,135.0
7942,C2,449.0,0.5,95,135.0
7943,G#2,449.0,0.5,95,135.0
7944,G3,449.5,0.5,95,135.0
7945,C2,449.5,0.5,95,135.0
7946,G#2,449.5,0.5,95,135.0
7947,A3,450.0,0.5,95,135.0
7948,A1,450.0,0.5,95,135.0
7949,G#2,450.0,0.5,95,135.0
7950,C2,450.0,0.5,95,135.0
7951,A3,450.5,0.5,95,135.0
7952,B4,450.5,0.5,95,135.0
7953,A1,450.5,0.5,95,135.0
7954,G#2,450.5,0.5,95,135.0
7955,A3,451.0,0.5,95,135.0
7956,D5,451.0,0.5,95,135.0
7957,A1,451.0,0.5,95,135.0
7958,G#2,451.0,0.5,95,135.0
7959,C2,451.0,0.5,95,135.0
7960,G3,451.5,0.5,95,135.0
7961,E5,451.5,0.5,95,135.0
7962,A1,451.5,0.5,95,135.0
7963,G#2,451.5,0.5,95,135.0
7964,D2,451.5,0.5,95,135.0
7965,G3,452.0,0.5,95,135.0
7966,A5,452.0,0.5,95,135.0
7967,A1,452.0,0.5,95,135.0
7968,G#2,452.0,0.5,95,135.0
7969,G3,452.5,0.5,95,135.0
7970,G5,452.5,0.5,95,135.0
7971,A1,452.5,0.5,95,135.0
7972,G#2,452.5,0.5,95,135.0
7973,F#3,453.0,0.5,95,135.0
7974,E5,453.0,1.0,95,135.0
7975,D2,453.0,0.5,95,135.0
7976,G#2,453.0,0.5,95,135.0
7977,C2,453.0,0.5,95,135.0
7978,G3,453.5,0.5,95,135.0
7979,D2,453.5,0.5,95,135.0
7980,G#2,453.5,0.5,95,135.0
7981,F#3,454.0,0.5,95,135.0
7982,D2,454.0,0.5,95,135.0
7983,G#2,454.0,0.5,95,135.0
7984,C2,454.0,0.5,95,135.0
7985,E3,454.5,0.5,95,135.0
7986,E4,454.5,0.5,95,135.0
7987,F#2,454.5,0.5,95,135.0
7988,G#2,454.5,0.5,95,135.0
7989,D2,454.5,0.5,95,135.0
7990,D3,455.0,0.5,95,135.0
7991,D4,455.0,0.5,95,135.0
7992,G2,455.0,0.5,95,135.0
7993,G#2,455.0,0.5,95,135.0
7994,B2,455.5,0.5,95,135.0
7995,B3,455.5,0.5,95,135.0
7996,A2,455.5,0.5,95,135.0
7997,G#2,455.5,0.5,95,135.0
7998,E3,456.0,0.5,95,135.0
7999,E4,456.0,0.5,95,135.0
8000,E2,456.0,0.5,95,135.0
8001,G#2,456.0,0.5,95,135.0
8002,C2,456.0,0.5,95,135.0
8003,E3,456.5,0.5,95,135.0
8004,D4,456.5,0.25,95,135.0
8005,E2,456.5,0.5,95,135.0
8006,G#2,456.5,0.5,95,135.0
8007,E4,456.75,0.25,95,135.0
8008,E3,457.0,0.5,95,135.0
8009,G4,457.0,0.5,95,135.0
8010,E2,457.0,0.5,95,135.0
8011,G#2,457.0,0.5,95,135.0
8012,C2,457.0,0.5,95,135.0
8013,E3,457.5,0.5,95,135.0
8014,A4,457.5,0.125,95,135.0
8015,E2,457.5,0.5,95,135.0
8016,G#2,457.5,0.5,95,135.0
8017,D2,457.5,0.5,95,135.0
8018,B4,457.625,0.5,95,135.0
8019,D3,458.0,0.5,95,135.0
8020,E2,458.0,0.5,95,135.0
8021,G#2,458.0,0.5,95,135.0
8022,A4,458.125,0.5,95,135.0
8023,E3,458.5,0.5,95,135.0
8024,E2,458.5,0.5,95,135.0
8025,G#2,458.5,0.5,95,135.0
8026,G4,458.625,0.375,95,135.0
8027,G3,459.0,0.5,95,135.0
8028,E4,459.0,1.0,95,135.0
8029,C2,459.0,0.5,95,135.0
8030,G#2,459.0,0.5,95,135.0
8031,C2,459.0,0.5,95,135.0
8032,G3,459.5,0.5,95,135.0
8033,C2,459.5,0.5,95,135.0
8034,G#2,459.5,0.5,95,135.0
8035,G3,460.0,0.5,95,135.0
8036,C2,460.0,0.5,95,135.0
8037,G#2,460.0,0.5,95,135.0
8038,C2,460.0,0.5,95,135.0
8039,G3,460.5,0.5,95,135.0
8040,E4,460.5,0.5,95,135.0
8041,C2,460.5,0.5,95,135.0
8042,G#2,460.5,0.5,95,135.0
8043,D2,460.5,0.5,95,135.0
8044,F#3,461.0,0.5,95,135.0
8045,D4,461.0,0.5,95,135.0
8046,C2,461.0,0.5,95,135.0
8047,G#2,461.0,0.5,95,135.0
8048,G3,461.5,0.5,95,135.0
8049,B3,461.5,0.5,95,135.0
8050,C2,461.5,0.5,95,135.0
8051,G#2,461.5,0.5,95,135.0
8052,A3,462.0,0.5,95,135.0
8053,E4,462.0,0.5,95,135.0
8054,A1,462.0,0.5,95,135.0
8055,G#2,462.0,0.5,95,135.0
8056,C2,462.0,0.5,95,135.0
8057,A3,462.5,0.5,95,135.0
8058,D4,462.5,0.25,95,135.0
8059,A1,462.5,0.5,95,135.0
8060,G#2,462.5,0.5,95,135.0
8061,E4,462.75,0.25,95,135.0
8062,A3,463.0,0.5,95,135.0
8063,G4,463.0,0.5,95,135.0
8064,A1,463.0,0.5,95,135.0
8065,G#2,463.0,0.5,95,135.0
8066,C2,463.0,0.5,95,135.0
8067,G3,463.5,0.5,95,135.0
8068,A4,463.5,0.125,95,135.0
8069,A1,463.5,0.5,95,135.0
8070,G#2,463.5,0.5,95,135.0
8071,D2,463.5,0.5,95,135.0
8072,B4,463.625,0.5,95,135.0
8073,G3,464.0,0.5,95,135.0
8074,A1,464.0,0.5,95,135.0
8075,G#2,464.0,0.5,95,135.0
8076,A4,464.125,0.5,95,135.0
8077,G3,464.5,0.5,95,135.0
8078,A1,464.5,0.5,95,135.0
8079,G#2,464.5,0.5,95,135.0
8080,G4,464.625,0.375,95,135.0
8081,F#3,465.0,0.5,95,135.0
8082,A4,465.0,1.0,95,135.0
8083,D2,465.0,0.5,95,135.0
8084,G#2,465.0,0.5,95,135.0
8085,C2,465.0,0.5,95,135.0
8086,G3,465.5,0.5,95,135.0
8087,D2,465.5,0.5,95,135.0
8088,G#2,465.5,0.5,95,135.0
8089,F#3,466.0,0.5,95,135.0
8090,E5,466.0,0.5,95,135.0
8091,D2,466.0,0.5,95,135.0
8092,G#2,466.0,0.5,95,135.0
8093,C2,466.0,0.5,95,135.0
8094,E3,466.5,0.5,95,135.0
8095,D5,466.5,0.5,95,135.0
8096,F#2,466.5,0.5,95,135.0
8097,G#2,466.5,0.5,95,135.0
8098,D2,466.5,0.5,95,135.0
8099,D3,467.0,0.5,95,135.0
8100,B4,467.0,0.5,95,135.0
8101,G2,467.0,0.5,95,135.0
8102,G#2,467.0,0.5,95,135.0
8103,B2,467.5,0.5,95,135.0
8104,A4,467.5,0.5,95,135.0
8105,A2,467.5,0.5,95,135.0
8106,G#2,467.5,0.5,95,135.0
8107,E3,468.0,0.5,95,135.0
8108,E2,468.0,0.5,95,135.0
8109,G#2,468.0,0.5,95,135.0
8110,C2,468.0,0.5,95,135.0
8111,E3,468.5,0.5,95,135.0
8112,D4,468.5,0.25,95,135.0
8113,E2,468.5,0.5,95,135.0
8114,G#2,468.5,0.5,95,135.0
8115,E4,468.75,0.25,95,135.0
8116,E3,469.0,0.5,95,135.0
8117,G4,469.0,0.25,95,135.0
8118,E2,469.0,0.5,95,135.0
8119,G#2,469.0,0.5,95,135.0
8120,C2,469.0,0.5,95,135.0
8121,A4,469.25,0.25,95,135.0
8122,E3,469.5,0.5,95,135.0
8123,B4,469.5,0.25,95,135.0
8124,E2,469.5,0.5,95,135.0
8125,G#2,469.5,0.5,95,135.0
8126,D2,469.5,0.5,95,135.0
8127,D5,469.75,0.25,95,135.0
8128,D3,470.0,0.5,95,135.0
8129,E5,470.0,0.25,95,135.0
8130,E2,470.0,0.5,95,135.0
8131,G#2,470.0,0.5,95,135.0
8132,G5,470.25,0.75,95,135.0
8133,E3,470.5,0.5,95,135.0
8134,E2,470.5,0.5,95,135.0
8135,G#2,470.5,0.5,95,135.0
8136,G3,471.0,0.5,95,135.0
8137,F#5,471.0,3.0,47,135.0
8138,C2,471.0,0.5,95,135.0
8139,G#2,471.0,0.5,95,135.0
8140,C2,471.0,0.5,95,135.0
8141,G3,471.5,0.5,95,135.0
8142,C2,471.5,0.5,95,135.0
8143,G#2,471.5,0.5,95,135.0
8144,G3,472.0,0.5,95,135.0
8145,C2,472.0,0.5,95,135.0
8146,G#2,472.0,0.5,95,135.0
8147,C2,472.0,0.5,95,135.0
8148,G3,472.5,0.5,95,135.0
8149,C2,472.5,0.5,95,135.0
8150,G#2,472.5,0.5,95,135.0
8151,D2,472.5,0.5,95,135.0
8152,F#3,473.0,0.5,95,135.0
8153,C2,473.0,0.5,95,135.0
8154,G#2,473.0,0.5,95,135.0
8155,G3,473.5,0.5,95,135.0
8156,C2,473.5,0.5,95,135.0
8157,G#2,473.5,0.5,95,135.0
8158,A3,474.0,0.5,95,135.0
8159,E4,474.0,0.5,47,135.0
8160,A1,474.0,0.5,95,135.0
8161,G#2,474.0,0.5,95,135.0
8162,C2,474.0,0.5,95,135.0
8163,A3,474.5,0.5,95,135.0
8164,G4,474.5,1.0,95,135.0
8165,A1,474.5,0.5,95,135.0
8166,G#2,474.5,0.5,95,135.0
8167,A3,475.0,0.5,95,135.0
8168,A1,475.0,0.5,95,135.0
8169,G#2,475.0,0.5,95,135.0
8170,C2,475.0,0.5,95,135.0
8171,G3,475.5,0.5,95,135.0
8172,E4,475.5,0.5,47,135.0
8173,A1,475.5,0.5,95,135.0
8174,G#2,475.5,0.5,95,135.0
8175,D2,475.5,0.5,95,135.0
8176,G3,476.0,0.5,95,135.0
8177,G4,476.0,1.0,95,135.0
8178,A1,476.0,0.5,95,135.0
8179,G#2,476.0,0.5,95,135.0
8180,G3,476.5,0.5,95,135.0
8181,A1,476.5,0.5,95,135.0
8182,G#2,476.5,0.5,95,135.0
8183,F#3,477.0,0.5,95,135.0
8184,E4,477.0,0.5,47,135.0
8185,D2,477.0,0.5,95,135.0
8186,G#2,477.0,0.5,95,135.0
8187,C2,477.0,0.5,95,135.0
8188,G3,477.5,0.5,95,135.0
8189,G4,477.5,1.0,95,135.0
8190,D2,477.5,0.5,95,135.0
8191,G#2,477.5,0.5,95,135.0
8192,F#3,478.0,0.5,95,135.0
8193,D2,478.0,0.5,95,135.0
8194,G#2,478.0,0.5,95,135.0
8195,C2,478.0,0.5,95,135.0
8196,E3,478.5,0.5,95,135.0
8197,E4,478.5,0.5,47,135.0
8198,F#2,478.5,0.5,95,135.0
8199,G#2,478.5,0.5,95,135.0
8200,D2,478.5,0.5,95,135.0
8201,D3,479.0,0.5,95,135.0
8202,G4,479.0,1.0,95,135.0
8203,G2,479.0,0.5,95,135.0
8204,G#2,479.0,0.5,95,135.0
8205,B2,479.5,0.5,95,135.0
8206,A2,479.5,0.5,95,135.0
8207,G#2,479.5,0.5,95,135.0
